,note,step,duration,channel,velocity
0,74.0,5.0,120.0,10.0,0.0
1,62.0,2.0,60.0,11.0,0.0
2,62.0,0.0,60.0,12.0,0.0
3,62.0,1.0,720.0,4.0,0.0
4,50.0,53.0,60.0,6.0,0.0
5,50.0,3.0,120.0,13.0,0.0
6,50.0,1.0,720.0,5.0,0.0
7,38.0,54.0,120.0,14.0,0.0
8,66.0,2.0,60.0,12.0,0.0
9,69.0,0.0,60.0,11.0,0.0
10,54.0,1.0,60.0,6.0,0.0
11,57.0,0.0,60.0,6.0,0.0
12,66.0,2.0,60.0,12.0,0.0
13,69.0,0.0,60.0,11.0,0.0
14,57.0,58.0,60.0,6.0,0.0
15,54.0,0.0,60.0,6.0,0.0
16,71.0,0.0,60.0,11.0,0.0
17,67.0,2.0,60.0,12.0,0.0
18,55.0,0.0,60.0,6.0,0.0
19,59.0,53.0,60.0,6.0,0.0
20,69.0,2.0,60.0,11.0,0.0
21,66.0,0.0,60.0,12.0,0.0
22,57.0,0.0,60.0,6.0,0.0
23,54.0,63.0,60.0,6.0,0.0
24,66.0,0.0,60.0,12.0,0.0
25,69.0,2.0,60.0,11.0,0.0
26,54.0,58.0,60.0,6.0,0.0
27,57.0,0.0,60.0,6.0,0.0
28,67.0,0.0,60.0,11.0,0.0
29,64.0,2.0,60.0,12.0,0.0
30,52.0,53.0,60.0,6.0,0.0
31,55.0,0.0,60.0,6.0,0.0
32,62.0,2.0,60.0,12.0,0.0
33,66.0,0.0,60.0,11.0,0.0
34,54.0,63.0,60.0,6.0,0.0
35,50.0,0.0,60.0,6.0,0.0
36,62.0,2.0,60.0,12.0,0.0
37,66.0,0.0,60.0,11.0,0.0
38,54.0,0.0,60.0,6.0,0.0
39,50.0,58.0,60.0,6.0,0.0
40,64.0,0.0,60.0,11.0,0.0
41,61.0,2.0,60.0,12.0,0.0
42,45.0,0.0,60.0,6.0,0.0
43,52.0,26.0,60.0,6.0,0.0
44,74.0,27.0,30.0,10.0,0.0
45,62.0,2.0,60.0,12.0,0.0
46,62.0,0.0,60.0,11.0,0.0
47,54.0,1.0,60.0,6.0,0.0
48,50.0,0.0,60.0,6.0,0.0
49,76.0,30.0,30.0,10.0,0.0
50,78.0,25.0,30.0,10.0,0.0
51,62.0,1.0,60.0,11.0,0.0
52,62.0,0.0,60.0,12.0,0.0
53,50.0,0.0,60.0,6.0,0.0
54,54.0,59.0,60.0,6.0,0.0
55,76.0,3.0,30.0,10.0,0.0
56,76.0,2.0,60.0,10.0,0.0
57,62.0,0.0,60.0,11.0,0.0
58,62.0,2.0,60.0,12.0,0.0
59,62.0,1.0,720.0,4.0,0.0
60,50.0,53.0,60.0,6.0,0.0
61,54.0,0.0,60.0,6.0,0.0
62,50.0,3.0,120.0,13.0,0.0
63,50.0,1.0,720.0,5.0,0.0
64,38.0,52.0,120.0,14.0,0.0
65,74.0,2.0,120.0,10.0,0.0
66,69.0,2.0,60.0,11.0,0.0
67,66.0,0.0,60.0,12.0,0.0
68,57.0,6.0,60.0,6.0,0.0
69,54.0,0.0,60.0,6.0,0.0
70,69.0,2.0,60.0,11.0,0.0
71,66.0,0.0,60.0,12.0,0.0
72,57.0,0.0,60.0,6.0,0.0
73,54.0,58.0,60.0,6.0,0.0
74,71.0,2.0,60.0,11.0,0.0
75,67.0,0.0,60.0,12.0,0.0
76,59.0,0.0,60.0,6.0,0.0
77,55.0,53.0,60.0,6.0,0.0
78,66.0,2.0,60.0,12.0,0.0
79,69.0,0.0,60.0,11.0,0.0
80,57.0,63.0,60.0,6.0,0.0
81,54.0,0.0,60.0,6.0,0.0
82,69.0,2.0,60.0,11.0,0.0
83,66.0,0.0,60.0,12.0,0.0
84,54.0,58.0,60.0,6.0,0.0
85,57.0,0.0,60.0,6.0,0.0
86,67.0,0.0,60.0,11.0,0.0
87,64.0,2.0,60.0,12.0,0.0
88,52.0,0.0,60.0,6.0,0.0
89,55.0,53.0,60.0,6.0,0.0
90,66.0,0.0,60.0,11.0,0.0
91,62.0,2.0,60.0,12.0,0.0
92,54.0,0.0,60.0,6.0,0.0
93,50.0,63.0,60.0,6.0,0.0
94,62.0,0.0,60.0,12.0,0.0
95,66.0,2.0,60.0,11.0,0.0
96,50.0,0.0,60.0,6.0,0.0
97,54.0,58.0,60.0,6.0,0.0
98,64.0,0.0,60.0,11.0,0.0
99,61.0,2.0,60.0,12.0,0.0
100,45.0,0.0,60.0,6.0,0.0
101,52.0,26.0,60.0,6.0,0.0
102,74.0,27.0,30.0,10.0,0.0
103,62.0,0.0,60.0,12.0,0.0
104,66.0,2.0,60.0,11.0,0.0
105,50.0,1.0,60.0,6.0,0.0
106,54.0,0.0,60.0,6.0,0.0
107,76.0,30.0,30.0,10.0,0.0
108,78.0,25.0,30.0,10.0,0.0
109,66.0,0.0,60.0,11.0,0.0
110,62.0,1.0,60.0,12.0,0.0
111,50.0,0.0,60.0,6.0,0.0
112,54.0,9.0,60.0,6.0,0.0
113,74.0,3.0,30.0,10.0,0.0
114,73.0,10.0,15.0,10.0,0.0
115,61.0,2.0,60.0,12.0,0.0
116,57.0,1.0,720.0,4.0,0.0
117,45.0,53.0,60.0,6.0,0.0
118,52.0,0.0,60.0,6.0,0.0
119,45.0,1.0,720.0,5.0,0.0
120,45.0,3.0,120.0,13.0,0.0
121,33.0,51.0,120.0,14.0,0.0
122,74.0,10.0,15.0,10.0,0.0
123,76.0,30.0,15.0,10.0,0.0
124,74.0,2.0,30.0,10.0,0.0
125,73.0,1.0,120.0,10.0,0.0
126,67.0,0.0,15.0,11.0,0.0
127,64.0,2.0,60.0,12.0,0.0
128,52.0,6.0,60.0,6.0,0.0
129,55.0,0.0,60.0,6.0,0.0
130,67.0,0.0,60.0,11.0,0.0
131,64.0,1.0,60.0,12.0,0.0
132,52.0,0.0,60.0,6.0,0.0
133,55.0,61.0,60.0,6.0,0.0
134,66.0,0.0,60.0,12.0,0.0
135,69.0,2.0,60.0,11.0,0.0
136,57.0,53.0,60.0,6.0,0.0
137,54.0,0.0,60.0,6.0,0.0
138,64.0,0.0,60.0,12.0,0.0
139,67.0,2.0,60.0,11.0,0.0
140,55.0,63.0,60.0,6.0,0.0
141,52.0,0.0,60.0,6.0,0.0
142,64.0,2.0,60.0,12.0,0.0
143,67.0,0.0,60.0,11.0,0.0
144,52.0,0.0,60.0,6.0,0.0
145,55.0,58.0,60.0,6.0,0.0
146,62.0,0.0,60.0,12.0,0.0
147,66.0,2.0,60.0,11.0,0.0
148,54.0,53.0,60.0,6.0,0.0
149,50.0,0.0,60.0,6.0,0.0
150,61.0,0.0,60.0,12.0,0.0
151,64.0,2.0,60.0,11.0,0.0
152,49.0,63.0,60.0,6.0,0.0
153,52.0,0.0,60.0,6.0,0.0
154,61.0,2.0,60.0,12.0,0.0
155,64.0,0.0,60.0,11.0,0.0
156,49.0,0.0,60.0,6.0,0.0
157,52.0,58.0,60.0,6.0,0.0
158,59.0,0.0,60.0,12.0,0.0
159,62.0,2.0,60.0,11.0,0.0
160,50.0,0.0,60.0,6.0,0.0
161,47.0,26.0,60.0,6.0,0.0
162,76.0,27.0,30.0,10.0,0.0
163,61.0,2.0,60.0,12.0,0.0
164,64.0,0.0,60.0,11.0,0.0
165,52.0,0.0,60.0,6.0,0.0
166,45.0,1.0,60.0,6.0,0.0
167,78.0,30.0,30.0,10.0,0.0
168,79.0,25.0,30.0,10.0,0.0
169,61.0,0.0,60.0,12.0,0.0
170,64.0,1.0,60.0,11.0,0.0
171,45.0,0.0,60.0,6.0,0.0
172,52.0,59.0,60.0,6.0,0.0
173,78.0,3.0,30.0,10.0,0.0
174,78.0,2.0,60.0,10.0,0.0
175,61.0,0.0,60.0,12.0,0.0
176,64.0,2.0,60.0,11.0,0.0
177,57.0,2.0,720.0,4.0,0.0
178,45.0,0.0,60.0,6.0,0.0
179,45.0,3.0,120.0,13.0,0.0
180,45.0,2.0,720.0,5.0,0.0
181,33.0,51.0,120.0,14.0,0.0
182,76.0,1.0,120.0,10.0,0.0
183,67.0,0.0,60.0,11.0,0.0
184,64.0,2.0,60.0,12.0,0.0
185,52.0,53.0,15.0,6.0,0.0
186,55.0,6.0,60.0,6.0,0.0
187,67.0,1.0,60.0,11.0,0.0
188,64.0,0.0,60.0,12.0,0.0
189,52.0,61.0,60.0,6.0,0.0
190,55.0,0.0,60.0,6.0,0.0
191,66.0,2.0,60.0,12.0,0.0
192,69.0,0.0,60.0,11.0,0.0
193,57.0,53.0,60.0,6.0,0.0
194,54.0,0.0,60.0,6.0,0.0
195,64.0,0.0,60.0,12.0,0.0
196,67.0,2.0,60.0,11.0,0.0
197,52.0,63.0,60.0,6.0,0.0
198,55.0,0.0,60.0,6.0,0.0
199,67.0,2.0,60.0,11.0,0.0
200,64.0,0.0,60.0,12.0,0.0
201,55.0,0.0,60.0,6.0,0.0
202,52.0,58.0,60.0,6.0,0.0
203,62.0,2.0,60.0,12.0,0.0
204,66.0,0.0,60.0,11.0,0.0
205,50.0,53.0,60.0,6.0,0.0
206,54.0,0.0,60.0,6.0,0.0
207,61.0,2.0,60.0,12.0,0.0
208,64.0,0.0,60.0,11.0,0.0
209,49.0,63.0,60.0,6.0,0.0
210,52.0,0.0,60.0,6.0,0.0
211,64.0,2.0,60.0,11.0,0.0
212,61.0,0.0,60.0,12.0,0.0
213,49.0,0.0,60.0,6.0,0.0
214,52.0,58.0,60.0,6.0,0.0
215,62.0,2.0,60.0,11.0,0.0
216,59.0,0.0,60.0,12.0,0.0
217,47.0,0.0,60.0,6.0,0.0
218,50.0,53.0,60.0,6.0,0.0
219,76.0,5.0,60.0,10.0,0.0
220,61.0,0.0,60.0,12.0,0.0
221,64.0,2.0,60.0,11.0,0.0
222,45.0,1.0,60.0,6.0,0.0
223,52.0,0.0,60.0,6.0,0.0
224,57.0,3.0,60.0,13.0,0.0
225,45.0,22.0,60.0,14.0,0.0
226,78.0,25.0,30.0,10.0,0.0
227,64.0,0.0,60.0,11.0,0.0
228,61.0,2.0,60.0,12.0,0.0
229,55.0,1.0,60.0,6.0,0.0
230,52.0,0.0,60.0,6.0,0.0
231,55.0,3.0,60.0,13.0,0.0
232,43.0,24.0,60.0,14.0,0.0
233,79.0,3.0,30.0,10.0,0.0
234,81.0,2.0,240.0,10.0,0.0
235,66.0,0.0,30.0,11.0,0.0
236,62.0,2.0,30.0,12.0,0.0
237,62.0,0.0,720.0,4.0,0.0
238,74.0,0.0,720.0,2.0,0.0
239,54.0,28.0,30.0,6.0,0.0
240,54.0,3.0,120.0,13.0,0.0
241,50.0,32.0,720.0,5.0,0.0
242,42.0,24.0,120.0,14.0,0.0
243,62.0,2.0,30.0,11.0,0.0
244,57.0,0.0,30.0,12.0,0.0
245,42.0,28.0,30.0,6.0,0.0
246,50.0,0.0,15.0,6.0,0.0
247,66.0,0.0,30.0,11.0,0.0
248,62.0,2.0,30.0,12.0,0.0
249,54.0,28.0,30.0,6.0,0.0
250,62.0,0.0,30.0,11.0,0.0
251,57.0,2.0,30.0,12.0,0.0
252,50.0,0.0,15.0,6.0,0.0
253,42.0,1.0,30.0,6.0,0.0
254,66.0,0.0,30.0,11.0,0.0
255,62.0,2.0,30.0,12.0,0.0
256,54.0,28.0,30.0,6.0,0.0
257,50.0,0.0,30.0,6.0,0.0
258,62.0,0.0,30.0,11.0,0.0
259,57.0,2.0,30.0,12.0,0.0
260,42.0,0.0,30.0,6.0,0.0
261,66.0,2.0,30.0,11.0,0.0
262,62.0,0.0,30.0,12.0,0.0
263,50.0,28.0,15.0,6.0,0.0
264,54.0,0.0,30.0,6.0,0.0
265,62.0,0.0,30.0,11.0,0.0
266,57.0,2.0,30.0,12.0,0.0
267,50.0,26.0,15.0,6.0,0.0
268,42.0,0.0,30.0,6.0,0.0
269,79.0,2.0,60.0,10.0,0.0
270,62.0,0.0,30.0,12.0,0.0
271,66.0,2.0,30.0,11.0,0.0
272,54.0,0.0,30.0,6.0,0.0
273,50.0,28.0,15.0,6.0,0.0
274,57.0,2.0,30.0,12.0,0.0
275,62.0,0.0,30.0,11.0,0.0
276,42.0,28.0,30.0,6.0,0.0
277,78.0,2.0,60.0,10.0,0.0
278,62.0,2.0,30.0,12.0,0.0
279,66.0,0.0,30.0,11.0,0.0
280,50.0,0.0,15.0,6.0,0.0
281,54.0,21.0,30.0,6.0,0.0
282,57.0,0.0,30.0,12.0,0.0
283,62.0,2.0,30.0,11.0,0.0
284,50.0,33.0,30.0,6.0,0.0
285,42.0,0.0,30.0,6.0,0.0
286,76.0,7.0,150.0,10.0,0.0
287,64.0,2.0,30.0,11.0,0.0
288,62.0,0.0,30.0,12.0,0.0
289,71.0,1.0,360.0,2.0,0.0
290,50.0,28.0,30.0,6.0,0.0
291,52.0,0.0,30.0,6.0,0.0
292,43.0,3.0,120.0,13.0,0.0
293,31.0,17.0,120.0,14.0,0.0
294,62.0,2.0,30.0,11.0,0.0
295,59.0,0.0,30.0,12.0,0.0
296,43.0,28.0,30.0,6.0,0.0
297,62.0,0.0,30.0,12.0,0.0
298,64.0,2.0,30.0,11.0,0.0
299,50.0,0.0,15.0,6.0,0.0
300,52.0,0.0,30.0,6.0,0.0
301,59.0,2.0,30.0,12.0,0.0
302,62.0,0.0,30.0,11.0,0.0
303,50.0,28.0,15.0,6.0,0.0
304,43.0,1.0,30.0,6.0,0.0
305,62.0,2.0,30.0,12.0,0.0
306,64.0,0.0,30.0,11.0,0.0
307,52.0,0.0,30.0,6.0,0.0
308,50.0,6.0,30.0,6.0,0.0
309,78.0,10.0,15.0,10.0,0.0
310,59.0,2.0,30.0,12.0,0.0
311,62.0,0.0,30.0,11.0,0.0
312,43.0,28.0,30.0,6.0,0.0
313,76.0,10.0,15.0,10.0,0.0
314,75.0,2.0,15.0,10.0,0.0
315,76.0,2.0,60.0,10.0,0.0
316,64.0,2.0,30.0,11.0,0.0
317,62.0,0.0,30.0,12.0,0.0
318,52.0,0.0,30.0,6.0,0.0
319,50.0,0.0,15.0,6.0,0.0
320,59.0,2.0,30.0,12.0,0.0
321,62.0,0.0,30.0,11.0,0.0
322,43.0,0.0,30.0,6.0,0.0
323,50.0,26.0,15.0,6.0,0.0
324,79.0,2.0,60.0,10.0,0.0
325,62.0,2.0,30.0,12.0,0.0
326,64.0,0.0,30.0,11.0,0.0
327,50.0,28.0,15.0,6.0,0.0
328,52.0,26.0,30.0,6.0,0.0
329,62.0,2.0,30.0,11.0,0.0
330,59.0,0.0,30.0,12.0,0.0
331,50.0,0.0,15.0,6.0,0.0
332,43.0,0.0,30.0,6.0,0.0
333,83.0,19.0,30.0,10.0,0.0
334,62.0,2.0,30.0,12.0,0.0
335,64.0,0.0,30.0,11.0,0.0
336,52.0,4.0,30.0,6.0,0.0
337,62.0,1.0,30.0,11.0,0.0
338,59.0,0.0,30.0,12.0,0.0
339,43.0,0.0,30.0,6.0,0.0
340,50.0,0.0,15.0,6.0,0.0
341,69.0,2.0,240.0,10.0,0.0
342,62.0,2.0,30.0,12.0,0.0
343,66.0,0.0,30.0,11.0,0.0
344,66.0,0.0,540.0,2.0,0.0
345,74.0,0.0,180.0,2.0,0.0
346,57.0,2.0,60.0,4.0,0.0
347,54.0,0.0,30.0,6.0,0.0
348,50.0,24.0,30.0,6.0,0.0
349,45.0,2.0,60.0,5.0,0.0
350,45.0,3.0,120.0,13.0,0.0
351,33.0,24.0,120.0,14.0,0.0
352,62.0,2.0,30.0,11.0,0.0
353,57.0,0.0,30.0,12.0,0.0
354,50.0,0.0,30.0,6.0,0.0
355,45.0,28.0,30.0,6.0,0.0
356,62.0,2.0,30.0,12.0,0.0
357,66.0,0.0,30.0,11.0,0.0
358,57.0,2.0,60.0,4.0,0.0
359,54.0,24.0,30.0,6.0,0.0
360,50.0,0.0,30.0,6.0,0.0
361,45.0,2.0,60.0,5.0,0.0
362,57.0,0.0,30.0,12.0,0.0
363,62.0,2.0,30.0,11.0,0.0
364,45.0,1.0,30.0,6.0,0.0
365,62.0,2.0,30.0,12.0,0.0
366,66.0,0.0,30.0,11.0,0.0
367,57.0,2.0,60.0,4.0,0.0
368,54.0,0.0,30.0,6.0,0.0
369,50.0,0.0,15.0,6.0,0.0
370,45.0,2.0,60.0,5.0,0.0
371,62.0,0.0,30.0,11.0,0.0
372,57.0,2.0,30.0,12.0,0.0
373,45.0,28.0,30.0,6.0,0.0
374,86.0,0.0,120.0,0.0,0.0
375,81.0,2.0,120.0,0.0,0.0
376,62.0,0.0,30.0,12.0,0.0
377,66.0,2.0,30.0,11.0,0.0
378,74.0,0.0,120.0,1.0,0.0
379,78.0,0.0,120.0,1.0,0.0
380,69.0,1.0,540.0,2.0,0.0
381,57.0,2.0,60.0,4.0,0.0
382,50.0,0.0,15.0,6.0,0.0
383,54.0,24.0,30.0,6.0,0.0
384,62.0,0.0,120.0,3.0,0.0
385,57.0,27.0,120.0,3.0,0.0
386,45.0,0.0,60.0,5.0,0.0
387,57.0,2.0,30.0,12.0,0.0
388,62.0,0.0,30.0,11.0,0.0
389,50.0,0.0,15.0,6.0,0.0
390,45.0,0.0,30.0,6.0,0.0
391,71.0,9.0,60.0,10.0,0.0
392,62.0,0.0,30.0,12.0,0.0
393,66.0,2.0,30.0,11.0,0.0
394,57.0,2.0,60.0,4.0,0.0
395,50.0,0.0,30.0,6.0,0.0
396,54.0,15.0,30.0,6.0,0.0
397,45.0,0.0,60.0,5.0,0.0
398,62.0,0.0,30.0,11.0,0.0
399,57.0,2.0,30.0,12.0,0.0
400,50.0,0.0,30.0,6.0,0.0
401,45.0,1.0,30.0,6.0,0.0
402,73.0,8.0,60.0,10.0,0.0
403,66.0,2.0,30.0,11.0,0.0
404,62.0,0.0,30.0,12.0,0.0
405,57.0,1.0,60.0,4.0,0.0
406,54.0,0.0,30.0,6.0,0.0
407,45.0,32.0,60.0,5.0,0.0
408,62.0,0.0,30.0,11.0,0.0
409,57.0,1.0,30.0,12.0,0.0
410,45.0,1.0,30.0,6.0,0.0
411,50.0,15.0,15.0,6.0,0.0
412,74.0,9.0,60.0,10.0,0.0
413,86.0,2.0,120.0,0.0,0.0
414,81.0,0.0,120.0,0.0,0.0
415,66.0,0.0,30.0,11.0,0.0
416,78.0,0.0,120.0,1.0,0.0
417,62.0,2.0,30.0,12.0,0.0
418,74.0,0.0,120.0,1.0,0.0
419,57.0,2.0,60.0,4.0,0.0
420,54.0,15.0,30.0,6.0,0.0
421,45.0,2.0,60.0,5.0,0.0
422,45.0,0.0,120.0,13.0,0.0
423,62.0,3.0,120.0,3.0,0.0
424,57.0,0.0,120.0,3.0,0.0
425,33.0,24.0,120.0,14.0,0.0
426,57.0,2.0,30.0,12.0,0.0
427,62.0,0.0,30.0,11.0,0.0
428,50.0,0.0,15.0,6.0,0.0
429,45.0,28.0,30.0,6.0,0.0
430,76.0,9.0,60.0,10.0,0.0
431,66.0,0.0,30.0,11.0,0.0
432,62.0,2.0,30.0,12.0,0.0
433,57.0,2.0,60.0,4.0,0.0
434,54.0,0.0,30.0,6.0,0.0
435,45.0,0.0,60.0,5.0,0.0
436,62.0,2.0,30.0,11.0,0.0
437,57.0,0.0,30.0,12.0,0.0
438,50.0,15.0,15.0,6.0,0.0
439,45.0,0.0,30.0,6.0,0.0
440,78.0,8.0,60.0,10.0,0.0
441,62.0,0.0,30.0,12.0,0.0
442,66.0,2.0,30.0,11.0,0.0
443,57.0,1.0,60.0,4.0,0.0
444,54.0,15.0,30.0,6.0,0.0
445,45.0,32.0,60.0,5.0,0.0
446,57.0,0.0,30.0,12.0,0.0
447,62.0,1.0,30.0,11.0,0.0
448,45.0,0.0,30.0,6.0,0.0
449,50.0,0.0,15.0,6.0,0.0
450,81.0,2.0,60.0,10.0,0.0
451,81.0,0.0,120.0,0.0,0.0
452,85.0,2.0,120.0,0.0,0.0
453,67.0,2.0,30.0,11.0,0.0
454,76.0,0.0,120.0,1.0,0.0
455,61.0,0.0,30.0,12.0,0.0
456,79.0,2.0,120.0,1.0,0.0
457,57.0,2.0,60.0,4.0,0.0
458,67.0,0.0,180.0,2.0,0.0
459,55.0,0.0,30.0,6.0,0.0
460,45.0,0.0,120.0,13.0,0.0
461,45.0,0.0,60.0,5.0,0.0
462,57.0,0.0,120.0,3.0,0.0
463,64.0,3.0,120.0,3.0,0.0
464,33.0,22.0,120.0,14.0,0.0
465,57.0,0.0,30.0,12.0,0.0
466,61.0,2.0,30.0,11.0,0.0
467,52.0,24.0,15.0,6.0,0.0
468,45.0,0.0,30.0,6.0,0.0
469,79.0,3.0,60.0,10.0,0.0
470,61.0,2.0,30.0,12.0,0.0
471,67.0,0.0,30.0,11.0,0.0
472,57.0,2.0,60.0,4.0,0.0
473,55.0,0.0,30.0,6.0,0.0
474,52.0,28.0,15.0,6.0,0.0
475,45.0,0.0,60.0,5.0,0.0
476,61.0,0.0,30.0,11.0,0.0
477,57.0,0.0,30.0,12.0,0.0
478,45.0,0.0,30.0,6.0,0.0
479,52.0,21.0,15.0,6.0,0.0
480,76.0,2.0,30.0,10.0,0.0
481,67.0,2.0,30.0,11.0,0.0
482,61.0,0.0,30.0,12.0,0.0
483,57.0,0.0,60.0,4.0,0.0
484,55.0,21.0,30.0,6.0,0.0
485,45.0,32.0,60.0,5.0,0.0
486,78.0,2.0,30.0,10.0,0.0
487,57.0,0.0,30.0,12.0,0.0
488,61.0,1.0,30.0,11.0,0.0
489,45.0,1.0,30.0,6.0,0.0
490,52.0,0.0,15.0,6.0,0.0
491,74.0,2.0,120.0,10.0,0.0
492,81.0,0.0,120.0,0.0,0.0
493,86.0,0.0,120.0,0.0,0.0
494,78.0,1.0,120.0,1.0,0.0
495,74.0,0.0,120.0,1.0,0.0
496,62.0,0.0,30.0,12.0,0.0
497,66.0,2.0,30.0,11.0,0.0
498,66.0,1.0,120.0,2.0,0.0
499,62.0,1.0,720.0,2.0,0.0
500,62.0,2.0,300.0,4.0,0.0
501,54.0,28.0,30.0,6.0,0.0
502,50.0,32.0,720.0,3.0,0.0
503,62.0,3.0,120.0,3.0,0.0
504,50.0,2.0,300.0,5.0,0.0
505,50.0,0.0,120.0,13.0,0.0
506,38.0,24.0,120.0,14.0,0.0
507,62.0,0.0,30.0,11.0,0.0
508,66.0,2.0,30.0,12.0,0.0
509,57.0,28.0,30.0,6.0,0.0
510,69.0,0.0,30.0,11.0,0.0
511,69.0,2.0,30.0,12.0,0.0
512,54.0,26.0,30.0,6.0,0.0
513,66.0,0.0,30.0,11.0,0.0
514,66.0,0.0,30.0,12.0,0.0
515,57.0,1.0,30.0,6.0,0.0
516,69.0,0.0,30.0,12.0,0.0
517,69.0,2.0,30.0,11.0,0.0
518,54.0,28.0,30.0,6.0,0.0
519,66.0,2.0,30.0,12.0,0.0
520,66.0,0.0,30.0,11.0,0.0
521,57.0,28.0,30.0,6.0,0.0
522,71.0,2.0,30.0,11.0,0.0
523,71.0,0.0,30.0,12.0,0.0
524,55.0,28.0,30.0,6.0,0.0
525,67.0,2.0,30.0,11.0,0.0
526,67.0,0.0,30.0,12.0,0.0
527,59.0,28.0,30.0,6.0,0.0
528,69.0,2.0,30.0,12.0,0.0
529,69.0,0.0,30.0,11.0,0.0
530,54.0,24.0,30.0,6.0,0.0
531,66.0,0.0,30.0,11.0,0.0
532,66.0,2.0,30.0,12.0,0.0
533,57.0,28.0,30.0,6.0,0.0
534,69.0,2.0,30.0,11.0,0.0
535,69.0,0.0,30.0,12.0,0.0
536,62.0,0.0,180.0,4.0,0.0
537,54.0,28.0,30.0,6.0,0.0
538,50.0,2.0,180.0,5.0,0.0
539,66.0,0.0,30.0,11.0,0.0
540,66.0,2.0,30.0,12.0,0.0
541,57.0,6.0,30.0,6.0,0.0
542,88.0,9.0,15.0,10.0,0.0
543,67.0,0.0,30.0,11.0,0.0
544,67.0,2.0,30.0,12.0,0.0
545,52.0,5.0,30.0,6.0,0.0
546,86.0,10.0,15.0,10.0,0.0
547,88.0,3.0,15.0,10.0,0.0
548,86.0,10.0,15.0,10.0,0.0
549,64.0,2.0,30.0,11.0,0.0
550,64.0,0.0,30.0,12.0,0.0
551,55.0,5.0,30.0,6.0,0.0
552,88.0,10.0,15.0,10.0,0.0
553,86.0,3.0,15.0,10.0,0.0
554,88.0,10.0,15.0,10.0,0.0
555,66.0,0.0,30.0,12.0,0.0
556,66.0,2.0,30.0,11.0,0.0
557,50.0,5.0,30.0,6.0,0.0
558,86.0,10.0,15.0,10.0,0.0
559,88.0,3.0,15.0,10.0,0.0
560,86.0,10.0,15.0,10.0,0.0
561,62.0,0.0,30.0,12.0,0.0
562,62.0,2.0,30.0,11.0,0.0
563,54.0,4.0,30.0,6.0,0.0
564,88.0,9.0,15.0,10.0,0.0
565,86.0,2.0,15.0,10.0,0.0
566,88.0,10.0,15.0,10.0,0.0
567,66.0,2.0,30.0,12.0,0.0
568,66.0,0.0,30.0,11.0,0.0
569,62.0,2.0,180.0,4.0,0.0
570,50.0,4.0,30.0,6.0,0.0
571,50.0,2.0,180.0,5.0,0.0
572,86.0,10.0,15.0,10.0,0.0
573,88.0,4.0,15.0,10.0,0.0
574,86.0,10.0,15.0,10.0,0.0
575,62.0,0.0,30.0,11.0,0.0
576,62.0,2.0,30.0,12.0,0.0
577,54.0,4.0,30.0,6.0,0.0
578,88.0,10.0,15.0,10.0,0.0
579,86.0,4.0,15.0,10.0,0.0
580,88.0,10.0,15.0,10.0,0.0
581,64.0,2.0,30.0,11.0,0.0
582,64.0,0.0,30.0,12.0,0.0
583,45.0,3.0,30.0,6.0,0.0
584,86.0,10.0,15.0,10.0,0.0
585,88.0,4.0,15.0,10.0,0.0
586,86.0,10.0,15.0,10.0,0.0
587,61.0,0.0,30.0,12.0,0.0
588,61.0,2.0,30.0,11.0,0.0
589,55.0,3.0,30.0,6.0,0.0
590,88.0,10.0,15.0,10.0,0.0
591,86.0,5.0,15.0,10.0,0.0
592,88.0,10.0,15.0,10.0,0.0
593,66.0,1.0,30.0,11.0,0.0
594,66.0,0.0,30.0,12.0,0.0
595,74.0,1.0,30.0,2.0,0.0
596,54.0,1.0,30.0,6.0,0.0
597,62.0,2.0,30.0,3.0,0.0
598,86.0,10.0,15.0,10.0,0.0
599,88.0,5.0,15.0,10.0,0.0
600,86.0,10.0,15.0,10.0,0.0
601,62.0,0.0,30.0,12.0,0.0
602,62.0,1.0,30.0,11.0,0.0
603,76.0,1.0,30.0,2.0,0.0
604,57.0,1.0,30.0,6.0,0.0
605,64.0,2.0,30.0,3.0,0.0
606,88.0,10.0,15.0,10.0,0.0
607,86.0,1.0,15.0,10.0,0.0
608,88.0,9.0,15.0,10.0,0.0
609,66.0,1.0,30.0,12.0,0.0
610,66.0,0.0,30.0,11.0,0.0
611,78.0,1.0,30.0,2.0,0.0
612,62.0,0.0,60.0,4.0,0.0
613,54.0,1.0,30.0,6.0,0.0
614,50.0,0.0,60.0,5.0,0.0
615,66.0,1.0,30.0,3.0,0.0
616,86.0,10.0,15.0,10.0,0.0
617,88.0,6.0,15.0,10.0,0.0
618,86.0,10.0,15.0,10.0,0.0
619,62.0,0.0,30.0,11.0,0.0
620,62.0,1.0,30.0,12.0,0.0
621,76.0,0.0,30.0,2.0,0.0
622,57.0,1.0,30.0,6.0,0.0
623,64.0,0.0,30.0,3.0,0.0
624,88.0,11.0,15.0,10.0,0.0
625,85.0,0.0,15.0,10.0,0.0
626,78.0,0.0,120.0,0.0,0.0
627,86.0,2.0,120.0,0.0,0.0
628,86.0,0.0,120.0,10.0,0.0
629,78.0,1.0,720.0,1.0,0.0
630,66.0,2.0,30.0,12.0,0.0
631,66.0,0.0,30.0,11.0,0.0
632,62.0,2.0,300.0,4.0,0.0
633,62.0,0.0,720.0,2.0,0.0
634,76.0,1.0,60.0,2.0,0.0
635,50.0,28.0,30.0,6.0,0.0
636,50.0,2.0,300.0,5.0,0.0
637,50.0,3.0,120.0,13.0,0.0
638,50.0,0.0,720.0,3.0,0.0
639,64.0,27.0,60.0,3.0,0.0
640,38.0,24.0,120.0,14.0,0.0
641,62.0,1.0,30.0,11.0,0.0
642,62.0,0.0,30.0,12.0,0.0
643,57.0,1.0,30.0,6.0,0.0
644,69.0,2.0,30.0,11.0,0.0
645,69.0,0.0,30.0,12.0,0.0
646,74.0,1.0,120.0,2.0,0.0
647,54.0,26.0,30.0,6.0,0.0
648,62.0,27.0,120.0,3.0,0.0
649,66.0,2.0,30.0,11.0,0.0
650,66.0,0.0,30.0,12.0,0.0
651,57.0,1.0,30.0,6.0,0.0
652,69.0,2.0,30.0,11.0,0.0
653,69.0,0.0,30.0,12.0,0.0
654,54.0,28.0,30.0,6.0,0.0
655,66.0,0.0,30.0,12.0,0.0
656,66.0,1.0,30.0,11.0,0.0
657,57.0,1.0,30.0,6.0,0.0
658,71.0,0.0,30.0,11.0,0.0
659,71.0,2.0,30.0,12.0,0.0
660,55.0,28.0,30.0,6.0,0.0
661,67.0,2.0,30.0,12.0,0.0
662,67.0,0.0,30.0,11.0,0.0
663,59.0,28.0,30.0,6.0,0.0
664,69.0,2.0,30.0,12.0,0.0
665,69.0,0.0,30.0,11.0,0.0
666,54.0,24.0,30.0,6.0,0.0
667,66.0,2.0,30.0,11.0,0.0
668,66.0,0.0,30.0,12.0,0.0
669,57.0,28.0,30.0,6.0,0.0
670,69.0,0.0,30.0,11.0,0.0
671,69.0,2.0,30.0,12.0,0.0
672,62.0,2.0,180.0,4.0,0.0
673,54.0,28.0,30.0,6.0,0.0
674,50.0,2.0,180.0,5.0,0.0
675,66.0,2.0,30.0,11.0,0.0
676,66.0,0.0,30.0,12.0,0.0
677,57.0,6.0,30.0,6.0,0.0
678,88.0,9.0,15.0,10.0,0.0
679,67.0,2.0,30.0,12.0,0.0
680,67.0,0.0,30.0,11.0,0.0
681,52.0,5.0,30.0,6.0,0.0
682,86.0,10.0,15.0,10.0,0.0
683,88.0,3.0,15.0,10.0,0.0
684,86.0,10.0,15.0,10.0,0.0
685,64.0,0.0,30.0,11.0,0.0
686,64.0,2.0,30.0,12.0,0.0
687,55.0,5.0,30.0,6.0,0.0
688,88.0,10.0,15.0,10.0,0.0
689,86.0,3.0,15.0,10.0,0.0
690,88.0,10.0,15.0,10.0,0.0
691,66.0,0.0,30.0,12.0,0.0
692,66.0,2.0,30.0,11.0,0.0
693,50.0,5.0,30.0,6.0,0.0
694,86.0,10.0,15.0,10.0,0.0
695,88.0,3.0,15.0,10.0,0.0
696,86.0,10.0,15.0,10.0,0.0
697,62.0,2.0,30.0,12.0,0.0
698,62.0,0.0,30.0,11.0,0.0
699,54.0,4.0,30.0,6.0,0.0
700,88.0,9.0,15.0,10.0,0.0
701,86.0,0.0,15.0,10.0,0.0
702,88.0,10.0,15.0,10.0,0.0
703,66.0,0.0,30.0,12.0,0.0
704,66.0,2.0,30.0,11.0,0.0
705,62.0,2.0,180.0,4.0,0.0
706,50.0,4.0,30.0,6.0,0.0
707,50.0,2.0,180.0,5.0,0.0
708,86.0,10.0,15.0,10.0,0.0
709,88.0,4.0,15.0,10.0,0.0
710,86.0,10.0,15.0,10.0,0.0
711,62.0,0.0,30.0,12.0,0.0
712,62.0,2.0,30.0,11.0,0.0
713,54.0,4.0,30.0,6.0,0.0
714,88.0,10.0,15.0,10.0,0.0
715,86.0,4.0,15.0,10.0,0.0
716,88.0,10.0,15.0,10.0,0.0
717,64.0,2.0,30.0,12.0,0.0
718,64.0,0.0,30.0,11.0,0.0
719,45.0,3.0,30.0,6.0,0.0
720,86.0,10.0,15.0,10.0,0.0
721,88.0,4.0,15.0,10.0,0.0
722,86.0,10.0,15.0,10.0,0.0
723,61.0,0.0,30.0,11.0,0.0
724,61.0,2.0,30.0,12.0,0.0
725,52.0,3.0,30.0,6.0,0.0
726,88.0,10.0,15.0,10.0,0.0
727,86.0,5.0,15.0,10.0,0.0
728,88.0,10.0,15.0,10.0,0.0
729,66.0,0.0,30.0,12.0,0.0
730,66.0,1.0,30.0,11.0,0.0
731,74.0,1.0,30.0,2.0,0.0
732,50.0,1.0,30.0,6.0,0.0
733,62.0,2.0,30.0,3.0,0.0
734,86.0,10.0,15.0,10.0,0.0
735,88.0,5.0,15.0,10.0,0.0
736,86.0,10.0,15.0,10.0,0.0
737,62.0,1.0,30.0,12.0,0.0
738,62.0,0.0,30.0,11.0,0.0
739,76.0,1.0,30.0,2.0,0.0
740,54.0,1.0,30.0,6.0,0.0
741,64.0,2.0,30.0,3.0,0.0
742,88.0,10.0,15.0,10.0,0.0
743,86.0,1.0,15.0,10.0,0.0
744,88.0,9.0,15.0,10.0,0.0
745,66.0,0.0,30.0,11.0,0.0
746,66.0,1.0,30.0,12.0,0.0
747,78.0,1.0,30.0,2.0,0.0
748,62.0,0.0,60.0,4.0,0.0
749,50.0,1.0,30.0,6.0,0.0
750,66.0,1.0,30.0,3.0,0.0
751,50.0,0.0,60.0,5.0,0.0
752,86.0,10.0,15.0,10.0,0.0
753,88.0,6.0,15.0,10.0,0.0
754,86.0,9.0,15.0,10.0,0.0
755,85.0,12.0,15.0,10.0,0.0
756,62.0,0.0,30.0,12.0,0.0
757,62.0,0.0,30.0,11.0,0.0
758,74.0,1.0,30.0,2.0,0.0
759,54.0,1.0,30.0,6.0,0.0
760,62.0,0.0,30.0,3.0,0.0
761,86.0,13.0,15.0,10.0,0.0
762,88.0,0.0,120.0,10.0,0.0
763,88.0,0.0,120.0,0.0,0.0
764,85.0,2.0,120.0,0.0,0.0
765,67.0,0.0,30.0,12.0,0.0
766,81.0,1.0,720.0,1.0,0.0
767,67.0,1.0,30.0,11.0,0.0
768,57.0,2.0,300.0,4.0,0.0
769,69.0,0.0,720.0,2.0,0.0
770,73.0,2.0,15.0,2.0,0.0
771,45.0,1.0,30.0,6.0,0.0
772,45.0,3.0,120.0,13.0,0.0
773,45.0,2.0,300.0,5.0,0.0
774,61.0,8.0,15.0,3.0,0.0
775,57.0,0.0,720.0,3.0,0.0
776,33.0,24.0,120.0,14.0,0.0
777,74.0,2.0,15.0,2.0,0.0
778,62.0,7.0,15.0,3.0,0.0
779,76.0,1.0,15.0,2.0,0.0
780,64.0,27.0,15.0,3.0,0.0
781,61.0,1.0,30.0,12.0,0.0
782,61.0,0.0,30.0,11.0,0.0
783,74.0,1.0,30.0,2.0,0.0
784,52.0,1.0,30.0,6.0,0.0
785,62.0,27.0,30.0,3.0,0.0
786,67.0,0.0,30.0,12.0,0.0
787,67.0,2.0,30.0,11.0,0.0
788,73.0,1.0,120.0,2.0,0.0
789,52.0,26.0,30.0,6.0,0.0
790,61.0,27.0,120.0,3.0,0.0
791,64.0,0.0,30.0,12.0,0.0
792,64.0,2.0,30.0,11.0,0.0
793,55.0,1.0,30.0,6.0,0.0
794,67.0,0.0,30.0,12.0,0.0
795,67.0,2.0,30.0,11.0,0.0
796,52.0,28.0,30.0,6.0,0.0
797,64.0,0.0,30.0,12.0,0.0
798,64.0,1.0,30.0,11.0,0.0
799,55.0,1.0,30.0,6.0,0.0
800,69.0,2.0,30.0,11.0,0.0
801,69.0,0.0,30.0,12.0,0.0
802,54.0,28.0,30.0,6.0,0.0
803,66.0,0.0,30.0,11.0,0.0
804,66.0,2.0,30.0,12.0,0.0
805,57.0,28.0,30.0,6.0,0.0
806,67.0,2.0,30.0,11.0,0.0
807,67.0,0.0,30.0,12.0,0.0
808,52.0,24.0,30.0,6.0,0.0
809,64.0,2.0,30.0,11.0,0.0
810,64.0,0.0,30.0,12.0,0.0
811,55.0,28.0,30.0,6.0,0.0
812,67.0,2.0,30.0,11.0,0.0
813,67.0,0.0,30.0,12.0,0.0
814,57.0,2.0,180.0,4.0,0.0
815,52.0,28.0,30.0,6.0,0.0
816,45.0,2.0,180.0,5.0,0.0
817,64.0,0.0,30.0,11.0,0.0
818,64.0,2.0,30.0,12.0,0.0
819,55.0,6.0,30.0,6.0,0.0
820,90.0,9.0,15.0,10.0,0.0
821,66.0,0.0,30.0,11.0,0.0
822,66.0,2.0,30.0,12.0,0.0
823,50.0,5.0,30.0,6.0,0.0
824,88.0,10.0,15.0,10.0,0.0
825,90.0,3.0,15.0,10.0,0.0
826,88.0,10.0,15.0,10.0,0.0
827,62.0,2.0,30.0,12.0,0.0
828,62.0,0.0,30.0,11.0,0.0
829,54.0,5.0,30.0,6.0,0.0
830,90.0,10.0,15.0,10.0,0.0
831,88.0,3.0,15.0,10.0,0.0
832,90.0,10.0,15.0,10.0,0.0
833,64.0,0.0,30.0,12.0,0.0
834,64.0,2.0,30.0,11.0,0.0
835,49.0,5.0,30.0,6.0,0.0
836,88.0,10.0,15.0,10.0,0.0
837,90.0,3.0,15.0,10.0,0.0
838,88.0,10.0,15.0,10.0,0.0
839,61.0,2.0,30.0,12.0,0.0
840,61.0,0.0,30.0,11.0,0.0
841,52.0,4.0,30.0,6.0,0.0
842,90.0,9.0,15.0,10.0,0.0
843,88.0,0.0,15.0,10.0,0.0
844,90.0,10.0,15.0,10.0,0.0
845,64.0,0.0,30.0,12.0,0.0
846,64.0,2.0,30.0,11.0,0.0
847,57.0,2.0,180.0,4.0,0.0
848,49.0,4.0,30.0,6.0,0.0
849,45.0,2.0,180.0,5.0,0.0
850,88.0,10.0,15.0,10.0,0.0
851,90.0,4.0,15.0,10.0,0.0
852,88.0,10.0,15.0,10.0,0.0
853,61.0,0.0,30.0,12.0,0.0
854,61.0,2.0,30.0,11.0,0.0
855,52.0,4.0,30.0,6.0,0.0
856,90.0,10.0,15.0,10.0,0.0
857,88.0,4.0,15.0,10.0,0.0
858,90.0,10.0,15.0,10.0,0.0
859,62.0,2.0,30.0,12.0,0.0
860,62.0,0.0,30.0,11.0,0.0
861,47.0,3.0,30.0,6.0,0.0
862,88.0,10.0,15.0,10.0,0.0
863,90.0,4.0,15.0,10.0,0.0
864,88.0,10.0,15.0,10.0,0.0
865,59.0,2.0,30.0,11.0,0.0
866,59.0,0.0,30.0,12.0,0.0
867,50.0,3.0,30.0,6.0,0.0
868,90.0,10.0,15.0,10.0,0.0
869,88.0,5.0,15.0,10.0,0.0
870,90.0,10.0,15.0,10.0,0.0
871,64.0,0.0,30.0,12.0,0.0
872,64.0,1.0,30.0,11.0,0.0
873,76.0,1.0,30.0,2.0,0.0
874,45.0,1.0,30.0,6.0,0.0
875,64.0,2.0,30.0,3.0,0.0
876,88.0,10.0,15.0,10.0,0.0
877,90.0,5.0,15.0,10.0,0.0
878,88.0,10.0,15.0,10.0,0.0
879,61.0,0.0,30.0,11.0,0.0
880,61.0,1.0,30.0,12.0,0.0
881,78.0,1.0,30.0,2.0,0.0
882,52.0,1.0,30.0,6.0,0.0
883,66.0,2.0,30.0,3.0,0.0
884,90.0,10.0,15.0,10.0,0.0
885,88.0,1.0,15.0,10.0,0.0
886,90.0,9.0,15.0,10.0,0.0
887,64.0,1.0,30.0,11.0,0.0
888,64.0,0.0,30.0,12.0,0.0
889,57.0,1.0,60.0,4.0,0.0
890,79.0,1.0,30.0,2.0,0.0
891,45.0,1.0,30.0,6.0,0.0
892,67.0,1.0,30.0,3.0,0.0
893,45.0,0.0,60.0,5.0,0.0
894,88.0,10.0,15.0,10.0,0.0
895,90.0,6.0,15.0,10.0,0.0
896,88.0,10.0,15.0,10.0,0.0
897,61.0,0.0,30.0,11.0,0.0
898,61.0,0.0,30.0,12.0,0.0
899,78.0,0.0,30.0,2.0,0.0
900,52.0,1.0,30.0,6.0,0.0
901,66.0,0.0,30.0,3.0,0.0
902,90.0,11.0,15.0,10.0,0.0
903,87.0,32.0,15.0,10.0,0.0
904,85.0,2.0,120.0,0.0,0.0
905,88.0,0.0,120.0,10.0,0.0
906,88.0,0.0,120.0,0.0,0.0
907,64.0,2.0,30.0,12.0,0.0
908,81.0,0.0,720.0,1.0,0.0
909,64.0,0.0,30.0,11.0,0.0
910,69.0,0.0,720.0,2.0,0.0
911,78.0,1.0,60.0,2.0,0.0
912,57.0,2.0,300.0,4.0,0.0
913,45.0,28.0,30.0,6.0,0.0
914,45.0,2.0,300.0,5.0,0.0
915,57.0,5.0,720.0,3.0,0.0
916,45.0,3.0,120.0,13.0,0.0
917,66.0,27.0,60.0,3.0,0.0
918,33.0,24.0,120.0,14.0,0.0
919,61.0,1.0,30.0,11.0,0.0
920,61.0,0.0,30.0,12.0,0.0
921,67.0,2.0,30.0,11.0,0.0
922,67.0,0.0,30.0,12.0,0.0
923,76.0,1.0,120.0,2.0,0.0
924,52.0,1.0,15.0,6.0,0.0
925,64.0,27.0,120.0,3.0,0.0
926,64.0,2.0,30.0,12.0,0.0
927,64.0,0.0,30.0,11.0,0.0
928,55.0,1.0,30.0,6.0,0.0
929,67.0,2.0,30.0,11.0,0.0
930,67.0,0.0,30.0,12.0,0.0
931,52.0,28.0,30.0,6.0,0.0
932,64.0,1.0,30.0,11.0,0.0
933,64.0,0.0,30.0,12.0,0.0
934,55.0,1.0,30.0,6.0,0.0
935,69.0,0.0,30.0,11.0,0.0
936,69.0,2.0,30.0,12.0,0.0
937,54.0,28.0,30.0,6.0,0.0
938,66.0,2.0,30.0,12.0,0.0
939,66.0,0.0,30.0,11.0,0.0
940,57.0,28.0,30.0,6.0,0.0
941,67.0,0.0,30.0,11.0,0.0
942,67.0,2.0,30.0,12.0,0.0
943,52.0,24.0,30.0,6.0,0.0
944,64.0,2.0,30.0,12.0,0.0
945,64.0,0.0,30.0,11.0,0.0
946,55.0,28.0,30.0,6.0,0.0
947,67.0,2.0,30.0,11.0,0.0
948,67.0,0.0,30.0,12.0,0.0
949,57.0,0.0,180.0,4.0,0.0
950,52.0,28.0,30.0,6.0,0.0
951,45.0,2.0,180.0,5.0,0.0
952,64.0,2.0,30.0,12.0,0.0
953,64.0,0.0,30.0,11.0,0.0
954,55.0,6.0,30.0,6.0,0.0
955,90.0,9.0,15.0,10.0,0.0
956,66.0,0.0,30.0,11.0,0.0
957,66.0,2.0,30.0,12.0,0.0
958,50.0,5.0,30.0,6.0,0.0
959,88.0,10.0,15.0,10.0,0.0
960,90.0,3.0,15.0,10.0,0.0
961,88.0,10.0,15.0,10.0,0.0
962,62.0,0.0,30.0,11.0,0.0
963,62.0,2.0,30.0,12.0,0.0
964,54.0,5.0,30.0,6.0,0.0
965,90.0,10.0,15.0,10.0,0.0
966,88.0,3.0,15.0,10.0,0.0
967,90.0,10.0,15.0,10.0,0.0
968,64.0,2.0,30.0,11.0,0.0
969,64.0,0.0,30.0,12.0,0.0
970,49.0,5.0,30.0,6.0,0.0
971,88.0,10.0,15.0,10.0,0.0
972,90.0,3.0,15.0,10.0,0.0
973,88.0,10.0,15.0,10.0,0.0
974,61.0,0.0,30.0,12.0,0.0
975,61.0,2.0,30.0,11.0,0.0
976,52.0,4.0,30.0,6.0,0.0
977,90.0,9.0,15.0,10.0,0.0
978,88.0,2.0,15.0,10.0,0.0
979,90.0,10.0,15.0,10.0,0.0
980,64.0,2.0,30.0,11.0,0.0
981,64.0,0.0,30.0,12.0,0.0
982,57.0,2.0,180.0,4.0,0.0
983,49.0,4.0,30.0,6.0,0.0
984,45.0,2.0,180.0,5.0,0.0
985,88.0,10.0,15.0,10.0,0.0
986,90.0,4.0,15.0,10.0,0.0
987,88.0,10.0,15.0,10.0,0.0
988,61.0,2.0,30.0,11.0,0.0
989,61.0,0.0,30.0,12.0,0.0
990,52.0,4.0,30.0,6.0,0.0
991,90.0,10.0,15.0,10.0,0.0
992,88.0,4.0,15.0,10.0,0.0
993,90.0,10.0,15.0,10.0,0.0
994,62.0,0.0,30.0,12.0,0.0
995,62.0,2.0,30.0,11.0,0.0
996,47.0,3.0,30.0,6.0,0.0
997,88.0,10.0,15.0,10.0,0.0
998,90.0,4.0,15.0,10.0,0.0
999,88.0,10.0,15.0,10.0,0.0
1000,59.0,0.0,30.0,12.0,0.0
1001,59.0,2.0,30.0,11.0,0.0
1002,50.0,3.0,30.0,6.0,0.0
1003,90.0,10.0,15.0,10.0,0.0
1004,88.0,5.0,15.0,10.0,0.0
1005,90.0,10.0,15.0,10.0,0.0
1006,64.0,2.0,30.0,11.0,0.0
1007,64.0,0.0,30.0,12.0,0.0
1008,76.0,1.0,60.0,2.0,0.0
1009,45.0,3.0,30.0,6.0,0.0
1010,57.0,0.0,60.0,13.0,0.0
1011,64.0,2.0,60.0,3.0,0.0
1012,88.0,10.0,15.0,10.0,0.0
1013,45.0,8.0,60.0,14.0,0.0
1014,90.0,5.0,15.0,10.0,0.0
1015,88.0,10.0,15.0,10.0,0.0
1016,61.0,0.0,30.0,11.0,0.0
1017,61.0,1.0,30.0,12.0,0.0
1018,52.0,1.0,30.0,6.0,0.0
1019,90.0,10.0,15.0,10.0,0.0
1020,88.0,1.0,15.0,10.0,0.0
1021,90.0,1.0,15.0,10.0,0.0
1022,64.0,1.0,30.0,12.0,0.0
1023,64.0,0.0,30.0,11.0,0.0
1024,78.0,1.0,30.0,2.0,0.0
1025,57.0,0.0,60.0,4.0,0.0
1026,45.0,1.0,30.0,6.0,0.0
1027,55.0,3.0,60.0,13.0,0.0
1028,66.0,1.0,30.0,3.0,0.0
1029,45.0,0.0,60.0,5.0,0.0
1030,88.0,10.0,15.0,10.0,0.0
1031,43.0,24.0,60.0,14.0,0.0
1032,90.0,6.0,15.0,10.0,0.0
1033,88.0,9.0,15.0,10.0,0.0
1034,86.0,12.0,15.0,10.0,0.0
1035,61.0,0.0,30.0,11.0,0.0
1036,61.0,1.0,30.0,12.0,0.0
1037,79.0,1.0,30.0,2.0,0.0
1038,52.0,1.0,30.0,6.0,0.0
1039,67.0,0.0,30.0,3.0,0.0
1040,88.0,0.0,15.0,10.0,0.0
1041,86.0,0.0,120.0,0.0,0.0
1042,90.0,0.0,120.0,0.0,0.0
1043,90.0,2.0,120.0,10.0,0.0
1044,62.0,2.0,30.0,12.0,0.0
1045,66.0,0.0,30.0,11.0,0.0
1046,86.0,0.0,720.0,1.0,0.0
1047,81.0,1.0,360.0,1.0,0.0
1048,81.0,1.0,240.0,2.0,0.0
1049,74.0,29.0,720.0,2.0,0.0
1050,62.0,0.0,300.0,4.0,0.0
1051,54.0,28.0,30.0,6.0,0.0
1052,50.0,2.0,300.0,5.0,0.0
1053,69.0,4.0,240.0,3.0,0.0
1054,62.0,3.0,720.0,3.0,0.0
1055,54.0,3.0,120.0,13.0,0.0
1056,42.0,24.0,120.0,14.0,0.0
1057,62.0,0.0,30.0,11.0,0.0
1058,57.0,2.0,30.0,12.0,0.0
1059,50.0,0.0,15.0,6.0,0.0
1060,42.0,0.0,30.0,6.0,0.0
1061,62.0,0.0,30.0,12.0,0.0
1062,66.0,2.0,30.0,11.0,0.0
1063,50.0,28.0,15.0,6.0,0.0
1064,54.0,26.0,30.0,6.0,0.0
1065,62.0,2.0,30.0,11.0,0.0
1066,57.0,0.0,30.0,12.0,0.0
1067,42.0,0.0,30.0,6.0,0.0
1068,62.0,0.0,30.0,12.0,0.0
1069,66.0,2.0,30.0,11.0,0.0
1070,54.0,28.0,30.0,6.0,0.0
1071,50.0,1.0,15.0,6.0,0.0
1072,62.0,0.0,30.0,11.0,0.0
1073,57.0,2.0,30.0,12.0,0.0
1074,50.0,0.0,15.0,6.0,0.0
1075,42.0,6.0,30.0,6.0,0.0
1076,88.0,9.0,15.0,10.0,0.0
1077,62.0,0.0,30.0,12.0,0.0
1078,66.0,2.0,30.0,11.0,0.0
1079,50.0,0.0,30.0,6.0,0.0
1080,54.0,5.0,30.0,6.0,0.0
1081,86.0,10.0,15.0,10.0,0.0
1082,88.0,3.0,15.0,10.0,0.0
1083,86.0,10.0,15.0,10.0,0.0
1084,57.0,0.0,30.0,12.0,0.0
1085,62.0,1.0,30.0,11.0,0.0
1086,42.0,1.0,30.0,6.0,0.0
1087,50.0,0.0,30.0,6.0,0.0
1088,88.0,10.0,15.0,10.0,0.0
1089,86.0,3.0,15.0,10.0,0.0
1090,88.0,10.0,15.0,10.0,0.0
1091,66.0,2.0,30.0,11.0,0.0
1092,62.0,0.0,30.0,12.0,0.0
1093,79.0,1.0,60.0,2.0,0.0
1094,54.0,5.0,30.0,6.0,0.0
1095,50.0,0.0,30.0,6.0,0.0
1096,67.0,3.0,60.0,3.0,0.0
1097,86.0,10.0,15.0,10.0,0.0
1098,88.0,3.0,15.0,10.0,0.0
1099,86.0,10.0,15.0,10.0,0.0
1100,57.0,1.0,30.0,12.0,0.0
1101,62.0,0.0,30.0,11.0,0.0
1102,42.0,1.0,30.0,6.0,0.0
1103,50.0,0.0,30.0,6.0,0.0
1104,88.0,9.0,15.0,10.0,0.0
1105,86.0,2.0,15.0,10.0,0.0
1106,88.0,10.0,15.0,10.0,0.0
1107,62.0,0.0,30.0,12.0,0.0
1108,66.0,2.0,30.0,11.0,0.0
1109,78.0,1.0,60.0,2.0,0.0
1110,62.0,2.0,180.0,4.0,0.0
1111,50.0,0.0,30.0,6.0,0.0
1112,54.0,11.0,30.0,6.0,0.0
1113,50.0,2.0,180.0,5.0,0.0
1114,66.0,32.0,60.0,3.0,0.0
1115,86.0,10.0,15.0,10.0,0.0
1116,88.0,4.0,15.0,10.0,0.0
1117,85.0,12.0,15.0,10.0,0.0
1118,57.0,0.0,30.0,12.0,0.0
1119,62.0,0.0,30.0,11.0,0.0
1120,42.0,0.0,30.0,6.0,0.0
1121,50.0,1.0,30.0,6.0,0.0
1122,86.0,0.0,15.0,10.0,0.0
1123,86.0,0.0,120.0,0.0,0.0
1124,88.0,0.0,120.0,0.0,0.0
1125,83.0,0.0,360.0,1.0,0.0
1126,62.0,2.0,30.0,12.0,0.0
1127,64.0,0.0,30.0,11.0,0.0
1128,76.0,2.0,150.0,2.0,0.0
1129,52.0,28.0,30.0,6.0,0.0
1130,55.0,3.0,120.0,13.0,0.0
1131,64.0,2.0,150.0,3.0,0.0
1132,43.0,20.0,120.0,14.0,0.0
1133,59.0,0.0,30.0,12.0,0.0
1134,62.0,2.0,30.0,11.0,0.0
1135,50.0,0.0,15.0,6.0,0.0
1136,43.0,28.0,30.0,6.0,0.0
1137,64.0,0.0,30.0,11.0,0.0
1138,62.0,2.0,30.0,12.0,0.0
1139,52.0,0.0,30.0,6.0,0.0
1140,59.0,0.0,30.0,12.0,0.0
1141,62.0,2.0,30.0,11.0,0.0
1142,50.0,24.0,15.0,6.0,0.0
1143,43.0,0.0,30.0,6.0,0.0
1144,64.0,2.0,30.0,11.0,0.0
1145,62.0,0.0,30.0,12.0,0.0
1146,62.0,0.0,180.0,4.0,0.0
1147,52.0,0.0,30.0,6.0,0.0
1148,50.0,1.0,15.0,6.0,0.0
1149,50.0,2.0,180.0,5.0,0.0
1150,62.0,0.0,30.0,11.0,0.0
1151,59.0,1.0,30.0,12.0,0.0
1152,78.0,2.0,15.0,2.0,0.0
1153,50.0,9.0,15.0,6.0,0.0
1154,43.0,0.0,30.0,6.0,0.0
1155,66.0,8.0,15.0,3.0,0.0
1156,76.0,2.0,15.0,2.0,0.0
1157,64.0,7.0,15.0,3.0,0.0
1158,75.0,1.0,15.0,2.0,0.0
1159,63.0,5.0,15.0,3.0,0.0
1160,88.0,9.0,15.0,10.0,0.0
1161,64.0,2.0,30.0,11.0,0.0
1162,62.0,0.0,30.0,12.0,0.0
1163,76.0,1.0,60.0,2.0,0.0
1164,52.0,0.0,30.0,6.0,0.0
1165,50.0,1.0,15.0,6.0,0.0
1166,64.0,4.0,60.0,3.0,0.0
1167,86.0,10.0,15.0,10.0,0.0
1168,88.0,3.0,15.0,10.0,0.0
1169,86.0,10.0,15.0,10.0,0.0
1170,59.0,0.0,30.0,12.0,0.0
1171,62.0,1.0,30.0,11.0,0.0
1172,43.0,1.0,30.0,6.0,0.0
1173,50.0,5.0,15.0,6.0,0.0
1174,88.0,10.0,15.0,10.0,0.0
1175,86.0,3.0,15.0,10.0,0.0
1176,88.0,10.0,15.0,10.0,0.0
1177,62.0,2.0,30.0,12.0,0.0
1178,64.0,0.0,30.0,11.0,0.0
1179,79.0,0.0,60.0,2.0,0.0
1180,50.0,0.0,15.0,6.0,0.0
1181,52.0,0.0,30.0,6.0,0.0
1182,67.0,0.0,60.0,3.0,0.0
1183,86.0,10.0,15.0,10.0,0.0
1184,88.0,3.0,15.0,10.0,0.0
1185,86.0,10.0,15.0,10.0,0.0
1186,59.0,0.0,30.0,12.0,0.0
1187,62.0,2.0,30.0,11.0,0.0
1188,43.0,4.0,30.0,6.0,0.0
1189,50.0,0.0,30.0,6.0,0.0
1190,88.0,9.0,15.0,10.0,0.0
1191,86.0,2.0,15.0,10.0,0.0
1192,88.0,10.0,15.0,10.0,0.0
1193,64.0,0.0,30.0,11.0,0.0
1194,62.0,1.0,30.0,12.0,0.0
1195,62.0,1.0,60.0,4.0,0.0
1196,83.0,1.0,30.0,2.0,0.0
1197,52.0,1.0,30.0,6.0,0.0
1198,50.0,0.0,60.0,5.0,0.0
1199,71.0,10.0,30.0,3.0,0.0
1200,86.0,10.0,15.0,10.0,0.0
1201,88.0,4.0,15.0,10.0,0.0
1202,85.0,12.0,15.0,10.0,0.0
1203,62.0,1.0,30.0,11.0,0.0
1204,59.0,0.0,30.0,12.0,0.0
1205,50.0,0.0,15.0,6.0,0.0
1206,43.0,1.0,30.0,6.0,0.0
1207,86.0,0.0,15.0,10.0,0.0
1208,86.0,2.0,120.0,0.0,0.0
1209,90.0,0.0,120.0,0.0,0.0
1210,66.0,2.0,30.0,11.0,0.0
1211,86.0,0.0,120.0,1.0,0.0
1212,62.0,0.0,30.0,12.0,0.0
1213,78.0,0.0,120.0,1.0,0.0
1214,57.0,2.0,120.0,4.0,0.0
1215,69.0,2.0,240.0,2.0,0.0
1216,50.0,0.0,30.0,6.0,0.0
1217,54.0,28.0,30.0,6.0,0.0
1218,57.0,2.0,240.0,3.0,0.0
1219,57.0,3.0,120.0,13.0,0.0
1220,45.0,0.0,120.0,5.0,0.0
1221,45.0,24.0,120.0,14.0,0.0
1222,62.0,0.0,30.0,11.0,0.0
1223,57.0,2.0,30.0,12.0,0.0
1224,45.0,0.0,30.0,6.0,0.0
1225,66.0,0.0,30.0,11.0,0.0
1226,62.0,2.0,30.0,12.0,0.0
1227,50.0,28.0,15.0,6.0,0.0
1228,54.0,24.0,30.0,6.0,0.0
1229,57.0,2.0,30.0,12.0,0.0
1230,62.0,0.0,30.0,11.0,0.0
1231,45.0,1.0,30.0,6.0,0.0
1232,50.0,0.0,15.0,6.0,0.0
1233,66.0,2.0,30.0,11.0,0.0
1234,62.0,0.0,30.0,12.0,0.0
1235,57.0,2.0,180.0,4.0,0.0
1236,54.0,0.0,30.0,6.0,0.0
1237,50.0,28.0,30.0,6.0,0.0
1238,45.0,0.0,180.0,5.0,0.0
1239,57.0,2.0,30.0,12.0,0.0
1240,62.0,0.0,30.0,11.0,0.0
1241,45.0,0.0,30.0,6.0,0.0
1242,83.0,6.0,15.0,10.0,0.0
1243,81.0,2.0,120.0,0.0,0.0
1244,86.0,0.0,120.0,0.0,0.0
1245,74.0,0.0,120.0,1.0,0.0
1246,62.0,2.0,30.0,12.0,0.0
1247,66.0,0.0,30.0,11.0,0.0
1248,78.0,0.0,120.0,1.0,0.0
1249,50.0,2.0,15.0,6.0,0.0
1250,54.0,0.0,30.0,6.0,0.0
1251,81.0,6.0,15.0,10.0,0.0
1252,83.0,6.0,15.0,10.0,0.0
1253,81.0,6.0,15.0,10.0,0.0
1254,83.0,2.0,15.0,10.0,0.0
1255,80.0,13.0,15.0,10.0,0.0
1256,62.0,0.0,30.0,11.0,0.0
1257,57.0,2.0,30.0,12.0,0.0
1258,50.0,11.0,15.0,6.0,0.0
1259,45.0,28.0,30.0,6.0,0.0
1260,81.0,0.0,15.0,10.0,0.0
1261,66.0,0.0,30.0,11.0,0.0
1262,62.0,2.0,30.0,12.0,0.0
1263,71.0,2.0,60.0,2.0,0.0
1264,54.0,21.0,30.0,6.0,0.0
1265,59.0,1.0,60.0,3.0,0.0
1266,62.0,2.0,30.0,11.0,0.0
1267,57.0,0.0,30.0,12.0,0.0
1268,45.0,28.0,30.0,6.0,0.0
1269,50.0,0.0,15.0,6.0,0.0
1270,62.0,2.0,30.0,12.0,0.0
1271,66.0,0.0,30.0,11.0,0.0
1272,57.0,2.0,180.0,4.0,0.0
1273,73.0,2.0,60.0,2.0,0.0
1274,50.0,21.0,30.0,6.0,0.0
1275,54.0,0.0,30.0,6.0,0.0
1276,45.0,0.0,180.0,5.0,0.0
1277,61.0,2.0,60.0,3.0,0.0
1278,57.0,0.0,30.0,12.0,0.0
1279,62.0,0.0,30.0,11.0,0.0
1280,45.0,0.0,30.0,6.0,0.0
1281,50.0,7.0,30.0,6.0,0.0
1282,81.0,2.0,120.0,0.0,0.0
1283,86.0,0.0,120.0,0.0,0.0
1284,83.0,6.0,15.0,10.0,0.0
1285,74.0,0.0,120.0,1.0,0.0
1286,62.0,2.0,30.0,12.0,0.0
1287,66.0,0.0,30.0,11.0,0.0
1288,78.0,2.0,120.0,1.0,0.0
1289,74.0,2.0,60.0,2.0,0.0
1290,54.0,11.0,30.0,6.0,0.0
1291,50.0,0.0,30.0,6.0,0.0
1292,62.0,3.0,60.0,3.0,0.0
1293,45.0,3.0,120.0,13.0,0.0
1294,81.0,6.0,15.0,10.0,0.0
1295,33.0,24.0,120.0,14.0,0.0
1296,83.0,6.0,15.0,10.0,0.0
1297,81.0,6.0,15.0,10.0,0.0
1298,83.0,2.0,15.0,10.0,0.0
1299,80.0,10.0,15.0,10.0,0.0
1300,62.0,2.0,30.0,11.0,0.0
1301,57.0,0.0,30.0,12.0,0.0
1302,45.0,28.0,30.0,6.0,0.0
1303,81.0,2.0,15.0,10.0,0.0
1304,66.0,2.0,30.0,11.0,0.0
1305,62.0,0.0,30.0,12.0,0.0
1306,76.0,2.0,60.0,2.0,0.0
1307,50.0,0.0,15.0,6.0,0.0
1308,54.0,0.0,30.0,6.0,0.0
1309,64.0,1.0,60.0,3.0,0.0
1310,57.0,0.0,30.0,12.0,0.0
1311,62.0,0.0,30.0,11.0,0.0
1312,50.0,1.0,30.0,6.0,0.0
1313,45.0,0.0,30.0,6.0,0.0
1314,62.0,0.0,30.0,12.0,0.0
1315,66.0,2.0,30.0,11.0,0.0
1316,78.0,2.0,60.0,2.0,0.0
1317,57.0,2.0,180.0,4.0,0.0
1318,54.0,0.0,30.0,6.0,0.0
1319,45.0,0.0,180.0,5.0,0.0
1320,66.0,2.0,60.0,3.0,0.0
1321,57.0,0.0,30.0,12.0,0.0
1322,62.0,0.0,30.0,11.0,0.0
1323,45.0,0.0,30.0,6.0,0.0
1324,50.0,21.0,15.0,6.0,0.0
1325,88.0,2.0,120.0,0.0,0.0
1326,81.0,0.0,120.0,0.0,0.0
1327,83.0,6.0,15.0,10.0,0.0
1328,73.0,0.0,120.0,1.0,0.0
1329,76.0,0.0,120.0,1.0,0.0
1330,67.0,0.0,30.0,11.0,0.0
1331,61.0,2.0,30.0,12.0,0.0
1332,81.0,1.0,60.0,2.0,0.0
1333,55.0,0.0,30.0,6.0,0.0
1334,69.0,27.0,60.0,3.0,0.0
1335,45.0,3.0,120.0,13.0,0.0
1336,81.0,6.0,15.0,10.0,0.0
1337,33.0,24.0,120.0,14.0,0.0
1338,83.0,6.0,15.0,10.0,0.0
1339,81.0,6.0,15.0,10.0,0.0
1340,83.0,2.0,15.0,10.0,0.0
1341,80.0,15.0,15.0,10.0,0.0
1342,61.0,0.0,30.0,11.0,0.0
1343,57.0,1.0,30.0,12.0,0.0
1344,45.0,0.0,30.0,6.0,0.0
1345,52.0,11.0,15.0,6.0,0.0
1346,81.0,2.0,15.0,10.0,0.0
1347,61.0,0.0,30.0,12.0,0.0
1348,67.0,2.0,30.0,11.0,0.0
1349,79.0,0.0,60.0,2.0,0.0
1350,55.0,24.0,30.0,6.0,0.0
1351,67.0,0.0,60.0,3.0,0.0
1352,57.0,0.0,30.0,12.0,0.0
1353,61.0,2.0,30.0,11.0,0.0
1354,45.0,0.0,30.0,6.0,0.0
1355,52.0,0.0,15.0,6.0,0.0
1356,61.0,1.0,30.0,12.0,0.0
1357,67.0,0.0,30.0,11.0,0.0
1358,57.0,1.0,60.0,4.0,0.0
1359,76.0,1.0,30.0,2.0,0.0
1360,52.0,1.0,15.0,6.0,0.0
1361,55.0,1.0,30.0,6.0,0.0
1362,45.0,0.0,60.0,5.0,0.0
1363,64.0,22.0,30.0,3.0,0.0
1364,57.0,1.0,30.0,12.0,0.0
1365,61.0,0.0,30.0,11.0,0.0
1366,78.0,0.0,30.0,2.0,0.0
1367,45.0,1.0,30.0,6.0,0.0
1368,52.0,0.0,30.0,6.0,0.0
1369,66.0,32.0,30.0,3.0,0.0
1370,86.0,2.0,120.0,0.0,0.0
1371,81.0,0.0,120.0,0.0,0.0
1372,74.0,7.0,300.0,10.0,0.0
1373,62.0,2.0,30.0,12.0,0.0
1374,69.0,0.0,120.0,1.0,0.0
1375,66.0,0.0,30.0,11.0,0.0
1376,74.0,0.0,120.0,1.0,0.0
1377,57.0,0.0,120.0,4.0,0.0
1378,74.0,0.0,120.0,2.0,0.0
1379,66.0,1.0,120.0,2.0,0.0
1380,50.0,28.0,30.0,6.0,0.0
1381,50.0,3.0,120.0,5.0,0.0
1382,50.0,0.0,120.0,13.0,0.0
1383,50.0,0.0,120.0,3.0,0.0
1384,62.0,0.0,120.0,3.0,0.0
1385,38.0,24.0,120.0,14.0,0.0
1386,62.0,0.0,30.0,11.0,0.0
1387,57.0,2.0,30.0,12.0,0.0
1388,54.0,28.0,30.0,6.0,0.0
1389,66.0,2.0,30.0,11.0,0.0
1390,62.0,0.0,30.0,12.0,0.0
1391,50.0,26.0,30.0,6.0,0.0
1392,57.0,1.0,30.0,12.0,0.0
1393,62.0,0.0,30.0,11.0,0.0
1394,54.0,1.0,30.0,6.0,0.0
1395,62.0,2.0,30.0,12.0,0.0
1396,66.0,0.0,30.0,11.0,0.0
1397,50.0,28.0,30.0,6.0,0.0
1398,62.0,2.0,30.0,11.0,0.0
1399,57.0,0.0,30.0,12.0,0.0
1400,54.0,28.0,30.0,6.0,0.0
1401,66.0,0.0,30.0,11.0,0.0
1402,62.0,2.0,30.0,12.0,0.0
1403,50.0,28.0,30.0,6.0,0.0
1404,57.0,0.0,30.0,12.0,0.0
1405,62.0,2.0,30.0,11.0,0.0
1406,54.0,28.0,30.0,6.0,0.0
1407,66.0,2.0,30.0,11.0,0.0
1408,62.0,0.0,30.0,12.0,0.0
1409,50.0,21.0,30.0,6.0,0.0
1410,62.0,2.0,30.0,11.0,0.0
1411,57.0,0.0,30.0,12.0,0.0
1412,54.0,28.0,30.0,6.0,0.0
1413,74.0,2.0,60.0,10.0,0.0
1414,66.0,0.0,30.0,11.0,0.0
1415,62.0,2.0,30.0,12.0,0.0
1416,50.0,21.0,30.0,6.0,0.0
1417,62.0,2.0,30.0,11.0,0.0
1418,57.0,0.0,30.0,12.0,0.0
1419,54.0,16.0,30.0,6.0,0.0
1420,74.0,17.0,15.0,10.0,0.0
1421,64.0,2.0,30.0,11.0,0.0
1422,61.0,0.0,30.0,12.0,0.0
1423,50.0,26.0,30.0,6.0,0.0
1424,73.0,2.0,60.0,10.0,0.0
1425,61.0,0.0,30.0,11.0,0.0
1426,57.0,2.0,30.0,12.0,0.0
1427,55.0,28.0,30.0,6.0,0.0
1428,71.0,2.0,60.0,10.0,0.0
1429,64.0,2.0,30.0,11.0,0.0
1430,61.0,0.0,30.0,12.0,0.0
1431,50.0,26.0,30.0,6.0,0.0
1432,61.0,2.0,30.0,11.0,0.0
1433,57.0,0.0,30.0,12.0,0.0
1434,55.0,28.0,30.0,6.0,0.0
1435,69.0,7.0,60.0,10.0,0.0
1436,61.0,2.0,30.0,12.0,0.0
1437,64.0,0.0,30.0,11.0,0.0
1438,50.0,21.0,30.0,6.0,0.0
1439,61.0,2.0,30.0,11.0,0.0
1440,57.0,0.0,30.0,12.0,0.0
1441,55.0,28.0,30.0,6.0,0.0
1442,69.0,13.0,60.0,10.0,0.0
1443,64.0,0.0,30.0,11.0,0.0
1444,61.0,2.0,30.0,12.0,0.0
1445,50.0,15.0,30.0,6.0,0.0
1446,57.0,2.0,30.0,12.0,0.0
1447,61.0,0.0,30.0,11.0,0.0
1448,55.0,28.0,30.0,6.0,0.0
1449,71.0,13.0,60.0,10.0,0.0
1450,64.0,0.0,30.0,11.0,0.0
1451,61.0,2.0,30.0,12.0,0.0
1452,50.0,15.0,30.0,6.0,0.0
1453,61.0,0.0,30.0,11.0,0.0
1454,57.0,2.0,30.0,12.0,0.0
1455,55.0,28.0,30.0,6.0,0.0
1456,73.0,8.0,60.0,10.0,0.0
1457,64.0,2.0,30.0,11.0,0.0
1458,61.0,0.0,30.0,12.0,0.0
1459,50.0,15.0,30.0,6.0,0.0
1460,57.0,2.0,30.0,12.0,0.0
1461,61.0,0.0,30.0,11.0,0.0
1462,55.0,33.0,30.0,6.0,0.0
1463,74.0,2.0,240.0,10.0,0.0
1464,66.0,0.0,30.0,11.0,0.0
1465,62.0,2.0,30.0,12.0,0.0
1466,74.0,1.0,240.0,2.0,0.0
1467,50.0,28.0,30.0,6.0,0.0
1468,62.0,27.0,240.0,3.0,0.0
1469,57.0,0.0,30.0,12.0,0.0
1470,62.0,2.0,30.0,11.0,0.0
1471,54.0,28.0,30.0,6.0,0.0
1472,62.0,2.0,30.0,12.0,0.0
1473,66.0,0.0,30.0,11.0,0.0
1474,50.0,28.0,30.0,6.0,0.0
1475,57.0,0.0,30.0,12.0,0.0
1476,62.0,2.0,30.0,11.0,0.0
1477,54.0,28.0,30.0,6.0,0.0
1478,62.0,2.0,30.0,12.0,0.0
1479,66.0,0.0,30.0,11.0,0.0
1480,50.0,28.0,30.0,6.0,0.0
1481,57.0,2.0,30.0,12.0,0.0
1482,62.0,0.0,30.0,11.0,0.0
1483,54.0,28.0,30.0,6.0,0.0
1484,62.0,0.0,30.0,12.0,0.0
1485,66.0,2.0,30.0,11.0,0.0
1486,50.0,26.0,30.0,6.0,0.0
1487,62.0,0.0,30.0,11.0,0.0
1488,57.0,1.0,30.0,12.0,0.0
1489,54.0,1.0,30.0,6.0,0.0
1490,76.0,2.0,60.0,10.0,0.0
1491,66.0,2.0,30.0,11.0,0.0
1492,62.0,0.0,30.0,12.0,0.0
1493,69.0,1.0,60.0,2.0,0.0
1494,50.0,26.0,30.0,6.0,0.0
1495,57.0,27.0,60.0,3.0,0.0
1496,57.0,0.0,30.0,12.0,0.0
1497,62.0,1.0,30.0,11.0,0.0
1498,54.0,1.0,30.0,6.0,0.0
1499,78.0,2.0,60.0,10.0,0.0
1500,62.0,2.0,30.0,12.0,0.0
1501,66.0,0.0,30.0,11.0,0.0
1502,66.0,2.0,60.0,2.0,0.0
1503,50.0,21.0,30.0,6.0,0.0
1504,54.0,27.0,60.0,3.0,0.0
1505,62.0,0.0,30.0,11.0,0.0
1506,57.0,2.0,30.0,12.0,0.0
1507,54.0,4.0,30.0,6.0,0.0
1508,81.0,2.0,60.0,10.0,0.0
1509,62.0,0.0,30.0,12.0,0.0
1510,67.0,2.0,30.0,11.0,0.0
1511,64.0,1.0,180.0,2.0,0.0
1512,50.0,26.0,30.0,6.0,0.0
1513,52.0,32.0,180.0,3.0,0.0
1514,59.0,0.0,30.0,12.0,0.0
1515,62.0,2.0,30.0,11.0,0.0
1516,52.0,28.0,30.0,6.0,0.0
1517,79.0,7.0,60.0,10.0,0.0
1518,62.0,2.0,30.0,12.0,0.0
1519,67.0,0.0,30.0,11.0,0.0
1520,50.0,21.0,30.0,6.0,0.0
1521,62.0,2.0,30.0,11.0,0.0
1522,59.0,0.0,30.0,12.0,0.0
1523,52.0,28.0,30.0,6.0,0.0
1524,78.0,17.0,30.0,10.0,0.0
1525,67.0,2.0,30.0,11.0,0.0
1526,62.0,0.0,30.0,12.0,0.0
1527,50.0,6.0,30.0,6.0,0.0
1528,59.0,0.0,30.0,12.0,0.0
1529,62.0,1.0,30.0,11.0,0.0
1530,52.0,1.0,30.0,6.0,0.0
1531,76.0,2.0,120.0,10.0,0.0
1532,64.0,2.0,30.0,12.0,0.0
1533,67.0,0.0,30.0,11.0,0.0
1534,69.0,1.0,180.0,2.0,0.0
1535,50.0,28.0,30.0,6.0,0.0
1536,57.0,32.0,180.0,3.0,0.0
1537,64.0,2.0,30.0,11.0,0.0
1538,61.0,0.0,30.0,12.0,0.0
1539,57.0,28.0,30.0,6.0,0.0
1540,64.0,0.0,30.0,12.0,0.0
1541,67.0,2.0,30.0,11.0,0.0
1542,50.0,26.0,30.0,6.0,0.0
1543,64.0,2.0,30.0,11.0,0.0
1544,61.0,0.0,30.0,12.0,0.0
1545,57.0,28.0,30.0,6.0,0.0
1546,81.0,2.0,60.0,10.0,0.0
1547,64.0,2.0,30.0,12.0,0.0
1548,67.0,0.0,30.0,11.0,0.0
1549,50.0,21.0,30.0,6.0,0.0
1550,64.0,1.0,30.0,11.0,0.0
1551,61.0,0.0,30.0,12.0,0.0
1552,57.0,1.0,30.0,6.0,0.0
1553,74.0,0.0,120.0,10.0,0.0
1554,54.0,0.0,30.0,12.0,0.0
1555,62.0,0.0,30.0,12.0,0.0
1556,66.0,26.0,30.0,11.0,0.0
1557,74.0,0.0,300.0,2.0,0.0
1558,66.0,2.0,120.0,2.0,0.0
1559,50.0,2.0,60.0,4.0,0.0
1560,50.0,1.0,300.0,6.0,0.0
1561,50.0,0.0,120.0,3.0,0.0
1562,50.0,3.0,120.0,13.0,0.0
1563,50.0,2.0,60.0,5.0,0.0
1564,38.0,24.0,120.0,14.0,0.0
1565,62.0,30.0,30.0,11.0,0.0
1566,57.0,0.0,30.0,12.0,0.0
1567,66.0,0.0,30.0,11.0,0.0
1568,54.0,0.0,30.0,12.0,0.0
1569,62.0,26.0,30.0,12.0,0.0
1570,50.0,2.0,60.0,4.0,0.0
1571,50.0,2.0,60.0,5.0,0.0
1572,57.0,1.0,30.0,12.0,0.0
1573,62.0,0.0,30.0,11.0,0.0
1574,66.0,26.0,30.0,11.0,0.0
1575,54.0,0.0,30.0,12.0,0.0
1576,62.0,0.0,30.0,12.0,0.0
1577,50.0,2.0,60.0,4.0,0.0
1578,50.0,2.0,60.0,5.0,0.0
1579,62.0,0.0,30.0,11.0,0.0
1580,57.0,30.0,30.0,12.0,0.0
1581,66.0,0.0,30.0,11.0,0.0
1582,54.0,26.0,30.0,12.0,0.0
1583,62.0,0.0,30.0,12.0,0.0
1584,50.0,2.0,60.0,4.0,0.0
1585,50.0,2.0,60.0,5.0,0.0
1586,62.0,30.0,30.0,11.0,0.0
1587,57.0,0.0,30.0,12.0,0.0
1588,62.0,0.0,30.0,12.0,0.0
1589,66.0,26.0,30.0,11.0,0.0
1590,54.0,0.0,30.0,12.0,0.0
1591,50.0,1.0,60.0,4.0,0.0
1592,50.0,2.0,60.0,5.0,0.0
1593,57.0,0.0,30.0,12.0,0.0
1594,62.0,30.0,30.0,11.0,0.0
1595,66.0,25.0,30.0,11.0,0.0
1596,54.0,0.0,30.0,12.0,0.0
1597,62.0,0.0,30.0,12.0,0.0
1598,74.0,1.0,60.0,2.0,0.0
1599,50.0,0.0,60.0,4.0,0.0
1600,50.0,1.0,60.0,6.0,0.0
1601,50.0,18.0,60.0,5.0,0.0
1602,57.0,0.0,30.0,12.0,0.0
1603,62.0,1.0,30.0,11.0,0.0
1604,81.0,0.0,300.0,10.0,0.0
1605,52.0,0.0,30.0,12.0,0.0
1606,64.0,0.0,30.0,12.0,0.0
1607,67.0,26.0,30.0,11.0,0.0
1608,57.0,2.0,60.0,4.0,0.0
1609,74.0,1.0,15.0,2.0,0.0
1610,52.0,13.0,15.0,6.0,0.0
1611,50.0,2.0,60.0,5.0,0.0
1612,69.0,27.0,300.0,3.0,0.0
1613,73.0,1.0,60.0,2.0,0.0
1614,49.0,28.0,60.0,6.0,0.0
1615,64.0,0.0,30.0,11.0,0.0
1616,57.0,1.0,30.0,12.0,0.0
1617,52.0,26.0,30.0,12.0,0.0
1618,64.0,0.0,30.0,12.0,0.0
1619,67.0,0.0,30.0,11.0,0.0
1620,71.0,1.0,60.0,2.0,0.0
1621,57.0,2.0,60.0,4.0,0.0
1622,47.0,28.0,60.0,6.0,0.0
1623,50.0,2.0,60.0,5.0,0.0
1624,64.0,1.0,30.0,11.0,0.0
1625,57.0,0.0,30.0,12.0,0.0
1626,52.0,26.0,30.0,12.0,0.0
1627,64.0,0.0,30.0,12.0,0.0
1628,67.0,0.0,30.0,11.0,0.0
1629,69.0,0.0,60.0,2.0,0.0
1630,57.0,1.0,60.0,4.0,0.0
1631,45.0,1.0,60.0,6.0,0.0
1632,50.0,2.0,60.0,5.0,0.0
1633,57.0,0.0,30.0,12.0,0.0
1634,64.0,30.0,30.0,11.0,0.0
1635,64.0,0.0,30.0,12.0,0.0
1636,52.0,0.0,30.0,12.0,0.0
1637,67.0,22.0,30.0,11.0,0.0
1638,57.0,2.0,60.0,4.0,0.0
1639,69.0,3.0,60.0,2.0,0.0
1640,45.0,1.0,60.0,6.0,0.0
1641,50.0,2.0,60.0,5.0,0.0
1642,57.0,0.0,30.0,12.0,0.0
1643,64.0,30.0,30.0,11.0,0.0
1644,52.0,22.0,30.0,12.0,0.0
1645,67.0,0.0,30.0,11.0,0.0
1646,64.0,0.0,30.0,12.0,0.0
1647,71.0,3.0,60.0,2.0,0.0
1648,57.0,2.0,60.0,4.0,0.0
1649,47.0,1.0,60.0,6.0,0.0
1650,50.0,2.0,60.0,5.0,0.0
1651,57.0,0.0,30.0,12.0,0.0
1652,64.0,3.0,30.0,11.0,0.0
1653,79.0,0.0,60.0,10.0,0.0
1654,52.0,0.0,30.0,12.0,0.0
1655,67.0,22.0,30.0,11.0,0.0
1656,64.0,0.0,30.0,12.0,0.0
1657,73.0,2.0,60.0,2.0,0.0
1658,57.0,2.0,60.0,4.0,0.0
1659,49.0,1.0,60.0,6.0,0.0
1660,50.0,0.0,60.0,5.0,0.0
1661,67.0,15.0,60.0,3.0,0.0
1662,64.0,1.0,30.0,11.0,0.0
1663,57.0,0.0,30.0,12.0,0.0
1664,79.0,5.0,15.0,10.0,0.0
1665,66.0,0.0,30.0,11.0,0.0
1666,54.0,26.0,30.0,12.0,0.0
1667,62.0,0.0,30.0,12.0,0.0
1668,74.0,1.0,240.0,2.0,0.0
1669,57.0,2.0,60.0,4.0,0.0
1670,50.0,1.0,240.0,6.0,0.0
1671,50.0,2.0,60.0,5.0,0.0
1672,67.0,12.0,15.0,3.0,0.0
1673,50.0,3.0,120.0,13.0,0.0
1674,38.0,24.0,120.0,14.0,0.0
1675,78.0,0.0,60.0,10.0,0.0
1676,66.0,27.0,60.0,3.0,0.0
1677,62.0,0.0,30.0,11.0,0.0
1678,57.0,3.0,30.0,12.0,0.0
1679,76.0,2.0,60.0,10.0,0.0
1680,66.0,26.0,30.0,11.0,0.0
1681,62.0,0.0,30.0,12.0,0.0
1682,54.0,0.0,30.0,12.0,0.0
1683,57.0,2.0,60.0,4.0,0.0
1684,64.0,0.0,60.0,3.0,0.0
1685,50.0,0.0,60.0,5.0,0.0
1686,62.0,0.0,30.0,11.0,0.0
1687,57.0,3.0,30.0,12.0,0.0
1688,74.0,3.0,60.0,10.0,0.0
1689,66.0,0.0,30.0,11.0,0.0
1690,54.0,0.0,30.0,12.0,0.0
1691,62.0,23.0,30.0,12.0,0.0
1692,57.0,2.0,60.0,4.0,0.0
1693,62.0,2.0,60.0,3.0,0.0
1694,50.0,0.0,60.0,5.0,0.0
1695,57.0,0.0,30.0,12.0,0.0
1696,62.0,13.0,30.0,11.0,0.0
1697,88.0,5.0,15.0,0.0,0.0
1698,76.0,0.0,15.0,10.0,0.0
1699,62.0,0.0,30.0,12.0,0.0
1700,54.0,26.0,30.0,12.0,0.0
1701,66.0,0.0,30.0,11.0,0.0
1702,57.0,2.0,60.0,4.0,0.0
1703,50.0,0.0,60.0,5.0,0.0
1704,64.0,12.0,15.0,3.0,0.0
1705,74.0,2.0,60.0,10.0,0.0
1706,86.0,0.0,60.0,0.0,0.0
1707,62.0,27.0,60.0,3.0,0.0
1708,62.0,0.0,30.0,11.0,0.0
1709,57.0,1.0,30.0,12.0,0.0
1710,85.0,2.0,60.0,0.0,0.0
1711,73.0,0.0,60.0,10.0,0.0
1712,54.0,26.0,30.0,12.0,0.0
1713,66.0,0.0,30.0,11.0,0.0
1714,62.0,0.0,30.0,12.0,0.0
1715,76.0,1.0,60.0,2.0,0.0
1716,57.0,2.0,60.0,4.0,0.0
1717,52.0,1.0,60.0,6.0,0.0
1718,50.0,0.0,60.0,5.0,0.0
1719,61.0,27.0,60.0,3.0,0.0
1720,57.0,1.0,30.0,12.0,0.0
1721,62.0,0.0,30.0,11.0,0.0
1722,83.0,2.0,60.0,0.0,0.0
1723,71.0,0.0,60.0,10.0,0.0
1724,62.0,0.0,30.0,12.0,0.0
1725,54.0,0.0,30.0,12.0,0.0
1726,66.0,23.0,30.0,11.0,0.0
1727,57.0,1.0,60.0,4.0,0.0
1728,78.0,0.0,60.0,2.0,0.0
1729,54.0,1.0,60.0,6.0,0.0
1730,50.0,32.0,60.0,5.0,0.0
1731,59.0,0.0,60.0,3.0,0.0
1732,57.0,0.0,30.0,12.0,0.0
1733,62.0,1.0,30.0,11.0,0.0
1734,69.0,0.0,240.0,10.0,0.0
1735,81.0,2.0,240.0,0.0,0.0
1736,61.0,0.0,30.0,12.0,0.0
1737,55.0,26.0,30.0,12.0,0.0
1738,64.0,0.0,30.0,11.0,0.0
1739,81.0,1.0,60.0,2.0,0.0
1740,57.0,2.0,60.0,4.0,0.0
1741,57.0,28.0,60.0,6.0,0.0
1742,50.0,2.0,60.0,5.0,0.0
1743,57.0,27.0,240.0,3.0,0.0
1744,57.0,0.0,30.0,12.0,0.0
1745,61.0,1.0,30.0,11.0,0.0
1746,64.0,26.0,30.0,11.0,0.0
1747,61.0,0.0,30.0,12.0,0.0
1748,55.0,0.0,30.0,12.0,0.0
1749,57.0,1.0,60.0,4.0,0.0
1750,79.0,0.0,60.0,2.0,0.0
1751,55.0,1.0,60.0,6.0,0.0
1752,50.0,2.0,60.0,5.0,0.0
1753,57.0,0.0,30.0,12.0,0.0
1754,61.0,30.0,30.0,11.0,0.0
1755,62.0,0.0,30.0,12.0,0.0
1756,54.0,0.0,30.0,12.0,0.0
1757,66.0,2.0,30.0,11.0,0.0
1758,78.0,0.0,60.0,2.0,0.0
1759,57.0,2.0,60.0,4.0,0.0
1760,54.0,23.0,30.0,6.0,0.0
1761,50.0,32.0,60.0,5.0,0.0
1762,57.0,0.0,30.0,12.0,0.0
1763,62.0,1.0,30.0,11.0,0.0
1764,67.0,0.0,30.0,11.0,0.0
1765,52.0,0.0,30.0,12.0,0.0
1766,64.0,26.0,30.0,12.0,0.0
1767,57.0,2.0,60.0,4.0,0.0
1768,76.0,1.0,120.0,2.0,0.0
1769,52.0,1.0,120.0,6.0,0.0
1770,50.0,0.0,60.0,5.0,0.0
1771,61.0,0.0,30.0,11.0,0.0
1772,57.0,3.0,30.0,12.0,0.0
1773,71.0,0.0,60.0,10.0,0.0
1774,83.0,2.0,60.0,0.0,0.0
1775,67.0,0.0,30.0,11.0,0.0
1776,61.0,0.0,30.0,12.0,0.0
1777,52.0,26.0,30.0,12.0,0.0
1778,57.0,2.0,60.0,4.0,0.0
1779,50.0,0.0,60.0,5.0,0.0
1780,59.0,27.0,60.0,3.0,0.0
1781,61.0,0.0,30.0,11.0,0.0
1782,57.0,1.0,30.0,12.0,0.0
1783,85.0,0.0,60.0,0.0,0.0
1784,73.0,2.0,60.0,10.0,0.0
1785,67.0,0.0,30.0,11.0,0.0
1786,61.0,0.0,30.0,12.0,0.0
1787,52.0,23.0,30.0,12.0,0.0
1788,81.0,0.0,60.0,2.0,0.0
1789,57.0,1.0,60.0,4.0,0.0
1790,57.0,1.0,60.0,6.0,0.0
1791,50.0,0.0,60.0,5.0,0.0
1792,61.0,125.0,60.0,3.0,0.0
1793,57.0,0.0,30.0,12.0,0.0
1794,61.0,1.0,30.0,11.0,0.0
1795,86.0,0.0,840.0,0.0,0.0
1796,74.0,2.0,840.0,10.0,0.0
1797,62.0,2.0,240.0,12.0,0.0
1798,66.0,0.0,240.0,11.0,0.0
1799,74.0,1.0,600.0,2.0,0.0
1800,62.0,0.0,840.0,4.0,0.0
1801,54.0,0.0,240.0,6.0,0.0
1802,50.0,58.0,240.0,6.0,0.0
1803,62.0,57.0,600.0,3.0,0.0
1804,50.0,3.0,840.0,5.0,0.0
1805,50.0,3.0,120.0,13.0,0.0
1806,38.0,114.0,120.0,14.0,0.0
1807,71.0,0.0,60.0,11.0,0.0
1808,67.0,2.0,60.0,12.0,0.0
1809,59.0,0.0,60.0,6.0,0.0
1810,55.0,48.0,60.0,6.0,0.0
1811,69.0,0.0,60.0,11.0,0.0
1812,66.0,2.0,60.0,12.0,0.0
1813,57.0,68.0,60.0,6.0,0.0
1814,54.0,0.0,60.0,6.0,0.0
1815,62.0,2.0,60.0,12.0,0.0
1816,66.0,0.0,60.0,11.0,0.0
1817,54.0,58.0,60.0,6.0,0.0
1818,50.0,0.0,60.0,6.0,0.0
1819,50.0,3.0,120.0,13.0,0.0
1820,38.0,44.0,120.0,14.0,0.0
1821,67.0,0.0,60.0,12.0,0.0
1822,71.0,2.0,60.0,11.0,0.0
1823,59.0,0.0,60.0,6.0,0.0
1824,55.0,1.0,60.0,6.0,0.0
1825,66.0,2.0,60.0,12.0,0.0
1826,69.0,0.0,60.0,11.0,0.0
1827,57.0,0.0,60.0,6.0,0.0
1828,54.0,68.0,60.0,6.0,0.0
1829,62.0,0.0,60.0,12.0,0.0
1830,66.0,1.0,60.0,11.0,0.0
1831,54.0,0.0,60.0,6.0,0.0
1832,50.0,1.0,60.0,6.0,0.0
1833,71.0,0.0,60.0,11.0,0.0
1834,67.0,1.0,60.0,12.0,0.0
1835,79.0,0.0,60.0,2.0,0.0
1836,83.0,1.0,60.0,2.0,0.0
1837,55.0,1.0,60.0,6.0,0.0
1838,59.0,0.0,60.0,6.0,0.0
1839,67.0,47.0,60.0,3.0,0.0
1840,71.0,0.0,60.0,3.0,0.0
1841,66.0,0.0,60.0,12.0,0.0
1842,69.0,2.0,60.0,11.0,0.0
1843,81.0,7.0,60.0,2.0,0.0
1844,78.0,0.0,60.0,2.0,0.0
1845,57.0,4.0,60.0,6.0,0.0
1846,54.0,0.0,60.0,6.0,0.0
1847,69.0,115.0,60.0,3.0,0.0
1848,62.0,1.0,120.0,12.0,0.0
1849,66.0,0.0,120.0,11.0,0.0
1850,78.0,1.0,120.0,2.0,0.0
1851,74.0,0.0,120.0,2.0,0.0
1852,50.0,0.0,120.0,6.0,0.0
1853,54.0,1.0,120.0,6.0,0.0
1854,50.0,0.0,120.0,13.0,0.0
1855,66.0,0.0,15.0,3.0,0.0
1856,62.0,0.0,120.0,3.0,0.0
1857,38.0,172.0,120.0,14.0,0.0
1858,66.0,0.0,120.0,10.0,0.0
1859,78.0,2.0,120.0,0.0,0.0
1860,62.0,0.0,120.0,11.0,0.0
1861,62.0,0.0,120.0,12.0,0.0
1862,66.0,1.0,120.0,1.0,0.0
1863,69.0,0.0,120.0,1.0,0.0
1864,62.0,1.0,120.0,4.0,0.0
1865,74.0,0.0,120.0,2.0,0.0
1866,78.0,0.0,120.0,2.0,0.0
1867,50.0,1.0,120.0,6.0,0.0
1868,50.0,0.0,120.0,13.0,0.0
1869,54.0,3.0,120.0,5.0,0.0
1870,50.0,0.0,120.0,3.0,0.0
1871,38.0,172.0,120.0,14.0,0.0
1872,78.0,0.0,120.0,0.0,0.0
1873,66.0,2.0,120.0,10.0,0.0
1874,62.0,0.0,120.0,11.0,0.0
1875,62.0,0.0,120.0,12.0,0.0
1876,66.0,0.0,120.0,1.0,0.0
1877,69.0,1.0,120.0,1.0,0.0
1878,74.0,1.0,120.0,2.0,0.0
1879,78.0,0.0,120.0,2.0,0.0
1880,62.0,0.0,120.0,4.0,0.0
1881,50.0,1.0,120.0,6.0,0.0
1882,50.0,0.0,120.0,3.0,0.0
1883,54.0,3.0,120.0,5.0,0.0
1884,50.0,0.0,120.0,13.0,0.0
1885,38.0,74.0,120.0,14.0,0.0
1886,62.0,2.0,20.0,11.0,0.0
1887,54.0,0.0,20.0,12.0,0.0
1888,57.0,0.0,20.0,12.0,0.0
1889,54.0,28.0,20.0,6.0,0.0
1890,62.0,2.0,20.0,11.0,0.0
1891,54.0,0.0,20.0,12.0,0.0
1892,57.0,0.0,20.0,12.0,0.0
1893,54.0,28.0,20.0,6.0,0.0
1894,62.0,2.0,20.0,11.0,0.0
1895,54.0,0.0,20.0,12.0,0.0
1896,57.0,0.0,20.0,12.0,0.0
1897,54.0,28.0,20.0,6.0,0.0
1898,54.0,0.0,20.0,12.0,0.0
1899,57.0,2.0,20.0,12.0,0.0
1900,62.0,0.0,20.0,11.0,0.0
1901,54.0,28.0,20.0,6.0,0.0
1902,57.0,0.0,20.0,12.0,0.0
1903,62.0,0.0,20.0,11.0,0.0
1904,54.0,2.0,20.0,12.0,0.0
1905,54.0,28.0,20.0,6.0,0.0
1906,57.0,2.0,20.0,12.0,0.0
1907,54.0,0.0,20.0,12.0,0.0
1908,62.0,0.0,20.0,11.0,0.0
1909,54.0,66.0,20.0,6.0,0.0
1910,81.0,60.0,60.0,10.0,0.0
1911,57.0,0.0,120.0,12.0,0.0
1912,62.0,0.0,120.0,11.0,0.0
1913,54.0,2.0,120.0,12.0,0.0
1914,54.0,56.0,120.0,6.0,0.0
1915,78.0,2.0,60.0,10.0,0.0
1916,74.0,22.0,60.0,10.0,0.0
1917,61.0,2.0,20.0,12.0,0.0
1918,57.0,0.0,20.0,12.0,0.0
1919,64.0,0.0,20.0,11.0,0.0
1920,55.0,28.0,20.0,6.0,0.0
1921,64.0,2.0,20.0,11.0,0.0
1922,61.0,0.0,20.0,12.0,0.0
1923,57.0,0.0,20.0,12.0,0.0
1924,55.0,28.0,20.0,6.0,0.0
1925,57.0,0.0,20.0,12.0,0.0
1926,61.0,2.0,20.0,12.0,0.0
1927,64.0,0.0,20.0,11.0,0.0
1928,55.0,28.0,20.0,6.0,0.0
1929,61.0,0.0,20.0,12.0,0.0
1930,57.0,0.0,20.0,12.0,0.0
1931,64.0,2.0,20.0,11.0,0.0
1932,55.0,28.0,20.0,6.0,0.0
1933,57.0,0.0,20.0,12.0,0.0
1934,64.0,2.0,20.0,11.0,0.0
1935,61.0,0.0,20.0,12.0,0.0
1936,55.0,16.0,20.0,6.0,0.0
1937,83.0,10.0,15.0,10.0,0.0
1938,57.0,0.0,20.0,12.0,0.0
1939,61.0,2.0,20.0,12.0,0.0
1940,64.0,0.0,20.0,11.0,0.0
1941,55.0,6.0,20.0,6.0,0.0
1942,81.0,2.0,15.0,10.0,0.0
1943,80.0,60.0,15.0,10.0,0.0
1944,81.0,60.0,60.0,10.0,0.0
1945,62.0,2.0,120.0,12.0,0.0
1946,66.0,0.0,120.0,11.0,0.0
1947,57.0,0.0,120.0,12.0,0.0
1948,54.0,56.0,120.0,6.0,0.0
1949,78.0,2.0,60.0,10.0,0.0
1950,86.0,22.0,60.0,10.0,0.0
1951,54.0,30.0,20.0,12.0,0.0
1952,62.0,0.0,20.0,11.0,0.0
1953,62.0,30.0,20.0,11.0,0.0
1954,54.0,0.0,20.0,12.0,0.0
1955,62.0,0.0,20.0,11.0,0.0
1956,54.0,30.0,20.0,12.0,0.0
1957,62.0,30.0,20.0,11.0,0.0
1958,54.0,0.0,20.0,12.0,0.0
1959,62.0,30.0,20.0,11.0,0.0
1960,54.0,0.0,20.0,12.0,0.0
1961,54.0,0.0,20.0,12.0,0.0
1962,62.0,130.0,20.0,11.0,0.0
1963,57.0,0.0,120.0,12.0,0.0
1964,64.0,81.0,120.0,11.0,0.0
1965,64.0,2.0,30.0,4.0,0.0
1966,69.0,0.0,20.0,2.0,0.0
1967,76.0,5.0,20.0,2.0,0.0
1968,57.0,23.0,30.0,5.0,0.0
1969,76.0,0.0,20.0,2.0,0.0
1970,64.0,2.0,30.0,4.0,0.0
1971,69.0,5.0,20.0,2.0,0.0
1972,57.0,23.0,30.0,5.0,0.0
1973,76.0,5.0,20.0,2.0,0.0
1974,69.0,0.0,20.0,2.0,0.0
1975,64.0,2.0,30.0,4.0,0.0
1976,57.0,23.0,30.0,5.0,0.0
1977,76.0,5.0,20.0,2.0,0.0
1978,64.0,2.0,30.0,4.0,0.0
1979,69.0,0.0,20.0,2.0,0.0
1980,57.0,23.0,30.0,5.0,0.0
1981,69.0,0.0,20.0,2.0,0.0
1982,76.0,5.0,20.0,2.0,0.0
1983,64.0,2.0,30.0,4.0,0.0
1984,57.0,23.0,30.0,5.0,0.0
1985,76.0,0.0,20.0,2.0,0.0
1986,64.0,2.0,30.0,4.0,0.0
1987,69.0,5.0,20.0,2.0,0.0
1988,57.0,123.0,30.0,5.0,0.0
1989,74.0,2.0,120.0,2.0,0.0
1990,78.0,0.0,120.0,2.0,0.0
1991,66.0,0.0,120.0,4.0,0.0
1992,62.0,82.0,120.0,5.0,0.0
1993,57.0,0.0,30.0,12.0,0.0
1994,69.0,2.0,30.0,11.0,0.0
1995,57.0,28.0,30.0,6.0,0.0
1996,69.0,0.0,30.0,11.0,0.0
1997,57.0,2.0,30.0,12.0,0.0
1998,57.0,28.0,30.0,6.0,0.0
1999,57.0,0.0,30.0,12.0,0.0
2000,69.0,2.0,30.0,11.0,0.0
2001,57.0,28.0,30.0,6.0,0.0
2002,69.0,2.0,30.0,11.0,0.0
2003,57.0,0.0,30.0,12.0,0.0
2004,57.0,28.0,30.0,6.0,0.0
2005,69.0,2.0,30.0,11.0,0.0
2006,57.0,0.0,30.0,12.0,0.0
2007,57.0,28.0,30.0,6.0,0.0
2008,57.0,0.0,30.0,12.0,0.0
2009,69.0,2.0,30.0,11.0,0.0
2010,57.0,33.0,30.0,6.0,0.0
2011,74.0,2.0,180.0,10.0,0.0
2012,62.0,2.0,30.0,12.0,0.0
2013,66.0,0.0,30.0,11.0,0.0
2014,62.0,2.0,300.0,4.0,0.0
2015,50.0,28.0,30.0,6.0,0.0
2016,50.0,2.0,300.0,5.0,0.0
2017,50.0,3.0,120.0,13.0,0.0
2018,38.0,24.0,120.0,14.0,0.0
2019,62.0,0.0,30.0,11.0,0.0
2020,66.0,2.0,30.0,12.0,0.0
2021,57.0,28.0,30.0,6.0,0.0
2022,69.0,0.0,30.0,11.0,0.0
2023,69.0,2.0,30.0,12.0,0.0
2024,54.0,28.0,30.0,6.0,0.0
2025,66.0,2.0,30.0,11.0,0.0
2026,66.0,0.0,30.0,12.0,0.0
2027,57.0,1.0,30.0,6.0,0.0
2028,69.0,2.0,30.0,12.0,0.0
2029,69.0,0.0,30.0,11.0,0.0
2030,54.0,26.0,30.0,6.0,0.0
2031,66.0,0.0,30.0,11.0,0.0
2032,66.0,2.0,30.0,12.0,0.0
2033,57.0,28.0,30.0,6.0,0.0
2034,71.0,2.0,30.0,11.0,0.0
2035,71.0,0.0,30.0,12.0,0.0
2036,55.0,28.0,30.0,6.0,0.0
2037,67.0,0.0,30.0,11.0,0.0
2038,67.0,2.0,30.0,12.0,0.0
2039,59.0,28.0,30.0,6.0,0.0
2040,69.0,0.0,30.0,11.0,0.0
2041,69.0,2.0,30.0,12.0,0.0
2042,54.0,24.0,30.0,6.0,0.0
2043,66.0,0.0,30.0,11.0,0.0
2044,66.0,2.0,30.0,12.0,0.0
2045,57.0,28.0,30.0,6.0,0.0
2046,69.0,0.0,30.0,11.0,0.0
2047,69.0,2.0,30.0,12.0,0.0
2048,62.0,2.0,180.0,4.0,0.0
2049,54.0,28.0,30.0,6.0,0.0
2050,50.0,2.0,180.0,5.0,0.0
2051,66.0,2.0,30.0,11.0,0.0
2052,66.0,0.0,30.0,12.0,0.0
2053,57.0,28.0,30.0,6.0,0.0
2054,67.0,2.0,30.0,12.0,0.0
2055,67.0,0.0,30.0,11.0,0.0
2056,52.0,28.0,30.0,6.0,0.0
2057,64.0,0.0,30.0,11.0,0.0
2058,64.0,2.0,30.0,12.0,0.0
2059,55.0,28.0,30.0,6.0,0.0
2060,66.0,2.0,30.0,11.0,0.0
2061,66.0,0.0,30.0,12.0,0.0
2062,50.0,24.0,30.0,6.0,0.0
2063,62.0,2.0,30.0,12.0,0.0
2064,62.0,0.0,30.0,11.0,0.0
2065,54.0,28.0,30.0,6.0,0.0
2066,66.0,2.0,30.0,12.0,0.0
2067,66.0,0.0,30.0,11.0,0.0
2068,62.0,2.0,180.0,4.0,0.0
2069,50.0,28.0,30.0,6.0,0.0
2070,50.0,0.0,180.0,5.0,0.0
2071,62.0,2.0,30.0,12.0,0.0
2072,62.0,0.0,30.0,11.0,0.0
2073,54.0,28.0,30.0,6.0,0.0
2074,64.0,0.0,30.0,11.0,0.0
2075,64.0,2.0,30.0,12.0,0.0
2076,45.0,28.0,30.0,6.0,0.0
2077,61.0,0.0,30.0,12.0,0.0
2078,61.0,2.0,30.0,11.0,0.0
2079,52.0,26.0,30.0,6.0,0.0
2080,74.0,2.0,30.0,10.0,0.0
2081,66.0,2.0,30.0,12.0,0.0
2082,66.0,0.0,30.0,11.0,0.0
2083,50.0,24.0,30.0,6.0,0.0
2084,76.0,2.0,30.0,10.0,0.0
2085,62.0,0.0,30.0,11.0,0.0
2086,62.0,2.0,30.0,12.0,0.0
2087,54.0,26.0,30.0,6.0,0.0
2088,78.0,2.0,30.0,10.0,0.0
2089,66.0,2.0,30.0,12.0,0.0
2090,66.0,0.0,30.0,11.0,0.0
2091,62.0,1.0,60.0,4.0,0.0
2092,50.0,21.0,30.0,6.0,0.0
2093,50.0,32.0,60.0,5.0,0.0
2094,76.0,2.0,30.0,10.0,0.0
2095,62.0,1.0,30.0,11.0,0.0
2096,62.0,0.0,30.0,12.0,0.0
2097,54.0,1.0,30.0,6.0,0.0
2098,76.0,2.0,60.0,10.0,0.0
2099,66.0,2.0,30.0,12.0,0.0
2100,66.0,0.0,30.0,11.0,0.0
2101,62.0,2.0,300.0,4.0,0.0
2102,50.0,26.0,30.0,6.0,0.0
2103,50.0,2.0,300.0,5.0,0.0
2104,50.0,3.0,120.0,13.0,0.0
2105,38.0,24.0,120.0,14.0,0.0
2106,62.0,2.0,30.0,11.0,0.0
2107,62.0,0.0,30.0,12.0,0.0
2108,74.0,2.0,120.0,10.0,0.0
2109,69.0,0.0,30.0,11.0,0.0
2110,69.0,2.0,30.0,12.0,0.0
2111,54.0,28.0,15.0,6.0,0.0
2112,66.0,2.0,30.0,11.0,0.0
2113,66.0,0.0,30.0,12.0,0.0
2114,57.0,1.0,30.0,6.0,0.0
2115,69.0,2.0,30.0,12.0,0.0
2116,69.0,0.0,30.0,11.0,0.0
2117,54.0,26.0,30.0,6.0,0.0
2118,66.0,0.0,30.0,11.0,0.0
2119,66.0,2.0,30.0,12.0,0.0
2120,57.0,28.0,30.0,6.0,0.0
2121,71.0,2.0,30.0,12.0,0.0
2122,71.0,0.0,30.0,11.0,0.0
2123,55.0,28.0,30.0,6.0,0.0
2124,67.0,0.0,30.0,11.0,0.0
2125,67.0,2.0,30.0,12.0,0.0
2126,59.0,28.0,30.0,6.0,0.0
2127,69.0,2.0,30.0,11.0,0.0
2128,69.0,0.0,30.0,12.0,0.0
2129,54.0,24.0,30.0,6.0,0.0
2130,66.0,0.0,30.0,12.0,0.0
2131,66.0,2.0,30.0,11.0,0.0
2132,57.0,28.0,30.0,6.0,0.0
2133,69.0,0.0,30.0,11.0,0.0
2134,69.0,2.0,30.0,12.0,0.0
2135,62.0,2.0,180.0,4.0,0.0
2136,54.0,28.0,30.0,6.0,0.0
2137,50.0,2.0,180.0,5.0,0.0
2138,66.0,2.0,30.0,12.0,0.0
2139,66.0,0.0,30.0,11.0,0.0
2140,57.0,28.0,30.0,6.0,0.0
2141,67.0,0.0,30.0,11.0,0.0
2142,67.0,2.0,30.0,12.0,0.0
2143,52.0,28.0,30.0,6.0,0.0
2144,64.0,2.0,30.0,11.0,0.0
2145,64.0,0.0,30.0,12.0,0.0
2146,55.0,28.0,30.0,6.0,0.0
2147,66.0,2.0,30.0,11.0,0.0
2148,66.0,0.0,30.0,12.0,0.0
2149,50.0,24.0,30.0,6.0,0.0
2150,62.0,0.0,30.0,12.0,0.0
2151,62.0,2.0,30.0,11.0,0.0
2152,54.0,28.0,30.0,6.0,0.0
2153,66.0,0.0,30.0,11.0,0.0
2154,66.0,2.0,30.0,12.0,0.0
2155,62.0,2.0,180.0,4.0,0.0
2156,50.0,28.0,30.0,6.0,0.0
2157,50.0,2.0,180.0,5.0,0.0
2158,62.0,2.0,30.0,11.0,0.0
2159,62.0,0.0,30.0,12.0,0.0
2160,54.0,28.0,30.0,6.0,0.0
2161,64.0,2.0,30.0,11.0,0.0
2162,64.0,0.0,30.0,12.0,0.0
2163,49.0,28.0,30.0,6.0,0.0
2164,61.0,2.0,30.0,11.0,0.0
2165,61.0,0.0,30.0,12.0,0.0
2166,52.0,26.0,30.0,6.0,0.0
2167,83.0,2.0,30.0,10.0,0.0
2168,62.0,0.0,30.0,11.0,0.0
2169,62.0,2.0,30.0,12.0,0.0
2170,47.0,24.0,30.0,6.0,0.0
2171,85.0,0.0,30.0,10.0,0.0
2172,59.0,2.0,30.0,11.0,0.0
2173,59.0,0.0,30.0,12.0,0.0
2174,50.0,26.0,30.0,6.0,0.0
2175,86.0,2.0,30.0,10.0,0.0
2176,73.0,0.0,30.0,11.0,0.0
2177,57.0,2.0,30.0,12.0,0.0
2178,62.0,1.0,60.0,4.0,0.0
2179,45.0,21.0,30.0,6.0,0.0
2180,50.0,32.0,60.0,5.0,0.0
2181,85.0,2.0,30.0,10.0,0.0
2182,69.0,1.0,30.0,11.0,0.0
2183,61.0,0.0,30.0,12.0,0.0
2184,49.0,1.0,30.0,6.0,0.0
2185,85.0,2.0,60.0,10.0,0.0
2186,71.0,0.0,30.0,11.0,0.0
2187,56.0,2.0,30.0,12.0,0.0
2188,44.0,26.0,30.0,6.0,0.0
2189,52.0,3.0,120.0,13.0,0.0
2190,64.0,2.0,300.0,3.0,0.0
2191,62.0,0.0,300.0,3.0,0.0
2192,40.0,24.0,120.0,14.0,0.0
2193,68.0,2.0,30.0,11.0,0.0
2194,59.0,0.0,30.0,12.0,0.0
2195,47.0,28.0,30.0,6.0,0.0
2196,83.0,2.0,240.0,10.0,0.0
2197,74.0,0.0,30.0,11.0,0.0
2198,74.0,2.0,30.0,12.0,0.0
2199,59.0,28.0,30.0,6.0,0.0
2200,71.0,2.0,30.0,11.0,0.0
2201,71.0,0.0,30.0,12.0,0.0
2202,62.0,1.0,30.0,6.0,0.0
2203,74.0,2.0,30.0,12.0,0.0
2204,74.0,0.0,30.0,11.0,0.0
2205,59.0,28.0,30.0,6.0,0.0
2206,71.0,0.0,30.0,11.0,0.0
2207,71.0,2.0,30.0,12.0,0.0
2208,62.0,28.0,30.0,6.0,0.0
2209,76.0,0.0,30.0,11.0,0.0
2210,76.0,2.0,30.0,12.0,0.0
2211,61.0,28.0,30.0,6.0,0.0
2212,73.0,2.0,30.0,11.0,0.0
2213,73.0,0.0,30.0,12.0,0.0
2214,64.0,28.0,30.0,6.0,0.0
2215,74.0,2.0,30.0,12.0,0.0
2216,74.0,0.0,30.0,11.0,0.0
2217,59.0,24.0,30.0,6.0,0.0
2218,71.0,2.0,30.0,11.0,0.0
2219,71.0,0.0,30.0,12.0,0.0
2220,62.0,28.0,30.0,6.0,0.0
2221,74.0,2.0,30.0,12.0,0.0
2222,74.0,0.0,30.0,11.0,0.0
2223,59.0,28.0,30.0,6.0,0.0
2224,62.0,4.0,180.0,3.0,0.0
2225,64.0,0.0,180.0,3.0,0.0
2226,71.0,2.0,30.0,12.0,0.0
2227,71.0,0.0,30.0,11.0,0.0
2228,62.0,28.0,30.0,6.0,0.0
2229,73.0,2.0,30.0,12.0,0.0
2230,73.0,0.0,30.0,11.0,0.0
2231,57.0,28.0,30.0,6.0,0.0
2232,69.0,0.0,30.0,12.0,0.0
2233,69.0,2.0,30.0,11.0,0.0
2234,61.0,28.0,30.0,6.0,0.0
2235,71.0,2.0,30.0,11.0,0.0
2236,71.0,0.0,30.0,12.0,0.0
2237,56.0,24.0,30.0,6.0,0.0
2238,68.0,2.0,30.0,12.0,0.0
2239,68.0,0.0,30.0,11.0,0.0
2240,59.0,28.0,30.0,6.0,0.0
2241,71.0,2.0,30.0,12.0,0.0
2242,71.0,0.0,30.0,11.0,0.0
2243,56.0,28.0,30.0,6.0,0.0
2244,64.0,0.0,180.0,3.0,0.0
2245,62.0,2.0,180.0,3.0,0.0
2246,68.0,2.0,30.0,12.0,0.0
2247,68.0,0.0,30.0,11.0,0.0
2248,59.0,28.0,30.0,6.0,0.0
2249,69.0,2.0,30.0,12.0,0.0
2250,69.0,0.0,30.0,11.0,0.0
2251,54.0,28.0,30.0,6.0,0.0
2252,66.0,2.0,30.0,11.0,0.0
2253,66.0,0.0,30.0,12.0,0.0
2254,57.0,26.0,30.0,6.0,0.0
2255,83.0,2.0,30.0,10.0,0.0
2256,68.0,0.0,30.0,12.0,0.0
2257,68.0,2.0,30.0,11.0,0.0
2258,52.0,24.0,30.0,6.0,0.0
2259,85.0,2.0,30.0,10.0,0.0
2260,64.0,2.0,30.0,12.0,0.0
2261,64.0,0.0,30.0,11.0,0.0
2262,56.0,26.0,30.0,6.0,0.0
2263,86.0,2.0,30.0,10.0,0.0
2264,68.0,0.0,30.0,11.0,0.0
2265,68.0,2.0,30.0,12.0,0.0
2266,52.0,21.0,30.0,6.0,0.0
2267,62.0,1.0,60.0,3.0,0.0
2268,64.0,0.0,60.0,3.0,0.0
2269,85.0,2.0,30.0,10.0,0.0
2270,64.0,0.0,30.0,12.0,0.0
2271,64.0,1.0,30.0,11.0,0.0
2272,56.0,33.0,30.0,6.0,0.0
2273,85.0,2.0,60.0,10.0,0.0
2274,68.0,2.0,30.0,11.0,0.0
2275,68.0,0.0,30.0,12.0,0.0
2276,52.0,26.0,30.0,6.0,0.0
2277,64.0,0.0,300.0,3.0,0.0
2278,62.0,2.0,300.0,3.0,0.0
2279,52.0,3.0,120.0,13.0,0.0
2280,40.0,24.0,120.0,14.0,0.0
2281,64.0,2.0,30.0,11.0,0.0
2282,64.0,0.0,30.0,12.0,0.0
2283,56.0,28.0,30.0,6.0,0.0
2284,83.0,2.0,240.0,10.0,0.0
2285,74.0,0.0,30.0,11.0,0.0
2286,74.0,2.0,30.0,12.0,0.0
2287,59.0,28.0,30.0,6.0,0.0
2288,71.0,2.0,30.0,11.0,0.0
2289,71.0,0.0,30.0,12.0,0.0
2290,62.0,1.0,30.0,6.0,0.0
2291,74.0,0.0,30.0,11.0,0.0
2292,74.0,2.0,30.0,12.0,0.0
2293,59.0,28.0,30.0,6.0,0.0
2294,71.0,2.0,30.0,11.0,0.0
2295,71.0,0.0,30.0,12.0,0.0
2296,62.0,28.0,30.0,6.0,0.0
2297,76.0,0.0,30.0,12.0,0.0
2298,76.0,2.0,30.0,11.0,0.0
2299,61.0,28.0,30.0,6.0,0.0
2300,73.0,2.0,30.0,12.0,0.0
2301,73.0,0.0,30.0,11.0,0.0
2302,64.0,28.0,30.0,6.0,0.0
2303,74.0,0.0,30.0,11.0,0.0
2304,74.0,2.0,30.0,12.0,0.0
2305,59.0,24.0,30.0,6.0,0.0
2306,71.0,2.0,30.0,11.0,0.0
2307,71.0,0.0,30.0,12.0,0.0
2308,62.0,28.0,30.0,6.0,0.0
2309,73.0,0.0,30.0,12.0,0.0
2310,73.0,2.0,30.0,11.0,0.0
2311,57.0,28.0,30.0,6.0,0.0
2312,62.0,0.0,180.0,3.0,0.0
2313,64.0,4.0,180.0,3.0,0.0
2314,69.0,2.0,30.0,11.0,0.0
2315,69.0,0.0,30.0,12.0,0.0
2316,61.0,28.0,30.0,6.0,0.0
2317,71.0,0.0,30.0,12.0,0.0
2318,71.0,2.0,30.0,11.0,0.0
2319,56.0,28.0,30.0,6.0,0.0
2320,68.0,2.0,30.0,12.0,0.0
2321,68.0,0.0,30.0,11.0,0.0
2322,59.0,28.0,30.0,6.0,0.0
2323,69.0,0.0,30.0,11.0,0.0
2324,69.0,2.0,30.0,12.0,0.0
2325,54.0,24.0,30.0,6.0,0.0
2326,66.0,0.0,30.0,11.0,0.0
2327,66.0,2.0,30.0,12.0,0.0
2328,57.0,28.0,30.0,6.0,0.0
2329,68.0,2.0,30.0,11.0,0.0
2330,68.0,0.0,30.0,12.0,0.0
2331,52.0,28.0,30.0,6.0,0.0
2332,64.0,2.0,180.0,3.0,0.0
2333,62.0,0.0,180.0,3.0,0.0
2334,64.0,2.0,30.0,12.0,0.0
2335,64.0,0.0,30.0,11.0,0.0
2336,56.0,28.0,30.0,6.0,0.0
2337,66.0,0.0,30.0,11.0,0.0
2338,66.0,2.0,30.0,12.0,0.0
2339,50.0,28.0,30.0,6.0,0.0
2340,62.0,0.0,30.0,11.0,0.0
2341,62.0,2.0,30.0,12.0,0.0
2342,54.0,28.0,30.0,6.0,0.0
2343,83.0,2.0,60.0,10.0,0.0
2344,64.0,0.0,30.0,11.0,0.0
2345,64.0,2.0,30.0,12.0,0.0
2346,49.0,24.0,30.0,6.0,0.0
2347,61.0,0.0,30.0,12.0,0.0
2348,61.0,2.0,30.0,11.0,0.0
2349,52.0,26.0,30.0,6.0,0.0
2350,85.0,2.0,30.0,10.0,0.0
2351,62.0,2.0,30.0,12.0,0.0
2352,62.0,0.0,30.0,11.0,0.0
2353,47.0,21.0,30.0,6.0,0.0
2354,64.0,0.0,60.0,3.0,0.0
2355,62.0,1.0,60.0,3.0,0.0
2356,86.0,2.0,30.0,10.0,0.0
2357,59.0,1.0,30.0,12.0,0.0
2358,59.0,0.0,30.0,11.0,0.0
2359,50.0,33.0,30.0,6.0,0.0
2360,88.0,2.0,120.0,10.0,0.0
2361,81.0,3.0,300.0,0.0,0.0
2362,57.0,0.0,30.0,12.0,0.0
2363,61.0,2.0,30.0,11.0,0.0
2364,69.0,0.0,300.0,2.0,0.0
2365,73.0,6.0,300.0,2.0,0.0
2366,45.0,28.0,30.0,6.0,0.0
2367,64.0,0.0,120.0,3.0,0.0
2368,61.0,2.0,120.0,3.0,0.0
2369,45.0,3.0,120.0,13.0,0.0
2370,33.0,24.0,120.0,14.0,0.0
2371,73.0,0.0,30.0,11.0,0.0
2372,73.0,2.0,30.0,12.0,0.0
2373,64.0,28.0,30.0,6.0,0.0
2374,76.0,0.0,30.0,12.0,0.0
2375,76.0,2.0,30.0,11.0,0.0
2376,61.0,24.0,30.0,6.0,0.0
2377,73.0,0.0,30.0,11.0,0.0
2378,73.0,2.0,30.0,12.0,0.0
2379,64.0,1.0,30.0,6.0,0.0
2380,76.0,0.0,30.0,12.0,0.0
2381,76.0,2.0,30.0,11.0,0.0
2382,61.0,28.0,30.0,6.0,0.0
2383,73.0,2.0,30.0,11.0,0.0
2384,73.0,0.0,30.0,12.0,0.0
2385,64.0,28.0,30.0,6.0,0.0
2386,78.0,2.0,30.0,12.0,0.0
2387,78.0,0.0,30.0,11.0,0.0
2388,62.0,28.0,30.0,6.0,0.0
2389,74.0,2.0,30.0,11.0,0.0
2390,74.0,0.0,30.0,12.0,0.0
2391,66.0,28.0,30.0,6.0,0.0
2392,76.0,0.0,30.0,11.0,0.0
2393,76.0,2.0,30.0,12.0,0.0
2394,61.0,19.0,30.0,6.0,0.0
2395,73.0,2.0,30.0,11.0,0.0
2396,73.0,0.0,30.0,12.0,0.0
2397,64.0,28.0,30.0,6.0,0.0
2398,81.0,3.0,180.0,0.0,0.0
2399,76.0,2.0,30.0,11.0,0.0
2400,76.0,0.0,30.0,12.0,0.0
2401,73.0,0.0,180.0,2.0,0.0
2402,69.0,6.0,180.0,2.0,0.0
2403,61.0,28.0,30.0,6.0,0.0
2404,73.0,0.0,30.0,12.0,0.0
2405,73.0,2.0,30.0,11.0,0.0
2406,64.0,28.0,30.0,6.0,0.0
2407,74.0,2.0,30.0,11.0,0.0
2408,74.0,0.0,30.0,12.0,0.0
2409,59.0,28.0,30.0,6.0,0.0
2410,45.0,32.0,360.0,3.0,0.0
2411,71.0,2.0,30.0,12.0,0.0
2412,71.0,0.0,30.0,11.0,0.0
2413,62.0,28.0,30.0,6.0,0.0
2414,73.0,0.0,30.0,11.0,0.0
2415,73.0,2.0,30.0,12.0,0.0
2416,57.0,19.0,30.0,6.0,0.0
2417,69.0,0.0,30.0,11.0,0.0
2418,69.0,2.0,30.0,12.0,0.0
2419,61.0,28.0,30.0,6.0,0.0
2420,81.0,3.0,180.0,0.0,0.0
2421,73.0,2.0,30.0,12.0,0.0
2422,73.0,0.0,30.0,11.0,0.0
2423,73.0,4.0,180.0,2.0,0.0
2424,69.0,0.0,180.0,2.0,0.0
2425,57.0,28.0,30.0,6.0,0.0
2426,69.0,2.0,30.0,11.0,0.0
2427,69.0,0.0,30.0,12.0,0.0
2428,61.0,28.0,30.0,6.0,0.0
2429,71.0,2.0,30.0,11.0,0.0
2430,71.0,0.0,30.0,12.0,0.0
2431,56.0,28.0,30.0,6.0,0.0
2432,68.0,0.0,30.0,12.0,0.0
2433,68.0,2.0,30.0,11.0,0.0
2434,59.0,28.0,30.0,6.0,0.0
2435,76.0,2.0,60.0,10.0,0.0
2436,69.0,2.0,30.0,12.0,0.0
2437,69.0,0.0,30.0,11.0,0.0
2438,54.0,19.0,30.0,6.0,0.0
2439,66.0,2.0,30.0,11.0,0.0
2440,66.0,0.0,30.0,12.0,0.0
2441,57.0,26.0,30.0,6.0,0.0
2442,78.0,2.0,30.0,10.0,0.0
2443,81.0,2.0,60.0,0.0,0.0
2444,68.0,2.0,30.0,12.0,0.0
2445,68.0,0.0,30.0,11.0,0.0
2446,69.0,1.0,60.0,2.0,0.0
2447,73.0,0.0,60.0,2.0,0.0
2448,52.0,19.0,30.0,6.0,0.0
2449,80.0,1.0,30.0,10.0,0.0
2450,64.0,0.0,30.0,12.0,0.0
2451,64.0,2.0,30.0,11.0,0.0
2452,56.0,1.0,30.0,6.0,0.0
2453,87.0,2.0,300.0,0.0,0.0
2454,81.0,0.0,300.0,0.0,0.0
2455,81.0,2.0,120.0,10.0,0.0
2456,75.0,0.0,300.0,1.0,0.0
2457,78.0,1.0,300.0,1.0,0.0
2458,66.0,0.0,30.0,12.0,0.0
2459,66.0,2.0,30.0,11.0,0.0
2460,66.0,2.0,300.0,2.0,0.0
2461,69.0,0.0,300.0,2.0,0.0
2462,51.0,23.0,30.0,6.0,0.0
2463,71.0,4.0,300.0,3.0,0.0
2464,47.0,3.0,120.0,13.0,0.0
2465,47.0,32.0,720.0,3.0,0.0
2466,35.0,24.0,120.0,14.0,0.0
2467,63.0,2.0,30.0,12.0,0.0
2468,63.0,5.0,30.0,11.0,0.0
2469,54.0,28.0,30.0,6.0,0.0
2470,66.0,0.0,30.0,12.0,0.0
2471,78.0,2.0,30.0,11.0,0.0
2472,63.0,26.0,30.0,6.0,0.0
2473,63.0,2.0,30.0,12.0,0.0
2474,75.0,0.0,30.0,11.0,0.0
2475,66.0,1.0,30.0,6.0,0.0
2476,78.0,2.0,30.0,11.0,0.0
2477,66.0,0.0,30.0,12.0,0.0
2478,63.0,28.0,30.0,6.0,0.0
2479,75.0,0.0,30.0,11.0,0.0
2480,63.0,2.0,30.0,12.0,0.0
2481,66.0,28.0,30.0,6.0,0.0
2482,80.0,0.0,30.0,11.0,0.0
2483,68.0,2.0,30.0,12.0,0.0
2484,64.0,28.0,30.0,6.0,0.0
2485,64.0,2.0,30.0,12.0,0.0
2486,76.0,0.0,30.0,11.0,0.0
2487,68.0,28.0,30.0,6.0,0.0
2488,78.0,0.0,30.0,11.0,0.0
2489,66.0,2.0,30.0,12.0,0.0
2490,63.0,19.0,30.0,6.0,0.0
2491,63.0,2.0,30.0,12.0,0.0
2492,75.0,0.0,30.0,11.0,0.0
2493,66.0,28.0,30.0,6.0,0.0
2494,87.0,2.0,180.0,0.0,0.0
2495,81.0,0.0,180.0,0.0,0.0
2496,75.0,0.0,180.0,1.0,0.0
2497,78.0,1.0,180.0,1.0,0.0
2498,78.0,0.0,30.0,11.0,0.0
2499,66.0,2.0,30.0,12.0,0.0
2500,66.0,0.0,180.0,2.0,0.0
2501,69.0,2.0,180.0,2.0,0.0
2502,63.0,28.0,30.0,6.0,0.0
2503,71.0,4.0,180.0,3.0,0.0
2504,63.0,2.0,30.0,12.0,0.0
2505,75.0,0.0,30.0,11.0,0.0
2506,66.0,28.0,30.0,6.0,0.0
2507,76.0,2.0,30.0,11.0,0.0
2508,64.0,0.0,30.0,12.0,0.0
2509,61.0,28.0,30.0,6.0,0.0
2510,61.0,0.0,30.0,12.0,0.0
2511,73.0,2.0,30.0,11.0,0.0
2512,64.0,28.0,30.0,6.0,0.0
2513,63.0,2.0,30.0,12.0,0.0
2514,75.0,0.0,30.0,11.0,0.0
2515,59.0,19.0,30.0,6.0,0.0
2516,59.0,2.0,30.0,12.0,0.0
2517,71.0,0.0,30.0,11.0,0.0
2518,63.0,28.0,30.0,6.0,0.0
2519,81.0,0.0,180.0,0.0,0.0
2520,87.0,2.0,180.0,0.0,0.0
2521,78.0,0.0,180.0,1.0,0.0
2522,75.0,2.0,30.0,11.0,0.0
2523,75.0,1.0,180.0,1.0,0.0
2524,75.0,0.0,30.0,12.0,0.0
2525,66.0,2.0,180.0,2.0,0.0
2526,69.0,0.0,180.0,2.0,0.0
2527,59.0,28.0,30.0,6.0,0.0
2528,71.0,2.0,180.0,3.0,0.0
2529,71.0,2.0,30.0,12.0,0.0
2530,71.0,0.0,30.0,11.0,0.0
2531,63.0,28.0,30.0,6.0,0.0
2532,73.0,2.0,30.0,12.0,0.0
2533,73.0,0.0,30.0,11.0,0.0
2534,57.0,28.0,30.0,6.0,0.0
2535,69.0,0.0,30.0,11.0,0.0
2536,69.0,2.0,30.0,12.0,0.0
2537,61.0,28.0,30.0,6.0,0.0
2538,83.0,2.0,60.0,10.0,0.0
2539,71.0,2.0,30.0,11.0,0.0
2540,71.0,0.0,30.0,12.0,0.0
2541,56.0,19.0,30.0,6.0,0.0
2542,68.0,0.0,30.0,12.0,0.0
2543,68.0,2.0,30.0,11.0,0.0
2544,59.0,26.0,30.0,6.0,0.0
2545,85.0,2.0,30.0,10.0,0.0
2546,81.0,0.0,60.0,0.0,0.0
2547,87.0,2.0,60.0,0.0,0.0
2548,78.0,0.0,60.0,1.0,0.0
2549,69.0,0.0,30.0,11.0,0.0
2550,69.0,2.0,30.0,12.0,0.0
2551,75.0,1.0,60.0,1.0,0.0
2552,66.0,1.0,60.0,2.0,0.0
2553,69.0,0.0,60.0,2.0,0.0
2554,54.0,19.0,30.0,6.0,0.0
2555,71.0,1.0,60.0,3.0,0.0
2556,87.0,0.0,30.0,10.0,0.0
2557,66.0,0.0,30.0,11.0,0.0
2558,66.0,1.0,30.0,12.0,0.0
2559,57.0,1.0,30.0,6.0,0.0
2560,88.0,2.0,60.0,0.0,0.0
2561,80.0,0.0,60.0,0.0,0.0
2562,88.0,7.0,240.0,10.0,0.0
2563,80.0,0.0,60.0,1.0,0.0
2564,76.0,4.0,60.0,1.0,0.0
2565,68.0,0.0,30.0,11.0,0.0
2566,68.0,21.0,30.0,12.0,0.0
2567,64.0,6.0,120.0,2.0,0.0
2568,68.0,0.0,120.0,2.0,0.0
2569,52.0,3.0,60.0,6.0,0.0
2570,52.0,32.0,360.0,3.0,0.0
2571,52.0,3.0,120.0,13.0,0.0
2572,40.0,24.0,120.0,14.0,0.0
2573,64.0,30.0,30.0,11.0,0.0
2574,59.0,0.0,30.0,12.0,0.0
2575,83.0,2.0,60.0,0.0,0.0
2576,56.0,21.0,30.0,12.0,0.0
2577,80.0,1.0,60.0,1.0,0.0
2578,71.0,0.0,30.0,11.0,0.0
2579,52.0,1.0,60.0,6.0,0.0
2580,68.0,0.0,30.0,11.0,0.0
2581,59.0,2.0,30.0,12.0,0.0
2582,83.0,2.0,60.0,0.0,0.0
2583,71.0,21.0,30.0,11.0,0.0
2584,80.0,7.0,60.0,1.0,0.0
2585,56.0,0.0,30.0,12.0,0.0
2586,51.0,28.0,60.0,6.0,0.0
2587,59.0,2.0,30.0,12.0,0.0
2588,68.0,0.0,30.0,11.0,0.0
2589,83.0,2.0,60.0,0.0,0.0
2590,71.0,21.0,30.0,11.0,0.0
2591,56.0,0.0,30.0,12.0,0.0
2592,80.0,0.0,60.0,1.0,0.0
2593,52.0,3.0,240.0,6.0,0.0
2594,59.0,0.0,30.0,12.0,0.0
2595,68.0,28.0,30.0,11.0,0.0
2596,88.0,2.0,30.0,10.0,0.0
2597,56.0,0.0,30.0,12.0,0.0
2598,71.0,24.0,30.0,11.0,0.0
2599,71.0,4.0,60.0,2.0,0.0
2600,68.0,0.0,60.0,2.0,0.0
2601,86.0,2.0,30.0,10.0,0.0
2602,68.0,0.0,30.0,11.0,0.0
2603,59.0,28.0,30.0,12.0,0.0
2604,83.0,2.0,30.0,10.0,0.0
2605,56.0,23.0,30.0,12.0,0.0
2606,71.0,0.0,30.0,11.0,0.0
2607,68.0,1.0,60.0,2.0,0.0
2608,71.0,0.0,60.0,2.0,0.0
2609,80.0,1.0,30.0,10.0,0.0
2610,68.0,3.0,30.0,11.0,0.0
2611,59.0,0.0,30.0,12.0,0.0
2612,83.0,2.0,120.0,10.0,0.0
2613,73.0,0.0,30.0,11.0,0.0
2614,57.0,27.0,30.0,12.0,0.0
2615,73.0,4.0,120.0,2.0,0.0
2616,69.0,0.0,120.0,2.0,0.0
2617,57.0,10.0,360.0,3.0,0.0
2618,52.0,3.0,120.0,13.0,0.0
2619,40.0,24.0,120.0,14.0,0.0
2620,61.0,30.0,30.0,12.0,0.0
2621,69.0,0.0,30.0,11.0,0.0
2622,85.0,2.0,60.0,0.0,0.0
2623,81.0,1.0,60.0,1.0,0.0
2624,57.0,0.0,30.0,12.0,0.0
2625,73.0,21.0,30.0,11.0,0.0
2626,52.0,1.0,60.0,6.0,0.0
2627,69.0,0.0,30.0,11.0,0.0
2628,61.0,2.0,30.0,12.0,0.0
2629,85.0,2.0,60.0,0.0,0.0
2630,81.0,7.0,120.0,10.0,0.0
2631,73.0,21.0,30.0,11.0,0.0
2632,57.0,0.0,30.0,12.0,0.0
2633,81.0,7.0,60.0,1.0,0.0
2634,51.0,28.0,60.0,6.0,0.0
2635,61.0,2.0,30.0,12.0,0.0
2636,69.0,0.0,30.0,11.0,0.0
2637,85.0,2.0,60.0,0.0,0.0
2638,73.0,0.0,30.0,11.0,0.0
2639,81.0,0.0,60.0,1.0,0.0
2640,57.0,21.0,30.0,12.0,0.0
2641,52.0,3.0,240.0,6.0,0.0
2642,61.0,28.0,30.0,12.0,0.0
2643,69.0,0.0,30.0,11.0,0.0
2644,81.0,2.0,30.0,10.0,0.0
2645,57.0,24.0,30.0,12.0,0.0
2646,73.0,0.0,30.0,11.0,0.0
2647,69.0,0.0,60.0,2.0,0.0
2648,73.0,4.0,60.0,2.0,0.0
2649,76.0,2.0,30.0,10.0,0.0
2650,61.0,0.0,30.0,12.0,0.0
2651,69.0,28.0,30.0,11.0,0.0
2652,73.0,2.0,30.0,10.0,0.0
2653,57.0,0.0,30.0,12.0,0.0
2654,73.0,23.0,30.0,11.0,0.0
2655,73.0,1.0,60.0,2.0,0.0
2656,69.0,0.0,60.0,2.0,0.0
2657,69.0,1.0,30.0,10.0,0.0
2658,69.0,3.0,30.0,11.0,0.0
2659,61.0,0.0,30.0,12.0,0.0
2660,68.0,10.0,15.0,10.0,0.0
2661,59.0,0.0,30.0,12.0,0.0
2662,74.0,27.0,30.0,11.0,0.0
2663,64.0,2.0,360.0,4.0,0.0
2664,68.0,0.0,120.0,2.0,0.0
2665,74.0,4.0,120.0,2.0,0.0
2666,52.0,3.0,120.0,13.0,0.0
2667,59.0,0.0,360.0,3.0,0.0
2668,64.0,32.0,360.0,5.0,0.0
2669,40.0,24.0,120.0,14.0,0.0
2670,69.0,10.0,15.0,10.0,0.0
2671,71.0,2.0,15.0,10.0,0.0
2672,69.0,2.0,90.0,10.0,0.0
2673,62.0,30.0,30.0,12.0,0.0
2674,71.0,0.0,30.0,11.0,0.0
2675,86.0,2.0,60.0,0.0,0.0
2676,80.0,1.0,60.0,1.0,0.0
2677,74.0,0.0,30.0,11.0,0.0
2678,59.0,21.0,30.0,12.0,0.0
2679,52.0,1.0,60.0,6.0,0.0
2680,62.0,0.0,30.0,12.0,0.0
2681,71.0,2.0,30.0,11.0,0.0
2682,86.0,2.0,60.0,0.0,0.0
2683,68.0,7.0,120.0,10.0,0.0
2684,59.0,21.0,30.0,12.0,0.0
2685,80.0,7.0,60.0,1.0,0.0
2686,74.0,0.0,30.0,11.0,0.0
2687,51.0,28.0,60.0,6.0,0.0
2688,62.0,0.0,30.0,12.0,0.0
2689,71.0,2.0,30.0,11.0,0.0
2690,86.0,2.0,60.0,0.0,0.0
2691,59.0,0.0,30.0,12.0,0.0
2692,74.0,21.0,30.0,11.0,0.0
2693,80.0,0.0,60.0,1.0,0.0
2694,52.0,3.0,240.0,6.0,0.0
2695,71.0,28.0,30.0,11.0,0.0
2696,62.0,0.0,30.0,12.0,0.0
2697,68.0,2.0,30.0,10.0,0.0
2698,59.0,0.0,30.0,12.0,0.0
2699,74.0,24.0,30.0,11.0,0.0
2700,74.0,4.0,60.0,2.0,0.0
2701,68.0,0.0,60.0,2.0,0.0
2702,71.0,2.0,30.0,10.0,0.0
2703,62.0,0.0,30.0,12.0,0.0
2704,71.0,28.0,30.0,11.0,0.0
2705,76.0,2.0,30.0,10.0,0.0
2706,59.0,0.0,30.0,12.0,0.0
2707,74.0,23.0,30.0,11.0,0.0
2708,74.0,0.0,60.0,2.0,0.0
2709,68.0,1.0,60.0,2.0,0.0
2710,80.0,1.0,30.0,10.0,0.0
2711,71.0,1.0,30.0,11.0,0.0
2712,62.0,0.0,30.0,12.0,0.0
2713,83.0,2.0,120.0,10.0,0.0
2714,73.0,27.0,30.0,11.0,0.0
2715,57.0,0.0,30.0,12.0,0.0
2716,74.0,4.0,120.0,2.0,0.0
2717,69.0,0.0,120.0,2.0,0.0
2718,69.0,1.0,360.0,4.0,0.0
2719,57.0,30.0,360.0,3.0,0.0
2720,69.0,0.0,360.0,5.0,0.0
2721,52.0,3.0,120.0,13.0,0.0
2722,40.0,24.0,120.0,14.0,0.0
2723,61.0,30.0,30.0,12.0,0.0
2724,69.0,0.0,30.0,11.0,0.0
2725,85.0,2.0,60.0,0.0,0.0
2726,57.0,21.0,30.0,12.0,0.0
2727,73.0,0.0,30.0,11.0,0.0
2728,81.0,1.0,60.0,1.0,0.0
2729,52.0,1.0,60.0,6.0,0.0
2730,69.0,0.0,30.0,11.0,0.0
2731,61.0,2.0,30.0,12.0,0.0
2732,81.0,7.0,120.0,10.0,0.0
2733,85.0,2.0,60.0,0.0,0.0
2734,73.0,0.0,30.0,11.0,0.0
2735,57.0,21.0,30.0,12.0,0.0
2736,81.0,7.0,60.0,1.0,0.0
2737,51.0,28.0,60.0,6.0,0.0
2738,61.0,2.0,30.0,12.0,0.0
2739,69.0,0.0,30.0,11.0,0.0
2740,85.0,2.0,60.0,0.0,0.0
2741,73.0,0.0,30.0,11.0,0.0
2742,81.0,0.0,60.0,1.0,0.0
2743,57.0,21.0,30.0,12.0,0.0
2744,52.0,1.0,180.0,6.0,0.0
2745,61.0,13.0,30.0,12.0,0.0
2746,69.0,0.0,30.0,11.0,0.0
2747,83.0,15.0,15.0,10.0,0.0
2748,73.0,24.0,30.0,11.0,0.0
2749,57.0,0.0,30.0,12.0,0.0
2750,73.0,4.0,60.0,2.0,0.0
2751,69.0,0.0,60.0,2.0,0.0
2752,81.0,2.0,15.0,10.0,0.0
2753,80.0,2.0,30.0,10.0,0.0
2754,69.0,0.0,30.0,11.0,0.0
2755,61.0,28.0,30.0,12.0,0.0
2756,81.0,2.0,30.0,10.0,0.0
2757,57.0,0.0,30.0,12.0,0.0
2758,73.0,23.0,30.0,11.0,0.0
2759,73.0,0.0,60.0,2.0,0.0
2760,69.0,1.0,60.0,2.0,0.0
2761,85.0,1.0,30.0,10.0,0.0
2762,61.0,1.0,30.0,12.0,0.0
2763,69.0,0.0,30.0,11.0,0.0
2764,88.0,2.0,360.0,0.0,0.0
2765,88.0,2.0,30.0,10.0,0.0
2766,83.0,0.0,360.0,0.0,0.0
2767,71.0,0.0,360.0,1.0,0.0
2768,80.0,0.0,360.0,1.0,0.0
2769,71.0,0.0,30.0,11.0,0.0
2770,56.0,2.0,30.0,12.0,0.0
2771,76.0,0.0,360.0,2.0,0.0
2772,68.0,1.0,360.0,2.0,0.0
2773,64.0,0.0,360.0,4.0,0.0
2774,52.0,26.0,30.0,6.0,0.0
2775,52.0,0.0,360.0,3.0,0.0
2776,64.0,30.0,360.0,5.0,0.0
2777,59.0,0.0,360.0,3.0,0.0
2778,52.0,3.0,120.0,13.0,0.0
2779,40.0,22.0,120.0,14.0,0.0
2780,83.0,2.0,30.0,10.0,0.0
2781,68.0,2.0,30.0,11.0,0.0
2782,59.0,0.0,30.0,12.0,0.0
2783,56.0,26.0,30.0,6.0,0.0
2784,80.0,2.0,30.0,10.0,0.0
2785,56.0,2.0,30.0,12.0,0.0
2786,71.0,0.0,30.0,11.0,0.0
2787,52.0,26.0,30.0,6.0,0.0
2788,76.0,2.0,30.0,10.0,0.0
2789,59.0,2.0,30.0,12.0,0.0
2790,68.0,0.0,30.0,11.0,0.0
2791,56.0,1.0,30.0,6.0,0.0
2792,88.0,2.0,30.0,10.0,0.0
2793,56.0,0.0,30.0,12.0,0.0
2794,71.0,2.0,30.0,11.0,0.0
2795,52.0,26.0,30.0,6.0,0.0
2796,83.0,2.0,30.0,10.0,0.0
2797,68.0,2.0,30.0,11.0,0.0
2798,59.0,0.0,30.0,12.0,0.0
2799,56.0,26.0,30.0,6.0,0.0
2800,80.0,2.0,30.0,10.0,0.0
2801,56.0,2.0,30.0,12.0,0.0
2802,71.0,0.0,30.0,11.0,0.0
2803,52.0,26.0,30.0,6.0,0.0
2804,52.0,3.0,120.0,13.0,0.0
2805,40.0,22.0,120.0,14.0,0.0
2806,76.0,2.0,30.0,10.0,0.0
2807,68.0,0.0,30.0,11.0,0.0
2808,59.0,2.0,30.0,12.0,0.0
2809,56.0,26.0,30.0,6.0,0.0
2810,88.0,2.0,30.0,10.0,0.0
2811,56.0,2.0,30.0,12.0,0.0
2812,71.0,0.0,30.0,11.0,0.0
2813,52.0,26.0,30.0,6.0,0.0
2814,83.0,2.0,30.0,10.0,0.0
2815,68.0,2.0,30.0,11.0,0.0
2816,59.0,0.0,30.0,12.0,0.0
2817,56.0,1.0,30.0,6.0,0.0
2818,80.0,2.0,30.0,10.0,0.0
2819,56.0,0.0,30.0,12.0,0.0
2820,71.0,2.0,30.0,11.0,0.0
2821,52.0,21.0,30.0,6.0,0.0
2822,76.0,0.0,30.0,10.0,0.0
2823,59.0,0.0,30.0,12.0,0.0
2824,68.0,1.0,30.0,11.0,0.0
2825,56.0,1.0,30.0,6.0,0.0
2826,76.0,0.0,360.0,0.0,0.0
2827,86.0,2.0,360.0,0.0,0.0
2828,86.0,2.0,30.0,10.0,0.0
2829,83.0,0.0,360.0,1.0,0.0
2830,71.0,0.0,30.0,11.0,0.0
2831,80.0,0.0,360.0,1.0,0.0
2832,56.0,2.0,30.0,12.0,0.0
2833,64.0,1.0,360.0,4.0,0.0
2834,71.0,0.0,360.0,2.0,0.0
2835,74.0,0.0,360.0,2.0,0.0
2836,52.0,26.0,30.0,6.0,0.0
2837,52.0,3.0,120.0,13.0,0.0
2838,59.0,15.0,360.0,3.0,0.0
2839,64.0,0.0,360.0,5.0,0.0
2840,52.0,0.0,360.0,3.0,0.0
2841,40.0,22.0,120.0,14.0,0.0
2842,83.0,2.0,30.0,10.0,0.0
2843,68.0,0.0,30.0,11.0,0.0
2844,59.0,2.0,30.0,12.0,0.0
2845,56.0,26.0,30.0,6.0,0.0
2846,80.0,2.0,30.0,10.0,0.0
2847,71.0,0.0,30.0,11.0,0.0
2848,56.0,2.0,30.0,12.0,0.0
2849,52.0,26.0,30.0,6.0,0.0
2850,76.0,2.0,30.0,10.0,0.0
2851,59.0,2.0,30.0,12.0,0.0
2852,68.0,0.0,30.0,11.0,0.0
2853,56.0,1.0,30.0,6.0,0.0
2854,86.0,2.0,30.0,10.0,0.0
2855,71.0,0.0,30.0,11.0,0.0
2856,56.0,2.0,30.0,12.0,0.0
2857,52.0,26.0,30.0,6.0,0.0
2858,83.0,2.0,30.0,10.0,0.0
2859,68.0,2.0,30.0,11.0,0.0
2860,59.0,0.0,30.0,12.0,0.0
2861,56.0,26.0,30.0,6.0,0.0
2862,80.0,2.0,30.0,10.0,0.0
2863,56.0,2.0,30.0,12.0,0.0
2864,71.0,0.0,30.0,11.0,0.0
2865,52.0,26.0,30.0,6.0,0.0
2866,52.0,3.0,120.0,13.0,0.0
2867,40.0,22.0,120.0,14.0,0.0
2868,76.0,2.0,30.0,10.0,0.0
2869,59.0,0.0,30.0,12.0,0.0
2870,68.0,2.0,30.0,11.0,0.0
2871,56.0,26.0,30.0,6.0,0.0
2872,74.0,2.0,30.0,10.0,0.0
2873,71.0,0.0,30.0,11.0,0.0
2874,56.0,2.0,30.0,12.0,0.0
2875,52.0,26.0,30.0,6.0,0.0
2876,71.0,2.0,30.0,10.0,0.0
2877,68.0,2.0,30.0,11.0,0.0
2878,59.0,0.0,30.0,12.0,0.0
2879,56.0,1.0,30.0,6.0,0.0
2880,68.0,2.0,30.0,10.0,0.0
2881,56.0,2.0,30.0,12.0,0.0
2882,71.0,0.0,30.0,11.0,0.0
2883,52.0,21.0,30.0,6.0,0.0
2884,64.0,0.0,30.0,10.0,0.0
2885,68.0,1.0,30.0,11.0,0.0
2886,59.0,0.0,30.0,12.0,0.0
2887,56.0,1.0,30.0,6.0,0.0
2888,85.0,15.0,60.0,0.0,0.0
2889,61.0,30.0,15.0,10.0,0.0
2890,61.0,0.0,120.0,12.0,0.0
2891,73.0,0.0,120.0,11.0,0.0
2892,76.0,0.0,120.0,1.0,0.0
2893,81.0,1.0,120.0,1.0,0.0
2894,69.0,0.0,120.0,2.0,0.0
2895,64.0,1.0,120.0,4.0,0.0
2896,73.0,0.0,120.0,2.0,0.0
2897,57.0,1.0,120.0,6.0,0.0
2898,57.0,0.0,120.0,5.0,0.0
2899,57.0,0.0,120.0,3.0,0.0
2900,61.0,3.0,120.0,3.0,0.0
2901,57.0,0.0,120.0,13.0,0.0
2902,45.0,7.0,120.0,14.0,0.0
2903,64.0,15.0,15.0,10.0,0.0
2904,69.0,30.0,15.0,10.0,0.0
2905,81.0,2.0,60.0,0.0,0.0
2906,64.0,15.0,15.0,10.0,0.0
2907,80.0,20.0,60.0,0.0,0.0
2908,61.0,30.0,15.0,10.0,0.0
2909,64.0,10.0,15.0,10.0,0.0
2910,78.0,23.0,60.0,0.0,0.0
2911,62.0,30.0,15.0,10.0,0.0
2912,83.0,0.0,120.0,1.0,0.0
2913,86.0,0.0,120.0,1.0,0.0
2914,62.0,0.0,120.0,12.0,0.0
2915,66.0,1.0,120.0,11.0,0.0
2916,74.0,1.0,120.0,2.0,0.0
2917,78.0,0.0,120.0,2.0,0.0
2918,50.0,1.0,120.0,6.0,0.0
2919,62.0,0.0,120.0,3.0,0.0
2920,66.0,3.0,120.0,3.0,0.0
2921,50.0,0.0,120.0,13.0,0.0
2922,38.0,7.0,120.0,14.0,0.0
2923,66.0,7.0,15.0,10.0,0.0
2924,71.0,30.0,15.0,10.0,0.0
2925,86.0,10.0,60.0,0.0,0.0
2926,66.0,7.0,15.0,10.0,0.0
2927,62.0,30.0,15.0,10.0,0.0
2928,90.0,23.0,60.0,0.0,0.0
2929,66.0,7.0,15.0,10.0,0.0
2930,81.0,15.0,180.0,0.0,0.0
2931,64.0,30.0,15.0,10.0,0.0
2932,81.0,1.0,120.0,1.0,0.0
2933,85.0,0.0,120.0,1.0,0.0
2934,64.0,0.0,120.0,11.0,0.0
2935,61.0,0.0,120.0,12.0,0.0
2936,73.0,0.0,120.0,2.0,0.0
2937,76.0,1.0,120.0,2.0,0.0
2938,52.0,1.0,120.0,6.0,0.0
2939,61.0,0.0,120.0,3.0,0.0
2940,52.0,3.0,120.0,13.0,0.0
2941,57.0,0.0,120.0,3.0,0.0
2942,40.0,7.0,120.0,14.0,0.0
2943,69.0,30.0,15.0,10.0,0.0
2944,73.0,30.0,15.0,10.0,0.0
2945,69.0,17.0,15.0,10.0,0.0
2946,64.0,30.0,15.0,10.0,0.0
2947,69.0,15.0,15.0,10.0,0.0
2948,64.0,30.0,15.0,10.0,0.0
2949,85.0,2.0,120.0,0.0,0.0
2950,80.0,0.0,120.0,1.0,0.0
2951,62.0,0.0,120.0,12.0,0.0
2952,83.0,0.0,120.0,1.0,0.0
2953,68.0,1.0,120.0,11.0,0.0
2954,71.0,0.0,120.0,2.0,0.0
2955,76.0,1.0,120.0,2.0,0.0
2956,52.0,1.0,120.0,6.0,0.0
2957,59.0,3.0,120.0,3.0,0.0
2958,62.0,0.0,120.0,3.0,0.0
2959,52.0,0.0,120.0,13.0,0.0
2960,40.0,7.0,120.0,14.0,0.0
2961,68.0,30.0,15.0,10.0,0.0
2962,71.0,30.0,15.0,10.0,0.0
2963,76.0,15.0,15.0,10.0,0.0
2964,83.0,35.0,60.0,0.0,0.0
2965,80.0,30.0,15.0,10.0,0.0
2966,83.0,10.0,15.0,10.0,0.0
2967,88.0,2.0,30.0,10.0,0.0
2968,80.0,0.0,360.0,1.0,0.0
2969,83.0,0.0,360.0,1.0,0.0
2970,71.0,0.0,30.0,11.0,0.0
2971,56.0,2.0,30.0,12.0,0.0
2972,68.0,0.0,360.0,2.0,0.0
2973,71.0,1.0,360.0,2.0,0.0
2974,64.0,0.0,360.0,4.0,0.0
2975,52.0,26.0,30.0,6.0,0.0
2976,64.0,0.0,360.0,3.0,0.0
2977,52.0,3.0,120.0,13.0,0.0
2978,64.0,0.0,360.0,5.0,0.0
2979,52.0,30.0,360.0,3.0,0.0
2980,40.0,22.0,120.0,14.0,0.0
2981,83.0,2.0,30.0,10.0,0.0
2982,68.0,0.0,30.0,11.0,0.0
2983,59.0,2.0,30.0,12.0,0.0
2984,56.0,26.0,30.0,6.0,0.0
2985,80.0,2.0,30.0,10.0,0.0
2986,56.0,0.0,30.0,12.0,0.0
2987,71.0,2.0,30.0,11.0,0.0
2988,52.0,26.0,30.0,6.0,0.0
2989,76.0,2.0,30.0,10.0,0.0
2990,59.0,2.0,30.0,12.0,0.0
2991,68.0,0.0,30.0,11.0,0.0
2992,56.0,1.0,30.0,6.0,0.0
2993,88.0,2.0,30.0,10.0,0.0
2994,71.0,0.0,30.0,11.0,0.0
2995,56.0,2.0,30.0,12.0,0.0
2996,52.0,26.0,30.0,6.0,0.0
2997,83.0,2.0,30.0,10.0,0.0
2998,59.0,0.0,30.0,12.0,0.0
2999,68.0,2.0,30.0,11.0,0.0
3000,56.0,26.0,30.0,6.0,0.0
3001,80.0,2.0,30.0,10.0,0.0
3002,56.0,2.0,30.0,12.0,0.0
3003,71.0,0.0,30.0,11.0,0.0
3004,52.0,26.0,30.0,6.0,0.0
3005,52.0,3.0,120.0,13.0,0.0
3006,40.0,22.0,120.0,14.0,0.0
3007,76.0,2.0,30.0,10.0,0.0
3008,59.0,0.0,30.0,12.0,0.0
3009,68.0,2.0,30.0,11.0,0.0
3010,56.0,26.0,30.0,6.0,0.0
3011,88.0,2.0,30.0,10.0,0.0
3012,56.0,0.0,30.0,12.0,0.0
3013,71.0,2.0,30.0,11.0,0.0
3014,52.0,26.0,30.0,6.0,0.0
3015,83.0,2.0,30.0,10.0,0.0
3016,68.0,0.0,30.0,11.0,0.0
3017,59.0,2.0,30.0,12.0,0.0
3018,56.0,1.0,30.0,6.0,0.0
3019,80.0,2.0,30.0,10.0,0.0
3020,56.0,0.0,30.0,12.0,0.0
3021,71.0,2.0,30.0,11.0,0.0
3022,52.0,23.0,30.0,6.0,0.0
3023,76.0,0.0,30.0,10.0,0.0
3024,59.0,1.0,30.0,12.0,0.0
3025,68.0,0.0,30.0,11.0,0.0
3026,56.0,1.0,30.0,6.0,0.0
3027,88.0,2.0,30.0,10.0,0.0
3028,88.0,2.0,360.0,0.0,0.0
3029,86.0,0.0,300.0,1.0,0.0
3030,83.0,0.0,300.0,1.0,0.0
3031,71.0,0.0,30.0,11.0,0.0
3032,56.0,2.0,30.0,12.0,0.0
3033,74.0,1.0,300.0,2.0,0.0
3034,64.0,1.0,360.0,4.0,0.0
3035,52.0,26.0,30.0,6.0,0.0
3036,52.0,3.0,120.0,13.0,0.0
3037,62.0,0.0,360.0,3.0,0.0
3038,52.0,0.0,360.0,3.0,0.0
3039,64.0,30.0,360.0,5.0,0.0
3040,40.0,22.0,120.0,14.0,0.0
3041,83.0,2.0,30.0,10.0,0.0
3042,59.0,2.0,30.0,12.0,0.0
3043,68.0,0.0,30.0,11.0,0.0
3044,56.0,26.0,30.0,6.0,0.0
3045,80.0,2.0,30.0,10.0,0.0
3046,56.0,0.0,30.0,12.0,0.0
3047,71.0,2.0,30.0,11.0,0.0
3048,52.0,26.0,30.0,6.0,0.0
3049,76.0,2.0,30.0,10.0,0.0
3050,68.0,0.0,30.0,11.0,0.0
3051,59.0,2.0,30.0,12.0,0.0
3052,56.0,1.0,30.0,6.0,0.0
3053,88.0,2.0,30.0,10.0,0.0
3054,71.0,0.0,30.0,11.0,0.0
3055,56.0,2.0,30.0,12.0,0.0
3056,52.0,26.0,30.0,6.0,0.0
3057,83.0,2.0,30.0,10.0,0.0
3058,59.0,2.0,30.0,12.0,0.0
3059,68.0,0.0,30.0,11.0,0.0
3060,56.0,26.0,30.0,6.0,0.0
3061,80.0,2.0,30.0,10.0,0.0
3062,71.0,2.0,30.0,11.0,0.0
3063,56.0,0.0,30.0,12.0,0.0
3064,52.0,26.0,30.0,6.0,0.0
3065,52.0,3.0,120.0,13.0,0.0
3066,40.0,22.0,120.0,14.0,0.0
3067,76.0,2.0,30.0,10.0,0.0
3068,59.0,0.0,30.0,12.0,0.0
3069,68.0,2.0,30.0,11.0,0.0
3070,56.0,26.0,30.0,6.0,0.0
3071,88.0,2.0,30.0,10.0,0.0
3072,56.0,0.0,30.0,12.0,0.0
3073,71.0,2.0,30.0,11.0,0.0
3074,52.0,26.0,30.0,6.0,0.0
3075,83.0,2.0,30.0,10.0,0.0
3076,68.0,1.0,30.0,11.0,0.0
3077,59.0,0.0,30.0,12.0,0.0
3078,56.0,1.0,30.0,6.0,0.0
3079,80.0,2.0,30.0,10.0,0.0
3080,71.0,0.0,30.0,11.0,0.0
3081,80.0,0.0,60.0,1.0,0.0
3082,83.0,0.0,60.0,1.0,0.0
3083,56.0,2.0,30.0,12.0,0.0
3084,68.0,0.0,60.0,2.0,0.0
3085,71.0,0.0,15.0,2.0,0.0
3086,52.0,21.0,30.0,6.0,0.0
3087,76.0,0.0,30.0,10.0,0.0
3088,68.0,1.0,30.0,11.0,0.0
3089,59.0,0.0,30.0,12.0,0.0
3090,56.0,1.0,30.0,6.0,0.0
3091,88.0,0.0,120.0,0.0,0.0
3092,88.0,30.0,30.0,10.0,0.0
3093,85.0,0.0,120.0,1.0,0.0
3094,61.0,0.0,120.0,12.0,0.0
3095,73.0,1.0,120.0,11.0,0.0
3096,81.0,0.0,120.0,1.0,0.0
3097,69.0,1.0,120.0,2.0,0.0
3098,73.0,0.0,120.0,2.0,0.0
3099,64.0,0.0,120.0,4.0,0.0
3100,45.0,1.0,120.0,6.0,0.0
3101,61.0,25.0,60.0,3.0,0.0
3102,57.0,0.0,120.0,5.0,0.0
3103,57.0,0.0,120.0,13.0,0.0
3104,45.0,22.0,120.0,14.0,0.0
3105,85.0,5.0,30.0,10.0,0.0
3106,81.0,30.0,30.0,10.0,0.0
3107,57.0,3.0,60.0,3.0,0.0
3108,76.0,2.0,30.0,10.0,0.0
3109,73.0,25.0,30.0,10.0,0.0
3110,56.0,15.0,60.0,3.0,0.0
3111,69.0,5.0,30.0,10.0,0.0
3112,90.0,2.0,120.0,0.0,0.0
3113,66.0,30.0,15.0,10.0,0.0
3114,62.0,0.0,120.0,12.0,0.0
3115,86.0,1.0,120.0,1.0,0.0
3116,66.0,0.0,120.0,11.0,0.0
3117,74.0,1.0,120.0,2.0,0.0
3118,78.0,0.0,120.0,2.0,0.0
3119,50.0,1.0,120.0,6.0,0.0
3120,50.0,3.0,120.0,13.0,0.0
3121,54.0,18.0,60.0,3.0,0.0
3122,38.0,7.0,120.0,14.0,0.0
3123,71.0,12.0,15.0,10.0,0.0
3124,74.0,30.0,15.0,10.0,0.0
3125,62.0,3.0,60.0,3.0,0.0
3126,71.0,12.0,15.0,10.0,0.0
3127,66.0,30.0,15.0,10.0,0.0
3128,66.0,18.0,60.0,3.0,0.0
3129,71.0,12.0,15.0,10.0,0.0
3130,85.0,2.0,120.0,0.0,0.0
3131,64.0,30.0,15.0,10.0,0.0
3132,81.0,1.0,120.0,1.0,0.0
3133,64.0,0.0,120.0,11.0,0.0
3134,61.0,0.0,120.0,12.0,0.0
3135,73.0,1.0,120.0,2.0,0.0
3136,76.0,0.0,120.0,2.0,0.0
3137,52.0,1.0,120.0,6.0,0.0
3138,57.0,10.0,180.0,3.0,0.0
3139,52.0,3.0,120.0,13.0,0.0
3140,40.0,7.0,120.0,14.0,0.0
3141,69.0,30.0,15.0,10.0,0.0
3142,73.0,30.0,15.0,10.0,0.0
3143,69.0,15.0,15.0,10.0,0.0
3144,64.0,30.0,15.0,10.0,0.0
3145,69.0,20.0,15.0,10.0,0.0
3146,64.0,30.0,15.0,10.0,0.0
3147,83.0,2.0,120.0,0.0,0.0
3148,68.0,0.0,120.0,11.0,0.0
3149,64.0,0.0,120.0,12.0,0.0
3150,80.0,1.0,120.0,1.0,0.0
3151,76.0,0.0,120.0,2.0,0.0
3152,71.0,1.0,120.0,2.0,0.0
3153,52.0,1.0,120.0,6.0,0.0
3154,52.0,0.0,120.0,13.0,0.0
3155,61.0,3.0,120.0,3.0,0.0
3156,40.0,7.0,120.0,14.0,0.0
3157,68.0,30.0,15.0,10.0,0.0
3158,71.0,30.0,15.0,10.0,0.0
3159,68.0,15.0,15.0,10.0,0.0
3160,64.0,30.0,15.0,10.0,0.0
3161,59.0,15.0,60.0,3.0,0.0
3162,68.0,15.0,15.0,10.0,0.0
3163,85.0,2.0,120.0,0.0,0.0
3164,65.0,30.0,15.0,10.0,0.0
3165,65.0,0.0,120.0,12.0,0.0
3166,68.0,1.0,120.0,11.0,0.0
3167,80.0,0.0,120.0,1.0,0.0
3168,77.0,1.0,120.0,2.0,0.0
3169,73.0,0.0,120.0,2.0,0.0
3170,61.0,1.0,120.0,6.0,0.0
3171,61.0,10.0,240.0,3.0,0.0
3172,61.0,3.0,120.0,13.0,0.0
3173,49.0,7.0,120.0,14.0,0.0
3174,68.0,30.0,15.0,10.0,0.0
3175,73.0,30.0,15.0,10.0,0.0
3176,68.0,15.0,15.0,10.0,0.0
3177,65.0,30.0,15.0,10.0,0.0
3178,68.0,30.0,15.0,10.0,0.0
3179,66.0,30.0,15.0,10.0,0.0
3180,54.0,1.0,120.0,6.0,0.0
3181,54.0,0.0,120.0,13.0,0.0
3182,42.0,7.0,120.0,14.0,0.0
3183,69.0,20.0,15.0,10.0,0.0
3184,73.0,30.0,15.0,10.0,0.0
3185,59.0,3.0,60.0,3.0,0.0
3186,69.0,19.0,15.0,10.0,0.0
3187,66.0,30.0,15.0,10.0,0.0
3188,61.0,4.0,60.0,3.0,0.0
3189,69.0,20.0,15.0,10.0,0.0
3190,66.0,5.0,15.0,10.0,0.0
3191,83.0,6.0,15.0,11.0,0.0
3192,47.0,1.0,120.0,6.0,0.0
3193,64.0,2.0,15.0,3.0,0.0
3194,47.0,0.0,120.0,13.0,0.0
3195,35.0,7.0,120.0,14.0,0.0
3196,81.0,0.0,15.0,11.0,0.0
3197,83.0,7.0,15.0,11.0,0.0
3198,63.0,4.0,60.0,3.0,0.0
3199,81.0,6.0,15.0,11.0,0.0
3200,83.0,7.0,15.0,11.0,0.0
3201,69.0,4.0,15.0,10.0,0.0
3202,81.0,3.0,15.0,11.0,0.0
3203,83.0,6.0,15.0,11.0,0.0
3204,81.0,7.0,15.0,11.0,0.0
3205,83.0,3.0,15.0,11.0,0.0
3206,71.0,7.0,15.0,10.0,0.0
3207,81.0,6.0,15.0,11.0,0.0
3208,61.0,3.0,60.0,3.0,0.0
3209,83.0,0.0,15.0,11.0,0.0
3210,81.0,7.0,15.0,11.0,0.0
3211,83.0,16.0,15.0,11.0,0.0
3212,69.0,2.0,15.0,10.0,0.0
3213,80.0,15.0,15.0,11.0,0.0
3214,81.0,2.0,15.0,11.0,0.0
3215,66.0,30.0,15.0,10.0,0.0
3216,63.0,4.0,60.0,3.0,0.0
3217,69.0,20.0,15.0,10.0,0.0
3218,64.0,7.0,15.0,10.0,0.0
3219,81.0,6.0,15.0,11.0,0.0
3220,52.0,1.0,120.0,6.0,0.0
3221,64.0,0.0,120.0,3.0,0.0
3222,52.0,3.0,120.0,13.0,0.0
3223,80.0,0.0,15.0,11.0,0.0
3224,40.0,7.0,120.0,14.0,0.0
3225,81.0,7.0,15.0,11.0,0.0
3226,80.0,6.0,15.0,11.0,0.0
3227,81.0,7.0,15.0,11.0,0.0
3228,68.0,4.0,15.0,10.0,0.0
3229,80.0,3.0,15.0,11.0,0.0
3230,81.0,6.0,15.0,11.0,0.0
3231,80.0,7.0,15.0,11.0,0.0
3232,81.0,7.0,15.0,11.0,0.0
3233,71.0,7.0,15.0,10.0,0.0
3234,80.0,6.0,15.0,11.0,0.0
3235,81.0,0.0,15.0,11.0,0.0
3236,80.0,7.0,15.0,11.0,0.0
3237,81.0,16.0,15.0,11.0,0.0
3238,68.0,2.0,15.0,10.0,0.0
3239,78.0,15.0,15.0,11.0,0.0
3240,80.0,2.0,15.0,11.0,0.0
3241,64.0,30.0,15.0,10.0,0.0
3242,59.0,15.0,60.0,3.0,0.0
3243,68.0,15.0,15.0,10.0,0.0
3244,65.0,30.0,15.0,10.0,0.0
3245,61.0,2.0,240.0,12.0,0.0
3246,61.0,1.0,240.0,6.0,0.0
3247,61.0,10.0,240.0,3.0,0.0
3248,61.0,3.0,120.0,13.0,0.0
3249,49.0,7.0,120.0,14.0,0.0
3250,68.0,30.0,15.0,10.0,0.0
3251,73.0,30.0,15.0,10.0,0.0
3252,68.0,20.0,15.0,10.0,0.0
3253,65.0,30.0,15.0,10.0,0.0
3254,68.0,30.0,15.0,10.0,0.0
3255,66.0,30.0,15.0,10.0,0.0
3256,54.0,0.0,120.0,13.0,0.0
3257,42.0,7.0,120.0,14.0,0.0
3258,69.0,17.0,15.0,10.0,0.0
3259,73.0,30.0,15.0,10.0,0.0
3260,59.0,2.0,60.0,12.0,0.0
3261,59.0,1.0,60.0,6.0,0.0
3262,59.0,3.0,60.0,3.0,0.0
3263,69.0,17.0,15.0,10.0,0.0
3264,66.0,30.0,15.0,10.0,0.0
3265,61.0,2.0,60.0,12.0,0.0
3266,61.0,1.0,60.0,6.0,0.0
3267,61.0,4.0,60.0,3.0,0.0
3268,69.0,17.0,15.0,10.0,0.0
3269,66.0,0.0,15.0,10.0,0.0
3270,83.0,6.0,15.0,11.0,0.0
3271,64.0,2.0,15.0,12.0,0.0
3272,64.0,1.0,15.0,6.0,0.0
3273,64.0,2.0,15.0,3.0,0.0
3274,47.0,3.0,120.0,13.0,0.0
3275,81.0,2.0,15.0,11.0,0.0
3276,35.0,7.0,120.0,14.0,0.0
3277,83.0,7.0,15.0,11.0,0.0
3278,63.0,2.0,60.0,12.0,0.0
3279,63.0,1.0,60.0,6.0,0.0
3280,63.0,4.0,60.0,3.0,0.0
3281,81.0,6.0,15.0,11.0,0.0
3282,83.0,7.0,15.0,11.0,0.0
3283,69.0,4.0,15.0,10.0,0.0
3284,81.0,3.0,15.0,11.0,0.0
3285,83.0,6.0,15.0,11.0,0.0
3286,81.0,7.0,15.0,11.0,0.0
3287,83.0,0.0,15.0,11.0,0.0
3288,71.0,0.0,15.0,10.0,0.0
3289,61.0,2.0,60.0,12.0,0.0
3290,81.0,6.0,15.0,11.0,0.0
3291,61.0,1.0,60.0,6.0,0.0
3292,61.0,0.0,60.0,3.0,0.0
3293,83.0,7.0,15.0,11.0,0.0
3294,81.0,7.0,15.0,11.0,0.0
3295,83.0,16.0,15.0,11.0,0.0
3296,69.0,2.0,15.0,10.0,0.0
3297,80.0,15.0,15.0,11.0,0.0
3298,81.0,0.0,15.0,11.0,0.0
3299,66.0,30.0,15.0,10.0,0.0
3300,63.0,2.0,60.0,12.0,0.0
3301,63.0,1.0,60.0,6.0,0.0
3302,63.0,4.0,60.0,3.0,0.0
3303,69.0,17.0,15.0,10.0,0.0
3304,64.0,7.0,15.0,10.0,0.0
3305,81.0,6.0,15.0,11.0,0.0
3306,64.0,2.0,120.0,12.0,0.0
3307,64.0,1.0,120.0,6.0,0.0
3308,64.0,0.0,120.0,3.0,0.0
3309,52.0,3.0,120.0,13.0,0.0
3310,40.0,7.0,120.0,14.0,0.0
3311,80.0,0.0,15.0,11.0,0.0
3312,81.0,7.0,15.0,11.0,0.0
3313,80.0,6.0,15.0,11.0,0.0
3314,81.0,7.0,15.0,11.0,0.0
3315,68.0,4.0,15.0,10.0,0.0
3316,80.0,3.0,15.0,11.0,0.0
3317,81.0,6.0,15.0,11.0,0.0
3318,80.0,7.0,15.0,11.0,0.0
3319,81.0,7.0,15.0,11.0,0.0
3320,71.0,7.0,15.0,10.0,0.0
3321,80.0,6.0,15.0,11.0,0.0
3322,81.0,0.0,15.0,11.0,0.0
3323,80.0,7.0,15.0,11.0,0.0
3324,81.0,16.0,15.0,11.0,0.0
3325,68.0,2.0,15.0,10.0,0.0
3326,78.0,15.0,15.0,11.0,0.0
3327,80.0,0.0,15.0,11.0,0.0
3328,64.0,30.0,15.0,10.0,0.0
3329,59.0,2.0,60.0,12.0,0.0
3330,59.0,1.0,60.0,6.0,0.0
3331,59.0,15.0,60.0,3.0,0.0
3332,68.0,12.0,15.0,10.0,0.0
3333,65.0,30.0,15.0,10.0,0.0
3334,61.0,2.0,240.0,12.0,0.0
3335,61.0,1.0,240.0,6.0,0.0
3336,61.0,10.0,240.0,3.0,0.0
3337,61.0,3.0,120.0,13.0,0.0
3338,49.0,7.0,120.0,14.0,0.0
3339,68.0,30.0,15.0,10.0,0.0
3340,73.0,30.0,15.0,10.0,0.0
3341,68.0,20.0,15.0,10.0,0.0
3342,65.0,30.0,15.0,10.0,0.0
3343,68.0,30.0,15.0,10.0,0.0
3344,66.0,30.0,15.0,10.0,0.0
3345,54.0,0.0,120.0,13.0,0.0
3346,42.0,7.0,120.0,14.0,0.0
3347,69.0,17.0,15.0,10.0,0.0
3348,73.0,30.0,15.0,10.0,0.0
3349,59.0,2.0,60.0,12.0,0.0
3350,59.0,1.0,60.0,6.0,0.0
3351,59.0,3.0,60.0,3.0,0.0
3352,69.0,17.0,15.0,10.0,0.0
3353,66.0,30.0,15.0,10.0,0.0
3354,61.0,2.0,60.0,12.0,0.0
3355,61.0,1.0,60.0,6.0,0.0
3356,61.0,4.0,60.0,3.0,0.0
3357,69.0,17.0,15.0,10.0,0.0
3358,66.0,0.0,15.0,10.0,0.0
3359,64.0,2.0,15.0,12.0,0.0
3360,83.0,6.0,15.0,11.0,0.0
3361,64.0,1.0,15.0,6.0,0.0
3362,64.0,2.0,15.0,3.0,0.0
3363,47.0,0.0,120.0,13.0,0.0
3364,35.0,7.0,120.0,14.0,0.0
3365,81.0,2.0,15.0,11.0,0.0
3366,83.0,7.0,15.0,11.0,0.0
3367,63.0,2.0,60.0,12.0,0.0
3368,63.0,1.0,60.0,6.0,0.0
3369,63.0,4.0,60.0,3.0,0.0
3370,81.0,6.0,15.0,11.0,0.0
3371,83.0,7.0,15.0,11.0,0.0
3372,69.0,4.0,15.0,10.0,0.0
3373,81.0,3.0,15.0,11.0,0.0
3374,83.0,6.0,15.0,11.0,0.0
3375,81.0,7.0,15.0,11.0,0.0
3376,83.0,0.0,15.0,11.0,0.0
3377,71.0,0.0,15.0,10.0,0.0
3378,81.0,6.0,15.0,11.0,0.0
3379,61.0,2.0,60.0,12.0,0.0
3380,61.0,1.0,60.0,6.0,0.0
3381,61.0,3.0,60.0,3.0,0.0
3382,83.0,7.0,15.0,11.0,0.0
3383,81.0,7.0,15.0,11.0,0.0
3384,83.0,16.0,15.0,11.0,0.0
3385,69.0,2.0,15.0,10.0,0.0
3386,80.0,15.0,15.0,11.0,0.0
3387,81.0,0.0,15.0,11.0,0.0
3388,66.0,30.0,15.0,10.0,0.0
3389,63.0,2.0,60.0,12.0,0.0
3390,63.0,1.0,60.0,6.0,0.0
3391,63.0,4.0,60.0,3.0,0.0
3392,69.0,17.0,15.0,10.0,0.0
3393,64.0,0.0,15.0,10.0,0.0
3394,81.0,6.0,15.0,11.0,0.0
3395,64.0,2.0,120.0,12.0,0.0
3396,64.0,1.0,120.0,6.0,0.0
3397,52.0,0.0,120.0,13.0,0.0
3398,64.0,3.0,120.0,3.0,0.0
3399,40.0,7.0,120.0,14.0,0.0
3400,80.0,7.0,15.0,11.0,0.0
3401,81.0,7.0,15.0,11.0,0.0
3402,80.0,6.0,15.0,11.0,0.0
3403,81.0,7.0,15.0,11.0,0.0
3404,68.0,4.0,15.0,10.0,0.0
3405,80.0,3.0,15.0,11.0,0.0
3406,81.0,6.0,15.0,11.0,0.0
3407,80.0,7.0,15.0,11.0,0.0
3408,81.0,7.0,15.0,11.0,0.0
3409,71.0,7.0,15.0,10.0,0.0
3410,80.0,6.0,15.0,11.0,0.0
3411,81.0,0.0,15.0,11.0,0.0
3412,80.0,7.0,15.0,11.0,0.0
3413,81.0,16.0,15.0,11.0,0.0
3414,68.0,2.0,15.0,10.0,0.0
3415,78.0,15.0,15.0,11.0,0.0
3416,80.0,0.0,15.0,11.0,0.0
3417,64.0,30.0,15.0,10.0,0.0
3418,59.0,2.0,60.0,12.0,0.0
3419,59.0,1.0,60.0,6.0,0.0
3420,59.0,9.0,60.0,3.0,0.0
3421,68.0,12.0,15.0,10.0,0.0
3422,64.0,0.0,15.0,10.0,0.0
3423,83.0,6.0,15.0,11.0,0.0
3424,61.0,0.0,120.0,12.0,0.0
3425,61.0,1.0,120.0,6.0,0.0
3426,52.0,0.0,120.0,13.0,0.0
3427,61.0,3.0,120.0,3.0,0.0
3428,81.0,7.0,15.0,11.0,0.0
3429,40.0,7.0,120.0,14.0,0.0
3430,83.0,7.0,15.0,11.0,0.0
3431,81.0,6.0,15.0,11.0,0.0
3432,83.0,7.0,15.0,11.0,0.0
3433,69.0,4.0,15.0,10.0,0.0
3434,81.0,3.0,15.0,11.0,0.0
3435,83.0,6.0,15.0,11.0,0.0
3436,81.0,7.0,15.0,11.0,0.0
3437,83.0,7.0,15.0,11.0,0.0
3438,73.0,0.0,15.0,10.0,0.0
3439,81.0,6.0,15.0,11.0,0.0
3440,83.0,7.0,15.0,11.0,0.0
3441,81.0,7.0,15.0,11.0,0.0
3442,83.0,16.0,15.0,11.0,0.0
3443,69.0,2.0,15.0,10.0,0.0
3444,80.0,15.0,15.0,11.0,0.0
3445,81.0,2.0,15.0,11.0,0.0
3446,64.0,30.0,15.0,10.0,0.0
3447,57.0,2.0,60.0,12.0,0.0
3448,57.0,1.0,60.0,6.0,0.0
3449,57.0,4.0,60.0,3.0,0.0
3450,69.0,17.0,15.0,10.0,0.0
3451,64.0,7.0,15.0,10.0,0.0
3452,52.0,0.0,120.0,12.0,0.0
3453,85.0,6.0,15.0,11.0,0.0
3454,76.0,1.0,120.0,2.0,0.0
3455,52.0,1.0,120.0,6.0,0.0
3456,52.0,3.0,120.0,13.0,0.0
3457,52.0,0.0,120.0,3.0,0.0
3458,83.0,0.0,15.0,11.0,0.0
3459,40.0,7.0,120.0,14.0,0.0
3460,85.0,7.0,15.0,11.0,0.0
3461,83.0,6.0,15.0,11.0,0.0
3462,85.0,7.0,15.0,11.0,0.0
3463,71.0,4.0,15.0,10.0,0.0
3464,83.0,3.0,15.0,11.0,0.0
3465,85.0,6.0,15.0,11.0,0.0
3466,83.0,7.0,15.0,11.0,0.0
3467,85.0,7.0,15.0,11.0,0.0
3468,74.0,0.0,15.0,10.0,0.0
3469,83.0,6.0,15.0,11.0,0.0
3470,85.0,7.0,15.0,11.0,0.0
3471,83.0,7.0,15.0,11.0,0.0
3472,85.0,16.0,15.0,11.0,0.0
3473,71.0,2.0,15.0,10.0,0.0
3474,81.0,15.0,15.0,11.0,0.0
3475,83.0,1.0,15.0,11.0,0.0
3476,64.0,30.0,15.0,10.0,0.0
3477,56.0,1.0,60.0,12.0,0.0
3478,71.0,1.0,60.0,2.0,0.0
3479,56.0,1.0,60.0,6.0,0.0
3480,56.0,4.0,60.0,3.0,0.0
3481,71.0,17.0,15.0,10.0,0.0
3482,64.0,0.0,15.0,10.0,0.0
3483,57.0,0.0,120.0,12.0,0.0
3484,83.0,6.0,15.0,11.0,0.0
3485,73.0,1.0,120.0,2.0,0.0
3486,57.0,1.0,120.0,6.0,0.0
3487,57.0,3.0,120.0,3.0,0.0
3488,52.0,0.0,120.0,13.0,0.0
3489,40.0,7.0,120.0,14.0,0.0
3490,81.0,7.0,15.0,11.0,0.0
3491,83.0,7.0,15.0,11.0,0.0
3492,81.0,6.0,15.0,11.0,0.0
3493,83.0,7.0,15.0,11.0,0.0
3494,69.0,4.0,15.0,10.0,0.0
3495,81.0,3.0,15.0,11.0,0.0
3496,83.0,6.0,15.0,11.0,0.0
3497,81.0,7.0,15.0,11.0,0.0
3498,83.0,7.0,15.0,11.0,0.0
3499,73.0,0.0,15.0,10.0,0.0
3500,81.0,6.0,15.0,11.0,0.0
3501,83.0,7.0,15.0,11.0,0.0
3502,81.0,7.0,15.0,11.0,0.0
3503,83.0,16.0,15.0,11.0,0.0
3504,69.0,2.0,15.0,10.0,0.0
3505,80.0,15.0,15.0,11.0,0.0
3506,81.0,1.0,15.0,11.0,0.0
3507,64.0,30.0,15.0,10.0,0.0
3508,61.0,1.0,60.0,12.0,0.0
3509,69.0,1.0,60.0,2.0,0.0
3510,61.0,1.0,60.0,6.0,0.0
3511,61.0,4.0,60.0,3.0,0.0
3512,69.0,17.0,15.0,10.0,0.0
3513,64.0,7.0,15.0,10.0,0.0
3514,64.0,1.0,120.0,12.0,0.0
3515,81.0,6.0,15.0,11.0,0.0
3516,76.0,0.0,120.0,2.0,0.0
3517,64.0,1.0,120.0,2.0,0.0
3518,64.0,1.0,120.0,6.0,0.0
3519,52.0,3.0,120.0,13.0,0.0
3520,64.0,0.0,120.0,3.0,0.0
3521,80.0,0.0,15.0,11.0,0.0
3522,40.0,7.0,120.0,14.0,0.0
3523,81.0,7.0,15.0,11.0,0.0
3524,80.0,6.0,15.0,11.0,0.0
3525,81.0,7.0,15.0,11.0,0.0
3526,68.0,4.0,15.0,10.0,0.0
3527,80.0,3.0,15.0,11.0,0.0
3528,81.0,6.0,15.0,11.0,0.0
3529,80.0,7.0,15.0,11.0,0.0
3530,81.0,7.0,15.0,11.0,0.0
3531,71.0,7.0,15.0,10.0,0.0
3532,80.0,6.0,15.0,11.0,0.0
3533,81.0,0.0,15.0,11.0,0.0
3534,80.0,7.0,15.0,11.0,0.0
3535,81.0,16.0,15.0,11.0,0.0
3536,68.0,2.0,15.0,10.0,0.0
3537,78.0,15.0,15.0,11.0,0.0
3538,80.0,0.0,15.0,11.0,0.0
3539,64.0,30.0,15.0,10.0,0.0
3540,59.0,2.0,60.0,12.0,0.0
3541,68.0,0.0,60.0,2.0,0.0
3542,71.0,2.0,60.0,2.0,0.0
3543,59.0,4.0,60.0,6.0,0.0
3544,59.0,4.0,60.0,3.0,0.0
3545,68.0,12.0,15.0,10.0,0.0
3546,64.0,7.0,15.0,10.0,0.0
3547,61.0,1.0,120.0,12.0,0.0
3548,83.0,6.0,15.0,11.0,0.0
3549,69.0,0.0,120.0,2.0,0.0
3550,61.0,1.0,120.0,6.0,0.0
3551,61.0,0.0,120.0,3.0,0.0
3552,52.0,3.0,120.0,13.0,0.0
3553,81.0,0.0,15.0,11.0,0.0
3554,40.0,7.0,120.0,14.0,0.0
3555,83.0,7.0,15.0,11.0,0.0
3556,81.0,6.0,15.0,11.0,0.0
3557,83.0,7.0,15.0,11.0,0.0
3558,69.0,4.0,15.0,10.0,0.0
3559,81.0,3.0,15.0,11.0,0.0
3560,83.0,6.0,15.0,11.0,0.0
3561,81.0,7.0,15.0,11.0,0.0
3562,83.0,7.0,15.0,11.0,0.0
3563,73.0,7.0,15.0,10.0,0.0
3564,81.0,6.0,15.0,11.0,0.0
3565,83.0,0.0,15.0,11.0,0.0
3566,81.0,7.0,15.0,11.0,0.0
3567,83.0,16.0,15.0,11.0,0.0
3568,69.0,2.0,15.0,10.0,0.0
3569,80.0,15.0,15.0,11.0,0.0
3570,81.0,0.0,15.0,11.0,0.0
3571,64.0,30.0,15.0,10.0,0.0
3572,57.0,1.0,60.0,12.0,0.0
3573,73.0,1.0,15.0,2.0,0.0
3574,69.0,0.0,60.0,2.0,0.0
3575,57.0,1.0,60.0,6.0,0.0
3576,57.0,4.0,60.0,3.0,0.0
3577,69.0,17.0,15.0,10.0,0.0
3578,64.0,0.0,15.0,10.0,0.0
3579,88.0,0.0,120.0,1.0,0.0
3580,85.0,6.0,15.0,11.0,0.0
3581,52.0,0.0,120.0,12.0,0.0
3582,64.0,1.0,120.0,2.0,0.0
3583,76.0,0.0,120.0,2.0,0.0
3584,52.0,1.0,120.0,6.0,0.0
3585,52.0,0.0,120.0,13.0,0.0
3586,52.0,3.0,120.0,3.0,0.0
3587,40.0,7.0,120.0,14.0,0.0
3588,83.0,7.0,15.0,11.0,0.0
3589,85.0,7.0,15.0,11.0,0.0
3590,83.0,6.0,15.0,11.0,0.0
3591,85.0,7.0,15.0,11.0,0.0
3592,71.0,4.0,15.0,10.0,0.0
3593,83.0,3.0,15.0,11.0,0.0
3594,85.0,6.0,15.0,11.0,0.0
3595,83.0,7.0,15.0,11.0,0.0
3596,85.0,7.0,15.0,11.0,0.0
3597,74.0,0.0,15.0,10.0,0.0
3598,83.0,6.0,15.0,11.0,0.0
3599,85.0,7.0,15.0,11.0,0.0
3600,83.0,7.0,15.0,11.0,0.0
3601,85.0,16.0,15.0,11.0,0.0
3602,71.0,2.0,15.0,10.0,0.0
3603,81.0,15.0,15.0,11.0,0.0
3604,83.0,1.0,15.0,11.0,0.0
3605,64.0,30.0,15.0,10.0,0.0
3606,56.0,1.0,60.0,12.0,0.0
3607,83.0,0.0,60.0,1.0,0.0
3608,68.0,0.0,60.0,2.0,0.0
3609,71.0,1.0,60.0,2.0,0.0
3610,56.0,1.0,60.0,6.0,0.0
3611,56.0,4.0,60.0,3.0,0.0
3612,71.0,17.0,15.0,10.0,0.0
3613,64.0,7.0,15.0,10.0,0.0
3614,88.0,2.0,120.0,0.0,0.0
3615,57.0,1.0,120.0,12.0,0.0
3616,83.0,6.0,15.0,11.0,0.0
3617,85.0,0.0,120.0,1.0,0.0
3618,57.0,1.0,120.0,6.0,0.0
3619,57.0,0.0,120.0,3.0,0.0
3620,52.0,3.0,120.0,13.0,0.0
3621,81.0,0.0,15.0,11.0,0.0
3622,40.0,7.0,120.0,14.0,0.0
3623,83.0,7.0,15.0,11.0,0.0
3624,81.0,6.0,15.0,11.0,0.0
3625,83.0,7.0,15.0,11.0,0.0
3626,69.0,4.0,15.0,10.0,0.0
3627,81.0,3.0,15.0,11.0,0.0
3628,83.0,6.0,15.0,11.0,0.0
3629,81.0,7.0,15.0,11.0,0.0
3630,83.0,7.0,15.0,11.0,0.0
3631,73.0,0.0,15.0,10.0,0.0
3632,81.0,6.0,15.0,11.0,0.0
3633,83.0,7.0,15.0,11.0,0.0
3634,81.0,7.0,15.0,11.0,0.0
3635,83.0,16.0,15.0,11.0,0.0
3636,76.0,2.0,15.0,10.0,0.0
3637,80.0,13.0,15.0,11.0,0.0
3638,81.0,0.0,15.0,11.0,0.0
3639,85.0,2.0,60.0,0.0,0.0
3640,81.0,30.0,15.0,10.0,0.0
3641,61.0,1.0,60.0,12.0,0.0
3642,81.0,0.0,60.0,1.0,0.0
3643,73.0,1.0,15.0,2.0,0.0
3644,69.0,0.0,15.0,2.0,0.0
3645,61.0,1.0,60.0,6.0,0.0
3646,61.0,32.0,60.0,3.0,0.0
3647,85.0,10.0,15.0,10.0,0.0
3648,88.0,0.0,120.0,0.0,0.0
3649,76.0,2.0,120.0,0.0,0.0
3650,88.0,0.0,120.0,10.0,0.0
3651,80.0,1.0,120.0,1.0,0.0
3652,83.0,0.0,120.0,1.0,0.0
3653,71.0,2.0,30.0,11.0,0.0
3654,68.0,0.0,30.0,12.0,0.0
3655,68.0,0.0,120.0,2.0,0.0
3656,71.0,0.0,120.0,2.0,0.0
3657,64.0,2.0,120.0,4.0,0.0
3658,52.0,0.0,30.0,6.0,0.0
3659,64.0,0.0,120.0,5.0,0.0
3660,56.0,0.0,120.0,3.0,0.0
3661,52.0,3.0,120.0,13.0,0.0
3662,59.0,2.0,120.0,3.0,0.0
3663,40.0,24.0,120.0,14.0,0.0
3664,68.0,2.0,30.0,11.0,0.0
3665,64.0,0.0,30.0,12.0,0.0
3666,59.0,0.0,30.0,6.0,0.0
3667,56.0,28.0,15.0,6.0,0.0
3668,71.0,0.0,30.0,11.0,0.0
3669,68.0,2.0,30.0,12.0,0.0
3670,52.0,0.0,30.0,6.0,0.0
3671,64.0,2.0,30.0,12.0,0.0
3672,68.0,0.0,30.0,11.0,0.0
3673,56.0,21.0,15.0,6.0,0.0
3674,59.0,0.0,30.0,6.0,0.0
3675,83.0,2.0,60.0,10.0,0.0
3676,76.0,0.0,60.0,0.0,0.0
3677,83.0,0.0,60.0,0.0,0.0
3678,71.0,2.0,30.0,11.0,0.0
3679,68.0,0.0,30.0,12.0,0.0
3680,80.0,0.0,60.0,1.0,0.0
3681,83.0,1.0,60.0,1.0,0.0
3682,68.0,0.0,60.0,2.0,0.0
3683,64.0,0.0,60.0,4.0,0.0
3684,71.0,1.0,60.0,2.0,0.0
3685,56.0,1.0,15.0,6.0,0.0
3686,52.0,21.0,30.0,6.0,0.0
3687,64.0,0.0,60.0,5.0,0.0
3688,59.0,32.0,60.0,3.0,0.0
3689,56.0,0.0,60.0,3.0,0.0
3690,64.0,0.0,30.0,12.0,0.0
3691,68.0,0.0,30.0,11.0,0.0
3692,56.0,0.0,15.0,6.0,0.0
3693,59.0,1.0,30.0,6.0,0.0
3694,85.0,0.0,120.0,10.0,0.0
3695,85.0,0.0,120.0,0.0,0.0
3696,73.0,0.0,30.0,11.0,0.0
3697,85.0,0.0,720.0,1.0,0.0
3698,69.0,2.0,30.0,12.0,0.0
3699,81.0,1.0,720.0,1.0,0.0
3700,73.0,1.0,720.0,2.0,0.0
3701,64.0,0.0,720.0,4.0,0.0
3702,69.0,0.0,720.0,2.0,0.0
3703,57.0,26.0,30.0,6.0,0.0
3704,52.0,0.0,30.0,6.0,0.0
3705,57.0,0.0,720.0,3.0,0.0
3706,64.0,0.0,720.0,5.0,0.0
3707,61.0,0.0,720.0,3.0,0.0
3708,52.0,2.0,60.0,13.0,0.0
3709,40.0,1.0,60.0,14.0,0.0
3710,69.0,1.0,30.0,11.0,0.0
3711,64.0,0.0,30.0,12.0,0.0
3712,61.0,28.0,30.0,6.0,0.0
3713,57.0,0.0,30.0,6.0,0.0
3714,73.0,0.0,30.0,11.0,0.0
3715,69.0,2.0,30.0,12.0,0.0
3716,52.0,26.0,30.0,6.0,0.0
3717,57.0,0.0,30.0,6.0,0.0
3718,52.0,2.0,60.0,13.0,0.0
3719,40.0,1.0,60.0,14.0,0.0
3720,69.0,0.0,30.0,11.0,0.0
3721,64.0,1.0,30.0,12.0,0.0
3722,61.0,0.0,30.0,6.0,0.0
3723,57.0,28.0,30.0,6.0,0.0
3724,81.0,0.0,60.0,0.0,0.0
3725,81.0,0.0,60.0,10.0,0.0
3726,69.0,0.0,30.0,12.0,0.0
3727,73.0,2.0,30.0,11.0,0.0
3728,52.0,0.0,30.0,6.0,0.0
3729,57.0,26.0,30.0,6.0,0.0
3730,52.0,2.0,60.0,13.0,0.0
3731,40.0,1.0,60.0,14.0,0.0
3732,64.0,0.0,30.0,12.0,0.0
3733,69.0,1.0,30.0,11.0,0.0
3734,61.0,28.0,30.0,6.0,0.0
3735,57.0,0.0,30.0,6.0,0.0
3736,76.0,0.0,540.0,0.0,0.0
3737,76.0,0.0,60.0,10.0,0.0
3738,73.0,0.0,30.0,11.0,0.0
3739,69.0,2.0,30.0,12.0,0.0
3740,52.0,26.0,30.0,6.0,0.0
3741,57.0,0.0,30.0,6.0,0.0
3742,52.0,2.0,60.0,13.0,0.0
3743,40.0,1.0,60.0,14.0,0.0
3744,69.0,0.0,30.0,11.0,0.0
3745,64.0,1.0,30.0,12.0,0.0
3746,61.0,28.0,30.0,6.0,0.0
3747,57.0,0.0,30.0,6.0,0.0
3748,81.0,0.0,60.0,10.0,0.0
3749,81.0,2.0,60.0,0.0,0.0
3750,73.0,0.0,30.0,11.0,0.0
3751,69.0,2.0,30.0,12.0,0.0
3752,52.0,26.0,30.0,6.0,0.0
3753,52.0,0.0,60.0,13.0,0.0
3754,40.0,1.0,60.0,14.0,0.0
3755,64.0,1.0,30.0,12.0,0.0
3756,69.0,0.0,30.0,11.0,0.0
3757,61.0,28.0,30.0,6.0,0.0
3758,57.0,0.0,15.0,6.0,0.0
3759,85.0,0.0,60.0,10.0,0.0
3760,85.0,2.0,60.0,0.0,0.0
3761,73.0,0.0,30.0,11.0,0.0
3762,69.0,2.0,30.0,12.0,0.0
3763,52.0,21.0,30.0,6.0,0.0
3764,57.0,0.0,30.0,6.0,0.0
3765,52.0,3.0,60.0,13.0,0.0
3766,40.0,29.0,60.0,14.0,0.0
3767,69.0,0.0,30.0,11.0,0.0
3768,64.0,2.0,30.0,12.0,0.0
3769,61.0,1.0,30.0,6.0,0.0
3770,57.0,0.0,30.0,6.0,0.0
3771,88.0,2.0,120.0,10.0,0.0
3772,88.0,5.0,120.0,0.0,0.0
3773,69.0,2.0,30.0,12.0,0.0
3774,73.0,0.0,30.0,11.0,0.0
3775,52.0,26.0,30.0,6.0,0.0
3776,52.0,2.0,60.0,13.0,0.0
3777,40.0,1.0,60.0,14.0,0.0
3778,69.0,1.0,30.0,11.0,0.0
3779,64.0,0.0,30.0,12.0,0.0
3780,61.0,0.0,30.0,6.0,0.0
3781,57.0,0.0,15.0,6.0,0.0
3782,69.0,0.0,30.0,12.0,0.0
3783,73.0,2.0,30.0,11.0,0.0
3784,52.0,21.0,30.0,6.0,0.0
3785,57.0,28.0,15.0,6.0,0.0
3786,52.0,0.0,60.0,13.0,0.0
3787,40.0,1.0,60.0,14.0,0.0
3788,64.0,1.0,30.0,12.0,0.0
3789,69.0,0.0,30.0,11.0,0.0
3790,61.0,0.0,30.0,6.0,0.0
3791,85.0,2.0,60.0,10.0,0.0
3792,85.0,0.0,60.0,0.0,0.0
3793,73.0,0.0,30.0,11.0,0.0
3794,69.0,2.0,30.0,12.0,0.0
3795,52.0,26.0,30.0,6.0,0.0
3796,57.0,28.0,15.0,6.0,0.0
3797,52.0,0.0,60.0,13.0,0.0
3798,40.0,1.0,60.0,14.0,0.0
3799,69.0,1.0,30.0,11.0,0.0
3800,64.0,0.0,30.0,12.0,0.0
3801,61.0,0.0,30.0,6.0,0.0
3802,57.0,0.0,15.0,6.0,0.0
3803,81.0,2.0,60.0,10.0,0.0
3804,81.0,0.0,60.0,0.0,0.0
3805,73.0,0.0,30.0,11.0,0.0
3806,69.0,2.0,30.0,12.0,0.0
3807,52.0,26.0,30.0,6.0,0.0
3808,57.0,28.0,15.0,6.0,0.0
3809,52.0,0.0,60.0,13.0,0.0
3810,40.0,1.0,60.0,14.0,0.0
3811,69.0,0.0,30.0,11.0,0.0
3812,64.0,1.0,30.0,12.0,0.0
3813,57.0,0.0,15.0,6.0,0.0
3814,61.0,28.0,30.0,6.0,0.0
3815,85.0,0.0,60.0,0.0,0.0
3816,85.0,0.0,60.0,10.0,0.0
3817,73.0,0.0,30.0,11.0,0.0
3818,69.0,2.0,30.0,12.0,0.0
3819,52.0,26.0,30.0,6.0,0.0
3820,57.0,0.0,30.0,6.0,0.0
3821,52.0,2.0,60.0,13.0,0.0
3822,40.0,1.0,60.0,14.0,0.0
3823,64.0,0.0,30.0,12.0,0.0
3824,69.0,1.0,30.0,11.0,0.0
3825,61.0,0.0,30.0,6.0,0.0
3826,88.0,0.0,60.0,10.0,0.0
3827,88.0,2.0,60.0,0.0,0.0
3828,69.0,2.0,30.0,12.0,0.0
3829,73.0,0.0,30.0,11.0,0.0
3830,57.0,28.0,15.0,6.0,0.0
3831,52.0,0.0,30.0,6.0,0.0
3832,52.0,0.0,60.0,13.0,0.0
3833,40.0,57.0,60.0,14.0,0.0
3834,69.0,0.0,30.0,11.0,0.0
3835,64.0,0.0,30.0,12.0,0.0
3836,57.0,21.0,15.0,6.0,0.0
3837,61.0,1.0,30.0,6.0,0.0
3838,93.0,2.0,60.0,10.0,0.0
3839,76.0,3.0,15.0,0.0,0.0
3840,93.0,0.0,60.0,0.0,0.0
3841,73.0,0.0,60.0,11.0,0.0
3842,69.0,2.0,60.0,12.0,0.0
3843,81.0,0.0,120.0,1.0,0.0
3844,85.0,1.0,120.0,1.0,0.0
3845,64.0,0.0,120.0,4.0,0.0
3846,73.0,0.0,120.0,2.0,0.0
3847,69.0,2.0,120.0,2.0,0.0
3848,52.0,48.0,60.0,6.0,0.0
3849,57.0,0.0,120.0,3.0,0.0
3850,52.0,0.0,120.0,13.0,0.0
3851,61.0,55.0,120.0,3.0,0.0
3852,64.0,0.0,120.0,5.0,0.0
3853,40.0,0.0,120.0,14.0,0.0
3854,88.0,2.0,60.0,10.0,0.0
3855,69.0,0.0,60.0,11.0,0.0
3856,64.0,2.0,60.0,12.0,0.0
3857,57.0,0.0,15.0,6.0,0.0
3858,61.0,4.0,60.0,6.0,0.0
3859,88.0,0.0,60.0,10.0,0.0
3860,88.0,2.0,60.0,0.0,0.0
3861,73.0,0.0,60.0,11.0,0.0
3862,69.0,2.0,60.0,12.0,0.0
3863,57.0,0.0,60.0,6.0,0.0
3864,52.0,48.0,60.0,6.0,0.0
3865,52.0,3.0,120.0,13.0,0.0
3866,40.0,57.0,120.0,14.0,0.0
3867,85.0,2.0,60.0,10.0,0.0
3868,69.0,2.0,60.0,11.0,0.0
3869,64.0,0.0,60.0,12.0,0.0
3870,61.0,0.0,60.0,6.0,0.0
3871,57.0,4.0,60.0,6.0,0.0
3872,88.0,2.0,60.0,10.0,0.0
3873,69.0,2.0,60.0,12.0,0.0
3874,73.0,0.0,60.0,11.0,0.0
3875,57.0,48.0,60.0,6.0,0.0
3876,52.0,0.0,60.0,6.0,0.0
3877,52.0,3.0,120.0,13.0,0.0
3878,40.0,57.0,120.0,14.0,0.0
3879,85.0,2.0,60.0,10.0,0.0
3880,69.0,2.0,60.0,11.0,0.0
3881,64.0,0.0,60.0,12.0,0.0
3882,61.0,0.0,60.0,6.0,0.0
3883,57.0,4.0,60.0,6.0,0.0
3884,88.0,2.0,60.0,10.0,0.0
3885,73.0,0.0,60.0,11.0,0.0
3886,69.0,2.0,60.0,12.0,0.0
3887,57.0,0.0,60.0,6.0,0.0
3888,52.0,48.0,60.0,6.0,0.0
3889,52.0,3.0,120.0,13.0,0.0
3890,40.0,57.0,120.0,14.0,0.0
3891,85.0,2.0,60.0,10.0,0.0
3892,69.0,0.0,60.0,11.0,0.0
3893,64.0,2.0,60.0,12.0,0.0
3894,61.0,4.0,60.0,6.0,0.0
3895,57.0,0.0,60.0,6.0,0.0
3896,88.0,2.0,60.0,10.0,0.0
3897,73.0,2.0,60.0,11.0,0.0
3898,69.0,0.0,60.0,12.0,0.0
3899,52.0,0.0,60.0,6.0,0.0
3900,52.0,3.0,120.0,13.0,0.0
3901,40.0,57.0,120.0,14.0,0.0
3902,85.0,2.0,60.0,10.0,0.0
3903,64.0,2.0,60.0,12.0,0.0
3904,69.0,0.0,60.0,11.0,0.0
3905,61.0,0.0,60.0,6.0,0.0
3906,57.0,48.0,15.0,6.0,0.0
3907,86.0,0.0,60.0,10.0,0.0
3908,86.0,2.0,60.0,0.0,0.0
3909,69.0,2.0,60.0,12.0,0.0
3910,71.0,0.0,60.0,11.0,0.0
3911,57.0,0.0,60.0,6.0,0.0
3912,52.0,48.0,60.0,6.0,0.0
3913,52.0,3.0,120.0,13.0,0.0
3914,40.0,7.0,120.0,14.0,0.0
3915,83.0,2.0,60.0,10.0,0.0
3916,83.0,1.0,60.0,0.0,0.0
3917,69.0,0.0,60.0,11.0,0.0
3918,64.0,1.0,60.0,12.0,0.0
3919,57.0,0.0,60.0,6.0,0.0
3920,59.0,4.0,60.0,6.0,0.0
3921,76.0,0.0,120.0,0.0,0.0
3922,85.0,10.0,15.0,10.0,0.0
3923,83.0,0.0,120.0,0.0,0.0
3924,83.0,1.0,120.0,1.0,0.0
3925,69.0,0.0,120.0,11.0,0.0
3926,81.0,0.0,120.0,1.0,0.0
3927,64.0,0.0,120.0,12.0,0.0
3928,71.0,1.0,120.0,2.0,0.0
3929,69.0,0.0,120.0,2.0,0.0
3930,52.0,1.0,120.0,6.0,0.0
3931,64.0,0.0,120.0,3.0,0.0
3932,52.0,3.0,120.0,13.0,0.0
3933,40.0,2.0,120.0,14.0,0.0
3934,83.0,10.0,15.0,10.0,0.0
3935,85.0,10.0,15.0,10.0,0.0
3936,83.0,10.0,15.0,10.0,0.0
3937,85.0,10.0,15.0,10.0,0.0
3938,83.0,10.0,15.0,10.0,0.0
3939,85.0,10.0,15.0,10.0,0.0
3940,83.0,10.0,15.0,10.0,0.0
3941,85.0,10.0,15.0,10.0,0.0
3942,83.0,10.0,15.0,10.0,0.0
3943,85.0,10.0,15.0,10.0,0.0
3944,83.0,2.0,15.0,10.0,0.0
3945,85.0,10.0,15.0,10.0,0.0
3946,83.0,10.0,15.0,10.0,0.0
3947,85.0,10.0,15.0,10.0,0.0
3948,83.0,10.0,15.0,10.0,0.0
3949,85.0,10.0,15.0,10.0,0.0
3950,83.0,10.0,15.0,10.0,0.0
3951,85.0,10.0,15.0,10.0,0.0
3952,83.0,10.0,15.0,10.0,0.0
3953,85.0,10.0,15.0,10.0,0.0
3954,83.0,10.0,15.0,10.0,0.0
3955,85.0,10.0,15.0,10.0,0.0
3956,83.0,10.0,15.0,10.0,0.0
3957,85.0,10.0,15.0,10.0,0.0
3958,83.0,10.0,15.0,10.0,0.0
3959,85.0,10.0,15.0,10.0,0.0
3960,83.0,10.0,15.0,10.0,0.0
3961,85.0,10.0,15.0,10.0,0.0
3962,83.0,10.0,15.0,10.0,0.0
3963,85.0,10.0,15.0,10.0,0.0
3964,83.0,10.0,15.0,10.0,0.0
3965,85.0,10.0,15.0,10.0,0.0
3966,83.0,10.0,15.0,10.0,0.0
3967,85.0,10.0,15.0,10.0,0.0
3968,83.0,10.0,15.0,10.0,0.0
3969,85.0,10.0,15.0,10.0,0.0
3970,88.0,0.0,120.0,0.0,0.0
3971,76.0,0.0,120.0,0.0,0.0
3972,68.0,0.0,120.0,11.0,0.0
3973,64.0,1.0,120.0,12.0,0.0
3974,80.0,0.0,120.0,1.0,0.0
3975,83.0,0.0,120.0,1.0,0.0
3976,71.0,1.0,120.0,2.0,0.0
3977,68.0,0.0,120.0,2.0,0.0
3978,64.0,1.0,120.0,6.0,0.0
3979,52.0,0.0,120.0,13.0,0.0
3980,52.0,3.0,120.0,3.0,0.0
3981,64.0,0.0,120.0,3.0,0.0
3982,40.0,2.0,120.0,14.0,0.0
3983,83.0,10.0,15.0,10.0,0.0
3984,85.0,10.0,15.0,10.0,0.0
3985,83.0,10.0,15.0,10.0,0.0
3986,85.0,10.0,15.0,10.0,0.0
3987,83.0,10.0,15.0,10.0,0.0
3988,85.0,10.0,15.0,10.0,0.0
3989,83.0,10.0,15.0,10.0,0.0
3990,85.0,10.0,15.0,10.0,0.0
3991,83.0,10.0,15.0,10.0,0.0
3992,85.0,10.0,15.0,10.0,0.0
3993,83.0,2.0,15.0,10.0,0.0
3994,85.0,10.0,15.0,10.0,0.0
3995,83.0,10.0,15.0,10.0,0.0
3996,85.0,10.0,15.0,10.0,0.0
3997,83.0,10.0,15.0,10.0,0.0
3998,85.0,10.0,15.0,10.0,0.0
3999,83.0,10.0,15.0,10.0,0.0
4000,85.0,10.0,15.0,10.0,0.0
4001,83.0,10.0,15.0,10.0,0.0
4002,85.0,10.0,15.0,10.0,0.0
4003,83.0,10.0,15.0,10.0,0.0
4004,85.0,10.0,15.0,10.0,0.0
4005,83.0,10.0,15.0,10.0,0.0
4006,85.0,10.0,15.0,10.0,0.0
4007,83.0,10.0,15.0,10.0,0.0
4008,85.0,10.0,15.0,10.0,0.0
4009,83.0,10.0,15.0,10.0,0.0
4010,85.0,10.0,15.0,10.0,0.0
4011,83.0,10.0,15.0,10.0,0.0
4012,85.0,9.0,15.0,10.0,0.0
4013,83.0,10.0,15.0,10.0,0.0
4014,85.0,9.0,15.0,10.0,0.0
4015,83.0,10.0,15.0,10.0,0.0
4016,85.0,9.0,15.0,10.0,0.0
4017,83.0,67.0,15.0,10.0,0.0
4018,85.0,0.0,240.0,0.0,0.0
4019,85.0,4.0,240.0,10.0,0.0
4020,80.0,0.0,180.0,1.0,0.0
4021,77.0,0.0,180.0,1.0,0.0
4022,61.0,28.0,60.0,6.0,0.0
4023,61.0,3.0,120.0,13.0,0.0
4024,49.0,24.0,120.0,14.0,0.0
4025,65.0,30.0,30.0,12.0,0.0
4026,73.0,1.0,60.0,6.0,0.0
4027,66.0,2.0,30.0,12.0,0.0
4028,68.0,30.0,30.0,12.0,0.0
4029,71.0,56.0,60.0,6.0,0.0
4030,65.0,2.0,30.0,12.0,0.0
4031,81.0,0.0,300.0,1.0,0.0
4032,78.0,0.0,300.0,1.0,0.0
4033,69.0,28.0,60.0,6.0,0.0
4034,54.0,3.0,120.0,13.0,0.0
4035,42.0,24.0,120.0,14.0,0.0
4036,83.0,2.0,60.0,0.0,0.0
4037,83.0,0.0,60.0,10.0,0.0
4038,66.0,28.0,30.0,12.0,0.0
4039,66.0,1.0,60.0,6.0,0.0
4040,68.0,2.0,30.0,12.0,0.0
4041,85.0,2.0,60.0,0.0,0.0
4042,85.0,0.0,60.0,10.0,0.0
4043,69.0,28.0,30.0,12.0,0.0
4044,64.0,56.0,60.0,6.0,0.0
4045,66.0,2.0,30.0,12.0,0.0
4046,87.0,4.0,60.0,10.0,0.0
4047,87.0,0.0,60.0,0.0,0.0
4048,63.0,28.0,60.0,6.0,0.0
4049,47.0,3.0,120.0,13.0,0.0
4050,35.0,24.0,120.0,14.0,0.0
4051,85.0,0.0,60.0,0.0,0.0
4052,85.0,2.0,60.0,10.0,0.0
4053,75.0,28.0,30.0,11.0,0.0
4054,59.0,1.0,60.0,6.0,0.0
4055,76.0,2.0,30.0,11.0,0.0
4056,87.0,0.0,60.0,0.0,0.0
4057,87.0,2.0,60.0,10.0,0.0
4058,78.0,0.0,60.0,1.0,0.0
4059,75.0,1.0,60.0,1.0,0.0
4060,78.0,28.0,30.0,11.0,0.0
4061,69.0,0.0,60.0,2.0,0.0
4062,66.0,1.0,60.0,2.0,0.0
4063,57.0,60.0,60.0,6.0,0.0
4064,75.0,0.0,30.0,11.0,0.0
4065,88.0,2.0,120.0,0.0,0.0
4066,88.0,0.0,120.0,10.0,0.0
4067,76.0,0.0,180.0,1.0,0.0
4068,80.0,5.0,180.0,1.0,0.0
4069,56.0,28.0,60.0,6.0,0.0
4070,52.0,3.0,120.0,13.0,0.0
4071,40.0,24.0,120.0,14.0,0.0
4072,76.0,28.0,30.0,11.0,0.0
4073,52.0,1.0,60.0,6.0,0.0
4074,78.0,2.0,30.0,11.0,0.0
4075,83.0,2.0,60.0,0.0,0.0
4076,83.0,0.0,60.0,10.0,0.0
4077,80.0,23.0,30.0,11.0,0.0
4078,68.0,1.0,60.0,2.0,0.0
4079,64.0,0.0,60.0,2.0,0.0
4080,50.0,60.0,60.0,6.0,0.0
4081,76.0,1.0,30.0,11.0,0.0
4082,85.0,4.0,240.0,10.0,0.0
4083,85.0,0.0,240.0,0.0,0.0
4084,77.0,0.0,180.0,1.0,0.0
4085,80.0,0.0,180.0,1.0,0.0
4086,49.0,28.0,60.0,6.0,0.0
4087,61.0,3.0,120.0,13.0,0.0
4088,49.0,24.0,120.0,14.0,0.0
4089,65.0,30.0,30.0,12.0,0.0
4090,73.0,1.0,60.0,6.0,0.0
4091,66.0,2.0,30.0,12.0,0.0
4092,68.0,30.0,30.0,12.0,0.0
4093,65.0,0.0,60.0,2.0,0.0
4094,68.0,1.0,60.0,2.0,0.0
4095,71.0,56.0,60.0,6.0,0.0
4096,65.0,1.0,30.0,12.0,0.0
4097,81.0,2.0,300.0,1.0,0.0
4098,69.0,28.0,60.0,6.0,0.0
4099,54.0,3.0,120.0,13.0,0.0
4100,42.0,24.0,120.0,14.0,0.0
4101,83.0,2.0,60.0,10.0,0.0
4102,83.0,0.0,60.0,0.0,0.0
4103,66.0,28.0,30.0,12.0,0.0
4104,66.0,1.0,60.0,6.0,0.0
4105,68.0,2.0,30.0,12.0,0.0
4106,85.0,2.0,60.0,0.0,0.0
4107,85.0,0.0,60.0,10.0,0.0
4108,69.0,28.0,30.0,12.0,0.0
4109,66.0,0.0,60.0,2.0,0.0
4110,69.0,1.0,60.0,2.0,0.0
4111,64.0,56.0,60.0,6.0,0.0
4112,66.0,1.0,30.0,12.0,0.0
4113,87.0,0.0,60.0,10.0,0.0
4114,87.0,4.0,60.0,0.0,0.0
4115,63.0,28.0,60.0,6.0,0.0
4116,47.0,3.0,120.0,13.0,0.0
4117,35.0,24.0,120.0,14.0,0.0
4118,85.0,0.0,60.0,10.0,0.0
4119,85.0,2.0,60.0,0.0,0.0
4120,75.0,28.0,30.0,11.0,0.0
4121,59.0,1.0,60.0,6.0,0.0
4122,76.0,0.0,30.0,11.0,0.0
4123,87.0,0.0,60.0,10.0,0.0
4124,87.0,7.0,60.0,0.0,0.0
4125,75.0,1.0,60.0,1.0,0.0
4126,78.0,0.0,15.0,1.0,0.0
4127,78.0,23.0,30.0,11.0,0.0
4128,66.0,1.0,60.0,2.0,0.0
4129,69.0,0.0,60.0,2.0,0.0
4130,57.0,60.0,60.0,6.0,0.0
4131,75.0,0.0,30.0,11.0,0.0
4132,88.0,2.0,120.0,0.0,0.0
4133,88.0,0.0,120.0,10.0,0.0
4134,80.0,3.0,180.0,1.0,0.0
4135,76.0,2.0,120.0,11.0,0.0
4136,76.0,0.0,720.0,1.0,0.0
4137,56.0,56.0,60.0,6.0,0.0
4138,56.0,0.0,120.0,3.0,0.0
4139,52.0,3.0,120.0,13.0,0.0
4140,59.0,0.0,120.0,3.0,0.0
4141,40.0,49.0,120.0,14.0,0.0
4142,52.0,1.0,60.0,6.0,0.0
4143,83.0,0.0,60.0,10.0,0.0
4144,83.0,0.0,60.0,0.0,0.0
4145,71.0,1.0,60.0,11.0,0.0
4146,68.0,0.0,60.0,2.0,0.0
4147,64.0,1.0,60.0,2.0,0.0
4148,59.0,60.0,60.0,6.0,0.0
4149,56.0,0.0,60.0,3.0,0.0
4150,59.0,2.0,60.0,3.0,0.0
4151,85.0,2.0,120.0,10.0,0.0
4152,85.0,0.0,120.0,0.0,0.0
4153,73.0,2.0,120.0,11.0,0.0
4154,81.0,0.0,180.0,1.0,0.0
4155,52.0,56.0,60.0,6.0,0.0
4156,57.0,2.0,180.0,3.0,0.0
4157,52.0,3.0,120.0,13.0,0.0
4158,61.0,0.0,180.0,3.0,0.0
4159,40.0,52.0,120.0,14.0,0.0
4160,57.0,1.0,60.0,6.0,0.0
4161,81.0,0.0,60.0,10.0,0.0
4162,81.0,0.0,60.0,0.0,0.0
4163,69.0,1.0,60.0,11.0,0.0
4164,64.0,1.0,60.0,2.0,0.0
4165,69.0,0.0,60.0,2.0,0.0
4166,61.0,60.0,60.0,6.0,0.0
4167,76.0,2.0,120.0,0.0,0.0
4168,76.0,0.0,120.0,10.0,0.0
4169,64.0,0.0,120.0,11.0,0.0
4170,64.0,2.0,120.0,12.0,0.0
4171,83.0,0.0,180.0,1.0,0.0
4172,52.0,56.0,60.0,6.0,0.0
4173,62.0,0.0,120.0,3.0,0.0
4174,52.0,3.0,120.0,13.0,0.0
4175,59.0,0.0,120.0,3.0,0.0
4176,40.0,52.0,120.0,14.0,0.0
4177,59.0,1.0,60.0,6.0,0.0
4178,80.0,0.0,60.0,0.0,0.0
4179,80.0,2.0,60.0,10.0,0.0
4180,59.0,1.0,60.0,12.0,0.0
4181,68.0,0.0,60.0,11.0,0.0
4182,64.0,0.0,60.0,2.0,0.0
4183,71.0,1.0,60.0,2.0,0.0
4184,62.0,60.0,60.0,6.0,0.0
4185,62.0,0.0,60.0,3.0,0.0
4186,59.0,0.0,60.0,3.0,0.0
4187,81.0,2.0,120.0,0.0,0.0
4188,81.0,0.0,120.0,10.0,0.0
4189,81.0,0.0,180.0,1.0,0.0
4190,69.0,0.0,120.0,11.0,0.0
4191,61.0,2.0,120.0,12.0,0.0
4192,52.0,56.0,60.0,6.0,0.0
4193,52.0,3.0,120.0,13.0,0.0
4194,61.0,0.0,180.0,3.0,0.0
4195,57.0,0.0,180.0,3.0,0.0
4196,40.0,49.0,120.0,14.0,0.0
4197,57.0,1.0,60.0,6.0,0.0
4198,85.0,0.0,60.0,10.0,0.0
4199,85.0,4.0,60.0,0.0,0.0
4200,57.0,1.0,60.0,12.0,0.0
4201,73.0,0.0,60.0,11.0,0.0
4202,69.0,2.0,60.0,2.0,0.0
4203,64.0,0.0,60.0,2.0,0.0
4204,61.0,28.0,60.0,6.0,0.0
4205,88.0,0.0,120.0,10.0,0.0
4206,88.0,0.0,120.0,0.0,0.0
4207,71.0,2.0,30.0,11.0,0.0
4208,68.0,0.0,30.0,12.0,0.0
4209,80.0,0.0,120.0,1.0,0.0
4210,83.0,1.0,120.0,1.0,0.0
4211,64.0,2.0,120.0,4.0,0.0
4212,68.0,0.0,120.0,2.0,0.0
4213,76.0,0.0,120.0,2.0,0.0
4214,56.0,0.0,30.0,6.0,0.0
4215,52.0,28.0,30.0,6.0,0.0
4216,64.0,0.0,120.0,5.0,0.0
4217,59.0,2.0,120.0,3.0,0.0
4218,56.0,0.0,120.0,3.0,0.0
4219,52.0,3.0,120.0,13.0,0.0
4220,40.0,24.0,120.0,14.0,0.0
4221,68.0,2.0,30.0,11.0,0.0
4222,64.0,0.0,30.0,12.0,0.0
4223,59.0,0.0,30.0,6.0,0.0
4224,68.0,2.0,30.0,12.0,0.0
4225,71.0,0.0,30.0,11.0,0.0
4226,52.0,0.0,30.0,6.0,0.0
4227,56.0,28.0,15.0,6.0,0.0
4228,64.0,0.0,30.0,12.0,0.0
4229,68.0,2.0,30.0,11.0,0.0
4230,56.0,23.0,15.0,6.0,0.0
4231,59.0,1.0,30.0,6.0,0.0
4232,83.0,0.0,60.0,10.0,0.0
4233,83.0,2.0,60.0,0.0,0.0
4234,68.0,2.0,30.0,12.0,0.0
4235,71.0,0.0,30.0,11.0,0.0
4236,83.0,0.0,60.0,1.0,0.0
4237,80.0,1.0,60.0,1.0,0.0
4238,64.0,1.0,60.0,4.0,0.0
4239,71.0,2.0,60.0,2.0,0.0
4240,68.0,0.0,60.0,2.0,0.0
4241,56.0,0.0,15.0,6.0,0.0
4242,52.0,21.0,30.0,6.0,0.0
4243,59.0,0.0,60.0,3.0,0.0
4244,64.0,2.0,60.0,5.0,0.0
4245,56.0,27.0,60.0,3.0,0.0
4246,68.0,1.0,30.0,11.0,0.0
4247,64.0,0.0,30.0,12.0,0.0
4248,56.0,0.0,15.0,6.0,0.0
4249,59.0,0.0,30.0,6.0,0.0
4250,85.0,0.0,120.0,10.0,0.0
4251,85.0,0.0,120.0,0.0,0.0
4252,85.0,0.0,360.0,1.0,0.0
4253,69.0,2.0,30.0,12.0,0.0
4254,81.0,1.0,360.0,1.0,0.0
4255,73.0,0.0,30.0,11.0,0.0
4256,69.0,2.0,120.0,2.0,0.0
4257,73.0,0.0,120.0,2.0,0.0
4258,64.0,1.0,720.0,4.0,0.0
4259,52.0,0.0,30.0,6.0,0.0
4260,52.0,2.0,60.0,13.0,0.0
4261,64.0,0.0,720.0,5.0,0.0
4262,61.0,0.0,120.0,3.0,0.0
4263,57.0,2.0,120.0,3.0,0.0
4264,40.0,1.0,60.0,14.0,0.0
4265,69.0,0.0,30.0,11.0,0.0
4266,64.0,1.0,30.0,12.0,0.0
4267,57.0,26.0,15.0,6.0,0.0
4268,61.0,28.0,30.0,6.0,0.0
4269,69.0,2.0,30.0,12.0,0.0
4270,73.0,0.0,30.0,11.0,0.0
4271,57.0,0.0,30.0,6.0,0.0
4272,52.0,24.0,30.0,6.0,0.0
4273,52.0,0.0,60.0,13.0,0.0
4274,40.0,1.0,60.0,14.0,0.0
4275,69.0,1.0,30.0,11.0,0.0
4276,64.0,0.0,30.0,12.0,0.0
4277,61.0,0.0,30.0,6.0,0.0
4278,81.0,0.0,60.0,0.0,0.0
4279,81.0,2.0,60.0,10.0,0.0
4280,73.0,2.0,30.0,11.0,0.0
4281,69.0,0.0,30.0,12.0,0.0
4282,69.0,0.0,60.0,2.0,0.0
4283,52.0,0.0,30.0,6.0,0.0
4284,57.0,28.0,15.0,6.0,0.0
4285,52.0,0.0,60.0,13.0,0.0
4286,57.0,27.0,60.0,3.0,0.0
4287,40.0,1.0,60.0,14.0,0.0
4288,69.0,1.0,30.0,11.0,0.0
4289,64.0,0.0,30.0,12.0,0.0
4290,57.0,26.0,15.0,6.0,0.0
4291,61.0,0.0,30.0,6.0,0.0
4292,76.0,2.0,60.0,0.0,0.0
4293,76.0,0.0,60.0,10.0,0.0
4294,69.0,2.0,30.0,12.0,0.0
4295,73.0,0.0,30.0,11.0,0.0
4296,64.0,0.0,60.0,2.0,0.0
4297,57.0,1.0,15.0,6.0,0.0
4298,52.0,26.0,30.0,6.0,0.0
4299,52.0,0.0,60.0,13.0,0.0
4300,52.0,27.0,60.0,3.0,0.0
4301,40.0,1.0,60.0,14.0,0.0
4302,69.0,1.0,30.0,11.0,0.0
4303,64.0,0.0,30.0,12.0,0.0
4304,61.0,1.0,30.0,6.0,0.0
4305,81.0,0.0,60.0,10.0,0.0
4306,81.0,2.0,60.0,0.0,0.0
4307,69.0,2.0,30.0,12.0,0.0
4308,73.0,0.0,30.0,11.0,0.0
4309,69.0,0.0,60.0,2.0,0.0
4310,57.0,0.0,15.0,6.0,0.0
4311,52.0,0.0,30.0,6.0,0.0
4312,52.0,0.0,60.0,13.0,0.0
4313,57.0,27.0,60.0,3.0,0.0
4314,40.0,1.0,60.0,14.0,0.0
4315,69.0,0.0,30.0,11.0,0.0
4316,64.0,1.0,30.0,12.0,0.0
4317,57.0,1.0,30.0,6.0,0.0
4318,61.0,0.0,30.0,6.0,0.0
4319,85.0,0.0,60.0,10.0,0.0
4320,85.0,2.0,60.0,0.0,0.0
4321,73.0,2.0,30.0,11.0,0.0
4322,69.0,0.0,30.0,12.0,0.0
4323,73.0,1.0,60.0,2.0,0.0
4324,52.0,21.0,30.0,6.0,0.0
4325,57.0,0.0,30.0,6.0,0.0
4326,61.0,0.0,60.0,3.0,0.0
4327,52.0,3.0,60.0,13.0,0.0
4328,40.0,29.0,60.0,14.0,0.0
4329,69.0,0.0,30.0,11.0,0.0
4330,64.0,0.0,30.0,12.0,0.0
4331,61.0,1.0,30.0,6.0,0.0
4332,57.0,0.0,30.0,6.0,0.0
4333,88.0,0.0,120.0,10.0,0.0
4334,88.0,0.0,120.0,0.0,0.0
4335,76.0,0.0,30.0,11.0,0.0
4336,73.0,2.0,30.0,12.0,0.0
4337,76.0,1.0,120.0,1.0,0.0
4338,76.0,0.0,120.0,2.0,0.0
4339,52.0,26.0,30.0,6.0,0.0
4340,52.0,2.0,60.0,13.0,0.0
4341,64.0,27.0,120.0,3.0,0.0
4342,40.0,1.0,60.0,14.0,0.0
4343,73.0,1.0,30.0,11.0,0.0
4344,69.0,0.0,30.0,12.0,0.0
4345,57.0,0.0,15.0,6.0,0.0
4346,61.0,28.0,30.0,6.0,0.0
4347,76.0,0.0,30.0,11.0,0.0
4348,73.0,2.0,30.0,12.0,0.0
4349,57.0,0.0,30.0,6.0,0.0
4350,52.0,26.0,30.0,6.0,0.0
4351,52.0,2.0,60.0,13.0,0.0
4352,40.0,1.0,60.0,14.0,0.0
4353,69.0,0.0,30.0,12.0,0.0
4354,73.0,0.0,30.0,11.0,0.0
4355,61.0,1.0,30.0,6.0,0.0
4356,57.0,0.0,30.0,6.0,0.0
4357,85.0,0.0,60.0,10.0,0.0
4358,85.0,2.0,60.0,0.0,0.0
4359,73.0,0.0,30.0,12.0,0.0
4360,76.0,2.0,30.0,11.0,0.0
4361,73.0,0.0,60.0,1.0,0.0
4362,73.0,1.0,60.0,2.0,0.0
4363,57.0,0.0,30.0,6.0,0.0
4364,52.0,26.0,30.0,6.0,0.0
4365,52.0,0.0,60.0,13.0,0.0
4366,61.0,27.0,60.0,3.0,0.0
4367,40.0,0.0,60.0,14.0,0.0
4368,69.0,0.0,30.0,12.0,0.0
4369,73.0,1.0,30.0,11.0,0.0
4370,61.0,0.0,30.0,6.0,0.0
4371,81.0,0.0,60.0,0.0,0.0
4372,81.0,0.0,60.0,10.0,0.0
4373,76.0,0.0,30.0,11.0,0.0
4374,69.0,0.0,60.0,1.0,0.0
4375,73.0,2.0,30.0,12.0,0.0
4376,69.0,1.0,60.0,2.0,0.0
4377,57.0,1.0,15.0,6.0,0.0
4378,52.0,0.0,30.0,6.0,0.0
4379,52.0,2.0,60.0,13.0,0.0
4380,57.0,27.0,60.0,3.0,0.0
4381,40.0,0.0,60.0,14.0,0.0
4382,69.0,1.0,30.0,12.0,0.0
4383,73.0,0.0,30.0,11.0,0.0
4384,61.0,1.0,30.0,6.0,0.0
4385,57.0,26.0,15.0,6.0,0.0
4386,85.0,0.0,60.0,0.0,0.0
4387,85.0,0.0,60.0,10.0,0.0
4388,76.0,2.0,30.0,11.0,0.0
4389,73.0,0.0,30.0,12.0,0.0
4390,73.0,1.0,60.0,1.0,0.0
4391,73.0,0.0,60.0,2.0,0.0
4392,52.0,0.0,30.0,6.0,0.0
4393,52.0,2.0,60.0,13.0,0.0
4394,61.0,27.0,60.0,3.0,0.0
4395,40.0,1.0,60.0,14.0,0.0
4396,69.0,0.0,30.0,12.0,0.0
4397,73.0,0.0,30.0,11.0,0.0
4398,57.0,26.0,15.0,6.0,0.0
4399,61.0,0.0,30.0,6.0,0.0
4400,88.0,2.0,60.0,10.0,0.0
4401,88.0,0.0,60.0,0.0,0.0
4402,73.0,0.0,30.0,12.0,0.0
4403,76.0,1.0,60.0,1.0,0.0
4404,76.0,2.0,30.0,11.0,0.0
4405,76.0,0.0,60.0,2.0,0.0
4406,57.0,1.0,15.0,6.0,0.0
4407,52.0,0.0,30.0,6.0,0.0
4408,52.0,0.0,60.0,13.0,0.0
4409,64.0,3.0,60.0,3.0,0.0
4410,40.0,29.0,60.0,14.0,0.0
4411,69.0,0.0,30.0,12.0,0.0
4412,73.0,0.0,30.0,11.0,0.0
4413,57.0,21.0,15.0,6.0,0.0
4414,61.0,0.0,30.0,6.0,0.0
4415,93.0,5.0,240.0,10.0,0.0
4416,73.0,2.0,30.0,12.0,0.0
4417,81.0,1.0,60.0,1.0,0.0
4418,73.0,0.0,60.0,1.0,0.0
4419,81.0,0.0,30.0,11.0,0.0
4420,81.0,1.0,240.0,2.0,0.0
4421,73.0,0.0,240.0,2.0,0.0
4422,64.0,2.0,60.0,4.0,0.0
4423,57.0,0.0,30.0,6.0,0.0
4424,52.0,23.0,30.0,6.0,0.0
4425,52.0,2.0,60.0,13.0,0.0
4426,64.0,0.0,60.0,5.0,0.0
4427,52.0,0.0,60.0,3.0,0.0
4428,69.0,2.0,240.0,3.0,0.0
4429,40.0,1.0,60.0,14.0,0.0
4430,73.0,0.0,30.0,11.0,0.0
4431,69.0,1.0,30.0,12.0,0.0
4432,61.0,0.0,30.0,6.0,0.0
4433,73.0,0.0,30.0,12.0,0.0
4434,85.0,1.0,60.0,1.0,0.0
4435,81.0,0.0,60.0,1.0,0.0
4436,81.0,2.0,30.0,11.0,0.0
4437,64.0,2.0,60.0,4.0,0.0
4438,57.0,28.0,15.0,6.0,0.0
4439,52.0,23.0,30.0,6.0,0.0
4440,52.0,2.0,60.0,3.0,0.0
4441,52.0,0.0,60.0,13.0,0.0
4442,64.0,0.0,60.0,5.0,0.0
4443,40.0,1.0,60.0,14.0,0.0
4444,69.0,1.0,30.0,12.0,0.0
4445,73.0,0.0,30.0,11.0,0.0
4446,61.0,28.0,30.0,6.0,0.0
4447,57.0,0.0,30.0,6.0,0.0
4448,73.0,2.0,30.0,12.0,0.0
4449,81.0,0.0,30.0,11.0,0.0
4450,85.0,0.0,60.0,1.0,0.0
4451,81.0,1.0,60.0,1.0,0.0
4452,64.0,1.0,60.0,4.0,0.0
4453,57.0,23.0,30.0,6.0,0.0
4454,52.0,0.0,30.0,6.0,0.0
4455,64.0,0.0,60.0,5.0,0.0
4456,52.0,3.0,60.0,13.0,0.0
4457,52.0,0.0,60.0,3.0,0.0
4458,40.0,52.0,60.0,14.0,0.0
4459,73.0,0.0,30.0,11.0,0.0
4460,69.0,0.0,30.0,12.0,0.0
4461,57.0,0.0,30.0,6.0,0.0
4462,61.0,1.0,30.0,6.0,0.0
4463,81.0,0.0,60.0,11.0,0.0
4464,73.0,0.0,60.0,11.0,0.0
4465,81.0,0.0,60.0,1.0,0.0
4466,85.0,0.0,60.0,1.0,0.0
4467,64.0,1.0,60.0,12.0,0.0
4468,73.0,0.0,60.0,12.0,0.0
4469,64.0,0.0,60.0,4.0,0.0
4470,52.0,1.0,60.0,6.0,0.0
4471,52.0,3.0,60.0,13.0,0.0
4472,64.0,0.0,60.0,5.0,0.0
4473,52.0,0.0,60.0,3.0,0.0
4474,40.0,22.0,60.0,14.0,0.0
4475,88.0,5.0,30.0,10.0,0.0
4476,64.0,55.0,30.0,3.0,0.0
4477,85.0,5.0,30.0,10.0,0.0
4478,61.0,55.0,30.0,3.0,0.0
4479,88.0,5.0,30.0,10.0,0.0
4480,64.0,55.0,30.0,3.0,0.0
4481,85.0,5.0,30.0,10.0,0.0
4482,61.0,55.0,30.0,3.0,0.0
4483,81.0,5.0,30.0,10.0,0.0
4484,57.0,55.0,30.0,3.0,0.0
4485,76.0,5.0,30.0,10.0,0.0
4486,52.0,55.0,30.0,3.0,0.0
4487,81.0,5.0,30.0,10.0,0.0
4488,57.0,55.0,30.0,3.0,0.0
4489,85.0,5.0,30.0,10.0,0.0
4490,61.0,55.0,30.0,3.0,0.0
4491,81.0,5.0,30.0,10.0,0.0
4492,81.0,0.0,30.0,0.0,0.0
4493,57.0,55.0,30.0,3.0,0.0
4494,76.0,0.0,30.0,0.0,0.0
4495,76.0,5.0,30.0,10.0,0.0
4496,52.0,55.0,30.0,3.0,0.0
4497,73.0,0.0,30.0,0.0,0.0
4498,73.0,5.0,30.0,10.0,0.0
4499,49.0,55.0,30.0,3.0,0.0
4500,69.0,0.0,30.0,0.0,0.0
4501,69.0,5.0,30.0,10.0,0.0
4502,45.0,55.0,30.0,3.0,0.0
4503,73.0,0.0,30.0,0.0,0.0
4504,73.0,5.0,30.0,10.0,0.0
4505,49.0,55.0,30.0,3.0,0.0
4506,76.0,0.0,30.0,0.0,0.0
4507,76.0,5.0,30.0,10.0,0.0
4508,52.0,55.0,30.0,3.0,0.0
4509,81.0,5.0,30.0,10.0,0.0
4510,81.0,0.0,30.0,0.0,0.0
4511,57.0,55.0,30.0,3.0,0.0
4512,85.0,0.0,30.0,0.0,0.0
4513,85.0,5.0,30.0,10.0,0.0
4514,61.0,55.0,30.0,3.0,0.0
4515,88.0,5.0,30.0,0.0,0.0
4516,88.0,0.0,30.0,10.0,0.0
4517,64.0,55.0,30.0,3.0,0.0
4518,93.0,0.0,30.0,10.0,0.0
4519,93.0,5.0,30.0,0.0,0.0
4520,69.0,55.0,30.0,3.0,0.0
4521,69.0,2.0,30.0,10.0,0.0
4522,81.0,0.0,30.0,0.0,0.0
4523,73.0,0.0,30.0,11.0,0.0
4524,81.0,0.0,30.0,1.0,0.0
4525,85.0,0.0,30.0,1.0,0.0
4526,61.0,1.0,30.0,12.0,0.0
4527,73.0,0.0,30.0,2.0,0.0
4528,69.0,2.0,30.0,2.0,0.0
4529,69.0,2.0,60.0,4.0,0.0
4530,57.0,1.0,60.0,6.0,0.0
4531,57.0,3.0,60.0,13.0,0.0
4532,57.0,23.0,30.0,3.0,0.0
4533,57.0,4.0,60.0,5.0,0.0
4534,45.0,22.0,60.0,14.0,0.0
4535,74.0,2.0,30.0,10.0,0.0
4536,86.0,0.0,30.0,0.0,0.0
4537,83.0,0.0,30.0,1.0,0.0
4538,54.0,0.0,30.0,12.0,0.0
4539,78.0,0.0,30.0,11.0,0.0
4540,81.0,1.0,30.0,1.0,0.0
4541,69.0,2.0,60.0,4.0,0.0
4542,69.0,0.0,30.0,2.0,0.0
4543,71.0,2.0,30.0,2.0,0.0
4544,50.0,1.0,60.0,6.0,0.0
4545,57.0,4.0,60.0,5.0,0.0
4546,62.0,23.0,30.0,3.0,0.0
4547,50.0,0.0,30.0,3.0,0.0
4548,50.0,3.0,60.0,13.0,0.0
4549,38.0,2.0,60.0,14.0,0.0
4550,74.0,0.0,120.0,0.0,0.0
4551,73.0,10.0,15.0,10.0,0.0
4552,83.0,2.0,120.0,0.0,0.0
4553,83.0,0.0,120.0,1.0,0.0
4554,81.0,0.0,120.0,1.0,0.0
4555,69.0,1.0,120.0,12.0,0.0
4556,74.0,0.0,120.0,11.0,0.0
4557,71.0,1.0,120.0,2.0,0.0
4558,64.0,0.0,120.0,4.0,0.0
4559,69.0,0.0,120.0,2.0,0.0
4560,52.0,1.0,120.0,6.0,0.0
4561,64.0,3.0,120.0,5.0,0.0
4562,59.0,0.0,120.0,3.0,0.0
4563,52.0,0.0,120.0,3.0,0.0
4564,52.0,0.0,120.0,13.0,0.0
4565,40.0,2.0,120.0,14.0,0.0
4566,71.0,10.0,15.0,10.0,0.0
4567,73.0,10.0,15.0,10.0,0.0
4568,71.0,10.0,15.0,10.0,0.0
4569,73.0,10.0,15.0,10.0,0.0
4570,71.0,10.0,15.0,10.0,0.0
4571,73.0,10.0,15.0,10.0,0.0
4572,71.0,10.0,15.0,10.0,0.0
4573,73.0,10.0,15.0,10.0,0.0
4574,71.0,10.0,15.0,10.0,0.0
4575,73.0,10.0,15.0,10.0,0.0
4576,71.0,0.0,15.0,10.0,0.0
4577,73.0,10.0,15.0,10.0,0.0
4578,71.0,10.0,15.0,10.0,0.0
4579,73.0,10.0,15.0,10.0,0.0
4580,71.0,10.0,15.0,10.0,0.0
4581,73.0,10.0,15.0,10.0,0.0
4582,71.0,10.0,15.0,10.0,0.0
4583,73.0,10.0,15.0,10.0,0.0
4584,71.0,10.0,15.0,10.0,0.0
4585,73.0,10.0,15.0,10.0,0.0
4586,71.0,10.0,15.0,10.0,0.0
4587,73.0,10.0,15.0,10.0,0.0
4588,71.0,10.0,15.0,10.0,0.0
4589,73.0,10.0,15.0,10.0,0.0
4590,71.0,10.0,15.0,10.0,0.0
4591,73.0,10.0,15.0,10.0,0.0
4592,71.0,10.0,15.0,10.0,0.0
4593,73.0,10.0,15.0,10.0,0.0
4594,71.0,10.0,15.0,10.0,0.0
4595,73.0,10.0,15.0,10.0,0.0
4596,57.0,2.0,60.0,12.0,0.0
4597,57.0,1.0,60.0,6.0,0.0
4598,71.0,10.0,15.0,10.0,0.0
4599,73.0,15.0,15.0,10.0,0.0
4600,69.0,12.0,15.0,10.0,0.0
4601,71.0,10.0,15.0,10.0,0.0
4602,85.0,7.0,15.0,10.0,0.0
4603,74.0,1.0,120.0,0.0,0.0
4604,88.0,0.0,120.0,0.0,0.0
4605,57.0,2.0,15.0,12.0,0.0
4606,76.0,0.0,120.0,1.0,0.0
4607,62.0,1.0,120.0,11.0,0.0
4608,83.0,0.0,120.0,1.0,0.0
4609,64.0,0.0,120.0,4.0,0.0
4610,71.0,0.0,120.0,2.0,0.0
4611,68.0,1.0,120.0,2.0,0.0
4612,57.0,1.0,15.0,6.0,0.0
4613,52.0,0.0,360.0,13.0,0.0
4614,64.0,0.0,120.0,5.0,0.0
4615,59.0,6.0,120.0,3.0,0.0
4616,40.0,0.0,120.0,3.0,0.0
4617,40.0,117.0,360.0,14.0,0.0
4618,83.0,10.0,15.0,10.0,0.0
4619,56.0,2.0,60.0,12.0,0.0
4620,56.0,7.0,60.0,6.0,0.0
4621,85.0,10.0,15.0,10.0,0.0
4622,83.0,10.0,15.0,10.0,0.0
4623,85.0,10.0,15.0,10.0,0.0
4624,83.0,2.0,15.0,10.0,0.0
4625,85.0,10.0,15.0,10.0,0.0
4626,54.0,0.0,60.0,12.0,0.0
4627,54.0,1.0,60.0,6.0,0.0
4628,83.0,10.0,15.0,10.0,0.0
4629,85.0,10.0,15.0,10.0,0.0
4630,83.0,10.0,15.0,10.0,0.0
4631,85.0,9.0,15.0,10.0,0.0
4632,83.0,1.0,15.0,10.0,0.0
4633,85.0,10.0,15.0,10.0,0.0
4634,52.0,2.0,60.0,12.0,0.0
4635,52.0,2.0,60.0,6.0,0.0
4636,83.0,10.0,15.0,10.0,0.0
4637,85.0,10.0,15.0,10.0,0.0
4638,83.0,10.0,15.0,10.0,0.0
4639,85.0,6.0,15.0,10.0,0.0
4640,83.0,10.0,15.0,10.0,0.0
4641,85.0,10.0,15.0,10.0,0.0
4642,52.0,2.0,60.0,12.0,0.0
4643,52.0,7.0,60.0,6.0,0.0
4644,83.0,10.0,15.0,10.0,0.0
4645,85.0,10.0,15.0,10.0,0.0
4646,83.0,10.0,15.0,10.0,0.0
4647,85.0,10.0,15.0,10.0,0.0
4648,83.0,1.0,15.0,10.0,0.0
4649,85.0,10.0,15.0,10.0,0.0
4650,54.0,2.0,60.0,12.0,0.0
4651,54.0,7.0,60.0,6.0,0.0
4652,83.0,10.0,15.0,10.0,0.0
4653,85.0,10.0,15.0,10.0,0.0
4654,83.0,10.0,15.0,10.0,0.0
4655,85.0,10.0,15.0,10.0,0.0
4656,83.0,1.0,15.0,10.0,0.0
4657,85.0,10.0,15.0,10.0,0.0
4658,56.0,2.0,60.0,12.0,0.0
4659,56.0,1.0,60.0,6.0,0.0
4660,83.0,10.0,15.0,10.0,0.0
4661,85.0,14.0,15.0,10.0,0.0
4662,81.0,12.0,15.0,10.0,0.0
4663,83.0,3.0,15.0,10.0,0.0
4664,81.0,0.0,120.0,0.0,0.0
4665,73.0,2.0,120.0,0.0,0.0
4666,81.0,0.0,120.0,10.0,0.0
4667,73.0,1.0,120.0,1.0,0.0
4668,57.0,2.0,240.0,12.0,0.0
4669,61.0,0.0,120.0,11.0,0.0
4670,81.0,0.0,120.0,1.0,0.0
4671,64.0,0.0,120.0,4.0,0.0
4672,57.0,2.0,120.0,4.0,0.0
4673,69.0,0.0,120.0,2.0,0.0
4674,73.0,0.0,120.0,2.0,0.0
4675,57.0,58.0,240.0,6.0,0.0
4676,45.0,117.0,120.0,3.0,0.0
4677,57.0,0.0,120.0,3.0,0.0
4678,57.0,3.0,360.0,13.0,0.0
4679,45.0,12.0,360.0,14.0,0.0
4680,59.0,2.0,60.0,12.0,0.0
4681,59.0,51.0,60.0,6.0,0.0
4682,69.0,2.0,60.0,10.0,0.0
4683,61.0,2.0,60.0,12.0,0.0
4684,61.0,1.0,60.0,6.0,0.0
4685,69.0,2.0,15.0,10.0,0.0
4686,64.0,2.0,15.0,12.0,0.0
4687,76.0,0.0,660.0,2.0,0.0
4688,64.0,1.0,360.0,4.0,0.0
4689,64.0,0.0,660.0,2.0,0.0
4690,64.0,41.0,15.0,6.0,0.0
4691,52.0,0.0,360.0,13.0,0.0
4692,64.0,0.0,360.0,5.0,0.0
4693,40.0,14.0,360.0,14.0,0.0
4694,68.0,60.0,60.0,10.0,0.0
4695,62.0,2.0,120.0,12.0,0.0
4696,62.0,51.0,120.0,6.0,0.0
4697,66.0,2.0,60.0,10.0,0.0
4698,64.0,2.0,60.0,10.0,0.0
4699,61.0,2.0,60.0,12.0,0.0
4700,61.0,61.0,60.0,6.0,0.0
4701,64.0,60.0,60.0,10.0,0.0
4702,59.0,2.0,120.0,12.0,0.0
4703,59.0,53.0,120.0,6.0,0.0
4704,66.0,2.0,60.0,10.0,0.0
4705,68.0,3.0,60.0,10.0,0.0
4706,76.0,0.0,60.0,11.0,0.0
4707,64.0,1.0,60.0,12.0,0.0
4708,64.0,1.0,60.0,6.0,0.0
4709,69.0,2.0,240.0,10.0,0.0
4710,78.0,45.0,15.0,11.0,0.0
4711,61.0,0.0,240.0,12.0,0.0
4712,64.0,2.0,300.0,4.0,0.0
4713,61.0,54.0,240.0,6.0,0.0
4714,64.0,2.0,300.0,5.0,0.0
4715,57.0,0.0,300.0,13.0,0.0
4716,45.0,1.0,300.0,14.0,0.0
4717,76.0,60.0,60.0,11.0,0.0
4718,74.0,55.0,60.0,11.0,0.0
4719,73.0,20.0,60.0,11.0,0.0
4720,74.0,43.0,15.0,11.0,0.0
4721,73.0,2.0,60.0,11.0,0.0
4722,71.0,0.0,60.0,10.0,0.0
4723,71.0,0.0,60.0,11.0,0.0
4724,59.0,1.0,60.0,12.0,0.0
4725,59.0,51.0,60.0,6.0,0.0
4726,73.0,0.0,60.0,10.0,0.0
4727,93.0,2.0,60.0,0.0,0.0
4728,81.0,0.0,60.0,1.0,0.0
4729,69.0,1.0,60.0,11.0,0.0
4730,76.0,1.0,60.0,1.0,0.0
4731,57.0,0.0,60.0,12.0,0.0
4732,64.0,1.0,180.0,4.0,0.0
4733,69.0,0.0,60.0,2.0,0.0
4734,73.0,1.0,60.0,2.0,0.0
4735,57.0,1.0,60.0,6.0,0.0
4736,52.0,2.0,60.0,3.0,0.0
4737,52.0,0.0,60.0,13.0,0.0
4738,64.0,0.0,180.0,5.0,0.0
4739,64.0,0.0,60.0,3.0,0.0
4740,40.0,12.0,60.0,14.0,0.0
4741,76.0,2.0,15.0,10.0,0.0
4742,93.0,0.0,15.0,0.0,0.0
4743,59.0,0.0,30.0,12.0,0.0
4744,71.0,28.0,30.0,11.0,0.0
4745,81.0,15.0,15.0,1.0,0.0
4746,74.0,29.0,60.0,2.0,0.0
4747,52.0,1.0,120.0,6.0,0.0
4748,52.0,0.0,120.0,13.0,0.0
4749,64.0,0.0,120.0,3.0,0.0
4750,52.0,0.0,120.0,3.0,0.0
4751,40.0,29.0,120.0,14.0,0.0
4752,74.0,0.0,120.0,10.0,0.0
4753,92.0,2.0,60.0,0.0,0.0
4754,80.0,0.0,60.0,1.0,0.0
4755,64.0,1.0,30.0,11.0,0.0
4756,52.0,0.0,30.0,12.0,0.0
4757,90.0,2.0,60.0,0.0,0.0
4758,59.0,0.0,30.0,12.0,0.0
4759,71.0,26.0,30.0,11.0,0.0
4760,78.0,0.0,60.0,1.0,0.0
4761,71.0,0.0,15.0,2.0,0.0
4762,68.0,0.0,60.0,2.0,0.0
4763,52.0,1.0,30.0,12.0,0.0
4764,64.0,0.0,30.0,11.0,0.0
4765,73.0,2.0,60.0,10.0,0.0
4766,88.0,2.0,60.0,0.0,0.0
4767,69.0,23.0,30.0,11.0,0.0
4768,59.0,0.0,30.0,12.0,0.0
4769,76.0,1.0,60.0,1.0,0.0
4770,64.0,2.0,60.0,4.0,0.0
4771,69.0,1.0,60.0,2.0,0.0
4772,73.0,0.0,60.0,2.0,0.0
4773,52.0,1.0,60.0,6.0,0.0
4774,64.0,0.0,60.0,5.0,0.0
4775,64.0,0.0,60.0,3.0,0.0
4776,52.0,3.0,60.0,3.0,0.0
4777,52.0,0.0,60.0,13.0,0.0
4778,40.0,24.0,60.0,14.0,0.0
4779,52.0,0.0,30.0,12.0,0.0
4780,64.0,1.0,30.0,11.0,0.0
4781,71.0,2.0,120.0,10.0,0.0
4782,88.0,0.0,60.0,0.0,0.0
4783,76.0,0.0,15.0,1.0,0.0
4784,68.0,0.0,30.0,11.0,0.0
4785,56.0,26.0,30.0,12.0,0.0
4786,64.0,2.0,60.0,4.0,0.0
4787,68.0,0.0,60.0,2.0,0.0
4788,71.0,1.0,60.0,2.0,0.0
4789,50.0,1.0,60.0,6.0,0.0
4790,50.0,0.0,60.0,3.0,0.0
4791,62.0,3.0,60.0,3.0,0.0
4792,64.0,2.0,60.0,5.0,0.0
4793,50.0,0.0,60.0,13.0,0.0
4794,38.0,24.0,60.0,14.0,0.0
4795,64.0,0.0,30.0,11.0,0.0
4796,52.0,1.0,30.0,12.0,0.0
4797,90.0,0.0,60.0,0.0,0.0
4798,76.0,0.0,15.0,1.0,0.0
4799,69.0,0.0,30.0,11.0,0.0
4800,57.0,26.0,30.0,12.0,0.0
4801,78.0,0.0,60.0,1.0,0.0
4802,69.0,0.0,60.0,2.0,0.0
4803,64.0,2.0,60.0,4.0,0.0
4804,73.0,1.0,60.0,2.0,0.0
4805,49.0,1.0,60.0,6.0,0.0
4806,49.0,0.0,60.0,13.0,0.0
4807,61.0,0.0,60.0,3.0,0.0
4808,49.0,3.0,60.0,3.0,0.0
4809,64.0,0.0,60.0,5.0,0.0
4810,37.0,24.0,60.0,14.0,0.0
4811,52.0,0.0,30.0,12.0,0.0
4812,64.0,1.0,30.0,11.0,0.0
4813,92.0,2.0,60.0,0.0,0.0
4814,76.0,0.0,60.0,10.0,0.0
4815,59.0,23.0,30.0,12.0,0.0
4816,76.0,0.0,15.0,1.0,0.0
4817,80.0,0.0,60.0,1.0,0.0
4818,71.0,0.0,30.0,11.0,0.0
4819,68.0,0.0,60.0,2.0,0.0
4820,64.0,1.0,60.0,4.0,0.0
4821,74.0,0.0,60.0,2.0,0.0
4822,47.0,1.0,60.0,6.0,0.0
4823,64.0,0.0,60.0,5.0,0.0
4824,47.0,0.0,60.0,3.0,0.0
4825,47.0,3.0,60.0,13.0,0.0
4826,59.0,0.0,60.0,3.0,0.0
4827,35.0,29.0,60.0,14.0,0.0
4828,52.0,0.0,30.0,12.0,0.0
4829,64.0,0.0,30.0,11.0,0.0
4830,93.0,0.0,120.0,0.0,0.0
4831,69.0,2.0,120.0,10.0,0.0
4832,73.0,2.0,30.0,11.0,0.0
4833,61.0,0.0,30.0,12.0,0.0
4834,81.0,0.0,120.0,1.0,0.0
4835,76.0,0.0,120.0,1.0,0.0
4836,73.0,0.0,60.0,2.0,0.0
4837,69.0,1.0,60.0,2.0,0.0
4838,69.0,2.0,300.0,4.0,0.0
4839,45.0,28.0,30.0,6.0,0.0
4840,57.0,27.0,60.0,3.0,0.0
4841,45.0,0.0,60.0,3.0,0.0
4842,57.0,0.0,300.0,5.0,0.0
4843,45.0,3.0,120.0,13.0,0.0
4844,33.0,24.0,120.0,14.0,0.0
4845,64.0,0.0,30.0,12.0,0.0
4846,69.0,1.0,30.0,11.0,0.0
4847,64.0,1.0,30.0,6.0,0.0
4848,76.0,0.0,30.0,11.0,0.0
4849,61.0,2.0,30.0,12.0,0.0
4850,76.0,2.0,60.0,2.0,0.0
4851,73.0,0.0,60.0,2.0,0.0
4852,61.0,24.0,30.0,6.0,0.0
4853,64.0,0.0,60.0,3.0,0.0
4854,61.0,0.0,60.0,3.0,0.0
4855,64.0,0.0,30.0,12.0,0.0
4856,73.0,2.0,30.0,11.0,0.0
4857,64.0,1.0,30.0,6.0,0.0
4858,61.0,0.0,30.0,12.0,0.0
4859,76.0,2.0,30.0,11.0,0.0
4860,73.0,1.0,60.0,2.0,0.0
4861,76.0,0.0,60.0,2.0,0.0
4862,61.0,28.0,30.0,6.0,0.0
4863,64.0,27.0,60.0,3.0,0.0
4864,61.0,0.0,60.0,3.0,0.0
4865,64.0,0.0,30.0,12.0,0.0
4866,73.0,1.0,30.0,11.0,0.0
4867,64.0,1.0,30.0,6.0,0.0
4868,78.0,2.0,30.0,11.0,0.0
4869,62.0,0.0,30.0,12.0,0.0
4870,74.0,1.0,60.0,2.0,0.0
4871,78.0,0.0,60.0,2.0,0.0
4872,62.0,28.0,30.0,6.0,0.0
4873,66.0,0.0,60.0,3.0,0.0
4874,62.0,27.0,60.0,3.0,0.0
4875,66.0,1.0,30.0,12.0,0.0
4876,74.0,0.0,30.0,11.0,0.0
4877,66.0,1.0,30.0,6.0,0.0
4878,85.0,1.0,60.0,1.0,0.0
4879,61.0,2.0,30.0,12.0,0.0
4880,76.0,0.0,30.0,11.0,0.0
4881,73.0,0.0,60.0,2.0,0.0
4882,76.0,0.0,60.0,2.0,0.0
4883,61.0,23.0,30.0,6.0,0.0
4884,64.0,2.0,60.0,3.0,0.0
4885,61.0,0.0,60.0,3.0,0.0
4886,73.0,2.0,30.0,11.0,0.0
4887,64.0,0.0,30.0,12.0,0.0
4888,64.0,28.0,30.0,6.0,0.0
4889,61.0,2.0,30.0,12.0,0.0
4890,76.0,0.0,30.0,11.0,0.0
4891,85.0,5.0,60.0,1.0,0.0
4892,73.0,1.0,60.0,2.0,0.0
4893,76.0,0.0,60.0,2.0,0.0
4894,64.0,0.0,180.0,4.0,0.0
4895,61.0,23.0,30.0,6.0,0.0
4896,64.0,27.0,60.0,3.0,0.0
4897,61.0,0.0,60.0,3.0,0.0
4898,64.0,2.0,180.0,5.0,0.0
4899,73.0,1.0,30.0,11.0,0.0
4900,64.0,0.0,30.0,12.0,0.0
4901,64.0,1.0,30.0,6.0,0.0
4902,59.0,0.0,30.0,12.0,0.0
4903,86.0,1.0,60.0,1.0,0.0
4904,74.0,2.0,30.0,11.0,0.0
4905,71.0,1.0,60.0,2.0,0.0
4906,74.0,0.0,60.0,2.0,0.0
4907,59.0,28.0,30.0,6.0,0.0
4908,62.0,27.0,60.0,3.0,0.0
4909,59.0,0.0,60.0,3.0,0.0
4910,71.0,0.0,30.0,11.0,0.0
4911,62.0,0.0,30.0,12.0,0.0
4912,62.0,1.0,30.0,6.0,0.0
4913,87.0,0.0,60.0,0.0,0.0
4914,73.0,0.0,30.0,11.0,0.0
4915,57.0,2.0,30.0,12.0,0.0
4916,73.0,0.0,60.0,2.0,0.0
4917,69.0,2.0,60.0,2.0,0.0
4918,57.0,24.0,30.0,6.0,0.0
4919,61.0,0.0,60.0,3.0,0.0
4920,57.0,0.0,60.0,3.0,0.0
4921,69.0,2.0,30.0,11.0,0.0
4922,61.0,0.0,30.0,12.0,0.0
4923,61.0,28.0,30.0,6.0,0.0
4924,88.0,7.0,60.0,0.0,0.0
4925,57.0,2.0,30.0,12.0,0.0
4926,73.0,0.0,30.0,11.0,0.0
4927,69.0,1.0,60.0,2.0,0.0
4928,64.0,0.0,180.0,4.0,0.0
4929,73.0,0.0,60.0,2.0,0.0
4930,57.0,21.0,30.0,6.0,0.0
4931,57.0,25.0,60.0,3.0,0.0
4932,61.0,0.0,60.0,3.0,0.0
4933,64.0,0.0,180.0,5.0,0.0
4934,69.0,1.0,30.0,11.0,0.0
4935,61.0,0.0,30.0,12.0,0.0
4936,61.0,1.0,30.0,6.0,0.0
4937,88.0,0.0,60.0,0.0,0.0
4938,80.0,2.0,30.0,10.0,0.0
4939,74.0,2.0,30.0,11.0,0.0
4940,59.0,0.0,30.0,12.0,0.0
4941,71.0,0.0,60.0,2.0,0.0
4942,74.0,1.0,60.0,2.0,0.0
4943,59.0,26.0,30.0,6.0,0.0
4944,52.0,0.0,180.0,13.0,0.0
4945,62.0,0.0,60.0,3.0,0.0
4946,40.0,0.0,180.0,14.0,0.0
4947,83.0,2.0,30.0,10.0,0.0
4948,62.0,1.0,30.0,12.0,0.0
4949,62.0,1.0,30.0,6.0,0.0
4950,86.0,2.0,30.0,10.0,0.0
4951,71.0,0.0,15.0,11.0,0.0
4952,83.0,2.0,60.0,1.0,0.0
4953,56.0,0.0,30.0,12.0,0.0
4954,86.0,0.0,60.0,1.0,0.0
4955,68.0,0.0,60.0,2.0,0.0
4956,71.0,2.0,60.0,2.0,0.0
4957,56.0,24.0,30.0,6.0,0.0
4958,59.0,25.0,15.0,3.0,0.0
4959,56.0,2.0,60.0,3.0,0.0
4960,83.0,0.0,30.0,10.0,0.0
4961,59.0,0.0,30.0,12.0,0.0
4962,68.0,0.0,30.0,11.0,0.0
4963,80.0,2.0,30.0,10.0,0.0
4964,71.0,2.0,30.0,11.0,0.0
4965,74.0,0.0,60.0,1.0,0.0
4966,59.0,0.0,30.0,12.0,0.0
4967,83.0,0.0,60.0,1.0,0.0
4968,71.0,2.0,60.0,2.0,0.0
4969,68.0,0.0,60.0,2.0,0.0
4970,64.0,1.0,60.0,4.0,0.0
4971,59.0,26.0,15.0,6.0,0.0
4972,64.0,3.0,60.0,5.0,0.0
4973,56.0,27.0,60.0,3.0,0.0
4974,59.0,0.0,60.0,3.0,0.0
4975,83.0,2.0,30.0,10.0,0.0
4976,62.0,0.0,30.0,12.0,0.0
4977,68.0,1.0,30.0,11.0,0.0
4978,62.0,1.0,30.0,6.0,0.0
4979,83.0,2.0,60.0,10.0,0.0
4980,73.0,0.0,120.0,1.0,0.0
4981,81.0,0.0,120.0,1.0,0.0
4982,73.0,0.0,30.0,11.0,0.0
4983,57.0,2.0,30.0,12.0,0.0
4984,69.0,0.0,300.0,4.0,0.0
4985,69.0,1.0,60.0,2.0,0.0
4986,73.0,0.0,60.0,2.0,0.0
4987,57.0,26.0,30.0,6.0,0.0
4988,57.0,0.0,300.0,5.0,0.0
4989,57.0,27.0,60.0,3.0,0.0
4990,61.0,0.0,60.0,3.0,0.0
4991,45.0,3.0,120.0,13.0,0.0
4992,33.0,24.0,120.0,14.0,0.0
4993,69.0,0.0,30.0,11.0,0.0
4994,81.0,2.0,120.0,10.0,0.0
4995,76.0,2.0,30.0,11.0,0.0
4996,61.0,1.0,15.0,12.0,0.0
4997,76.0,2.0,60.0,2.0,0.0
4998,73.0,0.0,60.0,2.0,0.0
4999,61.0,1.0,15.0,6.0,0.0
5000,61.0,2.0,60.0,3.0,0.0
5001,64.0,0.0,60.0,3.0,0.0
5002,73.0,2.0,30.0,11.0,0.0
5003,64.0,0.0,30.0,12.0,0.0
5004,64.0,1.0,30.0,6.0,0.0
5005,61.0,2.0,30.0,12.0,0.0
5006,76.0,0.0,30.0,11.0,0.0
5007,76.0,0.0,60.0,2.0,0.0
5008,73.0,1.0,60.0,2.0,0.0
5009,61.0,26.0,30.0,6.0,0.0
5010,61.0,0.0,60.0,3.0,0.0
5011,64.0,27.0,60.0,3.0,0.0
5012,73.0,0.0,30.0,11.0,0.0
5013,64.0,1.0,30.0,12.0,0.0
5014,64.0,1.0,30.0,6.0,0.0
5015,78.0,0.0,30.0,11.0,0.0
5016,62.0,2.0,30.0,12.0,0.0
5017,74.0,1.0,60.0,2.0,0.0
5018,78.0,0.0,60.0,2.0,0.0
5019,62.0,28.0,30.0,6.0,0.0
5020,62.0,0.0,60.0,3.0,0.0
5021,66.0,27.0,60.0,3.0,0.0
5022,74.0,0.0,30.0,11.0,0.0
5023,66.0,1.0,30.0,12.0,0.0
5024,66.0,1.0,30.0,6.0,0.0
5025,85.0,1.0,60.0,1.0,0.0
5026,76.0,2.0,30.0,11.0,0.0
5027,61.0,0.0,30.0,12.0,0.0
5028,76.0,2.0,60.0,2.0,0.0
5029,73.0,0.0,60.0,2.0,0.0
5030,61.0,23.0,30.0,6.0,0.0
5031,64.0,0.0,60.0,3.0,0.0
5032,61.0,2.0,60.0,3.0,0.0
5033,73.0,2.0,30.0,11.0,0.0
5034,64.0,0.0,30.0,12.0,0.0
5035,64.0,28.0,30.0,6.0,0.0
5036,61.0,0.0,30.0,12.0,0.0
5037,85.0,5.0,60.0,1.0,0.0
5038,76.0,2.0,30.0,11.0,0.0
5039,73.0,1.0,60.0,2.0,0.0
5040,76.0,0.0,60.0,2.0,0.0
5041,64.0,0.0,180.0,4.0,0.0
5042,61.0,23.0,30.0,6.0,0.0
5043,64.0,0.0,180.0,5.0,0.0
5044,61.0,27.0,60.0,3.0,0.0
5045,64.0,0.0,60.0,3.0,0.0
5046,64.0,0.0,30.0,12.0,0.0
5047,73.0,1.0,30.0,11.0,0.0
5048,64.0,1.0,30.0,6.0,0.0
5049,74.0,0.0,30.0,11.0,0.0
5050,59.0,2.0,30.0,12.0,0.0
5051,86.0,0.0,60.0,1.0,0.0
5052,74.0,1.0,60.0,2.0,0.0
5053,71.0,0.0,60.0,2.0,0.0
5054,59.0,28.0,30.0,6.0,0.0
5055,62.0,0.0,60.0,3.0,0.0
5056,59.0,27.0,60.0,3.0,0.0
5057,71.0,0.0,30.0,11.0,0.0
5058,62.0,1.0,30.0,12.0,0.0
5059,62.0,1.0,30.0,6.0,0.0
5060,87.0,0.0,60.0,0.0,0.0
5061,73.0,2.0,30.0,11.0,0.0
5062,57.0,0.0,30.0,12.0,0.0
5063,73.0,2.0,60.0,2.0,0.0
5064,69.0,0.0,60.0,2.0,0.0
5065,57.0,24.0,30.0,6.0,0.0
5066,61.0,2.0,60.0,3.0,0.0
5067,57.0,0.0,60.0,3.0,0.0
5068,61.0,2.0,30.0,12.0,0.0
5069,69.0,0.0,30.0,11.0,0.0
5070,61.0,28.0,30.0,6.0,0.0
5071,88.0,7.0,60.0,0.0,0.0
5072,73.0,0.0,30.0,11.0,0.0
5073,57.0,2.0,30.0,12.0,0.0
5074,73.0,1.0,60.0,2.0,0.0
5075,69.0,0.0,60.0,2.0,0.0
5076,64.0,2.0,180.0,4.0,0.0
5077,57.0,21.0,30.0,6.0,0.0
5078,57.0,25.0,60.0,3.0,0.0
5079,61.0,0.0,60.0,3.0,0.0
5080,64.0,0.0,180.0,5.0,0.0
5081,69.0,0.0,30.0,11.0,0.0
5082,61.0,1.0,30.0,12.0,0.0
5083,61.0,1.0,30.0,6.0,0.0
5084,88.0,0.0,60.0,0.0,0.0
5085,80.0,2.0,30.0,10.0,0.0
5086,59.0,2.0,30.0,12.0,0.0
5087,74.0,0.0,30.0,11.0,0.0
5088,74.0,0.0,60.0,2.0,0.0
5089,71.0,1.0,60.0,2.0,0.0
5090,59.0,26.0,30.0,6.0,0.0
5091,52.0,3.0,180.0,13.0,0.0
5092,62.0,0.0,60.0,3.0,0.0
5093,59.0,25.0,60.0,3.0,0.0
5094,40.0,0.0,180.0,14.0,0.0
5095,83.0,2.0,30.0,10.0,0.0
5096,62.0,0.0,30.0,12.0,0.0
5097,62.0,1.0,30.0,6.0,0.0
5098,86.0,2.0,30.0,10.0,0.0
5099,71.0,1.0,15.0,11.0,0.0
5100,86.0,0.0,60.0,1.0,0.0
5101,56.0,2.0,30.0,12.0,0.0
5102,68.0,0.0,60.0,2.0,0.0
5103,71.0,0.0,60.0,2.0,0.0
5104,56.0,24.0,30.0,6.0,0.0
5105,56.0,2.0,60.0,3.0,0.0
5106,59.0,0.0,60.0,3.0,0.0
5107,83.0,0.0,30.0,10.0,0.0
5108,68.0,0.0,30.0,11.0,0.0
5109,59.0,0.0,30.0,12.0,0.0
5110,59.0,26.0,30.0,6.0,0.0
5111,80.0,2.0,30.0,10.0,0.0
5112,71.0,2.0,30.0,11.0,0.0
5113,83.0,2.0,15.0,1.0,0.0
5114,56.0,0.0,30.0,12.0,0.0
5115,74.0,0.0,60.0,1.0,0.0
5116,71.0,2.0,60.0,2.0,0.0
5117,68.0,0.0,60.0,2.0,0.0
5118,64.0,1.0,60.0,4.0,0.0
5119,56.0,21.0,30.0,6.0,0.0
5120,59.0,0.0,60.0,3.0,0.0
5121,64.0,0.0,60.0,5.0,0.0
5122,56.0,27.0,60.0,3.0,0.0
5123,83.0,2.0,30.0,10.0,0.0
5124,59.0,0.0,30.0,12.0,0.0
5125,68.0,1.0,30.0,11.0,0.0
5126,59.0,1.0,30.0,6.0,0.0
5127,81.0,0.0,120.0,10.0,0.0
5128,57.0,0.0,30.0,12.0,0.0
5129,81.0,0.0,120.0,1.0,0.0
5130,73.0,2.0,120.0,1.0,0.0
5131,73.0,2.0,30.0,11.0,0.0
5132,64.0,1.0,360.0,4.0,0.0
5133,69.0,1.0,60.0,2.0,0.0
5134,73.0,0.0,60.0,2.0,0.0
5135,57.0,28.0,30.0,6.0,0.0
5136,45.0,3.0,120.0,13.0,0.0
5137,57.0,27.0,60.0,3.0,0.0
5138,61.0,0.0,60.0,3.0,0.0
5139,57.0,3.0,360.0,5.0,0.0
5140,33.0,24.0,120.0,14.0,0.0
5141,69.0,0.0,30.0,11.0,0.0
5142,61.0,1.0,30.0,6.0,0.0
5143,61.0,1.0,15.0,12.0,0.0
5144,76.0,2.0,30.0,11.0,0.0
5145,76.0,2.0,60.0,2.0,0.0
5146,73.0,0.0,60.0,2.0,0.0
5147,61.0,24.0,30.0,6.0,0.0
5148,64.0,2.0,60.0,3.0,0.0
5149,61.0,0.0,60.0,3.0,0.0
5150,73.0,0.0,30.0,11.0,0.0
5151,64.0,0.0,30.0,12.0,0.0
5152,64.0,1.0,30.0,6.0,0.0
5153,61.0,2.0,30.0,12.0,0.0
5154,76.0,0.0,30.0,11.0,0.0
5155,76.0,1.0,60.0,2.0,0.0
5156,73.0,0.0,60.0,2.0,0.0
5157,61.0,28.0,30.0,6.0,0.0
5158,61.0,0.0,60.0,3.0,0.0
5159,64.0,5.0,60.0,3.0,0.0
5160,73.0,1.0,30.0,11.0,0.0
5161,64.0,0.0,30.0,12.0,0.0
5162,64.0,1.0,30.0,6.0,0.0
5163,78.0,10.0,15.0,10.0,0.0
5164,78.0,2.0,30.0,11.0,0.0
5165,62.0,0.0,30.0,12.0,0.0
5166,78.0,0.0,60.0,2.0,0.0
5167,74.0,1.0,60.0,2.0,0.0
5168,62.0,28.0,30.0,6.0,0.0
5169,62.0,27.0,60.0,3.0,0.0
5170,66.0,0.0,60.0,3.0,0.0
5171,76.0,10.0,15.0,10.0,0.0
5172,75.0,2.0,15.0,10.0,0.0
5173,76.0,0.0,90.0,10.0,0.0
5174,66.0,0.0,30.0,12.0,0.0
5175,74.0,1.0,30.0,11.0,0.0
5176,66.0,1.0,30.0,6.0,0.0
5177,61.0,2.0,30.0,12.0,0.0
5178,76.0,0.0,30.0,11.0,0.0
5179,73.0,2.0,60.0,2.0,0.0
5180,76.0,0.0,60.0,2.0,0.0
5181,61.0,24.0,30.0,6.0,0.0
5182,64.0,2.0,60.0,3.0,0.0
5183,61.0,0.0,60.0,3.0,0.0
5184,73.0,0.0,30.0,11.0,0.0
5185,64.0,2.0,30.0,12.0,0.0
5186,64.0,28.0,30.0,6.0,0.0
5187,76.0,2.0,30.0,11.0,0.0
5188,61.0,0.0,30.0,12.0,0.0
5189,76.0,2.0,60.0,2.0,0.0
5190,73.0,0.0,60.0,2.0,0.0
5191,61.0,23.0,30.0,6.0,0.0
5192,61.0,0.0,60.0,3.0,0.0
5193,64.0,27.0,60.0,3.0,0.0
5194,64.0,0.0,30.0,12.0,0.0
5195,73.0,1.0,30.0,11.0,0.0
5196,64.0,1.0,30.0,6.0,0.0
5197,85.0,2.0,120.0,0.0,0.0
5198,88.0,0.0,120.0,0.0,0.0
5199,57.0,0.0,30.0,12.0,0.0
5200,81.0,0.0,120.0,1.0,0.0
5201,73.0,2.0,30.0,11.0,0.0
5202,76.0,2.0,120.0,1.0,0.0
5203,57.0,1.0,360.0,4.0,0.0
5204,57.0,28.0,30.0,6.0,0.0
5205,57.0,3.0,360.0,5.0,0.0
5206,45.0,3.0,120.0,13.0,0.0
5207,33.0,24.0,120.0,14.0,0.0
5208,61.0,0.0,30.0,12.0,0.0
5209,69.0,2.0,30.0,11.0,0.0
5210,61.0,28.0,30.0,6.0,0.0
5211,73.0,2.0,30.0,11.0,0.0
5212,57.0,0.0,30.0,12.0,0.0
5213,69.0,0.0,60.0,2.0,0.0
5214,73.0,2.0,60.0,2.0,0.0
5215,57.0,24.0,30.0,6.0,0.0
5216,61.0,0.0,60.0,3.0,0.0
5217,57.0,0.0,60.0,3.0,0.0
5218,61.0,0.0,30.0,12.0,0.0
5219,69.0,0.0,30.0,11.0,0.0
5220,61.0,1.0,30.0,6.0,0.0
5221,57.0,0.0,30.0,12.0,0.0
5222,73.0,2.0,30.0,11.0,0.0
5223,69.0,0.0,60.0,2.0,0.0
5224,73.0,1.0,60.0,2.0,0.0
5225,57.0,28.0,30.0,6.0,0.0
5226,57.0,5.0,60.0,3.0,0.0
5227,61.0,0.0,60.0,3.0,0.0
5228,61.0,1.0,30.0,12.0,0.0
5229,69.0,0.0,30.0,11.0,0.0
5230,61.0,1.0,30.0,6.0,0.0
5231,74.0,10.0,15.0,10.0,0.0
5232,74.0,0.0,30.0,11.0,0.0
5233,59.0,2.0,30.0,12.0,0.0
5234,74.0,0.0,60.0,2.0,0.0
5235,71.0,1.0,60.0,2.0,0.0
5236,59.0,28.0,30.0,6.0,0.0
5237,62.0,0.0,60.0,3.0,0.0
5238,59.0,27.0,60.0,3.0,0.0
5239,73.0,10.0,15.0,10.0,0.0
5240,71.0,2.0,15.0,10.0,0.0
5241,73.0,0.0,90.0,10.0,0.0
5242,71.0,1.0,30.0,11.0,0.0
5243,62.0,0.0,30.0,12.0,0.0
5244,62.0,1.0,30.0,6.0,0.0
5245,73.0,2.0,30.0,11.0,0.0
5246,57.0,0.0,30.0,12.0,0.0
5247,73.0,0.0,60.0,2.0,0.0
5248,69.0,2.0,60.0,2.0,0.0
5249,57.0,24.0,30.0,6.0,0.0
5250,61.0,0.0,60.0,3.0,0.0
5251,57.0,2.0,60.0,3.0,0.0
5252,61.0,2.0,30.0,12.0,0.0
5253,69.0,0.0,30.0,11.0,0.0
5254,61.0,28.0,30.0,6.0,0.0
5255,57.0,2.0,30.0,12.0,0.0
5256,73.0,0.0,30.0,11.0,0.0
5257,73.0,2.0,60.0,2.0,0.0
5258,69.0,0.0,60.0,2.0,0.0
5259,57.0,23.0,30.0,6.0,0.0
5260,61.0,0.0,60.0,3.0,0.0
5261,57.0,27.0,60.0,3.0,0.0
5262,69.0,1.0,30.0,11.0,0.0
5263,61.0,0.0,30.0,12.0,0.0
5264,61.0,1.0,30.0,6.0,0.0
5265,85.0,0.0,120.0,0.0,0.0
5266,81.0,0.0,120.0,0.0,0.0
5267,73.0,2.0,120.0,1.0,0.0
5268,76.0,0.0,120.0,1.0,0.0
5269,61.0,2.0,30.0,12.0,0.0
5270,69.0,0.0,30.0,11.0,0.0
5271,57.0,1.0,720.0,4.0,0.0
5272,49.0,28.0,30.0,6.0,0.0
5273,45.0,3.0,720.0,5.0,0.0
5274,45.0,3.0,120.0,13.0,0.0
5275,33.0,24.0,120.0,14.0,0.0
5276,61.0,0.0,30.0,11.0,0.0
5277,57.0,2.0,30.0,12.0,0.0
5278,57.0,28.0,30.0,6.0,0.0
5279,69.0,2.0,30.0,11.0,0.0
5280,61.0,0.0,30.0,12.0,0.0
5281,61.0,0.0,60.0,2.0,0.0
5282,69.0,2.0,60.0,2.0,0.0
5283,49.0,24.0,30.0,6.0,0.0
5284,49.0,2.0,60.0,3.0,0.0
5285,57.0,0.0,60.0,3.0,0.0
5286,61.0,0.0,30.0,11.0,0.0
5287,57.0,0.0,30.0,12.0,0.0
5288,57.0,1.0,30.0,6.0,0.0
5289,69.0,0.0,30.0,11.0,0.0
5290,61.0,2.0,30.0,12.0,0.0
5291,69.0,0.0,60.0,2.0,0.0
5292,61.0,1.0,60.0,2.0,0.0
5293,49.0,28.0,30.0,6.0,0.0
5294,49.0,5.0,60.0,3.0,0.0
5295,57.0,0.0,60.0,3.0,0.0
5296,57.0,1.0,30.0,12.0,0.0
5297,61.0,0.0,30.0,11.0,0.0
5298,57.0,1.0,30.0,6.0,0.0
5299,81.0,2.0,120.0,0.0,0.0
5300,85.0,0.0,120.0,0.0,0.0
5301,71.0,10.0,15.0,10.0,0.0
5302,62.0,0.0,30.0,12.0,0.0
5303,73.0,0.0,120.0,1.0,0.0
5304,76.0,2.0,120.0,1.0,0.0
5305,71.0,2.0,30.0,11.0,0.0
5306,62.0,0.0,60.0,2.0,0.0
5307,71.0,1.0,60.0,2.0,0.0
5308,50.0,28.0,30.0,6.0,0.0
5309,45.0,3.0,120.0,13.0,0.0
5310,59.0,0.0,60.0,3.0,0.0
5311,50.0,27.0,60.0,3.0,0.0
5312,33.0,24.0,120.0,14.0,0.0
5313,69.0,10.0,15.0,10.0,0.0
5314,68.0,2.0,15.0,10.0,0.0
5315,69.0,0.0,90.0,10.0,0.0
5316,62.0,0.0,30.0,11.0,0.0
5317,59.0,1.0,30.0,12.0,0.0
5318,59.0,1.0,30.0,6.0,0.0
5319,69.0,2.0,30.0,11.0,0.0
5320,61.0,0.0,30.0,12.0,0.0
5321,69.0,2.0,60.0,2.0,0.0
5322,61.0,0.0,60.0,2.0,0.0
5323,49.0,24.0,30.0,6.0,0.0
5324,57.0,0.0,60.0,3.0,0.0
5325,49.0,0.0,60.0,3.0,0.0
5326,57.0,0.0,30.0,12.0,0.0
5327,61.0,0.0,30.0,11.0,0.0
5328,57.0,1.0,30.0,6.0,0.0
5329,69.0,2.0,30.0,11.0,0.0
5330,61.0,0.0,30.0,12.0,0.0
5331,69.0,0.0,60.0,2.0,0.0
5332,61.0,1.0,60.0,2.0,0.0
5333,49.0,28.0,30.0,6.0,0.0
5334,49.0,5.0,60.0,3.0,0.0
5335,57.0,0.0,60.0,3.0,0.0
5336,57.0,1.0,30.0,12.0,0.0
5337,61.0,0.0,30.0,11.0,0.0
5338,57.0,1.0,30.0,6.0,0.0
5339,81.0,0.0,120.0,0.0,0.0
5340,85.0,2.0,120.0,0.0,0.0
5341,71.0,10.0,15.0,10.0,0.0
5342,71.0,0.0,30.0,11.0,0.0
5343,76.0,0.0,120.0,1.0,0.0
5344,62.0,2.0,30.0,12.0,0.0
5345,73.0,2.0,120.0,1.0,0.0
5346,62.0,0.0,60.0,2.0,0.0
5347,71.0,1.0,60.0,2.0,0.0
5348,50.0,28.0,30.0,6.0,0.0
5349,50.0,0.0,60.0,3.0,0.0
5350,45.0,3.0,120.0,13.0,0.0
5351,59.0,27.0,60.0,3.0,0.0
5352,33.0,24.0,120.0,14.0,0.0
5353,69.0,10.0,15.0,10.0,0.0
5354,68.0,2.0,15.0,10.0,0.0
5355,69.0,0.0,90.0,10.0,0.0
5356,62.0,1.0,30.0,11.0,0.0
5357,59.0,0.0,30.0,12.0,0.0
5358,59.0,1.0,30.0,6.0,0.0
5359,61.0,2.0,30.0,12.0,0.0
5360,69.0,0.0,30.0,11.0,0.0
5361,69.0,2.0,60.0,2.0,0.0
5362,61.0,0.0,60.0,2.0,0.0
5363,49.0,24.0,30.0,6.0,0.0
5364,57.0,0.0,60.0,3.0,0.0
5365,49.0,0.0,60.0,3.0,0.0
5366,61.0,0.0,30.0,11.0,0.0
5367,57.0,0.0,30.0,12.0,0.0
5368,57.0,1.0,30.0,6.0,0.0
5369,69.0,0.0,30.0,11.0,0.0
5370,61.0,2.0,30.0,12.0,0.0
5371,61.0,0.0,60.0,2.0,0.0
5372,69.0,1.0,60.0,2.0,0.0
5373,49.0,28.0,30.0,6.0,0.0
5374,49.0,0.0,60.0,3.0,0.0
5375,57.0,5.0,60.0,3.0,0.0
5376,61.0,1.0,30.0,11.0,0.0
5377,57.0,0.0,30.0,12.0,0.0
5378,57.0,1.0,30.0,6.0,0.0
5379,71.0,10.0,15.0,10.0,0.0
5380,85.0,2.0,120.0,0.0,0.0
5381,81.0,0.0,120.0,0.0,0.0
5382,73.0,0.0,120.0,1.0,0.0
5383,71.0,0.0,30.0,11.0,0.0
5384,62.0,2.0,30.0,12.0,0.0
5385,76.0,0.0,120.0,1.0,0.0
5386,71.0,1.0,60.0,2.0,0.0
5387,62.0,0.0,60.0,2.0,0.0
5388,50.0,28.0,30.0,6.0,0.0
5389,50.0,27.0,60.0,3.0,0.0
5390,59.0,0.0,60.0,3.0,0.0
5391,45.0,3.0,120.0,13.0,0.0
5392,33.0,24.0,120.0,14.0,0.0
5393,69.0,10.0,15.0,10.0,0.0
5394,68.0,2.0,15.0,10.0,0.0
5395,69.0,0.0,90.0,10.0,0.0
5396,59.0,0.0,30.0,12.0,0.0
5397,62.0,1.0,30.0,11.0,0.0
5398,59.0,1.0,30.0,6.0,0.0
5399,69.0,2.0,30.0,11.0,0.0
5400,61.0,0.0,30.0,12.0,0.0
5401,61.0,2.0,60.0,2.0,0.0
5402,69.0,0.0,60.0,2.0,0.0
5403,49.0,24.0,30.0,6.0,0.0
5404,57.0,0.0,60.0,3.0,0.0
5405,49.0,0.0,60.0,3.0,0.0
5406,61.0,2.0,30.0,11.0,0.0
5407,57.0,0.0,30.0,12.0,0.0
5408,57.0,1.0,30.0,6.0,0.0
5409,69.0,0.0,30.0,11.0,0.0
5410,61.0,2.0,30.0,12.0,0.0
5411,61.0,2.0,60.0,2.0,0.0
5412,49.0,23.0,30.0,6.0,0.0
5413,61.0,1.0,30.0,11.0,0.0
5414,57.0,0.0,30.0,12.0,0.0
5415,57.0,1.0,30.0,6.0,0.0
5416,61.0,30.0,15.0,10.0,0.0
5417,85.0,0.0,120.0,0.0,0.0
5418,81.0,2.0,120.0,0.0,0.0
5419,76.0,0.0,120.0,1.0,0.0
5420,73.0,0.0,120.0,1.0,0.0
5421,69.0,1.0,120.0,11.0,0.0
5422,61.0,0.0,120.0,12.0,0.0
5423,57.0,1.0,120.0,4.0,0.0
5424,69.0,0.0,15.0,2.0,0.0
5425,49.0,1.0,120.0,6.0,0.0
5426,57.0,10.0,15.0,3.0,0.0
5427,49.0,0.0,15.0,3.0,0.0
5428,45.0,3.0,120.0,13.0,0.0
5429,45.0,0.0,120.0,5.0,0.0
5430,33.0,7.0,120.0,14.0,0.0
5431,64.0,30.0,15.0,10.0,0.0
5432,69.0,30.0,15.0,10.0,0.0
5433,64.0,15.0,15.0,10.0,0.0
5434,61.0,30.0,15.0,10.0,0.0
5435,64.0,30.0,15.0,10.0,0.0
5436,61.0,30.0,15.0,10.0,0.0
5437,57.0,11.0,120.0,6.0,0.0
5438,64.0,30.0,15.0,10.0,0.0
5439,69.0,30.0,15.0,10.0,0.0
5440,64.0,19.0,15.0,10.0,0.0
5441,61.0,30.0,15.0,10.0,0.0
5442,64.0,30.0,15.0,10.0,0.0
5443,61.0,30.0,15.0,10.0,0.0
5444,73.0,5.0,360.0,2.0,0.0
5445,57.0,11.0,120.0,6.0,0.0
5446,64.0,30.0,15.0,10.0,0.0
5447,69.0,30.0,15.0,10.0,0.0
5448,64.0,19.0,15.0,10.0,0.0
5449,61.0,30.0,15.0,10.0,0.0
5450,64.0,30.0,15.0,10.0,0.0
5451,61.0,30.0,15.0,10.0,0.0
5452,57.0,11.0,120.0,6.0,0.0
5453,64.0,30.0,15.0,10.0,0.0
5454,69.0,30.0,15.0,10.0,0.0
5455,64.0,19.0,15.0,10.0,0.0
5456,61.0,30.0,15.0,10.0,0.0
5457,64.0,13.0,15.0,10.0,0.0
5458,59.0,30.0,15.0,10.0,0.0
5459,76.0,15.0,360.0,0.0,0.0
5460,62.0,0.0,240.0,12.0,0.0
5461,74.0,13.0,240.0,11.0,0.0
5462,74.0,0.0,720.0,2.0,0.0
5463,71.0,2.0,720.0,2.0,0.0
5464,52.0,1.0,120.0,6.0,0.0
5465,52.0,3.0,120.0,13.0,0.0
5466,59.0,0.0,540.0,3.0,0.0
5467,62.0,10.0,540.0,3.0,0.0
5468,40.0,7.0,120.0,14.0,0.0
5469,62.0,30.0,15.0,10.0,0.0
5470,68.0,30.0,15.0,10.0,0.0
5471,62.0,19.0,15.0,10.0,0.0
5472,59.0,30.0,15.0,10.0,0.0
5473,62.0,30.0,15.0,10.0,0.0
5474,59.0,30.0,15.0,10.0,0.0
5475,52.0,1.0,120.0,6.0,0.0
5476,52.0,3.0,120.0,13.0,0.0
5477,40.0,7.0,120.0,14.0,0.0
5478,62.0,17.0,15.0,10.0,0.0
5479,68.0,30.0,15.0,10.0,0.0
5480,59.0,0.0,60.0,12.0,0.0
5481,71.0,2.0,60.0,11.0,0.0
5482,62.0,17.0,15.0,10.0,0.0
5483,59.0,22.0,15.0,10.0,0.0
5484,57.0,0.0,30.0,12.0,0.0
5485,69.0,8.0,30.0,11.0,0.0
5486,62.0,15.0,15.0,10.0,0.0
5487,59.0,30.0,15.0,10.0,0.0
5488,86.0,3.0,360.0,0.0,0.0
5489,68.0,0.0,60.0,11.0,0.0
5490,56.0,21.0,60.0,12.0,0.0
5491,52.0,1.0,120.0,6.0,0.0
5492,52.0,3.0,120.0,13.0,0.0
5493,40.0,7.0,120.0,14.0,0.0
5494,62.0,9.0,15.0,10.0,0.0
5495,68.0,30.0,15.0,10.0,0.0
5496,71.0,10.0,60.0,11.0,0.0
5497,59.0,0.0,60.0,12.0,0.0
5498,62.0,9.0,15.0,10.0,0.0
5499,59.0,30.0,15.0,10.0,0.0
5500,68.0,11.0,60.0,11.0,0.0
5501,56.0,0.0,60.0,12.0,0.0
5502,62.0,9.0,15.0,10.0,0.0
5503,59.0,30.0,15.0,10.0,0.0
5504,64.0,0.0,60.0,11.0,0.0
5505,52.0,21.0,60.0,12.0,0.0
5506,52.0,1.0,120.0,6.0,0.0
5507,59.0,15.0,180.0,3.0,0.0
5508,56.0,0.0,180.0,3.0,0.0
5509,52.0,3.0,120.0,13.0,0.0
5510,40.0,7.0,120.0,14.0,0.0
5511,62.0,9.0,15.0,10.0,0.0
5512,68.0,30.0,15.0,10.0,0.0
5513,76.0,0.0,60.0,11.0,0.0
5514,64.0,10.0,60.0,12.0,0.0
5515,62.0,9.0,15.0,10.0,0.0
5516,59.0,30.0,15.0,10.0,0.0
5517,71.0,1.0,60.0,11.0,0.0
5518,59.0,0.0,60.0,12.0,0.0
5519,62.0,9.0,15.0,10.0,0.0
5520,85.0,2.0,120.0,0.0,0.0
5521,61.0,30.0,15.0,10.0,0.0
5522,73.0,0.0,120.0,11.0,0.0
5523,61.0,2.0,120.0,12.0,0.0
5524,69.0,17.0,720.0,2.0,0.0
5525,57.0,1.0,120.0,6.0,0.0
5526,57.0,3.0,120.0,13.0,0.0
5527,57.0,0.0,120.0,3.0,0.0
5528,61.0,0.0,120.0,3.0,0.0
5529,45.0,7.0,120.0,14.0,0.0
5530,64.0,30.0,15.0,10.0,0.0
5531,69.0,30.0,15.0,10.0,0.0
5532,64.0,15.0,15.0,10.0,0.0
5533,61.0,30.0,15.0,10.0,0.0
5534,64.0,30.0,15.0,10.0,0.0
5535,61.0,30.0,15.0,10.0,0.0
5536,57.0,11.0,120.0,6.0,0.0
5537,64.0,30.0,15.0,10.0,0.0
5538,69.0,30.0,15.0,10.0,0.0
5539,64.0,19.0,15.0,10.0,0.0
5540,61.0,30.0,15.0,10.0,0.0
5541,64.0,30.0,15.0,10.0,0.0
5542,61.0,30.0,15.0,10.0,0.0
5543,73.0,0.0,360.0,2.0,0.0
5544,57.0,11.0,120.0,6.0,0.0
5545,64.0,30.0,15.0,10.0,0.0
5546,69.0,30.0,15.0,10.0,0.0
5547,64.0,19.0,15.0,10.0,0.0
5548,61.0,30.0,15.0,10.0,0.0
5549,64.0,30.0,15.0,10.0,0.0
5550,61.0,30.0,15.0,10.0,0.0
5551,57.0,11.0,120.0,6.0,0.0
5552,64.0,30.0,15.0,10.0,0.0
5553,69.0,30.0,15.0,10.0,0.0
5554,64.0,19.0,15.0,10.0,0.0
5555,61.0,30.0,15.0,10.0,0.0
5556,64.0,13.0,15.0,10.0,0.0
5557,61.0,30.0,15.0,10.0,0.0
5558,88.0,15.0,240.0,0.0,0.0
5559,73.0,0.0,360.0,1.0,0.0
5560,82.0,13.0,360.0,1.0,0.0
5561,73.0,0.0,720.0,2.0,0.0
5562,76.0,2.0,720.0,2.0,0.0
5563,54.0,1.0,120.0,6.0,0.0
5564,54.0,3.0,120.0,13.0,0.0
5565,64.0,10.0,540.0,3.0,0.0
5566,61.0,0.0,540.0,3.0,0.0
5567,42.0,7.0,120.0,14.0,0.0
5568,64.0,30.0,15.0,10.0,0.0
5569,70.0,30.0,15.0,10.0,0.0
5570,64.0,19.0,15.0,10.0,0.0
5571,61.0,30.0,15.0,10.0,0.0
5572,64.0,30.0,15.0,10.0,0.0
5573,61.0,30.0,15.0,10.0,0.0
5574,54.0,1.0,120.0,6.0,0.0
5575,54.0,3.0,120.0,13.0,0.0
5576,42.0,7.0,120.0,14.0,0.0
5577,64.0,15.0,15.0,10.0,0.0
5578,85.0,4.0,60.0,0.0,0.0
5579,70.0,30.0,15.0,10.0,0.0
5580,64.0,15.0,15.0,10.0,0.0
5581,83.0,15.0,30.0,0.0,0.0
5582,61.0,15.0,15.0,10.0,0.0
5583,64.0,17.0,15.0,10.0,0.0
5584,61.0,30.0,15.0,10.0,0.0
5585,82.0,23.0,60.0,0.0,0.0
5586,76.0,1.0,360.0,1.0,0.0
5587,85.0,0.0,360.0,1.0,0.0
5588,54.0,1.0,120.0,6.0,0.0
5589,54.0,3.0,120.0,13.0,0.0
5590,42.0,7.0,120.0,14.0,0.0
5591,64.0,7.0,15.0,10.0,0.0
5592,70.0,30.0,15.0,10.0,0.0
5593,85.0,12.0,60.0,0.0,0.0
5594,64.0,7.0,15.0,10.0,0.0
5595,61.0,30.0,15.0,10.0,0.0
5596,82.0,13.0,60.0,0.0,0.0
5597,64.0,7.0,15.0,10.0,0.0
5598,78.0,23.0,60.0,0.0,0.0
5599,61.0,30.0,15.0,10.0,0.0
5600,66.0,2.0,480.0,4.0,0.0
5601,54.0,1.0,120.0,6.0,0.0
5602,58.0,0.0,180.0,3.0,0.0
5603,54.0,3.0,120.0,13.0,0.0
5604,54.0,2.0,480.0,5.0,0.0
5605,61.0,15.0,180.0,3.0,0.0
5606,42.0,7.0,120.0,14.0,0.0
5607,64.0,7.0,15.0,10.0,0.0
5608,70.0,30.0,15.0,10.0,0.0
5609,90.0,12.0,60.0,0.0,0.0
5610,64.0,7.0,15.0,10.0,0.0
5611,85.0,5.0,60.0,0.0,0.0
5612,61.0,30.0,15.0,10.0,0.0
5613,70.0,7.0,15.0,10.0,0.0
5614,71.0,2.0,120.0,10.0,0.0
5615,87.0,17.0,15.0,0.0,0.0
5616,75.0,0.0,120.0,1.0,0.0
5617,83.0,0.0,180.0,1.0,0.0
5618,59.0,2.0,30.0,11.0,0.0
5619,75.0,1.0,120.0,2.0,0.0
5620,71.0,0.0,120.0,2.0,0.0
5621,59.0,11.0,30.0,6.0,0.0
5622,47.0,0.0,120.0,13.0,0.0
5623,59.0,0.0,120.0,3.0,0.0
5624,63.0,3.0,120.0,3.0,0.0
5625,35.0,7.0,120.0,14.0,0.0
5626,75.0,17.0,15.0,0.0,0.0
5627,75.0,2.0,30.0,11.0,0.0
5628,63.0,11.0,30.0,6.0,0.0
5629,78.0,17.0,15.0,0.0,0.0
5630,78.0,2.0,30.0,11.0,0.0
5631,66.0,11.0,30.0,6.0,0.0
5632,83.0,15.0,15.0,0.0,0.0
5633,75.0,1.0,30.0,11.0,0.0
5634,63.0,1.0,30.0,6.0,0.0
5635,87.0,17.0,15.0,0.0,0.0
5636,78.0,2.0,30.0,11.0,0.0
5637,66.0,11.0,30.0,6.0,0.0
5638,90.0,17.0,15.0,0.0,0.0
5639,75.0,2.0,30.0,11.0,0.0
5640,63.0,28.0,30.0,6.0,0.0
5641,95.0,0.0,120.0,0.0,0.0
5642,75.0,2.0,180.0,10.0,0.0
5643,80.0,2.0,30.0,11.0,0.0
5644,63.0,0.0,180.0,12.0,0.0
5645,64.0,28.0,30.0,6.0,0.0
5646,76.0,2.0,30.0,11.0,0.0
5647,68.0,28.0,30.0,6.0,0.0
5648,78.0,2.0,30.0,11.0,0.0
5649,63.0,24.0,30.0,6.0,0.0
5650,75.0,2.0,30.0,11.0,0.0
5651,66.0,28.0,30.0,6.0,0.0
5652,78.0,2.0,30.0,11.0,0.0
5653,66.0,2.0,180.0,4.0,0.0
5654,63.0,26.0,30.0,6.0,0.0
5655,54.0,2.0,180.0,5.0,0.0
5656,75.0,2.0,30.0,11.0,0.0
5657,66.0,28.0,30.0,6.0,0.0
5658,71.0,2.0,180.0,10.0,0.0
5659,59.0,0.0,180.0,12.0,0.0
5660,76.0,2.0,30.0,11.0,0.0
5661,61.0,28.0,30.0,6.0,0.0
5662,73.0,2.0,30.0,11.0,0.0
5663,64.0,28.0,30.0,6.0,0.0
5664,75.0,2.0,30.0,11.0,0.0
5665,59.0,24.0,30.0,6.0,0.0
5666,71.0,2.0,30.0,11.0,0.0
5667,63.0,28.0,30.0,6.0,0.0
5668,75.0,2.0,30.0,11.0,0.0
5669,66.0,2.0,180.0,4.0,0.0
5670,59.0,26.0,30.0,6.0,0.0
5671,54.0,2.0,180.0,5.0,0.0
5672,71.0,2.0,30.0,11.0,0.0
5673,63.0,28.0,30.0,6.0,0.0
5674,66.0,2.0,180.0,10.0,0.0
5675,54.0,0.0,180.0,12.0,0.0
5676,73.0,2.0,30.0,11.0,0.0
5677,58.0,28.0,30.0,6.0,0.0
5678,70.0,2.0,30.0,11.0,0.0
5679,61.0,28.0,30.0,6.0,0.0
5680,75.0,2.0,30.0,11.0,0.0
5681,83.0,0.0,30.0,1.0,0.0
5682,59.0,24.0,30.0,6.0,0.0
5683,85.0,2.0,30.0,1.0,0.0
5684,71.0,0.0,30.0,11.0,0.0
5685,63.0,28.0,30.0,6.0,0.0
5686,75.0,2.0,30.0,11.0,0.0
5687,87.0,0.0,30.0,1.0,0.0
5688,66.0,1.0,60.0,4.0,0.0
5689,59.0,21.0,30.0,6.0,0.0
5690,54.0,15.0,60.0,5.0,0.0
5691,71.0,1.0,30.0,11.0,0.0
5692,85.0,0.0,30.0,1.0,0.0
5693,63.0,1.0,30.0,6.0,0.0
5694,71.0,17.0,15.0,0.0,0.0
5695,75.0,2.0,30.0,11.0,0.0
5696,85.0,2.0,60.0,1.0,0.0
5697,66.0,2.0,300.0,4.0,0.0
5698,59.0,11.0,30.0,6.0,0.0
5699,47.0,3.0,120.0,13.0,0.0
5700,54.0,2.0,300.0,5.0,0.0
5701,35.0,7.0,120.0,14.0,0.0
5702,75.0,17.0,15.0,0.0,0.0
5703,71.0,0.0,30.0,11.0,0.0
5704,78.0,17.0,15.0,0.0,0.0
5705,78.0,2.0,30.0,11.0,0.0
5706,83.0,2.0,120.0,1.0,0.0
5707,63.0,11.0,15.0,6.0,0.0
5708,83.0,17.0,15.0,0.0,0.0
5709,75.0,2.0,30.0,11.0,0.0
5710,66.0,1.0,30.0,6.0,0.0
5711,87.0,17.0,15.0,0.0,0.0
5712,78.0,2.0,30.0,11.0,0.0
5713,63.0,11.0,30.0,6.0,0.0
5714,90.0,17.0,15.0,0.0,0.0
5715,75.0,0.0,30.0,11.0,0.0
5716,66.0,28.0,30.0,6.0,0.0
5717,75.0,2.0,180.0,10.0,0.0
5718,95.0,0.0,120.0,0.0,0.0
5719,80.0,2.0,30.0,11.0,0.0
5720,63.0,0.0,180.0,12.0,0.0
5721,64.0,28.0,30.0,6.0,0.0
5722,76.0,2.0,30.0,11.0,0.0
5723,68.0,28.0,30.0,6.0,0.0
5724,78.0,2.0,30.0,11.0,0.0
5725,63.0,24.0,30.0,6.0,0.0
5726,75.0,2.0,30.0,11.0,0.0
5727,66.0,28.0,30.0,6.0,0.0
5728,78.0,2.0,30.0,11.0,0.0
5729,66.0,2.0,180.0,4.0,0.0
5730,63.0,26.0,30.0,6.0,0.0
5731,54.0,2.0,180.0,5.0,0.0
5732,75.0,2.0,30.0,11.0,0.0
5733,66.0,28.0,30.0,6.0,0.0
5734,71.0,2.0,180.0,10.0,0.0
5735,76.0,2.0,30.0,11.0,0.0
5736,59.0,0.0,180.0,12.0,0.0
5737,61.0,28.0,30.0,6.0,0.0
5738,73.0,2.0,30.0,11.0,0.0
5739,64.0,28.0,30.0,6.0,0.0
5740,75.0,2.0,30.0,11.0,0.0
5741,59.0,24.0,30.0,6.0,0.0
5742,71.0,2.0,30.0,11.0,0.0
5743,63.0,28.0,30.0,6.0,0.0
5744,75.0,2.0,30.0,11.0,0.0
5745,66.0,2.0,180.0,4.0,0.0
5746,59.0,26.0,30.0,6.0,0.0
5747,54.0,2.0,180.0,5.0,0.0
5748,71.0,2.0,30.0,11.0,0.0
5749,63.0,28.0,30.0,6.0,0.0
5750,66.0,2.0,180.0,10.0,0.0
5751,54.0,0.0,180.0,12.0,0.0
5752,73.0,2.0,30.0,11.0,0.0
5753,58.0,28.0,30.0,6.0,0.0
5754,70.0,2.0,30.0,11.0,0.0
5755,61.0,28.0,30.0,6.0,0.0
5756,83.0,2.0,30.0,1.0,0.0
5757,75.0,0.0,30.0,11.0,0.0
5758,59.0,24.0,30.0,6.0,0.0
5759,71.0,0.0,30.0,11.0,0.0
5760,85.0,2.0,30.0,1.0,0.0
5761,63.0,28.0,30.0,6.0,0.0
5762,87.0,0.0,30.0,1.0,0.0
5763,75.0,2.0,30.0,11.0,0.0
5764,66.0,1.0,60.0,4.0,0.0
5765,59.0,21.0,30.0,6.0,0.0
5766,54.0,12.0,60.0,5.0,0.0
5767,83.0,0.0,30.0,1.0,0.0
5768,71.0,1.0,30.0,11.0,0.0
5769,63.0,1.0,30.0,6.0,0.0
5770,66.0,7.0,15.0,0.0,0.0
5771,82.0,3.0,15.0,1.0,0.0
5772,76.0,2.0,30.0,11.0,0.0
5773,66.0,2.0,300.0,4.0,0.0
5774,61.0,11.0,30.0,6.0,0.0
5775,54.0,0.0,300.0,5.0,0.0
5776,54.0,3.0,120.0,13.0,0.0
5777,42.0,7.0,120.0,14.0,0.0
5778,83.0,10.0,15.0,1.0,0.0
5779,85.0,0.0,15.0,1.0,0.0
5780,73.0,17.0,15.0,0.0,0.0
5781,73.0,2.0,30.0,11.0,0.0
5782,83.0,0.0,30.0,1.0,0.0
5783,64.0,11.0,30.0,6.0,0.0
5784,76.0,17.0,15.0,0.0,0.0
5785,76.0,2.0,30.0,11.0,0.0
5786,82.0,2.0,120.0,1.0,0.0
5787,61.0,11.0,30.0,6.0,0.0
5788,78.0,17.0,15.0,0.0,0.0
5789,73.0,2.0,30.0,11.0,0.0
5790,64.0,1.0,30.0,6.0,0.0
5791,85.0,17.0,15.0,0.0,0.0
5792,76.0,2.0,30.0,11.0,0.0
5793,61.0,11.0,30.0,6.0,0.0
5794,88.0,17.0,15.0,0.0,0.0
5795,73.0,0.0,30.0,11.0,0.0
5796,64.0,28.0,30.0,6.0,0.0
5797,76.0,2.0,180.0,10.0,0.0
5798,90.0,2.0,120.0,0.0,0.0
5799,64.0,2.0,180.0,12.0,0.0
5800,78.0,2.0,30.0,11.0,0.0
5801,63.0,28.0,30.0,6.0,0.0
5802,75.0,2.0,30.0,11.0,0.0
5803,66.0,28.0,30.0,6.0,0.0
5804,76.0,2.0,30.0,11.0,0.0
5805,61.0,24.0,30.0,6.0,0.0
5806,73.0,2.0,30.0,11.0,0.0
5807,64.0,28.0,30.0,6.0,0.0
5808,76.0,2.0,30.0,11.0,0.0
5809,66.0,2.0,180.0,4.0,0.0
5810,61.0,26.0,30.0,6.0,0.0
5811,54.0,2.0,180.0,5.0,0.0
5812,73.0,0.0,30.0,11.0,0.0
5813,64.0,28.0,30.0,6.0,0.0
5814,73.0,2.0,180.0,10.0,0.0
5815,75.0,2.0,30.0,11.0,0.0
5816,61.0,0.0,180.0,12.0,0.0
5817,59.0,28.0,30.0,6.0,0.0
5818,71.0,2.0,30.0,11.0,0.0
5819,63.0,28.0,30.0,6.0,0.0
5820,73.0,2.0,30.0,11.0,0.0
5821,58.0,24.0,30.0,6.0,0.0
5822,70.0,2.0,30.0,11.0,0.0
5823,61.0,28.0,30.0,6.0,0.0
5824,73.0,2.0,30.0,11.0,0.0
5825,66.0,2.0,180.0,4.0,0.0
5826,58.0,26.0,30.0,6.0,0.0
5827,54.0,2.0,180.0,5.0,0.0
5828,70.0,2.0,30.0,11.0,0.0
5829,61.0,28.0,30.0,6.0,0.0
5830,66.0,2.0,180.0,10.0,0.0
5831,54.0,0.0,180.0,12.0,0.0
5832,71.0,2.0,30.0,11.0,0.0
5833,56.0,28.0,30.0,6.0,0.0
5834,68.0,2.0,30.0,11.0,0.0
5835,59.0,28.0,30.0,6.0,0.0
5836,73.0,0.0,30.0,11.0,0.0
5837,85.0,2.0,30.0,1.0,0.0
5838,58.0,24.0,30.0,6.0,0.0
5839,70.0,2.0,30.0,11.0,0.0
5840,87.0,0.0,30.0,1.0,0.0
5841,61.0,28.0,30.0,6.0,0.0
5842,73.0,0.0,30.0,11.0,0.0
5843,88.0,2.0,30.0,1.0,0.0
5844,66.0,1.0,60.0,4.0,0.0
5845,58.0,21.0,30.0,6.0,0.0
5846,54.0,15.0,60.0,5.0,0.0
5847,70.0,1.0,30.0,11.0,0.0
5848,87.0,0.0,30.0,1.0,0.0
5849,61.0,1.0,30.0,6.0,0.0
5850,66.0,17.0,15.0,0.0,0.0
5851,73.0,2.0,30.0,11.0,0.0
5852,87.0,0.0,60.0,1.0,0.0
5853,66.0,2.0,300.0,4.0,0.0
5854,58.0,11.0,30.0,6.0,0.0
5855,54.0,3.0,120.0,13.0,0.0
5856,54.0,0.0,300.0,5.0,0.0
5857,42.0,7.0,120.0,14.0,0.0
5858,73.0,17.0,15.0,0.0,0.0
5859,70.0,2.0,30.0,11.0,0.0
5860,76.0,17.0,15.0,0.0,0.0
5861,76.0,2.0,30.0,11.0,0.0
5862,85.0,0.0,120.0,1.0,0.0
5863,61.0,11.0,15.0,6.0,0.0
5864,78.0,17.0,15.0,0.0,0.0
5865,73.0,2.0,30.0,11.0,0.0
5866,64.0,1.0,30.0,6.0,0.0
5867,85.0,17.0,15.0,0.0,0.0
5868,76.0,2.0,30.0,11.0,0.0
5869,61.0,11.0,30.0,6.0,0.0
5870,88.0,17.0,15.0,0.0,0.0
5871,73.0,2.0,30.0,11.0,0.0
5872,64.0,28.0,30.0,6.0,0.0
5873,76.0,2.0,180.0,10.0,0.0
5874,90.0,2.0,120.0,0.0,0.0
5875,78.0,2.0,30.0,11.0,0.0
5876,64.0,0.0,180.0,12.0,0.0
5877,63.0,28.0,30.0,6.0,0.0
5878,75.0,2.0,30.0,11.0,0.0
5879,66.0,28.0,30.0,6.0,0.0
5880,76.0,2.0,30.0,11.0,0.0
5881,61.0,24.0,30.0,6.0,0.0
5882,73.0,2.0,30.0,11.0,0.0
5883,64.0,28.0,30.0,6.0,0.0
5884,75.0,2.0,30.0,11.0,0.0
5885,66.0,2.0,180.0,4.0,0.0
5886,61.0,26.0,30.0,6.0,0.0
5887,54.0,2.0,180.0,5.0,0.0
5888,71.0,2.0,30.0,11.0,0.0
5889,64.0,28.0,30.0,6.0,0.0
5890,73.0,2.0,180.0,10.0,0.0
5891,73.0,2.0,30.0,11.0,0.0
5892,61.0,2.0,180.0,12.0,0.0
5893,58.0,28.0,30.0,6.0,0.0
5894,70.0,2.0,30.0,11.0,0.0
5895,61.0,28.0,30.0,6.0,0.0
5896,71.0,2.0,30.0,11.0,0.0
5897,56.0,24.0,30.0,6.0,0.0
5898,68.0,2.0,30.0,11.0,0.0
5899,59.0,28.0,30.0,6.0,0.0
5900,70.0,2.0,30.0,11.0,0.0
5901,66.0,2.0,180.0,4.0,0.0
5902,54.0,26.0,30.0,6.0,0.0
5903,54.0,2.0,180.0,5.0,0.0
5904,66.0,0.0,30.0,11.0,0.0
5905,58.0,28.0,30.0,6.0,0.0
5906,66.0,2.0,180.0,10.0,0.0
5907,68.0,2.0,30.0,11.0,0.0
5908,54.0,1.0,180.0,12.0,0.0
5909,52.0,28.0,30.0,6.0,0.0
5910,64.0,2.0,30.0,11.0,0.0
5911,56.0,28.0,30.0,6.0,0.0
5912,85.0,0.0,60.0,0.0,0.0
5913,66.0,2.0,30.0,11.0,0.0
5914,51.0,24.0,30.0,6.0,0.0
5915,63.0,2.0,30.0,11.0,0.0
5916,54.0,26.0,30.0,6.0,0.0
5917,87.0,2.0,30.0,0.0,0.0
5918,64.0,2.0,30.0,11.0,0.0
5919,66.0,1.0,60.0,4.0,0.0
5920,49.0,21.0,30.0,6.0,0.0
5921,54.0,32.0,60.0,5.0,0.0
5922,88.0,0.0,30.0,0.0,0.0
5923,61.0,0.0,30.0,11.0,0.0
5924,52.0,1.0,30.0,6.0,0.0
5925,90.0,2.0,210.0,0.0,0.0
5926,66.0,2.0,30.0,11.0,0.0
5927,59.0,1.0,1560.0,2.0,0.0
5928,71.0,0.0,1560.0,2.0,0.0
5929,51.0,28.0,30.0,6.0,0.0
5930,54.0,0.0,360.0,3.0,0.0
5931,51.0,27.0,360.0,3.0,0.0
5932,63.0,2.0,30.0,11.0,0.0
5933,47.0,28.0,30.0,6.0,0.0
5934,66.0,2.0,30.0,11.0,0.0
5935,51.0,28.0,30.0,6.0,0.0
5936,63.0,2.0,30.0,11.0,0.0
5937,47.0,28.0,30.0,6.0,0.0
5938,66.0,2.0,30.0,11.0,0.0
5939,51.0,28.0,30.0,6.0,0.0
5940,63.0,2.0,30.0,11.0,0.0
5941,47.0,26.0,30.0,6.0,0.0
5942,78.0,2.0,180.0,10.0,0.0
5943,66.0,3.0,180.0,12.0,0.0
5944,66.0,2.0,30.0,11.0,0.0
5945,51.0,26.0,30.0,6.0,0.0
5946,83.0,2.0,30.0,0.0,0.0
5947,63.0,2.0,30.0,11.0,0.0
5948,47.0,26.0,30.0,6.0,0.0
5949,87.0,2.0,30.0,0.0,0.0
5950,66.0,2.0,30.0,11.0,0.0
5951,51.0,26.0,30.0,6.0,0.0
5952,90.0,2.0,30.0,0.0,0.0
5953,63.0,2.0,30.0,11.0,0.0
5954,47.0,26.0,30.0,6.0,0.0
5955,95.0,2.0,30.0,0.0,0.0
5956,66.0,2.0,30.0,11.0,0.0
5957,51.0,21.0,30.0,6.0,0.0
5958,90.0,2.0,30.0,0.0,0.0
5959,63.0,2.0,30.0,11.0,0.0
5960,47.0,1.0,30.0,6.0,0.0
5961,92.0,2.0,210.0,0.0,0.0
5962,71.0,2.0,180.0,10.0,0.0
5963,68.0,2.0,30.0,11.0,0.0
5964,59.0,0.0,180.0,12.0,0.0
5965,52.0,28.0,30.0,6.0,0.0
5966,52.0,32.0,360.0,3.0,0.0
5967,56.0,0.0,360.0,3.0,0.0
5968,64.0,2.0,30.0,11.0,0.0
5969,47.0,28.0,30.0,6.0,0.0
5970,68.0,2.0,30.0,11.0,0.0
5971,52.0,28.0,30.0,6.0,0.0
5972,64.0,2.0,30.0,11.0,0.0
5973,47.0,28.0,30.0,6.0,0.0
5974,68.0,2.0,30.0,11.0,0.0
5975,52.0,26.0,30.0,6.0,0.0
5976,64.0,2.0,30.0,11.0,0.0
5977,47.0,26.0,30.0,6.0,0.0
5978,80.0,2.0,180.0,10.0,0.0
5979,68.0,0.0,180.0,12.0,0.0
5980,68.0,2.0,30.0,11.0,0.0
5981,52.0,26.0,30.0,6.0,0.0
5982,83.0,2.0,30.0,0.0,0.0
5983,64.0,2.0,30.0,11.0,0.0
5984,47.0,26.0,30.0,6.0,0.0
5985,88.0,2.0,30.0,0.0,0.0
5986,68.0,2.0,30.0,11.0,0.0
5987,52.0,26.0,30.0,6.0,0.0
5988,92.0,2.0,30.0,0.0,0.0
5989,64.0,2.0,30.0,11.0,0.0
5990,47.0,26.0,30.0,6.0,0.0
5991,95.0,2.0,30.0,0.0,0.0
5992,68.0,2.0,30.0,11.0,0.0
5993,52.0,21.0,30.0,6.0,0.0
5994,92.0,0.0,30.0,0.0,0.0
5995,64.0,2.0,30.0,11.0,0.0
5996,47.0,1.0,30.0,6.0,0.0
5997,90.0,2.0,120.0,0.0,0.0
5998,78.0,2.0,210.0,1.0,0.0
5999,66.0,2.0,30.0,11.0,0.0
6000,51.0,28.0,30.0,6.0,0.0
6001,51.0,27.0,360.0,3.0,0.0
6002,54.0,0.0,360.0,3.0,0.0
6003,63.0,2.0,30.0,11.0,0.0
6004,47.0,28.0,30.0,6.0,0.0
6005,66.0,2.0,30.0,11.0,0.0
6006,51.0,26.0,30.0,6.0,0.0
6007,63.0,2.0,30.0,11.0,0.0
6008,47.0,28.0,30.0,6.0,0.0
6009,66.0,2.0,30.0,11.0,0.0
6010,51.0,28.0,30.0,6.0,0.0
6011,63.0,2.0,30.0,11.0,0.0
6012,47.0,28.0,30.0,6.0,0.0
6013,78.0,2.0,180.0,10.0,0.0
6014,66.0,0.0,30.0,11.0,0.0
6015,66.0,3.0,180.0,12.0,0.0
6016,51.0,28.0,30.0,6.0,0.0
6017,63.0,2.0,30.0,11.0,0.0
6018,71.0,0.0,30.0,1.0,0.0
6019,47.0,28.0,30.0,6.0,0.0
6020,66.0,2.0,30.0,11.0,0.0
6021,75.0,0.0,30.0,1.0,0.0
6022,51.0,28.0,30.0,6.0,0.0
6023,63.0,0.0,30.0,11.0,0.0
6024,78.0,2.0,30.0,1.0,0.0
6025,47.0,28.0,30.0,6.0,0.0
6026,66.0,2.0,30.0,11.0,0.0
6027,83.0,0.0,30.0,1.0,0.0
6028,51.0,23.0,30.0,6.0,0.0
6029,78.0,0.0,30.0,1.0,0.0
6030,63.0,2.0,30.0,11.0,0.0
6031,47.0,1.0,30.0,6.0,0.0
6032,71.0,2.0,180.0,10.0,0.0
6033,68.0,2.0,30.0,11.0,0.0
6034,80.0,2.0,210.0,1.0,0.0
6035,59.0,0.0,180.0,12.0,0.0
6036,52.0,28.0,30.0,6.0,0.0
6037,56.0,60.0,360.0,3.0,0.0
6038,52.0,0.0,360.0,3.0,0.0
6039,64.0,2.0,30.0,11.0,0.0
6040,47.0,28.0,30.0,6.0,0.0
6041,68.0,2.0,30.0,11.0,0.0
6042,52.0,28.0,30.0,6.0,0.0
6043,64.0,2.0,30.0,11.0,0.0
6044,47.0,28.0,30.0,6.0,0.0
6045,68.0,2.0,30.0,11.0,0.0
6046,52.0,26.0,30.0,6.0,0.0
6047,64.0,2.0,30.0,11.0,0.0
6048,47.0,28.0,30.0,6.0,0.0
6049,80.0,2.0,180.0,10.0,0.0
6050,68.0,0.0,30.0,11.0,0.0
6051,68.0,0.0,180.0,12.0,0.0
6052,52.0,28.0,30.0,6.0,0.0
6053,71.0,0.0,30.0,1.0,0.0
6054,64.0,2.0,30.0,11.0,0.0
6055,47.0,28.0,30.0,6.0,0.0
6056,76.0,0.0,30.0,1.0,0.0
6057,68.0,2.0,30.0,11.0,0.0
6058,52.0,28.0,30.0,6.0,0.0
6059,80.0,2.0,30.0,1.0,0.0
6060,64.0,0.0,30.0,11.0,0.0
6061,47.0,28.0,30.0,6.0,0.0
6062,68.0,2.0,30.0,11.0,0.0
6063,83.0,0.0,30.0,1.0,0.0
6064,52.0,21.0,30.0,6.0,0.0
6065,80.0,0.0,30.0,1.0,0.0
6066,64.0,2.0,30.0,11.0,0.0
6067,47.0,1.0,30.0,6.0,0.0
6068,78.0,2.0,180.0,10.0,0.0
6069,66.0,60.0,180.0,11.0,0.0
6070,78.0,1.0,120.0,1.0,0.0
6071,59.0,0.0,360.0,12.0,0.0
6072,51.0,1.0,120.0,6.0,0.0
6073,54.0,0.0,120.0,3.0,0.0
6074,51.0,3.0,120.0,13.0,0.0
6075,51.0,0.0,120.0,3.0,0.0
6076,39.0,22.0,120.0,14.0,0.0
6077,83.0,30.0,30.0,0.0,0.0
6078,87.0,30.0,30.0,0.0,0.0
6079,90.0,2.0,30.0,0.0,0.0
6080,87.0,25.0,30.0,0.0,0.0
6081,83.0,5.0,30.0,0.0,0.0
6082,80.0,2.0,180.0,10.0,0.0
6083,89.0,2.0,180.0,0.0,0.0
6084,68.0,28.0,180.0,11.0,0.0
6085,49.0,1.0,120.0,6.0,0.0
6086,49.0,3.0,120.0,13.0,0.0
6087,37.0,24.0,120.0,14.0,0.0
6088,83.0,30.0,30.0,1.0,0.0
6089,80.0,30.0,30.0,1.0,0.0
6090,83.0,2.0,30.0,1.0,0.0
6091,85.0,23.0,30.0,1.0,0.0
6092,83.0,3.0,30.0,1.0,0.0
6093,88.0,30.0,30.0,0.0,0.0
6094,82.0,2.0,180.0,10.0,0.0
6095,70.0,0.0,180.0,11.0,0.0
6096,82.0,0.0,180.0,1.0,0.0
6097,61.0,60.0,180.0,12.0,0.0
6098,66.0,2.0,360.0,4.0,0.0
6099,54.0,1.0,120.0,6.0,0.0
6100,54.0,30.0,360.0,5.0,0.0
6101,54.0,3.0,120.0,13.0,0.0
6102,42.0,22.0,120.0,14.0,0.0
6103,82.0,30.0,30.0,0.0,0.0
6104,85.0,30.0,30.0,0.0,0.0
6105,88.0,4.0,30.0,0.0,0.0
6106,85.0,25.0,30.0,0.0,0.0
6107,82.0,5.0,30.0,0.0,0.0
6108,87.0,2.0,180.0,0.0,0.0
6109,83.0,0.0,180.0,10.0,0.0
6110,71.0,0.0,180.0,11.0,0.0
6111,63.0,0.0,180.0,12.0,0.0
6112,47.0,1.0,120.0,6.0,0.0
6113,47.0,3.0,120.0,13.0,0.0
6114,35.0,24.0,120.0,14.0,0.0
6115,78.0,30.0,30.0,1.0,0.0
6116,75.0,30.0,30.0,1.0,0.0
6117,78.0,2.0,30.0,1.0,0.0
6118,83.0,23.0,30.0,1.0,0.0
6119,78.0,1.0,30.0,1.0,0.0
6120,73.0,2.0,120.0,10.0,0.0
6121,85.0,30.0,30.0,0.0,0.0
6122,80.0,3.0,120.0,1.0,0.0
6123,64.0,0.0,120.0,12.0,0.0
6124,68.0,1.0,120.0,11.0,0.0
6125,64.0,1.0,120.0,4.0,0.0
6126,52.0,1.0,120.0,6.0,0.0
6127,64.0,0.0,120.0,5.0,0.0
6128,52.0,3.0,120.0,13.0,0.0
6129,40.0,22.0,120.0,14.0,0.0
6130,84.0,30.0,30.0,0.0,0.0
6131,85.0,27.0,30.0,0.0,0.0
6132,87.0,0.0,30.0,0.0,0.0
6133,88.0,2.0,30.0,0.0,0.0
6134,85.0,28.0,30.0,1.0,0.0
6135,87.0,2.0,30.0,0.0,0.0
6136,84.0,28.0,30.0,1.0,0.0
6137,88.0,2.0,30.0,0.0,0.0
6138,85.0,28.0,30.0,1.0,0.0
6139,87.0,2.0,30.0,0.0,0.0
6140,84.0,28.0,30.0,1.0,0.0
6141,88.0,2.0,30.0,0.0,0.0
6142,85.0,28.0,30.0,1.0,0.0
6143,90.0,2.0,30.0,0.0,0.0
6144,87.0,28.0,30.0,1.0,0.0
6145,92.0,2.0,30.0,0.0,0.0
6146,88.0,23.0,30.0,1.0,0.0
6147,90.0,2.0,30.0,0.0,0.0
6148,87.0,33.0,30.0,1.0,0.0
6149,92.0,2.0,30.0,0.0,0.0
6150,88.0,58.0,30.0,1.0,0.0
6151,90.0,2.0,30.0,0.0,0.0
6152,87.0,58.0,30.0,1.0,0.0
6153,88.0,2.0,30.0,0.0,0.0
6154,85.0,58.0,30.0,1.0,0.0
6155,92.0,2.0,30.0,0.0,0.0
6156,88.0,58.0,30.0,1.0,0.0
6157,88.0,2.0,30.0,0.0,0.0
6158,64.0,2.0,60.0,10.0,0.0
6159,85.0,23.0,30.0,1.0,0.0
6160,71.0,2.0,60.0,11.0,0.0
6161,52.0,0.0,60.0,12.0,0.0
6162,59.0,0.0,60.0,11.0,0.0
6163,52.0,1.0,60.0,6.0,0.0
6164,52.0,3.0,60.0,13.0,0.0
6165,40.0,27.0,60.0,14.0,0.0
6166,87.0,2.0,30.0,0.0,0.0
6167,65.0,2.0,60.0,10.0,0.0
6168,53.0,0.0,60.0,12.0,0.0
6169,71.0,2.0,60.0,11.0,0.0
6170,83.0,23.0,30.0,1.0,0.0
6171,59.0,0.0,60.0,11.0,0.0
6172,53.0,1.0,60.0,6.0,0.0
6173,53.0,3.0,60.0,13.0,0.0
6174,41.0,7.0,60.0,14.0,0.0
6175,87.0,10.0,15.0,0.0,0.0
6176,66.0,0.0,120.0,10.0,0.0
6177,71.0,0.0,120.0,11.0,0.0
6178,54.0,2.0,120.0,12.0,0.0
6179,59.0,0.0,120.0,11.0,0.0
6180,54.0,1.0,120.0,6.0,0.0
6181,54.0,3.0,120.0,13.0,0.0
6182,42.0,2.0,120.0,14.0,0.0
6183,85.0,10.0,15.0,0.0,0.0
6184,87.0,10.0,15.0,0.0,0.0
6185,85.0,10.0,15.0,0.0,0.0
6186,87.0,10.0,15.0,0.0,0.0
6187,85.0,10.0,15.0,0.0,0.0
6188,87.0,10.0,15.0,0.0,0.0
6189,85.0,10.0,15.0,0.0,0.0
6190,87.0,10.0,15.0,0.0,0.0
6191,85.0,10.0,15.0,0.0,0.0
6192,87.0,10.0,15.0,0.0,0.0
6193,85.0,2.0,15.0,0.0,0.0
6194,87.0,10.0,15.0,0.0,0.0
6195,85.0,10.0,15.0,0.0,0.0
6196,87.0,10.0,15.0,0.0,0.0
6197,85.0,10.0,15.0,0.0,0.0
6198,87.0,10.0,15.0,0.0,0.0
6199,85.0,10.0,15.0,0.0,0.0
6200,87.0,10.0,15.0,0.0,0.0
6201,85.0,10.0,15.0,0.0,0.0
6202,87.0,10.0,15.0,0.0,0.0
6203,85.0,10.0,15.0,0.0,0.0
6204,87.0,10.0,15.0,0.0,0.0
6205,85.0,10.0,15.0,0.0,0.0
6206,87.0,10.0,15.0,0.0,0.0
6207,85.0,10.0,15.0,0.0,0.0
6208,87.0,10.0,15.0,0.0,0.0
6209,85.0,10.0,15.0,0.0,0.0
6210,87.0,10.0,15.0,0.0,0.0
6211,85.0,10.0,15.0,0.0,0.0
6212,87.0,10.0,15.0,0.0,0.0
6213,59.0,2.0,60.0,12.0,0.0
6214,59.0,1.0,60.0,6.0,0.0
6215,85.0,10.0,15.0,0.0,0.0
6216,87.0,10.0,15.0,0.0,0.0
6217,85.0,10.0,15.0,0.0,0.0
6218,87.0,7.0,15.0,0.0,0.0
6219,85.0,10.0,15.0,0.0,0.0
6220,87.0,2.0,15.0,0.0,0.0
6221,59.0,2.0,15.0,12.0,0.0
6222,64.0,0.0,360.0,11.0,0.0
6223,66.0,0.0,360.0,11.0,0.0
6224,78.0,5.0,15.0,1.0,0.0
6225,59.0,1.0,15.0,6.0,0.0
6226,54.0,0.0,360.0,13.0,0.0
6227,42.0,117.0,360.0,14.0,0.0
6228,85.0,2.0,15.0,0.0,0.0
6229,76.0,8.0,15.0,1.0,0.0
6230,58.0,0.0,60.0,12.0,0.0
6231,58.0,6.0,60.0,6.0,0.0
6232,87.0,2.0,15.0,0.0,0.0
6233,78.0,8.0,15.0,1.0,0.0
6234,85.0,2.0,15.0,0.0,0.0
6235,76.0,8.0,15.0,1.0,0.0
6236,87.0,2.0,15.0,0.0,0.0
6237,78.0,8.0,15.0,1.0,0.0
6238,85.0,2.0,15.0,0.0,0.0
6239,76.0,2.0,15.0,1.0,0.0
6240,87.0,2.0,15.0,0.0,0.0
6241,78.0,8.0,15.0,1.0,0.0
6242,56.0,2.0,60.0,12.0,0.0
6243,56.0,6.0,60.0,6.0,0.0
6244,85.0,2.0,15.0,0.0,0.0
6245,76.0,8.0,15.0,1.0,0.0
6246,87.0,2.0,15.0,0.0,0.0
6247,78.0,8.0,15.0,1.0,0.0
6248,85.0,2.0,15.0,0.0,0.0
6249,76.0,8.0,15.0,1.0,0.0
6250,87.0,2.0,15.0,0.0,0.0
6251,78.0,8.0,15.0,1.0,0.0
6252,85.0,2.0,15.0,0.0,0.0
6253,76.0,0.0,15.0,1.0,0.0
6254,87.0,2.0,15.0,0.0,0.0
6255,78.0,8.0,15.0,1.0,0.0
6256,54.0,2.0,60.0,12.0,0.0
6257,54.0,1.0,60.0,6.0,0.0
6258,85.0,2.0,15.0,0.0,0.0
6259,76.0,8.0,15.0,1.0,0.0
6260,87.0,2.0,15.0,0.0,0.0
6261,78.0,8.0,15.0,1.0,0.0
6262,85.0,2.0,15.0,0.0,0.0
6263,76.0,8.0,15.0,1.0,0.0
6264,87.0,2.0,15.0,0.0,0.0
6265,78.0,5.0,15.0,1.0,0.0
6266,85.0,2.0,15.0,0.0,0.0
6267,76.0,8.0,15.0,1.0,0.0
6268,87.0,2.0,15.0,0.0,0.0
6269,78.0,8.0,15.0,1.0,0.0
6270,54.0,0.0,60.0,12.0,0.0
6271,54.0,6.0,60.0,6.0,0.0
6272,85.0,2.0,15.0,0.0,0.0
6273,76.0,8.0,15.0,1.0,0.0
6274,87.0,2.0,15.0,0.0,0.0
6275,78.0,8.0,15.0,1.0,0.0
6276,85.0,2.0,15.0,0.0,0.0
6277,76.0,8.0,15.0,1.0,0.0
6278,87.0,2.0,15.0,0.0,0.0
6279,78.0,8.0,15.0,1.0,0.0
6280,85.0,2.0,15.0,0.0,0.0
6281,76.0,2.0,15.0,1.0,0.0
6282,87.0,2.0,15.0,0.0,0.0
6283,56.0,2.0,60.0,12.0,0.0
6284,78.0,8.0,15.0,1.0,0.0
6285,56.0,6.0,60.0,6.0,0.0
6286,85.0,2.0,15.0,0.0,0.0
6287,76.0,8.0,15.0,1.0,0.0
6288,87.0,2.0,15.0,0.0,0.0
6289,78.0,8.0,15.0,1.0,0.0
6290,85.0,2.0,15.0,0.0,0.0
6291,76.0,8.0,15.0,1.0,0.0
6292,87.0,2.0,15.0,0.0,0.0
6293,78.0,8.0,15.0,1.0,0.0
6294,85.0,2.0,15.0,0.0,0.0
6295,76.0,0.0,15.0,1.0,0.0
6296,87.0,2.0,15.0,0.0,0.0
6297,78.0,8.0,15.0,1.0,0.0
6298,58.0,2.0,60.0,12.0,0.0
6299,58.0,1.0,60.0,6.0,0.0
6300,85.0,2.0,15.0,0.0,0.0
6301,76.0,8.0,15.0,1.0,0.0
6302,87.0,2.0,15.0,0.0,0.0
6303,78.0,8.0,15.0,1.0,0.0
6304,85.0,2.0,15.0,0.0,0.0
6305,76.0,8.0,15.0,1.0,0.0
6306,87.0,2.0,15.0,0.0,0.0
6307,78.0,5.0,15.0,1.0,0.0
6308,85.0,2.0,15.0,0.0,0.0
6309,76.0,1.0,15.0,1.0,0.0
6310,83.0,2.0,120.0,0.0,0.0
6311,66.0,0.0,360.0,11.0,0.0
6312,63.0,0.0,360.0,11.0,0.0
6313,75.0,120.0,120.0,1.0,0.0
6314,59.0,2.0,240.0,12.0,0.0
6315,59.0,58.0,240.0,6.0,0.0
6316,59.0,3.0,360.0,13.0,0.0
6317,47.0,12.0,360.0,14.0,0.0
6318,61.0,2.0,60.0,12.0,0.0
6319,61.0,51.0,60.0,6.0,0.0
6320,71.0,2.0,60.0,10.0,0.0
6321,63.0,2.0,60.0,12.0,0.0
6322,63.0,1.0,60.0,6.0,0.0
6323,71.0,2.0,15.0,10.0,0.0
6324,64.0,3.0,300.0,11.0,0.0
6325,66.0,2.0,15.0,12.0,0.0
6326,66.0,0.0,300.0,11.0,0.0
6327,66.0,1.0,360.0,4.0,0.0
6328,66.0,41.0,15.0,6.0,0.0
6329,54.0,0.0,360.0,5.0,0.0
6330,54.0,3.0,360.0,13.0,0.0
6331,42.0,14.0,360.0,14.0,0.0
6332,70.0,60.0,60.0,10.0,0.0
6333,64.0,2.0,120.0,12.0,0.0
6334,64.0,51.0,120.0,6.0,0.0
6335,68.0,2.0,60.0,10.0,0.0
6336,66.0,7.0,60.0,10.0,0.0
6337,63.0,2.0,60.0,12.0,0.0
6338,63.0,56.0,60.0,6.0,0.0
6339,66.0,57.0,60.0,10.0,0.0
6340,61.0,2.0,120.0,12.0,0.0
6341,61.0,53.0,120.0,6.0,0.0
6342,68.0,2.0,60.0,10.0,0.0
6343,70.0,0.0,60.0,10.0,0.0
6344,66.0,1.0,60.0,12.0,0.0
6345,78.0,0.0,60.0,11.0,0.0
6346,66.0,1.0,60.0,6.0,0.0
6347,71.0,2.0,180.0,10.0,0.0
6348,62.0,2.0,180.0,12.0,0.0
6349,79.0,45.0,15.0,11.0,0.0
6350,62.0,2.0,360.0,4.0,0.0
6351,62.0,13.0,180.0,6.0,0.0
6352,50.0,0.0,360.0,5.0,0.0
6353,59.0,2.0,360.0,13.0,0.0
6354,47.0,0.0,360.0,14.0,0.0
6355,78.0,60.0,60.0,11.0,0.0
6356,76.0,53.0,60.0,11.0,0.0
6357,74.0,5.0,60.0,11.0,0.0
6358,83.0,0.0,180.0,10.0,0.0
6359,76.0,45.0,15.0,11.0,0.0
6360,59.0,1.0,180.0,12.0,0.0
6361,79.0,0.0,180.0,2.0,0.0
6362,71.0,1.0,180.0,2.0,0.0
6363,59.0,1.0,180.0,6.0,0.0
6364,67.0,10.0,180.0,3.0,0.0
6365,74.0,60.0,60.0,11.0,0.0
6366,73.0,53.0,60.0,11.0,0.0
6367,91.0,2.0,60.0,0.0,0.0
6368,71.0,1.0,60.0,11.0,0.0
6369,91.0,45.0,15.0,0.0,0.0
6370,84.0,30.0,210.0,10.0,0.0
6371,72.0,1.0,360.0,11.0,0.0
6372,86.0,3.0,300.0,1.0,0.0
6373,74.0,0.0,480.0,1.0,0.0
6374,57.0,1.0,180.0,12.0,0.0
6375,78.0,0.0,180.0,2.0,0.0
6376,66.0,1.0,180.0,2.0,0.0
6377,62.0,0.0,360.0,4.0,0.0
6378,57.0,1.0,180.0,6.0,0.0
6379,57.0,2.0,180.0,13.0,0.0
6380,50.0,0.0,360.0,5.0,0.0
6381,66.0,25.0,180.0,3.0,0.0
6382,45.0,0.0,180.0,14.0,0.0
6383,90.0,60.0,60.0,0.0,0.0
6384,88.0,55.0,60.0,0.0,0.0
6385,86.0,5.0,60.0,0.0,0.0
6386,86.0,30.0,60.0,0.0,0.0
6387,62.0,1.0,180.0,12.0,0.0
6388,62.0,15.0,210.0,11.0,0.0
6389,84.0,0.0,120.0,2.0,0.0
6390,72.0,2.0,120.0,2.0,0.0
6391,50.0,1.0,180.0,6.0,0.0
6392,50.0,2.0,180.0,13.0,0.0
6393,69.0,25.0,120.0,3.0,0.0
6394,38.0,14.0,180.0,14.0,0.0
6395,81.0,0.0,30.0,10.0,0.0
6396,78.0,27.0,30.0,10.0,0.0
6397,88.0,3.0,60.0,0.0,0.0
6398,74.0,0.0,30.0,10.0,0.0
6399,72.0,25.0,30.0,10.0,0.0
6400,90.0,0.0,60.0,0.0,0.0
6401,84.0,0.0,60.0,1.0,0.0
6402,69.0,1.0,60.0,2.0,0.0
6403,81.0,0.0,60.0,2.0,0.0
6404,66.0,0.0,60.0,3.0,0.0
6405,69.0,2.0,30.0,10.0,0.0
6406,67.0,0.0,120.0,10.0,0.0
6407,91.0,2.0,120.0,0.0,0.0
6408,55.0,10.0,15.0,12.0,0.0
6409,71.0,2.0,30.0,11.0,0.0
6410,83.0,1.0,120.0,1.0,0.0
6411,67.0,1.0,120.0,2.0,0.0
6412,79.0,0.0,120.0,2.0,0.0
6413,67.0,2.0,300.0,4.0,0.0
6414,55.0,3.0,30.0,6.0,0.0
6415,55.0,3.0,120.0,13.0,0.0
6416,67.0,0.0,120.0,3.0,0.0
6417,67.0,2.0,300.0,5.0,0.0
6418,43.0,9.0,120.0,14.0,0.0
6419,59.0,15.0,15.0,12.0,0.0
6420,71.0,2.0,30.0,11.0,0.0
6421,62.0,13.0,30.0,6.0,0.0
6422,62.0,15.0,15.0,12.0,0.0
6423,74.0,2.0,30.0,11.0,0.0
6424,59.0,13.0,30.0,6.0,0.0
6425,71.0,0.0,30.0,11.0,0.0
6426,67.0,13.0,15.0,12.0,0.0
6427,62.0,1.0,30.0,6.0,0.0
6428,74.0,2.0,30.0,11.0,0.0
6429,71.0,15.0,15.0,12.0,0.0
6430,59.0,13.0,30.0,6.0,0.0
6431,71.0,2.0,30.0,11.0,0.0
6432,74.0,15.0,15.0,12.0,0.0
6433,62.0,28.0,30.0,6.0,0.0
6434,76.0,2.0,30.0,11.0,0.0
6435,79.0,0.0,120.0,12.0,0.0
6436,60.0,28.0,30.0,6.0,0.0
6437,71.0,0.0,180.0,3.0,0.0
6438,59.0,27.0,180.0,3.0,0.0
6439,72.0,2.0,30.0,11.0,0.0
6440,64.0,28.0,30.0,6.0,0.0
6441,74.0,2.0,30.0,11.0,0.0
6442,59.0,24.0,30.0,6.0,0.0
6443,71.0,2.0,30.0,11.0,0.0
6444,62.0,28.0,30.0,6.0,0.0
6445,74.0,2.0,30.0,11.0,0.0
6446,67.0,2.0,180.0,4.0,0.0
6447,59.0,28.0,30.0,6.0,0.0
6448,67.0,2.0,180.0,5.0,0.0
6449,71.0,2.0,30.0,11.0,0.0
6450,62.0,1.0,30.0,6.0,0.0
6451,72.0,2.0,30.0,11.0,0.0
6452,57.0,28.0,30.0,6.0,0.0
6453,67.0,0.0,180.0,3.0,0.0
6454,55.0,27.0,180.0,3.0,0.0
6455,69.0,2.0,30.0,11.0,0.0
6456,60.0,28.0,30.0,6.0,0.0
6457,71.0,2.0,30.0,11.0,0.0
6458,55.0,24.0,30.0,6.0,0.0
6459,67.0,2.0,30.0,11.0,0.0
6460,59.0,28.0,30.0,6.0,0.0
6461,71.0,2.0,30.0,11.0,0.0
6462,67.0,2.0,180.0,4.0,0.0
6463,55.0,28.0,30.0,6.0,0.0
6464,67.0,2.0,180.0,5.0,0.0
6465,67.0,2.0,30.0,11.0,0.0
6466,59.0,1.0,30.0,6.0,0.0
6467,74.0,0.0,180.0,10.0,0.0
6468,69.0,2.0,30.0,11.0,0.0
6469,54.0,28.0,30.0,6.0,0.0
6470,62.0,0.0,180.0,3.0,0.0
6471,50.0,12.0,180.0,3.0,0.0
6472,66.0,2.0,30.0,11.0,0.0
6473,57.0,28.0,30.0,6.0,0.0
6474,71.0,1.0,30.0,11.0,0.0
6475,79.0,1.0,30.0,2.0,0.0
6476,55.0,24.0,30.0,6.0,0.0
6477,67.0,1.0,30.0,11.0,0.0
6478,81.0,1.0,30.0,2.0,0.0
6479,59.0,28.0,30.0,6.0,0.0
6480,71.0,1.0,30.0,11.0,0.0
6481,83.0,1.0,30.0,2.0,0.0
6482,67.0,0.0,60.0,4.0,0.0
6483,55.0,23.0,30.0,6.0,0.0
6484,67.0,5.0,60.0,5.0,0.0
6485,67.0,1.0,30.0,11.0,0.0
6486,81.0,1.0,30.0,2.0,0.0
6487,59.0,1.0,30.0,6.0,0.0
6488,79.0,2.0,180.0,10.0,0.0
6489,71.0,2.0,30.0,11.0,0.0
6490,55.0,15.0,15.0,12.0,0.0
6491,81.0,1.0,60.0,2.0,0.0
6492,67.0,2.0,300.0,4.0,0.0
6493,55.0,13.0,30.0,6.0,0.0
6494,55.0,3.0,120.0,13.0,0.0
6495,67.0,2.0,300.0,5.0,0.0
6496,43.0,9.0,120.0,14.0,0.0
6497,67.0,1.0,30.0,11.0,0.0
6498,59.0,15.0,15.0,12.0,0.0
6499,59.0,13.0,30.0,6.0,0.0
6500,74.0,2.0,30.0,11.0,0.0
6501,62.0,15.0,15.0,12.0,0.0
6502,79.0,1.0,120.0,2.0,0.0
6503,59.0,13.0,30.0,6.0,0.0
6504,71.0,2.0,30.0,11.0,0.0
6505,67.0,15.0,15.0,12.0,0.0
6506,62.0,1.0,30.0,6.0,0.0
6507,71.0,15.0,15.0,12.0,0.0
6508,74.0,2.0,30.0,11.0,0.0
6509,59.0,13.0,30.0,6.0,0.0
6510,71.0,1.0,30.0,11.0,0.0
6511,74.0,13.0,15.0,12.0,0.0
6512,62.0,28.0,30.0,6.0,0.0
6513,83.0,2.0,180.0,10.0,0.0
6514,79.0,2.0,120.0,12.0,0.0
6515,76.0,2.0,30.0,11.0,0.0
6516,60.0,28.0,30.0,6.0,0.0
6517,59.0,0.0,180.0,3.0,0.0
6518,71.0,27.0,180.0,3.0,0.0
6519,72.0,2.0,30.0,11.0,0.0
6520,64.0,28.0,30.0,6.0,0.0
6521,74.0,2.0,30.0,11.0,0.0
6522,59.0,24.0,30.0,6.0,0.0
6523,71.0,0.0,30.0,11.0,0.0
6524,62.0,28.0,30.0,6.0,0.0
6525,74.0,2.0,30.0,11.0,0.0
6526,67.0,2.0,180.0,4.0,0.0
6527,59.0,26.0,30.0,6.0,0.0
6528,67.0,2.0,180.0,5.0,0.0
6529,71.0,2.0,30.0,11.0,0.0
6530,62.0,1.0,30.0,6.0,0.0
6531,72.0,2.0,30.0,11.0,0.0
6532,57.0,28.0,30.0,6.0,0.0
6533,67.0,27.0,180.0,3.0,0.0
6534,55.0,0.0,180.0,3.0,0.0
6535,69.0,2.0,30.0,11.0,0.0
6536,60.0,28.0,30.0,6.0,0.0
6537,71.0,2.0,30.0,11.0,0.0
6538,55.0,24.0,30.0,6.0,0.0
6539,67.0,2.0,30.0,11.0,0.0
6540,59.0,28.0,30.0,6.0,0.0
6541,71.0,2.0,30.0,11.0,0.0
6542,67.0,2.0,180.0,4.0,0.0
6543,55.0,28.0,30.0,6.0,0.0
6544,67.0,2.0,180.0,5.0,0.0
6545,67.0,2.0,30.0,11.0,0.0
6546,59.0,1.0,30.0,6.0,0.0
6547,74.0,5.0,180.0,10.0,0.0
6548,69.0,2.0,30.0,11.0,0.0
6549,54.0,28.0,30.0,6.0,0.0
6550,62.0,0.0,180.0,3.0,0.0
6551,50.0,8.0,180.0,3.0,0.0
6552,66.0,2.0,30.0,11.0,0.0
6553,57.0,28.0,30.0,6.0,0.0
6554,71.0,1.0,30.0,11.0,0.0
6555,79.0,1.0,30.0,2.0,0.0
6556,55.0,24.0,30.0,6.0,0.0
6557,67.0,1.0,30.0,11.0,0.0
6558,81.0,1.0,30.0,2.0,0.0
6559,59.0,28.0,30.0,6.0,0.0
6560,71.0,1.0,30.0,11.0,0.0
6561,67.0,1.0,60.0,4.0,0.0
6562,83.0,1.0,30.0,2.0,0.0
6563,55.0,23.0,30.0,6.0,0.0
6564,67.0,0.0,60.0,5.0,0.0
6565,67.0,1.0,30.0,11.0,0.0
6566,79.0,0.0,30.0,2.0,0.0
6567,59.0,1.0,30.0,6.0,0.0
6568,81.0,2.0,180.0,10.0,0.0
6569,62.0,6.0,15.0,12.0,0.0
6570,72.0,1.0,30.0,11.0,0.0
6571,78.0,4.0,15.0,2.0,0.0
6572,69.0,2.0,300.0,4.0,0.0
6573,57.0,13.0,30.0,6.0,0.0
6574,50.0,3.0,120.0,13.0,0.0
6575,62.0,2.0,300.0,5.0,0.0
6576,38.0,9.0,120.0,14.0,0.0
6577,79.0,9.0,15.0,2.0,0.0
6578,81.0,1.0,15.0,2.0,0.0
6579,66.0,15.0,15.0,12.0,0.0
6580,69.0,1.0,30.0,11.0,0.0
6581,79.0,1.0,30.0,2.0,0.0
6582,60.0,13.0,30.0,6.0,0.0
6583,72.0,2.0,30.0,11.0,0.0
6584,69.0,15.0,15.0,12.0,0.0
6585,78.0,1.0,120.0,2.0,0.0
6586,57.0,13.0,30.0,6.0,0.0
6587,72.0,15.0,15.0,12.0,0.0
6588,69.0,2.0,30.0,11.0,0.0
6589,60.0,1.0,30.0,6.0,0.0
6590,74.0,15.0,15.0,12.0,0.0
6591,72.0,2.0,30.0,11.0,0.0
6592,57.0,13.0,30.0,6.0,0.0
6593,69.0,1.0,30.0,11.0,0.0
6594,78.0,13.0,15.0,12.0,0.0
6595,60.0,28.0,30.0,6.0,0.0
6596,84.0,2.0,180.0,10.0,0.0
6597,74.0,2.0,30.0,11.0,0.0
6598,81.0,0.0,120.0,12.0,0.0
6599,59.0,28.0,30.0,6.0,0.0
6600,72.0,0.0,180.0,3.0,0.0
6601,60.0,27.0,180.0,3.0,0.0
6602,71.0,2.0,30.0,11.0,0.0
6603,62.0,28.0,30.0,6.0,0.0
6604,72.0,2.0,30.0,11.0,0.0
6605,57.0,24.0,30.0,6.0,0.0
6606,69.0,2.0,30.0,11.0,0.0
6607,60.0,28.0,30.0,6.0,0.0
6608,72.0,2.0,30.0,11.0,0.0
6609,69.0,2.0,180.0,4.0,0.0
6610,57.0,26.0,30.0,6.0,0.0
6611,62.0,2.0,180.0,5.0,0.0
6612,69.0,2.0,30.0,11.0,0.0
6613,60.0,1.0,30.0,6.0,0.0
6614,71.0,2.0,30.0,11.0,0.0
6615,55.0,28.0,30.0,6.0,0.0
6616,69.0,27.0,180.0,3.0,0.0
6617,57.0,0.0,180.0,3.0,0.0
6618,67.0,2.0,30.0,11.0,0.0
6619,59.0,28.0,30.0,6.0,0.0
6620,69.0,2.0,30.0,11.0,0.0
6621,54.0,24.0,30.0,6.0,0.0
6622,66.0,2.0,30.0,11.0,0.0
6623,57.0,28.0,30.0,6.0,0.0
6624,69.0,2.0,30.0,11.0,0.0
6625,69.0,2.0,180.0,4.0,0.0
6626,54.0,28.0,30.0,6.0,0.0
6627,62.0,2.0,180.0,5.0,0.0
6628,66.0,2.0,30.0,11.0,0.0
6629,57.0,1.0,30.0,6.0,0.0
6630,74.0,5.0,180.0,10.0,0.0
6631,67.0,2.0,30.0,11.0,0.0
6632,52.0,28.0,30.0,6.0,0.0
6633,50.0,12.0,180.0,3.0,0.0
6634,62.0,0.0,180.0,3.0,0.0
6635,64.0,2.0,30.0,11.0,0.0
6636,55.0,28.0,30.0,6.0,0.0
6637,69.0,1.0,30.0,11.0,0.0
6638,81.0,1.0,30.0,2.0,0.0
6639,54.0,24.0,30.0,6.0,0.0
6640,66.0,1.0,30.0,11.0,0.0
6641,83.0,1.0,30.0,2.0,0.0
6642,57.0,28.0,30.0,6.0,0.0
6643,69.0,1.0,30.0,11.0,0.0
6644,84.0,1.0,30.0,2.0,0.0
6645,69.0,1.0,60.0,4.0,0.0
6646,54.0,23.0,30.0,6.0,0.0
6647,62.0,0.0,60.0,5.0,0.0
6648,66.0,1.0,30.0,11.0,0.0
6649,83.0,0.0,30.0,2.0,0.0
6650,57.0,1.0,30.0,6.0,0.0
6651,81.0,2.0,180.0,10.0,0.0
6652,62.0,15.0,15.0,12.0,0.0
6653,69.0,2.0,30.0,11.0,0.0
6654,83.0,1.0,60.0,2.0,0.0
6655,69.0,2.0,300.0,4.0,0.0
6656,54.0,13.0,30.0,6.0,0.0
6657,62.0,2.0,300.0,5.0,0.0
6658,50.0,3.0,120.0,13.0,0.0
6659,38.0,9.0,120.0,14.0,0.0
6660,66.0,15.0,15.0,12.0,0.0
6661,66.0,1.0,30.0,11.0,0.0
6662,57.0,13.0,30.0,6.0,0.0
6663,72.0,2.0,30.0,11.0,0.0
6664,69.0,15.0,15.0,12.0,0.0
6665,81.0,1.0,120.0,2.0,0.0
6666,57.0,13.0,30.0,6.0,0.0
6667,72.0,15.0,15.0,12.0,0.0
6668,69.0,2.0,30.0,11.0,0.0
6669,60.0,1.0,30.0,6.0,0.0
6670,74.0,15.0,15.0,12.0,0.0
6671,72.0,2.0,30.0,11.0,0.0
6672,57.0,13.0,30.0,6.0,0.0
6673,78.0,13.0,15.0,12.0,0.0
6674,69.0,1.0,30.0,11.0,0.0
6675,60.0,28.0,30.0,6.0,0.0
6676,84.0,2.0,180.0,10.0,0.0
6677,81.0,2.0,120.0,12.0,0.0
6678,74.0,2.0,30.0,11.0,0.0
6679,59.0,28.0,30.0,6.0,0.0
6680,72.0,0.0,180.0,3.0,0.0
6681,60.0,27.0,180.0,3.0,0.0
6682,71.0,2.0,30.0,11.0,0.0
6683,62.0,28.0,30.0,6.0,0.0
6684,72.0,2.0,30.0,11.0,0.0
6685,57.0,24.0,30.0,6.0,0.0
6686,69.0,0.0,30.0,11.0,0.0
6687,60.0,28.0,30.0,6.0,0.0
6688,71.0,2.0,30.0,11.0,0.0
6689,69.0,2.0,180.0,4.0,0.0
6690,55.0,26.0,30.0,6.0,0.0
6691,62.0,2.0,180.0,5.0,0.0
6692,67.0,2.0,30.0,11.0,0.0
6693,59.0,1.0,30.0,6.0,0.0
6694,69.0,2.0,30.0,11.0,0.0
6695,54.0,28.0,30.0,6.0,0.0
6696,57.0,27.0,180.0,3.0,0.0
6697,69.0,0.0,180.0,3.0,0.0
6698,66.0,2.0,30.0,11.0,0.0
6699,57.0,28.0,30.0,6.0,0.0
6700,67.0,2.0,30.0,11.0,0.0
6701,52.0,24.0,30.0,6.0,0.0
6702,64.0,2.0,30.0,11.0,0.0
6703,55.0,28.0,30.0,6.0,0.0
6704,66.0,2.0,30.0,11.0,0.0
6705,69.0,2.0,180.0,4.0,0.0
6706,50.0,28.0,30.0,6.0,0.0
6707,62.0,2.0,180.0,5.0,0.0
6708,62.0,2.0,30.0,11.0,0.0
6709,54.0,1.0,30.0,6.0,0.0
6710,74.0,5.0,180.0,10.0,0.0
6711,64.0,2.0,30.0,11.0,0.0
6712,48.0,28.0,30.0,6.0,0.0
6713,62.0,27.0,180.0,3.0,0.0
6714,50.0,0.0,180.0,3.0,0.0
6715,60.0,2.0,30.0,11.0,0.0
6716,52.0,28.0,30.0,6.0,0.0
6717,62.0,2.0,30.0,11.0,0.0
6718,81.0,1.0,60.0,2.0,0.0
6719,47.0,24.0,30.0,6.0,0.0
6720,59.0,1.0,30.0,11.0,0.0
6721,50.0,28.0,30.0,6.0,0.0
6722,62.0,1.0,30.0,11.0,0.0
6723,83.0,1.0,30.0,2.0,0.0
6724,62.0,0.0,60.0,4.0,0.0
6725,45.0,23.0,30.0,6.0,0.0
6726,62.0,0.0,60.0,5.0,0.0
6727,60.0,1.0,30.0,11.0,0.0
6728,84.0,1.0,30.0,2.0,0.0
6729,48.0,1.0,30.0,6.0,0.0
6730,79.0,2.0,180.0,10.0,0.0
6731,62.0,2.0,30.0,11.0,0.0
6732,59.0,0.0,30.0,12.0,0.0
6733,67.0,0.0,1440.0,4.0,0.0
6734,86.0,1.0,240.0,2.0,0.0
6735,55.0,1.0,1440.0,2.0,0.0
6736,47.0,0.0,30.0,6.0,0.0
6737,50.0,28.0,30.0,6.0,0.0
6738,67.0,0.0,1440.0,5.0,0.0
6739,55.0,0.0,30.0,12.0,0.0
6740,59.0,2.0,30.0,11.0,0.0
6741,43.0,0.0,30.0,6.0,0.0
6742,59.0,0.0,30.0,12.0,0.0
6743,62.0,2.0,30.0,11.0,0.0
6744,50.0,28.0,30.0,6.0,0.0
6745,47.0,28.0,15.0,6.0,0.0
6746,55.0,0.0,30.0,12.0,0.0
6747,59.0,2.0,30.0,11.0,0.0
6748,47.0,0.0,30.0,6.0,0.0
6749,43.0,28.0,30.0,6.0,0.0
6750,62.0,0.0,30.0,11.0,0.0
6751,59.0,2.0,30.0,12.0,0.0
6752,50.0,0.0,30.0,6.0,0.0
6753,55.0,0.0,30.0,12.0,0.0
6754,59.0,2.0,30.0,11.0,0.0
6755,43.0,28.0,30.0,6.0,0.0
6756,47.0,26.0,15.0,6.0,0.0
6757,67.0,5.0,180.0,10.0,0.0
6758,62.0,0.0,30.0,11.0,0.0
6759,59.0,2.0,30.0,12.0,0.0
6760,47.0,0.0,15.0,6.0,0.0
6761,50.0,0.0,30.0,6.0,0.0
6762,62.0,27.0,180.0,3.0,0.0
6763,55.0,0.0,30.0,12.0,0.0
6764,59.0,1.0,30.0,11.0,0.0
6765,43.0,0.0,30.0,6.0,0.0
6766,47.0,28.0,30.0,6.0,0.0
6767,59.0,0.0,30.0,12.0,0.0
6768,62.0,2.0,30.0,11.0,0.0
6769,83.0,1.0,60.0,2.0,0.0
6770,50.0,28.0,30.0,6.0,0.0
6771,47.0,0.0,30.0,6.0,0.0
6772,55.0,0.0,30.0,12.0,0.0
6773,59.0,1.0,30.0,11.0,0.0
6774,43.0,28.0,30.0,6.0,0.0
6775,47.0,0.0,30.0,6.0,0.0
6776,59.0,0.0,30.0,12.0,0.0
6777,62.0,2.0,30.0,11.0,0.0
6778,79.0,1.0,60.0,2.0,0.0
6779,47.0,0.0,30.0,6.0,0.0
6780,50.0,23.0,30.0,6.0,0.0
6781,55.0,0.0,30.0,12.0,0.0
6782,59.0,1.0,30.0,11.0,0.0
6783,47.0,0.0,30.0,6.0,0.0
6784,43.0,1.0,30.0,6.0,0.0
6785,64.0,0.0,30.0,11.0,0.0
6786,60.0,2.0,30.0,12.0,0.0
6787,79.0,4.0,150.0,2.0,0.0
6788,52.0,28.0,30.0,6.0,0.0
6789,48.0,0.0,30.0,6.0,0.0
6790,55.0,27.0,180.0,3.0,0.0
6791,60.0,2.0,30.0,11.0,0.0
6792,55.0,0.0,30.0,12.0,0.0
6793,43.0,0.0,30.0,6.0,0.0
6794,48.0,28.0,30.0,6.0,0.0
6795,60.0,0.0,30.0,12.0,0.0
6796,64.0,2.0,30.0,11.0,0.0
6797,52.0,0.0,30.0,6.0,0.0
6798,48.0,28.0,30.0,6.0,0.0
6799,55.0,0.0,30.0,12.0,0.0
6800,60.0,2.0,30.0,11.0,0.0
6801,43.0,24.0,30.0,6.0,0.0
6802,48.0,0.0,30.0,6.0,0.0
6803,60.0,2.0,30.0,12.0,0.0
6804,64.0,0.0,30.0,11.0,0.0
6805,52.0,0.0,30.0,6.0,0.0
6806,48.0,9.0,30.0,6.0,0.0
6807,55.0,1.0,30.0,12.0,0.0
6808,60.0,0.0,30.0,11.0,0.0
6809,81.0,10.0,15.0,2.0,0.0
6810,43.0,0.0,30.0,6.0,0.0
6811,79.0,9.0,15.0,2.0,0.0
6812,78.0,1.0,15.0,2.0,0.0
6813,67.0,5.0,180.0,10.0,0.0
6814,64.0,2.0,30.0,11.0,0.0
6815,60.0,0.0,30.0,12.0,0.0
6816,79.0,1.0,60.0,2.0,0.0
6817,48.0,1.0,15.0,6.0,0.0
6818,52.0,0.0,30.0,6.0,0.0
6819,64.0,27.0,180.0,3.0,0.0
6820,60.0,1.0,30.0,11.0,0.0
6821,55.0,0.0,30.0,12.0,0.0
6822,43.0,0.0,30.0,6.0,0.0
6823,60.0,0.0,30.0,12.0,0.0
6824,64.0,2.0,30.0,11.0,0.0
6825,84.0,1.0,60.0,2.0,0.0
6826,48.0,28.0,15.0,6.0,0.0
6827,52.0,0.0,30.0,6.0,0.0
6828,55.0,0.0,30.0,12.0,0.0
6829,60.0,1.0,30.0,11.0,0.0
6830,48.0,28.0,15.0,6.0,0.0
6831,43.0,28.0,30.0,6.0,0.0
6832,60.0,0.0,30.0,12.0,0.0
6833,64.0,1.0,30.0,11.0,0.0
6834,88.0,1.0,30.0,2.0,0.0
6835,52.0,23.0,30.0,6.0,0.0
6836,48.0,0.0,30.0,6.0,0.0
6837,55.0,1.0,30.0,12.0,0.0
6838,60.0,0.0,30.0,11.0,0.0
6839,86.0,1.0,30.0,2.0,0.0
6840,43.0,1.0,30.0,6.0,0.0
6841,48.0,0.0,30.0,6.0,0.0
6842,79.0,2.0,180.0,10.0,0.0
6843,59.0,0.0,30.0,12.0,0.0
6844,62.0,2.0,30.0,11.0,0.0
6845,86.0,1.0,210.0,2.0,0.0
6846,50.0,28.0,30.0,6.0,0.0
6847,55.0,0.0,30.0,12.0,0.0
6848,59.0,2.0,30.0,11.0,0.0
6849,43.0,0.0,30.0,6.0,0.0
6850,47.0,0.0,15.0,6.0,0.0
6851,59.0,0.0,30.0,12.0,0.0
6852,62.0,2.0,30.0,11.0,0.0
6853,50.0,28.0,30.0,6.0,0.0
6854,47.0,0.0,30.0,6.0,0.0
6855,59.0,2.0,30.0,11.0,0.0
6856,55.0,0.0,30.0,12.0,0.0
6857,47.0,0.0,30.0,6.0,0.0
6858,43.0,28.0,30.0,6.0,0.0
6859,62.0,2.0,30.0,11.0,0.0
6860,59.0,0.0,30.0,12.0,0.0
6861,50.0,0.0,30.0,6.0,0.0
6862,59.0,2.0,30.0,11.0,0.0
6863,55.0,0.0,30.0,12.0,0.0
6864,47.0,26.0,15.0,6.0,0.0
6865,43.0,28.0,30.0,6.0,0.0
6866,67.0,5.0,180.0,10.0,0.0
6867,59.0,0.0,30.0,12.0,0.0
6868,62.0,1.0,30.0,11.0,0.0
6869,50.0,0.0,30.0,6.0,0.0
6870,62.0,27.0,180.0,3.0,0.0
6871,55.0,0.0,30.0,12.0,0.0
6872,59.0,1.0,30.0,11.0,0.0
6873,83.0,1.0,30.0,2.0,0.0
6874,47.0,28.0,15.0,6.0,0.0
6875,43.0,0.0,30.0,6.0,0.0
6876,62.0,1.0,30.0,11.0,0.0
6877,59.0,0.0,30.0,12.0,0.0
6878,86.0,1.0,30.0,2.0,0.0
6879,50.0,28.0,30.0,6.0,0.0
6880,47.0,0.0,30.0,6.0,0.0
6881,55.0,0.0,30.0,12.0,0.0
6882,59.0,1.0,30.0,11.0,0.0
6883,83.0,1.0,30.0,2.0,0.0
6884,47.0,0.0,30.0,6.0,0.0
6885,43.0,24.0,30.0,6.0,0.0
6886,59.0,0.0,30.0,12.0,0.0
6887,62.0,2.0,30.0,11.0,0.0
6888,79.0,4.0,30.0,2.0,0.0
6889,50.0,23.0,30.0,6.0,0.0
6890,55.0,0.0,30.0,12.0,0.0
6891,59.0,1.0,30.0,11.0,0.0
6892,79.0,1.0,30.0,2.0,0.0
6893,43.0,0.0,30.0,6.0,0.0
6894,47.0,0.0,15.0,6.0,0.0
6895,60.0,2.0,30.0,12.0,0.0
6896,64.0,0.0,30.0,11.0,0.0
6897,79.0,4.0,180.0,2.0,0.0
6898,52.0,0.0,30.0,6.0,0.0
6899,48.0,28.0,30.0,6.0,0.0
6900,55.0,8.0,180.0,3.0,0.0
6901,60.0,2.0,30.0,11.0,0.0
6902,55.0,0.0,30.0,12.0,0.0
6903,43.0,28.0,30.0,6.0,0.0
6904,48.0,0.0,30.0,6.0,0.0
6905,60.0,2.0,30.0,12.0,0.0
6906,64.0,0.0,30.0,11.0,0.0
6907,52.0,28.0,30.0,6.0,0.0
6908,48.0,0.0,30.0,6.0,0.0
6909,60.0,2.0,30.0,11.0,0.0
6910,55.0,0.0,30.0,12.0,0.0
6911,43.0,28.0,30.0,6.0,0.0
6912,64.0,0.0,30.0,11.0,0.0
6913,60.0,2.0,30.0,12.0,0.0
6914,52.0,24.0,30.0,6.0,0.0
6915,48.0,0.0,15.0,6.0,0.0
6916,60.0,2.0,30.0,11.0,0.0
6917,55.0,0.0,30.0,12.0,0.0
6918,43.0,0.0,30.0,6.0,0.0
6919,48.0,0.0,15.0,6.0,0.0
6920,67.0,0.0,180.0,10.0,0.0
6921,60.0,1.0,30.0,12.0,0.0
6922,64.0,0.0,30.0,11.0,0.0
6923,81.0,19.0,15.0,2.0,0.0
6924,52.0,0.0,30.0,6.0,0.0
6925,48.0,1.0,15.0,6.0,0.0
6926,64.0,18.0,180.0,3.0,0.0
6927,79.0,1.0,20.0,2.0,0.0
6928,60.0,0.0,30.0,11.0,0.0
6929,55.0,1.0,30.0,12.0,0.0
6930,78.0,1.0,30.0,2.0,0.0
6931,48.0,28.0,15.0,6.0,0.0
6932,43.0,0.0,30.0,6.0,0.0
6933,60.0,0.0,30.0,12.0,0.0
6934,64.0,1.0,30.0,11.0,0.0
6935,79.0,1.0,30.0,2.0,0.0
6936,52.0,0.0,30.0,6.0,0.0
6937,48.0,28.0,15.0,6.0,0.0
6938,55.0,0.0,30.0,12.0,0.0
6939,60.0,1.0,30.0,11.0,0.0
6940,84.0,1.0,30.0,2.0,0.0
6941,43.0,0.0,30.0,6.0,0.0
6942,60.0,1.0,30.0,12.0,0.0
6943,64.0,0.0,30.0,11.0,0.0
6944,88.0,1.0,30.0,2.0,0.0
6945,52.0,0.0,30.0,6.0,0.0
6946,48.0,28.0,15.0,6.0,0.0
6947,60.0,1.0,30.0,11.0,0.0
6948,55.0,0.0,30.0,12.0,0.0
6949,86.0,0.0,30.0,2.0,0.0
6950,43.0,1.0,30.0,6.0,0.0
6951,48.0,0.0,30.0,6.0,0.0
6952,79.0,2.0,180.0,10.0,0.0
6953,62.0,2.0,180.0,11.0,0.0
6954,55.0,2.0,360.0,12.0,0.0
6955,67.0,2.0,360.0,4.0,0.0
6956,86.0,30.0,15.0,2.0,0.0
6957,47.0,1.0,180.0,6.0,0.0
6958,47.0,3.0,120.0,13.0,0.0
6959,62.0,13.0,180.0,3.0,0.0
6960,67.0,0.0,360.0,5.0,0.0
6961,35.0,10.0,120.0,14.0,0.0
6962,83.0,30.0,15.0,2.0,0.0
6963,79.0,30.0,15.0,2.0,0.0
6964,74.0,17.0,15.0,2.0,0.0
6965,71.0,30.0,15.0,2.0,0.0
6966,67.0,12.0,15.0,2.0,0.0
6967,76.0,2.0,180.0,10.0,0.0
6968,64.0,0.0,180.0,11.0,0.0
6969,64.0,30.0,15.0,2.0,0.0
6970,45.0,1.0,180.0,6.0,0.0
6971,64.0,13.0,180.0,3.0,0.0
6972,45.0,3.0,120.0,13.0,0.0
6973,33.0,10.0,120.0,14.0,0.0
6974,67.0,30.0,15.0,2.0,0.0
6975,73.0,30.0,15.0,2.0,0.0
6976,76.0,17.0,15.0,2.0,0.0
6977,79.0,30.0,15.0,2.0,0.0
6978,85.0,10.0,15.0,2.0,0.0
6979,84.0,0.0,180.0,0.0,0.0
6980,78.0,0.0,180.0,10.0,0.0
6981,81.0,2.0,180.0,0.0,0.0
6982,66.0,0.0,180.0,11.0,0.0
6983,78.0,0.0,180.0,1.0,0.0
6984,57.0,2.0,180.0,12.0,0.0
6985,84.0,30.0,15.0,2.0,0.0
6986,62.0,1.0,360.0,4.0,0.0
6987,50.0,1.0,180.0,6.0,0.0
6988,50.0,3.0,120.0,13.0,0.0
6989,66.0,13.0,180.0,3.0,0.0
6990,50.0,2.0,360.0,5.0,0.0
6991,38.0,10.0,120.0,14.0,0.0
6992,81.0,30.0,15.0,2.0,0.0
6993,78.0,30.0,15.0,2.0,0.0
6994,72.0,17.0,15.0,2.0,0.0
6995,69.0,30.0,15.0,2.0,0.0
6996,66.0,12.0,15.0,2.0,0.0
6997,79.0,0.0,180.0,0.0,0.0
6998,79.0,2.0,180.0,10.0,0.0
6999,83.0,0.0,180.0,0.0,0.0
7000,67.0,1.0,180.0,11.0,0.0
7001,59.0,0.0,180.0,12.0,0.0
7002,79.0,16.0,180.0,1.0,0.0
7003,62.0,30.0,15.0,2.0,0.0
7004,55.0,1.0,180.0,6.0,0.0
7005,55.0,3.0,120.0,13.0,0.0
7006,67.0,0.0,180.0,3.0,0.0
7007,43.0,10.0,120.0,14.0,0.0
7008,67.0,30.0,15.0,2.0,0.0
7009,71.0,30.0,15.0,2.0,0.0
7010,74.0,17.0,15.0,2.0,0.0
7011,79.0,30.0,15.0,2.0,0.0
7012,83.0,7.0,15.0,2.0,0.0
7013,88.0,2.0,120.0,0.0,0.0
7014,84.0,0.0,120.0,0.0,0.0
7015,69.0,0.0,120.0,10.0,0.0
7016,76.0,0.0,120.0,1.0,0.0
7017,60.0,0.0,120.0,12.0,0.0
7018,64.0,1.0,120.0,11.0,0.0
7019,64.0,1.0,120.0,4.0,0.0
7020,64.0,30.0,15.0,2.0,0.0
7021,48.0,1.0,120.0,6.0,0.0
7022,64.0,0.0,120.0,5.0,0.0
7023,64.0,3.0,120.0,3.0,0.0
7024,48.0,0.0,120.0,13.0,0.0
7025,36.0,10.0,120.0,14.0,0.0
7026,69.0,30.0,15.0,2.0,0.0
7027,72.0,30.0,15.0,2.0,0.0
7028,76.0,12.0,15.0,2.0,0.0
7029,81.0,30.0,15.0,2.0,0.0
7030,84.0,30.0,15.0,2.0,0.0
7031,88.0,30.0,15.0,2.0,0.0
7032,86.0,30.0,15.0,2.0,0.0
7033,84.0,30.0,15.0,2.0,0.0
7034,83.0,30.0,15.0,2.0,0.0
7035,81.0,30.0,15.0,2.0,0.0
7036,83.0,45.0,15.0,2.0,0.0
7037,84.0,60.0,30.0,2.0,0.0
7038,86.0,60.0,30.0,2.0,0.0
7039,88.0,60.0,30.0,2.0,0.0
7040,76.0,60.0,30.0,2.0,0.0
7041,84.0,31.0,30.0,2.0,0.0
7042,57.0,1.0,60.0,6.0,0.0
7043,57.0,3.0,60.0,13.0,0.0
7044,45.0,25.0,60.0,14.0,0.0
7045,81.0,31.0,30.0,2.0,0.0
7046,60.0,1.0,60.0,6.0,0.0
7047,60.0,3.0,60.0,13.0,0.0
7048,48.0,5.0,60.0,14.0,0.0
7049,84.0,2.0,120.0,0.0,0.0
7050,81.0,1.0,120.0,1.0,0.0
7051,83.0,10.0,15.0,2.0,0.0
7052,50.0,1.0,120.0,6.0,0.0
7053,50.0,3.0,120.0,13.0,0.0
7054,38.0,5.0,120.0,14.0,0.0
7055,81.0,10.0,15.0,2.0,0.0
7056,83.0,10.0,15.0,2.0,0.0
7057,81.0,10.0,15.0,2.0,0.0
7058,83.0,10.0,15.0,2.0,0.0
7059,81.0,10.0,15.0,2.0,0.0
7060,83.0,10.0,15.0,2.0,0.0
7061,81.0,10.0,15.0,2.0,0.0
7062,83.0,10.0,15.0,2.0,0.0
7063,81.0,10.0,15.0,2.0,0.0
7064,83.0,7.0,15.0,2.0,0.0
7065,81.0,1.0,15.0,2.0,0.0
7066,83.0,10.0,15.0,2.0,0.0
7067,81.0,10.0,15.0,2.0,0.0
7068,83.0,10.0,15.0,2.0,0.0
7069,81.0,10.0,15.0,2.0,0.0
7070,83.0,10.0,15.0,2.0,0.0
7071,81.0,10.0,15.0,2.0,0.0
7072,83.0,10.0,15.0,2.0,0.0
7073,81.0,10.0,15.0,2.0,0.0
7074,83.0,10.0,15.0,2.0,0.0
7075,81.0,10.0,15.0,2.0,0.0
7076,83.0,10.0,15.0,2.0,0.0
7077,81.0,10.0,15.0,2.0,0.0
7078,83.0,10.0,15.0,2.0,0.0
7079,81.0,10.0,15.0,2.0,0.0
7080,83.0,10.0,15.0,2.0,0.0
7081,81.0,10.0,15.0,2.0,0.0
7082,83.0,10.0,15.0,2.0,0.0
7083,81.0,10.0,15.0,2.0,0.0
7084,67.0,2.0,60.0,12.0,0.0
7085,83.0,10.0,15.0,2.0,0.0
7086,67.0,4.0,60.0,6.0,0.0
7087,81.0,10.0,15.0,2.0,0.0
7088,83.0,10.0,15.0,2.0,0.0
7089,81.0,10.0,15.0,2.0,0.0
7090,83.0,4.0,15.0,2.0,0.0
7091,81.0,10.0,15.0,2.0,0.0
7092,62.0,0.0,360.0,10.0,0.0
7093,84.0,2.0,360.0,0.0,0.0
7094,72.0,0.0,360.0,10.0,0.0
7095,67.0,2.0,15.0,12.0,0.0
7096,81.0,0.0,360.0,1.0,0.0
7097,62.0,0.0,720.0,4.0,0.0
7098,83.0,4.0,15.0,2.0,0.0
7099,67.0,4.0,15.0,6.0,0.0
7100,50.0,10.0,720.0,5.0,0.0
7101,50.0,3.0,360.0,13.0,0.0
7102,38.0,0.0,360.0,14.0,0.0
7103,81.0,10.0,15.0,2.0,0.0
7104,66.0,1.0,60.0,12.0,0.0
7105,66.0,9.0,60.0,6.0,0.0
7106,83.0,10.0,15.0,2.0,0.0
7107,81.0,10.0,15.0,2.0,0.0
7108,83.0,9.0,15.0,2.0,0.0
7109,81.0,1.0,15.0,2.0,0.0
7110,64.0,1.0,60.0,12.0,0.0
7111,83.0,10.0,15.0,2.0,0.0
7112,64.0,9.0,60.0,6.0,0.0
7113,81.0,10.0,15.0,2.0,0.0
7114,83.0,10.0,15.0,2.0,0.0
7115,81.0,10.0,15.0,2.0,0.0
7116,83.0,9.0,15.0,2.0,0.0
7117,81.0,1.0,15.0,2.0,0.0
7118,62.0,2.0,60.0,12.0,0.0
7119,83.0,10.0,15.0,2.0,0.0
7120,62.0,4.0,60.0,6.0,0.0
7121,81.0,10.0,15.0,2.0,0.0
7122,83.0,10.0,15.0,2.0,0.0
7123,81.0,10.0,15.0,2.0,0.0
7124,83.0,4.0,15.0,2.0,0.0
7125,81.0,10.0,15.0,2.0,0.0
7126,62.0,1.0,60.0,12.0,0.0
7127,83.0,10.0,15.0,2.0,0.0
7128,62.0,9.0,60.0,6.0,0.0
7129,81.0,10.0,15.0,2.0,0.0
7130,83.0,10.0,15.0,2.0,0.0
7131,81.0,10.0,15.0,2.0,0.0
7132,83.0,9.0,15.0,2.0,0.0
7133,81.0,1.0,15.0,2.0,0.0
7134,64.0,1.0,60.0,12.0,0.0
7135,83.0,10.0,15.0,2.0,0.0
7136,64.0,9.0,60.0,6.0,0.0
7137,81.0,10.0,15.0,2.0,0.0
7138,83.0,10.0,15.0,2.0,0.0
7139,81.0,10.0,15.0,2.0,0.0
7140,83.0,9.0,15.0,2.0,0.0
7141,81.0,1.0,15.0,2.0,0.0
7142,74.0,2.0,60.0,11.0,0.0
7143,66.0,0.0,60.0,12.0,0.0
7144,83.0,10.0,15.0,2.0,0.0
7145,66.0,1.0,60.0,6.0,0.0
7146,81.0,10.0,15.0,2.0,0.0
7147,83.0,15.0,15.0,2.0,0.0
7148,79.0,7.0,15.0,2.0,0.0
7149,81.0,14.0,15.0,2.0,0.0
7150,62.0,7.0,300.0,10.0,0.0
7151,82.0,2.0,360.0,0.0,0.0
7152,70.0,0.0,300.0,10.0,0.0
7153,67.0,2.0,180.0,12.0,0.0
7154,75.0,45.0,15.0,11.0,0.0
7155,79.0,3.0,360.0,1.0,0.0
7156,67.0,13.0,180.0,6.0,0.0
7157,55.0,2.0,360.0,13.0,0.0
7158,43.0,1.0,360.0,14.0,0.0
7159,74.0,60.0,60.0,11.0,0.0
7160,72.0,55.0,60.0,11.0,0.0
7161,70.0,5.0,60.0,11.0,0.0
7162,72.0,45.0,15.0,11.0,0.0
7163,62.0,1.0,180.0,12.0,0.0
7164,62.0,1.0,180.0,6.0,0.0
7165,70.0,53.0,60.0,11.0,0.0
7166,69.0,53.0,60.0,11.0,0.0
7167,82.0,0.0,60.0,10.0,0.0
7168,70.0,0.0,60.0,11.0,0.0
7169,82.0,45.0,15.0,10.0,0.0
7170,84.0,0.0,360.0,0.0,0.0
7171,63.0,0.0,180.0,12.0,0.0
7172,81.0,0.0,360.0,1.0,0.0
7173,72.0,2.0,180.0,11.0,0.0
7174,63.0,56.0,180.0,6.0,0.0
7175,65.0,0.0,480.0,3.0,0.0
7176,53.0,3.0,480.0,3.0,0.0
7177,53.0,3.0,360.0,13.0,0.0
7178,41.0,29.0,360.0,14.0,0.0
7179,81.0,60.0,60.0,10.0,0.0
7180,79.0,55.0,60.0,10.0,0.0
7181,77.0,7.0,60.0,10.0,0.0
7182,77.0,60.0,60.0,10.0,0.0
7183,60.0,0.0,120.0,12.0,0.0
7184,75.0,2.0,120.0,11.0,0.0
7185,65.0,0.0,240.0,2.0,0.0
7186,77.0,4.0,240.0,2.0,0.0
7187,60.0,51.0,120.0,6.0,0.0
7188,79.0,2.0,60.0,10.0,0.0
7189,81.0,2.0,60.0,10.0,0.0
7190,63.0,2.0,60.0,12.0,0.0
7191,72.0,0.0,60.0,11.0,0.0
7192,63.0,1.0,60.0,6.0,0.0
7193,82.0,2.0,120.0,10.0,0.0
7194,86.0,0.0,120.0,0.0,0.0
7195,62.0,26.0,30.0,12.0,0.0
7196,74.0,0.0,30.0,11.0,0.0
7197,82.0,2.0,120.0,1.0,0.0
7198,62.0,1.0,120.0,6.0,0.0
7199,46.0,0.0,120.0,13.0,0.0
7200,34.0,24.0,120.0,14.0,0.0
7201,65.0,30.0,30.0,11.0,0.0
7202,53.0,0.0,30.0,12.0,0.0
7203,62.0,0.0,30.0,11.0,0.0
7204,58.0,26.0,30.0,12.0,0.0
7205,77.0,2.0,60.0,2.0,0.0
7206,65.0,0.0,30.0,11.0,0.0
7207,53.0,0.0,30.0,12.0,0.0
7208,58.0,30.0,30.0,12.0,0.0
7209,62.0,0.0,30.0,11.0,0.0
7210,77.0,29.0,60.0,2.0,0.0
7211,65.0,1.0,30.0,11.0,0.0
7212,53.0,0.0,30.0,12.0,0.0
7213,82.0,3.0,180.0,0.0,0.0
7214,58.0,30.0,30.0,12.0,0.0
7215,62.0,0.0,30.0,11.0,0.0
7216,79.0,29.0,60.0,2.0,0.0
7217,53.0,0.0,30.0,12.0,0.0
7218,65.0,1.0,30.0,11.0,0.0
7219,58.0,26.0,30.0,12.0,0.0
7220,62.0,0.0,30.0,11.0,0.0
7221,77.0,4.0,60.0,2.0,0.0
7222,65.0,0.0,30.0,11.0,0.0
7223,53.0,30.0,30.0,12.0,0.0
7224,58.0,25.0,30.0,12.0,0.0
7225,62.0,0.0,30.0,11.0,0.0
7226,77.0,29.0,60.0,2.0,0.0
7227,53.0,0.0,30.0,12.0,0.0
7228,65.0,3.0,30.0,11.0,0.0
7229,77.0,2.0,180.0,0.0,0.0
7230,62.0,30.0,30.0,11.0,0.0
7231,58.0,0.0,30.0,12.0,0.0
7232,75.0,29.0,60.0,2.0,0.0
7233,65.0,0.0,30.0,11.0,0.0
7234,53.0,1.0,30.0,12.0,0.0
7235,58.0,0.0,30.0,12.0,0.0
7236,62.0,26.0,30.0,11.0,0.0
7237,74.0,4.0,60.0,2.0,0.0
7238,65.0,0.0,30.0,11.0,0.0
7239,53.0,30.0,30.0,12.0,0.0
7240,58.0,28.0,30.0,12.0,0.0
7241,62.0,0.0,30.0,11.0,0.0
7242,74.0,29.0,60.0,2.0,0.0
7243,65.0,0.0,30.0,11.0,0.0
7244,53.0,1.0,30.0,12.0,0.0
7245,74.0,3.0,180.0,0.0,0.0
7246,58.0,30.0,30.0,12.0,0.0
7247,62.0,0.0,30.0,11.0,0.0
7248,72.0,27.0,60.0,2.0,0.0
7249,65.0,1.0,30.0,11.0,0.0
7250,53.0,0.0,30.0,12.0,0.0
7251,74.0,2.0,30.0,10.0,0.0
7252,58.0,26.0,30.0,12.0,0.0
7253,62.0,0.0,30.0,11.0,0.0
7254,70.0,2.0,60.0,2.0,0.0
7255,75.0,2.0,30.0,10.0,0.0
7256,65.0,0.0,30.0,11.0,0.0
7257,53.0,28.0,30.0,12.0,0.0
7258,77.0,2.0,30.0,10.0,0.0
7259,62.0,0.0,30.0,11.0,0.0
7260,58.0,23.0,30.0,12.0,0.0
7261,70.0,29.0,60.0,2.0,0.0
7262,75.0,2.0,30.0,10.0,0.0
7263,53.0,3.0,30.0,12.0,0.0
7264,65.0,0.0,30.0,11.0,0.0
7265,75.0,2.0,60.0,10.0,0.0
7266,58.0,28.0,30.0,12.0,0.0
7267,62.0,0.0,30.0,11.0,0.0
7268,68.0,1.0,120.0,2.0,0.0
7269,46.0,1.0,120.0,6.0,0.0
7270,46.0,3.0,120.0,13.0,0.0
7271,46.0,0.0,720.0,3.0,0.0
7272,34.0,24.0,120.0,14.0,0.0
7273,53.0,30.0,30.0,12.0,0.0
7274,65.0,0.0,30.0,11.0,0.0
7275,74.0,2.0,120.0,10.0,0.0
7276,58.0,0.0,30.0,12.0,0.0
7277,62.0,28.0,30.0,11.0,0.0
7278,68.0,2.0,60.0,3.0,0.0
7279,65.0,1.0,30.0,11.0,0.0
7280,53.0,0.0,30.0,12.0,0.0
7281,58.0,28.0,30.0,12.0,0.0
7282,62.0,0.0,30.0,11.0,0.0
7283,68.0,27.0,60.0,3.0,0.0
7284,65.0,3.0,30.0,11.0,0.0
7285,53.0,0.0,30.0,12.0,0.0
7286,82.0,5.0,180.0,0.0,0.0
7287,58.0,30.0,30.0,12.0,0.0
7288,62.0,0.0,30.0,11.0,0.0
7289,70.0,27.0,60.0,3.0,0.0
7290,65.0,0.0,30.0,11.0,0.0
7291,53.0,3.0,30.0,12.0,0.0
7292,62.0,0.0,30.0,11.0,0.0
7293,58.0,28.0,30.0,12.0,0.0
7294,68.0,2.0,60.0,3.0,0.0
7295,65.0,0.0,30.0,11.0,0.0
7296,53.0,30.0,30.0,12.0,0.0
7297,58.0,0.0,30.0,12.0,0.0
7298,62.0,25.0,30.0,11.0,0.0
7299,68.0,27.0,60.0,3.0,0.0
7300,53.0,0.0,30.0,12.0,0.0
7301,65.0,3.0,30.0,11.0,0.0
7302,77.0,2.0,180.0,0.0,0.0
7303,62.0,30.0,30.0,11.0,0.0
7304,58.0,0.0,30.0,12.0,0.0
7305,67.0,27.0,60.0,3.0,0.0
7306,65.0,3.0,30.0,11.0,0.0
7307,53.0,0.0,30.0,12.0,0.0
7308,58.0,0.0,30.0,12.0,0.0
7309,62.0,28.0,30.0,11.0,0.0
7310,65.0,2.0,60.0,3.0,0.0
7311,65.0,30.0,30.0,11.0,0.0
7312,53.0,0.0,30.0,12.0,0.0
7313,62.0,0.0,30.0,11.0,0.0
7314,58.0,28.0,30.0,12.0,0.0
7315,65.0,27.0,60.0,3.0,0.0
7316,65.0,0.0,30.0,11.0,0.0
7317,53.0,3.0,30.0,12.0,0.0
7318,74.0,32.0,180.0,0.0,0.0
7319,62.0,0.0,30.0,11.0,0.0
7320,58.0,30.0,30.0,12.0,0.0
7321,63.0,25.0,60.0,3.0,0.0
7322,65.0,0.0,30.0,11.0,0.0
7323,53.0,3.0,30.0,12.0,0.0
7324,77.0,2.0,30.0,10.0,0.0
7325,62.0,0.0,30.0,11.0,0.0
7326,58.0,28.0,30.0,12.0,0.0
7327,62.0,0.0,60.0,3.0,0.0
7328,79.0,2.0,30.0,10.0,0.0
7329,65.0,0.0,30.0,11.0,0.0
7330,53.0,28.0,30.0,12.0,0.0
7331,80.0,2.0,30.0,10.0,0.0
7332,62.0,0.0,30.0,11.0,0.0
7333,58.0,23.0,30.0,12.0,0.0
7334,62.0,0.0,60.0,3.0,0.0
7335,79.0,2.0,30.0,10.0,0.0
7336,65.0,3.0,30.0,11.0,0.0
7337,53.0,0.0,30.0,12.0,0.0
7338,79.0,2.0,180.0,10.0,0.0
7339,63.0,2.0,30.0,11.0,0.0
7340,58.0,0.0,30.0,12.0,0.0
7341,51.0,28.0,30.0,6.0,0.0
7342,51.0,3.0,120.0,13.0,0.0
7343,51.0,0.0,720.0,3.0,0.0
7344,63.0,0.0,120.0,3.0,0.0
7345,39.0,24.0,120.0,14.0,0.0
7346,55.0,2.0,30.0,12.0,0.0
7347,67.0,0.0,30.0,11.0,0.0
7348,46.0,28.0,30.0,6.0,0.0
7349,58.0,2.0,30.0,12.0,0.0
7350,63.0,0.0,30.0,11.0,0.0
7351,82.0,4.0,60.0,2.0,0.0
7352,51.0,24.0,30.0,6.0,0.0
7353,67.0,2.0,30.0,11.0,0.0
7354,55.0,0.0,30.0,12.0,0.0
7355,46.0,1.0,30.0,6.0,0.0
7356,58.0,0.0,30.0,12.0,0.0
7357,63.0,2.0,30.0,11.0,0.0
7358,82.0,1.0,60.0,2.0,0.0
7359,51.0,26.0,30.0,6.0,0.0
7360,55.0,0.0,30.0,12.0,0.0
7361,67.0,1.0,30.0,11.0,0.0
7362,46.0,28.0,30.0,6.0,0.0
7363,82.0,3.0,180.0,0.0,0.0
7364,58.0,2.0,30.0,12.0,0.0
7365,63.0,0.0,30.0,11.0,0.0
7366,84.0,1.0,60.0,2.0,0.0
7367,51.0,28.0,30.0,6.0,0.0
7368,55.0,0.0,30.0,12.0,0.0
7369,67.0,1.0,30.0,11.0,0.0
7370,46.0,28.0,30.0,6.0,0.0
7371,58.0,2.0,30.0,12.0,0.0
7372,63.0,0.0,30.0,11.0,0.0
7373,82.0,4.0,60.0,2.0,0.0
7374,51.0,24.0,30.0,6.0,0.0
7375,67.0,2.0,30.0,11.0,0.0
7376,55.0,0.0,30.0,12.0,0.0
7377,46.0,28.0,30.0,6.0,0.0
7378,58.0,2.0,30.0,12.0,0.0
7379,63.0,0.0,30.0,11.0,0.0
7380,82.0,29.0,60.0,2.0,0.0
7381,51.0,23.0,30.0,6.0,0.0
7382,67.0,2.0,30.0,11.0,0.0
7383,55.0,0.0,30.0,12.0,0.0
7384,46.0,1.0,30.0,6.0,0.0
7385,79.0,2.0,180.0,0.0,0.0
7386,63.0,2.0,30.0,11.0,0.0
7387,58.0,0.0,30.0,12.0,0.0
7388,80.0,1.0,60.0,2.0,0.0
7389,51.0,28.0,30.0,6.0,0.0
7390,67.0,1.0,30.0,11.0,0.0
7391,55.0,0.0,30.0,12.0,0.0
7392,46.0,28.0,30.0,6.0,0.0
7393,63.0,0.0,30.0,11.0,0.0
7394,58.0,2.0,30.0,12.0,0.0
7395,79.0,4.0,60.0,2.0,0.0
7396,51.0,24.0,30.0,6.0,0.0
7397,55.0,2.0,30.0,12.0,0.0
7398,67.0,0.0,30.0,11.0,0.0
7399,46.0,28.0,30.0,6.0,0.0
7400,63.0,0.0,30.0,11.0,0.0
7401,58.0,2.0,30.0,12.0,0.0
7402,79.0,1.0,60.0,2.0,0.0
7403,51.0,26.0,30.0,6.0,0.0
7404,67.0,0.0,30.0,11.0,0.0
7405,55.0,1.0,30.0,12.0,0.0
7406,46.0,28.0,30.0,6.0,0.0
7407,75.0,3.0,180.0,0.0,0.0
7408,63.0,0.0,30.0,11.0,0.0
7409,58.0,2.0,30.0,12.0,0.0
7410,77.0,1.0,60.0,2.0,0.0
7411,51.0,28.0,30.0,6.0,0.0
7412,55.0,0.0,30.0,12.0,0.0
7413,67.0,1.0,30.0,11.0,0.0
7414,46.0,26.0,30.0,6.0,0.0
7415,75.0,2.0,30.0,10.0,0.0
7416,58.0,2.0,30.0,12.0,0.0
7417,63.0,0.0,30.0,11.0,0.0
7418,75.0,2.0,60.0,2.0,0.0
7419,51.0,24.0,30.0,6.0,0.0
7420,77.0,2.0,30.0,10.0,0.0
7421,55.0,2.0,30.0,12.0,0.0
7422,67.0,0.0,30.0,11.0,0.0
7423,46.0,26.0,30.0,6.0,0.0
7424,79.0,2.0,30.0,10.0,0.0
7425,58.0,0.0,30.0,12.0,0.0
7426,63.0,2.0,30.0,11.0,0.0
7427,75.0,7.0,60.0,2.0,0.0
7428,51.0,21.0,30.0,6.0,0.0
7429,75.0,2.0,30.0,10.0,0.0
7430,55.0,2.0,30.0,12.0,0.0
7431,67.0,0.0,30.0,11.0,0.0
7432,46.0,1.0,30.0,6.0,0.0
7433,74.0,10.0,15.0,10.0,0.0
7434,58.0,2.0,30.0,12.0,0.0
7435,65.0,0.0,30.0,11.0,0.0
7436,74.0,1.0,60.0,2.0,0.0
7437,50.0,26.0,30.0,6.0,0.0
7438,46.0,0.0,720.0,3.0,0.0
7439,46.0,3.0,120.0,13.0,0.0
7440,34.0,24.0,120.0,14.0,0.0
7441,75.0,10.0,15.0,10.0,0.0
7442,77.0,2.0,15.0,10.0,0.0
7443,75.0,2.0,30.0,10.0,0.0
7444,56.0,0.0,30.0,12.0,0.0
7445,68.0,1.0,30.0,11.0,0.0
7446,46.0,28.0,30.0,6.0,0.0
7447,74.0,2.0,120.0,10.0,0.0
7448,58.0,2.0,30.0,12.0,0.0
7449,65.0,0.0,30.0,11.0,0.0
7450,50.0,26.0,30.0,6.0,0.0
7451,68.0,2.0,60.0,3.0,0.0
7452,56.0,2.0,30.0,12.0,0.0
7453,68.0,0.0,30.0,11.0,0.0
7454,46.0,1.0,30.0,6.0,0.0
7455,65.0,2.0,30.0,11.0,0.0
7456,58.0,0.0,30.0,12.0,0.0
7457,50.0,26.0,30.0,6.0,0.0
7458,68.0,27.0,60.0,3.0,0.0
7459,56.0,0.0,30.0,12.0,0.0
7460,68.0,2.0,30.0,11.0,0.0
7461,46.0,1.0,30.0,6.0,0.0
7462,82.0,5.0,180.0,0.0,0.0
7463,58.0,0.0,30.0,12.0,0.0
7464,65.0,2.0,30.0,11.0,0.0
7465,50.0,28.0,30.0,6.0,0.0
7466,70.0,27.0,60.0,3.0,0.0
7467,56.0,2.0,30.0,12.0,0.0
7468,68.0,0.0,30.0,11.0,0.0
7469,46.0,1.0,30.0,6.0,0.0
7470,65.0,0.0,30.0,11.0,0.0
7471,58.0,2.0,30.0,12.0,0.0
7472,50.0,26.0,30.0,6.0,0.0
7473,68.0,2.0,60.0,3.0,0.0
7474,56.0,0.0,30.0,12.0,0.0
7475,68.0,2.0,30.0,11.0,0.0
7476,46.0,28.0,30.0,6.0,0.0
7477,58.0,2.0,30.0,12.0,0.0
7478,65.0,0.0,30.0,11.0,0.0
7479,50.0,23.0,30.0,6.0,0.0
7480,68.0,27.0,60.0,3.0,0.0
7481,68.0,0.0,30.0,11.0,0.0
7482,56.0,2.0,30.0,12.0,0.0
7483,46.0,1.0,30.0,6.0,0.0
7484,80.0,2.0,180.0,0.0,0.0
7485,58.0,2.0,30.0,12.0,0.0
7486,65.0,0.0,30.0,11.0,0.0
7487,50.0,28.0,30.0,6.0,0.0
7488,67.0,27.0,60.0,3.0,0.0
7489,68.0,2.0,30.0,11.0,0.0
7490,56.0,0.0,30.0,12.0,0.0
7491,46.0,1.0,30.0,6.0,0.0
7492,58.0,0.0,30.0,12.0,0.0
7493,65.0,2.0,30.0,11.0,0.0
7494,50.0,26.0,30.0,6.0,0.0
7495,65.0,2.0,60.0,3.0,0.0
7496,68.0,2.0,30.0,11.0,0.0
7497,56.0,0.0,30.0,12.0,0.0
7498,46.0,28.0,30.0,6.0,0.0
7499,58.0,2.0,30.0,12.0,0.0
7500,65.0,0.0,30.0,11.0,0.0
7501,50.0,26.0,30.0,6.0,0.0
7502,65.0,27.0,60.0,3.0,0.0
7503,68.0,0.0,30.0,11.0,0.0
7504,56.0,2.0,30.0,12.0,0.0
7505,46.0,1.0,30.0,6.0,0.0
7506,77.0,32.0,180.0,0.0,0.0
7507,58.0,2.0,30.0,12.0,0.0
7508,65.0,0.0,30.0,11.0,0.0
7509,50.0,28.0,30.0,6.0,0.0
7510,63.0,27.0,60.0,3.0,0.0
7511,68.0,2.0,30.0,11.0,0.0
7512,56.0,0.0,30.0,12.0,0.0
7513,46.0,1.0,30.0,6.0,0.0
7514,77.0,0.0,60.0,10.0,0.0
7515,58.0,2.0,30.0,12.0,0.0
7516,65.0,0.0,30.0,11.0,0.0
7517,50.0,26.0,30.0,6.0,0.0
7518,62.0,2.0,60.0,3.0,0.0
7519,56.0,0.0,30.0,12.0,0.0
7520,68.0,2.0,30.0,11.0,0.0
7521,46.0,26.0,30.0,6.0,0.0
7522,79.0,2.0,30.0,10.0,0.0
7523,58.0,0.0,30.0,12.0,0.0
7524,65.0,2.0,30.0,11.0,0.0
7525,50.0,21.0,30.0,6.0,0.0
7526,62.0,0.0,60.0,3.0,0.0
7527,80.0,2.0,30.0,10.0,0.0
7528,68.0,0.0,30.0,11.0,0.0
7529,56.0,2.0,30.0,12.0,0.0
7530,46.0,1.0,30.0,6.0,0.0
7531,82.0,2.0,240.0,10.0,0.0
7532,58.0,0.0,30.0,12.0,0.0
7533,63.0,2.0,30.0,12.0,0.0
7534,63.0,0.0,30.0,11.0,0.0
7535,82.0,29.0,360.0,2.0,0.0
7536,55.0,28.0,30.0,6.0,0.0
7537,51.0,0.0,120.0,3.0,0.0
7538,63.0,3.0,120.0,3.0,0.0
7539,51.0,0.0,120.0,13.0,0.0
7540,39.0,24.0,120.0,14.0,0.0
7541,70.0,0.0,30.0,11.0,0.0
7542,55.0,0.0,30.0,12.0,0.0
7543,51.0,28.0,30.0,6.0,0.0
7544,63.0,0.0,30.0,11.0,0.0
7545,63.0,2.0,30.0,12.0,0.0
7546,58.0,2.0,15.0,12.0,0.0
7547,55.0,28.0,30.0,6.0,0.0
7548,70.0,0.0,30.0,11.0,0.0
7549,55.0,0.0,30.0,12.0,0.0
7550,51.0,1.0,30.0,6.0,0.0
7551,63.0,0.0,30.0,11.0,0.0
7552,63.0,2.0,30.0,12.0,0.0
7553,58.0,2.0,15.0,12.0,0.0
7554,55.0,28.0,30.0,6.0,0.0
7555,58.0,0.0,15.0,12.0,0.0
7556,55.0,2.0,30.0,12.0,0.0
7557,70.0,0.0,30.0,11.0,0.0
7558,51.0,28.0,30.0,6.0,0.0
7559,63.0,0.0,30.0,11.0,0.0
7560,63.0,2.0,30.0,12.0,0.0
7561,58.0,0.0,30.0,12.0,0.0
7562,55.0,26.0,30.0,6.0,0.0
7563,70.0,2.0,30.0,11.0,0.0
7564,55.0,0.0,30.0,12.0,0.0
7565,51.0,28.0,30.0,6.0,0.0
7566,79.0,2.0,60.0,10.0,0.0
7567,63.0,2.0,30.0,12.0,0.0
7568,58.0,0.0,15.0,12.0,0.0
7569,63.0,0.0,30.0,11.0,0.0
7570,55.0,26.0,30.0,6.0,0.0
7571,70.0,0.0,30.0,11.0,0.0
7572,55.0,2.0,30.0,12.0,0.0
7573,58.0,0.0,30.0,12.0,0.0
7574,51.0,28.0,30.0,6.0,0.0
7575,75.0,2.0,60.0,10.0,0.0
7576,63.0,0.0,30.0,12.0,0.0
7577,58.0,2.0,30.0,12.0,0.0
7578,63.0,0.0,30.0,11.0,0.0
7579,55.0,21.0,30.0,6.0,0.0
7580,70.0,0.0,30.0,11.0,0.0
7581,58.0,2.0,30.0,12.0,0.0
7582,55.0,0.0,30.0,12.0,0.0
7583,51.0,4.0,30.0,6.0,0.0
7584,75.0,2.0,150.0,10.0,0.0
7585,63.0,2.0,30.0,12.0,0.0
7586,59.0,0.0,30.0,12.0,0.0
7587,63.0,0.0,30.0,11.0,0.0
7588,83.0,4.0,900.0,2.0,0.0
7589,56.0,28.0,30.0,6.0,0.0
7590,51.0,3.0,120.0,13.0,0.0
7591,39.0,22.0,120.0,14.0,0.0
7592,71.0,0.0,30.0,11.0,0.0
7593,55.0,2.0,30.0,12.0,0.0
7594,51.0,28.0,30.0,6.0,0.0
7595,59.0,0.0,15.0,12.0,0.0
7596,63.0,0.0,30.0,12.0,0.0
7597,63.0,0.0,30.0,11.0,0.0
7598,56.0,28.0,30.0,6.0,0.0
7599,71.0,0.0,30.0,11.0,0.0
7600,59.0,2.0,30.0,12.0,0.0
7601,55.0,0.0,30.0,12.0,0.0
7602,51.0,1.0,30.0,6.0,0.0
7603,63.0,2.0,30.0,11.0,0.0
7604,59.0,0.0,30.0,12.0,0.0
7605,63.0,0.0,30.0,12.0,0.0
7606,56.0,6.0,30.0,6.0,0.0
7607,77.0,10.0,15.0,10.0,0.0
7608,71.0,0.0,30.0,11.0,0.0
7609,55.0,2.0,30.0,12.0,0.0
7610,51.0,28.0,30.0,6.0,0.0
7611,75.0,10.0,15.0,10.0,0.0
7612,74.0,2.0,15.0,10.0,0.0
7613,75.0,2.0,60.0,10.0,0.0
7614,63.0,0.0,30.0,11.0,0.0
7615,59.0,0.0,15.0,12.0,0.0
7616,63.0,0.0,30.0,12.0,0.0
7617,56.0,26.0,30.0,6.0,0.0
7618,71.0,2.0,30.0,11.0,0.0
7619,55.0,0.0,30.0,12.0,0.0
7620,59.0,2.0,15.0,12.0,0.0
7621,51.0,28.0,30.0,6.0,0.0
7622,80.0,2.0,60.0,10.0,0.0
7623,59.0,0.0,15.0,12.0,0.0
7624,63.0,0.0,30.0,12.0,0.0
7625,63.0,2.0,30.0,11.0,0.0
7626,56.0,26.0,30.0,6.0,0.0
7627,55.0,2.0,30.0,12.0,0.0
7628,71.0,0.0,30.0,11.0,0.0
7629,51.0,21.0,30.0,6.0,0.0
7630,83.0,7.0,30.0,10.0,0.0
7631,59.0,0.0,15.0,12.0,0.0
7632,63.0,0.0,30.0,11.0,0.0
7633,63.0,0.0,30.0,12.0,0.0
7634,56.0,21.0,30.0,6.0,0.0
7635,83.0,2.0,30.0,10.0,0.0
7636,55.0,0.0,30.0,12.0,0.0
7637,71.0,0.0,30.0,11.0,0.0
7638,59.0,2.0,30.0,12.0,0.0
7639,51.0,33.0,30.0,6.0,0.0
7640,83.0,2.0,720.0,10.0,0.0
7641,87.0,0.0,360.0,1.0,0.0
7642,59.0,0.0,30.0,12.0,0.0
7643,63.0,0.0,30.0,11.0,0.0
7644,54.0,28.0,30.0,6.0,0.0
7645,51.0,3.0,180.0,13.0,0.0
7646,39.0,24.0,180.0,14.0,0.0
7647,71.0,0.0,30.0,11.0,0.0
7648,57.0,2.0,15.0,12.0,0.0
7649,54.0,2.0,30.0,12.0,0.0
7650,51.0,28.0,30.0,6.0,0.0
7651,59.0,2.0,30.0,12.0,0.0
7652,63.0,0.0,30.0,11.0,0.0
7653,54.0,28.0,30.0,6.0,0.0
7654,71.0,0.0,30.0,11.0,0.0
7655,57.0,0.0,15.0,12.0,0.0
7656,54.0,2.0,30.0,12.0,0.0
7657,51.0,28.0,30.0,6.0,0.0
7658,59.0,0.0,30.0,12.0,0.0
7659,63.0,0.0,30.0,11.0,0.0
7660,54.0,28.0,30.0,6.0,0.0
7661,57.0,2.0,15.0,12.0,0.0
7662,71.0,2.0,30.0,11.0,0.0
7663,54.0,0.0,30.0,12.0,0.0
7664,59.0,0.0,30.0,12.0,0.0
7665,63.0,2.0,30.0,11.0,0.0
7666,57.0,0.0,30.0,12.0,0.0
7667,51.0,1.0,15.0,6.0,0.0
7668,47.0,3.0,180.0,13.0,0.0
7669,35.0,24.0,180.0,14.0,0.0
7670,71.0,2.0,30.0,11.0,0.0
7671,57.0,0.0,30.0,12.0,0.0
7672,54.0,0.0,30.0,12.0,0.0
7673,47.0,28.0,30.0,6.0,0.0
7674,63.0,2.0,30.0,11.0,0.0
7675,59.0,0.0,30.0,12.0,0.0
7676,51.0,28.0,30.0,6.0,0.0
7677,71.0,2.0,30.0,11.0,0.0
7678,57.0,0.0,15.0,12.0,0.0
7679,54.0,0.0,30.0,12.0,0.0
7680,47.0,28.0,30.0,6.0,0.0
7681,63.0,2.0,30.0,11.0,0.0
7682,59.0,0.0,30.0,12.0,0.0
7683,57.0,0.0,30.0,12.0,0.0
7684,59.0,23.0,30.0,6.0,0.0
7685,54.0,2.0,30.0,12.0,0.0
7686,57.0,0.0,30.0,12.0,0.0
7687,71.0,0.0,30.0,11.0,0.0
7688,47.0,6.0,30.0,6.0,0.0
7689,64.0,0.0,30.0,11.0,0.0
7690,88.0,0.0,360.0,1.0,0.0
7691,59.0,0.0,30.0,12.0,0.0
7692,79.0,0.0,180.0,2.0,0.0
7693,52.0,1.0,180.0,6.0,0.0
7694,64.0,0.0,180.0,3.0,0.0
7695,64.0,4.0,360.0,5.0,0.0
7696,52.0,3.0,180.0,13.0,0.0
7697,52.0,0.0,180.0,3.0,0.0
7698,40.0,24.0,180.0,14.0,0.0
7699,55.0,30.0,15.0,12.0,0.0
7700,52.0,30.0,30.0,12.0,0.0
7701,71.0,0.0,30.0,11.0,0.0
7702,59.0,0.0,30.0,12.0,0.0
7703,64.0,30.0,30.0,11.0,0.0
7704,55.0,0.0,15.0,12.0,0.0
7705,52.0,0.0,30.0,12.0,0.0
7706,71.0,30.0,30.0,11.0,0.0
7707,59.0,0.0,30.0,12.0,0.0
7708,64.0,26.0,30.0,11.0,0.0
7709,55.0,0.0,15.0,12.0,0.0
7710,71.0,0.0,30.0,11.0,0.0
7711,52.0,0.0,30.0,12.0,0.0
7712,64.0,0.0,30.0,11.0,0.0
7713,55.0,2.0,15.0,12.0,0.0
7714,59.0,0.0,30.0,12.0,0.0
7715,83.0,0.0,180.0,1.0,0.0
7716,76.0,0.0,180.0,2.0,0.0
7717,79.0,0.0,180.0,2.0,0.0
7718,67.0,2.0,180.0,4.0,0.0
7719,50.0,1.0,180.0,6.0,0.0
7720,62.0,0.0,180.0,3.0,0.0
7721,50.0,0.0,180.0,3.0,0.0
7722,50.0,3.0,180.0,13.0,0.0
7723,38.0,24.0,180.0,14.0,0.0
7724,55.0,30.0,15.0,12.0,0.0
7725,52.0,0.0,30.0,12.0,0.0
7726,71.0,0.0,30.0,11.0,0.0
7727,55.0,30.0,15.0,12.0,0.0
7728,64.0,0.0,30.0,11.0,0.0
7729,59.0,0.0,30.0,12.0,0.0
7730,55.0,30.0,15.0,12.0,0.0
7731,71.0,0.0,30.0,11.0,0.0
7732,52.0,0.0,30.0,12.0,0.0
7733,64.0,0.0,30.0,11.0,0.0
7734,59.0,0.0,30.0,12.0,0.0
7735,55.0,23.0,15.0,12.0,0.0
7736,52.0,0.0,30.0,12.0,0.0
7737,71.0,1.0,30.0,11.0,0.0
7738,81.0,2.0,540.0,10.0,0.0
7739,88.0,0.0,360.0,0.0,0.0
7740,85.0,2.0,360.0,0.0,0.0
7741,57.0,0.0,30.0,12.0,0.0
7742,64.0,0.0,30.0,11.0,0.0
7743,81.0,0.0,540.0,1.0,0.0
7744,88.0,0.0,360.0,1.0,0.0
7745,76.0,1.0,180.0,2.0,0.0
7746,79.0,0.0,360.0,2.0,0.0
7747,67.0,0.0,180.0,4.0,0.0
7748,49.0,1.0,180.0,6.0,0.0
7749,64.0,2.0,180.0,5.0,0.0
7750,61.0,0.0,180.0,3.0,0.0
7751,49.0,0.0,180.0,13.0,0.0
7752,49.0,0.0,180.0,3.0,0.0
7753,37.0,29.0,180.0,14.0,0.0
7754,69.0,0.0,30.0,11.0,0.0
7755,52.0,0.0,30.0,12.0,0.0
7756,55.0,30.0,15.0,12.0,0.0
7757,64.0,0.0,30.0,11.0,0.0
7758,57.0,30.0,30.0,12.0,0.0
7759,69.0,0.0,30.0,11.0,0.0
7760,55.0,0.0,15.0,12.0,0.0
7761,52.0,0.0,30.0,12.0,0.0
7762,64.0,26.0,30.0,11.0,0.0
7763,57.0,0.0,30.0,12.0,0.0
7764,55.0,30.0,15.0,12.0,0.0
7765,69.0,0.0,30.0,11.0,0.0
7766,52.0,0.0,30.0,12.0,0.0
7767,55.0,1.0,30.0,12.0,0.0
7768,57.0,0.0,30.0,12.0,0.0
7769,64.0,0.0,30.0,11.0,0.0
7770,64.0,1.0,180.0,4.0,0.0
7771,73.0,0.0,180.0,2.0,0.0
7772,45.0,1.0,180.0,6.0,0.0
7773,45.0,0.0,180.0,3.0,0.0
7774,45.0,0.0,180.0,13.0,0.0
7775,57.0,0.0,180.0,3.0,0.0
7776,57.0,3.0,180.0,5.0,0.0
7777,33.0,29.0,180.0,14.0,0.0
7778,69.0,0.0,30.0,11.0,0.0
7779,52.0,30.0,30.0,12.0,0.0
7780,55.0,30.0,15.0,12.0,0.0
7781,64.0,0.0,30.0,11.0,0.0
7782,55.0,0.0,15.0,12.0,0.0
7783,57.0,30.0,30.0,12.0,0.0
7784,55.0,0.0,15.0,12.0,0.0
7785,52.0,0.0,30.0,12.0,0.0
7786,69.0,30.0,30.0,11.0,0.0
7787,55.0,0.0,15.0,12.0,0.0
7788,57.0,23.0,30.0,12.0,0.0
7789,64.0,0.0,30.0,11.0,0.0
7790,69.0,0.0,30.0,11.0,0.0
7791,55.0,1.0,30.0,12.0,0.0
7792,52.0,0.0,30.0,12.0,0.0
7793,86.0,0.0,360.0,0.0,0.0
7794,90.0,0.0,180.0,0.0,0.0
7795,90.0,0.0,180.0,1.0,0.0
7796,62.0,30.0,30.0,11.0,0.0
7797,57.0,0.0,30.0,12.0,0.0
7798,78.0,0.0,180.0,2.0,0.0
7799,74.0,1.0,180.0,2.0,0.0
7800,66.0,0.0,180.0,4.0,0.0
7801,50.0,1.0,180.0,6.0,0.0
7802,50.0,0.0,180.0,13.0,0.0
7803,62.0,0.0,180.0,5.0,0.0
7804,50.0,0.0,180.0,3.0,0.0
7805,62.0,3.0,180.0,3.0,0.0
7806,38.0,29.0,180.0,14.0,0.0
7807,54.0,30.0,30.0,12.0,0.0
7808,69.0,0.0,30.0,11.0,0.0
7809,62.0,30.0,30.0,11.0,0.0
7810,59.0,0.0,30.0,12.0,0.0
7811,54.0,0.0,30.0,12.0,0.0
7812,71.0,30.0,30.0,11.0,0.0
7813,62.0,23.0,30.0,11.0,0.0
7814,59.0,0.0,30.0,12.0,0.0
7815,71.0,1.0,30.0,11.0,0.0
7816,54.0,0.0,30.0,12.0,0.0
7817,80.0,0.0,180.0,10.0,0.0
7818,88.0,2.0,180.0,0.0,0.0
7819,80.0,0.0,180.0,1.0,0.0
7820,83.0,1.0,180.0,1.0,0.0
7821,71.0,0.0,30.0,11.0,0.0
7822,62.0,30.0,30.0,12.0,0.0
7823,59.0,0.0,30.0,12.0,0.0
7824,80.0,0.0,180.0,2.0,0.0
7825,71.0,0.0,180.0,2.0,0.0
7826,64.0,1.0,180.0,4.0,0.0
7827,52.0,1.0,180.0,6.0,0.0
7828,64.0,0.0,180.0,3.0,0.0
7829,52.0,3.0,180.0,3.0,0.0
7830,64.0,0.0,180.0,5.0,0.0
7831,52.0,0.0,180.0,13.0,0.0
7832,40.0,29.0,180.0,14.0,0.0
7833,74.0,30.0,30.0,11.0,0.0
7834,52.0,0.0,30.0,12.0,0.0
7835,59.0,0.0,15.0,12.0,0.0
7836,71.0,0.0,30.0,11.0,0.0
7837,62.0,0.0,30.0,12.0,0.0
7838,59.0,30.0,15.0,12.0,0.0
7839,52.0,0.0,30.0,12.0,0.0
7840,74.0,0.0,30.0,11.0,0.0
7841,71.0,23.0,30.0,11.0,0.0
7842,59.0,30.0,15.0,12.0,0.0
7843,62.0,0.0,30.0,12.0,0.0
7844,59.0,0.0,15.0,12.0,0.0
7845,52.0,0.0,30.0,12.0,0.0
7846,74.0,0.0,30.0,11.0,0.0
7847,79.0,2.0,180.0,10.0,0.0
7848,88.0,0.0,120.0,0.0,0.0
7849,85.0,2.0,120.0,0.0,0.0
7850,79.0,0.0,120.0,1.0,0.0
7851,61.0,0.0,30.0,12.0,0.0
7852,85.0,0.0,120.0,1.0,0.0
7853,73.0,27.0,30.0,11.0,0.0
7854,76.0,0.0,240.0,2.0,0.0
7855,64.0,0.0,360.0,4.0,0.0
7856,79.0,1.0,240.0,2.0,0.0
7857,45.0,3.0,60.0,6.0,0.0
7858,57.0,2.0,360.0,5.0,0.0
7859,45.0,0.0,120.0,3.0,0.0
7860,57.0,0.0,120.0,3.0,0.0
7861,45.0,3.0,120.0,13.0,0.0
7862,33.0,24.0,120.0,14.0,0.0
7863,64.0,0.0,30.0,12.0,0.0
7864,76.0,30.0,30.0,11.0,0.0
7865,64.0,2.0,30.0,12.0,0.0
7866,79.0,0.0,30.0,11.0,0.0
7867,64.0,26.0,30.0,6.0,0.0
7868,76.0,0.0,30.0,11.0,0.0
7869,67.0,2.0,30.0,12.0,0.0
7870,67.0,1.0,30.0,6.0,0.0
7871,64.0,2.0,30.0,12.0,0.0
7872,79.0,0.0,30.0,11.0,0.0
7873,64.0,26.0,30.0,6.0,0.0
7874,76.0,2.0,30.0,11.0,0.0
7875,67.0,0.0,30.0,12.0,0.0
7876,67.0,28.0,30.0,6.0,0.0
7877,64.0,2.0,30.0,12.0,0.0
7878,79.0,0.0,30.0,11.0,0.0
7879,64.0,28.0,30.0,6.0,0.0
7880,76.0,0.0,30.0,11.0,0.0
7881,67.0,1.0,30.0,12.0,0.0
7882,67.0,28.0,30.0,6.0,0.0
7883,69.0,10.0,60.0,10.0,0.0
7884,66.0,0.0,30.0,12.0,0.0
7885,81.0,2.0,30.0,11.0,0.0
7886,81.0,1.0,60.0,2.0,0.0
7887,78.0,0.0,60.0,2.0,0.0
7888,66.0,18.0,30.0,6.0,0.0
7889,69.0,0.0,30.0,12.0,0.0
7890,78.0,1.0,30.0,11.0,0.0
7891,69.0,6.0,30.0,6.0,0.0
7892,71.0,10.0,15.0,10.0,0.0
7893,79.0,2.0,30.0,11.0,0.0
7894,64.0,0.0,30.0,12.0,0.0
7895,79.0,2.0,60.0,2.0,0.0
7896,76.0,0.0,60.0,2.0,0.0
7897,64.0,6.0,30.0,6.0,0.0
7898,69.0,10.0,15.0,10.0,0.0
7899,71.0,2.0,15.0,10.0,0.0
7900,69.0,10.0,15.0,10.0,0.0
7901,67.0,0.0,30.0,12.0,0.0
7902,76.0,2.0,30.0,11.0,0.0
7903,67.0,28.0,30.0,6.0,0.0
7904,68.0,8.0,15.0,10.0,0.0
7905,69.0,0.0,15.0,10.0,0.0
7906,90.0,2.0,120.0,0.0,0.0
7907,81.0,0.0,120.0,10.0,0.0
7908,86.0,2.0,120.0,1.0,0.0
7909,62.0,0.0,30.0,12.0,0.0
7910,78.0,2.0,30.0,11.0,0.0
7911,78.0,1.0,240.0,2.0,0.0
7912,74.0,0.0,240.0,2.0,0.0
7913,57.0,1.0,360.0,4.0,0.0
7914,62.0,28.0,30.0,6.0,0.0
7915,45.0,32.0,360.0,5.0,0.0
7916,66.0,2.0,30.0,12.0,0.0
7917,74.0,0.0,30.0,11.0,0.0
7918,66.0,28.0,30.0,6.0,0.0
7919,62.0,0.0,30.0,12.0,0.0
7920,78.0,2.0,30.0,11.0,0.0
7921,62.0,26.0,30.0,6.0,0.0
7922,74.0,0.0,30.0,11.0,0.0
7923,66.0,0.0,30.0,12.0,0.0
7924,66.0,28.0,30.0,6.0,0.0
7925,78.0,2.0,30.0,11.0,0.0
7926,62.0,0.0,30.0,12.0,0.0
7927,62.0,28.0,30.0,6.0,0.0
7928,66.0,0.0,30.0,12.0,0.0
7929,74.0,2.0,30.0,11.0,0.0
7930,66.0,28.0,30.0,6.0,0.0
7931,62.0,2.0,30.0,12.0,0.0
7932,78.0,0.0,30.0,11.0,0.0
7933,62.0,28.0,30.0,6.0,0.0
7934,74.0,1.0,30.0,11.0,0.0
7935,66.0,0.0,30.0,12.0,0.0
7936,66.0,28.0,30.0,6.0,0.0
7937,69.0,10.0,60.0,10.0,0.0
7938,64.0,2.0,30.0,12.0,0.0
7939,79.0,0.0,30.0,11.0,0.0
7940,76.0,1.0,60.0,2.0,0.0
7941,79.0,0.0,60.0,2.0,0.0
7942,64.0,18.0,30.0,6.0,0.0
7943,67.0,0.0,30.0,12.0,0.0
7944,76.0,1.0,30.0,11.0,0.0
7945,67.0,6.0,30.0,6.0,0.0
7946,71.0,10.0,15.0,10.0,0.0
7947,78.0,2.0,30.0,11.0,0.0
7948,62.0,0.0,30.0,12.0,0.0
7949,78.0,0.0,60.0,2.0,0.0
7950,74.0,0.0,60.0,2.0,0.0
7951,62.0,6.0,30.0,6.0,0.0
7952,69.0,10.0,15.0,10.0,0.0
7953,71.0,2.0,15.0,10.0,0.0
7954,69.0,10.0,15.0,10.0,0.0
7955,74.0,0.0,30.0,11.0,0.0
7956,66.0,1.0,30.0,12.0,0.0
7957,66.0,1.0,30.0,6.0,0.0
7958,68.0,7.0,15.0,10.0,0.0
7959,69.0,0.0,15.0,10.0,0.0
7960,81.0,2.0,120.0,10.0,0.0
7961,88.0,0.0,120.0,0.0,0.0
7962,76.0,0.0,30.0,11.0,0.0
7963,85.0,0.0,120.0,1.0,0.0
7964,61.0,2.0,30.0,12.0,0.0
7965,57.0,0.0,360.0,4.0,0.0
7966,73.0,0.0,240.0,2.0,0.0
7967,76.0,1.0,240.0,2.0,0.0
7968,61.0,28.0,30.0,6.0,0.0
7969,45.0,3.0,120.0,13.0,0.0
7970,45.0,2.0,360.0,5.0,0.0
7971,64.0,27.0,240.0,3.0,0.0
7972,61.0,0.0,240.0,3.0,0.0
7973,33.0,24.0,120.0,14.0,0.0
7974,73.0,0.0,30.0,11.0,0.0
7975,64.0,2.0,30.0,12.0,0.0
7976,64.0,28.0,30.0,6.0,0.0
7977,76.0,2.0,30.0,12.0,0.0
7978,76.0,0.0,30.0,11.0,0.0
7979,61.0,26.0,30.0,6.0,0.0
7980,73.0,2.0,30.0,11.0,0.0
7981,73.0,0.0,30.0,12.0,0.0
7982,64.0,1.0,30.0,6.0,0.0
7983,76.0,0.0,30.0,12.0,0.0
7984,76.0,2.0,30.0,11.0,0.0
7985,61.0,28.0,30.0,6.0,0.0
7986,73.0,2.0,30.0,12.0,0.0
7987,73.0,0.0,30.0,11.0,0.0
7988,64.0,28.0,30.0,6.0,0.0
7989,76.0,2.0,30.0,11.0,0.0
7990,76.0,0.0,30.0,12.0,0.0
7991,61.0,28.0,30.0,6.0,0.0
7992,73.0,1.0,30.0,11.0,0.0
7993,73.0,0.0,30.0,12.0,0.0
7994,64.0,1.0,30.0,6.0,0.0
7995,69.0,10.0,60.0,10.0,0.0
7996,78.0,0.0,30.0,11.0,0.0
7997,78.0,2.0,30.0,12.0,0.0
7998,78.0,1.0,60.0,2.0,0.0
7999,74.0,0.0,60.0,2.0,0.0
8000,62.0,18.0,30.0,6.0,0.0
8001,62.0,0.0,60.0,3.0,0.0
8002,66.0,5.0,60.0,3.0,0.0
8003,74.0,0.0,30.0,11.0,0.0
8004,74.0,1.0,30.0,12.0,0.0
8005,66.0,1.0,30.0,6.0,0.0
8006,71.0,10.0,15.0,10.0,0.0
8007,76.0,2.0,30.0,12.0,0.0
8008,76.0,0.0,30.0,11.0,0.0
8009,76.0,2.0,60.0,2.0,0.0
8010,73.0,0.0,60.0,2.0,0.0
8011,61.0,6.0,30.0,6.0,0.0
8012,64.0,0.0,60.0,3.0,0.0
8013,61.0,0.0,60.0,3.0,0.0
8014,69.0,10.0,15.0,10.0,0.0
8015,71.0,2.0,15.0,10.0,0.0
8016,69.0,10.0,15.0,10.0,0.0
8017,73.0,2.0,30.0,11.0,0.0
8018,73.0,0.0,30.0,12.0,0.0
8019,64.0,28.0,30.0,6.0,0.0
8020,68.0,8.0,15.0,10.0,0.0
8021,69.0,0.0,15.0,10.0,0.0
8022,81.0,2.0,120.0,10.0,0.0
8023,86.0,0.0,120.0,0.0,0.0
8024,74.0,2.0,30.0,12.0,0.0
8025,74.0,0.0,30.0,11.0,0.0
8026,83.0,0.0,120.0,1.0,0.0
8027,71.0,0.0,240.0,2.0,0.0
8028,74.0,1.0,240.0,2.0,0.0
8029,57.0,1.0,360.0,4.0,0.0
8030,59.0,28.0,30.0,6.0,0.0
8031,45.0,0.0,360.0,5.0,0.0
8032,62.0,0.0,240.0,3.0,0.0
8033,59.0,27.0,240.0,3.0,0.0
8034,71.0,0.0,30.0,12.0,0.0
8035,71.0,2.0,30.0,11.0,0.0
8036,62.0,28.0,30.0,6.0,0.0
8037,74.0,2.0,30.0,12.0,0.0
8038,74.0,0.0,30.0,11.0,0.0
8039,59.0,26.0,30.0,6.0,0.0
8040,71.0,2.0,30.0,12.0,0.0
8041,71.0,0.0,30.0,11.0,0.0
8042,62.0,28.0,30.0,6.0,0.0
8043,74.0,2.0,30.0,12.0,0.0
8044,74.0,0.0,30.0,11.0,0.0
8045,59.0,28.0,30.0,6.0,0.0
8046,71.0,0.0,30.0,12.0,0.0
8047,71.0,2.0,30.0,11.0,0.0
8048,62.0,28.0,30.0,6.0,0.0
8049,74.0,0.0,30.0,11.0,0.0
8050,74.0,2.0,30.0,12.0,0.0
8051,59.0,28.0,30.0,6.0,0.0
8052,71.0,1.0,30.0,12.0,0.0
8053,71.0,0.0,30.0,11.0,0.0
8054,62.0,1.0,30.0,6.0,0.0
8055,69.0,10.0,60.0,10.0,0.0
8056,76.0,0.0,30.0,11.0,0.0
8057,76.0,2.0,30.0,12.0,0.0
8058,76.0,1.0,60.0,2.0,0.0
8059,73.0,0.0,60.0,2.0,0.0
8060,61.0,18.0,30.0,6.0,0.0
8061,61.0,5.0,60.0,3.0,0.0
8062,64.0,0.0,60.0,3.0,0.0
8063,73.0,1.0,30.0,11.0,0.0
8064,73.0,0.0,30.0,12.0,0.0
8065,64.0,1.0,30.0,6.0,0.0
8066,71.0,10.0,15.0,10.0,0.0
8067,74.0,2.0,30.0,12.0,0.0
8068,74.0,0.0,30.0,11.0,0.0
8069,74.0,0.0,60.0,2.0,0.0
8070,71.0,0.0,60.0,2.0,0.0
8071,59.0,6.0,30.0,6.0,0.0
8072,62.0,0.0,60.0,3.0,0.0
8073,59.0,0.0,60.0,3.0,0.0
8074,69.0,10.0,15.0,10.0,0.0
8075,71.0,2.0,15.0,10.0,0.0
8076,69.0,10.0,15.0,10.0,0.0
8077,71.0,0.0,30.0,11.0,0.0
8078,71.0,1.0,30.0,12.0,0.0
8079,62.0,1.0,30.0,6.0,0.0
8080,68.0,7.0,15.0,10.0,0.0
8081,69.0,32.0,15.0,10.0,0.0
8082,85.0,2.0,60.0,0.0,0.0
8083,73.0,2.0,30.0,11.0,0.0
8084,73.0,0.0,30.0,12.0,0.0
8085,69.0,0.0,60.0,2.0,0.0
8086,73.0,1.0,60.0,2.0,0.0
8087,57.0,2.0,1020.0,4.0,0.0
8088,57.0,26.0,30.0,6.0,0.0
8089,45.0,0.0,120.0,13.0,0.0
8090,45.0,2.0,1020.0,5.0,0.0
8091,61.0,27.0,60.0,3.0,0.0
8092,57.0,0.0,60.0,3.0,0.0
8093,33.0,2.0,120.0,14.0,0.0
8094,69.0,0.0,30.0,11.0,0.0
8095,69.0,1.0,30.0,12.0,0.0
8096,61.0,1.0,30.0,6.0,0.0
8097,86.0,2.0,60.0,0.0,0.0
8098,81.0,8.0,60.0,10.0,0.0
8099,74.0,0.0,30.0,11.0,0.0
8100,74.0,2.0,30.0,12.0,0.0
8101,74.0,0.0,60.0,2.0,0.0
8102,59.0,18.0,30.0,6.0,0.0
8103,62.0,0.0,60.0,3.0,0.0
8104,71.0,0.0,30.0,11.0,0.0
8105,62.0,1.0,30.0,6.0,0.0
8106,83.0,0.0,60.0,0.0,0.0
8107,83.0,10.0,15.0,10.0,0.0
8108,71.0,1.0,15.0,12.0,0.0
8109,71.0,2.0,30.0,11.0,0.0
8110,71.0,1.0,15.0,2.0,0.0
8111,67.0,1.0,60.0,2.0,0.0
8112,55.0,6.0,30.0,6.0,0.0
8113,55.0,27.0,60.0,3.0,0.0
8114,59.0,3.0,15.0,3.0,0.0
8115,81.0,10.0,15.0,10.0,0.0
8116,83.0,2.0,15.0,10.0,0.0
8117,81.0,10.0,15.0,10.0,0.0
8118,67.0,0.0,30.0,11.0,0.0
8119,67.0,1.0,30.0,12.0,0.0
8120,59.0,1.0,30.0,6.0,0.0
8121,83.0,10.0,15.0,10.0,0.0
8122,81.0,2.0,15.0,10.0,0.0
8123,73.0,0.0,30.0,11.0,0.0
8124,73.0,2.0,30.0,12.0,0.0
8125,85.0,1.0,60.0,1.0,0.0
8126,73.0,0.0,60.0,2.0,0.0
8127,57.0,28.0,30.0,6.0,0.0
8128,57.0,0.0,60.0,3.0,0.0
8129,61.0,27.0,60.0,3.0,0.0
8130,69.0,0.0,30.0,12.0,0.0
8131,61.0,1.0,30.0,6.0,0.0
8132,69.0,10.0,60.0,10.0,0.0
8133,69.0,0.0,15.0,11.0,0.0
8134,81.0,0.0,60.0,1.0,0.0
8135,69.0,0.0,30.0,12.0,0.0
8136,66.0,1.0,60.0,2.0,0.0
8137,69.0,1.0,15.0,2.0,0.0
8138,54.0,18.0,30.0,6.0,0.0
8139,54.0,0.0,60.0,3.0,0.0
8140,57.0,5.0,60.0,3.0,0.0
8141,66.0,0.0,30.0,12.0,0.0
8142,66.0,1.0,30.0,11.0,0.0
8143,57.0,1.0,30.0,6.0,0.0
8144,71.0,10.0,15.0,10.0,0.0
8145,83.0,0.0,60.0,1.0,0.0
8146,71.0,0.0,30.0,11.0,0.0
8147,71.0,2.0,30.0,12.0,0.0
8148,71.0,1.0,60.0,2.0,0.0
8149,55.0,6.0,30.0,6.0,0.0
8150,59.0,0.0,60.0,3.0,0.0
8151,69.0,10.0,15.0,10.0,0.0
8152,71.0,2.0,15.0,10.0,0.0
8153,69.0,10.0,15.0,10.0,0.0
8154,67.0,0.0,30.0,11.0,0.0
8155,59.0,1.0,30.0,6.0,0.0
8156,71.0,10.0,15.0,10.0,0.0
8157,69.0,2.0,15.0,10.0,0.0
8158,79.0,2.0,60.0,0.0,0.0
8159,67.0,2.0,30.0,11.0,0.0
8160,67.0,1.0,15.0,12.0,0.0
8161,64.0,1.0,60.0,2.0,0.0
8162,67.0,0.0,15.0,2.0,0.0
8163,52.0,26.0,30.0,6.0,0.0
8164,52.0,27.0,60.0,3.0,0.0
8165,55.0,27.0,15.0,3.0,0.0
8166,45.0,3.0,120.0,13.0,0.0
8167,33.0,2.0,120.0,14.0,0.0
8168,64.0,0.0,30.0,12.0,0.0
8169,64.0,1.0,30.0,11.0,0.0
8170,55.0,1.0,30.0,6.0,0.0
8171,81.0,8.0,60.0,10.0,0.0
8172,81.0,2.0,60.0,0.0,0.0
8173,69.0,2.0,30.0,12.0,0.0
8174,69.0,0.0,30.0,11.0,0.0
8175,66.0,0.0,60.0,2.0,0.0
8176,69.0,1.0,60.0,2.0,0.0
8177,54.0,18.0,30.0,6.0,0.0
8178,54.0,0.0,60.0,3.0,0.0
8179,57.0,0.0,60.0,3.0,0.0
8180,66.0,0.0,30.0,11.0,0.0
8181,57.0,1.0,30.0,6.0,0.0
8182,83.0,10.0,15.0,10.0,0.0
8183,78.0,2.0,60.0,0.0,0.0
8184,66.0,1.0,15.0,12.0,0.0
8185,66.0,0.0,30.0,11.0,0.0
8186,62.0,1.0,60.0,2.0,0.0
8187,66.0,0.0,60.0,2.0,0.0
8188,50.0,6.0,30.0,6.0,0.0
8189,54.0,0.0,60.0,3.0,0.0
8190,50.0,27.0,60.0,3.0,0.0
8191,81.0,10.0,15.0,10.0,0.0
8192,83.0,2.0,15.0,10.0,0.0
8193,81.0,10.0,15.0,10.0,0.0
8194,62.0,0.0,30.0,12.0,0.0
8195,62.0,1.0,30.0,11.0,0.0
8196,54.0,1.0,30.0,6.0,0.0
8197,83.0,10.0,15.0,10.0,0.0
8198,81.0,0.0,15.0,10.0,0.0
8199,79.0,1.0,60.0,1.0,0.0
8200,67.0,0.0,30.0,12.0,0.0
8201,67.0,2.0,30.0,11.0,0.0
8202,67.0,1.0,60.0,2.0,0.0
8203,64.0,0.0,60.0,2.0,0.0
8204,52.0,28.0,30.0,6.0,0.0
8205,55.0,0.0,60.0,3.0,0.0
8206,64.0,0.0,30.0,12.0,0.0
8207,55.0,1.0,30.0,6.0,0.0
8208,69.0,10.0,60.0,10.0,0.0
8209,64.0,0.0,15.0,11.0,0.0
8210,64.0,2.0,30.0,12.0,0.0
8211,76.0,0.0,60.0,1.0,0.0
8212,61.0,0.0,60.0,2.0,0.0
8213,64.0,1.0,60.0,2.0,0.0
8214,49.0,18.0,30.0,6.0,0.0
8215,52.0,27.0,15.0,3.0,0.0
8216,49.0,5.0,60.0,3.0,0.0
8217,61.0,0.0,30.0,12.0,0.0
8218,61.0,1.0,30.0,11.0,0.0
8219,52.0,1.0,30.0,6.0,0.0
8220,71.0,10.0,15.0,10.0,0.0
8221,66.0,0.0,30.0,12.0,0.0
8222,78.0,30.0,60.0,1.0,0.0
8223,66.0,2.0,30.0,11.0,0.0
8224,62.0,1.0,60.0,2.0,0.0
8225,66.0,0.0,60.0,2.0,0.0
8226,50.0,6.0,30.0,6.0,0.0
8227,54.0,0.0,60.0,3.0,0.0
8228,50.0,0.0,60.0,3.0,0.0
8229,69.0,10.0,15.0,10.0,0.0
8230,71.0,2.0,15.0,10.0,0.0
8231,69.0,10.0,15.0,10.0,0.0
8232,62.0,0.0,30.0,12.0,0.0
8233,62.0,1.0,30.0,11.0,0.0
8234,54.0,1.0,30.0,6.0,0.0
8235,71.0,7.0,15.0,10.0,0.0
8236,69.0,2.0,15.0,10.0,0.0
8237,79.0,2.0,60.0,0.0,0.0
8238,67.0,2.0,30.0,11.0,0.0
8239,67.0,0.0,30.0,12.0,0.0
8240,67.0,1.0,60.0,2.0,0.0
8241,64.0,0.0,60.0,2.0,0.0
8242,52.0,26.0,30.0,6.0,0.0
8243,55.0,0.0,60.0,3.0,0.0
8244,52.0,27.0,60.0,3.0,0.0
8245,45.0,0.0,120.0,13.0,0.0
8246,33.0,2.0,120.0,14.0,0.0
8247,64.0,1.0,30.0,11.0,0.0
8248,64.0,0.0,30.0,12.0,0.0
8249,55.0,1.0,30.0,6.0,0.0
8250,81.0,2.0,60.0,0.0,0.0
8251,81.0,8.0,60.0,10.0,0.0
8252,69.0,0.0,30.0,11.0,0.0
8253,69.0,2.0,30.0,12.0,0.0
8254,69.0,1.0,60.0,2.0,0.0
8255,66.0,0.0,60.0,2.0,0.0
8256,54.0,18.0,30.0,6.0,0.0
8257,54.0,3.0,60.0,3.0,0.0
8258,57.0,0.0,60.0,3.0,0.0
8259,66.0,0.0,30.0,11.0,0.0
8260,66.0,1.0,30.0,12.0,0.0
8261,57.0,1.0,30.0,6.0,0.0
8262,83.0,10.0,15.0,10.0,0.0
8263,83.0,2.0,60.0,0.0,0.0
8264,71.0,2.0,30.0,11.0,0.0
8265,71.0,0.0,30.0,12.0,0.0
8266,71.0,1.0,60.0,2.0,0.0
8267,67.0,0.0,60.0,2.0,0.0
8268,55.0,6.0,30.0,6.0,0.0
8269,59.0,27.0,60.0,3.0,0.0
8270,55.0,0.0,60.0,3.0,0.0
8271,81.0,10.0,15.0,10.0,0.0
8272,83.0,2.0,15.0,10.0,0.0
8273,81.0,10.0,15.0,10.0,0.0
8274,67.0,1.0,30.0,11.0,0.0
8275,67.0,0.0,30.0,12.0,0.0
8276,59.0,1.0,30.0,6.0,0.0
8277,83.0,10.0,15.0,10.0,0.0
8278,81.0,0.0,15.0,10.0,0.0
8279,69.0,2.0,30.0,12.0,0.0
8280,69.0,0.0,30.0,11.0,0.0
8281,81.0,0.0,60.0,1.0,0.0
8282,69.0,0.0,60.0,2.0,0.0
8283,66.0,1.0,60.0,2.0,0.0
8284,54.0,28.0,30.0,6.0,0.0
8285,57.0,0.0,60.0,3.0,0.0
8286,57.0,1.0,30.0,6.0,0.0
8287,69.0,6.0,60.0,10.0,0.0
8288,78.0,0.0,60.0,1.0,0.0
8289,66.0,1.0,15.0,12.0,0.0
8290,66.0,0.0,15.0,11.0,0.0
8291,66.0,0.0,60.0,2.0,0.0
8292,62.0,1.0,60.0,2.0,0.0
8293,50.0,18.0,30.0,6.0,0.0
8294,54.0,27.0,15.0,3.0,0.0
8295,50.0,5.0,60.0,3.0,0.0
8296,62.0,1.0,30.0,11.0,0.0
8297,62.0,0.0,30.0,12.0,0.0
8298,54.0,1.0,30.0,6.0,0.0
8299,71.0,10.0,15.0,10.0,0.0
8300,67.0,2.0,30.0,11.0,0.0
8301,67.0,0.0,30.0,12.0,0.0
8302,79.0,0.0,60.0,1.0,0.0
8303,67.0,0.0,60.0,2.0,0.0
8304,57.0,2.0,360.0,4.0,0.0
8305,52.0,6.0,30.0,6.0,0.0
8306,55.0,0.0,60.0,3.0,0.0
8307,45.0,2.0,360.0,5.0,0.0
8308,69.0,10.0,15.0,10.0,0.0
8309,71.0,2.0,15.0,10.0,0.0
8310,69.0,10.0,15.0,10.0,0.0
8311,64.0,1.0,30.0,11.0,0.0
8312,55.0,1.0,30.0,6.0,0.0
8313,71.0,10.0,15.0,10.0,0.0
8314,69.0,2.0,15.0,10.0,0.0
8315,76.0,2.0,60.0,0.0,0.0
8316,64.0,0.0,15.0,12.0,0.0
8317,64.0,2.0,30.0,11.0,0.0
8318,64.0,1.0,15.0,2.0,0.0
8319,61.0,0.0,60.0,2.0,0.0
8320,49.0,26.0,30.0,6.0,0.0
8321,45.0,0.0,120.0,13.0,0.0
8322,52.0,27.0,15.0,3.0,0.0
8323,49.0,27.0,60.0,3.0,0.0
8324,33.0,2.0,120.0,14.0,0.0
8325,61.0,1.0,30.0,12.0,0.0
8326,61.0,0.0,30.0,11.0,0.0
8327,52.0,1.0,30.0,6.0,0.0
8328,81.0,8.0,60.0,10.0,0.0
8329,78.0,2.0,60.0,0.0,0.0
8330,66.0,2.0,30.0,12.0,0.0
8331,66.0,0.0,30.0,11.0,0.0
8332,66.0,1.0,60.0,2.0,0.0
8333,62.0,0.0,60.0,2.0,0.0
8334,50.0,18.0,30.0,6.0,0.0
8335,54.0,3.0,60.0,3.0,0.0
8336,50.0,0.0,60.0,3.0,0.0
8337,62.0,1.0,30.0,11.0,0.0
8338,62.0,0.0,30.0,12.0,0.0
8339,54.0,1.0,30.0,6.0,0.0
8340,79.0,2.0,60.0,0.0,0.0
8341,83.0,10.0,15.0,10.0,0.0
8342,67.0,0.0,30.0,12.0,0.0
8343,67.0,2.0,30.0,11.0,0.0
8344,64.0,1.0,60.0,2.0,0.0
8345,67.0,0.0,60.0,2.0,0.0
8346,52.0,6.0,30.0,6.0,0.0
8347,55.0,0.0,60.0,3.0,0.0
8348,52.0,27.0,60.0,3.0,0.0
8349,81.0,10.0,15.0,10.0,0.0
8350,83.0,2.0,15.0,10.0,0.0
8351,81.0,10.0,15.0,10.0,0.0
8352,64.0,1.0,30.0,11.0,0.0
8353,64.0,0.0,30.0,12.0,0.0
8354,55.0,1.0,30.0,6.0,0.0
8355,83.0,10.0,15.0,10.0,0.0
8356,81.0,0.0,15.0,10.0,0.0
8357,69.0,0.0,30.0,12.0,0.0
8358,81.0,1.0,60.0,1.0,0.0
8359,69.0,2.0,30.0,11.0,0.0
8360,69.0,0.0,60.0,2.0,0.0
8361,66.0,1.0,60.0,2.0,0.0
8362,54.0,28.0,30.0,6.0,0.0
8363,54.0,0.0,60.0,3.0,0.0
8364,57.0,27.0,60.0,3.0,0.0
8365,66.0,0.0,30.0,12.0,0.0
8366,66.0,0.0,30.0,11.0,0.0
8367,57.0,1.0,30.0,6.0,0.0
8368,69.0,6.0,60.0,10.0,0.0
8369,71.0,2.0,30.0,11.0,0.0
8370,83.0,1.0,60.0,1.0,0.0
8371,71.0,0.0,30.0,12.0,0.0
8372,71.0,0.0,60.0,2.0,0.0
8373,55.0,18.0,30.0,6.0,0.0
8374,59.0,0.0,60.0,3.0,0.0
8375,67.0,0.0,30.0,12.0,0.0
8376,59.0,1.0,30.0,6.0,0.0
8377,71.0,10.0,15.0,10.0,0.0
8378,67.0,0.0,15.0,11.0,0.0
8379,79.0,30.0,60.0,1.0,0.0
8380,67.0,2.0,30.0,12.0,0.0
8381,64.0,0.0,60.0,2.0,0.0
8382,67.0,1.0,15.0,2.0,0.0
8383,57.0,2.0,180.0,4.0,0.0
8384,52.0,6.0,30.0,6.0,0.0
8385,52.0,0.0,60.0,3.0,0.0
8386,55.0,5.0,15.0,3.0,0.0
8387,45.0,0.0,180.0,5.0,0.0
8388,69.0,10.0,15.0,10.0,0.0
8389,71.0,2.0,15.0,10.0,0.0
8390,69.0,10.0,15.0,10.0,0.0
8391,64.0,0.0,30.0,11.0,0.0
8392,64.0,1.0,30.0,12.0,0.0
8393,55.0,1.0,30.0,6.0,0.0
8394,71.0,7.0,15.0,10.0,0.0
8395,69.0,2.0,15.0,10.0,0.0
8396,81.0,2.0,60.0,0.0,0.0
8397,69.0,0.0,30.0,11.0,0.0
8398,69.0,2.0,30.0,12.0,0.0
8399,66.0,0.0,60.0,2.0,0.0
8400,69.0,1.0,60.0,2.0,0.0
8401,54.0,16.0,30.0,6.0,0.0
8402,57.0,0.0,60.0,3.0,0.0
8403,45.0,3.0,120.0,13.0,0.0
8404,54.0,15.0,60.0,3.0,0.0
8405,33.0,12.0,120.0,14.0,0.0
8406,81.0,10.0,20.0,10.0,0.0
8407,66.0,0.0,30.0,12.0,0.0
8408,57.0,1.0,30.0,6.0,0.0
8409,81.0,12.0,20.0,10.0,0.0
8410,78.0,2.0,60.0,0.0,0.0
8411,66.0,1.0,15.0,11.0,0.0
8412,66.0,2.0,30.0,12.0,0.0
8413,62.0,1.0,60.0,2.0,0.0
8414,66.0,0.0,60.0,2.0,0.0
8415,50.0,16.0,30.0,6.0,0.0
8416,50.0,0.0,60.0,3.0,0.0
8417,54.0,0.0,60.0,3.0,0.0
8418,81.0,8.0,20.0,10.0,0.0
8419,62.0,1.0,30.0,12.0,0.0
8420,62.0,0.0,30.0,11.0,0.0
8421,54.0,1.0,30.0,6.0,0.0
8422,81.0,12.0,20.0,10.0,0.0
8423,79.0,2.0,60.0,0.0,0.0
8424,67.0,2.0,30.0,12.0,0.0
8425,67.0,0.0,30.0,11.0,0.0
8426,57.0,2.0,180.0,4.0,0.0
8427,67.0,0.0,60.0,2.0,0.0
8428,52.0,16.0,30.0,6.0,0.0
8429,52.0,15.0,60.0,3.0,0.0
8430,45.0,2.0,180.0,5.0,0.0
8431,55.0,0.0,60.0,3.0,0.0
8432,81.0,10.0,20.0,10.0,0.0
8433,64.0,1.0,30.0,11.0,0.0
8434,64.0,0.0,30.0,12.0,0.0
8435,55.0,1.0,30.0,6.0,0.0
8436,81.0,12.0,20.0,10.0,0.0
8437,76.0,0.0,60.0,1.0,0.0
8438,64.0,0.0,30.0,11.0,0.0
8439,64.0,2.0,30.0,12.0,0.0
8440,64.0,1.0,15.0,2.0,0.0
8441,61.0,1.0,60.0,2.0,0.0
8442,49.0,16.0,30.0,6.0,0.0
8443,49.0,15.0,60.0,3.0,0.0
8444,45.0,3.0,120.0,13.0,0.0
8445,52.0,0.0,60.0,3.0,0.0
8446,33.0,12.0,120.0,14.0,0.0
8447,81.0,12.0,20.0,10.0,0.0
8448,61.0,0.0,30.0,12.0,0.0
8449,61.0,1.0,30.0,11.0,0.0
8450,52.0,1.0,30.0,6.0,0.0
8451,81.0,12.0,20.0,10.0,0.0
8452,78.0,1.0,60.0,1.0,0.0
8453,66.0,2.0,30.0,12.0,0.0
8454,66.0,0.0,30.0,11.0,0.0
8455,66.0,0.0,60.0,2.0,0.0
8456,62.0,1.0,60.0,2.0,0.0
8457,50.0,16.0,30.0,6.0,0.0
8458,50.0,0.0,60.0,3.0,0.0
8459,54.0,0.0,60.0,3.0,0.0
8460,81.0,8.0,20.0,10.0,0.0
8461,62.0,0.0,30.0,12.0,0.0
8462,62.0,0.0,30.0,11.0,0.0
8463,54.0,1.0,30.0,6.0,0.0
8464,81.0,12.0,20.0,10.0,0.0
8465,67.0,2.0,30.0,12.0,0.0
8466,79.0,5.0,60.0,1.0,0.0
8467,67.0,0.0,30.0,11.0,0.0
8468,64.0,0.0,60.0,2.0,0.0
8469,67.0,1.0,60.0,2.0,0.0
8470,57.0,2.0,180.0,4.0,0.0
8471,52.0,16.0,30.0,6.0,0.0
8472,45.0,2.0,180.0,5.0,0.0
8473,52.0,15.0,60.0,3.0,0.0
8474,55.0,0.0,60.0,3.0,0.0
8475,81.0,7.0,20.0,10.0,0.0
8476,64.0,0.0,30.0,11.0,0.0
8477,64.0,1.0,30.0,12.0,0.0
8478,55.0,1.0,30.0,6.0,0.0
8479,81.0,12.0,20.0,10.0,0.0
8480,93.0,0.0,60.0,0.0,0.0
8481,90.0,2.0,60.0,0.0,0.0
8482,69.0,0.0,30.0,12.0,0.0
8483,69.0,2.0,30.0,11.0,0.0
8484,78.0,0.0,60.0,1.0,0.0
8485,81.0,0.0,60.0,1.0,0.0
8486,69.0,1.0,60.0,2.0,0.0
8487,66.0,0.0,60.0,2.0,0.0
8488,54.0,16.0,30.0,6.0,0.0
8489,57.0,0.0,60.0,3.0,0.0
8490,54.0,15.0,60.0,3.0,0.0
8491,45.0,3.0,120.0,13.0,0.0
8492,33.0,12.0,120.0,14.0,0.0
8493,81.0,10.0,20.0,10.0,0.0
8494,66.0,0.0,30.0,11.0,0.0
8495,57.0,1.0,30.0,6.0,0.0
8496,81.0,12.0,20.0,10.0,0.0
8497,86.0,0.0,60.0,0.0,0.0
8498,90.0,0.0,60.0,0.0,0.0
8499,78.0,1.0,60.0,1.0,0.0
8500,66.0,1.0,15.0,12.0,0.0
8501,66.0,2.0,30.0,11.0,0.0
8502,74.0,0.0,60.0,1.0,0.0
8503,66.0,1.0,60.0,2.0,0.0
8504,62.0,0.0,60.0,2.0,0.0
8505,50.0,16.0,30.0,6.0,0.0
8506,54.0,0.0,60.0,3.0,0.0
8507,50.0,0.0,60.0,3.0,0.0
8508,81.0,8.0,20.0,10.0,0.0
8509,62.0,0.0,30.0,11.0,0.0
8510,62.0,0.0,30.0,12.0,0.0
8511,54.0,1.0,30.0,6.0,0.0
8512,88.0,0.0,60.0,0.0,0.0
8513,91.0,2.0,60.0,0.0,0.0
8514,81.0,12.0,20.0,10.0,0.0
8515,76.0,0.0,60.0,1.0,0.0
8516,67.0,0.0,30.0,12.0,0.0
8517,79.0,0.0,60.0,1.0,0.0
8518,67.0,2.0,30.0,11.0,0.0
8519,64.0,0.0,60.0,2.0,0.0
8520,67.0,1.0,60.0,2.0,0.0
8521,57.0,2.0,180.0,4.0,0.0
8522,52.0,16.0,30.0,6.0,0.0
8523,45.0,0.0,180.0,5.0,0.0
8524,55.0,15.0,60.0,3.0,0.0
8525,52.0,0.0,60.0,3.0,0.0
8526,81.0,10.0,20.0,10.0,0.0
8527,64.0,0.0,30.0,12.0,0.0
8528,55.0,1.0,30.0,6.0,0.0
8529,88.0,0.0,60.0,0.0,0.0
8530,85.0,2.0,60.0,0.0,0.0
8531,81.0,12.0,20.0,10.0,0.0
8532,73.0,0.0,60.0,1.0,0.0
8533,76.0,1.0,60.0,1.0,0.0
8534,64.0,1.0,15.0,11.0,0.0
8535,64.0,0.0,30.0,12.0,0.0
8536,61.0,0.0,60.0,2.0,0.0
8537,64.0,1.0,60.0,2.0,0.0
8538,45.0,16.0,30.0,6.0,0.0
8539,45.0,0.0,60.0,3.0,0.0
8540,52.0,15.0,60.0,3.0,0.0
8541,45.0,0.0,120.0,13.0,0.0
8542,33.0,12.0,120.0,14.0,0.0
8543,81.0,10.0,20.0,10.0,0.0
8544,61.0,0.0,30.0,11.0,0.0
8545,61.0,0.0,30.0,12.0,0.0
8546,52.0,1.0,30.0,6.0,0.0
8547,81.0,12.0,20.0,10.0,0.0
8548,90.0,2.0,60.0,0.0,0.0
8549,86.0,0.0,60.0,0.0,0.0
8550,74.0,0.0,60.0,1.0,0.0
8551,66.0,2.0,30.0,11.0,0.0
8552,66.0,0.0,30.0,12.0,0.0
8553,78.0,0.0,60.0,1.0,0.0
8554,62.0,1.0,60.0,2.0,0.0
8555,66.0,0.0,60.0,2.0,0.0
8556,50.0,16.0,30.0,6.0,0.0
8557,54.0,0.0,60.0,3.0,0.0
8558,50.0,3.0,60.0,3.0,0.0
8559,81.0,8.0,20.0,10.0,0.0
8560,62.0,1.0,30.0,12.0,0.0
8561,62.0,0.0,30.0,11.0,0.0
8562,54.0,1.0,30.0,6.0,0.0
8563,85.0,2.0,60.0,0.0,0.0
8564,88.0,0.0,60.0,0.0,0.0
8565,83.0,12.0,20.0,10.0,0.0
8566,64.0,0.0,30.0,11.0,0.0
8567,73.0,0.0,60.0,1.0,0.0
8568,76.0,0.0,60.0,1.0,0.0
8569,64.0,2.0,30.0,12.0,0.0
8570,64.0,1.0,60.0,2.0,0.0
8571,73.0,0.0,60.0,2.0,0.0
8572,57.0,0.0,60.0,4.0,0.0
8573,45.0,16.0,30.0,6.0,0.0
8574,45.0,5.0,60.0,3.0,0.0
8575,52.0,0.0,60.0,3.0,0.0
8576,45.0,0.0,60.0,5.0,0.0
8577,45.0,3.0,60.0,13.0,0.0
8578,33.0,24.0,60.0,14.0,0.0
8579,85.0,5.0,20.0,10.0,0.0
8580,61.0,0.0,30.0,11.0,0.0
8581,61.0,1.0,30.0,12.0,0.0
8582,52.0,1.0,30.0,6.0,0.0
8583,86.0,2.0,240.0,0.0,0.0
8584,86.0,2.0,120.0,10.0,0.0
8585,74.0,1.0,120.0,1.0,0.0
8586,66.0,0.0,30.0,11.0,0.0
8587,62.0,2.0,30.0,12.0,0.0
8588,62.0,2.0,180.0,4.0,0.0
8589,74.0,1.0,120.0,2.0,0.0
8590,66.0,0.0,120.0,2.0,0.0
8591,50.0,16.0,30.0,6.0,0.0
8592,50.0,0.0,300.0,3.0,0.0
8593,50.0,3.0,120.0,13.0,0.0
8594,50.0,2.0,180.0,5.0,0.0
8595,38.0,12.0,120.0,14.0,0.0
8596,66.0,2.0,30.0,11.0,0.0
8597,66.0,0.0,30.0,12.0,0.0
8598,57.0,16.0,30.0,6.0,0.0
8599,54.0,12.0,15.0,3.0,0.0
8600,69.0,2.0,30.0,11.0,0.0
8601,69.0,0.0,30.0,12.0,0.0
8602,54.0,16.0,30.0,6.0,0.0
8603,57.0,12.0,15.0,3.0,0.0
8604,66.0,0.0,30.0,12.0,0.0
8605,66.0,0.0,30.0,11.0,0.0
8606,57.0,1.0,30.0,6.0,0.0
8607,62.0,10.0,15.0,3.0,0.0
8608,69.0,0.0,30.0,12.0,0.0
8609,69.0,2.0,30.0,11.0,0.0
8610,54.0,16.0,30.0,6.0,0.0
8611,66.0,12.0,15.0,3.0,0.0
8612,66.0,2.0,30.0,12.0,0.0
8613,66.0,0.0,30.0,11.0,0.0
8614,57.0,14.0,30.0,6.0,0.0
8615,69.0,8.0,15.0,3.0,0.0
8616,71.0,0.0,30.0,12.0,0.0
8617,71.0,2.0,30.0,11.0,0.0
8618,62.0,14.0,15.0,2.0,0.0
8619,66.0,2.0,180.0,4.0,0.0
8620,55.0,14.0,30.0,6.0,0.0
8621,62.0,2.0,120.0,3.0,0.0
8622,54.0,2.0,180.0,5.0,0.0
8623,67.0,2.0,30.0,11.0,0.0
8624,67.0,0.0,30.0,12.0,0.0
8625,66.0,12.0,15.0,2.0,0.0
8626,59.0,14.0,30.0,6.0,0.0
8627,69.0,0.0,30.0,12.0,0.0
8628,69.0,2.0,30.0,11.0,0.0
8629,69.0,14.0,15.0,2.0,0.0
8630,54.0,14.0,30.0,6.0,0.0
8631,66.0,0.0,30.0,11.0,0.0
8632,66.0,2.0,30.0,12.0,0.0
8633,74.0,12.0,15.0,2.0,0.0
8634,57.0,14.0,30.0,6.0,0.0
8635,69.0,0.0,30.0,12.0,0.0
8636,69.0,2.0,30.0,11.0,0.0
8637,78.0,14.0,15.0,2.0,0.0
8638,54.0,14.0,30.0,6.0,0.0
8639,50.0,2.0,180.0,3.0,0.0
8640,66.0,1.0,30.0,11.0,0.0
8641,66.0,0.0,30.0,12.0,0.0
8642,81.0,10.0,15.0,2.0,0.0
8643,57.0,11.0,30.0,6.0,0.0
8644,66.0,17.0,15.0,10.0,0.0
8645,78.0,5.0,60.0,1.0,0.0
8646,67.0,0.0,30.0,12.0,0.0
8647,67.0,2.0,30.0,11.0,0.0
8648,81.0,0.0,60.0,1.0,0.0
8649,62.0,2.0,180.0,4.0,0.0
8650,86.0,1.0,120.0,2.0,0.0
8651,74.0,1.0,180.0,2.0,0.0
8652,52.0,11.0,30.0,6.0,0.0
8653,50.0,2.0,180.0,5.0,0.0
8654,69.0,12.0,15.0,10.0,0.0
8655,64.0,2.0,30.0,12.0,0.0
8656,64.0,0.0,30.0,11.0,0.0
8657,55.0,11.0,30.0,6.0,0.0
8658,74.0,17.0,15.0,10.0,0.0
8659,66.0,0.0,30.0,11.0,0.0
8660,81.0,0.0,60.0,1.0,0.0
8661,66.0,2.0,30.0,12.0,0.0
8662,78.0,3.0,60.0,1.0,0.0
8663,50.0,11.0,30.0,6.0,0.0
8664,78.0,12.0,15.0,10.0,0.0
8665,62.0,0.0,30.0,11.0,0.0
8666,62.0,1.0,30.0,12.0,0.0
8667,54.0,11.0,30.0,6.0,0.0
8668,81.0,17.0,15.0,10.0,0.0
8669,66.0,2.0,30.0,11.0,0.0
8670,81.0,1.0,60.0,1.0,0.0
8671,78.0,0.0,60.0,1.0,0.0
8672,66.0,0.0,30.0,12.0,0.0
8673,50.0,11.0,30.0,6.0,0.0
8674,50.0,0.0,180.0,3.0,0.0
8675,86.0,12.0,15.0,10.0,0.0
8676,62.0,0.0,30.0,11.0,0.0
8677,62.0,1.0,30.0,12.0,0.0
8678,54.0,28.0,30.0,6.0,0.0
8679,62.0,0.0,120.0,10.0,0.0
8680,69.0,0.0,180.0,0.0,0.0
8681,81.0,0.0,60.0,1.0,0.0
8682,78.0,5.0,60.0,1.0,0.0
8683,64.0,2.0,30.0,11.0,0.0
8684,64.0,0.0,30.0,12.0,0.0
8685,57.0,1.0,180.0,4.0,0.0
8686,69.0,29.0,180.0,2.0,0.0
8687,45.0,23.0,30.0,6.0,0.0
8688,45.0,0.0,180.0,5.0,0.0
8689,61.0,0.0,30.0,12.0,0.0
8690,61.0,2.0,30.0,11.0,0.0
8691,52.0,26.0,30.0,6.0,0.0
8692,86.0,2.0,30.0,0.0,0.0
8693,81.0,3.0,60.0,1.0,0.0
8694,66.0,2.0,30.0,11.0,0.0
8695,78.0,0.0,60.0,1.0,0.0
8696,66.0,0.0,30.0,12.0,0.0
8697,50.0,23.0,30.0,6.0,0.0
8698,88.0,2.0,30.0,0.0,0.0
8699,62.0,2.0,30.0,12.0,0.0
8700,62.0,0.0,30.0,11.0,0.0
8701,54.0,26.0,30.0,6.0,0.0
8702,90.0,2.0,30.0,0.0,0.0
8703,81.0,0.0,60.0,1.0,0.0
8704,78.0,1.0,60.0,1.0,0.0
8705,66.0,2.0,30.0,12.0,0.0
8706,66.0,0.0,30.0,11.0,0.0
8707,50.0,21.0,30.0,6.0,0.0
8708,50.0,3.0,60.0,3.0,0.0
8709,88.0,2.0,30.0,0.0,0.0
8710,62.0,0.0,30.0,12.0,0.0
8711,62.0,0.0,30.0,11.0,0.0
8712,54.0,1.0,30.0,6.0,0.0
8713,74.0,2.0,180.0,0.0,0.0
8714,88.0,2.0,60.0,0.0,0.0
8715,78.0,0.0,120.0,1.0,0.0
8716,81.0,0.0,120.0,1.0,0.0
8717,66.0,2.0,30.0,11.0,0.0
8718,66.0,0.0,30.0,12.0,0.0
8719,50.0,16.0,30.0,6.0,0.0
8720,50.0,3.0,120.0,13.0,0.0
8721,50.0,2.0,300.0,3.0,0.0
8722,38.0,12.0,120.0,14.0,0.0
8723,62.0,2.0,30.0,12.0,0.0
8724,62.0,0.0,30.0,11.0,0.0
8725,54.0,10.0,15.0,3.0,0.0
8726,86.0,0.0,120.0,0.0,0.0
8727,69.0,0.0,30.0,11.0,0.0
8728,69.0,2.0,30.0,12.0,0.0
8729,54.0,16.0,15.0,6.0,0.0
8730,57.0,12.0,15.0,3.0,0.0
8731,66.0,2.0,30.0,11.0,0.0
8732,66.0,0.0,30.0,12.0,0.0
8733,57.0,1.0,30.0,6.0,0.0
8734,62.0,12.0,15.0,3.0,0.0
8735,69.0,2.0,30.0,12.0,0.0
8736,69.0,0.0,30.0,11.0,0.0
8737,54.0,16.0,30.0,6.0,0.0
8738,66.0,12.0,15.0,3.0,0.0
8739,66.0,0.0,30.0,11.0,0.0
8740,66.0,2.0,30.0,12.0,0.0
8741,57.0,14.0,30.0,6.0,0.0
8742,69.0,10.0,15.0,3.0,0.0
8743,78.0,2.0,180.0,0.0,0.0
8744,71.0,0.0,30.0,11.0,0.0
8745,71.0,2.0,30.0,12.0,0.0
8746,66.0,2.0,180.0,4.0,0.0
8747,62.0,14.0,15.0,2.0,0.0
8748,55.0,14.0,30.0,6.0,0.0
8749,54.0,0.0,180.0,5.0,0.0
8750,62.0,0.0,120.0,3.0,0.0
8751,67.0,2.0,30.0,12.0,0.0
8752,67.0,0.0,30.0,11.0,0.0
8753,66.0,14.0,15.0,2.0,0.0
8754,59.0,14.0,30.0,6.0,0.0
8755,69.0,2.0,30.0,12.0,0.0
8756,69.0,0.0,30.0,11.0,0.0
8757,69.0,14.0,15.0,2.0,0.0
8758,54.0,14.0,30.0,6.0,0.0
8759,66.0,0.0,30.0,12.0,0.0
8760,66.0,2.0,30.0,11.0,0.0
8761,74.0,12.0,15.0,2.0,0.0
8762,57.0,14.0,30.0,6.0,0.0
8763,69.0,0.0,30.0,11.0,0.0
8764,69.0,2.0,30.0,12.0,0.0
8765,78.0,14.0,15.0,2.0,0.0
8766,54.0,14.0,30.0,6.0,0.0
8767,50.0,2.0,180.0,3.0,0.0
8768,66.0,0.0,30.0,11.0,0.0
8769,66.0,1.0,30.0,12.0,0.0
8770,81.0,10.0,15.0,2.0,0.0
8771,57.0,11.0,30.0,6.0,0.0
8772,66.0,17.0,15.0,10.0,0.0
8773,67.0,2.0,30.0,11.0,0.0
8774,67.0,0.0,30.0,12.0,0.0
8775,81.0,5.0,60.0,1.0,0.0
8776,78.0,0.0,60.0,1.0,0.0
8777,74.0,1.0,180.0,2.0,0.0
8778,86.0,1.0,120.0,2.0,0.0
8779,62.0,2.0,180.0,4.0,0.0
8780,52.0,11.0,30.0,6.0,0.0
8781,50.0,2.0,180.0,5.0,0.0
8782,69.0,12.0,15.0,10.0,0.0
8783,64.0,2.0,30.0,11.0,0.0
8784,64.0,0.0,30.0,12.0,0.0
8785,55.0,11.0,30.0,6.0,0.0
8786,74.0,17.0,15.0,10.0,0.0
8787,66.0,2.0,30.0,11.0,0.0
8788,81.0,0.0,60.0,1.0,0.0
8789,66.0,0.0,30.0,12.0,0.0
8790,78.0,3.0,60.0,1.0,0.0
8791,50.0,11.0,30.0,6.0,0.0
8792,78.0,12.0,15.0,10.0,0.0
8793,62.0,1.0,30.0,12.0,0.0
8794,62.0,0.0,30.0,11.0,0.0
8795,54.0,11.0,30.0,6.0,0.0
8796,81.0,17.0,15.0,10.0,0.0
8797,66.0,2.0,30.0,12.0,0.0
8798,78.0,0.0,60.0,1.0,0.0
8799,81.0,1.0,60.0,1.0,0.0
8800,66.0,0.0,30.0,11.0,0.0
8801,50.0,11.0,30.0,6.0,0.0
8802,50.0,2.0,180.0,3.0,0.0
8803,86.0,12.0,15.0,10.0,0.0
8804,62.0,0.0,30.0,11.0,0.0
8805,62.0,1.0,30.0,12.0,0.0
8806,54.0,28.0,30.0,6.0,0.0
8807,69.0,0.0,180.0,0.0,0.0
8808,62.0,0.0,120.0,10.0,0.0
8809,64.0,2.0,30.0,12.0,0.0
8810,81.0,5.0,60.0,1.0,0.0
8811,78.0,0.0,60.0,1.0,0.0
8812,64.0,0.0,30.0,11.0,0.0
8813,69.0,7.0,180.0,2.0,0.0
8814,57.0,1.0,180.0,4.0,0.0
8815,45.0,23.0,30.0,6.0,0.0
8816,45.0,0.0,180.0,5.0,0.0
8817,61.0,0.0,30.0,11.0,0.0
8818,61.0,2.0,30.0,12.0,0.0
8819,52.0,26.0,30.0,6.0,0.0
8820,86.0,2.0,30.0,0.0,0.0
8821,66.0,0.0,30.0,11.0,0.0
8822,78.0,3.0,60.0,1.0,0.0
8823,81.0,0.0,60.0,1.0,0.0
8824,66.0,2.0,30.0,12.0,0.0
8825,50.0,23.0,30.0,6.0,0.0
8826,88.0,0.0,30.0,0.0,0.0
8827,62.0,0.0,30.0,11.0,0.0
8828,62.0,2.0,30.0,12.0,0.0
8829,54.0,26.0,30.0,6.0,0.0
8830,90.0,2.0,30.0,0.0,0.0
8831,66.0,0.0,30.0,11.0,0.0
8832,66.0,2.0,30.0,12.0,0.0
8833,78.0,1.0,60.0,1.0,0.0
8834,81.0,0.0,60.0,1.0,0.0
8835,50.0,21.0,30.0,6.0,0.0
8836,50.0,3.0,60.0,3.0,0.0
8837,86.0,2.0,30.0,0.0,0.0
8838,62.0,0.0,30.0,11.0,0.0
8839,62.0,0.0,30.0,12.0,0.0
8840,54.0,1.0,30.0,6.0,0.0
8841,85.0,10.0,15.0,0.0,0.0
8842,76.0,0.0,180.0,0.0,0.0
8843,67.0,2.0,30.0,11.0,0.0
8844,79.0,0.0,120.0,1.0,0.0
8845,67.0,0.0,30.0,12.0,0.0
8846,81.0,0.0,120.0,1.0,0.0
8847,45.0,21.0,30.0,6.0,0.0
8848,45.0,2.0,300.0,3.0,0.0
8849,45.0,3.0,120.0,13.0,0.0
8850,33.0,17.0,120.0,14.0,0.0
8851,86.0,10.0,15.0,0.0,0.0
8852,88.0,2.0,15.0,0.0,0.0
8853,86.0,2.0,30.0,0.0,0.0
8854,61.0,0.0,30.0,12.0,0.0
8855,61.0,2.0,30.0,11.0,0.0
8856,49.0,5.0,20.0,3.0,0.0
8857,85.0,2.0,120.0,0.0,0.0
8858,67.0,0.0,30.0,11.0,0.0
8859,67.0,2.0,30.0,12.0,0.0
8860,52.0,21.0,15.0,6.0,0.0
8861,52.0,7.0,20.0,3.0,0.0
8862,64.0,2.0,30.0,11.0,0.0
8863,64.0,0.0,30.0,12.0,0.0
8864,55.0,1.0,30.0,6.0,0.0
8865,57.0,7.0,20.0,3.0,0.0
8866,67.0,0.0,30.0,11.0,0.0
8867,67.0,2.0,30.0,12.0,0.0
8868,52.0,21.0,30.0,6.0,0.0
8869,61.0,7.0,20.0,3.0,0.0
8870,64.0,2.0,30.0,11.0,0.0
8871,64.0,0.0,30.0,12.0,0.0
8872,55.0,19.0,30.0,6.0,0.0
8873,64.0,5.0,20.0,3.0,0.0
8874,79.0,0.0,180.0,0.0,0.0
8875,69.0,2.0,30.0,11.0,0.0
8876,69.0,0.0,30.0,12.0,0.0
8877,57.0,9.0,20.0,2.0,0.0
8878,67.0,2.0,180.0,4.0,0.0
8879,54.0,19.0,30.0,6.0,0.0
8880,69.0,0.0,120.0,3.0,0.0
8881,67.0,2.0,180.0,5.0,0.0
8882,66.0,2.0,30.0,12.0,0.0
8883,66.0,0.0,30.0,11.0,0.0
8884,61.0,9.0,20.0,2.0,0.0
8885,57.0,19.0,30.0,6.0,0.0
8886,67.0,2.0,30.0,11.0,0.0
8887,67.0,0.0,30.0,12.0,0.0
8888,64.0,9.0,20.0,2.0,0.0
8889,52.0,19.0,30.0,6.0,0.0
8890,64.0,0.0,30.0,11.0,0.0
8891,64.0,2.0,30.0,12.0,0.0
8892,69.0,7.0,20.0,2.0,0.0
8893,55.0,19.0,30.0,6.0,0.0
8894,67.0,2.0,30.0,11.0,0.0
8895,67.0,0.0,30.0,12.0,0.0
8896,73.0,9.0,20.0,2.0,0.0
8897,52.0,19.0,30.0,6.0,0.0
8898,45.0,2.0,180.0,3.0,0.0
8899,64.0,0.0,30.0,11.0,0.0
8900,64.0,1.0,30.0,12.0,0.0
8901,76.0,5.0,20.0,2.0,0.0
8902,55.0,16.0,30.0,6.0,0.0
8903,69.0,12.0,20.0,10.0,0.0
8904,81.0,5.0,60.0,1.0,0.0
8905,79.0,0.0,60.0,1.0,0.0
8906,66.0,2.0,30.0,12.0,0.0
8907,66.0,0.0,30.0,11.0,0.0
8908,76.0,1.0,180.0,2.0,0.0
8909,79.0,1.0,15.0,2.0,0.0
8910,64.0,2.0,180.0,4.0,0.0
8911,50.0,16.0,30.0,6.0,0.0
8912,64.0,2.0,180.0,5.0,0.0
8913,73.0,7.0,20.0,10.0,0.0
8914,62.0,0.0,30.0,12.0,0.0
8915,62.0,2.0,30.0,11.0,0.0
8916,54.0,16.0,30.0,6.0,0.0
8917,76.0,12.0,20.0,10.0,0.0
8918,81.0,3.0,60.0,1.0,0.0
8919,79.0,0.0,60.0,1.0,0.0
8920,64.0,2.0,30.0,12.0,0.0
8921,64.0,0.0,30.0,11.0,0.0
8922,49.0,16.0,30.0,6.0,0.0
8923,81.0,7.0,20.0,10.0,0.0
8924,61.0,1.0,30.0,11.0,0.0
8925,61.0,0.0,30.0,12.0,0.0
8926,52.0,16.0,30.0,6.0,0.0
8927,85.0,12.0,20.0,10.0,0.0
8928,64.0,0.0,30.0,12.0,0.0
8929,81.0,0.0,60.0,1.0,0.0
8930,79.0,1.0,60.0,1.0,0.0
8931,64.0,2.0,30.0,11.0,0.0
8932,49.0,16.0,30.0,6.0,0.0
8933,45.0,0.0,180.0,3.0,0.0
8934,88.0,7.0,20.0,10.0,0.0
8935,61.0,1.0,30.0,11.0,0.0
8936,61.0,0.0,30.0,12.0,0.0
8937,52.0,28.0,30.0,6.0,0.0
8938,69.0,2.0,120.0,10.0,0.0
8939,69.0,3.0,180.0,0.0,0.0
8940,62.0,2.0,30.0,12.0,0.0
8941,81.0,5.0,60.0,1.0,0.0
8942,62.0,0.0,30.0,11.0,0.0
8943,79.0,0.0,60.0,1.0,0.0
8944,69.0,29.0,180.0,2.0,0.0
8945,57.0,1.0,180.0,4.0,0.0
8946,47.0,23.0,30.0,6.0,0.0
8947,57.0,0.0,180.0,5.0,0.0
8948,59.0,0.0,30.0,11.0,0.0
8949,59.0,2.0,30.0,12.0,0.0
8950,50.0,26.0,30.0,6.0,0.0
8951,88.0,2.0,30.0,0.0,0.0
8952,64.0,2.0,30.0,12.0,0.0
8953,64.0,0.0,30.0,11.0,0.0
8954,81.0,0.0,60.0,1.0,0.0
8955,79.0,3.0,60.0,1.0,0.0
8956,49.0,23.0,30.0,6.0,0.0
8957,90.0,0.0,30.0,0.0,0.0
8958,61.0,0.0,30.0,11.0,0.0
8959,61.0,2.0,30.0,12.0,0.0
8960,52.0,26.0,30.0,6.0,0.0
8961,91.0,2.0,30.0,0.0,0.0
8962,79.0,0.0,60.0,1.0,0.0
8963,81.0,0.0,60.0,1.0,0.0
8964,64.0,0.0,30.0,11.0,0.0
8965,64.0,2.0,30.0,12.0,0.0
8966,49.0,21.0,30.0,6.0,0.0
8967,45.0,0.0,60.0,3.0,0.0
8968,90.0,2.0,30.0,0.0,0.0
8969,61.0,0.0,30.0,11.0,0.0
8970,61.0,1.0,30.0,12.0,0.0
8971,52.0,1.0,30.0,6.0,0.0
8972,90.0,2.0,60.0,0.0,0.0
8973,76.0,2.0,180.0,0.0,0.0
8974,79.0,2.0,120.0,1.0,0.0
8975,81.0,0.0,120.0,1.0,0.0
8976,64.0,0.0,30.0,11.0,0.0
8977,64.0,2.0,30.0,12.0,0.0
8978,49.0,21.0,30.0,6.0,0.0
8979,45.0,3.0,120.0,13.0,0.0
8980,45.0,2.0,300.0,3.0,0.0
8981,33.0,17.0,120.0,14.0,0.0
8982,61.0,0.0,30.0,12.0,0.0
8983,61.0,2.0,30.0,11.0,0.0
8984,52.0,21.0,30.0,6.0,0.0
8985,49.0,5.0,20.0,3.0,0.0
8986,88.0,0.0,120.0,0.0,0.0
8987,67.0,0.0,30.0,11.0,0.0
8988,67.0,2.0,30.0,12.0,0.0
8989,52.0,21.0,30.0,6.0,0.0
8990,52.0,7.0,20.0,3.0,0.0
8991,64.0,0.0,30.0,11.0,0.0
8992,64.0,0.0,30.0,12.0,0.0
8993,55.0,1.0,30.0,6.0,0.0
8994,57.0,7.0,20.0,3.0,0.0
8995,67.0,2.0,30.0,12.0,0.0
8996,67.0,0.0,30.0,11.0,0.0
8997,52.0,21.0,30.0,6.0,0.0
8998,61.0,7.0,20.0,3.0,0.0
8999,64.0,2.0,30.0,11.0,0.0
9000,64.0,0.0,30.0,12.0,0.0
9001,55.0,19.0,30.0,6.0,0.0
9002,64.0,5.0,20.0,3.0,0.0
9003,79.0,2.0,180.0,0.0,0.0
9004,69.0,2.0,30.0,12.0,0.0
9005,69.0,0.0,30.0,11.0,0.0
9006,67.0,2.0,180.0,4.0,0.0
9007,79.0,1.0,180.0,2.0,0.0
9008,57.0,9.0,20.0,2.0,0.0
9009,54.0,19.0,30.0,6.0,0.0
9010,69.0,0.0,120.0,3.0,0.0
9011,67.0,0.0,180.0,5.0,0.0
9012,66.0,2.0,30.0,12.0,0.0
9013,66.0,0.0,30.0,11.0,0.0
9014,61.0,9.0,20.0,2.0,0.0
9015,57.0,19.0,30.0,6.0,0.0
9016,67.0,0.0,30.0,11.0,0.0
9017,67.0,2.0,30.0,12.0,0.0
9018,64.0,9.0,20.0,2.0,0.0
9019,52.0,19.0,30.0,6.0,0.0
9020,64.0,0.0,30.0,11.0,0.0
9021,64.0,2.0,30.0,12.0,0.0
9022,69.0,7.0,20.0,2.0,0.0
9023,55.0,19.0,30.0,6.0,0.0
9024,67.0,2.0,30.0,11.0,0.0
9025,67.0,0.0,30.0,12.0,0.0
9026,73.0,9.0,20.0,2.0,0.0
9027,52.0,19.0,30.0,6.0,0.0
9028,45.0,2.0,180.0,3.0,0.0
9029,64.0,0.0,30.0,12.0,0.0
9030,64.0,1.0,30.0,11.0,0.0
9031,76.0,5.0,20.0,2.0,0.0
9032,55.0,16.0,30.0,6.0,0.0
9033,69.0,12.0,20.0,10.0,0.0
9034,66.0,2.0,30.0,12.0,0.0
9035,81.0,0.0,60.0,1.0,0.0
9036,76.0,5.0,60.0,1.0,0.0
9037,66.0,0.0,30.0,11.0,0.0
9038,76.0,1.0,180.0,2.0,0.0
9039,64.0,2.0,180.0,4.0,0.0
9040,81.0,1.0,120.0,2.0,0.0
9041,50.0,16.0,30.0,6.0,0.0
9042,64.0,2.0,180.0,5.0,0.0
9043,73.0,7.0,20.0,10.0,0.0
9044,62.0,2.0,30.0,12.0,0.0
9045,62.0,0.0,30.0,11.0,0.0
9046,54.0,16.0,30.0,6.0,0.0
9047,76.0,12.0,20.0,10.0,0.0
9048,76.0,0.0,60.0,1.0,0.0
9049,64.0,0.0,30.0,11.0,0.0
9050,64.0,2.0,30.0,12.0,0.0
9051,81.0,3.0,60.0,1.0,0.0
9052,49.0,16.0,30.0,6.0,0.0
9053,81.0,7.0,20.0,10.0,0.0
9054,61.0,1.0,30.0,11.0,0.0
9055,61.0,0.0,30.0,12.0,0.0
9056,52.0,16.0,30.0,6.0,0.0
9057,85.0,12.0,20.0,10.0,0.0
9058,76.0,0.0,60.0,1.0,0.0
9059,81.0,1.0,60.0,1.0,0.0
9060,64.0,2.0,30.0,11.0,0.0
9061,64.0,0.0,30.0,12.0,0.0
9062,49.0,16.0,30.0,6.0,0.0
9063,45.0,0.0,180.0,3.0,0.0
9064,88.0,7.0,20.0,10.0,0.0
9065,61.0,0.0,30.0,12.0,0.0
9066,61.0,1.0,30.0,11.0,0.0
9067,52.0,28.0,30.0,6.0,0.0
9068,69.0,2.0,60.0,10.0,0.0
9069,81.0,5.0,60.0,1.0,0.0
9070,76.0,0.0,60.0,1.0,0.0
9071,62.0,0.0,30.0,11.0,0.0
9072,62.0,2.0,30.0,12.0,0.0
9073,57.0,1.0,180.0,4.0,0.0
9074,47.0,21.0,30.0,6.0,0.0
9075,57.0,0.0,180.0,5.0,0.0
9076,59.0,0.0,30.0,11.0,0.0
9077,59.0,2.0,30.0,12.0,0.0
9078,50.0,28.0,30.0,6.0,0.0
9079,88.0,0.0,60.0,0.0,0.0
9080,76.0,0.0,60.0,10.0,0.0
9081,76.0,2.0,60.0,0.0,0.0
9082,76.0,3.0,60.0,1.0,0.0
9083,81.0,0.0,60.0,1.0,0.0
9084,61.0,2.0,30.0,12.0,0.0
9085,64.0,0.0,30.0,11.0,0.0
9086,45.0,23.0,30.0,6.0,0.0
9087,57.0,3.0,60.0,13.0,0.0
9088,45.0,22.0,60.0,14.0,0.0
9089,61.0,2.0,30.0,11.0,0.0
9090,57.0,0.0,30.0,12.0,0.0
9091,52.0,1.0,30.0,6.0,0.0
9092,78.0,0.0,30.0,10.0,0.0
9093,90.0,0.0,30.0,0.0,0.0
9094,78.0,2.0,30.0,0.0,0.0
9095,64.0,0.0,30.0,11.0,0.0
9096,61.0,2.0,30.0,12.0,0.0
9097,76.0,0.0,60.0,1.0,0.0
9098,81.0,1.0,60.0,1.0,0.0
9099,45.0,21.0,30.0,6.0,0.0
9100,45.0,3.0,60.0,3.0,0.0
9101,55.0,3.0,60.0,13.0,0.0
9102,43.0,24.0,60.0,14.0,0.0
9103,79.0,2.0,30.0,10.0,0.0
9104,91.0,0.0,30.0,0.0,0.0
9105,79.0,0.0,30.0,0.0,0.0
9106,61.0,0.0,30.0,11.0,0.0
9107,57.0,0.0,30.0,12.0,0.0
9108,52.0,1.0,30.0,6.0,0.0
9109,93.0,0.0,240.0,0.0,0.0
9110,81.0,0.0,240.0,10.0,0.0
9111,81.0,2.0,240.0,0.0,0.0
9112,62.0,2.0,30.0,12.0,0.0
9113,66.0,0.0,30.0,11.0,0.0
9114,74.0,0.0,60.0,1.0,0.0
9115,81.0,1.0,60.0,1.0,0.0
9116,69.0,2.0,15.0,2.0,0.0
9117,62.0,2.0,60.0,4.0,0.0
9118,74.0,0.0,60.0,2.0,0.0
9119,54.0,0.0,30.0,6.0,0.0
9120,50.0,23.0,30.0,6.0,0.0
9121,50.0,2.0,60.0,5.0,0.0
9122,54.0,0.0,360.0,3.0,0.0
9123,54.0,3.0,120.0,13.0,0.0
9124,42.0,24.0,120.0,14.0,0.0
9125,62.0,0.0,30.0,11.0,0.0
9126,57.0,2.0,30.0,12.0,0.0
9127,50.0,0.0,30.0,6.0,0.0
9128,42.0,28.0,30.0,6.0,0.0
9129,66.0,0.0,30.0,11.0,0.0
9130,74.0,1.0,60.0,1.0,0.0
9131,81.0,0.0,60.0,1.0,0.0
9132,62.0,2.0,30.0,12.0,0.0
9133,74.0,0.0,60.0,2.0,0.0
9134,69.0,2.0,60.0,2.0,0.0
9135,62.0,0.0,60.0,4.0,0.0
9136,54.0,0.0,30.0,6.0,0.0
9137,50.0,2.0,60.0,5.0,0.0
9138,57.0,0.0,30.0,12.0,0.0
9139,62.0,2.0,30.0,11.0,0.0
9140,50.0,23.0,15.0,6.0,0.0
9141,42.0,0.0,30.0,6.0,0.0
9142,62.0,2.0,30.0,12.0,0.0
9143,66.0,0.0,30.0,11.0,0.0
9144,81.0,0.0,60.0,1.0,0.0
9145,74.0,1.0,60.0,1.0,0.0
9146,74.0,0.0,60.0,2.0,0.0
9147,69.0,2.0,60.0,2.0,0.0
9148,62.0,0.0,60.0,4.0,0.0
9149,50.0,1.0,15.0,6.0,0.0
9150,54.0,23.0,30.0,6.0,0.0
9151,50.0,2.0,60.0,5.0,0.0
9152,57.0,2.0,30.0,12.0,0.0
9153,62.0,0.0,30.0,11.0,0.0
9154,42.0,28.0,30.0,6.0,0.0
9155,50.0,0.0,30.0,6.0,0.0
9156,74.0,0.0,60.0,1.0,0.0
9157,81.0,1.0,60.0,1.0,0.0
9158,62.0,0.0,30.0,12.0,0.0
9159,66.0,2.0,30.0,11.0,0.0
9160,62.0,2.0,60.0,4.0,0.0
9161,74.0,0.0,60.0,2.0,0.0
9162,69.0,0.0,60.0,2.0,0.0
9163,54.0,23.0,30.0,6.0,0.0
9164,50.0,0.0,30.0,6.0,0.0
9165,62.0,27.0,180.0,3.0,0.0
9166,50.0,0.0,60.0,5.0,0.0
9167,57.0,0.0,30.0,12.0,0.0
9168,62.0,2.0,30.0,11.0,0.0
9169,50.0,28.0,30.0,6.0,0.0
9170,42.0,0.0,30.0,6.0,0.0
9171,91.0,0.0,60.0,0.0,0.0
9172,79.0,0.0,60.0,0.0,0.0
9173,79.0,2.0,60.0,10.0,0.0
9174,62.0,2.0,30.0,12.0,0.0
9175,74.0,1.0,60.0,1.0,0.0
9176,81.0,0.0,60.0,1.0,0.0
9177,66.0,0.0,30.0,11.0,0.0
9178,74.0,0.0,60.0,2.0,0.0
9179,69.0,2.0,60.0,2.0,0.0
9180,62.0,0.0,60.0,4.0,0.0
9181,54.0,23.0,30.0,6.0,0.0
9182,50.0,0.0,60.0,5.0,0.0
9183,57.0,2.0,30.0,12.0,0.0
9184,62.0,0.0,30.0,11.0,0.0
9185,50.0,0.0,15.0,6.0,0.0
9186,42.0,0.0,30.0,6.0,0.0
9187,78.0,2.0,60.0,10.0,0.0
9188,78.0,0.0,60.0,0.0,0.0
9189,90.0,0.0,60.0,0.0,0.0
9190,66.0,2.0,30.0,11.0,0.0
9191,62.0,0.0,30.0,12.0,0.0
9192,81.0,0.0,60.0,1.0,0.0
9193,74.0,1.0,60.0,1.0,0.0
9194,62.0,1.0,60.0,4.0,0.0
9195,69.0,0.0,60.0,2.0,0.0
9196,74.0,0.0,60.0,2.0,0.0
9197,50.0,28.0,15.0,6.0,0.0
9198,54.0,21.0,30.0,6.0,0.0
9199,50.0,5.0,60.0,5.0,0.0
9200,62.0,0.0,30.0,11.0,0.0
9201,57.0,0.0,30.0,12.0,0.0
9202,42.0,0.0,30.0,6.0,0.0
9203,50.0,1.0,30.0,6.0,0.0
9204,88.0,0.0,150.0,0.0,0.0
9205,76.0,7.0,150.0,10.0,0.0
9206,76.0,0.0,150.0,0.0,0.0
9207,83.0,1.0,60.0,1.0,0.0
9208,74.0,0.0,60.0,1.0,0.0
9209,62.0,2.0,30.0,12.0,0.0
9210,74.0,0.0,30.0,11.0,0.0
9211,74.0,2.0,60.0,2.0,0.0
9212,71.0,0.0,60.0,2.0,0.0
9213,62.0,0.0,60.0,4.0,0.0
9214,52.0,23.0,30.0,6.0,0.0
9215,50.0,0.0,30.0,6.0,0.0
9216,59.0,27.0,180.0,3.0,0.0
9217,55.0,0.0,360.0,3.0,0.0
9218,55.0,3.0,120.0,13.0,0.0
9219,50.0,2.0,60.0,5.0,0.0
9220,43.0,17.0,120.0,14.0,0.0
9221,62.0,0.0,30.0,11.0,0.0
9222,59.0,2.0,30.0,12.0,0.0
9223,40.0,0.0,30.0,6.0,0.0
9224,62.0,2.0,30.0,12.0,0.0
9225,74.0,1.0,60.0,1.0,0.0
9226,83.0,0.0,60.0,1.0,0.0
9227,74.0,0.0,30.0,11.0,0.0
9228,71.0,0.0,60.0,2.0,0.0
9229,74.0,2.0,60.0,2.0,0.0
9230,62.0,0.0,60.0,4.0,0.0
9231,50.0,28.0,15.0,6.0,0.0
9232,52.0,23.0,30.0,6.0,0.0
9233,50.0,2.0,60.0,5.0,0.0
9234,62.0,2.0,30.0,11.0,0.0
9235,59.0,0.0,30.0,12.0,0.0
9236,40.0,0.0,30.0,6.0,0.0
9237,62.0,2.0,30.0,12.0,0.0
9238,74.0,0.0,30.0,11.0,0.0
9239,74.0,0.0,60.0,1.0,0.0
9240,83.0,1.0,60.0,1.0,0.0
9241,62.0,0.0,60.0,4.0,0.0
9242,74.0,2.0,60.0,2.0,0.0
9243,71.0,0.0,60.0,2.0,0.0
9244,50.0,1.0,15.0,6.0,0.0
9245,52.0,6.0,30.0,6.0,0.0
9246,50.0,0.0,60.0,5.0,0.0
9247,90.0,0.0,15.0,0.0,0.0
9248,78.0,10.0,15.0,0.0,0.0
9249,78.0,0.0,15.0,10.0,0.0
9250,59.0,0.0,30.0,12.0,0.0
9251,62.0,2.0,30.0,11.0,0.0
9252,40.0,1.0,30.0,6.0,0.0
9253,50.0,0.0,15.0,6.0,0.0
9254,76.0,7.0,15.0,10.0,0.0
9255,88.0,0.0,15.0,0.0,0.0
9256,76.0,0.0,15.0,0.0,0.0
9257,87.0,2.0,15.0,0.0,0.0
9258,75.0,0.0,15.0,0.0,0.0
9259,75.0,0.0,15.0,10.0,0.0
9260,88.0,0.0,60.0,0.0,0.0
9261,76.0,0.0,60.0,0.0,0.0
9262,76.0,0.0,60.0,10.0,0.0
9263,83.0,1.0,60.0,1.0,0.0
9264,74.0,0.0,30.0,11.0,0.0
9265,74.0,0.0,60.0,1.0,0.0
9266,62.0,2.0,30.0,12.0,0.0
9267,74.0,0.0,60.0,2.0,0.0
9268,71.0,0.0,60.0,2.0,0.0
9269,62.0,2.0,60.0,4.0,0.0
9270,50.0,0.0,15.0,6.0,0.0
9271,52.0,23.0,30.0,6.0,0.0
9272,50.0,2.0,60.0,5.0,0.0
9273,67.0,32.0,180.0,3.0,0.0
9274,62.0,0.0,30.0,11.0,0.0
9275,59.0,2.0,30.0,12.0,0.0
9276,50.0,0.0,15.0,6.0,0.0
9277,40.0,0.0,30.0,6.0,0.0
9278,79.0,2.0,60.0,10.0,0.0
9279,91.0,2.0,60.0,0.0,0.0
9280,79.0,0.0,60.0,0.0,0.0
9281,74.0,2.0,30.0,11.0,0.0
9282,74.0,1.0,60.0,1.0,0.0
9283,83.0,0.0,60.0,1.0,0.0
9284,62.0,0.0,30.0,12.0,0.0
9285,71.0,2.0,60.0,2.0,0.0
9286,62.0,0.0,60.0,4.0,0.0
9287,74.0,0.0,60.0,2.0,0.0
9288,50.0,28.0,15.0,6.0,0.0
9289,52.0,0.0,30.0,6.0,0.0
9290,50.0,0.0,60.0,5.0,0.0
9291,62.0,2.0,30.0,11.0,0.0
9292,59.0,0.0,30.0,12.0,0.0
9293,50.0,21.0,15.0,6.0,0.0
9294,40.0,26.0,30.0,6.0,0.0
9295,83.0,0.0,30.0,0.0,0.0
9296,95.0,2.0,30.0,0.0,0.0
9297,83.0,19.0,30.0,10.0,0.0
9298,62.0,0.0,30.0,12.0,0.0
9299,83.0,1.0,60.0,1.0,0.0
9300,74.0,0.0,60.0,1.0,0.0
9301,74.0,2.0,30.0,11.0,0.0
9302,62.0,0.0,60.0,4.0,0.0
9303,74.0,0.0,60.0,2.0,0.0
9304,71.0,1.0,60.0,2.0,0.0
9305,52.0,4.0,30.0,6.0,0.0
9306,50.0,0.0,15.0,6.0,0.0
9307,50.0,0.0,60.0,5.0,0.0
9308,59.0,0.0,30.0,12.0,0.0
9309,62.0,0.0,30.0,11.0,0.0
9310,40.0,0.0,30.0,6.0,0.0
9311,50.0,1.0,30.0,6.0,0.0
9312,81.0,2.0,240.0,0.0,0.0
9313,69.0,0.0,240.0,0.0,0.0
9314,69.0,0.0,240.0,10.0,0.0
9315,62.0,2.0,30.0,12.0,0.0
9316,78.0,1.0,60.0,1.0,0.0
9317,66.0,0.0,30.0,11.0,0.0
9318,74.0,0.0,60.0,1.0,0.0
9319,74.0,2.0,60.0,2.0,0.0
9320,69.0,0.0,60.0,2.0,0.0
9321,57.0,0.0,60.0,4.0,0.0
9322,50.0,0.0,30.0,6.0,0.0
9323,54.0,23.0,30.0,6.0,0.0
9324,69.0,0.0,180.0,3.0,0.0
9325,57.0,2.0,180.0,3.0,0.0
9326,45.0,2.0,60.0,5.0,0.0
9327,57.0,3.0,120.0,13.0,0.0
9328,45.0,24.0,120.0,14.0,0.0
9329,62.0,2.0,30.0,11.0,0.0
9330,57.0,0.0,30.0,12.0,0.0
9331,45.0,0.0,30.0,6.0,0.0
9332,50.0,28.0,30.0,6.0,0.0
9333,62.0,0.0,30.0,12.0,0.0
9334,78.0,1.0,60.0,1.0,0.0
9335,66.0,2.0,30.0,11.0,0.0
9336,81.0,0.0,60.0,1.0,0.0
9337,62.0,2.0,60.0,4.0,0.0
9338,69.0,0.0,60.0,2.0,0.0
9339,74.0,0.0,60.0,2.0,0.0
9340,54.0,0.0,30.0,6.0,0.0
9341,50.0,23.0,30.0,6.0,0.0
9342,54.0,2.0,60.0,5.0,0.0
9343,62.0,0.0,30.0,11.0,0.0
9344,57.0,2.0,30.0,12.0,0.0
9345,45.0,0.0,30.0,6.0,0.0
9346,62.0,0.0,30.0,12.0,0.0
9347,66.0,2.0,30.0,11.0,0.0
9348,78.0,1.0,60.0,1.0,0.0
9349,81.0,0.0,60.0,1.0,0.0
9350,62.0,2.0,60.0,4.0,0.0
9351,74.0,0.0,60.0,2.0,0.0
9352,69.0,0.0,60.0,2.0,0.0
9353,54.0,0.0,30.0,6.0,0.0
9354,50.0,1.0,15.0,6.0,0.0
9355,54.0,0.0,60.0,5.0,0.0
9356,62.0,2.0,30.0,11.0,0.0
9357,57.0,0.0,30.0,12.0,0.0
9358,50.0,23.0,15.0,6.0,0.0
9359,45.0,28.0,30.0,6.0,0.0
9360,62.0,2.0,30.0,12.0,0.0
9361,78.0,0.0,60.0,1.0,0.0
9362,81.0,1.0,60.0,1.0,0.0
9363,66.0,0.0,30.0,11.0,0.0
9364,74.0,0.0,60.0,2.0,0.0
9365,69.0,2.0,60.0,2.0,0.0
9366,62.0,0.0,60.0,4.0,0.0
9367,54.0,21.0,30.0,6.0,0.0
9368,50.0,0.0,30.0,6.0,0.0
9369,45.0,0.0,180.0,3.0,0.0
9370,57.0,0.0,180.0,3.0,0.0
9371,54.0,2.0,60.0,5.0,0.0
9372,57.0,2.0,30.0,12.0,0.0
9373,62.0,0.0,30.0,11.0,0.0
9374,50.0,0.0,30.0,6.0,0.0
9375,45.0,28.0,30.0,6.0,0.0
9376,71.0,0.0,60.0,0.0,0.0
9377,83.0,5.0,60.0,0.0,0.0
9378,71.0,0.0,60.0,10.0,0.0
9379,78.0,0.0,60.0,1.0,0.0
9380,81.0,1.0,60.0,1.0,0.0
9381,66.0,2.0,30.0,11.0,0.0
9382,62.0,0.0,30.0,12.0,0.0
9383,69.0,2.0,60.0,2.0,0.0
9384,74.0,0.0,60.0,2.0,0.0
9385,62.0,0.0,60.0,4.0,0.0
9386,54.0,0.0,30.0,6.0,0.0
9387,54.0,2.0,60.0,5.0,0.0
9388,57.0,0.0,30.0,12.0,0.0
9389,62.0,2.0,30.0,11.0,0.0
9390,50.0,18.0,15.0,6.0,0.0
9391,45.0,28.0,30.0,6.0,0.0
9392,73.0,5.0,60.0,0.0,0.0
9393,85.0,0.0,60.0,0.0,0.0
9394,73.0,0.0,60.0,10.0,0.0
9395,81.0,0.0,60.0,1.0,0.0
9396,78.0,0.0,60.0,1.0,0.0
9397,62.0,2.0,30.0,12.0,0.0
9398,66.0,0.0,30.0,11.0,0.0
9399,74.0,0.0,60.0,2.0,0.0
9400,62.0,1.0,60.0,4.0,0.0
9401,69.0,0.0,60.0,2.0,0.0
9402,54.0,0.0,30.0,6.0,0.0
9403,50.0,18.0,30.0,6.0,0.0
9404,54.0,32.0,60.0,5.0,0.0
9405,57.0,0.0,30.0,12.0,0.0
9406,62.0,1.0,30.0,11.0,0.0
9407,45.0,0.0,30.0,6.0,0.0
9408,50.0,1.0,30.0,6.0,0.0
9409,86.0,0.0,60.0,0.0,0.0
9410,74.0,5.0,60.0,10.0,0.0
9411,74.0,0.0,60.0,0.0,0.0
9412,66.0,2.0,30.0,11.0,0.0
9413,78.0,0.0,60.0,1.0,0.0
9414,81.0,1.0,60.0,1.0,0.0
9415,62.0,0.0,30.0,12.0,0.0
9416,62.0,0.0,60.0,4.0,0.0
9417,74.0,2.0,60.0,2.0,0.0
9418,69.0,0.0,60.0,2.0,0.0
9419,54.0,18.0,30.0,6.0,0.0
9420,45.0,3.0,120.0,13.0,0.0
9421,54.0,2.0,60.0,5.0,0.0
9422,45.0,32.0,180.0,3.0,0.0
9423,57.0,0.0,180.0,3.0,0.0
9424,33.0,24.0,120.0,14.0,0.0
9425,62.0,2.0,30.0,11.0,0.0
9426,57.0,0.0,30.0,12.0,0.0
9427,50.0,0.0,15.0,6.0,0.0
9428,45.0,28.0,30.0,6.0,0.0
9429,76.0,0.0,60.0,10.0,0.0
9430,76.0,5.0,60.0,0.0,0.0
9431,88.0,0.0,60.0,0.0,0.0
9432,66.0,0.0,30.0,11.0,0.0
9433,62.0,2.0,30.0,12.0,0.0
9434,81.0,0.0,60.0,1.0,0.0
9435,78.0,1.0,60.0,1.0,0.0
9436,69.0,0.0,60.0,2.0,0.0
9437,74.0,0.0,60.0,2.0,0.0
9438,62.0,2.0,60.0,4.0,0.0
9439,54.0,0.0,30.0,6.0,0.0
9440,54.0,2.0,60.0,5.0,0.0
9441,62.0,2.0,30.0,11.0,0.0
9442,57.0,0.0,30.0,12.0,0.0
9443,45.0,0.0,30.0,6.0,0.0
9444,50.0,18.0,15.0,6.0,0.0
9445,78.0,5.0,60.0,0.0,0.0
9446,78.0,0.0,60.0,10.0,0.0
9447,90.0,0.0,60.0,0.0,0.0
9448,66.0,0.0,30.0,11.0,0.0
9449,78.0,0.0,60.0,1.0,0.0
9450,62.0,2.0,30.0,12.0,0.0
9451,81.0,0.0,60.0,1.0,0.0
9452,62.0,0.0,60.0,4.0,0.0
9453,74.0,0.0,60.0,2.0,0.0
9454,69.0,1.0,60.0,2.0,0.0
9455,50.0,1.0,15.0,6.0,0.0
9456,54.0,0.0,30.0,6.0,0.0
9457,54.0,0.0,60.0,5.0,0.0
9458,57.0,0.0,30.0,12.0,0.0
9459,62.0,1.0,30.0,11.0,0.0
9460,45.0,0.0,30.0,6.0,0.0
9461,50.0,1.0,30.0,6.0,0.0
9462,93.0,0.0,60.0,0.0,0.0
9463,81.0,0.0,60.0,0.0,0.0
9464,81.0,2.0,60.0,10.0,0.0
9465,81.0,0.0,60.0,1.0,0.0
9466,67.0,2.0,30.0,11.0,0.0
9467,61.0,0.0,30.0,12.0,0.0
9468,79.0,1.0,60.0,1.0,0.0
9469,64.0,2.0,60.0,4.0,0.0
9470,69.0,0.0,60.0,2.0,0.0
9471,73.0,0.0,60.0,2.0,0.0
9472,55.0,23.0,30.0,6.0,0.0
9473,45.0,0.0,180.0,3.0,0.0
9474,57.0,0.0,180.0,3.0,0.0
9475,57.0,0.0,60.0,5.0,0.0
9476,45.0,3.0,120.0,13.0,0.0
9477,33.0,22.0,120.0,14.0,0.0
9478,61.0,2.0,30.0,11.0,0.0
9479,57.0,0.0,30.0,12.0,0.0
9480,52.0,0.0,15.0,6.0,0.0
9481,45.0,28.0,30.0,6.0,0.0
9482,79.0,2.0,60.0,0.0,0.0
9483,91.0,0.0,60.0,0.0,0.0
9484,79.0,0.0,60.0,10.0,0.0
9485,61.0,0.0,30.0,12.0,0.0
9486,81.0,1.0,60.0,1.0,0.0
9487,79.0,0.0,60.0,1.0,0.0
9488,67.0,2.0,30.0,11.0,0.0
9489,69.0,0.0,60.0,2.0,0.0
9490,64.0,2.0,60.0,4.0,0.0
9491,73.0,0.0,60.0,2.0,0.0
9492,55.0,0.0,30.0,6.0,0.0
9493,52.0,21.0,30.0,6.0,0.0
9494,57.0,2.0,60.0,5.0,0.0
9495,57.0,2.0,30.0,12.0,0.0
9496,61.0,0.0,30.0,11.0,0.0
9497,45.0,1.0,30.0,6.0,0.0
9498,52.0,0.0,30.0,6.0,0.0
9499,76.0,0.0,30.0,0.0,0.0
9500,76.0,2.0,30.0,10.0,0.0
9501,88.0,0.0,30.0,0.0,0.0
9502,81.0,0.0,60.0,1.0,0.0
9503,79.0,1.0,60.0,1.0,0.0
9504,67.0,0.0,30.0,11.0,0.0
9505,61.0,2.0,30.0,12.0,0.0
9506,73.0,0.0,60.0,2.0,0.0
9507,69.0,0.0,60.0,2.0,0.0
9508,64.0,1.0,60.0,4.0,0.0
9509,55.0,0.0,30.0,6.0,0.0
9510,57.0,32.0,60.0,5.0,0.0
9511,78.0,2.0,30.0,0.0,0.0
9512,90.0,0.0,30.0,0.0,0.0
9513,78.0,0.0,30.0,10.0,0.0
9514,61.0,0.0,30.0,11.0,0.0
9515,57.0,0.0,30.0,12.0,0.0
9516,45.0,1.0,30.0,6.0,0.0
9517,52.0,21.0,15.0,6.0,0.0
9518,86.0,0.0,120.0,0.0,0.0
9519,74.0,0.0,120.0,0.0,0.0
9520,74.0,0.0,120.0,10.0,0.0
9521,62.0,2.0,30.0,12.0,0.0
9522,74.0,1.0,120.0,1.0,0.0
9523,78.0,0.0,120.0,1.0,0.0
9524,66.0,0.0,30.0,11.0,0.0
9525,66.0,1.0,120.0,2.0,0.0
9526,74.0,0.0,120.0,2.0,0.0
9527,62.0,0.0,120.0,4.0,0.0
9528,47.0,26.0,30.0,6.0,0.0
9529,47.0,2.0,60.0,3.0,0.0
9530,54.0,0.0,120.0,5.0,0.0
9531,47.0,3.0,120.0,13.0,0.0
9532,59.0,0.0,60.0,3.0,0.0
9533,35.0,24.0,120.0,14.0,0.0
9534,59.0,2.0,30.0,12.0,0.0
9535,62.0,0.0,30.0,11.0,0.0
9536,66.0,28.0,30.0,6.0,0.0
9537,66.0,0.0,30.0,12.0,0.0
9538,78.0,2.0,30.0,11.0,0.0
9539,62.0,26.0,30.0,6.0,0.0
9540,66.0,0.0,60.0,3.0,0.0
9541,62.0,2.0,60.0,3.0,0.0
9542,74.0,0.0,30.0,11.0,0.0
9543,62.0,0.0,30.0,12.0,0.0
9544,66.0,1.0,30.0,6.0,0.0
9545,78.0,2.0,30.0,11.0,0.0
9546,66.0,0.0,30.0,12.0,0.0
9547,62.0,28.0,30.0,6.0,0.0
9548,66.0,27.0,60.0,3.0,0.0
9549,62.0,0.0,60.0,3.0,0.0
9550,74.0,0.0,30.0,11.0,0.0
9551,62.0,2.0,30.0,12.0,0.0
9552,66.0,1.0,30.0,6.0,0.0
9553,79.0,2.0,30.0,11.0,0.0
9554,67.0,0.0,30.0,12.0,0.0
9555,64.0,28.0,30.0,6.0,0.0
9556,64.0,0.0,60.0,3.0,0.0
9557,67.0,25.0,60.0,3.0,0.0
9558,64.0,2.0,30.0,12.0,0.0
9559,76.0,0.0,30.0,11.0,0.0
9560,67.0,1.0,30.0,6.0,0.0
9561,74.0,2.0,30.0,10.0,0.0
9562,66.0,0.0,30.0,12.0,0.0
9563,78.0,2.0,30.0,11.0,0.0
9564,74.0,2.0,60.0,2.0,0.0
9565,78.0,0.0,60.0,2.0,0.0
9566,62.0,24.0,30.0,6.0,0.0
9567,66.0,0.0,60.0,3.0,0.0
9568,62.0,25.0,60.0,3.0,0.0
9569,76.0,2.0,30.0,10.0,0.0
9570,74.0,0.0,30.0,11.0,0.0
9571,62.0,2.0,30.0,12.0,0.0
9572,66.0,1.0,30.0,6.0,0.0
9573,78.0,2.0,30.0,10.0,0.0
9574,66.0,2.0,30.0,12.0,0.0
9575,78.0,0.0,30.0,11.0,0.0
9576,74.0,0.0,60.0,2.0,0.0
9577,78.0,1.0,60.0,2.0,0.0
9578,62.0,21.0,30.0,6.0,0.0
9579,76.0,7.0,30.0,10.0,0.0
9580,74.0,0.0,30.0,11.0,0.0
9581,62.0,1.0,30.0,12.0,0.0
9582,66.0,56.0,30.0,6.0,0.0
9583,76.0,3.0,60.0,10.0,0.0
9584,83.0,0.0,120.0,0.0,0.0
9585,86.0,2.0,120.0,0.0,0.0
9586,74.0,0.0,120.0,1.0,0.0
9587,78.0,1.0,120.0,1.0,0.0
9588,79.0,29.0,60.0,2.0,0.0
9589,76.0,0.0,60.0,2.0,0.0
9590,59.0,3.0,120.0,13.0,0.0
9591,47.0,24.0,120.0,14.0,0.0
9592,74.0,2.0,120.0,10.0,0.0
9593,74.0,2.0,30.0,11.0,0.0
9594,74.0,0.0,30.0,12.0,0.0
9595,78.0,1.0,60.0,2.0,0.0
9596,74.0,0.0,60.0,2.0,0.0
9597,59.0,26.0,30.0,6.0,0.0
9598,59.0,0.0,60.0,3.0,0.0
9599,62.0,0.0,60.0,3.0,0.0
9600,71.0,0.0,30.0,12.0,0.0
9601,71.0,0.0,30.0,11.0,0.0
9602,62.0,1.0,30.0,6.0,0.0
9603,74.0,2.0,30.0,12.0,0.0
9604,74.0,0.0,30.0,11.0,0.0
9605,59.0,26.0,30.0,6.0,0.0
9606,59.0,0.0,60.0,3.0,0.0
9607,62.0,27.0,60.0,3.0,0.0
9608,71.0,2.0,30.0,11.0,0.0
9609,71.0,0.0,30.0,12.0,0.0
9610,62.0,1.0,30.0,6.0,0.0
9611,76.0,2.0,30.0,12.0,0.0
9612,76.0,0.0,30.0,11.0,0.0
9613,61.0,28.0,30.0,6.0,0.0
9614,61.0,25.0,60.0,3.0,0.0
9615,64.0,0.0,60.0,3.0,0.0
9616,73.0,0.0,30.0,11.0,0.0
9617,73.0,2.0,30.0,12.0,0.0
9618,64.0,1.0,30.0,6.0,0.0
9619,83.0,2.0,30.0,10.0,0.0
9620,74.0,2.0,30.0,12.0,0.0
9621,74.0,0.0,30.0,11.0,0.0
9622,71.0,0.0,60.0,2.0,0.0
9623,74.0,2.0,60.0,2.0,0.0
9624,59.0,24.0,30.0,6.0,0.0
9625,59.0,25.0,60.0,3.0,0.0
9626,62.0,0.0,60.0,3.0,0.0
9627,85.0,2.0,30.0,10.0,0.0
9628,71.0,2.0,30.0,11.0,0.0
9629,71.0,0.0,30.0,12.0,0.0
9630,62.0,1.0,30.0,6.0,0.0
9631,86.0,2.0,30.0,10.0,0.0
9632,74.0,0.0,30.0,12.0,0.0
9633,74.0,2.0,30.0,11.0,0.0
9634,71.0,1.0,60.0,2.0,0.0
9635,74.0,0.0,60.0,2.0,0.0
9636,59.0,21.0,30.0,6.0,0.0
9637,85.0,7.0,30.0,10.0,0.0
9638,71.0,1.0,30.0,12.0,0.0
9639,71.0,0.0,30.0,11.0,0.0
9640,62.0,56.0,30.0,6.0,0.0
9641,85.0,3.0,60.0,10.0,0.0
9642,86.0,7.0,360.0,0.0,0.0
9643,83.0,2.0,720.0,0.0,0.0
9644,73.0,29.0,60.0,2.0,0.0
9645,76.0,0.0,60.0,2.0,0.0
9646,52.0,3.0,720.0,13.0,0.0
9647,64.0,27.0,720.0,5.0,0.0
9648,40.0,0.0,720.0,14.0,0.0
9649,83.0,7.0,180.0,10.0,0.0
9650,71.0,0.0,30.0,11.0,0.0
9651,71.0,2.0,30.0,12.0,0.0
9652,83.0,0.0,60.0,1.0,0.0
9653,80.0,3.0,60.0,1.0,0.0
9654,74.0,0.0,60.0,2.0,0.0
9655,71.0,1.0,60.0,2.0,0.0
9656,59.0,23.0,30.0,6.0,0.0
9657,59.0,0.0,60.0,3.0,0.0
9658,56.0,2.0,60.0,3.0,0.0
9659,68.0,0.0,30.0,11.0,0.0
9660,68.0,1.0,30.0,12.0,0.0
9661,56.0,28.0,30.0,6.0,0.0
9662,71.0,0.0,30.0,11.0,0.0
9663,71.0,2.0,30.0,12.0,0.0
9664,80.0,0.0,60.0,1.0,0.0
9665,83.0,0.0,60.0,1.0,0.0
9666,59.0,28.0,30.0,6.0,0.0
9667,59.0,0.0,60.0,3.0,0.0
9668,56.0,27.0,60.0,3.0,0.0
9669,68.0,0.0,30.0,12.0,0.0
9670,68.0,2.0,30.0,11.0,0.0
9671,56.0,1.0,30.0,6.0,0.0
9672,81.0,2.0,60.0,1.0,0.0
9673,85.0,0.0,60.0,1.0,0.0
9674,73.0,2.0,30.0,11.0,0.0
9675,73.0,0.0,30.0,12.0,0.0
9676,61.0,21.0,30.0,6.0,0.0
9677,57.0,0.0,60.0,3.0,0.0
9678,61.0,25.0,60.0,3.0,0.0
9679,69.0,0.0,30.0,12.0,0.0
9680,69.0,0.0,30.0,11.0,0.0
9681,57.0,1.0,30.0,6.0,0.0
9682,83.0,2.0,30.0,10.0,0.0
9683,80.0,3.0,60.0,1.0,0.0
9684,71.0,0.0,30.0,11.0,0.0
9685,71.0,2.0,30.0,12.0,0.0
9686,83.0,0.0,60.0,1.0,0.0
9687,59.0,23.0,30.0,6.0,0.0
9688,56.0,0.0,60.0,3.0,0.0
9689,59.0,2.0,60.0,3.0,0.0
9690,85.0,0.0,30.0,10.0,0.0
9691,68.0,0.0,30.0,12.0,0.0
9692,68.0,2.0,30.0,11.0,0.0
9693,56.0,26.0,30.0,6.0,0.0
9694,86.0,2.0,30.0,10.0,0.0
9695,80.0,0.0,60.0,1.0,0.0
9696,71.0,2.0,30.0,12.0,0.0
9697,71.0,0.0,30.0,11.0,0.0
9698,83.0,0.0,60.0,1.0,0.0
9699,59.0,21.0,30.0,6.0,0.0
9700,59.0,27.0,60.0,3.0,0.0
9701,56.0,0.0,60.0,3.0,0.0
9702,87.0,0.0,30.0,10.0,0.0
9703,68.0,0.0,30.0,12.0,0.0
9704,68.0,2.0,30.0,11.0,0.0
9705,56.0,1.0,30.0,6.0,0.0
9706,87.0,2.0,60.0,10.0,0.0
9707,92.0,0.0,360.0,0.0,0.0
9708,78.0,0.0,60.0,1.0,0.0
9709,81.0,0.0,60.0,1.0,0.0
9710,69.0,2.0,30.0,11.0,0.0
9711,69.0,0.0,30.0,12.0,0.0
9712,57.0,26.0,30.0,6.0,0.0
9713,54.0,0.0,60.0,3.0,0.0
9714,57.0,27.0,60.0,3.0,0.0
9715,66.0,0.0,30.0,11.0,0.0
9716,66.0,2.0,30.0,12.0,0.0
9717,54.0,1.0,30.0,6.0,0.0
9718,88.0,7.0,180.0,10.0,0.0
9719,68.0,2.0,30.0,12.0,0.0
9720,80.0,0.0,60.0,1.0,0.0
9721,76.0,3.0,60.0,1.0,0.0
9722,68.0,0.0,30.0,11.0,0.0
9723,56.0,23.0,30.0,6.0,0.0
9724,56.0,0.0,60.0,3.0,0.0
9725,52.0,2.0,60.0,3.0,0.0
9726,64.0,0.0,30.0,12.0,0.0
9727,64.0,2.0,30.0,11.0,0.0
9728,52.0,28.0,30.0,6.0,0.0
9729,80.0,0.0,60.0,1.0,0.0
9730,68.0,2.0,30.0,12.0,0.0
9731,76.0,1.0,60.0,1.0,0.0
9732,68.0,0.0,30.0,11.0,0.0
9733,68.0,1.0,60.0,2.0,0.0
9734,64.0,0.0,60.0,2.0,0.0
9735,56.0,28.0,30.0,6.0,0.0
9736,52.0,0.0,60.0,3.0,0.0
9737,56.0,27.0,60.0,3.0,0.0
9738,64.0,0.0,30.0,12.0,0.0
9739,64.0,0.0,30.0,11.0,0.0
9740,52.0,1.0,30.0,6.0,0.0
9741,66.0,0.0,30.0,12.0,0.0
9742,66.0,2.0,30.0,11.0,0.0
9743,78.0,0.0,60.0,1.0,0.0
9744,74.0,0.0,60.0,1.0,0.0
9745,66.0,0.0,60.0,2.0,0.0
9746,62.0,1.0,60.0,2.0,0.0
9747,54.0,21.0,30.0,6.0,0.0
9748,54.0,0.0,60.0,3.0,0.0
9749,50.0,27.0,60.0,3.0,0.0
9750,62.0,1.0,30.0,12.0,0.0
9751,62.0,0.0,30.0,11.0,0.0
9752,50.0,1.0,30.0,6.0,0.0
9753,76.0,2.0,60.0,10.0,0.0
9754,76.0,3.0,60.0,1.0,0.0
9755,73.0,0.0,60.0,1.0,0.0
9756,64.0,0.0,30.0,11.0,0.0
9757,64.0,2.0,30.0,12.0,0.0
9758,64.0,1.0,60.0,2.0,0.0
9759,61.0,0.0,60.0,2.0,0.0
9760,52.0,23.0,30.0,6.0,0.0
9761,52.0,25.0,60.0,3.0,0.0
9762,49.0,0.0,60.0,3.0,0.0
9763,61.0,1.0,30.0,11.0,0.0
9764,61.0,0.0,30.0,12.0,0.0
9765,49.0,1.0,30.0,6.0,0.0
9766,78.0,2.0,30.0,10.0,0.0
9767,74.0,0.0,60.0,1.0,0.0
9768,62.0,2.0,30.0,11.0,0.0
9769,71.0,0.0,60.0,1.0,0.0
9770,62.0,0.0,30.0,12.0,0.0
9771,59.0,1.0,60.0,2.0,0.0
9772,62.0,0.0,60.0,2.0,0.0
9773,50.0,21.0,30.0,6.0,0.0
9774,47.0,0.0,60.0,3.0,0.0
9775,50.0,0.0,60.0,3.0,0.0
9776,80.0,0.0,30.0,10.0,0.0
9777,59.0,1.0,30.0,12.0,0.0
9778,59.0,0.0,30.0,11.0,0.0
9779,47.0,1.0,30.0,6.0,0.0
9780,81.0,7.0,240.0,10.0,0.0
9781,85.0,0.0,120.0,0.0,0.0
9782,93.0,2.0,120.0,0.0,0.0
9783,73.0,2.0,60.0,1.0,0.0
9784,69.0,0.0,60.0,1.0,0.0
9785,64.0,25.0,30.0,11.0,0.0
9786,61.0,0.0,30.0,12.0,0.0
9787,64.0,2.0,15.0,4.0,0.0
9788,61.0,0.0,120.0,2.0,0.0
9789,57.0,0.0,120.0,2.0,0.0
9790,45.0,3.0,60.0,6.0,0.0
9791,57.0,0.0,120.0,5.0,0.0
9792,45.0,0.0,360.0,3.0,0.0
9793,45.0,3.0,120.0,13.0,0.0
9794,33.0,24.0,120.0,14.0,0.0
9795,57.0,2.0,30.0,12.0,0.0
9796,61.0,0.0,30.0,11.0,0.0
9797,52.0,28.0,30.0,6.0,0.0
9798,73.0,0.0,60.0,1.0,0.0
9799,64.0,0.0,30.0,11.0,0.0
9800,76.0,5.0,60.0,1.0,0.0
9801,61.0,2.0,30.0,12.0,0.0
9802,45.0,0.0,60.0,6.0,0.0
9803,49.0,21.0,30.0,6.0,0.0
9804,61.0,0.0,30.0,11.0,0.0
9805,57.0,1.0,30.0,12.0,0.0
9806,52.0,1.0,30.0,6.0,0.0
9807,61.0,0.0,30.0,12.0,0.0
9808,64.0,2.0,30.0,11.0,0.0
9809,73.0,7.0,60.0,1.0,0.0
9810,76.0,0.0,60.0,1.0,0.0
9811,44.0,28.0,60.0,6.0,0.0
9812,49.0,21.0,30.0,6.0,0.0
9813,57.0,0.0,30.0,12.0,0.0
9814,61.0,2.0,30.0,11.0,0.0
9815,52.0,0.0,30.0,6.0,0.0
9816,73.0,0.0,120.0,1.0,0.0
9817,61.0,2.0,30.0,12.0,0.0
9818,76.0,0.0,120.0,1.0,0.0
9819,64.0,0.0,30.0,11.0,0.0
9820,49.0,21.0,30.0,6.0,0.0
9821,45.0,3.0,240.0,6.0,0.0
9822,61.0,0.0,30.0,11.0,0.0
9823,57.0,2.0,30.0,12.0,0.0
9824,52.0,26.0,30.0,6.0,0.0
9825,81.0,2.0,30.0,10.0,0.0
9826,64.0,0.0,30.0,11.0,0.0
9827,61.0,2.0,30.0,12.0,0.0
9828,61.0,0.0,60.0,2.0,0.0
9829,64.0,2.0,60.0,2.0,0.0
9830,57.0,2.0,60.0,4.0,0.0
9831,49.0,22.0,30.0,6.0,0.0
9832,45.0,2.0,60.0,5.0,0.0
9833,79.0,0.0,30.0,10.0,0.0
9834,61.0,0.0,30.0,11.0,0.0
9835,57.0,2.0,30.0,12.0,0.0
9836,52.0,26.0,30.0,6.0,0.0
9837,76.0,2.0,30.0,10.0,0.0
9838,64.0,2.0,30.0,11.0,0.0
9839,61.0,0.0,30.0,12.0,0.0
9840,61.0,0.0,60.0,2.0,0.0
9841,64.0,1.0,60.0,2.0,0.0
9842,57.0,1.0,60.0,4.0,0.0
9843,49.0,21.0,30.0,6.0,0.0
9844,45.0,32.0,60.0,5.0,0.0
9845,73.0,1.0,30.0,10.0,0.0
9846,57.0,0.0,30.0,12.0,0.0
9847,61.0,1.0,30.0,11.0,0.0
9848,52.0,1.0,30.0,6.0,0.0
9849,90.0,2.0,120.0,0.0,0.0
9850,86.0,0.0,120.0,0.0,0.0
9851,76.0,0.0,120.0,10.0,0.0
9852,66.0,0.0,30.0,11.0,0.0
9853,62.0,2.0,30.0,12.0,0.0
9854,66.0,1.0,120.0,2.0,0.0
9855,62.0,0.0,120.0,2.0,0.0
9856,57.0,0.0,120.0,4.0,0.0
9857,50.0,25.0,30.0,6.0,0.0
9858,45.0,0.0,120.0,5.0,0.0
9859,50.0,10.0,360.0,3.0,0.0
9860,45.0,3.0,120.0,13.0,0.0
9861,33.0,24.0,120.0,14.0,0.0
9862,62.0,2.0,30.0,11.0,0.0
9863,57.0,0.0,30.0,12.0,0.0
9864,54.0,28.0,30.0,6.0,0.0
9865,66.0,0.0,30.0,11.0,0.0
9866,62.0,2.0,30.0,12.0,0.0
9867,78.0,5.0,60.0,1.0,0.0
9868,74.0,0.0,60.0,1.0,0.0
9869,45.0,1.0,60.0,6.0,0.0
9870,50.0,21.0,30.0,6.0,0.0
9871,57.0,1.0,30.0,12.0,0.0
9872,62.0,0.0,30.0,11.0,0.0
9873,54.0,0.0,30.0,6.0,0.0
9874,74.0,7.0,120.0,10.0,0.0
9875,74.0,7.0,60.0,1.0,0.0
9876,66.0,0.0,30.0,11.0,0.0
9877,62.0,2.0,30.0,12.0,0.0
9878,78.0,0.0,60.0,1.0,0.0
9879,50.0,21.0,30.0,6.0,0.0
9880,44.0,28.0,60.0,6.0,0.0
9881,62.0,0.0,30.0,11.0,0.0
9882,57.0,2.0,30.0,12.0,0.0
9883,54.0,0.0,30.0,6.0,0.0
9884,78.0,0.0,120.0,1.0,0.0
9885,66.0,2.0,30.0,11.0,0.0
9886,62.0,0.0,30.0,12.0,0.0
9887,74.0,0.0,120.0,1.0,0.0
9888,45.0,3.0,240.0,6.0,0.0
9889,50.0,21.0,30.0,6.0,0.0
9890,57.0,0.0,30.0,12.0,0.0
9891,62.0,2.0,30.0,11.0,0.0
9892,54.0,26.0,30.0,6.0,0.0
9893,74.0,2.0,30.0,10.0,0.0
9894,66.0,2.0,30.0,11.0,0.0
9895,62.0,0.0,30.0,12.0,0.0
9896,66.0,0.0,60.0,2.0,0.0
9897,62.0,2.0,60.0,2.0,0.0
9898,57.0,2.0,60.0,4.0,0.0
9899,50.0,22.0,30.0,6.0,0.0
9900,45.0,0.0,60.0,5.0,0.0
9901,69.0,2.0,30.0,10.0,0.0
9902,62.0,0.0,30.0,11.0,0.0
9903,57.0,2.0,30.0,12.0,0.0
9904,54.0,26.0,30.0,6.0,0.0
9905,66.0,2.0,30.0,10.0,0.0
9906,66.0,0.0,30.0,11.0,0.0
9907,62.0,2.0,30.0,12.0,0.0
9908,66.0,0.0,60.0,2.0,0.0
9909,62.0,1.0,60.0,2.0,0.0
9910,57.0,1.0,60.0,4.0,0.0
9911,50.0,21.0,30.0,6.0,0.0
9912,45.0,0.0,60.0,5.0,0.0
9913,62.0,1.0,30.0,10.0,0.0
9914,62.0,0.0,30.0,11.0,0.0
9915,57.0,1.0,30.0,12.0,0.0
9916,54.0,1.0,30.0,6.0,0.0
9917,88.0,0.0,120.0,0.0,0.0
9918,61.0,10.0,15.0,10.0,0.0
9919,81.0,2.0,120.0,0.0,0.0
9920,67.0,0.0,30.0,11.0,0.0
9921,64.0,27.0,30.0,12.0,0.0
9922,64.0,1.0,120.0,2.0,0.0
9923,67.0,0.0,120.0,2.0,0.0
9924,57.0,1.0,360.0,4.0,0.0
9925,45.0,3.0,120.0,13.0,0.0
9926,52.0,0.0,360.0,3.0,0.0
9927,45.0,32.0,360.0,5.0,0.0
9928,33.0,24.0,120.0,14.0,0.0
9929,62.0,10.0,15.0,10.0,0.0
9930,64.0,2.0,15.0,10.0,0.0
9931,62.0,0.0,90.0,10.0,0.0
9932,57.0,2.0,30.0,12.0,0.0
9933,64.0,0.0,30.0,11.0,0.0
9934,52.0,28.0,30.0,6.0,0.0
9935,79.0,0.0,60.0,1.0,0.0
9936,73.0,5.0,60.0,1.0,0.0
9937,64.0,0.0,30.0,12.0,0.0
9938,67.0,2.0,30.0,11.0,0.0
9939,45.0,1.0,60.0,6.0,0.0
9940,49.0,21.0,30.0,6.0,0.0
9941,57.0,0.0,30.0,12.0,0.0
9942,64.0,1.0,30.0,11.0,0.0
9943,52.0,0.0,30.0,6.0,0.0
9944,61.0,7.0,120.0,10.0,0.0
9945,73.0,7.0,60.0,1.0,0.0
9946,79.0,0.0,60.0,1.0,0.0
9947,64.0,2.0,30.0,12.0,0.0
9948,67.0,0.0,30.0,11.0,0.0
9949,49.0,21.0,30.0,6.0,0.0
9950,44.0,0.0,60.0,6.0,0.0
9951,57.0,2.0,30.0,12.0,0.0
9952,64.0,0.0,30.0,11.0,0.0
9953,52.0,28.0,30.0,6.0,0.0
9954,79.0,2.0,120.0,1.0,0.0
9955,67.0,0.0,30.0,11.0,0.0
9956,73.0,0.0,120.0,1.0,0.0
9957,64.0,2.0,30.0,12.0,0.0
9958,45.0,3.0,240.0,6.0,0.0
9959,49.0,21.0,30.0,6.0,0.0
9960,57.0,0.0,30.0,12.0,0.0
9961,64.0,2.0,30.0,11.0,0.0
9962,52.0,26.0,30.0,6.0,0.0
9963,61.0,2.0,30.0,10.0,0.0
9964,67.0,2.0,30.0,11.0,0.0
9965,64.0,0.0,30.0,12.0,0.0
9966,64.0,4.0,60.0,2.0,0.0
9967,67.0,0.0,60.0,2.0,0.0
9968,49.0,22.0,30.0,6.0,0.0
9969,64.0,2.0,30.0,10.0,0.0
9970,57.0,0.0,30.0,12.0,0.0
9971,64.0,0.0,30.0,11.0,0.0
9972,52.0,26.0,30.0,6.0,0.0
9973,69.0,2.0,30.0,10.0,0.0
9974,67.0,0.0,30.0,11.0,0.0
9975,64.0,2.0,30.0,12.0,0.0
9976,64.0,0.0,60.0,2.0,0.0
9977,67.0,1.0,60.0,2.0,0.0
9978,49.0,21.0,30.0,6.0,0.0
9979,73.0,1.0,30.0,10.0,0.0
9980,57.0,0.0,30.0,12.0,0.0
9981,64.0,1.0,30.0,11.0,0.0
9982,52.0,1.0,30.0,6.0,0.0
9983,86.0,0.0,120.0,0.0,0.0
9984,78.0,0.0,120.0,0.0,0.0
9985,76.0,2.0,120.0,10.0,0.0
9986,66.0,0.0,30.0,11.0,0.0
9987,62.0,2.0,30.0,12.0,0.0
9988,62.0,1.0,360.0,4.0,0.0
9989,62.0,1.0,120.0,2.0,0.0
9990,66.0,0.0,120.0,2.0,0.0
9991,50.0,25.0,30.0,6.0,0.0
9992,45.0,3.0,120.0,13.0,0.0
9993,50.0,30.0,360.0,3.0,0.0
9994,50.0,0.0,360.0,5.0,0.0
9995,33.0,24.0,120.0,14.0,0.0
9996,62.0,0.0,30.0,11.0,0.0
9997,57.0,2.0,30.0,12.0,0.0
9998,54.0,28.0,30.0,6.0,0.0
9999,66.0,2.0,30.0,11.0,0.0
10000,74.0,0.0,60.0,1.0,0.0
10001,78.0,5.0,60.0,1.0,0.0
10002,62.0,0.0,30.0,12.0,0.0
10003,45.0,0.0,60.0,6.0,0.0
10004,50.0,21.0,30.0,6.0,0.0
10005,62.0,1.0,30.0,11.0,0.0
10006,57.0,0.0,30.0,12.0,0.0
10007,54.0,1.0,30.0,6.0,0.0
10008,74.0,7.0,120.0,10.0,0.0
10009,62.0,2.0,30.0,12.0,0.0
10010,78.0,0.0,60.0,1.0,0.0
10011,66.0,0.0,30.0,11.0,0.0
10012,74.0,7.0,60.0,1.0,0.0
10013,44.0,28.0,60.0,6.0,0.0
10014,50.0,21.0,30.0,6.0,0.0
10015,62.0,2.0,30.0,11.0,0.0
10016,57.0,0.0,30.0,12.0,0.0
10017,54.0,0.0,30.0,6.0,0.0
10018,62.0,2.0,30.0,12.0,0.0
10019,74.0,0.0,120.0,1.0,0.0
10020,78.0,0.0,120.0,1.0,0.0
10021,66.0,0.0,30.0,11.0,0.0
10022,45.0,1.0,180.0,6.0,0.0
10023,50.0,21.0,30.0,6.0,0.0
10024,62.0,2.0,30.0,11.0,0.0
10025,57.0,0.0,30.0,12.0,0.0
10026,54.0,11.0,30.0,6.0,0.0
10027,76.0,15.0,15.0,10.0,0.0
10028,62.0,2.0,30.0,12.0,0.0
10029,66.0,0.0,30.0,11.0,0.0
10030,66.0,0.0,60.0,2.0,0.0
10031,62.0,4.0,60.0,2.0,0.0
10032,50.0,22.0,30.0,6.0,0.0
10033,74.0,2.0,15.0,10.0,0.0
10034,73.0,2.0,30.0,10.0,0.0
10035,62.0,0.0,30.0,11.0,0.0
10036,57.0,2.0,30.0,12.0,0.0
10037,54.0,26.0,30.0,6.0,0.0
10038,74.0,2.0,30.0,10.0,0.0
10039,62.0,0.0,30.0,12.0,0.0
10040,66.0,2.0,30.0,11.0,0.0
10041,66.0,0.0,60.0,2.0,0.0
10042,62.0,1.0,60.0,2.0,0.0
10043,50.0,21.0,30.0,6.0,0.0
10044,78.0,1.0,30.0,10.0,0.0
10045,62.0,0.0,30.0,11.0,0.0
10046,57.0,1.0,30.0,12.0,0.0
10047,54.0,0.0,30.0,6.0,0.0
10048,81.0,2.0,30.0,10.0,0.0
10049,85.0,2.0,360.0,0.0,0.0
10050,88.0,0.0,360.0,0.0,0.0
10051,61.0,0.0,30.0,12.0,0.0
10052,64.0,2.0,30.0,11.0,0.0
10053,81.0,1.0,360.0,1.0,0.0
10054,73.0,0.0,360.0,1.0,0.0
10055,57.0,0.0,360.0,4.0,0.0
10056,61.0,0.0,360.0,2.0,0.0
10057,69.0,1.0,360.0,2.0,0.0
10058,45.0,0.0,30.0,6.0,0.0
10059,45.0,0.0,360.0,5.0,0.0
10060,45.0,3.0,120.0,13.0,0.0
10061,33.0,22.0,120.0,14.0,0.0
10062,76.0,2.0,30.0,10.0,0.0
10063,61.0,0.0,30.0,11.0,0.0
10064,57.0,2.0,30.0,12.0,0.0
10065,52.0,26.0,30.0,6.0,0.0
10066,49.0,26.0,15.0,6.0,0.0
10067,73.0,2.0,30.0,10.0,0.0
10068,64.0,2.0,30.0,11.0,0.0
10069,61.0,0.0,30.0,12.0,0.0
10070,49.0,0.0,15.0,6.0,0.0
10071,45.0,26.0,30.0,6.0,0.0
10072,69.0,2.0,30.0,10.0,0.0
10073,57.0,2.0,30.0,12.0,0.0
10074,61.0,0.0,30.0,11.0,0.0
10075,49.0,0.0,30.0,6.0,0.0
10076,52.0,1.0,30.0,6.0,0.0
10077,81.0,2.0,30.0,10.0,0.0
10078,61.0,0.0,30.0,12.0,0.0
10079,64.0,2.0,30.0,11.0,0.0
10080,45.0,26.0,30.0,6.0,0.0
10081,49.0,0.0,30.0,6.0,0.0
10082,76.0,2.0,30.0,10.0,0.0
10083,61.0,2.0,30.0,11.0,0.0
10084,57.0,0.0,30.0,12.0,0.0
10085,52.0,26.0,30.0,6.0,0.0
10086,73.0,2.0,30.0,10.0,0.0
10087,61.0,0.0,30.0,12.0,0.0
10088,64.0,2.0,30.0,11.0,0.0
10089,49.0,0.0,15.0,6.0,0.0
10090,45.0,0.0,30.0,6.0,0.0
10091,61.0,15.0,540.0,3.0,0.0
10092,64.0,0.0,540.0,3.0,0.0
10093,57.0,3.0,120.0,13.0,0.0
10094,45.0,22.0,120.0,14.0,0.0
10095,69.0,2.0,30.0,10.0,0.0
10096,57.0,2.0,30.0,12.0,0.0
10097,61.0,0.0,30.0,11.0,0.0
10098,52.0,0.0,30.0,6.0,0.0
10099,49.0,26.0,15.0,6.0,0.0
10100,81.0,2.0,30.0,10.0,0.0
10101,61.0,0.0,30.0,12.0,0.0
10102,64.0,2.0,30.0,11.0,0.0
10103,45.0,26.0,30.0,6.0,0.0
10104,49.0,26.0,15.0,6.0,0.0
10105,76.0,2.0,30.0,10.0,0.0
10106,57.0,2.0,30.0,12.0,0.0
10107,61.0,0.0,30.0,11.0,0.0
10108,49.0,1.0,30.0,6.0,0.0
10109,52.0,0.0,30.0,6.0,0.0
10110,73.0,2.0,30.0,10.0,0.0
10111,64.0,0.0,30.0,11.0,0.0
10112,61.0,2.0,30.0,12.0,0.0
10113,45.0,0.0,30.0,6.0,0.0
10114,69.0,30.0,30.0,10.0,0.0
10115,61.0,0.0,30.0,11.0,0.0
10116,57.0,0.0,30.0,12.0,0.0
10117,52.0,1.0,30.0,6.0,0.0
10118,49.0,21.0,15.0,6.0,0.0
10119,79.0,2.0,30.0,10.0,0.0
10120,88.0,0.0,360.0,0.0,0.0
10121,91.0,2.0,360.0,0.0,0.0
10122,76.0,1.0,360.0,1.0,0.0
10123,79.0,0.0,360.0,1.0,0.0
10124,61.0,0.0,30.0,12.0,0.0
10125,64.0,2.0,30.0,11.0,0.0
10126,64.0,1.0,360.0,4.0,0.0
10127,76.0,0.0,360.0,2.0,0.0
10128,73.0,0.0,360.0,2.0,0.0
10129,45.0,0.0,30.0,6.0,0.0
10130,57.0,0.0,360.0,5.0,0.0
10131,57.0,3.0,120.0,13.0,0.0
10132,45.0,22.0,120.0,14.0,0.0
10133,76.0,2.0,30.0,10.0,0.0
10134,57.0,2.0,30.0,12.0,0.0
10135,61.0,0.0,30.0,11.0,0.0
10136,52.0,26.0,15.0,6.0,0.0
10137,55.0,0.0,30.0,6.0,0.0
10138,73.0,2.0,30.0,10.0,0.0
10139,64.0,0.0,30.0,11.0,0.0
10140,61.0,2.0,30.0,12.0,0.0
10141,45.0,26.0,30.0,6.0,0.0
10142,52.0,26.0,15.0,6.0,0.0
10143,69.0,2.0,30.0,10.0,0.0
10144,61.0,2.0,30.0,11.0,0.0
10145,57.0,0.0,30.0,12.0,0.0
10146,52.0,0.0,15.0,6.0,0.0
10147,55.0,1.0,30.0,6.0,0.0
10148,79.0,2.0,30.0,10.0,0.0
10149,64.0,2.0,30.0,11.0,0.0
10150,61.0,0.0,30.0,12.0,0.0
10151,52.0,0.0,15.0,6.0,0.0
10152,45.0,26.0,30.0,6.0,0.0
10153,76.0,2.0,30.0,10.0,0.0
10154,61.0,2.0,30.0,11.0,0.0
10155,57.0,0.0,30.0,12.0,0.0
10156,55.0,26.0,30.0,6.0,0.0
10157,73.0,2.0,30.0,10.0,0.0
10158,64.0,0.0,30.0,11.0,0.0
10159,61.0,2.0,30.0,12.0,0.0
10160,52.0,0.0,15.0,6.0,0.0
10161,45.0,26.0,30.0,6.0,0.0
10162,57.0,3.0,120.0,13.0,0.0
10163,45.0,22.0,120.0,14.0,0.0
10164,69.0,2.0,30.0,10.0,0.0
10165,61.0,0.0,30.0,11.0,0.0
10166,57.0,2.0,30.0,12.0,0.0
10167,55.0,0.0,30.0,6.0,0.0
10168,67.0,2.0,30.0,10.0,0.0
10169,61.0,0.0,30.0,12.0,0.0
10170,64.0,2.0,30.0,11.0,0.0
10171,52.0,26.0,15.0,6.0,0.0
10172,45.0,0.0,30.0,6.0,0.0
10173,64.0,2.0,30.0,10.0,0.0
10174,57.0,2.0,30.0,12.0,0.0
10175,61.0,0.0,30.0,11.0,0.0
10176,52.0,26.0,15.0,6.0,0.0
10177,55.0,0.0,30.0,6.0,0.0
10178,61.0,2.0,30.0,10.0,0.0
10179,64.0,0.0,30.0,11.0,0.0
10180,61.0,2.0,30.0,12.0,0.0
10181,52.0,1.0,15.0,6.0,0.0
10182,45.0,21.0,30.0,6.0,0.0
10183,79.0,0.0,30.0,10.0,0.0
10184,61.0,0.0,30.0,11.0,0.0
10185,57.0,0.0,30.0,12.0,0.0
10186,55.0,1.0,30.0,6.0,0.0
10187,52.0,0.0,30.0,6.0,0.0
10188,78.0,30.0,15.0,10.0,0.0
10189,90.0,2.0,60.0,0.0,0.0
10190,86.0,0.0,60.0,0.0,0.0
10191,62.0,0.0,120.0,12.0,0.0
10192,66.0,0.0,120.0,11.0,0.0
10193,74.0,13.0,60.0,1.0,0.0
10194,78.0,0.0,60.0,1.0,0.0
10195,66.0,1.0,120.0,4.0,0.0
10196,78.0,0.0,120.0,2.0,0.0
10197,74.0,0.0,120.0,2.0,0.0
10198,50.0,1.0,120.0,6.0,0.0
10199,66.0,3.0,120.0,3.0,0.0
10200,50.0,0.0,120.0,13.0,0.0
10201,62.0,0.0,120.0,5.0,0.0
10202,62.0,0.0,120.0,3.0,0.0
10203,38.0,7.0,120.0,14.0,0.0
10204,69.0,15.0,15.0,10.0,0.0
10205,86.0,2.0,60.0,0.0,0.0
10206,74.0,30.0,15.0,10.0,0.0
10207,74.0,1.0,60.0,1.0,0.0
10208,69.0,15.0,15.0,10.0,0.0
10209,66.0,30.0,15.0,10.0,0.0
10210,85.0,2.0,60.0,0.0,0.0
10211,73.0,18.0,60.0,1.0,0.0
10212,69.0,10.0,15.0,10.0,0.0
10213,67.0,30.0,15.0,10.0,0.0
10214,83.0,2.0,60.0,0.0,0.0
10215,71.0,21.0,60.0,1.0,0.0
10216,71.0,0.0,120.0,11.0,0.0
10217,67.0,1.0,120.0,12.0,0.0
10218,74.0,0.0,120.0,2.0,0.0
10219,64.0,0.0,120.0,4.0,0.0
10220,76.0,1.0,120.0,2.0,0.0
10221,55.0,1.0,120.0,6.0,0.0
10222,55.0,3.0,120.0,13.0,0.0
10223,62.0,0.0,120.0,5.0,0.0
10224,43.0,7.0,120.0,14.0,0.0
10225,71.0,7.0,15.0,10.0,0.0
10226,91.0,2.0,60.0,0.0,0.0
10227,76.0,30.0,15.0,10.0,0.0
10228,79.0,8.0,60.0,1.0,0.0
10229,71.0,7.0,15.0,10.0,0.0
10230,95.0,2.0,60.0,0.0,0.0
10231,67.0,30.0,15.0,10.0,0.0
10232,83.0,21.0,60.0,1.0,0.0
10233,71.0,7.0,15.0,10.0,0.0
10234,66.0,30.0,15.0,10.0,0.0
10235,86.0,2.0,180.0,0.0,0.0
10236,74.0,13.0,180.0,1.0,0.0
10237,69.0,1.0,120.0,11.0,0.0
10238,66.0,0.0,120.0,12.0,0.0
10239,78.0,1.0,120.0,2.0,0.0
10240,66.0,0.0,120.0,4.0,0.0
10241,74.0,0.0,120.0,2.0,0.0
10242,57.0,1.0,120.0,6.0,0.0
10243,57.0,3.0,120.0,13.0,0.0
10244,62.0,0.0,120.0,5.0,0.0
10245,45.0,7.0,120.0,14.0,0.0
10246,69.0,30.0,15.0,10.0,0.0
10247,74.0,30.0,15.0,10.0,0.0
10248,69.0,17.0,15.0,10.0,0.0
10249,66.0,30.0,15.0,10.0,0.0
10250,69.0,15.0,15.0,10.0,0.0
10251,90.0,2.0,120.0,0.0,0.0
10252,69.0,30.0,15.0,10.0,0.0
10253,69.0,1.0,120.0,11.0,0.0
10254,61.0,0.0,120.0,12.0,0.0
10255,78.0,0.0,120.0,1.0,0.0
10256,73.0,0.0,120.0,2.0,0.0
10257,69.0,0.0,120.0,2.0,0.0
10258,64.0,1.0,120.0,4.0,0.0
10259,45.0,1.0,120.0,6.0,0.0
10260,45.0,0.0,120.0,13.0,0.0
10261,57.0,3.0,120.0,5.0,0.0
10262,33.0,7.0,120.0,14.0,0.0
10263,73.0,30.0,15.0,10.0,0.0
10264,76.0,30.0,15.0,10.0,0.0
10265,73.0,15.0,15.0,10.0,0.0
10266,76.0,30.0,15.0,10.0,0.0
10267,88.0,2.0,60.0,0.0,0.0
10268,76.0,33.0,60.0,1.0,0.0
10269,80.0,10.0,15.0,10.0,0.0
10270,85.0,0.0,360.0,0.0,0.0
10271,81.0,2.0,360.0,0.0,0.0
10272,81.0,2.0,30.0,10.0,0.0
10273,64.0,0.0,30.0,11.0,0.0
10274,61.0,2.0,30.0,12.0,0.0
10275,81.0,0.0,360.0,1.0,0.0
10276,73.0,0.0,360.0,1.0,0.0
10277,57.0,0.0,360.0,4.0,0.0
10278,69.0,0.0,360.0,2.0,0.0
10279,73.0,1.0,360.0,2.0,0.0
10280,49.0,26.0,30.0,6.0,0.0
10281,45.0,0.0,30.0,6.0,0.0
10282,45.0,0.0,360.0,5.0,0.0
10283,69.0,0.0,360.0,3.0,0.0
10284,45.0,3.0,120.0,13.0,0.0
10285,33.0,22.0,120.0,14.0,0.0
10286,76.0,2.0,30.0,10.0,0.0
10287,57.0,2.0,30.0,12.0,0.0
10288,61.0,0.0,30.0,11.0,0.0
10289,52.0,26.0,30.0,6.0,0.0
10290,73.0,2.0,30.0,10.0,0.0
10291,61.0,2.0,30.0,12.0,0.0
10292,64.0,0.0,30.0,11.0,0.0
10293,49.0,0.0,15.0,6.0,0.0
10294,45.0,0.0,30.0,6.0,0.0
10295,69.0,2.0,30.0,10.0,0.0
10296,61.0,2.0,30.0,11.0,0.0
10297,57.0,0.0,30.0,12.0,0.0
10298,52.0,1.0,30.0,6.0,0.0
10299,49.0,0.0,30.0,6.0,0.0
10300,81.0,2.0,30.0,10.0,0.0
10301,64.0,2.0,30.0,11.0,0.0
10302,61.0,0.0,30.0,12.0,0.0
10303,45.0,0.0,30.0,6.0,0.0
10304,76.0,2.0,30.0,10.0,0.0
10305,61.0,2.0,30.0,11.0,0.0
10306,57.0,0.0,30.0,12.0,0.0
10307,52.0,0.0,30.0,6.0,0.0
10308,49.0,26.0,15.0,6.0,0.0
10309,73.0,2.0,30.0,10.0,0.0
10310,61.0,2.0,30.0,12.0,0.0
10311,64.0,0.0,30.0,11.0,0.0
10312,49.0,26.0,30.0,6.0,0.0
10313,45.0,0.0,30.0,6.0,0.0
10314,45.0,3.0,120.0,13.0,0.0
10315,33.0,22.0,120.0,14.0,0.0
10316,69.0,2.0,30.0,10.0,0.0
10317,61.0,0.0,30.0,11.0,0.0
10318,57.0,2.0,30.0,12.0,0.0
10319,52.0,0.0,30.0,6.0,0.0
10320,49.0,26.0,30.0,6.0,0.0
10321,81.0,2.0,30.0,10.0,0.0
10322,64.0,2.0,30.0,11.0,0.0
10323,61.0,0.0,30.0,12.0,0.0
10324,45.0,0.0,30.0,6.0,0.0
10325,49.0,26.0,30.0,6.0,0.0
10326,76.0,2.0,30.0,10.0,0.0
10327,57.0,0.0,30.0,12.0,0.0
10328,61.0,2.0,30.0,11.0,0.0
10329,52.0,1.0,30.0,6.0,0.0
10330,49.0,0.0,30.0,6.0,0.0
10331,73.0,2.0,30.0,10.0,0.0
10332,61.0,0.0,30.0,12.0,0.0
10333,64.0,2.0,30.0,11.0,0.0
10334,45.0,0.0,30.0,6.0,0.0
10335,69.0,30.0,30.0,10.0,0.0
10336,57.0,0.0,30.0,12.0,0.0
10337,61.0,1.0,30.0,11.0,0.0
10338,52.0,1.0,30.0,6.0,0.0
10339,49.0,21.0,15.0,6.0,0.0
10340,85.0,0.0,360.0,0.0,0.0
10341,88.0,0.0,360.0,0.0,0.0
10342,81.0,2.0,30.0,10.0,0.0
10343,81.0,0.0,360.0,1.0,0.0
10344,67.0,2.0,30.0,11.0,0.0
10345,73.0,0.0,360.0,1.0,0.0
10346,64.0,0.0,30.0,12.0,0.0
10347,64.0,0.0,360.0,4.0,0.0
10348,76.0,0.0,360.0,2.0,0.0
10349,67.0,1.0,360.0,2.0,0.0
10350,45.0,0.0,30.0,6.0,0.0
10351,45.0,3.0,120.0,13.0,0.0
10352,67.0,30.0,360.0,3.0,0.0
10353,45.0,0.0,360.0,3.0,0.0
10354,57.0,0.0,360.0,5.0,0.0
10355,33.0,22.0,120.0,14.0,0.0
10356,76.0,2.0,30.0,10.0,0.0
10357,64.0,2.0,30.0,11.0,0.0
10358,61.0,0.0,30.0,12.0,0.0
10359,55.0,0.0,30.0,6.0,0.0
10360,52.0,26.0,15.0,6.0,0.0
10361,73.0,2.0,30.0,10.0,0.0
10362,64.0,0.0,30.0,12.0,0.0
10363,67.0,2.0,30.0,11.0,0.0
10364,45.0,26.0,30.0,6.0,0.0
10365,52.0,26.0,15.0,6.0,0.0
10366,69.0,2.0,30.0,10.0,0.0
10367,61.0,0.0,30.0,12.0,0.0
10368,64.0,2.0,30.0,11.0,0.0
10369,55.0,1.0,30.0,6.0,0.0
10370,81.0,2.0,30.0,10.0,0.0
10371,67.0,0.0,30.0,11.0,0.0
10372,64.0,2.0,30.0,12.0,0.0
10373,52.0,0.0,15.0,6.0,0.0
10374,45.0,26.0,30.0,6.0,0.0
10375,76.0,2.0,30.0,10.0,0.0
10376,64.0,0.0,30.0,11.0,0.0
10377,61.0,2.0,30.0,12.0,0.0
10378,55.0,0.0,30.0,6.0,0.0
10379,73.0,2.0,30.0,10.0,0.0
10380,64.0,2.0,30.0,12.0,0.0
10381,67.0,0.0,30.0,11.0,0.0
10382,52.0,26.0,15.0,6.0,0.0
10383,45.0,26.0,30.0,6.0,0.0
10384,45.0,3.0,120.0,13.0,0.0
10385,33.0,22.0,120.0,14.0,0.0
10386,69.0,2.0,30.0,10.0,0.0
10387,64.0,0.0,30.0,11.0,0.0
10388,61.0,2.0,30.0,12.0,0.0
10389,55.0,0.0,30.0,6.0,0.0
10390,52.0,0.0,15.0,6.0,0.0
10391,81.0,2.0,30.0,10.0,0.0
10392,67.0,2.0,30.0,11.0,0.0
10393,64.0,0.0,30.0,12.0,0.0
10394,45.0,0.0,30.0,6.0,0.0
10395,52.0,26.0,15.0,6.0,0.0
10396,76.0,2.0,30.0,10.0,0.0
10397,61.0,0.0,30.0,12.0,0.0
10398,64.0,2.0,30.0,11.0,0.0
10399,55.0,0.0,30.0,6.0,0.0
10400,52.0,26.0,15.0,6.0,0.0
10401,73.0,2.0,30.0,10.0,0.0
10402,67.0,2.0,30.0,11.0,0.0
10403,64.0,0.0,30.0,12.0,0.0
10404,45.0,0.0,30.0,6.0,0.0
10405,52.0,1.0,15.0,6.0,0.0
10406,69.0,2.0,30.0,10.0,0.0
10407,61.0,1.0,30.0,12.0,0.0
10408,64.0,0.0,30.0,11.0,0.0
10409,55.0,0.0,30.0,6.0,0.0
10410,52.0,21.0,15.0,6.0,0.0
10411,81.0,30.0,30.0,10.0,0.0
10412,86.0,2.0,120.0,0.0,0.0
10413,90.0,0.0,120.0,0.0,0.0
10414,81.0,0.0,120.0,1.0,0.0
10415,74.0,0.0,120.0,1.0,0.0
10416,62.0,0.0,120.0,12.0,0.0
10417,66.0,1.0,120.0,11.0,0.0
10418,66.0,0.0,120.0,2.0,0.0
10419,74.0,1.0,120.0,2.0,0.0
10420,66.0,0.0,120.0,4.0,0.0
10421,50.0,1.0,120.0,6.0,0.0
10422,50.0,0.0,120.0,13.0,0.0
10423,62.0,0.0,120.0,5.0,0.0
10424,50.0,0.0,120.0,3.0,0.0
10425,66.0,25.0,60.0,3.0,0.0
10426,38.0,22.0,120.0,14.0,0.0
10427,78.0,5.0,30.0,10.0,0.0
10428,74.0,30.0,30.0,10.0,0.0
10429,62.0,3.0,60.0,3.0,0.0
10430,69.0,0.0,30.0,10.0,0.0
10431,66.0,25.0,30.0,10.0,0.0
10432,61.0,15.0,60.0,3.0,0.0
10433,62.0,5.0,30.0,10.0,0.0
10434,86.0,2.0,120.0,0.0,0.0
10435,59.0,30.0,15.0,10.0,0.0
10436,74.0,0.0,120.0,1.0,0.0
10437,71.0,0.0,120.0,11.0,0.0
10438,67.0,1.0,120.0,12.0,0.0
10439,83.0,0.0,120.0,1.0,0.0
10440,64.0,1.0,120.0,4.0,0.0
10441,55.0,1.0,120.0,6.0,0.0
10442,59.0,18.0,60.0,3.0,0.0
10443,62.0,3.0,120.0,5.0,0.0
10444,55.0,0.0,120.0,13.0,0.0
10445,43.0,7.0,120.0,14.0,0.0
10446,74.0,12.0,15.0,10.0,0.0
10447,79.0,30.0,15.0,10.0,0.0
10448,67.0,3.0,60.0,3.0,0.0
10449,74.0,12.0,15.0,10.0,0.0
10450,71.0,30.0,15.0,10.0,0.0
10451,71.0,18.0,60.0,3.0,0.0
10452,74.0,12.0,15.0,10.0,0.0
10453,86.0,2.0,120.0,0.0,0.0
10454,69.0,30.0,15.0,10.0,0.0
10455,81.0,0.0,120.0,0.0,0.0
10456,78.0,0.0,120.0,1.0,0.0
10457,66.0,0.0,120.0,11.0,0.0
10458,74.0,0.0,120.0,1.0,0.0
10459,62.0,1.0,120.0,12.0,0.0
10460,66.0,1.0,120.0,4.0,0.0
10461,57.0,1.0,120.0,6.0,0.0
10462,57.0,0.0,120.0,13.0,0.0
10463,62.0,3.0,120.0,5.0,0.0
10464,62.0,10.0,180.0,3.0,0.0
10465,45.0,7.0,120.0,14.0,0.0
10466,74.0,30.0,15.0,10.0,0.0
10467,78.0,30.0,15.0,10.0,0.0
10468,74.0,15.0,15.0,10.0,0.0
10469,69.0,30.0,15.0,10.0,0.0
10470,74.0,20.0,15.0,10.0,0.0
10471,69.0,30.0,15.0,10.0,0.0
10472,85.0,2.0,120.0,0.0,0.0
10473,81.0,0.0,120.0,0.0,0.0
10474,69.0,0.0,120.0,11.0,0.0
10475,76.0,0.0,120.0,1.0,0.0
10476,73.0,1.0,120.0,1.0,0.0
10477,57.0,0.0,120.0,12.0,0.0
10478,64.0,1.0,120.0,4.0,0.0
10479,57.0,1.0,120.0,6.0,0.0
10480,57.0,0.0,120.0,13.0,0.0
10481,57.0,0.0,120.0,5.0,0.0
10482,66.0,3.0,120.0,3.0,0.0
10483,45.0,7.0,120.0,14.0,0.0
10484,73.0,30.0,15.0,10.0,0.0
10485,76.0,30.0,15.0,10.0,0.0
10486,73.0,15.0,15.0,10.0,0.0
10487,69.0,30.0,15.0,10.0,0.0
10488,64.0,15.0,60.0,3.0,0.0
10489,73.0,15.0,15.0,10.0,0.0
10490,85.0,0.0,120.0,0.0,0.0
10491,82.0,2.0,120.0,0.0,0.0
10492,70.0,30.0,15.0,10.0,0.0
10493,61.0,0.0,120.0,11.0,0.0
10494,70.0,0.0,120.0,11.0,0.0
10495,73.0,1.0,120.0,1.0,0.0
10496,78.0,0.0,120.0,1.0,0.0
10497,66.0,0.0,120.0,12.0,0.0
10498,66.0,1.0,120.0,4.0,0.0
10499,66.0,1.0,120.0,6.0,0.0
10500,66.0,3.0,120.0,13.0,0.0
10501,66.0,10.0,240.0,3.0,0.0
10502,54.0,0.0,120.0,5.0,0.0
10503,54.0,7.0,120.0,14.0,0.0
10504,73.0,30.0,15.0,10.0,0.0
10505,78.0,30.0,15.0,10.0,0.0
10506,73.0,15.0,15.0,10.0,0.0
10507,70.0,30.0,15.0,10.0,0.0
10508,73.0,30.0,15.0,10.0,0.0
10509,71.0,30.0,15.0,10.0,0.0
10510,59.0,1.0,120.0,6.0,0.0
10511,59.0,3.0,120.0,13.0,0.0
10512,47.0,7.0,120.0,14.0,0.0
10513,74.0,20.0,15.0,10.0,0.0
10514,78.0,30.0,15.0,10.0,0.0
10515,64.0,0.0,60.0,3.0,0.0
10516,74.0,19.0,15.0,10.0,0.0
10517,71.0,30.0,15.0,10.0,0.0
10518,66.0,7.0,60.0,3.0,0.0
10519,74.0,20.0,15.0,10.0,0.0
10520,71.0,5.0,15.0,10.0,0.0
10521,88.0,3.0,15.0,11.0,0.0
10522,52.0,1.0,120.0,6.0,0.0
10523,52.0,3.0,120.0,13.0,0.0
10524,69.0,2.0,15.0,3.0,0.0
10525,40.0,7.0,120.0,14.0,0.0
10526,86.0,10.0,15.0,11.0,0.0
10527,68.0,7.0,60.0,3.0,0.0
10528,88.0,10.0,15.0,11.0,0.0
10529,74.0,7.0,15.0,10.0,0.0
10530,86.0,3.0,15.0,11.0,0.0
10531,88.0,10.0,15.0,11.0,0.0
10532,86.0,3.0,15.0,11.0,0.0
10533,76.0,7.0,15.0,10.0,0.0
10534,88.0,3.0,15.0,11.0,0.0
10535,66.0,0.0,60.0,3.0,0.0
10536,86.0,10.0,15.0,11.0,0.0
10537,88.0,13.0,15.0,11.0,0.0
10538,74.0,2.0,15.0,10.0,0.0
10539,85.0,15.0,15.0,11.0,0.0
10540,86.0,2.0,15.0,11.0,0.0
10541,71.0,30.0,15.0,10.0,0.0
10542,68.0,7.0,60.0,3.0,0.0
10543,74.0,20.0,15.0,10.0,0.0
10544,69.0,7.0,15.0,10.0,0.0
10545,86.0,3.0,15.0,11.0,0.0
10546,45.0,1.0,120.0,6.0,0.0
10547,69.0,0.0,120.0,3.0,0.0
10548,45.0,3.0,120.0,13.0,0.0
10549,33.0,7.0,120.0,14.0,0.0
10550,85.0,10.0,15.0,11.0,0.0
10551,86.0,10.0,15.0,11.0,0.0
10552,73.0,7.0,15.0,10.0,0.0
10553,85.0,3.0,15.0,11.0,0.0
10554,86.0,10.0,15.0,11.0,0.0
10555,85.0,10.0,15.0,11.0,0.0
10556,76.0,7.0,15.0,10.0,0.0
10557,86.0,3.0,15.0,11.0,0.0
10558,85.0,10.0,15.0,11.0,0.0
10559,86.0,13.0,15.0,11.0,0.0
10560,73.0,2.0,15.0,10.0,0.0
10561,83.0,15.0,15.0,11.0,0.0
10562,85.0,2.0,15.0,11.0,0.0
10563,69.0,30.0,15.0,10.0,0.0
10564,64.0,15.0,60.0,3.0,0.0
10565,73.0,15.0,15.0,10.0,0.0
10566,70.0,30.0,15.0,10.0,0.0
10567,66.0,2.0,240.0,12.0,0.0
10568,66.0,6.0,240.0,6.0,0.0
10569,66.0,3.0,120.0,13.0,0.0
10570,66.0,10.0,240.0,3.0,0.0
10571,54.0,7.0,120.0,14.0,0.0
10572,73.0,30.0,15.0,10.0,0.0
10573,78.0,30.0,15.0,10.0,0.0
10574,73.0,20.0,15.0,10.0,0.0
10575,70.0,30.0,15.0,10.0,0.0
10576,73.0,30.0,15.0,10.0,0.0
10577,71.0,30.0,15.0,10.0,0.0
10578,59.0,0.0,120.0,13.0,0.0
10579,47.0,7.0,120.0,14.0,0.0
10580,74.0,12.0,15.0,10.0,0.0
10581,78.0,30.0,15.0,10.0,0.0
10582,64.0,2.0,60.0,12.0,0.0
10583,64.0,1.0,60.0,6.0,0.0
10584,64.0,3.0,60.0,3.0,0.0
10585,74.0,17.0,15.0,10.0,0.0
10586,71.0,30.0,15.0,10.0,0.0
10587,66.0,2.0,60.0,12.0,0.0
10588,66.0,1.0,60.0,6.0,0.0
10589,66.0,7.0,60.0,3.0,0.0
10590,74.0,17.0,15.0,10.0,0.0
10591,71.0,2.0,15.0,10.0,0.0
10592,69.0,2.0,15.0,12.0,0.0
10593,88.0,3.0,15.0,11.0,0.0
10594,69.0,1.0,15.0,6.0,0.0
10595,69.0,2.0,15.0,3.0,0.0
10596,52.0,3.0,120.0,13.0,0.0
10597,40.0,7.0,120.0,14.0,0.0
10598,86.0,10.0,15.0,11.0,0.0
10599,68.0,0.0,60.0,12.0,0.0
10600,68.0,1.0,60.0,6.0,0.0
10601,68.0,7.0,60.0,3.0,0.0
10602,88.0,10.0,15.0,11.0,0.0
10603,74.0,7.0,15.0,10.0,0.0
10604,86.0,3.0,15.0,11.0,0.0
10605,88.0,10.0,15.0,11.0,0.0
10606,86.0,2.0,15.0,11.0,0.0
10607,76.0,7.0,15.0,10.0,0.0
10608,88.0,3.0,15.0,11.0,0.0
10609,66.0,2.0,60.0,12.0,0.0
10610,66.0,1.0,60.0,6.0,0.0
10611,66.0,0.0,60.0,3.0,0.0
10612,86.0,10.0,15.0,11.0,0.0
10613,88.0,13.0,15.0,11.0,0.0
10614,74.0,2.0,15.0,10.0,0.0
10615,85.0,15.0,15.0,11.0,0.0
10616,86.0,0.0,15.0,11.0,0.0
10617,71.0,30.0,15.0,10.0,0.0
10618,68.0,2.0,60.0,12.0,0.0
10619,68.0,1.0,60.0,6.0,0.0
10620,68.0,7.0,60.0,3.0,0.0
10621,74.0,17.0,15.0,10.0,0.0
10622,69.0,7.0,15.0,10.0,0.0
10623,69.0,0.0,120.0,12.0,0.0
10624,86.0,3.0,15.0,11.0,0.0
10625,69.0,1.0,120.0,6.0,0.0
10626,69.0,3.0,120.0,3.0,0.0
10627,45.0,0.0,120.0,13.0,0.0
10628,33.0,7.0,120.0,14.0,0.0
10629,85.0,10.0,15.0,11.0,0.0
10630,86.0,10.0,15.0,11.0,0.0
10631,73.0,7.0,15.0,10.0,0.0
10632,85.0,3.0,15.0,11.0,0.0
10633,86.0,10.0,15.0,11.0,0.0
10634,85.0,10.0,15.0,11.0,0.0
10635,76.0,7.0,15.0,10.0,0.0
10636,86.0,3.0,15.0,11.0,0.0
10637,85.0,10.0,15.0,11.0,0.0
10638,86.0,13.0,15.0,11.0,0.0
10639,73.0,2.0,15.0,10.0,0.0
10640,83.0,15.0,15.0,11.0,0.0
10641,85.0,2.0,15.0,11.0,0.0
10642,69.0,30.0,15.0,10.0,0.0
10643,64.0,2.0,60.0,12.0,0.0
10644,64.0,1.0,60.0,6.0,0.0
10645,64.0,15.0,60.0,3.0,0.0
10646,73.0,12.0,15.0,10.0,0.0
10647,70.0,30.0,15.0,10.0,0.0
10648,66.0,2.0,240.0,12.0,0.0
10649,66.0,1.0,240.0,6.0,0.0
10650,66.0,3.0,120.0,13.0,0.0
10651,66.0,7.0,240.0,3.0,0.0
10652,54.0,7.0,120.0,14.0,0.0
10653,73.0,30.0,15.0,10.0,0.0
10654,78.0,30.0,15.0,10.0,0.0
10655,73.0,20.0,15.0,10.0,0.0
10656,70.0,30.0,15.0,10.0,0.0
10657,73.0,27.0,15.0,10.0,0.0
10658,71.0,7.0,15.0,10.0,0.0
10659,88.0,3.0,15.0,11.0,0.0
10660,59.0,0.0,120.0,13.0,0.0
10661,47.0,7.0,120.0,14.0,0.0
10662,86.0,10.0,15.0,11.0,0.0
10663,88.0,10.0,15.0,11.0,0.0
10664,74.0,7.0,15.0,10.0,0.0
10665,86.0,3.0,15.0,11.0,0.0
10666,88.0,10.0,15.0,11.0,0.0
10667,86.0,0.0,15.0,11.0,0.0
10668,78.0,7.0,15.0,10.0,0.0
10669,88.0,3.0,15.0,11.0,0.0
10670,64.0,2.0,60.0,12.0,0.0
10671,64.0,1.0,60.0,6.0,0.0
10672,64.0,3.0,60.0,3.0,0.0
10673,86.0,10.0,15.0,11.0,0.0
10674,88.0,13.0,15.0,11.0,0.0
10675,74.0,2.0,15.0,10.0,0.0
10676,85.0,15.0,15.0,11.0,0.0
10677,86.0,0.0,15.0,11.0,0.0
10678,71.0,30.0,15.0,10.0,0.0
10679,66.0,2.0,60.0,12.0,0.0
10680,66.0,1.0,60.0,6.0,0.0
10681,66.0,7.0,60.0,3.0,0.0
10682,74.0,17.0,15.0,10.0,0.0
10683,71.0,2.0,15.0,10.0,0.0
10684,88.0,3.0,15.0,11.0,0.0
10685,69.0,2.0,15.0,12.0,0.0
10686,69.0,1.0,15.0,6.0,0.0
10687,52.0,3.0,120.0,13.0,0.0
10688,69.0,2.0,15.0,3.0,0.0
10689,40.0,7.0,120.0,14.0,0.0
10690,86.0,10.0,15.0,11.0,0.0
10691,68.0,0.0,60.0,12.0,0.0
10692,68.0,1.0,60.0,6.0,0.0
10693,68.0,7.0,60.0,3.0,0.0
10694,88.0,10.0,15.0,11.0,0.0
10695,74.0,7.0,15.0,10.0,0.0
10696,86.0,3.0,15.0,11.0,0.0
10697,88.0,10.0,15.0,11.0,0.0
10698,86.0,2.0,15.0,11.0,0.0
10699,76.0,7.0,15.0,10.0,0.0
10700,66.0,2.0,60.0,12.0,0.0
10701,88.0,3.0,15.0,11.0,0.0
10702,66.0,1.0,60.0,6.0,0.0
10703,66.0,0.0,60.0,3.0,0.0
10704,86.0,10.0,15.0,11.0,0.0
10705,88.0,13.0,15.0,11.0,0.0
10706,74.0,2.0,15.0,10.0,0.0
10707,85.0,15.0,15.0,11.0,0.0
10708,86.0,0.0,15.0,11.0,0.0
10709,71.0,30.0,15.0,10.0,0.0
10710,68.0,2.0,60.0,12.0,0.0
10711,68.0,1.0,60.0,6.0,0.0
10712,68.0,12.0,60.0,3.0,0.0
10713,74.0,12.0,15.0,10.0,0.0
10714,69.0,7.0,15.0,10.0,0.0
10715,86.0,3.0,15.0,11.0,0.0
10716,69.0,2.0,120.0,12.0,0.0
10717,69.0,1.0,120.0,6.0,0.0
10718,69.0,3.0,120.0,3.0,0.0
10719,45.0,0.0,120.0,13.0,0.0
10720,33.0,7.0,120.0,14.0,0.0
10721,85.0,10.0,15.0,11.0,0.0
10722,86.0,10.0,15.0,11.0,0.0
10723,73.0,7.0,15.0,10.0,0.0
10724,85.0,3.0,15.0,11.0,0.0
10725,86.0,10.0,15.0,11.0,0.0
10726,85.0,10.0,15.0,11.0,0.0
10727,76.0,7.0,15.0,10.0,0.0
10728,86.0,3.0,15.0,11.0,0.0
10729,85.0,10.0,15.0,11.0,0.0
10730,86.0,13.0,15.0,11.0,0.0
10731,73.0,2.0,15.0,10.0,0.0
10732,83.0,15.0,15.0,11.0,0.0
10733,85.0,0.0,15.0,11.0,0.0
10734,69.0,30.0,15.0,10.0,0.0
10735,64.0,2.0,60.0,12.0,0.0
10736,64.0,1.0,60.0,6.0,0.0
10737,64.0,7.0,60.0,3.0,0.0
10738,73.0,17.0,15.0,10.0,0.0
10739,69.0,7.0,15.0,10.0,0.0
10740,88.0,3.0,15.0,11.0,0.0
10741,66.0,2.0,120.0,12.0,0.0
10742,66.0,1.0,120.0,6.0,0.0
10743,66.0,0.0,120.0,3.0,0.0
10744,57.0,3.0,120.0,13.0,0.0
10745,45.0,7.0,120.0,14.0,0.0
10746,86.0,10.0,15.0,11.0,0.0
10747,88.0,10.0,15.0,11.0,0.0
10748,74.0,7.0,15.0,10.0,0.0
10749,86.0,3.0,15.0,11.0,0.0
10750,88.0,10.0,15.0,11.0,0.0
10751,86.0,10.0,15.0,11.0,0.0
10752,78.0,7.0,15.0,10.0,0.0
10753,88.0,3.0,15.0,11.0,0.0
10754,86.0,10.0,15.0,11.0,0.0
10755,88.0,13.0,15.0,11.0,0.0
10756,74.0,2.0,15.0,10.0,0.0
10757,85.0,15.0,15.0,11.0,0.0
10758,86.0,0.0,15.0,11.0,0.0
10759,69.0,30.0,15.0,10.0,0.0
10760,62.0,2.0,60.0,12.0,0.0
10761,62.0,1.0,60.0,6.0,0.0
10762,62.0,7.0,60.0,3.0,0.0
10763,74.0,17.0,15.0,10.0,0.0
10764,69.0,7.0,15.0,10.0,0.0
10765,57.0,1.0,120.0,12.0,0.0
10766,90.0,3.0,15.0,11.0,0.0
10767,81.0,1.0,120.0,2.0,0.0
10768,57.0,1.0,120.0,6.0,0.0
10769,57.0,3.0,120.0,13.0,0.0
10770,57.0,0.0,120.0,3.0,0.0
10771,45.0,7.0,120.0,14.0,0.0
10772,88.0,10.0,15.0,11.0,0.0
10773,90.0,10.0,15.0,11.0,0.0
10774,76.0,7.0,15.0,10.0,0.0
10775,88.0,3.0,15.0,11.0,0.0
10776,90.0,10.0,15.0,11.0,0.0
10777,88.0,10.0,15.0,11.0,0.0
10778,79.0,7.0,15.0,10.0,0.0
10779,90.0,3.0,15.0,11.0,0.0
10780,88.0,10.0,15.0,11.0,0.0
10781,90.0,13.0,15.0,11.0,0.0
10782,76.0,2.0,15.0,10.0,0.0
10783,86.0,15.0,15.0,11.0,0.0
10784,88.0,0.0,15.0,11.0,0.0
10785,69.0,30.0,15.0,10.0,0.0
10786,61.0,1.0,60.0,12.0,0.0
10787,76.0,1.0,60.0,2.0,0.0
10788,61.0,1.0,60.0,6.0,0.0
10789,61.0,7.0,60.0,3.0,0.0
10790,76.0,17.0,15.0,10.0,0.0
10791,69.0,7.0,15.0,10.0,0.0
10792,62.0,0.0,120.0,12.0,0.0
10793,88.0,3.0,15.0,11.0,0.0
10794,78.0,1.0,120.0,2.0,0.0
10795,62.0,1.0,120.0,6.0,0.0
10796,62.0,0.0,120.0,3.0,0.0
10797,57.0,3.0,120.0,13.0,0.0
10798,45.0,7.0,120.0,14.0,0.0
10799,86.0,10.0,15.0,11.0,0.0
10800,88.0,10.0,15.0,11.0,0.0
10801,74.0,7.0,15.0,10.0,0.0
10802,86.0,3.0,15.0,11.0,0.0
10803,88.0,10.0,15.0,11.0,0.0
10804,86.0,10.0,15.0,11.0,0.0
10805,78.0,7.0,15.0,10.0,0.0
10806,88.0,3.0,15.0,11.0,0.0
10807,86.0,10.0,15.0,11.0,0.0
10808,88.0,13.0,15.0,11.0,0.0
10809,74.0,2.0,15.0,10.0,0.0
10810,85.0,15.0,15.0,11.0,0.0
10811,86.0,1.0,15.0,11.0,0.0
10812,69.0,30.0,15.0,10.0,0.0
10813,66.0,1.0,60.0,12.0,0.0
10814,74.0,1.0,60.0,2.0,0.0
10815,66.0,1.0,60.0,6.0,0.0
10816,66.0,7.0,60.0,3.0,0.0
10817,74.0,17.0,15.0,10.0,0.0
10818,69.0,7.0,15.0,10.0,0.0
10819,81.0,1.0,120.0,1.0,0.0
10820,86.0,3.0,15.0,11.0,0.0
10821,69.0,0.0,120.0,12.0,0.0
10822,69.0,1.0,120.0,2.0,0.0
10823,69.0,1.0,120.0,6.0,0.0
10824,57.0,0.0,120.0,13.0,0.0
10825,69.0,3.0,120.0,3.0,0.0
10826,45.0,7.0,120.0,14.0,0.0
10827,85.0,10.0,15.0,11.0,0.0
10828,86.0,10.0,15.0,11.0,0.0
10829,73.0,7.0,15.0,10.0,0.0
10830,85.0,3.0,15.0,11.0,0.0
10831,86.0,10.0,15.0,11.0,0.0
10832,85.0,10.0,15.0,11.0,0.0
10833,76.0,7.0,15.0,10.0,0.0
10834,86.0,3.0,15.0,11.0,0.0
10835,85.0,10.0,15.0,11.0,0.0
10836,86.0,13.0,15.0,11.0,0.0
10837,73.0,2.0,15.0,10.0,0.0
10838,83.0,15.0,15.0,11.0,0.0
10839,85.0,0.0,15.0,11.0,0.0
10840,69.0,30.0,15.0,10.0,0.0
10841,64.0,0.0,60.0,12.0,0.0
10842,76.0,1.0,60.0,1.0,0.0
10843,73.0,1.0,60.0,2.0,0.0
10844,64.0,1.0,60.0,6.0,0.0
10845,64.0,12.0,60.0,3.0,0.0
10846,73.0,12.0,15.0,10.0,0.0
10847,69.0,7.0,15.0,10.0,0.0
10848,66.0,0.0,120.0,12.0,0.0
10849,78.0,0.0,120.0,1.0,0.0
10850,88.0,3.0,15.0,11.0,0.0
10851,74.0,1.0,120.0,2.0,0.0
10852,66.0,1.0,120.0,6.0,0.0
10853,66.0,3.0,120.0,3.0,0.0
10854,57.0,0.0,120.0,13.0,0.0
10855,45.0,7.0,120.0,14.0,0.0
10856,86.0,10.0,15.0,11.0,0.0
10857,88.0,10.0,15.0,11.0,0.0
10858,74.0,7.0,15.0,10.0,0.0
10859,86.0,3.0,15.0,11.0,0.0
10860,88.0,10.0,15.0,11.0,0.0
10861,86.0,10.0,15.0,11.0,0.0
10862,78.0,7.0,15.0,10.0,0.0
10863,88.0,3.0,15.0,11.0,0.0
10864,86.0,10.0,15.0,11.0,0.0
10865,88.0,13.0,15.0,11.0,0.0
10866,74.0,2.0,15.0,10.0,0.0
10867,85.0,15.0,15.0,11.0,0.0
10868,86.0,1.0,15.0,11.0,0.0
10869,69.0,30.0,15.0,10.0,0.0
10870,74.0,0.0,60.0,1.0,0.0
10871,62.0,1.0,60.0,12.0,0.0
10872,78.0,1.0,60.0,2.0,0.0
10873,62.0,1.0,60.0,6.0,0.0
10874,62.0,7.0,60.0,3.0,0.0
10875,74.0,17.0,15.0,10.0,0.0
10876,69.0,7.0,15.0,10.0,0.0
10877,90.0,3.0,15.0,11.0,0.0
10878,57.0,0.0,120.0,12.0,0.0
10879,81.0,0.0,120.0,1.0,0.0
10880,69.0,0.0,120.0,1.0,0.0
10881,81.0,1.0,120.0,2.0,0.0
10882,57.0,1.0,120.0,6.0,0.0
10883,57.0,0.0,120.0,13.0,0.0
10884,57.0,3.0,120.0,3.0,0.0
10885,45.0,7.0,120.0,14.0,0.0
10886,88.0,10.0,15.0,11.0,0.0
10887,90.0,10.0,15.0,11.0,0.0
10888,76.0,7.0,15.0,10.0,0.0
10889,88.0,3.0,15.0,11.0,0.0
10890,90.0,10.0,15.0,11.0,0.0
10891,88.0,10.0,15.0,11.0,0.0
10892,79.0,7.0,15.0,10.0,0.0
10893,90.0,3.0,15.0,11.0,0.0
10894,88.0,10.0,15.0,11.0,0.0
10895,90.0,13.0,15.0,11.0,0.0
10896,76.0,2.0,15.0,10.0,0.0
10897,86.0,15.0,15.0,11.0,0.0
10898,88.0,1.0,15.0,11.0,0.0
10899,69.0,30.0,15.0,10.0,0.0
10900,61.0,0.0,60.0,12.0,0.0
10901,76.0,1.0,60.0,1.0,0.0
10902,73.0,0.0,60.0,1.0,0.0
10903,76.0,1.0,60.0,2.0,0.0
10904,61.0,1.0,60.0,6.0,0.0
10905,61.0,7.0,60.0,3.0,0.0
10906,76.0,17.0,15.0,10.0,0.0
10907,69.0,7.0,15.0,10.0,0.0
10908,90.0,2.0,120.0,0.0,0.0
10909,62.0,0.0,120.0,12.0,0.0
10910,78.0,0.0,120.0,1.0,0.0
10911,88.0,3.0,15.0,11.0,0.0
10912,74.0,0.0,120.0,1.0,0.0
10913,69.0,0.0,120.0,4.0,0.0
10914,78.0,1.0,120.0,2.0,0.0
10915,62.0,1.0,120.0,6.0,0.0
10916,62.0,3.0,120.0,3.0,0.0
10917,66.0,0.0,120.0,5.0,0.0
10918,57.0,0.0,120.0,13.0,0.0
10919,45.0,7.0,120.0,14.0,0.0
10920,86.0,10.0,15.0,11.0,0.0
10921,88.0,10.0,15.0,11.0,0.0
10922,74.0,7.0,15.0,10.0,0.0
10923,86.0,3.0,15.0,11.0,0.0
10924,88.0,10.0,15.0,11.0,0.0
10925,86.0,10.0,15.0,11.0,0.0
10926,78.0,7.0,15.0,10.0,0.0
10927,88.0,3.0,15.0,11.0,0.0
10928,86.0,10.0,15.0,11.0,0.0
10929,88.0,13.0,15.0,11.0,0.0
10930,69.0,2.0,15.0,10.0,0.0
10931,85.0,13.0,15.0,11.0,0.0
10932,86.0,1.0,15.0,11.0,0.0
10933,86.0,2.0,60.0,0.0,0.0
10934,74.0,30.0,15.0,10.0,0.0
10935,74.0,1.0,60.0,1.0,0.0
10936,66.0,0.0,60.0,12.0,0.0
10937,78.0,0.0,60.0,1.0,0.0
10938,74.0,0.0,60.0,2.0,0.0
10939,66.0,1.0,60.0,4.0,0.0
10940,66.0,1.0,60.0,6.0,0.0
10941,62.0,32.0,60.0,5.0,0.0
10942,66.0,0.0,60.0,3.0,0.0
10943,78.0,10.0,15.0,10.0,0.0
10944,81.0,0.0,120.0,10.0,0.0
10945,93.0,0.0,120.0,0.0,0.0
10946,64.0,2.0,30.0,12.0,0.0
10947,81.0,1.0,120.0,1.0,0.0
10948,73.0,0.0,120.0,1.0,0.0
10949,69.0,0.0,30.0,11.0,0.0
10950,64.0,2.0,120.0,4.0,0.0
10951,76.0,0.0,120.0,2.0,0.0
10952,49.0,28.0,30.0,6.0,0.0
10953,45.0,0.0,30.0,6.0,0.0
10954,57.0,0.0,120.0,5.0,0.0
10955,64.0,2.0,120.0,3.0,0.0
10956,45.0,3.0,120.0,13.0,0.0
10957,61.0,0.0,120.0,3.0,0.0
10958,33.0,24.0,120.0,14.0,0.0
10959,64.0,2.0,30.0,11.0,0.0
10960,61.0,0.0,30.0,12.0,0.0
10961,52.0,0.0,30.0,6.0,0.0
10962,64.0,0.0,30.0,12.0,0.0
10963,69.0,2.0,30.0,11.0,0.0
10964,49.0,28.0,15.0,6.0,0.0
10965,45.0,0.0,30.0,6.0,0.0
10966,64.0,0.0,30.0,11.0,0.0
10967,61.0,0.0,30.0,12.0,0.0
10968,52.0,0.0,30.0,6.0,0.0
10969,49.0,24.0,15.0,6.0,0.0
10970,88.0,0.0,15.0,0.0,0.0
10971,76.0,0.0,60.0,10.0,0.0
10972,85.0,0.0,60.0,0.0,0.0
10973,76.0,1.0,60.0,1.0,0.0
10974,69.0,2.0,30.0,11.0,0.0
10975,64.0,0.0,30.0,12.0,0.0
10976,73.0,0.0,60.0,1.0,0.0
10977,64.0,1.0,60.0,4.0,0.0
10978,73.0,1.0,15.0,2.0,0.0
10979,76.0,0.0,60.0,2.0,0.0
10980,49.0,1.0,15.0,6.0,0.0
10981,45.0,21.0,30.0,6.0,0.0
10982,61.0,32.0,60.0,3.0,0.0
10983,57.0,0.0,60.0,5.0,0.0
10984,64.0,0.0,60.0,3.0,0.0
10985,64.0,0.0,30.0,11.0,0.0
10986,61.0,0.0,30.0,12.0,0.0
10987,52.0,1.0,30.0,6.0,0.0
10988,49.0,0.0,15.0,6.0,0.0
10989,86.0,0.0,720.0,0.0,0.0
10990,90.0,2.0,720.0,0.0,0.0
10991,78.0,2.0,120.0,10.0,0.0
10992,66.0,2.0,30.0,12.0,0.0
10993,78.0,1.0,360.0,1.0,0.0
10994,69.0,0.0,30.0,11.0,0.0
10995,74.0,0.0,360.0,1.0,0.0
10996,66.0,1.0,360.0,4.0,0.0
10997,78.0,1.0,720.0,2.0,0.0
10998,74.0,0.0,720.0,2.0,0.0
10999,45.0,26.0,30.0,6.0,0.0
11000,50.0,0.0,30.0,6.0,0.0
11001,62.0,0.0,180.0,3.0,0.0
11002,62.0,0.0,360.0,5.0,0.0
11003,66.0,2.0,180.0,3.0,0.0
11004,45.0,2.0,60.0,13.0,0.0
11005,33.0,1.0,60.0,14.0,0.0
11006,66.0,0.0,30.0,11.0,0.0
11007,62.0,1.0,30.0,12.0,0.0
11008,54.0,0.0,30.0,6.0,0.0
11009,66.0,0.0,30.0,12.0,0.0
11010,69.0,2.0,30.0,11.0,0.0
11011,50.0,28.0,15.0,6.0,0.0
11012,45.0,26.0,30.0,6.0,0.0
11013,45.0,0.0,60.0,13.0,0.0
11014,33.0,1.0,60.0,14.0,0.0
11015,62.0,0.0,30.0,12.0,0.0
11016,66.0,1.0,30.0,11.0,0.0
11017,54.0,0.0,30.0,6.0,0.0
11018,74.0,0.0,60.0,10.0,0.0
11019,69.0,2.0,30.0,11.0,0.0
11020,66.0,0.0,30.0,12.0,0.0
11021,50.0,28.0,15.0,6.0,0.0
11022,45.0,0.0,30.0,6.0,0.0
11023,45.0,0.0,60.0,13.0,0.0
11024,33.0,1.0,60.0,14.0,0.0
11025,62.0,1.0,30.0,12.0,0.0
11026,66.0,0.0,30.0,11.0,0.0
11027,54.0,0.0,30.0,6.0,0.0
11028,69.0,2.0,60.0,10.0,0.0
11029,69.0,2.0,30.0,11.0,0.0
11030,66.0,0.0,30.0,12.0,0.0
11031,50.0,28.0,15.0,6.0,0.0
11032,45.0,0.0,30.0,6.0,0.0
11033,50.0,3.0,540.0,3.0,0.0
11034,45.0,0.0,60.0,13.0,0.0
11035,54.0,0.0,540.0,3.0,0.0
11036,33.0,1.0,60.0,14.0,0.0
11037,62.0,0.0,30.0,12.0,0.0
11038,66.0,1.0,30.0,11.0,0.0
11039,54.0,28.0,30.0,6.0,0.0
11040,50.0,26.0,15.0,6.0,0.0
11041,74.0,2.0,60.0,10.0,0.0
11042,66.0,2.0,30.0,12.0,0.0
11043,69.0,0.0,30.0,11.0,0.0
11044,50.0,0.0,15.0,6.0,0.0
11045,45.0,0.0,30.0,6.0,0.0
11046,45.0,0.0,60.0,13.0,0.0
11047,33.0,1.0,60.0,14.0,0.0
11048,62.0,1.0,30.0,12.0,0.0
11049,66.0,0.0,30.0,11.0,0.0
11050,50.0,26.0,15.0,6.0,0.0
11051,54.0,0.0,30.0,6.0,0.0
11052,78.0,2.0,60.0,10.0,0.0
11053,69.0,0.0,30.0,11.0,0.0
11054,66.0,2.0,30.0,12.0,0.0
11055,50.0,28.0,15.0,6.0,0.0
11056,45.0,21.0,30.0,6.0,0.0
11057,45.0,3.0,60.0,13.0,0.0
11058,33.0,29.0,60.0,14.0,0.0
11059,66.0,0.0,30.0,11.0,0.0
11060,62.0,0.0,30.0,12.0,0.0
11061,54.0,1.0,30.0,6.0,0.0
11062,50.0,0.0,30.0,6.0,0.0
11063,81.0,0.0,120.0,10.0,0.0
11064,66.0,0.0,30.0,12.0,0.0
11065,86.0,0.0,360.0,1.0,0.0
11066,78.0,1.0,360.0,1.0,0.0
11067,69.0,2.0,30.0,11.0,0.0
11068,66.0,2.0,120.0,4.0,0.0
11069,45.0,0.0,30.0,6.0,0.0
11070,45.0,2.0,60.0,13.0,0.0
11071,54.0,0.0,120.0,5.0,0.0
11072,33.0,1.0,60.0,14.0,0.0
11073,66.0,1.0,30.0,11.0,0.0
11074,62.0,0.0,30.0,12.0,0.0
11075,54.0,0.0,30.0,6.0,0.0
11076,50.0,26.0,15.0,6.0,0.0
11077,66.0,2.0,30.0,12.0,0.0
11078,69.0,0.0,30.0,11.0,0.0
11079,50.0,28.0,15.0,6.0,0.0
11080,45.0,24.0,30.0,6.0,0.0
11081,45.0,2.0,60.0,13.0,0.0
11082,33.0,1.0,60.0,14.0,0.0
11083,66.0,1.0,30.0,11.0,0.0
11084,62.0,0.0,30.0,12.0,0.0
11085,50.0,0.0,30.0,6.0,0.0
11086,54.0,28.0,30.0,6.0,0.0
11087,78.0,0.0,60.0,10.0,0.0
11088,66.0,0.0,30.0,12.0,0.0
11089,69.0,2.0,30.0,11.0,0.0
11090,62.0,2.0,60.0,4.0,0.0
11091,45.0,24.0,30.0,6.0,0.0
11092,50.0,0.0,30.0,6.0,0.0
11093,50.0,2.0,60.0,5.0,0.0
11094,45.0,0.0,60.0,13.0,0.0
11095,33.0,1.0,60.0,14.0,0.0
11096,62.0,0.0,30.0,12.0,0.0
11097,66.0,1.0,30.0,11.0,0.0
11098,54.0,0.0,30.0,6.0,0.0
11099,50.0,28.0,30.0,6.0,0.0
11100,74.0,0.0,60.0,10.0,0.0
11101,66.0,2.0,30.0,12.0,0.0
11102,69.0,0.0,30.0,11.0,0.0
11103,57.0,2.0,60.0,4.0,0.0
11104,45.0,24.0,30.0,6.0,0.0
11105,50.0,0.0,30.0,6.0,0.0
11106,45.0,0.0,60.0,13.0,0.0
11107,45.0,2.0,60.0,5.0,0.0
11108,33.0,1.0,60.0,14.0,0.0
11109,66.0,1.0,30.0,11.0,0.0
11110,62.0,0.0,30.0,12.0,0.0
11111,54.0,28.0,30.0,6.0,0.0
11112,50.0,0.0,30.0,6.0,0.0
11113,78.0,0.0,60.0,10.0,0.0
11114,66.0,2.0,30.0,12.0,0.0
11115,69.0,0.0,30.0,11.0,0.0
11116,62.0,2.0,60.0,4.0,0.0
11117,50.0,0.0,30.0,6.0,0.0
11118,45.0,24.0,30.0,6.0,0.0
11119,45.0,2.0,60.0,13.0,0.0
11120,50.0,0.0,60.0,5.0,0.0
11121,33.0,1.0,60.0,14.0,0.0
11122,62.0,1.0,30.0,12.0,0.0
11123,66.0,0.0,30.0,11.0,0.0
11124,54.0,28.0,30.0,6.0,0.0
11125,50.0,0.0,30.0,6.0,0.0
11126,81.0,0.0,60.0,10.0,0.0
11127,66.0,0.0,30.0,12.0,0.0
11128,69.0,2.0,30.0,11.0,0.0
11129,66.0,0.0,60.0,4.0,0.0
11130,45.0,21.0,30.0,6.0,0.0
11131,45.0,0.0,60.0,13.0,0.0
11132,54.0,0.0,60.0,5.0,0.0
11133,33.0,57.0,60.0,14.0,0.0
11134,66.0,0.0,30.0,11.0,0.0
11135,62.0,0.0,30.0,12.0,0.0
11136,50.0,0.0,15.0,6.0,0.0
11137,54.0,1.0,30.0,6.0,0.0
11138,90.0,0.0,120.0,0.0,0.0
11139,86.0,2.0,60.0,10.0,0.0
11140,86.0,0.0,120.0,0.0,0.0
11141,69.0,2.0,60.0,11.0,0.0
11142,86.0,1.0,120.0,1.0,0.0
11143,66.0,0.0,60.0,12.0,0.0
11144,78.0,0.0,120.0,1.0,0.0
11145,74.0,2.0,120.0,2.0,0.0
11146,78.0,0.0,120.0,2.0,0.0
11147,69.0,0.0,120.0,4.0,0.0
11148,45.0,48.0,60.0,6.0,0.0
11149,57.0,0.0,120.0,5.0,0.0
11150,54.0,0.0,120.0,3.0,0.0
11151,50.0,55.0,120.0,3.0,0.0
11152,45.0,2.0,120.0,13.0,0.0
11153,33.0,0.0,120.0,14.0,0.0
11154,81.0,2.0,60.0,10.0,0.0
11155,62.0,0.0,60.0,12.0,0.0
11156,66.0,2.0,60.0,11.0,0.0
11157,50.0,0.0,15.0,6.0,0.0
11158,54.0,0.0,60.0,6.0,0.0
11159,81.0,2.0,60.0,10.0,0.0
11160,66.0,0.0,60.0,12.0,0.0
11161,69.0,2.0,60.0,11.0,0.0
11162,45.0,48.0,60.0,6.0,0.0
11163,45.0,3.0,120.0,13.0,0.0
11164,33.0,57.0,120.0,14.0,0.0
11165,78.0,2.0,60.0,10.0,0.0
11166,62.0,0.0,60.0,12.0,0.0
11167,66.0,2.0,60.0,11.0,0.0
11168,50.0,0.0,15.0,6.0,0.0
11169,54.0,4.0,60.0,6.0,0.0
11170,81.0,2.0,60.0,10.0,0.0
11171,66.0,2.0,60.0,12.0,0.0
11172,69.0,0.0,60.0,11.0,0.0
11173,50.0,0.0,60.0,6.0,0.0
11174,45.0,48.0,60.0,6.0,0.0
11175,45.0,3.0,120.0,13.0,0.0
11176,33.0,57.0,120.0,14.0,0.0
11177,78.0,2.0,60.0,10.0,0.0
11178,66.0,0.0,60.0,11.0,0.0
11179,62.0,2.0,60.0,12.0,0.0
11180,50.0,0.0,60.0,6.0,0.0
11181,54.0,4.0,60.0,6.0,0.0
11182,81.0,2.0,60.0,10.0,0.0
11183,69.0,2.0,60.0,11.0,0.0
11184,66.0,0.0,60.0,12.0,0.0
11185,45.0,0.0,60.0,6.0,0.0
11186,45.0,3.0,120.0,13.0,0.0
11187,33.0,57.0,120.0,14.0,0.0
11188,78.0,2.0,60.0,10.0,0.0
11189,62.0,2.0,60.0,12.0,0.0
11190,66.0,0.0,60.0,11.0,0.0
11191,54.0,0.0,60.0,6.0,0.0
11192,50.0,48.0,15.0,6.0,0.0
11193,81.0,2.0,60.0,10.0,0.0
11194,66.0,0.0,60.0,12.0,0.0
11195,69.0,2.0,60.0,11.0,0.0
11196,45.0,0.0,60.0,6.0,0.0
11197,45.0,3.0,120.0,13.0,0.0
11198,33.0,57.0,120.0,14.0,0.0
11199,78.0,2.0,60.0,10.0,0.0
11200,66.0,2.0,60.0,11.0,0.0
11201,62.0,0.0,60.0,12.0,0.0
11202,54.0,4.0,60.0,6.0,0.0
11203,50.0,48.0,15.0,6.0,0.0
11204,79.0,2.0,60.0,10.0,0.0
11205,67.0,2.0,60.0,11.0,0.0
11206,64.0,0.0,60.0,12.0,0.0
11207,45.0,0.0,60.0,6.0,0.0
11208,45.0,3.0,120.0,13.0,0.0
11209,33.0,7.0,120.0,14.0,0.0
11210,76.0,2.0,60.0,10.0,0.0
11211,64.0,0.0,60.0,11.0,0.0
11212,62.0,2.0,60.0,12.0,0.0
11213,50.0,48.0,15.0,6.0,0.0
11214,52.0,0.0,60.0,6.0,0.0
11215,88.0,2.0,120.0,0.0,0.0
11216,78.0,10.0,15.0,10.0,0.0
11217,76.0,0.0,120.0,0.0,0.0
11218,76.0,1.0,120.0,1.0,0.0
11219,79.0,0.0,120.0,1.0,0.0
11220,64.0,0.0,120.0,11.0,0.0
11221,62.0,0.0,120.0,12.0,0.0
11222,64.0,0.0,120.0,4.0,0.0
11223,74.0,0.0,120.0,2.0,0.0
11224,69.0,1.0,120.0,2.0,0.0
11225,45.0,1.0,120.0,6.0,0.0
11226,45.0,3.0,120.0,13.0,0.0
11227,57.0,0.0,120.0,5.0,0.0
11228,33.0,4.0,120.0,14.0,0.0
11229,76.0,10.0,15.0,10.0,0.0
11230,78.0,10.0,15.0,10.0,0.0
11231,76.0,10.0,15.0,10.0,0.0
11232,78.0,10.0,15.0,10.0,0.0
11233,76.0,12.0,15.0,10.0,0.0
11234,78.0,10.0,15.0,10.0,0.0
11235,76.0,10.0,15.0,10.0,0.0
11236,78.0,10.0,15.0,10.0,0.0
11237,76.0,10.0,15.0,10.0,0.0
11238,78.0,8.0,15.0,10.0,0.0
11239,76.0,0.0,15.0,10.0,0.0
11240,78.0,10.0,15.0,10.0,0.0
11241,76.0,10.0,15.0,10.0,0.0
11242,78.0,10.0,15.0,10.0,0.0
11243,76.0,10.0,15.0,10.0,0.0
11244,78.0,10.0,15.0,10.0,0.0
11245,76.0,10.0,15.0,10.0,0.0
11246,78.0,10.0,15.0,10.0,0.0
11247,76.0,10.0,15.0,10.0,0.0
11248,78.0,10.0,15.0,10.0,0.0
11249,76.0,10.0,15.0,10.0,0.0
11250,78.0,10.0,15.0,10.0,0.0
11251,76.0,10.0,15.0,10.0,0.0
11252,78.0,10.0,15.0,10.0,0.0
11253,76.0,10.0,15.0,10.0,0.0
11254,78.0,10.0,15.0,10.0,0.0
11255,76.0,10.0,15.0,10.0,0.0
11256,78.0,10.0,15.0,10.0,0.0
11257,76.0,10.0,15.0,10.0,0.0
11258,78.0,10.0,15.0,10.0,0.0
11259,76.0,10.0,15.0,10.0,0.0
11260,78.0,10.0,15.0,10.0,0.0
11261,76.0,10.0,15.0,10.0,0.0
11262,78.0,10.0,15.0,10.0,0.0
11263,76.0,10.0,15.0,10.0,0.0
11264,81.0,2.0,120.0,0.0,0.0
11265,88.0,0.0,120.0,0.0,0.0
11266,78.0,10.0,15.0,10.0,0.0
11267,73.0,0.0,120.0,1.0,0.0
11268,76.0,0.0,120.0,1.0,0.0
11269,64.0,0.0,120.0,11.0,0.0
11270,57.0,1.0,120.0,12.0,0.0
11271,61.0,0.0,120.0,12.0,0.0
11272,69.0,1.0,120.0,4.0,0.0
11273,69.0,0.0,120.0,2.0,0.0
11274,73.0,0.0,120.0,2.0,0.0
11275,57.0,1.0,120.0,6.0,0.0
11276,57.0,0.0,120.0,13.0,0.0
11277,57.0,3.0,120.0,5.0,0.0
11278,45.0,4.0,120.0,14.0,0.0
11279,76.0,10.0,15.0,10.0,0.0
11280,78.0,10.0,15.0,10.0,0.0
11281,76.0,10.0,15.0,10.0,0.0
11282,78.0,10.0,15.0,10.0,0.0
11283,76.0,10.0,15.0,10.0,0.0
11284,78.0,10.0,15.0,10.0,0.0
11285,76.0,10.0,15.0,10.0,0.0
11286,78.0,10.0,15.0,10.0,0.0
11287,76.0,10.0,15.0,10.0,0.0
11288,78.0,8.0,15.0,10.0,0.0
11289,76.0,0.0,15.0,10.0,0.0
11290,78.0,10.0,15.0,10.0,0.0
11291,76.0,10.0,15.0,10.0,0.0
11292,78.0,10.0,15.0,10.0,0.0
11293,76.0,10.0,15.0,10.0,0.0
11294,78.0,10.0,15.0,10.0,0.0
11295,76.0,10.0,15.0,10.0,0.0
11296,78.0,10.0,15.0,10.0,0.0
11297,76.0,10.0,15.0,10.0,0.0
11298,78.0,10.0,15.0,10.0,0.0
11299,76.0,10.0,15.0,10.0,0.0
11300,78.0,10.0,15.0,10.0,0.0
11301,76.0,10.0,15.0,10.0,0.0
11302,78.0,10.0,15.0,10.0,0.0
11303,76.0,10.0,15.0,10.0,0.0
11304,78.0,10.0,15.0,10.0,0.0
11305,76.0,10.0,15.0,10.0,0.0
11306,78.0,10.0,15.0,10.0,0.0
11307,76.0,10.0,15.0,10.0,0.0
11308,78.0,10.0,15.0,10.0,0.0
11309,76.0,10.0,15.0,10.0,0.0
11310,78.0,8.0,15.0,10.0,0.0
11311,76.0,10.0,15.0,10.0,0.0
11312,78.0,74.0,15.0,10.0,0.0
11313,78.0,2.0,240.0,10.0,0.0
11314,78.0,2.0,240.0,1.0,0.0
11315,73.0,2.0,180.0,2.0,0.0
11316,70.0,0.0,180.0,2.0,0.0
11317,54.0,28.0,60.0,6.0,0.0
11318,54.0,3.0,120.0,13.0,0.0
11319,58.0,2.0,180.0,3.0,0.0
11320,61.0,0.0,180.0,3.0,0.0
11321,42.0,24.0,120.0,14.0,0.0
11322,70.0,30.0,30.0,11.0,0.0
11323,66.0,1.0,60.0,6.0,0.0
11324,71.0,2.0,30.0,11.0,0.0
11325,82.0,0.0,60.0,0.0,0.0
11326,85.0,0.0,60.0,0.0,0.0
11327,73.0,26.0,30.0,11.0,0.0
11328,64.0,56.0,60.0,6.0,0.0
11329,70.0,2.0,30.0,11.0,0.0
11330,74.0,1.0,300.0,2.0,0.0
11331,71.0,0.0,300.0,2.0,0.0
11332,62.0,28.0,60.0,6.0,0.0
11333,59.0,0.0,300.0,3.0,0.0
11334,62.0,0.0,300.0,3.0,0.0
11335,47.0,3.0,120.0,13.0,0.0
11336,35.0,24.0,120.0,14.0,0.0
11337,76.0,2.0,60.0,10.0,0.0
11338,71.0,28.0,30.0,11.0,0.0
11339,76.0,2.0,60.0,1.0,0.0
11340,59.0,1.0,60.0,6.0,0.0
11341,73.0,0.0,30.0,11.0,0.0
11342,83.0,2.0,60.0,0.0,0.0
11343,86.0,0.0,60.0,0.0,0.0
11344,78.0,0.0,60.0,10.0,0.0
11345,78.0,2.0,60.0,1.0,0.0
11346,74.0,28.0,30.0,11.0,0.0
11347,57.0,6.0,60.0,6.0,0.0
11348,71.0,0.0,30.0,11.0,0.0
11349,81.0,2.0,15.0,10.0,0.0
11350,81.0,48.0,15.0,1.0,0.0
11351,56.0,28.0,60.0,6.0,0.0
11352,52.0,3.0,120.0,13.0,0.0
11353,40.0,24.0,120.0,14.0,0.0
11354,80.0,2.0,60.0,10.0,0.0
11355,80.0,2.0,60.0,1.0,0.0
11356,78.0,2.0,60.0,10.0,0.0
11357,59.0,28.0,30.0,12.0,0.0
11358,78.0,0.0,60.0,1.0,0.0
11359,52.0,1.0,60.0,6.0,0.0
11360,61.0,1.0,30.0,12.0,0.0
11361,83.0,0.0,60.0,0.0,0.0
11362,86.0,0.0,60.0,0.0,0.0
11363,80.0,2.0,60.0,10.0,0.0
11364,80.0,0.0,60.0,1.0,0.0
11365,62.0,28.0,30.0,12.0,0.0
11366,64.0,1.0,60.0,4.0,0.0
11367,71.0,0.0,60.0,2.0,0.0
11368,68.0,0.0,60.0,2.0,0.0
11369,50.0,1.0,60.0,6.0,0.0
11370,64.0,0.0,60.0,5.0,0.0
11371,59.0,0.0,60.0,3.0,0.0
11372,56.0,59.0,60.0,3.0,0.0
11373,59.0,1.0,30.0,12.0,0.0
11374,81.0,0.0,120.0,10.0,0.0
11375,81.0,0.0,120.0,1.0,0.0
11376,69.0,0.0,120.0,2.0,0.0
11377,73.0,2.0,120.0,2.0,0.0
11378,49.0,28.0,60.0,6.0,0.0
11379,61.0,2.0,120.0,3.0,0.0
11380,45.0,3.0,120.0,13.0,0.0
11381,57.0,0.0,120.0,3.0,0.0
11382,33.0,24.0,120.0,14.0,0.0
11383,61.0,26.0,30.0,12.0,0.0
11384,45.0,1.0,60.0,6.0,0.0
11385,62.0,2.0,30.0,12.0,0.0
11386,83.0,2.0,60.0,0.0,0.0
11387,80.0,0.0,60.0,0.0,0.0
11388,76.0,2.0,60.0,10.0,0.0
11389,64.0,23.0,30.0,12.0,0.0
11390,76.0,1.0,60.0,1.0,0.0
11391,69.0,0.0,60.0,2.0,0.0
11392,64.0,1.0,60.0,4.0,0.0
11393,73.0,2.0,60.0,2.0,0.0
11394,43.0,1.0,60.0,6.0,0.0
11395,61.0,0.0,60.0,3.0,0.0
11396,57.0,59.0,60.0,5.0,0.0
11397,57.0,0.0,60.0,3.0,0.0
11398,61.0,1.0,30.0,12.0,0.0
11399,78.0,2.0,240.0,10.0,0.0
11400,78.0,2.0,240.0,1.0,0.0
11401,73.0,0.0,180.0,2.0,0.0
11402,70.0,2.0,180.0,2.0,0.0
11403,42.0,28.0,60.0,6.0,0.0
11404,61.0,0.0,180.0,3.0,0.0
11405,58.0,0.0,180.0,3.0,0.0
11406,54.0,3.0,120.0,13.0,0.0
11407,42.0,24.0,120.0,14.0,0.0
11408,70.0,30.0,30.0,11.0,0.0
11409,66.0,1.0,60.0,6.0,0.0
11410,71.0,2.0,30.0,11.0,0.0
11411,85.0,0.0,60.0,0.0,0.0
11412,82.0,2.0,60.0,0.0,0.0
11413,73.0,26.0,30.0,11.0,0.0
11414,64.0,56.0,60.0,6.0,0.0
11415,70.0,2.0,30.0,11.0,0.0
11416,74.0,1.0,300.0,2.0,0.0
11417,71.0,0.0,300.0,2.0,0.0
11418,62.0,28.0,60.0,6.0,0.0
11419,47.0,3.0,120.0,13.0,0.0
11420,62.0,0.0,300.0,3.0,0.0
11421,59.0,0.0,300.0,3.0,0.0
11422,35.0,24.0,120.0,14.0,0.0
11423,76.0,2.0,60.0,10.0,0.0
11424,76.0,0.0,60.0,1.0,0.0
11425,71.0,28.0,30.0,11.0,0.0
11426,59.0,1.0,60.0,6.0,0.0
11427,73.0,2.0,30.0,11.0,0.0
11428,86.0,0.0,60.0,0.0,0.0
11429,83.0,0.0,60.0,0.0,0.0
11430,78.0,2.0,60.0,10.0,0.0
11431,78.0,2.0,60.0,1.0,0.0
11432,74.0,28.0,30.0,11.0,0.0
11433,57.0,6.0,60.0,6.0,0.0
11434,71.0,0.0,30.0,11.0,0.0
11435,81.0,2.0,15.0,10.0,0.0
11436,81.0,48.0,15.0,1.0,0.0
11437,56.0,28.0,60.0,6.0,0.0
11438,52.0,3.0,120.0,13.0,0.0
11439,40.0,24.0,120.0,14.0,0.0
11440,80.0,2.0,60.0,10.0,0.0
11441,80.0,2.0,60.0,1.0,0.0
11442,78.0,2.0,60.0,10.0,0.0
11443,59.0,28.0,30.0,12.0,0.0
11444,78.0,0.0,60.0,1.0,0.0
11445,52.0,1.0,60.0,6.0,0.0
11446,61.0,1.0,30.0,12.0,0.0
11447,83.0,0.0,60.0,0.0,0.0
11448,80.0,2.0,60.0,10.0,0.0
11449,86.0,0.0,60.0,0.0,0.0
11450,80.0,1.0,60.0,1.0,0.0
11451,62.0,23.0,30.0,12.0,0.0
11452,64.0,2.0,60.0,4.0,0.0
11453,68.0,0.0,60.0,2.0,0.0
11454,71.0,1.0,60.0,2.0,0.0
11455,50.0,1.0,60.0,6.0,0.0
11456,59.0,0.0,60.0,3.0,0.0
11457,56.0,59.0,60.0,3.0,0.0
11458,64.0,3.0,60.0,5.0,0.0
11459,59.0,0.0,30.0,12.0,0.0
11460,81.0,2.0,120.0,10.0,0.0
11461,69.0,0.0,120.0,12.0,0.0
11462,81.0,2.0,120.0,1.0,0.0
11463,64.0,0.0,120.0,4.0,0.0
11464,69.0,2.0,120.0,2.0,0.0
11465,73.0,0.0,120.0,2.0,0.0
11466,49.0,54.0,60.0,6.0,0.0
11467,57.0,0.0,120.0,5.0,0.0
11468,57.0,0.0,120.0,3.0,0.0
11469,49.0,0.0,120.0,3.0,0.0
11470,45.0,3.0,120.0,13.0,0.0
11471,33.0,50.0,120.0,14.0,0.0
11472,45.0,1.0,60.0,6.0,0.0
11473,76.0,0.0,60.0,10.0,0.0
11474,83.0,2.0,60.0,0.0,0.0
11475,80.0,0.0,60.0,0.0,0.0
11476,64.0,0.0,60.0,12.0,0.0
11477,76.0,2.0,60.0,1.0,0.0
11478,69.0,0.0,60.0,2.0,0.0
11479,57.0,2.0,60.0,4.0,0.0
11480,73.0,0.0,60.0,2.0,0.0
11481,52.0,60.0,60.0,6.0,0.0
11482,45.0,0.0,60.0,5.0,0.0
11483,49.0,0.0,60.0,3.0,0.0
11484,52.0,0.0,60.0,3.0,0.0
11485,78.0,2.0,120.0,10.0,0.0
11486,66.0,0.0,120.0,12.0,0.0
11487,78.0,2.0,120.0,1.0,0.0
11488,74.0,2.0,180.0,2.0,0.0
11489,69.0,0.0,180.0,2.0,0.0
11490,57.0,0.0,180.0,4.0,0.0
11491,45.0,56.0,60.0,6.0,0.0
11492,54.0,0.0,180.0,3.0,0.0
11493,45.0,2.0,180.0,5.0,0.0
11494,45.0,3.0,120.0,13.0,0.0
11495,50.0,0.0,180.0,3.0,0.0
11496,33.0,50.0,120.0,14.0,0.0
11497,50.0,1.0,60.0,6.0,0.0
11498,81.0,0.0,60.0,0.0,0.0
11499,86.0,0.0,60.0,0.0,0.0
11500,74.0,0.0,60.0,10.0,0.0
11501,62.0,0.0,60.0,12.0,0.0
11502,74.0,2.0,60.0,1.0,0.0
11503,54.0,60.0,60.0,6.0,0.0
11504,69.0,0.0,120.0,10.0,0.0
11505,69.0,2.0,120.0,1.0,0.0
11506,57.0,0.0,120.0,12.0,0.0
11507,81.0,0.0,120.0,11.0,0.0
11508,57.0,2.0,120.0,4.0,0.0
11509,73.0,0.0,120.0,2.0,0.0
11510,69.0,0.0,120.0,2.0,0.0
11511,45.0,54.0,60.0,6.0,0.0
11512,52.0,0.0,120.0,3.0,0.0
11513,45.0,3.0,120.0,13.0,0.0
11514,55.0,2.0,120.0,3.0,0.0
11515,45.0,0.0,120.0,5.0,0.0
11516,33.0,50.0,120.0,14.0,0.0
11517,52.0,1.0,60.0,6.0,0.0
11518,73.0,0.0,60.0,10.0,0.0
11519,85.0,0.0,60.0,0.0,0.0
11520,81.0,0.0,60.0,0.0,0.0
11521,76.0,2.0,60.0,11.0,0.0
11522,61.0,0.0,60.0,12.0,0.0
11523,73.0,0.0,60.0,1.0,0.0
11524,57.0,0.0,60.0,4.0,0.0
11525,69.0,0.0,60.0,2.0,0.0
11526,73.0,2.0,60.0,2.0,0.0
11527,55.0,60.0,60.0,6.0,0.0
11528,45.0,2.0,60.0,5.0,0.0
11529,55.0,0.0,60.0,3.0,0.0
11530,52.0,0.0,60.0,3.0,0.0
11531,74.0,2.0,120.0,10.0,0.0
11532,78.0,0.0,120.0,11.0,0.0
11533,62.0,0.0,120.0,12.0,0.0
11534,74.0,2.0,120.0,1.0,0.0
11535,57.0,2.0,180.0,4.0,0.0
11536,74.0,0.0,180.0,2.0,0.0
11537,69.0,0.0,180.0,2.0,0.0
11538,45.0,56.0,60.0,6.0,0.0
11539,54.0,2.0,180.0,3.0,0.0
11540,50.0,0.0,180.0,3.0,0.0
11541,45.0,3.0,120.0,13.0,0.0
11542,45.0,0.0,180.0,5.0,0.0
11543,33.0,47.0,120.0,14.0,0.0
11544,50.0,1.0,60.0,6.0,0.0
11545,78.0,0.0,60.0,10.0,0.0
11546,81.0,0.0,60.0,0.0,0.0
11547,86.0,2.0,60.0,0.0,0.0
11548,66.0,1.0,60.0,12.0,0.0
11549,78.0,2.0,60.0,1.0,0.0
11550,74.0,0.0,60.0,11.0,0.0
11551,54.0,28.0,60.0,6.0,0.0
11552,85.0,0.0,120.0,0.0,0.0
11553,88.0,3.0,120.0,0.0,0.0
11554,81.0,0.0,120.0,10.0,0.0
11555,69.0,0.0,30.0,11.0,0.0
11556,81.0,2.0,120.0,1.0,0.0
11557,64.0,2.0,30.0,12.0,0.0
11558,73.0,0.0,120.0,2.0,0.0
11559,69.0,2.0,120.0,4.0,0.0
11560,69.0,0.0,120.0,2.0,0.0
11561,49.0,28.0,30.0,6.0,0.0
11562,45.0,0.0,30.0,6.0,0.0
11563,52.0,2.0,120.0,3.0,0.0
11564,45.0,3.0,120.0,13.0,0.0
11565,57.0,0.0,120.0,5.0,0.0
11566,49.0,0.0,120.0,3.0,0.0
11567,33.0,24.0,120.0,14.0,0.0
11568,61.0,2.0,30.0,12.0,0.0
11569,64.0,0.0,30.0,11.0,0.0
11570,52.0,0.0,30.0,6.0,0.0
11571,64.0,2.0,30.0,12.0,0.0
11572,69.0,0.0,30.0,11.0,0.0
11573,49.0,28.0,15.0,6.0,0.0
11574,45.0,0.0,30.0,6.0,0.0
11575,64.0,0.0,30.0,11.0,0.0
11576,61.0,0.0,30.0,12.0,0.0
11577,49.0,21.0,15.0,6.0,0.0
11578,52.0,1.0,30.0,6.0,0.0
11579,76.0,2.0,60.0,10.0,0.0
11580,85.0,0.0,60.0,0.0,0.0
11581,88.0,0.0,60.0,0.0,0.0
11582,73.0,0.0,15.0,1.0,0.0
11583,76.0,0.0,60.0,1.0,0.0
11584,69.0,2.0,30.0,11.0,0.0
11585,64.0,0.0,30.0,12.0,0.0
11586,69.0,1.0,60.0,2.0,0.0
11587,73.0,0.0,60.0,2.0,0.0
11588,64.0,0.0,60.0,4.0,0.0
11589,45.0,21.0,30.0,6.0,0.0
11590,49.0,0.0,30.0,6.0,0.0
11591,52.0,0.0,60.0,3.0,0.0
11592,57.0,0.0,60.0,5.0,0.0
11593,49.0,32.0,60.0,3.0,0.0
11594,61.0,1.0,30.0,12.0,0.0
11595,64.0,0.0,30.0,11.0,0.0
11596,52.0,0.0,30.0,6.0,0.0
11597,49.0,1.0,30.0,6.0,0.0
11598,86.0,0.0,720.0,0.0,0.0
11599,90.0,0.0,720.0,0.0,0.0
11600,78.0,0.0,120.0,10.0,0.0
11601,69.0,2.0,30.0,11.0,0.0
11602,66.0,0.0,30.0,12.0,0.0
11603,74.0,0.0,360.0,1.0,0.0
11604,78.0,0.0,360.0,1.0,0.0
11605,69.0,1.0,120.0,2.0,0.0
11606,74.0,0.0,120.0,2.0,0.0
11607,66.0,2.0,60.0,4.0,0.0
11608,54.0,24.0,30.0,6.0,0.0
11609,50.0,0.0,30.0,6.0,0.0
11610,45.0,0.0,60.0,13.0,0.0
11611,62.0,0.0,60.0,5.0,0.0
11612,50.0,2.0,60.0,3.0,0.0
11613,54.0,27.0,120.0,3.0,0.0
11614,33.0,1.0,60.0,14.0,0.0
11615,62.0,1.0,30.0,12.0,0.0
11616,66.0,0.0,30.0,11.0,0.0
11617,45.0,0.0,30.0,6.0,0.0
11618,66.0,0.0,30.0,12.0,0.0
11619,69.0,2.0,30.0,11.0,0.0
11620,62.0,2.0,60.0,4.0,0.0
11621,50.0,28.0,15.0,6.0,0.0
11622,54.0,24.0,30.0,6.0,0.0
11623,45.0,0.0,60.0,13.0,0.0
11624,54.0,2.0,60.0,5.0,0.0
11625,45.0,0.0,60.0,3.0,0.0
11626,33.0,0.0,60.0,14.0,0.0
11627,62.0,1.0,30.0,12.0,0.0
11628,66.0,0.0,30.0,11.0,0.0
11629,45.0,1.0,30.0,6.0,0.0
11630,74.0,2.0,60.0,10.0,0.0
11631,66.0,0.0,30.0,12.0,0.0
11632,69.0,2.0,30.0,11.0,0.0
11633,62.0,1.0,60.0,2.0,0.0
11634,74.0,0.0,60.0,2.0,0.0
11635,62.0,2.0,60.0,4.0,0.0
11636,54.0,24.0,30.0,6.0,0.0
11637,50.0,0.0,15.0,6.0,0.0
11638,45.0,0.0,60.0,13.0,0.0
11639,45.0,0.0,60.0,3.0,0.0
11640,50.0,27.0,60.0,3.0,0.0
11641,54.0,0.0,60.0,5.0,0.0
11642,33.0,0.0,60.0,14.0,0.0
11643,62.0,1.0,30.0,12.0,0.0
11644,66.0,0.0,30.0,11.0,0.0
11645,50.0,0.0,15.0,6.0,0.0
11646,45.0,1.0,30.0,6.0,0.0
11647,69.0,0.0,60.0,10.0,0.0
11648,66.0,0.0,30.0,12.0,0.0
11649,69.0,2.0,30.0,11.0,0.0
11650,69.0,0.0,60.0,2.0,0.0
11651,57.0,0.0,60.0,2.0,0.0
11652,62.0,2.0,60.0,4.0,0.0
11653,54.0,24.0,30.0,6.0,0.0
11654,50.0,0.0,30.0,6.0,0.0
11655,45.0,0.0,60.0,3.0,0.0
11656,54.0,0.0,60.0,5.0,0.0
11657,45.0,2.0,60.0,13.0,0.0
11658,33.0,1.0,60.0,14.0,0.0
11659,66.0,0.0,30.0,11.0,0.0
11660,62.0,1.0,30.0,12.0,0.0
11661,45.0,28.0,30.0,6.0,0.0
11662,50.0,0.0,30.0,6.0,0.0
11663,74.0,0.0,60.0,10.0,0.0
11664,69.0,2.0,30.0,11.0,0.0
11665,66.0,0.0,30.0,12.0,0.0
11666,62.0,2.0,60.0,4.0,0.0
11667,62.0,0.0,60.0,2.0,0.0
11668,74.0,0.0,60.0,2.0,0.0
11669,50.0,0.0,30.0,6.0,0.0
11670,54.0,24.0,30.0,6.0,0.0
11671,54.0,0.0,60.0,5.0,0.0
11672,45.0,2.0,60.0,13.0,0.0
11673,45.0,0.0,60.0,3.0,0.0
11674,50.0,27.0,60.0,3.0,0.0
11675,33.0,1.0,60.0,14.0,0.0
11676,62.0,0.0,30.0,12.0,0.0
11677,66.0,1.0,30.0,11.0,0.0
11678,45.0,0.0,30.0,6.0,0.0
11679,50.0,1.0,30.0,6.0,0.0
11680,78.0,2.0,60.0,10.0,0.0
11681,66.0,0.0,30.0,12.0,0.0
11682,69.0,2.0,30.0,11.0,0.0
11683,78.0,0.0,60.0,2.0,0.0
11684,62.0,0.0,60.0,4.0,0.0
11685,66.0,1.0,60.0,2.0,0.0
11686,54.0,0.0,30.0,6.0,0.0
11687,45.0,0.0,60.0,3.0,0.0
11688,54.0,3.0,60.0,3.0,0.0
11689,54.0,0.0,60.0,5.0,0.0
11690,45.0,0.0,60.0,13.0,0.0
11691,33.0,29.0,60.0,14.0,0.0
11692,62.0,0.0,30.0,12.0,0.0
11693,66.0,1.0,30.0,11.0,0.0
11694,50.0,21.0,15.0,6.0,0.0
11695,45.0,0.0,30.0,6.0,0.0
11696,81.0,0.0,120.0,10.0,0.0
11697,66.0,0.0,30.0,12.0,0.0
11698,69.0,2.0,30.0,11.0,0.0
11699,78.0,0.0,360.0,1.0,0.0
11700,86.0,1.0,360.0,1.0,0.0
11701,69.0,1.0,120.0,2.0,0.0
11702,62.0,2.0,60.0,4.0,0.0
11703,81.0,0.0,120.0,2.0,0.0
11704,54.0,0.0,30.0,6.0,0.0
11705,57.0,27.0,120.0,3.0,0.0
11706,54.0,0.0,60.0,5.0,0.0
11707,45.0,2.0,60.0,3.0,0.0
11708,45.0,0.0,60.0,13.0,0.0
11709,33.0,1.0,60.0,14.0,0.0
11710,62.0,1.0,30.0,12.0,0.0
11711,66.0,0.0,30.0,11.0,0.0
11712,50.0,24.0,15.0,6.0,0.0
11713,45.0,0.0,30.0,6.0,0.0
11714,69.0,2.0,30.0,11.0,0.0
11715,66.0,0.0,30.0,12.0,0.0
11716,62.0,2.0,60.0,4.0,0.0
11717,54.0,0.0,30.0,6.0,0.0
11718,45.0,2.0,60.0,13.0,0.0
11719,45.0,0.0,60.0,3.0,0.0
11720,54.0,0.0,60.0,5.0,0.0
11721,33.0,0.0,60.0,14.0,0.0
11722,66.0,0.0,30.0,11.0,0.0
11723,62.0,1.0,30.0,12.0,0.0
11724,45.0,1.0,30.0,6.0,0.0
11725,50.0,24.0,15.0,6.0,0.0
11726,78.0,2.0,60.0,10.0,0.0
11727,66.0,0.0,30.0,12.0,0.0
11728,69.0,2.0,30.0,11.0,0.0
11729,62.0,2.0,60.0,4.0,0.0
11730,78.0,0.0,60.0,2.0,0.0
11731,66.0,0.0,60.0,2.0,0.0
11732,54.0,0.0,30.0,6.0,0.0
11733,54.0,27.0,60.0,3.0,0.0
11734,45.0,0.0,60.0,13.0,0.0
11735,54.0,0.0,60.0,5.0,0.0
11736,45.0,0.0,60.0,3.0,0.0
11737,33.0,1.0,60.0,14.0,0.0
11738,66.0,1.0,30.0,11.0,0.0
11739,62.0,0.0,30.0,12.0,0.0
11740,45.0,1.0,30.0,6.0,0.0
11741,50.0,24.0,15.0,6.0,0.0
11742,74.0,0.0,60.0,10.0,0.0
11743,66.0,2.0,30.0,12.0,0.0
11744,69.0,0.0,30.0,11.0,0.0
11745,62.0,0.0,60.0,2.0,0.0
11746,74.0,0.0,60.0,2.0,0.0
11747,62.0,2.0,60.0,4.0,0.0
11748,50.0,0.0,30.0,6.0,0.0
11749,54.0,24.0,30.0,6.0,0.0
11750,45.0,0.0,60.0,3.0,0.0
11751,50.0,27.0,60.0,3.0,0.0
11752,45.0,2.0,60.0,13.0,0.0
11753,54.0,0.0,60.0,5.0,0.0
11754,33.0,1.0,60.0,14.0,0.0
11755,66.0,1.0,30.0,11.0,0.0
11756,62.0,0.0,30.0,12.0,0.0
11757,45.0,0.0,30.0,6.0,0.0
11758,78.0,0.0,60.0,10.0,0.0
11759,69.0,2.0,30.0,11.0,0.0
11760,66.0,0.0,30.0,12.0,0.0
11761,78.0,1.0,60.0,2.0,0.0
11762,62.0,2.0,60.0,4.0,0.0
11763,66.0,0.0,60.0,2.0,0.0
11764,50.0,1.0,15.0,6.0,0.0
11765,54.0,24.0,30.0,6.0,0.0
11766,45.0,0.0,60.0,13.0,0.0
11767,45.0,2.0,60.0,3.0,0.0
11768,54.0,27.0,60.0,3.0,0.0
11769,54.0,0.0,60.0,5.0,0.0
11770,33.0,0.0,60.0,14.0,0.0
11771,62.0,0.0,30.0,12.0,0.0
11772,66.0,1.0,30.0,11.0,0.0
11773,45.0,0.0,30.0,6.0,0.0
11774,81.0,2.0,60.0,10.0,0.0
11775,66.0,0.0,30.0,12.0,0.0
11776,69.0,2.0,30.0,11.0,0.0
11777,62.0,0.0,60.0,4.0,0.0
11778,69.0,1.0,60.0,2.0,0.0
11779,81.0,0.0,60.0,2.0,0.0
11780,50.0,1.0,15.0,6.0,0.0
11781,54.0,21.0,30.0,6.0,0.0
11782,54.0,3.0,60.0,5.0,0.0
11783,45.0,0.0,60.0,13.0,0.0
11784,57.0,0.0,60.0,3.0,0.0
11785,45.0,0.0,60.0,3.0,0.0
11786,33.0,29.0,60.0,14.0,0.0
11787,62.0,0.0,30.0,12.0,0.0
11788,66.0,0.0,30.0,11.0,0.0
11789,45.0,0.0,30.0,6.0,0.0
11790,50.0,1.0,30.0,6.0,0.0
11791,86.0,0.0,240.0,0.0,0.0
11792,86.0,5.0,240.0,10.0,0.0
11793,90.0,0.0,240.0,0.0,0.0
11794,78.0,0.0,240.0,1.0,0.0
11795,69.0,0.0,30.0,11.0,0.0
11796,86.0,1.0,240.0,1.0,0.0
11797,66.0,2.0,30.0,12.0,0.0
11798,78.0,1.0,240.0,2.0,0.0
11799,81.0,0.0,240.0,2.0,0.0
11800,62.0,2.0,60.0,4.0,0.0
11801,54.0,0.0,30.0,6.0,0.0
11802,45.0,0.0,60.0,13.0,0.0
11803,62.0,2.0,240.0,3.0,0.0
11804,54.0,2.0,60.0,5.0,0.0
11805,45.0,0.0,60.0,3.0,0.0
11806,33.0,1.0,60.0,14.0,0.0
11807,62.0,0.0,30.0,12.0,0.0
11808,66.0,1.0,30.0,11.0,0.0
11809,45.0,0.0,30.0,6.0,0.0
11810,50.0,24.0,15.0,6.0,0.0
11811,66.0,2.0,30.0,12.0,0.0
11812,69.0,0.0,30.0,11.0,0.0
11813,62.0,2.0,60.0,4.0,0.0
11814,54.0,24.0,30.0,6.0,0.0
11815,50.0,28.0,15.0,6.0,0.0
11816,54.0,0.0,60.0,5.0,0.0
11817,45.0,2.0,60.0,3.0,0.0
11818,45.0,0.0,60.0,13.0,0.0
11819,33.0,1.0,60.0,14.0,0.0
11820,66.0,0.0,30.0,11.0,0.0
11821,62.0,1.0,30.0,12.0,0.0
11822,45.0,0.0,30.0,6.0,0.0
11823,66.0,2.0,30.0,12.0,0.0
11824,69.0,0.0,30.0,11.0,0.0
11825,62.0,1.0,60.0,4.0,0.0
11826,54.0,0.0,30.0,6.0,0.0
11827,50.0,28.0,15.0,6.0,0.0
11828,45.0,3.0,60.0,13.0,0.0
11829,54.0,0.0,60.0,5.0,0.0
11830,45.0,0.0,60.0,3.0,0.0
11831,33.0,52.0,60.0,14.0,0.0
11832,66.0,0.0,30.0,11.0,0.0
11833,62.0,1.0,30.0,12.0,0.0
11834,45.0,0.0,30.0,6.0,0.0
11835,50.0,1.0,30.0,6.0,0.0
11836,69.0,0.0,60.0,12.0,0.0
11837,74.0,0.0,60.0,11.0,0.0
11838,66.0,0.0,60.0,11.0,0.0
11839,62.0,0.0,60.0,4.0,0.0
11840,57.0,1.0,60.0,6.0,0.0
11841,45.0,0.0,60.0,6.0,0.0
11842,45.0,0.0,60.0,3.0,0.0
11843,54.0,0.0,60.0,5.0,0.0
11844,45.0,3.0,60.0,13.0,0.0
11845,33.0,22.0,60.0,14.0,0.0
11846,81.0,5.0,30.0,10.0,0.0
11847,57.0,55.0,30.0,3.0,0.0
11848,78.0,5.0,30.0,10.0,0.0
11849,54.0,55.0,30.0,3.0,0.0
11850,81.0,5.0,30.0,10.0,0.0
11851,57.0,55.0,30.0,3.0,0.0
11852,78.0,5.0,30.0,10.0,0.0
11853,54.0,55.0,30.0,3.0,0.0
11854,74.0,5.0,30.0,10.0,0.0
11855,50.0,55.0,30.0,3.0,0.0
11856,69.0,5.0,30.0,10.0,0.0
11857,45.0,55.0,30.0,3.0,0.0
11858,74.0,5.0,30.0,10.0,0.0
11859,50.0,55.0,30.0,3.0,0.0
11860,78.0,5.0,30.0,10.0,0.0
11861,54.0,55.0,30.0,3.0,0.0
11862,81.0,5.0,30.0,10.0,0.0
11863,57.0,55.0,30.0,3.0,0.0
11864,78.0,5.0,30.0,10.0,0.0
11865,54.0,55.0,30.0,3.0,0.0
11866,74.0,5.0,30.0,10.0,0.0
11867,50.0,55.0,30.0,3.0,0.0
11868,69.0,5.0,30.0,0.0,0.0
11869,69.0,0.0,30.0,10.0,0.0
11870,45.0,55.0,30.0,3.0,0.0
11871,74.0,5.0,30.0,0.0,0.0
11872,74.0,0.0,30.0,10.0,0.0
11873,50.0,55.0,30.0,3.0,0.0
11874,78.0,0.0,30.0,10.0,0.0
11875,78.0,5.0,30.0,0.0,0.0
11876,54.0,55.0,30.0,3.0,0.0
11877,81.0,3.0,30.0,0.0,0.0
11878,81.0,0.0,30.0,10.0,0.0
11879,69.0,2.0,30.0,2.0,0.0
11880,57.0,55.0,30.0,3.0,0.0
11881,86.0,0.0,30.0,0.0,0.0
11882,86.0,3.0,30.0,10.0,0.0
11883,74.0,2.0,30.0,2.0,0.0
11884,62.0,55.0,30.0,3.0,0.0
11885,90.0,3.0,30.0,0.0,0.0
11886,90.0,0.0,30.0,10.0,0.0
11887,78.0,2.0,30.0,2.0,0.0
11888,66.0,55.0,30.0,3.0,0.0
11889,93.0,3.0,30.0,10.0,0.0
11890,93.0,0.0,30.0,0.0,0.0
11891,81.0,2.0,30.0,2.0,0.0
11892,69.0,55.0,30.0,3.0,0.0
11893,62.0,2.0,30.0,10.0,0.0
11894,78.0,3.0,30.0,11.0,0.0
11895,66.0,0.0,30.0,12.0,0.0
11896,50.0,1.0,60.0,6.0,0.0
11897,50.0,3.0,60.0,13.0,0.0
11898,50.0,29.0,30.0,3.0,0.0
11899,38.0,22.0,60.0,14.0,0.0
11900,88.0,2.0,60.0,0.0,0.0
11901,67.0,2.0,30.0,10.0,0.0
11902,83.0,1.0,60.0,1.0,0.0
11903,83.0,3.0,30.0,11.0,0.0
11904,74.0,0.0,60.0,1.0,0.0
11905,71.0,0.0,30.0,12.0,0.0
11906,74.0,5.0,60.0,2.0,0.0
11907,64.0,2.0,60.0,4.0,0.0
11908,76.0,0.0,60.0,2.0,0.0
11909,43.0,1.0,60.0,6.0,0.0
11910,62.0,4.0,60.0,5.0,0.0
11911,43.0,3.0,60.0,13.0,0.0
11912,43.0,0.0,30.0,3.0,0.0
11913,55.0,15.0,30.0,3.0,0.0
11914,31.0,2.0,60.0,14.0,0.0
11915,66.0,10.0,15.0,10.0,0.0
11916,88.0,2.0,120.0,0.0,0.0
11917,79.0,1.0,120.0,1.0,0.0
11918,62.0,0.0,120.0,12.0,0.0
11919,64.0,0.0,120.0,11.0,0.0
11920,74.0,0.0,120.0,1.0,0.0
11921,74.0,1.0,120.0,2.0,0.0
11922,76.0,0.0,120.0,2.0,0.0
11923,64.0,0.0,120.0,4.0,0.0
11924,45.0,1.0,120.0,6.0,0.0
11925,45.0,0.0,120.0,13.0,0.0
11926,62.0,0.0,120.0,5.0,0.0
11927,45.0,3.0,120.0,3.0,0.0
11928,52.0,0.0,120.0,3.0,0.0
11929,33.0,4.0,120.0,14.0,0.0
11930,64.0,10.0,15.0,10.0,0.0
11931,66.0,10.0,15.0,10.0,0.0
11932,64.0,10.0,15.0,10.0,0.0
11933,66.0,12.0,15.0,10.0,0.0
11934,64.0,10.0,15.0,10.0,0.0
11935,66.0,10.0,15.0,10.0,0.0
11936,64.0,10.0,15.0,10.0,0.0
11937,66.0,10.0,15.0,10.0,0.0
11938,64.0,10.0,15.0,10.0,0.0
11939,66.0,8.0,15.0,10.0,0.0
11940,64.0,0.0,15.0,10.0,0.0
11941,66.0,10.0,15.0,10.0,0.0
11942,64.0,10.0,15.0,10.0,0.0
11943,66.0,10.0,15.0,10.0,0.0
11944,64.0,10.0,15.0,10.0,0.0
11945,66.0,10.0,15.0,10.0,0.0
11946,64.0,8.0,15.0,10.0,0.0
11947,78.0,10.0,15.0,10.0,0.0
11948,76.0,10.0,15.0,10.0,0.0
11949,78.0,10.0,15.0,10.0,0.0
11950,76.0,10.0,15.0,10.0,0.0
11951,78.0,12.0,15.0,10.0,0.0
11952,76.0,10.0,15.0,10.0,0.0
11953,78.0,10.0,15.0,10.0,0.0
11954,76.0,10.0,15.0,10.0,0.0
11955,78.0,10.0,15.0,10.0,0.0
11956,76.0,10.0,15.0,10.0,0.0
11957,78.0,10.0,15.0,10.0,0.0
11958,76.0,10.0,15.0,10.0,0.0
11959,78.0,10.0,15.0,10.0,0.0
11960,62.0,2.0,60.0,12.0,0.0
11961,62.0,8.0,60.0,6.0,0.0
11962,76.0,10.0,15.0,10.0,0.0
11963,78.0,15.0,15.0,10.0,0.0
11964,76.0,10.0,15.0,10.0,0.0
11965,78.0,0.0,15.0,10.0,0.0
11966,76.0,5.0,15.0,10.0,0.0
11967,78.0,5.0,15.0,10.0,0.0
11968,88.0,2.0,120.0,0.0,0.0
11969,61.0,0.0,120.0,11.0,0.0
11970,69.0,0.0,120.0,11.0,0.0
11971,79.0,1.0,120.0,1.0,0.0
11972,73.0,0.0,120.0,1.0,0.0
11973,62.0,2.0,15.0,12.0,0.0
11974,76.0,1.0,120.0,2.0,0.0
11975,73.0,0.0,120.0,2.0,0.0
11976,64.0,0.0,120.0,4.0,0.0
11977,62.0,3.0,15.0,6.0,0.0
11978,57.0,0.0,120.0,5.0,0.0
11979,45.0,0.0,120.0,3.0,0.0
11980,57.0,7.0,120.0,3.0,0.0
11981,57.0,3.0,360.0,13.0,0.0
11982,45.0,117.0,360.0,14.0,0.0
11983,76.0,10.0,15.0,10.0,0.0
11984,61.0,0.0,60.0,12.0,0.0
11985,61.0,8.0,60.0,6.0,0.0
11986,78.0,10.0,15.0,10.0,0.0
11987,76.0,10.0,15.0,10.0,0.0
11988,78.0,10.0,15.0,10.0,0.0
11989,76.0,2.0,15.0,10.0,0.0
11990,78.0,10.0,15.0,10.0,0.0
11991,59.0,0.0,60.0,12.0,0.0
11992,59.0,1.0,60.0,6.0,0.0
11993,76.0,10.0,15.0,10.0,0.0
11994,78.0,10.0,15.0,10.0,0.0
11995,76.0,10.0,15.0,10.0,0.0
11996,78.0,8.0,15.0,10.0,0.0
11997,76.0,0.0,15.0,10.0,0.0
11998,78.0,10.0,15.0,10.0,0.0
11999,57.0,2.0,60.0,12.0,0.0
12000,57.0,3.0,60.0,6.0,0.0
12001,76.0,10.0,15.0,10.0,0.0
12002,78.0,10.0,15.0,10.0,0.0
12003,76.0,10.0,15.0,10.0,0.0
12004,78.0,5.0,15.0,10.0,0.0
12005,76.0,10.0,15.0,10.0,0.0
12006,78.0,10.0,15.0,10.0,0.0
12007,57.0,2.0,60.0,12.0,0.0
12008,57.0,8.0,60.0,6.0,0.0
12009,76.0,10.0,15.0,10.0,0.0
12010,78.0,10.0,15.0,10.0,0.0
12011,76.0,10.0,15.0,10.0,0.0
12012,78.0,10.0,15.0,10.0,0.0
12013,76.0,0.0,15.0,10.0,0.0
12014,78.0,10.0,15.0,10.0,0.0
12015,59.0,2.0,60.0,12.0,0.0
12016,59.0,7.0,60.0,6.0,0.0
12017,76.0,10.0,15.0,10.0,0.0
12018,78.0,10.0,15.0,10.0,0.0
12019,76.0,10.0,15.0,10.0,0.0
12020,78.0,10.0,15.0,10.0,0.0
12021,76.0,0.0,15.0,10.0,0.0
12022,78.0,9.0,15.0,10.0,0.0
12023,61.0,2.0,60.0,12.0,0.0
12024,61.0,1.0,60.0,6.0,0.0
12025,76.0,10.0,15.0,10.0,0.0
12026,78.0,9.0,15.0,10.0,0.0
12027,76.0,9.0,15.0,10.0,0.0
12028,78.0,9.0,15.0,10.0,0.0
12029,76.0,0.0,15.0,10.0,0.0
12030,74.0,2.0,120.0,10.0,0.0
12031,86.0,0.0,120.0,0.0,0.0
12032,69.0,1.0,120.0,1.0,0.0
12033,66.0,0.0,120.0,11.0,0.0
12034,62.0,2.0,240.0,12.0,0.0
12035,78.0,0.0,120.0,1.0,0.0
12036,69.0,0.0,120.0,11.0,0.0
12037,74.0,0.0,120.0,2.0,0.0
12038,69.0,0.0,120.0,2.0,0.0
12039,62.0,2.0,120.0,4.0,0.0
12040,62.0,58.0,240.0,6.0,0.0
12041,62.0,3.0,360.0,13.0,0.0
12042,54.0,0.0,120.0,5.0,0.0
12043,50.0,117.0,120.0,3.0,0.0
12044,50.0,12.0,360.0,14.0,0.0
12045,64.0,2.0,60.0,12.0,0.0
12046,64.0,51.0,60.0,6.0,0.0
12047,74.0,2.0,60.0,10.0,0.0
12048,66.0,2.0,60.0,12.0,0.0
12049,66.0,1.0,60.0,6.0,0.0
12050,74.0,2.0,15.0,10.0,0.0
12051,69.0,2.0,15.0,12.0,0.0
12052,69.0,1.0,360.0,4.0,0.0
12053,69.0,41.0,15.0,6.0,0.0
12054,57.0,3.0,360.0,13.0,0.0
12055,69.0,0.0,360.0,5.0,0.0
12056,45.0,14.0,360.0,14.0,0.0
12057,73.0,60.0,60.0,10.0,0.0
12058,67.0,2.0,120.0,12.0,0.0
12059,67.0,51.0,120.0,6.0,0.0
12060,71.0,2.0,60.0,10.0,0.0
12061,69.0,2.0,60.0,10.0,0.0
12062,66.0,2.0,60.0,12.0,0.0
12063,66.0,61.0,60.0,6.0,0.0
12064,69.0,60.0,60.0,10.0,0.0
12065,64.0,2.0,120.0,12.0,0.0
12066,64.0,51.0,120.0,6.0,0.0
12067,71.0,2.0,60.0,10.0,0.0
12068,73.0,2.0,60.0,10.0,0.0
12069,69.0,0.0,60.0,12.0,0.0
12070,81.0,1.0,60.0,11.0,0.0
12071,69.0,1.0,60.0,6.0,0.0
12072,74.0,10.0,150.0,10.0,0.0
12073,66.0,2.0,240.0,12.0,0.0
12074,83.0,45.0,15.0,11.0,0.0
12075,69.0,2.0,300.0,4.0,0.0
12076,66.0,54.0,240.0,6.0,0.0
12077,50.0,2.0,300.0,13.0,0.0
12078,57.0,0.0,300.0,5.0,0.0
12079,38.0,1.0,300.0,14.0,0.0
12080,81.0,60.0,60.0,11.0,0.0
12081,79.0,28.0,60.0,11.0,0.0
12082,78.0,3.0,60.0,11.0,0.0
12083,76.0,10.0,15.0,10.0,0.0
12084,74.0,7.0,15.0,10.0,0.0
12085,73.0,17.0,15.0,10.0,0.0
12086,74.0,2.0,60.0,10.0,0.0
12087,79.0,43.0,15.0,11.0,0.0
12088,78.0,0.0,60.0,11.0,0.0
12089,76.0,0.0,60.0,10.0,0.0
12090,64.0,0.0,60.0,12.0,0.0
12091,76.0,1.0,60.0,11.0,0.0
12092,64.0,51.0,60.0,6.0,0.0
12093,69.0,0.0,60.0,0.0,0.0
12094,81.0,0.0,60.0,0.0,0.0
12095,78.0,2.0,60.0,10.0,0.0
12096,86.0,1.0,60.0,1.0,0.0
12097,62.0,0.0,60.0,12.0,0.0
12098,74.0,0.0,60.0,11.0,0.0
12099,74.0,0.0,60.0,2.0,0.0
12100,78.0,2.0,60.0,2.0,0.0
12101,69.0,1.0,60.0,4.0,0.0
12102,62.0,1.0,60.0,6.0,0.0
12103,62.0,10.0,60.0,3.0,0.0
12104,57.0,3.0,60.0,5.0,0.0
12105,57.0,0.0,60.0,13.0,0.0
12106,66.0,0.0,60.0,3.0,0.0
12107,45.0,0.0,60.0,14.0,0.0
12108,69.0,3.0,120.0,0.0,0.0
12109,81.0,0.0,120.0,0.0,0.0
12110,81.0,2.0,15.0,10.0,0.0
12111,79.0,5.0,60.0,11.0,0.0
12112,86.0,40.0,15.0,1.0,0.0
12113,67.0,0.0,60.0,12.0,0.0
12114,69.0,1.0,120.0,4.0,0.0
12115,76.0,0.0,60.0,2.0,0.0
12116,79.0,2.0,60.0,2.0,0.0
12117,57.0,1.0,120.0,6.0,0.0
12118,57.0,2.0,120.0,5.0,0.0
12119,64.0,27.0,60.0,3.0,0.0
12120,45.0,0.0,120.0,13.0,0.0
12121,67.0,0.0,60.0,3.0,0.0
12122,33.0,0.0,120.0,14.0,0.0
12123,79.0,0.0,120.0,10.0,0.0
12124,85.0,1.0,60.0,1.0,0.0
12125,61.0,23.0,30.0,12.0,0.0
12126,61.0,0.0,30.0,11.0,0.0
12127,83.0,0.0,60.0,1.0,0.0
12128,73.0,0.0,60.0,2.0,0.0
12129,69.0,2.0,60.0,2.0,0.0
12130,61.0,27.0,60.0,3.0,0.0
12131,57.0,0.0,60.0,3.0,0.0
12132,69.0,1.0,30.0,11.0,0.0
12133,57.0,0.0,30.0,12.0,0.0
12134,78.0,0.0,60.0,10.0,0.0
12135,81.0,0.0,60.0,0.0,0.0
12136,69.0,2.0,60.0,0.0,0.0
12137,81.0,0.0,60.0,1.0,0.0
12138,62.0,0.0,30.0,11.0,0.0
12139,59.0,23.0,30.0,12.0,0.0
12140,69.0,2.0,60.0,4.0,0.0
12141,74.0,1.0,60.0,2.0,0.0
12142,71.0,0.0,60.0,2.0,0.0
12143,57.0,1.0,60.0,6.0,0.0
12144,62.0,0.0,60.0,3.0,0.0
12145,59.0,0.0,60.0,3.0,0.0
12146,57.0,3.0,60.0,13.0,0.0
12147,57.0,3.0,60.0,5.0,0.0
12148,45.0,24.0,60.0,14.0,0.0
12149,69.0,0.0,30.0,11.0,0.0
12150,57.0,1.0,30.0,12.0,0.0
12151,81.0,0.0,60.0,0.0,0.0
12152,76.0,2.0,120.0,10.0,0.0
12153,69.0,3.0,60.0,0.0,0.0
12154,81.0,0.0,60.0,1.0,0.0
12155,61.0,23.0,30.0,12.0,0.0
12156,64.0,0.0,30.0,11.0,0.0
12157,73.0,0.0,60.0,2.0,0.0
12158,76.0,1.0,60.0,2.0,0.0
12159,69.0,2.0,60.0,4.0,0.0
12160,55.0,1.0,60.0,6.0,0.0
12161,61.0,0.0,60.0,3.0,0.0
12162,64.0,0.0,60.0,3.0,0.0
12163,55.0,3.0,60.0,13.0,0.0
12164,57.0,2.0,60.0,5.0,0.0
12165,43.0,24.0,60.0,14.0,0.0
12166,69.0,1.0,30.0,11.0,0.0
12167,57.0,0.0,30.0,12.0,0.0
12168,81.0,0.0,60.0,0.0,0.0
12169,69.0,3.0,60.0,0.0,0.0
12170,83.0,0.0,60.0,1.0,0.0
12171,74.0,0.0,60.0,1.0,0.0
12172,66.0,0.0,30.0,11.0,0.0
12173,62.0,23.0,30.0,12.0,0.0
12174,74.0,0.0,60.0,2.0,0.0
12175,78.0,1.0,60.0,2.0,0.0
12176,69.0,2.0,60.0,4.0,0.0
12177,54.0,1.0,60.0,6.0,0.0
12178,54.0,3.0,60.0,13.0,0.0
12179,57.0,0.0,60.0,5.0,0.0
12180,62.0,0.0,60.0,3.0,0.0
12181,66.0,0.0,60.0,3.0,0.0
12182,42.0,24.0,60.0,14.0,0.0
12183,69.0,0.0,30.0,11.0,0.0
12184,57.0,1.0,30.0,12.0,0.0
12185,69.0,2.0,60.0,0.0,0.0
12186,81.0,0.0,60.0,0.0,0.0
12187,81.0,0.0,60.0,10.0,0.0
12188,61.0,0.0,30.0,12.0,0.0
12189,76.0,0.0,60.0,1.0,0.0
12190,85.0,0.0,60.0,1.0,0.0
12191,67.0,23.0,30.0,11.0,0.0
12192,69.0,0.0,60.0,4.0,0.0
12193,79.0,1.0,60.0,2.0,0.0
12194,73.0,0.0,60.0,2.0,0.0
12195,52.0,1.0,60.0,6.0,0.0
12196,61.0,0.0,60.0,3.0,0.0
12197,67.0,0.0,60.0,3.0,0.0
12198,57.0,0.0,60.0,5.0,0.0
12199,52.0,3.0,60.0,13.0,0.0
12200,40.0,29.0,60.0,14.0,0.0
12201,57.0,0.0,30.0,12.0,0.0
12202,69.0,1.0,30.0,11.0,0.0
12203,74.0,2.0,120.0,10.0,0.0
12204,74.0,0.0,120.0,0.0,0.0
12205,78.0,0.0,120.0,0.0,0.0
12206,62.0,0.0,30.0,12.0,0.0
12207,86.0,0.0,60.0,1.0,0.0
12208,78.0,1.0,60.0,1.0,0.0
12209,69.0,2.0,60.0,4.0,0.0
12210,74.0,1.0,60.0,2.0,0.0
12211,78.0,0.0,60.0,2.0,0.0
12212,50.0,24.0,30.0,6.0,0.0
12213,62.0,2.0,60.0,3.0,0.0
12214,57.0,0.0,60.0,5.0,0.0
12215,66.0,0.0,60.0,3.0,0.0
12216,50.0,3.0,120.0,13.0,0.0
12217,38.0,24.0,120.0,14.0,0.0
12218,66.0,2.0,15.0,11.0,0.0
12219,66.0,0.0,30.0,12.0,0.0
12220,57.0,28.0,30.0,6.0,0.0
12221,69.0,2.0,30.0,11.0,0.0
12222,69.0,0.0,30.0,12.0,0.0
12223,69.0,2.0,60.0,4.0,0.0
12224,54.0,24.0,30.0,6.0,0.0
12225,66.0,0.0,60.0,5.0,0.0
12226,57.0,0.0,60.0,3.0,0.0
12227,54.0,0.0,60.0,3.0,0.0
12228,66.0,0.0,30.0,11.0,0.0
12229,66.0,2.0,30.0,12.0,0.0
12230,57.0,1.0,30.0,6.0,0.0
12231,69.0,0.0,30.0,11.0,0.0
12232,69.0,2.0,30.0,12.0,0.0
12233,69.0,1.0,60.0,4.0,0.0
12234,54.0,28.0,30.0,6.0,0.0
12235,57.0,0.0,60.0,3.0,0.0
12236,54.0,0.0,60.0,3.0,0.0
12237,66.0,27.0,60.0,5.0,0.0
12238,66.0,0.0,30.0,11.0,0.0
12239,66.0,1.0,30.0,12.0,0.0
12240,57.0,1.0,30.0,6.0,0.0
12241,71.0,2.0,30.0,12.0,0.0
12242,71.0,0.0,30.0,11.0,0.0
12243,71.0,1.0,60.0,4.0,0.0
12244,55.0,28.0,30.0,6.0,0.0
12245,67.0,27.0,60.0,5.0,0.0
12246,55.0,0.0,60.0,3.0,0.0
12247,59.0,0.0,60.0,3.0,0.0
12248,67.0,1.0,30.0,11.0,0.0
12249,67.0,0.0,30.0,12.0,0.0
12250,59.0,1.0,30.0,6.0,0.0
12251,69.0,0.0,30.0,12.0,0.0
12252,69.0,2.0,30.0,11.0,0.0
12253,69.0,0.0,60.0,4.0,0.0
12254,78.0,2.0,60.0,2.0,0.0
12255,54.0,24.0,30.0,6.0,0.0
12256,57.0,0.0,60.0,3.0,0.0
12257,54.0,0.0,60.0,3.0,0.0
12258,66.0,2.0,60.0,5.0,0.0
12259,66.0,0.0,30.0,12.0,0.0
12260,66.0,2.0,30.0,11.0,0.0
12261,57.0,28.0,30.0,6.0,0.0
12262,69.0,0.0,30.0,11.0,0.0
12263,69.0,2.0,30.0,12.0,0.0
12264,69.0,1.0,60.0,4.0,0.0
12265,78.0,4.0,60.0,2.0,0.0
12266,54.0,24.0,30.0,6.0,0.0
12267,54.0,0.0,60.0,3.0,0.0
12268,57.0,0.0,60.0,3.0,0.0
12269,66.0,27.0,60.0,5.0,0.0
12270,66.0,0.0,30.0,11.0,0.0
12271,66.0,1.0,30.0,12.0,0.0
12272,57.0,1.0,30.0,6.0,0.0
12273,67.0,2.0,30.0,12.0,0.0
12274,67.0,0.0,30.0,11.0,0.0
12275,67.0,0.0,60.0,4.0,0.0
12276,79.0,1.0,60.0,2.0,0.0
12277,52.0,28.0,30.0,6.0,0.0
12278,55.0,0.0,60.0,3.0,0.0
12279,52.0,27.0,60.0,3.0,0.0
12280,64.0,0.0,60.0,5.0,0.0
12281,64.0,1.0,30.0,11.0,0.0
12282,64.0,0.0,30.0,12.0,0.0
12283,55.0,1.0,30.0,6.0,0.0
12284,66.0,0.0,30.0,12.0,0.0
12285,80.0,2.0,60.0,1.0,0.0
12286,66.0,2.0,30.0,11.0,0.0
12287,66.0,2.0,60.0,4.0,0.0
12288,50.0,24.0,30.0,6.0,0.0
12289,62.0,0.0,60.0,5.0,0.0
12290,54.0,0.0,60.0,3.0,0.0
12291,50.0,2.0,60.0,3.0,0.0
12292,62.0,0.0,30.0,11.0,0.0
12293,62.0,0.0,30.0,12.0,0.0
12294,54.0,28.0,30.0,6.0,0.0
12295,66.0,0.0,30.0,11.0,0.0
12296,66.0,2.0,30.0,12.0,0.0
12297,81.0,5.0,60.0,1.0,0.0
12298,66.0,1.0,60.0,4.0,0.0
12299,50.0,23.0,30.0,6.0,0.0
12300,54.0,25.0,60.0,3.0,0.0
12301,62.0,0.0,60.0,5.0,0.0
12302,50.0,0.0,60.0,3.0,0.0
12303,62.0,0.0,30.0,11.0,0.0
12304,62.0,1.0,30.0,12.0,0.0
12305,54.0,1.0,30.0,6.0,0.0
12306,73.0,2.0,30.0,10.0,0.0
12307,67.0,0.0,30.0,11.0,0.0
12308,67.0,2.0,30.0,12.0,0.0
12309,81.0,0.0,60.0,1.0,0.0
12310,67.0,1.0,60.0,4.0,0.0
12311,52.0,26.0,30.0,6.0,0.0
12312,52.0,0.0,60.0,3.0,0.0
12313,45.0,3.0,180.0,13.0,0.0
12314,55.0,25.0,60.0,3.0,0.0
12315,64.0,0.0,60.0,5.0,0.0
12316,33.0,24.0,180.0,14.0,0.0
12317,76.0,2.0,30.0,10.0,0.0
12318,55.0,1.0,30.0,6.0,0.0
12319,79.0,2.0,30.0,10.0,0.0
12320,88.0,2.0,60.0,0.0,0.0
12321,64.0,0.0,15.0,12.0,0.0
12322,79.0,0.0,60.0,1.0,0.0
12323,64.0,1.0,15.0,11.0,0.0
12324,64.0,2.0,60.0,4.0,0.0
12325,45.0,24.0,30.0,6.0,0.0
12326,45.0,0.0,60.0,3.0,0.0
12327,57.0,0.0,60.0,5.0,0.0
12328,52.0,0.0,60.0,3.0,0.0
12329,76.0,0.0,30.0,10.0,0.0
12330,61.0,2.0,30.0,11.0,0.0
12331,61.0,0.0,30.0,12.0,0.0
12332,52.0,26.0,30.0,6.0,0.0
12333,85.0,3.0,60.0,0.0,0.0
12334,73.0,2.0,30.0,10.0,0.0
12335,64.0,2.0,30.0,11.0,0.0
12336,76.0,0.0,60.0,1.0,0.0
12337,64.0,0.0,30.0,12.0,0.0
12338,73.0,0.0,60.0,2.0,0.0
12339,69.0,0.0,60.0,2.0,0.0
12340,64.0,2.0,60.0,4.0,0.0
12341,45.0,21.0,30.0,6.0,0.0
12342,52.0,0.0,60.0,3.0,0.0
12343,45.0,0.0,60.0,3.0,0.0
12344,57.0,0.0,60.0,5.0,0.0
12345,76.0,2.0,30.0,10.0,0.0
12346,61.0,2.0,30.0,12.0,0.0
12347,61.0,0.0,30.0,11.0,0.0
12348,52.0,1.0,30.0,6.0,0.0
12349,86.0,2.0,60.0,0.0,0.0
12350,76.0,0.0,60.0,10.0,0.0
12351,66.0,0.0,30.0,12.0,0.0
12352,66.0,2.0,30.0,11.0,0.0
12353,78.0,2.0,120.0,1.0,0.0
12354,66.0,1.0,60.0,2.0,0.0
12355,74.0,0.0,60.0,2.0,0.0
12356,66.0,0.0,60.0,4.0,0.0
12357,50.0,26.0,30.0,6.0,0.0
12358,54.0,0.0,60.0,3.0,0.0
12359,62.0,0.0,60.0,5.0,0.0
12360,50.0,3.0,120.0,13.0,0.0
12361,50.0,27.0,60.0,3.0,0.0
12362,38.0,24.0,120.0,14.0,0.0
12363,62.0,0.0,30.0,11.0,0.0
12364,62.0,1.0,30.0,12.0,0.0
12365,74.0,2.0,120.0,10.0,0.0
12366,69.0,2.0,30.0,12.0,0.0
12367,69.0,0.0,30.0,11.0,0.0
12368,69.0,2.0,60.0,4.0,0.0
12369,54.0,1.0,15.0,6.0,0.0
12370,57.0,0.0,60.0,3.0,0.0
12371,54.0,0.0,60.0,3.0,0.0
12372,66.0,2.0,60.0,5.0,0.0
12373,66.0,0.0,30.0,12.0,0.0
12374,66.0,0.0,30.0,11.0,0.0
12375,57.0,1.0,30.0,6.0,0.0
12376,69.0,2.0,30.0,12.0,0.0
12377,69.0,0.0,30.0,11.0,0.0
12378,69.0,1.0,60.0,4.0,0.0
12379,54.0,26.0,30.0,6.0,0.0
12380,66.0,27.0,60.0,5.0,0.0
12381,57.0,0.0,60.0,3.0,0.0
12382,54.0,0.0,60.0,3.0,0.0
12383,66.0,1.0,30.0,12.0,0.0
12384,66.0,0.0,30.0,11.0,0.0
12385,57.0,1.0,30.0,6.0,0.0
12386,71.0,0.0,30.0,12.0,0.0
12387,71.0,2.0,30.0,11.0,0.0
12388,71.0,1.0,60.0,4.0,0.0
12389,55.0,28.0,30.0,6.0,0.0
12390,67.0,27.0,60.0,5.0,0.0
12391,55.0,0.0,60.0,3.0,0.0
12392,59.0,0.0,60.0,3.0,0.0
12393,67.0,0.0,30.0,12.0,0.0
12394,67.0,1.0,30.0,11.0,0.0
12395,59.0,1.0,30.0,6.0,0.0
12396,69.0,0.0,30.0,11.0,0.0
12397,69.0,2.0,30.0,12.0,0.0
12398,69.0,2.0,60.0,4.0,0.0
12399,78.0,0.0,60.0,2.0,0.0
12400,54.0,24.0,30.0,6.0,0.0
12401,66.0,2.0,60.0,5.0,0.0
12402,54.0,0.0,60.0,3.0,0.0
12403,57.0,0.0,60.0,3.0,0.0
12404,66.0,0.0,30.0,12.0,0.0
12405,66.0,2.0,30.0,11.0,0.0
12406,57.0,28.0,30.0,6.0,0.0
12407,69.0,2.0,30.0,12.0,0.0
12408,69.0,0.0,30.0,11.0,0.0
12409,78.0,4.0,60.0,2.0,0.0
12410,69.0,1.0,60.0,4.0,0.0
12411,54.0,24.0,30.0,6.0,0.0
12412,54.0,27.0,60.0,3.0,0.0
12413,66.0,0.0,60.0,5.0,0.0
12414,57.0,0.0,60.0,3.0,0.0
12415,66.0,1.0,30.0,11.0,0.0
12416,66.0,0.0,30.0,12.0,0.0
12417,57.0,1.0,30.0,6.0,0.0
12418,67.0,0.0,30.0,12.0,0.0
12419,67.0,2.0,30.0,11.0,0.0
12420,79.0,0.0,60.0,2.0,0.0
12421,67.0,1.0,60.0,4.0,0.0
12422,52.0,28.0,30.0,6.0,0.0
12423,64.0,0.0,60.0,5.0,0.0
12424,55.0,27.0,60.0,3.0,0.0
12425,52.0,0.0,60.0,3.0,0.0
12426,64.0,1.0,30.0,12.0,0.0
12427,64.0,0.0,30.0,11.0,0.0
12428,55.0,1.0,30.0,6.0,0.0
12429,66.0,0.0,30.0,11.0,0.0
12430,66.0,2.0,30.0,12.0,0.0
12431,80.0,0.0,60.0,1.0,0.0
12432,66.0,2.0,60.0,4.0,0.0
12433,50.0,24.0,30.0,6.0,0.0
12434,50.0,0.0,60.0,3.0,0.0
12435,62.0,0.0,60.0,5.0,0.0
12436,54.0,2.0,60.0,3.0,0.0
12437,62.0,0.0,30.0,12.0,0.0
12438,62.0,2.0,30.0,11.0,0.0
12439,54.0,28.0,30.0,6.0,0.0
12440,81.0,5.0,60.0,1.0,0.0
12441,66.0,2.0,30.0,12.0,0.0
12442,66.0,0.0,30.0,11.0,0.0
12443,66.0,1.0,60.0,4.0,0.0
12444,50.0,23.0,30.0,6.0,0.0
12445,54.0,0.0,60.0,3.0,0.0
12446,62.0,25.0,60.0,5.0,0.0
12447,50.0,0.0,60.0,3.0,0.0
12448,62.0,1.0,30.0,11.0,0.0
12449,62.0,0.0,30.0,12.0,0.0
12450,54.0,1.0,30.0,6.0,0.0
12451,73.0,2.0,30.0,10.0,0.0
12452,81.0,0.0,60.0,1.0,0.0
12453,67.0,0.0,30.0,12.0,0.0
12454,67.0,2.0,30.0,11.0,0.0
12455,67.0,1.0,60.0,4.0,0.0
12456,52.0,26.0,30.0,6.0,0.0
12457,45.0,3.0,180.0,13.0,0.0
12458,52.0,0.0,60.0,3.0,0.0
12459,55.0,0.0,60.0,3.0,0.0
12460,64.0,25.0,60.0,5.0,0.0
12461,33.0,24.0,180.0,14.0,0.0
12462,76.0,2.0,30.0,10.0,0.0
12463,64.0,0.0,30.0,11.0,0.0
12464,55.0,1.0,30.0,6.0,0.0
12465,88.0,2.0,60.0,0.0,0.0
12466,79.0,2.0,30.0,10.0,0.0
12467,64.0,1.0,15.0,12.0,0.0
12468,79.0,2.0,60.0,1.0,0.0
12469,64.0,2.0,30.0,11.0,0.0
12470,64.0,2.0,60.0,4.0,0.0
12471,45.0,24.0,30.0,6.0,0.0
12472,45.0,0.0,60.0,3.0,0.0
12473,57.0,0.0,60.0,5.0,0.0
12474,52.0,0.0,60.0,3.0,0.0
12475,76.0,0.0,30.0,10.0,0.0
12476,61.0,0.0,30.0,11.0,0.0
12477,61.0,0.0,30.0,12.0,0.0
12478,52.0,26.0,30.0,6.0,0.0
12479,73.0,2.0,30.0,10.0,0.0
12480,85.0,0.0,60.0,0.0,0.0
12481,76.0,0.0,60.0,1.0,0.0
12482,64.0,2.0,30.0,11.0,0.0
12483,64.0,0.0,30.0,12.0,0.0
12484,69.0,0.0,60.0,2.0,0.0
12485,73.0,2.0,60.0,2.0,0.0
12486,64.0,1.0,60.0,4.0,0.0
12487,45.0,21.0,30.0,6.0,0.0
12488,52.0,3.0,60.0,3.0,0.0
12489,45.0,0.0,60.0,3.0,0.0
12490,57.0,0.0,60.0,5.0,0.0
12491,76.0,2.0,30.0,10.0,0.0
12492,61.0,1.0,30.0,11.0,0.0
12493,61.0,0.0,30.0,12.0,0.0
12494,52.0,1.0,30.0,6.0,0.0
12495,74.0,2.0,720.0,10.0,0.0
12496,86.0,2.0,1440.0,0.0,0.0
12497,74.0,0.0,1440.0,1.0,0.0
12498,66.0,2.0,30.0,11.0,0.0
12499,66.0,0.0,30.0,12.0,0.0
12500,62.0,1.0,1440.0,4.0,0.0
12501,74.0,1.0,120.0,2.0,0.0
12502,66.0,0.0,120.0,2.0,0.0
12503,50.0,28.0,30.0,6.0,0.0
12504,50.0,3.0,120.0,13.0,0.0
12505,50.0,10.0,1440.0,5.0,0.0
12506,54.0,0.0,120.0,3.0,0.0
12507,50.0,0.0,120.0,3.0,0.0
12508,38.0,24.0,120.0,14.0,0.0
12509,62.0,2.0,30.0,12.0,0.0
12510,62.0,0.0,30.0,11.0,0.0
12511,54.0,28.0,30.0,6.0,0.0
12512,66.0,2.0,30.0,11.0,0.0
12513,66.0,0.0,30.0,12.0,0.0
12514,50.0,28.0,30.0,6.0,0.0
12515,62.0,0.0,30.0,12.0,0.0
12516,62.0,1.0,30.0,11.0,0.0
12517,54.0,1.0,30.0,6.0,0.0
12518,66.0,2.0,30.0,11.0,0.0
12519,66.0,0.0,30.0,12.0,0.0
12520,50.0,28.0,30.0,6.0,0.0
12521,62.0,0.0,30.0,12.0,0.0
12522,62.0,2.0,30.0,11.0,0.0
12523,54.0,28.0,30.0,6.0,0.0
12524,67.0,2.0,30.0,12.0,0.0
12525,67.0,0.0,30.0,11.0,0.0
12526,52.0,28.0,30.0,6.0,0.0
12527,64.0,2.0,30.0,11.0,0.0
12528,64.0,0.0,30.0,12.0,0.0
12529,55.0,28.0,30.0,6.0,0.0
12530,67.0,2.0,30.0,11.0,0.0
12531,67.0,0.0,30.0,12.0,0.0
12532,52.0,28.0,30.0,6.0,0.0
12533,64.0,0.0,30.0,11.0,0.0
12534,64.0,2.0,30.0,12.0,0.0
12535,55.0,28.0,30.0,6.0,0.0
12536,66.0,0.0,30.0,12.0,0.0
12537,66.0,2.0,30.0,11.0,0.0
12538,50.0,28.0,30.0,6.0,0.0
12539,62.0,2.0,30.0,11.0,0.0
12540,62.0,0.0,30.0,12.0,0.0
12541,54.0,28.0,30.0,6.0,0.0
12542,64.0,2.0,30.0,12.0,0.0
12543,64.0,0.0,30.0,11.0,0.0
12544,49.0,28.0,30.0,6.0,0.0
12545,50.0,3.0,120.0,13.0,0.0
12546,38.0,24.0,120.0,14.0,0.0
12547,61.0,2.0,30.0,12.0,0.0
12548,61.0,0.0,30.0,11.0,0.0
12549,52.0,28.0,30.0,6.0,0.0
12550,67.0,0.0,30.0,11.0,0.0
12551,67.0,2.0,30.0,12.0,0.0
12552,52.0,28.0,30.0,6.0,0.0
12553,64.0,0.0,30.0,12.0,0.0
12554,64.0,2.0,30.0,11.0,0.0
12555,55.0,1.0,30.0,6.0,0.0
12556,67.0,0.0,30.0,12.0,0.0
12557,67.0,2.0,30.0,11.0,0.0
12558,52.0,28.0,30.0,6.0,0.0
12559,64.0,0.0,30.0,11.0,0.0
12560,64.0,2.0,30.0,12.0,0.0
12561,55.0,28.0,30.0,6.0,0.0
12562,69.0,2.0,30.0,11.0,0.0
12563,69.0,0.0,30.0,12.0,0.0
12564,54.0,28.0,30.0,6.0,0.0
12565,66.0,0.0,30.0,12.0,0.0
12566,66.0,2.0,30.0,11.0,0.0
12567,57.0,28.0,30.0,6.0,0.0
12568,69.0,2.0,30.0,12.0,0.0
12569,69.0,0.0,30.0,11.0,0.0
12570,54.0,28.0,30.0,6.0,0.0
12571,66.0,0.0,30.0,11.0,0.0
12572,66.0,2.0,30.0,12.0,0.0
12573,57.0,28.0,30.0,6.0,0.0
12574,67.0,2.0,30.0,11.0,0.0
12575,67.0,0.0,30.0,12.0,0.0
12576,52.0,21.0,30.0,6.0,0.0
12577,64.0,2.0,30.0,12.0,0.0
12578,64.0,0.0,30.0,11.0,0.0
12579,55.0,33.0,30.0,6.0,0.0
12580,86.0,7.0,660.0,10.0,0.0
12581,66.0,2.0,30.0,12.0,0.0
12582,66.0,0.0,30.0,11.0,0.0
12583,50.0,28.0,30.0,6.0,0.0
12584,50.0,3.0,120.0,13.0,0.0
12585,38.0,24.0,120.0,14.0,0.0
12586,62.0,2.0,30.0,11.0,0.0
12587,62.0,0.0,30.0,12.0,0.0
12588,69.0,0.0,30.0,12.0,0.0
12589,69.0,2.0,30.0,11.0,0.0
12590,54.0,28.0,15.0,6.0,0.0
12591,66.0,2.0,30.0,12.0,0.0
12592,66.0,0.0,30.0,11.0,0.0
12593,57.0,1.0,30.0,6.0,0.0
12594,69.0,2.0,30.0,12.0,0.0
12595,69.0,0.0,30.0,11.0,0.0
12596,54.0,28.0,30.0,6.0,0.0
12597,66.0,2.0,30.0,11.0,0.0
12598,66.0,0.0,30.0,12.0,0.0
12599,57.0,28.0,30.0,6.0,0.0
12600,71.0,2.0,30.0,12.0,0.0
12601,71.0,0.0,30.0,11.0,0.0
12602,55.0,28.0,30.0,6.0,0.0
12603,67.0,2.0,30.0,12.0,0.0
12604,67.0,0.0,30.0,11.0,0.0
12605,59.0,28.0,30.0,6.0,0.0
12606,71.0,0.0,30.0,11.0,0.0
12607,71.0,2.0,30.0,12.0,0.0
12608,55.0,28.0,30.0,6.0,0.0
12609,67.0,0.0,30.0,11.0,0.0
12610,67.0,2.0,30.0,12.0,0.0
12611,59.0,28.0,30.0,6.0,0.0
12612,69.0,0.0,30.0,11.0,0.0
12613,69.0,2.0,30.0,12.0,0.0
12614,54.0,28.0,30.0,6.0,0.0
12615,66.0,2.0,30.0,12.0,0.0
12616,66.0,0.0,30.0,11.0,0.0
12617,72.0,0.0,30.0,12.0,0.0
12618,72.0,2.0,30.0,11.0,0.0
12619,57.0,28.0,15.0,6.0,0.0
12620,69.0,2.0,30.0,12.0,0.0
12621,69.0,0.0,30.0,11.0,0.0
12622,60.0,28.0,30.0,6.0,0.0
12623,72.0,2.0,30.0,11.0,0.0
12624,72.0,0.0,30.0,12.0,0.0
12625,57.0,28.0,30.0,6.0,0.0
12626,69.0,0.0,30.0,12.0,0.0
12627,69.0,2.0,30.0,11.0,0.0
12628,60.0,28.0,30.0,6.0,0.0
12629,71.0,2.0,30.0,11.0,0.0
12630,71.0,0.0,30.0,12.0,0.0
12631,55.0,28.0,30.0,6.0,0.0
12632,67.0,0.0,30.0,12.0,0.0
12633,67.0,2.0,30.0,11.0,0.0
12634,59.0,28.0,30.0,6.0,0.0
12635,74.0,0.0,30.0,12.0,0.0
12636,74.0,2.0,30.0,11.0,0.0
12637,59.0,28.0,30.0,6.0,0.0
12638,62.0,3.0,120.0,13.0,0.0
12639,50.0,24.0,120.0,14.0,0.0
12640,71.0,2.0,30.0,12.0,0.0
12641,71.0,0.0,30.0,11.0,0.0
12642,62.0,28.0,30.0,6.0,0.0
12643,74.0,0.0,30.0,12.0,0.0
12644,74.0,2.0,30.0,11.0,0.0
12645,59.0,21.0,30.0,6.0,0.0
12646,71.0,2.0,30.0,12.0,0.0
12647,71.0,0.0,30.0,11.0,0.0
12648,62.0,1.0,30.0,6.0,0.0
12649,84.0,0.0,60.0,10.0,0.0
12650,72.0,0.0,30.0,11.0,0.0
12651,72.0,2.0,30.0,12.0,0.0
12652,57.0,21.0,30.0,6.0,0.0
12653,69.0,0.0,30.0,11.0,0.0
12654,69.0,1.0,30.0,12.0,0.0
12655,60.0,1.0,30.0,6.0,0.0
12656,83.0,10.0,15.0,10.0,0.0
12657,86.0,2.0,660.0,0.0,0.0
12658,76.0,0.0,30.0,11.0,0.0
12659,76.0,2.0,30.0,12.0,0.0
12660,83.0,0.0,660.0,1.0,0.0
12661,62.0,1.0,720.0,4.0,0.0
12662,86.0,0.0,660.0,2.0,0.0
12663,60.0,28.0,30.0,6.0,0.0
12664,55.0,3.0,120.0,13.0,0.0
12665,62.0,0.0,660.0,3.0,0.0
12666,50.0,2.0,720.0,5.0,0.0
12667,59.0,0.0,660.0,3.0,0.0
12668,43.0,24.0,120.0,14.0,0.0
12669,84.0,10.0,15.0,10.0,0.0
12670,86.0,2.0,15.0,10.0,0.0
12671,84.0,2.0,90.0,10.0,0.0
12672,72.0,2.0,30.0,12.0,0.0
12673,72.0,0.0,30.0,11.0,0.0
12674,64.0,28.0,30.0,6.0,0.0
12675,76.0,0.0,30.0,11.0,0.0
12676,76.0,2.0,30.0,12.0,0.0
12677,60.0,26.0,30.0,6.0,0.0
12678,72.0,0.0,30.0,11.0,0.0
12679,72.0,2.0,30.0,12.0,0.0
12680,64.0,1.0,30.0,6.0,0.0
12681,83.0,7.0,480.0,10.0,0.0
12682,74.0,0.0,30.0,12.0,0.0
12683,74.0,2.0,30.0,11.0,0.0
12684,59.0,28.0,30.0,6.0,0.0
12685,71.0,2.0,30.0,11.0,0.0
12686,71.0,0.0,30.0,12.0,0.0
12687,62.0,28.0,30.0,6.0,0.0
12688,72.0,0.0,30.0,12.0,0.0
12689,72.0,2.0,30.0,11.0,0.0
12690,57.0,28.0,30.0,6.0,0.0
12691,69.0,0.0,30.0,12.0,0.0
12692,69.0,2.0,30.0,11.0,0.0
12693,60.0,28.0,30.0,6.0,0.0
12694,72.0,0.0,30.0,11.0,0.0
12695,72.0,2.0,30.0,12.0,0.0
12696,57.0,28.0,30.0,6.0,0.0
12697,69.0,0.0,30.0,11.0,0.0
12698,69.0,2.0,30.0,12.0,0.0
12699,60.0,28.0,30.0,6.0,0.0
12700,71.0,0.0,30.0,12.0,0.0
12701,71.0,2.0,30.0,11.0,0.0
12702,55.0,28.0,30.0,6.0,0.0
12703,67.0,2.0,30.0,12.0,0.0
12704,67.0,0.0,30.0,11.0,0.0
12705,59.0,28.0,30.0,6.0,0.0
12706,69.0,0.0,30.0,12.0,0.0
12707,69.0,2.0,30.0,11.0,0.0
12708,54.0,28.0,30.0,6.0,0.0
12709,66.0,0.0,30.0,12.0,0.0
12710,66.0,2.0,30.0,11.0,0.0
12711,57.0,28.0,30.0,6.0,0.0
12712,69.0,0.0,30.0,12.0,0.0
12713,69.0,2.0,30.0,11.0,0.0
12714,54.0,28.0,30.0,6.0,0.0
12715,66.0,0.0,30.0,12.0,0.0
12716,66.0,2.0,30.0,11.0,0.0
12717,57.0,28.0,30.0,6.0,0.0
12718,71.0,0.0,30.0,12.0,0.0
12719,71.0,2.0,30.0,11.0,0.0
12720,55.0,28.0,30.0,6.0,0.0
12721,67.0,2.0,30.0,11.0,0.0
12722,67.0,0.0,30.0,12.0,0.0
12723,59.0,28.0,30.0,6.0,0.0
12724,72.0,2.0,30.0,12.0,0.0
12725,72.0,0.0,30.0,11.0,0.0
12726,57.0,21.0,30.0,6.0,0.0
12727,55.0,3.0,120.0,13.0,0.0
12728,43.0,22.0,120.0,14.0,0.0
12729,69.0,2.0,30.0,11.0,0.0
12730,69.0,0.0,30.0,12.0,0.0
12731,60.0,26.0,30.0,6.0,0.0
12732,83.0,2.0,30.0,10.0,0.0
12733,72.0,0.0,30.0,12.0,0.0
12734,72.0,2.0,30.0,11.0,0.0
12735,57.0,26.0,30.0,6.0,0.0
12736,84.0,0.0,30.0,10.0,0.0
12737,69.0,0.0,30.0,12.0,0.0
12738,69.0,1.0,30.0,11.0,0.0
12739,60.0,1.0,30.0,6.0,0.0
12740,83.0,0.0,60.0,0.0,0.0
12741,86.0,2.0,30.0,10.0,0.0
12742,71.0,0.0,30.0,12.0,0.0
12743,79.0,0.0,60.0,1.0,0.0
12744,71.0,2.0,30.0,11.0,0.0
12745,83.0,1.0,15.0,2.0,0.0
12746,79.0,0.0,60.0,2.0,0.0
12747,55.0,21.0,30.0,6.0,0.0
12748,55.0,27.0,60.0,3.0,0.0
12749,59.0,0.0,60.0,3.0,0.0
12750,83.0,2.0,30.0,10.0,0.0
12751,67.0,1.0,30.0,11.0,0.0
12752,67.0,0.0,30.0,12.0,0.0
12753,59.0,1.0,30.0,6.0,0.0
12754,81.0,2.0,120.0,10.0,0.0
12755,81.0,2.0,60.0,0.0,0.0
12756,69.0,0.0,30.0,11.0,0.0
12757,69.0,2.0,30.0,12.0,0.0
12758,78.0,0.0,60.0,1.0,0.0
12759,74.0,1.0,15.0,1.0,0.0
12760,62.0,0.0,720.0,4.0,0.0
12761,81.0,2.0,120.0,2.0,0.0
12762,78.0,0.0,120.0,2.0,0.0
12763,54.0,26.0,30.0,6.0,0.0
12764,57.0,0.0,120.0,3.0,0.0
12765,54.0,0.0,120.0,3.0,0.0
12766,50.0,0.0,720.0,5.0,0.0
12767,50.0,3.0,120.0,13.0,0.0
12768,38.0,24.0,120.0,14.0,0.0
12769,66.0,0.0,30.0,11.0,0.0
12770,66.0,2.0,30.0,12.0,0.0
12771,57.0,28.0,30.0,6.0,0.0
12772,86.0,2.0,660.0,0.0,0.0
12773,69.0,0.0,30.0,11.0,0.0
12774,69.0,2.0,30.0,12.0,0.0
12775,74.0,1.0,660.0,1.0,0.0
12776,54.0,24.0,30.0,6.0,0.0
12777,66.0,0.0,30.0,11.0,0.0
12778,66.0,2.0,30.0,12.0,0.0
12779,57.0,1.0,30.0,6.0,0.0
12780,74.0,7.0,60.0,10.0,0.0
12781,69.0,0.0,30.0,12.0,0.0
12782,69.0,2.0,30.0,11.0,0.0
12783,81.0,0.0,60.0,2.0,0.0
12784,78.0,1.0,60.0,2.0,0.0
12785,54.0,21.0,30.0,6.0,0.0
12786,54.0,0.0,60.0,3.0,0.0
12787,57.0,27.0,60.0,3.0,0.0
12788,66.0,1.0,30.0,12.0,0.0
12789,66.0,0.0,30.0,11.0,0.0
12790,57.0,1.0,30.0,6.0,0.0
12791,86.0,7.0,480.0,10.0,0.0
12792,71.0,0.0,30.0,11.0,0.0
12793,71.0,2.0,30.0,12.0,0.0
12794,83.0,1.0,120.0,2.0,0.0
12795,79.0,0.0,120.0,2.0,0.0
12796,55.0,28.0,30.0,6.0,0.0
12797,55.0,27.0,120.0,3.0,0.0
12798,59.0,0.0,120.0,3.0,0.0
12799,67.0,2.0,30.0,11.0,0.0
12800,67.0,0.0,30.0,12.0,0.0
12801,59.0,28.0,30.0,6.0,0.0
12802,71.0,2.0,30.0,12.0,0.0
12803,71.0,0.0,30.0,11.0,0.0
12804,55.0,28.0,30.0,6.0,0.0
12805,67.0,1.0,30.0,11.0,0.0
12806,67.0,0.0,30.0,12.0,0.0
12807,59.0,1.0,30.0,6.0,0.0
12808,69.0,2.0,30.0,12.0,0.0
12809,69.0,0.0,30.0,11.0,0.0
12810,78.0,0.0,60.0,2.0,0.0
12811,54.0,28.0,30.0,6.0,0.0
12812,57.0,27.0,60.0,3.0,0.0
12813,54.0,0.0,60.0,3.0,0.0
12814,66.0,0.0,30.0,11.0,0.0
12815,66.0,1.0,30.0,12.0,0.0
12816,57.0,1.0,30.0,6.0,0.0
12817,72.0,2.0,30.0,12.0,0.0
12818,72.0,0.0,30.0,11.0,0.0
12819,84.0,1.0,120.0,2.0,0.0
12820,81.0,1.0,15.0,2.0,0.0
12821,57.0,28.0,30.0,6.0,0.0
12822,57.0,27.0,120.0,3.0,0.0
12823,60.0,0.0,120.0,3.0,0.0
12824,69.0,0.0,30.0,11.0,0.0
12825,69.0,2.0,30.0,12.0,0.0
12826,60.0,28.0,30.0,6.0,0.0
12827,72.0,0.0,30.0,11.0,0.0
12828,72.0,2.0,30.0,12.0,0.0
12829,57.0,28.0,30.0,6.0,0.0
12830,69.0,1.0,30.0,11.0,0.0
12831,69.0,0.0,30.0,12.0,0.0
12832,60.0,1.0,30.0,6.0,0.0
12833,71.0,0.0,30.0,11.0,0.0
12834,71.0,2.0,30.0,12.0,0.0
12835,79.0,1.0,60.0,2.0,0.0
12836,55.0,28.0,30.0,6.0,0.0
12837,55.0,27.0,60.0,3.0,0.0
12838,59.0,0.0,60.0,3.0,0.0
12839,67.0,1.0,30.0,12.0,0.0
12840,67.0,0.0,30.0,11.0,0.0
12841,74.0,2.0,30.0,11.0,0.0
12842,74.0,0.0,30.0,12.0,0.0
12843,83.0,0.0,15.0,2.0,0.0
12844,86.0,1.0,120.0,2.0,0.0
12845,59.0,1.0,15.0,6.0,0.0
12846,62.0,0.0,120.0,3.0,0.0
12847,62.0,0.0,120.0,13.0,0.0
12848,59.0,3.0,120.0,3.0,0.0
12849,50.0,24.0,120.0,14.0,0.0
12850,71.0,0.0,30.0,12.0,0.0
12851,71.0,2.0,30.0,11.0,0.0
12852,62.0,28.0,30.0,6.0,0.0
12853,74.0,0.0,30.0,12.0,0.0
12854,74.0,2.0,30.0,11.0,0.0
12855,59.0,21.0,30.0,6.0,0.0
12856,71.0,1.0,30.0,12.0,0.0
12857,71.0,0.0,30.0,11.0,0.0
12858,62.0,1.0,30.0,6.0,0.0
12859,84.0,0.0,60.0,10.0,0.0
12860,72.0,2.0,30.0,12.0,0.0
12861,72.0,0.0,30.0,11.0,0.0
12862,81.0,0.0,60.0,2.0,0.0
12863,84.0,1.0,60.0,2.0,0.0
12864,57.0,21.0,30.0,6.0,0.0
12865,57.0,0.0,60.0,3.0,0.0
12866,60.0,10.0,60.0,3.0,0.0
12867,69.0,0.0,30.0,12.0,0.0
12868,69.0,0.0,30.0,11.0,0.0
12869,60.0,1.0,30.0,6.0,0.0
12870,86.0,0.0,660.0,0.0,0.0
12871,83.0,10.0,15.0,10.0,0.0
12872,83.0,0.0,660.0,1.0,0.0
12873,76.0,0.0,30.0,11.0,0.0
12874,76.0,2.0,30.0,12.0,0.0
12875,84.0,0.0,120.0,2.0,0.0
12876,62.0,1.0,720.0,4.0,0.0
12877,88.0,1.0,120.0,2.0,0.0
12878,60.0,28.0,30.0,6.0,0.0
12879,55.0,0.0,120.0,13.0,0.0
12880,64.0,0.0,120.0,3.0,0.0
12881,50.0,2.0,720.0,5.0,0.0
12882,60.0,3.0,120.0,3.0,0.0
12883,43.0,24.0,120.0,14.0,0.0
12884,84.0,10.0,15.0,10.0,0.0
12885,86.0,2.0,15.0,10.0,0.0
12886,84.0,2.0,90.0,10.0,0.0
12887,72.0,2.0,30.0,11.0,0.0
12888,72.0,0.0,30.0,12.0,0.0
12889,64.0,28.0,30.0,6.0,0.0
12890,76.0,0.0,30.0,12.0,0.0
12891,76.0,2.0,30.0,11.0,0.0
12892,60.0,26.0,30.0,6.0,0.0
12893,72.0,0.0,30.0,12.0,0.0
12894,72.0,1.0,30.0,11.0,0.0
12895,64.0,1.0,30.0,6.0,0.0
12896,83.0,7.0,480.0,10.0,0.0
12897,74.0,0.0,30.0,12.0,0.0
12898,74.0,2.0,30.0,11.0,0.0
12899,83.0,1.0,60.0,2.0,0.0
12900,86.0,0.0,60.0,2.0,0.0
12901,59.0,28.0,30.0,6.0,0.0
12902,59.0,27.0,60.0,3.0,0.0
12903,62.0,0.0,60.0,3.0,0.0
12904,71.0,1.0,30.0,11.0,0.0
12905,71.0,0.0,30.0,12.0,0.0
12906,62.0,1.0,30.0,6.0,0.0
12907,72.0,0.0,30.0,11.0,0.0
12908,72.0,2.0,30.0,12.0,0.0
12909,81.0,0.0,120.0,2.0,0.0
12910,84.0,1.0,120.0,2.0,0.0
12911,57.0,28.0,30.0,6.0,0.0
12912,60.0,0.0,120.0,3.0,0.0
12913,57.0,27.0,120.0,3.0,0.0
12914,69.0,2.0,30.0,12.0,0.0
12915,69.0,0.0,30.0,11.0,0.0
12916,60.0,28.0,30.0,6.0,0.0
12917,72.0,2.0,30.0,12.0,0.0
12918,72.0,0.0,30.0,11.0,0.0
12919,57.0,28.0,30.0,6.0,0.0
12920,69.0,0.0,30.0,12.0,0.0
12921,69.0,1.0,30.0,11.0,0.0
12922,60.0,1.0,30.0,6.0,0.0
12923,71.0,2.0,30.0,12.0,0.0
12924,71.0,0.0,30.0,11.0,0.0
12925,79.0,0.0,60.0,2.0,0.0
12926,83.0,1.0,60.0,2.0,0.0
12927,55.0,28.0,30.0,6.0,0.0
12928,55.0,27.0,60.0,3.0,0.0
12929,59.0,0.0,60.0,3.0,0.0
12930,67.0,1.0,30.0,12.0,0.0
12931,67.0,0.0,30.0,11.0,0.0
12932,59.0,1.0,30.0,6.0,0.0
12933,69.0,0.0,30.0,11.0,0.0
12934,69.0,2.0,30.0,12.0,0.0
12935,78.0,0.0,120.0,2.0,0.0
12936,81.0,1.0,120.0,2.0,0.0
12937,54.0,28.0,30.0,6.0,0.0
12938,54.0,27.0,120.0,3.0,0.0
12939,57.0,0.0,120.0,3.0,0.0
12940,66.0,2.0,30.0,11.0,0.0
12941,66.0,0.0,30.0,12.0,0.0
12942,57.0,28.0,30.0,6.0,0.0
12943,69.0,2.0,30.0,12.0,0.0
12944,69.0,0.0,30.0,11.0,0.0
12945,54.0,28.0,30.0,6.0,0.0
12946,66.0,1.0,30.0,12.0,0.0
12947,66.0,0.0,30.0,11.0,0.0
12948,57.0,1.0,30.0,6.0,0.0
12949,71.0,0.0,30.0,12.0,0.0
12950,71.0,2.0,30.0,11.0,0.0
12951,83.0,1.0,60.0,2.0,0.0
12952,79.0,0.0,60.0,2.0,0.0
12953,55.0,28.0,30.0,6.0,0.0
12954,59.0,27.0,60.0,3.0,0.0
12955,55.0,0.0,60.0,3.0,0.0
12956,67.0,0.0,30.0,12.0,0.0
12957,67.0,1.0,30.0,11.0,0.0
12958,59.0,1.0,30.0,6.0,0.0
12959,72.0,2.0,30.0,12.0,0.0
12960,72.0,0.0,30.0,11.0,0.0
12961,84.0,1.0,120.0,2.0,0.0
12962,81.0,0.0,120.0,2.0,0.0
12963,57.0,21.0,30.0,6.0,0.0
12964,60.0,0.0,120.0,3.0,0.0
12965,57.0,3.0,120.0,3.0,0.0
12966,55.0,0.0,120.0,13.0,0.0
12967,43.0,22.0,120.0,14.0,0.0
12968,69.0,2.0,30.0,12.0,0.0
12969,69.0,0.0,30.0,11.0,0.0
12970,60.0,26.0,30.0,6.0,0.0
12971,83.0,2.0,30.0,10.0,0.0
12972,72.0,0.0,30.0,11.0,0.0
12973,72.0,2.0,30.0,12.0,0.0
12974,57.0,26.0,30.0,6.0,0.0
12975,84.0,2.0,30.0,10.0,0.0
12976,69.0,0.0,30.0,11.0,0.0
12977,69.0,1.0,30.0,12.0,0.0
12978,60.0,1.0,30.0,6.0,0.0
12979,83.0,0.0,60.0,0.0,0.0
12980,86.0,2.0,30.0,10.0,0.0
12981,79.0,1.0,60.0,1.0,0.0
12982,71.0,2.0,30.0,11.0,0.0
12983,71.0,0.0,30.0,12.0,0.0
12984,83.0,0.0,60.0,2.0,0.0
12985,79.0,0.0,60.0,2.0,0.0
12986,55.0,21.0,30.0,6.0,0.0
12987,55.0,0.0,60.0,3.0,0.0
12988,59.0,0.0,60.0,3.0,0.0
12989,83.0,2.0,30.0,10.0,0.0
12990,67.0,0.0,30.0,12.0,0.0
12991,67.0,0.0,30.0,11.0,0.0
12992,59.0,1.0,30.0,6.0,0.0
12993,81.0,2.0,120.0,10.0,0.0
12994,81.0,0.0,120.0,0.0,0.0
12995,74.0,118.0,15.0,1.0,0.0
12996,66.0,1.0,120.0,12.0,0.0
12997,78.0,0.0,120.0,1.0,0.0
12998,69.0,0.0,120.0,11.0,0.0
12999,78.0,2.0,120.0,2.0,0.0
13000,81.0,0.0,120.0,2.0,0.0
13001,62.0,0.0,120.0,4.0,0.0
13002,57.0,0.0,120.0,3.0,0.0
13003,50.0,3.0,120.0,5.0,0.0
13004,50.0,0.0,120.0,13.0,0.0
13005,54.0,0.0,120.0,3.0,0.0
13006,38.0,292.0,120.0,14.0,0.0
13007,81.0,180.0,120.0,0.0,0.0
13008,81.0,120.0,120.0,0.0,0.0
13009,81.0,60.0,60.0,0.0,0.0
13010,83.0,60.0,60.0,0.0,0.0
13011,81.0,120.0,60.0,0.0,0.0
13012,83.0,60.0,60.0,0.0,0.0
13013,81.0,120.0,60.0,0.0,0.0
13014,83.0,60.0,60.0,0.0,0.0
13015,81.0,30.0,60.0,0.0,0.0
13016,83.0,30.0,30.0,0.0,0.0
13017,81.0,30.0,30.0,0.0,0.0
13018,83.0,30.0,30.0,0.0,0.0
13019,81.0,30.0,30.0,0.0,0.0
13020,83.0,30.0,30.0,0.0,0.0
13021,81.0,30.0,30.0,0.0,0.0
13022,83.0,7.0,30.0,0.0,0.0
13023,90.0,17.0,30.0,1.0,0.0
13024,81.0,15.0,30.0,0.0,0.0
13025,90.0,6.0,15.0,1.0,0.0
13026,83.0,15.0,15.0,0.0,0.0
13027,90.0,3.0,60.0,1.0,0.0
13028,78.0,2.0,30.0,2.0,0.0
13029,81.0,13.0,15.0,0.0,0.0
13030,83.0,12.0,15.0,0.0,0.0
13031,81.0,12.0,15.0,0.0,0.0
13032,83.0,12.0,15.0,0.0,0.0
13033,74.0,5.0,30.0,2.0,0.0
13034,81.0,12.0,15.0,0.0,0.0
13035,83.0,7.0,15.0,0.0,0.0
13036,81.0,12.0,15.0,0.0,0.0
13037,83.0,12.0,15.0,0.0,0.0
13038,81.0,12.0,15.0,0.0,0.0
13039,83.0,12.0,15.0,0.0,0.0
13040,81.0,12.0,15.0,0.0,0.0
13041,83.0,12.0,15.0,0.0,0.0
13042,81.0,10.0,15.0,0.0,0.0
13043,83.0,10.0,15.0,0.0,0.0
13044,81.0,10.0,15.0,0.0,0.0
13045,83.0,10.0,15.0,0.0,0.0
13046,81.0,10.0,15.0,0.0,0.0
13047,83.0,10.0,15.0,0.0,0.0
13048,81.0,10.0,15.0,0.0,0.0
13049,83.0,10.0,15.0,0.0,0.0
13050,81.0,10.0,15.0,0.0,0.0
13051,83.0,10.0,15.0,0.0,0.0
13052,81.0,10.0,15.0,0.0,0.0
13053,83.0,10.0,15.0,0.0,0.0
13054,81.0,10.0,15.0,0.0,0.0
13055,83.0,10.0,15.0,0.0,0.0
13056,90.0,3.0,30.0,1.0,0.0
13057,81.0,10.0,15.0,0.0,0.0
13058,83.0,7.0,15.0,0.0,0.0
13059,81.0,10.0,15.0,0.0,0.0
13060,83.0,4.0,15.0,0.0,0.0
13061,90.0,6.0,15.0,1.0,0.0
13062,81.0,10.0,15.0,0.0,0.0
13063,83.0,10.0,15.0,0.0,0.0
13064,90.0,3.0,60.0,1.0,0.0
13065,78.0,7.0,30.0,2.0,0.0
13066,81.0,10.0,15.0,0.0,0.0
13067,83.0,10.0,15.0,0.0,0.0
13068,81.0,3.0,15.0,0.0,0.0
13069,83.0,7.0,15.0,0.0,0.0
13070,81.0,10.0,15.0,0.0,0.0
13071,83.0,10.0,15.0,0.0,0.0
13072,74.0,7.0,30.0,2.0,0.0
13073,81.0,10.0,15.0,0.0,0.0
13074,83.0,10.0,15.0,0.0,0.0
13075,81.0,3.0,15.0,0.0,0.0
13076,83.0,10.0,15.0,0.0,0.0
13077,81.0,10.0,15.0,0.0,0.0
13078,83.0,10.0,15.0,0.0,0.0
13079,81.0,10.0,15.0,0.0,0.0
13080,83.0,10.0,15.0,0.0,0.0
13081,81.0,10.0,15.0,0.0,0.0
13082,83.0,10.0,15.0,0.0,0.0
13083,81.0,10.0,15.0,0.0,0.0
13084,83.0,10.0,15.0,0.0,0.0
13085,81.0,10.0,15.0,0.0,0.0
13086,83.0,10.0,15.0,0.0,0.0
13087,81.0,10.0,15.0,0.0,0.0
13088,83.0,10.0,15.0,0.0,0.0
13089,81.0,10.0,15.0,0.0,0.0
13090,83.0,10.0,15.0,0.0,0.0
13091,81.0,10.0,15.0,0.0,0.0
13092,83.0,10.0,15.0,0.0,0.0
13093,81.0,10.0,15.0,0.0,0.0
13094,83.0,10.0,15.0,0.0,0.0
13095,81.0,10.0,15.0,0.0,0.0
13096,83.0,10.0,15.0,0.0,0.0
13097,90.0,3.0,30.0,1.0,0.0
13098,81.0,10.0,15.0,0.0,0.0
13099,83.0,7.0,15.0,0.0,0.0
13100,81.0,10.0,15.0,0.0,0.0
13101,83.0,4.0,15.0,0.0,0.0
13102,90.0,6.0,15.0,1.0,0.0
13103,81.0,10.0,15.0,0.0,0.0
13104,83.0,10.0,15.0,0.0,0.0
13105,90.0,3.0,60.0,1.0,0.0
13106,78.0,7.0,30.0,2.0,0.0
13107,81.0,10.0,15.0,0.0,0.0
13108,83.0,10.0,15.0,0.0,0.0
13109,81.0,3.0,15.0,0.0,0.0
13110,83.0,7.0,15.0,0.0,0.0
13111,81.0,10.0,15.0,0.0,0.0
13112,83.0,10.0,15.0,0.0,0.0
13113,74.0,7.0,30.0,2.0,0.0
13114,81.0,10.0,15.0,0.0,0.0
13115,83.0,10.0,15.0,0.0,0.0
13116,81.0,3.0,15.0,0.0,0.0
13117,83.0,10.0,15.0,0.0,0.0
13118,81.0,10.0,15.0,0.0,0.0
13119,83.0,10.0,15.0,0.0,0.0
13120,90.0,3.0,30.0,1.0,0.0
13121,81.0,10.0,15.0,0.0,0.0
13122,83.0,7.0,15.0,0.0,0.0
13123,81.0,10.0,15.0,0.0,0.0
13124,83.0,4.0,15.0,0.0,0.0
13125,90.0,6.0,15.0,1.0,0.0
13126,81.0,10.0,15.0,0.0,0.0
13127,83.0,10.0,15.0,0.0,0.0
13128,90.0,3.0,60.0,1.0,0.0
13129,78.0,14.0,30.0,2.0,0.0
13130,81.0,23.0,15.0,0.0,0.0
13131,80.0,35.0,30.0,0.0,0.0
13132,81.0,3.0,30.0,0.0,0.0
13133,74.0,77.0,30.0,2.0,0.0
13134,74.0,20.0,60.0,10.0,0.0
13135,74.0,45.0,15.0,10.0,0.0
13136,55.0,1.0,360.0,12.0,0.0
13137,67.0,0.0,360.0,11.0,0.0
13138,64.0,0.0,360.0,11.0,0.0
13139,64.0,2.0,360.0,4.0,0.0
13140,45.0,0.0,360.0,13.0,0.0
13141,57.0,3.0,360.0,5.0,0.0
13142,33.0,2.0,360.0,14.0,0.0
13143,73.0,60.0,60.0,10.0,0.0
13144,71.0,55.0,60.0,10.0,0.0
13145,69.0,65.0,60.0,10.0,0.0
13146,69.0,60.0,60.0,10.0,0.0
13147,71.0,55.0,60.0,10.0,0.0
13148,73.0,2.0,60.0,10.0,0.0
13149,69.0,0.0,60.0,3.0,0.0
13150,57.0,60.0,60.0,3.0,0.0
13151,74.0,2.0,90.0,10.0,0.0
13152,62.0,0.0,90.0,11.0,0.0
13153,54.0,1.0,90.0,12.0,0.0
13154,66.0,0.0,90.0,11.0,0.0
13155,62.0,2.0,90.0,4.0,0.0
13156,54.0,3.0,90.0,5.0,0.0
13157,62.0,0.0,60.0,3.0,0.0
13158,50.0,0.0,90.0,13.0,0.0
13159,66.0,25.0,60.0,3.0,0.0
13160,38.0,142.0,90.0,14.0,0.0
13161,81.0,180.0,120.0,0.0,0.0
13162,81.0,120.0,120.0,0.0,0.0
13163,81.0,60.0,60.0,0.0,0.0
13164,83.0,60.0,60.0,0.0,0.0
13165,81.0,120.0,60.0,0.0,0.0
13166,83.0,60.0,60.0,0.0,0.0
13167,81.0,120.0,60.0,0.0,0.0
13168,83.0,60.0,60.0,0.0,0.0
13169,81.0,30.0,60.0,0.0,0.0
13170,83.0,30.0,30.0,0.0,0.0
13171,81.0,30.0,30.0,0.0,0.0
13172,83.0,30.0,30.0,0.0,0.0
13173,81.0,30.0,30.0,0.0,0.0
13174,83.0,30.0,30.0,0.0,0.0
13175,81.0,30.0,30.0,0.0,0.0
13176,83.0,30.0,30.0,0.0,0.0
13177,81.0,30.0,30.0,0.0,0.0
13178,83.0,30.0,30.0,0.0,0.0
13179,81.0,30.0,30.0,0.0,0.0
13180,83.0,30.0,30.0,0.0,0.0
13181,81.0,30.0,30.0,0.0,0.0
13182,83.0,7.0,30.0,0.0,0.0
13183,90.0,17.0,30.0,1.0,0.0
13184,81.0,15.0,30.0,0.0,0.0
13185,90.0,6.0,15.0,1.0,0.0
13186,83.0,15.0,15.0,0.0,0.0
13187,90.0,3.0,60.0,1.0,0.0
13188,78.0,2.0,30.0,2.0,0.0
13189,81.0,13.0,15.0,0.0,0.0
13190,83.0,12.0,15.0,0.0,0.0
13191,81.0,12.0,15.0,0.0,0.0
13192,83.0,12.0,15.0,0.0,0.0
13193,74.0,5.0,30.0,2.0,0.0
13194,81.0,12.0,15.0,0.0,0.0
13195,83.0,7.0,15.0,0.0,0.0
13196,81.0,12.0,15.0,0.0,0.0
13197,83.0,12.0,15.0,0.0,0.0
13198,81.0,12.0,15.0,0.0,0.0
13199,83.0,12.0,15.0,0.0,0.0
13200,81.0,12.0,15.0,0.0,0.0
13201,83.0,12.0,15.0,0.0,0.0
13202,81.0,10.0,15.0,0.0,0.0
13203,83.0,10.0,15.0,0.0,0.0
13204,81.0,10.0,15.0,0.0,0.0
13205,83.0,10.0,15.0,0.0,0.0
13206,81.0,10.0,15.0,0.0,0.0
13207,83.0,10.0,15.0,0.0,0.0
13208,81.0,10.0,15.0,0.0,0.0
13209,83.0,10.0,15.0,0.0,0.0
13210,81.0,10.0,15.0,0.0,0.0
13211,83.0,10.0,15.0,0.0,0.0
13212,81.0,10.0,15.0,0.0,0.0
13213,83.0,10.0,15.0,0.0,0.0
13214,81.0,10.0,15.0,0.0,0.0
13215,83.0,10.0,15.0,0.0,0.0
13216,90.0,3.0,30.0,1.0,0.0
13217,81.0,10.0,15.0,0.0,0.0
13218,83.0,7.0,15.0,0.0,0.0
13219,81.0,10.0,15.0,0.0,0.0
13220,83.0,4.0,15.0,0.0,0.0
13221,90.0,6.0,15.0,1.0,0.0
13222,81.0,10.0,15.0,0.0,0.0
13223,83.0,10.0,15.0,0.0,0.0
13224,90.0,3.0,60.0,1.0,0.0
13225,78.0,7.0,30.0,2.0,0.0
13226,81.0,10.0,15.0,0.0,0.0
13227,83.0,10.0,15.0,0.0,0.0
13228,81.0,3.0,15.0,0.0,0.0
13229,83.0,7.0,15.0,0.0,0.0
13230,81.0,10.0,15.0,0.0,0.0
13231,83.0,10.0,15.0,0.0,0.0
13232,74.0,7.0,30.0,2.0,0.0
13233,81.0,10.0,15.0,0.0,0.0
13234,83.0,10.0,15.0,0.0,0.0
13235,81.0,3.0,15.0,0.0,0.0
13236,83.0,10.0,15.0,0.0,0.0
13237,81.0,10.0,15.0,0.0,0.0
13238,83.0,10.0,15.0,0.0,0.0
13239,81.0,10.0,15.0,0.0,0.0
13240,83.0,10.0,15.0,0.0,0.0
13241,81.0,10.0,15.0,0.0,0.0
13242,83.0,10.0,15.0,0.0,0.0
13243,81.0,10.0,15.0,0.0,0.0
13244,83.0,10.0,15.0,0.0,0.0
13245,81.0,10.0,15.0,0.0,0.0
13246,83.0,10.0,15.0,0.0,0.0
13247,81.0,10.0,15.0,0.0,0.0
13248,83.0,10.0,15.0,0.0,0.0
13249,81.0,10.0,15.0,0.0,0.0
13250,83.0,10.0,15.0,0.0,0.0
13251,81.0,10.0,15.0,0.0,0.0
13252,83.0,10.0,15.0,0.0,0.0
13253,81.0,10.0,15.0,0.0,0.0
13254,83.0,10.0,15.0,0.0,0.0
13255,81.0,10.0,15.0,0.0,0.0
13256,83.0,10.0,15.0,0.0,0.0
13257,90.0,3.0,30.0,1.0,0.0
13258,81.0,10.0,15.0,0.0,0.0
13259,83.0,7.0,15.0,0.0,0.0
13260,81.0,10.0,15.0,0.0,0.0
13261,83.0,4.0,15.0,0.0,0.0
13262,90.0,6.0,15.0,1.0,0.0
13263,81.0,10.0,15.0,0.0,0.0
13264,83.0,10.0,15.0,0.0,0.0
13265,90.0,3.0,60.0,1.0,0.0
13266,78.0,7.0,30.0,2.0,0.0
13267,81.0,10.0,15.0,0.0,0.0
13268,83.0,10.0,15.0,0.0,0.0
13269,81.0,3.0,15.0,0.0,0.0
13270,83.0,7.0,15.0,0.0,0.0
13271,81.0,10.0,15.0,0.0,0.0
13272,83.0,10.0,15.0,0.0,0.0
13273,74.0,7.0,30.0,2.0,0.0
13274,81.0,10.0,15.0,0.0,0.0
13275,83.0,10.0,15.0,0.0,0.0
13276,81.0,3.0,15.0,0.0,0.0
13277,83.0,10.0,15.0,0.0,0.0
13278,81.0,10.0,15.0,0.0,0.0
13279,83.0,10.0,15.0,0.0,0.0
13280,90.0,3.0,30.0,1.0,0.0
13281,81.0,10.0,15.0,0.0,0.0
13282,83.0,7.0,15.0,0.0,0.0
13283,81.0,10.0,15.0,0.0,0.0
13284,83.0,4.0,15.0,0.0,0.0
13285,90.0,6.0,15.0,1.0,0.0
13286,81.0,10.0,15.0,0.0,0.0
13287,83.0,10.0,15.0,0.0,0.0
13288,90.0,3.0,60.0,1.0,0.0
13289,78.0,14.0,30.0,2.0,0.0
13290,81.0,23.0,15.0,0.0,0.0
13291,80.0,43.0,30.0,0.0,0.0
13292,81.0,70.0,60.0,0.0,0.0
13293,74.0,2.0,30.0,2.0,0.0
13294,74.0,20.0,60.0,10.0,0.0
13295,74.0,45.0,15.0,10.0,0.0
13296,67.0,1.0,360.0,11.0,0.0
13297,64.0,0.0,360.0,11.0,0.0
13298,55.0,0.0,360.0,12.0,0.0
13299,64.0,2.0,360.0,4.0,0.0
13300,57.0,0.0,360.0,5.0,0.0
13301,45.0,3.0,360.0,13.0,0.0
13302,33.0,62.0,360.0,14.0,0.0
13303,73.0,60.0,60.0,10.0,0.0
13304,71.0,55.0,60.0,10.0,0.0
13305,69.0,65.0,60.0,10.0,0.0
13306,69.0,60.0,60.0,10.0,0.0
13307,71.0,55.0,60.0,10.0,0.0
13308,73.0,2.0,60.0,10.0,0.0
13309,67.0,0.0,60.0,3.0,0.0
13310,74.0,2.0,180.0,10.0,0.0
13311,54.0,0.0,180.0,12.0,0.0
13312,66.0,1.0,180.0,11.0,0.0
13313,62.0,0.0,180.0,11.0,0.0
13314,62.0,2.0,180.0,4.0,0.0
13315,47.0,0.0,180.0,13.0,0.0
13316,66.0,60.0,60.0,3.0,0.0
13317,54.0,3.0,180.0,5.0,0.0
13318,35.0,12.0,180.0,14.0,0.0
13319,64.0,55.0,60.0,3.0,0.0
13320,62.0,0.0,60.0,3.0,0.0
13321,64.0,45.0,15.0,3.0,0.0
13322,62.0,60.0,60.0,3.0,0.0
13323,61.0,53.0,60.0,3.0,0.0
13324,83.0,7.0,60.0,2.0,0.0
13325,59.0,58.0,60.0,3.0,0.0
13326,76.0,2.0,180.0,10.0,0.0
13327,67.0,0.0,180.0,12.0,0.0
13328,71.0,3.0,180.0,11.0,0.0
13329,83.0,60.0,60.0,2.0,0.0
13330,55.0,3.0,180.0,13.0,0.0
13331,43.0,10.0,180.0,14.0,0.0
13332,81.0,55.0,60.0,2.0,0.0
13333,79.0,2.0,60.0,2.0,0.0
13334,81.0,45.0,15.0,2.0,0.0
13335,79.0,60.0,60.0,2.0,0.0
13336,78.0,52.0,60.0,2.0,0.0
13337,91.0,3.0,60.0,0.0,0.0
13338,76.0,62.0,60.0,2.0,0.0
13339,91.0,60.0,60.0,0.0,0.0
13340,73.0,0.0,360.0,10.0,0.0
13341,67.0,0.0,360.0,11.0,0.0
13342,64.0,0.0,360.0,11.0,0.0
13343,57.0,0.0,360.0,12.0,0.0
13344,57.0,0.0,360.0,13.0,0.0
13345,45.0,117.0,360.0,14.0,0.0
13346,90.0,55.0,60.0,0.0,0.0
13347,88.0,2.0,60.0,0.0,0.0
13348,79.0,0.0,60.0,1.0,0.0
13349,76.0,1.0,60.0,1.0,0.0
13350,67.0,2.0,60.0,4.0,0.0
13351,64.0,15.0,60.0,5.0,0.0
13352,90.0,45.0,15.0,0.0,0.0
13353,76.0,1.0,60.0,1.0,0.0
13354,79.0,0.0,60.0,1.0,0.0
13355,67.0,2.0,60.0,4.0,0.0
13356,64.0,55.0,60.0,5.0,0.0
13357,88.0,2.0,60.0,0.0,0.0
13358,86.0,2.0,60.0,0.0,0.0
13359,74.0,0.0,60.0,1.0,0.0
13360,78.0,1.0,60.0,1.0,0.0
13361,66.0,2.0,60.0,4.0,0.0
13362,62.0,50.0,60.0,5.0,0.0
13363,85.0,0.0,60.0,0.0,0.0
13364,81.0,2.0,60.0,0.0,0.0
13365,73.0,1.0,60.0,1.0,0.0
13366,76.0,0.0,60.0,1.0,0.0
13367,69.0,2.0,60.0,2.0,0.0
13368,73.0,0.0,60.0,2.0,0.0
13369,64.0,0.0,60.0,4.0,0.0
13370,45.0,0.0,60.0,3.0,0.0
13371,57.0,0.0,60.0,3.0,0.0
13372,57.0,3.0,60.0,5.0,0.0
13373,74.0,2.0,120.0,10.0,0.0
13374,86.0,0.0,480.0,0.0,0.0
13375,81.0,0.0,480.0,0.0,0.0
13376,62.0,0.0,120.0,11.0,0.0
13377,57.0,3.0,120.0,12.0,0.0
13378,74.0,0.0,480.0,1.0,0.0
13379,78.0,0.0,480.0,1.0,0.0
13380,66.0,0.0,120.0,11.0,0.0
13381,69.0,0.0,480.0,2.0,0.0
13382,74.0,0.0,480.0,2.0,0.0
13383,62.0,2.0,480.0,4.0,0.0
13384,57.0,0.0,480.0,3.0,0.0
13385,50.0,3.0,480.0,3.0,0.0
13386,54.0,0.0,480.0,5.0,0.0
13387,50.0,3.0,120.0,13.0,0.0
13388,38.0,352.0,120.0,14.0,0.0
13389,66.0,2.0,120.0,10.0,0.0
13390,62.0,1.0,120.0,11.0,0.0
13391,54.0,0.0,120.0,12.0,0.0
13392,57.0,0.0,120.0,12.0,0.0
13393,50.0,0.0,120.0,13.0,0.0
13394,38.0,172.0,120.0,14.0,0.0
13395,81.0,2.0,120.0,0.0,0.0
13396,69.0,0.0,120.0,0.0,0.0
13397,66.0,0.0,120.0,10.0,0.0
13398,54.0,0.0,120.0,12.0,0.0
13399,74.0,1.0,120.0,1.0,0.0
13400,78.0,0.0,120.0,1.0,0.0
13401,62.0,0.0,120.0,11.0,0.0
13402,57.0,0.0,120.0,12.0,0.0
13403,66.0,0.0,120.0,2.0,0.0
13404,69.0,0.0,120.0,2.0,0.0
13405,66.0,2.0,120.0,4.0,0.0
13406,50.0,0.0,120.0,3.0,0.0
13407,50.0,0.0,120.0,13.0,0.0
13408,62.0,3.0,120.0,5.0,0.0
13409,38.0,172.0,120.0,14.0,0.0
13410,78.0,2.0,120.0,0.0,0.0
13411,69.0,0.0,120.0,0.0,0.0
13412,66.0,0.0,120.0,10.0,0.0
13413,54.0,0.0,120.0,12.0,0.0
13414,57.0,1.0,120.0,12.0,0.0
13415,74.0,0.0,120.0,1.0,0.0
13416,62.0,0.0,120.0,11.0,0.0
13417,62.0,2.0,120.0,4.0,0.0
13418,69.0,0.0,120.0,2.0,0.0
13419,66.0,0.0,120.0,2.0,0.0
13420,50.0,0.0,120.0,13.0,0.0
13421,54.0,0.0,120.0,5.0,0.0
13422,50.0,3.0,120.0,3.0,0.0
13423,38.0,240.0,120.0,14.0,0.0
