,note,step,duration,channel,velocity
0,81.0,0.0,570.0,7.0,0.0
1,81.0,0.0,570.0,0.0,0.0
2,69.0,0.0,570.0,2.0,0.0
3,57.0,0.0,570.0,4.0,0.0
4,81.0,0.0,570.0,2.0,0.0
5,81.0,0.0,570.0,3.0,0.0
6,69.0,0.0,570.0,3.0,0.0
7,33.0,336.0,570.0,14.0,0.0
8,45.0,0.0,570.0,4.0,0.0
9,69.0,0.0,570.0,7.0,0.0
10,69.0,0.0,570.0,11.0,0.0
11,69.0,0.0,570.0,5.0,0.0
12,69.0,0.0,570.0,10.0,0.0
13,69.0,0.0,570.0,0.0,0.0
14,45.0,0.0,570.0,13.0,0.0
15,57.0,0.0,570.0,5.0,0.0
16,57.0,0.0,570.0,12.0,0.0
17,69.0,0.0,570.0,6.0,0.0
18,60.0,0.0,180.0,11.0,0.0
19,60.0,0.0,180.0,10.0,0.0
20,45.0,0.0,180.0,13.0,0.0
21,57.0,0.0,180.0,12.0,0.0
22,52.0,0.0,180.0,12.0,0.0
23,33.0,240.0,180.0,14.0,0.0
24,33.0,0.0,180.0,14.0,0.0
25,60.0,0.0,180.0,11.0,0.0
26,60.0,0.0,180.0,10.0,0.0
27,45.0,276.0,180.0,13.0,0.0
28,52.0,0.0,180.0,12.0,0.0
29,57.0,0.0,180.0,12.0,0.0
30,52.0,0.0,40.0,12.0,0.0
31,57.0,0.0,40.0,12.0,0.0
32,45.0,0.0,40.0,14.0,0.0
33,60.0,0.0,40.0,11.0,0.0
34,33.0,204.0,40.0,14.0,0.0
35,60.0,0.0,40.0,10.0,0.0
36,45.0,0.0,40.0,13.0,0.0
37,43.0,0.0,180.0,13.0,0.0
38,59.0,0.0,180.0,11.0,0.0
39,31.0,0.0,180.0,14.0,0.0
40,55.0,0.0,180.0,12.0,0.0
41,62.0,240.0,180.0,10.0,0.0
42,43.0,0.0,180.0,14.0,0.0
43,60.0,0.0,180.0,11.0,0.0
44,55.0,0.0,180.0,12.0,0.0
45,48.0,0.0,180.0,13.0,0.0
46,36.0,0.0,180.0,14.0,0.0
47,64.0,276.0,180.0,10.0,0.0
48,52.0,204.0,40.0,12.0,0.0
49,64.0,0.0,40.0,10.0,0.0
50,64.0,0.0,40.0,11.0,0.0
51,48.0,0.0,40.0,13.0,0.0
52,36.0,0.0,40.0,14.0,0.0
53,35.0,0.0,180.0,14.0,0.0
54,66.0,0.0,180.0,10.0,0.0
55,63.0,240.0,180.0,11.0,0.0
56,59.0,0.0,180.0,12.0,0.0
57,47.0,0.0,180.0,13.0,0.0
58,35.0,0.0,180.0,14.0,0.0
59,59.0,0.0,180.0,12.0,0.0
60,67.0,0.0,180.0,10.0,0.0
61,64.0,0.0,180.0,11.0,0.0
62,47.0,276.0,180.0,13.0,0.0
63,63.0,0.0,40.0,10.0,0.0
64,47.0,0.0,40.0,14.0,0.0
65,54.0,0.0,40.0,12.0,0.0
66,59.0,0.0,40.0,11.0,0.0
67,59.0,108.0,40.0,13.0,0.0
68,52.0,0.0,90.0,12.0,0.0
69,59.0,384.0,90.0,11.0,0.0
70,64.0,0.0,90.0,10.0,0.0
71,40.0,0.0,90.0,14.0,0.0
72,52.0,0.0,90.0,13.0,0.0
73,76.0,120.0,120.0,2.0,0.0
74,75.0,120.0,120.0,2.0,0.0
75,84.0,96.0,120.0,2.0,0.0
76,83.0,144.0,90.0,2.0,0.0
77,81.0,0.0,420.0,2.0,0.0
78,72.0,120.0,120.0,3.0,0.0
79,71.0,120.0,120.0,3.0,0.0
80,78.0,48.0,180.0,3.0,0.0
81,64.0,72.0,120.0,4.0,0.0
82,63.0,120.0,120.0,4.0,0.0
83,78.0,0.0,120.0,3.0,0.0
84,81.0,0.0,120.0,2.0,0.0
85,71.0,240.0,15.0,4.0,0.0
86,63.0,0.0,15.0,4.0,0.0
87,78.0,0.0,240.0,3.0,0.0
88,81.0,0.0,240.0,2.0,0.0
89,79.0,0.0,90.0,2.0,0.0
90,76.0,0.0,90.0,3.0,0.0
91,64.0,0.0,90.0,4.0,0.0
92,64.0,120.0,120.0,10.0,0.0
93,63.0,120.0,120.0,10.0,0.0
94,72.0,120.0,120.0,10.0,0.0
95,71.0,120.0,120.0,10.0,0.0
96,69.0,0.0,480.0,10.0,0.0
97,60.0,120.0,120.0,11.0,0.0
98,52.0,0.0,480.0,13.0,0.0
99,59.0,240.0,120.0,11.0,0.0
100,40.0,0.0,480.0,14.0,0.0
101,59.0,0.0,330.0,4.0,0.0
102,65.0,0.0,240.0,4.0,0.0
103,62.0,0.0,360.0,11.0,0.0
104,65.0,96.0,240.0,12.0,0.0
105,64.0,24.0,90.0,4.0,0.0
106,64.0,0.0,120.0,12.0,0.0
107,68.0,576.0,120.0,10.0,0.0
108,57.0,0.0,570.0,4.0,0.0
109,57.0,0.0,570.0,5.0,0.0
110,57.0,0.0,570.0,12.0,0.0
111,93.0,0.0,570.0,0.0,0.0
112,69.0,0.0,570.0,11.0,0.0
113,81.0,0.0,570.0,3.0,0.0
114,69.0,0.0,570.0,3.0,0.0
115,69.0,0.0,570.0,6.0,0.0
116,69.0,0.0,570.0,10.0,0.0
117,45.0,0.0,570.0,13.0,0.0
118,81.0,0.0,570.0,0.0,0.0
119,69.0,0.0,570.0,2.0,0.0
120,81.0,0.0,570.0,2.0,0.0
121,33.0,0.0,570.0,14.0,0.0
122,45.0,336.0,570.0,4.0,0.0
123,69.0,0.0,570.0,7.0,0.0
124,81.0,0.0,570.0,7.0,0.0
125,69.0,0.0,570.0,5.0,0.0
126,64.0,0.0,180.0,5.0,0.0
127,81.0,0.0,180.0,2.0,0.0
128,52.0,0.0,180.0,12.0,0.0
129,45.0,0.0,180.0,13.0,0.0
130,45.0,0.0,180.0,4.0,0.0
131,57.0,0.0,180.0,4.0,0.0
132,60.0,0.0,180.0,10.0,0.0
133,52.0,0.0,180.0,5.0,0.0
134,69.0,0.0,180.0,7.0,0.0
135,72.0,0.0,180.0,3.0,0.0
136,60.0,240.0,180.0,11.0,0.0
137,69.0,0.0,180.0,3.0,0.0
138,84.0,0.0,180.0,0.0,0.0
139,81.0,0.0,180.0,0.0,0.0
140,69.0,0.0,180.0,6.0,0.0
141,84.0,0.0,180.0,2.0,0.0
142,33.0,0.0,180.0,14.0,0.0
143,64.0,0.0,180.0,5.0,0.0
144,52.0,276.0,180.0,5.0,0.0
145,84.0,0.0,180.0,2.0,0.0
146,81.0,0.0,180.0,2.0,0.0
147,45.0,0.0,180.0,4.0,0.0
148,60.0,0.0,180.0,11.0,0.0
149,69.0,0.0,180.0,7.0,0.0
150,69.0,0.0,180.0,3.0,0.0
151,52.0,0.0,180.0,12.0,0.0
152,69.0,0.0,180.0,6.0,0.0
153,33.0,0.0,180.0,14.0,0.0
154,81.0,0.0,180.0,0.0,0.0
155,84.0,0.0,180.0,0.0,0.0
156,60.0,0.0,180.0,10.0,0.0
157,57.0,0.0,180.0,4.0,0.0
158,45.0,0.0,180.0,13.0,0.0
159,72.0,0.0,180.0,3.0,0.0
160,60.0,0.0,40.0,10.0,0.0
161,84.0,0.0,40.0,0.0,0.0
162,69.0,0.0,40.0,3.0,0.0
163,72.0,0.0,40.0,3.0,0.0
164,81.0,0.0,40.0,0.0,0.0
165,45.0,0.0,40.0,14.0,0.0
166,81.0,0.0,40.0,2.0,0.0
167,84.0,0.0,40.0,2.0,0.0
168,57.0,0.0,40.0,13.0,0.0
169,52.0,0.0,40.0,12.0,0.0
170,52.0,0.0,40.0,5.0,0.0
171,45.0,0.0,40.0,13.0,0.0
172,64.0,0.0,40.0,5.0,0.0
173,60.0,0.0,40.0,11.0,0.0
174,57.0,0.0,40.0,4.0,0.0
175,69.0,204.0,40.0,6.0,0.0
176,33.0,0.0,40.0,14.0,0.0
177,45.0,0.0,40.0,4.0,0.0
178,43.0,0.0,180.0,13.0,0.0
179,67.0,0.0,180.0,6.0,0.0
180,55.0,0.0,180.0,4.0,0.0
181,43.0,0.0,180.0,4.0,0.0
182,43.0,0.0,180.0,14.0,0.0
183,31.0,0.0,180.0,14.0,0.0
184,55.0,0.0,180.0,12.0,0.0
185,83.0,0.0,180.0,0.0,0.0
186,86.0,0.0,180.0,0.0,0.0
187,71.0,0.0,180.0,5.0,0.0
188,55.0,0.0,180.0,6.0,0.0
189,55.0,240.0,180.0,13.0,0.0
190,59.0,0.0,180.0,11.0,0.0
191,86.0,0.0,180.0,2.0,0.0
192,83.0,0.0,180.0,2.0,0.0
193,74.0,0.0,180.0,3.0,0.0
194,71.0,0.0,180.0,3.0,0.0
195,62.0,0.0,180.0,10.0,0.0
196,84.0,0.0,180.0,2.0,0.0
197,88.0,0.0,180.0,0.0,0.0
198,60.0,0.0,180.0,11.0,0.0
199,64.0,0.0,180.0,5.0,0.0
200,72.0,528.0,180.0,3.0,0.0
201,52.0,0.0,180.0,5.0,0.0
202,64.0,0.0,180.0,10.0,0.0
203,67.0,0.0,180.0,6.0,0.0
204,88.0,0.0,180.0,2.0,0.0
205,76.0,0.0,180.0,3.0,0.0
206,55.0,0.0,180.0,6.0,0.0
207,48.0,0.0,180.0,13.0,0.0
208,36.0,0.0,180.0,14.0,0.0
209,76.0,0.0,180.0,7.0,0.0
210,60.0,0.0,180.0,4.0,0.0
211,48.0,0.0,180.0,4.0,0.0
212,55.0,0.0,180.0,12.0,0.0
213,84.0,0.0,180.0,0.0,0.0
214,77.0,120.0,120.0,3.0,0.0
215,76.0,120.0,120.0,3.0,0.0
216,65.0,120.0,120.0,4.0,0.0
217,86.0,0.0,120.0,3.0,0.0
218,84.0,0.0,120.0,3.0,0.0
219,64.0,96.0,120.0,4.0,0.0
220,77.0,24.0,210.0,2.0,0.0
221,70.0,0.0,120.0,3.0,0.0
222,82.0,0.0,120.0,3.0,0.0
223,65.0,24.0,90.0,4.0,0.0
224,62.0,96.0,120.0,4.0,0.0
225,65.0,0.0,120.0,4.0,0.0
226,69.0,120.0,120.0,3.0,0.0
227,60.0,24.0,330.0,4.0,0.0
228,81.0,0.0,120.0,3.0,0.0
229,76.0,0.0,120.0,3.0,0.0
230,79.0,96.0,120.0,3.0,0.0
231,70.0,0.0,120.0,4.0,0.0
232,91.0,0.0,120.0,0.0,0.0
233,89.0,0.0,120.0,0.0,0.0
234,69.0,0.0,120.0,4.0,0.0
235,72.0,120.0,120.0,3.0,0.0
236,77.0,0.0,120.0,3.0,0.0
237,70.0,0.0,120.0,3.0,0.0
238,76.0,0.0,120.0,3.0,0.0
239,88.0,120.0,120.0,0.0,0.0
240,82.0,0.0,120.0,2.0,0.0
241,67.0,0.0,120.0,4.0,0.0
242,60.0,0.0,120.0,4.0,0.0
243,62.0,0.0,120.0,4.0,0.0
244,77.0,0.0,120.0,3.0,0.0
245,69.0,0.0,120.0,3.0,0.0
246,89.0,0.0,120.0,0.0,0.0
247,81.0,96.0,120.0,2.0,0.0
248,65.0,0.0,15.0,4.0,0.0
249,86.0,0.0,90.0,0.0,0.0
250,74.0,0.0,120.0,3.0,0.0
251,67.0,240.0,120.0,3.0,0.0
252,74.0,0.0,90.0,2.0,0.0
253,59.0,0.0,90.0,4.0,0.0
254,65.0,0.0,240.0,4.0,0.0
255,60.0,48.0,420.0,4.0,0.0
256,72.0,0.0,240.0,3.0,0.0
257,69.0,0.0,240.0,3.0,0.0
258,84.0,192.0,240.0,0.0,0.0
259,81.0,0.0,120.0,2.0,0.0
260,64.0,96.0,240.0,4.0,0.0
261,82.0,72.0,360.0,0.0,0.0
262,67.0,0.0,180.0,3.0,0.0
263,79.0,0.0,360.0,2.0,0.0
264,70.0,24.0,330.0,3.0,0.0
265,60.0,0.0,240.0,4.0,0.0
266,64.0,0.0,240.0,3.0,0.0
267,48.0,0.0,180.0,13.0,0.0
268,58.0,0.0,180.0,12.0,0.0
269,55.0,0.0,180.0,12.0,0.0
270,60.0,0.0,180.0,11.0,0.0
271,36.0,48.0,180.0,14.0,0.0
272,64.0,0.0,180.0,10.0,0.0
273,67.0,0.0,120.0,4.0,0.0
274,70.0,24.0,120.0,4.0,0.0
275,76.0,0.0,120.0,2.0,0.0
276,67.0,0.0,120.0,3.0,0.0
277,79.0,0.0,120.0,0.0,0.0
278,77.0,0.0,90.0,0.0,0.0
279,77.0,0.0,90.0,2.0,0.0
280,65.0,0.0,90.0,4.0,0.0
281,69.0,0.0,90.0,4.0,0.0
282,41.0,0.0,90.0,14.0,0.0
283,65.0,18.0,90.0,10.0,0.0
284,65.0,0.0,90.0,3.0,0.0
285,60.0,0.0,20.0,11.0,0.0
286,57.0,30.0,20.0,12.0,0.0
287,53.0,0.0,90.0,13.0,0.0
288,65.0,0.0,20.0,11.0,0.0
289,60.0,0.0,20.0,12.0,0.0
290,57.0,30.0,20.0,12.0,0.0
291,65.0,0.0,20.0,11.0,0.0
292,57.0,12.0,20.0,12.0,0.0
293,60.0,0.0,20.0,12.0,0.0
294,65.0,30.0,20.0,11.0,0.0
295,57.0,0.0,20.0,12.0,0.0
296,60.0,0.0,20.0,12.0,0.0
297,84.0,24.0,120.0,10.0,0.0
298,60.0,0.0,20.0,12.0,0.0
299,65.0,30.0,20.0,11.0,0.0
300,57.0,0.0,20.0,12.0,0.0
301,60.0,30.0,20.0,12.0,0.0
302,65.0,0.0,20.0,11.0,0.0
303,57.0,0.0,20.0,12.0,0.0
304,60.0,0.0,20.0,12.0,0.0
305,65.0,30.0,20.0,11.0,0.0
306,57.0,0.0,20.0,12.0,0.0
307,57.0,6.0,20.0,12.0,0.0
308,60.0,0.0,20.0,12.0,0.0
309,65.0,0.0,20.0,11.0,0.0
310,60.0,0.0,20.0,12.0,0.0
311,57.0,30.0,20.0,12.0,0.0
312,69.0,0.0,180.0,6.0,0.0
313,86.0,24.0,60.0,10.0,0.0
314,65.0,0.0,20.0,11.0,0.0
315,57.0,12.0,180.0,5.0,0.0
316,60.0,0.0,20.0,12.0,0.0
317,65.0,6.0,20.0,11.0,0.0
318,57.0,0.0,20.0,12.0,0.0
319,84.0,24.0,60.0,10.0,0.0
320,65.0,0.0,20.0,11.0,0.0
321,57.0,30.0,20.0,12.0,0.0
322,60.0,0.0,20.0,12.0,0.0
323,57.0,0.0,20.0,12.0,0.0
324,65.0,0.0,20.0,11.0,0.0
325,60.0,6.0,20.0,12.0,0.0
326,82.0,12.0,60.0,10.0,0.0
327,65.0,0.0,20.0,11.0,0.0
328,60.0,0.0,20.0,12.0,0.0
329,57.0,30.0,20.0,12.0,0.0
330,57.0,6.0,20.0,12.0,0.0
331,65.0,0.0,20.0,11.0,0.0
332,60.0,0.0,20.0,12.0,0.0
333,60.0,0.0,20.0,12.0,0.0
334,57.0,24.0,20.0,12.0,0.0
335,65.0,0.0,20.0,11.0,0.0
336,81.0,6.0,40.0,10.0,0.0
337,60.0,0.0,20.0,12.0,0.0
338,57.0,0.0,20.0,12.0,0.0
339,65.0,30.0,20.0,11.0,0.0
340,65.0,0.0,20.0,11.0,0.0
341,69.0,12.0,180.0,6.0,0.0
342,60.0,0.0,20.0,12.0,0.0
343,57.0,30.0,20.0,12.0,0.0
344,57.0,0.0,180.0,5.0,0.0
345,81.0,18.0,90.0,10.0,0.0
346,65.0,0.0,20.0,11.0,0.0
347,57.0,30.0,20.0,12.0,0.0
348,60.0,0.0,20.0,12.0,0.0
349,57.0,0.0,20.0,12.0,0.0
350,65.0,12.0,20.0,11.0,0.0
351,60.0,0.0,20.0,12.0,0.0
352,57.0,30.0,20.0,12.0,0.0
353,60.0,0.0,20.0,12.0,0.0
354,65.0,0.0,20.0,11.0,0.0
355,57.0,0.0,20.0,12.0,0.0
356,60.0,0.0,20.0,12.0,0.0
357,65.0,30.0,20.0,11.0,0.0
358,57.0,0.0,20.0,12.0,0.0
359,65.0,0.0,20.0,11.0,0.0
360,60.0,18.0,20.0,12.0,0.0
361,57.0,0.0,20.0,12.0,0.0
362,53.0,6.0,40.0,13.0,0.0
363,65.0,24.0,20.0,11.0,0.0
364,41.0,0.0,40.0,14.0,0.0
365,60.0,0.0,20.0,12.0,0.0
366,57.0,0.0,20.0,12.0,0.0
367,60.0,0.0,20.0,12.0,0.0
368,65.0,30.0,20.0,11.0,0.0
369,41.0,0.0,180.0,14.0,0.0
370,65.0,30.0,20.0,11.0,0.0
371,53.0,12.0,180.0,13.0,0.0
372,60.0,0.0,20.0,12.0,0.0
373,57.0,0.0,20.0,12.0,0.0
374,65.0,30.0,20.0,11.0,0.0
375,60.0,0.0,20.0,12.0,0.0
376,57.0,0.0,20.0,12.0,0.0
377,65.0,0.0,20.0,11.0,0.0
378,60.0,0.0,20.0,12.0,0.0
379,57.0,30.0,20.0,12.0,0.0
380,65.0,0.0,20.0,11.0,0.0
381,60.0,0.0,20.0,12.0,0.0
382,57.0,30.0,20.0,12.0,0.0
383,84.0,12.0,90.0,10.0,0.0
384,60.0,0.0,20.0,12.0,0.0
385,57.0,30.0,20.0,12.0,0.0
386,65.0,0.0,20.0,11.0,0.0
387,81.0,6.0,120.0,3.0,0.0
388,60.0,0.0,20.0,12.0,0.0
389,57.0,18.0,20.0,12.0,0.0
390,65.0,0.0,20.0,11.0,0.0
391,65.0,0.0,20.0,11.0,0.0
392,57.0,12.0,20.0,12.0,0.0
393,60.0,0.0,20.0,12.0,0.0
394,60.0,30.0,20.0,12.0,0.0
395,57.0,0.0,20.0,12.0,0.0
396,65.0,0.0,20.0,11.0,0.0
397,86.0,6.0,40.0,10.0,0.0
398,57.0,0.0,180.0,5.0,0.0
399,65.0,0.0,180.0,4.0,0.0
400,82.0,0.0,60.0,3.0,0.0
401,53.0,0.0,180.0,13.0,0.0
402,60.0,0.0,180.0,4.0,0.0
403,57.0,0.0,20.0,12.0,0.0
404,60.0,0.0,20.0,12.0,0.0
405,65.0,24.0,20.0,11.0,0.0
406,41.0,12.0,180.0,14.0,0.0
407,69.0,0.0,180.0,6.0,0.0
408,65.0,0.0,20.0,11.0,0.0
409,60.0,30.0,20.0,12.0,0.0
410,57.0,0.0,20.0,12.0,0.0
411,65.0,0.0,20.0,11.0,0.0
412,84.0,6.0,40.0,10.0,0.0
413,60.0,0.0,20.0,12.0,0.0
414,57.0,24.0,20.0,12.0,0.0
415,81.0,30.0,60.0,3.0,0.0
416,65.0,0.0,20.0,11.0,0.0
417,57.0,0.0,20.0,12.0,0.0
418,60.0,0.0,20.0,12.0,0.0
419,82.0,6.0,40.0,10.0,0.0
420,57.0,0.0,20.0,12.0,0.0
421,79.0,0.0,60.0,3.0,0.0
422,65.0,24.0,20.0,11.0,0.0
423,60.0,0.0,20.0,12.0,0.0
424,65.0,0.0,20.0,11.0,0.0
425,57.0,18.0,20.0,12.0,0.0
426,60.0,0.0,20.0,12.0,0.0
427,77.0,0.0,60.0,3.0,0.0
428,60.0,0.0,20.0,12.0,0.0
429,57.0,24.0,20.0,12.0,0.0
430,65.0,0.0,20.0,11.0,0.0
431,81.0,6.0,40.0,10.0,0.0
432,57.0,0.0,20.0,12.0,0.0
433,65.0,30.0,20.0,11.0,0.0
434,60.0,0.0,20.0,12.0,0.0
435,57.0,0.0,20.0,12.0,0.0
436,69.0,0.0,180.0,6.0,0.0
437,65.0,0.0,180.0,4.0,0.0
438,60.0,12.0,180.0,4.0,0.0
439,57.0,0.0,180.0,5.0,0.0
440,77.0,18.0,90.0,3.0,0.0
441,65.0,30.0,20.0,11.0,0.0
442,60.0,0.0,20.0,12.0,0.0
443,81.0,0.0,90.0,10.0,0.0
444,57.0,0.0,20.0,12.0,0.0
445,60.0,30.0,20.0,12.0,0.0
446,65.0,0.0,20.0,11.0,0.0
447,65.0,0.0,20.0,11.0,0.0
448,60.0,12.0,20.0,12.0,0.0
449,57.0,0.0,20.0,12.0,0.0
450,65.0,30.0,20.0,11.0,0.0
451,57.0,0.0,20.0,12.0,0.0
452,60.0,0.0,20.0,12.0,0.0
453,57.0,0.0,20.0,12.0,0.0
454,65.0,30.0,20.0,11.0,0.0
455,60.0,0.0,20.0,12.0,0.0
456,57.0,0.0,20.0,12.0,0.0
457,60.0,0.0,20.0,12.0,0.0
458,65.0,18.0,20.0,11.0,0.0
459,41.0,0.0,40.0,14.0,0.0
460,57.0,0.0,20.0,12.0,0.0
461,60.0,24.0,20.0,12.0,0.0
462,53.0,6.0,40.0,13.0,0.0
463,65.0,0.0,20.0,11.0,0.0
464,65.0,30.0,20.0,11.0,0.0
465,57.0,0.0,20.0,12.0,0.0
466,60.0,0.0,20.0,12.0,0.0
467,58.0,0.0,20.0,12.0,0.0
468,61.0,30.0,20.0,12.0,0.0
469,52.0,12.0,180.0,13.0,0.0
470,40.0,0.0,180.0,14.0,0.0
471,67.0,0.0,20.0,11.0,0.0
472,61.0,30.0,20.0,12.0,0.0
473,58.0,0.0,20.0,12.0,0.0
474,67.0,0.0,20.0,11.0,0.0
475,67.0,0.0,20.0,11.0,0.0
476,61.0,30.0,20.0,12.0,0.0
477,58.0,0.0,20.0,12.0,0.0
478,58.0,0.0,20.0,12.0,0.0
479,61.0,0.0,20.0,12.0,0.0
480,67.0,30.0,20.0,11.0,0.0
481,91.0,0.0,90.0,0.0,0.0
482,61.0,0.0,20.0,12.0,0.0
483,58.0,30.0,20.0,12.0,0.0
484,79.0,18.0,90.0,10.0,0.0
485,67.0,0.0,20.0,11.0,0.0
486,67.0,0.0,20.0,11.0,0.0
487,58.0,18.0,20.0,12.0,0.0
488,61.0,0.0,20.0,12.0,0.0
489,67.0,12.0,20.0,11.0,0.0
490,61.0,0.0,20.0,12.0,0.0
491,58.0,0.0,20.0,12.0,0.0
492,67.0,0.0,20.0,11.0,0.0
493,61.0,30.0,20.0,12.0,0.0
494,58.0,0.0,20.0,12.0,0.0
495,58.0,24.0,20.0,12.0,0.0
496,61.0,0.0,20.0,12.0,0.0
497,64.0,0.0,180.0,7.0,0.0
498,67.0,0.0,180.0,6.0,0.0
499,52.0,0.0,180.0,13.0,0.0
500,70.0,12.0,180.0,3.0,0.0
501,67.0,0.0,180.0,4.0,0.0
502,58.0,0.0,180.0,4.0,0.0
503,67.0,0.0,20.0,11.0,0.0
504,40.0,0.0,180.0,14.0,0.0
505,93.0,6.0,40.0,0.0,0.0
506,81.0,0.0,40.0,10.0,0.0
507,67.0,30.0,20.0,11.0,0.0
508,61.0,0.0,20.0,12.0,0.0
509,58.0,0.0,20.0,12.0,0.0
510,79.0,0.0,40.0,10.0,0.0
511,61.0,0.0,20.0,12.0,0.0
512,67.0,24.0,20.0,11.0,0.0
513,58.0,0.0,20.0,12.0,0.0
514,91.0,6.0,40.0,0.0,0.0
515,58.0,0.0,20.0,12.0,0.0
516,61.0,30.0,20.0,12.0,0.0
517,67.0,0.0,20.0,11.0,0.0
518,77.0,6.0,40.0,10.0,0.0
519,89.0,0.0,40.0,0.0,0.0
520,67.0,0.0,20.0,11.0,0.0
521,58.0,24.0,20.0,12.0,0.0
522,61.0,0.0,20.0,12.0,0.0
523,61.0,18.0,20.0,12.0,0.0
524,67.0,0.0,20.0,11.0,0.0
525,58.0,0.0,20.0,12.0,0.0
526,58.0,24.0,20.0,12.0,0.0
527,61.0,0.0,20.0,12.0,0.0
528,67.0,0.0,20.0,11.0,0.0
529,76.0,6.0,40.0,10.0,0.0
530,88.0,0.0,40.0,0.0,0.0
531,61.0,0.0,20.0,12.0,0.0
532,67.0,30.0,20.0,11.0,0.0
533,58.0,0.0,20.0,12.0,0.0
534,76.0,0.0,90.0,10.0,0.0
535,58.0,0.0,20.0,12.0,0.0
536,61.0,0.0,20.0,12.0,0.0
537,67.0,12.0,180.0,6.0,0.0
538,67.0,0.0,180.0,4.0,0.0
539,58.0,0.0,180.0,4.0,0.0
540,64.0,0.0,180.0,7.0,0.0
541,88.0,18.0,90.0,0.0,0.0
542,67.0,30.0,20.0,11.0,0.0
543,70.0,0.0,180.0,3.0,0.0
544,58.0,0.0,20.0,12.0,0.0
545,67.0,30.0,20.0,11.0,0.0
546,61.0,0.0,20.0,12.0,0.0
547,58.0,12.0,20.0,12.0,0.0
548,61.0,0.0,20.0,12.0,0.0
549,67.0,0.0,20.0,11.0,0.0
550,61.0,0.0,20.0,12.0,0.0
551,67.0,0.0,20.0,11.0,0.0
552,58.0,30.0,20.0,12.0,0.0
553,67.0,0.0,20.0,11.0,0.0
554,61.0,30.0,20.0,12.0,0.0
555,58.0,0.0,20.0,12.0,0.0
556,61.0,0.0,20.0,12.0,0.0
557,58.0,18.0,20.0,12.0,0.0
558,67.0,0.0,20.0,11.0,0.0
559,61.0,0.0,20.0,12.0,0.0
560,40.0,0.0,40.0,14.0,0.0
561,67.0,24.0,20.0,11.0,0.0
562,52.0,6.0,40.0,13.0,0.0
563,58.0,0.0,20.0,12.0,0.0
564,67.0,30.0,20.0,11.0,0.0
565,58.0,0.0,20.0,12.0,0.0
566,61.0,0.0,20.0,12.0,0.0
567,67.0,0.0,20.0,11.0,0.0
568,58.0,30.0,20.0,12.0,0.0
569,49.0,12.0,180.0,13.0,0.0
570,64.0,0.0,20.0,12.0,0.0
571,37.0,0.0,180.0,14.0,0.0
572,58.0,0.0,20.0,12.0,0.0
573,64.0,30.0,20.0,12.0,0.0
574,67.0,0.0,20.0,11.0,0.0
575,67.0,0.0,20.0,11.0,0.0
576,64.0,30.0,20.0,12.0,0.0
577,58.0,0.0,20.0,12.0,0.0
578,64.0,0.0,20.0,12.0,0.0
579,67.0,30.0,20.0,11.0,0.0
580,58.0,0.0,20.0,12.0,0.0
581,91.0,0.0,90.0,0.0,0.0
582,67.0,0.0,20.0,11.0,0.0
583,58.0,0.0,20.0,12.0,0.0
584,67.0,0.0,90.0,4.0,0.0
585,79.0,18.0,90.0,10.0,0.0
586,64.0,30.0,20.0,12.0,0.0
587,64.0,0.0,20.0,12.0,0.0
588,58.0,18.0,20.0,12.0,0.0
589,67.0,0.0,20.0,11.0,0.0
590,58.0,0.0,20.0,12.0,0.0
591,64.0,0.0,20.0,12.0,0.0
592,67.0,12.0,20.0,11.0,0.0
593,67.0,30.0,20.0,11.0,0.0
594,58.0,0.0,20.0,12.0,0.0
595,64.0,0.0,20.0,12.0,0.0
596,37.0,12.0,180.0,14.0,0.0
597,49.0,0.0,180.0,13.0,0.0
598,70.0,0.0,180.0,3.0,0.0
599,64.0,0.0,20.0,12.0,0.0
600,61.0,0.0,240.0,4.0,0.0
601,67.0,0.0,180.0,6.0,0.0
602,81.0,0.0,40.0,10.0,0.0
603,67.0,0.0,20.0,11.0,0.0
604,64.0,0.0,180.0,7.0,0.0
605,69.0,6.0,40.0,4.0,0.0
606,93.0,0.0,40.0,0.0,0.0
607,58.0,24.0,20.0,12.0,0.0
608,58.0,0.0,20.0,12.0,0.0
609,67.0,30.0,20.0,11.0,0.0
610,64.0,0.0,20.0,12.0,0.0
611,64.0,24.0,20.0,12.0,0.0
612,58.0,0.0,20.0,12.0,0.0
613,67.0,0.0,40.0,4.0,0.0
614,67.0,0.0,20.0,11.0,0.0
615,91.0,6.0,40.0,0.0,0.0
616,79.0,0.0,40.0,10.0,0.0
617,64.0,30.0,20.0,12.0,0.0
618,58.0,0.0,20.0,12.0,0.0
619,67.0,0.0,20.0,11.0,0.0
620,89.0,6.0,40.0,0.0,0.0
621,77.0,0.0,40.0,10.0,0.0
622,65.0,0.0,40.0,4.0,0.0
623,67.0,0.0,20.0,11.0,0.0
624,58.0,24.0,20.0,12.0,0.0
625,64.0,0.0,20.0,12.0,0.0
626,67.0,18.0,20.0,11.0,0.0
627,64.0,0.0,20.0,12.0,0.0
628,58.0,0.0,20.0,12.0,0.0
629,88.0,6.0,40.0,0.0,0.0
630,76.0,0.0,40.0,10.0,0.0
631,67.0,0.0,20.0,11.0,0.0
632,64.0,0.0,40.0,4.0,0.0
633,64.0,24.0,20.0,12.0,0.0
634,58.0,0.0,20.0,12.0,0.0
635,64.0,0.0,20.0,12.0,0.0
636,58.0,30.0,20.0,12.0,0.0
637,67.0,0.0,20.0,11.0,0.0
638,76.0,0.0,90.0,10.0,0.0
639,67.0,0.0,180.0,6.0,0.0
640,64.0,0.0,20.0,12.0,0.0
641,88.0,0.0,90.0,0.0,0.0
642,64.0,0.0,180.0,7.0,0.0
643,58.0,30.0,20.0,12.0,0.0
644,67.0,0.0,20.0,11.0,0.0
645,64.0,18.0,90.0,4.0,0.0
646,61.0,12.0,210.0,4.0,0.0
647,70.0,12.0,180.0,3.0,0.0
648,67.0,0.0,20.0,11.0,0.0
649,58.0,30.0,20.0,12.0,0.0
650,64.0,0.0,20.0,12.0,0.0
651,58.0,0.0,20.0,12.0,0.0
652,67.0,0.0,20.0,11.0,0.0
653,64.0,12.0,20.0,12.0,0.0
654,64.0,30.0,20.0,12.0,0.0
655,58.0,0.0,20.0,12.0,0.0
656,67.0,0.0,20.0,11.0,0.0
657,58.0,0.0,20.0,12.0,0.0
658,64.0,0.0,20.0,12.0,0.0
659,67.0,30.0,20.0,11.0,0.0
660,67.0,0.0,20.0,11.0,0.0
661,58.0,0.0,20.0,12.0,0.0
662,64.0,18.0,20.0,12.0,0.0
663,58.0,0.0,20.0,12.0,0.0
664,64.0,0.0,20.0,12.0,0.0
665,37.0,0.0,40.0,14.0,0.0
666,67.0,12.0,20.0,11.0,0.0
667,49.0,6.0,40.0,13.0,0.0
668,58.0,0.0,20.0,12.0,0.0
669,64.0,0.0,20.0,12.0,0.0
670,67.0,30.0,20.0,11.0,0.0
671,38.0,12.0,180.0,14.0,0.0
672,50.0,0.0,180.0,13.0,0.0
673,65.0,0.0,20.0,11.0,0.0
674,57.0,0.0,20.0,12.0,0.0
675,62.0,30.0,20.0,12.0,0.0
676,57.0,0.0,20.0,12.0,0.0
677,62.0,0.0,20.0,12.0,0.0
678,65.0,30.0,20.0,11.0,0.0
679,57.0,30.0,20.0,12.0,0.0
680,65.0,0.0,20.0,11.0,0.0
681,62.0,0.0,20.0,12.0,0.0
682,65.0,0.0,20.0,11.0,0.0
683,57.0,0.0,20.0,12.0,0.0
684,62.0,30.0,20.0,12.0,0.0
685,77.0,0.0,90.0,10.0,0.0
686,62.0,30.0,20.0,12.0,0.0
687,65.0,0.0,20.0,11.0,0.0
688,57.0,0.0,20.0,12.0,0.0
689,89.0,18.0,90.0,0.0,0.0
690,65.0,18.0,20.0,11.0,0.0
691,62.0,0.0,20.0,12.0,0.0
692,57.0,0.0,20.0,12.0,0.0
693,65.0,0.0,20.0,11.0,0.0
694,62.0,0.0,20.0,12.0,0.0
695,57.0,12.0,20.0,12.0,0.0
696,65.0,30.0,20.0,11.0,0.0
697,57.0,0.0,20.0,12.0,0.0
698,62.0,0.0,20.0,12.0,0.0
699,57.0,0.0,180.0,5.0,0.0
700,62.0,24.0,20.0,12.0,0.0
701,57.0,0.0,20.0,12.0,0.0
702,69.0,0.0,180.0,5.0,0.0
703,38.0,12.0,180.0,14.0,0.0
704,65.0,0.0,180.0,3.0,0.0
705,65.0,0.0,20.0,11.0,0.0
706,79.0,6.0,40.0,10.0,0.0
707,62.0,0.0,180.0,6.0,0.0
708,50.0,0.0,180.0,13.0,0.0
709,62.0,0.0,180.0,4.0,0.0
710,65.0,0.0,180.0,4.0,0.0
711,91.0,0.0,40.0,0.0,0.0
712,65.0,30.0,20.0,11.0,0.0
713,62.0,0.0,20.0,12.0,0.0
714,57.0,0.0,20.0,12.0,0.0
715,65.0,24.0,20.0,11.0,0.0
716,89.0,6.0,40.0,0.0,0.0
717,62.0,0.0,20.0,12.0,0.0
718,57.0,0.0,20.0,12.0,0.0
719,77.0,0.0,40.0,10.0,0.0
720,62.0,30.0,20.0,12.0,0.0
721,57.0,0.0,20.0,12.0,0.0
722,65.0,0.0,20.0,11.0,0.0
723,65.0,0.0,20.0,11.0,0.0
724,76.0,0.0,40.0,10.0,0.0
725,57.0,24.0,20.0,12.0,0.0
726,62.0,0.0,20.0,12.0,0.0
727,88.0,6.0,40.0,0.0,0.0
728,65.0,18.0,20.0,11.0,0.0
729,62.0,0.0,20.0,12.0,0.0
730,57.0,0.0,20.0,12.0,0.0
731,62.0,0.0,20.0,12.0,0.0
732,57.0,24.0,20.0,12.0,0.0
733,86.0,0.0,40.0,0.0,0.0
734,74.0,6.0,40.0,10.0,0.0
735,65.0,0.0,20.0,11.0,0.0
736,57.0,30.0,20.0,12.0,0.0
737,65.0,0.0,20.0,11.0,0.0
738,62.0,0.0,20.0,12.0,0.0
739,69.0,0.0,180.0,6.0,0.0
740,65.0,12.0,180.0,4.0,0.0
741,62.0,0.0,180.0,4.0,0.0
742,57.0,0.0,20.0,12.0,0.0
743,57.0,0.0,180.0,5.0,0.0
744,69.0,0.0,180.0,5.0,0.0
745,62.0,30.0,20.0,12.0,0.0
746,74.0,0.0,90.0,10.0,0.0
747,65.0,0.0,20.0,11.0,0.0
748,86.0,18.0,90.0,0.0,0.0
749,74.0,0.0,180.0,3.0,0.0
750,62.0,0.0,20.0,12.0,0.0
751,65.0,30.0,20.0,11.0,0.0
752,57.0,0.0,20.0,12.0,0.0
753,62.0,0.0,20.0,12.0,0.0
754,57.0,12.0,20.0,12.0,0.0
755,65.0,0.0,20.0,11.0,0.0
756,65.0,0.0,20.0,11.0,0.0
757,57.0,30.0,20.0,12.0,0.0
758,62.0,0.0,20.0,12.0,0.0
759,65.0,0.0,20.0,11.0,0.0
760,62.0,30.0,20.0,12.0,0.0
761,57.0,0.0,20.0,12.0,0.0
762,62.0,0.0,20.0,12.0,0.0
763,65.0,18.0,20.0,11.0,0.0
764,57.0,0.0,20.0,12.0,0.0
765,57.0,0.0,20.0,12.0,0.0
766,62.0,24.0,20.0,12.0,0.0
767,38.0,6.0,40.0,14.0,0.0
768,65.0,0.0,20.0,11.0,0.0
769,50.0,0.0,40.0,13.0,0.0
770,62.0,0.0,20.0,12.0,0.0
771,57.0,30.0,20.0,12.0,0.0
772,65.0,0.0,20.0,11.0,0.0
773,62.0,30.0,20.0,12.0,0.0
774,47.0,0.0,180.0,13.0,0.0
775,56.0,0.0,20.0,12.0,0.0
776,35.0,12.0,180.0,14.0,0.0
777,65.0,0.0,20.0,11.0,0.0
778,62.0,0.0,20.0,12.0,0.0
779,65.0,30.0,20.0,11.0,0.0
780,56.0,0.0,20.0,12.0,0.0
781,56.0,0.0,20.0,12.0,0.0
782,65.0,0.0,20.0,11.0,0.0
783,62.0,30.0,20.0,12.0,0.0
784,65.0,0.0,20.0,11.0,0.0
785,56.0,30.0,20.0,12.0,0.0
786,62.0,0.0,20.0,12.0,0.0
787,56.0,30.0,20.0,12.0,0.0
788,74.0,18.0,90.0,10.0,0.0
789,65.0,0.0,20.0,11.0,0.0
790,62.0,0.0,20.0,12.0,0.0
791,86.0,24.0,120.0,2.0,0.0
792,65.0,0.0,20.0,11.0,0.0
793,62.0,0.0,20.0,12.0,0.0
794,56.0,18.0,20.0,12.0,0.0
795,62.0,12.0,20.0,12.0,0.0
796,56.0,0.0,20.0,12.0,0.0
797,65.0,0.0,20.0,11.0,0.0
798,65.0,0.0,20.0,11.0,0.0
799,62.0,6.0,20.0,12.0,0.0
800,56.0,0.0,20.0,12.0,0.0
801,62.0,0.0,180.0,6.0,0.0
802,47.0,0.0,180.0,13.0,0.0
803,74.0,0.0,180.0,3.0,0.0
804,88.0,24.0,60.0,2.0,0.0
805,56.0,0.0,180.0,4.0,0.0
806,68.0,0.0,180.0,4.0,0.0
807,65.0,0.0,20.0,11.0,0.0
808,76.0,6.0,40.0,10.0,0.0
809,62.0,24.0,20.0,12.0,0.0
810,56.0,0.0,20.0,12.0,0.0
811,65.0,0.0,180.0,3.0,0.0
812,35.0,12.0,180.0,14.0,0.0
813,65.0,0.0,20.0,11.0,0.0
814,56.0,0.0,20.0,12.0,0.0
815,62.0,6.0,20.0,12.0,0.0
816,86.0,24.0,60.0,2.0,0.0
817,65.0,24.0,20.0,11.0,0.0
818,56.0,0.0,20.0,12.0,0.0
819,74.0,6.0,40.0,10.0,0.0
820,62.0,0.0,20.0,12.0,0.0
821,62.0,0.0,20.0,12.0,0.0
822,65.0,6.0,20.0,11.0,0.0
823,56.0,0.0,20.0,12.0,0.0
824,62.0,0.0,20.0,12.0,0.0
825,56.0,0.0,20.0,12.0,0.0
826,65.0,24.0,20.0,11.0,0.0
827,84.0,12.0,60.0,2.0,0.0
828,72.0,6.0,40.0,10.0,0.0
829,62.0,6.0,20.0,12.0,0.0
830,56.0,0.0,20.0,12.0,0.0
831,65.0,0.0,20.0,11.0,0.0
832,65.0,0.0,20.0,11.0,0.0
833,71.0,6.0,40.0,10.0,0.0
834,62.0,24.0,20.0,12.0,0.0
835,56.0,0.0,20.0,12.0,0.0
836,56.0,6.0,20.0,12.0,0.0
837,65.0,0.0,20.0,11.0,0.0
838,62.0,0.0,20.0,12.0,0.0
839,83.0,24.0,15.0,2.0,0.0
840,65.0,0.0,20.0,11.0,0.0
841,56.0,0.0,20.0,12.0,0.0
842,62.0,30.0,20.0,12.0,0.0
843,71.0,18.0,90.0,10.0,0.0
844,62.0,0.0,180.0,6.0,0.0
845,74.0,12.0,180.0,3.0,0.0
846,65.0,0.0,180.0,3.0,0.0
847,68.0,0.0,180.0,4.0,0.0
848,56.0,0.0,180.0,4.0,0.0
849,62.0,0.0,20.0,12.0,0.0
850,65.0,30.0,20.0,11.0,0.0
851,56.0,0.0,20.0,12.0,0.0
852,56.0,12.0,20.0,12.0,0.0
853,62.0,0.0,20.0,12.0,0.0
854,65.0,0.0,20.0,11.0,0.0
855,65.0,0.0,20.0,11.0,0.0
856,56.0,0.0,20.0,12.0,0.0
857,62.0,6.0,20.0,12.0,0.0
858,62.0,30.0,20.0,12.0,0.0
859,56.0,0.0,20.0,12.0,0.0
860,65.0,0.0,20.0,11.0,0.0
861,56.0,18.0,20.0,12.0,0.0
862,65.0,0.0,20.0,11.0,0.0
863,62.0,0.0,20.0,12.0,0.0
864,35.0,0.0,40.0,14.0,0.0
865,47.0,6.0,40.0,13.0,0.0
866,62.0,0.0,20.0,12.0,0.0
867,65.0,24.0,20.0,11.0,0.0
868,56.0,0.0,20.0,12.0,0.0
869,56.0,30.0,20.0,12.0,0.0
870,62.0,0.0,20.0,12.0,0.0
871,65.0,0.0,20.0,11.0,0.0
872,64.0,30.0,20.0,11.0,0.0
873,62.0,0.0,20.0,12.0,0.0
874,71.0,0.0,20.0,11.0,0.0
875,59.0,0.0,20.0,12.0,0.0
876,44.0,12.0,180.0,13.0,0.0
877,56.0,0.0,20.0,12.0,0.0
878,32.0,0.0,180.0,14.0,0.0
879,71.0,30.0,20.0,11.0,0.0
880,64.0,0.0,20.0,11.0,0.0
881,56.0,0.0,20.0,12.0,0.0
882,59.0,0.0,20.0,12.0,0.0
883,62.0,0.0,20.0,12.0,0.0
884,62.0,30.0,20.0,12.0,0.0
885,56.0,0.0,20.0,12.0,0.0
886,59.0,0.0,20.0,12.0,0.0
887,71.0,0.0,20.0,11.0,0.0
888,64.0,0.0,20.0,11.0,0.0
889,56.0,0.0,20.0,12.0,0.0
890,59.0,0.0,20.0,12.0,0.0
891,62.0,30.0,20.0,12.0,0.0
892,71.0,0.0,20.0,11.0,0.0
893,64.0,0.0,20.0,11.0,0.0
894,71.0,0.0,20.0,11.0,0.0
895,83.0,18.0,90.0,2.0,0.0
896,71.0,0.0,90.0,10.0,0.0
897,56.0,0.0,20.0,12.0,0.0
898,62.0,0.0,20.0,12.0,0.0
899,64.0,30.0,20.0,11.0,0.0
900,59.0,0.0,20.0,12.0,0.0
901,62.0,18.0,20.0,12.0,0.0
902,56.0,0.0,20.0,12.0,0.0
903,59.0,0.0,20.0,12.0,0.0
904,64.0,0.0,20.0,11.0,0.0
905,71.0,0.0,20.0,11.0,0.0
906,64.0,0.0,20.0,11.0,0.0
907,71.0,0.0,20.0,11.0,0.0
908,59.0,12.0,20.0,12.0,0.0
909,56.0,0.0,20.0,12.0,0.0
910,62.0,0.0,20.0,12.0,0.0
911,71.0,0.0,20.0,11.0,0.0
912,64.0,30.0,20.0,11.0,0.0
913,62.0,0.0,20.0,12.0,0.0
914,59.0,0.0,20.0,12.0,0.0
915,56.0,0.0,20.0,12.0,0.0
916,72.0,0.0,40.0,10.0,0.0
917,59.0,0.0,20.0,12.0,0.0
918,64.0,0.0,180.0,4.0,0.0
919,56.0,0.0,180.0,4.0,0.0
920,71.0,24.0,20.0,11.0,0.0
921,52.0,12.0,180.0,13.0,0.0
922,62.0,0.0,20.0,12.0,0.0
923,56.0,0.0,20.0,12.0,0.0
924,64.0,0.0,20.0,11.0,0.0
925,71.0,0.0,180.0,6.0,0.0
926,84.0,6.0,40.0,2.0,0.0
927,40.0,0.0,180.0,14.0,0.0
928,62.0,0.0,180.0,6.0,0.0
929,71.0,0.0,20.0,11.0,0.0
930,64.0,0.0,20.0,11.0,0.0
931,56.0,0.0,20.0,12.0,0.0
932,59.0,0.0,20.0,12.0,0.0
933,62.0,30.0,20.0,12.0,0.0
934,62.0,0.0,20.0,12.0,0.0
935,83.0,0.0,40.0,2.0,0.0
936,56.0,0.0,20.0,12.0,0.0
937,59.0,0.0,20.0,12.0,0.0
938,71.0,6.0,40.0,10.0,0.0
939,64.0,24.0,20.0,11.0,0.0
940,71.0,0.0,20.0,11.0,0.0
941,71.0,0.0,20.0,11.0,0.0
942,64.0,0.0,20.0,11.0,0.0
943,59.0,0.0,20.0,12.0,0.0
944,62.0,0.0,20.0,12.0,0.0
945,56.0,30.0,20.0,12.0,0.0
946,69.0,6.0,40.0,10.0,0.0
947,64.0,0.0,20.0,11.0,0.0
948,71.0,0.0,20.0,11.0,0.0
949,59.0,0.0,20.0,12.0,0.0
950,62.0,0.0,20.0,12.0,0.0
951,81.0,0.0,40.0,2.0,0.0
952,56.0,24.0,20.0,12.0,0.0
953,64.0,0.0,20.0,11.0,0.0
954,56.0,0.0,20.0,12.0,0.0
955,62.0,18.0,20.0,12.0,0.0
956,59.0,0.0,20.0,12.0,0.0
957,71.0,0.0,20.0,11.0,0.0
958,64.0,0.0,20.0,11.0,0.0
959,71.0,0.0,20.0,11.0,0.0
960,68.0,0.0,40.0,10.0,0.0
961,62.0,0.0,20.0,12.0,0.0
962,59.0,0.0,20.0,12.0,0.0
963,56.0,24.0,20.0,12.0,0.0
964,80.0,6.0,40.0,2.0,0.0
965,62.0,0.0,20.0,12.0,0.0
966,64.0,0.0,20.0,11.0,0.0
967,59.0,0.0,20.0,12.0,0.0
968,71.0,30.0,20.0,11.0,0.0
969,56.0,0.0,20.0,12.0,0.0
970,71.0,0.0,20.0,11.0,0.0
971,64.0,0.0,20.0,11.0,0.0
972,56.0,0.0,20.0,12.0,0.0
973,80.0,18.0,90.0,2.0,0.0
974,62.0,0.0,20.0,12.0,0.0
975,59.0,30.0,20.0,12.0,0.0
976,68.0,0.0,90.0,10.0,0.0
977,71.0,0.0,180.0,6.0,0.0
978,62.0,0.0,180.0,6.0,0.0
979,64.0,0.0,180.0,4.0,0.0
980,56.0,12.0,180.0,4.0,0.0
981,71.0,0.0,20.0,11.0,0.0
982,64.0,0.0,20.0,11.0,0.0
983,62.0,0.0,20.0,12.0,0.0
984,56.0,30.0,20.0,12.0,0.0
985,59.0,0.0,20.0,12.0,0.0
986,64.0,0.0,20.0,11.0,0.0
987,56.0,0.0,20.0,12.0,0.0
988,59.0,0.0,20.0,12.0,0.0
989,71.0,0.0,20.0,11.0,0.0
990,62.0,12.0,20.0,12.0,0.0
991,59.0,0.0,20.0,12.0,0.0
992,56.0,0.0,20.0,12.0,0.0
993,62.0,0.0,20.0,12.0,0.0
994,64.0,30.0,20.0,11.0,0.0
995,71.0,0.0,20.0,11.0,0.0
996,64.0,0.0,20.0,11.0,0.0
997,59.0,30.0,20.0,12.0,0.0
998,56.0,0.0,20.0,12.0,0.0
999,71.0,0.0,20.0,11.0,0.0
1000,62.0,0.0,20.0,12.0,0.0
1001,64.0,0.0,20.0,11.0,0.0
1002,71.0,0.0,20.0,11.0,0.0
1003,62.0,0.0,20.0,12.0,0.0
1004,56.0,18.0,20.0,12.0,0.0
1005,59.0,0.0,20.0,12.0,0.0
1006,52.0,6.0,40.0,13.0,0.0
1007,56.0,0.0,20.0,12.0,0.0
1008,59.0,0.0,20.0,12.0,0.0
1009,71.0,0.0,20.0,11.0,0.0
1010,62.0,0.0,20.0,12.0,0.0
1011,64.0,24.0,20.0,11.0,0.0
1012,40.0,0.0,40.0,14.0,0.0
1013,56.0,102.0,20.0,12.0,0.0
1014,59.0,0.0,20.0,12.0,0.0
1015,62.0,0.0,20.0,12.0,0.0
1016,64.0,0.0,20.0,11.0,0.0
1017,71.0,0.0,20.0,11.0,0.0
1018,62.0,0.0,90.0,12.0,0.0
1019,59.0,0.0,90.0,12.0,0.0
1020,56.0,0.0,90.0,12.0,0.0
1021,40.0,0.0,90.0,14.0,0.0
1022,52.0,120.0,90.0,13.0,0.0
1023,64.0,0.0,90.0,11.0,0.0
1024,71.0,0.0,90.0,11.0,0.0
1025,80.0,0.0,90.0,2.0,0.0
1026,74.0,72.0,90.0,3.0,0.0
1027,72.0,0.0,40.0,3.0,0.0
1028,81.0,0.0,40.0,2.0,0.0
1029,76.0,60.0,40.0,3.0,0.0
1030,80.0,60.0,40.0,2.0,0.0
1031,71.0,0.0,40.0,3.0,0.0
1032,74.0,0.0,40.0,3.0,0.0
1033,69.0,60.0,40.0,3.0,0.0
1034,77.0,0.0,40.0,2.0,0.0
1035,72.0,0.0,40.0,3.0,0.0
1036,76.0,0.0,40.0,2.0,0.0
1037,68.0,108.0,40.0,3.0,0.0
1038,71.0,0.0,40.0,3.0,0.0
1039,64.0,0.0,40.0,5.0,0.0
1040,52.0,0.0,40.0,5.0,0.0
1041,64.0,0.0,90.0,5.0,0.0
1042,52.0,132.0,90.0,5.0,0.0
1043,76.0,0.0,90.0,2.0,0.0
1044,68.0,0.0,90.0,3.0,0.0
1045,71.0,0.0,90.0,3.0,0.0
1046,40.0,0.0,40.0,14.0,0.0
1047,56.0,0.0,40.0,12.0,0.0
1048,59.0,0.0,40.0,12.0,0.0
1049,62.0,0.0,40.0,12.0,0.0
1050,64.0,0.0,40.0,11.0,0.0
1051,71.0,108.0,40.0,11.0,0.0
1052,52.0,0.0,40.0,13.0,0.0
1053,40.0,0.0,90.0,14.0,0.0
1054,56.0,0.0,90.0,12.0,0.0
1055,59.0,0.0,90.0,12.0,0.0
1056,62.0,0.0,90.0,12.0,0.0
1057,64.0,0.0,90.0,11.0,0.0
1058,71.0,120.0,90.0,11.0,0.0
1059,52.0,0.0,90.0,13.0,0.0
1060,62.0,72.0,90.0,13.0,0.0
1061,64.0,60.0,40.0,13.0,0.0
1062,62.0,60.0,40.0,13.0,0.0
1063,60.0,60.0,40.0,13.0,0.0
1064,52.0,0.0,40.0,5.0,0.0
1065,59.0,0.0,40.0,13.0,0.0
1066,64.0,108.0,40.0,5.0,0.0
1067,52.0,0.0,90.0,5.0,0.0
1068,59.0,132.0,90.0,13.0,0.0
1069,64.0,0.0,90.0,5.0,0.0
1070,40.0,108.0,40.0,14.0,0.0
1071,56.0,0.0,40.0,12.0,0.0
1072,59.0,0.0,40.0,12.0,0.0
1073,62.0,0.0,40.0,12.0,0.0
1074,71.0,0.0,40.0,11.0,0.0
1075,64.0,0.0,40.0,11.0,0.0
1076,40.0,0.0,90.0,14.0,0.0
1077,62.0,0.0,90.0,12.0,0.0
1078,71.0,0.0,90.0,11.0,0.0
1079,56.0,0.0,90.0,12.0,0.0
1080,59.0,0.0,90.0,12.0,0.0
1081,64.0,120.0,90.0,11.0,0.0
1082,62.0,0.0,90.0,13.0,0.0
1083,74.0,120.0,90.0,10.0,0.0
1084,64.0,120.0,90.0,13.0,0.0
1085,76.0,0.0,90.0,10.0,0.0
1086,74.0,0.0,90.0,10.0,0.0
1087,62.0,12.0,90.0,13.0,0.0
1088,64.0,108.0,40.0,5.0,0.0
1089,52.0,0.0,40.0,5.0,0.0
1090,60.0,0.0,90.0,13.0,0.0
1091,72.0,120.0,90.0,10.0,0.0
1092,64.0,0.0,90.0,5.0,0.0
1093,52.0,0.0,90.0,5.0,0.0
1094,71.0,0.0,90.0,10.0,0.0
1095,59.0,144.0,90.0,13.0,0.0
1096,62.0,0.0,60.0,13.0,0.0
1097,74.0,60.0,60.0,10.0,0.0
1098,76.0,0.0,60.0,10.0,0.0
1099,64.0,60.0,60.0,13.0,0.0
1100,74.0,0.0,60.0,10.0,0.0
1101,62.0,60.0,60.0,13.0,0.0
1102,72.0,0.0,60.0,10.0,0.0
1103,60.0,60.0,60.0,13.0,0.0
1104,71.0,60.0,60.0,10.0,0.0
1105,59.0,0.0,60.0,13.0,0.0
1106,64.0,60.0,60.0,13.0,0.0
1107,76.0,0.0,60.0,10.0,0.0
1108,74.0,60.0,60.0,10.0,0.0
1109,62.0,0.0,60.0,13.0,0.0
1110,60.0,0.0,60.0,13.0,0.0
1111,72.0,60.0,60.0,10.0,0.0
1112,71.0,0.0,60.0,10.0,0.0
1113,59.0,60.0,60.0,13.0,0.0
1114,64.0,0.0,60.0,13.0,0.0
1115,76.0,48.0,60.0,10.0,0.0
1116,62.0,0.0,40.0,13.0,0.0
1117,74.0,72.0,40.0,10.0,0.0
1118,60.0,60.0,60.0,13.0,0.0
1119,72.0,0.0,60.0,10.0,0.0
1120,71.0,60.0,60.0,10.0,0.0
1121,59.0,0.0,60.0,13.0,0.0
1122,64.0,60.0,60.0,13.0,0.0
1123,76.0,0.0,60.0,10.0,0.0
1124,62.0,60.0,60.0,13.0,0.0
1125,74.0,0.0,60.0,10.0,0.0
1126,60.0,48.0,60.0,13.0,0.0
1127,72.0,0.0,60.0,10.0,0.0
1128,59.0,0.0,40.0,13.0,0.0
1129,71.0,72.0,40.0,10.0,0.0
1130,64.0,0.0,60.0,13.0,0.0
1131,76.0,60.0,60.0,10.0,0.0
1132,62.0,60.0,60.0,13.0,0.0
1133,74.0,0.0,60.0,10.0,0.0
1134,72.0,0.0,60.0,10.0,0.0
1135,60.0,48.0,60.0,13.0,0.0
1136,59.0,60.0,40.0,13.0,0.0
1137,71.0,0.0,40.0,10.0,0.0
1138,69.0,60.0,40.0,12.0,0.0
1139,76.0,12.0,930.0,10.0,0.0
1140,64.0,48.0,120.0,13.0,0.0
1141,72.0,0.0,40.0,11.0,0.0
1142,33.0,12.0,210.0,14.0,0.0
1143,72.0,12.0,40.0,11.0,0.0
1144,69.0,0.0,40.0,12.0,0.0
1145,69.0,48.0,40.0,12.0,0.0
1146,65.0,48.0,120.0,13.0,0.0
1147,72.0,0.0,40.0,11.0,0.0
1148,69.0,0.0,40.0,12.0,0.0
1149,72.0,12.0,40.0,11.0,0.0
1150,72.0,0.0,40.0,11.0,0.0
1151,69.0,60.0,40.0,12.0,0.0
1152,64.0,48.0,120.0,13.0,0.0
1153,72.0,0.0,40.0,11.0,0.0
1154,69.0,12.0,40.0,12.0,0.0
1155,72.0,60.0,40.0,11.0,0.0
1156,60.0,48.0,120.0,13.0,0.0
1157,69.0,0.0,40.0,12.0,0.0
1158,69.0,0.0,40.0,12.0,0.0
1159,72.0,12.0,40.0,11.0,0.0
1160,69.0,0.0,40.0,12.0,0.0
1161,72.0,60.0,40.0,11.0,0.0
1162,57.0,48.0,120.0,13.0,0.0
1163,69.0,12.0,40.0,12.0,0.0
1164,72.0,0.0,40.0,11.0,0.0
1165,69.0,60.0,40.0,12.0,0.0
1166,72.0,0.0,40.0,11.0,0.0
1167,53.0,48.0,120.0,13.0,0.0
1168,72.0,0.0,40.0,11.0,0.0
1169,69.0,12.0,40.0,12.0,0.0
1170,72.0,60.0,40.0,11.0,0.0
1171,69.0,0.0,40.0,12.0,0.0
1172,52.0,48.0,120.0,13.0,0.0
1173,72.0,0.0,40.0,11.0,0.0
1174,69.0,12.0,40.0,12.0,0.0
1175,72.0,0.0,40.0,11.0,0.0
1176,48.0,48.0,120.0,13.0,0.0
1177,69.0,48.0,40.0,12.0,0.0
1178,69.0,0.0,40.0,12.0,0.0
1179,72.0,12.0,40.0,11.0,0.0
1180,72.0,60.0,40.0,11.0,0.0
1181,76.0,48.0,120.0,10.0,0.0
1182,69.0,0.0,40.0,12.0,0.0
1183,45.0,0.0,120.0,13.0,0.0
1184,69.0,0.0,40.0,12.0,0.0
1185,72.0,12.0,40.0,11.0,0.0
1186,75.0,0.0,40.0,11.0,0.0
1187,41.0,48.0,120.0,13.0,0.0
1188,69.0,60.0,40.0,12.0,0.0
1189,81.0,12.0,210.0,10.0,0.0
1190,69.0,12.0,40.0,12.0,0.0
1191,75.0,0.0,40.0,11.0,0.0
1192,76.0,0.0,40.0,11.0,0.0
1193,71.0,48.0,40.0,12.0,0.0
1194,40.0,48.0,120.0,13.0,0.0
1195,71.0,0.0,40.0,12.0,0.0
1196,76.0,12.0,40.0,11.0,0.0
1197,71.0,48.0,40.0,12.0,0.0
1198,80.0,12.0,90.0,10.0,0.0
1199,76.0,0.0,40.0,11.0,0.0
1200,76.0,0.0,40.0,11.0,0.0
1201,71.0,60.0,40.0,12.0,0.0
1202,74.0,60.0,40.0,11.0,0.0
1203,68.0,0.0,40.0,12.0,0.0
1204,71.0,0.0,40.0,11.0,0.0
1205,76.0,12.0,930.0,10.0,0.0
1206,64.0,48.0,120.0,13.0,0.0
1207,40.0,12.0,210.0,14.0,0.0
1208,68.0,0.0,40.0,12.0,0.0
1209,74.0,12.0,40.0,11.0,0.0
1210,71.0,0.0,40.0,11.0,0.0
1211,68.0,0.0,40.0,12.0,0.0
1212,74.0,48.0,40.0,11.0,0.0
1213,71.0,0.0,40.0,11.0,0.0
1214,65.0,48.0,120.0,13.0,0.0
1215,68.0,0.0,40.0,12.0,0.0
1216,74.0,12.0,40.0,11.0,0.0
1217,71.0,0.0,40.0,11.0,0.0
1218,68.0,60.0,40.0,12.0,0.0
1219,71.0,0.0,40.0,11.0,0.0
1220,64.0,48.0,120.0,13.0,0.0
1221,74.0,0.0,40.0,11.0,0.0
1222,74.0,12.0,40.0,11.0,0.0
1223,71.0,0.0,40.0,11.0,0.0
1224,68.0,0.0,40.0,12.0,0.0
1225,74.0,0.0,40.0,11.0,0.0
1226,71.0,60.0,40.0,11.0,0.0
1227,62.0,48.0,120.0,13.0,0.0
1228,68.0,0.0,40.0,12.0,0.0
1229,71.0,0.0,40.0,11.0,0.0
1230,68.0,12.0,40.0,12.0,0.0
1231,74.0,0.0,40.0,11.0,0.0
1232,74.0,0.0,40.0,11.0,0.0
1233,68.0,0.0,40.0,12.0,0.0
1234,71.0,60.0,40.0,11.0,0.0
1235,59.0,48.0,120.0,13.0,0.0
1236,74.0,0.0,40.0,11.0,0.0
1237,68.0,0.0,40.0,12.0,0.0
1238,71.0,12.0,40.0,11.0,0.0
1239,71.0,60.0,40.0,11.0,0.0
1240,68.0,0.0,40.0,12.0,0.0
1241,56.0,48.0,120.0,13.0,0.0
1242,74.0,0.0,40.0,11.0,0.0
1243,74.0,12.0,40.0,11.0,0.0
1244,68.0,0.0,40.0,12.0,0.0
1245,71.0,0.0,40.0,11.0,0.0
1246,68.0,0.0,40.0,12.0,0.0
1247,71.0,0.0,40.0,11.0,0.0
1248,53.0,48.0,120.0,13.0,0.0
1249,74.0,60.0,40.0,11.0,0.0
1250,68.0,12.0,40.0,12.0,0.0
1251,74.0,0.0,40.0,11.0,0.0
1252,71.0,0.0,40.0,11.0,0.0
1253,74.0,0.0,40.0,11.0,0.0
1254,71.0,48.0,40.0,11.0,0.0
1255,68.0,0.0,40.0,12.0,0.0
1256,52.0,48.0,120.0,13.0,0.0
1257,71.0,12.0,40.0,11.0,0.0
1258,74.0,0.0,40.0,11.0,0.0
1259,68.0,0.0,40.0,12.0,0.0
1260,50.0,48.0,120.0,13.0,0.0
1261,74.0,48.0,40.0,11.0,0.0
1262,76.0,12.0,90.0,10.0,0.0
1263,68.0,0.0,40.0,12.0,0.0
1264,71.0,0.0,40.0,11.0,0.0
1265,71.0,12.0,40.0,11.0,0.0
1266,74.0,0.0,40.0,11.0,0.0
1267,68.0,0.0,40.0,12.0,0.0
1268,74.0,12.0,40.0,11.0,0.0
1269,71.0,0.0,40.0,11.0,0.0
1270,68.0,0.0,40.0,12.0,0.0
1271,80.0,12.0,90.0,10.0,0.0
1272,47.0,36.0,60.0,13.0,0.0
1273,74.0,12.0,40.0,11.0,0.0
1274,71.0,0.0,40.0,11.0,0.0
1275,44.0,48.0,60.0,13.0,0.0
1276,68.0,0.0,40.0,12.0,0.0
1277,68.0,48.0,40.0,12.0,0.0
1278,74.0,0.0,40.0,11.0,0.0
1279,40.0,12.0,90.0,13.0,0.0
1280,83.0,48.0,120.0,10.0,0.0
1281,68.0,12.0,40.0,12.0,0.0
1282,74.0,0.0,40.0,11.0,0.0
1283,69.0,0.0,40.0,12.0,0.0
1284,45.0,12.0,90.0,13.0,0.0
1285,81.0,0.0,90.0,10.0,0.0
1286,72.0,48.0,40.0,11.0,0.0
1287,72.0,108.0,40.0,11.0,0.0
1288,69.0,0.0,40.0,12.0,0.0
1289,69.0,0.0,570.0,11.0,0.0
1290,81.0,144.0,120.0,10.0,0.0
1291,33.0,0.0,90.0,14.0,0.0
1292,57.0,0.0,270.0,13.0,0.0
1293,45.0,24.0,90.0,4.0,0.0
1294,57.0,84.0,270.0,12.0,0.0
1295,54.0,0.0,570.0,5.0,0.0
1296,50.0,0.0,300.0,4.0,0.0
1297,38.0,0.0,300.0,14.0,0.0
1298,79.0,48.0,240.0,10.0,0.0
1299,57.0,0.0,40.0,13.0,0.0
1300,57.0,12.0,40.0,12.0,0.0
1301,57.0,48.0,40.0,13.0,0.0
1302,77.0,12.0,90.0,10.0,0.0
1303,57.0,0.0,40.0,12.0,0.0
1304,59.0,108.0,40.0,13.0,0.0
1305,59.0,0.0,40.0,12.0,0.0
1306,45.0,0.0,90.0,4.0,0.0
1307,76.0,0.0,90.0,10.0,0.0
1308,31.0,0.0,90.0,14.0,0.0
1309,60.0,120.0,90.0,12.0,0.0
1310,60.0,0.0,90.0,13.0,0.0
1311,57.0,0.0,90.0,12.0,0.0
1312,57.0,120.0,90.0,13.0,0.0
1313,57.0,48.0,270.0,12.0,0.0
1314,60.0,0.0,90.0,4.0,0.0
1315,93.0,0.0,90.0,0.0,0.0
1316,69.0,0.0,570.0,6.0,0.0
1317,33.0,0.0,90.0,14.0,0.0
1318,45.0,0.0,90.0,4.0,0.0
1319,57.0,0.0,270.0,13.0,0.0
1320,66.0,0.0,570.0,5.0,0.0
1321,64.0,168.0,90.0,3.0,0.0
1322,54.0,0.0,570.0,5.0,0.0
1323,81.0,0.0,90.0,2.0,0.0
1324,76.0,0.0,90.0,3.0,0.0
1325,38.0,0.0,300.0,14.0,0.0
1326,74.0,0.0,300.0,3.0,0.0
1327,65.0,0.0,300.0,3.0,0.0
1328,62.0,48.0,300.0,4.0,0.0
1329,50.0,0.0,300.0,4.0,0.0
1330,91.0,36.0,180.0,0.0,0.0
1331,79.0,0.0,180.0,2.0,0.0
1332,57.0,0.0,40.0,13.0,0.0
1333,57.0,60.0,40.0,12.0,0.0
1334,57.0,0.0,40.0,13.0,0.0
1335,77.0,0.0,90.0,2.0,0.0
1336,57.0,0.0,40.0,12.0,0.0
1337,89.0,12.0,90.0,0.0,0.0
1338,59.0,0.0,40.0,12.0,0.0
1339,59.0,108.0,40.0,13.0,0.0
1340,72.0,0.0,90.0,3.0,0.0
1341,76.0,0.0,90.0,2.0,0.0
1342,60.0,0.0,90.0,12.0,0.0
1343,60.0,0.0,90.0,13.0,0.0
1344,45.0,0.0,90.0,4.0,0.0
1345,64.0,0.0,90.0,3.0,0.0
1346,31.0,0.0,90.0,14.0,0.0
1347,60.0,0.0,90.0,4.0,0.0
1348,88.0,120.0,90.0,0.0,0.0
1349,69.0,0.0,690.0,11.0,0.0
1350,57.0,120.0,90.0,13.0,0.0
1351,57.0,0.0,90.0,12.0,0.0
1352,57.0,84.0,270.0,12.0,0.0
1353,45.0,0.0,90.0,4.0,0.0
1354,81.0,144.0,120.0,10.0,0.0
1355,54.0,0.0,570.0,5.0,0.0
1356,57.0,0.0,270.0,13.0,0.0
1357,33.0,24.0,90.0,14.0,0.0
1358,79.0,48.0,240.0,10.0,0.0
1359,38.0,0.0,300.0,14.0,0.0
1360,50.0,0.0,300.0,4.0,0.0
1361,57.0,0.0,40.0,13.0,0.0
1362,57.0,12.0,40.0,12.0,0.0
1363,77.0,48.0,120.0,10.0,0.0
1364,57.0,0.0,40.0,12.0,0.0
1365,57.0,60.0,40.0,13.0,0.0
1366,59.0,0.0,40.0,13.0,0.0
1367,59.0,12.0,40.0,12.0,0.0
1368,76.0,0.0,90.0,10.0,0.0
1369,60.0,48.0,40.0,13.0,0.0
1370,84.0,0.0,90.0,0.0,0.0
1371,88.0,0.0,90.0,0.0,0.0
1372,60.0,0.0,90.0,12.0,0.0
1373,31.0,0.0,40.0,14.0,0.0
1374,45.0,0.0,90.0,4.0,0.0
1375,76.0,0.0,90.0,2.0,0.0
1376,76.0,12.0,90.0,3.0,0.0
1377,40.0,120.0,40.0,14.0,0.0
1378,52.0,0.0,40.0,13.0,0.0
1379,52.0,36.0,180.0,13.0,0.0
1380,40.0,0.0,180.0,14.0,0.0
1381,81.0,0.0,40.0,10.0,0.0
1382,72.0,60.0,40.0,11.0,0.0
1383,69.0,0.0,40.0,12.0,0.0
1384,69.0,24.0,40.0,12.0,0.0
1385,72.0,0.0,40.0,11.0,0.0
1386,81.0,0.0,40.0,10.0,0.0
1387,71.0,0.0,40.0,11.0,0.0
1388,64.0,0.0,40.0,12.0,0.0
1389,80.0,60.0,40.0,10.0,0.0
1390,64.0,0.0,90.0,12.0,0.0
1391,52.0,48.0,40.0,13.0,0.0
1392,40.0,0.0,40.0,14.0,0.0
1393,71.0,12.0,90.0,11.0,0.0
1394,80.0,0.0,90.0,10.0,0.0
1395,40.0,108.0,40.0,14.0,0.0
1396,52.0,0.0,40.0,13.0,0.0
1397,80.0,0.0,90.0,2.0,0.0
1398,52.0,0.0,180.0,13.0,0.0
1399,38.0,0.0,90.0,4.0,0.0
1400,50.0,0.0,90.0,4.0,0.0
1401,71.0,12.0,90.0,2.0,0.0
1402,40.0,36.0,180.0,14.0,0.0
1403,83.0,0.0,40.0,10.0,0.0
1404,68.0,0.0,40.0,12.0,0.0
1405,74.0,60.0,40.0,11.0,0.0
1406,68.0,0.0,40.0,12.0,0.0
1407,83.0,0.0,40.0,10.0,0.0
1408,74.0,24.0,40.0,11.0,0.0
1409,81.0,0.0,40.0,10.0,0.0
1410,72.0,0.0,40.0,11.0,0.0
1411,69.0,60.0,40.0,12.0,0.0
1412,81.0,12.0,90.0,10.0,0.0
1413,69.0,48.0,40.0,12.0,0.0
1414,52.0,0.0,40.0,13.0,0.0
1415,72.0,0.0,90.0,11.0,0.0
1416,40.0,0.0,40.0,14.0,0.0
1417,40.0,108.0,40.0,14.0,0.0
1418,52.0,0.0,40.0,13.0,0.0
1419,64.0,0.0,40.0,12.0,0.0
1420,64.0,0.0,180.0,12.0,0.0
1421,50.0,12.0,90.0,4.0,0.0
1422,38.0,0.0,90.0,4.0,0.0
1423,81.0,0.0,90.0,2.0,0.0
1424,72.0,0.0,90.0,2.0,0.0
1425,52.0,36.0,180.0,13.0,0.0
1426,40.0,0.0,180.0,14.0,0.0
1427,81.0,0.0,40.0,11.0,0.0
1428,84.0,60.0,40.0,10.0,0.0
1429,84.0,0.0,40.0,10.0,0.0
1430,81.0,24.0,40.0,11.0,0.0
1431,83.0,0.0,40.0,10.0,0.0
1432,80.0,60.0,40.0,11.0,0.0
1433,80.0,12.0,90.0,11.0,0.0
1434,83.0,0.0,90.0,10.0,0.0
1435,40.0,0.0,40.0,14.0,0.0
1436,64.0,48.0,40.0,12.0,0.0
1437,52.0,0.0,40.0,13.0,0.0
1438,52.0,0.0,40.0,13.0,0.0
1439,64.0,0.0,40.0,12.0,0.0
1440,40.0,108.0,40.0,14.0,0.0
1441,40.0,36.0,180.0,14.0,0.0
1442,80.0,0.0,90.0,2.0,0.0
1443,52.0,0.0,180.0,13.0,0.0
1444,83.0,0.0,90.0,2.0,0.0
1445,64.0,0.0,180.0,12.0,0.0
1446,50.0,12.0,90.0,4.0,0.0
1447,38.0,0.0,90.0,4.0,0.0
1448,86.0,60.0,40.0,10.0,0.0
1449,83.0,0.0,40.0,11.0,0.0
1450,86.0,24.0,40.0,10.0,0.0
1451,83.0,0.0,40.0,11.0,0.0
1452,84.0,60.0,40.0,10.0,0.0
1453,81.0,0.0,40.0,11.0,0.0
1454,40.0,48.0,40.0,14.0,0.0
1455,52.0,0.0,40.0,13.0,0.0
1456,64.0,0.0,40.0,12.0,0.0
1457,84.0,12.0,90.0,10.0,0.0
1458,81.0,0.0,90.0,11.0,0.0
1459,40.0,0.0,40.0,14.0,0.0
1460,64.0,0.0,40.0,12.0,0.0
1461,52.0,108.0,40.0,13.0,0.0
1462,40.0,36.0,180.0,14.0,0.0
1463,84.0,12.0,90.0,2.0,0.0
1464,38.0,0.0,90.0,4.0,0.0
1465,50.0,0.0,90.0,4.0,0.0
1466,64.0,0.0,180.0,12.0,0.0
1467,52.0,0.0,180.0,13.0,0.0
1468,81.0,0.0,90.0,2.0,0.0
1469,84.0,0.0,40.0,11.0,0.0
1470,88.0,60.0,40.0,10.0,0.0
1471,84.0,0.0,40.0,11.0,0.0
1472,88.0,24.0,40.0,10.0,0.0
1473,83.0,60.0,40.0,11.0,0.0
1474,86.0,0.0,40.0,10.0,0.0
1475,86.0,0.0,90.0,10.0,0.0
1476,62.0,0.0,1380.0,12.0,0.0
1477,52.0,24.0,1380.0,12.0,0.0
1478,40.0,48.0,40.0,14.0,0.0
1479,83.0,12.0,90.0,11.0,0.0
1480,40.0,0.0,1020.0,13.0,0.0
1481,52.0,0.0,300.0,13.0,0.0
1482,40.0,108.0,40.0,14.0,0.0
1483,83.0,0.0,90.0,2.0,0.0
1484,86.0,0.0,90.0,2.0,0.0
1485,38.0,0.0,90.0,4.0,0.0
1486,74.0,0.0,90.0,3.0,0.0
1487,71.0,12.0,90.0,3.0,0.0
1488,50.0,0.0,90.0,4.0,0.0
1489,40.0,36.0,180.0,14.0,0.0
1490,86.0,0.0,40.0,10.0,0.0
1491,74.0,60.0,40.0,11.0,0.0
1492,88.0,24.0,40.0,10.0,0.0
1493,76.0,0.0,40.0,11.0,0.0
1494,77.0,0.0,40.0,11.0,0.0
1495,89.0,60.0,40.0,10.0,0.0
1496,77.0,0.0,90.0,11.0,0.0
1497,38.0,48.0,40.0,14.0,0.0
1498,89.0,12.0,90.0,10.0,0.0
1499,50.0,0.0,300.0,13.0,0.0
1500,38.0,108.0,40.0,14.0,0.0
1501,38.0,36.0,180.0,14.0,0.0
1502,74.0,0.0,90.0,3.0,0.0
1503,71.0,0.0,90.0,3.0,0.0
1504,83.0,0.0,90.0,2.0,0.0
1505,86.0,12.0,90.0,2.0,0.0
1506,38.0,0.0,90.0,4.0,0.0
1507,50.0,0.0,90.0,4.0,0.0
1508,71.0,60.0,40.0,11.0,0.0
1509,83.0,0.0,40.0,10.0,0.0
1510,84.0,24.0,40.0,10.0,0.0
1511,72.0,0.0,40.0,11.0,0.0
1512,74.0,60.0,40.0,11.0,0.0
1513,86.0,0.0,40.0,10.0,0.0
1514,74.0,0.0,90.0,11.0,0.0
1515,35.0,48.0,40.0,14.0,0.0
1516,47.0,0.0,300.0,13.0,0.0
1517,86.0,12.0,90.0,10.0,0.0
1518,35.0,108.0,40.0,14.0,0.0
1519,74.0,0.0,90.0,3.0,0.0
1520,86.0,12.0,90.0,2.0,0.0
1521,83.0,0.0,90.0,2.0,0.0
1522,71.0,0.0,90.0,3.0,0.0
1523,50.0,0.0,90.0,4.0,0.0
1524,35.0,36.0,180.0,14.0,0.0
1525,38.0,0.0,90.0,4.0,0.0
1526,80.0,60.0,40.0,10.0,0.0
1527,68.0,0.0,40.0,11.0,0.0
1528,81.0,0.0,40.0,10.0,0.0
1529,69.0,24.0,40.0,11.0,0.0
1530,83.0,60.0,40.0,10.0,0.0
1531,71.0,0.0,40.0,11.0,0.0
1532,32.0,48.0,40.0,14.0,0.0
1533,83.0,12.0,90.0,10.0,0.0
1534,44.0,0.0,300.0,13.0,0.0
1535,71.0,0.0,90.0,11.0,0.0
1536,32.0,108.0,40.0,14.0,0.0
1537,32.0,36.0,180.0,14.0,0.0
1538,74.0,12.0,90.0,3.0,0.0
1539,64.0,0.0,90.0,5.0,0.0
1540,86.0,0.0,90.0,2.0,0.0
1541,83.0,0.0,90.0,2.0,0.0
1542,71.0,0.0,90.0,3.0,0.0
1543,52.0,0.0,90.0,5.0,0.0
1544,71.0,60.0,40.0,11.0,0.0
1545,83.0,0.0,40.0,10.0,0.0
1546,72.0,0.0,40.0,11.0,0.0
1547,84.0,0.0,40.0,10.0,0.0
1548,74.0,0.0,40.0,11.0,0.0
1549,86.0,60.0,40.0,10.0,0.0
1550,74.0,0.0,90.0,11.0,0.0
1551,52.0,24.0,300.0,13.0,0.0
1552,40.0,24.0,1020.0,13.0,0.0
1553,40.0,48.0,40.0,14.0,0.0
1554,52.0,24.0,1380.0,12.0,0.0
1555,62.0,0.0,1380.0,12.0,0.0
1556,86.0,12.0,90.0,10.0,0.0
1557,40.0,108.0,40.0,14.0,0.0
1558,40.0,36.0,180.0,14.0,0.0
1559,71.0,0.0,90.0,3.0,0.0
1560,74.0,0.0,90.0,3.0,0.0
1561,86.0,12.0,90.0,2.0,0.0
1562,83.0,0.0,90.0,2.0,0.0
1563,71.0,0.0,90.0,4.0,0.0
1564,68.0,0.0,90.0,4.0,0.0
1565,89.0,0.0,90.0,0.0,0.0
1566,80.0,0.0,90.0,0.0,0.0
1567,64.0,0.0,90.0,5.0,0.0
1568,52.0,0.0,90.0,5.0,0.0
1569,86.0,0.0,40.0,10.0,0.0
1570,74.0,60.0,40.0,11.0,0.0
1571,88.0,0.0,40.0,10.0,0.0
1572,76.0,0.0,40.0,11.0,0.0
1573,77.0,60.0,40.0,11.0,0.0
1574,89.0,0.0,40.0,10.0,0.0
1575,89.0,0.0,90.0,10.0,0.0
1576,77.0,12.0,90.0,11.0,0.0
1577,38.0,48.0,40.0,14.0,0.0
1578,38.0,108.0,40.0,14.0,0.0
1579,86.0,0.0,90.0,2.0,0.0
1580,71.0,0.0,90.0,4.0,0.0
1581,68.0,0.0,90.0,4.0,0.0
1582,52.0,0.0,90.0,5.0,0.0
1583,64.0,12.0,90.0,5.0,0.0
1584,83.0,0.0,90.0,2.0,0.0
1585,89.0,0.0,90.0,0.0,0.0
1586,80.0,0.0,90.0,0.0,0.0
1587,71.0,0.0,90.0,3.0,0.0
1588,74.0,0.0,90.0,3.0,0.0
1589,38.0,36.0,180.0,14.0,0.0
1590,71.0,60.0,40.0,11.0,0.0
1591,83.0,0.0,40.0,10.0,0.0
1592,84.0,24.0,40.0,10.0,0.0
1593,72.0,0.0,40.0,11.0,0.0
1594,74.0,0.0,40.0,11.0,0.0
1595,86.0,60.0,40.0,10.0,0.0
1596,47.0,0.0,300.0,13.0,0.0
1597,35.0,48.0,40.0,14.0,0.0
1598,86.0,0.0,90.0,10.0,0.0
1599,74.0,12.0,90.0,11.0,0.0
1600,35.0,108.0,40.0,14.0,0.0
1601,71.0,0.0,90.0,4.0,0.0
1602,71.0,0.0,90.0,3.0,0.0
1603,35.0,36.0,180.0,14.0,0.0
1604,83.0,0.0,90.0,2.0,0.0
1605,86.0,0.0,90.0,2.0,0.0
1606,74.0,0.0,90.0,3.0,0.0
1607,89.0,0.0,90.0,0.0,0.0
1608,80.0,0.0,90.0,0.0,0.0
1609,52.0,0.0,90.0,5.0,0.0
1610,68.0,0.0,90.0,4.0,0.0
1611,64.0,12.0,90.0,5.0,0.0
1612,80.0,0.0,40.0,10.0,0.0
1613,68.0,60.0,40.0,11.0,0.0
1614,81.0,0.0,40.0,10.0,0.0
1615,69.0,0.0,40.0,11.0,0.0
1616,71.0,60.0,40.0,11.0,0.0
1617,83.0,0.0,40.0,10.0,0.0
1618,83.0,12.0,90.0,10.0,0.0
1619,71.0,0.0,90.0,11.0,0.0
1620,32.0,48.0,40.0,14.0,0.0
1621,44.0,0.0,300.0,13.0,0.0
1622,32.0,108.0,40.0,14.0,0.0
1623,71.0,0.0,90.0,4.0,0.0
1624,68.0,0.0,90.0,4.0,0.0
1625,52.0,0.0,90.0,5.0,0.0
1626,71.0,0.0,90.0,3.0,0.0
1627,32.0,36.0,180.0,14.0,0.0
1628,83.0,0.0,90.0,2.0,0.0
1629,86.0,12.0,90.0,2.0,0.0
1630,64.0,0.0,90.0,5.0,0.0
1631,89.0,0.0,90.0,0.0,0.0
1632,80.0,0.0,90.0,0.0,0.0
1633,74.0,0.0,90.0,3.0,0.0
1634,71.0,0.0,40.0,11.0,0.0
1635,83.0,60.0,40.0,10.0,0.0
1636,72.0,0.0,40.0,11.0,0.0
1637,84.0,0.0,40.0,10.0,0.0
1638,86.0,60.0,40.0,10.0,0.0
1639,74.0,0.0,40.0,11.0,0.0
1640,52.0,0.0,1170.0,12.0,0.0
1641,74.0,12.0,90.0,11.0,0.0
1642,40.0,48.0,40.0,13.0,0.0
1643,62.0,0.0,1170.0,12.0,0.0
1644,86.0,0.0,90.0,10.0,0.0
1645,40.0,0.0,40.0,14.0,0.0
1646,40.0,0.0,40.0,13.0,0.0
1647,40.0,108.0,40.0,14.0,0.0
1648,89.0,0.0,90.0,0.0,0.0
1649,80.0,0.0,90.0,0.0,0.0
1650,64.0,0.0,90.0,5.0,0.0
1651,40.0,36.0,180.0,14.0,0.0
1652,40.0,0.0,180.0,13.0,0.0
1653,52.0,0.0,90.0,5.0,0.0
1654,68.0,0.0,90.0,4.0,0.0
1655,71.0,0.0,90.0,3.0,0.0
1656,74.0,0.0,90.0,3.0,0.0
1657,83.0,12.0,90.0,2.0,0.0
1658,86.0,0.0,90.0,2.0,0.0
1659,71.0,0.0,90.0,4.0,0.0
1660,86.0,0.0,40.0,10.0,0.0
1661,74.0,60.0,40.0,11.0,0.0
1662,88.0,24.0,40.0,10.0,0.0
1663,76.0,0.0,40.0,11.0,0.0
1664,89.0,60.0,40.0,10.0,0.0
1665,77.0,0.0,40.0,11.0,0.0
1666,40.0,48.0,40.0,13.0,0.0
1667,89.0,12.0,90.0,10.0,0.0
1668,40.0,0.0,40.0,14.0,0.0
1669,77.0,0.0,90.0,11.0,0.0
1670,40.0,108.0,40.0,13.0,0.0
1671,40.0,0.0,40.0,14.0,0.0
1672,80.0,0.0,90.0,0.0,0.0
1673,89.0,0.0,90.0,0.0,0.0
1674,83.0,0.0,90.0,2.0,0.0
1675,86.0,12.0,90.0,2.0,0.0
1676,64.0,0.0,90.0,5.0,0.0
1677,74.0,0.0,90.0,3.0,0.0
1678,40.0,36.0,180.0,14.0,0.0
1679,40.0,0.0,180.0,13.0,0.0
1680,52.0,0.0,90.0,5.0,0.0
1681,71.0,0.0,90.0,4.0,0.0
1682,68.0,0.0,90.0,4.0,0.0
1683,71.0,0.0,90.0,3.0,0.0
1684,74.0,60.0,40.0,11.0,0.0
1685,86.0,0.0,40.0,10.0,0.0
1686,76.0,24.0,40.0,11.0,0.0
1687,88.0,0.0,40.0,10.0,0.0
1688,77.0,0.0,40.0,11.0,0.0
1689,89.0,60.0,40.0,10.0,0.0
1690,40.0,0.0,40.0,13.0,0.0
1691,77.0,0.0,90.0,11.0,0.0
1692,89.0,12.0,90.0,10.0,0.0
1693,40.0,48.0,40.0,14.0,0.0
1694,40.0,0.0,40.0,14.0,0.0
1695,40.0,108.0,40.0,13.0,0.0
1696,80.0,0.0,90.0,0.0,0.0
1697,86.0,0.0,90.0,2.0,0.0
1698,89.0,0.0,90.0,0.0,0.0
1699,40.0,0.0,180.0,13.0,0.0
1700,68.0,0.0,90.0,4.0,0.0
1701,64.0,12.0,90.0,5.0,0.0
1702,52.0,0.0,90.0,5.0,0.0
1703,83.0,0.0,90.0,2.0,0.0
1704,40.0,36.0,180.0,14.0,0.0
1705,71.0,0.0,90.0,4.0,0.0
1706,71.0,0.0,90.0,3.0,0.0
1707,74.0,0.0,90.0,3.0,0.0
1708,74.0,0.0,40.0,11.0,0.0
1709,86.0,60.0,40.0,10.0,0.0
1710,76.0,24.0,40.0,11.0,0.0
1711,88.0,0.0,40.0,10.0,0.0
1712,89.0,0.0,40.0,10.0,0.0
1713,77.0,108.0,40.0,11.0,0.0
1714,77.0,0.0,90.0,11.0,0.0
1715,40.0,120.0,90.0,13.0,0.0
1716,40.0,0.0,90.0,14.0,0.0
1717,89.0,0.0,90.0,10.0,0.0
1718,68.0,0.0,90.0,4.0,0.0
1719,80.0,84.0,90.0,0.0,0.0
1720,71.0,0.0,90.0,4.0,0.0
1721,86.0,0.0,90.0,2.0,0.0
1722,88.0,0.0,90.0,0.0,0.0
1723,52.0,0.0,90.0,5.0,0.0
1724,83.0,0.0,90.0,2.0,0.0
1725,64.0,0.0,90.0,5.0,0.0
1726,74.0,0.0,90.0,3.0,0.0
1727,71.0,0.0,90.0,3.0,0.0
1728,88.0,0.0,120.0,10.0,0.0
1729,52.0,36.0,60.0,12.0,0.0
1730,64.0,0.0,930.0,5.0,0.0
1731,72.0,0.0,930.0,6.0,0.0
1732,52.0,0.0,930.0,5.0,0.0
1733,76.0,0.0,120.0,11.0,0.0
1734,69.0,0.0,930.0,6.0,0.0
1735,45.0,0.0,930.0,4.0,0.0
1736,76.0,0.0,90.0,2.0,0.0
1737,40.0,0.0,60.0,13.0,0.0
1738,88.0,0.0,930.0,0.0,0.0
1739,93.0,0.0,930.0,0.0,0.0
1740,33.0,0.0,930.0,14.0,0.0
1741,72.0,0.0,930.0,3.0,0.0
1742,76.0,0.0,90.0,3.0,0.0
1743,64.0,0.0,930.0,7.0,0.0
1744,88.0,0.0,90.0,2.0,0.0
1745,76.0,0.0,930.0,7.0,0.0
1746,45.0,24.0,90.0,8.0,0.0
1747,41.0,0.0,60.0,13.0,0.0
1748,53.0,32.0,60.0,12.0,0.0
1749,81.0,0.0,810.0,2.0,0.0
1750,40.0,0.0,60.0,13.0,0.0
1751,89.0,32.0,120.0,10.0,0.0
1752,77.0,0.0,120.0,11.0,0.0
1753,84.0,24.0,810.0,2.0,0.0
1754,81.0,0.0,810.0,3.0,0.0
1755,45.0,28.0,30.0,8.0,0.0
1756,52.0,12.0,60.0,12.0,0.0
1757,45.0,40.0,30.0,8.0,0.0
1758,41.0,0.0,60.0,13.0,0.0
1759,53.0,0.0,60.0,12.0,0.0
1760,45.0,8.0,30.0,8.0,0.0
1761,45.0,28.0,30.0,8.0,0.0
1762,40.0,12.0,60.0,13.0,0.0
1763,52.0,0.0,60.0,12.0,0.0
1764,76.0,32.0,120.0,11.0,0.0
1765,88.0,0.0,120.0,10.0,0.0
1766,45.0,40.0,30.0,8.0,0.0
1767,53.0,0.0,60.0,12.0,0.0
1768,41.0,0.0,60.0,13.0,0.0
1769,45.0,8.0,30.0,8.0,0.0
1770,40.0,0.0,60.0,13.0,0.0
1771,84.0,12.0,60.0,10.0,0.0
1772,52.0,0.0,60.0,12.0,0.0
1773,72.0,0.0,60.0,11.0,0.0
1774,45.0,28.0,30.0,8.0,0.0
1775,45.0,36.0,30.0,8.0,0.0
1776,53.0,0.0,40.0,12.0,0.0
1777,41.0,4.0,40.0,13.0,0.0
1778,45.0,68.0,30.0,8.0,0.0
1779,45.0,24.0,90.0,8.0,0.0
1780,40.0,0.0,60.0,13.0,0.0
1781,52.0,0.0,60.0,12.0,0.0
1782,81.0,0.0,60.0,10.0,0.0
1783,69.0,36.0,60.0,11.0,0.0
1784,53.0,60.0,60.0,12.0,0.0
1785,41.0,0.0,60.0,13.0,0.0
1786,40.0,60.0,60.0,13.0,0.0
1787,52.0,0.0,60.0,12.0,0.0
1788,77.0,0.0,60.0,10.0,0.0
1789,65.0,0.0,60.0,11.0,0.0
1790,53.0,60.0,60.0,12.0,0.0
1791,41.0,0.0,60.0,13.0,0.0
1792,40.0,48.0,60.0,13.0,0.0
1793,76.0,0.0,60.0,10.0,0.0
1794,52.0,0.0,60.0,12.0,0.0
1795,64.0,0.0,60.0,11.0,0.0
1796,53.0,0.0,40.0,12.0,0.0
1797,41.0,72.0,40.0,13.0,0.0
1798,72.0,60.0,240.0,10.0,0.0
1799,60.0,0.0,240.0,11.0,0.0
1800,40.0,0.0,60.0,13.0,0.0
1801,52.0,36.0,60.0,12.0,0.0
1802,41.0,60.0,60.0,13.0,0.0
1803,53.0,0.0,60.0,12.0,0.0
1804,88.0,0.0,90.0,0.0,0.0
1805,45.0,0.0,90.0,8.0,0.0
1806,45.0,0.0,90.0,4.0,0.0
1807,52.0,0.0,90.0,5.0,0.0
1808,64.0,0.0,90.0,5.0,0.0
1809,72.0,0.0,90.0,3.0,0.0
1810,76.0,0.0,90.0,3.0,0.0
1811,40.0,36.0,60.0,13.0,0.0
1812,81.0,0.0,90.0,2.0,0.0
1813,64.0,0.0,90.0,7.0,0.0
1814,76.0,0.0,90.0,7.0,0.0
1815,93.0,0.0,90.0,0.0,0.0
1816,69.0,0.0,90.0,6.0,0.0
1817,72.0,0.0,90.0,6.0,0.0
1818,52.0,0.0,60.0,12.0,0.0
1819,84.0,24.0,90.0,2.0,0.0
1820,33.0,0.0,90.0,14.0,0.0
1821,53.0,0.0,60.0,12.0,0.0
1822,41.0,0.0,60.0,13.0,0.0
1823,52.0,0.0,60.0,12.0,0.0
1824,81.0,12.0,90.0,2.0,0.0
1825,84.0,0.0,90.0,2.0,0.0
1826,60.0,0.0,90.0,11.0,0.0
1827,45.0,0.0,90.0,8.0,0.0
1828,48.0,0.0,90.0,4.0,0.0
1829,72.0,0.0,90.0,6.0,0.0
1830,93.0,0.0,90.0,0.0,0.0
1831,69.0,0.0,90.0,6.0,0.0
1832,64.0,0.0,90.0,7.0,0.0
1833,76.0,0.0,90.0,7.0,0.0
1834,76.0,0.0,90.0,3.0,0.0
1835,72.0,0.0,90.0,3.0,0.0
1836,64.0,0.0,90.0,5.0,0.0
1837,52.0,0.0,90.0,5.0,0.0
1838,36.0,0.0,90.0,14.0,0.0
1839,88.0,0.0,90.0,0.0,0.0
1840,40.0,36.0,60.0,13.0,0.0
1841,69.0,0.0,90.0,10.0,0.0
1842,53.0,72.0,40.0,12.0,0.0
1843,41.0,0.0,40.0,13.0,0.0
1844,52.0,0.0,90.0,8.0,0.0
1845,52.0,0.0,90.0,5.0,0.0
1846,64.0,0.0,90.0,5.0,0.0
1847,71.0,0.0,90.0,6.0,0.0
1848,52.0,0.0,90.0,4.0,0.0
1849,74.0,0.0,90.0,3.0,0.0
1850,40.0,36.0,60.0,13.0,0.0
1851,40.0,0.0,90.0,14.0,0.0
1852,71.0,0.0,90.0,3.0,0.0
1853,83.0,0.0,90.0,2.0,0.0
1854,68.0,0.0,90.0,10.0,0.0
1855,80.0,0.0,90.0,2.0,0.0
1856,92.0,24.0,90.0,0.0,0.0
1857,88.0,0.0,90.0,0.0,0.0
1858,52.0,0.0,60.0,12.0,0.0
1859,59.0,0.0,90.0,11.0,0.0
1860,64.0,0.0,90.0,7.0,0.0
1861,76.0,0.0,90.0,7.0,0.0
1862,53.0,60.0,60.0,12.0,0.0
1863,41.0,0.0,60.0,13.0,0.0
1864,40.0,60.0,60.0,13.0,0.0
1865,52.0,0.0,60.0,12.0,0.0
1866,41.0,0.0,60.0,13.0,0.0
1867,53.0,60.0,60.0,12.0,0.0
1868,76.0,32.0,120.0,11.0,0.0
1869,71.0,0.0,930.0,6.0,0.0
1870,88.0,0.0,120.0,10.0,0.0
1871,52.0,0.0,930.0,5.0,0.0
1872,40.0,24.0,930.0,4.0,0.0
1873,64.0,0.0,930.0,5.0,0.0
1874,80.0,0.0,90.0,3.0,0.0
1875,74.0,12.0,90.0,3.0,0.0
1876,40.0,0.0,930.0,14.0,0.0
1877,40.0,0.0,60.0,13.0,0.0
1878,88.0,0.0,930.0,0.0,0.0
1879,92.0,0.0,930.0,0.0,0.0
1880,52.0,0.0,930.0,4.0,0.0
1881,52.0,36.0,60.0,12.0,0.0
1882,64.0,0.0,930.0,7.0,0.0
1883,52.0,0.0,90.0,8.0,0.0
1884,83.0,0.0,930.0,2.0,0.0
1885,86.0,0.0,930.0,2.0,0.0
1886,76.0,0.0,930.0,7.0,0.0
1887,41.0,12.0,40.0,13.0,0.0
1888,53.0,0.0,40.0,12.0,0.0
1889,40.0,0.0,60.0,13.0,0.0
1890,52.0,12.0,60.0,12.0,0.0
1891,71.0,0.0,810.0,3.0,0.0
1892,77.0,0.0,120.0,11.0,0.0
1893,62.0,0.0,810.0,6.0,0.0
1894,89.0,0.0,120.0,10.0,0.0
1895,52.0,28.0,30.0,8.0,0.0
1896,74.0,0.0,810.0,3.0,0.0
1897,52.0,40.0,30.0,8.0,0.0
1898,53.0,0.0,60.0,12.0,0.0
1899,41.0,32.0,60.0,13.0,0.0
1900,52.0,8.0,30.0,8.0,0.0
1901,52.0,28.0,30.0,8.0,0.0
1902,40.0,0.0,60.0,13.0,0.0
1903,52.0,12.0,60.0,12.0,0.0
1904,76.0,32.0,120.0,11.0,0.0
1905,88.0,0.0,120.0,10.0,0.0
1906,52.0,40.0,30.0,8.0,0.0
1907,41.0,0.0,60.0,13.0,0.0
1908,53.0,0.0,60.0,12.0,0.0
1909,52.0,8.0,30.0,8.0,0.0
1910,52.0,28.0,30.0,8.0,0.0
1911,52.0,0.0,60.0,12.0,0.0
1912,86.0,12.0,60.0,10.0,0.0
1913,40.0,0.0,60.0,13.0,0.0
1914,74.0,0.0,60.0,11.0,0.0
1915,52.0,36.0,30.0,8.0,0.0
1916,41.0,0.0,40.0,13.0,0.0
1917,53.0,4.0,40.0,12.0,0.0
1918,52.0,68.0,30.0,8.0,0.0
1919,52.0,0.0,60.0,12.0,0.0
1920,40.0,0.0,60.0,13.0,0.0
1921,83.0,0.0,60.0,10.0,0.0
1922,71.0,36.0,60.0,11.0,0.0
1923,52.0,24.0,90.0,8.0,0.0
1924,53.0,60.0,60.0,12.0,0.0
1925,41.0,0.0,60.0,13.0,0.0
1926,80.0,0.0,60.0,10.0,0.0
1927,40.0,0.0,60.0,13.0,0.0
1928,68.0,0.0,60.0,11.0,0.0
1929,52.0,60.0,60.0,12.0,0.0
1930,53.0,0.0,60.0,12.0,0.0
1931,41.0,60.0,60.0,13.0,0.0
1932,52.0,0.0,60.0,12.0,0.0
1933,40.0,0.0,60.0,13.0,0.0
1934,65.0,0.0,60.0,11.0,0.0
1935,77.0,48.0,60.0,10.0,0.0
1936,41.0,0.0,40.0,13.0,0.0
1937,53.0,72.0,40.0,12.0,0.0
1938,52.0,0.0,60.0,12.0,0.0
1939,40.0,36.0,60.0,13.0,0.0
1940,64.0,60.0,240.0,11.0,0.0
1941,76.0,0.0,240.0,10.0,0.0
1942,41.0,0.0,60.0,13.0,0.0
1943,53.0,60.0,60.0,12.0,0.0
1944,52.0,0.0,60.0,12.0,0.0
1945,62.0,0.0,90.0,6.0,0.0
1946,76.0,0.0,90.0,7.0,0.0
1947,52.0,0.0,90.0,8.0,0.0
1948,52.0,0.0,90.0,4.0,0.0
1949,40.0,0.0,90.0,4.0,0.0
1950,40.0,0.0,90.0,14.0,0.0
1951,64.0,0.0,90.0,5.0,0.0
1952,71.0,0.0,90.0,6.0,0.0
1953,52.0,0.0,90.0,5.0,0.0
1954,88.0,0.0,90.0,0.0,0.0
1955,92.0,0.0,90.0,0.0,0.0
1956,71.0,0.0,90.0,3.0,0.0
1957,40.0,36.0,60.0,13.0,0.0
1958,83.0,0.0,90.0,2.0,0.0
1959,86.0,0.0,90.0,2.0,0.0
1960,74.0,0.0,90.0,3.0,0.0
1961,64.0,24.0,90.0,7.0,0.0
1962,41.0,0.0,60.0,13.0,0.0
1963,53.0,0.0,60.0,12.0,0.0
1964,40.0,0.0,90.0,4.0,0.0
1965,86.0,0.0,90.0,2.0,0.0
1966,52.0,0.0,90.0,4.0,0.0
1967,40.0,0.0,90.0,14.0,0.0
1968,40.0,0.0,90.0,13.0,0.0
1969,74.0,0.0,60.0,10.0,0.0
1970,71.0,0.0,90.0,6.0,0.0
1971,88.0,0.0,90.0,0.0,0.0
1972,92.0,0.0,90.0,0.0,0.0
1973,52.0,0.0,90.0,8.0,0.0
1974,74.0,0.0,90.0,3.0,0.0
1975,64.0,0.0,90.0,5.0,0.0
1976,52.0,0.0,90.0,12.0,0.0
1977,52.0,0.0,90.0,5.0,0.0
1978,83.0,0.0,90.0,2.0,0.0
1979,64.0,0.0,90.0,7.0,0.0
1980,76.0,12.0,90.0,7.0,0.0
1981,71.0,0.0,90.0,3.0,0.0
1982,59.0,36.0,60.0,11.0,0.0
1983,71.0,60.0,40.0,10.0,0.0
1984,62.0,0.0,40.0,11.0,0.0
1985,81.0,0.0,90.0,2.0,0.0
1986,84.0,0.0,90.0,2.0,0.0
1987,69.0,0.0,90.0,3.0,0.0
1988,45.0,48.0,40.0,13.0,0.0
1989,45.0,0.0,90.0,8.0,0.0
1990,72.0,0.0,90.0,3.0,0.0
1991,57.0,0.0,90.0,12.0,0.0
1992,88.0,0.0,90.0,0.0,0.0
1993,57.0,0.0,90.0,5.0,0.0
1994,93.0,0.0,90.0,0.0,0.0
1995,60.0,0.0,90.0,11.0,0.0
1996,81.0,0.0,90.0,7.0,0.0
1997,45.0,0.0,90.0,4.0,0.0
1998,57.0,0.0,90.0,4.0,0.0
1999,69.0,12.0,90.0,10.0,0.0
2000,69.0,0.0,90.0,7.0,0.0
2001,69.0,0.0,90.0,6.0,0.0
2002,69.0,0.0,90.0,5.0,0.0
2003,45.0,0.0,40.0,14.0,0.0
2004,45.0,120.0,40.0,14.0,0.0
2005,45.0,0.0,40.0,13.0,0.0
2006,45.0,36.0,180.0,14.0,0.0
2007,45.0,0.0,180.0,13.0,0.0
2008,69.0,0.0,40.0,11.0,0.0
2009,60.0,60.0,40.0,12.0,0.0
2010,81.0,0.0,40.0,10.0,0.0
2011,59.0,0.0,40.0,12.0,0.0
2012,71.0,24.0,40.0,11.0,0.0
2013,83.0,0.0,40.0,10.0,0.0
2014,72.0,0.0,40.0,11.0,0.0
2015,84.0,60.0,40.0,10.0,0.0
2016,57.0,0.0,40.0,12.0,0.0
2017,45.0,0.0,40.0,14.0,0.0
2018,74.0,0.0,90.0,3.0,0.0
2019,71.0,0.0,90.0,3.0,0.0
2020,81.0,0.0,90.0,0.0,0.0
2021,93.0,0.0,90.0,0.0,0.0
2022,62.0,0.0,90.0,12.0,0.0
2023,57.0,48.0,40.0,13.0,0.0
2024,69.0,0.0,90.0,5.0,0.0
2025,86.0,0.0,90.0,2.0,0.0
2026,45.0,0.0,90.0,8.0,0.0
2027,83.0,0.0,90.0,2.0,0.0
2028,69.0,0.0,90.0,7.0,0.0
2029,81.0,0.0,90.0,7.0,0.0
2030,69.0,0.0,90.0,6.0,0.0
2031,86.0,12.0,90.0,10.0,0.0
2032,74.0,0.0,90.0,11.0,0.0
2033,62.0,0.0,90.0,4.0,0.0
2034,59.0,0.0,90.0,4.0,0.0
2035,57.0,0.0,90.0,5.0,0.0
2036,57.0,0.0,40.0,13.0,0.0
2037,45.0,120.0,40.0,14.0,0.0
2038,45.0,0.0,180.0,14.0,0.0
2039,57.0,36.0,180.0,13.0,0.0
2040,62.0,0.0,40.0,12.0,0.0
2041,71.0,0.0,40.0,11.0,0.0
2042,83.0,60.0,40.0,10.0,0.0
2043,60.0,0.0,40.0,12.0,0.0
2044,72.0,24.0,40.0,11.0,0.0
2045,84.0,0.0,40.0,10.0,0.0
2046,59.0,0.0,40.0,12.0,0.0
2047,86.0,0.0,40.0,10.0,0.0
2048,74.0,60.0,40.0,11.0,0.0
2049,57.0,0.0,90.0,5.0,0.0
2050,69.0,0.0,90.0,5.0,0.0
2051,69.0,0.0,90.0,6.0,0.0
2052,45.0,48.0,40.0,14.0,0.0
2053,76.0,0.0,90.0,11.0,0.0
2054,88.0,0.0,90.0,10.0,0.0
2055,81.0,0.0,90.0,7.0,0.0
2056,93.0,0.0,90.0,0.0,0.0
2057,69.0,0.0,90.0,7.0,0.0
2058,88.0,0.0,90.0,2.0,0.0
2059,64.0,12.0,90.0,12.0,0.0
2060,76.0,0.0,90.0,3.0,0.0
2061,72.0,0.0,90.0,3.0,0.0
2062,57.0,0.0,40.0,13.0,0.0
2063,84.0,0.0,90.0,2.0,0.0
2064,81.0,0.0,90.0,0.0,0.0
2065,60.0,0.0,90.0,4.0,0.0
2066,45.0,0.0,90.0,8.0,0.0
2067,64.0,0.0,90.0,4.0,0.0
2068,45.0,0.0,40.0,14.0,0.0
2069,57.0,120.0,40.0,13.0,0.0
2070,45.0,0.0,180.0,14.0,0.0
2071,57.0,36.0,180.0,13.0,0.0
2072,72.0,0.0,40.0,11.0,0.0
2073,84.0,60.0,40.0,10.0,0.0
2074,64.0,0.0,40.0,12.0,0.0
2075,62.0,24.0,40.0,12.0,0.0
2076,86.0,0.0,40.0,10.0,0.0
2077,74.0,0.0,40.0,11.0,0.0
2078,88.0,0.0,40.0,10.0,0.0
2079,60.0,0.0,40.0,12.0,0.0
2080,76.0,108.0,40.0,11.0,0.0
2081,65.0,0.0,90.0,4.0,0.0
2082,62.0,0.0,90.0,4.0,0.0
2083,69.0,0.0,90.0,5.0,0.0
2084,74.0,0.0,90.0,3.0,0.0
2085,45.0,0.0,90.0,14.0,0.0
2086,45.0,0.0,90.0,8.0,0.0
2087,57.0,0.0,90.0,13.0,0.0
2088,77.0,0.0,90.0,11.0,0.0
2089,93.0,0.0,90.0,0.0,0.0
2090,95.0,0.0,90.0,0.0,0.0
2091,69.0,0.0,90.0,7.0,0.0
2092,89.0,120.0,90.0,10.0,0.0
2093,77.0,0.0,90.0,3.0,0.0
2094,57.0,0.0,90.0,5.0,0.0
2095,81.0,0.0,90.0,7.0,0.0
2096,86.0,0.0,90.0,2.0,0.0
2097,65.0,0.0,90.0,12.0,0.0
2098,89.0,0.0,90.0,2.0,0.0
2099,69.0,0.0,90.0,6.0,0.0
2100,65.0,0.0,90.0,4.0,0.0
2101,62.0,0.0,90.0,12.0,0.0
2102,69.0,0.0,90.0,6.0,0.0
2103,77.0,0.0,90.0,3.0,0.0
2104,74.0,0.0,90.0,3.0,0.0
2105,89.0,0.0,90.0,10.0,0.0
2106,89.0,0.0,90.0,2.0,0.0
2107,86.0,0.0,90.0,2.0,0.0
2108,57.0,0.0,90.0,13.0,0.0
2109,69.0,72.0,90.0,7.0,0.0
2110,95.0,0.0,90.0,0.0,0.0
2111,77.0,0.0,90.0,11.0,0.0
2112,45.0,0.0,90.0,14.0,0.0
2113,57.0,0.0,90.0,5.0,0.0
2114,45.0,0.0,90.0,8.0,0.0
2115,93.0,0.0,90.0,0.0,0.0
2116,69.0,0.0,90.0,5.0,0.0
2117,81.0,0.0,90.0,7.0,0.0
2118,62.0,0.0,90.0,4.0,0.0
2119,69.0,0.0,90.0,7.0,0.0
2120,81.0,0.0,90.0,7.0,0.0
2121,88.0,0.0,90.0,2.0,0.0
2122,86.0,0.0,90.0,2.0,0.0
2123,74.0,0.0,90.0,3.0,0.0
2124,76.0,0.0,90.0,3.0,0.0
2125,62.0,0.0,90.0,4.0,0.0
2126,59.0,48.0,40.0,12.0,0.0
2127,69.0,0.0,90.0,5.0,0.0
2128,45.0,0.0,90.0,14.0,0.0
2129,90.0,0.0,90.0,10.0,0.0
2130,78.0,0.0,90.0,11.0,0.0
2131,69.0,0.0,90.0,6.0,0.0
2132,57.0,0.0,90.0,13.0,0.0
2133,95.0,0.0,90.0,0.0,0.0
2134,93.0,0.0,90.0,0.0,0.0
2135,57.0,12.0,90.0,5.0,0.0
2136,45.0,0.0,90.0,8.0,0.0
2137,64.0,0.0,90.0,4.0,0.0
2138,64.0,60.0,40.0,12.0,0.0
2139,81.0,0.0,90.0,11.0,0.0
2140,60.0,0.0,90.0,4.0,0.0
2141,45.0,0.0,90.0,8.0,0.0
2142,72.0,0.0,90.0,3.0,0.0
2143,76.0,0.0,90.0,3.0,0.0
2144,69.0,0.0,90.0,7.0,0.0
2145,45.0,48.0,40.0,13.0,0.0
2146,93.0,0.0,90.0,10.0,0.0
2147,64.0,0.0,90.0,4.0,0.0
2148,57.0,0.0,90.0,12.0,0.0
2149,69.0,0.0,90.0,6.0,0.0
2150,93.0,0.0,90.0,0.0,0.0
2151,81.0,12.0,90.0,7.0,0.0
2152,84.0,0.0,90.0,2.0,0.0
2153,88.0,0.0,90.0,2.0,0.0
2154,69.0,0.0,90.0,5.0,0.0
2155,57.0,0.0,90.0,5.0,0.0
2156,33.0,0.0,40.0,14.0,0.0
2157,45.0,120.0,40.0,13.0,0.0
2158,33.0,0.0,40.0,14.0,0.0
2159,45.0,36.0,180.0,13.0,0.0
2160,33.0,0.0,180.0,14.0,0.0
2161,69.0,60.0,40.0,11.0,0.0
2162,60.0,0.0,40.0,12.0,0.0
2163,81.0,0.0,40.0,10.0,0.0
2164,71.0,0.0,40.0,11.0,0.0
2165,83.0,0.0,40.0,10.0,0.0
2166,59.0,24.0,40.0,12.0,0.0
2167,72.0,60.0,40.0,11.0,0.0
2168,84.0,0.0,40.0,10.0,0.0
2169,57.0,0.0,40.0,12.0,0.0
2170,83.0,0.0,90.0,2.0,0.0
2171,86.0,0.0,90.0,2.0,0.0
2172,69.0,0.0,90.0,6.0,0.0
2173,69.0,0.0,90.0,5.0,0.0
2174,74.0,0.0,90.0,3.0,0.0
2175,62.0,0.0,90.0,12.0,0.0
2176,57.0,0.0,90.0,5.0,0.0
2177,71.0,0.0,90.0,3.0,0.0
2178,74.0,0.0,90.0,11.0,0.0
2179,45.0,0.0,90.0,8.0,0.0
2180,93.0,0.0,90.0,0.0,0.0
2181,86.0,0.0,90.0,10.0,0.0
2182,45.0,48.0,40.0,13.0,0.0
2183,33.0,0.0,40.0,14.0,0.0
2184,81.0,12.0,90.0,0.0,0.0
2185,59.0,0.0,90.0,4.0,0.0
2186,62.0,0.0,90.0,4.0,0.0
2187,81.0,0.0,90.0,7.0,0.0
2188,69.0,0.0,90.0,7.0,0.0
2189,33.0,120.0,40.0,14.0,0.0
2190,45.0,0.0,40.0,13.0,0.0
2191,33.0,0.0,180.0,14.0,0.0
2192,45.0,36.0,180.0,13.0,0.0
2193,62.0,60.0,40.0,12.0,0.0
2194,71.0,0.0,40.0,11.0,0.0
2195,83.0,0.0,40.0,10.0,0.0
2196,84.0,0.0,40.0,10.0,0.0
2197,60.0,0.0,40.0,12.0,0.0
2198,72.0,24.0,40.0,11.0,0.0
2199,86.0,0.0,40.0,10.0,0.0
2200,59.0,60.0,40.0,12.0,0.0
2201,74.0,0.0,40.0,11.0,0.0
2202,72.0,0.0,90.0,3.0,0.0
2203,76.0,0.0,90.0,11.0,0.0
2204,88.0,0.0,90.0,10.0,0.0
2205,81.0,0.0,90.0,7.0,0.0
2206,84.0,0.0,90.0,2.0,0.0
2207,64.0,0.0,90.0,12.0,0.0
2208,45.0,0.0,90.0,8.0,0.0
2209,33.0,0.0,40.0,14.0,0.0
2210,76.0,0.0,90.0,3.0,0.0
2211,45.0,48.0,40.0,13.0,0.0
2212,88.0,0.0,90.0,2.0,0.0
2213,69.0,0.0,90.0,7.0,0.0
2214,64.0,0.0,90.0,4.0,0.0
2215,93.0,12.0,90.0,0.0,0.0
2216,81.0,0.0,90.0,0.0,0.0
2217,60.0,0.0,90.0,4.0,0.0
2218,69.0,0.0,90.0,6.0,0.0
2219,69.0,0.0,90.0,5.0,0.0
2220,57.0,0.0,90.0,5.0,0.0
2221,33.0,120.0,40.0,14.0,0.0
2222,45.0,0.0,40.0,13.0,0.0
2223,45.0,24.0,180.0,13.0,0.0
2224,33.0,0.0,180.0,14.0,0.0
2225,72.0,0.0,40.0,11.0,0.0
2226,84.0,0.0,40.0,10.0,0.0
2227,64.0,60.0,40.0,12.0,0.0
2228,69.0,0.0,90.0,6.0,0.0
2229,84.0,0.0,90.0,2.0,0.0
2230,72.0,0.0,90.0,3.0,0.0
2231,60.0,0.0,90.0,4.0,0.0
2232,57.0,0.0,90.0,4.0,0.0
2233,76.0,0.0,90.0,2.0,0.0
2234,69.0,0.0,90.0,7.0,0.0
2235,74.0,0.0,40.0,11.0,0.0
2236,45.0,0.0,90.0,8.0,0.0
2237,62.0,24.0,40.0,12.0,0.0
2238,93.0,0.0,90.0,0.0,0.0
2239,88.0,0.0,90.0,0.0,0.0
2240,76.0,0.0,90.0,3.0,0.0
2241,69.0,12.0,90.0,5.0,0.0
2242,57.0,0.0,90.0,5.0,0.0
2243,86.0,0.0,40.0,10.0,0.0
2244,81.0,0.0,90.0,7.0,0.0
2245,76.0,0.0,40.0,11.0,0.0
2246,88.0,0.0,40.0,10.0,0.0
2247,60.0,108.0,40.0,12.0,0.0
2248,69.0,0.0,90.0,7.0,0.0
2249,45.0,0.0,90.0,8.0,0.0
2250,89.0,0.0,90.0,0.0,0.0
2251,84.0,0.0,90.0,2.0,0.0
2252,77.0,0.0,90.0,2.0,0.0
2253,96.0,0.0,90.0,0.0,0.0
2254,81.0,0.0,90.0,7.0,0.0
2255,72.0,0.0,90.0,3.0,0.0
2256,77.0,0.0,90.0,11.0,0.0
2257,77.0,0.0,90.0,3.0,0.0
2258,89.0,0.0,90.0,10.0,0.0
2259,69.0,0.0,90.0,5.0,0.0
2260,57.0,0.0,90.0,5.0,0.0
2261,45.0,0.0,90.0,13.0,0.0
2262,57.0,0.0,90.0,4.0,0.0
2263,60.0,0.0,90.0,4.0,0.0
2264,72.0,0.0,90.0,12.0,0.0
2265,72.0,120.0,90.0,6.0,0.0
2266,33.0,0.0,90.0,14.0,0.0
2267,89.0,0.0,90.0,0.0,0.0
2268,72.0,0.0,90.0,3.0,0.0
2269,77.0,0.0,90.0,3.0,0.0
2270,60.0,0.0,90.0,4.0,0.0
2271,57.0,0.0,90.0,4.0,0.0
2272,69.0,0.0,90.0,7.0,0.0
2273,96.0,0.0,90.0,0.0,0.0
2274,89.0,0.0,90.0,10.0,0.0
2275,77.0,0.0,90.0,11.0,0.0
2276,57.0,0.0,90.0,5.0,0.0
2277,45.0,0.0,90.0,13.0,0.0
2278,69.0,0.0,90.0,5.0,0.0
2279,45.0,0.0,90.0,8.0,0.0
2280,60.0,0.0,90.0,12.0,0.0
2281,77.0,0.0,90.0,2.0,0.0
2282,84.0,0.0,90.0,2.0,0.0
2283,45.0,120.0,90.0,14.0,0.0
2284,72.0,0.0,90.0,6.0,0.0
2285,60.0,216.0,90.0,12.0,0.0
2286,72.0,0.0,90.0,3.0,0.0
2287,90.0,0.0,90.0,10.0,0.0
2288,96.0,0.0,90.0,0.0,0.0
2289,56.0,0.0,90.0,4.0,0.0
2290,60.0,0.0,90.0,4.0,0.0
2291,78.0,0.0,90.0,11.0,0.0
2292,84.0,0.0,90.0,2.0,0.0
2293,90.0,0.0,90.0,0.0,0.0
2294,44.0,0.0,90.0,14.0,0.0
2295,72.0,0.0,90.0,6.0,0.0
2296,44.0,0.0,90.0,13.0,0.0
2297,78.0,0.0,90.0,3.0,0.0
2298,78.0,0.0,90.0,2.0,0.0
2299,91.0,0.0,240.0,10.0,0.0
2300,67.0,0.0,300.0,6.0,0.0
2301,55.0,0.0,300.0,4.0,0.0
2302,59.0,12.0,300.0,4.0,0.0
2303,79.0,48.0,240.0,11.0,0.0
2304,55.0,0.0,300.0,6.0,0.0
2305,91.0,0.0,300.0,0.0,0.0
2306,59.0,48.0,180.0,12.0,0.0
2307,71.0,0.0,300.0,5.0,0.0
2308,79.0,0.0,300.0,2.0,0.0
2309,43.0,0.0,300.0,13.0,0.0
2310,95.0,0.0,300.0,0.0,0.0
2311,74.0,0.0,300.0,3.0,0.0
2312,83.0,0.0,300.0,2.0,0.0
2313,71.0,0.0,300.0,3.0,0.0
2314,43.0,0.0,300.0,14.0,0.0
2315,86.0,48.0,60.0,10.0,0.0
2316,77.0,0.0,60.0,11.0,0.0
2317,62.0,0.0,40.0,12.0,0.0
2318,65.0,108.0,40.0,12.0,0.0
2319,74.0,0.0,40.0,11.0,0.0
2320,83.0,0.0,40.0,10.0,0.0
2321,43.0,0.0,300.0,13.0,0.0
2322,72.0,0.0,300.0,3.0,0.0
2323,76.0,0.0,300.0,3.0,0.0
2324,76.0,0.0,90.0,7.0,0.0
2325,64.0,96.0,90.0,7.0,0.0
2326,96.0,0.0,300.0,0.0,0.0
2327,52.0,0.0,90.0,8.0,0.0
2328,43.0,12.0,300.0,14.0,0.0
2329,79.0,0.0,300.0,2.0,0.0
2330,84.0,0.0,300.0,2.0,0.0
2331,91.0,0.0,300.0,0.0,0.0
2332,60.0,48.0,180.0,12.0,0.0
2333,55.0,0.0,300.0,6.0,0.0
2334,67.0,0.0,300.0,6.0,0.0
2335,64.0,0.0,300.0,4.0,0.0
2336,60.0,0.0,300.0,4.0,0.0
2337,88.0,48.0,240.0,10.0,0.0
2338,79.0,0.0,240.0,11.0,0.0
2339,84.0,0.0,60.0,10.0,0.0
2340,76.0,48.0,60.0,11.0,0.0
2341,64.0,0.0,40.0,12.0,0.0
2342,79.0,0.0,40.0,10.0,0.0
2343,67.0,204.0,40.0,12.0,0.0
2344,72.0,0.0,40.0,11.0,0.0
2345,84.0,48.0,240.0,10.0,0.0
2346,57.0,48.0,180.0,12.0,0.0
2347,55.0,0.0,300.0,6.0,0.0
2348,67.0,0.0,300.0,6.0,0.0
2349,78.0,0.0,240.0,11.0,0.0
2350,60.0,0.0,300.0,4.0,0.0
2351,62.0,0.0,300.0,4.0,0.0
2352,81.0,0.0,300.0,2.0,0.0
2353,43.0,0.0,300.0,13.0,0.0
2354,72.0,0.0,300.0,3.0,0.0
2355,43.0,0.0,300.0,14.0,0.0
2356,93.0,0.0,300.0,0.0,0.0
2357,84.0,0.0,300.0,2.0,0.0
2358,96.0,0.0,300.0,0.0,0.0
2359,74.0,0.0,300.0,3.0,0.0
2360,60.0,12.0,40.0,12.0,0.0
2361,72.0,48.0,60.0,11.0,0.0
2362,81.0,0.0,60.0,10.0,0.0
2363,62.0,0.0,40.0,12.0,0.0
2364,78.0,108.0,40.0,10.0,0.0
2365,69.0,0.0,40.0,11.0,0.0
2366,62.0,0.0,300.0,4.0,0.0
2367,59.0,0.0,300.0,4.0,0.0
2368,79.0,0.0,90.0,2.0,0.0
2369,71.0,0.0,300.0,5.0,0.0
2370,83.0,0.0,90.0,2.0,0.0
2371,79.0,24.0,180.0,10.0,0.0
2372,91.0,96.0,90.0,0.0,0.0
2373,74.0,0.0,300.0,3.0,0.0
2374,71.0,0.0,300.0,3.0,0.0
2375,43.0,48.0,300.0,13.0,0.0
2376,55.0,0.0,300.0,6.0,0.0
2377,67.0,0.0,300.0,6.0,0.0
2378,71.0,0.0,180.0,11.0,0.0
2379,55.0,0.0,180.0,12.0,0.0
2380,95.0,0.0,90.0,0.0,0.0
2381,43.0,0.0,300.0,14.0,0.0
2382,91.0,0.0,90.0,0.0,0.0
2383,86.0,72.0,90.0,0.0,0.0
2384,79.0,0.0,90.0,2.0,0.0
2385,83.0,0.0,90.0,2.0,0.0
2386,86.0,12.0,90.0,0.0,0.0
2387,79.0,0.0,90.0,2.0,0.0
2388,91.0,0.0,90.0,0.0,0.0
2389,83.0,0.0,90.0,2.0,0.0
2390,59.0,0.0,40.0,12.0,0.0
2391,71.0,0.0,40.0,11.0,0.0
2392,74.0,0.0,40.0,10.0,0.0
2393,71.0,0.0,40.0,10.0,0.0
2394,67.0,0.0,40.0,11.0,0.0
2395,62.0,204.0,40.0,12.0,0.0
2396,67.0,0.0,300.0,6.0,0.0
2397,55.0,0.0,300.0,6.0,0.0
2398,43.0,0.0,300.0,14.0,0.0
2399,55.0,0.0,180.0,12.0,0.0
2400,91.0,0.0,300.0,0.0,0.0
2401,86.0,0.0,300.0,0.0,0.0
2402,59.0,0.0,300.0,4.0,0.0
2403,79.0,0.0,300.0,2.0,0.0
2404,62.0,0.0,300.0,4.0,0.0
2405,77.0,0.0,180.0,10.0,0.0
2406,74.0,0.0,300.0,3.0,0.0
2407,71.0,0.0,300.0,3.0,0.0
2408,74.0,96.0,180.0,11.0,0.0
2409,71.0,0.0,300.0,5.0,0.0
2410,83.0,0.0,300.0,2.0,0.0
2411,43.0,0.0,300.0,13.0,0.0
2412,71.0,0.0,40.0,11.0,0.0
2413,53.0,0.0,40.0,12.0,0.0
2414,74.0,60.0,40.0,10.0,0.0
2415,55.0,0.0,40.0,12.0,0.0
2416,71.0,108.0,40.0,10.0,0.0
2417,65.0,0.0,40.0,11.0,0.0
2418,64.0,0.0,90.0,7.0,0.0
2419,72.0,0.0,180.0,11.0,0.0
2420,91.0,0.0,300.0,0.0,0.0
2421,88.0,0.0,300.0,0.0,0.0
2422,52.0,96.0,180.0,12.0,0.0
2423,76.0,0.0,180.0,10.0,0.0
2424,52.0,96.0,90.0,8.0,0.0
2425,55.0,0.0,300.0,6.0,0.0
2426,76.0,0.0,90.0,7.0,0.0
2427,79.0,0.0,300.0,2.0,0.0
2428,72.0,0.0,300.0,3.0,0.0
2429,60.0,0.0,300.0,4.0,0.0
2430,43.0,0.0,300.0,13.0,0.0
2431,76.0,0.0,300.0,3.0,0.0
2432,64.0,60.0,300.0,4.0,0.0
2433,84.0,0.0,300.0,2.0,0.0
2434,43.0,0.0,300.0,14.0,0.0
2435,67.0,0.0,300.0,6.0,0.0
2436,55.0,0.0,40.0,12.0,0.0
2437,67.0,0.0,40.0,11.0,0.0
2438,72.0,0.0,40.0,10.0,0.0
2439,60.0,0.0,40.0,12.0,0.0
2440,64.0,204.0,40.0,11.0,0.0
2441,67.0,0.0,40.0,10.0,0.0
2442,72.0,0.0,300.0,3.0,0.0
2443,54.0,0.0,180.0,12.0,0.0
2444,43.0,0.0,300.0,13.0,0.0
2445,81.0,60.0,300.0,2.0,0.0
2446,84.0,0.0,300.0,2.0,0.0
2447,67.0,0.0,300.0,6.0,0.0
2448,69.0,96.0,180.0,11.0,0.0
2449,74.0,0.0,300.0,3.0,0.0
2450,72.0,0.0,180.0,10.0,0.0
2451,55.0,0.0,300.0,6.0,0.0
2452,60.0,0.0,300.0,4.0,0.0
2453,62.0,0.0,300.0,4.0,0.0
2454,90.0,0.0,300.0,0.0,0.0
2455,93.0,0.0,300.0,0.0,0.0
2456,69.0,0.0,300.0,5.0,0.0
2457,43.0,0.0,300.0,14.0,0.0
2458,66.0,0.0,40.0,11.0,0.0
2459,69.0,0.0,40.0,10.0,0.0
2460,57.0,0.0,40.0,12.0,0.0
2461,60.0,108.0,40.0,11.0,0.0
2462,66.0,0.0,40.0,10.0,0.0
2463,62.0,0.0,40.0,12.0,0.0
2464,59.0,0.0,90.0,11.0,0.0
2465,43.0,0.0,90.0,14.0,0.0
2466,79.0,0.0,90.0,2.0,0.0
2467,55.0,324.0,90.0,6.0,0.0
2468,67.0,0.0,90.0,6.0,0.0
2469,59.0,0.0,90.0,4.0,0.0
2470,62.0,0.0,90.0,4.0,0.0
2471,83.0,0.0,90.0,2.0,0.0
2472,71.0,0.0,90.0,3.0,0.0
2473,43.0,0.0,90.0,13.0,0.0
2474,91.0,0.0,90.0,0.0,0.0
2475,67.0,0.0,90.0,10.0,0.0
2476,74.0,0.0,90.0,3.0,0.0
2477,62.0,0.0,90.0,12.0,0.0
2478,48.0,0.0,60.0,13.0,0.0
2479,67.0,0.0,60.0,10.0,0.0
2480,36.0,0.0,60.0,14.0,0.0
2481,64.0,0.0,60.0,11.0,0.0
2482,60.0,120.0,60.0,12.0,0.0
2483,36.0,0.0,60.0,14.0,0.0
2484,67.0,0.0,60.0,10.0,0.0
2485,48.0,0.0,60.0,13.0,0.0
2486,60.0,168.0,60.0,12.0,0.0
2487,64.0,0.0,60.0,11.0,0.0
2488,64.0,0.0,40.0,11.0,0.0
2489,48.0,108.0,40.0,13.0,0.0
2490,60.0,0.0,40.0,12.0,0.0
2491,67.0,0.0,40.0,10.0,0.0
2492,36.0,0.0,40.0,14.0,0.0
2493,65.0,0.0,90.0,11.0,0.0
2494,60.0,0.0,90.0,12.0,0.0
2495,69.0,0.0,90.0,10.0,0.0
2496,53.0,0.0,90.0,13.0,0.0
2497,41.0,120.0,90.0,14.0,0.0
2498,65.0,0.0,90.0,11.0,0.0
2499,53.0,0.0,90.0,13.0,0.0
2500,69.0,0.0,90.0,10.0,0.0
2501,60.0,240.0,90.0,12.0,0.0
2502,41.0,0.0,90.0,14.0,0.0
2503,55.0,48.0,300.0,4.0,0.0
2504,62.0,0.0,300.0,4.0,0.0
2505,79.0,120.0,90.0,3.0,0.0
2506,71.0,120.0,330.0,3.0,0.0
2507,67.0,48.0,660.0,6.0,0.0
2508,74.0,72.0,90.0,3.0,0.0
2509,77.0,0.0,90.0,3.0,0.0
2510,84.0,0.0,120.0,2.0,0.0
2511,60.0,0.0,300.0,4.0,0.0
2512,72.0,0.0,300.0,3.0,0.0
2513,76.0,0.0,300.0,3.0,0.0
2514,64.0,0.0,300.0,4.0,0.0
2515,88.0,96.0,120.0,2.0,0.0
2516,91.0,24.0,90.0,0.0,0.0
2517,79.0,0.0,120.0,2.0,0.0
2518,88.0,24.0,90.0,0.0,0.0
2519,84.0,48.0,120.0,2.0,0.0
2520,79.0,0.0,90.0,2.0,0.0
2521,76.0,84.0,90.0,2.0,0.0
2522,96.0,0.0,90.0,0.0,0.0
2523,67.0,0.0,60.0,10.0,0.0
2524,48.0,0.0,60.0,13.0,0.0
2525,60.0,0.0,60.0,12.0,0.0
2526,64.0,120.0,60.0,11.0,0.0
2527,36.0,0.0,60.0,14.0,0.0
2528,60.0,0.0,60.0,12.0,0.0
2529,36.0,0.0,60.0,14.0,0.0
2530,64.0,168.0,60.0,11.0,0.0
2531,67.0,0.0,60.0,10.0,0.0
2532,48.0,0.0,60.0,13.0,0.0
2533,67.0,0.0,40.0,10.0,0.0
2534,48.0,0.0,40.0,13.0,0.0
2535,36.0,0.0,40.0,14.0,0.0
2536,60.0,0.0,40.0,12.0,0.0
2537,64.0,108.0,40.0,11.0,0.0
2538,69.0,0.0,90.0,10.0,0.0
2539,60.0,0.0,90.0,12.0,0.0
2540,53.0,0.0,90.0,13.0,0.0
2541,65.0,0.0,90.0,11.0,0.0
2542,41.0,120.0,90.0,14.0,0.0
2543,41.0,0.0,90.0,14.0,0.0
2544,69.0,0.0,90.0,10.0,0.0
2545,53.0,240.0,90.0,13.0,0.0
2546,60.0,0.0,90.0,12.0,0.0
2547,65.0,0.0,90.0,11.0,0.0
2548,79.0,120.0,90.0,3.0,0.0
2549,71.0,120.0,330.0,3.0,0.0
2550,55.0,0.0,300.0,4.0,0.0
2551,67.0,0.0,660.0,6.0,0.0
2552,62.0,48.0,300.0,4.0,0.0
2553,74.0,72.0,90.0,3.0,0.0
2554,77.0,0.0,90.0,3.0,0.0
2555,60.0,48.0,300.0,4.0,0.0
2556,88.0,96.0,120.0,2.0,0.0
2557,72.0,0.0,300.0,3.0,0.0
2558,64.0,0.0,300.0,4.0,0.0
2559,91.0,24.0,90.0,0.0,0.0
2560,76.0,0.0,300.0,3.0,0.0
2561,84.0,0.0,15.0,2.0,0.0
2562,88.0,24.0,90.0,0.0,0.0
2563,79.0,48.0,120.0,2.0,0.0
2564,76.0,0.0,90.0,2.0,0.0
2565,79.0,84.0,90.0,2.0,0.0
2566,96.0,0.0,90.0,0.0,0.0
2567,67.0,0.0,60.0,10.0,0.0
2568,48.0,120.0,60.0,13.0,0.0
2569,60.0,0.0,60.0,12.0,0.0
2570,64.0,0.0,60.0,11.0,0.0
2571,36.0,0.0,60.0,14.0,0.0
2572,67.0,0.0,60.0,10.0,0.0
2573,64.0,168.0,60.0,11.0,0.0
2574,60.0,0.0,60.0,12.0,0.0
2575,48.0,0.0,60.0,13.0,0.0
2576,36.0,0.0,60.0,14.0,0.0
2577,48.0,0.0,40.0,13.0,0.0
2578,36.0,108.0,40.0,14.0,0.0
2579,64.0,0.0,40.0,11.0,0.0
2580,67.0,0.0,40.0,10.0,0.0
2581,60.0,0.0,40.0,12.0,0.0
2582,65.0,120.0,90.0,11.0,0.0
2583,60.0,0.0,90.0,12.0,0.0
2584,68.0,0.0,90.0,10.0,0.0
2585,41.0,0.0,90.0,14.0,0.0
2586,53.0,0.0,90.0,13.0,0.0
2587,53.0,0.0,90.0,13.0,0.0
2588,65.0,0.0,90.0,11.0,0.0
2589,68.0,432.0,90.0,10.0,0.0
2590,41.0,0.0,90.0,14.0,0.0
2591,60.0,0.0,90.0,12.0,0.0
2592,49.0,0.0,2100.0,13.0,0.0
2593,61.0,104.0,2100.0,12.0,0.0
2594,92.0,0.0,300.0,0.0,0.0
2595,77.0,0.0,360.0,2.0,0.0
2596,53.0,0.0,360.0,4.0,0.0
2597,37.0,0.0,2100.0,14.0,0.0
2598,73.0,0.0,2100.0,3.0,0.0
2599,85.0,0.0,2100.0,3.0,0.0
2600,56.0,96.0,360.0,4.0,0.0
2601,89.0,72.0,300.0,0.0,0.0
2602,80.0,0.0,360.0,2.0,0.0
2603,94.0,24.0,90.0,0.0,0.0
2604,90.0,0.0,90.0,0.0,0.0
2605,82.0,96.0,120.0,2.0,0.0
2606,58.0,0.0,120.0,4.0,0.0
2607,78.0,0.0,120.0,2.0,0.0
2608,54.0,0.0,120.0,4.0,0.0
2609,60.0,96.0,120.0,4.0,0.0
2610,56.0,0.0,120.0,4.0,0.0
2611,96.0,0.0,90.0,0.0,0.0
2612,80.0,0.0,120.0,2.0,0.0
2613,92.0,24.0,90.0,0.0,0.0
2614,84.0,0.0,120.0,2.0,0.0
2615,97.0,0.0,90.0,0.0,0.0
2616,94.0,312.0,90.0,0.0,0.0
2617,85.0,0.0,90.0,2.0,0.0
2618,82.0,0.0,90.0,2.0,0.0
2619,58.0,0.0,90.0,4.0,0.0
2620,61.0,0.0,90.0,4.0,0.0
2621,53.0,96.0,360.0,4.0,0.0
2622,89.0,72.0,300.0,0.0,0.0
2623,92.0,0.0,300.0,0.0,0.0
2624,56.0,0.0,360.0,4.0,0.0
2625,77.0,0.0,360.0,2.0,0.0
2626,80.0,0.0,360.0,2.0,0.0
2627,58.0,0.0,120.0,4.0,0.0
2628,54.0,0.0,120.0,4.0,0.0
2629,78.0,96.0,120.0,2.0,0.0
2630,82.0,0.0,120.0,2.0,0.0
2631,94.0,24.0,90.0,0.0,0.0
2632,90.0,0.0,90.0,0.0,0.0
2633,96.0,24.0,90.0,0.0,0.0
2634,92.0,0.0,90.0,0.0,0.0
2635,80.0,96.0,120.0,2.0,0.0
2636,56.0,0.0,120.0,4.0,0.0
2637,60.0,0.0,120.0,4.0,0.0
2638,84.0,0.0,120.0,2.0,0.0
2639,82.0,0.0,90.0,2.0,0.0
2640,85.0,0.0,90.0,2.0,0.0
2641,61.0,312.0,90.0,4.0,0.0
2642,97.0,0.0,90.0,0.0,0.0
2643,94.0,0.0,90.0,0.0,0.0
2644,58.0,0.0,90.0,4.0,0.0
2645,80.0,0.0,300.0,2.0,0.0
2646,53.0,0.0,300.0,4.0,0.0
2647,92.0,0.0,300.0,0.0,0.0
2648,77.0,0.0,300.0,2.0,0.0
2649,89.0,0.0,300.0,0.0,0.0
2650,56.0,360.0,300.0,4.0,0.0
2651,93.0,0.0,540.0,0.0,0.0
2652,81.0,0.0,660.0,2.0,0.0
2653,78.0,24.0,660.0,2.0,0.0
2654,54.0,0.0,660.0,4.0,0.0
2655,57.0,0.0,660.0,4.0,0.0
2656,90.0,0.0,540.0,0.0,0.0
2657,74.0,0.0,30.0,11.0,0.0
2658,60.0,0.0,300.0,12.0,0.0
2659,86.0,0.0,300.0,3.0,0.0
2660,74.0,0.0,300.0,3.0,0.0
2661,69.0,0.0,300.0,6.0,0.0
2662,36.0,0.0,300.0,14.0,0.0
2663,62.0,0.0,300.0,6.0,0.0
2664,86.0,40.0,30.0,10.0,0.0
2665,48.0,0.0,300.0,13.0,0.0
2666,86.0,0.0,30.0,10.0,0.0
2667,74.0,40.0,30.0,11.0,0.0
2668,86.0,0.0,30.0,10.0,0.0
2669,74.0,40.0,30.0,11.0,0.0
2670,74.0,0.0,30.0,11.0,0.0
2671,86.0,40.0,30.0,10.0,0.0
2672,74.0,40.0,30.0,11.0,0.0
2673,86.0,0.0,30.0,10.0,0.0
2674,74.0,0.0,30.0,11.0,0.0
2675,86.0,40.0,30.0,10.0,0.0
2676,74.0,16.0,30.0,11.0,0.0
2677,86.0,0.0,30.0,10.0,0.0
2678,86.0,40.0,30.0,10.0,0.0
2679,74.0,0.0,30.0,11.0,0.0
2680,74.0,40.0,30.0,11.0,0.0
2681,86.0,0.0,30.0,10.0,0.0
2682,91.0,0.0,30.0,10.0,0.0
2683,86.0,0.0,300.0,3.0,0.0
2684,77.0,0.0,300.0,3.0,0.0
2685,59.0,0.0,300.0,12.0,0.0
2686,79.0,0.0,300.0,2.0,0.0
2687,35.0,0.0,300.0,14.0,0.0
2688,71.0,0.0,300.0,5.0,0.0
2689,86.0,0.0,300.0,2.0,0.0
2690,55.0,0.0,300.0,4.0,0.0
2691,59.0,0.0,300.0,4.0,0.0
2692,67.0,0.0,300.0,6.0,0.0
2693,89.0,0.0,300.0,0.0,0.0
2694,55.0,24.0,300.0,6.0,0.0
2695,67.0,40.0,30.0,11.0,0.0
2696,79.0,0.0,30.0,11.0,0.0
2697,47.0,0.0,300.0,13.0,0.0
2698,91.0,0.0,300.0,0.0,0.0
2699,79.0,0.0,30.0,11.0,0.0
2700,91.0,40.0,30.0,10.0,0.0
2701,67.0,0.0,30.0,11.0,0.0
2702,91.0,0.0,30.0,10.0,0.0
2703,79.0,40.0,30.0,11.0,0.0
2704,67.0,0.0,30.0,11.0,0.0
2705,67.0,0.0,30.0,11.0,0.0
2706,79.0,40.0,30.0,11.0,0.0
2707,91.0,0.0,30.0,10.0,0.0
2708,79.0,0.0,30.0,11.0,0.0
2709,67.0,0.0,30.0,11.0,0.0
2710,91.0,40.0,30.0,10.0,0.0
2711,79.0,40.0,30.0,11.0,0.0
2712,67.0,0.0,30.0,11.0,0.0
2713,91.0,0.0,30.0,10.0,0.0
2714,91.0,0.0,30.0,10.0,0.0
2715,67.0,16.0,30.0,11.0,0.0
2716,79.0,0.0,30.0,11.0,0.0
2717,91.0,0.0,30.0,10.0,0.0
2718,67.0,0.0,30.0,11.0,0.0
2719,79.0,40.0,30.0,11.0,0.0
2720,67.0,0.0,30.0,11.0,0.0
2721,91.0,40.0,30.0,10.0,0.0
2722,79.0,0.0,30.0,11.0,0.0
2723,52.0,0.0,30.0,12.0,0.0
2724,36.0,0.0,300.0,14.0,0.0
2725,88.0,0.0,90.0,3.0,0.0
2726,48.0,0.0,300.0,13.0,0.0
2727,88.0,0.0,90.0,0.0,0.0
2728,91.0,0.0,90.0,0.0,0.0
2729,64.0,0.0,300.0,7.0,0.0
2730,84.0,0.0,90.0,2.0,0.0
2731,79.0,0.0,90.0,2.0,0.0
2732,76.0,0.0,300.0,7.0,0.0
2733,52.0,0.0,90.0,8.0,0.0
2734,60.0,0.0,90.0,4.0,0.0
2735,91.0,0.0,30.0,10.0,0.0
2736,79.0,40.0,30.0,11.0,0.0
2737,67.0,0.0,90.0,6.0,0.0
2738,55.0,16.0,90.0,6.0,0.0
2739,52.0,24.0,300.0,5.0,0.0
2740,64.0,0.0,300.0,5.0,0.0
2741,76.0,0.0,90.0,3.0,0.0
2742,91.0,0.0,30.0,10.0,0.0
2743,52.0,24.0,30.0,12.0,0.0
2744,79.0,0.0,30.0,11.0,0.0
2745,91.0,0.0,30.0,10.0,0.0
2746,52.0,0.0,30.0,12.0,0.0
2747,79.0,40.0,30.0,11.0,0.0
2748,55.0,0.0,90.0,6.0,0.0
2749,88.0,16.0,90.0,0.0,0.0
2750,84.0,0.0,90.0,0.0,0.0
2751,52.0,40.0,30.0,12.0,0.0
2752,67.0,0.0,90.0,6.0,0.0
2753,60.0,0.0,90.0,4.0,0.0
2754,64.0,0.0,90.0,4.0,0.0
2755,76.0,0.0,30.0,11.0,0.0
2756,88.0,0.0,30.0,10.0,0.0
2757,79.0,0.0,90.0,3.0,0.0
2758,76.0,0.0,90.0,3.0,0.0
2759,76.0,24.0,30.0,11.0,0.0
2760,88.0,0.0,30.0,10.0,0.0
2761,52.0,0.0,30.0,12.0,0.0
2762,52.0,40.0,30.0,12.0,0.0
2763,88.0,0.0,30.0,10.0,0.0
2764,76.0,0.0,30.0,11.0,0.0
2765,88.0,0.0,90.0,0.0,0.0
2766,84.0,0.0,30.0,10.0,0.0
2767,76.0,0.0,90.0,3.0,0.0
2768,84.0,0.0,210.0,3.0,0.0
2769,52.0,0.0,30.0,12.0,0.0
2770,67.0,16.0,90.0,6.0,0.0
2771,60.0,0.0,210.0,4.0,0.0
2772,72.0,16.0,30.0,11.0,0.0
2773,96.0,0.0,210.0,0.0,0.0
2774,64.0,0.0,90.0,4.0,0.0
2775,55.0,0.0,90.0,6.0,0.0
2776,72.0,0.0,30.0,11.0,0.0
2777,52.0,24.0,30.0,12.0,0.0
2778,84.0,0.0,30.0,10.0,0.0
2779,72.0,40.0,30.0,11.0,0.0
2780,52.0,0.0,30.0,12.0,0.0
2781,84.0,0.0,30.0,10.0,0.0
2782,69.0,0.0,300.0,5.0,0.0
2783,81.0,16.0,90.0,3.0,0.0
2784,41.0,0.0,300.0,14.0,0.0
2785,72.0,0.0,30.0,11.0,0.0
2786,45.0,0.0,90.0,8.0,0.0
2787,53.0,0.0,300.0,13.0,0.0
2788,81.0,0.0,300.0,7.0,0.0
2789,69.0,24.0,300.0,7.0,0.0
2790,69.0,0.0,90.0,6.0,0.0
2791,93.0,0.0,90.0,0.0,0.0
2792,57.0,0.0,30.0,12.0,0.0
2793,84.0,40.0,30.0,10.0,0.0
2794,65.0,0.0,90.0,4.0,0.0
2795,72.0,24.0,30.0,11.0,0.0
2796,84.0,0.0,30.0,10.0,0.0
2797,57.0,0.0,30.0,12.0,0.0
2798,72.0,0.0,30.0,11.0,0.0
2799,84.0,0.0,30.0,10.0,0.0
2800,57.0,40.0,30.0,12.0,0.0
2801,81.0,0.0,90.0,3.0,0.0
2802,69.0,0.0,30.0,11.0,0.0
2803,81.0,0.0,30.0,10.0,0.0
2804,69.0,0.0,90.0,6.0,0.0
2805,93.0,0.0,90.0,0.0,0.0
2806,57.0,40.0,30.0,12.0,0.0
2807,89.0,0.0,90.0,0.0,0.0
2808,60.0,16.0,90.0,4.0,0.0
2809,65.0,0.0,90.0,4.0,0.0
2810,77.0,0.0,90.0,3.0,0.0
2811,81.0,24.0,30.0,10.0,0.0
2812,69.0,0.0,30.0,11.0,0.0
2813,57.0,0.0,30.0,12.0,0.0
2814,57.0,0.0,30.0,12.0,0.0
2815,69.0,40.0,30.0,11.0,0.0
2816,81.0,0.0,30.0,10.0,0.0
2817,93.0,0.0,210.0,0.0,0.0
2818,84.0,32.0,120.0,2.0,0.0
2819,81.0,0.0,210.0,3.0,0.0
2820,89.0,0.0,210.0,0.0,0.0
2821,69.0,0.0,30.0,11.0,0.0
2822,69.0,0.0,210.0,6.0,0.0
2823,81.0,0.0,30.0,10.0,0.0
2824,72.0,0.0,120.0,2.0,0.0
2825,60.0,16.0,90.0,4.0,0.0
2826,57.0,16.0,30.0,12.0,0.0
2827,65.0,16.0,210.0,4.0,0.0
2828,77.0,0.0,210.0,3.0,0.0
2829,57.0,0.0,30.0,12.0,0.0
2830,69.0,0.0,30.0,11.0,0.0
2831,81.0,24.0,30.0,10.0,0.0
2832,81.0,8.0,30.0,10.0,0.0
2833,69.0,0.0,30.0,11.0,0.0
2834,57.0,0.0,30.0,12.0,0.0
2835,50.0,0.0,300.0,13.0,0.0
2836,62.0,0.0,90.0,4.0,0.0
2837,69.0,0.0,300.0,7.0,0.0
2838,74.0,0.0,90.0,2.0,0.0
2839,53.0,40.0,30.0,12.0,0.0
2840,38.0,24.0,300.0,14.0,0.0
2841,81.0,0.0,300.0,7.0,0.0
2842,86.0,0.0,90.0,2.0,0.0
2843,69.0,0.0,30.0,11.0,0.0
2844,45.0,0.0,90.0,8.0,0.0
2845,81.0,0.0,30.0,10.0,0.0
2846,69.0,0.0,300.0,5.0,0.0
2847,69.0,24.0,30.0,11.0,0.0
2848,81.0,0.0,30.0,10.0,0.0
2849,53.0,0.0,30.0,12.0,0.0
2850,81.0,0.0,30.0,10.0,0.0
2851,69.0,0.0,30.0,11.0,0.0
2852,53.0,40.0,30.0,12.0,0.0
2853,62.0,0.0,90.0,4.0,0.0
2854,74.0,0.0,90.0,2.0,0.0
2855,86.0,0.0,90.0,2.0,0.0
2856,77.0,0.0,30.0,10.0,0.0
2857,89.0,0.0,90.0,0.0,0.0
2858,86.0,16.0,90.0,0.0,0.0
2859,69.0,0.0,90.0,6.0,0.0
2860,53.0,0.0,30.0,12.0,0.0
2861,65.0,40.0,30.0,11.0,0.0
2862,77.0,0.0,90.0,3.0,0.0
2863,65.0,0.0,90.0,4.0,0.0
2864,74.0,0.0,90.0,3.0,0.0
2865,53.0,24.0,30.0,12.0,0.0
2866,77.0,0.0,30.0,10.0,0.0
2867,65.0,0.0,30.0,11.0,0.0
2868,77.0,40.0,30.0,10.0,0.0
2869,65.0,0.0,30.0,11.0,0.0
2870,53.0,0.0,30.0,12.0,0.0
2871,74.0,0.0,210.0,3.0,0.0
2872,65.0,0.0,210.0,4.0,0.0
2873,53.0,0.0,30.0,12.0,0.0
2874,62.0,16.0,210.0,4.0,0.0
2875,77.0,0.0,210.0,3.0,0.0
2876,86.0,0.0,210.0,0.0,0.0
2877,74.0,0.0,210.0,2.0,0.0
2878,86.0,0.0,210.0,2.0,0.0
2879,69.0,0.0,210.0,6.0,0.0
2880,77.0,0.0,30.0,10.0,0.0
2881,65.0,16.0,30.0,11.0,0.0
2882,89.0,0.0,210.0,0.0,0.0
2883,53.0,40.0,30.0,12.0,0.0
2884,65.0,0.0,30.0,11.0,0.0
2885,77.0,0.0,30.0,10.0,0.0
2886,77.0,0.0,30.0,10.0,0.0
2887,65.0,40.0,30.0,11.0,0.0
2888,53.0,0.0,30.0,12.0,0.0
2889,55.0,24.0,300.0,13.0,0.0
2890,65.0,0.0,30.0,11.0,0.0
2891,57.0,0.0,30.0,12.0,0.0
2892,77.0,40.0,30.0,10.0,0.0
2893,43.0,0.0,300.0,14.0,0.0
2894,65.0,0.0,30.0,11.0,0.0
2895,77.0,0.0,30.0,10.0,0.0
2896,57.0,24.0,30.0,12.0,0.0
2897,65.0,40.0,30.0,11.0,0.0
2898,77.0,0.0,30.0,10.0,0.0
2899,57.0,0.0,30.0,12.0,0.0
2900,91.0,0.0,90.0,0.0,0.0
2901,55.0,0.0,90.0,6.0,0.0
2902,74.0,0.0,30.0,10.0,0.0
2903,86.0,0.0,90.0,2.0,0.0
2904,77.0,0.0,90.0,2.0,0.0
2905,62.0,40.0,30.0,11.0,0.0
2906,86.0,0.0,90.0,0.0,0.0
2907,77.0,0.0,90.0,3.0,0.0
2908,74.0,0.0,90.0,3.0,0.0
2909,67.0,0.0,90.0,6.0,0.0
2910,62.0,0.0,90.0,4.0,0.0
2911,65.0,16.0,90.0,4.0,0.0
2912,57.0,0.0,30.0,12.0,0.0
2913,57.0,24.0,30.0,12.0,0.0
2914,74.0,0.0,30.0,10.0,0.0
2915,62.0,0.0,30.0,11.0,0.0
2916,74.0,40.0,30.0,10.0,0.0
2917,57.0,0.0,30.0,12.0,0.0
2918,62.0,0.0,30.0,11.0,0.0
2919,71.0,0.0,90.0,3.0,0.0
2920,74.0,0.0,90.0,3.0,0.0
2921,65.0,0.0,90.0,4.0,0.0
2922,62.0,16.0,90.0,4.0,0.0
2923,91.0,0.0,90.0,0.0,0.0
2924,59.0,0.0,30.0,11.0,0.0
2925,86.0,0.0,90.0,0.0,0.0
2926,55.0,0.0,90.0,6.0,0.0
2927,86.0,0.0,90.0,2.0,0.0
2928,71.0,0.0,30.0,10.0,0.0
2929,57.0,16.0,30.0,12.0,0.0
2930,67.0,0.0,90.0,6.0,0.0
2931,77.0,0.0,90.0,2.0,0.0
2932,57.0,0.0,30.0,12.0,0.0
2933,71.0,0.0,30.0,10.0,0.0
2934,59.0,24.0,30.0,11.0,0.0
2935,71.0,0.0,30.0,10.0,0.0
2936,59.0,0.0,30.0,11.0,0.0
2937,57.0,56.0,30.0,12.0,0.0
2938,84.0,0.0,90.0,0.0,0.0
2939,52.0,12.0,90.0,5.0,0.0
2940,55.0,0.0,90.0,6.0,0.0
2941,67.0,0.0,90.0,6.0,0.0
2942,52.0,0.0,90.0,12.0,0.0
2943,60.0,0.0,90.0,11.0,0.0
2944,64.0,0.0,90.0,5.0,0.0
2945,64.0,0.0,90.0,3.0,0.0
2946,64.0,0.0,90.0,4.0,0.0
2947,52.0,0.0,90.0,8.0,0.0
2948,48.0,48.0,40.0,13.0,0.0
2949,60.0,0.0,90.0,4.0,0.0
2950,76.0,0.0,90.0,7.0,0.0
2951,64.0,0.0,90.0,7.0,0.0
2952,36.0,0.0,40.0,14.0,0.0
2953,76.0,0.0,90.0,2.0,0.0
2954,84.0,0.0,90.0,2.0,0.0
2955,72.0,0.0,90.0,3.0,0.0
2956,72.0,0.0,90.0,10.0,0.0
2957,48.0,60.0,40.0,13.0,0.0
2958,36.0,0.0,40.0,14.0,0.0
2959,48.0,60.0,40.0,13.0,0.0
2960,36.0,0.0,40.0,14.0,0.0
2961,48.0,0.0,40.0,13.0,0.0
2962,60.0,0.0,40.0,10.0,0.0
2963,36.0,60.0,40.0,14.0,0.0
2964,36.0,0.0,40.0,14.0,0.0
2965,62.0,0.0,40.0,10.0,0.0
2966,48.0,60.0,40.0,13.0,0.0
2967,64.0,0.0,40.0,10.0,0.0
2968,48.0,60.0,40.0,13.0,0.0
2969,36.0,0.0,40.0,14.0,0.0
2970,48.0,0.0,40.0,13.0,0.0
2971,65.0,0.0,40.0,10.0,0.0
2972,36.0,60.0,40.0,14.0,0.0
2973,48.0,60.0,40.0,13.0,0.0
2974,67.0,0.0,40.0,10.0,0.0
2975,36.0,0.0,40.0,14.0,0.0
2976,69.0,0.0,40.0,10.0,0.0
2977,36.0,60.0,40.0,14.0,0.0
2978,48.0,0.0,40.0,13.0,0.0
2979,48.0,0.0,40.0,13.0,0.0
2980,36.0,0.0,40.0,14.0,0.0
2981,71.0,60.0,40.0,10.0,0.0
2982,36.0,0.0,40.0,14.0,0.0
2983,72.0,60.0,40.0,10.0,0.0
2984,48.0,0.0,40.0,13.0,0.0
2985,36.0,0.0,40.0,14.0,0.0
2986,74.0,0.0,40.0,10.0,0.0
2987,48.0,60.0,40.0,13.0,0.0
2988,67.0,0.0,90.0,6.0,0.0
2989,52.0,0.0,90.0,8.0,0.0
2990,48.0,0.0,40.0,13.0,0.0
2991,64.0,0.0,90.0,7.0,0.0
2992,72.0,0.0,90.0,3.0,0.0
2993,67.0,0.0,90.0,3.0,0.0
2994,76.0,0.0,90.0,10.0,0.0
2995,76.0,0.0,90.0,7.0,0.0
2996,84.0,0.0,90.0,0.0,0.0
2997,55.0,0.0,90.0,6.0,0.0
2998,36.0,48.0,40.0,14.0,0.0
2999,60.0,0.0,90.0,12.0,0.0
3000,88.0,0.0,90.0,0.0,0.0
3001,64.0,0.0,90.0,4.0,0.0
3002,64.0,0.0,90.0,5.0,0.0
3003,79.0,0.0,90.0,2.0,0.0
3004,60.0,12.0,90.0,4.0,0.0
3005,52.0,0.0,90.0,5.0,0.0
3006,76.0,0.0,90.0,2.0,0.0
3007,48.0,60.0,40.0,13.0,0.0
3008,36.0,0.0,40.0,14.0,0.0
3009,48.0,60.0,40.0,13.0,0.0
3010,36.0,0.0,40.0,14.0,0.0
3011,36.0,0.0,40.0,14.0,0.0
3012,72.0,60.0,40.0,10.0,0.0
3013,60.0,0.0,40.0,11.0,0.0
3014,48.0,0.0,40.0,13.0,0.0
3015,62.0,0.0,40.0,11.0,0.0
3016,48.0,0.0,40.0,13.0,0.0
3017,74.0,0.0,40.0,10.0,0.0
3018,36.0,60.0,40.0,14.0,0.0
3019,48.0,60.0,40.0,13.0,0.0
3020,76.0,0.0,40.0,10.0,0.0
3021,64.0,0.0,40.0,11.0,0.0
3022,36.0,0.0,40.0,14.0,0.0
3023,77.0,60.0,40.0,10.0,0.0
3024,65.0,0.0,40.0,11.0,0.0
3025,36.0,0.0,40.0,14.0,0.0
3026,48.0,0.0,40.0,13.0,0.0
3027,79.0,0.0,40.0,10.0,0.0
3028,48.0,60.0,40.0,13.0,0.0
3029,67.0,0.0,40.0,11.0,0.0
3030,36.0,0.0,40.0,14.0,0.0
3031,36.0,0.0,40.0,14.0,0.0
3032,81.0,60.0,40.0,10.0,0.0
3033,48.0,0.0,40.0,13.0,0.0
3034,69.0,0.0,40.0,11.0,0.0
3035,48.0,60.0,40.0,13.0,0.0
3036,71.0,0.0,40.0,11.0,0.0
3037,36.0,0.0,40.0,14.0,0.0
3038,83.0,0.0,40.0,10.0,0.0
3039,36.0,0.0,40.0,14.0,0.0
3040,48.0,0.0,40.0,13.0,0.0
3041,72.0,0.0,40.0,11.0,0.0
3042,84.0,60.0,40.0,10.0,0.0
3043,74.0,60.0,40.0,11.0,0.0
3044,86.0,0.0,40.0,10.0,0.0
3045,36.0,0.0,40.0,14.0,0.0
3046,48.0,0.0,40.0,13.0,0.0
3047,76.0,0.0,90.0,7.0,0.0
3048,64.0,0.0,90.0,7.0,0.0
3049,88.0,0.0,90.0,10.0,0.0
3050,52.0,0.0,90.0,5.0,0.0
3051,55.0,0.0,90.0,6.0,0.0
3052,91.0,0.0,90.0,0.0,0.0
3053,88.0,0.0,90.0,0.0,0.0
3054,64.0,0.0,90.0,5.0,0.0
3055,79.0,0.0,90.0,2.0,0.0
3056,84.0,0.0,90.0,2.0,0.0
3057,67.0,12.0,90.0,6.0,0.0
3058,52.0,0.0,90.0,8.0,0.0
3059,36.0,48.0,40.0,14.0,0.0
3060,76.0,0.0,90.0,11.0,0.0
3061,72.0,0.0,90.0,3.0,0.0
3062,76.0,0.0,90.0,3.0,0.0
3063,67.0,0.0,90.0,4.0,0.0
3064,64.0,0.0,90.0,4.0,0.0
3065,48.0,0.0,40.0,13.0,0.0
3066,60.0,0.0,90.0,12.0,0.0
3067,48.0,0.0,40.0,13.0,0.0
3068,36.0,60.0,40.0,14.0,0.0
3069,48.0,0.0,40.0,13.0,0.0
3070,36.0,60.0,40.0,14.0,0.0
3071,36.0,0.0,40.0,14.0,0.0
3072,76.0,0.0,40.0,10.0,0.0
3073,64.0,0.0,40.0,11.0,0.0
3074,48.0,60.0,40.0,13.0,0.0
3075,65.0,0.0,40.0,11.0,0.0
3076,36.0,0.0,40.0,14.0,0.0
3077,48.0,0.0,40.0,13.0,0.0
3078,77.0,60.0,40.0,10.0,0.0
3079,48.0,60.0,40.0,13.0,0.0
3080,67.0,0.0,40.0,11.0,0.0
3081,36.0,0.0,40.0,14.0,0.0
3082,79.0,0.0,40.0,10.0,0.0
3083,36.0,0.0,40.0,14.0,0.0
3084,81.0,0.0,40.0,10.0,0.0
3085,48.0,0.0,40.0,13.0,0.0
3086,69.0,60.0,40.0,11.0,0.0
3087,71.0,0.0,40.0,11.0,0.0
3088,83.0,60.0,40.0,10.0,0.0
3089,36.0,0.0,40.0,14.0,0.0
3090,48.0,0.0,40.0,13.0,0.0
3091,91.0,0.0,90.0,0.0,0.0
3092,88.0,0.0,90.0,0.0,0.0
3093,84.0,0.0,90.0,2.0,0.0
3094,88.0,0.0,90.0,2.0,0.0
3095,72.0,48.0,40.0,11.0,0.0
3096,84.0,0.0,40.0,10.0,0.0
3097,52.0,0.0,90.0,8.0,0.0
3098,76.0,0.0,90.0,7.0,0.0
3099,67.0,0.0,90.0,6.0,0.0
3100,64.0,0.0,90.0,4.0,0.0
3101,67.0,0.0,90.0,4.0,0.0
3102,79.0,0.0,90.0,3.0,0.0
3103,64.0,12.0,90.0,5.0,0.0
3104,52.0,0.0,90.0,5.0,0.0
3105,48.0,0.0,40.0,13.0,0.0
3106,55.0,0.0,90.0,6.0,0.0
3107,64.0,0.0,90.0,7.0,0.0
3108,36.0,0.0,40.0,14.0,0.0
3109,76.0,0.0,90.0,3.0,0.0
3110,36.0,0.0,40.0,14.0,0.0
3111,86.0,60.0,40.0,10.0,0.0
3112,48.0,0.0,40.0,13.0,0.0
3113,74.0,0.0,40.0,11.0,0.0
3114,88.0,48.0,40.0,10.0,0.0
3115,84.0,0.0,90.0,2.0,0.0
3116,88.0,0.0,90.0,2.0,0.0
3117,76.0,0.0,90.0,3.0,0.0
3118,52.0,0.0,90.0,5.0,0.0
3119,64.0,0.0,90.0,5.0,0.0
3120,64.0,0.0,90.0,4.0,0.0
3121,88.0,12.0,90.0,0.0,0.0
3122,91.0,0.0,90.0,0.0,0.0
3123,67.0,0.0,90.0,4.0,0.0
3124,48.0,0.0,40.0,13.0,0.0
3125,36.0,0.0,40.0,14.0,0.0
3126,55.0,0.0,90.0,6.0,0.0
3127,67.0,0.0,90.0,6.0,0.0
3128,76.0,0.0,90.0,7.0,0.0
3129,64.0,0.0,90.0,7.0,0.0
3130,52.0,0.0,90.0,8.0,0.0
3131,76.0,0.0,40.0,11.0,0.0
3132,79.0,0.0,90.0,3.0,0.0
3133,77.0,0.0,40.0,11.0,0.0
3134,48.0,60.0,40.0,13.0,0.0
3135,36.0,0.0,40.0,14.0,0.0
3136,89.0,0.0,40.0,10.0,0.0
3137,48.0,0.0,40.0,13.0,0.0
3138,77.0,0.0,40.0,11.0,0.0
3139,86.0,0.0,40.0,11.0,0.0
3140,65.0,0.0,40.0,12.0,0.0
3141,62.0,60.0,40.0,12.0,0.0
3142,89.0,0.0,300.0,2.0,0.0
3143,67.0,0.0,300.0,6.0,0.0
3144,86.0,0.0,300.0,2.0,0.0
3145,91.0,36.0,180.0,10.0,0.0
3146,91.0,0.0,330.0,0.0,0.0
3147,79.0,0.0,180.0,3.0,0.0
3148,36.0,0.0,40.0,14.0,0.0
3149,67.0,0.0,180.0,4.0,0.0
3150,55.0,0.0,300.0,6.0,0.0
3151,65.0,60.0,40.0,12.0,0.0
3152,86.0,0.0,40.0,11.0,0.0
3153,36.0,0.0,40.0,14.0,0.0
3154,77.0,0.0,40.0,11.0,0.0
3155,48.0,0.0,40.0,13.0,0.0
3156,62.0,0.0,40.0,12.0,0.0
3157,86.0,0.0,40.0,11.0,0.0
3158,48.0,0.0,40.0,13.0,0.0
3159,65.0,0.0,40.0,12.0,0.0
3160,62.0,24.0,40.0,12.0,0.0
3161,77.0,0.0,40.0,11.0,0.0
3162,36.0,0.0,40.0,14.0,0.0
3163,77.0,0.0,40.0,11.0,0.0
3164,86.0,48.0,40.0,11.0,0.0
3165,62.0,0.0,40.0,12.0,0.0
3166,48.0,0.0,40.0,13.0,0.0
3167,65.0,0.0,40.0,12.0,0.0
3168,36.0,0.0,40.0,14.0,0.0
3169,71.0,0.0,40.0,3.0,0.0
3170,83.0,12.0,90.0,10.0,0.0
3171,83.0,0.0,90.0,0.0,0.0
3172,65.0,0.0,40.0,12.0,0.0
3173,77.0,0.0,40.0,11.0,0.0
3174,86.0,0.0,40.0,11.0,0.0
3175,48.0,48.0,40.0,13.0,0.0
3176,59.0,12.0,40.0,4.0,0.0
3177,36.0,0.0,40.0,14.0,0.0
3178,62.0,0.0,40.0,12.0,0.0
3179,77.0,0.0,40.0,11.0,0.0
3180,86.0,0.0,40.0,11.0,0.0
3181,65.0,60.0,40.0,12.0,0.0
3182,62.0,0.0,40.0,12.0,0.0
3183,48.0,0.0,40.0,13.0,0.0
3184,36.0,0.0,40.0,14.0,0.0
3185,36.0,0.0,40.0,14.0,0.0
3186,89.0,0.0,300.0,2.0,0.0
3187,77.0,60.0,40.0,11.0,0.0
3188,86.0,0.0,40.0,11.0,0.0
3189,67.0,0.0,300.0,6.0,0.0
3190,91.0,0.0,330.0,0.0,0.0
3191,91.0,0.0,180.0,10.0,0.0
3192,86.0,0.0,300.0,2.0,0.0
3193,67.0,36.0,180.0,4.0,0.0
3194,79.0,0.0,180.0,3.0,0.0
3195,62.0,0.0,40.0,12.0,0.0
3196,48.0,0.0,40.0,13.0,0.0
3197,55.0,0.0,300.0,6.0,0.0
3198,65.0,0.0,40.0,12.0,0.0
3199,48.0,0.0,40.0,13.0,0.0
3200,36.0,0.0,40.0,14.0,0.0
3201,77.0,0.0,40.0,11.0,0.0
3202,86.0,0.0,40.0,11.0,0.0
3203,62.0,0.0,40.0,12.0,0.0
3204,65.0,60.0,40.0,12.0,0.0
3205,48.0,0.0,40.0,13.0,0.0
3206,36.0,0.0,40.0,14.0,0.0
3207,62.0,0.0,40.0,12.0,0.0
3208,77.0,24.0,40.0,11.0,0.0
3209,86.0,0.0,40.0,11.0,0.0
3210,65.0,0.0,40.0,12.0,0.0
3211,62.0,0.0,40.0,12.0,0.0
3212,77.0,0.0,40.0,11.0,0.0
3213,48.0,48.0,40.0,13.0,0.0
3214,36.0,0.0,40.0,14.0,0.0
3215,86.0,0.0,40.0,11.0,0.0
3216,65.0,0.0,40.0,12.0,0.0
3217,83.0,0.0,90.0,10.0,0.0
3218,71.0,12.0,40.0,3.0,0.0
3219,83.0,12.0,90.0,0.0,0.0
3220,65.0,0.0,40.0,12.0,0.0
3221,48.0,0.0,40.0,13.0,0.0
3222,62.0,0.0,40.0,12.0,0.0
3223,59.0,0.0,40.0,4.0,0.0
3224,36.0,0.0,40.0,14.0,0.0
3225,77.0,48.0,40.0,11.0,0.0
3226,86.0,0.0,40.0,11.0,0.0
3227,48.0,0.0,40.0,13.0,0.0
3228,86.0,0.0,40.0,11.0,0.0
3229,77.0,0.0,40.0,11.0,0.0
3230,36.0,60.0,40.0,14.0,0.0
3231,62.0,0.0,40.0,12.0,0.0
3232,65.0,0.0,40.0,12.0,0.0
3233,64.0,48.0,40.0,12.0,0.0
3234,67.0,0.0,180.0,4.0,0.0
3235,48.0,0.0,40.0,13.0,0.0
3236,52.0,0.0,90.0,8.0,0.0
3237,64.0,0.0,90.0,7.0,0.0
3238,76.0,0.0,90.0,7.0,0.0
3239,60.0,0.0,40.0,12.0,0.0
3240,76.0,0.0,40.0,11.0,0.0
3241,55.0,0.0,300.0,6.0,0.0
3242,84.0,0.0,40.0,11.0,0.0
3243,88.0,0.0,300.0,2.0,0.0
3244,67.0,0.0,300.0,6.0,0.0
3245,36.0,0.0,40.0,14.0,0.0
3246,91.0,36.0,180.0,10.0,0.0
3247,84.0,0.0,300.0,2.0,0.0
3248,79.0,0.0,180.0,3.0,0.0
3249,91.0,0.0,330.0,0.0,0.0
3250,64.0,0.0,90.0,5.0,0.0
3251,52.0,12.0,90.0,5.0,0.0
3252,84.0,0.0,40.0,11.0,0.0
3253,48.0,0.0,40.0,13.0,0.0
3254,64.0,0.0,40.0,12.0,0.0
3255,60.0,0.0,40.0,12.0,0.0
3256,36.0,0.0,40.0,14.0,0.0
3257,76.0,60.0,40.0,11.0,0.0
3258,64.0,0.0,40.0,12.0,0.0
3259,76.0,24.0,40.0,11.0,0.0
3260,36.0,0.0,40.0,14.0,0.0
3261,60.0,0.0,40.0,12.0,0.0
3262,84.0,0.0,40.0,11.0,0.0
3263,48.0,0.0,40.0,13.0,0.0
3264,48.0,48.0,40.0,13.0,0.0
3265,36.0,0.0,40.0,14.0,0.0
3266,60.0,0.0,40.0,12.0,0.0
3267,64.0,0.0,40.0,12.0,0.0
3268,76.0,0.0,40.0,11.0,0.0
3269,84.0,0.0,40.0,11.0,0.0
3270,84.0,0.0,90.0,10.0,0.0
3271,84.0,12.0,90.0,0.0,0.0
3272,67.0,0.0,40.0,12.0,0.0
3273,72.0,0.0,40.0,3.0,0.0
3274,64.0,0.0,40.0,12.0,0.0
3275,60.0,12.0,40.0,4.0,0.0
3276,76.0,0.0,40.0,11.0,0.0
3277,84.0,0.0,40.0,11.0,0.0
3278,48.0,48.0,40.0,13.0,0.0
3279,36.0,0.0,40.0,14.0,0.0
3280,36.0,0.0,40.0,14.0,0.0
3281,48.0,0.0,40.0,13.0,0.0
3282,76.0,0.0,40.0,11.0,0.0
3283,84.0,0.0,40.0,11.0,0.0
3284,67.0,60.0,40.0,12.0,0.0
3285,64.0,0.0,40.0,12.0,0.0
3286,48.0,60.0,40.0,13.0,0.0
3287,67.0,0.0,300.0,6.0,0.0
3288,86.0,0.0,40.0,11.0,0.0
3289,67.0,36.0,180.0,4.0,0.0
3290,79.0,0.0,180.0,3.0,0.0
3291,91.0,0.0,180.0,10.0,0.0
3292,55.0,0.0,300.0,6.0,0.0
3293,65.0,0.0,40.0,12.0,0.0
3294,77.0,0.0,40.0,11.0,0.0
3295,36.0,0.0,40.0,14.0,0.0
3296,91.0,0.0,330.0,0.0,0.0
3297,62.0,0.0,40.0,12.0,0.0
3298,89.0,0.0,300.0,2.0,0.0
3299,86.0,0.0,300.0,2.0,0.0
3300,36.0,0.0,40.0,14.0,0.0
3301,65.0,0.0,40.0,12.0,0.0
3302,62.0,0.0,40.0,12.0,0.0
3303,48.0,0.0,40.0,13.0,0.0
3304,77.0,60.0,40.0,11.0,0.0
3305,86.0,0.0,40.0,11.0,0.0
3306,36.0,0.0,40.0,14.0,0.0
3307,48.0,0.0,40.0,13.0,0.0
3308,86.0,0.0,40.0,11.0,0.0
3309,65.0,24.0,40.0,12.0,0.0
3310,77.0,0.0,40.0,11.0,0.0
3311,62.0,0.0,40.0,12.0,0.0
3312,48.0,48.0,40.0,13.0,0.0
3313,77.0,0.0,40.0,11.0,0.0
3314,36.0,0.0,40.0,14.0,0.0
3315,86.0,0.0,40.0,11.0,0.0
3316,62.0,0.0,40.0,12.0,0.0
3317,65.0,0.0,40.0,12.0,0.0
3318,36.0,0.0,40.0,14.0,0.0
3319,86.0,0.0,40.0,11.0,0.0
3320,71.0,12.0,40.0,3.0,0.0
3321,62.0,0.0,40.0,12.0,0.0
3322,65.0,0.0,40.0,12.0,0.0
3323,48.0,48.0,40.0,13.0,0.0
3324,59.0,0.0,40.0,4.0,0.0
3325,83.0,12.0,90.0,10.0,0.0
3326,77.0,0.0,40.0,11.0,0.0
3327,83.0,0.0,90.0,0.0,0.0
3328,48.0,0.0,40.0,13.0,0.0
3329,86.0,60.0,40.0,11.0,0.0
3330,77.0,0.0,40.0,11.0,0.0
3331,36.0,0.0,40.0,14.0,0.0
3332,62.0,0.0,40.0,12.0,0.0
3333,65.0,0.0,40.0,12.0,0.0
3334,67.0,36.0,180.0,4.0,0.0
3335,84.0,0.0,40.0,11.0,0.0
3336,76.0,0.0,40.0,11.0,0.0
3337,76.0,0.0,90.0,7.0,0.0
3338,48.0,0.0,40.0,13.0,0.0
3339,36.0,48.0,40.0,14.0,0.0
3340,60.0,0.0,40.0,12.0,0.0
3341,64.0,0.0,40.0,12.0,0.0
3342,52.0,0.0,90.0,5.0,0.0
3343,64.0,0.0,90.0,5.0,0.0
3344,79.0,0.0,180.0,3.0,0.0
3345,91.0,0.0,180.0,10.0,0.0
3346,64.0,0.0,90.0,7.0,0.0
3347,55.0,0.0,300.0,6.0,0.0
3348,67.0,0.0,300.0,6.0,0.0
3349,52.0,12.0,90.0,8.0,0.0
3350,88.0,0.0,300.0,2.0,0.0
3351,84.0,0.0,300.0,2.0,0.0
3352,91.0,0.0,330.0,0.0,0.0
3353,48.0,0.0,40.0,13.0,0.0
3354,76.0,60.0,40.0,11.0,0.0
3355,36.0,0.0,40.0,14.0,0.0
3356,84.0,0.0,40.0,11.0,0.0
3357,64.0,0.0,40.0,12.0,0.0
3358,60.0,0.0,40.0,12.0,0.0
3359,36.0,0.0,40.0,14.0,0.0
3360,48.0,0.0,40.0,13.0,0.0
3361,84.0,0.0,40.0,11.0,0.0
3362,60.0,0.0,40.0,12.0,0.0
3363,64.0,0.0,40.0,12.0,0.0
3364,76.0,24.0,40.0,11.0,0.0
3365,48.0,0.0,40.0,13.0,0.0
3366,60.0,0.0,40.0,12.0,0.0
3367,36.0,0.0,40.0,14.0,0.0
3368,76.0,0.0,40.0,11.0,0.0
3369,84.0,0.0,40.0,11.0,0.0
3370,64.0,48.0,40.0,12.0,0.0
3371,76.0,0.0,40.0,11.0,0.0
3372,84.0,0.0,90.0,10.0,0.0
3373,67.0,48.0,40.0,12.0,0.0
3374,84.0,0.0,40.0,11.0,0.0
3375,60.0,0.0,40.0,4.0,0.0
3376,36.0,0.0,40.0,14.0,0.0
3377,64.0,0.0,40.0,12.0,0.0
3378,72.0,12.0,40.0,3.0,0.0
3379,84.0,12.0,90.0,0.0,0.0
3380,48.0,0.0,40.0,13.0,0.0
3381,67.0,0.0,40.0,12.0,0.0
3382,48.0,0.0,40.0,13.0,0.0
3383,36.0,60.0,40.0,14.0,0.0
3384,76.0,0.0,40.0,11.0,0.0
3385,84.0,0.0,40.0,11.0,0.0
3386,64.0,0.0,40.0,12.0,0.0
3387,86.0,0.0,300.0,2.0,0.0
3388,67.0,0.0,300.0,6.0,0.0
3389,91.0,0.0,180.0,10.0,0.0
3390,91.0,36.0,180.0,0.0,0.0
3391,67.0,0.0,180.0,4.0,0.0
3392,48.0,0.0,40.0,13.0,0.0
3393,55.0,48.0,300.0,6.0,0.0
3394,79.0,0.0,180.0,3.0,0.0
3395,89.0,0.0,300.0,2.0,0.0
3396,36.0,60.0,40.0,14.0,0.0
3397,62.0,0.0,40.0,12.0,0.0
3398,65.0,0.0,40.0,12.0,0.0
3399,86.0,0.0,40.0,11.0,0.0
3400,77.0,0.0,40.0,11.0,0.0
3401,36.0,60.0,40.0,14.0,0.0
3402,62.0,0.0,40.0,12.0,0.0
3403,65.0,0.0,40.0,12.0,0.0
3404,86.0,0.0,40.0,11.0,0.0
3405,48.0,0.0,40.0,13.0,0.0
3406,77.0,0.0,40.0,11.0,0.0
3407,36.0,24.0,40.0,14.0,0.0
3408,48.0,0.0,40.0,13.0,0.0
3409,86.0,0.0,40.0,11.0,0.0
3410,77.0,0.0,40.0,11.0,0.0
3411,62.0,0.0,40.0,12.0,0.0
3412,65.0,0.0,40.0,12.0,0.0
3413,62.0,0.0,40.0,12.0,0.0
3414,65.0,0.0,40.0,12.0,0.0
3415,86.0,0.0,40.0,11.0,0.0
3416,48.0,60.0,40.0,13.0,0.0
3417,77.0,0.0,40.0,11.0,0.0
3418,36.0,0.0,40.0,14.0,0.0
3419,36.0,0.0,40.0,14.0,0.0
3420,48.0,0.0,40.0,13.0,0.0
3421,65.0,0.0,40.0,12.0,0.0
3422,62.0,0.0,40.0,12.0,0.0
3423,86.0,0.0,40.0,11.0,0.0
3424,83.0,0.0,90.0,3.0,0.0
3425,83.0,0.0,90.0,10.0,0.0
3426,77.0,0.0,40.0,11.0,0.0
3427,95.0,12.0,90.0,0.0,0.0
3428,86.0,0.0,90.0,0.0,0.0
3429,71.0,0.0,90.0,3.0,0.0
3430,59.0,0.0,90.0,4.0,0.0
3431,65.0,0.0,40.0,12.0,0.0
3432,48.0,60.0,40.0,13.0,0.0
3433,36.0,0.0,40.0,14.0,0.0
3434,86.0,0.0,40.0,11.0,0.0
3435,77.0,0.0,40.0,11.0,0.0
3436,62.0,0.0,40.0,12.0,0.0
3437,64.0,0.0,90.0,7.0,0.0
3438,88.0,0.0,90.0,0.0,0.0
3439,84.0,48.0,40.0,10.0,0.0
3440,76.0,0.0,90.0,7.0,0.0
3441,52.0,0.0,90.0,8.0,0.0
3442,76.0,0.0,40.0,11.0,0.0
3443,84.0,0.0,40.0,11.0,0.0
3444,76.0,0.0,40.0,10.0,0.0
3445,96.0,0.0,90.0,0.0,0.0
3446,48.0,0.0,90.0,13.0,0.0
3447,36.0,0.0,90.0,14.0,0.0
3448,64.0,0.0,90.0,5.0,0.0
3449,72.0,0.0,90.0,3.0,0.0
3450,84.0,0.0,90.0,3.0,0.0
3451,52.0,12.0,90.0,5.0,0.0
3452,48.0,48.0,1380.0,4.0,0.0
3453,84.0,0.0,90.0,2.0,0.0
3454,67.0,0.0,40.0,10.0,0.0
3455,88.0,0.0,90.0,2.0,0.0
3456,72.0,0.0,40.0,12.0,0.0
3457,55.0,0.0,90.0,6.0,0.0
3458,67.0,0.0,90.0,6.0,0.0
3459,55.0,0.0,40.0,12.0,0.0
3460,67.0,60.0,40.0,10.0,0.0
3461,60.0,0.0,40.0,12.0,0.0
3462,64.0,0.0,40.0,11.0,0.0
3463,67.0,0.0,40.0,10.0,0.0
3464,55.0,0.0,40.0,12.0,0.0
3465,60.0,0.0,40.0,12.0,0.0
3466,64.0,60.0,40.0,11.0,0.0
3467,55.0,60.0,40.0,12.0,0.0
3468,60.0,0.0,40.0,12.0,0.0
3469,67.0,0.0,40.0,10.0,0.0
3470,64.0,0.0,40.0,11.0,0.0
3471,64.0,0.0,40.0,11.0,0.0
3472,60.0,60.0,40.0,12.0,0.0
3473,55.0,0.0,40.0,12.0,0.0
3474,67.0,0.0,40.0,10.0,0.0
3475,67.0,60.0,40.0,10.0,0.0
3476,55.0,0.0,40.0,12.0,0.0
3477,64.0,0.0,40.0,11.0,0.0
3478,60.0,0.0,40.0,12.0,0.0
3479,67.0,0.0,40.0,10.0,0.0
3480,55.0,60.0,40.0,12.0,0.0
3481,60.0,0.0,40.0,12.0,0.0
3482,64.0,0.0,40.0,11.0,0.0
3483,67.0,60.0,40.0,10.0,0.0
3484,60.0,0.0,40.0,12.0,0.0
3485,55.0,0.0,40.0,12.0,0.0
3486,64.0,0.0,40.0,11.0,0.0
3487,55.0,0.0,40.0,12.0,0.0
3488,60.0,0.0,40.0,12.0,0.0
3489,64.0,0.0,40.0,11.0,0.0
3490,67.0,60.0,40.0,10.0,0.0
3491,67.0,0.0,40.0,10.0,0.0
3492,60.0,60.0,40.0,12.0,0.0
3493,55.0,0.0,40.0,12.0,0.0
3494,64.0,0.0,40.0,11.0,0.0
3495,67.0,0.0,40.0,10.0,0.0
3496,64.0,0.0,40.0,11.0,0.0
3497,79.0,48.0,120.0,3.0,0.0
3498,60.0,60.0,40.0,12.0,0.0
3499,55.0,0.0,40.0,12.0,0.0
3500,67.0,0.0,40.0,10.0,0.0
3501,55.0,0.0,40.0,12.0,0.0
3502,64.0,0.0,40.0,11.0,0.0
3503,60.0,12.0,40.0,12.0,0.0
3504,55.0,60.0,40.0,12.0,0.0
3505,64.0,0.0,40.0,11.0,0.0
3506,67.0,0.0,40.0,10.0,0.0
3507,81.0,48.0,120.0,3.0,0.0
3508,60.0,0.0,40.0,12.0,0.0
3509,60.0,12.0,40.0,12.0,0.0
3510,64.0,0.0,40.0,11.0,0.0
3511,67.0,0.0,40.0,10.0,0.0
3512,55.0,0.0,40.0,12.0,0.0
3513,67.0,0.0,40.0,10.0,0.0
3514,64.0,60.0,40.0,11.0,0.0
3515,79.0,48.0,120.0,3.0,0.0
3516,55.0,0.0,40.0,12.0,0.0
3517,60.0,0.0,40.0,12.0,0.0
3518,67.0,0.0,40.0,10.0,0.0
3519,64.0,12.0,40.0,11.0,0.0
3520,60.0,0.0,40.0,12.0,0.0
3521,55.0,0.0,40.0,12.0,0.0
3522,67.0,0.0,40.0,10.0,0.0
3523,55.0,0.0,40.0,12.0,0.0
3524,60.0,0.0,40.0,12.0,0.0
3525,76.0,48.0,120.0,3.0,0.0
3526,64.0,60.0,40.0,11.0,0.0
3527,64.0,0.0,40.0,11.0,0.0
3528,67.0,12.0,40.0,10.0,0.0
3529,60.0,0.0,40.0,12.0,0.0
3530,55.0,0.0,40.0,12.0,0.0
3531,72.0,12.0,90.0,3.0,0.0
3532,60.0,48.0,40.0,12.0,0.0
3533,55.0,0.0,40.0,12.0,0.0
3534,67.0,0.0,40.0,10.0,0.0
3535,64.0,0.0,40.0,11.0,0.0
3536,55.0,0.0,40.0,12.0,0.0
3537,60.0,0.0,40.0,12.0,0.0
3538,67.0,0.0,40.0,10.0,0.0
3539,64.0,60.0,40.0,11.0,0.0
3540,60.0,0.0,40.0,12.0,0.0
3541,67.0,0.0,40.0,10.0,0.0
3542,64.0,60.0,40.0,11.0,0.0
3543,55.0,0.0,40.0,12.0,0.0
3544,67.0,0.0,40.0,10.0,0.0
3545,64.0,60.0,40.0,11.0,0.0
3546,60.0,0.0,40.0,12.0,0.0
3547,55.0,0.0,40.0,12.0,0.0
3548,64.0,0.0,40.0,11.0,0.0
3549,60.0,0.0,40.0,12.0,0.0
3550,55.0,0.0,40.0,12.0,0.0
3551,67.0,0.0,40.0,10.0,0.0
3552,88.0,12.0,90.0,0.0,0.0
3553,67.0,60.0,40.0,10.0,0.0
3554,64.0,0.0,40.0,11.0,0.0
3555,55.0,0.0,40.0,12.0,0.0
3556,60.0,0.0,40.0,12.0,0.0
3557,67.0,0.0,40.0,10.0,0.0
3558,91.0,12.0,90.0,0.0,0.0
3559,47.0,24.0,1260.0,4.0,0.0
3560,59.0,48.0,40.0,12.0,0.0
3561,65.0,0.0,40.0,10.0,0.0
3562,35.0,0.0,90.0,14.0,0.0
3563,47.0,0.0,90.0,13.0,0.0
3564,62.0,0.0,40.0,11.0,0.0
3565,55.0,0.0,40.0,12.0,0.0
3566,62.0,0.0,40.0,11.0,0.0
3567,59.0,0.0,40.0,12.0,0.0
3568,67.0,0.0,40.0,10.0,0.0
3569,65.0,0.0,40.0,10.0,0.0
3570,55.0,60.0,40.0,12.0,0.0
3571,62.0,0.0,40.0,11.0,0.0
3572,89.0,12.0,90.0,0.0,0.0
3573,59.0,48.0,40.0,12.0,0.0
3574,67.0,0.0,40.0,10.0,0.0
3575,65.0,0.0,40.0,10.0,0.0
3576,55.0,0.0,40.0,12.0,0.0
3577,55.0,0.0,40.0,12.0,0.0
3578,67.0,0.0,40.0,10.0,0.0
3579,65.0,0.0,40.0,10.0,0.0
3580,62.0,0.0,40.0,11.0,0.0
3581,59.0,60.0,40.0,12.0,0.0
3582,62.0,0.0,40.0,11.0,0.0
3583,67.0,48.0,40.0,10.0,0.0
3584,86.0,12.0,90.0,0.0,0.0
3585,59.0,0.0,40.0,12.0,0.0
3586,65.0,0.0,40.0,10.0,0.0
3587,55.0,0.0,40.0,12.0,0.0
3588,59.0,0.0,40.0,12.0,0.0
3589,62.0,0.0,40.0,11.0,0.0
3590,67.0,60.0,40.0,10.0,0.0
3591,65.0,0.0,40.0,10.0,0.0
3592,55.0,0.0,40.0,12.0,0.0
3593,62.0,48.0,40.0,11.0,0.0
3594,65.0,0.0,40.0,10.0,0.0
3595,59.0,0.0,40.0,12.0,0.0
3596,83.0,12.0,90.0,0.0,0.0
3597,55.0,0.0,40.0,12.0,0.0
3598,67.0,0.0,40.0,10.0,0.0
3599,55.0,60.0,40.0,12.0,0.0
3600,59.0,0.0,40.0,12.0,0.0
3601,67.0,0.0,40.0,10.0,0.0
3602,62.0,0.0,40.0,11.0,0.0
3603,65.0,0.0,40.0,10.0,0.0
3604,62.0,0.0,40.0,11.0,0.0
3605,59.0,60.0,40.0,12.0,0.0
3606,55.0,0.0,40.0,12.0,0.0
3607,67.0,0.0,40.0,10.0,0.0
3608,65.0,0.0,40.0,10.0,0.0
3609,62.0,0.0,40.0,11.0,0.0
3610,59.0,0.0,40.0,12.0,0.0
3611,65.0,60.0,40.0,10.0,0.0
3612,67.0,0.0,40.0,10.0,0.0
3613,55.0,0.0,40.0,12.0,0.0
3614,55.0,60.0,40.0,12.0,0.0
3615,62.0,0.0,40.0,11.0,0.0
3616,83.0,48.0,120.0,2.0,0.0
3617,59.0,0.0,40.0,12.0,0.0
3618,67.0,0.0,40.0,10.0,0.0
3619,65.0,0.0,40.0,10.0,0.0
3620,59.0,0.0,40.0,12.0,0.0
3621,62.0,0.0,40.0,11.0,0.0
3622,65.0,0.0,40.0,10.0,0.0
3623,67.0,12.0,40.0,10.0,0.0
3624,55.0,0.0,40.0,12.0,0.0
3625,55.0,0.0,90.0,13.0,0.0
3626,62.0,0.0,40.0,10.0,0.0
3627,65.0,0.0,40.0,11.0,0.0
3628,67.0,0.0,40.0,10.0,0.0
3629,55.0,0.0,540.0,6.0,0.0
3630,55.0,0.0,40.0,12.0,0.0
3631,59.0,48.0,40.0,12.0,0.0
3632,67.0,0.0,540.0,6.0,0.0
3633,43.0,12.0,90.0,14.0,0.0
3634,86.0,48.0,120.0,2.0,0.0
3635,59.0,0.0,40.0,12.0,0.0
3636,55.0,0.0,40.0,12.0,0.0
3637,62.0,0.0,40.0,10.0,0.0
3638,67.0,12.0,40.0,10.0,0.0
3639,65.0,0.0,40.0,11.0,0.0
3640,83.0,48.0,120.0,2.0,0.0
3641,67.0,60.0,40.0,10.0,0.0
3642,62.0,0.0,40.0,10.0,0.0
3643,59.0,0.0,40.0,12.0,0.0
3644,55.0,0.0,40.0,12.0,0.0
3645,65.0,0.0,40.0,11.0,0.0
3646,55.0,0.0,40.0,12.0,0.0
3647,59.0,12.0,40.0,12.0,0.0
3648,62.0,0.0,40.0,10.0,0.0
3649,65.0,0.0,40.0,11.0,0.0
3650,67.0,0.0,40.0,10.0,0.0
3651,62.0,60.0,40.0,10.0,0.0
3652,67.0,0.0,40.0,10.0,0.0
3653,74.0,48.0,120.0,3.0,0.0
3654,65.0,0.0,40.0,11.0,0.0
3655,59.0,0.0,40.0,12.0,0.0
3656,55.0,0.0,40.0,12.0,0.0
3657,55.0,12.0,40.0,12.0,0.0
3658,65.0,0.0,40.0,11.0,0.0
3659,59.0,0.0,40.0,12.0,0.0
3660,62.0,0.0,40.0,10.0,0.0
3661,67.0,0.0,40.0,10.0,0.0
3662,77.0,48.0,120.0,3.0,0.0
3663,65.0,0.0,40.0,11.0,0.0
3664,67.0,0.0,40.0,10.0,0.0
3665,55.0,0.0,40.0,12.0,0.0
3666,59.0,60.0,40.0,12.0,0.0
3667,62.0,0.0,40.0,10.0,0.0
3668,62.0,12.0,40.0,10.0,0.0
3669,55.0,0.0,40.0,12.0,0.0
3670,67.0,0.0,40.0,10.0,0.0
3671,59.0,0.0,40.0,12.0,0.0
3672,65.0,0.0,40.0,11.0,0.0
3673,62.0,0.0,40.0,10.0,0.0
3674,67.0,0.0,40.0,10.0,0.0
3675,55.0,24.0,40.0,12.0,0.0
3676,65.0,0.0,40.0,11.0,0.0
3677,59.0,0.0,40.0,12.0,0.0
3678,74.0,12.0,90.0,3.0,0.0
3679,65.0,0.0,40.0,11.0,0.0
3680,55.0,0.0,40.0,12.0,0.0
3681,59.0,108.0,40.0,12.0,0.0
3682,67.0,0.0,40.0,10.0,0.0
3683,62.0,0.0,40.0,10.0,0.0
3684,67.0,72.0,90.0,12.0,0.0
3685,71.0,0.0,90.0,11.0,0.0
3686,62.0,0.0,90.0,11.0,0.0
3687,83.0,0.0,90.0,10.0,0.0
3688,74.0,0.0,90.0,3.0,0.0
3689,67.0,0.0,90.0,10.0,0.0
3690,91.0,0.0,90.0,0.0,0.0
3691,86.0,0.0,90.0,0.0,0.0
3692,67.0,0.0,90.0,6.0,0.0
3693,43.0,0.0,90.0,14.0,0.0
3694,79.0,0.0,90.0,2.0,0.0
3695,83.0,0.0,90.0,2.0,0.0
3696,74.0,0.0,90.0,10.0,0.0
3697,55.0,0.0,90.0,4.0,0.0
3698,71.0,0.0,90.0,3.0,0.0
3699,55.0,0.0,90.0,13.0,0.0
3700,64.0,48.0,40.0,11.0,0.0
3701,72.0,0.0,40.0,11.0,0.0
3702,91.0,0.0,90.0,0.0,0.0
3703,88.0,0.0,90.0,0.0,0.0
3704,76.0,0.0,40.0,10.0,0.0
3705,60.0,0.0,40.0,12.0,0.0
3706,67.0,0.0,90.0,6.0,0.0
3707,36.0,0.0,90.0,14.0,0.0
3708,79.0,12.0,90.0,2.0,0.0
3709,67.0,0.0,40.0,10.0,0.0
3710,84.0,0.0,90.0,2.0,0.0
3711,48.0,0.0,90.0,13.0,0.0
3712,48.0,0.0,1380.0,4.0,0.0
3713,72.0,0.0,90.0,3.0,0.0
3714,84.0,0.0,40.0,10.0,0.0
3715,76.0,0.0,90.0,3.0,0.0
3716,60.0,0.0,40.0,12.0,0.0
3717,55.0,60.0,40.0,12.0,0.0
3718,64.0,0.0,40.0,11.0,0.0
3719,67.0,0.0,40.0,10.0,0.0
3720,67.0,60.0,40.0,10.0,0.0
3721,55.0,0.0,40.0,12.0,0.0
3722,64.0,0.0,40.0,11.0,0.0
3723,60.0,0.0,40.0,12.0,0.0
3724,64.0,0.0,40.0,11.0,0.0
3725,67.0,0.0,40.0,10.0,0.0
3726,55.0,0.0,40.0,12.0,0.0
3727,60.0,60.0,40.0,12.0,0.0
3728,60.0,60.0,40.0,12.0,0.0
3729,64.0,0.0,40.0,11.0,0.0
3730,55.0,0.0,40.0,12.0,0.0
3731,67.0,0.0,40.0,10.0,0.0
3732,67.0,0.0,40.0,10.0,0.0
3733,55.0,60.0,40.0,12.0,0.0
3734,64.0,0.0,40.0,11.0,0.0
3735,60.0,0.0,40.0,12.0,0.0
3736,67.0,0.0,40.0,10.0,0.0
3737,55.0,0.0,40.0,12.0,0.0
3738,60.0,0.0,40.0,12.0,0.0
3739,64.0,60.0,40.0,11.0,0.0
3740,60.0,0.0,40.0,12.0,0.0
3741,55.0,0.0,40.0,12.0,0.0
3742,67.0,0.0,40.0,10.0,0.0
3743,64.0,60.0,40.0,11.0,0.0
3744,60.0,0.0,40.0,12.0,0.0
3745,64.0,0.0,40.0,11.0,0.0
3746,67.0,60.0,40.0,10.0,0.0
3747,55.0,0.0,40.0,12.0,0.0
3748,60.0,0.0,40.0,12.0,0.0
3749,64.0,60.0,40.0,11.0,0.0
3750,67.0,0.0,40.0,10.0,0.0
3751,55.0,0.0,40.0,12.0,0.0
3752,79.0,48.0,120.0,3.0,0.0
3753,64.0,0.0,40.0,11.0,0.0
3754,67.0,60.0,40.0,10.0,0.0
3755,55.0,0.0,40.0,12.0,0.0
3756,60.0,0.0,40.0,12.0,0.0
3757,55.0,0.0,40.0,12.0,0.0
3758,60.0,0.0,40.0,12.0,0.0
3759,67.0,0.0,40.0,10.0,0.0
3760,64.0,12.0,40.0,11.0,0.0
3761,60.0,0.0,40.0,12.0,0.0
3762,67.0,0.0,40.0,10.0,0.0
3763,64.0,60.0,40.0,11.0,0.0
3764,55.0,0.0,40.0,12.0,0.0
3765,81.0,48.0,120.0,3.0,0.0
3766,64.0,0.0,40.0,11.0,0.0
3767,55.0,0.0,40.0,12.0,0.0
3768,60.0,12.0,40.0,12.0,0.0
3769,67.0,0.0,40.0,10.0,0.0
3770,64.0,0.0,40.0,11.0,0.0
3771,79.0,48.0,120.0,3.0,0.0
3772,55.0,0.0,40.0,12.0,0.0
3773,67.0,0.0,40.0,10.0,0.0
3774,60.0,60.0,40.0,12.0,0.0
3775,67.0,0.0,40.0,10.0,0.0
3776,64.0,0.0,40.0,11.0,0.0
3777,60.0,12.0,40.0,12.0,0.0
3778,55.0,0.0,40.0,12.0,0.0
3779,67.0,0.0,40.0,10.0,0.0
3780,64.0,60.0,40.0,11.0,0.0
3781,60.0,0.0,40.0,12.0,0.0
3782,55.0,0.0,40.0,12.0,0.0
3783,76.0,48.0,120.0,3.0,0.0
3784,64.0,0.0,40.0,11.0,0.0
3785,67.0,0.0,40.0,10.0,0.0
3786,55.0,12.0,40.0,12.0,0.0
3787,60.0,0.0,40.0,12.0,0.0
3788,72.0,48.0,120.0,3.0,0.0
3789,67.0,0.0,40.0,10.0,0.0
3790,64.0,0.0,40.0,11.0,0.0
3791,60.0,0.0,40.0,12.0,0.0
3792,55.0,60.0,40.0,12.0,0.0
3793,55.0,0.0,40.0,12.0,0.0
3794,60.0,0.0,40.0,12.0,0.0
3795,64.0,0.0,40.0,11.0,0.0
3796,67.0,12.0,40.0,10.0,0.0
3797,67.0,0.0,40.0,10.0,0.0
3798,60.0,0.0,40.0,12.0,0.0
3799,55.0,0.0,40.0,12.0,0.0
3800,64.0,60.0,40.0,11.0,0.0
3801,60.0,0.0,40.0,12.0,0.0
3802,64.0,0.0,40.0,11.0,0.0
3803,67.0,0.0,40.0,10.0,0.0
3804,55.0,60.0,40.0,12.0,0.0
3805,64.0,0.0,40.0,11.0,0.0
3806,67.0,0.0,40.0,10.0,0.0
3807,91.0,12.0,90.0,0.0,0.0
3808,58.0,48.0,40.0,12.0,0.0
3809,58.0,60.0,40.0,12.0,0.0
3810,67.0,0.0,40.0,10.0,0.0
3811,64.0,0.0,40.0,11.0,0.0
3812,49.0,12.0,90.0,13.0,0.0
3813,93.0,0.0,90.0,0.0,0.0
3814,37.0,0.0,90.0,14.0,0.0
3815,67.0,0.0,40.0,11.0,0.0
3816,69.0,0.0,40.0,10.0,0.0
3817,64.0,48.0,40.0,11.0,0.0
3818,49.0,24.0,1260.0,4.0,0.0
3819,57.0,0.0,40.0,12.0,0.0
3820,69.0,0.0,40.0,10.0,0.0
3821,64.0,0.0,40.0,11.0,0.0
3822,67.0,0.0,40.0,11.0,0.0
3823,57.0,60.0,40.0,12.0,0.0
3824,91.0,12.0,90.0,0.0,0.0
3825,57.0,0.0,40.0,12.0,0.0
3826,69.0,48.0,40.0,10.0,0.0
3827,67.0,0.0,40.0,11.0,0.0
3828,64.0,0.0,40.0,11.0,0.0
3829,67.0,60.0,40.0,11.0,0.0
3830,64.0,0.0,40.0,11.0,0.0
3831,69.0,0.0,40.0,10.0,0.0
3832,57.0,0.0,40.0,12.0,0.0
3833,67.0,0.0,40.0,11.0,0.0
3834,57.0,0.0,40.0,12.0,0.0
3835,88.0,12.0,90.0,0.0,0.0
3836,69.0,0.0,40.0,10.0,0.0
3837,64.0,48.0,40.0,11.0,0.0
3838,69.0,0.0,40.0,10.0,0.0
3839,67.0,0.0,40.0,11.0,0.0
3840,64.0,60.0,40.0,11.0,0.0
3841,57.0,0.0,40.0,12.0,0.0
3842,85.0,12.0,90.0,0.0,0.0
3843,67.0,0.0,40.0,11.0,0.0
3844,64.0,0.0,40.0,11.0,0.0
3845,57.0,48.0,40.0,12.0,0.0
3846,69.0,0.0,40.0,10.0,0.0
3847,69.0,0.0,40.0,10.0,0.0
3848,67.0,0.0,40.0,11.0,0.0
3849,64.0,0.0,40.0,11.0,0.0
3850,57.0,60.0,40.0,12.0,0.0
3851,67.0,0.0,40.0,11.0,0.0
3852,64.0,60.0,40.0,11.0,0.0
3853,57.0,0.0,40.0,12.0,0.0
3854,69.0,0.0,40.0,10.0,0.0
3855,69.0,0.0,40.0,10.0,0.0
3856,64.0,60.0,40.0,11.0,0.0
3857,57.0,0.0,40.0,12.0,0.0
3858,67.0,0.0,40.0,11.0,0.0
3859,85.0,48.0,120.0,2.0,0.0
3860,67.0,0.0,40.0,11.0,0.0
3861,57.0,60.0,40.0,12.0,0.0
3862,69.0,0.0,40.0,10.0,0.0
3863,64.0,0.0,40.0,11.0,0.0
3864,67.0,0.0,40.0,11.0,0.0
3865,69.0,12.0,40.0,10.0,0.0
3866,64.0,0.0,40.0,11.0,0.0
3867,57.0,0.0,40.0,12.0,0.0
3868,67.0,0.0,40.0,11.0,0.0
3869,64.0,0.0,40.0,11.0,0.0
3870,69.0,0.0,40.0,10.0,0.0
3871,88.0,48.0,120.0,2.0,0.0
3872,57.0,0.0,540.0,5.0,0.0
3873,69.0,0.0,540.0,5.0,0.0
3874,45.0,12.0,90.0,13.0,0.0
3875,57.0,0.0,40.0,12.0,0.0
3876,33.0,0.0,90.0,14.0,0.0
3877,69.0,0.0,40.0,10.0,0.0
3878,67.0,0.0,40.0,11.0,0.0
3879,64.0,0.0,40.0,11.0,0.0
3880,57.0,12.0,40.0,12.0,0.0
3881,64.0,0.0,40.0,11.0,0.0
3882,85.0,48.0,120.0,2.0,0.0
3883,57.0,0.0,40.0,12.0,0.0
3884,69.0,60.0,40.0,10.0,0.0
3885,67.0,0.0,40.0,11.0,0.0
3886,57.0,12.0,40.0,12.0,0.0
3887,67.0,0.0,40.0,11.0,0.0
3888,64.0,0.0,40.0,11.0,0.0
3889,69.0,0.0,40.0,10.0,0.0
3890,57.0,0.0,40.0,12.0,0.0
3891,69.0,0.0,40.0,10.0,0.0
3892,76.0,0.0,120.0,3.0,0.0
3893,73.0,48.0,120.0,3.0,0.0
3894,67.0,0.0,40.0,11.0,0.0
3895,64.0,60.0,40.0,11.0,0.0
3896,67.0,0.0,40.0,11.0,0.0
3897,69.0,0.0,40.0,10.0,0.0
3898,57.0,12.0,40.0,12.0,0.0
3899,64.0,0.0,40.0,11.0,0.0
3900,57.0,0.0,40.0,12.0,0.0
3901,69.0,0.0,40.0,10.0,0.0
3902,79.0,48.0,120.0,3.0,0.0
3903,64.0,60.0,40.0,11.0,0.0
3904,67.0,0.0,40.0,11.0,0.0
3905,64.0,0.0,40.0,11.0,0.0
3906,67.0,0.0,40.0,11.0,0.0
3907,57.0,0.0,40.0,12.0,0.0
3908,69.0,12.0,40.0,10.0,0.0
3909,69.0,24.0,40.0,10.0,0.0
3910,76.0,0.0,15.0,3.0,0.0
3911,73.0,12.0,90.0,3.0,0.0
3912,57.0,0.0,40.0,12.0,0.0
3913,69.0,0.0,90.0,6.0,0.0
3914,64.0,0.0,40.0,11.0,0.0
3915,67.0,0.0,40.0,11.0,0.0
3916,69.0,0.0,40.0,10.0,0.0
3917,64.0,0.0,40.0,11.0,0.0
3918,67.0,108.0,40.0,11.0,0.0
3919,57.0,0.0,40.0,12.0,0.0
3920,93.0,0.0,90.0,0.0,0.0
3921,57.0,0.0,90.0,13.0,0.0
3922,69.0,0.0,90.0,12.0,0.0
3923,73.0,0.0,90.0,11.0,0.0
3924,64.0,72.0,90.0,11.0,0.0
3925,45.0,0.0,90.0,14.0,0.0
3926,57.0,0.0,90.0,4.0,0.0
3927,57.0,0.0,90.0,5.0,0.0
3928,69.0,0.0,90.0,5.0,0.0
3929,85.0,0.0,90.0,10.0,0.0
3930,88.0,0.0,90.0,0.0,0.0
3931,69.0,0.0,90.0,10.0,0.0
3932,73.0,0.0,90.0,3.0,0.0
3933,76.0,0.0,90.0,10.0,0.0
3934,81.0,0.0,90.0,2.0,0.0
3935,76.0,0.0,90.0,3.0,0.0
3936,85.0,0.0,90.0,2.0,0.0
3937,45.0,0.0,90.0,4.0,0.0
3938,93.0,0.0,90.0,0.0,0.0
3939,86.0,0.0,90.0,2.0,0.0
3940,38.0,0.0,90.0,14.0,0.0
3941,86.0,0.0,40.0,10.0,0.0
3942,77.0,0.0,40.0,10.0,0.0
3943,69.0,0.0,40.0,10.0,0.0
3944,57.0,0.0,90.0,5.0,0.0
3945,69.0,0.0,90.0,6.0,0.0
3946,74.0,12.0,90.0,3.0,0.0
3947,89.0,0.0,90.0,0.0,0.0
3948,69.0,0.0,90.0,5.0,0.0
3949,50.0,0.0,90.0,13.0,0.0
3950,50.0,0.0,1380.0,4.0,0.0
3951,77.0,0.0,90.0,3.0,0.0
3952,74.0,0.0,40.0,11.0,0.0
3953,81.0,0.0,90.0,2.0,0.0
3954,62.0,48.0,40.0,12.0,0.0
3955,57.0,0.0,40.0,12.0,0.0
3956,69.0,60.0,40.0,10.0,0.0
3957,65.0,0.0,40.0,11.0,0.0
3958,62.0,0.0,40.0,12.0,0.0
3959,57.0,0.0,40.0,12.0,0.0
3960,62.0,0.0,40.0,12.0,0.0
3961,65.0,60.0,40.0,11.0,0.0
3962,69.0,0.0,40.0,10.0,0.0
3963,69.0,0.0,40.0,10.0,0.0
3964,57.0,0.0,40.0,12.0,0.0
3965,62.0,0.0,40.0,12.0,0.0
3966,65.0,60.0,40.0,11.0,0.0
3967,65.0,0.0,40.0,11.0,0.0
3968,62.0,0.0,40.0,12.0,0.0
3969,57.0,60.0,40.0,12.0,0.0
3970,69.0,0.0,40.0,10.0,0.0
3971,69.0,0.0,40.0,10.0,0.0
3972,65.0,0.0,40.0,11.0,0.0
3973,57.0,0.0,40.0,12.0,0.0
3974,62.0,60.0,40.0,12.0,0.0
3975,62.0,0.0,40.0,12.0,0.0
3976,69.0,0.0,40.0,10.0,0.0
3977,57.0,0.0,40.0,12.0,0.0
3978,65.0,60.0,40.0,11.0,0.0
3979,65.0,0.0,40.0,11.0,0.0
3980,62.0,60.0,40.0,12.0,0.0
3981,57.0,0.0,40.0,12.0,0.0
3982,69.0,0.0,40.0,10.0,0.0
3983,65.0,0.0,40.0,11.0,0.0
3984,69.0,0.0,40.0,10.0,0.0
3985,62.0,0.0,40.0,12.0,0.0
3986,57.0,60.0,40.0,12.0,0.0
3987,62.0,0.0,40.0,12.0,0.0
3988,57.0,0.0,40.0,12.0,0.0
3989,69.0,60.0,40.0,10.0,0.0
3990,65.0,0.0,40.0,11.0,0.0
3991,69.0,60.0,40.0,10.0,0.0
3992,57.0,0.0,40.0,12.0,0.0
3993,62.0,0.0,40.0,12.0,0.0
3994,65.0,0.0,40.0,11.0,0.0
3995,81.0,48.0,120.0,3.0,0.0
3996,69.0,0.0,40.0,10.0,0.0
3997,62.0,12.0,40.0,12.0,0.0
3998,57.0,0.0,40.0,12.0,0.0
3999,65.0,0.0,40.0,11.0,0.0
4000,62.0,0.0,40.0,12.0,0.0
4001,69.0,0.0,40.0,10.0,0.0
4002,65.0,0.0,40.0,11.0,0.0
4003,57.0,60.0,40.0,12.0,0.0
4004,82.0,48.0,120.0,3.0,0.0
4005,69.0,12.0,40.0,10.0,0.0
4006,65.0,0.0,40.0,11.0,0.0
4007,57.0,0.0,40.0,12.0,0.0
4008,62.0,0.0,40.0,12.0,0.0
4009,62.0,0.0,40.0,12.0,0.0
4010,81.0,48.0,120.0,3.0,0.0
4011,69.0,0.0,40.0,10.0,0.0
4012,57.0,0.0,40.0,12.0,0.0
4013,65.0,60.0,40.0,11.0,0.0
4014,69.0,0.0,40.0,10.0,0.0
4015,65.0,0.0,40.0,11.0,0.0
4016,62.0,0.0,40.0,12.0,0.0
4017,57.0,12.0,40.0,12.0,0.0
4018,65.0,0.0,40.0,11.0,0.0
4019,69.0,0.0,40.0,10.0,0.0
4020,77.0,48.0,120.0,3.0,0.0
4021,57.0,0.0,40.0,12.0,0.0
4022,62.0,60.0,40.0,12.0,0.0
4023,57.0,0.0,40.0,12.0,0.0
4024,62.0,0.0,40.0,12.0,0.0
4025,69.0,12.0,40.0,10.0,0.0
4026,65.0,0.0,40.0,11.0,0.0
4027,69.0,0.0,40.0,10.0,0.0
4028,65.0,0.0,40.0,11.0,0.0
4029,57.0,48.0,40.0,12.0,0.0
4030,62.0,0.0,40.0,12.0,0.0
4031,74.0,12.0,90.0,3.0,0.0
4032,69.0,0.0,40.0,10.0,0.0
4033,65.0,0.0,40.0,11.0,0.0
4034,62.0,60.0,40.0,12.0,0.0
4035,57.0,0.0,40.0,12.0,0.0
4036,69.0,0.0,40.0,10.0,0.0
4037,57.0,0.0,40.0,12.0,0.0
4038,65.0,0.0,40.0,11.0,0.0
4039,62.0,60.0,40.0,12.0,0.0
4040,65.0,0.0,40.0,11.0,0.0
4041,57.0,60.0,40.0,12.0,0.0
4042,69.0,0.0,40.0,10.0,0.0
4043,62.0,0.0,40.0,12.0,0.0
4044,57.0,0.0,40.0,12.0,0.0
4045,69.0,0.0,40.0,10.0,0.0
4046,89.0,12.0,90.0,0.0,0.0
4047,65.0,0.0,40.0,11.0,0.0
4048,62.0,48.0,40.0,12.0,0.0
4049,62.0,60.0,40.0,12.0,0.0
4050,57.0,0.0,40.0,12.0,0.0
4051,69.0,0.0,40.0,10.0,0.0
4052,65.0,0.0,40.0,11.0,0.0
4053,64.0,0.0,40.0,11.0,0.0
4054,49.0,12.0,90.0,13.0,0.0
4055,37.0,0.0,90.0,14.0,0.0
4056,69.0,0.0,40.0,10.0,0.0
4057,49.0,0.0,1260.0,4.0,0.0
4058,67.0,48.0,40.0,11.0,0.0
4059,93.0,0.0,90.0,0.0,0.0
4060,57.0,0.0,40.0,12.0,0.0
4061,69.0,0.0,40.0,10.0,0.0
4062,57.0,0.0,40.0,12.0,0.0
4063,67.0,60.0,40.0,11.0,0.0
4064,64.0,0.0,40.0,11.0,0.0
4065,57.0,0.0,40.0,12.0,0.0
4066,69.0,0.0,40.0,10.0,0.0
4067,91.0,12.0,90.0,0.0,0.0
4068,64.0,48.0,40.0,11.0,0.0
4069,67.0,0.0,40.0,11.0,0.0
4070,57.0,60.0,40.0,12.0,0.0
4071,64.0,0.0,40.0,11.0,0.0
4072,69.0,0.0,40.0,10.0,0.0
4073,67.0,0.0,40.0,11.0,0.0
4074,67.0,0.0,40.0,11.0,0.0
4075,69.0,0.0,40.0,10.0,0.0
4076,88.0,12.0,90.0,0.0,0.0
4077,64.0,48.0,40.0,11.0,0.0
4078,57.0,0.0,40.0,12.0,0.0
4079,64.0,0.0,40.0,11.0,0.0
4080,57.0,0.0,40.0,12.0,0.0
4081,67.0,60.0,40.0,11.0,0.0
4082,69.0,0.0,40.0,10.0,0.0
4083,57.0,0.0,40.0,12.0,0.0
4084,69.0,0.0,40.0,10.0,0.0
4085,85.0,12.0,90.0,0.0,0.0
4086,64.0,48.0,40.0,11.0,0.0
4087,67.0,0.0,40.0,11.0,0.0
4088,69.0,60.0,40.0,10.0,0.0
4089,64.0,0.0,40.0,11.0,0.0
4090,67.0,0.0,40.0,11.0,0.0
4091,57.0,0.0,40.0,12.0,0.0
4092,64.0,0.0,40.0,11.0,0.0
4093,69.0,0.0,40.0,10.0,0.0
4094,67.0,0.0,40.0,11.0,0.0
4095,57.0,60.0,40.0,12.0,0.0
4096,57.0,0.0,40.0,12.0,0.0
4097,69.0,60.0,40.0,10.0,0.0
4098,67.0,0.0,40.0,11.0,0.0
4099,64.0,0.0,40.0,11.0,0.0
4100,69.0,0.0,40.0,10.0,0.0
4101,64.0,0.0,40.0,11.0,0.0
4102,67.0,0.0,40.0,11.0,0.0
4103,57.0,60.0,40.0,12.0,0.0
4104,85.0,48.0,120.0,2.0,0.0
4105,67.0,0.0,40.0,11.0,0.0
4106,69.0,0.0,40.0,10.0,0.0
4107,64.0,12.0,40.0,11.0,0.0
4108,57.0,0.0,40.0,12.0,0.0
4109,64.0,0.0,40.0,11.0,0.0
4110,67.0,0.0,40.0,11.0,0.0
4111,57.0,48.0,40.0,12.0,0.0
4112,57.0,24.0,540.0,5.0,0.0
4113,69.0,0.0,540.0,5.0,0.0
4114,45.0,12.0,90.0,13.0,0.0
4115,69.0,0.0,40.0,10.0,0.0
4116,88.0,48.0,120.0,2.0,0.0
4117,33.0,0.0,90.0,14.0,0.0
4118,69.0,0.0,40.0,10.0,0.0
4119,64.0,0.0,40.0,11.0,0.0
4120,57.0,12.0,40.0,12.0,0.0
4121,67.0,0.0,40.0,11.0,0.0
4122,69.0,0.0,40.0,10.0,0.0
4123,57.0,60.0,40.0,12.0,0.0
4124,67.0,0.0,40.0,11.0,0.0
4125,64.0,0.0,40.0,11.0,0.0
4126,85.0,48.0,120.0,2.0,0.0
4127,64.0,12.0,40.0,11.0,0.0
4128,67.0,0.0,40.0,11.0,0.0
4129,69.0,0.0,40.0,10.0,0.0
4130,57.0,0.0,40.0,12.0,0.0
4131,76.0,48.0,120.0,3.0,0.0
4132,64.0,0.0,40.0,11.0,0.0
4133,69.0,0.0,40.0,10.0,0.0
4134,67.0,60.0,40.0,11.0,0.0
4135,73.0,0.0,120.0,3.0,0.0
4136,57.0,0.0,40.0,12.0,0.0
4137,67.0,0.0,40.0,11.0,0.0
4138,64.0,0.0,40.0,11.0,0.0
4139,57.0,0.0,40.0,12.0,0.0
4140,69.0,12.0,40.0,10.0,0.0
4141,69.0,60.0,40.0,10.0,0.0
4142,67.0,0.0,40.0,11.0,0.0
4143,79.0,48.0,120.0,3.0,0.0
4144,76.0,0.0,120.0,3.0,0.0
4145,57.0,0.0,40.0,12.0,0.0
4146,64.0,0.0,40.0,11.0,0.0
4147,64.0,0.0,40.0,11.0,0.0
4148,67.0,12.0,40.0,11.0,0.0
4149,57.0,0.0,40.0,12.0,0.0
4150,69.0,0.0,40.0,10.0,0.0
4151,73.0,12.0,90.0,3.0,0.0
4152,57.0,0.0,40.0,12.0,0.0
4153,67.0,24.0,40.0,11.0,0.0
4154,64.0,0.0,40.0,11.0,0.0
4155,69.0,0.0,40.0,10.0,0.0
4156,76.0,0.0,90.0,3.0,0.0
4157,64.0,108.0,40.0,11.0,0.0
4158,67.0,0.0,40.0,11.0,0.0
4159,69.0,0.0,40.0,10.0,0.0
4160,57.0,0.0,40.0,12.0,0.0
4161,45.0,0.0,90.0,4.0,0.0
4162,93.0,0.0,90.0,0.0,0.0
4163,69.0,72.0,90.0,5.0,0.0
4164,64.0,0.0,90.0,11.0,0.0
4165,88.0,0.0,90.0,0.0,0.0
4166,57.0,0.0,90.0,5.0,0.0
4167,69.0,0.0,90.0,10.0,0.0
4168,69.0,0.0,90.0,12.0,0.0
4169,85.0,0.0,90.0,10.0,0.0
4170,57.0,0.0,90.0,13.0,0.0
4171,81.0,0.0,90.0,2.0,0.0
4172,73.0,0.0,90.0,3.0,0.0
4173,61.0,0.0,90.0,3.0,0.0
4174,85.0,0.0,90.0,2.0,0.0
4175,73.0,0.0,90.0,11.0,0.0
4176,45.0,0.0,90.0,14.0,0.0
4177,69.0,0.0,90.0,6.0,0.0
4178,76.0,0.0,90.0,10.0,0.0
4179,86.0,0.0,90.0,2.0,0.0
4180,62.0,0.0,90.0,3.0,0.0
4181,69.0,0.0,90.0,5.0,0.0
4182,38.0,0.0,90.0,14.0,0.0
4183,81.0,0.0,90.0,2.0,0.0
4184,57.0,12.0,90.0,5.0,0.0
4185,74.0,0.0,90.0,3.0,0.0
4186,74.0,48.0,40.0,11.0,0.0
4187,50.0,0.0,90.0,13.0,0.0
4188,62.0,0.0,40.0,12.0,0.0
4189,69.0,0.0,40.0,10.0,0.0
4190,77.0,0.0,40.0,10.0,0.0
4191,86.0,0.0,40.0,10.0,0.0
4192,93.0,0.0,90.0,0.0,0.0
4193,57.0,0.0,40.0,12.0,0.0
4194,69.0,0.0,90.0,6.0,0.0
4195,89.0,0.0,90.0,0.0,0.0
4196,50.0,36.0,1260.0,4.0,0.0
4197,69.0,0.0,40.0,10.0,0.0
4198,57.0,60.0,40.0,12.0,0.0
4199,62.0,0.0,40.0,12.0,0.0
4200,65.0,0.0,40.0,11.0,0.0
4201,65.0,0.0,40.0,11.0,0.0
4202,62.0,0.0,40.0,12.0,0.0
4203,69.0,60.0,40.0,10.0,0.0
4204,57.0,0.0,40.0,12.0,0.0
4205,62.0,0.0,40.0,12.0,0.0
4206,65.0,0.0,40.0,11.0,0.0
4207,69.0,60.0,40.0,10.0,0.0
4208,57.0,0.0,40.0,12.0,0.0
4209,69.0,0.0,40.0,10.0,0.0
4210,57.0,60.0,40.0,12.0,0.0
4211,62.0,0.0,40.0,12.0,0.0
4212,65.0,0.0,40.0,11.0,0.0
4213,57.0,0.0,40.0,12.0,0.0
4214,69.0,0.0,40.0,10.0,0.0
4215,62.0,0.0,40.0,12.0,0.0
4216,65.0,60.0,40.0,11.0,0.0
4217,69.0,60.0,40.0,10.0,0.0
4218,65.0,0.0,40.0,11.0,0.0
4219,57.0,0.0,40.0,12.0,0.0
4220,62.0,0.0,40.0,12.0,0.0
4221,65.0,0.0,40.0,11.0,0.0
4222,57.0,0.0,40.0,12.0,0.0
4223,62.0,0.0,40.0,12.0,0.0
4224,69.0,60.0,40.0,10.0,0.0
4225,69.0,60.0,40.0,10.0,0.0
4226,62.0,0.0,40.0,12.0,0.0
4227,57.0,0.0,40.0,12.0,0.0
4228,65.0,0.0,40.0,11.0,0.0
4229,65.0,60.0,40.0,11.0,0.0
4230,57.0,0.0,40.0,12.0,0.0
4231,62.0,0.0,40.0,12.0,0.0
4232,69.0,0.0,40.0,10.0,0.0
4233,62.0,0.0,40.0,12.0,0.0
4234,81.0,48.0,120.0,3.0,0.0
4235,69.0,0.0,40.0,10.0,0.0
4236,57.0,0.0,40.0,12.0,0.0
4237,65.0,60.0,40.0,11.0,0.0
4238,57.0,0.0,40.0,12.0,0.0
4239,65.0,0.0,40.0,11.0,0.0
4240,62.0,12.0,40.0,12.0,0.0
4241,69.0,0.0,40.0,10.0,0.0
4242,82.0,48.0,120.0,3.0,0.0
4243,62.0,0.0,40.0,12.0,0.0
4244,57.0,0.0,40.0,12.0,0.0
4245,65.0,0.0,40.0,11.0,0.0
4246,69.0,60.0,40.0,10.0,0.0
4247,57.0,0.0,40.0,12.0,0.0
4248,65.0,12.0,40.0,11.0,0.0
4249,62.0,0.0,40.0,12.0,0.0
4250,69.0,0.0,40.0,10.0,0.0
4251,69.0,60.0,40.0,10.0,0.0
4252,81.0,48.0,120.0,3.0,0.0
4253,65.0,0.0,40.0,11.0,0.0
4254,62.0,0.0,40.0,12.0,0.0
4255,57.0,0.0,40.0,12.0,0.0
4256,57.0,0.0,40.0,12.0,0.0
4257,65.0,12.0,40.0,11.0,0.0
4258,69.0,0.0,40.0,10.0,0.0
4259,62.0,0.0,40.0,12.0,0.0
4260,77.0,48.0,120.0,3.0,0.0
4261,57.0,0.0,40.0,12.0,0.0
4262,65.0,60.0,40.0,11.0,0.0
4263,69.0,0.0,40.0,10.0,0.0
4264,62.0,0.0,40.0,12.0,0.0
4265,65.0,0.0,40.0,11.0,0.0
4266,69.0,12.0,40.0,10.0,0.0
4267,62.0,0.0,40.0,12.0,0.0
4268,57.0,0.0,40.0,12.0,0.0
4269,57.0,48.0,40.0,12.0,0.0
4270,65.0,0.0,40.0,11.0,0.0
4271,74.0,12.0,90.0,3.0,0.0
4272,69.0,0.0,40.0,10.0,0.0
4273,62.0,0.0,40.0,12.0,0.0
4274,65.0,60.0,40.0,11.0,0.0
4275,57.0,0.0,40.0,12.0,0.0
4276,62.0,0.0,40.0,12.0,0.0
4277,69.0,0.0,40.0,10.0,0.0
4278,69.0,24.0,40.0,10.0,0.0
4279,62.0,0.0,40.0,12.0,0.0
4280,57.0,0.0,40.0,12.0,0.0
4281,65.0,0.0,40.0,11.0,0.0
4282,57.0,0.0,40.0,12.0,0.0
4283,69.0,0.0,40.0,10.0,0.0
4284,65.0,60.0,40.0,11.0,0.0
4285,62.0,0.0,40.0,12.0,0.0
4286,69.0,0.0,40.0,10.0,0.0
4287,51.0,24.0,660.0,4.0,0.0
4288,93.0,0.0,90.0,0.0,0.0
4289,66.0,48.0,40.0,11.0,0.0
4290,81.0,48.0,120.0,2.0,0.0
4291,35.0,0.0,90.0,14.0,0.0
4292,47.0,12.0,90.0,13.0,0.0
4293,63.0,0.0,40.0,12.0,0.0
4294,57.0,0.0,40.0,12.0,0.0
4295,57.0,0.0,40.0,12.0,0.0
4296,63.0,0.0,40.0,12.0,0.0
4297,66.0,0.0,40.0,11.0,0.0
4298,69.0,12.0,40.0,10.0,0.0
4299,63.0,0.0,40.0,12.0,0.0
4300,69.0,0.0,40.0,10.0,0.0
4301,57.0,0.0,40.0,12.0,0.0
4302,95.0,12.0,90.0,0.0,0.0
4303,83.0,48.0,120.0,2.0,0.0
4304,66.0,48.0,40.0,11.0,0.0
4305,66.0,0.0,40.0,11.0,0.0
4306,63.0,12.0,40.0,12.0,0.0
4307,57.0,0.0,40.0,12.0,0.0
4308,69.0,0.0,40.0,10.0,0.0
4309,57.0,0.0,40.0,12.0,0.0
4310,93.0,12.0,90.0,0.0,0.0
4311,63.0,0.0,40.0,12.0,0.0
4312,81.0,48.0,120.0,2.0,0.0
4313,69.0,0.0,40.0,10.0,0.0
4314,66.0,48.0,40.0,11.0,0.0
4315,69.0,12.0,40.0,10.0,0.0
4316,66.0,0.0,40.0,11.0,0.0
4317,63.0,0.0,40.0,12.0,0.0
4318,57.0,0.0,40.0,12.0,0.0
4319,57.0,0.0,40.0,12.0,0.0
4320,69.0,0.0,40.0,10.0,0.0
4321,66.0,60.0,40.0,11.0,0.0
4322,75.0,0.0,120.0,3.0,0.0
4323,63.0,0.0,40.0,12.0,0.0
4324,66.0,0.0,40.0,11.0,0.0
4325,57.0,0.0,40.0,12.0,0.0
4326,63.0,0.0,40.0,12.0,0.0
4327,69.0,12.0,40.0,10.0,0.0
4328,69.0,0.0,40.0,10.0,0.0
4329,66.0,0.0,40.0,11.0,0.0
4330,63.0,60.0,40.0,12.0,0.0
4331,57.0,0.0,40.0,12.0,0.0
4332,78.0,48.0,15.0,3.0,0.0
4333,81.0,0.0,120.0,3.0,0.0
4334,66.0,0.0,40.0,11.0,0.0
4335,69.0,12.0,40.0,10.0,0.0
4336,63.0,0.0,40.0,12.0,0.0
4337,57.0,0.0,40.0,12.0,0.0
4338,69.0,24.0,40.0,10.0,0.0
4339,78.0,48.0,15.0,3.0,0.0
4340,57.0,0.0,40.0,12.0,0.0
4341,63.0,0.0,40.0,12.0,0.0
4342,75.0,12.0,90.0,3.0,0.0
4343,66.0,0.0,40.0,11.0,0.0
4344,66.0,0.0,40.0,11.0,0.0
4345,69.0,0.0,40.0,10.0,0.0
4346,63.0,0.0,40.0,12.0,0.0
4347,57.0,60.0,40.0,12.0,0.0
4348,71.0,0.0,1020.0,6.0,0.0
4349,64.0,0.0,40.0,11.0,0.0
4350,79.0,0.0,1080.0,2.0,0.0
4351,59.0,60.0,40.0,12.0,0.0
4352,59.0,0.0,120.0,13.0,0.0
4353,47.0,48.0,120.0,14.0,0.0
4354,59.0,36.0,1020.0,6.0,0.0
4355,83.0,0.0,1080.0,2.0,0.0
4356,64.0,12.0,40.0,11.0,0.0
4357,60.0,0.0,40.0,12.0,0.0
4358,64.0,12.0,90.0,11.0,0.0
4359,60.0,48.0,120.0,13.0,0.0
4360,48.0,0.0,120.0,14.0,0.0
4361,59.0,48.0,40.0,12.0,0.0
4362,60.0,12.0,40.0,12.0,0.0
4363,59.0,60.0,40.0,12.0,0.0
4364,59.0,48.0,120.0,13.0,0.0
4365,47.0,0.0,120.0,14.0,0.0
4366,60.0,0.0,40.0,12.0,0.0
4367,64.0,12.0,40.0,11.0,0.0
4368,43.0,48.0,120.0,14.0,0.0
4369,55.0,0.0,120.0,13.0,0.0
4370,64.0,60.0,40.0,11.0,0.0
4371,59.0,0.0,40.0,12.0,0.0
4372,60.0,0.0,40.0,12.0,0.0
4373,66.0,12.0,40.0,11.0,0.0
4374,67.0,12.0,90.0,11.0,0.0
4375,40.0,0.0,120.0,14.0,0.0
4376,59.0,48.0,40.0,12.0,0.0
4377,52.0,48.0,120.0,13.0,0.0
4378,60.0,12.0,40.0,12.0,0.0
4379,48.0,0.0,120.0,13.0,0.0
4380,36.0,48.0,120.0,14.0,0.0
4381,59.0,60.0,40.0,12.0,0.0
4382,67.0,0.0,40.0,11.0,0.0
4383,60.0,12.0,40.0,12.0,0.0
4384,47.0,48.0,120.0,13.0,0.0
4385,67.0,60.0,40.0,11.0,0.0
4386,59.0,0.0,40.0,12.0,0.0
4387,35.0,0.0,120.0,14.0,0.0
4388,69.0,0.0,40.0,11.0,0.0
4389,60.0,12.0,40.0,12.0,0.0
4390,71.0,12.0,90.0,11.0,0.0
4391,59.0,48.0,40.0,12.0,0.0
4392,31.0,0.0,120.0,14.0,0.0
4393,43.0,48.0,120.0,13.0,0.0
4394,60.0,12.0,40.0,12.0,0.0
4395,43.0,0.0,120.0,14.0,0.0
4396,55.0,48.0,120.0,13.0,0.0
4397,59.0,24.0,40.0,12.0,0.0
4398,60.0,12.0,40.0,12.0,0.0
4399,71.0,0.0,40.0,11.0,0.0
4400,40.0,0.0,120.0,14.0,0.0
4401,88.0,12.0,90.0,2.0,0.0
4402,59.0,0.0,40.0,12.0,0.0
4403,71.0,0.0,210.0,6.0,0.0
4404,71.0,48.0,40.0,11.0,0.0
4405,59.0,0.0,210.0,6.0,0.0
4406,52.0,48.0,120.0,13.0,0.0
4407,79.0,0.0,120.0,2.0,0.0
4408,72.0,12.0,40.0,11.0,0.0
4409,60.0,0.0,40.0,12.0,0.0
4410,63.0,0.0,90.0,11.0,0.0
4411,35.0,0.0,90.0,14.0,0.0
4412,87.0,0.0,90.0,2.0,0.0
4413,78.0,12.0,90.0,2.0,0.0
4414,59.0,48.0,40.0,12.0,0.0
4415,47.0,0.0,90.0,13.0,0.0
4416,60.0,60.0,40.0,12.0,0.0
4417,59.0,60.0,40.0,12.0,0.0
4418,63.0,0.0,40.0,11.0,0.0
4419,60.0,60.0,40.0,12.0,0.0
4420,59.0,36.0,1020.0,6.0,0.0
4421,71.0,0.0,1020.0,6.0,0.0
4422,59.0,0.0,120.0,13.0,0.0
4423,47.0,48.0,120.0,14.0,0.0
4424,63.0,48.0,40.0,11.0,0.0
4425,75.0,0.0,90.0,2.0,0.0
4426,83.0,12.0,90.0,2.0,0.0
4427,59.0,0.0,40.0,12.0,0.0
4428,60.0,12.0,40.0,12.0,0.0
4429,64.0,0.0,40.0,11.0,0.0
4430,75.0,48.0,960.0,2.0,0.0
4431,60.0,0.0,120.0,13.0,0.0
4432,48.0,48.0,120.0,14.0,0.0
4433,65.0,0.0,90.0,11.0,0.0
4434,75.0,12.0,90.0,10.0,0.0
4435,59.0,48.0,40.0,12.0,0.0
4436,83.0,0.0,960.0,2.0,0.0
4437,60.0,12.0,40.0,12.0,0.0
4438,59.0,60.0,40.0,12.0,0.0
4439,59.0,48.0,120.0,13.0,0.0
4440,47.0,0.0,120.0,14.0,0.0
4441,60.0,0.0,40.0,12.0,0.0
4442,75.0,12.0,40.0,10.0,0.0
4443,75.0,0.0,40.0,10.0,0.0
4444,45.0,0.0,120.0,14.0,0.0
4445,57.0,48.0,120.0,13.0,0.0
4446,59.0,60.0,40.0,12.0,0.0
4447,76.0,12.0,40.0,10.0,0.0
4448,60.0,0.0,40.0,12.0,0.0
4449,59.0,48.0,40.0,12.0,0.0
4450,42.0,0.0,120.0,14.0,0.0
4451,54.0,48.0,120.0,13.0,0.0
4452,78.0,12.0,90.0,10.0,0.0
4453,60.0,12.0,40.0,12.0,0.0
4454,51.0,48.0,120.0,13.0,0.0
4455,39.0,0.0,120.0,14.0,0.0
4456,59.0,60.0,40.0,12.0,0.0
4457,78.0,0.0,40.0,10.0,0.0
4458,60.0,12.0,40.0,12.0,0.0
4459,79.0,0.0,40.0,10.0,0.0
4460,47.0,0.0,120.0,14.0,0.0
4461,59.0,48.0,120.0,13.0,0.0
4462,59.0,60.0,40.0,12.0,0.0
4463,60.0,12.0,40.0,12.0,0.0
4464,81.0,0.0,40.0,10.0,0.0
4465,45.0,0.0,120.0,14.0,0.0
4466,81.0,12.0,90.0,10.0,0.0
4467,59.0,48.0,40.0,12.0,0.0
4468,57.0,48.0,120.0,13.0,0.0
4469,60.0,12.0,40.0,12.0,0.0
4470,42.0,0.0,120.0,14.0,0.0
4471,54.0,0.0,120.0,13.0,0.0
4472,59.0,24.0,40.0,12.0,0.0
4473,60.0,0.0,40.0,12.0,0.0
4474,78.0,12.0,40.0,10.0,0.0
4475,79.0,48.0,40.0,10.0,0.0
4476,59.0,0.0,90.0,12.0,0.0
4477,59.0,0.0,90.0,6.0,0.0
4478,71.0,0.0,90.0,6.0,0.0
4479,81.0,12.0,90.0,2.0,0.0
4480,51.0,0.0,90.0,13.0,0.0
4481,39.0,0.0,90.0,14.0,0.0
4482,90.0,0.0,90.0,2.0,0.0
4483,81.0,60.0,40.0,10.0,0.0
4484,59.0,12.0,300.0,4.0,0.0
4485,75.0,0.0,300.0,3.0,0.0
4486,83.0,0.0,300.0,2.0,0.0
4487,69.0,0.0,300.0,3.0,0.0
4488,81.0,72.0,40.0,10.0,0.0
4489,66.0,0.0,300.0,4.0,0.0
4490,69.0,60.0,60.0,10.0,0.0
4491,71.0,60.0,60.0,10.0,0.0
4492,69.0,48.0,60.0,10.0,0.0
4493,67.0,48.0,60.0,10.0,0.0
4494,66.0,132.0,40.0,10.0,0.0
4495,83.0,0.0,300.0,2.0,0.0
4496,75.0,0.0,300.0,3.0,0.0
4497,69.0,12.0,300.0,3.0,0.0
4498,66.0,0.0,300.0,4.0,0.0
4499,59.0,0.0,300.0,4.0,0.0
4500,69.0,60.0,60.0,10.0,0.0
4501,71.0,60.0,60.0,10.0,0.0
4502,69.0,48.0,60.0,10.0,0.0
4503,67.0,48.0,60.0,10.0,0.0
4504,66.0,132.0,40.0,10.0,0.0
4505,83.0,0.0,660.0,2.0,0.0
4506,75.0,48.0,660.0,3.0,0.0
4507,59.0,0.0,660.0,4.0,0.0
4508,66.0,0.0,660.0,4.0,0.0
4509,69.0,0.0,660.0,3.0,0.0
4510,69.0,60.0,60.0,10.0,0.0
4511,71.0,60.0,60.0,10.0,0.0
4512,69.0,60.0,60.0,10.0,0.0
4513,67.0,60.0,60.0,10.0,0.0
4514,66.0,60.0,60.0,10.0,0.0
4515,71.0,60.0,60.0,10.0,0.0
4516,69.0,60.0,60.0,10.0,0.0
4517,67.0,60.0,60.0,10.0,0.0
4518,66.0,48.0,60.0,10.0,0.0
4519,71.0,120.0,90.0,10.0,0.0
4520,40.0,0.0,300.0,4.0,0.0
4521,71.0,24.0,90.0,6.0,0.0
4522,88.0,0.0,300.0,0.0,0.0
4523,52.0,0.0,300.0,4.0,0.0
4524,71.0,0.0,300.0,3.0,0.0
4525,74.0,0.0,300.0,3.0,0.0
4526,80.0,12.0,300.0,2.0,0.0
4527,74.0,60.0,60.0,10.0,0.0
4528,62.0,0.0,60.0,12.0,0.0
4529,64.0,0.0,60.0,12.0,0.0
4530,76.0,60.0,60.0,10.0,0.0
4531,62.0,48.0,60.0,12.0,0.0
4532,74.0,0.0,60.0,10.0,0.0
4533,72.0,48.0,60.0,10.0,0.0
4534,60.0,0.0,60.0,12.0,0.0
4535,59.0,0.0,40.0,12.0,0.0
4536,71.0,108.0,40.0,10.0,0.0
4537,74.0,0.0,300.0,3.0,0.0
4538,88.0,0.0,300.0,0.0,0.0
4539,80.0,0.0,300.0,2.0,0.0
4540,71.0,0.0,300.0,3.0,0.0
4541,52.0,0.0,300.0,4.0,0.0
4542,40.0,12.0,300.0,4.0,0.0
4543,71.0,24.0,90.0,6.0,0.0
4544,74.0,60.0,60.0,10.0,0.0
4545,62.0,0.0,60.0,12.0,0.0
4546,64.0,0.0,60.0,12.0,0.0
4547,76.0,60.0,60.0,10.0,0.0
4548,74.0,0.0,60.0,10.0,0.0
4549,62.0,48.0,60.0,12.0,0.0
4550,60.0,48.0,60.0,12.0,0.0
4551,72.0,0.0,60.0,10.0,0.0
4552,71.0,0.0,40.0,10.0,0.0
4553,59.0,132.0,40.0,12.0,0.0
4554,88.0,3.0,1320.0,0.0,0.0
4555,80.0,33.0,1260.0,2.0,0.0
4556,71.0,0.0,1260.0,6.0,0.0
4557,52.0,0.0,1320.0,4.0,0.0
4558,40.0,0.0,1320.0,4.0,0.0
4559,71.0,0.0,1260.0,3.0,0.0
4560,74.0,0.0,1260.0,3.0,0.0
4561,74.0,60.0,60.0,10.0,0.0
4562,62.0,0.0,60.0,12.0,0.0
4563,64.0,0.0,60.0,12.0,0.0
4564,76.0,60.0,60.0,10.0,0.0
4565,74.0,0.0,60.0,10.0,0.0
4566,62.0,60.0,60.0,12.0,0.0
4567,72.0,48.0,60.0,10.0,0.0
4568,60.0,0.0,60.0,12.0,0.0
4569,59.0,72.0,40.0,12.0,0.0
4570,71.0,0.0,40.0,10.0,0.0
4571,64.0,60.0,60.0,12.0,0.0
4572,76.0,0.0,60.0,10.0,0.0
4573,62.0,0.0,60.0,12.0,0.0
4574,74.0,60.0,60.0,10.0,0.0
4575,60.0,0.0,60.0,12.0,0.0
4576,72.0,60.0,60.0,10.0,0.0
4577,71.0,60.0,60.0,10.0,0.0
4578,59.0,0.0,60.0,12.0,0.0
4579,64.0,0.0,60.0,12.0,0.0
4580,76.0,48.0,60.0,10.0,0.0
4581,64.0,0.0,60.0,13.0,0.0
4582,62.0,0.0,40.0,12.0,0.0
4583,62.0,60.0,60.0,13.0,0.0
4584,74.0,12.0,40.0,10.0,0.0
4585,72.0,60.0,60.0,10.0,0.0
4586,60.0,0.0,60.0,12.0,0.0
4587,60.0,0.0,60.0,13.0,0.0
4588,71.0,0.0,60.0,10.0,0.0
4589,59.0,0.0,60.0,13.0,0.0
4590,59.0,60.0,60.0,12.0,0.0
4591,76.0,60.0,60.0,10.0,0.0
4592,64.0,0.0,60.0,13.0,0.0
4593,64.0,0.0,60.0,12.0,0.0
4594,74.0,0.0,60.0,10.0,0.0
4595,62.0,60.0,60.0,13.0,0.0
4596,62.0,0.0,60.0,12.0,0.0
4597,72.0,0.0,60.0,10.0,0.0
4598,60.0,0.0,60.0,13.0,0.0
4599,60.0,48.0,60.0,12.0,0.0
4600,59.0,0.0,40.0,12.0,0.0
4601,71.0,0.0,40.0,10.0,0.0
4602,59.0,72.0,40.0,13.0,0.0
4603,76.0,0.0,60.0,10.0,0.0
4604,64.0,0.0,60.0,12.0,0.0
4605,64.0,60.0,60.0,13.0,0.0
4606,62.0,0.0,60.0,13.0,0.0
4607,74.0,60.0,60.0,10.0,0.0
4608,62.0,0.0,60.0,12.0,0.0
4609,60.0,0.0,60.0,13.0,0.0
4610,72.0,12.0,60.0,10.0,0.0
4611,60.0,0.0,60.0,12.0,0.0
4612,59.0,0.0,40.0,12.0,0.0
4613,59.0,60.0,40.0,13.0,0.0
4614,71.0,0.0,40.0,10.0,0.0
4615,72.0,0.0,40.0,11.0,0.0
4616,69.0,48.0,40.0,12.0,0.0
4617,76.0,12.0,930.0,10.0,0.0
4618,81.0,0.0,90.0,2.0,0.0
4619,33.0,12.0,90.0,14.0,0.0
4620,72.0,0.0,90.0,3.0,0.0
4621,76.0,0.0,90.0,3.0,0.0
4622,69.0,0.0,90.0,6.0,0.0
4623,45.0,0.0,90.0,4.0,0.0
4624,57.0,0.0,90.0,4.0,0.0
4625,64.0,48.0,120.0,13.0,0.0
4626,88.0,0.0,90.0,0.0,0.0
4627,72.0,0.0,40.0,11.0,0.0
4628,69.0,12.0,40.0,12.0,0.0
4629,72.0,48.0,40.0,11.0,0.0
4630,65.0,48.0,120.0,13.0,0.0
4631,76.0,0.0,90.0,3.0,0.0
4632,84.0,0.0,90.0,2.0,0.0
4633,81.0,0.0,90.0,2.0,0.0
4634,45.0,12.0,90.0,4.0,0.0
4635,57.0,0.0,90.0,4.0,0.0
4636,72.0,0.0,90.0,3.0,0.0
4637,52.0,0.0,90.0,5.0,0.0
4638,64.0,0.0,90.0,5.0,0.0
4639,88.0,0.0,90.0,0.0,0.0
4640,69.0,0.0,40.0,12.0,0.0
4641,33.0,0.0,90.0,14.0,0.0
4642,69.0,12.0,40.0,12.0,0.0
4643,72.0,0.0,40.0,11.0,0.0
4644,76.0,0.0,90.0,3.0,0.0
4645,72.0,0.0,90.0,3.0,0.0
4646,33.0,0.0,90.0,14.0,0.0
4647,45.0,0.0,90.0,4.0,0.0
4648,57.0,0.0,90.0,4.0,0.0
4649,72.0,0.0,40.0,11.0,0.0
4650,69.0,0.0,90.0,6.0,0.0
4651,88.0,12.0,90.0,0.0,0.0
4652,69.0,48.0,40.0,12.0,0.0
4653,64.0,48.0,120.0,13.0,0.0
4654,84.0,0.0,90.0,2.0,0.0
4655,52.0,0.0,90.0,5.0,0.0
4656,81.0,0.0,90.0,2.0,0.0
4657,64.0,0.0,90.0,5.0,0.0
4658,69.0,0.0,40.0,12.0,0.0
4659,72.0,12.0,40.0,11.0,0.0
4660,72.0,0.0,40.0,11.0,0.0
4661,60.0,48.0,120.0,13.0,0.0
4662,69.0,60.0,40.0,12.0,0.0
4663,72.0,12.0,40.0,11.0,0.0
4664,69.0,0.0,40.0,12.0,0.0
4665,69.0,60.0,40.0,12.0,0.0
4666,72.0,0.0,40.0,11.0,0.0
4667,57.0,48.0,120.0,13.0,0.0
4668,72.0,0.0,40.0,11.0,0.0
4669,69.0,12.0,40.0,12.0,0.0
4670,45.0,0.0,90.0,4.0,0.0
4671,53.0,48.0,120.0,13.0,0.0
4672,72.0,0.0,40.0,11.0,0.0
4673,76.0,0.0,90.0,3.0,0.0
4674,57.0,0.0,90.0,4.0,0.0
4675,69.0,48.0,40.0,12.0,0.0
4676,72.0,0.0,90.0,3.0,0.0
4677,84.0,0.0,90.0,2.0,0.0
4678,81.0,0.0,90.0,2.0,0.0
4679,88.0,0.0,90.0,0.0,0.0
4680,69.0,12.0,90.0,6.0,0.0
4681,33.0,0.0,90.0,14.0,0.0
4682,64.0,0.0,90.0,5.0,0.0
4683,52.0,0.0,90.0,5.0,0.0
4684,69.0,0.0,40.0,12.0,0.0
4685,72.0,12.0,40.0,11.0,0.0
4686,52.0,48.0,120.0,13.0,0.0
4687,69.0,60.0,40.0,12.0,0.0
4688,72.0,0.0,40.0,11.0,0.0
4689,72.0,0.0,40.0,11.0,0.0
4690,69.0,12.0,40.0,12.0,0.0
4691,48.0,48.0,120.0,13.0,0.0
4692,69.0,48.0,40.0,12.0,0.0
4693,72.0,0.0,40.0,11.0,0.0
4694,69.0,12.0,40.0,12.0,0.0
4695,72.0,0.0,40.0,11.0,0.0
4696,69.0,48.0,40.0,12.0,0.0
4697,69.0,0.0,90.0,6.0,0.0
4698,52.0,0.0,90.0,5.0,0.0
4699,64.0,0.0,90.0,5.0,0.0
4700,57.0,0.0,90.0,4.0,0.0
4701,45.0,0.0,90.0,4.0,0.0
4702,69.0,0.0,90.0,3.0,0.0
4703,84.0,0.0,90.0,2.0,0.0
4704,76.0,0.0,120.0,10.0,0.0
4705,33.0,0.0,90.0,14.0,0.0
4706,72.0,0.0,90.0,3.0,0.0
4707,88.0,0.0,90.0,0.0,0.0
4708,45.0,48.0,120.0,13.0,0.0
4709,72.0,0.0,40.0,11.0,0.0
4710,81.0,12.0,90.0,2.0,0.0
4711,69.0,0.0,40.0,12.0,0.0
4712,72.0,12.0,40.0,11.0,0.0
4713,75.0,60.0,40.0,11.0,0.0
4714,81.0,48.0,240.0,10.0,0.0
4715,41.0,48.0,120.0,13.0,0.0
4716,69.0,0.0,40.0,12.0,0.0
4717,75.0,12.0,40.0,11.0,0.0
4718,69.0,0.0,40.0,12.0,0.0
4719,71.0,0.0,40.0,12.0,0.0
4720,40.0,12.0,90.0,13.0,0.0
4721,76.0,48.0,40.0,11.0,0.0
4722,71.0,0.0,40.0,12.0,0.0
4723,76.0,12.0,40.0,11.0,0.0
4724,71.0,48.0,40.0,12.0,0.0
4725,88.0,0.0,90.0,0.0,0.0
4726,86.0,0.0,90.0,2.0,0.0
4727,83.0,0.0,90.0,2.0,0.0
4728,40.0,0.0,90.0,14.0,0.0
4729,80.0,0.0,90.0,10.0,0.0
4730,71.0,0.0,90.0,3.0,0.0
4731,59.0,12.0,90.0,4.0,0.0
4732,74.0,0.0,90.0,3.0,0.0
4733,52.0,0.0,90.0,5.0,0.0
4734,76.0,0.0,40.0,11.0,0.0
4735,64.0,0.0,90.0,5.0,0.0
4736,62.0,0.0,90.0,4.0,0.0
4737,76.0,0.0,40.0,11.0,0.0
4738,71.0,60.0,40.0,12.0,0.0
4739,71.0,60.0,40.0,11.0,0.0
4740,64.0,48.0,120.0,13.0,0.0
4741,74.0,0.0,40.0,11.0,0.0
4742,76.0,12.0,930.0,10.0,0.0
4743,68.0,0.0,40.0,12.0,0.0
4744,71.0,12.0,40.0,11.0,0.0
4745,74.0,0.0,40.0,11.0,0.0
4746,68.0,0.0,40.0,12.0,0.0
4747,68.0,0.0,40.0,12.0,0.0
4748,65.0,48.0,120.0,13.0,0.0
4749,71.0,0.0,40.0,11.0,0.0
4750,74.0,60.0,40.0,11.0,0.0
4751,74.0,12.0,40.0,11.0,0.0
4752,68.0,0.0,40.0,12.0,0.0
4753,71.0,0.0,40.0,11.0,0.0
4754,64.0,48.0,120.0,13.0,0.0
4755,40.0,0.0,90.0,14.0,0.0
4756,68.0,0.0,40.0,12.0,0.0
4757,62.0,0.0,90.0,4.0,0.0
4758,80.0,12.0,90.0,2.0,0.0
4759,83.0,0.0,90.0,2.0,0.0
4760,52.0,0.0,90.0,5.0,0.0
4761,74.0,48.0,40.0,11.0,0.0
4762,74.0,0.0,90.0,3.0,0.0
4763,71.0,0.0,90.0,3.0,0.0
4764,64.0,0.0,90.0,5.0,0.0
4765,59.0,0.0,90.0,4.0,0.0
4766,88.0,0.0,90.0,0.0,0.0
4767,71.0,0.0,40.0,11.0,0.0
4768,68.0,12.0,40.0,12.0,0.0
4769,71.0,0.0,40.0,11.0,0.0
4770,74.0,0.0,40.0,11.0,0.0
4771,71.0,60.0,40.0,11.0,0.0
4772,68.0,0.0,40.0,12.0,0.0
4773,74.0,0.0,40.0,11.0,0.0
4774,62.0,48.0,120.0,13.0,0.0
4775,68.0,12.0,40.0,12.0,0.0
4776,71.0,0.0,40.0,11.0,0.0
4777,74.0,0.0,40.0,11.0,0.0
4778,74.0,0.0,40.0,11.0,0.0
4779,71.0,0.0,40.0,11.0,0.0
4780,59.0,48.0,120.0,13.0,0.0
4781,68.0,60.0,40.0,12.0,0.0
4782,71.0,12.0,40.0,11.0,0.0
4783,74.0,0.0,40.0,11.0,0.0
4784,68.0,0.0,40.0,12.0,0.0
4785,74.0,0.0,90.0,3.0,0.0
4786,71.0,12.0,90.0,3.0,0.0
4787,88.0,0.0,90.0,0.0,0.0
4788,64.0,0.0,90.0,5.0,0.0
4789,52.0,0.0,90.0,5.0,0.0
4790,83.0,0.0,90.0,2.0,0.0
4791,62.0,0.0,90.0,4.0,0.0
4792,59.0,0.0,90.0,4.0,0.0
4793,80.0,0.0,90.0,2.0,0.0
4794,40.0,0.0,90.0,14.0,0.0
4795,56.0,48.0,120.0,13.0,0.0
4796,68.0,0.0,40.0,12.0,0.0
4797,74.0,0.0,40.0,11.0,0.0
4798,71.0,48.0,40.0,11.0,0.0
4799,71.0,12.0,40.0,11.0,0.0
4800,74.0,0.0,40.0,11.0,0.0
4801,68.0,0.0,40.0,12.0,0.0
4802,53.0,48.0,120.0,13.0,0.0
4803,68.0,0.0,40.0,12.0,0.0
4804,71.0,60.0,40.0,11.0,0.0
4805,74.0,0.0,40.0,11.0,0.0
4806,71.0,12.0,40.0,11.0,0.0
4807,68.0,0.0,40.0,12.0,0.0
4808,74.0,0.0,40.0,11.0,0.0
4809,68.0,0.0,40.0,12.0,0.0
4810,52.0,48.0,120.0,13.0,0.0
4811,74.0,48.0,40.0,11.0,0.0
4812,71.0,0.0,40.0,11.0,0.0
4813,71.0,0.0,40.0,11.0,0.0
4814,74.0,0.0,40.0,11.0,0.0
4815,68.0,12.0,40.0,12.0,0.0
4816,76.0,48.0,120.0,10.0,0.0
4817,50.0,0.0,120.0,13.0,0.0
4818,74.0,0.0,40.0,11.0,0.0
4819,71.0,0.0,40.0,11.0,0.0
4820,83.0,0.0,90.0,2.0,0.0
4821,80.0,0.0,90.0,2.0,0.0
4822,88.0,0.0,90.0,0.0,0.0
4823,40.0,0.0,90.0,14.0,0.0
4824,59.0,12.0,90.0,4.0,0.0
4825,62.0,0.0,90.0,4.0,0.0
4826,74.0,0.0,90.0,3.0,0.0
4827,71.0,0.0,90.0,3.0,0.0
4828,52.0,0.0,90.0,5.0,0.0
4829,64.0,0.0,90.0,5.0,0.0
4830,68.0,48.0,40.0,12.0,0.0
4831,71.0,12.0,40.0,11.0,0.0
4832,74.0,0.0,40.0,11.0,0.0
4833,68.0,0.0,40.0,12.0,0.0
4834,80.0,48.0,120.0,10.0,0.0
4835,47.0,48.0,60.0,13.0,0.0
4836,68.0,12.0,40.0,12.0,0.0
4837,71.0,0.0,40.0,11.0,0.0
4838,74.0,0.0,40.0,11.0,0.0
4839,71.0,0.0,40.0,11.0,0.0
4840,74.0,0.0,40.0,11.0,0.0
4841,68.0,0.0,40.0,12.0,0.0
4842,44.0,12.0,40.0,13.0,0.0
4843,68.0,0.0,40.0,12.0,0.0
4844,74.0,60.0,40.0,11.0,0.0
4845,83.0,48.0,120.0,10.0,0.0
4846,40.0,0.0,120.0,13.0,0.0
4847,74.0,0.0,40.0,11.0,0.0
4848,68.0,12.0,40.0,12.0,0.0
4849,33.0,0.0,90.0,14.0,0.0
4850,72.0,48.0,40.0,11.0,0.0
4851,76.0,0.0,90.0,3.0,0.0
4852,72.0,0.0,90.0,3.0,0.0
4853,60.0,0.0,90.0,4.0,0.0
4854,84.0,0.0,90.0,2.0,0.0
4855,81.0,0.0,90.0,2.0,0.0
4856,81.0,0.0,90.0,10.0,0.0
4857,45.0,0.0,90.0,13.0,0.0
4858,57.0,0.0,90.0,4.0,0.0
4859,69.0,0.0,40.0,12.0,0.0
4860,88.0,12.0,90.0,0.0,0.0
4861,69.0,0.0,40.0,12.0,0.0
4862,72.0,132.0,40.0,11.0,0.0
4863,81.0,144.0,120.0,10.0,0.0
4864,33.0,0.0,570.0,5.0,0.0
4865,57.0,0.0,270.0,12.0,0.0
4866,57.0,84.0,270.0,13.0,0.0
4867,33.0,0.0,120.0,14.0,0.0
4868,45.0,0.0,570.0,5.0,0.0
4869,69.0,120.0,570.0,11.0,0.0
4870,38.0,0.0,300.0,14.0,0.0
4871,79.0,48.0,240.0,10.0,0.0
4872,57.0,12.0,40.0,12.0,0.0
4873,57.0,0.0,40.0,13.0,0.0
4874,77.0,96.0,120.0,10.0,0.0
4875,57.0,60.0,40.0,13.0,0.0
4876,57.0,0.0,40.0,12.0,0.0
4877,59.0,12.0,40.0,13.0,0.0
4878,59.0,0.0,40.0,12.0,0.0
4879,60.0,0.0,90.0,13.0,0.0
4880,76.0,0.0,90.0,10.0,0.0
4881,31.0,0.0,90.0,14.0,0.0
4882,60.0,0.0,90.0,12.0,0.0
4883,88.0,120.0,120.0,0.0,0.0
4884,57.0,24.0,90.0,13.0,0.0
4885,57.0,0.0,90.0,12.0,0.0
4886,81.0,0.0,120.0,2.0,0.0
4887,69.0,0.0,570.0,6.0,0.0
4888,81.0,0.0,570.0,0.0,0.0
4889,60.0,0.0,120.0,3.0,0.0
4890,64.0,0.0,120.0,3.0,0.0
4891,93.0,0.0,120.0,0.0,0.0
4892,57.0,0.0,570.0,12.0,0.0
4893,81.0,84.0,270.0,10.0,0.0
4894,69.0,0.0,270.0,11.0,0.0
4895,57.0,0.0,570.0,13.0,0.0
4896,57.0,144.0,120.0,4.0,0.0
4897,91.0,48.0,240.0,0.0,0.0
4898,79.0,0.0,240.0,2.0,0.0
4899,62.0,0.0,360.0,3.0,0.0
4900,65.0,0.0,360.0,3.0,0.0
4901,62.0,0.0,360.0,4.0,0.0
4902,69.0,0.0,40.0,11.0,0.0
4903,81.0,12.0,40.0,10.0,0.0
4904,81.0,0.0,40.0,10.0,0.0
4905,89.0,0.0,120.0,0.0,0.0
4906,69.0,60.0,40.0,11.0,0.0
4907,77.0,96.0,120.0,2.0,0.0
4908,83.0,0.0,40.0,10.0,0.0
4909,71.0,12.0,40.0,11.0,0.0
4910,76.0,0.0,90.0,2.0,0.0
4911,88.0,0.0,90.0,0.0,0.0
4912,72.0,24.0,90.0,11.0,0.0
4913,57.0,0.0,90.0,4.0,0.0
4914,84.0,96.0,120.0,10.0,0.0
4915,64.0,0.0,90.0,3.0,0.0
4916,60.0,0.0,90.0,3.0,0.0
4917,81.0,0.0,90.0,10.0,0.0
4918,69.0,144.0,90.0,11.0,0.0
4919,57.0,84.0,270.0,12.0,0.0
4920,33.0,144.0,120.0,14.0,0.0
4921,45.0,0.0,570.0,5.0,0.0
4922,69.0,0.0,570.0,11.0,0.0
4923,57.0,0.0,270.0,13.0,0.0
4924,33.0,12.0,570.0,5.0,0.0
4925,81.0,0.0,120.0,10.0,0.0
4926,79.0,48.0,240.0,10.0,0.0
4927,38.0,0.0,300.0,14.0,0.0
4928,57.0,0.0,40.0,13.0,0.0
4929,57.0,12.0,40.0,12.0,0.0
4930,77.0,48.0,120.0,10.0,0.0
4931,57.0,60.0,40.0,13.0,0.0
4932,57.0,0.0,40.0,12.0,0.0
4933,59.0,0.0,40.0,12.0,0.0
4934,59.0,12.0,40.0,13.0,0.0
4935,33.0,0.0,40.0,14.0,0.0
4936,84.0,0.0,90.0,0.0,0.0
4937,45.0,0.0,90.0,4.0,0.0
4938,76.0,0.0,90.0,2.0,0.0
4939,72.0,0.0,90.0,3.0,0.0
4940,88.0,0.0,90.0,0.0,0.0
4941,60.0,48.0,40.0,13.0,0.0
4942,60.0,0.0,90.0,12.0,0.0
4943,76.0,0.0,90.0,10.0,0.0
4944,40.0,0.0,40.0,14.0,0.0
4945,52.0,120.0,40.0,13.0,0.0
4946,52.0,36.0,180.0,13.0,0.0
4947,40.0,0.0,180.0,14.0,0.0
4948,81.0,0.0,40.0,10.0,0.0
4949,72.0,0.0,40.0,11.0,0.0
4950,69.0,60.0,40.0,12.0,0.0
4951,69.0,0.0,40.0,12.0,0.0
4952,72.0,24.0,40.0,11.0,0.0
4953,81.0,0.0,40.0,10.0,0.0
4954,64.0,0.0,40.0,12.0,0.0
4955,71.0,0.0,40.0,11.0,0.0
4956,80.0,60.0,40.0,10.0,0.0
4957,52.0,0.0,40.0,13.0,0.0
4958,64.0,12.0,90.0,12.0,0.0
4959,71.0,0.0,90.0,11.0,0.0
4960,80.0,0.0,90.0,10.0,0.0
4961,40.0,48.0,40.0,14.0,0.0
4962,40.0,0.0,40.0,14.0,0.0
4963,52.0,108.0,40.0,13.0,0.0
4964,71.0,12.0,90.0,2.0,0.0
4965,80.0,0.0,90.0,2.0,0.0
4966,52.0,0.0,180.0,13.0,0.0
4967,64.0,0.0,90.0,5.0,0.0
4968,40.0,36.0,180.0,14.0,0.0
4969,52.0,0.0,90.0,5.0,0.0
4970,83.0,0.0,40.0,10.0,0.0
4971,68.0,60.0,40.0,12.0,0.0
4972,74.0,0.0,40.0,11.0,0.0
4973,74.0,24.0,40.0,11.0,0.0
4974,83.0,0.0,40.0,10.0,0.0
4975,68.0,0.0,40.0,12.0,0.0
4976,69.0,60.0,40.0,12.0,0.0
4977,72.0,0.0,40.0,11.0,0.0
4978,81.0,0.0,40.0,10.0,0.0
4979,40.0,0.0,40.0,14.0,0.0
4980,69.0,48.0,40.0,12.0,0.0
4981,72.0,12.0,90.0,11.0,0.0
4982,52.0,0.0,40.0,13.0,0.0
4983,81.0,0.0,90.0,10.0,0.0
4984,64.0,108.0,40.0,12.0,0.0
4985,52.0,0.0,40.0,13.0,0.0
4986,40.0,0.0,40.0,14.0,0.0
4987,64.0,0.0,90.0,5.0,0.0
4988,40.0,36.0,180.0,14.0,0.0
4989,64.0,0.0,180.0,12.0,0.0
4990,72.0,0.0,90.0,2.0,0.0
4991,52.0,0.0,90.0,5.0,0.0
4992,52.0,0.0,180.0,13.0,0.0
4993,81.0,12.0,90.0,2.0,0.0
4994,84.0,60.0,40.0,10.0,0.0
4995,81.0,0.0,40.0,11.0,0.0
4996,81.0,24.0,40.0,11.0,0.0
4997,84.0,0.0,40.0,10.0,0.0
4998,80.0,0.0,40.0,11.0,0.0
4999,83.0,60.0,40.0,10.0,0.0
5000,64.0,0.0,40.0,12.0,0.0
5001,52.0,48.0,40.0,13.0,0.0
5002,80.0,12.0,90.0,11.0,0.0
5003,40.0,0.0,40.0,14.0,0.0
5004,83.0,0.0,90.0,10.0,0.0
5005,52.0,108.0,40.0,13.0,0.0
5006,64.0,0.0,40.0,12.0,0.0
5007,40.0,0.0,40.0,14.0,0.0
5008,64.0,0.0,180.0,12.0,0.0
5009,40.0,0.0,180.0,14.0,0.0
5010,64.0,0.0,90.0,5.0,0.0
5011,80.0,0.0,90.0,2.0,0.0
5012,83.0,0.0,90.0,2.0,0.0
5013,52.0,36.0,180.0,13.0,0.0
5014,52.0,12.0,90.0,5.0,0.0
5015,86.0,60.0,40.0,10.0,0.0
5016,83.0,0.0,40.0,11.0,0.0
5017,83.0,0.0,40.0,11.0,0.0
5018,86.0,24.0,40.0,10.0,0.0
5019,81.0,0.0,40.0,11.0,0.0
5020,84.0,60.0,40.0,10.0,0.0
5021,40.0,48.0,40.0,14.0,0.0
5022,84.0,0.0,90.0,10.0,0.0
5023,64.0,0.0,40.0,12.0,0.0
5024,52.0,0.0,40.0,13.0,0.0
5025,81.0,12.0,90.0,11.0,0.0
5026,64.0,108.0,40.0,12.0,0.0
5027,52.0,0.0,40.0,13.0,0.0
5028,40.0,0.0,40.0,14.0,0.0
5029,64.0,36.0,180.0,12.0,0.0
5030,81.0,0.0,90.0,2.0,0.0
5031,52.0,0.0,180.0,13.0,0.0
5032,52.0,0.0,90.0,5.0,0.0
5033,64.0,0.0,90.0,5.0,0.0
5034,40.0,0.0,180.0,14.0,0.0
5035,84.0,12.0,90.0,2.0,0.0
5036,88.0,0.0,40.0,10.0,0.0
5037,84.0,60.0,40.0,11.0,0.0
5038,88.0,0.0,40.0,10.0,0.0
5039,84.0,24.0,40.0,11.0,0.0
5040,83.0,0.0,40.0,11.0,0.0
5041,86.0,60.0,40.0,10.0,0.0
5042,83.0,12.0,90.0,11.0,0.0
5043,40.0,0.0,1020.0,13.0,0.0
5044,62.0,0.0,1380.0,12.0,0.0
5045,52.0,0.0,1380.0,12.0,0.0
5046,52.0,24.0,1020.0,13.0,0.0
5047,86.0,0.0,90.0,10.0,0.0
5048,40.0,48.0,40.0,14.0,0.0
5049,40.0,108.0,40.0,14.0,0.0
5050,52.0,0.0,90.0,5.0,0.0
5051,40.0,36.0,180.0,14.0,0.0
5052,64.0,0.0,90.0,5.0,0.0
5053,86.0,12.0,90.0,2.0,0.0
5054,74.0,0.0,90.0,3.0,0.0
5055,83.0,0.0,90.0,2.0,0.0
5056,71.0,0.0,90.0,3.0,0.0
5057,86.0,60.0,40.0,10.0,0.0
5058,74.0,0.0,40.0,11.0,0.0
5059,76.0,24.0,40.0,11.0,0.0
5060,88.0,0.0,40.0,10.0,0.0
5061,77.0,0.0,40.0,11.0,0.0
5062,89.0,60.0,40.0,10.0,0.0
5063,89.0,12.0,90.0,10.0,0.0
5064,38.0,48.0,40.0,14.0,0.0
5065,77.0,0.0,90.0,11.0,0.0
5066,38.0,108.0,40.0,14.0,0.0
5067,64.0,0.0,90.0,5.0,0.0
5068,52.0,12.0,90.0,5.0,0.0
5069,74.0,0.0,90.0,3.0,0.0
5070,71.0,0.0,90.0,3.0,0.0
5071,86.0,0.0,90.0,2.0,0.0
5072,83.0,0.0,90.0,2.0,0.0
5073,38.0,36.0,180.0,14.0,0.0
5074,83.0,0.0,40.0,10.0,0.0
5075,71.0,60.0,40.0,11.0,0.0
5076,84.0,24.0,40.0,10.0,0.0
5077,72.0,0.0,40.0,11.0,0.0
5078,74.0,0.0,40.0,11.0,0.0
5079,86.0,60.0,40.0,10.0,0.0
5080,86.0,0.0,90.0,10.0,0.0
5081,74.0,12.0,90.0,11.0,0.0
5082,35.0,48.0,40.0,14.0,0.0
5083,35.0,108.0,40.0,14.0,0.0
5084,74.0,0.0,90.0,3.0,0.0
5085,52.0,0.0,90.0,5.0,0.0
5086,64.0,0.0,90.0,5.0,0.0
5087,86.0,12.0,90.0,2.0,0.0
5088,71.0,0.0,90.0,3.0,0.0
5089,83.0,0.0,90.0,2.0,0.0
5090,35.0,36.0,180.0,14.0,0.0
5091,68.0,60.0,40.0,11.0,0.0
5092,80.0,0.0,40.0,10.0,0.0
5093,81.0,0.0,40.0,10.0,0.0
5094,69.0,0.0,40.0,11.0,0.0
5095,83.0,0.0,40.0,10.0,0.0
5096,71.0,60.0,40.0,11.0,0.0
5097,83.0,0.0,90.0,10.0,0.0
5098,71.0,12.0,90.0,11.0,0.0
5099,44.0,0.0,300.0,13.0,0.0
5100,32.0,48.0,40.0,14.0,0.0
5101,32.0,108.0,40.0,14.0,0.0
5102,64.0,0.0,90.0,5.0,0.0
5103,52.0,0.0,90.0,5.0,0.0
5104,74.0,0.0,90.0,3.0,0.0
5105,86.0,0.0,90.0,2.0,0.0
5106,83.0,0.0,90.0,2.0,0.0
5107,71.0,12.0,90.0,3.0,0.0
5108,32.0,36.0,180.0,14.0,0.0
5109,71.0,60.0,40.0,11.0,0.0
5110,83.0,0.0,40.0,10.0,0.0
5111,72.0,0.0,40.0,11.0,0.0
5112,84.0,24.0,40.0,10.0,0.0
5113,74.0,0.0,40.0,11.0,0.0
5114,86.0,60.0,40.0,10.0,0.0
5115,52.0,0.0,1020.0,13.0,0.0
5116,86.0,0.0,90.0,10.0,0.0
5117,40.0,0.0,1020.0,13.0,0.0
5118,74.0,12.0,90.0,11.0,0.0
5119,40.0,48.0,40.0,14.0,0.0
5120,62.0,0.0,1380.0,12.0,0.0
5121,52.0,24.0,1380.0,12.0,0.0
5122,40.0,108.0,40.0,14.0,0.0
5123,40.0,36.0,180.0,14.0,0.0
5124,83.0,0.0,90.0,2.0,0.0
5125,68.0,0.0,90.0,4.0,0.0
5126,71.0,0.0,90.0,3.0,0.0
5127,80.0,0.0,90.0,0.0,0.0
5128,89.0,12.0,90.0,0.0,0.0
5129,86.0,0.0,90.0,2.0,0.0
5130,71.0,0.0,90.0,4.0,0.0
5131,74.0,0.0,90.0,3.0,0.0
5132,64.0,0.0,90.0,5.0,0.0
5133,52.0,0.0,90.0,5.0,0.0
5134,86.0,0.0,40.0,10.0,0.0
5135,74.0,60.0,40.0,11.0,0.0
5136,88.0,0.0,40.0,10.0,0.0
5137,76.0,24.0,40.0,11.0,0.0
5138,77.0,60.0,40.0,11.0,0.0
5139,89.0,0.0,40.0,10.0,0.0
5140,89.0,12.0,90.0,10.0,0.0
5141,38.0,48.0,40.0,14.0,0.0
5142,77.0,0.0,90.0,11.0,0.0
5143,38.0,108.0,40.0,14.0,0.0
5144,86.0,0.0,90.0,2.0,0.0
5145,38.0,36.0,180.0,14.0,0.0
5146,83.0,0.0,90.0,2.0,0.0
5147,71.0,0.0,90.0,3.0,0.0
5148,64.0,0.0,90.0,5.0,0.0
5149,52.0,12.0,90.0,5.0,0.0
5150,71.0,0.0,90.0,4.0,0.0
5151,68.0,0.0,90.0,4.0,0.0
5152,89.0,0.0,90.0,0.0,0.0
5153,80.0,0.0,90.0,0.0,0.0
5154,74.0,0.0,90.0,3.0,0.0
5155,83.0,0.0,40.0,10.0,0.0
5156,71.0,60.0,40.0,11.0,0.0
5157,84.0,0.0,40.0,10.0,0.0
5158,72.0,24.0,40.0,11.0,0.0
5159,86.0,0.0,40.0,10.0,0.0
5160,74.0,60.0,40.0,11.0,0.0
5161,74.0,0.0,90.0,11.0,0.0
5162,86.0,12.0,90.0,10.0,0.0
5163,35.0,48.0,40.0,14.0,0.0
5164,35.0,108.0,40.0,14.0,0.0
5165,83.0,0.0,90.0,2.0,0.0
5166,80.0,0.0,90.0,0.0,0.0
5167,89.0,0.0,90.0,0.0,0.0
5168,64.0,0.0,90.0,5.0,0.0
5169,68.0,0.0,90.0,4.0,0.0
5170,52.0,12.0,90.0,5.0,0.0
5171,86.0,0.0,90.0,2.0,0.0
5172,74.0,0.0,90.0,3.0,0.0
5173,71.0,0.0,90.0,3.0,0.0
5174,35.0,36.0,180.0,14.0,0.0
5175,71.0,0.0,90.0,4.0,0.0
5176,68.0,60.0,40.0,11.0,0.0
5177,80.0,0.0,40.0,10.0,0.0
5178,81.0,24.0,40.0,10.0,0.0
5179,69.0,0.0,40.0,11.0,0.0
5180,83.0,0.0,40.0,10.0,0.0
5181,71.0,60.0,40.0,11.0,0.0
5182,83.0,0.0,90.0,10.0,0.0
5183,32.0,48.0,40.0,14.0,0.0
5184,44.0,0.0,300.0,13.0,0.0
5185,71.0,12.0,90.0,11.0,0.0
5186,32.0,108.0,40.0,14.0,0.0
5187,74.0,0.0,90.0,3.0,0.0
5188,86.0,0.0,90.0,2.0,0.0
5189,80.0,0.0,90.0,0.0,0.0
5190,89.0,0.0,90.0,0.0,0.0
5191,83.0,0.0,90.0,2.0,0.0
5192,68.0,0.0,90.0,4.0,0.0
5193,71.0,12.0,90.0,4.0,0.0
5194,71.0,0.0,90.0,3.0,0.0
5195,64.0,0.0,90.0,5.0,0.0
5196,52.0,0.0,90.0,5.0,0.0
5197,32.0,36.0,180.0,14.0,0.0
5198,83.0,0.0,40.0,10.0,0.0
5199,71.0,60.0,40.0,11.0,0.0
5200,72.0,0.0,40.0,11.0,0.0
5201,84.0,0.0,40.0,10.0,0.0
5202,86.0,0.0,40.0,10.0,0.0
5203,74.0,60.0,40.0,11.0,0.0
5204,40.0,0.0,40.0,13.0,0.0
5205,74.0,12.0,90.0,11.0,0.0
5206,40.0,48.0,40.0,14.0,0.0
5207,62.0,103.0,1200.0,12.0,0.0
5208,86.0,0.0,90.0,10.0,0.0
5209,52.0,0.0,1200.0,12.0,0.0
5210,40.0,108.0,40.0,14.0,0.0
5211,40.0,0.0,40.0,13.0,0.0
5212,83.0,0.0,90.0,2.0,0.0
5213,71.0,0.0,90.0,4.0,0.0
5214,71.0,0.0,90.0,3.0,0.0
5215,86.0,0.0,90.0,2.0,0.0
5216,74.0,12.0,90.0,3.0,0.0
5217,68.0,0.0,90.0,4.0,0.0
5218,40.0,0.0,180.0,14.0,0.0
5219,80.0,0.0,90.0,0.0,0.0
5220,89.0,0.0,90.0,0.0,0.0
5221,40.0,36.0,180.0,13.0,0.0
5222,52.0,0.0,90.0,5.0,0.0
5223,64.0,0.0,90.0,5.0,0.0
5224,74.0,0.0,40.0,11.0,0.0
5225,86.0,60.0,40.0,10.0,0.0
5226,76.0,0.0,40.0,11.0,0.0
5227,88.0,24.0,40.0,10.0,0.0
5228,77.0,0.0,40.0,11.0,0.0
5229,89.0,60.0,40.0,10.0,0.0
5230,77.0,12.0,90.0,11.0,0.0
5231,89.0,0.0,90.0,10.0,0.0
5232,40.0,0.0,40.0,14.0,0.0
5233,40.0,48.0,40.0,13.0,0.0
5234,40.0,108.0,40.0,13.0,0.0
5235,40.0,0.0,40.0,14.0,0.0
5236,71.0,0.0,90.0,4.0,0.0
5237,40.0,36.0,180.0,14.0,0.0
5238,86.0,0.0,90.0,2.0,0.0
5239,83.0,0.0,90.0,2.0,0.0
5240,68.0,0.0,90.0,4.0,0.0
5241,89.0,0.0,90.0,0.0,0.0
5242,40.0,0.0,180.0,13.0,0.0
5243,80.0,0.0,90.0,0.0,0.0
5244,64.0,12.0,90.0,5.0,0.0
5245,71.0,0.0,90.0,3.0,0.0
5246,52.0,0.0,90.0,5.0,0.0
5247,74.0,0.0,90.0,3.0,0.0
5248,86.0,60.0,40.0,10.0,0.0
5249,74.0,0.0,40.0,11.0,0.0
5250,88.0,0.0,40.0,10.0,0.0
5251,76.0,24.0,40.0,11.0,0.0
5252,77.0,0.0,40.0,11.0,0.0
5253,89.0,60.0,40.0,10.0,0.0
5254,77.0,0.0,90.0,11.0,0.0
5255,89.0,12.0,90.0,10.0,0.0
5256,40.0,0.0,40.0,13.0,0.0
5257,40.0,48.0,40.0,14.0,0.0
5258,40.0,108.0,40.0,13.0,0.0
5259,40.0,0.0,40.0,14.0,0.0
5260,83.0,12.0,90.0,2.0,0.0
5261,64.0,0.0,90.0,5.0,0.0
5262,89.0,0.0,90.0,0.0,0.0
5263,80.0,0.0,90.0,0.0,0.0
5264,52.0,0.0,90.0,5.0,0.0
5265,71.0,0.0,90.0,3.0,0.0
5266,74.0,0.0,90.0,3.0,0.0
5267,68.0,0.0,90.0,4.0,0.0
5268,71.0,0.0,90.0,4.0,0.0
5269,40.0,0.0,180.0,13.0,0.0
5270,40.0,36.0,180.0,14.0,0.0
5271,86.0,0.0,90.0,2.0,0.0
5272,86.0,60.0,40.0,10.0,0.0
5273,74.0,0.0,40.0,11.0,0.0
5274,88.0,24.0,40.0,10.0,0.0
5275,76.0,0.0,40.0,11.0,0.0
5276,77.0,0.0,40.0,11.0,0.0
5277,89.0,108.0,40.0,10.0,0.0
5278,40.0,0.0,90.0,13.0,0.0
5279,77.0,0.0,90.0,11.0,0.0
5280,40.0,17.0,90.0,14.0,0.0
5281,89.0,0.0,90.0,10.0,0.0
5282,79.0,0.0,90.0,0.0,0.0
5283,68.0,0.0,90.0,4.0,0.0
5284,83.0,0.0,90.0,2.0,0.0
5285,86.0,0.0,90.0,2.0,0.0
5286,71.0,0.0,90.0,4.0,0.0
5287,88.0,0.0,90.0,0.0,0.0
5288,64.0,0.0,90.0,5.0,0.0
5289,71.0,84.0,90.0,3.0,0.0
5290,74.0,0.0,90.0,3.0,0.0
5291,52.0,0.0,90.0,5.0,0.0
5292,45.0,0.0,930.0,4.0,0.0
5293,69.0,0.0,930.0,6.0,0.0
5294,40.0,36.0,60.0,13.0,0.0
5295,88.0,0.0,120.0,10.0,0.0
5296,76.0,0.0,120.0,2.0,0.0
5297,52.0,0.0,60.0,12.0,0.0
5298,88.0,0.0,120.0,2.0,0.0
5299,72.0,0.0,930.0,6.0,0.0
5300,76.0,0.0,930.0,7.0,0.0
5301,52.0,0.0,930.0,5.0,0.0
5302,76.0,0.0,120.0,11.0,0.0
5303,45.0,24.0,90.0,8.0,0.0
5304,72.0,0.0,930.0,3.0,0.0
5305,33.0,0.0,930.0,14.0,0.0
5306,64.0,0.0,930.0,5.0,0.0
5307,64.0,24.0,930.0,7.0,0.0
5308,88.0,0.0,930.0,0.0,0.0
5309,93.0,0.0,930.0,0.0,0.0
5310,76.0,32.0,120.0,3.0,0.0
5311,53.0,0.0,60.0,12.0,0.0
5312,41.0,0.0,60.0,13.0,0.0
5313,81.0,0.0,810.0,2.0,0.0
5314,81.0,0.0,810.0,3.0,0.0
5315,52.0,12.0,60.0,12.0,0.0
5316,77.0,0.0,120.0,11.0,0.0
5317,89.0,0.0,120.0,10.0,0.0
5318,45.0,28.0,30.0,8.0,0.0
5319,40.0,0.0,60.0,13.0,0.0
5320,84.0,0.0,810.0,2.0,0.0
5321,45.0,40.0,30.0,8.0,0.0
5322,41.0,32.0,60.0,13.0,0.0
5323,53.0,0.0,60.0,12.0,0.0
5324,45.0,8.0,30.0,8.0,0.0
5325,88.0,16.0,90.0,10.0,0.0
5326,52.0,12.0,60.0,12.0,0.0
5327,76.0,0.0,90.0,11.0,0.0
5328,45.0,28.0,30.0,8.0,0.0
5329,40.0,0.0,60.0,13.0,0.0
5330,45.0,24.0,30.0,8.0,0.0
5331,41.0,0.0,60.0,13.0,0.0
5332,53.0,32.0,60.0,12.0,0.0
5333,45.0,8.0,30.0,8.0,0.0
5334,72.0,16.0,90.0,11.0,0.0
5335,40.0,12.0,60.0,13.0,0.0
5336,84.0,0.0,90.0,10.0,0.0
5337,45.0,28.0,30.0,8.0,0.0
5338,52.0,0.0,60.0,12.0,0.0
5339,45.0,24.0,30.0,8.0,0.0
5340,53.0,60.0,60.0,12.0,0.0
5341,41.0,0.0,60.0,13.0,0.0
5342,45.0,8.0,30.0,8.0,0.0
5343,45.0,0.0,90.0,8.0,0.0
5344,81.0,24.0,90.0,10.0,0.0
5345,40.0,36.0,60.0,13.0,0.0
5346,52.0,0.0,60.0,12.0,0.0
5347,69.0,0.0,90.0,11.0,0.0
5348,41.0,0.0,60.0,13.0,0.0
5349,53.0,60.0,60.0,12.0,0.0
5350,65.0,0.0,90.0,11.0,0.0
5351,77.0,24.0,90.0,10.0,0.0
5352,40.0,36.0,60.0,13.0,0.0
5353,52.0,0.0,60.0,12.0,0.0
5354,53.0,60.0,60.0,12.0,0.0
5355,41.0,0.0,60.0,13.0,0.0
5356,64.0,24.0,90.0,11.0,0.0
5357,76.0,0.0,90.0,10.0,0.0
5358,40.0,36.0,60.0,13.0,0.0
5359,52.0,0.0,60.0,12.0,0.0
5360,41.0,0.0,60.0,13.0,0.0
5361,53.0,60.0,60.0,12.0,0.0
5362,40.0,36.0,60.0,13.0,0.0
5363,52.0,0.0,60.0,12.0,0.0
5364,72.0,60.0,240.0,10.0,0.0
5365,53.0,60.0,60.0,12.0,0.0
5366,41.0,0.0,60.0,13.0,0.0
5367,72.0,0.0,90.0,3.0,0.0
5368,33.0,0.0,90.0,14.0,0.0
5369,64.0,0.0,90.0,7.0,0.0
5370,45.0,24.0,90.0,4.0,0.0
5371,88.0,0.0,90.0,0.0,0.0
5372,93.0,0.0,90.0,0.0,0.0
5373,45.0,0.0,90.0,8.0,0.0
5374,76.0,0.0,90.0,7.0,0.0
5375,72.0,0.0,90.0,6.0,0.0
5376,52.0,0.0,90.0,5.0,0.0
5377,76.0,0.0,90.0,3.0,0.0
5378,52.0,0.0,60.0,12.0,0.0
5379,84.0,0.0,90.0,2.0,0.0
5380,64.0,0.0,90.0,5.0,0.0
5381,69.0,0.0,90.0,6.0,0.0
5382,81.0,0.0,90.0,2.0,0.0
5383,40.0,36.0,60.0,13.0,0.0
5384,53.0,0.0,60.0,12.0,0.0
5385,41.0,0.0,60.0,13.0,0.0
5386,36.0,0.0,90.0,14.0,0.0
5387,88.0,0.0,90.0,0.0,0.0
5388,93.0,0.0,90.0,0.0,0.0
5389,81.0,0.0,90.0,2.0,0.0
5390,45.0,0.0,90.0,8.0,0.0
5391,84.0,0.0,90.0,2.0,0.0
5392,48.0,0.0,90.0,4.0,0.0
5393,69.0,0.0,90.0,10.0,0.0
5394,52.0,0.0,90.0,5.0,0.0
5395,72.0,0.0,90.0,6.0,0.0
5396,69.0,0.0,90.0,6.0,0.0
5397,76.0,0.0,90.0,7.0,0.0
5398,64.0,0.0,90.0,7.0,0.0
5399,40.0,0.0,60.0,13.0,0.0
5400,72.0,0.0,90.0,3.0,0.0
5401,60.0,0.0,15.0,11.0,0.0
5402,52.0,36.0,60.0,12.0,0.0
5403,76.0,24.0,90.0,3.0,0.0
5404,64.0,0.0,90.0,5.0,0.0
5405,53.0,0.0,60.0,12.0,0.0
5406,41.0,60.0,60.0,13.0,0.0
5407,76.0,0.0,90.0,3.0,0.0
5408,71.0,0.0,90.0,3.0,0.0
5409,64.0,0.0,90.0,7.0,0.0
5410,76.0,0.0,90.0,7.0,0.0
5411,88.0,0.0,90.0,0.0,0.0
5412,59.0,0.0,90.0,11.0,0.0
5413,52.0,0.0,90.0,4.0,0.0
5414,52.0,36.0,60.0,12.0,0.0
5415,92.0,0.0,90.0,0.0,0.0
5416,71.0,0.0,90.0,6.0,0.0
5417,52.0,0.0,90.0,5.0,0.0
5418,64.0,0.0,90.0,5.0,0.0
5419,83.0,0.0,90.0,2.0,0.0
5420,80.0,0.0,90.0,2.0,0.0
5421,40.0,0.0,90.0,14.0,0.0
5422,52.0,0.0,90.0,8.0,0.0
5423,68.0,24.0,90.0,10.0,0.0
5424,40.0,0.0,60.0,13.0,0.0
5425,41.0,0.0,60.0,13.0,0.0
5426,53.0,60.0,60.0,12.0,0.0
5427,40.0,0.0,60.0,13.0,0.0
5428,52.0,60.0,60.0,12.0,0.0
5429,53.0,0.0,60.0,12.0,0.0
5430,41.0,60.0,60.0,13.0,0.0
5431,76.0,32.0,120.0,11.0,0.0
5432,40.0,0.0,930.0,4.0,0.0
5433,88.0,0.0,120.0,10.0,0.0
5434,88.0,0.0,930.0,0.0,0.0
5435,52.0,0.0,930.0,5.0,0.0
5436,64.0,24.0,930.0,5.0,0.0
5437,71.0,0.0,930.0,6.0,0.0
5438,52.0,0.0,930.0,4.0,0.0
5439,40.0,0.0,930.0,14.0,0.0
5440,76.0,0.0,930.0,7.0,0.0
5441,92.0,0.0,930.0,0.0,0.0
5442,40.0,0.0,60.0,13.0,0.0
5443,86.0,0.0,930.0,2.0,0.0
5444,83.0,0.0,930.0,2.0,0.0
5445,52.0,24.0,90.0,8.0,0.0
5446,74.0,0.0,120.0,3.0,0.0
5447,80.0,0.0,120.0,3.0,0.0
5448,52.0,36.0,60.0,12.0,0.0
5449,64.0,0.0,930.0,7.0,0.0
5450,41.0,0.0,60.0,13.0,0.0
5451,53.0,0.0,60.0,12.0,0.0
5452,40.0,12.0,60.0,13.0,0.0
5453,77.0,0.0,120.0,11.0,0.0
5454,52.0,28.0,30.0,8.0,0.0
5455,71.0,0.0,810.0,3.0,0.0
5456,62.0,0.0,810.0,6.0,0.0
5457,74.0,0.0,810.0,3.0,0.0
5458,52.0,0.0,60.0,12.0,0.0
5459,89.0,0.0,120.0,10.0,0.0
5460,52.0,40.0,30.0,8.0,0.0
5461,41.0,32.0,60.0,13.0,0.0
5462,53.0,0.0,60.0,12.0,0.0
5463,52.0,8.0,30.0,8.0,0.0
5464,40.0,0.0,60.0,13.0,0.0
5465,88.0,16.0,90.0,10.0,0.0
5466,52.0,28.0,30.0,8.0,0.0
5467,52.0,12.0,60.0,12.0,0.0
5468,76.0,0.0,90.0,11.0,0.0
5469,52.0,24.0,30.0,8.0,0.0
5470,41.0,32.0,60.0,13.0,0.0
5471,53.0,0.0,60.0,12.0,0.0
5472,52.0,8.0,30.0,8.0,0.0
5473,86.0,0.0,90.0,10.0,0.0
5474,40.0,12.0,60.0,13.0,0.0
5475,52.0,0.0,60.0,12.0,0.0
5476,74.0,16.0,90.0,11.0,0.0
5477,52.0,28.0,30.0,8.0,0.0
5478,52.0,24.0,30.0,8.0,0.0
5479,53.0,0.0,60.0,12.0,0.0
5480,41.0,60.0,60.0,13.0,0.0
5481,52.0,8.0,30.0,8.0,0.0
5482,71.0,0.0,90.0,11.0,0.0
5483,83.0,0.0,90.0,10.0,0.0
5484,40.0,36.0,60.0,13.0,0.0
5485,52.0,24.0,90.0,8.0,0.0
5486,52.0,0.0,60.0,12.0,0.0
5487,53.0,0.0,60.0,12.0,0.0
5488,41.0,60.0,60.0,13.0,0.0
5489,52.0,36.0,60.0,12.0,0.0
5490,40.0,0.0,60.0,13.0,0.0
5491,80.0,24.0,90.0,10.0,0.0
5492,68.0,0.0,90.0,11.0,0.0
5493,41.0,0.0,60.0,13.0,0.0
5494,53.0,60.0,60.0,12.0,0.0
5495,65.0,24.0,90.0,11.0,0.0
5496,40.0,0.0,60.0,13.0,0.0
5497,77.0,0.0,90.0,10.0,0.0
5498,52.0,36.0,60.0,12.0,0.0
5499,53.0,60.0,60.0,12.0,0.0
5500,41.0,0.0,60.0,13.0,0.0
5501,76.0,60.0,240.0,10.0,0.0
5502,64.0,0.0,120.0,11.0,0.0
5503,40.0,0.0,60.0,13.0,0.0
5504,52.0,36.0,60.0,12.0,0.0
5505,53.0,60.0,60.0,12.0,0.0
5506,41.0,0.0,60.0,13.0,0.0
5507,62.0,0.0,90.0,6.0,0.0
5508,71.0,0.0,90.0,6.0,0.0
5509,40.0,24.0,90.0,14.0,0.0
5510,52.0,0.0,90.0,4.0,0.0
5511,40.0,0.0,90.0,4.0,0.0
5512,59.0,0.0,120.0,11.0,0.0
5513,71.0,0.0,90.0,3.0,0.0
5514,76.0,0.0,90.0,7.0,0.0
5515,64.0,0.0,90.0,7.0,0.0
5516,74.0,0.0,90.0,3.0,0.0
5517,88.0,0.0,90.0,0.0,0.0
5518,86.0,0.0,90.0,2.0,0.0
5519,52.0,0.0,90.0,5.0,0.0
5520,64.0,0.0,90.0,5.0,0.0
5521,40.0,0.0,60.0,13.0,0.0
5522,83.0,0.0,90.0,2.0,0.0
5523,92.0,0.0,90.0,0.0,0.0
5524,52.0,0.0,90.0,8.0,0.0
5525,52.0,36.0,60.0,12.0,0.0
5526,53.0,0.0,60.0,12.0,0.0
5527,41.0,0.0,60.0,13.0,0.0
5528,52.0,0.0,90.0,5.0,0.0
5529,40.0,0.0,90.0,4.0,0.0
5530,52.0,0.0,90.0,12.0,0.0
5531,71.0,0.0,90.0,6.0,0.0
5532,52.0,0.0,90.0,4.0,0.0
5533,74.0,0.0,90.0,3.0,0.0
5534,71.0,0.0,90.0,3.0,0.0
5535,64.0,0.0,90.0,5.0,0.0
5536,64.0,0.0,90.0,7.0,0.0
5537,74.0,36.0,60.0,10.0,0.0
5538,62.0,0.0,90.0,11.0,0.0
5539,83.0,0.0,90.0,2.0,0.0
5540,86.0,0.0,90.0,2.0,0.0
5541,40.0,12.0,90.0,13.0,0.0
5542,52.0,0.0,90.0,8.0,0.0
5543,88.0,0.0,90.0,0.0,0.0
5544,92.0,0.0,90.0,0.0,0.0
5545,40.0,0.0,90.0,14.0,0.0
5546,76.0,0.0,90.0,7.0,0.0
5547,71.0,108.0,40.0,10.0,0.0
5548,69.0,0.0,90.0,3.0,0.0
5549,93.0,0.0,90.0,0.0,0.0
5550,45.0,0.0,90.0,4.0,0.0
5551,57.0,0.0,90.0,4.0,0.0
5552,81.0,0.0,90.0,7.0,0.0
5553,57.0,0.0,90.0,12.0,0.0
5554,69.0,0.0,90.0,7.0,0.0
5555,88.0,0.0,90.0,0.0,0.0
5556,72.0,0.0,90.0,3.0,0.0
5557,69.0,0.0,90.0,10.0,0.0
5558,69.0,120.0,90.0,5.0,0.0
5559,45.0,0.0,90.0,14.0,0.0
5560,69.0,0.0,90.0,6.0,0.0
5561,60.0,0.0,90.0,11.0,0.0
5562,45.0,0.0,90.0,8.0,0.0
5563,81.0,0.0,90.0,2.0,0.0
5564,84.0,0.0,90.0,2.0,0.0
5565,57.0,0.0,90.0,5.0,0.0
5566,45.0,0.0,90.0,13.0,0.0
5567,45.0,0.0,90.0,13.0,0.0
5568,33.0,120.0,90.0,14.0,0.0
5569,72.0,144.0,120.0,11.0,0.0
5570,33.0,24.0,90.0,14.0,0.0
5571,57.0,48.0,270.0,12.0,0.0
5572,81.0,0.0,120.0,10.0,0.0
5573,45.0,0.0,90.0,4.0,0.0
5574,57.0,0.0,270.0,13.0,0.0
5575,79.0,48.0,240.0,10.0,0.0
5576,38.0,0.0,180.0,14.0,0.0
5577,74.0,0.0,240.0,11.0,0.0
5578,50.0,36.0,180.0,4.0,0.0
5579,57.0,12.0,40.0,13.0,0.0
5580,57.0,0.0,40.0,12.0,0.0
5581,50.0,0.0,90.0,4.0,0.0
5582,38.0,12.0,90.0,14.0,0.0
5583,74.0,0.0,120.0,11.0,0.0
5584,57.0,48.0,40.0,12.0,0.0
5585,57.0,0.0,40.0,13.0,0.0
5586,77.0,96.0,120.0,10.0,0.0
5587,59.0,0.0,40.0,12.0,0.0
5588,59.0,12.0,40.0,13.0,0.0
5589,76.0,0.0,90.0,10.0,0.0
5590,60.0,0.0,90.0,13.0,0.0
5591,72.0,0.0,90.0,11.0,0.0
5592,33.0,120.0,90.0,14.0,0.0
5593,45.0,0.0,90.0,4.0,0.0
5594,60.0,0.0,90.0,12.0,0.0
5595,57.0,0.0,90.0,12.0,0.0
5596,57.0,144.0,90.0,13.0,0.0
5597,72.0,0.0,120.0,3.0,0.0
5598,69.0,0.0,270.0,10.0,0.0
5599,57.0,0.0,120.0,4.0,0.0
5600,64.0,0.0,120.0,4.0,0.0
5601,69.0,0.0,300.0,6.0,0.0
5602,93.0,144.0,120.0,0.0,0.0
5603,69.0,0.0,270.0,11.0,0.0
5604,57.0,0.0,270.0,13.0,0.0
5605,81.0,0.0,120.0,3.0,0.0
5606,57.0,48.0,270.0,12.0,0.0
5607,81.0,0.0,420.0,2.0,0.0
5608,84.0,0.0,120.0,2.0,0.0
5609,65.0,36.0,180.0,4.0,0.0
5610,62.0,0.0,180.0,4.0,0.0
5611,86.0,0.0,300.0,2.0,0.0
5612,79.0,48.0,240.0,3.0,0.0
5613,74.0,0.0,300.0,3.0,0.0
5614,91.0,0.0,240.0,0.0,0.0
5615,69.0,12.0,40.0,10.0,0.0
5616,57.0,0.0,40.0,13.0,0.0
5617,57.0,0.0,40.0,12.0,0.0
5618,69.0,0.0,40.0,11.0,0.0
5619,57.0,0.0,40.0,12.0,0.0
5620,57.0,0.0,40.0,13.0,0.0
5621,89.0,0.0,90.0,0.0,0.0
5622,69.0,12.0,90.0,6.0,0.0
5623,69.0,48.0,40.0,11.0,0.0
5624,62.0,0.0,90.0,4.0,0.0
5625,69.0,0.0,40.0,10.0,0.0
5626,77.0,0.0,90.0,3.0,0.0
5627,65.0,0.0,90.0,4.0,0.0
5628,59.0,108.0,40.0,13.0,0.0
5629,71.0,0.0,40.0,11.0,0.0
5630,59.0,0.0,40.0,12.0,0.0
5631,71.0,0.0,40.0,10.0,0.0
5632,71.0,0.0,120.0,11.0,0.0
5633,72.0,0.0,90.0,3.0,0.0
5634,84.0,0.0,90.0,2.0,0.0
5635,81.0,0.0,90.0,2.0,0.0
5636,64.0,0.0,90.0,4.0,0.0
5637,57.0,24.0,90.0,4.0,0.0
5638,76.0,0.0,90.0,3.0,0.0
5639,88.0,0.0,90.0,0.0,0.0
5640,71.0,96.0,120.0,10.0,0.0
5641,69.0,0.0,90.0,6.0,0.0
5642,60.0,0.0,90.0,12.0,0.0
5643,60.0,0.0,90.0,13.0,0.0
5644,57.0,120.0,90.0,13.0,0.0
5645,69.0,0.0,90.0,11.0,0.0
5646,69.0,0.0,90.0,10.0,0.0
5647,57.0,0.0,90.0,12.0,0.0
5648,57.0,0.0,270.0,13.0,0.0
5649,81.0,0.0,120.0,10.0,0.0
5650,33.0,0.0,90.0,14.0,0.0
5651,72.0,144.0,120.0,11.0,0.0
5652,45.0,24.0,90.0,4.0,0.0
5653,57.0,48.0,270.0,12.0,0.0
5654,79.0,48.0,240.0,10.0,0.0
5655,38.0,0.0,180.0,14.0,0.0
5656,50.0,36.0,180.0,4.0,0.0
5657,74.0,0.0,240.0,11.0,0.0
5658,57.0,0.0,40.0,13.0,0.0
5659,57.0,12.0,40.0,12.0,0.0
5660,38.0,12.0,90.0,14.0,0.0
5661,74.0,96.0,120.0,11.0,0.0
5662,57.0,0.0,40.0,13.0,0.0
5663,57.0,48.0,40.0,12.0,0.0
5664,50.0,0.0,90.0,4.0,0.0
5665,77.0,0.0,120.0,10.0,0.0
5666,59.0,12.0,40.0,13.0,0.0
5667,59.0,0.0,40.0,12.0,0.0
5668,76.0,0.0,90.0,10.0,0.0
5669,60.0,120.0,90.0,13.0,0.0
5670,60.0,0.0,90.0,12.0,0.0
5671,72.0,0.0,90.0,11.0,0.0
5672,33.0,0.0,90.0,14.0,0.0
5673,45.0,0.0,90.0,4.0,0.0
5674,57.0,0.0,90.0,12.0,0.0
5675,57.0,120.0,90.0,13.0,0.0
5676,81.0,0.0,90.0,2.0,0.0
5677,69.0,0.0,90.0,6.0,0.0
5678,69.0,0.0,90.0,7.0,0.0
5679,89.0,72.0,90.0,0.0,0.0
5680,45.0,0.0,90.0,8.0,0.0
5681,93.0,0.0,90.0,0.0,0.0
5682,84.0,0.0,90.0,2.0,0.0
5683,72.0,0.0,90.0,6.0,0.0
5684,72.0,0.0,90.0,3.0,0.0
5685,65.0,0.0,90.0,4.0,0.0
5686,53.0,0.0,90.0,4.0,0.0
5687,77.0,0.0,90.0,3.0,0.0
5688,57.0,0.0,90.0,5.0,0.0
5689,69.0,0.0,90.0,5.0,0.0
5690,69.0,0.0,90.0,3.0,0.0
5691,77.0,0.0,90.0,3.0,0.0
5692,53.0,0.0,40.0,13.0,0.0
5693,69.0,0.0,90.0,7.0,0.0
5694,65.0,0.0,90.0,11.0,0.0
5695,89.0,0.0,90.0,0.0,0.0
5696,53.0,0.0,90.0,4.0,0.0
5697,65.0,0.0,90.0,4.0,0.0
5698,69.0,0.0,90.0,6.0,0.0
5699,77.0,0.0,90.0,0.0,0.0
5700,57.0,0.0,90.0,12.0,0.0
5701,41.0,48.0,40.0,14.0,0.0
5702,45.0,12.0,90.0,8.0,0.0
5703,77.0,0.0,90.0,10.0,0.0
5704,69.0,0.0,90.0,5.0,0.0
5705,57.0,0.0,90.0,5.0,0.0
5706,77.0,0.0,90.0,2.0,0.0
5707,81.0,0.0,90.0,2.0,0.0
5708,53.0,0.0,40.0,13.0,0.0
5709,41.0,120.0,40.0,14.0,0.0
5710,53.0,0.0,180.0,13.0,0.0
5711,41.0,36.0,180.0,14.0,0.0
5712,57.0,0.0,40.0,12.0,0.0
5713,65.0,0.0,40.0,11.0,0.0
5714,77.0,60.0,40.0,10.0,0.0
5715,67.0,24.0,40.0,11.0,0.0
5716,79.0,0.0,40.0,10.0,0.0
5717,55.0,0.0,40.0,12.0,0.0
5718,53.0,0.0,40.0,12.0,0.0
5719,81.0,60.0,40.0,10.0,0.0
5720,69.0,0.0,40.0,11.0,0.0
5721,79.0,0.0,90.0,2.0,0.0
5722,70.0,12.0,90.0,11.0,0.0
5723,82.0,0.0,90.0,10.0,0.0
5724,70.0,0.0,90.0,3.0,0.0
5725,67.0,0.0,90.0,6.0,0.0
5726,65.0,0.0,90.0,4.0,0.0
5727,53.0,0.0,90.0,4.0,0.0
5728,82.0,0.0,90.0,2.0,0.0
5729,53.0,0.0,40.0,13.0,0.0
5730,89.0,0.0,90.0,0.0,0.0
5731,77.0,0.0,90.0,0.0,0.0
5732,58.0,0.0,90.0,12.0,0.0
5733,41.0,48.0,40.0,14.0,0.0
5734,77.0,0.0,90.0,3.0,0.0
5735,53.0,0.0,40.0,13.0,0.0
5736,41.0,120.0,40.0,14.0,0.0
5737,53.0,36.0,180.0,13.0,0.0
5738,41.0,0.0,180.0,14.0,0.0
5739,58.0,0.0,40.0,12.0,0.0
5740,67.0,60.0,40.0,11.0,0.0
5741,79.0,0.0,40.0,10.0,0.0
5742,81.0,0.0,40.0,10.0,0.0
5743,69.0,0.0,40.0,11.0,0.0
5744,57.0,24.0,40.0,12.0,0.0
5745,70.0,0.0,40.0,11.0,0.0
5746,82.0,60.0,40.0,10.0,0.0
5747,55.0,0.0,40.0,12.0,0.0
5748,69.0,0.0,90.0,7.0,0.0
5749,41.0,0.0,40.0,14.0,0.0
5750,72.0,0.0,90.0,3.0,0.0
5751,60.0,0.0,90.0,12.0,0.0
5752,77.0,0.0,90.0,3.0,0.0
5753,53.0,48.0,40.0,13.0,0.0
5754,84.0,0.0,90.0,10.0,0.0
5755,45.0,0.0,90.0,8.0,0.0
5756,77.0,0.0,90.0,0.0,0.0
5757,89.0,0.0,90.0,0.0,0.0
5758,72.0,0.0,90.0,11.0,0.0
5759,65.0,0.0,90.0,4.0,0.0
5760,53.0,0.0,90.0,4.0,0.0
5761,57.0,12.0,90.0,5.0,0.0
5762,69.0,0.0,90.0,5.0,0.0
5763,84.0,0.0,90.0,2.0,0.0
5764,69.0,0.0,90.0,6.0,0.0
5765,81.0,0.0,90.0,7.0,0.0
5766,81.0,0.0,90.0,2.0,0.0
5767,41.0,0.0,40.0,14.0,0.0
5768,53.0,120.0,40.0,13.0,0.0
5769,41.0,0.0,180.0,14.0,0.0
5770,53.0,36.0,180.0,13.0,0.0
5771,60.0,60.0,40.0,12.0,0.0
5772,69.0,0.0,40.0,11.0,0.0
5773,81.0,0.0,40.0,10.0,0.0
5774,58.0,0.0,40.0,12.0,0.0
5775,70.0,0.0,40.0,11.0,0.0
5776,82.0,24.0,40.0,10.0,0.0
5777,84.0,0.0,40.0,10.0,0.0
5778,57.0,0.0,40.0,12.0,0.0
5779,72.0,108.0,40.0,11.0,0.0
5780,82.0,0.0,90.0,2.0,0.0
5781,62.0,0.0,90.0,12.0,0.0
5782,41.0,0.0,90.0,14.0,0.0
5783,62.0,0.0,90.0,4.0,0.0
5784,86.0,0.0,90.0,2.0,0.0
5785,89.0,120.0,90.0,0.0,0.0
5786,74.0,0.0,90.0,11.0,0.0
5787,86.0,0.0,90.0,10.0,0.0
5788,86.0,0.0,90.0,0.0,0.0
5789,58.0,0.0,90.0,4.0,0.0
5790,70.0,0.0,90.0,3.0,0.0
5791,74.0,0.0,90.0,3.0,0.0
5792,53.0,0.0,90.0,13.0,0.0
5793,77.0,0.0,90.0,3.0,0.0
5794,55.0,0.0,90.0,4.0,0.0
5795,74.0,0.0,90.0,3.0,0.0
5796,53.0,0.0,90.0,13.0,0.0
5797,58.0,0.0,90.0,4.0,0.0
5798,58.0,0.0,90.0,12.0,0.0
5799,41.0,0.0,90.0,14.0,0.0
5800,67.0,0.0,90.0,6.0,0.0
5801,89.0,0.0,90.0,0.0,0.0
5802,94.0,0.0,90.0,0.0,0.0
5803,82.0,0.0,90.0,11.0,0.0
5804,86.0,0.0,90.0,10.0,0.0
5805,86.0,120.0,90.0,2.0,0.0
5806,82.0,0.0,90.0,2.0,0.0
5807,53.0,0.0,90.0,13.0,0.0
5808,70.0,0.0,90.0,3.0,0.0
5809,79.0,72.0,90.0,11.0,0.0
5810,67.0,0.0,90.0,6.0,0.0
5811,60.0,0.0,90.0,4.0,0.0
5812,91.0,0.0,90.0,0.0,0.0
5813,60.0,0.0,90.0,12.0,0.0
5814,88.0,0.0,90.0,0.0,0.0
5815,88.0,0.0,90.0,2.0,0.0
5816,41.0,0.0,90.0,14.0,0.0
5817,88.0,0.0,90.0,10.0,0.0
5818,82.0,0.0,90.0,2.0,0.0
5819,76.0,0.0,90.0,3.0,0.0
5820,81.0,0.0,90.0,11.0,0.0
5821,53.0,48.0,40.0,13.0,0.0
5822,77.0,0.0,90.0,3.0,0.0
5823,69.0,0.0,90.0,3.0,0.0
5824,53.0,0.0,90.0,4.0,0.0
5825,57.0,12.0,90.0,4.0,0.0
5826,69.0,0.0,90.0,6.0,0.0
5827,41.0,0.0,40.0,14.0,0.0
5828,69.0,0.0,90.0,7.0,0.0
5829,57.0,0.0,90.0,5.0,0.0
5830,45.0,0.0,90.0,8.0,0.0
5831,81.0,0.0,90.0,2.0,0.0
5832,93.0,0.0,90.0,0.0,0.0
5833,89.0,0.0,90.0,0.0,0.0
5834,84.0,0.0,90.0,2.0,0.0
5835,57.0,0.0,90.0,12.0,0.0
5836,89.0,0.0,90.0,10.0,0.0
5837,69.0,0.0,90.0,5.0,0.0
5838,41.0,120.0,40.0,14.0,0.0
5839,53.0,0.0,40.0,13.0,0.0
5840,53.0,36.0,180.0,13.0,0.0
5841,41.0,0.0,180.0,14.0,0.0
5842,57.0,60.0,40.0,12.0,0.0
5843,65.0,0.0,40.0,11.0,0.0
5844,77.0,0.0,40.0,10.0,0.0
5845,55.0,0.0,40.0,12.0,0.0
5846,67.0,24.0,40.0,11.0,0.0
5847,79.0,0.0,40.0,10.0,0.0
5848,69.0,0.0,40.0,11.0,0.0
5849,81.0,60.0,40.0,10.0,0.0
5850,53.0,0.0,40.0,12.0,0.0
5851,58.0,0.0,90.0,12.0,0.0
5852,41.0,0.0,40.0,14.0,0.0
5853,77.0,0.0,90.0,3.0,0.0
5854,82.0,0.0,90.0,10.0,0.0
5855,77.0,0.0,90.0,0.0,0.0
5856,65.0,0.0,90.0,4.0,0.0
5857,53.0,0.0,90.0,4.0,0.0
5858,70.0,0.0,90.0,3.0,0.0
5859,89.0,12.0,90.0,0.0,0.0
5860,67.0,0.0,90.0,6.0,0.0
5861,79.0,0.0,90.0,2.0,0.0
5862,82.0,0.0,90.0,2.0,0.0
5863,53.0,48.0,40.0,13.0,0.0
5864,70.0,0.0,90.0,11.0,0.0
5865,41.0,0.0,40.0,14.0,0.0
5866,53.0,120.0,40.0,13.0,0.0
5867,41.0,0.0,180.0,14.0,0.0
5868,53.0,36.0,180.0,13.0,0.0
5869,79.0,0.0,40.0,10.0,0.0
5870,58.0,0.0,40.0,12.0,0.0
5871,67.0,60.0,40.0,11.0,0.0
5872,81.0,24.0,40.0,10.0,0.0
5873,69.0,0.0,40.0,11.0,0.0
5874,57.0,0.0,40.0,12.0,0.0
5875,55.0,0.0,40.0,12.0,0.0
5876,82.0,60.0,40.0,10.0,0.0
5877,70.0,0.0,40.0,11.0,0.0
5878,69.0,0.0,90.0,5.0,0.0
5879,69.0,0.0,90.0,6.0,0.0
5880,69.0,12.0,90.0,7.0,0.0
5881,53.0,0.0,90.0,4.0,0.0
5882,65.0,0.0,90.0,4.0,0.0
5883,84.0,0.0,90.0,10.0,0.0
5884,45.0,0.0,90.0,8.0,0.0
5885,41.0,48.0,40.0,14.0,0.0
5886,72.0,0.0,90.0,11.0,0.0
5887,89.0,0.0,90.0,0.0,0.0
5888,77.0,0.0,90.0,0.0,0.0
5889,57.0,0.0,90.0,5.0,0.0
5890,72.0,0.0,90.0,3.0,0.0
5891,53.0,0.0,40.0,13.0,0.0
5892,81.0,0.0,90.0,2.0,0.0
5893,84.0,0.0,90.0,2.0,0.0
5894,77.0,0.0,90.0,3.0,0.0
5895,60.0,0.0,90.0,12.0,0.0
5896,53.0,0.0,40.0,13.0,0.0
5897,41.0,120.0,40.0,14.0,0.0
5898,53.0,36.0,180.0,13.0,0.0
5899,41.0,0.0,180.0,14.0,0.0
5900,60.0,0.0,40.0,12.0,0.0
5901,81.0,0.0,40.0,10.0,0.0
5902,69.0,60.0,40.0,11.0,0.0
5903,70.0,0.0,40.0,11.0,0.0
5904,82.0,0.0,40.0,10.0,0.0
5905,58.0,24.0,40.0,12.0,0.0
5906,57.0,0.0,40.0,12.0,0.0
5907,84.0,0.0,40.0,10.0,0.0
5908,72.0,108.0,40.0,11.0,0.0
5909,86.0,0.0,90.0,2.0,0.0
5910,86.0,0.0,90.0,10.0,0.0
5911,55.0,0.0,90.0,6.0,0.0
5912,67.0,0.0,90.0,6.0,0.0
5913,50.0,120.0,90.0,13.0,0.0
5914,74.0,0.0,90.0,3.0,0.0
5915,59.0,0.0,90.0,4.0,0.0
5916,79.0,0.0,90.0,3.0,0.0
5917,38.0,0.0,90.0,14.0,0.0
5918,89.0,0.0,90.0,0.0,0.0
5919,65.0,0.0,90.0,12.0,0.0
5920,83.0,0.0,90.0,2.0,0.0
5921,62.0,0.0,90.0,4.0,0.0
5922,71.0,0.0,90.0,11.0,0.0
5923,83.0,0.0,90.0,0.0,0.0
5924,65.0,0.0,90.0,12.0,0.0
5925,86.0,0.0,90.0,0.0,0.0
5926,67.0,0.0,90.0,6.0,0.0
5927,74.0,0.0,90.0,3.0,0.0
5928,55.0,0.0,90.0,6.0,0.0
5929,91.0,0.0,90.0,0.0,0.0
5930,38.0,0.0,90.0,14.0,0.0
5931,79.0,0.0,90.0,3.0,0.0
5932,83.0,0.0,90.0,2.0,0.0
5933,50.0,0.0,90.0,13.0,0.0
5934,86.0,120.0,90.0,2.0,0.0
5935,62.0,0.0,90.0,4.0,0.0
5936,86.0,0.0,90.0,10.0,0.0
5937,59.0,0.0,90.0,4.0,0.0
5938,71.0,0.0,90.0,11.0,0.0
5939,84.0,0.0,90.0,2.0,0.0
5940,36.0,72.0,90.0,14.0,0.0
5941,72.0,0.0,90.0,11.0,0.0
5942,76.0,0.0,90.0,7.0,0.0
5943,48.0,0.0,90.0,13.0,0.0
5944,60.0,0.0,90.0,4.0,0.0
5945,64.0,0.0,90.0,4.0,0.0
5946,64.0,0.0,90.0,7.0,0.0
5947,91.0,0.0,90.0,0.0,0.0
5948,88.0,0.0,90.0,0.0,0.0
5949,88.0,0.0,90.0,10.0,0.0
5950,52.0,0.0,90.0,8.0,0.0
5951,79.0,0.0,90.0,3.0,0.0
5952,76.0,0.0,90.0,3.0,0.0
5953,88.0,0.0,90.0,2.0,0.0
5954,64.0,0.0,90.0,12.0,0.0
5955,55.0,0.0,90.0,6.0,0.0
5956,67.0,0.0,90.0,6.0,0.0
5957,77.0,0.0,660.0,2.0,0.0
5958,79.0,0.0,660.0,3.0,0.0
5959,89.0,0.0,40.0,10.0,0.0
5960,86.0,0.0,660.0,2.0,0.0
5961,74.0,0.0,660.0,3.0,0.0
5962,91.0,60.0,660.0,0.0,0.0
5963,89.0,0.0,660.0,0.0,0.0
5964,55.0,0.0,660.0,6.0,0.0
5965,67.0,0.0,660.0,6.0,0.0
5966,47.0,60.0,40.0,13.0,0.0
5967,65.0,0.0,660.0,4.0,0.0
5968,74.0,0.0,40.0,11.0,0.0
5969,35.0,0.0,40.0,14.0,0.0
5970,62.0,0.0,660.0,4.0,0.0
5971,71.0,0.0,660.0,5.0,0.0
5972,62.0,0.0,40.0,12.0,0.0
5973,55.0,0.0,40.0,13.0,0.0
5974,59.0,0.0,40.0,12.0,0.0
5975,67.0,0.0,40.0,10.0,0.0
5976,77.0,0.0,40.0,11.0,0.0
5977,43.0,0.0,40.0,14.0,0.0
5978,86.0,60.0,40.0,11.0,0.0
5979,43.0,0.0,40.0,14.0,0.0
5980,86.0,0.0,40.0,11.0,0.0
5981,71.0,0.0,40.0,10.0,0.0
5982,59.0,0.0,40.0,12.0,0.0
5983,55.0,60.0,40.0,13.0,0.0
5984,77.0,0.0,40.0,11.0,0.0
5985,72.0,60.0,40.0,10.0,0.0
5986,55.0,0.0,40.0,13.0,0.0
5987,59.0,0.0,40.0,12.0,0.0
5988,77.0,0.0,40.0,11.0,0.0
5989,86.0,0.0,40.0,11.0,0.0
5990,43.0,0.0,40.0,14.0,0.0
5991,59.0,0.0,40.0,12.0,0.0
5992,77.0,0.0,40.0,11.0,0.0
5993,86.0,0.0,40.0,11.0,0.0
5994,55.0,0.0,40.0,13.0,0.0
5995,43.0,0.0,40.0,14.0,0.0
5996,74.0,60.0,40.0,10.0,0.0
5997,77.0,0.0,40.0,11.0,0.0
5998,86.0,0.0,40.0,11.0,0.0
5999,59.0,0.0,40.0,12.0,0.0
6000,76.0,60.0,40.0,10.0,0.0
6001,55.0,0.0,40.0,13.0,0.0
6002,43.0,0.0,40.0,14.0,0.0
6003,55.0,0.0,40.0,13.0,0.0
6004,77.0,0.0,40.0,10.0,0.0
6005,86.0,0.0,40.0,11.0,0.0
6006,43.0,60.0,40.0,14.0,0.0
6007,67.0,0.0,40.0,12.0,0.0
6008,77.0,0.0,40.0,11.0,0.0
6009,86.0,0.0,40.0,11.0,0.0
6010,77.0,0.0,40.0,11.0,0.0
6011,55.0,0.0,40.0,13.0,0.0
6012,43.0,0.0,40.0,14.0,0.0
6013,67.0,60.0,40.0,12.0,0.0
6014,76.0,0.0,40.0,10.0,0.0
6015,77.0,0.0,40.0,11.0,0.0
6016,67.0,60.0,40.0,12.0,0.0
6017,55.0,0.0,40.0,13.0,0.0
6018,77.0,0.0,40.0,10.0,0.0
6019,43.0,0.0,40.0,14.0,0.0
6020,86.0,0.0,40.0,11.0,0.0
6021,79.0,0.0,40.0,10.0,0.0
6022,67.0,60.0,40.0,12.0,0.0
6023,43.0,0.0,40.0,14.0,0.0
6024,77.0,0.0,40.0,11.0,0.0
6025,86.0,0.0,40.0,11.0,0.0
6026,55.0,0.0,40.0,13.0,0.0
6027,55.0,0.0,40.0,13.0,0.0
6028,81.0,0.0,40.0,10.0,0.0
6029,67.0,0.0,40.0,12.0,0.0
6030,43.0,0.0,40.0,14.0,0.0
6031,86.0,0.0,40.0,11.0,0.0
6032,77.0,0.0,40.0,11.0,0.0
6033,43.0,0.0,40.0,14.0,0.0
6034,55.0,0.0,40.0,13.0,0.0
6035,83.0,0.0,40.0,10.0,0.0
6036,67.0,0.0,40.0,12.0,0.0
6037,86.0,0.0,40.0,11.0,0.0
6038,77.0,108.0,40.0,11.0,0.0
6039,64.0,96.0,90.0,5.0,0.0
6040,76.0,0.0,300.0,3.0,0.0
6041,79.0,0.0,300.0,3.0,0.0
6042,88.0,0.0,300.0,0.0,0.0
6043,52.0,0.0,90.0,8.0,0.0
6044,91.0,0.0,300.0,0.0,0.0
6045,64.0,0.0,90.0,7.0,0.0
6046,67.0,0.0,300.0,6.0,0.0
6047,55.0,0.0,300.0,6.0,0.0
6048,76.0,48.0,180.0,2.0,0.0
6049,76.0,0.0,90.0,7.0,0.0
6050,60.0,0.0,300.0,4.0,0.0
6051,60.0,0.0,240.0,12.0,0.0
6052,36.0,0.0,300.0,14.0,0.0
6053,76.0,48.0,240.0,11.0,0.0
6054,48.0,0.0,300.0,13.0,0.0
6055,64.0,12.0,300.0,4.0,0.0
6056,84.0,0.0,240.0,10.0,0.0
6057,84.0,0.0,300.0,2.0,0.0
6058,64.0,0.0,60.0,12.0,0.0
6059,79.0,0.0,60.0,10.0,0.0
6060,79.0,12.0,90.0,2.0,0.0
6061,76.0,36.0,60.0,11.0,0.0
6062,72.0,108.0,40.0,11.0,0.0
6063,76.0,0.0,40.0,10.0,0.0
6064,67.0,0.0,40.0,12.0,0.0
6065,57.0,0.0,240.0,12.0,0.0
6066,69.0,144.0,90.0,7.0,0.0
6067,69.0,0.0,300.0,6.0,0.0
6068,36.0,0.0,300.0,14.0,0.0
6069,77.0,0.0,300.0,3.0,0.0
6070,81.0,0.0,300.0,3.0,0.0
6071,84.0,12.0,300.0,2.0,0.0
6072,81.0,0.0,240.0,10.0,0.0
6073,48.0,0.0,300.0,13.0,0.0
6074,81.0,0.0,300.0,2.0,0.0
6075,93.0,0.0,300.0,0.0,0.0
6076,77.0,48.0,240.0,11.0,0.0
6077,57.0,0.0,300.0,5.0,0.0
6078,89.0,0.0,300.0,0.0,0.0
6079,69.0,0.0,300.0,5.0,0.0
6080,45.0,0.0,90.0,8.0,0.0
6081,65.0,0.0,300.0,4.0,0.0
6082,60.0,0.0,300.0,4.0,0.0
6083,77.0,0.0,60.0,10.0,0.0
6084,60.0,0.0,60.0,12.0,0.0
6085,72.0,48.0,60.0,11.0,0.0
6086,65.0,0.0,40.0,12.0,0.0
6087,69.0,0.0,40.0,11.0,0.0
6088,72.0,252.0,40.0,10.0,0.0
6089,71.0,0.0,300.0,5.0,0.0
6090,48.0,0.0,300.0,13.0,0.0
6091,55.0,0.0,300.0,6.0,0.0
6092,83.0,0.0,300.0,2.0,0.0
6093,86.0,0.0,300.0,2.0,0.0
6094,77.0,0.0,240.0,10.0,0.0
6095,36.0,0.0,300.0,14.0,0.0
6096,74.0,48.0,240.0,11.0,0.0
6097,67.0,0.0,300.0,6.0,0.0
6098,79.0,0.0,300.0,3.0,0.0
6099,91.0,0.0,300.0,0.0,0.0
6100,59.0,0.0,300.0,4.0,0.0
6101,55.0,0.0,240.0,12.0,0.0
6102,62.0,0.0,300.0,4.0,0.0
6103,89.0,0.0,300.0,0.0,0.0
6104,77.0,12.0,300.0,3.0,0.0
6105,74.0,0.0,60.0,10.0,0.0
6106,59.0,48.0,60.0,12.0,0.0
6107,71.0,0.0,60.0,11.0,0.0
6108,71.0,0.0,40.0,10.0,0.0
6109,65.0,108.0,40.0,11.0,0.0
6110,62.0,0.0,40.0,12.0,0.0
6111,52.0,144.0,90.0,8.0,0.0
6112,72.0,48.0,240.0,10.0,0.0
6113,84.0,0.0,300.0,2.0,0.0
6114,88.0,0.0,300.0,0.0,0.0
6115,91.0,0.0,300.0,0.0,0.0
6116,79.0,0.0,300.0,2.0,0.0
6117,52.0,0.0,90.0,5.0,0.0
6118,36.0,0.0,300.0,14.0,0.0
6119,64.0,0.0,90.0,7.0,0.0
6120,79.0,0.0,300.0,3.0,0.0
6121,76.0,0.0,300.0,3.0,0.0
6122,67.0,0.0,300.0,6.0,0.0
6123,55.0,0.0,300.0,6.0,0.0
6124,76.0,0.0,90.0,7.0,0.0
6125,76.0,0.0,240.0,11.0,0.0
6126,64.0,0.0,90.0,5.0,0.0
6127,55.0,0.0,240.0,12.0,0.0
6128,48.0,0.0,300.0,13.0,0.0
6129,60.0,12.0,300.0,4.0,0.0
6130,64.0,0.0,300.0,4.0,0.0
6131,72.0,48.0,60.0,11.0,0.0
6132,67.0,0.0,60.0,10.0,0.0
6133,60.0,0.0,60.0,12.0,0.0
6134,64.0,108.0,40.0,12.0,0.0
6135,67.0,0.0,40.0,11.0,0.0
6136,64.0,0.0,40.0,10.0,0.0
6137,76.0,0.0,90.0,7.0,0.0
6138,76.0,0.0,300.0,3.0,0.0
6139,82.0,0.0,300.0,2.0,0.0
6140,84.0,0.0,300.0,2.0,0.0
6141,55.0,0.0,300.0,4.0,0.0
6142,67.0,0.0,300.0,6.0,0.0
6143,52.0,48.0,240.0,12.0,0.0
6144,79.0,0.0,300.0,3.0,0.0
6145,64.0,144.0,90.0,7.0,0.0
6146,58.0,0.0,300.0,4.0,0.0
6147,48.0,0.0,300.0,13.0,0.0
6148,55.0,12.0,300.0,6.0,0.0
6149,52.0,0.0,90.0,8.0,0.0
6150,70.0,0.0,240.0,10.0,0.0
6151,91.0,0.0,300.0,0.0,0.0
6152,67.0,0.0,240.0,11.0,0.0
6153,88.0,0.0,300.0,0.0,0.0
6154,36.0,0.0,300.0,14.0,0.0
6155,64.0,0.0,300.0,5.0,0.0
6156,52.0,0.0,300.0,5.0,0.0
6157,64.0,48.0,60.0,11.0,0.0
6158,55.0,0.0,60.0,12.0,0.0
6159,67.0,0.0,60.0,10.0,0.0
6160,64.0,108.0,40.0,10.0,0.0
6161,58.0,0.0,40.0,12.0,0.0
6162,60.0,0.0,40.0,11.0,0.0
6163,93.0,0.0,300.0,0.0,0.0
6164,69.0,0.0,300.0,5.0,0.0
6165,36.0,0.0,300.0,14.0,0.0
6166,69.0,0.0,300.0,6.0,0.0
6167,69.0,144.0,90.0,7.0,0.0
6168,89.0,0.0,300.0,0.0,0.0
6169,45.0,0.0,90.0,8.0,0.0
6170,57.0,0.0,300.0,4.0,0.0
6171,57.0,0.0,300.0,5.0,0.0
6172,77.0,0.0,300.0,3.0,0.0
6173,48.0,0.0,300.0,13.0,0.0
6174,53.0,12.0,300.0,4.0,0.0
6175,84.0,0.0,300.0,2.0,0.0
6176,81.0,0.0,300.0,2.0,0.0
6177,65.0,0.0,240.0,11.0,0.0
6178,72.0,0.0,300.0,3.0,0.0
6179,53.0,0.0,240.0,12.0,0.0
6180,69.0,48.0,240.0,10.0,0.0
6181,65.0,0.0,60.0,10.0,0.0
6182,57.0,48.0,60.0,12.0,0.0
6183,60.0,0.0,60.0,11.0,0.0
6184,69.0,252.0,40.0,11.0,0.0
6185,60.0,0.0,40.0,12.0,0.0
6186,60.0,0.0,40.0,10.0,0.0
6187,62.0,0.0,300.0,4.0,0.0
6188,59.0,0.0,300.0,4.0,0.0
6189,65.0,0.0,240.0,10.0,0.0
6190,55.0,0.0,300.0,6.0,0.0
6191,89.0,0.0,300.0,0.0,0.0
6192,91.0,12.0,300.0,0.0,0.0
6193,77.0,0.0,300.0,3.0,0.0
6194,71.0,0.0,300.0,5.0,0.0
6195,67.0,0.0,300.0,6.0,0.0
6196,48.0,0.0,300.0,13.0,0.0
6197,83.0,0.0,300.0,2.0,0.0
6198,86.0,0.0,300.0,2.0,0.0
6199,53.0,0.0,240.0,12.0,0.0
6200,62.0,48.0,240.0,11.0,0.0
6201,74.0,0.0,300.0,3.0,0.0
6202,36.0,0.0,300.0,14.0,0.0
6203,65.0,48.0,60.0,11.0,0.0
6204,55.0,0.0,60.0,12.0,0.0
6205,62.0,0.0,60.0,10.0,0.0
6206,53.0,0.0,40.0,12.0,0.0
6207,64.0,108.0,40.0,11.0,0.0
6208,59.0,0.0,40.0,10.0,0.0
6209,52.0,0.0,90.0,12.0,0.0
6210,79.0,0.0,90.0,2.0,0.0
6211,84.0,0.0,90.0,2.0,0.0
6212,52.0,0.0,90.0,8.0,0.0
6213,36.0,0.0,90.0,14.0,0.0
6214,76.0,360.0,90.0,3.0,0.0
6215,72.0,0.0,90.0,3.0,0.0
6216,60.0,0.0,90.0,11.0,0.0
6217,64.0,0.0,90.0,5.0,0.0
6218,64.0,0.0,90.0,7.0,0.0
6219,76.0,0.0,90.0,7.0,0.0
6220,88.0,0.0,90.0,0.0,0.0
6221,72.0,0.0,90.0,6.0,0.0
6222,60.0,0.0,90.0,4.0,0.0
6223,64.0,0.0,90.0,4.0,0.0
6224,48.0,0.0,90.0,13.0,0.0
6225,60.0,0.0,90.0,10.0,0.0
6226,52.0,0.0,90.0,5.0,0.0
6227,91.0,0.0,90.0,0.0,0.0
6228,41.0,0.0,90.0,14.0,0.0
6229,72.0,0.0,90.0,10.0,0.0
6230,57.0,120.0,90.0,12.0,0.0
6231,53.0,0.0,90.0,13.0,0.0
6232,65.0,0.0,90.0,11.0,0.0
6233,72.0,0.0,90.0,10.0,0.0
6234,53.0,0.0,90.0,13.0,0.0
6235,41.0,0.0,90.0,14.0,0.0
6236,57.0,132.0,90.0,12.0,0.0
6237,65.0,0.0,90.0,11.0,0.0
6238,53.0,0.0,40.0,13.0,0.0
6239,57.0,0.0,40.0,12.0,0.0
6240,65.0,0.0,40.0,11.0,0.0
6241,72.0,108.0,40.0,10.0,0.0
6242,41.0,0.0,40.0,14.0,0.0
6243,74.0,0.0,90.0,10.0,0.0
6244,58.0,0.0,90.0,12.0,0.0
6245,46.0,120.0,90.0,13.0,0.0
6246,34.0,0.0,90.0,14.0,0.0
6247,65.0,0.0,90.0,11.0,0.0
6248,46.0,0.0,90.0,13.0,0.0
6249,74.0,264.0,90.0,10.0,0.0
6250,58.0,0.0,90.0,12.0,0.0
6251,65.0,0.0,90.0,11.0,0.0
6252,34.0,0.0,90.0,14.0,0.0
6253,84.0,120.0,120.0,3.0,0.0
6254,60.0,120.0,360.0,4.0,0.0
6255,64.0,0.0,360.0,4.0,0.0
6256,79.0,120.0,120.0,3.0,0.0
6257,82.0,0.0,120.0,3.0,0.0
6258,81.0,48.0,300.0,3.0,0.0
6259,84.0,120.0,120.0,2.0,0.0
6260,65.0,0.0,300.0,4.0,0.0
6261,93.0,0.0,120.0,0.0,0.0
6262,84.0,48.0,120.0,0.0,0.0
6263,89.0,0.0,15.0,0.0,0.0
6264,81.0,0.0,120.0,2.0,0.0
6265,77.0,120.0,90.0,2.0,0.0
6266,81.0,0.0,90.0,0.0,0.0
6267,96.0,0.0,90.0,0.0,0.0
6268,57.0,0.0,90.0,12.0,0.0
6269,41.0,120.0,90.0,14.0,0.0
6270,65.0,0.0,90.0,11.0,0.0
6271,53.0,0.0,90.0,13.0,0.0
6272,72.0,0.0,90.0,10.0,0.0
6273,41.0,0.0,90.0,14.0,0.0
6274,53.0,0.0,90.0,13.0,0.0
6275,72.0,0.0,90.0,10.0,0.0
6276,57.0,0.0,90.0,12.0,0.0
6277,65.0,132.0,90.0,11.0,0.0
6278,53.0,108.0,40.0,13.0,0.0
6279,72.0,0.0,40.0,10.0,0.0
6280,57.0,0.0,40.0,12.0,0.0
6281,41.0,0.0,40.0,14.0,0.0
6282,65.0,0.0,40.0,11.0,0.0
6283,34.0,0.0,90.0,14.0,0.0
6284,65.0,120.0,90.0,11.0,0.0
6285,58.0,0.0,90.0,12.0,0.0
6286,74.0,0.0,90.0,10.0,0.0
6287,46.0,0.0,90.0,13.0,0.0
6288,46.0,0.0,90.0,13.0,0.0
6289,65.0,264.0,90.0,11.0,0.0
6290,34.0,0.0,90.0,14.0,0.0
6291,58.0,0.0,90.0,12.0,0.0
6292,74.0,0.0,90.0,10.0,0.0
6293,84.0,120.0,120.0,3.0,0.0
6294,60.0,0.0,360.0,4.0,0.0
6295,64.0,0.0,360.0,4.0,0.0
6296,79.0,120.0,120.0,3.0,0.0
6297,82.0,120.0,120.0,3.0,0.0
6298,65.0,48.0,300.0,4.0,0.0
6299,81.0,0.0,300.0,3.0,0.0
6300,89.0,120.0,120.0,0.0,0.0
6301,84.0,0.0,120.0,2.0,0.0
6302,93.0,0.0,120.0,0.0,0.0
6303,89.0,48.0,120.0,0.0,0.0
6304,84.0,0.0,120.0,0.0,0.0
6305,81.0,0.0,120.0,2.0,0.0
6306,77.0,120.0,90.0,2.0,0.0
6307,81.0,0.0,90.0,0.0,0.0
6308,96.0,0.0,90.0,0.0,0.0
6309,65.0,0.0,90.0,12.0,0.0
6310,72.0,0.0,90.0,10.0,0.0
6311,41.0,120.0,90.0,14.0,0.0
6312,69.0,0.0,90.0,11.0,0.0
6313,53.0,0.0,90.0,13.0,0.0
6314,69.0,132.0,90.0,11.0,0.0
6315,53.0,0.0,90.0,13.0,0.0
6316,41.0,0.0,90.0,14.0,0.0
6317,72.0,0.0,90.0,10.0,0.0
6318,65.0,0.0,90.0,12.0,0.0
6319,41.0,0.0,40.0,14.0,0.0
6320,65.0,0.0,40.0,12.0,0.0
6321,53.0,0.0,40.0,13.0,0.0
6322,72.0,108.0,40.0,10.0,0.0
6323,69.0,0.0,40.0,11.0,0.0
6324,46.0,120.0,90.0,13.0,0.0
6325,70.0,0.0,90.0,11.0,0.0
6326,34.0,0.0,90.0,14.0,0.0
6327,73.0,0.0,90.0,10.0,0.0
6328,65.0,0.0,90.0,12.0,0.0
6329,46.0,504.0,90.0,13.0,0.0
6330,70.0,0.0,90.0,11.0,0.0
6331,34.0,0.0,90.0,14.0,0.0
6332,73.0,0.0,90.0,10.0,0.0
6333,65.0,0.0,90.0,12.0,0.0
6334,58.0,0.0,360.0,4.0,0.0
6335,85.0,0.0,360.0,2.0,0.0
6336,82.0,120.0,360.0,2.0,0.0
6337,61.0,0.0,360.0,4.0,0.0
6338,66.0,0.0,2100.0,12.0,0.0
6339,54.0,0.0,2100.0,12.0,0.0
6340,90.0,0.0,1740.0,0.0,0.0
6341,54.0,0.0,2100.0,13.0,0.0
6342,78.0,72.0,1740.0,0.0,0.0
6343,83.0,0.0,120.0,2.0,0.0
6344,87.0,120.0,120.0,2.0,0.0
6345,59.0,0.0,120.0,4.0,0.0
6346,63.0,0.0,120.0,4.0,0.0
6347,85.0,0.0,120.0,2.0,0.0
6348,89.0,96.0,120.0,2.0,0.0
6349,65.0,0.0,120.0,4.0,0.0
6350,61.0,0.0,120.0,4.0,0.0
6351,63.0,0.0,90.0,4.0,0.0
6352,87.0,0.0,90.0,2.0,0.0
6353,66.0,0.0,90.0,4.0,0.0
6354,90.0,384.0,90.0,2.0,0.0
6355,58.0,120.0,360.0,4.0,0.0
6356,82.0,0.0,360.0,2.0,0.0
6357,61.0,0.0,360.0,4.0,0.0
6358,85.0,0.0,360.0,2.0,0.0
6359,59.0,120.0,120.0,4.0,0.0
6360,63.0,0.0,120.0,4.0,0.0
6361,87.0,0.0,120.0,2.0,0.0
6362,83.0,0.0,120.0,2.0,0.0
6363,65.0,0.0,120.0,4.0,0.0
6364,85.0,0.0,120.0,2.0,0.0
6365,89.0,0.0,120.0,2.0,0.0
6366,61.0,96.0,120.0,4.0,0.0
6367,66.0,0.0,90.0,4.0,0.0
6368,87.0,0.0,90.0,2.0,0.0
6369,90.0,0.0,90.0,2.0,0.0
6370,63.0,312.0,90.0,4.0,0.0
6371,58.0,0.0,360.0,4.0,0.0
6372,61.0,0.0,360.0,4.0,0.0
6373,82.0,0.0,360.0,2.0,0.0
6374,85.0,288.0,360.0,2.0,0.0
6375,74.0,0.0,300.0,3.0,0.0
6376,86.0,0.0,300.0,0.0,0.0
6377,93.0,0.0,300.0,0.0,0.0
6378,86.0,0.0,300.0,3.0,0.0
6379,62.0,0.0,300.0,6.0,0.0
6380,69.0,104.0,300.0,6.0,0.0
6381,84.0,0.0,300.0,2.0,0.0
6382,57.0,0.0,300.0,4.0,0.0
6383,81.0,0.0,300.0,2.0,0.0
6384,60.0,0.0,300.0,4.0,0.0
6385,86.0,0.0,30.0,10.0,0.0
6386,58.0,0.0,300.0,4.0,0.0
6387,55.0,0.0,300.0,4.0,0.0
6388,86.0,0.0,300.0,0.0,0.0
6389,94.0,0.0,300.0,0.0,0.0
6390,43.0,0.0,300.0,14.0,0.0
6391,70.0,0.0,30.0,12.0,0.0
6392,82.0,0.0,300.0,2.0,0.0
6393,79.0,0.0,300.0,2.0,0.0
6394,55.0,24.0,300.0,13.0,0.0
6395,74.0,40.0,30.0,11.0,0.0
6396,86.0,0.0,300.0,3.0,0.0
6397,67.0,0.0,300.0,6.0,0.0
6398,74.0,0.0,300.0,3.0,0.0
6399,74.0,0.0,30.0,11.0,0.0
6400,86.0,40.0,30.0,10.0,0.0
6401,70.0,0.0,30.0,12.0,0.0
6402,86.0,40.0,30.0,10.0,0.0
6403,74.0,0.0,30.0,11.0,0.0
6404,70.0,0.0,30.0,12.0,0.0
6405,74.0,0.0,30.0,11.0,0.0
6406,70.0,40.0,30.0,12.0,0.0
6407,86.0,0.0,30.0,10.0,0.0
6408,74.0,0.0,30.0,11.0,0.0
6409,86.0,40.0,30.0,10.0,0.0
6410,70.0,0.0,30.0,12.0,0.0
6411,86.0,0.0,30.0,10.0,0.0
6412,70.0,0.0,30.0,12.0,0.0
6413,74.0,40.0,30.0,11.0,0.0
6414,70.0,0.0,30.0,12.0,0.0
6415,74.0,0.0,30.0,11.0,0.0
6416,86.0,16.0,30.0,10.0,0.0
6417,86.0,0.0,30.0,10.0,0.0
6418,70.0,40.0,30.0,12.0,0.0
6419,74.0,0.0,30.0,11.0,0.0
6420,86.0,38.0,30.0,10.0,0.0
6421,70.0,0.0,30.0,12.0,0.0
6422,74.0,0.0,30.0,11.0,0.0
6423,94.0,0.0,300.0,0.0,0.0
6424,91.0,0.0,300.0,0.0,0.0
6425,82.0,0.0,300.0,2.0,0.0
6426,76.0,28.0,30.0,11.0,0.0
6427,55.0,12.0,300.0,4.0,0.0
6428,64.0,0.0,300.0,4.0,0.0
6429,76.0,0.0,300.0,5.0,0.0
6430,64.0,0.0,300.0,5.0,0.0
6431,48.0,0.0,300.0,13.0,0.0
6432,70.0,0.0,30.0,12.0,0.0
6433,88.0,0.0,30.0,10.0,0.0
6434,72.0,0.0,300.0,6.0,0.0
6435,60.0,0.0,30.0,12.0,0.0
6436,88.0,0.0,300.0,3.0,0.0
6437,76.0,0.0,300.0,3.0,0.0
6438,79.0,0.0,300.0,2.0,0.0
6439,36.0,0.0,300.0,14.0,0.0
6440,64.0,0.0,300.0,7.0,0.0
6441,76.0,0.0,300.0,7.0,0.0
6442,52.0,2.0,15.0,8.0,0.0
6443,60.0,18.0,30.0,12.0,0.0
6444,70.0,0.0,30.0,12.0,0.0
6445,88.0,0.0,30.0,10.0,0.0
6446,76.0,0.0,30.0,11.0,0.0
6447,52.0,12.0,15.0,8.0,0.0
6448,76.0,8.0,30.0,11.0,0.0
6449,88.0,0.0,30.0,10.0,0.0
6450,70.0,0.0,30.0,12.0,0.0
6451,60.0,0.0,30.0,12.0,0.0
6452,52.0,30.0,30.0,8.0,0.0
6453,70.0,0.0,30.0,12.0,0.0
6454,76.0,28.0,30.0,11.0,0.0
6455,52.0,2.0,30.0,8.0,0.0
6456,60.0,0.0,30.0,12.0,0.0
6457,88.0,0.0,30.0,10.0,0.0
6458,88.0,18.0,30.0,10.0,0.0
6459,60.0,0.0,30.0,12.0,0.0
6460,76.0,0.0,30.0,11.0,0.0
6461,70.0,0.0,30.0,12.0,0.0
6462,52.0,12.0,15.0,8.0,0.0
6463,60.0,0.0,30.0,12.0,0.0
6464,88.0,0.0,30.0,10.0,0.0
6465,76.0,0.0,30.0,11.0,0.0
6466,70.0,8.0,30.0,12.0,0.0
6467,76.0,0.0,30.0,11.0,0.0
6468,52.0,30.0,15.0,8.0,0.0
6469,60.0,0.0,30.0,12.0,0.0
6470,88.0,16.0,30.0,10.0,0.0
6471,70.0,0.0,30.0,12.0,0.0
6472,76.0,0.0,30.0,11.0,0.0
6473,88.0,0.0,30.0,10.0,0.0
6474,60.0,18.0,30.0,12.0,0.0
6475,70.0,0.0,30.0,12.0,0.0
6476,52.0,12.0,15.0,8.0,0.0
6477,60.0,8.0,30.0,12.0,0.0
6478,70.0,0.0,30.0,12.0,0.0
6479,76.0,0.0,30.0,11.0,0.0
6480,88.0,0.0,30.0,10.0,0.0
6481,52.0,32.0,30.0,8.0,0.0
6482,77.0,0.0,30.0,11.0,0.0
6483,41.0,24.0,300.0,14.0,0.0
6484,69.0,0.0,90.0,5.0,0.0
6485,57.0,0.0,90.0,5.0,0.0
6486,53.0,0.0,300.0,13.0,0.0
6487,69.0,0.0,90.0,6.0,0.0
6488,77.0,0.0,90.0,3.0,0.0
6489,69.0,0.0,30.0,12.0,0.0
6490,89.0,0.0,90.0,0.0,0.0
6491,93.0,0.0,90.0,0.0,0.0
6492,77.0,0.0,90.0,2.0,0.0
6493,65.0,0.0,90.0,4.0,0.0
6494,69.0,16.0,90.0,7.0,0.0
6495,89.0,40.0,30.0,10.0,0.0
6496,45.0,0.0,90.0,8.0,0.0
6497,81.0,0.0,90.0,2.0,0.0
6498,57.0,0.0,90.0,4.0,0.0
6499,77.0,0.0,30.0,11.0,0.0
6500,89.0,0.0,30.0,10.0,0.0
6501,69.0,24.0,30.0,12.0,0.0
6502,69.0,40.0,30.0,12.0,0.0
6503,77.0,0.0,30.0,11.0,0.0
6504,89.0,0.0,30.0,10.0,0.0
6505,77.0,40.0,30.0,11.0,0.0
6506,89.0,0.0,30.0,10.0,0.0
6507,81.0,0.0,90.0,2.0,0.0
6508,65.0,0.0,90.0,4.0,0.0
6509,77.0,0.0,90.0,3.0,0.0
6510,57.0,0.0,90.0,4.0,0.0
6511,57.0,0.0,30.0,12.0,0.0
6512,77.0,0.0,90.0,2.0,0.0
6513,89.0,0.0,90.0,0.0,0.0
6514,69.0,16.0,90.0,3.0,0.0
6515,89.0,0.0,30.0,10.0,0.0
6516,77.0,0.0,30.0,11.0,0.0
6517,57.0,24.0,30.0,12.0,0.0
6518,57.0,0.0,30.0,12.0,0.0
6519,89.0,0.0,30.0,10.0,0.0
6520,77.0,40.0,30.0,11.0,0.0
6521,69.0,0.0,90.0,3.0,0.0
6522,57.0,16.0,90.0,4.0,0.0
6523,89.0,16.0,210.0,0.0,0.0
6524,77.0,0.0,30.0,11.0,0.0
6525,65.0,0.0,210.0,4.0,0.0
6526,77.0,0.0,210.0,3.0,0.0
6527,81.0,32.0,120.0,2.0,0.0
6528,77.0,0.0,210.0,2.0,0.0
6529,89.0,0.0,30.0,10.0,0.0
6530,57.0,16.0,30.0,12.0,0.0
6531,57.0,24.0,30.0,12.0,0.0
6532,77.0,0.0,30.0,11.0,0.0
6533,89.0,0.0,30.0,10.0,0.0
6534,57.0,0.0,30.0,12.0,0.0
6535,77.0,0.0,30.0,11.0,0.0
6536,89.0,8.0,30.0,10.0,0.0
6537,34.0,24.0,300.0,14.0,0.0
6538,62.0,0.0,90.0,4.0,0.0
6539,74.0,0.0,90.0,3.0,0.0
6540,62.0,0.0,30.0,12.0,0.0
6541,46.0,0.0,300.0,13.0,0.0
6542,89.0,0.0,30.0,10.0,0.0
6543,77.0,40.0,30.0,11.0,0.0
6544,86.0,0.0,90.0,2.0,0.0
6545,62.0,0.0,30.0,12.0,0.0
6546,89.0,0.0,30.0,10.0,0.0
6547,77.0,24.0,30.0,11.0,0.0
6548,77.0,0.0,30.0,11.0,0.0
6549,89.0,0.0,30.0,10.0,0.0
6550,62.0,40.0,30.0,12.0,0.0
6551,77.0,0.0,90.0,2.0,0.0
6552,82.0,16.0,90.0,2.0,0.0
6553,86.0,0.0,90.0,0.0,0.0
6554,62.0,0.0,30.0,12.0,0.0
6555,62.0,0.0,90.0,4.0,0.0
6556,58.0,0.0,90.0,4.0,0.0
6557,70.0,0.0,90.0,3.0,0.0
6558,74.0,0.0,30.0,11.0,0.0
6559,86.0,40.0,30.0,10.0,0.0
6560,74.0,0.0,90.0,3.0,0.0
6561,74.0,0.0,30.0,11.0,0.0
6562,86.0,0.0,30.0,10.0,0.0
6563,62.0,24.0,30.0,12.0,0.0
6564,86.0,0.0,30.0,10.0,0.0
6565,74.0,40.0,30.0,11.0,0.0
6566,62.0,0.0,30.0,12.0,0.0
6567,86.0,16.0,30.0,10.0,0.0
6568,74.0,0.0,30.0,11.0,0.0
6569,82.0,32.0,240.0,2.0,0.0
6570,77.0,32.0,120.0,2.0,0.0
6571,70.0,0.0,210.0,3.0,0.0
6572,86.0,16.0,210.0,0.0,0.0
6573,62.0,0.0,210.0,4.0,0.0
6574,58.0,0.0,210.0,4.0,0.0
6575,62.0,0.0,30.0,12.0,0.0
6576,74.0,0.0,210.0,3.0,0.0
6577,62.0,0.0,30.0,12.0,0.0
6578,86.0,40.0,30.0,10.0,0.0
6579,74.0,0.0,30.0,11.0,0.0
6580,74.0,0.0,30.0,11.0,0.0
6581,62.0,0.0,30.0,12.0,0.0
6582,86.0,8.0,30.0,10.0,0.0
6583,74.0,0.0,30.0,11.0,0.0
6584,67.0,0.0,90.0,6.0,0.0
6585,43.0,24.0,300.0,13.0,0.0
6586,79.0,0.0,90.0,2.0,0.0
6587,58.0,40.0,30.0,12.0,0.0
6588,55.0,0.0,300.0,13.0,0.0
6589,43.0,0.0,300.0,14.0,0.0
6590,31.0,0.0,300.0,14.0,0.0
6591,86.0,0.0,30.0,10.0,0.0
6592,86.0,24.0,30.0,10.0,0.0
6593,58.0,0.0,30.0,12.0,0.0
6594,74.0,0.0,30.0,11.0,0.0
6595,74.0,8.0,30.0,11.0,0.0
6596,58.0,0.0,30.0,12.0,0.0
6597,86.0,0.0,30.0,10.0,0.0
6598,70.0,0.0,90.0,3.0,0.0
6599,67.0,0.0,90.0,6.0,0.0
6600,86.0,0.0,90.0,0.0,0.0
6601,79.0,0.0,90.0,2.0,0.0
6602,58.0,0.0,90.0,4.0,0.0
6603,82.0,0.0,90.0,2.0,0.0
6604,62.0,16.0,90.0,4.0,0.0
6605,74.0,0.0,90.0,3.0,0.0
6606,82.0,0.0,30.0,10.0,0.0
6607,58.0,0.0,30.0,12.0,0.0
6608,91.0,0.0,90.0,0.0,0.0
6609,70.0,40.0,30.0,11.0,0.0
6610,82.0,0.0,30.0,10.0,0.0
6611,58.0,0.0,30.0,12.0,0.0
6612,70.0,24.0,30.0,11.0,0.0
6613,58.0,0.0,30.0,12.0,0.0
6614,70.0,0.0,30.0,11.0,0.0
6615,82.0,40.0,30.0,10.0,0.0
6616,91.0,0.0,210.0,0.0,0.0
6617,86.0,32.0,120.0,0.0,0.0
6618,74.0,16.0,90.0,3.0,0.0
6619,62.0,0.0,90.0,4.0,0.0
6620,82.0,16.0,210.0,2.0,0.0
6621,79.0,0.0,210.0,2.0,0.0
6622,58.0,16.0,30.0,12.0,0.0
6623,67.0,0.0,210.0,6.0,0.0
6624,70.0,0.0,210.0,3.0,0.0
6625,58.0,0.0,210.0,4.0,0.0
6626,82.0,0.0,30.0,10.0,0.0
6627,70.0,0.0,30.0,11.0,0.0
6628,70.0,0.0,30.0,11.0,0.0
6629,58.0,24.0,30.0,12.0,0.0
6630,82.0,0.0,30.0,10.0,0.0
6631,70.0,0.0,30.0,11.0,0.0
6632,58.0,8.0,30.0,12.0,0.0
6633,82.0,0.0,30.0,10.0,0.0
6634,58.0,0.0,30.0,12.0,0.0
6635,88.0,0.0,90.0,0.0,0.0
6636,76.0,0.0,90.0,3.0,0.0
6637,70.0,0.0,30.0,11.0,0.0
6638,55.0,0.0,30.0,12.0,0.0
6639,48.0,24.0,300.0,13.0,0.0
6640,52.0,0.0,90.0,8.0,0.0
6641,64.0,0.0,90.0,5.0,0.0
6642,64.0,0.0,90.0,4.0,0.0
6643,64.0,0.0,90.0,7.0,0.0
6644,82.0,40.0,30.0,10.0,0.0
6645,76.0,0.0,90.0,7.0,0.0
6646,52.0,0.0,90.0,5.0,0.0
6647,36.0,0.0,300.0,14.0,0.0
6648,82.0,24.0,30.0,10.0,0.0
6649,58.0,0.0,30.0,12.0,0.0
6650,70.0,0.0,30.0,11.0,0.0
6651,55.0,0.0,30.0,12.0,0.0
6652,58.0,0.0,30.0,12.0,0.0
6653,55.0,0.0,30.0,12.0,0.0
6654,70.0,40.0,30.0,11.0,0.0
6655,82.0,0.0,30.0,10.0,0.0
6656,67.0,0.0,90.0,6.0,0.0
6657,64.0,16.0,90.0,4.0,0.0
6658,58.0,0.0,30.0,12.0,0.0
6659,55.0,40.0,30.0,12.0,0.0
6660,58.0,0.0,90.0,4.0,0.0
6661,67.0,0.0,30.0,11.0,0.0
6662,91.0,0.0,90.0,0.0,0.0
6663,88.0,0.0,90.0,0.0,0.0
6664,82.0,0.0,90.0,2.0,0.0
6665,79.0,0.0,90.0,2.0,0.0
6666,79.0,0.0,30.0,10.0,0.0
6667,70.0,0.0,90.0,3.0,0.0
6668,76.0,0.0,90.0,3.0,0.0
6669,64.0,0.0,90.0,5.0,0.0
6670,67.0,24.0,30.0,11.0,0.0
6671,79.0,0.0,30.0,10.0,0.0
6672,55.0,0.0,30.0,12.0,0.0
6673,58.0,0.0,30.0,12.0,0.0
6674,79.0,0.0,30.0,10.0,0.0
6675,55.0,0.0,30.0,12.0,0.0
6676,58.0,40.0,30.0,12.0,0.0
6677,67.0,0.0,30.0,11.0,0.0
6678,76.0,0.0,90.0,3.0,0.0
6679,79.0,0.0,90.0,2.0,0.0
6680,88.0,0.0,90.0,0.0,0.0
6681,70.0,0.0,90.0,3.0,0.0
6682,55.0,0.0,30.0,12.0,0.0
6683,58.0,0.0,30.0,12.0,0.0
6684,64.0,16.0,90.0,5.0,0.0
6685,79.0,0.0,90.0,0.0,0.0
6686,82.0,0.0,90.0,2.0,0.0
6687,60.0,0.0,90.0,4.0,0.0
6688,55.0,0.0,90.0,4.0,0.0
6689,76.0,0.0,30.0,10.0,0.0
6690,64.0,16.0,30.0,11.0,0.0
6691,67.0,0.0,90.0,6.0,0.0
6692,55.0,0.0,30.0,12.0,0.0
6693,64.0,0.0,30.0,11.0,0.0
6694,76.0,0.0,30.0,10.0,0.0
6695,58.0,24.0,30.0,12.0,0.0
6696,76.0,0.0,30.0,10.0,0.0
6697,58.0,56.0,30.0,12.0,0.0
6698,55.0,0.0,30.0,12.0,0.0
6699,64.0,0.0,30.0,11.0,0.0
6700,77.0,0.0,90.0,3.0,0.0
6701,81.0,0.0,90.0,2.0,0.0
6702,77.0,0.0,90.0,2.0,0.0
6703,69.0,0.0,90.0,3.0,0.0
6704,69.0,0.0,90.0,7.0,0.0
6705,53.0,0.0,40.0,13.0,0.0
6706,53.0,60.0,660.0,4.0,0.0
6707,57.0,0.0,40.0,12.0,0.0
6708,45.0,0.0,90.0,8.0,0.0
6709,69.0,0.0,90.0,5.0,0.0
6710,69.0,0.0,90.0,6.0,0.0
6711,41.0,0.0,40.0,14.0,0.0
6712,65.0,0.0,90.0,11.0,0.0
6713,89.0,0.0,90.0,0.0,0.0
6714,53.0,48.0,40.0,12.0,0.0
6715,81.0,0.0,90.0,0.0,0.0
6716,57.0,0.0,660.0,4.0,0.0
6717,57.0,0.0,90.0,5.0,0.0
6718,77.0,12.0,90.0,10.0,0.0
6719,57.0,0.0,40.0,12.0,0.0
6720,60.0,0.0,40.0,12.0,0.0
6721,53.0,0.0,40.0,13.0,0.0
6722,41.0,60.0,40.0,14.0,0.0
6723,53.0,0.0,40.0,12.0,0.0
6724,53.0,60.0,40.0,13.0,0.0
6725,60.0,0.0,40.0,12.0,0.0
6726,57.0,0.0,40.0,12.0,0.0
6727,53.0,0.0,40.0,12.0,0.0
6728,41.0,0.0,40.0,14.0,0.0
6729,41.0,0.0,40.0,14.0,0.0
6730,65.0,0.0,40.0,10.0,0.0
6731,65.0,0.0,40.0,11.0,0.0
6732,53.0,60.0,40.0,13.0,0.0
6733,53.0,0.0,40.0,12.0,0.0
6734,57.0,0.0,40.0,12.0,0.0
6735,60.0,0.0,40.0,12.0,0.0
6736,53.0,0.0,40.0,13.0,0.0
6737,53.0,0.0,40.0,12.0,0.0
6738,57.0,0.0,40.0,12.0,0.0
6739,60.0,60.0,40.0,12.0,0.0
6740,67.0,0.0,40.0,11.0,0.0
6741,67.0,0.0,40.0,10.0,0.0
6742,41.0,0.0,40.0,14.0,0.0
6743,41.0,0.0,40.0,14.0,0.0
6744,69.0,0.0,40.0,11.0,0.0
6745,53.0,0.0,40.0,13.0,0.0
6746,69.0,0.0,40.0,10.0,0.0
6747,53.0,0.0,40.0,12.0,0.0
6748,57.0,60.0,40.0,12.0,0.0
6749,60.0,0.0,40.0,12.0,0.0
6750,60.0,0.0,40.0,12.0,0.0
6751,57.0,0.0,40.0,12.0,0.0
6752,53.0,0.0,40.0,12.0,0.0
6753,70.0,0.0,40.0,10.0,0.0
6754,41.0,0.0,40.0,14.0,0.0
6755,53.0,0.0,40.0,13.0,0.0
6756,70.0,60.0,40.0,11.0,0.0
6757,53.0,0.0,40.0,12.0,0.0
6758,57.0,0.0,40.0,12.0,0.0
6759,60.0,0.0,40.0,12.0,0.0
6760,72.0,0.0,40.0,11.0,0.0
6761,53.0,0.0,40.0,13.0,0.0
6762,72.0,0.0,40.0,10.0,0.0
6763,41.0,60.0,40.0,14.0,0.0
6764,53.0,0.0,40.0,12.0,0.0
6765,57.0,0.0,40.0,12.0,0.0
6766,60.0,0.0,40.0,12.0,0.0
6767,74.0,0.0,40.0,11.0,0.0
6768,41.0,0.0,40.0,14.0,0.0
6769,74.0,0.0,40.0,10.0,0.0
6770,53.0,60.0,40.0,13.0,0.0
6771,76.0,0.0,40.0,11.0,0.0
6772,53.0,0.0,40.0,13.0,0.0
6773,60.0,0.0,40.0,12.0,0.0
6774,57.0,0.0,40.0,12.0,0.0
6775,53.0,0.0,40.0,12.0,0.0
6776,76.0,60.0,40.0,10.0,0.0
6777,41.0,0.0,40.0,14.0,0.0
6778,41.0,0.0,40.0,14.0,0.0
6779,77.0,0.0,40.0,11.0,0.0
6780,77.0,0.0,40.0,10.0,0.0
6781,53.0,0.0,40.0,12.0,0.0
6782,53.0,0.0,40.0,13.0,0.0
6783,60.0,0.0,40.0,12.0,0.0
6784,57.0,0.0,40.0,12.0,0.0
6785,41.0,0.0,40.0,14.0,0.0
6786,57.0,0.0,40.0,12.0,0.0
6787,79.0,0.0,40.0,11.0,0.0
6788,53.0,0.0,40.0,12.0,0.0
6789,53.0,0.0,40.0,13.0,0.0
6790,60.0,0.0,40.0,12.0,0.0
6791,79.0,60.0,40.0,10.0,0.0
6792,81.0,0.0,90.0,11.0,0.0
6793,81.0,0.0,90.0,7.0,0.0
6794,69.0,12.0,90.0,7.0,0.0
6795,53.0,48.0,40.0,13.0,0.0
6796,53.0,0.0,40.0,12.0,0.0
6797,57.0,0.0,40.0,12.0,0.0
6798,60.0,0.0,40.0,12.0,0.0
6799,57.0,0.0,660.0,4.0,0.0
6800,53.0,0.0,660.0,4.0,0.0
6801,69.0,0.0,90.0,5.0,0.0
6802,57.0,0.0,90.0,5.0,0.0
6803,81.0,0.0,90.0,10.0,0.0
6804,69.0,0.0,90.0,3.0,0.0
6805,69.0,0.0,90.0,6.0,0.0
6806,41.0,0.0,40.0,14.0,0.0
6807,93.0,0.0,90.0,0.0,0.0
6808,45.0,0.0,90.0,8.0,0.0
6809,81.0,0.0,90.0,2.0,0.0
6810,77.0,0.0,90.0,2.0,0.0
6811,77.0,0.0,90.0,3.0,0.0
6812,89.0,0.0,90.0,0.0,0.0
6813,41.0,0.0,40.0,14.0,0.0
6814,60.0,60.0,40.0,12.0,0.0
6815,57.0,0.0,40.0,12.0,0.0
6816,53.0,0.0,40.0,13.0,0.0
6817,53.0,0.0,40.0,12.0,0.0
6818,53.0,0.0,40.0,12.0,0.0
6819,53.0,0.0,40.0,13.0,0.0
6820,60.0,60.0,40.0,12.0,0.0
6821,57.0,0.0,40.0,12.0,0.0
6822,41.0,0.0,40.0,14.0,0.0
6823,41.0,60.0,40.0,14.0,0.0
6824,53.0,0.0,40.0,12.0,0.0
6825,53.0,0.0,40.0,13.0,0.0
6826,60.0,0.0,40.0,12.0,0.0
6827,69.0,0.0,40.0,10.0,0.0
6828,69.0,0.0,40.0,11.0,0.0
6829,57.0,0.0,40.0,12.0,0.0
6830,70.0,0.0,40.0,10.0,0.0
6831,41.0,60.0,40.0,14.0,0.0
6832,70.0,0.0,40.0,11.0,0.0
6833,57.0,0.0,40.0,12.0,0.0
6834,53.0,0.0,40.0,12.0,0.0
6835,53.0,0.0,40.0,13.0,0.0
6836,60.0,0.0,40.0,12.0,0.0
6837,72.0,0.0,40.0,10.0,0.0
6838,41.0,60.0,40.0,14.0,0.0
6839,57.0,0.0,40.0,12.0,0.0
6840,53.0,0.0,40.0,12.0,0.0
6841,53.0,0.0,40.0,13.0,0.0
6842,72.0,0.0,40.0,11.0,0.0
6843,60.0,0.0,40.0,12.0,0.0
6844,74.0,0.0,40.0,10.0,0.0
6845,53.0,0.0,40.0,13.0,0.0
6846,60.0,60.0,40.0,12.0,0.0
6847,74.0,0.0,40.0,11.0,0.0
6848,41.0,0.0,40.0,14.0,0.0
6849,53.0,0.0,40.0,12.0,0.0
6850,57.0,0.0,40.0,12.0,0.0
6851,57.0,0.0,40.0,12.0,0.0
6852,53.0,0.0,40.0,12.0,0.0
6853,41.0,0.0,40.0,14.0,0.0
6854,53.0,0.0,40.0,13.0,0.0
6855,76.0,0.0,40.0,10.0,0.0
6856,60.0,60.0,40.0,12.0,0.0
6857,76.0,0.0,40.0,11.0,0.0
6858,41.0,0.0,40.0,14.0,0.0
6859,77.0,0.0,40.0,11.0,0.0
6860,53.0,0.0,40.0,13.0,0.0
6861,53.0,0.0,40.0,12.0,0.0
6862,77.0,0.0,40.0,10.0,0.0
6863,60.0,0.0,40.0,12.0,0.0
6864,57.0,60.0,40.0,12.0,0.0
6865,53.0,0.0,40.0,12.0,0.0
6866,79.0,0.0,40.0,10.0,0.0
6867,79.0,0.0,40.0,11.0,0.0
6868,53.0,0.0,40.0,13.0,0.0
6869,57.0,0.0,40.0,12.0,0.0
6870,41.0,60.0,40.0,14.0,0.0
6871,60.0,0.0,40.0,12.0,0.0
6872,53.0,60.0,40.0,12.0,0.0
6873,81.0,0.0,40.0,10.0,0.0
6874,81.0,0.0,40.0,11.0,0.0
6875,53.0,0.0,40.0,13.0,0.0
6876,60.0,0.0,40.0,12.0,0.0
6877,41.0,0.0,40.0,14.0,0.0
6878,57.0,0.0,40.0,12.0,0.0
6879,82.0,0.0,40.0,10.0,0.0
6880,60.0,0.0,40.0,12.0,0.0
6881,53.0,0.0,40.0,13.0,0.0
6882,82.0,0.0,40.0,11.0,0.0
6883,57.0,60.0,40.0,12.0,0.0
6884,53.0,0.0,40.0,12.0,0.0
6885,41.0,0.0,40.0,14.0,0.0
6886,57.0,0.0,40.0,12.0,0.0
6887,60.0,0.0,40.0,12.0,0.0
6888,41.0,0.0,40.0,14.0,0.0
6889,84.0,12.0,90.0,10.0,0.0
6890,53.0,0.0,40.0,12.0,0.0
6891,77.0,0.0,90.0,3.0,0.0
6892,93.0,0.0,90.0,0.0,0.0
6893,72.0,0.0,90.0,6.0,0.0
6894,84.0,0.0,90.0,11.0,0.0
6895,53.0,48.0,40.0,13.0,0.0
6896,69.0,0.0,90.0,7.0,0.0
6897,81.0,0.0,90.0,7.0,0.0
6898,96.0,0.0,90.0,0.0,0.0
6899,81.0,0.0,90.0,2.0,0.0
6900,84.0,0.0,90.0,2.0,0.0
6901,69.0,0.0,90.0,6.0,0.0
6902,57.0,0.0,90.0,5.0,0.0
6903,45.0,0.0,90.0,8.0,0.0
6904,69.0,0.0,90.0,5.0,0.0
6905,57.0,0.0,600.0,4.0,0.0
6906,69.0,0.0,90.0,3.0,0.0
6907,53.0,3.0,600.0,4.0,0.0
6908,60.0,60.0,40.0,12.0,0.0
6909,57.0,0.0,40.0,12.0,0.0
6910,53.0,0.0,40.0,13.0,0.0
6911,41.0,0.0,40.0,14.0,0.0
6912,53.0,0.0,40.0,12.0,0.0
6913,41.0,60.0,40.0,14.0,0.0
6914,53.0,0.0,40.0,13.0,0.0
6915,60.0,0.0,40.0,12.0,0.0
6916,57.0,0.0,40.0,12.0,0.0
6917,53.0,0.0,40.0,12.0,0.0
6918,41.0,0.0,40.0,14.0,0.0
6919,60.0,0.0,40.0,12.0,0.0
6920,57.0,0.0,40.0,12.0,0.0
6921,53.0,0.0,40.0,12.0,0.0
6922,69.0,0.0,40.0,11.0,0.0
6923,53.0,60.0,40.0,13.0,0.0
6924,69.0,0.0,40.0,10.0,0.0
6925,41.0,0.0,40.0,14.0,0.0
6926,53.0,0.0,40.0,13.0,0.0
6927,57.0,60.0,40.0,12.0,0.0
6928,60.0,0.0,40.0,12.0,0.0
6929,70.0,0.0,40.0,10.0,0.0
6930,70.0,0.0,40.0,11.0,0.0
6931,53.0,0.0,40.0,12.0,0.0
6932,72.0,0.0,40.0,10.0,0.0
6933,53.0,60.0,40.0,12.0,0.0
6934,60.0,0.0,40.0,12.0,0.0
6935,57.0,0.0,40.0,12.0,0.0
6936,72.0,0.0,40.0,11.0,0.0
6937,53.0,0.0,40.0,13.0,0.0
6938,41.0,0.0,40.0,14.0,0.0
6939,41.0,60.0,40.0,14.0,0.0
6940,53.0,0.0,40.0,12.0,0.0
6941,57.0,0.0,40.0,12.0,0.0
6942,60.0,0.0,40.0,12.0,0.0
6943,74.0,0.0,40.0,11.0,0.0
6944,74.0,0.0,40.0,10.0,0.0
6945,53.0,0.0,40.0,13.0,0.0
6946,53.0,0.0,40.0,13.0,0.0
6947,60.0,0.0,40.0,12.0,0.0
6948,76.0,0.0,40.0,10.0,0.0
6949,53.0,0.0,40.0,12.0,0.0
6950,57.0,0.0,40.0,12.0,0.0
6951,41.0,60.0,40.0,14.0,0.0
6952,76.0,0.0,40.0,11.0,0.0
6953,57.0,0.0,40.0,12.0,0.0
6954,60.0,0.0,40.0,12.0,0.0
6955,53.0,0.0,40.0,12.0,0.0
6956,81.0,0.0,90.0,2.0,0.0
6957,45.0,0.0,90.0,8.0,0.0
6958,84.0,0.0,90.0,2.0,0.0
6959,81.0,0.0,90.0,7.0,0.0
6960,69.0,0.0,90.0,7.0,0.0
6961,93.0,0.0,90.0,0.0,0.0
6962,96.0,9.0,90.0,0.0,0.0
6963,72.0,0.0,90.0,6.0,0.0
6964,69.0,0.0,90.0,6.0,0.0
6965,53.0,0.0,40.0,13.0,0.0
6966,41.0,0.0,40.0,14.0,0.0
6967,77.0,0.0,40.0,11.0,0.0
6968,69.0,0.0,90.0,5.0,0.0
6969,77.0,48.0,40.0,10.0,0.0
6970,81.0,0.0,90.0,3.0,0.0
6971,57.0,0.0,90.0,5.0,0.0
6972,77.0,0.0,90.0,3.0,0.0
6973,53.0,0.0,40.0,13.0,0.0
6974,57.0,60.0,40.0,12.0,0.0
6975,53.0,0.0,40.0,12.0,0.0
6976,60.0,0.0,40.0,12.0,0.0
6977,79.0,0.0,40.0,10.0,0.0
6978,79.0,0.0,40.0,11.0,0.0
6979,41.0,0.0,40.0,14.0,0.0
6980,72.0,0.0,90.0,6.0,0.0
6981,69.0,12.0,90.0,6.0,0.0
6982,69.0,0.0,90.0,5.0,0.0
6983,57.0,0.0,90.0,5.0,0.0
6984,81.0,0.0,40.0,11.0,0.0
6985,93.0,0.0,90.0,0.0,0.0
6986,65.0,0.0,90.0,4.0,0.0
6987,53.0,0.0,40.0,13.0,0.0
6988,69.0,0.0,90.0,4.0,0.0
6989,96.0,0.0,90.0,0.0,0.0
6990,81.0,0.0,90.0,3.0,0.0
6991,81.0,48.0,40.0,10.0,0.0
6992,45.0,0.0,90.0,8.0,0.0
6993,77.0,0.0,90.0,3.0,0.0
6994,57.0,0.0,40.0,12.0,0.0
6995,60.0,0.0,40.0,12.0,0.0
6996,84.0,0.0,90.0,2.0,0.0
6997,81.0,0.0,90.0,2.0,0.0
6998,53.0,0.0,40.0,12.0,0.0
6999,69.0,0.0,90.0,7.0,0.0
7000,41.0,0.0,40.0,14.0,0.0
7001,81.0,0.0,90.0,7.0,0.0
7002,41.0,0.0,40.0,14.0,0.0
7003,53.0,0.0,40.0,12.0,0.0
7004,82.0,0.0,40.0,10.0,0.0
7005,53.0,0.0,40.0,13.0,0.0
7006,60.0,60.0,40.0,12.0,0.0
7007,82.0,0.0,40.0,11.0,0.0
7008,57.0,0.0,40.0,12.0,0.0
7009,82.0,0.0,300.0,2.0,0.0
7010,64.0,0.0,300.0,5.0,0.0
7011,79.0,0.0,300.0,2.0,0.0
7012,60.0,0.0,40.0,12.0,0.0
7013,58.0,0.0,40.0,12.0,0.0
7014,55.0,0.0,40.0,12.0,0.0
7015,52.0,12.0,90.0,8.0,0.0
7016,84.0,0.0,180.0,10.0,0.0
7017,84.0,0.0,180.0,3.0,0.0
7018,72.0,0.0,180.0,3.0,0.0
7019,53.0,0.0,40.0,13.0,0.0
7020,67.0,36.0,180.0,4.0,0.0
7021,70.0,0.0,180.0,4.0,0.0
7022,41.0,48.0,40.0,14.0,0.0
7023,96.0,0.0,180.0,0.0,0.0
7024,67.0,0.0,300.0,6.0,0.0
7025,84.0,0.0,180.0,11.0,0.0
7026,76.0,55.0,120.0,7.0,0.0
7027,41.0,5.0,40.0,14.0,0.0
7028,55.0,0.0,40.0,12.0,0.0
7029,53.0,0.0,40.0,13.0,0.0
7030,60.0,0.0,40.0,12.0,0.0
7031,58.0,0.0,40.0,12.0,0.0
7032,58.0,0.0,40.0,12.0,0.0
7033,53.0,24.0,40.0,13.0,0.0
7034,60.0,0.0,40.0,12.0,0.0
7035,41.0,0.0,40.0,14.0,0.0
7036,55.0,0.0,40.0,12.0,0.0
7037,60.0,0.0,40.0,12.0,0.0
7038,53.0,0.0,40.0,13.0,0.0
7039,58.0,60.0,40.0,12.0,0.0
7040,41.0,0.0,40.0,14.0,0.0
7041,55.0,0.0,40.0,12.0,0.0
7042,41.0,0.0,40.0,14.0,0.0
7043,76.0,0.0,90.0,3.0,0.0
7044,76.0,0.0,90.0,10.0,0.0
7045,60.0,0.0,40.0,12.0,0.0
7046,58.0,0.0,40.0,12.0,0.0
7047,55.0,0.0,40.0,12.0,0.0
7048,64.0,12.0,90.0,3.0,0.0
7049,88.0,0.0,40.0,0.0,0.0
7050,64.0,0.0,90.0,4.0,0.0
7051,67.0,0.0,90.0,4.0,0.0
7052,76.0,0.0,90.0,11.0,0.0
7053,53.0,48.0,40.0,13.0,0.0
7054,41.0,0.0,40.0,14.0,0.0
7055,53.0,0.0,40.0,13.0,0.0
7056,58.0,0.0,40.0,12.0,0.0
7057,60.0,60.0,40.0,12.0,0.0
7058,55.0,0.0,40.0,12.0,0.0
7059,60.0,0.0,40.0,12.0,0.0
7060,58.0,0.0,40.0,12.0,0.0
7061,55.0,0.0,40.0,12.0,0.0
7062,84.0,0.0,180.0,3.0,0.0
7063,52.0,12.0,90.0,8.0,0.0
7064,41.0,48.0,40.0,14.0,0.0
7065,67.0,36.0,180.0,4.0,0.0
7066,70.0,0.0,180.0,4.0,0.0
7067,67.0,0.0,300.0,6.0,0.0
7068,53.0,0.0,40.0,13.0,0.0
7069,84.0,0.0,180.0,11.0,0.0
7070,72.0,0.0,180.0,3.0,0.0
7071,64.0,0.0,300.0,5.0,0.0
7072,82.0,0.0,300.0,2.0,0.0
7073,96.0,0.0,180.0,0.0,0.0
7074,84.0,0.0,180.0,10.0,0.0
7075,76.0,55.0,120.0,7.0,0.0
7076,79.0,0.0,300.0,2.0,0.0
7077,53.0,0.0,40.0,13.0,0.0
7078,41.0,0.0,40.0,14.0,0.0
7079,55.0,0.0,40.0,12.0,0.0
7080,58.0,0.0,40.0,12.0,0.0
7081,60.0,5.0,40.0,12.0,0.0
7082,55.0,0.0,40.0,12.0,0.0
7083,60.0,0.0,40.0,12.0,0.0
7084,41.0,0.0,40.0,14.0,0.0
7085,53.0,24.0,40.0,13.0,0.0
7086,58.0,0.0,40.0,12.0,0.0
7087,41.0,0.0,40.0,14.0,0.0
7088,58.0,0.0,40.0,12.0,0.0
7089,60.0,0.0,40.0,12.0,0.0
7090,53.0,60.0,40.0,13.0,0.0
7091,55.0,0.0,40.0,12.0,0.0
7092,76.0,12.0,90.0,3.0,0.0
7093,76.0,0.0,90.0,11.0,0.0
7094,64.0,0.0,90.0,3.0,0.0
7095,76.0,0.0,90.0,10.0,0.0
7096,55.0,0.0,40.0,12.0,0.0
7097,58.0,0.0,40.0,12.0,0.0
7098,60.0,0.0,40.0,12.0,0.0
7099,53.0,0.0,40.0,13.0,0.0
7100,67.0,0.0,90.0,4.0,0.0
7101,64.0,0.0,90.0,4.0,0.0
7102,41.0,0.0,40.0,14.0,0.0
7103,88.0,48.0,40.0,0.0,0.0
7104,53.0,0.0,40.0,13.0,0.0
7105,58.0,0.0,40.0,12.0,0.0
7106,60.0,0.0,40.0,12.0,0.0
7107,55.0,60.0,40.0,12.0,0.0
7108,41.0,0.0,40.0,14.0,0.0
7109,41.0,0.0,40.0,14.0,0.0
7110,53.0,0.0,40.0,13.0,0.0
7111,45.0,12.0,90.0,8.0,0.0
7112,72.0,0.0,180.0,3.0,0.0
7113,84.0,0.0,180.0,3.0,0.0
7114,69.0,0.0,300.0,6.0,0.0
7115,84.0,36.0,180.0,11.0,0.0
7116,81.0,55.0,120.0,7.0,0.0
7117,57.0,48.0,300.0,5.0,0.0
7118,53.0,48.0,40.0,12.0,0.0
7119,69.0,0.0,180.0,4.0,0.0
7120,60.0,0.0,40.0,12.0,0.0
7121,72.0,0.0,180.0,4.0,0.0
7122,69.0,0.0,300.0,5.0,0.0
7123,77.0,0.0,300.0,2.0,0.0
7124,81.0,0.0,300.0,2.0,0.0
7125,96.0,0.0,180.0,0.0,0.0
7126,69.0,0.0,120.0,7.0,0.0
7127,84.0,0.0,180.0,10.0,0.0
7128,57.0,0.0,40.0,12.0,0.0
7129,53.0,0.0,40.0,12.0,0.0
7130,53.0,0.0,40.0,13.0,0.0
7131,57.0,0.0,40.0,12.0,0.0
7132,60.0,0.0,40.0,12.0,0.0
7133,41.0,5.0,40.0,14.0,0.0
7134,53.0,24.0,40.0,12.0,0.0
7135,57.0,0.0,40.0,12.0,0.0
7136,60.0,0.0,40.0,12.0,0.0
7137,41.0,0.0,40.0,14.0,0.0
7138,53.0,0.0,40.0,13.0,0.0
7139,53.0,0.0,40.0,13.0,0.0
7140,41.0,0.0,40.0,14.0,0.0
7141,57.0,0.0,40.0,12.0,0.0
7142,53.0,0.0,40.0,12.0,0.0
7143,60.0,60.0,40.0,12.0,0.0
7144,65.0,0.0,90.0,3.0,0.0
7145,53.0,0.0,40.0,13.0,0.0
7146,53.0,0.0,40.0,12.0,0.0
7147,77.0,0.0,90.0,10.0,0.0
7148,57.0,0.0,40.0,12.0,0.0
7149,77.0,0.0,90.0,11.0,0.0
7150,65.0,0.0,90.0,4.0,0.0
7151,41.0,0.0,40.0,14.0,0.0
7152,69.0,0.0,90.0,4.0,0.0
7153,88.0,0.0,40.0,0.0,0.0
7154,60.0,0.0,40.0,12.0,0.0
7155,77.0,12.0,90.0,3.0,0.0
7156,57.0,60.0,40.0,12.0,0.0
7157,53.0,0.0,40.0,13.0,0.0
7158,53.0,0.0,40.0,12.0,0.0
7159,41.0,0.0,40.0,14.0,0.0
7160,60.0,0.0,40.0,12.0,0.0
7161,67.0,0.0,300.0,6.0,0.0
7162,82.0,0.0,300.0,2.0,0.0
7163,64.0,0.0,300.0,5.0,0.0
7164,55.0,0.0,40.0,12.0,0.0
7165,58.0,0.0,40.0,12.0,0.0
7166,60.0,0.0,40.0,12.0,0.0
7167,67.0,0.0,180.0,4.0,0.0
7168,70.0,0.0,180.0,4.0,0.0
7169,76.0,55.0,120.0,7.0,0.0
7170,84.0,0.0,180.0,10.0,0.0
7171,79.0,0.0,300.0,2.0,0.0
7172,84.0,0.0,180.0,3.0,0.0
7173,53.0,0.0,40.0,13.0,0.0
7174,84.0,0.0,180.0,11.0,0.0
7175,41.0,48.0,40.0,14.0,0.0
7176,72.0,0.0,180.0,3.0,0.0
7177,52.0,12.0,90.0,8.0,0.0
7178,96.0,36.0,180.0,0.0,0.0
7179,58.0,0.0,40.0,12.0,0.0
7180,60.0,0.0,40.0,12.0,0.0
7181,55.0,0.0,40.0,12.0,0.0
7182,41.0,5.0,40.0,14.0,0.0
7183,53.0,0.0,40.0,13.0,0.0
7184,60.0,0.0,40.0,12.0,0.0
7185,58.0,24.0,40.0,12.0,0.0
7186,55.0,0.0,40.0,12.0,0.0
7187,53.0,0.0,40.0,13.0,0.0
7188,41.0,0.0,40.0,14.0,0.0
7189,53.0,0.0,40.0,13.0,0.0
7190,55.0,0.0,40.0,12.0,0.0
7191,41.0,0.0,40.0,14.0,0.0
7192,58.0,0.0,40.0,12.0,0.0
7193,60.0,60.0,40.0,12.0,0.0
7194,64.0,0.0,90.0,4.0,0.0
7195,60.0,0.0,40.0,12.0,0.0
7196,58.0,0.0,40.0,12.0,0.0
7197,41.0,0.0,40.0,14.0,0.0
7198,55.0,0.0,40.0,12.0,0.0
7199,76.0,0.0,90.0,10.0,0.0
7200,88.0,0.0,40.0,0.0,0.0
7201,53.0,48.0,40.0,13.0,0.0
7202,64.0,0.0,90.0,3.0,0.0
7203,67.0,0.0,90.0,4.0,0.0
7204,76.0,0.0,90.0,3.0,0.0
7205,76.0,0.0,90.0,11.0,0.0
7206,60.0,0.0,40.0,12.0,0.0
7207,53.0,0.0,40.0,13.0,0.0
7208,58.0,60.0,40.0,12.0,0.0
7209,55.0,0.0,40.0,12.0,0.0
7210,41.0,0.0,40.0,14.0,0.0
7211,60.0,0.0,40.0,12.0,0.0
7212,57.0,0.0,40.0,12.0,0.0
7213,53.0,48.0,40.0,12.0,0.0
7214,69.0,0.0,300.0,6.0,0.0
7215,84.0,36.0,180.0,11.0,0.0
7216,84.0,0.0,180.0,3.0,0.0
7217,69.0,0.0,180.0,4.0,0.0
7218,69.0,0.0,120.0,7.0,0.0
7219,81.0,0.0,300.0,2.0,0.0
7220,57.0,0.0,300.0,5.0,0.0
7221,69.0,0.0,300.0,5.0,0.0
7222,72.0,0.0,180.0,4.0,0.0
7223,53.0,0.0,40.0,13.0,0.0
7224,81.0,55.0,120.0,7.0,0.0
7225,72.0,0.0,180.0,3.0,0.0
7226,84.0,0.0,180.0,10.0,0.0
7227,45.0,12.0,90.0,8.0,0.0
7228,77.0,0.0,300.0,2.0,0.0
7229,41.0,0.0,40.0,14.0,0.0
7230,96.0,0.0,180.0,0.0,0.0
7231,41.0,0.0,40.0,14.0,0.0
7232,60.0,0.0,40.0,12.0,0.0
7233,53.0,0.0,40.0,13.0,0.0
7234,57.0,5.0,40.0,12.0,0.0
7235,53.0,0.0,40.0,12.0,0.0
7236,53.0,0.0,40.0,12.0,0.0
7237,60.0,0.0,40.0,12.0,0.0
7238,41.0,0.0,40.0,14.0,0.0
7239,53.0,24.0,40.0,13.0,0.0
7240,57.0,0.0,40.0,12.0,0.0
7241,53.0,0.0,40.0,13.0,0.0
7242,53.0,0.0,40.0,12.0,0.0
7243,57.0,0.0,40.0,12.0,0.0
7244,60.0,60.0,40.0,12.0,0.0
7245,41.0,0.0,40.0,14.0,0.0
7246,65.0,0.0,90.0,3.0,0.0
7247,77.0,0.0,90.0,3.0,0.0
7248,65.0,0.0,90.0,4.0,0.0
7249,53.0,0.0,40.0,12.0,0.0
7250,57.0,48.0,40.0,12.0,0.0
7251,53.0,0.0,40.0,13.0,0.0
7252,77.0,0.0,90.0,10.0,0.0
7253,77.0,0.0,90.0,11.0,0.0
7254,69.0,12.0,90.0,4.0,0.0
7255,88.0,0.0,40.0,0.0,0.0
7256,60.0,0.0,40.0,12.0,0.0
7257,41.0,0.0,40.0,14.0,0.0
7258,41.0,60.0,40.0,14.0,0.0
7259,53.0,0.0,40.0,12.0,0.0
7260,57.0,0.0,40.0,12.0,0.0
7261,60.0,0.0,40.0,12.0,0.0
7262,53.0,0.0,40.0,13.0,0.0
7263,53.0,0.0,40.0,13.0,0.0
7264,70.0,0.0,180.0,4.0,0.0
7265,67.0,0.0,180.0,4.0,0.0
7266,84.0,0.0,180.0,10.0,0.0
7267,76.0,55.0,120.0,7.0,0.0
7268,84.0,0.0,180.0,11.0,0.0
7269,64.0,0.0,300.0,5.0,0.0
7270,79.0,0.0,300.0,2.0,0.0
7271,82.0,0.0,300.0,2.0,0.0
7272,58.0,0.0,40.0,12.0,0.0
7273,55.0,0.0,40.0,12.0,0.0
7274,84.0,0.0,180.0,3.0,0.0
7275,72.0,0.0,180.0,3.0,0.0
7276,41.0,0.0,40.0,14.0,0.0
7277,60.0,48.0,40.0,12.0,0.0
7278,96.0,36.0,180.0,0.0,0.0
7279,52.0,12.0,90.0,8.0,0.0
7280,67.0,48.0,300.0,6.0,0.0
7281,55.0,5.0,40.0,12.0,0.0
7282,58.0,0.0,40.0,12.0,0.0
7283,60.0,0.0,40.0,12.0,0.0
7284,53.0,0.0,40.0,13.0,0.0
7285,41.0,0.0,40.0,14.0,0.0
7286,41.0,24.0,40.0,14.0,0.0
7287,60.0,0.0,40.0,12.0,0.0
7288,58.0,0.0,40.0,12.0,0.0
7289,53.0,0.0,40.0,13.0,0.0
7290,55.0,0.0,40.0,12.0,0.0
7291,58.0,0.0,40.0,12.0,0.0
7292,41.0,60.0,40.0,14.0,0.0
7293,53.0,0.0,40.0,13.0,0.0
7294,60.0,0.0,40.0,12.0,0.0
7295,55.0,0.0,40.0,12.0,0.0
7296,60.0,0.0,40.0,12.0,0.0
7297,76.0,0.0,90.0,11.0,0.0
7298,88.0,0.0,40.0,0.0,0.0
7299,55.0,0.0,40.0,12.0,0.0
7300,64.0,0.0,90.0,3.0,0.0
7301,76.0,0.0,90.0,3.0,0.0
7302,41.0,0.0,40.0,14.0,0.0
7303,64.0,0.0,90.0,4.0,0.0
7304,67.0,12.0,90.0,4.0,0.0
7305,53.0,0.0,40.0,13.0,0.0
7306,76.0,0.0,90.0,10.0,0.0
7307,58.0,0.0,40.0,12.0,0.0
7308,53.0,0.0,40.0,13.0,0.0
7309,41.0,0.0,40.0,14.0,0.0
7310,55.0,108.0,40.0,12.0,0.0
7311,60.0,0.0,40.0,12.0,0.0
7312,58.0,0.0,40.0,12.0,0.0
7313,60.0,0.0,90.0,12.0,0.0
7314,57.0,0.0,90.0,12.0,0.0
7315,53.0,0.0,90.0,12.0,0.0
7316,53.0,0.0,90.0,13.0,0.0
7317,72.0,0.0,90.0,6.0,0.0
7318,69.0,0.0,90.0,5.0,0.0
7319,41.0,0.0,90.0,14.0,0.0
7320,65.0,0.0,90.0,4.0,0.0
7321,60.0,0.0,90.0,10.0,0.0
7322,81.0,120.0,90.0,2.0,0.0
7323,60.0,0.0,90.0,11.0,0.0
7324,69.0,0.0,90.0,11.0,0.0
7325,77.0,0.0,90.0,11.0,0.0
7326,77.0,0.0,90.0,2.0,0.0
7327,69.0,0.0,90.0,10.0,0.0
7328,77.0,0.0,90.0,10.0,0.0
7329,89.0,0.0,90.0,0.0,0.0
7330,72.0,0.0,90.0,3.0,0.0
7331,69.0,0.0,90.0,3.0,0.0
7332,65.0,0.0,90.0,4.0,0.0
7333,69.0,132.0,90.0,5.0,0.0
7334,72.0,0.0,90.0,6.0,0.0
7335,72.0,0.0,90.0,3.0,0.0
7336,69.0,0.0,90.0,3.0,0.0
7337,72.0,0.0,40.0,3.0,0.0
7338,72.0,108.0,40.0,6.0,0.0
7339,69.0,0.0,40.0,3.0,0.0
7340,69.0,0.0,40.0,5.0,0.0
7341,65.0,0.0,40.0,4.0,0.0
7342,69.0,0.0,90.0,5.0,0.0
7343,72.0,0.0,90.0,3.0,0.0
7344,69.0,0.0,90.0,3.0,0.0
7345,65.0,120.0,90.0,4.0,0.0
7346,72.0,0.0,90.0,6.0,0.0
7347,72.0,0.0,90.0,3.0,0.0
7348,65.0,0.0,90.0,4.0,0.0
7349,69.0,0.0,90.0,3.0,0.0
7350,69.0,132.0,90.0,5.0,0.0
7351,72.0,0.0,90.0,6.0,0.0
7352,69.0,108.0,40.0,5.0,0.0
7353,72.0,0.0,40.0,6.0,0.0
7354,65.0,0.0,40.0,4.0,0.0
7355,69.0,0.0,40.0,3.0,0.0
7356,70.0,0.0,90.0,3.0,0.0
7357,72.0,120.0,90.0,6.0,0.0
7358,64.0,0.0,90.0,5.0,0.0
7359,67.0,0.0,90.0,3.0,0.0
7360,64.0,0.0,90.0,4.0,0.0
7361,67.0,132.0,90.0,3.0,0.0
7362,70.0,0.0,90.0,3.0,0.0
7363,72.0,0.0,90.0,6.0,0.0
7364,64.0,0.0,90.0,4.0,0.0
7365,64.0,0.0,90.0,5.0,0.0
7366,72.0,0.0,40.0,6.0,0.0
7367,67.0,0.0,40.0,3.0,0.0
7368,64.0,108.0,40.0,4.0,0.0
7369,70.0,0.0,40.0,3.0,0.0
7370,64.0,0.0,40.0,5.0,0.0
7371,70.0,0.0,90.0,3.0,0.0
7372,72.0,0.0,90.0,6.0,0.0
7373,64.0,120.0,90.0,5.0,0.0
7374,64.0,0.0,90.0,4.0,0.0
7375,67.0,0.0,90.0,3.0,0.0
7376,64.0,0.0,90.0,4.0,0.0
7377,64.0,0.0,90.0,5.0,0.0
7378,72.0,240.0,90.0,6.0,0.0
7379,70.0,0.0,90.0,3.0,0.0
7380,67.0,0.0,90.0,3.0,0.0
7381,65.0,0.0,90.0,12.0,0.0
7382,65.0,120.0,90.0,13.0,0.0
7383,84.0,96.0,240.0,10.0,0.0
7384,69.0,0.0,90.0,11.0,0.0
7385,69.0,24.0,90.0,11.0,0.0
7386,65.0,0.0,90.0,13.0,0.0
7387,65.0,0.0,90.0,12.0,0.0
7388,81.0,120.0,90.0,10.0,0.0
7389,69.0,0.0,90.0,11.0,0.0
7390,84.0,96.0,240.0,10.0,0.0
7391,65.0,0.0,90.0,13.0,0.0
7392,65.0,120.0,90.0,12.0,0.0
7393,65.0,0.0,90.0,13.0,0.0
7394,65.0,0.0,90.0,12.0,0.0
7395,69.0,24.0,90.0,11.0,0.0
7396,81.0,120.0,90.0,10.0,0.0
7397,67.0,0.0,90.0,12.0,0.0
7398,64.0,120.0,90.0,13.0,0.0
7399,69.0,0.0,90.0,11.0,0.0
7400,85.0,96.0,240.0,10.0,0.0
7401,67.0,24.0,90.0,12.0,0.0
7402,64.0,0.0,90.0,13.0,0.0
7403,69.0,0.0,90.0,11.0,0.0
7404,81.0,120.0,90.0,10.0,0.0
7405,88.0,96.0,240.0,10.0,0.0
7406,69.0,0.0,90.0,11.0,0.0
7407,61.0,0.0,90.0,13.0,0.0
7408,64.0,120.0,90.0,12.0,0.0
7409,69.0,0.0,90.0,11.0,0.0
7410,64.0,0.0,90.0,12.0,0.0
7411,61.0,24.0,90.0,13.0,0.0
7412,81.0,120.0,90.0,10.0,0.0
7413,65.0,0.0,90.0,4.0,0.0
7414,69.0,0.0,90.0,3.0,0.0
7415,69.0,0.0,90.0,5.0,0.0
7416,65.0,120.0,90.0,3.0,0.0
7417,62.0,0.0,90.0,6.0,0.0
7418,62.0,0.0,90.0,4.0,0.0
7419,69.0,132.0,90.0,5.0,0.0
7420,62.0,0.0,90.0,6.0,0.0
7421,62.0,0.0,90.0,4.0,0.0
7422,65.0,0.0,90.0,4.0,0.0
7423,65.0,0.0,90.0,3.0,0.0
7424,69.0,0.0,90.0,3.0,0.0
7425,62.0,0.0,40.0,4.0,0.0
7426,62.0,108.0,40.0,6.0,0.0
7427,69.0,0.0,40.0,5.0,0.0
7428,69.0,0.0,40.0,3.0,0.0
7429,65.0,0.0,40.0,4.0,0.0
7430,65.0,0.0,40.0,3.0,0.0
7431,69.0,0.0,90.0,5.0,0.0
7432,62.0,120.0,90.0,6.0,0.0
7433,65.0,0.0,90.0,3.0,0.0
7434,62.0,0.0,90.0,4.0,0.0
7435,65.0,0.0,90.0,4.0,0.0
7436,69.0,0.0,90.0,3.0,0.0
7437,69.0,0.0,90.0,5.0,0.0
7438,62.0,0.0,90.0,4.0,0.0
7439,65.0,0.0,90.0,4.0,0.0
7440,62.0,132.0,90.0,6.0,0.0
7441,65.0,0.0,90.0,3.0,0.0
7442,69.0,0.0,90.0,3.0,0.0
7443,69.0,0.0,40.0,5.0,0.0
7444,69.0,0.0,40.0,3.0,0.0
7445,65.0,0.0,40.0,3.0,0.0
7446,62.0,108.0,40.0,6.0,0.0
7447,62.0,0.0,40.0,4.0,0.0
7448,65.0,0.0,40.0,4.0,0.0
7449,61.0,0.0,90.0,4.0,0.0
7450,69.0,120.0,90.0,5.0,0.0
7451,64.0,0.0,90.0,3.0,0.0
7452,69.0,0.0,90.0,3.0,0.0
7453,67.0,0.0,90.0,6.0,0.0
7454,67.0,132.0,90.0,6.0,0.0
7455,64.0,0.0,90.0,3.0,0.0
7456,69.0,0.0,90.0,3.0,0.0
7457,69.0,0.0,90.0,5.0,0.0
7458,61.0,0.0,90.0,4.0,0.0
7459,61.0,0.0,40.0,4.0,0.0
7460,69.0,0.0,40.0,5.0,0.0
7461,67.0,108.0,40.0,6.0,0.0
7462,64.0,0.0,40.0,3.0,0.0
7463,69.0,0.0,40.0,3.0,0.0
7464,69.0,0.0,90.0,3.0,0.0
7465,64.0,0.0,90.0,3.0,0.0
7466,67.0,120.0,90.0,6.0,0.0
7467,69.0,0.0,90.0,5.0,0.0
7468,61.0,0.0,90.0,4.0,0.0
7469,67.0,0.0,90.0,6.0,0.0
7470,69.0,0.0,90.0,3.0,0.0
7471,69.0,240.0,90.0,5.0,0.0
7472,64.0,0.0,90.0,3.0,0.0
7473,61.0,0.0,90.0,4.0,0.0
7474,65.0,120.0,90.0,11.0,0.0
7475,62.0,0.0,90.0,12.0,0.0
7476,81.0,96.0,240.0,10.0,0.0
7477,62.0,0.0,90.0,13.0,0.0
7478,65.0,0.0,90.0,11.0,0.0
7479,62.0,0.0,90.0,13.0,0.0
7480,62.0,24.0,90.0,12.0,0.0
7481,77.0,120.0,90.0,10.0,0.0
7482,62.0,0.0,90.0,13.0,0.0
7483,65.0,120.0,90.0,11.0,0.0
7484,86.0,96.0,240.0,10.0,0.0
7485,62.0,0.0,90.0,12.0,0.0
7486,62.0,0.0,90.0,13.0,0.0
7487,62.0,24.0,90.0,12.0,0.0
7488,65.0,0.0,90.0,11.0,0.0
7489,81.0,120.0,90.0,10.0,0.0
7490,86.0,96.0,240.0,10.0,0.0
7491,64.0,120.0,90.0,11.0,0.0
7492,59.0,0.0,90.0,13.0,0.0
7493,62.0,0.0,90.0,12.0,0.0
7494,64.0,0.0,90.0,11.0,0.0
7495,62.0,0.0,90.0,12.0,0.0
7496,59.0,24.0,90.0,13.0,0.0
7497,80.0,120.0,90.0,10.0,0.0
7498,59.0,120.0,90.0,12.0,0.0
7499,64.0,0.0,90.0,11.0,0.0
7500,56.0,0.0,90.0,13.0,0.0
7501,86.0,96.0,240.0,10.0,0.0
7502,59.0,24.0,90.0,12.0,0.0
7503,64.0,0.0,90.0,11.0,0.0
7504,56.0,0.0,90.0,13.0,0.0
7505,83.0,120.0,90.0,10.0,0.0
7506,64.0,0.0,90.0,11.0,0.0
7507,64.0,0.0,90.0,5.0,0.0
7508,60.0,0.0,90.0,12.0,0.0
7509,57.0,0.0,90.0,12.0,0.0
7510,64.0,0.0,90.0,10.0,0.0
7511,52.0,0.0,90.0,5.0,0.0
7512,84.0,120.0,90.0,2.0,0.0
7513,76.0,0.0,90.0,2.0,0.0
7514,52.0,0.0,90.0,8.0,0.0
7515,76.0,0.0,90.0,7.0,0.0
7516,88.0,0.0,90.0,0.0,0.0
7517,64.0,0.0,90.0,7.0,0.0
7518,45.0,0.0,90.0,13.0,0.0
7519,33.0,0.0,90.0,14.0,0.0
7520,64.0,0.0,90.0,10.0,0.0
7521,76.0,0.0,90.0,7.0,0.0
7522,33.0,0.0,90.0,14.0,0.0
7523,52.0,0.0,90.0,8.0,0.0
7524,88.0,0.0,90.0,0.0,0.0
7525,64.0,0.0,90.0,7.0,0.0
7526,64.0,132.0,90.0,5.0,0.0
7527,64.0,0.0,90.0,11.0,0.0
7528,76.0,0.0,90.0,2.0,0.0
7529,84.0,0.0,90.0,2.0,0.0
7530,60.0,0.0,90.0,12.0,0.0
7531,57.0,0.0,90.0,12.0,0.0
7532,45.0,0.0,90.0,13.0,0.0
7533,52.0,0.0,90.0,5.0,0.0
7534,76.0,0.0,40.0,7.0,0.0
7535,45.0,0.0,40.0,13.0,0.0
7536,64.0,0.0,40.0,11.0,0.0
7537,84.0,0.0,40.0,2.0,0.0
7538,76.0,0.0,40.0,2.0,0.0
7539,52.0,0.0,40.0,8.0,0.0
7540,60.0,0.0,40.0,12.0,0.0
7541,33.0,0.0,40.0,14.0,0.0
7542,88.0,0.0,40.0,0.0,0.0
7543,64.0,0.0,40.0,10.0,0.0
7544,64.0,108.0,40.0,5.0,0.0
7545,52.0,0.0,40.0,5.0,0.0
7546,57.0,0.0,40.0,12.0,0.0
7547,64.0,0.0,40.0,7.0,0.0
7548,52.0,0.0,90.0,8.0,0.0
7549,76.0,0.0,90.0,7.0,0.0
7550,64.0,0.0,90.0,7.0,0.0
7551,33.0,0.0,90.0,14.0,0.0
7552,84.0,0.0,90.0,2.0,0.0
7553,64.0,0.0,90.0,10.0,0.0
7554,64.0,0.0,90.0,11.0,0.0
7555,57.0,0.0,90.0,12.0,0.0
7556,60.0,0.0,90.0,12.0,0.0
7557,76.0,120.0,90.0,2.0,0.0
7558,88.0,0.0,90.0,0.0,0.0
7559,45.0,0.0,90.0,13.0,0.0
7560,64.0,0.0,90.0,5.0,0.0
7561,52.0,0.0,90.0,5.0,0.0
7562,52.0,0.0,90.0,5.0,0.0
7563,64.0,0.0,90.0,10.0,0.0
7564,64.0,0.0,90.0,11.0,0.0
7565,76.0,0.0,90.0,7.0,0.0
7566,64.0,0.0,90.0,7.0,0.0
7567,33.0,0.0,90.0,14.0,0.0
7568,45.0,0.0,90.0,13.0,0.0
7569,52.0,132.0,90.0,8.0,0.0
7570,88.0,0.0,90.0,0.0,0.0
7571,60.0,0.0,90.0,12.0,0.0
7572,57.0,0.0,90.0,12.0,0.0
7573,84.0,0.0,90.0,2.0,0.0
7574,76.0,0.0,90.0,2.0,0.0
7575,64.0,0.0,90.0,5.0,0.0
7576,64.0,0.0,40.0,11.0,0.0
7577,64.0,0.0,40.0,10.0,0.0
7578,84.0,0.0,40.0,2.0,0.0
7579,76.0,0.0,40.0,2.0,0.0
7580,52.0,0.0,40.0,8.0,0.0
7581,45.0,0.0,40.0,13.0,0.0
7582,60.0,0.0,40.0,12.0,0.0
7583,52.0,0.0,40.0,5.0,0.0
7584,64.0,0.0,40.0,5.0,0.0
7585,76.0,0.0,40.0,7.0,0.0
7586,64.0,108.0,40.0,7.0,0.0
7587,33.0,0.0,40.0,14.0,0.0
7588,88.0,0.0,40.0,0.0,0.0
7589,32.0,0.0,90.0,14.0,0.0
7590,88.0,0.0,90.0,0.0,0.0
7591,64.0,0.0,90.0,7.0,0.0
7592,44.0,0.0,90.0,13.0,0.0
7593,52.0,0.0,90.0,8.0,0.0
7594,64.0,0.0,90.0,5.0,0.0
7595,64.0,0.0,90.0,11.0,0.0
7596,59.0,0.0,90.0,12.0,0.0
7597,64.0,0.0,90.0,10.0,0.0
7598,83.0,120.0,90.0,2.0,0.0
7599,76.0,0.0,90.0,2.0,0.0
7600,76.0,0.0,90.0,7.0,0.0
7601,52.0,0.0,90.0,5.0,0.0
7602,32.0,0.0,90.0,14.0,0.0
7603,88.0,0.0,90.0,0.0,0.0
7604,64.0,0.0,90.0,7.0,0.0
7605,76.0,0.0,90.0,7.0,0.0
7606,59.0,0.0,90.0,12.0,0.0
7607,64.0,0.0,90.0,10.0,0.0
7608,76.0,0.0,90.0,2.0,0.0
7609,52.0,0.0,90.0,8.0,0.0
7610,52.0,0.0,90.0,5.0,0.0
7611,64.0,0.0,90.0,5.0,0.0
7612,44.0,0.0,90.0,13.0,0.0
7613,64.0,0.0,90.0,11.0,0.0
7614,83.0,384.0,90.0,2.0,0.0
7615,76.0,0.0,240.0,11.0,0.0
7616,88.0,48.0,240.0,10.0,0.0
7617,83.0,1080.0,40.0,10.0,0.0
7618,71.0,0.0,40.0,11.0,0.0
7619,69.0,72.0,2100.0,3.0,0.0
7620,57.0,720.0,660.0,4.0,0.0
7621,72.0,72.0,660.0,3.0,0.0
7622,71.0,0.0,660.0,3.0,0.0
7623,53.0,0.0,15.0,4.0,0.0
7624,65.0,648.0,15.0,4.0,0.0
7625,77.0,0.0,720.0,2.0,0.0
7626,64.0,0.0,720.0,4.0,0.0
7627,52.0,0.0,720.0,4.0,0.0
7628,71.0,0.0,720.0,3.0,0.0
7629,68.0,24.0,720.0,3.0,0.0
7630,76.0,0.0,720.0,2.0,0.0
7631,76.0,18.0,150.0,10.0,0.0
7632,52.0,0.0,20.0,8.0,0.0
7633,76.0,0.0,390.0,2.0,0.0
7634,71.0,0.0,390.0,3.0,0.0
7635,64.0,0.0,390.0,5.0,0.0
7636,52.0,0.0,390.0,5.0,0.0
7637,52.0,0.0,60.0,13.0,0.0
7638,71.0,0.0,20.0,11.0,0.0
7639,68.0,30.0,20.0,12.0,0.0
7640,40.0,24.0,60.0,14.0,0.0
7641,68.0,0.0,390.0,3.0,0.0
7642,52.0,0.0,20.0,8.0,0.0
7643,68.0,0.0,20.0,12.0,0.0
7644,71.0,6.0,20.0,11.0,0.0
7645,39.0,0.0,40.0,14.0,0.0
7646,51.0,6.0,40.0,13.0,0.0
7647,52.0,0.0,20.0,8.0,0.0
7648,71.0,0.0,20.0,11.0,0.0
7649,68.0,24.0,20.0,12.0,0.0
7650,71.0,30.0,20.0,11.0,0.0
7651,52.0,0.0,20.0,8.0,0.0
7652,68.0,0.0,20.0,12.0,0.0
7653,52.0,6.0,20.0,8.0,0.0
7654,68.0,0.0,20.0,12.0,0.0
7655,40.0,6.0,40.0,14.0,0.0
7656,71.0,0.0,20.0,11.0,0.0
7657,52.0,0.0,40.0,13.0,0.0
7658,71.0,0.0,20.0,11.0,0.0
7659,75.0,24.0,30.0,10.0,0.0
7660,68.0,0.0,20.0,12.0,0.0
7661,52.0,6.0,20.0,8.0,0.0
7662,68.0,6.0,20.0,12.0,0.0
7663,40.0,0.0,40.0,14.0,0.0
7664,52.0,6.0,40.0,13.0,0.0
7665,76.0,18.0,30.0,10.0,0.0
7666,52.0,0.0,20.0,8.0,0.0
7667,71.0,0.0,20.0,11.0,0.0
7668,68.0,6.0,20.0,12.0,0.0
7669,71.0,0.0,20.0,11.0,0.0
7670,52.0,0.0,20.0,8.0,0.0
7671,78.0,24.0,30.0,10.0,0.0
7672,71.0,0.0,20.0,11.0,0.0
7673,52.0,0.0,40.0,13.0,0.0
7674,80.0,6.0,40.0,10.0,0.0
7675,68.0,0.0,20.0,12.0,0.0
7676,52.0,24.0,20.0,8.0,0.0
7677,40.0,0.0,40.0,14.0,0.0
7678,68.0,0.0,20.0,12.0,0.0
7679,71.0,30.0,20.0,11.0,0.0
7680,52.0,0.0,20.0,8.0,0.0
7681,52.0,24.0,20.0,8.0,0.0
7682,68.0,0.0,20.0,12.0,0.0
7683,40.0,6.0,40.0,14.0,0.0
7684,52.0,0.0,40.0,13.0,0.0
7685,71.0,0.0,20.0,11.0,0.0
7686,68.0,0.0,20.0,12.0,0.0
7687,71.0,0.0,20.0,11.0,0.0
7688,52.0,30.0,20.0,8.0,0.0
7689,52.0,6.0,40.0,13.0,0.0
7690,68.0,0.0,20.0,12.0,0.0
7691,52.0,0.0,20.0,8.0,0.0
7692,40.0,0.0,40.0,14.0,0.0
7693,71.0,24.0,20.0,11.0,0.0
7694,71.0,0.0,20.0,11.0,0.0
7695,68.0,30.0,20.0,12.0,0.0
7696,52.0,0.0,20.0,8.0,0.0
7697,71.0,0.0,20.0,11.0,0.0
7698,52.0,6.0,40.0,13.0,0.0
7699,52.0,0.0,20.0,8.0,0.0
7700,40.0,0.0,40.0,14.0,0.0
7701,68.0,24.0,20.0,12.0,0.0
7702,52.0,0.0,20.0,8.0,0.0
7703,68.0,30.0,20.0,12.0,0.0
7704,71.0,0.0,20.0,11.0,0.0
7705,76.0,0.0,390.0,2.0,0.0
7706,71.0,24.0,390.0,3.0,0.0
7707,52.0,0.0,390.0,5.0,0.0
7708,68.0,0.0,20.0,12.0,0.0
7709,68.0,0.0,390.0,3.0,0.0
7710,52.0,0.0,20.0,8.0,0.0
7711,40.0,24.0,60.0,14.0,0.0
7712,76.0,18.0,150.0,10.0,0.0
7713,71.0,30.0,20.0,11.0,0.0
7714,64.0,0.0,390.0,5.0,0.0
7715,52.0,0.0,60.0,13.0,0.0
7716,71.0,0.0,20.0,11.0,0.0
7717,68.0,6.0,20.0,12.0,0.0
7718,52.0,0.0,20.0,8.0,0.0
7719,39.0,6.0,40.0,14.0,0.0
7720,71.0,0.0,20.0,11.0,0.0
7721,52.0,24.0,20.0,8.0,0.0
7722,51.0,0.0,40.0,13.0,0.0
7723,68.0,0.0,20.0,12.0,0.0
7724,71.0,0.0,20.0,11.0,0.0
7725,52.0,0.0,20.0,8.0,0.0
7726,68.0,30.0,20.0,12.0,0.0
7727,40.0,6.0,40.0,14.0,0.0
7728,71.0,6.0,20.0,11.0,0.0
7729,68.0,0.0,20.0,12.0,0.0
7730,52.0,0.0,20.0,8.0,0.0
7731,52.0,0.0,40.0,13.0,0.0
7732,52.0,6.0,20.0,8.0,0.0
7733,71.0,0.0,20.0,11.0,0.0
7734,75.0,24.0,30.0,10.0,0.0
7735,68.0,0.0,20.0,12.0,0.0
7736,52.0,6.0,20.0,8.0,0.0
7737,68.0,0.0,20.0,12.0,0.0
7738,40.0,6.0,40.0,14.0,0.0
7739,52.0,0.0,40.0,13.0,0.0
7740,71.0,0.0,20.0,11.0,0.0
7741,76.0,18.0,30.0,10.0,0.0
7742,68.0,6.0,20.0,12.0,0.0
7743,52.0,0.0,20.0,8.0,0.0
7744,78.0,24.0,30.0,10.0,0.0
7745,71.0,0.0,20.0,11.0,0.0
7746,52.0,6.0,40.0,13.0,0.0
7747,68.0,24.0,20.0,12.0,0.0
7748,80.0,0.0,40.0,10.0,0.0
7749,52.0,0.0,20.0,8.0,0.0
7750,40.0,0.0,40.0,14.0,0.0
7751,71.0,0.0,20.0,11.0,0.0
7752,68.0,0.0,20.0,12.0,0.0
7753,52.0,0.0,20.0,8.0,0.0
7754,71.0,30.0,20.0,11.0,0.0
7755,68.0,24.0,20.0,12.0,0.0
7756,52.0,6.0,40.0,13.0,0.0
7757,71.0,0.0,20.0,11.0,0.0
7758,40.0,0.0,40.0,14.0,0.0
7759,52.0,0.0,20.0,8.0,0.0
7760,71.0,0.0,20.0,11.0,0.0
7761,52.0,0.0,20.0,8.0,0.0
7762,68.0,30.0,20.0,12.0,0.0
7763,40.0,0.0,40.0,14.0,0.0
7764,68.0,0.0,20.0,12.0,0.0
7765,52.0,6.0,40.0,13.0,0.0
7766,71.0,0.0,20.0,11.0,0.0
7767,52.0,0.0,20.0,8.0,0.0
7768,68.0,30.0,20.0,12.0,0.0
7769,52.0,0.0,20.0,8.0,0.0
7770,71.0,0.0,20.0,11.0,0.0
7771,52.0,6.0,40.0,13.0,0.0
7772,52.0,0.0,20.0,8.0,0.0
7773,71.0,0.0,20.0,11.0,0.0
7774,40.0,0.0,40.0,14.0,0.0
7775,68.0,24.0,20.0,12.0,0.0
7776,52.0,30.0,20.0,8.0,0.0
7777,68.0,0.0,20.0,12.0,0.0
7778,71.0,0.0,20.0,11.0,0.0
7779,75.0,0.0,390.0,2.0,0.0
7780,52.0,0.0,20.0,8.0,0.0
7781,40.0,0.0,60.0,14.0,0.0
7782,78.0,18.0,150.0,10.0,0.0
7783,78.0,0.0,390.0,2.0,0.0
7784,69.0,0.0,390.0,3.0,0.0
7785,64.0,0.0,390.0,5.0,0.0
7786,52.0,0.0,390.0,5.0,0.0
7787,72.0,0.0,390.0,3.0,0.0
7788,72.0,0.0,20.0,12.0,0.0
7789,69.0,0.0,20.0,11.0,0.0
7790,75.0,30.0,20.0,11.0,0.0
7791,52.0,24.0,60.0,13.0,0.0
7792,75.0,0.0,20.0,11.0,0.0
7793,69.0,0.0,20.0,11.0,0.0
7794,52.0,0.0,20.0,8.0,0.0
7795,72.0,6.0,20.0,12.0,0.0
7796,75.0,0.0,20.0,11.0,0.0
7797,39.0,6.0,40.0,14.0,0.0
7798,72.0,0.0,20.0,12.0,0.0
7799,69.0,0.0,20.0,11.0,0.0
7800,51.0,0.0,40.0,13.0,0.0
7801,52.0,24.0,20.0,8.0,0.0
7802,52.0,0.0,20.0,8.0,0.0
7803,75.0,0.0,20.0,11.0,0.0
7804,69.0,30.0,20.0,11.0,0.0
7805,72.0,0.0,20.0,12.0,0.0
7806,75.0,0.0,20.0,11.0,0.0
7807,40.0,6.0,40.0,14.0,0.0
7808,52.0,0.0,40.0,13.0,0.0
7809,72.0,6.0,20.0,12.0,0.0
7810,52.0,0.0,20.0,8.0,0.0
7811,69.0,0.0,20.0,11.0,0.0
7812,72.0,0.0,20.0,12.0,0.0
7813,75.0,0.0,20.0,11.0,0.0
7814,69.0,6.0,20.0,11.0,0.0
7815,77.0,24.0,30.0,10.0,0.0
7816,52.0,0.0,20.0,8.0,0.0
7817,75.0,0.0,20.0,11.0,0.0
7818,69.0,6.0,20.0,11.0,0.0
7819,78.0,18.0,30.0,10.0,0.0
7820,40.0,6.0,40.0,14.0,0.0
7821,52.0,0.0,20.0,8.0,0.0
7822,52.0,0.0,40.0,13.0,0.0
7823,72.0,0.0,20.0,12.0,0.0
7824,69.0,0.0,20.0,11.0,0.0
7825,75.0,0.0,20.0,11.0,0.0
7826,52.0,0.0,20.0,8.0,0.0
7827,72.0,6.0,20.0,12.0,0.0
7828,80.0,24.0,30.0,10.0,0.0
7829,81.0,0.0,40.0,10.0,0.0
7830,75.0,24.0,20.0,11.0,0.0
7831,52.0,0.0,20.0,8.0,0.0
7832,69.0,0.0,20.0,11.0,0.0
7833,40.0,0.0,40.0,14.0,0.0
7834,72.0,0.0,20.0,12.0,0.0
7835,52.0,6.0,40.0,13.0,0.0
7836,52.0,0.0,20.0,8.0,0.0
7837,72.0,0.0,20.0,12.0,0.0
7838,75.0,0.0,20.0,11.0,0.0
7839,69.0,30.0,20.0,11.0,0.0
7840,69.0,0.0,20.0,11.0,0.0
7841,40.0,6.0,40.0,14.0,0.0
7842,52.0,0.0,40.0,13.0,0.0
7843,52.0,24.0,20.0,8.0,0.0
7844,75.0,0.0,20.0,11.0,0.0
7845,72.0,0.0,20.0,12.0,0.0
7846,52.0,0.0,20.0,8.0,0.0
7847,72.0,0.0,20.0,12.0,0.0
7848,75.0,0.0,20.0,11.0,0.0
7849,69.0,30.0,20.0,11.0,0.0
7850,75.0,24.0,20.0,11.0,0.0
7851,52.0,0.0,40.0,13.0,0.0
7852,52.0,0.0,20.0,8.0,0.0
7853,72.0,0.0,20.0,12.0,0.0
7854,40.0,6.0,40.0,14.0,0.0
7855,69.0,0.0,20.0,11.0,0.0
7856,69.0,30.0,20.0,11.0,0.0
7857,52.0,0.0,20.0,8.0,0.0
7858,72.0,0.0,20.0,12.0,0.0
7859,75.0,0.0,20.0,11.0,0.0
7860,40.0,6.0,40.0,14.0,0.0
7861,75.0,24.0,20.0,11.0,0.0
7862,52.0,0.0,20.0,8.0,0.0
7863,52.0,0.0,40.0,13.0,0.0
7864,72.0,0.0,20.0,12.0,0.0
7865,69.0,0.0,20.0,11.0,0.0
7866,52.0,0.0,20.0,8.0,0.0
7867,69.0,30.0,20.0,11.0,0.0
7868,75.0,0.0,20.0,11.0,0.0
7869,72.0,0.0,20.0,12.0,0.0
7870,78.0,0.0,150.0,10.0,0.0
7871,78.0,0.0,390.0,2.0,0.0
7872,64.0,0.0,390.0,5.0,0.0
7873,52.0,0.0,390.0,5.0,0.0
7874,72.0,0.0,390.0,3.0,0.0
7875,40.0,0.0,60.0,14.0,0.0
7876,75.0,24.0,390.0,2.0,0.0
7877,52.0,0.0,20.0,8.0,0.0
7878,75.0,0.0,20.0,11.0,0.0
7879,69.0,0.0,20.0,11.0,0.0
7880,52.0,24.0,60.0,13.0,0.0
7881,72.0,30.0,20.0,12.0,0.0
7882,69.0,0.0,390.0,3.0,0.0
7883,69.0,0.0,20.0,11.0,0.0
7884,75.0,6.0,20.0,11.0,0.0
7885,72.0,0.0,20.0,12.0,0.0
7886,52.0,0.0,20.0,8.0,0.0
7887,52.0,24.0,20.0,8.0,0.0
7888,39.0,6.0,40.0,14.0,0.0
7889,69.0,0.0,20.0,11.0,0.0
7890,75.0,0.0,20.0,11.0,0.0
7891,72.0,0.0,20.0,12.0,0.0
7892,51.0,0.0,40.0,13.0,0.0
7893,69.0,0.0,20.0,11.0,0.0
7894,75.0,0.0,20.0,11.0,0.0
7895,72.0,0.0,20.0,12.0,0.0
7896,52.0,30.0,20.0,8.0,0.0
7897,52.0,6.0,40.0,13.0,0.0
7898,75.0,0.0,20.0,11.0,0.0
7899,69.0,0.0,20.0,11.0,0.0
7900,40.0,0.0,40.0,14.0,0.0
7901,52.0,24.0,20.0,8.0,0.0
7902,72.0,0.0,20.0,12.0,0.0
7903,77.0,0.0,20.0,10.0,0.0
7904,75.0,0.0,20.0,11.0,0.0
7905,72.0,0.0,20.0,12.0,0.0
7906,69.0,30.0,20.0,11.0,0.0
7907,52.0,0.0,20.0,8.0,0.0
7908,40.0,6.0,40.0,14.0,0.0
7909,75.0,0.0,20.0,11.0,0.0
7910,52.0,0.0,20.0,8.0,0.0
7911,78.0,0.0,20.0,10.0,0.0
7912,72.0,24.0,20.0,12.0,0.0
7913,52.0,0.0,40.0,13.0,0.0
7914,69.0,0.0,20.0,11.0,0.0
7915,69.0,0.0,20.0,11.0,0.0
7916,75.0,0.0,20.0,11.0,0.0
7917,80.0,0.0,20.0,10.0,0.0
7918,52.0,30.0,20.0,8.0,0.0
7919,72.0,0.0,20.0,12.0,0.0
7920,40.0,0.0,40.0,14.0,0.0
7921,69.0,0.0,20.0,11.0,0.0
7922,81.0,0.0,40.0,10.0,0.0
7923,72.0,0.0,20.0,12.0,0.0
7924,75.0,24.0,20.0,11.0,0.0
7925,52.0,0.0,20.0,8.0,0.0
7926,52.0,6.0,40.0,13.0,0.0
7927,69.0,0.0,20.0,11.0,0.0
7928,75.0,0.0,20.0,11.0,0.0
7929,52.0,30.0,20.0,8.0,0.0
7930,72.0,0.0,20.0,12.0,0.0
7931,72.0,0.0,20.0,12.0,0.0
7932,52.0,0.0,20.0,8.0,0.0
7933,69.0,0.0,20.0,11.0,0.0
7934,75.0,24.0,20.0,11.0,0.0
7935,52.0,6.0,40.0,13.0,0.0
7936,40.0,0.0,40.0,14.0,0.0
7937,69.0,0.0,20.0,11.0,0.0
7938,75.0,0.0,20.0,11.0,0.0
7939,52.0,0.0,20.0,8.0,0.0
7940,72.0,30.0,20.0,12.0,0.0
7941,52.0,0.0,20.0,8.0,0.0
7942,40.0,6.0,40.0,14.0,0.0
7943,69.0,0.0,20.0,11.0,0.0
7944,75.0,0.0,20.0,11.0,0.0
7945,72.0,0.0,20.0,12.0,0.0
7946,52.0,0.0,40.0,13.0,0.0
7947,75.0,0.0,20.0,11.0,0.0
7948,69.0,30.0,20.0,11.0,0.0
7949,72.0,0.0,20.0,12.0,0.0
7950,52.0,0.0,20.0,8.0,0.0
7951,52.0,6.0,40.0,13.0,0.0
7952,69.0,24.0,20.0,11.0,0.0
7953,40.0,0.0,40.0,14.0,0.0
7954,72.0,0.0,20.0,12.0,0.0
7955,52.0,0.0,20.0,8.0,0.0
7956,75.0,0.0,20.0,11.0,0.0
7957,52.0,0.0,20.0,8.0,0.0
7958,75.0,0.0,20.0,11.0,0.0
7959,72.0,30.0,20.0,12.0,0.0
7960,69.0,0.0,20.0,11.0,0.0
7961,71.0,6.0,20.0,12.0,0.0
7962,59.0,12.0,180.0,4.0,0.0
7963,52.0,0.0,60.0,13.0,0.0
7964,52.0,0.0,20.0,8.0,0.0
7965,52.0,0.0,390.0,5.0,0.0
7966,64.0,0.0,390.0,5.0,0.0
7967,71.0,0.0,180.0,3.0,0.0
7968,74.0,0.0,180.0,3.0,0.0
7969,80.0,0.0,180.0,2.0,0.0
7970,40.0,0.0,60.0,14.0,0.0
7971,76.0,0.0,180.0,2.0,0.0
7972,80.0,24.0,30.0,10.0,0.0
7973,56.0,0.0,180.0,4.0,0.0
7974,74.0,0.0,20.0,11.0,0.0
7975,52.0,6.0,20.0,8.0,0.0
7976,71.0,0.0,20.0,12.0,0.0
7977,78.0,24.0,30.0,10.0,0.0
7978,74.0,0.0,20.0,11.0,0.0
7979,51.0,0.0,40.0,13.0,0.0
7980,39.0,6.0,40.0,14.0,0.0
7981,71.0,0.0,20.0,12.0,0.0
7982,74.0,0.0,20.0,11.0,0.0
7983,80.0,18.0,30.0,10.0,0.0
7984,52.0,6.0,20.0,8.0,0.0
7985,74.0,0.0,20.0,11.0,0.0
7986,71.0,0.0,20.0,12.0,0.0
7987,52.0,0.0,20.0,8.0,0.0
7988,81.0,30.0,20.0,10.0,0.0
7989,68.0,0.0,20.0,12.0,0.0
7990,40.0,0.0,40.0,14.0,0.0
7991,52.0,0.0,20.0,8.0,0.0
7992,52.0,0.0,40.0,13.0,0.0
7993,71.0,24.0,20.0,11.0,0.0
7994,83.0,6.0,40.0,10.0,0.0
7995,52.0,0.0,20.0,8.0,0.0
7996,71.0,0.0,20.0,11.0,0.0
7997,68.0,18.0,20.0,12.0,0.0
7998,71.0,24.0,20.0,11.0,0.0
7999,52.0,0.0,20.0,8.0,0.0
8000,68.0,0.0,20.0,12.0,0.0
8001,52.0,0.0,40.0,13.0,0.0
8002,40.0,6.0,40.0,14.0,0.0
8003,68.0,0.0,20.0,12.0,0.0
8004,71.0,30.0,20.0,11.0,0.0
8005,52.0,0.0,20.0,8.0,0.0
8006,52.0,0.0,20.0,8.0,0.0
8007,56.0,12.0,180.0,4.0,0.0
8008,59.0,0.0,180.0,4.0,0.0
8009,76.0,0.0,180.0,2.0,0.0
8010,80.0,0.0,180.0,2.0,0.0
8011,80.0,24.0,30.0,10.0,0.0
8012,40.0,24.0,60.0,14.0,0.0
8013,74.0,0.0,180.0,3.0,0.0
8014,71.0,0.0,180.0,3.0,0.0
8015,74.0,6.0,20.0,11.0,0.0
8016,71.0,0.0,20.0,12.0,0.0
8017,52.0,0.0,60.0,13.0,0.0
8018,52.0,0.0,20.0,8.0,0.0
8019,78.0,0.0,30.0,10.0,0.0
8020,71.0,6.0,20.0,12.0,0.0
8021,74.0,0.0,20.0,11.0,0.0
8022,52.0,0.0,20.0,8.0,0.0
8023,71.0,0.0,20.0,12.0,0.0
8024,80.0,18.0,30.0,10.0,0.0
8025,51.0,0.0,40.0,13.0,0.0
8026,74.0,6.0,20.0,11.0,0.0
8027,39.0,6.0,40.0,14.0,0.0
8028,81.0,0.0,20.0,10.0,0.0
8029,74.0,30.0,20.0,11.0,0.0
8030,52.0,0.0,20.0,8.0,0.0
8031,71.0,0.0,20.0,12.0,0.0
8032,68.0,0.0,20.0,12.0,0.0
8033,52.0,0.0,40.0,13.0,0.0
8034,83.0,0.0,40.0,10.0,0.0
8035,40.0,6.0,40.0,14.0,0.0
8036,71.0,24.0,20.0,11.0,0.0
8037,52.0,0.0,20.0,8.0,0.0
8038,68.0,0.0,20.0,12.0,0.0
8039,71.0,0.0,20.0,11.0,0.0
8040,52.0,18.0,20.0,8.0,0.0
8041,52.0,0.0,40.0,13.0,0.0
8042,52.0,24.0,20.0,8.0,0.0
8043,40.0,6.0,40.0,14.0,0.0
8044,68.0,0.0,20.0,12.0,0.0
8045,71.0,0.0,20.0,11.0,0.0
8046,71.0,30.0,20.0,11.0,0.0
8047,68.0,0.0,20.0,12.0,0.0
8048,52.0,0.0,20.0,8.0,0.0
8049,76.0,6.0,20.0,11.0,0.0
8050,52.0,0.0,20.0,8.0,0.0
8051,57.0,0.0,180.0,4.0,0.0
8052,64.0,0.0,390.0,5.0,0.0
8053,76.0,0.0,180.0,2.0,0.0
8054,73.0,0.0,20.0,12.0,0.0
8055,81.0,0.0,180.0,2.0,0.0
8056,52.0,0.0,390.0,5.0,0.0
8057,52.0,24.0,60.0,13.0,0.0
8058,73.0,0.0,180.0,3.0,0.0
8059,69.0,0.0,180.0,3.0,0.0
8060,81.0,24.0,30.0,10.0,0.0
8061,61.0,12.0,180.0,4.0,0.0
8062,40.0,0.0,60.0,14.0,0.0
8063,76.0,0.0,20.0,11.0,0.0
8064,80.0,0.0,30.0,10.0,0.0
8065,73.0,6.0,20.0,12.0,0.0
8066,52.0,0.0,20.0,8.0,0.0
8067,52.0,0.0,20.0,8.0,0.0
8068,39.0,0.0,40.0,14.0,0.0
8069,51.0,6.0,40.0,13.0,0.0
8070,73.0,0.0,20.0,12.0,0.0
8071,81.0,18.0,30.0,10.0,0.0
8072,76.0,6.0,20.0,11.0,0.0
8073,83.0,24.0,30.0,10.0,0.0
8074,52.0,0.0,20.0,8.0,0.0
8075,76.0,0.0,20.0,11.0,0.0
8076,73.0,6.0,20.0,12.0,0.0
8077,73.0,0.0,20.0,11.0,0.0
8078,52.0,6.0,40.0,13.0,0.0
8079,52.0,0.0,20.0,8.0,0.0
8080,69.0,24.0,20.0,12.0,0.0
8081,85.0,0.0,40.0,10.0,0.0
8082,40.0,0.0,40.0,14.0,0.0
8083,69.0,0.0,20.0,12.0,0.0
8084,73.0,0.0,20.0,11.0,0.0
8085,52.0,18.0,20.0,8.0,0.0
8086,73.0,0.0,20.0,11.0,0.0
8087,52.0,24.0,20.0,8.0,0.0
8088,52.0,0.0,40.0,13.0,0.0
8089,40.0,6.0,40.0,14.0,0.0
8090,69.0,0.0,20.0,12.0,0.0
8091,73.0,30.0,20.0,11.0,0.0
8092,69.0,0.0,20.0,12.0,0.0
8093,52.0,0.0,20.0,8.0,0.0
8094,73.0,0.0,180.0,3.0,0.0
8095,57.0,0.0,180.0,4.0,0.0
8096,61.0,0.0,180.0,4.0,0.0
8097,69.0,12.0,180.0,3.0,0.0
8098,81.0,24.0,30.0,10.0,0.0
8099,52.0,0.0,60.0,13.0,0.0
8100,76.0,0.0,20.0,11.0,0.0
8101,76.0,0.0,180.0,2.0,0.0
8102,81.0,0.0,180.0,2.0,0.0
8103,52.0,6.0,20.0,8.0,0.0
8104,73.0,0.0,20.0,12.0,0.0
8105,40.0,24.0,60.0,14.0,0.0
8106,80.0,0.0,30.0,10.0,0.0
8107,73.0,0.0,20.0,12.0,0.0
8108,76.0,0.0,20.0,11.0,0.0
8109,52.0,6.0,20.0,8.0,0.0
8110,39.0,0.0,40.0,14.0,0.0
8111,73.0,6.0,20.0,12.0,0.0
8112,51.0,6.0,40.0,13.0,0.0
8113,52.0,0.0,20.0,8.0,0.0
8114,76.0,0.0,20.0,11.0,0.0
8115,81.0,18.0,30.0,10.0,0.0
8116,52.0,0.0,20.0,8.0,0.0
8117,76.0,0.0,20.0,11.0,0.0
8118,73.0,6.0,20.0,12.0,0.0
8119,83.0,24.0,30.0,10.0,0.0
8120,52.0,0.0,40.0,13.0,0.0
8121,85.0,6.0,40.0,10.0,0.0
8122,69.0,24.0,20.0,12.0,0.0
8123,73.0,0.0,20.0,11.0,0.0
8124,52.0,0.0,20.0,8.0,0.0
8125,40.0,0.0,40.0,14.0,0.0
8126,69.0,18.0,20.0,12.0,0.0
8127,52.0,0.0,20.0,8.0,0.0
8128,73.0,0.0,20.0,11.0,0.0
8129,52.0,0.0,20.0,8.0,0.0
8130,73.0,0.0,20.0,11.0,0.0
8131,69.0,24.0,20.0,12.0,0.0
8132,40.0,6.0,40.0,14.0,0.0
8133,52.0,0.0,40.0,13.0,0.0
8134,52.0,26.0,20.0,8.0,0.0
8135,69.0,0.0,20.0,12.0,0.0
8136,73.0,0.0,20.0,11.0,0.0
8137,59.0,0.0,180.0,4.0,0.0
8138,64.0,0.0,40.0,12.0,0.0
8139,80.0,6.0,20.0,11.0,0.0
8140,83.0,0.0,180.0,2.0,0.0
8141,56.0,8.0,180.0,4.0,0.0
8142,80.0,0.0,180.0,2.0,0.0
8143,71.0,0.0,180.0,3.0,0.0
8144,52.0,0.0,20.0,8.0,0.0
8145,68.0,0.0,180.0,3.0,0.0
8146,83.0,10.0,30.0,10.0,0.0
8147,40.0,6.0,40.0,14.0,0.0
8148,88.0,4.0,20.0,1.0,0.0
8149,64.0,4.0,570.0,5.0,0.0
8150,52.0,0.0,570.0,5.0,0.0
8151,52.0,0.0,40.0,13.0,0.0
8152,90.0,0.0,20.0,1.0,0.0
8153,81.0,0.0,30.0,10.0,0.0
8154,79.0,6.0,20.0,11.0,0.0
8155,88.0,20.0,20.0,1.0,0.0
8156,52.0,8.0,15.0,8.0,0.0
8157,84.0,10.0,30.0,10.0,0.0
8158,52.0,0.0,15.0,8.0,0.0
8159,51.0,6.0,40.0,13.0,0.0
8160,80.0,6.0,20.0,11.0,0.0
8161,39.0,0.0,40.0,14.0,0.0
8162,90.0,0.0,20.0,1.0,0.0
8163,63.0,0.0,40.0,12.0,0.0
8164,88.0,0.0,20.0,1.0,0.0
8165,52.0,4.0,15.0,8.0,0.0
8166,85.0,0.0,30.0,10.0,0.0
8167,81.0,6.0,20.0,11.0,0.0
8168,90.0,0.0,20.0,1.0,0.0
8169,52.0,8.0,15.0,8.0,0.0
8170,80.0,0.0,40.0,11.0,0.0
8171,64.0,0.0,40.0,12.0,0.0
8172,52.0,0.0,40.0,13.0,0.0
8173,88.0,20.0,20.0,1.0,0.0
8174,52.0,20.0,15.0,8.0,0.0
8175,86.0,0.0,40.0,10.0,0.0
8176,40.0,12.0,40.0,14.0,0.0
8177,52.0,0.0,15.0,8.0,0.0
8178,90.0,8.0,20.0,1.0,0.0
8179,88.0,0.0,20.0,1.0,0.0
8180,52.0,12.0,15.0,8.0,0.0
8181,83.0,0.0,40.0,11.0,0.0
8182,90.0,0.0,20.0,1.0,0.0
8183,40.0,12.0,40.0,14.0,0.0
8184,64.0,0.0,40.0,12.0,0.0
8185,52.0,0.0,40.0,13.0,0.0
8186,88.0,0.0,20.0,1.0,0.0
8187,52.0,8.0,15.0,8.0,0.0
8188,90.0,20.0,20.0,1.0,0.0
8189,81.0,6.0,20.0,11.0,0.0
8190,52.0,0.0,40.0,13.0,0.0
8191,88.0,4.0,20.0,1.0,0.0
8192,69.0,0.0,180.0,3.0,0.0
8193,61.0,0.0,180.0,4.0,0.0
8194,85.0,10.0,30.0,10.0,0.0
8195,85.0,4.0,180.0,2.0,0.0
8196,40.0,0.0,40.0,14.0,0.0
8197,57.0,0.0,180.0,4.0,0.0
8198,81.0,0.0,180.0,2.0,0.0
8199,73.0,0.0,180.0,3.0,0.0
8200,64.0,6.0,40.0,12.0,0.0
8201,52.0,0.0,15.0,8.0,0.0
8202,90.0,0.0,20.0,1.0,0.0
8203,80.0,6.0,20.0,11.0,0.0
8204,84.0,0.0,30.0,10.0,0.0
8205,88.0,20.0,20.0,1.0,0.0
8206,52.0,8.0,15.0,8.0,0.0
8207,63.0,6.0,40.0,12.0,0.0
8208,85.0,6.0,30.0,10.0,0.0
8209,52.0,0.0,20.0,8.0,0.0
8210,39.0,0.0,40.0,14.0,0.0
8211,81.0,6.0,20.0,11.0,0.0
8212,90.0,4.0,20.0,1.0,0.0
8213,51.0,0.0,40.0,13.0,0.0
8214,52.0,4.0,15.0,8.0,0.0
8215,88.0,8.0,20.0,1.0,0.0
8216,86.0,16.0,30.0,10.0,0.0
8217,83.0,2.0,20.0,11.0,0.0
8218,90.0,0.0,20.0,1.0,0.0
8219,52.0,4.0,15.0,8.0,0.0
8220,64.0,0.0,40.0,12.0,0.0
8221,40.0,8.0,40.0,14.0,0.0
8222,52.0,4.0,15.0,8.0,0.0
8223,88.0,16.0,20.0,1.0,0.0
8224,88.0,0.0,40.0,10.0,0.0
8225,52.0,0.0,40.0,13.0,0.0
8226,85.0,0.0,40.0,11.0,0.0
8227,90.0,8.0,20.0,1.0,0.0
8228,52.0,4.0,15.0,8.0,0.0
8229,88.0,12.0,20.0,1.0,0.0
8230,52.0,4.0,15.0,8.0,0.0
8231,52.0,4.0,15.0,8.0,0.0
8232,64.0,0.0,40.0,12.0,0.0
8233,90.0,16.0,20.0,1.0,0.0
8234,81.0,0.0,40.0,11.0,0.0
8235,40.0,8.0,40.0,14.0,0.0
8236,52.0,0.0,40.0,13.0,0.0
8237,88.0,8.0,20.0,1.0,0.0
8238,52.0,4.0,15.0,8.0,0.0
8239,90.0,20.0,20.0,1.0,0.0
8240,52.0,4.0,15.0,8.0,0.0
8241,88.0,0.0,20.0,1.0,0.0
8242,76.0,0.0,390.0,7.0,0.0
8243,59.0,0.0,40.0,4.0,0.0
8244,62.0,0.0,40.0,4.0,0.0
8245,52.0,0.0,40.0,13.0,0.0
8246,86.0,0.0,60.0,2.0,0.0
8247,83.0,0.0,60.0,2.0,0.0
8248,88.0,0.0,390.0,0.0,0.0
8249,40.0,6.0,40.0,14.0,0.0
8250,74.0,0.0,60.0,3.0,0.0
8251,86.0,0.0,20.0,10.0,0.0
8252,83.0,16.0,20.0,11.0,0.0
8253,71.0,0.0,20.0,12.0,0.0
8254,71.0,0.0,60.0,3.0,0.0
8255,64.0,0.0,390.0,7.0,0.0
8256,90.0,0.0,20.0,1.0,0.0
8257,52.0,4.0,15.0,8.0,0.0
8258,76.0,0.0,20.0,12.0,0.0
8259,86.0,0.0,20.0,10.0,0.0
8260,83.0,6.0,20.0,11.0,0.0
8261,88.0,0.0,20.0,1.0,0.0
8262,52.0,8.0,15.0,8.0,0.0
8263,90.0,0.0,20.0,1.0,0.0
8264,76.0,0.0,20.0,12.0,0.0
8265,73.0,0.0,40.0,3.0,0.0
8266,81.0,0.0,20.0,11.0,0.0
8267,70.0,0.0,40.0,3.0,0.0
8268,52.0,0.0,40.0,14.0,0.0
8269,85.0,12.0,20.0,10.0,0.0
8270,58.0,0.0,40.0,4.0,0.0
8271,61.0,0.0,40.0,4.0,0.0
8272,64.0,6.0,40.0,13.0,0.0
8273,85.0,0.0,40.0,2.0,0.0
8274,82.0,0.0,40.0,2.0,0.0
8275,52.0,20.0,15.0,8.0,0.0
8276,88.0,8.0,20.0,1.0,0.0
8277,76.0,6.0,20.0,12.0,0.0
8278,85.0,0.0,20.0,10.0,0.0
8279,81.0,0.0,20.0,11.0,0.0
8280,52.0,0.0,15.0,8.0,0.0
8281,90.0,0.0,20.0,1.0,0.0
8282,74.0,0.0,40.0,3.0,0.0
8283,71.0,0.0,40.0,3.0,0.0
8284,59.0,0.0,40.0,4.0,0.0
8285,62.0,6.0,40.0,4.0,0.0
8286,76.0,0.0,20.0,12.0,0.0
8287,76.0,8.0,180.0,5.0,0.0
8288,88.0,0.0,20.0,1.0,0.0
8289,86.0,4.0,40.0,2.0,0.0
8290,64.0,0.0,40.0,13.0,0.0
8291,83.0,0.0,40.0,2.0,0.0
8292,64.0,0.0,180.0,5.0,0.0
8293,83.0,12.0,20.0,11.0,0.0
8294,52.0,0.0,40.0,14.0,0.0
8295,86.0,0.0,20.0,10.0,0.0
8296,90.0,8.0,20.0,1.0,0.0
8297,52.0,4.0,15.0,8.0,0.0
8298,83.0,0.0,20.0,11.0,0.0
8299,76.0,0.0,20.0,12.0,0.0
8300,86.0,6.0,20.0,10.0,0.0
8301,88.0,20.0,20.0,1.0,0.0
8302,76.0,0.0,40.0,3.0,0.0
8303,64.0,6.0,40.0,13.0,0.0
8304,85.0,0.0,20.0,11.0,0.0
8305,52.0,0.0,15.0,8.0,0.0
8306,61.0,0.0,40.0,4.0,0.0
8307,64.0,0.0,40.0,4.0,0.0
8308,88.0,0.0,20.0,10.0,0.0
8309,90.0,0.0,20.0,1.0,0.0
8310,73.0,4.0,40.0,3.0,0.0
8311,88.0,0.0,40.0,2.0,0.0
8312,85.0,0.0,40.0,2.0,0.0
8313,76.0,12.0,20.0,12.0,0.0
8314,52.0,0.0,40.0,14.0,0.0
8315,88.0,0.0,20.0,1.0,0.0
8316,52.0,4.0,15.0,8.0,0.0
8317,85.0,0.0,20.0,11.0,0.0
8318,76.0,6.0,20.0,12.0,0.0
8319,88.0,0.0,20.0,10.0,0.0
8320,90.0,0.0,20.0,1.0,0.0
8321,52.0,20.0,20.0,8.0,0.0
8322,86.0,0.0,40.0,2.0,0.0
8323,86.0,12.0,20.0,11.0,0.0
8324,76.0,0.0,20.0,12.0,0.0
8325,78.0,0.0,40.0,3.0,0.0
8326,88.0,4.0,20.0,1.0,0.0
8327,90.0,4.0,40.0,2.0,0.0
8328,64.0,0.0,40.0,13.0,0.0
8329,74.0,0.0,40.0,3.0,0.0
8330,62.0,0.0,40.0,4.0,0.0
8331,52.0,6.0,40.0,14.0,0.0
8332,66.0,0.0,40.0,4.0,0.0
8333,90.0,0.0,20.0,10.0,0.0
8334,52.0,0.0,20.0,8.0,0.0
8335,90.0,0.0,20.0,1.0,0.0
8336,52.0,8.0,20.0,8.0,0.0
8337,90.0,0.0,20.0,10.0,0.0
8338,76.0,6.0,20.0,12.0,0.0
8339,86.0,0.0,20.0,11.0,0.0
8340,88.0,0.0,20.0,1.0,0.0
8341,80.0,0.0,40.0,2.0,0.0
8342,76.0,0.0,40.0,2.0,0.0
8343,68.0,0.0,40.0,4.0,0.0
8344,64.0,0.0,40.0,4.0,0.0
8345,64.0,0.0,40.0,13.0,0.0
8346,76.0,0.0,20.0,12.0,0.0
8347,92.0,0.0,20.0,10.0,0.0
8348,88.0,12.0,20.0,11.0,0.0
8349,80.0,0.0,40.0,3.0,0.0
8350,76.0,0.0,40.0,3.0,0.0
8351,52.0,12.0,15.0,8.0,0.0
8352,90.0,0.0,20.0,1.0,0.0
8353,52.0,6.0,40.0,14.0,0.0
8354,52.0,4.0,15.0,8.0,0.0
8355,88.0,8.0,20.0,1.0,0.0
8356,92.0,0.0,20.0,10.0,0.0
8357,88.0,2.0,20.0,11.0,0.0
8358,76.0,0.0,20.0,12.0,0.0
8359,90.0,0.0,15.0,1.0,0.0
8360,52.0,20.0,15.0,8.0,0.0
8361,52.0,8.0,15.0,8.0,0.0
8362,64.0,0.0,40.0,13.0,0.0
8363,69.0,0.0,40.0,4.0,0.0
8364,93.0,0.0,20.0,10.0,0.0
8365,90.0,0.0,20.0,11.0,0.0
8366,66.0,6.0,40.0,4.0,0.0
8367,81.0,12.0,40.0,3.0,0.0
8368,76.0,12.0,20.0,12.0,0.0
8369,76.0,0.0,90.0,5.0,0.0
8370,78.0,0.0,40.0,2.0,0.0
8371,81.0,0.0,40.0,2.0,0.0
8372,90.0,0.0,20.0,1.0,0.0
8373,78.0,0.0,40.0,3.0,0.0
8374,52.0,0.0,40.0,14.0,0.0
8375,64.0,0.0,90.0,5.0,0.0
8376,52.0,0.0,15.0,8.0,0.0
8377,93.0,0.0,20.0,10.0,0.0
8378,90.0,0.0,20.0,11.0,0.0
8379,92.0,2.0,20.0,1.0,0.0
8380,76.0,0.0,20.0,12.0,0.0
8381,52.0,20.0,15.0,8.0,0.0
8382,52.0,6.0,40.0,14.0,0.0
8383,80.0,0.0,40.0,3.0,0.0
8384,83.0,0.0,40.0,3.0,0.0
8385,88.0,8.0,15.0,0.0,0.0
8386,76.0,0.0,20.0,12.0,0.0
8387,52.0,0.0,15.0,8.0,0.0
8388,85.0,0.0,40.0,2.0,0.0
8389,81.0,0.0,40.0,2.0,0.0
8390,93.0,0.0,20.0,1.0,0.0
8391,68.0,0.0,40.0,4.0,0.0
8392,71.0,0.0,40.0,4.0,0.0
8393,64.0,0.0,40.0,13.0,0.0
8394,95.0,12.0,20.0,10.0,0.0
8395,92.0,0.0,20.0,11.0,0.0
8396,52.0,0.0,15.0,8.0,0.0
8397,90.0,12.0,15.0,0.0,0.0
8398,76.0,0.0,20.0,12.0,0.0
8399,95.0,2.0,20.0,1.0,0.0
8400,92.0,0.0,20.0,11.0,0.0
8401,95.0,0.0,20.0,10.0,0.0
8402,52.0,28.0,15.0,8.0,0.0
8403,92.0,0.0,15.0,0.0,0.0
8404,81.0,0.0,300.0,7.0,0.0
8405,57.0,6.0,300.0,13.0,0.0
8406,81.0,0.0,300.0,3.0,0.0
8407,69.0,0.0,300.0,7.0,0.0
8408,76.0,0.0,20.0,12.0,0.0
8409,45.0,18.0,90.0,8.0,0.0
8410,85.0,0.0,300.0,3.0,0.0
8411,93.0,0.0,300.0,0.0,0.0
8412,93.0,0.0,20.0,11.0,0.0
8413,45.0,0.0,300.0,14.0,0.0
8414,97.0,30.0,20.0,10.0,0.0
8415,73.0,0.0,300.0,5.0,0.0
8416,85.0,0.0,300.0,2.0,0.0
8417,69.0,0.0,300.0,5.0,0.0
8418,69.0,0.0,300.0,4.0,0.0
8419,73.0,24.0,300.0,4.0,0.0
8420,69.0,0.0,300.0,6.0,0.0
8421,73.0,0.0,300.0,6.0,0.0
8422,81.0,0.0,300.0,2.0,0.0
8423,97.0,0.0,300.0,1.0,0.0
8424,93.0,0.0,20.0,11.0,0.0
8425,97.0,0.0,20.0,10.0,0.0
8426,76.0,30.0,20.0,12.0,0.0
8427,97.0,0.0,20.0,10.0,0.0
8428,76.0,12.0,20.0,12.0,0.0
8429,93.0,0.0,20.0,11.0,0.0
8430,93.0,0.0,20.0,11.0,0.0
8431,97.0,30.0,20.0,10.0,0.0
8432,76.0,0.0,20.0,12.0,0.0
8433,93.0,0.0,20.0,11.0,0.0
8434,97.0,0.0,20.0,10.0,0.0
8435,76.0,30.0,20.0,12.0,0.0
8436,93.0,0.0,20.0,11.0,0.0
8437,97.0,0.0,20.0,10.0,0.0
8438,76.0,30.0,20.0,12.0,0.0
8439,93.0,0.0,20.0,11.0,0.0
8440,76.0,0.0,20.0,12.0,0.0
8441,97.0,30.0,20.0,10.0,0.0
8442,93.0,30.0,20.0,11.0,0.0
8443,97.0,0.0,20.0,10.0,0.0
8444,76.0,0.0,20.0,12.0,0.0
8445,97.0,0.0,20.0,10.0,0.0
8446,93.0,0.0,20.0,11.0,0.0
8447,76.0,24.0,20.0,12.0,0.0
8448,76.0,0.0,20.0,12.0,0.0
8449,97.0,0.0,20.0,10.0,0.0
8450,93.0,6.0,20.0,11.0,0.0
8451,80.0,0.0,40.0,3.0,0.0
8452,83.0,12.0,40.0,3.0,0.0
8453,71.0,0.0,40.0,4.0,0.0
8454,76.0,0.0,40.0,7.0,0.0
8455,83.0,0.0,40.0,2.0,0.0
8456,80.0,0.0,40.0,2.0,0.0
8457,95.0,0.0,40.0,1.0,0.0
8458,76.0,0.0,20.0,12.0,0.0
8459,71.0,6.0,40.0,5.0,0.0
8460,95.0,0.0,20.0,10.0,0.0
8461,64.0,0.0,40.0,5.0,0.0
8462,52.0,0.0,40.0,13.0,0.0
8463,64.0,0.0,40.0,4.0,0.0
8464,92.0,12.0,20.0,11.0,0.0
8465,92.0,0.0,40.0,0.0,0.0
8466,40.0,0.0,40.0,14.0,0.0
8467,76.0,0.0,20.0,12.0,0.0
8468,95.0,0.0,20.0,10.0,0.0
8469,92.0,30.0,20.0,11.0,0.0
8470,37.0,0.0,40.0,14.0,0.0
8471,93.0,0.0,20.0,10.0,0.0
8472,93.0,0.0,40.0,1.0,0.0
8473,81.0,0.0,40.0,2.0,0.0
8474,76.0,0.0,40.0,2.0,0.0
8475,88.0,0.0,20.0,11.0,0.0
8476,61.0,0.0,40.0,5.0,0.0
8477,69.0,6.0,40.0,5.0,0.0
8478,73.0,0.0,40.0,7.0,0.0
8479,69.0,0.0,40.0,4.0,0.0
8480,61.0,0.0,40.0,4.0,0.0
8481,81.0,12.0,40.0,3.0,0.0
8482,76.0,0.0,40.0,3.0,0.0
8483,88.0,0.0,40.0,0.0,0.0
8484,49.0,0.0,40.0,13.0,0.0
8485,76.0,12.0,20.0,12.0,0.0
8486,88.0,30.0,20.0,11.0,0.0
8487,76.0,0.0,20.0,12.0,0.0
8488,93.0,0.0,20.0,10.0,0.0
8489,80.0,0.0,40.0,2.0,0.0
8490,71.0,0.0,40.0,4.0,0.0
8491,92.0,0.0,40.0,0.0,0.0
8492,64.0,6.0,40.0,4.0,0.0
8493,76.0,12.0,20.0,12.0,0.0
8494,71.0,0.0,40.0,5.0,0.0
8495,52.0,0.0,40.0,13.0,0.0
8496,95.0,0.0,20.0,10.0,0.0
8497,64.0,0.0,40.0,5.0,0.0
8498,83.0,12.0,40.0,3.0,0.0
8499,40.0,0.0,40.0,14.0,0.0
8500,83.0,0.0,40.0,2.0,0.0
8501,80.0,0.0,40.0,3.0,0.0
8502,95.0,0.0,40.0,1.0,0.0
8503,76.0,0.0,40.0,7.0,0.0
8504,92.0,0.0,20.0,11.0,0.0
8505,76.0,30.0,20.0,12.0,0.0
8506,95.0,0.0,20.0,10.0,0.0
8507,92.0,0.0,20.0,11.0,0.0
8508,73.0,0.0,300.0,5.0,0.0
8509,69.0,24.0,300.0,5.0,0.0
8510,97.0,0.0,300.0,1.0,0.0
8511,73.0,0.0,300.0,4.0,0.0
8512,45.0,18.0,90.0,8.0,0.0
8513,57.0,6.0,300.0,13.0,0.0
8514,76.0,0.0,20.0,12.0,0.0
8515,69.0,0.0,300.0,6.0,0.0
8516,97.0,0.0,20.0,10.0,0.0
8517,81.0,0.0,300.0,7.0,0.0
8518,85.0,0.0,300.0,2.0,0.0
8519,81.0,0.0,300.0,2.0,0.0
8520,93.0,0.0,300.0,0.0,0.0
8521,45.0,0.0,300.0,14.0,0.0
8522,69.0,0.0,300.0,4.0,0.0
8523,73.0,0.0,300.0,6.0,0.0
8524,69.0,0.0,300.0,7.0,0.0
8525,81.0,0.0,300.0,3.0,0.0
8526,85.0,0.0,300.0,3.0,0.0
8527,93.0,30.0,20.0,11.0,0.0
8528,76.0,30.0,20.0,12.0,0.0
8529,93.0,0.0,20.0,11.0,0.0
8530,97.0,0.0,20.0,10.0,0.0
8531,76.0,0.0,20.0,12.0,0.0
8532,93.0,0.0,20.0,11.0,0.0
8533,97.0,12.0,20.0,10.0,0.0
8534,93.0,0.0,20.0,11.0,0.0
8535,97.0,30.0,20.0,10.0,0.0
8536,76.0,0.0,20.0,12.0,0.0
8537,76.0,0.0,20.0,12.0,0.0
8538,93.0,30.0,20.0,11.0,0.0
8539,97.0,0.0,20.0,10.0,0.0
8540,97.0,30.0,20.0,10.0,0.0
8541,93.0,0.0,20.0,11.0,0.0
8542,76.0,0.0,20.0,12.0,0.0
8543,76.0,0.0,20.0,12.0,0.0
8544,97.0,30.0,20.0,10.0,0.0
8545,93.0,0.0,20.0,11.0,0.0
8546,76.0,0.0,20.0,12.0,0.0
8547,93.0,0.0,20.0,11.0,0.0
8548,97.0,30.0,20.0,10.0,0.0
8549,93.0,0.0,20.0,11.0,0.0
8550,76.0,0.0,20.0,12.0,0.0
8551,97.0,24.0,20.0,10.0,0.0
8552,76.0,0.0,20.0,12.0,0.0
8553,93.0,6.0,20.0,11.0,0.0
8554,97.0,0.0,20.0,10.0,0.0
8555,83.0,0.0,40.0,2.0,0.0
8556,80.0,12.0,40.0,2.0,0.0
8557,71.0,0.0,40.0,4.0,0.0
8558,76.0,0.0,40.0,7.0,0.0
8559,76.0,0.0,20.0,12.0,0.0
8560,95.0,0.0,40.0,1.0,0.0
8561,64.0,0.0,40.0,4.0,0.0
8562,83.0,0.0,40.0,3.0,0.0
8563,92.0,0.0,20.0,11.0,0.0
8564,40.0,0.0,40.0,14.0,0.0
8565,80.0,0.0,40.0,3.0,0.0
8566,52.0,0.0,40.0,13.0,0.0
8567,92.0,0.0,40.0,0.0,0.0
8568,95.0,12.0,20.0,10.0,0.0
8569,71.0,6.0,40.0,5.0,0.0
8570,64.0,0.0,40.0,5.0,0.0
8571,76.0,0.0,20.0,12.0,0.0
8572,92.0,30.0,20.0,11.0,0.0
8573,95.0,0.0,20.0,10.0,0.0
8574,37.0,0.0,40.0,14.0,0.0
8575,69.0,6.0,40.0,4.0,0.0
8576,61.0,0.0,40.0,4.0,0.0
8577,88.0,0.0,20.0,11.0,0.0
8578,93.0,0.0,20.0,10.0,0.0
8579,49.0,0.0,40.0,13.0,0.0
8580,88.0,0.0,40.0,0.0,0.0
8581,73.0,0.0,40.0,7.0,0.0
8582,61.0,0.0,40.0,5.0,0.0
8583,81.0,0.0,40.0,3.0,0.0
8584,76.0,0.0,40.0,2.0,0.0
8585,81.0,12.0,40.0,2.0,0.0
8586,76.0,0.0,40.0,3.0,0.0
8587,93.0,0.0,40.0,1.0,0.0
8588,69.0,0.0,40.0,5.0,0.0
8589,76.0,12.0,20.0,12.0,0.0
8590,88.0,0.0,20.0,11.0,0.0
8591,93.0,30.0,20.0,10.0,0.0
8592,76.0,0.0,20.0,12.0,0.0
8593,83.0,0.0,40.0,2.0,0.0
8594,52.0,0.0,40.0,13.0,0.0
8595,76.0,6.0,40.0,7.0,0.0
8596,76.0,0.0,20.0,12.0,0.0
8597,40.0,0.0,40.0,14.0,0.0
8598,71.0,0.0,40.0,5.0,0.0
8599,64.0,0.0,40.0,5.0,0.0
8600,80.0,12.0,40.0,2.0,0.0
8601,95.0,0.0,20.0,10.0,0.0
8602,64.0,0.0,40.0,4.0,0.0
8603,95.0,0.0,40.0,1.0,0.0
8604,80.0,0.0,40.0,3.0,0.0
8605,83.0,0.0,40.0,3.0,0.0
8606,71.0,0.0,40.0,4.0,0.0
8607,92.0,12.0,20.0,11.0,0.0
8608,92.0,0.0,40.0,0.0,0.0
8609,95.0,0.0,20.0,10.0,0.0
8610,76.0,30.0,20.0,12.0,0.0
8611,92.0,0.0,20.0,11.0,0.0
8612,81.0,0.0,60.0,2.0,0.0
8613,81.0,6.0,40.0,7.0,0.0
8614,73.0,0.0,40.0,5.0,0.0
8615,85.0,0.0,60.0,2.0,0.0
8616,69.0,0.0,40.0,5.0,0.0
8617,97.0,0.0,60.0,1.0,0.0
8618,97.0,0.0,20.0,10.0,0.0
8619,57.0,24.0,60.0,13.0,0.0
8620,81.0,0.0,60.0,3.0,0.0
8621,93.0,24.0,20.0,11.0,0.0
8622,69.0,0.0,40.0,7.0,0.0
8623,69.0,0.0,90.0,6.0,0.0
8624,85.0,0.0,60.0,3.0,0.0
8625,73.0,0.0,60.0,4.0,0.0
8626,69.0,0.0,60.0,4.0,0.0
8627,45.0,12.0,90.0,8.0,0.0
8628,45.0,0.0,60.0,14.0,0.0
8629,73.0,0.0,90.0,6.0,0.0
8630,76.0,0.0,20.0,12.0,0.0
8631,93.0,0.0,60.0,0.0,0.0
8632,76.0,0.0,20.0,12.0,0.0
8633,97.0,6.0,20.0,10.0,0.0
8634,93.0,0.0,20.0,11.0,0.0
8635,71.0,0.0,40.0,4.0,0.0
8636,76.0,0.0,40.0,7.0,0.0
8637,64.0,6.0,40.0,5.0,0.0
8638,71.0,0.0,40.0,5.0,0.0
8639,80.0,0.0,40.0,2.0,0.0
8640,80.0,0.0,40.0,3.0,0.0
8641,92.0,12.0,20.0,11.0,0.0
8642,95.0,0.0,20.0,10.0,0.0
8643,83.0,0.0,40.0,3.0,0.0
8644,83.0,0.0,40.0,2.0,0.0
8645,40.0,0.0,40.0,14.0,0.0
8646,76.0,0.0,20.0,12.0,0.0
8647,64.0,0.0,40.0,4.0,0.0
8648,92.0,0.0,40.0,0.0,0.0
8649,95.0,0.0,40.0,1.0,0.0
8650,52.0,0.0,40.0,13.0,0.0
8651,92.0,0.0,20.0,11.0,0.0
8652,76.0,0.0,20.0,12.0,0.0
8653,95.0,30.0,20.0,10.0,0.0
8654,88.0,24.0,20.0,11.0,0.0
8655,73.0,0.0,40.0,7.0,0.0
8656,76.0,0.0,20.0,12.0,0.0
8657,61.0,0.0,40.0,4.0,0.0
8658,93.0,0.0,20.0,10.0,0.0
8659,93.0,0.0,40.0,1.0,0.0
8660,61.0,0.0,40.0,5.0,0.0
8661,69.0,0.0,40.0,4.0,0.0
8662,81.0,0.0,40.0,2.0,0.0
8663,49.0,0.0,40.0,13.0,0.0
8664,76.0,0.0,40.0,3.0,0.0
8665,37.0,0.0,40.0,14.0,0.0
8666,76.0,0.0,40.0,2.0,0.0
8667,81.0,0.0,40.0,3.0,0.0
8668,69.0,6.0,40.0,5.0,0.0
8669,88.0,0.0,40.0,0.0,0.0
8670,76.0,30.0,20.0,12.0,0.0
8671,88.0,0.0,20.0,11.0,0.0
8672,93.0,0.0,20.0,10.0,0.0
8673,83.0,0.0,40.0,2.0,0.0
8674,80.0,0.0,40.0,3.0,0.0
8675,95.0,0.0,20.0,10.0,0.0
8676,83.0,0.0,40.0,3.0,0.0
8677,71.0,0.0,40.0,5.0,0.0
8678,80.0,0.0,40.0,2.0,0.0
8679,95.0,0.0,40.0,1.0,0.0
8680,64.0,0.0,40.0,5.0,0.0
8681,76.0,24.0,20.0,12.0,0.0
8682,92.0,0.0,40.0,0.0,0.0
8683,71.0,0.0,40.0,4.0,0.0
8684,64.0,0.0,40.0,4.0,0.0
8685,40.0,0.0,40.0,14.0,0.0
8686,52.0,6.0,40.0,13.0,0.0
8687,76.0,0.0,40.0,7.0,0.0
8688,92.0,0.0,20.0,11.0,0.0
8689,95.0,0.0,20.0,10.0,0.0
8690,92.0,30.0,20.0,11.0,0.0
8691,76.0,0.0,20.0,12.0,0.0
8692,93.0,0.0,60.0,0.0,0.0
8693,69.0,0.0,90.0,6.0,0.0
8694,97.0,0.0,60.0,1.0,0.0
8695,97.0,0.0,20.0,10.0,0.0
8696,45.0,0.0,60.0,14.0,0.0
8697,81.0,0.0,60.0,2.0,0.0
8698,85.0,0.0,60.0,2.0,0.0
8699,73.0,0.0,40.0,5.0,0.0
8700,81.0,0.0,40.0,7.0,0.0
8701,69.0,6.0,40.0,7.0,0.0
8702,57.0,24.0,60.0,13.0,0.0
8703,73.0,12.0,90.0,6.0,0.0
8704,69.0,0.0,40.0,5.0,0.0
8705,45.0,0.0,90.0,8.0,0.0
8706,85.0,0.0,60.0,3.0,0.0
8707,69.0,0.0,60.0,4.0,0.0
8708,73.0,0.0,60.0,4.0,0.0
8709,76.0,24.0,20.0,12.0,0.0
8710,81.0,0.0,60.0,3.0,0.0
8711,93.0,0.0,20.0,11.0,0.0
8712,97.0,6.0,20.0,10.0,0.0
8713,93.0,0.0,20.0,11.0,0.0
8714,76.0,0.0,20.0,12.0,0.0
8715,71.0,0.0,40.0,5.0,0.0
8716,64.0,0.0,40.0,5.0,0.0
8717,92.0,6.0,40.0,0.0,0.0
8718,92.0,0.0,20.0,11.0,0.0
8719,83.0,0.0,40.0,2.0,0.0
8720,76.0,0.0,40.0,7.0,0.0
8721,80.0,0.0,40.0,3.0,0.0
8722,83.0,0.0,40.0,3.0,0.0
8723,52.0,0.0,40.0,13.0,0.0
8724,80.0,0.0,40.0,2.0,0.0
8725,95.0,0.0,20.0,10.0,0.0
8726,40.0,0.0,40.0,14.0,0.0
8727,76.0,12.0,20.0,12.0,0.0
8728,95.0,0.0,40.0,1.0,0.0
8729,71.0,0.0,40.0,4.0,0.0
8730,64.0,0.0,40.0,4.0,0.0
8731,76.0,30.0,20.0,12.0,0.0
8732,95.0,0.0,20.0,10.0,0.0
8733,92.0,0.0,20.0,11.0,0.0
8734,81.0,0.0,40.0,2.0,0.0
8735,61.0,0.0,40.0,4.0,0.0
8736,37.0,0.0,40.0,14.0,0.0
8737,69.0,0.0,40.0,4.0,0.0
8738,76.0,0.0,20.0,12.0,0.0
8739,88.0,0.0,40.0,0.0,0.0
8740,88.0,24.0,20.0,11.0,0.0
8741,76.0,0.0,40.0,2.0,0.0
8742,61.0,0.0,40.0,5.0,0.0
8743,49.0,0.0,40.0,13.0,0.0
8744,81.0,0.0,40.0,3.0,0.0
8745,93.0,6.0,40.0,1.0,0.0
8746,73.0,0.0,40.0,7.0,0.0
8747,93.0,0.0,20.0,10.0,0.0
8748,76.0,0.0,40.0,3.0,0.0
8749,69.0,0.0,40.0,5.0,0.0
8750,88.0,0.0,20.0,11.0,0.0
8751,76.0,0.0,20.0,12.0,0.0
8752,93.0,30.0,20.0,10.0,0.0
8753,92.0,0.0,20.0,11.0,0.0
8754,71.0,0.0,40.0,5.0,0.0
8755,92.0,0.0,40.0,0.0,0.0
8756,76.0,0.0,40.0,7.0,0.0
8757,83.0,0.0,40.0,2.0,0.0
8758,52.0,0.0,40.0,13.0,0.0
8759,83.0,0.0,40.0,3.0,0.0
8760,80.0,0.0,40.0,3.0,0.0
8761,95.0,0.0,20.0,10.0,0.0
8762,95.0,0.0,40.0,1.0,0.0
8763,64.0,6.0,40.0,4.0,0.0
8764,71.0,0.0,40.0,4.0,0.0
8765,76.0,24.0,20.0,12.0,0.0
8766,64.0,0.0,40.0,5.0,0.0
8767,80.0,0.0,40.0,2.0,0.0
8768,40.0,0.0,40.0,14.0,0.0
8769,95.0,0.0,20.0,10.0,0.0
8770,76.0,0.0,20.0,12.0,0.0
8771,92.0,30.0,20.0,11.0,0.0
8772,73.0,0.0,40.0,5.0,0.0
8773,69.0,0.0,40.0,5.0,0.0
8774,81.0,24.0,60.0,2.0,0.0
8775,97.0,0.0,60.0,1.0,0.0
8776,69.0,0.0,60.0,4.0,0.0
8777,69.0,0.0,40.0,7.0,0.0
8778,81.0,6.0,40.0,7.0,0.0
8779,73.0,0.0,90.0,6.0,0.0
8780,69.0,0.0,90.0,6.0,0.0
8781,45.0,0.0,60.0,14.0,0.0
8782,57.0,0.0,60.0,13.0,0.0
8783,45.0,12.0,90.0,8.0,0.0
8784,73.0,0.0,60.0,4.0,0.0
8785,85.0,0.0,60.0,2.0,0.0
8786,93.0,0.0,20.0,11.0,0.0
8787,81.0,0.0,60.0,3.0,0.0
8788,85.0,0.0,60.0,3.0,0.0
8789,76.0,24.0,20.0,12.0,0.0
8790,97.0,0.0,20.0,10.0,0.0
8791,93.0,0.0,60.0,0.0,0.0
8792,93.0,6.0,20.0,11.0,0.0
8793,76.0,0.0,20.0,12.0,0.0
8794,97.0,0.0,20.0,10.0,0.0
8795,71.0,0.0,40.0,4.0,0.0
8796,76.0,0.0,40.0,7.0,0.0
8797,92.0,0.0,40.0,0.0,0.0
8798,52.0,0.0,40.0,13.0,0.0
8799,80.0,0.0,40.0,3.0,0.0
8800,83.0,0.0,40.0,3.0,0.0
8801,95.0,0.0,20.0,10.0,0.0
8802,92.0,12.0,20.0,11.0,0.0
8803,64.0,0.0,40.0,4.0,0.0
8804,71.0,6.0,40.0,5.0,0.0
8805,95.0,0.0,40.0,1.0,0.0
8806,40.0,0.0,40.0,14.0,0.0
8807,76.0,0.0,20.0,12.0,0.0
8808,64.0,0.0,40.0,5.0,0.0
8809,80.0,0.0,40.0,2.0,0.0
8810,83.0,0.0,40.0,2.0,0.0
8811,95.0,30.0,20.0,10.0,0.0
8812,76.0,0.0,20.0,12.0,0.0
8813,92.0,0.0,20.0,11.0,0.0
8814,49.0,0.0,40.0,13.0,0.0
8815,73.0,0.0,40.0,7.0,0.0
8816,93.0,0.0,20.0,10.0,0.0
8817,69.0,6.0,40.0,4.0,0.0
8818,69.0,0.0,40.0,5.0,0.0
8819,61.0,0.0,40.0,4.0,0.0
8820,76.0,0.0,20.0,12.0,0.0
8821,88.0,0.0,40.0,0.0,0.0
8822,61.0,0.0,40.0,5.0,0.0
8823,93.0,0.0,40.0,1.0,0.0
8824,88.0,24.0,20.0,11.0,0.0
8825,81.0,0.0,40.0,3.0,0.0
8826,81.0,0.0,40.0,2.0,0.0
8827,76.0,0.0,40.0,3.0,0.0
8828,37.0,0.0,40.0,14.0,0.0
8829,76.0,0.0,40.0,2.0,0.0
8830,88.0,0.0,20.0,11.0,0.0
8831,93.0,0.0,20.0,10.0,0.0
8832,76.0,30.0,20.0,12.0,0.0
8833,92.0,0.0,20.0,11.0,0.0
8834,95.0,0.0,20.0,10.0,0.0
8835,64.0,0.0,40.0,5.0,0.0
8836,83.0,0.0,40.0,2.0,0.0
8837,80.0,0.0,40.0,2.0,0.0
8838,76.0,0.0,40.0,7.0,0.0
8839,95.0,0.0,40.0,1.0,0.0
8840,71.0,0.0,40.0,4.0,0.0
8841,71.0,0.0,40.0,5.0,0.0
8842,83.0,0.0,40.0,3.0,0.0
8843,80.0,0.0,40.0,3.0,0.0
8844,40.0,6.0,40.0,14.0,0.0
8845,92.0,0.0,40.0,0.0,0.0
8846,76.0,24.0,20.0,12.0,0.0
8847,64.0,0.0,40.0,4.0,0.0
8848,52.0,0.0,40.0,13.0,0.0
8849,76.0,0.0,20.0,12.0,0.0
8850,95.0,30.0,20.0,10.0,0.0
8851,92.0,0.0,20.0,11.0,0.0
8852,57.0,0.0,60.0,13.0,0.0
8853,45.0,0.0,60.0,14.0,0.0
8854,69.0,0.0,60.0,4.0,0.0
8855,73.0,24.0,60.0,4.0,0.0
8856,81.0,0.0,40.0,7.0,0.0
8857,73.0,6.0,40.0,5.0,0.0
8858,69.0,0.0,40.0,7.0,0.0
8859,69.0,0.0,40.0,5.0,0.0
8860,45.0,0.0,90.0,8.0,0.0
8861,93.0,0.0,20.0,11.0,0.0
8862,73.0,12.0,90.0,6.0,0.0
8863,69.0,0.0,90.0,6.0,0.0
8864,81.0,0.0,60.0,2.0,0.0
8865,85.0,0.0,60.0,2.0,0.0
8866,76.0,24.0,20.0,12.0,0.0
8867,97.0,0.0,60.0,1.0,0.0
8868,93.0,0.0,60.0,0.0,0.0
8869,97.0,0.0,20.0,10.0,0.0
8870,81.0,0.0,60.0,3.0,0.0
8871,85.0,0.0,60.0,3.0,0.0
8872,76.0,0.0,20.0,12.0,0.0
8873,97.0,6.0,20.0,10.0,0.0
8874,93.0,0.0,20.0,11.0,0.0
8875,92.0,12.0,20.0,11.0,0.0
8876,71.0,0.0,40.0,5.0,0.0
8877,64.0,0.0,40.0,5.0,0.0
8878,80.0,0.0,40.0,3.0,0.0
8879,80.0,0.0,40.0,2.0,0.0
8880,40.0,0.0,40.0,14.0,0.0
8881,83.0,0.0,40.0,3.0,0.0
8882,83.0,0.0,40.0,2.0,0.0
8883,52.0,0.0,40.0,13.0,0.0
8884,95.0,0.0,40.0,1.0,0.0
8885,76.0,6.0,40.0,7.0,0.0
8886,92.0,0.0,40.0,0.0,0.0
8887,95.0,0.0,20.0,10.0,0.0
8888,76.0,0.0,20.0,12.0,0.0
8889,71.0,0.0,40.0,4.0,0.0
8890,64.0,0.0,40.0,4.0,0.0
8891,95.0,0.0,20.0,10.0,0.0
8892,92.0,30.0,20.0,11.0,0.0
8893,76.0,0.0,20.0,12.0,0.0
8894,49.0,0.0,40.0,13.0,0.0
8895,61.0,6.0,40.0,4.0,0.0
8896,69.0,0.0,40.0,4.0,0.0
8897,93.0,0.0,40.0,1.0,0.0
8898,76.0,0.0,20.0,12.0,0.0
8899,88.0,0.0,40.0,0.0,0.0
8900,81.0,0.0,40.0,3.0,0.0
8901,73.0,0.0,40.0,7.0,0.0
8902,93.0,24.0,20.0,10.0,0.0
8903,76.0,0.0,40.0,2.0,0.0
8904,81.0,0.0,40.0,2.0,0.0
8905,88.0,0.0,20.0,11.0,0.0
8906,76.0,0.0,40.0,3.0,0.0
8907,61.0,0.0,40.0,5.0,0.0
8908,37.0,0.0,40.0,14.0,0.0
8909,69.0,0.0,40.0,5.0,0.0
8910,93.0,30.0,20.0,10.0,0.0
8911,88.0,0.0,20.0,11.0,0.0
8912,76.0,0.0,20.0,12.0,0.0
8913,83.0,0.0,40.0,2.0,0.0
8914,80.0,0.0,40.0,2.0,0.0
8915,40.0,0.0,40.0,14.0,0.0
8916,95.0,6.0,40.0,1.0,0.0
8917,64.0,0.0,40.0,4.0,0.0
8918,80.0,0.0,40.0,3.0,0.0
8919,92.0,24.0,20.0,11.0,0.0
8920,71.0,0.0,40.0,5.0,0.0
8921,52.0,0.0,40.0,13.0,0.0
8922,83.0,0.0,40.0,3.0,0.0
8923,64.0,0.0,40.0,5.0,0.0
8924,76.0,0.0,40.0,7.0,0.0
8925,95.0,0.0,20.0,10.0,0.0
8926,76.0,0.0,20.0,12.0,0.0
8927,92.0,0.0,40.0,0.0,0.0
8928,71.0,0.0,40.0,4.0,0.0
8929,76.0,30.0,20.0,12.0,0.0
8930,95.0,0.0,20.0,10.0,0.0
8931,92.0,0.0,20.0,11.0,0.0
8932,81.0,0.0,90.0,7.0,0.0
8933,45.0,0.0,180.0,14.0,0.0
8934,69.0,0.0,90.0,7.0,0.0
8935,81.0,0.0,40.0,2.0,0.0
8936,57.0,0.0,180.0,13.0,0.0
8937,93.0,0.0,40.0,11.0,0.0
8938,93.0,0.0,40.0,0.0,0.0
8939,97.0,0.0,40.0,1.0,0.0
8940,81.0,0.0,40.0,3.0,0.0
8941,85.0,0.0,40.0,2.0,0.0
8942,97.0,24.0,20.0,10.0,0.0
8943,85.0,6.0,40.0,3.0,0.0
8944,73.0,0.0,40.0,4.0,0.0
8945,69.0,0.0,40.0,4.0,0.0
8946,45.0,0.0,90.0,8.0,0.0
8947,69.0,12.0,180.0,5.0,0.0
8948,73.0,0.0,180.0,5.0,0.0
8949,76.0,0.0,40.0,12.0,0.0
8950,69.0,12.0,90.0,6.0,0.0
8951,97.0,30.0,20.0,10.0,0.0
8952,71.0,0.0,40.0,4.0,0.0
8953,83.0,0.0,40.0,2.0,0.0
8954,83.0,12.0,20.0,11.0,0.0
8955,83.0,0.0,40.0,0.0,0.0
8956,71.0,0.0,20.0,12.0,0.0
8957,83.0,6.0,40.0,3.0,0.0
8958,71.0,0.0,40.0,3.0,0.0
8959,95.0,0.0,40.0,1.0,0.0
8960,95.0,0.0,20.0,10.0,0.0
8961,95.0,30.0,20.0,10.0,0.0
8962,71.0,0.0,20.0,12.0,0.0
8963,83.0,0.0,20.0,11.0,0.0
8964,93.0,0.0,40.0,1.0,0.0
8965,81.0,0.0,40.0,7.0,0.0
8966,69.0,0.0,40.0,6.0,0.0
8967,69.0,0.0,40.0,7.0,0.0
8968,69.0,0.0,20.0,12.0,0.0
8969,81.0,0.0,40.0,0.0,0.0
8970,81.0,0.0,40.0,3.0,0.0
8971,81.0,6.0,40.0,2.0,0.0
8972,57.0,12.0,90.0,4.0,0.0
8973,69.0,0.0,40.0,3.0,0.0
8974,93.0,24.0,20.0,10.0,0.0
8975,81.0,0.0,20.0,11.0,0.0
8976,69.0,0.0,40.0,4.0,0.0
8977,81.0,0.0,20.0,11.0,0.0
8978,93.0,0.0,20.0,10.0,0.0
8979,69.0,18.0,20.0,12.0,0.0
8980,68.0,0.0,20.0,12.0,0.0
8981,69.0,0.0,40.0,7.0,0.0
8982,68.0,0.0,40.0,4.0,0.0
8983,92.0,12.0,20.0,10.0,0.0
8984,81.0,0.0,40.0,7.0,0.0
8985,68.0,0.0,40.0,3.0,0.0
8986,80.0,0.0,40.0,3.0,0.0
8987,80.0,0.0,40.0,2.0,0.0
8988,92.0,6.0,40.0,1.0,0.0
8989,80.0,0.0,20.0,11.0,0.0
8990,69.0,0.0,40.0,6.0,0.0
8991,80.0,0.0,40.0,0.0,0.0
8992,92.0,0.0,20.0,10.0,0.0
8993,68.0,0.0,20.0,12.0,0.0
8994,80.0,30.0,20.0,11.0,0.0
8995,69.0,0.0,20.0,12.0,0.0
8996,81.0,0.0,40.0,0.0,0.0
8997,69.0,0.0,90.0,6.0,0.0
8998,69.0,0.0,90.0,7.0,0.0
8999,81.0,0.0,90.0,7.0,0.0
9000,69.0,0.0,40.0,3.0,0.0
9001,93.0,0.0,40.0,1.0,0.0
9002,45.0,12.0,90.0,8.0,0.0
9003,81.0,0.0,40.0,2.0,0.0
9004,69.0,6.0,40.0,4.0,0.0
9005,93.0,0.0,20.0,10.0,0.0
9006,69.0,0.0,180.0,5.0,0.0
9007,73.0,12.0,180.0,5.0,0.0
9008,54.0,0.0,180.0,13.0,0.0
9009,81.0,24.0,20.0,11.0,0.0
9010,54.0,0.0,180.0,4.0,0.0
9011,81.0,0.0,40.0,3.0,0.0
9012,42.0,0.0,180.0,14.0,0.0
9013,69.0,0.0,20.0,12.0,0.0
9014,93.0,30.0,20.0,10.0,0.0
9015,81.0,0.0,20.0,11.0,0.0
9016,92.0,12.0,20.0,10.0,0.0
9017,80.0,6.0,40.0,2.0,0.0
9018,80.0,0.0,20.0,11.0,0.0
9019,80.0,0.0,40.0,3.0,0.0
9020,68.0,0.0,40.0,4.0,0.0
9021,80.0,0.0,40.0,0.0,0.0
9022,68.0,0.0,40.0,3.0,0.0
9023,68.0,0.0,20.0,12.0,0.0
9024,92.0,0.0,40.0,1.0,0.0
9025,80.0,0.0,20.0,11.0,0.0
9026,68.0,30.0,20.0,12.0,0.0
9027,92.0,0.0,20.0,10.0,0.0
9028,78.0,0.0,20.0,11.0,0.0
9029,81.0,0.0,40.0,7.0,0.0
9030,69.0,0.0,40.0,7.0,0.0
9031,90.0,6.0,40.0,1.0,0.0
9032,90.0,24.0,20.0,10.0,0.0
9033,66.0,0.0,20.0,12.0,0.0
9034,78.0,0.0,40.0,0.0,0.0
9035,66.0,0.0,40.0,4.0,0.0
9036,69.0,0.0,40.0,6.0,0.0
9037,78.0,0.0,40.0,2.0,0.0
9038,45.0,12.0,90.0,8.0,0.0
9039,78.0,0.0,40.0,3.0,0.0
9040,66.0,0.0,40.0,3.0,0.0
9041,78.0,0.0,20.0,11.0,0.0
9042,66.0,0.0,20.0,12.0,0.0
9043,90.0,18.0,20.0,10.0,0.0
9044,69.0,0.0,40.0,6.0,0.0
9045,77.0,0.0,20.0,11.0,0.0
9046,77.0,0.0,40.0,0.0,0.0
9047,89.0,0.0,20.0,10.0,0.0
9048,89.0,0.0,40.0,1.0,0.0
9049,65.0,12.0,20.0,12.0,0.0
9050,65.0,0.0,40.0,4.0,0.0
9051,69.0,0.0,40.0,7.0,0.0
9052,81.0,0.0,40.0,7.0,0.0
9053,77.0,0.0,40.0,2.0,0.0
9054,77.0,6.0,40.0,3.0,0.0
9055,77.0,0.0,20.0,11.0,0.0
9056,89.0,30.0,20.0,10.0,0.0
9057,65.0,0.0,20.0,12.0,0.0
9058,38.0,0.0,90.0,14.0,0.0
9059,90.0,0.0,40.0,1.0,0.0
9060,69.0,0.0,180.0,5.0,0.0
9061,78.0,0.0,40.0,0.0,0.0
9062,71.0,12.0,90.0,6.0,0.0
9063,45.0,0.0,90.0,8.0,0.0
9064,66.0,0.0,20.0,12.0,0.0
9065,71.0,12.0,180.0,5.0,0.0
9066,50.0,0.0,90.0,4.0,0.0
9067,66.0,0.0,40.0,4.0,0.0
9068,78.0,0.0,20.0,11.0,0.0
9069,78.0,0.0,40.0,3.0,0.0
9070,83.0,0.0,90.0,7.0,0.0
9071,81.0,0.0,90.0,7.0,0.0
9072,50.0,0.0,90.0,13.0,0.0
9073,78.0,6.0,40.0,2.0,0.0
9074,90.0,24.0,20.0,10.0,0.0
9075,66.0,30.0,20.0,12.0,0.0
9076,78.0,0.0,20.0,11.0,0.0
9077,90.0,0.0,20.0,10.0,0.0
9078,76.0,0.0,20.0,11.0,0.0
9079,88.0,0.0,20.0,10.0,0.0
9080,100.0,0.0,40.0,1.0,0.0
9081,88.0,0.0,40.0,0.0,0.0
9082,64.0,6.0,40.0,4.0,0.0
9083,76.0,0.0,40.0,3.0,0.0
9084,88.0,0.0,40.0,2.0,0.0
9085,76.0,0.0,40.0,2.0,0.0
9086,64.0,12.0,20.0,12.0,0.0
9087,64.0,0.0,20.0,12.0,0.0
9088,88.0,0.0,20.0,10.0,0.0
9089,76.0,30.0,20.0,11.0,0.0
9090,86.0,0.0,20.0,10.0,0.0
9091,71.0,0.0,40.0,6.0,0.0
9092,86.0,0.0,40.0,2.0,0.0
9093,62.0,0.0,20.0,12.0,0.0
9094,35.0,0.0,90.0,14.0,0.0
9095,47.0,0.0,90.0,13.0,0.0
9096,74.0,0.0,40.0,3.0,0.0
9097,74.0,24.0,20.0,11.0,0.0
9098,74.0,0.0,40.0,2.0,0.0
9099,62.0,0.0,40.0,4.0,0.0
9100,47.0,12.0,90.0,4.0,0.0
9101,83.0,0.0,40.0,7.0,0.0
9102,81.0,0.0,40.0,7.0,0.0
9103,98.0,6.0,40.0,1.0,0.0
9104,86.0,0.0,40.0,0.0,0.0
9105,62.0,0.0,20.0,12.0,0.0
9106,86.0,0.0,20.0,10.0,0.0
9107,74.0,18.0,20.0,11.0,0.0
9108,73.0,0.0,40.0,3.0,0.0
9109,61.0,0.0,20.0,12.0,0.0
9110,85.0,0.0,40.0,0.0,0.0
9111,85.0,12.0,20.0,10.0,0.0
9112,73.0,0.0,20.0,11.0,0.0
9113,83.0,0.0,40.0,7.0,0.0
9114,81.0,0.0,40.0,7.0,0.0
9115,71.0,0.0,40.0,6.0,0.0
9116,97.0,0.0,40.0,1.0,0.0
9117,85.0,0.0,40.0,2.0,0.0
9118,73.0,0.0,40.0,2.0,0.0
9119,61.0,6.0,40.0,4.0,0.0
9120,73.0,0.0,20.0,11.0,0.0
9121,61.0,0.0,20.0,12.0,0.0
9122,85.0,30.0,20.0,10.0,0.0
9123,83.0,0.0,90.0,7.0,0.0
9124,86.0,0.0,40.0,2.0,0.0
9125,98.0,6.0,40.0,1.0,0.0
9126,86.0,24.0,20.0,10.0,0.0
9127,74.0,0.0,40.0,3.0,0.0
9128,62.0,0.0,40.0,4.0,0.0
9129,52.0,0.0,90.0,4.0,0.0
9130,52.0,12.0,90.0,8.0,0.0
9131,74.0,0.0,20.0,11.0,0.0
9132,71.0,0.0,90.0,6.0,0.0
9133,74.0,0.0,40.0,2.0,0.0
9134,62.0,0.0,20.0,12.0,0.0
9135,71.0,0.0,180.0,5.0,0.0
9136,76.0,0.0,90.0,7.0,0.0
9137,52.0,0.0,90.0,13.0,0.0
9138,86.0,0.0,40.0,0.0,0.0
9139,64.0,12.0,180.0,5.0,0.0
9140,40.0,0.0,90.0,14.0,0.0
9141,62.0,30.0,20.0,12.0,0.0
9142,86.0,0.0,20.0,10.0,0.0
9143,74.0,0.0,20.0,11.0,0.0
9144,95.0,0.0,40.0,1.0,0.0
9145,59.0,0.0,40.0,4.0,0.0
9146,59.0,12.0,20.0,12.0,0.0
9147,71.0,0.0,20.0,11.0,0.0
9148,71.0,0.0,40.0,2.0,0.0
9149,83.0,0.0,40.0,0.0,0.0
9150,83.0,6.0,40.0,2.0,0.0
9151,71.0,0.0,40.0,3.0,0.0
9152,83.0,0.0,20.0,10.0,0.0
9153,71.0,30.0,20.0,11.0,0.0
9154,59.0,0.0,20.0,12.0,0.0
9155,83.0,0.0,20.0,10.0,0.0
9156,64.0,0.0,40.0,4.0,0.0
9157,71.0,0.0,40.0,6.0,0.0
9158,76.0,0.0,40.0,3.0,0.0
9159,76.0,0.0,20.0,11.0,0.0
9160,88.0,0.0,20.0,10.0,0.0
9161,100.0,0.0,40.0,1.0,0.0
9162,76.0,0.0,40.0,7.0,0.0
9163,64.0,24.0,20.0,12.0,0.0
9164,40.0,12.0,90.0,14.0,0.0
9165,88.0,0.0,40.0,2.0,0.0
9166,76.0,0.0,40.0,2.0,0.0
9167,52.0,0.0,90.0,13.0,0.0
9168,83.0,0.0,40.0,7.0,0.0
9169,52.0,0.0,90.0,4.0,0.0
9170,88.0,6.0,40.0,0.0,0.0
9171,76.0,0.0,20.0,11.0,0.0
9172,64.0,18.0,20.0,12.0,0.0
9173,88.0,0.0,20.0,10.0,0.0
9174,76.0,12.0,20.0,11.0,0.0
9175,64.0,0.0,40.0,4.0,0.0
9176,83.0,0.0,40.0,7.0,0.0
9177,76.0,6.0,40.0,3.0,0.0
9178,76.0,0.0,40.0,2.0,0.0
9179,76.0,0.0,40.0,7.0,0.0
9180,88.0,0.0,40.0,2.0,0.0
9181,100.0,0.0,40.0,1.0,0.0
9182,71.0,0.0,40.0,6.0,0.0
9183,88.0,0.0,20.0,10.0,0.0
9184,64.0,0.0,20.0,12.0,0.0
9185,88.0,0.0,40.0,0.0,0.0
9186,88.0,22.0,20.0,10.0,0.0
9187,64.0,0.0,20.0,12.0,0.0
9188,76.0,0.0,20.0,11.0,0.0
9189,93.0,0.0,20.0,11.0,0.0
9190,81.0,0.0,300.0,7.0,0.0
9191,69.0,0.0,300.0,7.0,0.0
9192,97.0,12.0,20.0,10.0,0.0
9193,69.0,0.0,300.0,5.0,0.0
9194,93.0,0.0,300.0,0.0,0.0
9195,45.0,0.0,300.0,14.0,0.0
9196,73.0,0.0,300.0,4.0,0.0
9197,69.0,0.0,300.0,4.0,0.0
9198,57.0,0.0,300.0,13.0,0.0
9199,85.0,0.0,300.0,3.0,0.0
9200,81.0,0.0,300.0,3.0,0.0
9201,97.0,24.0,300.0,1.0,0.0
9202,69.0,0.0,300.0,6.0,0.0
9203,73.0,0.0,300.0,6.0,0.0
9204,85.0,0.0,300.0,2.0,0.0
9205,76.0,0.0,20.0,12.0,0.0
9206,81.0,0.0,300.0,2.0,0.0
9207,73.0,0.0,300.0,5.0,0.0
9208,45.0,8.0,15.0,8.0,0.0
9209,45.0,18.0,15.0,8.0,0.0
9210,97.0,0.0,20.0,10.0,0.0
9211,93.0,0.0,20.0,11.0,0.0
9212,76.0,2.0,20.0,12.0,0.0
9213,45.0,20.0,15.0,8.0,0.0
9214,45.0,8.0,15.0,8.0,0.0
9215,97.0,0.0,20.0,10.0,0.0
9216,76.0,0.0,20.0,12.0,0.0
9217,93.0,12.0,20.0,11.0,0.0
9218,45.0,18.0,15.0,8.0,0.0
9219,76.0,0.0,20.0,12.0,0.0
9220,97.0,2.0,20.0,10.0,0.0
9221,93.0,0.0,20.0,11.0,0.0
9222,45.0,20.0,15.0,8.0,0.0
9223,93.0,0.0,20.0,11.0,0.0
9224,76.0,12.0,20.0,12.0,0.0
9225,45.0,8.0,15.0,8.0,0.0
9226,97.0,0.0,20.0,10.0,0.0
9227,45.0,18.0,15.0,8.0,0.0
9228,97.0,2.0,20.0,10.0,0.0
9229,93.0,0.0,20.0,11.0,0.0
9230,76.0,0.0,20.0,12.0,0.0
9231,45.0,20.0,15.0,8.0,0.0
9232,93.0,0.0,20.0,11.0,0.0
9233,76.0,0.0,20.0,12.0,0.0
9234,97.0,12.0,20.0,10.0,0.0
9235,45.0,8.0,15.0,8.0,0.0
9236,45.0,18.0,15.0,8.0,0.0
9237,93.0,2.0,20.0,11.0,0.0
9238,97.0,0.0,20.0,10.0,0.0
9239,76.0,0.0,20.0,12.0,0.0
9240,45.0,28.0,15.0,8.0,0.0
9241,76.0,0.0,20.0,12.0,0.0
9242,97.0,0.0,20.0,10.0,0.0
9243,93.0,24.0,20.0,11.0,0.0
9244,45.0,6.0,40.0,8.0,0.0
9245,93.0,6.0,20.0,11.0,0.0
9246,97.0,0.0,20.0,10.0,0.0
9247,76.0,0.0,20.0,12.0,0.0
9248,92.0,12.0,20.0,11.0,0.0
9249,64.0,0.0,40.0,5.0,0.0
9250,71.0,0.0,40.0,5.0,0.0
9251,76.0,0.0,40.0,7.0,0.0
9252,52.0,6.0,40.0,13.0,0.0
9253,83.0,0.0,40.0,2.0,0.0
9254,80.0,0.0,40.0,2.0,0.0
9255,76.0,0.0,20.0,12.0,0.0
9256,83.0,12.0,40.0,3.0,0.0
9257,71.0,0.0,40.0,4.0,0.0
9258,64.0,0.0,40.0,4.0,0.0
9259,92.0,0.0,40.0,0.0,0.0
9260,40.0,0.0,40.0,14.0,0.0
9261,95.0,0.0,20.0,10.0,0.0
9262,95.0,0.0,40.0,1.0,0.0
9263,80.0,0.0,40.0,3.0,0.0
9264,92.0,0.0,20.0,11.0,0.0
9265,76.0,30.0,20.0,12.0,0.0
9266,95.0,0.0,20.0,10.0,0.0
9267,93.0,0.0,40.0,1.0,0.0
9268,76.0,0.0,40.0,2.0,0.0
9269,49.0,0.0,40.0,13.0,0.0
9270,69.0,0.0,40.0,4.0,0.0
9271,61.0,0.0,40.0,4.0,0.0
9272,69.0,6.0,40.0,5.0,0.0
9273,61.0,0.0,40.0,5.0,0.0
9274,93.0,0.0,20.0,10.0,0.0
9275,76.0,12.0,20.0,12.0,0.0
9276,37.0,0.0,40.0,14.0,0.0
9277,81.0,12.0,40.0,2.0,0.0
9278,88.0,0.0,40.0,0.0,0.0
9279,76.0,0.0,40.0,3.0,0.0
9280,81.0,0.0,40.0,3.0,0.0
9281,88.0,0.0,20.0,11.0,0.0
9282,73.0,0.0,40.0,7.0,0.0
9283,76.0,0.0,20.0,12.0,0.0
9284,93.0,0.0,20.0,10.0,0.0
9285,88.0,30.0,20.0,11.0,0.0
9286,92.0,0.0,20.0,11.0,0.0
9287,71.0,0.0,40.0,4.0,0.0
9288,95.0,0.0,40.0,1.0,0.0
9289,80.0,12.0,40.0,3.0,0.0
9290,83.0,0.0,40.0,3.0,0.0
9291,76.0,12.0,20.0,12.0,0.0
9292,64.0,0.0,40.0,4.0,0.0
9293,40.0,0.0,40.0,14.0,0.0
9294,71.0,0.0,40.0,5.0,0.0
9295,83.0,0.0,40.0,2.0,0.0
9296,80.0,0.0,40.0,2.0,0.0
9297,64.0,0.0,40.0,5.0,0.0
9298,95.0,0.0,20.0,10.0,0.0
9299,92.0,0.0,40.0,0.0,0.0
9300,76.0,0.0,40.0,7.0,0.0
9301,52.0,6.0,40.0,13.0,0.0
9302,92.0,0.0,20.0,11.0,0.0
9303,76.0,22.0,20.0,12.0,0.0
9304,95.0,0.0,20.0,10.0,0.0
9305,73.0,0.0,300.0,4.0,0.0
9306,69.0,0.0,300.0,4.0,0.0
9307,45.0,0.0,300.0,14.0,0.0
9308,93.0,0.0,300.0,0.0,0.0
9309,97.0,0.0,20.0,10.0,0.0
9310,69.0,0.0,300.0,7.0,0.0
9311,73.0,0.0,300.0,6.0,0.0
9312,69.0,6.0,300.0,6.0,0.0
9313,73.0,0.0,300.0,5.0,0.0
9314,69.0,0.0,300.0,5.0,0.0
9315,76.0,0.0,20.0,12.0,0.0
9316,57.0,0.0,300.0,13.0,0.0
9317,81.0,0.0,300.0,3.0,0.0
9318,85.0,0.0,300.0,3.0,0.0
9319,97.0,24.0,300.0,1.0,0.0
9320,45.0,8.0,15.0,8.0,0.0
9321,93.0,12.0,20.0,11.0,0.0
9322,81.0,0.0,300.0,7.0,0.0
9323,85.0,0.0,300.0,2.0,0.0
9324,81.0,0.0,300.0,2.0,0.0
9325,45.0,18.0,15.0,8.0,0.0
9326,97.0,0.0,20.0,10.0,0.0
9327,76.0,0.0,20.0,12.0,0.0
9328,93.0,2.0,20.0,11.0,0.0
9329,45.0,20.0,15.0,8.0,0.0
9330,45.0,8.0,15.0,8.0,0.0
9331,76.0,12.0,20.0,12.0,0.0
9332,97.0,0.0,20.0,10.0,0.0
9333,93.0,0.0,20.0,11.0,0.0
9334,45.0,18.0,15.0,8.0,0.0
9335,93.0,2.0,20.0,11.0,0.0
9336,76.0,0.0,20.0,12.0,0.0
9337,97.0,0.0,20.0,10.0,0.0
9338,45.0,20.0,15.0,8.0,0.0
9339,45.0,8.0,15.0,8.0,0.0
9340,93.0,0.0,20.0,11.0,0.0
9341,97.0,12.0,20.0,10.0,0.0
9342,76.0,0.0,20.0,12.0,0.0
9343,45.0,18.0,15.0,8.0,0.0
9344,93.0,2.0,20.0,11.0,0.0
9345,76.0,0.0,20.0,12.0,0.0
9346,97.0,0.0,20.0,10.0,0.0
9347,45.0,20.0,15.0,8.0,0.0
9348,45.0,8.0,15.0,8.0,0.0
9349,76.0,0.0,20.0,12.0,0.0
9350,93.0,12.0,20.0,11.0,0.0
9351,97.0,0.0,20.0,10.0,0.0
9352,45.0,18.0,15.0,8.0,0.0
9353,93.0,0.0,20.0,11.0,0.0
9354,97.0,0.0,20.0,10.0,0.0
9355,76.0,2.0,20.0,12.0,0.0
9356,45.0,28.0,15.0,8.0,0.0
9357,76.0,0.0,20.0,12.0,0.0
9358,45.0,0.0,40.0,8.0,0.0
9359,97.0,0.0,20.0,10.0,0.0
9360,93.0,24.0,20.0,11.0,0.0
9361,97.0,6.0,20.0,10.0,0.0
9362,76.0,0.0,20.0,12.0,0.0
9363,93.0,0.0,20.0,11.0,0.0
9364,52.0,0.0,40.0,13.0,0.0
9365,83.0,0.0,40.0,2.0,0.0
9366,95.0,0.0,20.0,10.0,0.0
9367,76.0,0.0,20.0,12.0,0.0
9368,76.0,6.0,40.0,7.0,0.0
9369,83.0,12.0,40.0,3.0,0.0
9370,80.0,0.0,40.0,3.0,0.0
9371,80.0,0.0,40.0,2.0,0.0
9372,40.0,0.0,40.0,14.0,0.0
9373,92.0,12.0,20.0,11.0,0.0
9374,64.0,0.0,40.0,4.0,0.0
9375,64.0,0.0,40.0,5.0,0.0
9376,71.0,0.0,40.0,5.0,0.0
9377,95.0,0.0,40.0,1.0,0.0
9378,92.0,0.0,40.0,0.0,0.0
9379,71.0,0.0,40.0,4.0,0.0
9380,76.0,0.0,20.0,12.0,0.0
9381,95.0,0.0,20.0,10.0,0.0
9382,92.0,30.0,20.0,11.0,0.0
9383,76.0,0.0,40.0,3.0,0.0
9384,81.0,12.0,40.0,3.0,0.0
9385,93.0,0.0,40.0,1.0,0.0
9386,73.0,6.0,40.0,7.0,0.0
9387,93.0,12.0,20.0,10.0,0.0
9388,69.0,0.0,40.0,4.0,0.0
9389,61.0,0.0,40.0,4.0,0.0
9390,37.0,0.0,40.0,14.0,0.0
9391,88.0,0.0,20.0,11.0,0.0
9392,81.0,0.0,40.0,2.0,0.0
9393,49.0,0.0,40.0,13.0,0.0
9394,88.0,0.0,40.0,0.0,0.0
9395,76.0,0.0,20.0,12.0,0.0
9396,76.0,0.0,40.0,2.0,0.0
9397,61.0,0.0,40.0,5.0,0.0
9398,69.0,0.0,40.0,5.0,0.0
9399,88.0,30.0,20.0,11.0,0.0
9400,76.0,0.0,20.0,12.0,0.0
9401,93.0,0.0,20.0,10.0,0.0
9402,40.0,0.0,40.0,14.0,0.0
9403,64.0,0.0,40.0,4.0,0.0
9404,71.0,0.0,40.0,4.0,0.0
9405,64.0,0.0,40.0,5.0,0.0
9406,76.0,0.0,20.0,12.0,0.0
9407,71.0,0.0,40.0,5.0,0.0
9408,95.0,0.0,40.0,1.0,0.0
9409,83.0,12.0,40.0,2.0,0.0
9410,92.0,0.0,20.0,11.0,0.0
9411,83.0,0.0,40.0,3.0,0.0
9412,80.0,0.0,40.0,3.0,0.0
9413,76.0,6.0,40.0,7.0,0.0
9414,80.0,0.0,40.0,2.0,0.0
9415,95.0,12.0,20.0,10.0,0.0
9416,52.0,0.0,40.0,13.0,0.0
9417,92.0,0.0,40.0,0.0,0.0
9418,95.0,0.0,20.0,10.0,0.0
9419,92.0,30.0,20.0,11.0,0.0
9420,76.0,0.0,20.0,12.0,0.0
9421,97.0,0.0,60.0,1.0,0.0
9422,76.0,0.0,20.0,12.0,0.0
9423,69.0,12.0,90.0,6.0,0.0
9424,93.0,0.0,60.0,0.0,0.0
9425,73.0,0.0,90.0,6.0,0.0
9426,57.0,24.0,60.0,13.0,0.0
9427,73.0,0.0,40.0,5.0,0.0
9428,69.0,6.0,40.0,5.0,0.0
9429,93.0,24.0,20.0,11.0,0.0
9430,97.0,0.0,20.0,10.0,0.0
9431,73.0,0.0,60.0,4.0,0.0
9432,45.0,0.0,60.0,14.0,0.0
9433,45.0,0.0,20.0,8.0,0.0
9434,81.0,0.0,60.0,3.0,0.0
9435,81.0,0.0,60.0,2.0,0.0
9436,85.0,0.0,60.0,2.0,0.0
9437,69.0,0.0,40.0,7.0,0.0
9438,81.0,0.0,40.0,7.0,0.0
9439,85.0,0.0,60.0,3.0,0.0
9440,69.0,0.0,60.0,4.0,0.0
9441,93.0,0.0,20.0,11.0,0.0
9442,97.0,0.0,20.0,10.0,0.0
9443,45.0,6.0,20.0,8.0,0.0
9444,76.0,0.0,20.0,12.0,0.0
9445,40.0,0.0,40.0,14.0,0.0
9446,83.0,0.0,40.0,2.0,0.0
9447,80.0,0.0,40.0,2.0,0.0
9448,95.0,0.0,40.0,1.0,0.0
9449,45.0,0.0,20.0,8.0,0.0
9450,92.0,0.0,20.0,11.0,0.0
9451,52.0,0.0,40.0,13.0,0.0
9452,80.0,6.0,40.0,3.0,0.0
9453,92.0,0.0,40.0,0.0,0.0
9454,76.0,0.0,20.0,12.0,0.0
9455,71.0,0.0,40.0,4.0,0.0
9456,64.0,0.0,40.0,4.0,0.0
9457,83.0,0.0,40.0,3.0,0.0
9458,64.0,0.0,40.0,5.0,0.0
9459,71.0,0.0,40.0,5.0,0.0
9460,76.0,0.0,40.0,7.0,0.0
9461,95.0,12.0,20.0,10.0,0.0
9462,76.0,0.0,20.0,12.0,0.0
9463,45.0,0.0,20.0,8.0,0.0
9464,95.0,30.0,20.0,10.0,0.0
9465,92.0,0.0,20.0,11.0,0.0
9466,76.0,0.0,40.0,2.0,0.0
9467,88.0,24.0,20.0,11.0,0.0
9468,37.0,6.0,40.0,14.0,0.0
9469,76.0,0.0,20.0,12.0,0.0
9470,69.0,0.0,40.0,4.0,0.0
9471,61.0,0.0,40.0,4.0,0.0
9472,76.0,0.0,40.0,3.0,0.0
9473,81.0,0.0,40.0,2.0,0.0
9474,73.0,0.0,40.0,7.0,0.0
9475,93.0,0.0,40.0,1.0,0.0
9476,81.0,0.0,40.0,3.0,0.0
9477,49.0,0.0,40.0,13.0,0.0
9478,93.0,0.0,20.0,10.0,0.0
9479,69.0,0.0,40.0,5.0,0.0
9480,88.0,0.0,40.0,0.0,0.0
9481,61.0,0.0,40.0,5.0,0.0
9482,93.0,30.0,20.0,10.0,0.0
9483,88.0,0.0,20.0,11.0,0.0
9484,76.0,0.0,20.0,12.0,0.0
9485,64.0,6.0,40.0,5.0,0.0
9486,71.0,0.0,40.0,5.0,0.0
9487,76.0,0.0,20.0,12.0,0.0
9488,92.0,0.0,40.0,0.0,0.0
9489,52.0,0.0,40.0,13.0,0.0
9490,95.0,0.0,40.0,1.0,0.0
9491,83.0,0.0,40.0,3.0,0.0
9492,95.0,0.0,20.0,10.0,0.0
9493,40.0,0.0,40.0,14.0,0.0
9494,80.0,0.0,40.0,3.0,0.0
9495,64.0,0.0,40.0,4.0,0.0
9496,71.0,0.0,40.0,4.0,0.0
9497,92.0,24.0,20.0,11.0,0.0
9498,83.0,0.0,40.0,2.0,0.0
9499,80.0,0.0,40.0,2.0,0.0
9500,76.0,0.0,40.0,7.0,0.0
9501,76.0,30.0,20.0,12.0,0.0
9502,92.0,0.0,20.0,11.0,0.0
9503,95.0,0.0,20.0,10.0,0.0
9504,93.0,24.0,60.0,0.0,0.0
9505,93.0,24.0,20.0,11.0,0.0
9506,69.0,0.0,40.0,5.0,0.0
9507,73.0,0.0,40.0,5.0,0.0
9508,85.0,0.0,60.0,2.0,0.0
9509,81.0,0.0,60.0,2.0,0.0
9510,57.0,0.0,60.0,13.0,0.0
9511,97.0,0.0,60.0,1.0,0.0
9512,76.0,0.0,20.0,12.0,0.0
9513,81.0,6.0,40.0,7.0,0.0
9514,45.0,0.0,60.0,14.0,0.0
9515,81.0,0.0,60.0,3.0,0.0
9516,69.0,0.0,90.0,6.0,0.0
9517,73.0,12.0,90.0,6.0,0.0
9518,73.0,0.0,60.0,4.0,0.0
9519,69.0,0.0,40.0,7.0,0.0
9520,97.0,0.0,20.0,10.0,0.0
9521,69.0,0.0,60.0,4.0,0.0
9522,85.0,0.0,60.0,3.0,0.0
9523,45.0,0.0,20.0,8.0,0.0
9524,76.0,0.0,20.0,12.0,0.0
9525,97.0,6.0,20.0,10.0,0.0
9526,93.0,0.0,20.0,11.0,0.0
9527,45.0,0.0,20.0,8.0,0.0
9528,71.0,0.0,40.0,5.0,0.0
9529,64.0,0.0,40.0,5.0,0.0
9530,40.0,0.0,40.0,14.0,0.0
9531,95.0,0.0,40.0,1.0,0.0
9532,83.0,0.0,40.0,2.0,0.0
9533,80.0,0.0,40.0,2.0,0.0
9534,92.0,0.0,20.0,11.0,0.0
9535,52.0,0.0,40.0,13.0,0.0
9536,80.0,0.0,40.0,3.0,0.0
9537,83.0,6.0,40.0,3.0,0.0
9538,64.0,0.0,40.0,4.0,0.0
9539,71.0,0.0,40.0,4.0,0.0
9540,95.0,0.0,20.0,10.0,0.0
9541,76.0,0.0,20.0,12.0,0.0
9542,92.0,0.0,40.0,0.0,0.0
9543,76.0,0.0,40.0,7.0,0.0
9544,45.0,12.0,20.0,8.0,0.0
9545,45.0,0.0,20.0,8.0,0.0
9546,92.0,0.0,20.0,11.0,0.0
9547,95.0,0.0,20.0,10.0,0.0
9548,76.0,30.0,20.0,12.0,0.0
9549,76.0,0.0,40.0,3.0,0.0
9550,88.0,0.0,40.0,0.0,0.0
9551,93.0,0.0,40.0,1.0,0.0
9552,81.0,0.0,40.0,2.0,0.0
9553,76.0,0.0,40.0,2.0,0.0
9554,61.0,0.0,40.0,4.0,0.0
9555,69.0,0.0,40.0,4.0,0.0
9556,81.0,0.0,40.0,3.0,0.0
9557,76.0,24.0,20.0,12.0,0.0
9558,88.0,0.0,20.0,11.0,0.0
9559,37.0,0.0,40.0,14.0,0.0
9560,69.0,0.0,40.0,5.0,0.0
9561,61.0,6.0,40.0,5.0,0.0
9562,49.0,0.0,40.0,13.0,0.0
9563,93.0,0.0,20.0,10.0,0.0
9564,73.0,0.0,40.0,7.0,0.0
9565,88.0,0.0,20.0,11.0,0.0
9566,93.0,0.0,20.0,10.0,0.0
9567,76.0,30.0,20.0,12.0,0.0
9568,80.0,0.0,40.0,3.0,0.0
9569,64.0,0.0,40.0,4.0,0.0
9570,71.0,0.0,40.0,4.0,0.0
9571,83.0,0.0,40.0,3.0,0.0
9572,95.0,0.0,40.0,1.0,0.0
9573,95.0,24.0,20.0,10.0,0.0
9574,76.0,6.0,40.0,7.0,0.0
9575,92.0,0.0,20.0,11.0,0.0
9576,80.0,0.0,40.0,2.0,0.0
9577,40.0,0.0,40.0,14.0,0.0
9578,71.0,0.0,40.0,5.0,0.0
9579,76.0,0.0,20.0,12.0,0.0
9580,64.0,0.0,40.0,5.0,0.0
9581,52.0,0.0,40.0,13.0,0.0
9582,92.0,0.0,40.0,0.0,0.0
9583,83.0,0.0,40.0,2.0,0.0
9584,76.0,0.0,20.0,12.0,0.0
9585,92.0,0.0,20.0,11.0,0.0
9586,95.0,30.0,20.0,10.0,0.0
9587,81.0,0.0,60.0,2.0,0.0
9588,76.0,0.0,20.0,12.0,0.0
9589,93.0,0.0,60.0,0.0,0.0
9590,81.0,0.0,40.0,7.0,0.0
9591,93.0,24.0,20.0,11.0,0.0
9592,73.0,0.0,40.0,5.0,0.0
9593,69.0,0.0,40.0,5.0,0.0
9594,45.0,0.0,20.0,8.0,0.0
9595,97.0,0.0,20.0,10.0,0.0
9596,45.0,0.0,60.0,14.0,0.0
9597,85.0,0.0,60.0,2.0,0.0
9598,69.0,0.0,60.0,4.0,0.0
9599,73.0,0.0,90.0,6.0,0.0
9600,69.0,6.0,40.0,7.0,0.0
9601,69.0,12.0,90.0,6.0,0.0
9602,85.0,0.0,60.0,3.0,0.0
9603,73.0,0.0,60.0,4.0,0.0
9604,81.0,24.0,60.0,3.0,0.0
9605,57.0,0.0,60.0,13.0,0.0
9606,97.0,0.0,60.0,1.0,0.0
9607,45.0,6.0,20.0,8.0,0.0
9608,93.0,0.0,20.0,11.0,0.0
9609,97.0,0.0,20.0,10.0,0.0
9610,76.0,0.0,20.0,12.0,0.0
9611,52.0,0.0,40.0,13.0,0.0
9612,95.0,0.0,20.0,10.0,0.0
9613,40.0,0.0,40.0,14.0,0.0
9614,92.0,0.0,40.0,0.0,0.0
9615,83.0,0.0,40.0,2.0,0.0
9616,71.0,0.0,40.0,4.0,0.0
9617,95.0,0.0,40.0,1.0,0.0
9618,76.0,12.0,20.0,12.0,0.0
9619,80.0,6.0,40.0,2.0,0.0
9620,76.0,0.0,40.0,7.0,0.0
9621,64.0,0.0,40.0,4.0,0.0
9622,83.0,0.0,40.0,3.0,0.0
9623,71.0,0.0,40.0,5.0,0.0
9624,45.0,0.0,20.0,8.0,0.0
9625,92.0,0.0,20.0,11.0,0.0
9626,64.0,0.0,40.0,5.0,0.0
9627,80.0,0.0,40.0,3.0,0.0
9628,76.0,0.0,20.0,12.0,0.0
9629,95.0,30.0,20.0,10.0,0.0
9630,45.0,0.0,20.0,8.0,0.0
9631,92.0,0.0,20.0,11.0,0.0
9632,88.0,0.0,40.0,0.0,0.0
9633,81.0,0.0,40.0,2.0,0.0
9634,49.0,0.0,40.0,13.0,0.0
9635,76.0,0.0,20.0,12.0,0.0
9636,76.0,0.0,40.0,2.0,0.0
9637,93.0,0.0,40.0,1.0,0.0
9638,37.0,6.0,40.0,14.0,0.0
9639,93.0,0.0,20.0,10.0,0.0
9640,61.0,0.0,40.0,4.0,0.0
9641,61.0,0.0,40.0,5.0,0.0
9642,76.0,0.0,40.0,3.0,0.0
9643,81.0,0.0,40.0,3.0,0.0
9644,73.0,0.0,40.0,7.0,0.0
9645,88.0,24.0,20.0,11.0,0.0
9646,69.0,0.0,40.0,5.0,0.0
9647,69.0,0.0,40.0,4.0,0.0
9648,76.0,30.0,20.0,12.0,0.0
9649,93.0,0.0,20.0,10.0,0.0
9650,88.0,0.0,20.0,11.0,0.0
9651,64.0,0.0,40.0,5.0,0.0
9652,71.0,0.0,40.0,5.0,0.0
9653,92.0,6.0,40.0,0.0,0.0
9654,92.0,24.0,20.0,11.0,0.0
9655,76.0,0.0,40.0,7.0,0.0
9656,71.0,0.0,40.0,4.0,0.0
9657,76.0,0.0,20.0,12.0,0.0
9658,95.0,0.0,40.0,1.0,0.0
9659,64.0,0.0,40.0,4.0,0.0
9660,95.0,0.0,20.0,10.0,0.0
9661,83.0,0.0,40.0,3.0,0.0
9662,80.0,0.0,40.0,2.0,0.0
9663,40.0,0.0,40.0,14.0,0.0
9664,83.0,0.0,40.0,2.0,0.0
9665,80.0,0.0,40.0,3.0,0.0
9666,52.0,0.0,40.0,13.0,0.0
9667,95.0,0.0,20.0,10.0,0.0
9668,92.0,30.0,20.0,11.0,0.0
9669,76.0,0.0,20.0,12.0,0.0
9670,57.0,0.0,60.0,13.0,0.0
9671,85.0,0.0,60.0,2.0,0.0
9672,69.0,0.0,40.0,7.0,0.0
9673,69.0,12.0,90.0,6.0,0.0
9674,45.0,0.0,20.0,8.0,0.0
9675,97.0,0.0,20.0,10.0,0.0
9676,97.0,0.0,60.0,1.0,0.0
9677,81.0,0.0,40.0,7.0,0.0
9678,69.0,0.0,60.0,4.0,0.0
9679,81.0,0.0,60.0,2.0,0.0
9680,85.0,0.0,60.0,3.0,0.0
9681,45.0,24.0,60.0,14.0,0.0
9682,73.0,0.0,90.0,6.0,0.0
9683,93.0,24.0,20.0,11.0,0.0
9684,73.0,0.0,40.0,5.0,0.0
9685,69.0,6.0,40.0,5.0,0.0
9686,81.0,0.0,60.0,3.0,0.0
9687,73.0,0.0,60.0,4.0,0.0
9688,93.0,0.0,60.0,0.0,0.0
9689,76.0,0.0,20.0,12.0,0.0
9690,97.0,0.0,20.0,10.0,0.0
9691,76.0,0.0,20.0,12.0,0.0
9692,93.0,6.0,20.0,11.0,0.0
9693,45.0,0.0,20.0,8.0,0.0
9694,80.0,0.0,40.0,3.0,0.0
9695,83.0,0.0,40.0,3.0,0.0
9696,45.0,0.0,20.0,8.0,0.0
9697,76.0,0.0,20.0,12.0,0.0
9698,83.0,0.0,40.0,2.0,0.0
9699,52.0,0.0,40.0,13.0,0.0
9700,64.0,0.0,40.0,5.0,0.0
9701,92.0,12.0,20.0,11.0,0.0
9702,95.0,0.0,20.0,10.0,0.0
9703,92.0,6.0,40.0,0.0,0.0
9704,95.0,0.0,40.0,1.0,0.0
9705,80.0,0.0,40.0,2.0,0.0
9706,64.0,0.0,40.0,4.0,0.0
9707,71.0,0.0,40.0,4.0,0.0
9708,40.0,0.0,40.0,14.0,0.0
9709,71.0,0.0,40.0,5.0,0.0
9710,76.0,0.0,40.0,7.0,0.0
9711,76.0,30.0,20.0,12.0,0.0
9712,92.0,0.0,20.0,11.0,0.0
9713,45.0,0.0,20.0,8.0,0.0
9714,95.0,0.0,20.0,10.0,0.0
9715,88.0,0.0,40.0,0.0,0.0
9716,61.0,0.0,40.0,5.0,0.0
9717,69.0,0.0,40.0,5.0,0.0
9718,88.0,0.0,20.0,11.0,0.0
9719,73.0,0.0,40.0,7.0,0.0
9720,61.0,0.0,40.0,4.0,0.0
9721,69.0,0.0,40.0,4.0,0.0
9722,76.0,0.0,40.0,2.0,0.0
9723,81.0,0.0,40.0,2.0,0.0
9724,93.0,0.0,40.0,1.0,0.0
9725,37.0,0.0,40.0,14.0,0.0
9726,93.0,0.0,20.0,10.0,0.0
9727,76.0,6.0,40.0,3.0,0.0
9728,81.0,0.0,40.0,3.0,0.0
9729,76.0,24.0,20.0,12.0,0.0
9730,49.0,0.0,40.0,13.0,0.0
9731,93.0,30.0,20.0,10.0,0.0
9732,88.0,0.0,20.0,11.0,0.0
9733,76.0,0.0,20.0,12.0,0.0
9734,92.0,24.0,20.0,11.0,0.0
9735,64.0,0.0,40.0,4.0,0.0
9736,71.0,0.0,40.0,4.0,0.0
9737,83.0,0.0,40.0,2.0,0.0
9738,95.0,0.0,20.0,10.0,0.0
9739,76.0,0.0,20.0,12.0,0.0
9740,40.0,0.0,40.0,14.0,0.0
9741,95.0,0.0,40.0,1.0,0.0
9742,64.0,0.0,40.0,5.0,0.0
9743,71.0,0.0,40.0,5.0,0.0
9744,83.0,0.0,40.0,3.0,0.0
9745,80.0,0.0,40.0,2.0,0.0
9746,52.0,6.0,40.0,13.0,0.0
9747,80.0,0.0,40.0,3.0,0.0
9748,92.0,0.0,40.0,0.0,0.0
9749,76.0,0.0,40.0,7.0,0.0
9750,92.0,0.0,20.0,11.0,0.0
9751,95.0,0.0,20.0,10.0,0.0
9752,76.0,30.0,20.0,12.0,0.0
9753,81.0,0.0,40.0,2.0,0.0
9754,85.0,0.0,40.0,2.0,0.0
9755,69.0,12.0,180.0,5.0,0.0
9756,73.0,0.0,180.0,5.0,0.0
9757,97.0,0.0,40.0,1.0,0.0
9758,73.0,0.0,40.0,4.0,0.0
9759,93.0,0.0,40.0,0.0,0.0
9760,76.0,6.0,40.0,12.0,0.0
9761,85.0,0.0,40.0,3.0,0.0
9762,69.0,0.0,90.0,6.0,0.0
9763,81.0,0.0,40.0,3.0,0.0
9764,69.0,0.0,40.0,4.0,0.0
9765,93.0,0.0,40.0,11.0,0.0
9766,45.0,12.0,90.0,8.0,0.0
9767,81.0,0.0,90.0,7.0,0.0
9768,69.0,0.0,90.0,7.0,0.0
9769,57.0,0.0,180.0,13.0,0.0
9770,97.0,24.0,20.0,10.0,0.0
9771,45.0,0.0,180.0,14.0,0.0
9772,97.0,30.0,20.0,10.0,0.0
9773,95.0,0.0,20.0,10.0,0.0
9774,95.0,0.0,40.0,1.0,0.0
9775,83.0,0.0,40.0,0.0,0.0
9776,71.0,0.0,40.0,3.0,0.0
9777,83.0,0.0,40.0,3.0,0.0
9778,71.0,0.0,20.0,12.0,0.0
9779,71.0,6.0,40.0,4.0,0.0
9780,83.0,12.0,20.0,11.0,0.0
9781,83.0,0.0,40.0,2.0,0.0
9782,71.0,30.0,20.0,12.0,0.0
9783,95.0,0.0,20.0,10.0,0.0
9784,83.0,0.0,20.0,11.0,0.0
9785,93.0,0.0,40.0,1.0,0.0
9786,69.0,0.0,40.0,6.0,0.0
9787,69.0,0.0,40.0,4.0,0.0
9788,81.0,6.0,40.0,0.0,0.0
9789,69.0,0.0,40.0,7.0,0.0
9790,69.0,0.0,40.0,3.0,0.0
9791,69.0,24.0,20.0,12.0,0.0
9792,81.0,0.0,20.0,11.0,0.0
9793,81.0,0.0,40.0,7.0,0.0
9794,57.0,12.0,90.0,4.0,0.0
9795,93.0,0.0,20.0,10.0,0.0
9796,81.0,0.0,40.0,2.0,0.0
9797,81.0,0.0,40.0,3.0,0.0
9798,69.0,0.0,20.0,12.0,0.0
9799,81.0,0.0,20.0,11.0,0.0
9800,93.0,18.0,20.0,10.0,0.0
9801,80.0,0.0,40.0,2.0,0.0
9802,69.0,0.0,40.0,7.0,0.0
9803,68.0,0.0,40.0,4.0,0.0
9804,81.0,0.0,40.0,7.0,0.0
9805,92.0,0.0,20.0,10.0,0.0
9806,80.0,0.0,40.0,3.0,0.0
9807,68.0,0.0,40.0,3.0,0.0
9808,80.0,12.0,20.0,11.0,0.0
9809,68.0,0.0,20.0,12.0,0.0
9810,92.0,6.0,40.0,1.0,0.0
9811,69.0,0.0,40.0,6.0,0.0
9812,80.0,0.0,40.0,0.0,0.0
9813,68.0,0.0,20.0,12.0,0.0
9814,80.0,0.0,20.0,11.0,0.0
9815,92.0,30.0,20.0,10.0,0.0
9816,81.0,0.0,40.0,2.0,0.0
9817,93.0,6.0,40.0,1.0,0.0
9818,45.0,0.0,90.0,8.0,0.0
9819,69.0,12.0,90.0,6.0,0.0
9820,81.0,0.0,20.0,11.0,0.0
9821,69.0,0.0,90.0,7.0,0.0
9822,81.0,0.0,40.0,3.0,0.0
9823,81.0,0.0,90.0,7.0,0.0
9824,69.0,0.0,180.0,5.0,0.0
9825,73.0,0.0,180.0,5.0,0.0
9826,69.0,0.0,40.0,3.0,0.0
9827,69.0,0.0,40.0,4.0,0.0
9828,54.0,0.0,180.0,4.0,0.0
9829,54.0,12.0,180.0,13.0,0.0
9830,42.0,0.0,180.0,14.0,0.0
9831,93.0,0.0,20.0,10.0,0.0
9832,69.0,24.0,20.0,12.0,0.0
9833,81.0,0.0,40.0,0.0,0.0
9834,81.0,30.0,20.0,11.0,0.0
9835,69.0,0.0,20.0,12.0,0.0
9836,93.0,0.0,20.0,10.0,0.0
9837,92.0,0.0,20.0,10.0,0.0
9838,80.0,0.0,40.0,0.0,0.0
9839,68.0,0.0,40.0,3.0,0.0
9840,68.0,6.0,40.0,4.0,0.0
9841,92.0,0.0,40.0,1.0,0.0
9842,80.0,0.0,40.0,3.0,0.0
9843,80.0,0.0,40.0,2.0,0.0
9844,68.0,0.0,20.0,12.0,0.0
9845,80.0,12.0,20.0,11.0,0.0
9846,92.0,30.0,20.0,10.0,0.0
9847,80.0,0.0,20.0,11.0,0.0
9848,68.0,0.0,20.0,12.0,0.0
9849,90.0,0.0,40.0,1.0,0.0
9850,69.0,0.0,40.0,6.0,0.0
9851,66.0,6.0,40.0,4.0,0.0
9852,81.0,0.0,40.0,7.0,0.0
9853,69.0,0.0,40.0,7.0,0.0
9854,90.0,0.0,20.0,10.0,0.0
9855,66.0,0.0,40.0,3.0,0.0
9856,66.0,24.0,20.0,12.0,0.0
9857,78.0,0.0,40.0,2.0,0.0
9858,78.0,0.0,40.0,3.0,0.0
9859,78.0,0.0,20.0,11.0,0.0
9860,78.0,0.0,40.0,0.0,0.0
9861,90.0,18.0,20.0,10.0,0.0
9862,78.0,0.0,20.0,11.0,0.0
9863,66.0,0.0,20.0,12.0,0.0
9864,77.0,0.0,20.0,11.0,0.0
9865,69.0,0.0,40.0,7.0,0.0
9866,77.0,0.0,40.0,3.0,0.0
9867,69.0,0.0,40.0,6.0,0.0
9868,81.0,0.0,40.0,7.0,0.0
9869,77.0,6.0,40.0,2.0,0.0
9870,89.0,0.0,40.0,1.0,0.0
9871,89.0,24.0,20.0,10.0,0.0
9872,65.0,0.0,40.0,4.0,0.0
9873,77.0,0.0,40.0,0.0,0.0
9874,65.0,0.0,20.0,12.0,0.0
9875,89.0,0.0,20.0,10.0,0.0
9876,65.0,30.0,20.0,12.0,0.0
9877,77.0,0.0,20.0,11.0,0.0
9878,81.0,0.0,90.0,7.0,0.0
9879,66.0,24.0,20.0,12.0,0.0
9880,78.0,6.0,40.0,0.0,0.0
9881,66.0,0.0,40.0,4.0,0.0
9882,50.0,0.0,90.0,4.0,0.0
9883,78.0,0.0,40.0,3.0,0.0
9884,90.0,0.0,40.0,1.0,0.0
9885,38.0,0.0,90.0,14.0,0.0
9886,78.0,0.0,40.0,2.0,0.0
9887,71.0,12.0,180.0,5.0,0.0
9888,69.0,0.0,180.0,5.0,0.0
9889,71.0,0.0,90.0,6.0,0.0
9890,78.0,0.0,20.0,11.0,0.0
9891,45.0,0.0,90.0,8.0,0.0
9892,90.0,0.0,20.0,10.0,0.0
9893,50.0,12.0,90.0,13.0,0.0
9894,83.0,0.0,90.0,7.0,0.0
9895,90.0,30.0,20.0,10.0,0.0
9896,78.0,0.0,20.0,11.0,0.0
9897,66.0,0.0,20.0,12.0,0.0
9898,88.0,0.0,20.0,10.0,0.0
9899,64.0,6.0,40.0,4.0,0.0
9900,76.0,0.0,40.0,3.0,0.0
9901,76.0,12.0,20.0,11.0,0.0
9902,100.0,0.0,40.0,1.0,0.0
9903,64.0,0.0,20.0,12.0,0.0
9904,76.0,0.0,40.0,2.0,0.0
9905,88.0,0.0,40.0,2.0,0.0
9906,88.0,0.0,40.0,0.0,0.0
9907,76.0,30.0,20.0,11.0,0.0
9908,88.0,0.0,20.0,10.0,0.0
9909,64.0,0.0,20.0,12.0,0.0
9910,74.0,0.0,40.0,3.0,0.0
9911,62.0,0.0,40.0,4.0,0.0
9912,86.0,0.0,20.0,10.0,0.0
9913,83.0,0.0,40.0,7.0,0.0
9914,81.0,6.0,40.0,7.0,0.0
9915,35.0,0.0,90.0,14.0,0.0
9916,47.0,0.0,90.0,13.0,0.0
9917,62.0,0.0,20.0,12.0,0.0
9918,74.0,0.0,40.0,2.0,0.0
9919,86.0,0.0,40.0,2.0,0.0
9920,98.0,0.0,40.0,1.0,0.0
9921,71.0,0.0,40.0,6.0,0.0
9922,86.0,0.0,40.0,0.0,0.0
9923,47.0,12.0,90.0,4.0,0.0
9924,74.0,24.0,20.0,11.0,0.0
9925,74.0,0.0,20.0,11.0,0.0
9926,86.0,18.0,20.0,10.0,0.0
9927,62.0,0.0,20.0,12.0,0.0
9928,83.0,0.0,40.0,7.0,0.0
9929,85.0,0.0,40.0,2.0,0.0
9930,81.0,0.0,40.0,7.0,0.0
9931,73.0,6.0,40.0,3.0,0.0
9932,85.0,0.0,40.0,0.0,0.0
9933,73.0,0.0,40.0,2.0,0.0
9934,73.0,0.0,20.0,11.0,0.0
9935,97.0,0.0,40.0,1.0,0.0
9936,61.0,12.0,20.0,12.0,0.0
9937,71.0,0.0,40.0,6.0,0.0
9938,85.0,0.0,20.0,10.0,0.0
9939,61.0,0.0,40.0,4.0,0.0
9940,85.0,30.0,20.0,10.0,0.0
9941,73.0,0.0,20.0,11.0,0.0
9942,61.0,0.0,20.0,12.0,0.0
9943,74.0,6.0,40.0,2.0,0.0
9944,86.0,0.0,40.0,0.0,0.0
9945,40.0,0.0,90.0,14.0,0.0
9946,74.0,0.0,20.0,11.0,0.0
9947,71.0,0.0,180.0,5.0,0.0
9948,64.0,12.0,180.0,5.0,0.0
9949,52.0,12.0,90.0,13.0,0.0
9950,86.0,0.0,20.0,10.0,0.0
9951,83.0,0.0,90.0,7.0,0.0
9952,86.0,0.0,40.0,2.0,0.0
9953,74.0,0.0,40.0,3.0,0.0
9954,52.0,0.0,90.0,8.0,0.0
9955,71.0,0.0,90.0,6.0,0.0
9956,52.0,0.0,90.0,4.0,0.0
9957,62.0,0.0,40.0,4.0,0.0
9958,62.0,24.0,20.0,12.0,0.0
9959,76.0,0.0,90.0,7.0,0.0
9960,98.0,0.0,40.0,1.0,0.0
9961,86.0,30.0,20.0,10.0,0.0
9962,74.0,0.0,20.0,11.0,0.0
9963,62.0,0.0,20.0,12.0,0.0
9964,59.0,0.0,40.0,4.0,0.0
9965,95.0,0.0,40.0,1.0,0.0
9966,59.0,0.0,20.0,12.0,0.0
9967,83.0,12.0,20.0,10.0,0.0
9968,83.0,6.0,40.0,2.0,0.0
9969,71.0,0.0,40.0,3.0,0.0
9970,71.0,0.0,40.0,2.0,0.0
9971,83.0,0.0,40.0,0.0,0.0
9972,71.0,0.0,20.0,11.0,0.0
9973,59.0,0.0,20.0,12.0,0.0
9974,71.0,0.0,20.0,11.0,0.0
9975,83.0,30.0,20.0,10.0,0.0
9976,76.0,24.0,20.0,11.0,0.0
9977,88.0,0.0,40.0,0.0,0.0
9978,40.0,0.0,90.0,14.0,0.0
9979,76.0,0.0,40.0,3.0,0.0
9980,52.0,12.0,90.0,13.0,0.0
9981,88.0,0.0,20.0,10.0,0.0
9982,52.0,0.0,90.0,4.0,0.0
9983,100.0,0.0,40.0,1.0,0.0
9984,76.0,0.0,40.0,7.0,0.0
9985,83.0,0.0,40.0,7.0,0.0
9986,64.0,0.0,40.0,4.0,0.0
9987,64.0,0.0,20.0,12.0,0.0
9988,71.0,0.0,40.0,6.0,0.0
9989,76.0,0.0,40.0,2.0,0.0
9990,88.0,6.0,40.0,2.0,0.0
9991,64.0,18.0,20.0,12.0,0.0
9992,88.0,0.0,20.0,10.0,0.0
9993,76.0,0.0,20.0,11.0,0.0
9994,88.0,0.0,40.0,0.0,0.0
9995,83.0,0.0,40.0,7.0,0.0
9996,100.0,6.0,40.0,1.0,0.0
9997,76.0,0.0,40.0,7.0,0.0
9998,71.0,0.0,40.0,6.0,0.0
9999,88.0,0.0,20.0,10.0,0.0
10000,64.0,0.0,40.0,4.0,0.0
10001,76.0,0.0,20.0,11.0,0.0
10002,76.0,0.0,40.0,2.0,0.0
10003,88.0,0.0,40.0,2.0,0.0
10004,64.0,12.0,20.0,12.0,0.0
10005,76.0,0.0,40.0,3.0,0.0
10006,76.0,0.0,20.0,11.0,0.0
10007,88.0,102.0,20.0,10.0,0.0
10008,64.0,0.0,20.0,12.0,0.0
10009,69.0,0.0,90.0,11.0,0.0
10010,81.0,0.0,90.0,10.0,0.0
10011,69.0,96.0,150.0,5.0,0.0
10012,45.0,17.0,90.0,8.0,0.0
10013,69.0,0.0,120.0,12.0,0.0
10014,81.0,0.0,90.0,2.0,0.0
10015,69.0,0.0,90.0,2.0,0.0
10016,81.0,0.0,90.0,0.0,0.0
10017,93.0,0.0,90.0,1.0,0.0
10018,69.0,0.0,120.0,13.0,0.0
10019,69.0,24.0,120.0,4.0,0.0
10020,81.0,0.0,120.0,7.0,0.0
10021,69.0,0.0,150.0,6.0,0.0
10022,69.0,7.0,120.0,7.0,0.0
10023,33.0,0.0,90.0,14.0,0.0
10024,69.0,0.0,90.0,3.0,0.0
10025,67.0,0.0,120.0,12.0,0.0
10026,67.0,0.0,120.0,13.0,0.0
10027,67.0,120.0,120.0,4.0,0.0
10028,66.0,96.0,120.0,4.0,0.0
10029,66.0,0.0,120.0,13.0,0.0
10030,66.0,0.0,120.0,12.0,0.0
10031,70.0,144.0,90.0,12.0,0.0
10032,70.0,0.0,90.0,13.0,0.0
10033,70.0,0.0,90.0,4.0,0.0
10034,71.0,96.0,150.0,6.0,0.0
10035,71.0,0.0,150.0,5.0,0.0
10036,71.0,0.0,120.0,4.0,0.0
10037,71.0,0.0,120.0,12.0,0.0
10038,71.0,24.0,120.0,13.0,0.0
10039,65.0,120.0,120.0,4.0,0.0
10040,65.0,0.0,120.0,12.0,0.0
10041,65.0,0.0,120.0,13.0,0.0
10042,64.0,96.0,120.0,4.0,0.0
10043,64.0,0.0,120.0,13.0,0.0
10044,64.0,0.0,120.0,12.0,0.0
10045,68.0,0.0,90.0,12.0,0.0
10046,68.0,0.0,90.0,13.0,0.0
10047,68.0,108.0,90.0,4.0,0.0
10048,69.0,24.0,120.0,12.0,0.0
10049,69.0,0.0,120.0,13.0,0.0
10050,69.0,24.0,150.0,6.0,0.0
10051,69.0,0.0,120.0,4.0,0.0
10052,69.0,0.0,150.0,5.0,0.0
10053,85.0,30.0,20.0,10.0,0.0
10054,86.0,6.0,20.0,10.0,0.0
10055,67.0,0.0,120.0,13.0,0.0
10056,88.0,60.0,40.0,10.0,0.0
10057,67.0,48.0,120.0,4.0,0.0
10058,67.0,0.0,120.0,12.0,0.0
10059,88.0,12.0,40.0,10.0,0.0
10060,66.0,48.0,120.0,4.0,0.0
10061,88.0,28.0,40.0,10.0,0.0
10062,66.0,0.0,120.0,12.0,0.0
10063,66.0,0.0,120.0,13.0,0.0
10064,85.0,20.0,15.0,10.0,0.0
10065,86.0,20.0,15.0,10.0,0.0
10066,88.0,4.0,15.0,10.0,0.0
10067,70.0,0.0,90.0,13.0,0.0
10068,90.0,48.0,40.0,10.0,0.0
10069,70.0,12.0,90.0,12.0,0.0
10070,70.0,0.0,90.0,4.0,0.0
10071,88.0,60.0,40.0,10.0,0.0
10072,71.0,24.0,150.0,5.0,0.0
10073,71.0,24.0,120.0,4.0,0.0
10074,71.0,0.0,120.0,12.0,0.0
10075,71.0,0.0,120.0,13.0,0.0
10076,71.0,0.0,150.0,6.0,0.0
10077,86.0,36.0,40.0,10.0,0.0
10078,83.0,30.0,20.0,10.0,0.0
10079,85.0,6.0,20.0,10.0,0.0
10080,65.0,0.0,120.0,12.0,0.0
10081,86.0,60.0,40.0,10.0,0.0
10082,65.0,0.0,120.0,13.0,0.0
10083,65.0,48.0,120.0,4.0,0.0
10084,86.0,12.0,40.0,10.0,0.0
10085,64.0,0.0,120.0,4.0,0.0
10086,86.0,28.0,40.0,10.0,0.0
10087,64.0,0.0,120.0,12.0,0.0
10088,64.0,48.0,120.0,13.0,0.0
10089,83.0,20.0,15.0,10.0,0.0
10090,85.0,20.0,15.0,10.0,0.0
10091,86.0,4.0,15.0,10.0,0.0
10092,68.0,0.0,90.0,4.0,0.0
10093,68.0,12.0,90.0,13.0,0.0
10094,88.0,48.0,40.0,10.0,0.0
10095,68.0,0.0,90.0,12.0,0.0
10096,86.0,60.0,40.0,10.0,0.0
10097,69.0,0.0,150.0,6.0,0.0
10098,69.0,24.0,120.0,13.0,0.0
10099,69.0,0.0,120.0,4.0,0.0
10100,69.0,0.0,120.0,12.0,0.0
10101,69.0,24.0,150.0,5.0,0.0
10102,85.0,36.0,40.0,10.0,0.0
10103,73.0,0.0,20.0,11.0,0.0
10104,97.0,0.0,20.0,1.0,0.0
10105,85.0,30.0,20.0,10.0,0.0
10106,98.0,0.0,20.0,1.0,0.0
10107,74.0,6.0,20.0,11.0,0.0
10108,86.0,0.0,20.0,10.0,0.0
10109,67.0,0.0,120.0,4.0,0.0
10110,100.0,12.0,90.0,1.0,0.0
10111,67.0,0.0,120.0,12.0,0.0
10112,76.0,48.0,40.0,11.0,0.0
10113,67.0,48.0,120.0,13.0,0.0
10114,88.0,0.0,40.0,10.0,0.0
10115,88.0,0.0,40.0,10.0,0.0
10116,76.0,12.0,40.0,11.0,0.0
10117,76.0,0.0,40.0,11.0,0.0
10118,66.0,0.0,120.0,12.0,0.0
10119,66.0,48.0,120.0,4.0,0.0
10120,66.0,0.0,120.0,13.0,0.0
10121,88.0,28.0,40.0,10.0,0.0
10122,73.0,20.0,15.0,11.0,0.0
10123,85.0,0.0,15.0,10.0,0.0
10124,97.0,0.0,15.0,1.0,0.0
10125,98.0,0.0,15.0,1.0,0.0
10126,74.0,20.0,15.0,11.0,0.0
10127,86.0,0.0,15.0,10.0,0.0
10128,76.0,0.0,15.0,11.0,0.0
10129,88.0,0.0,15.0,10.0,0.0
10130,100.0,4.0,15.0,1.0,0.0
10131,70.0,0.0,90.0,13.0,0.0
10132,70.0,0.0,90.0,12.0,0.0
10133,78.0,0.0,40.0,11.0,0.0
10134,102.0,0.0,90.0,1.0,0.0
10135,90.0,48.0,40.0,10.0,0.0
10136,70.0,12.0,90.0,4.0,0.0
10137,88.0,60.0,40.0,10.0,0.0
10138,76.0,0.0,40.0,11.0,0.0
10139,71.0,0.0,150.0,6.0,0.0
10140,71.0,24.0,150.0,5.0,0.0
10141,86.0,0.0,40.0,10.0,0.0
10142,71.0,24.0,120.0,13.0,0.0
10143,74.0,36.0,40.0,11.0,0.0
10144,71.0,0.0,120.0,4.0,0.0
10145,71.0,0.0,120.0,12.0,0.0
10146,71.0,0.0,20.0,11.0,0.0
10147,95.0,30.0,20.0,1.0,0.0
10148,83.0,0.0,20.0,10.0,0.0
10149,85.0,0.0,20.0,10.0,0.0
10150,73.0,6.0,20.0,11.0,0.0
10151,97.0,0.0,20.0,1.0,0.0
10152,65.0,0.0,120.0,4.0,0.0
10153,86.0,48.0,40.0,10.0,0.0
10154,65.0,48.0,120.0,13.0,0.0
10155,98.0,12.0,90.0,1.0,0.0
10156,74.0,0.0,40.0,11.0,0.0
10157,65.0,0.0,120.0,12.0,0.0
10158,86.0,12.0,40.0,10.0,0.0
10159,74.0,0.0,40.0,11.0,0.0
10160,64.0,48.0,120.0,13.0,0.0
10161,74.0,0.0,40.0,11.0,0.0
10162,86.0,28.0,40.0,10.0,0.0
10163,64.0,0.0,120.0,12.0,0.0
10164,64.0,0.0,120.0,4.0,0.0
10165,71.0,20.0,15.0,11.0,0.0
10166,95.0,0.0,15.0,1.0,0.0
10167,83.0,0.0,15.0,10.0,0.0
10168,85.0,0.0,15.0,10.0,0.0
10169,97.0,20.0,15.0,1.0,0.0
10170,73.0,0.0,15.0,11.0,0.0
10171,74.0,0.0,15.0,11.0,0.0
10172,98.0,4.0,15.0,1.0,0.0
10173,86.0,0.0,15.0,10.0,0.0
10174,68.0,0.0,90.0,12.0,0.0
10175,76.0,0.0,40.0,11.0,0.0
10176,68.0,0.0,90.0,13.0,0.0
10177,88.0,48.0,40.0,10.0,0.0
10178,100.0,12.0,90.0,1.0,0.0
10179,68.0,0.0,90.0,4.0,0.0
10180,74.0,36.0,40.0,11.0,0.0
10181,86.0,0.0,40.0,10.0,0.0
10182,45.0,0.0,120.0,14.0,0.0
10183,97.0,0.0,40.0,1.0,0.0
10184,69.0,0.0,150.0,5.0,0.0
10185,57.0,24.0,120.0,12.0,0.0
10186,73.0,0.0,20.0,11.0,0.0
10187,85.0,24.0,20.0,10.0,0.0
10188,69.0,0.0,150.0,6.0,0.0
10189,69.0,6.0,40.0,4.0,0.0
10190,45.0,0.0,120.0,13.0,0.0
10191,85.0,0.0,20.0,10.0,0.0
10192,73.0,30.0,20.0,11.0,0.0
10193,98.0,6.0,40.0,1.0,0.0
10194,61.0,0.0,20.0,4.0,0.0
10195,86.0,6.0,20.0,10.0,0.0
10196,85.0,0.0,30.0,0.0,0.0
10197,85.0,0.0,30.0,2.0,0.0
10198,74.0,0.0,20.0,11.0,0.0
10199,73.0,18.0,30.0,3.0,0.0
10200,86.0,6.0,20.0,2.0,0.0
10201,74.0,0.0,20.0,3.0,0.0
10202,86.0,0.0,20.0,10.0,0.0
10203,86.0,0.0,20.0,0.0,0.0
10204,74.0,0.0,20.0,11.0,0.0
10205,62.0,0.0,20.0,4.0,0.0
10206,100.0,0.0,40.0,1.0,0.0
10207,88.0,0.0,20.0,10.0,0.0
10208,43.0,0.0,120.0,14.0,0.0
10209,76.0,24.0,20.0,11.0,0.0
10210,88.0,0.0,40.0,2.0,0.0
10211,76.0,0.0,40.0,3.0,0.0
10212,55.0,0.0,120.0,12.0,0.0
10213,43.0,24.0,120.0,13.0,0.0
10214,64.0,0.0,40.0,4.0,0.0
10215,88.0,6.0,40.0,0.0,0.0
10216,88.0,30.0,20.0,10.0,0.0
10217,76.0,0.0,20.0,11.0,0.0
10218,101.0,6.0,40.0,1.0,0.0
10219,77.0,24.0,20.0,11.0,0.0
10220,89.0,0.0,20.0,10.0,0.0
10221,77.0,6.0,20.0,11.0,0.0
10222,89.0,0.0,20.0,10.0,0.0
10223,78.0,0.0,20.0,11.0,0.0
10224,69.0,6.0,40.0,6.0,0.0
10225,69.0,0.0,40.0,5.0,0.0
10226,42.0,24.0,120.0,13.0,0.0
10227,90.0,24.0,20.0,10.0,0.0
10228,102.0,0.0,40.0,1.0,0.0
10229,42.0,0.0,120.0,14.0,0.0
10230,54.0,0.0,120.0,12.0,0.0
10231,78.0,0.0,20.0,11.0,0.0
10232,90.0,22.0,20.0,10.0,0.0
10233,85.0,0.0,15.0,0.0,0.0
10234,61.0,8.0,15.0,4.0,0.0
10235,73.0,0.0,15.0,3.0,0.0
10236,76.0,0.0,20.0,11.0,0.0
10237,85.0,0.0,15.0,2.0,0.0
10238,88.0,12.0,20.0,10.0,0.0
10239,100.0,6.0,40.0,1.0,0.0
10240,86.0,0.0,15.0,0.0,0.0
10241,86.0,0.0,15.0,2.0,0.0
10242,62.0,12.0,15.0,4.0,0.0
10243,74.0,0.0,15.0,3.0,0.0
10244,88.0,0.0,20.0,10.0,0.0
10245,76.0,2.0,20.0,11.0,0.0
10246,64.0,0.0,15.0,4.0,0.0
10247,88.0,4.0,15.0,2.0,0.0
10248,76.0,0.0,15.0,3.0,0.0
10249,88.0,0.0,15.0,0.0,0.0
10250,90.0,0.0,40.0,2.0,0.0
10251,46.0,0.0,90.0,13.0,0.0
10252,86.0,24.0,20.0,10.0,0.0
10253,78.0,0.0,40.0,3.0,0.0
10254,66.0,0.0,40.0,4.0,0.0
10255,90.0,0.0,40.0,0.0,0.0
10256,98.0,6.0,40.0,1.0,0.0
10257,74.0,0.0,20.0,11.0,0.0
10258,46.0,0.0,90.0,14.0,0.0
10259,58.0,12.0,90.0,12.0,0.0
10260,74.0,30.0,20.0,11.0,0.0
10261,86.0,0.0,20.0,10.0,0.0
10262,85.0,0.0,20.0,10.0,0.0
10263,97.0,6.0,40.0,1.0,0.0
10264,73.0,12.0,20.0,11.0,0.0
10265,73.0,0.0,20.0,11.0,0.0
10266,85.0,30.0,20.0,10.0,0.0
10267,71.0,0.0,150.0,5.0,0.0
10268,47.0,0.0,120.0,13.0,0.0
10269,86.0,0.0,20.0,10.0,0.0
10270,74.0,24.0,20.0,11.0,0.0
10271,59.0,0.0,120.0,12.0,0.0
10272,71.0,0.0,150.0,6.0,0.0
10273,47.0,24.0,120.0,14.0,0.0
10274,98.0,6.0,40.0,1.0,0.0
10275,86.0,30.0,20.0,10.0,0.0
10276,74.0,0.0,20.0,11.0,0.0
10277,71.0,0.0,30.0,3.0,0.0
10278,97.0,6.0,40.0,1.0,0.0
10279,73.0,6.0,20.0,11.0,0.0
10280,83.0,0.0,30.0,2.0,0.0
10281,85.0,0.0,20.0,10.0,0.0
10282,83.0,0.0,30.0,0.0,0.0
10283,59.0,18.0,30.0,4.0,0.0
10284,85.0,6.0,20.0,2.0,0.0
10285,61.0,0.0,20.0,4.0,0.0
10286,85.0,0.0,20.0,10.0,0.0
10287,85.0,0.0,20.0,0.0,0.0
10288,73.0,0.0,20.0,11.0,0.0
10289,73.0,0.0,20.0,3.0,0.0
10290,74.0,0.0,40.0,3.0,0.0
10291,71.0,24.0,20.0,11.0,0.0
10292,53.0,0.0,120.0,12.0,0.0
10293,62.0,0.0,40.0,4.0,0.0
10294,41.0,24.0,120.0,13.0,0.0
10295,83.0,0.0,20.0,10.0,0.0
10296,86.0,0.0,40.0,0.0,0.0
10297,95.0,0.0,40.0,1.0,0.0
10298,86.0,6.0,40.0,2.0,0.0
10299,41.0,0.0,120.0,14.0,0.0
10300,83.0,0.0,20.0,10.0,0.0
10301,71.0,30.0,20.0,11.0,0.0
10302,97.0,6.0,40.0,1.0,0.0
10303,85.0,24.0,20.0,10.0,0.0
10304,73.0,0.0,20.0,11.0,0.0
10305,85.0,6.0,20.0,10.0,0.0
10306,73.0,0.0,20.0,11.0,0.0
10307,40.0,0.0,120.0,14.0,0.0
10308,71.0,0.0,40.0,5.0,0.0
10309,74.0,24.0,20.0,11.0,0.0
10310,71.0,6.0,40.0,6.0,0.0
10311,86.0,0.0,20.0,10.0,0.0
10312,98.0,0.0,40.0,1.0,0.0
10313,40.0,0.0,120.0,13.0,0.0
10314,86.0,0.0,20.0,10.0,0.0
10315,74.0,26.0,20.0,11.0,0.0
10316,59.0,0.0,20.0,4.0,0.0
10317,83.0,0.0,20.0,0.0,0.0
10318,83.0,4.0,20.0,2.0,0.0
10319,76.0,16.0,20.0,11.0,0.0
10320,100.0,6.0,40.0,1.0,0.0
10321,71.0,0.0,20.0,3.0,0.0
10322,88.0,0.0,20.0,10.0,0.0
10323,73.0,0.0,20.0,3.0,0.0
10324,61.0,0.0,20.0,4.0,0.0
10325,85.0,0.0,20.0,0.0,0.0
10326,85.0,8.0,20.0,2.0,0.0
10327,76.0,0.0,20.0,11.0,0.0
10328,88.0,2.0,20.0,10.0,0.0
10329,86.0,0.0,15.0,0.0,0.0
10330,62.0,0.0,15.0,4.0,0.0
10331,86.0,0.0,15.0,2.0,0.0
10332,74.0,4.0,15.0,3.0,0.0
10333,88.0,0.0,40.0,2.0,0.0
10334,90.0,0.0,20.0,10.0,0.0
10335,38.0,12.0,90.0,14.0,0.0
10336,88.0,6.0,40.0,0.0,0.0
10337,50.0,0.0,90.0,13.0,0.0
10338,52.0,24.0,15.0,12.0,0.0
10339,64.0,0.0,40.0,4.0,0.0
10340,76.0,0.0,40.0,3.0,0.0
10341,64.0,0.0,90.0,12.0,0.0
10342,102.0,0.0,40.0,1.0,0.0
10343,78.0,24.0,20.0,11.0,0.0
10344,90.0,30.0,20.0,10.0,0.0
10345,78.0,0.0,20.0,11.0,0.0
10346,76.0,6.0,40.0,3.0,0.0
10347,88.0,0.0,40.0,2.0,0.0
10348,104.0,0.0,40.0,1.0,0.0
10349,64.0,0.0,40.0,4.0,0.0
10350,92.0,0.0,20.0,10.0,0.0
10351,80.0,12.0,20.0,11.0,0.0
10352,88.0,0.0,40.0,0.0,0.0
10353,92.0,0.0,20.0,10.0,0.0
10354,80.0,38.0,20.0,11.0,0.0
10355,69.0,0.0,120.0,3.0,0.0
10356,81.0,0.0,120.0,2.0,0.0
10357,69.0,0.0,120.0,4.0,0.0
10358,49.0,0.0,40.0,13.0,0.0
10359,69.0,0.0,40.0,6.0,0.0
10360,81.0,16.0,30.0,11.0,0.0
10361,61.0,0.0,40.0,12.0,0.0
10362,93.0,0.0,30.0,10.0,0.0
10363,81.0,0.0,90.0,7.0,0.0
10364,69.0,0.0,90.0,7.0,0.0
10365,93.0,0.0,120.0,1.0,0.0
10366,45.0,12.0,90.0,8.0,0.0
10367,37.0,0.0,40.0,14.0,0.0
10368,57.0,32.0,120.0,4.0,0.0
10369,81.0,0.0,120.0,3.0,0.0
10370,93.0,0.0,120.0,0.0,0.0
10371,69.0,24.0,40.0,5.0,0.0
10372,93.0,24.0,30.0,10.0,0.0
10373,81.0,0.0,30.0,11.0,0.0
10374,69.0,0.0,40.0,5.0,0.0
10375,61.0,0.0,40.0,12.0,0.0
10376,37.0,0.0,40.0,14.0,0.0
10377,49.0,4.0,40.0,13.0,0.0
10378,69.0,0.0,40.0,6.0,0.0
10379,93.0,0.0,30.0,10.0,0.0
10380,81.0,8.0,30.0,11.0,0.0
10381,50.0,24.0,40.0,13.0,0.0
10382,79.0,0.0,120.0,2.0,0.0
10383,81.0,0.0,90.0,7.0,0.0
10384,62.0,0.0,40.0,12.0,0.0
10385,69.0,12.0,90.0,7.0,0.0
10386,79.0,0.0,120.0,3.0,0.0
10387,67.0,0.0,120.0,3.0,0.0
10388,79.0,16.0,30.0,11.0,0.0
10389,38.0,0.0,40.0,14.0,0.0
10390,91.0,0.0,120.0,0.0,0.0
10391,45.0,0.0,90.0,8.0,0.0
10392,67.0,0.0,120.0,4.0,0.0
10393,91.0,32.0,120.0,1.0,0.0
10394,55.0,0.0,120.0,4.0,0.0
10395,91.0,0.0,30.0,10.0,0.0
10396,79.0,0.0,30.0,11.0,0.0
10397,91.0,24.0,30.0,10.0,0.0
10398,52.0,0.0,40.0,13.0,0.0
10399,64.0,0.0,40.0,12.0,0.0
10400,40.0,4.0,40.0,14.0,0.0
10401,79.0,0.0,30.0,11.0,0.0
10402,91.0,8.0,30.0,10.0,0.0
10403,42.0,0.0,40.0,14.0,0.0
10404,78.0,0.0,120.0,2.0,0.0
10405,90.0,0.0,120.0,0.0,0.0
10406,90.0,0.0,30.0,10.0,0.0
10407,54.0,0.0,120.0,4.0,0.0
10408,66.0,0.0,120.0,4.0,0.0
10409,66.0,0.0,40.0,12.0,0.0
10410,78.0,16.0,30.0,11.0,0.0
10411,45.0,0.0,40.0,8.0,0.0
10412,54.0,0.0,40.0,13.0,0.0
10413,81.0,0.0,40.0,7.0,0.0
10414,78.0,0.0,120.0,3.0,0.0
10415,66.0,32.0,120.0,3.0,0.0
10416,69.0,0.0,40.0,7.0,0.0
10417,69.0,0.0,40.0,6.0,0.0
10418,90.0,0.0,120.0,1.0,0.0
10419,69.0,24.0,40.0,5.0,0.0
10420,78.0,36.0,30.0,11.0,0.0
10421,90.0,0.0,30.0,10.0,0.0
10422,52.0,0.0,40.0,13.0,0.0
10423,69.0,4.0,40.0,6.0,0.0
10424,69.0,0.0,40.0,5.0,0.0
10425,64.0,0.0,40.0,12.0,0.0
10426,40.0,0.0,40.0,14.0,0.0
10427,78.0,0.0,30.0,11.0,0.0
10428,90.0,8.0,30.0,10.0,0.0
10429,70.0,12.0,90.0,4.0,0.0
10430,38.0,0.0,40.0,14.0,0.0
10431,94.0,0.0,90.0,1.0,0.0
10432,94.0,0.0,90.0,0.0,0.0
10433,50.0,0.0,40.0,13.0,0.0
10434,82.0,0.0,90.0,2.0,0.0
10435,58.0,0.0,90.0,4.0,0.0
10436,82.0,16.0,30.0,11.0,0.0
10437,82.0,0.0,90.0,3.0,0.0
10438,94.0,0.0,30.0,10.0,0.0
10439,70.0,0.0,90.0,3.0,0.0
10440,62.0,24.0,40.0,12.0,0.0
10441,82.0,24.0,30.0,11.0,0.0
10442,94.0,0.0,30.0,10.0,0.0
10443,37.0,0.0,40.0,14.0,0.0
10444,49.0,0.0,40.0,13.0,0.0
10445,61.0,4.0,40.0,12.0,0.0
10446,94.0,40.0,30.0,10.0,0.0
10447,82.0,0.0,30.0,11.0,0.0
10448,71.0,32.0,120.0,4.0,0.0
10449,95.0,16.0,30.0,10.0,0.0
10450,71.0,0.0,40.0,6.0,0.0
10451,95.0,0.0,120.0,0.0,0.0
10452,71.0,0.0,40.0,5.0,0.0
10453,83.0,0.0,120.0,2.0,0.0
10454,38.0,0.0,40.0,14.0,0.0
10455,83.0,0.0,30.0,11.0,0.0
10456,62.0,24.0,40.0,12.0,0.0
10457,83.0,0.0,120.0,3.0,0.0
10458,50.0,0.0,40.0,13.0,0.0
10459,59.0,12.0,90.0,4.0,0.0
10460,71.0,0.0,120.0,3.0,0.0
10461,95.0,0.0,120.0,1.0,0.0
10462,95.0,24.0,30.0,10.0,0.0
10463,83.0,0.0,30.0,11.0,0.0
10464,71.0,0.0,40.0,6.0,0.0
10465,37.0,0.0,40.0,14.0,0.0
10466,52.0,0.0,40.0,12.0,0.0
10467,49.0,4.0,40.0,13.0,0.0
10468,71.0,0.0,40.0,5.0,0.0
10469,83.0,8.0,30.0,11.0,0.0
10470,95.0,0.0,30.0,10.0,0.0
10471,89.0,0.0,120.0,0.0,0.0
10472,77.0,0.0,120.0,3.0,0.0
10473,65.0,0.0,120.0,3.0,0.0
10474,89.0,0.0,120.0,1.0,0.0
10475,65.0,32.0,120.0,4.0,0.0
10476,50.0,24.0,40.0,13.0,0.0
10477,53.0,0.0,40.0,12.0,0.0
10478,89.0,16.0,30.0,10.0,0.0
10479,62.0,24.0,180.0,4.0,0.0
10480,77.0,0.0,120.0,2.0,0.0
10481,38.0,0.0,40.0,14.0,0.0
10482,77.0,0.0,30.0,11.0,0.0
10483,77.0,0.0,30.0,11.0,0.0
10484,89.0,36.0,30.0,10.0,0.0
10485,47.0,0.0,40.0,13.0,0.0
10486,62.0,4.0,40.0,12.0,0.0
10487,35.0,0.0,40.0,14.0,0.0
10488,89.0,0.0,30.0,10.0,0.0
10489,77.0,8.0,30.0,11.0,0.0
10490,88.0,0.0,120.0,1.0,0.0
10491,71.0,0.0,40.0,6.0,0.0
10492,64.0,0.0,90.0,7.0,0.0
10493,88.0,0.0,120.0,0.0,0.0
10494,56.0,0.0,40.0,12.0,0.0
10495,88.0,0.0,30.0,10.0,0.0
10496,52.0,12.0,90.0,8.0,0.0
10497,76.0,16.0,30.0,11.0,0.0
10498,76.0,0.0,90.0,7.0,0.0
10499,40.0,0.0,40.0,14.0,0.0
10500,52.0,24.0,40.0,13.0,0.0
10501,76.0,0.0,120.0,2.0,0.0
10502,64.0,0.0,120.0,3.0,0.0
10503,76.0,32.0,120.0,3.0,0.0
10504,64.0,0.0,120.0,4.0,0.0
10505,71.0,0.0,40.0,5.0,0.0
10506,88.0,0.0,30.0,10.0,0.0
10507,76.0,0.0,30.0,11.0,0.0
10508,71.0,4.0,40.0,6.0,0.0
10509,71.0,0.0,40.0,5.0,0.0
10510,40.0,0.0,40.0,13.0,0.0
10511,59.0,0.0,40.0,12.0,0.0
10512,40.0,0.0,40.0,14.0,0.0
10513,88.0,8.0,30.0,10.0,0.0
10514,76.0,0.0,30.0,11.0,0.0
10515,92.0,0.0,90.0,1.0,0.0
10516,80.0,0.0,90.0,2.0,0.0
10517,52.0,0.0,40.0,13.0,0.0
10518,76.0,0.0,90.0,7.0,0.0
10519,80.0,0.0,30.0,11.0,0.0
10520,68.0,0.0,90.0,3.0,0.0
10521,80.0,12.0,90.0,3.0,0.0
10522,64.0,0.0,90.0,7.0,0.0
10523,59.0,24.0,40.0,12.0,0.0
10524,92.0,0.0,90.0,0.0,0.0
10525,59.0,0.0,90.0,4.0,0.0
10526,68.0,0.0,90.0,4.0,0.0
10527,92.0,16.0,30.0,10.0,0.0
10528,52.0,0.0,90.0,8.0,0.0
10529,40.0,0.0,40.0,14.0,0.0
10530,92.0,0.0,30.0,10.0,0.0
10531,80.0,24.0,30.0,11.0,0.0
10532,64.0,4.0,40.0,12.0,0.0
10533,52.0,0.0,40.0,13.0,0.0
10534,40.0,0.0,40.0,14.0,0.0
10535,92.0,0.0,30.0,10.0,0.0
10536,80.0,40.0,30.0,11.0,0.0
10537,93.0,0.0,180.0,0.0,0.0
10538,69.0,40.0,180.0,3.0,0.0
10539,33.0,0.0,180.0,14.0,0.0
10540,45.0,0.0,180.0,13.0,0.0
10541,69.0,0.0,90.0,7.0,0.0
10542,81.0,0.0,90.0,7.0,0.0
10543,69.0,0.0,180.0,6.0,0.0
10544,81.0,0.0,30.0,11.0,0.0
10545,45.0,16.0,90.0,8.0,0.0
10546,93.0,0.0,180.0,1.0,0.0
10547,52.0,0.0,180.0,5.0,0.0
10548,81.0,0.0,180.0,2.0,0.0
10549,93.0,40.0,30.0,10.0,0.0
10550,57.0,0.0,180.0,4.0,0.0
10551,64.0,0.0,180.0,5.0,0.0
10552,57.0,0.0,180.0,12.0,0.0
10553,93.0,24.0,30.0,10.0,0.0
10554,81.0,0.0,30.0,11.0,0.0
10555,81.0,0.0,30.0,11.0,0.0
10556,93.0,40.0,30.0,10.0,0.0
10557,81.0,0.0,30.0,11.0,0.0
10558,93.0,40.0,30.0,10.0,0.0
10559,81.0,0.0,30.0,11.0,0.0
10560,93.0,0.0,30.0,10.0,0.0
10561,81.0,40.0,30.0,11.0,0.0
10562,93.0,0.0,30.0,10.0,0.0
10563,95.0,40.0,30.0,10.0,0.0
10564,64.0,0.0,180.0,5.0,0.0
10565,59.0,0.0,180.0,4.0,0.0
10566,56.0,0.0,180.0,4.0,0.0
10567,71.0,0.0,180.0,3.0,0.0
10568,71.0,0.0,180.0,6.0,0.0
10569,32.0,40.0,180.0,14.0,0.0
10570,83.0,0.0,180.0,2.0,0.0
10571,56.0,0.0,180.0,12.0,0.0
10572,52.0,0.0,180.0,5.0,0.0
10573,52.0,0.0,90.0,8.0,0.0
10574,44.0,0.0,180.0,13.0,0.0
10575,95.0,0.0,180.0,1.0,0.0
10576,88.0,0.0,180.0,0.0,0.0
10577,83.0,0.0,30.0,11.0,0.0
10578,76.0,0.0,90.0,7.0,0.0
10579,64.0,16.0,90.0,7.0,0.0
10580,83.0,24.0,30.0,11.0,0.0
10581,95.0,0.0,30.0,10.0,0.0
10582,95.0,40.0,30.0,10.0,0.0
10583,83.0,0.0,30.0,11.0,0.0
10584,83.0,40.0,30.0,11.0,0.0
10585,95.0,0.0,30.0,10.0,0.0
10586,95.0,0.0,30.0,10.0,0.0
10587,83.0,0.0,30.0,11.0,0.0
10588,95.0,0.0,30.0,10.0,0.0
10589,83.0,40.0,30.0,11.0,0.0
10590,73.0,0.0,180.0,3.0,0.0
10591,33.0,0.0,180.0,14.0,0.0
10592,57.0,0.0,180.0,12.0,0.0
10593,64.0,0.0,180.0,5.0,0.0
10594,69.0,0.0,180.0,6.0,0.0
10595,52.0,0.0,180.0,5.0,0.0
10596,61.0,40.0,180.0,4.0,0.0
10597,85.0,0.0,180.0,2.0,0.0
10598,76.0,0.0,90.0,7.0,0.0
10599,45.0,0.0,180.0,13.0,0.0
10600,57.0,0.0,180.0,4.0,0.0
10601,97.0,0.0,180.0,1.0,0.0
10602,88.0,0.0,180.0,0.0,0.0
10603,64.0,0.0,90.0,7.0,0.0
10604,52.0,16.0,90.0,8.0,0.0
10605,97.0,0.0,30.0,10.0,0.0
10606,85.0,40.0,30.0,11.0,0.0
10607,97.0,0.0,30.0,10.0,0.0
10608,85.0,24.0,30.0,11.0,0.0
10609,97.0,40.0,30.0,10.0,0.0
10610,85.0,0.0,30.0,11.0,0.0
10611,97.0,0.0,30.0,10.0,0.0
10612,85.0,40.0,30.0,11.0,0.0
10613,85.0,0.0,30.0,11.0,0.0
10614,97.0,0.0,30.0,10.0,0.0
10615,97.0,0.0,30.0,10.0,0.0
10616,85.0,40.0,30.0,11.0,0.0
10617,86.0,0.0,180.0,2.0,0.0
10618,64.0,16.0,90.0,7.0,0.0
10619,59.0,0.0,180.0,12.0,0.0
10620,52.0,0.0,180.0,5.0,0.0
10621,47.0,0.0,180.0,13.0,0.0
10622,59.0,0.0,180.0,4.0,0.0
10623,74.0,0.0,180.0,3.0,0.0
10624,98.0,40.0,30.0,10.0,0.0
10625,76.0,0.0,90.0,7.0,0.0
10626,52.0,0.0,90.0,8.0,0.0
10627,88.0,40.0,180.0,0.0,0.0
10628,35.0,0.0,180.0,14.0,0.0
10629,62.0,0.0,180.0,4.0,0.0
10630,64.0,0.0,180.0,5.0,0.0
10631,86.0,0.0,30.0,11.0,0.0
10632,98.0,0.0,180.0,1.0,0.0
10633,74.0,0.0,180.0,6.0,0.0
10634,98.0,24.0,30.0,10.0,0.0
10635,86.0,0.0,30.0,11.0,0.0
10636,86.0,0.0,30.0,11.0,0.0
10637,98.0,40.0,30.0,10.0,0.0
10638,98.0,40.0,30.0,10.0,0.0
10639,86.0,0.0,30.0,11.0,0.0
10640,98.0,0.0,30.0,10.0,0.0
10641,86.0,0.0,30.0,11.0,0.0
10642,86.0,0.0,30.0,11.0,0.0
10643,98.0,32.0,30.0,10.0,0.0
10644,99.0,0.0,90.0,1.0,0.0
10645,64.0,6.0,40.0,7.0,0.0
10646,75.0,16.0,90.0,2.0,0.0
10647,87.0,0.0,90.0,2.0,0.0
10648,48.0,0.0,90.0,13.0,0.0
10649,88.0,0.0,90.0,0.0,0.0
10650,52.0,8.0,20.0,8.0,0.0
10651,64.0,0.0,90.0,5.0,0.0
10652,52.0,0.0,90.0,5.0,0.0
10653,76.0,0.0,40.0,7.0,0.0
10654,87.0,16.0,30.0,11.0,0.0
10655,60.0,0.0,90.0,12.0,0.0
10656,75.0,0.0,90.0,3.0,0.0
10657,60.0,0.0,90.0,4.0,0.0
10658,63.0,0.0,90.0,4.0,0.0
10659,99.0,0.0,30.0,10.0,0.0
10660,36.0,0.0,90.0,14.0,0.0
10661,52.0,18.0,20.0,8.0,0.0
10662,99.0,0.0,30.0,10.0,0.0
10663,87.0,12.0,30.0,11.0,0.0
10664,52.0,0.0,20.0,8.0,0.0
10665,76.0,0.0,20.0,7.0,0.0
10666,64.0,12.0,20.0,7.0,0.0
10667,87.0,0.0,30.0,11.0,0.0
10668,99.0,2.0,30.0,10.0,0.0
10669,52.0,0.0,20.0,8.0,0.0
10670,76.0,30.0,20.0,7.0,0.0
10671,64.0,0.0,20.0,7.0,0.0
10672,100.0,0.0,750.0,1.0,0.0
10673,88.0,0.0,750.0,0.0,0.0
10674,69.0,0.0,750.0,6.0,0.0
10675,61.0,0.0,750.0,4.0,0.0
10676,76.0,0.0,750.0,3.0,0.0
10677,100.0,0.0,30.0,10.0,0.0
10678,64.0,0.0,750.0,4.0,0.0
10679,88.0,16.0,30.0,11.0,0.0
10680,76.0,6.0,40.0,7.0,0.0
10681,52.0,8.0,20.0,8.0,0.0
10682,64.0,0.0,40.0,7.0,0.0
10683,64.0,0.0,750.0,5.0,0.0
10684,37.0,8.0,750.0,14.0,0.0
10685,76.0,0.0,750.0,2.0,0.0
10686,61.0,0.0,750.0,12.0,0.0
10687,49.0,0.0,750.0,13.0,0.0
10688,52.0,0.0,750.0,5.0,0.0
10689,52.0,18.0,20.0,8.0,0.0
10690,100.0,12.0,30.0,10.0,0.0
10691,88.0,0.0,30.0,11.0,0.0
10692,52.0,24.0,20.0,8.0,0.0
10693,64.0,4.0,40.0,7.0,0.0
10694,76.0,0.0,40.0,7.0,0.0
10695,100.0,2.0,30.0,10.0,0.0
10696,88.0,0.0,30.0,11.0,0.0
10697,52.0,30.0,20.0,8.0,0.0
10698,76.0,0.0,40.0,7.0,0.0
10699,100.0,0.0,30.0,10.0,0.0
10700,88.0,16.0,30.0,11.0,0.0
10701,52.0,8.0,20.0,8.0,0.0
10702,64.0,6.0,40.0,7.0,0.0
10703,52.0,18.0,20.0,8.0,0.0
10704,100.0,0.0,30.0,10.0,0.0
10705,88.0,12.0,30.0,11.0,0.0
10706,64.0,4.0,40.0,7.0,0.0
10707,76.0,0.0,40.0,7.0,0.0
10708,52.0,24.0,20.0,8.0,0.0
10709,100.0,2.0,30.0,10.0,0.0
10710,88.0,0.0,30.0,11.0,0.0
10711,52.0,30.0,20.0,8.0,0.0
10712,52.0,8.0,20.0,8.0,0.0
10713,76.0,6.0,40.0,7.0,0.0
10714,64.0,0.0,40.0,7.0,0.0
10715,88.0,0.0,30.0,11.0,0.0
10716,100.0,16.0,30.0,10.0,0.0
10717,52.0,18.0,20.0,8.0,0.0
10718,88.0,0.0,30.0,11.0,0.0
10719,100.0,12.0,30.0,10.0,0.0
10720,76.0,4.0,40.0,7.0,0.0
10721,52.0,24.0,20.0,8.0,0.0
10722,64.0,0.0,40.0,7.0,0.0
10723,88.0,2.0,30.0,11.0,0.0
10724,100.0,0.0,30.0,10.0,0.0
10725,52.0,30.0,20.0,8.0,0.0
10726,52.0,8.0,20.0,8.0,0.0
10727,88.0,0.0,30.0,11.0,0.0
10728,76.0,0.0,40.0,7.0,0.0
10729,64.0,6.0,40.0,7.0,0.0
10730,100.0,16.0,30.0,10.0,0.0
10731,52.0,18.0,20.0,8.0,0.0
10732,88.0,12.0,30.0,11.0,0.0
10733,100.0,0.0,30.0,10.0,0.0
10734,52.0,24.0,20.0,8.0,0.0
10735,76.0,0.0,40.0,7.0,0.0
10736,64.0,4.0,40.0,7.0,0.0
10737,88.0,0.0,30.0,11.0,0.0
10738,100.0,2.0,30.0,10.0,0.0
10739,52.0,30.0,20.0,8.0,0.0
10740,52.0,8.0,20.0,8.0,0.0
10741,64.0,0.0,40.0,7.0,0.0
10742,88.0,16.0,30.0,11.0,0.0
10743,76.0,6.0,40.0,7.0,0.0
10744,100.0,0.0,30.0,10.0,0.0
10745,52.0,18.0,20.0,8.0,0.0
10746,100.0,0.0,30.0,10.0,0.0
10747,88.0,12.0,30.0,11.0,0.0
10748,64.0,0.0,40.0,7.0,0.0
10749,76.0,4.0,40.0,7.0,0.0
10750,52.0,24.0,20.0,8.0,0.0
10751,100.0,2.0,30.0,10.0,0.0
10752,88.0,0.0,30.0,11.0,0.0
10753,52.0,30.0,20.0,8.0,0.0
10754,88.0,16.0,30.0,11.0,0.0
10755,52.0,8.0,20.0,8.0,0.0
10756,100.0,0.0,30.0,10.0,0.0
10757,64.0,0.0,40.0,7.0,0.0
10758,76.0,6.0,40.0,7.0,0.0
10759,52.0,18.0,20.0,8.0,0.0
10760,100.0,12.0,30.0,10.0,0.0
10761,88.0,0.0,30.0,11.0,0.0
10762,76.0,0.0,40.0,7.0,0.0
10763,52.0,24.0,20.0,8.0,0.0
10764,64.0,4.0,40.0,7.0,0.0
10765,100.0,0.0,30.0,10.0,0.0
10766,88.0,2.0,30.0,11.0,0.0
10767,52.0,30.0,20.0,8.0,0.0
10768,52.0,0.0,20.0,8.0,0.0
10769,88.0,16.0,30.0,11.0,0.0
10770,100.0,0.0,30.0,10.0,0.0
10771,76.0,0.0,40.0,7.0,0.0
10772,64.0,6.0,40.0,7.0,0.0
10773,52.0,18.0,20.0,8.0,0.0
10774,100.0,12.0,30.0,10.0,0.0
10775,88.0,0.0,30.0,11.0,0.0
10776,64.0,4.0,40.0,7.0,0.0
10777,76.0,0.0,40.0,7.0,0.0
10778,52.0,24.0,20.0,8.0,0.0
10779,88.0,2.0,30.0,11.0,0.0
10780,100.0,0.0,30.0,10.0,0.0
10781,52.0,38.0,20.0,8.0,0.0
10782,86.0,0.0,30.0,11.0,0.0
10783,40.0,16.0,90.0,14.0,0.0
10784,64.0,0.0,90.0,5.0,0.0
10785,86.0,0.0,90.0,0.0,0.0
10786,52.0,0.0,90.0,5.0,0.0
10787,76.0,0.0,90.0,7.0,0.0
10788,62.0,0.0,90.0,4.0,0.0
10789,71.0,0.0,90.0,3.0,0.0
10790,52.0,0.0,90.0,8.0,0.0
10791,62.0,0.0,30.0,12.0,0.0
10792,59.0,0.0,30.0,12.0,0.0
10793,83.0,0.0,90.0,2.0,0.0
10794,86.0,0.0,90.0,2.0,0.0
10795,80.0,0.0,90.0,3.0,0.0
10796,64.0,0.0,90.0,7.0,0.0
10797,98.0,16.0,30.0,10.0,0.0
10798,40.0,0.0,90.0,13.0,0.0
10799,71.0,0.0,90.0,6.0,0.0
10800,98.0,24.0,40.0,1.0,0.0
10801,59.0,0.0,90.0,4.0,0.0
10802,52.0,0.0,90.0,13.0,0.0
10803,86.0,0.0,30.0,11.0,0.0
10804,98.0,0.0,30.0,10.0,0.0
10805,59.0,12.0,30.0,12.0,0.0
10806,68.0,0.0,30.0,12.0,0.0
10807,95.0,12.0,20.0,1.0,0.0
10808,86.0,2.0,30.0,11.0,0.0
10809,68.0,0.0,30.0,12.0,0.0
10810,98.0,0.0,30.0,10.0,0.0
10811,59.0,0.0,30.0,12.0,0.0
10812,97.0,38.0,20.0,1.0,0.0
10813,86.0,0.0,90.0,2.0,0.0
10814,68.0,0.0,30.0,12.0,0.0
10815,59.0,40.0,30.0,12.0,0.0
10816,62.0,0.0,90.0,4.0,0.0
10817,59.0,0.0,90.0,4.0,0.0
10818,98.0,0.0,90.0,1.0,0.0
10819,80.0,0.0,90.0,3.0,0.0
10820,71.0,0.0,90.0,3.0,0.0
10821,83.0,0.0,90.0,2.0,0.0
10822,40.0,16.0,90.0,13.0,0.0
10823,95.0,0.0,90.0,0.0,0.0
10824,52.0,0.0,90.0,13.0,0.0
10825,95.0,0.0,30.0,10.0,0.0
10826,64.0,0.0,90.0,5.0,0.0
10827,40.0,0.0,90.0,14.0,0.0
10828,83.0,0.0,30.0,11.0,0.0
10829,71.0,0.0,90.0,6.0,0.0
10830,64.0,0.0,90.0,7.0,0.0
10831,52.0,0.0,90.0,5.0,0.0
10832,76.0,0.0,90.0,7.0,0.0
10833,59.0,24.0,30.0,12.0,0.0
10834,95.0,0.0,30.0,10.0,0.0
10835,83.0,0.0,30.0,11.0,0.0
10836,68.0,0.0,30.0,12.0,0.0
10837,95.0,0.0,30.0,10.0,0.0
10838,68.0,0.0,30.0,12.0,0.0
10839,83.0,40.0,30.0,11.0,0.0
10840,59.0,0.0,30.0,12.0,0.0
10841,64.0,0.0,90.0,5.0,0.0
10842,52.0,16.0,90.0,5.0,0.0
10843,71.0,0.0,90.0,6.0,0.0
10844,80.0,0.0,30.0,11.0,0.0
10845,59.0,0.0,90.0,4.0,0.0
10846,40.0,0.0,90.0,13.0,0.0
10847,40.0,0.0,90.0,14.0,0.0
10848,52.0,0.0,90.0,8.0,0.0
10849,52.0,0.0,90.0,13.0,0.0
10850,80.0,0.0,90.0,3.0,0.0
10851,86.0,0.0,90.0,2.0,0.0
10852,83.0,0.0,90.0,2.0,0.0
10853,71.0,0.0,90.0,3.0,0.0
10854,62.0,0.0,90.0,4.0,0.0
10855,92.0,0.0,30.0,10.0,0.0
10856,76.0,0.0,90.0,7.0,0.0
10857,95.0,0.0,90.0,0.0,0.0
10858,64.0,0.0,90.0,7.0,0.0
10859,68.0,0.0,30.0,12.0,0.0
10860,59.0,40.0,30.0,12.0,0.0
10861,59.0,0.0,30.0,12.0,0.0
10862,92.0,12.0,30.0,10.0,0.0
10863,80.0,0.0,30.0,11.0,0.0
10864,68.0,0.0,30.0,12.0,0.0
10865,95.0,12.0,20.0,1.0,0.0
10866,68.0,2.0,30.0,12.0,0.0
10867,92.0,0.0,30.0,10.0,0.0
10868,59.0,0.0,30.0,12.0,0.0
10869,80.0,0.0,30.0,11.0,0.0
10870,97.0,38.0,20.0,1.0,0.0
10871,88.0,0.0,30.0,10.0,0.0
10872,68.0,0.0,30.0,12.0,0.0
10873,59.0,40.0,30.0,12.0,0.0
10874,64.0,0.0,90.0,5.0,0.0
10875,40.0,0.0,90.0,13.0,0.0
10876,80.0,0.0,90.0,3.0,0.0
10877,62.0,16.0,90.0,4.0,0.0
10878,76.0,0.0,30.0,11.0,0.0
10879,95.0,0.0,90.0,0.0,0.0
10880,52.0,0.0,90.0,13.0,0.0
10881,59.0,0.0,90.0,4.0,0.0
10882,98.0,0.0,90.0,1.0,0.0
10883,52.0,0.0,90.0,5.0,0.0
10884,71.0,0.0,90.0,3.0,0.0
10885,76.0,0.0,90.0,7.0,0.0
10886,64.0,0.0,90.0,7.0,0.0
10887,86.0,0.0,90.0,2.0,0.0
10888,83.0,0.0,90.0,2.0,0.0
10889,71.0,0.0,90.0,6.0,0.0
10890,40.0,0.0,90.0,14.0,0.0
10891,76.0,0.0,30.0,11.0,0.0
10892,68.0,0.0,30.0,12.0,0.0
10893,59.0,0.0,30.0,12.0,0.0
10894,88.0,24.0,30.0,10.0,0.0
10895,76.0,0.0,30.0,11.0,0.0
10896,68.0,0.0,30.0,12.0,0.0
10897,59.0,0.0,30.0,12.0,0.0
10898,88.0,40.0,30.0,10.0,0.0
10899,52.0,0.0,90.0,8.0,0.0
10900,40.0,0.0,90.0,13.0,0.0
10901,71.0,0.0,90.0,3.0,0.0
10902,64.0,0.0,90.0,5.0,0.0
10903,52.0,0.0,90.0,13.0,0.0
10904,52.0,0.0,90.0,5.0,0.0
10905,80.0,0.0,90.0,3.0,0.0
10906,76.0,0.0,90.0,7.0,0.0
10907,64.0,0.0,90.0,7.0,0.0
10908,95.0,0.0,90.0,0.0,0.0
10909,86.0,0.0,30.0,10.0,0.0
10910,71.0,0.0,90.0,6.0,0.0
10911,83.0,16.0,90.0,2.0,0.0
10912,86.0,0.0,90.0,2.0,0.0
10913,40.0,0.0,90.0,14.0,0.0
10914,59.0,0.0,90.0,4.0,0.0
10915,62.0,0.0,90.0,4.0,0.0
10916,74.0,0.0,30.0,11.0,0.0
10917,68.0,40.0,30.0,12.0,0.0
10918,59.0,0.0,30.0,12.0,0.0
10919,74.0,12.0,30.0,11.0,0.0
10920,59.0,0.0,30.0,12.0,0.0
10921,68.0,0.0,30.0,12.0,0.0
10922,86.0,0.0,30.0,10.0,0.0
10923,95.0,12.0,20.0,1.0,0.0
10924,74.0,0.0,30.0,11.0,0.0
10925,86.0,0.0,30.0,10.0,0.0
10926,59.0,2.0,30.0,12.0,0.0
10927,68.0,0.0,30.0,12.0,0.0
10928,97.0,38.0,20.0,1.0,0.0
10929,68.0,40.0,30.0,12.0,0.0
10930,95.0,0.0,90.0,0.0,0.0
10931,98.0,0.0,90.0,1.0,0.0
10932,40.0,0.0,90.0,13.0,0.0
10933,52.0,0.0,90.0,13.0,0.0
10934,71.0,0.0,90.0,3.0,0.0
10935,59.0,0.0,30.0,12.0,0.0
10936,40.0,0.0,90.0,14.0,0.0
10937,80.0,16.0,90.0,3.0,0.0
10938,71.0,0.0,90.0,6.0,0.0
10939,64.0,0.0,90.0,7.0,0.0
10940,59.0,0.0,90.0,4.0,0.0
10941,86.0,0.0,90.0,2.0,0.0
10942,83.0,0.0,90.0,2.0,0.0
10943,76.0,0.0,90.0,7.0,0.0
10944,62.0,0.0,90.0,4.0,0.0
10945,52.0,0.0,90.0,5.0,0.0
10946,83.0,0.0,30.0,10.0,0.0
10947,71.0,0.0,30.0,11.0,0.0
10948,64.0,0.0,90.0,5.0,0.0
10949,68.0,0.0,30.0,12.0,0.0
10950,83.0,0.0,30.0,10.0,0.0
10951,59.0,24.0,30.0,12.0,0.0
10952,71.0,0.0,30.0,11.0,0.0
10953,83.0,0.0,30.0,10.0,0.0
10954,59.0,40.0,30.0,12.0,0.0
10955,68.0,0.0,30.0,12.0,0.0
10956,71.0,0.0,30.0,11.0,0.0
10957,40.0,0.0,90.0,13.0,0.0
10958,80.0,0.0,30.0,10.0,0.0
10959,80.0,0.0,90.0,3.0,0.0
10960,71.0,0.0,90.0,3.0,0.0
10961,71.0,0.0,90.0,6.0,0.0
10962,52.0,0.0,90.0,5.0,0.0
10963,62.0,16.0,90.0,4.0,0.0
10964,52.0,0.0,90.0,13.0,0.0
10965,68.0,0.0,30.0,11.0,0.0
10966,59.0,0.0,90.0,4.0,0.0
10967,64.0,0.0,90.0,5.0,0.0
10968,64.0,0.0,90.0,7.0,0.0
10969,40.0,0.0,90.0,14.0,0.0
10970,59.0,40.0,30.0,12.0,0.0
10971,76.0,0.0,90.0,7.0,0.0
10972,52.0,0.0,90.0,8.0,0.0
10973,86.0,0.0,90.0,2.0,0.0
10974,83.0,0.0,90.0,2.0,0.0
10975,95.0,0.0,90.0,0.0,0.0
10976,68.0,0.0,30.0,12.0,0.0
10977,80.0,0.0,30.0,10.0,0.0
10978,68.0,0.0,30.0,11.0,0.0
10979,68.0,0.0,30.0,12.0,0.0
10980,59.0,12.0,30.0,12.0,0.0
10981,95.0,12.0,20.0,1.0,0.0
10982,68.0,2.0,30.0,11.0,0.0
10983,80.0,0.0,30.0,10.0,0.0
10984,68.0,0.0,30.0,12.0,0.0
10985,59.0,0.0,30.0,12.0,0.0
10986,97.0,38.0,20.0,1.0,0.0
10987,40.0,0.0,90.0,13.0,0.0
10988,95.0,0.0,90.0,0.0,0.0
10989,64.0,0.0,90.0,5.0,0.0
10990,62.0,12.0,90.0,4.0,0.0
10991,98.0,24.0,40.0,1.0,0.0
10992,40.0,0.0,90.0,14.0,0.0
10993,59.0,0.0,30.0,12.0,0.0
10994,71.0,0.0,90.0,6.0,0.0
10995,80.0,0.0,90.0,3.0,0.0
10996,71.0,0.0,90.0,3.0,0.0
10997,64.0,0.0,90.0,7.0,0.0
10998,68.0,0.0,30.0,12.0,0.0
10999,64.0,16.0,30.0,11.0,0.0
11000,59.0,0.0,90.0,4.0,0.0
11001,76.0,0.0,30.0,10.0,0.0
11002,52.0,0.0,90.0,13.0,0.0
11003,83.0,0.0,90.0,2.0,0.0
11004,86.0,0.0,90.0,2.0,0.0
11005,52.0,0.0,90.0,5.0,0.0
11006,76.0,0.0,90.0,7.0,0.0
11007,64.0,0.0,30.0,11.0,0.0
11008,76.0,24.0,30.0,10.0,0.0
11009,59.0,0.0,30.0,12.0,0.0
11010,68.0,0.0,30.0,12.0,0.0
11011,92.0,4.0,40.0,1.0,0.0
11012,64.0,0.0,30.0,11.0,0.0
11013,76.0,0.0,30.0,10.0,0.0
11014,68.0,40.0,30.0,12.0,0.0
11015,59.0,0.0,30.0,12.0,0.0
11016,52.0,0.0,150.0,5.0,0.0
11017,64.0,0.0,150.0,5.0,0.0
11018,93.0,0.0,150.0,0.0,0.0
11019,69.0,0.0,30.0,11.0,0.0
11020,69.0,16.0,90.0,7.0,0.0
11021,81.0,0.0,90.0,7.0,0.0
11022,81.0,40.0,30.0,10.0,0.0
11023,81.0,0.0,150.0,2.0,0.0
11024,93.0,0.0,150.0,1.0,0.0
11025,45.0,0.0,150.0,13.0,0.0
11026,57.0,0.0,150.0,4.0,0.0
11027,57.0,0.0,150.0,12.0,0.0
11028,33.0,0.0,150.0,14.0,0.0
11029,45.0,0.0,90.0,8.0,0.0
11030,69.0,8.0,150.0,3.0,0.0
11031,69.0,0.0,150.0,6.0,0.0
11032,93.0,24.0,30.0,10.0,0.0
11033,81.0,0.0,30.0,11.0,0.0
11034,81.0,0.0,30.0,11.0,0.0
11035,93.0,32.0,30.0,10.0,0.0
11036,93.0,0.0,30.0,10.0,0.0
11037,81.0,40.0,30.0,11.0,0.0
11038,81.0,0.0,30.0,11.0,0.0
11039,93.0,36.0,30.0,10.0,0.0
11040,69.0,0.0,40.0,3.0,0.0
11041,57.0,0.0,40.0,4.0,0.0
11042,81.0,0.0,40.0,2.0,0.0
11043,33.0,4.0,40.0,14.0,0.0
11044,93.0,0.0,40.0,1.0,0.0
11045,69.0,0.0,60.0,6.0,0.0
11046,52.0,0.0,60.0,5.0,0.0
11047,64.0,0.0,60.0,5.0,0.0
11048,52.0,35.0,60.0,8.0,0.0
11049,45.0,0.0,40.0,13.0,0.0
11050,57.0,0.0,40.0,12.0,0.0
11051,88.0,0.0,40.0,0.0,0.0
11052,81.0,0.0,30.0,11.0,0.0
11053,93.0,5.0,30.0,10.0,0.0
11054,59.0,0.0,150.0,4.0,0.0
11055,52.0,0.0,90.0,8.0,0.0
11056,56.0,8.0,150.0,4.0,0.0
11057,56.0,0.0,150.0,12.0,0.0
11058,32.0,0.0,150.0,14.0,0.0
11059,95.0,0.0,30.0,10.0,0.0
11060,64.0,0.0,150.0,5.0,0.0
11061,71.0,40.0,30.0,11.0,0.0
11062,71.0,0.0,150.0,6.0,0.0
11063,88.0,0.0,150.0,0.0,0.0
11064,52.0,0.0,150.0,5.0,0.0
11065,95.0,0.0,150.0,1.0,0.0
11066,44.0,0.0,150.0,13.0,0.0
11067,71.0,0.0,150.0,3.0,0.0
11068,76.0,16.0,90.0,7.0,0.0
11069,64.0,0.0,90.0,7.0,0.0
11070,83.0,0.0,150.0,2.0,0.0
11071,83.0,0.0,30.0,11.0,0.0
11072,95.0,24.0,30.0,10.0,0.0
11073,95.0,32.0,30.0,10.0,0.0
11074,83.0,0.0,30.0,11.0,0.0
11075,83.0,0.0,30.0,11.0,0.0
11076,95.0,40.0,30.0,10.0,0.0
11077,95.0,36.0,30.0,10.0,0.0
11078,83.0,0.0,30.0,11.0,0.0
11079,32.0,0.0,40.0,14.0,0.0
11080,71.0,0.0,40.0,3.0,0.0
11081,56.0,4.0,40.0,4.0,0.0
11082,71.0,0.0,60.0,6.0,0.0
11083,56.0,0.0,40.0,12.0,0.0
11084,52.0,0.0,40.0,8.0,0.0
11085,44.0,0.0,40.0,13.0,0.0
11086,59.0,0.0,40.0,4.0,0.0
11087,95.0,0.0,40.0,1.0,0.0
11088,83.0,0.0,40.0,2.0,0.0
11089,52.0,0.0,60.0,5.0,0.0
11090,88.0,0.0,40.0,0.0,0.0
11091,64.0,35.0,60.0,5.0,0.0
11092,95.0,0.0,30.0,10.0,0.0
11093,83.0,5.0,30.0,11.0,0.0
11094,61.0,0.0,150.0,4.0,0.0
11095,64.0,0.0,90.0,7.0,0.0
11096,76.0,16.0,90.0,7.0,0.0
11097,52.0,0.0,150.0,5.0,0.0
11098,64.0,0.0,150.0,5.0,0.0
11099,73.0,40.0,30.0,11.0,0.0
11100,57.0,0.0,150.0,12.0,0.0
11101,52.0,0.0,90.0,8.0,0.0
11102,57.0,0.0,150.0,4.0,0.0
11103,97.0,0.0,30.0,10.0,0.0
11104,33.0,0.0,150.0,14.0,0.0
11105,97.0,0.0,150.0,1.0,0.0
11106,73.0,0.0,150.0,3.0,0.0
11107,69.0,0.0,150.0,6.0,0.0
11108,45.0,0.0,150.0,13.0,0.0
11109,85.0,0.0,150.0,2.0,0.0
11110,88.0,8.0,150.0,0.0,0.0
11111,85.0,0.0,30.0,11.0,0.0
11112,97.0,24.0,30.0,10.0,0.0
11113,97.0,0.0,30.0,10.0,0.0
11114,85.0,32.0,30.0,11.0,0.0
11115,85.0,0.0,30.0,11.0,0.0
11116,97.0,40.0,30.0,10.0,0.0
11117,97.0,36.0,30.0,10.0,0.0
11118,85.0,0.0,30.0,11.0,0.0
11119,64.0,35.0,60.0,5.0,0.0
11120,33.0,0.0,40.0,14.0,0.0
11121,52.0,0.0,40.0,8.0,0.0
11122,57.0,4.0,40.0,12.0,0.0
11123,57.0,0.0,40.0,4.0,0.0
11124,45.0,0.0,40.0,13.0,0.0
11125,52.0,0.0,60.0,5.0,0.0
11126,69.0,0.0,40.0,6.0,0.0
11127,61.0,0.0,40.0,4.0,0.0
11128,97.0,0.0,40.0,1.0,0.0
11129,88.0,0.0,40.0,0.0,0.0
11130,85.0,0.0,40.0,2.0,0.0
11131,73.0,0.0,40.0,3.0,0.0
11132,97.0,0.0,30.0,10.0,0.0
11133,85.0,5.0,30.0,11.0,0.0
11134,88.0,0.0,150.0,0.0,0.0
11135,98.0,0.0,150.0,1.0,0.0
11136,47.0,8.0,150.0,13.0,0.0
11137,52.0,0.0,150.0,5.0,0.0
11138,64.0,0.0,150.0,5.0,0.0
11139,59.0,0.0,150.0,12.0,0.0
11140,74.0,0.0,150.0,3.0,0.0
11141,74.0,0.0,30.0,11.0,0.0
11142,76.0,16.0,90.0,7.0,0.0
11143,52.0,0.0,90.0,8.0,0.0
11144,74.0,0.0,150.0,6.0,0.0
11145,62.0,0.0,150.0,4.0,0.0
11146,59.0,0.0,150.0,4.0,0.0
11147,64.0,0.0,90.0,7.0,0.0
11148,35.0,0.0,150.0,14.0,0.0
11149,86.0,0.0,150.0,2.0,0.0
11150,98.0,40.0,30.0,10.0,0.0
11151,98.0,24.0,30.0,10.0,0.0
11152,86.0,0.0,30.0,11.0,0.0
11153,86.0,0.0,30.0,11.0,0.0
11154,98.0,32.0,30.0,10.0,0.0
11155,86.0,0.0,30.0,11.0,0.0
11156,98.0,40.0,30.0,10.0,0.0
11157,86.0,36.0,30.0,11.0,0.0
11158,98.0,0.0,30.0,10.0,0.0
11159,59.0,0.0,40.0,4.0,0.0
11160,59.0,0.0,40.0,12.0,0.0
11161,86.0,0.0,40.0,2.0,0.0
11162,35.0,0.0,40.0,14.0,0.0
11163,64.0,0.0,60.0,5.0,0.0
11164,74.0,0.0,40.0,3.0,0.0
11165,74.0,0.0,40.0,6.0,0.0
11166,98.0,0.0,40.0,1.0,0.0
11167,62.0,4.0,40.0,4.0,0.0
11168,52.0,27.0,60.0,5.0,0.0
11169,52.0,0.0,40.0,8.0,0.0
11170,88.0,0.0,40.0,0.0,0.0
11171,47.0,0.0,40.0,13.0,0.0
11172,86.0,0.0,30.0,11.0,0.0
11173,98.0,5.0,30.0,10.0,0.0
11174,75.0,0.0,90.0,2.0,0.0
11175,87.0,0.0,90.0,2.0,0.0
11176,64.0,0.0,90.0,5.0,0.0
11177,75.0,0.0,90.0,3.0,0.0
11178,88.0,0.0,90.0,0.0,0.0
11179,52.0,0.0,90.0,5.0,0.0
11180,63.0,0.0,90.0,4.0,0.0
11181,60.0,0.0,90.0,4.0,0.0
11182,36.0,16.0,90.0,14.0,0.0
11183,48.0,0.0,90.0,13.0,0.0
11184,99.0,0.0,90.0,1.0,0.0
11185,99.0,0.0,30.0,10.0,0.0
11186,60.0,0.0,90.0,12.0,0.0
11187,52.0,8.0,20.0,8.0,0.0
11188,87.0,16.0,30.0,11.0,0.0
11189,64.0,6.0,40.0,7.0,0.0
11190,76.0,0.0,40.0,7.0,0.0
11191,52.0,18.0,20.0,8.0,0.0
11192,99.0,12.0,30.0,10.0,0.0
11193,87.0,0.0,30.0,11.0,0.0
11194,76.0,0.0,20.0,7.0,0.0
11195,64.0,12.0,20.0,7.0,0.0
11196,52.0,0.0,20.0,8.0,0.0
11197,99.0,0.0,30.0,10.0,0.0
11198,87.0,2.0,30.0,11.0,0.0
11199,64.0,0.0,20.0,7.0,0.0
11200,76.0,0.0,20.0,7.0,0.0
11201,52.0,30.0,20.0,8.0,0.0
11202,100.0,0.0,30.0,10.0,0.0
11203,88.0,16.0,30.0,11.0,0.0
11204,49.0,0.0,750.0,13.0,0.0
11205,61.0,0.0,750.0,4.0,0.0
11206,64.0,0.0,750.0,4.0,0.0
11207,61.0,0.0,750.0,12.0,0.0
11208,76.0,0.0,750.0,2.0,0.0
11209,52.0,8.0,20.0,8.0,0.0
11210,76.0,0.0,750.0,3.0,0.0
11211,64.0,0.0,750.0,5.0,0.0
11212,100.0,0.0,750.0,1.0,0.0
11213,69.0,0.0,750.0,6.0,0.0
11214,76.0,6.0,40.0,7.0,0.0
11215,64.0,0.0,40.0,7.0,0.0
11216,52.0,0.0,750.0,5.0,0.0
11217,88.0,0.0,750.0,0.0,0.0
11218,37.0,8.0,750.0,14.0,0.0
11219,52.0,18.0,20.0,8.0,0.0
11220,88.0,12.0,30.0,11.0,0.0
11221,100.0,0.0,30.0,10.0,0.0
11222,52.0,24.0,20.0,8.0,0.0
11223,64.0,0.0,40.0,7.0,0.0
11224,76.0,4.0,40.0,7.0,0.0
11225,100.0,0.0,30.0,10.0,0.0
11226,88.0,2.0,30.0,11.0,0.0
11227,52.0,30.0,20.0,8.0,0.0
11228,88.0,0.0,30.0,11.0,0.0
11229,100.0,16.0,30.0,10.0,0.0
11230,52.0,8.0,20.0,8.0,0.0
11231,64.0,6.0,40.0,7.0,0.0
11232,76.0,0.0,40.0,7.0,0.0
11233,52.0,18.0,20.0,8.0,0.0
11234,100.0,0.0,30.0,10.0,0.0
11235,88.0,12.0,30.0,11.0,0.0
11236,52.0,24.0,20.0,8.0,0.0
11237,76.0,0.0,40.0,7.0,0.0
11238,64.0,4.0,40.0,7.0,0.0
11239,100.0,0.0,30.0,10.0,0.0
11240,88.0,2.0,30.0,11.0,0.0
11241,52.0,30.0,20.0,8.0,0.0
11242,52.0,8.0,20.0,8.0,0.0
11243,88.0,16.0,30.0,11.0,0.0
11244,100.0,0.0,30.0,10.0,0.0
11245,76.0,6.0,40.0,7.0,0.0
11246,64.0,0.0,40.0,7.0,0.0
11247,52.0,18.0,20.0,8.0,0.0
11248,100.0,0.0,30.0,10.0,0.0
11249,88.0,12.0,30.0,11.0,0.0
11250,64.0,4.0,40.0,7.0,0.0
11251,76.0,0.0,40.0,7.0,0.0
11252,52.0,24.0,20.0,8.0,0.0
11253,100.0,0.0,30.0,10.0,0.0
11254,88.0,2.0,30.0,11.0,0.0
11255,52.0,30.0,20.0,8.0,0.0
11256,88.0,16.0,30.0,11.0,0.0
11257,52.0,8.0,20.0,8.0,0.0
11258,64.0,6.0,40.0,7.0,0.0
11259,76.0,0.0,40.0,7.0,0.0
11260,100.0,0.0,30.0,10.0,0.0
11261,52.0,18.0,20.0,8.0,0.0
11262,88.0,12.0,30.0,11.0,0.0
11263,100.0,0.0,30.0,10.0,0.0
11264,76.0,0.0,40.0,7.0,0.0
11265,64.0,4.0,40.0,7.0,0.0
11266,52.0,24.0,20.0,8.0,0.0
11267,100.0,2.0,30.0,10.0,0.0
11268,88.0,0.0,30.0,11.0,0.0
11269,52.0,30.0,20.0,8.0,0.0
11270,52.0,8.0,20.0,8.0,0.0
11271,64.0,0.0,40.0,7.0,0.0
11272,76.0,6.0,40.0,7.0,0.0
11273,100.0,16.0,30.0,10.0,0.0
11274,88.0,0.0,30.0,11.0,0.0
11275,52.0,18.0,20.0,8.0,0.0
11276,88.0,0.0,30.0,11.0,0.0
11277,100.0,12.0,30.0,10.0,0.0
11278,76.0,0.0,40.0,7.0,0.0
11279,52.0,24.0,20.0,8.0,0.0
11280,64.0,4.0,40.0,7.0,0.0
11281,88.0,0.0,30.0,11.0,0.0
11282,100.0,2.0,30.0,10.0,0.0
11283,52.0,30.0,20.0,8.0,0.0
11284,52.0,8.0,20.0,8.0,0.0
11285,100.0,16.0,30.0,10.0,0.0
11286,76.0,0.0,40.0,7.0,0.0
11287,64.0,6.0,40.0,7.0,0.0
11288,88.0,0.0,30.0,11.0,0.0
11289,52.0,18.0,20.0,8.0,0.0
11290,88.0,0.0,30.0,11.0,0.0
11291,100.0,12.0,30.0,10.0,0.0
11292,52.0,24.0,20.0,8.0,0.0
11293,64.0,0.0,40.0,7.0,0.0
11294,76.0,4.0,40.0,7.0,0.0
11295,100.0,2.0,30.0,10.0,0.0
11296,88.0,0.0,30.0,11.0,0.0
11297,52.0,30.0,20.0,8.0,0.0
11298,76.0,6.0,40.0,7.0,0.0
11299,52.0,0.0,20.0,8.0,0.0
11300,64.0,0.0,40.0,7.0,0.0
11301,88.0,16.0,30.0,11.0,0.0
11302,100.0,0.0,30.0,10.0,0.0
11303,52.0,18.0,20.0,8.0,0.0
11304,100.0,0.0,30.0,10.0,0.0
11305,88.0,12.0,30.0,11.0,0.0
11306,76.0,0.0,40.0,7.0,0.0
11307,52.0,24.0,20.0,8.0,0.0
11308,64.0,4.0,40.0,7.0,0.0
11309,100.0,2.0,30.0,10.0,0.0
11310,88.0,0.0,30.0,11.0,0.0
11311,52.0,38.0,20.0,8.0,0.0
11312,86.0,0.0,90.0,2.0,0.0
11313,59.0,0.0,90.0,4.0,0.0
11314,52.0,0.0,90.0,13.0,0.0
11315,83.0,0.0,90.0,2.0,0.0
11316,52.0,0.0,90.0,8.0,0.0
11317,62.0,0.0,90.0,4.0,0.0
11318,64.0,0.0,90.0,7.0,0.0
11319,40.0,0.0,90.0,14.0,0.0
11320,86.0,16.0,90.0,0.0,0.0
11321,52.0,0.0,90.0,5.0,0.0
11322,64.0,0.0,90.0,5.0,0.0
11323,98.0,24.0,40.0,1.0,0.0
11324,62.0,0.0,30.0,12.0,0.0
11325,59.0,0.0,30.0,12.0,0.0
11326,80.0,0.0,90.0,3.0,0.0
11327,71.0,0.0,90.0,3.0,0.0
11328,98.0,0.0,30.0,10.0,0.0
11329,86.0,16.0,30.0,11.0,0.0
11330,71.0,0.0,90.0,6.0,0.0
11331,76.0,0.0,90.0,7.0,0.0
11332,40.0,0.0,90.0,13.0,0.0
11333,68.0,0.0,30.0,12.0,0.0
11334,59.0,0.0,30.0,12.0,0.0
11335,98.0,12.0,30.0,10.0,0.0
11336,86.0,0.0,30.0,11.0,0.0
11337,95.0,12.0,20.0,1.0,0.0
11338,86.0,0.0,30.0,11.0,0.0
11339,59.0,2.0,30.0,12.0,0.0
11340,98.0,0.0,30.0,10.0,0.0
11341,68.0,0.0,30.0,12.0,0.0
11342,97.0,38.0,20.0,1.0,0.0
11343,86.0,0.0,90.0,2.0,0.0
11344,95.0,0.0,30.0,10.0,0.0
11345,83.0,0.0,90.0,2.0,0.0
11346,40.0,0.0,90.0,14.0,0.0
11347,76.0,0.0,90.0,7.0,0.0
11348,80.0,0.0,90.0,3.0,0.0
11349,71.0,0.0,90.0,3.0,0.0
11350,64.0,0.0,90.0,7.0,0.0
11351,59.0,40.0,30.0,12.0,0.0
11352,71.0,16.0,90.0,6.0,0.0
11353,98.0,0.0,90.0,1.0,0.0
11354,95.0,0.0,90.0,0.0,0.0
11355,62.0,0.0,90.0,4.0,0.0
11356,52.0,0.0,90.0,13.0,0.0
11357,40.0,0.0,90.0,13.0,0.0
11358,68.0,0.0,30.0,12.0,0.0
11359,59.0,0.0,90.0,4.0,0.0
11360,83.0,0.0,30.0,11.0,0.0
11361,64.0,0.0,90.0,5.0,0.0
11362,52.0,0.0,90.0,5.0,0.0
11363,95.0,0.0,30.0,10.0,0.0
11364,83.0,0.0,30.0,11.0,0.0
11365,68.0,0.0,30.0,12.0,0.0
11366,59.0,24.0,30.0,12.0,0.0
11367,95.0,0.0,30.0,10.0,0.0
11368,83.0,0.0,30.0,11.0,0.0
11369,59.0,40.0,30.0,12.0,0.0
11370,68.0,0.0,30.0,12.0,0.0
11371,40.0,0.0,90.0,13.0,0.0
11372,52.0,0.0,90.0,13.0,0.0
11373,40.0,0.0,90.0,14.0,0.0
11374,62.0,0.0,90.0,4.0,0.0
11375,59.0,0.0,90.0,4.0,0.0
11376,64.0,0.0,90.0,7.0,0.0
11377,76.0,0.0,90.0,7.0,0.0
11378,80.0,0.0,30.0,11.0,0.0
11379,86.0,0.0,90.0,2.0,0.0
11380,83.0,0.0,90.0,2.0,0.0
11381,68.0,0.0,30.0,12.0,0.0
11382,59.0,40.0,30.0,12.0,0.0
11383,64.0,0.0,90.0,5.0,0.0
11384,71.0,16.0,90.0,6.0,0.0
11385,52.0,0.0,90.0,8.0,0.0
11386,95.0,0.0,90.0,0.0,0.0
11387,80.0,0.0,90.0,3.0,0.0
11388,52.0,0.0,90.0,5.0,0.0
11389,92.0,0.0,30.0,10.0,0.0
11390,71.0,0.0,90.0,3.0,0.0
11391,68.0,0.0,30.0,12.0,0.0
11392,92.0,0.0,30.0,10.0,0.0
11393,80.0,12.0,30.0,11.0,0.0
11394,59.0,0.0,30.0,12.0,0.0
11395,95.0,12.0,20.0,1.0,0.0
11396,92.0,0.0,30.0,10.0,0.0
11397,68.0,0.0,30.0,12.0,0.0
11398,80.0,2.0,30.0,11.0,0.0
11399,59.0,0.0,30.0,12.0,0.0
11400,97.0,38.0,20.0,1.0,0.0
11401,71.0,0.0,90.0,3.0,0.0
11402,80.0,0.0,90.0,3.0,0.0
11403,64.0,0.0,90.0,7.0,0.0
11404,76.0,0.0,90.0,7.0,0.0
11405,88.0,0.0,30.0,10.0,0.0
11406,64.0,0.0,90.0,5.0,0.0
11407,52.0,0.0,90.0,5.0,0.0
11408,71.0,16.0,90.0,6.0,0.0
11409,40.0,0.0,90.0,14.0,0.0
11410,83.0,0.0,90.0,2.0,0.0
11411,86.0,0.0,90.0,2.0,0.0
11412,95.0,0.0,90.0,0.0,0.0
11413,98.0,0.0,90.0,1.0,0.0
11414,68.0,40.0,30.0,12.0,0.0
11415,52.0,0.0,90.0,13.0,0.0
11416,62.0,0.0,90.0,4.0,0.0
11417,40.0,0.0,90.0,13.0,0.0
11418,76.0,0.0,30.0,11.0,0.0
11419,59.0,0.0,90.0,4.0,0.0
11420,59.0,0.0,30.0,12.0,0.0
11421,88.0,0.0,30.0,10.0,0.0
11422,76.0,0.0,30.0,11.0,0.0
11423,68.0,24.0,30.0,12.0,0.0
11424,59.0,0.0,30.0,12.0,0.0
11425,59.0,40.0,30.0,12.0,0.0
11426,68.0,0.0,30.0,12.0,0.0
11427,88.0,0.0,30.0,10.0,0.0
11428,76.0,0.0,30.0,11.0,0.0
11429,74.0,0.0,30.0,11.0,0.0
11430,86.0,0.0,90.0,2.0,0.0
11431,59.0,0.0,90.0,4.0,0.0
11432,71.0,0.0,90.0,6.0,0.0
11433,62.0,0.0,90.0,4.0,0.0
11434,80.0,0.0,90.0,3.0,0.0
11435,83.0,0.0,90.0,2.0,0.0
11436,68.0,0.0,30.0,12.0,0.0
11437,71.0,0.0,90.0,3.0,0.0
11438,95.0,16.0,90.0,0.0,0.0
11439,40.0,0.0,90.0,13.0,0.0
11440,52.0,0.0,90.0,13.0,0.0
11441,59.0,0.0,30.0,12.0,0.0
11442,86.0,40.0,30.0,10.0,0.0
11443,76.0,0.0,90.0,7.0,0.0
11444,52.0,0.0,90.0,5.0,0.0
11445,64.0,0.0,90.0,5.0,0.0
11446,52.0,0.0,90.0,8.0,0.0
11447,40.0,0.0,90.0,14.0,0.0
11448,64.0,0.0,90.0,7.0,0.0
11449,68.0,0.0,30.0,12.0,0.0
11450,59.0,0.0,30.0,12.0,0.0
11451,74.0,0.0,30.0,11.0,0.0
11452,86.0,12.0,30.0,10.0,0.0
11453,95.0,12.0,20.0,1.0,0.0
11454,68.0,0.0,30.0,12.0,0.0
11455,59.0,0.0,30.0,12.0,0.0
11456,86.0,0.0,30.0,10.0,0.0
11457,74.0,2.0,30.0,11.0,0.0
11458,97.0,38.0,20.0,1.0,0.0
11459,59.0,40.0,30.0,12.0,0.0
11460,68.0,0.0,30.0,12.0,0.0
11461,71.0,0.0,90.0,3.0,0.0
11462,80.0,0.0,90.0,3.0,0.0
11463,40.0,0.0,90.0,14.0,0.0
11464,71.0,0.0,30.0,11.0,0.0
11465,62.0,0.0,90.0,4.0,0.0
11466,40.0,0.0,90.0,13.0,0.0
11467,98.0,0.0,90.0,1.0,0.0
11468,95.0,0.0,90.0,0.0,0.0
11469,83.0,0.0,30.0,10.0,0.0
11470,52.0,0.0,90.0,5.0,0.0
11471,64.0,0.0,90.0,5.0,0.0
11472,83.0,16.0,90.0,2.0,0.0
11473,71.0,0.0,90.0,6.0,0.0
11474,59.0,0.0,90.0,4.0,0.0
11475,52.0,0.0,90.0,13.0,0.0
11476,86.0,0.0,90.0,2.0,0.0
11477,64.0,0.0,90.0,7.0,0.0
11478,76.0,0.0,90.0,7.0,0.0
11479,71.0,24.0,30.0,11.0,0.0
11480,68.0,0.0,30.0,12.0,0.0
11481,83.0,0.0,30.0,10.0,0.0
11482,59.0,0.0,30.0,12.0,0.0
11483,59.0,0.0,30.0,12.0,0.0
11484,68.0,0.0,30.0,12.0,0.0
11485,83.0,40.0,30.0,10.0,0.0
11486,71.0,0.0,30.0,11.0,0.0
11487,62.0,0.0,90.0,4.0,0.0
11488,59.0,0.0,90.0,4.0,0.0
11489,76.0,0.0,90.0,7.0,0.0
11490,40.0,0.0,90.0,14.0,0.0
11491,68.0,0.0,30.0,11.0,0.0
11492,64.0,0.0,90.0,7.0,0.0
11493,80.0,40.0,30.0,10.0,0.0
11494,95.0,0.0,90.0,0.0,0.0
11495,80.0,16.0,90.0,3.0,0.0
11496,71.0,0.0,90.0,3.0,0.0
11497,68.0,0.0,30.0,12.0,0.0
11498,59.0,0.0,30.0,12.0,0.0
11499,83.0,0.0,90.0,2.0,0.0
11500,86.0,0.0,90.0,2.0,0.0
11501,52.0,0.0,90.0,5.0,0.0
11502,64.0,0.0,90.0,5.0,0.0
11503,52.0,0.0,90.0,13.0,0.0
11504,40.0,0.0,90.0,13.0,0.0
11505,71.0,0.0,90.0,6.0,0.0
11506,52.0,0.0,90.0,8.0,0.0
11507,68.0,0.0,30.0,12.0,0.0
11508,59.0,0.0,30.0,12.0,0.0
11509,80.0,0.0,30.0,10.0,0.0
11510,68.0,12.0,30.0,11.0,0.0
11511,95.0,12.0,20.0,1.0,0.0
11512,68.0,0.0,30.0,12.0,0.0
11513,59.0,2.0,30.0,12.0,0.0
11514,68.0,0.0,30.0,11.0,0.0
11515,80.0,0.0,30.0,10.0,0.0
11516,97.0,38.0,20.0,1.0,0.0
11517,80.0,0.0,90.0,3.0,0.0
11518,59.0,12.0,90.0,4.0,0.0
11519,64.0,0.0,30.0,11.0,0.0
11520,40.0,0.0,90.0,14.0,0.0
11521,76.0,0.0,30.0,10.0,0.0
11522,71.0,0.0,90.0,3.0,0.0
11523,52.0,0.0,90.0,13.0,0.0
11524,52.0,0.0,90.0,5.0,0.0
11525,64.0,0.0,90.0,5.0,0.0
11526,62.0,0.0,90.0,4.0,0.0
11527,64.0,0.0,90.0,7.0,0.0
11528,71.0,0.0,90.0,6.0,0.0
11529,95.0,0.0,90.0,0.0,0.0
11530,40.0,0.0,90.0,13.0,0.0
11531,86.0,0.0,90.0,2.0,0.0
11532,83.0,0.0,90.0,2.0,0.0
11533,59.0,16.0,30.0,12.0,0.0
11534,68.0,0.0,30.0,12.0,0.0
11535,98.0,24.0,40.0,1.0,0.0
11536,76.0,0.0,90.0,7.0,0.0
11537,64.0,0.0,30.0,11.0,0.0
11538,68.0,0.0,30.0,12.0,0.0
11539,76.0,0.0,30.0,10.0,0.0
11540,59.0,24.0,30.0,12.0,0.0
11541,92.0,4.0,40.0,1.0,0.0
11542,76.0,0.0,30.0,10.0,0.0
11543,59.0,32.0,30.0,12.0,0.0
11544,68.0,0.0,30.0,12.0,0.0
11545,64.0,0.0,30.0,11.0,0.0
11546,69.0,0.0,300.0,7.0,0.0
11547,69.0,0.0,300.0,6.0,0.0
11548,69.0,0.0,180.0,3.0,0.0
11549,69.0,0.0,300.0,5.0,0.0
11550,69.0,0.0,300.0,4.0,0.0
11551,57.0,0.0,300.0,13.0,0.0
11552,81.0,0.0,30.0,11.0,0.0
11553,81.0,0.0,300.0,7.0,0.0
11554,45.0,8.0,20.0,8.0,0.0
11555,73.0,0.0,180.0,2.0,0.0
11556,61.0,24.0,300.0,12.0,0.0
11557,69.0,0.0,300.0,12.0,0.0
11558,93.0,0.0,180.0,0.0,0.0
11559,73.0,0.0,180.0,3.0,0.0
11560,81.0,22.0,30.0,10.0,0.0
11561,93.0,0.0,300.0,1.0,0.0
11562,45.0,0.0,180.0,14.0,0.0
11563,81.0,0.0,180.0,2.0,0.0
11564,45.0,18.0,20.0,8.0,0.0
11565,93.0,0.0,30.0,10.0,0.0
11566,85.0,12.0,30.0,11.0,0.0
11567,45.0,28.0,20.0,8.0,0.0
11568,85.0,2.0,30.0,11.0,0.0
11569,93.0,0.0,30.0,10.0,0.0
11570,45.0,30.0,20.0,8.0,0.0
11571,45.0,8.0,20.0,8.0,0.0
11572,93.0,22.0,30.0,10.0,0.0
11573,85.0,0.0,30.0,11.0,0.0
11574,45.0,18.0,20.0,8.0,0.0
11575,85.0,0.0,30.0,11.0,0.0
11576,93.0,12.0,30.0,10.0,0.0
11577,45.0,28.0,20.0,8.0,0.0
11578,85.0,0.0,30.0,11.0,0.0
11579,93.0,2.0,30.0,10.0,0.0
11580,45.0,38.0,20.0,8.0,0.0
11581,81.0,0.0,900.0,2.0,0.0
11582,73.0,0.0,900.0,2.0,0.0
11583,40.0,16.0,90.0,14.0,0.0
11584,45.0,0.0,90.0,8.0,0.0
11585,93.0,16.0,30.0,10.0,0.0
11586,93.0,0.0,900.0,0.0,0.0
11587,69.0,0.0,900.0,3.0,0.0
11588,85.0,0.0,30.0,11.0,0.0
11589,73.0,12.0,900.0,3.0,0.0
11590,85.0,0.0,30.0,11.0,0.0
11591,93.0,24.0,30.0,10.0,0.0
11592,93.0,0.0,30.0,10.0,0.0
11593,85.0,40.0,30.0,11.0,0.0
11594,52.0,0.0,90.0,13.0,0.0
11595,64.0,0.0,90.0,4.0,0.0
11596,64.0,12.0,90.0,5.0,0.0
11597,64.0,0.0,90.0,12.0,0.0
11598,85.0,16.0,30.0,11.0,0.0
11599,93.0,0.0,30.0,10.0,0.0
11600,76.0,0.0,90.0,7.0,0.0
11601,64.0,0.0,90.0,7.0,0.0
11602,88.0,24.0,40.0,1.0,0.0
11603,93.0,0.0,30.0,10.0,0.0
11604,85.0,24.0,30.0,11.0,0.0
11605,88.0,4.0,40.0,1.0,0.0
11606,93.0,0.0,30.0,10.0,0.0
11607,85.0,40.0,30.0,11.0,0.0
11608,85.0,0.0,30.0,11.0,0.0
11609,81.0,0.0,90.0,7.0,0.0
11610,93.0,40.0,30.0,10.0,0.0
11611,69.0,0.0,90.0,4.0,0.0
11612,45.0,16.0,90.0,14.0,0.0
11613,69.0,0.0,90.0,7.0,0.0
11614,69.0,0.0,90.0,5.0,0.0
11615,93.0,0.0,90.0,1.0,0.0
11616,57.0,0.0,90.0,13.0,0.0
11617,69.0,0.0,90.0,12.0,0.0
11618,85.0,24.0,30.0,11.0,0.0
11619,93.0,0.0,30.0,10.0,0.0
11620,85.0,40.0,30.0,11.0,0.0
11621,93.0,0.0,30.0,10.0,0.0
11622,40.0,0.0,90.0,14.0,0.0
11623,64.0,0.0,90.0,4.0,0.0
11624,64.0,16.0,90.0,12.0,0.0
11625,85.0,0.0,30.0,11.0,0.0
11626,64.0,0.0,90.0,5.0,0.0
11627,93.0,40.0,30.0,10.0,0.0
11628,76.0,0.0,90.0,7.0,0.0
11629,64.0,0.0,90.0,7.0,0.0
11630,52.0,0.0,90.0,13.0,0.0
11631,88.0,0.0,90.0,1.0,0.0
11632,85.0,24.0,30.0,11.0,0.0
11633,93.0,0.0,30.0,10.0,0.0
11634,85.0,0.0,30.0,11.0,0.0
11635,93.0,40.0,30.0,10.0,0.0
11636,61.0,0.0,90.0,5.0,0.0
11637,73.0,0.0,90.0,7.0,0.0
11638,37.0,0.0,90.0,14.0,0.0
11639,93.0,40.0,30.0,10.0,0.0
11640,49.0,0.0,90.0,13.0,0.0
11641,61.0,0.0,90.0,12.0,0.0
11642,85.0,0.0,30.0,11.0,0.0
11643,85.0,16.0,90.0,1.0,0.0
11644,61.0,0.0,90.0,4.0,0.0
11645,93.0,24.0,30.0,10.0,0.0
11646,85.0,0.0,30.0,11.0,0.0
11647,85.0,40.0,30.0,11.0,0.0
11648,93.0,0.0,30.0,10.0,0.0
11649,64.0,0.0,90.0,5.0,0.0
11650,76.0,0.0,90.0,7.0,0.0
11651,64.0,0.0,90.0,12.0,0.0
11652,85.0,0.0,30.0,11.0,0.0
11653,40.0,16.0,90.0,14.0,0.0
11654,52.0,0.0,90.0,13.0,0.0
11655,64.0,0.0,90.0,7.0,0.0
11656,64.0,0.0,90.0,4.0,0.0
11657,88.0,0.0,90.0,1.0,0.0
11658,93.0,40.0,30.0,10.0,0.0
11659,85.0,0.0,30.0,11.0,0.0
11660,93.0,24.0,30.0,10.0,0.0
11661,93.0,0.0,30.0,10.0,0.0
11662,85.0,32.0,30.0,11.0,0.0
11663,57.0,24.0,300.0,13.0,0.0
11664,97.0,22.0,30.0,10.0,0.0
11665,69.0,0.0,300.0,4.0,0.0
11666,93.0,0.0,300.0,1.0,0.0
11667,69.0,0.0,300.0,7.0,0.0
11668,81.0,0.0,300.0,7.0,0.0
11669,69.0,0.0,300.0,6.0,0.0
11670,45.0,0.0,300.0,14.0,0.0
11671,45.0,8.0,20.0,8.0,0.0
11672,85.0,0.0,30.0,11.0,0.0
11673,69.0,0.0,300.0,5.0,0.0
11674,69.0,0.0,300.0,12.0,0.0
11675,45.0,18.0,20.0,8.0,0.0
11676,97.0,12.0,30.0,10.0,0.0
11677,93.0,0.0,30.0,11.0,0.0
11678,45.0,28.0,20.0,8.0,0.0
11679,93.0,0.0,30.0,11.0,0.0
11680,97.0,2.0,30.0,10.0,0.0
11681,45.0,30.0,20.0,8.0,0.0
11682,45.0,8.0,20.0,8.0,0.0
11683,97.0,0.0,30.0,10.0,0.0
11684,93.0,22.0,30.0,11.0,0.0
11685,85.0,0.0,30.0,11.0,0.0
11686,45.0,18.0,20.0,8.0,0.0
11687,97.0,0.0,30.0,10.0,0.0
11688,93.0,0.0,30.0,11.0,0.0
11689,85.0,0.0,30.0,11.0,0.0
11690,45.0,28.0,20.0,8.0,0.0
11691,85.0,2.0,30.0,11.0,0.0
11692,97.0,0.0,30.0,10.0,0.0
11693,93.0,0.0,30.0,11.0,0.0
11694,45.0,38.0,20.0,8.0,0.0
11695,93.0,0.0,30.0,11.0,0.0
11696,73.0,33.0,900.0,3.0,0.0
11697,97.0,0.0,900.0,0.0,0.0
11698,81.0,0.0,900.0,3.0,0.0
11699,97.0,16.0,30.0,10.0,0.0
11700,85.0,0.0,30.0,11.0,0.0
11701,45.0,16.0,90.0,8.0,0.0
11702,81.0,0.0,900.0,2.0,0.0
11703,85.0,0.0,900.0,2.0,0.0
11704,85.0,24.0,30.0,11.0,0.0
11705,97.0,0.0,30.0,10.0,0.0
11706,93.0,0.0,30.0,11.0,0.0
11707,93.0,0.0,30.0,11.0,0.0
11708,85.0,0.0,30.0,11.0,0.0
11709,97.0,40.0,30.0,10.0,0.0
11710,88.0,24.0,40.0,1.0,0.0
11711,64.0,0.0,90.0,7.0,0.0
11712,93.0,0.0,30.0,11.0,0.0
11713,85.0,16.0,30.0,11.0,0.0
11714,64.0,0.0,90.0,5.0,0.0
11715,40.0,0.0,90.0,14.0,0.0
11716,76.0,0.0,90.0,7.0,0.0
11717,52.0,12.0,90.0,13.0,0.0
11718,64.0,0.0,90.0,4.0,0.0
11719,64.0,0.0,90.0,12.0,0.0
11720,97.0,0.0,30.0,10.0,0.0
11721,85.0,0.0,30.0,11.0,0.0
11722,93.0,24.0,30.0,11.0,0.0
11723,97.0,0.0,30.0,10.0,0.0
11724,88.0,4.0,40.0,1.0,0.0
11725,85.0,0.0,30.0,11.0,0.0
11726,93.0,0.0,30.0,11.0,0.0
11727,97.0,40.0,30.0,10.0,0.0
11728,93.0,0.0,90.0,1.0,0.0
11729,57.0,0.0,90.0,13.0,0.0
11730,93.0,0.0,30.0,11.0,0.0
11731,85.0,40.0,30.0,11.0,0.0
11732,69.0,0.0,90.0,4.0,0.0
11733,69.0,0.0,90.0,5.0,0.0
11734,69.0,16.0,90.0,7.0,0.0
11735,69.0,0.0,90.0,12.0,0.0
11736,45.0,0.0,90.0,14.0,0.0
11737,97.0,0.0,30.0,10.0,0.0
11738,81.0,0.0,90.0,7.0,0.0
11739,93.0,24.0,30.0,11.0,0.0
11740,97.0,0.0,30.0,10.0,0.0
11741,85.0,0.0,30.0,11.0,0.0
11742,85.0,0.0,30.0,11.0,0.0
11743,93.0,40.0,30.0,11.0,0.0
11744,97.0,0.0,30.0,10.0,0.0
11745,97.0,0.0,30.0,10.0,0.0
11746,64.0,16.0,90.0,12.0,0.0
11747,93.0,0.0,30.0,11.0,0.0
11748,85.0,40.0,30.0,11.0,0.0
11749,64.0,0.0,90.0,4.0,0.0
11750,52.0,0.0,90.0,13.0,0.0
11751,88.0,0.0,90.0,1.0,0.0
11752,64.0,0.0,90.0,7.0,0.0
11753,64.0,0.0,90.0,5.0,0.0
11754,40.0,0.0,90.0,14.0,0.0
11755,76.0,0.0,90.0,7.0,0.0
11756,93.0,0.0,30.0,11.0,0.0
11757,85.0,0.0,30.0,11.0,0.0
11758,97.0,24.0,30.0,10.0,0.0
11759,97.0,40.0,30.0,10.0,0.0
11760,85.0,0.0,30.0,11.0,0.0
11761,93.0,0.0,30.0,11.0,0.0
11762,61.0,0.0,90.0,5.0,0.0
11763,37.0,16.0,90.0,14.0,0.0
11764,85.0,0.0,90.0,1.0,0.0
11765,97.0,0.0,30.0,10.0,0.0
11766,93.0,40.0,30.0,11.0,0.0
11767,85.0,0.0,30.0,11.0,0.0
11768,73.0,0.0,90.0,7.0,0.0
11769,61.0,0.0,90.0,12.0,0.0
11770,61.0,0.0,90.0,4.0,0.0
11771,49.0,0.0,90.0,13.0,0.0
11772,85.0,0.0,30.0,11.0,0.0
11773,93.0,24.0,30.0,11.0,0.0
11774,97.0,0.0,30.0,10.0,0.0
11775,93.0,0.0,30.0,11.0,0.0
11776,97.0,0.0,30.0,10.0,0.0
11777,85.0,40.0,30.0,11.0,0.0
11778,64.0,0.0,90.0,7.0,0.0
11779,76.0,0.0,90.0,7.0,0.0
11780,52.0,0.0,90.0,13.0,0.0
11781,64.0,0.0,90.0,4.0,0.0
11782,93.0,0.0,30.0,11.0,0.0
11783,85.0,0.0,30.0,11.0,0.0
11784,64.0,0.0,90.0,12.0,0.0
11785,88.0,16.0,90.0,1.0,0.0
11786,97.0,40.0,30.0,10.0,0.0
11787,64.0,0.0,90.0,5.0,0.0
11788,40.0,0.0,90.0,14.0,0.0
11789,97.0,24.0,30.0,10.0,0.0
11790,85.0,0.0,30.0,11.0,0.0
11791,93.0,0.0,30.0,11.0,0.0
11792,93.0,0.0,30.0,11.0,0.0
11793,97.0,40.0,30.0,10.0,0.0
11794,85.0,0.0,30.0,11.0,0.0
11795,85.0,0.0,30.0,11.0,0.0
11796,45.0,16.0,90.0,8.0,0.0
11797,69.0,0.0,180.0,4.0,0.0
11798,93.0,0.0,30.0,11.0,0.0
11799,69.0,0.0,180.0,12.0,0.0
11800,69.0,0.0,180.0,5.0,0.0
11801,93.0,0.0,180.0,1.0,0.0
11802,45.0,0.0,180.0,14.0,0.0
11803,97.0,40.0,30.0,10.0,0.0
11804,69.0,7.0,240.0,6.0,0.0
11805,81.0,0.0,180.0,7.0,0.0
11806,69.0,0.0,180.0,7.0,0.0
11807,57.0,0.0,180.0,13.0,0.0
11808,85.0,24.0,30.0,11.0,0.0
11809,97.0,0.0,30.0,10.0,0.0
11810,93.0,0.0,30.0,11.0,0.0
11811,85.0,0.0,30.0,11.0,0.0
11812,97.0,40.0,30.0,10.0,0.0
11813,93.0,0.0,30.0,11.0,0.0
11814,85.0,0.0,30.0,11.0,0.0
11815,93.0,40.0,30.0,11.0,0.0
11816,97.0,0.0,30.0,10.0,0.0
11817,93.0,0.0,30.0,11.0,0.0
11818,85.0,0.0,30.0,11.0,0.0
11819,97.0,0.0,30.0,10.0,0.0
11820,85.0,40.0,30.0,11.0,0.0
11821,97.0,0.0,30.0,10.0,0.0
11822,93.0,0.0,30.0,11.0,0.0
11823,93.0,0.0,180.0,0.0,0.0
11824,97.0,40.0,30.0,10.0,0.0
11825,93.0,0.0,30.0,11.0,0.0
11826,73.0,0.0,180.0,12.0,0.0
11827,81.0,0.0,180.0,2.0,0.0
11828,61.0,0.0,180.0,13.0,0.0
11829,85.0,0.0,180.0,2.0,0.0
11830,45.0,16.0,90.0,8.0,0.0
11831,69.0,3.0,240.0,6.0,0.0
11832,85.0,0.0,30.0,11.0,0.0
11833,73.0,33.0,180.0,4.0,0.0
11834,73.0,0.0,180.0,5.0,0.0
11835,49.0,0.0,180.0,14.0,0.0
11836,85.0,0.0,180.0,7.0,0.0
11837,73.0,0.0,180.0,7.0,0.0
11838,73.0,0.0,180.0,3.0,0.0
11839,69.0,0.0,180.0,3.0,0.0
11840,97.0,0.0,90.0,1.0,0.0
11841,97.0,24.0,30.0,10.0,0.0
11842,85.0,0.0,30.0,11.0,0.0
11843,93.0,0.0,30.0,11.0,0.0
11844,97.0,0.0,30.0,10.0,0.0
11845,85.0,0.0,30.0,11.0,0.0
11846,93.0,40.0,30.0,11.0,0.0
11847,93.0,16.0,30.0,11.0,0.0
11848,97.0,0.0,30.0,10.0,0.0
11849,97.0,24.0,40.0,1.0,0.0
11850,85.0,0.0,30.0,11.0,0.0
11851,97.0,0.0,30.0,10.0,0.0
11852,85.0,0.0,30.0,11.0,0.0
11853,93.0,0.0,30.0,11.0,0.0
11854,97.0,4.0,40.0,1.0,0.0
11855,85.0,0.0,30.0,11.0,0.0
11856,93.0,0.0,30.0,11.0,0.0
11857,97.0,40.0,30.0,10.0,0.0
11858,64.0,0.0,300.0,13.0,0.0
11859,71.0,0.0,300.0,3.0,0.0
11860,64.0,0.0,300.0,4.0,0.0
11861,92.0,0.0,300.0,0.0,0.0
11862,92.0,0.0,30.0,11.0,0.0
11863,83.0,40.0,30.0,11.0,0.0
11864,76.0,0.0,300.0,5.0,0.0
11865,80.0,0.0,300.0,2.0,0.0
11866,95.0,0.0,30.0,10.0,0.0
11867,76.0,0.0,300.0,12.0,0.0
11868,83.0,0.0,300.0,2.0,0.0
11869,76.0,0.0,300.0,7.0,0.0
11870,68.0,0.0,300.0,3.0,0.0
11871,52.0,24.0,300.0,14.0,0.0
11872,52.0,16.0,90.0,8.0,0.0
11873,100.0,0.0,300.0,1.0,0.0
11874,83.0,0.0,30.0,11.0,0.0
11875,92.0,0.0,30.0,11.0,0.0
11876,95.0,24.0,30.0,10.0,0.0
11877,95.0,0.0,30.0,10.0,0.0
11878,92.0,40.0,30.0,11.0,0.0
11879,83.0,0.0,30.0,11.0,0.0
11880,95.0,0.0,30.0,10.0,0.0
11881,83.0,0.0,30.0,11.0,0.0
11882,92.0,40.0,30.0,11.0,0.0
11883,95.0,0.0,30.0,10.0,0.0
11884,83.0,0.0,30.0,11.0,0.0
11885,92.0,40.0,30.0,11.0,0.0
11886,92.0,0.0,30.0,11.0,0.0
11887,83.0,0.0,30.0,11.0,0.0
11888,95.0,40.0,30.0,10.0,0.0
11889,95.0,0.0,30.0,10.0,0.0
11890,92.0,16.0,30.0,11.0,0.0
11891,83.0,0.0,30.0,11.0,0.0
11892,92.0,0.0,30.0,11.0,0.0
11893,83.0,0.0,30.0,11.0,0.0
11894,95.0,40.0,30.0,10.0,0.0
11895,95.0,0.0,30.0,10.0,0.0
11896,92.0,40.0,30.0,11.0,0.0
11897,83.0,0.0,30.0,11.0,0.0
11898,64.0,0.0,90.0,4.0,0.0
11899,64.0,0.0,90.0,5.0,0.0
11900,52.0,0.0,90.0,13.0,0.0
11901,40.0,0.0,90.0,14.0,0.0
11902,68.0,0.0,90.0,3.0,0.0
11903,88.0,0.0,90.0,1.0,0.0
11904,92.0,0.0,30.0,11.0,0.0
11905,52.0,0.0,90.0,8.0,0.0
11906,92.0,0.0,90.0,0.0,0.0
11907,83.0,0.0,30.0,11.0,0.0
11908,71.0,0.0,90.0,3.0,0.0
11909,95.0,40.0,30.0,10.0,0.0
11910,64.0,0.0,90.0,12.0,0.0
11911,83.0,16.0,90.0,2.0,0.0
11912,64.0,0.0,90.0,7.0,0.0
11913,80.0,0.0,90.0,2.0,0.0
11914,76.0,0.0,90.0,7.0,0.0
11915,92.0,0.0,30.0,11.0,0.0
11916,83.0,24.0,30.0,11.0,0.0
11917,95.0,0.0,30.0,10.0,0.0
11918,83.0,0.0,30.0,11.0,0.0
11919,92.0,0.0,30.0,11.0,0.0
11920,95.0,40.0,30.0,10.0,0.0
11921,93.0,40.0,30.0,11.0,0.0
11922,81.0,0.0,180.0,7.0,0.0
11923,69.0,0.0,180.0,7.0,0.0
11924,45.0,0.0,180.0,14.0,0.0
11925,85.0,0.0,30.0,11.0,0.0
11926,85.0,0.0,180.0,2.0,0.0
11927,45.0,16.0,90.0,8.0,0.0
11928,97.0,0.0,30.0,10.0,0.0
11929,73.0,0.0,180.0,3.0,0.0
11930,57.0,0.0,180.0,13.0,0.0
11931,81.0,40.0,180.0,2.0,0.0
11932,69.0,0.0,180.0,4.0,0.0
11933,69.0,0.0,180.0,6.0,0.0
11934,93.0,0.0,180.0,1.0,0.0
11935,93.0,0.0,180.0,0.0,0.0
11936,69.0,0.0,180.0,12.0,0.0
11937,69.0,0.0,180.0,5.0,0.0
11938,69.0,0.0,180.0,3.0,0.0
11939,93.0,0.0,30.0,11.0,0.0
11940,85.0,24.0,30.0,11.0,0.0
11941,97.0,0.0,30.0,10.0,0.0
11942,85.0,0.0,30.0,11.0,0.0
11943,93.0,40.0,30.0,11.0,0.0
11944,97.0,0.0,30.0,10.0,0.0
11945,97.0,0.0,30.0,10.0,0.0
11946,93.0,40.0,30.0,11.0,0.0
11947,85.0,0.0,30.0,11.0,0.0
11948,93.0,0.0,30.0,11.0,0.0
11949,85.0,0.0,30.0,11.0,0.0
11950,97.0,0.0,30.0,10.0,0.0
11951,85.0,0.0,30.0,11.0,0.0
11952,93.0,0.0,30.0,11.0,0.0
11953,97.0,40.0,30.0,10.0,0.0
11954,73.0,0.0,180.0,12.0,0.0
11955,73.0,0.0,180.0,4.0,0.0
11956,85.0,40.0,30.0,11.0,0.0
11957,97.0,0.0,90.0,1.0,0.0
11958,69.0,0.0,180.0,6.0,0.0
11959,61.0,0.0,180.0,13.0,0.0
11960,93.0,0.0,180.0,0.0,0.0
11961,45.0,16.0,90.0,8.0,0.0
11962,81.0,0.0,180.0,2.0,0.0
11963,85.0,0.0,180.0,2.0,0.0
11964,49.0,0.0,180.0,14.0,0.0
11965,73.0,36.0,180.0,7.0,0.0
11966,85.0,0.0,180.0,7.0,0.0
11967,69.0,0.0,180.0,3.0,0.0
11968,73.0,0.0,180.0,3.0,0.0
11969,73.0,0.0,180.0,5.0,0.0
11970,93.0,0.0,30.0,11.0,0.0
11971,97.0,0.0,30.0,10.0,0.0
11972,93.0,0.0,30.0,11.0,0.0
11973,85.0,24.0,30.0,11.0,0.0
11974,97.0,0.0,30.0,10.0,0.0
11975,97.0,40.0,30.0,10.0,0.0
11976,93.0,0.0,30.0,11.0,0.0
11977,85.0,0.0,30.0,11.0,0.0
11978,97.0,24.0,40.0,1.0,0.0
11979,85.0,0.0,30.0,11.0,0.0
11980,93.0,0.0,30.0,11.0,0.0
11981,97.0,16.0,30.0,10.0,0.0
11982,97.0,0.0,30.0,10.0,0.0
11983,93.0,0.0,30.0,11.0,0.0
11984,85.0,0.0,30.0,11.0,0.0
11985,97.0,4.0,40.0,1.0,0.0
11986,85.0,0.0,30.0,11.0,0.0
11987,93.0,40.0,30.0,11.0,0.0
11988,97.0,0.0,30.0,10.0,0.0
11989,64.0,0.0,300.0,4.0,0.0
11990,52.0,0.0,300.0,14.0,0.0
11991,95.0,40.0,30.0,10.0,0.0
11992,92.0,24.0,300.0,0.0,0.0
11993,71.0,0.0,300.0,3.0,0.0
11994,68.0,0.0,300.0,3.0,0.0
11995,80.0,0.0,300.0,2.0,0.0
11996,100.0,0.0,300.0,1.0,0.0
11997,76.0,0.0,300.0,7.0,0.0
11998,83.0,0.0,30.0,11.0,0.0
11999,92.0,0.0,30.0,11.0,0.0
12000,76.0,0.0,300.0,5.0,0.0
12001,64.0,0.0,300.0,13.0,0.0
12002,52.0,16.0,90.0,8.0,0.0
12003,76.0,0.0,300.0,12.0,0.0
12004,83.0,0.0,300.0,2.0,0.0
12005,95.0,24.0,30.0,10.0,0.0
12006,83.0,0.0,30.0,11.0,0.0
12007,92.0,0.0,30.0,11.0,0.0
12008,92.0,40.0,30.0,11.0,0.0
12009,83.0,0.0,30.0,11.0,0.0
12010,95.0,0.0,30.0,10.0,0.0
12011,95.0,0.0,30.0,10.0,0.0
12012,83.0,0.0,30.0,11.0,0.0
12013,92.0,40.0,30.0,11.0,0.0
12014,95.0,40.0,30.0,10.0,0.0
12015,92.0,0.0,30.0,11.0,0.0
12016,83.0,0.0,30.0,11.0,0.0
12017,92.0,40.0,30.0,11.0,0.0
12018,83.0,0.0,30.0,11.0,0.0
12019,95.0,0.0,30.0,10.0,0.0
12020,83.0,16.0,30.0,11.0,0.0
12021,92.0,0.0,30.0,11.0,0.0
12022,95.0,0.0,30.0,10.0,0.0
12023,83.0,0.0,30.0,11.0,0.0
12024,92.0,0.0,30.0,11.0,0.0
12025,95.0,40.0,30.0,10.0,0.0
12026,92.0,0.0,30.0,11.0,0.0
12027,83.0,40.0,30.0,11.0,0.0
12028,95.0,0.0,30.0,10.0,0.0
12029,95.0,40.0,30.0,10.0,0.0
12030,64.0,16.0,90.0,7.0,0.0
12031,76.0,0.0,90.0,7.0,0.0
12032,64.0,0.0,90.0,12.0,0.0
12033,71.0,0.0,90.0,3.0,0.0
12034,68.0,0.0,90.0,3.0,0.0
12035,64.0,0.0,90.0,5.0,0.0
12036,88.0,0.0,90.0,1.0,0.0
12037,83.0,0.0,30.0,11.0,0.0
12038,64.0,0.0,90.0,4.0,0.0
12039,52.0,0.0,90.0,13.0,0.0
12040,52.0,0.0,90.0,8.0,0.0
12041,92.0,0.0,90.0,0.0,0.0
12042,40.0,0.0,90.0,14.0,0.0
12043,83.0,0.0,90.0,2.0,0.0
12044,80.0,0.0,90.0,2.0,0.0
12045,92.0,0.0,30.0,11.0,0.0
12046,83.0,24.0,30.0,11.0,0.0
12047,92.0,0.0,30.0,11.0,0.0
12048,95.0,0.0,30.0,10.0,0.0
12049,95.0,40.0,30.0,10.0,0.0
12050,83.0,0.0,30.0,11.0,0.0
12051,92.0,0.0,30.0,11.0,0.0
12052,69.0,0.0,180.0,6.0,0.0
12053,69.0,0.0,180.0,5.0,0.0
12054,81.0,0.0,180.0,2.0,0.0
12055,81.0,0.0,180.0,7.0,0.0
12056,45.0,16.0,90.0,8.0,0.0
12057,85.0,0.0,180.0,2.0,0.0
12058,69.0,40.0,180.0,7.0,0.0
12059,45.0,0.0,180.0,14.0,0.0
12060,97.0,0.0,30.0,10.0,0.0
12061,69.0,0.0,180.0,4.0,0.0
12062,69.0,0.0,180.0,12.0,0.0
12063,57.0,0.0,180.0,13.0,0.0
12064,93.0,0.0,180.0,1.0,0.0
12065,93.0,0.0,30.0,11.0,0.0
12066,85.0,40.0,30.0,11.0,0.0
12067,69.0,0.0,180.0,3.0,0.0
12068,73.0,0.0,180.0,3.0,0.0
12069,93.0,0.0,180.0,0.0,0.0
12070,93.0,0.0,30.0,11.0,0.0
12071,85.0,0.0,30.0,11.0,0.0
12072,97.0,24.0,30.0,10.0,0.0
12073,97.0,0.0,30.0,10.0,0.0
12074,93.0,40.0,30.0,11.0,0.0
12075,85.0,0.0,30.0,11.0,0.0
12076,97.0,0.0,30.0,10.0,0.0
12077,93.0,40.0,30.0,11.0,0.0
12078,85.0,0.0,30.0,11.0,0.0
12079,93.0,0.0,30.0,11.0,0.0
12080,85.0,0.0,30.0,11.0,0.0
12081,97.0,0.0,30.0,10.0,0.0
12082,97.0,0.0,30.0,10.0,0.0
12083,85.0,40.0,30.0,11.0,0.0
12084,93.0,0.0,30.0,11.0,0.0
12085,73.0,0.0,180.0,3.0,0.0
12086,85.0,0.0,180.0,7.0,0.0
12087,73.0,0.0,180.0,4.0,0.0
12088,69.0,0.0,180.0,3.0,0.0
12089,97.0,16.0,90.0,1.0,0.0
12090,73.0,0.0,180.0,7.0,0.0
12091,61.0,0.0,180.0,13.0,0.0
12092,93.0,0.0,30.0,11.0,0.0
12093,85.0,0.0,30.0,11.0,0.0
12094,85.0,0.0,180.0,2.0,0.0
12095,73.0,0.0,180.0,12.0,0.0
12096,93.0,0.0,180.0,0.0,0.0
12097,73.0,0.0,180.0,5.0,0.0
12098,49.0,0.0,180.0,14.0,0.0
12099,97.0,40.0,30.0,10.0,0.0
12100,45.0,0.0,90.0,8.0,0.0
12101,81.0,0.0,180.0,2.0,0.0
12102,69.0,0.0,180.0,6.0,0.0
12103,97.0,24.0,30.0,10.0,0.0
12104,93.0,0.0,30.0,11.0,0.0
12105,85.0,0.0,30.0,11.0,0.0
12106,93.0,0.0,30.0,11.0,0.0
12107,97.0,0.0,30.0,10.0,0.0
12108,85.0,40.0,30.0,11.0,0.0
12109,97.0,0.0,30.0,10.0,0.0
12110,97.0,24.0,40.0,1.0,0.0
12111,93.0,16.0,30.0,11.0,0.0
12112,85.0,0.0,30.0,11.0,0.0
12113,97.0,0.0,30.0,10.0,0.0
12114,93.0,0.0,30.0,11.0,0.0
12115,85.0,36.0,30.0,11.0,0.0
12116,97.0,4.0,40.0,1.0,0.0
12117,93.0,0.0,30.0,11.0,0.0
12118,85.0,0.0,30.0,11.0,0.0
12119,97.0,40.0,30.0,10.0,0.0
12120,100.0,0.0,300.0,1.0,0.0
12121,92.0,0.0,30.0,11.0,0.0
12122,83.0,40.0,30.0,11.0,0.0
12123,76.0,0.0,300.0,12.0,0.0
12124,76.0,0.0,300.0,7.0,0.0
12125,76.0,0.0,300.0,5.0,0.0
12126,80.0,24.0,300.0,2.0,0.0
12127,83.0,0.0,300.0,2.0,0.0
12128,52.0,16.0,90.0,8.0,0.0
12129,92.0,0.0,300.0,0.0,0.0
12130,64.0,0.0,300.0,4.0,0.0
12131,95.0,0.0,30.0,10.0,0.0
12132,64.0,0.0,300.0,13.0,0.0
12133,68.0,0.0,300.0,3.0,0.0
12134,71.0,0.0,300.0,3.0,0.0
12135,52.0,0.0,300.0,14.0,0.0
12136,95.0,24.0,30.0,10.0,0.0
12137,83.0,0.0,30.0,11.0,0.0
12138,92.0,0.0,30.0,11.0,0.0
12139,95.0,0.0,30.0,10.0,0.0
12140,83.0,40.0,30.0,11.0,0.0
12141,92.0,0.0,30.0,11.0,0.0
12142,92.0,0.0,30.0,11.0,0.0
12143,83.0,0.0,30.0,11.0,0.0
12144,95.0,40.0,30.0,10.0,0.0
12145,92.0,0.0,30.0,11.0,0.0
12146,83.0,40.0,30.0,11.0,0.0
12147,95.0,0.0,30.0,10.0,0.0
12148,95.0,0.0,30.0,10.0,0.0
12149,92.0,40.0,30.0,11.0,0.0
12150,83.0,0.0,30.0,11.0,0.0
12151,95.0,0.0,30.0,10.0,0.0
12152,92.0,16.0,30.0,11.0,0.0
12153,83.0,0.0,30.0,11.0,0.0
12154,92.0,40.0,30.0,11.0,0.0
12155,83.0,0.0,30.0,11.0,0.0
12156,95.0,0.0,30.0,10.0,0.0
12157,83.0,0.0,30.0,11.0,0.0
12158,95.0,0.0,30.0,10.0,0.0
12159,92.0,40.0,30.0,11.0,0.0
12160,80.0,0.0,90.0,2.0,0.0
12161,64.0,0.0,90.0,12.0,0.0
12162,83.0,0.0,90.0,2.0,0.0
12163,52.0,0.0,90.0,8.0,0.0
12164,64.0,0.0,90.0,5.0,0.0
12165,64.0,0.0,90.0,7.0,0.0
12166,76.0,0.0,90.0,7.0,0.0
12167,92.0,0.0,90.0,0.0,0.0
12168,52.0,16.0,90.0,13.0,0.0
12169,52.0,0.0,90.0,4.0,0.0
12170,71.0,0.0,90.0,3.0,0.0
12171,68.0,0.0,90.0,3.0,0.0
12172,40.0,0.0,90.0,14.0,0.0
12173,88.0,0.0,90.0,1.0,0.0
12174,83.0,0.0,30.0,11.0,0.0
12175,92.0,40.0,30.0,11.0,0.0
12176,95.0,0.0,30.0,10.0,0.0
12177,83.0,0.0,30.0,11.0,0.0
12178,95.0,0.0,30.0,10.0,0.0
12179,92.0,24.0,30.0,11.0,0.0
12180,83.0,0.0,30.0,11.0,0.0
12181,92.0,40.0,30.0,11.0,0.0
12182,95.0,0.0,30.0,10.0,0.0
12183,100.0,24.0,300.0,1.0,0.0
12184,64.0,0.0,300.0,4.0,0.0
12185,92.0,0.0,300.0,0.0,0.0
12186,52.0,0.0,300.0,14.0,0.0
12187,83.0,0.0,300.0,2.0,0.0
12188,80.0,0.0,300.0,2.0,0.0
12189,68.0,0.0,300.0,3.0,0.0
12190,71.0,0.0,300.0,3.0,0.0
12191,95.0,40.0,30.0,10.0,0.0
12192,64.0,0.0,300.0,13.0,0.0
12193,76.0,0.0,300.0,12.0,0.0
12194,76.0,0.0,300.0,5.0,0.0
12195,52.0,16.0,90.0,8.0,0.0
12196,76.0,0.0,300.0,7.0,0.0
12197,92.0,0.0,30.0,11.0,0.0
12198,83.0,0.0,30.0,11.0,0.0
12199,83.0,0.0,30.0,11.0,0.0
12200,92.0,0.0,30.0,11.0,0.0
12201,95.0,24.0,30.0,10.0,0.0
12202,83.0,40.0,30.0,11.0,0.0
12203,92.0,0.0,30.0,11.0,0.0
12204,95.0,0.0,30.0,10.0,0.0
12205,83.0,40.0,30.0,11.0,0.0
12206,95.0,0.0,30.0,10.0,0.0
12207,92.0,0.0,30.0,11.0,0.0
12208,83.0,0.0,30.0,11.0,0.0
12209,95.0,0.0,30.0,10.0,0.0
12210,92.0,40.0,30.0,11.0,0.0
12211,92.0,0.0,30.0,11.0,0.0
12212,95.0,40.0,30.0,10.0,0.0
12213,83.0,0.0,30.0,11.0,0.0
12214,83.0,0.0,30.0,11.0,0.0
12215,92.0,0.0,30.0,11.0,0.0
12216,95.0,16.0,30.0,10.0,0.0
12217,92.0,0.0,30.0,11.0,0.0
12218,83.0,40.0,30.0,11.0,0.0
12219,95.0,0.0,30.0,10.0,0.0
12220,95.0,0.0,30.0,10.0,0.0
12221,83.0,40.0,30.0,11.0,0.0
12222,92.0,0.0,30.0,11.0,0.0
12223,92.0,40.0,30.0,11.0,0.0
12224,83.0,0.0,30.0,11.0,0.0
12225,52.0,0.0,90.0,8.0,0.0
12226,92.0,0.0,90.0,0.0,0.0
12227,71.0,0.0,90.0,3.0,0.0
12228,64.0,0.0,90.0,4.0,0.0
12229,40.0,16.0,90.0,14.0,0.0
12230,95.0,0.0,30.0,10.0,0.0
12231,83.0,0.0,90.0,2.0,0.0
12232,88.0,0.0,90.0,1.0,0.0
12233,68.0,0.0,90.0,3.0,0.0
12234,80.0,0.0,90.0,2.0,0.0
12235,64.0,0.0,90.0,5.0,0.0
12236,52.0,0.0,90.0,13.0,0.0
12237,64.0,0.0,90.0,7.0,0.0
12238,76.0,0.0,90.0,7.0,0.0
12239,64.0,0.0,90.0,12.0,0.0
12240,83.0,0.0,30.0,11.0,0.0
12241,92.0,0.0,30.0,11.0,0.0
12242,95.0,24.0,30.0,10.0,0.0
12243,92.0,40.0,30.0,11.0,0.0
12244,83.0,0.0,30.0,11.0,0.0
12245,95.0,0.0,30.0,10.0,0.0
12246,52.0,16.0,90.0,8.0,0.0
12247,64.0,0.0,300.0,13.0,0.0
12248,92.0,24.0,300.0,0.0,0.0
12249,100.0,0.0,300.0,1.0,0.0
12250,76.0,0.0,300.0,5.0,0.0
12251,71.0,0.0,300.0,3.0,0.0
12252,68.0,0.0,300.0,3.0,0.0
12253,83.0,40.0,30.0,11.0,0.0
12254,76.0,0.0,300.0,12.0,0.0
12255,92.0,0.0,30.0,11.0,0.0
12256,64.0,0.0,300.0,4.0,0.0
12257,76.0,0.0,300.0,7.0,0.0
12258,83.0,0.0,300.0,2.0,0.0
12259,95.0,0.0,30.0,10.0,0.0
12260,52.0,0.0,300.0,14.0,0.0
12261,80.0,0.0,300.0,2.0,0.0
12262,95.0,0.0,30.0,10.0,0.0
12263,92.0,24.0,30.0,11.0,0.0
12264,83.0,0.0,30.0,11.0,0.0
12265,92.0,0.0,30.0,11.0,0.0
12266,95.0,40.0,30.0,10.0,0.0
12267,83.0,0.0,30.0,11.0,0.0
12268,95.0,40.0,30.0,10.0,0.0
12269,83.0,0.0,30.0,11.0,0.0
12270,92.0,0.0,30.0,11.0,0.0
12271,92.0,0.0,30.0,11.0,0.0
12272,83.0,0.0,30.0,11.0,0.0
12273,95.0,40.0,30.0,10.0,0.0
12274,95.0,0.0,30.0,10.0,0.0
12275,92.0,40.0,30.0,11.0,0.0
12276,83.0,0.0,30.0,11.0,0.0
12277,83.0,0.0,30.0,11.0,0.0
12278,95.0,16.0,30.0,10.0,0.0
12279,92.0,0.0,30.0,11.0,0.0
12280,95.0,40.0,30.0,10.0,0.0
12281,92.0,0.0,30.0,11.0,0.0
12282,83.0,0.0,30.0,11.0,0.0
12283,95.0,0.0,30.0,10.0,0.0
12284,83.0,40.0,30.0,11.0,0.0
12285,92.0,0.0,30.0,11.0,0.0
12286,88.0,0.0,90.0,1.0,0.0
12287,52.0,0.0,90.0,13.0,0.0
12288,64.0,0.0,90.0,7.0,0.0
12289,76.0,0.0,90.0,7.0,0.0
12290,95.0,40.0,30.0,10.0,0.0
12291,40.0,0.0,90.0,14.0,0.0
12292,83.0,0.0,30.0,11.0,0.0
12293,80.0,0.0,90.0,2.0,0.0
12294,83.0,0.0,90.0,2.0,0.0
12295,64.0,0.0,90.0,12.0,0.0
12296,52.0,0.0,90.0,8.0,0.0
12297,92.0,0.0,30.0,11.0,0.0
12298,52.0,0.0,90.0,4.0,0.0
12299,68.0,0.0,90.0,3.0,0.0
12300,71.0,0.0,90.0,3.0,0.0
12301,64.0,16.0,90.0,5.0,0.0
12302,92.0,0.0,90.0,0.0,0.0
12303,92.0,24.0,30.0,11.0,0.0
12304,95.0,0.0,30.0,10.0,0.0
12305,83.0,0.0,30.0,11.0,0.0
12306,92.0,0.0,30.0,11.0,0.0
12307,83.0,0.0,30.0,11.0,0.0
12308,95.0,32.0,30.0,10.0,0.0
12309,76.0,0.0,870.0,3.0,0.0
12310,93.0,0.0,20.0,10.0,0.0
12311,45.0,0.0,20.0,8.0,0.0
12312,33.0,0.0,40.0,14.0,0.0
12313,76.0,0.0,870.0,5.0,0.0
12314,88.0,0.0,870.0,3.0,0.0
12315,45.0,6.0,40.0,13.0,0.0
12316,88.0,0.0,870.0,2.0,0.0
12317,76.0,0.0,870.0,7.0,0.0
12318,64.0,0.0,870.0,4.0,0.0
12319,76.0,24.0,870.0,2.0,0.0
12320,85.0,0.0,40.0,11.0,0.0
12321,93.0,0.0,40.0,11.0,0.0
12322,76.0,24.0,20.0,12.0,0.0
12323,93.0,0.0,40.0,0.0,0.0
12324,100.0,0.0,870.0,1.0,0.0
12325,45.0,0.0,20.0,8.0,0.0
12326,76.0,30.0,20.0,12.0,0.0
12327,93.0,0.0,20.0,10.0,0.0
12328,33.0,0.0,40.0,14.0,0.0
12329,45.0,0.0,20.0,8.0,0.0
12330,81.0,6.0,40.0,0.0,0.0
12331,45.0,0.0,40.0,13.0,0.0
12332,69.0,24.0,20.0,12.0,0.0
12333,81.0,0.0,20.0,11.0,0.0
12334,81.0,0.0,20.0,10.0,0.0
12335,45.0,0.0,20.0,8.0,0.0
12336,81.0,0.0,20.0,10.0,0.0
12337,69.0,0.0,20.0,12.0,0.0
12338,81.0,30.0,20.0,11.0,0.0
12339,83.0,6.0,40.0,0.0,0.0
12340,33.0,0.0,40.0,14.0,0.0
12341,45.0,0.0,20.0,8.0,0.0
12342,45.0,0.0,40.0,13.0,0.0
12343,83.0,0.0,20.0,11.0,0.0
12344,83.0,24.0,20.0,10.0,0.0
12345,71.0,0.0,20.0,12.0,0.0
12346,83.0,30.0,20.0,11.0,0.0
12347,45.0,0.0,20.0,8.0,0.0
12348,71.0,0.0,20.0,12.0,0.0
12349,83.0,0.0,20.0,10.0,0.0
12350,85.0,0.0,20.0,10.0,0.0
12351,45.0,24.0,20.0,8.0,0.0
12352,45.0,0.0,40.0,13.0,0.0
12353,73.0,0.0,20.0,12.0,0.0
12354,33.0,0.0,40.0,14.0,0.0
12355,85.0,0.0,20.0,11.0,0.0
12356,85.0,6.0,40.0,0.0,0.0
12357,85.0,30.0,20.0,11.0,0.0
12358,73.0,0.0,20.0,12.0,0.0
12359,45.0,0.0,20.0,8.0,0.0
12360,85.0,0.0,20.0,10.0,0.0
12361,33.0,6.0,40.0,14.0,0.0
12362,86.0,0.0,20.0,11.0,0.0
12363,86.0,0.0,40.0,0.0,0.0
12364,74.0,0.0,20.0,12.0,0.0
12365,45.0,0.0,40.0,13.0,0.0
12366,45.0,0.0,20.0,8.0,0.0
12367,86.0,24.0,20.0,10.0,0.0
12368,86.0,0.0,20.0,10.0,0.0
12369,45.0,0.0,20.0,8.0,0.0
12370,74.0,30.0,20.0,12.0,0.0
12371,86.0,0.0,20.0,11.0,0.0
12372,45.0,0.0,40.0,13.0,0.0
12373,45.0,0.0,20.0,8.0,0.0
12374,73.0,0.0,20.0,12.0,0.0
12375,85.0,0.0,20.0,11.0,0.0
12376,85.0,0.0,40.0,0.0,0.0
12377,85.0,24.0,20.0,10.0,0.0
12378,33.0,6.0,40.0,14.0,0.0
12379,85.0,0.0,20.0,11.0,0.0
12380,45.0,0.0,20.0,8.0,0.0
12381,73.0,30.0,20.0,12.0,0.0
12382,85.0,0.0,20.0,10.0,0.0
12383,86.0,0.0,20.0,10.0,0.0
12384,86.0,0.0,40.0,0.0,0.0
12385,33.0,6.0,40.0,14.0,0.0
12386,74.0,0.0,20.0,12.0,0.0
12387,45.0,24.0,20.0,8.0,0.0
12388,86.0,0.0,20.0,11.0,0.0
12389,45.0,0.0,40.0,13.0,0.0
12390,74.0,0.0,20.0,12.0,0.0
12391,86.0,0.0,20.0,10.0,0.0
12392,45.0,30.0,20.0,8.0,0.0
12393,86.0,0.0,20.0,11.0,0.0
12394,33.0,6.0,40.0,14.0,0.0
12395,76.0,0.0,20.0,12.0,0.0
12396,45.0,0.0,20.0,8.0,0.0
12397,88.0,0.0,20.0,10.0,0.0
12398,88.0,24.0,20.0,11.0,0.0
12399,45.0,0.0,40.0,13.0,0.0
12400,88.0,0.0,40.0,0.0,0.0
12401,88.0,0.0,20.0,10.0,0.0
12402,88.0,0.0,20.0,11.0,0.0
12403,45.0,30.0,20.0,8.0,0.0
12404,76.0,0.0,20.0,12.0,0.0
12405,90.0,0.0,40.0,0.0,0.0
12406,90.0,0.0,20.0,11.0,0.0
12407,78.0,0.0,20.0,12.0,0.0
12408,33.0,0.0,40.0,14.0,0.0
12409,90.0,24.0,20.0,10.0,0.0
12410,45.0,0.0,20.0,8.0,0.0
12411,45.0,6.0,40.0,13.0,0.0
12412,78.0,0.0,20.0,12.0,0.0
12413,90.0,0.0,20.0,11.0,0.0
12414,90.0,0.0,20.0,10.0,0.0
12415,45.0,30.0,20.0,8.0,0.0
12416,45.0,0.0,40.0,13.0,0.0
12417,88.0,0.0,20.0,11.0,0.0
12418,33.0,6.0,40.0,14.0,0.0
12419,88.0,0.0,20.0,10.0,0.0
12420,45.0,0.0,20.0,8.0,0.0
12421,88.0,0.0,40.0,0.0,0.0
12422,76.0,24.0,20.0,12.0,0.0
12423,76.0,0.0,20.0,12.0,0.0
12424,45.0,0.0,20.0,8.0,0.0
12425,88.0,30.0,20.0,10.0,0.0
12426,88.0,0.0,20.0,11.0,0.0
12427,33.0,6.0,40.0,14.0,0.0
12428,78.0,24.0,20.0,12.0,0.0
12429,45.0,0.0,40.0,13.0,0.0
12430,90.0,0.0,20.0,11.0,0.0
12431,90.0,0.0,20.0,10.0,0.0
12432,45.0,0.0,20.0,8.0,0.0
12433,90.0,0.0,40.0,0.0,0.0
12434,45.0,0.0,20.0,8.0,0.0
12435,90.0,30.0,20.0,11.0,0.0
12436,78.0,0.0,20.0,12.0,0.0
12437,90.0,0.0,20.0,10.0,0.0
12438,45.0,0.0,20.0,8.0,0.0
12439,80.0,0.0,20.0,12.0,0.0
12440,92.0,0.0,20.0,11.0,0.0
12441,33.0,6.0,40.0,14.0,0.0
12442,45.0,0.0,40.0,13.0,0.0
12443,92.0,24.0,20.0,10.0,0.0
12444,92.0,0.0,40.0,0.0,0.0
12445,80.0,30.0,20.0,12.0,0.0
12446,92.0,0.0,20.0,10.0,0.0
12447,45.0,0.0,20.0,8.0,0.0
12448,92.0,0.0,20.0,11.0,0.0
12449,93.0,0.0,20.0,10.0,0.0
12450,45.0,0.0,20.0,8.0,0.0
12451,93.0,0.0,40.0,0.0,0.0
12452,33.0,0.0,40.0,14.0,0.0
12453,93.0,24.0,20.0,11.0,0.0
12454,81.0,0.0,20.0,12.0,0.0
12455,45.0,6.0,40.0,13.0,0.0
12456,93.0,0.0,20.0,10.0,0.0
12457,81.0,0.0,20.0,12.0,0.0
12458,93.0,0.0,20.0,11.0,0.0
12459,45.0,30.0,20.0,8.0,0.0
12460,33.0,6.0,40.0,14.0,0.0
12461,45.0,0.0,40.0,13.0,0.0
12462,80.0,0.0,20.0,12.0,0.0
12463,92.0,0.0,20.0,11.0,0.0
12464,45.0,0.0,20.0,8.0,0.0
12465,92.0,24.0,20.0,10.0,0.0
12466,92.0,0.0,40.0,0.0,0.0
12467,92.0,0.0,20.0,11.0,0.0
12468,80.0,30.0,20.0,12.0,0.0
12469,92.0,0.0,20.0,10.0,0.0
12470,45.0,0.0,20.0,8.0,0.0
12471,45.0,6.0,40.0,13.0,0.0
12472,33.0,0.0,40.0,14.0,0.0
12473,93.0,0.0,20.0,10.0,0.0
12474,93.0,0.0,40.0,0.0,0.0
12475,45.0,0.0,20.0,8.0,0.0
12476,81.0,0.0,20.0,12.0,0.0
12477,93.0,0.0,20.0,11.0,0.0
12478,93.0,0.0,20.0,10.0,0.0
12479,93.0,0.0,20.0,11.0,0.0
12480,45.0,0.0,20.0,8.0,0.0
12481,81.0,30.0,20.0,12.0,0.0
12482,45.0,0.0,40.0,13.0,0.0
12483,80.0,24.0,20.0,12.0,0.0
12484,95.0,0.0,20.0,11.0,0.0
12485,95.0,0.0,20.0,10.0,0.0
12486,45.0,0.0,20.0,8.0,0.0
12487,95.0,6.0,40.0,0.0,0.0
12488,33.0,0.0,40.0,14.0,0.0
12489,45.0,0.0,20.0,8.0,0.0
12490,80.0,0.0,20.0,12.0,0.0
12491,95.0,0.0,20.0,10.0,0.0
12492,95.0,102.0,20.0,11.0,0.0
12493,97.0,0.0,90.0,11.0,0.0
12494,85.0,0.0,90.0,2.0,0.0
12495,45.0,0.0,90.0,8.0,0.0
12496,97.0,0.0,90.0,0.0,0.0
12497,81.0,0.0,90.0,2.0,0.0
12498,105.0,0.0,90.0,1.0,0.0
12499,81.0,0.0,90.0,12.0,0.0
12500,69.0,0.0,90.0,7.0,0.0
12501,57.0,0.0,90.0,4.0,0.0
12502,69.0,0.0,90.0,4.0,0.0
12503,69.0,0.0,90.0,5.0,0.0
12504,97.0,0.0,90.0,10.0,0.0
12505,73.0,0.0,90.0,5.0,0.0
12506,33.0,0.0,90.0,14.0,0.0
12507,69.0,0.0,90.0,6.0,0.0
12508,45.0,0.0,90.0,13.0,0.0
12509,85.0,96.0,90.0,3.0,0.0
12510,81.0,0.0,90.0,3.0,0.0
12511,81.0,0.0,90.0,7.0,0.0
12512,64.0,0.0,60.0,5.0,0.0
12513,76.0,0.0,60.0,5.0,0.0
12514,73.0,0.0,60.0,7.0,0.0
12515,76.0,0.0,60.0,7.0,0.0
12516,61.0,4.0,60.0,4.0,0.0
12517,64.0,0.0,60.0,4.0,0.0
12518,100.0,20.0,15.0,1.0,0.0
12519,102.0,18.0,15.0,1.0,0.0
12520,76.0,0.0,20.0,5.0,0.0
12521,64.0,0.0,20.0,5.0,0.0
12522,61.0,2.0,20.0,4.0,0.0
12523,64.0,0.0,20.0,4.0,0.0
12524,76.0,0.0,20.0,7.0,0.0
12525,73.0,0.0,20.0,7.0,0.0
12526,104.0,100.0,15.0,1.0,0.0
12527,69.0,0.0,90.0,4.0,0.0
12528,69.0,0.0,90.0,5.0,0.0
12529,105.0,0.0,90.0,1.0,0.0
12530,73.0,0.0,90.0,5.0,0.0
12531,69.0,0.0,90.0,7.0,0.0
12532,57.0,0.0,90.0,4.0,0.0
12533,81.0,120.0,90.0,7.0,0.0
12534,64.0,0.0,90.0,5.0,0.0
12535,61.0,0.0,90.0,4.0,0.0
12536,64.0,0.0,90.0,4.0,0.0
12537,76.0,0.0,90.0,5.0,0.0
12538,76.0,0.0,90.0,7.0,0.0
12539,73.0,120.0,90.0,7.0,0.0
12540,73.0,0.0,90.0,12.0,0.0
12541,64.0,0.0,90.0,12.0,0.0
12542,81.0,0.0,90.0,3.0,0.0
12543,85.0,0.0,90.0,11.0,0.0
12544,52.0,0.0,90.0,12.0,0.0
12545,97.0,0.0,90.0,0.0,0.0
12546,69.0,0.0,90.0,10.0,0.0
12547,76.0,0.0,90.0,10.0,0.0
12548,76.0,0.0,90.0,11.0,0.0
12549,69.0,0.0,90.0,11.0,0.0
12550,85.0,0.0,90.0,10.0,0.0
12551,45.0,0.0,90.0,13.0,0.0
12552,73.0,96.0,90.0,3.0,0.0
12553,57.0,0.0,90.0,4.0,0.0
12554,69.0,0.0,90.0,6.0,0.0
12555,45.0,0.0,90.0,8.0,0.0
12556,33.0,0.0,90.0,14.0,0.0
12557,73.0,0.0,90.0,5.0,0.0
12558,69.0,0.0,90.0,5.0,0.0
12559,81.0,0.0,90.0,2.0,0.0
12560,85.0,0.0,90.0,2.0,0.0
12561,81.0,0.0,90.0,7.0,0.0
12562,69.0,0.0,90.0,4.0,0.0
12563,69.0,0.0,90.0,7.0,0.0
12564,76.0,4.0,60.0,5.0,0.0
12565,64.0,0.0,60.0,5.0,0.0
12566,61.0,0.0,60.0,4.0,0.0
12567,73.0,0.0,60.0,7.0,0.0
12568,76.0,0.0,60.0,7.0,0.0
12569,64.0,0.0,60.0,4.0,0.0
12570,100.0,20.0,15.0,1.0,0.0
12571,102.0,18.0,15.0,1.0,0.0
12572,64.0,2.0,20.0,4.0,0.0
12573,61.0,0.0,20.0,4.0,0.0
12574,73.0,0.0,20.0,7.0,0.0
12575,76.0,0.0,20.0,7.0,0.0
12576,76.0,0.0,20.0,5.0,0.0
12577,64.0,0.0,20.0,5.0,0.0
12578,104.0,100.0,15.0,1.0,0.0
12579,81.0,120.0,90.0,7.0,0.0
12580,69.0,0.0,90.0,7.0,0.0
12581,105.0,0.0,90.0,1.0,0.0
12582,57.0,0.0,90.0,4.0,0.0
12583,73.0,0.0,90.0,5.0,0.0
12584,69.0,0.0,90.0,5.0,0.0
12585,69.0,0.0,90.0,4.0,0.0
12586,76.0,0.0,90.0,7.0,0.0
12587,64.0,0.0,90.0,5.0,0.0
12588,76.0,120.0,90.0,5.0,0.0
12589,61.0,0.0,90.0,4.0,0.0
12590,64.0,0.0,90.0,4.0,0.0
12591,73.0,0.0,90.0,7.0,0.0
12592,45.0,0.0,90.0,8.0,0.0
12593,52.0,0.0,90.0,12.0,0.0
12594,64.0,0.0,90.0,12.0,0.0
12595,73.0,0.0,90.0,12.0,0.0
12596,69.0,0.0,90.0,11.0,0.0
12597,76.0,0.0,90.0,11.0,0.0
12598,85.0,0.0,90.0,11.0,0.0
12599,85.0,0.0,90.0,10.0,0.0
12600,81.0,0.0,90.0,2.0,0.0
12601,85.0,0.0,90.0,2.0,0.0
12602,76.0,0.0,90.0,10.0,0.0
12603,69.0,0.0,90.0,10.0,0.0
12604,97.0,0.0,90.0,0.0,0.0
12605,69.0,0.0,90.0,7.0,0.0
12606,69.0,0.0,90.0,6.0,0.0
12607,73.0,0.0,90.0,3.0,0.0
12608,81.0,0.0,90.0,3.0,0.0
12609,57.0,0.0,90.0,4.0,0.0
12610,69.0,0.0,90.0,4.0,0.0
12611,81.0,0.0,90.0,7.0,0.0
12612,45.0,0.0,90.0,13.0,0.0
12613,69.0,0.0,90.0,5.0,0.0
12614,33.0,0.0,90.0,14.0,0.0
12615,73.0,96.0,90.0,5.0,0.0
12616,76.0,0.0,60.0,7.0,0.0
12617,73.0,0.0,60.0,7.0,0.0
12618,61.0,0.0,60.0,4.0,0.0
12619,64.0,0.0,60.0,5.0,0.0
12620,64.0,0.0,60.0,4.0,0.0
12621,76.0,4.0,60.0,5.0,0.0
12622,100.0,20.0,15.0,1.0,0.0
12623,102.0,18.0,15.0,1.0,0.0
12624,76.0,0.0,20.0,7.0,0.0
12625,73.0,2.0,20.0,7.0,0.0
12626,64.0,0.0,20.0,4.0,0.0
12627,76.0,0.0,20.0,5.0,0.0
12628,61.0,0.0,20.0,4.0,0.0
12629,64.0,0.0,20.0,5.0,0.0
12630,104.0,100.0,15.0,1.0,0.0
12631,105.0,0.0,90.0,1.0,0.0
12632,69.0,120.0,90.0,4.0,0.0
12633,69.0,0.0,90.0,5.0,0.0
12634,81.0,0.0,90.0,7.0,0.0
12635,69.0,0.0,90.0,7.0,0.0
12636,57.0,0.0,90.0,4.0,0.0
12637,73.0,0.0,90.0,5.0,0.0
12638,73.0,0.0,90.0,7.0,0.0
12639,64.0,0.0,90.0,5.0,0.0
12640,76.0,0.0,90.0,5.0,0.0
12641,61.0,120.0,90.0,4.0,0.0
12642,64.0,0.0,90.0,4.0,0.0
12643,76.0,0.0,90.0,7.0,0.0
12644,97.0,0.0,90.0,0.0,0.0
12645,61.0,0.0,90.0,12.0,0.0
12646,52.0,0.0,90.0,12.0,0.0
12647,69.0,0.0,90.0,4.0,0.0
12648,33.0,0.0,90.0,14.0,0.0
12649,81.0,0.0,90.0,10.0,0.0
12650,73.0,0.0,90.0,10.0,0.0
12651,69.0,0.0,90.0,10.0,0.0
12652,69.0,0.0,90.0,12.0,0.0
12653,73.0,0.0,90.0,2.0,0.0
12654,45.0,0.0,90.0,8.0,0.0
12655,81.0,0.0,90.0,2.0,0.0
12656,57.0,0.0,90.0,4.0,0.0
12657,69.0,0.0,90.0,7.0,0.0
12658,81.0,0.0,90.0,7.0,0.0
12659,73.0,100.0,90.0,11.0,0.0
12660,69.0,0.0,90.0,11.0,0.0
12661,81.0,0.0,90.0,3.0,0.0
12662,73.0,0.0,90.0,3.0,0.0
12663,69.0,0.0,90.0,6.0,0.0
12664,61.0,0.0,90.0,5.0,0.0
12665,69.0,0.0,90.0,5.0,0.0
12666,45.0,0.0,90.0,13.0,0.0
12667,81.0,0.0,90.0,11.0,0.0
12668,100.0,20.0,15.0,1.0,0.0
12669,102.0,20.0,15.0,1.0,0.0
12670,104.0,100.0,15.0,1.0,0.0
12671,73.0,0.0,90.0,11.0,0.0
12672,81.0,0.0,90.0,11.0,0.0
12673,69.0,0.0,90.0,11.0,0.0
12674,57.0,0.0,90.0,4.0,0.0
12675,73.0,0.0,90.0,2.0,0.0
12676,61.0,0.0,90.0,5.0,0.0
12677,97.0,0.0,90.0,0.0,0.0
12678,81.0,100.0,90.0,2.0,0.0
12679,69.0,0.0,90.0,6.0,0.0
12680,69.0,0.0,90.0,7.0,0.0
12681,69.0,0.0,90.0,5.0,0.0
12682,45.0,0.0,90.0,4.0,0.0
12683,52.0,0.0,90.0,12.0,0.0
12684,73.0,0.0,90.0,3.0,0.0
12685,33.0,0.0,90.0,14.0,0.0
12686,81.0,0.0,90.0,3.0,0.0
12687,61.0,0.0,90.0,12.0,0.0
12688,45.0,0.0,90.0,13.0,0.0
12689,69.0,0.0,90.0,12.0,0.0
12690,105.0,0.0,90.0,1.0,0.0
12691,69.0,0.0,90.0,10.0,0.0
12692,73.0,0.0,90.0,10.0,0.0
12693,45.0,0.0,90.0,8.0,0.0
12694,81.0,0.0,90.0,10.0,0.0
12695,100.0,20.0,15.0,1.0,0.0
12696,102.0,20.0,15.0,1.0,0.0
12697,104.0,100.0,15.0,1.0,0.0
12698,45.0,0.0,90.0,13.0,0.0
12699,69.0,0.0,90.0,6.0,0.0
12700,73.0,0.0,90.0,3.0,0.0
12701,81.0,0.0,90.0,11.0,0.0
12702,73.0,0.0,90.0,11.0,0.0
12703,69.0,0.0,90.0,11.0,0.0
12704,33.0,0.0,90.0,14.0,0.0
12705,81.0,0.0,90.0,3.0,0.0
12706,61.0,384.0,90.0,5.0,0.0
12707,45.0,0.0,90.0,8.0,0.0
12708,69.0,0.0,90.0,12.0,0.0
12709,61.0,0.0,90.0,12.0,0.0
12710,52.0,0.0,90.0,12.0,0.0
12711,45.0,0.0,90.0,4.0,0.0
12712,81.0,0.0,90.0,2.0,0.0
12713,73.0,0.0,90.0,2.0,0.0
12714,105.0,0.0,90.0,1.0,0.0
12715,97.0,0.0,90.0,0.0,0.0
12716,69.0,0.0,90.0,10.0,0.0
12717,73.0,0.0,90.0,10.0,0.0
12718,57.0,0.0,90.0,4.0,0.0
12719,69.0,0.0,90.0,7.0,0.0
12720,69.0,0.0,90.0,5.0,0.0
12721,81.0,0.0,90.0,10.0,0.0
12722,81.0,0.0,120.0,10.0,0.0
