,note,step,duration,channel,velocity
0,50.0,240.0,720.0,0.0,0.0
1,77.0,0.0,15.0,0.0,0.0
2,68.0,0.0,15.0,0.0,0.0
3,59.0,0.0,15.0,0.0,0.0
4,68.0,0.0,15.0,0.0,0.0
5,77.0,0.0,15.0,0.0,0.0
6,50.0,720.0,15.0,0.0,0.0
7,59.0,0.0,15.0,0.0,0.0
8,68.0,0.0,15.0,0.0,0.0
9,50.0,0.0,15.0,0.0,0.0
10,59.0,0.0,15.0,0.0,0.0
11,77.0,240.0,15.0,0.0,0.0
12,50.0,0.0,15.0,0.0,0.0
13,68.0,0.0,360.0,0.0,0.0
14,77.0,360.0,15.0,0.0,0.0
15,59.0,0.0,15.0,0.0,0.0
16,59.0,360.0,120.0,0.0,0.0
17,50.0,0.0,15.0,0.0,0.0
18,77.0,0.0,15.0,0.0,0.0
19,68.0,0.0,15.0,0.0,0.0
20,59.0,0.0,15.0,0.0,0.0
21,50.0,0.0,15.0,0.0,0.0
22,68.0,0.0,120.0,0.0,0.0
23,77.0,120.0,15.0,0.0,0.0
24,77.0,0.0,15.0,0.0,0.0
25,50.0,0.0,360.0,0.0,0.0
26,59.0,360.0,15.0,0.0,0.0
27,68.0,0.0,360.0,0.0,0.0
28,50.0,0.0,120.0,0.0,0.0
29,59.0,120.0,15.0,0.0,0.0
30,59.0,0.0,15.0,0.0,0.0
31,68.0,360.0,15.0,0.0,0.0
32,77.0,0.0,15.0,0.0,0.0
33,50.0,0.0,360.0,0.0,0.0
34,68.0,0.0,120.0,0.0,0.0
35,77.0,0.0,15.0,0.0,0.0
36,50.0,0.0,120.0,0.0,0.0
37,59.0,120.0,15.0,0.0,0.0
38,68.0,0.0,480.0,0.0,0.0
39,77.0,360.0,480.0,0.0,0.0
40,59.0,480.0,15.0,0.0,0.0
41,50.0,0.0,480.0,0.0,0.0
42,89.0,120.0,120.0,0.0,0.0
43,88.0,120.0,120.0,0.0,0.0
44,86.0,120.0,120.0,0.0,0.0
45,88.0,120.0,120.0,0.0,0.0
46,86.0,120.0,120.0,0.0,0.0
47,84.0,120.0,120.0,0.0,0.0
48,83.0,120.0,120.0,0.0,0.0
49,84.0,120.0,120.0,0.0,0.0
50,83.0,120.0,120.0,0.0,0.0
51,81.0,480.0,120.0,0.0,0.0
52,80.0,360.0,480.0,0.0,0.0
53,77.0,120.0,120.0,0.0,0.0
54,76.0,120.0,120.0,0.0,0.0
55,74.0,120.0,120.0,0.0,0.0
56,76.0,120.0,120.0,0.0,0.0
57,74.0,120.0,120.0,0.0,0.0
58,72.0,120.0,120.0,0.0,0.0
59,71.0,120.0,120.0,0.0,0.0
60,72.0,120.0,120.0,0.0,0.0
61,71.0,120.0,120.0,0.0,0.0
62,69.0,480.0,120.0,0.0,0.0
63,68.0,360.0,480.0,0.0,0.0
64,77.0,120.0,120.0,0.0,0.0
65,76.0,120.0,120.0,0.0,0.0
66,74.0,120.0,120.0,0.0,0.0
67,76.0,120.0,120.0,0.0,0.0
68,74.0,120.0,120.0,0.0,0.0
69,72.0,120.0,120.0,0.0,0.0
70,71.0,120.0,120.0,0.0,0.0
71,72.0,120.0,120.0,0.0,0.0
72,71.0,120.0,120.0,0.0,0.0
73,69.0,120.0,120.0,0.0,0.0
74,68.0,120.0,120.0,0.0,0.0
75,69.0,120.0,120.0,0.0,0.0
76,68.0,120.0,120.0,0.0,0.0
77,65.0,120.0,120.0,0.0,0.0
78,64.0,120.0,120.0,0.0,0.0
79,65.0,120.0,120.0,0.0,0.0
80,64.0,120.0,120.0,0.0,0.0
81,63.0,120.0,120.0,0.0,0.0
82,62.0,120.0,120.0,0.0,0.0
83,64.0,120.0,120.0,0.0,0.0
84,62.0,120.0,120.0,0.0,0.0
85,60.0,120.0,120.0,0.0,0.0
86,59.0,120.0,120.0,0.0,0.0
87,60.0,120.0,120.0,0.0,0.0
88,59.0,120.0,120.0,0.0,0.0
89,57.0,120.0,120.0,0.0,0.0
90,56.0,120.0,120.0,0.0,0.0
91,57.0,120.0,120.0,0.0,0.0
92,56.0,120.0,120.0,0.0,0.0
93,53.0,130.0,120.0,0.0,0.0
94,40.0,120.0,120.0,0.0,0.0
95,52.0,0.0,120.0,0.0,0.0
96,53.0,0.0,120.0,0.0,0.0
97,41.0,120.0,120.0,0.0,0.0
98,40.0,0.0,120.0,0.0,0.0
99,52.0,120.0,120.0,0.0,0.0
100,51.0,0.0,120.0,0.0,0.0
101,39.0,120.0,120.0,0.0,0.0
102,52.0,0.0,120.0,0.0,0.0
103,40.0,120.0,120.0,0.0,0.0
104,53.0,120.0,120.0,0.0,0.0
105,41.0,0.0,120.0,0.0,0.0
106,40.0,120.0,120.0,0.0,0.0
107,52.0,0.0,120.0,0.0,0.0
108,39.0,120.0,120.0,0.0,0.0
109,51.0,0.0,120.0,0.0,0.0
110,40.0,0.0,120.0,0.0,0.0
111,52.0,120.0,120.0,0.0,0.0
112,41.0,0.0,120.0,0.0,0.0
113,53.0,120.0,120.0,0.0,0.0
114,40.0,0.0,120.0,0.0,0.0
115,52.0,120.0,120.0,0.0,0.0
116,51.0,0.0,120.0,0.0,0.0
117,39.0,120.0,120.0,0.0,0.0
118,52.0,120.0,120.0,0.0,0.0
119,40.0,0.0,120.0,0.0,0.0
120,41.0,120.0,120.0,0.0,0.0
121,53.0,0.0,120.0,0.0,0.0
122,52.0,120.0,120.0,0.0,0.0
123,40.0,0.0,120.0,0.0,0.0
124,39.0,0.0,120.0,0.0,0.0
125,51.0,120.0,120.0,0.0,0.0
126,40.0,0.0,120.0,0.0,0.0
127,52.0,120.0,120.0,0.0,0.0
128,53.0,120.0,120.0,0.0,0.0
129,41.0,0.0,120.0,0.0,0.0
130,40.0,120.0,120.0,0.0,0.0
131,52.0,0.0,120.0,0.0,0.0
132,39.0,0.0,120.0,0.0,0.0
133,51.0,120.0,120.0,0.0,0.0
134,50.0,0.0,120.0,0.0,0.0
135,38.0,120.0,120.0,0.0,0.0
136,52.0,0.0,120.0,0.0,0.0
137,40.0,120.0,120.0,0.0,0.0
138,50.0,120.0,120.0,0.0,0.0
139,38.0,0.0,120.0,0.0,0.0
140,49.0,120.0,120.0,0.0,0.0
141,37.0,0.0,120.0,0.0,0.0
142,50.0,120.0,120.0,0.0,0.0
143,38.0,0.0,120.0,0.0,0.0
144,52.0,120.0,120.0,0.0,0.0
145,40.0,0.0,120.0,0.0,0.0
146,38.0,120.0,120.0,0.0,0.0
147,50.0,0.0,120.0,0.0,0.0
148,37.0,0.0,120.0,0.0,0.0
149,49.0,120.0,120.0,0.0,0.0
150,38.0,0.0,120.0,0.0,0.0
151,50.0,120.0,120.0,0.0,0.0
152,40.0,0.0,120.0,0.0,0.0
153,52.0,120.0,120.0,0.0,0.0
154,38.0,0.0,120.0,0.0,0.0
155,50.0,120.0,120.0,0.0,0.0
156,37.0,120.0,120.0,0.0,0.0
157,49.0,0.0,120.0,0.0,0.0
158,50.0,120.0,120.0,0.0,0.0
159,38.0,0.0,120.0,0.0,0.0
160,40.0,0.0,120.0,0.0,0.0
161,52.0,120.0,120.0,0.0,0.0
162,38.0,120.0,120.0,0.0,0.0
163,50.0,0.0,120.0,0.0,0.0
164,49.0,120.0,120.0,0.0,0.0
165,37.0,0.0,120.0,0.0,0.0
166,38.0,120.0,120.0,0.0,0.0
167,50.0,0.0,120.0,0.0,0.0
168,52.0,0.0,120.0,0.0,0.0
169,40.0,120.0,120.0,0.0,0.0
170,38.0,0.0,120.0,0.0,0.0
171,50.0,120.0,120.0,0.0,0.0
172,37.0,0.0,120.0,0.0,0.0
173,49.0,120.0,120.0,0.0,0.0
174,38.0,120.0,120.0,0.0,0.0
175,50.0,0.0,120.0,0.0,0.0
176,52.0,0.0,120.0,0.0,0.0
177,40.0,120.0,120.0,0.0,0.0
178,50.0,120.0,120.0,0.0,0.0
179,38.0,0.0,120.0,0.0,0.0
180,49.0,120.0,120.0,0.0,0.0
181,37.0,0.0,120.0,0.0,0.0
182,38.0,0.0,120.0,0.0,0.0
183,50.0,120.0,120.0,0.0,0.0
184,35.0,120.0,120.0,0.0,0.0
185,47.0,0.0,120.0,0.0,0.0
186,48.0,120.0,120.0,0.0,0.0
187,36.0,0.0,120.0,0.0,0.0
188,50.0,120.0,120.0,0.0,0.0
189,38.0,0.0,120.0,0.0,0.0
190,40.0,0.0,120.0,0.0,0.0
191,52.0,120.0,120.0,0.0,0.0
192,50.0,120.0,120.0,0.0,0.0
193,38.0,0.0,120.0,0.0,0.0
194,36.0,120.0,120.0,0.0,0.0
195,48.0,0.0,120.0,0.0,0.0
196,47.0,0.0,120.0,0.0,0.0
197,35.0,230.0,120.0,0.0,0.0
198,33.0,0.0,480.0,0.0,0.0
199,52.0,120.0,120.0,0.0,0.0
200,57.0,120.0,120.0,0.0,0.0
201,60.0,120.0,120.0,0.0,0.0
202,64.0,120.0,120.0,0.0,0.0
203,65.0,120.0,120.0,0.0,0.0
204,64.0,120.0,120.0,0.0,0.0
205,62.0,120.0,120.0,0.0,0.0
206,60.0,120.0,120.0,0.0,0.0
207,62.0,120.0,120.0,0.0,0.0
208,60.0,120.0,120.0,0.0,0.0
209,59.0,120.0,120.0,0.0,0.0
210,57.0,120.0,120.0,0.0,0.0
211,59.0,120.0,120.0,0.0,0.0
212,60.0,120.0,120.0,0.0,0.0
213,45.0,240.0,120.0,0.0,0.0
214,57.0,0.0,120.0,0.0,0.0
215,33.0,0.0,480.0,0.0,0.0
216,52.0,120.0,120.0,0.0,0.0
217,57.0,120.0,120.0,0.0,0.0
218,60.0,120.0,120.0,0.0,0.0
219,64.0,120.0,120.0,0.0,0.0
220,65.0,120.0,120.0,0.0,0.0
221,64.0,120.0,120.0,0.0,0.0
222,62.0,120.0,120.0,0.0,0.0
223,60.0,120.0,120.0,0.0,0.0
224,62.0,120.0,120.0,0.0,0.0
225,60.0,120.0,120.0,0.0,0.0
226,59.0,120.0,120.0,0.0,0.0
227,57.0,120.0,120.0,0.0,0.0
228,59.0,120.0,120.0,0.0,0.0
229,60.0,120.0,120.0,0.0,0.0
230,57.0,0.0,120.0,0.0,0.0
231,45.0,240.0,120.0,0.0,0.0
232,38.0,120.0,480.0,0.0,0.0
233,53.0,120.0,120.0,0.0,0.0
234,58.0,120.0,120.0,0.0,0.0
235,62.0,0.0,120.0,0.0,0.0
236,65.0,120.0,120.0,0.0,0.0
237,67.0,120.0,120.0,0.0,0.0
238,65.0,120.0,120.0,0.0,0.0
239,64.0,120.0,120.0,0.0,0.0
240,62.0,120.0,120.0,0.0,0.0
241,64.0,120.0,120.0,0.0,0.0
242,62.0,120.0,120.0,0.0,0.0
243,60.0,120.0,120.0,0.0,0.0
244,58.0,120.0,120.0,0.0,0.0
245,60.0,120.0,120.0,0.0,0.0
246,58.0,120.0,120.0,0.0,0.0
247,57.0,120.0,120.0,0.0,0.0
248,41.0,0.0,120.0,0.0,0.0
249,40.0,120.0,240.0,0.0,0.0
250,56.0,120.0,120.0,0.0,0.0
251,57.0,0.0,120.0,0.0,0.0
252,59.0,120.0,120.0,0.0,0.0
253,56.0,120.0,120.0,0.0,0.0
254,41.0,120.0,240.0,0.0,0.0
255,57.0,120.0,120.0,0.0,0.0
256,59.0,0.0,120.0,0.0,0.0
257,60.0,120.0,120.0,0.0,0.0
258,57.0,120.0,120.0,0.0,0.0
259,38.0,120.0,240.0,0.0,0.0
260,59.0,120.0,120.0,0.0,0.0
261,60.0,0.0,120.0,0.0,0.0
262,62.0,120.0,120.0,0.0,0.0
263,59.0,120.0,120.0,0.0,0.0
264,56.0,120.0,120.0,0.0,0.0
265,40.0,120.0,240.0,0.0,0.0
266,57.0,0.0,120.0,0.0,0.0
267,59.0,120.0,120.0,0.0,0.0
268,56.0,120.0,120.0,0.0,0.0
269,45.0,0.0,480.0,0.0,0.0
270,33.0,120.0,480.0,0.0,0.0
271,57.0,120.0,120.0,0.0,0.0
272,52.0,120.0,120.0,0.0,0.0
273,57.0,120.0,120.0,0.0,0.0
274,60.0,0.0,120.0,0.0,0.0
275,64.0,120.0,120.0,0.0,0.0
276,65.0,120.0,120.0,0.0,0.0
277,64.0,120.0,120.0,0.0,0.0
278,62.0,0.0,120.0,0.0,0.0
279,76.0,120.0,120.0,0.0,0.0
280,72.0,0.0,120.0,0.0,0.0
281,60.0,120.0,120.0,0.0,0.0
282,72.0,120.0,480.0,0.0,0.0
283,76.0,0.0,480.0,0.0,0.0
284,62.0,120.0,120.0,0.0,0.0
285,60.0,120.0,120.0,0.0,0.0
286,59.0,0.0,120.0,0.0,0.0
287,57.0,120.0,120.0,0.0,0.0
288,72.0,0.0,240.0,0.0,0.0
289,69.0,0.0,240.0,0.0,0.0
290,59.0,120.0,120.0,0.0,0.0
291,60.0,120.0,120.0,0.0,0.0
292,57.0,240.0,120.0,0.0,0.0
293,33.0,120.0,480.0,0.0,0.0
294,45.0,0.0,480.0,0.0,0.0
295,52.0,120.0,120.0,0.0,0.0
296,57.0,120.0,120.0,0.0,0.0
297,60.0,0.0,120.0,0.0,0.0
298,64.0,120.0,120.0,0.0,0.0
299,65.0,120.0,120.0,0.0,0.0
300,64.0,120.0,120.0,0.0,0.0
301,72.0,0.0,120.0,0.0,0.0
302,76.0,0.0,120.0,0.0,0.0
303,62.0,120.0,120.0,0.0,0.0
304,76.0,120.0,480.0,0.0,0.0
305,60.0,120.0,120.0,0.0,0.0
306,62.0,120.0,120.0,0.0,0.0
307,60.0,120.0,120.0,0.0,0.0
308,59.0,0.0,120.0,0.0,0.0
309,72.0,0.0,15.0,0.0,0.0
310,57.0,120.0,120.0,0.0,0.0
311,69.0,0.0,240.0,0.0,0.0
312,59.0,0.0,120.0,0.0,0.0
313,60.0,120.0,120.0,0.0,0.0
314,57.0,240.0,120.0,0.0,0.0
315,38.0,0.0,480.0,0.0,0.0
316,50.0,120.0,480.0,0.0,0.0
317,53.0,120.0,120.0,0.0,0.0
318,58.0,120.0,120.0,0.0,0.0
319,62.0,0.0,120.0,0.0,0.0
320,65.0,120.0,120.0,0.0,0.0
321,67.0,120.0,120.0,0.0,0.0
322,65.0,120.0,120.0,0.0,0.0
323,64.0,120.0,120.0,0.0,0.0
324,74.0,0.0,15.0,0.0,0.0
325,77.0,0.0,15.0,0.0,0.0
326,62.0,120.0,120.0,0.0,0.0
327,64.0,120.0,120.0,0.0,0.0
328,62.0,120.0,120.0,0.0,0.0
329,60.0,120.0,120.0,0.0,0.0
330,58.0,120.0,120.0,0.0,0.0
331,60.0,120.0,120.0,0.0,0.0
332,58.0,120.0,120.0,0.0,0.0
333,57.0,120.0,120.0,0.0,0.0
334,76.0,0.0,240.0,0.0,0.0
335,74.0,120.0,240.0,0.0,0.0
336,56.0,120.0,120.0,0.0,0.0
337,57.0,0.0,120.0,0.0,0.0
338,52.0,0.0,240.0,0.0,0.0
339,59.0,120.0,120.0,0.0,0.0
340,40.0,120.0,240.0,0.0,0.0
341,56.0,0.0,120.0,0.0,0.0
342,57.0,120.0,120.0,0.0,0.0
343,59.0,120.0,120.0,0.0,0.0
344,60.0,120.0,120.0,0.0,0.0
345,41.0,0.0,240.0,0.0,0.0
346,53.0,0.0,240.0,0.0,0.0
347,57.0,120.0,120.0,0.0,0.0
348,59.0,120.0,120.0,0.0,0.0
349,60.0,120.0,120.0,0.0,0.0
350,50.0,120.0,240.0,0.0,0.0
351,38.0,0.0,240.0,0.0,0.0
352,62.0,120.0,120.0,0.0,0.0
353,59.0,0.0,120.0,0.0,0.0
354,56.0,120.0,120.0,0.0,0.0
355,57.0,120.0,120.0,0.0,0.0
356,52.0,120.0,240.0,0.0,0.0
357,59.0,120.0,120.0,0.0,0.0
358,40.0,0.0,240.0,0.0,0.0
359,56.0,0.0,120.0,0.0,0.0
360,45.0,0.0,480.0,0.0,0.0
361,33.0,0.0,480.0,0.0,0.0
362,57.0,120.0,120.0,0.0,0.0
363,64.0,120.0,120.0,0.0,0.0
364,69.0,120.0,120.0,0.0,0.0
365,72.0,120.0,120.0,0.0,0.0
366,76.0,120.0,120.0,0.0,0.0
367,64.0,120.0,120.0,0.0,0.0
368,69.0,120.0,120.0,0.0,0.0
369,72.0,240.0,120.0,0.0,0.0
370,60.0,0.0,15.0,0.0,0.0
371,57.0,0.0,15.0,0.0,0.0
372,64.0,120.0,120.0,0.0,0.0
373,69.0,120.0,120.0,0.0,0.0
374,72.0,0.0,120.0,0.0,0.0
375,76.0,120.0,120.0,0.0,0.0
376,64.0,120.0,120.0,0.0,0.0
377,69.0,120.0,120.0,0.0,0.0
378,72.0,240.0,120.0,0.0,0.0
379,57.0,0.0,15.0,0.0,0.0
380,60.0,0.0,15.0,0.0,0.0
381,63.0,120.0,120.0,0.0,0.0
382,66.0,120.0,120.0,0.0,0.0
383,72.0,240.0,120.0,0.0,0.0
384,63.0,120.0,120.0,0.0,0.0
385,66.0,120.0,120.0,0.0,0.0
386,72.0,0.0,120.0,0.0,0.0
387,59.0,120.0,240.0,0.0,0.0
388,52.0,0.0,15.0,0.0,0.0
389,75.0,0.0,15.0,0.0,0.0
390,56.0,0.0,240.0,0.0,0.0
391,63.0,0.0,120.0,0.0,0.0
392,68.0,120.0,120.0,0.0,0.0
393,71.0,240.0,120.0,0.0,0.0
394,76.0,0.0,480.0,0.0,0.0
395,64.0,120.0,120.0,0.0,0.0
396,68.0,120.0,120.0,0.0,0.0
397,71.0,240.0,120.0,0.0,0.0
398,40.0,0.0,480.0,0.0,0.0
399,52.0,0.0,480.0,0.0,0.0
400,64.0,120.0,120.0,0.0,0.0
401,68.0,120.0,120.0,0.0,0.0
402,71.0,120.0,120.0,0.0,0.0
403,76.0,120.0,120.0,0.0,0.0
404,64.0,120.0,120.0,0.0,0.0
405,68.0,120.0,120.0,0.0,0.0
406,71.0,240.0,120.0,0.0,0.0
407,59.0,0.0,15.0,0.0,0.0
408,62.0,0.0,15.0,0.0,0.0
409,64.0,120.0,120.0,0.0,0.0
410,68.0,120.0,120.0,0.0,0.0
411,71.0,0.0,120.0,0.0,0.0
412,76.0,120.0,120.0,0.0,0.0
413,64.0,120.0,120.0,0.0,0.0
414,68.0,120.0,120.0,0.0,0.0
415,71.0,240.0,120.0,0.0,0.0
416,59.0,0.0,15.0,0.0,0.0
417,62.0,0.0,15.0,0.0,0.0
418,57.0,0.0,960.0,0.0,0.0
419,64.0,120.0,120.0,0.0,0.0
420,68.0,120.0,120.0,0.0,0.0
421,71.0,240.0,120.0,0.0,0.0
422,64.0,120.0,120.0,0.0,0.0
423,68.0,120.0,120.0,0.0,0.0
424,71.0,240.0,120.0,0.0,0.0
425,60.0,0.0,240.0,0.0,0.0
426,57.0,0.0,240.0,0.0,0.0
427,76.0,0.0,15.0,0.0,0.0
428,64.0,120.0,120.0,0.0,0.0
429,68.0,120.0,120.0,0.0,0.0
430,71.0,240.0,120.0,0.0,0.0
431,76.0,0.0,480.0,0.0,0.0
432,64.0,120.0,120.0,0.0,0.0
433,69.0,120.0,120.0,0.0,0.0
434,72.0,240.0,120.0,0.0,0.0
435,45.0,0.0,480.0,0.0,0.0
436,57.0,0.0,480.0,0.0,0.0
437,69.0,120.0,120.0,0.0,0.0
438,73.0,120.0,120.0,0.0,0.0
439,76.0,120.0,120.0,0.0,0.0
440,81.0,120.0,120.0,0.0,0.0
441,69.0,120.0,120.0,0.0,0.0
442,73.0,120.0,120.0,0.0,0.0
443,76.0,0.0,120.0,0.0,0.0
444,67.0,0.0,15.0,0.0,0.0
445,64.0,240.0,15.0,0.0,0.0
446,69.0,120.0,120.0,0.0,0.0
447,73.0,120.0,120.0,0.0,0.0
448,76.0,120.0,120.0,0.0,0.0
449,81.0,120.0,120.0,0.0,0.0
450,69.0,120.0,120.0,0.0,0.0
451,73.0,120.0,120.0,0.0,0.0
452,76.0,240.0,120.0,0.0,0.0
453,67.0,0.0,120.0,0.0,0.0
454,64.0,0.0,120.0,0.0,0.0
455,64.0,0.0,1200.0,0.0,0.0
456,67.0,0.0,1200.0,0.0,0.0
457,69.0,120.0,120.0,0.0,0.0
458,73.0,120.0,120.0,0.0,0.0
459,76.0,240.0,120.0,0.0,0.0
460,81.0,120.0,480.0,0.0,0.0
461,69.0,120.0,120.0,0.0,0.0
462,73.0,120.0,120.0,0.0,0.0
463,76.0,0.0,120.0,0.0,0.0
464,69.0,120.0,120.0,0.0,0.0
465,73.0,0.0,120.0,0.0,0.0
466,81.0,0.0,120.0,0.0,0.0
467,65.0,0.0,240.0,0.0,0.0
468,69.0,0.0,120.0,0.0,0.0
469,74.0,120.0,120.0,0.0,0.0
470,62.0,120.0,15.0,0.0,0.0
471,81.0,0.0,120.0,0.0,0.0
472,64.0,0.0,240.0,0.0,0.0
473,60.0,0.0,240.0,0.0,0.0
474,76.0,0.0,120.0,0.0,0.0
475,69.0,120.0,120.0,0.0,0.0
476,81.0,120.0,120.0,0.0,0.0
477,77.0,120.0,120.0,0.0,0.0
478,62.0,0.0,240.0,0.0,0.0
479,59.0,240.0,240.0,0.0,0.0
480,69.0,0.0,120.0,0.0,0.0
481,81.0,0.0,120.0,0.0,0.0
482,57.0,0.0,480.0,0.0,0.0
483,60.0,240.0,480.0,0.0,0.0
484,52.0,0.0,480.0,0.0,0.0
485,64.0,120.0,120.0,0.0,0.0
486,69.0,120.0,120.0,0.0,0.0
487,72.0,0.0,120.0,0.0,0.0
488,64.0,120.0,120.0,0.0,0.0
489,69.0,120.0,120.0,0.0,0.0
490,72.0,0.0,120.0,0.0,0.0
491,60.0,0.0,120.0,0.0,0.0
492,57.0,0.0,120.0,0.0,0.0
493,52.0,0.0,480.0,0.0,0.0
494,62.0,0.0,480.0,0.0,0.0
495,76.0,240.0,15.0,0.0,0.0
496,59.0,0.0,480.0,0.0,0.0
497,64.0,120.0,120.0,0.0,0.0
498,71.0,120.0,120.0,0.0,0.0
499,74.0,240.0,120.0,0.0,0.0
500,76.0,0.0,15.0,0.0,0.0
501,64.0,120.0,120.0,0.0,0.0
502,68.0,120.0,120.0,0.0,0.0
503,56.0,120.0,120.0,0.0,0.0
504,59.0,0.0,120.0,0.0,0.0
505,71.0,0.0,120.0,0.0,0.0
506,76.0,0.0,480.0,0.0,0.0
507,69.0,120.0,480.0,0.0,0.0
508,72.0,0.0,480.0,0.0,0.0
509,57.0,120.0,120.0,0.0,0.0
510,64.0,120.0,120.0,0.0,0.0
511,60.0,120.0,120.0,0.0,0.0
512,57.0,0.0,120.0,0.0,0.0
513,52.0,120.0,120.0,0.0,0.0
514,60.0,120.0,120.0,0.0,0.0
515,57.0,120.0,120.0,0.0,0.0
516,52.0,120.0,120.0,0.0,0.0
517,84.0,0.0,120.0,0.0,0.0
518,81.0,0.0,120.0,0.0,0.0
519,84.0,0.0,480.0,0.0,0.0
520,81.0,0.0,480.0,0.0,0.0
521,48.0,120.0,120.0,0.0,0.0
522,57.0,120.0,120.0,0.0,0.0
523,52.0,120.0,120.0,0.0,0.0
524,48.0,120.0,120.0,0.0,0.0
525,45.0,120.0,120.0,0.0,0.0
526,52.0,120.0,120.0,0.0,0.0
527,48.0,120.0,120.0,0.0,0.0
528,45.0,0.0,120.0,0.0,0.0
529,84.0,120.0,120.0,0.0,0.0
530,81.0,0.0,120.0,0.0,0.0
531,81.0,0.0,960.0,0.0,0.0
532,84.0,0.0,960.0,0.0,0.0
533,40.0,120.0,120.0,0.0,0.0
534,45.0,120.0,120.0,0.0,0.0
535,48.0,120.0,120.0,0.0,0.0
536,52.0,120.0,120.0,0.0,0.0
537,51.0,120.0,120.0,0.0,0.0
538,52.0,120.0,120.0,0.0,0.0
539,51.0,120.0,120.0,0.0,0.0
540,52.0,120.0,120.0,0.0,0.0
541,83.0,0.0,240.0,0.0,0.0
542,80.0,0.0,240.0,0.0,0.0
543,51.0,120.0,120.0,0.0,0.0
544,52.0,120.0,120.0,0.0,0.0
545,47.0,120.0,120.0,0.0,0.0
546,52.0,120.0,120.0,0.0,0.0
547,44.0,120.0,120.0,0.0,0.0
548,52.0,120.0,120.0,0.0,0.0
549,47.0,120.0,120.0,0.0,0.0
550,52.0,120.0,120.0,0.0,0.0
551,40.0,120.0,120.0,0.0,0.0
552,44.0,120.0,120.0,0.0,0.0
553,47.0,120.0,120.0,0.0,0.0
554,52.0,120.0,120.0,0.0,0.0
555,44.0,120.0,120.0,0.0,0.0
556,47.0,120.0,120.0,0.0,0.0
557,52.0,120.0,120.0,0.0,0.0
558,56.0,120.0,120.0,0.0,0.0
559,86.0,0.0,15.0,0.0,0.0
560,83.0,0.0,15.0,0.0,0.0
561,47.0,120.0,120.0,0.0,0.0
562,52.0,120.0,120.0,0.0,0.0
563,56.0,120.0,120.0,0.0,0.0
564,59.0,0.0,120.0,0.0,0.0
565,52.0,120.0,120.0,0.0,0.0
566,56.0,120.0,120.0,0.0,0.0
567,59.0,120.0,120.0,0.0,0.0
568,86.0,0.0,120.0,0.0,0.0
569,64.0,120.0,120.0,0.0,0.0
570,86.0,120.0,960.0,0.0,0.0
571,83.0,0.0,15.0,0.0,0.0
572,57.0,120.0,120.0,0.0,0.0
573,60.0,120.0,120.0,0.0,0.0
574,64.0,120.0,120.0,0.0,0.0
575,69.0,120.0,120.0,0.0,0.0
576,68.0,120.0,120.0,0.0,0.0
577,69.0,120.0,120.0,0.0,0.0
578,68.0,120.0,120.0,0.0,0.0
579,69.0,0.0,120.0,0.0,0.0
580,68.0,120.0,120.0,0.0,0.0
581,84.0,0.0,240.0,0.0,0.0
582,81.0,0.0,240.0,0.0,0.0
583,69.0,120.0,120.0,0.0,0.0
584,64.0,120.0,120.0,0.0,0.0
585,69.0,120.0,120.0,0.0,0.0
586,60.0,120.0,120.0,0.0,0.0
587,69.0,120.0,120.0,0.0,0.0
588,64.0,120.0,120.0,0.0,0.0
589,69.0,120.0,120.0,0.0,0.0
590,57.0,120.0,120.0,0.0,0.0
591,61.0,120.0,120.0,0.0,0.0
592,64.0,120.0,120.0,0.0,0.0
593,69.0,120.0,120.0,0.0,0.0
594,61.0,120.0,120.0,0.0,0.0
595,64.0,120.0,120.0,0.0,0.0
596,69.0,120.0,120.0,0.0,0.0
597,91.0,0.0,120.0,0.0,0.0
598,73.0,120.0,120.0,0.0,0.0
599,88.0,0.0,120.0,0.0,0.0
600,88.0,120.0,480.0,0.0,0.0
601,91.0,0.0,480.0,0.0,0.0
602,64.0,120.0,120.0,0.0,0.0
603,69.0,120.0,120.0,0.0,0.0
604,73.0,120.0,120.0,0.0,0.0
605,76.0,0.0,120.0,0.0,0.0
606,69.0,120.0,120.0,0.0,0.0
607,73.0,120.0,120.0,0.0,0.0
608,76.0,120.0,120.0,0.0,0.0
609,91.0,0.0,120.0,0.0,0.0
610,81.0,120.0,120.0,0.0,0.0
611,88.0,0.0,15.0,0.0,0.0
612,91.0,0.0,1200.0,0.0,0.0
613,73.0,120.0,120.0,0.0,0.0
614,81.0,120.0,120.0,0.0,0.0
615,80.0,120.0,120.0,0.0,0.0
616,81.0,120.0,120.0,0.0,0.0
617,73.0,120.0,120.0,0.0,0.0
618,81.0,120.0,120.0,0.0,0.0
619,73.0,120.0,120.0,0.0,0.0
620,81.0,120.0,120.0,0.0,0.0
621,73.0,120.0,120.0,0.0,0.0
622,81.0,120.0,120.0,0.0,0.0
623,74.0,120.0,120.0,0.0,0.0
624,86.0,0.0,240.0,0.0,0.0
625,89.0,0.0,240.0,0.0,0.0
626,81.0,120.0,120.0,0.0,0.0
627,84.0,120.0,240.0,0.0,0.0
628,88.0,0.0,240.0,0.0,0.0
629,76.0,120.0,120.0,0.0,0.0
630,81.0,0.0,120.0,0.0,0.0
631,83.0,120.0,240.0,0.0,0.0
632,86.0,0.0,240.0,0.0,0.0
633,77.0,120.0,120.0,0.0,0.0
634,84.0,0.0,480.0,0.0,0.0
635,81.0,0.0,15.0,0.0,0.0
636,64.0,120.0,120.0,0.0,0.0
637,69.0,120.0,120.0,0.0,0.0
638,72.0,120.0,120.0,0.0,0.0
639,76.0,120.0,120.0,0.0,0.0
640,75.0,120.0,120.0,0.0,0.0
641,76.0,120.0,120.0,0.0,0.0
642,75.0,120.0,120.0,0.0,0.0
643,76.0,120.0,120.0,0.0,0.0
644,81.0,0.0,120.0,0.0,0.0
645,93.0,0.0,120.0,0.0,0.0
646,84.0,0.0,120.0,0.0,0.0
647,83.0,120.0,480.0,0.0,0.0
648,86.0,0.0,480.0,0.0,0.0
649,64.0,120.0,120.0,0.0,0.0
650,95.0,0.0,480.0,0.0,0.0
651,68.0,120.0,120.0,0.0,0.0
652,71.0,120.0,120.0,0.0,0.0
653,76.0,0.0,120.0,0.0,0.0
654,64.0,120.0,120.0,0.0,0.0
655,71.0,120.0,120.0,0.0,0.0
656,74.0,120.0,120.0,0.0,0.0
657,80.0,0.0,120.0,0.0,0.0
658,83.0,120.0,120.0,0.0,0.0
659,92.0,0.0,120.0,0.0,0.0
660,76.0,0.0,120.0,0.0,0.0
661,81.0,0.0,120.0,0.0,0.0
662,93.0,0.0,120.0,0.0,0.0
663,84.0,0.0,120.0,0.0,0.0
664,57.0,120.0,120.0,0.0,0.0
665,76.0,0.0,120.0,0.0,0.0
666,72.0,0.0,120.0,0.0,0.0
667,69.0,120.0,120.0,0.0,0.0
668,64.0,0.0,120.0,0.0,0.0
669,81.0,0.0,120.0,0.0,0.0
670,76.0,120.0,120.0,0.0,0.0
671,84.0,120.0,120.0,0.0,0.0
672,69.0,0.0,120.0,0.0,0.0
673,72.0,0.0,120.0,0.0,0.0
674,64.0,0.0,120.0,0.0,0.0
675,76.0,120.0,120.0,0.0,0.0
676,88.0,0.0,120.0,0.0,0.0
677,72.0,0.0,120.0,0.0,0.0
678,89.0,0.0,120.0,0.0,0.0
679,69.0,120.0,120.0,0.0,0.0
680,88.0,120.0,120.0,0.0,0.0
681,76.0,0.0,120.0,0.0,0.0
682,64.0,0.0,120.0,0.0,0.0
683,72.0,0.0,120.0,0.0,0.0
684,86.0,0.0,120.0,0.0,0.0
685,69.0,120.0,120.0,0.0,0.0
686,64.0,0.0,120.0,0.0,0.0
687,84.0,0.0,120.0,0.0,0.0
688,76.0,120.0,120.0,0.0,0.0
689,72.0,120.0,120.0,0.0,0.0
690,69.0,0.0,120.0,0.0,0.0
691,86.0,0.0,120.0,0.0,0.0
692,84.0,0.0,120.0,0.0,0.0
693,64.0,0.0,120.0,0.0,0.0
694,76.0,120.0,120.0,0.0,0.0
695,83.0,0.0,120.0,0.0,0.0
696,69.0,120.0,120.0,0.0,0.0
697,72.0,0.0,120.0,0.0,0.0
698,81.0,0.0,120.0,0.0,0.0
699,76.0,0.0,120.0,0.0,0.0
700,64.0,120.0,120.0,0.0,0.0
701,69.0,120.0,120.0,0.0,0.0
702,83.0,0.0,120.0,0.0,0.0
703,72.0,0.0,120.0,0.0,0.0
704,76.0,120.0,120.0,0.0,0.0
705,64.0,0.0,120.0,0.0,0.0
706,84.0,0.0,120.0,0.0,0.0
707,81.0,0.0,120.0,0.0,0.0
708,72.0,0.0,120.0,0.0,0.0
709,69.0,120.0,120.0,0.0,0.0
710,57.0,120.0,120.0,0.0,0.0
711,72.0,120.0,120.0,0.0,0.0
712,76.0,0.0,120.0,0.0,0.0
713,69.0,0.0,120.0,0.0,0.0
714,81.0,0.0,120.0,0.0,0.0
715,64.0,120.0,120.0,0.0,0.0
716,76.0,0.0,120.0,0.0,0.0
717,72.0,0.0,120.0,0.0,0.0
718,84.0,0.0,120.0,0.0,0.0
719,69.0,120.0,120.0,0.0,0.0
720,64.0,0.0,120.0,0.0,0.0
721,76.0,0.0,120.0,0.0,0.0
722,88.0,120.0,120.0,0.0,0.0
723,89.0,0.0,120.0,0.0,0.0
724,72.0,0.0,120.0,0.0,0.0
725,69.0,120.0,120.0,0.0,0.0
726,76.0,120.0,120.0,0.0,0.0
727,88.0,0.0,120.0,0.0,0.0
728,64.0,0.0,120.0,0.0,0.0
729,69.0,120.0,120.0,0.0,0.0
730,72.0,0.0,120.0,0.0,0.0
731,86.0,0.0,120.0,0.0,0.0
732,84.0,0.0,120.0,0.0,0.0
733,76.0,120.0,120.0,0.0,0.0
734,64.0,0.0,120.0,0.0,0.0
735,86.0,0.0,120.0,0.0,0.0
736,72.0,120.0,120.0,0.0,0.0
737,69.0,0.0,120.0,0.0,0.0
738,76.0,0.0,120.0,0.0,0.0
739,64.0,0.0,120.0,0.0,0.0
740,84.0,120.0,120.0,0.0,0.0
741,72.0,0.0,120.0,0.0,0.0
742,69.0,120.0,120.0,0.0,0.0
743,83.0,0.0,120.0,0.0,0.0
744,81.0,0.0,120.0,0.0,0.0
745,76.0,0.0,120.0,0.0,0.0
746,64.0,120.0,120.0,0.0,0.0
747,72.0,0.0,120.0,0.0,0.0
748,69.0,120.0,120.0,0.0,0.0
749,83.0,0.0,120.0,0.0,0.0
750,84.0,0.0,120.0,0.0,0.0
751,64.0,120.0,120.0,0.0,0.0
752,76.0,0.0,120.0,0.0,0.0
753,72.0,120.0,120.0,0.0,0.0
754,81.0,0.0,120.0,0.0,0.0
755,69.0,0.0,120.0,0.0,0.0
756,47.0,120.0,120.0,0.0,0.0
757,81.0,0.0,120.0,0.0,0.0
758,57.0,120.0,120.0,0.0,0.0
759,59.0,0.0,120.0,0.0,0.0
760,63.0,0.0,120.0,0.0,0.0
761,54.0,0.0,120.0,0.0,0.0
762,87.0,120.0,120.0,0.0,0.0
763,57.0,120.0,120.0,0.0,0.0
764,59.0,0.0,120.0,0.0,0.0
765,90.0,0.0,120.0,0.0,0.0
766,93.0,0.0,120.0,0.0,0.0
767,54.0,120.0,120.0,0.0,0.0
768,63.0,0.0,120.0,0.0,0.0
769,95.0,0.0,120.0,0.0,0.0
770,59.0,120.0,120.0,0.0,0.0
771,57.0,0.0,120.0,0.0,0.0
772,93.0,0.0,120.0,0.0,0.0
773,54.0,0.0,120.0,0.0,0.0
774,63.0,120.0,120.0,0.0,0.0
775,91.0,0.0,120.0,0.0,0.0
776,59.0,0.0,120.0,0.0,0.0
777,57.0,120.0,120.0,0.0,0.0
778,63.0,0.0,120.0,0.0,0.0
779,90.0,0.0,120.0,0.0,0.0
780,54.0,120.0,120.0,0.0,0.0
781,91.0,0.0,120.0,0.0,0.0
782,57.0,120.0,120.0,0.0,0.0
783,60.0,0.0,120.0,0.0,0.0
784,54.0,0.0,120.0,0.0,0.0
785,90.0,0.0,120.0,0.0,0.0
786,63.0,120.0,120.0,0.0,0.0
787,57.0,0.0,120.0,0.0,0.0
788,60.0,0.0,120.0,0.0,0.0
789,88.0,120.0,120.0,0.0,0.0
790,87.0,120.0,120.0,0.0,0.0
791,63.0,0.0,120.0,0.0,0.0
792,54.0,0.0,120.0,0.0,0.0
793,59.0,0.0,120.0,0.0,0.0
794,57.0,0.0,120.0,0.0,0.0
795,88.0,120.0,120.0,0.0,0.0
796,54.0,0.0,120.0,0.0,0.0
797,63.0,0.0,120.0,0.0,0.0
798,90.0,120.0,120.0,0.0,0.0
799,87.0,120.0,120.0,0.0,0.0
800,57.0,0.0,120.0,0.0,0.0
801,59.0,0.0,120.0,0.0,0.0
802,47.0,120.0,120.0,0.0,0.0
803,59.0,0.0,120.0,0.0,0.0
804,81.0,120.0,120.0,0.0,0.0
805,57.0,0.0,120.0,0.0,0.0
806,54.0,120.0,120.0,0.0,0.0
807,63.0,0.0,120.0,0.0,0.0
808,87.0,0.0,120.0,0.0,0.0
809,90.0,0.0,120.0,0.0,0.0
810,57.0,0.0,120.0,0.0,0.0
811,59.0,120.0,120.0,0.0,0.0
812,54.0,0.0,120.0,0.0,0.0
813,93.0,0.0,120.0,0.0,0.0
814,63.0,120.0,120.0,0.0,0.0
815,57.0,0.0,120.0,0.0,0.0
816,59.0,0.0,120.0,0.0,0.0
817,95.0,120.0,120.0,0.0,0.0
818,63.0,120.0,120.0,0.0,0.0
819,93.0,0.0,120.0,0.0,0.0
820,54.0,0.0,120.0,0.0,0.0
821,57.0,0.0,120.0,0.0,0.0
822,91.0,120.0,120.0,0.0,0.0
823,59.0,0.0,120.0,0.0,0.0
824,54.0,0.0,120.0,0.0,0.0
825,90.0,0.0,120.0,0.0,0.0
826,63.0,120.0,120.0,0.0,0.0
827,60.0,0.0,120.0,0.0,0.0
828,57.0,0.0,120.0,0.0,0.0
829,91.0,120.0,120.0,0.0,0.0
830,90.0,0.0,120.0,0.0,0.0
831,54.0,120.0,120.0,0.0,0.0
832,63.0,0.0,120.0,0.0,0.0
833,57.0,0.0,120.0,0.0,0.0
834,60.0,120.0,120.0,0.0,0.0
835,88.0,0.0,120.0,0.0,0.0
836,54.0,0.0,120.0,0.0,0.0
837,87.0,0.0,120.0,0.0,0.0
838,63.0,120.0,120.0,0.0,0.0
839,59.0,0.0,120.0,0.0,0.0
840,57.0,0.0,120.0,0.0,0.0
841,88.0,120.0,120.0,0.0,0.0
842,54.0,0.0,120.0,0.0,0.0
843,63.0,120.0,120.0,0.0,0.0
844,90.0,0.0,120.0,0.0,0.0
845,59.0,0.0,120.0,0.0,0.0
846,57.0,120.0,120.0,0.0,0.0
847,87.0,0.0,120.0,0.0,0.0
848,52.0,120.0,120.0,0.0,0.0
849,64.0,120.0,120.0,0.0,0.0
850,67.0,0.0,120.0,0.0,0.0
851,83.0,0.0,120.0,0.0,0.0
852,88.0,120.0,120.0,0.0,0.0
853,59.0,0.0,120.0,0.0,0.0
854,71.0,0.0,120.0,0.0,0.0
855,67.0,120.0,120.0,0.0,0.0
856,64.0,0.0,120.0,0.0,0.0
857,91.0,0.0,120.0,0.0,0.0
858,95.0,0.0,120.0,0.0,0.0
859,59.0,0.0,120.0,0.0,0.0
860,71.0,120.0,120.0,0.0,0.0
861,67.0,0.0,120.0,0.0,0.0
862,64.0,120.0,120.0,0.0,0.0
863,96.0,0.0,120.0,0.0,0.0
864,71.0,0.0,120.0,0.0,0.0
865,59.0,120.0,120.0,0.0,0.0
866,95.0,0.0,120.0,0.0,0.0
867,93.0,0.0,120.0,0.0,0.0
868,64.0,120.0,120.0,0.0,0.0
869,67.0,0.0,120.0,0.0,0.0
870,91.0,120.0,120.0,0.0,0.0
871,71.0,0.0,120.0,0.0,0.0
872,59.0,0.0,120.0,0.0,0.0
873,64.0,0.0,120.0,0.0,0.0
874,67.0,120.0,120.0,0.0,0.0
875,93.0,0.0,120.0,0.0,0.0
876,91.0,0.0,120.0,0.0,0.0
877,71.0,120.0,120.0,0.0,0.0
878,59.0,0.0,120.0,0.0,0.0
879,67.0,120.0,120.0,0.0,0.0
880,64.0,0.0,120.0,0.0,0.0
881,90.0,0.0,120.0,0.0,0.0
882,71.0,0.0,120.0,0.0,0.0
883,59.0,0.0,120.0,0.0,0.0
884,88.0,120.0,120.0,0.0,0.0
885,67.0,120.0,120.0,0.0,0.0
886,90.0,0.0,120.0,0.0,0.0
887,64.0,0.0,120.0,0.0,0.0
888,91.0,0.0,120.0,0.0,0.0
889,71.0,120.0,120.0,0.0,0.0
890,59.0,0.0,120.0,0.0,0.0
891,67.0,240.0,120.0,0.0,0.0
892,64.0,0.0,120.0,0.0,0.0
893,88.0,0.0,120.0,0.0,0.0
894,52.0,0.0,240.0,0.0,0.0
895,83.0,120.0,120.0,0.0,0.0
896,71.0,0.0,120.0,0.0,0.0
897,88.0,120.0,120.0,0.0,0.0
898,67.0,120.0,120.0,0.0,0.0
899,91.0,0.0,120.0,0.0,0.0
900,95.0,120.0,120.0,0.0,0.0
901,76.0,0.0,120.0,0.0,0.0
902,96.0,120.0,120.0,0.0,0.0
903,71.0,0.0,120.0,0.0,0.0
904,95.0,120.0,120.0,0.0,0.0
905,76.0,0.0,120.0,0.0,0.0
906,71.0,120.0,120.0,0.0,0.0
907,93.0,0.0,120.0,0.0,0.0
908,91.0,120.0,120.0,0.0,0.0
909,79.0,0.0,120.0,0.0,0.0
910,93.0,0.0,120.0,0.0,0.0
911,76.0,120.0,120.0,0.0,0.0
912,91.0,120.0,120.0,0.0,0.0
913,79.0,0.0,120.0,0.0,0.0
914,90.0,0.0,120.0,0.0,0.0
915,76.0,120.0,120.0,0.0,0.0
916,83.0,0.0,120.0,0.0,0.0
917,88.0,120.0,120.0,0.0,0.0
918,79.0,120.0,120.0,0.0,0.0
919,90.0,0.0,120.0,0.0,0.0
920,91.0,0.0,120.0,0.0,0.0
921,83.0,120.0,120.0,0.0,0.0
922,88.0,240.0,120.0,0.0,0.0
923,79.0,0.0,120.0,0.0,0.0
924,81.0,0.0,720.0,0.0,0.0
925,84.0,0.0,720.0,0.0,0.0
926,89.0,120.0,120.0,0.0,0.0
927,91.0,120.0,120.0,0.0,0.0
928,89.0,120.0,120.0,0.0,0.0
929,91.0,120.0,120.0,0.0,0.0
930,89.0,120.0,120.0,0.0,0.0
931,88.0,120.0,120.0,0.0,0.0
932,79.0,240.0,240.0,0.0,0.0
933,83.0,0.0,240.0,0.0,0.0
934,89.0,0.0,120.0,0.0,0.0
935,81.0,0.0,480.0,0.0,0.0
936,78.0,0.0,480.0,0.0,0.0
937,87.0,120.0,120.0,0.0,0.0
938,88.0,120.0,120.0,0.0,0.0
939,87.0,240.0,120.0,0.0,0.0
940,79.0,0.0,480.0,0.0,0.0
941,83.0,0.0,480.0,0.0,0.0
942,88.0,120.0,120.0,0.0,0.0
943,90.0,120.0,120.0,0.0,0.0
944,88.0,240.0,120.0,0.0,0.0
945,81.0,0.0,720.0,0.0,0.0
946,84.0,120.0,720.0,0.0,0.0
947,89.0,120.0,120.0,0.0,0.0
948,91.0,120.0,120.0,0.0,0.0
949,89.0,120.0,120.0,0.0,0.0
950,91.0,120.0,120.0,0.0,0.0
951,89.0,0.0,120.0,0.0,0.0
952,83.0,0.0,240.0,0.0,0.0
953,88.0,120.0,120.0,0.0,0.0
954,79.0,240.0,240.0,0.0,0.0
955,89.0,0.0,120.0,0.0,0.0
956,81.0,0.0,480.0,0.0,0.0
957,78.0,240.0,480.0,0.0,0.0
958,87.0,120.0,120.0,0.0,0.0
959,88.0,120.0,120.0,0.0,0.0
960,87.0,0.0,120.0,0.0,0.0
961,83.0,0.0,480.0,0.0,0.0
962,79.0,0.0,480.0,0.0,0.0
963,88.0,120.0,120.0,0.0,0.0
964,90.0,120.0,120.0,0.0,0.0
965,88.0,240.0,120.0,0.0,0.0
966,84.0,0.0,720.0,0.0,0.0
967,81.0,0.0,720.0,0.0,0.0
968,89.0,120.0,120.0,0.0,0.0
969,91.0,120.0,120.0,0.0,0.0
970,89.0,120.0,120.0,0.0,0.0
971,91.0,120.0,120.0,0.0,0.0
972,89.0,120.0,120.0,0.0,0.0
973,83.0,0.0,240.0,0.0,0.0
974,79.0,0.0,240.0,0.0,0.0
975,88.0,120.0,120.0,0.0,0.0
976,89.0,240.0,120.0,0.0,0.0
977,81.0,240.0,480.0,0.0,0.0
978,78.0,0.0,480.0,0.0,0.0
979,87.0,120.0,120.0,0.0,0.0
980,88.0,120.0,120.0,0.0,0.0
981,87.0,0.0,120.0,0.0,0.0
982,76.0,0.0,480.0,0.0,0.0
983,79.0,240.0,480.0,0.0,0.0
984,84.0,120.0,120.0,0.0,0.0
985,86.0,120.0,120.0,0.0,0.0
986,84.0,0.0,120.0,0.0,0.0
987,75.0,0.0,480.0,0.0,0.0
988,78.0,240.0,480.0,0.0,0.0
989,83.0,120.0,120.0,0.0,0.0
990,84.0,120.0,120.0,0.0,0.0
991,83.0,0.0,120.0,0.0,0.0
992,73.0,0.0,480.0,0.0,0.0
993,76.0,0.0,480.0,0.0,0.0
994,82.0,120.0,120.0,0.0,0.0
995,83.0,120.0,120.0,0.0,0.0
996,82.0,240.0,120.0,0.0,0.0
997,72.0,0.0,480.0,0.0,0.0
998,81.0,120.0,120.0,0.0,0.0
999,83.0,120.0,120.0,0.0,0.0
1000,81.0,240.0,120.0,0.0,0.0
1001,71.0,0.0,480.0,0.0,0.0
1002,76.0,0.0,15.0,0.0,0.0
1003,79.0,120.0,120.0,0.0,0.0
1004,81.0,120.0,120.0,0.0,0.0
1005,79.0,0.0,120.0,0.0,0.0
1006,70.0,240.0,960.0,0.0,0.0
1007,79.0,120.0,120.0,0.0,0.0
1008,81.0,120.0,120.0,0.0,0.0
1009,79.0,240.0,120.0,0.0,0.0
1010,72.0,0.0,480.0,0.0,0.0
1011,78.0,120.0,120.0,0.0,0.0
1012,79.0,120.0,120.0,0.0,0.0
1013,78.0,0.0,120.0,0.0,0.0
1014,59.0,0.0,960.0,0.0,0.0
1015,67.0,240.0,480.0,0.0,0.0
1016,71.0,0.0,960.0,0.0,0.0
1017,76.0,120.0,120.0,0.0,0.0
1018,78.0,120.0,120.0,0.0,0.0
1019,76.0,0.0,120.0,0.0,0.0
1020,66.0,0.0,480.0,0.0,0.0
1021,75.0,120.0,120.0,0.0,0.0
1022,76.0,120.0,120.0,0.0,0.0
1023,75.0,240.0,120.0,0.0,0.0
1024,60.0,0.0,720.0,0.0,0.0
1025,65.0,0.0,720.0,0.0,0.0
1026,57.0,0.0,720.0,0.0,0.0
1027,72.0,120.0,120.0,0.0,0.0
1028,84.0,120.0,120.0,0.0,0.0
1029,72.0,120.0,120.0,0.0,0.0
1030,84.0,120.0,120.0,0.0,0.0
1031,72.0,120.0,120.0,0.0,0.0
1032,84.0,120.0,120.0,0.0,0.0
1033,64.0,0.0,240.0,0.0,0.0
1034,59.0,0.0,240.0,0.0,0.0
1035,55.0,240.0,240.0,0.0,0.0
1036,72.0,0.0,120.0,0.0,0.0
1037,63.0,0.0,480.0,0.0,0.0
1038,57.0,120.0,480.0,0.0,0.0
1039,54.0,0.0,480.0,0.0,0.0
1040,72.0,120.0,120.0,0.0,0.0
1041,84.0,120.0,120.0,0.0,0.0
1042,83.0,0.0,120.0,0.0,0.0
1043,81.0,120.0,120.0,0.0,0.0
1044,64.0,0.0,480.0,0.0,0.0
1045,59.0,0.0,480.0,0.0,0.0
1046,55.0,240.0,480.0,0.0,0.0
1047,79.0,120.0,120.0,0.0,0.0
1048,78.0,120.0,120.0,0.0,0.0
1049,76.0,0.0,120.0,0.0,0.0
1050,65.0,0.0,720.0,0.0,0.0
1051,60.0,0.0,720.0,0.0,0.0
1052,57.0,0.0,720.0,0.0,0.0
1053,84.0,120.0,120.0,0.0,0.0
1054,96.0,120.0,120.0,0.0,0.0
1055,84.0,120.0,120.0,0.0,0.0
1056,96.0,120.0,120.0,0.0,0.0
1057,84.0,120.0,120.0,0.0,0.0
1058,64.0,0.0,240.0,0.0,0.0
1059,96.0,120.0,120.0,0.0,0.0
1060,55.0,240.0,240.0,0.0,0.0
1061,59.0,0.0,240.0,0.0,0.0
1062,84.0,0.0,120.0,0.0,0.0
1063,63.0,120.0,480.0,0.0,0.0
1064,54.0,0.0,480.0,0.0,0.0
1065,57.0,0.0,480.0,0.0,0.0
1066,84.0,120.0,120.0,0.0,0.0
1067,96.0,120.0,120.0,0.0,0.0
1068,95.0,0.0,120.0,0.0,0.0
1069,59.0,0.0,480.0,0.0,0.0
1070,64.0,0.0,480.0,0.0,0.0
1071,55.0,0.0,480.0,0.0,0.0
1072,93.0,120.0,120.0,0.0,0.0
1073,91.0,120.0,120.0,0.0,0.0
1074,90.0,120.0,120.0,0.0,0.0
1075,88.0,240.0,120.0,0.0,0.0
1076,65.0,0.0,720.0,0.0,0.0
1077,60.0,0.0,720.0,0.0,0.0
1078,57.0,0.0,720.0,0.0,0.0
1079,72.0,120.0,120.0,0.0,0.0
1080,84.0,120.0,120.0,0.0,0.0
1081,72.0,120.0,120.0,0.0,0.0
1082,84.0,120.0,120.0,0.0,0.0
1083,72.0,120.0,120.0,0.0,0.0
1084,64.0,0.0,240.0,0.0,0.0
1085,55.0,0.0,240.0,0.0,0.0
1086,84.0,120.0,120.0,0.0,0.0
1087,59.0,0.0,240.0,0.0,0.0
1088,72.0,240.0,120.0,0.0,0.0
1089,54.0,240.0,480.0,0.0,0.0
1090,63.0,0.0,480.0,0.0,0.0
1091,57.0,0.0,480.0,0.0,0.0
1092,84.0,120.0,120.0,0.0,0.0
1093,72.0,120.0,120.0,0.0,0.0
1094,84.0,0.0,120.0,0.0,0.0
1095,52.0,0.0,480.0,0.0,0.0
1096,55.0,0.0,480.0,0.0,0.0
1097,60.0,240.0,480.0,0.0,0.0
1098,96.0,120.0,120.0,0.0,0.0
1099,84.0,120.0,120.0,0.0,0.0
1100,96.0,0.0,120.0,0.0,0.0
1101,51.0,0.0,480.0,0.0,0.0
1102,54.0,0.0,480.0,0.0,0.0
1103,59.0,0.0,480.0,0.0,0.0
1104,95.0,120.0,120.0,0.0,0.0
1105,83.0,120.0,120.0,0.0,0.0
1106,95.0,240.0,120.0,0.0,0.0
1107,58.0,0.0,480.0,0.0,0.0
1108,52.0,240.0,480.0,0.0,0.0
1109,49.0,0.0,480.0,0.0,0.0
1110,55.0,0.0,480.0,0.0,0.0
1111,94.0,120.0,120.0,0.0,0.0
1112,82.0,120.0,120.0,0.0,0.0
1113,94.0,0.0,120.0,0.0,0.0
1114,54.0,240.0,480.0,0.0,0.0
1115,51.0,0.0,480.0,0.0,0.0
1116,57.0,0.0,480.0,0.0,0.0
1117,93.0,120.0,120.0,0.0,0.0
1118,81.0,120.0,120.0,0.0,0.0
1119,93.0,0.0,120.0,0.0,0.0
1120,52.0,240.0,480.0,0.0,0.0
1121,91.0,120.0,120.0,0.0,0.0
1122,83.0,0.0,120.0,0.0,0.0
1123,79.0,120.0,120.0,0.0,0.0
1124,91.0,0.0,120.0,0.0,0.0
1125,49.0,0.0,960.0,0.0,0.0
1126,55.0,0.0,15.0,0.0,0.0
1127,46.0,0.0,960.0,0.0,0.0
1128,91.0,120.0,120.0,0.0,0.0
1129,85.0,120.0,120.0,0.0,0.0
1130,79.0,0.0,120.0,0.0,0.0
1131,91.0,0.0,120.0,0.0,0.0
1132,54.0,240.0,480.0,0.0,0.0
1133,90.0,120.0,120.0,0.0,0.0
1134,78.0,120.0,120.0,0.0,0.0
1135,85.0,0.0,120.0,0.0,0.0
1136,90.0,0.0,120.0,0.0,0.0
1137,52.0,240.0,480.0,0.0,0.0
1138,88.0,120.0,120.0,0.0,0.0
1139,76.0,0.0,120.0,0.0,0.0
1140,79.0,120.0,120.0,0.0,0.0
1141,88.0,0.0,120.0,0.0,0.0
1142,51.0,120.0,480.0,0.0,0.0
1143,87.0,120.0,120.0,0.0,0.0
1144,75.0,120.0,120.0,0.0,0.0
1145,78.0,0.0,120.0,0.0,0.0
1146,87.0,0.0,120.0,0.0,0.0
1147,76.0,0.0,120.0,0.0,0.0
1148,40.0,0.0,240.0,0.0,0.0
1149,47.0,0.0,15.0,0.0,0.0
1150,52.0,0.0,240.0,0.0,0.0
1151,43.0,0.0,240.0,0.0,0.0
1152,83.0,0.0,120.0,0.0,0.0
1153,79.0,120.0,120.0,0.0,0.0
1154,88.0,0.0,120.0,0.0,0.0
1155,71.0,120.0,120.0,0.0,0.0
1156,76.0,120.0,120.0,0.0,0.0
1157,79.0,120.0,120.0,0.0,0.0
1158,83.0,120.0,120.0,0.0,0.0
1159,59.0,120.0,120.0,0.0,0.0
1160,84.0,0.0,120.0,0.0,0.0
1161,64.0,120.0,120.0,0.0,0.0
1162,83.0,0.0,120.0,0.0,0.0
1163,81.0,120.0,120.0,0.0,0.0
1164,67.0,0.0,120.0,0.0,0.0
1165,71.0,0.0,120.0,0.0,0.0
1166,79.0,120.0,120.0,0.0,0.0
1167,72.0,0.0,120.0,0.0,0.0
1168,81.0,120.0,120.0,0.0,0.0
1169,71.0,0.0,120.0,0.0,0.0
1170,79.0,120.0,120.0,0.0,0.0
1171,78.0,120.0,120.0,0.0,0.0
1172,69.0,0.0,120.0,0.0,0.0
1173,67.0,0.0,120.0,0.0,0.0
1174,76.0,120.0,120.0,0.0,0.0
1175,66.0,0.0,120.0,0.0,0.0
1176,74.0,120.0,120.0,0.0,0.0
1177,72.0,120.0,120.0,0.0,0.0
1178,64.0,0.0,120.0,0.0,0.0
1179,71.0,120.0,120.0,0.0,0.0
1180,62.0,0.0,120.0,0.0,0.0
1181,69.0,0.0,120.0,0.0,0.0
1182,60.0,120.0,120.0,0.0,0.0
1183,67.0,0.0,120.0,0.0,0.0
1184,59.0,120.0,120.0,0.0,0.0
1185,66.0,0.0,120.0,0.0,0.0
1186,57.0,120.0,120.0,0.0,0.0
1187,55.0,0.0,120.0,0.0,0.0
1188,64.0,120.0,120.0,0.0,0.0
1189,54.0,120.0,120.0,0.0,0.0
1190,55.0,120.0,120.0,0.0,0.0
1191,63.0,0.0,15.0,0.0,0.0
1192,57.0,60.0,120.0,0.0,0.0
1193,66.0,0.0,180.0,0.0,0.0
1194,71.0,60.0,180.0,0.0,0.0
1195,59.0,0.0,180.0,0.0,0.0
1196,55.0,120.0,120.0,0.0,0.0
1197,71.0,0.0,180.0,0.0,0.0
1198,63.0,0.0,180.0,0.0,0.0
1199,59.0,60.0,180.0,0.0,0.0
1200,69.0,0.0,180.0,0.0,0.0
1201,54.0,60.0,120.0,0.0,0.0
1202,52.0,120.0,120.0,0.0,0.0
1203,51.0,60.0,120.0,0.0,0.0
1204,71.0,60.0,180.0,0.0,0.0
1205,69.0,0.0,180.0,0.0,0.0
1206,59.0,0.0,180.0,0.0,0.0
1207,63.0,0.0,180.0,0.0,0.0
1208,48.0,120.0,120.0,0.0,0.0
1209,59.0,0.0,180.0,0.0,0.0
1210,63.0,0.0,180.0,0.0,0.0
1211,47.0,60.0,120.0,0.0,0.0
1212,71.0,60.0,180.0,0.0,0.0
1213,69.0,0.0,180.0,0.0,0.0
1214,45.0,120.0,120.0,0.0,0.0
1215,43.0,60.0,120.0,0.0,0.0
1216,59.0,60.0,180.0,0.0,0.0
1217,71.0,0.0,180.0,0.0,0.0
1218,69.0,0.0,180.0,0.0,0.0
1219,63.0,0.0,180.0,0.0,0.0
1220,42.0,120.0,120.0,0.0,0.0
1221,67.0,0.0,120.0,0.0,0.0
1222,64.0,120.0,120.0,0.0,0.0
1223,71.0,0.0,120.0,0.0,0.0
1224,43.0,120.0,240.0,0.0,0.0
1225,52.0,0.0,240.0,0.0,0.0
1226,47.0,0.0,240.0,0.0,0.0
1227,40.0,0.0,240.0,0.0,0.0
1228,59.0,0.0,120.0,0.0,0.0
1229,83.0,0.0,120.0,0.0,0.0
1230,88.0,120.0,120.0,0.0,0.0
1231,91.0,120.0,120.0,0.0,0.0
1232,95.0,120.0,120.0,0.0,0.0
1233,96.0,120.0,120.0,0.0,0.0
1234,71.0,0.0,120.0,0.0,0.0
1235,76.0,0.0,120.0,0.0,0.0
1236,95.0,120.0,120.0,0.0,0.0
1237,93.0,0.0,120.0,0.0,0.0
1238,79.0,120.0,120.0,0.0,0.0
1239,83.0,0.0,120.0,0.0,0.0
1240,91.0,120.0,120.0,0.0,0.0
1241,93.0,120.0,120.0,0.0,0.0
1242,84.0,0.0,120.0,0.0,0.0
1243,83.0,0.0,120.0,0.0,0.0
1244,91.0,120.0,120.0,0.0,0.0
1245,81.0,0.0,120.0,0.0,0.0
1246,90.0,120.0,120.0,0.0,0.0
1247,88.0,120.0,120.0,0.0,0.0
1248,79.0,0.0,120.0,0.0,0.0
1249,86.0,0.0,120.0,0.0,0.0
1250,78.0,120.0,120.0,0.0,0.0
1251,84.0,120.0,120.0,0.0,0.0
1252,76.0,0.0,120.0,0.0,0.0
1253,74.0,0.0,120.0,0.0,0.0
1254,83.0,120.0,120.0,0.0,0.0
1255,81.0,120.0,120.0,0.0,0.0
1256,72.0,0.0,120.0,0.0,0.0
1257,79.0,0.0,120.0,0.0,0.0
1258,71.0,120.0,120.0,0.0,0.0
1259,78.0,0.0,120.0,0.0,0.0
1260,69.0,120.0,120.0,0.0,0.0
1261,76.0,0.0,120.0,0.0,0.0
1262,67.0,120.0,120.0,0.0,0.0
1263,66.0,120.0,120.0,0.0,0.0
1264,67.0,0.0,120.0,0.0,0.0
1265,69.0,60.0,120.0,0.0,0.0
1266,71.0,0.0,180.0,0.0,0.0
1267,78.0,0.0,180.0,0.0,0.0
1268,75.0,120.0,15.0,0.0,0.0
1269,83.0,60.0,180.0,0.0,0.0
1270,67.0,120.0,120.0,0.0,0.0
1271,71.0,0.0,180.0,0.0,0.0
1272,83.0,60.0,180.0,0.0,0.0
1273,75.0,0.0,180.0,0.0,0.0
1274,81.0,0.0,180.0,0.0,0.0
1275,66.0,60.0,120.0,0.0,0.0
1276,64.0,120.0,120.0,0.0,0.0
1277,71.0,0.0,180.0,0.0,0.0
1278,81.0,60.0,180.0,0.0,0.0
1279,75.0,0.0,180.0,0.0,0.0
1280,83.0,0.0,180.0,0.0,0.0
1281,63.0,60.0,120.0,0.0,0.0
1282,60.0,120.0,120.0,0.0,0.0
1283,75.0,0.0,180.0,0.0,0.0
1284,81.0,0.0,180.0,0.0,0.0
1285,71.0,60.0,180.0,0.0,0.0
1286,83.0,0.0,180.0,0.0,0.0
1287,59.0,60.0,120.0,0.0,0.0
1288,57.0,120.0,120.0,0.0,0.0
1289,75.0,60.0,180.0,0.0,0.0
1290,81.0,0.0,180.0,0.0,0.0
1291,83.0,0.0,180.0,0.0,0.0
1292,55.0,60.0,120.0,0.0,0.0
1293,71.0,0.0,180.0,0.0,0.0
1294,54.0,120.0,120.0,0.0,0.0
1295,52.0,120.0,120.0,0.0,0.0
1296,79.0,120.0,240.0,0.0,0.0
1297,71.0,0.0,240.0,0.0,0.0
1298,83.0,0.0,240.0,0.0,0.0
1299,76.0,0.0,240.0,0.0,0.0
1300,54.0,0.0,120.0,0.0,0.0
1301,55.0,120.0,120.0,0.0,0.0
1302,57.0,120.0,120.0,0.0,0.0
1303,59.0,120.0,120.0,0.0,0.0
1304,61.0,120.0,120.0,0.0,0.0
1305,91.0,0.0,180.0,0.0,0.0
1306,88.0,60.0,180.0,0.0,0.0
1307,83.0,0.0,180.0,0.0,0.0
1308,95.0,0.0,180.0,0.0,0.0
1309,63.0,60.0,120.0,0.0,0.0
1310,64.0,120.0,120.0,0.0,0.0
1311,87.0,0.0,180.0,0.0,0.0
1312,83.0,0.0,180.0,0.0,0.0
1313,93.0,0.0,180.0,0.0,0.0
1314,95.0,60.0,180.0,0.0,0.0
1315,66.0,60.0,120.0,0.0,0.0
1316,64.0,120.0,120.0,0.0,0.0
1317,83.0,0.0,180.0,0.0,0.0
1318,63.0,60.0,120.0,0.0,0.0
1319,87.0,0.0,180.0,0.0,0.0
1320,95.0,0.0,180.0,0.0,0.0
1321,93.0,60.0,180.0,0.0,0.0
1322,60.0,120.0,120.0,0.0,0.0
1323,59.0,60.0,120.0,0.0,0.0
1324,83.0,0.0,180.0,0.0,0.0
1325,95.0,60.0,180.0,0.0,0.0
1326,93.0,0.0,180.0,0.0,0.0
1327,87.0,0.0,180.0,0.0,0.0
1328,57.0,120.0,120.0,0.0,0.0
1329,83.0,0.0,180.0,0.0,0.0
1330,87.0,0.0,180.0,0.0,0.0
1331,93.0,60.0,180.0,0.0,0.0
1332,55.0,60.0,120.0,0.0,0.0
1333,95.0,0.0,180.0,0.0,0.0
1334,54.0,120.0,120.0,0.0,0.0
1335,83.0,0.0,180.0,0.0,0.0
1336,95.0,0.0,180.0,0.0,0.0
1337,88.0,0.0,180.0,0.0,0.0
1338,91.0,60.0,180.0,0.0,0.0
1339,52.0,60.0,120.0,0.0,0.0
1340,54.0,120.0,120.0,0.0,0.0
1341,55.0,120.0,120.0,0.0,0.0
1342,57.0,120.0,120.0,0.0,0.0
1343,59.0,120.0,120.0,0.0,0.0
1344,61.0,120.0,120.0,0.0,0.0
1345,83.0,0.0,180.0,0.0,0.0
1346,76.0,0.0,180.0,0.0,0.0
1347,79.0,60.0,180.0,0.0,0.0
1348,71.0,0.0,180.0,0.0,0.0
1349,63.0,60.0,120.0,0.0,0.0
1350,64.0,120.0,120.0,0.0,0.0
1351,75.0,0.0,180.0,0.0,0.0
1352,83.0,60.0,180.0,0.0,0.0
1353,66.0,60.0,120.0,0.0,0.0
1354,71.0,0.0,180.0,0.0,0.0
1355,81.0,0.0,180.0,0.0,0.0
1356,64.0,120.0,120.0,0.0,0.0
1357,71.0,0.0,180.0,0.0,0.0
1358,75.0,0.0,180.0,0.0,0.0
1359,63.0,60.0,120.0,0.0,0.0
1360,81.0,60.0,180.0,0.0,0.0
1361,83.0,0.0,180.0,0.0,0.0
1362,60.0,120.0,120.0,0.0,0.0
1363,71.0,60.0,180.0,0.0,0.0
1364,83.0,0.0,180.0,0.0,0.0
1365,75.0,0.0,180.0,0.0,0.0
1366,81.0,0.0,180.0,0.0,0.0
1367,59.0,60.0,120.0,0.0,0.0
1368,57.0,120.0,120.0,0.0,0.0
1369,55.0,60.0,120.0,0.0,0.0
1370,71.0,60.0,180.0,0.0,0.0
1371,81.0,0.0,180.0,0.0,0.0
1372,83.0,0.0,180.0,0.0,0.0
1373,75.0,0.0,180.0,0.0,0.0
1374,54.0,120.0,120.0,0.0,0.0
1375,71.0,0.0,180.0,0.0,0.0
1376,76.0,0.0,180.0,0.0,0.0
1377,52.0,60.0,120.0,0.0,0.0
1378,83.0,60.0,180.0,0.0,0.0
1379,79.0,0.0,180.0,0.0,0.0
1380,54.0,120.0,120.0,0.0,0.0
1381,55.0,120.0,120.0,0.0,0.0
1382,57.0,120.0,120.0,0.0,0.0
1383,59.0,120.0,120.0,0.0,0.0
1384,61.0,120.0,120.0,0.0,0.0
1385,63.0,60.0,120.0,0.0,0.0
1386,76.0,60.0,180.0,0.0,0.0
1387,83.0,0.0,180.0,0.0,0.0
1388,88.0,0.0,180.0,0.0,0.0
1389,79.0,0.0,180.0,0.0,0.0
1390,64.0,120.0,120.0,0.0,0.0
1391,62.0,60.0,120.0,0.0,0.0
1392,83.0,0.0,180.0,0.0,0.0
1393,88.0,60.0,180.0,0.0,0.0
1394,76.0,0.0,180.0,0.0,0.0
1395,80.0,0.0,180.0,0.0,0.0
1396,60.0,120.0,120.0,0.0,0.0
1397,59.0,60.0,120.0,0.0,0.0
1398,88.0,0.0,180.0,0.0,0.0
1399,83.0,60.0,180.0,0.0,0.0
1400,80.0,0.0,180.0,0.0,0.0
1401,76.0,0.0,180.0,0.0,0.0
1402,57.0,120.0,120.0,0.0,0.0
1403,83.0,0.0,180.0,0.0,0.0
1404,88.0,0.0,180.0,0.0,0.0
1405,80.0,60.0,180.0,0.0,0.0
1406,76.0,0.0,180.0,0.0,0.0
1407,56.0,60.0,120.0,0.0,0.0
1408,54.0,120.0,120.0,0.0,0.0
1409,52.0,60.0,120.0,0.0,0.0
1410,80.0,0.0,180.0,0.0,0.0
1411,83.0,0.0,180.0,0.0,0.0
1412,76.0,0.0,180.0,0.0,0.0
1413,88.0,60.0,180.0,0.0,0.0
1414,50.0,120.0,120.0,0.0,0.0
1415,48.0,60.0,120.0,0.0,0.0
1416,81.0,0.0,180.0,0.0,0.0
1417,88.0,0.0,180.0,0.0,0.0
1418,84.0,0.0,180.0,0.0,0.0
1419,76.0,60.0,180.0,0.0,0.0
1420,50.0,120.0,120.0,0.0,0.0
1421,52.0,120.0,120.0,0.0,0.0
1422,54.0,120.0,120.0,0.0,0.0
1423,56.0,120.0,120.0,0.0,0.0
1424,57.0,120.0,120.0,0.0,0.0
1425,72.0,0.0,240.0,0.0,0.0
1426,69.0,0.0,240.0,0.0,0.0
1427,59.0,120.0,120.0,0.0,0.0
1428,60.0,0.0,120.0,0.0,0.0
1429,76.0,0.0,15.0,0.0,0.0
1430,59.0,120.0,120.0,0.0,0.0
1431,64.0,120.0,15.0,0.0,0.0
1432,57.0,0.0,120.0,0.0,0.0
1433,76.0,0.0,15.0,0.0,0.0
1434,56.0,120.0,120.0,0.0,0.0
1435,64.0,0.0,15.0,0.0,0.0
1436,74.0,0.0,15.0,0.0,0.0
1437,68.0,120.0,15.0,0.0,0.0
1438,54.0,0.0,120.0,0.0,0.0
1439,68.0,0.0,15.0,0.0,0.0
1440,74.0,120.0,15.0,0.0,0.0
1441,76.0,0.0,15.0,0.0,0.0
1442,52.0,120.0,120.0,0.0,0.0
1443,50.0,0.0,120.0,0.0,0.0
1444,48.0,120.0,120.0,0.0,0.0
1445,74.0,0.0,15.0,0.0,0.0
1446,68.0,120.0,15.0,0.0,0.0
1447,64.0,0.0,15.0,0.0,0.0
1448,47.0,0.0,120.0,0.0,0.0
1449,76.0,0.0,15.0,0.0,0.0
1450,64.0,0.0,15.0,0.0,0.0
1451,67.0,0.0,120.0,0.0,0.0
1452,34.0,120.0,120.0,0.0,0.0
1453,46.0,0.0,120.0,0.0,0.0
1454,73.0,0.0,120.0,0.0,0.0
1455,61.0,120.0,120.0,0.0,0.0
1456,64.0,120.0,120.0,0.0,0.0
1457,67.0,120.0,120.0,0.0,0.0
1458,70.0,120.0,120.0,0.0,0.0
1459,73.0,120.0,120.0,0.0,0.0
1460,76.0,120.0,120.0,0.0,0.0
1461,79.0,120.0,120.0,0.0,0.0
1462,82.0,120.0,120.0,0.0,0.0
1463,85.0,120.0,120.0,0.0,0.0
1464,88.0,120.0,120.0,0.0,0.0
1465,91.0,120.0,120.0,0.0,0.0
1466,94.0,120.0,120.0,0.0,0.0
1467,91.0,120.0,120.0,0.0,0.0
1468,88.0,120.0,120.0,0.0,0.0
1469,85.0,120.0,120.0,0.0,0.0
1470,82.0,120.0,120.0,0.0,0.0
1471,79.0,120.0,120.0,0.0,0.0
1472,76.0,120.0,120.0,0.0,0.0
1473,73.0,120.0,120.0,0.0,0.0
1474,70.0,120.0,120.0,0.0,0.0
1475,67.0,120.0,120.0,0.0,0.0
1476,64.0,120.0,120.0,0.0,0.0
1477,61.0,120.0,120.0,0.0,0.0
1478,58.0,120.0,120.0,0.0,0.0
1479,55.0,120.0,120.0,0.0,0.0
1480,52.0,120.0,120.0,0.0,0.0
1481,49.0,120.0,120.0,0.0,0.0
1482,46.0,120.0,120.0,0.0,0.0
1483,43.0,120.0,120.0,0.0,0.0
1484,40.0,120.0,120.0,0.0,0.0
1485,37.0,120.0,120.0,0.0,0.0
1486,34.0,120.0,120.0,0.0,0.0
1487,37.0,120.0,120.0,0.0,0.0
1488,40.0,120.0,120.0,0.0,0.0
1489,43.0,120.0,120.0,0.0,0.0
1490,34.0,120.0,120.0,0.0,0.0
1491,37.0,120.0,120.0,0.0,0.0
1492,40.0,120.0,120.0,0.0,0.0
1493,43.0,120.0,120.0,0.0,0.0
1494,34.0,120.0,120.0,0.0,0.0
1495,37.0,120.0,120.0,0.0,0.0
1496,40.0,120.0,120.0,0.0,0.0
1497,43.0,120.0,120.0,0.0,0.0
1498,34.0,120.0,120.0,0.0,0.0
1499,37.0,120.0,120.0,0.0,0.0
1500,40.0,120.0,120.0,0.0,0.0
1501,43.0,240.0,120.0,0.0,0.0
1502,33.0,0.0,480.0,0.0,0.0
1503,61.0,120.0,120.0,0.0,0.0
1504,64.0,120.0,120.0,0.0,0.0
1505,67.0,120.0,120.0,0.0,0.0
1506,70.0,120.0,120.0,0.0,0.0
1507,72.0,120.0,120.0,0.0,0.0
1508,70.0,120.0,120.0,0.0,0.0
1509,69.0,120.0,120.0,0.0,0.0
1510,67.0,120.0,120.0,0.0,0.0
1511,69.0,120.0,120.0,0.0,0.0
1512,67.0,120.0,120.0,0.0,0.0
1513,65.0,120.0,120.0,0.0,0.0
1514,64.0,120.0,120.0,0.0,0.0
1515,65.0,120.0,120.0,0.0,0.0
1516,67.0,120.0,120.0,0.0,0.0
1517,45.0,0.0,120.0,0.0,0.0
1518,64.0,240.0,120.0,0.0,0.0
1519,33.0,0.0,480.0,0.0,0.0
1520,61.0,120.0,120.0,0.0,0.0
1521,64.0,120.0,120.0,0.0,0.0
1522,67.0,120.0,120.0,0.0,0.0
1523,70.0,120.0,120.0,0.0,0.0
1524,72.0,120.0,120.0,0.0,0.0
1525,70.0,120.0,120.0,0.0,0.0
1526,69.0,120.0,120.0,0.0,0.0
1527,67.0,120.0,120.0,0.0,0.0
1528,69.0,120.0,120.0,0.0,0.0
1529,67.0,120.0,120.0,0.0,0.0
1530,65.0,120.0,120.0,0.0,0.0
1531,64.0,120.0,120.0,0.0,0.0
1532,65.0,120.0,120.0,0.0,0.0
1533,67.0,120.0,120.0,0.0,0.0
1534,64.0,240.0,120.0,0.0,0.0
1535,45.0,0.0,120.0,0.0,0.0
1536,33.0,0.0,480.0,0.0,0.0
1537,61.0,120.0,120.0,0.0,0.0
1538,64.0,120.0,120.0,0.0,0.0
1539,67.0,120.0,120.0,0.0,0.0
1540,70.0,120.0,120.0,0.0,0.0
1541,72.0,120.0,120.0,0.0,0.0
1542,70.0,0.0,120.0,0.0,0.0
1543,61.0,120.0,120.0,0.0,0.0
1544,69.0,120.0,120.0,0.0,0.0
1545,62.0,0.0,120.0,0.0,0.0
1546,64.0,120.0,120.0,0.0,0.0
1547,65.0,0.0,120.0,0.0,0.0
1548,67.0,120.0,15.0,0.0,0.0
1549,64.0,120.0,120.0,0.0,0.0
1550,62.0,0.0,120.0,0.0,0.0
1551,69.0,120.0,120.0,0.0,0.0
1552,70.0,120.0,120.0,0.0,0.0
1553,61.0,0.0,240.0,0.0,0.0
1554,72.0,120.0,120.0,0.0,0.0
1555,61.0,120.0,120.0,0.0,0.0
1556,70.0,0.0,120.0,0.0,0.0
1557,69.0,120.0,120.0,0.0,0.0
1558,62.0,0.0,120.0,0.0,0.0
1559,64.0,120.0,120.0,0.0,0.0
1560,67.0,120.0,240.0,0.0,0.0
1561,65.0,0.0,120.0,0.0,0.0
1562,64.0,120.0,120.0,0.0,0.0
1563,67.0,0.0,120.0,0.0,0.0
1564,62.0,120.0,120.0,0.0,0.0
1565,69.0,0.0,120.0,0.0,0.0
1566,70.0,120.0,120.0,0.0,0.0
1567,72.0,0.0,120.0,0.0,0.0
1568,70.0,0.0,120.0,0.0,0.0
1569,61.0,120.0,15.0,0.0,0.0
1570,69.0,120.0,120.0,0.0,0.0
1571,62.0,0.0,120.0,0.0,0.0
1572,64.0,120.0,120.0,0.0,0.0
1573,67.0,0.0,240.0,0.0,0.0
1574,65.0,120.0,120.0,0.0,0.0
1575,82.0,0.0,240.0,0.0,0.0
1576,64.0,120.0,120.0,0.0,0.0
1577,70.0,120.0,240.0,0.0,0.0
1578,62.0,0.0,120.0,0.0,0.0
1579,81.0,0.0,240.0,0.0,0.0
1580,69.0,0.0,240.0,0.0,0.0
1581,61.0,120.0,120.0,0.0,0.0
1582,58.0,120.0,120.0,0.0,0.0
1583,85.0,120.0,240.0,0.0,0.0
1584,73.0,0.0,240.0,0.0,0.0
1585,57.0,120.0,120.0,0.0,0.0
1586,55.0,0.0,120.0,0.0,0.0
1587,74.0,0.0,120.0,0.0,0.0
1588,86.0,120.0,120.0,0.0,0.0
1589,57.0,0.0,120.0,0.0,0.0
1590,69.0,120.0,120.0,0.0,0.0
1591,62.0,0.0,120.0,0.0,0.0
1592,74.0,120.0,120.0,0.0,0.0
1593,57.0,120.0,120.0,0.0,0.0
1594,77.0,0.0,120.0,0.0,0.0
1595,62.0,120.0,120.0,0.0,0.0
1596,81.0,0.0,120.0,0.0,0.0
1597,57.0,120.0,120.0,0.0,0.0
1598,82.0,0.0,120.0,0.0,0.0
1599,81.0,120.0,120.0,0.0,0.0
1600,62.0,0.0,120.0,0.0,0.0
1601,57.0,0.0,120.0,0.0,0.0
1602,79.0,120.0,120.0,0.0,0.0
1603,62.0,120.0,120.0,0.0,0.0
1604,77.0,0.0,120.0,0.0,0.0
1605,79.0,120.0,120.0,0.0,0.0
1606,57.0,0.0,120.0,0.0,0.0
1607,62.0,0.0,120.0,0.0,0.0
1608,77.0,120.0,120.0,0.0,0.0
1609,76.0,0.0,120.0,0.0,0.0
1610,57.0,120.0,120.0,0.0,0.0
1611,74.0,120.0,120.0,0.0,0.0
1612,62.0,0.0,120.0,0.0,0.0
1613,57.0,0.0,120.0,0.0,0.0
1614,76.0,120.0,120.0,0.0,0.0
1615,62.0,120.0,120.0,0.0,0.0
1616,77.0,0.0,120.0,0.0,0.0
1617,57.0,0.0,120.0,0.0,0.0
1618,74.0,0.0,120.0,0.0,0.0
1619,53.0,240.0,15.0,0.0,0.0
1620,69.0,120.0,120.0,0.0,0.0
1621,57.0,0.0,120.0,0.0,0.0
1622,74.0,0.0,120.0,0.0,0.0
1623,62.0,120.0,120.0,0.0,0.0
1624,77.0,120.0,120.0,0.0,0.0
1625,57.0,0.0,120.0,0.0,0.0
1626,81.0,120.0,120.0,0.0,0.0
1627,62.0,0.0,120.0,0.0,0.0
1628,57.0,0.0,120.0,0.0,0.0
1629,82.0,120.0,120.0,0.0,0.0
1630,62.0,0.0,120.0,0.0,0.0
1631,81.0,120.0,120.0,0.0,0.0
1632,57.0,120.0,120.0,0.0,0.0
1633,79.0,0.0,120.0,0.0,0.0
1634,77.0,0.0,120.0,0.0,0.0
1635,62.0,120.0,120.0,0.0,0.0
1636,57.0,0.0,120.0,0.0,0.0
1637,79.0,120.0,120.0,0.0,0.0
1638,62.0,0.0,120.0,0.0,0.0
1639,77.0,120.0,120.0,0.0,0.0
1640,57.0,120.0,120.0,0.0,0.0
1641,76.0,0.0,120.0,0.0,0.0
1642,74.0,120.0,120.0,0.0,0.0
1643,62.0,0.0,120.0,0.0,0.0
1644,76.0,0.0,120.0,0.0,0.0
1645,57.0,120.0,120.0,0.0,0.0
1646,77.0,0.0,120.0,0.0,0.0
1647,62.0,120.0,120.0,0.0,0.0
1648,74.0,240.0,120.0,0.0,0.0
1649,57.0,0.0,120.0,0.0,0.0
1650,55.0,0.0,1920.0,0.0,0.0
1651,58.0,120.0,120.0,0.0,0.0
1652,70.0,0.0,120.0,0.0,0.0
1653,75.0,120.0,120.0,0.0,0.0
1654,63.0,0.0,120.0,0.0,0.0
1655,58.0,120.0,120.0,0.0,0.0
1656,79.0,0.0,120.0,0.0,0.0
1657,82.0,0.0,120.0,0.0,0.0
1658,63.0,120.0,120.0,0.0,0.0
1659,58.0,120.0,120.0,0.0,0.0
1660,84.0,0.0,120.0,0.0,0.0
1661,82.0,0.0,120.0,0.0,0.0
1662,63.0,120.0,120.0,0.0,0.0
1663,81.0,120.0,120.0,0.0,0.0
1664,58.0,0.0,120.0,0.0,0.0
1665,79.0,120.0,120.0,0.0,0.0
1666,63.0,0.0,120.0,0.0,0.0
1667,58.0,120.0,120.0,0.0,0.0
1668,81.0,0.0,120.0,0.0,0.0
1669,79.0,0.0,120.0,0.0,0.0
1670,63.0,120.0,120.0,0.0,0.0
1671,77.0,120.0,120.0,0.0,0.0
1672,58.0,0.0,120.0,0.0,0.0
1673,63.0,120.0,120.0,0.0,0.0
1674,75.0,0.0,120.0,0.0,0.0
1675,77.0,0.0,120.0,0.0,0.0
1676,58.0,120.0,120.0,0.0,0.0
1677,79.0,120.0,120.0,0.0,0.0
1678,63.0,0.0,120.0,0.0,0.0
1679,75.0,120.0,120.0,0.0,0.0
1680,58.0,0.0,120.0,0.0,0.0
1681,57.0,0.0,960.0,0.0,0.0
1682,74.0,120.0,120.0,0.0,0.0
1683,62.0,120.0,120.0,0.0,0.0
1684,76.0,0.0,120.0,0.0,0.0
1685,65.0,120.0,120.0,0.0,0.0
1686,74.0,0.0,120.0,0.0,0.0
1687,73.0,120.0,120.0,0.0,0.0
1688,62.0,0.0,120.0,0.0,0.0
1689,65.0,120.0,120.0,0.0,0.0
1690,74.0,0.0,120.0,0.0,0.0
1691,76.0,0.0,120.0,0.0,0.0
1692,62.0,120.0,120.0,0.0,0.0
1693,77.0,0.0,120.0,0.0,0.0
1694,65.0,120.0,120.0,0.0,0.0
1695,62.0,0.0,120.0,0.0,0.0
1696,74.0,120.0,120.0,0.0,0.0
1697,55.0,0.0,960.0,0.0,0.0
1698,73.0,120.0,120.0,0.0,0.0
1699,74.0,120.0,120.0,0.0,0.0
1700,57.0,0.0,120.0,0.0,0.0
1701,64.0,0.0,120.0,0.0,0.0
1702,73.0,120.0,120.0,0.0,0.0
1703,71.0,0.0,120.0,0.0,0.0
1704,57.0,120.0,120.0,0.0,0.0
1705,73.0,0.0,120.0,0.0,0.0
1706,64.0,120.0,120.0,0.0,0.0
1707,74.0,120.0,120.0,0.0,0.0
1708,57.0,0.0,120.0,0.0,0.0
1709,64.0,120.0,120.0,0.0,0.0
1710,76.0,0.0,120.0,0.0,0.0
1711,73.0,120.0,120.0,0.0,0.0
1712,57.0,0.0,120.0,0.0,0.0
1713,53.0,120.0,120.0,0.0,0.0
1714,74.0,0.0,240.0,0.0,0.0
1715,69.0,120.0,120.0,0.0,0.0
1716,74.0,120.0,120.0,0.0,0.0
1717,77.0,120.0,120.0,0.0,0.0
1718,81.0,120.0,120.0,0.0,0.0
1719,62.0,0.0,480.0,0.0,0.0
1720,65.0,0.0,120.0,0.0,0.0
1721,82.0,120.0,120.0,0.0,0.0
1722,69.0,120.0,120.0,0.0,0.0
1723,81.0,0.0,120.0,0.0,0.0
1724,79.0,120.0,120.0,0.0,0.0
1725,65.0,0.0,120.0,0.0,0.0
1726,61.0,120.0,480.0,0.0,0.0
1727,77.0,120.0,120.0,0.0,0.0
1728,79.0,0.0,120.0,0.0,0.0
1729,65.0,120.0,120.0,0.0,0.0
1730,77.0,0.0,120.0,0.0,0.0
1731,69.0,120.0,120.0,0.0,0.0
1732,65.0,0.0,120.0,0.0,0.0
1733,76.0,0.0,120.0,0.0,0.0
1734,74.0,120.0,120.0,0.0,0.0
1735,86.0,0.0,240.0,0.0,0.0
1736,62.0,120.0,480.0,0.0,0.0
1737,76.0,120.0,120.0,0.0,0.0
1738,65.0,0.0,120.0,0.0,0.0
1739,69.0,120.0,120.0,0.0,0.0
1740,77.0,0.0,120.0,0.0,0.0
1741,65.0,0.0,120.0,0.0,0.0
1742,74.0,0.0,120.0,0.0,0.0
1743,85.0,120.0,240.0,0.0,0.0
1744,53.0,120.0,120.0,0.0,0.0
1745,69.0,0.0,120.0,0.0,0.0
1746,74.0,120.0,120.0,0.0,0.0
1747,77.0,120.0,120.0,0.0,0.0
1748,81.0,120.0,120.0,0.0,0.0
1749,86.0,0.0,240.0,0.0,0.0
1750,62.0,0.0,480.0,0.0,0.0
1751,82.0,0.0,120.0,0.0,0.0
1752,65.0,120.0,120.0,0.0,0.0
1753,69.0,120.0,120.0,0.0,0.0
1754,81.0,0.0,120.0,0.0,0.0
1755,65.0,120.0,120.0,0.0,0.0
1756,79.0,0.0,120.0,0.0,0.0
1757,61.0,0.0,480.0,0.0,0.0
1758,77.0,120.0,120.0,0.0,0.0
1759,79.0,0.0,120.0,0.0,0.0
1760,65.0,120.0,120.0,0.0,0.0
1761,77.0,120.0,120.0,0.0,0.0
1762,69.0,0.0,120.0,0.0,0.0
1763,76.0,120.0,120.0,0.0,0.0
1764,65.0,0.0,120.0,0.0,0.0
1765,62.0,0.0,480.0,0.0,0.0
1766,74.0,120.0,120.0,0.0,0.0
1767,86.0,0.0,240.0,0.0,0.0
1768,65.0,0.0,120.0,0.0,0.0
1769,76.0,120.0,120.0,0.0,0.0
1770,69.0,0.0,120.0,0.0,0.0
1771,77.0,120.0,120.0,0.0,0.0
1772,74.0,120.0,120.0,0.0,0.0
1773,65.0,0.0,120.0,0.0,0.0
1774,87.0,120.0,120.0,0.0,0.0
1775,55.0,0.0,120.0,0.0,0.0
1776,75.0,0.0,15.0,0.0,0.0
1777,70.0,0.0,120.0,0.0,0.0
1778,82.0,120.0,120.0,0.0,0.0
1779,67.0,120.0,120.0,0.0,0.0
1780,87.0,0.0,120.0,0.0,0.0
1781,70.0,120.0,120.0,0.0,0.0
1782,75.0,0.0,120.0,0.0,0.0
1783,91.0,0.0,120.0,0.0,0.0
1784,67.0,0.0,120.0,0.0,0.0
1785,94.0,120.0,120.0,0.0,0.0
1786,70.0,0.0,120.0,0.0,0.0
1787,96.0,0.0,120.0,0.0,0.0
1788,75.0,120.0,120.0,0.0,0.0
1789,67.0,0.0,120.0,0.0,0.0
1790,94.0,120.0,120.0,0.0,0.0
1791,70.0,120.0,120.0,0.0,0.0
1792,75.0,0.0,120.0,0.0,0.0
1793,93.0,0.0,120.0,0.0,0.0
1794,91.0,120.0,120.0,0.0,0.0
1795,67.0,0.0,120.0,0.0,0.0
1796,93.0,0.0,120.0,0.0,0.0
1797,70.0,0.0,120.0,0.0,0.0
1798,75.0,120.0,120.0,0.0,0.0
1799,67.0,120.0,120.0,0.0,0.0
1800,91.0,0.0,120.0,0.0,0.0
1801,89.0,120.0,120.0,0.0,0.0
1802,70.0,0.0,120.0,0.0,0.0
1803,75.0,0.0,120.0,0.0,0.0
1804,67.0,0.0,120.0,0.0,0.0
1805,87.0,120.0,120.0,0.0,0.0
1806,75.0,120.0,120.0,0.0,0.0
1807,89.0,0.0,120.0,0.0,0.0
1808,70.0,0.0,120.0,0.0,0.0
1809,87.0,120.0,120.0,0.0,0.0
1810,67.0,0.0,120.0,0.0,0.0
1811,86.0,0.0,120.0,0.0,0.0
1812,70.0,0.0,120.0,0.0,0.0
1813,75.0,120.0,120.0,0.0,0.0
1814,85.0,120.0,120.0,0.0,0.0
1815,69.0,0.0,120.0,0.0,0.0
1816,79.0,0.0,120.0,0.0,0.0
1817,76.0,120.0,120.0,0.0,0.0
1818,73.0,0.0,120.0,0.0,0.0
1819,88.0,0.0,120.0,0.0,0.0
1820,91.0,120.0,120.0,0.0,0.0
1821,69.0,0.0,120.0,0.0,0.0
1822,76.0,120.0,120.0,0.0,0.0
1823,73.0,0.0,120.0,0.0,0.0
1824,79.0,0.0,120.0,0.0,0.0
1825,89.0,0.0,120.0,0.0,0.0
1826,88.0,120.0,120.0,0.0,0.0
1827,69.0,0.0,120.0,0.0,0.0
1828,79.0,0.0,120.0,0.0,0.0
1829,73.0,0.0,120.0,0.0,0.0
1830,76.0,0.0,120.0,0.0,0.0
1831,89.0,120.0,120.0,0.0,0.0
1832,69.0,120.0,120.0,0.0,0.0
1833,88.0,0.0,120.0,0.0,0.0
1834,79.0,120.0,120.0,0.0,0.0
1835,76.0,0.0,120.0,0.0,0.0
1836,73.0,0.0,120.0,0.0,0.0
1837,86.0,0.0,120.0,0.0,0.0
1838,69.0,0.0,120.0,0.0,0.0
1839,85.0,120.0,120.0,0.0,0.0
1840,73.0,0.0,120.0,0.0,0.0
1841,86.0,120.0,120.0,0.0,0.0
1842,85.0,0.0,120.0,0.0,0.0
1843,69.0,120.0,120.0,0.0,0.0
1844,82.0,120.0,120.0,0.0,0.0
1845,73.0,0.0,120.0,0.0,0.0
1846,81.0,0.0,120.0,0.0,0.0
1847,57.0,120.0,120.0,0.0,0.0
1848,79.0,0.0,120.0,0.0,0.0
1849,69.0,120.0,120.0,0.0,0.0
1850,77.0,120.0,120.0,0.0,0.0
1851,57.0,0.0,120.0,0.0,0.0
1852,69.0,0.0,120.0,0.0,0.0
1853,76.0,120.0,120.0,0.0,0.0
1854,50.0,120.0,240.0,0.0,0.0
1855,74.0,120.0,120.0,0.0,0.0
1856,65.0,120.0,120.0,0.0,0.0
1857,62.0,0.0,120.0,0.0,0.0
1858,69.0,120.0,120.0,0.0,0.0
1859,62.0,120.0,120.0,0.0,0.0
1860,65.0,0.0,120.0,0.0,0.0
1861,69.0,0.0,120.0,0.0,0.0
1862,65.0,0.0,120.0,0.0,0.0
1863,62.0,0.0,120.0,0.0,0.0
1864,81.0,120.0,15.0,0.0,0.0
1865,69.0,120.0,120.0,0.0,0.0
1866,62.0,0.0,120.0,0.0,0.0
1867,81.0,120.0,120.0,0.0,0.0
1868,65.0,0.0,120.0,0.0,0.0
1869,69.0,120.0,120.0,0.0,0.0
1870,65.0,120.0,120.0,0.0,0.0
1871,62.0,0.0,120.0,0.0,0.0
1872,68.0,120.0,120.0,0.0,0.0
1873,65.0,120.0,120.0,0.0,0.0
1874,62.0,0.0,120.0,0.0,0.0
1875,68.0,0.0,120.0,0.0,0.0
1876,62.0,120.0,120.0,0.0,0.0
1877,65.0,0.0,120.0,0.0,0.0
1878,82.0,120.0,15.0,0.0,0.0
1879,68.0,120.0,120.0,0.0,0.0
1880,82.0,0.0,120.0,0.0,0.0
1881,64.0,0.0,120.0,0.0,0.0
1882,61.0,120.0,120.0,0.0,0.0
1883,68.0,120.0,120.0,0.0,0.0
1884,61.0,0.0,120.0,0.0,0.0
1885,64.0,120.0,120.0,0.0,0.0
1886,69.0,120.0,120.0,0.0,0.0
1887,61.0,120.0,120.0,0.0,0.0
1888,64.0,0.0,120.0,0.0,0.0
1889,69.0,0.0,120.0,0.0,0.0
1890,64.0,120.0,120.0,0.0,0.0
1891,61.0,0.0,120.0,0.0,0.0
1892,81.0,120.0,15.0,0.0,0.0
1893,69.0,120.0,120.0,0.0,0.0
1894,81.0,120.0,120.0,0.0,0.0
1895,64.0,0.0,120.0,0.0,0.0
1896,61.0,0.0,120.0,0.0,0.0
1897,69.0,120.0,120.0,0.0,0.0
1898,76.0,0.0,120.0,0.0,0.0
1899,64.0,0.0,120.0,0.0,0.0
1900,61.0,120.0,120.0,0.0,0.0
1901,69.0,120.0,120.0,0.0,0.0
1902,77.0,120.0,120.0,0.0,0.0
1903,61.0,0.0,120.0,0.0,0.0
1904,64.0,0.0,120.0,0.0,0.0
1905,69.0,120.0,120.0,0.0,0.0
1906,79.0,0.0,120.0,0.0,0.0
1907,61.0,120.0,120.0,0.0,0.0
1908,64.0,0.0,120.0,0.0,0.0
1909,69.0,120.0,120.0,0.0,0.0
1910,77.0,0.0,120.0,0.0,0.0
1911,65.0,120.0,120.0,0.0,0.0
1912,62.0,0.0,120.0,0.0,0.0
1913,69.0,120.0,120.0,0.0,0.0
1914,62.0,120.0,120.0,0.0,0.0
1915,65.0,0.0,120.0,0.0,0.0
1916,69.0,120.0,120.0,0.0,0.0
1917,62.0,120.0,120.0,0.0,0.0
1918,65.0,0.0,120.0,0.0,0.0
1919,69.0,0.0,120.0,0.0,0.0
1920,93.0,0.0,15.0,0.0,0.0
1921,65.0,0.0,120.0,0.0,0.0
1922,62.0,0.0,120.0,0.0,0.0
1923,81.0,120.0,15.0,0.0,0.0
1924,69.0,120.0,120.0,0.0,0.0
1925,93.0,0.0,120.0,0.0,0.0
1926,81.0,120.0,120.0,0.0,0.0
1927,65.0,0.0,120.0,0.0,0.0
1928,62.0,0.0,120.0,0.0,0.0
1929,69.0,120.0,120.0,0.0,0.0
1930,94.0,0.0,480.0,0.0,0.0
1931,82.0,0.0,480.0,0.0,0.0
1932,62.0,0.0,120.0,0.0,0.0
1933,65.0,120.0,120.0,0.0,0.0
1934,68.0,120.0,120.0,0.0,0.0
1935,65.0,120.0,120.0,0.0,0.0
1936,62.0,0.0,120.0,0.0,0.0
1937,68.0,120.0,120.0,0.0,0.0
1938,94.0,0.0,120.0,0.0,0.0
1939,82.0,0.0,120.0,0.0,0.0
1940,65.0,120.0,120.0,0.0,0.0
1941,62.0,0.0,120.0,0.0,0.0
1942,68.0,120.0,120.0,0.0,0.0
1943,94.0,0.0,120.0,0.0,0.0
1944,82.0,0.0,120.0,0.0,0.0
1945,61.0,0.0,120.0,0.0,0.0
1946,64.0,120.0,120.0,0.0,0.0
1947,68.0,120.0,120.0,0.0,0.0
1948,64.0,0.0,120.0,0.0,0.0
1949,61.0,120.0,120.0,0.0,0.0
1950,69.0,120.0,120.0,0.0,0.0
1951,64.0,0.0,120.0,0.0,0.0
1952,61.0,120.0,120.0,0.0,0.0
1953,69.0,120.0,120.0,0.0,0.0
1954,93.0,0.0,15.0,0.0,0.0
1955,81.0,0.0,15.0,0.0,0.0
1956,64.0,0.0,120.0,0.0,0.0
1957,61.0,0.0,120.0,0.0,0.0
1958,69.0,120.0,120.0,0.0,0.0
1959,64.0,120.0,120.0,0.0,0.0
1960,61.0,0.0,120.0,0.0,0.0
1961,93.0,0.0,120.0,0.0,0.0
1962,81.0,0.0,120.0,0.0,0.0
1963,69.0,120.0,120.0,0.0,0.0
1964,76.0,0.0,120.0,0.0,0.0
1965,88.0,120.0,120.0,0.0,0.0
1966,61.0,0.0,120.0,0.0,0.0
1967,64.0,0.0,120.0,0.0,0.0
1968,69.0,120.0,120.0,0.0,0.0
1969,61.0,120.0,120.0,0.0,0.0
1970,64.0,0.0,120.0,0.0,0.0
1971,89.0,0.0,120.0,0.0,0.0
1972,77.0,0.0,120.0,0.0,0.0
1973,69.0,120.0,120.0,0.0,0.0
1974,79.0,0.0,120.0,0.0,0.0
1975,91.0,120.0,120.0,0.0,0.0
1976,64.0,0.0,120.0,0.0,0.0
1977,61.0,0.0,120.0,0.0,0.0
1978,69.0,120.0,120.0,0.0,0.0
1979,77.0,120.0,120.0,0.0,0.0
1980,89.0,0.0,120.0,0.0,0.0
1981,65.0,0.0,120.0,0.0,0.0
1982,62.0,0.0,120.0,0.0,0.0
1983,69.0,120.0,120.0,0.0,0.0
1984,76.0,0.0,480.0,0.0,0.0
1985,56.0,120.0,120.0,0.0,0.0
1986,59.0,0.0,120.0,0.0,0.0
1987,64.0,120.0,120.0,0.0,0.0
1988,59.0,120.0,120.0,0.0,0.0
1989,56.0,0.0,120.0,0.0,0.0
1990,64.0,120.0,120.0,0.0,0.0
1991,59.0,0.0,120.0,0.0,0.0
1992,56.0,120.0,120.0,0.0,0.0
1993,76.0,0.0,120.0,0.0,0.0
1994,64.0,120.0,120.0,0.0,0.0
1995,60.0,0.0,120.0,0.0,0.0
1996,76.0,120.0,120.0,0.0,0.0
1997,57.0,0.0,120.0,0.0,0.0
1998,64.0,120.0,120.0,0.0,0.0
1999,60.0,120.0,120.0,0.0,0.0
2000,57.0,0.0,120.0,0.0,0.0
2001,66.0,120.0,120.0,0.0,0.0
2002,57.0,120.0,120.0,0.0,0.0
2003,60.0,0.0,120.0,0.0,0.0
2004,66.0,0.0,120.0,0.0,0.0
2005,75.0,120.0,15.0,0.0,0.0
2006,57.0,0.0,120.0,0.0,0.0
2007,60.0,0.0,120.0,0.0,0.0
2008,66.0,120.0,120.0,0.0,0.0
2009,59.0,120.0,120.0,0.0,0.0
2010,56.0,0.0,120.0,0.0,0.0
2011,75.0,0.0,120.0,0.0,0.0
2012,66.0,120.0,120.0,0.0,0.0
2013,59.0,120.0,120.0,0.0,0.0
2014,56.0,0.0,120.0,0.0,0.0
2015,64.0,120.0,120.0,0.0,0.0
2016,56.0,120.0,120.0,0.0,0.0
2017,59.0,0.0,120.0,0.0,0.0
2018,64.0,0.0,120.0,0.0,0.0
2019,59.0,0.0,120.0,0.0,0.0
2020,76.0,120.0,15.0,0.0,0.0
2021,56.0,120.0,120.0,0.0,0.0
2022,64.0,120.0,120.0,0.0,0.0
2023,76.0,0.0,120.0,0.0,0.0
2024,59.0,0.0,120.0,0.0,0.0
2025,56.0,120.0,120.0,0.0,0.0
2026,64.0,120.0,120.0,0.0,0.0
2027,71.0,0.0,120.0,0.0,0.0
2028,59.0,120.0,120.0,0.0,0.0
2029,56.0,0.0,120.0,0.0,0.0
2030,64.0,120.0,120.0,0.0,0.0
2031,59.0,0.0,120.0,0.0,0.0
2032,56.0,120.0,120.0,0.0,0.0
2033,72.0,0.0,120.0,0.0,0.0
2034,64.0,120.0,120.0,0.0,0.0
2035,74.0,0.0,120.0,0.0,0.0
2036,56.0,0.0,120.0,0.0,0.0
2037,59.0,120.0,120.0,0.0,0.0
2038,64.0,120.0,120.0,0.0,0.0
2039,72.0,0.0,120.0,0.0,0.0
2040,60.0,120.0,120.0,0.0,0.0
2041,57.0,0.0,120.0,0.0,0.0
2042,64.0,120.0,120.0,0.0,0.0
2043,57.0,120.0,120.0,0.0,0.0
2044,60.0,0.0,120.0,0.0,0.0
2045,64.0,120.0,120.0,0.0,0.0
2046,60.0,120.0,120.0,0.0,0.0
2047,57.0,0.0,120.0,0.0,0.0
2048,64.0,0.0,120.0,0.0,0.0
2049,60.0,0.0,120.0,0.0,0.0
2050,57.0,120.0,120.0,0.0,0.0
2051,76.0,120.0,15.0,0.0,0.0
2052,88.0,0.0,15.0,0.0,0.0
2053,64.0,120.0,120.0,0.0,0.0
2054,76.0,0.0,120.0,0.0,0.0
2055,88.0,0.0,120.0,0.0,0.0
2056,57.0,0.0,120.0,0.0,0.0
2057,60.0,120.0,120.0,0.0,0.0
2058,64.0,120.0,120.0,0.0,0.0
2059,57.0,0.0,120.0,0.0,0.0
2060,60.0,120.0,120.0,0.0,0.0
2061,66.0,120.0,120.0,0.0,0.0
2062,60.0,0.0,120.0,0.0,0.0
2063,57.0,120.0,120.0,0.0,0.0
2064,66.0,120.0,120.0,0.0,0.0
2065,75.0,0.0,15.0,0.0,0.0
2066,87.0,0.0,15.0,0.0,0.0
2067,60.0,0.0,120.0,0.0,0.0
2068,57.0,0.0,120.0,0.0,0.0
2069,66.0,120.0,120.0,0.0,0.0
2070,75.0,0.0,120.0,0.0,0.0
2071,59.0,120.0,120.0,0.0,0.0
2072,87.0,0.0,120.0,0.0,0.0
2073,56.0,0.0,120.0,0.0,0.0
2074,66.0,120.0,120.0,0.0,0.0
2075,56.0,120.0,120.0,0.0,0.0
2076,59.0,0.0,120.0,0.0,0.0
2077,64.0,120.0,120.0,0.0,0.0
2078,59.0,120.0,120.0,0.0,0.0
2079,56.0,0.0,120.0,0.0,0.0
2080,64.0,0.0,120.0,0.0,0.0
2081,56.0,0.0,120.0,0.0,0.0
2082,88.0,0.0,15.0,0.0,0.0
2083,59.0,0.0,120.0,0.0,0.0
2084,76.0,120.0,15.0,0.0,0.0
2085,64.0,120.0,120.0,0.0,0.0
2086,76.0,120.0,120.0,0.0,0.0
2087,56.0,0.0,120.0,0.0,0.0
2088,59.0,0.0,120.0,0.0,0.0
2089,88.0,0.0,120.0,0.0,0.0
2090,64.0,120.0,120.0,0.0,0.0
2091,83.0,0.0,120.0,0.0,0.0
2092,71.0,0.0,120.0,0.0,0.0
2093,59.0,120.0,120.0,0.0,0.0
2094,56.0,0.0,120.0,0.0,0.0
2095,64.0,120.0,120.0,0.0,0.0
2096,84.0,0.0,120.0,0.0,0.0
2097,72.0,0.0,120.0,0.0,0.0
2098,56.0,120.0,120.0,0.0,0.0
2099,59.0,0.0,120.0,0.0,0.0
2100,64.0,120.0,120.0,0.0,0.0
2101,86.0,0.0,120.0,0.0,0.0
2102,59.0,0.0,120.0,0.0,0.0
2103,74.0,0.0,120.0,0.0,0.0
2104,56.0,120.0,120.0,0.0,0.0
2105,64.0,120.0,120.0,0.0,0.0
2106,72.0,120.0,120.0,0.0,0.0
2107,84.0,0.0,120.0,0.0,0.0
2108,45.0,120.0,480.0,0.0,0.0
2109,48.0,0.0,480.0,0.0,0.0
2110,52.0,0.0,480.0,0.0,0.0
2111,57.0,0.0,480.0,0.0,0.0
2112,64.0,120.0,120.0,0.0,0.0
2113,69.0,120.0,120.0,0.0,0.0
2114,72.0,0.0,120.0,0.0,0.0
2115,76.0,120.0,120.0,0.0,0.0
2116,77.0,0.0,120.0,0.0,0.0
2117,52.0,120.0,120.0,0.0,0.0
2118,76.0,0.0,120.0,0.0,0.0
2119,57.0,120.0,120.0,0.0,0.0
2120,74.0,120.0,120.0,0.0,0.0
2121,60.0,0.0,120.0,0.0,0.0
2122,72.0,120.0,120.0,0.0,0.0
2123,64.0,0.0,120.0,0.0,0.0
2124,65.0,0.0,120.0,0.0,0.0
2125,74.0,120.0,120.0,0.0,0.0
2126,64.0,0.0,120.0,0.0,0.0
2127,72.0,120.0,120.0,0.0,0.0
2128,62.0,0.0,120.0,0.0,0.0
2129,71.0,120.0,120.0,0.0,0.0
2130,69.0,120.0,120.0,0.0,0.0
2131,60.0,0.0,120.0,0.0,0.0
2132,62.0,120.0,120.0,0.0,0.0
2133,71.0,0.0,120.0,0.0,0.0
2134,64.0,120.0,120.0,0.0,0.0
2135,72.0,0.0,120.0,0.0,0.0
2136,69.0,0.0,120.0,0.0,0.0
2137,60.0,120.0,120.0,0.0,0.0
2138,70.0,0.0,120.0,0.0,0.0
2139,62.0,120.0,120.0,0.0,0.0
2140,65.0,120.0,120.0,0.0,0.0
2141,64.0,0.0,120.0,0.0,0.0
2142,62.0,120.0,120.0,0.0,0.0
2143,70.0,0.0,120.0,0.0,0.0
2144,74.0,0.0,120.0,0.0,0.0
2145,60.0,120.0,120.0,0.0,0.0
2146,58.0,120.0,120.0,0.0,0.0
2147,77.0,0.0,120.0,0.0,0.0
2148,79.0,120.0,120.0,0.0,0.0
2149,53.0,0.0,120.0,0.0,0.0
2150,58.0,0.0,120.0,0.0,0.0
2151,77.0,120.0,120.0,0.0,0.0
2152,62.0,120.0,120.0,0.0,0.0
2153,76.0,0.0,120.0,0.0,0.0
2154,74.0,0.0,120.0,0.0,0.0
2155,65.0,120.0,120.0,0.0,0.0
2156,76.0,120.0,120.0,0.0,0.0
2157,67.0,0.0,120.0,0.0,0.0
2158,65.0,0.0,120.0,0.0,0.0
2159,74.0,120.0,120.0,0.0,0.0
2160,72.0,120.0,120.0,0.0,0.0
2161,64.0,0.0,120.0,0.0,0.0
2162,62.0,0.0,120.0,0.0,0.0
2163,70.0,120.0,120.0,0.0,0.0
2164,64.0,0.0,120.0,0.0,0.0
2165,72.0,120.0,120.0,0.0,0.0
2166,74.0,0.0,120.0,0.0,0.0
2167,65.0,120.0,120.0,0.0,0.0
2168,70.0,120.0,120.0,0.0,0.0
2169,62.0,0.0,120.0,0.0,0.0
2170,73.0,0.0,120.0,0.0,0.0
2171,64.0,120.0,120.0,0.0,0.0
2172,67.0,120.0,120.0,0.0,0.0
2173,65.0,0.0,120.0,0.0,0.0
2174,64.0,120.0,120.0,0.0,0.0
2175,73.0,0.0,120.0,0.0,0.0
2176,76.0,120.0,120.0,0.0,0.0
2177,62.0,0.0,120.0,0.0,0.0
2178,61.0,0.0,120.0,0.0,0.0
2179,79.0,120.0,120.0,0.0,0.0
2180,55.0,0.0,120.0,0.0,0.0
2181,81.0,120.0,120.0,0.0,0.0
2182,61.0,0.0,120.0,0.0,0.0
2183,79.0,120.0,120.0,0.0,0.0
2184,64.0,120.0,120.0,0.0,0.0
2185,77.0,0.0,120.0,0.0,0.0
2186,76.0,0.0,120.0,0.0,0.0
2187,67.0,120.0,120.0,0.0,0.0
2188,77.0,120.0,120.0,0.0,0.0
2189,69.0,0.0,120.0,0.0,0.0
2190,67.0,0.0,120.0,0.0,0.0
2191,76.0,120.0,120.0,0.0,0.0
2192,74.0,120.0,120.0,0.0,0.0
2193,65.0,0.0,120.0,0.0,0.0
2194,64.0,0.0,120.0,0.0,0.0
2195,73.0,120.0,120.0,0.0,0.0
2196,65.0,0.0,120.0,0.0,0.0
2197,74.0,120.0,120.0,0.0,0.0
2198,67.0,0.0,120.0,0.0,0.0
2199,76.0,120.0,120.0,0.0,0.0
2200,64.0,120.0,120.0,0.0,0.0
2201,73.0,0.0,120.0,0.0,0.0
2202,65.0,0.0,120.0,0.0,0.0
2203,74.0,120.0,120.0,0.0,0.0
2204,69.0,0.0,120.0,0.0,0.0
2205,57.0,120.0,120.0,0.0,0.0
2206,74.0,120.0,120.0,0.0,0.0
2207,62.0,0.0,120.0,0.0,0.0
2208,65.0,0.0,120.0,0.0,0.0
2209,77.0,120.0,120.0,0.0,0.0
2210,69.0,120.0,120.0,0.0,0.0
2211,81.0,0.0,120.0,0.0,0.0
2212,82.0,120.0,120.0,0.0,0.0
2213,70.0,0.0,120.0,0.0,0.0
2214,81.0,120.0,120.0,0.0,0.0
2215,69.0,0.0,120.0,0.0,0.0
2216,67.0,120.0,120.0,0.0,0.0
2217,79.0,0.0,120.0,0.0,0.0
2218,65.0,0.0,120.0,0.0,0.0
2219,77.0,120.0,120.0,0.0,0.0
2220,76.0,0.0,120.0,0.0,0.0
2221,64.0,120.0,120.0,0.0,0.0
2222,62.0,120.0,120.0,0.0,0.0
2223,74.0,0.0,120.0,0.0,0.0
2224,72.0,0.0,120.0,0.0,0.0
2225,60.0,120.0,120.0,0.0,0.0
2226,58.0,0.0,120.0,0.0,0.0
2227,70.0,120.0,120.0,0.0,0.0
2228,57.0,120.0,120.0,0.0,0.0
2229,69.0,0.0,120.0,0.0,0.0
2230,67.0,0.0,120.0,0.0,0.0
2231,55.0,120.0,120.0,0.0,0.0
2232,53.0,0.0,120.0,0.0,0.0
2233,65.0,120.0,120.0,0.0,0.0
2234,52.0,120.0,120.0,0.0,0.0
2235,64.0,0.0,120.0,0.0,0.0
2236,62.0,120.0,120.0,0.0,0.0
2237,50.0,0.0,120.0,0.0,0.0
2238,48.0,0.0,120.0,0.0,0.0
2239,60.0,120.0,120.0,0.0,0.0
2240,46.0,120.0,120.0,0.0,0.0
2241,58.0,0.0,120.0,0.0,0.0
2242,57.0,120.0,120.0,0.0,0.0
2243,45.0,0.0,120.0,0.0,0.0
2244,55.0,0.0,120.0,0.0,0.0
2245,43.0,120.0,120.0,0.0,0.0
2246,41.0,0.0,120.0,0.0,0.0
2247,53.0,120.0,120.0,0.0,0.0
2248,52.0,120.0,120.0,0.0,0.0
2249,40.0,0.0,120.0,0.0,0.0
2250,38.0,0.0,120.0,0.0,0.0
2251,50.0,120.0,120.0,0.0,0.0
2252,40.0,120.0,120.0,0.0,0.0
2253,52.0,0.0,120.0,0.0,0.0
2254,53.0,120.0,120.0,0.0,0.0
2255,41.0,0.0,120.0,0.0,0.0
2256,40.0,240.0,120.0,0.0,0.0
2257,50.0,0.0,120.0,0.0,0.0
2258,38.0,0.0,240.0,0.0,0.0
2259,50.0,240.0,240.0,0.0,0.0
2260,39.0,0.0,240.0,0.0,0.0
2261,60.0,120.0,240.0,0.0,0.0
2262,57.0,0.0,240.0,0.0,0.0
2263,54.0,0.0,240.0,0.0,0.0
2264,51.0,0.0,240.0,0.0,0.0
2265,56.0,0.0,120.0,0.0,0.0
2266,59.0,0.0,120.0,0.0,0.0
2267,40.0,120.0,120.0,0.0,0.0
2268,64.0,0.0,120.0,0.0,0.0
2269,52.0,0.0,15.0,0.0,0.0
2270,44.0,120.0,120.0,0.0,0.0
2271,64.0,120.0,120.0,0.0,0.0
2272,52.0,0.0,120.0,0.0,0.0
2273,40.0,120.0,120.0,0.0,0.0
2274,64.0,0.0,120.0,0.0,0.0
2275,52.0,120.0,120.0,0.0,0.0
2276,45.0,120.0,120.0,0.0,0.0
2277,52.0,0.0,120.0,0.0,0.0
2278,64.0,120.0,120.0,0.0,0.0
2279,40.0,120.0,120.0,0.0,0.0
2280,64.0,120.0,120.0,0.0,0.0
2281,52.0,0.0,120.0,0.0,0.0
2282,47.0,120.0,120.0,0.0,0.0
2283,52.0,0.0,120.0,0.0,0.0
2284,64.0,120.0,120.0,0.0,0.0
2285,40.0,120.0,120.0,0.0,0.0
2286,64.0,0.0,120.0,0.0,0.0
2287,52.0,120.0,120.0,0.0,0.0
2288,48.0,120.0,120.0,0.0,0.0
2289,52.0,120.0,120.0,0.0,0.0
2290,64.0,0.0,120.0,0.0,0.0
2291,40.0,120.0,120.0,0.0,0.0
2292,76.0,120.0,120.0,0.0,0.0
2293,64.0,0.0,120.0,0.0,0.0
2294,50.0,120.0,120.0,0.0,0.0
2295,76.0,120.0,120.0,0.0,0.0
2296,64.0,0.0,120.0,0.0,0.0
2297,40.0,120.0,120.0,0.0,0.0
2298,76.0,0.0,120.0,0.0,0.0
2299,64.0,120.0,120.0,0.0,0.0
2300,48.0,120.0,120.0,0.0,0.0
2301,64.0,120.0,120.0,0.0,0.0
2302,76.0,0.0,120.0,0.0,0.0
2303,40.0,120.0,120.0,0.0,0.0
2304,64.0,120.0,120.0,0.0,0.0
2305,76.0,0.0,120.0,0.0,0.0
2306,47.0,120.0,120.0,0.0,0.0
2307,64.0,120.0,120.0,0.0,0.0
2308,76.0,0.0,120.0,0.0,0.0
2309,40.0,120.0,120.0,0.0,0.0
2310,76.0,0.0,120.0,0.0,0.0
2311,64.0,120.0,120.0,0.0,0.0
2312,45.0,120.0,120.0,0.0,0.0
2313,64.0,0.0,120.0,0.0,0.0
2314,76.0,120.0,120.0,0.0,0.0
2315,40.0,120.0,120.0,0.0,0.0
2316,88.0,120.0,120.0,0.0,0.0
2317,76.0,0.0,120.0,0.0,0.0
2318,44.0,120.0,120.0,0.0,0.0
2319,88.0,0.0,120.0,0.0,0.0
2320,76.0,120.0,120.0,0.0,0.0
2321,40.0,120.0,120.0,0.0,0.0
2322,76.0,0.0,120.0,0.0,0.0
2323,88.0,120.0,120.0,0.0,0.0
2324,45.0,120.0,120.0,0.0,0.0
2325,76.0,120.0,120.0,0.0,0.0
2326,88.0,0.0,120.0,0.0,0.0
2327,40.0,120.0,120.0,0.0,0.0
2328,88.0,120.0,120.0,0.0,0.0
2329,76.0,0.0,120.0,0.0,0.0
2330,47.0,120.0,120.0,0.0,0.0
2331,88.0,0.0,120.0,0.0,0.0
2332,76.0,120.0,120.0,0.0,0.0
2333,40.0,120.0,120.0,0.0,0.0
2334,76.0,120.0,120.0,0.0,0.0
2335,88.0,0.0,120.0,0.0,0.0
2336,48.0,120.0,120.0,0.0,0.0
2337,88.0,0.0,120.0,0.0,0.0
2338,76.0,120.0,120.0,0.0,0.0
2339,40.0,120.0,120.0,0.0,0.0
2340,88.0,120.0,120.0,0.0,0.0
2341,100.0,0.0,120.0,0.0,0.0
2342,49.0,120.0,120.0,0.0,0.0
2343,100.0,120.0,120.0,0.0,0.0
2344,88.0,0.0,120.0,0.0,0.0
2345,40.0,120.0,120.0,0.0,0.0
2346,100.0,120.0,120.0,0.0,0.0
2347,88.0,0.0,120.0,0.0,0.0
2348,50.0,120.0,120.0,0.0,0.0
2349,100.0,0.0,120.0,0.0,0.0
2350,88.0,120.0,120.0,0.0,0.0
2351,40.0,120.0,120.0,0.0,0.0
2352,88.0,0.0,120.0,0.0,0.0
2353,100.0,120.0,120.0,0.0,0.0
2354,51.0,120.0,120.0,0.0,0.0
2355,88.0,120.0,120.0,0.0,0.0
2356,100.0,0.0,120.0,0.0,0.0
2357,40.0,120.0,120.0,0.0,0.0
2358,100.0,0.0,120.0,0.0,0.0
2359,88.0,120.0,120.0,0.0,0.0
2360,52.0,120.0,120.0,0.0,0.0
2361,100.0,0.0,120.0,0.0,0.0
2362,88.0,240.0,120.0,0.0,0.0
2363,38.0,0.0,240.0,0.0,0.0
2364,50.0,0.0,240.0,0.0,0.0
2365,46.0,120.0,240.0,0.0,0.0
2366,41.0,0.0,240.0,0.0,0.0
2367,53.0,0.0,120.0,0.0,0.0
2368,58.0,120.0,120.0,0.0,0.0
2369,62.0,120.0,120.0,0.0,0.0
2370,65.0,120.0,120.0,0.0,0.0
2371,50.0,120.0,120.0,0.0,0.0
2372,53.0,120.0,120.0,0.0,0.0
2373,58.0,120.0,120.0,0.0,0.0
2374,62.0,120.0,120.0,0.0,0.0
2375,65.0,120.0,120.0,0.0,0.0
2376,70.0,120.0,120.0,0.0,0.0
2377,74.0,120.0,120.0,0.0,0.0
2378,77.0,120.0,120.0,0.0,0.0
2379,62.0,120.0,120.0,0.0,0.0
2380,65.0,120.0,120.0,0.0,0.0
2381,70.0,120.0,120.0,0.0,0.0
2382,74.0,120.0,120.0,0.0,0.0
2383,77.0,120.0,120.0,0.0,0.0
2384,82.0,120.0,120.0,0.0,0.0
2385,86.0,240.0,120.0,0.0,0.0
2386,89.0,1440.0,240.0,0.0,0.0
2387,47.0,0.0,240.0,0.0,0.0
2388,50.0,0.0,240.0,0.0,0.0
2389,40.0,0.0,240.0,0.0,0.0
2390,52.0,120.0,240.0,0.0,0.0
2391,56.0,0.0,120.0,0.0,0.0
2392,59.0,120.0,120.0,0.0,0.0
2393,62.0,120.0,120.0,0.0,0.0
2394,68.0,120.0,120.0,0.0,0.0
2395,52.0,120.0,120.0,0.0,0.0
2396,59.0,120.0,120.0,0.0,0.0
2397,62.0,120.0,120.0,0.0,0.0
2398,64.0,120.0,120.0,0.0,0.0
2399,68.0,120.0,120.0,0.0,0.0
2400,71.0,120.0,120.0,0.0,0.0
2401,74.0,120.0,120.0,0.0,0.0
2402,80.0,120.0,120.0,0.0,0.0
2403,64.0,120.0,120.0,0.0,0.0
2404,71.0,120.0,120.0,0.0,0.0
2405,74.0,120.0,120.0,0.0,0.0
2406,76.0,120.0,120.0,0.0,0.0
2407,80.0,120.0,120.0,0.0,0.0
2408,83.0,120.0,120.0,0.0,0.0
2409,86.0,240.0,120.0,0.0,0.0
2410,92.0,1360.0,240.0,0.0,0.0
2411,41.0,160.0,150.0,0.0,0.0
2412,53.0,160.0,150.0,0.0,0.0
2413,56.0,120.0,150.0,0.0,0.0
2414,59.0,120.0,120.0,0.0,0.0
2415,62.0,120.0,120.0,0.0,0.0
2416,65.0,120.0,120.0,0.0,0.0
2417,68.0,240.0,120.0,0.0,0.0
2418,71.0,880.0,240.0,0.0,0.0
2419,44.0,160.0,150.0,0.0,0.0
2420,56.0,160.0,150.0,0.0,0.0
2421,59.0,120.0,150.0,0.0,0.0
2422,62.0,120.0,120.0,0.0,0.0
2423,65.0,120.0,120.0,0.0,0.0
2424,68.0,120.0,120.0,0.0,0.0
2425,71.0,240.0,120.0,0.0,0.0
2426,74.0,880.0,240.0,0.0,0.0
2427,47.0,160.0,150.0,0.0,0.0
2428,59.0,160.0,150.0,0.0,0.0
2429,62.0,120.0,150.0,0.0,0.0
2430,65.0,120.0,120.0,0.0,0.0
2431,68.0,120.0,120.0,0.0,0.0
2432,71.0,120.0,120.0,0.0,0.0
2433,74.0,240.0,120.0,0.0,0.0
2434,77.0,880.0,240.0,0.0,0.0
2435,50.0,160.0,150.0,0.0,0.0
2436,62.0,160.0,150.0,0.0,0.0
2437,65.0,120.0,150.0,0.0,0.0
2438,68.0,120.0,120.0,0.0,0.0
2439,71.0,120.0,120.0,0.0,0.0
2440,74.0,120.0,120.0,0.0,0.0
2441,77.0,240.0,120.0,0.0,0.0
2442,80.0,960.0,240.0,0.0,0.0
2443,53.0,240.0,240.0,0.0,0.0
2444,56.0,240.0,240.0,0.0,0.0
2445,59.0,240.0,240.0,0.0,0.0
2446,62.0,240.0,240.0,0.0,0.0
2447,65.0,240.0,240.0,0.0,0.0
2448,68.0,240.0,240.0,0.0,0.0
2449,71.0,240.0,240.0,0.0,0.0
2450,74.0,240.0,240.0,0.0,0.0
2451,77.0,240.0,240.0,0.0,0.0
2452,80.0,240.0,240.0,0.0,0.0
2453,83.0,240.0,240.0,0.0,0.0
2454,86.0,240.0,240.0,0.0,0.0
2455,89.0,240.0,240.0,0.0,0.0
2456,92.0,240.0,240.0,0.0,0.0
2457,95.0,240.0,240.0,0.0,0.0
2458,98.0,240.0,240.0,0.0,0.0
2459,95.0,240.0,240.0,0.0,0.0
2460,92.0,240.0,240.0,0.0,0.0
2461,89.0,240.0,240.0,0.0,0.0
2462,86.0,240.0,240.0,0.0,0.0
2463,83.0,240.0,240.0,0.0,0.0
2464,80.0,240.0,240.0,0.0,0.0
2465,77.0,240.0,240.0,0.0,0.0
2466,74.0,240.0,240.0,0.0,0.0
2467,71.0,240.0,240.0,0.0,0.0
2468,68.0,240.0,240.0,0.0,0.0
2469,65.0,240.0,240.0,0.0,0.0
2470,62.0,240.0,240.0,0.0,0.0
2471,59.0,240.0,240.0,0.0,0.0
2472,56.0,240.0,240.0,0.0,0.0
2473,53.0,240.0,240.0,0.0,0.0
2474,50.0,960.0,240.0,0.0,0.0
2475,47.0,960.0,960.0,0.0,0.0
2476,44.0,960.0,960.0,0.0,0.0
2477,41.0,960.0,960.0,0.0,0.0
2478,38.0,1920.0,960.0,0.0,0.0
2479,35.0,720.0,1920.0,0.0,0.0
2480,56.0,0.0,720.0,0.0,0.0
2481,52.0,0.0,720.0,0.0,0.0
2482,50.0,0.0,720.0,0.0,0.0
2483,47.0,1920.0,720.0,0.0,0.0
2484,64.0,960.0,720.0,0.0,0.0
2485,68.0,0.0,720.0,0.0,0.0
2486,59.0,0.0,720.0,0.0,0.0
2487,62.0,0.0,720.0,0.0,0.0
2488,76.0,0.0,720.0,0.0,0.0
2489,80.0,0.0,720.0,0.0,0.0
2490,71.0,960.0,720.0,0.0,0.0
2491,74.0,0.0,720.0,0.0,0.0
2492,92.0,0.0,720.0,0.0,0.0
2493,88.0,0.0,720.0,0.0,0.0
2494,86.0,960.0,720.0,0.0,0.0
2495,83.0,0.0,720.0,0.0,0.0
2496,47.0,0.0,720.0,0.0,0.0
2497,50.0,0.0,720.0,0.0,0.0
2498,52.0,120.0,720.0,0.0,0.0
2499,56.0,0.0,720.0,0.0,0.0
2500,40.0,120.0,15.0,0.0,0.0
2501,33.0,0.0,480.0,0.0,0.0
2502,45.0,120.0,480.0,0.0,0.0
2503,52.0,120.0,120.0,0.0,0.0
2504,57.0,120.0,120.0,0.0,0.0
2505,60.0,0.0,120.0,0.0,0.0
2506,64.0,120.0,120.0,0.0,0.0
2507,65.0,120.0,120.0,0.0,0.0
2508,64.0,120.0,120.0,0.0,0.0
2509,62.0,120.0,120.0,0.0,0.0
2510,60.0,120.0,120.0,0.0,0.0
2511,62.0,120.0,120.0,0.0,0.0
2512,60.0,120.0,120.0,0.0,0.0
2513,59.0,120.0,120.0,0.0,0.0
2514,57.0,120.0,120.0,0.0,0.0
2515,59.0,120.0,120.0,0.0,0.0
2516,60.0,120.0,120.0,0.0,0.0
2517,57.0,240.0,120.0,0.0,0.0
2518,33.0,0.0,480.0,0.0,0.0
2519,45.0,0.0,480.0,0.0,0.0
2520,52.0,120.0,120.0,0.0,0.0
2521,57.0,120.0,120.0,0.0,0.0
2522,60.0,120.0,120.0,0.0,0.0
2523,64.0,120.0,120.0,0.0,0.0
2524,65.0,120.0,120.0,0.0,0.0
2525,64.0,120.0,120.0,0.0,0.0
2526,62.0,0.0,120.0,0.0,0.0
2527,72.0,0.0,120.0,0.0,0.0
2528,76.0,120.0,120.0,0.0,0.0
2529,60.0,120.0,120.0,0.0,0.0
2530,76.0,0.0,480.0,0.0,0.0
2531,72.0,0.0,480.0,0.0,0.0
2532,62.0,120.0,120.0,0.0,0.0
2533,60.0,120.0,120.0,0.0,0.0
2534,59.0,120.0,120.0,0.0,0.0
2535,57.0,120.0,120.0,0.0,0.0
2536,69.0,0.0,240.0,0.0,0.0
2537,72.0,120.0,240.0,0.0,0.0
2538,59.0,0.0,120.0,0.0,0.0
2539,60.0,120.0,120.0,0.0,0.0
2540,57.0,240.0,120.0,0.0,0.0
2541,38.0,0.0,480.0,0.0,0.0
2542,50.0,0.0,480.0,0.0,0.0
2543,53.0,120.0,120.0,0.0,0.0
2544,58.0,120.0,120.0,0.0,0.0
2545,62.0,120.0,120.0,0.0,0.0
2546,65.0,120.0,120.0,0.0,0.0
2547,67.0,120.0,120.0,0.0,0.0
2548,65.0,120.0,120.0,0.0,0.0
2549,64.0,120.0,120.0,0.0,0.0
2550,74.0,0.0,120.0,0.0,0.0
2551,77.0,0.0,120.0,0.0,0.0
2552,74.0,0.0,960.0,0.0,0.0
2553,77.0,0.0,960.0,0.0,0.0
2554,62.0,120.0,120.0,0.0,0.0
2555,64.0,120.0,120.0,0.0,0.0
2556,62.0,120.0,120.0,0.0,0.0
2557,60.0,120.0,120.0,0.0,0.0
2558,58.0,120.0,120.0,0.0,0.0
2559,60.0,120.0,120.0,0.0,0.0
2560,58.0,120.0,120.0,0.0,0.0
2561,57.0,120.0,120.0,0.0,0.0
2562,56.0,120.0,120.0,0.0,0.0
2563,74.0,120.0,240.0,0.0,0.0
2564,76.0,0.0,240.0,0.0,0.0
2565,57.0,0.0,120.0,0.0,0.0
2566,59.0,120.0,120.0,0.0,0.0
2567,40.0,120.0,240.0,0.0,0.0
2568,52.0,0.0,240.0,0.0,0.0
2569,56.0,0.0,120.0,0.0,0.0
2570,57.0,120.0,120.0,0.0,0.0
2571,59.0,120.0,120.0,0.0,0.0
2572,53.0,0.0,240.0,0.0,0.0
2573,41.0,0.0,240.0,0.0,0.0
2574,60.0,120.0,120.0,0.0,0.0
2575,57.0,120.0,120.0,0.0,0.0
2576,59.0,120.0,120.0,0.0,0.0
2577,60.0,120.0,120.0,0.0,0.0
2578,50.0,0.0,240.0,0.0,0.0
2579,38.0,0.0,240.0,0.0,0.0
2580,62.0,120.0,120.0,0.0,0.0
2581,59.0,120.0,120.0,0.0,0.0
2582,56.0,120.0,120.0,0.0,0.0
2583,57.0,120.0,120.0,0.0,0.0
2584,59.0,120.0,120.0,0.0,0.0
2585,40.0,0.0,240.0,0.0,0.0
2586,52.0,0.0,240.0,0.0,0.0
2587,56.0,120.0,120.0,0.0,0.0
2588,45.0,0.0,120.0,0.0,0.0
2589,33.0,120.0,120.0,0.0,0.0
2590,52.0,120.0,120.0,0.0,0.0
2591,57.0,120.0,120.0,0.0,0.0
2592,60.0,0.0,120.0,0.0,0.0
2593,64.0,120.0,120.0,0.0,0.0
2594,65.0,120.0,120.0,0.0,0.0
2595,64.0,120.0,120.0,0.0,0.0
2596,68.0,0.0,120.0,0.0,0.0
2597,62.0,120.0,120.0,0.0,0.0
2598,69.0,120.0,120.0,0.0,0.0
2599,60.0,0.0,120.0,0.0,0.0
2600,62.0,120.0,120.0,0.0,0.0
2601,71.0,0.0,120.0,0.0,0.0
2602,60.0,120.0,120.0,0.0,0.0
2603,59.0,120.0,120.0,0.0,0.0
2604,57.0,0.0,120.0,0.0,0.0
2605,72.0,120.0,120.0,0.0,0.0
2606,59.0,120.0,120.0,0.0,0.0
2607,69.0,0.0,120.0,0.0,0.0
2608,60.0,120.0,120.0,0.0,0.0
2609,57.0,120.0,120.0,0.0,0.0
2610,60.0,120.0,120.0,0.0,0.0
2611,52.0,120.0,120.0,0.0,0.0
2612,57.0,120.0,120.0,0.0,0.0
2613,60.0,120.0,120.0,0.0,0.0
2614,64.0,120.0,120.0,0.0,0.0
2615,65.0,120.0,120.0,0.0,0.0
2616,68.0,120.0,120.0,0.0,0.0
2617,64.0,0.0,120.0,0.0,0.0
2618,80.0,0.0,120.0,0.0,0.0
2619,62.0,120.0,120.0,0.0,0.0
2620,81.0,0.0,120.0,0.0,0.0
2621,69.0,0.0,120.0,0.0,0.0
2622,60.0,120.0,120.0,0.0,0.0
2623,62.0,120.0,120.0,0.0,0.0
2624,83.0,0.0,120.0,0.0,0.0
2625,71.0,0.0,120.0,0.0,0.0
2626,60.0,120.0,120.0,0.0,0.0
2627,59.0,120.0,120.0,0.0,0.0
2628,84.0,0.0,120.0,0.0,0.0
2629,57.0,0.0,120.0,0.0,0.0
2630,72.0,120.0,120.0,0.0,0.0
2631,59.0,120.0,120.0,0.0,0.0
2632,60.0,120.0,120.0,0.0,0.0
2633,69.0,0.0,120.0,0.0,0.0
2634,81.0,0.0,120.0,0.0,0.0
2635,57.0,120.0,120.0,0.0,0.0
2636,62.0,120.0,120.0,0.0,0.0
2637,53.0,120.0,120.0,0.0,0.0
2638,58.0,120.0,120.0,0.0,0.0
2639,62.0,120.0,120.0,0.0,0.0
2640,65.0,120.0,120.0,0.0,0.0
2641,67.0,120.0,120.0,0.0,0.0
2642,81.0,0.0,240.0,0.0,0.0
2643,69.0,120.0,240.0,0.0,0.0
2644,65.0,120.0,120.0,0.0,0.0
2645,64.0,0.0,120.0,0.0,0.0
2646,70.0,0.0,240.0,0.0,0.0
2647,62.0,120.0,120.0,0.0,0.0
2648,82.0,120.0,240.0,0.0,0.0
2649,64.0,0.0,120.0,0.0,0.0
2650,86.0,0.0,240.0,0.0,0.0
2651,74.0,0.0,240.0,0.0,0.0
2652,62.0,120.0,120.0,0.0,0.0
2653,60.0,120.0,120.0,0.0,0.0
2654,89.0,0.0,120.0,0.0,0.0
2655,58.0,120.0,120.0,0.0,0.0
2656,77.0,0.0,120.0,0.0,0.0
2657,60.0,120.0,120.0,0.0,0.0
2658,77.0,120.0,120.0,0.0,0.0
2659,58.0,0.0,120.0,0.0,0.0
2660,89.0,0.0,120.0,0.0,0.0
2661,57.0,120.0,120.0,0.0,0.0
2662,77.0,120.0,480.0,0.0,0.0
2663,56.0,120.0,120.0,0.0,0.0
2664,89.0,0.0,480.0,0.0,0.0
2665,57.0,120.0,120.0,0.0,0.0
2666,59.0,120.0,120.0,0.0,0.0
2667,60.0,0.0,120.0,0.0,0.0
2668,62.0,120.0,120.0,0.0,0.0
2669,88.0,120.0,960.0,0.0,0.0
2670,76.0,0.0,960.0,0.0,0.0
2671,60.0,120.0,120.0,0.0,0.0
2672,59.0,120.0,120.0,0.0,0.0
2673,57.0,120.0,120.0,0.0,0.0
2674,56.0,120.0,120.0,0.0,0.0
2675,57.0,120.0,120.0,0.0,0.0
2676,56.0,120.0,120.0,0.0,0.0
2677,53.0,0.0,120.0,0.0,0.0
2678,80.0,0.0,480.0,0.0,0.0
2679,52.0,120.0,120.0,0.0,0.0
2680,68.0,0.0,480.0,0.0,0.0
2681,50.0,120.0,120.0,0.0,0.0
2682,48.0,120.0,120.0,0.0,0.0
2683,47.0,120.0,120.0,0.0,0.0
2684,69.0,0.0,120.0,0.0,0.0
2685,81.0,120.0,120.0,0.0,0.0
2686,45.0,120.0,480.0,0.0,0.0
2687,64.0,120.0,120.0,0.0,0.0
2688,69.0,120.0,120.0,0.0,0.0
2689,72.0,0.0,120.0,0.0,0.0
2690,76.0,120.0,120.0,0.0,0.0
2691,64.0,120.0,120.0,0.0,0.0
2692,69.0,120.0,120.0,0.0,0.0
2693,60.0,0.0,120.0,0.0,0.0
2694,57.0,0.0,120.0,0.0,0.0
2695,72.0,240.0,120.0,0.0,0.0
2696,57.0,0.0,480.0,0.0,0.0
2697,60.0,120.0,480.0,0.0,0.0
2698,64.0,120.0,120.0,0.0,0.0
2699,69.0,120.0,120.0,0.0,0.0
2700,72.0,0.0,120.0,0.0,0.0
2701,76.0,120.0,120.0,0.0,0.0
2702,64.0,120.0,120.0,0.0,0.0
2703,69.0,120.0,120.0,0.0,0.0
2704,72.0,240.0,120.0,0.0,0.0
2705,57.0,0.0,120.0,0.0,0.0
2706,60.0,0.0,15.0,0.0,0.0
2707,52.0,0.0,960.0,0.0,0.0
2708,57.0,0.0,960.0,0.0,0.0
2709,63.0,120.0,120.0,0.0,0.0
2710,66.0,120.0,120.0,0.0,0.0
2711,72.0,240.0,120.0,0.0,0.0
2712,75.0,240.0,480.0,0.0,0.0
2713,63.0,120.0,120.0,0.0,0.0
2714,66.0,120.0,120.0,0.0,0.0
2715,72.0,0.0,120.0,0.0,0.0
2716,52.0,0.0,240.0,0.0,0.0
2717,56.0,0.0,240.0,0.0,0.0
2718,59.0,0.0,240.0,0.0,0.0
2719,75.0,240.0,480.0,0.0,0.0
2720,63.0,120.0,120.0,0.0,0.0
2721,68.0,120.0,120.0,0.0,0.0
2722,71.0,0.0,120.0,0.0,0.0
2723,76.0,240.0,480.0,0.0,0.0
2724,64.0,120.0,120.0,0.0,0.0
2725,68.0,120.0,120.0,0.0,0.0
2726,71.0,0.0,120.0,0.0,0.0
2727,52.0,0.0,480.0,0.0,0.0
2728,40.0,0.0,480.0,0.0,0.0
2729,64.0,120.0,120.0,0.0,0.0
2730,68.0,120.0,120.0,0.0,0.0
2731,71.0,120.0,120.0,0.0,0.0
2732,76.0,120.0,120.0,0.0,0.0
2733,64.0,120.0,120.0,0.0,0.0
2734,68.0,120.0,120.0,0.0,0.0
2735,71.0,0.0,120.0,0.0,0.0
2736,59.0,240.0,120.0,0.0,0.0
2737,62.0,0.0,15.0,0.0,0.0
2738,59.0,0.0,480.0,0.0,0.0
2739,64.0,120.0,120.0,0.0,0.0
2740,68.0,120.0,120.0,0.0,0.0
2741,71.0,120.0,120.0,0.0,0.0
2742,76.0,120.0,120.0,0.0,0.0
2743,64.0,120.0,120.0,0.0,0.0
2744,68.0,120.0,120.0,0.0,0.0
2745,71.0,0.0,120.0,0.0,0.0
2746,59.0,0.0,120.0,0.0,0.0
2747,62.0,240.0,15.0,0.0,0.0
2748,59.0,0.0,960.0,0.0,0.0
2749,64.0,120.0,120.0,0.0,0.0
2750,68.0,120.0,120.0,0.0,0.0
2751,71.0,240.0,120.0,0.0,0.0
2752,64.0,120.0,120.0,0.0,0.0
2753,68.0,120.0,120.0,0.0,0.0
2754,71.0,0.0,120.0,0.0,0.0
2755,60.0,0.0,240.0,0.0,0.0
2756,57.0,0.0,15.0,0.0,0.0
2757,76.0,0.0,15.0,0.0,0.0
2758,64.0,120.0,120.0,0.0,0.0
2759,68.0,120.0,120.0,0.0,0.0
2760,71.0,240.0,120.0,0.0,0.0
2761,76.0,0.0,15.0,0.0,0.0
2762,64.0,120.0,120.0,0.0,0.0
2763,69.0,120.0,120.0,0.0,0.0
2764,72.0,0.0,120.0,0.0,0.0
2765,57.0,0.0,480.0,0.0,0.0
2766,45.0,120.0,480.0,0.0,0.0
2767,69.0,120.0,120.0,0.0,0.0
2768,73.0,120.0,120.0,0.0,0.0
2769,76.0,0.0,120.0,0.0,0.0
2770,81.0,120.0,120.0,0.0,0.0
2771,69.0,120.0,120.0,0.0,0.0
2772,73.0,120.0,120.0,0.0,0.0
2773,67.0,0.0,120.0,0.0,0.0
2774,76.0,240.0,120.0,0.0,0.0
2775,67.0,120.0,480.0,0.0,0.0
2776,64.0,0.0,15.0,0.0,0.0
2777,69.0,120.0,120.0,0.0,0.0
2778,73.0,120.0,120.0,0.0,0.0
2779,76.0,0.0,120.0,0.0,0.0
2780,81.0,120.0,120.0,0.0,0.0
2781,69.0,120.0,120.0,0.0,0.0
2782,73.0,120.0,120.0,0.0,0.0
2783,76.0,0.0,120.0,0.0,0.0
2784,64.0,240.0,120.0,0.0,0.0
2785,67.0,0.0,15.0,0.0,0.0
2786,64.0,0.0,1200.0,0.0,0.0
2787,69.0,120.0,120.0,0.0,0.0
2788,73.0,120.0,120.0,0.0,0.0
2789,76.0,240.0,120.0,0.0,0.0
2790,81.0,0.0,480.0,0.0,0.0
2791,69.0,120.0,120.0,0.0,0.0
2792,73.0,120.0,120.0,0.0,0.0
2793,76.0,120.0,120.0,0.0,0.0
2794,69.0,120.0,120.0,0.0,0.0
2795,73.0,0.0,120.0,0.0,0.0
2796,81.0,0.0,120.0,0.0,0.0
2797,65.0,120.0,240.0,0.0,0.0
2798,62.0,0.0,15.0,0.0,0.0
2799,74.0,120.0,120.0,0.0,0.0
2800,69.0,0.0,120.0,0.0,0.0
2801,81.0,0.0,120.0,0.0,0.0
2802,64.0,120.0,240.0,0.0,0.0
2803,60.0,0.0,240.0,0.0,0.0
2804,69.0,120.0,120.0,0.0,0.0
2805,76.0,0.0,120.0,0.0,0.0
2806,81.0,0.0,120.0,0.0,0.0
2807,77.0,0.0,120.0,0.0,0.0
2808,69.0,120.0,120.0,0.0,0.0
2809,62.0,240.0,240.0,0.0,0.0
2810,59.0,0.0,240.0,0.0,0.0
2811,81.0,0.0,120.0,0.0,0.0
2812,52.0,240.0,480.0,0.0,0.0
2813,60.0,0.0,480.0,0.0,0.0
2814,57.0,0.0,480.0,0.0,0.0
2815,64.0,120.0,120.0,0.0,0.0
2816,69.0,120.0,120.0,0.0,0.0
2817,72.0,0.0,120.0,0.0,0.0
2818,76.0,240.0,480.0,0.0,0.0
2819,64.0,120.0,120.0,0.0,0.0
2820,69.0,120.0,120.0,0.0,0.0
2821,57.0,0.0,120.0,0.0,0.0
2822,60.0,0.0,120.0,0.0,0.0
2823,72.0,0.0,120.0,0.0,0.0
2824,52.0,0.0,480.0,0.0,0.0
2825,62.0,0.0,480.0,0.0,0.0
2826,59.0,0.0,480.0,0.0,0.0
2827,64.0,120.0,120.0,0.0,0.0
2828,71.0,120.0,120.0,0.0,0.0
2829,74.0,240.0,120.0,0.0,0.0
2830,76.0,0.0,15.0,0.0,0.0
2831,64.0,120.0,120.0,0.0,0.0
2832,68.0,120.0,120.0,0.0,0.0
2833,56.0,0.0,120.0,0.0,0.0
2834,59.0,0.0,120.0,0.0,0.0
2835,71.0,0.0,120.0,0.0,0.0
2836,76.0,120.0,15.0,0.0,0.0
2837,69.0,120.0,480.0,0.0,0.0
2838,57.0,120.0,120.0,0.0,0.0
2839,72.0,0.0,480.0,0.0,0.0
2840,64.0,120.0,120.0,0.0,0.0
2841,60.0,120.0,120.0,0.0,0.0
2842,57.0,0.0,120.0,0.0,0.0
2843,52.0,120.0,120.0,0.0,0.0
2844,60.0,120.0,120.0,0.0,0.0
2845,57.0,120.0,120.0,0.0,0.0
2846,52.0,0.0,120.0,0.0,0.0
2847,84.0,120.0,120.0,0.0,0.0
2848,81.0,0.0,120.0,0.0,0.0
2849,48.0,120.0,120.0,0.0,0.0
2850,84.0,0.0,480.0,0.0,0.0
2851,81.0,120.0,480.0,0.0,0.0
2852,57.0,120.0,120.0,0.0,0.0
2853,52.0,120.0,120.0,0.0,0.0
2854,48.0,0.0,120.0,0.0,0.0
2855,45.0,120.0,120.0,0.0,0.0
2856,52.0,120.0,120.0,0.0,0.0
2857,48.0,120.0,120.0,0.0,0.0
2858,81.0,0.0,120.0,0.0,0.0
2859,45.0,120.0,120.0,0.0,0.0
2860,84.0,0.0,120.0,0.0,0.0
2861,84.0,120.0,960.0,0.0,0.0
2862,81.0,0.0,960.0,0.0,0.0
2863,40.0,120.0,120.0,0.0,0.0
2864,45.0,120.0,120.0,0.0,0.0
2865,48.0,120.0,120.0,0.0,0.0
2866,52.0,120.0,120.0,0.0,0.0
2867,51.0,120.0,120.0,0.0,0.0
2868,52.0,120.0,120.0,0.0,0.0
2869,51.0,120.0,120.0,0.0,0.0
2870,52.0,0.0,120.0,0.0,0.0
2871,51.0,120.0,120.0,0.0,0.0
2872,80.0,0.0,240.0,0.0,0.0
2873,83.0,120.0,240.0,0.0,0.0
2874,52.0,0.0,120.0,0.0,0.0
2875,47.0,120.0,120.0,0.0,0.0
2876,52.0,120.0,120.0,0.0,0.0
2877,44.0,120.0,120.0,0.0,0.0
2878,52.0,120.0,120.0,0.0,0.0
2879,47.0,120.0,120.0,0.0,0.0
2880,52.0,120.0,120.0,0.0,0.0
2881,40.0,120.0,120.0,0.0,0.0
2882,44.0,120.0,120.0,0.0,0.0
2883,47.0,120.0,120.0,0.0,0.0
2884,52.0,120.0,120.0,0.0,0.0
2885,44.0,120.0,120.0,0.0,0.0
2886,47.0,120.0,120.0,0.0,0.0
2887,52.0,120.0,120.0,0.0,0.0
2888,56.0,120.0,120.0,0.0,0.0
2889,83.0,0.0,120.0,0.0,0.0
2890,86.0,0.0,15.0,0.0,0.0
2891,47.0,120.0,120.0,0.0,0.0
2892,83.0,120.0,480.0,0.0,0.0
2893,52.0,120.0,120.0,0.0,0.0
2894,56.0,120.0,120.0,0.0,0.0
2895,59.0,0.0,120.0,0.0,0.0
2896,52.0,120.0,120.0,0.0,0.0
2897,56.0,120.0,120.0,0.0,0.0
2898,59.0,120.0,120.0,0.0,0.0
2899,83.0,0.0,120.0,0.0,0.0
2900,86.0,0.0,120.0,0.0,0.0
2901,64.0,120.0,120.0,0.0,0.0
2902,83.0,0.0,960.0,0.0,0.0
2903,57.0,120.0,120.0,0.0,0.0
2904,86.0,0.0,960.0,0.0,0.0
2905,60.0,120.0,120.0,0.0,0.0
2906,64.0,120.0,120.0,0.0,0.0
2907,69.0,120.0,120.0,0.0,0.0
2908,68.0,120.0,120.0,0.0,0.0
2909,69.0,120.0,120.0,0.0,0.0
2910,68.0,120.0,120.0,0.0,0.0
2911,69.0,120.0,120.0,0.0,0.0
2912,81.0,0.0,240.0,0.0,0.0
2913,84.0,0.0,240.0,0.0,0.0
2914,68.0,120.0,120.0,0.0,0.0
2915,69.0,120.0,120.0,0.0,0.0
2916,64.0,120.0,120.0,0.0,0.0
2917,69.0,120.0,120.0,0.0,0.0
2918,60.0,120.0,120.0,0.0,0.0
2919,69.0,120.0,120.0,0.0,0.0
2920,64.0,120.0,120.0,0.0,0.0
2921,69.0,120.0,120.0,0.0,0.0
2922,57.0,120.0,120.0,0.0,0.0
2923,61.0,120.0,120.0,0.0,0.0
2924,64.0,120.0,120.0,0.0,0.0
2925,69.0,120.0,120.0,0.0,0.0
2926,61.0,120.0,120.0,0.0,0.0
2927,64.0,120.0,120.0,0.0,0.0
2928,69.0,120.0,120.0,0.0,0.0
2929,88.0,0.0,120.0,0.0,0.0
2930,91.0,0.0,120.0,0.0,0.0
2931,73.0,120.0,120.0,0.0,0.0
2932,91.0,0.0,480.0,0.0,0.0
2933,88.0,120.0,480.0,0.0,0.0
2934,64.0,120.0,120.0,0.0,0.0
2935,69.0,120.0,120.0,0.0,0.0
2936,73.0,120.0,120.0,0.0,0.0
2937,76.0,0.0,120.0,0.0,0.0
2938,69.0,120.0,120.0,0.0,0.0
2939,73.0,120.0,120.0,0.0,0.0
2940,76.0,120.0,120.0,0.0,0.0
2941,81.0,0.0,120.0,0.0,0.0
2942,88.0,0.0,15.0,0.0,0.0
2943,91.0,120.0,15.0,0.0,0.0
2944,73.0,120.0,120.0,0.0,0.0
2945,81.0,120.0,120.0,0.0,0.0
2946,80.0,120.0,120.0,0.0,0.0
2947,81.0,120.0,120.0,0.0,0.0
2948,73.0,120.0,120.0,0.0,0.0
2949,81.0,120.0,120.0,0.0,0.0
2950,73.0,120.0,120.0,0.0,0.0
2951,81.0,120.0,120.0,0.0,0.0
2952,73.0,120.0,120.0,0.0,0.0
2953,81.0,0.0,120.0,0.0,0.0
2954,86.0,120.0,240.0,0.0,0.0
2955,89.0,0.0,240.0,0.0,0.0
2956,74.0,120.0,120.0,0.0,0.0
2957,81.0,0.0,120.0,0.0,0.0
2958,84.0,0.0,240.0,0.0,0.0
2959,88.0,120.0,240.0,0.0,0.0
2960,76.0,120.0,120.0,0.0,0.0
2961,81.0,0.0,120.0,0.0,0.0
2962,86.0,0.0,240.0,0.0,0.0
2963,83.0,120.0,240.0,0.0,0.0
2964,77.0,120.0,120.0,0.0,0.0
2965,81.0,0.0,15.0,0.0,0.0
2966,84.0,0.0,480.0,0.0,0.0
2967,64.0,120.0,120.0,0.0,0.0
2968,69.0,120.0,120.0,0.0,0.0
2969,72.0,120.0,120.0,0.0,0.0
2970,76.0,120.0,120.0,0.0,0.0
2971,75.0,120.0,120.0,0.0,0.0
2972,76.0,120.0,120.0,0.0,0.0
2973,75.0,120.0,120.0,0.0,0.0
2974,76.0,0.0,120.0,0.0,0.0
2975,93.0,120.0,120.0,0.0,0.0
2976,84.0,0.0,120.0,0.0,0.0
2977,81.0,0.0,120.0,0.0,0.0
2978,83.0,120.0,480.0,0.0,0.0
2979,86.0,0.0,480.0,0.0,0.0
2980,64.0,120.0,120.0,0.0,0.0
2981,95.0,0.0,480.0,0.0,0.0
2982,68.0,120.0,120.0,0.0,0.0
2983,71.0,120.0,120.0,0.0,0.0
2984,76.0,0.0,120.0,0.0,0.0
2985,64.0,120.0,120.0,0.0,0.0
2986,71.0,120.0,120.0,0.0,0.0
2987,74.0,120.0,120.0,0.0,0.0
2988,80.0,0.0,120.0,0.0,0.0
2989,92.0,120.0,120.0,0.0,0.0
2990,83.0,0.0,120.0,0.0,0.0
2991,76.0,0.0,120.0,0.0,0.0
2992,57.0,120.0,120.0,0.0,0.0
2993,93.0,0.0,120.0,0.0,0.0
2994,84.0,0.0,120.0,0.0,0.0
2995,81.0,0.0,120.0,0.0,0.0
2996,76.0,0.0,120.0,0.0,0.0
2997,72.0,0.0,120.0,0.0,0.0
2998,69.0,120.0,120.0,0.0,0.0
2999,81.0,0.0,120.0,0.0,0.0
3000,64.0,120.0,120.0,0.0,0.0
3001,76.0,0.0,120.0,0.0,0.0
3002,84.0,120.0,120.0,0.0,0.0
3003,72.0,0.0,120.0,0.0,0.0
3004,69.0,0.0,120.0,0.0,0.0
3005,64.0,120.0,120.0,0.0,0.0
3006,76.0,0.0,120.0,0.0,0.0
3007,88.0,0.0,120.0,0.0,0.0
3008,72.0,120.0,120.0,0.0,0.0
3009,69.0,0.0,120.0,0.0,0.0
3010,89.0,0.0,120.0,0.0,0.0
3011,88.0,0.0,120.0,0.0,0.0
3012,76.0,0.0,120.0,0.0,0.0
3013,64.0,120.0,120.0,0.0,0.0
3014,69.0,0.0,120.0,0.0,0.0
3015,72.0,120.0,120.0,0.0,0.0
3016,86.0,0.0,120.0,0.0,0.0
3017,84.0,120.0,120.0,0.0,0.0
3018,64.0,0.0,120.0,0.0,0.0
3019,76.0,0.0,120.0,0.0,0.0
3020,72.0,120.0,120.0,0.0,0.0
3021,69.0,0.0,120.0,0.0,0.0
3022,86.0,0.0,120.0,0.0,0.0
3023,84.0,120.0,120.0,0.0,0.0
3024,76.0,0.0,120.0,0.0,0.0
3025,64.0,0.0,120.0,0.0,0.0
3026,83.0,120.0,120.0,0.0,0.0
3027,72.0,0.0,120.0,0.0,0.0
3028,69.0,0.0,120.0,0.0,0.0
3029,64.0,0.0,120.0,0.0,0.0
3030,76.0,0.0,120.0,0.0,0.0
3031,81.0,120.0,120.0,0.0,0.0
3032,83.0,120.0,120.0,0.0,0.0
3033,72.0,0.0,120.0,0.0,0.0
3034,69.0,0.0,120.0,0.0,0.0
3035,76.0,0.0,120.0,0.0,0.0
3036,64.0,120.0,120.0,0.0,0.0
3037,84.0,0.0,120.0,0.0,0.0
3038,81.0,0.0,120.0,0.0,0.0
3039,72.0,0.0,120.0,0.0,0.0
3040,69.0,120.0,120.0,0.0,0.0
3041,57.0,120.0,120.0,0.0,0.0
3042,72.0,0.0,120.0,0.0,0.0
3043,69.0,0.0,120.0,0.0,0.0
3044,76.0,120.0,15.0,0.0,0.0
3045,81.0,120.0,120.0,0.0,0.0
3046,64.0,0.0,120.0,0.0,0.0
3047,69.0,0.0,120.0,0.0,0.0
3048,72.0,0.0,120.0,0.0,0.0
3049,84.0,120.0,120.0,0.0,0.0
3050,88.0,0.0,120.0,0.0,0.0
3051,64.0,0.0,120.0,0.0,0.0
3052,76.0,120.0,120.0,0.0,0.0
3053,89.0,0.0,120.0,0.0,0.0
3054,69.0,120.0,120.0,0.0,0.0
3055,72.0,0.0,120.0,0.0,0.0
3056,64.0,0.0,120.0,0.0,0.0
3057,76.0,120.0,120.0,0.0,0.0
3058,88.0,0.0,120.0,0.0,0.0
3059,86.0,120.0,120.0,0.0,0.0
3060,69.0,0.0,120.0,0.0,0.0
3061,72.0,0.0,120.0,0.0,0.0
3062,76.0,120.0,120.0,0.0,0.0
3063,64.0,0.0,120.0,0.0,0.0
3064,84.0,0.0,120.0,0.0,0.0
3065,72.0,120.0,120.0,0.0,0.0
3066,86.0,0.0,120.0,0.0,0.0
3067,69.0,0.0,120.0,0.0,0.0
3068,64.0,120.0,120.0,0.0,0.0
3069,76.0,0.0,120.0,0.0,0.0
3070,84.0,0.0,120.0,0.0,0.0
3071,83.0,120.0,120.0,0.0,0.0
3072,72.0,0.0,120.0,0.0,0.0
3073,69.0,0.0,120.0,0.0,0.0
3074,76.0,0.0,120.0,0.0,0.0
3075,64.0,120.0,120.0,0.0,0.0
3076,81.0,0.0,120.0,0.0,0.0
3077,69.0,0.0,120.0,0.0,0.0
3078,83.0,120.0,120.0,0.0,0.0
3079,72.0,0.0,120.0,0.0,0.0
3080,76.0,0.0,120.0,0.0,0.0
3081,64.0,120.0,120.0,0.0,0.0
3082,84.0,0.0,120.0,0.0,0.0
3083,72.0,120.0,120.0,0.0,0.0
3084,69.0,0.0,120.0,0.0,0.0
3085,81.0,0.0,120.0,0.0,0.0
3086,48.0,120.0,120.0,0.0,0.0
3087,82.0,0.0,120.0,0.0,0.0
3088,60.0,120.0,120.0,0.0,0.0
3089,58.0,0.0,120.0,0.0,0.0
3090,64.0,120.0,120.0,0.0,0.0
3091,55.0,0.0,120.0,0.0,0.0
3092,88.0,0.0,120.0,0.0,0.0
3093,91.0,0.0,120.0,0.0,0.0
3094,60.0,0.0,120.0,0.0,0.0
3095,58.0,120.0,120.0,0.0,0.0
3096,94.0,0.0,120.0,0.0,0.0
3097,64.0,120.0,120.0,0.0,0.0
3098,55.0,0.0,120.0,0.0,0.0
3099,60.0,0.0,120.0,0.0,0.0
3100,96.0,120.0,120.0,0.0,0.0
3101,58.0,0.0,120.0,0.0,0.0
3102,55.0,0.0,120.0,0.0,0.0
3103,64.0,0.0,120.0,0.0,0.0
3104,94.0,120.0,120.0,0.0,0.0
3105,58.0,120.0,120.0,0.0,0.0
3106,60.0,0.0,120.0,0.0,0.0
3107,93.0,0.0,120.0,0.0,0.0
3108,91.0,0.0,120.0,0.0,0.0
3109,64.0,120.0,120.0,0.0,0.0
3110,55.0,0.0,120.0,0.0,0.0
3111,58.0,0.0,120.0,0.0,0.0
3112,93.0,120.0,120.0,0.0,0.0
3113,60.0,0.0,120.0,0.0,0.0
3114,91.0,120.0,120.0,0.0,0.0
3115,64.0,0.0,120.0,0.0,0.0
3116,55.0,0.0,120.0,0.0,0.0
3117,89.0,120.0,120.0,0.0,0.0
3118,60.0,0.0,120.0,0.0,0.0
3119,58.0,0.0,120.0,0.0,0.0
3120,88.0,0.0,120.0,0.0,0.0
3121,55.0,0.0,120.0,0.0,0.0
3122,64.0,120.0,120.0,0.0,0.0
3123,58.0,0.0,120.0,0.0,0.0
3124,89.0,0.0,120.0,0.0,0.0
3125,60.0,120.0,120.0,0.0,0.0
3126,91.0,120.0,120.0,0.0,0.0
3127,55.0,0.0,120.0,0.0,0.0
3128,64.0,0.0,120.0,0.0,0.0
3129,58.0,0.0,120.0,0.0,0.0
3130,60.0,120.0,120.0,0.0,0.0
3131,88.0,0.0,120.0,0.0,0.0
3132,48.0,120.0,120.0,0.0,0.0
3133,82.0,0.0,120.0,0.0,0.0
3134,60.0,120.0,120.0,0.0,0.0
3135,58.0,0.0,120.0,0.0,0.0
3136,88.0,0.0,120.0,0.0,0.0
3137,55.0,0.0,120.0,0.0,0.0
3138,64.0,120.0,120.0,0.0,0.0
3139,58.0,120.0,120.0,0.0,0.0
3140,60.0,0.0,120.0,0.0,0.0
3141,91.0,0.0,120.0,0.0,0.0
3142,55.0,0.0,120.0,0.0,0.0
3143,64.0,0.0,120.0,0.0,0.0
3144,94.0,120.0,120.0,0.0,0.0
3145,58.0,120.0,120.0,0.0,0.0
3146,60.0,0.0,120.0,0.0,0.0
3147,96.0,0.0,120.0,0.0,0.0
3148,94.0,0.0,120.0,0.0,0.0
3149,64.0,0.0,120.0,0.0,0.0
3150,55.0,120.0,120.0,0.0,0.0
3151,93.0,0.0,120.0,0.0,0.0
3152,58.0,120.0,120.0,0.0,0.0
3153,60.0,0.0,120.0,0.0,0.0
3154,64.0,120.0,120.0,0.0,0.0
3155,55.0,0.0,120.0,0.0,0.0
3156,91.0,0.0,120.0,0.0,0.0
3157,60.0,120.0,120.0,0.0,0.0
3158,58.0,0.0,120.0,0.0,0.0
3159,93.0,0.0,120.0,0.0,0.0
3160,64.0,0.0,120.0,0.0,0.0
3161,91.0,0.0,120.0,0.0,0.0
3162,55.0,120.0,120.0,0.0,0.0
3163,60.0,0.0,120.0,0.0,0.0
3164,89.0,120.0,120.0,0.0,0.0
3165,58.0,0.0,120.0,0.0,0.0
3166,64.0,120.0,120.0,0.0,0.0
3167,55.0,0.0,120.0,0.0,0.0
3168,88.0,0.0,120.0,0.0,0.0
3169,60.0,0.0,120.0,0.0,0.0
3170,86.0,0.0,120.0,0.0,0.0
3171,58.0,120.0,120.0,0.0,0.0
3172,55.0,120.0,120.0,0.0,0.0
3173,64.0,0.0,120.0,0.0,0.0
3174,84.0,0.0,120.0,0.0,0.0
3175,60.0,0.0,120.0,0.0,0.0
3176,82.0,120.0,120.0,0.0,0.0
3177,58.0,0.0,120.0,0.0,0.0
3178,81.0,0.0,120.0,0.0,0.0
3179,53.0,120.0,120.0,0.0,0.0
3180,84.0,120.0,120.0,0.0,0.0
3181,69.0,0.0,120.0,0.0,0.0
3182,65.0,0.0,120.0,0.0,0.0
3183,60.0,0.0,120.0,0.0,0.0
3184,72.0,120.0,120.0,0.0,0.0
3185,89.0,0.0,120.0,0.0,0.0
3186,93.0,0.0,120.0,0.0,0.0
3187,65.0,120.0,120.0,0.0,0.0
3188,69.0,0.0,120.0,0.0,0.0
3189,60.0,120.0,120.0,0.0,0.0
3190,72.0,0.0,120.0,0.0,0.0
3191,96.0,0.0,120.0,0.0,0.0
3192,98.0,0.0,120.0,0.0,0.0
3193,69.0,120.0,120.0,0.0,0.0
3194,65.0,0.0,120.0,0.0,0.0
3195,96.0,0.0,120.0,0.0,0.0
3196,60.0,0.0,120.0,0.0,0.0
3197,72.0,120.0,120.0,0.0,0.0
3198,69.0,0.0,120.0,0.0,0.0
3199,65.0,0.0,120.0,0.0,0.0
3200,94.0,120.0,120.0,0.0,0.0
3201,60.0,0.0,120.0,0.0,0.0
3202,72.0,120.0,120.0,0.0,0.0
3203,93.0,0.0,120.0,0.0,0.0
3204,94.0,120.0,120.0,0.0,0.0
3205,65.0,0.0,120.0,0.0,0.0
3206,69.0,0.0,120.0,0.0,0.0
3207,60.0,120.0,120.0,0.0,0.0
3208,72.0,0.0,120.0,0.0,0.0
3209,93.0,0.0,120.0,0.0,0.0
3210,91.0,120.0,120.0,0.0,0.0
3211,69.0,0.0,120.0,0.0,0.0
3212,65.0,0.0,120.0,0.0,0.0
3213,60.0,0.0,120.0,0.0,0.0
3214,72.0,120.0,120.0,0.0,0.0
3215,89.0,0.0,120.0,0.0,0.0
3216,91.0,120.0,120.0,0.0,0.0
3217,65.0,0.0,120.0,0.0,0.0
3218,69.0,0.0,120.0,0.0,0.0
3219,72.0,0.0,120.0,0.0,0.0
3220,60.0,120.0,120.0,0.0,0.0
3221,93.0,0.0,120.0,0.0,0.0
3222,89.0,120.0,120.0,0.0,0.0
3223,69.0,0.0,120.0,0.0,0.0
3224,65.0,0.0,120.0,0.0,0.0
3225,53.0,120.0,120.0,0.0,0.0
3226,65.0,0.0,120.0,0.0,0.0
3227,69.0,0.0,120.0,0.0,0.0
3228,84.0,120.0,120.0,0.0,0.0
3229,72.0,0.0,120.0,0.0,0.0
3230,60.0,0.0,120.0,0.0,0.0
3231,89.0,120.0,120.0,0.0,0.0
3232,69.0,0.0,120.0,0.0,0.0
3233,65.0,120.0,120.0,0.0,0.0
3234,93.0,0.0,120.0,0.0,0.0
3235,96.0,120.0,120.0,0.0,0.0
3236,72.0,0.0,240.0,0.0,0.0
3237,98.0,120.0,120.0,0.0,0.0
3238,96.0,120.0,120.0,0.0,0.0
3239,77.0,120.0,240.0,0.0,0.0
3240,94.0,0.0,120.0,0.0,0.0
3241,93.0,120.0,120.0,0.0,0.0
3242,81.0,0.0,240.0,0.0,0.0
3243,94.0,120.0,120.0,0.0,0.0
3244,96.0,120.0,120.0,0.0,0.0
3245,84.0,120.0,240.0,0.0,0.0
3246,94.0,0.0,120.0,0.0,0.0
3247,93.0,120.0,120.0,0.0,0.0
3248,94.0,0.0,120.0,0.0,0.0
3249,89.0,120.0,15.0,0.0,0.0
3250,96.0,120.0,120.0,0.0,0.0
3251,93.0,0.0,120.0,0.0,0.0
3252,89.0,240.0,15.0,0.0,0.0
3253,86.0,0.0,720.0,0.0,0.0
3254,94.0,120.0,120.0,0.0,0.0
3255,96.0,120.0,120.0,0.0,0.0
3256,94.0,120.0,120.0,0.0,0.0
3257,96.0,120.0,120.0,0.0,0.0
3258,94.0,120.0,120.0,0.0,0.0
3259,88.0,0.0,240.0,0.0,0.0
3260,84.0,240.0,240.0,0.0,0.0
3261,93.0,120.0,120.0,0.0,0.0
3262,94.0,0.0,120.0,0.0,0.0
3263,83.0,0.0,480.0,0.0,0.0
3264,86.0,0.0,480.0,0.0,0.0
3265,92.0,120.0,120.0,0.0,0.0
3266,93.0,120.0,120.0,0.0,0.0
3267,92.0,240.0,120.0,0.0,0.0
3268,88.0,0.0,480.0,0.0,0.0
3269,84.0,0.0,480.0,0.0,0.0
3270,93.0,120.0,120.0,0.0,0.0
3271,95.0,120.0,120.0,0.0,0.0
3272,93.0,240.0,120.0,0.0,0.0
3273,89.0,120.0,720.0,0.0,0.0
3274,86.0,0.0,720.0,0.0,0.0
3275,94.0,120.0,120.0,0.0,0.0
3276,96.0,120.0,120.0,0.0,0.0
3277,94.0,120.0,120.0,0.0,0.0
3278,96.0,120.0,120.0,0.0,0.0
3279,94.0,0.0,120.0,0.0,0.0
3280,84.0,240.0,240.0,0.0,0.0
3281,88.0,0.0,240.0,0.0,0.0
3282,93.0,120.0,120.0,0.0,0.0
3283,94.0,0.0,120.0,0.0,0.0
3284,83.0,240.0,480.0,0.0,0.0
3285,86.0,0.0,480.0,0.0,0.0
3286,92.0,120.0,120.0,0.0,0.0
3287,93.0,120.0,120.0,0.0,0.0
3288,92.0,0.0,120.0,0.0,0.0
3289,84.0,0.0,480.0,0.0,0.0
3290,88.0,0.0,480.0,0.0,0.0
3291,93.0,120.0,120.0,0.0,0.0
3292,95.0,120.0,120.0,0.0,0.0
3293,93.0,240.0,120.0,0.0,0.0
3294,89.0,0.0,720.0,0.0,0.0
3295,86.0,0.0,720.0,0.0,0.0
3296,94.0,120.0,120.0,0.0,0.0
3297,96.0,120.0,120.0,0.0,0.0
3298,94.0,120.0,120.0,0.0,0.0
3299,96.0,120.0,120.0,0.0,0.0
3300,94.0,120.0,120.0,0.0,0.0
3301,88.0,0.0,240.0,0.0,0.0
3302,84.0,0.0,240.0,0.0,0.0
3303,93.0,120.0,120.0,0.0,0.0
3304,95.0,240.0,120.0,0.0,0.0
3305,83.0,240.0,480.0,0.0,0.0
3306,86.0,0.0,480.0,0.0,0.0
3307,92.0,120.0,120.0,0.0,0.0
3308,93.0,120.0,120.0,0.0,0.0
3309,92.0,0.0,120.0,0.0,0.0
3310,84.0,0.0,480.0,0.0,0.0
3311,81.0,0.0,480.0,0.0,0.0
3312,89.0,120.0,120.0,0.0,0.0
3313,91.0,120.0,120.0,0.0,0.0
3314,89.0,240.0,120.0,0.0,0.0
3315,80.0,0.0,480.0,0.0,0.0
3316,83.0,240.0,480.0,0.0,0.0
3317,88.0,120.0,120.0,0.0,0.0
3318,89.0,120.0,120.0,0.0,0.0
3319,88.0,0.0,120.0,0.0,0.0
3320,78.0,0.0,480.0,0.0,0.0
3321,87.0,120.0,120.0,0.0,0.0
3322,88.0,120.0,120.0,0.0,0.0
3323,87.0,0.0,120.0,0.0,0.0
3324,77.0,240.0,480.0,0.0,0.0
3325,81.0,240.0,15.0,0.0,0.0
3326,86.0,120.0,120.0,0.0,0.0
3327,88.0,120.0,120.0,0.0,0.0
3328,86.0,0.0,120.0,0.0,0.0
3329,81.0,0.0,480.0,0.0,0.0
3330,76.0,240.0,480.0,0.0,0.0
3331,84.0,120.0,120.0,0.0,0.0
3332,86.0,120.0,120.0,0.0,0.0
3333,84.0,0.0,120.0,0.0,0.0
3334,75.0,0.0,960.0,0.0,0.0
3335,84.0,120.0,120.0,0.0,0.0
3336,86.0,120.0,120.0,0.0,0.0
3337,84.0,240.0,120.0,0.0,0.0
3338,78.0,0.0,480.0,0.0,0.0
3339,83.0,120.0,120.0,0.0,0.0
3340,84.0,120.0,120.0,0.0,0.0
3341,83.0,240.0,120.0,0.0,0.0
3342,72.0,240.0,480.0,0.0,0.0
3343,64.0,0.0,960.0,0.0,0.0
3344,76.0,240.0,960.0,0.0,0.0
3345,81.0,120.0,120.0,0.0,0.0
3346,83.0,120.0,120.0,0.0,0.0
3347,81.0,0.0,120.0,0.0,0.0
3348,71.0,0.0,480.0,0.0,0.0
3349,80.0,120.0,120.0,0.0,0.0
3350,81.0,120.0,120.0,0.0,0.0
3351,80.0,0.0,120.0,0.0,0.0
3352,50.0,120.0,720.0,0.0,0.0
3353,58.0,0.0,720.0,0.0,0.0
3354,53.0,0.0,720.0,0.0,0.0
3355,65.0,120.0,120.0,0.0,0.0
3356,77.0,120.0,120.0,0.0,0.0
3357,65.0,120.0,120.0,0.0,0.0
3358,77.0,120.0,120.0,0.0,0.0
3359,65.0,0.0,120.0,0.0,0.0
3360,77.0,120.0,120.0,0.0,0.0
3361,48.0,0.0,240.0,0.0,0.0
3362,52.0,0.0,240.0,0.0,0.0
3363,57.0,0.0,240.0,0.0,0.0
3364,65.0,240.0,120.0,0.0,0.0
3365,56.0,0.0,480.0,0.0,0.0
3366,50.0,0.0,480.0,0.0,0.0
3367,47.0,120.0,480.0,0.0,0.0
3368,65.0,120.0,120.0,0.0,0.0
3369,77.0,120.0,120.0,0.0,0.0
3370,76.0,0.0,120.0,0.0,0.0
3371,52.0,0.0,480.0,0.0,0.0
3372,48.0,240.0,480.0,0.0,0.0
3373,57.0,0.0,480.0,0.0,0.0
3374,74.0,120.0,120.0,0.0,0.0
3375,72.0,120.0,120.0,0.0,0.0
3376,71.0,120.0,120.0,0.0,0.0
3377,69.0,0.0,120.0,0.0,0.0
3378,58.0,0.0,720.0,0.0,0.0
3379,50.0,0.0,720.0,0.0,0.0
3380,53.0,0.0,720.0,0.0,0.0
3381,77.0,120.0,120.0,0.0,0.0
3382,89.0,120.0,120.0,0.0,0.0
3383,77.0,120.0,120.0,0.0,0.0
3384,89.0,120.0,120.0,0.0,0.0
3385,77.0,120.0,120.0,0.0,0.0
3386,52.0,0.0,240.0,0.0,0.0
3387,57.0,240.0,240.0,0.0,0.0
3388,48.0,0.0,240.0,0.0,0.0
3389,89.0,120.0,120.0,0.0,0.0
3390,77.0,0.0,120.0,0.0,0.0
3391,47.0,120.0,480.0,0.0,0.0
3392,50.0,0.0,480.0,0.0,0.0
3393,56.0,0.0,480.0,0.0,0.0
3394,77.0,120.0,120.0,0.0,0.0
3395,89.0,120.0,120.0,0.0,0.0
3396,88.0,0.0,120.0,0.0,0.0
3397,86.0,120.0,120.0,0.0,0.0
3398,57.0,0.0,480.0,0.0,0.0
3399,52.0,0.0,480.0,0.0,0.0
3400,48.0,240.0,480.0,0.0,0.0
3401,84.0,120.0,120.0,0.0,0.0
3402,83.0,120.0,120.0,0.0,0.0
3403,81.0,0.0,120.0,0.0,0.0
3404,50.0,120.0,720.0,0.0,0.0
3405,58.0,0.0,720.0,0.0,0.0
3406,53.0,0.0,720.0,0.0,0.0
3407,65.0,120.0,120.0,0.0,0.0
3408,77.0,120.0,120.0,0.0,0.0
3409,65.0,120.0,120.0,0.0,0.0
3410,77.0,120.0,120.0,0.0,0.0
3411,65.0,0.0,120.0,0.0,0.0
3412,77.0,120.0,120.0,0.0,0.0
3413,57.0,240.0,240.0,0.0,0.0
3414,48.0,0.0,240.0,0.0,0.0
3415,52.0,0.0,240.0,0.0,0.0
3416,65.0,0.0,120.0,0.0,0.0
3417,47.0,0.0,480.0,0.0,0.0
3418,56.0,0.0,480.0,0.0,0.0
3419,50.0,240.0,480.0,0.0,0.0
3420,77.0,120.0,120.0,0.0,0.0
3421,65.0,120.0,120.0,0.0,0.0
3422,77.0,0.0,120.0,0.0,0.0
3423,53.0,0.0,480.0,0.0,0.0
3424,45.0,240.0,480.0,0.0,0.0
3425,48.0,0.0,480.0,0.0,0.0
3426,89.0,120.0,120.0,0.0,0.0
3427,77.0,120.0,120.0,0.0,0.0
3428,89.0,0.0,120.0,0.0,0.0
3429,47.0,0.0,480.0,0.0,0.0
3430,52.0,0.0,480.0,0.0,0.0
3431,44.0,240.0,480.0,0.0,0.0
3432,88.0,120.0,120.0,0.0,0.0
3433,76.0,120.0,120.0,0.0,0.0
3434,88.0,0.0,120.0,0.0,0.0
3435,48.0,0.0,480.0,0.0,0.0
3436,42.0,240.0,480.0,0.0,0.0
3437,45.0,0.0,480.0,0.0,0.0
3438,51.0,0.0,480.0,0.0,0.0
3439,87.0,120.0,120.0,0.0,0.0
3440,75.0,120.0,120.0,0.0,0.0
3441,87.0,0.0,120.0,0.0,0.0
3442,50.0,0.0,480.0,0.0,0.0
3443,47.0,0.0,480.0,0.0,0.0
3444,44.0,0.0,480.0,0.0,0.0
3445,86.0,120.0,120.0,0.0,0.0
3446,74.0,120.0,120.0,0.0,0.0
3447,86.0,240.0,120.0,0.0,0.0
3448,45.0,0.0,480.0,0.0,0.0
3449,48.0,0.0,480.0,0.0,0.0
3450,84.0,120.0,120.0,0.0,0.0
3451,72.0,120.0,120.0,0.0,0.0
3452,76.0,0.0,120.0,0.0,0.0
3453,84.0,240.0,120.0,0.0,0.0
3454,48.0,0.0,480.0,0.0,0.0
3455,39.0,0.0,960.0,0.0,0.0
3456,84.0,120.0,120.0,0.0,0.0
3457,72.0,0.0,120.0,0.0,0.0
3458,78.0,120.0,120.0,0.0,0.0
3459,84.0,240.0,120.0,0.0,0.0
3460,46.0,0.0,480.0,0.0,0.0
3461,83.0,120.0,120.0,0.0,0.0
3462,78.0,120.0,120.0,0.0,0.0
3463,71.0,0.0,120.0,0.0,0.0
3464,83.0,240.0,120.0,0.0,0.0
3465,45.0,0.0,480.0,0.0,0.0
3466,81.0,120.0,120.0,0.0,0.0
3467,72.0,120.0,120.0,0.0,0.0
3468,69.0,0.0,120.0,0.0,0.0
3469,81.0,240.0,120.0,0.0,0.0
3470,44.0,120.0,480.0,0.0,0.0
3471,80.0,120.0,120.0,0.0,0.0
3472,71.0,120.0,120.0,0.0,0.0
3473,68.0,0.0,120.0,0.0,0.0
3474,80.0,0.0,120.0,0.0,0.0
3475,69.0,0.0,120.0,0.0,0.0
3476,45.0,120.0,240.0,0.0,0.0
3477,40.0,0.0,15.0,0.0,0.0
3478,33.0,0.0,240.0,0.0,0.0
3479,36.0,0.0,240.0,0.0,0.0
3480,72.0,120.0,120.0,0.0,0.0
3481,81.0,0.0,120.0,0.0,0.0
3482,64.0,0.0,120.0,0.0,0.0
3483,69.0,120.0,120.0,0.0,0.0
3484,72.0,120.0,120.0,0.0,0.0
3485,76.0,120.0,120.0,0.0,0.0
3486,52.0,0.0,120.0,0.0,0.0
3487,77.0,120.0,120.0,0.0,0.0
3488,57.0,120.0,120.0,0.0,0.0
3489,76.0,0.0,120.0,0.0,0.0
3490,74.0,0.0,120.0,0.0,0.0
3491,60.0,120.0,120.0,0.0,0.0
3492,72.0,120.0,120.0,0.0,0.0
3493,64.0,0.0,120.0,0.0,0.0
3494,65.0,120.0,120.0,0.0,0.0
3495,74.0,0.0,120.0,0.0,0.0
3496,72.0,0.0,120.0,0.0,0.0
3497,64.0,120.0,120.0,0.0,0.0
3498,62.0,0.0,120.0,0.0,0.0
3499,71.0,120.0,120.0,0.0,0.0
3500,60.0,120.0,120.0,0.0,0.0
3501,69.0,0.0,120.0,0.0,0.0
3502,67.0,0.0,120.0,0.0,0.0
3503,59.0,120.0,120.0,0.0,0.0
3504,65.0,120.0,120.0,0.0,0.0
3505,57.0,0.0,120.0,0.0,0.0
3506,64.0,0.0,120.0,0.0,0.0
3507,55.0,120.0,120.0,0.0,0.0
3508,53.0,0.0,120.0,0.0,0.0
3509,62.0,120.0,120.0,0.0,0.0
3510,52.0,0.0,120.0,0.0,0.0
3511,60.0,120.0,120.0,0.0,0.0
3512,50.0,0.0,120.0,0.0,0.0
3513,58.0,120.0,120.0,0.0,0.0
3514,57.0,120.0,120.0,0.0,0.0
3515,48.0,0.0,120.0,0.0,0.0
3516,47.0,120.0,120.0,0.0,0.0
3517,48.0,120.0,120.0,0.0,0.0
3518,64.0,0.0,180.0,0.0,0.0
3519,56.0,0.0,15.0,0.0,0.0
3520,52.0,60.0,180.0,0.0,0.0
3521,58.0,0.0,180.0,0.0,0.0
3522,50.0,60.0,120.0,0.0,0.0
3523,48.0,120.0,120.0,0.0,0.0
3524,52.0,0.0,180.0,0.0,0.0
3525,56.0,0.0,180.0,0.0,0.0
3526,62.0,60.0,180.0,0.0,0.0
3527,64.0,0.0,180.0,0.0,0.0
3528,47.0,60.0,120.0,0.0,0.0
3529,45.0,120.0,120.0,0.0,0.0
3530,52.0,0.0,180.0,0.0,0.0
3531,56.0,60.0,180.0,0.0,0.0
3532,62.0,0.0,180.0,0.0,0.0
3533,44.0,60.0,120.0,0.0,0.0
3534,64.0,0.0,180.0,0.0,0.0
3535,42.0,120.0,120.0,0.0,0.0
3536,52.0,0.0,180.0,0.0,0.0
3537,62.0,0.0,180.0,0.0,0.0
3538,64.0,60.0,180.0,0.0,0.0
3539,40.0,60.0,120.0,0.0,0.0
3540,56.0,0.0,180.0,0.0,0.0
3541,38.0,120.0,120.0,0.0,0.0
3542,52.0,60.0,180.0,0.0,0.0
3543,56.0,0.0,180.0,0.0,0.0
3544,62.0,0.0,180.0,0.0,0.0
3545,64.0,0.0,180.0,0.0,0.0
3546,36.0,60.0,120.0,0.0,0.0
3547,35.0,120.0,120.0,0.0,0.0
3548,33.0,0.0,240.0,0.0,0.0
3549,36.0,0.0,240.0,0.0,0.0
3550,45.0,0.0,240.0,0.0,0.0
3551,40.0,0.0,240.0,0.0,0.0
3552,60.0,120.0,120.0,0.0,0.0
3553,57.0,0.0,120.0,0.0,0.0
3554,64.0,0.0,120.0,0.0,0.0
3555,52.0,0.0,120.0,0.0,0.0
3556,76.0,120.0,120.0,0.0,0.0
3557,81.0,120.0,120.0,0.0,0.0
3558,84.0,120.0,120.0,0.0,0.0
3559,88.0,120.0,120.0,0.0,0.0
3560,89.0,120.0,120.0,0.0,0.0
3561,64.0,0.0,120.0,0.0,0.0
3562,88.0,0.0,120.0,0.0,0.0
3563,69.0,120.0,120.0,0.0,0.0
3564,86.0,120.0,120.0,0.0,0.0
3565,72.0,0.0,120.0,0.0,0.0
3566,76.0,0.0,120.0,0.0,0.0
3567,84.0,120.0,120.0,0.0,0.0
3568,86.0,0.0,120.0,0.0,0.0
3569,77.0,120.0,120.0,0.0,0.0
3570,84.0,120.0,120.0,0.0,0.0
3571,76.0,0.0,120.0,0.0,0.0
3572,74.0,0.0,120.0,0.0,0.0
3573,83.0,120.0,120.0,0.0,0.0
3574,72.0,0.0,120.0,0.0,0.0
3575,81.0,120.0,120.0,0.0,0.0
3576,71.0,0.0,120.0,0.0,0.0
3577,79.0,120.0,120.0,0.0,0.0
3578,77.0,120.0,120.0,0.0,0.0
3579,69.0,0.0,120.0,0.0,0.0
3580,67.0,120.0,120.0,0.0,0.0
3581,76.0,0.0,120.0,0.0,0.0
3582,74.0,0.0,120.0,0.0,0.0
3583,65.0,120.0,120.0,0.0,0.0
3584,72.0,120.0,120.0,0.0,0.0
3585,64.0,0.0,120.0,0.0,0.0
3586,62.0,120.0,120.0,0.0,0.0
3587,71.0,0.0,120.0,0.0,0.0
3588,69.0,120.0,120.0,0.0,0.0
3589,60.0,0.0,120.0,0.0,0.0
3590,59.0,120.0,120.0,0.0,0.0
3591,68.0,120.0,240.0,0.0,0.0
3592,60.0,0.0,120.0,0.0,0.0
3593,62.0,60.0,120.0,0.0,0.0
3594,76.0,0.0,180.0,0.0,0.0
3595,71.0,60.0,180.0,0.0,0.0
3596,68.0,0.0,180.0,0.0,0.0
3597,64.0,0.0,180.0,0.0,0.0
3598,60.0,120.0,120.0,0.0,0.0
3599,68.0,0.0,180.0,0.0,0.0
3600,74.0,60.0,180.0,0.0,0.0
3601,76.0,0.0,180.0,0.0,0.0
3602,59.0,60.0,120.0,0.0,0.0
3603,64.0,0.0,180.0,0.0,0.0
3604,57.0,120.0,120.0,0.0,0.0
3605,56.0,60.0,120.0,0.0,0.0
3606,76.0,0.0,180.0,0.0,0.0
3607,74.0,60.0,180.0,0.0,0.0
3608,68.0,0.0,180.0,0.0,0.0
3609,64.0,0.0,180.0,0.0,0.0
3610,54.0,120.0,120.0,0.0,0.0
3611,52.0,60.0,120.0,0.0,0.0
3612,76.0,0.0,180.0,0.0,0.0
3613,74.0,60.0,180.0,0.0,0.0
3614,68.0,0.0,180.0,0.0,0.0
3615,64.0,0.0,180.0,0.0,0.0
3616,50.0,120.0,120.0,0.0,0.0
3617,48.0,60.0,120.0,0.0,0.0
3618,74.0,0.0,180.0,0.0,0.0
3619,68.0,60.0,180.0,0.0,0.0
3620,76.0,0.0,180.0,0.0,0.0
3621,64.0,0.0,180.0,0.0,0.0
3622,47.0,120.0,120.0,0.0,0.0
3623,64.0,0.0,240.0,0.0,0.0
3624,69.0,0.0,240.0,0.0,0.0
3625,72.0,0.0,240.0,0.0,0.0
3626,76.0,0.0,240.0,0.0,0.0
3627,45.0,120.0,120.0,0.0,0.0
3628,47.0,120.0,120.0,0.0,0.0
3629,48.0,120.0,120.0,0.0,0.0
3630,50.0,120.0,120.0,0.0,0.0
3631,52.0,120.0,120.0,0.0,0.0
3632,54.0,120.0,120.0,0.0,0.0
3633,88.0,0.0,180.0,0.0,0.0
3634,84.0,0.0,180.0,0.0,0.0
3635,81.0,0.0,180.0,0.0,0.0
3636,76.0,60.0,180.0,0.0,0.0
3637,56.0,60.0,120.0,0.0,0.0
3638,57.0,120.0,120.0,0.0,0.0
3639,88.0,0.0,180.0,0.0,0.0
3640,86.0,60.0,180.0,0.0,0.0
3641,80.0,0.0,180.0,0.0,0.0
3642,76.0,0.0,180.0,0.0,0.0
3643,59.0,60.0,120.0,0.0,0.0
3644,57.0,120.0,120.0,0.0,0.0
3645,56.0,60.0,120.0,0.0,0.0
3646,86.0,0.0,180.0,0.0,0.0
3647,76.0,0.0,180.0,0.0,0.0
3648,88.0,0.0,180.0,0.0,0.0
3649,80.0,60.0,180.0,0.0,0.0
3650,54.0,120.0,120.0,0.0,0.0
3651,86.0,60.0,180.0,0.0,0.0
3652,80.0,0.0,180.0,0.0,0.0
3653,52.0,60.0,120.0,0.0,0.0
3654,76.0,0.0,180.0,0.0,0.0
3655,88.0,0.0,180.0,0.0,0.0
3656,50.0,120.0,120.0,0.0,0.0
3657,80.0,0.0,180.0,0.0,0.0
3658,48.0,60.0,120.0,0.0,0.0
3659,76.0,60.0,180.0,0.0,0.0
3660,88.0,0.0,180.0,0.0,0.0
3661,86.0,0.0,180.0,0.0,0.0
3662,47.0,120.0,120.0,0.0,0.0
3663,84.0,0.0,180.0,0.0,0.0
3664,81.0,0.0,180.0,0.0,0.0
3665,76.0,0.0,180.0,0.0,0.0
3666,45.0,60.0,120.0,0.0,0.0
3667,88.0,60.0,180.0,0.0,0.0
3668,47.0,120.0,120.0,0.0,0.0
3669,48.0,120.0,120.0,0.0,0.0
3670,50.0,120.0,120.0,0.0,0.0
3671,52.0,120.0,120.0,0.0,0.0
3672,54.0,120.0,120.0,0.0,0.0
3673,76.0,60.0,180.0,0.0,0.0
3674,72.0,0.0,180.0,0.0,0.0
3675,69.0,0.0,180.0,0.0,0.0
3676,64.0,0.0,180.0,0.0,0.0
3677,56.0,60.0,120.0,0.0,0.0
3678,57.0,120.0,120.0,0.0,0.0
3679,68.0,0.0,180.0,0.0,0.0
3680,74.0,0.0,180.0,0.0,0.0
3681,76.0,60.0,180.0,0.0,0.0
3682,59.0,60.0,120.0,0.0,0.0
3683,64.0,0.0,180.0,0.0,0.0
3684,57.0,120.0,120.0,0.0,0.0
3685,56.0,60.0,120.0,0.0,0.0
3686,74.0,0.0,180.0,0.0,0.0
3687,68.0,0.0,180.0,0.0,0.0
3688,64.0,0.0,180.0,0.0,0.0
3689,76.0,60.0,180.0,0.0,0.0
3690,54.0,120.0,120.0,0.0,0.0
3691,74.0,60.0,180.0,0.0,0.0
3692,68.0,0.0,180.0,0.0,0.0
3693,76.0,0.0,180.0,0.0,0.0
3694,64.0,0.0,180.0,0.0,0.0
3695,52.0,60.0,120.0,0.0,0.0
3696,50.0,120.0,120.0,0.0,0.0
3697,48.0,60.0,120.0,0.0,0.0
3698,74.0,60.0,180.0,0.0,0.0
3699,68.0,0.0,180.0,0.0,0.0
3700,64.0,0.0,180.0,0.0,0.0
3701,76.0,0.0,180.0,0.0,0.0
3702,47.0,120.0,120.0,0.0,0.0
3703,76.0,60.0,180.0,0.0,0.0
3704,72.0,0.0,180.0,0.0,0.0
3705,69.0,0.0,180.0,0.0,0.0
3706,64.0,0.0,180.0,0.0,0.0
3707,45.0,60.0,120.0,0.0,0.0
3708,44.0,120.0,120.0,0.0,0.0
3709,42.0,60.0,120.0,0.0,0.0
3710,76.0,0.0,180.0,0.0,0.0
3711,81.0,60.0,180.0,0.0,0.0
3712,84.0,0.0,180.0,0.0,0.0
3713,88.0,0.0,180.0,0.0,0.0
3714,40.0,120.0,120.0,0.0,0.0
3715,88.0,0.0,180.0,0.0,0.0
3716,84.0,60.0,180.0,0.0,0.0
3717,76.0,0.0,180.0,0.0,0.0
3718,38.0,60.0,120.0,0.0,0.0
3719,81.0,0.0,180.0,0.0,0.0
3720,36.0,120.0,120.0,0.0,0.0
3721,88.0,60.0,180.0,0.0,0.0
3722,76.0,0.0,180.0,0.0,0.0
3723,35.0,60.0,120.0,0.0,0.0
3724,84.0,0.0,180.0,0.0,0.0
3725,81.0,0.0,180.0,0.0,0.0
3726,33.0,120.0,120.0,0.0,0.0
3727,86.0,0.0,180.0,0.0,0.0
3728,88.0,60.0,180.0,0.0,0.0
3729,80.0,0.0,180.0,0.0,0.0
3730,76.0,0.0,180.0,0.0,0.0
3731,35.0,60.0,120.0,0.0,0.0
3732,36.0,120.0,120.0,0.0,0.0
3733,80.0,0.0,180.0,0.0,0.0
3734,38.0,60.0,120.0,0.0,0.0
3735,88.0,0.0,180.0,0.0,0.0
3736,76.0,0.0,180.0,0.0,0.0
3737,86.0,60.0,180.0,0.0,0.0
3738,40.0,120.0,120.0,0.0,0.0
3739,88.0,60.0,180.0,0.0,0.0
3740,86.0,0.0,180.0,0.0,0.0
3741,80.0,0.0,180.0,0.0,0.0
3742,76.0,0.0,180.0,0.0,0.0
3743,42.0,60.0,120.0,0.0,0.0
3744,44.0,120.0,120.0,0.0,0.0
3745,88.0,0.0,180.0,0.0,0.0
3746,86.0,60.0,180.0,0.0,0.0
3747,80.0,0.0,180.0,0.0,0.0
3748,76.0,0.0,180.0,0.0,0.0
3749,45.0,60.0,120.0,0.0,0.0
3750,47.0,120.0,120.0,0.0,0.0
3751,76.0,0.0,120.0,0.0,0.0
3752,34.0,0.0,120.0,0.0,0.0
3753,46.0,0.0,120.0,0.0,0.0
3754,79.0,0.0,120.0,0.0,0.0
3755,85.0,120.0,120.0,0.0,0.0
3756,88.0,0.0,120.0,0.0,0.0
3757,61.0,120.0,120.0,0.0,0.0
3758,64.0,120.0,120.0,0.0,0.0
3759,67.0,120.0,120.0,0.0,0.0
3760,70.0,120.0,120.0,0.0,0.0
3761,73.0,120.0,120.0,0.0,0.0
3762,76.0,120.0,120.0,0.0,0.0
3763,79.0,120.0,120.0,0.0,0.0
3764,82.0,120.0,120.0,0.0,0.0
3765,85.0,120.0,120.0,0.0,0.0
3766,88.0,120.0,120.0,0.0,0.0
3767,91.0,120.0,120.0,0.0,0.0
3768,94.0,120.0,120.0,0.0,0.0
3769,91.0,120.0,120.0,0.0,0.0
3770,88.0,120.0,120.0,0.0,0.0
3771,85.0,120.0,120.0,0.0,0.0
3772,82.0,120.0,120.0,0.0,0.0
3773,79.0,120.0,120.0,0.0,0.0
3774,76.0,120.0,120.0,0.0,0.0
3775,73.0,120.0,120.0,0.0,0.0
3776,70.0,120.0,120.0,0.0,0.0
3777,67.0,120.0,120.0,0.0,0.0
3778,64.0,120.0,120.0,0.0,0.0
3779,61.0,120.0,120.0,0.0,0.0
3780,58.0,120.0,120.0,0.0,0.0
3781,55.0,120.0,120.0,0.0,0.0
3782,52.0,120.0,120.0,0.0,0.0
3783,49.0,120.0,120.0,0.0,0.0
3784,46.0,120.0,120.0,0.0,0.0
3785,43.0,120.0,120.0,0.0,0.0
3786,40.0,120.0,120.0,0.0,0.0
3787,37.0,120.0,120.0,0.0,0.0
3788,34.0,120.0,120.0,0.0,0.0
3789,43.0,120.0,120.0,0.0,0.0
3790,40.0,120.0,120.0,0.0,0.0
3791,37.0,120.0,120.0,0.0,0.0
3792,34.0,120.0,120.0,0.0,0.0
3793,43.0,120.0,120.0,0.0,0.0
3794,40.0,120.0,120.0,0.0,0.0
3795,37.0,120.0,120.0,0.0,0.0
3796,34.0,120.0,120.0,0.0,0.0
3797,43.0,120.0,120.0,0.0,0.0
3798,40.0,120.0,120.0,0.0,0.0
3799,37.0,120.0,120.0,0.0,0.0
3800,34.0,120.0,120.0,0.0,0.0
3801,43.0,120.0,120.0,0.0,0.0
3802,40.0,120.0,120.0,0.0,0.0
3803,37.0,240.0,120.0,0.0,0.0
3804,33.0,0.0,480.0,0.0,0.0
3805,61.0,120.0,120.0,0.0,0.0
3806,64.0,120.0,120.0,0.0,0.0
3807,67.0,120.0,120.0,0.0,0.0
3808,70.0,120.0,120.0,0.0,0.0
3809,72.0,120.0,120.0,0.0,0.0
3810,70.0,120.0,120.0,0.0,0.0
3811,69.0,120.0,120.0,0.0,0.0
3812,67.0,120.0,120.0,0.0,0.0
3813,69.0,120.0,120.0,0.0,0.0
3814,67.0,120.0,120.0,0.0,0.0
3815,65.0,120.0,120.0,0.0,0.0
3816,64.0,120.0,120.0,0.0,0.0
3817,65.0,120.0,120.0,0.0,0.0
3818,67.0,120.0,120.0,0.0,0.0
3819,64.0,0.0,120.0,0.0,0.0
3820,45.0,240.0,120.0,0.0,0.0
3821,33.0,120.0,480.0,0.0,0.0
3822,61.0,120.0,120.0,0.0,0.0
3823,64.0,120.0,120.0,0.0,0.0
3824,67.0,0.0,120.0,0.0,0.0
3825,70.0,120.0,120.0,0.0,0.0
3826,72.0,120.0,120.0,0.0,0.0
3827,70.0,120.0,120.0,0.0,0.0
3828,69.0,120.0,120.0,0.0,0.0
3829,67.0,120.0,120.0,0.0,0.0
3830,69.0,120.0,120.0,0.0,0.0
3831,67.0,120.0,120.0,0.0,0.0
3832,65.0,120.0,120.0,0.0,0.0
3833,64.0,120.0,120.0,0.0,0.0
3834,65.0,120.0,120.0,0.0,0.0
3835,67.0,120.0,120.0,0.0,0.0
3836,64.0,0.0,120.0,0.0,0.0
3837,45.0,240.0,120.0,0.0,0.0
3838,33.0,0.0,480.0,0.0,0.0
3839,61.0,120.0,120.0,0.0,0.0
3840,64.0,120.0,120.0,0.0,0.0
3841,67.0,120.0,120.0,0.0,0.0
3842,70.0,120.0,120.0,0.0,0.0
3843,72.0,120.0,120.0,0.0,0.0
3844,61.0,120.0,120.0,0.0,0.0
3845,70.0,0.0,120.0,0.0,0.0
3846,69.0,120.0,120.0,0.0,0.0
3847,62.0,0.0,120.0,0.0,0.0
3848,67.0,0.0,240.0,0.0,0.0
3849,64.0,120.0,120.0,0.0,0.0
3850,65.0,120.0,120.0,0.0,0.0
3851,64.0,0.0,120.0,0.0,0.0
3852,67.0,120.0,120.0,0.0,0.0
3853,62.0,120.0,120.0,0.0,0.0
3854,69.0,0.0,120.0,0.0,0.0
3855,61.0,0.0,240.0,0.0,0.0
3856,70.0,120.0,120.0,0.0,0.0
3857,72.0,120.0,120.0,0.0,0.0
3858,70.0,120.0,120.0,0.0,0.0
3859,61.0,0.0,120.0,0.0,0.0
3860,62.0,0.0,120.0,0.0,0.0
3861,69.0,120.0,120.0,0.0,0.0
3862,64.0,120.0,120.0,0.0,0.0
3863,67.0,0.0,240.0,0.0,0.0
3864,65.0,120.0,120.0,0.0,0.0
3865,64.0,120.0,120.0,0.0,0.0
3866,67.0,0.0,120.0,0.0,0.0
3867,62.0,120.0,120.0,0.0,0.0
3868,69.0,0.0,120.0,0.0,0.0
3869,70.0,120.0,120.0,0.0,0.0
3870,72.0,0.0,120.0,0.0,0.0
3871,70.0,0.0,120.0,0.0,0.0
3872,61.0,120.0,15.0,0.0,0.0
3873,62.0,0.0,120.0,0.0,0.0
3874,69.0,120.0,120.0,0.0,0.0
3875,64.0,120.0,120.0,0.0,0.0
3876,67.0,0.0,240.0,0.0,0.0
3877,65.0,120.0,120.0,0.0,0.0
3878,70.0,0.0,240.0,0.0,0.0
3879,82.0,120.0,240.0,0.0,0.0
3880,64.0,120.0,120.0,0.0,0.0
3881,62.0,0.0,120.0,0.0,0.0
3882,69.0,0.0,240.0,0.0,0.0
3883,81.0,0.0,240.0,0.0,0.0
3884,61.0,120.0,120.0,0.0,0.0
3885,58.0,120.0,120.0,0.0,0.0
3886,73.0,0.0,240.0,0.0,0.0
3887,85.0,0.0,240.0,0.0,0.0
3888,57.0,120.0,120.0,0.0,0.0
3889,55.0,120.0,120.0,0.0,0.0
3890,86.0,0.0,120.0,0.0,0.0
3891,74.0,120.0,120.0,0.0,0.0
3892,53.0,0.0,1920.0,0.0,0.0
3893,69.0,0.0,120.0,0.0,0.0
3894,57.0,120.0,120.0,0.0,0.0
3895,74.0,120.0,120.0,0.0,0.0
3896,62.0,0.0,120.0,0.0,0.0
3897,77.0,0.0,120.0,0.0,0.0
3898,57.0,120.0,120.0,0.0,0.0
3899,62.0,0.0,120.0,0.0,0.0
3900,81.0,120.0,120.0,0.0,0.0
3901,57.0,120.0,120.0,0.0,0.0
3902,82.0,0.0,120.0,0.0,0.0
3903,62.0,0.0,120.0,0.0,0.0
3904,81.0,120.0,120.0,0.0,0.0
3905,57.0,120.0,120.0,0.0,0.0
3906,79.0,0.0,120.0,0.0,0.0
3907,62.0,120.0,120.0,0.0,0.0
3908,77.0,0.0,120.0,0.0,0.0
3909,79.0,120.0,120.0,0.0,0.0
3910,57.0,0.0,120.0,0.0,0.0
3911,62.0,0.0,120.0,0.0,0.0
3912,77.0,120.0,120.0,0.0,0.0
3913,57.0,0.0,120.0,0.0,0.0
3914,76.0,120.0,120.0,0.0,0.0
3915,62.0,0.0,120.0,0.0,0.0
3916,74.0,120.0,120.0,0.0,0.0
3917,76.0,120.0,120.0,0.0,0.0
3918,57.0,0.0,120.0,0.0,0.0
3919,62.0,120.0,120.0,0.0,0.0
3920,77.0,0.0,120.0,0.0,0.0
3921,74.0,0.0,120.0,0.0,0.0
3922,57.0,240.0,120.0,0.0,0.0
3923,53.0,0.0,1920.0,0.0,0.0
3924,57.0,120.0,120.0,0.0,0.0
3925,69.0,0.0,120.0,0.0,0.0
3926,74.0,0.0,120.0,0.0,0.0
3927,62.0,120.0,120.0,0.0,0.0
3928,77.0,0.0,120.0,0.0,0.0
3929,57.0,120.0,120.0,0.0,0.0
3930,81.0,0.0,120.0,0.0,0.0
3931,62.0,120.0,120.0,0.0,0.0
3932,57.0,0.0,120.0,0.0,0.0
3933,82.0,120.0,120.0,0.0,0.0
3934,62.0,120.0,120.0,0.0,0.0
3935,81.0,0.0,120.0,0.0,0.0
3936,79.0,0.0,120.0,0.0,0.0
3937,57.0,120.0,120.0,0.0,0.0
3938,62.0,0.0,120.0,0.0,0.0
3939,77.0,120.0,120.0,0.0,0.0
3940,57.0,120.0,120.0,0.0,0.0
3941,79.0,0.0,120.0,0.0,0.0
3942,77.0,0.0,120.0,0.0,0.0
3943,62.0,120.0,120.0,0.0,0.0
3944,57.0,120.0,120.0,0.0,0.0
3945,76.0,0.0,120.0,0.0,0.0
3946,74.0,120.0,120.0,0.0,0.0
3947,62.0,0.0,120.0,0.0,0.0
3948,57.0,0.0,120.0,0.0,0.0
3949,76.0,120.0,120.0,0.0,0.0
3950,62.0,120.0,120.0,0.0,0.0
3951,77.0,0.0,120.0,0.0,0.0
3952,74.0,240.0,120.0,0.0,0.0
3953,57.0,0.0,120.0,0.0,0.0
3954,55.0,120.0,1920.0,0.0,0.0
3955,70.0,0.0,120.0,0.0,0.0
3956,58.0,120.0,120.0,0.0,0.0
3957,63.0,0.0,120.0,0.0,0.0
3958,75.0,120.0,120.0,0.0,0.0
3959,58.0,120.0,120.0,0.0,0.0
3960,79.0,0.0,120.0,0.0,0.0
3961,82.0,120.0,120.0,0.0,0.0
3962,63.0,0.0,120.0,0.0,0.0
3963,58.0,0.0,120.0,0.0,0.0
3964,84.0,120.0,120.0,0.0,0.0
3965,63.0,0.0,120.0,0.0,0.0
3966,82.0,120.0,120.0,0.0,0.0
3967,81.0,120.0,120.0,0.0,0.0
3968,58.0,0.0,120.0,0.0,0.0
3969,63.0,120.0,120.0,0.0,0.0
3970,79.0,0.0,120.0,0.0,0.0
3971,81.0,120.0,120.0,0.0,0.0
3972,58.0,0.0,120.0,0.0,0.0
3973,63.0,120.0,120.0,0.0,0.0
3974,79.0,0.0,120.0,0.0,0.0
3975,77.0,0.0,120.0,0.0,0.0
3976,58.0,120.0,120.0,0.0,0.0
3977,63.0,0.0,120.0,0.0,0.0
3978,75.0,120.0,120.0,0.0,0.0
3979,77.0,120.0,120.0,0.0,0.0
3980,58.0,0.0,120.0,0.0,0.0
3981,63.0,120.0,120.0,0.0,0.0
3982,79.0,0.0,120.0,0.0,0.0
3983,75.0,0.0,120.0,0.0,0.0
3984,58.0,0.0,120.0,0.0,0.0
3985,74.0,120.0,120.0,0.0,0.0
3986,57.0,120.0,960.0,0.0,0.0
3987,76.0,0.0,120.0,0.0,0.0
3988,62.0,120.0,120.0,0.0,0.0
3989,65.0,120.0,120.0,0.0,0.0
3990,74.0,0.0,120.0,0.0,0.0
3991,73.0,120.0,120.0,0.0,0.0
3992,62.0,0.0,120.0,0.0,0.0
3993,65.0,120.0,120.0,0.0,0.0
3994,74.0,0.0,120.0,0.0,0.0
3995,76.0,120.0,120.0,0.0,0.0
3996,62.0,0.0,120.0,0.0,0.0
3997,65.0,0.0,120.0,0.0,0.0
3998,77.0,120.0,120.0,0.0,0.0
3999,62.0,0.0,120.0,0.0,0.0
4000,74.0,0.0,120.0,0.0,0.0
4001,55.0,0.0,960.0,0.0,0.0
4002,73.0,120.0,120.0,0.0,0.0
4003,74.0,0.0,120.0,0.0,0.0
4004,57.0,120.0,120.0,0.0,0.0
4005,73.0,120.0,120.0,0.0,0.0
4006,64.0,0.0,120.0,0.0,0.0
4007,71.0,0.0,120.0,0.0,0.0
4008,57.0,120.0,120.0,0.0,0.0
4009,73.0,0.0,120.0,0.0,0.0
4010,64.0,120.0,120.0,0.0,0.0
4011,74.0,0.0,120.0,0.0,0.0
4012,57.0,120.0,120.0,0.0,0.0
4013,76.0,0.0,120.0,0.0,0.0
4014,64.0,120.0,120.0,0.0,0.0
4015,73.0,0.0,120.0,0.0,0.0
4016,57.0,120.0,120.0,0.0,0.0
4017,53.0,120.0,120.0,0.0,0.0
4018,69.0,0.0,120.0,0.0,0.0
4019,74.0,120.0,15.0,0.0,0.0
4020,77.0,120.0,120.0,0.0,0.0
4021,62.0,120.0,480.0,0.0,0.0
4022,81.0,120.0,120.0,0.0,0.0
4023,82.0,120.0,120.0,0.0,0.0
4024,65.0,0.0,120.0,0.0,0.0
4025,81.0,0.0,120.0,0.0,0.0
4026,69.0,120.0,120.0,0.0,0.0
4027,65.0,0.0,120.0,0.0,0.0
4028,79.0,0.0,120.0,0.0,0.0
4029,77.0,120.0,120.0,0.0,0.0
4030,61.0,0.0,480.0,0.0,0.0
4031,79.0,0.0,120.0,0.0,0.0
4032,65.0,120.0,120.0,0.0,0.0
4033,69.0,120.0,120.0,0.0,0.0
4034,77.0,0.0,120.0,0.0,0.0
4035,76.0,120.0,120.0,0.0,0.0
4036,65.0,0.0,120.0,0.0,0.0
4037,86.0,0.0,240.0,0.0,0.0
4038,62.0,0.0,480.0,0.0,0.0
4039,74.0,120.0,120.0,0.0,0.0
4040,76.0,120.0,120.0,0.0,0.0
4041,65.0,0.0,120.0,0.0,0.0
4042,69.0,120.0,120.0,0.0,0.0
4043,77.0,0.0,120.0,0.0,0.0
4044,74.0,120.0,120.0,0.0,0.0
4045,65.0,0.0,120.0,0.0,0.0
4046,85.0,0.0,240.0,0.0,0.0
4047,53.0,120.0,120.0,0.0,0.0
4048,69.0,120.0,120.0,0.0,0.0
4049,74.0,120.0,120.0,0.0,0.0
4050,77.0,120.0,120.0,0.0,0.0
4051,62.0,0.0,480.0,0.0,0.0
4052,81.0,120.0,120.0,0.0,0.0
4053,86.0,0.0,240.0,0.0,0.0
4054,82.0,120.0,120.0,0.0,0.0
4055,65.0,0.0,120.0,0.0,0.0
4056,81.0,0.0,120.0,0.0,0.0
4057,69.0,120.0,120.0,0.0,0.0
4058,65.0,0.0,120.0,0.0,0.0
4059,79.0,120.0,120.0,0.0,0.0
4060,61.0,120.0,480.0,0.0,0.0
4061,77.0,120.0,120.0,0.0,0.0
4062,65.0,0.0,120.0,0.0,0.0
4063,79.0,120.0,120.0,0.0,0.0
4064,69.0,120.0,120.0,0.0,0.0
4065,77.0,0.0,120.0,0.0,0.0
4066,76.0,0.0,120.0,0.0,0.0
4067,65.0,0.0,120.0,0.0,0.0
4068,86.0,0.0,240.0,0.0,0.0
4069,62.0,120.0,480.0,0.0,0.0
4070,74.0,120.0,120.0,0.0,0.0
4071,65.0,0.0,120.0,0.0,0.0
4072,76.0,120.0,120.0,0.0,0.0
4073,69.0,120.0,120.0,0.0,0.0
4074,77.0,0.0,120.0,0.0,0.0
4075,65.0,0.0,120.0,0.0,0.0
4076,74.0,0.0,120.0,0.0,0.0
4077,55.0,0.0,120.0,0.0,0.0
4078,87.0,0.0,120.0,0.0,0.0
4079,75.0,120.0,15.0,0.0,0.0
4080,70.0,0.0,120.0,0.0,0.0
4081,82.0,0.0,120.0,0.0,0.0
4082,67.0,0.0,120.0,0.0,0.0
4083,87.0,120.0,120.0,0.0,0.0
4084,91.0,0.0,120.0,0.0,0.0
4085,75.0,120.0,120.0,0.0,0.0
4086,70.0,0.0,120.0,0.0,0.0
4087,94.0,120.0,120.0,0.0,0.0
4088,67.0,0.0,120.0,0.0,0.0
4089,96.0,120.0,120.0,0.0,0.0
4090,70.0,0.0,120.0,0.0,0.0
4091,75.0,0.0,120.0,0.0,0.0
4092,67.0,0.0,120.0,0.0,0.0
4093,94.0,120.0,120.0,0.0,0.0
4094,75.0,0.0,120.0,0.0,0.0
4095,70.0,0.0,120.0,0.0,0.0
4096,93.0,120.0,120.0,0.0,0.0
4097,67.0,0.0,120.0,0.0,0.0
4098,91.0,120.0,120.0,0.0,0.0
4099,93.0,120.0,120.0,0.0,0.0
4100,75.0,0.0,120.0,0.0,0.0
4101,70.0,0.0,120.0,0.0,0.0
4102,67.0,120.0,120.0,0.0,0.0
4103,91.0,0.0,120.0,0.0,0.0
4104,89.0,120.0,120.0,0.0,0.0
4105,70.0,0.0,120.0,0.0,0.0
4106,75.0,0.0,120.0,0.0,0.0
4107,87.0,0.0,120.0,0.0,0.0
4108,67.0,120.0,120.0,0.0,0.0
4109,89.0,0.0,120.0,0.0,0.0
4110,70.0,120.0,120.0,0.0,0.0
4111,75.0,0.0,120.0,0.0,0.0
4112,67.0,0.0,120.0,0.0,0.0
4113,87.0,120.0,120.0,0.0,0.0
4114,70.0,0.0,120.0,0.0,0.0
4115,75.0,0.0,120.0,0.0,0.0
4116,86.0,120.0,120.0,0.0,0.0
4117,69.0,120.0,120.0,0.0,0.0
4118,85.0,0.0,120.0,0.0,0.0
4119,79.0,0.0,120.0,0.0,0.0
4120,76.0,0.0,120.0,0.0,0.0
4121,88.0,0.0,120.0,0.0,0.0
4122,73.0,120.0,120.0,0.0,0.0
4123,69.0,120.0,120.0,0.0,0.0
4124,91.0,0.0,120.0,0.0,0.0
4125,76.0,0.0,120.0,0.0,0.0
4126,89.0,0.0,120.0,0.0,0.0
4127,73.0,0.0,120.0,0.0,0.0
4128,79.0,120.0,120.0,0.0,0.0
4129,69.0,0.0,120.0,0.0,0.0
4130,88.0,120.0,120.0,0.0,0.0
4131,89.0,120.0,120.0,0.0,0.0
4132,73.0,0.0,120.0,0.0,0.0
4133,76.0,0.0,120.0,0.0,0.0
4134,79.0,0.0,120.0,0.0,0.0
4135,69.0,0.0,120.0,0.0,0.0
4136,88.0,120.0,120.0,0.0,0.0
4137,79.0,0.0,120.0,0.0,0.0
4138,76.0,120.0,120.0,0.0,0.0
4139,86.0,0.0,120.0,0.0,0.0
4140,73.0,0.0,120.0,0.0,0.0
4141,85.0,0.0,120.0,0.0,0.0
4142,69.0,120.0,120.0,0.0,0.0
4143,73.0,0.0,120.0,0.0,0.0
4144,86.0,120.0,120.0,0.0,0.0
4145,85.0,0.0,120.0,0.0,0.0
4146,69.0,120.0,120.0,0.0,0.0
4147,73.0,120.0,120.0,0.0,0.0
4148,82.0,0.0,120.0,0.0,0.0
4149,81.0,120.0,120.0,0.0,0.0
4150,57.0,0.0,120.0,0.0,0.0
4151,79.0,0.0,120.0,0.0,0.0
4152,69.0,120.0,120.0,0.0,0.0
4153,77.0,120.0,120.0,0.0,0.0
4154,57.0,0.0,120.0,0.0,0.0
4155,69.0,120.0,120.0,0.0,0.0
4156,76.0,0.0,120.0,0.0,0.0
4157,74.0,120.0,120.0,0.0,0.0
4158,50.0,120.0,240.0,0.0,0.0
4159,81.0,0.0,480.0,0.0,0.0
4160,65.0,0.0,120.0,0.0,0.0
4161,62.0,120.0,120.0,0.0,0.0
4162,69.0,120.0,120.0,0.0,0.0
4163,62.0,120.0,120.0,0.0,0.0
4164,65.0,0.0,120.0,0.0,0.0
4165,69.0,120.0,120.0,0.0,0.0
4166,81.0,0.0,120.0,0.0,0.0
4167,65.0,0.0,120.0,0.0,0.0
4168,62.0,120.0,120.0,0.0,0.0
4169,69.0,120.0,120.0,0.0,0.0
4170,65.0,0.0,120.0,0.0,0.0
4171,62.0,0.0,120.0,0.0,0.0
4172,81.0,120.0,120.0,0.0,0.0
4173,69.0,120.0,120.0,0.0,0.0
4174,65.0,120.0,120.0,0.0,0.0
4175,62.0,0.0,120.0,0.0,0.0
4176,68.0,120.0,120.0,0.0,0.0
4177,65.0,0.0,120.0,0.0,0.0
4178,62.0,120.0,120.0,0.0,0.0
4179,68.0,120.0,120.0,0.0,0.0
4180,82.0,0.0,15.0,0.0,0.0
4181,62.0,120.0,120.0,0.0,0.0
4182,65.0,0.0,120.0,0.0,0.0
4183,68.0,120.0,120.0,0.0,0.0
4184,82.0,120.0,120.0,0.0,0.0
4185,61.0,0.0,120.0,0.0,0.0
4186,64.0,0.0,120.0,0.0,0.0
4187,68.0,120.0,120.0,0.0,0.0
4188,64.0,120.0,120.0,0.0,0.0
4189,61.0,0.0,120.0,0.0,0.0
4190,69.0,120.0,120.0,0.0,0.0
4191,64.0,120.0,120.0,0.0,0.0
4192,61.0,0.0,120.0,0.0,0.0
4193,69.0,0.0,120.0,0.0,0.0
4194,61.0,120.0,120.0,0.0,0.0
4195,64.0,0.0,120.0,0.0,0.0
4196,81.0,120.0,15.0,0.0,0.0
4197,69.0,120.0,120.0,0.0,0.0
4198,81.0,0.0,120.0,0.0,0.0
4199,64.0,0.0,120.0,0.0,0.0
4200,61.0,120.0,120.0,0.0,0.0
4201,69.0,120.0,120.0,0.0,0.0
4202,64.0,0.0,120.0,0.0,0.0
4203,61.0,0.0,120.0,0.0,0.0
4204,76.0,120.0,120.0,0.0,0.0
4205,69.0,120.0,120.0,0.0,0.0
4206,64.0,0.0,120.0,0.0,0.0
4207,77.0,0.0,120.0,0.0,0.0
4208,61.0,120.0,120.0,0.0,0.0
4209,69.0,120.0,120.0,0.0,0.0
4210,61.0,120.0,120.0,0.0,0.0
4211,79.0,0.0,120.0,0.0,0.0
4212,64.0,0.0,120.0,0.0,0.0
4213,69.0,120.0,120.0,0.0,0.0
4214,65.0,120.0,120.0,0.0,0.0
4215,62.0,0.0,120.0,0.0,0.0
4216,77.0,0.0,120.0,0.0,0.0
4217,69.0,120.0,120.0,0.0,0.0
4218,93.0,120.0,480.0,0.0,0.0
4219,65.0,120.0,120.0,0.0,0.0
4220,62.0,0.0,120.0,0.0,0.0
4221,81.0,0.0,480.0,0.0,0.0
4222,69.0,120.0,120.0,0.0,0.0
4223,65.0,120.0,120.0,0.0,0.0
4224,62.0,0.0,120.0,0.0,0.0
4225,69.0,0.0,120.0,0.0,0.0
4226,62.0,0.0,120.0,0.0,0.0
4227,65.0,0.0,120.0,0.0,0.0
4228,93.0,120.0,120.0,0.0,0.0
4229,81.0,0.0,120.0,0.0,0.0
4230,69.0,120.0,120.0,0.0,0.0
4231,93.0,0.0,120.0,0.0,0.0
4232,62.0,0.0,120.0,0.0,0.0
4233,65.0,120.0,120.0,0.0,0.0
4234,81.0,0.0,120.0,0.0,0.0
4235,69.0,120.0,120.0,0.0,0.0
4236,65.0,120.0,120.0,0.0,0.0
4237,62.0,0.0,120.0,0.0,0.0
4238,94.0,120.0,480.0,0.0,0.0
4239,68.0,120.0,120.0,0.0,0.0
4240,62.0,120.0,120.0,0.0,0.0
4241,65.0,0.0,120.0,0.0,0.0
4242,68.0,0.0,120.0,0.0,0.0
4243,82.0,0.0,15.0,0.0,0.0
4244,62.0,0.0,120.0,0.0,0.0
4245,65.0,0.0,120.0,0.0,0.0
4246,94.0,0.0,120.0,0.0,0.0
4247,68.0,120.0,120.0,0.0,0.0
4248,64.0,0.0,120.0,0.0,0.0
4249,61.0,0.0,120.0,0.0,0.0
4250,94.0,120.0,120.0,0.0,0.0
4251,82.0,0.0,120.0,0.0,0.0
4252,68.0,120.0,120.0,0.0,0.0
4253,64.0,0.0,120.0,0.0,0.0
4254,61.0,120.0,120.0,0.0,0.0
4255,69.0,120.0,120.0,0.0,0.0
4256,61.0,120.0,120.0,0.0,0.0
4257,64.0,0.0,120.0,0.0,0.0
4258,69.0,120.0,120.0,0.0,0.0
4259,64.0,0.0,120.0,0.0,0.0
4260,81.0,0.0,15.0,0.0,0.0
4261,93.0,0.0,15.0,0.0,0.0
4262,61.0,0.0,120.0,0.0,0.0
4263,69.0,120.0,120.0,0.0,0.0
4264,61.0,0.0,120.0,0.0,0.0
4265,64.0,120.0,120.0,0.0,0.0
4266,93.0,0.0,120.0,0.0,0.0
4267,81.0,0.0,120.0,0.0,0.0
4268,69.0,120.0,120.0,0.0,0.0
4269,88.0,0.0,120.0,0.0,0.0
4270,61.0,0.0,120.0,0.0,0.0
4271,64.0,120.0,120.0,0.0,0.0
4272,76.0,0.0,120.0,0.0,0.0
4273,69.0,120.0,120.0,0.0,0.0
4274,61.0,0.0,120.0,0.0,0.0
4275,64.0,120.0,120.0,0.0,0.0
4276,77.0,0.0,120.0,0.0,0.0
4277,89.0,0.0,120.0,0.0,0.0
4278,69.0,120.0,120.0,0.0,0.0
4279,79.0,0.0,120.0,0.0,0.0
4280,91.0,0.0,120.0,0.0,0.0
4281,64.0,0.0,120.0,0.0,0.0
4282,61.0,120.0,120.0,0.0,0.0
4283,69.0,120.0,120.0,0.0,0.0
4284,65.0,0.0,120.0,0.0,0.0
4285,62.0,0.0,120.0,0.0,0.0
4286,77.0,120.0,120.0,0.0,0.0
4287,89.0,0.0,120.0,0.0,0.0
4288,69.0,120.0,120.0,0.0,0.0
4289,76.0,0.0,480.0,0.0,0.0
4290,56.0,120.0,120.0,0.0,0.0
4291,59.0,0.0,120.0,0.0,0.0
4292,64.0,120.0,120.0,0.0,0.0
4293,56.0,120.0,120.0,0.0,0.0
4294,59.0,0.0,120.0,0.0,0.0
4295,64.0,120.0,120.0,0.0,0.0
4296,56.0,0.0,120.0,0.0,0.0
4297,59.0,120.0,120.0,0.0,0.0
4298,76.0,0.0,120.0,0.0,0.0
4299,64.0,120.0,120.0,0.0,0.0
4300,57.0,0.0,120.0,0.0,0.0
4301,76.0,0.0,120.0,0.0,0.0
4302,60.0,120.0,120.0,0.0,0.0
4303,64.0,120.0,120.0,0.0,0.0
4304,75.0,0.0,480.0,0.0,0.0
4305,60.0,120.0,120.0,0.0,0.0
4306,57.0,0.0,120.0,0.0,0.0
4307,66.0,120.0,120.0,0.0,0.0
4308,57.0,0.0,120.0,0.0,0.0
4309,60.0,120.0,120.0,0.0,0.0
4310,66.0,120.0,120.0,0.0,0.0
4311,60.0,0.0,120.0,0.0,0.0
4312,57.0,0.0,120.0,0.0,0.0
4313,75.0,120.0,120.0,0.0,0.0
4314,66.0,120.0,120.0,0.0,0.0
4315,56.0,120.0,120.0,0.0,0.0
4316,59.0,0.0,120.0,0.0,0.0
4317,75.0,0.0,120.0,0.0,0.0
4318,66.0,120.0,120.0,0.0,0.0
4319,56.0,120.0,120.0,0.0,0.0
4320,59.0,0.0,120.0,0.0,0.0
4321,64.0,120.0,120.0,0.0,0.0
4322,56.0,0.0,120.0,0.0,0.0
4323,59.0,120.0,120.0,0.0,0.0
4324,64.0,0.0,120.0,0.0,0.0
4325,76.0,120.0,15.0,0.0,0.0
4326,56.0,0.0,120.0,0.0,0.0
4327,59.0,0.0,120.0,0.0,0.0
4328,64.0,120.0,120.0,0.0,0.0
4329,76.0,0.0,120.0,0.0,0.0
4330,59.0,120.0,120.0,0.0,0.0
4331,56.0,0.0,120.0,0.0,0.0
4332,64.0,120.0,120.0,0.0,0.0
4333,56.0,0.0,120.0,0.0,0.0
4334,71.0,120.0,120.0,0.0,0.0
4335,59.0,0.0,120.0,0.0,0.0
4336,64.0,120.0,120.0,0.0,0.0
4337,59.0,0.0,120.0,0.0,0.0
4338,56.0,0.0,120.0,0.0,0.0
4339,72.0,120.0,120.0,0.0,0.0
4340,64.0,120.0,120.0,0.0,0.0
4341,59.0,0.0,120.0,0.0,0.0
4342,74.0,0.0,120.0,0.0,0.0
4343,56.0,120.0,120.0,0.0,0.0
4344,64.0,120.0,120.0,0.0,0.0
4345,60.0,120.0,120.0,0.0,0.0
4346,72.0,0.0,120.0,0.0,0.0
4347,57.0,0.0,120.0,0.0,0.0
4348,64.0,120.0,120.0,0.0,0.0
4349,60.0,120.0,120.0,0.0,0.0
4350,76.0,0.0,480.0,0.0,0.0
4351,57.0,0.0,120.0,0.0,0.0
4352,88.0,0.0,480.0,0.0,0.0
4353,64.0,120.0,120.0,0.0,0.0
4354,60.0,120.0,120.0,0.0,0.0
4355,57.0,0.0,120.0,0.0,0.0
4356,64.0,120.0,120.0,0.0,0.0
4357,88.0,120.0,120.0,0.0,0.0
4358,76.0,0.0,120.0,0.0,0.0
4359,60.0,0.0,120.0,0.0,0.0
4360,57.0,0.0,120.0,0.0,0.0
4361,64.0,120.0,120.0,0.0,0.0
4362,76.0,0.0,120.0,0.0,0.0
4363,88.0,0.0,120.0,0.0,0.0
4364,60.0,120.0,120.0,0.0,0.0
4365,57.0,0.0,120.0,0.0,0.0
4366,64.0,120.0,120.0,0.0,0.0
4367,60.0,120.0,120.0,0.0,0.0
4368,57.0,0.0,120.0,0.0,0.0
4369,75.0,0.0,480.0,0.0,0.0
4370,66.0,120.0,120.0,0.0,0.0
4371,57.0,120.0,120.0,0.0,0.0
4372,60.0,0.0,120.0,0.0,0.0
4373,66.0,0.0,120.0,0.0,0.0
4374,57.0,0.0,120.0,0.0,0.0
4375,75.0,0.0,120.0,0.0,0.0
4376,87.0,120.0,15.0,0.0,0.0
4377,60.0,120.0,120.0,0.0,0.0
4378,66.0,120.0,120.0,0.0,0.0
4379,56.0,0.0,120.0,0.0,0.0
4380,59.0,0.0,120.0,0.0,0.0
4381,87.0,0.0,120.0,0.0,0.0
4382,75.0,120.0,120.0,0.0,0.0
4383,66.0,120.0,120.0,0.0,0.0
4384,76.0,0.0,480.0,0.0,0.0
4385,88.0,0.0,480.0,0.0,0.0
4386,59.0,120.0,120.0,0.0,0.0
4387,56.0,0.0,120.0,0.0,0.0
4388,64.0,120.0,120.0,0.0,0.0
4389,59.0,0.0,120.0,0.0,0.0
4390,56.0,120.0,120.0,0.0,0.0
4391,64.0,120.0,120.0,0.0,0.0
4392,59.0,0.0,120.0,0.0,0.0
4393,56.0,0.0,120.0,0.0,0.0
4394,76.0,120.0,120.0,0.0,0.0
4395,88.0,0.0,120.0,0.0,0.0
4396,64.0,120.0,120.0,0.0,0.0
4397,88.0,0.0,120.0,0.0,0.0
4398,76.0,0.0,120.0,0.0,0.0
4399,56.0,120.0,120.0,0.0,0.0
4400,59.0,0.0,120.0,0.0,0.0
4401,64.0,120.0,120.0,0.0,0.0
4402,71.0,0.0,120.0,0.0,0.0
4403,59.0,0.0,120.0,0.0,0.0
4404,56.0,120.0,120.0,0.0,0.0
4405,83.0,0.0,120.0,0.0,0.0
4406,64.0,120.0,120.0,0.0,0.0
4407,56.0,0.0,120.0,0.0,0.0
4408,59.0,120.0,120.0,0.0,0.0
4409,72.0,0.0,120.0,0.0,0.0
4410,84.0,0.0,120.0,0.0,0.0
4411,64.0,120.0,120.0,0.0,0.0
4412,74.0,0.0,120.0,0.0,0.0
4413,59.0,0.0,120.0,0.0,0.0
4414,56.0,120.0,120.0,0.0,0.0
4415,86.0,0.0,120.0,0.0,0.0
4416,64.0,120.0,120.0,0.0,0.0
4417,72.0,120.0,120.0,0.0,0.0
4418,84.0,0.0,120.0,0.0,0.0
4419,45.0,0.0,480.0,0.0,0.0
4420,48.0,0.0,480.0,0.0,0.0
4421,52.0,0.0,480.0,0.0,0.0
4422,57.0,120.0,480.0,0.0,0.0
4423,64.0,120.0,120.0,0.0,0.0
4424,69.0,120.0,120.0,0.0,0.0
4425,72.0,0.0,120.0,0.0,0.0
4426,76.0,120.0,120.0,0.0,0.0
4427,77.0,120.0,120.0,0.0,0.0
4428,52.0,0.0,120.0,0.0,0.0
4429,57.0,120.0,120.0,0.0,0.0
4430,76.0,0.0,120.0,0.0,0.0
4431,74.0,120.0,120.0,0.0,0.0
4432,60.0,0.0,120.0,0.0,0.0
4433,64.0,0.0,120.0,0.0,0.0
4434,72.0,120.0,120.0,0.0,0.0
4435,74.0,0.0,120.0,0.0,0.0
4436,65.0,120.0,120.0,0.0,0.0
4437,64.0,0.0,120.0,0.0,0.0
4438,72.0,120.0,120.0,0.0,0.0
4439,62.0,120.0,120.0,0.0,0.0
4440,71.0,0.0,120.0,0.0,0.0
4441,60.0,120.0,120.0,0.0,0.0
4442,69.0,0.0,120.0,0.0,0.0
4443,71.0,120.0,120.0,0.0,0.0
4444,62.0,0.0,120.0,0.0,0.0
4445,72.0,120.0,120.0,0.0,0.0
4446,64.0,0.0,120.0,0.0,0.0
4447,60.0,120.0,120.0,0.0,0.0
4448,69.0,0.0,120.0,0.0,0.0
4449,62.0,0.0,120.0,0.0,0.0
4450,70.0,120.0,120.0,0.0,0.0
4451,64.0,120.0,120.0,0.0,0.0
4452,65.0,0.0,120.0,0.0,0.0
4453,62.0,120.0,120.0,0.0,0.0
4454,70.0,0.0,120.0,0.0,0.0
4455,74.0,120.0,120.0,0.0,0.0
4456,60.0,0.0,120.0,0.0,0.0
4457,58.0,120.0,120.0,0.0,0.0
4458,77.0,0.0,120.0,0.0,0.0
4459,79.0,120.0,120.0,0.0,0.0
4460,53.0,0.0,120.0,0.0,0.0
4461,58.0,0.0,120.0,0.0,0.0
4462,77.0,120.0,120.0,0.0,0.0
4463,62.0,120.0,120.0,0.0,0.0
4464,76.0,0.0,120.0,0.0,0.0
4465,74.0,120.0,120.0,0.0,0.0
4466,65.0,0.0,120.0,0.0,0.0
4467,76.0,120.0,120.0,0.0,0.0
4468,67.0,0.0,120.0,0.0,0.0
4469,65.0,0.0,120.0,0.0,0.0
4470,74.0,120.0,120.0,0.0,0.0
4471,72.0,120.0,120.0,0.0,0.0
4472,64.0,0.0,120.0,0.0,0.0
4473,62.0,0.0,120.0,0.0,0.0
4474,70.0,120.0,120.0,0.0,0.0
4475,72.0,120.0,120.0,0.0,0.0
4476,64.0,0.0,120.0,0.0,0.0
4477,74.0,0.0,120.0,0.0,0.0
4478,65.0,120.0,120.0,0.0,0.0
4479,70.0,0.0,120.0,0.0,0.0
4480,62.0,120.0,120.0,0.0,0.0
4481,64.0,0.0,120.0,0.0,0.0
4482,73.0,120.0,120.0,0.0,0.0
4483,65.0,120.0,120.0,0.0,0.0
4484,67.0,0.0,120.0,0.0,0.0
4485,73.0,0.0,120.0,0.0,0.0
4486,64.0,120.0,120.0,0.0,0.0
4487,76.0,0.0,120.0,0.0,0.0
4488,62.0,120.0,120.0,0.0,0.0
4489,61.0,0.0,120.0,0.0,0.0
4490,79.0,120.0,120.0,0.0,0.0
4491,81.0,0.0,120.0,0.0,0.0
4492,55.0,120.0,120.0,0.0,0.0
4493,79.0,120.0,120.0,0.0,0.0
4494,61.0,0.0,120.0,0.0,0.0
4495,77.0,0.0,120.0,0.0,0.0
4496,64.0,120.0,120.0,0.0,0.0
4497,67.0,0.0,120.0,0.0,0.0
4498,76.0,120.0,120.0,0.0,0.0
4499,69.0,0.0,120.0,0.0,0.0
4500,77.0,120.0,120.0,0.0,0.0
4501,67.0,0.0,120.0,0.0,0.0
4502,76.0,120.0,120.0,0.0,0.0
4503,74.0,0.0,120.0,0.0,0.0
4504,65.0,120.0,120.0,0.0,0.0
4505,64.0,120.0,120.0,0.0,0.0
4506,73.0,0.0,120.0,0.0,0.0
4507,74.0,0.0,120.0,0.0,0.0
4508,65.0,120.0,120.0,0.0,0.0
4509,76.0,120.0,120.0,0.0,0.0
4510,67.0,0.0,120.0,0.0,0.0
4511,64.0,120.0,120.0,0.0,0.0
4512,73.0,0.0,120.0,0.0,0.0
4513,65.0,120.0,120.0,0.0,0.0
4514,74.0,0.0,120.0,0.0,0.0
4515,69.0,0.0,120.0,0.0,0.0
4516,57.0,120.0,120.0,0.0,0.0
4517,74.0,120.0,120.0,0.0,0.0
4518,62.0,0.0,120.0,0.0,0.0
4519,65.0,120.0,120.0,0.0,0.0
4520,77.0,0.0,120.0,0.0,0.0
4521,81.0,0.0,120.0,0.0,0.0
4522,69.0,120.0,120.0,0.0,0.0
4523,82.0,0.0,120.0,0.0,0.0
4524,70.0,120.0,120.0,0.0,0.0
4525,81.0,0.0,120.0,0.0,0.0
4526,69.0,120.0,120.0,0.0,0.0
4527,67.0,0.0,120.0,0.0,0.0
4528,79.0,120.0,120.0,0.0,0.0
4529,77.0,120.0,120.0,0.0,0.0
4530,65.0,0.0,120.0,0.0,0.0
4531,64.0,0.0,120.0,0.0,0.0
4532,76.0,120.0,120.0,0.0,0.0
4533,74.0,120.0,120.0,0.0,0.0
4534,62.0,0.0,120.0,0.0,0.0
4535,60.0,120.0,120.0,0.0,0.0
4536,72.0,0.0,120.0,0.0,0.0
4537,70.0,0.0,120.0,0.0,0.0
4538,58.0,120.0,120.0,0.0,0.0
4539,69.0,120.0,120.0,0.0,0.0
4540,57.0,0.0,120.0,0.0,0.0
4541,55.0,120.0,120.0,0.0,0.0
4542,67.0,0.0,120.0,0.0,0.0
4543,65.0,0.0,120.0,0.0,0.0
4544,53.0,120.0,120.0,0.0,0.0
4545,64.0,0.0,120.0,0.0,0.0
4546,52.0,120.0,120.0,0.0,0.0
4547,62.0,0.0,120.0,0.0,0.0
4548,50.0,120.0,120.0,0.0,0.0
4549,48.0,0.0,120.0,0.0,0.0
4550,60.0,120.0,120.0,0.0,0.0
4551,46.0,0.0,120.0,0.0,0.0
4552,58.0,120.0,120.0,0.0,0.0
4553,45.0,0.0,120.0,0.0,0.0
4554,57.0,120.0,120.0,0.0,0.0
4555,43.0,120.0,120.0,0.0,0.0
4556,55.0,0.0,120.0,0.0,0.0
4557,53.0,0.0,120.0,0.0,0.0
4558,41.0,120.0,120.0,0.0,0.0
4559,40.0,0.0,120.0,0.0,0.0
4560,52.0,120.0,120.0,0.0,0.0
4561,38.0,120.0,120.0,0.0,0.0
4562,50.0,0.0,120.0,0.0,0.0
4563,40.0,120.0,120.0,0.0,0.0
4564,52.0,0.0,120.0,0.0,0.0
4565,41.0,0.0,120.0,0.0,0.0
4566,53.0,120.0,120.0,0.0,0.0
4567,40.0,0.0,120.0,0.0,0.0
4568,50.0,240.0,15.0,0.0,0.0
4569,38.0,240.0,240.0,0.0,0.0
4570,54.0,120.0,240.0,0.0,0.0
4571,57.0,0.0,240.0,0.0,0.0
4572,60.0,0.0,240.0,0.0,0.0
4573,51.0,0.0,240.0,0.0,0.0
4574,39.0,0.0,240.0,0.0,0.0
4575,40.0,0.0,120.0,0.0,0.0
4576,59.0,120.0,120.0,0.0,0.0
4577,56.0,0.0,120.0,0.0,0.0
4578,52.0,0.0,15.0,0.0,0.0
4579,64.0,0.0,120.0,0.0,0.0
4580,44.0,120.0,120.0,0.0,0.0
4581,64.0,120.0,120.0,0.0,0.0
4582,52.0,0.0,120.0,0.0,0.0
4583,40.0,120.0,120.0,0.0,0.0
4584,52.0,120.0,120.0,0.0,0.0
4585,64.0,0.0,120.0,0.0,0.0
4586,45.0,120.0,120.0,0.0,0.0
4587,64.0,120.0,120.0,0.0,0.0
4588,52.0,0.0,120.0,0.0,0.0
4589,40.0,120.0,120.0,0.0,0.0
4590,64.0,120.0,120.0,0.0,0.0
4591,52.0,0.0,120.0,0.0,0.0
4592,47.0,120.0,120.0,0.0,0.0
4593,64.0,0.0,120.0,0.0,0.0
4594,52.0,120.0,120.0,0.0,0.0
4595,40.0,120.0,120.0,0.0,0.0
4596,64.0,0.0,120.0,0.0,0.0
4597,52.0,120.0,120.0,0.0,0.0
4598,48.0,120.0,120.0,0.0,0.0
4599,64.0,0.0,120.0,0.0,0.0
4600,52.0,120.0,120.0,0.0,0.0
4601,40.0,120.0,120.0,0.0,0.0
4602,76.0,120.0,120.0,0.0,0.0
4603,64.0,0.0,120.0,0.0,0.0
4604,50.0,120.0,120.0,0.0,0.0
4605,76.0,0.0,120.0,0.0,0.0
4606,64.0,120.0,120.0,0.0,0.0
4607,40.0,120.0,120.0,0.0,0.0
4608,64.0,120.0,120.0,0.0,0.0
4609,76.0,0.0,120.0,0.0,0.0
4610,48.0,120.0,120.0,0.0,0.0
4611,64.0,120.0,120.0,0.0,0.0
4612,76.0,0.0,120.0,0.0,0.0
4613,40.0,120.0,120.0,0.0,0.0
4614,64.0,120.0,120.0,0.0,0.0
4615,76.0,0.0,120.0,0.0,0.0
4616,47.0,120.0,120.0,0.0,0.0
4617,64.0,120.0,120.0,0.0,0.0
4618,76.0,0.0,120.0,0.0,0.0
4619,40.0,120.0,120.0,0.0,0.0
4620,76.0,0.0,120.0,0.0,0.0
4621,64.0,120.0,120.0,0.0,0.0
4622,45.0,120.0,120.0,0.0,0.0
4623,76.0,120.0,120.0,0.0,0.0
4624,64.0,0.0,120.0,0.0,0.0
4625,40.0,120.0,120.0,0.0,0.0
4626,88.0,120.0,120.0,0.0,0.0
4627,76.0,0.0,120.0,0.0,0.0
4628,44.0,120.0,120.0,0.0,0.0
4629,88.0,120.0,120.0,0.0,0.0
4630,76.0,0.0,120.0,0.0,0.0
4631,40.0,120.0,120.0,0.0,0.0
4632,76.0,0.0,120.0,0.0,0.0
4633,88.0,120.0,120.0,0.0,0.0
4634,45.0,120.0,120.0,0.0,0.0
4635,88.0,120.0,120.0,0.0,0.0
4636,76.0,0.0,120.0,0.0,0.0
4637,40.0,120.0,120.0,0.0,0.0
4638,76.0,0.0,120.0,0.0,0.0
4639,88.0,120.0,120.0,0.0,0.0
4640,47.0,120.0,120.0,0.0,0.0
4641,88.0,120.0,120.0,0.0,0.0
4642,76.0,0.0,120.0,0.0,0.0
4643,40.0,120.0,120.0,0.0,0.0
4644,76.0,120.0,120.0,0.0,0.0
4645,88.0,0.0,120.0,0.0,0.0
4646,48.0,120.0,120.0,0.0,0.0
4647,88.0,0.0,120.0,0.0,0.0
4648,76.0,120.0,120.0,0.0,0.0
4649,40.0,120.0,120.0,0.0,0.0
4650,88.0,0.0,120.0,0.0,0.0
4651,100.0,120.0,120.0,0.0,0.0
4652,49.0,120.0,120.0,0.0,0.0
4653,88.0,120.0,120.0,0.0,0.0
4654,100.0,0.0,120.0,0.0,0.0
4655,40.0,120.0,120.0,0.0,0.0
4656,100.0,0.0,120.0,0.0,0.0
4657,88.0,120.0,120.0,0.0,0.0
4658,50.0,120.0,120.0,0.0,0.0
4659,88.0,120.0,120.0,0.0,0.0
4660,100.0,0.0,120.0,0.0,0.0
4661,40.0,120.0,120.0,0.0,0.0
4662,88.0,120.0,120.0,0.0,0.0
4663,100.0,0.0,120.0,0.0,0.0
4664,51.0,120.0,120.0,0.0,0.0
4665,100.0,120.0,120.0,0.0,0.0
4666,88.0,0.0,120.0,0.0,0.0
4667,40.0,120.0,120.0,0.0,0.0
4668,100.0,0.0,120.0,0.0,0.0
4669,88.0,120.0,120.0,0.0,0.0
4670,52.0,120.0,120.0,0.0,0.0
4671,100.0,0.0,120.0,0.0,0.0
4672,88.0,240.0,120.0,0.0,0.0
4673,50.0,120.0,240.0,0.0,0.0
4674,46.0,0.0,240.0,0.0,0.0
4675,38.0,0.0,240.0,0.0,0.0
4676,41.0,0.0,240.0,0.0,0.0
4677,53.0,0.0,120.0,0.0,0.0
4678,58.0,120.0,120.0,0.0,0.0
4679,62.0,120.0,120.0,0.0,0.0
4680,65.0,120.0,120.0,0.0,0.0
4681,50.0,120.0,120.0,0.0,0.0
4682,53.0,120.0,120.0,0.0,0.0
4683,58.0,120.0,120.0,0.0,0.0
4684,62.0,120.0,120.0,0.0,0.0
4685,65.0,120.0,120.0,0.0,0.0
4686,70.0,120.0,120.0,0.0,0.0
4687,74.0,120.0,120.0,0.0,0.0
4688,77.0,120.0,120.0,0.0,0.0
4689,62.0,120.0,120.0,0.0,0.0
4690,65.0,120.0,120.0,0.0,0.0
4691,70.0,120.0,120.0,0.0,0.0
4692,74.0,120.0,120.0,0.0,0.0
4693,77.0,120.0,120.0,0.0,0.0
4694,82.0,120.0,120.0,0.0,0.0
4695,86.0,240.0,120.0,0.0,0.0
4696,89.0,1440.0,240.0,0.0,0.0
4697,47.0,0.0,240.0,0.0,0.0
4698,40.0,0.0,240.0,0.0,0.0
4699,50.0,0.0,240.0,0.0,0.0
4700,52.0,0.0,240.0,0.0,0.0
4701,56.0,120.0,120.0,0.0,0.0
4702,59.0,120.0,120.0,0.0,0.0
4703,62.0,120.0,120.0,0.0,0.0
4704,68.0,120.0,120.0,0.0,0.0
4705,52.0,120.0,120.0,0.0,0.0
4706,59.0,120.0,120.0,0.0,0.0
4707,62.0,120.0,120.0,0.0,0.0
4708,64.0,120.0,120.0,0.0,0.0
4709,68.0,120.0,120.0,0.0,0.0
4710,71.0,120.0,120.0,0.0,0.0
4711,74.0,120.0,120.0,0.0,0.0
4712,80.0,120.0,120.0,0.0,0.0
4713,64.0,120.0,120.0,0.0,0.0
4714,71.0,120.0,120.0,0.0,0.0
4715,74.0,120.0,120.0,0.0,0.0
4716,76.0,120.0,120.0,0.0,0.0
4717,80.0,120.0,120.0,0.0,0.0
4718,83.0,120.0,120.0,0.0,0.0
4719,86.0,240.0,120.0,0.0,0.0
4720,92.0,1360.0,240.0,0.0,0.0
4721,41.0,160.0,150.0,0.0,0.0
4722,53.0,160.0,150.0,0.0,0.0
4723,56.0,120.0,150.0,0.0,0.0
4724,59.0,120.0,120.0,0.0,0.0
4725,62.0,120.0,120.0,0.0,0.0
4726,65.0,120.0,120.0,0.0,0.0
4727,68.0,240.0,120.0,0.0,0.0
4728,71.0,880.0,240.0,0.0,0.0
4729,44.0,160.0,150.0,0.0,0.0
4730,56.0,160.0,150.0,0.0,0.0
4731,59.0,120.0,150.0,0.0,0.0
4732,62.0,120.0,120.0,0.0,0.0
4733,65.0,120.0,120.0,0.0,0.0
4734,68.0,120.0,120.0,0.0,0.0
4735,71.0,240.0,120.0,0.0,0.0
4736,74.0,880.0,240.0,0.0,0.0
4737,47.0,160.0,150.0,0.0,0.0
4738,59.0,160.0,150.0,0.0,0.0
4739,62.0,120.0,150.0,0.0,0.0
4740,65.0,120.0,120.0,0.0,0.0
4741,68.0,120.0,120.0,0.0,0.0
4742,71.0,120.0,120.0,0.0,0.0
4743,74.0,240.0,120.0,0.0,0.0
4744,77.0,880.0,240.0,0.0,0.0
4745,50.0,160.0,150.0,0.0,0.0
4746,62.0,160.0,150.0,0.0,0.0
4747,65.0,120.0,150.0,0.0,0.0
4748,68.0,120.0,120.0,0.0,0.0
4749,71.0,120.0,120.0,0.0,0.0
4750,74.0,120.0,120.0,0.0,0.0
4751,77.0,240.0,120.0,0.0,0.0
4752,80.0,960.0,240.0,0.0,0.0
4753,53.0,240.0,240.0,0.0,0.0
4754,56.0,240.0,240.0,0.0,0.0
4755,59.0,240.0,240.0,0.0,0.0
4756,62.0,240.0,240.0,0.0,0.0
4757,65.0,240.0,240.0,0.0,0.0
4758,68.0,240.0,240.0,0.0,0.0
4759,71.0,240.0,240.0,0.0,0.0
4760,74.0,240.0,240.0,0.0,0.0
4761,77.0,240.0,240.0,0.0,0.0
4762,80.0,240.0,240.0,0.0,0.0
4763,83.0,240.0,240.0,0.0,0.0
4764,86.0,240.0,240.0,0.0,0.0
4765,89.0,240.0,240.0,0.0,0.0
4766,92.0,240.0,240.0,0.0,0.0
4767,95.0,240.0,240.0,0.0,0.0
4768,98.0,240.0,240.0,0.0,0.0
4769,95.0,240.0,240.0,0.0,0.0
4770,92.0,240.0,240.0,0.0,0.0
4771,89.0,240.0,240.0,0.0,0.0
4772,86.0,240.0,240.0,0.0,0.0
4773,83.0,240.0,240.0,0.0,0.0
4774,80.0,240.0,240.0,0.0,0.0
4775,77.0,240.0,240.0,0.0,0.0
4776,74.0,240.0,240.0,0.0,0.0
4777,71.0,240.0,240.0,0.0,0.0
4778,68.0,240.0,240.0,0.0,0.0
4779,65.0,240.0,240.0,0.0,0.0
4780,62.0,240.0,240.0,0.0,0.0
4781,59.0,240.0,240.0,0.0,0.0
4782,56.0,240.0,240.0,0.0,0.0
4783,53.0,240.0,240.0,0.0,0.0
4784,50.0,960.0,240.0,0.0,0.0
4785,47.0,960.0,960.0,0.0,0.0
4786,44.0,960.0,960.0,0.0,0.0
4787,41.0,960.0,960.0,0.0,0.0
4788,38.0,1920.0,960.0,0.0,0.0
4789,35.0,720.0,1920.0,0.0,0.0
4790,47.0,0.0,720.0,0.0,0.0
4791,56.0,1920.0,720.0,0.0,0.0
4792,52.0,0.0,720.0,0.0,0.0
4793,50.0,0.0,720.0,0.0,0.0
4794,59.0,0.0,720.0,0.0,0.0
4795,62.0,960.0,720.0,0.0,0.0
4796,64.0,0.0,720.0,0.0,0.0
4797,68.0,0.0,720.0,0.0,0.0
4798,71.0,0.0,720.0,0.0,0.0
4799,74.0,0.0,720.0,0.0,0.0
4800,76.0,0.0,720.0,0.0,0.0
4801,80.0,960.0,720.0,0.0,0.0
4802,92.0,0.0,720.0,0.0,0.0
4803,88.0,0.0,720.0,0.0,0.0
4804,86.0,960.0,720.0,0.0,0.0
4805,83.0,0.0,720.0,0.0,0.0
4806,52.0,0.0,720.0,0.0,0.0
4807,56.0,120.0,720.0,0.0,0.0
4808,47.0,0.0,720.0,0.0,0.0
4809,50.0,0.0,720.0,0.0,0.0
4810,40.0,120.0,15.0,0.0,0.0
4811,33.0,120.0,480.0,0.0,0.0
4812,45.0,0.0,480.0,0.0,0.0
4813,52.0,120.0,120.0,0.0,0.0
4814,57.0,120.0,120.0,0.0,0.0
4815,60.0,0.0,120.0,0.0,0.0
4816,64.0,120.0,120.0,0.0,0.0
4817,65.0,120.0,120.0,0.0,0.0
4818,64.0,120.0,120.0,0.0,0.0
4819,62.0,120.0,120.0,0.0,0.0
4820,60.0,120.0,120.0,0.0,0.0
4821,62.0,120.0,120.0,0.0,0.0
4822,60.0,120.0,120.0,0.0,0.0
4823,59.0,120.0,120.0,0.0,0.0
4824,57.0,120.0,120.0,0.0,0.0
4825,59.0,120.0,120.0,0.0,0.0
4826,60.0,120.0,120.0,0.0,0.0
4827,57.0,240.0,120.0,0.0,0.0
4828,33.0,0.0,480.0,0.0,0.0
4829,45.0,120.0,480.0,0.0,0.0
4830,52.0,120.0,120.0,0.0,0.0
4831,57.0,120.0,120.0,0.0,0.0
4832,60.0,0.0,120.0,0.0,0.0
4833,64.0,120.0,120.0,0.0,0.0
4834,65.0,120.0,120.0,0.0,0.0
4835,64.0,120.0,120.0,0.0,0.0
4836,76.0,120.0,120.0,0.0,0.0
4837,72.0,0.0,120.0,0.0,0.0
4838,62.0,0.0,120.0,0.0,0.0
4839,60.0,120.0,120.0,0.0,0.0
4840,76.0,120.0,480.0,0.0,0.0
4841,72.0,0.0,480.0,0.0,0.0
4842,62.0,120.0,120.0,0.0,0.0
4843,60.0,120.0,120.0,0.0,0.0
4844,59.0,0.0,120.0,0.0,0.0
4845,57.0,120.0,120.0,0.0,0.0
4846,69.0,120.0,240.0,0.0,0.0
4847,72.0,0.0,240.0,0.0,0.0
4848,59.0,0.0,120.0,0.0,0.0
4849,60.0,120.0,120.0,0.0,0.0
4850,57.0,240.0,120.0,0.0,0.0
4851,50.0,0.0,480.0,0.0,0.0
4852,38.0,120.0,480.0,0.0,0.0
4853,53.0,120.0,120.0,0.0,0.0
4854,58.0,120.0,120.0,0.0,0.0
4855,62.0,0.0,120.0,0.0,0.0
4856,65.0,120.0,120.0,0.0,0.0
4857,67.0,120.0,120.0,0.0,0.0
4858,65.0,120.0,120.0,0.0,0.0
4859,74.0,120.0,120.0,0.0,0.0
4860,77.0,0.0,120.0,0.0,0.0
4861,64.0,0.0,120.0,0.0,0.0
4862,62.0,120.0,120.0,0.0,0.0
4863,77.0,0.0,960.0,0.0,0.0
4864,64.0,120.0,120.0,0.0,0.0
4865,62.0,120.0,120.0,0.0,0.0
4866,60.0,120.0,120.0,0.0,0.0
4867,58.0,120.0,120.0,0.0,0.0
4868,60.0,120.0,120.0,0.0,0.0
4869,58.0,120.0,120.0,0.0,0.0
4870,57.0,120.0,120.0,0.0,0.0
4871,76.0,0.0,240.0,0.0,0.0
4872,74.0,0.0,15.0,0.0,0.0
4873,56.0,120.0,120.0,0.0,0.0
4874,57.0,0.0,120.0,0.0,0.0
4875,59.0,120.0,120.0,0.0,0.0
4876,52.0,0.0,240.0,0.0,0.0
4877,40.0,120.0,240.0,0.0,0.0
4878,56.0,0.0,120.0,0.0,0.0
4879,57.0,120.0,120.0,0.0,0.0
4880,59.0,120.0,120.0,0.0,0.0
4881,53.0,120.0,240.0,0.0,0.0
4882,41.0,0.0,240.0,0.0,0.0
4883,60.0,120.0,120.0,0.0,0.0
4884,57.0,0.0,120.0,0.0,0.0
4885,59.0,120.0,120.0,0.0,0.0
4886,60.0,120.0,120.0,0.0,0.0
4887,62.0,120.0,120.0,0.0,0.0
4888,50.0,0.0,240.0,0.0,0.0
4889,38.0,0.0,240.0,0.0,0.0
4890,59.0,120.0,120.0,0.0,0.0
4891,56.0,120.0,120.0,0.0,0.0
4892,57.0,120.0,120.0,0.0,0.0
4893,59.0,120.0,120.0,0.0,0.0
4894,52.0,0.0,240.0,0.0,0.0
4895,40.0,0.0,240.0,0.0,0.0
4896,56.0,120.0,120.0,0.0,0.0
4897,45.0,0.0,120.0,0.0,0.0
4898,33.0,120.0,120.0,0.0,0.0
4899,52.0,120.0,120.0,0.0,0.0
4900,57.0,120.0,120.0,0.0,0.0
4901,60.0,0.0,120.0,0.0,0.0
4902,64.0,120.0,120.0,0.0,0.0
4903,65.0,120.0,120.0,0.0,0.0
4904,64.0,120.0,120.0,0.0,0.0
4905,68.0,0.0,120.0,0.0,0.0
4906,62.0,120.0,120.0,0.0,0.0
4907,69.0,0.0,120.0,0.0,0.0
4908,60.0,120.0,120.0,0.0,0.0
4909,62.0,120.0,120.0,0.0,0.0
4910,60.0,0.0,120.0,0.0,0.0
4911,71.0,120.0,120.0,0.0,0.0
4912,59.0,120.0,120.0,0.0,0.0
4913,72.0,0.0,120.0,0.0,0.0
4914,57.0,120.0,120.0,0.0,0.0
4915,59.0,120.0,120.0,0.0,0.0
4916,60.0,120.0,120.0,0.0,0.0
4917,69.0,0.0,120.0,0.0,0.0
4918,57.0,120.0,120.0,0.0,0.0
4919,60.0,120.0,120.0,0.0,0.0
4920,52.0,120.0,120.0,0.0,0.0
4921,57.0,120.0,120.0,0.0,0.0
4922,60.0,120.0,120.0,0.0,0.0
4923,64.0,120.0,120.0,0.0,0.0
4924,65.0,120.0,120.0,0.0,0.0
4925,64.0,120.0,120.0,0.0,0.0
4926,80.0,0.0,120.0,0.0,0.0
4927,68.0,0.0,120.0,0.0,0.0
4928,62.0,120.0,120.0,0.0,0.0
4929,69.0,0.0,120.0,0.0,0.0
4930,60.0,0.0,120.0,0.0,0.0
4931,81.0,120.0,120.0,0.0,0.0
4932,62.0,120.0,120.0,0.0,0.0
4933,60.0,0.0,120.0,0.0,0.0
4934,71.0,0.0,120.0,0.0,0.0
4935,83.0,120.0,120.0,0.0,0.0
4936,59.0,120.0,120.0,0.0,0.0
4937,84.0,0.0,120.0,0.0,0.0
4938,57.0,120.0,120.0,0.0,0.0
4939,72.0,0.0,120.0,0.0,0.0
4940,59.0,120.0,120.0,0.0,0.0
4941,81.0,0.0,120.0,0.0,0.0
4942,69.0,120.0,120.0,0.0,0.0
4943,60.0,0.0,120.0,0.0,0.0
4944,57.0,120.0,120.0,0.0,0.0
4945,62.0,120.0,120.0,0.0,0.0
4946,53.0,120.0,120.0,0.0,0.0
4947,58.0,120.0,120.0,0.0,0.0
4948,62.0,120.0,120.0,0.0,0.0
4949,65.0,120.0,120.0,0.0,0.0
4950,67.0,120.0,120.0,0.0,0.0
4951,81.0,0.0,240.0,0.0,0.0
4952,69.0,120.0,240.0,0.0,0.0
4953,65.0,120.0,120.0,0.0,0.0
4954,64.0,0.0,120.0,0.0,0.0
4955,82.0,0.0,240.0,0.0,0.0
4956,62.0,120.0,120.0,0.0,0.0
4957,70.0,0.0,240.0,0.0,0.0
4958,64.0,120.0,120.0,0.0,0.0
4959,74.0,0.0,240.0,0.0,0.0
4960,86.0,120.0,240.0,0.0,0.0
4961,62.0,120.0,120.0,0.0,0.0
4962,60.0,0.0,120.0,0.0,0.0
4963,58.0,120.0,120.0,0.0,0.0
4964,89.0,0.0,120.0,0.0,0.0
4965,77.0,0.0,120.0,0.0,0.0
4966,60.0,120.0,120.0,0.0,0.0
4967,77.0,0.0,120.0,0.0,0.0
4968,58.0,0.0,120.0,0.0,0.0
4969,89.0,120.0,120.0,0.0,0.0
4970,57.0,120.0,120.0,0.0,0.0
4971,89.0,0.0,480.0,0.0,0.0
4972,77.0,120.0,480.0,0.0,0.0
4973,56.0,120.0,120.0,0.0,0.0
4974,57.0,120.0,120.0,0.0,0.0
4975,59.0,120.0,120.0,0.0,0.0
4976,60.0,0.0,120.0,0.0,0.0
4977,88.0,0.0,960.0,0.0,0.0
4978,76.0,0.0,960.0,0.0,0.0
4979,62.0,120.0,120.0,0.0,0.0
4980,60.0,120.0,120.0,0.0,0.0
4981,59.0,120.0,120.0,0.0,0.0
4982,57.0,120.0,120.0,0.0,0.0
4983,56.0,120.0,120.0,0.0,0.0
4984,57.0,120.0,120.0,0.0,0.0
4985,56.0,120.0,120.0,0.0,0.0
4986,53.0,120.0,120.0,0.0,0.0
4987,80.0,0.0,480.0,0.0,0.0
4988,52.0,120.0,120.0,0.0,0.0
4989,68.0,120.0,480.0,0.0,0.0
4990,50.0,120.0,120.0,0.0,0.0
4991,48.0,120.0,120.0,0.0,0.0
4992,47.0,0.0,120.0,0.0,0.0
4993,45.0,120.0,480.0,0.0,0.0
4994,69.0,0.0,120.0,0.0,0.0
4995,81.0,120.0,120.0,0.0,0.0
4996,64.0,120.0,120.0,0.0,0.0
4997,69.0,120.0,120.0,0.0,0.0
4998,72.0,0.0,120.0,0.0,0.0
4999,76.0,120.0,120.0,0.0,0.0
5000,64.0,120.0,120.0,0.0,0.0
5001,69.0,120.0,120.0,0.0,0.0
5002,57.0,240.0,120.0,0.0,0.0
5003,60.0,0.0,120.0,0.0,0.0
5004,72.0,0.0,120.0,0.0,0.0
5005,57.0,0.0,480.0,0.0,0.0
5006,60.0,0.0,480.0,0.0,0.0
5007,64.0,120.0,120.0,0.0,0.0
5008,69.0,120.0,120.0,0.0,0.0
5009,72.0,120.0,120.0,0.0,0.0
5010,76.0,120.0,120.0,0.0,0.0
5011,64.0,120.0,120.0,0.0,0.0
5012,69.0,120.0,120.0,0.0,0.0
5013,72.0,0.0,120.0,0.0,0.0
5014,57.0,0.0,15.0,0.0,0.0
5015,60.0,240.0,15.0,0.0,0.0
5016,63.0,120.0,120.0,0.0,0.0
5017,66.0,120.0,120.0,0.0,0.0
5018,72.0,240.0,120.0,0.0,0.0
5019,75.0,0.0,480.0,0.0,0.0
5020,63.0,120.0,120.0,0.0,0.0
5021,66.0,120.0,120.0,0.0,0.0
5022,72.0,0.0,120.0,0.0,0.0
5023,75.0,0.0,480.0,0.0,0.0
5024,59.0,0.0,240.0,0.0,0.0
5025,56.0,0.0,240.0,0.0,0.0
5026,52.0,0.0,15.0,0.0,0.0
5027,63.0,0.0,120.0,0.0,0.0
5028,68.0,120.0,120.0,0.0,0.0
5029,71.0,240.0,120.0,0.0,0.0
5030,76.0,240.0,480.0,0.0,0.0
5031,64.0,120.0,120.0,0.0,0.0
5032,68.0,120.0,120.0,0.0,0.0
5033,71.0,0.0,120.0,0.0,0.0
5034,40.0,120.0,480.0,0.0,0.0
5035,52.0,0.0,480.0,0.0,0.0
5036,64.0,120.0,120.0,0.0,0.0
5037,68.0,120.0,120.0,0.0,0.0
5038,71.0,0.0,120.0,0.0,0.0
5039,76.0,120.0,120.0,0.0,0.0
5040,64.0,120.0,120.0,0.0,0.0
5041,68.0,120.0,120.0,0.0,0.0
5042,62.0,0.0,120.0,0.0,0.0
5043,71.0,240.0,120.0,0.0,0.0
5044,59.0,0.0,15.0,0.0,0.0
5045,62.0,0.0,480.0,0.0,0.0
5046,64.0,120.0,120.0,0.0,0.0
5047,68.0,120.0,120.0,0.0,0.0
5048,71.0,120.0,120.0,0.0,0.0
5049,76.0,120.0,120.0,0.0,0.0
5050,64.0,120.0,120.0,0.0,0.0
5051,68.0,120.0,120.0,0.0,0.0
5052,71.0,240.0,120.0,0.0,0.0
5053,59.0,0.0,15.0,0.0,0.0
5054,62.0,0.0,15.0,0.0,0.0
5055,64.0,120.0,120.0,0.0,0.0
5056,68.0,120.0,120.0,0.0,0.0
5057,71.0,240.0,120.0,0.0,0.0
5058,76.0,0.0,480.0,0.0,0.0
5059,64.0,120.0,120.0,0.0,0.0
5060,68.0,120.0,120.0,0.0,0.0
5061,71.0,0.0,120.0,0.0,0.0
5062,60.0,120.0,240.0,0.0,0.0
5063,57.0,240.0,15.0,0.0,0.0
5064,64.0,0.0,120.0,0.0,0.0
5065,68.0,120.0,120.0,0.0,0.0
5066,71.0,240.0,120.0,0.0,0.0
5067,76.0,0.0,15.0,0.0,0.0
5068,64.0,120.0,120.0,0.0,0.0
5069,69.0,120.0,120.0,0.0,0.0
5070,72.0,240.0,120.0,0.0,0.0
5071,45.0,120.0,480.0,0.0,0.0
5072,57.0,0.0,480.0,0.0,0.0
5073,69.0,120.0,120.0,0.0,0.0
5074,73.0,120.0,120.0,0.0,0.0
5075,76.0,0.0,120.0,0.0,0.0
5076,81.0,120.0,120.0,0.0,0.0
5077,69.0,120.0,120.0,0.0,0.0
5078,73.0,120.0,120.0,0.0,0.0
5079,76.0,240.0,120.0,0.0,0.0
5080,64.0,0.0,15.0,0.0,0.0
5081,67.0,0.0,15.0,0.0,0.0
5082,69.0,120.0,120.0,0.0,0.0
5083,73.0,120.0,120.0,0.0,0.0
5084,76.0,0.0,120.0,0.0,0.0
5085,81.0,120.0,120.0,0.0,0.0
5086,69.0,120.0,120.0,0.0,0.0
5087,73.0,120.0,120.0,0.0,0.0
5088,67.0,0.0,120.0,0.0,0.0
5089,64.0,0.0,120.0,0.0,0.0
5090,76.0,240.0,120.0,0.0,0.0
5091,62.0,0.0,1200.0,0.0,0.0
5092,67.0,0.0,1200.0,0.0,0.0
5093,64.0,0.0,1200.0,0.0,0.0
5094,69.0,120.0,120.0,0.0,0.0
5095,73.0,120.0,120.0,0.0,0.0
5096,76.0,240.0,120.0,0.0,0.0
5097,81.0,0.0,480.0,0.0,0.0
5098,69.0,120.0,120.0,0.0,0.0
5099,73.0,120.0,120.0,0.0,0.0
5100,76.0,120.0,120.0,0.0,0.0
5101,69.0,0.0,120.0,0.0,0.0
5102,73.0,120.0,120.0,0.0,0.0
5103,81.0,120.0,120.0,0.0,0.0
5104,74.0,0.0,120.0,0.0,0.0
5105,65.0,0.0,240.0,0.0,0.0
5106,62.0,0.0,240.0,0.0,0.0
5107,69.0,120.0,120.0,0.0,0.0
5108,81.0,120.0,120.0,0.0,0.0
5109,60.0,0.0,240.0,0.0,0.0
5110,64.0,120.0,240.0,0.0,0.0
5111,76.0,120.0,120.0,0.0,0.0
5112,69.0,0.0,120.0,0.0,0.0
5113,81.0,0.0,120.0,0.0,0.0
5114,69.0,0.0,120.0,0.0,0.0
5115,59.0,240.0,240.0,0.0,0.0
5116,62.0,0.0,240.0,0.0,0.0
5117,77.0,120.0,120.0,0.0,0.0
5118,81.0,0.0,120.0,0.0,0.0
5119,52.0,0.0,480.0,0.0,0.0
5120,57.0,240.0,480.0,0.0,0.0
5121,60.0,0.0,480.0,0.0,0.0
5122,64.0,120.0,120.0,0.0,0.0
5123,69.0,120.0,120.0,0.0,0.0
5124,72.0,0.0,120.0,0.0,0.0
5125,76.0,240.0,480.0,0.0,0.0
5126,64.0,120.0,120.0,0.0,0.0
5127,69.0,120.0,120.0,0.0,0.0
5128,57.0,0.0,120.0,0.0,0.0
5129,72.0,0.0,120.0,0.0,0.0
5130,60.0,0.0,120.0,0.0,0.0
5131,62.0,0.0,480.0,0.0,0.0
5132,52.0,0.0,480.0,0.0,0.0
5133,59.0,0.0,480.0,0.0,0.0
5134,76.0,240.0,480.0,0.0,0.0
5135,64.0,120.0,120.0,0.0,0.0
5136,71.0,120.0,120.0,0.0,0.0
5137,74.0,0.0,120.0,0.0,0.0
5138,76.0,0.0,480.0,0.0,0.0
5139,64.0,120.0,120.0,0.0,0.0
5140,68.0,120.0,120.0,0.0,0.0
5141,71.0,0.0,120.0,0.0,0.0
5142,56.0,0.0,120.0,0.0,0.0
5143,59.0,120.0,120.0,0.0,0.0
5144,69.0,120.0,480.0,0.0,0.0
5145,72.0,0.0,480.0,0.0,0.0
5146,76.0,0.0,480.0,0.0,0.0
5147,57.0,120.0,120.0,0.0,0.0
5148,64.0,120.0,120.0,0.0,0.0
5149,60.0,120.0,120.0,0.0,0.0
5150,57.0,0.0,120.0,0.0,0.0
5151,52.0,120.0,120.0,0.0,0.0
5152,60.0,120.0,120.0,0.0,0.0
5153,57.0,120.0,120.0,0.0,0.0
5154,52.0,120.0,120.0,0.0,0.0
5155,84.0,0.0,120.0,0.0,0.0
5156,84.0,0.0,480.0,0.0,0.0
5157,81.0,0.0,15.0,0.0,0.0
5158,48.0,120.0,120.0,0.0,0.0
5159,57.0,120.0,120.0,0.0,0.0
5160,52.0,120.0,120.0,0.0,0.0
5161,48.0,0.0,120.0,0.0,0.0
5162,45.0,120.0,120.0,0.0,0.0
5163,52.0,120.0,120.0,0.0,0.0
5164,48.0,120.0,120.0,0.0,0.0
5165,45.0,120.0,120.0,0.0,0.0
5166,81.0,0.0,15.0,0.0,0.0
5167,84.0,0.0,15.0,0.0,0.0
5168,40.0,120.0,120.0,0.0,0.0
5169,45.0,120.0,120.0,0.0,0.0
5170,48.0,120.0,120.0,0.0,0.0
5171,52.0,120.0,120.0,0.0,0.0
5172,51.0,120.0,120.0,0.0,0.0
5173,52.0,120.0,120.0,0.0,0.0
5174,51.0,120.0,120.0,0.0,0.0
5175,52.0,0.0,120.0,0.0,0.0
5176,80.0,0.0,240.0,0.0,0.0
5177,83.0,120.0,240.0,0.0,0.0
5178,51.0,120.0,120.0,0.0,0.0
5179,52.0,0.0,120.0,0.0,0.0
5180,47.0,120.0,120.0,0.0,0.0
5181,52.0,120.0,120.0,0.0,0.0
5182,44.0,120.0,120.0,0.0,0.0
5183,52.0,120.0,120.0,0.0,0.0
5184,47.0,120.0,120.0,0.0,0.0
5185,52.0,120.0,120.0,0.0,0.0
5186,40.0,120.0,120.0,0.0,0.0
5187,44.0,120.0,120.0,0.0,0.0
5188,47.0,120.0,120.0,0.0,0.0
5189,52.0,120.0,120.0,0.0,0.0
5190,44.0,120.0,120.0,0.0,0.0
5191,47.0,120.0,120.0,0.0,0.0
5192,52.0,120.0,120.0,0.0,0.0
5193,56.0,0.0,120.0,0.0,0.0
5194,83.0,0.0,120.0,0.0,0.0
5195,86.0,120.0,120.0,0.0,0.0
5196,47.0,120.0,120.0,0.0,0.0
5197,86.0,0.0,480.0,0.0,0.0
5198,83.0,0.0,480.0,0.0,0.0
5199,52.0,120.0,120.0,0.0,0.0
5200,56.0,120.0,120.0,0.0,0.0
5201,59.0,120.0,120.0,0.0,0.0
5202,52.0,120.0,120.0,0.0,0.0
5203,56.0,120.0,120.0,0.0,0.0
5204,59.0,120.0,120.0,0.0,0.0
5205,83.0,0.0,120.0,0.0,0.0
5206,64.0,120.0,120.0,0.0,0.0
5207,86.0,0.0,120.0,0.0,0.0
5208,86.0,0.0,960.0,0.0,0.0
5209,57.0,120.0,120.0,0.0,0.0
5210,83.0,0.0,960.0,0.0,0.0
5211,60.0,120.0,120.0,0.0,0.0
5212,64.0,120.0,120.0,0.0,0.0
5213,69.0,120.0,120.0,0.0,0.0
5214,68.0,120.0,120.0,0.0,0.0
5215,69.0,120.0,120.0,0.0,0.0
5216,68.0,120.0,120.0,0.0,0.0
5217,69.0,120.0,120.0,0.0,0.0
5218,81.0,0.0,240.0,0.0,0.0
5219,84.0,0.0,240.0,0.0,0.0
5220,68.0,120.0,120.0,0.0,0.0
5221,69.0,120.0,120.0,0.0,0.0
5222,64.0,120.0,120.0,0.0,0.0
5223,69.0,120.0,120.0,0.0,0.0
5224,60.0,120.0,120.0,0.0,0.0
5225,69.0,120.0,120.0,0.0,0.0
5226,64.0,120.0,120.0,0.0,0.0
5227,69.0,120.0,120.0,0.0,0.0
5228,57.0,120.0,120.0,0.0,0.0
5229,61.0,120.0,120.0,0.0,0.0
5230,64.0,120.0,120.0,0.0,0.0
5231,69.0,120.0,120.0,0.0,0.0
5232,61.0,120.0,120.0,0.0,0.0
5233,64.0,120.0,120.0,0.0,0.0
5234,69.0,120.0,120.0,0.0,0.0
5235,73.0,120.0,120.0,0.0,0.0
5236,91.0,0.0,120.0,0.0,0.0
5237,88.0,0.0,15.0,0.0,0.0
5238,64.0,120.0,120.0,0.0,0.0
5239,91.0,120.0,480.0,0.0,0.0
5240,69.0,120.0,120.0,0.0,0.0
5241,73.0,120.0,120.0,0.0,0.0
5242,76.0,0.0,120.0,0.0,0.0
5243,69.0,120.0,120.0,0.0,0.0
5244,73.0,120.0,120.0,0.0,0.0
5245,76.0,120.0,120.0,0.0,0.0
5246,81.0,0.0,120.0,0.0,0.0
5247,88.0,0.0,120.0,0.0,0.0
5248,73.0,120.0,120.0,0.0,0.0
5249,88.0,120.0,1200.0,0.0,0.0
5250,91.0,120.0,15.0,0.0,0.0
5251,81.0,120.0,120.0,0.0,0.0
5252,80.0,120.0,120.0,0.0,0.0
5253,81.0,120.0,120.0,0.0,0.0
5254,73.0,120.0,120.0,0.0,0.0
5255,81.0,120.0,120.0,0.0,0.0
5256,73.0,120.0,120.0,0.0,0.0
5257,81.0,120.0,120.0,0.0,0.0
5258,73.0,120.0,120.0,0.0,0.0
5259,81.0,0.0,120.0,0.0,0.0
5260,89.0,0.0,240.0,0.0,0.0
5261,86.0,120.0,240.0,0.0,0.0
5262,74.0,120.0,120.0,0.0,0.0
5263,81.0,0.0,120.0,0.0,0.0
5264,76.0,120.0,120.0,0.0,0.0
5265,88.0,0.0,240.0,0.0,0.0
5266,84.0,120.0,240.0,0.0,0.0
5267,81.0,0.0,120.0,0.0,0.0
5268,83.0,120.0,240.0,0.0,0.0
5269,86.0,0.0,240.0,0.0,0.0
5270,77.0,120.0,120.0,0.0,0.0
5271,84.0,0.0,480.0,0.0,0.0
5272,81.0,0.0,15.0,0.0,0.0
5273,64.0,120.0,120.0,0.0,0.0
5274,69.0,120.0,120.0,0.0,0.0
5275,72.0,120.0,120.0,0.0,0.0
5276,76.0,120.0,120.0,0.0,0.0
5277,75.0,120.0,120.0,0.0,0.0
5278,76.0,120.0,120.0,0.0,0.0
5279,75.0,120.0,120.0,0.0,0.0
5280,76.0,120.0,120.0,0.0,0.0
5281,93.0,0.0,120.0,0.0,0.0
5282,84.0,0.0,120.0,0.0,0.0
5283,81.0,0.0,120.0,0.0,0.0
5284,83.0,0.0,480.0,0.0,0.0
5285,95.0,0.0,480.0,0.0,0.0
5286,86.0,0.0,480.0,0.0,0.0
5287,64.0,120.0,120.0,0.0,0.0
5288,68.0,120.0,120.0,0.0,0.0
5289,71.0,120.0,120.0,0.0,0.0
5290,76.0,120.0,120.0,0.0,0.0
5291,64.0,120.0,120.0,0.0,0.0
5292,71.0,120.0,120.0,0.0,0.0
5293,74.0,120.0,120.0,0.0,0.0
5294,80.0,0.0,120.0,0.0,0.0
5295,76.0,120.0,120.0,0.0,0.0
5296,83.0,0.0,120.0,0.0,0.0
5297,92.0,0.0,120.0,0.0,0.0
5298,81.0,0.0,120.0,0.0,0.0
5299,84.0,0.0,120.0,0.0,0.0
5300,93.0,120.0,120.0,0.0,0.0
5301,57.0,0.0,120.0,0.0,0.0
5302,72.0,0.0,120.0,0.0,0.0
5303,69.0,0.0,120.0,0.0,0.0
5304,76.0,120.0,15.0,0.0,0.0
5305,64.0,120.0,120.0,0.0,0.0
5306,81.0,0.0,120.0,0.0,0.0
5307,69.0,0.0,120.0,0.0,0.0
5308,72.0,0.0,120.0,0.0,0.0
5309,84.0,120.0,120.0,0.0,0.0
5310,64.0,0.0,120.0,0.0,0.0
5311,88.0,120.0,120.0,0.0,0.0
5312,76.0,0.0,120.0,0.0,0.0
5313,89.0,120.0,120.0,0.0,0.0
5314,72.0,0.0,120.0,0.0,0.0
5315,69.0,0.0,120.0,0.0,0.0
5316,76.0,120.0,120.0,0.0,0.0
5317,64.0,0.0,120.0,0.0,0.0
5318,88.0,0.0,120.0,0.0,0.0
5319,86.0,0.0,120.0,0.0,0.0
5320,72.0,0.0,120.0,0.0,0.0
5321,69.0,120.0,120.0,0.0,0.0
5322,84.0,120.0,120.0,0.0,0.0
5323,64.0,0.0,120.0,0.0,0.0
5324,76.0,0.0,120.0,0.0,0.0
5325,86.0,0.0,120.0,0.0,0.0
5326,69.0,0.0,120.0,0.0,0.0
5327,72.0,120.0,120.0,0.0,0.0
5328,84.0,120.0,120.0,0.0,0.0
5329,76.0,0.0,120.0,0.0,0.0
5330,64.0,0.0,120.0,0.0,0.0
5331,72.0,0.0,120.0,0.0,0.0
5332,69.0,0.0,120.0,0.0,0.0
5333,83.0,120.0,120.0,0.0,0.0
5334,76.0,0.0,120.0,0.0,0.0
5335,81.0,0.0,120.0,0.0,0.0
5336,64.0,120.0,120.0,0.0,0.0
5337,72.0,120.0,120.0,0.0,0.0
5338,69.0,0.0,120.0,0.0,0.0
5339,83.0,0.0,120.0,0.0,0.0
5340,84.0,0.0,120.0,0.0,0.0
5341,64.0,120.0,120.0,0.0,0.0
5342,76.0,0.0,120.0,0.0,0.0
5343,81.0,0.0,120.0,0.0,0.0
5344,69.0,0.0,120.0,0.0,0.0
5345,72.0,120.0,120.0,0.0,0.0
5346,57.0,120.0,120.0,0.0,0.0
5347,69.0,120.0,120.0,0.0,0.0
5348,76.0,0.0,120.0,0.0,0.0
5349,72.0,0.0,120.0,0.0,0.0
5350,81.0,0.0,120.0,0.0,0.0
5351,76.0,120.0,120.0,0.0,0.0
5352,64.0,0.0,120.0,0.0,0.0
5353,84.0,0.0,120.0,0.0,0.0
5354,69.0,0.0,120.0,0.0,0.0
5355,72.0,120.0,120.0,0.0,0.0
5356,88.0,0.0,120.0,0.0,0.0
5357,64.0,0.0,120.0,0.0,0.0
5358,76.0,120.0,120.0,0.0,0.0
5359,89.0,120.0,120.0,0.0,0.0
5360,72.0,0.0,120.0,0.0,0.0
5361,69.0,0.0,120.0,0.0,0.0
5362,64.0,0.0,120.0,0.0,0.0
5363,76.0,0.0,120.0,0.0,0.0
5364,88.0,120.0,120.0,0.0,0.0
5365,86.0,120.0,120.0,0.0,0.0
5366,72.0,0.0,120.0,0.0,0.0
5367,69.0,0.0,120.0,0.0,0.0
5368,64.0,0.0,120.0,0.0,0.0
5369,76.0,120.0,120.0,0.0,0.0
5370,84.0,0.0,120.0,0.0,0.0
5371,72.0,0.0,120.0,0.0,0.0
5372,69.0,120.0,120.0,0.0,0.0
5373,86.0,0.0,120.0,0.0,0.0
5374,76.0,0.0,120.0,0.0,0.0
5375,84.0,120.0,120.0,0.0,0.0
5376,64.0,0.0,120.0,0.0,0.0
5377,69.0,120.0,120.0,0.0,0.0
5378,72.0,0.0,120.0,0.0,0.0
5379,83.0,0.0,120.0,0.0,0.0
5380,76.0,0.0,120.0,0.0,0.0
5381,64.0,120.0,120.0,0.0,0.0
5382,81.0,0.0,120.0,0.0,0.0
5383,69.0,0.0,120.0,0.0,0.0
5384,72.0,0.0,120.0,0.0,0.0
5385,83.0,120.0,120.0,0.0,0.0
5386,76.0,0.0,120.0,0.0,0.0
5387,64.0,120.0,120.0,0.0,0.0
5388,84.0,0.0,120.0,0.0,0.0
5389,81.0,120.0,120.0,0.0,0.0
5390,72.0,0.0,120.0,0.0,0.0
5391,69.0,0.0,120.0,0.0,0.0
5392,48.0,120.0,120.0,0.0,0.0
5393,60.0,0.0,120.0,0.0,0.0
5394,58.0,120.0,120.0,0.0,0.0
5395,82.0,0.0,120.0,0.0,0.0
5396,88.0,0.0,120.0,0.0,0.0
5397,55.0,120.0,120.0,0.0,0.0
5398,64.0,0.0,120.0,0.0,0.0
5399,91.0,0.0,120.0,0.0,0.0
5400,58.0,120.0,120.0,0.0,0.0
5401,60.0,0.0,120.0,0.0,0.0
5402,94.0,0.0,120.0,0.0,0.0
5403,64.0,0.0,120.0,0.0,0.0
5404,55.0,120.0,120.0,0.0,0.0
5405,96.0,0.0,120.0,0.0,0.0
5406,60.0,120.0,120.0,0.0,0.0
5407,58.0,0.0,120.0,0.0,0.0
5408,94.0,120.0,120.0,0.0,0.0
5409,64.0,0.0,120.0,0.0,0.0
5410,55.0,0.0,120.0,0.0,0.0
5411,58.0,0.0,120.0,0.0,0.0
5412,93.0,120.0,120.0,0.0,0.0
5413,60.0,0.0,120.0,0.0,0.0
5414,91.0,120.0,120.0,0.0,0.0
5415,55.0,0.0,120.0,0.0,0.0
5416,64.0,0.0,120.0,0.0,0.0
5417,93.0,0.0,120.0,0.0,0.0
5418,60.0,120.0,120.0,0.0,0.0
5419,58.0,0.0,120.0,0.0,0.0
5420,91.0,0.0,120.0,0.0,0.0
5421,64.0,0.0,120.0,0.0,0.0
5422,55.0,120.0,120.0,0.0,0.0
5423,89.0,0.0,120.0,0.0,0.0
5424,58.0,0.0,120.0,0.0,0.0
5425,60.0,120.0,120.0,0.0,0.0
5426,88.0,0.0,120.0,0.0,0.0
5427,64.0,120.0,120.0,0.0,0.0
5428,55.0,0.0,120.0,0.0,0.0
5429,58.0,0.0,120.0,0.0,0.0
5430,89.0,0.0,120.0,0.0,0.0
5431,60.0,120.0,120.0,0.0,0.0
5432,91.0,0.0,120.0,0.0,0.0
5433,64.0,0.0,120.0,0.0,0.0
5434,55.0,120.0,120.0,0.0,0.0
5435,60.0,0.0,120.0,0.0,0.0
5436,88.0,0.0,120.0,0.0,0.0
5437,58.0,120.0,120.0,0.0,0.0
5438,48.0,120.0,120.0,0.0,0.0
5439,58.0,120.0,120.0,0.0,0.0
5440,60.0,0.0,120.0,0.0,0.0
5441,82.0,0.0,120.0,0.0,0.0
5442,88.0,0.0,120.0,0.0,0.0
5443,64.0,120.0,120.0,0.0,0.0
5444,55.0,0.0,120.0,0.0,0.0
5445,91.0,120.0,120.0,0.0,0.0
5446,58.0,0.0,120.0,0.0,0.0
5447,60.0,0.0,120.0,0.0,0.0
5448,64.0,0.0,120.0,0.0,0.0
5449,94.0,120.0,120.0,0.0,0.0
5450,55.0,0.0,120.0,0.0,0.0
5451,58.0,0.0,120.0,0.0,0.0
5452,60.0,120.0,120.0,0.0,0.0
5453,96.0,0.0,120.0,0.0,0.0
5454,55.0,120.0,120.0,0.0,0.0
5455,94.0,0.0,120.0,0.0,0.0
5456,64.0,0.0,120.0,0.0,0.0
5457,93.0,0.0,120.0,0.0,0.0
5458,60.0,0.0,120.0,0.0,0.0
5459,58.0,120.0,120.0,0.0,0.0
5460,55.0,120.0,120.0,0.0,0.0
5461,64.0,0.0,120.0,0.0,0.0
5462,91.0,0.0,120.0,0.0,0.0
5463,60.0,0.0,120.0,0.0,0.0
5464,58.0,0.0,120.0,0.0,0.0
5465,93.0,120.0,120.0,0.0,0.0
5466,55.0,0.0,120.0,0.0,0.0
5467,64.0,0.0,120.0,0.0,0.0
5468,91.0,120.0,120.0,0.0,0.0
5469,58.0,120.0,120.0,0.0,0.0
5470,60.0,0.0,120.0,0.0,0.0
5471,89.0,0.0,120.0,0.0,0.0
5472,88.0,120.0,120.0,0.0,0.0
5473,55.0,0.0,120.0,0.0,0.0
5474,64.0,0.0,120.0,0.0,0.0
5475,60.0,0.0,120.0,0.0,0.0
5476,86.0,120.0,120.0,0.0,0.0
5477,58.0,0.0,120.0,0.0,0.0
5478,84.0,0.0,120.0,0.0,0.0
5479,55.0,0.0,120.0,0.0,0.0
5480,64.0,120.0,120.0,0.0,0.0
5481,82.0,0.0,120.0,0.0,0.0
5482,60.0,120.0,120.0,0.0,0.0
5483,58.0,0.0,120.0,0.0,0.0
5484,81.0,120.0,120.0,0.0,0.0
5485,53.0,0.0,120.0,0.0,0.0
5486,65.0,0.0,120.0,0.0,0.0
5487,84.0,120.0,120.0,0.0,0.0
5488,69.0,0.0,120.0,0.0,0.0
5489,89.0,0.0,120.0,0.0,0.0
5490,72.0,120.0,120.0,0.0,0.0
5491,60.0,0.0,120.0,0.0,0.0
5492,93.0,120.0,120.0,0.0,0.0
5493,69.0,0.0,120.0,0.0,0.0
5494,65.0,0.0,120.0,0.0,0.0
5495,60.0,0.0,120.0,0.0,0.0
5496,72.0,0.0,120.0,0.0,0.0
5497,96.0,120.0,120.0,0.0,0.0
5498,69.0,120.0,120.0,0.0,0.0
5499,65.0,0.0,120.0,0.0,0.0
5500,98.0,0.0,120.0,0.0,0.0
5501,60.0,120.0,120.0,0.0,0.0
5502,96.0,0.0,120.0,0.0,0.0
5503,72.0,0.0,120.0,0.0,0.0
5504,65.0,0.0,120.0,0.0,0.0
5505,69.0,0.0,120.0,0.0,0.0
5506,94.0,120.0,120.0,0.0,0.0
5507,60.0,120.0,120.0,0.0,0.0
5508,72.0,0.0,120.0,0.0,0.0
5509,93.0,0.0,120.0,0.0,0.0
5510,65.0,0.0,120.0,0.0,0.0
5511,69.0,0.0,120.0,0.0,0.0
5512,94.0,120.0,120.0,0.0,0.0
5513,60.0,0.0,120.0,0.0,0.0
5514,72.0,120.0,120.0,0.0,0.0
5515,93.0,0.0,120.0,0.0,0.0
5516,65.0,120.0,120.0,0.0,0.0
5517,69.0,0.0,120.0,0.0,0.0
5518,91.0,0.0,120.0,0.0,0.0
5519,72.0,0.0,120.0,0.0,0.0
5520,60.0,120.0,120.0,0.0,0.0
5521,89.0,0.0,120.0,0.0,0.0
5522,91.0,120.0,120.0,0.0,0.0
5523,69.0,0.0,120.0,0.0,0.0
5524,65.0,0.0,120.0,0.0,0.0
5525,72.0,0.0,120.0,0.0,0.0
5526,60.0,0.0,120.0,0.0,0.0
5527,93.0,120.0,120.0,0.0,0.0
5528,69.0,0.0,120.0,0.0,0.0
5529,65.0,0.0,120.0,0.0,0.0
5530,89.0,120.0,120.0,0.0,0.0
5531,53.0,120.0,120.0,0.0,0.0
5532,84.0,120.0,120.0,0.0,0.0
5533,65.0,0.0,120.0,0.0,0.0
5534,69.0,0.0,120.0,0.0,0.0
5535,60.0,0.0,120.0,0.0,0.0
5536,89.0,120.0,120.0,0.0,0.0
5537,72.0,0.0,120.0,0.0,0.0
5538,93.0,0.0,120.0,0.0,0.0
5539,65.0,120.0,120.0,0.0,0.0
5540,69.0,0.0,120.0,0.0,0.0
5541,96.0,120.0,120.0,0.0,0.0
5542,72.0,0.0,240.0,0.0,0.0
5543,98.0,120.0,120.0,0.0,0.0
5544,96.0,120.0,120.0,0.0,0.0
5545,77.0,0.0,240.0,0.0,0.0
5546,94.0,120.0,120.0,0.0,0.0
5547,81.0,120.0,240.0,0.0,0.0
5548,93.0,120.0,120.0,0.0,0.0
5549,94.0,0.0,120.0,0.0,0.0
5550,84.0,120.0,240.0,0.0,0.0
5551,96.0,120.0,120.0,0.0,0.0
5552,94.0,0.0,120.0,0.0,0.0
5553,93.0,120.0,120.0,0.0,0.0
5554,89.0,0.0,240.0,0.0,0.0
5555,94.0,120.0,120.0,0.0,0.0
5556,96.0,120.0,120.0,0.0,0.0
5557,93.0,240.0,120.0,0.0,0.0
5558,89.0,0.0,15.0,0.0,0.0
5559,86.0,0.0,720.0,0.0,0.0
5560,94.0,120.0,120.0,0.0,0.0
5561,96.0,120.0,120.0,0.0,0.0
5562,94.0,120.0,120.0,0.0,0.0
5563,96.0,120.0,120.0,0.0,0.0
5564,94.0,120.0,120.0,0.0,0.0
5565,88.0,0.0,240.0,0.0,0.0
5566,93.0,120.0,120.0,0.0,0.0
5567,84.0,240.0,240.0,0.0,0.0
5568,94.0,0.0,120.0,0.0,0.0
5569,83.0,0.0,480.0,0.0,0.0
5570,86.0,0.0,480.0,0.0,0.0
5571,92.0,120.0,120.0,0.0,0.0
5572,93.0,120.0,120.0,0.0,0.0
5573,92.0,240.0,120.0,0.0,0.0
5574,88.0,240.0,480.0,0.0,0.0
5575,84.0,0.0,480.0,0.0,0.0
5576,93.0,120.0,120.0,0.0,0.0
5577,95.0,120.0,120.0,0.0,0.0
5578,93.0,0.0,120.0,0.0,0.0
5579,86.0,0.0,720.0,0.0,0.0
5580,89.0,0.0,720.0,0.0,0.0
5581,94.0,120.0,120.0,0.0,0.0
5582,96.0,120.0,120.0,0.0,0.0
5583,94.0,120.0,120.0,0.0,0.0
5584,96.0,120.0,120.0,0.0,0.0
5585,94.0,120.0,120.0,0.0,0.0
5586,84.0,0.0,240.0,0.0,0.0
5587,93.0,120.0,120.0,0.0,0.0
5588,88.0,0.0,240.0,0.0,0.0
5589,94.0,240.0,120.0,0.0,0.0
5590,86.0,0.0,480.0,0.0,0.0
5591,83.0,240.0,480.0,0.0,0.0
5592,92.0,120.0,120.0,0.0,0.0
5593,93.0,120.0,120.0,0.0,0.0
5594,92.0,0.0,120.0,0.0,0.0
5595,84.0,0.0,480.0,0.0,0.0
5596,88.0,240.0,480.0,0.0,0.0
5597,93.0,120.0,120.0,0.0,0.0
5598,95.0,120.0,120.0,0.0,0.0
5599,93.0,0.0,120.0,0.0,0.0
5600,89.0,0.0,720.0,0.0,0.0
5601,86.0,0.0,720.0,0.0,0.0
5602,94.0,120.0,120.0,0.0,0.0
5603,96.0,120.0,120.0,0.0,0.0
5604,94.0,120.0,120.0,0.0,0.0
5605,96.0,120.0,120.0,0.0,0.0
5606,94.0,120.0,120.0,0.0,0.0
5607,84.0,0.0,240.0,0.0,0.0
5608,88.0,240.0,240.0,0.0,0.0
5609,93.0,120.0,120.0,0.0,0.0
5610,95.0,0.0,120.0,0.0,0.0
5611,83.0,0.0,480.0,0.0,0.0
5612,86.0,0.0,480.0,0.0,0.0
5613,92.0,120.0,120.0,0.0,0.0
5614,93.0,120.0,120.0,0.0,0.0
5615,92.0,240.0,120.0,0.0,0.0
5616,81.0,240.0,480.0,0.0,0.0
5617,84.0,0.0,480.0,0.0,0.0
5618,89.0,120.0,120.0,0.0,0.0
5619,91.0,120.0,120.0,0.0,0.0
5620,89.0,0.0,120.0,0.0,0.0
5621,83.0,0.0,480.0,0.0,0.0
5622,80.0,240.0,480.0,0.0,0.0
5623,88.0,120.0,120.0,0.0,0.0
5624,89.0,120.0,120.0,0.0,0.0
5625,88.0,0.0,120.0,0.0,0.0
5626,78.0,0.0,480.0,0.0,0.0
5627,87.0,120.0,120.0,0.0,0.0
5628,88.0,120.0,120.0,0.0,0.0
5629,87.0,240.0,120.0,0.0,0.0
5630,77.0,0.0,480.0,0.0,0.0
5631,81.0,0.0,15.0,0.0,0.0
5632,86.0,120.0,120.0,0.0,0.0
5633,88.0,120.0,120.0,0.0,0.0
5634,86.0,240.0,120.0,0.0,0.0
5635,81.0,240.0,480.0,0.0,0.0
5636,76.0,0.0,480.0,0.0,0.0
5637,84.0,120.0,120.0,0.0,0.0
5638,86.0,120.0,120.0,0.0,0.0
5639,84.0,0.0,120.0,0.0,0.0
5640,75.0,0.0,960.0,0.0,0.0
5641,84.0,120.0,120.0,0.0,0.0
5642,86.0,120.0,120.0,0.0,0.0
5643,84.0,240.0,120.0,0.0,0.0
5644,78.0,0.0,480.0,0.0,0.0
5645,83.0,120.0,120.0,0.0,0.0
5646,84.0,120.0,120.0,0.0,0.0
5647,83.0,240.0,120.0,0.0,0.0
5648,72.0,0.0,480.0,0.0,0.0
5649,76.0,0.0,960.0,0.0,0.0
5650,64.0,0.0,960.0,0.0,0.0
5651,81.0,120.0,120.0,0.0,0.0
5652,83.0,120.0,120.0,0.0,0.0
5653,81.0,240.0,120.0,0.0,0.0
5654,71.0,0.0,480.0,0.0,0.0
5655,80.0,120.0,120.0,0.0,0.0
5656,81.0,120.0,120.0,0.0,0.0
5657,80.0,240.0,120.0,0.0,0.0
5658,53.0,0.0,720.0,0.0,0.0
5659,58.0,0.0,720.0,0.0,0.0
5660,50.0,0.0,720.0,0.0,0.0
5661,65.0,120.0,120.0,0.0,0.0
5662,77.0,120.0,120.0,0.0,0.0
5663,65.0,120.0,120.0,0.0,0.0
5664,77.0,120.0,120.0,0.0,0.0
5665,65.0,120.0,120.0,0.0,0.0
5666,48.0,0.0,240.0,0.0,0.0
5667,52.0,0.0,240.0,0.0,0.0
5668,57.0,0.0,240.0,0.0,0.0
5669,77.0,120.0,120.0,0.0,0.0
5670,65.0,240.0,120.0,0.0,0.0
5671,50.0,120.0,480.0,0.0,0.0
5672,47.0,0.0,480.0,0.0,0.0
5673,56.0,0.0,480.0,0.0,0.0
5674,65.0,120.0,120.0,0.0,0.0
5675,77.0,120.0,120.0,0.0,0.0
5676,76.0,0.0,120.0,0.0,0.0
5677,57.0,0.0,480.0,0.0,0.0
5678,52.0,240.0,480.0,0.0,0.0
5679,48.0,0.0,480.0,0.0,0.0
5680,74.0,120.0,120.0,0.0,0.0
5681,72.0,120.0,120.0,0.0,0.0
5682,71.0,120.0,120.0,0.0,0.0
5683,69.0,0.0,120.0,0.0,0.0
5684,50.0,120.0,720.0,0.0,0.0
5685,58.0,0.0,720.0,0.0,0.0
5686,53.0,0.0,720.0,0.0,0.0
5687,77.0,120.0,120.0,0.0,0.0
5688,89.0,120.0,120.0,0.0,0.0
5689,77.0,120.0,120.0,0.0,0.0
5690,89.0,120.0,120.0,0.0,0.0
5691,77.0,0.0,120.0,0.0,0.0
5692,57.0,0.0,240.0,0.0,0.0
5693,89.0,120.0,120.0,0.0,0.0
5694,52.0,0.0,240.0,0.0,0.0
5695,48.0,240.0,240.0,0.0,0.0
5696,77.0,0.0,120.0,0.0,0.0
5697,47.0,0.0,480.0,0.0,0.0
5698,56.0,120.0,480.0,0.0,0.0
5699,50.0,0.0,480.0,0.0,0.0
5700,77.0,120.0,120.0,0.0,0.0
5701,89.0,120.0,120.0,0.0,0.0
5702,88.0,0.0,120.0,0.0,0.0
5703,86.0,120.0,120.0,0.0,0.0
5704,48.0,0.0,480.0,0.0,0.0
5705,52.0,0.0,480.0,0.0,0.0
5706,57.0,240.0,480.0,0.0,0.0
5707,84.0,120.0,120.0,0.0,0.0
5708,83.0,120.0,120.0,0.0,0.0
5709,81.0,0.0,120.0,0.0,0.0
5710,50.0,0.0,720.0,0.0,0.0
5711,58.0,0.0,720.0,0.0,0.0
5712,53.0,0.0,720.0,0.0,0.0
5713,65.0,120.0,120.0,0.0,0.0
5714,77.0,120.0,120.0,0.0,0.0
5715,65.0,120.0,120.0,0.0,0.0
5716,77.0,120.0,120.0,0.0,0.0
5717,65.0,120.0,120.0,0.0,0.0
5718,52.0,0.0,240.0,0.0,0.0
5719,48.0,240.0,240.0,0.0,0.0
5720,57.0,0.0,240.0,0.0,0.0
5721,77.0,120.0,120.0,0.0,0.0
5722,65.0,0.0,120.0,0.0,0.0
5723,50.0,0.0,480.0,0.0,0.0
5724,47.0,0.0,480.0,0.0,0.0
5725,56.0,0.0,480.0,0.0,0.0
5726,77.0,120.0,120.0,0.0,0.0
5727,65.0,120.0,120.0,0.0,0.0
5728,77.0,240.0,120.0,0.0,0.0
5729,53.0,0.0,480.0,0.0,0.0
5730,45.0,0.0,480.0,0.0,0.0
5731,48.0,240.0,480.0,0.0,0.0
5732,89.0,120.0,120.0,0.0,0.0
5733,77.0,120.0,120.0,0.0,0.0
5734,89.0,0.0,120.0,0.0,0.0
5735,52.0,0.0,480.0,0.0,0.0
5736,44.0,240.0,480.0,0.0,0.0
5737,47.0,0.0,480.0,0.0,0.0
5738,88.0,120.0,120.0,0.0,0.0
5739,76.0,120.0,120.0,0.0,0.0
5740,88.0,0.0,120.0,0.0,0.0
5741,42.0,0.0,480.0,0.0,0.0
5742,51.0,0.0,480.0,0.0,0.0
5743,45.0,0.0,480.0,0.0,0.0
5744,48.0,240.0,480.0,0.0,0.0
5745,87.0,120.0,120.0,0.0,0.0
5746,75.0,120.0,120.0,0.0,0.0
5747,87.0,0.0,120.0,0.0,0.0
5748,44.0,0.0,480.0,0.0,0.0
5749,47.0,0.0,480.0,0.0,0.0
5750,50.0,0.0,480.0,0.0,0.0
5751,86.0,120.0,120.0,0.0,0.0
5752,74.0,120.0,120.0,0.0,0.0
5753,86.0,240.0,120.0,0.0,0.0
5754,45.0,0.0,480.0,0.0,0.0
5755,84.0,120.0,120.0,0.0,0.0
5756,76.0,120.0,120.0,0.0,0.0
5757,72.0,0.0,120.0,0.0,0.0
5758,84.0,0.0,120.0,0.0,0.0
5759,39.0,0.0,960.0,0.0,0.0
5760,48.0,240.0,15.0,0.0,0.0
5761,84.0,120.0,120.0,0.0,0.0
5762,72.0,0.0,120.0,0.0,0.0
5763,78.0,120.0,120.0,0.0,0.0
5764,84.0,0.0,120.0,0.0,0.0
5765,46.0,0.0,480.0,0.0,0.0
5766,83.0,120.0,120.0,0.0,0.0
5767,71.0,0.0,120.0,0.0,0.0
5768,78.0,120.0,120.0,0.0,0.0
5769,83.0,240.0,120.0,0.0,0.0
5770,45.0,240.0,480.0,0.0,0.0
5771,40.0,120.0,960.0,0.0,0.0
5772,81.0,120.0,120.0,0.0,0.0
5773,72.0,120.0,120.0,0.0,0.0
5774,69.0,0.0,120.0,0.0,0.0
5775,81.0,0.0,120.0,0.0,0.0
5776,44.0,0.0,480.0,0.0,0.0
5777,80.0,120.0,120.0,0.0,0.0
5778,68.0,120.0,120.0,0.0,0.0
5779,71.0,0.0,120.0,0.0,0.0
5780,80.0,0.0,120.0,0.0,0.0
5781,69.0,0.0,120.0,0.0,0.0
5782,72.0,0.0,120.0,0.0,0.0
5783,33.0,0.0,240.0,0.0,0.0
5784,36.0,120.0,240.0,0.0,0.0
5785,81.0,120.0,120.0,0.0,0.0
5786,45.0,0.0,240.0,0.0,0.0
5787,40.0,0.0,240.0,0.0,0.0
5788,64.0,0.0,120.0,0.0,0.0
5789,69.0,120.0,120.0,0.0,0.0
5790,72.0,120.0,120.0,0.0,0.0
5791,76.0,120.0,120.0,0.0,0.0
5792,52.0,120.0,120.0,0.0,0.0
5793,77.0,0.0,120.0,0.0,0.0
5794,57.0,120.0,120.0,0.0,0.0
5795,76.0,0.0,120.0,0.0,0.0
5796,60.0,0.0,120.0,0.0,0.0
5797,74.0,120.0,120.0,0.0,0.0
5798,64.0,120.0,120.0,0.0,0.0
5799,72.0,0.0,120.0,0.0,0.0
5800,65.0,0.0,120.0,0.0,0.0
5801,74.0,120.0,120.0,0.0,0.0
5802,64.0,0.0,120.0,0.0,0.0
5803,72.0,120.0,120.0,0.0,0.0
5804,62.0,0.0,120.0,0.0,0.0
5805,71.0,120.0,120.0,0.0,0.0
5806,69.0,120.0,120.0,0.0,0.0
5807,60.0,0.0,120.0,0.0,0.0
5808,67.0,0.0,120.0,0.0,0.0
5809,59.0,120.0,120.0,0.0,0.0
5810,65.0,120.0,120.0,0.0,0.0
5811,57.0,0.0,120.0,0.0,0.0
5812,64.0,0.0,120.0,0.0,0.0
5813,55.0,120.0,120.0,0.0,0.0
5814,62.0,0.0,120.0,0.0,0.0
5815,53.0,120.0,120.0,0.0,0.0
5816,60.0,0.0,120.0,0.0,0.0
5817,52.0,120.0,120.0,0.0,0.0
5818,58.0,120.0,120.0,0.0,0.0
5819,50.0,0.0,120.0,0.0,0.0
5820,48.0,120.0,120.0,0.0,0.0
5821,57.0,0.0,120.0,0.0,0.0
5822,47.0,120.0,120.0,0.0,0.0
5823,48.0,0.0,120.0,0.0,0.0
5824,50.0,60.0,120.0,0.0,0.0
5825,64.0,60.0,180.0,0.0,0.0
5826,58.0,0.0,180.0,0.0,0.0
5827,56.0,120.0,15.0,0.0,0.0
5828,52.0,0.0,180.0,0.0,0.0
5829,48.0,120.0,120.0,0.0,0.0
5830,52.0,0.0,180.0,0.0,0.0
5831,56.0,0.0,180.0,0.0,0.0
5832,62.0,60.0,180.0,0.0,0.0
5833,64.0,0.0,180.0,0.0,0.0
5834,47.0,60.0,120.0,0.0,0.0
5835,45.0,120.0,120.0,0.0,0.0
5836,44.0,60.0,120.0,0.0,0.0
5837,52.0,60.0,180.0,0.0,0.0
5838,56.0,0.0,180.0,0.0,0.0
5839,62.0,0.0,180.0,0.0,0.0
5840,64.0,0.0,180.0,0.0,0.0
5841,42.0,120.0,120.0,0.0,0.0
5842,64.0,60.0,180.0,0.0,0.0
5843,62.0,0.0,180.0,0.0,0.0
5844,56.0,0.0,180.0,0.0,0.0
5845,40.0,60.0,120.0,0.0,0.0
5846,52.0,0.0,180.0,0.0,0.0
5847,38.0,120.0,120.0,0.0,0.0
5848,52.0,0.0,180.0,0.0,0.0
5849,56.0,60.0,180.0,0.0,0.0
5850,36.0,60.0,120.0,0.0,0.0
5851,64.0,0.0,180.0,0.0,0.0
5852,62.0,0.0,180.0,0.0,0.0
5853,35.0,120.0,120.0,0.0,0.0
5854,64.0,0.0,120.0,0.0,0.0
5855,60.0,0.0,120.0,0.0,0.0
5856,57.0,120.0,120.0,0.0,0.0
5857,52.0,0.0,120.0,0.0,0.0
5858,40.0,0.0,240.0,0.0,0.0
5859,33.0,120.0,240.0,0.0,0.0
5860,36.0,0.0,240.0,0.0,0.0
5861,45.0,0.0,240.0,0.0,0.0
5862,76.0,0.0,120.0,0.0,0.0
5863,81.0,120.0,120.0,0.0,0.0
5864,84.0,120.0,120.0,0.0,0.0
5865,88.0,120.0,120.0,0.0,0.0
5866,89.0,0.0,120.0,0.0,0.0
5867,64.0,120.0,120.0,0.0,0.0
5868,88.0,0.0,120.0,0.0,0.0
5869,69.0,120.0,120.0,0.0,0.0
5870,72.0,120.0,120.0,0.0,0.0
5871,86.0,0.0,120.0,0.0,0.0
5872,84.0,0.0,120.0,0.0,0.0
5873,76.0,120.0,120.0,0.0,0.0
5874,86.0,0.0,120.0,0.0,0.0
5875,77.0,120.0,120.0,0.0,0.0
5876,76.0,0.0,120.0,0.0,0.0
5877,84.0,120.0,120.0,0.0,0.0
5878,74.0,0.0,120.0,0.0,0.0
5879,83.0,120.0,120.0,0.0,0.0
5880,72.0,120.0,120.0,0.0,0.0
5881,81.0,0.0,120.0,0.0,0.0
5882,79.0,120.0,120.0,0.0,0.0
5883,71.0,0.0,120.0,0.0,0.0
5884,77.0,120.0,120.0,0.0,0.0
5885,69.0,0.0,120.0,0.0,0.0
5886,67.0,0.0,120.0,0.0,0.0
5887,76.0,120.0,120.0,0.0,0.0
5888,65.0,120.0,120.0,0.0,0.0
5889,74.0,0.0,120.0,0.0,0.0
5890,64.0,0.0,120.0,0.0,0.0
5891,72.0,120.0,120.0,0.0,0.0
5892,62.0,120.0,120.0,0.0,0.0
5893,71.0,0.0,120.0,0.0,0.0
5894,69.0,120.0,120.0,0.0,0.0
5895,60.0,0.0,120.0,0.0,0.0
5896,59.0,120.0,120.0,0.0,0.0
5897,68.0,120.0,240.0,0.0,0.0
5898,60.0,0.0,120.0,0.0,0.0
5899,62.0,60.0,120.0,0.0,0.0
5900,76.0,0.0,180.0,0.0,0.0
5901,71.0,0.0,180.0,0.0,0.0
5902,68.0,60.0,180.0,0.0,0.0
5903,64.0,0.0,180.0,0.0,0.0
5904,60.0,120.0,120.0,0.0,0.0
5905,76.0,0.0,180.0,0.0,0.0
5906,74.0,60.0,180.0,0.0,0.0
5907,68.0,0.0,180.0,0.0,0.0
5908,64.0,0.0,180.0,0.0,0.0
5909,59.0,60.0,120.0,0.0,0.0
5910,57.0,120.0,120.0,0.0,0.0
5911,56.0,60.0,120.0,0.0,0.0
5912,76.0,60.0,180.0,0.0,0.0
5913,74.0,0.0,180.0,0.0,0.0
5914,68.0,0.0,180.0,0.0,0.0
5915,64.0,0.0,180.0,0.0,0.0
5916,54.0,120.0,120.0,0.0,0.0
5917,52.0,60.0,120.0,0.0,0.0
5918,64.0,0.0,180.0,0.0,0.0
5919,68.0,60.0,180.0,0.0,0.0
5920,74.0,0.0,180.0,0.0,0.0
5921,76.0,0.0,180.0,0.0,0.0
5922,50.0,120.0,120.0,0.0,0.0
5923,48.0,60.0,120.0,0.0,0.0
5924,68.0,0.0,180.0,0.0,0.0
5925,64.0,0.0,180.0,0.0,0.0
5926,76.0,60.0,180.0,0.0,0.0
5927,74.0,0.0,180.0,0.0,0.0
5928,47.0,120.0,120.0,0.0,0.0
5929,45.0,120.0,120.0,0.0,0.0
5930,69.0,0.0,240.0,0.0,0.0
5931,72.0,0.0,240.0,0.0,0.0
5932,76.0,120.0,240.0,0.0,0.0
5933,64.0,0.0,240.0,0.0,0.0
5934,47.0,0.0,120.0,0.0,0.0
5935,48.0,120.0,120.0,0.0,0.0
5936,50.0,120.0,120.0,0.0,0.0
5937,52.0,120.0,120.0,0.0,0.0
5938,54.0,120.0,120.0,0.0,0.0
5939,56.0,60.0,120.0,0.0,0.0
5940,88.0,0.0,180.0,0.0,0.0
5941,81.0,60.0,180.0,0.0,0.0
5942,76.0,0.0,180.0,0.0,0.0
5943,84.0,0.0,180.0,0.0,0.0
5944,57.0,120.0,120.0,0.0,0.0
5945,88.0,0.0,180.0,0.0,0.0
5946,80.0,0.0,180.0,0.0,0.0
5947,86.0,60.0,180.0,0.0,0.0
5948,76.0,0.0,180.0,0.0,0.0
5949,59.0,60.0,120.0,0.0,0.0
5950,57.0,120.0,120.0,0.0,0.0
5951,56.0,60.0,120.0,0.0,0.0
5952,86.0,0.0,180.0,0.0,0.0
5953,80.0,0.0,180.0,0.0,0.0
5954,76.0,0.0,180.0,0.0,0.0
5955,88.0,60.0,180.0,0.0,0.0
5956,54.0,120.0,120.0,0.0,0.0
5957,52.0,60.0,120.0,0.0,0.0
5958,86.0,0.0,180.0,0.0,0.0
5959,88.0,60.0,180.0,0.0,0.0
5960,80.0,0.0,180.0,0.0,0.0
5961,76.0,0.0,180.0,0.0,0.0
5962,50.0,120.0,120.0,0.0,0.0
5963,80.0,0.0,180.0,0.0,0.0
5964,76.0,0.0,180.0,0.0,0.0
5965,48.0,60.0,120.0,0.0,0.0
5966,86.0,0.0,180.0,0.0,0.0
5967,88.0,60.0,180.0,0.0,0.0
5968,47.0,120.0,120.0,0.0,0.0
5969,45.0,60.0,120.0,0.0,0.0
5970,76.0,0.0,180.0,0.0,0.0
5971,81.0,60.0,180.0,0.0,0.0
5972,84.0,0.0,180.0,0.0,0.0
5973,88.0,0.0,180.0,0.0,0.0
5974,47.0,120.0,120.0,0.0,0.0
5975,48.0,120.0,120.0,0.0,0.0
5976,50.0,120.0,120.0,0.0,0.0
5977,52.0,120.0,120.0,0.0,0.0
5978,54.0,120.0,120.0,0.0,0.0
5979,64.0,0.0,180.0,0.0,0.0
5980,69.0,60.0,180.0,0.0,0.0
5981,72.0,0.0,180.0,0.0,0.0
5982,56.0,60.0,120.0,0.0,0.0
5983,76.0,0.0,180.0,0.0,0.0
5984,57.0,120.0,120.0,0.0,0.0
5985,64.0,0.0,180.0,0.0,0.0
5986,76.0,60.0,180.0,0.0,0.0
5987,74.0,0.0,180.0,0.0,0.0
5988,68.0,0.0,180.0,0.0,0.0
5989,59.0,60.0,120.0,0.0,0.0
5990,57.0,120.0,120.0,0.0,0.0
5991,56.0,60.0,120.0,0.0,0.0
5992,64.0,0.0,180.0,0.0,0.0
5993,76.0,0.0,180.0,0.0,0.0
5994,74.0,60.0,180.0,0.0,0.0
5995,68.0,0.0,180.0,0.0,0.0
5996,54.0,120.0,120.0,0.0,0.0
5997,52.0,60.0,120.0,0.0,0.0
5998,68.0,60.0,180.0,0.0,0.0
5999,74.0,0.0,180.0,0.0,0.0
6000,76.0,0.0,180.0,0.0,0.0
6001,64.0,0.0,180.0,0.0,0.0
6002,50.0,120.0,120.0,0.0,0.0
6003,76.0,0.0,180.0,0.0,0.0
6004,48.0,60.0,120.0,0.0,0.0
6005,64.0,0.0,180.0,0.0,0.0
6006,74.0,0.0,180.0,0.0,0.0
6007,68.0,60.0,180.0,0.0,0.0
6008,47.0,120.0,120.0,0.0,0.0
6009,45.0,0.0,480.0,0.0,0.0
6010,76.0,120.0,120.0,0.0,0.0
6011,72.0,0.0,120.0,0.0,0.0
6012,64.0,0.0,120.0,0.0,0.0
6013,69.0,0.0,120.0,0.0,0.0
6014,71.0,120.0,120.0,0.0,0.0
6015,72.0,120.0,120.0,0.0,0.0
6016,74.0,120.0,120.0,0.0,0.0
6017,76.0,120.0,120.0,0.0,0.0
6018,78.0,120.0,120.0,0.0,0.0
6019,40.0,0.0,180.0,0.0,0.0
6020,52.0,60.0,180.0,0.0,0.0
6021,80.0,60.0,120.0,0.0,0.0
6022,45.0,0.0,180.0,0.0,0.0
6023,48.0,0.0,180.0,0.0,0.0
6024,81.0,120.0,120.0,0.0,0.0
6025,44.0,0.0,180.0,0.0,0.0
6026,50.0,0.0,180.0,0.0,0.0
6027,40.0,0.0,180.0,0.0,0.0
6028,52.0,0.0,180.0,0.0,0.0
6029,83.0,60.0,120.0,0.0,0.0
6030,47.0,60.0,180.0,0.0,0.0
6031,81.0,120.0,120.0,0.0,0.0
6032,47.0,0.0,180.0,0.0,0.0
6033,40.0,0.0,180.0,0.0,0.0
6034,44.0,60.0,180.0,0.0,0.0
6035,50.0,0.0,180.0,0.0,0.0
6036,52.0,0.0,180.0,0.0,0.0
6037,80.0,60.0,120.0,0.0,0.0
6038,77.0,120.0,120.0,0.0,0.0
6039,76.0,60.0,120.0,0.0,0.0
6040,47.0,0.0,180.0,0.0,0.0
6041,44.0,60.0,180.0,0.0,0.0
6042,52.0,0.0,180.0,0.0,0.0
6043,40.0,0.0,180.0,0.0,0.0
6044,50.0,0.0,180.0,0.0,0.0
6045,74.0,120.0,120.0,0.0,0.0
6046,72.0,60.0,120.0,0.0,0.0
6047,40.0,0.0,180.0,0.0,0.0
6048,52.0,0.0,180.0,0.0,0.0
6049,44.0,60.0,180.0,0.0,0.0
6050,50.0,0.0,180.0,0.0,0.0
6051,47.0,0.0,180.0,0.0,0.0
6052,71.0,120.0,120.0,0.0,0.0
6053,69.0,120.0,120.0,0.0,0.0
6054,52.0,0.0,480.0,0.0,0.0
6055,40.0,0.0,480.0,0.0,0.0
6056,48.0,0.0,480.0,0.0,0.0
6057,45.0,0.0,480.0,0.0,0.0
6058,71.0,120.0,120.0,0.0,0.0
6059,72.0,120.0,120.0,0.0,0.0
6060,74.0,120.0,120.0,0.0,0.0
6061,76.0,120.0,120.0,0.0,0.0
6062,78.0,120.0,120.0,0.0,0.0
6063,80.0,60.0,120.0,0.0,0.0
6064,60.0,0.0,180.0,0.0,0.0
6065,57.0,60.0,180.0,0.0,0.0
6066,52.0,0.0,180.0,0.0,0.0
6067,64.0,0.0,180.0,0.0,0.0
6068,81.0,120.0,120.0,0.0,0.0
6069,56.0,0.0,180.0,0.0,0.0
6070,83.0,60.0,120.0,0.0,0.0
6071,62.0,0.0,180.0,0.0,0.0
6072,64.0,60.0,180.0,0.0,0.0
6073,52.0,0.0,180.0,0.0,0.0
6074,59.0,0.0,180.0,0.0,0.0
6075,81.0,120.0,120.0,0.0,0.0
6076,59.0,0.0,180.0,0.0,0.0
6077,52.0,0.0,180.0,0.0,0.0
6078,62.0,0.0,180.0,0.0,0.0
6079,64.0,60.0,180.0,0.0,0.0
6080,80.0,60.0,120.0,0.0,0.0
6081,56.0,0.0,180.0,0.0,0.0
6082,77.0,120.0,120.0,0.0,0.0
6083,76.0,60.0,120.0,0.0,0.0
6084,59.0,0.0,180.0,0.0,0.0
6085,56.0,0.0,180.0,0.0,0.0
6086,52.0,0.0,180.0,0.0,0.0
6087,62.0,0.0,180.0,0.0,0.0
6088,64.0,60.0,180.0,0.0,0.0
6089,74.0,120.0,120.0,0.0,0.0
6090,72.0,60.0,120.0,0.0,0.0
6091,64.0,0.0,180.0,0.0,0.0
6092,52.0,0.0,180.0,0.0,0.0
6093,59.0,0.0,180.0,0.0,0.0
6094,62.0,0.0,180.0,0.0,0.0
6095,56.0,60.0,180.0,0.0,0.0
6096,71.0,120.0,120.0,0.0,0.0
6097,60.0,0.0,480.0,0.0,0.0
6098,52.0,120.0,480.0,0.0,0.0
6099,64.0,0.0,480.0,0.0,0.0
6100,69.0,120.0,120.0,0.0,0.0
6101,57.0,0.0,480.0,0.0,0.0
6102,71.0,120.0,120.0,0.0,0.0
6103,72.0,120.0,120.0,0.0,0.0
6104,74.0,0.0,120.0,0.0,0.0
6105,76.0,120.0,120.0,0.0,0.0
6106,78.0,120.0,120.0,0.0,0.0
6107,45.0,0.0,180.0,0.0,0.0
6108,80.0,60.0,120.0,0.0,0.0
6109,52.0,0.0,180.0,0.0,0.0
6110,48.0,0.0,180.0,0.0,0.0
6111,40.0,60.0,180.0,0.0,0.0
6112,81.0,120.0,120.0,0.0,0.0
6113,40.0,60.0,180.0,0.0,0.0
6114,44.0,0.0,180.0,0.0,0.0
6115,50.0,0.0,180.0,0.0,0.0
6116,83.0,60.0,120.0,0.0,0.0
6117,52.0,0.0,180.0,0.0,0.0
6118,47.0,0.0,180.0,0.0,0.0
6119,82.0,120.0,120.0,0.0,0.0
6120,83.0,60.0,120.0,0.0,0.0
6121,50.0,60.0,180.0,0.0,0.0
6122,44.0,0.0,180.0,0.0,0.0
6123,40.0,0.0,180.0,0.0,0.0
6124,47.0,0.0,180.0,0.0,0.0
6125,52.0,0.0,180.0,0.0,0.0
6126,82.0,120.0,120.0,0.0,0.0
6127,50.0,0.0,180.0,0.0,0.0
6128,52.0,60.0,180.0,0.0,0.0
6129,40.0,0.0,180.0,0.0,0.0
6130,83.0,60.0,120.0,0.0,0.0
6131,44.0,0.0,180.0,0.0,0.0
6132,47.0,0.0,180.0,0.0,0.0
6133,82.0,120.0,120.0,0.0,0.0
6134,83.0,60.0,120.0,0.0,0.0
6135,47.0,0.0,180.0,0.0,0.0
6136,50.0,60.0,180.0,0.0,0.0
6137,40.0,0.0,180.0,0.0,0.0
6138,44.0,0.0,180.0,0.0,0.0
6139,52.0,0.0,180.0,0.0,0.0
6140,82.0,120.0,120.0,0.0,0.0
6141,50.0,0.0,180.0,0.0,0.0
6142,83.0,60.0,120.0,0.0,0.0
6143,40.0,60.0,180.0,0.0,0.0
6144,52.0,0.0,180.0,0.0,0.0
6145,47.0,0.0,180.0,0.0,0.0
6146,44.0,0.0,180.0,0.0,0.0
6147,82.0,120.0,120.0,0.0,0.0
6148,47.0,0.0,180.0,0.0,0.0
6149,83.0,60.0,120.0,0.0,0.0
6150,52.0,0.0,180.0,0.0,0.0
6151,40.0,0.0,180.0,0.0,0.0
6152,44.0,0.0,180.0,0.0,0.0
6153,50.0,60.0,180.0,0.0,0.0
6154,82.0,120.0,120.0,0.0,0.0
6155,47.0,60.0,180.0,0.0,0.0
6156,40.0,0.0,180.0,0.0,0.0
6157,50.0,0.0,180.0,0.0,0.0
6158,52.0,0.0,180.0,0.0,0.0
6159,83.0,60.0,120.0,0.0,0.0
6160,44.0,0.0,180.0,0.0,0.0
6161,82.0,120.0,120.0,0.0,0.0
6162,47.0,0.0,180.0,0.0,0.0
6163,50.0,0.0,180.0,0.0,0.0
6164,44.0,0.0,180.0,0.0,0.0
6165,52.0,60.0,180.0,0.0,0.0
6166,83.0,60.0,120.0,0.0,0.0
6167,40.0,0.0,180.0,0.0,0.0
6168,82.0,120.0,120.0,0.0,0.0
6169,40.0,0.0,180.0,0.0,0.0
6170,83.0,60.0,120.0,0.0,0.0
6171,50.0,0.0,180.0,0.0,0.0
6172,52.0,60.0,180.0,0.0,0.0
6173,47.0,0.0,180.0,0.0,0.0
6174,44.0,0.0,180.0,0.0,0.0
6175,81.0,120.0,120.0,0.0,0.0
6176,80.0,60.0,120.0,0.0,0.0
6177,52.0,0.0,180.0,0.0,0.0
6178,47.0,0.0,180.0,0.0,0.0
6179,40.0,0.0,180.0,0.0,0.0
6180,44.0,60.0,180.0,0.0,0.0
6181,50.0,0.0,180.0,0.0,0.0
6182,77.0,120.0,120.0,0.0,0.0
6183,40.0,60.0,180.0,0.0,0.0
6184,52.0,0.0,180.0,0.0,0.0
6185,47.0,0.0,180.0,0.0,0.0
6186,76.0,60.0,120.0,0.0,0.0
6187,44.0,0.0,180.0,0.0,0.0
6188,50.0,0.0,180.0,0.0,0.0
6189,74.0,120.0,120.0,0.0,0.0
6190,72.0,60.0,120.0,0.0,0.0
6191,47.0,0.0,180.0,0.0,0.0
6192,50.0,60.0,180.0,0.0,0.0
6193,40.0,0.0,180.0,0.0,0.0
6194,44.0,0.0,180.0,0.0,0.0
6195,52.0,0.0,180.0,0.0,0.0
6196,71.0,960.0,120.0,0.0,0.0
6197,36.0,0.0,960.0,0.0,0.0
6198,64.0,0.0,960.0,0.0,0.0
6199,60.0,0.0,960.0,0.0,0.0
6200,69.0,0.0,960.0,0.0,0.0
6201,33.0,0.0,960.0,0.0,0.0
6202,45.0,0.0,960.0,0.0,0.0
6203,60.0,120.0,960.0,0.0,0.0
6204,40.0,960.0,15.0,0.0,0.0
6205,72.0,0.0,960.0,0.0,0.0
6206,45.0,0.0,960.0,0.0,0.0
6207,33.0,0.0,960.0,0.0,0.0
6208,64.0,0.0,960.0,0.0,0.0
6209,36.0,0.0,960.0,0.0,0.0
6210,52.0,120.0,240.0,0.0,0.0
6211,59.0,120.0,120.0,0.0,0.0
6212,62.0,0.0,120.0,0.0,0.0
6213,71.0,0.0,120.0,0.0,0.0
6214,40.0,0.0,15.0,0.0,0.0
6215,68.0,120.0,120.0,0.0,0.0
6216,62.0,0.0,120.0,0.0,0.0
6217,59.0,0.0,120.0,0.0,0.0
6218,40.0,120.0,240.0,0.0,0.0
6219,59.0,120.0,120.0,0.0,0.0
6220,62.0,0.0,120.0,0.0,0.0
6221,64.0,0.0,120.0,0.0,0.0
6222,59.0,0.0,120.0,0.0,0.0
6223,62.0,0.0,120.0,0.0,0.0
6224,68.0,120.0,120.0,0.0,0.0
6225,40.0,120.0,240.0,0.0,0.0
6226,64.0,120.0,120.0,0.0,0.0
6227,33.0,0.0,240.0,0.0,0.0
6228,69.0,0.0,120.0,0.0,0.0
6229,60.0,0.0,120.0,0.0,0.0
6230,64.0,0.0,120.0,0.0,0.0
6231,60.0,120.0,120.0,0.0,0.0
6232,45.0,120.0,15.0,0.0,0.0
6233,60.0,0.0,120.0,0.0,0.0
6234,64.0,0.0,120.0,0.0,0.0
6235,69.0,120.0,120.0,0.0,0.0
6236,45.0,120.0,15.0,0.0,0.0
6237,72.0,120.0,120.0,0.0,0.0
6238,64.0,0.0,120.0,0.0,0.0
6239,60.0,0.0,120.0,0.0,0.0
6240,40.0,120.0,240.0,0.0,0.0
6241,52.0,0.0,240.0,0.0,0.0
6242,71.0,0.0,120.0,0.0,0.0
6243,62.0,0.0,120.0,0.0,0.0
6244,59.0,120.0,120.0,0.0,0.0
6245,62.0,0.0,120.0,0.0,0.0
6246,68.0,0.0,120.0,0.0,0.0
6247,59.0,120.0,120.0,0.0,0.0
6248,59.0,120.0,120.0,0.0,0.0
6249,62.0,0.0,120.0,0.0,0.0
6250,40.0,120.0,15.0,0.0,0.0
6251,64.0,0.0,120.0,0.0,0.0
6252,59.0,120.0,120.0,0.0,0.0
6253,62.0,0.0,120.0,0.0,0.0
6254,40.0,120.0,240.0,0.0,0.0
6255,68.0,0.0,120.0,0.0,0.0
6256,69.0,120.0,120.0,0.0,0.0
6257,64.0,0.0,120.0,0.0,0.0
6258,60.0,0.0,120.0,0.0,0.0
6259,33.0,120.0,240.0,0.0,0.0
6260,45.0,0.0,15.0,0.0,0.0
6261,64.0,120.0,120.0,0.0,0.0
6262,60.0,0.0,120.0,0.0,0.0
6263,64.0,0.0,120.0,0.0,0.0
6264,69.0,0.0,120.0,0.0,0.0
6265,60.0,120.0,120.0,0.0,0.0
6266,60.0,120.0,120.0,0.0,0.0
6267,72.0,0.0,120.0,0.0,0.0
6268,45.0,120.0,15.0,0.0,0.0
6269,64.0,0.0,120.0,0.0,0.0
6270,59.0,120.0,120.0,0.0,0.0
6271,64.0,0.0,120.0,0.0,0.0
6272,71.0,0.0,120.0,0.0,0.0
6273,35.0,120.0,240.0,0.0,0.0
6274,47.0,120.0,240.0,0.0,0.0
6275,67.0,0.0,120.0,0.0,0.0
6276,64.0,120.0,120.0,0.0,0.0
6277,59.0,0.0,120.0,0.0,0.0
6278,35.0,120.0,240.0,0.0,0.0
6279,59.0,120.0,120.0,0.0,0.0
6280,63.0,0.0,120.0,0.0,0.0
6281,66.0,0.0,120.0,0.0,0.0
6282,35.0,480.0,240.0,0.0,0.0
6283,63.0,0.0,120.0,0.0,0.0
6284,71.0,120.0,120.0,0.0,0.0
6285,59.0,0.0,120.0,0.0,0.0
6286,64.0,0.0,480.0,0.0,0.0
6287,40.0,300.0,480.0,0.0,0.0
6288,64.0,40.0,90.0,0.0,0.0
6289,40.0,20.0,60.0,0.0,0.0
6290,38.0,40.0,60.0,0.0,0.0
6291,66.0,20.0,90.0,0.0,0.0
6292,36.0,60.0,60.0,0.0,0.0
6293,68.0,960.0,90.0,0.0,0.0
6294,35.0,0.0,60.0,0.0,0.0
6295,69.0,0.0,960.0,0.0,0.0
6296,64.0,0.0,960.0,0.0,0.0
6297,60.0,0.0,960.0,0.0,0.0
6298,60.0,0.0,960.0,0.0,0.0
6299,36.0,0.0,15.0,0.0,0.0
6300,45.0,960.0,15.0,0.0,0.0
6301,40.0,0.0,15.0,0.0,0.0
6302,72.0,0.0,960.0,0.0,0.0
6303,33.0,0.0,15.0,0.0,0.0
6304,64.0,120.0,960.0,0.0,0.0
6305,40.0,0.0,15.0,0.0,0.0
6306,59.0,120.0,120.0,0.0,0.0
6307,62.0,0.0,120.0,0.0,0.0
6308,52.0,120.0,240.0,0.0,0.0
6309,71.0,0.0,120.0,0.0,0.0
6310,59.0,0.0,120.0,0.0,0.0
6311,68.0,120.0,120.0,0.0,0.0
6312,62.0,0.0,120.0,0.0,0.0
6313,40.0,120.0,240.0,0.0,0.0
6314,40.0,120.0,240.0,0.0,0.0
6315,59.0,120.0,120.0,0.0,0.0
6316,62.0,0.0,120.0,0.0,0.0
6317,64.0,0.0,120.0,0.0,0.0
6318,59.0,0.0,120.0,0.0,0.0
6319,62.0,120.0,120.0,0.0,0.0
6320,68.0,0.0,120.0,0.0,0.0
6321,40.0,120.0,240.0,0.0,0.0
6322,60.0,120.0,120.0,0.0,0.0
6323,33.0,120.0,240.0,0.0,0.0
6324,69.0,0.0,120.0,0.0,0.0
6325,64.0,0.0,120.0,0.0,0.0
6326,45.0,0.0,15.0,0.0,0.0
6327,60.0,0.0,120.0,0.0,0.0
6328,64.0,120.0,120.0,0.0,0.0
6329,69.0,120.0,120.0,0.0,0.0
6330,64.0,0.0,120.0,0.0,0.0
6331,60.0,0.0,120.0,0.0,0.0
6332,45.0,120.0,240.0,0.0,0.0
6333,45.0,120.0,240.0,0.0,0.0
6334,72.0,120.0,120.0,0.0,0.0
6335,64.0,0.0,120.0,0.0,0.0
6336,60.0,0.0,120.0,0.0,0.0
6337,71.0,120.0,120.0,0.0,0.0
6338,62.0,0.0,120.0,0.0,0.0
6339,59.0,0.0,120.0,0.0,0.0
6340,52.0,120.0,240.0,0.0,0.0
6341,40.0,0.0,240.0,0.0,0.0
6342,59.0,120.0,120.0,0.0,0.0
6343,62.0,0.0,120.0,0.0,0.0
6344,68.0,0.0,120.0,0.0,0.0
6345,64.0,0.0,120.0,0.0,0.0
6346,62.0,120.0,120.0,0.0,0.0
6347,59.0,0.0,120.0,0.0,0.0
6348,40.0,120.0,15.0,0.0,0.0
6349,62.0,0.0,120.0,0.0,0.0
6350,68.0,0.0,120.0,0.0,0.0
6351,59.0,120.0,120.0,0.0,0.0
6352,40.0,120.0,240.0,0.0,0.0
6353,45.0,0.0,240.0,0.0,0.0
6354,33.0,120.0,240.0,0.0,0.0
6355,60.0,0.0,120.0,0.0,0.0
6356,64.0,0.0,120.0,0.0,0.0
6357,69.0,120.0,120.0,0.0,0.0
6358,60.0,120.0,120.0,0.0,0.0
6359,45.0,120.0,240.0,0.0,0.0
6360,64.0,0.0,120.0,0.0,0.0
6361,60.0,120.0,120.0,0.0,0.0
6362,64.0,0.0,120.0,0.0,0.0
6363,69.0,0.0,120.0,0.0,0.0
6364,45.0,120.0,15.0,0.0,0.0
6365,60.0,120.0,120.0,0.0,0.0
6366,64.0,0.0,120.0,0.0,0.0
6367,72.0,0.0,120.0,0.0,0.0
6368,59.0,120.0,120.0,0.0,0.0
6369,64.0,0.0,120.0,0.0,0.0
6370,35.0,120.0,240.0,0.0,0.0
6371,71.0,0.0,120.0,0.0,0.0
6372,47.0,120.0,240.0,0.0,0.0
6373,64.0,0.0,120.0,0.0,0.0
6374,67.0,0.0,120.0,0.0,0.0
6375,59.0,120.0,120.0,0.0,0.0
6376,63.0,0.0,120.0,0.0,0.0
6377,66.0,120.0,120.0,0.0,0.0
6378,59.0,0.0,120.0,0.0,0.0
6379,35.0,120.0,15.0,0.0,0.0
6380,59.0,120.0,120.0,0.0,0.0
6381,63.0,0.0,120.0,0.0,0.0
6382,71.0,0.0,120.0,0.0,0.0
6383,64.0,0.0,480.0,0.0,0.0
6384,40.0,320.0,480.0,0.0,0.0
6385,43.0,80.0,90.0,0.0,0.0
6386,67.0,0.0,90.0,0.0,0.0
6387,69.0,0.0,90.0,0.0,0.0
6388,45.0,80.0,90.0,0.0,0.0
6389,47.0,960.0,90.0,0.0,0.0
6390,71.0,0.0,90.0,0.0,0.0
6391,67.0,0.0,960.0,0.0,0.0
6392,72.0,0.0,960.0,0.0,0.0
6393,64.0,0.0,15.0,0.0,0.0
6394,67.0,0.0,960.0,0.0,0.0
6395,76.0,0.0,960.0,0.0,0.0
6396,48.0,0.0,15.0,0.0,0.0
6397,40.0,0.0,15.0,0.0,0.0
6398,36.0,0.0,15.0,0.0,0.0
6399,43.0,960.0,15.0,0.0,0.0
6400,62.0,120.0,120.0,0.0,0.0
6401,65.0,0.0,120.0,0.0,0.0
6402,55.0,120.0,240.0,0.0,0.0
6403,74.0,0.0,120.0,0.0,0.0
6404,43.0,0.0,15.0,0.0,0.0
6405,71.0,0.0,120.0,0.0,0.0
6406,62.0,120.0,120.0,0.0,0.0
6407,65.0,0.0,120.0,0.0,0.0
6408,62.0,0.0,120.0,0.0,0.0
6409,65.0,120.0,120.0,0.0,0.0
6410,67.0,0.0,120.0,0.0,0.0
6411,43.0,120.0,240.0,0.0,0.0
6412,65.0,120.0,120.0,0.0,0.0
6413,43.0,120.0,240.0,0.0,0.0
6414,71.0,0.0,120.0,0.0,0.0
6415,62.0,0.0,120.0,0.0,0.0
6416,72.0,0.0,120.0,0.0,0.0
6417,67.0,120.0,120.0,0.0,0.0
6418,64.0,0.0,120.0,0.0,0.0
6419,36.0,0.0,240.0,0.0,0.0
6420,64.0,0.0,120.0,0.0,0.0
6421,67.0,120.0,120.0,0.0,0.0
6422,48.0,120.0,15.0,0.0,0.0
6423,67.0,0.0,120.0,0.0,0.0
6424,48.0,120.0,240.0,0.0,0.0
6425,72.0,120.0,120.0,0.0,0.0
6426,64.0,0.0,120.0,0.0,0.0
6427,67.0,120.0,120.0,0.0,0.0
6428,64.0,0.0,120.0,0.0,0.0
6429,76.0,0.0,120.0,0.0,0.0
6430,48.0,120.0,240.0,0.0,0.0
6431,55.0,120.0,240.0,0.0,0.0
6432,43.0,0.0,240.0,0.0,0.0
6433,62.0,0.0,120.0,0.0,0.0
6434,65.0,0.0,120.0,0.0,0.0
6435,74.0,120.0,120.0,0.0,0.0
6436,71.0,120.0,120.0,0.0,0.0
6437,62.0,0.0,120.0,0.0,0.0
6438,65.0,0.0,120.0,0.0,0.0
6439,62.0,0.0,120.0,0.0,0.0
6440,65.0,0.0,120.0,0.0,0.0
6441,67.0,120.0,120.0,0.0,0.0
6442,43.0,120.0,15.0,0.0,0.0
6443,71.0,0.0,120.0,0.0,0.0
6444,43.0,120.0,240.0,0.0,0.0
6445,62.0,120.0,120.0,0.0,0.0
6446,65.0,0.0,120.0,0.0,0.0
6447,67.0,120.0,120.0,0.0,0.0
6448,72.0,0.0,120.0,0.0,0.0
6449,48.0,0.0,240.0,0.0,0.0
6450,36.0,120.0,240.0,0.0,0.0
6451,64.0,0.0,120.0,0.0,0.0
6452,64.0,120.0,120.0,0.0,0.0
6453,67.0,0.0,120.0,0.0,0.0
6454,48.0,120.0,15.0,0.0,0.0
6455,64.0,120.0,120.0,0.0,0.0
6456,67.0,0.0,120.0,0.0,0.0
6457,72.0,0.0,120.0,0.0,0.0
6458,48.0,120.0,15.0,0.0,0.0
6459,64.0,0.0,120.0,0.0,0.0
6460,67.0,120.0,120.0,0.0,0.0
6461,76.0,0.0,120.0,0.0,0.0
6462,64.0,120.0,120.0,0.0,0.0
6463,73.0,0.0,120.0,0.0,0.0
6464,45.0,0.0,240.0,0.0,0.0
6465,33.0,120.0,240.0,0.0,0.0
6466,67.0,0.0,120.0,0.0,0.0
6467,33.0,120.0,240.0,0.0,0.0
6468,64.0,120.0,120.0,0.0,0.0
6469,67.0,0.0,120.0,0.0,0.0
6470,69.0,0.0,120.0,0.0,0.0
6471,64.0,120.0,120.0,0.0,0.0
6472,67.0,0.0,120.0,0.0,0.0
6473,73.0,0.0,120.0,0.0,0.0
6474,33.0,120.0,240.0,0.0,0.0
6475,33.0,120.0,240.0,0.0,0.0
6476,76.0,0.0,120.0,0.0,0.0
6477,67.0,0.0,120.0,0.0,0.0
6478,64.0,120.0,120.0,0.0,0.0
6479,74.0,120.0,120.0,0.0,0.0
6480,50.0,0.0,240.0,0.0,0.0
6481,38.0,120.0,240.0,0.0,0.0
6482,69.0,0.0,120.0,0.0,0.0
6483,65.0,0.0,120.0,0.0,0.0
6484,69.0,0.0,120.0,0.0,0.0
6485,65.0,120.0,120.0,0.0,0.0
6486,65.0,120.0,120.0,0.0,0.0
6487,50.0,120.0,15.0,0.0,0.0
6488,74.0,0.0,120.0,0.0,0.0
6489,69.0,0.0,120.0,0.0,0.0
6490,65.0,0.0,120.0,0.0,0.0
6491,69.0,0.0,120.0,0.0,0.0
6492,77.0,120.0,120.0,0.0,0.0
6493,50.0,120.0,240.0,0.0,0.0
6494,40.0,120.0,240.0,0.0,0.0
6495,76.0,120.0,120.0,0.0,0.0
6496,69.0,0.0,120.0,0.0,0.0
6497,64.0,0.0,120.0,0.0,0.0
6498,52.0,120.0,240.0,0.0,0.0
6499,64.0,120.0,120.0,0.0,0.0
6500,72.0,0.0,120.0,0.0,0.0
6501,69.0,0.0,120.0,0.0,0.0
6502,40.0,120.0,240.0,0.0,0.0
6503,64.0,0.0,120.0,0.0,0.0
6504,71.0,120.0,120.0,0.0,0.0
6505,68.0,0.0,120.0,0.0,0.0
6506,68.0,0.0,120.0,0.0,0.0
6507,76.0,0.0,120.0,0.0,0.0
6508,64.0,120.0,120.0,0.0,0.0
6509,40.0,480.0,240.0,0.0,0.0
6510,33.0,0.0,480.0,0.0,0.0
6511,69.0,320.0,480.0,0.0,0.0
6512,45.0,0.0,480.0,0.0,0.0
6513,43.0,80.0,90.0,0.0,0.0
6514,67.0,0.0,90.0,0.0,0.0
6515,69.0,80.0,90.0,0.0,0.0
6516,45.0,0.0,90.0,0.0,0.0
6517,71.0,960.0,90.0,0.0,0.0
6518,47.0,0.0,90.0,0.0,0.0
6519,43.0,0.0,960.0,0.0,0.0
6520,36.0,0.0,960.0,0.0,0.0
6521,72.0,0.0,960.0,0.0,0.0
6522,67.0,0.0,960.0,0.0,0.0
6523,48.0,0.0,960.0,0.0,0.0
6524,64.0,0.0,15.0,0.0,0.0
6525,76.0,120.0,960.0,0.0,0.0
6526,48.0,0.0,960.0,0.0,0.0
6527,67.0,0.0,960.0,0.0,0.0
6528,40.0,960.0,15.0,0.0,0.0
6529,36.0,0.0,960.0,0.0,0.0
6530,74.0,0.0,120.0,0.0,0.0
6531,65.0,0.0,120.0,0.0,0.0
6532,62.0,120.0,120.0,0.0,0.0
6533,55.0,0.0,240.0,0.0,0.0
6534,43.0,0.0,15.0,0.0,0.0
6535,62.0,0.0,120.0,0.0,0.0
6536,65.0,120.0,120.0,0.0,0.0
6537,71.0,0.0,120.0,0.0,0.0
6538,43.0,120.0,240.0,0.0,0.0
6539,62.0,120.0,120.0,0.0,0.0
6540,65.0,0.0,120.0,0.0,0.0
6541,67.0,0.0,120.0,0.0,0.0
6542,65.0,120.0,120.0,0.0,0.0
6543,62.0,0.0,120.0,0.0,0.0
6544,43.0,120.0,15.0,0.0,0.0
6545,71.0,0.0,120.0,0.0,0.0
6546,64.0,0.0,120.0,0.0,0.0
6547,67.0,0.0,120.0,0.0,0.0
6548,72.0,120.0,120.0,0.0,0.0
6549,36.0,120.0,240.0,0.0,0.0
6550,48.0,0.0,240.0,0.0,0.0
6551,67.0,120.0,120.0,0.0,0.0
6552,64.0,0.0,120.0,0.0,0.0
6553,72.0,120.0,120.0,0.0,0.0
6554,64.0,0.0,120.0,0.0,0.0
6555,67.0,0.0,120.0,0.0,0.0
6556,48.0,120.0,15.0,0.0,0.0
6557,76.0,120.0,120.0,0.0,0.0
6558,67.0,0.0,120.0,0.0,0.0
6559,64.0,0.0,120.0,0.0,0.0
6560,48.0,120.0,240.0,0.0,0.0
6561,65.0,0.0,120.0,0.0,0.0
6562,74.0,0.0,120.0,0.0,0.0
6563,55.0,120.0,240.0,0.0,0.0
6564,62.0,120.0,120.0,0.0,0.0
6565,43.0,0.0,15.0,0.0,0.0
6566,65.0,0.0,120.0,0.0,0.0
6567,71.0,0.0,120.0,0.0,0.0
6568,62.0,120.0,120.0,0.0,0.0
6569,43.0,120.0,15.0,0.0,0.0
6570,67.0,0.0,120.0,0.0,0.0
6571,65.0,0.0,120.0,0.0,0.0
6572,62.0,120.0,120.0,0.0,0.0
6573,43.0,120.0,15.0,0.0,0.0
6574,62.0,0.0,120.0,0.0,0.0
6575,71.0,120.0,120.0,0.0,0.0
6576,65.0,0.0,120.0,0.0,0.0
6577,67.0,0.0,120.0,0.0,0.0
6578,36.0,0.0,240.0,0.0,0.0
6579,64.0,0.0,120.0,0.0,0.0
6580,72.0,120.0,120.0,0.0,0.0
6581,48.0,120.0,15.0,0.0,0.0
6582,67.0,0.0,120.0,0.0,0.0
6583,64.0,120.0,120.0,0.0,0.0
6584,64.0,120.0,120.0,0.0,0.0
6585,67.0,0.0,120.0,0.0,0.0
6586,72.0,0.0,120.0,0.0,0.0
6587,48.0,120.0,15.0,0.0,0.0
6588,64.0,0.0,120.0,0.0,0.0
6589,67.0,0.0,120.0,0.0,0.0
6590,76.0,120.0,120.0,0.0,0.0
6591,48.0,120.0,240.0,0.0,0.0
6592,45.0,120.0,240.0,0.0,0.0
6593,67.0,0.0,120.0,0.0,0.0
6594,73.0,0.0,120.0,0.0,0.0
6595,64.0,120.0,120.0,0.0,0.0
6596,33.0,0.0,15.0,0.0,0.0
6597,64.0,0.0,120.0,0.0,0.0
6598,69.0,120.0,120.0,0.0,0.0
6599,67.0,0.0,120.0,0.0,0.0
6600,33.0,120.0,15.0,0.0,0.0
6601,67.0,0.0,120.0,0.0,0.0
6602,64.0,0.0,120.0,0.0,0.0
6603,73.0,120.0,120.0,0.0,0.0
6604,33.0,120.0,15.0,0.0,0.0
6605,76.0,120.0,120.0,0.0,0.0
6606,67.0,0.0,120.0,0.0,0.0
6607,64.0,0.0,120.0,0.0,0.0
6608,74.0,0.0,120.0,0.0,0.0
6609,69.0,120.0,120.0,0.0,0.0
6610,65.0,0.0,120.0,0.0,0.0
6611,38.0,0.0,240.0,0.0,0.0
6612,50.0,120.0,15.0,0.0,0.0
6613,65.0,120.0,120.0,0.0,0.0
6614,69.0,0.0,120.0,0.0,0.0
6615,50.0,120.0,15.0,0.0,0.0
6616,65.0,0.0,120.0,0.0,0.0
6617,69.0,120.0,120.0,0.0,0.0
6618,74.0,0.0,120.0,0.0,0.0
6619,65.0,0.0,120.0,0.0,0.0
6620,69.0,120.0,120.0,0.0,0.0
6621,77.0,0.0,120.0,0.0,0.0
6622,50.0,120.0,240.0,0.0,0.0
6623,76.0,120.0,120.0,0.0,0.0
6624,40.0,120.0,240.0,0.0,0.0
6625,69.0,0.0,120.0,0.0,0.0
6626,64.0,0.0,120.0,0.0,0.0
6627,72.0,0.0,120.0,0.0,0.0
6628,69.0,0.0,120.0,0.0,0.0
6629,64.0,120.0,120.0,0.0,0.0
6630,52.0,120.0,240.0,0.0,0.0
6631,71.0,0.0,120.0,0.0,0.0
6632,40.0,120.0,240.0,0.0,0.0
6633,64.0,120.0,120.0,0.0,0.0
6634,68.0,0.0,120.0,0.0,0.0
6635,40.0,120.0,240.0,0.0,0.0
6636,64.0,0.0,120.0,0.0,0.0
6637,68.0,120.0,120.0,0.0,0.0
6638,76.0,0.0,120.0,0.0,0.0
6639,69.0,120.0,120.0,0.0,0.0
6640,45.0,0.0,120.0,0.0,0.0
6641,33.0,0.0,120.0,0.0,0.0
6642,64.0,120.0,120.0,0.0,0.0
6643,69.0,120.0,120.0,0.0,0.0
6644,48.0,0.0,840.0,0.0,0.0
6645,52.0,0.0,720.0,0.0,0.0
6646,72.0,120.0,120.0,0.0,0.0
6647,57.0,120.0,600.0,0.0,0.0
6648,76.0,120.0,120.0,0.0,0.0
6649,77.0,120.0,120.0,0.0,0.0
6650,76.0,120.0,120.0,0.0,0.0
6651,74.0,120.0,120.0,0.0,0.0
6652,72.0,0.0,120.0,0.0,0.0
6653,74.0,120.0,120.0,0.0,0.0
6654,45.0,0.0,15.0,0.0,0.0
6655,72.0,120.0,120.0,0.0,0.0
6656,48.0,0.0,840.0,0.0,0.0
6657,52.0,120.0,720.0,0.0,0.0
6658,71.0,120.0,120.0,0.0,0.0
6659,69.0,120.0,120.0,0.0,0.0
6660,57.0,0.0,600.0,0.0,0.0
6661,71.0,120.0,120.0,0.0,0.0
6662,72.0,120.0,120.0,0.0,0.0
6663,69.0,120.0,120.0,0.0,0.0
6664,72.0,0.0,120.0,0.0,0.0
6665,64.0,120.0,120.0,0.0,0.0
6666,45.0,0.0,960.0,0.0,0.0
6667,48.0,0.0,840.0,0.0,0.0
6668,69.0,120.0,120.0,0.0,0.0
6669,52.0,0.0,720.0,0.0,0.0
6670,72.0,120.0,120.0,0.0,0.0
6671,57.0,0.0,600.0,0.0,0.0
6672,76.0,120.0,120.0,0.0,0.0
6673,77.0,120.0,120.0,0.0,0.0
6674,76.0,120.0,120.0,0.0,0.0
6675,74.0,120.0,120.0,0.0,0.0
6676,72.0,120.0,120.0,0.0,0.0
6677,45.0,0.0,840.0,0.0,0.0
6678,74.0,120.0,120.0,0.0,0.0
6679,48.0,0.0,720.0,0.0,0.0
6680,72.0,120.0,120.0,0.0,0.0
6681,71.0,120.0,120.0,0.0,0.0
6682,52.0,120.0,600.0,0.0,0.0
6683,69.0,120.0,120.0,0.0,0.0
6684,57.0,0.0,480.0,0.0,0.0
6685,71.0,120.0,120.0,0.0,0.0
6686,72.0,120.0,120.0,0.0,0.0
6687,69.0,0.0,120.0,0.0,0.0
6688,70.0,120.0,120.0,0.0,0.0
6689,65.0,120.0,120.0,0.0,0.0
6690,53.0,0.0,840.0,0.0,0.0
6691,70.0,120.0,120.0,0.0,0.0
6692,58.0,0.0,720.0,0.0,0.0
6693,74.0,120.0,120.0,0.0,0.0
6694,62.0,0.0,600.0,0.0,0.0
6695,77.0,120.0,120.0,0.0,0.0
6696,79.0,120.0,120.0,0.0,0.0
6697,77.0,120.0,120.0,0.0,0.0
6698,76.0,120.0,120.0,0.0,0.0
6699,74.0,120.0,120.0,0.0,0.0
6700,76.0,120.0,120.0,0.0,0.0
6701,50.0,0.0,15.0,0.0,0.0
6702,74.0,120.0,120.0,0.0,0.0
6703,53.0,0.0,720.0,0.0,0.0
6704,72.0,120.0,120.0,0.0,0.0
6705,58.0,0.0,600.0,0.0,0.0
6706,70.0,120.0,120.0,0.0,0.0
6707,62.0,0.0,480.0,0.0,0.0
6708,72.0,120.0,120.0,0.0,0.0
6709,70.0,120.0,120.0,0.0,0.0
6710,69.0,120.0,120.0,0.0,0.0
6711,68.0,120.0,120.0,0.0,0.0
6712,52.0,0.0,960.0,0.0,0.0
6713,69.0,120.0,120.0,0.0,0.0
6714,59.0,0.0,840.0,0.0,0.0
6715,71.0,120.0,120.0,0.0,0.0
6716,62.0,120.0,720.0,0.0,0.0
6717,72.0,120.0,120.0,0.0,0.0
6718,74.0,120.0,120.0,0.0,0.0
6719,64.0,0.0,600.0,0.0,0.0
6720,72.0,120.0,120.0,0.0,0.0
6721,71.0,120.0,120.0,0.0,0.0
6722,69.0,120.0,120.0,0.0,0.0
6723,68.0,0.0,120.0,0.0,0.0
6724,69.0,120.0,120.0,0.0,0.0
6725,52.0,0.0,840.0,0.0,0.0
6726,59.0,120.0,720.0,0.0,0.0
6727,71.0,120.0,120.0,0.0,0.0
6728,72.0,120.0,120.0,0.0,0.0
6729,62.0,0.0,600.0,0.0,0.0
6730,74.0,120.0,120.0,0.0,0.0
6731,64.0,0.0,480.0,0.0,0.0
6732,76.0,120.0,120.0,0.0,0.0
6733,78.0,120.0,120.0,0.0,0.0
6734,80.0,0.0,120.0,0.0,0.0
6735,81.0,0.0,120.0,0.0,0.0
6736,45.0,120.0,120.0,0.0,0.0
6737,57.0,0.0,120.0,0.0,0.0
6738,76.0,120.0,120.0,0.0,0.0
6739,60.0,0.0,840.0,0.0,0.0
6740,81.0,120.0,120.0,0.0,0.0
6741,84.0,120.0,120.0,0.0,0.0
6742,64.0,0.0,720.0,0.0,0.0
6743,69.0,0.0,600.0,0.0,0.0
6744,88.0,120.0,120.0,0.0,0.0
6745,89.0,120.0,120.0,0.0,0.0
6746,88.0,120.0,120.0,0.0,0.0
6747,86.0,120.0,120.0,0.0,0.0
6748,84.0,0.0,120.0,0.0,0.0
6749,57.0,120.0,15.0,0.0,0.0
6750,86.0,120.0,120.0,0.0,0.0
6751,84.0,120.0,120.0,0.0,0.0
6752,60.0,0.0,840.0,0.0,0.0
6753,83.0,120.0,120.0,0.0,0.0
6754,64.0,0.0,720.0,0.0,0.0
6755,81.0,120.0,120.0,0.0,0.0
6756,69.0,0.0,600.0,0.0,0.0
6757,83.0,120.0,120.0,0.0,0.0
6758,84.0,120.0,120.0,0.0,0.0
6759,81.0,120.0,120.0,0.0,0.0
6760,84.0,120.0,120.0,0.0,0.0
6761,76.0,120.0,120.0,0.0,0.0
6762,81.0,120.0,120.0,0.0,0.0
6763,60.0,0.0,840.0,0.0,0.0
6764,64.0,0.0,720.0,0.0,0.0
6765,84.0,120.0,120.0,0.0,0.0
6766,69.0,0.0,600.0,0.0,0.0
6767,88.0,120.0,120.0,0.0,0.0
6768,89.0,120.0,120.0,0.0,0.0
6769,88.0,120.0,120.0,0.0,0.0
6770,86.0,120.0,120.0,0.0,0.0
6771,84.0,120.0,120.0,0.0,0.0
6772,86.0,120.0,120.0,0.0,0.0
6773,57.0,0.0,15.0,0.0,0.0
6774,60.0,0.0,720.0,0.0,0.0
6775,84.0,120.0,120.0,0.0,0.0
6776,64.0,0.0,600.0,0.0,0.0
6777,83.0,120.0,120.0,0.0,0.0
6778,69.0,0.0,480.0,0.0,0.0
6779,81.0,120.0,120.0,0.0,0.0
6780,83.0,120.0,120.0,0.0,0.0
6781,84.0,120.0,120.0,0.0,0.0
6782,81.0,0.0,120.0,0.0,0.0
6783,82.0,120.0,120.0,0.0,0.0
6784,62.0,0.0,960.0,0.0,0.0
6785,77.0,120.0,120.0,0.0,0.0
6786,65.0,0.0,840.0,0.0,0.0
6787,82.0,120.0,120.0,0.0,0.0
6788,86.0,120.0,120.0,0.0,0.0
6789,70.0,120.0,720.0,0.0,0.0
6790,89.0,120.0,120.0,0.0,0.0
6791,74.0,0.0,600.0,0.0,0.0
6792,91.0,120.0,120.0,0.0,0.0
6793,89.0,120.0,120.0,0.0,0.0
6794,88.0,120.0,120.0,0.0,0.0
6795,86.0,0.0,120.0,0.0,0.0
6796,88.0,120.0,120.0,0.0,0.0
6797,62.0,0.0,840.0,0.0,0.0
6798,86.0,120.0,120.0,0.0,0.0
6799,65.0,0.0,720.0,0.0,0.0
6800,70.0,120.0,600.0,0.0,0.0
6801,84.0,120.0,120.0,0.0,0.0
6802,74.0,0.0,480.0,0.0,0.0
6803,82.0,120.0,120.0,0.0,0.0
6804,84.0,120.0,120.0,0.0,0.0
6805,82.0,120.0,120.0,0.0,0.0
6806,81.0,0.0,120.0,0.0,0.0
6807,80.0,120.0,120.0,0.0,0.0
6808,64.0,0.0,960.0,0.0,0.0
6809,81.0,120.0,120.0,0.0,0.0
6810,68.0,0.0,840.0,0.0,0.0
6811,83.0,120.0,120.0,0.0,0.0
6812,71.0,0.0,720.0,0.0,0.0
6813,84.0,120.0,120.0,0.0,0.0
6814,76.0,120.0,600.0,0.0,0.0
6815,86.0,120.0,120.0,0.0,0.0
6816,84.0,120.0,120.0,0.0,0.0
6817,83.0,120.0,120.0,0.0,0.0
6818,81.0,120.0,120.0,0.0,0.0
6819,80.0,0.0,120.0,0.0,0.0
6820,81.0,120.0,120.0,0.0,0.0
6821,52.0,0.0,840.0,0.0,0.0
6822,56.0,0.0,720.0,0.0,0.0
6823,83.0,120.0,120.0,0.0,0.0
6824,84.0,120.0,120.0,0.0,0.0
6825,59.0,120.0,600.0,0.0,0.0
6826,86.0,120.0,120.0,0.0,0.0
6827,64.0,0.0,480.0,0.0,0.0
6828,88.0,120.0,120.0,0.0,0.0
6829,90.0,120.0,120.0,0.0,0.0
6830,92.0,0.0,120.0,0.0,0.0
6831,93.0,120.0,120.0,0.0,0.0
6832,45.0,0.0,120.0,0.0,0.0
6833,57.0,0.0,120.0,0.0,0.0
6834,84.0,120.0,120.0,0.0,0.0
6835,88.0,120.0,120.0,0.0,0.0
6836,93.0,600.0,120.0,0.0,0.0
6837,96.0,120.0,600.0,0.0,0.0
6838,76.0,0.0,960.0,0.0,0.0
6839,81.0,0.0,840.0,0.0,0.0
6840,84.0,120.0,720.0,0.0,0.0
6841,88.0,120.0,120.0,0.0,0.0
6842,93.0,120.0,120.0,0.0,0.0
6843,96.0,120.0,120.0,0.0,0.0
6844,100.0,120.0,120.0,0.0,0.0
6845,96.0,0.0,120.0,0.0,0.0
6846,64.0,0.0,240.0,0.0,0.0
6847,95.0,120.0,120.0,0.0,0.0
6848,92.0,120.0,120.0,0.0,0.0
6849,69.0,0.0,240.0,0.0,0.0
6850,93.0,120.0,120.0,0.0,0.0
6851,84.0,120.0,120.0,0.0,0.0
6852,88.0,120.0,120.0,0.0,0.0
6853,93.0,600.0,120.0,0.0,0.0
6854,96.0,120.0,600.0,0.0,0.0
6855,76.0,0.0,960.0,0.0,0.0
6856,81.0,0.0,840.0,0.0,0.0
6857,84.0,120.0,720.0,0.0,0.0
6858,88.0,120.0,120.0,0.0,0.0
6859,93.0,120.0,120.0,0.0,0.0
6860,96.0,120.0,120.0,0.0,0.0
6861,100.0,120.0,120.0,0.0,0.0
6862,96.0,0.0,120.0,0.0,0.0
6863,64.0,0.0,240.0,0.0,0.0
6864,95.0,120.0,120.0,0.0,0.0
6865,92.0,120.0,120.0,0.0,0.0
6866,69.0,120.0,240.0,0.0,0.0
6867,93.0,120.0,120.0,0.0,0.0
6868,84.0,0.0,120.0,0.0,0.0
6869,88.0,120.0,120.0,0.0,0.0
6870,93.0,600.0,120.0,0.0,0.0
6871,96.0,120.0,600.0,0.0,0.0
6872,76.0,0.0,960.0,0.0,0.0
6873,81.0,0.0,840.0,0.0,0.0
6874,84.0,120.0,720.0,0.0,0.0
6875,88.0,120.0,120.0,0.0,0.0
6876,93.0,120.0,120.0,0.0,0.0
6877,96.0,120.0,120.0,0.0,0.0
6878,100.0,120.0,120.0,0.0,0.0
6879,96.0,0.0,120.0,0.0,0.0
6880,64.0,120.0,240.0,0.0,0.0
6881,95.0,120.0,120.0,0.0,0.0
6882,92.0,0.0,120.0,0.0,0.0
6883,93.0,120.0,120.0,0.0,0.0
6884,69.0,120.0,240.0,0.0,0.0
6885,84.0,0.0,120.0,0.0,0.0
6886,88.0,120.0,120.0,0.0,0.0
6887,93.0,600.0,120.0,0.0,0.0
6888,96.0,120.0,600.0,0.0,0.0
6889,76.0,120.0,960.0,0.0,0.0
6890,81.0,0.0,840.0,0.0,0.0
6891,84.0,0.0,720.0,0.0,0.0
6892,88.0,120.0,120.0,0.0,0.0
6893,93.0,120.0,120.0,0.0,0.0
6894,96.0,120.0,120.0,0.0,0.0
6895,100.0,120.0,120.0,0.0,0.0
6896,96.0,0.0,120.0,0.0,0.0
6897,64.0,120.0,240.0,0.0,0.0
6898,95.0,120.0,120.0,0.0,0.0
6899,92.0,0.0,120.0,0.0,0.0
6900,69.0,0.0,480.0,0.0,0.0
6901,93.0,120.0,120.0,0.0,0.0
6902,88.0,120.0,120.0,0.0,0.0
6903,93.0,120.0,120.0,0.0,0.0
6904,96.0,120.0,120.0,0.0,0.0
6905,100.0,120.0,120.0,0.0,0.0
6906,96.0,120.0,120.0,0.0,0.0
6907,95.0,120.0,120.0,0.0,0.0
6908,64.0,0.0,240.0,0.0,0.0
6909,92.0,120.0,120.0,0.0,0.0
6910,57.0,0.0,480.0,0.0,0.0
6911,93.0,120.0,120.0,0.0,0.0
6912,88.0,120.0,120.0,0.0,0.0
6913,93.0,120.0,120.0,0.0,0.0
6914,96.0,120.0,120.0,0.0,0.0
6915,100.0,120.0,120.0,0.0,0.0
6916,96.0,120.0,120.0,0.0,0.0
6917,95.0,120.0,120.0,0.0,0.0
6918,52.0,120.0,240.0,0.0,0.0
6919,92.0,0.0,120.0,0.0,0.0
6920,93.0,120.0,120.0,0.0,0.0
6921,45.0,0.0,480.0,0.0,0.0
6922,88.0,120.0,120.0,0.0,0.0
6923,93.0,120.0,120.0,0.0,0.0
6924,96.0,120.0,120.0,0.0,0.0
6925,100.0,120.0,120.0,0.0,0.0
6926,96.0,120.0,120.0,0.0,0.0
6927,95.0,120.0,120.0,0.0,0.0
6928,40.0,0.0,240.0,0.0,0.0
6929,92.0,120.0,120.0,0.0,0.0
6930,33.0,0.0,240.0,0.0,0.0
6931,100.0,120.0,120.0,0.0,0.0
6932,96.0,120.0,120.0,0.0,0.0
6933,40.0,0.0,240.0,0.0,0.0
6934,95.0,120.0,120.0,0.0,0.0
6935,92.0,120.0,120.0,0.0,0.0
6936,33.0,120.0,240.0,0.0,0.0
6937,100.0,120.0,120.0,0.0,0.0
6938,96.0,0.0,120.0,0.0,0.0
6939,95.0,120.0,120.0,0.0,0.0
6940,40.0,0.0,240.0,0.0,0.0
6941,92.0,120.0,120.0,0.0,0.0
6942,100.0,0.0,120.0,0.0,0.0
6943,33.0,120.0,120.0,0.0,0.0
6944,96.0,120.0,120.0,0.0,0.0
6945,36.0,0.0,120.0,0.0,0.0
6946,40.0,120.0,120.0,0.0,0.0
6947,93.0,0.0,120.0,0.0,0.0
6948,88.0,0.0,120.0,0.0,0.0
6949,45.0,120.0,120.0,0.0,0.0
6950,96.0,120.0,120.0,0.0,0.0
6951,33.0,0.0,120.0,0.0,0.0
6952,93.0,0.0,120.0,0.0,0.0
6953,36.0,120.0,120.0,0.0,0.0
6954,88.0,120.0,120.0,0.0,0.0
6955,40.0,0.0,120.0,0.0,0.0
6956,45.0,0.0,120.0,0.0,0.0
6957,84.0,120.0,120.0,0.0,0.0
6958,93.0,0.0,120.0,0.0,0.0
6959,33.0,120.0,120.0,0.0,0.0
6960,88.0,0.0,120.0,0.0,0.0
6961,36.0,120.0,120.0,0.0,0.0
6962,40.0,120.0,120.0,0.0,0.0
6963,84.0,0.0,120.0,0.0,0.0
6964,81.0,0.0,120.0,0.0,0.0
6965,45.0,120.0,120.0,0.0,0.0
6966,33.0,0.0,120.0,0.0,0.0
6967,88.0,120.0,120.0,0.0,0.0
6968,36.0,0.0,120.0,0.0,0.0
6969,84.0,120.0,120.0,0.0,0.0
6970,40.0,0.0,120.0,0.0,0.0
6971,81.0,120.0,120.0,0.0,0.0
6972,45.0,120.0,120.0,0.0,0.0
6973,76.0,0.0,120.0,0.0,0.0
6974,84.0,120.0,120.0,0.0,0.0
6975,33.0,0.0,120.0,0.0,0.0
6976,36.0,0.0,120.0,0.0,0.0
6977,81.0,120.0,120.0,0.0,0.0
6978,40.0,120.0,120.0,0.0,0.0
6979,76.0,0.0,120.0,0.0,0.0
6980,72.0,120.0,120.0,0.0,0.0
6981,45.0,0.0,120.0,0.0,0.0
6982,33.0,120.0,120.0,0.0,0.0
6983,81.0,0.0,120.0,0.0,0.0
6984,76.0,0.0,120.0,0.0,0.0
6985,36.0,120.0,120.0,0.0,0.0
6986,40.0,0.0,120.0,0.0,0.0
6987,72.0,120.0,120.0,0.0,0.0
6988,45.0,0.0,120.0,0.0,0.0
6989,69.0,120.0,120.0,0.0,0.0
6990,33.0,0.0,120.0,0.0,0.0
6991,76.0,120.0,120.0,0.0,0.0
6992,36.0,0.0,120.0,0.0,0.0
6993,72.0,120.0,120.0,0.0,0.0
6994,69.0,120.0,120.0,0.0,0.0
6995,40.0,0.0,120.0,0.0,0.0
6996,45.0,0.0,120.0,0.0,0.0
6997,64.0,120.0,120.0,0.0,0.0
6998,33.0,120.0,120.0,0.0,0.0
6999,72.0,0.0,120.0,0.0,0.0
7000,69.0,0.0,120.0,0.0,0.0
7001,36.0,120.0,120.0,0.0,0.0
7002,40.0,0.0,120.0,0.0,0.0
7003,64.0,120.0,120.0,0.0,0.0
7004,45.0,0.0,120.0,0.0,0.0
7005,60.0,120.0,120.0,0.0,0.0
7006,33.0,0.0,120.0,0.0,0.0
7007,69.0,120.0,120.0,0.0,0.0
7008,64.0,0.0,120.0,0.0,0.0
7009,36.0,120.0,120.0,0.0,0.0
7010,60.0,120.0,120.0,0.0,0.0
7011,40.0,0.0,120.0,0.0,0.0
7012,45.0,120.0,120.0,0.0,0.0
7013,57.0,0.0,120.0,0.0,0.0
7014,33.0,0.0,120.0,0.0,0.0
7015,64.0,120.0,120.0,0.0,0.0
7016,60.0,0.0,120.0,0.0,0.0
7017,36.0,120.0,120.0,0.0,0.0
7018,57.0,120.0,120.0,0.0,0.0
7019,40.0,0.0,120.0,0.0,0.0
7020,45.0,0.0,120.0,0.0,0.0
7021,52.0,120.0,120.0,0.0,0.0
7022,33.0,120.0,120.0,0.0,0.0
7023,60.0,0.0,120.0,0.0,0.0
7024,55.0,120.0,120.0,0.0,0.0
7025,36.0,0.0,120.0,0.0,0.0
7026,52.0,120.0,120.0,0.0,0.0
7027,40.0,0.0,120.0,0.0,0.0
7028,45.0,0.0,120.0,0.0,0.0
7029,48.0,120.0,120.0,0.0,0.0
7030,33.0,120.0,120.0,0.0,0.0
7031,57.0,0.0,120.0,0.0,0.0
7032,36.0,120.0,120.0,0.0,0.0
7033,52.0,0.0,120.0,0.0,0.0
7034,48.0,0.0,120.0,0.0,0.0
7035,40.0,120.0,120.0,0.0,0.0
7036,45.0,0.0,120.0,0.0,0.0
7037,33.0,0.0,240.0,0.0,0.0
7038,36.0,0.0,240.0,0.0,0.0
7039,40.0,0.0,240.0,0.0,0.0
7040,45.0,0.0,240.0,0.0,0.0
7041,48.0,0.0,240.0,0.0,0.0
7042,52.0,240.0,15.0,0.0,0.0
7043,57.0,0.0,240.0,0.0,0.0
7044,69.0,0.0,240.0,0.0,0.0
7045,72.0,960.0,240.0,0.0,0.0
7046,76.0,0.0,240.0,0.0,0.0
7047,81.0,0.0,240.0,0.0,0.0
7048,45.0,0.0,240.0,0.0,0.0
7049,40.0,0.0,240.0,0.0,0.0
7050,36.0,0.0,240.0,0.0,0.0
7051,33.0,0.0,240.0,0.0,0.0
7052,69.0,0.0,240.0,0.0,0.0
7053,64.0,0.0,240.0,0.0,0.0
7054,33.0,0.0,240.0,0.0,0.0
7055,45.0,0.0,240.0,0.0,0.0
7056,40.0,720.0,240.0,0.0,0.0
7057,36.0,0.0,240.0,0.0,0.0
7058,57.0,0.0,240.0,0.0,0.0
7059,60.0,0.0,240.0,0.0,0.0
