,note,step,duration,channel,velocity
0,63.0,60.0,60.0,0.0,0.0
1,47.0,120.0,120.0,1.0,0.0
2,66.0,1.0,60.0,0.0,0.0
3,51.0,0.0,120.0,1.0,0.0
4,66.0,0.0,120.0,0.0,0.0
5,54.0,59.0,120.0,1.0,0.0
6,68.0,0.0,60.0,0.0,0.0
7,63.0,0.0,15.0,0.0,0.0
8,47.0,120.0,120.0,1.0,0.0
9,66.0,1.0,60.0,0.0,0.0
10,54.0,0.0,120.0,1.0,0.0
11,66.0,0.0,120.0,0.0,0.0
12,51.0,0.0,120.0,1.0,0.0
13,47.0,120.0,120.0,1.0,0.0
14,63.0,59.0,15.0,0.0,0.0
15,71.0,0.0,60.0,0.0,0.0
16,66.0,1.0,60.0,0.0,0.0
17,51.0,0.0,120.0,1.0,0.0
18,66.0,0.0,120.0,0.0,0.0
19,54.0,59.0,120.0,1.0,0.0
20,63.0,0.0,15.0,0.0,0.0
21,68.0,60.0,60.0,0.0,0.0
22,47.0,120.0,120.0,1.0,0.0
23,66.0,1.0,60.0,0.0,0.0
24,54.0,0.0,120.0,1.0,0.0
25,63.0,59.0,120.0,0.0,0.0
26,51.0,0.0,120.0,1.0,0.0
27,66.0,0.0,120.0,0.0,0.0
28,61.0,60.0,60.0,0.0,0.0
29,58.0,0.0,60.0,0.0,0.0
30,42.0,120.0,120.0,1.0,0.0
31,66.0,1.0,60.0,0.0,0.0
32,66.0,59.0,120.0,0.0,0.0
33,58.0,0.0,120.0,0.0,0.0
34,49.0,0.0,120.0,1.0,0.0
35,54.0,0.0,120.0,1.0,0.0
36,63.0,0.0,60.0,0.0,0.0
37,42.0,120.0,120.0,1.0,0.0
38,59.0,60.0,60.0,0.0,0.0
39,66.0,1.0,60.0,0.0,0.0
40,59.0,0.0,120.0,0.0,0.0
41,66.0,0.0,120.0,0.0,0.0
42,54.0,59.0,120.0,1.0,0.0
43,51.0,0.0,120.0,1.0,0.0
44,64.0,60.0,60.0,0.0,0.0
45,61.0,0.0,60.0,0.0,0.0
46,42.0,120.0,120.0,1.0,0.0
47,66.0,1.0,60.0,0.0,0.0
48,54.0,59.0,120.0,1.0,0.0
49,52.0,0.0,120.0,1.0,0.0
50,66.0,0.0,120.0,0.0,0.0
51,61.0,0.0,120.0,0.0,0.0
52,66.0,60.0,60.0,0.0,0.0
53,42.0,119.0,120.0,1.0,0.0
54,76.0,1.0,60.0,0.0,0.0
55,73.0,0.0,60.0,0.0,0.0
56,76.0,1.0,120.0,0.0,0.0
57,73.0,0.0,120.0,0.0,0.0
58,54.0,0.0,120.0,1.0,0.0
59,58.0,59.0,120.0,1.0,0.0
60,47.0,120.0,120.0,1.0,0.0
61,63.0,60.0,60.0,0.0,0.0
62,66.0,1.0,60.0,0.0,0.0
63,66.0,59.0,120.0,0.0,0.0
64,63.0,0.0,120.0,0.0,0.0
65,51.0,0.0,120.0,1.0,0.0
66,54.0,0.0,120.0,1.0,0.0
67,47.0,120.0,120.0,1.0,0.0
68,68.0,0.0,60.0,0.0,0.0
69,63.0,60.0,60.0,0.0,0.0
70,66.0,1.0,60.0,0.0,0.0
71,51.0,0.0,120.0,1.0,0.0
72,54.0,0.0,120.0,1.0,0.0
73,66.0,0.0,120.0,0.0,0.0
74,63.0,59.0,15.0,0.0,0.0
75,71.0,0.0,60.0,0.0,0.0
76,47.0,120.0,120.0,1.0,0.0
77,66.0,1.0,60.0,0.0,0.0
78,51.0,59.0,120.0,1.0,0.0
79,66.0,0.0,120.0,0.0,0.0
80,63.0,0.0,120.0,0.0,0.0
81,54.0,0.0,120.0,1.0,0.0
82,68.0,60.0,60.0,0.0,0.0
83,47.0,120.0,120.0,1.0,0.0
84,63.0,0.0,60.0,0.0,0.0
85,66.0,1.0,60.0,0.0,0.0
86,51.0,0.0,120.0,1.0,0.0
87,66.0,0.0,120.0,0.0,0.0
88,63.0,59.0,120.0,0.0,0.0
89,54.0,0.0,120.0,1.0,0.0
90,42.0,120.0,120.0,1.0,0.0
91,61.0,0.0,60.0,0.0,0.0
92,58.0,60.0,60.0,0.0,0.0
93,66.0,1.0,60.0,0.0,0.0
94,66.0,0.0,120.0,0.0,0.0
95,54.0,0.0,120.0,1.0,0.0
96,49.0,0.0,120.0,1.0,0.0
97,58.0,59.0,120.0,0.0,0.0
98,42.0,120.0,120.0,1.0,0.0
99,59.0,60.0,60.0,0.0,0.0
100,63.0,0.0,60.0,0.0,0.0
101,66.0,1.0,60.0,0.0,0.0
102,66.0,0.0,120.0,0.0,0.0
103,59.0,59.0,120.0,0.0,0.0
104,54.0,0.0,120.0,1.0,0.0
105,51.0,0.0,120.0,1.0,0.0
106,64.0,60.0,60.0,0.0,0.0
107,61.0,0.0,60.0,0.0,0.0
108,42.0,120.0,120.0,1.0,0.0
109,66.0,1.0,60.0,0.0,0.0
110,52.0,0.0,120.0,1.0,0.0
111,54.0,0.0,120.0,1.0,0.0
112,66.0,0.0,120.0,0.0,0.0
113,42.0,120.0,120.0,1.0,0.0
114,61.0,59.0,15.0,0.0,0.0
115,58.0,60.0,60.0,0.0,0.0
116,66.0,1.0,60.0,0.0,0.0
117,58.0,0.0,120.0,0.0,0.0
118,54.0,0.0,120.0,1.0,0.0
119,66.0,119.0,120.0,0.0,0.0
120,39.0,119.0,120.0,1.0,0.0
121,59.0,1.0,120.0,0.0,0.0
122,27.0,59.0,120.0,1.0,0.0
123,54.0,1.0,120.0,0.0,0.0
124,66.0,0.0,120.0,0.0,0.0
125,56.0,60.0,60.0,0.0,0.0
126,28.0,120.0,120.0,1.0,0.0
127,68.0,1.0,60.0,0.0,0.0
128,68.0,119.0,120.0,0.0,0.0
129,40.0,0.0,120.0,1.0,0.0
130,59.0,0.0,120.0,0.0,0.0
131,58.0,1.0,120.0,0.0,0.0
132,42.0,119.0,120.0,1.0,0.0
133,30.0,59.0,120.0,1.0,0.0
134,61.0,1.0,120.0,0.0,0.0
135,70.0,0.0,120.0,0.0,0.0
136,59.0,60.0,60.0,0.0,0.0
137,32.0,120.0,120.0,1.0,0.0
138,71.0,1.0,60.0,0.0,0.0
139,63.0,0.0,120.0,0.0,0.0
140,44.0,0.0,120.0,1.0,0.0
141,71.0,119.0,120.0,0.0,0.0
142,46.0,119.0,120.0,1.0,0.0
143,61.0,1.0,120.0,0.0,0.0
144,34.0,59.0,120.0,1.0,0.0
145,64.0,1.0,120.0,0.0,0.0
146,73.0,0.0,120.0,0.0,0.0
147,35.0,120.0,120.0,1.0,0.0
148,63.0,60.0,60.0,0.0,0.0
149,75.0,1.0,60.0,0.0,0.0
150,47.0,0.0,120.0,1.0,0.0
151,75.0,59.0,120.0,0.0,0.0
152,66.0,0.0,120.0,0.0,0.0
153,42.0,59.0,120.0,1.0,0.0
154,64.0,60.0,60.0,0.0,0.0
155,76.0,1.0,60.0,0.0,0.0
156,73.0,60.0,60.0,0.0,0.0
157,30.0,59.0,120.0,1.0,0.0
158,70.0,1.0,60.0,0.0,0.0
159,71.0,60.0,60.0,0.0,0.0
160,35.0,59.0,120.0,1.0,0.0
161,75.0,1.0,60.0,0.0,0.0
162,47.0,120.0,120.0,1.0,0.0
163,71.0,60.0,60.0,0.0,0.0
164,66.0,1.0,60.0,0.0,0.0
165,63.0,0.0,120.0,0.0,0.0
166,35.0,120.0,120.0,1.0,0.0
167,47.0,0.0,120.0,1.0,0.0
168,51.0,0.0,120.0,1.0,0.0
169,39.0,59.0,120.0,1.0,0.0
170,54.0,0.0,120.0,0.0,0.0
171,66.0,0.0,120.0,0.0,0.0
172,40.0,120.0,120.0,1.0,0.0
173,56.0,60.0,60.0,0.0,0.0
174,68.0,1.0,60.0,0.0,0.0
175,47.0,0.0,120.0,1.0,0.0
176,59.0,119.0,120.0,0.0,0.0
177,68.0,0.0,120.0,0.0,0.0
178,52.0,0.0,120.0,1.0,0.0
179,42.0,119.0,120.0,1.0,0.0
180,58.0,1.0,120.0,0.0,0.0
181,61.0,0.0,120.0,0.0,0.0
182,49.0,59.0,120.0,1.0,0.0
183,54.0,0.0,120.0,1.0,0.0
184,70.0,1.0,120.0,0.0,0.0
185,59.0,60.0,60.0,0.0,0.0
186,44.0,120.0,120.0,1.0,0.0
187,71.0,1.0,60.0,0.0,0.0
188,71.0,0.0,120.0,0.0,0.0
189,63.0,0.0,120.0,0.0,0.0
190,51.0,119.0,120.0,1.0,0.0
191,56.0,0.0,120.0,1.0,0.0
192,46.0,119.0,120.0,1.0,0.0
193,61.0,1.0,120.0,0.0,0.0
194,54.0,0.0,120.0,1.0,0.0
195,58.0,59.0,120.0,1.0,0.0
196,73.0,1.0,120.0,0.0,0.0
197,64.0,0.0,120.0,0.0,0.0
198,47.0,120.0,120.0,1.0,0.0
199,63.0,60.0,60.0,0.0,0.0
200,75.0,1.0,60.0,0.0,0.0
201,54.0,0.0,120.0,1.0,0.0
202,59.0,0.0,120.0,1.0,0.0
203,66.0,60.0,120.0,0.0,0.0
204,75.0,0.0,120.0,0.0,0.0
205,42.0,0.0,120.0,1.0,0.0
206,64.0,60.0,60.0,0.0,0.0
207,76.0,60.0,60.0,0.0,0.0
208,73.0,60.0,60.0,0.0,0.0
209,54.0,120.0,120.0,1.0,0.0
210,70.0,0.0,60.0,0.0,0.0
211,47.0,0.0,120.0,1.0,0.0
212,71.0,120.0,120.0,0.0,0.0
213,35.0,59.0,120.0,1.0,0.0
214,47.0,0.0,120.0,1.0,0.0
215,78.0,60.0,60.0,0.0,0.0
216,75.0,60.0,60.0,0.0,0.0
217,54.0,0.0,120.0,1.0,0.0
218,51.0,0.0,120.0,1.0,0.0
219,71.0,60.0,60.0,0.0,0.0
220,66.0,120.0,60.0,0.0,0.0
221,47.0,1.0,120.0,1.0,0.0
222,63.0,119.0,120.0,0.0,0.0
223,51.0,60.0,120.0,1.0,0.0
224,54.0,0.0,120.0,1.0,0.0
225,78.0,60.0,60.0,0.0,0.0
226,47.0,0.0,120.0,1.0,0.0
227,75.0,60.0,60.0,0.0,0.0
228,54.0,120.0,120.0,1.0,0.0
229,51.0,0.0,120.0,1.0,0.0
230,71.0,60.0,60.0,0.0,0.0
231,66.0,0.0,60.0,0.0,0.0
232,63.0,0.0,120.0,0.0,0.0
233,47.0,120.0,120.0,1.0,0.0
234,54.0,75.0,120.0,1.0,0.0
235,51.0,0.0,120.0,1.0,0.0
236,47.0,1.0,120.0,1.0,0.0
237,78.0,16.0,60.0,0.0,0.0
238,82.0,15.0,15.0,0.0,0.0
239,80.0,14.0,15.0,0.0,0.0
240,78.0,60.0,15.0,0.0,0.0
241,80.0,59.0,60.0,0.0,0.0
242,54.0,1.0,120.0,1.0,0.0
243,51.0,0.0,120.0,1.0,0.0
244,78.0,59.0,60.0,0.0,0.0
245,76.0,60.0,60.0,0.0,0.0
246,47.0,60.0,120.0,1.0,0.0
247,75.0,0.0,60.0,0.0,0.0
248,54.0,60.0,120.0,1.0,0.0
249,73.0,60.0,60.0,0.0,0.0
250,51.0,0.0,120.0,1.0,0.0
251,71.0,0.0,60.0,0.0,0.0
252,78.0,60.0,60.0,0.0,0.0
253,42.0,0.0,120.0,1.0,0.0
254,76.0,60.0,60.0,0.0,0.0
255,49.0,0.0,120.0,1.0,0.0
256,54.0,60.0,120.0,1.0,0.0
257,73.0,60.0,60.0,0.0,0.0
258,70.0,0.0,60.0,0.0,0.0
259,66.0,60.0,60.0,0.0,0.0
260,42.0,0.0,120.0,1.0,0.0
261,64.0,60.0,60.0,0.0,0.0
262,61.0,60.0,60.0,0.0,0.0
263,54.0,60.0,120.0,1.0,0.0
264,49.0,0.0,120.0,1.0,0.0
265,58.0,0.0,60.0,0.0,0.0
266,78.0,60.0,60.0,0.0,0.0
267,47.0,0.0,120.0,1.0,0.0
268,75.0,60.0,60.0,0.0,0.0
269,54.0,0.0,120.0,1.0,0.0
270,71.0,60.0,60.0,0.0,0.0
271,51.0,0.0,120.0,1.0,0.0
272,66.0,120.0,60.0,0.0,0.0
273,47.0,1.0,120.0,1.0,0.0
274,63.0,119.0,120.0,0.0,0.0
275,54.0,60.0,120.0,1.0,0.0
276,51.0,0.0,120.0,1.0,0.0
277,47.0,60.0,120.0,1.0,0.0
278,78.0,60.0,60.0,0.0,0.0
279,75.0,0.0,60.0,0.0,0.0
280,71.0,60.0,60.0,0.0,0.0
281,51.0,0.0,120.0,1.0,0.0
282,54.0,120.0,120.0,1.0,0.0
283,66.0,0.0,60.0,0.0,0.0
284,63.0,119.0,120.0,0.0,0.0
285,47.0,1.0,120.0,1.0,0.0
286,54.0,0.0,120.0,1.0,0.0
287,51.0,76.0,120.0,1.0,0.0
288,78.0,15.0,60.0,0.0,0.0
289,47.0,1.0,120.0,1.0,0.0
290,82.0,15.0,15.0,0.0,0.0
291,80.0,14.0,15.0,0.0,0.0
292,78.0,59.0,15.0,0.0,0.0
293,54.0,0.0,120.0,1.0,0.0
294,51.0,0.0,120.0,1.0,0.0
295,80.0,60.0,60.0,0.0,0.0
296,78.0,61.0,60.0,0.0,0.0
297,42.0,1.0,120.0,1.0,0.0
298,76.0,59.0,60.0,0.0,0.0
299,78.0,60.0,60.0,0.0,0.0
300,49.0,1.0,120.0,1.0,0.0
301,54.0,60.0,120.0,1.0,0.0
302,73.0,59.0,60.0,0.0,0.0
303,78.0,0.0,60.0,0.0,0.0
304,42.0,1.0,120.0,1.0,0.0
305,70.0,59.0,60.0,0.0,0.0
306,78.0,60.0,60.0,0.0,0.0
307,49.0,1.0,120.0,1.0,0.0
308,54.0,0.0,120.0,1.0,0.0
309,66.0,59.0,60.0,0.0,0.0
310,78.0,60.0,60.0,0.0,0.0
311,64.0,59.0,60.0,0.0,0.0
312,42.0,1.0,120.0,1.0,0.0
313,78.0,60.0,60.0,0.0,0.0
314,61.0,59.0,60.0,0.0,0.0
315,54.0,0.0,120.0,1.0,0.0
316,49.0,1.0,120.0,1.0,0.0
317,78.0,120.0,60.0,0.0,0.0
318,59.0,0.0,120.0,0.0,0.0
319,39.0,120.0,120.0,1.0,0.0
320,27.0,0.0,120.0,1.0,0.0
321,54.0,0.0,120.0,0.0,0.0
322,66.0,59.0,120.0,0.0,0.0
323,28.0,120.0,120.0,1.0,0.0
324,56.0,60.0,60.0,0.0,0.0
325,68.0,1.0,60.0,0.0,0.0
326,59.0,0.0,120.0,0.0,0.0
327,68.0,0.0,120.0,0.0,0.0
328,40.0,119.0,120.0,1.0,0.0
329,42.0,119.0,120.0,1.0,0.0
330,58.0,1.0,120.0,0.0,0.0
331,70.0,1.0,120.0,0.0,0.0
332,61.0,0.0,120.0,0.0,0.0
333,30.0,59.0,120.0,1.0,0.0
334,32.0,120.0,120.0,1.0,0.0
335,59.0,60.0,60.0,0.0,0.0
336,71.0,1.0,60.0,0.0,0.0
337,71.0,0.0,120.0,0.0,0.0
338,44.0,119.0,120.0,1.0,0.0
339,63.0,0.0,120.0,0.0,0.0
340,61.0,1.0,120.0,0.0,0.0
341,46.0,119.0,120.0,1.0,0.0
342,73.0,1.0,120.0,0.0,0.0
343,64.0,0.0,120.0,0.0,0.0
344,34.0,59.0,120.0,1.0,0.0
345,35.0,120.0,120.0,1.0,0.0
346,63.0,60.0,60.0,0.0,0.0
347,75.0,1.0,60.0,0.0,0.0
348,66.0,59.0,120.0,0.0,0.0
349,75.0,0.0,120.0,0.0,0.0
350,47.0,0.0,120.0,1.0,0.0
351,42.0,59.0,120.0,1.0,0.0
352,64.0,60.0,60.0,0.0,0.0
353,76.0,1.0,60.0,0.0,0.0
354,73.0,60.0,60.0,0.0,0.0
355,30.0,59.0,120.0,1.0,0.0
356,70.0,1.0,60.0,0.0,0.0
357,35.0,59.0,120.0,1.0,0.0
358,71.0,60.0,60.0,0.0,0.0
359,75.0,1.0,60.0,0.0,0.0
360,71.0,60.0,60.0,0.0,0.0
361,66.0,1.0,60.0,0.0,0.0
362,63.0,0.0,120.0,0.0,0.0
363,35.0,120.0,120.0,1.0,0.0
364,47.0,120.0,15.0,1.0,0.0
365,66.0,59.0,120.0,0.0,0.0
366,54.0,0.0,120.0,0.0,0.0
367,39.0,0.0,120.0,1.0,0.0
368,51.0,0.0,120.0,1.0,0.0
369,40.0,120.0,120.0,1.0,0.0
370,56.0,60.0,60.0,0.0,0.0
371,68.0,1.0,60.0,0.0,0.0
372,59.0,0.0,120.0,0.0,0.0
373,47.0,0.0,120.0,1.0,0.0
374,52.0,0.0,120.0,1.0,0.0
375,68.0,119.0,120.0,0.0,0.0
376,58.0,1.0,120.0,0.0,0.0
377,42.0,119.0,120.0,1.0,0.0
378,49.0,0.0,120.0,1.0,0.0
379,54.0,59.0,120.0,1.0,0.0
380,61.0,1.0,120.0,0.0,0.0
381,70.0,0.0,120.0,0.0,0.0
382,59.0,60.0,60.0,0.0,0.0
383,44.0,120.0,120.0,1.0,0.0
384,71.0,1.0,60.0,0.0,0.0
385,63.0,119.0,120.0,0.0,0.0
386,71.0,0.0,120.0,0.0,0.0
387,51.0,0.0,120.0,1.0,0.0
388,56.0,0.0,120.0,1.0,0.0
389,61.0,1.0,120.0,0.0,0.0
390,46.0,119.0,120.0,1.0,0.0
391,73.0,0.0,120.0,0.0,0.0
392,64.0,1.0,120.0,0.0,0.0
393,54.0,59.0,120.0,1.0,0.0
394,58.0,0.0,120.0,1.0,0.0
395,63.0,60.0,60.0,0.0,0.0
396,47.0,120.0,120.0,1.0,0.0
397,75.0,1.0,60.0,0.0,0.0
398,59.0,0.0,120.0,1.0,0.0
399,54.0,60.0,120.0,1.0,0.0
400,75.0,0.0,120.0,0.0,0.0
401,66.0,0.0,120.0,0.0,0.0
402,64.0,60.0,60.0,0.0,0.0
403,42.0,0.0,120.0,1.0,0.0
404,76.0,60.0,60.0,0.0,0.0
405,73.0,60.0,60.0,0.0,0.0
406,54.0,0.0,120.0,1.0,0.0
407,70.0,120.0,60.0,0.0,0.0
408,47.0,0.0,120.0,1.0,0.0
409,71.0,120.0,120.0,0.0,0.0
410,35.0,120.0,120.0,1.0,0.0
411,71.0,0.0,120.0,0.0,0.0
412,59.0,0.0,120.0,0.0,0.0
413,63.0,60.0,120.0,0.0,0.0
414,35.0,0.0,120.0,1.0,0.0
415,66.0,0.0,120.0,0.0,0.0
416,51.0,0.0,120.0,1.0,0.0
417,47.0,0.0,120.0,1.0,0.0
418,70.0,0.0,60.0,0.0,0.0
419,66.0,60.0,60.0,0.0,0.0
420,64.0,120.0,60.0,0.0,0.0
421,68.0,0.0,60.0,0.0,0.0
422,63.0,0.0,120.0,0.0,0.0
423,35.0,0.0,120.0,1.0,0.0
424,51.0,0.0,120.0,1.0,0.0
425,66.0,120.0,15.0,0.0,0.0
426,47.0,60.0,120.0,1.0,0.0
427,63.0,0.0,120.0,0.0,0.0
428,68.0,60.0,60.0,0.0,0.0
429,64.0,0.0,60.0,0.0,0.0
430,35.0,60.0,120.0,1.0,0.0
431,66.0,0.0,60.0,0.0,0.0
432,63.0,0.0,60.0,0.0,0.0
433,64.0,0.0,60.0,0.0,0.0
434,68.0,60.0,60.0,0.0,0.0
435,52.0,120.0,120.0,1.0,0.0
436,47.0,0.0,120.0,1.0,0.0
437,62.0,0.0,60.0,0.0,0.0
438,65.0,0.0,60.0,0.0,0.0
439,66.0,120.0,120.0,0.0,0.0
440,35.0,0.0,120.0,1.0,0.0
441,63.0,0.0,120.0,0.0,0.0
442,47.0,0.0,120.0,1.0,0.0
443,51.0,0.0,120.0,1.0,0.0
444,66.0,120.0,120.0,0.0,0.0
445,63.0,0.0,120.0,0.0,0.0
446,30.0,0.0,120.0,1.0,0.0
447,64.0,60.0,120.0,0.0,0.0
448,61.0,0.0,120.0,0.0,0.0
449,42.0,120.0,120.0,1.0,0.0
450,46.0,0.0,120.0,1.0,0.0
451,76.0,60.0,60.0,0.0,0.0
452,73.0,0.0,60.0,0.0,0.0
453,75.0,0.0,60.0,0.0,0.0
454,71.0,0.0,60.0,0.0,0.0
455,30.0,60.0,120.0,1.0,0.0
456,70.0,0.0,120.0,0.0,0.0
457,73.0,0.0,120.0,0.0,0.0
458,70.0,0.0,60.0,0.0,0.0
459,73.0,60.0,60.0,0.0,0.0
460,42.0,0.0,120.0,1.0,0.0
461,46.0,0.0,120.0,1.0,0.0
462,71.0,120.0,60.0,0.0,0.0
463,68.0,0.0,60.0,0.0,0.0
464,66.0,60.0,120.0,0.0,0.0
465,30.0,0.0,120.0,1.0,0.0
466,46.0,0.0,120.0,1.0,0.0
467,70.0,0.0,15.0,0.0,0.0
468,42.0,120.0,120.0,1.0,0.0
469,66.0,60.0,60.0,0.0,0.0
470,64.0,0.0,60.0,0.0,0.0
471,68.0,0.0,60.0,0.0,0.0
472,66.0,0.0,120.0,0.0,0.0
473,63.0,120.0,120.0,0.0,0.0
474,30.0,0.0,120.0,1.0,0.0
475,46.0,0.0,120.0,1.0,0.0
476,42.0,0.0,120.0,1.0,0.0
477,64.0,0.0,120.0,0.0,0.0
478,61.0,120.0,120.0,0.0,0.0
479,71.0,0.0,120.0,0.0,0.0
480,59.0,0.0,120.0,0.0,0.0
481,35.0,0.0,120.0,1.0,0.0
482,66.0,60.0,120.0,0.0,0.0
483,63.0,0.0,120.0,0.0,0.0
484,47.0,0.0,120.0,1.0,0.0
485,70.0,0.0,60.0,0.0,0.0
486,51.0,0.0,120.0,1.0,0.0
487,66.0,60.0,60.0,0.0,0.0
488,68.0,0.0,60.0,0.0,0.0
489,64.0,120.0,60.0,0.0,0.0
490,35.0,120.0,120.0,1.0,0.0
491,66.0,0.0,120.0,0.0,0.0
492,63.0,0.0,120.0,0.0,0.0
493,66.0,0.0,120.0,0.0,0.0
494,63.0,0.0,120.0,0.0,0.0
495,51.0,60.0,120.0,1.0,0.0
496,47.0,0.0,120.0,1.0,0.0
497,68.0,0.0,60.0,0.0,0.0
498,64.0,60.0,60.0,0.0,0.0
499,35.0,60.0,120.0,1.0,0.0
500,66.0,0.0,60.0,0.0,0.0
501,63.0,0.0,60.0,0.0,0.0
502,47.0,0.0,120.0,1.0,0.0
503,68.0,0.0,60.0,0.0,0.0
504,64.0,60.0,60.0,0.0,0.0
505,52.0,0.0,120.0,1.0,0.0
506,65.0,120.0,60.0,0.0,0.0
507,62.0,0.0,60.0,0.0,0.0
508,35.0,120.0,120.0,1.0,0.0
509,63.0,0.0,240.0,0.0,0.0
510,66.0,120.0,240.0,0.0,0.0
511,51.0,0.0,120.0,1.0,0.0
512,47.0,0.0,120.0,1.0,0.0
513,30.0,0.0,120.0,1.0,0.0
514,64.0,60.0,120.0,0.0,0.0
515,61.0,0.0,120.0,0.0,0.0
516,46.0,60.0,120.0,1.0,0.0
517,42.0,0.0,120.0,1.0,0.0
518,80.0,0.0,60.0,0.0,0.0
519,76.0,60.0,60.0,0.0,0.0
520,78.0,0.0,60.0,0.0,0.0
521,75.0,0.0,60.0,0.0,0.0
522,73.0,0.0,60.0,0.0,0.0
523,30.0,60.0,120.0,1.0,0.0
524,76.0,60.0,60.0,0.0,0.0
525,71.0,0.0,60.0,0.0,0.0
526,75.0,0.0,60.0,0.0,0.0
527,73.0,0.0,60.0,0.0,0.0
528,70.0,60.0,60.0,0.0,0.0
529,46.0,0.0,120.0,1.0,0.0
530,42.0,120.0,120.0,1.0,0.0
531,68.0,0.0,60.0,0.0,0.0
532,71.0,0.0,60.0,0.0,0.0
533,70.0,0.0,120.0,0.0,0.0
534,66.0,120.0,120.0,0.0,0.0
535,30.0,0.0,120.0,1.0,0.0
536,42.0,120.0,120.0,1.0,0.0
537,64.0,0.0,120.0,0.0,0.0
538,68.0,0.0,120.0,0.0,0.0
539,66.0,0.0,120.0,0.0,0.0
540,30.0,0.0,120.0,1.0,0.0
541,63.0,120.0,120.0,0.0,0.0
542,64.0,0.0,120.0,0.0,0.0
543,61.0,120.0,120.0,0.0,0.0
544,42.0,0.0,120.0,1.0,0.0
545,39.0,0.0,120.0,1.0,0.0
546,59.0,120.0,120.0,0.0,0.0
547,54.0,59.0,120.0,0.0,0.0
548,27.0,0.0,120.0,1.0,0.0
549,66.0,0.0,120.0,0.0,0.0
550,28.0,120.0,120.0,1.0,0.0
551,56.0,60.0,60.0,0.0,0.0
552,68.0,1.0,60.0,0.0,0.0
553,68.0,0.0,120.0,0.0,0.0
554,40.0,119.0,120.0,1.0,0.0
555,59.0,0.0,120.0,0.0,0.0
556,58.0,1.0,120.0,0.0,0.0
557,42.0,119.0,120.0,1.0,0.0
558,30.0,59.0,120.0,1.0,0.0
559,61.0,1.0,120.0,0.0,0.0
560,70.0,0.0,120.0,0.0,0.0
561,59.0,60.0,60.0,0.0,0.0
562,32.0,120.0,120.0,1.0,0.0
563,71.0,1.0,60.0,0.0,0.0
564,44.0,0.0,120.0,1.0,0.0
565,71.0,119.0,120.0,0.0,0.0
566,63.0,0.0,120.0,0.0,0.0
567,61.0,1.0,120.0,0.0,0.0
568,46.0,119.0,120.0,1.0,0.0
569,64.0,1.0,120.0,0.0,0.0
570,73.0,0.0,120.0,0.0,0.0
571,34.0,59.0,120.0,1.0,0.0
572,35.0,120.0,120.0,1.0,0.0
573,63.0,60.0,60.0,0.0,0.0
574,75.0,1.0,60.0,0.0,0.0
575,47.0,0.0,120.0,1.0,0.0
576,66.0,59.0,120.0,0.0,0.0
577,75.0,0.0,120.0,0.0,0.0
578,42.0,59.0,120.0,1.0,0.0
579,64.0,60.0,60.0,0.0,0.0
580,76.0,1.0,60.0,0.0,0.0
581,30.0,59.0,120.0,1.0,0.0
582,73.0,60.0,60.0,0.0,0.0
583,70.0,1.0,60.0,0.0,0.0
584,35.0,59.0,120.0,1.0,0.0
585,71.0,60.0,60.0,0.0,0.0
586,75.0,1.0,60.0,0.0,0.0
587,71.0,60.0,60.0,0.0,0.0
588,66.0,1.0,60.0,0.0,0.0
589,47.0,120.0,15.0,1.0,0.0
590,35.0,120.0,120.0,1.0,0.0
591,63.0,0.0,120.0,0.0,0.0
592,66.0,0.0,120.0,0.0,0.0
593,54.0,0.0,120.0,0.0,0.0
594,51.0,0.0,120.0,1.0,0.0
595,39.0,59.0,120.0,1.0,0.0
596,40.0,120.0,120.0,1.0,0.0
597,56.0,60.0,60.0,0.0,0.0
598,68.0,1.0,60.0,0.0,0.0
599,52.0,0.0,120.0,1.0,0.0
600,68.0,119.0,120.0,0.0,0.0
601,59.0,0.0,120.0,0.0,0.0
602,47.0,0.0,120.0,1.0,0.0
603,58.0,1.0,120.0,0.0,0.0
604,42.0,119.0,120.0,1.0,0.0
605,70.0,1.0,120.0,0.0,0.0
606,61.0,0.0,120.0,0.0,0.0
607,49.0,0.0,120.0,1.0,0.0
608,54.0,59.0,120.0,1.0,0.0
609,44.0,120.0,120.0,1.0,0.0
610,59.0,60.0,60.0,0.0,0.0
611,71.0,1.0,60.0,0.0,0.0
612,71.0,0.0,120.0,0.0,0.0
613,63.0,0.0,120.0,0.0,0.0
614,51.0,119.0,120.0,1.0,0.0
615,56.0,0.0,120.0,1.0,0.0
616,61.0,1.0,120.0,0.0,0.0
617,46.0,119.0,120.0,1.0,0.0
618,54.0,59.0,120.0,1.0,0.0
619,58.0,0.0,120.0,1.0,0.0
620,73.0,0.0,120.0,0.0,0.0
621,64.0,1.0,120.0,0.0,0.0
622,63.0,60.0,60.0,0.0,0.0
623,47.0,120.0,120.0,1.0,0.0
624,75.0,1.0,60.0,0.0,0.0
625,54.0,0.0,120.0,1.0,0.0
626,59.0,0.0,120.0,1.0,0.0
627,75.0,0.0,120.0,0.0,0.0
628,66.0,60.0,120.0,0.0,0.0
629,64.0,60.0,60.0,0.0,0.0
630,42.0,60.0,120.0,1.0,0.0
631,76.0,0.0,60.0,0.0,0.0
632,54.0,120.0,120.0,1.0,0.0
633,73.0,60.0,60.0,0.0,0.0
634,70.0,0.0,60.0,0.0,0.0
635,47.0,0.0,120.0,1.0,0.0
636,71.0,120.0,120.0,0.0,0.0
637,35.0,120.0,120.0,1.0,0.0
638,39.0,60.0,120.0,1.0,0.0
639,54.0,0.0,60.0,0.0,0.0
640,59.0,60.0,60.0,0.0,0.0
641,51.0,120.0,120.0,1.0,0.0
642,63.0,0.0,60.0,0.0,0.0
643,66.0,120.0,120.0,0.0,0.0
644,37.0,0.0,120.0,1.0,0.0
645,64.0,120.0,120.0,0.0,0.0
646,49.0,0.0,120.0,1.0,0.0
647,30.0,0.0,120.0,1.0,0.0
648,61.0,60.0,60.0,0.0,0.0
649,42.0,120.0,120.0,1.0,0.0
650,64.0,60.0,60.0,0.0,0.0
651,70.0,0.0,60.0,0.0,0.0
652,73.0,120.0,120.0,0.0,0.0
653,35.0,0.0,120.0,1.0,0.0
654,71.0,120.0,120.0,0.0,0.0
655,47.0,0.0,120.0,1.0,0.0
656,39.0,60.0,120.0,1.0,0.0
657,54.0,0.0,60.0,0.0,0.0
658,51.0,0.0,120.0,1.0,0.0
659,59.0,60.0,60.0,0.0,0.0
660,63.0,120.0,60.0,0.0,0.0
661,66.0,0.0,120.0,0.0,0.0
662,37.0,120.0,120.0,1.0,0.0
663,64.0,0.0,120.0,0.0,0.0
664,49.0,120.0,120.0,1.0,0.0
665,30.0,60.0,120.0,1.0,0.0
666,76.0,0.0,60.0,0.0,0.0
667,42.0,0.0,120.0,1.0,0.0
668,73.0,60.0,60.0,0.0,0.0
669,70.0,60.0,60.0,0.0,0.0
670,35.0,60.0,120.0,1.0,0.0
671,71.0,60.0,60.0,0.0,0.0
672,75.0,0.0,60.0,0.0,0.0
673,47.0,120.0,120.0,1.0,0.0
674,71.0,60.0,60.0,0.0,0.0
675,66.0,0.0,60.0,0.0,0.0
676,39.0,60.0,120.0,1.0,0.0
677,54.0,0.0,60.0,0.0,0.0
678,59.0,60.0,60.0,0.0,0.0
679,51.0,0.0,120.0,1.0,0.0
680,63.0,120.0,60.0,0.0,0.0
681,37.0,120.0,120.0,1.0,0.0
682,66.0,0.0,120.0,0.0,0.0
683,64.0,0.0,120.0,0.0,0.0
684,49.0,120.0,120.0,1.0,0.0
685,30.0,60.0,120.0,1.0,0.0
686,61.0,0.0,60.0,0.0,0.0
687,64.0,60.0,60.0,0.0,0.0
688,42.0,0.0,120.0,1.0,0.0
689,70.0,120.0,60.0,0.0,0.0
690,35.0,120.0,120.0,1.0,0.0
691,73.0,0.0,120.0,0.0,0.0
692,47.0,0.0,120.0,1.0,0.0
693,71.0,120.0,120.0,0.0,0.0
694,39.0,0.0,120.0,1.0,0.0
695,54.0,60.0,60.0,0.0,0.0
696,51.0,120.0,120.0,1.0,0.0
697,59.0,60.0,60.0,0.0,0.0
698,63.0,0.0,60.0,0.0,0.0
699,37.0,120.0,120.0,1.0,0.0
700,66.0,0.0,120.0,0.0,0.0
701,64.0,0.0,120.0,0.0,0.0
702,49.0,120.0,120.0,1.0,0.0
703,30.0,0.0,120.0,1.0,0.0
704,76.0,60.0,60.0,0.0,0.0
705,42.0,0.0,120.0,1.0,0.0
706,73.0,60.0,60.0,0.0,0.0
707,70.0,60.0,60.0,0.0,0.0
708,35.0,60.0,120.0,1.0,0.0
709,71.0,60.0,60.0,0.0,0.0
710,75.0,0.0,60.0,0.0,0.0
711,71.0,60.0,60.0,0.0,0.0
712,47.0,0.0,120.0,1.0,0.0
713,66.0,120.0,60.0,0.0,0.0
714,39.0,120.0,120.0,1.0,0.0
715,59.0,0.0,120.0,0.0,0.0
716,66.0,59.0,120.0,0.0,0.0
717,54.0,0.0,120.0,0.0,0.0
718,27.0,0.0,120.0,1.0,0.0
719,28.0,120.0,120.0,1.0,0.0
720,56.0,60.0,60.0,0.0,0.0
721,68.0,1.0,60.0,0.0,0.0
722,59.0,0.0,120.0,0.0,0.0
723,40.0,0.0,120.0,1.0,0.0
724,68.0,119.0,120.0,0.0,0.0
725,42.0,119.0,120.0,1.0,0.0
726,58.0,1.0,120.0,0.0,0.0
727,61.0,1.0,120.0,0.0,0.0
728,70.0,0.0,120.0,0.0,0.0
729,30.0,59.0,120.0,1.0,0.0
730,59.0,60.0,60.0,0.0,0.0
731,32.0,120.0,120.0,1.0,0.0
732,71.0,1.0,60.0,0.0,0.0
733,44.0,0.0,120.0,1.0,0.0
734,71.0,119.0,120.0,0.0,0.0
735,63.0,0.0,120.0,0.0,0.0
736,46.0,119.0,120.0,1.0,0.0
737,61.0,1.0,120.0,0.0,0.0
738,34.0,59.0,120.0,1.0,0.0
739,73.0,1.0,120.0,0.0,0.0
740,64.0,0.0,120.0,0.0,0.0
741,63.0,60.0,60.0,0.0,0.0
742,35.0,120.0,120.0,1.0,0.0
743,75.0,1.0,60.0,0.0,0.0
744,75.0,0.0,120.0,0.0,0.0
745,47.0,59.0,120.0,1.0,0.0
746,66.0,0.0,120.0,0.0,0.0
747,64.0,60.0,60.0,0.0,0.0
748,42.0,59.0,120.0,1.0,0.0
749,76.0,1.0,60.0,0.0,0.0
750,30.0,59.0,120.0,1.0,0.0
751,73.0,60.0,60.0,0.0,0.0
752,70.0,1.0,60.0,0.0,0.0
753,35.0,59.0,120.0,1.0,0.0
754,71.0,60.0,60.0,0.0,0.0
755,75.0,1.0,60.0,0.0,0.0
756,47.0,120.0,120.0,1.0,0.0
757,71.0,60.0,60.0,0.0,0.0
758,66.0,1.0,60.0,0.0,0.0
759,63.0,0.0,120.0,0.0,0.0
760,35.0,120.0,120.0,1.0,0.0
761,47.0,0.0,120.0,1.0,0.0
762,39.0,59.0,120.0,1.0,0.0
763,66.0,0.0,120.0,0.0,0.0
764,54.0,0.0,120.0,0.0,0.0
765,51.0,0.0,120.0,1.0,0.0
766,56.0,60.0,60.0,0.0,0.0
767,40.0,120.0,120.0,1.0,0.0
768,68.0,1.0,60.0,0.0,0.0
769,52.0,0.0,120.0,1.0,0.0
770,68.0,0.0,120.0,0.0,0.0
771,59.0,119.0,120.0,0.0,0.0
772,47.0,0.0,120.0,1.0,0.0
773,42.0,119.0,120.0,1.0,0.0
774,58.0,1.0,120.0,0.0,0.0
775,49.0,0.0,120.0,1.0,0.0
776,54.0,59.0,120.0,1.0,0.0
777,70.0,0.0,120.0,0.0,0.0
778,61.0,1.0,120.0,0.0,0.0
779,59.0,60.0,60.0,0.0,0.0
780,44.0,120.0,120.0,1.0,0.0
781,71.0,1.0,60.0,0.0,0.0
782,56.0,0.0,120.0,1.0,0.0
783,51.0,0.0,120.0,1.0,0.0
784,63.0,119.0,120.0,0.0,0.0
785,71.0,0.0,120.0,0.0,0.0
786,61.0,1.0,120.0,0.0,0.0
787,46.0,119.0,120.0,1.0,0.0
788,73.0,1.0,120.0,0.0,0.0
789,64.0,0.0,120.0,0.0,0.0
790,54.0,59.0,120.0,1.0,0.0
791,58.0,0.0,120.0,1.0,0.0
792,47.0,120.0,120.0,1.0,0.0
793,63.0,60.0,60.0,0.0,0.0
794,75.0,1.0,60.0,0.0,0.0
795,59.0,0.0,120.0,1.0,0.0
796,54.0,0.0,120.0,1.0,0.0
797,75.0,60.0,120.0,0.0,0.0
798,66.0,0.0,120.0,0.0,0.0
799,64.0,60.0,60.0,0.0,0.0
800,42.0,60.0,120.0,1.0,0.0
801,76.0,0.0,60.0,0.0,0.0
802,73.0,60.0,60.0,0.0,0.0
803,54.0,120.0,120.0,1.0,0.0
804,70.0,0.0,60.0,0.0,0.0
805,71.0,120.0,120.0,0.0,0.0
806,47.0,0.0,120.0,1.0,0.0
807,35.0,120.0,120.0,1.0,0.0
808,47.0,60.0,120.0,1.0,0.0
809,75.0,0.0,120.0,0.0,0.0
810,66.0,0.0,15.0,0.0,0.0
811,75.0,0.0,60.0,0.0,0.0
812,54.0,0.0,120.0,1.0,0.0
813,51.0,0.0,120.0,1.0,0.0
814,64.0,120.0,60.0,0.0,0.0
815,73.0,0.0,60.0,0.0,0.0
816,63.0,120.0,240.0,0.0,0.0
817,71.0,0.0,240.0,0.0,0.0
818,47.0,120.0,120.0,1.0,0.0
819,54.0,0.0,120.0,1.0,0.0
820,51.0,0.0,120.0,1.0,0.0
821,51.0,0.0,120.0,0.0,0.0
822,35.0,0.0,120.0,1.0,0.0
823,51.0,0.0,120.0,1.0,0.0
824,47.0,120.0,120.0,1.0,0.0
825,59.0,60.0,15.0,0.0,0.0
826,51.0,0.0,60.0,0.0,0.0
827,61.0,0.0,60.0,0.0,0.0
828,54.0,0.0,60.0,0.0,0.0
829,59.0,0.0,120.0,0.0,0.0
830,35.0,120.0,120.0,1.0,0.0
831,63.0,0.0,120.0,0.0,0.0
832,47.0,0.0,120.0,1.0,0.0
833,51.0,120.0,120.0,1.0,0.0
834,30.0,60.0,120.0,1.0,0.0
835,46.0,0.0,120.0,1.0,0.0
836,76.0,60.0,60.0,0.0,0.0
837,73.0,0.0,60.0,0.0,0.0
838,42.0,120.0,120.0,1.0,0.0
839,71.0,0.0,60.0,0.0,0.0
840,75.0,0.0,60.0,0.0,0.0
841,30.0,120.0,120.0,1.0,0.0
842,70.0,0.0,240.0,0.0,0.0
843,73.0,0.0,240.0,0.0,0.0
844,42.0,0.0,120.0,1.0,0.0
845,46.0,60.0,120.0,1.0,0.0
846,58.0,60.0,60.0,0.0,0.0
847,61.0,0.0,60.0,0.0,0.0
848,30.0,60.0,120.0,1.0,0.0
849,59.0,0.0,60.0,0.0,0.0
850,63.0,0.0,60.0,0.0,0.0
851,64.0,0.0,60.0,0.0,0.0
852,61.0,60.0,60.0,0.0,0.0
853,46.0,0.0,120.0,1.0,0.0
854,42.0,0.0,120.0,1.0,0.0
855,66.0,0.0,60.0,0.0,0.0
856,63.0,120.0,60.0,0.0,0.0
857,30.0,120.0,120.0,1.0,0.0
858,68.0,0.0,240.0,0.0,0.0
859,64.0,0.0,240.0,0.0,0.0
860,42.0,0.0,120.0,1.0,0.0
861,46.0,120.0,120.0,1.0,0.0
862,75.0,0.0,120.0,0.0,0.0
863,66.0,60.0,120.0,0.0,0.0
864,47.0,0.0,120.0,1.0,0.0
865,51.0,0.0,120.0,1.0,0.0
866,54.0,120.0,120.0,1.0,0.0
867,66.0,0.0,60.0,0.0,0.0
868,75.0,60.0,60.0,0.0,0.0
869,64.0,0.0,60.0,0.0,0.0
870,73.0,0.0,60.0,0.0,0.0
871,47.0,120.0,120.0,1.0,0.0
872,71.0,0.0,240.0,0.0,0.0
873,63.0,0.0,240.0,0.0,0.0
874,54.0,0.0,120.0,1.0,0.0
875,51.0,120.0,120.0,1.0,0.0
876,35.0,0.0,120.0,1.0,0.0
877,59.0,60.0,15.0,0.0,0.0
878,51.0,0.0,15.0,0.0,0.0
879,51.0,0.0,120.0,1.0,0.0
880,47.0,0.0,120.0,1.0,0.0
881,54.0,0.0,60.0,0.0,0.0
882,61.0,120.0,60.0,0.0,0.0
883,35.0,120.0,120.0,1.0,0.0
884,63.0,120.0,240.0,0.0,0.0
885,59.0,0.0,240.0,0.0,0.0
886,47.0,0.0,120.0,1.0,0.0
887,51.0,0.0,120.0,1.0,0.0
888,30.0,60.0,120.0,1.0,0.0
889,73.0,60.0,60.0,0.0,0.0
890,76.0,0.0,60.0,0.0,0.0
891,46.0,0.0,120.0,1.0,0.0
892,42.0,120.0,120.0,1.0,0.0
893,75.0,0.0,60.0,0.0,0.0
894,71.0,0.0,60.0,0.0,0.0
895,73.0,0.0,240.0,0.0,0.0
896,70.0,0.0,240.0,0.0,0.0
897,30.0,120.0,120.0,1.0,0.0
898,42.0,0.0,120.0,1.0,0.0
899,46.0,60.0,120.0,1.0,0.0
900,58.0,0.0,60.0,0.0,0.0
901,61.0,60.0,60.0,0.0,0.0
902,30.0,0.0,120.0,1.0,0.0
903,59.0,60.0,60.0,0.0,0.0
904,63.0,0.0,60.0,0.0,0.0
905,46.0,0.0,120.0,1.0,0.0
906,42.0,120.0,120.0,1.0,0.0
907,64.0,60.0,60.0,0.0,0.0
908,61.0,0.0,60.0,0.0,0.0
909,66.0,0.0,60.0,0.0,0.0
910,63.0,0.0,60.0,0.0,0.0
911,68.0,0.0,240.0,0.0,0.0
912,64.0,0.0,240.0,0.0,0.0
913,30.0,120.0,120.0,1.0,0.0
914,46.0,0.0,120.0,1.0,0.0
915,42.0,120.0,120.0,1.0,0.0
916,63.0,0.0,120.0,0.0,0.0
917,39.0,120.0,120.0,1.0,0.0
918,66.0,0.0,15.0,0.0,0.0
919,54.0,0.0,120.0,0.0,0.0
920,27.0,59.0,120.0,1.0,0.0
921,28.0,120.0,120.0,1.0,0.0
922,56.0,60.0,60.0,0.0,0.0
923,68.0,1.0,60.0,0.0,0.0
924,59.0,119.0,120.0,0.0,0.0
925,68.0,0.0,120.0,0.0,0.0
926,40.0,0.0,120.0,1.0,0.0
927,42.0,119.0,120.0,1.0,0.0
928,58.0,1.0,120.0,0.0,0.0
929,30.0,59.0,120.0,1.0,0.0
930,70.0,1.0,120.0,0.0,0.0
931,61.0,0.0,120.0,0.0,0.0
932,32.0,120.0,120.0,1.0,0.0
933,59.0,60.0,60.0,0.0,0.0
934,71.0,1.0,60.0,0.0,0.0
935,44.0,119.0,120.0,1.0,0.0
936,71.0,0.0,120.0,0.0,0.0
937,63.0,0.0,120.0,0.0,0.0
938,61.0,1.0,120.0,0.0,0.0
939,46.0,119.0,120.0,1.0,0.0
940,34.0,59.0,120.0,1.0,0.0
941,73.0,0.0,120.0,0.0,0.0
942,64.0,1.0,120.0,0.0,0.0
943,63.0,60.0,60.0,0.0,0.0
944,35.0,120.0,120.0,1.0,0.0
945,75.0,1.0,60.0,0.0,0.0
946,47.0,0.0,120.0,1.0,0.0
947,66.0,0.0,120.0,0.0,0.0
948,75.0,59.0,120.0,0.0,0.0
949,42.0,59.0,120.0,1.0,0.0
950,64.0,60.0,60.0,0.0,0.0
951,76.0,1.0,60.0,0.0,0.0
952,30.0,59.0,120.0,1.0,0.0
953,73.0,60.0,60.0,0.0,0.0
954,70.0,1.0,60.0,0.0,0.0
955,35.0,59.0,120.0,1.0,0.0
956,71.0,60.0,60.0,0.0,0.0
957,75.0,1.0,60.0,0.0,0.0
958,71.0,60.0,60.0,0.0,0.0
959,66.0,1.0,60.0,0.0,0.0
960,47.0,120.0,15.0,1.0,0.0
961,35.0,120.0,120.0,1.0,0.0
962,63.0,0.0,120.0,0.0,0.0
963,54.0,0.0,120.0,0.0,0.0
964,66.0,0.0,120.0,0.0,0.0
965,51.0,59.0,120.0,1.0,0.0
966,39.0,0.0,120.0,1.0,0.0
967,56.0,60.0,60.0,0.0,0.0
968,40.0,120.0,120.0,1.0,0.0
969,68.0,1.0,60.0,0.0,0.0
970,68.0,119.0,120.0,0.0,0.0
971,59.0,0.0,120.0,0.0,0.0
972,47.0,0.0,120.0,1.0,0.0
973,52.0,0.0,120.0,1.0,0.0
974,58.0,1.0,120.0,0.0,0.0
975,42.0,119.0,120.0,1.0,0.0
976,61.0,0.0,120.0,0.0,0.0
977,70.0,1.0,120.0,0.0,0.0
978,49.0,0.0,120.0,1.0,0.0
979,54.0,59.0,120.0,1.0,0.0
980,44.0,120.0,120.0,1.0,0.0
981,59.0,60.0,60.0,0.0,0.0
982,71.0,1.0,60.0,0.0,0.0
983,56.0,0.0,120.0,1.0,0.0
984,63.0,0.0,120.0,0.0,0.0
985,71.0,119.0,120.0,0.0,0.0
986,51.0,0.0,120.0,1.0,0.0
987,46.0,119.0,120.0,1.0,0.0
988,61.0,1.0,120.0,0.0,0.0
989,54.0,0.0,120.0,1.0,0.0
990,58.0,59.0,120.0,1.0,0.0
991,64.0,1.0,120.0,0.0,0.0
992,73.0,0.0,120.0,0.0,0.0
993,63.0,60.0,60.0,0.0,0.0
994,47.0,120.0,120.0,1.0,0.0
995,75.0,1.0,60.0,0.0,0.0
996,59.0,0.0,120.0,1.0,0.0
997,54.0,60.0,120.0,1.0,0.0
998,66.0,0.0,120.0,0.0,0.0
999,75.0,0.0,120.0,0.0,0.0
1000,42.0,60.0,120.0,1.0,0.0
1001,64.0,60.0,60.0,0.0,0.0
1002,76.0,0.0,60.0,0.0,0.0
1003,73.0,60.0,60.0,0.0,0.0
1004,54.0,0.0,120.0,1.0,0.0
1005,70.0,120.0,60.0,0.0,0.0
1006,71.0,120.0,120.0,0.0,0.0
1007,47.0,0.0,120.0,1.0,0.0
1008,35.0,74.0,120.0,1.0,0.0
1009,66.0,14.0,90.0,0.0,0.0
1010,63.0,2.0,60.0,0.0,0.0
1011,35.0,0.0,120.0,1.0,0.0
1012,68.0,15.0,15.0,0.0,0.0
1013,66.0,15.0,15.0,0.0,0.0
1014,65.0,60.0,15.0,0.0,0.0
1015,66.0,60.0,60.0,0.0,0.0
1016,51.0,0.0,120.0,1.0,0.0
1017,47.0,120.0,120.0,1.0,0.0
1018,71.0,0.0,60.0,0.0,0.0
1019,35.0,120.0,120.0,1.0,0.0
1020,59.0,0.0,240.0,0.0,0.0
1021,63.0,0.0,240.0,0.0,0.0
1022,51.0,74.0,120.0,1.0,0.0
1023,47.0,0.0,120.0,1.0,0.0
1024,71.0,16.0,60.0,0.0,0.0
1025,35.0,60.0,120.0,1.0,0.0
1026,73.0,15.0,15.0,0.0,0.0
1027,71.0,15.0,15.0,0.0,0.0
1028,70.0,0.0,15.0,0.0,0.0
1029,47.0,0.0,120.0,1.0,0.0
1030,51.0,0.0,120.0,1.0,0.0
1031,71.0,60.0,60.0,0.0,0.0
1032,75.0,120.0,60.0,0.0,0.0
1033,35.0,120.0,120.0,1.0,0.0
1034,66.0,0.0,240.0,0.0,0.0
1035,63.0,0.0,240.0,0.0,0.0
1036,47.0,60.0,120.0,1.0,0.0
1037,51.0,0.0,15.0,1.0,0.0
1038,66.0,60.0,60.0,0.0,0.0
1039,63.0,0.0,60.0,0.0,0.0
1040,47.0,60.0,60.0,1.0,0.0
1041,68.0,0.0,60.0,0.0,0.0
1042,52.0,60.0,60.0,1.0,0.0
1043,66.0,0.0,60.0,0.0,0.0
1044,51.0,60.0,60.0,1.0,0.0
1045,64.0,60.0,60.0,0.0,0.0
1046,56.0,0.0,60.0,1.0,0.0
1047,63.0,0.0,60.0,0.0,0.0
1048,54.0,60.0,60.0,1.0,0.0
1049,61.0,60.0,60.0,0.0,0.0
1050,52.0,0.0,60.0,1.0,0.0
1051,51.0,60.0,60.0,1.0,0.0
1052,59.0,0.0,60.0,0.0,0.0
1053,49.0,0.0,60.0,1.0,0.0
1054,58.0,60.0,60.0,0.0,0.0
1055,51.0,0.0,60.0,1.0,0.0
1056,59.0,60.0,60.0,0.0,0.0
1057,52.0,60.0,60.0,1.0,0.0
1058,61.0,0.0,60.0,0.0,0.0
1059,54.0,60.0,60.0,1.0,0.0
1060,63.0,0.0,60.0,0.0,0.0
1061,64.0,0.0,60.0,0.0,0.0
1062,56.0,60.0,60.0,1.0,0.0
1063,66.0,60.0,60.0,0.0,0.0
1064,51.0,0.0,60.0,1.0,0.0
1065,52.0,60.0,60.0,1.0,0.0
1066,68.0,0.0,60.0,0.0,0.0
1067,70.0,0.0,60.0,0.0,0.0
1068,49.0,76.0,60.0,1.0,0.0
1069,35.0,5.0,120.0,1.0,0.0
1070,71.0,14.0,90.0,0.0,0.0
1071,73.0,15.0,15.0,0.0,0.0
1072,71.0,10.0,15.0,0.0,0.0
1073,70.0,60.0,15.0,0.0,0.0
1074,47.0,5.0,120.0,1.0,0.0
1075,51.0,0.0,120.0,1.0,0.0
1076,71.0,55.0,60.0,0.0,0.0
1077,75.0,115.0,60.0,0.0,0.0
1078,35.0,120.0,120.0,1.0,0.0
1079,63.0,0.0,240.0,0.0,0.0
1080,47.0,0.0,120.0,1.0,0.0
1081,51.0,5.0,120.0,1.0,0.0
1082,66.0,69.0,15.0,0.0,0.0
1083,35.0,5.0,120.0,1.0,0.0
1084,68.0,15.0,15.0,0.0,0.0
1085,66.0,15.0,15.0,0.0,0.0
1086,65.0,55.0,15.0,0.0,0.0
1087,47.0,0.0,120.0,1.0,0.0
1088,51.0,0.0,120.0,1.0,0.0
1089,66.0,60.0,60.0,0.0,0.0
1090,71.0,120.0,60.0,0.0,0.0
1091,63.0,0.0,240.0,0.0,0.0
1092,35.0,120.0,120.0,1.0,0.0
1093,59.0,55.0,240.0,0.0,0.0
1094,47.0,5.0,120.0,1.0,0.0
1095,51.0,0.0,15.0,1.0,0.0
1096,66.0,0.0,60.0,0.0,0.0
1097,47.0,60.0,60.0,1.0,0.0
1098,63.0,0.0,60.0,0.0,0.0
1099,68.0,0.0,60.0,0.0,0.0
1100,52.0,60.0,60.0,1.0,0.0
1101,51.0,60.0,60.0,1.0,0.0
1102,66.0,0.0,60.0,0.0,0.0
1103,49.0,0.0,60.0,1.0,0.0
1104,64.0,60.0,60.0,0.0,0.0
1105,47.0,0.0,60.0,1.0,0.0
1106,63.0,60.0,60.0,0.0,0.0
1107,46.0,0.0,60.0,1.0,0.0
1108,61.0,60.0,60.0,0.0,0.0
1109,44.0,0.0,60.0,1.0,0.0
1110,59.0,60.0,60.0,0.0,0.0
1111,42.0,0.0,60.0,1.0,0.0
1112,58.0,60.0,60.0,0.0,0.0
1113,59.0,0.0,60.0,0.0,0.0
1114,44.0,60.0,60.0,1.0,0.0
1115,61.0,0.0,60.0,0.0,0.0
1116,46.0,65.0,60.0,1.0,0.0
1117,44.0,0.0,60.0,1.0,0.0
1118,59.0,60.0,60.0,0.0,0.0
1119,42.0,60.0,60.0,1.0,0.0
1120,58.0,0.0,60.0,0.0,0.0
1121,40.0,0.0,60.0,1.0,0.0
1122,56.0,60.0,60.0,0.0,0.0
1123,39.0,60.0,60.0,1.0,0.0
1124,54.0,0.0,60.0,0.0,0.0
1125,52.0,0.0,60.0,0.0,0.0
1126,37.0,120.0,60.0,1.0,0.0
1127,51.0,120.0,120.0,0.0,0.0
1128,35.0,0.0,120.0,1.0,0.0
1129,27.0,0.0,120.0,1.0,0.0
1130,54.0,59.0,120.0,0.0,0.0
1131,66.0,0.0,120.0,0.0,0.0
1132,28.0,120.0,120.0,1.0,0.0
1133,56.0,60.0,60.0,0.0,0.0
1134,68.0,1.0,60.0,0.0,0.0
1135,40.0,119.0,120.0,1.0,0.0
1136,59.0,0.0,120.0,0.0,0.0
1137,68.0,0.0,120.0,0.0,0.0
1138,58.0,1.0,120.0,0.0,0.0
1139,42.0,119.0,120.0,1.0,0.0
1140,70.0,0.0,120.0,0.0,0.0
1141,30.0,59.0,120.0,1.0,0.0
1142,61.0,1.0,120.0,0.0,0.0
1143,32.0,120.0,120.0,1.0,0.0
1144,59.0,60.0,60.0,0.0,0.0
1145,71.0,1.0,60.0,0.0,0.0
1146,63.0,0.0,120.0,0.0,0.0
1147,71.0,0.0,120.0,0.0,0.0
1148,44.0,119.0,120.0,1.0,0.0
1149,46.0,119.0,120.0,1.0,0.0
1150,61.0,1.0,120.0,0.0,0.0
1151,34.0,59.0,120.0,1.0,0.0
1152,73.0,1.0,120.0,0.0,0.0
1153,64.0,0.0,120.0,0.0,0.0
1154,63.0,60.0,60.0,0.0,0.0
1155,35.0,120.0,120.0,1.0,0.0
1156,75.0,1.0,60.0,0.0,0.0
1157,66.0,0.0,120.0,0.0,0.0
1158,75.0,59.0,120.0,0.0,0.0
1159,47.0,0.0,120.0,1.0,0.0
1160,64.0,60.0,60.0,0.0,0.0
1161,42.0,59.0,120.0,1.0,0.0
1162,76.0,1.0,60.0,0.0,0.0
1163,30.0,59.0,120.0,1.0,0.0
1164,73.0,60.0,60.0,0.0,0.0
1165,70.0,1.0,60.0,0.0,0.0
1166,35.0,59.0,120.0,1.0,0.0
1167,71.0,60.0,60.0,0.0,0.0
1168,75.0,1.0,60.0,0.0,0.0
1169,71.0,60.0,60.0,0.0,0.0
1170,66.0,1.0,60.0,0.0,0.0
1171,63.0,0.0,120.0,0.0,0.0
1172,47.0,120.0,15.0,1.0,0.0
1173,35.0,120.0,120.0,1.0,0.0
1174,39.0,0.0,120.0,1.0,0.0
1175,51.0,59.0,120.0,1.0,0.0
1176,66.0,0.0,120.0,0.0,0.0
1177,54.0,0.0,120.0,0.0,0.0
1178,56.0,60.0,60.0,0.0,0.0
1179,40.0,120.0,120.0,1.0,0.0
1180,68.0,1.0,60.0,0.0,0.0
1181,47.0,0.0,120.0,1.0,0.0
1182,59.0,119.0,120.0,0.0,0.0
1183,52.0,0.0,120.0,1.0,0.0
1184,68.0,0.0,120.0,0.0,0.0
1185,58.0,1.0,120.0,0.0,0.0
1186,42.0,119.0,120.0,1.0,0.0
1187,61.0,1.0,120.0,0.0,0.0
1188,70.0,0.0,120.0,0.0,0.0
1189,54.0,59.0,120.0,1.0,0.0
1190,49.0,0.0,120.0,1.0,0.0
1191,59.0,60.0,60.0,0.0,0.0
1192,44.0,120.0,120.0,1.0,0.0
1193,71.0,1.0,60.0,0.0,0.0
1194,56.0,119.0,120.0,1.0,0.0
1195,63.0,0.0,120.0,0.0,0.0
1196,71.0,0.0,120.0,0.0,0.0
1197,51.0,0.0,120.0,1.0,0.0
1198,46.0,119.0,120.0,1.0,0.0
1199,61.0,1.0,120.0,0.0,0.0
1200,54.0,59.0,120.0,1.0,0.0
1201,58.0,0.0,120.0,1.0,0.0
1202,73.0,1.0,120.0,0.0,0.0
1203,64.0,0.0,120.0,0.0,0.0
1204,47.0,120.0,120.0,1.0,0.0
1205,63.0,60.0,60.0,0.0,0.0
1206,75.0,1.0,60.0,0.0,0.0
1207,59.0,0.0,120.0,1.0,0.0
1208,54.0,0.0,120.0,1.0,0.0
1209,75.0,0.0,120.0,0.0,0.0
1210,66.0,60.0,120.0,0.0,0.0
1211,64.0,60.0,60.0,0.0,0.0
1212,42.0,0.0,120.0,1.0,0.0
1213,76.0,60.0,60.0,0.0,0.0
1214,54.0,120.0,120.0,1.0,0.0
1215,73.0,60.0,60.0,0.0,0.0
1216,70.0,0.0,60.0,0.0,0.0
1217,47.0,0.0,120.0,1.0,0.0
1218,71.0,120.0,120.0,0.0,0.0
1219,35.0,12690.0,120.0,1.0,0.0
