,note,step,duration,channel,velocity
0,71.0,64.0,120.0,0.0,0.0
1,83.0,0.0,120.0,0.0,0.0
2,59.0,0.0,180.0,0.0,0.0
3,63.0,192.0,180.0,0.0,0.0
4,66.0,128.0,180.0,0.0,0.0
5,75.0,0.0,120.0,0.0,0.0
6,63.0,0.0,180.0,0.0,0.0
7,59.0,192.0,180.0,0.0,0.0
8,87.0,64.0,120.0,0.0,0.0
9,66.0,128.0,180.0,0.0,0.0
10,83.0,64.0,120.0,0.0,0.0
11,59.0,0.0,180.0,0.0,0.0
12,63.0,192.0,180.0,0.0,0.0
13,71.0,0.0,120.0,0.0,0.0
14,66.0,192.0,180.0,0.0,0.0
15,90.0,0.0,750.0,0.0,0.0
16,59.0,192.0,180.0,0.0,0.0
17,78.0,192.0,750.0,0.0,0.0
18,63.0,0.0,180.0,0.0,0.0
19,66.0,192.0,180.0,0.0,0.0
20,63.0,0.0,180.0,0.0,0.0
21,59.0,192.0,180.0,0.0,0.0
22,66.0,0.0,180.0,0.0,0.0
23,88.0,0.0,180.0,0.0,0.0
24,59.0,0.0,180.0,0.0,0.0
25,63.0,192.0,180.0,0.0,0.0
26,87.0,0.0,180.0,0.0,0.0
27,66.0,192.0,180.0,0.0,0.0
28,63.0,0.0,180.0,0.0,0.0
29,59.0,192.0,180.0,0.0,0.0
30,85.0,0.0,180.0,0.0,0.0
31,83.0,0.0,180.0,0.0,0.0
32,66.0,192.0,180.0,0.0,0.0
33,59.0,0.0,180.0,0.0,0.0
34,63.0,192.0,180.0,0.0,0.0
35,82.0,0.0,180.0,0.0,0.0
36,66.0,0.0,180.0,0.0,0.0
37,83.0,192.0,180.0,0.0,0.0
38,87.0,0.0,180.0,0.0,0.0
39,59.0,192.0,180.0,0.0,0.0
40,63.0,0.0,180.0,0.0,0.0
41,66.0,192.0,180.0,0.0,0.0
42,83.0,0.0,180.0,0.0,0.0
43,64.0,192.0,180.0,0.0,0.0
44,59.0,0.0,180.0,0.0,0.0
45,82.0,192.0,390.0,0.0,0.0
46,68.0,0.0,180.0,0.0,0.0
47,59.0,0.0,180.0,0.0,0.0
48,64.0,192.0,180.0,0.0,0.0
49,80.0,0.0,390.0,0.0,0.0
50,68.0,192.0,180.0,0.0,0.0
51,78.0,192.0,180.0,0.0,0.0
52,59.0,0.0,180.0,0.0,0.0
53,64.0,0.0,180.0,0.0,0.0
54,68.0,192.0,180.0,0.0,0.0
55,76.0,0.0,180.0,0.0,0.0
56,59.0,0.0,180.0,0.0,0.0
57,64.0,192.0,180.0,0.0,0.0
58,75.0,0.0,180.0,0.0,0.0
59,68.0,0.0,180.0,0.0,0.0
60,73.0,192.0,180.0,0.0,0.0
61,59.0,0.0,180.0,0.0,0.0
62,64.0,0.0,180.0,0.0,0.0
63,72.0,192.0,180.0,0.0,0.0
64,68.0,192.0,180.0,0.0,0.0
65,73.0,0.0,180.0,0.0,0.0
66,64.0,0.0,180.0,0.0,0.0
67,59.0,0.0,180.0,0.0,0.0
68,76.0,192.0,180.0,0.0,0.0
69,68.0,192.0,180.0,0.0,0.0
70,73.0,0.0,180.0,0.0,0.0
71,59.0,0.0,180.0,0.0,0.0
72,64.0,192.0,180.0,0.0,0.0
73,61.0,0.0,180.0,0.0,0.0
74,70.0,128.0,750.0,0.0,0.0
75,66.0,192.0,180.0,0.0,0.0
76,59.0,0.0,180.0,0.0,0.0
77,64.0,0.0,180.0,0.0,0.0
78,61.0,192.0,180.0,0.0,0.0
79,66.0,0.0,180.0,0.0,0.0
80,64.0,0.0,180.0,0.0,0.0
81,59.0,0.0,180.0,0.0,0.0
82,61.0,192.0,180.0,0.0,0.0
83,73.0,64.0,120.0,0.0,0.0
84,66.0,128.0,180.0,0.0,0.0
85,76.0,64.0,120.0,0.0,0.0
86,59.0,0.0,180.0,0.0,0.0
87,64.0,0.0,180.0,0.0,0.0
88,61.0,192.0,180.0,0.0,0.0
89,66.0,128.0,180.0,0.0,0.0
90,64.0,192.0,180.0,0.0,0.0
91,59.0,0.0,180.0,0.0,0.0
92,61.0,0.0,180.0,0.0,0.0
93,73.0,64.0,120.0,0.0,0.0
94,66.0,128.0,180.0,0.0,0.0
95,64.0,0.0,180.0,0.0,0.0
96,59.0,192.0,180.0,0.0,0.0
97,61.0,0.0,180.0,0.0,0.0
98,70.0,64.0,120.0,0.0,0.0
99,66.0,192.0,180.0,0.0,0.0
100,59.0,192.0,1140.0,0.0,0.0
101,63.0,0.0,1140.0,0.0,0.0
102,71.0,192.0,180.0,0.0,0.0
103,66.0,192.0,180.0,0.0,0.0
104,65.0,192.0,180.0,0.0,0.0
105,66.0,192.0,180.0,0.0,0.0
106,70.0,192.0,180.0,0.0,0.0
107,71.0,0.0,180.0,0.0,0.0
108,73.0,192.0,180.0,0.0,0.0
109,54.0,0.0,1140.0,0.0,0.0
110,58.0,0.0,1140.0,0.0,0.0
111,46.0,0.0,1140.0,0.0,0.0
112,66.0,192.0,180.0,0.0,0.0
113,65.0,192.0,180.0,0.0,0.0
114,66.0,192.0,180.0,0.0,0.0
115,71.0,192.0,180.0,0.0,0.0
116,73.0,192.0,180.0,0.0,0.0
117,54.0,0.0,750.0,0.0,0.0
118,59.0,0.0,750.0,0.0,0.0
119,47.0,0.0,750.0,0.0,0.0
120,75.0,192.0,180.0,0.0,0.0
121,71.0,192.0,180.0,0.0,0.0
122,70.0,192.0,180.0,0.0,0.0
123,71.0,192.0,180.0,0.0,0.0
124,61.0,0.0,180.0,0.0,0.0
125,76.0,0.0,180.0,0.0,0.0
126,49.0,192.0,180.0,0.0,0.0
127,51.0,0.0,180.0,0.0,0.0
128,63.0,0.0,180.0,0.0,0.0
129,78.0,128.0,180.0,0.0,0.0
130,52.0,64.0,120.0,0.0,0.0
131,64.0,0.0,120.0,0.0,0.0
132,80.0,192.0,180.0,0.0,0.0
133,78.0,128.0,180.0,0.0,0.0
134,64.0,0.0,120.0,0.0,0.0
135,76.0,192.0,180.0,0.0,0.0
136,52.0,64.0,120.0,0.0,0.0
137,75.0,128.0,180.0,0.0,0.0
138,53.0,0.0,120.0,0.0,0.0
139,73.0,192.0,180.0,0.0,0.0
140,65.0,64.0,120.0,0.0,0.0
141,71.0,192.0,180.0,0.0,0.0
142,66.0,192.0,180.0,0.0,0.0
143,70.0,0.0,390.0,0.0,0.0
144,54.0,0.0,180.0,0.0,0.0
145,54.0,192.0,180.0,0.0,0.0
146,58.0,192.0,180.0,0.0,0.0
147,66.0,192.0,180.0,0.0,0.0
148,61.0,0.0,180.0,0.0,0.0
149,70.0,192.0,180.0,0.0,0.0
150,73.0,192.0,180.0,0.0,0.0
151,78.0,192.0,180.0,0.0,0.0
152,70.0,192.0,180.0,0.0,0.0
153,73.0,192.0,180.0,0.0,0.0
154,78.0,192.0,180.0,0.0,0.0
155,82.0,192.0,180.0,0.0,0.0
156,73.0,192.0,180.0,0.0,0.0
157,78.0,192.0,180.0,0.0,0.0
158,82.0,192.0,180.0,0.0,0.0
159,85.0,192.0,180.0,0.0,0.0
160,78.0,192.0,180.0,0.0,0.0
161,82.0,192.0,180.0,0.0,0.0
162,85.0,192.0,180.0,0.0,0.0
163,90.0,192.0,180.0,0.0,0.0
164,82.0,192.0,180.0,0.0,0.0
165,85.0,192.0,180.0,0.0,0.0
166,90.0,192.0,180.0,0.0,0.0
167,94.0,192.0,180.0,0.0,0.0
168,92.0,192.0,180.0,0.0,0.0
169,51.0,192.0,180.0,0.0,0.0
170,90.0,192.0,390.0,0.0,0.0
171,54.0,0.0,180.0,0.0,0.0
172,58.0,192.0,180.0,0.0,0.0
173,66.0,192.0,180.0,0.0,0.0
174,63.0,0.0,180.0,0.0,0.0
175,70.0,192.0,180.0,0.0,0.0
176,75.0,192.0,180.0,0.0,0.0
177,78.0,192.0,180.0,0.0,0.0
178,70.0,192.0,180.0,0.0,0.0
179,75.0,192.0,180.0,0.0,0.0
180,78.0,192.0,180.0,0.0,0.0
181,82.0,192.0,180.0,0.0,0.0
182,75.0,192.0,180.0,0.0,0.0
183,78.0,192.0,180.0,0.0,0.0
184,82.0,192.0,180.0,0.0,0.0
185,87.0,192.0,180.0,0.0,0.0
186,78.0,192.0,180.0,0.0,0.0
187,82.0,192.0,180.0,0.0,0.0
188,87.0,192.0,180.0,0.0,0.0
189,90.0,192.0,180.0,0.0,0.0
190,82.0,192.0,180.0,0.0,0.0
191,87.0,192.0,180.0,0.0,0.0
192,90.0,192.0,180.0,0.0,0.0
193,94.0,192.0,180.0,0.0,0.0
194,92.0,192.0,180.0,0.0,0.0
195,90.0,192.0,390.0,0.0,0.0
196,48.0,192.0,180.0,0.0,0.0
197,51.0,0.0,180.0,0.0,0.0
198,54.0,192.0,180.0,0.0,0.0
199,56.0,192.0,180.0,0.0,0.0
200,66.0,0.0,180.0,0.0,0.0
201,68.0,192.0,180.0,0.0,0.0
202,60.0,0.0,180.0,0.0,0.0
203,72.0,192.0,180.0,0.0,0.0
204,75.0,192.0,180.0,0.0,0.0
205,68.0,192.0,180.0,0.0,0.0
206,72.0,192.0,180.0,0.0,0.0
207,75.0,192.0,180.0,0.0,0.0
208,78.0,192.0,180.0,0.0,0.0
209,72.0,192.0,180.0,0.0,0.0
210,75.0,192.0,180.0,0.0,0.0
211,78.0,192.0,180.0,0.0,0.0
212,84.0,192.0,180.0,0.0,0.0
213,75.0,192.0,180.0,0.0,0.0
214,78.0,192.0,180.0,0.0,0.0
215,84.0,192.0,180.0,0.0,0.0
216,87.0,192.0,180.0,0.0,0.0
217,84.0,192.0,180.0,0.0,0.0
218,80.0,192.0,180.0,0.0,0.0
219,63.0,0.0,390.0,0.0,0.0
220,60.0,0.0,390.0,0.0,0.0
221,82.0,192.0,180.0,0.0,0.0
222,66.0,192.0,390.0,0.0,0.0
223,63.0,0.0,390.0,0.0,0.0
224,80.0,192.0,180.0,0.0,0.0
225,82.0,0.0,180.0,0.0,0.0
226,77.0,192.0,1140.0,0.0,0.0
227,80.0,0.0,1140.0,0.0,0.0
228,61.0,192.0,390.0,0.0,0.0
229,65.0,192.0,180.0,0.0,0.0
230,66.0,0.0,180.0,0.0,0.0
231,68.0,192.0,180.0,0.0,0.0
232,70.0,192.0,180.0,0.0,0.0
233,72.0,192.0,180.0,0.0,0.0
234,73.0,0.0,180.0,0.0,0.0
235,72.0,192.0,180.0,0.0,0.0
236,80.0,0.0,1140.0,0.0,0.0
237,78.0,0.0,1140.0,0.0,0.0
238,70.0,192.0,180.0,0.0,0.0
239,68.0,192.0,180.0,0.0,0.0
240,66.0,192.0,180.0,0.0,0.0
241,65.0,192.0,180.0,0.0,0.0
242,63.0,192.0,180.0,0.0,0.0
243,80.0,192.0,1140.0,0.0,0.0
244,61.0,192.0,180.0,0.0,0.0
245,83.0,0.0,1140.0,0.0,0.0
246,59.0,192.0,180.0,0.0,0.0
247,58.0,192.0,180.0,0.0,0.0
248,56.0,192.0,180.0,0.0,0.0
249,54.0,192.0,180.0,0.0,0.0
250,53.0,0.0,180.0,0.0,0.0
251,82.0,0.0,390.0,0.0,0.0
252,54.0,192.0,180.0,0.0,0.0
253,78.0,0.0,390.0,0.0,0.0
254,56.0,192.0,180.0,0.0,0.0
255,78.0,0.0,390.0,0.0,0.0
256,82.0,192.0,390.0,0.0,0.0
257,58.0,192.0,180.0,0.0,0.0
258,60.0,0.0,180.0,0.0,0.0
259,61.0,192.0,180.0,0.0,0.0
260,78.0,0.0,390.0,0.0,0.0
261,82.0,192.0,390.0,0.0,0.0
262,63.0,0.0,180.0,0.0,0.0
263,80.0,192.0,1140.0,0.0,0.0
264,77.0,0.0,1140.0,0.0,0.0
265,61.0,0.0,390.0,0.0,0.0
266,65.0,192.0,180.0,0.0,0.0
267,66.0,192.0,180.0,0.0,0.0
268,68.0,192.0,180.0,0.0,0.0
269,70.0,192.0,180.0,0.0,0.0
270,72.0,192.0,180.0,0.0,0.0
271,73.0,0.0,180.0,0.0,0.0
272,80.0,0.0,1140.0,0.0,0.0
273,78.0,0.0,1140.0,0.0,0.0
274,72.0,192.0,180.0,0.0,0.0
275,70.0,192.0,180.0,0.0,0.0
276,68.0,192.0,180.0,0.0,0.0
277,66.0,192.0,180.0,0.0,0.0
278,65.0,192.0,180.0,0.0,0.0
279,63.0,192.0,180.0,0.0,0.0
280,61.0,192.0,180.0,0.0,0.0
281,80.0,0.0,1140.0,0.0,0.0
282,83.0,192.0,1140.0,0.0,0.0
283,59.0,192.0,180.0,0.0,0.0
284,58.0,192.0,180.0,0.0,0.0
285,56.0,192.0,180.0,0.0,0.0
286,54.0,192.0,180.0,0.0,0.0
287,53.0,0.0,180.0,0.0,0.0
288,78.0,192.0,390.0,0.0,0.0
289,82.0,0.0,390.0,0.0,0.0
290,54.0,192.0,180.0,0.0,0.0
291,56.0,0.0,180.0,0.0,0.0
292,58.0,192.0,180.0,0.0,0.0
293,82.0,0.0,390.0,0.0,0.0
294,78.0,0.0,390.0,0.0,0.0
295,60.0,192.0,180.0,0.0,0.0
296,82.0,0.0,390.0,0.0,0.0
297,78.0,0.0,390.0,0.0,0.0
298,61.0,192.0,180.0,0.0,0.0
299,63.0,192.0,180.0,0.0,0.0
300,61.0,0.0,2310.0,0.0,0.0
301,65.0,0.0,1140.0,0.0,0.0
302,68.0,0.0,1140.0,0.0,0.0
303,77.0,192.0,180.0,0.0,0.0
304,80.0,0.0,180.0,0.0,0.0
305,78.0,192.0,180.0,0.0,0.0
306,80.0,192.0,180.0,0.0,0.0
307,82.0,192.0,180.0,0.0,0.0
308,84.0,192.0,180.0,0.0,0.0
309,85.0,192.0,180.0,0.0,0.0
310,63.0,0.0,1140.0,0.0,0.0
311,66.0,0.0,1140.0,0.0,0.0
312,84.0,192.0,180.0,0.0,0.0
313,82.0,192.0,180.0,0.0,0.0
314,80.0,192.0,180.0,0.0,0.0
315,78.0,192.0,180.0,0.0,0.0
316,77.0,192.0,180.0,0.0,0.0
317,75.0,192.0,180.0,0.0,0.0
318,72.0,0.0,1140.0,0.0,0.0
319,66.0,0.0,1140.0,0.0,0.0
320,78.0,192.0,180.0,0.0,0.0
321,61.0,192.0,2310.0,0.0,0.0
322,80.0,192.0,180.0,0.0,0.0
323,82.0,192.0,180.0,0.0,0.0
324,84.0,192.0,180.0,0.0,0.0
325,85.0,192.0,180.0,0.0,0.0
326,87.0,192.0,180.0,0.0,0.0
327,65.0,0.0,1140.0,0.0,0.0
328,85.0,192.0,180.0,0.0,0.0
329,68.0,0.0,1140.0,0.0,0.0
330,83.0,192.0,180.0,0.0,0.0
331,82.0,192.0,180.0,0.0,0.0
332,80.0,192.0,180.0,0.0,0.0
333,78.0,192.0,180.0,0.0,0.0
334,77.0,0.0,180.0,0.0,0.0
335,65.0,0.0,1140.0,0.0,0.0
336,68.0,0.0,1140.0,0.0,0.0
337,71.0,192.0,1140.0,0.0,0.0
338,61.0,0.0,1140.0,0.0,0.0
339,80.0,192.0,180.0,0.0,0.0
340,83.0,192.0,180.0,0.0,0.0
341,89.0,192.0,180.0,0.0,0.0
342,83.0,192.0,180.0,0.0,0.0
343,92.0,192.0,180.0,0.0,0.0
344,89.0,0.0,180.0,0.0,0.0
345,68.0,0.0,1140.0,0.0,0.0
346,62.0,0.0,1140.0,0.0,0.0
347,71.0,0.0,1140.0,0.0,0.0
348,65.0,0.0,1140.0,0.0,0.0
349,92.0,192.0,180.0,0.0,0.0
350,89.0,192.0,180.0,0.0,0.0
351,92.0,192.0,180.0,0.0,0.0
352,89.0,192.0,180.0,0.0,0.0
353,92.0,192.0,180.0,0.0,0.0
354,89.0,192.0,180.0,0.0,0.0
355,65.0,0.0,750.0,0.0,0.0
356,61.0,0.0,750.0,0.0,0.0
357,68.0,0.0,750.0,0.0,0.0
358,71.0,0.0,750.0,0.0,0.0
359,92.0,192.0,180.0,0.0,0.0
360,89.0,192.0,180.0,0.0,0.0
361,85.0,192.0,180.0,0.0,0.0
362,87.0,192.0,180.0,0.0,0.0
363,59.0,0.0,390.0,0.0,0.0
364,65.0,0.0,390.0,0.0,0.0
365,68.0,0.0,390.0,0.0,0.0
366,89.0,192.0,180.0,0.0,0.0
367,85.0,192.0,180.0,0.0,0.0
368,66.0,0.0,750.0,0.0,0.0
369,58.0,192.0,750.0,0.0,0.0
370,61.0,0.0,750.0,0.0,0.0
371,90.0,192.0,180.0,0.0,0.0
372,85.0,192.0,180.0,0.0,0.0
373,90.0,192.0,180.0,0.0,0.0
374,85.0,0.0,180.0,0.0,0.0
375,54.0,0.0,390.0,0.0,0.0
376,66.0,0.0,390.0,0.0,0.0
377,61.0,0.0,390.0,0.0,0.0
378,82.0,192.0,180.0,0.0,0.0
379,78.0,192.0,180.0,0.0,0.0
380,80.0,192.0,180.0,0.0,0.0
381,68.0,0.0,1140.0,0.0,0.0
382,61.0,0.0,1140.0,0.0,0.0
383,71.0,0.0,1140.0,0.0,0.0
384,65.0,192.0,1140.0,0.0,0.0
385,83.0,192.0,180.0,0.0,0.0
386,89.0,192.0,180.0,0.0,0.0
387,83.0,192.0,180.0,0.0,0.0
388,92.0,192.0,180.0,0.0,0.0
389,89.0,0.0,180.0,0.0,0.0
390,62.0,0.0,1140.0,0.0,0.0
391,71.0,0.0,1140.0,0.0,0.0
392,68.0,0.0,1140.0,0.0,0.0
393,65.0,0.0,1140.0,0.0,0.0
394,92.0,192.0,180.0,0.0,0.0
395,89.0,192.0,180.0,0.0,0.0
396,92.0,192.0,180.0,0.0,0.0
397,89.0,192.0,180.0,0.0,0.0
398,92.0,192.0,180.0,0.0,0.0
399,89.0,192.0,180.0,0.0,0.0
400,61.0,0.0,750.0,0.0,0.0
401,65.0,0.0,750.0,0.0,0.0
402,71.0,0.0,750.0,0.0,0.0
403,68.0,0.0,750.0,0.0,0.0
404,92.0,192.0,180.0,0.0,0.0
405,89.0,192.0,180.0,0.0,0.0
406,85.0,192.0,180.0,0.0,0.0
407,87.0,192.0,180.0,0.0,0.0
408,68.0,0.0,390.0,0.0,0.0
409,65.0,0.0,390.0,0.0,0.0
410,59.0,0.0,390.0,0.0,0.0
411,89.0,192.0,180.0,0.0,0.0
412,85.0,192.0,180.0,0.0,0.0
413,61.0,0.0,750.0,0.0,0.0
414,58.0,192.0,750.0,0.0,0.0
415,66.0,0.0,750.0,0.0,0.0
416,90.0,192.0,180.0,0.0,0.0
417,85.0,192.0,180.0,0.0,0.0
418,90.0,192.0,180.0,0.0,0.0
419,85.0,0.0,180.0,0.0,0.0
420,61.0,0.0,390.0,0.0,0.0
421,66.0,0.0,390.0,0.0,0.0
422,54.0,192.0,390.0,0.0,0.0
423,82.0,192.0,180.0,0.0,0.0
424,78.0,0.0,180.0,0.0,0.0
425,66.0,0.0,390.0,0.0,0.0
426,63.0,0.0,390.0,0.0,0.0
427,59.0,0.0,390.0,0.0,0.0
428,87.0,192.0,180.0,0.0,0.0
429,83.0,192.0,180.0,0.0,0.0
430,87.0,192.0,180.0,0.0,0.0
431,83.0,192.0,180.0,0.0,0.0
432,59.0,0.0,390.0,0.0,0.0
433,63.0,0.0,390.0,0.0,0.0
434,78.0,192.0,180.0,0.0,0.0
435,68.0,384.0,390.0,0.0,0.0
436,75.0,0.0,180.0,0.0,0.0
437,70.0,0.0,390.0,0.0,0.0
438,66.0,0.0,390.0,0.0,0.0
439,61.0,384.0,390.0,0.0,0.0
440,73.0,96.0,750.0,0.0,0.0
441,80.0,96.0,90.0,0.0,0.0
442,65.0,128.0,390.0,0.0,0.0
443,71.0,0.0,390.0,0.0,0.0
444,61.0,0.0,390.0,0.0,0.0
445,78.0,96.0,90.0,0.0,0.0
446,80.0,48.0,90.0,0.0,0.0
447,78.0,48.0,30.0,0.0,0.0
448,80.0,0.0,30.0,0.0,0.0
449,78.0,64.0,120.0,0.0,0.0
450,58.0,0.0,180.0,0.0,0.0
451,54.0,192.0,180.0,0.0,0.0
452,61.0,128.0,180.0,0.0,0.0
453,85.0,0.0,120.0,0.0,0.0
454,73.0,64.0,120.0,0.0,0.0
455,58.0,192.0,180.0,0.0,0.0
456,54.0,0.0,180.0,0.0,0.0
457,61.0,128.0,180.0,0.0,0.0
458,66.0,64.0,120.0,0.0,0.0
459,78.0,0.0,120.0,0.0,0.0
460,58.0,0.0,180.0,0.0,0.0
461,54.0,192.0,180.0,0.0,0.0
462,61.0,192.0,180.0,0.0,0.0
463,59.0,0.0,180.0,0.0,0.0
464,56.0,0.0,180.0,0.0,0.0
465,54.0,192.0,180.0,0.0,0.0
466,61.0,128.0,180.0,0.0,0.0
467,71.0,0.0,120.0,0.0,0.0
468,56.0,192.0,180.0,0.0,0.0
469,54.0,0.0,180.0,0.0,0.0
470,59.0,0.0,180.0,0.0,0.0
471,83.0,64.0,120.0,0.0,0.0
472,61.0,128.0,180.0,0.0,0.0
473,77.0,0.0,120.0,0.0,0.0
474,65.0,64.0,120.0,0.0,0.0
475,59.0,0.0,180.0,0.0,0.0
476,54.0,0.0,180.0,0.0,0.0
477,56.0,192.0,180.0,0.0,0.0
478,61.0,512.0,180.0,0.0,0.0
479,66.0,384.0,120.0,0.0,0.0
480,54.0,0.0,120.0,0.0,0.0
481,78.0,0.0,120.0,0.0,0.0
482,75.0,0.0,120.0,0.0,0.0
483,51.0,768.0,120.0,0.0,0.0
484,63.0,0.0,120.0,0.0,0.0
485,52.0,0.0,120.0,0.0,0.0
486,76.0,384.0,120.0,0.0,0.0
487,64.0,0.0,120.0,0.0,0.0
488,73.0,0.0,120.0,0.0,0.0
489,49.0,0.0,120.0,0.0,0.0
490,61.0,384.0,120.0,0.0,0.0
491,83.0,0.0,120.0,0.0,0.0
492,71.0,384.0,120.0,0.0,0.0
493,47.0,0.0,120.0,0.0,0.0
494,63.0,192.0,180.0,0.0,0.0
495,59.0,0.0,180.0,0.0,0.0
496,87.0,64.0,120.0,0.0,0.0
497,75.0,0.0,120.0,0.0,0.0
498,66.0,128.0,180.0,0.0,0.0
499,63.0,192.0,180.0,0.0,0.0
500,71.0,64.0,120.0,0.0,0.0
501,83.0,0.0,120.0,0.0,0.0
502,59.0,0.0,180.0,0.0,0.0
503,66.0,192.0,180.0,0.0,0.0
504,59.0,0.0,180.0,0.0,0.0
505,63.0,192.0,180.0,0.0,0.0
506,90.0,0.0,750.0,0.0,0.0
507,78.0,0.0,750.0,0.0,0.0
508,66.0,192.0,180.0,0.0,0.0
509,63.0,192.0,180.0,0.0,0.0
510,59.0,0.0,180.0,0.0,0.0
511,66.0,192.0,180.0,0.0,0.0
512,88.0,0.0,180.0,0.0,0.0
513,63.0,192.0,180.0,0.0,0.0
514,59.0,0.0,180.0,0.0,0.0
515,66.0,192.0,180.0,0.0,0.0
516,87.0,0.0,180.0,0.0,0.0
517,59.0,192.0,180.0,0.0,0.0
518,63.0,0.0,180.0,0.0,0.0
519,85.0,0.0,180.0,0.0,0.0
520,83.0,0.0,180.0,0.0,0.0
521,66.0,192.0,180.0,0.0,0.0
522,63.0,0.0,180.0,0.0,0.0
523,82.0,192.0,180.0,0.0,0.0
524,59.0,0.0,180.0,0.0,0.0
525,66.0,0.0,180.0,0.0,0.0
526,83.0,192.0,180.0,0.0,0.0
527,87.0,0.0,180.0,0.0,0.0
528,59.0,0.0,180.0,0.0,0.0
529,63.0,192.0,180.0,0.0,0.0
530,66.0,0.0,180.0,0.0,0.0
531,83.0,192.0,180.0,0.0,0.0
532,64.0,192.0,180.0,0.0,0.0
533,59.0,0.0,180.0,0.0,0.0
534,82.0,0.0,390.0,0.0,0.0
535,68.0,192.0,180.0,0.0,0.0
536,59.0,0.0,180.0,0.0,0.0
537,64.0,192.0,180.0,0.0,0.0
538,80.0,0.0,390.0,0.0,0.0
539,68.0,192.0,180.0,0.0,0.0
540,78.0,192.0,180.0,0.0,0.0
541,64.0,0.0,180.0,0.0,0.0
542,59.0,0.0,180.0,0.0,0.0
543,68.0,0.0,180.0,0.0,0.0
544,76.0,192.0,180.0,0.0,0.0
545,75.0,0.0,180.0,0.0,0.0
546,64.0,192.0,180.0,0.0,0.0
547,59.0,0.0,180.0,0.0,0.0
548,73.0,0.0,180.0,0.0,0.0
549,68.0,192.0,180.0,0.0,0.0
550,64.0,0.0,180.0,0.0,0.0
551,72.0,0.0,180.0,0.0,0.0
552,59.0,192.0,180.0,0.0,0.0
553,73.0,0.0,180.0,0.0,0.0
554,68.0,192.0,180.0,0.0,0.0
555,76.0,0.0,180.0,0.0,0.0
556,59.0,0.0,180.0,0.0,0.0
557,64.0,192.0,180.0,0.0,0.0
558,73.0,0.0,180.0,0.0,0.0
559,68.0,192.0,180.0,0.0,0.0
560,59.0,192.0,180.0,0.0,0.0
561,70.0,0.0,750.0,0.0,0.0
562,61.0,0.0,180.0,0.0,0.0
563,64.0,0.0,180.0,0.0,0.0
564,66.0,192.0,180.0,0.0,0.0
565,64.0,0.0,180.0,0.0,0.0
566,59.0,0.0,180.0,0.0,0.0
567,61.0,192.0,180.0,0.0,0.0
568,66.0,128.0,180.0,0.0,0.0
569,64.0,192.0,180.0,0.0,0.0
570,59.0,0.0,180.0,0.0,0.0
571,61.0,0.0,180.0,0.0,0.0
572,73.0,64.0,120.0,0.0,0.0
573,66.0,128.0,180.0,0.0,0.0
574,76.0,64.0,120.0,0.0,0.0
575,61.0,0.0,180.0,0.0,0.0
576,64.0,0.0,180.0,0.0,0.0
577,59.0,192.0,180.0,0.0,0.0
578,66.0,128.0,180.0,0.0,0.0
579,73.0,64.0,120.0,0.0,0.0
580,61.0,0.0,180.0,0.0,0.0
581,59.0,0.0,180.0,0.0,0.0
582,64.0,192.0,180.0,0.0,0.0
583,66.0,128.0,180.0,0.0,0.0
584,70.0,64.0,120.0,0.0,0.0
585,61.0,0.0,180.0,0.0,0.0
586,59.0,0.0,180.0,0.0,0.0
587,64.0,192.0,180.0,0.0,0.0
588,66.0,192.0,180.0,0.0,0.0
589,59.0,0.0,1140.0,0.0,0.0
590,71.0,192.0,180.0,0.0,0.0
591,63.0,0.0,1140.0,0.0,0.0
592,66.0,192.0,180.0,0.0,0.0
593,65.0,192.0,180.0,0.0,0.0
594,66.0,192.0,180.0,0.0,0.0
595,70.0,192.0,180.0,0.0,0.0
596,71.0,192.0,180.0,0.0,0.0
597,73.0,192.0,180.0,0.0,0.0
598,46.0,0.0,1140.0,0.0,0.0
599,58.0,192.0,1140.0,0.0,0.0
600,54.0,0.0,1140.0,0.0,0.0
601,66.0,192.0,180.0,0.0,0.0
602,65.0,192.0,180.0,0.0,0.0
603,66.0,192.0,180.0,0.0,0.0
604,71.0,192.0,180.0,0.0,0.0
605,73.0,0.0,180.0,0.0,0.0
606,54.0,192.0,750.0,0.0,0.0
607,59.0,0.0,750.0,0.0,0.0
608,47.0,0.0,750.0,0.0,0.0
609,75.0,192.0,180.0,0.0,0.0
610,71.0,192.0,180.0,0.0,0.0
611,70.0,192.0,180.0,0.0,0.0
612,71.0,0.0,180.0,0.0,0.0
613,49.0,0.0,180.0,0.0,0.0
614,61.0,0.0,180.0,0.0,0.0
615,76.0,192.0,180.0,0.0,0.0
616,63.0,0.0,180.0,0.0,0.0
617,78.0,128.0,180.0,0.0,0.0
618,51.0,0.0,180.0,0.0,0.0
619,52.0,64.0,120.0,0.0,0.0
620,64.0,0.0,120.0,0.0,0.0
621,80.0,192.0,180.0,0.0,0.0
622,78.0,128.0,180.0,0.0,0.0
623,76.0,192.0,180.0,0.0,0.0
624,52.0,64.0,120.0,0.0,0.0
625,64.0,0.0,120.0,0.0,0.0
626,75.0,128.0,180.0,0.0,0.0
627,73.0,192.0,180.0,0.0,0.0
628,65.0,0.0,120.0,0.0,0.0
629,53.0,64.0,120.0,0.0,0.0
630,71.0,192.0,180.0,0.0,0.0
631,66.0,0.0,180.0,0.0,0.0
632,54.0,192.0,180.0,0.0,0.0
633,70.0,192.0,390.0,0.0,0.0
634,54.0,0.0,180.0,0.0,0.0
635,58.0,192.0,180.0,0.0,0.0
636,66.0,192.0,180.0,0.0,0.0
637,61.0,0.0,180.0,0.0,0.0
638,70.0,192.0,180.0,0.0,0.0
639,73.0,192.0,180.0,0.0,0.0
640,78.0,192.0,180.0,0.0,0.0
641,70.0,192.0,180.0,0.0,0.0
642,73.0,192.0,180.0,0.0,0.0
643,78.0,192.0,180.0,0.0,0.0
644,82.0,192.0,180.0,0.0,0.0
645,73.0,192.0,180.0,0.0,0.0
646,78.0,192.0,180.0,0.0,0.0
647,82.0,192.0,180.0,0.0,0.0
648,85.0,192.0,180.0,0.0,0.0
649,78.0,192.0,180.0,0.0,0.0
650,82.0,192.0,180.0,0.0,0.0
651,85.0,192.0,180.0,0.0,0.0
652,90.0,192.0,180.0,0.0,0.0
653,82.0,192.0,180.0,0.0,0.0
654,85.0,192.0,180.0,0.0,0.0
655,90.0,192.0,180.0,0.0,0.0
656,94.0,192.0,180.0,0.0,0.0
657,92.0,192.0,180.0,0.0,0.0
658,90.0,0.0,390.0,0.0,0.0
659,51.0,192.0,180.0,0.0,0.0
660,54.0,192.0,180.0,0.0,0.0
661,58.0,192.0,180.0,0.0,0.0
662,63.0,0.0,180.0,0.0,0.0
663,66.0,192.0,180.0,0.0,0.0
664,70.0,192.0,180.0,0.0,0.0
665,75.0,192.0,180.0,0.0,0.0
666,78.0,192.0,180.0,0.0,0.0
667,70.0,192.0,180.0,0.0,0.0
668,75.0,192.0,180.0,0.0,0.0
669,78.0,192.0,180.0,0.0,0.0
670,82.0,192.0,180.0,0.0,0.0
671,75.0,192.0,180.0,0.0,0.0
672,78.0,192.0,180.0,0.0,0.0
673,82.0,192.0,180.0,0.0,0.0
674,87.0,192.0,180.0,0.0,0.0
675,78.0,192.0,180.0,0.0,0.0
676,82.0,192.0,180.0,0.0,0.0
677,87.0,192.0,180.0,0.0,0.0
678,90.0,192.0,180.0,0.0,0.0
679,82.0,192.0,180.0,0.0,0.0
680,87.0,192.0,180.0,0.0,0.0
681,90.0,192.0,180.0,0.0,0.0
682,94.0,192.0,180.0,0.0,0.0
683,92.0,192.0,180.0,0.0,0.0
684,90.0,0.0,390.0,0.0,0.0
685,48.0,192.0,180.0,0.0,0.0
686,51.0,192.0,180.0,0.0,0.0
687,54.0,192.0,180.0,0.0,0.0
688,56.0,0.0,180.0,0.0,0.0
689,66.0,192.0,180.0,0.0,0.0
690,68.0,192.0,180.0,0.0,0.0
691,60.0,0.0,180.0,0.0,0.0
692,72.0,192.0,180.0,0.0,0.0
693,75.0,192.0,180.0,0.0,0.0
694,68.0,192.0,180.0,0.0,0.0
695,72.0,192.0,180.0,0.0,0.0
696,75.0,192.0,180.0,0.0,0.0
697,78.0,192.0,180.0,0.0,0.0
698,72.0,192.0,180.0,0.0,0.0
699,75.0,192.0,180.0,0.0,0.0
700,78.0,192.0,180.0,0.0,0.0
701,84.0,192.0,180.0,0.0,0.0
702,75.0,192.0,180.0,0.0,0.0
703,78.0,192.0,180.0,0.0,0.0
704,84.0,192.0,180.0,0.0,0.0
705,87.0,192.0,180.0,0.0,0.0
706,84.0,192.0,180.0,0.0,0.0
707,80.0,192.0,180.0,0.0,0.0
708,63.0,0.0,390.0,0.0,0.0
709,60.0,0.0,390.0,0.0,0.0
710,82.0,192.0,180.0,0.0,0.0
711,63.0,0.0,390.0,0.0,0.0
712,66.0,0.0,390.0,0.0,0.0
713,80.0,192.0,180.0,0.0,0.0
714,82.0,192.0,180.0,0.0,0.0
715,65.0,192.0,180.0,0.0,0.0
716,61.0,0.0,390.0,0.0,0.0
717,80.0,0.0,1140.0,0.0,0.0
718,77.0,0.0,1140.0,0.0,0.0
719,66.0,192.0,180.0,0.0,0.0
720,68.0,192.0,180.0,0.0,0.0
721,70.0,192.0,180.0,0.0,0.0
722,72.0,192.0,180.0,0.0,0.0
723,73.0,192.0,180.0,0.0,0.0
724,78.0,0.0,1140.0,0.0,0.0
725,80.0,0.0,1140.0,0.0,0.0
726,72.0,192.0,180.0,0.0,0.0
727,70.0,192.0,180.0,0.0,0.0
728,68.0,192.0,180.0,0.0,0.0
729,66.0,192.0,180.0,0.0,0.0
730,65.0,192.0,180.0,0.0,0.0
731,63.0,192.0,180.0,0.0,0.0
732,83.0,0.0,1140.0,0.0,0.0
733,80.0,192.0,1140.0,0.0,0.0
734,61.0,192.0,180.0,0.0,0.0
735,59.0,192.0,180.0,0.0,0.0
736,58.0,192.0,180.0,0.0,0.0
737,56.0,192.0,180.0,0.0,0.0
738,54.0,192.0,180.0,0.0,0.0
739,53.0,0.0,180.0,0.0,0.0
740,54.0,192.0,180.0,0.0,0.0
741,78.0,0.0,390.0,0.0,0.0
742,82.0,0.0,390.0,0.0,0.0
743,56.0,192.0,180.0,0.0,0.0
744,58.0,192.0,180.0,0.0,0.0
745,78.0,0.0,390.0,0.0,0.0
746,82.0,192.0,390.0,0.0,0.0
747,60.0,0.0,180.0,0.0,0.0
748,78.0,0.0,390.0,0.0,0.0
749,82.0,192.0,390.0,0.0,0.0
750,61.0,192.0,180.0,0.0,0.0
751,63.0,0.0,180.0,0.0,0.0
752,61.0,192.0,390.0,0.0,0.0
753,77.0,0.0,1140.0,0.0,0.0
754,80.0,0.0,1140.0,0.0,0.0
755,65.0,192.0,180.0,0.0,0.0
756,66.0,0.0,180.0,0.0,0.0
757,68.0,192.0,180.0,0.0,0.0
758,70.0,192.0,180.0,0.0,0.0
759,72.0,192.0,180.0,0.0,0.0
760,73.0,192.0,180.0,0.0,0.0
761,72.0,192.0,180.0,0.0,0.0
762,78.0,0.0,1140.0,0.0,0.0
763,80.0,192.0,1140.0,0.0,0.0
764,70.0,192.0,180.0,0.0,0.0
765,68.0,192.0,180.0,0.0,0.0
766,66.0,192.0,180.0,0.0,0.0
767,65.0,192.0,180.0,0.0,0.0
768,63.0,0.0,180.0,0.0,0.0
769,80.0,0.0,1140.0,0.0,0.0
770,83.0,192.0,1140.0,0.0,0.0
771,61.0,192.0,180.0,0.0,0.0
772,59.0,192.0,180.0,0.0,0.0
773,58.0,192.0,180.0,0.0,0.0
774,56.0,192.0,180.0,0.0,0.0
775,54.0,192.0,180.0,0.0,0.0
776,53.0,0.0,180.0,0.0,0.0
777,82.0,0.0,390.0,0.0,0.0
778,54.0,192.0,180.0,0.0,0.0
779,78.0,0.0,390.0,0.0,0.0
780,56.0,192.0,180.0,0.0,0.0
781,82.0,192.0,390.0,0.0,0.0
782,78.0,0.0,390.0,0.0,0.0
783,58.0,192.0,180.0,0.0,0.0
784,60.0,0.0,180.0,0.0,0.0
785,61.0,192.0,180.0,0.0,0.0
786,78.0,0.0,390.0,0.0,0.0
787,82.0,192.0,390.0,0.0,0.0
788,63.0,0.0,180.0,0.0,0.0
789,80.0,0.0,180.0,0.0,0.0
790,77.0,192.0,180.0,0.0,0.0
791,68.0,0.0,1140.0,0.0,0.0
792,65.0,0.0,1140.0,0.0,0.0
793,61.0,0.0,2310.0,0.0,0.0
794,78.0,192.0,180.0,0.0,0.0
795,80.0,192.0,180.0,0.0,0.0
796,82.0,192.0,180.0,0.0,0.0
797,84.0,192.0,180.0,0.0,0.0
798,85.0,192.0,180.0,0.0,0.0
799,66.0,0.0,1140.0,0.0,0.0
800,63.0,0.0,1140.0,0.0,0.0
801,84.0,192.0,180.0,0.0,0.0
802,82.0,192.0,180.0,0.0,0.0
803,80.0,192.0,180.0,0.0,0.0
804,78.0,192.0,180.0,0.0,0.0
805,77.0,192.0,180.0,0.0,0.0
806,75.0,192.0,180.0,0.0,0.0
807,66.0,0.0,1140.0,0.0,0.0
808,78.0,192.0,180.0,0.0,0.0
809,61.0,0.0,2310.0,0.0,0.0
810,72.0,0.0,1140.0,0.0,0.0
811,80.0,192.0,180.0,0.0,0.0
812,82.0,192.0,180.0,0.0,0.0
813,84.0,192.0,180.0,0.0,0.0
814,85.0,192.0,180.0,0.0,0.0
815,87.0,192.0,180.0,0.0,0.0
816,65.0,0.0,1140.0,0.0,0.0
817,68.0,0.0,1140.0,0.0,0.0
818,85.0,192.0,180.0,0.0,0.0
819,83.0,192.0,180.0,0.0,0.0
820,82.0,192.0,180.0,0.0,0.0
821,80.0,192.0,180.0,0.0,0.0
822,78.0,192.0,180.0,0.0,0.0
823,77.0,192.0,180.0,0.0,0.0
824,71.0,192.0,1140.0,0.0,0.0
825,61.0,0.0,1140.0,0.0,0.0
826,65.0,0.0,1140.0,0.0,0.0
827,68.0,0.0,1140.0,0.0,0.0
828,80.0,192.0,180.0,0.0,0.0
829,83.0,192.0,180.0,0.0,0.0
830,89.0,192.0,180.0,0.0,0.0
831,83.0,192.0,180.0,0.0,0.0
832,92.0,192.0,180.0,0.0,0.0
833,89.0,0.0,180.0,0.0,0.0
834,68.0,0.0,1140.0,0.0,0.0
835,62.0,192.0,1140.0,0.0,0.0
836,71.0,0.0,1140.0,0.0,0.0
837,65.0,0.0,1140.0,0.0,0.0
838,92.0,192.0,180.0,0.0,0.0
839,89.0,192.0,180.0,0.0,0.0
840,92.0,192.0,180.0,0.0,0.0
841,89.0,192.0,180.0,0.0,0.0
842,92.0,192.0,180.0,0.0,0.0
843,89.0,0.0,180.0,0.0,0.0
844,92.0,192.0,180.0,0.0,0.0
845,61.0,0.0,750.0,0.0,0.0
846,65.0,0.0,750.0,0.0,0.0
847,71.0,192.0,750.0,0.0,0.0
848,68.0,0.0,750.0,0.0,0.0
849,89.0,192.0,180.0,0.0,0.0
850,85.0,192.0,180.0,0.0,0.0
851,87.0,0.0,180.0,0.0,0.0
852,89.0,192.0,180.0,0.0,0.0
853,59.0,0.0,390.0,0.0,0.0
854,65.0,0.0,390.0,0.0,0.0
855,68.0,0.0,390.0,0.0,0.0
856,85.0,192.0,180.0,0.0,0.0
857,90.0,192.0,180.0,0.0,0.0
858,58.0,192.0,750.0,0.0,0.0
859,61.0,0.0,750.0,0.0,0.0
860,66.0,0.0,750.0,0.0,0.0
861,85.0,192.0,180.0,0.0,0.0
862,90.0,192.0,180.0,0.0,0.0
863,85.0,0.0,180.0,0.0,0.0
864,66.0,0.0,390.0,0.0,0.0
865,61.0,0.0,390.0,0.0,0.0
866,54.0,0.0,390.0,0.0,0.0
867,82.0,192.0,180.0,0.0,0.0
868,78.0,192.0,180.0,0.0,0.0
869,80.0,192.0,180.0,0.0,0.0
870,65.0,0.0,1140.0,0.0,0.0
871,68.0,0.0,1140.0,0.0,0.0
872,71.0,0.0,1140.0,0.0,0.0
873,61.0,0.0,1140.0,0.0,0.0
874,83.0,192.0,180.0,0.0,0.0
875,89.0,192.0,180.0,0.0,0.0
876,83.0,192.0,180.0,0.0,0.0
877,92.0,192.0,180.0,0.0,0.0
878,89.0,192.0,180.0,0.0,0.0
879,92.0,192.0,180.0,0.0,0.0
880,65.0,0.0,1140.0,0.0,0.0
881,71.0,0.0,1140.0,0.0,0.0
882,68.0,0.0,1140.0,0.0,0.0
883,62.0,192.0,1140.0,0.0,0.0
884,89.0,192.0,180.0,0.0,0.0
885,92.0,192.0,180.0,0.0,0.0
886,89.0,192.0,180.0,0.0,0.0
887,92.0,192.0,180.0,0.0,0.0
888,89.0,0.0,180.0,0.0,0.0
889,61.0,192.0,750.0,0.0,0.0
890,65.0,0.0,750.0,0.0,0.0
891,71.0,0.0,750.0,0.0,0.0
892,68.0,0.0,750.0,0.0,0.0
893,92.0,192.0,180.0,0.0,0.0
894,89.0,192.0,180.0,0.0,0.0
895,85.0,192.0,180.0,0.0,0.0
896,87.0,0.0,180.0,0.0,0.0
897,68.0,0.0,390.0,0.0,0.0
898,65.0,0.0,390.0,0.0,0.0
899,59.0,0.0,390.0,0.0,0.0
900,89.0,192.0,180.0,0.0,0.0
901,85.0,192.0,180.0,0.0,0.0
902,66.0,0.0,750.0,0.0,0.0
903,90.0,192.0,180.0,0.0,0.0
904,61.0,0.0,750.0,0.0,0.0
905,58.0,192.0,750.0,0.0,0.0
906,85.0,192.0,180.0,0.0,0.0
907,90.0,192.0,180.0,0.0,0.0
908,85.0,0.0,180.0,0.0,0.0
909,82.0,192.0,180.0,0.0,0.0
910,61.0,192.0,390.0,0.0,0.0
911,66.0,0.0,390.0,0.0,0.0
912,54.0,0.0,390.0,0.0,0.0
913,78.0,0.0,180.0,0.0,0.0
914,66.0,0.0,390.0,0.0,0.0
915,63.0,0.0,390.0,0.0,0.0
916,59.0,0.0,390.0,0.0,0.0
917,87.0,192.0,180.0,0.0,0.0
918,83.0,192.0,180.0,0.0,0.0
919,87.0,192.0,180.0,0.0,0.0
920,83.0,192.0,180.0,0.0,0.0
921,68.0,0.0,390.0,0.0,0.0
922,63.0,0.0,390.0,0.0,0.0
923,59.0,0.0,390.0,0.0,0.0
924,78.0,192.0,180.0,0.0,0.0
925,75.0,384.0,180.0,0.0,0.0
926,70.0,384.0,390.0,0.0,0.0
927,66.0,0.0,390.0,0.0,0.0
928,61.0,0.0,390.0,0.0,0.0
929,73.0,96.0,750.0,0.0,0.0
930,71.0,0.0,390.0,0.0,0.0
931,65.0,128.0,390.0,0.0,0.0
932,61.0,0.0,390.0,0.0,0.0
933,80.0,96.0,90.0,0.0,0.0
934,78.0,96.0,90.0,0.0,0.0
935,80.0,48.0,90.0,0.0,0.0
936,78.0,48.0,30.0,0.0,0.0
937,80.0,0.0,30.0,0.0,0.0
938,78.0,64.0,120.0,0.0,0.0
939,58.0,192.0,180.0,0.0,0.0
940,54.0,0.0,180.0,0.0,0.0
941,61.0,128.0,180.0,0.0,0.0
942,54.0,0.0,180.0,0.0,0.0
943,85.0,0.0,120.0,0.0,0.0
944,73.0,64.0,120.0,0.0,0.0
945,58.0,192.0,180.0,0.0,0.0
946,61.0,128.0,180.0,0.0,0.0
947,54.0,0.0,180.0,0.0,0.0
948,78.0,0.0,120.0,0.0,0.0
949,66.0,64.0,120.0,0.0,0.0
950,58.0,192.0,180.0,0.0,0.0
951,61.0,192.0,180.0,0.0,0.0
952,54.0,0.0,180.0,0.0,0.0
953,56.0,0.0,180.0,0.0,0.0
954,59.0,192.0,180.0,0.0,0.0
955,61.0,128.0,180.0,0.0,0.0
956,83.0,0.0,120.0,0.0,0.0
957,71.0,64.0,120.0,0.0,0.0
958,59.0,0.0,180.0,0.0,0.0
959,54.0,192.0,180.0,0.0,0.0
960,56.0,0.0,180.0,0.0,0.0
961,61.0,128.0,180.0,0.0,0.0
962,65.0,64.0,120.0,0.0,0.0
963,56.0,192.0,180.0,0.0,0.0
964,59.0,0.0,180.0,0.0,0.0
965,77.0,0.0,120.0,0.0,0.0
966,54.0,0.0,180.0,0.0,0.0
967,61.0,512.0,180.0,0.0,0.0
968,78.0,0.0,120.0,0.0,0.0
969,54.0,0.0,120.0,0.0,0.0
970,66.0,384.0,120.0,0.0,0.0
971,63.0,768.0,120.0,0.0,0.0
972,75.0,0.0,120.0,0.0,0.0
973,51.0,0.0,120.0,0.0,0.0
974,76.0,0.0,120.0,0.0,0.0
975,52.0,0.0,120.0,0.0,0.0
976,64.0,384.0,120.0,0.0,0.0
977,49.0,0.0,120.0,0.0,0.0
978,73.0,0.0,120.0,0.0,0.0
979,61.0,768.0,120.0,0.0,0.0
980,87.0,0.0,120.0,0.0,0.0
981,75.0,0.0,120.0,0.0,0.0
982,51.0,0.0,120.0,0.0,0.0
983,63.0,384.0,120.0,0.0,0.0
984,48.0,0.0,120.0,0.0,0.0
985,84.0,768.0,120.0,0.0,0.0
986,60.0,0.0,120.0,0.0,0.0
987,72.0,0.0,120.0,0.0,0.0
988,49.0,0.0,120.0,0.0,0.0
989,61.0,0.0,120.0,0.0,0.0
990,85.0,0.0,120.0,0.0,0.0
991,73.0,384.0,120.0,0.0,0.0
992,82.0,0.0,120.0,0.0,0.0
993,58.0,0.0,120.0,0.0,0.0
994,46.0,384.0,120.0,0.0,0.0
995,70.0,0.0,120.0,0.0,0.0
996,60.0,0.0,180.0,0.0,0.0
997,68.0,0.0,120.0,0.0,0.0
998,80.0,64.0,120.0,0.0,0.0
999,56.0,192.0,180.0,0.0,0.0
1000,63.0,128.0,180.0,0.0,0.0
1001,60.0,0.0,180.0,0.0,0.0
1002,56.0,192.0,180.0,0.0,0.0
1003,84.0,0.0,120.0,0.0,0.0
1004,72.0,64.0,120.0,0.0,0.0
1005,63.0,128.0,180.0,0.0,0.0
1006,68.0,0.0,120.0,0.0,0.0
1007,56.0,192.0,180.0,0.0,0.0
1008,80.0,64.0,120.0,0.0,0.0
1009,60.0,0.0,180.0,0.0,0.0
1010,63.0,192.0,180.0,0.0,0.0
1011,60.0,0.0,180.0,0.0,0.0
1012,56.0,192.0,180.0,0.0,0.0
1013,75.0,0.0,750.0,0.0,0.0
1014,87.0,0.0,750.0,0.0,0.0
1015,63.0,192.0,180.0,0.0,0.0
1016,60.0,192.0,180.0,0.0,0.0
1017,56.0,0.0,180.0,0.0,0.0
1018,63.0,192.0,180.0,0.0,0.0
1019,60.0,0.0,180.0,0.0,0.0
1020,56.0,0.0,180.0,0.0,0.0
1021,85.0,192.0,180.0,0.0,0.0
1022,84.0,0.0,180.0,0.0,0.0
1023,63.0,192.0,180.0,0.0,0.0
1024,56.0,0.0,180.0,0.0,0.0
1025,60.0,0.0,180.0,0.0,0.0
1026,82.0,192.0,180.0,0.0,0.0
1027,80.0,192.0,180.0,0.0,0.0
1028,63.0,0.0,180.0,0.0,0.0
1029,79.0,0.0,180.0,0.0,0.0
1030,56.0,0.0,180.0,0.0,0.0
1031,60.0,192.0,180.0,0.0,0.0
1032,80.0,0.0,180.0,0.0,0.0
1033,63.0,192.0,180.0,0.0,0.0
1034,84.0,0.0,180.0,0.0,0.0
1035,60.0,0.0,180.0,0.0,0.0
1036,56.0,192.0,180.0,0.0,0.0
1037,80.0,192.0,180.0,0.0,0.0
1038,63.0,0.0,180.0,0.0,0.0
1039,61.0,0.0,180.0,0.0,0.0
1040,56.0,192.0,180.0,0.0,0.0
1041,79.0,192.0,390.0,0.0,0.0
1042,65.0,0.0,180.0,0.0,0.0
1043,77.0,0.0,390.0,0.0,0.0
1044,61.0,0.0,180.0,0.0,0.0
1045,56.0,192.0,180.0,0.0,0.0
1046,65.0,192.0,180.0,0.0,0.0
1047,61.0,0.0,180.0,0.0,0.0
1048,56.0,192.0,180.0,0.0,0.0
1049,75.0,0.0,180.0,0.0,0.0
1050,73.0,192.0,180.0,0.0,0.0
1051,65.0,0.0,180.0,0.0,0.0
1052,61.0,0.0,180.0,0.0,0.0
1053,56.0,0.0,180.0,0.0,0.0
1054,72.0,192.0,180.0,0.0,0.0
1055,70.0,192.0,180.0,0.0,0.0
1056,65.0,0.0,180.0,0.0,0.0
1057,69.0,0.0,180.0,0.0,0.0
1058,61.0,192.0,180.0,0.0,0.0
1059,56.0,0.0,180.0,0.0,0.0
1060,65.0,192.0,180.0,0.0,0.0
1061,70.0,0.0,180.0,0.0,0.0
1062,56.0,192.0,180.0,0.0,0.0
1063,61.0,0.0,180.0,0.0,0.0
1064,73.0,0.0,180.0,0.0,0.0
1065,70.0,192.0,180.0,0.0,0.0
1066,65.0,0.0,180.0,0.0,0.0
1067,67.0,0.0,750.0,0.0,0.0
1068,58.0,0.0,180.0,0.0,0.0
1069,56.0,0.0,180.0,0.0,0.0
1070,61.0,192.0,180.0,0.0,0.0
1071,63.0,192.0,180.0,0.0,0.0
1072,61.0,192.0,180.0,0.0,0.0
1073,58.0,0.0,180.0,0.0,0.0
1074,56.0,0.0,180.0,0.0,0.0
1075,63.0,128.0,180.0,0.0,0.0
1076,61.0,192.0,180.0,0.0,0.0
1077,56.0,0.0,180.0,0.0,0.0
1078,70.0,64.0,120.0,0.0,0.0
1079,58.0,0.0,180.0,0.0,0.0
1080,63.0,128.0,180.0,0.0,0.0
1081,73.0,64.0,120.0,0.0,0.0
1082,61.0,192.0,180.0,0.0,0.0
1083,58.0,0.0,180.0,0.0,0.0
1084,56.0,0.0,180.0,0.0,0.0
1085,63.0,128.0,180.0,0.0,0.0
1086,58.0,0.0,180.0,0.0,0.0
1087,70.0,64.0,120.0,0.0,0.0
1088,61.0,192.0,180.0,0.0,0.0
1089,56.0,0.0,180.0,0.0,0.0
1090,63.0,128.0,180.0,0.0,0.0
1091,56.0,0.0,180.0,0.0,0.0
1092,61.0,0.0,180.0,0.0,0.0
1093,58.0,192.0,180.0,0.0,0.0
1094,67.0,64.0,120.0,0.0,0.0
1095,63.0,192.0,180.0,0.0,0.0
1096,68.0,192.0,180.0,0.0,0.0
1097,56.0,0.0,390.0,0.0,0.0
1098,63.0,128.0,180.0,0.0,0.0
1099,75.0,64.0,120.0,0.0,0.0
1100,72.0,192.0,180.0,0.0,0.0
1101,63.0,128.0,180.0,0.0,0.0
1102,68.0,192.0,180.0,0.0,0.0
1103,72.0,64.0,120.0,0.0,0.0
1104,63.0,192.0,180.0,0.0,0.0
1105,68.0,192.0,180.0,0.0,0.0
1106,56.0,128.0,390.0,0.0,0.0
1107,63.0,0.0,180.0,0.0,0.0
1108,75.0,64.0,120.0,0.0,0.0
1109,72.0,192.0,180.0,0.0,0.0
1110,63.0,128.0,180.0,0.0,0.0
1111,68.0,192.0,180.0,0.0,0.0
1112,72.0,64.0,120.0,0.0,0.0
1113,63.0,192.0,180.0,0.0,0.0
1114,56.0,0.0,390.0,0.0,0.0
1115,68.0,192.0,180.0,0.0,0.0
1116,63.0,128.0,180.0,0.0,0.0
1117,75.0,64.0,120.0,0.0,0.0
1118,72.0,192.0,180.0,0.0,0.0
1119,63.0,128.0,180.0,0.0,0.0
1120,72.0,64.0,120.0,0.0,0.0
1121,68.0,192.0,180.0,0.0,0.0
1122,63.0,192.0,180.0,0.0,0.0
1123,67.0,192.0,180.0,0.0,0.0
1124,51.0,0.0,390.0,0.0,0.0
1125,63.0,128.0,180.0,0.0,0.0
1126,73.0,64.0,120.0,0.0,0.0
1127,70.0,192.0,180.0,0.0,0.0
1128,63.0,128.0,180.0,0.0,0.0
1129,67.0,192.0,180.0,0.0,0.0
1130,70.0,64.0,120.0,0.0,0.0
1131,63.0,192.0,180.0,0.0,0.0
1132,51.0,192.0,390.0,0.0,0.0
1133,67.0,192.0,180.0,0.0,0.0
1134,63.0,0.0,180.0,0.0,0.0
1135,70.0,192.0,180.0,0.0,0.0
1136,73.0,192.0,390.0,0.0,0.0
1137,63.0,0.0,180.0,0.0,0.0
1138,70.0,192.0,390.0,0.0,0.0
1139,67.0,192.0,180.0,0.0,0.0
1140,63.0,0.0,180.0,0.0,0.0
1141,67.0,192.0,180.0,0.0,0.0
1142,51.0,192.0,390.0,0.0,0.0
1143,63.0,0.0,180.0,0.0,0.0
1144,70.0,192.0,180.0,0.0,0.0
1145,73.0,0.0,390.0,0.0,0.0
1146,63.0,192.0,180.0,0.0,0.0
1147,70.0,0.0,390.0,0.0,0.0
1148,67.0,192.0,180.0,0.0,0.0
1149,63.0,192.0,180.0,0.0,0.0
1150,67.0,192.0,180.0,0.0,0.0
1151,51.0,192.0,390.0,0.0,0.0
1152,63.0,0.0,180.0,0.0,0.0
1153,70.0,192.0,180.0,0.0,0.0
1154,73.0,192.0,390.0,0.0,0.0
1155,63.0,0.0,180.0,0.0,0.0
1156,67.0,192.0,180.0,0.0,0.0
1157,70.0,0.0,390.0,0.0,0.0
1158,63.0,192.0,180.0,0.0,0.0
1159,68.0,192.0,180.0,0.0,0.0
1160,56.0,192.0,390.0,0.0,0.0
1161,63.0,0.0,180.0,0.0,0.0
1162,68.0,192.0,180.0,0.0,0.0
1163,71.0,128.0,390.0,0.0,0.0
1164,63.0,0.0,180.0,0.0,0.0
1165,68.0,64.0,120.0,0.0,0.0
1166,71.0,0.0,390.0,0.0,0.0
1167,63.0,192.0,180.0,0.0,0.0
1168,52.0,128.0,390.0,0.0,0.0
1169,64.0,192.0,180.0,0.0,0.0
1170,59.0,0.0,180.0,0.0,0.0
1171,68.0,192.0,180.0,0.0,0.0
1172,71.0,64.0,120.0,0.0,0.0
1173,59.0,128.0,180.0,0.0,0.0
1174,68.0,64.0,120.0,0.0,0.0
1175,64.0,192.0,180.0,0.0,0.0
1176,59.0,192.0,180.0,0.0,0.0
1177,64.0,192.0,180.0,0.0,0.0
1178,52.0,0.0,390.0,0.0,0.0
1179,59.0,192.0,180.0,0.0,0.0
1180,68.0,192.0,180.0,0.0,0.0
1181,71.0,192.0,390.0,0.0,0.0
1182,59.0,0.0,180.0,0.0,0.0
1183,64.0,192.0,180.0,0.0,0.0
1184,68.0,0.0,390.0,0.0,0.0
1185,59.0,192.0,180.0,0.0,0.0
1186,64.0,192.0,180.0,0.0,0.0
1187,52.0,0.0,390.0,0.0,0.0
1188,59.0,192.0,180.0,0.0,0.0
1189,71.0,0.0,390.0,0.0,0.0
1190,68.0,192.0,180.0,0.0,0.0
1191,59.0,192.0,180.0,0.0,0.0
1192,64.0,192.0,180.0,0.0,0.0
1193,68.0,192.0,390.0,0.0,0.0
1194,59.0,0.0,180.0,0.0,0.0
1195,47.0,0.0,390.0,0.0,0.0
1196,63.0,192.0,180.0,0.0,0.0
1197,59.0,192.0,180.0,0.0,0.0
1198,69.0,0.0,390.0,0.0,0.0
1199,66.0,192.0,180.0,0.0,0.0
1200,59.0,192.0,180.0,0.0,0.0
1201,66.0,192.0,390.0,0.0,0.0
1202,63.0,192.0,180.0,0.0,0.0
1203,59.0,0.0,180.0,0.0,0.0
1204,47.0,0.0,390.0,0.0,0.0
1205,63.0,192.0,180.0,0.0,0.0
1206,59.0,192.0,180.0,0.0,0.0
1207,69.0,0.0,390.0,0.0,0.0
1208,66.0,192.0,180.0,0.0,0.0
1209,59.0,192.0,180.0,0.0,0.0
1210,63.0,192.0,180.0,0.0,0.0
1211,66.0,0.0,390.0,0.0,0.0
1212,59.0,192.0,180.0,0.0,0.0
1213,63.0,192.0,180.0,0.0,0.0
1214,47.0,0.0,390.0,0.0,0.0
1215,59.0,192.0,180.0,0.0,0.0
1216,69.0,0.0,390.0,0.0,0.0
1217,66.0,192.0,180.0,0.0,0.0
1218,59.0,192.0,180.0,0.0,0.0
1219,63.0,192.0,180.0,0.0,0.0
1220,66.0,192.0,390.0,0.0,0.0
1221,59.0,0.0,180.0,0.0,0.0
1222,47.0,192.0,390.0,0.0,0.0
1223,63.0,192.0,180.0,0.0,0.0
1224,59.0,0.0,180.0,0.0,0.0
1225,66.0,192.0,180.0,0.0,0.0
1226,69.0,0.0,390.0,0.0,0.0
1227,59.0,192.0,180.0,0.0,0.0
1228,66.0,0.0,390.0,0.0,0.0
1229,63.0,192.0,180.0,0.0,0.0
1230,59.0,192.0,180.0,0.0,0.0
1231,64.0,192.0,180.0,0.0,0.0
1232,52.0,192.0,390.0,0.0,0.0
1233,59.0,0.0,180.0,0.0,0.0
1234,64.0,192.0,180.0,0.0,0.0
1235,68.0,192.0,390.0,0.0,0.0
1236,59.0,0.0,180.0,0.0,0.0
1237,68.0,0.0,390.0,0.0,0.0
1238,64.0,192.0,180.0,0.0,0.0
1239,59.0,192.0,180.0,0.0,0.0
1240,64.0,192.0,180.0,0.0,0.0
1241,47.0,192.0,1140.0,0.0,0.0
1242,40.0,0.0,1140.0,0.0,0.0
1243,52.0,0.0,1140.0,0.0,0.0
1244,59.0,192.0,180.0,0.0,0.0
1245,58.0,192.0,180.0,0.0,0.0
1246,59.0,192.0,180.0,0.0,0.0
1247,63.0,192.0,180.0,0.0,0.0
1248,64.0,0.0,180.0,0.0,0.0
1249,39.0,0.0,1140.0,0.0,0.0
1250,47.0,0.0,1140.0,0.0,0.0
1251,66.0,192.0,180.0,0.0,0.0
1252,51.0,0.0,1140.0,0.0,0.0
1253,59.0,192.0,180.0,0.0,0.0
1254,58.0,192.0,180.0,0.0,0.0
1255,59.0,192.0,180.0,0.0,0.0
1256,64.0,192.0,180.0,0.0,0.0
1257,66.0,192.0,180.0,0.0,0.0
1258,47.0,0.0,750.0,0.0,0.0
1259,52.0,0.0,750.0,0.0,0.0
1260,40.0,0.0,750.0,0.0,0.0
1261,68.0,192.0,180.0,0.0,0.0
1262,64.0,192.0,180.0,0.0,0.0
1263,63.0,192.0,180.0,0.0,0.0
1264,64.0,192.0,180.0,0.0,0.0
1265,49.0,0.0,180.0,0.0,0.0
1266,69.0,192.0,180.0,0.0,0.0
1267,71.0,0.0,180.0,0.0,0.0
1268,44.0,128.0,180.0,0.0,0.0
1269,45.0,64.0,120.0,0.0,0.0
1270,73.0,192.0,180.0,0.0,0.0
1271,71.0,128.0,180.0,0.0,0.0
1272,69.0,192.0,180.0,0.0,0.0
1273,45.0,64.0,120.0,0.0,0.0
1274,68.0,128.0,180.0,0.0,0.0
1275,46.0,64.0,120.0,0.0,0.0
1276,66.0,192.0,180.0,0.0,0.0
1277,64.0,384.0,180.0,0.0,0.0
1278,47.0,0.0,390.0,0.0,0.0
1279,63.0,576.0,390.0,0.0,0.0
1280,66.0,192.0,180.0,0.0,0.0
1281,81.0,0.0,180.0,0.0,0.0
1282,68.0,128.0,180.0,0.0,0.0
1283,83.0,0.0,180.0,0.0,0.0
1284,69.0,64.0,120.0,0.0,0.0
1285,85.0,192.0,180.0,0.0,0.0
1286,83.0,128.0,180.0,0.0,0.0
1287,69.0,64.0,120.0,0.0,0.0
1288,81.0,192.0,180.0,0.0,0.0
1289,80.0,128.0,180.0,0.0,0.0
1290,78.0,192.0,180.0,0.0,0.0
1291,70.0,64.0,120.0,0.0,0.0
1292,76.0,384.0,180.0,0.0,0.0
1293,75.0,0.0,390.0,0.0,0.0
1294,71.0,576.0,390.0,0.0,0.0
1295,69.0,192.0,180.0,0.0,0.0
1296,57.0,0.0,180.0,0.0,0.0
1297,59.0,192.0,180.0,0.0,0.0
1298,71.0,0.0,180.0,0.0,0.0
1299,60.0,0.0,180.0,0.0,0.0
1300,72.0,192.0,180.0,0.0,0.0
1301,71.0,0.0,180.0,0.0,0.0
1302,59.0,192.0,180.0,0.0,0.0
1303,57.0,0.0,180.0,0.0,0.0
1304,69.0,192.0,180.0,0.0,0.0
1305,67.0,192.0,180.0,0.0,0.0
1306,55.0,0.0,180.0,0.0,0.0
1307,54.0,192.0,180.0,0.0,0.0
1308,66.0,0.0,180.0,0.0,0.0
1309,71.0,0.0,180.0,0.0,0.0
1310,59.0,192.0,180.0,0.0,0.0
1311,64.0,192.0,180.0,0.0,0.0
1312,52.0,0.0,390.0,0.0,0.0
1313,59.0,128.0,180.0,0.0,0.0
1314,67.0,192.0,180.0,0.0,0.0
1315,71.0,64.0,120.0,0.0,0.0
1316,59.0,128.0,180.0,0.0,0.0
1317,67.0,64.0,120.0,0.0,0.0
1318,64.0,192.0,180.0,0.0,0.0
1319,59.0,192.0,180.0,0.0,0.0
1320,52.0,0.0,390.0,0.0,0.0
1321,64.0,192.0,180.0,0.0,0.0
1322,59.0,128.0,180.0,0.0,0.0
1323,71.0,64.0,120.0,0.0,0.0
1324,67.0,192.0,180.0,0.0,0.0
1325,59.0,128.0,180.0,0.0,0.0
1326,67.0,64.0,120.0,0.0,0.0
1327,64.0,192.0,180.0,0.0,0.0
1328,59.0,192.0,180.0,0.0,0.0
1329,64.0,192.0,180.0,0.0,0.0
1330,52.0,0.0,390.0,0.0,0.0
1331,59.0,192.0,180.0,0.0,0.0
1332,67.0,192.0,180.0,0.0,0.0
1333,71.0,192.0,390.0,0.0,0.0
1334,59.0,0.0,180.0,0.0,0.0
1335,64.0,192.0,180.0,0.0,0.0
1336,67.0,0.0,390.0,0.0,0.0
1337,59.0,192.0,180.0,0.0,0.0
1338,47.0,192.0,390.0,0.0,0.0
1339,63.0,192.0,180.0,0.0,0.0
1340,59.0,0.0,180.0,0.0,0.0
1341,66.0,192.0,180.0,0.0,0.0
1342,69.0,192.0,390.0,0.0,0.0
1343,59.0,0.0,180.0,0.0,0.0
1344,63.0,192.0,180.0,0.0,0.0
1345,66.0,192.0,390.0,0.0,0.0
1346,59.0,0.0,180.0,0.0,0.0
1347,47.0,0.0,390.0,0.0,0.0
1348,63.0,192.0,180.0,0.0,0.0
1349,59.0,192.0,180.0,0.0,0.0
1350,66.0,192.0,180.0,0.0,0.0
1351,69.0,192.0,390.0,0.0,0.0
1352,59.0,0.0,180.0,0.0,0.0
1353,63.0,192.0,180.0,0.0,0.0
1354,66.0,0.0,390.0,0.0,0.0
1355,59.0,192.0,180.0,0.0,0.0
1356,47.0,0.0,390.0,0.0,0.0
1357,63.0,192.0,180.0,0.0,0.0
1358,59.0,192.0,180.0,0.0,0.0
1359,66.0,192.0,180.0,0.0,0.0
1360,69.0,0.0,390.0,0.0,0.0
1361,59.0,192.0,180.0,0.0,0.0
1362,66.0,192.0,390.0,0.0,0.0
1363,63.0,192.0,180.0,0.0,0.0
1364,59.0,0.0,180.0,0.0,0.0
1365,63.0,192.0,180.0,0.0,0.0
1366,47.0,192.0,390.0,0.0,0.0
1367,59.0,0.0,180.0,0.0,0.0
1368,69.0,192.0,390.0,0.0,0.0
1369,66.0,192.0,180.0,0.0,0.0
1370,59.0,0.0,180.0,0.0,0.0
1371,66.0,192.0,390.0,0.0,0.0
1372,63.0,192.0,180.0,0.0,0.0
1373,59.0,0.0,180.0,0.0,0.0
1374,52.0,0.0,390.0,0.0,0.0
1375,64.0,192.0,180.0,0.0,0.0
1376,59.0,192.0,180.0,0.0,0.0
1377,67.0,0.0,390.0,0.0,0.0
1378,64.0,192.0,180.0,0.0,0.0
1379,59.0,192.0,180.0,0.0,0.0
1380,69.0,0.0,390.0,0.0,0.0
1381,66.0,192.0,180.0,0.0,0.0
1382,62.0,192.0,180.0,0.0,0.0
1383,67.0,192.0,180.0,0.0,0.0
1384,55.0,0.0,390.0,0.0,0.0
1385,62.0,128.0,180.0,0.0,0.0
1386,71.0,192.0,180.0,0.0,0.0
1387,74.0,64.0,120.0,0.0,0.0
1388,62.0,128.0,180.0,0.0,0.0
1389,67.0,192.0,180.0,0.0,0.0
1390,71.0,64.0,120.0,0.0,0.0
1391,62.0,192.0,180.0,0.0,0.0
1392,67.0,192.0,180.0,0.0,0.0
1393,55.0,128.0,390.0,0.0,0.0
1394,62.0,0.0,180.0,0.0,0.0
1395,74.0,64.0,120.0,0.0,0.0
1396,71.0,192.0,180.0,0.0,0.0
1397,62.0,128.0,180.0,0.0,0.0
1398,67.0,192.0,180.0,0.0,0.0
1399,71.0,64.0,120.0,0.0,0.0
1400,62.0,192.0,180.0,0.0,0.0
1401,67.0,192.0,180.0,0.0,0.0
1402,55.0,192.0,390.0,0.0,0.0
1403,62.0,0.0,180.0,0.0,0.0
1404,71.0,192.0,180.0,0.0,0.0
1405,74.0,0.0,390.0,0.0,0.0
1406,62.0,192.0,180.0,0.0,0.0
1407,71.0,0.0,390.0,0.0,0.0
1408,67.0,192.0,180.0,0.0,0.0
1409,62.0,192.0,180.0,0.0,0.0
1410,66.0,192.0,180.0,0.0,0.0
1411,50.0,192.0,390.0,0.0,0.0
1412,62.0,0.0,180.0,0.0,0.0
1413,69.0,192.0,180.0,0.0,0.0
1414,72.0,192.0,390.0,0.0,0.0
1415,62.0,0.0,180.0,0.0,0.0
1416,69.0,192.0,390.0,0.0,0.0
1417,66.0,192.0,180.0,0.0,0.0
1418,62.0,0.0,180.0,0.0,0.0
1419,50.0,192.0,390.0,0.0,0.0
1420,66.0,192.0,180.0,0.0,0.0
1421,62.0,0.0,180.0,0.0,0.0
1422,69.0,192.0,180.0,0.0,0.0
1423,72.0,0.0,390.0,0.0,0.0
1424,62.0,192.0,180.0,0.0,0.0
1425,66.0,192.0,180.0,0.0,0.0
1426,69.0,0.0,390.0,0.0,0.0
1427,62.0,192.0,180.0,0.0,0.0
1428,66.0,192.0,180.0,0.0,0.0
1429,50.0,0.0,390.0,0.0,0.0
1430,62.0,192.0,180.0,0.0,0.0
1431,69.0,192.0,180.0,0.0,0.0
1432,72.0,192.0,390.0,0.0,0.0
1433,62.0,0.0,180.0,0.0,0.0
1434,69.0,192.0,390.0,0.0,0.0
1435,66.0,192.0,180.0,0.0,0.0
1436,62.0,0.0,180.0,0.0,0.0
1437,66.0,192.0,180.0,0.0,0.0
1438,50.0,192.0,390.0,0.0,0.0
1439,62.0,0.0,180.0,0.0,0.0
1440,69.0,192.0,180.0,0.0,0.0
1441,72.0,0.0,390.0,0.0,0.0
1442,62.0,192.0,180.0,0.0,0.0
1443,69.0,0.0,390.0,0.0,0.0
1444,66.0,192.0,180.0,0.0,0.0
1445,62.0,192.0,180.0,0.0,0.0
1446,67.0,192.0,180.0,0.0,0.0
1447,55.0,0.0,390.0,0.0,0.0
1448,62.0,192.0,180.0,0.0,0.0
1449,71.0,192.0,390.0,0.0,0.0
1450,67.0,192.0,180.0,0.0,0.0
1451,62.0,0.0,180.0,0.0,0.0
1452,71.0,192.0,390.0,0.0,0.0
1453,67.0,192.0,180.0,0.0,0.0
1454,62.0,0.0,180.0,0.0,0.0
1455,55.0,0.0,1140.0,0.0,0.0
1456,67.0,192.0,180.0,0.0,0.0
1457,43.0,192.0,1140.0,0.0,0.0
1458,50.0,0.0,1140.0,0.0,0.0
1459,62.0,192.0,180.0,0.0,0.0
1460,61.0,192.0,180.0,0.0,0.0
1461,62.0,192.0,180.0,0.0,0.0
1462,66.0,192.0,180.0,0.0,0.0
1463,67.0,0.0,180.0,0.0,0.0
1464,69.0,192.0,180.0,0.0,0.0
1465,42.0,192.0,1140.0,0.0,0.0
1466,50.0,0.0,1140.0,0.0,0.0
1467,54.0,0.0,1140.0,0.0,0.0
1468,62.0,192.0,180.0,0.0,0.0
1469,61.0,192.0,180.0,0.0,0.0
1470,62.0,192.0,180.0,0.0,0.0
1471,67.0,192.0,180.0,0.0,0.0
1472,69.0,0.0,180.0,0.0,0.0
1473,71.0,192.0,180.0,0.0,0.0
1474,55.0,192.0,750.0,0.0,0.0
1475,43.0,0.0,750.0,0.0,0.0
1476,50.0,0.0,750.0,0.0,0.0
1477,67.0,192.0,180.0,0.0,0.0
1478,66.0,192.0,180.0,0.0,0.0
1479,67.0,0.0,180.0,0.0,0.0
1480,72.0,0.0,180.0,0.0,0.0
1481,52.0,192.0,180.0,0.0,0.0
1482,74.0,0.0,180.0,0.0,0.0
1483,47.0,128.0,180.0,0.0,0.0
1484,76.0,192.0,180.0,0.0,0.0
1485,48.0,64.0,120.0,0.0,0.0
1486,74.0,128.0,180.0,0.0,0.0
1487,72.0,192.0,180.0,0.0,0.0
1488,48.0,64.0,120.0,0.0,0.0
1489,71.0,128.0,180.0,0.0,0.0
1490,49.0,64.0,120.0,0.0,0.0
1491,69.0,192.0,180.0,0.0,0.0
1492,67.0,384.0,180.0,0.0,0.0
1493,66.0,576.0,390.0,0.0,0.0
1494,50.0,0.0,390.0,0.0,0.0
1495,76.0,0.0,180.0,0.0,0.0
1496,84.0,192.0,180.0,0.0,0.0
1497,74.0,0.0,180.0,0.0,0.0
1498,86.0,128.0,180.0,0.0,0.0
1499,88.0,192.0,180.0,0.0,0.0
1500,72.0,64.0,120.0,0.0,0.0
1501,86.0,128.0,180.0,0.0,0.0
1502,84.0,192.0,180.0,0.0,0.0
1503,72.0,64.0,120.0,0.0,0.0
1504,83.0,128.0,180.0,0.0,0.0
1505,73.0,64.0,120.0,0.0,0.0
1506,81.0,192.0,180.0,0.0,0.0
1507,79.0,384.0,180.0,0.0,0.0
1508,74.0,0.0,390.0,0.0,0.0
1509,78.0,576.0,390.0,0.0,0.0
1510,64.0,0.0,180.0,0.0,0.0
1511,52.0,192.0,180.0,0.0,0.0
1512,54.0,192.0,180.0,0.0,0.0
1513,66.0,0.0,180.0,0.0,0.0
1514,67.0,0.0,180.0,0.0,0.0
1515,55.0,192.0,180.0,0.0,0.0
1516,66.0,0.0,180.0,0.0,0.0
1517,54.0,192.0,180.0,0.0,0.0
1518,52.0,0.0,180.0,0.0,0.0
1519,64.0,192.0,180.0,0.0,0.0
1520,62.0,192.0,180.0,0.0,0.0
1521,50.0,0.0,180.0,0.0,0.0
1522,49.0,192.0,180.0,0.0,0.0
1523,61.0,0.0,180.0,0.0,0.0
1524,47.0,0.0,180.0,0.0,0.0
1525,59.0,384.0,180.0,0.0,0.0
1526,46.0,0.0,390.0,0.0,0.0
1527,58.0,576.0,390.0,0.0,0.0
1528,76.0,0.0,180.0,0.0,0.0
1529,88.0,192.0,180.0,0.0,0.0
1530,90.0,0.0,180.0,0.0,0.0
1531,78.0,192.0,180.0,0.0,0.0
1532,91.0,0.0,180.0,0.0,0.0
1533,79.0,192.0,180.0,0.0,0.0
1534,90.0,192.0,180.0,0.0,0.0
1535,78.0,0.0,180.0,0.0,0.0
1536,88.0,192.0,180.0,0.0,0.0
1537,76.0,0.0,180.0,0.0,0.0
1538,74.0,0.0,180.0,0.0,0.0
1539,86.0,192.0,180.0,0.0,0.0
1540,73.0,0.0,180.0,0.0,0.0
1541,85.0,192.0,180.0,0.0,0.0
1542,71.0,0.0,180.0,0.0,0.0
1543,83.0,192.0,180.0,0.0,0.0
1544,70.0,192.0,180.0,0.0,0.0
1545,82.0,0.0,180.0,0.0,0.0
1546,79.0,0.0,180.0,0.0,0.0
1547,67.0,192.0,180.0,0.0,0.0
1548,78.0,0.0,180.0,0.0,0.0
1549,66.0,192.0,180.0,0.0,0.0
1550,76.0,0.0,180.0,0.0,0.0
1551,64.0,192.0,180.0,0.0,0.0
1552,62.0,0.0,180.0,0.0,0.0
1553,74.0,192.0,180.0,0.0,0.0
1554,61.0,128.0,180.0,0.0,0.0
1555,73.0,0.0,180.0,0.0,0.0
1556,59.0,64.0,120.0,0.0,0.0
1557,71.0,192.0,180.0,0.0,0.0
1558,70.0,128.0,180.0,0.0,0.0
1559,55.0,64.0,120.0,0.0,0.0
1560,71.0,192.0,180.0,0.0,0.0
1561,73.0,128.0,180.0,0.0,0.0
1562,74.0,192.0,180.0,0.0,0.0
1563,53.0,64.0,120.0,0.0,0.0
1564,71.0,384.0,180.0,0.0,0.0
1565,69.0,0.0,390.0,0.0,0.0
1566,54.0,128.0,390.0,0.0,0.0
1567,73.0,64.0,120.0,0.0,0.0
1568,70.0,192.0,180.0,0.0,0.0
1569,61.0,128.0,180.0,0.0,0.0
1570,70.0,64.0,120.0,0.0,0.0
1571,66.0,192.0,180.0,0.0,0.0
1572,61.0,192.0,180.0,0.0,0.0
1573,54.0,0.0,390.0,0.0,0.0
1574,66.0,192.0,180.0,0.0,0.0
1575,61.0,128.0,180.0,0.0,0.0
1576,70.0,192.0,180.0,0.0,0.0
1577,73.0,64.0,120.0,0.0,0.0
1578,61.0,128.0,180.0,0.0,0.0
1579,66.0,192.0,180.0,0.0,0.0
1580,70.0,64.0,120.0,0.0,0.0
1581,61.0,192.0,180.0,0.0,0.0
1582,66.0,192.0,180.0,0.0,0.0
1583,54.0,0.0,390.0,0.0,0.0
1584,61.0,128.0,180.0,0.0,0.0
1585,73.0,64.0,120.0,0.0,0.0
1586,70.0,192.0,180.0,0.0,0.0
1587,61.0,128.0,180.0,0.0,0.0
1588,66.0,192.0,180.0,0.0,0.0
1589,70.0,64.0,120.0,0.0,0.0
1590,61.0,192.0,180.0,0.0,0.0
1591,49.0,0.0,390.0,0.0,0.0
1592,65.0,192.0,180.0,0.0,0.0
1593,61.0,192.0,180.0,0.0,0.0
1594,70.0,192.0,180.0,0.0,0.0
1595,71.0,0.0,390.0,0.0,0.0
1596,61.0,192.0,180.0,0.0,0.0
1597,65.0,192.0,180.0,0.0,0.0
1598,68.0,192.0,390.0,0.0,0.0
1599,61.0,0.0,180.0,0.0,0.0
1600,49.0,192.0,390.0,0.0,0.0
1601,65.0,192.0,180.0,0.0,0.0
1602,61.0,0.0,180.0,0.0,0.0
1603,70.0,192.0,180.0,0.0,0.0
1604,71.0,0.0,390.0,0.0,0.0
1605,61.0,192.0,180.0,0.0,0.0
1606,65.0,192.0,180.0,0.0,0.0
1607,68.0,192.0,390.0,0.0,0.0
1608,61.0,0.0,180.0,0.0,0.0
1609,65.0,192.0,180.0,0.0,0.0
1610,49.0,0.0,390.0,0.0,0.0
1611,61.0,192.0,180.0,0.0,0.0
1612,70.0,192.0,180.0,0.0,0.0
1613,71.0,0.0,390.0,0.0,0.0
1614,61.0,192.0,180.0,0.0,0.0
1615,65.0,192.0,180.0,0.0,0.0
1616,68.0,0.0,390.0,0.0,0.0
1617,61.0,192.0,180.0,0.0,0.0
1618,49.0,192.0,390.0,0.0,0.0
1619,65.0,192.0,180.0,0.0,0.0
1620,61.0,0.0,180.0,0.0,0.0
1621,70.0,192.0,180.0,0.0,0.0
1622,71.0,0.0,390.0,0.0,0.0
1623,61.0,192.0,180.0,0.0,0.0
1624,65.0,192.0,180.0,0.0,0.0
1625,68.0,192.0,390.0,0.0,0.0
1626,61.0,0.0,180.0,0.0,0.0
1627,54.0,0.0,390.0,0.0,0.0
1628,66.0,192.0,180.0,0.0,0.0
1629,61.0,192.0,180.0,0.0,0.0
1630,73.0,192.0,180.0,0.0,0.0
1631,70.0,0.0,390.0,0.0,0.0
1632,66.0,192.0,180.0,0.0,0.0
1633,73.0,192.0,180.0,0.0,0.0
1634,66.0,0.0,390.0,0.0,0.0
1635,70.0,128.0,180.0,0.0,0.0
1636,58.0,64.0,120.0,0.0,0.0
1637,73.0,0.0,180.0,0.0,0.0
1638,78.0,192.0,180.0,0.0,0.0
1639,66.0,128.0,180.0,0.0,0.0
1640,73.0,192.0,180.0,0.0,0.0
1641,78.0,0.0,180.0,0.0,0.0
1642,54.0,64.0,120.0,0.0,0.0
1643,66.0,128.0,180.0,0.0,0.0
1644,73.0,0.0,180.0,0.0,0.0
1645,78.0,192.0,180.0,0.0,0.0
1646,46.0,64.0,120.0,0.0,0.0
1647,66.0,128.0,180.0,0.0,0.0
1648,73.0,0.0,180.0,0.0,0.0
1649,78.0,192.0,180.0,0.0,0.0
1650,42.0,64.0,120.0,0.0,0.0
1651,66.0,128.0,180.0,0.0,0.0
1652,58.0,64.0,120.0,0.0,0.0
1653,73.0,192.0,180.0,0.0,0.0
1654,78.0,0.0,180.0,0.0,0.0
1655,66.0,128.0,180.0,0.0,0.0
1656,54.0,64.0,120.0,0.0,0.0
1657,73.0,192.0,180.0,0.0,0.0
1658,78.0,0.0,180.0,0.0,0.0
1659,66.0,128.0,180.0,0.0,0.0
1660,73.0,192.0,180.0,0.0,0.0
1661,76.0,0.0,180.0,0.0,0.0
1662,46.0,64.0,120.0,0.0,0.0
1663,66.0,128.0,180.0,0.0,0.0
1664,76.0,0.0,180.0,0.0,0.0
1665,73.0,192.0,180.0,0.0,0.0
1666,42.0,64.0,120.0,0.0,0.0
1667,66.0,128.0,180.0,0.0,0.0
1668,58.0,64.0,120.0,0.0,0.0
1669,73.0,0.0,180.0,0.0,0.0
1670,76.0,192.0,180.0,0.0,0.0
1671,66.0,128.0,180.0,0.0,0.0
1672,73.0,192.0,180.0,0.0,0.0
1673,76.0,0.0,180.0,0.0,0.0
1674,54.0,64.0,120.0,0.0,0.0
1675,66.0,128.0,180.0,0.0,0.0
1676,46.0,64.0,120.0,0.0,0.0
1677,76.0,0.0,180.0,0.0,0.0
1678,73.0,192.0,180.0,0.0,0.0
1679,66.0,128.0,180.0,0.0,0.0
1680,76.0,192.0,180.0,0.0,0.0
1681,73.0,0.0,180.0,0.0,0.0
1682,42.0,64.0,120.0,0.0,0.0
1683,66.0,128.0,180.0,0.0,0.0
1684,71.0,0.0,120.0,0.0,0.0
1685,83.0,256.0,120.0,0.0,0.0
1686,47.0,128.0,390.0,0.0,0.0
1687,63.0,0.0,180.0,0.0,0.0
1688,59.0,192.0,180.0,0.0,0.0
1689,87.0,0.0,120.0,0.0,0.0
1690,75.0,64.0,120.0,0.0,0.0
1691,66.0,128.0,180.0,0.0,0.0
1692,71.0,64.0,120.0,0.0,0.0
1693,59.0,192.0,180.0,0.0,0.0
1694,63.0,0.0,180.0,0.0,0.0
1695,83.0,0.0,120.0,0.0,0.0
1696,66.0,192.0,180.0,0.0,0.0
1697,78.0,0.0,750.0,0.0,0.0
1698,63.0,0.0,180.0,0.0,0.0
1699,59.0,192.0,180.0,0.0,0.0
1700,90.0,0.0,750.0,0.0,0.0
1701,66.0,192.0,180.0,0.0,0.0
1702,59.0,0.0,180.0,0.0,0.0
1703,63.0,192.0,180.0,0.0,0.0
1704,66.0,192.0,180.0,0.0,0.0
1705,88.0,0.0,180.0,0.0,0.0
1706,59.0,0.0,180.0,0.0,0.0
1707,63.0,192.0,180.0,0.0,0.0
1708,87.0,0.0,180.0,0.0,0.0
1709,66.0,192.0,180.0,0.0,0.0
1710,59.0,0.0,180.0,0.0,0.0
1711,63.0,0.0,180.0,0.0,0.0
1712,85.0,192.0,180.0,0.0,0.0
1713,66.0,0.0,180.0,0.0,0.0
1714,83.0,192.0,180.0,0.0,0.0
1715,82.0,192.0,180.0,0.0,0.0
1716,63.0,0.0,180.0,0.0,0.0
1717,59.0,0.0,180.0,0.0,0.0
1718,83.0,0.0,180.0,0.0,0.0
1719,66.0,192.0,180.0,0.0,0.0
1720,59.0,0.0,180.0,0.0,0.0
1721,87.0,192.0,180.0,0.0,0.0
1722,63.0,0.0,180.0,0.0,0.0
1723,66.0,0.0,180.0,0.0,0.0
1724,83.0,192.0,180.0,0.0,0.0
1725,82.0,192.0,390.0,0.0,0.0
1726,64.0,0.0,180.0,0.0,0.0
1727,59.0,192.0,180.0,0.0,0.0
1728,68.0,0.0,180.0,0.0,0.0
1729,80.0,192.0,390.0,0.0,0.0
1730,64.0,192.0,180.0,0.0,0.0
1731,59.0,0.0,180.0,0.0,0.0
1732,68.0,0.0,180.0,0.0,0.0
1733,64.0,192.0,180.0,0.0,0.0
1734,59.0,0.0,180.0,0.0,0.0
1735,78.0,0.0,180.0,0.0,0.0
1736,76.0,0.0,180.0,0.0,0.0
1737,68.0,192.0,180.0,0.0,0.0
1738,59.0,0.0,180.0,0.0,0.0
1739,64.0,192.0,180.0,0.0,0.0
1740,75.0,0.0,180.0,0.0,0.0
1741,68.0,0.0,180.0,0.0,0.0
1742,73.0,192.0,180.0,0.0,0.0
1743,59.0,0.0,180.0,0.0,0.0
1744,64.0,0.0,180.0,0.0,0.0
1745,72.0,192.0,180.0,0.0,0.0
1746,68.0,192.0,180.0,0.0,0.0
1747,73.0,0.0,180.0,0.0,0.0
1748,64.0,0.0,180.0,0.0,0.0
1749,76.0,192.0,180.0,0.0,0.0
1750,59.0,0.0,180.0,0.0,0.0
1751,68.0,0.0,180.0,0.0,0.0
1752,73.0,192.0,180.0,0.0,0.0
1753,59.0,0.0,180.0,0.0,0.0
1754,61.0,0.0,180.0,0.0,0.0
1755,64.0,192.0,180.0,0.0,0.0
1756,70.0,192.0,750.0,0.0,0.0
1757,66.0,192.0,180.0,0.0,0.0
1758,64.0,0.0,180.0,0.0,0.0
1759,61.0,96.0,180.0,0.0,0.0
1760,59.0,0.0,180.0,0.0,0.0
1761,66.0,0.0,180.0,0.0,0.0
1762,74.0,48.0,30.0,0.0,0.0
1763,73.0,48.0,30.0,0.0,0.0
1764,72.0,0.0,30.0,0.0,0.0
1765,73.0,0.0,390.0,0.0,0.0
1766,64.0,0.0,180.0,0.0,0.0
1767,61.0,0.0,180.0,0.0,0.0
1768,59.0,192.0,180.0,0.0,0.0
1769,66.0,128.0,180.0,0.0,0.0
1770,64.0,0.0,180.0,0.0,0.0
1771,61.0,192.0,180.0,0.0,0.0
1772,59.0,0.0,180.0,0.0,0.0
1773,76.0,64.0,120.0,0.0,0.0
1774,66.0,128.0,180.0,0.0,0.0
1775,59.0,0.0,180.0,0.0,0.0
1776,61.0,192.0,180.0,0.0,0.0
1777,64.0,0.0,180.0,0.0,0.0
1778,73.0,64.0,120.0,0.0,0.0
1779,66.0,128.0,180.0,0.0,0.0
1780,59.0,192.0,180.0,0.0,0.0
1781,70.0,64.0,120.0,0.0,0.0
1782,64.0,0.0,180.0,0.0,0.0
1783,61.0,0.0,180.0,0.0,0.0
1784,66.0,192.0,180.0,0.0,0.0
1785,63.0,0.0,1140.0,0.0,0.0
1786,59.0,0.0,1140.0,0.0,0.0
1787,71.0,192.0,180.0,0.0,0.0
1788,66.0,192.0,180.0,0.0,0.0
1789,65.0,192.0,180.0,0.0,0.0
1790,66.0,192.0,180.0,0.0,0.0
1791,70.0,192.0,180.0,0.0,0.0
1792,71.0,192.0,180.0,0.0,0.0
1793,58.0,0.0,1140.0,0.0,0.0
1794,61.0,192.0,1140.0,0.0,0.0
1795,73.0,192.0,180.0,0.0,0.0
1796,66.0,192.0,180.0,0.0,0.0
1797,65.0,192.0,180.0,0.0,0.0
1798,66.0,192.0,180.0,0.0,0.0
1799,71.0,192.0,180.0,0.0,0.0
1800,73.0,0.0,180.0,0.0,0.0
1801,75.0,192.0,180.0,0.0,0.0
1802,63.0,0.0,1140.0,0.0,0.0
1803,59.0,0.0,1140.0,0.0,0.0
1804,71.0,192.0,180.0,0.0,0.0
1805,70.0,192.0,180.0,0.0,0.0
1806,71.0,192.0,180.0,0.0,0.0
1807,73.0,192.0,180.0,0.0,0.0
1808,75.0,192.0,180.0,0.0,0.0
1809,64.0,0.0,1140.0,0.0,0.0
1810,61.0,0.0,1140.0,0.0,0.0
1811,76.0,192.0,180.0,0.0,0.0
1812,71.0,192.0,180.0,0.0,0.0
1813,70.0,192.0,180.0,0.0,0.0
1814,71.0,192.0,180.0,0.0,0.0
1815,75.0,192.0,180.0,0.0,0.0
1816,76.0,192.0,180.0,0.0,0.0
1817,51.0,192.0,180.0,0.0,0.0
1818,78.0,0.0,390.0,0.0,0.0
1819,54.0,192.0,180.0,0.0,0.0
1820,59.0,192.0,180.0,0.0,0.0
1821,66.0,0.0,180.0,0.0,0.0
1822,63.0,192.0,180.0,0.0,0.0
1823,71.0,192.0,180.0,0.0,0.0
1824,75.0,192.0,180.0,0.0,0.0
1825,78.0,192.0,180.0,0.0,0.0
1826,71.0,192.0,180.0,0.0,0.0
1827,75.0,192.0,180.0,0.0,0.0
1828,78.0,192.0,180.0,0.0,0.0
1829,83.0,192.0,180.0,0.0,0.0
1830,75.0,192.0,180.0,0.0,0.0
1831,78.0,192.0,180.0,0.0,0.0
1832,83.0,192.0,180.0,0.0,0.0
1833,87.0,192.0,180.0,0.0,0.0
1834,78.0,192.0,180.0,0.0,0.0
1835,83.0,192.0,180.0,0.0,0.0
1836,87.0,192.0,180.0,0.0,0.0
1837,90.0,192.0,180.0,0.0,0.0
1838,88.0,192.0,180.0,0.0,0.0
1839,87.0,192.0,180.0,0.0,0.0
1840,85.0,192.0,180.0,0.0,0.0
1841,83.0,192.0,180.0,0.0,0.0
1842,81.0,192.0,180.0,0.0,0.0
1843,52.0,192.0,180.0,0.0,0.0
1844,80.0,192.0,390.0,0.0,0.0
1845,56.0,0.0,180.0,0.0,0.0
1846,59.0,192.0,180.0,0.0,0.0
1847,64.0,0.0,180.0,0.0,0.0
1848,68.0,192.0,180.0,0.0,0.0
1849,71.0,192.0,180.0,0.0,0.0
1850,76.0,192.0,180.0,0.0,0.0
1851,80.0,192.0,180.0,0.0,0.0
1852,68.0,192.0,180.0,0.0,0.0
1853,71.0,192.0,180.0,0.0,0.0
1854,76.0,192.0,180.0,0.0,0.0
1855,80.0,192.0,180.0,0.0,0.0
1856,71.0,192.0,180.0,0.0,0.0
1857,76.0,192.0,180.0,0.0,0.0
1858,80.0,192.0,180.0,0.0,0.0
1859,83.0,192.0,180.0,0.0,0.0
1860,76.0,192.0,180.0,0.0,0.0
1861,80.0,192.0,180.0,0.0,0.0
1862,83.0,192.0,180.0,0.0,0.0
1863,88.0,192.0,180.0,0.0,0.0
1864,80.0,192.0,180.0,0.0,0.0
1865,83.0,192.0,180.0,0.0,0.0
1866,88.0,192.0,180.0,0.0,0.0
1867,92.0,192.0,180.0,0.0,0.0
1868,90.0,192.0,180.0,0.0,0.0
1869,49.0,192.0,180.0,0.0,0.0
1870,89.0,0.0,390.0,0.0,0.0
1871,53.0,192.0,180.0,0.0,0.0
1872,56.0,192.0,180.0,0.0,0.0
1873,65.0,0.0,180.0,0.0,0.0
1874,59.0,192.0,180.0,0.0,0.0
1875,68.0,192.0,180.0,0.0,0.0
1876,71.0,192.0,180.0,0.0,0.0
1877,77.0,192.0,180.0,0.0,0.0
1878,68.0,192.0,180.0,0.0,0.0
1879,71.0,192.0,180.0,0.0,0.0
1880,77.0,192.0,180.0,0.0,0.0
1881,80.0,192.0,180.0,0.0,0.0
1882,71.0,192.0,180.0,0.0,0.0
1883,77.0,192.0,180.0,0.0,0.0
1884,80.0,192.0,180.0,0.0,0.0
1885,83.0,192.0,180.0,0.0,0.0
1886,77.0,192.0,180.0,0.0,0.0
1887,80.0,192.0,180.0,0.0,0.0
1888,83.0,192.0,180.0,0.0,0.0
1889,89.0,192.0,180.0,0.0,0.0
1890,92.0,192.0,180.0,0.0,0.0
1891,68.0,0.0,390.0,0.0,0.0
1892,65.0,192.0,390.0,0.0,0.0
1893,85.0,192.0,180.0,0.0,0.0
1894,87.0,0.0,180.0,0.0,0.0
1895,71.0,192.0,390.0,0.0,0.0
1896,68.0,0.0,390.0,0.0,0.0
1897,85.0,192.0,180.0,0.0,0.0
1898,87.0,0.0,180.0,0.0,0.0
1899,82.0,0.0,1140.0,0.0,0.0
1900,85.0,192.0,1140.0,0.0,0.0
1901,70.0,192.0,180.0,0.0,0.0
1902,66.0,0.0,390.0,0.0,0.0
1903,71.0,192.0,180.0,0.0,0.0
1904,73.0,192.0,180.0,0.0,0.0
1905,75.0,192.0,180.0,0.0,0.0
1906,77.0,192.0,180.0,0.0,0.0
1907,78.0,0.0,180.0,0.0,0.0
1908,85.0,192.0,1140.0,0.0,0.0
1909,77.0,192.0,180.0,0.0,0.0
1910,83.0,0.0,1140.0,0.0,0.0
1911,75.0,192.0,180.0,0.0,0.0
1912,73.0,192.0,180.0,0.0,0.0
1913,71.0,192.0,180.0,0.0,0.0
1914,70.0,192.0,180.0,0.0,0.0
1915,68.0,0.0,180.0,0.0,0.0
1916,88.0,192.0,1140.0,0.0,0.0
1917,66.0,192.0,180.0,0.0,0.0
1918,85.0,0.0,1140.0,0.0,0.0
1919,64.0,192.0,180.0,0.0,0.0
1920,63.0,192.0,180.0,0.0,0.0
1921,61.0,192.0,180.0,0.0,0.0
1922,59.0,192.0,180.0,0.0,0.0
1923,58.0,0.0,180.0,0.0,0.0
1924,83.0,0.0,390.0,0.0,0.0
1925,59.0,192.0,180.0,0.0,0.0
1926,87.0,192.0,390.0,0.0,0.0
1927,61.0,0.0,180.0,0.0,0.0
1928,83.0,0.0,390.0,0.0,0.0
1929,87.0,0.0,390.0,0.0,0.0
1930,63.0,192.0,180.0,0.0,0.0
1931,65.0,192.0,180.0,0.0,0.0
1932,87.0,0.0,390.0,0.0,0.0
1933,83.0,192.0,390.0,0.0,0.0
1934,66.0,192.0,180.0,0.0,0.0
1935,68.0,0.0,180.0,0.0,0.0
1936,82.0,0.0,1140.0,0.0,0.0
1937,66.0,192.0,390.0,0.0,0.0
1938,70.0,192.0,180.0,0.0,0.0
1939,85.0,0.0,1140.0,0.0,0.0
1940,71.0,0.0,180.0,0.0,0.0
1941,73.0,192.0,180.0,0.0,0.0
1942,75.0,192.0,180.0,0.0,0.0
1943,77.0,192.0,180.0,0.0,0.0
1944,78.0,192.0,180.0,0.0,0.0
1945,77.0,192.0,180.0,0.0,0.0
1946,83.0,0.0,1140.0,0.0,0.0
1947,85.0,0.0,1140.0,0.0,0.0
1948,75.0,192.0,180.0,0.0,0.0
1949,73.0,192.0,180.0,0.0,0.0
1950,71.0,192.0,180.0,0.0,0.0
1951,70.0,192.0,180.0,0.0,0.0
1952,68.0,192.0,180.0,0.0,0.0
1953,85.0,0.0,1140.0,0.0,0.0
1954,66.0,192.0,180.0,0.0,0.0
1955,88.0,192.0,1140.0,0.0,0.0
1956,64.0,192.0,180.0,0.0,0.0
1957,63.0,192.0,180.0,0.0,0.0
1958,61.0,192.0,180.0,0.0,0.0
1959,59.0,192.0,180.0,0.0,0.0
1960,58.0,0.0,180.0,0.0,0.0
1961,87.0,0.0,390.0,0.0,0.0
1962,83.0,0.0,390.0,0.0,0.0
1963,59.0,192.0,180.0,0.0,0.0
1964,61.0,192.0,180.0,0.0,0.0
1965,83.0,192.0,390.0,0.0,0.0
1966,63.0,192.0,180.0,0.0,0.0
1967,87.0,0.0,390.0,0.0,0.0
1968,65.0,0.0,180.0,0.0,0.0
1969,87.0,0.0,390.0,0.0,0.0
1970,83.0,0.0,390.0,0.0,0.0
1971,66.0,192.0,180.0,0.0,0.0
1972,68.0,192.0,180.0,0.0,0.0
1973,82.0,0.0,180.0,0.0,0.0
1974,85.0,192.0,180.0,0.0,0.0
1975,73.0,192.0,1140.0,0.0,0.0
1976,66.0,0.0,2310.0,0.0,0.0
1977,70.0,0.0,1140.0,0.0,0.0
1978,83.0,192.0,180.0,0.0,0.0
1979,85.0,192.0,180.0,0.0,0.0
1980,87.0,192.0,180.0,0.0,0.0
1981,89.0,192.0,180.0,0.0,0.0
1982,90.0,0.0,180.0,0.0,0.0
1983,68.0,0.0,1140.0,0.0,0.0
1984,89.0,192.0,180.0,0.0,0.0
1985,71.0,0.0,1140.0,0.0,0.0
1986,87.0,192.0,180.0,0.0,0.0
1987,85.0,192.0,180.0,0.0,0.0
1988,83.0,192.0,180.0,0.0,0.0
1989,82.0,192.0,180.0,0.0,0.0
1990,80.0,192.0,180.0,0.0,0.0
1991,83.0,192.0,180.0,0.0,0.0
1992,77.0,192.0,1140.0,0.0,0.0
1993,71.0,0.0,1140.0,0.0,0.0
1994,66.0,0.0,2310.0,0.0,0.0
1995,85.0,192.0,180.0,0.0,0.0
1996,87.0,192.0,180.0,0.0,0.0
1997,89.0,192.0,180.0,0.0,0.0
1998,90.0,192.0,180.0,0.0,0.0
1999,92.0,0.0,180.0,0.0,0.0
2000,90.0,192.0,180.0,0.0,0.0
2001,70.0,0.0,1140.0,0.0,0.0
2002,73.0,0.0,1140.0,0.0,0.0
2003,88.0,192.0,180.0,0.0,0.0
2004,87.0,192.0,180.0,0.0,0.0
2005,85.0,192.0,180.0,0.0,0.0
2006,83.0,192.0,180.0,0.0,0.0
2007,82.0,192.0,180.0,0.0,0.0
2008,76.0,0.0,1140.0,0.0,0.0
2009,66.0,0.0,1140.0,0.0,0.0
2010,85.0,192.0,180.0,0.0,0.0
2011,73.0,192.0,1140.0,0.0,0.0
2012,70.0,0.0,1140.0,0.0,0.0
2013,88.0,192.0,180.0,0.0,0.0
2014,94.0,192.0,180.0,0.0,0.0
2015,88.0,192.0,180.0,0.0,0.0
2016,97.0,192.0,180.0,0.0,0.0
2017,94.0,0.0,180.0,0.0,0.0
2018,97.0,192.0,180.0,0.0,0.0
2019,67.0,0.0,1140.0,0.0,0.0
2020,76.0,0.0,1140.0,0.0,0.0
2021,73.0,0.0,1140.0,0.0,0.0
2022,70.0,0.0,1140.0,0.0,0.0
2023,94.0,192.0,180.0,0.0,0.0
2024,97.0,192.0,180.0,0.0,0.0
2025,94.0,192.0,180.0,0.0,0.0
2026,97.0,192.0,180.0,0.0,0.0
2027,94.0,192.0,180.0,0.0,0.0
2028,73.0,0.0,750.0,0.0,0.0
2029,70.0,0.0,750.0,0.0,0.0
2030,66.0,0.0,750.0,0.0,0.0
2031,97.0,192.0,180.0,0.0,0.0
2032,76.0,0.0,750.0,0.0,0.0
2033,94.0,192.0,180.0,0.0,0.0
2034,90.0,192.0,180.0,0.0,0.0
2035,92.0,192.0,180.0,0.0,0.0
2036,70.0,0.0,390.0,0.0,0.0
2037,73.0,0.0,390.0,0.0,0.0
2038,94.0,192.0,180.0,0.0,0.0
2039,64.0,0.0,390.0,0.0,0.0
2040,90.0,192.0,180.0,0.0,0.0
2041,63.0,0.0,750.0,0.0,0.0
2042,95.0,192.0,180.0,0.0,0.0
2043,71.0,0.0,750.0,0.0,0.0
2044,66.0,0.0,750.0,0.0,0.0
2045,90.0,192.0,180.0,0.0,0.0
2046,95.0,192.0,180.0,0.0,0.0
2047,90.0,192.0,180.0,0.0,0.0
2048,59.0,192.0,390.0,0.0,0.0
2049,66.0,0.0,390.0,0.0,0.0
2050,87.0,192.0,180.0,0.0,0.0
2051,71.0,0.0,390.0,0.0,0.0
2052,83.0,0.0,180.0,0.0,0.0
2053,70.0,0.0,1140.0,0.0,0.0
2054,73.0,192.0,1140.0,0.0,0.0
2055,76.0,0.0,1140.0,0.0,0.0
2056,85.0,192.0,180.0,0.0,0.0
2057,66.0,0.0,1140.0,0.0,0.0
2058,88.0,192.0,180.0,0.0,0.0
2059,94.0,192.0,180.0,0.0,0.0
2060,88.0,192.0,180.0,0.0,0.0
2061,97.0,192.0,180.0,0.0,0.0
2062,94.0,0.0,180.0,0.0,0.0
2063,73.0,0.0,1140.0,0.0,0.0
2064,97.0,192.0,180.0,0.0,0.0
2065,67.0,0.0,1140.0,0.0,0.0
2066,70.0,0.0,1140.0,0.0,0.0
2067,76.0,192.0,1140.0,0.0,0.0
2068,94.0,192.0,180.0,0.0,0.0
2069,97.0,192.0,180.0,0.0,0.0
2070,94.0,192.0,180.0,0.0,0.0
2071,97.0,192.0,180.0,0.0,0.0
2072,94.0,0.0,180.0,0.0,0.0
2073,66.0,192.0,750.0,0.0,0.0
2074,73.0,0.0,750.0,0.0,0.0
2075,70.0,0.0,750.0,0.0,0.0
2076,76.0,0.0,750.0,0.0,0.0
2077,97.0,192.0,180.0,0.0,0.0
2078,94.0,0.0,180.0,0.0,0.0
2079,96.0,192.0,180.0,0.0,0.0
2080,90.0,192.0,180.0,0.0,0.0
2081,92.0,0.0,180.0,0.0,0.0
2082,94.0,192.0,180.0,0.0,0.0
2083,73.0,192.0,390.0,0.0,0.0
2084,64.0,0.0,390.0,0.0,0.0
2085,70.0,0.0,390.0,0.0,0.0
2086,90.0,0.0,180.0,0.0,0.0
2087,66.0,192.0,750.0,0.0,0.0
2088,95.0,192.0,180.0,0.0,0.0
2089,63.0,0.0,750.0,0.0,0.0
2090,71.0,0.0,750.0,0.0,0.0
2091,90.0,192.0,180.0,0.0,0.0
2092,95.0,192.0,180.0,0.0,0.0
2093,90.0,0.0,180.0,0.0,0.0
2094,66.0,0.0,390.0,0.0,0.0
2095,87.0,192.0,180.0,0.0,0.0
2096,59.0,0.0,390.0,0.0,0.0
2097,71.0,192.0,390.0,0.0,0.0
2098,83.0,0.0,180.0,0.0,0.0
2099,64.0,192.0,390.0,0.0,0.0
2100,92.0,192.0,180.0,0.0,0.0
2101,68.0,0.0,390.0,0.0,0.0
2102,71.0,0.0,390.0,0.0,0.0
2103,88.0,0.0,180.0,0.0,0.0
2104,92.0,192.0,180.0,0.0,0.0
2105,88.0,192.0,180.0,0.0,0.0
2106,83.0,192.0,180.0,0.0,0.0
2107,68.0,0.0,390.0,0.0,0.0
2108,73.0,0.0,390.0,0.0,0.0
2109,64.0,384.0,390.0,0.0,0.0
2110,80.0,0.0,180.0,0.0,0.0
2111,78.0,76.0,750.0,0.0,0.0
2112,71.0,384.0,390.0,0.0,0.0
2113,66.0,0.0,390.0,0.0,0.0
2114,75.0,0.0,390.0,0.0,0.0
2115,76.0,0.0,390.0,0.0,0.0
2116,70.0,0.0,390.0,0.0,0.0
2117,85.0,72.0,60.0,0.0,0.0
2118,66.0,0.0,390.0,0.0,0.0
2119,87.0,72.0,60.0,0.0,0.0
2120,85.0,68.0,60.0,0.0,0.0
2121,87.0,48.0,60.0,0.0,0.0
2122,83.0,48.0,30.0,0.0,0.0
2123,85.0,128.0,30.0,0.0,0.0
2124,59.0,192.0,180.0,0.0,0.0
2125,83.0,64.0,120.0,0.0,0.0
2126,63.0,0.0,180.0,0.0,0.0
2127,66.0,128.0,180.0,0.0,0.0
2128,63.0,192.0,180.0,0.0,0.0
2129,78.0,0.0,120.0,0.0,0.0
2130,90.0,64.0,120.0,0.0,0.0
2131,59.0,0.0,180.0,0.0,0.0
2132,66.0,128.0,180.0,0.0,0.0
2133,83.0,64.0,120.0,0.0,0.0
2134,71.0,0.0,120.0,0.0,0.0
2135,63.0,192.0,180.0,0.0,0.0
2136,59.0,0.0,180.0,0.0,0.0
2137,66.0,192.0,180.0,0.0,0.0
2138,64.0,0.0,180.0,0.0,0.0
2139,61.0,192.0,180.0,0.0,0.0
2140,59.0,0.0,180.0,0.0,0.0
2141,66.0,128.0,180.0,0.0,0.0
2142,61.0,192.0,180.0,0.0,0.0
2143,59.0,0.0,180.0,0.0,0.0
2144,76.0,64.0,120.0,0.0,0.0
2145,88.0,0.0,120.0,0.0,0.0
2146,64.0,0.0,180.0,0.0,0.0
2147,66.0,128.0,180.0,0.0,0.0
2148,70.0,64.0,120.0,0.0,0.0
2149,82.0,0.0,120.0,0.0,0.0
2150,64.0,0.0,180.0,0.0,0.0
2151,61.0,192.0,180.0,0.0,0.0
2152,59.0,0.0,180.0,0.0,0.0
2153,66.0,512.0,180.0,0.0,0.0
2154,54.0,0.0,120.0,0.0,0.0
2155,78.0,0.0,120.0,0.0,0.0
2156,66.0,384.0,120.0,0.0,0.0
2157,75.0,0.0,120.0,0.0,0.0
2158,63.0,768.0,120.0,0.0,0.0
2159,51.0,0.0,120.0,0.0,0.0
2160,52.0,384.0,120.0,0.0,0.0
2161,76.0,0.0,120.0,0.0,0.0
2162,64.0,0.0,120.0,0.0,0.0
2163,49.0,0.0,120.0,0.0,0.0
2164,61.0,768.0,120.0,0.0,0.0
2165,73.0,0.0,120.0,0.0,0.0
2166,63.0,0.0,120.0,0.0,0.0
2167,87.0,0.0,120.0,0.0,0.0
2168,51.0,0.0,120.0,0.0,0.0
2169,75.0,384.0,120.0,0.0,0.0
2170,60.0,0.0,120.0,0.0,0.0
2171,84.0,0.0,120.0,0.0,0.0
2172,72.0,768.0,120.0,0.0,0.0
2173,48.0,0.0,120.0,0.0,0.0
2174,61.0,0.0,120.0,0.0,0.0
2175,85.0,0.0,120.0,0.0,0.0
2176,49.0,384.0,120.0,0.0,0.0
2177,73.0,0.0,120.0,0.0,0.0
2178,58.0,384.0,120.0,0.0,0.0
2179,70.0,0.0,120.0,0.0,0.0
2180,46.0,0.0,120.0,0.0,0.0
2181,82.0,0.0,120.0,0.0,0.0
2182,80.0,0.0,120.0,0.0,0.0
2183,68.0,64.0,120.0,0.0,0.0
2184,56.0,0.0,180.0,0.0,0.0
2185,60.0,192.0,180.0,0.0,0.0
2186,63.0,128.0,180.0,0.0,0.0
2187,56.0,192.0,180.0,0.0,0.0
2188,60.0,0.0,180.0,0.0,0.0
2189,72.0,0.0,120.0,0.0,0.0
2190,84.0,64.0,120.0,0.0,0.0
2191,63.0,128.0,180.0,0.0,0.0
2192,56.0,192.0,180.0,0.0,0.0
2193,60.0,0.0,180.0,0.0,0.0
2194,80.0,0.0,120.0,0.0,0.0
2195,68.0,64.0,120.0,0.0,0.0
2196,63.0,192.0,180.0,0.0,0.0
2197,60.0,0.0,180.0,0.0,0.0
2198,75.0,0.0,750.0,0.0,0.0
2199,87.0,192.0,750.0,0.0,0.0
2200,56.0,192.0,180.0,0.0,0.0
2201,63.0,192.0,180.0,0.0,0.0
2202,60.0,0.0,180.0,0.0,0.0
2203,56.0,192.0,180.0,0.0,0.0
2204,63.0,0.0,180.0,0.0,0.0
2205,56.0,0.0,180.0,0.0,0.0
2206,85.0,192.0,180.0,0.0,0.0
2207,60.0,0.0,180.0,0.0,0.0
2208,84.0,192.0,180.0,0.0,0.0
2209,63.0,0.0,180.0,0.0,0.0
2210,82.0,192.0,180.0,0.0,0.0
2211,60.0,0.0,180.0,0.0,0.0
2212,56.0,0.0,180.0,0.0,0.0
2213,80.0,0.0,180.0,0.0,0.0
2214,63.0,192.0,180.0,0.0,0.0
2215,79.0,192.0,180.0,0.0,0.0
2216,56.0,0.0,180.0,0.0,0.0
2217,60.0,0.0,180.0,0.0,0.0
2218,80.0,0.0,180.0,0.0,0.0
2219,63.0,192.0,180.0,0.0,0.0
2220,56.0,192.0,180.0,0.0,0.0
2221,60.0,0.0,180.0,0.0,0.0
2222,84.0,0.0,180.0,0.0,0.0
2223,80.0,192.0,180.0,0.0,0.0
2224,63.0,0.0,180.0,0.0,0.0
2225,61.0,0.0,180.0,0.0,0.0
2226,56.0,192.0,180.0,0.0,0.0
2227,79.0,0.0,390.0,0.0,0.0
2228,65.0,192.0,180.0,0.0,0.0
2229,77.0,0.0,390.0,0.0,0.0
2230,61.0,0.0,180.0,0.0,0.0
2231,56.0,192.0,180.0,0.0,0.0
2232,65.0,192.0,180.0,0.0,0.0
2233,75.0,0.0,180.0,0.0,0.0
2234,56.0,0.0,180.0,0.0,0.0
2235,61.0,192.0,180.0,0.0,0.0
2236,73.0,192.0,180.0,0.0,0.0
2237,65.0,0.0,180.0,0.0,0.0
2238,72.0,192.0,180.0,0.0,0.0
2239,61.0,0.0,180.0,0.0,0.0
2240,56.0,0.0,180.0,0.0,0.0
2241,65.0,0.0,180.0,0.0,0.0
2242,70.0,192.0,180.0,0.0,0.0
2243,56.0,192.0,180.0,0.0,0.0
2244,61.0,0.0,180.0,0.0,0.0
2245,69.0,0.0,180.0,0.0,0.0
2246,65.0,0.0,180.0,0.0,0.0
2247,70.0,192.0,180.0,0.0,0.0
2248,61.0,192.0,180.0,0.0,0.0
2249,73.0,0.0,180.0,0.0,0.0
2250,56.0,0.0,180.0,0.0,0.0
2251,65.0,0.0,180.0,0.0,0.0
2252,70.0,192.0,180.0,0.0,0.0
2253,67.0,128.0,750.0,0.0,0.0
2254,58.0,192.0,180.0,0.0,0.0
2255,61.0,0.0,180.0,0.0,0.0
2256,56.0,0.0,180.0,0.0,0.0
2257,63.0,192.0,180.0,0.0,0.0
2258,61.0,192.0,180.0,0.0,0.0
2259,56.0,0.0,180.0,0.0,0.0
2260,58.0,0.0,180.0,0.0,0.0
2261,63.0,0.0,180.0,0.0,0.0
2262,61.0,0.0,180.0,0.0,0.0
2263,56.0,0.0,180.0,0.0,0.0
2264,58.0,192.0,180.0,0.0,0.0
2265,70.0,64.0,120.0,0.0,0.0
2266,63.0,128.0,180.0,0.0,0.0
2267,58.0,192.0,180.0,0.0,0.0
2268,73.0,64.0,120.0,0.0,0.0
2269,56.0,0.0,180.0,0.0,0.0
2270,61.0,0.0,180.0,0.0,0.0
2271,63.0,128.0,180.0,0.0,0.0
2272,56.0,0.0,180.0,0.0,0.0
2273,58.0,192.0,180.0,0.0,0.0
2274,70.0,64.0,120.0,0.0,0.0
2275,61.0,0.0,180.0,0.0,0.0
2276,63.0,128.0,180.0,0.0,0.0
2277,56.0,192.0,180.0,0.0,0.0
2278,61.0,0.0,180.0,0.0,0.0
2279,58.0,0.0,180.0,0.0,0.0
2280,67.0,64.0,120.0,0.0,0.0
2281,63.0,192.0,180.0,0.0,0.0
2282,68.0,192.0,180.0,0.0,0.0
2283,56.0,128.0,390.0,0.0,0.0
2284,63.0,0.0,180.0,0.0,0.0
2285,75.0,64.0,120.0,0.0,0.0
2286,72.0,192.0,180.0,0.0,0.0
2287,63.0,128.0,180.0,0.0,0.0
2288,68.0,192.0,180.0,0.0,0.0
2289,72.0,64.0,120.0,0.0,0.0
2290,63.0,192.0,180.0,0.0,0.0
2291,68.0,192.0,180.0,0.0,0.0
2292,56.0,128.0,390.0,0.0,0.0
2293,63.0,0.0,180.0,0.0,0.0
2294,75.0,64.0,120.0,0.0,0.0
2295,72.0,192.0,180.0,0.0,0.0
2296,63.0,128.0,180.0,0.0,0.0
2297,68.0,192.0,180.0,0.0,0.0
2298,72.0,64.0,120.0,0.0,0.0
2299,63.0,192.0,180.0,0.0,0.0
2300,56.0,128.0,390.0,0.0,0.0
2301,68.0,192.0,180.0,0.0,0.0
2302,63.0,0.0,180.0,0.0,0.0
2303,72.0,192.0,180.0,0.0,0.0
2304,75.0,64.0,120.0,0.0,0.0
2305,63.0,128.0,180.0,0.0,0.0
2306,68.0,192.0,180.0,0.0,0.0
2307,72.0,64.0,120.0,0.0,0.0
2308,63.0,192.0,180.0,0.0,0.0
2309,51.0,128.0,390.0,0.0,0.0
2310,67.0,192.0,180.0,0.0,0.0
2311,63.0,0.0,180.0,0.0,0.0
2312,70.0,192.0,180.0,0.0,0.0
2313,73.0,64.0,120.0,0.0,0.0
2314,63.0,128.0,180.0,0.0,0.0
2315,67.0,192.0,180.0,0.0,0.0
2316,70.0,64.0,120.0,0.0,0.0
2317,63.0,192.0,180.0,0.0,0.0
2318,51.0,192.0,390.0,0.0,0.0
2319,67.0,192.0,180.0,0.0,0.0
2320,63.0,0.0,180.0,0.0,0.0
2321,73.0,192.0,390.0,0.0,0.0
2322,70.0,192.0,180.0,0.0,0.0
2323,63.0,0.0,180.0,0.0,0.0
2324,70.0,0.0,390.0,0.0,0.0
2325,67.0,192.0,180.0,0.0,0.0
2326,63.0,192.0,180.0,0.0,0.0
2327,67.0,192.0,180.0,0.0,0.0
2328,51.0,0.0,390.0,0.0,0.0
2329,63.0,192.0,180.0,0.0,0.0
2330,73.0,0.0,390.0,0.0,0.0
2331,70.0,192.0,180.0,0.0,0.0
2332,63.0,192.0,180.0,0.0,0.0
2333,70.0,192.0,390.0,0.0,0.0
2334,67.0,192.0,180.0,0.0,0.0
2335,63.0,0.0,180.0,0.0,0.0
2336,67.0,192.0,180.0,0.0,0.0
2337,51.0,192.0,390.0,0.0,0.0
2338,63.0,0.0,180.0,0.0,0.0
2339,73.0,0.0,390.0,0.0,0.0
2340,70.0,192.0,180.0,0.0,0.0
2341,63.0,192.0,180.0,0.0,0.0
2342,67.0,192.0,180.0,0.0,0.0
2343,70.0,0.0,390.0,0.0,0.0
2344,63.0,192.0,180.0,0.0,0.0
2345,68.0,192.0,180.0,0.0,0.0
2346,56.0,0.0,390.0,0.0,0.0
2347,63.0,192.0,180.0,0.0,0.0
2348,68.0,192.0,180.0,0.0,0.0
2349,71.0,0.0,390.0,0.0,0.0
2350,63.0,128.0,180.0,0.0,0.0
2351,68.0,64.0,120.0,0.0,0.0
2352,71.0,0.0,390.0,0.0,0.0
2353,63.0,192.0,180.0,0.0,0.0
2354,52.0,0.0,390.0,0.0,0.0
2355,64.0,192.0,180.0,0.0,0.0
2356,59.0,128.0,180.0,0.0,0.0
2357,68.0,192.0,180.0,0.0,0.0
2358,71.0,64.0,120.0,0.0,0.0
2359,59.0,128.0,180.0,0.0,0.0
2360,64.0,192.0,180.0,0.0,0.0
2361,68.0,64.0,120.0,0.0,0.0
2362,59.0,192.0,180.0,0.0,0.0
2363,64.0,192.0,180.0,0.0,0.0
2364,52.0,0.0,390.0,0.0,0.0
2365,59.0,192.0,180.0,0.0,0.0
2366,68.0,192.0,180.0,0.0,0.0
2367,71.0,0.0,390.0,0.0,0.0
2368,59.0,192.0,180.0,0.0,0.0
2369,68.0,0.0,390.0,0.0,0.0
2370,64.0,192.0,180.0,0.0,0.0
2371,59.0,192.0,180.0,0.0,0.0
2372,52.0,0.0,390.0,0.0,0.0
2373,64.0,192.0,180.0,0.0,0.0
2374,59.0,192.0,180.0,0.0,0.0
2375,68.0,192.0,180.0,0.0,0.0
2376,71.0,192.0,390.0,0.0,0.0
2377,59.0,0.0,180.0,0.0,0.0
2378,68.0,0.0,390.0,0.0,0.0
2379,64.0,192.0,180.0,0.0,0.0
2380,59.0,192.0,180.0,0.0,0.0
2381,63.0,192.0,180.0,0.0,0.0
2382,47.0,192.0,390.0,0.0,0.0
2383,59.0,0.0,180.0,0.0,0.0
2384,66.0,192.0,180.0,0.0,0.0
2385,69.0,192.0,390.0,0.0,0.0
2386,59.0,0.0,180.0,0.0,0.0
2387,66.0,0.0,390.0,0.0,0.0
2388,63.0,192.0,180.0,0.0,0.0
2389,59.0,192.0,180.0,0.0,0.0
2390,47.0,192.0,390.0,0.0,0.0
2391,63.0,192.0,180.0,0.0,0.0
2392,59.0,0.0,180.0,0.0,0.0
2393,66.0,192.0,180.0,0.0,0.0
2394,69.0,0.0,390.0,0.0,0.0
2395,59.0,192.0,180.0,0.0,0.0
2396,63.0,192.0,180.0,0.0,0.0
2397,66.0,0.0,390.0,0.0,0.0
2398,59.0,192.0,180.0,0.0,0.0
2399,47.0,192.0,390.0,0.0,0.0
2400,63.0,192.0,180.0,0.0,0.0
2401,59.0,0.0,180.0,0.0,0.0
2402,66.0,192.0,180.0,0.0,0.0
2403,69.0,0.0,390.0,0.0,0.0
2404,59.0,192.0,180.0,0.0,0.0
2405,66.0,192.0,390.0,0.0,0.0
2406,63.0,192.0,180.0,0.0,0.0
2407,59.0,0.0,180.0,0.0,0.0
2408,63.0,192.0,180.0,0.0,0.0
2409,47.0,192.0,390.0,0.0,0.0
2410,59.0,0.0,180.0,0.0,0.0
2411,69.0,192.0,390.0,0.0,0.0
2412,66.0,192.0,180.0,0.0,0.0
2413,59.0,0.0,180.0,0.0,0.0
2414,66.0,0.0,390.0,0.0,0.0
2415,63.0,192.0,180.0,0.0,0.0
2416,59.0,192.0,180.0,0.0,0.0
2417,52.0,192.0,390.0,0.0,0.0
2418,64.0,192.0,180.0,0.0,0.0
2419,59.0,0.0,180.0,0.0,0.0
2420,68.0,0.0,390.0,0.0,0.0
2421,64.0,192.0,180.0,0.0,0.0
2422,59.0,192.0,180.0,0.0,0.0
2423,68.0,0.0,390.0,0.0,0.0
2424,64.0,192.0,180.0,0.0,0.0
2425,59.0,192.0,180.0,0.0,0.0
2426,64.0,192.0,180.0,0.0,0.0
2427,47.0,0.0,1140.0,0.0,0.0
2428,52.0,0.0,1140.0,0.0,0.0
2429,40.0,0.0,1140.0,0.0,0.0
2430,59.0,192.0,180.0,0.0,0.0
2431,58.0,192.0,180.0,0.0,0.0
2432,59.0,192.0,180.0,0.0,0.0
2433,63.0,192.0,180.0,0.0,0.0
2434,64.0,192.0,180.0,0.0,0.0
2435,51.0,0.0,1140.0,0.0,0.0
2436,47.0,0.0,1140.0,0.0,0.0
2437,39.0,192.0,1140.0,0.0,0.0
2438,66.0,192.0,180.0,0.0,0.0
2439,59.0,192.0,180.0,0.0,0.0
2440,58.0,192.0,180.0,0.0,0.0
2441,59.0,192.0,180.0,0.0,0.0
2442,64.0,192.0,180.0,0.0,0.0
2443,66.0,0.0,180.0,0.0,0.0
2444,52.0,0.0,750.0,0.0,0.0
2445,40.0,0.0,750.0,0.0,0.0
2446,47.0,0.0,750.0,0.0,0.0
2447,68.0,192.0,180.0,0.0,0.0
2448,64.0,192.0,180.0,0.0,0.0
2449,63.0,192.0,180.0,0.0,0.0
2450,64.0,192.0,180.0,0.0,0.0
2451,49.0,0.0,180.0,0.0,0.0
2452,69.0,192.0,180.0,0.0,0.0
2453,44.0,128.0,180.0,0.0,0.0
2454,71.0,0.0,180.0,0.0,0.0
2455,45.0,64.0,120.0,0.0,0.0
2456,73.0,192.0,180.0,0.0,0.0
2457,71.0,128.0,180.0,0.0,0.0
2458,69.0,192.0,180.0,0.0,0.0
2459,45.0,64.0,120.0,0.0,0.0
2460,68.0,128.0,180.0,0.0,0.0
2461,46.0,64.0,120.0,0.0,0.0
2462,66.0,192.0,180.0,0.0,0.0
2463,64.0,384.0,180.0,0.0,0.0
2464,47.0,0.0,390.0,0.0,0.0
2465,63.0,576.0,390.0,0.0,0.0
2466,66.0,192.0,180.0,0.0,0.0
2467,81.0,0.0,180.0,0.0,0.0
2468,68.0,128.0,180.0,0.0,0.0
2469,83.0,0.0,180.0,0.0,0.0
2470,69.0,64.0,120.0,0.0,0.0
2471,85.0,192.0,180.0,0.0,0.0
2472,83.0,128.0,180.0,0.0,0.0
2473,81.0,192.0,180.0,0.0,0.0
2474,69.0,64.0,120.0,0.0,0.0
2475,80.0,128.0,180.0,0.0,0.0
2476,70.0,64.0,120.0,0.0,0.0
2477,78.0,192.0,180.0,0.0,0.0
2478,76.0,384.0,180.0,0.0,0.0
2479,75.0,576.0,390.0,0.0,0.0
2480,71.0,0.0,390.0,0.0,0.0
2481,69.0,0.0,180.0,0.0,0.0
2482,57.0,192.0,180.0,0.0,0.0
2483,59.0,0.0,180.0,0.0,0.0
2484,71.0,192.0,180.0,0.0,0.0
2485,72.0,192.0,180.0,0.0,0.0
2486,60.0,0.0,180.0,0.0,0.0
2487,71.0,192.0,180.0,0.0,0.0
2488,59.0,0.0,180.0,0.0,0.0
2489,69.0,0.0,180.0,0.0,0.0
2490,57.0,192.0,180.0,0.0,0.0
2491,67.0,192.0,180.0,0.0,0.0
2492,55.0,0.0,180.0,0.0,0.0
2493,54.0,0.0,180.0,0.0,0.0
2494,66.0,192.0,180.0,0.0,0.0
2495,59.0,0.0,180.0,0.0,0.0
2496,71.0,192.0,180.0,0.0,0.0
2497,52.0,0.0,390.0,0.0,0.0
2498,64.0,192.0,180.0,0.0,0.0
2499,59.0,128.0,180.0,0.0,0.0
2500,71.0,64.0,120.0,0.0,0.0
2501,67.0,192.0,180.0,0.0,0.0
2502,59.0,128.0,180.0,0.0,0.0
2503,64.0,192.0,180.0,0.0,0.0
2504,67.0,64.0,120.0,0.0,0.0
2505,59.0,192.0,180.0,0.0,0.0
2506,52.0,128.0,390.0,0.0,0.0
2507,64.0,192.0,180.0,0.0,0.0
2508,59.0,0.0,180.0,0.0,0.0
2509,67.0,192.0,180.0,0.0,0.0
2510,71.0,64.0,120.0,0.0,0.0
2511,59.0,128.0,180.0,0.0,0.0
2512,67.0,64.0,120.0,0.0,0.0
2513,64.0,192.0,180.0,0.0,0.0
2514,59.0,192.0,180.0,0.0,0.0
2515,52.0,192.0,390.0,0.0,0.0
2516,64.0,192.0,180.0,0.0,0.0
2517,59.0,0.0,180.0,0.0,0.0
2518,67.0,192.0,180.0,0.0,0.0
2519,71.0,0.0,390.0,0.0,0.0
2520,59.0,192.0,180.0,0.0,0.0
2521,67.0,192.0,390.0,0.0,0.0
2522,64.0,192.0,180.0,0.0,0.0
2523,59.0,0.0,180.0,0.0,0.0
2524,47.0,0.0,390.0,0.0,0.0
2525,63.0,192.0,180.0,0.0,0.0
2526,59.0,192.0,180.0,0.0,0.0
2527,69.0,192.0,390.0,0.0,0.0
2528,66.0,192.0,180.0,0.0,0.0
2529,59.0,0.0,180.0,0.0,0.0
2530,63.0,192.0,180.0,0.0,0.0
2531,66.0,192.0,390.0,0.0,0.0
2532,59.0,0.0,180.0,0.0,0.0
2533,47.0,0.0,390.0,0.0,0.0
2534,63.0,192.0,180.0,0.0,0.0
2535,59.0,192.0,180.0,0.0,0.0
2536,66.0,192.0,180.0,0.0,0.0
2537,69.0,0.0,390.0,0.0,0.0
2538,59.0,192.0,180.0,0.0,0.0
2539,63.0,192.0,180.0,0.0,0.0
2540,66.0,192.0,390.0,0.0,0.0
2541,59.0,0.0,180.0,0.0,0.0
2542,63.0,192.0,180.0,0.0,0.0
2543,47.0,192.0,390.0,0.0,0.0
2544,59.0,0.0,180.0,0.0,0.0
2545,69.0,192.0,390.0,0.0,0.0
2546,66.0,192.0,180.0,0.0,0.0
2547,59.0,0.0,180.0,0.0,0.0
2548,66.0,192.0,390.0,0.0,0.0
2549,63.0,192.0,180.0,0.0,0.0
2550,59.0,0.0,180.0,0.0,0.0
2551,63.0,192.0,180.0,0.0,0.0
2552,47.0,0.0,390.0,0.0,0.0
2553,59.0,192.0,180.0,0.0,0.0
2554,69.0,192.0,390.0,0.0,0.0
2555,66.0,192.0,180.0,0.0,0.0
2556,59.0,0.0,180.0,0.0,0.0
2557,63.0,192.0,180.0,0.0,0.0
2558,66.0,0.0,390.0,0.0,0.0
2559,59.0,192.0,180.0,0.0,0.0
2560,52.0,192.0,390.0,0.0,0.0
2561,64.0,192.0,180.0,0.0,0.0
2562,59.0,0.0,180.0,0.0,0.0
2563,67.0,192.0,390.0,0.0,0.0
2564,64.0,192.0,180.0,0.0,0.0
2565,59.0,0.0,180.0,0.0,0.0
2566,66.0,192.0,180.0,0.0,0.0
2567,69.0,0.0,390.0,0.0,0.0
2568,62.0,192.0,180.0,0.0,0.0
2569,67.0,192.0,180.0,0.0,0.0
2570,55.0,0.0,390.0,0.0,0.0
2571,62.0,128.0,180.0,0.0,0.0
2572,74.0,64.0,120.0,0.0,0.0
2573,71.0,192.0,180.0,0.0,0.0
2574,62.0,128.0,180.0,0.0,0.0
2575,67.0,192.0,180.0,0.0,0.0
2576,71.0,64.0,120.0,0.0,0.0
2577,62.0,192.0,180.0,0.0,0.0
2578,67.0,192.0,180.0,0.0,0.0
2579,55.0,128.0,390.0,0.0,0.0
2580,62.0,0.0,180.0,0.0,0.0
2581,71.0,192.0,180.0,0.0,0.0
2582,74.0,64.0,120.0,0.0,0.0
2583,62.0,128.0,180.0,0.0,0.0
2584,67.0,192.0,180.0,0.0,0.0
2585,71.0,64.0,120.0,0.0,0.0
2586,62.0,192.0,180.0,0.0,0.0
2587,55.0,192.0,390.0,0.0,0.0
2588,67.0,192.0,180.0,0.0,0.0
2589,62.0,0.0,180.0,0.0,0.0
2590,71.0,192.0,180.0,0.0,0.0
2591,74.0,0.0,390.0,0.0,0.0
2592,62.0,192.0,180.0,0.0,0.0
2593,67.0,192.0,180.0,0.0,0.0
2594,71.0,0.0,390.0,0.0,0.0
2595,62.0,192.0,180.0,0.0,0.0
2596,50.0,192.0,390.0,0.0,0.0
2597,66.0,192.0,180.0,0.0,0.0
2598,62.0,0.0,180.0,0.0,0.0
2599,69.0,192.0,180.0,0.0,0.0
2600,72.0,192.0,390.0,0.0,0.0
2601,62.0,0.0,180.0,0.0,0.0
2602,69.0,0.0,390.0,0.0,0.0
2603,66.0,192.0,180.0,0.0,0.0
2604,62.0,192.0,180.0,0.0,0.0
2605,50.0,192.0,390.0,0.0,0.0
2606,66.0,192.0,180.0,0.0,0.0
2607,62.0,0.0,180.0,0.0,0.0
2608,69.0,192.0,180.0,0.0,0.0
2609,72.0,0.0,390.0,0.0,0.0
2610,62.0,192.0,180.0,0.0,0.0
2611,66.0,192.0,180.0,0.0,0.0
2612,69.0,0.0,390.0,0.0,0.0
2613,62.0,192.0,180.0,0.0,0.0
2614,50.0,192.0,390.0,0.0,0.0
2615,66.0,192.0,180.0,0.0,0.0
2616,62.0,0.0,180.0,0.0,0.0
2617,72.0,0.0,390.0,0.0,0.0
2618,69.0,192.0,180.0,0.0,0.0
2619,62.0,192.0,180.0,0.0,0.0
2620,66.0,192.0,180.0,0.0,0.0
2621,69.0,0.0,390.0,0.0,0.0
2622,62.0,192.0,180.0,0.0,0.0
2623,50.0,0.0,390.0,0.0,0.0
2624,66.0,192.0,180.0,0.0,0.0
2625,62.0,192.0,180.0,0.0,0.0
2626,69.0,192.0,180.0,0.0,0.0
2627,72.0,0.0,390.0,0.0,0.0
2628,62.0,192.0,180.0,0.0,0.0
2629,69.0,0.0,390.0,0.0,0.0
2630,66.0,192.0,180.0,0.0,0.0
2631,62.0,192.0,180.0,0.0,0.0
2632,67.0,192.0,180.0,0.0,0.0
2633,55.0,0.0,390.0,0.0,0.0
2634,62.0,192.0,180.0,0.0,0.0
2635,71.0,192.0,390.0,0.0,0.0
2636,67.0,192.0,180.0,0.0,0.0
2637,62.0,0.0,180.0,0.0,0.0
2638,67.0,192.0,180.0,0.0,0.0
2639,71.0,0.0,390.0,0.0,0.0
2640,62.0,192.0,180.0,0.0,0.0
2641,67.0,192.0,180.0,0.0,0.0
2642,50.0,0.0,1140.0,0.0,0.0
2643,55.0,0.0,1140.0,0.0,0.0
2644,43.0,0.0,1140.0,0.0,0.0
2645,62.0,192.0,180.0,0.0,0.0
2646,61.0,192.0,180.0,0.0,0.0
2647,62.0,192.0,180.0,0.0,0.0
2648,66.0,192.0,180.0,0.0,0.0
2649,67.0,192.0,180.0,0.0,0.0
2650,54.0,0.0,1140.0,0.0,0.0
2651,50.0,0.0,1140.0,0.0,0.0
2652,69.0,192.0,180.0,0.0,0.0
2653,42.0,0.0,1140.0,0.0,0.0
2654,62.0,192.0,180.0,0.0,0.0
2655,61.0,192.0,180.0,0.0,0.0
2656,62.0,192.0,180.0,0.0,0.0
2657,67.0,192.0,180.0,0.0,0.0
2658,69.0,192.0,180.0,0.0,0.0
2659,43.0,0.0,750.0,0.0,0.0
2660,55.0,0.0,750.0,0.0,0.0
2661,71.0,192.0,180.0,0.0,0.0
2662,50.0,0.0,750.0,0.0,0.0
2663,67.0,192.0,180.0,0.0,0.0
2664,66.0,192.0,180.0,0.0,0.0
2665,67.0,192.0,180.0,0.0,0.0
2666,72.0,0.0,180.0,0.0,0.0
2667,52.0,192.0,180.0,0.0,0.0
2668,74.0,0.0,180.0,0.0,0.0
2669,47.0,128.0,180.0,0.0,0.0
2670,76.0,192.0,180.0,0.0,0.0
2671,48.0,64.0,120.0,0.0,0.0
2672,74.0,128.0,180.0,0.0,0.0
2673,72.0,192.0,180.0,0.0,0.0
2674,48.0,64.0,120.0,0.0,0.0
2675,71.0,128.0,180.0,0.0,0.0
2676,69.0,192.0,180.0,0.0,0.0
2677,49.0,64.0,120.0,0.0,0.0
2678,67.0,384.0,180.0,0.0,0.0
2679,50.0,0.0,390.0,0.0,0.0
2680,66.0,576.0,390.0,0.0,0.0
2681,76.0,192.0,180.0,0.0,0.0
2682,84.0,0.0,180.0,0.0,0.0
2683,74.0,0.0,180.0,0.0,0.0
2684,86.0,128.0,180.0,0.0,0.0
2685,72.0,64.0,120.0,0.0,0.0
2686,88.0,192.0,180.0,0.0,0.0
2687,86.0,128.0,180.0,0.0,0.0
2688,84.0,192.0,180.0,0.0,0.0
2689,72.0,64.0,120.0,0.0,0.0
2690,83.0,128.0,180.0,0.0,0.0
2691,81.0,192.0,180.0,0.0,0.0
2692,73.0,64.0,120.0,0.0,0.0
2693,79.0,384.0,180.0,0.0,0.0
2694,78.0,576.0,390.0,0.0,0.0
2695,74.0,0.0,390.0,0.0,0.0
2696,64.0,192.0,180.0,0.0,0.0
2697,52.0,0.0,180.0,0.0,0.0
2698,66.0,0.0,180.0,0.0,0.0
2699,54.0,192.0,180.0,0.0,0.0
2700,55.0,192.0,180.0,0.0,0.0
2701,67.0,0.0,180.0,0.0,0.0
2702,66.0,0.0,180.0,0.0,0.0
2703,54.0,192.0,180.0,0.0,0.0
2704,64.0,192.0,180.0,0.0,0.0
2705,52.0,0.0,180.0,0.0,0.0
2706,62.0,0.0,180.0,0.0,0.0
2707,50.0,192.0,180.0,0.0,0.0
2708,49.0,192.0,180.0,0.0,0.0
2709,61.0,0.0,180.0,0.0,0.0
2710,59.0,0.0,180.0,0.0,0.0
2711,47.0,384.0,180.0,0.0,0.0
2712,58.0,576.0,390.0,0.0,0.0
2713,46.0,0.0,390.0,0.0,0.0
2714,76.0,192.0,180.0,0.0,0.0
2715,88.0,0.0,180.0,0.0,0.0
2716,78.0,192.0,180.0,0.0,0.0
2717,90.0,0.0,180.0,0.0,0.0
2718,91.0,0.0,180.0,0.0,0.0
2719,79.0,192.0,180.0,0.0,0.0
2720,78.0,192.0,180.0,0.0,0.0
2721,90.0,0.0,180.0,0.0,0.0
2722,76.0,0.0,180.0,0.0,0.0
2723,88.0,192.0,180.0,0.0,0.0
2724,74.0,192.0,180.0,0.0,0.0
2725,86.0,0.0,180.0,0.0,0.0
2726,85.0,192.0,180.0,0.0,0.0
2727,73.0,0.0,180.0,0.0,0.0
2728,71.0,192.0,180.0,0.0,0.0
2729,83.0,0.0,180.0,0.0,0.0
2730,82.0,192.0,180.0,0.0,0.0
2731,70.0,0.0,180.0,0.0,0.0
2732,79.0,0.0,180.0,0.0,0.0
2733,67.0,192.0,180.0,0.0,0.0
2734,78.0,0.0,180.0,0.0,0.0
2735,66.0,192.0,180.0,0.0,0.0
2736,76.0,192.0,180.0,0.0,0.0
2737,64.0,0.0,180.0,0.0,0.0
2738,74.0,0.0,180.0,0.0,0.0
2739,62.0,192.0,180.0,0.0,0.0
2740,61.0,128.0,180.0,0.0,0.0
2741,73.0,0.0,180.0,0.0,0.0
2742,59.0,64.0,120.0,0.0,0.0
2743,71.0,192.0,180.0,0.0,0.0
2744,70.0,128.0,180.0,0.0,0.0
2745,55.0,64.0,120.0,0.0,0.0
2746,71.0,192.0,180.0,0.0,0.0
2747,73.0,128.0,180.0,0.0,0.0
2748,74.0,192.0,180.0,0.0,0.0
2749,53.0,64.0,120.0,0.0,0.0
2750,71.0,384.0,180.0,0.0,0.0
2751,69.0,128.0,390.0,0.0,0.0
2752,54.0,0.0,390.0,0.0,0.0
2753,70.0,192.0,180.0,0.0,0.0
2754,73.0,64.0,120.0,0.0,0.0
2755,61.0,128.0,180.0,0.0,0.0
2756,66.0,192.0,180.0,0.0,0.0
2757,70.0,64.0,120.0,0.0,0.0
2758,61.0,192.0,180.0,0.0,0.0
2759,54.0,0.0,390.0,0.0,0.0
2760,66.0,192.0,180.0,0.0,0.0
2761,61.0,128.0,180.0,0.0,0.0
2762,73.0,64.0,120.0,0.0,0.0
2763,70.0,192.0,180.0,0.0,0.0
2764,61.0,128.0,180.0,0.0,0.0
2765,66.0,192.0,180.0,0.0,0.0
2766,70.0,64.0,120.0,0.0,0.0
2767,61.0,192.0,180.0,0.0,0.0
2768,54.0,0.0,390.0,0.0,0.0
2769,66.0,192.0,180.0,0.0,0.0
2770,61.0,128.0,180.0,0.0,0.0
2771,70.0,192.0,180.0,0.0,0.0
2772,73.0,64.0,120.0,0.0,0.0
2773,61.0,128.0,180.0,0.0,0.0
2774,66.0,192.0,180.0,0.0,0.0
2775,70.0,64.0,120.0,0.0,0.0
2776,61.0,192.0,180.0,0.0,0.0
2777,49.0,0.0,390.0,0.0,0.0
2778,65.0,192.0,180.0,0.0,0.0
2779,61.0,192.0,180.0,0.0,0.0
2780,71.0,192.0,390.0,0.0,0.0
2781,70.0,192.0,180.0,0.0,0.0
2782,61.0,0.0,180.0,0.0,0.0
2783,65.0,192.0,180.0,0.0,0.0
2784,68.0,0.0,390.0,0.0,0.0
2785,61.0,192.0,180.0,0.0,0.0
2786,49.0,0.0,390.0,0.0,0.0
2787,65.0,192.0,180.0,0.0,0.0
2788,61.0,192.0,180.0,0.0,0.0
2789,70.0,192.0,180.0,0.0,0.0
2790,71.0,0.0,390.0,0.0,0.0
2791,61.0,192.0,180.0,0.0,0.0
2792,65.0,192.0,180.0,0.0,0.0
2793,68.0,192.0,390.0,0.0,0.0
2794,61.0,0.0,180.0,0.0,0.0
2795,65.0,192.0,180.0,0.0,0.0
2796,49.0,192.0,390.0,0.0,0.0
2797,61.0,0.0,180.0,0.0,0.0
2798,70.0,192.0,180.0,0.0,0.0
2799,71.0,0.0,390.0,0.0,0.0
2800,61.0,192.0,180.0,0.0,0.0
2801,65.0,192.0,180.0,0.0,0.0
2802,68.0,0.0,390.0,0.0,0.0
2803,61.0,192.0,180.0,0.0,0.0
2804,49.0,0.0,390.0,0.0,0.0
2805,65.0,192.0,180.0,0.0,0.0
2806,61.0,192.0,180.0,0.0,0.0
2807,70.0,192.0,180.0,0.0,0.0
2808,71.0,0.0,390.0,0.0,0.0
2809,61.0,192.0,180.0,0.0,0.0
2810,65.0,192.0,180.0,0.0,0.0
2811,68.0,0.0,390.0,0.0,0.0
2812,61.0,192.0,180.0,0.0,0.0
2813,54.0,0.0,390.0,0.0,0.0
2814,66.0,192.0,180.0,0.0,0.0
2815,61.0,192.0,180.0,0.0,0.0
2816,73.0,192.0,180.0,0.0,0.0
2817,70.0,0.0,390.0,0.0,0.0
2818,66.0,192.0,180.0,0.0,0.0
2819,66.0,0.0,390.0,0.0,0.0
2820,73.0,192.0,180.0,0.0,0.0
2821,70.0,128.0,180.0,0.0,0.0
2822,73.0,192.0,180.0,0.0,0.0
2823,78.0,0.0,180.0,0.0,0.0
2824,58.0,64.0,120.0,0.0,0.0
2825,66.0,128.0,180.0,0.0,0.0
2826,78.0,0.0,180.0,0.0,0.0
2827,54.0,64.0,120.0,0.0,0.0
2828,73.0,192.0,180.0,0.0,0.0
2829,66.0,128.0,180.0,0.0,0.0
2830,73.0,0.0,180.0,0.0,0.0
2831,46.0,64.0,120.0,0.0,0.0
2832,78.0,192.0,180.0,0.0,0.0
2833,66.0,128.0,180.0,0.0,0.0
2834,73.0,0.0,180.0,0.0,0.0
2835,78.0,192.0,180.0,0.0,0.0
2836,42.0,64.0,120.0,0.0,0.0
2837,66.0,128.0,180.0,0.0,0.0
2838,58.0,64.0,120.0,0.0,0.0
2839,73.0,0.0,180.0,0.0,0.0
2840,78.0,192.0,180.0,0.0,0.0
2841,66.0,128.0,180.0,0.0,0.0
2842,78.0,192.0,180.0,0.0,0.0
2843,54.0,64.0,120.0,0.0,0.0
2844,73.0,0.0,180.0,0.0,0.0
2845,66.0,128.0,180.0,0.0,0.0
2846,46.0,64.0,120.0,0.0,0.0
2847,73.0,0.0,180.0,0.0,0.0
2848,76.0,192.0,180.0,0.0,0.0
2849,66.0,128.0,180.0,0.0,0.0
2850,73.0,0.0,180.0,0.0,0.0
2851,76.0,192.0,180.0,0.0,0.0
2852,42.0,64.0,120.0,0.0,0.0
2853,66.0,128.0,180.0,0.0,0.0
2854,76.0,0.0,180.0,0.0,0.0
2855,73.0,192.0,180.0,0.0,0.0
2856,58.0,64.0,120.0,0.0,0.0
2857,66.0,128.0,180.0,0.0,0.0
2858,54.0,64.0,120.0,0.0,0.0
2859,76.0,192.0,180.0,0.0,0.0
2860,73.0,0.0,180.0,0.0,0.0
2861,66.0,128.0,180.0,0.0,0.0
2862,73.0,0.0,180.0,0.0,0.0
2863,76.0,192.0,180.0,0.0,0.0
2864,46.0,64.0,120.0,0.0,0.0
2865,66.0,128.0,180.0,0.0,0.0
2866,42.0,64.0,120.0,0.0,0.0
2867,73.0,192.0,180.0,0.0,0.0
2868,76.0,0.0,180.0,0.0,0.0
2869,66.0,128.0,180.0,0.0,0.0
2870,47.0,128.0,390.0,0.0,0.0
2871,83.0,0.0,120.0,0.0,0.0
2872,71.0,256.0,120.0,0.0,0.0
2873,75.0,0.0,120.0,0.0,0.0
2874,87.0,64.0,120.0,0.0,0.0
2875,63.0,0.0,180.0,0.0,0.0
2876,59.0,192.0,180.0,0.0,0.0
2877,66.0,128.0,180.0,0.0,0.0
2878,83.0,0.0,120.0,0.0,0.0
2879,71.0,64.0,120.0,0.0,0.0
2880,63.0,0.0,180.0,0.0,0.0
2881,59.0,192.0,180.0,0.0,0.0
2882,66.0,192.0,180.0,0.0,0.0
2883,63.0,0.0,180.0,0.0,0.0
2884,59.0,192.0,180.0,0.0,0.0
2885,90.0,192.0,750.0,0.0,0.0
2886,78.0,0.0,750.0,0.0,0.0
2887,66.0,192.0,180.0,0.0,0.0
2888,59.0,0.0,180.0,0.0,0.0
2889,63.0,192.0,180.0,0.0,0.0
2890,66.0,0.0,180.0,0.0,0.0
2891,88.0,0.0,180.0,0.0,0.0
2892,59.0,192.0,180.0,0.0,0.0
2893,63.0,0.0,180.0,0.0,0.0
2894,66.0,0.0,180.0,0.0,0.0
2895,87.0,192.0,180.0,0.0,0.0
2896,85.0,192.0,180.0,0.0,0.0
2897,63.0,0.0,180.0,0.0,0.0
2898,59.0,0.0,180.0,0.0,0.0
2899,83.0,0.0,180.0,0.0,0.0
2900,66.0,192.0,180.0,0.0,0.0
2901,63.0,0.0,180.0,0.0,0.0
2902,59.0,192.0,180.0,0.0,0.0
2903,82.0,0.0,180.0,0.0,0.0
2904,66.0,0.0,180.0,0.0,0.0
2905,83.0,192.0,180.0,0.0,0.0
2906,63.0,192.0,180.0,0.0,0.0
2907,87.0,0.0,180.0,0.0,0.0
2908,59.0,0.0,180.0,0.0,0.0
2909,66.0,192.0,180.0,0.0,0.0
2910,83.0,0.0,180.0,0.0,0.0
2911,59.0,0.0,180.0,0.0,0.0
2912,64.0,192.0,180.0,0.0,0.0
2913,82.0,0.0,390.0,0.0,0.0
2914,68.0,192.0,180.0,0.0,0.0
2915,64.0,0.0,180.0,0.0,0.0
2916,80.0,192.0,390.0,0.0,0.0
2917,59.0,192.0,180.0,0.0,0.0
2918,68.0,0.0,180.0,0.0,0.0
2919,59.0,0.0,180.0,0.0,0.0
2920,78.0,192.0,180.0,0.0,0.0
2921,64.0,0.0,180.0,0.0,0.0
2922,68.0,0.0,180.0,0.0,0.0
2923,76.0,192.0,180.0,0.0,0.0
2924,64.0,0.0,180.0,0.0,0.0
2925,75.0,0.0,180.0,0.0,0.0
2926,59.0,192.0,180.0,0.0,0.0
2927,73.0,192.0,180.0,0.0,0.0
2928,68.0,0.0,180.0,0.0,0.0
2929,64.0,0.0,180.0,0.0,0.0
2930,72.0,192.0,180.0,0.0,0.0
2931,59.0,0.0,180.0,0.0,0.0
2932,68.0,0.0,180.0,0.0,0.0
2933,73.0,192.0,180.0,0.0,0.0
2934,76.0,192.0,180.0,0.0,0.0
2935,59.0,0.0,180.0,0.0,0.0
2936,64.0,0.0,180.0,0.0,0.0
2937,68.0,0.0,180.0,0.0,0.0
2938,73.0,192.0,180.0,0.0,0.0
2939,59.0,0.0,180.0,0.0,0.0
2940,61.0,0.0,180.0,0.0,0.0
2941,64.0,192.0,180.0,0.0,0.0
2942,70.0,0.0,750.0,0.0,0.0
2943,66.0,192.0,180.0,0.0,0.0
2944,59.0,0.0,180.0,0.0,0.0
2945,64.0,0.0,180.0,0.0,0.0
2946,61.0,96.0,180.0,0.0,0.0
2947,66.0,0.0,180.0,0.0,0.0
2948,74.0,48.0,30.0,0.0,0.0
2949,73.0,48.0,30.0,0.0,0.0
2950,72.0,192.0,30.0,0.0,0.0
2951,73.0,0.0,390.0,0.0,0.0
2952,64.0,0.0,180.0,0.0,0.0
2953,61.0,192.0,180.0,0.0,0.0
2954,59.0,0.0,180.0,0.0,0.0
2955,66.0,128.0,180.0,0.0,0.0
2956,64.0,0.0,180.0,0.0,0.0
2957,61.0,192.0,180.0,0.0,0.0
2958,59.0,0.0,180.0,0.0,0.0
2959,76.0,64.0,120.0,0.0,0.0
2960,66.0,128.0,180.0,0.0,0.0
2961,73.0,64.0,120.0,0.0,0.0
2962,59.0,0.0,180.0,0.0,0.0
2963,61.0,192.0,180.0,0.0,0.0
2964,64.0,0.0,180.0,0.0,0.0
2965,66.0,128.0,180.0,0.0,0.0
2966,64.0,0.0,180.0,0.0,0.0
2967,61.0,0.0,180.0,0.0,0.0
2968,59.0,192.0,180.0,0.0,0.0
2969,70.0,64.0,120.0,0.0,0.0
2970,66.0,192.0,180.0,0.0,0.0
2971,63.0,192.0,1140.0,0.0,0.0
2972,59.0,0.0,1140.0,0.0,0.0
2973,71.0,192.0,180.0,0.0,0.0
2974,66.0,192.0,180.0,0.0,0.0
2975,65.0,192.0,180.0,0.0,0.0
2976,66.0,192.0,180.0,0.0,0.0
2977,70.0,192.0,180.0,0.0,0.0
2978,71.0,0.0,180.0,0.0,0.0
2979,58.0,0.0,1140.0,0.0,0.0
2980,73.0,192.0,180.0,0.0,0.0
2981,61.0,192.0,1140.0,0.0,0.0
2982,66.0,192.0,180.0,0.0,0.0
2983,65.0,192.0,180.0,0.0,0.0
2984,66.0,192.0,180.0,0.0,0.0
2985,71.0,192.0,180.0,0.0,0.0
2986,73.0,0.0,180.0,0.0,0.0
2987,75.0,192.0,180.0,0.0,0.0
2988,63.0,0.0,1140.0,0.0,0.0
2989,59.0,0.0,1140.0,0.0,0.0
2990,71.0,192.0,180.0,0.0,0.0
2991,70.0,192.0,180.0,0.0,0.0
2992,71.0,192.0,180.0,0.0,0.0
2993,73.0,192.0,180.0,0.0,0.0
2994,75.0,192.0,180.0,0.0,0.0
2995,64.0,0.0,1140.0,0.0,0.0
2996,76.0,192.0,180.0,0.0,0.0
2997,61.0,0.0,1140.0,0.0,0.0
2998,71.0,192.0,180.0,0.0,0.0
2999,70.0,192.0,180.0,0.0,0.0
3000,71.0,192.0,180.0,0.0,0.0
3001,75.0,192.0,180.0,0.0,0.0
3002,76.0,192.0,180.0,0.0,0.0
3003,51.0,192.0,180.0,0.0,0.0
3004,78.0,192.0,390.0,0.0,0.0
3005,54.0,0.0,180.0,0.0,0.0
3006,59.0,192.0,180.0,0.0,0.0
3007,66.0,192.0,180.0,0.0,0.0
3008,63.0,0.0,180.0,0.0,0.0
3009,71.0,192.0,180.0,0.0,0.0
3010,75.0,192.0,180.0,0.0,0.0
3011,78.0,192.0,180.0,0.0,0.0
3012,71.0,192.0,180.0,0.0,0.0
3013,75.0,192.0,180.0,0.0,0.0
3014,78.0,192.0,180.0,0.0,0.0
3015,83.0,192.0,180.0,0.0,0.0
3016,75.0,192.0,180.0,0.0,0.0
3017,78.0,192.0,180.0,0.0,0.0
3018,83.0,192.0,180.0,0.0,0.0
3019,87.0,192.0,180.0,0.0,0.0
3020,78.0,192.0,180.0,0.0,0.0
3021,83.0,192.0,180.0,0.0,0.0
3022,87.0,192.0,180.0,0.0,0.0
3023,90.0,192.0,180.0,0.0,0.0
3024,88.0,192.0,180.0,0.0,0.0
3025,87.0,192.0,180.0,0.0,0.0
3026,85.0,192.0,180.0,0.0,0.0
3027,83.0,192.0,180.0,0.0,0.0
3028,81.0,192.0,180.0,0.0,0.0
3029,80.0,192.0,390.0,0.0,0.0
3030,52.0,192.0,180.0,0.0,0.0
3031,56.0,0.0,180.0,0.0,0.0
3032,59.0,192.0,180.0,0.0,0.0
3033,64.0,0.0,180.0,0.0,0.0
3034,68.0,192.0,180.0,0.0,0.0
3035,71.0,192.0,180.0,0.0,0.0
3036,76.0,192.0,180.0,0.0,0.0
3037,80.0,192.0,180.0,0.0,0.0
3038,68.0,192.0,180.0,0.0,0.0
3039,71.0,192.0,180.0,0.0,0.0
3040,76.0,192.0,180.0,0.0,0.0
3041,80.0,192.0,180.0,0.0,0.0
3042,71.0,192.0,180.0,0.0,0.0
3043,76.0,192.0,180.0,0.0,0.0
3044,80.0,192.0,180.0,0.0,0.0
3045,83.0,192.0,180.0,0.0,0.0
3046,76.0,192.0,180.0,0.0,0.0
3047,80.0,192.0,180.0,0.0,0.0
3048,83.0,192.0,180.0,0.0,0.0
3049,88.0,192.0,180.0,0.0,0.0
3050,80.0,192.0,180.0,0.0,0.0
3051,83.0,192.0,180.0,0.0,0.0
3052,88.0,192.0,180.0,0.0,0.0
3053,92.0,192.0,180.0,0.0,0.0
3054,90.0,192.0,180.0,0.0,0.0
3055,89.0,192.0,390.0,0.0,0.0
3056,49.0,192.0,180.0,0.0,0.0
3057,53.0,0.0,180.0,0.0,0.0
3058,56.0,192.0,180.0,0.0,0.0
3059,65.0,0.0,180.0,0.0,0.0
3060,59.0,192.0,180.0,0.0,0.0
3061,68.0,192.0,180.0,0.0,0.0
3062,71.0,192.0,180.0,0.0,0.0
3063,77.0,192.0,180.0,0.0,0.0
3064,68.0,192.0,180.0,0.0,0.0
3065,71.0,192.0,180.0,0.0,0.0
3066,77.0,192.0,180.0,0.0,0.0
3067,80.0,192.0,180.0,0.0,0.0
3068,71.0,192.0,180.0,0.0,0.0
3069,77.0,192.0,180.0,0.0,0.0
3070,80.0,192.0,180.0,0.0,0.0
3071,83.0,192.0,180.0,0.0,0.0
3072,77.0,192.0,180.0,0.0,0.0
3073,80.0,192.0,180.0,0.0,0.0
3074,83.0,192.0,180.0,0.0,0.0
3075,89.0,192.0,180.0,0.0,0.0
3076,92.0,192.0,180.0,0.0,0.0
3077,85.0,192.0,180.0,0.0,0.0
3078,65.0,0.0,390.0,0.0,0.0
3079,68.0,0.0,390.0,0.0,0.0
3080,87.0,192.0,180.0,0.0,0.0
3081,85.0,192.0,180.0,0.0,0.0
3082,68.0,0.0,390.0,0.0,0.0
3083,71.0,0.0,390.0,0.0,0.0
3084,87.0,192.0,180.0,0.0,0.0
3085,66.0,192.0,390.0,0.0,0.0
3086,70.0,192.0,180.0,0.0,0.0
3087,85.0,0.0,1140.0,0.0,0.0
3088,82.0,0.0,1140.0,0.0,0.0
3089,71.0,0.0,180.0,0.0,0.0
3090,73.0,192.0,180.0,0.0,0.0
3091,75.0,192.0,180.0,0.0,0.0
3092,77.0,192.0,180.0,0.0,0.0
3093,78.0,192.0,180.0,0.0,0.0
3094,77.0,192.0,180.0,0.0,0.0
3095,85.0,0.0,1140.0,0.0,0.0
3096,83.0,0.0,1140.0,0.0,0.0
3097,75.0,192.0,180.0,0.0,0.0
3098,73.0,192.0,180.0,0.0,0.0
3099,71.0,192.0,180.0,0.0,0.0
3100,70.0,192.0,180.0,0.0,0.0
3101,68.0,192.0,180.0,0.0,0.0
3102,66.0,192.0,180.0,0.0,0.0
3103,85.0,192.0,1140.0,0.0,0.0
3104,88.0,0.0,1140.0,0.0,0.0
3105,64.0,192.0,180.0,0.0,0.0
3106,63.0,192.0,180.0,0.0,0.0
3107,61.0,192.0,180.0,0.0,0.0
3108,59.0,192.0,180.0,0.0,0.0
3109,58.0,0.0,180.0,0.0,0.0
3110,59.0,192.0,180.0,0.0,0.0
3111,83.0,0.0,390.0,0.0,0.0
3112,87.0,0.0,390.0,0.0,0.0
3113,61.0,192.0,180.0,0.0,0.0
3114,83.0,192.0,390.0,0.0,0.0
3115,87.0,0.0,390.0,0.0,0.0
3116,63.0,192.0,180.0,0.0,0.0
3117,65.0,0.0,180.0,0.0,0.0
3118,66.0,192.0,180.0,0.0,0.0
3119,87.0,0.0,390.0,0.0,0.0
3120,83.0,0.0,390.0,0.0,0.0
3121,68.0,192.0,180.0,0.0,0.0
3122,66.0,0.0,390.0,0.0,0.0
3123,85.0,0.0,1140.0,0.0,0.0
3124,82.0,0.0,1140.0,0.0,0.0
3125,70.0,192.0,180.0,0.0,0.0
3126,71.0,192.0,180.0,0.0,0.0
3127,73.0,192.0,180.0,0.0,0.0
3128,75.0,192.0,180.0,0.0,0.0
3129,77.0,192.0,180.0,0.0,0.0
3130,78.0,192.0,180.0,0.0,0.0
3131,77.0,192.0,180.0,0.0,0.0
3132,85.0,0.0,1140.0,0.0,0.0
3133,83.0,0.0,1140.0,0.0,0.0
3134,75.0,192.0,180.0,0.0,0.0
3135,73.0,192.0,180.0,0.0,0.0
3136,71.0,192.0,180.0,0.0,0.0
3137,70.0,192.0,180.0,0.0,0.0
3138,68.0,192.0,180.0,0.0,0.0
3139,66.0,192.0,180.0,0.0,0.0
3140,88.0,0.0,1140.0,0.0,0.0
3141,85.0,0.0,1140.0,0.0,0.0
3142,64.0,192.0,180.0,0.0,0.0
3143,63.0,192.0,180.0,0.0,0.0
3144,61.0,192.0,180.0,0.0,0.0
3145,59.0,192.0,180.0,0.0,0.0
3146,58.0,192.0,180.0,0.0,0.0
3147,59.0,192.0,180.0,0.0,0.0
3148,87.0,0.0,390.0,0.0,0.0
3149,83.0,0.0,390.0,0.0,0.0
3150,61.0,192.0,180.0,0.0,0.0
3151,63.0,192.0,180.0,0.0,0.0
3152,87.0,0.0,390.0,0.0,0.0
3153,83.0,0.0,390.0,0.0,0.0
3154,65.0,192.0,180.0,0.0,0.0
3155,83.0,0.0,390.0,0.0,0.0
3156,66.0,192.0,180.0,0.0,0.0
3157,87.0,192.0,390.0,0.0,0.0
3158,68.0,0.0,180.0,0.0,0.0
3159,66.0,0.0,2310.0,0.0,0.0
3160,70.0,192.0,1140.0,0.0,0.0
3161,73.0,0.0,1140.0,0.0,0.0
3162,85.0,192.0,180.0,0.0,0.0
3163,82.0,0.0,180.0,0.0,0.0
3164,83.0,192.0,180.0,0.0,0.0
3165,85.0,192.0,180.0,0.0,0.0
3166,87.0,192.0,180.0,0.0,0.0
3167,89.0,192.0,180.0,0.0,0.0
3168,90.0,0.0,180.0,0.0,0.0
3169,68.0,0.0,1140.0,0.0,0.0
3170,89.0,192.0,180.0,0.0,0.0
3171,71.0,0.0,1140.0,0.0,0.0
3172,87.0,192.0,180.0,0.0,0.0
3173,85.0,192.0,180.0,0.0,0.0
3174,83.0,192.0,180.0,0.0,0.0
3175,82.0,192.0,180.0,0.0,0.0
3176,80.0,192.0,180.0,0.0,0.0
3177,66.0,0.0,2310.0,0.0,0.0
3178,71.0,0.0,1140.0,0.0,0.0
3179,83.0,192.0,180.0,0.0,0.0
3180,77.0,0.0,1140.0,0.0,0.0
3181,85.0,192.0,180.0,0.0,0.0
3182,87.0,192.0,180.0,0.0,0.0
3183,89.0,192.0,180.0,0.0,0.0
3184,90.0,192.0,180.0,0.0,0.0
3185,92.0,192.0,180.0,0.0,0.0
3186,73.0,192.0,1140.0,0.0,0.0
3187,90.0,192.0,180.0,0.0,0.0
3188,70.0,0.0,1140.0,0.0,0.0
3189,88.0,192.0,180.0,0.0,0.0
3190,87.0,192.0,180.0,0.0,0.0
3191,85.0,192.0,180.0,0.0,0.0
3192,83.0,192.0,180.0,0.0,0.0
3193,82.0,0.0,180.0,0.0,0.0
3194,76.0,0.0,1140.0,0.0,0.0
3195,85.0,192.0,180.0,0.0,0.0
3196,70.0,192.0,1140.0,0.0,0.0
3197,66.0,0.0,1140.0,0.0,0.0
3198,73.0,0.0,1140.0,0.0,0.0
3199,88.0,192.0,180.0,0.0,0.0
3200,94.0,192.0,180.0,0.0,0.0
3201,88.0,192.0,180.0,0.0,0.0
3202,97.0,192.0,180.0,0.0,0.0
3203,94.0,0.0,180.0,0.0,0.0
3204,70.0,0.0,1140.0,0.0,0.0
3205,97.0,192.0,180.0,0.0,0.0
3206,67.0,0.0,1140.0,0.0,0.0
3207,76.0,0.0,1140.0,0.0,0.0
3208,73.0,0.0,1140.0,0.0,0.0
3209,94.0,192.0,180.0,0.0,0.0
3210,97.0,192.0,180.0,0.0,0.0
3211,94.0,192.0,180.0,0.0,0.0
3212,97.0,192.0,180.0,0.0,0.0
3213,94.0,192.0,180.0,0.0,0.0
3214,76.0,0.0,750.0,0.0,0.0
3215,70.0,0.0,750.0,0.0,0.0
3216,66.0,0.0,750.0,0.0,0.0
3217,73.0,192.0,750.0,0.0,0.0
3218,97.0,192.0,180.0,0.0,0.0
3219,94.0,192.0,180.0,0.0,0.0
3220,90.0,192.0,180.0,0.0,0.0
3221,92.0,0.0,180.0,0.0,0.0
3222,70.0,0.0,390.0,0.0,0.0
3223,73.0,0.0,390.0,0.0,0.0
3224,94.0,192.0,180.0,0.0,0.0
3225,64.0,0.0,390.0,0.0,0.0
3226,90.0,192.0,180.0,0.0,0.0
3227,63.0,0.0,750.0,0.0,0.0
3228,95.0,192.0,180.0,0.0,0.0
3229,71.0,192.0,750.0,0.0,0.0
3230,66.0,0.0,750.0,0.0,0.0
3231,90.0,192.0,180.0,0.0,0.0
3232,95.0,192.0,180.0,0.0,0.0
3233,90.0,0.0,180.0,0.0,0.0
3234,87.0,192.0,180.0,0.0,0.0
3235,71.0,0.0,390.0,0.0,0.0
3236,66.0,192.0,390.0,0.0,0.0
3237,59.0,0.0,390.0,0.0,0.0
3238,83.0,0.0,180.0,0.0,0.0
3239,85.0,192.0,180.0,0.0,0.0
3240,76.0,192.0,1140.0,0.0,0.0
3241,70.0,0.0,1140.0,0.0,0.0
3242,73.0,0.0,1140.0,0.0,0.0
3243,66.0,0.0,1140.0,0.0,0.0
3244,88.0,192.0,180.0,0.0,0.0
3245,94.0,192.0,180.0,0.0,0.0
3246,88.0,192.0,180.0,0.0,0.0
3247,97.0,192.0,180.0,0.0,0.0
3248,94.0,0.0,180.0,0.0,0.0
3249,97.0,192.0,180.0,0.0,0.0
3250,67.0,192.0,1140.0,0.0,0.0
3251,70.0,0.0,1140.0,0.0,0.0
3252,76.0,0.0,1140.0,0.0,0.0
3253,73.0,0.0,1140.0,0.0,0.0
3254,94.0,192.0,180.0,0.0,0.0
3255,97.0,192.0,180.0,0.0,0.0
3256,94.0,192.0,180.0,0.0,0.0
3257,97.0,192.0,180.0,0.0,0.0
3258,94.0,0.0,180.0,0.0,0.0
3259,73.0,0.0,750.0,0.0,0.0
3260,66.0,0.0,750.0,0.0,0.0
3261,97.0,192.0,180.0,0.0,0.0
3262,76.0,0.0,750.0,0.0,0.0
3263,70.0,192.0,750.0,0.0,0.0
3264,94.0,0.0,180.0,0.0,0.0
3265,96.0,192.0,180.0,0.0,0.0
3266,90.0,192.0,180.0,0.0,0.0
3267,92.0,0.0,180.0,0.0,0.0
3268,94.0,192.0,180.0,0.0,0.0
3269,73.0,0.0,390.0,0.0,0.0
3270,64.0,0.0,390.0,0.0,0.0
3271,70.0,192.0,390.0,0.0,0.0
3272,90.0,0.0,180.0,0.0,0.0
3273,95.0,192.0,180.0,0.0,0.0
3274,66.0,0.0,750.0,0.0,0.0
3275,71.0,0.0,750.0,0.0,0.0
3276,63.0,192.0,750.0,0.0,0.0
3277,90.0,192.0,180.0,0.0,0.0
3278,95.0,192.0,180.0,0.0,0.0
3279,90.0,0.0,180.0,0.0,0.0
3280,87.0,192.0,180.0,0.0,0.0
3281,71.0,0.0,390.0,0.0,0.0
3282,66.0,192.0,390.0,0.0,0.0
3283,59.0,0.0,390.0,0.0,0.0
3284,83.0,0.0,180.0,0.0,0.0
3285,92.0,192.0,180.0,0.0,0.0
3286,68.0,0.0,390.0,0.0,0.0
3287,64.0,0.0,390.0,0.0,0.0
3288,71.0,0.0,390.0,0.0,0.0
3289,88.0,192.0,180.0,0.0,0.0
3290,92.0,192.0,180.0,0.0,0.0
3291,88.0,192.0,180.0,0.0,0.0
3292,83.0,192.0,180.0,0.0,0.0
3293,68.0,384.0,390.0,0.0,0.0
3294,73.0,0.0,390.0,0.0,0.0
3295,64.0,0.0,390.0,0.0,0.0
3296,80.0,0.0,180.0,0.0,0.0
3297,75.0,0.0,390.0,0.0,0.0
3298,71.0,0.0,390.0,0.0,0.0
3299,66.0,384.0,390.0,0.0,0.0
3300,78.0,76.0,750.0,0.0,0.0
3301,70.0,0.0,390.0,0.0,0.0
3302,76.0,0.0,390.0,0.0,0.0
3303,66.0,128.0,390.0,0.0,0.0
3304,85.0,72.0,60.0,0.0,0.0
3305,87.0,72.0,60.0,0.0,0.0
3306,85.0,68.0,60.0,0.0,0.0
3307,87.0,48.0,60.0,0.0,0.0
3308,83.0,48.0,30.0,0.0,0.0
3309,85.0,0.0,30.0,0.0,0.0
3310,83.0,64.0,120.0,0.0,0.0
3311,63.0,192.0,180.0,0.0,0.0
3312,59.0,0.0,180.0,0.0,0.0
3313,66.0,128.0,180.0,0.0,0.0
3314,63.0,192.0,180.0,0.0,0.0
3315,78.0,0.0,120.0,0.0,0.0
3316,90.0,64.0,120.0,0.0,0.0
3317,59.0,0.0,180.0,0.0,0.0
3318,66.0,128.0,180.0,0.0,0.0
3319,63.0,0.0,180.0,0.0,0.0
3320,59.0,192.0,180.0,0.0,0.0
3321,71.0,0.0,120.0,0.0,0.0
3322,83.0,64.0,120.0,0.0,0.0
3323,66.0,192.0,180.0,0.0,0.0
3324,59.0,0.0,180.0,0.0,0.0
3325,61.0,192.0,180.0,0.0,0.0
3326,64.0,0.0,180.0,0.0,0.0
3327,66.0,128.0,180.0,0.0,0.0
3328,64.0,0.0,180.0,0.0,0.0
3329,61.0,192.0,180.0,0.0,0.0
3330,59.0,0.0,180.0,0.0,0.0
3331,76.0,0.0,120.0,0.0,0.0
3332,88.0,64.0,120.0,0.0,0.0
3333,66.0,128.0,180.0,0.0,0.0
3334,82.0,64.0,120.0,0.0,0.0
3335,70.0,0.0,120.0,0.0,0.0
3336,64.0,0.0,180.0,0.0,0.0
3337,59.0,192.0,180.0,0.0,0.0
3338,61.0,0.0,180.0,0.0,0.0
3339,66.0,192.0,180.0,0.0,0.0
3340,54.0,192.0,180.0,0.0,0.0
3341,51.0,128.0,180.0,0.0,0.0
3342,54.0,192.0,180.0,0.0,0.0
3343,66.0,64.0,120.0,0.0,0.0
3344,78.0,0.0,120.0,0.0,0.0
3345,51.0,128.0,180.0,0.0,0.0
3346,54.0,192.0,180.0,0.0,0.0
3347,59.0,0.0,120.0,0.0,0.0
3348,71.0,64.0,120.0,0.0,0.0
3349,51.0,192.0,180.0,0.0,0.0
3350,54.0,192.0,180.0,0.0,0.0
3351,49.0,128.0,180.0,0.0,0.0
3352,64.0,64.0,120.0,0.0,0.0
3353,76.0,0.0,120.0,0.0,0.0
3354,54.0,192.0,180.0,0.0,0.0
3355,49.0,128.0,180.0,0.0,0.0
3356,54.0,192.0,180.0,0.0,0.0
3357,58.0,0.0,120.0,0.0,0.0
3358,70.0,64.0,120.0,0.0,0.0
3359,42.0,192.0,180.0,0.0,0.0
3360,63.0,192.0,180.0,0.0,0.0
3361,59.0,0.0,180.0,0.0,0.0
3362,66.0,128.0,180.0,0.0,0.0
3363,78.0,0.0,120.0,0.0,0.0
3364,59.0,0.0,180.0,0.0,0.0
3365,63.0,192.0,180.0,0.0,0.0
3366,90.0,64.0,120.0,0.0,0.0
3367,66.0,128.0,180.0,0.0,0.0
3368,59.0,192.0,180.0,0.0,0.0
3369,63.0,0.0,180.0,0.0,0.0
3370,71.0,0.0,120.0,0.0,0.0
3371,83.0,64.0,120.0,0.0,0.0
3372,66.0,192.0,180.0,0.0,0.0
3373,61.0,192.0,180.0,0.0,0.0
3374,59.0,0.0,180.0,0.0,0.0
3375,64.0,0.0,180.0,0.0,0.0
3376,66.0,128.0,180.0,0.0,0.0
3377,61.0,0.0,180.0,0.0,0.0
3378,64.0,0.0,180.0,0.0,0.0
3379,59.0,192.0,180.0,0.0,0.0
3380,76.0,0.0,120.0,0.0,0.0
3381,88.0,64.0,120.0,0.0,0.0
3382,66.0,128.0,180.0,0.0,0.0
3383,82.0,0.0,120.0,0.0,0.0
3384,70.0,64.0,120.0,0.0,0.0
3385,61.0,0.0,180.0,0.0,0.0
3386,59.0,192.0,180.0,0.0,0.0
3387,64.0,0.0,180.0,0.0,0.0
3388,66.0,192.0,180.0,0.0,0.0
3389,51.0,192.0,180.0,0.0,0.0
3390,54.0,128.0,180.0,0.0,0.0
3391,51.0,192.0,180.0,0.0,0.0
3392,78.0,0.0,120.0,0.0,0.0
3393,66.0,64.0,120.0,0.0,0.0
3394,54.0,128.0,180.0,0.0,0.0
3395,51.0,192.0,180.0,0.0,0.0
3396,71.0,64.0,120.0,0.0,0.0
3397,59.0,0.0,120.0,0.0,0.0
3398,54.0,192.0,180.0,0.0,0.0
3399,49.0,192.0,180.0,0.0,0.0
3400,54.0,128.0,180.0,0.0,0.0
3401,49.0,192.0,180.0,0.0,0.0
3402,76.0,64.0,120.0,0.0,0.0
3403,64.0,0.0,120.0,0.0,0.0
3404,54.0,128.0,180.0,0.0,0.0
3405,42.0,192.0,180.0,0.0,0.0
3406,58.0,0.0,120.0,0.0,0.0
3407,70.0,64.0,120.0,0.0,0.0
3408,54.0,128.0,180.0,0.0,0.0
3409,71.0,192.0,180.0,0.0,0.0
3410,75.0,0.0,180.0,0.0,0.0
3411,47.0,64.0,120.0,0.0,0.0
3412,66.0,128.0,180.0,0.0,0.0
3413,75.0,192.0,180.0,0.0,0.0
3414,51.0,64.0,120.0,0.0,0.0
3415,71.0,0.0,180.0,0.0,0.0
3416,66.0,128.0,180.0,0.0,0.0
3417,47.0,64.0,120.0,0.0,0.0
3418,75.0,0.0,180.0,0.0,0.0
3419,71.0,192.0,180.0,0.0,0.0
3420,66.0,192.0,180.0,0.0,0.0
3421,71.0,0.0,180.0,0.0,0.0
3422,75.0,192.0,180.0,0.0,0.0
3423,54.0,0.0,750.0,0.0,0.0
3424,66.0,192.0,180.0,0.0,0.0
3425,75.0,0.0,180.0,0.0,0.0
3426,71.0,192.0,180.0,0.0,0.0
3427,66.0,192.0,180.0,0.0,0.0
3428,75.0,0.0,180.0,0.0,0.0
3429,52.0,0.0,180.0,0.0,0.0
3430,71.0,192.0,180.0,0.0,0.0
3431,51.0,0.0,180.0,0.0,0.0
3432,66.0,192.0,180.0,0.0,0.0
3433,75.0,0.0,180.0,0.0,0.0
3434,71.0,0.0,180.0,0.0,0.0
3435,49.0,192.0,180.0,0.0,0.0
3436,47.0,192.0,180.0,0.0,0.0
3437,66.0,0.0,180.0,0.0,0.0
3438,75.0,0.0,180.0,0.0,0.0
3439,71.0,0.0,180.0,0.0,0.0
3440,46.0,192.0,180.0,0.0,0.0
3441,47.0,0.0,180.0,0.0,0.0
3442,66.0,192.0,180.0,0.0,0.0
3443,51.0,192.0,180.0,0.0,0.0
3444,71.0,0.0,180.0,0.0,0.0
3445,75.0,0.0,180.0,0.0,0.0
3446,66.0,192.0,180.0,0.0,0.0
3447,47.0,0.0,180.0,0.0,0.0
3448,46.0,0.0,390.0,0.0,0.0
3449,71.0,0.0,180.0,0.0,0.0
3450,76.0,192.0,180.0,0.0,0.0
3451,64.0,128.0,180.0,0.0,0.0
3452,44.0,64.0,120.0,0.0,0.0
3453,71.0,0.0,180.0,0.0,0.0
3454,76.0,192.0,180.0,0.0,0.0
3455,64.0,128.0,180.0,0.0,0.0
3456,76.0,0.0,180.0,0.0,0.0
3457,71.0,192.0,180.0,0.0,0.0
3458,44.0,64.0,120.0,0.0,0.0
3459,64.0,128.0,180.0,0.0,0.0
3460,73.0,64.0,120.0,0.0,0.0
3461,56.0,192.0,180.0,0.0,0.0
3462,52.0,0.0,180.0,0.0,0.0
3463,61.0,128.0,180.0,0.0,0.0
3464,56.0,192.0,180.0,0.0,0.0
3465,52.0,0.0,180.0,0.0,0.0
3466,76.0,64.0,120.0,0.0,0.0
3467,61.0,128.0,180.0,0.0,0.0
3468,73.0,64.0,120.0,0.0,0.0
3469,56.0,0.0,180.0,0.0,0.0
3470,52.0,192.0,180.0,0.0,0.0
3471,61.0,192.0,180.0,0.0,0.0
3472,56.0,0.0,180.0,0.0,0.0
3473,52.0,192.0,180.0,0.0,0.0
3474,80.0,192.0,750.0,0.0,0.0
3475,61.0,192.0,180.0,0.0,0.0
3476,52.0,0.0,180.0,0.0,0.0
3477,56.0,192.0,180.0,0.0,0.0
3478,61.0,0.0,180.0,0.0,0.0
3479,52.0,0.0,180.0,0.0,0.0
3480,78.0,192.0,180.0,0.0,0.0
3481,56.0,0.0,180.0,0.0,0.0
3482,61.0,0.0,180.0,0.0,0.0
3483,76.0,192.0,180.0,0.0,0.0
3484,54.0,0.0,180.0,0.0,0.0
3485,61.0,0.0,180.0,0.0,0.0
3486,75.0,192.0,180.0,0.0,0.0
3487,64.0,192.0,180.0,0.0,0.0
3488,73.0,0.0,180.0,0.0,0.0
3489,54.0,0.0,180.0,0.0,0.0
3490,76.0,0.0,180.0,0.0,0.0
3491,61.0,192.0,180.0,0.0,0.0
3492,73.0,192.0,180.0,0.0,0.0
3493,64.0,0.0,180.0,0.0,0.0
3494,54.0,0.0,180.0,0.0,0.0
3495,70.0,192.0,180.0,0.0,0.0
3496,61.0,0.0,180.0,0.0,0.0
3497,64.0,0.0,180.0,0.0,0.0
3498,73.0,192.0,180.0,0.0,0.0
3499,73.0,0.0,390.0,0.0,0.0
3500,59.0,192.0,180.0,0.0,0.0
3501,63.0,0.0,180.0,0.0,0.0
3502,66.0,128.0,180.0,0.0,0.0
3503,63.0,192.0,180.0,0.0,0.0
3504,71.0,64.0,120.0,0.0,0.0
3505,59.0,0.0,180.0,0.0,0.0
3506,66.0,128.0,180.0,0.0,0.0
3507,59.0,0.0,180.0,0.0,0.0
3508,63.0,192.0,180.0,0.0,0.0
3509,71.0,64.0,120.0,0.0,0.0
3510,66.0,128.0,180.0,0.0,0.0
3511,58.0,0.0,30.0,0.0,0.0
3512,75.0,0.0,180.0,0.0,0.0
3513,78.0,192.0,180.0,0.0,0.0
3514,59.0,64.0,120.0,0.0,0.0
3515,71.0,0.0,180.0,0.0,0.0
3516,61.0,128.0,30.0,0.0,0.0
3517,78.0,0.0,180.0,0.0,0.0
3518,75.0,192.0,180.0,0.0,0.0
3519,63.0,64.0,120.0,0.0,0.0
3520,71.0,0.0,180.0,0.0,0.0
3521,58.0,128.0,30.0,0.0,0.0
3522,59.0,64.0,120.0,0.0,0.0
3523,75.0,192.0,180.0,0.0,0.0
3524,78.0,0.0,180.0,0.0,0.0
3525,71.0,192.0,180.0,0.0,0.0
3526,65.0,0.0,30.0,0.0,0.0
3527,78.0,0.0,180.0,0.0,0.0
3528,75.0,192.0,180.0,0.0,0.0
3529,66.0,192.0,750.0,0.0,0.0
3530,71.0,192.0,180.0,0.0,0.0
3531,75.0,192.0,180.0,0.0,0.0
3532,78.0,0.0,180.0,0.0,0.0
3533,71.0,0.0,180.0,0.0,0.0
3534,64.0,192.0,180.0,0.0,0.0
3535,75.0,0.0,180.0,0.0,0.0
3536,78.0,0.0,180.0,0.0,0.0
3537,63.0,192.0,180.0,0.0,0.0
3538,71.0,0.0,180.0,0.0,0.0
3539,61.0,0.0,180.0,0.0,0.0
3540,75.0,0.0,180.0,0.0,0.0
3541,78.0,192.0,180.0,0.0,0.0
3542,59.0,192.0,180.0,0.0,0.0
3543,71.0,0.0,180.0,0.0,0.0
3544,78.0,192.0,180.0,0.0,0.0
3545,75.0,0.0,180.0,0.0,0.0
3546,58.0,0.0,180.0,0.0,0.0
3547,71.0,192.0,180.0,0.0,0.0
3548,59.0,0.0,180.0,0.0,0.0
3549,63.0,0.0,180.0,0.0,0.0
3550,75.0,0.0,180.0,0.0,0.0
3551,78.0,192.0,180.0,0.0,0.0
3552,71.0,192.0,180.0,0.0,0.0
3553,59.0,0.0,180.0,0.0,0.0
3554,58.0,0.0,390.0,0.0,0.0
3555,76.0,192.0,180.0,0.0,0.0
3556,83.0,0.0,180.0,0.0,0.0
3557,71.0,128.0,180.0,0.0,0.0
3558,56.0,64.0,120.0,0.0,0.0
3559,83.0,0.0,180.0,0.0,0.0
3560,76.0,192.0,180.0,0.0,0.0
3561,71.0,128.0,180.0,0.0,0.0
3562,83.0,0.0,180.0,0.0,0.0
3563,56.0,64.0,120.0,0.0,0.0
3564,76.0,192.0,180.0,0.0,0.0
3565,71.0,128.0,180.0,0.0,0.0
3566,84.0,0.0,30.0,0.0,0.0
3567,85.0,64.0,120.0,0.0,0.0
3568,52.0,0.0,180.0,0.0,0.0
3569,56.0,192.0,180.0,0.0,0.0
3570,61.0,0.0,180.0,0.0,0.0
3571,87.0,128.0,30.0,0.0,0.0
3572,52.0,0.0,180.0,0.0,0.0
3573,88.0,64.0,120.0,0.0,0.0
3574,56.0,192.0,180.0,0.0,0.0
3575,61.0,0.0,180.0,0.0,0.0
3576,84.0,128.0,30.0,0.0,0.0
3577,85.0,64.0,120.0,0.0,0.0
3578,56.0,0.0,180.0,0.0,0.0
3579,52.0,192.0,180.0,0.0,0.0
3580,61.0,192.0,180.0,0.0,0.0
3581,91.0,0.0,30.0,0.0,0.0
3582,56.0,0.0,180.0,0.0,0.0
3583,52.0,192.0,180.0,0.0,0.0
3584,92.0,192.0,750.0,0.0,0.0
3585,61.0,192.0,180.0,0.0,0.0
3586,52.0,192.0,180.0,0.0,0.0
3587,56.0,0.0,180.0,0.0,0.0
3588,61.0,0.0,180.0,0.0,0.0
3589,90.0,0.0,180.0,0.0,0.0
3590,56.0,192.0,180.0,0.0,0.0
3591,52.0,0.0,180.0,0.0,0.0
3592,61.0,0.0,180.0,0.0,0.0
3593,88.0,192.0,180.0,0.0,0.0
3594,87.0,192.0,180.0,0.0,0.0
3595,54.0,0.0,180.0,0.0,0.0
3596,61.0,0.0,180.0,0.0,0.0
3597,64.0,0.0,180.0,0.0,0.0
3598,85.0,192.0,180.0,0.0,0.0
3599,54.0,0.0,180.0,0.0,0.0
3600,61.0,0.0,180.0,0.0,0.0
3601,88.0,192.0,180.0,0.0,0.0
3602,64.0,0.0,180.0,0.0,0.0
3603,85.0,192.0,180.0,0.0,0.0
3604,61.0,0.0,180.0,0.0,0.0
3605,54.0,0.0,180.0,0.0,0.0
3606,82.0,192.0,180.0,0.0,0.0
3607,64.0,0.0,180.0,0.0,0.0
3608,85.0,192.0,180.0,0.0,0.0
3609,83.0,192.0,180.0,0.0,0.0
3610,47.0,192.0,390.0,0.0,0.0
3611,78.0,0.0,180.0,0.0,0.0
3612,66.0,0.0,390.0,0.0,0.0
3613,63.0,0.0,390.0,0.0,0.0
3614,87.0,192.0,180.0,0.0,0.0
3615,83.0,192.0,180.0,0.0,0.0
3616,78.0,192.0,180.0,0.0,0.0
3617,63.0,0.0,390.0,0.0,0.0
3618,59.0,192.0,390.0,0.0,0.0
3619,75.0,0.0,180.0,0.0,0.0
3620,83.0,192.0,180.0,0.0,0.0
3621,47.0,0.0,390.0,0.0,0.0
3622,78.0,192.0,180.0,0.0,0.0
3623,63.0,192.0,390.0,0.0,0.0
3624,66.0,0.0,390.0,0.0,0.0
3625,87.0,192.0,180.0,0.0,0.0
3626,83.0,0.0,180.0,0.0,0.0
3627,78.0,192.0,180.0,0.0,0.0
3628,63.0,192.0,390.0,0.0,0.0
3629,59.0,0.0,390.0,0.0,0.0
3630,75.0,0.0,180.0,0.0,0.0
3631,83.0,192.0,180.0,0.0,0.0
3632,47.0,0.0,390.0,0.0,0.0
3633,78.0,192.0,180.0,0.0,0.0
3634,63.0,0.0,390.0,0.0,0.0
3635,66.0,192.0,390.0,0.0,0.0
3636,87.0,192.0,180.0,0.0,0.0
3637,83.0,0.0,180.0,0.0,0.0
3638,78.0,192.0,180.0,0.0,0.0
3639,59.0,0.0,390.0,0.0,0.0
3640,63.0,192.0,390.0,0.0,0.0
3641,75.0,0.0,180.0,0.0,0.0
3642,82.0,192.0,180.0,0.0,0.0
3643,54.0,0.0,390.0,0.0,0.0
3644,78.0,192.0,180.0,0.0,0.0
3645,61.0,192.0,390.0,0.0,0.0
3646,64.0,0.0,390.0,0.0,0.0
3647,85.0,192.0,180.0,0.0,0.0
3648,82.0,0.0,180.0,0.0,0.0
3649,78.0,192.0,180.0,0.0,0.0
3650,61.0,0.0,390.0,0.0,0.0
3651,58.0,0.0,390.0,0.0,0.0
3652,76.0,192.0,180.0,0.0,0.0
3653,78.0,192.0,180.0,0.0,0.0
3654,47.0,192.0,390.0,0.0,0.0
3655,75.0,0.0,180.0,0.0,0.0
3656,83.0,192.0,180.0,0.0,0.0
3657,66.0,0.0,390.0,0.0,0.0
3658,63.0,0.0,390.0,0.0,0.0
3659,78.0,192.0,180.0,0.0,0.0
3660,75.0,192.0,180.0,0.0,0.0
3661,63.0,0.0,390.0,0.0,0.0
3662,59.0,0.0,390.0,0.0,0.0
3663,71.0,192.0,180.0,0.0,0.0
3664,78.0,192.0,180.0,0.0,0.0
3665,47.0,0.0,390.0,0.0,0.0
3666,75.0,192.0,180.0,0.0,0.0
3667,83.0,192.0,180.0,0.0,0.0
3668,66.0,192.0,390.0,0.0,0.0
3669,63.0,0.0,390.0,0.0,0.0
3670,78.0,0.0,180.0,0.0,0.0
3671,59.0,0.0,390.0,0.0,0.0
3672,75.0,192.0,180.0,0.0,0.0
3673,63.0,0.0,390.0,0.0,0.0
3674,71.0,192.0,180.0,0.0,0.0
3675,78.0,192.0,180.0,0.0,0.0
3676,47.0,0.0,390.0,0.0,0.0
3677,75.0,192.0,180.0,0.0,0.0
3678,66.0,0.0,390.0,0.0,0.0
3679,83.0,192.0,180.0,0.0,0.0
3680,63.0,0.0,390.0,0.0,0.0
3681,78.0,192.0,180.0,0.0,0.0
3682,59.0,0.0,390.0,0.0,0.0
3683,63.0,0.0,390.0,0.0,0.0
3684,75.0,192.0,180.0,0.0,0.0
3685,71.0,192.0,180.0,0.0,0.0
3686,76.0,192.0,180.0,0.0,0.0
3687,54.0,0.0,390.0,0.0,0.0
3688,73.0,192.0,180.0,0.0,0.0
3689,78.0,192.0,180.0,0.0,0.0
3690,64.0,0.0,390.0,0.0,0.0
3691,61.0,0.0,390.0,0.0,0.0
3692,76.0,192.0,180.0,0.0,0.0
3693,54.0,0.0,390.0,0.0,0.0
3694,73.0,192.0,180.0,0.0,0.0
3695,61.0,0.0,390.0,0.0,0.0
3696,70.0,192.0,180.0,0.0,0.0
3697,71.0,0.0,390.0,0.0,0.0
3698,35.0,192.0,180.0,0.0,0.0
3699,39.0,192.0,180.0,0.0,0.0
3700,42.0,192.0,180.0,0.0,0.0
3701,59.0,0.0,180.0,0.0,0.0
3702,47.0,192.0,180.0,0.0,0.0
3703,51.0,0.0,180.0,0.0,0.0
3704,63.0,192.0,180.0,0.0,0.0
3705,54.0,0.0,180.0,0.0,0.0
3706,66.0,192.0,180.0,0.0,0.0
3707,71.0,192.0,180.0,0.0,0.0
3708,47.0,192.0,390.0,0.0,0.0
3709,75.0,0.0,180.0,0.0,0.0
3710,78.0,192.0,180.0,0.0,0.0
3711,83.0,192.0,180.0,0.0,0.0
3712,87.0,192.0,180.0,0.0,0.0
3713,90.0,384.0,180.0,0.0,0.0
3714,95.0,5568.0,390.0,0.0,0.0
3715,47.0,192.0,180.0,0.0,0.0
3716,62.0,0.0,570.0,0.0,0.0
3717,71.0,0.0,570.0,0.0,0.0
3718,54.0,192.0,180.0,0.0,0.0
3719,54.0,192.0,180.0,0.0,0.0
3720,74.0,0.0,390.0,0.0,0.0
3721,71.0,0.0,390.0,0.0,0.0
3722,47.0,192.0,180.0,0.0,0.0
3723,54.0,192.0,180.0,0.0,0.0
3724,76.0,192.0,180.0,0.0,0.0
3725,73.0,0.0,180.0,0.0,0.0
3726,54.0,0.0,180.0,0.0,0.0
3727,74.0,0.0,390.0,0.0,0.0
3728,78.0,192.0,390.0,0.0,0.0
3729,47.0,192.0,180.0,0.0,0.0
3730,54.0,0.0,180.0,0.0,0.0
3731,74.0,0.0,180.0,0.0,0.0
3732,54.0,0.0,180.0,0.0,0.0
3733,78.0,192.0,180.0,0.0,0.0
3734,74.0,0.0,390.0,0.0,0.0
3735,78.0,0.0,390.0,0.0,0.0
3736,47.0,192.0,180.0,0.0,0.0
3737,54.0,192.0,180.0,0.0,0.0
3738,54.0,0.0,180.0,0.0,0.0
3739,74.0,192.0,180.0,0.0,0.0
3740,71.0,0.0,180.0,0.0,0.0
3741,47.0,192.0,180.0,0.0,0.0
3742,71.0,0.0,390.0,0.0,0.0
3743,62.0,0.0,390.0,0.0,0.0
3744,54.0,192.0,180.0,0.0,0.0
3745,71.0,0.0,180.0,0.0,0.0
3746,74.0,192.0,180.0,0.0,0.0
3747,54.0,0.0,180.0,0.0,0.0
3748,42.0,192.0,180.0,0.0,0.0
3749,70.0,192.0,570.0,0.0,0.0
3750,73.0,0.0,570.0,0.0,0.0
3751,54.0,192.0,180.0,0.0,0.0
3752,54.0,0.0,180.0,0.0,0.0
3753,47.0,192.0,180.0,0.0,0.0
3754,71.0,192.0,570.0,0.0,0.0
3755,62.0,0.0,570.0,0.0,0.0
3756,54.0,192.0,180.0,0.0,0.0
3757,54.0,0.0,180.0,0.0,0.0
3758,74.0,0.0,390.0,0.0,0.0
3759,47.0,192.0,180.0,0.0,0.0
3760,71.0,0.0,390.0,0.0,0.0
3761,54.0,192.0,180.0,0.0,0.0
3762,76.0,0.0,180.0,0.0,0.0
3763,73.0,192.0,180.0,0.0,0.0
3764,54.0,0.0,180.0,0.0,0.0
3765,78.0,192.0,390.0,0.0,0.0
3766,74.0,0.0,390.0,0.0,0.0
3767,47.0,192.0,180.0,0.0,0.0
3768,54.0,0.0,180.0,0.0,0.0
3769,74.0,0.0,180.0,0.0,0.0
3770,78.0,0.0,180.0,0.0,0.0
3771,54.0,192.0,180.0,0.0,0.0
3772,78.0,192.0,390.0,0.0,0.0
3773,45.0,192.0,180.0,0.0,0.0
3774,74.0,0.0,390.0,0.0,0.0
3775,57.0,0.0,180.0,0.0,0.0
3776,66.0,0.0,180.0,0.0,0.0
3777,74.0,192.0,180.0,0.0,0.0
3778,57.0,0.0,180.0,0.0,0.0
3779,76.0,0.0,180.0,0.0,0.0
3780,67.0,0.0,180.0,0.0,0.0
3781,45.0,192.0,180.0,0.0,0.0
3782,71.0,0.0,180.0,0.0,0.0
3783,79.0,0.0,180.0,0.0,0.0
3784,57.0,192.0,180.0,0.0,0.0
3785,57.0,0.0,180.0,0.0,0.0
3786,73.0,0.0,180.0,0.0,0.0
3787,64.0,192.0,180.0,0.0,0.0
3788,74.0,192.0,570.0,0.0,0.0
3789,50.0,192.0,180.0,0.0,0.0
3790,66.0,0.0,570.0,0.0,0.0
3791,57.0,192.0,180.0,0.0,0.0
3792,57.0,0.0,180.0,0.0,0.0
3793,78.0,0.0,390.0,0.0,0.0
3794,74.0,192.0,390.0,0.0,0.0
3795,50.0,192.0,180.0,0.0,0.0
3796,57.0,0.0,180.0,0.0,0.0
3797,57.0,192.0,180.0,0.0,0.0
3798,74.0,0.0,180.0,0.0,0.0
3799,66.0,0.0,180.0,0.0,0.0
3800,76.0,0.0,390.0,0.0,0.0
3801,73.0,192.0,390.0,0.0,0.0
3802,45.0,192.0,180.0,0.0,0.0
3803,57.0,0.0,180.0,0.0,0.0
3804,78.0,0.0,180.0,0.0,0.0
3805,75.0,0.0,180.0,0.0,0.0
3806,57.0,192.0,180.0,0.0,0.0
3807,40.0,192.0,180.0,0.0,0.0
3808,79.0,192.0,390.0,0.0,0.0
3809,76.0,0.0,390.0,0.0,0.0
3810,52.0,0.0,180.0,0.0,0.0
3811,76.0,0.0,180.0,0.0,0.0
3812,79.0,192.0,180.0,0.0,0.0
3813,52.0,0.0,180.0,0.0,0.0
3814,76.0,192.0,390.0,0.0,0.0
3815,79.0,0.0,390.0,0.0,0.0
3816,40.0,192.0,180.0,0.0,0.0
3817,52.0,0.0,180.0,0.0,0.0
3818,76.0,0.0,180.0,0.0,0.0
3819,73.0,192.0,180.0,0.0,0.0
3820,52.0,0.0,180.0,0.0,0.0
3821,42.0,0.0,180.0,0.0,0.0
3822,70.0,0.0,180.0,0.0,0.0
3823,73.0,192.0,180.0,0.0,0.0
3824,76.0,0.0,180.0,0.0,0.0
3825,73.0,0.0,180.0,0.0,0.0
3826,54.0,192.0,180.0,0.0,0.0
3827,42.0,192.0,180.0,0.0,0.0
3828,73.0,0.0,180.0,0.0,0.0
3829,70.0,0.0,180.0,0.0,0.0
3830,74.0,0.0,180.0,0.0,0.0
3831,47.0,192.0,180.0,0.0,0.0
3832,71.0,0.0,180.0,0.0,0.0
3833,59.0,0.0,180.0,0.0,0.0
3834,71.0,0.0,180.0,0.0,0.0
3835,74.0,192.0,180.0,0.0,0.0
3836,47.0,0.0,180.0,0.0,0.0
3837,45.0,0.0,180.0,0.0,0.0
3838,76.0,0.0,180.0,0.0,0.0
3839,73.0,0.0,180.0,0.0,0.0
3840,57.0,192.0,180.0,0.0,0.0
3841,78.0,0.0,390.0,0.0,0.0
3842,74.0,192.0,390.0,0.0,0.0
3843,50.0,192.0,180.0,0.0,0.0
3844,57.0,0.0,180.0,0.0,0.0
3845,57.0,0.0,180.0,0.0,0.0
3846,74.0,0.0,180.0,0.0,0.0
3847,66.0,192.0,180.0,0.0,0.0
3848,73.0,0.0,390.0,0.0,0.0
3849,45.0,192.0,180.0,0.0,0.0
3850,76.0,0.0,390.0,0.0,0.0
3851,57.0,192.0,180.0,0.0,0.0
3852,78.0,0.0,180.0,0.0,0.0
3853,75.0,0.0,180.0,0.0,0.0
3854,57.0,192.0,180.0,0.0,0.0
3855,76.0,0.0,390.0,0.0,0.0
3856,40.0,192.0,180.0,0.0,0.0
3857,79.0,0.0,390.0,0.0,0.0
3858,52.0,192.0,180.0,0.0,0.0
3859,76.0,192.0,180.0,0.0,0.0
3860,52.0,0.0,180.0,0.0,0.0
3861,79.0,0.0,180.0,0.0,0.0
3862,79.0,192.0,390.0,0.0,0.0
3863,76.0,0.0,390.0,0.0,0.0
3864,40.0,192.0,180.0,0.0,0.0
3865,52.0,0.0,180.0,0.0,0.0
3866,73.0,0.0,180.0,0.0,0.0
3867,52.0,0.0,180.0,0.0,0.0
3868,76.0,192.0,180.0,0.0,0.0
3869,73.0,192.0,180.0,0.0,0.0
3870,70.0,0.0,180.0,0.0,0.0
3871,42.0,0.0,180.0,0.0,0.0
3872,76.0,0.0,180.0,0.0,0.0
3873,73.0,192.0,180.0,0.0,0.0
3874,54.0,0.0,180.0,0.0,0.0
3875,54.0,192.0,180.0,0.0,0.0
3876,70.0,0.0,180.0,0.0,0.0
3877,73.0,0.0,180.0,0.0,0.0
3878,71.0,576.0,570.0,0.0,0.0
3879,62.0,0.0,570.0,0.0,0.0
3880,47.0,192.0,180.0,0.0,0.0
3881,59.0,192.0,180.0,0.0,0.0
3882,59.0,0.0,180.0,0.0,0.0
3883,59.0,576.0,570.0,0.0,0.0
3884,62.0,576.0,570.0,0.0,0.0
3885,59.0,0.0,570.0,0.0,0.0
3886,57.0,0.0,570.0,0.0,0.0
3887,66.0,0.0,570.0,0.0,0.0
3888,62.0,0.0,570.0,0.0,0.0
3889,50.0,0.0,570.0,0.0,0.0
3890,60.0,96.0,570.0,0.0,0.0
3891,67.0,96.0,180.0,0.0,0.0
3892,62.0,0.0,180.0,0.0,0.0
3893,55.0,96.0,90.0,0.0,0.0
3894,59.0,0.0,90.0,0.0,0.0
3895,62.0,96.0,90.0,0.0,0.0
3896,59.0,96.0,90.0,0.0,0.0
3897,55.0,96.0,90.0,0.0,0.0
3898,50.0,96.0,90.0,0.0,0.0
3899,55.0,96.0,90.0,0.0,0.0
3900,59.0,96.0,90.0,0.0,0.0
3901,71.0,96.0,180.0,0.0,0.0
3902,62.0,96.0,90.0,0.0,0.0
3903,59.0,0.0,90.0,0.0,0.0
3904,55.0,96.0,90.0,0.0,0.0
3905,71.0,96.0,180.0,0.0,0.0
3906,50.0,0.0,90.0,0.0,0.0
3907,71.0,96.0,180.0,0.0,0.0
3908,55.0,96.0,90.0,0.0,0.0
3909,59.0,0.0,90.0,0.0,0.0
3910,62.0,96.0,90.0,0.0,0.0
3911,74.0,0.0,180.0,0.0,0.0
3912,59.0,96.0,90.0,0.0,0.0
3913,55.0,96.0,90.0,0.0,0.0
3914,50.0,0.0,90.0,0.0,0.0
3915,74.0,0.0,20.0,0.0,0.0
3916,79.0,0.0,180.0,0.0,0.0
3917,55.0,96.0,90.0,0.0,0.0
3918,59.0,96.0,90.0,0.0,0.0
3919,62.0,96.0,90.0,0.0,0.0
3920,78.0,96.0,180.0,0.0,0.0
3921,59.0,0.0,90.0,0.0,0.0
3922,76.0,96.0,180.0,0.0,0.0
3923,55.0,96.0,90.0,0.0,0.0
3924,50.0,0.0,90.0,0.0,0.0
3925,55.0,96.0,90.0,0.0,0.0
3926,74.0,0.0,180.0,0.0,0.0
3927,59.0,96.0,90.0,0.0,0.0
3928,62.0,96.0,90.0,0.0,0.0
3929,72.0,0.0,180.0,0.0,0.0
3930,59.0,96.0,90.0,0.0,0.0
3931,71.0,96.0,180.0,0.0,0.0
3932,55.0,96.0,90.0,0.0,0.0
3933,50.0,0.0,90.0,0.0,0.0
3934,57.0,96.0,90.0,0.0,0.0
3935,74.0,0.0,390.0,0.0,0.0
3936,60.0,96.0,90.0,0.0,0.0
3937,62.0,96.0,90.0,0.0,0.0
3938,60.0,96.0,90.0,0.0,0.0
3939,57.0,96.0,90.0,0.0,0.0
3940,72.0,0.0,180.0,0.0,0.0
3941,50.0,96.0,90.0,0.0,0.0
3942,69.0,0.0,20.0,0.0,0.0
3943,54.0,96.0,90.0,0.0,0.0
3944,81.0,0.0,180.0,0.0,0.0
3945,57.0,96.0,90.0,0.0,0.0
3946,79.0,0.0,180.0,0.0,0.0
3947,62.0,96.0,90.0,0.0,0.0
3948,57.0,96.0,90.0,0.0,0.0
3949,78.0,0.0,180.0,0.0,0.0
3950,54.0,96.0,90.0,0.0,0.0
3951,50.0,96.0,90.0,0.0,0.0
3952,54.0,96.0,90.0,0.0,0.0
3953,76.0,0.0,180.0,0.0,0.0
3954,57.0,96.0,90.0,0.0,0.0
3955,62.0,96.0,90.0,0.0,0.0
3956,74.0,0.0,180.0,0.0,0.0
3957,57.0,96.0,90.0,0.0,0.0
3958,72.0,0.0,180.0,0.0,0.0
3959,54.0,96.0,90.0,0.0,0.0
3960,50.0,96.0,90.0,0.0,0.0
3961,70.0,0.0,390.0,0.0,0.0
3962,55.0,96.0,90.0,0.0,0.0
3963,59.0,96.0,90.0,0.0,0.0
3964,62.0,96.0,90.0,0.0,0.0
3965,59.0,96.0,90.0,0.0,0.0
3966,71.0,0.0,180.0,0.0,0.0
3967,55.0,96.0,90.0,0.0,0.0
3968,50.0,96.0,90.0,0.0,0.0
3969,69.0,0.0,390.0,0.0,0.0
3970,48.0,96.0,90.0,0.0,0.0
3971,50.0,96.0,90.0,0.0,0.0
3972,54.0,96.0,90.0,0.0,0.0
3973,57.0,96.0,90.0,0.0,0.0
3974,72.0,0.0,90.0,0.0,0.0
3975,54.0,96.0,90.0,0.0,0.0
3976,71.0,96.0,90.0,0.0,0.0
3977,50.0,0.0,90.0,0.0,0.0
3978,69.0,96.0,90.0,0.0,0.0
3979,48.0,0.0,90.0,0.0,0.0
3980,50.0,96.0,90.0,0.0,0.0
3981,71.0,0.0,90.0,0.0,0.0
3982,72.0,0.0,90.0,0.0,0.0
3983,54.0,96.0,90.0,0.0,0.0
3984,74.0,0.0,90.0,0.0,0.0
3985,57.0,96.0,90.0,0.0,0.0
3986,54.0,96.0,90.0,0.0,0.0
3987,76.0,0.0,90.0,0.0,0.0
3988,50.0,24.0,90.0,0.0,0.0
3989,74.0,0.0,90.0,0.0,0.0
3990,74.0,24.0,20.0,0.0,0.0
3991,47.0,0.0,90.0,0.0,0.0
3992,76.0,24.0,20.0,0.0,0.0
3993,74.0,24.0,20.0,0.0,0.0
3994,76.0,24.0,20.0,0.0,0.0
3995,50.0,96.0,90.0,0.0,0.0
3996,74.0,24.0,20.0,0.0,0.0
3997,76.0,24.0,20.0,0.0,0.0
3998,73.0,24.0,20.0,0.0,0.0
3999,74.0,0.0,20.0,0.0,0.0
4000,79.0,96.0,180.0,0.0,0.0
4001,55.0,96.0,90.0,0.0,0.0
4002,59.0,0.0,90.0,0.0,0.0
4003,62.0,96.0,90.0,0.0,0.0
4004,71.0,96.0,180.0,0.0,0.0
4005,59.0,0.0,90.0,0.0,0.0
4006,60.0,96.0,90.0,0.0,0.0
4007,81.0,0.0,390.0,0.0,0.0
4008,62.0,96.0,90.0,0.0,0.0
4009,66.0,96.0,90.0,0.0,0.0
4010,69.0,96.0,90.0,0.0,0.0
4011,66.0,0.0,90.0,0.0,0.0
4012,84.0,96.0,90.0,0.0,0.0
4013,83.0,96.0,90.0,0.0,0.0
4014,62.0,0.0,90.0,0.0,0.0
4015,81.0,0.0,90.0,0.0,0.0
4016,60.0,96.0,90.0,0.0,0.0
4017,62.0,0.0,90.0,0.0,0.0
4018,83.0,96.0,90.0,0.0,0.0
4019,66.0,96.0,90.0,0.0,0.0
4020,84.0,0.0,90.0,0.0,0.0
4021,69.0,96.0,90.0,0.0,0.0
4022,86.0,0.0,90.0,0.0,0.0
4023,88.0,0.0,90.0,0.0,0.0
4024,66.0,96.0,90.0,0.0,0.0
4025,86.0,0.0,90.0,0.0,0.0
4026,62.0,24.0,90.0,0.0,0.0
4027,59.0,24.0,90.0,0.0,0.0
4028,86.0,24.0,20.0,0.0,0.0
4029,88.0,24.0,20.0,0.0,0.0
4030,86.0,24.0,20.0,0.0,0.0
4031,88.0,0.0,20.0,0.0,0.0
4032,62.0,0.0,90.0,0.0,0.0
4033,86.0,24.0,20.0,0.0,0.0
4034,88.0,24.0,20.0,0.0,0.0
4035,85.0,24.0,20.0,0.0,0.0
4036,86.0,96.0,20.0,0.0,0.0
4037,91.0,0.0,180.0,0.0,0.0
4038,67.0,96.0,90.0,0.0,0.0
4039,71.0,96.0,90.0,0.0,0.0
4040,67.0,96.0,90.0,0.0,0.0
4041,83.0,0.0,180.0,0.0,0.0
4042,62.0,96.0,90.0,0.0,0.0
4043,60.0,96.0,90.0,0.0,0.0
4044,81.0,96.0,180.0,0.0,0.0
4045,64.0,0.0,90.0,0.0,0.0
4046,84.0,0.0,180.0,0.0,0.0
4047,69.0,96.0,90.0,0.0,0.0
4048,72.0,96.0,90.0,0.0,0.0
4049,69.0,96.0,90.0,0.0,0.0
4050,88.0,0.0,180.0,0.0,0.0
4051,64.0,96.0,90.0,0.0,0.0
4052,62.0,96.0,90.0,0.0,0.0
4053,78.0,0.0,180.0,0.0,0.0
4054,66.0,96.0,90.0,0.0,0.0
4055,69.0,96.0,90.0,0.0,0.0
4056,81.0,96.0,180.0,0.0,0.0
4057,72.0,0.0,90.0,0.0,0.0
4058,86.0,0.0,180.0,0.0,0.0
4059,69.0,96.0,90.0,0.0,0.0
4060,66.0,96.0,90.0,0.0,0.0
4061,64.0,96.0,90.0,0.0,0.0
4062,84.0,0.0,390.0,0.0,0.0
4063,63.0,96.0,90.0,0.0,0.0
4064,64.0,96.0,90.0,0.0,0.0
4065,66.0,96.0,90.0,0.0,0.0
4066,67.0,96.0,90.0,0.0,0.0
4067,83.0,0.0,180.0,0.0,0.0
4068,64.0,96.0,90.0,0.0,0.0
4069,48.0,96.0,90.0,0.0,0.0
4070,69.0,0.0,180.0,0.0,0.0
4071,52.0,96.0,90.0,0.0,0.0
4072,72.0,96.0,180.0,0.0,0.0
4073,57.0,96.0,90.0,0.0,0.0
4074,60.0,0.0,90.0,0.0,0.0
4075,76.0,96.0,180.0,0.0,0.0
4076,64.0,96.0,90.0,0.0,0.0
4077,60.0,0.0,90.0,0.0,0.0
4078,50.0,96.0,90.0,0.0,0.0
4079,67.0,96.0,180.0,0.0,0.0
4080,55.0,0.0,90.0,0.0,0.0
4081,59.0,96.0,90.0,0.0,0.0
4082,71.0,0.0,180.0,0.0,0.0
4083,62.0,96.0,90.0,0.0,0.0
4084,74.0,96.0,180.0,0.0,0.0
4085,59.0,96.0,90.0,0.0,0.0
4086,55.0,0.0,90.0,0.0,0.0
4087,50.0,96.0,90.0,0.0,0.0
4088,60.0,0.0,180.0,0.0,0.0
4089,54.0,96.0,90.0,0.0,0.0
4090,62.0,96.0,180.0,0.0,0.0
4091,57.0,96.0,90.0,0.0,0.0
4092,60.0,0.0,90.0,0.0,0.0
4093,66.0,96.0,180.0,0.0,0.0
4094,57.0,96.0,90.0,0.0,0.0
4095,60.0,0.0,90.0,0.0,0.0
4096,47.0,96.0,90.0,0.0,0.0
4097,62.0,0.0,570.0,0.0,0.0
4098,67.0,0.0,570.0,0.0,0.0
4099,59.0,0.0,570.0,0.0,0.0
4100,50.0,96.0,90.0,0.0,0.0
4101,55.0,96.0,90.0,0.0,0.0
4102,50.0,96.0,90.0,0.0,0.0
4103,47.0,96.0,90.0,0.0,0.0
4104,43.0,96.0,90.0,0.0,0.0
4105,48.0,96.0,90.0,0.0,0.0
4106,52.0,96.0,90.0,0.0,0.0
4107,79.0,0.0,180.0,0.0,0.0
4108,76.0,0.0,180.0,0.0,0.0
4109,55.0,96.0,90.0,0.0,0.0
4110,67.0,96.0,180.0,0.0,0.0
4111,52.0,0.0,90.0,0.0,0.0
4112,76.0,0.0,180.0,0.0,0.0
4113,79.0,0.0,180.0,0.0,0.0
4114,67.0,96.0,180.0,0.0,0.0
4115,48.0,96.0,90.0,0.0,0.0
4116,43.0,0.0,90.0,0.0,0.0
4117,76.0,0.0,390.0,0.0,0.0
4118,67.0,96.0,570.0,0.0,0.0
4119,79.0,96.0,390.0,0.0,0.0
4120,48.0,96.0,90.0,0.0,0.0
4121,52.0,96.0,90.0,0.0,0.0
4122,55.0,96.0,90.0,0.0,0.0
4123,52.0,0.0,90.0,0.0,0.0
4124,73.0,0.0,180.0,0.0,0.0
4125,76.0,0.0,180.0,0.0,0.0
4126,48.0,96.0,90.0,0.0,0.0
4127,43.0,0.0,90.0,0.0,0.0
4128,47.0,96.0,90.0,0.0,0.0
4129,67.0,0.0,570.0,0.0,0.0
4130,74.0,96.0,570.0,0.0,0.0
4131,50.0,96.0,90.0,0.0,0.0
4132,55.0,96.0,90.0,0.0,0.0
4133,50.0,96.0,90.0,0.0,0.0
4134,47.0,96.0,90.0,0.0,0.0
4135,43.0,0.0,90.0,0.0,0.0
4136,71.0,0.0,390.0,0.0,0.0
4137,62.0,0.0,570.0,0.0,0.0
4138,67.0,0.0,570.0,0.0,0.0
4139,47.0,96.0,90.0,0.0,0.0
4140,50.0,96.0,90.0,0.0,0.0
4141,55.0,96.0,90.0,0.0,0.0
4142,50.0,96.0,90.0,0.0,0.0
4143,47.0,96.0,90.0,0.0,0.0
4144,74.0,0.0,180.0,0.0,0.0
4145,43.0,96.0,90.0,0.0,0.0
4146,74.0,96.0,180.0,0.0,0.0
4147,45.0,96.0,90.0,0.0,0.0
4148,66.0,4.0,570.0,0.0,0.0
4149,48.0,0.0,90.0,0.0,0.0
4150,54.0,96.0,90.0,0.0,0.0
4151,72.0,0.0,180.0,0.0,0.0
4152,48.0,68.0,90.0,0.0,0.0
4153,71.0,28.0,60.0,0.0,0.0
4154,45.0,36.0,90.0,0.0,0.0
4155,74.0,60.0,60.0,0.0,0.0
4156,43.0,0.0,90.0,0.0,0.0
4157,72.0,92.0,60.0,0.0,0.0
4158,67.0,68.0,570.0,0.0,0.0
4159,71.0,0.0,570.0,0.0,0.0
4160,62.0,0.0,570.0,0.0,0.0
4161,47.0,96.0,90.0,0.0,0.0
4162,50.0,96.0,90.0,0.0,0.0
4163,55.0,96.0,90.0,0.0,0.0
4164,50.0,96.0,90.0,0.0,0.0
4165,47.0,96.0,90.0,0.0,0.0
4166,43.0,0.0,90.0,0.0,0.0
4167,48.0,36.0,90.0,0.0,0.0
4168,67.0,28.0,60.0,0.0,0.0
4169,69.0,60.0,60.0,0.0,0.0
4170,52.0,4.0,90.0,0.0,0.0
4171,67.0,44.0,60.0,0.0,0.0
4172,66.0,48.0,30.0,0.0,0.0
4173,55.0,48.0,90.0,0.0,0.0
4174,67.0,0.0,30.0,0.0,0.0
4175,69.0,48.0,30.0,0.0,0.0
4176,52.0,42.0,90.0,0.0,0.0
4177,71.0,0.0,30.0,0.0,0.0
4178,72.0,36.0,30.0,0.0,0.0
4179,48.0,20.0,90.0,0.0,0.0
4180,74.0,18.0,30.0,0.0,0.0
4181,76.0,38.0,30.0,0.0,0.0
4182,43.0,96.0,90.0,0.0,0.0
4183,78.0,38.0,30.0,0.0,0.0
4184,79.0,0.0,30.0,0.0,0.0
4185,81.0,96.0,90.0,0.0,0.0
4186,48.0,0.0,90.0,0.0,0.0
4187,79.0,0.0,90.0,0.0,0.0
4188,52.0,96.0,90.0,0.0,0.0
4189,78.0,96.0,90.0,0.0,0.0
4190,55.0,0.0,90.0,0.0,0.0
4191,76.0,0.0,90.0,0.0,0.0
4192,52.0,96.0,90.0,0.0,0.0
4193,79.0,0.0,90.0,0.0,0.0
4194,48.0,96.0,90.0,0.0,0.0
4195,76.0,0.0,90.0,0.0,0.0
4196,43.0,96.0,90.0,0.0,0.0
4197,47.0,96.0,90.0,0.0,0.0
4198,74.0,0.0,570.0,0.0,0.0
4199,50.0,96.0,90.0,0.0,0.0
4200,55.0,96.0,90.0,0.0,0.0
4201,50.0,96.0,90.0,0.0,0.0
4202,47.0,96.0,90.0,0.0,0.0
4203,43.0,96.0,90.0,0.0,0.0
4204,71.0,0.0,390.0,0.0,0.0
4205,47.0,96.0,90.0,0.0,0.0
4206,62.0,0.0,390.0,0.0,0.0
4207,50.0,96.0,90.0,0.0,0.0
4208,55.0,96.0,90.0,0.0,0.0
4209,50.0,96.0,90.0,0.0,0.0
4210,74.0,0.0,180.0,0.0,0.0
4211,65.0,0.0,180.0,0.0,0.0
4212,47.0,96.0,90.0,0.0,0.0
4213,43.0,96.0,90.0,0.0,0.0
4214,64.0,0.0,390.0,0.0,0.0
4215,71.0,96.0,270.0,0.0,0.0
4216,47.0,96.0,90.0,0.0,0.0
4217,50.0,96.0,90.0,0.0,0.0
4218,55.0,0.0,90.0,0.0,0.0
4219,43.0,96.0,90.0,0.0,0.0
4220,74.0,0.0,90.0,0.0,0.0
4221,64.0,192.0,180.0,0.0,0.0
4222,73.0,96.0,90.0,0.0,0.0
4223,55.0,0.0,90.0,0.0,0.0
4224,71.0,0.0,90.0,0.0,0.0
4225,43.0,0.0,90.0,0.0,0.0
4226,67.0,0.0,570.0,0.0,0.0
4227,70.0,192.0,570.0,0.0,0.0
4228,42.0,192.0,180.0,0.0,0.0
4229,54.0,192.0,180.0,0.0,0.0
4230,54.0,0.0,180.0,0.0,0.0
4231,70.0,192.0,390.0,0.0,0.0
4232,54.0,192.0,180.0,0.0,0.0
4233,73.0,0.0,390.0,0.0,0.0
4234,66.0,0.0,180.0,0.0,0.0
4235,71.0,0.0,180.0,0.0,0.0
4236,74.0,96.0,180.0,0.0,0.0
4237,66.0,0.0,180.0,0.0,0.0
4238,76.0,96.0,90.0,0.0,0.0
4239,73.0,0.0,90.0,0.0,0.0
4240,79.0,96.0,90.0,0.0,0.0
4241,78.0,96.0,90.0,0.0,0.0
4242,76.0,96.0,90.0,0.0,0.0
4243,54.0,0.0,180.0,0.0,0.0
4244,74.0,96.0,90.0,0.0,0.0
4245,73.0,192.0,90.0,0.0,0.0
4246,47.0,192.0,180.0,0.0,0.0
4247,62.0,192.0,570.0,0.0,0.0
4248,71.0,0.0,570.0,0.0,0.0
4249,54.0,192.0,180.0,0.0,0.0
4250,54.0,0.0,180.0,0.0,0.0
4251,74.0,192.0,390.0,0.0,0.0
4252,71.0,0.0,390.0,0.0,0.0
4253,47.0,192.0,180.0,0.0,0.0
4254,54.0,0.0,180.0,0.0,0.0
4255,54.0,192.0,180.0,0.0,0.0
4256,73.0,0.0,180.0,0.0,0.0
4257,76.0,0.0,180.0,0.0,0.0
4258,78.0,0.0,390.0,0.0,0.0
4259,74.0,0.0,390.0,0.0,0.0
4260,47.0,192.0,180.0,0.0,0.0
4261,54.0,192.0,180.0,0.0,0.0
4262,74.0,0.0,180.0,0.0,0.0
4263,78.0,192.0,180.0,0.0,0.0
4264,54.0,0.0,180.0,0.0,0.0
4265,47.0,192.0,180.0,0.0,0.0
4266,78.0,0.0,390.0,0.0,0.0
4267,74.0,0.0,390.0,0.0,0.0
4268,54.0,192.0,180.0,0.0,0.0
4269,71.0,192.0,180.0,0.0,0.0
4270,74.0,0.0,180.0,0.0,0.0
4271,54.0,0.0,180.0,0.0,0.0
4272,62.0,0.0,390.0,0.0,0.0
4273,71.0,0.0,390.0,0.0,0.0
4274,47.0,192.0,180.0,0.0,0.0
4275,54.0,192.0,180.0,0.0,0.0
4276,71.0,0.0,180.0,0.0,0.0
4277,54.0,192.0,180.0,0.0,0.0
4278,74.0,0.0,180.0,0.0,0.0
4279,73.0,0.0,570.0,0.0,0.0
4280,70.0,192.0,570.0,0.0,0.0
4281,42.0,192.0,180.0,0.0,0.0
4282,54.0,192.0,180.0,0.0,0.0
4283,54.0,0.0,180.0,0.0,0.0
4284,71.0,0.0,570.0,0.0,0.0
4285,47.0,192.0,180.0,0.0,0.0
4286,62.0,0.0,570.0,0.0,0.0
4287,54.0,192.0,180.0,0.0,0.0
4288,54.0,192.0,180.0,0.0,0.0
4289,71.0,0.0,390.0,0.0,0.0
4290,74.0,0.0,390.0,0.0,0.0
4291,47.0,192.0,180.0,0.0,0.0
4292,54.0,192.0,180.0,0.0,0.0
4293,76.0,192.0,180.0,0.0,0.0
4294,73.0,0.0,180.0,0.0,0.0
4295,54.0,0.0,180.0,0.0,0.0
4296,47.0,192.0,180.0,0.0,0.0
4297,78.0,0.0,390.0,0.0,0.0
4298,74.0,0.0,390.0,0.0,0.0
4299,54.0,192.0,180.0,0.0,0.0
4300,74.0,0.0,180.0,0.0,0.0
4301,54.0,0.0,180.0,0.0,0.0
4302,78.0,192.0,180.0,0.0,0.0
4303,45.0,192.0,180.0,0.0,0.0
4304,74.0,0.0,390.0,0.0,0.0
4305,78.0,192.0,390.0,0.0,0.0
4306,57.0,0.0,180.0,0.0,0.0
4307,74.0,0.0,180.0,0.0,0.0
4308,57.0,0.0,180.0,0.0,0.0
4309,66.0,192.0,180.0,0.0,0.0
4310,67.0,192.0,180.0,0.0,0.0
4311,45.0,0.0,180.0,0.0,0.0
4312,76.0,0.0,180.0,0.0,0.0
4313,79.0,192.0,180.0,0.0,0.0
4314,71.0,0.0,180.0,0.0,0.0
4315,57.0,0.0,180.0,0.0,0.0
4316,73.0,192.0,180.0,0.0,0.0
4317,64.0,0.0,180.0,0.0,0.0
4318,57.0,0.0,180.0,0.0,0.0
4319,66.0,0.0,570.0,0.0,0.0
4320,74.0,192.0,570.0,0.0,0.0
4321,50.0,192.0,180.0,0.0,0.0
4322,57.0,192.0,180.0,0.0,0.0
4323,57.0,0.0,180.0,0.0,0.0
4324,78.0,192.0,390.0,0.0,0.0
4325,50.0,192.0,180.0,0.0,0.0
4326,74.0,0.0,390.0,0.0,0.0
4327,57.0,0.0,180.0,0.0,0.0
4328,74.0,0.0,180.0,0.0,0.0
4329,66.0,0.0,180.0,0.0,0.0
4330,57.0,192.0,180.0,0.0,0.0
4331,45.0,192.0,180.0,0.0,0.0
4332,73.0,192.0,390.0,0.0,0.0
4333,76.0,0.0,390.0,0.0,0.0
4334,57.0,0.0,180.0,0.0,0.0
4335,78.0,0.0,180.0,0.0,0.0
4336,75.0,0.0,180.0,0.0,0.0
4337,57.0,192.0,180.0,0.0,0.0
4338,76.0,0.0,390.0,0.0,0.0
4339,79.0,0.0,390.0,0.0,0.0
4340,40.0,192.0,180.0,0.0,0.0
4341,52.0,192.0,180.0,0.0,0.0
4342,79.0,0.0,180.0,0.0,0.0
4343,52.0,0.0,180.0,0.0,0.0
4344,76.0,192.0,180.0,0.0,0.0
4345,76.0,192.0,390.0,0.0,0.0
4346,79.0,0.0,390.0,0.0,0.0
4347,40.0,192.0,180.0,0.0,0.0
4348,52.0,0.0,180.0,0.0,0.0
4349,76.0,0.0,180.0,0.0,0.0
4350,73.0,192.0,180.0,0.0,0.0
4351,52.0,0.0,180.0,0.0,0.0
4352,42.0,192.0,180.0,0.0,0.0
4353,70.0,0.0,180.0,0.0,0.0
4354,73.0,0.0,180.0,0.0,0.0
4355,76.0,0.0,180.0,0.0,0.0
4356,73.0,0.0,180.0,0.0,0.0
4357,54.0,192.0,180.0,0.0,0.0
4358,42.0,192.0,180.0,0.0,0.0
4359,73.0,0.0,180.0,0.0,0.0
4360,70.0,0.0,180.0,0.0,0.0
4361,74.0,0.0,180.0,0.0,0.0
4362,71.0,0.0,180.0,0.0,0.0
4363,47.0,192.0,180.0,0.0,0.0
4364,74.0,0.0,180.0,0.0,0.0
4365,71.0,0.0,180.0,0.0,0.0
4366,59.0,0.0,180.0,0.0,0.0
4367,47.0,192.0,180.0,0.0,0.0
4368,73.0,0.0,180.0,0.0,0.0
4369,76.0,0.0,180.0,0.0,0.0
4370,57.0,192.0,180.0,0.0,0.0
4371,45.0,0.0,180.0,0.0,0.0
4372,50.0,192.0,180.0,0.0,0.0
4373,78.0,192.0,390.0,0.0,0.0
4374,74.0,0.0,390.0,0.0,0.0
4375,57.0,0.0,180.0,0.0,0.0
4376,66.0,0.0,180.0,0.0,0.0
4377,57.0,192.0,180.0,0.0,0.0
4378,74.0,0.0,180.0,0.0,0.0
4379,76.0,192.0,390.0,0.0,0.0
4380,73.0,0.0,390.0,0.0,0.0
4381,45.0,192.0,180.0,0.0,0.0
4382,57.0,0.0,180.0,0.0,0.0
4383,78.0,0.0,180.0,0.0,0.0
4384,75.0,192.0,180.0,0.0,0.0
4385,57.0,0.0,180.0,0.0,0.0
4386,79.0,192.0,390.0,0.0,0.0
4387,76.0,0.0,390.0,0.0,0.0
4388,40.0,192.0,180.0,0.0,0.0
4389,52.0,0.0,180.0,0.0,0.0
4390,76.0,192.0,180.0,0.0,0.0
4391,79.0,0.0,180.0,0.0,0.0
4392,52.0,0.0,180.0,0.0,0.0
4393,40.0,192.0,180.0,0.0,0.0
4394,79.0,0.0,390.0,0.0,0.0
4395,76.0,0.0,390.0,0.0,0.0
4396,52.0,192.0,180.0,0.0,0.0
4397,73.0,0.0,180.0,0.0,0.0
4398,76.0,0.0,180.0,0.0,0.0
4399,52.0,192.0,180.0,0.0,0.0
4400,70.0,0.0,180.0,0.0,0.0
4401,73.0,192.0,180.0,0.0,0.0
4402,42.0,0.0,180.0,0.0,0.0
4403,76.0,0.0,180.0,0.0,0.0
4404,54.0,0.0,180.0,0.0,0.0
4405,73.0,192.0,180.0,0.0,0.0
4406,54.0,96.0,180.0,0.0,0.0
4407,73.0,0.0,180.0,0.0,0.0
4408,70.0,0.0,180.0,0.0,0.0
4409,47.0,96.0,90.0,0.0,0.0
4410,71.0,0.0,570.0,0.0,0.0
4411,62.0,96.0,570.0,0.0,0.0
4412,50.0,96.0,90.0,0.0,0.0
4413,54.0,96.0,90.0,0.0,0.0
4414,47.0,96.0,90.0,0.0,0.0
4415,50.0,96.0,90.0,0.0,0.0
4416,54.0,0.0,90.0,0.0,0.0
4417,59.0,96.0,90.0,0.0,0.0
4418,83.0,96.0,570.0,0.0,0.0
4419,71.0,0.0,570.0,0.0,0.0
4420,62.0,96.0,90.0,0.0,0.0
4421,66.0,96.0,90.0,0.0,0.0
4422,62.0,96.0,90.0,0.0,0.0
4423,59.0,96.0,90.0,0.0,0.0
4424,54.0,0.0,90.0,0.0,0.0
4425,59.0,96.0,90.0,0.0,0.0
4426,74.0,96.0,390.0,0.0,0.0
4427,86.0,0.0,390.0,0.0,0.0
4428,62.0,96.0,90.0,0.0,0.0
4429,66.0,96.0,90.0,0.0,0.0
4430,62.0,0.0,90.0,0.0,0.0
4431,76.0,0.0,180.0,0.0,0.0
4432,59.0,96.0,90.0,0.0,0.0
4433,88.0,96.0,180.0,0.0,0.0
4434,54.0,0.0,90.0,0.0,0.0
4435,59.0,96.0,90.0,0.0,0.0
4436,78.0,0.0,390.0,0.0,0.0
4437,90.0,0.0,390.0,0.0,0.0
4438,62.0,96.0,90.0,0.0,0.0
4439,66.0,96.0,90.0,0.0,0.0
4440,62.0,96.0,90.0,0.0,0.0
4441,59.0,96.0,90.0,0.0,0.0
4442,90.0,96.0,180.0,0.0,0.0
4443,78.0,0.0,180.0,0.0,0.0
4444,54.0,0.0,90.0,0.0,0.0
4445,78.0,0.0,390.0,0.0,0.0
4446,90.0,0.0,390.0,0.0,0.0
4447,59.0,96.0,90.0,0.0,0.0
4448,62.0,96.0,90.0,0.0,0.0
4449,66.0,96.0,90.0,0.0,0.0
4450,62.0,96.0,90.0,0.0,0.0
4451,59.0,96.0,90.0,0.0,0.0
4452,74.0,0.0,180.0,0.0,0.0
4453,86.0,0.0,180.0,0.0,0.0
4454,54.0,96.0,90.0,0.0,0.0
4455,71.0,0.0,390.0,0.0,0.0
4456,59.0,96.0,90.0,0.0,0.0
4457,83.0,0.0,390.0,0.0,0.0
4458,62.0,96.0,90.0,0.0,0.0
4459,66.0,96.0,90.0,0.0,0.0
4460,62.0,96.0,90.0,0.0,0.0
4461,59.0,96.0,90.0,0.0,0.0
4462,74.0,0.0,180.0,0.0,0.0
4463,86.0,96.0,180.0,0.0,0.0
4464,54.0,0.0,90.0,0.0,0.0
4465,73.0,0.0,570.0,0.0,0.0
4466,58.0,96.0,90.0,0.0,0.0
4467,85.0,0.0,570.0,0.0,0.0
4468,61.0,96.0,90.0,0.0,0.0
4469,66.0,96.0,90.0,0.0,0.0
4470,61.0,96.0,90.0,0.0,0.0
4471,58.0,96.0,90.0,0.0,0.0
4472,54.0,96.0,90.0,0.0,0.0
4473,58.0,96.0,90.0,0.0,0.0
4474,76.0,0.0,390.0,0.0,0.0
4475,88.0,0.0,390.0,0.0,0.0
4476,61.0,96.0,90.0,0.0,0.0
4477,66.0,96.0,90.0,0.0,0.0
4478,61.0,96.0,90.0,0.0,0.0
4479,73.0,0.0,180.0,0.0,0.0
4480,58.0,96.0,90.0,0.0,0.0
4481,85.0,96.0,180.0,0.0,0.0
4482,54.0,0.0,90.0,0.0,0.0
4483,58.0,96.0,90.0,0.0,0.0
4484,82.0,0.0,390.0,0.0,0.0
4485,70.0,0.0,390.0,0.0,0.0
4486,61.0,96.0,90.0,0.0,0.0
4487,66.0,96.0,90.0,0.0,0.0
4488,61.0,96.0,90.0,0.0,0.0
4489,85.0,0.0,180.0,0.0,0.0
4490,73.0,0.0,180.0,0.0,0.0
4491,58.0,96.0,90.0,0.0,0.0
4492,54.0,96.0,90.0,0.0,0.0
4493,55.0,96.0,90.0,0.0,0.0
4494,71.0,128.0,570.0,0.0,0.0
4495,83.0,0.0,570.0,0.0,0.0
4496,59.0,96.0,90.0,0.0,0.0
4497,62.0,96.0,90.0,0.0,0.0
4498,59.0,96.0,90.0,0.0,0.0
4499,55.0,96.0,90.0,0.0,0.0
4500,54.0,0.0,90.0,0.0,0.0
4501,67.0,0.0,120.0,0.0,0.0
4502,52.0,0.0,120.0,0.0,0.0
4503,61.0,320.0,120.0,0.0,0.0
4504,76.0,0.0,120.0,0.0,0.0
4505,52.0,0.0,60.0,0.0,0.0
4506,64.0,0.0,60.0,0.0,0.0
4507,67.0,832.0,60.0,0.0,0.0
4508,73.0,0.0,60.0,0.0,0.0
4509,54.0,0.0,120.0,0.0,0.0
4510,61.0,320.0,120.0,0.0,0.0
4511,70.0,0.0,120.0,0.0,0.0
4512,64.0,0.0,120.0,0.0,0.0
4513,64.0,0.0,60.0,0.0,0.0
4514,54.0,0.0,60.0,0.0,0.0
4515,73.0,0.0,60.0,0.0,0.0
4516,70.0,512.0,60.0,0.0,0.0
4517,61.0,0.0,390.0,0.0,0.0
4518,54.0,0.0,390.0,0.0,0.0
4519,66.0,576.0,390.0,0.0,0.0
4520,70.0,0.0,390.0,0.0,0.0
4521,64.0,0.0,390.0,0.0,0.0
4522,59.0,4416.0,390.0,0.0,0.0
4523,66.0,0.0,390.0,0.0,0.0
4524,71.0,0.0,390.0,0.0,0.0
4525,62.0,0.0,390.0,0.0,0.0
4526,47.0,0.0,390.0,0.0,0.0
4527,63.0,0.0,390.0,0.0,0.0
4528,59.0,0.0,390.0,0.0,0.0
4529,75.0,96.0,180.0,0.0,0.0
4530,76.0,96.0,90.0,0.0,0.0
4531,75.0,192.0,90.0,0.0,0.0
4532,58.0,192.0,390.0,0.0,0.0
4533,61.0,0.0,390.0,0.0,0.0
4534,78.0,96.0,180.0,0.0,0.0
4535,80.0,96.0,90.0,0.0,0.0
4536,78.0,0.0,90.0,0.0,0.0
4537,71.0,96.0,180.0,0.0,0.0
4538,59.0,0.0,390.0,0.0,0.0
4539,56.0,0.0,390.0,0.0,0.0
4540,73.0,96.0,90.0,0.0,0.0
4541,71.0,384.0,90.0,0.0,0.0
4542,75.0,0.0,390.0,0.0,0.0
4543,58.0,0.0,390.0,0.0,0.0
4544,54.0,192.0,390.0,0.0,0.0
4545,68.0,96.0,180.0,0.0,0.0
4546,52.0,0.0,390.0,0.0,0.0
4547,56.0,0.0,390.0,0.0,0.0
4548,70.0,96.0,90.0,0.0,0.0
4549,68.0,192.0,90.0,0.0,0.0
4550,54.0,0.0,390.0,0.0,0.0
4551,51.0,192.0,390.0,0.0,0.0
4552,71.0,96.0,180.0,0.0,0.0
4553,73.0,96.0,90.0,0.0,0.0
4554,71.0,0.0,90.0,0.0,0.0
4555,73.0,96.0,180.0,0.0,0.0
4556,54.0,0.0,390.0,0.0,0.0
4557,58.0,384.0,390.0,0.0,0.0
4558,75.0,96.0,90.0,0.0,0.0
4559,73.0,0.0,90.0,0.0,0.0
4560,75.0,0.0,390.0,0.0,0.0
4561,47.0,192.0,390.0,0.0,0.0
4562,59.0,0.0,390.0,0.0,0.0
4563,63.0,0.0,390.0,0.0,0.0
4564,59.0,192.0,390.0,0.0,0.0
4565,75.0,96.0,180.0,0.0,0.0
4566,76.0,96.0,90.0,0.0,0.0
4567,75.0,0.0,90.0,0.0,0.0
4568,61.0,192.0,390.0,0.0,0.0
4569,58.0,0.0,390.0,0.0,0.0
4570,78.0,96.0,180.0,0.0,0.0
4571,80.0,96.0,90.0,0.0,0.0
4572,78.0,0.0,90.0,0.0,0.0
4573,65.0,0.0,390.0,0.0,0.0
4574,56.0,0.0,390.0,0.0,0.0
4575,83.0,96.0,180.0,0.0,0.0
4576,85.0,96.0,90.0,0.0,0.0
4577,83.0,384.0,90.0,0.0,0.0
4578,66.0,0.0,390.0,0.0,0.0
4579,54.0,0.0,390.0,0.0,0.0
4580,82.0,192.0,390.0,0.0,0.0
4581,63.0,0.0,390.0,0.0,0.0
4582,59.0,0.0,390.0,0.0,0.0
4583,80.0,96.0,180.0,0.0,0.0
4584,82.0,96.0,90.0,0.0,0.0
4585,80.0,48.0,90.0,0.0,0.0
4586,61.0,0.0,390.0,0.0,0.0
4587,68.0,0.0,390.0,0.0,0.0
4588,77.0,48.0,30.0,0.0,0.0
4589,78.0,48.0,30.0,0.0,0.0
4590,77.0,48.0,30.0,0.0,0.0
4591,78.0,96.0,30.0,0.0,0.0
4592,75.0,96.0,90.0,0.0,0.0
4593,77.0,192.0,90.0,0.0,0.0
4594,66.0,768.0,180.0,0.0,0.0
4595,54.0,0.0,180.0,0.0,0.0
4596,78.0,0.0,180.0,0.0,0.0
4597,63.0,0.0,390.0,0.0,0.0
4598,59.0,0.0,390.0,0.0,0.0
4599,75.0,96.0,180.0,0.0,0.0
4600,76.0,96.0,90.0,0.0,0.0
4601,75.0,192.0,90.0,0.0,0.0
4602,61.0,0.0,390.0,0.0,0.0
4603,78.0,96.0,180.0,0.0,0.0
4604,58.0,0.0,390.0,0.0,0.0
4605,80.0,96.0,90.0,0.0,0.0
4606,78.0,192.0,90.0,0.0,0.0
4607,71.0,96.0,180.0,0.0,0.0
4608,56.0,384.0,390.0,0.0,0.0
4609,59.0,0.0,390.0,0.0,0.0
4610,73.0,96.0,90.0,0.0,0.0
4611,71.0,0.0,90.0,0.0,0.0
4612,58.0,192.0,390.0,0.0,0.0
4613,75.0,0.0,390.0,0.0,0.0
4614,54.0,0.0,390.0,0.0,0.0
4615,56.0,0.0,390.0,0.0,0.0
4616,52.0,192.0,390.0,0.0,0.0
4617,68.0,96.0,180.0,0.0,0.0
4618,70.0,96.0,90.0,0.0,0.0
4619,68.0,0.0,90.0,0.0,0.0
4620,71.0,96.0,180.0,0.0,0.0
4621,54.0,192.0,390.0,0.0,0.0
4622,51.0,0.0,390.0,0.0,0.0
4623,73.0,96.0,90.0,0.0,0.0
4624,71.0,0.0,90.0,0.0,0.0
4625,54.0,0.0,390.0,0.0,0.0
4626,58.0,0.0,390.0,0.0,0.0
4627,73.0,96.0,180.0,0.0,0.0
4628,75.0,96.0,90.0,0.0,0.0
4629,73.0,384.0,90.0,0.0,0.0
4630,47.0,0.0,390.0,0.0,0.0
4631,59.0,0.0,390.0,0.0,0.0
4632,75.0,192.0,390.0,0.0,0.0
4633,63.0,192.0,390.0,0.0,0.0
4634,59.0,0.0,390.0,0.0,0.0
4635,75.0,96.0,180.0,0.0,0.0
4636,76.0,96.0,90.0,0.0,0.0
4637,75.0,0.0,90.0,0.0,0.0
4638,61.0,0.0,390.0,0.0,0.0
4639,58.0,0.0,390.0,0.0,0.0
4640,78.0,96.0,180.0,0.0,0.0
4641,80.0,96.0,90.0,0.0,0.0
4642,78.0,192.0,90.0,0.0,0.0
4643,83.0,96.0,180.0,0.0,0.0
4644,56.0,384.0,390.0,0.0,0.0
4645,65.0,0.0,390.0,0.0,0.0
4646,85.0,96.0,90.0,0.0,0.0
4647,83.0,0.0,90.0,0.0,0.0
4648,66.0,0.0,390.0,0.0,0.0
4649,54.0,0.0,390.0,0.0,0.0
4650,82.0,192.0,390.0,0.0,0.0
4651,59.0,48.0,390.0,0.0,0.0
4652,80.0,96.0,180.0,0.0,0.0
4653,63.0,0.0,390.0,0.0,0.0
4654,82.0,96.0,90.0,0.0,0.0
4655,80.0,0.0,90.0,0.0,0.0
4656,77.0,48.0,30.0,0.0,0.0
4657,68.0,0.0,390.0,0.0,0.0
4658,61.0,0.0,390.0,0.0,0.0
4659,78.0,48.0,30.0,0.0,0.0
4660,77.0,48.0,30.0,0.0,0.0
4661,78.0,96.0,30.0,0.0,0.0
4662,75.0,96.0,90.0,0.0,0.0
4663,77.0,192.0,90.0,0.0,0.0
4664,78.0,768.0,180.0,0.0,0.0
4665,54.0,0.0,180.0,0.0,0.0
4666,66.0,0.0,180.0,0.0,0.0
4667,78.0,0.0,180.0,0.0,0.0
4668,54.0,96.0,180.0,0.0,0.0
4669,56.0,96.0,90.0,0.0,0.0
4670,80.0,0.0,90.0,0.0,0.0
4671,54.0,0.0,90.0,0.0,0.0
4672,78.0,64.0,90.0,0.0,0.0
4673,75.0,0.0,60.0,0.0,0.0
4674,51.0,192.0,60.0,0.0,0.0
4675,77.0,512.0,60.0,0.0,0.0
4676,53.0,0.0,60.0,0.0,0.0
4677,54.0,384.0,390.0,0.0,0.0
4678,78.0,0.0,390.0,0.0,0.0
4679,42.0,0.0,390.0,0.0,0.0
4680,66.0,64.0,390.0,0.0,0.0
4681,46.0,0.0,30.0,0.0,0.0
4682,70.0,0.0,30.0,0.0,0.0
4683,44.0,0.0,60.0,0.0,0.0
4684,68.0,192.0,60.0,0.0,0.0
4685,42.0,0.0,60.0,0.0,0.0
4686,66.0,192.0,60.0,0.0,0.0
4687,68.0,192.0,60.0,0.0,0.0
4688,44.0,0.0,60.0,0.0,0.0
4689,70.0,0.0,60.0,0.0,0.0
4690,46.0,512.0,60.0,0.0,0.0
4691,71.0,384.0,390.0,0.0,0.0
4692,47.0,0.0,390.0,0.0,0.0
4693,59.0,0.0,390.0,0.0,0.0
4694,35.0,192.0,390.0,0.0,0.0
4695,54.0,0.0,390.0,0.0,0.0
4696,78.0,96.0,180.0,0.0,0.0
4697,80.0,96.0,90.0,0.0,0.0
4698,78.0,192.0,90.0,0.0,0.0
4699,71.0,0.0,390.0,0.0,0.0
4700,75.0,192.0,180.0,0.0,0.0
4701,56.0,0.0,390.0,0.0,0.0
4702,49.0,0.0,390.0,0.0,0.0
4703,77.0,384.0,180.0,0.0,0.0
4704,54.0,0.0,390.0,0.0,0.0
4705,70.0,0.0,390.0,0.0,0.0
4706,78.0,384.0,390.0,0.0,0.0
4707,54.0,192.0,390.0,0.0,0.0
4708,47.0,0.0,390.0,0.0,0.0
4709,69.0,0.0,390.0,0.0,0.0
4710,75.0,0.0,390.0,0.0,0.0
4711,68.0,0.0,390.0,0.0,0.0
4712,78.0,192.0,180.0,0.0,0.0
4713,40.0,64.0,390.0,0.0,0.0
4714,52.0,0.0,390.0,0.0,0.0
4715,76.0,0.0,180.0,0.0,0.0
4716,64.0,192.0,390.0,0.0,0.0
4717,73.0,192.0,60.0,0.0,0.0
4718,42.0,0.0,390.0,0.0,0.0
4719,54.0,0.0,390.0,0.0,0.0
4720,70.0,128.0,60.0,0.0,0.0
4721,47.0,0.0,180.0,0.0,0.0
4722,63.0,0.0,180.0,0.0,0.0
4723,71.0,192.0,180.0,0.0,0.0
4724,59.0,192.0,180.0,0.0,0.0
4725,58.0,192.0,180.0,0.0,0.0
4726,56.0,192.0,180.0,0.0,0.0
4727,54.0,0.0,180.0,0.0,0.0
4728,78.0,96.0,180.0,0.0,0.0
4729,56.0,0.0,90.0,0.0,0.0
4730,80.0,96.0,90.0,0.0,0.0
4731,54.0,64.0,90.0,0.0,0.0
4732,78.0,0.0,90.0,0.0,0.0
4733,51.0,192.0,60.0,0.0,0.0
4734,75.0,0.0,60.0,0.0,0.0
4735,77.0,0.0,60.0,0.0,0.0
4736,53.0,512.0,60.0,0.0,0.0
4737,54.0,0.0,390.0,0.0,0.0
4738,78.0,384.0,390.0,0.0,0.0
4739,66.0,0.0,390.0,0.0,0.0
4740,42.0,64.0,390.0,0.0,0.0
4741,46.0,0.0,30.0,0.0,0.0
4742,70.0,0.0,30.0,0.0,0.0
4743,68.0,192.0,60.0,0.0,0.0
4744,44.0,0.0,60.0,0.0,0.0
4745,66.0,0.0,60.0,0.0,0.0
4746,42.0,192.0,60.0,0.0,0.0
4747,44.0,192.0,60.0,0.0,0.0
4748,68.0,0.0,60.0,0.0,0.0
4749,46.0,0.0,60.0,0.0,0.0
4750,70.0,512.0,60.0,0.0,0.0
4751,47.0,0.0,390.0,0.0,0.0
4752,71.0,384.0,390.0,0.0,0.0
4753,59.0,192.0,390.0,0.0,0.0
4754,35.0,0.0,390.0,0.0,0.0
4755,54.0,0.0,390.0,0.0,0.0
4756,78.0,96.0,180.0,0.0,0.0
4757,80.0,96.0,90.0,0.0,0.0
4758,78.0,192.0,90.0,0.0,0.0
4759,56.0,384.0,390.0,0.0,0.0
4760,49.0,0.0,390.0,0.0,0.0
4761,75.0,192.0,180.0,0.0,0.0
4762,71.0,0.0,390.0,0.0,0.0
4763,77.0,0.0,180.0,0.0,0.0
4764,70.0,384.0,390.0,0.0,0.0
4765,54.0,0.0,390.0,0.0,0.0
4766,78.0,0.0,390.0,0.0,0.0
4767,47.0,0.0,390.0,0.0,0.0
4768,54.0,192.0,390.0,0.0,0.0
4769,69.0,0.0,390.0,0.0,0.0
4770,75.0,0.0,390.0,0.0,0.0
4771,52.0,0.0,390.0,0.0,0.0
4772,78.0,192.0,180.0,0.0,0.0
4773,68.0,64.0,390.0,0.0,0.0
4774,40.0,0.0,390.0,0.0,0.0
4775,76.0,0.0,180.0,0.0,0.0
4776,54.0,192.0,390.0,0.0,0.0
4777,42.0,0.0,390.0,0.0,0.0
4778,73.0,192.0,60.0,0.0,0.0
4779,64.0,0.0,390.0,0.0,0.0
4780,70.0,128.0,60.0,0.0,0.0
4781,63.0,0.0,180.0,0.0,0.0
4782,47.0,0.0,180.0,0.0,0.0
4783,71.0,384.0,180.0,0.0,0.0
4784,59.0,96.0,180.0,0.0,0.0
4785,61.0,96.0,90.0,0.0,0.0
4786,59.0,96.0,90.0,0.0,0.0
4787,59.0,0.0,90.0,0.0,0.0
4788,56.0,96.0,90.0,0.0,0.0
4789,63.0,0.0,90.0,0.0,0.0
4790,59.0,0.0,90.0,0.0,0.0
4791,56.0,0.0,90.0,0.0,0.0
4792,64.0,96.0,90.0,0.0,0.0
4793,63.0,0.0,90.0,0.0,0.0
4794,75.0,0.0,180.0,0.0,0.0
4795,59.0,96.0,90.0,0.0,0.0
4796,56.0,0.0,90.0,0.0,0.0
4797,63.0,96.0,90.0,0.0,0.0
4798,59.0,0.0,90.0,0.0,0.0
4799,76.0,0.0,90.0,0.0,0.0
4800,56.0,96.0,90.0,0.0,0.0
4801,63.0,96.0,90.0,0.0,0.0
4802,75.0,0.0,90.0,0.0,0.0
4803,68.0,96.0,180.0,0.0,0.0
4804,61.0,0.0,90.0,0.0,0.0
4805,56.0,96.0,90.0,0.0,0.0
4806,58.0,0.0,90.0,0.0,0.0
4807,63.0,0.0,90.0,0.0,0.0
4808,61.0,0.0,90.0,0.0,0.0
4809,56.0,0.0,90.0,0.0,0.0
4810,58.0,0.0,90.0,0.0,0.0
4811,70.0,96.0,90.0,0.0,0.0
4812,63.0,0.0,90.0,0.0,0.0
4813,68.0,96.0,90.0,0.0,0.0
4814,61.0,0.0,90.0,0.0,0.0
4815,58.0,96.0,90.0,0.0,0.0
4816,83.0,96.0,390.0,0.0,0.0
4817,56.0,0.0,90.0,0.0,0.0
4818,63.0,96.0,90.0,0.0,0.0
4819,56.0,96.0,90.0,0.0,0.0
4820,61.0,0.0,90.0,0.0,0.0
4821,58.0,0.0,90.0,0.0,0.0
4822,63.0,0.0,90.0,0.0,0.0
4823,56.0,96.0,90.0,0.0,0.0
4824,59.0,0.0,90.0,0.0,0.0
4825,82.0,0.0,180.0,0.0,0.0
4826,63.0,96.0,90.0,0.0,0.0
4827,59.0,96.0,90.0,0.0,0.0
4828,56.0,0.0,90.0,0.0,0.0
4829,85.0,0.0,180.0,0.0,0.0
4830,63.0,96.0,90.0,0.0,0.0
4831,56.0,0.0,90.0,0.0,0.0
4832,59.0,96.0,90.0,0.0,0.0
4833,82.0,0.0,180.0,0.0,0.0
4834,63.0,96.0,90.0,0.0,0.0
4835,56.0,0.0,90.0,0.0,0.0
4836,79.0,96.0,180.0,0.0,0.0
4837,59.0,96.0,90.0,0.0,0.0
4838,63.0,0.0,90.0,0.0,0.0
4839,64.0,0.0,90.0,0.0,0.0
4840,80.0,0.0,390.0,0.0,0.0
4841,76.0,96.0,90.0,0.0,0.0
4842,75.0,0.0,90.0,0.0,0.0
4843,63.0,96.0,90.0,0.0,0.0
4844,61.0,0.0,90.0,0.0,0.0
4845,73.0,96.0,90.0,0.0,0.0
4846,59.0,0.0,90.0,0.0,0.0
4847,71.0,96.0,90.0,0.0,0.0
4848,75.0,96.0,180.0,0.0,0.0
4849,70.0,0.0,90.0,0.0,0.0
4850,58.0,96.0,90.0,0.0,0.0
4851,59.0,0.0,90.0,0.0,0.0
4852,71.0,0.0,90.0,0.0,0.0
4853,70.0,0.0,90.0,0.0,0.0
4854,58.0,96.0,90.0,0.0,0.0
4855,75.0,96.0,180.0,0.0,0.0
4856,68.0,0.0,90.0,0.0,0.0
4857,56.0,0.0,90.0,0.0,0.0
4858,67.0,0.0,90.0,0.0,0.0
4859,55.0,96.0,90.0,0.0,0.0
4860,56.0,96.0,90.0,0.0,0.0
4861,68.0,0.0,90.0,0.0,0.0
4862,70.0,0.0,90.0,0.0,0.0
4863,58.0,96.0,90.0,0.0,0.0
4864,66.0,64.0,90.0,0.0,0.0
4865,54.0,0.0,90.0,0.0,0.0
4866,63.0,192.0,60.0,0.0,0.0
4867,51.0,0.0,60.0,0.0,0.0
4868,70.0,0.0,60.0,0.0,0.0
4869,51.0,0.0,60.0,0.0,0.0
4870,66.0,192.0,60.0,0.0,0.0
4871,63.0,0.0,60.0,0.0,0.0
4872,51.0,192.0,60.0,0.0,0.0
4873,71.0,0.0,60.0,0.0,0.0
4874,68.0,0.0,60.0,0.0,0.0
4875,63.0,0.0,60.0,0.0,0.0
4876,51.0,0.0,60.0,0.0,0.0
4877,71.0,0.0,60.0,0.0,0.0
4878,63.0,0.0,60.0,0.0,0.0
4879,68.0,192.0,60.0,0.0,0.0
4880,63.0,0.0,60.0,0.0,0.0
4881,51.0,192.0,60.0,0.0,0.0
4882,71.0,0.0,60.0,0.0,0.0
4883,68.0,0.0,60.0,0.0,0.0
4884,63.0,320.0,60.0,0.0,0.0
4885,51.0,0.0,60.0,0.0,0.0
4886,68.0,0.0,60.0,0.0,0.0
4887,71.0,0.0,60.0,0.0,0.0
4888,67.0,0.0,180.0,0.0,0.0
4889,70.0,384.0,180.0,0.0,0.0
4890,63.0,0.0,180.0,0.0,0.0
4891,51.0,0.0,180.0,0.0,0.0
4892,63.0,96.0,180.0,0.0,0.0
4893,64.0,96.0,90.0,0.0,0.0
4894,63.0,192.0,90.0,0.0,0.0
4895,75.0,96.0,180.0,0.0,0.0
4896,76.0,96.0,90.0,0.0,0.0
4897,75.0,384.0,90.0,0.0,0.0
4898,87.0,576.0,390.0,0.0,0.0
4899,61.0,96.0,180.0,0.0,0.0
4900,63.0,96.0,90.0,0.0,0.0
4901,61.0,192.0,90.0,0.0,0.0
4902,76.0,96.0,180.0,0.0,0.0
4903,78.0,96.0,90.0,0.0,0.0
4904,76.0,384.0,90.0,0.0,0.0
4905,88.0,576.0,390.0,0.0,0.0
4906,58.0,96.0,180.0,0.0,0.0
4907,59.0,96.0,90.0,0.0,0.0
4908,58.0,192.0,90.0,0.0,0.0
4909,76.0,96.0,180.0,0.0,0.0
4910,78.0,96.0,90.0,0.0,0.0
4911,76.0,192.0,90.0,0.0,0.0
4912,85.0,96.0,180.0,0.0,0.0
4913,87.0,96.0,90.0,0.0,0.0
4914,85.0,192.0,90.0,0.0,0.0
4915,76.0,96.0,180.0,0.0,0.0
4916,78.0,96.0,90.0,0.0,0.0
4917,76.0,192.0,90.0,0.0,0.0
4918,85.0,96.0,180.0,0.0,0.0
4919,87.0,96.0,90.0,0.0,0.0
4920,85.0,192.0,90.0,0.0,0.0
4921,76.0,96.0,180.0,0.0,0.0
4922,78.0,96.0,90.0,0.0,0.0
4923,76.0,192.0,90.0,0.0,0.0
4924,82.0,96.0,180.0,0.0,0.0
4925,83.0,96.0,90.0,0.0,0.0
4926,82.0,192.0,90.0,0.0,0.0
4927,76.0,96.0,180.0,0.0,0.0
4928,78.0,96.0,90.0,0.0,0.0
4929,76.0,192.0,90.0,0.0,0.0
4930,78.0,96.0,180.0,0.0,0.0
4931,80.0,96.0,90.0,0.0,0.0
4932,78.0,192.0,90.0,0.0,0.0
4933,77.0,96.0,180.0,0.0,0.0
4934,78.0,96.0,90.0,0.0,0.0
4935,77.0,192.0,90.0,0.0,0.0
4936,78.0,96.0,180.0,0.0,0.0
4937,80.0,96.0,90.0,0.0,0.0
4938,78.0,192.0,90.0,0.0,0.0
4939,76.0,96.0,180.0,0.0,0.0
4940,78.0,96.0,90.0,0.0,0.0
4941,76.0,192.0,90.0,0.0,0.0
4942,78.0,96.0,180.0,0.0,0.0
4943,80.0,96.0,90.0,0.0,0.0
4944,78.0,128.0,90.0,0.0,0.0
4945,75.0,64.0,180.0,0.0,0.0
4946,59.0,64.0,120.0,0.0,0.0
4947,63.0,32.0,120.0,0.0,0.0
4948,76.0,96.0,90.0,0.0,0.0
4949,66.0,128.0,120.0,0.0,0.0
4950,75.0,0.0,90.0,0.0,0.0
4951,78.0,64.0,180.0,0.0,0.0
4952,58.0,64.0,120.0,0.0,0.0
4953,61.0,32.0,120.0,0.0,0.0
4954,80.0,96.0,90.0,0.0,0.0
4955,66.0,0.0,120.0,0.0,0.0
4956,78.0,128.0,90.0,0.0,0.0
4957,71.0,64.0,180.0,0.0,0.0
4958,56.0,64.0,120.0,0.0,0.0
4959,59.0,32.0,120.0,0.0,0.0
4960,73.0,96.0,90.0,0.0,0.0
4961,63.0,0.0,120.0,0.0,0.0
4962,71.0,128.0,90.0,0.0,0.0
4963,54.0,128.0,120.0,0.0,0.0
4964,75.0,0.0,390.0,0.0,0.0
4965,58.0,128.0,120.0,0.0,0.0
4966,63.0,128.0,120.0,0.0,0.0
4967,52.0,64.0,120.0,0.0,0.0
4968,68.0,64.0,180.0,0.0,0.0
4969,56.0,32.0,120.0,0.0,0.0
4970,70.0,96.0,90.0,0.0,0.0
4971,59.0,128.0,120.0,0.0,0.0
4972,68.0,0.0,90.0,0.0,0.0
4973,51.0,64.0,120.0,0.0,0.0
4974,71.0,64.0,180.0,0.0,0.0
4975,54.0,32.0,120.0,0.0,0.0
4976,73.0,96.0,90.0,0.0,0.0
4977,59.0,128.0,120.0,0.0,0.0
4978,71.0,0.0,90.0,0.0,0.0
4979,73.0,64.0,180.0,0.0,0.0
4980,49.0,64.0,120.0,0.0,0.0
4981,54.0,32.0,120.0,0.0,0.0
4982,75.0,96.0,90.0,0.0,0.0
4983,58.0,0.0,120.0,0.0,0.0
4984,73.0,128.0,90.0,0.0,0.0
4985,47.0,128.0,120.0,0.0,0.0
4986,75.0,128.0,390.0,0.0,0.0
4987,54.0,128.0,120.0,0.0,0.0
4988,59.0,0.0,120.0,0.0,0.0
4989,59.0,64.0,120.0,0.0,0.0
4990,75.0,64.0,180.0,0.0,0.0
4991,63.0,32.0,120.0,0.0,0.0
4992,76.0,96.0,90.0,0.0,0.0
4993,66.0,128.0,120.0,0.0,0.0
4994,75.0,0.0,90.0,0.0,0.0
4995,78.0,64.0,180.0,0.0,0.0
4996,58.0,64.0,120.0,0.0,0.0
4997,61.0,32.0,120.0,0.0,0.0
4998,80.0,96.0,90.0,0.0,0.0
4999,66.0,128.0,120.0,0.0,0.0
5000,78.0,0.0,90.0,0.0,0.0
5001,56.0,64.0,120.0,0.0,0.0
5002,83.0,64.0,180.0,0.0,0.0
5003,61.0,32.0,120.0,0.0,0.0
5004,85.0,96.0,90.0,0.0,0.0
5005,65.0,0.0,120.0,0.0,0.0
5006,83.0,128.0,90.0,0.0,0.0
5007,54.0,128.0,120.0,0.0,0.0
5008,82.0,0.0,390.0,0.0,0.0
5009,61.0,128.0,120.0,0.0,0.0
5010,66.0,128.0,120.0,0.0,0.0
5011,59.0,64.0,120.0,0.0,0.0
5012,80.0,64.0,180.0,0.0,0.0
5013,63.0,32.0,120.0,0.0,0.0
5014,82.0,96.0,90.0,0.0,0.0
5015,68.0,0.0,120.0,0.0,0.0
5016,80.0,48.0,90.0,0.0,0.0
5017,77.0,48.0,30.0,0.0,0.0
5018,61.0,16.0,120.0,0.0,0.0
5019,78.0,32.0,30.0,0.0,0.0
5020,77.0,48.0,30.0,0.0,0.0
5021,68.0,32.0,120.0,0.0,0.0
5022,78.0,64.0,30.0,0.0,0.0
5023,75.0,96.0,90.0,0.0,0.0
5024,71.0,0.0,120.0,0.0,0.0
5025,77.0,128.0,90.0,0.0,0.0
5026,78.0,64.0,180.0,0.0,0.0
5027,66.0,64.0,120.0,0.0,0.0
5028,73.0,128.0,120.0,0.0,0.0
5029,70.0,128.0,120.0,0.0,0.0
5030,66.0,128.0,120.0,0.0,0.0
5031,61.0,128.0,120.0,0.0,0.0
5032,58.0,192.0,120.0,0.0,0.0
5033,54.0,0.0,180.0,0.0,0.0
5034,78.0,96.0,180.0,0.0,0.0
5035,80.0,0.0,90.0,0.0,0.0
5036,56.0,96.0,90.0,0.0,0.0
5037,78.0,64.0,90.0,0.0,0.0
5038,54.0,0.0,90.0,0.0,0.0
5039,51.0,0.0,60.0,0.0,0.0
5040,75.0,192.0,60.0,0.0,0.0
5041,53.0,0.0,60.0,0.0,0.0
5042,77.0,512.0,60.0,0.0,0.0
5043,78.0,0.0,390.0,0.0,0.0
5044,54.0,384.0,390.0,0.0,0.0
5045,42.0,0.0,390.0,0.0,0.0
5046,66.0,0.0,390.0,0.0,0.0
5047,46.0,0.0,30.0,0.0,0.0
5048,70.0,64.0,30.0,0.0,0.0
5049,68.0,0.0,60.0,0.0,0.0
5050,44.0,192.0,60.0,0.0,0.0
5051,66.0,192.0,60.0,0.0,0.0
5052,42.0,0.0,60.0,0.0,0.0
5053,44.0,0.0,60.0,0.0,0.0
5054,68.0,192.0,60.0,0.0,0.0
5055,70.0,512.0,60.0,0.0,0.0
5056,46.0,0.0,60.0,0.0,0.0
5057,47.0,384.0,390.0,0.0,0.0
5058,71.0,0.0,390.0,0.0,0.0
5059,59.0,0.0,390.0,0.0,0.0
5060,35.0,128.0,390.0,0.0,0.0
5061,78.0,64.0,180.0,0.0,0.0
5062,54.0,64.0,120.0,0.0,0.0
5063,58.0,32.0,120.0,0.0,0.0
5064,80.0,96.0,90.0,0.0,0.0
5065,61.0,64.0,120.0,0.0,0.0
5066,78.0,0.0,90.0,0.0,0.0
5067,75.0,64.0,60.0,0.0,0.0
5068,56.0,128.0,120.0,0.0,0.0
5069,59.0,0.0,120.0,0.0,0.0
5070,77.0,128.0,60.0,0.0,0.0
5071,61.0,128.0,120.0,0.0,0.0
5072,54.0,128.0,120.0,0.0,0.0
5073,78.0,0.0,390.0,0.0,0.0
5074,58.0,128.0,120.0,0.0,0.0
5075,61.0,128.0,120.0,0.0,0.0
5076,75.0,128.0,390.0,0.0,0.0
5077,47.0,128.0,120.0,0.0,0.0
5078,57.0,128.0,120.0,0.0,0.0
5079,59.0,0.0,120.0,0.0,0.0
5080,78.0,64.0,180.0,0.0,0.0
5081,52.0,64.0,120.0,0.0,0.0
5082,56.0,128.0,120.0,0.0,0.0
5083,76.0,0.0,180.0,0.0,0.0
5084,59.0,64.0,120.0,0.0,0.0
5085,73.0,64.0,60.0,0.0,0.0
5086,54.0,128.0,120.0,0.0,0.0
5087,58.0,0.0,120.0,0.0,0.0
5088,70.0,128.0,60.0,0.0,0.0
5089,61.0,128.0,120.0,0.0,0.0
5090,71.0,0.0,390.0,0.0,0.0
5091,47.0,128.0,120.0,0.0,0.0
5092,54.0,128.0,120.0,0.0,0.0
5093,59.0,192.0,120.0,0.0,0.0
5094,59.0,0.0,90.0,0.0,0.0
5095,47.0,96.0,90.0,0.0,0.0
5096,61.0,0.0,90.0,0.0,0.0
5097,49.0,96.0,90.0,0.0,0.0
5098,51.0,0.0,90.0,0.0,0.0
5099,63.0,96.0,90.0,0.0,0.0
5100,52.0,0.0,90.0,0.0,0.0
5101,64.0,96.0,90.0,0.0,0.0
5102,59.0,0.0,90.0,0.0,0.0
5103,47.0,96.0,90.0,0.0,0.0
5104,49.0,0.0,90.0,0.0,0.0
5105,61.0,96.0,90.0,0.0,0.0
5106,63.0,96.0,90.0,0.0,0.0
5107,51.0,0.0,90.0,0.0,0.0
5108,52.0,0.0,90.0,0.0,0.0
5109,64.0,96.0,90.0,0.0,0.0
5110,54.0,0.0,90.0,0.0,0.0
5111,66.0,96.0,90.0,0.0,0.0
5112,56.0,96.0,90.0,0.0,0.0
5113,68.0,0.0,90.0,0.0,0.0
5114,69.0,0.0,90.0,0.0,0.0
5115,57.0,64.0,90.0,0.0,0.0
5116,52.0,64.0,180.0,0.0,0.0
5117,59.0,0.0,180.0,0.0,0.0
5118,56.0,0.0,180.0,0.0,0.0
5119,71.0,128.0,60.0,0.0,0.0
5120,68.0,128.0,60.0,0.0,0.0
5121,59.0,0.0,180.0,0.0,0.0
5122,56.0,0.0,180.0,0.0,0.0
5123,52.0,64.0,180.0,0.0,0.0
5124,59.0,0.0,180.0,0.0,0.0
5125,76.0,128.0,60.0,0.0,0.0
5126,52.0,0.0,180.0,0.0,0.0
5127,56.0,64.0,180.0,0.0,0.0
5128,59.0,64.0,180.0,0.0,0.0
5129,56.0,0.0,180.0,0.0,0.0
5130,52.0,0.0,180.0,0.0,0.0
5131,71.0,128.0,60.0,0.0,0.0
5132,52.0,0.0,180.0,0.0,0.0
5133,59.0,0.0,180.0,0.0,0.0
5134,80.0,128.0,60.0,0.0,0.0
5135,64.0,64.0,180.0,0.0,0.0
5136,56.0,0.0,180.0,0.0,0.0
5137,64.0,0.0,180.0,0.0,0.0
5138,52.0,0.0,180.0,0.0,0.0
5139,56.0,0.0,180.0,0.0,0.0
5140,76.0,128.0,60.0,0.0,0.0
5141,59.0,64.0,180.0,0.0,0.0
5142,52.0,0.0,180.0,0.0,0.0
5143,64.0,0.0,180.0,0.0,0.0
5144,59.0,64.0,180.0,0.0,0.0
5145,56.0,0.0,180.0,0.0,0.0
5146,83.0,128.0,60.0,0.0,0.0
5147,56.0,0.0,180.0,0.0,0.0
5148,52.0,0.0,180.0,0.0,0.0
5149,59.0,0.0,180.0,0.0,0.0
5150,64.0,480.0,180.0,0.0,0.0
5151,80.0,128.0,60.0,0.0,0.0
5152,57.0,0.0,480.0,0.0,0.0
5153,85.0,0.0,480.0,0.0,0.0
5154,73.0,0.0,480.0,0.0,0.0
5155,61.0,0.0,480.0,0.0,0.0
5156,64.0,96.0,480.0,0.0,0.0
5157,64.0,0.0,90.0,0.0,0.0
5158,52.0,96.0,90.0,0.0,0.0
5159,66.0,0.0,90.0,0.0,0.0
5160,54.0,96.0,90.0,0.0,0.0
5161,68.0,0.0,90.0,0.0,0.0
5162,56.0,96.0,90.0,0.0,0.0
5163,57.0,0.0,90.0,0.0,0.0
5164,69.0,96.0,90.0,0.0,0.0
5165,52.0,0.0,90.0,0.0,0.0
5166,64.0,96.0,90.0,0.0,0.0
5167,66.0,0.0,90.0,0.0,0.0
5168,54.0,96.0,90.0,0.0,0.0
5169,68.0,0.0,90.0,0.0,0.0
5170,56.0,96.0,90.0,0.0,0.0
5171,57.0,0.0,90.0,0.0,0.0
5172,69.0,96.0,90.0,0.0,0.0
5173,59.0,0.0,90.0,0.0,0.0
5174,71.0,96.0,90.0,0.0,0.0
5175,73.0,96.0,90.0,0.0,0.0
5176,61.0,0.0,90.0,0.0,0.0
5177,74.0,0.0,90.0,0.0,0.0
5178,62.0,64.0,90.0,0.0,0.0
5179,64.0,0.0,180.0,0.0,0.0
5180,57.0,0.0,180.0,0.0,0.0
5181,76.0,128.0,60.0,0.0,0.0
5182,61.0,64.0,180.0,0.0,0.0
5183,73.0,128.0,60.0,0.0,0.0
5184,64.0,0.0,180.0,0.0,0.0
5185,69.0,0.0,180.0,0.0,0.0
5186,61.0,0.0,180.0,0.0,0.0
5187,57.0,64.0,180.0,0.0,0.0
5188,81.0,128.0,60.0,0.0,0.0
5189,57.0,0.0,180.0,0.0,0.0
5190,69.0,64.0,180.0,0.0,0.0
5191,61.0,0.0,180.0,0.0,0.0
5192,64.0,0.0,180.0,0.0,0.0
5193,61.0,0.0,180.0,0.0,0.0
5194,64.0,0.0,180.0,0.0,0.0
5195,69.0,0.0,180.0,0.0,0.0
5196,57.0,64.0,180.0,0.0,0.0
5197,76.0,128.0,60.0,0.0,0.0
5198,61.0,0.0,180.0,0.0,0.0
5199,64.0,0.0,180.0,0.0,0.0
5200,69.0,0.0,180.0,0.0,0.0
5201,57.0,64.0,180.0,0.0,0.0
5202,85.0,128.0,60.0,0.0,0.0
5203,64.0,64.0,180.0,0.0,0.0
5204,69.0,0.0,180.0,0.0,0.0
5205,61.0,0.0,180.0,0.0,0.0
5206,57.0,0.0,180.0,0.0,0.0
5207,81.0,128.0,60.0,0.0,0.0
5208,63.0,0.0,180.0,0.0,0.0
5209,59.0,64.0,180.0,0.0,0.0
5210,93.0,128.0,60.0,0.0,0.0
5211,66.0,0.0,180.0,0.0,0.0
5212,87.0,128.0,60.0,0.0,0.0
5213,59.0,480.0,180.0,0.0,0.0
5214,63.0,0.0,180.0,0.0,0.0
5215,66.0,0.0,180.0,0.0,0.0
5216,64.0,96.0,480.0,0.0,0.0
5217,52.0,0.0,480.0,0.0,0.0
5218,88.0,0.0,480.0,0.0,0.0
5219,76.0,0.0,480.0,0.0,0.0
5220,59.0,0.0,90.0,0.0,0.0
5221,47.0,96.0,90.0,0.0,0.0
5222,61.0,0.0,90.0,0.0,0.0
5223,49.0,96.0,90.0,0.0,0.0
5224,51.0,96.0,90.0,0.0,0.0
5225,63.0,0.0,90.0,0.0,0.0
5226,52.0,0.0,90.0,0.0,0.0
5227,64.0,96.0,90.0,0.0,0.0
5228,47.0,96.0,90.0,0.0,0.0
5229,59.0,0.0,90.0,0.0,0.0
5230,61.0,0.0,90.0,0.0,0.0
5231,49.0,96.0,90.0,0.0,0.0
5232,63.0,0.0,90.0,0.0,0.0
5233,51.0,96.0,90.0,0.0,0.0
5234,64.0,96.0,90.0,0.0,0.0
5235,52.0,0.0,90.0,0.0,0.0
5236,66.0,0.0,90.0,0.0,0.0
5237,54.0,96.0,90.0,0.0,0.0
5238,56.0,0.0,90.0,0.0,0.0
5239,68.0,96.0,90.0,0.0,0.0
5240,69.0,0.0,90.0,0.0,0.0
5241,57.0,96.0,90.0,0.0,0.0
5242,59.0,96.0,180.0,0.0,0.0
5243,52.0,0.0,180.0,0.0,0.0
5244,56.0,0.0,180.0,0.0,0.0
5245,71.0,96.0,90.0,0.0,0.0
5246,68.0,0.0,90.0,0.0,0.0
5247,64.0,96.0,90.0,0.0,0.0
5248,59.0,0.0,180.0,0.0,0.0
5249,56.0,0.0,180.0,0.0,0.0
5250,52.0,96.0,180.0,0.0,0.0
5251,71.0,0.0,90.0,0.0,0.0
5252,76.0,96.0,90.0,0.0,0.0
5253,59.0,0.0,180.0,0.0,0.0
5254,56.0,0.0,180.0,0.0,0.0
5255,52.0,96.0,180.0,0.0,0.0
5256,71.0,0.0,90.0,0.0,0.0
5257,56.0,0.0,180.0,0.0,0.0
5258,52.0,0.0,180.0,0.0,0.0
5259,59.0,0.0,180.0,0.0,0.0
5260,68.0,96.0,90.0,0.0,0.0
5261,76.0,96.0,90.0,0.0,0.0
5262,56.0,0.0,180.0,0.0,0.0
5263,64.0,0.0,180.0,0.0,0.0
5264,52.0,0.0,180.0,0.0,0.0
5265,59.0,0.0,180.0,0.0,0.0
5266,80.0,96.0,90.0,0.0,0.0
5267,76.0,96.0,90.0,0.0,0.0
5268,56.0,0.0,180.0,0.0,0.0
5269,71.0,96.0,90.0,0.0,0.0
5270,52.0,0.0,180.0,0.0,0.0
5271,59.0,0.0,180.0,0.0,0.0
5272,64.0,0.0,180.0,0.0,0.0
5273,80.0,96.0,90.0,0.0,0.0
5274,64.0,0.0,180.0,0.0,0.0
5275,83.0,96.0,90.0,0.0,0.0
5276,59.0,96.0,180.0,0.0,0.0
5277,56.0,0.0,180.0,0.0,0.0
5278,52.0,0.0,180.0,0.0,0.0
5279,80.0,0.0,90.0,0.0,0.0
5280,64.0,0.0,180.0,0.0,0.0
5281,59.0,0.0,180.0,0.0,0.0
5282,52.0,0.0,180.0,0.0,0.0
5283,56.0,0.0,180.0,0.0,0.0
5284,76.0,96.0,90.0,0.0,0.0
5285,83.0,480.0,90.0,0.0,0.0
5286,73.0,0.0,480.0,0.0,0.0
5287,64.0,0.0,480.0,0.0,0.0
5288,61.0,0.0,480.0,0.0,0.0
5289,85.0,96.0,480.0,0.0,0.0
5290,81.0,0.0,480.0,0.0,0.0
5291,76.0,0.0,480.0,0.0,0.0
5292,57.0,0.0,480.0,0.0,0.0
5293,64.0,0.0,90.0,0.0,0.0
5294,52.0,96.0,90.0,0.0,0.0
5295,54.0,0.0,90.0,0.0,0.0
5296,66.0,96.0,90.0,0.0,0.0
5297,56.0,0.0,90.0,0.0,0.0
5298,68.0,96.0,90.0,0.0,0.0
5299,69.0,96.0,90.0,0.0,0.0
5300,57.0,0.0,90.0,0.0,0.0
5301,64.0,96.0,90.0,0.0,0.0
5302,52.0,0.0,90.0,0.0,0.0
5303,66.0,0.0,90.0,0.0,0.0
5304,54.0,96.0,90.0,0.0,0.0
5305,56.0,0.0,90.0,0.0,0.0
5306,68.0,96.0,90.0,0.0,0.0
5307,69.0,0.0,90.0,0.0,0.0
5308,57.0,96.0,90.0,0.0,0.0
5309,71.0,0.0,90.0,0.0,0.0
5310,59.0,96.0,90.0,0.0,0.0
5311,73.0,0.0,90.0,0.0,0.0
5312,61.0,96.0,90.0,0.0,0.0
5313,74.0,0.0,90.0,0.0,0.0
5314,62.0,96.0,90.0,0.0,0.0
5315,64.0,0.0,180.0,0.0,0.0
5316,76.0,96.0,90.0,0.0,0.0
5317,61.0,0.0,180.0,0.0,0.0
5318,57.0,0.0,180.0,0.0,0.0
5319,73.0,96.0,90.0,0.0,0.0
5320,69.0,96.0,90.0,0.0,0.0
5321,57.0,0.0,180.0,0.0,0.0
5322,64.0,96.0,180.0,0.0,0.0
5323,61.0,0.0,180.0,0.0,0.0
5324,76.0,0.0,90.0,0.0,0.0
5325,61.0,0.0,180.0,0.0,0.0
5326,81.0,96.0,90.0,0.0,0.0
5327,64.0,0.0,180.0,0.0,0.0
5328,57.0,0.0,180.0,0.0,0.0
5329,76.0,96.0,90.0,0.0,0.0
5330,57.0,0.0,180.0,0.0,0.0
5331,73.0,96.0,90.0,0.0,0.0
5332,61.0,0.0,180.0,0.0,0.0
5333,64.0,0.0,180.0,0.0,0.0
5334,81.0,96.0,90.0,0.0,0.0
5335,64.0,0.0,180.0,0.0,0.0
5336,85.0,96.0,90.0,0.0,0.0
5337,61.0,0.0,180.0,0.0,0.0
5338,69.0,0.0,180.0,0.0,0.0
5339,57.0,0.0,180.0,0.0,0.0
5340,81.0,96.0,90.0,0.0,0.0
5341,76.0,96.0,90.0,0.0,0.0
5342,69.0,0.0,180.0,0.0,0.0
5343,61.0,96.0,180.0,0.0,0.0
5344,64.0,0.0,180.0,0.0,0.0
5345,57.0,0.0,180.0,0.0,0.0
5346,85.0,0.0,90.0,0.0,0.0
5347,81.0,96.0,90.0,0.0,0.0
5348,63.0,0.0,180.0,0.0,0.0
5349,66.0,0.0,180.0,0.0,0.0
5350,59.0,0.0,180.0,0.0,0.0
5351,93.0,96.0,90.0,0.0,0.0
5352,90.0,96.0,90.0,0.0,0.0
5353,66.0,0.0,180.0,0.0,0.0
5354,63.0,0.0,180.0,0.0,0.0
5355,59.0,0.0,180.0,0.0,0.0
5356,87.0,192.0,90.0,0.0,0.0
5357,88.0,704.0,180.0,0.0,0.0
5358,64.0,0.0,180.0,0.0,0.0
5359,52.0,0.0,180.0,0.0,0.0
5360,80.0,64.0,180.0,0.0,0.0
5361,64.0,64.0,120.0,0.0,0.0
5362,68.0,32.0,120.0,0.0,0.0
5363,81.0,96.0,90.0,0.0,0.0
5364,71.0,0.0,120.0,0.0,0.0
5365,80.0,128.0,90.0,0.0,0.0
5366,83.0,64.0,180.0,0.0,0.0
5367,63.0,64.0,120.0,0.0,0.0
5368,66.0,32.0,120.0,0.0,0.0
5369,85.0,96.0,90.0,0.0,0.0
5370,71.0,0.0,120.0,0.0,0.0
5371,83.0,128.0,90.0,0.0,0.0
5372,80.0,64.0,180.0,0.0,0.0
5373,64.0,64.0,120.0,0.0,0.0
5374,68.0,32.0,120.0,0.0,0.0
5375,81.0,96.0,90.0,0.0,0.0
5376,71.0,128.0,120.0,0.0,0.0
5377,80.0,0.0,90.0,0.0,0.0
5378,83.0,64.0,180.0,0.0,0.0
5379,63.0,64.0,120.0,0.0,0.0
5380,66.0,32.0,120.0,0.0,0.0
5381,85.0,96.0,90.0,0.0,0.0
5382,71.0,0.0,120.0,0.0,0.0
5383,83.0,128.0,90.0,0.0,0.0
5384,76.0,64.0,180.0,0.0,0.0
5385,61.0,64.0,120.0,0.0,0.0
5386,64.0,32.0,120.0,0.0,0.0
5387,78.0,96.0,90.0,0.0,0.0
5388,68.0,128.0,120.0,0.0,0.0
5389,76.0,0.0,90.0,0.0,0.0
5390,60.0,64.0,120.0,0.0,0.0
5391,80.0,64.0,180.0,0.0,0.0
5392,63.0,32.0,120.0,0.0,0.0
5393,81.0,96.0,90.0,0.0,0.0
5394,68.0,0.0,120.0,0.0,0.0
5395,80.0,128.0,90.0,0.0,0.0
5396,61.0,64.0,120.0,0.0,0.0
5397,76.0,64.0,180.0,0.0,0.0
5398,64.0,32.0,120.0,0.0,0.0
5399,78.0,96.0,90.0,0.0,0.0
5400,68.0,128.0,120.0,0.0,0.0
5401,76.0,0.0,90.0,0.0,0.0
5402,60.0,64.0,120.0,0.0,0.0
5403,80.0,64.0,180.0,0.0,0.0
5404,63.0,32.0,120.0,0.0,0.0
5405,81.0,96.0,90.0,0.0,0.0
5406,68.0,0.0,120.0,0.0,0.0
5407,80.0,128.0,90.0,0.0,0.0
5408,76.0,64.0,180.0,0.0,0.0
5409,61.0,64.0,120.0,0.0,0.0
5410,64.0,32.0,120.0,0.0,0.0
5411,78.0,96.0,90.0,0.0,0.0
5412,68.0,0.0,120.0,0.0,0.0
5413,76.0,128.0,90.0,0.0,0.0
5414,78.0,64.0,180.0,0.0,0.0
5415,58.0,64.0,120.0,0.0,0.0
5416,61.0,32.0,120.0,0.0,0.0
5417,80.0,96.0,90.0,0.0,0.0
5418,66.0,0.0,120.0,0.0,0.0
5419,78.0,96.0,90.0,0.0,0.0
5420,59.0,96.0,90.0,0.0,0.0
5421,75.0,96.0,180.0,0.0,0.0
5422,63.0,0.0,90.0,0.0,0.0
5423,66.0,0.0,90.0,0.0,0.0
5424,76.0,96.0,90.0,0.0,0.0
5425,63.0,0.0,90.0,0.0,0.0
5426,75.0,96.0,90.0,0.0,0.0
5427,58.0,96.0,90.0,0.0,0.0
5428,78.0,0.0,180.0,0.0,0.0
5429,61.0,96.0,90.0,0.0,0.0
5430,66.0,0.0,90.0,0.0,0.0
5431,80.0,96.0,90.0,0.0,0.0
5432,61.0,96.0,90.0,0.0,0.0
5433,78.0,0.0,90.0,0.0,0.0
5434,56.0,96.0,90.0,0.0,0.0
5435,71.0,0.0,180.0,0.0,0.0
5436,59.0,96.0,90.0,0.0,0.0
5437,73.0,0.0,90.0,0.0,0.0
5438,63.0,96.0,90.0,0.0,0.0
5439,71.0,0.0,90.0,0.0,0.0
5440,59.0,96.0,90.0,0.0,0.0
5441,54.0,96.0,90.0,0.0,0.0
5442,75.0,0.0,390.0,0.0,0.0
5443,58.0,96.0,90.0,0.0,0.0
5444,63.0,96.0,90.0,0.0,0.0
5445,58.0,96.0,90.0,0.0,0.0
5446,52.0,96.0,90.0,0.0,0.0
5447,68.0,0.0,180.0,0.0,0.0
5448,56.0,96.0,90.0,0.0,0.0
5449,59.0,0.0,90.0,0.0,0.0
5450,70.0,96.0,90.0,0.0,0.0
5451,68.0,96.0,90.0,0.0,0.0
5452,56.0,0.0,90.0,0.0,0.0
5453,71.0,96.0,180.0,0.0,0.0
5454,51.0,96.0,90.0,0.0,0.0
5455,54.0,0.0,90.0,0.0,0.0
5456,59.0,0.0,90.0,0.0,0.0
5457,73.0,96.0,90.0,0.0,0.0
5458,71.0,0.0,90.0,0.0,0.0
5459,54.0,96.0,90.0,0.0,0.0
5460,49.0,96.0,90.0,0.0,0.0
5461,73.0,96.0,180.0,0.0,0.0
5462,54.0,0.0,90.0,0.0,0.0
5463,75.0,96.0,90.0,0.0,0.0
5464,58.0,0.0,90.0,0.0,0.0
5465,54.0,0.0,90.0,0.0,0.0
5466,73.0,96.0,90.0,0.0,0.0
5467,75.0,0.0,390.0,0.0,0.0
5468,47.0,96.0,90.0,0.0,0.0
5469,54.0,96.0,90.0,0.0,0.0
5470,59.0,96.0,90.0,0.0,0.0
5471,54.0,96.0,90.0,0.0,0.0
5472,75.0,0.0,180.0,0.0,0.0
5473,59.0,96.0,90.0,0.0,0.0
5474,66.0,96.0,90.0,0.0,0.0
5475,76.0,96.0,90.0,0.0,0.0
5476,63.0,0.0,90.0,0.0,0.0
5477,75.0,96.0,90.0,0.0,0.0
5478,66.0,0.0,90.0,0.0,0.0
5479,58.0,96.0,90.0,0.0,0.0
5480,78.0,96.0,180.0,0.0,0.0
5481,66.0,0.0,90.0,0.0,0.0
5482,80.0,0.0,90.0,0.0,0.0
5483,61.0,96.0,90.0,0.0,0.0
5484,78.0,0.0,90.0,0.0,0.0
5485,66.0,96.0,90.0,0.0,0.0
5486,83.0,0.0,180.0,0.0,0.0
5487,56.0,96.0,90.0,0.0,0.0
5488,65.0,96.0,90.0,0.0,0.0
5489,61.0,96.0,90.0,0.0,0.0
5490,85.0,0.0,90.0,0.0,0.0
5491,83.0,96.0,90.0,0.0,0.0
5492,65.0,0.0,90.0,0.0,0.0
5493,54.0,96.0,90.0,0.0,0.0
5494,82.0,96.0,390.0,0.0,0.0
5495,66.0,96.0,90.0,0.0,0.0
5496,61.0,96.0,90.0,0.0,0.0
5497,66.0,0.0,90.0,0.0,0.0
5498,59.0,96.0,90.0,0.0,0.0
5499,80.0,0.0,180.0,0.0,0.0
5500,68.0,96.0,90.0,0.0,0.0
5501,63.0,0.0,90.0,0.0,0.0
5502,82.0,96.0,90.0,0.0,0.0
5503,80.0,96.0,90.0,0.0,0.0
5504,68.0,0.0,90.0,0.0,0.0
5505,78.0,0.0,30.0,0.0,0.0
5506,77.0,96.0,180.0,0.0,0.0
5507,61.0,96.0,90.0,0.0,0.0
5508,71.0,0.0,90.0,0.0,0.0
5509,75.0,96.0,90.0,0.0,0.0
5510,68.0,0.0,90.0,0.0,0.0
5511,71.0,0.0,90.0,0.0,0.0
5512,77.0,96.0,90.0,0.0,0.0
5513,54.0,96.0,90.0,0.0,0.0
5514,78.0,96.0,180.0,0.0,0.0
5515,58.0,0.0,90.0,0.0,0.0
5516,61.0,96.0,90.0,0.0,0.0
5517,66.0,96.0,90.0,0.0,0.0
5518,65.0,96.0,90.0,0.0,0.0
5519,66.0,96.0,90.0,0.0,0.0
5520,64.0,96.0,90.0,0.0,0.0
5521,61.0,96.0,90.0,0.0,0.0
5522,59.0,96.0,90.0,0.0,0.0
5523,66.0,64.0,90.0,0.0,0.0
5524,75.0,32.0,120.0,0.0,0.0
5525,63.0,96.0,90.0,0.0,0.0
5526,87.0,96.0,120.0,0.0,0.0
5527,66.0,0.0,90.0,0.0,0.0
5528,58.0,96.0,90.0,0.0,0.0
5529,66.0,64.0,90.0,0.0,0.0
5530,78.0,32.0,120.0,0.0,0.0
5531,61.0,96.0,90.0,0.0,0.0
5532,90.0,96.0,120.0,0.0,0.0
5533,66.0,0.0,90.0,0.0,0.0
5534,56.0,96.0,90.0,0.0,0.0
5535,63.0,64.0,90.0,0.0,0.0
5536,71.0,32.0,120.0,0.0,0.0
5537,59.0,96.0,90.0,0.0,0.0
5538,83.0,0.0,120.0,0.0,0.0
5539,63.0,96.0,90.0,0.0,0.0
5540,54.0,96.0,90.0,0.0,0.0
5541,63.0,64.0,90.0,0.0,0.0
5542,75.0,32.0,120.0,0.0,0.0
5543,59.0,96.0,90.0,0.0,0.0
5544,87.0,96.0,120.0,0.0,0.0
5545,63.0,0.0,90.0,0.0,0.0
5546,52.0,96.0,90.0,0.0,0.0
5547,59.0,64.0,90.0,0.0,0.0
5548,68.0,32.0,120.0,0.0,0.0
5549,56.0,96.0,90.0,0.0,0.0
5550,80.0,0.0,120.0,0.0,0.0
5551,59.0,96.0,90.0,0.0,0.0
5552,51.0,96.0,90.0,0.0,0.0
5553,59.0,64.0,90.0,0.0,0.0
5554,71.0,32.0,120.0,0.0,0.0
5555,54.0,96.0,90.0,0.0,0.0
5556,83.0,0.0,120.0,0.0,0.0
5557,59.0,96.0,90.0,0.0,0.0
5558,49.0,96.0,90.0,0.0,0.0
5559,58.0,64.0,90.0,0.0,0.0
5560,73.0,32.0,120.0,0.0,0.0
5561,54.0,96.0,90.0,0.0,0.0
5562,85.0,96.0,120.0,0.0,0.0
5563,58.0,0.0,90.0,0.0,0.0
5564,47.0,96.0,90.0,0.0,0.0
5565,59.0,64.0,90.0,0.0,0.0
5566,75.0,32.0,120.0,0.0,0.0
5567,54.0,96.0,90.0,0.0,0.0
5568,87.0,96.0,120.0,0.0,0.0
5569,59.0,0.0,90.0,0.0,0.0
5570,59.0,96.0,90.0,0.0,0.0
5571,66.0,64.0,90.0,0.0,0.0
5572,75.0,32.0,120.0,0.0,0.0
5573,63.0,96.0,90.0,0.0,0.0
5574,87.0,0.0,120.0,0.0,0.0
5575,66.0,96.0,90.0,0.0,0.0
5576,58.0,96.0,90.0,0.0,0.0
5577,66.0,64.0,90.0,0.0,0.0
5578,78.0,32.0,120.0,0.0,0.0
5579,61.0,96.0,90.0,0.0,0.0
5580,90.0,0.0,120.0,0.0,0.0
5581,66.0,96.0,90.0,0.0,0.0
5582,56.0,96.0,90.0,0.0,0.0
5583,65.0,64.0,90.0,0.0,0.0
5584,83.0,32.0,120.0,0.0,0.0
5585,61.0,96.0,90.0,0.0,0.0
5586,95.0,0.0,120.0,0.0,0.0
5587,65.0,96.0,90.0,0.0,0.0
5588,54.0,96.0,90.0,0.0,0.0
5589,66.0,64.0,90.0,0.0,0.0
5590,82.0,32.0,120.0,0.0,0.0
5591,61.0,96.0,90.0,0.0,0.0
5592,94.0,0.0,120.0,0.0,0.0
5593,66.0,96.0,90.0,0.0,0.0
5594,59.0,96.0,90.0,0.0,0.0
5595,68.0,64.0,90.0,0.0,0.0
5596,80.0,32.0,120.0,0.0,0.0
5597,63.0,96.0,90.0,0.0,0.0
5598,92.0,96.0,120.0,0.0,0.0
5599,68.0,0.0,90.0,0.0,0.0
5600,61.0,96.0,90.0,0.0,0.0
5601,73.0,64.0,90.0,0.0,0.0
5602,77.0,32.0,120.0,0.0,0.0
5603,70.0,96.0,90.0,0.0,0.0
5604,89.0,96.0,120.0,0.0,0.0
5605,73.0,0.0,90.0,0.0,0.0
5606,54.0,96.0,90.0,0.0,0.0
5607,58.0,64.0,90.0,0.0,0.0
5608,78.0,32.0,120.0,0.0,0.0
5609,61.0,96.0,90.0,0.0,0.0
5610,90.0,0.0,120.0,0.0,0.0
5611,66.0,96.0,90.0,0.0,0.0
5612,65.0,96.0,90.0,0.0,0.0
5613,66.0,96.0,90.0,0.0,0.0
5614,61.0,96.0,90.0,0.0,0.0
5615,58.0,192.0,90.0,0.0,0.0
5616,54.0,96.0,180.0,0.0,0.0
5617,78.0,0.0,180.0,0.0,0.0
5618,56.0,0.0,90.0,0.0,0.0
5619,80.0,96.0,90.0,0.0,0.0
5620,78.0,0.0,90.0,0.0,0.0
5621,54.0,64.0,90.0,0.0,0.0
5622,51.0,192.0,60.0,0.0,0.0
5623,75.0,0.0,60.0,0.0,0.0
5624,53.0,512.0,60.0,0.0,0.0
5625,77.0,0.0,60.0,0.0,0.0
5626,78.0,0.0,390.0,0.0,0.0
5627,54.0,384.0,390.0,0.0,0.0
5628,66.0,0.0,390.0,0.0,0.0
5629,42.0,0.0,390.0,0.0,0.0
5630,70.0,64.0,30.0,0.0,0.0
5631,46.0,0.0,30.0,0.0,0.0
5632,44.0,192.0,60.0,0.0,0.0
5633,68.0,0.0,60.0,0.0,0.0
5634,42.0,0.0,60.0,0.0,0.0
5635,66.0,192.0,60.0,0.0,0.0
5636,68.0,192.0,60.0,0.0,0.0
5637,44.0,0.0,60.0,0.0,0.0
5638,46.0,0.0,60.0,0.0,0.0
5639,70.0,512.0,60.0,0.0,0.0
5640,71.0,0.0,390.0,0.0,0.0
5641,47.0,384.0,390.0,0.0,0.0
5642,59.0,0.0,390.0,0.0,0.0
5643,35.0,96.0,390.0,0.0,0.0
5644,54.0,96.0,90.0,0.0,0.0
5645,61.0,64.0,90.0,0.0,0.0
5646,78.0,32.0,120.0,0.0,0.0
5647,58.0,96.0,90.0,0.0,0.0
5648,90.0,0.0,120.0,0.0,0.0
5649,61.0,96.0,90.0,0.0,0.0
5650,56.0,96.0,90.0,0.0,0.0
5651,61.0,64.0,90.0,0.0,0.0
5652,77.0,32.0,120.0,0.0,0.0
5653,59.0,96.0,90.0,0.0,0.0
5654,89.0,0.0,120.0,0.0,0.0
5655,61.0,96.0,90.0,0.0,0.0
5656,54.0,96.0,90.0,0.0,0.0
5657,61.0,64.0,90.0,0.0,0.0
5658,78.0,32.0,120.0,0.0,0.0
5659,58.0,96.0,90.0,0.0,0.0
5660,90.0,96.0,120.0,0.0,0.0
5661,61.0,0.0,90.0,0.0,0.0
5662,49.0,96.0,90.0,0.0,0.0
5663,61.0,64.0,90.0,0.0,0.0
5664,75.0,32.0,120.0,0.0,0.0
5665,59.0,96.0,90.0,0.0,0.0
5666,87.0,0.0,120.0,0.0,0.0
5667,61.0,96.0,90.0,0.0,0.0
5668,52.0,96.0,90.0,0.0,0.0
5669,61.0,64.0,90.0,0.0,0.0
5670,76.0,32.0,120.0,0.0,0.0
5671,56.0,96.0,90.0,0.0,0.0
5672,88.0,0.0,120.0,0.0,0.0
5673,61.0,96.0,90.0,0.0,0.0
5674,54.0,96.0,90.0,0.0,0.0
5675,64.0,64.0,90.0,0.0,0.0
5676,70.0,32.0,120.0,0.0,0.0
5677,61.0,96.0,90.0,0.0,0.0
5678,82.0,96.0,120.0,0.0,0.0
5679,64.0,0.0,90.0,0.0,0.0
5680,59.0,96.0,90.0,0.0,0.0
5681,63.0,0.0,90.0,0.0,0.0
5682,71.0,0.0,390.0,0.0,0.0
5683,83.0,0.0,390.0,0.0,0.0
5684,66.0,96.0,90.0,0.0,0.0
5685,64.0,96.0,90.0,0.0,0.0
5686,63.0,96.0,90.0,0.0,0.0
5687,61.0,96.0,90.0,0.0,0.0
5688,59.0,96.0,90.0,0.0,0.0
5689,58.0,96.0,90.0,0.0,0.0
5690,56.0,192.0,90.0,0.0,0.0
5691,54.0,0.0,180.0,0.0,0.0
5692,78.0,96.0,180.0,0.0,0.0
5693,56.0,96.0,90.0,0.0,0.0
5694,80.0,0.0,90.0,0.0,0.0
5695,54.0,0.0,90.0,0.0,0.0
5696,78.0,64.0,90.0,0.0,0.0
5697,75.0,0.0,60.0,0.0,0.0
5698,51.0,192.0,60.0,0.0,0.0
5699,77.0,0.0,60.0,0.0,0.0
5700,53.0,512.0,60.0,0.0,0.0
5701,78.0,0.0,390.0,0.0,0.0
5702,54.0,384.0,390.0,0.0,0.0
5703,42.0,0.0,390.0,0.0,0.0
5704,66.0,96.0,390.0,0.0,0.0
5705,78.0,96.0,90.0,0.0,0.0
5706,90.0,0.0,180.0,0.0,0.0
5707,82.0,96.0,90.0,0.0,0.0
5708,78.0,96.0,90.0,0.0,0.0
5709,92.0,0.0,90.0,0.0,0.0
5710,82.0,0.0,90.0,0.0,0.0
5711,90.0,64.0,90.0,0.0,0.0
5712,80.0,96.0,90.0,0.0,0.0
5713,87.0,32.0,60.0,0.0,0.0
5714,83.0,64.0,90.0,0.0,0.0
5715,89.0,32.0,60.0,0.0,0.0
5716,80.0,96.0,90.0,0.0,0.0
5717,83.0,192.0,90.0,0.0,0.0
5718,82.0,0.0,180.0,0.0,0.0
5719,78.0,576.0,180.0,0.0,0.0
5720,90.0,0.0,180.0,0.0,0.0
5721,46.0,64.0,30.0,0.0,0.0
5722,70.0,0.0,30.0,0.0,0.0
5723,44.0,0.0,60.0,0.0,0.0
5724,68.0,192.0,60.0,0.0,0.0
5725,42.0,0.0,60.0,0.0,0.0
5726,66.0,192.0,60.0,0.0,0.0
5727,44.0,0.0,60.0,0.0,0.0
5728,68.0,192.0,60.0,0.0,0.0
5729,70.0,512.0,60.0,0.0,0.0
5730,46.0,0.0,60.0,0.0,0.0
5731,47.0,0.0,390.0,0.0,0.0
5732,71.0,384.0,390.0,0.0,0.0
5733,59.0,64.0,390.0,0.0,0.0
5734,35.0,0.0,390.0,0.0,0.0
5735,94.0,0.0,30.0,0.0,0.0
5736,76.0,96.0,90.0,0.0,0.0
5737,92.0,32.0,60.0,0.0,0.0
5738,80.0,64.0,90.0,0.0,0.0
5739,90.0,32.0,60.0,0.0,0.0
5740,75.0,96.0,90.0,0.0,0.0
5741,78.0,64.0,90.0,0.0,0.0
5742,76.0,96.0,90.0,0.0,0.0
5743,92.0,32.0,60.0,0.0,0.0
5744,80.0,64.0,90.0,0.0,0.0
5745,94.0,32.0,60.0,0.0,0.0
5746,73.0,96.0,90.0,0.0,0.0
5747,76.0,192.0,90.0,0.0,0.0
5748,95.0,0.0,180.0,0.0,0.0
5749,78.0,576.0,180.0,0.0,0.0
5750,75.0,0.0,180.0,0.0,0.0
5751,82.0,64.0,30.0,0.0,0.0
5752,80.0,32.0,60.0,0.0,0.0
5753,64.0,96.0,90.0,0.0,0.0
5754,68.0,64.0,90.0,0.0,0.0
5755,63.0,96.0,90.0,0.0,0.0
5756,78.0,32.0,60.0,0.0,0.0
5757,66.0,64.0,90.0,0.0,0.0
5758,64.0,96.0,90.0,0.0,0.0
5759,80.0,32.0,60.0,0.0,0.0
5760,68.0,64.0,90.0,0.0,0.0
5761,61.0,96.0,90.0,0.0,0.0
5762,82.0,32.0,60.0,0.0,0.0
5763,64.0,96.0,90.0,0.0,0.0
5764,83.0,0.0,180.0,0.0,0.0
5765,63.0,96.0,90.0,0.0,0.0
5766,66.0,96.0,90.0,0.0,0.0
5767,63.0,96.0,90.0,0.0,0.0
5768,66.0,96.0,90.0,0.0,0.0
5769,78.0,96.0,180.0,0.0,0.0
5770,59.0,96.0,90.0,0.0,0.0
5771,69.0,0.0,90.0,0.0,0.0
5772,80.0,96.0,90.0,0.0,0.0
5773,59.0,0.0,90.0,0.0,0.0
5774,69.0,0.0,90.0,0.0,0.0
5775,78.0,96.0,90.0,0.0,0.0
5776,64.0,96.0,90.0,0.0,0.0
5777,76.0,0.0,180.0,0.0,0.0
5778,68.0,96.0,90.0,0.0,0.0
5779,64.0,96.0,90.0,0.0,0.0
5780,78.0,0.0,90.0,0.0,0.0
5781,76.0,96.0,90.0,0.0,0.0
5782,68.0,0.0,90.0,0.0,0.0
5783,73.0,96.0,180.0,0.0,0.0
5784,66.0,96.0,90.0,0.0,0.0
5785,70.0,0.0,90.0,0.0,0.0
5786,66.0,0.0,90.0,0.0,0.0
5787,75.0,96.0,90.0,0.0,0.0
5788,73.0,0.0,90.0,0.0,0.0
5789,70.0,96.0,90.0,0.0,0.0
5790,75.0,0.0,180.0,0.0,0.0
5791,59.0,96.0,90.0,0.0,0.0
5792,71.0,96.0,90.0,0.0,0.0
5793,59.0,0.0,90.0,0.0,0.0
5794,76.0,96.0,90.0,0.0,0.0
5795,75.0,96.0,90.0,0.0,0.0
5796,71.0,0.0,90.0,0.0,0.0
5797,63.0,96.0,90.0,0.0,0.0
5798,78.0,0.0,180.0,0.0,0.0
5799,69.0,96.0,90.0,0.0,0.0
5800,63.0,0.0,90.0,0.0,0.0
5801,80.0,96.0,90.0,0.0,0.0
5802,69.0,96.0,90.0,0.0,0.0
5803,78.0,0.0,90.0,0.0,0.0
5804,64.0,96.0,90.0,0.0,0.0
5805,76.0,0.0,180.0,0.0,0.0
5806,68.0,96.0,90.0,0.0,0.0
5807,64.0,0.0,90.0,0.0,0.0
5808,78.0,96.0,90.0,0.0,0.0
5809,68.0,96.0,90.0,0.0,0.0
5810,76.0,0.0,90.0,0.0,0.0
5811,73.0,0.0,180.0,0.0,0.0
5812,66.0,96.0,90.0,0.0,0.0
5813,70.0,96.0,90.0,0.0,0.0
5814,66.0,0.0,90.0,0.0,0.0
5815,75.0,96.0,90.0,0.0,0.0
5816,70.0,0.0,90.0,0.0,0.0
5817,73.0,96.0,90.0,0.0,0.0
5818,75.0,96.0,180.0,0.0,0.0
5819,59.0,96.0,90.0,0.0,0.0
5820,71.0,0.0,90.0,0.0,0.0
5821,59.0,96.0,90.0,0.0,0.0
5822,71.0,96.0,90.0,0.0,0.0
5823,63.0,96.0,90.0,0.0,0.0
5824,69.0,64.0,90.0,0.0,0.0
5825,78.0,32.0,120.0,0.0,0.0
5826,63.0,96.0,90.0,0.0,0.0
5827,90.0,0.0,120.0,0.0,0.0
5828,69.0,96.0,90.0,0.0,0.0
5829,64.0,96.0,90.0,0.0,0.0
5830,68.0,64.0,90.0,0.0,0.0
5831,76.0,32.0,120.0,0.0,0.0
5832,64.0,96.0,90.0,0.0,0.0
5833,88.0,0.0,120.0,0.0,0.0
5834,68.0,96.0,90.0,0.0,0.0
5835,66.0,96.0,90.0,0.0,0.0
5836,70.0,64.0,90.0,0.0,0.0
5837,73.0,32.0,120.0,0.0,0.0
5838,66.0,96.0,90.0,0.0,0.0
5839,85.0,0.0,120.0,0.0,0.0
5840,70.0,96.0,90.0,0.0,0.0
5841,59.0,96.0,90.0,0.0,0.0
5842,71.0,64.0,90.0,0.0,0.0
5843,75.0,32.0,120.0,0.0,0.0
5844,59.0,96.0,90.0,0.0,0.0
5845,87.0,0.0,120.0,0.0,0.0
5846,71.0,96.0,90.0,0.0,0.0
5847,63.0,96.0,90.0,0.0,0.0
5848,69.0,64.0,90.0,0.0,0.0
5849,78.0,32.0,120.0,0.0,0.0
5850,63.0,96.0,90.0,0.0,0.0
5851,90.0,0.0,120.0,0.0,0.0
5852,69.0,96.0,90.0,0.0,0.0
5853,64.0,96.0,90.0,0.0,0.0
5854,68.0,64.0,90.0,0.0,0.0
5855,76.0,32.0,120.0,0.0,0.0
5856,64.0,96.0,90.0,0.0,0.0
5857,88.0,0.0,120.0,0.0,0.0
5858,68.0,96.0,90.0,0.0,0.0
5859,66.0,96.0,90.0,0.0,0.0
5860,70.0,64.0,90.0,0.0,0.0
5861,73.0,32.0,120.0,0.0,0.0
5862,66.0,96.0,90.0,0.0,0.0
5863,85.0,96.0,120.0,0.0,0.0
5864,70.0,0.0,90.0,0.0,0.0
5865,75.0,0.0,180.0,0.0,0.0
5866,59.0,96.0,90.0,0.0,0.0
5867,63.0,96.0,90.0,0.0,0.0
5868,76.0,96.0,90.0,0.0,0.0
5869,66.0,0.0,90.0,0.0,0.0
5870,71.0,0.0,90.0,0.0,0.0
5871,75.0,96.0,90.0,0.0,0.0
5872,78.0,0.0,180.0,0.0,0.0
5873,59.0,96.0,90.0,0.0,0.0
5874,63.0,96.0,90.0,0.0,0.0
5875,66.0,0.0,90.0,0.0,0.0
5876,80.0,96.0,90.0,0.0,0.0
5877,71.0,0.0,90.0,0.0,0.0
5878,78.0,96.0,90.0,0.0,0.0
5879,59.0,96.0,90.0,0.0,0.0
5880,75.0,96.0,180.0,0.0,0.0
5881,63.0,0.0,90.0,0.0,0.0
5882,76.0,96.0,90.0,0.0,0.0
5883,66.0,0.0,90.0,0.0,0.0
5884,71.0,0.0,90.0,0.0,0.0
5885,75.0,96.0,90.0,0.0,0.0
5886,83.0,0.0,180.0,0.0,0.0
5887,59.0,96.0,90.0,0.0,0.0
5888,63.0,96.0,90.0,0.0,0.0
5889,66.0,96.0,90.0,0.0,0.0
5890,85.0,0.0,90.0,0.0,0.0
5891,83.0,96.0,90.0,0.0,0.0
5892,71.0,0.0,90.0,0.0,0.0
5893,59.0,96.0,90.0,0.0,0.0
5894,78.0,96.0,180.0,0.0,0.0
5895,63.0,0.0,90.0,0.0,0.0
5896,80.0,96.0,90.0,0.0,0.0
5897,66.0,0.0,90.0,0.0,0.0
5898,71.0,0.0,90.0,0.0,0.0
5899,78.0,96.0,90.0,0.0,0.0
5900,87.0,96.0,180.0,0.0,0.0
5901,59.0,96.0,90.0,0.0,0.0
5902,63.0,0.0,90.0,0.0,0.0
5903,88.0,96.0,90.0,0.0,0.0
5904,66.0,0.0,90.0,0.0,0.0
5905,87.0,0.0,90.0,0.0,0.0
5906,71.0,96.0,90.0,0.0,0.0
5907,59.0,96.0,90.0,0.0,0.0
5908,83.0,0.0,180.0,0.0,0.0
5909,63.0,96.0,90.0,0.0,0.0
5910,66.0,96.0,90.0,0.0,0.0
5911,71.0,96.0,90.0,0.0,0.0
5912,51.0,96.0,90.0,0.0,0.0
5913,83.0,0.0,180.0,0.0,0.0
5914,71.0,0.0,180.0,0.0,0.0
5915,78.0,0.0,180.0,0.0,0.0
5916,75.0,96.0,180.0,0.0,0.0
5917,54.0,0.0,90.0,0.0,0.0
5918,59.0,96.0,90.0,0.0,0.0
5919,63.0,192.0,90.0,0.0,0.0
5920,47.0,0.0,180.0,0.0,0.0
5921,83.0,0.0,180.0,0.0,0.0
5922,75.0,0.0,180.0,0.0,0.0
5923,87.0,0.0,180.0,0.0,0.0
