,note,step,duration,channel,velocity
0,57.0,0.0,300.0,3.0,0.0
1,69.0,48.0,300.0,1.0,0.0
2,59.0,46.0,60.0,3.0,0.0
3,71.0,0.0,60.0,1.0,0.0
4,57.0,0.0,60.0,3.0,0.0
5,69.0,34.0,60.0,1.0,0.0
6,56.0,0.0,30.0,3.0,0.0
7,68.0,96.0,30.0,1.0,0.0
8,69.0,0.0,30.0,1.0,0.0
9,57.0,224.0,30.0,3.0,0.0
10,64.0,704.0,150.0,1.0,0.0
11,52.0,0.0,150.0,3.0,0.0
12,57.0,48.0,300.0,3.0,0.0
13,69.0,0.0,300.0,1.0,0.0
14,71.0,46.0,60.0,1.0,0.0
15,59.0,0.0,60.0,3.0,0.0
16,57.0,0.0,60.0,3.0,0.0
17,69.0,34.0,60.0,1.0,0.0
18,68.0,0.0,30.0,1.0,0.0
19,56.0,96.0,30.0,3.0,0.0
20,69.0,0.0,30.0,1.0,0.0
21,57.0,224.0,30.0,3.0,0.0
22,54.0,704.0,150.0,3.0,0.0
23,66.0,0.0,150.0,1.0,0.0
24,81.0,48.0,300.0,1.0,0.0
25,66.0,0.0,570.0,3.0,0.0
26,54.0,384.0,570.0,4.0,0.0
27,83.0,46.0,60.0,1.0,0.0
28,81.0,34.0,60.0,1.0,0.0
29,80.0,96.0,30.0,1.0,0.0
30,81.0,64.0,30.0,1.0,0.0
31,74.0,0.0,15.0,2.0,0.0
32,56.0,192.0,570.0,4.0,0.0
33,83.0,0.0,390.0,1.0,0.0
34,74.0,32.0,150.0,1.0,0.0
35,71.0,0.0,150.0,2.0,0.0
36,73.0,0.0,390.0,1.0,0.0
37,64.0,0.0,15.0,3.0,0.0
38,57.0,192.0,180.0,4.0,0.0
39,69.0,0.0,390.0,2.0,0.0
40,66.0,0.0,180.0,3.0,0.0
41,54.0,142.0,180.0,4.0,0.0
42,50.0,0.0,150.0,4.0,0.0
43,74.0,2.0,150.0,2.0,0.0
44,59.0,30.0,150.0,3.0,0.0
45,78.0,16.0,150.0,1.0,0.0
46,74.0,98.0,60.0,1.0,0.0
47,71.0,0.0,60.0,2.0,0.0
48,64.0,96.0,90.0,3.0,0.0
49,73.0,0.0,390.0,1.0,0.0
50,52.0,16.0,540.0,4.0,0.0
51,69.0,144.0,390.0,2.0,0.0
52,63.0,96.0,90.0,3.0,0.0
53,64.0,96.0,90.0,3.0,0.0
54,63.0,0.0,90.0,3.0,0.0
55,64.0,0.0,150.0,3.0,0.0
56,68.0,320.0,150.0,2.0,0.0
57,71.0,0.0,150.0,1.0,0.0
58,57.0,0.0,300.0,3.0,0.0
59,69.0,48.0,300.0,1.0,0.0
60,59.0,0.0,60.0,3.0,0.0
61,71.0,46.0,60.0,1.0,0.0
62,69.0,34.0,60.0,1.0,0.0
63,57.0,0.0,60.0,3.0,0.0
64,56.0,96.0,30.0,3.0,0.0
65,68.0,0.0,30.0,1.0,0.0
66,57.0,224.0,30.0,3.0,0.0
67,69.0,0.0,30.0,1.0,0.0
68,64.0,0.0,150.0,1.0,0.0
69,52.0,704.0,150.0,3.0,0.0
70,57.0,48.0,300.0,3.0,0.0
71,69.0,0.0,300.0,1.0,0.0
72,59.0,46.0,60.0,3.0,0.0
73,71.0,0.0,60.0,1.0,0.0
74,69.0,34.0,60.0,1.0,0.0
75,57.0,0.0,60.0,3.0,0.0
76,68.0,96.0,30.0,1.0,0.0
77,56.0,0.0,30.0,3.0,0.0
78,57.0,0.0,30.0,3.0,0.0
79,69.0,224.0,30.0,1.0,0.0
80,54.0,704.0,150.0,3.0,0.0
81,66.0,0.0,150.0,1.0,0.0
82,81.0,48.0,300.0,1.0,0.0
83,83.0,46.0,60.0,1.0,0.0
84,81.0,34.0,60.0,1.0,0.0
85,80.0,96.0,30.0,1.0,0.0
86,81.0,448.0,30.0,1.0,0.0
87,74.0,160.0,390.0,3.0,0.0
88,65.0,0.0,390.0,4.0,0.0
89,85.0,0.0,390.0,1.0,0.0
90,80.0,0.0,390.0,2.0,0.0
91,83.0,0.0,150.0,1.0,0.0
92,80.0,320.0,150.0,2.0,0.0
93,65.0,0.0,150.0,4.0,0.0
94,74.0,0.0,150.0,3.0,0.0
95,83.0,48.0,300.0,1.0,0.0
96,85.0,46.0,60.0,1.0,0.0
97,83.0,34.0,60.0,1.0,0.0
98,82.0,96.0,30.0,1.0,0.0
99,83.0,448.0,30.0,1.0,0.0
100,79.0,0.0,390.0,3.0,0.0
101,76.0,160.0,390.0,2.0,0.0
102,70.0,0.0,390.0,4.0,0.0
103,86.0,0.0,390.0,1.0,0.0
104,70.0,0.0,150.0,4.0,0.0
105,85.0,0.0,150.0,1.0,0.0
106,79.0,0.0,150.0,3.0,0.0
107,76.0,320.0,150.0,2.0,0.0
108,85.0,48.0,300.0,1.0,0.0
109,86.0,46.0,60.0,1.0,0.0
110,85.0,34.0,60.0,1.0,0.0
111,83.0,96.0,30.0,1.0,0.0
112,85.0,320.0,30.0,1.0,0.0
113,62.0,32.0,270.0,4.0,0.0
114,79.0,0.0,300.0,2.0,0.0
115,70.0,94.0,300.0,3.0,0.0
116,88.0,0.0,300.0,1.0,0.0
117,78.0,0.0,90.0,2.0,0.0
118,62.0,2.0,90.0,4.0,0.0
119,86.0,0.0,90.0,1.0,0.0
120,71.0,94.0,90.0,3.0,0.0
121,85.0,0.0,90.0,1.0,0.0
122,76.0,94.0,90.0,2.0,0.0
123,62.0,0.0,90.0,4.0,0.0
124,73.0,2.0,90.0,3.0,0.0
125,62.0,0.0,90.0,4.0,0.0
126,83.0,290.0,90.0,1.0,0.0
127,74.0,0.0,90.0,2.0,0.0
128,76.0,0.0,390.0,3.0,0.0
129,81.0,24.0,300.0,1.0,0.0
130,73.0,0.0,300.0,2.0,0.0
131,64.0,0.0,390.0,4.0,0.0
132,74.0,24.0,20.0,2.0,0.0
133,83.0,0.0,20.0,1.0,0.0
134,81.0,0.0,20.0,1.0,0.0
135,73.0,24.0,20.0,2.0,0.0
136,80.0,0.0,20.0,1.0,0.0
137,71.0,24.0,20.0,2.0,0.0
138,81.0,96.0,20.0,1.0,0.0
139,73.0,0.0,20.0,2.0,0.0
140,85.0,64.0,90.0,1.0,0.0
141,68.0,30.0,150.0,3.0,0.0
142,52.0,0.0,150.0,4.0,0.0
143,76.0,0.0,90.0,2.0,0.0
144,83.0,0.0,90.0,1.0,0.0
145,74.0,162.0,90.0,2.0,0.0
146,57.0,0.0,150.0,4.0,0.0
147,69.0,704.0,150.0,3.0,0.0
148,81.0,0.0,150.0,1.0,0.0
149,73.0,0.0,150.0,2.0,0.0
150,64.0,48.0,300.0,2.0,0.0
151,66.0,46.0,60.0,2.0,0.0
152,64.0,34.0,60.0,2.0,0.0
153,63.0,96.0,30.0,2.0,0.0
154,64.0,352.0,30.0,2.0,0.0
155,72.0,0.0,540.0,3.0,0.0
156,81.0,48.0,300.0,1.0,0.0
157,67.0,32.0,390.0,2.0,0.0
158,63.0,16.0,540.0,4.0,0.0
159,83.0,46.0,60.0,1.0,0.0
160,81.0,2.0,60.0,1.0,0.0
161,80.0,96.0,30.0,1.0,0.0
162,66.0,320.0,150.0,2.0,0.0
163,81.0,16.0,30.0,1.0,0.0
164,66.0,48.0,300.0,2.0,0.0
165,67.0,46.0,60.0,2.0,0.0
166,66.0,34.0,60.0,2.0,0.0
167,65.0,96.0,30.0,2.0,0.0
168,66.0,352.0,30.0,2.0,0.0
169,69.0,32.0,390.0,2.0,0.0
170,53.0,16.0,540.0,4.0,0.0
171,83.0,48.0,300.0,1.0,0.0
172,62.0,0.0,540.0,3.0,0.0
173,85.0,46.0,60.0,1.0,0.0
174,83.0,2.0,60.0,1.0,0.0
175,68.0,320.0,150.0,2.0,0.0
176,82.0,96.0,30.0,1.0,0.0
177,83.0,16.0,30.0,1.0,0.0
178,71.0,48.0,300.0,2.0,0.0
179,73.0,46.0,60.0,2.0,0.0
180,71.0,34.0,60.0,2.0,0.0
181,70.0,96.0,30.0,2.0,0.0
182,71.0,352.0,30.0,2.0,0.0
183,88.0,48.0,300.0,1.0,0.0
184,74.0,32.0,390.0,2.0,0.0
185,67.0,0.0,330.0,3.0,0.0
186,57.0,46.0,330.0,4.0,0.0
187,90.0,0.0,60.0,1.0,0.0
188,88.0,2.0,60.0,1.0,0.0
189,73.0,320.0,150.0,2.0,0.0
190,67.0,0.0,150.0,3.0,0.0
191,87.0,96.0,30.0,1.0,0.0
192,50.0,0.0,150.0,4.0,0.0
193,88.0,32.0,30.0,1.0,0.0
194,62.0,46.0,330.0,4.0,0.0
195,70.0,32.0,390.0,3.0,0.0
196,76.0,0.0,390.0,2.0,0.0
197,90.0,48.0,300.0,1.0,0.0
198,91.0,0.0,60.0,1.0,0.0
199,90.0,2.0,60.0,1.0,0.0
200,74.0,112.0,60.0,2.0,0.0
201,89.0,16.0,30.0,1.0,0.0
202,50.0,30.0,150.0,4.0,0.0
203,71.0,0.0,60.0,3.0,0.0
204,90.0,50.0,90.0,1.0,0.0
205,62.0,0.0,60.0,3.0,0.0
206,92.0,48.0,60.0,1.0,0.0
207,52.0,0.0,60.0,4.0,0.0
208,73.0,94.0,90.0,2.0,0.0
209,71.0,50.0,90.0,2.0,0.0
210,73.0,94.0,90.0,2.0,0.0
211,92.0,0.0,60.0,1.0,0.0
212,62.0,48.0,60.0,3.0,0.0
213,52.0,0.0,60.0,4.0,0.0
214,71.0,50.0,90.0,2.0,0.0
215,73.0,94.0,90.0,2.0,0.0
216,92.0,48.0,60.0,1.0,0.0
217,62.0,0.0,60.0,3.0,0.0
218,52.0,0.0,60.0,4.0,0.0
219,71.0,96.0,90.0,2.0,0.0
220,61.0,0.0,90.0,3.0,0.0
221,45.0,0.0,150.0,4.0,0.0
222,69.0,66.0,90.0,2.0,0.0
223,93.0,30.0,150.0,1.0,0.0
224,69.0,0.0,90.0,2.0,0.0
225,61.0,96.0,90.0,2.0,0.0
226,64.0,0.0,90.0,3.0,0.0
227,69.0,0.0,90.0,2.0,0.0
228,61.0,0.0,90.0,2.0,0.0
229,64.0,96.0,90.0,3.0,0.0
230,64.0,0.0,90.0,3.0,0.0
231,61.0,96.0,90.0,2.0,0.0
232,69.0,0.0,90.0,2.0,0.0
233,69.0,96.0,90.0,2.0,0.0
234,64.0,0.0,90.0,3.0,0.0
235,61.0,0.0,90.0,2.0,0.0
236,64.0,0.0,90.0,3.0,0.0
237,61.0,0.0,90.0,2.0,0.0
238,69.0,96.0,90.0,2.0,0.0
239,69.0,0.0,90.0,2.0,0.0
240,52.0,48.0,300.0,4.0,0.0
241,64.0,96.0,90.0,3.0,0.0
242,61.0,0.0,90.0,2.0,0.0
243,61.0,96.0,90.0,2.0,0.0
244,69.0,0.0,90.0,2.0,0.0
245,64.0,0.0,90.0,3.0,0.0
246,69.0,0.0,90.0,2.0,0.0
247,64.0,0.0,90.0,3.0,0.0
248,61.0,2.0,90.0,2.0,0.0
249,64.0,0.0,90.0,3.0,0.0
250,73.0,32.0,90.0,1.0,0.0
251,69.0,0.0,90.0,2.0,0.0
252,61.0,0.0,90.0,2.0,0.0
253,54.0,46.0,60.0,4.0,0.0
254,52.0,0.0,60.0,4.0,0.0
255,61.0,0.0,90.0,2.0,0.0
256,69.0,0.0,90.0,2.0,0.0
257,74.0,2.0,30.0,1.0,0.0
258,51.0,32.0,30.0,4.0,0.0
259,64.0,2.0,90.0,3.0,0.0
260,73.0,30.0,30.0,1.0,0.0
261,74.0,32.0,30.0,1.0,0.0
262,73.0,32.0,30.0,1.0,0.0
263,52.0,0.0,30.0,4.0,0.0
264,64.0,2.0,90.0,3.0,0.0
265,69.0,0.0,90.0,2.0,0.0
266,61.0,0.0,90.0,2.0,0.0
267,71.0,30.0,30.0,1.0,0.0
268,73.0,94.0,30.0,1.0,0.0
269,40.0,30.0,150.0,4.0,0.0
270,59.0,0.0,90.0,2.0,0.0
271,68.0,0.0,90.0,2.0,0.0
272,76.0,94.0,300.0,1.0,0.0
273,64.0,66.0,90.0,3.0,0.0
274,64.0,0.0,90.0,3.0,0.0
275,68.0,96.0,90.0,2.0,0.0
276,59.0,0.0,90.0,2.0,0.0
277,59.0,2.0,90.0,2.0,0.0
278,68.0,0.0,90.0,2.0,0.0
279,64.0,0.0,90.0,3.0,0.0
280,68.0,0.0,90.0,2.0,0.0
281,74.0,0.0,90.0,1.0,0.0
282,64.0,34.0,90.0,3.0,0.0
283,59.0,0.0,90.0,2.0,0.0
284,71.0,62.0,30.0,1.0,0.0
285,64.0,34.0,90.0,3.0,0.0
286,68.0,0.0,90.0,2.0,0.0
287,59.0,0.0,90.0,2.0,0.0
288,64.0,0.0,90.0,3.0,0.0
289,59.0,0.0,90.0,2.0,0.0
290,69.0,62.0,30.0,1.0,0.0
291,68.0,96.0,90.0,2.0,0.0
292,64.0,66.0,90.0,3.0,0.0
293,68.0,30.0,150.0,1.0,0.0
294,59.0,0.0,90.0,2.0,0.0
295,52.0,48.0,300.0,4.0,0.0
296,64.0,0.0,90.0,3.0,0.0
297,59.0,0.0,90.0,2.0,0.0
298,68.0,96.0,90.0,2.0,0.0
299,68.0,0.0,90.0,2.0,0.0
300,64.0,2.0,90.0,3.0,0.0
301,59.0,0.0,90.0,2.0,0.0
302,74.0,0.0,90.0,1.0,0.0
303,64.0,0.0,90.0,3.0,0.0
304,54.0,46.0,60.0,4.0,0.0
305,59.0,0.0,90.0,2.0,0.0
306,68.0,0.0,90.0,2.0,0.0
307,52.0,34.0,60.0,4.0,0.0
308,76.0,32.0,30.0,1.0,0.0
309,68.0,0.0,90.0,2.0,0.0
310,59.0,2.0,90.0,2.0,0.0
311,64.0,0.0,90.0,3.0,0.0
312,51.0,0.0,30.0,4.0,0.0
313,74.0,30.0,30.0,1.0,0.0
314,76.0,32.0,30.0,1.0,0.0
315,59.0,0.0,90.0,2.0,0.0
316,68.0,0.0,90.0,2.0,0.0
317,52.0,32.0,30.0,4.0,0.0
318,74.0,0.0,30.0,1.0,0.0
319,64.0,96.0,90.0,3.0,0.0
320,73.0,30.0,30.0,1.0,0.0
321,74.0,0.0,30.0,1.0,0.0
322,40.0,30.0,150.0,4.0,0.0
323,61.0,0.0,90.0,2.0,0.0
324,69.0,0.0,90.0,2.0,0.0
325,64.0,66.0,90.0,3.0,0.0
326,78.0,94.0,300.0,1.0,0.0
327,61.0,0.0,90.0,2.0,0.0
328,69.0,0.0,90.0,2.0,0.0
329,64.0,96.0,90.0,3.0,0.0
330,64.0,2.0,90.0,3.0,0.0
331,61.0,0.0,90.0,2.0,0.0
332,69.0,0.0,90.0,2.0,0.0
333,64.0,34.0,90.0,3.0,0.0
334,76.0,0.0,90.0,1.0,0.0
335,61.0,0.0,90.0,2.0,0.0
336,69.0,0.0,90.0,2.0,0.0
337,61.0,0.0,90.0,2.0,0.0
338,69.0,0.0,90.0,2.0,0.0
339,73.0,62.0,30.0,1.0,0.0
340,64.0,34.0,90.0,3.0,0.0
341,64.0,96.0,90.0,3.0,0.0
342,69.0,0.0,90.0,2.0,0.0
343,61.0,0.0,90.0,2.0,0.0
344,71.0,62.0,30.0,1.0,0.0
345,61.0,66.0,90.0,2.0,0.0
346,64.0,0.0,90.0,3.0,0.0
347,69.0,30.0,150.0,1.0,0.0
348,52.0,48.0,300.0,4.0,0.0
349,69.0,0.0,90.0,2.0,0.0
350,61.0,0.0,90.0,2.0,0.0
351,64.0,96.0,90.0,3.0,0.0
352,64.0,0.0,90.0,3.0,0.0
353,69.0,0.0,90.0,2.0,0.0
354,61.0,2.0,90.0,2.0,0.0
355,61.0,0.0,90.0,2.0,0.0
356,69.0,0.0,90.0,2.0,0.0
357,81.0,0.0,90.0,1.0,0.0
358,54.0,46.0,60.0,4.0,0.0
359,64.0,0.0,90.0,3.0,0.0
360,52.0,34.0,60.0,4.0,0.0
361,51.0,32.0,30.0,4.0,0.0
362,69.0,2.0,90.0,2.0,0.0
363,61.0,0.0,90.0,2.0,0.0
364,64.0,0.0,90.0,3.0,0.0
365,83.0,0.0,30.0,1.0,0.0
366,81.0,30.0,30.0,1.0,0.0
367,83.0,32.0,30.0,1.0,0.0
368,81.0,32.0,30.0,1.0,0.0
369,69.0,0.0,90.0,2.0,0.0
370,61.0,0.0,90.0,2.0,0.0
371,52.0,96.0,90.0,4.0,0.0
372,64.0,0.0,90.0,3.0,0.0
373,80.0,30.0,30.0,1.0,0.0
374,81.0,0.0,30.0,1.0,0.0
375,40.0,30.0,150.0,4.0,0.0
376,62.0,0.0,90.0,2.0,0.0
377,71.0,0.0,90.0,2.0,0.0
378,85.0,94.0,300.0,1.0,0.0
379,68.0,66.0,90.0,3.0,0.0
380,71.0,0.0,90.0,2.0,0.0
381,68.0,0.0,90.0,3.0,0.0
382,62.0,96.0,90.0,2.0,0.0
383,62.0,0.0,90.0,2.0,0.0
384,68.0,0.0,90.0,3.0,0.0
385,71.0,2.0,90.0,2.0,0.0
386,62.0,0.0,90.0,2.0,0.0
387,71.0,0.0,90.0,2.0,0.0
388,83.0,34.0,90.0,1.0,0.0
389,68.0,0.0,90.0,3.0,0.0
390,71.0,0.0,90.0,2.0,0.0
391,83.0,62.0,30.0,1.0,0.0
392,68.0,34.0,90.0,3.0,0.0
393,62.0,0.0,90.0,2.0,0.0
394,81.0,62.0,30.0,1.0,0.0
395,68.0,96.0,90.0,3.0,0.0
396,71.0,0.0,90.0,2.0,0.0
397,62.0,0.0,90.0,2.0,0.0
398,52.0,32.0,300.0,4.0,0.0
399,68.0,0.0,90.0,3.0,0.0
400,62.0,0.0,90.0,2.0,0.0
401,81.0,94.0,90.0,1.0,0.0
402,71.0,2.0,90.0,2.0,0.0
403,62.0,34.0,90.0,2.0,0.0
404,68.0,0.0,90.0,3.0,0.0
405,80.0,0.0,90.0,1.0,0.0
406,71.0,0.0,90.0,2.0,0.0
407,62.0,0.0,90.0,2.0,0.0
408,68.0,0.0,90.0,3.0,0.0
409,80.0,62.0,30.0,1.0,0.0
410,71.0,2.0,90.0,2.0,0.0
411,71.0,0.0,90.0,2.0,0.0
412,62.0,34.0,90.0,2.0,0.0
413,78.0,16.0,30.0,1.0,0.0
414,68.0,0.0,90.0,3.0,0.0
415,54.0,46.0,60.0,4.0,0.0
416,52.0,0.0,60.0,4.0,0.0
417,71.0,0.0,90.0,2.0,0.0
418,51.0,0.0,30.0,4.0,0.0
419,76.0,62.0,30.0,1.0,0.0
420,68.0,0.0,90.0,3.0,0.0
421,62.0,34.0,90.0,2.0,0.0
422,71.0,50.0,90.0,2.0,0.0
423,62.0,0.0,90.0,2.0,0.0
424,74.0,62.0,30.0,1.0,0.0
425,68.0,0.0,90.0,3.0,0.0
426,52.0,0.0,30.0,4.0,0.0
427,71.0,0.0,90.0,2.0,0.0
428,73.0,50.0,660.0,1.0,0.0
429,53.0,46.0,60.0,4.0,0.0
430,61.0,96.0,90.0,2.0,0.0
431,68.0,0.0,90.0,3.0,0.0
432,61.0,0.0,90.0,2.0,0.0
433,71.0,0.0,90.0,2.0,0.0
434,68.0,50.0,90.0,3.0,0.0
435,65.0,0.0,90.0,3.0,0.0
436,49.0,46.0,60.0,4.0,0.0
437,61.0,0.0,90.0,2.0,0.0
438,71.0,96.0,90.0,2.0,0.0
439,71.0,50.0,90.0,2.0,0.0
440,61.0,0.0,90.0,2.0,0.0
441,65.0,0.0,90.0,3.0,0.0
442,61.0,0.0,90.0,2.0,0.0
443,71.0,0.0,90.0,2.0,0.0
444,68.0,96.0,90.0,3.0,0.0
445,53.0,46.0,60.0,4.0,0.0
446,61.0,0.0,90.0,2.0,0.0
447,71.0,0.0,90.0,2.0,0.0
448,68.0,96.0,90.0,3.0,0.0
449,61.0,0.0,90.0,2.0,0.0
450,54.0,30.0,150.0,4.0,0.0
451,69.0,0.0,90.0,2.0,0.0
452,66.0,0.0,90.0,3.0,0.0
453,75.0,16.0,60.0,1.0,0.0
454,61.0,0.0,90.0,2.0,0.0
455,66.0,2.0,90.0,3.0,0.0
456,69.0,0.0,90.0,2.0,0.0
457,77.0,48.0,60.0,1.0,0.0
458,61.0,2.0,90.0,2.0,0.0
459,69.0,0.0,90.0,2.0,0.0
460,78.0,46.0,60.0,1.0,0.0
461,66.0,0.0,90.0,3.0,0.0
462,80.0,48.0,60.0,1.0,0.0
463,66.0,2.0,90.0,3.0,0.0
464,61.0,0.0,90.0,2.0,0.0
465,69.0,0.0,90.0,2.0,0.0
466,81.0,46.0,60.0,1.0,0.0
467,80.0,48.0,60.0,1.0,0.0
468,69.0,0.0,90.0,2.0,0.0
469,78.0,46.0,60.0,1.0,0.0
470,66.0,2.0,90.0,3.0,0.0
471,61.0,0.0,90.0,2.0,0.0
472,76.0,48.0,60.0,1.0,0.0
473,75.0,46.0,60.0,1.0,0.0
474,61.0,0.0,90.0,2.0,0.0
475,66.0,0.0,90.0,3.0,0.0
476,69.0,50.0,90.0,2.0,0.0
477,73.0,0.0,60.0,1.0,0.0
478,71.0,0.0,660.0,1.0,0.0
479,66.0,0.0,90.0,3.0,0.0
480,51.0,46.0,60.0,4.0,0.0
481,59.0,0.0,90.0,2.0,0.0
482,69.0,96.0,90.0,2.0,0.0
483,59.0,50.0,90.0,2.0,0.0
484,69.0,0.0,90.0,2.0,0.0
485,66.0,0.0,90.0,3.0,0.0
486,59.0,96.0,90.0,2.0,0.0
487,47.0,46.0,60.0,4.0,0.0
488,69.0,0.0,90.0,2.0,0.0
489,63.0,0.0,90.0,3.0,0.0
490,63.0,0.0,90.0,3.0,0.0
491,59.0,0.0,90.0,2.0,0.0
492,69.0,50.0,90.0,2.0,0.0
493,69.0,96.0,90.0,2.0,0.0
494,59.0,0.0,90.0,2.0,0.0
495,51.0,46.0,60.0,4.0,0.0
496,66.0,0.0,90.0,3.0,0.0
497,69.0,0.0,90.0,2.0,0.0
498,66.0,96.0,90.0,3.0,0.0
499,59.0,0.0,90.0,2.0,0.0
500,64.0,50.0,90.0,3.0,0.0
501,52.0,30.0,150.0,4.0,0.0
502,59.0,0.0,90.0,2.0,0.0
503,67.0,0.0,90.0,2.0,0.0
504,59.0,0.0,90.0,2.0,0.0
505,64.0,0.0,90.0,3.0,0.0
506,73.0,16.0,60.0,1.0,0.0
507,67.0,2.0,90.0,2.0,0.0
508,75.0,48.0,60.0,1.0,0.0
509,67.0,0.0,90.0,2.0,0.0
510,76.0,46.0,60.0,1.0,0.0
511,64.0,0.0,90.0,3.0,0.0
512,59.0,2.0,90.0,2.0,0.0
513,75.0,48.0,60.0,1.0,0.0
514,59.0,2.0,90.0,2.0,0.0
515,67.0,0.0,90.0,2.0,0.0
516,64.0,0.0,90.0,3.0,0.0
517,76.0,46.0,60.0,1.0,0.0
518,75.0,48.0,60.0,1.0,0.0
519,64.0,2.0,90.0,3.0,0.0
520,59.0,0.0,90.0,2.0,0.0
521,67.0,0.0,90.0,2.0,0.0
522,76.0,46.0,60.0,1.0,0.0
523,75.0,48.0,60.0,1.0,0.0
524,67.0,0.0,90.0,2.0,0.0
525,76.0,46.0,60.0,1.0,0.0
526,59.0,290.0,90.0,2.0,0.0
527,64.0,0.0,90.0,3.0,0.0
528,75.0,0.0,60.0,1.0,0.0
529,64.0,0.0,750.0,2.0,0.0
530,76.0,48.0,870.0,1.0,0.0
531,55.0,48.0,300.0,3.0,0.0
532,67.0,128.0,750.0,2.0,0.0
533,48.0,0.0,1110.0,4.0,0.0
534,57.0,46.0,60.0,3.0,0.0
535,55.0,34.0,60.0,3.0,0.0
536,54.0,96.0,30.0,3.0,0.0
537,55.0,224.0,30.0,3.0,0.0
538,55.0,16.0,540.0,3.0,0.0
539,64.0,30.0,150.0,2.0,0.0
540,77.0,16.0,60.0,1.0,0.0
541,76.0,34.0,60.0,1.0,0.0
542,74.0,96.0,30.0,1.0,0.0
543,64.0,320.0,150.0,2.0,0.0
544,76.0,16.0,30.0,1.0,0.0
545,55.0,46.0,300.0,3.0,0.0
546,65.0,0.0,750.0,2.0,0.0
547,50.0,16.0,1110.0,4.0,0.0
548,79.0,0.0,300.0,1.0,0.0
549,77.0,34.0,90.0,1.0,0.0
550,57.0,48.0,60.0,3.0,0.0
551,55.0,0.0,60.0,3.0,0.0
552,54.0,96.0,30.0,3.0,0.0
553,74.0,0.0,30.0,1.0,0.0
554,72.0,224.0,30.0,1.0,0.0
555,55.0,0.0,30.0,3.0,0.0
556,55.0,0.0,540.0,3.0,0.0
557,71.0,176.0,150.0,1.0,0.0
558,65.0,30.0,150.0,2.0,0.0
559,79.0,16.0,60.0,1.0,0.0
560,77.0,34.0,60.0,1.0,0.0
561,65.0,320.0,150.0,2.0,0.0
562,76.0,96.0,30.0,1.0,0.0
563,77.0,16.0,30.0,1.0,0.0
564,52.0,0.0,750.0,4.0,0.0
565,55.0,48.0,300.0,3.0,0.0
566,81.0,0.0,300.0,1.0,0.0
567,67.0,0.0,750.0,2.0,0.0
568,79.0,34.0,90.0,1.0,0.0
569,56.0,46.0,60.0,3.0,0.0
570,55.0,0.0,60.0,3.0,0.0
571,76.0,0.0,30.0,1.0,0.0
572,54.0,96.0,30.0,3.0,0.0
573,55.0,0.0,30.0,3.0,0.0
574,74.0,224.0,30.0,1.0,0.0
575,55.0,0.0,150.0,3.0,0.0
576,73.0,80.0,150.0,1.0,0.0
577,73.0,96.0,60.0,3.0,0.0
578,70.0,0.0,60.0,2.0,0.0
579,52.0,0.0,60.0,4.0,0.0
580,81.0,46.0,60.0,1.0,0.0
581,79.0,34.0,60.0,1.0,0.0
582,78.0,16.0,30.0,1.0,0.0
583,52.0,0.0,60.0,4.0,0.0
584,73.0,0.0,60.0,3.0,0.0
585,70.0,80.0,60.0,2.0,0.0
586,79.0,592.0,30.0,1.0,0.0
587,72.0,96.0,540.0,2.0,0.0
588,54.0,0.0,540.0,4.0,0.0
589,81.0,0.0,540.0,1.0,0.0
590,63.0,0.0,540.0,3.0,0.0
591,64.0,0.0,60.0,3.0,0.0
592,79.0,192.0,60.0,1.0,0.0
593,55.0,0.0,60.0,4.0,0.0
594,71.0,0.0,60.0,2.0,0.0
595,72.0,0.0,60.0,2.0,0.0
596,57.0,0.0,60.0,4.0,0.0
597,78.0,192.0,60.0,1.0,0.0
598,69.0,0.0,60.0,3.0,0.0
599,73.0,0.0,60.0,2.0,0.0
600,67.0,0.0,60.0,3.0,0.0
601,58.0,0.0,60.0,4.0,0.0
602,76.0,176.0,60.0,1.0,0.0
603,59.0,0.0,150.0,4.0,0.0
604,66.0,16.0,150.0,3.0,0.0
605,71.0,0.0,150.0,2.0,0.0
606,75.0,48.0,30.0,1.0,0.0
607,71.0,48.0,30.0,1.0,0.0
608,73.0,32.0,30.0,1.0,0.0
609,75.0,48.0,30.0,1.0,0.0
610,76.0,48.0,30.0,1.0,0.0
611,78.0,48.0,30.0,1.0,0.0
612,63.0,0.0,30.0,3.0,0.0
613,80.0,0.0,30.0,1.0,0.0
614,66.0,48.0,30.0,2.0,0.0
615,82.0,48.0,30.0,1.0,0.0
616,66.0,0.0,30.0,2.0,0.0
617,63.0,48.0,30.0,3.0,0.0
618,83.0,0.0,30.0,1.0,0.0
619,82.0,48.0,30.0,1.0,0.0
620,83.0,0.0,30.0,1.0,0.0
621,67.0,0.0,30.0,2.0,0.0
622,64.0,48.0,30.0,3.0,0.0
623,82.0,48.0,30.0,1.0,0.0
624,59.0,48.0,30.0,4.0,0.0
625,66.0,16.0,150.0,2.0,0.0
626,83.0,0.0,150.0,1.0,0.0
627,63.0,0.0,150.0,3.0,0.0
628,47.0,48.0,30.0,4.0,0.0
629,49.0,32.0,30.0,4.0,0.0
630,51.0,48.0,30.0,4.0,0.0
631,52.0,48.0,30.0,4.0,0.0
632,54.0,48.0,30.0,4.0,0.0
633,71.0,0.0,30.0,3.0,0.0
634,56.0,0.0,30.0,4.0,0.0
635,78.0,48.0,30.0,2.0,0.0
636,87.0,0.0,30.0,1.0,0.0
637,58.0,48.0,30.0,4.0,0.0
638,87.0,48.0,30.0,1.0,0.0
639,59.0,0.0,30.0,4.0,0.0
640,78.0,0.0,30.0,2.0,0.0
641,71.0,0.0,30.0,3.0,0.0
642,58.0,48.0,30.0,4.0,0.0
643,88.0,0.0,30.0,1.0,0.0
644,79.0,0.0,30.0,2.0,0.0
645,71.0,48.0,30.0,3.0,0.0
646,59.0,0.0,30.0,4.0,0.0
647,58.0,62.0,30.0,4.0,0.0
648,78.0,0.0,150.0,2.0,0.0
649,59.0,0.0,150.0,4.0,0.0
650,87.0,48.0,60.0,1.0,0.0
651,71.0,30.0,150.0,3.0,0.0
652,71.0,48.0,60.0,1.0,0.0
653,73.0,18.0,60.0,1.0,0.0
654,75.0,48.0,60.0,1.0,0.0
655,76.0,48.0,60.0,1.0,0.0
656,78.0,34.0,60.0,1.0,0.0
657,66.0,0.0,30.0,2.0,0.0
658,80.0,48.0,60.0,1.0,0.0
659,63.0,14.0,30.0,3.0,0.0
660,82.0,34.0,60.0,1.0,0.0
661,66.0,14.0,30.0,2.0,0.0
662,63.0,0.0,30.0,3.0,0.0
663,83.0,48.0,60.0,1.0,0.0
664,82.0,34.0,60.0,1.0,0.0
665,67.0,0.0,30.0,2.0,0.0
666,64.0,14.0,30.0,3.0,0.0
667,83.0,48.0,60.0,1.0,0.0
668,82.0,48.0,60.0,1.0,0.0
669,66.0,0.0,150.0,2.0,0.0
670,59.0,48.0,60.0,4.0,0.0
671,83.0,30.0,150.0,1.0,0.0
672,63.0,0.0,150.0,3.0,0.0
673,47.0,48.0,60.0,4.0,0.0
674,49.0,18.0,60.0,4.0,0.0
675,51.0,48.0,60.0,4.0,0.0
676,52.0,48.0,60.0,4.0,0.0
677,54.0,34.0,60.0,4.0,0.0
678,78.0,0.0,30.0,2.0,0.0
679,87.0,0.0,30.0,1.0,0.0
680,56.0,48.0,60.0,4.0,0.0
681,71.0,14.0,30.0,3.0,0.0
682,58.0,34.0,60.0,4.0,0.0
683,87.0,0.0,30.0,1.0,0.0
684,78.0,14.0,30.0,2.0,0.0
685,71.0,0.0,30.0,3.0,0.0
686,59.0,48.0,60.0,4.0,0.0
687,58.0,34.0,60.0,4.0,0.0
688,79.0,0.0,30.0,2.0,0.0
689,71.0,14.0,30.0,3.0,0.0
690,88.0,0.0,30.0,1.0,0.0
691,59.0,48.0,60.0,4.0,0.0
692,58.0,48.0,60.0,4.0,0.0
693,78.0,0.0,150.0,2.0,0.0
694,71.0,0.0,150.0,3.0,0.0
695,87.0,48.0,60.0,1.0,0.0
696,59.0,30.0,150.0,4.0,0.0
697,59.0,48.0,60.0,1.0,0.0
698,61.0,18.0,60.0,1.0,0.0
699,63.0,48.0,60.0,1.0,0.0
700,64.0,48.0,60.0,1.0,0.0
701,66.0,34.0,60.0,1.0,0.0
702,59.0,0.0,30.0,4.0,0.0
703,78.0,0.0,30.0,2.0,0.0
704,63.0,14.0,30.0,3.0,0.0
705,68.0,48.0,60.0,1.0,0.0
706,70.0,34.0,60.0,1.0,0.0
707,71.0,48.0,60.0,1.0,0.0
708,63.0,0.0,30.0,3.0,0.0
709,59.0,0.0,30.0,4.0,0.0
710,78.0,14.0,30.0,2.0,0.0
711,70.0,34.0,60.0,1.0,0.0
712,79.0,0.0,30.0,2.0,0.0
713,64.0,0.0,30.0,3.0,0.0
714,52.0,14.0,30.0,4.0,0.0
715,71.0,48.0,60.0,1.0,0.0
716,70.0,48.0,60.0,1.0,0.0
717,71.0,0.0,60.0,1.0,0.0
718,78.0,0.0,60.0,2.0,0.0
719,63.0,0.0,60.0,3.0,0.0
720,59.0,48.0,60.0,4.0,0.0
721,71.0,0.0,60.0,1.0,0.0
722,59.0,0.0,60.0,2.0,0.0
723,47.0,48.0,60.0,4.0,0.0
724,61.0,0.0,60.0,2.0,0.0
725,73.0,0.0,60.0,1.0,0.0
726,49.0,48.0,60.0,4.0,0.0
727,63.0,48.0,60.0,2.0,0.0
728,51.0,0.0,60.0,4.0,0.0
729,75.0,0.0,60.0,1.0,0.0
730,76.0,0.0,60.0,1.0,0.0
731,64.0,48.0,60.0,2.0,0.0
732,52.0,0.0,60.0,4.0,0.0
733,54.0,0.0,60.0,4.0,0.0
734,78.0,48.0,60.0,1.0,0.0
735,66.0,0.0,60.0,2.0,0.0
736,56.0,0.0,60.0,4.0,0.0
737,68.0,48.0,60.0,2.0,0.0
738,80.0,0.0,60.0,1.0,0.0
739,58.0,48.0,60.0,4.0,0.0
740,70.0,0.0,60.0,2.0,0.0
741,82.0,0.0,60.0,1.0,0.0
742,71.0,0.0,60.0,2.0,0.0
743,83.0,48.0,60.0,1.0,0.0
744,59.0,0.0,60.0,4.0,0.0
745,58.0,0.0,60.0,4.0,0.0
746,70.0,48.0,60.0,2.0,0.0
747,82.0,0.0,60.0,1.0,0.0
748,59.0,0.0,60.0,4.0,0.0
749,83.0,0.0,60.0,1.0,0.0
750,71.0,48.0,60.0,2.0,0.0
751,82.0,96.0,60.0,1.0,0.0
752,70.0,0.0,60.0,2.0,0.0
753,58.0,0.0,60.0,4.0,0.0
754,71.0,0.0,150.0,2.0,0.0
755,83.0,66.0,90.0,1.0,0.0
756,59.0,96.0,150.0,4.0,0.0
757,83.0,192.0,150.0,1.0,0.0
758,83.0,128.0,150.0,1.0,0.0
759,83.0,94.0,90.0,1.0,0.0
760,84.0,162.0,90.0,1.0,0.0
761,84.0,192.0,150.0,1.0,0.0
762,84.0,128.0,150.0,1.0,0.0
763,84.0,94.0,90.0,1.0,0.0
764,85.0,98.0,90.0,1.0,0.0
765,85.0,94.0,90.0,1.0,0.0
766,81.0,98.0,90.0,1.0,0.0
767,81.0,94.0,90.0,1.0,0.0
768,78.0,98.0,90.0,1.0,0.0
769,78.0,94.0,90.0,1.0,0.0
770,75.0,98.0,90.0,1.0,0.0
771,75.0,94.0,90.0,1.0,0.0
772,71.0,98.0,90.0,1.0,0.0
773,71.0,32.0,90.0,1.0,0.0
774,71.0,62.0,30.0,2.0,0.0
775,69.0,0.0,30.0,3.0,0.0
776,75.0,98.0,90.0,1.0,0.0
777,69.0,0.0,90.0,3.0,0.0
778,71.0,0.0,180.0,2.0,0.0
779,75.0,94.0,90.0,1.0,0.0
780,68.0,98.0,90.0,3.0,0.0
781,76.0,0.0,90.0,1.0,0.0
782,71.0,0.0,90.0,2.0,0.0
783,76.0,0.0,90.0,1.0,0.0
784,68.0,94.0,90.0,3.0,0.0
785,66.0,0.0,90.0,3.0,0.0
786,75.0,98.0,90.0,2.0,0.0
787,78.0,0.0,90.0,1.0,0.0
788,75.0,0.0,90.0,2.0,0.0
789,66.0,0.0,90.0,3.0,0.0
790,78.0,94.0,90.0,1.0,0.0
791,76.0,0.0,90.0,2.0,0.0
792,64.0,96.0,90.0,3.0,0.0
793,80.0,0.0,90.0,1.0,0.0
794,80.0,192.0,90.0,1.0,0.0
795,64.0,2.0,90.0,3.0,0.0
796,76.0,0.0,90.0,2.0,0.0
797,83.0,144.0,180.0,1.0,0.0
798,80.0,0.0,180.0,2.0,0.0
799,63.0,16.0,330.0,3.0,0.0
800,78.0,0.0,150.0,2.0,0.0
801,81.0,64.0,150.0,1.0,0.0
802,68.0,160.0,30.0,3.0,0.0
803,68.0,94.0,90.0,3.0,0.0
804,69.0,98.0,90.0,3.0,0.0
805,69.0,94.0,90.0,3.0,0.0
806,66.0,98.0,90.0,3.0,0.0
807,66.0,94.0,90.0,3.0,0.0
808,63.0,98.0,90.0,3.0,0.0
809,63.0,94.0,90.0,3.0,0.0
810,60.0,98.0,90.0,3.0,0.0
811,60.0,94.0,90.0,3.0,0.0
812,68.0,98.0,90.0,3.0,0.0
813,68.0,94.0,90.0,3.0,0.0
814,66.0,98.0,90.0,3.0,0.0
815,75.0,94.0,180.0,2.0,0.0
816,84.0,0.0,180.0,1.0,0.0
817,66.0,0.0,90.0,3.0,0.0
818,85.0,94.0,180.0,1.0,0.0
819,64.0,98.0,90.0,3.0,0.0
820,80.0,0.0,180.0,2.0,0.0
821,64.0,0.0,90.0,3.0,0.0
822,61.0,98.0,90.0,3.0,0.0
823,88.0,94.0,180.0,1.0,0.0
824,68.0,0.0,180.0,2.0,0.0
825,61.0,0.0,90.0,3.0,0.0
826,82.0,32.0,150.0,1.0,0.0
827,66.0,66.0,90.0,3.0,0.0
828,76.0,0.0,390.0,2.0,0.0
829,66.0,94.0,90.0,3.0,0.0
830,85.0,0.0,180.0,1.0,0.0
831,59.0,98.0,90.0,3.0,0.0
832,59.0,94.0,90.0,3.0,0.0
833,71.0,98.0,90.0,3.0,0.0
834,83.0,0.0,90.0,1.0,0.0
835,75.0,0.0,90.0,2.0,0.0
836,58.0,96.0,90.0,4.0,0.0
837,59.0,96.0,90.0,4.0,0.0
838,60.0,32.0,90.0,4.0,0.0
839,61.0,160.0,30.0,4.0,0.0
840,61.0,94.0,90.0,4.0,0.0
841,57.0,98.0,90.0,4.0,0.0
842,57.0,94.0,90.0,4.0,0.0
843,54.0,98.0,90.0,4.0,0.0
844,54.0,94.0,90.0,4.0,0.0
845,51.0,98.0,90.0,4.0,0.0
846,51.0,94.0,90.0,4.0,0.0
847,47.0,98.0,90.0,4.0,0.0
848,47.0,32.0,90.0,4.0,0.0
849,51.0,98.0,90.0,4.0,0.0
850,66.0,0.0,30.0,2.0,0.0
851,59.0,62.0,30.0,3.0,0.0
852,81.0,0.0,30.0,1.0,0.0
853,81.0,0.0,90.0,1.0,0.0
854,66.0,94.0,90.0,2.0,0.0
855,51.0,0.0,90.0,4.0,0.0
856,59.0,0.0,180.0,3.0,0.0
857,80.0,98.0,90.0,1.0,0.0
858,52.0,0.0,90.0,4.0,0.0
859,68.0,0.0,90.0,2.0,0.0
860,76.0,94.0,90.0,2.0,0.0
861,80.0,0.0,90.0,1.0,0.0
862,71.0,0.0,90.0,3.0,0.0
863,52.0,0.0,90.0,4.0,0.0
864,78.0,0.0,90.0,1.0,0.0
865,75.0,0.0,90.0,2.0,0.0
866,69.0,0.0,90.0,3.0,0.0
867,54.0,98.0,90.0,4.0,0.0
868,75.0,94.0,90.0,2.0,0.0
869,54.0,0.0,90.0,4.0,0.0
870,78.0,0.0,90.0,1.0,0.0
871,69.0,0.0,90.0,3.0,0.0
872,76.0,96.0,90.0,1.0,0.0
873,71.0,0.0,90.0,2.0,0.0
874,68.0,0.0,90.0,3.0,0.0
875,56.0,0.0,90.0,4.0,0.0
876,71.0,0.0,90.0,2.0,0.0
877,76.0,0.0,90.0,1.0,0.0
878,68.0,0.0,90.0,3.0,0.0
879,56.0,194.0,90.0,4.0,0.0
880,72.0,0.0,270.0,2.0,0.0
881,76.0,64.0,180.0,1.0,0.0
882,66.0,0.0,270.0,3.0,0.0
883,57.0,30.0,270.0,4.0,0.0
884,75.0,130.0,90.0,1.0,0.0
885,71.0,160.0,30.0,2.0,0.0
886,71.0,94.0,90.0,2.0,0.0
887,72.0,98.0,90.0,2.0,0.0
888,72.0,32.0,90.0,2.0,0.0
889,69.0,98.0,90.0,2.0,0.0
890,72.0,62.0,30.0,3.0,0.0
891,69.0,94.0,90.0,2.0,0.0
892,72.0,0.0,90.0,3.0,0.0
893,69.0,0.0,90.0,3.0,0.0
894,84.0,94.0,390.0,1.0,0.0
895,66.0,98.0,90.0,2.0,0.0
896,69.0,0.0,90.0,3.0,0.0
897,66.0,94.0,90.0,2.0,0.0
898,66.0,0.0,90.0,3.0,0.0
899,63.0,98.0,90.0,2.0,0.0
900,63.0,0.0,90.0,2.0,0.0
901,66.0,0.0,90.0,3.0,0.0
902,67.0,0.0,90.0,3.0,0.0
903,83.0,64.0,180.0,1.0,0.0
904,64.0,98.0,90.0,2.0,0.0
905,64.0,0.0,90.0,3.0,0.0
906,79.0,30.0,150.0,2.0,0.0
907,58.0,66.0,90.0,3.0,0.0
908,88.0,30.0,150.0,1.0,0.0
909,58.0,94.0,90.0,3.0,0.0
910,79.0,2.0,90.0,2.0,0.0
911,79.0,0.0,390.0,2.0,0.0
912,88.0,0.0,390.0,1.0,0.0
913,59.0,98.0,90.0,3.0,0.0
914,59.0,94.0,90.0,3.0,0.0
915,71.0,98.0,90.0,3.0,0.0
916,71.0,94.0,90.0,3.0,0.0
917,81.0,0.0,150.0,2.0,0.0
918,59.0,50.0,90.0,3.0,0.0
919,90.0,46.0,150.0,1.0,0.0
920,59.0,96.0,90.0,3.0,0.0
921,87.0,0.0,60.0,1.0,0.0
922,78.0,0.0,60.0,2.0,0.0
923,88.0,30.0,150.0,1.0,0.0
924,71.0,48.0,300.0,4.0,0.0
925,64.0,66.0,90.0,3.0,0.0
926,76.0,0.0,90.0,2.0,0.0
927,59.0,0.0,90.0,2.0,0.0
928,52.0,0.0,90.0,3.0,0.0
929,68.0,96.0,90.0,2.0,0.0
930,59.0,0.0,90.0,2.0,0.0
931,68.0,0.0,90.0,2.0,0.0
932,52.0,2.0,90.0,3.0,0.0
933,68.0,0.0,90.0,2.0,0.0
934,59.0,0.0,90.0,2.0,0.0
935,52.0,34.0,90.0,3.0,0.0
936,73.0,46.0,60.0,4.0,0.0
937,71.0,0.0,60.0,4.0,0.0
938,52.0,0.0,90.0,3.0,0.0
939,59.0,0.0,90.0,2.0,0.0
940,68.0,96.0,90.0,2.0,0.0
941,70.0,62.0,30.0,4.0,0.0
942,52.0,0.0,90.0,3.0,0.0
943,71.0,0.0,90.0,4.0,0.0
944,68.0,0.0,90.0,2.0,0.0
945,59.0,96.0,90.0,2.0,0.0
946,59.0,0.0,90.0,2.0,0.0
947,68.0,96.0,90.0,2.0,0.0
948,71.0,46.0,540.0,4.0,0.0
949,80.0,48.0,300.0,1.0,0.0
950,52.0,0.0,90.0,3.0,0.0
951,68.0,0.0,90.0,2.0,0.0
952,59.0,96.0,90.0,2.0,0.0
953,52.0,0.0,90.0,3.0,0.0
954,52.0,2.0,90.0,3.0,0.0
955,59.0,0.0,90.0,2.0,0.0
956,68.0,0.0,90.0,2.0,0.0
957,52.0,0.0,90.0,3.0,0.0
958,59.0,0.0,90.0,2.0,0.0
959,68.0,0.0,90.0,2.0,0.0
960,81.0,46.0,60.0,1.0,0.0
961,80.0,34.0,60.0,1.0,0.0
962,52.0,0.0,90.0,3.0,0.0
963,78.0,62.0,30.0,1.0,0.0
964,68.0,0.0,90.0,2.0,0.0
965,59.0,34.0,90.0,2.0,0.0
966,68.0,0.0,90.0,2.0,0.0
967,59.0,96.0,90.0,2.0,0.0
968,52.0,0.0,90.0,3.0,0.0
969,76.0,16.0,30.0,1.0,0.0
970,71.0,48.0,300.0,4.0,0.0
971,54.0,0.0,90.0,3.0,0.0
972,59.0,66.0,90.0,2.0,0.0
973,75.0,30.0,150.0,1.0,0.0
974,69.0,0.0,90.0,2.0,0.0
975,59.0,96.0,90.0,2.0,0.0
976,69.0,0.0,90.0,2.0,0.0
977,54.0,0.0,90.0,3.0,0.0
978,54.0,0.0,90.0,3.0,0.0
979,69.0,2.0,90.0,2.0,0.0
980,59.0,0.0,90.0,2.0,0.0
981,73.0,46.0,60.0,4.0,0.0
982,59.0,0.0,90.0,2.0,0.0
983,69.0,0.0,90.0,2.0,0.0
984,54.0,0.0,90.0,3.0,0.0
985,71.0,34.0,60.0,4.0,0.0
986,54.0,0.0,90.0,3.0,0.0
987,69.0,96.0,90.0,2.0,0.0
988,59.0,0.0,90.0,2.0,0.0
989,70.0,62.0,30.0,4.0,0.0
990,54.0,0.0,90.0,3.0,0.0
991,69.0,0.0,90.0,2.0,0.0
992,59.0,0.0,90.0,2.0,0.0
993,71.0,96.0,90.0,4.0,0.0
994,54.0,0.0,90.0,3.0,0.0
995,59.0,0.0,90.0,3.0,0.0
996,71.0,46.0,540.0,4.0,0.0
997,81.0,48.0,300.0,1.0,0.0
998,63.0,96.0,90.0,2.0,0.0
999,63.0,96.0,90.0,2.0,0.0
1000,54.0,0.0,90.0,3.0,0.0
1001,59.0,0.0,90.0,3.0,0.0
1002,59.0,0.0,90.0,3.0,0.0
1003,54.0,0.0,90.0,3.0,0.0
1004,63.0,2.0,90.0,2.0,0.0
1005,63.0,0.0,90.0,2.0,0.0
1006,83.0,46.0,60.0,1.0,0.0
1007,54.0,34.0,90.0,3.0,0.0
1008,59.0,0.0,90.0,3.0,0.0
1009,81.0,0.0,60.0,1.0,0.0
1010,80.0,62.0,30.0,1.0,0.0
1011,54.0,0.0,90.0,3.0,0.0
1012,59.0,0.0,90.0,3.0,0.0
1013,63.0,34.0,90.0,2.0,0.0
1014,54.0,0.0,90.0,3.0,0.0
1015,63.0,96.0,90.0,2.0,0.0
1016,78.0,16.0,30.0,1.0,0.0
1017,59.0,0.0,90.0,3.0,0.0
1018,62.0,0.0,90.0,2.0,0.0
1019,77.0,30.0,150.0,1.0,0.0
1020,71.0,48.0,300.0,4.0,0.0
1021,59.0,66.0,90.0,3.0,0.0
1022,56.0,0.0,90.0,3.0,0.0
1023,59.0,0.0,90.0,3.0,0.0
1024,56.0,96.0,90.0,3.0,0.0
1025,62.0,0.0,90.0,2.0,0.0
1026,56.0,2.0,90.0,3.0,0.0
1027,59.0,0.0,90.0,3.0,0.0
1028,62.0,0.0,90.0,2.0,0.0
1029,73.0,46.0,60.0,4.0,0.0
1030,62.0,0.0,90.0,2.0,0.0
1031,56.0,0.0,90.0,3.0,0.0
1032,59.0,34.0,90.0,3.0,0.0
1033,71.0,0.0,60.0,4.0,0.0
1034,56.0,0.0,90.0,3.0,0.0
1035,70.0,62.0,30.0,4.0,0.0
1036,62.0,0.0,90.0,2.0,0.0
1037,59.0,96.0,90.0,3.0,0.0
1038,59.0,96.0,90.0,3.0,0.0
1039,71.0,0.0,90.0,4.0,0.0
1040,62.0,0.0,90.0,2.0,0.0
1041,56.0,0.0,90.0,3.0,0.0
1042,59.0,96.0,90.0,2.0,0.0
1043,56.0,0.0,90.0,3.0,0.0
1044,74.0,46.0,540.0,4.0,0.0
1045,86.0,50.0,300.0,1.0,0.0
1046,71.0,0.0,90.0,2.0,0.0
1047,59.0,96.0,90.0,2.0,0.0
1048,56.0,0.0,90.0,3.0,0.0
1049,71.0,0.0,90.0,2.0,0.0
1050,59.0,0.0,90.0,2.0,0.0
1051,71.0,0.0,90.0,2.0,0.0
1052,56.0,0.0,90.0,3.0,0.0
1053,85.0,46.0,60.0,1.0,0.0
1054,71.0,0.0,90.0,2.0,0.0
1055,59.0,0.0,90.0,2.0,0.0
1056,56.0,2.0,90.0,3.0,0.0
1057,83.0,48.0,60.0,1.0,0.0
1058,71.0,0.0,90.0,2.0,0.0
1059,81.0,46.0,60.0,1.0,0.0
1060,59.0,0.0,90.0,2.0,0.0
1061,56.0,2.0,90.0,3.0,0.0
1062,80.0,48.0,60.0,1.0,0.0
1063,56.0,0.0,90.0,3.0,0.0
1064,78.0,0.0,60.0,1.0,0.0
1065,59.0,0.0,90.0,2.0,0.0
1066,71.0,34.0,90.0,2.0,0.0
1067,77.0,0.0,60.0,1.0,0.0
1068,61.0,0.0,60.0,2.0,0.0
1069,57.0,0.0,60.0,3.0,0.0
1070,73.0,32.0,60.0,4.0,0.0
1071,78.0,16.0,30.0,1.0,0.0
1072,73.0,48.0,30.0,1.0,0.0
1073,75.0,48.0,30.0,1.0,0.0
1074,77.0,48.0,30.0,1.0,0.0
1075,69.0,0.0,60.0,2.0,0.0
1076,66.0,0.0,60.0,3.0,0.0
1077,57.0,0.0,60.0,4.0,0.0
1078,78.0,16.0,30.0,1.0,0.0
1079,73.0,32.0,60.0,2.0,0.0
1080,80.0,48.0,30.0,1.0,0.0
1081,81.0,48.0,30.0,1.0,0.0
1082,80.0,48.0,30.0,1.0,0.0
1083,78.0,48.0,30.0,1.0,0.0
1084,73.0,48.0,30.0,1.0,0.0
1085,75.0,48.0,30.0,1.0,0.0
1086,77.0,62.0,30.0,1.0,0.0
1087,78.0,48.0,60.0,1.0,0.0
1088,80.0,48.0,60.0,1.0,0.0
1089,81.0,48.0,60.0,1.0,0.0
1090,80.0,48.0,60.0,1.0,0.0
1091,78.0,48.0,60.0,1.0,0.0
1092,73.0,48.0,60.0,1.0,0.0
1093,75.0,48.0,60.0,1.0,0.0
1094,77.0,48.0,60.0,1.0,0.0
1095,78.0,48.0,60.0,1.0,0.0
1096,80.0,48.0,60.0,1.0,0.0
1097,81.0,48.0,60.0,1.0,0.0
1098,80.0,48.0,60.0,1.0,0.0
1099,78.0,48.0,60.0,1.0,0.0
1100,73.0,48.0,60.0,1.0,0.0
1101,75.0,48.0,60.0,1.0,0.0
1102,77.0,48.0,60.0,1.0,0.0
1103,78.0,48.0,60.0,1.0,0.0
1104,80.0,48.0,60.0,1.0,0.0
1105,81.0,48.0,60.0,1.0,0.0
1106,80.0,48.0,60.0,1.0,0.0
1107,78.0,48.0,60.0,1.0,0.0
1108,73.0,48.0,60.0,1.0,0.0
1109,61.0,0.0,60.0,2.0,0.0
1110,49.0,0.0,60.0,4.0,0.0
1111,51.0,0.0,60.0,4.0,0.0
1112,75.0,48.0,60.0,1.0,0.0
1113,63.0,0.0,60.0,2.0,0.0
1114,77.0,48.0,60.0,1.0,0.0
1115,65.0,0.0,60.0,2.0,0.0
1116,53.0,0.0,60.0,4.0,0.0
1117,78.0,0.0,60.0,1.0,0.0
1118,66.0,48.0,60.0,2.0,0.0
1119,54.0,0.0,60.0,4.0,0.0
1120,80.0,0.0,60.0,1.0,0.0
1121,68.0,48.0,60.0,2.0,0.0
1122,56.0,0.0,60.0,4.0,0.0
1123,69.0,0.0,60.0,2.0,0.0
1124,81.0,0.0,60.0,1.0,0.0
1125,57.0,48.0,60.0,4.0,0.0
1126,59.0,0.0,60.0,4.0,0.0
1127,83.0,0.0,60.0,1.0,0.0
1128,71.0,48.0,60.0,2.0,0.0
1129,73.0,0.0,60.0,2.0,0.0
1130,85.0,0.0,60.0,1.0,0.0
1131,61.0,48.0,60.0,4.0,0.0
1132,83.0,48.0,60.0,1.0,0.0
1133,71.0,0.0,60.0,2.0,0.0
1134,59.0,0.0,60.0,4.0,0.0
1135,57.0,0.0,60.0,4.0,0.0
1136,69.0,0.0,60.0,2.0,0.0
1137,81.0,48.0,60.0,1.0,0.0
1138,80.0,0.0,60.0,1.0,0.0
1139,68.0,48.0,60.0,2.0,0.0
1140,56.0,0.0,60.0,4.0,0.0
1141,78.0,48.0,60.0,1.0,0.0
1142,66.0,0.0,60.0,2.0,0.0
1143,54.0,0.0,60.0,4.0,0.0
1144,52.0,0.0,60.0,4.0,0.0
1145,76.0,0.0,60.0,1.0,0.0
1146,64.0,48.0,60.0,2.0,0.0
1147,75.0,48.0,60.0,1.0,0.0
1148,51.0,0.0,60.0,4.0,0.0
1149,63.0,0.0,60.0,2.0,0.0
1150,49.0,0.0,60.0,4.0,0.0
1151,73.0,258.0,60.0,1.0,0.0
1152,61.0,0.0,60.0,2.0,0.0
1153,59.0,0.0,270.0,2.0,0.0
1154,47.0,80.0,270.0,4.0,0.0
1155,71.0,46.0,540.0,1.0,0.0
1156,61.0,48.0,60.0,2.0,0.0
1157,49.0,0.0,60.0,4.0,0.0
1158,51.0,0.0,60.0,4.0,0.0
1159,63.0,48.0,60.0,2.0,0.0
1160,64.0,0.0,60.0,2.0,0.0
1161,52.0,48.0,60.0,4.0,0.0
1162,54.0,0.0,60.0,4.0,0.0
1163,66.0,48.0,60.0,2.0,0.0
1164,68.0,0.0,60.0,2.0,0.0
1165,56.0,0.0,60.0,4.0,0.0
1166,58.0,0.0,60.0,4.0,0.0
1167,70.0,32.0,60.0,2.0,0.0
1168,59.0,2.0,90.0,4.0,0.0
1169,80.0,34.0,30.0,1.0,0.0
1170,71.0,0.0,90.0,2.0,0.0
1171,78.0,30.0,30.0,1.0,0.0
1172,80.0,32.0,30.0,1.0,0.0
1173,69.0,0.0,90.0,3.0,0.0
1174,78.0,32.0,30.0,1.0,0.0
1175,59.0,0.0,90.0,4.0,0.0
1176,75.0,2.0,90.0,2.0,0.0
1177,80.0,30.0,30.0,1.0,0.0
1178,78.0,32.0,30.0,1.0,0.0
1179,75.0,0.0,90.0,2.0,0.0
1180,59.0,0.0,90.0,4.0,0.0
1181,80.0,32.0,30.0,1.0,0.0
1182,69.0,2.0,90.0,3.0,0.0
1183,78.0,30.0,30.0,1.0,0.0
1184,80.0,32.0,30.0,1.0,0.0
1185,78.0,32.0,30.0,1.0,0.0
1186,75.0,0.0,90.0,2.0,0.0
1187,69.0,2.0,90.0,3.0,0.0
1188,59.0,0.0,90.0,4.0,0.0
1189,80.0,30.0,30.0,1.0,0.0
1190,78.0,32.0,30.0,1.0,0.0
1191,80.0,32.0,30.0,1.0,0.0
1192,69.0,2.0,90.0,3.0,0.0
1193,75.0,0.0,90.0,2.0,0.0
1194,59.0,0.0,90.0,4.0,0.0
1195,78.0,30.0,30.0,1.0,0.0
1196,80.0,32.0,30.0,1.0,0.0
1197,59.0,2.0,90.0,4.0,0.0
1198,75.0,0.0,90.0,2.0,0.0
1199,69.0,0.0,90.0,3.0,0.0
1200,78.0,32.0,30.0,1.0,0.0
1201,80.0,30.0,30.0,1.0,0.0
1202,78.0,160.0,30.0,1.0,0.0
1203,68.0,288.0,150.0,3.0,0.0
1204,52.0,0.0,150.0,4.0,0.0
1205,76.0,0.0,150.0,1.0,0.0
1206,56.0,94.0,300.0,3.0,0.0
1207,64.0,0.0,300.0,1.0,0.0
1208,59.0,32.0,270.0,2.0,0.0
1209,59.0,98.0,90.0,2.0,0.0
1210,63.0,0.0,90.0,1.0,0.0
1211,54.0,0.0,90.0,3.0,0.0
1212,59.0,0.0,90.0,2.0,0.0
1213,63.0,0.0,90.0,1.0,0.0
1214,54.0,94.0,90.0,3.0,0.0
1215,69.0,0.0,90.0,1.0,0.0
1216,63.0,0.0,90.0,3.0,0.0
1217,66.0,96.0,90.0,2.0,0.0
1218,69.0,94.0,90.0,1.0,0.0
1219,63.0,2.0,90.0,3.0,0.0
1220,66.0,0.0,90.0,2.0,0.0
1221,64.0,96.0,90.0,2.0,0.0
1222,68.0,0.0,90.0,1.0,0.0
1223,64.0,2.0,90.0,2.0,0.0
1224,68.0,94.0,90.0,1.0,0.0
1225,57.0,96.0,90.0,3.0,0.0
1226,73.0,0.0,90.0,1.0,0.0
1227,64.0,0.0,90.0,2.0,0.0
1228,64.0,2.0,90.0,2.0,0.0
1229,57.0,0.0,90.0,3.0,0.0
1230,73.0,94.0,90.0,1.0,0.0
1231,56.0,98.0,90.0,3.0,0.0
1232,71.0,0.0,90.0,1.0,0.0
1233,64.0,0.0,90.0,2.0,0.0
1234,64.0,0.0,90.0,2.0,0.0
1235,71.0,94.0,90.0,1.0,0.0
1236,56.0,0.0,90.0,3.0,0.0
1237,71.0,0.0,90.0,2.0,0.0
1238,68.0,0.0,90.0,3.0,0.0
1239,76.0,98.0,90.0,1.0,0.0
1240,71.0,94.0,90.0,2.0,0.0
1241,68.0,0.0,90.0,3.0,0.0
1242,76.0,0.0,90.0,1.0,0.0
1243,69.0,98.0,90.0,2.0,0.0
1244,75.0,0.0,90.0,1.0,0.0
1245,66.0,0.0,90.0,3.0,0.0
1246,66.0,0.0,90.0,3.0,0.0
1247,75.0,94.0,90.0,1.0,0.0
1248,69.0,0.0,90.0,2.0,0.0
1249,66.0,162.0,90.0,2.0,0.0
1250,63.0,0.0,90.0,3.0,0.0
1251,81.0,0.0,90.0,1.0,0.0
1252,63.0,0.0,150.0,3.0,0.0
1253,81.0,0.0,150.0,1.0,0.0
1254,66.0,1088.0,150.0,2.0,0.0
1255,64.0,624.0,540.0,4.0,0.0
1256,80.0,48.0,300.0,1.0,0.0
1257,76.0,0.0,540.0,2.0,0.0
1258,71.0,0.0,540.0,3.0,0.0
1259,81.0,46.0,60.0,1.0,0.0
1260,80.0,34.0,60.0,1.0,0.0
1261,78.0,96.0,30.0,1.0,0.0
1262,80.0,16.0,30.0,1.0,0.0
1263,76.0,0.0,570.0,2.0,0.0
1264,58.0,0.0,570.0,4.0,0.0
1265,85.0,0.0,570.0,1.0,0.0
1266,66.0,192.0,15.0,3.0,0.0
1267,57.0,0.0,180.0,4.0,0.0
1268,76.0,0.0,180.0,2.0,0.0
1269,85.0,0.0,180.0,1.0,0.0
1270,83.0,0.0,60.0,1.0,0.0
1271,68.0,192.0,60.0,3.0,0.0
1272,59.0,0.0,60.0,4.0,0.0
1273,76.0,0.0,60.0,2.0,0.0
1274,75.0,0.0,60.0,1.0,0.0
1275,69.0,0.0,60.0,2.0,0.0
1276,66.0,0.0,60.0,3.0,0.0
1277,47.0,192.0,60.0,4.0,0.0
1278,68.0,0.0,60.0,2.0,0.0
1279,52.0,0.0,60.0,4.0,0.0
1280,76.0,0.0,60.0,1.0,0.0
1281,64.0,432.0,60.0,3.0,0.0
1282,68.0,0.0,300.0,3.0,0.0
1283,71.0,94.0,300.0,2.0,0.0
1284,76.0,0.0,300.0,1.0,0.0
1285,75.0,0.0,90.0,1.0,0.0
1286,66.0,0.0,90.0,3.0,0.0
1287,69.0,98.0,90.0,2.0,0.0
1288,66.0,0.0,90.0,3.0,0.0
1289,69.0,94.0,90.0,2.0,0.0
1290,75.0,0.0,90.0,1.0,0.0
1291,63.0,0.0,90.0,3.0,0.0
1292,81.0,98.0,90.0,1.0,0.0
1293,66.0,0.0,90.0,2.0,0.0
1294,81.0,0.0,90.0,1.0,0.0
1295,66.0,0.0,90.0,2.0,0.0
1296,63.0,94.0,90.0,3.0,0.0
1297,80.0,0.0,90.0,1.0,0.0
1298,64.0,0.0,90.0,3.0,0.0
1299,68.0,98.0,90.0,2.0,0.0
1300,64.0,0.0,90.0,3.0,0.0
1301,68.0,94.0,90.0,2.0,0.0
1302,80.0,0.0,90.0,1.0,0.0
1303,69.0,96.0,90.0,3.0,0.0
1304,85.0,0.0,90.0,1.0,0.0
1305,76.0,0.0,90.0,2.0,0.0
1306,69.0,0.0,90.0,3.0,0.0
1307,76.0,2.0,90.0,2.0,0.0
1308,85.0,94.0,90.0,1.0,0.0
1309,68.0,0.0,90.0,3.0,0.0
1310,76.0,0.0,90.0,2.0,0.0
1311,83.0,98.0,90.0,1.0,0.0
1312,76.0,0.0,90.0,2.0,0.0
1313,83.0,94.0,90.0,1.0,0.0
1314,68.0,0.0,90.0,3.0,0.0
1315,83.0,0.0,90.0,2.0,0.0
1316,80.0,98.0,90.0,3.0,0.0
1317,88.0,0.0,90.0,1.0,0.0
1318,83.0,0.0,90.0,2.0,0.0
1319,80.0,94.0,90.0,3.0,0.0
1320,88.0,0.0,90.0,1.0,0.0
1321,81.0,0.0,90.0,2.0,0.0
1322,78.0,0.0,90.0,3.0,0.0
1323,87.0,98.0,90.0,1.0,0.0
1324,78.0,94.0,90.0,3.0,0.0
1325,81.0,0.0,90.0,2.0,0.0
1326,87.0,0.0,90.0,1.0,0.0
1327,93.0,0.0,90.0,1.0,0.0
1328,75.0,162.0,90.0,3.0,0.0
1329,78.0,0.0,90.0,2.0,0.0
1330,78.0,0.0,150.0,2.0,0.0
1331,93.0,0.0,150.0,1.0,0.0
1332,75.0,1328.0,150.0,3.0,0.0
1333,59.0,0.0,540.0,2.0,0.0
1334,64.0,0.0,540.0,3.0,0.0
1335,67.0,576.0,540.0,1.0,0.0
1336,52.0,0.0,540.0,4.0,0.0
1337,64.0,0.0,540.0,1.0,0.0
1338,60.0,0.0,540.0,3.0,0.0
1339,48.0,384.0,540.0,4.0,0.0
1340,67.0,0.0,540.0,1.0,0.0
1341,61.0,0.0,330.0,2.0,0.0
1342,46.0,0.0,330.0,4.0,0.0
1343,58.0,0.0,330.0,3.0,0.0
1344,64.0,208.0,330.0,1.0,0.0
1345,67.0,0.0,330.0,1.0,0.0
1346,61.0,0.0,150.0,2.0,0.0
1347,57.0,0.0,150.0,3.0,0.0
1348,64.0,80.0,150.0,1.0,0.0
1349,67.0,0.0,150.0,1.0,0.0
1350,45.0,0.0,150.0,4.0,0.0
1351,61.0,192.0,60.0,2.0,0.0
1352,68.0,0.0,60.0,1.0,0.0
1353,56.0,0.0,60.0,3.0,0.0
1354,64.0,0.0,60.0,1.0,0.0
1355,44.0,0.0,60.0,4.0,0.0
1356,42.0,0.0,60.0,4.0,0.0
1357,61.0,192.0,60.0,3.0,0.0
1358,66.0,0.0,60.0,2.0,0.0
1359,69.0,0.0,60.0,1.0,0.0
1360,66.0,0.0,60.0,1.0,0.0
1361,63.0,0.0,60.0,2.0,0.0
1362,57.0,238.0,60.0,3.0,0.0
1363,47.0,0.0,60.0,4.0,0.0
1364,56.0,66.0,90.0,3.0,0.0
1365,64.0,30.0,150.0,1.0,0.0
1366,52.0,48.0,300.0,4.0,0.0
1367,68.0,0.0,90.0,2.0,0.0
1368,64.0,96.0,90.0,3.0,0.0
1369,59.0,0.0,90.0,2.0,0.0
1370,68.0,2.0,90.0,2.0,0.0
1371,59.0,0.0,90.0,2.0,0.0
1372,64.0,0.0,90.0,3.0,0.0
1373,64.0,0.0,90.0,3.0,0.0
1374,68.0,0.0,90.0,2.0,0.0
1375,59.0,34.0,90.0,2.0,0.0
1376,54.0,46.0,60.0,4.0,0.0
1377,52.0,0.0,60.0,4.0,0.0
1378,64.0,34.0,90.0,3.0,0.0
1379,59.0,0.0,90.0,2.0,0.0
1380,51.0,62.0,30.0,4.0,0.0
1381,68.0,0.0,90.0,2.0,0.0
1382,52.0,62.0,30.0,4.0,0.0
1383,64.0,0.0,90.0,3.0,0.0
1384,59.0,96.0,90.0,2.0,0.0
1385,68.0,0.0,90.0,2.0,0.0
1386,64.0,0.0,90.0,3.0,0.0
1387,40.0,30.0,150.0,4.0,0.0
1388,68.0,66.0,90.0,2.0,0.0
1389,59.0,0.0,90.0,2.0,0.0
1390,59.0,0.0,90.0,2.0,0.0
1391,68.0,96.0,90.0,2.0,0.0
1392,64.0,0.0,90.0,3.0,0.0
1393,68.0,0.0,90.0,2.0,0.0
1394,64.0,66.0,90.0,3.0,0.0
1395,59.0,0.0,90.0,2.0,0.0
1396,80.0,30.0,150.0,1.0,0.0
1397,59.0,0.0,90.0,2.0,0.0
1398,64.0,0.0,90.0,3.0,0.0
1399,68.0,34.0,90.0,2.0,0.0
1400,68.0,0.0,90.0,2.0,0.0
1401,59.0,2.0,90.0,2.0,0.0
1402,64.0,0.0,90.0,3.0,0.0
1403,81.0,32.0,30.0,1.0,0.0
1404,80.0,30.0,30.0,1.0,0.0
1405,81.0,32.0,30.0,1.0,0.0
1406,59.0,96.0,90.0,2.0,0.0
1407,68.0,0.0,90.0,2.0,0.0
1408,64.0,0.0,90.0,3.0,0.0
1409,80.0,32.0,30.0,1.0,0.0
1410,78.0,30.0,30.0,1.0,0.0
1411,80.0,0.0,30.0,1.0,0.0
1412,66.0,0.0,90.0,3.0,0.0
1413,52.0,48.0,300.0,4.0,0.0
1414,69.0,0.0,90.0,2.0,0.0
1415,59.0,96.0,90.0,2.0,0.0
1416,83.0,94.0,180.0,1.0,0.0
1417,69.0,0.0,90.0,2.0,0.0
1418,66.0,2.0,90.0,3.0,0.0
1419,59.0,0.0,90.0,2.0,0.0
1420,81.0,30.0,150.0,1.0,0.0
1421,69.0,0.0,90.0,2.0,0.0
1422,59.0,2.0,90.0,2.0,0.0
1423,66.0,0.0,90.0,3.0,0.0
1424,66.0,0.0,90.0,3.0,0.0
1425,54.0,16.0,60.0,4.0,0.0
1426,59.0,0.0,90.0,2.0,0.0
1427,69.0,34.0,90.0,2.0,0.0
1428,52.0,0.0,60.0,4.0,0.0
1429,69.0,0.0,90.0,2.0,0.0
1430,51.0,62.0,30.0,4.0,0.0
1431,66.0,34.0,90.0,3.0,0.0
1432,59.0,0.0,90.0,2.0,0.0
1433,59.0,0.0,90.0,2.0,0.0
1434,69.0,0.0,90.0,2.0,0.0
1435,66.0,96.0,90.0,3.0,0.0
1436,52.0,62.0,30.0,4.0,0.0
1437,69.0,0.0,90.0,2.0,0.0
1438,40.0,30.0,150.0,4.0,0.0
1439,66.0,0.0,90.0,3.0,0.0
1440,59.0,66.0,90.0,2.0,0.0
1441,66.0,96.0,90.0,3.0,0.0
1442,69.0,0.0,90.0,2.0,0.0
1443,59.0,0.0,90.0,2.0,0.0
1444,59.0,66.0,90.0,2.0,0.0
1445,69.0,0.0,90.0,2.0,0.0
1446,66.0,0.0,90.0,3.0,0.0
1447,87.0,30.0,150.0,1.0,0.0
1448,66.0,34.0,90.0,3.0,0.0
1449,59.0,0.0,90.0,2.0,0.0
1450,69.0,0.0,90.0,2.0,0.0
1451,66.0,0.0,90.0,3.0,0.0
1452,69.0,0.0,90.0,2.0,0.0
1453,88.0,32.0,30.0,1.0,0.0
1454,59.0,2.0,90.0,2.0,0.0
1455,87.0,30.0,30.0,1.0,0.0
1456,88.0,32.0,30.0,1.0,0.0
1457,66.0,0.0,90.0,3.0,0.0
1458,87.0,32.0,30.0,1.0,0.0
1459,59.0,0.0,90.0,2.0,0.0
1460,69.0,0.0,90.0,2.0,0.0
1461,85.0,30.0,30.0,1.0,0.0
1462,87.0,50.0,30.0,1.0,0.0
1463,68.0,2.0,90.0,2.0,0.0
1464,59.0,0.0,90.0,2.0,0.0
1465,64.0,0.0,90.0,3.0,0.0
1466,54.0,46.0,60.0,4.0,0.0
1467,88.0,48.0,90.0,1.0,0.0
1468,52.0,0.0,60.0,4.0,0.0
1469,51.0,46.0,60.0,4.0,0.0
1470,59.0,0.0,90.0,2.0,0.0
1471,92.0,0.0,90.0,1.0,0.0
1472,64.0,0.0,90.0,3.0,0.0
1473,68.0,50.0,90.0,2.0,0.0
1474,52.0,0.0,60.0,4.0,0.0
1475,64.0,0.0,90.0,3.0,0.0
1476,83.0,30.0,150.0,1.0,0.0
1477,59.0,0.0,90.0,2.0,0.0
1478,68.0,2.0,90.0,2.0,0.0
1479,54.0,46.0,60.0,4.0,0.0
1480,52.0,48.0,60.0,4.0,0.0
1481,51.0,16.0,60.0,4.0,0.0
1482,64.0,0.0,90.0,3.0,0.0
1483,59.0,0.0,90.0,2.0,0.0
1484,68.0,50.0,90.0,2.0,0.0
1485,52.0,0.0,60.0,4.0,0.0
1486,64.0,0.0,90.0,3.0,0.0
1487,68.0,0.0,90.0,2.0,0.0
1488,54.0,46.0,60.0,4.0,0.0
1489,59.0,2.0,90.0,2.0,0.0
1490,52.0,48.0,60.0,4.0,0.0
1491,59.0,0.0,90.0,2.0,0.0
1492,64.0,50.0,90.0,3.0,0.0
1493,51.0,46.0,60.0,4.0,0.0
1494,68.0,0.0,90.0,2.0,0.0
1495,52.0,0.0,60.0,4.0,0.0
1496,68.0,2.0,90.0,2.0,0.0
1497,59.0,0.0,90.0,2.0,0.0
1498,81.0,46.0,60.0,1.0,0.0
1499,40.0,30.0,150.0,4.0,0.0
1500,64.0,0.0,90.0,3.0,0.0
1501,80.0,48.0,60.0,1.0,0.0
1502,78.0,16.0,60.0,1.0,0.0
1503,64.0,0.0,90.0,3.0,0.0
1504,68.0,0.0,90.0,2.0,0.0
1505,59.0,50.0,90.0,2.0,0.0
1506,80.0,0.0,60.0,1.0,0.0
1507,81.0,46.0,60.0,1.0,0.0
1508,64.0,0.0,90.0,3.0,0.0
1509,59.0,0.0,90.0,2.0,0.0
1510,68.0,2.0,90.0,2.0,0.0
1511,80.0,48.0,60.0,1.0,0.0
1512,59.0,0.0,90.0,2.0,0.0
1513,68.0,0.0,90.0,2.0,0.0
1514,64.0,50.0,90.0,3.0,0.0
1515,78.0,46.0,60.0,1.0,0.0
1516,80.0,0.0,60.0,1.0,0.0
1517,64.0,2.0,90.0,3.0,0.0
1518,81.0,46.0,60.0,1.0,0.0
1519,68.0,0.0,90.0,2.0,0.0
1520,59.0,0.0,90.0,2.0,0.0
1521,80.0,48.0,60.0,1.0,0.0
1522,78.0,46.0,60.0,1.0,0.0
1523,59.0,0.0,90.0,2.0,0.0
1524,68.0,0.0,90.0,2.0,0.0
1525,64.0,50.0,90.0,3.0,0.0
1526,80.0,0.0,60.0,1.0,0.0
1527,66.0,2.0,90.0,3.0,0.0
1528,54.0,46.0,60.0,4.0,0.0
1529,69.0,0.0,90.0,2.0,0.0
1530,59.0,0.0,90.0,2.0,0.0
1531,83.0,48.0,180.0,1.0,0.0
1532,52.0,48.0,60.0,4.0,0.0
1533,59.0,2.0,90.0,2.0,0.0
1534,66.0,0.0,90.0,3.0,0.0
1535,51.0,46.0,60.0,4.0,0.0
1536,69.0,0.0,90.0,2.0,0.0
1537,52.0,0.0,60.0,4.0,0.0
1538,54.0,46.0,60.0,4.0,0.0
1539,81.0,30.0,150.0,1.0,0.0
1540,69.0,0.0,90.0,2.0,0.0
1541,59.0,0.0,90.0,2.0,0.0
1542,66.0,2.0,90.0,3.0,0.0
1543,52.0,48.0,60.0,4.0,0.0
1544,51.0,16.0,60.0,4.0,0.0
1545,59.0,50.0,90.0,2.0,0.0
1546,66.0,0.0,90.0,3.0,0.0
1547,69.0,0.0,90.0,2.0,0.0
1548,52.0,0.0,60.0,4.0,0.0
1549,59.0,0.0,90.0,2.0,0.0
1550,54.0,46.0,60.0,4.0,0.0
1551,66.0,0.0,90.0,3.0,0.0
1552,69.0,2.0,90.0,2.0,0.0
1553,52.0,48.0,60.0,4.0,0.0
1554,59.0,0.0,90.0,2.0,0.0
1555,51.0,46.0,60.0,4.0,0.0
1556,69.0,0.0,90.0,2.0,0.0
1557,66.0,50.0,90.0,3.0,0.0
1558,52.0,0.0,60.0,4.0,0.0
1559,40.0,30.0,150.0,4.0,0.0
1560,69.0,0.0,90.0,2.0,0.0
1561,66.0,2.0,90.0,3.0,0.0
1562,88.0,46.0,60.0,1.0,0.0
1563,59.0,0.0,90.0,2.0,0.0
1564,87.0,48.0,60.0,1.0,0.0
1565,85.0,16.0,60.0,1.0,0.0
1566,69.0,0.0,90.0,2.0,0.0
1567,66.0,0.0,90.0,3.0,0.0
1568,59.0,0.0,90.0,2.0,0.0
1569,87.0,50.0,60.0,1.0,0.0
1570,66.0,0.0,90.0,3.0,0.0
1571,59.0,0.0,90.0,2.0,0.0
1572,69.0,2.0,90.0,2.0,0.0
1573,88.0,46.0,60.0,1.0,0.0
1574,87.0,48.0,60.0,1.0,0.0
1575,66.0,0.0,90.0,3.0,0.0
1576,85.0,46.0,60.0,1.0,0.0
1577,59.0,0.0,90.0,2.0,0.0
1578,69.0,0.0,90.0,2.0,0.0
1579,87.0,50.0,60.0,1.0,0.0
1580,88.0,46.0,60.0,1.0,0.0
1581,59.0,0.0,90.0,2.0,0.0
1582,69.0,0.0,90.0,2.0,0.0
1583,66.0,2.0,90.0,3.0,0.0
1584,87.0,48.0,60.0,1.0,0.0
1585,59.0,34.0,90.0,2.0,0.0
1586,69.0,0.0,90.0,2.0,0.0
1587,66.0,0.0,90.0,3.0,0.0
1588,85.0,46.0,60.0,1.0,0.0
1589,87.0,0.0,60.0,1.0,0.0
1590,88.0,16.0,30.0,1.0,0.0
1591,59.0,0.0,60.0,2.0,0.0
1592,52.0,32.0,60.0,4.0,0.0
1593,64.0,0.0,60.0,3.0,0.0
1594,68.0,0.0,60.0,2.0,0.0
1595,92.0,48.0,30.0,1.0,0.0
1596,90.0,48.0,30.0,1.0,0.0
1597,88.0,48.0,30.0,1.0,0.0
1598,76.0,0.0,60.0,2.0,0.0
1599,68.0,0.0,60.0,3.0,0.0
1600,59.0,0.0,60.0,3.0,0.0
1601,87.0,16.0,30.0,1.0,0.0
1602,52.0,32.0,60.0,4.0,0.0
1603,85.0,48.0,30.0,1.0,0.0
1604,83.0,48.0,30.0,1.0,0.0
1605,81.0,48.0,30.0,1.0,0.0
1606,80.0,48.0,30.0,1.0,0.0
1607,88.0,48.0,30.0,1.0,0.0
1608,87.0,48.0,30.0,1.0,0.0
1609,85.0,62.0,30.0,1.0,0.0
1610,83.0,48.0,60.0,1.0,0.0
1611,81.0,48.0,60.0,1.0,0.0
1612,80.0,48.0,60.0,1.0,0.0
1613,78.0,48.0,60.0,1.0,0.0
1614,76.0,48.0,60.0,1.0,0.0
1615,83.0,48.0,60.0,1.0,0.0
1616,81.0,48.0,60.0,1.0,0.0
1617,80.0,48.0,60.0,1.0,0.0
1618,78.0,48.0,60.0,1.0,0.0
1619,76.0,48.0,60.0,1.0,0.0
1620,75.0,48.0,60.0,1.0,0.0
1621,73.0,48.0,60.0,1.0,0.0
1622,71.0,48.0,60.0,1.0,0.0
1623,80.0,48.0,60.0,1.0,0.0
1624,78.0,48.0,60.0,1.0,0.0
1625,76.0,48.0,60.0,1.0,0.0
1626,75.0,48.0,60.0,1.0,0.0
1627,73.0,48.0,60.0,1.0,0.0
1628,71.0,48.0,60.0,1.0,0.0
1629,69.0,48.0,60.0,1.0,0.0
1630,68.0,0.0,60.0,1.0,0.0
1631,56.0,48.0,60.0,4.0,0.0
1632,76.0,48.0,60.0,1.0,0.0
1633,64.0,0.0,60.0,4.0,0.0
1634,63.0,0.0,60.0,4.0,0.0
1635,75.0,48.0,60.0,1.0,0.0
1636,61.0,0.0,60.0,4.0,0.0
1637,73.0,48.0,60.0,1.0,0.0
1638,71.0,0.0,60.0,1.0,0.0
1639,59.0,48.0,60.0,4.0,0.0
1640,57.0,0.0,60.0,4.0,0.0
1641,69.0,48.0,60.0,1.0,0.0
1642,56.0,0.0,60.0,4.0,0.0
1643,68.0,48.0,60.0,1.0,0.0
1644,54.0,0.0,60.0,4.0,0.0
1645,66.0,50.0,60.0,1.0,0.0
1646,64.0,0.0,60.0,1.0,0.0
1647,52.0,48.0,60.0,4.0,0.0
1648,51.0,0.0,60.0,4.0,0.0
1649,63.0,48.0,60.0,1.0,0.0
1650,52.0,48.0,60.0,4.0,0.0
1651,64.0,0.0,60.0,1.0,0.0
1652,51.0,48.0,60.0,4.0,0.0
1653,63.0,0.0,60.0,1.0,0.0
1654,64.0,0.0,60.0,1.0,0.0
1655,52.0,48.0,60.0,4.0,0.0
1656,63.0,0.0,60.0,1.0,0.0
1657,51.0,48.0,60.0,4.0,0.0
1658,64.0,46.0,60.0,1.0,0.0
1659,52.0,0.0,60.0,4.0,0.0
1660,63.0,50.0,60.0,1.0,0.0
1661,51.0,0.0,60.0,4.0,0.0
1662,52.0,192.0,60.0,4.0,0.0
1663,64.0,0.0,60.0,1.0,0.0
1664,59.0,0.0,60.0,2.0,0.0
1665,64.0,192.0,60.0,1.0,0.0
1666,56.0,0.0,60.0,3.0,0.0
1667,40.0,0.0,60.0,4.0,0.0
1668,40.0,0.0,60.0,4.0,0.0
1669,56.0,0.0,60.0,3.0,0.0
1670,59.0,0.0,60.0,2.0,0.0
1671,64.0,192.0,60.0,1.0,0.0
1672,59.0,0.0,60.0,2.0,0.0
1673,64.0,816.0,60.0,1.0,0.0
1674,40.0,0.0,60.0,4.0,0.0
1675,56.0,0.0,60.0,3.0,0.0
1676,57.0,48.0,300.0,3.0,0.0
1677,69.0,0.0,300.0,1.0,0.0
1678,59.0,46.0,60.0,3.0,0.0
1679,71.0,0.0,60.0,1.0,0.0
1680,57.0,0.0,60.0,3.0,0.0
1681,69.0,34.0,60.0,1.0,0.0
1682,56.0,0.0,30.0,3.0,0.0
1683,68.0,96.0,30.0,1.0,0.0
1684,69.0,224.0,30.0,1.0,0.0
1685,57.0,0.0,30.0,3.0,0.0
1686,64.0,0.0,150.0,1.0,0.0
1687,52.0,704.0,150.0,3.0,0.0
1688,57.0,0.0,300.0,3.0,0.0
1689,69.0,48.0,300.0,1.0,0.0
1690,59.0,46.0,60.0,3.0,0.0
1691,71.0,0.0,60.0,1.0,0.0
1692,69.0,0.0,60.0,1.0,0.0
1693,57.0,34.0,60.0,3.0,0.0
1694,68.0,96.0,30.0,1.0,0.0
1695,56.0,0.0,30.0,3.0,0.0
1696,69.0,224.0,30.0,1.0,0.0
1697,57.0,0.0,30.0,3.0,0.0
1698,66.0,704.0,150.0,1.0,0.0
1699,54.0,0.0,150.0,3.0,0.0
1700,81.0,48.0,300.0,1.0,0.0
1701,74.0,0.0,570.0,2.0,0.0
1702,54.0,384.0,570.0,4.0,0.0
1703,66.0,0.0,570.0,3.0,0.0
1704,83.0,46.0,60.0,1.0,0.0
1705,81.0,34.0,60.0,1.0,0.0
1706,80.0,96.0,30.0,1.0,0.0
1707,81.0,64.0,30.0,1.0,0.0
1708,83.0,0.0,390.0,1.0,0.0
1709,64.0,0.0,570.0,3.0,0.0
1710,74.0,160.0,390.0,2.0,0.0
1711,56.0,192.0,570.0,4.0,0.0
1712,71.0,32.0,150.0,2.0,0.0
1713,74.0,0.0,150.0,1.0,0.0
1714,64.0,0.0,180.0,3.0,0.0
1715,73.0,0.0,390.0,1.0,0.0
1716,57.0,192.0,180.0,4.0,0.0
1717,69.0,0.0,390.0,2.0,0.0
1718,66.0,142.0,180.0,3.0,0.0
1719,54.0,0.0,180.0,4.0,0.0
1720,78.0,16.0,150.0,1.0,0.0
1721,59.0,0.0,150.0,3.0,0.0
1722,74.0,2.0,150.0,2.0,0.0
1723,50.0,30.0,150.0,4.0,0.0
1724,71.0,0.0,60.0,2.0,0.0
1725,74.0,98.0,60.0,1.0,0.0
1726,52.0,16.0,540.0,4.0,0.0
1727,69.0,0.0,390.0,2.0,0.0
1728,73.0,144.0,390.0,1.0,0.0
1729,64.0,96.0,90.0,3.0,0.0
1730,63.0,96.0,90.0,3.0,0.0
1731,64.0,96.0,90.0,3.0,0.0
1732,63.0,0.0,90.0,3.0,0.0
1733,71.0,0.0,150.0,1.0,0.0
1734,64.0,0.0,150.0,3.0,0.0
1735,68.0,320.0,150.0,2.0,0.0
1736,69.0,48.0,300.0,1.0,0.0
1737,57.0,0.0,300.0,3.0,0.0
1738,59.0,0.0,60.0,3.0,0.0
1739,71.0,46.0,60.0,1.0,0.0
1740,57.0,34.0,60.0,3.0,0.0
1741,69.0,0.0,60.0,1.0,0.0
1742,68.0,96.0,30.0,1.0,0.0
1743,56.0,0.0,30.0,3.0,0.0
1744,69.0,0.0,30.0,1.0,0.0
1745,57.0,224.0,30.0,3.0,0.0
1746,64.0,704.0,150.0,1.0,0.0
1747,52.0,0.0,150.0,3.0,0.0
1748,57.0,0.0,300.0,3.0,0.0
1749,69.0,48.0,300.0,1.0,0.0
1750,59.0,0.0,60.0,3.0,0.0
1751,71.0,46.0,60.0,1.0,0.0
1752,69.0,0.0,60.0,1.0,0.0
1753,57.0,34.0,60.0,3.0,0.0
1754,68.0,96.0,30.0,1.0,0.0
1755,56.0,0.0,30.0,3.0,0.0
1756,57.0,224.0,30.0,3.0,0.0
1757,69.0,0.0,30.0,1.0,0.0
1758,54.0,704.0,150.0,3.0,0.0
1759,66.0,0.0,150.0,1.0,0.0
1760,81.0,48.0,300.0,1.0,0.0
1761,83.0,46.0,60.0,1.0,0.0
1762,81.0,34.0,60.0,1.0,0.0
1763,80.0,96.0,30.0,1.0,0.0
1764,81.0,448.0,30.0,1.0,0.0
1765,85.0,0.0,390.0,1.0,0.0
1766,74.0,0.0,390.0,3.0,0.0
1767,83.0,320.0,150.0,1.0,0.0
1768,65.0,160.0,15.0,4.0,0.0
1769,80.0,0.0,15.0,2.0,0.0
1770,74.0,0.0,150.0,3.0,0.0
1771,83.0,48.0,300.0,1.0,0.0
1772,85.0,46.0,60.0,1.0,0.0
1773,83.0,34.0,60.0,1.0,0.0
1774,82.0,96.0,30.0,1.0,0.0
1775,83.0,448.0,30.0,1.0,0.0
1776,86.0,0.0,390.0,1.0,0.0
1777,76.0,0.0,390.0,2.0,0.0
1778,70.0,0.0,390.0,4.0,0.0
1779,79.0,160.0,15.0,3.0,0.0
1780,85.0,0.0,150.0,1.0,0.0
1781,70.0,320.0,150.0,4.0,0.0
1782,76.0,0.0,150.0,2.0,0.0
1783,85.0,48.0,300.0,1.0,0.0
1784,86.0,46.0,60.0,1.0,0.0
1785,85.0,34.0,60.0,1.0,0.0
1786,83.0,96.0,30.0,1.0,0.0
1787,85.0,320.0,30.0,1.0,0.0
1788,79.0,0.0,300.0,2.0,0.0
1789,88.0,0.0,300.0,1.0,0.0
1790,70.0,94.0,300.0,3.0,0.0
1791,62.0,32.0,270.0,4.0,0.0
1792,86.0,0.0,90.0,1.0,0.0
1793,71.0,94.0,90.0,3.0,0.0
1794,62.0,2.0,90.0,4.0,0.0
1795,78.0,0.0,90.0,2.0,0.0
1796,73.0,0.0,90.0,3.0,0.0
1797,62.0,2.0,90.0,4.0,0.0
1798,76.0,0.0,90.0,2.0,0.0
1799,85.0,94.0,90.0,1.0,0.0
1800,74.0,0.0,90.0,2.0,0.0
1801,83.0,0.0,90.0,1.0,0.0
1802,62.0,290.0,90.0,4.0,0.0
1803,76.0,0.0,390.0,3.0,0.0
1804,73.0,0.0,300.0,2.0,0.0
1805,64.0,0.0,390.0,4.0,0.0
1806,81.0,24.0,300.0,1.0,0.0
1807,74.0,24.0,20.0,2.0,0.0
1808,83.0,0.0,20.0,1.0,0.0
1809,73.0,0.0,20.0,2.0,0.0
1810,81.0,24.0,20.0,1.0,0.0
1811,80.0,24.0,20.0,1.0,0.0
1812,71.0,0.0,20.0,2.0,0.0
1813,73.0,96.0,20.0,2.0,0.0
1814,81.0,0.0,20.0,1.0,0.0
1815,85.0,64.0,90.0,1.0,0.0
1816,52.0,0.0,150.0,4.0,0.0
1817,68.0,30.0,150.0,3.0,0.0
1818,76.0,0.0,90.0,2.0,0.0
1819,74.0,0.0,90.0,2.0,0.0
1820,83.0,162.0,90.0,1.0,0.0
1821,73.0,704.0,150.0,2.0,0.0
1822,57.0,0.0,150.0,4.0,0.0
1823,81.0,0.0,150.0,1.0,0.0
1824,69.0,0.0,150.0,3.0,0.0
1825,64.0,48.0,300.0,2.0,0.0
1826,66.0,46.0,60.0,2.0,0.0
1827,64.0,34.0,60.0,2.0,0.0
1828,63.0,96.0,30.0,2.0,0.0
1829,64.0,352.0,30.0,2.0,0.0
1830,67.0,32.0,390.0,2.0,0.0
1831,63.0,16.0,540.0,4.0,0.0
1832,72.0,0.0,540.0,3.0,0.0
1833,81.0,48.0,300.0,1.0,0.0
1834,83.0,46.0,60.0,1.0,0.0
1835,81.0,2.0,60.0,1.0,0.0
1836,80.0,96.0,30.0,1.0,0.0
1837,66.0,320.0,150.0,2.0,0.0
1838,81.0,16.0,30.0,1.0,0.0
1839,66.0,48.0,300.0,2.0,0.0
1840,67.0,46.0,60.0,2.0,0.0
1841,66.0,34.0,60.0,2.0,0.0
1842,65.0,96.0,30.0,2.0,0.0
1843,66.0,352.0,30.0,2.0,0.0
1844,69.0,32.0,390.0,2.0,0.0
1845,83.0,48.0,300.0,1.0,0.0
1846,62.0,16.0,540.0,3.0,0.0
1847,53.0,0.0,540.0,4.0,0.0
1848,85.0,46.0,60.0,1.0,0.0
1849,83.0,2.0,60.0,1.0,0.0
1850,82.0,96.0,30.0,1.0,0.0
1851,68.0,320.0,150.0,2.0,0.0
1852,83.0,16.0,30.0,1.0,0.0
1853,71.0,48.0,300.0,2.0,0.0
1854,73.0,46.0,60.0,2.0,0.0
1855,71.0,34.0,60.0,2.0,0.0
1856,70.0,96.0,30.0,2.0,0.0
1857,71.0,352.0,30.0,2.0,0.0
1858,67.0,0.0,330.0,3.0,0.0
1859,88.0,48.0,300.0,1.0,0.0
1860,57.0,46.0,330.0,4.0,0.0
1861,74.0,32.0,390.0,2.0,0.0
1862,90.0,0.0,60.0,1.0,0.0
1863,88.0,2.0,60.0,1.0,0.0
1864,87.0,96.0,30.0,1.0,0.0
1865,73.0,320.0,150.0,2.0,0.0
1866,67.0,0.0,150.0,3.0,0.0
1867,50.0,0.0,150.0,4.0,0.0
1868,88.0,32.0,30.0,1.0,0.0
1869,62.0,46.0,330.0,4.0,0.0
1870,76.0,0.0,390.0,2.0,0.0
1871,70.0,32.0,390.0,3.0,0.0
1872,90.0,48.0,300.0,1.0,0.0
1873,91.0,0.0,60.0,1.0,0.0
1874,90.0,2.0,60.0,1.0,0.0
1875,74.0,0.0,60.0,2.0,0.0
1876,71.0,112.0,60.0,3.0,0.0
1877,89.0,16.0,30.0,1.0,0.0
1878,50.0,30.0,150.0,4.0,0.0
1879,90.0,50.0,90.0,1.0,0.0
1880,92.0,48.0,60.0,1.0,0.0
1881,62.0,0.0,60.0,3.0,0.0
1882,52.0,0.0,60.0,4.0,0.0
1883,73.0,94.0,90.0,2.0,0.0
1884,71.0,50.0,90.0,2.0,0.0
1885,73.0,94.0,90.0,2.0,0.0
1886,92.0,0.0,60.0,1.0,0.0
1887,62.0,0.0,60.0,3.0,0.0
1888,52.0,48.0,60.0,4.0,0.0
1889,71.0,50.0,90.0,2.0,0.0
1890,73.0,94.0,90.0,2.0,0.0
1891,52.0,48.0,60.0,4.0,0.0
1892,62.0,0.0,60.0,3.0,0.0
1893,92.0,0.0,60.0,1.0,0.0
1894,71.0,96.0,90.0,2.0,0.0
1895,45.0,30.0,150.0,4.0,0.0
1896,61.0,0.0,90.0,3.0,0.0
1897,93.0,0.0,150.0,1.0,0.0
1898,69.0,66.0,90.0,2.0,0.0
1899,64.0,96.0,90.0,3.0,0.0
1900,61.0,0.0,90.0,2.0,0.0
1901,69.0,0.0,90.0,2.0,0.0
1902,61.0,96.0,90.0,2.0,0.0
1903,69.0,0.0,90.0,2.0,0.0
1904,64.0,0.0,90.0,3.0,0.0
1905,64.0,0.0,90.0,3.0,0.0
1906,69.0,96.0,90.0,2.0,0.0
1907,61.0,0.0,90.0,2.0,0.0
1908,64.0,96.0,90.0,3.0,0.0
1909,69.0,0.0,90.0,2.0,0.0
1910,61.0,0.0,90.0,2.0,0.0
1911,61.0,0.0,90.0,2.0,0.0
1912,64.0,96.0,90.0,3.0,0.0
1913,69.0,0.0,90.0,2.0,0.0
1914,61.0,96.0,90.0,2.0,0.0
1915,52.0,48.0,300.0,4.0,0.0
1916,64.0,0.0,90.0,3.0,0.0
1917,69.0,0.0,90.0,2.0,0.0
1918,69.0,0.0,90.0,2.0,0.0
1919,61.0,0.0,90.0,2.0,0.0
1920,64.0,96.0,90.0,3.0,0.0
1921,64.0,0.0,90.0,3.0,0.0
1922,61.0,0.0,90.0,2.0,0.0
1923,69.0,2.0,90.0,2.0,0.0
1924,73.0,0.0,90.0,1.0,0.0
1925,69.0,0.0,90.0,2.0,0.0
1926,61.0,0.0,90.0,2.0,0.0
1927,54.0,46.0,60.0,4.0,0.0
1928,64.0,0.0,90.0,3.0,0.0
1929,52.0,32.0,60.0,4.0,0.0
1930,51.0,32.0,30.0,4.0,0.0
1931,64.0,2.0,90.0,3.0,0.0
1932,74.0,2.0,30.0,1.0,0.0
1933,69.0,0.0,90.0,2.0,0.0
1934,61.0,0.0,90.0,2.0,0.0
1935,73.0,30.0,30.0,1.0,0.0
1936,74.0,32.0,30.0,1.0,0.0
1937,69.0,0.0,90.0,2.0,0.0
1938,61.0,0.0,90.0,2.0,0.0
1939,52.0,32.0,30.0,4.0,0.0
1940,73.0,0.0,30.0,1.0,0.0
1941,64.0,2.0,90.0,3.0,0.0
1942,71.0,30.0,30.0,1.0,0.0
1943,73.0,94.0,30.0,1.0,0.0
1944,64.0,0.0,90.0,3.0,0.0
1945,76.0,94.0,300.0,1.0,0.0
1946,68.0,66.0,90.0,2.0,0.0
1947,59.0,0.0,90.0,2.0,0.0
1948,40.0,30.0,150.0,4.0,0.0
1949,64.0,0.0,90.0,3.0,0.0
1950,68.0,0.0,90.0,2.0,0.0
1951,59.0,96.0,90.0,2.0,0.0
1952,64.0,0.0,90.0,3.0,0.0
1953,59.0,2.0,90.0,2.0,0.0
1954,68.0,0.0,90.0,2.0,0.0
1955,59.0,0.0,90.0,2.0,0.0
1956,68.0,0.0,90.0,2.0,0.0
1957,74.0,34.0,90.0,1.0,0.0
1958,64.0,0.0,90.0,3.0,0.0
1959,59.0,0.0,90.0,2.0,0.0
1960,64.0,0.0,90.0,3.0,0.0
1961,71.0,62.0,30.0,1.0,0.0
1962,68.0,34.0,90.0,2.0,0.0
1963,69.0,62.0,30.0,1.0,0.0
1964,68.0,0.0,90.0,2.0,0.0
1965,64.0,96.0,90.0,3.0,0.0
1966,59.0,0.0,90.0,2.0,0.0
1967,52.0,48.0,300.0,4.0,0.0
1968,64.0,66.0,90.0,3.0,0.0
1969,59.0,0.0,90.0,2.0,0.0
1970,68.0,30.0,150.0,1.0,0.0
1971,59.0,0.0,90.0,2.0,0.0
1972,68.0,0.0,90.0,2.0,0.0
1973,64.0,96.0,90.0,3.0,0.0
1974,68.0,0.0,90.0,2.0,0.0
1975,59.0,0.0,90.0,2.0,0.0
1976,64.0,2.0,90.0,3.0,0.0
1977,59.0,0.0,90.0,2.0,0.0
1978,74.0,34.0,90.0,1.0,0.0
1979,64.0,0.0,90.0,3.0,0.0
1980,68.0,0.0,90.0,2.0,0.0
1981,54.0,46.0,60.0,4.0,0.0
1982,52.0,0.0,60.0,4.0,0.0
1983,68.0,0.0,90.0,2.0,0.0
1984,76.0,32.0,30.0,1.0,0.0
1985,59.0,0.0,90.0,2.0,0.0
1986,51.0,0.0,30.0,4.0,0.0
1987,64.0,2.0,90.0,3.0,0.0
1988,74.0,30.0,30.0,1.0,0.0
1989,76.0,32.0,30.0,1.0,0.0
1990,59.0,0.0,90.0,2.0,0.0
1991,64.0,0.0,90.0,3.0,0.0
1992,74.0,32.0,30.0,1.0,0.0
1993,52.0,0.0,30.0,4.0,0.0
1994,68.0,96.0,90.0,2.0,0.0
1995,73.0,30.0,30.0,1.0,0.0
1996,74.0,0.0,30.0,1.0,0.0
1997,64.0,0.0,90.0,3.0,0.0
1998,40.0,30.0,150.0,4.0,0.0
1999,78.0,94.0,300.0,1.0,0.0
2000,69.0,66.0,90.0,2.0,0.0
2001,61.0,0.0,90.0,2.0,0.0
2002,64.0,0.0,90.0,3.0,0.0
2003,69.0,96.0,90.0,2.0,0.0
2004,61.0,0.0,90.0,2.0,0.0
2005,61.0,2.0,90.0,2.0,0.0
2006,64.0,0.0,90.0,3.0,0.0
2007,69.0,0.0,90.0,2.0,0.0
2008,64.0,34.0,90.0,3.0,0.0
2009,69.0,0.0,90.0,2.0,0.0
2010,76.0,0.0,90.0,1.0,0.0
2011,61.0,0.0,90.0,2.0,0.0
2012,64.0,0.0,90.0,3.0,0.0
2013,73.0,62.0,30.0,1.0,0.0
2014,69.0,0.0,90.0,2.0,0.0
2015,61.0,34.0,90.0,2.0,0.0
2016,64.0,0.0,90.0,3.0,0.0
2017,71.0,62.0,30.0,1.0,0.0
2018,61.0,96.0,90.0,2.0,0.0
2019,69.0,0.0,90.0,2.0,0.0
2020,64.0,66.0,90.0,3.0,0.0
2021,69.0,30.0,150.0,1.0,0.0
2022,61.0,0.0,90.0,2.0,0.0
2023,52.0,48.0,300.0,4.0,0.0
2024,69.0,0.0,90.0,2.0,0.0
2025,64.0,96.0,90.0,3.0,0.0
2026,61.0,0.0,90.0,2.0,0.0
2027,64.0,0.0,90.0,3.0,0.0
2028,61.0,2.0,90.0,2.0,0.0
2029,69.0,0.0,90.0,2.0,0.0
2030,61.0,0.0,90.0,2.0,0.0
2031,69.0,0.0,90.0,2.0,0.0
2032,81.0,0.0,90.0,1.0,0.0
2033,54.0,46.0,60.0,4.0,0.0
2034,64.0,34.0,90.0,3.0,0.0
2035,52.0,0.0,60.0,4.0,0.0
2036,51.0,32.0,30.0,4.0,0.0
2037,69.0,2.0,90.0,2.0,0.0
2038,61.0,0.0,90.0,2.0,0.0
2039,64.0,0.0,90.0,3.0,0.0
2040,83.0,0.0,30.0,1.0,0.0
2041,81.0,30.0,30.0,1.0,0.0
2042,83.0,32.0,30.0,1.0,0.0
2043,64.0,0.0,90.0,3.0,0.0
2044,52.0,0.0,90.0,4.0,0.0
2045,81.0,32.0,30.0,1.0,0.0
2046,61.0,96.0,90.0,2.0,0.0
2047,69.0,0.0,90.0,2.0,0.0
2048,80.0,30.0,30.0,1.0,0.0
2049,81.0,0.0,30.0,1.0,0.0
2050,68.0,0.0,90.0,3.0,0.0
2051,40.0,30.0,150.0,4.0,0.0
2052,71.0,66.0,90.0,2.0,0.0
2053,85.0,94.0,300.0,1.0,0.0
2054,62.0,0.0,90.0,2.0,0.0
2055,68.0,0.0,90.0,3.0,0.0
2056,62.0,96.0,90.0,2.0,0.0
2057,71.0,0.0,90.0,2.0,0.0
2058,62.0,0.0,90.0,2.0,0.0
2059,71.0,0.0,90.0,2.0,0.0
2060,68.0,2.0,90.0,3.0,0.0
2061,62.0,34.0,90.0,2.0,0.0
2062,71.0,0.0,90.0,2.0,0.0
2063,68.0,0.0,90.0,3.0,0.0
2064,83.0,0.0,90.0,1.0,0.0
2065,83.0,62.0,30.0,1.0,0.0
2066,68.0,0.0,90.0,3.0,0.0
2067,62.0,34.0,90.0,2.0,0.0
2068,71.0,0.0,90.0,2.0,0.0
2069,71.0,0.0,90.0,2.0,0.0
2070,62.0,0.0,90.0,2.0,0.0
2071,68.0,96.0,90.0,3.0,0.0
2072,81.0,62.0,30.0,1.0,0.0
2073,68.0,2.0,90.0,3.0,0.0
2074,62.0,0.0,90.0,2.0,0.0
2075,71.0,0.0,90.0,2.0,0.0
2076,52.0,32.0,300.0,4.0,0.0
2077,81.0,94.0,90.0,1.0,0.0
2078,71.0,0.0,90.0,2.0,0.0
2079,62.0,0.0,90.0,2.0,0.0
2080,80.0,0.0,90.0,1.0,0.0
2081,68.0,34.0,90.0,3.0,0.0
2082,80.0,62.0,30.0,1.0,0.0
2083,68.0,2.0,90.0,3.0,0.0
2084,71.0,0.0,90.0,2.0,0.0
2085,62.0,0.0,90.0,2.0,0.0
2086,78.0,16.0,30.0,1.0,0.0
2087,71.0,0.0,90.0,2.0,0.0
2088,62.0,34.0,90.0,2.0,0.0
2089,54.0,46.0,60.0,4.0,0.0
2090,68.0,0.0,90.0,3.0,0.0
2091,52.0,0.0,60.0,4.0,0.0
2092,62.0,0.0,90.0,2.0,0.0
2093,76.0,0.0,30.0,1.0,0.0
2094,68.0,34.0,90.0,3.0,0.0
2095,71.0,0.0,90.0,2.0,0.0
2096,51.0,62.0,30.0,4.0,0.0
2097,74.0,62.0,30.0,1.0,0.0
2098,62.0,0.0,90.0,2.0,0.0
2099,71.0,0.0,90.0,2.0,0.0
2100,52.0,0.0,30.0,4.0,0.0
2101,68.0,50.0,90.0,3.0,0.0
2102,61.0,0.0,90.0,2.0,0.0
2103,71.0,0.0,90.0,2.0,0.0
2104,68.0,96.0,90.0,3.0,0.0
2105,73.0,0.0,660.0,1.0,0.0
2106,53.0,46.0,60.0,4.0,0.0
2107,71.0,0.0,90.0,2.0,0.0
2108,61.0,50.0,90.0,2.0,0.0
2109,68.0,0.0,90.0,3.0,0.0
2110,61.0,96.0,90.0,2.0,0.0
2111,71.0,0.0,90.0,2.0,0.0
2112,49.0,46.0,60.0,4.0,0.0
2113,65.0,0.0,90.0,3.0,0.0
2114,65.0,50.0,90.0,3.0,0.0
2115,61.0,0.0,90.0,2.0,0.0
2116,71.0,0.0,90.0,2.0,0.0
2117,61.0,96.0,90.0,2.0,0.0
2118,68.0,0.0,90.0,3.0,0.0
2119,53.0,46.0,60.0,4.0,0.0
2120,71.0,0.0,90.0,2.0,0.0
2121,61.0,96.0,90.0,2.0,0.0
2122,68.0,0.0,90.0,3.0,0.0
2123,71.0,0.0,90.0,2.0,0.0
2124,61.0,0.0,90.0,2.0,0.0
2125,66.0,50.0,90.0,3.0,0.0
2126,54.0,30.0,150.0,4.0,0.0
2127,69.0,0.0,90.0,2.0,0.0
2128,75.0,16.0,60.0,1.0,0.0
2129,61.0,0.0,90.0,2.0,0.0
2130,69.0,0.0,90.0,2.0,0.0
2131,66.0,2.0,90.0,3.0,0.0
2132,77.0,48.0,60.0,1.0,0.0
2133,69.0,2.0,90.0,2.0,0.0
2134,61.0,0.0,90.0,2.0,0.0
2135,66.0,0.0,90.0,3.0,0.0
2136,78.0,46.0,60.0,1.0,0.0
2137,80.0,48.0,60.0,1.0,0.0
2138,81.0,46.0,60.0,1.0,0.0
2139,66.0,0.0,90.0,3.0,0.0
2140,69.0,2.0,90.0,2.0,0.0
2141,61.0,0.0,90.0,2.0,0.0
2142,80.0,48.0,60.0,1.0,0.0
2143,61.0,0.0,90.0,2.0,0.0
2144,66.0,2.0,90.0,3.0,0.0
2145,69.0,0.0,90.0,2.0,0.0
2146,78.0,46.0,60.0,1.0,0.0
2147,76.0,48.0,60.0,1.0,0.0
2148,75.0,46.0,60.0,1.0,0.0
2149,69.0,50.0,90.0,2.0,0.0
2150,61.0,0.0,90.0,2.0,0.0
2151,66.0,0.0,90.0,3.0,0.0
2152,73.0,0.0,60.0,1.0,0.0
2153,66.0,96.0,90.0,3.0,0.0
2154,51.0,46.0,60.0,4.0,0.0
2155,71.0,0.0,660.0,1.0,0.0
2156,69.0,0.0,90.0,2.0,0.0
2157,59.0,0.0,90.0,2.0,0.0
2158,66.0,50.0,90.0,3.0,0.0
2159,69.0,0.0,90.0,2.0,0.0
2160,59.0,0.0,90.0,2.0,0.0
2161,47.0,46.0,60.0,4.0,0.0
2162,63.0,0.0,90.0,3.0,0.0
2163,59.0,0.0,90.0,2.0,0.0
2164,69.0,96.0,90.0,2.0,0.0
2165,69.0,50.0,90.0,2.0,0.0
2166,63.0,0.0,90.0,3.0,0.0
2167,59.0,0.0,90.0,2.0,0.0
2168,69.0,0.0,90.0,2.0,0.0
2169,51.0,46.0,60.0,4.0,0.0
2170,66.0,96.0,90.0,3.0,0.0
2171,59.0,0.0,90.0,2.0,0.0
2172,59.0,0.0,90.0,2.0,0.0
2173,69.0,0.0,90.0,2.0,0.0
2174,66.0,96.0,90.0,3.0,0.0
2175,64.0,50.0,90.0,3.0,0.0
2176,59.0,0.0,90.0,2.0,0.0
2177,67.0,0.0,90.0,2.0,0.0
2178,52.0,30.0,150.0,4.0,0.0
2179,59.0,0.0,90.0,2.0,0.0
2180,67.0,2.0,90.0,2.0,0.0
2181,64.0,0.0,90.0,3.0,0.0
2182,73.0,16.0,60.0,1.0,0.0
2183,75.0,48.0,60.0,1.0,0.0
2184,64.0,2.0,90.0,3.0,0.0
2185,59.0,0.0,90.0,2.0,0.0
2186,67.0,0.0,90.0,2.0,0.0
2187,76.0,46.0,60.0,1.0,0.0
2188,75.0,48.0,60.0,1.0,0.0
2189,64.0,2.0,90.0,3.0,0.0
2190,76.0,46.0,60.0,1.0,0.0
2191,67.0,0.0,90.0,2.0,0.0
2192,59.0,0.0,90.0,2.0,0.0
2193,75.0,48.0,60.0,1.0,0.0
2194,67.0,0.0,90.0,2.0,0.0
2195,64.0,0.0,90.0,3.0,0.0
2196,76.0,46.0,60.0,1.0,0.0
2197,59.0,2.0,90.0,2.0,0.0
2198,75.0,48.0,60.0,1.0,0.0
2199,64.0,0.0,90.0,3.0,0.0
2200,67.0,0.0,90.0,2.0,0.0
2201,59.0,0.0,90.0,2.0,0.0
2202,76.0,46.0,60.0,1.0,0.0
2203,75.0,290.0,60.0,1.0,0.0
2204,67.0,128.0,750.0,2.0,0.0
2205,55.0,48.0,300.0,3.0,0.0
2206,48.0,0.0,1110.0,4.0,0.0
2207,64.0,0.0,750.0,2.0,0.0
2208,76.0,48.0,870.0,1.0,0.0
2209,57.0,46.0,60.0,3.0,0.0
2210,55.0,34.0,60.0,3.0,0.0
2211,54.0,96.0,30.0,3.0,0.0
2212,55.0,224.0,30.0,3.0,0.0
2213,55.0,16.0,540.0,3.0,0.0
2214,64.0,30.0,150.0,2.0,0.0
2215,77.0,16.0,60.0,1.0,0.0
2216,76.0,34.0,60.0,1.0,0.0
2217,74.0,96.0,30.0,1.0,0.0
2218,64.0,320.0,150.0,2.0,0.0
2219,76.0,16.0,30.0,1.0,0.0
2220,55.0,46.0,300.0,3.0,0.0
2221,50.0,0.0,1110.0,4.0,0.0
2222,65.0,176.0,750.0,2.0,0.0
2223,79.0,0.0,300.0,1.0,0.0
2224,77.0,0.0,90.0,1.0,0.0
2225,57.0,48.0,60.0,3.0,0.0
2226,55.0,34.0,60.0,3.0,0.0
2227,74.0,0.0,30.0,1.0,0.0
2228,54.0,96.0,30.0,3.0,0.0
2229,55.0,0.0,30.0,3.0,0.0
2230,72.0,224.0,30.0,1.0,0.0
2231,71.0,0.0,150.0,1.0,0.0
2232,55.0,16.0,540.0,3.0,0.0
2233,65.0,30.0,150.0,2.0,0.0
2234,79.0,16.0,60.0,1.0,0.0
2235,77.0,34.0,60.0,1.0,0.0
2236,65.0,320.0,150.0,2.0,0.0
2237,76.0,96.0,30.0,1.0,0.0
2238,77.0,16.0,30.0,1.0,0.0
2239,67.0,0.0,750.0,2.0,0.0
2240,52.0,0.0,750.0,4.0,0.0
2241,55.0,0.0,300.0,3.0,0.0
2242,81.0,48.0,300.0,1.0,0.0
2243,56.0,46.0,60.0,3.0,0.0
2244,79.0,34.0,90.0,1.0,0.0
2245,55.0,0.0,60.0,3.0,0.0
2246,54.0,0.0,30.0,3.0,0.0
2247,76.0,96.0,30.0,1.0,0.0
2248,74.0,0.0,30.0,1.0,0.0
2249,55.0,224.0,30.0,3.0,0.0
2250,55.0,0.0,150.0,3.0,0.0
2251,73.0,80.0,150.0,1.0,0.0
2252,70.0,96.0,60.0,2.0,0.0
2253,52.0,0.0,60.0,4.0,0.0
2254,73.0,0.0,60.0,3.0,0.0
2255,81.0,46.0,60.0,1.0,0.0
2256,79.0,34.0,60.0,1.0,0.0
2257,78.0,16.0,30.0,1.0,0.0
2258,52.0,80.0,60.0,4.0,0.0
2259,73.0,0.0,60.0,3.0,0.0
2260,70.0,0.0,60.0,2.0,0.0
2261,79.0,592.0,30.0,1.0,0.0
2262,72.0,0.0,540.0,2.0,0.0
2263,63.0,96.0,540.0,3.0,0.0
2264,81.0,0.0,540.0,1.0,0.0
2265,54.0,0.0,540.0,4.0,0.0
2266,71.0,192.0,60.0,2.0,0.0
2267,79.0,0.0,60.0,1.0,0.0
2268,55.0,0.0,60.0,4.0,0.0
2269,64.0,0.0,60.0,3.0,0.0
2270,78.0,192.0,60.0,1.0,0.0
2271,72.0,0.0,60.0,2.0,0.0
2272,69.0,0.0,60.0,3.0,0.0
2273,57.0,0.0,60.0,4.0,0.0
2274,58.0,0.0,60.0,4.0,0.0
2275,67.0,176.0,60.0,3.0,0.0
2276,73.0,0.0,60.0,2.0,0.0
2277,76.0,0.0,60.0,1.0,0.0
2278,75.0,48.0,30.0,1.0,0.0
2279,66.0,0.0,150.0,3.0,0.0
2280,71.0,16.0,150.0,2.0,0.0
2281,59.0,0.0,150.0,4.0,0.0
2282,71.0,48.0,30.0,1.0,0.0
2283,73.0,32.0,30.0,1.0,0.0
2284,75.0,48.0,30.0,1.0,0.0
2285,76.0,48.0,30.0,1.0,0.0
2286,78.0,48.0,30.0,1.0,0.0
2287,66.0,48.0,30.0,2.0,0.0
2288,63.0,0.0,30.0,3.0,0.0
2289,80.0,0.0,30.0,1.0,0.0
2290,82.0,48.0,30.0,1.0,0.0
2291,66.0,0.0,30.0,2.0,0.0
2292,63.0,48.0,30.0,3.0,0.0
2293,83.0,0.0,30.0,1.0,0.0
2294,82.0,48.0,30.0,1.0,0.0
2295,67.0,48.0,30.0,2.0,0.0
2296,83.0,0.0,30.0,1.0,0.0
2297,64.0,0.0,30.0,3.0,0.0
2298,82.0,48.0,30.0,1.0,0.0
2299,59.0,48.0,30.0,4.0,0.0
2300,83.0,0.0,150.0,1.0,0.0
2301,63.0,0.0,150.0,3.0,0.0
2302,66.0,16.0,150.0,2.0,0.0
2303,47.0,48.0,30.0,4.0,0.0
2304,49.0,32.0,30.0,4.0,0.0
2305,51.0,48.0,30.0,4.0,0.0
2306,52.0,48.0,30.0,4.0,0.0
2307,54.0,48.0,30.0,4.0,0.0
2308,71.0,0.0,30.0,3.0,0.0
2309,56.0,0.0,30.0,4.0,0.0
2310,87.0,48.0,30.0,1.0,0.0
2311,78.0,0.0,30.0,2.0,0.0
2312,58.0,48.0,30.0,4.0,0.0
2313,78.0,48.0,30.0,2.0,0.0
2314,71.0,0.0,30.0,3.0,0.0
2315,59.0,0.0,30.0,4.0,0.0
2316,87.0,0.0,30.0,1.0,0.0
2317,58.0,48.0,30.0,4.0,0.0
2318,71.0,0.0,30.0,3.0,0.0
2319,79.0,0.0,30.0,2.0,0.0
2320,88.0,48.0,30.0,1.0,0.0
2321,59.0,0.0,30.0,4.0,0.0
2322,58.0,62.0,30.0,4.0,0.0
2323,78.0,30.0,150.0,2.0,0.0
2324,59.0,0.0,150.0,4.0,0.0
2325,87.0,48.0,60.0,1.0,0.0
2326,71.0,0.0,150.0,3.0,0.0
2327,71.0,48.0,60.0,1.0,0.0
2328,73.0,18.0,60.0,1.0,0.0
2329,75.0,48.0,60.0,1.0,0.0
2330,76.0,48.0,60.0,1.0,0.0
2331,78.0,34.0,60.0,1.0,0.0
2332,80.0,48.0,60.0,1.0,0.0
2333,66.0,0.0,30.0,2.0,0.0
2334,63.0,14.0,30.0,3.0,0.0
2335,82.0,34.0,60.0,1.0,0.0
2336,83.0,48.0,60.0,1.0,0.0
2337,63.0,0.0,30.0,3.0,0.0
2338,66.0,14.0,30.0,2.0,0.0
2339,82.0,34.0,60.0,1.0,0.0
2340,83.0,48.0,60.0,1.0,0.0
2341,67.0,14.0,30.0,2.0,0.0
2342,64.0,0.0,30.0,3.0,0.0
2343,82.0,48.0,60.0,1.0,0.0
2344,59.0,48.0,60.0,4.0,0.0
2345,63.0,0.0,150.0,3.0,0.0
2346,83.0,30.0,150.0,1.0,0.0
2347,66.0,0.0,150.0,2.0,0.0
2348,47.0,48.0,60.0,4.0,0.0
2349,49.0,18.0,60.0,4.0,0.0
2350,51.0,48.0,60.0,4.0,0.0
2351,52.0,48.0,60.0,4.0,0.0
2352,54.0,34.0,60.0,4.0,0.0
2353,78.0,14.0,30.0,2.0,0.0
2354,87.0,0.0,30.0,1.0,0.0
2355,56.0,48.0,60.0,4.0,0.0
2356,71.0,0.0,30.0,3.0,0.0
2357,58.0,34.0,60.0,4.0,0.0
2358,71.0,0.0,30.0,3.0,0.0
2359,87.0,0.0,30.0,1.0,0.0
2360,78.0,14.0,30.0,2.0,0.0
2361,59.0,48.0,60.0,4.0,0.0
2362,58.0,34.0,60.0,4.0,0.0
2363,79.0,0.0,30.0,2.0,0.0
2364,88.0,14.0,30.0,1.0,0.0
2365,71.0,0.0,30.0,3.0,0.0
2366,59.0,48.0,60.0,4.0,0.0
2367,58.0,48.0,60.0,4.0,0.0
2368,87.0,48.0,60.0,1.0,0.0
2369,78.0,30.0,150.0,2.0,0.0
2370,59.0,0.0,150.0,4.0,0.0
2371,71.0,0.0,150.0,3.0,0.0
2372,59.0,48.0,60.0,1.0,0.0
2373,61.0,18.0,60.0,1.0,0.0
2374,63.0,48.0,60.0,1.0,0.0
2375,64.0,48.0,60.0,1.0,0.0
2376,66.0,34.0,60.0,1.0,0.0
2377,59.0,14.0,30.0,4.0,0.0
2378,63.0,0.0,30.0,3.0,0.0
2379,78.0,0.0,30.0,2.0,0.0
2380,68.0,48.0,60.0,1.0,0.0
2381,70.0,34.0,60.0,1.0,0.0
2382,59.0,0.0,30.0,4.0,0.0
2383,78.0,14.0,30.0,2.0,0.0
2384,63.0,0.0,30.0,3.0,0.0
2385,71.0,48.0,60.0,1.0,0.0
2386,70.0,34.0,60.0,1.0,0.0
2387,79.0,0.0,30.0,2.0,0.0
2388,64.0,0.0,30.0,3.0,0.0
2389,52.0,14.0,30.0,4.0,0.0
2390,71.0,48.0,60.0,1.0,0.0
2391,70.0,48.0,60.0,1.0,0.0
2392,59.0,0.0,60.0,4.0,0.0
2393,71.0,0.0,60.0,1.0,0.0
2394,78.0,48.0,60.0,2.0,0.0
2395,63.0,0.0,60.0,3.0,0.0
2396,71.0,0.0,60.0,1.0,0.0
2397,59.0,48.0,60.0,2.0,0.0
2398,47.0,0.0,60.0,4.0,0.0
2399,73.0,0.0,60.0,1.0,0.0
2400,61.0,48.0,60.0,2.0,0.0
2401,49.0,0.0,60.0,4.0,0.0
2402,75.0,0.0,60.0,1.0,0.0
2403,63.0,0.0,60.0,2.0,0.0
2404,51.0,48.0,60.0,4.0,0.0
2405,52.0,0.0,60.0,4.0,0.0
2406,64.0,0.0,60.0,2.0,0.0
2407,76.0,48.0,60.0,1.0,0.0
2408,66.0,0.0,60.0,2.0,0.0
2409,78.0,48.0,60.0,1.0,0.0
2410,54.0,0.0,60.0,4.0,0.0
2411,56.0,0.0,60.0,4.0,0.0
2412,68.0,0.0,60.0,2.0,0.0
2413,80.0,48.0,60.0,1.0,0.0
2414,82.0,48.0,60.0,1.0,0.0
2415,70.0,0.0,60.0,2.0,0.0
2416,58.0,0.0,60.0,4.0,0.0
2417,59.0,0.0,60.0,4.0,0.0
2418,71.0,0.0,60.0,2.0,0.0
2419,83.0,48.0,60.0,1.0,0.0
2420,82.0,48.0,60.0,1.0,0.0
2421,58.0,0.0,60.0,4.0,0.0
2422,70.0,0.0,60.0,2.0,0.0
2423,71.0,0.0,60.0,2.0,0.0
2424,59.0,0.0,60.0,4.0,0.0
2425,83.0,48.0,60.0,1.0,0.0
2426,70.0,0.0,60.0,2.0,0.0
2427,58.0,96.0,60.0,4.0,0.0
2428,82.0,0.0,60.0,1.0,0.0
2429,83.0,66.0,90.0,1.0,0.0
2430,71.0,96.0,150.0,2.0,0.0
2431,59.0,0.0,150.0,4.0,0.0
2432,83.0,192.0,150.0,1.0,0.0
2433,83.0,128.0,150.0,1.0,0.0
2434,83.0,94.0,90.0,1.0,0.0
2435,84.0,162.0,90.0,1.0,0.0
2436,84.0,192.0,150.0,1.0,0.0
2437,84.0,128.0,150.0,1.0,0.0
2438,84.0,94.0,90.0,1.0,0.0
2439,85.0,98.0,90.0,1.0,0.0
2440,85.0,94.0,90.0,1.0,0.0
2441,81.0,98.0,90.0,1.0,0.0
2442,81.0,94.0,90.0,1.0,0.0
2443,78.0,98.0,90.0,1.0,0.0
2444,78.0,94.0,90.0,1.0,0.0
2445,75.0,98.0,90.0,1.0,0.0
2446,75.0,94.0,90.0,1.0,0.0
2447,71.0,98.0,90.0,1.0,0.0
2448,71.0,32.0,90.0,1.0,0.0
2449,69.0,0.0,30.0,3.0,0.0
2450,75.0,98.0,90.0,1.0,0.0
2451,71.0,62.0,30.0,2.0,0.0
2452,75.0,94.0,90.0,1.0,0.0
2453,69.0,0.0,90.0,3.0,0.0
2454,71.0,0.0,180.0,2.0,0.0
2455,76.0,98.0,90.0,1.0,0.0
2456,68.0,0.0,90.0,3.0,0.0
2457,76.0,0.0,90.0,1.0,0.0
2458,71.0,0.0,90.0,2.0,0.0
2459,68.0,94.0,90.0,3.0,0.0
2460,75.0,0.0,90.0,2.0,0.0
2461,78.0,98.0,90.0,1.0,0.0
2462,66.0,0.0,90.0,3.0,0.0
2463,78.0,94.0,90.0,1.0,0.0
2464,66.0,0.0,90.0,3.0,0.0
2465,75.0,0.0,90.0,2.0,0.0
2466,76.0,0.0,90.0,2.0,0.0
2467,80.0,96.0,90.0,1.0,0.0
2468,64.0,0.0,90.0,3.0,0.0
2469,76.0,192.0,90.0,2.0,0.0
2470,80.0,0.0,90.0,1.0,0.0
2471,64.0,2.0,90.0,3.0,0.0
2472,63.0,16.0,330.0,3.0,0.0
2473,80.0,0.0,180.0,2.0,0.0
2474,83.0,144.0,180.0,1.0,0.0
2475,78.0,0.0,150.0,2.0,0.0
2476,81.0,64.0,150.0,1.0,0.0
2477,68.0,160.0,30.0,3.0,0.0
2478,68.0,94.0,90.0,3.0,0.0
2479,69.0,98.0,90.0,3.0,0.0
2480,69.0,94.0,90.0,3.0,0.0
2481,66.0,98.0,90.0,3.0,0.0
2482,66.0,94.0,90.0,3.0,0.0
2483,63.0,98.0,90.0,3.0,0.0
2484,63.0,94.0,90.0,3.0,0.0
2485,60.0,98.0,90.0,3.0,0.0
2486,60.0,94.0,90.0,3.0,0.0
2487,68.0,98.0,90.0,3.0,0.0
2488,68.0,94.0,90.0,3.0,0.0
2489,75.0,94.0,180.0,2.0,0.0
2490,84.0,0.0,180.0,1.0,0.0
2491,66.0,98.0,90.0,3.0,0.0
2492,66.0,0.0,90.0,3.0,0.0
2493,85.0,0.0,180.0,1.0,0.0
2494,64.0,98.0,90.0,3.0,0.0
2495,80.0,94.0,180.0,2.0,0.0
2496,64.0,0.0,90.0,3.0,0.0
2497,88.0,94.0,180.0,1.0,0.0
2498,61.0,98.0,90.0,3.0,0.0
2499,68.0,0.0,180.0,2.0,0.0
2500,61.0,0.0,90.0,3.0,0.0
2501,76.0,94.0,390.0,2.0,0.0
2502,66.0,66.0,90.0,3.0,0.0
2503,82.0,32.0,150.0,1.0,0.0
2504,66.0,94.0,90.0,3.0,0.0
2505,85.0,0.0,180.0,1.0,0.0
2506,59.0,98.0,90.0,3.0,0.0
2507,59.0,0.0,90.0,3.0,0.0
2508,83.0,0.0,90.0,1.0,0.0
2509,75.0,98.0,90.0,2.0,0.0
2510,71.0,0.0,90.0,3.0,0.0
2511,58.0,96.0,90.0,4.0,0.0
2512,59.0,96.0,90.0,4.0,0.0
2513,60.0,32.0,90.0,4.0,0.0
2514,61.0,160.0,30.0,4.0,0.0
2515,61.0,94.0,90.0,4.0,0.0
2516,57.0,98.0,90.0,4.0,0.0
2517,57.0,94.0,90.0,4.0,0.0
2518,54.0,98.0,90.0,4.0,0.0
2519,54.0,94.0,90.0,4.0,0.0
2520,51.0,98.0,90.0,4.0,0.0
2521,51.0,94.0,90.0,4.0,0.0
2522,47.0,98.0,90.0,4.0,0.0
2523,47.0,32.0,90.0,4.0,0.0
2524,81.0,0.0,30.0,1.0,0.0
2525,51.0,98.0,90.0,4.0,0.0
2526,59.0,62.0,30.0,3.0,0.0
2527,66.0,0.0,30.0,2.0,0.0
2528,66.0,0.0,90.0,2.0,0.0
2529,51.0,0.0,90.0,4.0,0.0
2530,81.0,94.0,90.0,1.0,0.0
2531,59.0,0.0,180.0,3.0,0.0
2532,52.0,98.0,90.0,4.0,0.0
2533,68.0,0.0,90.0,2.0,0.0
2534,80.0,0.0,90.0,1.0,0.0
2535,76.0,0.0,90.0,2.0,0.0
2536,52.0,0.0,90.0,4.0,0.0
2537,80.0,94.0,90.0,1.0,0.0
2538,71.0,0.0,90.0,3.0,0.0
2539,75.0,0.0,90.0,2.0,0.0
2540,69.0,98.0,90.0,3.0,0.0
2541,78.0,0.0,90.0,1.0,0.0
2542,54.0,0.0,90.0,4.0,0.0
2543,78.0,0.0,90.0,1.0,0.0
2544,69.0,94.0,90.0,3.0,0.0
2545,54.0,0.0,90.0,4.0,0.0
2546,75.0,0.0,90.0,2.0,0.0
2547,76.0,0.0,90.0,1.0,0.0
2548,56.0,0.0,90.0,4.0,0.0
2549,68.0,96.0,90.0,3.0,0.0
2550,71.0,0.0,90.0,2.0,0.0
2551,56.0,0.0,90.0,4.0,0.0
2552,71.0,194.0,90.0,2.0,0.0
2553,76.0,0.0,90.0,1.0,0.0
2554,68.0,0.0,90.0,3.0,0.0
2555,76.0,64.0,180.0,1.0,0.0
2556,57.0,0.0,270.0,4.0,0.0
2557,66.0,0.0,270.0,3.0,0.0
2558,72.0,30.0,270.0,2.0,0.0
2559,75.0,130.0,90.0,1.0,0.0
2560,71.0,160.0,30.0,2.0,0.0
2561,71.0,94.0,90.0,2.0,0.0
2562,72.0,98.0,90.0,2.0,0.0
2563,72.0,32.0,90.0,2.0,0.0
2564,72.0,62.0,30.0,3.0,0.0
2565,69.0,98.0,90.0,2.0,0.0
2566,69.0,94.0,90.0,2.0,0.0
2567,72.0,0.0,90.0,3.0,0.0
2568,84.0,0.0,390.0,1.0,0.0
2569,69.0,0.0,90.0,3.0,0.0
2570,66.0,98.0,90.0,2.0,0.0
2571,66.0,0.0,90.0,2.0,0.0
2572,69.0,94.0,90.0,3.0,0.0
2573,66.0,98.0,90.0,3.0,0.0
2574,63.0,0.0,90.0,2.0,0.0
2575,63.0,94.0,90.0,2.0,0.0
2576,66.0,0.0,90.0,3.0,0.0
2577,64.0,98.0,90.0,2.0,0.0
2578,83.0,0.0,180.0,1.0,0.0
2579,67.0,0.0,90.0,3.0,0.0
2580,64.0,64.0,90.0,3.0,0.0
2581,79.0,30.0,150.0,2.0,0.0
2582,88.0,30.0,150.0,1.0,0.0
2583,58.0,66.0,90.0,3.0,0.0
2584,58.0,94.0,90.0,3.0,0.0
2585,79.0,2.0,90.0,2.0,0.0
2586,79.0,0.0,390.0,2.0,0.0
2587,88.0,94.0,390.0,1.0,0.0
2588,59.0,98.0,90.0,3.0,0.0
2589,59.0,94.0,90.0,3.0,0.0
2590,71.0,98.0,90.0,3.0,0.0
2591,71.0,0.0,90.0,3.0,0.0
2592,90.0,0.0,150.0,1.0,0.0
2593,59.0,50.0,90.0,3.0,0.0
2594,81.0,46.0,150.0,2.0,0.0
2595,59.0,96.0,90.0,3.0,0.0
2596,87.0,0.0,60.0,1.0,0.0
2597,78.0,0.0,60.0,2.0,0.0
2598,76.0,66.0,90.0,2.0,0.0
2599,64.0,0.0,90.0,3.0,0.0
2600,71.0,48.0,300.0,4.0,0.0
2601,88.0,30.0,150.0,1.0,0.0
2602,68.0,0.0,90.0,2.0,0.0
2603,52.0,96.0,90.0,3.0,0.0
2604,59.0,0.0,90.0,2.0,0.0
2605,59.0,0.0,90.0,2.0,0.0
2606,68.0,0.0,90.0,2.0,0.0
2607,52.0,2.0,90.0,3.0,0.0
2608,68.0,0.0,90.0,2.0,0.0
2609,59.0,34.0,90.0,2.0,0.0
2610,52.0,0.0,90.0,3.0,0.0
2611,73.0,46.0,60.0,4.0,0.0
2612,71.0,0.0,60.0,4.0,0.0
2613,52.0,96.0,90.0,3.0,0.0
2614,70.0,62.0,30.0,4.0,0.0
2615,68.0,0.0,90.0,2.0,0.0
2616,59.0,0.0,90.0,2.0,0.0
2617,68.0,96.0,90.0,2.0,0.0
2618,59.0,0.0,90.0,2.0,0.0
2619,71.0,0.0,90.0,4.0,0.0
2620,52.0,0.0,90.0,3.0,0.0
2621,52.0,0.0,90.0,3.0,0.0
2622,80.0,48.0,300.0,1.0,0.0
2623,71.0,46.0,540.0,4.0,0.0
2624,68.0,96.0,90.0,2.0,0.0
2625,59.0,0.0,90.0,2.0,0.0
2626,52.0,0.0,90.0,3.0,0.0
2627,59.0,96.0,90.0,2.0,0.0
2628,68.0,0.0,90.0,2.0,0.0
2629,52.0,0.0,90.0,3.0,0.0
2630,68.0,2.0,90.0,2.0,0.0
2631,59.0,0.0,90.0,2.0,0.0
2632,81.0,46.0,60.0,1.0,0.0
2633,59.0,0.0,90.0,2.0,0.0
2634,68.0,0.0,90.0,2.0,0.0
2635,52.0,0.0,90.0,3.0,0.0
2636,80.0,34.0,60.0,1.0,0.0
2637,59.0,0.0,90.0,2.0,0.0
2638,52.0,34.0,90.0,3.0,0.0
2639,68.0,0.0,90.0,2.0,0.0
2640,78.0,62.0,30.0,1.0,0.0
2641,68.0,0.0,90.0,2.0,0.0
2642,76.0,16.0,30.0,1.0,0.0
2643,59.0,96.0,90.0,2.0,0.0
2644,52.0,0.0,90.0,3.0,0.0
2645,59.0,66.0,90.0,2.0,0.0
2646,71.0,48.0,300.0,4.0,0.0
2647,69.0,0.0,90.0,2.0,0.0
2648,75.0,30.0,150.0,1.0,0.0
2649,54.0,0.0,90.0,3.0,0.0
2650,69.0,0.0,90.0,2.0,0.0
2651,59.0,96.0,90.0,2.0,0.0
2652,54.0,0.0,90.0,3.0,0.0
2653,54.0,2.0,90.0,3.0,0.0
2654,59.0,0.0,90.0,2.0,0.0
2655,69.0,0.0,90.0,2.0,0.0
2656,73.0,46.0,60.0,4.0,0.0
2657,59.0,0.0,90.0,2.0,0.0
2658,69.0,0.0,90.0,2.0,0.0
2659,54.0,0.0,90.0,3.0,0.0
2660,71.0,34.0,60.0,4.0,0.0
2661,69.0,0.0,90.0,2.0,0.0
2662,59.0,0.0,90.0,2.0,0.0
2663,70.0,62.0,30.0,4.0,0.0
2664,54.0,96.0,90.0,3.0,0.0
2665,71.0,0.0,90.0,4.0,0.0
2666,69.0,0.0,90.0,2.0,0.0
2667,59.0,0.0,90.0,2.0,0.0
2668,54.0,96.0,90.0,3.0,0.0
2669,54.0,0.0,90.0,3.0,0.0
2670,59.0,96.0,90.0,3.0,0.0
2671,71.0,46.0,540.0,4.0,0.0
2672,63.0,0.0,90.0,2.0,0.0
2673,81.0,48.0,300.0,1.0,0.0
2674,59.0,0.0,90.0,3.0,0.0
2675,63.0,0.0,90.0,2.0,0.0
2676,54.0,96.0,90.0,3.0,0.0
2677,63.0,2.0,90.0,2.0,0.0
2678,54.0,0.0,90.0,3.0,0.0
2679,59.0,0.0,90.0,3.0,0.0
2680,54.0,0.0,90.0,3.0,0.0
2681,59.0,0.0,90.0,3.0,0.0
2682,83.0,46.0,60.0,1.0,0.0
2683,63.0,0.0,90.0,2.0,0.0
2684,81.0,34.0,60.0,1.0,0.0
2685,63.0,0.0,90.0,2.0,0.0
2686,59.0,0.0,90.0,3.0,0.0
2687,80.0,62.0,30.0,1.0,0.0
2688,54.0,34.0,90.0,3.0,0.0
2689,54.0,0.0,90.0,3.0,0.0
2690,59.0,0.0,90.0,3.0,0.0
2691,78.0,16.0,30.0,1.0,0.0
2692,63.0,96.0,90.0,2.0,0.0
2693,71.0,48.0,300.0,4.0,0.0
2694,56.0,66.0,90.0,3.0,0.0
2695,62.0,0.0,90.0,2.0,0.0
2696,77.0,30.0,150.0,1.0,0.0
2697,59.0,0.0,90.0,3.0,0.0
2698,59.0,0.0,90.0,3.0,0.0
2699,56.0,0.0,90.0,3.0,0.0
2700,62.0,96.0,90.0,2.0,0.0
2701,59.0,0.0,90.0,3.0,0.0
2702,62.0,0.0,90.0,2.0,0.0
2703,56.0,2.0,90.0,3.0,0.0
2704,62.0,34.0,90.0,2.0,0.0
2705,59.0,0.0,90.0,3.0,0.0
2706,56.0,0.0,90.0,3.0,0.0
2707,73.0,46.0,60.0,4.0,0.0
2708,71.0,0.0,60.0,4.0,0.0
2709,70.0,62.0,30.0,4.0,0.0
2710,62.0,96.0,90.0,2.0,0.0
2711,56.0,0.0,90.0,3.0,0.0
2712,59.0,0.0,90.0,3.0,0.0
2713,71.0,0.0,90.0,4.0,0.0
2714,59.0,96.0,90.0,3.0,0.0
2715,56.0,0.0,90.0,3.0,0.0
2716,62.0,0.0,90.0,2.0,0.0
2717,86.0,0.0,300.0,1.0,0.0
2718,74.0,46.0,540.0,4.0,0.0
2719,71.0,0.0,90.0,2.0,0.0
2720,56.0,96.0,90.0,3.0,0.0
2721,59.0,0.0,90.0,2.0,0.0
2722,59.0,0.0,90.0,2.0,0.0
2723,71.0,0.0,90.0,2.0,0.0
2724,56.0,96.0,90.0,3.0,0.0
2725,56.0,50.0,90.0,3.0,0.0
2726,71.0,0.0,90.0,2.0,0.0
2727,59.0,0.0,90.0,2.0,0.0
2728,85.0,46.0,60.0,1.0,0.0
2729,56.0,0.0,90.0,3.0,0.0
2730,59.0,0.0,90.0,2.0,0.0
2731,71.0,2.0,90.0,2.0,0.0
2732,83.0,48.0,60.0,1.0,0.0
2733,59.0,0.0,90.0,2.0,0.0
2734,56.0,2.0,90.0,3.0,0.0
2735,71.0,0.0,90.0,2.0,0.0
2736,81.0,46.0,60.0,1.0,0.0
2737,80.0,48.0,60.0,1.0,0.0
2738,71.0,0.0,90.0,2.0,0.0
2739,59.0,0.0,90.0,2.0,0.0
2740,78.0,0.0,60.0,1.0,0.0
2741,56.0,0.0,90.0,3.0,0.0
2742,77.0,34.0,60.0,1.0,0.0
2743,57.0,32.0,60.0,3.0,0.0
2744,73.0,0.0,60.0,4.0,0.0
2745,61.0,0.0,60.0,2.0,0.0
2746,78.0,16.0,30.0,1.0,0.0
2747,73.0,48.0,30.0,1.0,0.0
2748,75.0,48.0,30.0,1.0,0.0
2749,77.0,48.0,30.0,1.0,0.0
2750,57.0,0.0,60.0,4.0,0.0
2751,69.0,0.0,60.0,2.0,0.0
2752,73.0,32.0,60.0,2.0,0.0
2753,66.0,0.0,60.0,3.0,0.0
2754,78.0,16.0,30.0,1.0,0.0
2755,80.0,48.0,30.0,1.0,0.0
2756,81.0,48.0,30.0,1.0,0.0
2757,80.0,48.0,30.0,1.0,0.0
2758,78.0,48.0,30.0,1.0,0.0
2759,73.0,48.0,30.0,1.0,0.0
2760,75.0,48.0,30.0,1.0,0.0
2761,77.0,62.0,30.0,1.0,0.0
2762,78.0,48.0,60.0,1.0,0.0
2763,80.0,48.0,60.0,1.0,0.0
2764,81.0,48.0,60.0,1.0,0.0
2765,80.0,48.0,60.0,1.0,0.0
2766,78.0,48.0,60.0,1.0,0.0
2767,73.0,48.0,60.0,1.0,0.0
2768,75.0,48.0,60.0,1.0,0.0
2769,77.0,48.0,60.0,1.0,0.0
2770,78.0,48.0,60.0,1.0,0.0
2771,80.0,48.0,60.0,1.0,0.0
2772,81.0,48.0,60.0,1.0,0.0
2773,80.0,48.0,60.0,1.0,0.0
2774,78.0,48.0,60.0,1.0,0.0
2775,73.0,48.0,60.0,1.0,0.0
2776,75.0,48.0,60.0,1.0,0.0
2777,77.0,48.0,60.0,1.0,0.0
2778,78.0,48.0,60.0,1.0,0.0
2779,80.0,48.0,60.0,1.0,0.0
2780,81.0,48.0,60.0,1.0,0.0
2781,80.0,48.0,60.0,1.0,0.0
2782,78.0,48.0,60.0,1.0,0.0
2783,61.0,48.0,60.0,2.0,0.0
2784,49.0,0.0,60.0,4.0,0.0
2785,73.0,0.0,60.0,1.0,0.0
2786,63.0,0.0,60.0,2.0,0.0
2787,51.0,0.0,60.0,4.0,0.0
2788,75.0,48.0,60.0,1.0,0.0
2789,65.0,0.0,60.0,2.0,0.0
2790,53.0,48.0,60.0,4.0,0.0
2791,77.0,0.0,60.0,1.0,0.0
2792,66.0,0.0,60.0,2.0,0.0
2793,78.0,0.0,60.0,1.0,0.0
2794,54.0,48.0,60.0,4.0,0.0
2795,56.0,0.0,60.0,4.0,0.0
2796,80.0,0.0,60.0,1.0,0.0
2797,68.0,48.0,60.0,2.0,0.0
2798,57.0,0.0,60.0,4.0,0.0
2799,81.0,0.0,60.0,1.0,0.0
2800,69.0,48.0,60.0,2.0,0.0
2801,83.0,0.0,60.0,1.0,0.0
2802,71.0,48.0,60.0,2.0,0.0
2803,59.0,0.0,60.0,4.0,0.0
2804,73.0,48.0,60.0,2.0,0.0
2805,85.0,0.0,60.0,1.0,0.0
2806,61.0,0.0,60.0,4.0,0.0
2807,71.0,0.0,60.0,2.0,0.0
2808,59.0,0.0,60.0,4.0,0.0
2809,83.0,48.0,60.0,1.0,0.0
2810,69.0,0.0,60.0,2.0,0.0
2811,57.0,0.0,60.0,4.0,0.0
2812,81.0,48.0,60.0,1.0,0.0
2813,68.0,48.0,60.0,2.0,0.0
2814,56.0,0.0,60.0,4.0,0.0
2815,80.0,0.0,60.0,1.0,0.0
2816,66.0,0.0,60.0,2.0,0.0
2817,78.0,48.0,60.0,1.0,0.0
2818,54.0,0.0,60.0,4.0,0.0
2819,76.0,0.0,60.0,1.0,0.0
2820,52.0,0.0,60.0,4.0,0.0
2821,64.0,48.0,60.0,2.0,0.0
2822,63.0,48.0,60.0,2.0,0.0
2823,51.0,0.0,60.0,4.0,0.0
2824,75.0,0.0,60.0,1.0,0.0
2825,49.0,258.0,60.0,4.0,0.0
2826,61.0,0.0,60.0,2.0,0.0
2827,73.0,0.0,60.0,1.0,0.0
2828,71.0,0.0,540.0,1.0,0.0
2829,59.0,80.0,270.0,2.0,0.0
2830,47.0,0.0,270.0,4.0,0.0
2831,49.0,48.0,60.0,4.0,0.0
2832,61.0,0.0,60.0,2.0,0.0
2833,51.0,48.0,60.0,4.0,0.0
2834,63.0,0.0,60.0,2.0,0.0
2835,64.0,48.0,60.0,2.0,0.0
2836,52.0,0.0,60.0,4.0,0.0
2837,66.0,0.0,60.0,2.0,0.0
2838,54.0,48.0,60.0,4.0,0.0
2839,68.0,0.0,60.0,2.0,0.0
2840,56.0,46.0,60.0,4.0,0.0
2841,58.0,0.0,60.0,4.0,0.0
2842,70.0,32.0,60.0,2.0,0.0
2843,59.0,0.0,90.0,4.0,0.0
2844,71.0,2.0,90.0,2.0,0.0
2845,80.0,34.0,30.0,1.0,0.0
2846,78.0,30.0,30.0,1.0,0.0
2847,80.0,32.0,30.0,1.0,0.0
2848,69.0,0.0,90.0,3.0,0.0
2849,75.0,2.0,90.0,2.0,0.0
2850,59.0,0.0,90.0,4.0,0.0
2851,78.0,32.0,30.0,1.0,0.0
2852,80.0,30.0,30.0,1.0,0.0
2853,78.0,32.0,30.0,1.0,0.0
2854,59.0,0.0,90.0,4.0,0.0
2855,69.0,0.0,90.0,3.0,0.0
2856,75.0,2.0,90.0,2.0,0.0
2857,80.0,32.0,30.0,1.0,0.0
2858,78.0,30.0,30.0,1.0,0.0
2859,80.0,32.0,30.0,1.0,0.0
2860,59.0,0.0,90.0,4.0,0.0
2861,69.0,2.0,90.0,3.0,0.0
2862,78.0,32.0,30.0,1.0,0.0
2863,75.0,0.0,90.0,2.0,0.0
2864,80.0,30.0,30.0,1.0,0.0
2865,78.0,32.0,30.0,1.0,0.0
2866,59.0,0.0,90.0,4.0,0.0
2867,75.0,0.0,90.0,2.0,0.0
2868,69.0,2.0,90.0,3.0,0.0
2869,80.0,32.0,30.0,1.0,0.0
2870,78.0,30.0,30.0,1.0,0.0
2871,80.0,32.0,30.0,1.0,0.0
2872,69.0,0.0,90.0,3.0,0.0
2873,59.0,0.0,90.0,4.0,0.0
2874,78.0,32.0,30.0,1.0,0.0
2875,75.0,2.0,90.0,2.0,0.0
2876,80.0,30.0,30.0,1.0,0.0
2877,78.0,160.0,30.0,1.0,0.0
2878,52.0,288.0,150.0,4.0,0.0
2879,68.0,0.0,150.0,3.0,0.0
2880,76.0,0.0,150.0,1.0,0.0
2881,59.0,32.0,270.0,2.0,0.0
2882,64.0,0.0,300.0,1.0,0.0
2883,56.0,94.0,300.0,3.0,0.0
2884,63.0,0.0,90.0,1.0,0.0
2885,54.0,98.0,90.0,3.0,0.0
2886,59.0,0.0,90.0,2.0,0.0
2887,59.0,94.0,90.0,2.0,0.0
2888,54.0,0.0,90.0,3.0,0.0
2889,63.0,0.0,90.0,1.0,0.0
2890,69.0,96.0,90.0,1.0,0.0
2891,63.0,0.0,90.0,3.0,0.0
2892,66.0,0.0,90.0,2.0,0.0
2893,66.0,0.0,90.0,2.0,0.0
2894,63.0,2.0,90.0,3.0,0.0
2895,69.0,94.0,90.0,1.0,0.0
2896,64.0,0.0,90.0,2.0,0.0
2897,68.0,96.0,90.0,1.0,0.0
2898,68.0,94.0,90.0,1.0,0.0
2899,64.0,2.0,90.0,2.0,0.0
2900,64.0,96.0,90.0,2.0,0.0
2901,57.0,0.0,90.0,3.0,0.0
2902,73.0,0.0,90.0,1.0,0.0
2903,73.0,94.0,90.0,1.0,0.0
2904,57.0,0.0,90.0,3.0,0.0
2905,64.0,2.0,90.0,2.0,0.0
2906,64.0,0.0,90.0,2.0,0.0
2907,71.0,0.0,90.0,1.0,0.0
2908,56.0,98.0,90.0,3.0,0.0
2909,56.0,94.0,90.0,3.0,0.0
2910,64.0,0.0,90.0,2.0,0.0
2911,71.0,0.0,90.0,1.0,0.0
2912,71.0,98.0,90.0,2.0,0.0
2913,76.0,0.0,90.0,1.0,0.0
2914,68.0,0.0,90.0,3.0,0.0
2915,68.0,94.0,90.0,3.0,0.0
2916,71.0,0.0,90.0,2.0,0.0
2917,76.0,0.0,90.0,1.0,0.0
2918,75.0,98.0,90.0,1.0,0.0
2919,69.0,0.0,90.0,2.0,0.0
2920,66.0,0.0,90.0,3.0,0.0
2921,66.0,0.0,90.0,3.0,0.0
2922,69.0,0.0,90.0,2.0,0.0
2923,75.0,94.0,90.0,1.0,0.0
2924,66.0,0.0,90.0,2.0,0.0
2925,63.0,162.0,90.0,3.0,0.0
2926,81.0,0.0,90.0,1.0,0.0
2927,63.0,0.0,150.0,3.0,0.0
2928,66.0,1088.0,150.0,2.0,0.0
2929,81.0,0.0,150.0,1.0,0.0
2930,71.0,0.0,540.0,3.0,0.0
2931,64.0,624.0,540.0,4.0,0.0
2932,76.0,0.0,540.0,2.0,0.0
2933,80.0,48.0,300.0,1.0,0.0
2934,81.0,46.0,60.0,1.0,0.0
2935,80.0,34.0,60.0,1.0,0.0
2936,78.0,96.0,30.0,1.0,0.0
2937,80.0,16.0,30.0,1.0,0.0
2938,66.0,0.0,570.0,3.0,0.0
2939,85.0,0.0,570.0,1.0,0.0
2940,58.0,192.0,570.0,4.0,0.0
2941,85.0,0.0,180.0,1.0,0.0
2942,76.0,0.0,15.0,2.0,0.0
2943,66.0,0.0,180.0,3.0,0.0
2944,57.0,0.0,180.0,4.0,0.0
2945,59.0,0.0,60.0,4.0,0.0
2946,68.0,0.0,60.0,3.0,0.0
2947,83.0,192.0,60.0,1.0,0.0
2948,76.0,0.0,60.0,2.0,0.0
2949,75.0,0.0,60.0,1.0,0.0
2950,69.0,192.0,60.0,2.0,0.0
2951,47.0,0.0,60.0,4.0,0.0
2952,66.0,0.0,60.0,3.0,0.0
2953,64.0,432.0,60.0,3.0,0.0
2954,68.0,0.0,60.0,2.0,0.0
2955,76.0,0.0,60.0,1.0,0.0
2956,52.0,0.0,60.0,4.0,0.0
2957,71.0,0.0,300.0,2.0,0.0
2958,68.0,0.0,300.0,3.0,0.0
2959,76.0,94.0,300.0,1.0,0.0
2960,69.0,98.0,90.0,2.0,0.0
2961,75.0,0.0,90.0,1.0,0.0
2962,66.0,0.0,90.0,3.0,0.0
2963,75.0,0.0,90.0,1.0,0.0
2964,66.0,0.0,90.0,3.0,0.0
2965,69.0,94.0,90.0,2.0,0.0
2966,63.0,0.0,90.0,3.0,0.0
2967,81.0,98.0,90.0,1.0,0.0
2968,66.0,0.0,90.0,2.0,0.0
2969,66.0,0.0,90.0,2.0,0.0
2970,63.0,0.0,90.0,3.0,0.0
2971,81.0,94.0,90.0,1.0,0.0
2972,68.0,0.0,90.0,2.0,0.0
2973,64.0,0.0,90.0,3.0,0.0
2974,80.0,98.0,90.0,1.0,0.0
2975,80.0,0.0,90.0,1.0,0.0
2976,68.0,0.0,90.0,2.0,0.0
2977,64.0,94.0,90.0,3.0,0.0
2978,76.0,0.0,90.0,2.0,0.0
2979,85.0,0.0,90.0,1.0,0.0
2980,69.0,96.0,90.0,3.0,0.0
2981,69.0,0.0,90.0,3.0,0.0
2982,85.0,94.0,90.0,1.0,0.0
2983,76.0,2.0,90.0,2.0,0.0
2984,68.0,0.0,90.0,3.0,0.0
2985,83.0,0.0,90.0,1.0,0.0
2986,76.0,98.0,90.0,2.0,0.0
2987,68.0,94.0,90.0,3.0,0.0
2988,76.0,0.0,90.0,2.0,0.0
2989,83.0,0.0,90.0,1.0,0.0
2990,88.0,0.0,90.0,1.0,0.0
2991,80.0,0.0,90.0,3.0,0.0
2992,83.0,98.0,90.0,2.0,0.0
2993,83.0,94.0,90.0,2.0,0.0
2994,88.0,0.0,90.0,1.0,0.0
2995,80.0,0.0,90.0,3.0,0.0
2996,87.0,0.0,90.0,1.0,0.0
2997,81.0,98.0,90.0,2.0,0.0
2998,78.0,0.0,90.0,3.0,0.0
2999,81.0,94.0,90.0,2.0,0.0
3000,87.0,0.0,90.0,1.0,0.0
3001,78.0,0.0,90.0,3.0,0.0
3002,78.0,0.0,90.0,2.0,0.0
3003,75.0,162.0,90.0,3.0,0.0
3004,93.0,0.0,90.0,1.0,0.0
3005,93.0,0.0,150.0,1.0,0.0
3006,75.0,1328.0,150.0,3.0,0.0
3007,78.0,0.0,150.0,2.0,0.0
3008,52.0,576.0,540.0,4.0,0.0
3009,67.0,0.0,540.0,1.0,0.0
3010,59.0,0.0,540.0,2.0,0.0
3011,64.0,0.0,540.0,3.0,0.0
3012,60.0,0.0,540.0,3.0,0.0
3013,48.0,384.0,540.0,4.0,0.0
3014,67.0,0.0,540.0,1.0,0.0
3015,64.0,0.0,540.0,1.0,0.0
3016,64.0,208.0,330.0,1.0,0.0
3017,67.0,0.0,330.0,1.0,0.0
3018,58.0,0.0,330.0,3.0,0.0
3019,61.0,0.0,330.0,2.0,0.0
3020,46.0,0.0,330.0,4.0,0.0
3021,61.0,80.0,150.0,2.0,0.0
3022,57.0,0.0,150.0,3.0,0.0
3023,67.0,0.0,150.0,1.0,0.0
3024,64.0,0.0,150.0,1.0,0.0
3025,45.0,0.0,150.0,4.0,0.0
3026,64.0,0.0,60.0,1.0,0.0
3027,68.0,192.0,60.0,1.0,0.0
3028,44.0,0.0,60.0,4.0,0.0
3029,56.0,0.0,60.0,3.0,0.0
3030,61.0,0.0,60.0,2.0,0.0
3031,61.0,192.0,60.0,3.0,0.0
3032,69.0,0.0,60.0,1.0,0.0
3033,66.0,0.0,60.0,2.0,0.0
3034,42.0,0.0,60.0,4.0,0.0
3035,63.0,0.0,60.0,2.0,0.0
3036,66.0,0.0,60.0,1.0,0.0
3037,47.0,0.0,60.0,4.0,0.0
3038,57.0,238.0,60.0,3.0,0.0
3039,56.0,66.0,90.0,3.0,0.0
3040,64.0,30.0,150.0,1.0,0.0
3041,52.0,48.0,300.0,4.0,0.0
3042,64.0,0.0,90.0,3.0,0.0
3043,59.0,96.0,90.0,2.0,0.0
3044,68.0,0.0,90.0,2.0,0.0
3045,59.0,0.0,90.0,2.0,0.0
3046,68.0,0.0,90.0,2.0,0.0
3047,64.0,2.0,90.0,3.0,0.0
3048,59.0,34.0,90.0,2.0,0.0
3049,54.0,46.0,60.0,4.0,0.0
3050,68.0,0.0,90.0,2.0,0.0
3051,64.0,0.0,90.0,3.0,0.0
3052,52.0,0.0,60.0,4.0,0.0
3053,64.0,0.0,90.0,3.0,0.0
3054,68.0,34.0,90.0,2.0,0.0
3055,59.0,0.0,90.0,2.0,0.0
3056,51.0,62.0,30.0,4.0,0.0
3057,64.0,96.0,90.0,3.0,0.0
3058,68.0,0.0,90.0,2.0,0.0
3059,52.0,62.0,30.0,4.0,0.0
3060,59.0,0.0,90.0,2.0,0.0
3061,59.0,0.0,90.0,2.0,0.0
3062,68.0,66.0,90.0,2.0,0.0
3063,40.0,30.0,150.0,4.0,0.0
3064,64.0,0.0,90.0,3.0,0.0
3065,64.0,96.0,90.0,3.0,0.0
3066,59.0,0.0,90.0,2.0,0.0
3067,68.0,0.0,90.0,2.0,0.0
3068,80.0,30.0,150.0,1.0,0.0
3069,64.0,66.0,90.0,3.0,0.0
3070,68.0,0.0,90.0,2.0,0.0
3071,59.0,0.0,90.0,2.0,0.0
3072,64.0,0.0,90.0,3.0,0.0
3073,59.0,0.0,90.0,2.0,0.0
3074,68.0,34.0,90.0,2.0,0.0
3075,68.0,0.0,90.0,2.0,0.0
3076,59.0,0.0,90.0,2.0,0.0
3077,81.0,32.0,30.0,1.0,0.0
3078,64.0,2.0,90.0,3.0,0.0
3079,80.0,30.0,30.0,1.0,0.0
3080,81.0,32.0,30.0,1.0,0.0
3081,59.0,0.0,90.0,2.0,0.0
3082,68.0,96.0,90.0,2.0,0.0
3083,80.0,32.0,30.0,1.0,0.0
3084,64.0,0.0,90.0,3.0,0.0
3085,78.0,30.0,30.0,1.0,0.0
3086,80.0,0.0,30.0,1.0,0.0
3087,69.0,0.0,90.0,2.0,0.0
3088,83.0,94.0,180.0,1.0,0.0
3089,52.0,48.0,300.0,4.0,0.0
3090,59.0,96.0,90.0,2.0,0.0
3091,66.0,0.0,90.0,3.0,0.0
3092,66.0,0.0,90.0,3.0,0.0
3093,69.0,2.0,90.0,2.0,0.0
3094,59.0,0.0,90.0,2.0,0.0
3095,66.0,2.0,90.0,3.0,0.0
3096,81.0,30.0,150.0,1.0,0.0
3097,59.0,0.0,90.0,2.0,0.0
3098,69.0,0.0,90.0,2.0,0.0
3099,66.0,0.0,90.0,3.0,0.0
3100,54.0,16.0,60.0,4.0,0.0
3101,59.0,0.0,90.0,2.0,0.0
3102,69.0,0.0,90.0,2.0,0.0
3103,52.0,34.0,60.0,4.0,0.0
3104,59.0,34.0,90.0,2.0,0.0
3105,51.0,62.0,30.0,4.0,0.0
3106,66.0,0.0,90.0,3.0,0.0
3107,69.0,0.0,90.0,2.0,0.0
3108,52.0,62.0,30.0,4.0,0.0
3109,66.0,0.0,90.0,3.0,0.0
3110,59.0,0.0,90.0,2.0,0.0
3111,69.0,96.0,90.0,2.0,0.0
3112,69.0,0.0,90.0,2.0,0.0
3113,59.0,0.0,90.0,2.0,0.0
3114,66.0,66.0,90.0,3.0,0.0
3115,40.0,30.0,150.0,4.0,0.0
3116,66.0,96.0,90.0,3.0,0.0
3117,59.0,0.0,90.0,2.0,0.0
3118,69.0,0.0,90.0,2.0,0.0
3119,69.0,66.0,90.0,2.0,0.0
3120,59.0,0.0,90.0,2.0,0.0
3121,87.0,30.0,150.0,1.0,0.0
3122,66.0,0.0,90.0,3.0,0.0
3123,59.0,0.0,90.0,2.0,0.0
3124,69.0,34.0,90.0,2.0,0.0
3125,66.0,0.0,90.0,3.0,0.0
3126,88.0,32.0,30.0,1.0,0.0
3127,69.0,0.0,90.0,2.0,0.0
3128,59.0,0.0,90.0,2.0,0.0
3129,66.0,2.0,90.0,3.0,0.0
3130,87.0,30.0,30.0,1.0,0.0
3131,88.0,32.0,30.0,1.0,0.0
3132,59.0,0.0,90.0,2.0,0.0
3133,69.0,50.0,90.0,2.0,0.0
3134,66.0,0.0,90.0,3.0,0.0
3135,87.0,32.0,30.0,1.0,0.0
3136,85.0,30.0,30.0,1.0,0.0
3137,87.0,0.0,30.0,1.0,0.0
3138,88.0,48.0,90.0,1.0,0.0
3139,64.0,2.0,90.0,3.0,0.0
3140,54.0,46.0,60.0,4.0,0.0
3141,68.0,0.0,90.0,2.0,0.0
3142,59.0,0.0,90.0,2.0,0.0
3143,52.0,0.0,60.0,4.0,0.0
3144,51.0,46.0,60.0,4.0,0.0
3145,92.0,0.0,90.0,1.0,0.0
3146,59.0,0.0,90.0,2.0,0.0
3147,64.0,50.0,90.0,3.0,0.0
3148,68.0,0.0,90.0,2.0,0.0
3149,52.0,0.0,60.0,4.0,0.0
3150,68.0,0.0,90.0,2.0,0.0
3151,64.0,2.0,90.0,3.0,0.0
3152,54.0,46.0,60.0,4.0,0.0
3153,59.0,0.0,90.0,2.0,0.0
3154,83.0,30.0,150.0,1.0,0.0
3155,52.0,48.0,60.0,4.0,0.0
3156,51.0,16.0,60.0,4.0,0.0
3157,59.0,50.0,90.0,2.0,0.0
3158,64.0,0.0,90.0,3.0,0.0
3159,68.0,0.0,90.0,2.0,0.0
3160,52.0,0.0,60.0,4.0,0.0
3161,54.0,46.0,60.0,4.0,0.0
3162,64.0,0.0,90.0,3.0,0.0
3163,59.0,0.0,90.0,2.0,0.0
3164,68.0,2.0,90.0,2.0,0.0
3165,52.0,48.0,60.0,4.0,0.0
3166,51.0,46.0,60.0,4.0,0.0
3167,68.0,0.0,90.0,2.0,0.0
3168,59.0,50.0,90.0,2.0,0.0
3169,64.0,0.0,90.0,3.0,0.0
3170,52.0,0.0,60.0,4.0,0.0
3171,59.0,2.0,90.0,2.0,0.0
3172,68.0,0.0,90.0,2.0,0.0
3173,81.0,46.0,60.0,1.0,0.0
3174,64.0,0.0,90.0,3.0,0.0
3175,40.0,30.0,150.0,4.0,0.0
3176,80.0,48.0,60.0,1.0,0.0
3177,59.0,0.0,90.0,2.0,0.0
3178,64.0,0.0,90.0,3.0,0.0
3179,78.0,16.0,60.0,1.0,0.0
3180,68.0,0.0,90.0,2.0,0.0
3181,80.0,50.0,60.0,1.0,0.0
3182,81.0,46.0,60.0,1.0,0.0
3183,68.0,2.0,90.0,2.0,0.0
3184,64.0,0.0,90.0,3.0,0.0
3185,59.0,0.0,90.0,2.0,0.0
3186,80.0,48.0,60.0,1.0,0.0
3187,68.0,0.0,90.0,2.0,0.0
3188,59.0,0.0,90.0,2.0,0.0
3189,78.0,46.0,60.0,1.0,0.0
3190,64.0,0.0,90.0,3.0,0.0
3191,80.0,50.0,60.0,1.0,0.0
3192,68.0,2.0,90.0,2.0,0.0
3193,59.0,0.0,90.0,2.0,0.0
3194,81.0,46.0,60.0,1.0,0.0
3195,64.0,0.0,90.0,3.0,0.0
3196,80.0,48.0,60.0,1.0,0.0
3197,78.0,46.0,60.0,1.0,0.0
3198,59.0,0.0,90.0,2.0,0.0
3199,68.0,0.0,90.0,2.0,0.0
3200,64.0,0.0,90.0,3.0,0.0
3201,80.0,50.0,60.0,1.0,0.0
3202,66.0,0.0,90.0,3.0,0.0
3203,54.0,46.0,60.0,4.0,0.0
3204,83.0,48.0,180.0,1.0,0.0
3205,59.0,2.0,90.0,2.0,0.0
3206,69.0,0.0,90.0,2.0,0.0
3207,52.0,48.0,60.0,4.0,0.0
3208,51.0,46.0,60.0,4.0,0.0
3209,59.0,0.0,90.0,2.0,0.0
3210,69.0,0.0,90.0,2.0,0.0
3211,66.0,0.0,90.0,3.0,0.0
3212,52.0,2.0,60.0,4.0,0.0
3213,69.0,2.0,90.0,2.0,0.0
3214,66.0,0.0,90.0,3.0,0.0
3215,59.0,0.0,90.0,2.0,0.0
3216,81.0,30.0,150.0,1.0,0.0
3217,54.0,46.0,60.0,4.0,0.0
3218,52.0,48.0,60.0,4.0,0.0
3219,69.0,50.0,90.0,2.0,0.0
3220,59.0,0.0,90.0,2.0,0.0
3221,51.0,16.0,60.0,4.0,0.0
3222,66.0,0.0,90.0,3.0,0.0
3223,52.0,0.0,60.0,4.0,0.0
3224,69.0,0.0,90.0,2.0,0.0
3225,59.0,0.0,90.0,2.0,0.0
3226,54.0,46.0,60.0,4.0,0.0
3227,66.0,2.0,90.0,3.0,0.0
3228,52.0,48.0,60.0,4.0,0.0
3229,59.0,50.0,90.0,2.0,0.0
3230,69.0,0.0,90.0,2.0,0.0
3231,51.0,46.0,60.0,4.0,0.0
3232,66.0,0.0,90.0,3.0,0.0
3233,52.0,0.0,60.0,4.0,0.0
3234,40.0,30.0,150.0,4.0,0.0
3235,59.0,0.0,90.0,2.0,0.0
3236,88.0,46.0,60.0,1.0,0.0
3237,69.0,2.0,90.0,2.0,0.0
3238,66.0,0.0,90.0,3.0,0.0
3239,87.0,48.0,60.0,1.0,0.0
3240,69.0,0.0,90.0,2.0,0.0
3241,59.0,0.0,90.0,2.0,0.0
3242,66.0,0.0,90.0,3.0,0.0
3243,85.0,16.0,60.0,1.0,0.0
3244,87.0,50.0,60.0,1.0,0.0
3245,88.0,46.0,60.0,1.0,0.0
3246,66.0,0.0,90.0,3.0,0.0
3247,59.0,2.0,90.0,2.0,0.0
3248,69.0,0.0,90.0,2.0,0.0
3249,87.0,48.0,60.0,1.0,0.0
3250,59.0,50.0,90.0,2.0,0.0
3251,69.0,0.0,90.0,2.0,0.0
3252,85.0,46.0,60.0,1.0,0.0
3253,66.0,0.0,90.0,3.0,0.0
3254,87.0,0.0,60.0,1.0,0.0
3255,88.0,46.0,60.0,1.0,0.0
3256,69.0,2.0,90.0,2.0,0.0
3257,59.0,0.0,90.0,2.0,0.0
3258,66.0,0.0,90.0,3.0,0.0
3259,87.0,48.0,60.0,1.0,0.0
3260,66.0,34.0,90.0,3.0,0.0
3261,85.0,46.0,60.0,1.0,0.0
3262,69.0,0.0,90.0,2.0,0.0
3263,59.0,0.0,90.0,2.0,0.0
3264,87.0,0.0,60.0,1.0,0.0
3265,59.0,0.0,60.0,2.0,0.0
3266,88.0,16.0,30.0,1.0,0.0
3267,52.0,0.0,60.0,4.0,0.0
3268,68.0,0.0,60.0,2.0,0.0
3269,64.0,32.0,60.0,3.0,0.0
3270,92.0,48.0,30.0,1.0,0.0
3271,90.0,48.0,30.0,1.0,0.0
3272,88.0,48.0,30.0,1.0,0.0
3273,87.0,16.0,30.0,1.0,0.0
3274,59.0,0.0,60.0,3.0,0.0
3275,52.0,32.0,60.0,4.0,0.0
3276,76.0,0.0,60.0,2.0,0.0
3277,68.0,0.0,60.0,3.0,0.0
3278,85.0,48.0,30.0,1.0,0.0
3279,83.0,48.0,30.0,1.0,0.0
3280,81.0,48.0,30.0,1.0,0.0
3281,80.0,48.0,30.0,1.0,0.0
3282,88.0,48.0,30.0,1.0,0.0
3283,87.0,48.0,30.0,1.0,0.0
3284,85.0,62.0,30.0,1.0,0.0
3285,83.0,48.0,60.0,1.0,0.0
3286,81.0,48.0,60.0,1.0,0.0
3287,80.0,48.0,60.0,1.0,0.0
3288,78.0,48.0,60.0,1.0,0.0
3289,76.0,48.0,60.0,1.0,0.0
3290,83.0,48.0,60.0,1.0,0.0
3291,81.0,48.0,60.0,1.0,0.0
3292,80.0,48.0,60.0,1.0,0.0
3293,78.0,48.0,60.0,1.0,0.0
3294,76.0,48.0,60.0,1.0,0.0
3295,75.0,48.0,60.0,1.0,0.0
3296,73.0,48.0,60.0,1.0,0.0
3297,71.0,48.0,60.0,1.0,0.0
3298,80.0,48.0,60.0,1.0,0.0
3299,78.0,48.0,60.0,1.0,0.0
3300,76.0,48.0,60.0,1.0,0.0
3301,75.0,48.0,60.0,1.0,0.0
3302,73.0,48.0,60.0,1.0,0.0
3303,71.0,48.0,60.0,1.0,0.0
3304,69.0,48.0,60.0,1.0,0.0
3305,56.0,0.0,60.0,4.0,0.0
3306,68.0,48.0,60.0,1.0,0.0
3307,76.0,48.0,60.0,1.0,0.0
3308,64.0,0.0,60.0,4.0,0.0
3309,63.0,0.0,60.0,4.0,0.0
3310,75.0,48.0,60.0,1.0,0.0
3311,61.0,0.0,60.0,4.0,0.0
3312,73.0,48.0,60.0,1.0,0.0
3313,59.0,48.0,60.0,4.0,0.0
3314,71.0,0.0,60.0,1.0,0.0
3315,57.0,0.0,60.0,4.0,0.0
3316,69.0,48.0,60.0,1.0,0.0
3317,68.0,0.0,60.0,1.0,0.0
3318,56.0,48.0,60.0,4.0,0.0
3319,66.0,0.0,60.0,1.0,0.0
3320,54.0,50.0,60.0,4.0,0.0
3321,64.0,48.0,60.0,1.0,0.0
3322,52.0,0.0,60.0,4.0,0.0
3323,51.0,0.0,60.0,4.0,0.0
3324,63.0,48.0,60.0,1.0,0.0
3325,52.0,48.0,60.0,4.0,0.0
3326,64.0,0.0,60.0,1.0,0.0
3327,63.0,0.0,60.0,1.0,0.0
3328,51.0,48.0,60.0,4.0,0.0
3329,52.0,48.0,60.0,4.0,0.0
3330,64.0,0.0,60.0,1.0,0.0
3331,63.0,48.0,60.0,1.0,0.0
3332,51.0,0.0,60.0,4.0,0.0
3333,52.0,0.0,60.0,4.0,0.0
3334,64.0,46.0,60.0,1.0,0.0
3335,51.0,0.0,60.0,4.0,0.0
3336,63.0,50.0,60.0,1.0,0.0
3337,64.0,0.0,60.0,1.0,0.0
3338,52.0,192.0,60.0,4.0,0.0
3339,40.0,0.0,60.0,4.0,0.0
3340,56.0,192.0,60.0,3.0,0.0
3341,59.0,0.0,60.0,2.0,0.0
3342,64.0,0.0,60.0,1.0,0.0
3343,59.0,0.0,60.0,2.0,0.0
3344,40.0,0.0,60.0,4.0,0.0
3345,64.0,192.0,60.0,1.0,0.0
3346,56.0,0.0,60.0,3.0,0.0
3347,64.0,0.0,60.0,1.0,0.0
3348,56.0,0.0,60.0,3.0,0.0
3349,40.0,0.0,60.0,4.0,0.0
3350,59.0,560.0,60.0,2.0,0.0
3351,85.0,48.0,30.0,1.0,0.0
3352,73.0,16.0,150.0,2.0,0.0
3353,49.0,0.0,150.0,4.0,0.0
3354,61.0,0.0,150.0,3.0,0.0
3355,92.0,48.0,30.0,1.0,0.0
3356,90.0,32.0,30.0,1.0,0.0
3357,89.0,48.0,30.0,1.0,0.0
3358,87.0,48.0,30.0,1.0,0.0
3359,85.0,48.0,30.0,1.0,0.0
3360,84.0,48.0,30.0,1.0,0.0
3361,82.0,48.0,30.0,1.0,0.0
3362,80.0,48.0,30.0,1.0,0.0
3363,85.0,48.0,30.0,1.0,0.0
3364,84.0,48.0,30.0,1.0,0.0
3365,82.0,48.0,30.0,1.0,0.0
3366,80.0,48.0,30.0,1.0,0.0
3367,78.0,48.0,30.0,1.0,0.0
3368,77.0,48.0,30.0,1.0,0.0
3369,75.0,62.0,30.0,1.0,0.0
3370,73.0,48.0,60.0,1.0,0.0
3371,80.0,48.0,60.0,1.0,0.0
3372,78.0,48.0,60.0,1.0,0.0
3373,77.0,48.0,60.0,1.0,0.0
3374,75.0,48.0,60.0,1.0,0.0
3375,73.0,48.0,60.0,1.0,0.0
3376,72.0,48.0,60.0,1.0,0.0
3377,70.0,48.0,60.0,1.0,0.0
3378,56.0,0.0,60.0,4.0,0.0
3379,68.0,48.0,60.0,1.0,0.0
3380,61.0,0.0,60.0,4.0,0.0
3381,73.0,48.0,60.0,1.0,0.0
3382,72.0,0.0,60.0,1.0,0.0
3383,60.0,48.0,60.0,4.0,0.0
3384,70.0,0.0,60.0,1.0,0.0
3385,58.0,48.0,60.0,4.0,0.0
3386,68.0,0.0,60.0,1.0,0.0
3387,56.0,48.0,60.0,4.0,0.0
3388,66.0,48.0,60.0,1.0,0.0
3389,54.0,0.0,60.0,4.0,0.0
3390,53.0,0.0,60.0,4.0,0.0
3391,65.0,48.0,60.0,1.0,0.0
3392,51.0,0.0,60.0,4.0,0.0
3393,63.0,50.0,60.0,1.0,0.0
3394,49.0,0.0,60.0,4.0,0.0
3395,61.0,48.0,60.0,1.0,0.0
3396,48.0,0.0,60.0,4.0,0.0
3397,60.0,48.0,60.0,1.0,0.0
3398,61.0,46.0,60.0,1.0,0.0
3399,49.0,0.0,60.0,4.0,0.0
3400,60.0,0.0,60.0,1.0,0.0
3401,48.0,50.0,60.0,4.0,0.0
3402,49.0,0.0,60.0,4.0,0.0
3403,61.0,192.0,60.0,1.0,0.0
3404,61.0,0.0,60.0,1.0,0.0
3405,49.0,192.0,60.0,4.0,0.0
3406,61.0,288.0,180.0,1.0,0.0
3407,49.0,144.0,60.0,4.0,0.0
3408,50.0,48.0,300.0,4.0,0.0
3409,62.0,48.0,630.0,1.0,0.0
3410,64.0,0.0,60.0,3.0,0.0
3411,52.0,46.0,60.0,4.0,0.0
3412,62.0,34.0,60.0,3.0,0.0
3413,50.0,0.0,60.0,4.0,0.0
3414,61.0,96.0,30.0,3.0,0.0
3415,49.0,0.0,30.0,4.0,0.0
3416,62.0,110.0,30.0,3.0,0.0
3417,50.0,0.0,30.0,4.0,0.0
3418,62.0,30.0,150.0,2.0,0.0
3419,57.0,46.0,540.0,3.0,0.0
3420,45.0,0.0,540.0,4.0,0.0
3421,78.0,48.0,60.0,1.0,0.0
3422,81.0,18.0,60.0,1.0,0.0
3423,86.0,48.0,60.0,1.0,0.0
3424,62.0,46.0,60.0,2.0,0.0
3425,90.0,2.0,60.0,1.0,0.0
3426,86.0,48.0,60.0,1.0,0.0
3427,90.0,48.0,60.0,1.0,0.0
3428,86.0,48.0,60.0,1.0,0.0
3429,62.0,46.0,60.0,2.0,0.0
3430,90.0,2.0,60.0,1.0,0.0
3431,86.0,48.0,60.0,1.0,0.0
3432,90.0,2.0,60.0,1.0,0.0
3433,86.0,162.0,60.0,1.0,0.0
3434,50.0,0.0,300.0,4.0,0.0
3435,62.0,48.0,300.0,3.0,0.0
3436,91.0,128.0,150.0,1.0,0.0
3437,64.0,0.0,60.0,3.0,0.0
3438,52.0,46.0,60.0,4.0,0.0
3439,62.0,0.0,60.0,3.0,0.0
3440,50.0,34.0,60.0,4.0,0.0
3441,61.0,0.0,30.0,3.0,0.0
3442,49.0,96.0,30.0,4.0,0.0
3443,50.0,0.0,30.0,4.0,0.0
3444,62.0,64.0,30.0,3.0,0.0
3445,59.0,46.0,540.0,3.0,0.0
3446,62.0,48.0,15.0,2.0,0.0
3447,47.0,0.0,540.0,4.0,0.0
3448,79.0,48.0,60.0,1.0,0.0
3449,83.0,48.0,60.0,1.0,0.0
3450,86.0,48.0,60.0,1.0,0.0
3451,62.0,46.0,60.0,2.0,0.0
3452,91.0,2.0,60.0,1.0,0.0
3453,86.0,48.0,60.0,1.0,0.0
3454,91.0,48.0,60.0,1.0,0.0
3455,86.0,48.0,60.0,1.0,0.0
3456,62.0,46.0,60.0,2.0,0.0
3457,91.0,2.0,60.0,1.0,0.0
3458,86.0,48.0,60.0,1.0,0.0
3459,91.0,2.0,60.0,1.0,0.0
3460,86.0,162.0,60.0,1.0,0.0
3461,91.0,128.0,150.0,1.0,0.0
3462,74.0,48.0,300.0,2.0,0.0
3463,67.0,144.0,960.0,3.0,0.0
3464,59.0,384.0,570.0,4.0,0.0
3465,76.0,46.0,60.0,2.0,0.0
3466,74.0,34.0,60.0,2.0,0.0
3467,73.0,96.0,30.0,2.0,0.0
3468,74.0,64.0,30.0,2.0,0.0
3469,61.0,16.0,540.0,4.0,0.0
3470,76.0,0.0,390.0,2.0,0.0
3471,67.0,0.0,150.0,2.0,0.0
3472,64.0,416.0,150.0,3.0,0.0
3473,88.0,160.0,390.0,1.0,0.0
3474,79.0,320.0,150.0,1.0,0.0
3475,78.0,48.0,300.0,2.0,0.0
3476,62.0,384.0,570.0,4.0,0.0
3477,71.0,144.0,960.0,3.0,0.0
3478,80.0,46.0,60.0,2.0,0.0
3479,78.0,34.0,60.0,2.0,0.0
3480,77.0,96.0,30.0,2.0,0.0
3481,78.0,64.0,30.0,2.0,0.0
3482,65.0,16.0,540.0,4.0,0.0
3483,80.0,0.0,390.0,2.0,0.0
3484,68.0,416.0,150.0,3.0,0.0
3485,71.0,0.0,150.0,2.0,0.0
3486,92.0,160.0,390.0,1.0,0.0
3487,83.0,320.0,150.0,1.0,0.0
3488,62.0,48.0,300.0,4.0,0.0
3489,64.0,46.0,60.0,4.0,0.0
3490,62.0,34.0,60.0,4.0,0.0
3491,61.0,96.0,30.0,4.0,0.0
3492,62.0,112.0,30.0,4.0,0.0
3493,74.0,48.0,300.0,3.0,0.0
3494,53.0,192.0,60.0,4.0,0.0
3495,54.0,48.0,60.0,4.0,0.0
3496,76.0,46.0,60.0,3.0,0.0
3497,74.0,34.0,60.0,3.0,0.0
3498,73.0,16.0,30.0,3.0,0.0
3499,55.0,80.0,60.0,4.0,0.0
3500,74.0,112.0,30.0,3.0,0.0
3501,86.0,48.0,300.0,1.0,0.0
3502,65.0,0.0,60.0,3.0,0.0
3503,56.0,192.0,60.0,4.0,0.0
3504,74.0,32.0,300.0,2.0,0.0
3505,65.0,48.0,60.0,4.0,0.0
3506,68.0,0.0,60.0,3.0,0.0
3507,88.0,46.0,60.0,1.0,0.0
3508,86.0,34.0,60.0,1.0,0.0
3509,66.0,48.0,60.0,4.0,0.0
3510,69.0,0.0,60.0,3.0,0.0
3511,85.0,16.0,30.0,1.0,0.0
3512,76.0,46.0,60.0,2.0,0.0
3513,86.0,16.0,30.0,1.0,0.0
3514,74.0,34.0,60.0,2.0,0.0
3515,71.0,0.0,60.0,3.0,0.0
3516,77.0,0.0,60.0,1.0,0.0
3517,73.0,16.0,30.0,2.0,0.0
3518,68.0,80.0,60.0,4.0,0.0
3519,74.0,112.0,30.0,2.0,0.0
3520,71.0,0.0,60.0,3.0,0.0
3521,83.0,0.0,60.0,2.0,0.0
3522,68.0,0.0,60.0,4.0,0.0
3523,92.0,192.0,60.0,1.0,0.0
3524,73.0,0.0,60.0,3.0,0.0
3525,90.0,0.0,60.0,1.0,0.0
3526,69.0,192.0,60.0,4.0,0.0
3527,81.0,0.0,60.0,2.0,0.0
3528,71.0,0.0,60.0,4.0,0.0
3529,74.0,48.0,60.0,3.0,0.0
3530,89.0,48.0,90.0,1.0,0.0
3531,80.0,48.0,300.0,2.0,0.0
3532,92.0,46.0,60.0,1.0,0.0
3533,90.0,98.0,60.0,1.0,0.0
3534,74.0,0.0,300.0,3.0,0.0
3535,71.0,94.0,300.0,4.0,0.0
3536,89.0,0.0,300.0,1.0,0.0
3537,83.0,46.0,60.0,2.0,0.0
3538,81.0,98.0,60.0,2.0,0.0
3539,80.0,0.0,90.0,2.0,0.0
3540,73.0,0.0,90.0,3.0,0.0
3541,90.0,0.0,90.0,1.0,0.0
3542,78.0,50.0,90.0,2.0,0.0
3543,69.0,0.0,90.0,4.0,0.0
3544,74.0,48.0,60.0,3.0,0.0
3545,71.0,0.0,60.0,4.0,0.0
3546,89.0,48.0,90.0,1.0,0.0
3547,80.0,48.0,300.0,2.0,0.0
3548,92.0,46.0,60.0,1.0,0.0
3549,90.0,98.0,60.0,1.0,0.0
3550,74.0,0.0,300.0,3.0,0.0
3551,89.0,0.0,300.0,1.0,0.0
3552,71.0,94.0,300.0,4.0,0.0
3553,83.0,46.0,60.0,2.0,0.0
3554,81.0,98.0,60.0,2.0,0.0
3555,80.0,0.0,90.0,2.0,0.0
3556,78.0,0.0,90.0,2.0,0.0
3557,90.0,0.0,90.0,1.0,0.0
3558,73.0,0.0,90.0,3.0,0.0
3559,69.0,290.0,90.0,4.0,0.0
3560,79.0,48.0,300.0,2.0,0.0
3561,81.0,46.0,60.0,2.0,0.0
3562,79.0,34.0,60.0,2.0,0.0
3563,78.0,96.0,30.0,2.0,0.0
3564,79.0,112.0,30.0,2.0,0.0
3565,67.0,48.0,300.0,4.0,0.0
3566,70.0,192.0,60.0,2.0,0.0
3567,71.0,48.0,60.0,2.0,0.0
3568,69.0,46.0,60.0,4.0,0.0
3569,67.0,34.0,60.0,4.0,0.0
3570,72.0,80.0,60.0,2.0,0.0
3571,66.0,16.0,30.0,4.0,0.0
3572,67.0,112.0,30.0,4.0,0.0
3573,73.0,0.0,60.0,2.0,0.0
3574,91.0,48.0,300.0,1.0,0.0
3575,58.0,192.0,60.0,4.0,0.0
3576,59.0,0.0,60.0,4.0,0.0
3577,74.0,48.0,60.0,2.0,0.0
3578,67.0,32.0,300.0,3.0,0.0
3579,93.0,46.0,60.0,1.0,0.0
3580,91.0,34.0,60.0,1.0,0.0
3581,60.0,0.0,60.0,4.0,0.0
3582,75.0,48.0,60.0,2.0,0.0
3583,90.0,16.0,30.0,1.0,0.0
3584,91.0,16.0,30.0,1.0,0.0
3585,69.0,46.0,60.0,3.0,0.0
3586,67.0,34.0,60.0,3.0,0.0
3587,66.0,16.0,30.0,3.0,0.0
3588,82.0,0.0,60.0,1.0,0.0
3589,76.0,80.0,60.0,2.0,0.0
3590,61.0,0.0,60.0,4.0,0.0
3591,67.0,112.0,30.0,3.0,0.0
3592,85.0,0.0,60.0,2.0,0.0
3593,64.0,0.0,60.0,3.0,0.0
3594,61.0,0.0,60.0,4.0,0.0
3595,88.0,192.0,60.0,1.0,0.0
3596,86.0,0.0,60.0,1.0,0.0
3597,62.0,240.0,60.0,4.0,0.0
3598,66.0,0.0,60.0,3.0,0.0
3599,83.0,0.0,60.0,2.0,0.0
3600,82.0,0.0,90.0,2.0,0.0
3601,64.0,48.0,300.0,4.0,0.0
3602,67.0,0.0,300.0,3.0,0.0
3603,85.0,48.0,90.0,1.0,0.0
3604,88.0,46.0,60.0,1.0,0.0
3605,85.0,0.0,60.0,2.0,0.0
3606,86.0,98.0,60.0,1.0,0.0
3607,83.0,0.0,60.0,2.0,0.0
3608,85.0,0.0,300.0,1.0,0.0
3609,82.0,0.0,300.0,2.0,0.0
3610,64.0,46.0,60.0,3.0,0.0
3611,61.0,0.0,60.0,4.0,0.0
3612,62.0,0.0,60.0,4.0,0.0
3613,66.0,98.0,60.0,3.0,0.0
3614,67.0,0.0,90.0,3.0,0.0
3615,64.0,94.0,90.0,4.0,0.0
3616,62.0,0.0,90.0,4.0,0.0
3617,83.0,0.0,90.0,2.0,0.0
3618,86.0,0.0,90.0,1.0,0.0
3619,66.0,98.0,90.0,3.0,0.0
3620,64.0,48.0,300.0,4.0,0.0
3621,85.0,0.0,90.0,1.0,0.0
3622,67.0,0.0,300.0,3.0,0.0
3623,82.0,48.0,90.0,2.0,0.0
3624,88.0,46.0,60.0,1.0,0.0
3625,85.0,0.0,60.0,2.0,0.0
3626,86.0,98.0,60.0,1.0,0.0
3627,83.0,0.0,60.0,2.0,0.0
3628,85.0,0.0,300.0,1.0,0.0
3629,82.0,94.0,300.0,2.0,0.0
3630,61.0,0.0,60.0,4.0,0.0
3631,64.0,46.0,60.0,3.0,0.0
3632,66.0,0.0,60.0,3.0,0.0
3633,62.0,98.0,60.0,4.0,0.0
3634,64.0,0.0,90.0,4.0,0.0
3635,67.0,0.0,90.0,3.0,0.0
3636,86.0,0.0,90.0,1.0,0.0
3637,62.0,290.0,90.0,4.0,0.0
3638,66.0,0.0,90.0,3.0,0.0
3639,83.0,0.0,90.0,2.0,0.0
3640,72.0,48.0,300.0,3.0,0.0
3641,74.0,46.0,60.0,3.0,0.0
3642,72.0,34.0,60.0,3.0,0.0
3643,71.0,96.0,30.0,3.0,0.0
3644,72.0,112.0,30.0,3.0,0.0
3645,63.0,192.0,60.0,3.0,0.0
3646,60.0,48.0,300.0,4.0,0.0
3647,64.0,48.0,60.0,3.0,0.0
3648,62.0,46.0,60.0,4.0,0.0
3649,60.0,34.0,60.0,4.0,0.0
3650,59.0,16.0,30.0,4.0,0.0
3651,65.0,80.0,60.0,3.0,0.0
3652,60.0,112.0,30.0,4.0,0.0
3653,51.0,0.0,60.0,4.0,0.0
3654,84.0,48.0,300.0,1.0,0.0
3655,66.0,192.0,60.0,3.0,0.0
3656,52.0,0.0,60.0,4.0,0.0
3657,67.0,48.0,60.0,3.0,0.0
3658,72.0,32.0,300.0,2.0,0.0
3659,86.0,46.0,60.0,1.0,0.0
3660,84.0,34.0,60.0,1.0,0.0
3661,83.0,16.0,30.0,1.0,0.0
3662,68.0,0.0,60.0,3.0,0.0
3663,53.0,48.0,60.0,4.0,0.0
3664,84.0,16.0,30.0,1.0,0.0
3665,74.0,46.0,60.0,2.0,0.0
3666,72.0,34.0,60.0,2.0,0.0
3667,75.0,0.0,60.0,1.0,0.0
3668,54.0,0.0,60.0,4.0,0.0
3669,69.0,80.0,60.0,3.0,0.0
3670,71.0,16.0,30.0,2.0,0.0
3671,72.0,112.0,30.0,2.0,0.0
3672,69.0,192.0,60.0,4.0,0.0
3673,72.0,0.0,60.0,3.0,0.0
3674,84.0,0.0,60.0,1.0,0.0
3675,78.0,0.0,60.0,2.0,0.0
3676,84.0,0.0,60.0,1.0,0.0
3677,76.0,240.0,60.0,2.0,0.0
3678,67.0,0.0,60.0,4.0,0.0
3679,71.0,0.0,60.0,3.0,0.0
3680,66.0,48.0,90.0,4.0,0.0
3681,69.0,0.0,90.0,3.0,0.0
3682,75.0,0.0,90.0,2.0,0.0
3683,84.0,48.0,300.0,1.0,0.0
3684,69.0,0.0,60.0,4.0,0.0
3685,72.0,46.0,60.0,3.0,0.0
3686,78.0,0.0,60.0,2.0,0.0
3687,71.0,98.0,60.0,3.0,0.0
3688,67.0,0.0,60.0,4.0,0.0
3689,76.0,0.0,60.0,2.0,0.0
3690,66.0,94.0,300.0,4.0,0.0
3691,69.0,0.0,300.0,3.0,0.0
3692,75.0,0.0,300.0,2.0,0.0
3693,81.0,46.0,60.0,1.0,0.0
3694,83.0,98.0,60.0,1.0,0.0
3695,84.0,0.0,90.0,1.0,0.0
3696,83.0,0.0,90.0,1.0,0.0
3697,76.0,98.0,90.0,2.0,0.0
3698,67.0,0.0,90.0,4.0,0.0
3699,71.0,0.0,90.0,3.0,0.0
3700,75.0,0.0,90.0,2.0,0.0
3701,69.0,48.0,90.0,3.0,0.0
3702,66.0,0.0,90.0,4.0,0.0
3703,84.0,48.0,300.0,1.0,0.0
3704,69.0,0.0,60.0,4.0,0.0
3705,78.0,0.0,60.0,2.0,0.0
3706,72.0,46.0,60.0,3.0,0.0
3707,67.0,98.0,60.0,4.0,0.0
3708,76.0,0.0,60.0,2.0,0.0
3709,71.0,0.0,60.0,3.0,0.0
3710,69.0,0.0,300.0,3.0,0.0
3711,66.0,0.0,300.0,4.0,0.0
3712,75.0,94.0,300.0,2.0,0.0
3713,81.0,46.0,60.0,1.0,0.0
3714,83.0,98.0,60.0,1.0,0.0
3715,84.0,0.0,90.0,1.0,0.0
3716,76.0,0.0,90.0,2.0,0.0
3717,67.0,0.0,90.0,4.0,0.0
3718,71.0,0.0,90.0,3.0,0.0
3719,83.0,98.0,90.0,1.0,0.0
3720,74.0,48.0,90.0,3.0,0.0
3721,77.0,0.0,90.0,2.0,0.0
3722,74.0,0.0,60.0,2.0,0.0
3723,71.0,46.0,60.0,3.0,0.0
3724,76.0,98.0,60.0,2.0,0.0
3725,72.0,0.0,60.0,3.0,0.0
3726,74.0,0.0,300.0,3.0,0.0
3727,92.0,48.0,90.0,1.0,0.0
3728,77.0,94.0,300.0,2.0,0.0
3729,95.0,46.0,60.0,1.0,0.0
3730,93.0,98.0,60.0,1.0,0.0
3731,92.0,0.0,90.0,1.0,0.0
3732,72.0,98.0,90.0,3.0,0.0
3733,76.0,0.0,90.0,2.0,0.0
3734,93.0,0.0,90.0,1.0,0.0
3735,74.0,48.0,90.0,3.0,0.0
3736,77.0,0.0,90.0,2.0,0.0
3737,71.0,0.0,60.0,3.0,0.0
3738,74.0,46.0,60.0,2.0,0.0
3739,76.0,0.0,60.0,2.0,0.0
3740,72.0,98.0,60.0,3.0,0.0
3741,92.0,48.0,90.0,1.0,0.0
3742,74.0,94.0,300.0,3.0,0.0
3743,77.0,0.0,300.0,2.0,0.0
3744,95.0,46.0,60.0,1.0,0.0
3745,93.0,98.0,60.0,1.0,0.0
3746,92.0,0.0,90.0,1.0,0.0
3747,93.0,98.0,90.0,1.0,0.0
3748,72.0,0.0,90.0,3.0,0.0
3749,76.0,0.0,90.0,2.0,0.0
3750,76.0,0.0,90.0,2.0,0.0
3751,85.0,48.0,300.0,1.0,0.0
3752,70.0,0.0,90.0,3.0,0.0
3753,67.0,48.0,90.0,4.0,0.0
3754,79.0,0.0,60.0,2.0,0.0
3755,67.0,0.0,60.0,3.0,0.0
3756,64.0,46.0,60.0,4.0,0.0
3757,77.0,98.0,60.0,2.0,0.0
3758,65.0,0.0,60.0,4.0,0.0
3759,69.0,0.0,60.0,3.0,0.0
3760,76.0,0.0,300.0,2.0,0.0
3761,67.0,0.0,300.0,4.0,0.0
3762,70.0,0.0,300.0,3.0,0.0
3763,88.0,46.0,60.0,1.0,0.0
3764,86.0,98.0,60.0,1.0,0.0
3765,85.0,94.0,90.0,1.0,0.0
3766,65.0,0.0,90.0,4.0,0.0
3767,74.0,0.0,90.0,2.0,0.0
3768,69.0,0.0,90.0,3.0,0.0
3769,86.0,98.0,90.0,1.0,0.0
3770,70.0,0.0,90.0,3.0,0.0
3771,85.0,48.0,300.0,1.0,0.0
3772,67.0,48.0,90.0,4.0,0.0
3773,76.0,0.0,90.0,2.0,0.0
3774,79.0,46.0,60.0,2.0,0.0
3775,67.0,0.0,60.0,3.0,0.0
3776,64.0,0.0,60.0,4.0,0.0
3777,77.0,0.0,60.0,2.0,0.0
3778,65.0,0.0,60.0,4.0,0.0
3779,69.0,98.0,60.0,3.0,0.0
3780,67.0,0.0,300.0,4.0,0.0
3781,70.0,0.0,300.0,3.0,0.0
3782,76.0,0.0,300.0,2.0,0.0
3783,88.0,46.0,60.0,1.0,0.0
3784,86.0,98.0,60.0,1.0,0.0
3785,85.0,94.0,90.0,1.0,0.0
3786,69.0,0.0,90.0,3.0,0.0
3787,65.0,0.0,90.0,4.0,0.0
3788,74.0,0.0,90.0,2.0,0.0
3789,86.0,96.0,90.0,1.0,0.0
3790,62.0,66.0,90.0,3.0,0.0
3791,65.0,0.0,90.0,2.0,0.0
3792,50.0,30.0,150.0,4.0,0.0
3793,89.0,48.0,300.0,1.0,0.0
3794,62.0,96.0,90.0,3.0,0.0
3795,65.0,0.0,90.0,2.0,0.0
3796,65.0,0.0,90.0,2.0,0.0
3797,62.0,2.0,90.0,3.0,0.0
3798,91.0,46.0,60.0,1.0,0.0
3799,62.0,34.0,90.0,3.0,0.0
3800,65.0,0.0,90.0,2.0,0.0
3801,89.0,0.0,60.0,1.0,0.0
3802,88.0,62.0,30.0,1.0,0.0
3803,62.0,0.0,90.0,3.0,0.0
3804,65.0,34.0,90.0,2.0,0.0
3805,65.0,0.0,90.0,2.0,0.0
3806,89.0,62.0,30.0,1.0,0.0
3807,62.0,96.0,90.0,3.0,0.0
3808,65.0,96.0,90.0,2.0,0.0
3809,86.0,48.0,300.0,1.0,0.0
3810,62.0,0.0,90.0,3.0,0.0
3811,62.0,0.0,90.0,3.0,0.0
3812,65.0,96.0,90.0,2.0,0.0
3813,62.0,0.0,90.0,3.0,0.0
3814,65.0,2.0,90.0,2.0,0.0
3815,62.0,34.0,90.0,3.0,0.0
3816,88.0,46.0,60.0,1.0,0.0
3817,65.0,0.0,90.0,2.0,0.0
3818,86.0,0.0,60.0,1.0,0.0
3819,62.0,0.0,90.0,3.0,0.0
3820,85.0,62.0,30.0,1.0,0.0
3821,65.0,34.0,90.0,2.0,0.0
3822,65.0,96.0,90.0,2.0,0.0
3823,62.0,0.0,90.0,3.0,0.0
3824,86.0,62.0,30.0,1.0,0.0
3825,65.0,0.0,90.0,2.0,0.0
3826,62.0,96.0,90.0,3.0,0.0
3827,81.0,48.0,300.0,1.0,0.0
3828,65.0,0.0,90.0,2.0,0.0
3829,62.0,96.0,90.0,3.0,0.0
3830,65.0,0.0,90.0,2.0,0.0
3831,62.0,2.0,90.0,3.0,0.0
3832,62.0,34.0,90.0,3.0,0.0
3833,82.0,46.0,60.0,1.0,0.0
3834,65.0,0.0,90.0,2.0,0.0
3835,81.0,0.0,60.0,1.0,0.0
3836,65.0,34.0,90.0,2.0,0.0
3837,62.0,0.0,90.0,3.0,0.0
3838,80.0,62.0,30.0,1.0,0.0
3839,62.0,96.0,90.0,3.0,0.0
3840,81.0,62.0,30.0,1.0,0.0
3841,65.0,0.0,90.0,2.0,0.0
3842,65.0,0.0,90.0,2.0,0.0
3843,62.0,96.0,90.0,3.0,0.0
3844,77.0,48.0,300.0,1.0,0.0
3845,62.0,0.0,90.0,3.0,0.0
3846,65.0,96.0,90.0,2.0,0.0
3847,65.0,2.0,90.0,2.0,0.0
3848,62.0,0.0,90.0,3.0,0.0
3849,65.0,0.0,90.0,2.0,0.0
3850,79.0,46.0,60.0,1.0,0.0
3851,62.0,0.0,90.0,3.0,0.0
3852,77.0,34.0,60.0,1.0,0.0
3853,76.0,62.0,30.0,1.0,0.0
3854,65.0,0.0,90.0,2.0,0.0
3855,62.0,34.0,90.0,3.0,0.0
3856,62.0,96.0,90.0,3.0,0.0
3857,77.0,62.0,30.0,1.0,0.0
3858,65.0,0.0,90.0,2.0,0.0
3859,58.0,46.0,540.0,4.0,0.0
3860,62.0,0.0,90.0,3.0,0.0
3861,82.0,48.0,300.0,2.0,0.0
3862,65.0,96.0,90.0,1.0,0.0
3863,65.0,96.0,90.0,1.0,0.0
3864,62.0,0.0,90.0,3.0,0.0
3865,62.0,2.0,90.0,3.0,0.0
3866,65.0,0.0,90.0,1.0,0.0
3867,84.0,46.0,60.0,2.0,0.0
3868,62.0,0.0,90.0,3.0,0.0
3869,65.0,0.0,90.0,1.0,0.0
3870,82.0,34.0,60.0,2.0,0.0
3871,62.0,0.0,90.0,3.0,0.0
3872,81.0,62.0,30.0,2.0,0.0
3873,65.0,34.0,90.0,1.0,0.0
3874,65.0,0.0,90.0,1.0,0.0
3875,62.0,96.0,90.0,3.0,0.0
3876,82.0,16.0,30.0,2.0,0.0
3877,77.0,48.0,300.0,2.0,0.0
3878,62.0,0.0,90.0,3.0,0.0
3879,53.0,46.0,540.0,4.0,0.0
3880,65.0,96.0,90.0,1.0,0.0
3881,65.0,96.0,90.0,1.0,0.0
3882,62.0,0.0,90.0,3.0,0.0
3883,62.0,0.0,90.0,3.0,0.0
3884,65.0,2.0,90.0,1.0,0.0
3885,79.0,46.0,60.0,2.0,0.0
3886,65.0,0.0,90.0,1.0,0.0
3887,62.0,0.0,90.0,3.0,0.0
3888,77.0,34.0,60.0,2.0,0.0
3889,65.0,34.0,90.0,1.0,0.0
3890,76.0,62.0,30.0,2.0,0.0
3891,62.0,0.0,90.0,3.0,0.0
3892,62.0,0.0,90.0,3.0,0.0
3893,77.0,16.0,30.0,2.0,0.0
3894,65.0,96.0,90.0,1.0,0.0
3895,65.0,0.0,90.0,1.0,0.0
3896,50.0,46.0,540.0,4.0,0.0
3897,62.0,96.0,90.0,3.0,0.0
3898,74.0,48.0,300.0,2.0,0.0
3899,65.0,96.0,90.0,1.0,0.0
3900,62.0,0.0,90.0,3.0,0.0
3901,62.0,2.0,90.0,3.0,0.0
3902,65.0,0.0,90.0,1.0,0.0
3903,62.0,0.0,90.0,3.0,0.0
3904,75.0,46.0,60.0,2.0,0.0
3905,65.0,0.0,90.0,1.0,0.0
3906,74.0,34.0,60.0,2.0,0.0
3907,65.0,0.0,90.0,1.0,0.0
3908,73.0,62.0,30.0,2.0,0.0
3909,62.0,34.0,90.0,3.0,0.0
3910,74.0,16.0,30.0,2.0,0.0
3911,62.0,50.0,90.0,3.0,0.0
3912,65.0,0.0,90.0,1.0,0.0
3913,65.0,96.0,90.0,1.0,0.0
3914,70.0,46.0,60.0,2.0,0.0
3915,62.0,0.0,90.0,3.0,0.0
3916,46.0,0.0,60.0,4.0,0.0
3917,62.0,0.0,90.0,3.0,0.0
3918,65.0,50.0,90.0,1.0,0.0
3919,65.0,96.0,90.0,1.0,0.0
3920,62.0,0.0,90.0,3.0,0.0
3921,45.0,0.0,60.0,4.0,0.0
3922,69.0,46.0,60.0,2.0,0.0
3923,62.0,0.0,90.0,3.0,0.0
3924,65.0,50.0,90.0,1.0,0.0
3925,64.0,96.0,90.0,1.0,0.0
3926,62.0,0.0,90.0,3.0,0.0
3927,68.0,0.0,60.0,2.0,0.0
3928,44.0,46.0,60.0,4.0,0.0
3929,62.0,0.0,90.0,3.0,0.0
3930,64.0,96.0,90.0,1.0,0.0
3931,81.0,48.0,300.0,1.0,0.0
3932,64.0,66.0,90.0,2.0,0.0
3933,45.0,30.0,150.0,4.0,0.0
3934,60.0,0.0,90.0,3.0,0.0
3935,60.0,96.0,90.0,3.0,0.0
3936,64.0,0.0,90.0,2.0,0.0
3937,60.0,2.0,90.0,3.0,0.0
3938,64.0,0.0,90.0,2.0,0.0
3939,64.0,0.0,90.0,2.0,0.0
3940,60.0,0.0,90.0,3.0,0.0
3941,83.0,46.0,60.0,1.0,0.0
3942,81.0,34.0,60.0,1.0,0.0
3943,64.0,0.0,90.0,2.0,0.0
3944,60.0,34.0,90.0,3.0,0.0
3945,80.0,62.0,30.0,1.0,0.0
3946,64.0,0.0,90.0,2.0,0.0
3947,60.0,96.0,90.0,3.0,0.0
3948,81.0,62.0,30.0,1.0,0.0
3949,76.0,48.0,300.0,1.0,0.0
3950,60.0,96.0,90.0,3.0,0.0
3951,64.0,0.0,90.0,2.0,0.0
3952,60.0,0.0,90.0,3.0,0.0
3953,64.0,96.0,90.0,2.0,0.0
3954,60.0,0.0,90.0,3.0,0.0
3955,64.0,2.0,90.0,2.0,0.0
3956,77.0,46.0,60.0,1.0,0.0
3957,60.0,0.0,90.0,3.0,0.0
3958,64.0,0.0,90.0,2.0,0.0
3959,76.0,34.0,60.0,1.0,0.0
3960,60.0,0.0,90.0,3.0,0.0
3961,75.0,62.0,30.0,1.0,0.0
3962,64.0,34.0,90.0,2.0,0.0
3963,60.0,0.0,90.0,3.0,0.0
3964,64.0,96.0,90.0,2.0,0.0
3965,76.0,62.0,30.0,1.0,0.0
3966,60.0,96.0,90.0,3.0,0.0
3967,64.0,0.0,90.0,2.0,0.0
3968,72.0,48.0,300.0,1.0,0.0
3969,60.0,96.0,90.0,3.0,0.0
3970,64.0,0.0,90.0,2.0,0.0
3971,60.0,0.0,90.0,3.0,0.0
3972,64.0,2.0,90.0,2.0,0.0
3973,64.0,0.0,90.0,2.0,0.0
3974,74.0,46.0,60.0,1.0,0.0
3975,60.0,34.0,90.0,3.0,0.0
3976,72.0,0.0,60.0,1.0,0.0
3977,71.0,62.0,30.0,1.0,0.0
3978,60.0,0.0,90.0,3.0,0.0
3979,64.0,34.0,90.0,2.0,0.0
3980,60.0,0.0,90.0,3.0,0.0
3981,64.0,96.0,90.0,2.0,0.0
3982,72.0,62.0,30.0,1.0,0.0
3983,69.0,48.0,300.0,1.0,0.0
3984,64.0,0.0,90.0,2.0,0.0
3985,60.0,96.0,90.0,3.0,0.0
3986,60.0,0.0,90.0,3.0,0.0
3987,64.0,96.0,90.0,2.0,0.0
3988,60.0,0.0,90.0,3.0,0.0
3989,64.0,2.0,90.0,2.0,0.0
3990,60.0,34.0,90.0,3.0,0.0
3991,71.0,46.0,60.0,1.0,0.0
3992,64.0,0.0,90.0,2.0,0.0
3993,69.0,0.0,60.0,1.0,0.0
3994,64.0,34.0,90.0,2.0,0.0
3995,68.0,62.0,30.0,1.0,0.0
3996,60.0,0.0,90.0,3.0,0.0
3997,60.0,96.0,90.0,3.0,0.0
3998,64.0,0.0,90.0,2.0,0.0
3999,69.0,62.0,30.0,1.0,0.0
4000,53.0,46.0,540.0,4.0,0.0
4001,77.0,48.0,300.0,2.0,0.0
4002,69.0,0.0,90.0,1.0,0.0
4003,60.0,96.0,90.0,3.0,0.0
4004,60.0,96.0,90.0,3.0,0.0
4005,69.0,0.0,90.0,1.0,0.0
4006,69.0,0.0,90.0,1.0,0.0
4007,60.0,2.0,90.0,3.0,0.0
4008,79.0,46.0,60.0,2.0,0.0
4009,60.0,0.0,90.0,3.0,0.0
4010,69.0,0.0,90.0,1.0,0.0
4011,77.0,34.0,60.0,2.0,0.0
4012,69.0,34.0,90.0,1.0,0.0
4013,60.0,0.0,90.0,3.0,0.0
4014,76.0,62.0,30.0,2.0,0.0
4015,60.0,96.0,90.0,3.0,0.0
4016,77.0,16.0,30.0,2.0,0.0
4017,69.0,0.0,90.0,1.0,0.0
4018,72.0,48.0,300.0,2.0,0.0
4019,48.0,46.0,540.0,4.0,0.0
4020,60.0,96.0,90.0,3.0,0.0
4021,69.0,0.0,90.0,1.0,0.0
4022,69.0,0.0,90.0,1.0,0.0
4023,60.0,96.0,90.0,3.0,0.0
4024,60.0,0.0,90.0,3.0,0.0
4025,69.0,2.0,90.0,1.0,0.0
4026,60.0,0.0,90.0,3.0,0.0
4027,74.0,46.0,60.0,2.0,0.0
4028,69.0,34.0,90.0,1.0,0.0
4029,72.0,0.0,60.0,2.0,0.0
4030,60.0,34.0,90.0,3.0,0.0
4031,71.0,62.0,30.0,2.0,0.0
4032,69.0,0.0,90.0,1.0,0.0
4033,72.0,16.0,30.0,2.0,0.0
4034,69.0,0.0,90.0,1.0,0.0
4035,60.0,96.0,90.0,3.0,0.0
4036,45.0,46.0,330.0,4.0,0.0
4037,60.0,96.0,90.0,3.0,0.0
4038,69.0,48.0,300.0,2.0,0.0
4039,60.0,0.0,90.0,3.0,0.0
4040,69.0,96.0,90.0,1.0,0.0
4041,60.0,2.0,90.0,3.0,0.0
4042,69.0,0.0,90.0,1.0,0.0
4043,69.0,0.0,90.0,1.0,0.0
4044,70.0,0.0,60.0,2.0,0.0
4045,60.0,34.0,90.0,3.0,0.0
4046,69.0,0.0,60.0,2.0,0.0
4047,67.0,16.0,30.0,2.0,0.0
4048,69.0,34.0,90.0,1.0,0.0
4049,41.0,46.0,60.0,4.0,0.0
4050,60.0,0.0,90.0,3.0,0.0
4051,69.0,62.0,30.0,2.0,0.0
4052,60.0,50.0,90.0,3.0,0.0
4053,65.0,46.0,60.0,2.0,0.0
4054,69.0,96.0,90.0,1.0,0.0
4055,53.0,0.0,60.0,4.0,0.0
4056,60.0,0.0,90.0,3.0,0.0
4057,60.0,50.0,90.0,3.0,0.0
4058,69.0,0.0,90.0,1.0,0.0
4059,52.0,0.0,60.0,4.0,0.0
4060,64.0,46.0,60.0,2.0,0.0
4061,69.0,0.0,90.0,1.0,0.0
4062,60.0,96.0,90.0,3.0,0.0
4063,60.0,50.0,90.0,3.0,0.0
4064,69.0,0.0,90.0,1.0,0.0
4065,63.0,0.0,60.0,2.0,0.0
4066,69.0,96.0,90.0,1.0,0.0
4067,60.0,0.0,90.0,3.0,0.0
4068,51.0,46.0,60.0,4.0,0.0
4069,69.0,0.0,90.0,1.0,0.0
4070,60.0,34.0,90.0,3.0,0.0
4071,64.0,0.0,150.0,2.0,0.0
4072,59.0,16.0,150.0,3.0,0.0
4073,68.0,48.0,30.0,1.0,0.0
4074,52.0,0.0,150.0,4.0,0.0
4075,40.0,0.0,150.0,4.0,0.0
4076,88.0,48.0,30.0,1.0,0.0
4077,87.0,32.0,30.0,1.0,0.0
4078,85.0,48.0,30.0,1.0,0.0
4079,64.0,0.0,540.0,3.0,0.0
4080,59.0,16.0,540.0,2.0,0.0
4081,83.0,48.0,30.0,1.0,0.0
4082,68.0,0.0,540.0,2.0,0.0
4083,81.0,48.0,30.0,1.0,0.0
4084,52.0,0.0,30.0,4.0,0.0
4085,80.0,48.0,30.0,1.0,0.0
4086,78.0,48.0,30.0,1.0,0.0
4087,76.0,34.0,240.0,1.0,0.0
4088,52.0,96.0,30.0,4.0,0.0
4089,52.0,110.0,30.0,4.0,0.0
4090,44.0,0.0,150.0,4.0,0.0
4091,88.0,48.0,30.0,1.0,0.0
4092,87.0,32.0,30.0,1.0,0.0
4093,85.0,62.0,30.0,1.0,0.0
4094,64.0,0.0,540.0,3.0,0.0
4095,83.0,48.0,60.0,1.0,0.0
4096,59.0,0.0,540.0,2.0,0.0
4097,68.0,0.0,540.0,2.0,0.0
4098,81.0,34.0,60.0,1.0,0.0
4099,56.0,14.0,30.0,4.0,0.0
4100,80.0,48.0,60.0,1.0,0.0
4101,78.0,34.0,60.0,1.0,0.0
4102,76.0,48.0,240.0,1.0,0.0
4103,56.0,96.0,30.0,4.0,0.0
4104,56.0,110.0,30.0,4.0,0.0
4105,47.0,30.0,150.0,4.0,0.0
4106,88.0,48.0,60.0,1.0,0.0
4107,87.0,18.0,60.0,1.0,0.0
4108,85.0,48.0,60.0,1.0,0.0
4109,64.0,0.0,540.0,3.0,0.0
4110,59.0,0.0,540.0,2.0,0.0
4111,68.0,0.0,540.0,2.0,0.0
4112,83.0,48.0,60.0,1.0,0.0
4113,81.0,34.0,60.0,1.0,0.0
4114,59.0,14.0,30.0,4.0,0.0
4115,80.0,48.0,60.0,1.0,0.0
4116,78.0,34.0,60.0,1.0,0.0
4117,76.0,48.0,60.0,1.0,0.0
4118,59.0,14.0,30.0,4.0,0.0
4119,88.0,34.0,60.0,1.0,0.0
4120,87.0,48.0,60.0,1.0,0.0
4121,59.0,14.0,30.0,4.0,0.0
4122,85.0,48.0,60.0,1.0,0.0
4123,52.0,30.0,150.0,4.0,0.0
4124,83.0,48.0,60.0,1.0,0.0
4125,81.0,48.0,60.0,1.0,0.0
4126,80.0,18.0,60.0,1.0,0.0
4127,78.0,48.0,60.0,1.0,0.0
4128,76.0,48.0,60.0,1.0,0.0
4129,64.0,30.0,150.0,3.0,0.0
4130,68.0,0.0,150.0,2.0,0.0
4131,59.0,0.0,150.0,2.0,0.0
4132,75.0,34.0,60.0,1.0,0.0
4133,78.0,18.0,60.0,1.0,0.0
4134,64.0,14.0,30.0,4.0,0.0
4135,76.0,48.0,60.0,1.0,0.0
4136,75.0,48.0,60.0,1.0,0.0
4137,59.0,0.0,150.0,2.0,0.0
4138,68.0,30.0,150.0,2.0,0.0
4139,64.0,0.0,150.0,3.0,0.0
4140,76.0,34.0,60.0,1.0,0.0
4141,64.0,14.0,30.0,4.0,0.0
4142,78.0,18.0,60.0,1.0,0.0
4143,76.0,34.0,60.0,1.0,0.0
4144,74.0,32.0,60.0,1.0,0.0
4145,40.0,16.0,30.0,4.0,0.0
4146,59.0,0.0,150.0,2.0,0.0
4147,68.0,0.0,150.0,2.0,0.0
4148,64.0,16.0,150.0,3.0,0.0
4149,52.0,48.0,30.0,4.0,0.0
4150,51.0,32.0,30.0,4.0,0.0
4151,49.0,48.0,30.0,4.0,0.0
4152,64.0,0.0,540.0,3.0,0.0
4153,47.0,48.0,30.0,4.0,0.0
4154,52.0,0.0,540.0,3.0,0.0
4155,80.0,16.0,540.0,1.0,0.0
4156,45.0,48.0,30.0,4.0,0.0
4157,44.0,48.0,30.0,4.0,0.0
4158,42.0,96.0,30.0,4.0,0.0
4159,40.0,34.0,240.0,4.0,0.0
4160,64.0,48.0,30.0,2.0,0.0
4161,66.0,48.0,30.0,2.0,0.0
4162,68.0,48.0,30.0,2.0,0.0
4163,69.0,14.0,30.0,2.0,0.0
4164,71.0,0.0,30.0,2.0,0.0
4165,52.0,48.0,30.0,4.0,0.0
4166,73.0,0.0,30.0,2.0,0.0
4167,51.0,32.0,30.0,4.0,0.0
4168,75.0,0.0,30.0,2.0,0.0
4169,49.0,48.0,30.0,4.0,0.0
4170,76.0,34.0,240.0,2.0,0.0
4171,64.0,0.0,540.0,3.0,0.0
4172,68.0,16.0,540.0,3.0,0.0
4173,83.0,32.0,420.0,1.0,0.0
4174,47.0,48.0,30.0,4.0,0.0
4175,45.0,48.0,30.0,4.0,0.0
4176,44.0,48.0,30.0,4.0,0.0
4177,42.0,62.0,30.0,4.0,0.0
4178,40.0,2.0,240.0,4.0,0.0
4179,64.0,48.0,30.0,2.0,0.0
4180,66.0,48.0,30.0,2.0,0.0
4181,68.0,48.0,30.0,2.0,0.0
4182,69.0,14.0,30.0,2.0,0.0
4183,71.0,0.0,30.0,2.0,0.0
4184,52.0,48.0,30.0,4.0,0.0
4185,73.0,32.0,30.0,2.0,0.0
4186,51.0,0.0,30.0,4.0,0.0
4187,49.0,48.0,30.0,4.0,0.0
4188,75.0,0.0,30.0,2.0,0.0
4189,71.0,16.0,540.0,3.0,0.0
4190,64.0,0.0,540.0,3.0,0.0
4191,76.0,34.0,240.0,2.0,0.0
4192,47.0,48.0,30.0,4.0,0.0
4193,86.0,32.0,420.0,1.0,0.0
4194,45.0,48.0,30.0,4.0,0.0
4195,44.0,48.0,30.0,4.0,0.0
4196,42.0,48.0,30.0,4.0,0.0
4197,40.0,14.0,30.0,4.0,0.0
4198,52.0,0.0,30.0,4.0,0.0
4199,64.0,48.0,30.0,2.0,0.0
4200,51.0,0.0,30.0,4.0,0.0
4201,66.0,48.0,30.0,2.0,0.0
4202,49.0,0.0,30.0,4.0,0.0
4203,68.0,48.0,30.0,2.0,0.0
4204,69.0,2.0,60.0,2.0,0.0
4205,47.0,14.0,30.0,4.0,0.0
4206,71.0,34.0,60.0,2.0,0.0
4207,45.0,14.0,30.0,4.0,0.0
4208,44.0,14.0,30.0,4.0,0.0
4209,73.0,18.0,60.0,2.0,0.0
4210,42.0,14.0,30.0,4.0,0.0
4211,75.0,34.0,60.0,2.0,0.0
4212,76.0,16.0,30.0,2.0,0.0
4213,92.0,32.0,60.0,1.0,0.0
4214,40.0,0.0,30.0,4.0,0.0
4215,64.0,0.0,150.0,3.0,0.0
4216,71.0,16.0,150.0,3.0,0.0
4217,52.0,0.0,30.0,4.0,0.0
4218,64.0,48.0,30.0,2.0,0.0
4219,51.0,32.0,30.0,4.0,0.0
4220,66.0,0.0,30.0,2.0,0.0
4221,49.0,48.0,30.0,4.0,0.0
4222,68.0,0.0,30.0,2.0,0.0
4223,47.0,16.0,30.0,4.0,0.0
4224,69.0,0.0,30.0,2.0,0.0
4225,64.0,0.0,150.0,3.0,0.0
4226,95.0,32.0,60.0,1.0,0.0
4227,71.0,16.0,150.0,3.0,0.0
4228,45.0,48.0,30.0,4.0,0.0
4229,71.0,0.0,30.0,2.0,0.0
4230,73.0,32.0,30.0,2.0,0.0
4231,44.0,0.0,30.0,4.0,0.0
4232,42.0,0.0,30.0,4.0,0.0
4233,75.0,110.0,30.0,2.0,0.0
4234,98.0,0.0,540.0,1.0,0.0
4235,76.0,34.0,480.0,2.0,0.0
4236,40.0,34.0,90.0,4.0,0.0
4237,64.0,32.0,540.0,3.0,0.0
4238,71.0,0.0,540.0,3.0,0.0
4239,42.0,48.0,30.0,4.0,0.0
4240,44.0,48.0,30.0,4.0,0.0
4241,45.0,48.0,30.0,4.0,0.0
4242,47.0,48.0,30.0,4.0,0.0
4243,49.0,48.0,30.0,4.0,0.0
4244,51.0,110.0,30.0,4.0,0.0
4245,52.0,34.0,300.0,4.0,0.0
4246,75.0,16.0,30.0,2.0,0.0
4247,73.0,48.0,30.0,2.0,0.0
4248,71.0,48.0,30.0,2.0,0.0
4249,52.0,32.0,540.0,3.0,0.0
4250,80.0,0.0,540.0,1.0,0.0
4251,64.0,0.0,540.0,3.0,0.0
4252,69.0,14.0,30.0,2.0,0.0
4253,52.0,48.0,30.0,4.0,0.0
4254,68.0,0.0,30.0,2.0,0.0
4255,66.0,64.0,30.0,2.0,0.0
4256,54.0,0.0,30.0,4.0,0.0
4257,56.0,48.0,60.0,4.0,0.0
4258,64.0,34.0,300.0,2.0,0.0
4259,57.0,48.0,60.0,4.0,0.0
4260,59.0,46.0,60.0,4.0,0.0
4261,61.0,96.0,60.0,4.0,0.0
4262,62.0,0.0,300.0,4.0,0.0
4263,64.0,16.0,30.0,2.0,0.0
4264,66.0,64.0,30.0,2.0,0.0
4265,68.0,46.0,60.0,2.0,0.0
4266,64.0,2.0,90.0,3.0,0.0
4267,52.0,0.0,90.0,3.0,0.0
4268,83.0,46.0,540.0,1.0,0.0
4269,69.0,32.0,60.0,2.0,0.0
4270,52.0,34.0,90.0,3.0,0.0
4271,71.0,46.0,60.0,2.0,0.0
4272,64.0,0.0,90.0,3.0,0.0
4273,61.0,16.0,30.0,4.0,0.0
4274,73.0,0.0,60.0,2.0,0.0
4275,64.0,0.0,90.0,3.0,0.0
4276,74.0,0.0,30.0,2.0,0.0
4277,52.0,34.0,90.0,3.0,0.0
4278,59.0,62.0,30.0,4.0,0.0
4279,73.0,62.0,30.0,2.0,0.0
4280,57.0,0.0,30.0,4.0,0.0
4281,52.0,34.0,90.0,3.0,0.0
4282,64.0,0.0,90.0,3.0,0.0
4283,52.0,34.0,90.0,3.0,0.0
4284,56.0,62.0,30.0,4.0,0.0
4285,71.0,0.0,30.0,2.0,0.0
4286,64.0,0.0,90.0,3.0,0.0
4287,54.0,0.0,30.0,4.0,0.0
4288,64.0,34.0,90.0,3.0,0.0
4289,69.0,16.0,30.0,2.0,0.0
4290,52.0,0.0,90.0,3.0,0.0
4291,52.0,62.0,30.0,4.0,0.0
4292,64.0,0.0,90.0,3.0,0.0
4293,68.0,0.0,30.0,2.0,0.0
4294,63.0,34.0,60.0,1.0,0.0
4295,64.0,0.0,90.0,3.0,0.0
4296,52.0,34.0,90.0,3.0,0.0
4297,54.0,62.0,30.0,4.0,0.0
4298,69.0,0.0,30.0,2.0,0.0
4299,66.0,0.0,60.0,1.0,0.0
4300,52.0,62.0,30.0,4.0,0.0
4301,64.0,2.0,90.0,3.0,0.0
4302,68.0,0.0,30.0,2.0,0.0
4303,69.0,32.0,60.0,1.0,0.0
4304,71.0,46.0,60.0,1.0,0.0
4305,66.0,16.0,30.0,2.0,0.0
4306,50.0,0.0,30.0,4.0,0.0
4307,52.0,2.0,90.0,3.0,0.0
4308,64.0,0.0,90.0,3.0,0.0
4309,73.0,32.0,60.0,1.0,0.0
4310,74.0,46.0,60.0,1.0,0.0
4311,64.0,16.0,30.0,2.0,0.0
4312,52.0,2.0,90.0,3.0,0.0
4313,49.0,0.0,30.0,4.0,0.0
4314,76.0,32.0,60.0,1.0,0.0
4315,62.0,16.0,30.0,2.0,0.0
4316,47.0,0.0,30.0,4.0,0.0
4317,52.0,0.0,90.0,3.0,0.0
4318,64.0,0.0,90.0,3.0,0.0
4319,78.0,46.0,60.0,1.0,0.0
4320,80.0,290.0,60.0,1.0,0.0
4321,61.0,0.0,300.0,2.0,0.0
4322,69.0,0.0,300.0,2.0,0.0
4323,57.0,0.0,300.0,3.0,0.0
4324,45.0,0.0,300.0,4.0,0.0
4325,81.0,48.0,300.0,1.0,0.0
4326,71.0,46.0,60.0,2.0,0.0
4327,47.0,0.0,60.0,4.0,0.0
4328,59.0,0.0,60.0,3.0,0.0
4329,83.0,0.0,60.0,1.0,0.0
4330,57.0,0.0,60.0,3.0,0.0
4331,45.0,34.0,60.0,4.0,0.0
4332,69.0,0.0,60.0,2.0,0.0
4333,81.0,0.0,60.0,1.0,0.0
4334,80.0,0.0,30.0,1.0,0.0
4335,56.0,0.0,30.0,3.0,0.0
4336,68.0,96.0,30.0,2.0,0.0
4337,44.0,0.0,30.0,4.0,0.0
4338,45.0,0.0,30.0,4.0,0.0
4339,81.0,0.0,30.0,1.0,0.0
4340,57.0,0.0,30.0,3.0,0.0
4341,69.0,224.0,30.0,2.0,0.0
4342,40.0,0.0,150.0,4.0,0.0
4343,76.0,0.0,150.0,1.0,0.0
4344,52.0,0.0,150.0,3.0,0.0
4345,64.0,704.0,150.0,2.0,0.0
4346,69.0,0.0,300.0,2.0,0.0
4347,81.0,0.0,300.0,1.0,0.0
4348,57.0,0.0,300.0,3.0,0.0
4349,45.0,48.0,300.0,4.0,0.0
4350,71.0,0.0,60.0,2.0,0.0
4351,59.0,0.0,60.0,3.0,0.0
4352,83.0,0.0,60.0,1.0,0.0
4353,47.0,46.0,60.0,4.0,0.0
4354,81.0,0.0,60.0,1.0,0.0
4355,57.0,34.0,60.0,3.0,0.0
4356,69.0,0.0,60.0,2.0,0.0
4357,45.0,0.0,60.0,4.0,0.0
4358,56.0,0.0,30.0,3.0,0.0
4359,44.0,0.0,30.0,4.0,0.0
4360,68.0,0.0,30.0,2.0,0.0
4361,80.0,96.0,30.0,1.0,0.0
4362,81.0,0.0,30.0,1.0,0.0
4363,45.0,0.0,30.0,4.0,0.0
4364,57.0,224.0,30.0,3.0,0.0
4365,69.0,0.0,30.0,2.0,0.0
4366,54.0,0.0,150.0,3.0,0.0
4367,42.0,0.0,150.0,4.0,0.0
4368,66.0,0.0,150.0,2.0,0.0
4369,78.0,704.0,150.0,1.0,0.0
4370,66.0,0.0,570.0,3.0,0.0
4371,74.0,144.0,960.0,2.0,0.0
4372,54.0,384.0,570.0,4.0,0.0
4373,81.0,48.0,300.0,1.0,0.0
4374,83.0,46.0,60.0,1.0,0.0
4375,81.0,34.0,60.0,1.0,0.0
4376,80.0,96.0,30.0,1.0,0.0
4377,81.0,64.0,30.0,1.0,0.0
4378,56.0,16.0,540.0,4.0,0.0
4379,64.0,0.0,780.0,3.0,0.0
4380,83.0,0.0,390.0,1.0,0.0
4381,71.0,224.0,150.0,2.0,0.0
4382,74.0,0.0,150.0,1.0,0.0
4383,57.0,192.0,180.0,4.0,0.0
4384,73.0,144.0,390.0,1.0,0.0
4385,69.0,0.0,390.0,2.0,0.0
4386,66.0,0.0,180.0,3.0,0.0
4387,54.0,0.0,180.0,4.0,0.0
4388,59.0,30.0,150.0,3.0,0.0
4389,74.0,0.0,150.0,2.0,0.0
4390,50.0,0.0,150.0,4.0,0.0
4391,78.0,16.0,150.0,1.0,0.0
4392,71.0,98.0,60.0,2.0,0.0
4393,74.0,0.0,60.0,1.0,0.0
4394,73.0,144.0,390.0,1.0,0.0
4395,52.0,16.0,540.0,4.0,0.0
4396,69.0,0.0,390.0,2.0,0.0
4397,64.0,96.0,90.0,3.0,0.0
4398,63.0,96.0,90.0,3.0,0.0
4399,64.0,96.0,90.0,3.0,0.0
4400,63.0,0.0,90.0,3.0,0.0
4401,71.0,0.0,150.0,1.0,0.0
4402,68.0,0.0,150.0,2.0,0.0
4403,64.0,320.0,150.0,3.0,0.0
4404,74.0,48.0,300.0,2.0,0.0
4405,76.0,46.0,60.0,2.0,0.0
4406,74.0,34.0,60.0,2.0,0.0
4407,73.0,96.0,30.0,2.0,0.0
4408,74.0,352.0,30.0,2.0,0.0
4409,73.0,48.0,300.0,3.0,0.0
4410,76.0,0.0,300.0,2.0,0.0
4411,81.0,144.0,780.0,1.0,0.0
4412,77.0,46.0,60.0,2.0,0.0
4413,74.0,0.0,60.0,3.0,0.0
4414,73.0,0.0,60.0,3.0,0.0
4415,76.0,34.0,60.0,2.0,0.0
4416,74.0,96.0,30.0,2.0,0.0
4417,71.0,0.0,30.0,3.0,0.0
4418,76.0,0.0,30.0,2.0,0.0
4419,73.0,256.0,30.0,3.0,0.0
4420,77.0,48.0,330.0,2.0,0.0
4421,74.0,0.0,180.0,3.0,0.0
4422,86.0,0.0,330.0,1.0,0.0
4423,70.0,144.0,180.0,3.0,0.0
4424,82.0,16.0,150.0,2.0,0.0
4425,67.0,30.0,150.0,3.0,0.0
4426,82.0,50.0,60.0,1.0,0.0
4427,79.0,0.0,60.0,2.0,0.0
4428,77.0,160.0,390.0,2.0,0.0
4429,72.0,192.0,60.0,3.0,0.0
4430,81.0,0.0,390.0,1.0,0.0
4431,60.0,144.0,60.0,3.0,0.0
4432,76.0,224.0,150.0,2.0,0.0
4433,79.0,0.0,150.0,1.0,0.0
4434,53.0,192.0,180.0,4.0,0.0
4435,69.0,0.0,390.0,2.0,0.0
4436,65.0,144.0,390.0,3.0,0.0
4437,50.0,0.0,180.0,4.0,0.0
4438,70.0,0.0,150.0,3.0,0.0
4439,74.0,16.0,150.0,2.0,0.0
4440,46.0,30.0,150.0,4.0,0.0
4441,67.0,0.0,60.0,3.0,0.0
4442,70.0,50.0,60.0,2.0,0.0
4443,65.0,0.0,390.0,3.0,0.0
4444,69.0,160.0,390.0,2.0,0.0
4445,48.0,192.0,60.0,4.0,0.0
4446,60.0,144.0,60.0,4.0,0.0
4447,64.0,368.0,150.0,3.0,0.0
4448,67.0,0.0,150.0,2.0,0.0
4449,74.0,48.0,330.0,2.0,0.0
4450,77.0,144.0,390.0,1.0,0.0
4451,70.0,0.0,180.0,3.0,0.0
4452,82.0,16.0,150.0,1.0,0.0
4453,67.0,30.0,150.0,3.0,0.0
4454,74.0,0.0,150.0,2.0,0.0
4455,79.0,50.0,60.0,1.0,0.0
4456,77.0,0.0,390.0,1.0,0.0
4457,74.0,160.0,390.0,2.0,0.0
4458,69.0,192.0,60.0,3.0,0.0
4459,57.0,144.0,60.0,3.0,0.0
4460,76.0,0.0,150.0,1.0,0.0
4461,73.0,368.0,150.0,2.0,0.0
4462,62.0,48.0,330.0,3.0,0.0
4463,65.0,0.0,390.0,2.0,0.0
4464,58.0,144.0,180.0,4.0,0.0
4465,70.0,16.0,150.0,2.0,0.0
4466,62.0,30.0,150.0,3.0,0.0
4467,55.0,0.0,150.0,4.0,0.0
4468,67.0,354.0,60.0,2.0,0.0
4469,57.0,0.0,570.0,4.0,0.0
4470,65.0,0.0,570.0,2.0,0.0
4471,60.0,96.0,570.0,3.0,0.0
4472,77.0,192.0,150.0,1.0,0.0
4473,77.0,32.0,150.0,1.0,0.0
4474,57.0,16.0,540.0,3.0,0.0
4475,53.0,32.0,150.0,4.0,0.0
4476,72.0,0.0,540.0,2.0,0.0
4477,77.0,64.0,90.0,1.0,0.0
4478,75.0,96.0,90.0,1.0,0.0
4479,74.0,64.0,90.0,1.0,0.0
4480,41.0,32.0,150.0,4.0,0.0
4481,75.0,96.0,90.0,1.0,0.0
4482,77.0,48.0,90.0,1.0,0.0
4483,41.0,30.0,150.0,4.0,0.0
4484,75.0,162.0,90.0,1.0,0.0
4485,53.0,48.0,300.0,3.0,0.0
4486,74.0,128.0,150.0,1.0,0.0
4487,46.0,16.0,1110.0,4.0,0.0
4488,70.0,0.0,150.0,2.0,0.0
4489,55.0,46.0,60.0,3.0,0.0
4490,53.0,34.0,60.0,3.0,0.0
4491,52.0,96.0,30.0,3.0,0.0
4492,53.0,416.0,30.0,3.0,0.0
4493,53.0,0.0,870.0,3.0,0.0
4494,62.0,30.0,150.0,2.0,0.0
4495,74.0,34.0,90.0,1.0,0.0
4496,75.0,32.0,30.0,1.0,0.0
4497,62.0,0.0,150.0,2.0,0.0
4498,74.0,32.0,30.0,1.0,0.0
4499,75.0,32.0,30.0,1.0,0.0
4500,74.0,16.0,30.0,1.0,0.0
4501,73.0,30.0,30.0,1.0,0.0
4502,74.0,290.0,30.0,1.0,0.0
4503,48.0,16.0,1110.0,4.0,0.0
4504,63.0,192.0,750.0,2.0,0.0
4505,77.0,48.0,300.0,1.0,0.0
4506,55.0,46.0,60.0,3.0,0.0
4507,75.0,0.0,90.0,1.0,0.0
4508,53.0,34.0,60.0,3.0,0.0
4509,52.0,0.0,30.0,3.0,0.0
4510,72.0,96.0,30.0,1.0,0.0
4511,70.0,224.0,30.0,1.0,0.0
4512,53.0,0.0,30.0,3.0,0.0
4513,53.0,0.0,870.0,3.0,0.0
4514,69.0,0.0,150.0,1.0,0.0
4515,63.0,30.0,150.0,2.0,0.0
4516,75.0,34.0,90.0,1.0,0.0
4517,63.0,30.0,150.0,2.0,0.0
4518,77.0,32.0,30.0,1.0,0.0
4519,75.0,32.0,30.0,1.0,0.0
4520,77.0,32.0,30.0,1.0,0.0
4521,75.0,16.0,30.0,1.0,0.0
4522,74.0,0.0,30.0,1.0,0.0
4523,75.0,290.0,30.0,1.0,0.0
4524,79.0,48.0,300.0,1.0,0.0
4525,65.0,192.0,750.0,2.0,0.0
4526,50.0,16.0,1110.0,4.0,0.0
4527,77.0,34.0,90.0,1.0,0.0
4528,55.0,46.0,60.0,3.0,0.0
4529,53.0,0.0,60.0,3.0,0.0
4530,52.0,0.0,30.0,3.0,0.0
4531,74.0,96.0,30.0,1.0,0.0
4532,53.0,0.0,30.0,3.0,0.0
4533,72.0,224.0,30.0,1.0,0.0
4534,70.0,0.0,150.0,1.0,0.0
4535,53.0,0.0,540.0,3.0,0.0
4536,65.0,30.0,150.0,2.0,0.0
4537,82.0,34.0,90.0,1.0,0.0
4538,65.0,0.0,150.0,2.0,0.0
4539,84.0,32.0,30.0,1.0,0.0
4540,82.0,32.0,30.0,1.0,0.0
4541,84.0,32.0,30.0,1.0,0.0
4542,82.0,16.0,30.0,1.0,0.0
4543,81.0,30.0,30.0,1.0,0.0
4544,82.0,290.0,30.0,1.0,0.0
4545,45.0,32.0,780.0,4.0,0.0
4546,72.0,0.0,330.0,2.0,0.0
4547,53.0,48.0,300.0,3.0,0.0
4548,86.0,0.0,300.0,1.0,0.0
4549,84.0,0.0,90.0,1.0,0.0
4550,55.0,46.0,60.0,3.0,0.0
4551,53.0,34.0,60.0,3.0,0.0
4552,72.0,0.0,30.0,2.0,0.0
4553,52.0,0.0,30.0,3.0,0.0
4554,84.0,96.0,30.0,1.0,0.0
4555,53.0,160.0,30.0,3.0,0.0
4556,70.0,0.0,30.0,2.0,0.0
4557,82.0,0.0,30.0,1.0,0.0
4558,53.0,16.0,540.0,3.0,0.0
4559,70.0,0.0,90.0,2.0,0.0
4560,82.0,94.0,90.0,1.0,0.0
4561,81.0,0.0,90.0,1.0,0.0
4562,69.0,2.0,90.0,2.0,0.0
4563,81.0,96.0,30.0,1.0,0.0
4564,48.0,32.0,180.0,4.0,0.0
4565,69.0,0.0,30.0,2.0,0.0
4566,67.0,0.0,30.0,2.0,0.0
4567,79.0,64.0,30.0,1.0,0.0
4568,65.0,96.0,30.0,2.0,0.0
4569,41.0,224.0,150.0,4.0,0.0
4570,77.0,0.0,30.0,1.0,0.0
4571,75.0,0.0,30.0,1.0,0.0
4572,63.0,16.0,30.0,2.0,0.0
4573,73.0,0.0,180.0,1.0,0.0
4574,46.0,288.0,570.0,4.0,0.0
4575,61.0,96.0,180.0,2.0,0.0
4576,53.0,48.0,300.0,3.0,0.0
4577,62.0,0.0,150.0,2.0,0.0
4578,74.0,30.0,150.0,1.0,0.0
4579,55.0,16.0,60.0,3.0,0.0
4580,53.0,34.0,60.0,3.0,0.0
4581,74.0,0.0,60.0,1.0,0.0
4582,62.0,80.0,60.0,2.0,0.0
4583,52.0,16.0,30.0,3.0,0.0
4584,53.0,64.0,30.0,3.0,0.0
4585,45.0,0.0,540.0,4.0,0.0
4586,62.0,0.0,300.0,2.0,0.0
4587,74.0,48.0,300.0,1.0,0.0
4588,53.0,336.0,540.0,3.0,0.0
4589,64.0,0.0,60.0,2.0,0.0
4590,76.0,46.0,60.0,1.0,0.0
4591,62.0,34.0,60.0,2.0,0.0
4592,74.0,0.0,60.0,1.0,0.0
4593,73.0,0.0,30.0,1.0,0.0
4594,61.0,96.0,30.0,2.0,0.0
4595,74.0,16.0,30.0,1.0,0.0
4596,62.0,0.0,30.0,2.0,0.0
4597,71.0,0.0,330.0,2.0,0.0
4598,44.0,0.0,330.0,4.0,0.0
4599,83.0,46.0,330.0,1.0,0.0
4600,52.0,48.0,300.0,3.0,0.0
4601,65.0,0.0,60.0,3.0,0.0
4602,64.0,34.0,60.0,3.0,0.0
4603,56.0,0.0,60.0,4.0,0.0
4604,71.0,0.0,60.0,2.0,0.0
4605,63.0,16.0,30.0,3.0,0.0
4606,74.0,80.0,60.0,1.0,0.0
4607,64.0,112.0,30.0,3.0,0.0
4608,72.0,0.0,60.0,1.0,0.0
4609,64.0,0.0,60.0,2.0,0.0
4610,57.0,192.0,60.0,4.0,0.0
4611,71.0,0.0,60.0,1.0,0.0
4612,64.0,176.0,60.0,2.0,0.0
4613,55.0,0.0,60.0,4.0,0.0
4614,59.0,0.0,60.0,3.0,0.0
4615,69.0,0.0,60.0,1.0,0.0
4616,60.0,16.0,30.0,3.0,0.0
4617,53.0,80.0,60.0,4.0,0.0
4618,63.0,0.0,60.0,2.0,0.0
4619,57.0,96.0,30.0,3.0,0.0
4620,56.0,0.0,150.0,3.0,0.0
4621,76.0,48.0,30.0,1.0,0.0
4622,59.0,16.0,150.0,2.0,0.0
4623,52.0,0.0,150.0,4.0,0.0
4624,64.0,48.0,30.0,1.0,0.0
4625,66.0,32.0,30.0,1.0,0.0
4626,68.0,48.0,30.0,1.0,0.0
4627,69.0,48.0,30.0,1.0,0.0
4628,71.0,48.0,30.0,1.0,0.0
4629,68.0,0.0,30.0,3.0,0.0
4630,73.0,48.0,30.0,1.0,0.0
4631,71.0,0.0,30.0,2.0,0.0
4632,75.0,48.0,30.0,1.0,0.0
4633,71.0,48.0,30.0,2.0,0.0
4634,76.0,0.0,30.0,1.0,0.0
4635,68.0,0.0,30.0,3.0,0.0
4636,75.0,48.0,30.0,1.0,0.0
4637,69.0,0.0,30.0,3.0,0.0
4638,76.0,48.0,30.0,1.0,0.0
4639,72.0,0.0,30.0,2.0,0.0
4640,75.0,96.0,30.0,1.0,0.0
4641,76.0,16.0,150.0,1.0,0.0
4642,71.0,0.0,150.0,2.0,0.0
4643,68.0,0.0,150.0,3.0,0.0
4644,52.0,48.0,30.0,4.0,0.0
4645,54.0,32.0,30.0,4.0,0.0
4646,56.0,48.0,30.0,4.0,0.0
4647,57.0,48.0,30.0,4.0,0.0
4648,59.0,48.0,30.0,4.0,0.0
4649,61.0,0.0,30.0,4.0,0.0
4650,64.0,0.0,30.0,3.0,0.0
4651,71.0,48.0,30.0,2.0,0.0
4652,80.0,0.0,30.0,1.0,0.0
4653,63.0,48.0,30.0,4.0,0.0
4654,71.0,48.0,30.0,2.0,0.0
4655,64.0,0.0,30.0,3.0,0.0
4656,80.0,0.0,30.0,1.0,0.0
4657,63.0,48.0,30.0,4.0,0.0
4658,72.0,0.0,30.0,2.0,0.0
4659,64.0,48.0,30.0,3.0,0.0
4660,81.0,0.0,30.0,1.0,0.0
4661,63.0,62.0,30.0,4.0,0.0
4662,80.0,48.0,60.0,1.0,0.0
4663,71.0,0.0,150.0,2.0,0.0
4664,64.0,30.0,150.0,3.0,0.0
4665,64.0,48.0,60.0,1.0,0.0
4666,66.0,18.0,60.0,1.0,0.0
4667,68.0,48.0,60.0,1.0,0.0
4668,69.0,48.0,60.0,1.0,0.0
4669,71.0,34.0,60.0,1.0,0.0
4670,73.0,48.0,60.0,1.0,0.0
4671,56.0,14.0,30.0,3.0,0.0
4672,59.0,0.0,30.0,2.0,0.0
4673,75.0,34.0,60.0,1.0,0.0
4674,76.0,48.0,60.0,1.0,0.0
4675,56.0,14.0,30.0,3.0,0.0
4676,59.0,0.0,30.0,2.0,0.0
4677,75.0,34.0,60.0,1.0,0.0
4678,76.0,48.0,60.0,1.0,0.0
4679,57.0,0.0,30.0,3.0,0.0
4680,60.0,14.0,30.0,2.0,0.0
4681,75.0,96.0,60.0,1.0,0.0
4682,59.0,30.0,150.0,2.0,0.0
4683,56.0,0.0,150.0,3.0,0.0
4684,76.0,0.0,150.0,1.0,0.0
4685,52.0,48.0,60.0,4.0,0.0
4686,54.0,18.0,60.0,4.0,0.0
4687,56.0,48.0,60.0,4.0,0.0
4688,57.0,48.0,60.0,4.0,0.0
4689,59.0,34.0,60.0,4.0,0.0
4690,61.0,48.0,60.0,4.0,0.0
4691,64.0,0.0,30.0,3.0,0.0
4692,71.0,0.0,30.0,2.0,0.0
4693,80.0,14.0,30.0,1.0,0.0
4694,63.0,34.0,60.0,4.0,0.0
4695,64.0,0.0,30.0,3.0,0.0
4696,71.0,0.0,30.0,2.0,0.0
4697,80.0,62.0,30.0,1.0,0.0
4698,63.0,34.0,60.0,4.0,0.0
4699,72.0,62.0,30.0,2.0,0.0
4700,81.0,0.0,30.0,1.0,0.0
4701,64.0,0.0,30.0,3.0,0.0
4702,63.0,48.0,60.0,4.0,0.0
4703,71.0,0.0,150.0,2.0,0.0
4704,80.0,48.0,60.0,1.0,0.0
4705,64.0,30.0,150.0,3.0,0.0
4706,64.0,48.0,60.0,1.0,0.0
4707,66.0,18.0,60.0,1.0,0.0
4708,68.0,48.0,60.0,1.0,0.0
4709,69.0,48.0,60.0,1.0,0.0
4710,71.0,34.0,60.0,1.0,0.0
4711,64.0,0.0,30.0,4.0,0.0
4712,73.0,48.0,60.0,1.0,0.0
4713,80.0,0.0,30.0,2.0,0.0
4714,71.0,14.0,30.0,3.0,0.0
4715,75.0,34.0,60.0,1.0,0.0
4716,64.0,0.0,30.0,4.0,0.0
4717,71.0,14.0,30.0,3.0,0.0
4718,76.0,48.0,60.0,1.0,0.0
4719,80.0,0.0,30.0,2.0,0.0
4720,75.0,34.0,60.0,1.0,0.0
4721,81.0,0.0,30.0,2.0,0.0
4722,76.0,48.0,60.0,1.0,0.0
4723,57.0,0.0,30.0,4.0,0.0
4724,72.0,14.0,30.0,3.0,0.0
4725,75.0,48.0,60.0,1.0,0.0
4726,76.0,0.0,60.0,1.0,0.0
4727,80.0,0.0,60.0,2.0,0.0
4728,64.0,48.0,60.0,4.0,0.0
4729,71.0,0.0,60.0,3.0,0.0
4730,76.0,0.0,60.0,1.0,0.0
4731,64.0,0.0,60.0,2.0,0.0
4732,40.0,0.0,60.0,4.0,0.0
4733,52.0,48.0,60.0,3.0,0.0
4734,78.0,0.0,60.0,1.0,0.0
4735,54.0,0.0,60.0,3.0,0.0
4736,66.0,48.0,60.0,2.0,0.0
4737,42.0,0.0,60.0,4.0,0.0
4738,56.0,0.0,60.0,3.0,0.0
4739,80.0,48.0,60.0,1.0,0.0
4740,44.0,0.0,60.0,4.0,0.0
4741,68.0,0.0,60.0,2.0,0.0
4742,57.0,0.0,60.0,3.0,0.0
4743,45.0,48.0,60.0,4.0,0.0
4744,69.0,0.0,60.0,2.0,0.0
4745,81.0,0.0,60.0,1.0,0.0
4746,71.0,0.0,60.0,2.0,0.0
4747,47.0,0.0,60.0,4.0,0.0
4748,59.0,0.0,60.0,3.0,0.0
4749,83.0,48.0,60.0,1.0,0.0
4750,85.0,0.0,60.0,1.0,0.0
4751,61.0,0.0,60.0,3.0,0.0
4752,73.0,48.0,60.0,2.0,0.0
4753,49.0,0.0,60.0,4.0,0.0
4754,63.0,0.0,60.0,3.0,0.0
4755,87.0,0.0,60.0,1.0,0.0
4756,51.0,0.0,60.0,4.0,0.0
4757,75.0,48.0,60.0,2.0,0.0
4758,52.0,0.0,60.0,4.0,0.0
4759,88.0,48.0,60.0,1.0,0.0
4760,64.0,0.0,60.0,3.0,0.0
4761,76.0,0.0,60.0,2.0,0.0
4762,63.0,0.0,60.0,3.0,0.0
4763,75.0,0.0,60.0,2.0,0.0
4764,51.0,0.0,60.0,4.0,0.0
4765,87.0,48.0,60.0,1.0,0.0
4766,52.0,0.0,60.0,4.0,0.0
4767,64.0,0.0,60.0,3.0,0.0
4768,88.0,0.0,60.0,1.0,0.0
4769,76.0,48.0,60.0,2.0,0.0
4770,51.0,0.0,60.0,4.0,0.0
4771,63.0,0.0,60.0,3.0,0.0
4772,75.0,96.0,60.0,2.0,0.0
4773,87.0,0.0,60.0,1.0,0.0
4774,64.0,0.0,150.0,3.0,0.0
4775,52.0,0.0,150.0,4.0,0.0
4776,76.0,96.0,150.0,2.0,0.0
4777,88.0,66.0,90.0,1.0,0.0
4778,88.0,192.0,150.0,1.0,0.0
4779,88.0,128.0,150.0,1.0,0.0
4780,88.0,94.0,90.0,1.0,0.0
4781,89.0,162.0,90.0,1.0,0.0
4782,89.0,192.0,150.0,1.0,0.0
4783,89.0,128.0,150.0,1.0,0.0
4784,89.0,94.0,90.0,1.0,0.0
4785,90.0,98.0,90.0,1.0,0.0
4786,90.0,94.0,90.0,1.0,0.0
4787,86.0,98.0,90.0,1.0,0.0
4788,86.0,94.0,90.0,1.0,0.0
4789,83.0,98.0,90.0,1.0,0.0
4790,83.0,94.0,90.0,1.0,0.0
4791,80.0,98.0,90.0,1.0,0.0
4792,80.0,94.0,90.0,1.0,0.0
4793,76.0,98.0,90.0,1.0,0.0
4794,76.0,32.0,90.0,1.0,0.0
4795,80.0,98.0,90.0,1.0,0.0
4796,76.0,62.0,30.0,2.0,0.0
4797,74.0,0.0,30.0,3.0,0.0
4798,80.0,0.0,90.0,1.0,0.0
4799,76.0,0.0,180.0,2.0,0.0
4800,74.0,94.0,90.0,3.0,0.0
4801,81.0,0.0,90.0,1.0,0.0
4802,73.0,98.0,90.0,3.0,0.0
4803,76.0,94.0,90.0,2.0,0.0
4804,73.0,0.0,90.0,3.0,0.0
4805,81.0,0.0,90.0,1.0,0.0
4806,80.0,0.0,90.0,2.0,0.0
4807,71.0,0.0,90.0,3.0,0.0
4808,83.0,98.0,90.0,1.0,0.0
4809,71.0,0.0,90.0,3.0,0.0
4810,83.0,0.0,90.0,1.0,0.0
4811,80.0,94.0,90.0,2.0,0.0
4812,85.0,98.0,90.0,1.0,0.0
4813,81.0,0.0,90.0,2.0,0.0
4814,69.0,0.0,90.0,3.0,0.0
4815,85.0,0.0,90.0,1.0,0.0
4816,69.0,192.0,90.0,3.0,0.0
4817,81.0,0.0,90.0,2.0,0.0
4818,88.0,0.0,180.0,1.0,0.0
4819,68.0,30.0,270.0,3.0,0.0
4820,85.0,64.0,180.0,2.0,0.0
4821,83.0,0.0,90.0,2.0,0.0
4822,86.0,130.0,90.0,1.0,0.0
4823,73.0,160.0,30.0,3.0,0.0
4824,73.0,94.0,90.0,3.0,0.0
4825,74.0,98.0,90.0,3.0,0.0
4826,74.0,94.0,90.0,3.0,0.0
4827,71.0,98.0,90.0,3.0,0.0
4828,71.0,94.0,90.0,3.0,0.0
4829,68.0,98.0,90.0,3.0,0.0
4830,68.0,94.0,90.0,3.0,0.0
4831,65.0,98.0,90.0,3.0,0.0
4832,65.0,94.0,90.0,3.0,0.0
4833,73.0,98.0,90.0,3.0,0.0
4834,73.0,94.0,90.0,3.0,0.0
4835,71.0,98.0,90.0,3.0,0.0
4836,80.0,0.0,180.0,2.0,0.0
4837,89.0,0.0,180.0,1.0,0.0
4838,71.0,94.0,90.0,3.0,0.0
4839,81.0,0.0,180.0,2.0,0.0
4840,90.0,0.0,180.0,1.0,0.0
4841,69.0,98.0,90.0,3.0,0.0
4842,69.0,94.0,90.0,3.0,0.0
4843,93.0,94.0,180.0,1.0,0.0
4844,85.0,0.0,180.0,2.0,0.0
4845,66.0,98.0,90.0,3.0,0.0
4846,66.0,0.0,90.0,3.0,0.0
4847,78.0,0.0,150.0,2.0,0.0
4848,71.0,66.0,90.0,3.0,0.0
4849,87.0,32.0,150.0,1.0,0.0
4850,71.0,192.0,90.0,3.0,0.0
4851,64.0,30.0,270.0,3.0,0.0
4852,81.0,64.0,180.0,2.0,0.0
4853,90.0,0.0,180.0,1.0,0.0
4854,88.0,0.0,90.0,1.0,0.0
4855,80.0,98.0,90.0,2.0,0.0
4856,63.0,96.0,90.0,4.0,0.0
4857,64.0,96.0,90.0,4.0,0.0
4858,65.0,32.0,90.0,4.0,0.0
4859,66.0,160.0,30.0,4.0,0.0
4860,66.0,94.0,90.0,4.0,0.0
4861,62.0,98.0,90.0,4.0,0.0
4862,62.0,94.0,90.0,4.0,0.0
4863,59.0,98.0,90.0,4.0,0.0
4864,59.0,94.0,90.0,4.0,0.0
4865,56.0,98.0,90.0,4.0,0.0
4866,56.0,94.0,90.0,4.0,0.0
4867,52.0,98.0,90.0,4.0,0.0
4868,52.0,32.0,90.0,4.0,0.0
4869,86.0,0.0,30.0,1.0,0.0
4870,71.0,0.0,30.0,3.0,0.0
4871,76.0,62.0,30.0,2.0,0.0
4872,56.0,98.0,90.0,4.0,0.0
4873,76.0,0.0,180.0,2.0,0.0
4874,56.0,0.0,90.0,4.0,0.0
4875,71.0,94.0,90.0,3.0,0.0
4876,86.0,0.0,90.0,1.0,0.0
4877,85.0,0.0,90.0,1.0,0.0
4878,69.0,0.0,90.0,3.0,0.0
4879,57.0,98.0,90.0,4.0,0.0
4880,76.0,0.0,90.0,2.0,0.0
4881,85.0,0.0,90.0,1.0,0.0
4882,69.0,94.0,90.0,3.0,0.0
4883,57.0,0.0,90.0,4.0,0.0
4884,74.0,98.0,90.0,2.0,0.0
4885,59.0,0.0,90.0,4.0,0.0
4886,83.0,0.0,90.0,1.0,0.0
4887,68.0,0.0,90.0,3.0,0.0
4888,68.0,94.0,90.0,3.0,0.0
4889,83.0,0.0,90.0,1.0,0.0
4890,74.0,0.0,90.0,2.0,0.0
4891,59.0,0.0,90.0,4.0,0.0
4892,81.0,96.0,90.0,1.0,0.0
4893,64.0,0.0,90.0,3.0,0.0
4894,73.0,0.0,90.0,2.0,0.0
4895,61.0,0.0,90.0,4.0,0.0
4896,64.0,0.0,90.0,3.0,0.0
4897,81.0,0.0,90.0,1.0,0.0
4898,61.0,2.0,90.0,4.0,0.0
4899,73.0,192.0,90.0,2.0,0.0
4900,71.0,0.0,270.0,2.0,0.0
4901,65.0,96.0,270.0,3.0,0.0
4902,81.0,64.0,180.0,1.0,0.0
4903,62.0,0.0,270.0,4.0,0.0
4904,80.0,64.0,150.0,1.0,0.0
4905,76.0,160.0,30.0,2.0,0.0
4906,76.0,94.0,90.0,2.0,0.0
4907,77.0,98.0,90.0,2.0,0.0
4908,77.0,32.0,90.0,2.0,0.0
4909,77.0,62.0,30.0,3.0,0.0
4910,74.0,98.0,90.0,2.0,0.0
4911,77.0,94.0,90.0,3.0,0.0
4912,74.0,0.0,90.0,2.0,0.0
4913,89.0,0.0,49860.0,1.0,0.0
4914,74.0,0.0,90.0,3.0,0.0
4915,71.0,98.0,90.0,2.0,0.0
4916,71.0,94.0,90.0,2.0,0.0
4917,74.0,0.0,90.0,3.0,0.0
4918,71.0,98.0,90.0,3.0,0.0
4919,68.0,0.0,90.0,2.0,0.0
4920,68.0,0.0,90.0,2.0,0.0
4921,71.0,0.0,90.0,3.0,0.0
4922,69.0,0.0,90.0,2.0,0.0
4923,88.0,64.0,180.0,1.0,0.0
4924,72.0,98.0,90.0,3.0,0.0
4925,84.0,30.0,150.0,2.0,0.0
4926,69.0,0.0,90.0,3.0,0.0
4927,93.0,30.0,150.0,1.0,0.0
4928,63.0,66.0,90.0,3.0,0.0
4929,63.0,94.0,90.0,3.0,0.0
4930,84.0,2.0,90.0,2.0,0.0
4931,93.0,0.0,390.0,1.0,0.0
4932,64.0,98.0,90.0,3.0,0.0
4933,84.0,94.0,390.0,2.0,0.0
4934,64.0,94.0,90.0,3.0,0.0
4935,76.0,98.0,90.0,3.0,0.0
4936,76.0,0.0,90.0,3.0,0.0
4937,95.0,0.0,150.0,1.0,0.0
4938,64.0,50.0,90.0,3.0,0.0
4939,86.0,46.0,150.0,2.0,0.0
4940,64.0,0.0,90.0,3.0,0.0
4941,83.0,96.0,60.0,2.0,0.0
4942,92.0,0.0,60.0,1.0,0.0
4943,93.0,64.0,150.0,1.0,0.0
4944,69.0,34.0,90.0,3.0,0.0
4945,81.0,0.0,90.0,2.0,0.0
4946,64.0,32.0,300.0,4.0,0.0
4947,61.0,0.0,30.0,2.0,0.0
4948,57.0,32.0,30.0,3.0,0.0
4949,57.0,64.0,30.0,3.0,0.0
4950,61.0,0.0,30.0,2.0,0.0
4951,66.0,46.0,60.0,4.0,0.0
4952,61.0,0.0,30.0,2.0,0.0
4953,57.0,16.0,30.0,3.0,0.0
4954,64.0,34.0,60.0,4.0,0.0
4955,63.0,0.0,30.0,4.0,0.0
4956,61.0,0.0,30.0,2.0,0.0
4957,57.0,96.0,30.0,3.0,0.0
4958,57.0,0.0,30.0,3.0,0.0
4959,61.0,158.0,30.0,2.0,0.0
4960,64.0,0.0,30.0,4.0,0.0
4961,57.0,0.0,90.0,3.0,0.0
4962,61.0,96.0,90.0,2.0,0.0
4963,85.0,48.0,300.0,1.0,0.0
4964,64.0,46.0,540.0,4.0,0.0
4965,57.0,0.0,90.0,3.0,0.0
4966,61.0,96.0,90.0,2.0,0.0
4967,57.0,0.0,90.0,3.0,0.0
4968,61.0,2.0,90.0,2.0,0.0
4969,57.0,34.0,90.0,3.0,0.0
4970,61.0,0.0,90.0,2.0,0.0
4971,86.0,46.0,60.0,1.0,0.0
4972,85.0,0.0,60.0,1.0,0.0
4973,61.0,34.0,90.0,2.0,0.0
4974,83.0,62.0,30.0,1.0,0.0
4975,57.0,0.0,90.0,3.0,0.0
4976,61.0,96.0,90.0,2.0,0.0
4977,57.0,0.0,90.0,3.0,0.0
4978,81.0,16.0,30.0,1.0,0.0
4979,80.0,30.0,150.0,1.0,0.0
4980,64.0,48.0,300.0,4.0,0.0
4981,59.0,66.0,90.0,3.0,0.0
4982,62.0,0.0,90.0,2.0,0.0
4983,59.0,0.0,90.0,3.0,0.0
4984,62.0,96.0,90.0,2.0,0.0
4985,62.0,2.0,90.0,2.0,0.0
4986,59.0,0.0,90.0,3.0,0.0
4987,66.0,46.0,60.0,4.0,0.0
4988,62.0,34.0,90.0,2.0,0.0
4989,59.0,0.0,90.0,3.0,0.0
4990,64.0,0.0,60.0,4.0,0.0
4991,59.0,0.0,90.0,3.0,0.0
4992,63.0,62.0,30.0,4.0,0.0
4993,62.0,34.0,90.0,2.0,0.0
4994,62.0,96.0,90.0,2.0,0.0
4995,59.0,0.0,90.0,3.0,0.0
4996,64.0,62.0,30.0,4.0,0.0
4997,68.0,0.0,90.0,2.0,0.0
4998,62.0,0.0,90.0,2.0,0.0
4999,64.0,46.0,540.0,4.0,0.0
5000,59.0,96.0,90.0,3.0,0.0
5001,86.0,48.0,300.0,1.0,0.0
5002,68.0,0.0,90.0,2.0,0.0
5003,62.0,96.0,90.0,2.0,0.0
5004,59.0,0.0,90.0,3.0,0.0
5005,59.0,0.0,90.0,3.0,0.0
5006,68.0,2.0,90.0,2.0,0.0
5007,62.0,0.0,90.0,2.0,0.0
5008,68.0,0.0,90.0,2.0,0.0
5009,59.0,0.0,90.0,3.0,0.0
5010,88.0,46.0,60.0,1.0,0.0
5011,62.0,0.0,90.0,2.0,0.0
5012,86.0,34.0,60.0,1.0,0.0
5013,59.0,0.0,90.0,3.0,0.0
5014,85.0,62.0,30.0,1.0,0.0
5015,62.0,34.0,90.0,2.0,0.0
5016,68.0,0.0,90.0,2.0,0.0
5017,62.0,0.0,90.0,2.0,0.0
5018,68.0,0.0,90.0,2.0,0.0
5019,59.0,96.0,90.0,3.0,0.0
5020,83.0,16.0,30.0,1.0,0.0
5021,61.0,66.0,90.0,3.0,0.0
5022,64.0,0.0,90.0,2.0,0.0
5023,64.0,48.0,300.0,4.0,0.0
5024,82.0,30.0,150.0,1.0,0.0
5025,70.0,0.0,90.0,2.0,0.0
5026,61.0,0.0,90.0,3.0,0.0
5027,64.0,96.0,90.0,2.0,0.0
5028,61.0,0.0,90.0,3.0,0.0
5029,70.0,0.0,90.0,2.0,0.0
5030,64.0,2.0,90.0,2.0,0.0
5031,61.0,0.0,90.0,3.0,0.0
5032,70.0,0.0,90.0,2.0,0.0
5033,64.0,34.0,90.0,2.0,0.0
5034,66.0,46.0,60.0,4.0,0.0
5035,64.0,0.0,60.0,4.0,0.0
5036,63.0,62.0,30.0,4.0,0.0
5037,61.0,0.0,90.0,3.0,0.0
5038,64.0,0.0,90.0,2.0,0.0
5039,70.0,34.0,90.0,2.0,0.0
5040,70.0,0.0,90.0,2.0,0.0
5041,64.0,96.0,90.0,2.0,0.0
5042,61.0,0.0,90.0,3.0,0.0
5043,64.0,62.0,30.0,4.0,0.0
5044,91.0,0.0,300.0,1.0,0.0
5045,61.0,0.0,90.0,3.0,0.0
5046,64.0,96.0,90.0,2.0,0.0
5047,70.0,0.0,90.0,2.0,0.0
5048,67.0,0.0,330.0,4.0,0.0
5049,70.0,0.0,90.0,2.0,0.0
5050,64.0,0.0,90.0,2.0,0.0
5051,61.0,96.0,90.0,3.0,0.0
5052,70.0,50.0,90.0,2.0,0.0
5053,64.0,0.0,90.0,2.0,0.0
5054,61.0,0.0,90.0,3.0,0.0
5055,64.0,0.0,90.0,2.0,0.0
5056,70.0,2.0,90.0,2.0,0.0
5057,61.0,0.0,90.0,3.0,0.0
5058,90.0,46.0,60.0,1.0,0.0
5059,88.0,48.0,60.0,1.0,0.0
5060,64.0,30.0,150.0,4.0,0.0
5061,61.0,2.0,90.0,3.0,0.0
5062,64.0,0.0,90.0,2.0,0.0
5063,70.0,0.0,90.0,2.0,0.0
5064,86.0,46.0,60.0,1.0,0.0
5065,85.0,48.0,60.0,1.0,0.0
5066,83.0,16.0,60.0,1.0,0.0
5067,70.0,0.0,90.0,2.0,0.0
5068,64.0,34.0,90.0,2.0,0.0
5069,61.0,0.0,90.0,3.0,0.0
5070,82.0,0.0,60.0,1.0,0.0
5071,83.0,48.0,30.0,1.0,0.0
5072,71.0,16.0,150.0,2.0,0.0
5073,62.0,0.0,150.0,3.0,0.0
5074,66.0,0.0,150.0,4.0,0.0
5075,78.0,48.0,30.0,1.0,0.0
5076,80.0,32.0,30.0,1.0,0.0
5077,82.0,48.0,30.0,1.0,0.0
5078,62.0,0.0,150.0,2.0,0.0
5079,50.0,16.0,150.0,4.0,0.0
5080,66.0,0.0,150.0,3.0,0.0
5081,71.0,0.0,150.0,2.0,0.0
5082,83.0,48.0,30.0,1.0,0.0
5083,85.0,48.0,30.0,1.0,0.0
5084,86.0,32.0,30.0,1.0,0.0
5085,85.0,48.0,30.0,1.0,0.0
5086,83.0,48.0,30.0,1.0,0.0
5087,78.0,48.0,30.0,1.0,0.0
5088,80.0,48.0,30.0,1.0,0.0
5089,82.0,62.0,30.0,1.0,0.0
5090,83.0,48.0,60.0,1.0,0.0
5091,85.0,48.0,60.0,1.0,0.0
5092,86.0,48.0,60.0,1.0,0.0
5093,85.0,48.0,60.0,1.0,0.0
5094,83.0,48.0,60.0,1.0,0.0
5095,78.0,48.0,60.0,1.0,0.0
5096,80.0,48.0,60.0,1.0,0.0
5097,82.0,48.0,60.0,1.0,0.0
5098,83.0,48.0,60.0,1.0,0.0
5099,85.0,48.0,60.0,1.0,0.0
5100,86.0,48.0,60.0,1.0,0.0
5101,85.0,48.0,60.0,1.0,0.0
5102,83.0,48.0,60.0,1.0,0.0
5103,78.0,48.0,60.0,1.0,0.0
5104,80.0,48.0,60.0,1.0,0.0
5105,82.0,48.0,60.0,1.0,0.0
5106,83.0,48.0,60.0,1.0,0.0
5107,85.0,48.0,60.0,1.0,0.0
5108,86.0,48.0,60.0,1.0,0.0
5109,85.0,48.0,60.0,1.0,0.0
5110,83.0,48.0,60.0,1.0,0.0
5111,66.0,0.0,60.0,2.0,0.0
5112,78.0,48.0,60.0,1.0,0.0
5113,54.0,0.0,60.0,3.0,0.0
5114,80.0,48.0,60.0,1.0,0.0
5115,68.0,0.0,60.0,2.0,0.0
5116,56.0,0.0,60.0,3.0,0.0
5117,58.0,0.0,60.0,3.0,0.0
5118,82.0,0.0,60.0,1.0,0.0
5119,70.0,48.0,60.0,2.0,0.0
5120,59.0,48.0,60.0,3.0,0.0
5121,83.0,0.0,60.0,1.0,0.0
5122,71.0,0.0,60.0,2.0,0.0
5123,73.0,48.0,60.0,2.0,0.0
5124,85.0,0.0,60.0,1.0,0.0
5125,61.0,0.0,60.0,3.0,0.0
5126,86.0,48.0,60.0,1.0,0.0
5127,74.0,0.0,60.0,2.0,0.0
5128,62.0,0.0,60.0,3.0,0.0
5129,64.0,0.0,60.0,3.0,0.0
5130,76.0,0.0,60.0,2.0,0.0
5131,88.0,48.0,60.0,1.0,0.0
5132,78.0,0.0,60.0,2.0,0.0
5133,66.0,48.0,60.0,3.0,0.0
5134,90.0,0.0,60.0,1.0,0.0
5135,76.0,0.0,60.0,2.0,0.0
5136,64.0,48.0,60.0,3.0,0.0
5137,88.0,0.0,60.0,1.0,0.0
5138,62.0,48.0,60.0,3.0,0.0
5139,74.0,0.0,60.0,2.0,0.0
5140,86.0,0.0,60.0,1.0,0.0
5141,85.0,0.0,60.0,1.0,0.0
5142,61.0,48.0,60.0,3.0,0.0
5143,73.0,0.0,60.0,2.0,0.0
5144,59.0,0.0,60.0,3.0,0.0
5145,71.0,48.0,60.0,2.0,0.0
5146,83.0,0.0,60.0,1.0,0.0
5147,81.0,0.0,60.0,1.0,0.0
5148,57.0,0.0,60.0,3.0,0.0
5149,69.0,48.0,60.0,2.0,0.0
5150,80.0,0.0,60.0,1.0,0.0
5151,68.0,48.0,60.0,2.0,0.0
5152,56.0,0.0,60.0,3.0,0.0
5153,66.0,0.0,60.0,2.0,0.0
5154,54.0,0.0,60.0,3.0,0.0
5155,78.0,258.0,60.0,1.0,0.0
5156,64.0,0.0,270.0,2.0,0.0
5157,52.0,80.0,270.0,3.0,0.0
5158,76.0,0.0,540.0,1.0,0.0
5159,54.0,48.0,60.0,3.0,0.0
5160,66.0,0.0,60.0,2.0,0.0
5161,68.0,0.0,60.0,2.0,0.0
5162,56.0,48.0,60.0,3.0,0.0
5163,69.0,48.0,60.0,2.0,0.0
5164,57.0,0.0,60.0,3.0,0.0
5165,59.0,48.0,60.0,3.0,0.0
5166,71.0,0.0,60.0,2.0,0.0
5167,73.0,0.0,60.0,2.0,0.0
5168,61.0,46.0,60.0,3.0,0.0
5169,63.0,0.0,60.0,3.0,0.0
5170,75.0,34.0,60.0,2.0,0.0
5171,64.0,0.0,90.0,3.0,0.0
5172,76.0,2.0,90.0,2.0,0.0
5173,85.0,32.0,30.0,1.0,0.0
5174,83.0,30.0,30.0,1.0,0.0
5175,85.0,32.0,30.0,1.0,0.0
5176,68.0,0.0,90.0,2.0,0.0
5177,83.0,32.0,30.0,1.0,0.0
5178,52.0,2.0,90.0,4.0,0.0
5179,62.0,0.0,90.0,3.0,0.0
5180,85.0,30.0,30.0,1.0,0.0
5181,83.0,32.0,30.0,1.0,0.0
5182,68.0,0.0,90.0,2.0,0.0
5183,62.0,2.0,90.0,3.0,0.0
5184,52.0,0.0,90.0,4.0,0.0
5185,85.0,32.0,30.0,1.0,0.0
5186,83.0,30.0,30.0,1.0,0.0
5187,85.0,32.0,30.0,1.0,0.0
5188,52.0,0.0,90.0,4.0,0.0
5189,68.0,2.0,90.0,2.0,0.0
5190,62.0,0.0,90.0,3.0,0.0
5191,83.0,32.0,30.0,1.0,0.0
5192,85.0,30.0,30.0,1.0,0.0
5193,83.0,32.0,30.0,1.0,0.0
5194,62.0,0.0,90.0,3.0,0.0
5195,68.0,2.0,90.0,2.0,0.0
5196,52.0,0.0,90.0,4.0,0.0
5197,85.0,32.0,30.0,1.0,0.0
5198,83.0,30.0,30.0,1.0,0.0
5199,85.0,32.0,30.0,1.0,0.0
5200,62.0,50.0,90.0,3.0,0.0
5201,68.0,0.0,90.0,2.0,0.0
5202,83.0,32.0,30.0,1.0,0.0
5203,52.0,0.0,90.0,4.0,0.0
5204,85.0,30.0,30.0,1.0,0.0
5205,83.0,0.0,30.0,1.0,0.0
5206,81.0,0.0,60.0,1.0,0.0
5207,61.0,0.0,60.0,3.0,0.0
5208,57.0,0.0,60.0,4.0,0.0
5209,69.0,400.0,60.0,2.0,0.0
5210,69.0,0.0,300.0,1.0,0.0
5211,61.0,94.0,300.0,3.0,0.0
5212,64.0,32.0,270.0,2.0,0.0
5213,68.0,0.0,90.0,1.0,0.0
5214,64.0,0.0,90.0,2.0,0.0
5215,59.0,98.0,90.0,3.0,0.0
5216,64.0,0.0,90.0,2.0,0.0
5217,68.0,94.0,90.0,1.0,0.0
5218,59.0,0.0,90.0,3.0,0.0
5219,56.0,98.0,90.0,3.0,0.0
5220,74.0,0.0,90.0,1.0,0.0
5221,71.0,0.0,90.0,2.0,0.0
5222,56.0,94.0,90.0,3.0,0.0
5223,74.0,0.0,90.0,1.0,0.0
5224,71.0,0.0,90.0,2.0,0.0
5225,69.0,96.0,90.0,2.0,0.0
5226,73.0,0.0,90.0,1.0,0.0
5227,57.0,0.0,90.0,3.0,0.0
5228,69.0,2.0,90.0,2.0,0.0
5229,57.0,0.0,90.0,3.0,0.0
5230,73.0,94.0,90.0,1.0,0.0
5231,62.0,0.0,90.0,3.0,0.0
5232,78.0,96.0,90.0,1.0,0.0
5233,69.0,0.0,90.0,2.0,0.0
5234,69.0,2.0,90.0,2.0,0.0
5235,78.0,94.0,90.0,1.0,0.0
5236,62.0,0.0,90.0,3.0,0.0
5237,69.0,0.0,90.0,2.0,0.0
5238,61.0,98.0,90.0,3.0,0.0
5239,76.0,0.0,90.0,1.0,0.0
5240,76.0,0.0,90.0,1.0,0.0
5241,69.0,94.0,90.0,2.0,0.0
5242,61.0,0.0,90.0,3.0,0.0
5243,81.0,98.0,90.0,1.0,0.0
5244,73.0,0.0,90.0,3.0,0.0
5245,76.0,0.0,90.0,2.0,0.0
5246,76.0,0.0,90.0,2.0,0.0
5247,73.0,0.0,90.0,3.0,0.0
5248,81.0,94.0,90.0,1.0,0.0
5249,71.0,98.0,90.0,3.0,0.0
5250,74.0,0.0,90.0,2.0,0.0
5251,80.0,0.0,90.0,1.0,0.0
5252,80.0,0.0,90.0,1.0,0.0
5253,74.0,0.0,90.0,2.0,0.0
5254,71.0,94.0,90.0,3.0,0.0
5255,86.0,0.0,90.0,1.0,0.0
5256,71.0,162.0,90.0,2.0,0.0
5257,68.0,0.0,90.0,3.0,0.0
5258,86.0,0.0,150.0,1.0,0.0
5259,71.0,0.0,150.0,2.0,0.0
5260,68.0,1088.0,150.0,3.0,0.0
5261,69.0,0.0,540.0,2.0,0.0
5262,73.0,48.0,300.0,1.0,0.0
5263,57.0,0.0,540.0,4.0,0.0
5264,64.0,784.0,540.0,3.0,0.0
5265,74.0,46.0,60.0,1.0,0.0
5266,73.0,34.0,60.0,1.0,0.0
5267,71.0,96.0,30.0,1.0,0.0
5268,73.0,16.0,30.0,1.0,0.0
5269,69.0,32.0,750.0,2.0,0.0
5270,59.0,0.0,780.0,3.0,0.0
5271,51.0,0.0,780.0,4.0,0.0
5272,78.0,48.0,780.0,1.0,0.0
5273,76.0,112.0,60.0,1.0,0.0
5274,69.0,0.0,60.0,2.0,0.0
5275,61.0,0.0,60.0,3.0,0.0
5276,52.0,80.0,150.0,4.0,0.0
5277,59.0,0.0,60.0,3.0,0.0
5278,62.0,0.0,60.0,2.0,0.0
5279,68.0,192.0,60.0,1.0,0.0
5280,40.0,0.0,60.0,4.0,0.0
5281,69.0,0.0,60.0,1.0,0.0
5282,57.0,0.0,60.0,3.0,0.0
5283,61.0,0.0,60.0,2.0,0.0
5284,45.0,432.0,60.0,4.0,0.0
5285,76.0,94.0,300.0,2.0,0.0
5286,73.0,0.0,300.0,3.0,0.0
5287,81.0,0.0,300.0,1.0,0.0
5288,74.0,0.0,90.0,2.0,0.0
5289,80.0,98.0,90.0,1.0,0.0
5290,71.0,0.0,90.0,3.0,0.0
5291,71.0,0.0,90.0,3.0,0.0
5292,80.0,0.0,90.0,1.0,0.0
5293,74.0,94.0,90.0,2.0,0.0
5294,86.0,98.0,90.0,1.0,0.0
5295,71.0,0.0,90.0,2.0,0.0
5296,68.0,0.0,90.0,3.0,0.0
5297,71.0,0.0,90.0,2.0,0.0
5298,86.0,94.0,90.0,1.0,0.0
5299,68.0,0.0,90.0,3.0,0.0
5300,69.0,0.0,90.0,3.0,0.0
5301,73.0,0.0,90.0,2.0,0.0
5302,85.0,98.0,90.0,1.0,0.0
5303,85.0,94.0,90.0,1.0,0.0
5304,69.0,0.0,90.0,3.0,0.0
5305,73.0,0.0,90.0,2.0,0.0
5306,74.0,0.0,90.0,3.0,0.0
5307,90.0,0.0,90.0,1.0,0.0
5308,81.0,96.0,90.0,2.0,0.0
5309,74.0,0.0,90.0,3.0,0.0
5310,81.0,2.0,90.0,2.0,0.0
5311,90.0,94.0,90.0,1.0,0.0
5312,88.0,0.0,90.0,1.0,0.0
5313,73.0,98.0,90.0,3.0,0.0
5314,81.0,0.0,90.0,2.0,0.0
5315,61.0,94.0,90.0,3.0,0.0
5316,88.0,0.0,90.0,1.0,0.0
5317,81.0,0.0,90.0,2.0,0.0
5318,93.0,0.0,90.0,1.0,0.0
5319,76.0,98.0,90.0,2.0,0.0
5320,73.0,0.0,90.0,3.0,0.0
5321,73.0,94.0,90.0,3.0,0.0
5322,93.0,0.0,90.0,1.0,0.0
5323,76.0,0.0,90.0,2.0,0.0
5324,74.0,0.0,90.0,2.0,0.0
5325,92.0,0.0,90.0,1.0,0.0
5326,71.0,98.0,90.0,3.0,0.0
5327,71.0,0.0,90.0,3.0,0.0
5328,92.0,0.0,90.0,1.0,0.0
5329,74.0,94.0,90.0,2.0,0.0
5330,98.0,0.0,90.0,1.0,0.0
5331,69.0,0.0,90.0,3.0,0.0
5332,83.0,162.0,90.0,2.0,0.0
5333,68.0,0.0,150.0,3.0,0.0
5334,98.0,1328.0,150.0,1.0,0.0
5335,83.0,0.0,150.0,2.0,0.0
5336,60.0,576.0,540.0,1.0,0.0
5337,72.0,0.0,540.0,1.0,0.0
5338,69.0,0.0,540.0,3.0,0.0
5339,64.0,0.0,540.0,2.0,0.0
5340,57.0,0.0,540.0,4.0,0.0
5341,69.0,0.0,540.0,2.0,0.0
5342,65.0,384.0,540.0,3.0,0.0
5343,53.0,0.0,540.0,4.0,0.0
5344,60.0,0.0,540.0,1.0,0.0
5345,72.0,0.0,540.0,1.0,0.0
5346,60.0,0.0,330.0,1.0,0.0
5347,51.0,0.0,330.0,4.0,0.0
5348,69.0,0.0,330.0,2.0,0.0
5349,66.0,0.0,330.0,2.0,0.0
5350,72.0,208.0,330.0,1.0,0.0
5351,63.0,0.0,330.0,3.0,0.0
5352,69.0,0.0,150.0,2.0,0.0
5353,62.0,80.0,150.0,3.0,0.0
5354,50.0,0.0,150.0,4.0,0.0
5355,60.0,0.0,150.0,1.0,0.0
5356,72.0,0.0,150.0,1.0,0.0
5357,66.0,0.0,150.0,2.0,0.0
5358,66.0,192.0,60.0,2.0,0.0
5359,69.0,0.0,60.0,2.0,0.0
5360,49.0,0.0,60.0,4.0,0.0
5361,61.0,0.0,60.0,3.0,0.0
5362,61.0,0.0,60.0,1.0,0.0
5363,73.0,0.0,60.0,1.0,0.0
5364,74.0,0.0,60.0,1.0,0.0
5365,47.0,0.0,60.0,4.0,0.0
5366,66.0,0.0,60.0,3.0,0.0
5367,71.0,192.0,60.0,2.0,0.0
5368,52.0,192.0,60.0,4.0,0.0
5369,71.0,0.0,60.0,1.0,0.0
5370,68.0,0.0,60.0,2.0,0.0
5371,62.0,0.0,60.0,3.0,0.0
5372,69.0,46.0,60.0,1.0,0.0
5373,57.0,48.0,300.0,4.0,0.0
5374,61.0,96.0,90.0,3.0,0.0
5375,64.0,96.0,90.0,3.0,0.0
5376,69.0,0.0,90.0,2.0,0.0
5377,61.0,0.0,90.0,2.0,0.0
5378,64.0,0.0,90.0,3.0,0.0
5379,61.0,2.0,90.0,2.0,0.0
5380,69.0,0.0,90.0,2.0,0.0
5381,59.0,46.0,60.0,4.0,0.0
5382,64.0,34.0,90.0,3.0,0.0
5383,61.0,0.0,90.0,2.0,0.0
5384,69.0,0.0,90.0,2.0,0.0
5385,57.0,0.0,60.0,4.0,0.0
5386,56.0,62.0,30.0,4.0,0.0
5387,69.0,0.0,90.0,2.0,0.0
5388,61.0,34.0,90.0,2.0,0.0
5389,64.0,0.0,90.0,3.0,0.0
5390,69.0,96.0,90.0,2.0,0.0
5391,57.0,62.0,30.0,4.0,0.0
5392,61.0,0.0,90.0,2.0,0.0
5393,64.0,0.0,90.0,3.0,0.0
5394,64.0,0.0,90.0,3.0,0.0
5395,45.0,30.0,150.0,4.0,0.0
5396,69.0,66.0,90.0,2.0,0.0
5397,61.0,0.0,90.0,2.0,0.0
5398,69.0,0.0,90.0,2.0,0.0
5399,61.0,0.0,90.0,2.0,0.0
5400,64.0,96.0,90.0,3.0,0.0
5401,61.0,66.0,90.0,2.0,0.0
5402,73.0,30.0,150.0,1.0,0.0
5403,64.0,0.0,90.0,3.0,0.0
5404,69.0,0.0,90.0,2.0,0.0
5405,64.0,0.0,90.0,3.0,0.0
5406,69.0,34.0,90.0,2.0,0.0
5407,61.0,0.0,90.0,2.0,0.0
5408,69.0,0.0,90.0,2.0,0.0
5409,64.0,2.0,90.0,3.0,0.0
5410,61.0,0.0,90.0,2.0,0.0
5411,74.0,32.0,30.0,1.0,0.0
5412,73.0,30.0,30.0,1.0,0.0
5413,74.0,32.0,30.0,1.0,0.0
5414,69.0,0.0,90.0,2.0,0.0
5415,61.0,96.0,90.0,2.0,0.0
5416,73.0,32.0,30.0,1.0,0.0
5417,64.0,0.0,90.0,3.0,0.0
5418,71.0,30.0,30.0,1.0,0.0
5419,73.0,0.0,30.0,1.0,0.0
5420,64.0,96.0,90.0,3.0,0.0
5421,57.0,48.0,300.0,4.0,0.0
5422,62.0,0.0,90.0,2.0,0.0
5423,71.0,0.0,90.0,2.0,0.0
5424,76.0,94.0,180.0,1.0,0.0
5425,71.0,0.0,90.0,2.0,0.0
5426,64.0,2.0,90.0,3.0,0.0
5427,62.0,0.0,90.0,2.0,0.0
5428,62.0,0.0,90.0,2.0,0.0
5429,71.0,0.0,90.0,2.0,0.0
5430,74.0,30.0,150.0,1.0,0.0
5431,64.0,2.0,90.0,3.0,0.0
5432,59.0,16.0,60.0,4.0,0.0
5433,71.0,0.0,90.0,2.0,0.0
5434,62.0,0.0,90.0,2.0,0.0
5435,64.0,0.0,90.0,3.0,0.0
5436,57.0,34.0,60.0,4.0,0.0
5437,56.0,62.0,30.0,4.0,0.0
5438,71.0,0.0,90.0,2.0,0.0
5439,62.0,0.0,90.0,2.0,0.0
5440,64.0,34.0,90.0,3.0,0.0
5441,62.0,96.0,90.0,2.0,0.0
5442,64.0,0.0,90.0,3.0,0.0
5443,57.0,62.0,30.0,4.0,0.0
5444,71.0,0.0,90.0,2.0,0.0
5445,45.0,30.0,150.0,4.0,0.0
5446,64.0,66.0,90.0,3.0,0.0
5447,71.0,0.0,90.0,2.0,0.0
5448,62.0,0.0,90.0,2.0,0.0
5449,71.0,96.0,90.0,2.0,0.0
5450,62.0,0.0,90.0,2.0,0.0
5451,64.0,0.0,90.0,3.0,0.0
5452,80.0,30.0,150.0,1.0,0.0
5453,62.0,66.0,90.0,2.0,0.0
5454,64.0,0.0,90.0,3.0,0.0
5455,71.0,0.0,90.0,2.0,0.0
5456,64.0,0.0,90.0,3.0,0.0
5457,62.0,34.0,90.0,2.0,0.0
5458,71.0,0.0,90.0,2.0,0.0
5459,64.0,0.0,90.0,3.0,0.0
5460,81.0,32.0,30.0,1.0,0.0
5461,62.0,2.0,90.0,2.0,0.0
5462,71.0,0.0,90.0,2.0,0.0
5463,80.0,30.0,30.0,1.0,0.0
5464,81.0,32.0,30.0,1.0,0.0
5465,71.0,50.0,90.0,2.0,0.0
5466,64.0,0.0,90.0,3.0,0.0
5467,80.0,32.0,30.0,1.0,0.0
5468,62.0,0.0,90.0,2.0,0.0
5469,78.0,30.0,30.0,1.0,0.0
5470,80.0,0.0,30.0,1.0,0.0
5471,81.0,0.0,90.0,1.0,0.0
5472,64.0,0.0,90.0,3.0,0.0
5473,59.0,46.0,60.0,4.0,0.0
5474,69.0,0.0,90.0,2.0,0.0
5475,61.0,2.0,90.0,2.0,0.0
5476,57.0,48.0,60.0,4.0,0.0
5477,85.0,0.0,90.0,1.0,0.0
5478,73.0,0.0,90.0,2.0,0.0
5479,69.0,0.0,90.0,2.0,0.0
5480,56.0,46.0,60.0,4.0,0.0
5481,64.0,0.0,90.0,3.0,0.0
5482,57.0,50.0,60.0,4.0,0.0
5483,64.0,2.0,90.0,3.0,0.0
5484,59.0,46.0,60.0,4.0,0.0
5485,69.0,0.0,90.0,2.0,0.0
5486,76.0,30.0,150.0,1.0,0.0
5487,73.0,0.0,90.0,2.0,0.0
5488,57.0,48.0,60.0,4.0,0.0
5489,56.0,16.0,60.0,4.0,0.0
5490,73.0,50.0,90.0,2.0,0.0
5491,64.0,0.0,90.0,3.0,0.0
5492,69.0,0.0,90.0,2.0,0.0
5493,57.0,0.0,60.0,4.0,0.0
5494,69.0,0.0,90.0,2.0,0.0
5495,73.0,2.0,90.0,2.0,0.0
5496,64.0,0.0,90.0,3.0,0.0
5497,59.0,46.0,60.0,4.0,0.0
5498,57.0,48.0,60.0,4.0,0.0
5499,73.0,0.0,90.0,2.0,0.0
5500,56.0,46.0,60.0,4.0,0.0
5501,69.0,0.0,90.0,2.0,0.0
5502,64.0,0.0,90.0,3.0,0.0
5503,57.0,50.0,60.0,4.0,0.0
5504,86.0,46.0,60.0,1.0,0.0
5505,73.0,0.0,90.0,2.0,0.0
5506,45.0,30.0,150.0,4.0,0.0
5507,69.0,2.0,90.0,2.0,0.0
5508,64.0,0.0,90.0,3.0,0.0
5509,85.0,48.0,60.0,1.0,0.0
5510,73.0,50.0,90.0,2.0,0.0
5511,83.0,16.0,60.0,1.0,0.0
5512,69.0,0.0,90.0,2.0,0.0
5513,64.0,0.0,90.0,3.0,0.0
5514,85.0,0.0,60.0,1.0,0.0
5515,73.0,0.0,90.0,2.0,0.0
5516,86.0,46.0,60.0,1.0,0.0
5517,69.0,2.0,90.0,2.0,0.0
5518,64.0,0.0,90.0,3.0,0.0
5519,85.0,48.0,60.0,1.0,0.0
5520,83.0,46.0,60.0,1.0,0.0
5521,73.0,0.0,90.0,2.0,0.0
5522,69.0,0.0,90.0,2.0,0.0
5523,64.0,0.0,90.0,3.0,0.0
5524,85.0,50.0,60.0,1.0,0.0
5525,69.0,0.0,90.0,2.0,0.0
5526,64.0,0.0,90.0,3.0,0.0
5527,86.0,46.0,60.0,1.0,0.0
5528,73.0,2.0,90.0,2.0,0.0
5529,85.0,48.0,60.0,1.0,0.0
5530,83.0,46.0,60.0,1.0,0.0
5531,64.0,0.0,90.0,3.0,0.0
5532,73.0,50.0,90.0,2.0,0.0
5533,69.0,0.0,90.0,2.0,0.0
5534,85.0,0.0,60.0,1.0,0.0
5535,74.0,0.0,90.0,2.0,0.0
5536,64.0,0.0,90.0,3.0,0.0
5537,59.0,46.0,60.0,4.0,0.0
5538,71.0,2.0,90.0,2.0,0.0
5539,88.0,48.0,180.0,1.0,0.0
5540,57.0,48.0,60.0,4.0,0.0
5541,56.0,46.0,60.0,4.0,0.0
5542,64.0,0.0,90.0,3.0,0.0
5543,74.0,2.0,90.0,2.0,0.0
5544,71.0,0.0,90.0,2.0,0.0
5545,57.0,0.0,60.0,4.0,0.0
5546,59.0,46.0,60.0,4.0,0.0
5547,86.0,30.0,150.0,1.0,0.0
5548,64.0,0.0,90.0,3.0,0.0
5549,74.0,0.0,90.0,2.0,0.0
5550,71.0,2.0,90.0,2.0,0.0
5551,57.0,48.0,60.0,4.0,0.0
5552,64.0,0.0,90.0,3.0,0.0
5553,74.0,50.0,90.0,2.0,0.0
5554,71.0,0.0,90.0,2.0,0.0
5555,56.0,16.0,60.0,4.0,0.0
5556,57.0,0.0,60.0,4.0,0.0
5557,74.0,0.0,90.0,2.0,0.0
5558,64.0,2.0,90.0,3.0,0.0
5559,59.0,46.0,60.0,4.0,0.0
5560,71.0,0.0,90.0,2.0,0.0
5561,57.0,48.0,60.0,4.0,0.0
5562,64.0,0.0,90.0,3.0,0.0
5563,74.0,0.0,90.0,2.0,0.0
5564,71.0,0.0,90.0,2.0,0.0
5565,56.0,46.0,60.0,4.0,0.0
5566,57.0,50.0,60.0,4.0,0.0
5567,45.0,30.0,150.0,4.0,0.0
5568,71.0,0.0,90.0,2.0,0.0
5569,64.0,0.0,90.0,3.0,0.0
5570,93.0,46.0,60.0,1.0,0.0
5571,74.0,2.0,90.0,2.0,0.0
5572,92.0,48.0,60.0,1.0,0.0
5573,90.0,16.0,60.0,1.0,0.0
5574,71.0,0.0,90.0,2.0,0.0
5575,74.0,0.0,90.0,2.0,0.0
5576,64.0,0.0,90.0,3.0,0.0
5577,92.0,50.0,60.0,1.0,0.0
5578,64.0,0.0,90.0,3.0,0.0
5579,93.0,46.0,60.0,1.0,0.0
5580,71.0,0.0,90.0,2.0,0.0
5581,74.0,2.0,90.0,2.0,0.0
5582,92.0,48.0,60.0,1.0,0.0
5583,90.0,46.0,60.0,1.0,0.0
5584,74.0,50.0,90.0,2.0,0.0
5585,64.0,0.0,90.0,3.0,0.0
5586,71.0,0.0,90.0,2.0,0.0
5587,92.0,0.0,60.0,1.0,0.0
5588,71.0,0.0,90.0,2.0,0.0
5589,93.0,46.0,60.0,1.0,0.0
5590,64.0,0.0,90.0,3.0,0.0
5591,74.0,2.0,90.0,2.0,0.0
5592,92.0,48.0,60.0,1.0,0.0
5593,64.0,0.0,90.0,3.0,0.0
5594,90.0,46.0,60.0,1.0,0.0
5595,71.0,34.0,90.0,2.0,0.0
5596,74.0,0.0,90.0,2.0,0.0
5597,92.0,0.0,60.0,1.0,0.0
5598,69.0,0.0,60.0,2.0,0.0
5599,45.0,0.0,60.0,4.0,0.0
5600,93.0,16.0,30.0,1.0,0.0
5601,64.0,0.0,60.0,3.0,0.0
5602,73.0,80.0,60.0,2.0,0.0
5603,92.0,48.0,30.0,1.0,0.0
5604,90.0,48.0,30.0,1.0,0.0
5605,88.0,16.0,30.0,1.0,0.0
5606,69.0,32.0,60.0,2.0,0.0
5607,73.0,0.0,60.0,2.0,0.0
5608,64.0,0.0,60.0,3.0,0.0
5609,57.0,0.0,60.0,4.0,0.0
5610,86.0,48.0,30.0,1.0,0.0
5611,85.0,48.0,30.0,1.0,0.0
5612,83.0,48.0,30.0,1.0,0.0
5613,81.0,48.0,30.0,1.0,0.0
5614,88.0,48.0,30.0,1.0,0.0
5615,86.0,48.0,30.0,1.0,0.0
5616,85.0,62.0,30.0,1.0,0.0
5617,83.0,48.0,60.0,1.0,0.0
5618,81.0,48.0,60.0,1.0,0.0
5619,80.0,48.0,60.0,1.0,0.0
5620,78.0,48.0,60.0,1.0,0.0
5621,76.0,48.0,60.0,1.0,0.0
5622,85.0,48.0,60.0,1.0,0.0
5623,83.0,48.0,60.0,1.0,0.0
5624,81.0,48.0,60.0,1.0,0.0
5625,80.0,48.0,60.0,1.0,0.0
5626,78.0,48.0,60.0,1.0,0.0
5627,76.0,48.0,60.0,1.0,0.0
5628,74.0,48.0,60.0,1.0,0.0
5629,73.0,48.0,60.0,1.0,0.0
5630,69.0,0.0,60.0,3.0,0.0
5631,57.0,48.0,60.0,4.0,0.0
5632,81.0,0.0,60.0,1.0,0.0
5633,56.0,0.0,60.0,4.0,0.0
5634,68.0,0.0,60.0,3.0,0.0
5635,80.0,48.0,60.0,1.0,0.0
5636,54.0,0.0,60.0,4.0,0.0
5637,66.0,0.0,60.0,3.0,0.0
5638,78.0,48.0,60.0,1.0,0.0
5639,76.0,0.0,60.0,1.0,0.0
5640,52.0,0.0,60.0,4.0,0.0
5641,64.0,48.0,60.0,3.0,0.0
5642,74.0,0.0,60.0,1.0,0.0
5643,50.0,48.0,60.0,4.0,0.0
5644,62.0,0.0,60.0,3.0,0.0
5645,49.0,48.0,60.0,4.0,0.0
5646,73.0,0.0,60.0,1.0,0.0
5647,61.0,0.0,60.0,3.0,0.0
5648,59.0,48.0,60.0,3.0,0.0
5649,47.0,0.0,60.0,4.0,0.0
5650,71.0,0.0,60.0,1.0,0.0
5651,45.0,0.0,60.0,4.0,0.0
5652,69.0,0.0,60.0,1.0,0.0
5653,57.0,48.0,60.0,3.0,0.0
5654,57.0,48.0,60.0,4.0,0.0
5655,69.0,0.0,60.0,3.0,0.0
5656,81.0,0.0,60.0,1.0,0.0
5657,80.0,0.0,60.0,1.0,0.0
5658,56.0,0.0,60.0,4.0,0.0
5659,68.0,48.0,60.0,3.0,0.0
5660,78.0,0.0,60.0,1.0,0.0
5661,66.0,48.0,60.0,3.0,0.0
5662,54.0,0.0,60.0,4.0,0.0
5663,52.0,0.0,60.0,4.0,0.0
5664,64.0,0.0,60.0,3.0,0.0
5665,76.0,48.0,60.0,1.0,0.0
5666,62.0,0.0,60.0,3.0,0.0
5667,50.0,48.0,60.0,4.0,0.0
5668,74.0,0.0,60.0,1.0,0.0
5669,49.0,48.0,60.0,4.0,0.0
5670,73.0,0.0,60.0,1.0,0.0
5671,61.0,0.0,60.0,3.0,0.0
5672,47.0,0.0,60.0,4.0,0.0
5673,71.0,0.0,60.0,1.0,0.0
5674,59.0,50.0,60.0,3.0,0.0
5675,69.0,0.0,60.0,1.0,0.0
5676,45.0,0.0,60.0,4.0,0.0
5677,57.0,48.0,60.0,3.0,0.0
5678,44.0,48.0,60.0,4.0,0.0
5679,68.0,0.0,60.0,1.0,0.0
5680,56.0,0.0,60.0,3.0,0.0
5681,69.0,0.0,60.0,1.0,0.0
5682,57.0,48.0,60.0,3.0,0.0
5683,45.0,0.0,60.0,4.0,0.0
5684,44.0,0.0,60.0,4.0,0.0
5685,56.0,0.0,60.0,3.0,0.0
5686,68.0,48.0,60.0,1.0,0.0
5687,45.0,0.0,60.0,4.0,0.0
5688,57.0,0.0,60.0,3.0,0.0
5689,69.0,48.0,60.0,1.0,0.0
5690,68.0,0.0,60.0,1.0,0.0
5691,56.0,48.0,60.0,3.0,0.0
5692,44.0,0.0,60.0,4.0,0.0
5693,69.0,46.0,60.0,1.0,0.0
5694,57.0,0.0,60.0,3.0,0.0
5695,45.0,0.0,60.0,4.0,0.0
5696,56.0,50.0,60.0,3.0,0.0
5697,44.0,0.0,60.0,4.0,0.0
5698,68.0,0.0,60.0,1.0,0.0
5699,45.0,192.0,60.0,4.0,0.0
5700,69.0,0.0,60.0,1.0,0.0
5701,57.0,0.0,60.0,3.0,0.0
5702,59.0,0.0,60.0,3.0,0.0
5703,71.0,192.0,60.0,1.0,0.0
5704,47.0,0.0,60.0,4.0,0.0
5705,49.0,192.0,60.0,4.0,0.0
5706,73.0,0.0,60.0,1.0,0.0
5707,61.0,0.0,60.0,3.0,0.0
5708,62.0,0.0,60.0,2.0,0.0
5709,50.0,192.0,60.0,4.0,0.0
5710,74.0,0.0,60.0,1.0,0.0
5711,64.0,0.0,60.0,2.0,0.0
5712,76.0,192.0,60.0,1.0,0.0
5713,52.0,0.0,60.0,4.0,0.0
5714,66.0,1824.0,60.0,2.0,0.0
5715,78.0,0.0,60.0,1.0,0.0
5716,54.0,0.0,60.0,4.0,0.0
5717,55.0,96.0,1680.0,4.0,0.0
5718,79.0,0.0,1680.0,1.0,0.0
5719,67.0,0.0,1680.0,2.0,0.0
5720,42.0,192.0,60.0,4.0,0.0
5721,66.0,0.0,60.0,1.0,0.0
5722,54.0,0.0,60.0,3.0,0.0
5723,44.0,0.0,60.0,4.0,0.0
5724,56.0,0.0,60.0,3.0,0.0
5725,68.0,192.0,60.0,1.0,0.0
5726,58.0,0.0,60.0,3.0,0.0
5727,70.0,0.0,60.0,1.0,0.0
5728,46.0,192.0,60.0,4.0,0.0
5729,47.0,0.0,60.0,4.0,0.0
5730,59.0,0.0,60.0,2.0,0.0
5731,71.0,192.0,60.0,1.0,0.0
5732,61.0,192.0,60.0,2.0,0.0
5733,49.0,0.0,60.0,4.0,0.0
5734,73.0,0.0,60.0,1.0,0.0
5735,50.0,0.0,60.0,4.0,0.0
5736,62.0,1824.0,60.0,2.0,0.0
5737,74.0,0.0,60.0,1.0,0.0
5738,64.0,0.0,1680.0,2.0,0.0
5739,76.0,0.0,1680.0,1.0,0.0
5740,52.0,80.0,1680.0,4.0,0.0
5741,59.0,96.0,60.0,2.0,0.0
5742,81.0,16.0,30.0,1.0,0.0
5743,83.0,46.0,60.0,1.0,0.0
5744,81.0,34.0,60.0,1.0,0.0
5745,61.0,96.0,60.0,2.0,0.0
5746,80.0,16.0,30.0,1.0,0.0
5747,81.0,46.0,60.0,1.0,0.0
5748,80.0,34.0,60.0,1.0,0.0
5749,78.0,16.0,30.0,1.0,0.0
5750,63.0,96.0,60.0,2.0,0.0
5751,80.0,46.0,60.0,1.0,0.0
5752,78.0,34.0,60.0,1.0,0.0
5753,76.0,16.0,30.0,1.0,0.0
5754,64.0,96.0,60.0,2.0,0.0
5755,78.0,46.0,60.0,1.0,0.0
5756,76.0,34.0,60.0,1.0,0.0
5757,66.0,96.0,60.0,2.0,0.0
5758,75.0,16.0,30.0,1.0,0.0
5759,76.0,46.0,60.0,1.0,0.0
5760,75.0,34.0,60.0,1.0,0.0
5761,73.0,16.0,30.0,1.0,0.0
5762,68.0,96.0,60.0,2.0,0.0
5763,75.0,46.0,60.0,1.0,0.0
5764,73.0,194.0,60.0,1.0,0.0
5765,69.0,96.0,180.0,2.0,0.0
5766,71.0,48.0,300.0,1.0,0.0
5767,66.0,32.0,180.0,2.0,0.0
5768,73.0,46.0,60.0,1.0,0.0
5769,71.0,2.0,60.0,1.0,0.0
5770,63.0,224.0,150.0,2.0,0.0
5771,70.0,96.0,30.0,1.0,0.0
5772,71.0,32.0,30.0,1.0,0.0
5773,59.0,48.0,300.0,3.0,0.0
5774,90.0,0.0,180.0,1.0,0.0
5775,51.0,96.0,180.0,4.0,0.0
5776,87.0,32.0,180.0,1.0,0.0
5777,54.0,0.0,180.0,4.0,0.0
5778,61.0,46.0,60.0,3.0,0.0
5779,59.0,2.0,60.0,3.0,0.0
5780,58.0,96.0,30.0,3.0,0.0
5781,47.0,64.0,150.0,4.0,0.0
5782,81.0,0.0,150.0,1.0,0.0
5783,59.0,32.0,30.0,3.0,0.0
5784,52.0,0.0,150.0,4.0,0.0
5785,80.0,30.0,150.0,1.0,0.0
5786,74.0,112.0,30.0,2.0,0.0
5787,76.0,16.0,60.0,2.0,0.0
5788,74.0,34.0,60.0,2.0,0.0
5789,73.0,16.0,30.0,2.0,0.0
5790,54.0,96.0,60.0,3.0,0.0
5791,74.0,46.0,60.0,2.0,0.0
5792,73.0,34.0,60.0,2.0,0.0
5793,71.0,16.0,30.0,2.0,0.0
5794,56.0,96.0,60.0,3.0,0.0
5795,73.0,46.0,60.0,2.0,0.0
5796,71.0,34.0,60.0,2.0,0.0
5797,57.0,96.0,60.0,3.0,0.0
5798,69.0,16.0,30.0,2.0,0.0
5799,71.0,46.0,60.0,2.0,0.0
5800,69.0,34.0,60.0,2.0,0.0
5801,68.0,16.0,30.0,2.0,0.0
5802,59.0,96.0,60.0,3.0,0.0
5803,69.0,46.0,60.0,2.0,0.0
5804,68.0,34.0,60.0,2.0,0.0
5805,61.0,96.0,60.0,3.0,0.0
5806,66.0,16.0,30.0,2.0,0.0
5807,68.0,46.0,60.0,2.0,0.0
5808,66.0,194.0,60.0,2.0,0.0
5809,64.0,48.0,300.0,2.0,0.0
5810,62.0,96.0,180.0,3.0,0.0
5811,59.0,32.0,180.0,3.0,0.0
5812,66.0,46.0,60.0,2.0,0.0
5813,64.0,2.0,60.0,2.0,0.0
5814,56.0,192.0,150.0,3.0,0.0
5815,63.0,96.0,30.0,2.0,0.0
5816,64.0,32.0,30.0,2.0,0.0
5817,83.0,0.0,180.0,1.0,0.0
5818,74.0,32.0,150.0,2.0,0.0
5819,40.0,96.0,180.0,4.0,0.0
5820,52.0,48.0,300.0,3.0,0.0
5821,80.0,32.0,180.0,1.0,0.0
5822,44.0,0.0,180.0,4.0,0.0
5823,66.0,46.0,60.0,3.0,0.0
5824,64.0,2.0,60.0,3.0,0.0
5825,63.0,96.0,30.0,3.0,0.0
5826,74.0,192.0,150.0,1.0,0.0
5827,47.0,0.0,150.0,4.0,0.0
5828,64.0,32.0,30.0,3.0,0.0
5829,69.0,0.0,150.0,1.0,0.0
5830,52.0,128.0,150.0,4.0,0.0
5831,64.0,48.0,300.0,2.0,0.0
5832,73.0,0.0,150.0,1.0,0.0
5833,61.0,32.0,180.0,3.0,0.0
5834,66.0,46.0,60.0,2.0,0.0
5835,64.0,2.0,60.0,2.0,0.0
5836,63.0,96.0,30.0,2.0,0.0
5837,57.0,192.0,150.0,3.0,0.0
5838,64.0,32.0,30.0,2.0,0.0
5839,52.0,48.0,300.0,3.0,0.0
5840,40.0,96.0,180.0,4.0,0.0
5841,85.0,0.0,180.0,1.0,0.0
5842,73.0,32.0,150.0,2.0,0.0
5843,81.0,32.0,180.0,1.0,0.0
5844,45.0,0.0,180.0,4.0,0.0
5845,66.0,46.0,60.0,3.0,0.0
5846,64.0,2.0,60.0,3.0,0.0
5847,49.0,0.0,150.0,4.0,0.0
5848,63.0,96.0,30.0,3.0,0.0
5849,76.0,192.0,150.0,1.0,0.0
5850,64.0,32.0,30.0,3.0,0.0
5851,52.0,32.0,150.0,4.0,0.0
5852,71.0,96.0,180.0,3.0,0.0
5853,74.0,48.0,300.0,1.0,0.0
5854,68.0,32.0,180.0,3.0,0.0
5855,76.0,46.0,60.0,1.0,0.0
5856,74.0,2.0,60.0,1.0,0.0
5857,64.0,224.0,150.0,3.0,0.0
5858,73.0,96.0,30.0,1.0,0.0
5859,74.0,32.0,30.0,1.0,0.0
5860,80.0,0.0,180.0,3.0,0.0
5861,86.0,0.0,180.0,1.0,0.0
5862,83.0,0.0,180.0,2.0,0.0
5863,40.0,192.0,180.0,4.0,0.0
5864,52.0,0.0,180.0,4.0,0.0
5865,80.0,0.0,180.0,2.0,0.0
5866,74.0,160.0,180.0,3.0,0.0
5867,83.0,0.0,180.0,1.0,0.0
5868,74.0,0.0,150.0,2.0,0.0
5869,53.0,320.0,150.0,4.0,0.0
5870,80.0,0.0,150.0,1.0,0.0
5871,71.0,0.0,150.0,3.0,0.0
5872,81.0,48.0,300.0,1.0,0.0
5873,73.0,0.0,540.0,2.0,0.0
5874,69.0,0.0,540.0,3.0,0.0
5875,54.0,576.0,540.0,4.0,0.0
5876,83.0,46.0,60.0,1.0,0.0
5877,81.0,34.0,60.0,1.0,0.0
5878,80.0,96.0,30.0,1.0,0.0
5879,81.0,16.0,30.0,1.0,0.0
5880,77.0,0.0,540.0,2.0,0.0
5881,62.0,0.0,540.0,3.0,0.0
5882,56.0,0.0,540.0,4.0,0.0
5883,83.0,336.0,540.0,1.0,0.0
5884,67.0,576.0,540.0,3.0,0.0
5885,58.0,0.0,540.0,4.0,0.0
5886,85.0,48.0,300.0,1.0,0.0
5887,76.0,0.0,540.0,2.0,0.0
5888,86.0,46.0,60.0,1.0,0.0
5889,85.0,34.0,60.0,1.0,0.0
5890,83.0,96.0,30.0,1.0,0.0
5891,85.0,16.0,30.0,1.0,0.0
5892,66.0,0.0,540.0,3.0,0.0
5893,59.0,0.0,540.0,4.0,0.0
5894,74.0,0.0,540.0,2.0,0.0
5895,86.0,336.0,540.0,1.0,0.0
5896,70.0,0.0,540.0,3.0,0.0
5897,79.0,0.0,540.0,2.0,0.0
5898,61.0,576.0,540.0,4.0,0.0
5899,88.0,48.0,300.0,1.0,0.0
5900,90.0,46.0,60.0,1.0,0.0
5901,88.0,34.0,60.0,1.0,0.0
5902,86.0,96.0,30.0,1.0,0.0
5903,88.0,16.0,30.0,1.0,0.0
5904,90.0,288.0,540.0,1.0,0.0
5905,63.0,0.0,540.0,4.0,0.0
5906,69.0,0.0,540.0,3.0,0.0
5907,72.0,0.0,540.0,2.0,0.0
5908,73.0,48.0,300.0,2.0,0.0
5909,64.0,336.0,540.0,4.0,0.0
5910,69.0,0.0,300.0,3.0,0.0
5911,76.0,48.0,60.0,1.0,0.0
5912,71.0,0.0,60.0,3.0,0.0
5913,74.0,46.0,60.0,2.0,0.0
5914,73.0,34.0,60.0,2.0,0.0
5915,69.0,0.0,60.0,3.0,0.0
5916,76.0,80.0,60.0,1.0,0.0
5917,71.0,0.0,30.0,2.0,0.0
5918,68.0,16.0,30.0,3.0,0.0
5919,73.0,16.0,30.0,2.0,0.0
5920,69.0,0.0,30.0,3.0,0.0
5921,52.0,32.0,390.0,4.0,0.0
5922,76.0,48.0,300.0,1.0,0.0
5923,74.0,0.0,390.0,2.0,0.0
5924,71.0,0.0,390.0,3.0,0.0
5925,78.0,46.0,60.0,1.0,0.0
5926,76.0,2.0,60.0,1.0,0.0
5927,40.0,0.0,150.0,4.0,0.0
5928,75.0,96.0,30.0,1.0,0.0
5929,59.0,0.0,150.0,2.0,0.0
5930,56.0,192.0,150.0,3.0,0.0
5931,76.0,32.0,30.0,1.0,0.0
5932,57.0,0.0,150.0,3.0,0.0
5933,45.0,48.0,300.0,4.0,0.0
5934,61.0,0.0,150.0,2.0,0.0
5935,69.0,128.0,150.0,1.0,0.0
5936,61.0,30.0,150.0,2.0,0.0
5937,52.0,0.0,150.0,3.0,0.0
5938,47.0,16.0,60.0,4.0,0.0
5939,45.0,34.0,60.0,4.0,0.0
5940,44.0,96.0,30.0,4.0,0.0
5941,52.0,80.0,150.0,3.0,0.0
5942,61.0,0.0,150.0,2.0,0.0
5943,45.0,32.0,30.0,4.0,0.0
5944,62.0,0.0,540.0,2.0,0.0
5945,53.0,48.0,570.0,3.0,0.0
5946,45.0,46.0,540.0,4.0,0.0
5947,69.0,48.0,60.0,1.0,0.0
5948,68.0,48.0,60.0,1.0,0.0
5949,66.0,48.0,60.0,1.0,0.0
5950,68.0,48.0,60.0,1.0,0.0
5951,69.0,48.0,60.0,1.0,0.0
5952,68.0,48.0,60.0,1.0,0.0
5953,66.0,48.0,60.0,1.0,0.0
5954,68.0,48.0,60.0,1.0,0.0
5955,69.0,48.0,60.0,1.0,0.0
5956,68.0,48.0,60.0,1.0,0.0
5957,66.0,0.0,60.0,1.0,0.0
5958,68.0,2.0,60.0,1.0,0.0
5959,52.0,48.0,570.0,3.0,0.0
5960,61.0,0.0,60.0,2.0,0.0
5961,45.0,48.0,300.0,4.0,0.0
5962,69.0,192.0,60.0,1.0,0.0
5963,73.0,0.0,60.0,1.0,0.0
5964,69.0,48.0,60.0,2.0,0.0
5965,47.0,46.0,60.0,4.0,0.0
5966,45.0,34.0,60.0,4.0,0.0
5967,69.0,0.0,60.0,2.0,0.0
5968,73.0,80.0,60.0,1.0,0.0
5969,44.0,16.0,30.0,4.0,0.0
5970,45.0,64.0,30.0,4.0,0.0
5971,69.0,48.0,60.0,2.0,0.0
5972,74.0,160.0,570.0,1.0,0.0
5973,53.0,0.0,570.0,3.0,0.0
5974,45.0,0.0,750.0,4.0,0.0
5975,68.0,48.0,60.0,2.0,0.0
5976,66.0,48.0,60.0,2.0,0.0
5977,68.0,48.0,60.0,2.0,0.0
5978,69.0,48.0,60.0,2.0,0.0
5979,68.0,48.0,60.0,2.0,0.0
5980,66.0,48.0,60.0,2.0,0.0
5981,68.0,48.0,60.0,2.0,0.0
5982,69.0,48.0,60.0,2.0,0.0
5983,68.0,48.0,60.0,2.0,0.0
5984,66.0,46.0,60.0,2.0,0.0
5985,68.0,2.0,60.0,2.0,0.0
5986,73.0,80.0,150.0,1.0,0.0
5987,52.0,0.0,150.0,3.0,0.0
5988,69.0,0.0,150.0,2.0,0.0
5989,69.0,96.0,60.0,3.0,0.0
5990,74.0,0.0,60.0,2.0,0.0
5991,77.0,46.0,60.0,1.0,0.0
5992,73.0,0.0,60.0,2.0,0.0
5993,76.0,34.0,60.0,1.0,0.0
5994,74.0,0.0,30.0,1.0,0.0
5995,69.0,80.0,60.0,3.0,0.0
5996,71.0,16.0,30.0,2.0,0.0
5997,76.0,0.0,30.0,1.0,0.0
5998,73.0,112.0,30.0,2.0,0.0
5999,74.0,160.0,570.0,2.0,0.0
6000,69.0,48.0,60.0,3.0,0.0
6001,77.0,0.0,570.0,1.0,0.0
6002,68.0,48.0,60.0,3.0,0.0
6003,66.0,48.0,60.0,3.0,0.0
6004,68.0,48.0,60.0,3.0,0.0
6005,69.0,48.0,60.0,3.0,0.0
6006,68.0,48.0,60.0,3.0,0.0
6007,66.0,48.0,60.0,3.0,0.0
6008,68.0,48.0,60.0,3.0,0.0
6009,69.0,48.0,60.0,3.0,0.0
6010,68.0,48.0,60.0,3.0,0.0
6011,66.0,46.0,60.0,3.0,0.0
6012,68.0,2.0,60.0,3.0,0.0
6013,76.0,0.0,150.0,1.0,0.0
6014,73.0,32.0,150.0,2.0,0.0
6015,69.0,144.0,180.0,3.0,0.0
6016,76.0,30.0,150.0,3.0,0.0
6017,45.0,0.0,150.0,4.0,0.0
6018,86.0,16.0,60.0,1.0,0.0
6019,83.0,0.0,60.0,2.0,0.0
6020,85.0,34.0,60.0,1.0,0.0
6021,81.0,0.0,60.0,2.0,0.0
6022,45.0,80.0,150.0,4.0,0.0
6023,83.0,0.0,30.0,1.0,0.0
6024,76.0,80.0,60.0,3.0,0.0
6025,80.0,16.0,30.0,2.0,0.0
6026,85.0,0.0,30.0,1.0,0.0
6027,81.0,32.0,30.0,2.0,0.0
6028,86.0,0.0,540.0,1.0,0.0
6029,45.0,48.0,60.0,4.0,0.0
6030,77.0,0.0,540.0,3.0,0.0
6031,83.0,0.0,540.0,2.0,0.0
6032,44.0,48.0,60.0,4.0,0.0
6033,42.0,48.0,60.0,4.0,0.0
6034,44.0,48.0,60.0,4.0,0.0
6035,45.0,48.0,60.0,4.0,0.0
6036,44.0,48.0,60.0,4.0,0.0
6037,42.0,48.0,60.0,4.0,0.0
6038,44.0,48.0,60.0,4.0,0.0
6039,45.0,48.0,60.0,4.0,0.0
6040,44.0,48.0,60.0,4.0,0.0
6041,42.0,46.0,60.0,4.0,0.0
6042,44.0,98.0,60.0,4.0,0.0
6043,45.0,0.0,150.0,4.0,0.0
6044,76.0,0.0,150.0,3.0,0.0
6045,85.0,48.0,90.0,1.0,0.0
6046,81.0,30.0,150.0,2.0,0.0
6047,86.0,16.0,60.0,1.0,0.0
6048,85.0,34.0,60.0,1.0,0.0
6049,84.0,96.0,30.0,1.0,0.0
6050,85.0,96.0,30.0,1.0,0.0
6051,56.0,0.0,30.0,4.0,0.0
6052,68.0,0.0,30.0,3.0,0.0
6053,80.0,96.0,30.0,1.0,0.0
6054,81.0,160.0,30.0,1.0,0.0
6055,69.0,0.0,30.0,3.0,0.0
6056,57.0,0.0,30.0,4.0,0.0
6057,76.0,48.0,90.0,1.0,0.0
6058,64.0,30.0,150.0,3.0,0.0
6059,52.0,0.0,150.0,4.0,0.0
6060,78.0,16.0,60.0,1.0,0.0
6061,76.0,34.0,60.0,1.0,0.0
6062,75.0,96.0,30.0,1.0,0.0
6063,76.0,96.0,30.0,1.0,0.0
6064,48.0,0.0,30.0,4.0,0.0
6065,60.0,0.0,30.0,3.0,0.0
6066,72.0,96.0,30.0,1.0,0.0
6067,49.0,0.0,30.0,4.0,0.0
6068,61.0,0.0,30.0,3.0,0.0
6069,73.0,160.0,30.0,1.0,0.0
6070,57.0,0.0,150.0,3.0,0.0
6071,45.0,30.0,150.0,4.0,0.0
6072,69.0,48.0,90.0,1.0,0.0
6073,71.0,16.0,60.0,1.0,0.0
6074,69.0,34.0,60.0,1.0,0.0
6075,68.0,96.0,30.0,1.0,0.0
6076,69.0,96.0,30.0,1.0,0.0
6077,52.0,0.0,30.0,3.0,0.0
6078,64.0,0.0,30.0,1.0,0.0
6079,40.0,96.0,30.0,4.0,0.0
6080,44.0,0.0,30.0,4.0,0.0
6081,56.0,112.0,30.0,3.0,0.0
6082,68.0,0.0,30.0,1.0,0.0
6083,45.0,0.0,60.0,4.0,0.0
6084,57.0,0.0,60.0,3.0,0.0
6085,69.0,192.0,60.0,1.0,0.0
6086,45.0,0.0,60.0,4.0,0.0
6087,69.0,0.0,60.0,2.0,0.0
6088,57.0,0.0,60.0,3.0,0.0
6089,61.0,0.0,60.0,2.0,0.0
6090,73.0,1056.0,60.0,1.0,0.0
6091,81.0,0.0,60.0,1.0,0.0
6092,74.0,0.0,720.0,1.0,0.0
