,note,step,duration,channel,velocity
0,72.0,58.0,60.0,0.0,0.0
1,71.0,69.0,60.0,0.0,0.0
2,72.0,46.0,60.0,0.0,0.0
3,71.0,73.0,60.0,0.0,0.0
4,72.0,49.0,60.0,0.0,0.0
5,67.0,53.0,60.0,0.0,0.0
6,70.0,76.0,60.0,0.0,0.0
7,68.0,43.0,60.0,0.0,0.0
8,41.0,78.0,60.0,0.0,0.0
9,65.0,28.0,150.0,0.0,0.0
10,48.0,16.0,60.0,0.0,0.0
11,53.0,50.0,60.0,0.0,0.0
12,56.0,64.0,60.0,0.0,0.0
13,60.0,60.0,60.0,0.0,0.0
14,65.0,55.0,60.0,0.0,0.0
15,67.0,2.0,60.0,0.0,0.0
16,36.0,56.0,60.0,0.0,0.0
17,48.0,53.0,60.0,0.0,0.0
18,52.0,75.0,60.0,0.0,0.0
19,60.0,47.0,90.0,0.0,0.0
20,64.0,64.0,60.0,0.0,0.0
21,67.0,75.0,60.0,0.0,0.0
22,41.0,11.0,60.0,0.0,0.0
23,68.0,56.0,90.0,0.0,0.0
24,48.0,47.0,60.0,0.0,0.0
25,53.0,70.0,60.0,0.0,0.0
26,60.0,64.0,60.0,0.0,0.0
27,72.0,54.0,60.0,0.0,0.0
28,71.0,73.0,60.0,0.0,0.0
29,72.0,44.0,60.0,0.0,0.0
30,71.0,73.0,60.0,0.0,0.0
31,72.0,56.0,60.0,0.0,0.0
32,67.0,42.0,90.0,0.0,0.0
33,70.0,68.0,60.0,0.0,0.0
34,68.0,48.0,60.0,0.0,0.0
35,65.0,35.0,150.0,0.0,0.0
36,41.0,64.0,60.0,0.0,0.0
37,48.0,30.0,60.0,0.0,0.0
38,53.0,55.0,60.0,0.0,0.0
39,56.0,55.0,60.0,0.0,0.0
40,60.0,51.0,60.0,0.0,0.0
41,65.0,54.0,40.0,0.0,0.0
42,67.0,40.0,60.0,0.0,0.0
43,36.0,25.0,40.0,0.0,0.0
44,48.0,69.0,60.0,0.0,0.0
45,52.0,74.0,60.0,0.0,0.0
46,60.0,44.0,90.0,0.0,0.0
47,68.0,58.0,60.0,0.0,0.0
48,67.0,82.0,60.0,0.0,0.0
49,65.0,2.0,60.0,0.0,0.0
50,41.0,71.0,60.0,0.0,0.0
51,48.0,149.0,60.0,0.0,0.0
52,53.0,45.0,150.0,0.0,0.0
53,72.0,59.0,60.0,0.0,0.0
54,71.0,65.0,60.0,0.0,0.0
55,72.0,55.0,60.0,0.0,0.0
56,71.0,57.0,60.0,0.0,0.0
57,72.0,71.0,60.0,0.0,0.0
58,67.0,40.0,60.0,0.0,0.0
59,70.0,76.0,60.0,0.0,0.0
60,68.0,45.0,60.0,0.0,0.0
61,65.0,54.0,120.0,0.0,0.0
62,41.0,63.0,60.0,0.0,0.0
63,48.0,1.0,60.0,0.0,0.0
64,53.0,61.0,60.0,0.0,0.0
65,56.0,59.0,60.0,0.0,0.0
66,60.0,50.0,60.0,0.0,0.0
67,65.0,46.0,60.0,0.0,0.0
68,67.0,57.0,120.0,0.0,0.0
69,36.0,62.0,40.0,0.0,0.0
70,48.0,11.0,40.0,0.0,0.0
71,52.0,74.0,60.0,0.0,0.0
72,60.0,43.0,60.0,0.0,0.0
73,64.0,52.0,60.0,0.0,0.0
74,67.0,65.0,60.0,0.0,0.0
75,68.0,2.0,120.0,0.0,0.0
76,41.0,58.0,60.0,0.0,0.0
77,48.0,60.0,60.0,0.0,0.0
78,53.0,71.0,60.0,0.0,0.0
79,60.0,64.0,60.0,0.0,0.0
80,72.0,50.0,60.0,0.0,0.0
81,71.0,67.0,60.0,0.0,0.0
82,72.0,44.0,60.0,0.0,0.0
83,71.0,71.0,60.0,0.0,0.0
84,72.0,73.0,60.0,0.0,0.0
85,67.0,41.0,90.0,0.0,0.0
86,70.0,69.0,60.0,0.0,0.0
87,68.0,54.0,60.0,0.0,0.0
88,65.0,4.0,120.0,0.0,0.0
89,41.0,60.0,60.0,0.0,0.0
90,48.0,56.0,60.0,0.0,0.0
91,53.0,62.0,60.0,0.0,0.0
92,56.0,59.0,60.0,0.0,0.0
93,60.0,45.0,60.0,0.0,0.0
94,65.0,50.0,60.0,0.0,0.0
95,36.0,73.0,40.0,0.0,0.0
96,67.0,56.0,120.0,0.0,0.0
97,48.0,1.0,60.0,0.0,0.0
98,52.0,77.0,60.0,0.0,0.0
99,60.0,51.0,60.0,0.0,0.0
100,68.0,64.0,60.0,0.0,0.0
101,67.0,73.0,60.0,0.0,0.0
102,41.0,5.0,60.0,0.0,0.0
103,65.0,70.0,60.0,0.0,0.0
104,48.0,31.0,60.0,0.0,0.0
105,53.0,98.0,40.0,0.0,0.0
106,67.0,57.0,90.0,0.0,0.0
107,68.0,50.0,90.0,0.0,0.0
108,70.0,57.0,60.0,0.0,0.0
109,72.0,31.0,120.0,0.0,0.0
110,44.0,53.0,60.0,0.0,0.0
111,51.0,61.0,90.0,0.0,0.0
112,56.0,57.0,90.0,0.0,0.0
113,63.0,50.0,90.0,0.0,0.0
114,73.0,52.0,90.0,0.0,0.0
115,72.0,42.0,60.0,0.0,0.0
116,70.0,46.0,120.0,0.0,0.0
117,39.0,61.0,60.0,0.0,0.0
118,51.0,4.0,60.0,0.0,0.0
119,55.0,102.0,40.0,0.0,0.0
120,61.0,48.0,90.0,0.0,0.0
121,72.0,56.0,60.0,0.0,0.0
122,70.0,67.0,60.0,0.0,0.0
123,68.0,13.0,120.0,0.0,0.0
124,41.0,43.0,60.0,0.0,0.0
125,48.0,61.0,60.0,0.0,0.0
126,53.0,71.0,60.0,0.0,0.0
127,60.0,37.0,90.0,0.0,0.0
128,70.0,74.0,60.0,0.0,0.0
129,68.0,57.0,60.0,0.0,0.0
130,67.0,93.0,150.0,0.0,0.0
131,36.0,66.0,60.0,0.0,0.0
132,48.0,17.0,60.0,0.0,0.0
133,60.0,41.0,90.0,0.0,0.0
134,72.0,80.0,40.0,0.0,0.0
135,60.0,55.0,40.0,0.0,0.0
136,72.0,99.0,30.0,0.0,0.0
137,72.0,47.0,60.0,0.0,0.0
138,84.0,112.0,40.0,0.0,0.0
139,71.0,82.0,60.0,0.0,0.0
140,72.0,93.0,60.0,0.0,0.0
141,71.0,101.0,90.0,0.0,0.0
142,72.0,76.0,120.0,0.0,0.0
143,71.0,116.0,90.0,0.0,0.0
144,72.0,87.0,120.0,0.0,0.0
145,71.0,96.0,90.0,0.0,0.0
146,72.0,75.0,90.0,0.0,0.0
147,71.0,75.0,60.0,0.0,0.0
148,72.0,53.0,90.0,0.0,0.0
149,71.0,84.0,60.0,0.0,0.0
150,72.0,75.0,90.0,0.0,0.0
151,67.0,44.0,90.0,0.0,0.0
152,70.0,73.0,60.0,0.0,0.0
153,68.0,53.0,90.0,0.0,0.0
154,65.0,2.0,120.0,0.0,0.0
155,41.0,62.0,60.0,0.0,0.0
156,48.0,28.0,60.0,0.0,0.0
157,53.0,84.0,30.0,0.0,0.0
158,56.0,53.0,60.0,0.0,0.0
159,60.0,54.0,60.0,0.0,0.0
160,65.0,45.0,60.0,0.0,0.0
161,67.0,51.0,120.0,0.0,0.0
162,36.0,69.0,40.0,0.0,0.0
163,48.0,7.0,60.0,0.0,0.0
164,52.0,73.0,60.0,0.0,0.0
165,60.0,45.0,60.0,0.0,0.0
166,64.0,52.0,60.0,0.0,0.0
167,67.0,65.0,60.0,0.0,0.0
168,68.0,6.0,120.0,0.0,0.0
169,41.0,62.0,60.0,0.0,0.0
170,48.0,63.0,60.0,0.0,0.0
171,53.0,62.0,60.0,0.0,0.0
172,60.0,66.0,60.0,0.0,0.0
173,72.0,62.0,60.0,0.0,0.0
174,71.0,68.0,60.0,0.0,0.0
175,72.0,40.0,90.0,0.0,0.0
176,71.0,67.0,60.0,0.0,0.0
177,72.0,66.0,60.0,0.0,0.0
178,67.0,42.0,60.0,0.0,0.0
179,70.0,68.0,60.0,0.0,0.0
180,68.0,59.0,60.0,0.0,0.0
181,65.0,31.0,150.0,0.0,0.0
182,41.0,52.0,60.0,0.0,0.0
183,48.0,34.0,60.0,0.0,0.0
184,53.0,80.0,60.0,0.0,0.0
185,56.0,50.0,90.0,0.0,0.0
186,60.0,49.0,60.0,0.0,0.0
187,65.0,48.0,60.0,0.0,0.0
188,36.0,63.0,40.0,0.0,0.0
189,67.0,58.0,120.0,0.0,0.0
190,48.0,12.0,60.0,0.0,0.0
191,52.0,79.0,60.0,0.0,0.0
192,60.0,53.0,90.0,0.0,0.0
193,68.0,61.0,60.0,0.0,0.0
194,67.0,97.0,60.0,0.0,0.0
195,41.0,60.0,90.0,0.0,0.0
196,65.0,34.0,180.0,0.0,0.0
197,48.0,35.0,60.0,0.0,0.0
198,53.0,72.0,60.0,0.0,0.0
199,56.0,21.0,40.0,0.0,0.0
200,68.0,18.0,60.0,0.0,0.0
201,60.0,2.0,40.0,0.0,0.0
202,54.0,37.0,60.0,0.0,0.0
203,61.0,8.0,30.0,0.0,0.0
204,68.0,71.0,60.0,0.0,0.0
205,53.0,3.0,60.0,0.0,0.0
206,56.0,18.0,40.0,0.0,0.0
207,68.0,0.0,60.0,0.0,0.0
208,60.0,0.0,60.0,0.0,0.0
209,56.0,0.0,60.0,0.0,0.0
210,51.0,0.0,60.0,0.0,0.0
211,63.0,0.0,60.0,0.0,0.0
212,54.0,35.0,60.0,0.0,0.0
213,61.0,25.0,30.0,0.0,0.0
214,65.0,81.0,30.0,0.0,0.0
215,68.0,1.0,90.0,0.0,0.0
216,49.0,31.0,90.0,0.0,0.0
217,53.0,38.0,60.0,0.0,0.0
218,56.0,42.0,60.0,0.0,0.0
219,53.0,48.0,40.0,0.0,0.0
220,56.0,42.0,60.0,0.0,0.0
221,73.0,5.0,40.0,0.0,0.0
222,53.0,64.0,60.0,0.0,0.0
223,72.0,3.0,15.0,0.0,0.0
224,72.0,3.0,90.0,0.0,0.0
225,49.0,38.0,60.0,0.0,0.0
226,54.0,43.0,60.0,0.0,0.0
227,70.0,25.0,60.0,0.0,0.0
228,58.0,17.0,40.0,0.0,0.0
229,54.0,25.0,40.0,0.0,0.0
230,78.0,25.0,20.0,0.0,0.0
231,58.0,42.0,40.0,0.0,0.0
232,54.0,58.0,60.0,0.0,0.0
233,77.0,6.0,15.0,0.0,0.0
234,77.0,26.0,60.0,0.0,0.0
235,49.0,19.0,60.0,0.0,0.0
236,60.0,5.0,40.0,0.0,0.0
237,75.0,26.0,60.0,0.0,0.0
238,73.0,28.0,60.0,0.0,0.0
239,54.0,2.0,40.0,0.0,0.0
240,49.0,14.0,30.0,0.0,0.0
241,51.0,15.0,40.0,0.0,0.0
242,72.0,25.0,60.0,0.0,0.0
243,60.0,26.0,40.0,0.0,0.0
244,51.0,0.0,40.0,0.0,0.0
245,70.0,2.0,40.0,0.0,0.0
246,54.0,29.0,40.0,0.0,0.0
247,49.0,2.0,40.0,0.0,0.0
248,60.0,47.0,20.0,0.0,0.0
249,68.0,31.0,60.0,0.0,0.0
250,66.0,1.0,90.0,0.0,0.0
251,49.0,49.0,60.0,0.0,0.0
252,53.0,30.0,40.0,0.0,0.0
253,65.0,20.0,30.0,0.0,0.0
254,56.0,34.0,40.0,0.0,0.0
255,53.0,35.0,30.0,0.0,0.0
256,66.0,13.0,20.0,0.0,0.0
257,56.0,3.0,60.0,0.0,0.0
258,65.0,16.0,20.0,0.0,0.0
259,63.0,31.0,20.0,0.0,0.0
260,65.0,17.0,30.0,0.0,0.0
261,53.0,11.0,40.0,0.0,0.0
262,66.0,41.0,30.0,0.0,0.0
263,49.0,58.0,40.0,0.0,0.0
264,68.0,7.0,150.0,0.0,0.0
265,53.0,45.0,60.0,0.0,0.0
266,56.0,35.0,60.0,0.0,0.0
267,53.0,58.0,40.0,0.0,0.0
268,70.0,19.0,60.0,0.0,0.0
269,56.0,9.0,60.0,0.0,0.0
270,53.0,42.0,20.0,0.0,0.0
271,71.0,96.0,60.0,0.0,0.0
272,72.0,20.0,120.0,0.0,0.0
273,48.0,4.0,150.0,0.0,0.0
274,53.0,17.0,60.0,0.0,0.0
275,56.0,52.0,40.0,0.0,0.0
276,53.0,9.0,40.0,0.0,0.0
277,72.0,48.0,60.0,0.0,0.0
278,46.0,11.0,60.0,0.0,0.0
279,58.0,8.0,40.0,0.0,0.0
280,73.0,43.0,60.0,0.0,0.0
281,65.0,38.0,60.0,0.0,0.0
282,49.0,1.0,60.0,0.0,0.0
283,51.0,51.0,40.0,0.0,0.0
284,68.0,31.0,120.0,0.0,0.0
285,60.0,11.0,40.0,0.0,0.0
286,51.0,30.0,40.0,0.0,0.0
287,70.0,10.0,30.0,0.0,0.0
288,60.0,3.0,30.0,0.0,0.0
289,68.0,20.0,20.0,0.0,0.0
290,67.0,20.0,20.0,0.0,0.0
291,68.0,51.0,20.0,0.0,0.0
292,70.0,21.0,60.0,0.0,0.0
293,51.0,4.0,60.0,0.0,0.0
294,61.0,3.0,15.0,0.0,0.0
295,67.0,43.0,20.0,0.0,0.0
296,68.0,35.0,30.0,0.0,0.0
297,56.0,3.0,90.0,0.0,0.0
298,60.0,5.0,60.0,0.0,0.0
299,75.0,15.0,30.0,0.0,0.0
300,63.0,33.0,30.0,0.0,0.0
301,75.0,22.0,30.0,0.0,0.0
302,65.0,35.0,30.0,0.0,0.0
303,75.0,9.0,40.0,0.0,0.0
304,63.0,6.0,20.0,0.0,0.0
305,61.0,0.0,30.0,0.0,0.0
306,67.0,32.0,30.0,0.0,0.0
307,75.0,11.0,30.0,0.0,0.0
308,68.0,34.0,30.0,0.0,0.0
309,60.0,11.0,15.0,0.0,0.0
310,63.0,1.0,15.0,0.0,0.0
311,75.0,11.0,30.0,0.0,0.0
312,70.0,34.0,30.0,0.0,0.0
313,58.0,11.0,15.0,0.0,0.0
314,63.0,1.0,15.0,0.0,0.0
315,75.0,38.0,30.0,0.0,0.0
316,56.0,5.0,60.0,0.0,0.0
317,60.0,11.0,60.0,0.0,0.0
318,63.0,12.0,40.0,0.0,0.0
319,72.0,9.0,30.0,0.0,0.0
320,75.0,33.0,40.0,0.0,0.0
321,80.0,31.0,40.0,0.0,0.0
322,79.0,38.0,40.0,0.0,0.0
323,53.0,5.0,90.0,0.0,0.0
324,77.0,13.0,40.0,0.0,0.0
325,49.0,14.0,120.0,0.0,0.0
326,75.0,29.0,30.0,0.0,0.0
327,73.0,11.0,40.0,0.0,0.0
328,72.0,25.0,40.0,0.0,0.0
329,55.0,4.0,120.0,0.0,0.0
330,70.0,32.0,30.0,0.0,0.0
331,51.0,23.0,120.0,0.0,0.0
332,75.0,23.0,40.0,0.0,0.0
333,73.0,26.0,30.0,0.0,0.0
334,70.0,5.0,40.0,0.0,0.0
335,68.0,42.0,30.0,0.0,0.0
336,56.0,1.0,90.0,0.0,0.0
337,75.0,20.0,40.0,0.0,0.0
338,63.0,34.0,30.0,0.0,0.0
339,75.0,20.0,30.0,0.0,0.0
340,65.0,40.0,30.0,0.0,0.0
341,75.0,13.0,40.0,0.0,0.0
342,61.0,38.0,30.0,0.0,0.0
343,63.0,1.0,30.0,0.0,0.0
344,67.0,2.0,30.0,0.0,0.0
345,75.0,16.0,40.0,0.0,0.0
346,63.0,1.0,30.0,0.0,0.0
347,68.0,4.0,30.0,0.0,0.0
348,60.0,36.0,30.0,0.0,0.0
349,75.0,14.0,40.0,0.0,0.0
350,58.0,1.0,30.0,0.0,0.0
351,70.0,4.0,30.0,0.0,0.0
352,63.0,42.0,30.0,0.0,0.0
353,75.0,33.0,40.0,0.0,0.0
354,63.0,19.0,40.0,0.0,0.0
355,72.0,0.0,40.0,0.0,0.0
356,60.0,14.0,60.0,0.0,0.0
357,56.0,3.0,60.0,0.0,0.0
358,75.0,30.0,40.0,0.0,0.0
359,80.0,39.0,40.0,0.0,0.0
360,79.0,40.0,40.0,0.0,0.0
361,77.0,10.0,60.0,0.0,0.0
362,49.0,4.0,120.0,0.0,0.0
363,53.0,14.0,120.0,0.0,0.0
364,75.0,35.0,30.0,0.0,0.0
365,73.0,12.0,40.0,0.0,0.0
366,72.0,23.0,40.0,0.0,0.0
367,55.0,9.0,120.0,0.0,0.0
368,70.0,41.0,30.0,0.0,0.0
369,51.0,1.0,120.0,0.0,0.0
370,75.0,28.0,40.0,0.0,0.0
371,73.0,18.0,40.0,0.0,0.0
372,70.0,42.0,30.0,0.0,0.0
373,72.0,38.0,30.0,0.0,0.0
374,52.0,37.0,210.0,0.0,0.0
375,55.0,2.0,180.0,0.0,0.0
376,73.0,36.0,40.0,0.0,0.0
377,72.0,24.0,40.0,0.0,0.0
378,71.0,41.0,30.0,0.0,0.0
379,72.0,26.0,40.0,0.0,0.0
380,67.0,4.0,30.0,0.0,0.0
381,72.0,41.0,40.0,0.0,0.0
382,71.0,34.0,40.0,0.0,0.0
383,72.0,25.0,40.0,0.0,0.0
384,67.0,48.0,30.0,0.0,0.0
385,72.0,62.0,40.0,0.0,0.0
386,71.0,240.0,60.0,0.0,0.0
387,72.0,75.0,240.0,0.0,0.0
388,67.0,67.0,60.0,0.0,0.0
389,72.0,84.0,60.0,0.0,0.0
390,71.0,275.0,90.0,0.0,0.0
391,72.0,95.0,270.0,0.0,0.0
392,67.0,127.0,90.0,0.0,0.0
393,72.0,110.0,120.0,0.0,0.0
394,71.0,36.0,120.0,0.0,0.0
395,72.0,116.0,60.0,0.0,0.0
396,71.0,51.0,90.0,0.0,0.0
397,72.0,192.0,60.0,0.0,0.0
398,71.0,57.0,150.0,0.0,0.0
399,72.0,123.0,90.0,0.0,0.0
400,71.0,94.0,90.0,0.0,0.0
401,72.0,66.0,90.0,0.0,0.0
402,71.0,78.0,90.0,0.0,0.0
403,72.0,96.0,90.0,0.0,0.0
404,67.0,17.0,120.0,0.0,0.0
405,70.0,85.0,60.0,0.0,0.0
406,68.0,55.0,90.0,0.0,0.0
407,65.0,29.0,150.0,0.0,0.0
408,41.0,70.0,60.0,0.0,0.0
409,48.0,12.0,60.0,0.0,0.0
410,53.0,56.0,60.0,0.0,0.0
411,56.0,54.0,60.0,0.0,0.0
412,60.0,56.0,60.0,0.0,0.0
413,65.0,44.0,60.0,0.0,0.0
414,67.0,47.0,120.0,0.0,0.0
415,36.0,60.0,40.0,0.0,0.0
416,48.0,18.0,40.0,0.0,0.0
417,52.0,65.0,60.0,0.0,0.0
418,60.0,37.0,60.0,0.0,0.0
419,64.0,53.0,60.0,0.0,0.0
420,67.0,77.0,60.0,0.0,0.0
421,41.0,47.0,60.0,0.0,0.0
422,68.0,41.0,120.0,0.0,0.0
423,48.0,29.0,90.0,0.0,0.0
424,53.0,48.0,60.0,0.0,0.0
425,60.0,71.0,60.0,0.0,0.0
426,72.0,64.0,60.0,0.0,0.0
427,71.0,76.0,60.0,0.0,0.0
428,72.0,35.0,90.0,0.0,0.0
429,71.0,63.0,60.0,0.0,0.0
430,72.0,64.0,60.0,0.0,0.0
431,67.0,41.0,60.0,0.0,0.0
432,70.0,67.0,60.0,0.0,0.0
433,68.0,55.0,60.0,0.0,0.0
434,65.0,71.0,60.0,0.0,0.0
435,41.0,8.0,60.0,0.0,0.0
436,48.0,45.0,60.0,0.0,0.0
437,53.0,48.0,60.0,0.0,0.0
438,56.0,56.0,60.0,0.0,0.0
439,60.0,42.0,60.0,0.0,0.0
440,65.0,44.0,60.0,0.0,0.0
441,36.0,47.0,40.0,0.0,0.0
442,67.0,4.0,90.0,0.0,0.0
443,48.0,71.0,40.0,0.0,0.0
444,52.0,62.0,60.0,0.0,0.0
445,60.0,44.0,60.0,0.0,0.0
446,68.0,56.0,60.0,0.0,0.0
447,67.0,60.0,60.0,0.0,0.0
448,65.0,56.0,90.0,0.0,0.0
449,41.0,22.0,60.0,0.0,0.0
450,48.0,26.0,60.0,0.0,0.0
451,53.0,89.0,40.0,0.0,0.0
452,67.0,46.0,90.0,0.0,0.0
453,68.0,50.0,60.0,0.0,0.0
454,70.0,52.0,60.0,0.0,0.0
455,72.0,11.0,120.0,0.0,0.0
456,44.0,62.0,60.0,0.0,0.0
457,51.0,32.0,60.0,0.0,0.0
458,56.0,69.0,60.0,0.0,0.0
459,63.0,58.0,90.0,0.0,0.0
460,73.0,46.0,90.0,0.0,0.0
461,72.0,35.0,60.0,0.0,0.0
462,39.0,54.0,40.0,0.0,0.0
463,70.0,51.0,120.0,0.0,0.0
464,51.0,20.0,40.0,0.0,0.0
465,55.0,55.0,60.0,0.0,0.0
466,61.0,52.0,60.0,0.0,0.0
467,72.0,51.0,60.0,0.0,0.0
468,70.0,73.0,60.0,0.0,0.0
469,68.0,26.0,150.0,0.0,0.0
470,41.0,64.0,60.0,0.0,0.0
471,48.0,19.0,60.0,0.0,0.0
472,53.0,65.0,60.0,0.0,0.0
473,60.0,56.0,60.0,0.0,0.0
474,70.0,91.0,60.0,0.0,0.0
475,68.0,37.0,90.0,0.0,0.0
476,67.0,11.0,150.0,0.0,0.0
477,36.0,76.0,60.0,0.0,0.0
478,48.0,19.0,60.0,0.0,0.0
479,60.0,95.0,30.0,0.0,0.0
480,60.0,64.0,60.0,0.0,0.0
481,72.0,57.0,60.0,0.0,0.0
482,60.0,51.0,60.0,0.0,0.0
483,72.0,114.0,40.0,0.0,0.0
484,72.0,49.0,90.0,0.0,0.0
485,84.0,114.0,60.0,0.0,0.0
486,71.0,96.0,90.0,0.0,0.0
487,72.0,127.0,90.0,0.0,0.0
488,71.0,70.0,90.0,0.0,0.0
489,72.0,104.0,60.0,0.0,0.0
490,71.0,75.0,90.0,0.0,0.0
491,72.0,100.0,90.0,0.0,0.0
492,71.0,97.0,90.0,0.0,0.0
493,72.0,72.0,90.0,0.0,0.0
494,71.0,66.0,60.0,0.0,0.0
495,72.0,49.0,60.0,0.0,0.0
496,71.0,75.0,60.0,0.0,0.0
497,72.0,70.0,60.0,0.0,0.0
498,67.0,62.0,90.0,0.0,0.0
499,70.0,77.0,90.0,0.0,0.0
500,68.0,47.0,90.0,0.0,0.0
501,65.0,44.0,90.0,0.0,0.0
502,41.0,26.0,60.0,0.0,0.0
503,48.0,39.0,60.0,0.0,0.0
504,53.0,61.0,40.0,0.0,0.0
505,56.0,59.0,40.0,0.0,0.0
506,60.0,50.0,60.0,0.0,0.0
507,65.0,42.0,60.0,0.0,0.0
508,36.0,64.0,40.0,0.0,0.0
509,67.0,43.0,120.0,0.0,0.0
510,48.0,18.0,40.0,0.0,0.0
511,52.0,70.0,60.0,0.0,0.0
512,60.0,39.0,60.0,0.0,0.0
513,64.0,49.0,60.0,0.0,0.0
514,67.0,80.0,60.0,0.0,0.0
515,68.0,38.0,150.0,0.0,0.0
516,41.0,52.0,60.0,0.0,0.0
517,48.0,27.0,60.0,0.0,0.0
518,53.0,44.0,60.0,0.0,0.0
519,60.0,87.0,60.0,0.0,0.0
520,72.0,56.0,60.0,0.0,0.0
521,71.0,74.0,60.0,0.0,0.0
522,72.0,40.0,90.0,0.0,0.0
523,71.0,59.0,60.0,0.0,0.0
524,72.0,65.0,60.0,0.0,0.0
525,67.0,33.0,90.0,0.0,0.0
526,70.0,60.0,60.0,0.0,0.0
527,68.0,60.0,60.0,0.0,0.0
528,65.0,38.0,120.0,0.0,0.0
529,41.0,50.0,60.0,0.0,0.0
530,48.0,9.0,60.0,0.0,0.0
531,53.0,45.0,60.0,0.0,0.0
532,56.0,69.0,40.0,0.0,0.0
533,60.0,44.0,60.0,0.0,0.0
534,65.0,50.0,60.0,0.0,0.0
535,67.0,8.0,150.0,0.0,0.0
536,36.0,65.0,40.0,0.0,0.0
537,48.0,42.0,60.0,0.0,0.0
538,52.0,81.0,40.0,0.0,0.0
539,60.0,39.0,90.0,0.0,0.0
540,68.0,66.0,60.0,0.0,0.0
541,67.0,32.0,60.0,0.0,0.0
542,65.0,13.0,180.0,0.0,0.0
543,41.0,57.0,30.0,0.0,0.0
544,41.0,53.0,20.0,0.0,0.0
545,41.0,41.0,20.0,0.0,0.0
546,41.0,64.0,20.0,0.0,0.0
547,41.0,47.0,30.0,0.0,0.0
548,41.0,63.0,20.0,0.0,0.0
549,69.0,24.0,210.0,0.0,0.0
550,66.0,29.0,150.0,0.0,0.0
551,63.0,9.0,120.0,0.0,0.0
552,60.0,19.0,90.0,0.0,0.0
553,41.0,54.0,30.0,0.0,0.0
554,41.0,22.0,20.0,0.0,0.0
555,41.0,21.0,20.0,0.0,0.0
556,41.0,31.0,20.0,0.0,0.0
557,41.0,53.0,20.0,0.0,0.0
558,41.0,53.0,20.0,0.0,0.0
559,70.0,26.0,90.0,0.0,0.0
560,61.0,2.0,90.0,0.0,0.0
561,65.0,11.0,90.0,0.0,0.0
562,41.0,49.0,20.0,0.0,0.0
563,41.0,14.0,15.0,0.0,0.0
564,41.0,44.0,20.0,0.0,0.0
565,41.0,48.0,15.0,0.0,0.0
566,69.0,8.0,30.0,0.0,0.0
567,72.0,28.0,40.0,0.0,0.0
568,41.0,17.0,15.0,0.0,0.0
569,41.0,12.0,20.0,0.0,0.0
570,70.0,15.0,30.0,0.0,0.0
571,73.0,30.0,40.0,0.0,0.0
572,41.0,55.0,20.0,0.0,0.0
573,73.0,1.0,120.0,0.0,0.0
574,70.0,8.0,120.0,0.0,0.0
575,64.0,1.0,120.0,0.0,0.0
576,41.0,36.0,20.0,0.0,0.0
577,41.0,53.0,15.0,0.0,0.0
578,41.0,60.0,15.0,0.0,0.0
579,41.0,26.0,30.0,0.0,0.0
580,73.0,11.0,60.0,0.0,0.0
581,64.0,0.0,60.0,0.0,0.0
582,70.0,7.0,60.0,0.0,0.0
583,41.0,58.0,20.0,0.0,0.0
584,68.0,7.0,210.0,0.0,0.0
585,72.0,3.0,210.0,0.0,0.0
586,41.0,39.0,30.0,0.0,0.0
587,65.0,4.0,210.0,0.0,0.0
588,41.0,53.0,15.0,0.0,0.0
589,41.0,47.0,20.0,0.0,0.0
590,41.0,37.0,15.0,0.0,0.0
591,41.0,49.0,15.0,0.0,0.0
592,41.0,59.0,15.0,0.0,0.0
593,70.0,0.0,180.0,0.0,0.0
594,61.0,34.0,180.0,0.0,0.0
595,41.0,9.0,20.0,0.0,0.0
596,34.0,45.0,30.0,0.0,0.0
597,41.0,48.0,20.0,0.0,0.0
598,34.0,0.0,20.0,0.0,0.0
599,34.0,40.0,20.0,0.0,0.0
600,41.0,2.0,20.0,0.0,0.0
601,41.0,11.0,20.0,0.0,0.0
602,34.0,2.0,15.0,0.0,0.0
603,34.0,8.0,15.0,0.0,0.0
604,60.0,42.0,60.0,0.0,0.0
605,68.0,0.0,60.0,0.0,0.0
606,41.0,37.0,20.0,0.0,0.0
607,34.0,1.0,15.0,0.0,0.0
608,67.0,0.0,60.0,0.0,0.0
609,58.0,16.0,60.0,0.0,0.0
610,41.0,1.0,15.0,0.0,0.0
611,62.0,5.0,90.0,0.0,0.0
612,56.0,3.0,90.0,0.0,0.0
613,65.0,24.0,90.0,0.0,0.0
614,35.0,11.0,20.0,0.0,0.0
615,41.0,42.0,30.0,0.0,0.0
616,35.0,3.0,20.0,0.0,0.0
617,41.0,9.0,20.0,0.0,0.0
618,35.0,3.0,15.0,0.0,0.0
619,41.0,41.0,20.0,0.0,0.0
620,41.0,50.0,20.0,0.0,0.0
621,35.0,4.0,15.0,0.0,0.0
622,41.0,44.0,20.0,0.0,0.0
623,56.0,5.0,60.0,0.0,0.0
624,65.0,1.0,60.0,0.0,0.0
625,35.0,0.0,20.0,0.0,0.0
626,35.0,1.0,30.0,0.0,0.0
627,41.0,49.0,30.0,0.0,0.0
628,36.0,52.0,20.0,0.0,0.0
629,56.0,3.0,120.0,0.0,0.0
630,41.0,0.0,20.0,0.0,0.0
631,65.0,15.0,90.0,0.0,0.0
632,41.0,0.0,20.0,0.0,0.0
633,36.0,32.0,20.0,0.0,0.0
634,36.0,0.0,15.0,0.0,0.0
635,41.0,44.0,20.0,0.0,0.0
636,60.0,47.0,120.0,0.0,0.0
637,68.0,2.0,120.0,0.0,0.0
638,36.0,46.0,20.0,0.0,0.0
639,41.0,0.0,15.0,0.0,0.0
640,67.0,6.0,120.0,0.0,0.0
641,40.0,1.0,20.0,0.0,0.0
642,58.0,24.0,120.0,0.0,0.0
643,36.0,6.0,20.0,0.0,0.0
644,40.0,3.0,15.0,0.0,0.0
645,36.0,38.0,20.0,0.0,0.0
646,41.0,7.0,30.0,0.0,0.0
647,65.0,1.0,210.0,0.0,0.0
648,29.0,50.0,30.0,0.0,0.0
649,56.0,16.0,210.0,0.0,0.0
650,41.0,49.0,20.0,0.0,0.0
651,41.0,49.0,20.0,0.0,0.0
652,41.0,30.0,20.0,0.0,0.0
653,41.0,46.0,15.0,0.0,0.0
654,41.0,64.0,15.0,0.0,0.0
655,69.0,2.0,210.0,0.0,0.0
656,66.0,0.0,210.0,0.0,0.0
657,63.0,16.0,210.0,0.0,0.0
658,60.0,0.0,210.0,0.0,0.0
659,41.0,49.0,30.0,0.0,0.0
660,41.0,46.0,30.0,0.0,0.0
661,41.0,53.0,30.0,0.0,0.0
662,41.0,33.0,30.0,0.0,0.0
663,41.0,45.0,30.0,0.0,0.0
664,41.0,40.0,30.0,0.0,0.0
665,70.0,3.0,150.0,0.0,0.0
666,61.0,15.0,150.0,0.0,0.0
667,41.0,50.0,15.0,0.0,0.0
668,65.0,0.0,150.0,0.0,0.0
669,41.0,57.0,15.0,0.0,0.0
670,41.0,24.0,30.0,0.0,0.0
671,41.0,41.0,20.0,0.0,0.0
672,41.0,11.0,20.0,0.0,0.0
673,69.0,6.0,30.0,0.0,0.0
674,72.0,33.0,40.0,0.0,0.0
675,41.0,5.0,15.0,0.0,0.0
676,73.0,47.0,30.0,0.0,0.0
677,70.0,8.0,20.0,0.0,0.0
678,41.0,37.0,30.0,0.0,0.0
679,70.0,1.0,180.0,0.0,0.0
680,73.0,23.0,180.0,0.0,0.0
681,41.0,45.0,15.0,0.0,0.0
682,41.0,46.0,15.0,0.0,0.0
683,41.0,26.0,15.0,0.0,0.0
684,41.0,56.0,15.0,0.0,0.0
685,70.0,0.0,90.0,0.0,0.0
686,73.0,47.0,90.0,0.0,0.0
687,41.0,20.0,20.0,0.0,0.0
688,73.0,5.0,180.0,0.0,0.0
689,70.0,35.0,180.0,0.0,0.0
690,42.0,39.0,40.0,0.0,0.0
691,42.0,47.0,15.0,0.0,0.0
692,42.0,41.0,15.0,0.0,0.0
693,42.0,2.0,20.0,0.0,0.0
694,42.0,48.0,15.0,0.0,0.0
695,42.0,57.0,15.0,0.0,0.0
696,42.0,40.0,20.0,0.0,0.0
697,71.0,7.0,60.0,0.0,0.0
698,63.0,37.0,90.0,0.0,0.0
699,42.0,12.0,20.0,0.0,0.0
700,42.0,44.0,20.0,0.0,0.0
701,42.0,48.0,15.0,0.0,0.0
702,42.0,44.0,15.0,0.0,0.0
703,61.0,6.0,60.0,0.0,0.0
704,70.0,0.0,60.0,0.0,0.0
705,42.0,41.0,20.0,0.0,0.0
706,68.0,0.0,60.0,0.0,0.0
707,59.0,16.0,60.0,0.0,0.0
708,42.0,43.0,20.0,0.0,0.0
709,66.0,24.0,150.0,0.0,0.0
710,61.0,15.0,120.0,0.0,0.0
711,58.0,9.0,120.0,0.0,0.0
712,42.0,52.0,15.0,0.0,0.0
713,42.0,2.0,20.0,0.0,0.0
714,42.0,56.0,20.0,0.0,0.0
715,61.0,20.0,60.0,0.0,0.0
716,65.0,28.0,90.0,0.0,0.0
717,58.0,14.0,40.0,0.0,0.0
718,42.0,15.0,20.0,0.0,0.0
719,42.0,30.0,20.0,0.0,0.0
720,64.0,18.0,90.0,0.0,0.0
721,61.0,5.0,90.0,0.0,0.0
722,58.0,7.0,90.0,0.0,0.0
723,43.0,48.0,30.0,0.0,0.0
724,43.0,17.0,20.0,0.0,0.0
725,43.0,48.0,20.0,0.0,0.0
726,43.0,49.0,20.0,0.0,0.0
727,43.0,48.0,20.0,0.0,0.0
728,58.0,0.0,90.0,0.0,0.0
729,64.0,1.0,90.0,0.0,0.0
730,61.0,174.0,90.0,0.0,0.0
731,43.0,21.0,15.0,0.0,0.0
732,44.0,1.0,150.0,0.0,0.0
733,56.0,0.0,150.0,0.0,0.0
734,60.0,1.0,150.0,0.0,0.0
735,65.0,374.0,150.0,0.0,0.0
736,48.0,30.0,150.0,0.0,0.0
737,52.0,0.0,150.0,0.0,0.0
738,58.0,0.0,150.0,0.0,0.0
739,60.0,0.0,150.0,0.0,0.0
740,67.0,254.0,180.0,0.0,0.0
741,29.0,11.0,90.0,0.0,0.0
742,53.0,50.0,40.0,0.0,0.0
743,56.0,34.0,60.0,0.0,0.0
744,60.0,37.0,60.0,0.0,0.0
745,65.0,16.0,60.0,0.0,0.0
746,68.0,43.0,40.0,0.0,0.0
747,72.0,32.0,40.0,0.0,0.0
748,70.0,18.0,40.0,0.0,0.0
749,53.0,17.0,60.0,0.0,0.0
750,60.0,0.0,60.0,0.0,0.0
751,56.0,0.0,60.0,0.0,0.0
752,68.0,23.0,40.0,0.0,0.0
753,67.0,50.0,30.0,0.0,0.0
754,56.0,12.0,90.0,0.0,0.0
755,60.0,0.0,90.0,0.0,0.0
756,65.0,30.0,40.0,0.0,0.0
757,53.0,16.0,90.0,0.0,0.0
758,68.0,2.0,40.0,0.0,0.0
759,72.0,35.0,30.0,0.0,0.0
760,77.0,48.0,30.0,0.0,0.0
761,80.0,48.0,40.0,0.0,0.0
762,84.0,14.0,60.0,0.0,0.0
763,60.0,0.0,40.0,0.0,0.0
764,53.0,0.0,40.0,0.0,0.0
765,56.0,2.0,40.0,0.0,0.0
766,82.0,40.0,40.0,0.0,0.0
767,80.0,26.0,40.0,0.0,0.0
768,79.0,53.0,30.0,0.0,0.0
769,56.0,4.0,150.0,0.0,0.0
770,60.0,29.0,150.0,0.0,0.0
771,77.0,29.0,60.0,0.0,0.0
772,53.0,1.0,120.0,0.0,0.0
773,80.0,15.0,40.0,0.0,0.0
774,84.0,41.0,20.0,0.0,0.0
775,89.0,40.0,60.0,0.0,0.0
776,92.0,52.0,60.0,0.0,0.0
777,96.0,29.0,60.0,0.0,0.0
778,94.0,0.0,60.0,0.0,0.0
779,60.0,25.0,60.0,0.0,0.0
780,53.0,3.0,60.0,0.0,0.0
781,56.0,1.0,60.0,0.0,0.0
782,92.0,63.0,40.0,0.0,0.0
783,91.0,47.0,60.0,0.0,0.0
784,56.0,0.0,180.0,0.0,0.0
785,90.0,40.0,60.0,0.0,0.0
786,53.0,2.0,180.0,0.0,0.0
787,60.0,36.0,180.0,0.0,0.0
788,89.0,33.0,60.0,0.0,0.0
789,88.0,40.0,40.0,0.0,0.0
790,87.0,9.0,40.0,0.0,0.0
791,86.0,30.0,60.0,0.0,0.0
792,85.0,42.0,40.0,0.0,0.0
793,84.0,52.0,40.0,0.0,0.0
794,83.0,31.0,60.0,0.0,0.0
795,82.0,50.0,60.0,0.0,0.0
796,81.0,25.0,60.0,0.0,0.0
797,80.0,45.0,40.0,0.0,0.0
798,79.0,40.0,40.0,0.0,0.0
799,78.0,45.0,40.0,0.0,0.0
800,77.0,45.0,60.0,0.0,0.0
801,76.0,80.0,40.0,0.0,0.0
802,75.0,74.0,60.0,0.0,0.0
803,74.0,106.0,90.0,0.0,0.0
804,73.0,102.0,120.0,0.0,0.0
805,72.0,64.0,90.0,0.0,0.0
806,71.0,80.0,60.0,0.0,0.0
807,72.0,76.0,90.0,0.0,0.0
808,67.0,25.0,90.0,0.0,0.0
809,70.0,83.0,60.0,0.0,0.0
810,68.0,72.0,90.0,0.0,0.0
811,65.0,68.0,90.0,0.0,0.0
812,41.0,8.0,60.0,0.0,0.0
813,48.0,20.0,90.0,0.0,0.0
814,53.0,62.0,40.0,0.0,0.0
815,56.0,42.0,60.0,0.0,0.0
816,60.0,56.0,40.0,0.0,0.0
817,65.0,42.0,40.0,0.0,0.0
818,67.0,6.0,120.0,0.0,0.0
819,36.0,60.0,40.0,0.0,0.0
820,48.0,12.0,60.0,0.0,0.0
821,52.0,71.0,20.0,0.0,0.0
822,60.0,53.0,40.0,0.0,0.0
823,64.0,39.0,60.0,0.0,0.0
824,67.0,82.0,60.0,0.0,0.0
825,68.0,14.0,150.0,0.0,0.0
826,41.0,47.0,60.0,0.0,0.0
827,48.0,30.0,60.0,0.0,0.0
828,53.0,46.0,60.0,0.0,0.0
829,60.0,68.0,60.0,0.0,0.0
830,72.0,48.0,60.0,0.0,0.0
831,71.0,74.0,60.0,0.0,0.0
832,72.0,30.0,60.0,0.0,0.0
833,71.0,67.0,60.0,0.0,0.0
834,72.0,44.0,60.0,0.0,0.0
835,67.0,32.0,60.0,0.0,0.0
836,70.0,62.0,60.0,0.0,0.0
837,68.0,49.0,60.0,0.0,0.0
838,41.0,66.0,60.0,0.0,0.0
839,65.0,22.0,120.0,0.0,0.0
840,48.0,15.0,60.0,0.0,0.0
841,53.0,35.0,60.0,0.0,0.0
842,56.0,48.0,40.0,0.0,0.0
843,60.0,47.0,40.0,0.0,0.0
844,65.0,45.0,40.0,0.0,0.0
845,67.0,32.0,120.0,0.0,0.0
846,36.0,66.0,40.0,0.0,0.0
847,48.0,12.0,40.0,0.0,0.0
848,52.0,61.0,40.0,0.0,0.0
849,60.0,47.0,40.0,0.0,0.0
850,68.0,50.0,40.0,0.0,0.0
851,67.0,75.0,40.0,0.0,0.0
852,41.0,52.0,60.0,0.0,0.0
853,65.0,12.0,120.0,0.0,0.0
854,48.0,56.0,60.0,0.0,0.0
855,53.0,80.0,60.0,0.0,0.0
856,67.0,40.0,90.0,0.0,0.0
857,68.0,48.0,60.0,0.0,0.0
858,70.0,59.0,60.0,0.0,0.0
859,44.0,77.0,60.0,0.0,0.0
860,72.0,3.0,60.0,0.0,0.0
861,51.0,36.0,90.0,0.0,0.0
862,56.0,48.0,60.0,0.0,0.0
863,63.0,44.0,60.0,0.0,0.0
864,73.0,49.0,60.0,0.0,0.0
865,72.0,34.0,60.0,0.0,0.0
866,39.0,12.0,40.0,0.0,0.0
867,70.0,48.0,60.0,0.0,0.0
868,51.0,40.0,60.0,0.0,0.0
869,55.0,73.0,40.0,0.0,0.0
870,61.0,47.0,60.0,0.0,0.0
871,72.0,49.0,60.0,0.0,0.0
872,70.0,50.0,60.0,0.0,0.0
873,68.0,70.0,60.0,0.0,0.0
874,41.0,3.0,60.0,0.0,0.0
875,48.0,40.0,60.0,0.0,0.0
876,53.0,70.0,60.0,0.0,0.0
877,60.0,45.0,60.0,0.0,0.0
878,70.0,80.0,60.0,0.0,0.0
879,68.0,59.0,60.0,0.0,0.0
880,67.0,21.0,120.0,0.0,0.0
881,36.0,55.0,60.0,0.0,0.0
882,48.0,46.0,60.0,0.0,0.0
883,60.0,76.0,40.0,0.0,0.0
884,60.0,72.0,40.0,0.0,0.0
885,72.0,66.0,40.0,0.0,0.0
886,60.0,60.0,40.0,0.0,0.0
887,72.0,111.0,30.0,0.0,0.0
888,72.0,94.0,60.0,0.0,0.0
889,84.0,136.0,60.0,0.0,0.0
890,71.0,60.0,120.0,0.0,0.0
891,72.0,95.0,60.0,0.0,0.0
892,71.0,91.0,60.0,0.0,0.0
893,72.0,143.0,60.0,0.0,0.0
894,71.0,78.0,120.0,0.0,0.0
895,72.0,117.0,90.0,0.0,0.0
896,71.0,86.0,90.0,0.0,0.0
897,72.0,79.0,90.0,0.0,0.0
898,71.0,85.0,90.0,0.0,0.0
899,72.0,43.0,90.0,0.0,0.0
900,71.0,87.0,60.0,0.0,0.0
901,72.0,58.0,90.0,0.0,0.0
902,67.0,46.0,90.0,0.0,0.0
903,70.0,68.0,90.0,0.0,0.0
904,68.0,68.0,90.0,0.0,0.0
905,65.0,3.0,60.0,0.0,0.0
906,41.0,38.0,60.0,0.0,0.0
907,48.0,68.0,60.0,0.0,0.0
908,53.0,36.0,60.0,0.0,0.0
909,56.0,50.0,40.0,0.0,0.0
910,60.0,66.0,40.0,0.0,0.0
911,65.0,32.0,60.0,0.0,0.0
912,36.0,72.0,40.0,0.0,0.0
913,67.0,48.0,120.0,0.0,0.0
914,48.0,7.0,60.0,0.0,0.0
915,52.0,56.0,60.0,0.0,0.0
916,60.0,54.0,60.0,0.0,0.0
917,64.0,74.0,60.0,0.0,0.0
918,67.0,56.0,90.0,0.0,0.0
919,68.0,55.0,90.0,0.0,0.0
920,41.0,11.0,60.0,0.0,0.0
921,48.0,54.0,60.0,0.0,0.0
922,53.0,60.0,60.0,0.0,0.0
923,60.0,70.0,60.0,0.0,0.0
924,72.0,46.0,60.0,0.0,0.0
925,71.0,74.0,60.0,0.0,0.0
926,72.0,42.0,60.0,0.0,0.0
927,71.0,72.0,60.0,0.0,0.0
928,72.0,57.0,90.0,0.0,0.0
929,67.0,34.0,90.0,0.0,0.0
930,70.0,74.0,60.0,0.0,0.0
931,68.0,55.0,60.0,0.0,0.0
932,41.0,3.0,60.0,0.0,0.0
933,65.0,65.0,60.0,0.0,0.0
934,48.0,43.0,60.0,0.0,0.0
935,53.0,46.0,60.0,0.0,0.0
936,56.0,59.0,60.0,0.0,0.0
937,60.0,55.0,60.0,0.0,0.0
938,65.0,52.0,60.0,0.0,0.0
939,36.0,66.0,40.0,0.0,0.0
940,67.0,49.0,120.0,0.0,0.0
941,48.0,9.0,40.0,0.0,0.0
942,52.0,214.0,40.0,0.0,0.0
943,58.0,5.0,180.0,0.0,0.0
944,68.0,139.0,120.0,0.0,0.0
945,67.0,368.0,150.0,0.0,0.0
946,41.0,0.0,390.0,0.0,0.0
947,56.0,0.0,390.0,0.0,0.0
948,65.0,0.0,390.0,0.0,0.0
949,29.0,0.0,390.0,0.0,0.0
