,note,step,duration,channel,velocity
0,74.0,1.0,60.0,10.0,0.0
1,86.0,1.0,60.0,0.0,0.0
2,62.0,10.0,60.0,11.0,0.0
3,74.0,0.0,60.0,1.0,0.0
4,62.0,48.0,60.0,3.0,0.0
5,75.0,1.0,60.0,10.0,0.0
6,87.0,1.0,60.0,0.0,0.0
7,63.0,0.0,60.0,11.0,0.0
8,75.0,10.0,60.0,1.0,0.0
9,63.0,158.0,60.0,3.0,0.0
10,57.0,1.0,60.0,10.0,0.0
11,69.0,1.0,60.0,0.0,0.0
12,57.0,0.0,60.0,11.0,0.0
13,69.0,4.0,60.0,1.0,0.0
14,57.0,5.0,60.0,12.0,0.0
15,45.0,1.0,60.0,13.0,0.0
16,45.0,2.0,60.0,3.0,0.0
17,33.0,13.0,60.0,14.0,0.0
18,58.0,2.0,20.0,10.0,0.0
19,70.0,3.0,15.0,0.0,0.0
20,58.0,1.0,30.0,11.0,0.0
21,70.0,4.0,20.0,1.0,0.0
22,58.0,6.0,20.0,12.0,0.0
23,46.0,1.0,30.0,13.0,0.0
24,46.0,4.0,30.0,3.0,0.0
25,34.0,6.0,40.0,14.0,0.0
26,69.0,7.0,15.0,0.0,0.0
27,57.0,1.0,20.0,10.0,0.0
28,69.0,0.0,20.0,1.0,0.0
29,57.0,3.0,20.0,12.0,0.0
30,57.0,0.0,30.0,11.0,0.0
31,70.0,5.0,15.0,0.0,0.0
32,58.0,2.0,20.0,10.0,0.0
33,45.0,1.0,30.0,13.0,0.0
34,45.0,8.0,30.0,3.0,0.0
35,70.0,3.0,20.0,1.0,0.0
36,58.0,5.0,20.0,12.0,0.0
37,69.0,1.0,15.0,0.0,0.0
38,33.0,3.0,40.0,14.0,0.0
39,57.0,1.0,20.0,10.0,0.0
40,58.0,2.0,30.0,11.0,0.0
41,69.0,4.0,20.0,1.0,0.0
42,70.0,1.0,15.0,0.0,0.0
43,57.0,6.0,20.0,12.0,0.0
44,46.0,1.0,30.0,13.0,0.0
45,46.0,4.0,30.0,3.0,0.0
46,58.0,1.0,20.0,10.0,0.0
47,69.0,3.0,15.0,0.0,0.0
48,70.0,0.0,20.0,1.0,0.0
49,58.0,7.0,20.0,12.0,0.0
50,57.0,4.0,30.0,11.0,0.0
51,34.0,6.0,40.0,14.0,0.0
52,70.0,7.0,15.0,0.0,0.0
53,57.0,2.0,20.0,10.0,0.0
54,45.0,1.0,30.0,13.0,0.0
55,69.0,0.0,20.0,1.0,0.0
56,45.0,2.0,30.0,3.0,0.0
57,57.0,3.0,20.0,12.0,0.0
58,69.0,2.0,15.0,0.0,0.0
59,58.0,2.0,20.0,10.0,0.0
60,70.0,3.0,20.0,1.0,0.0
61,58.0,8.0,30.0,11.0,0.0
62,58.0,6.0,20.0,12.0,0.0
63,70.0,1.0,15.0,0.0,0.0
64,46.0,0.0,30.0,13.0,0.0
65,46.0,0.0,30.0,3.0,0.0
66,33.0,6.0,40.0,14.0,0.0
67,57.0,1.0,20.0,10.0,0.0
68,69.0,4.0,20.0,1.0,0.0
69,69.0,1.0,15.0,0.0,0.0
70,57.0,8.0,20.0,12.0,0.0
71,57.0,0.0,30.0,11.0,0.0
72,58.0,1.0,20.0,10.0,0.0
73,45.0,1.0,30.0,13.0,0.0
74,70.0,1.0,20.0,0.0,0.0
75,45.0,18.0,30.0,3.0,0.0
76,70.0,2.0,20.0,1.0,0.0
77,58.0,5.0,20.0,12.0,0.0
78,33.0,2.0,15.0,14.0,0.0
79,55.0,1.0,30.0,10.0,0.0
80,67.0,1.0,30.0,0.0,0.0
81,67.0,4.0,30.0,1.0,0.0
82,55.0,0.0,30.0,11.0,0.0
83,55.0,5.0,30.0,12.0,0.0
84,43.0,1.0,30.0,13.0,0.0
85,43.0,2.0,30.0,3.0,0.0
86,31.0,16.0,30.0,14.0,0.0
87,57.0,1.0,30.0,10.0,0.0
88,69.0,1.0,30.0,0.0,0.0
89,57.0,4.0,30.0,11.0,0.0
90,69.0,0.0,30.0,1.0,0.0
91,57.0,5.0,30.0,12.0,0.0
92,45.0,1.0,30.0,13.0,0.0
93,45.0,2.0,30.0,3.0,0.0
94,33.0,46.0,30.0,14.0,0.0
95,60.0,1.0,60.0,10.0,0.0
96,72.0,1.0,60.0,0.0,0.0
97,60.0,0.0,60.0,11.0,0.0
98,72.0,4.0,60.0,1.0,0.0
99,60.0,5.0,60.0,12.0,0.0
100,48.0,1.0,60.0,13.0,0.0
101,48.0,2.0,60.0,3.0,0.0
102,36.0,106.0,60.0,14.0,0.0
103,53.0,1.0,60.0,10.0,0.0
104,65.0,1.0,60.0,0.0,0.0
105,65.0,0.0,60.0,1.0,0.0
106,53.0,4.0,60.0,11.0,0.0
107,53.0,5.0,60.0,12.0,0.0
108,41.0,1.0,60.0,13.0,0.0
109,41.0,2.0,60.0,3.0,0.0
110,29.0,196.0,60.0,14.0,0.0
111,65.0,60.0,30.0,10.0,0.0
112,65.0,28.0,720.0,11.0,0.0
113,63.0,5.0,120.0,12.0,0.0
114,63.0,49.0,120.0,13.0,0.0
115,65.0,36.0,30.0,10.0,0.0
116,70.0,50.0,60.0,10.0,0.0
117,62.0,5.0,240.0,12.0,0.0
118,62.0,49.0,240.0,13.0,0.0
119,65.0,40.0,60.0,10.0,0.0
120,74.0,60.0,30.0,10.0,0.0
121,74.0,36.0,30.0,10.0,0.0
122,72.0,50.0,60.0,10.0,0.0
123,57.0,5.0,240.0,12.0,0.0
124,57.0,59.0,240.0,13.0,0.0
125,65.0,40.0,60.0,10.0,0.0
126,75.0,60.0,30.0,10.0,0.0
127,75.0,26.0,30.0,10.0,0.0
128,74.0,50.0,60.0,10.0,0.0
129,58.0,5.0,240.0,12.0,0.0
130,58.0,49.0,240.0,13.0,0.0
131,65.0,12.0,60.0,10.0,0.0
132,77.0,22.0,30.0,10.0,0.0
133,62.0,38.0,60.0,11.0,0.0
134,77.0,22.0,30.0,10.0,0.0
135,62.0,14.0,60.0,11.0,0.0
136,77.0,50.0,60.0,10.0,0.0
137,67.0,4.0,240.0,11.0,0.0
138,63.0,5.0,240.0,12.0,0.0
139,51.0,49.0,240.0,13.0,0.0
140,27.0,16.0,120.0,14.0,0.0
141,75.0,24.0,60.0,10.0,0.0
142,74.0,60.0,30.0,10.0,0.0
143,72.0,32.0,30.0,10.0,0.0
144,72.0,50.0,60.0,10.0,0.0
145,65.0,4.0,240.0,11.0,0.0
146,62.0,5.0,240.0,12.0,0.0
147,53.0,49.0,240.0,13.0,0.0
148,29.0,16.0,120.0,14.0,0.0
149,70.0,24.0,60.0,10.0,0.0
150,70.0,60.0,30.0,10.0,0.0
151,70.0,32.0,30.0,10.0,0.0
152,70.0,50.0,60.0,10.0,0.0
153,63.0,4.0,240.0,11.0,0.0
154,60.0,4.0,240.0,4.0,0.0
155,60.0,5.0,240.0,12.0,0.0
156,53.0,54.0,240.0,5.0,0.0
157,41.0,1.0,240.0,13.0,0.0
158,29.0,16.0,120.0,14.0,0.0
159,69.0,24.0,60.0,10.0,0.0
160,67.0,60.0,30.0,10.0,0.0
161,69.0,22.0,30.0,10.0,0.0
162,70.0,1.0,60.0,10.0,0.0
163,82.0,1.0,60.0,0.0,0.0
164,62.0,0.0,60.0,1.0,0.0
165,70.0,0.0,60.0,1.0,0.0
166,58.0,0.0,60.0,4.0,0.0
167,62.0,1.0,60.0,11.0,0.0
168,58.0,2.0,60.0,6.0,0.0
169,70.0,0.0,60.0,6.0,0.0
170,70.0,0.0,60.0,2.0,0.0
171,62.0,1.0,60.0,2.0,0.0
172,58.0,5.0,60.0,12.0,0.0
173,50.0,0.0,60.0,5.0,0.0
174,46.0,1.0,60.0,13.0,0.0
175,46.0,1.0,60.0,3.0,0.0
176,58.0,0.0,60.0,3.0,0.0
177,46.0,1.0,60.0,15.0,0.0
178,34.0,106.0,60.0,14.0,0.0
179,72.0,1.0,60.0,10.0,0.0
180,63.0,0.0,60.0,10.0,0.0
181,84.0,0.0,60.0,0.0,0.0
182,81.0,1.0,60.0,0.0,0.0
183,60.0,0.0,60.0,4.0,0.0
184,65.0,1.0,60.0,1.0,0.0
185,57.0,0.0,60.0,11.0,0.0
186,72.0,0.0,60.0,1.0,0.0
187,65.0,0.0,60.0,6.0,0.0
188,53.0,2.0,60.0,6.0,0.0
189,65.0,1.0,60.0,2.0,0.0
190,72.0,0.0,60.0,2.0,0.0
191,53.0,5.0,60.0,5.0,0.0
192,53.0,0.0,60.0,12.0,0.0
193,41.0,1.0,60.0,13.0,0.0
194,41.0,0.0,60.0,3.0,0.0
195,53.0,1.0,60.0,3.0,0.0
196,41.0,1.0,60.0,15.0,0.0
197,29.0,286.0,60.0,14.0,0.0
198,74.0,1.0,60.0,10.0,0.0
199,86.0,1.0,60.0,0.0,0.0
200,62.0,0.0,60.0,11.0,0.0
201,74.0,10.0,60.0,1.0,0.0
202,62.0,48.0,60.0,3.0,0.0
203,75.0,1.0,60.0,10.0,0.0
204,87.0,1.0,60.0,0.0,0.0
205,75.0,10.0,60.0,1.0,0.0
206,63.0,0.0,60.0,11.0,0.0
207,63.0,158.0,60.0,3.0,0.0
208,57.0,1.0,60.0,10.0,0.0
209,69.0,1.0,60.0,0.0,0.0
210,69.0,0.0,60.0,1.0,0.0
211,57.0,4.0,60.0,11.0,0.0
212,57.0,5.0,60.0,12.0,0.0
213,45.0,1.0,60.0,13.0,0.0
214,45.0,2.0,60.0,3.0,0.0
215,33.0,13.0,60.0,14.0,0.0
216,58.0,2.0,20.0,10.0,0.0
217,70.0,3.0,15.0,0.0,0.0
218,70.0,4.0,20.0,1.0,0.0
219,58.0,1.0,30.0,11.0,0.0
220,58.0,6.0,20.0,12.0,0.0
221,46.0,1.0,30.0,13.0,0.0
222,46.0,0.0,30.0,3.0,0.0
223,34.0,6.0,40.0,14.0,0.0
224,69.0,7.0,15.0,0.0,0.0
225,57.0,1.0,20.0,10.0,0.0
226,69.0,4.0,20.0,1.0,0.0
227,57.0,3.0,20.0,12.0,0.0
228,57.0,3.0,30.0,11.0,0.0
229,70.0,5.0,15.0,0.0,0.0
230,58.0,2.0,20.0,10.0,0.0
231,45.0,1.0,30.0,13.0,0.0
232,70.0,0.0,20.0,1.0,0.0
233,45.0,8.0,30.0,3.0,0.0
234,58.0,5.0,20.0,12.0,0.0
235,69.0,1.0,15.0,0.0,0.0
236,33.0,3.0,40.0,14.0,0.0
237,57.0,1.0,20.0,10.0,0.0
238,69.0,4.0,20.0,1.0,0.0
239,58.0,2.0,30.0,11.0,0.0
240,70.0,1.0,15.0,0.0,0.0
241,57.0,6.0,20.0,12.0,0.0
242,46.0,1.0,30.0,13.0,0.0
243,46.0,4.0,30.0,3.0,0.0
244,58.0,1.0,20.0,10.0,0.0
245,69.0,3.0,15.0,0.0,0.0
246,70.0,0.0,20.0,1.0,0.0
247,58.0,7.0,20.0,12.0,0.0
248,57.0,4.0,30.0,11.0,0.0
249,34.0,6.0,40.0,14.0,0.0
250,70.0,7.0,15.0,0.0,0.0
251,57.0,2.0,20.0,10.0,0.0
252,45.0,1.0,30.0,13.0,0.0
253,45.0,2.0,30.0,3.0,0.0
254,69.0,0.0,20.0,1.0,0.0
255,57.0,3.0,20.0,12.0,0.0
256,69.0,2.0,15.0,0.0,0.0
257,58.0,2.0,20.0,10.0,0.0
258,58.0,8.0,30.0,11.0,0.0
259,70.0,3.0,20.0,1.0,0.0
260,58.0,6.0,20.0,12.0,0.0
261,70.0,1.0,15.0,0.0,0.0
262,46.0,1.0,30.0,13.0,0.0
263,46.0,4.0,30.0,3.0,0.0
264,33.0,6.0,40.0,14.0,0.0
265,57.0,1.0,20.0,10.0,0.0
266,69.0,0.0,20.0,1.0,0.0
267,69.0,0.0,15.0,0.0,0.0
268,57.0,8.0,20.0,12.0,0.0
269,57.0,0.0,30.0,11.0,0.0
270,58.0,1.0,20.0,10.0,0.0
271,70.0,1.0,20.0,0.0,0.0
272,45.0,1.0,30.0,13.0,0.0
273,70.0,2.0,20.0,1.0,0.0
274,45.0,18.0,30.0,3.0,0.0
275,58.0,5.0,20.0,12.0,0.0
276,33.0,2.0,15.0,14.0,0.0
277,55.0,1.0,30.0,10.0,0.0
278,67.0,1.0,30.0,0.0,0.0
279,55.0,4.0,30.0,11.0,0.0
280,67.0,0.0,30.0,1.0,0.0
281,55.0,5.0,30.0,12.0,0.0
282,43.0,1.0,30.0,13.0,0.0
283,43.0,2.0,30.0,3.0,0.0
284,31.0,16.0,30.0,14.0,0.0
285,57.0,1.0,30.0,10.0,0.0
286,69.0,1.0,30.0,0.0,0.0
287,69.0,4.0,30.0,1.0,0.0
288,57.0,0.0,30.0,11.0,0.0
289,57.0,5.0,30.0,12.0,0.0
290,45.0,1.0,30.0,13.0,0.0
291,45.0,2.0,30.0,3.0,0.0
292,33.0,46.0,30.0,14.0,0.0
293,60.0,1.0,60.0,10.0,0.0
294,72.0,1.0,60.0,0.0,0.0
295,53.0,1.0,60.0,4.0,0.0
296,60.0,0.0,60.0,11.0,0.0
297,72.0,0.0,60.0,1.0,0.0
298,53.0,2.0,60.0,6.0,0.0
299,65.0,0.0,60.0,6.0,0.0
300,72.0,0.0,60.0,2.0,0.0
301,60.0,1.0,60.0,2.0,0.0
302,41.0,0.0,60.0,5.0,0.0
303,60.0,5.0,60.0,12.0,0.0
304,48.0,1.0,60.0,13.0,0.0
305,48.0,1.0,60.0,3.0,0.0
306,41.0,1.0,60.0,15.0,0.0
307,36.0,106.0,60.0,14.0,0.0
308,53.0,1.0,60.0,10.0,0.0
309,65.0,1.0,60.0,0.0,0.0
310,53.0,1.0,60.0,11.0,0.0
311,53.0,0.0,60.0,4.0,0.0
312,65.0,0.0,60.0,1.0,0.0
313,65.0,0.0,60.0,6.0,0.0
314,53.0,2.0,60.0,6.0,0.0
315,65.0,0.0,60.0,2.0,0.0
316,53.0,1.0,60.0,2.0,0.0
317,41.0,5.0,60.0,5.0,0.0
318,53.0,0.0,60.0,12.0,0.0
319,41.0,1.0,60.0,13.0,0.0
320,41.0,1.0,60.0,3.0,0.0
321,41.0,1.0,60.0,15.0,0.0
322,29.0,196.0,60.0,14.0,0.0
323,65.0,60.0,30.0,10.0,0.0
324,65.0,38.0,720.0,11.0,0.0
325,63.0,5.0,120.0,12.0,0.0
326,63.0,49.0,120.0,13.0,0.0
327,65.0,36.0,30.0,10.0,0.0
328,70.0,50.0,60.0,10.0,0.0
329,62.0,5.0,240.0,12.0,0.0
330,62.0,49.0,240.0,13.0,0.0
331,65.0,40.0,60.0,10.0,0.0
332,74.0,60.0,30.0,10.0,0.0
333,74.0,36.0,30.0,10.0,0.0
334,72.0,50.0,60.0,10.0,0.0
335,57.0,5.0,240.0,12.0,0.0
336,57.0,59.0,240.0,13.0,0.0
337,65.0,40.0,60.0,10.0,0.0
338,75.0,60.0,30.0,10.0,0.0
339,75.0,26.0,30.0,10.0,0.0
340,74.0,50.0,60.0,10.0,0.0
341,58.0,5.0,240.0,12.0,0.0
342,58.0,49.0,240.0,13.0,0.0
343,65.0,2.0,60.0,10.0,0.0
344,77.0,22.0,30.0,10.0,0.0
345,62.0,38.0,60.0,11.0,0.0
346,77.0,22.0,30.0,10.0,0.0
347,62.0,14.0,60.0,11.0,0.0
348,77.0,50.0,60.0,10.0,0.0
349,67.0,4.0,240.0,11.0,0.0
350,63.0,5.0,240.0,12.0,0.0
351,51.0,49.0,240.0,13.0,0.0
352,27.0,16.0,120.0,14.0,0.0
353,75.0,24.0,60.0,10.0,0.0
354,74.0,60.0,30.0,10.0,0.0
355,72.0,32.0,30.0,10.0,0.0
356,72.0,50.0,60.0,10.0,0.0
357,65.0,4.0,240.0,11.0,0.0
358,62.0,5.0,240.0,12.0,0.0
359,53.0,49.0,240.0,13.0,0.0
360,29.0,16.0,120.0,14.0,0.0
361,70.0,24.0,60.0,10.0,0.0
362,70.0,60.0,30.0,10.0,0.0
363,70.0,32.0,30.0,10.0,0.0
364,70.0,50.0,60.0,10.0,0.0
365,60.0,3.0,240.0,4.0,0.0
366,63.0,4.0,240.0,11.0,0.0
367,69.0,1.0,240.0,2.0,0.0
368,63.0,0.0,240.0,2.0,0.0
369,53.0,114.0,240.0,5.0,0.0
370,60.0,5.0,240.0,12.0,0.0
371,41.0,1.0,240.0,13.0,0.0
372,29.0,16.0,120.0,14.0,0.0
373,69.0,24.0,60.0,10.0,0.0
374,67.0,60.0,30.0,10.0,0.0
375,69.0,22.0,30.0,10.0,0.0
376,58.0,2.0,120.0,10.0,0.0
377,70.0,0.0,120.0,10.0,0.0
378,62.0,3.0,120.0,11.0,0.0
379,58.0,1.0,960.0,4.0,0.0
380,62.0,1.0,120.0,2.0,0.0
381,70.0,0.0,120.0,2.0,0.0
382,58.0,5.0,120.0,12.0,0.0
383,46.0,114.0,960.0,5.0,0.0
384,46.0,2.0,120.0,13.0,0.0
385,46.0,1.0,120.0,15.0,0.0
386,34.0,107.0,120.0,14.0,0.0
387,81.0,1.0,60.0,0.0,0.0
388,69.0,10.0,60.0,1.0,0.0
389,57.0,49.0,60.0,3.0,0.0
390,82.0,1.0,60.0,0.0,0.0
391,70.0,10.0,60.0,1.0,0.0
392,58.0,138.0,60.0,3.0,0.0
393,58.0,2.0,30.0,10.0,0.0
394,58.0,4.0,30.0,11.0,0.0
395,50.0,5.0,30.0,12.0,0.0
396,50.0,3.0,30.0,13.0,0.0
397,38.0,76.0,30.0,14.0,0.0
398,60.0,2.0,60.0,10.0,0.0
399,60.0,4.0,60.0,11.0,0.0
400,51.0,5.0,60.0,12.0,0.0
401,51.0,3.0,60.0,13.0,0.0
402,39.0,106.0,60.0,14.0,0.0
403,62.0,2.0,60.0,10.0,0.0
404,62.0,4.0,60.0,11.0,0.0
405,53.0,5.0,60.0,12.0,0.0
406,53.0,3.0,60.0,13.0,0.0
407,41.0,106.0,60.0,14.0,0.0
408,63.0,2.0,60.0,10.0,0.0
409,63.0,4.0,60.0,11.0,0.0
410,55.0,5.0,60.0,12.0,0.0
411,55.0,3.0,60.0,13.0,0.0
412,43.0,106.0,60.0,14.0,0.0
413,61.0,2.0,60.0,10.0,0.0
414,61.0,4.0,60.0,11.0,0.0
415,52.0,5.0,60.0,12.0,0.0
416,52.0,3.0,60.0,13.0,0.0
417,40.0,48.0,60.0,14.0,0.0
418,62.0,2.0,120.0,10.0,0.0
419,62.0,4.0,120.0,11.0,0.0
420,70.0,3.0,15.0,6.0,0.0
421,58.0,0.0,15.0,6.0,0.0
422,53.0,5.0,120.0,12.0,0.0
423,46.0,55.0,960.0,5.0,0.0
424,53.0,2.0,120.0,13.0,0.0
425,46.0,1.0,120.0,15.0,0.0
426,41.0,107.0,120.0,14.0,0.0
427,81.0,1.0,60.0,0.0,0.0
428,69.0,10.0,60.0,1.0,0.0
429,57.0,49.0,60.0,3.0,0.0
430,82.0,1.0,60.0,0.0,0.0
431,70.0,10.0,60.0,1.0,0.0
432,58.0,138.0,60.0,3.0,0.0
433,62.0,2.0,30.0,10.0,0.0
434,62.0,4.0,30.0,11.0,0.0
435,54.0,5.0,30.0,12.0,0.0
436,54.0,3.0,30.0,13.0,0.0
437,42.0,76.0,30.0,14.0,0.0
438,63.0,2.0,60.0,10.0,0.0
439,63.0,4.0,60.0,11.0,0.0
440,55.0,5.0,60.0,12.0,0.0
441,55.0,3.0,60.0,13.0,0.0
442,43.0,106.0,60.0,14.0,0.0
443,65.0,2.0,60.0,10.0,0.0
444,53.0,4.0,60.0,11.0,0.0
445,50.0,5.0,60.0,12.0,0.0
446,50.0,3.0,60.0,13.0,0.0
447,38.0,106.0,60.0,14.0,0.0
448,67.0,2.0,60.0,10.0,0.0
449,55.0,4.0,60.0,11.0,0.0
450,51.0,5.0,60.0,12.0,0.0
451,51.0,3.0,60.0,13.0,0.0
452,39.0,106.0,60.0,14.0,0.0
453,69.0,2.0,60.0,10.0,0.0
454,57.0,4.0,60.0,11.0,0.0
455,48.0,5.0,60.0,12.0,0.0
456,48.0,3.0,60.0,13.0,0.0
457,36.0,48.0,60.0,14.0,0.0
458,70.0,1.0,120.0,10.0,0.0
459,82.0,1.0,60.0,0.0,0.0
460,58.0,1.0,15.0,4.0,0.0
461,70.0,10.0,60.0,1.0,0.0
462,58.0,0.0,120.0,11.0,0.0
463,70.0,3.0,15.0,6.0,0.0
464,58.0,0.0,15.0,6.0,0.0
465,46.0,5.0,120.0,12.0,0.0
466,46.0,1.0,120.0,13.0,0.0
467,58.0,48.0,60.0,3.0,0.0
468,46.0,1.0,120.0,15.0,0.0
469,34.0,47.0,120.0,14.0,0.0
470,81.0,1.0,60.0,0.0,0.0
471,69.0,4.0,60.0,1.0,0.0
472,57.0,1.0,60.0,3.0,0.0
473,82.0,1.0,60.0,0.0,0.0
474,70.0,10.0,60.0,1.0,0.0
475,58.0,44.0,60.0,3.0,0.0
476,81.0,1.0,60.0,0.0,0.0
477,69.0,10.0,60.0,1.0,0.0
478,57.0,54.0,60.0,3.0,0.0
479,82.0,1.0,60.0,0.0,0.0
480,70.0,10.0,60.0,1.0,0.0
481,58.0,98.0,60.0,3.0,0.0
482,70.0,2.0,60.0,10.0,0.0
483,58.0,14.0,60.0,11.0,0.0
484,50.0,5.0,60.0,12.0,0.0
485,50.0,3.0,60.0,13.0,0.0
486,38.0,36.0,60.0,14.0,0.0
487,70.0,2.0,60.0,10.0,0.0
488,58.0,58.0,60.0,11.0,0.0
489,72.0,2.0,60.0,10.0,0.0
490,60.0,14.0,60.0,11.0,0.0
491,51.0,5.0,60.0,12.0,0.0
492,51.0,3.0,60.0,13.0,0.0
493,39.0,36.0,60.0,14.0,0.0
494,72.0,2.0,60.0,10.0,0.0
495,60.0,58.0,60.0,11.0,0.0
496,74.0,2.0,60.0,10.0,0.0
497,62.0,14.0,60.0,11.0,0.0
498,53.0,5.0,60.0,12.0,0.0
499,53.0,3.0,60.0,13.0,0.0
500,41.0,36.0,60.0,14.0,0.0
501,74.0,2.0,60.0,10.0,0.0
502,62.0,58.0,60.0,11.0,0.0
503,75.0,2.0,60.0,10.0,0.0
504,63.0,14.0,60.0,11.0,0.0
505,55.0,5.0,60.0,12.0,0.0
506,55.0,3.0,60.0,13.0,0.0
507,43.0,36.0,60.0,14.0,0.0
508,75.0,2.0,60.0,10.0,0.0
509,63.0,58.0,60.0,11.0,0.0
510,73.0,2.0,60.0,10.0,0.0
511,61.0,14.0,60.0,11.0,0.0
512,52.0,5.0,60.0,12.0,0.0
513,52.0,3.0,60.0,13.0,0.0
514,40.0,36.0,60.0,14.0,0.0
515,73.0,2.0,60.0,10.0,0.0
516,61.0,10.0,60.0,11.0,0.0
517,74.0,1.0,120.0,10.0,0.0
518,82.0,1.0,60.0,0.0,0.0
519,58.0,1.0,15.0,4.0,0.0
520,62.0,4.0,120.0,11.0,0.0
521,70.0,10.0,60.0,1.0,0.0
522,46.0,55.0,15.0,5.0,0.0
523,53.0,5.0,120.0,12.0,0.0
524,53.0,1.0,120.0,13.0,0.0
525,58.0,48.0,60.0,3.0,0.0
526,46.0,1.0,120.0,15.0,0.0
527,41.0,47.0,120.0,14.0,0.0
528,81.0,1.0,60.0,0.0,0.0
529,69.0,0.0,60.0,1.0,0.0
530,57.0,1.0,60.0,3.0,0.0
531,82.0,1.0,60.0,0.0,0.0
532,70.0,10.0,60.0,1.0,0.0
533,58.0,44.0,60.0,3.0,0.0
534,81.0,1.0,60.0,0.0,0.0
535,69.0,10.0,60.0,1.0,0.0
536,57.0,54.0,60.0,3.0,0.0
537,82.0,1.0,60.0,0.0,0.0
538,70.0,10.0,60.0,1.0,0.0
539,58.0,50.0,60.0,3.0,0.0
540,74.0,2.0,60.0,10.0,0.0
541,74.0,1.0,60.0,0.0,0.0
542,82.0,0.0,60.0,0.0,0.0
543,62.0,4.0,60.0,11.0,0.0
544,58.0,0.0,60.0,4.0,0.0
545,70.0,0.0,60.0,1.0,0.0
546,74.0,1.0,60.0,1.0,0.0
547,70.0,0.0,15.0,6.0,0.0
548,58.0,3.0,15.0,6.0,0.0
549,70.0,1.0,60.0,2.0,0.0
550,62.0,0.0,60.0,2.0,0.0
551,56.0,5.0,60.0,12.0,0.0
552,46.0,5.0,60.0,5.0,0.0
553,56.0,1.0,60.0,13.0,0.0
554,56.0,0.0,60.0,3.0,0.0
555,44.0,2.0,60.0,3.0,0.0
556,46.0,0.0,40.0,15.0,0.0
557,44.0,36.0,60.0,14.0,0.0
558,74.0,2.0,60.0,10.0,0.0
559,62.0,4.0,60.0,11.0,0.0
560,56.0,5.0,60.0,12.0,0.0
561,46.0,49.0,40.0,15.0,0.0
562,75.0,2.0,60.0,10.0,0.0
563,82.0,1.0,60.0,0.0,0.0
564,75.0,0.0,60.0,0.0,0.0
565,63.0,4.0,60.0,11.0,0.0
566,58.0,0.0,60.0,4.0,0.0
567,70.0,0.0,60.0,1.0,0.0
568,75.0,1.0,60.0,1.0,0.0
569,58.0,2.0,60.0,6.0,0.0
570,70.0,0.0,60.0,6.0,0.0
571,70.0,1.0,60.0,2.0,0.0
572,63.0,0.0,60.0,2.0,0.0
573,46.0,5.0,60.0,5.0,0.0
574,55.0,5.0,60.0,12.0,0.0
575,55.0,1.0,60.0,13.0,0.0
576,55.0,0.0,60.0,3.0,0.0
577,43.0,2.0,60.0,3.0,0.0
578,46.0,0.0,40.0,15.0,0.0
579,43.0,36.0,60.0,14.0,0.0
580,75.0,2.0,60.0,10.0,0.0
581,63.0,4.0,60.0,11.0,0.0
582,55.0,5.0,60.0,12.0,0.0
583,46.0,49.0,40.0,15.0,0.0
584,74.0,2.0,60.0,10.0,0.0
585,74.0,1.0,60.0,0.0,0.0
586,82.0,0.0,60.0,0.0,0.0
587,58.0,1.0,60.0,4.0,0.0
588,70.0,0.0,60.0,1.0,0.0
589,62.0,4.0,60.0,11.0,0.0
590,74.0,0.0,60.0,1.0,0.0
591,58.0,0.0,60.0,6.0,0.0
592,70.0,2.0,60.0,6.0,0.0
593,62.0,1.0,60.0,2.0,0.0
594,70.0,0.0,60.0,2.0,0.0
595,56.0,5.0,60.0,12.0,0.0
596,46.0,5.0,60.0,5.0,0.0
597,56.0,1.0,60.0,13.0,0.0
598,44.0,2.0,60.0,3.0,0.0
599,56.0,0.0,60.0,3.0,0.0
600,46.0,0.0,40.0,15.0,0.0
601,44.0,36.0,60.0,14.0,0.0
602,74.0,2.0,60.0,10.0,0.0
603,62.0,4.0,60.0,11.0,0.0
604,56.0,5.0,60.0,12.0,0.0
605,46.0,49.0,40.0,15.0,0.0
606,75.0,2.0,60.0,10.0,0.0
607,75.0,0.0,60.0,0.0,0.0
608,82.0,0.0,60.0,0.0,0.0
609,63.0,4.0,60.0,11.0,0.0
610,58.0,1.0,60.0,4.0,0.0
611,75.0,0.0,60.0,1.0,0.0
612,70.0,0.0,60.0,1.0,0.0
613,58.0,2.0,60.0,6.0,0.0
614,70.0,0.0,60.0,6.0,0.0
615,63.0,1.0,60.0,2.0,0.0
616,70.0,0.0,60.0,2.0,0.0
617,46.0,5.0,60.0,5.0,0.0
618,55.0,5.0,60.0,12.0,0.0
619,55.0,1.0,60.0,13.0,0.0
620,43.0,0.0,60.0,3.0,0.0
621,55.0,2.0,60.0,3.0,0.0
622,46.0,1.0,40.0,15.0,0.0
623,43.0,36.0,60.0,14.0,0.0
624,75.0,2.0,60.0,10.0,0.0
625,63.0,4.0,60.0,11.0,0.0
626,55.0,5.0,60.0,12.0,0.0
627,46.0,49.0,40.0,15.0,0.0
628,76.0,2.0,60.0,10.0,0.0
629,82.0,0.0,60.0,0.0,0.0
630,76.0,0.0,60.0,0.0,0.0
631,64.0,4.0,60.0,11.0,0.0
632,70.0,1.0,60.0,1.0,0.0
633,76.0,0.0,60.0,1.0,0.0
634,58.0,0.0,60.0,4.0,0.0
635,70.0,0.0,60.0,6.0,0.0
636,58.0,2.0,60.0,6.0,0.0
637,70.0,0.0,60.0,2.0,0.0
638,64.0,1.0,60.0,2.0,0.0
639,46.0,5.0,60.0,5.0,0.0
640,54.0,5.0,60.0,12.0,0.0
641,54.0,1.0,60.0,13.0,0.0
642,54.0,2.0,60.0,3.0,0.0
643,42.0,0.0,60.0,3.0,0.0
644,46.0,1.0,40.0,15.0,0.0
645,42.0,36.0,60.0,14.0,0.0
646,76.0,2.0,60.0,10.0,0.0
647,64.0,4.0,60.0,11.0,0.0
648,54.0,5.0,60.0,12.0,0.0
649,46.0,49.0,40.0,15.0,0.0
650,77.0,2.0,60.0,10.0,0.0
651,77.0,0.0,120.0,0.0,0.0
652,81.0,0.0,120.0,0.0,0.0
653,65.0,4.0,60.0,11.0,0.0
654,65.0,0.0,120.0,4.0,0.0
655,69.0,0.0,120.0,1.0,0.0
656,77.0,1.0,120.0,1.0,0.0
657,65.0,0.0,120.0,6.0,0.0
658,53.0,1.0,120.0,6.0,0.0
659,65.0,0.0,120.0,2.0,0.0
660,69.0,1.0,120.0,2.0,0.0
661,53.0,6.0,120.0,5.0,0.0
662,53.0,5.0,60.0,12.0,0.0
663,41.0,3.0,60.0,13.0,0.0
664,53.0,1.0,120.0,3.0,0.0
665,41.0,0.0,120.0,3.0,0.0
666,41.0,37.0,120.0,15.0,0.0
667,29.0,46.0,60.0,14.0,0.0
668,77.0,2.0,60.0,10.0,0.0
669,60.0,4.0,60.0,11.0,0.0
670,57.0,5.0,60.0,12.0,0.0
671,53.0,1.0,60.0,13.0,0.0
672,41.0,1.0,60.0,14.0,0.0
673,77.0,2.0,60.0,10.0,0.0
674,60.0,4.0,60.0,11.0,0.0
675,57.0,5.0,60.0,12.0,0.0
676,53.0,3.0,60.0,13.0,0.0
677,41.0,46.0,60.0,14.0,0.0
678,77.0,2.0,60.0,10.0,0.0
679,60.0,4.0,60.0,11.0,0.0
680,57.0,5.0,60.0,12.0,0.0
681,53.0,3.0,60.0,13.0,0.0
682,41.0,46.0,60.0,14.0,0.0
683,81.0,2.0,60.0,10.0,0.0
684,72.0,0.0,240.0,1.0,0.0
685,63.0,4.0,60.0,11.0,0.0
686,75.0,2.0,240.0,1.0,0.0
687,60.0,5.0,60.0,12.0,0.0
688,53.0,3.0,60.0,13.0,0.0
689,63.0,0.0,240.0,3.0,0.0
690,60.0,38.0,240.0,3.0,0.0
691,41.0,46.0,60.0,14.0,0.0
692,77.0,2.0,60.0,10.0,0.0
693,63.0,4.0,60.0,11.0,0.0
694,60.0,5.0,60.0,12.0,0.0
695,53.0,3.0,60.0,13.0,0.0
696,41.0,46.0,60.0,14.0,0.0
697,77.0,2.0,60.0,10.0,0.0
698,63.0,4.0,60.0,11.0,0.0
699,60.0,5.0,60.0,12.0,0.0
700,53.0,3.0,60.0,13.0,0.0
701,41.0,46.0,60.0,14.0,0.0
702,77.0,2.0,60.0,10.0,0.0
703,63.0,4.0,60.0,11.0,0.0
704,60.0,5.0,60.0,12.0,0.0
705,53.0,1.0,60.0,13.0,0.0
706,41.0,8.0,60.0,14.0,0.0
707,82.0,2.0,60.0,10.0,0.0
708,62.0,4.0,60.0,11.0,0.0
709,74.0,2.0,240.0,1.0,0.0
710,70.0,4.0,240.0,1.0,0.0
711,53.0,1.0,120.0,6.0,0.0
712,65.0,0.0,120.0,6.0,0.0
713,58.0,5.0,60.0,12.0,0.0
714,53.0,3.0,60.0,13.0,0.0
715,62.0,38.0,240.0,3.0,0.0
716,58.0,5.0,240.0,3.0,0.0
717,41.0,37.0,120.0,15.0,0.0
718,41.0,46.0,60.0,14.0,0.0
719,77.0,2.0,60.0,10.0,0.0
720,62.0,4.0,60.0,11.0,0.0
721,58.0,5.0,60.0,12.0,0.0
722,53.0,2.0,60.0,13.0,0.0
723,41.0,9.0,60.0,14.0,0.0
724,77.0,2.0,60.0,10.0,0.0
725,62.0,4.0,60.0,11.0,0.0
726,58.0,5.0,60.0,12.0,0.0
727,53.0,3.0,60.0,13.0,0.0
728,41.0,46.0,60.0,14.0,0.0
729,77.0,2.0,60.0,10.0,0.0
730,62.0,4.0,60.0,11.0,0.0
731,58.0,1.0,60.0,12.0,0.0
732,53.0,1.0,60.0,13.0,0.0
733,41.0,3.0,60.0,14.0,0.0
734,82.0,2.0,60.0,10.0,0.0
735,73.0,2.0,240.0,1.0,0.0
736,61.0,4.0,60.0,11.0,0.0
737,70.0,0.0,240.0,1.0,0.0
738,58.0,5.0,60.0,12.0,0.0
739,53.0,3.0,60.0,13.0,0.0
740,58.0,38.0,240.0,3.0,0.0
741,61.0,0.0,240.0,3.0,0.0
742,41.0,46.0,60.0,14.0,0.0
743,76.0,2.0,60.0,10.0,0.0
744,61.0,4.0,60.0,11.0,0.0
745,58.0,5.0,60.0,12.0,0.0
746,53.0,3.0,60.0,13.0,0.0
747,41.0,46.0,60.0,14.0,0.0
748,76.0,2.0,60.0,10.0,0.0
749,61.0,4.0,60.0,11.0,0.0
750,58.0,5.0,60.0,12.0,0.0
751,53.0,3.0,60.0,13.0,0.0
752,41.0,46.0,60.0,14.0,0.0
753,76.0,2.0,60.0,10.0,0.0
754,61.0,4.0,60.0,11.0,0.0
755,58.0,5.0,60.0,12.0,0.0
756,53.0,1.0,60.0,13.0,0.0
757,41.0,8.0,60.0,14.0,0.0
758,79.0,2.0,60.0,10.0,0.0
759,65.0,4.0,1050.0,4.0,0.0
760,60.0,4.0,60.0,11.0,0.0
761,69.0,2.0,240.0,1.0,0.0
762,53.0,0.0,120.0,6.0,0.0
763,65.0,1.0,120.0,6.0,0.0
764,57.0,5.0,60.0,12.0,0.0
765,53.0,8.0,1050.0,5.0,0.0
766,53.0,3.0,60.0,13.0,0.0
767,60.0,38.0,240.0,3.0,0.0
768,57.0,0.0,240.0,3.0,0.0
769,41.0,37.0,120.0,15.0,0.0
770,41.0,46.0,60.0,14.0,0.0
771,77.0,2.0,60.0,10.0,0.0
772,72.0,4.0,60.0,11.0,0.0
773,57.0,5.0,60.0,12.0,0.0
774,53.0,2.0,60.0,13.0,0.0
775,41.0,9.0,60.0,14.0,0.0
776,77.0,2.0,60.0,10.0,0.0
777,72.0,4.0,60.0,11.0,0.0
778,57.0,5.0,60.0,12.0,0.0
779,53.0,3.0,60.0,13.0,0.0
780,41.0,46.0,60.0,14.0,0.0
781,77.0,2.0,60.0,10.0,0.0
782,72.0,4.0,60.0,11.0,0.0
783,57.0,5.0,60.0,12.0,0.0
784,53.0,1.0,60.0,13.0,0.0
785,41.0,8.0,60.0,14.0,0.0
786,81.0,2.0,60.0,10.0,0.0
787,77.0,1.0,480.0,0.0,0.0
788,81.0,1.0,240.0,0.0,0.0
789,72.0,0.0,15.0,1.0,0.0
790,75.0,4.0,60.0,11.0,0.0
791,75.0,2.0,240.0,1.0,0.0
792,77.0,2.0,480.0,2.0,0.0
793,65.0,0.0,480.0,2.0,0.0
794,60.0,5.0,60.0,12.0,0.0
795,53.0,3.0,60.0,13.0,0.0
796,63.0,38.0,240.0,3.0,0.0
797,60.0,0.0,240.0,3.0,0.0
798,41.0,46.0,60.0,14.0,0.0
799,77.0,2.0,60.0,10.0,0.0
800,75.0,4.0,60.0,11.0,0.0
801,60.0,5.0,60.0,12.0,0.0
802,53.0,3.0,60.0,13.0,0.0
803,41.0,46.0,60.0,14.0,0.0
804,77.0,2.0,60.0,10.0,0.0
805,75.0,4.0,60.0,11.0,0.0
806,60.0,5.0,60.0,12.0,0.0
807,53.0,3.0,60.0,13.0,0.0
808,41.0,46.0,60.0,14.0,0.0
809,77.0,2.0,60.0,10.0,0.0
810,75.0,4.0,60.0,11.0,0.0
811,60.0,5.0,60.0,12.0,0.0
812,53.0,0.0,60.0,13.0,0.0
813,41.0,8.0,60.0,14.0,0.0
814,82.0,2.0,60.0,10.0,0.0
815,82.0,0.0,240.0,0.0,0.0
816,74.0,4.0,60.0,11.0,0.0
817,74.0,2.0,240.0,1.0,0.0
818,70.0,4.0,240.0,1.0,0.0
819,53.0,1.0,120.0,6.0,0.0
820,65.0,0.0,120.0,6.0,0.0
821,58.0,5.0,60.0,12.0,0.0
822,53.0,3.0,60.0,13.0,0.0
823,62.0,38.0,240.0,3.0,0.0
824,58.0,5.0,240.0,3.0,0.0
825,41.0,37.0,120.0,15.0,0.0
826,41.0,46.0,60.0,14.0,0.0
827,77.0,2.0,60.0,10.0,0.0
828,74.0,4.0,60.0,11.0,0.0
829,58.0,5.0,60.0,12.0,0.0
830,53.0,2.0,60.0,13.0,0.0
831,41.0,9.0,60.0,14.0,0.0
832,77.0,2.0,60.0,10.0,0.0
833,74.0,4.0,60.0,11.0,0.0
834,58.0,5.0,60.0,12.0,0.0
835,53.0,3.0,60.0,13.0,0.0
836,41.0,46.0,60.0,14.0,0.0
837,77.0,2.0,60.0,10.0,0.0
838,74.0,4.0,60.0,11.0,0.0
839,58.0,1.0,60.0,12.0,0.0
840,53.0,0.0,60.0,13.0,0.0
841,41.0,1.0,60.0,14.0,0.0
842,82.0,2.0,60.0,10.0,0.0
843,76.0,0.0,240.0,0.0,0.0
844,82.0,0.0,240.0,0.0,0.0
845,73.0,4.0,60.0,11.0,0.0
846,73.0,0.0,240.0,1.0,0.0
847,70.0,2.0,240.0,1.0,0.0
848,76.0,7.0,240.0,2.0,0.0
849,64.0,0.0,240.0,2.0,0.0
850,58.0,5.0,60.0,12.0,0.0
851,53.0,3.0,60.0,13.0,0.0
852,61.0,0.0,240.0,3.0,0.0
853,58.0,64.0,240.0,3.0,0.0
854,41.0,46.0,60.0,14.0,0.0
855,76.0,2.0,60.0,10.0,0.0
856,73.0,4.0,60.0,11.0,0.0
857,58.0,5.0,60.0,12.0,0.0
858,53.0,3.0,60.0,13.0,0.0
859,41.0,46.0,60.0,14.0,0.0
860,76.0,2.0,60.0,10.0,0.0
861,73.0,4.0,60.0,11.0,0.0
862,58.0,5.0,60.0,12.0,0.0
863,53.0,3.0,60.0,13.0,0.0
864,41.0,46.0,60.0,14.0,0.0
865,76.0,2.0,60.0,10.0,0.0
866,73.0,4.0,60.0,11.0,0.0
867,58.0,5.0,60.0,12.0,0.0
868,53.0,1.0,60.0,13.0,0.0
869,41.0,1.0,60.0,14.0,0.0
870,77.0,1.0,90.0,10.0,0.0
871,81.0,0.0,90.0,0.0,0.0
872,77.0,1.0,90.0,0.0,0.0
873,72.0,0.0,90.0,11.0,0.0
874,69.0,0.0,90.0,1.0,0.0
875,72.0,1.0,90.0,1.0,0.0
876,65.0,2.0,90.0,6.0,0.0
877,53.0,0.0,90.0,6.0,0.0
878,65.0,1.0,90.0,2.0,0.0
879,77.0,0.0,90.0,2.0,0.0
880,53.0,5.0,90.0,12.0,0.0
881,53.0,1.0,90.0,13.0,0.0
882,60.0,2.0,90.0,3.0,0.0
883,57.0,0.0,90.0,3.0,0.0
884,41.0,87.0,90.0,15.0,0.0
885,41.0,7.0,90.0,14.0,0.0
886,53.0,1.0,90.0,10.0,0.0
887,77.0,0.0,90.0,0.0,0.0
888,65.0,1.0,90.0,0.0,0.0
889,53.0,0.0,90.0,4.0,0.0
890,53.0,1.0,90.0,11.0,0.0
891,65.0,0.0,90.0,1.0,0.0
892,53.0,2.0,90.0,6.0,0.0
893,65.0,0.0,90.0,6.0,0.0
894,65.0,0.0,90.0,2.0,0.0
895,53.0,1.0,90.0,2.0,0.0
896,53.0,5.0,90.0,5.0,0.0
897,53.0,0.0,90.0,12.0,0.0
898,41.0,1.0,90.0,13.0,0.0
899,53.0,2.0,90.0,3.0,0.0
900,41.0,0.0,90.0,3.0,0.0
901,41.0,87.0,90.0,15.0,0.0
902,29.0,19.0,90.0,14.0,0.0
903,53.0,1.0,90.0,10.0,0.0
904,77.0,0.0,90.0,0.0,0.0
905,65.0,1.0,90.0,0.0,0.0
906,53.0,1.0,90.0,11.0,0.0
907,53.0,0.0,90.0,4.0,0.0
908,65.0,0.0,90.0,1.0,0.0
909,53.0,2.0,90.0,6.0,0.0
910,65.0,0.0,90.0,6.0,0.0
911,65.0,1.0,90.0,2.0,0.0
912,53.0,0.0,90.0,2.0,0.0
913,53.0,0.0,90.0,12.0,0.0
914,53.0,5.0,90.0,5.0,0.0
915,41.0,1.0,90.0,13.0,0.0
916,53.0,0.0,90.0,3.0,0.0
917,41.0,2.0,90.0,3.0,0.0
918,41.0,87.0,90.0,15.0,0.0
919,29.0,19.0,90.0,14.0,0.0
920,53.0,1.0,90.0,10.0,0.0
921,77.0,1.0,90.0,0.0,0.0
922,65.0,0.0,90.0,0.0,0.0
923,65.0,1.0,90.0,1.0,0.0
924,53.0,0.0,90.0,11.0,0.0
925,53.0,0.0,90.0,4.0,0.0
926,65.0,2.0,90.0,6.0,0.0
927,53.0,0.0,90.0,6.0,0.0
928,53.0,1.0,90.0,2.0,0.0
929,65.0,0.0,90.0,2.0,0.0
930,53.0,0.0,90.0,12.0,0.0
931,53.0,5.0,90.0,5.0,0.0
932,41.0,1.0,90.0,13.0,0.0
933,53.0,2.0,90.0,3.0,0.0
934,41.0,0.0,90.0,3.0,0.0
935,41.0,131.0,90.0,15.0,0.0
936,29.0,19.0,90.0,14.0,0.0
937,53.0,1.0,120.0,10.0,0.0
938,77.0,1.0,120.0,0.0,0.0
939,65.0,0.0,120.0,0.0,0.0
940,53.0,1.0,120.0,4.0,0.0
941,65.0,0.0,120.0,1.0,0.0
942,53.0,0.0,120.0,11.0,0.0
943,53.0,2.0,120.0,6.0,0.0
944,65.0,0.0,120.0,6.0,0.0
945,65.0,0.0,120.0,2.0,0.0
946,53.0,1.0,120.0,2.0,0.0
947,53.0,0.0,120.0,5.0,0.0
948,53.0,5.0,120.0,12.0,0.0
949,41.0,1.0,120.0,13.0,0.0
950,41.0,1.0,120.0,3.0,0.0
951,53.0,0.0,120.0,3.0,0.0
952,41.0,1.0,120.0,15.0,0.0
953,29.0,480.0,120.0,14.0,0.0
954,46.0,120.0,240.0,13.0,0.0
955,34.0,117.0,120.0,14.0,0.0
956,48.0,110.0,120.0,13.0,0.0
957,50.0,133.0,120.0,13.0,0.0
958,65.0,11.0,1680.0,10.0,0.0
959,57.0,4.0,240.0,11.0,0.0
960,53.0,115.0,240.0,12.0,0.0
961,51.0,1.0,360.0,13.0,0.0
962,29.0,108.0,120.0,14.0,0.0
963,58.0,4.0,120.0,11.0,0.0
964,55.0,106.0,120.0,12.0,0.0
965,60.0,4.0,120.0,11.0,0.0
966,57.0,5.0,120.0,12.0,0.0
967,51.0,130.0,120.0,13.0,0.0
968,62.0,4.0,480.0,11.0,0.0
969,58.0,5.0,480.0,12.0,0.0
970,51.0,3.0,120.0,13.0,0.0
971,34.0,117.0,120.0,14.0,0.0
972,50.0,120.0,120.0,13.0,0.0
973,48.0,101.0,120.0,13.0,0.0
974,46.0,133.0,120.0,13.0,0.0
975,57.0,4.0,240.0,11.0,0.0
976,53.0,115.0,240.0,12.0,0.0
977,51.0,1.0,360.0,13.0,0.0
978,29.0,108.0,120.0,14.0,0.0
979,58.0,4.0,120.0,11.0,0.0
980,55.0,106.0,120.0,12.0,0.0
981,60.0,4.0,120.0,11.0,0.0
982,57.0,5.0,120.0,12.0,0.0
983,51.0,133.0,120.0,13.0,0.0
984,62.0,4.0,480.0,11.0,0.0
985,58.0,5.0,480.0,12.0,0.0
986,50.0,109.0,240.0,13.0,0.0
987,34.0,106.0,120.0,14.0,0.0
988,63.0,11.0,120.0,10.0,0.0
989,48.0,99.0,120.0,13.0,0.0
990,62.0,2.0,120.0,10.0,0.0
991,46.0,239.0,120.0,13.0,0.0
992,67.0,11.0,240.0,10.0,0.0
993,70.0,4.0,600.0,11.0,0.0
994,58.0,8.0,600.0,12.0,0.0
995,52.0,109.0,240.0,13.0,0.0
996,65.0,11.0,120.0,10.0,0.0
997,50.0,99.0,120.0,13.0,0.0
998,64.0,21.0,120.0,10.0,0.0
999,48.0,3.0,120.0,13.0,0.0
1000,36.0,106.0,120.0,14.0,0.0
1001,69.0,2.0,120.0,10.0,0.0
1002,60.0,0.0,2040.0,4.0,0.0
1003,65.0,1.0,240.0,2.0,0.0
1004,60.0,5.0,2040.0,5.0,0.0
1005,53.0,1.0,360.0,13.0,0.0
1006,53.0,109.0,240.0,3.0,0.0
1007,29.0,108.0,120.0,14.0,0.0
1008,69.0,3.0,120.0,11.0,0.0
1009,57.0,6.0,120.0,12.0,0.0
1010,67.0,3.0,120.0,11.0,0.0
1011,67.0,1.0,120.0,2.0,0.0
1012,55.0,6.0,120.0,12.0,0.0
1013,55.0,100.0,120.0,3.0,0.0
1014,65.0,4.0,120.0,11.0,0.0
1015,69.0,1.0,120.0,2.0,0.0
1016,53.0,4.0,120.0,12.0,0.0
1017,53.0,6.0,120.0,13.0,0.0
1018,57.0,115.0,120.0,3.0,0.0
1019,72.0,2.0,240.0,10.0,0.0
1020,65.0,9.0,120.0,11.0,0.0
1021,70.0,2.0,360.0,2.0,0.0
1022,48.0,9.0,1680.0,12.0,0.0
1023,53.0,3.0,120.0,13.0,0.0
1024,58.0,4.0,360.0,3.0,0.0
1025,36.0,106.0,120.0,14.0,0.0
1026,64.0,9.0,120.0,11.0,0.0
1027,52.0,109.0,120.0,13.0,0.0
1028,74.0,0.0,120.0,10.0,0.0
1029,62.0,5.0,120.0,11.0,0.0
1030,50.0,99.0,120.0,13.0,0.0
1031,76.0,2.0,120.0,10.0,0.0
1032,60.0,8.0,120.0,11.0,0.0
1033,70.0,1.0,120.0,2.0,0.0
1034,48.0,6.0,120.0,13.0,0.0
1035,58.0,53.0,120.0,3.0,0.0
1036,77.0,65.0,60.0,10.0,0.0
1037,65.0,9.0,360.0,11.0,0.0
1038,70.0,7.0,120.0,2.0,0.0
1039,53.0,4.0,360.0,13.0,0.0
1040,58.0,2.0,120.0,3.0,0.0
1041,29.0,111.0,120.0,14.0,0.0
1042,69.0,7.0,120.0,2.0,0.0
1043,57.0,100.0,120.0,3.0,0.0
1044,67.0,7.0,120.0,2.0,0.0
1045,55.0,100.0,120.0,3.0,0.0
1046,65.0,8.0,120.0,11.0,0.0
1047,65.0,1.0,120.0,2.0,0.0
1048,53.0,6.0,120.0,13.0,0.0
1049,53.0,115.0,120.0,3.0,0.0
1050,72.0,2.0,240.0,10.0,0.0
1051,65.0,9.0,120.0,11.0,0.0
1052,70.0,0.0,360.0,2.0,0.0
1053,53.0,3.0,120.0,13.0,0.0
1054,58.0,4.0,360.0,3.0,0.0
1055,36.0,106.0,120.0,14.0,0.0
1056,64.0,9.0,120.0,11.0,0.0
1057,52.0,109.0,120.0,13.0,0.0
1058,74.0,2.0,120.0,10.0,0.0
1059,62.0,5.0,120.0,11.0,0.0
1060,50.0,99.0,120.0,13.0,0.0
1061,76.0,2.0,120.0,10.0,0.0
1062,60.0,8.0,120.0,11.0,0.0
1063,70.0,1.0,120.0,2.0,0.0
1064,48.0,6.0,120.0,13.0,0.0
1065,58.0,53.0,120.0,3.0,0.0
1066,77.0,62.0,60.0,10.0,0.0
1067,65.0,3.0,120.0,11.0,0.0
1068,70.0,1.0,120.0,2.0,0.0
1069,53.0,1.0,120.0,13.0,0.0
1070,58.0,104.0,120.0,3.0,0.0
1071,57.0,2.0,120.0,3.0,0.0
1072,65.0,2.0,480.0,10.0,0.0
1073,53.0,10.0,480.0,11.0,0.0
1074,69.0,7.0,15.0,2.0,0.0
1075,72.0,0.0,120.0,2.0,0.0
1076,41.0,5.0,480.0,5.0,0.0
1077,45.0,9.0,240.0,12.0,0.0
1078,41.0,1.0,240.0,13.0,0.0
1079,60.0,0.0,120.0,3.0,0.0
1080,57.0,104.0,120.0,3.0,0.0
1081,29.0,111.0,15.0,14.0,0.0
1082,67.0,6.0,120.0,2.0,0.0
1083,70.0,0.0,120.0,2.0,0.0
1084,55.0,2.0,120.0,3.0,0.0
1085,58.0,0.0,120.0,3.0,0.0
1086,69.0,7.0,120.0,2.0,0.0
1087,65.0,0.0,120.0,2.0,0.0
1088,46.0,0.0,240.0,12.0,0.0
1089,43.0,1.0,240.0,13.0,0.0
1090,53.0,98.0,120.0,3.0,0.0
1091,57.0,0.0,120.0,3.0,0.0
1092,31.0,111.0,240.0,14.0,0.0
1093,67.0,0.0,120.0,2.0,0.0
1094,63.0,1.0,120.0,2.0,0.0
1095,55.0,2.0,120.0,3.0,0.0
1096,51.0,0.0,120.0,3.0,0.0
1097,65.0,2.0,360.0,10.0,0.0
1098,77.0,5.0,960.0,0.0,0.0
1099,53.0,3.0,15.0,4.0,0.0
1100,53.0,3.0,360.0,11.0,0.0
1101,65.0,7.0,120.0,2.0,0.0
1102,62.0,0.0,120.0,2.0,0.0
1103,48.0,0.0,240.0,12.0,0.0
1104,41.0,1.0,240.0,5.0,0.0
1105,45.0,1.0,240.0,13.0,0.0
1106,53.0,108.0,120.0,3.0,0.0
1107,50.0,0.0,120.0,3.0,0.0
1108,33.0,2.0,240.0,14.0,0.0
1109,63.0,0.0,120.0,2.0,0.0
1110,60.0,1.0,120.0,2.0,0.0
1111,48.0,113.0,120.0,3.0,0.0
1112,51.0,0.0,120.0,3.0,0.0
1113,70.0,4.0,240.0,1.0,0.0
1114,62.0,0.0,240.0,1.0,0.0
1115,58.0,0.0,240.0,4.0,0.0
1116,65.0,0.0,1560.0,6.0,0.0
1117,53.0,3.0,1560.0,6.0,0.0
1118,58.0,7.0,120.0,2.0,0.0
1119,62.0,0.0,120.0,2.0,0.0
1120,58.0,5.0,360.0,12.0,0.0
1121,50.0,110.0,240.0,5.0,0.0
1122,46.0,1.0,360.0,13.0,0.0
1123,50.0,1.0,120.0,3.0,0.0
1124,46.0,0.0,120.0,3.0,0.0
1125,46.0,109.0,120.0,15.0,0.0
1126,34.0,2.0,360.0,14.0,0.0
1127,72.0,0.0,120.0,1.0,0.0
1128,65.0,0.0,120.0,1.0,0.0
1129,60.0,2.0,120.0,4.0,0.0
1130,53.0,110.0,120.0,5.0,0.0
1131,74.0,0.0,120.0,1.0,0.0
1132,70.0,4.0,120.0,1.0,0.0
1133,62.0,0.0,120.0,4.0,0.0
1134,58.0,1.0,120.0,12.0,0.0
1135,58.0,0.0,120.0,5.0,0.0
1136,46.0,3.0,120.0,13.0,0.0
1137,34.0,116.0,120.0,14.0,0.0
1138,53.0,0.0,120.0,10.0,0.0
1139,63.0,2.0,120.0,10.0,0.0
1140,72.0,4.0,360.0,1.0,0.0
1141,75.0,0.0,360.0,1.0,0.0
1142,63.0,0.0,360.0,4.0,0.0
1143,60.0,4.0,120.0,11.0,0.0
1144,58.0,5.0,120.0,12.0,0.0
1145,60.0,0.0,360.0,5.0,0.0
1146,46.0,2.0,120.0,13.0,0.0
1147,41.0,1.0,120.0,15.0,0.0
1148,34.0,107.0,120.0,14.0,0.0
1149,57.0,5.0,120.0,12.0,0.0
1150,45.0,3.0,120.0,13.0,0.0
1151,33.0,103.0,120.0,14.0,0.0
1152,79.0,5.0,120.0,0.0,0.0
1153,55.0,5.0,120.0,12.0,0.0
1154,43.0,3.0,120.0,13.0,0.0
1155,31.0,102.0,120.0,14.0,0.0
1156,81.0,1.0,120.0,0.0,0.0
1157,75.0,0.0,120.0,1.0,0.0
1158,72.0,0.0,120.0,1.0,0.0
1159,63.0,4.0,120.0,4.0,0.0
1160,53.0,0.0,120.0,12.0,0.0
1161,60.0,3.0,120.0,5.0,0.0
1162,41.0,0.0,120.0,13.0,0.0
1163,29.0,116.0,120.0,14.0,0.0
1164,53.0,1.0,120.0,10.0,0.0
1165,62.0,0.0,120.0,10.0,0.0
1166,82.0,1.0,120.0,0.0,0.0
1167,63.0,0.0,120.0,4.0,0.0
1168,72.0,4.0,120.0,1.0,0.0
1169,58.0,0.0,120.0,11.0,0.0
1170,75.0,0.0,120.0,1.0,0.0
1171,58.0,5.0,360.0,12.0,0.0
1172,60.0,7.0,120.0,5.0,0.0
1173,46.0,1.0,360.0,13.0,0.0
1174,46.0,109.0,120.0,15.0,0.0
1175,34.0,2.0,360.0,14.0,0.0
1176,62.0,4.0,120.0,4.0,0.0
1177,70.0,0.0,120.0,1.0,0.0
1178,74.0,0.0,120.0,1.0,0.0
1179,58.0,110.0,120.0,5.0,0.0
1180,65.0,0.0,120.0,1.0,0.0
1181,60.0,0.0,120.0,4.0,0.0
1182,72.0,2.0,120.0,1.0,0.0
1183,53.0,110.0,120.0,5.0,0.0
1184,62.0,0.0,120.0,1.0,0.0
1185,58.0,0.0,120.0,4.0,0.0
1186,70.0,4.0,120.0,1.0,0.0
1187,58.0,1.0,120.0,12.0,0.0
1188,50.0,0.0,120.0,5.0,0.0
1189,46.0,3.0,120.0,13.0,0.0
1190,34.0,116.0,120.0,14.0,0.0
1191,53.0,0.0,120.0,10.0,0.0
1192,63.0,2.0,120.0,10.0,0.0
1193,77.0,4.0,240.0,0.0,0.0
1194,75.0,0.0,360.0,1.0,0.0
1195,72.0,0.0,360.0,1.0,0.0
1196,60.0,1.0,120.0,11.0,0.0
1197,63.0,4.0,360.0,4.0,0.0
1198,63.0,1.0,360.0,2.0,0.0
1199,65.0,1.0,240.0,2.0,0.0
1200,58.0,5.0,120.0,12.0,0.0
1201,60.0,0.0,360.0,5.0,0.0
1202,46.0,2.0,120.0,13.0,0.0
1203,41.0,1.0,120.0,15.0,0.0
1204,34.0,107.0,120.0,14.0,0.0
1205,57.0,5.0,120.0,12.0,0.0
1206,45.0,3.0,120.0,13.0,0.0
1207,33.0,103.0,120.0,14.0,0.0
1208,79.0,4.0,120.0,0.0,0.0
1209,67.0,0.0,120.0,2.0,0.0
1210,55.0,5.0,120.0,12.0,0.0
1211,43.0,3.0,120.0,13.0,0.0
1212,31.0,102.0,120.0,14.0,0.0
1213,81.0,0.0,120.0,0.0,0.0
1214,63.0,0.0,120.0,4.0,0.0
1215,74.0,0.0,120.0,1.0,0.0
1216,70.0,4.0,120.0,1.0,0.0
1217,63.0,0.0,120.0,2.0,0.0
1218,69.0,105.0,120.0,2.0,0.0
1219,53.0,1.0,120.0,12.0,0.0
1220,60.0,0.0,120.0,5.0,0.0
1221,41.0,3.0,120.0,13.0,0.0
1222,29.0,1.0,120.0,14.0,0.0
1223,62.0,2.0,120.0,10.0,0.0
1224,53.0,0.0,120.0,10.0,0.0
1225,82.0,1.0,120.0,0.0,0.0
1226,58.0,5.0,120.0,11.0,0.0
1227,62.0,4.0,120.0,4.0,0.0
1228,70.0,3.0,120.0,1.0,0.0
1229,74.0,0.0,360.0,1.0,0.0
1230,62.0,116.0,120.0,2.0,0.0
1231,70.0,0.0,120.0,2.0,0.0
1232,58.0,0.0,120.0,5.0,0.0
1233,58.0,5.0,360.0,12.0,0.0
1234,46.0,1.0,360.0,13.0,0.0
1235,62.0,2.0,360.0,3.0,0.0
1236,34.0,103.0,360.0,14.0,0.0
1237,65.0,1.0,240.0,10.0,0.0
1238,84.0,116.0,120.0,0.0,0.0
1239,62.0,3.0,240.0,4.0,0.0
1240,53.0,4.0,240.0,11.0,0.0
1241,50.0,1.0,240.0,5.0,0.0
1242,86.0,0.0,120.0,0.0,0.0
1243,66.0,1.0,120.0,10.0,0.0
1244,84.0,0.0,120.0,0.0,0.0
1245,72.0,4.0,120.0,1.0,0.0
1246,54.0,0.0,120.0,11.0,0.0
1247,62.0,3.0,120.0,4.0,0.0
1248,50.0,1.0,120.0,5.0,0.0
1249,57.0,5.0,120.0,12.0,0.0
1250,45.0,1.0,120.0,13.0,0.0
1251,60.0,2.0,120.0,3.0,0.0
1252,33.0,103.0,120.0,14.0,0.0
1253,67.0,1.0,120.0,10.0,0.0
1254,82.0,1.0,120.0,0.0,0.0
1255,62.0,3.0,120.0,4.0,0.0
1256,55.0,4.0,120.0,11.0,0.0
1257,70.0,0.0,120.0,1.0,0.0
1258,62.0,5.0,120.0,12.0,0.0
1259,50.0,0.0,120.0,5.0,0.0
1260,50.0,1.0,120.0,13.0,0.0
1261,58.0,2.0,120.0,3.0,0.0
1262,38.0,103.0,120.0,14.0,0.0
1263,69.0,1.0,120.0,10.0,0.0
1264,81.0,0.0,120.0,0.0,0.0
1265,78.0,1.0,120.0,0.0,0.0
1266,62.0,3.0,120.0,4.0,0.0
1267,57.0,4.0,120.0,11.0,0.0
1268,69.0,0.0,120.0,1.0,0.0
1269,60.0,5.0,120.0,12.0,0.0
1270,50.0,0.0,120.0,5.0,0.0
1271,48.0,1.0,120.0,13.0,0.0
1272,54.0,2.0,120.0,3.0,0.0
1273,57.0,0.0,120.0,3.0,0.0
1274,36.0,103.0,120.0,14.0,0.0
1275,70.0,1.0,120.0,10.0,0.0
1276,79.0,0.0,120.0,0.0,0.0
1277,58.0,0.0,120.0,11.0,0.0
1278,62.0,3.0,120.0,4.0,0.0
1279,58.0,5.0,120.0,12.0,0.0
1280,50.0,1.0,120.0,5.0,0.0
1281,46.0,1.0,120.0,13.0,0.0
1282,55.0,2.0,120.0,3.0,0.0
1283,34.0,96.0,120.0,14.0,0.0
1284,74.0,2.0,120.0,10.0,0.0
1285,74.0,0.0,120.0,0.0,0.0
1286,77.0,0.0,120.0,0.0,0.0
1287,65.0,2.0,120.0,1.0,0.0
1288,62.0,4.0,120.0,11.0,0.0
1289,67.0,4.0,15.0,1.0,0.0
1290,62.0,4.0,120.0,4.0,0.0
1291,59.0,1.0,120.0,12.0,0.0
1292,62.0,0.0,120.0,5.0,0.0
1293,47.0,1.0,120.0,13.0,0.0
1294,50.0,38.0,120.0,3.0,0.0
1295,53.0,0.0,120.0,3.0,0.0
1296,35.0,8.0,120.0,14.0,0.0
1297,60.0,2.0,60.0,10.0,0.0
1298,76.0,1.0,120.0,0.0,0.0
1299,72.0,0.0,120.0,0.0,0.0
1300,60.0,4.0,60.0,11.0,0.0
1301,60.0,0.0,120.0,4.0,0.0
1302,64.0,2.0,120.0,1.0,0.0
1303,60.0,6.0,120.0,5.0,0.0
1304,60.0,5.0,60.0,12.0,0.0
1305,48.0,3.0,60.0,13.0,0.0
1306,52.0,0.0,120.0,3.0,0.0
1307,48.0,38.0,120.0,3.0,0.0
1308,36.0,46.0,60.0,14.0,0.0
1309,60.0,2.0,60.0,10.0,0.0
1310,64.0,4.0,60.0,11.0,0.0
1311,60.0,5.0,60.0,12.0,0.0
1312,48.0,0.0,60.0,13.0,0.0
1313,36.0,2.0,60.0,14.0,0.0
1314,64.0,2.0,60.0,10.0,0.0
1315,64.0,4.0,60.0,11.0,0.0
1316,60.0,5.0,60.0,12.0,0.0
1317,48.0,3.0,60.0,13.0,0.0
1318,36.0,46.0,60.0,14.0,0.0
1319,64.0,2.0,60.0,10.0,0.0
1320,64.0,4.0,60.0,11.0,0.0
1321,60.0,5.0,60.0,12.0,0.0
1322,48.0,3.0,60.0,13.0,0.0
1323,36.0,46.0,60.0,14.0,0.0
1324,67.0,2.0,60.0,10.0,0.0
1325,64.0,4.0,60.0,11.0,0.0
1326,60.0,5.0,60.0,12.0,0.0
1327,48.0,3.0,60.0,13.0,0.0
1328,36.0,46.0,60.0,14.0,0.0
1329,67.0,2.0,60.0,10.0,0.0
1330,64.0,4.0,60.0,11.0,0.0
1331,60.0,5.0,60.0,12.0,0.0
1332,48.0,3.0,60.0,13.0,0.0
1333,36.0,46.0,60.0,14.0,0.0
1334,72.0,2.0,60.0,10.0,0.0
1335,64.0,4.0,60.0,11.0,0.0
1336,60.0,5.0,60.0,12.0,0.0
1337,48.0,3.0,60.0,13.0,0.0
1338,36.0,46.0,60.0,14.0,0.0
1339,72.0,2.0,60.0,10.0,0.0
1340,64.0,4.0,60.0,11.0,0.0
1341,60.0,5.0,60.0,12.0,0.0
1342,48.0,3.0,60.0,13.0,0.0
1343,36.0,48.0,60.0,14.0,0.0
1344,76.0,2.0,360.0,10.0,0.0
1345,76.0,0.0,480.0,0.0,0.0
1346,60.0,0.0,480.0,4.0,0.0
1347,67.0,1.0,480.0,1.0,0.0
1348,72.0,0.0,480.0,1.0,0.0
1349,64.0,4.0,60.0,11.0,0.0
1350,72.0,1.0,480.0,6.0,0.0
1351,64.0,0.0,480.0,2.0,0.0
1352,67.0,1.0,480.0,2.0,0.0
1353,60.0,5.0,60.0,12.0,0.0
1354,60.0,6.0,480.0,5.0,0.0
1355,48.0,3.0,60.0,13.0,0.0
1356,60.0,38.0,480.0,3.0,0.0
1357,48.0,0.0,480.0,3.0,0.0
1358,36.0,48.0,60.0,14.0,0.0
1359,64.0,4.0,60.0,11.0,0.0
1360,60.0,5.0,60.0,12.0,0.0
1361,48.0,3.0,60.0,13.0,0.0
1362,36.0,48.0,60.0,14.0,0.0
1363,67.0,4.0,60.0,11.0,0.0
1364,60.0,5.0,60.0,12.0,0.0
1365,48.0,3.0,60.0,13.0,0.0
1366,36.0,48.0,60.0,14.0,0.0
1367,67.0,4.0,60.0,11.0,0.0
1368,60.0,5.0,60.0,12.0,0.0
1369,48.0,3.0,60.0,13.0,0.0
1370,36.0,48.0,60.0,14.0,0.0
1371,72.0,4.0,60.0,11.0,0.0
1372,60.0,5.0,60.0,12.0,0.0
1373,48.0,3.0,60.0,13.0,0.0
1374,36.0,46.0,60.0,14.0,0.0
1375,72.0,4.0,60.0,11.0,0.0
1376,60.0,5.0,60.0,12.0,0.0
1377,48.0,3.0,60.0,13.0,0.0
1378,36.0,46.0,60.0,14.0,0.0
1379,60.0,2.0,60.0,10.0,0.0
1380,76.0,4.0,60.0,11.0,0.0
1381,60.0,5.0,60.0,12.0,0.0
1382,48.0,3.0,60.0,13.0,0.0
1383,36.0,46.0,60.0,14.0,0.0
1384,60.0,2.0,60.0,10.0,0.0
1385,76.0,4.0,60.0,11.0,0.0
1386,60.0,5.0,60.0,12.0,0.0
1387,48.0,1.0,60.0,13.0,0.0
1388,36.0,1.0,60.0,14.0,0.0
1389,62.0,6.0,60.0,10.0,0.0
1390,77.0,2.0,120.0,11.0,0.0
1391,59.0,5.0,60.0,12.0,0.0
1392,48.0,3.0,60.0,13.0,0.0
1393,36.0,46.0,60.0,14.0,0.0
1394,62.0,6.0,60.0,10.0,0.0
1395,59.0,5.0,60.0,12.0,0.0
1396,48.0,1.0,60.0,13.0,0.0
1397,36.0,46.0,60.0,14.0,0.0
1398,65.0,6.0,60.0,10.0,0.0
1399,59.0,5.0,60.0,12.0,0.0
1400,48.0,3.0,60.0,13.0,0.0
1401,36.0,46.0,60.0,14.0,0.0
1402,65.0,6.0,60.0,10.0,0.0
1403,59.0,5.0,60.0,12.0,0.0
1404,48.0,3.0,60.0,13.0,0.0
1405,36.0,46.0,60.0,14.0,0.0
1406,71.0,6.0,60.0,10.0,0.0
1407,59.0,5.0,60.0,12.0,0.0
1408,48.0,3.0,60.0,13.0,0.0
1409,36.0,46.0,60.0,14.0,0.0
1410,71.0,6.0,60.0,10.0,0.0
1411,59.0,5.0,60.0,12.0,0.0
1412,48.0,3.0,60.0,13.0,0.0
1413,36.0,46.0,60.0,14.0,0.0
1414,74.0,6.0,60.0,10.0,0.0
1415,59.0,5.0,60.0,12.0,0.0
1416,48.0,3.0,60.0,13.0,0.0
1417,36.0,46.0,60.0,14.0,0.0
1418,74.0,6.0,60.0,10.0,0.0
1419,59.0,5.0,60.0,12.0,0.0
1420,48.0,3.0,60.0,13.0,0.0
1421,36.0,48.0,60.0,14.0,0.0
1422,77.0,2.0,360.0,10.0,0.0
1423,77.0,0.0,480.0,0.0,0.0
1424,71.0,0.0,480.0,1.0,0.0
1425,74.0,0.0,480.0,1.0,0.0
1426,65.0,4.0,60.0,11.0,0.0
1427,60.0,1.0,480.0,4.0,0.0
1428,72.0,1.0,480.0,6.0,0.0
1429,71.0,1.0,480.0,2.0,0.0
1430,65.0,0.0,480.0,2.0,0.0
1431,59.0,5.0,60.0,12.0,0.0
1432,60.0,6.0,480.0,5.0,0.0
1433,48.0,3.0,60.0,13.0,0.0
1434,48.0,38.0,480.0,3.0,0.0
1435,59.0,0.0,480.0,3.0,0.0
1436,36.0,48.0,60.0,14.0,0.0
1437,65.0,4.0,60.0,11.0,0.0
1438,59.0,5.0,60.0,12.0,0.0
1439,48.0,3.0,60.0,13.0,0.0
1440,36.0,48.0,60.0,14.0,0.0
1441,71.0,4.0,60.0,11.0,0.0
1442,59.0,5.0,60.0,12.0,0.0
1443,48.0,3.0,60.0,13.0,0.0
1444,36.0,48.0,60.0,14.0,0.0
1445,71.0,4.0,60.0,11.0,0.0
1446,59.0,5.0,60.0,12.0,0.0
1447,48.0,3.0,60.0,13.0,0.0
1448,36.0,48.0,60.0,14.0,0.0
1449,74.0,4.0,60.0,11.0,0.0
1450,59.0,5.0,60.0,12.0,0.0
1451,48.0,3.0,60.0,13.0,0.0
1452,36.0,46.0,60.0,14.0,0.0
1453,74.0,4.0,60.0,11.0,0.0
1454,59.0,5.0,60.0,12.0,0.0
1455,48.0,3.0,60.0,13.0,0.0
1456,36.0,46.0,60.0,14.0,0.0
1457,62.0,2.0,60.0,10.0,0.0
1458,77.0,4.0,60.0,11.0,0.0
1459,59.0,5.0,60.0,12.0,0.0
1460,48.0,3.0,60.0,13.0,0.0
1461,36.0,46.0,60.0,14.0,0.0
1462,62.0,2.0,60.0,10.0,0.0
1463,77.0,4.0,60.0,11.0,0.0
1464,59.0,5.0,60.0,12.0,0.0
1465,48.0,1.0,60.0,13.0,0.0
1466,36.0,1.0,60.0,14.0,0.0
1467,64.0,6.0,60.0,10.0,0.0
1468,79.0,4.0,120.0,11.0,0.0
1469,58.0,5.0,60.0,12.0,0.0
1470,48.0,3.0,60.0,13.0,0.0
1471,36.0,46.0,60.0,14.0,0.0
1472,64.0,2.0,60.0,10.0,0.0
1473,58.0,5.0,60.0,12.0,0.0
1474,48.0,3.0,60.0,13.0,0.0
1475,36.0,46.0,60.0,14.0,0.0
1476,79.0,2.0,60.0,10.0,0.0
1477,67.0,0.0,60.0,11.0,0.0
1478,64.0,4.0,60.0,11.0,0.0
1479,58.0,5.0,60.0,12.0,0.0
1480,48.0,3.0,60.0,13.0,0.0
1481,36.0,46.0,60.0,14.0,0.0
1482,79.0,2.0,60.0,10.0,0.0
1483,67.0,4.0,60.0,11.0,0.0
1484,64.0,0.0,60.0,11.0,0.0
1485,58.0,5.0,60.0,12.0,0.0
1486,48.0,3.0,60.0,13.0,0.0
1487,36.0,46.0,60.0,14.0,0.0
1488,79.0,2.0,60.0,10.0,0.0
1489,79.0,0.0,240.0,0.0,0.0
1490,67.0,1.0,240.0,1.0,0.0
1491,76.0,0.0,240.0,1.0,0.0
1492,60.0,0.0,240.0,4.0,0.0
1493,67.0,4.0,60.0,11.0,0.0
1494,64.0,0.0,60.0,11.0,0.0
1495,72.0,1.0,240.0,6.0,0.0
1496,67.0,0.0,240.0,2.0,0.0
1497,64.0,1.0,240.0,2.0,0.0
1498,58.0,5.0,60.0,12.0,0.0
1499,60.0,6.0,240.0,5.0,0.0
1500,48.0,3.0,60.0,13.0,0.0
1501,58.0,38.0,240.0,3.0,0.0
1502,55.0,0.0,240.0,3.0,0.0
1503,36.0,46.0,60.0,14.0,0.0
1504,79.0,2.0,60.0,10.0,0.0
1505,67.0,4.0,60.0,11.0,0.0
1506,64.0,0.0,60.0,11.0,0.0
1507,58.0,5.0,60.0,12.0,0.0
1508,48.0,3.0,60.0,13.0,0.0
1509,36.0,46.0,60.0,14.0,0.0
1510,64.0,2.0,60.0,10.0,0.0
1511,67.0,4.0,60.0,11.0,0.0
1512,64.0,0.0,60.0,11.0,0.0
1513,58.0,5.0,60.0,12.0,0.0
1514,48.0,3.0,60.0,13.0,0.0
1515,36.0,46.0,60.0,14.0,0.0
1516,64.0,2.0,60.0,10.0,0.0
1517,64.0,4.0,60.0,11.0,0.0
1518,67.0,0.0,60.0,11.0,0.0
1519,58.0,5.0,60.0,12.0,0.0
1520,48.0,1.0,60.0,13.0,0.0
1521,36.0,1.0,60.0,14.0,0.0
1522,65.0,2.0,60.0,10.0,0.0
1523,69.0,0.0,60.0,11.0,0.0
1524,65.0,4.0,60.0,11.0,0.0
1525,57.0,5.0,60.0,12.0,0.0
1526,48.0,3.0,60.0,13.0,0.0
1527,36.0,46.0,60.0,14.0,0.0
1528,65.0,2.0,60.0,10.0,0.0
1529,69.0,0.0,60.0,11.0,0.0
1530,65.0,4.0,60.0,11.0,0.0
1531,57.0,5.0,60.0,12.0,0.0
1532,48.0,3.0,60.0,13.0,0.0
1533,36.0,46.0,60.0,14.0,0.0
1534,81.0,2.0,60.0,10.0,0.0
1535,69.0,4.0,60.0,11.0,0.0
1536,65.0,0.0,60.0,11.0,0.0
1537,57.0,5.0,60.0,12.0,0.0
1538,48.0,3.0,60.0,13.0,0.0
1539,36.0,46.0,60.0,14.0,0.0
1540,81.0,2.0,60.0,10.0,0.0
1541,69.0,4.0,60.0,11.0,0.0
1542,65.0,0.0,60.0,11.0,0.0
1543,57.0,5.0,60.0,12.0,0.0
1544,48.0,3.0,60.0,13.0,0.0
1545,36.0,46.0,60.0,14.0,0.0
1546,81.0,2.0,60.0,10.0,0.0
1547,81.0,1.0,240.0,0.0,0.0
1548,60.0,0.0,240.0,4.0,0.0
1549,69.0,0.0,240.0,1.0,0.0
1550,77.0,1.0,240.0,1.0,0.0
1551,69.0,4.0,60.0,11.0,0.0
1552,65.0,0.0,60.0,11.0,0.0
1553,65.0,1.0,240.0,2.0,0.0
1554,69.0,0.0,240.0,2.0,0.0
1555,57.0,5.0,60.0,12.0,0.0
1556,60.0,6.0,240.0,5.0,0.0
1557,48.0,3.0,60.0,13.0,0.0
1558,57.0,0.0,240.0,3.0,0.0
1559,53.0,38.0,240.0,3.0,0.0
1560,36.0,46.0,60.0,14.0,0.0
1561,81.0,2.0,60.0,10.0,0.0
1562,69.0,0.0,60.0,11.0,0.0
1563,65.0,4.0,60.0,11.0,0.0
1564,57.0,5.0,60.0,12.0,0.0
1565,48.0,3.0,60.0,13.0,0.0
1566,36.0,46.0,60.0,14.0,0.0
1567,65.0,2.0,60.0,10.0,0.0
1568,65.0,4.0,60.0,11.0,0.0
1569,69.0,0.0,60.0,11.0,0.0
1570,57.0,5.0,60.0,12.0,0.0
1571,48.0,3.0,60.0,13.0,0.0
1572,36.0,46.0,60.0,14.0,0.0
1573,65.0,2.0,60.0,10.0,0.0
1574,65.0,4.0,60.0,11.0,0.0
1575,69.0,0.0,60.0,11.0,0.0
1576,57.0,5.0,60.0,12.0,0.0
1577,48.0,0.0,60.0,13.0,0.0
1578,36.0,1.0,60.0,14.0,0.0
1579,67.0,60.0,60.0,10.0,0.0
1580,82.0,1.0,120.0,0.0,0.0
1581,60.0,0.0,120.0,4.0,0.0
1582,79.0,1.0,120.0,1.0,0.0
1583,70.0,0.0,120.0,1.0,0.0
1584,70.0,0.0,120.0,11.0,0.0
1585,72.0,1.0,15.0,6.0,0.0
1586,64.0,1.0,120.0,2.0,0.0
1587,70.0,0.0,120.0,2.0,0.0
1588,52.0,5.0,120.0,12.0,0.0
1589,60.0,0.0,120.0,5.0,0.0
1590,48.0,1.0,120.0,13.0,0.0
1591,52.0,0.0,120.0,3.0,0.0
1592,55.0,2.0,120.0,3.0,0.0
1593,36.0,36.0,120.0,14.0,0.0
1594,67.0,11.0,60.0,10.0,0.0
1595,82.0,60.0,60.0,10.0,0.0
1596,82.0,60.0,60.0,10.0,0.0
1597,82.0,60.0,60.0,10.0,0.0
1598,82.0,60.0,60.0,10.0,0.0
1599,79.0,60.0,60.0,10.0,0.0
1600,79.0,60.0,60.0,10.0,0.0
1601,76.0,60.0,60.0,10.0,0.0
1602,76.0,60.0,60.0,10.0,0.0
1603,72.0,60.0,60.0,10.0,0.0
1604,72.0,60.0,60.0,10.0,0.0
1605,70.0,60.0,60.0,10.0,0.0
1606,70.0,60.0,60.0,10.0,0.0
1607,67.0,60.0,60.0,10.0,0.0
1608,67.0,70.0,60.0,10.0,0.0
1609,69.0,71.0,60.0,10.0,0.0
1610,72.0,7.0,480.0,2.0,0.0
1611,53.0,3.0,120.0,13.0,0.0
1612,60.0,119.0,480.0,3.0,0.0
1613,41.0,46.0,120.0,14.0,0.0
1614,72.0,2.0,60.0,10.0,0.0
1615,69.0,4.0,60.0,11.0,0.0
1616,57.0,114.0,60.0,12.0,0.0
1617,53.0,0.0,60.0,12.0,0.0
1618,69.0,2.0,60.0,10.0,0.0
1619,65.0,4.0,60.0,11.0,0.0
1620,57.0,0.0,60.0,12.0,0.0
1621,60.0,114.0,60.0,12.0,0.0
1622,72.0,2.0,60.0,10.0,0.0
1623,69.0,4.0,60.0,11.0,0.0
1624,53.0,59.0,60.0,12.0,0.0
1625,57.0,0.0,60.0,12.0,0.0
1626,69.0,7.0,240.0,2.0,0.0
1627,53.0,3.0,120.0,13.0,0.0
1628,57.0,48.0,240.0,3.0,0.0
1629,41.0,46.0,120.0,14.0,0.0
1630,72.0,2.0,60.0,10.0,0.0
1631,69.0,4.0,60.0,11.0,0.0
1632,53.0,59.0,60.0,12.0,0.0
1633,57.0,0.0,60.0,12.0,0.0
1634,69.0,2.0,60.0,10.0,0.0
1635,65.0,4.0,60.0,11.0,0.0
1636,65.0,7.0,240.0,2.0,0.0
1637,60.0,0.0,60.0,12.0,0.0
1638,57.0,114.0,60.0,12.0,0.0
1639,53.0,118.0,240.0,3.0,0.0
1640,72.0,2.0,60.0,10.0,0.0
1641,69.0,4.0,60.0,11.0,0.0
1642,53.0,54.0,60.0,12.0,0.0
1643,57.0,0.0,60.0,12.0,0.0
1644,72.0,129.0,480.0,1.0,0.0
1645,60.0,6.0,120.0,2.0,0.0
1646,52.0,1.0,120.0,13.0,0.0
1647,48.0,2.0,120.0,3.0,0.0
1648,40.0,46.0,120.0,14.0,0.0
1649,72.0,2.0,60.0,10.0,0.0
1650,70.0,4.0,60.0,11.0,0.0
1651,55.0,0.0,60.0,12.0,0.0
1652,58.0,114.0,60.0,12.0,0.0
1653,70.0,2.0,60.0,10.0,0.0
1654,67.0,4.0,60.0,11.0,0.0
1655,60.0,0.0,60.0,12.0,0.0
1656,58.0,114.0,60.0,12.0,0.0
1657,72.0,2.0,60.0,10.0,0.0
1658,70.0,4.0,60.0,11.0,0.0
1659,58.0,0.0,60.0,12.0,0.0
1660,55.0,56.0,60.0,12.0,0.0
1661,84.0,1.0,480.0,0.0,0.0
1662,70.0,58.0,240.0,1.0,0.0
1663,48.0,3.0,120.0,13.0,0.0
1664,36.0,46.0,120.0,14.0,0.0
1665,79.0,2.0,60.0,10.0,0.0
1666,70.0,4.0,60.0,11.0,0.0
1667,58.0,0.0,60.0,12.0,0.0
1668,55.0,54.0,60.0,12.0,0.0
1669,77.0,2.0,60.0,10.0,0.0
1670,76.0,2.0,60.0,10.0,0.0
1671,67.0,63.0,240.0,1.0,0.0
1672,67.0,4.0,60.0,11.0,0.0
1673,60.0,54.0,60.0,12.0,0.0
1674,58.0,0.0,60.0,12.0,0.0
1675,74.0,60.0,60.0,10.0,0.0
1676,72.0,2.0,60.0,10.0,0.0
1677,70.0,4.0,60.0,11.0,0.0
1678,55.0,44.0,60.0,12.0,0.0
1679,58.0,0.0,60.0,12.0,0.0
1680,76.0,6.0,60.0,10.0,0.0
1681,77.0,2.0,60.0,10.0,0.0
1682,81.0,1.0,120.0,0.0,0.0
1683,69.0,9.0,120.0,1.0,0.0
1684,69.0,4.0,60.0,11.0,0.0
1685,72.0,7.0,480.0,2.0,0.0
1686,57.0,55.0,60.0,12.0,0.0
1687,53.0,0.0,60.0,12.0,0.0
1688,53.0,3.0,120.0,13.0,0.0
1689,60.0,119.0,480.0,3.0,0.0
1690,41.0,46.0,120.0,14.0,0.0
1691,72.0,2.0,60.0,10.0,0.0
1692,69.0,4.0,60.0,11.0,0.0
1693,60.0,0.0,60.0,12.0,0.0
1694,57.0,114.0,60.0,12.0,0.0
1695,69.0,2.0,60.0,10.0,0.0
1696,65.0,4.0,60.0,11.0,0.0
1697,57.0,0.0,60.0,12.0,0.0
1698,53.0,114.0,60.0,12.0,0.0
1699,72.0,2.0,60.0,10.0,0.0
1700,69.0,4.0,60.0,11.0,0.0
1701,57.0,0.0,60.0,12.0,0.0
1702,60.0,59.0,60.0,12.0,0.0
1703,69.0,7.0,240.0,2.0,0.0
1704,53.0,3.0,120.0,13.0,0.0
1705,57.0,48.0,240.0,3.0,0.0
1706,41.0,46.0,120.0,14.0,0.0
1707,72.0,2.0,60.0,10.0,0.0
1708,69.0,4.0,60.0,11.0,0.0
1709,57.0,59.0,60.0,12.0,0.0
1710,53.0,0.0,60.0,12.0,0.0
1711,69.0,2.0,60.0,10.0,0.0
1712,65.0,4.0,60.0,11.0,0.0
1713,65.0,7.0,240.0,2.0,0.0
1714,60.0,0.0,60.0,12.0,0.0
1715,57.0,114.0,60.0,12.0,0.0
1716,53.0,118.0,240.0,3.0,0.0
1717,72.0,2.0,60.0,10.0,0.0
1718,69.0,4.0,60.0,11.0,0.0
1719,53.0,0.0,60.0,12.0,0.0
1720,57.0,54.0,60.0,12.0,0.0
1721,72.0,129.0,480.0,1.0,0.0
1722,60.0,6.0,120.0,2.0,0.0
1723,52.0,1.0,120.0,13.0,0.0
1724,48.0,2.0,120.0,3.0,0.0
1725,40.0,46.0,120.0,14.0,0.0
1726,72.0,2.0,60.0,10.0,0.0
1727,70.0,4.0,60.0,11.0,0.0
1728,55.0,0.0,60.0,12.0,0.0
1729,58.0,114.0,60.0,12.0,0.0
1730,70.0,2.0,60.0,10.0,0.0
1731,67.0,4.0,60.0,11.0,0.0
1732,60.0,0.0,60.0,12.0,0.0
1733,58.0,114.0,60.0,12.0,0.0
1734,72.0,2.0,60.0,10.0,0.0
1735,70.0,4.0,60.0,11.0,0.0
1736,58.0,0.0,60.0,12.0,0.0
1737,55.0,56.0,60.0,12.0,0.0
1738,84.0,1.0,480.0,0.0,0.0
1739,70.0,58.0,240.0,1.0,0.0
1740,48.0,3.0,120.0,13.0,0.0
1741,36.0,46.0,120.0,14.0,0.0
1742,79.0,2.0,60.0,10.0,0.0
1743,70.0,4.0,60.0,11.0,0.0
1744,58.0,0.0,60.0,12.0,0.0
1745,55.0,54.0,60.0,12.0,0.0
1746,77.0,2.0,60.0,10.0,0.0
1747,76.0,2.0,60.0,10.0,0.0
1748,67.0,58.0,120.0,1.0,0.0
1749,67.0,4.0,60.0,11.0,0.0
1750,60.0,54.0,60.0,12.0,0.0
1751,58.0,0.0,60.0,12.0,0.0
1752,74.0,2.0,60.0,10.0,0.0
1753,72.0,2.0,60.0,10.0,0.0
1754,72.0,63.0,120.0,1.0,0.0
1755,70.0,4.0,60.0,11.0,0.0
1756,55.0,0.0,60.0,12.0,0.0
1757,58.0,44.0,60.0,12.0,0.0
1758,76.0,6.0,60.0,10.0,0.0
1759,77.0,2.0,60.0,10.0,0.0
1760,81.0,10.0,120.0,0.0,0.0
1761,69.0,4.0,60.0,11.0,0.0
1762,72.0,10.0,480.0,1.0,0.0
1763,57.0,55.0,60.0,12.0,0.0
1764,53.0,0.0,60.0,12.0,0.0
1765,53.0,3.0,120.0,13.0,0.0
1766,60.0,119.0,480.0,3.0,0.0
1767,41.0,46.0,120.0,14.0,0.0
1768,72.0,2.0,60.0,10.0,0.0
1769,69.0,4.0,60.0,11.0,0.0
1770,57.0,114.0,60.0,12.0,0.0
1771,53.0,0.0,60.0,12.0,0.0
1772,69.0,2.0,60.0,10.0,0.0
1773,65.0,4.0,60.0,11.0,0.0
1774,57.0,0.0,60.0,12.0,0.0
1775,60.0,114.0,60.0,12.0,0.0
1776,72.0,2.0,60.0,10.0,0.0
1777,69.0,4.0,60.0,11.0,0.0
1778,53.0,0.0,60.0,12.0,0.0
1779,57.0,56.0,60.0,12.0,0.0
1780,74.0,10.0,960.0,1.0,0.0
1781,50.0,3.0,120.0,13.0,0.0
1782,62.0,119.0,960.0,3.0,0.0
1783,38.0,46.0,120.0,14.0,0.0
1784,74.0,2.0,60.0,10.0,0.0
1785,69.0,4.0,60.0,11.0,0.0
1786,57.0,0.0,60.0,12.0,0.0
1787,54.0,114.0,60.0,12.0,0.0
1788,69.0,2.0,60.0,10.0,0.0
1789,66.0,4.0,60.0,11.0,0.0
1790,57.0,0.0,60.0,12.0,0.0
1791,62.0,114.0,60.0,12.0,0.0
1792,74.0,2.0,60.0,10.0,0.0
1793,69.0,4.0,60.0,11.0,0.0
1794,57.0,0.0,60.0,12.0,0.0
1795,54.0,185.0,60.0,12.0,0.0
1796,55.0,3.0,120.0,13.0,0.0
1797,43.0,46.0,120.0,14.0,0.0
1798,74.0,2.0,60.0,10.0,0.0
1799,70.0,4.0,60.0,11.0,0.0
1800,58.0,114.0,60.0,12.0,0.0
1801,55.0,0.0,60.0,12.0,0.0
1802,70.0,2.0,60.0,10.0,0.0
1803,67.0,4.0,60.0,11.0,0.0
1804,62.0,0.0,60.0,12.0,0.0
1805,58.0,114.0,60.0,12.0,0.0
1806,74.0,2.0,60.0,10.0,0.0
1807,70.0,4.0,60.0,11.0,0.0
1808,55.0,0.0,60.0,12.0,0.0
1809,58.0,56.0,60.0,12.0,0.0
1810,65.0,4.0,1320.0,4.0,0.0
1811,53.0,54.0,1320.0,5.0,0.0
1812,53.0,3.0,120.0,13.0,0.0
1813,63.0,119.0,480.0,3.0,0.0
1814,41.0,46.0,120.0,14.0,0.0
1815,77.0,2.0,60.0,10.0,0.0
1816,72.0,4.0,60.0,11.0,0.0
1817,60.0,0.0,60.0,12.0,0.0
1818,57.0,114.0,60.0,12.0,0.0
1819,72.0,2.0,60.0,10.0,0.0
1820,69.0,4.0,60.0,11.0,0.0
1821,65.0,114.0,60.0,12.0,0.0
1822,60.0,0.0,60.0,12.0,0.0
1823,77.0,2.0,60.0,10.0,0.0
1824,72.0,4.0,60.0,11.0,0.0
1825,60.0,0.0,60.0,12.0,0.0
1826,57.0,66.0,60.0,12.0,0.0
1827,58.0,3.0,120.0,13.0,0.0
1828,62.0,48.0,720.0,3.0,0.0
1829,46.0,46.0,120.0,14.0,0.0
1830,77.0,2.0,60.0,10.0,0.0
1831,74.0,4.0,60.0,11.0,0.0
1832,58.0,0.0,60.0,12.0,0.0
1833,62.0,114.0,60.0,12.0,0.0
1834,74.0,2.0,60.0,10.0,0.0
1835,70.0,4.0,60.0,11.0,0.0
1836,65.0,0.0,60.0,12.0,0.0
1837,62.0,114.0,60.0,12.0,0.0
1838,77.0,2.0,60.0,10.0,0.0
1839,74.0,4.0,60.0,11.0,0.0
1840,58.0,56.0,60.0,12.0,0.0
1841,62.0,0.0,60.0,12.0,0.0
1842,77.0,129.0,15.0,1.0,0.0
1843,46.0,1.0,120.0,13.0,0.0
1844,46.0,2.0,120.0,3.0,0.0
1845,34.0,46.0,120.0,14.0,0.0
1846,74.0,2.0,60.0,10.0,0.0
1847,70.0,4.0,60.0,11.0,0.0
1848,55.0,0.0,60.0,12.0,0.0
1849,50.0,56.0,60.0,12.0,0.0
1850,70.0,2.0,60.0,10.0,0.0
1851,67.0,4.0,60.0,11.0,0.0
1852,74.0,0.0,180.0,1.0,0.0
1853,58.0,56.0,60.0,12.0,0.0
1854,55.0,0.0,60.0,12.0,0.0
1855,58.0,45.0,180.0,3.0,0.0
1856,74.0,2.0,60.0,10.0,0.0
1857,70.0,4.0,60.0,11.0,0.0
1858,58.0,4.0,120.0,4.0,0.0
1859,50.0,6.0,60.0,12.0,0.0
1860,55.0,0.0,60.0,12.0,0.0
1861,58.0,1.0,120.0,5.0,0.0
1862,70.0,5.0,60.0,1.0,0.0
1863,55.0,115.0,60.0,3.0,0.0
1864,69.0,10.0,240.0,1.0,0.0
1865,60.0,4.0,120.0,4.0,0.0
1866,60.0,5.0,120.0,5.0,0.0
1867,48.0,1.0,120.0,13.0,0.0
1868,48.0,2.0,120.0,3.0,0.0
1869,53.0,48.0,240.0,3.0,0.0
1870,36.0,46.0,120.0,14.0,0.0
1871,72.0,2.0,60.0,10.0,0.0
1872,69.0,4.0,60.0,11.0,0.0
1873,53.0,0.0,60.0,12.0,0.0
1874,57.0,56.0,60.0,12.0,0.0
1875,69.0,2.0,60.0,10.0,0.0
1876,60.0,4.0,120.0,4.0,0.0
1877,72.0,10.0,480.0,1.0,0.0
1878,65.0,4.0,60.0,11.0,0.0
1879,60.0,54.0,120.0,5.0,0.0
1880,60.0,56.0,60.0,12.0,0.0
1881,57.0,0.0,60.0,12.0,0.0
1882,57.0,48.0,480.0,3.0,0.0
1883,72.0,2.0,60.0,10.0,0.0
1884,69.0,4.0,60.0,11.0,0.0
1885,53.0,185.0,60.0,12.0,0.0
1886,57.0,0.0,60.0,12.0,0.0
1887,48.0,1.0,120.0,13.0,0.0
1888,48.0,2.0,120.0,3.0,0.0
1889,36.0,46.0,120.0,14.0,0.0
1890,72.0,2.0,60.0,10.0,0.0
1891,67.0,4.0,60.0,11.0,0.0
1892,52.0,56.0,60.0,12.0,0.0
1893,55.0,0.0,60.0,12.0,0.0
1894,67.0,2.0,60.0,10.0,0.0
1895,64.0,4.0,60.0,11.0,0.0
1896,70.0,0.0,180.0,1.0,0.0
1897,60.0,4.0,120.0,4.0,0.0
1898,60.0,0.0,60.0,12.0,0.0
1899,55.0,56.0,60.0,12.0,0.0
1900,60.0,54.0,120.0,5.0,0.0
1901,55.0,40.0,180.0,3.0,0.0
1902,72.0,2.0,60.0,10.0,0.0
1903,67.0,4.0,60.0,11.0,0.0
1904,52.0,0.0,60.0,12.0,0.0
1905,55.0,6.0,60.0,12.0,0.0
1906,67.0,10.0,60.0,1.0,0.0
1907,52.0,58.0,60.0,3.0,0.0
1908,72.0,2.0,60.0,10.0,0.0
1909,84.0,4.0,480.0,0.0,0.0
1910,65.0,0.0,120.0,1.0,0.0
1911,68.0,4.0,60.0,11.0,0.0
1912,60.0,4.0,120.0,4.0,0.0
1913,72.0,7.0,480.0,2.0,0.0
1914,53.0,0.0,60.0,12.0,0.0
1915,56.0,56.0,60.0,12.0,0.0
1916,53.0,5.0,120.0,5.0,0.0
1917,53.0,1.0,120.0,13.0,0.0
1918,60.0,119.0,480.0,3.0,0.0
1919,53.0,2.0,120.0,3.0,0.0
1920,41.0,46.0,120.0,14.0,0.0
1921,72.0,2.0,60.0,10.0,0.0
1922,68.0,4.0,60.0,11.0,0.0
1923,56.0,114.0,60.0,12.0,0.0
1924,53.0,0.0,60.0,12.0,0.0
1925,68.0,2.0,60.0,10.0,0.0
1926,65.0,4.0,60.0,11.0,0.0
1927,60.0,114.0,60.0,12.0,0.0
1928,56.0,0.0,60.0,12.0,0.0
1929,72.0,2.0,60.0,10.0,0.0
1930,68.0,4.0,60.0,11.0,0.0
1931,56.0,0.0,60.0,12.0,0.0
1932,53.0,55.0,60.0,12.0,0.0
1933,80.0,4.0,240.0,0.0,0.0
1934,68.0,7.0,240.0,2.0,0.0
1935,53.0,3.0,120.0,13.0,0.0
1936,56.0,48.0,240.0,3.0,0.0
1937,41.0,46.0,120.0,14.0,0.0
1938,72.0,2.0,60.0,10.0,0.0
1939,68.0,4.0,60.0,11.0,0.0
1940,53.0,0.0,60.0,12.0,0.0
1941,56.0,55.0,60.0,12.0,0.0
1942,68.0,2.0,60.0,10.0,0.0
1943,77.0,4.0,240.0,0.0,0.0
1944,65.0,4.0,60.0,11.0,0.0
1945,65.0,7.0,240.0,2.0,0.0
1946,56.0,0.0,60.0,12.0,0.0
1947,60.0,114.0,60.0,12.0,0.0
1948,53.0,114.0,240.0,3.0,0.0
1949,72.0,2.0,60.0,10.0,0.0
1950,68.0,4.0,60.0,11.0,0.0
1951,53.0,50.0,60.0,12.0,0.0
1952,56.0,0.0,60.0,12.0,0.0
1953,72.0,4.0,120.0,0.0,0.0
1954,72.0,129.0,480.0,1.0,0.0
1955,60.0,6.0,120.0,2.0,0.0
1956,52.0,1.0,120.0,13.0,0.0
1957,48.0,2.0,120.0,3.0,0.0
1958,40.0,46.0,120.0,14.0,0.0
1959,72.0,2.0,60.0,10.0,0.0
1960,70.0,4.0,60.0,11.0,0.0
1961,58.0,0.0,60.0,12.0,0.0
1962,55.0,114.0,60.0,12.0,0.0
1963,70.0,2.0,60.0,10.0,0.0
1964,67.0,4.0,60.0,11.0,0.0
1965,58.0,0.0,60.0,12.0,0.0
1966,60.0,114.0,60.0,12.0,0.0
1967,72.0,2.0,60.0,10.0,0.0
1968,70.0,4.0,60.0,11.0,0.0
1969,55.0,56.0,60.0,12.0,0.0
1970,58.0,0.0,60.0,12.0,0.0
1971,84.0,1.0,480.0,0.0,0.0
1972,70.0,58.0,240.0,1.0,0.0
1973,48.0,3.0,120.0,13.0,0.0
1974,36.0,46.0,120.0,14.0,0.0
1975,79.0,2.0,60.0,10.0,0.0
1976,70.0,4.0,60.0,11.0,0.0
1977,58.0,54.0,60.0,12.0,0.0
1978,55.0,0.0,60.0,12.0,0.0
1979,77.0,2.0,60.0,10.0,0.0
1980,76.0,2.0,60.0,10.0,0.0
1981,67.0,63.0,240.0,1.0,0.0
1982,67.0,4.0,60.0,11.0,0.0
1983,58.0,54.0,60.0,12.0,0.0
1984,60.0,0.0,60.0,12.0,0.0
1985,74.0,60.0,60.0,10.0,0.0
1986,72.0,2.0,60.0,10.0,0.0
1987,70.0,4.0,60.0,11.0,0.0
1988,58.0,0.0,60.0,12.0,0.0
1989,55.0,44.0,60.0,12.0,0.0
1990,76.0,6.0,60.0,10.0,0.0
1991,77.0,2.0,60.0,10.0,0.0
1992,80.0,1.0,120.0,0.0,0.0
1993,68.0,9.0,120.0,1.0,0.0
1994,68.0,4.0,60.0,11.0,0.0
1995,56.0,55.0,60.0,12.0,0.0
1996,53.0,0.0,60.0,12.0,0.0
1997,53.0,3.0,120.0,13.0,0.0
1998,60.0,48.0,720.0,3.0,0.0
1999,41.0,46.0,120.0,14.0,0.0
2000,72.0,2.0,60.0,10.0,0.0
2001,68.0,4.0,60.0,11.0,0.0
2002,56.0,0.0,60.0,12.0,0.0
2003,53.0,114.0,60.0,12.0,0.0
2004,68.0,2.0,60.0,10.0,0.0
2005,65.0,4.0,60.0,11.0,0.0
2006,56.0,114.0,60.0,12.0,0.0
2007,60.0,0.0,60.0,12.0,0.0
2008,72.0,2.0,60.0,10.0,0.0
2009,68.0,4.0,60.0,11.0,0.0
2010,53.0,0.0,60.0,12.0,0.0
2011,56.0,185.0,60.0,12.0,0.0
2012,53.0,3.0,120.0,13.0,0.0
2013,41.0,46.0,120.0,14.0,0.0
2014,72.0,2.0,60.0,10.0,0.0
2015,68.0,4.0,60.0,11.0,0.0
2016,53.0,66.0,60.0,12.0,0.0
2017,56.0,0.0,60.0,12.0,0.0
2018,68.0,2.0,60.0,10.0,0.0
2019,65.0,4.0,60.0,11.0,0.0
2020,56.0,0.0,60.0,12.0,0.0
2021,60.0,66.0,60.0,12.0,0.0
2022,58.0,48.0,120.0,3.0,0.0
2023,72.0,2.0,60.0,10.0,0.0
2024,68.0,4.0,60.0,11.0,0.0
2025,56.0,61.0,60.0,12.0,0.0
2026,53.0,0.0,60.0,12.0,0.0
2027,56.0,124.0,120.0,3.0,0.0
2028,51.0,3.0,120.0,13.0,0.0
2029,63.0,48.0,1200.0,3.0,0.0
2030,39.0,46.0,120.0,14.0,0.0
2031,75.0,2.0,60.0,10.0,0.0
2032,70.0,4.0,60.0,11.0,0.0
2033,58.0,114.0,60.0,12.0,0.0
2034,55.0,0.0,60.0,12.0,0.0
2035,70.0,2.0,60.0,10.0,0.0
2036,67.0,4.0,60.0,11.0,0.0
2037,58.0,114.0,60.0,12.0,0.0
2038,63.0,0.0,60.0,12.0,0.0
2039,75.0,2.0,60.0,10.0,0.0
2040,70.0,4.0,60.0,11.0,0.0
2041,58.0,185.0,60.0,12.0,0.0
2042,55.0,0.0,60.0,12.0,0.0
2043,75.0,5.0,960.0,1.0,0.0
2044,49.0,3.0,120.0,13.0,0.0
2045,37.0,46.0,120.0,14.0,0.0
2046,75.0,2.0,60.0,10.0,0.0
2047,70.0,4.0,60.0,11.0,0.0
2048,58.0,114.0,60.0,12.0,0.0
2049,55.0,0.0,60.0,12.0,0.0
2050,70.0,2.0,60.0,10.0,0.0
2051,67.0,4.0,60.0,11.0,0.0
2052,58.0,0.0,60.0,12.0,0.0
2053,63.0,114.0,60.0,12.0,0.0
2054,75.0,2.0,60.0,10.0,0.0
2055,70.0,4.0,60.0,11.0,0.0
2056,58.0,0.0,60.0,12.0,0.0
2057,55.0,185.0,60.0,12.0,0.0
2058,48.0,3.0,120.0,13.0,0.0
2059,36.0,46.0,120.0,14.0,0.0
2060,75.0,2.0,60.0,10.0,0.0
2061,72.0,4.0,60.0,11.0,0.0
2062,56.0,66.0,60.0,12.0,0.0
2063,60.0,0.0,60.0,12.0,0.0
2064,72.0,2.0,60.0,10.0,0.0
2065,68.0,4.0,60.0,11.0,0.0
2066,60.0,0.0,60.0,12.0,0.0
2067,63.0,66.0,60.0,12.0,0.0
2068,61.0,48.0,120.0,3.0,0.0
2069,75.0,2.0,60.0,10.0,0.0
2070,72.0,4.0,60.0,11.0,0.0
2071,56.0,56.0,60.0,12.0,0.0
2072,60.0,0.0,60.0,12.0,0.0
2073,60.0,124.0,120.0,3.0,0.0
2074,73.0,10.0,240.0,1.0,0.0
2075,49.0,3.0,120.0,13.0,0.0
2076,58.0,48.0,240.0,3.0,0.0
2077,37.0,46.0,120.0,14.0,0.0
2078,73.0,2.0,60.0,10.0,0.0
2079,65.0,4.0,60.0,11.0,0.0
2080,58.0,0.0,60.0,12.0,0.0
2081,49.0,56.0,60.0,12.0,0.0
2082,70.0,2.0,60.0,10.0,0.0
2083,61.0,4.0,60.0,11.0,0.0
2084,75.0,10.0,120.0,1.0,0.0
2085,61.0,0.0,60.0,12.0,0.0
2086,53.0,56.0,60.0,12.0,0.0
2087,60.0,48.0,120.0,3.0,0.0
2088,73.0,2.0,60.0,10.0,0.0
2089,77.0,10.0,120.0,1.0,0.0
2090,65.0,4.0,60.0,11.0,0.0
2091,49.0,51.0,60.0,12.0,0.0
2092,58.0,0.0,60.0,12.0,0.0
2093,61.0,124.0,120.0,3.0,0.0
2094,68.0,10.0,480.0,1.0,0.0
2095,51.0,3.0,120.0,13.0,0.0
2096,56.0,119.0,480.0,3.0,0.0
2097,39.0,46.0,120.0,14.0,0.0
2098,72.0,2.0,60.0,10.0,0.0
2099,63.0,4.0,60.0,11.0,0.0
2100,56.0,114.0,60.0,12.0,0.0
2101,48.0,0.0,60.0,12.0,0.0
2102,68.0,2.0,60.0,10.0,0.0
2103,60.0,4.0,60.0,11.0,0.0
2104,60.0,0.0,60.0,12.0,0.0
2105,51.0,114.0,60.0,12.0,0.0
2106,72.0,2.0,60.0,10.0,0.0
2107,63.0,4.0,60.0,11.0,0.0
2108,48.0,0.0,60.0,12.0,0.0
2109,56.0,56.0,60.0,12.0,0.0
2110,67.0,10.0,480.0,1.0,0.0
2111,39.0,3.0,120.0,13.0,0.0
2112,55.0,124.0,480.0,3.0,0.0
2113,27.0,46.0,120.0,14.0,0.0
2114,70.0,2.0,60.0,10.0,0.0
2115,61.0,4.0,60.0,11.0,0.0
2116,55.0,114.0,60.0,12.0,0.0
2117,46.0,0.0,60.0,12.0,0.0
2118,67.0,2.0,60.0,10.0,0.0
2119,58.0,4.0,60.0,11.0,0.0
2120,58.0,0.0,60.0,12.0,0.0
2121,49.0,114.0,60.0,12.0,0.0
2122,70.0,2.0,60.0,10.0,0.0
2123,61.0,4.0,60.0,11.0,0.0
2124,46.0,51.0,60.0,12.0,0.0
2125,55.0,0.0,60.0,12.0,0.0
2126,84.0,1.0,480.0,0.0,0.0
2127,72.0,10.0,480.0,1.0,0.0
2128,44.0,3.0,120.0,13.0,0.0
2129,60.0,119.0,480.0,3.0,0.0
2130,32.0,46.0,120.0,14.0,0.0
2131,72.0,2.0,60.0,10.0,0.0
2132,68.0,4.0,60.0,11.0,0.0
2133,56.0,0.0,60.0,12.0,0.0
2134,53.0,114.0,60.0,12.0,0.0
2135,68.0,2.0,60.0,10.0,0.0
2136,65.0,4.0,60.0,11.0,0.0
2137,56.0,0.0,60.0,12.0,0.0
2138,60.0,114.0,60.0,12.0,0.0
2139,72.0,2.0,60.0,10.0,0.0
2140,68.0,4.0,60.0,11.0,0.0
2141,53.0,55.0,60.0,12.0,0.0
2142,56.0,0.0,60.0,12.0,0.0
2143,82.0,1.0,240.0,0.0,0.0
2144,70.0,10.0,240.0,1.0,0.0
2145,46.0,3.0,120.0,13.0,0.0
2146,58.0,48.0,240.0,3.0,0.0
2147,34.0,46.0,120.0,14.0,0.0
2148,70.0,2.0,60.0,10.0,0.0
2149,66.0,4.0,60.0,11.0,0.0
2150,49.0,0.0,60.0,12.0,0.0
2151,54.0,55.0,60.0,12.0,0.0
2152,66.0,2.0,60.0,10.0,0.0
2153,84.0,1.0,120.0,0.0,0.0
2154,72.0,10.0,120.0,1.0,0.0
2155,61.0,4.0,60.0,11.0,0.0
2156,58.0,0.0,60.0,12.0,0.0
2157,54.0,55.0,60.0,12.0,0.0
2158,60.0,48.0,120.0,3.0,0.0
2159,70.0,2.0,60.0,10.0,0.0
2160,85.0,1.0,120.0,0.0,0.0
2161,66.0,4.0,60.0,11.0,0.0
2162,73.0,10.0,120.0,1.0,0.0
2163,49.0,0.0,60.0,12.0,0.0
2164,54.0,50.0,60.0,12.0,0.0
2165,61.0,124.0,120.0,3.0,0.0
2166,77.0,1.0,480.0,0.0,0.0
2167,65.0,10.0,480.0,1.0,0.0
2168,48.0,3.0,120.0,13.0,0.0
2169,53.0,119.0,480.0,3.0,0.0
2170,36.0,46.0,120.0,14.0,0.0
2171,68.0,2.0,60.0,10.0,0.0
2172,65.0,4.0,60.0,11.0,0.0
2173,48.0,114.0,60.0,12.0,0.0
2174,53.0,0.0,60.0,12.0,0.0
2175,65.0,2.0,60.0,10.0,0.0
2176,60.0,4.0,60.0,11.0,0.0
2177,56.0,0.0,60.0,12.0,0.0
2178,53.0,114.0,60.0,12.0,0.0
2179,68.0,2.0,60.0,10.0,0.0
2180,65.0,4.0,60.0,11.0,0.0
2181,48.0,55.0,60.0,12.0,0.0
2182,53.0,0.0,60.0,12.0,0.0
2183,76.0,1.0,480.0,0.0,0.0
2184,64.0,10.0,480.0,1.0,0.0
2185,48.0,3.0,120.0,13.0,0.0
2186,52.0,38.0,480.0,3.0,0.0
2187,36.0,46.0,120.0,14.0,0.0
2188,67.0,2.0,60.0,10.0,0.0
2189,64.0,4.0,60.0,11.0,0.0
2190,52.0,114.0,60.0,12.0,0.0
2191,48.0,0.0,60.0,12.0,0.0
2192,64.0,2.0,60.0,10.0,0.0
2193,60.0,4.0,60.0,11.0,0.0
2194,52.0,114.0,60.0,12.0,0.0
2195,55.0,0.0,60.0,12.0,0.0
2196,67.0,2.0,60.0,10.0,0.0
2197,64.0,4.0,60.0,11.0,0.0
2198,48.0,55.0,60.0,12.0,0.0
2199,52.0,0.0,60.0,12.0,0.0
2200,72.0,2.0,60.0,10.0,0.0
2201,60.0,14.0,60.0,11.0,0.0
2202,72.0,48.0,480.0,1.0,0.0
2203,65.0,0.0,960.0,4.0,0.0
2204,53.0,2.0,960.0,6.0,0.0
2205,65.0,0.0,960.0,6.0,0.0
2206,60.0,45.0,840.0,2.0,0.0
2207,41.0,44.0,960.0,5.0,0.0
2208,45.0,5.0,60.0,12.0,0.0
2209,45.0,1.0,60.0,13.0,0.0
2210,45.0,2.0,60.0,3.0,0.0
2211,41.0,37.0,120.0,15.0,0.0
2212,33.0,36.0,60.0,14.0,0.0
2213,72.0,2.0,60.0,10.0,0.0
2214,60.0,21.0,60.0,11.0,0.0
2215,72.0,2.0,60.0,10.0,0.0
2216,60.0,14.0,60.0,11.0,0.0
2217,48.0,5.0,60.0,12.0,0.0
2218,48.0,1.0,60.0,13.0,0.0
2219,48.0,2.0,60.0,3.0,0.0
2220,36.0,36.0,60.0,14.0,0.0
2221,72.0,2.0,60.0,10.0,0.0
2222,60.0,58.0,60.0,11.0,0.0
2223,72.0,2.0,60.0,10.0,0.0
2224,60.0,14.0,60.0,11.0,0.0
2225,53.0,5.0,60.0,12.0,0.0
2226,53.0,1.0,60.0,13.0,0.0
2227,53.0,2.0,60.0,3.0,0.0
2228,41.0,36.0,60.0,14.0,0.0
2229,72.0,2.0,60.0,10.0,0.0
2230,60.0,58.0,60.0,11.0,0.0
2231,72.0,2.0,60.0,10.0,0.0
2232,60.0,14.0,60.0,11.0,0.0
2233,57.0,5.0,60.0,12.0,0.0
2234,57.0,1.0,60.0,13.0,0.0
2235,57.0,2.0,60.0,3.0,0.0
2236,45.0,36.0,60.0,14.0,0.0
2237,72.0,2.0,60.0,10.0,0.0
2238,60.0,10.0,60.0,11.0,0.0
2239,69.0,2.0,60.0,10.0,0.0
2240,69.0,3.0,360.0,1.0,0.0
2241,57.0,58.0,60.0,11.0,0.0
2242,60.0,4.0,330.0,12.0,0.0
2243,60.0,1.0,330.0,13.0,0.0
2244,60.0,2.0,330.0,3.0,0.0
2245,48.0,8.0,330.0,14.0,0.0
2246,69.0,2.0,60.0,10.0,0.0
2247,57.0,58.0,60.0,11.0,0.0
2248,69.0,2.0,60.0,10.0,0.0
2249,57.0,58.0,60.0,11.0,0.0
2250,69.0,2.0,60.0,10.0,0.0
2251,57.0,58.0,60.0,11.0,0.0
2252,69.0,2.0,60.0,10.0,0.0
2253,57.0,54.0,60.0,11.0,0.0
2254,69.0,1.0,60.0,10.0,0.0
2255,57.0,0.0,60.0,11.0,0.0
2256,65.0,2.0,60.0,10.0,0.0
2257,65.0,1.0,120.0,1.0,0.0
2258,53.0,14.0,60.0,11.0,0.0
2259,57.0,0.0,120.0,2.0,0.0
2260,45.0,5.0,60.0,12.0,0.0
2261,45.0,1.0,60.0,13.0,0.0
2262,45.0,2.0,60.0,3.0,0.0
2263,33.0,36.0,60.0,14.0,0.0
2264,65.0,2.0,60.0,10.0,0.0
2265,53.0,9.0,60.0,11.0,0.0
2266,74.0,2.0,60.0,10.0,0.0
2267,77.0,1.0,15.0,0.0,0.0
2268,79.0,1.0,960.0,0.0,0.0
2269,62.0,14.0,60.0,11.0,0.0
2270,74.0,48.0,480.0,1.0,0.0
2271,65.0,1.0,960.0,4.0,0.0
2272,53.0,0.0,960.0,6.0,0.0
2273,65.0,2.0,960.0,6.0,0.0
2274,65.0,1.0,15.0,2.0,0.0
2275,67.0,0.0,960.0,2.0,0.0
2276,41.0,44.0,960.0,5.0,0.0
2277,46.0,5.0,60.0,12.0,0.0
2278,46.0,1.0,60.0,13.0,0.0
2279,46.0,2.0,60.0,3.0,0.0
2280,41.0,37.0,120.0,15.0,0.0
2281,34.0,36.0,60.0,14.0,0.0
2282,74.0,2.0,60.0,10.0,0.0
2283,62.0,21.0,60.0,11.0,0.0
2284,74.0,2.0,60.0,10.0,0.0
2285,62.0,14.0,60.0,11.0,0.0
2286,50.0,5.0,60.0,12.0,0.0
2287,50.0,1.0,60.0,13.0,0.0
2288,50.0,2.0,60.0,3.0,0.0
2289,38.0,36.0,60.0,14.0,0.0
2290,74.0,2.0,60.0,10.0,0.0
2291,62.0,58.0,60.0,11.0,0.0
2292,74.0,2.0,60.0,10.0,0.0
2293,62.0,14.0,60.0,11.0,0.0
2294,53.0,5.0,60.0,12.0,0.0
2295,53.0,1.0,60.0,13.0,0.0
2296,53.0,2.0,60.0,3.0,0.0
2297,41.0,36.0,60.0,14.0,0.0
2298,74.0,2.0,60.0,10.0,0.0
2299,62.0,58.0,60.0,11.0,0.0
2300,74.0,2.0,60.0,10.0,0.0
2301,62.0,14.0,60.0,11.0,0.0
2302,58.0,5.0,60.0,12.0,0.0
2303,58.0,1.0,60.0,13.0,0.0
2304,58.0,2.0,60.0,3.0,0.0
2305,46.0,36.0,60.0,14.0,0.0
2306,74.0,2.0,60.0,10.0,0.0
2307,62.0,10.0,60.0,11.0,0.0
2308,70.0,2.0,60.0,10.0,0.0
2309,70.0,48.0,360.0,1.0,0.0
2310,58.0,58.0,60.0,11.0,0.0
2311,62.0,4.0,330.0,12.0,0.0
2312,62.0,1.0,330.0,13.0,0.0
2313,62.0,2.0,330.0,3.0,0.0
2314,50.0,8.0,330.0,14.0,0.0
2315,70.0,2.0,60.0,10.0,0.0
2316,58.0,58.0,60.0,11.0,0.0
2317,70.0,2.0,60.0,10.0,0.0
2318,58.0,58.0,60.0,11.0,0.0
2319,70.0,2.0,60.0,10.0,0.0
2320,58.0,58.0,60.0,11.0,0.0
2321,70.0,2.0,60.0,10.0,0.0
2322,58.0,54.0,60.0,11.0,0.0
2323,70.0,1.0,60.0,10.0,0.0
2324,58.0,0.0,60.0,11.0,0.0
2325,67.0,2.0,60.0,10.0,0.0
2326,55.0,14.0,60.0,11.0,0.0
2327,67.0,0.0,120.0,1.0,0.0
2328,59.0,5.0,60.0,12.0,0.0
2329,47.0,1.0,60.0,13.0,0.0
2330,47.0,2.0,60.0,3.0,0.0
2331,35.0,36.0,60.0,14.0,0.0
2332,67.0,2.0,60.0,10.0,0.0
2333,55.0,9.0,60.0,11.0,0.0
2334,72.0,2.0,60.0,10.0,0.0
2335,81.0,1.0,480.0,0.0,0.0
2336,77.0,0.0,480.0,0.0,0.0
2337,60.0,14.0,60.0,11.0,0.0
2338,65.0,1.0,480.0,4.0,0.0
2339,69.0,0.0,480.0,1.0,0.0
2340,72.0,0.0,480.0,1.0,0.0
2341,72.0,2.0,480.0,6.0,0.0
2342,69.0,1.0,480.0,2.0,0.0
2343,65.0,0.0,480.0,2.0,0.0
2344,60.0,44.0,480.0,5.0,0.0
2345,60.0,5.0,60.0,12.0,0.0
2346,48.0,1.0,60.0,13.0,0.0
2347,48.0,2.0,60.0,3.0,0.0
2348,41.0,37.0,120.0,15.0,0.0
2349,36.0,36.0,60.0,14.0,0.0
2350,72.0,2.0,60.0,10.0,0.0
2351,60.0,21.0,60.0,11.0,0.0
2352,72.0,2.0,60.0,10.0,0.0
2353,60.0,4.0,60.0,11.0,0.0
2354,72.0,15.0,60.0,12.0,0.0
2355,60.0,1.0,60.0,13.0,0.0
2356,60.0,2.0,60.0,3.0,0.0
2357,48.0,36.0,60.0,14.0,0.0
2358,72.0,2.0,60.0,10.0,0.0
2359,60.0,58.0,60.0,11.0,0.0
2360,69.0,2.0,60.0,10.0,0.0
2361,57.0,58.0,60.0,11.0,0.0
2362,69.0,2.0,60.0,10.0,0.0
2363,57.0,58.0,60.0,11.0,0.0
2364,65.0,2.0,60.0,10.0,0.0
2365,53.0,14.0,60.0,11.0,0.0
2366,60.0,5.0,60.0,12.0,0.0
2367,48.0,1.0,60.0,13.0,0.0
2368,48.0,2.0,60.0,3.0,0.0
2369,36.0,36.0,60.0,14.0,0.0
2370,65.0,2.0,60.0,10.0,0.0
2371,53.0,9.0,60.0,11.0,0.0
2372,72.0,2.0,60.0,10.0,0.0
2373,76.0,0.0,480.0,0.0,0.0
2374,79.0,1.0,480.0,0.0,0.0
2375,67.0,0.0,480.0,1.0,0.0
2376,60.0,14.0,60.0,11.0,0.0
2377,60.0,0.0,480.0,4.0,0.0
2378,72.0,2.0,480.0,6.0,0.0
2379,64.0,1.0,480.0,2.0,0.0
2380,67.0,0.0,480.0,2.0,0.0
2381,58.0,5.0,60.0,12.0,0.0
2382,60.0,44.0,480.0,5.0,0.0
2383,46.0,1.0,60.0,13.0,0.0
2384,46.0,2.0,60.0,3.0,0.0
2385,46.0,37.0,120.0,15.0,0.0
2386,34.0,36.0,60.0,14.0,0.0
2387,72.0,2.0,60.0,10.0,0.0
2388,60.0,21.0,60.0,11.0,0.0
2389,72.0,2.0,60.0,10.0,0.0
2390,60.0,14.0,60.0,11.0,0.0
2391,70.0,5.0,60.0,12.0,0.0
2392,58.0,1.0,60.0,13.0,0.0
2393,58.0,2.0,60.0,3.0,0.0
2394,46.0,36.0,60.0,14.0,0.0
2395,72.0,2.0,60.0,10.0,0.0
2396,60.0,58.0,60.0,11.0,0.0
2397,67.0,2.0,60.0,10.0,0.0
2398,55.0,58.0,60.0,11.0,0.0
2399,67.0,2.0,60.0,10.0,0.0
2400,55.0,58.0,60.0,11.0,0.0
2401,64.0,2.0,60.0,10.0,0.0
2402,52.0,14.0,60.0,11.0,0.0
2403,58.0,5.0,60.0,12.0,0.0
2404,46.0,1.0,60.0,13.0,0.0
2405,46.0,2.0,60.0,3.0,0.0
2406,34.0,36.0,60.0,14.0,0.0
2407,64.0,2.0,60.0,10.0,0.0
2408,52.0,9.0,60.0,11.0,0.0
2409,65.0,2.0,60.0,10.0,0.0
2410,77.0,0.0,60.0,10.0,0.0
2411,84.0,1.0,480.0,0.0,0.0
2412,72.0,14.0,60.0,11.0,0.0
2413,72.0,1.0,15.0,1.0,0.0
2414,65.0,1.0,960.0,4.0,0.0
2415,45.0,5.0,60.0,12.0,0.0
2416,45.0,1.0,60.0,13.0,0.0
2417,45.0,2.0,60.0,3.0,0.0
2418,60.0,38.0,480.0,3.0,0.0
2419,41.0,37.0,120.0,15.0,0.0
2420,33.0,36.0,60.0,14.0,0.0
2421,65.0,2.0,60.0,10.0,0.0
2422,77.0,0.0,60.0,10.0,0.0
2423,72.0,21.0,60.0,11.0,0.0
2424,65.0,0.0,60.0,10.0,0.0
2425,77.0,2.0,60.0,10.0,0.0
2426,72.0,14.0,60.0,11.0,0.0
2427,48.0,5.0,60.0,12.0,0.0
2428,48.0,1.0,60.0,13.0,0.0
2429,48.0,2.0,60.0,3.0,0.0
2430,36.0,36.0,60.0,14.0,0.0
2431,65.0,0.0,60.0,10.0,0.0
2432,77.0,2.0,60.0,10.0,0.0
2433,72.0,58.0,60.0,11.0,0.0
2434,65.0,2.0,60.0,10.0,0.0
2435,77.0,0.0,60.0,10.0,0.0
2436,72.0,14.0,60.0,11.0,0.0
2437,53.0,5.0,60.0,12.0,0.0
2438,53.0,1.0,60.0,13.0,0.0
2439,53.0,2.0,60.0,3.0,0.0
2440,41.0,36.0,60.0,14.0,0.0
2441,65.0,0.0,60.0,10.0,0.0
2442,77.0,2.0,60.0,10.0,0.0
2443,72.0,58.0,60.0,11.0,0.0
2444,65.0,2.0,60.0,10.0,0.0
2445,77.0,0.0,60.0,10.0,0.0
2446,72.0,14.0,60.0,11.0,0.0
2447,57.0,5.0,60.0,12.0,0.0
2448,57.0,1.0,60.0,13.0,0.0
2449,57.0,2.0,60.0,3.0,0.0
2450,45.0,36.0,60.0,14.0,0.0
2451,65.0,2.0,60.0,10.0,0.0
2452,77.0,0.0,60.0,10.0,0.0
2453,72.0,9.0,60.0,11.0,0.0
2454,77.0,0.0,60.0,10.0,0.0
2455,65.0,2.0,60.0,10.0,0.0
2456,81.0,1.0,360.0,0.0,0.0
2457,69.0,58.0,60.0,11.0,0.0
2458,69.0,48.0,360.0,1.0,0.0
2459,60.0,4.0,330.0,12.0,0.0
2460,60.0,1.0,330.0,13.0,0.0
2461,48.0,0.0,330.0,3.0,0.0
2462,57.0,2.0,330.0,3.0,0.0
2463,48.0,7.0,330.0,14.0,0.0
2464,65.0,2.0,60.0,10.0,0.0
2465,77.0,0.0,60.0,10.0,0.0
2466,69.0,58.0,60.0,11.0,0.0
2467,77.0,2.0,60.0,10.0,0.0
2468,65.0,0.0,60.0,10.0,0.0
2469,69.0,58.0,60.0,11.0,0.0
2470,77.0,0.0,60.0,10.0,0.0
2471,65.0,2.0,60.0,10.0,0.0
2472,69.0,58.0,60.0,11.0,0.0
2473,65.0,2.0,60.0,10.0,0.0
2474,77.0,0.0,60.0,10.0,0.0
2475,69.0,54.0,60.0,11.0,0.0
2476,77.0,1.0,60.0,10.0,0.0
2477,65.0,0.0,60.0,10.0,0.0
2478,69.0,0.0,60.0,11.0,0.0
2479,65.0,0.0,60.0,10.0,0.0
2480,77.0,2.0,60.0,10.0,0.0
2481,77.0,0.0,120.0,0.0,0.0
2482,65.0,14.0,60.0,11.0,0.0
2483,65.0,0.0,120.0,1.0,0.0
2484,45.0,5.0,60.0,12.0,0.0
2485,45.0,1.0,60.0,13.0,0.0
2486,45.0,0.0,60.0,3.0,0.0
2487,53.0,2.0,60.0,3.0,0.0
2488,33.0,36.0,60.0,14.0,0.0
2489,77.0,0.0,60.0,10.0,0.0
2490,65.0,2.0,60.0,10.0,0.0
2491,65.0,9.0,60.0,11.0,0.0
2492,65.0,2.0,60.0,10.0,0.0
2493,77.0,0.0,60.0,10.0,0.0
2494,86.0,1.0,480.0,0.0,0.0
2495,74.0,14.0,60.0,11.0,0.0
2496,74.0,10.0,480.0,1.0,0.0
2497,65.0,3.0,15.0,6.0,0.0
2498,46.0,5.0,60.0,12.0,0.0
2499,41.0,44.0,15.0,5.0,0.0
2500,46.0,1.0,60.0,13.0,0.0
2501,62.0,38.0,480.0,3.0,0.0
2502,46.0,2.0,60.0,3.0,0.0
2503,41.0,37.0,120.0,15.0,0.0
2504,34.0,36.0,60.0,14.0,0.0
2505,65.0,2.0,60.0,10.0,0.0
2506,77.0,0.0,60.0,10.0,0.0
2507,74.0,21.0,60.0,11.0,0.0
2508,65.0,0.0,60.0,10.0,0.0
2509,77.0,2.0,60.0,10.0,0.0
2510,74.0,14.0,60.0,11.0,0.0
2511,50.0,5.0,60.0,12.0,0.0
2512,50.0,1.0,60.0,13.0,0.0
2513,50.0,2.0,60.0,3.0,0.0
2514,38.0,36.0,60.0,14.0,0.0
2515,65.0,2.0,60.0,10.0,0.0
2516,77.0,0.0,60.0,10.0,0.0
2517,74.0,58.0,60.0,11.0,0.0
2518,65.0,2.0,60.0,10.0,0.0
2519,77.0,0.0,60.0,10.0,0.0
2520,74.0,14.0,60.0,11.0,0.0
2521,53.0,5.0,60.0,12.0,0.0
2522,53.0,1.0,60.0,13.0,0.0
2523,53.0,2.0,60.0,3.0,0.0
2524,41.0,36.0,60.0,14.0,0.0
2525,65.0,0.0,60.0,10.0,0.0
2526,77.0,2.0,60.0,10.0,0.0
2527,74.0,58.0,60.0,11.0,0.0
2528,65.0,2.0,60.0,10.0,0.0
2529,77.0,0.0,60.0,10.0,0.0
2530,74.0,14.0,60.0,11.0,0.0
2531,58.0,5.0,60.0,12.0,0.0
2532,58.0,1.0,60.0,13.0,0.0
2533,58.0,2.0,60.0,3.0,0.0
2534,46.0,36.0,60.0,14.0,0.0
2535,77.0,0.0,60.0,10.0,0.0
2536,65.0,2.0,60.0,10.0,0.0
2537,74.0,9.0,60.0,11.0,0.0
2538,65.0,0.0,60.0,10.0,0.0
2539,77.0,2.0,60.0,10.0,0.0
2540,82.0,1.0,360.0,0.0,0.0
2541,70.0,48.0,360.0,1.0,0.0
2542,70.0,58.0,60.0,11.0,0.0
2543,62.0,4.0,330.0,12.0,0.0
2544,62.0,1.0,330.0,13.0,0.0
2545,58.0,0.0,330.0,3.0,0.0
2546,50.0,0.0,330.0,3.0,0.0
2547,50.0,7.0,330.0,14.0,0.0
2548,77.0,2.0,60.0,10.0,0.0
2549,65.0,0.0,60.0,10.0,0.0
2550,70.0,58.0,60.0,11.0,0.0
2551,77.0,0.0,60.0,10.0,0.0
2552,65.0,2.0,60.0,10.0,0.0
2553,70.0,58.0,60.0,11.0,0.0
2554,77.0,0.0,60.0,10.0,0.0
2555,65.0,2.0,60.0,10.0,0.0
2556,70.0,58.0,60.0,11.0,0.0
2557,77.0,2.0,60.0,10.0,0.0
2558,65.0,0.0,60.0,10.0,0.0
2559,70.0,54.0,60.0,11.0,0.0
2560,77.0,0.0,60.0,10.0,0.0
2561,65.0,1.0,60.0,10.0,0.0
2562,70.0,2.0,60.0,11.0,0.0
2563,65.0,2.0,60.0,10.0,0.0
2564,77.0,0.0,60.0,10.0,0.0
2565,77.0,0.0,120.0,0.0,0.0
2566,65.0,14.0,60.0,11.0,0.0
2567,47.0,5.0,60.0,12.0,0.0
2568,47.0,1.0,60.0,13.0,0.0
2569,53.0,0.0,60.0,3.0,0.0
2570,47.0,2.0,60.0,3.0,0.0
2571,35.0,36.0,60.0,14.0,0.0
2572,77.0,2.0,60.0,10.0,0.0
2573,65.0,0.0,60.0,10.0,0.0
2574,65.0,9.0,60.0,11.0,0.0
2575,65.0,0.0,60.0,10.0,0.0
2576,77.0,2.0,60.0,10.0,0.0
2577,87.0,1.0,480.0,0.0,0.0
2578,77.0,0.0,480.0,0.0,0.0
2579,65.0,0.0,15.0,4.0,0.0
2580,65.0,1.0,15.0,1.0,0.0
2581,75.0,0.0,480.0,1.0,0.0
2582,65.0,0.0,60.0,11.0,0.0
2583,75.0,9.0,60.0,11.0,0.0
2584,65.0,3.0,15.0,6.0,0.0
2585,65.0,1.0,2040.0,2.0,0.0
2586,75.0,0.0,2040.0,2.0,0.0
2587,63.0,55.0,1920.0,5.0,0.0
2588,48.0,5.0,60.0,12.0,0.0
2589,48.0,1.0,60.0,13.0,0.0
2590,48.0,2.0,60.0,3.0,0.0
2591,41.0,5.0,40.0,15.0,0.0
2592,36.0,36.0,60.0,14.0,0.0
2593,65.0,0.0,60.0,10.0,0.0
2594,77.0,2.0,60.0,10.0,0.0
2595,65.0,0.0,60.0,11.0,0.0
2596,75.0,9.0,60.0,11.0,0.0
2597,41.0,49.0,40.0,15.0,0.0
2598,77.0,2.0,60.0,10.0,0.0
2599,65.0,0.0,60.0,10.0,0.0
2600,75.0,0.0,60.0,11.0,0.0
2601,65.0,9.0,60.0,11.0,0.0
2602,51.0,5.0,60.0,12.0,0.0
2603,51.0,1.0,60.0,13.0,0.0
2604,51.0,2.0,60.0,3.0,0.0
2605,41.0,5.0,40.0,15.0,0.0
2606,39.0,36.0,60.0,14.0,0.0
2607,77.0,2.0,60.0,10.0,0.0
2608,65.0,0.0,60.0,10.0,0.0
2609,75.0,9.0,60.0,11.0,0.0
2610,65.0,0.0,60.0,11.0,0.0
2611,41.0,49.0,40.0,15.0,0.0
2612,77.0,0.0,60.0,10.0,0.0
2613,65.0,2.0,60.0,10.0,0.0
2614,65.0,0.0,60.0,11.0,0.0
2615,75.0,9.0,60.0,11.0,0.0
2616,57.0,5.0,60.0,12.0,0.0
2617,57.0,1.0,60.0,13.0,0.0
2618,57.0,2.0,60.0,3.0,0.0
2619,41.0,5.0,40.0,15.0,0.0
2620,45.0,36.0,60.0,14.0,0.0
2621,77.0,2.0,60.0,10.0,0.0
2622,65.0,0.0,60.0,10.0,0.0
2623,65.0,9.0,60.0,11.0,0.0
2624,75.0,0.0,60.0,11.0,0.0
2625,41.0,49.0,40.0,15.0,0.0
2626,77.0,0.0,60.0,10.0,0.0
2627,65.0,2.0,60.0,10.0,0.0
2628,65.0,9.0,60.0,11.0,0.0
2629,75.0,0.0,60.0,11.0,0.0
2630,60.0,5.0,60.0,12.0,0.0
2631,60.0,1.0,60.0,13.0,0.0
2632,60.0,2.0,60.0,3.0,0.0
2633,41.0,5.0,40.0,15.0,0.0
2634,48.0,36.0,60.0,14.0,0.0
2635,65.0,0.0,60.0,10.0,0.0
2636,77.0,2.0,60.0,10.0,0.0
2637,75.0,9.0,60.0,11.0,0.0
2638,65.0,0.0,60.0,11.0,0.0
2639,41.0,0.0,40.0,15.0,0.0
2640,77.0,2.0,60.0,10.0,0.0
2641,65.0,0.0,60.0,10.0,0.0
2642,72.0,1.0,60.0,0.0,0.0
2643,60.0,4.0,60.0,1.0,0.0
2644,65.0,0.0,60.0,11.0,0.0
2645,75.0,9.0,60.0,11.0,0.0
2646,63.0,5.0,60.0,12.0,0.0
2647,63.0,1.0,60.0,13.0,0.0
2648,63.0,2.0,60.0,3.0,0.0
2649,41.0,0.0,40.0,15.0,0.0
2650,51.0,36.0,60.0,14.0,0.0
2651,65.0,0.0,60.0,10.0,0.0
2652,77.0,2.0,60.0,10.0,0.0
2653,65.0,9.0,60.0,11.0,0.0
2654,75.0,0.0,60.0,11.0,0.0
2655,41.0,49.0,40.0,15.0,0.0
2656,77.0,0.0,60.0,10.0,0.0
2657,65.0,2.0,60.0,10.0,0.0
2658,75.0,1.0,60.0,0.0,0.0
2659,75.0,9.0,60.0,11.0,0.0
2660,65.0,0.0,60.0,11.0,0.0
2661,63.0,4.0,60.0,1.0,0.0
2662,60.0,5.0,60.0,12.0,0.0
2663,60.0,1.0,60.0,13.0,0.0
2664,60.0,2.0,60.0,3.0,0.0
2665,41.0,0.0,40.0,15.0,0.0
2666,48.0,36.0,60.0,14.0,0.0
2667,65.0,2.0,60.0,10.0,0.0
2668,77.0,0.0,60.0,10.0,0.0
2669,75.0,9.0,60.0,11.0,0.0
2670,65.0,0.0,60.0,11.0,0.0
2671,41.0,49.0,40.0,15.0,0.0
2672,65.0,0.0,60.0,10.0,0.0
2673,77.0,2.0,60.0,10.0,0.0
2674,81.0,0.0,60.0,0.0,0.0
2675,69.0,4.0,60.0,1.0,0.0
2676,75.0,9.0,60.0,11.0,0.0
2677,65.0,0.0,60.0,11.0,0.0
2678,57.0,5.0,60.0,12.0,0.0
2679,57.0,1.0,60.0,13.0,0.0
2680,57.0,2.0,60.0,3.0,0.0
2681,41.0,1.0,40.0,15.0,0.0
2682,45.0,36.0,60.0,14.0,0.0
2683,65.0,0.0,60.0,10.0,0.0
2684,77.0,2.0,60.0,10.0,0.0
2685,65.0,9.0,60.0,11.0,0.0
2686,75.0,0.0,60.0,11.0,0.0
2687,41.0,49.0,40.0,15.0,0.0
2688,77.0,2.0,60.0,10.0,0.0
2689,65.0,0.0,60.0,10.0,0.0
2690,84.0,0.0,60.0,0.0,0.0
2691,75.0,0.0,60.0,11.0,0.0
2692,72.0,4.0,60.0,1.0,0.0
2693,65.0,9.0,60.0,11.0,0.0
2694,51.0,5.0,60.0,12.0,0.0
2695,51.0,1.0,60.0,13.0,0.0
2696,51.0,2.0,60.0,3.0,0.0
2697,41.0,1.0,40.0,15.0,0.0
2698,39.0,36.0,60.0,14.0,0.0
2699,77.0,2.0,60.0,10.0,0.0
2700,65.0,0.0,60.0,10.0,0.0
2701,75.0,9.0,60.0,11.0,0.0
2702,65.0,0.0,60.0,11.0,0.0
2703,41.0,49.0,40.0,15.0,0.0
2704,65.0,2.0,60.0,10.0,0.0
2705,77.0,0.0,60.0,10.0,0.0
2706,87.0,0.0,60.0,0.0,0.0
2707,75.0,0.0,60.0,11.0,0.0
2708,75.0,4.0,60.0,1.0,0.0
2709,65.0,9.0,60.0,11.0,0.0
2710,48.0,5.0,60.0,12.0,0.0
2711,48.0,1.0,60.0,13.0,0.0
2712,48.0,2.0,60.0,3.0,0.0
2713,41.0,1.0,40.0,15.0,0.0
2714,36.0,36.0,60.0,14.0,0.0
2715,77.0,2.0,60.0,10.0,0.0
2716,65.0,0.0,60.0,10.0,0.0
2717,65.0,9.0,60.0,11.0,0.0
2718,75.0,0.0,60.0,11.0,0.0
2719,41.0,49.0,40.0,15.0,0.0
2720,65.0,2.0,60.0,10.0,0.0
2721,77.0,0.0,60.0,10.0,0.0
2722,84.0,1.0,60.0,0.0,0.0
2723,72.0,4.0,60.0,1.0,0.0
2724,75.0,0.0,60.0,11.0,0.0
2725,65.0,9.0,60.0,11.0,0.0
2726,51.0,5.0,60.0,12.0,0.0
2727,51.0,1.0,60.0,13.0,0.0
2728,51.0,2.0,60.0,3.0,0.0
2729,41.0,0.0,40.0,15.0,0.0
2730,39.0,36.0,60.0,14.0,0.0
2731,65.0,2.0,60.0,10.0,0.0
2732,77.0,0.0,60.0,10.0,0.0
2733,75.0,9.0,60.0,11.0,0.0
2734,65.0,0.0,60.0,11.0,0.0
2735,41.0,49.0,40.0,15.0,0.0
2736,77.0,0.0,60.0,10.0,0.0
2737,65.0,2.0,60.0,10.0,0.0
2738,81.0,0.0,60.0,0.0,0.0
2739,65.0,9.0,60.0,11.0,0.0
2740,75.0,0.0,60.0,11.0,0.0
2741,69.0,4.0,60.0,1.0,0.0
2742,57.0,5.0,60.0,12.0,0.0
2743,57.0,1.0,60.0,13.0,0.0
2744,57.0,2.0,60.0,3.0,0.0
2745,41.0,1.0,40.0,15.0,0.0
2746,45.0,36.0,60.0,14.0,0.0
2747,65.0,0.0,60.0,10.0,0.0
2748,77.0,2.0,60.0,10.0,0.0
2749,65.0,9.0,60.0,11.0,0.0
2750,75.0,0.0,60.0,11.0,0.0
2751,41.0,49.0,40.0,15.0,0.0
2752,77.0,2.0,60.0,10.0,0.0
2753,65.0,0.0,60.0,10.0,0.0
2754,75.0,1.0,60.0,0.0,0.0
2755,65.0,0.0,60.0,11.0,0.0
2756,75.0,9.0,60.0,11.0,0.0
2757,63.0,4.0,60.0,1.0,0.0
2758,60.0,5.0,60.0,12.0,0.0
2759,60.0,1.0,60.0,13.0,0.0
2760,60.0,2.0,60.0,3.0,0.0
2761,41.0,0.0,40.0,15.0,0.0
2762,48.0,36.0,60.0,14.0,0.0
2763,65.0,2.0,60.0,10.0,0.0
2764,77.0,0.0,60.0,10.0,0.0
2765,75.0,9.0,60.0,11.0,0.0
2766,65.0,0.0,60.0,11.0,0.0
2767,41.0,49.0,40.0,15.0,0.0
2768,65.0,0.0,60.0,10.0,0.0
2769,77.0,2.0,60.0,10.0,0.0
2770,72.0,0.0,60.0,0.0,0.0
2771,75.0,9.0,60.0,11.0,0.0
2772,65.0,0.0,60.0,11.0,0.0
2773,60.0,4.0,60.0,1.0,0.0
2774,63.0,5.0,60.0,12.0,0.0
2775,63.0,1.0,60.0,13.0,0.0
2776,63.0,2.0,60.0,3.0,0.0
2777,41.0,1.0,40.0,15.0,0.0
2778,51.0,36.0,60.0,14.0,0.0
2779,65.0,0.0,60.0,10.0,0.0
2780,77.0,2.0,60.0,10.0,0.0
2781,75.0,0.0,60.0,11.0,0.0
2782,65.0,9.0,60.0,11.0,0.0
2783,41.0,49.0,40.0,15.0,0.0
2784,77.0,2.0,60.0,10.0,0.0
2785,65.0,0.0,60.0,10.0,0.0
2786,75.0,0.0,60.0,0.0,0.0
2787,65.0,0.0,60.0,11.0,0.0
2788,63.0,4.0,60.0,1.0,0.0
2789,75.0,9.0,60.0,11.0,0.0
2790,60.0,5.0,60.0,12.0,0.0
2791,60.0,1.0,60.0,13.0,0.0
2792,60.0,2.0,60.0,3.0,0.0
2793,41.0,1.0,40.0,15.0,0.0
2794,48.0,36.0,60.0,14.0,0.0
2795,65.0,2.0,60.0,10.0,0.0
2796,77.0,0.0,60.0,10.0,0.0
2797,65.0,9.0,60.0,11.0,0.0
2798,75.0,0.0,60.0,11.0,0.0
2799,41.0,49.0,40.0,15.0,0.0
2800,77.0,0.0,60.0,10.0,0.0
2801,65.0,2.0,60.0,10.0,0.0
2802,81.0,1.0,60.0,0.0,0.0
2803,65.0,0.0,60.0,11.0,0.0
2804,75.0,9.0,60.0,11.0,0.0
2805,69.0,4.0,60.0,1.0,0.0
2806,57.0,5.0,60.0,12.0,0.0
2807,57.0,1.0,60.0,13.0,0.0
2808,57.0,2.0,60.0,3.0,0.0
2809,41.0,0.0,40.0,15.0,0.0
2810,45.0,36.0,60.0,14.0,0.0
2811,77.0,2.0,60.0,10.0,0.0
2812,65.0,0.0,60.0,10.0,0.0
2813,65.0,9.0,60.0,11.0,0.0
2814,75.0,0.0,60.0,11.0,0.0
2815,41.0,49.0,40.0,15.0,0.0
2816,65.0,2.0,60.0,10.0,0.0
2817,77.0,0.0,60.0,10.0,0.0
2818,84.0,1.0,60.0,0.0,0.0
2819,65.0,0.0,60.0,11.0,0.0
2820,75.0,9.0,60.0,11.0,0.0
2821,72.0,4.0,60.0,1.0,0.0
2822,51.0,5.0,60.0,12.0,0.0
2823,51.0,1.0,60.0,13.0,0.0
2824,51.0,2.0,60.0,3.0,0.0
2825,41.0,0.0,40.0,15.0,0.0
2826,39.0,36.0,60.0,14.0,0.0
2827,65.0,2.0,60.0,10.0,0.0
2828,77.0,0.0,60.0,10.0,0.0
2829,75.0,9.0,60.0,11.0,0.0
2830,65.0,0.0,60.0,11.0,0.0
2831,41.0,5.0,40.0,15.0,0.0
2832,77.0,0.0,120.0,10.0,0.0
2833,65.0,2.0,120.0,10.0,0.0
2834,87.0,1.0,60.0,0.0,0.0
2835,65.0,0.0,120.0,11.0,0.0
2836,75.0,1.0,120.0,11.0,0.0
2837,75.0,10.0,60.0,1.0,0.0
2838,48.0,5.0,120.0,12.0,0.0
2839,53.0,0.0,120.0,5.0,0.0
2840,48.0,2.0,120.0,13.0,0.0
2841,48.0,48.0,60.0,3.0,0.0
2842,41.0,1.0,120.0,15.0,0.0
2843,36.0,58.0,120.0,14.0,0.0
2844,51.0,48.0,60.0,3.0,0.0
2845,74.0,72.0,60.0,10.0,0.0
2846,75.0,72.0,120.0,10.0,0.0
2847,57.0,48.0,60.0,3.0,0.0
2848,60.0,48.0,60.0,3.0,0.0
2849,71.0,72.0,60.0,10.0,0.0
2850,72.0,72.0,120.0,10.0,0.0
2851,63.0,48.0,60.0,3.0,0.0
2852,60.0,48.0,60.0,3.0,0.0
2853,68.0,72.0,60.0,10.0,0.0
2854,69.0,72.0,120.0,10.0,0.0
2855,57.0,48.0,60.0,3.0,0.0
2856,51.0,48.0,60.0,3.0,0.0
2857,64.0,72.0,60.0,10.0,0.0
2858,65.0,72.0,120.0,10.0,0.0
2859,48.0,48.0,60.0,3.0,0.0
2860,51.0,50.0,60.0,3.0,0.0
2861,62.0,70.0,60.0,11.0,0.0
2862,63.0,70.0,120.0,11.0,0.0
2863,57.0,50.0,60.0,3.0,0.0
2864,60.0,50.0,60.0,3.0,0.0
2865,59.0,70.0,60.0,11.0,0.0
2866,60.0,70.0,120.0,11.0,0.0
2867,63.0,50.0,60.0,3.0,0.0
2868,60.0,50.0,60.0,3.0,0.0
2869,56.0,70.0,60.0,11.0,0.0
2870,57.0,70.0,120.0,11.0,0.0
2871,57.0,50.0,60.0,3.0,0.0
2872,51.0,50.0,60.0,3.0,0.0
2873,52.0,70.0,60.0,11.0,0.0
2874,53.0,70.0,120.0,11.0,0.0
2875,48.0,50.0,60.0,3.0,0.0
2876,51.0,48.0,60.0,3.0,0.0
2877,74.0,72.0,60.0,10.0,0.0
2878,75.0,72.0,120.0,10.0,0.0
2879,57.0,48.0,60.0,3.0,0.0
2880,60.0,48.0,60.0,3.0,0.0
2881,71.0,72.0,60.0,10.0,0.0
2882,72.0,62.0,120.0,10.0,0.0
2883,63.0,48.0,60.0,3.0,0.0
2884,51.0,10.0,60.0,11.0,0.0
2885,60.0,48.0,60.0,3.0,0.0
2886,68.0,62.0,60.0,10.0,0.0
2887,69.0,62.0,120.0,10.0,0.0
2888,57.0,10.0,60.0,11.0,0.0
2889,57.0,48.0,60.0,3.0,0.0
2890,60.0,10.0,60.0,11.0,0.0
2891,51.0,48.0,60.0,3.0,0.0
2892,64.0,62.0,60.0,10.0,0.0
2893,65.0,120.0,120.0,10.0,0.0
2894,63.0,10.0,60.0,11.0,0.0
2895,48.0,48.0,60.0,3.0,0.0
2896,68.0,120.0,60.0,10.0,0.0
2897,69.0,120.0,120.0,10.0,0.0
2898,71.0,120.0,60.0,10.0,0.0
2899,72.0,120.0,120.0,10.0,0.0
2900,74.0,120.0,60.0,10.0,0.0
2901,75.0,120.0,120.0,10.0,0.0
2902,74.0,120.0,60.0,10.0,0.0
2903,75.0,120.0,120.0,10.0,0.0
2904,74.0,120.0,60.0,10.0,0.0
2905,75.0,120.0,120.0,10.0,0.0
2906,74.0,120.0,60.0,10.0,0.0
2907,75.0,120.0,120.0,10.0,0.0
2908,74.0,120.0,60.0,10.0,0.0
2909,75.0,120.0,120.0,10.0,0.0
2910,74.0,1.0,60.0,10.0,0.0
2911,86.0,1.0,60.0,0.0,0.0
2912,74.0,0.0,60.0,1.0,0.0
2913,62.0,10.0,60.0,11.0,0.0
2914,62.0,48.0,60.0,3.0,0.0
2915,75.0,1.0,60.0,10.0,0.0
2916,87.0,1.0,60.0,0.0,0.0
2917,75.0,0.0,60.0,1.0,0.0
2918,63.0,10.0,60.0,11.0,0.0
2919,63.0,158.0,60.0,3.0,0.0
2920,57.0,1.0,60.0,10.0,0.0
2921,69.0,1.0,60.0,0.0,0.0
2922,69.0,0.0,60.0,1.0,0.0
2923,57.0,4.0,60.0,11.0,0.0
2924,57.0,5.0,60.0,12.0,0.0
2925,45.0,1.0,60.0,13.0,0.0
2926,45.0,2.0,60.0,3.0,0.0
2927,33.0,13.0,60.0,14.0,0.0
2928,58.0,2.0,20.0,10.0,0.0
2929,70.0,3.0,15.0,0.0,0.0
2930,58.0,1.0,30.0,11.0,0.0
2931,70.0,4.0,20.0,1.0,0.0
2932,58.0,6.0,20.0,12.0,0.0
2933,46.0,1.0,30.0,13.0,0.0
2934,46.0,4.0,30.0,3.0,0.0
2935,34.0,6.0,40.0,14.0,0.0
2936,69.0,7.0,15.0,0.0,0.0
2937,57.0,1.0,20.0,10.0,0.0
2938,69.0,0.0,20.0,1.0,0.0
2939,57.0,3.0,20.0,12.0,0.0
2940,57.0,3.0,30.0,11.0,0.0
2941,70.0,5.0,15.0,0.0,0.0
2942,58.0,2.0,20.0,10.0,0.0
2943,45.0,1.0,30.0,13.0,0.0
2944,70.0,0.0,20.0,1.0,0.0
2945,45.0,8.0,30.0,3.0,0.0
2946,58.0,5.0,20.0,12.0,0.0
2947,69.0,1.0,15.0,0.0,0.0
2948,33.0,3.0,40.0,14.0,0.0
2949,57.0,1.0,20.0,10.0,0.0
2950,58.0,2.0,30.0,11.0,0.0
2951,69.0,4.0,20.0,1.0,0.0
2952,70.0,1.0,15.0,0.0,0.0
2953,57.0,6.0,20.0,12.0,0.0
2954,46.0,1.0,30.0,13.0,0.0
2955,46.0,4.0,30.0,3.0,0.0
2956,58.0,1.0,20.0,10.0,0.0
2957,69.0,3.0,15.0,0.0,0.0
2958,70.0,0.0,20.0,1.0,0.0
2959,58.0,7.0,20.0,12.0,0.0
2960,57.0,4.0,30.0,11.0,0.0
2961,34.0,6.0,40.0,14.0,0.0
2962,70.0,7.0,15.0,0.0,0.0
2963,57.0,2.0,20.0,10.0,0.0
2964,45.0,1.0,30.0,13.0,0.0
2965,69.0,0.0,20.0,1.0,0.0
2966,45.0,2.0,30.0,3.0,0.0
2967,57.0,3.0,20.0,12.0,0.0
2968,69.0,2.0,15.0,0.0,0.0
2969,58.0,2.0,20.0,10.0,0.0
2970,70.0,3.0,20.0,1.0,0.0
2971,58.0,8.0,30.0,11.0,0.0
2972,58.0,6.0,20.0,12.0,0.0
2973,70.0,1.0,15.0,0.0,0.0
2974,46.0,1.0,30.0,13.0,0.0
2975,46.0,4.0,30.0,3.0,0.0
2976,57.0,1.0,20.0,10.0,0.0
2977,69.0,0.0,20.0,1.0,0.0
2978,69.0,0.0,15.0,0.0,0.0
2979,57.0,8.0,20.0,12.0,0.0
2980,57.0,0.0,30.0,11.0,0.0
2981,58.0,1.0,20.0,10.0,0.0
2982,45.0,1.0,30.0,13.0,0.0
2983,70.0,1.0,20.0,0.0,0.0
2984,45.0,18.0,30.0,3.0,0.0
2985,70.0,2.0,20.0,1.0,0.0
2986,58.0,5.0,20.0,12.0,0.0
2987,33.0,6.0,15.0,14.0,0.0
2988,55.0,1.0,30.0,10.0,0.0
2989,67.0,1.0,30.0,0.0,0.0
2990,55.0,0.0,30.0,11.0,0.0
2991,67.0,4.0,30.0,1.0,0.0
2992,55.0,5.0,30.0,12.0,0.0
2993,43.0,1.0,30.0,13.0,0.0
2994,43.0,2.0,30.0,3.0,0.0
2995,31.0,16.0,30.0,14.0,0.0
2996,57.0,1.0,30.0,10.0,0.0
2997,69.0,1.0,30.0,0.0,0.0
2998,57.0,4.0,30.0,11.0,0.0
2999,69.0,0.0,30.0,1.0,0.0
3000,57.0,5.0,30.0,12.0,0.0
3001,45.0,1.0,30.0,13.0,0.0
3002,45.0,2.0,30.0,3.0,0.0
3003,33.0,46.0,30.0,14.0,0.0
3004,60.0,1.0,60.0,10.0,0.0
3005,72.0,1.0,60.0,0.0,0.0
3006,72.0,0.0,60.0,1.0,0.0
3007,60.0,4.0,60.0,11.0,0.0
3008,60.0,5.0,60.0,12.0,0.0
3009,48.0,1.0,60.0,13.0,0.0
3010,48.0,2.0,60.0,3.0,0.0
3011,36.0,106.0,60.0,14.0,0.0
3012,53.0,1.0,60.0,10.0,0.0
3013,65.0,1.0,60.0,0.0,0.0
3014,65.0,4.0,60.0,1.0,0.0
3015,53.0,0.0,60.0,11.0,0.0
3016,53.0,5.0,60.0,12.0,0.0
3017,41.0,1.0,60.0,13.0,0.0
3018,41.0,2.0,60.0,3.0,0.0
3019,29.0,196.0,60.0,14.0,0.0
3020,65.0,60.0,30.0,10.0,0.0
3021,65.0,28.0,720.0,11.0,0.0
3022,63.0,5.0,120.0,12.0,0.0
3023,63.0,49.0,120.0,13.0,0.0
3024,65.0,36.0,30.0,10.0,0.0
3025,70.0,50.0,60.0,10.0,0.0
3026,62.0,5.0,240.0,12.0,0.0
3027,62.0,49.0,240.0,13.0,0.0
3028,65.0,40.0,60.0,10.0,0.0
3029,74.0,60.0,30.0,10.0,0.0
3030,74.0,36.0,30.0,10.0,0.0
3031,72.0,50.0,60.0,10.0,0.0
3032,57.0,5.0,240.0,12.0,0.0
3033,57.0,59.0,240.0,13.0,0.0
3034,65.0,40.0,60.0,10.0,0.0
3035,75.0,60.0,30.0,10.0,0.0
3036,75.0,26.0,30.0,10.0,0.0
3037,74.0,50.0,60.0,10.0,0.0
3038,58.0,5.0,240.0,12.0,0.0
3039,58.0,49.0,240.0,13.0,0.0
3040,65.0,12.0,60.0,10.0,0.0
3041,77.0,22.0,30.0,10.0,0.0
3042,62.0,38.0,60.0,11.0,0.0
3043,77.0,22.0,30.0,10.0,0.0
3044,62.0,14.0,60.0,11.0,0.0
3045,77.0,50.0,60.0,10.0,0.0
3046,67.0,4.0,240.0,11.0,0.0
3047,63.0,5.0,240.0,12.0,0.0
3048,51.0,49.0,240.0,13.0,0.0
3049,27.0,16.0,120.0,14.0,0.0
3050,75.0,24.0,60.0,10.0,0.0
3051,74.0,60.0,30.0,10.0,0.0
3052,72.0,32.0,30.0,10.0,0.0
3053,72.0,50.0,60.0,10.0,0.0
3054,65.0,4.0,240.0,11.0,0.0
3055,62.0,5.0,240.0,12.0,0.0
3056,53.0,49.0,240.0,13.0,0.0
3057,29.0,16.0,120.0,14.0,0.0
3058,70.0,24.0,60.0,10.0,0.0
3059,70.0,60.0,30.0,10.0,0.0
3060,70.0,32.0,30.0,10.0,0.0
3061,70.0,50.0,60.0,10.0,0.0
3062,63.0,4.0,240.0,11.0,0.0
3063,60.0,4.0,240.0,4.0,0.0
3064,53.0,54.0,240.0,5.0,0.0
3065,60.0,5.0,240.0,12.0,0.0
3066,41.0,1.0,240.0,13.0,0.0
3067,29.0,16.0,120.0,14.0,0.0
3068,69.0,24.0,60.0,10.0,0.0
3069,67.0,60.0,30.0,10.0,0.0
3070,69.0,22.0,30.0,10.0,0.0
3071,70.0,1.0,60.0,10.0,0.0
3072,82.0,1.0,60.0,0.0,0.0
3073,58.0,1.0,60.0,4.0,0.0
3074,70.0,0.0,60.0,1.0,0.0
3075,62.0,0.0,60.0,1.0,0.0
3076,62.0,0.0,60.0,11.0,0.0
3077,58.0,0.0,60.0,6.0,0.0
3078,70.0,2.0,60.0,6.0,0.0
3079,70.0,1.0,60.0,2.0,0.0
3080,62.0,0.0,60.0,2.0,0.0
3081,50.0,5.0,60.0,5.0,0.0
3082,58.0,0.0,60.0,12.0,0.0
3083,46.0,1.0,60.0,13.0,0.0
3084,58.0,0.0,60.0,3.0,0.0
3085,46.0,1.0,60.0,3.0,0.0
3086,46.0,1.0,60.0,15.0,0.0
3087,34.0,106.0,60.0,14.0,0.0
3088,63.0,1.0,60.0,10.0,0.0
3089,72.0,0.0,60.0,10.0,0.0
3090,81.0,1.0,60.0,0.0,0.0
3091,84.0,0.0,60.0,0.0,0.0
3092,60.0,0.0,60.0,4.0,0.0
3093,72.0,0.0,60.0,1.0,0.0
3094,65.0,0.0,60.0,1.0,0.0
3095,57.0,1.0,60.0,11.0,0.0
3096,65.0,0.0,60.0,6.0,0.0
3097,53.0,2.0,60.0,6.0,0.0
3098,65.0,1.0,60.0,2.0,0.0
3099,72.0,0.0,60.0,2.0,0.0
3100,53.0,0.0,60.0,12.0,0.0
3101,53.0,5.0,60.0,5.0,0.0
3102,41.0,1.0,60.0,13.0,0.0
3103,53.0,0.0,60.0,3.0,0.0
3104,41.0,1.0,60.0,3.0,0.0
3105,41.0,1.0,60.0,15.0,0.0
3106,29.0,286.0,60.0,14.0,0.0
3107,74.0,1.0,60.0,10.0,0.0
3108,86.0,1.0,60.0,0.0,0.0
3109,74.0,10.0,60.0,1.0,0.0
3110,62.0,0.0,60.0,11.0,0.0
3111,62.0,48.0,60.0,3.0,0.0
3112,75.0,1.0,60.0,10.0,0.0
3113,87.0,1.0,60.0,0.0,0.0
3114,75.0,10.0,60.0,1.0,0.0
3115,63.0,0.0,60.0,11.0,0.0
3116,63.0,158.0,60.0,3.0,0.0
3117,57.0,1.0,60.0,10.0,0.0
3118,69.0,1.0,60.0,0.0,0.0
3119,69.0,4.0,60.0,1.0,0.0
3120,57.0,0.0,60.0,11.0,0.0
3121,57.0,5.0,60.0,12.0,0.0
3122,45.0,1.0,60.0,13.0,0.0
3123,45.0,2.0,60.0,3.0,0.0
3124,33.0,13.0,60.0,14.0,0.0
3125,58.0,2.0,20.0,10.0,0.0
3126,70.0,3.0,15.0,0.0,0.0
3127,70.0,4.0,20.0,1.0,0.0
3128,58.0,1.0,30.0,11.0,0.0
3129,58.0,6.0,20.0,12.0,0.0
3130,46.0,1.0,30.0,13.0,0.0
3131,46.0,4.0,30.0,3.0,0.0
3132,34.0,6.0,40.0,14.0,0.0
3133,69.0,7.0,15.0,0.0,0.0
3134,57.0,1.0,20.0,10.0,0.0
3135,69.0,0.0,20.0,1.0,0.0
3136,57.0,3.0,20.0,12.0,0.0
3137,57.0,3.0,30.0,11.0,0.0
3138,70.0,5.0,15.0,0.0,0.0
3139,58.0,2.0,20.0,10.0,0.0
3140,45.0,1.0,30.0,13.0,0.0
3141,70.0,0.0,20.0,1.0,0.0
3142,45.0,8.0,30.0,3.0,0.0
3143,58.0,5.0,20.0,12.0,0.0
3144,69.0,1.0,15.0,0.0,0.0
3145,33.0,3.0,40.0,14.0,0.0
3146,57.0,1.0,20.0,10.0,0.0
3147,58.0,2.0,30.0,11.0,0.0
3148,69.0,4.0,20.0,1.0,0.0
3149,70.0,1.0,15.0,0.0,0.0
3150,57.0,6.0,20.0,12.0,0.0
3151,46.0,1.0,30.0,13.0,0.0
3152,46.0,4.0,30.0,3.0,0.0
3153,58.0,1.0,20.0,10.0,0.0
3154,69.0,3.0,15.0,0.0,0.0
3155,70.0,0.0,20.0,1.0,0.0
3156,58.0,7.0,20.0,12.0,0.0
3157,57.0,4.0,30.0,11.0,0.0
3158,34.0,6.0,40.0,14.0,0.0
3159,70.0,7.0,15.0,0.0,0.0
3160,57.0,2.0,20.0,10.0,0.0
3161,45.0,1.0,30.0,13.0,0.0
3162,45.0,2.0,30.0,3.0,0.0
3163,69.0,0.0,20.0,1.0,0.0
3164,57.0,3.0,20.0,12.0,0.0
3165,69.0,2.0,15.0,0.0,0.0
3166,58.0,2.0,20.0,10.0,0.0
3167,70.0,3.0,20.0,1.0,0.0
3168,58.0,8.0,30.0,11.0,0.0
3169,58.0,6.0,20.0,12.0,0.0
3170,70.0,1.0,15.0,0.0,0.0
3171,46.0,0.0,30.0,13.0,0.0
3172,46.0,4.0,30.0,3.0,0.0
3173,33.0,6.0,40.0,14.0,0.0
3174,57.0,1.0,20.0,10.0,0.0
3175,69.0,0.0,20.0,1.0,0.0
3176,69.0,1.0,15.0,0.0,0.0
3177,57.0,8.0,20.0,12.0,0.0
3178,57.0,2.0,30.0,11.0,0.0
3179,58.0,1.0,20.0,10.0,0.0
3180,70.0,1.0,20.0,0.0,0.0
3181,45.0,1.0,30.0,13.0,0.0
3182,45.0,18.0,30.0,3.0,0.0
3183,70.0,0.0,20.0,1.0,0.0
3184,58.0,5.0,20.0,12.0,0.0
3185,33.0,2.0,15.0,14.0,0.0
3186,55.0,1.0,30.0,10.0,0.0
3187,67.0,1.0,30.0,0.0,0.0
3188,67.0,4.0,30.0,1.0,0.0
3189,55.0,0.0,30.0,11.0,0.0
3190,55.0,5.0,30.0,12.0,0.0
3191,43.0,1.0,30.0,13.0,0.0
3192,43.0,2.0,30.0,3.0,0.0
3193,31.0,16.0,30.0,14.0,0.0
3194,57.0,1.0,30.0,10.0,0.0
3195,69.0,1.0,30.0,0.0,0.0
3196,69.0,4.0,30.0,1.0,0.0
3197,57.0,0.0,30.0,11.0,0.0
3198,57.0,5.0,30.0,12.0,0.0
3199,45.0,1.0,30.0,13.0,0.0
3200,45.0,2.0,30.0,3.0,0.0
3201,33.0,46.0,30.0,14.0,0.0
3202,60.0,1.0,60.0,10.0,0.0
3203,72.0,1.0,60.0,0.0,0.0
3204,60.0,0.0,60.0,11.0,0.0
3205,72.0,1.0,60.0,1.0,0.0
3206,53.0,0.0,60.0,4.0,0.0
3207,53.0,2.0,60.0,6.0,0.0
3208,65.0,0.0,60.0,6.0,0.0
3209,60.0,1.0,60.0,2.0,0.0
3210,72.0,0.0,60.0,2.0,0.0
3211,60.0,5.0,60.0,12.0,0.0
3212,41.0,0.0,60.0,5.0,0.0
3213,48.0,1.0,60.0,13.0,0.0
3214,48.0,1.0,60.0,3.0,0.0
3215,41.0,1.0,60.0,15.0,0.0
3216,36.0,106.0,60.0,14.0,0.0
3217,53.0,1.0,60.0,10.0,0.0
3218,65.0,1.0,60.0,0.0,0.0
3219,53.0,1.0,60.0,4.0,0.0
3220,53.0,0.0,60.0,11.0,0.0
3221,65.0,0.0,60.0,1.0,0.0
3222,65.0,2.0,60.0,6.0,0.0
3223,53.0,0.0,60.0,6.0,0.0
3224,65.0,0.0,60.0,2.0,0.0
3225,53.0,1.0,60.0,2.0,0.0
3226,41.0,5.0,60.0,5.0,0.0
3227,53.0,0.0,60.0,12.0,0.0
3228,41.0,1.0,60.0,13.0,0.0
3229,41.0,1.0,60.0,3.0,0.0
3230,41.0,1.0,60.0,15.0,0.0
3231,29.0,196.0,60.0,14.0,0.0
3232,65.0,60.0,30.0,10.0,0.0
3233,65.0,38.0,720.0,11.0,0.0
3234,63.0,5.0,120.0,12.0,0.0
3235,63.0,49.0,120.0,13.0,0.0
3236,65.0,36.0,30.0,10.0,0.0
3237,70.0,50.0,60.0,10.0,0.0
3238,61.0,5.0,240.0,12.0,0.0
3239,61.0,49.0,240.0,13.0,0.0
3240,65.0,40.0,60.0,10.0,0.0
3241,73.0,60.0,30.0,10.0,0.0
3242,73.0,36.0,30.0,10.0,0.0
3243,72.0,50.0,60.0,10.0,0.0
3244,57.0,5.0,240.0,12.0,0.0
3245,57.0,49.0,240.0,13.0,0.0
3246,65.0,40.0,60.0,10.0,0.0
3247,75.0,60.0,30.0,10.0,0.0
3248,75.0,36.0,30.0,10.0,0.0
3249,73.0,50.0,60.0,10.0,0.0
3250,58.0,5.0,240.0,12.0,0.0
3251,58.0,49.0,240.0,13.0,0.0
3252,65.0,2.0,60.0,10.0,0.0
3253,77.0,22.0,30.0,10.0,0.0
3254,61.0,38.0,60.0,11.0,0.0
3255,77.0,22.0,30.0,10.0,0.0
3256,61.0,14.0,60.0,11.0,0.0
3257,77.0,50.0,60.0,10.0,0.0
3258,66.0,4.0,240.0,11.0,0.0
3259,63.0,5.0,240.0,12.0,0.0
3260,51.0,49.0,240.0,13.0,0.0
3261,27.0,16.0,120.0,14.0,0.0
3262,75.0,24.0,60.0,10.0,0.0
3263,73.0,60.0,30.0,10.0,0.0
3264,72.0,32.0,30.0,10.0,0.0
3265,72.0,50.0,60.0,10.0,0.0
3266,65.0,4.0,240.0,11.0,0.0
3267,61.0,5.0,240.0,12.0,0.0
3268,29.0,16.0,120.0,14.0,0.0
3269,70.0,24.0,60.0,10.0,0.0
3270,70.0,60.0,30.0,10.0,0.0
3271,70.0,32.0,30.0,10.0,0.0
3272,70.0,50.0,60.0,10.0,0.0
3273,63.0,0.0,240.0,11.0,0.0
3274,60.0,4.0,240.0,4.0,0.0
3275,60.0,0.0,240.0,12.0,0.0
3276,53.0,5.0,240.0,5.0,0.0
3277,53.0,49.0,15.0,13.0,0.0
3278,29.0,16.0,120.0,14.0,0.0
3279,69.0,24.0,60.0,10.0,0.0
3280,67.0,60.0,30.0,10.0,0.0
3281,69.0,32.0,30.0,10.0,0.0
3282,58.0,0.0,120.0,10.0,0.0
3283,70.0,2.0,120.0,10.0,0.0
3284,61.0,4.0,40.0,11.0,0.0
3285,58.0,1.0,120.0,4.0,0.0
3286,70.0,3.0,120.0,6.0,0.0
3287,58.0,0.0,120.0,6.0,0.0
3288,58.0,5.0,40.0,12.0,0.0
3289,46.0,7.0,120.0,5.0,0.0
3290,46.0,3.0,40.0,13.0,0.0
3291,46.0,29.0,120.0,15.0,0.0
3292,34.0,48.0,40.0,14.0,0.0
3293,53.0,4.0,40.0,11.0,0.0
3294,49.0,5.0,40.0,12.0,0.0
3295,46.0,3.0,40.0,13.0,0.0
3296,34.0,6.0,40.0,14.0,0.0
3297,53.0,4.0,40.0,11.0,0.0
3298,49.0,5.0,40.0,12.0,0.0
3299,46.0,3.0,40.0,13.0,0.0
3300,34.0,48.0,40.0,14.0,0.0
3301,73.0,1.0,40.0,10.0,0.0
3302,53.0,3.0,40.0,11.0,0.0
3303,49.0,5.0,40.0,12.0,0.0
3304,46.0,3.0,40.0,13.0,0.0
3305,34.0,26.0,40.0,14.0,0.0
3306,75.0,20.0,20.0,10.0,0.0
3307,53.0,4.0,40.0,11.0,0.0
3308,49.0,5.0,40.0,12.0,0.0
3309,46.0,3.0,40.0,13.0,0.0
3310,34.0,6.0,40.0,14.0,0.0
3311,73.0,2.0,20.0,10.0,0.0
3312,75.0,20.0,20.0,10.0,0.0
3313,73.0,20.0,20.0,10.0,0.0
3314,53.0,4.0,40.0,11.0,0.0
3315,49.0,5.0,40.0,12.0,0.0
3316,46.0,3.0,40.0,13.0,0.0
3317,34.0,6.0,40.0,14.0,0.0
3318,75.0,2.0,20.0,10.0,0.0
3319,73.0,20.0,20.0,10.0,0.0
3320,75.0,20.0,20.0,10.0,0.0
3321,53.0,4.0,40.0,11.0,0.0
3322,49.0,5.0,40.0,12.0,0.0
3323,46.0,3.0,40.0,13.0,0.0
3324,34.0,6.0,40.0,14.0,0.0
3325,73.0,2.0,20.0,10.0,0.0
3326,75.0,30.0,20.0,10.0,0.0
3327,72.0,12.0,30.0,10.0,0.0
3328,53.0,4.0,40.0,11.0,0.0
3329,49.0,5.0,40.0,12.0,0.0
3330,46.0,3.0,40.0,13.0,0.0
3331,34.0,6.0,40.0,14.0,0.0
3332,73.0,42.0,30.0,10.0,0.0
3333,77.0,42.0,60.0,10.0,0.0
3334,53.0,4.0,40.0,11.0,0.0
3335,49.0,5.0,40.0,12.0,0.0
3336,46.0,3.0,40.0,13.0,0.0
3337,34.0,6.0,40.0,14.0,0.0
3338,53.0,4.0,40.0,11.0,0.0
3339,49.0,5.0,40.0,12.0,0.0
3340,46.0,3.0,40.0,13.0,0.0
3341,34.0,48.0,40.0,14.0,0.0
3342,70.0,42.0,60.0,10.0,0.0
3343,53.0,4.0,40.0,11.0,0.0
3344,49.0,5.0,40.0,12.0,0.0
3345,46.0,3.0,40.0,13.0,0.0
3346,34.0,6.0,40.0,14.0,0.0
3347,53.0,4.0,40.0,11.0,0.0
3348,49.0,5.0,40.0,12.0,0.0
3349,46.0,3.0,40.0,13.0,0.0
3350,34.0,48.0,40.0,14.0,0.0
3351,82.0,1.0,240.0,0.0,0.0
3352,77.0,0.0,240.0,0.0,0.0
3353,53.0,4.0,40.0,11.0,0.0
3354,73.0,0.0,240.0,1.0,0.0
3355,58.0,0.0,360.0,4.0,0.0
3356,70.0,3.0,240.0,1.0,0.0
3357,70.0,0.0,360.0,6.0,0.0
3358,58.0,2.0,360.0,6.0,0.0
3359,61.0,0.0,240.0,2.0,0.0
3360,65.0,7.0,240.0,2.0,0.0
3361,46.0,6.0,360.0,5.0,0.0
3362,49.0,5.0,40.0,12.0,0.0
3363,46.0,3.0,40.0,13.0,0.0
3364,49.0,30.0,240.0,3.0,0.0
3365,53.0,0.0,240.0,3.0,0.0
3366,46.0,29.0,120.0,15.0,0.0
3367,34.0,48.0,40.0,14.0,0.0
3368,53.0,4.0,40.0,11.0,0.0
3369,49.0,5.0,40.0,12.0,0.0
3370,46.0,3.0,40.0,13.0,0.0
3371,34.0,19.0,40.0,14.0,0.0
3372,53.0,4.0,40.0,11.0,0.0
3373,49.0,5.0,40.0,12.0,0.0
3374,46.0,3.0,40.0,13.0,0.0
3375,34.0,48.0,40.0,14.0,0.0
3376,53.0,4.0,40.0,11.0,0.0
3377,49.0,5.0,40.0,12.0,0.0
3378,46.0,3.0,40.0,13.0,0.0
3379,34.0,7.0,40.0,14.0,0.0
3380,69.0,1.0,120.0,10.0,0.0
3381,58.0,0.0,120.0,10.0,0.0
3382,78.0,1.0,120.0,0.0,0.0
3383,81.0,0.0,120.0,0.0,0.0
3384,75.0,0.0,120.0,1.0,0.0
3385,69.0,1.0,120.0,1.0,0.0
3386,54.0,4.0,40.0,11.0,0.0
3387,66.0,0.0,120.0,2.0,0.0
3388,63.0,1.0,120.0,2.0,0.0
3389,51.0,5.0,40.0,12.0,0.0
3390,46.0,3.0,40.0,13.0,0.0
3391,54.0,0.0,120.0,3.0,0.0
3392,51.0,1.0,120.0,3.0,0.0
3393,46.0,29.0,120.0,15.0,0.0
3394,34.0,48.0,40.0,14.0,0.0
3395,54.0,4.0,40.0,11.0,0.0
3396,51.0,5.0,40.0,12.0,0.0
3397,46.0,3.0,40.0,13.0,0.0
3398,34.0,6.0,40.0,14.0,0.0
3399,54.0,4.0,40.0,11.0,0.0
3400,51.0,5.0,40.0,12.0,0.0
3401,46.0,3.0,40.0,13.0,0.0
3402,34.0,48.0,40.0,14.0,0.0
3403,75.0,1.0,40.0,10.0,0.0
3404,54.0,3.0,40.0,11.0,0.0
3405,51.0,5.0,40.0,12.0,0.0
3406,46.0,3.0,40.0,13.0,0.0
3407,34.0,26.0,40.0,14.0,0.0
3408,77.0,20.0,20.0,10.0,0.0
3409,54.0,4.0,40.0,11.0,0.0
3410,51.0,5.0,40.0,12.0,0.0
3411,46.0,3.0,40.0,13.0,0.0
3412,34.0,6.0,40.0,14.0,0.0
3413,75.0,2.0,20.0,10.0,0.0
3414,77.0,20.0,20.0,10.0,0.0
3415,75.0,20.0,20.0,10.0,0.0
3416,54.0,4.0,40.0,11.0,0.0
3417,51.0,5.0,40.0,12.0,0.0
3418,46.0,3.0,40.0,13.0,0.0
3419,34.0,6.0,40.0,14.0,0.0
3420,77.0,2.0,20.0,10.0,0.0
3421,75.0,20.0,20.0,10.0,0.0
3422,77.0,20.0,20.0,10.0,0.0
3423,54.0,4.0,40.0,11.0,0.0
3424,51.0,5.0,40.0,12.0,0.0
3425,46.0,3.0,40.0,13.0,0.0
3426,34.0,6.0,40.0,14.0,0.0
3427,75.0,2.0,20.0,10.0,0.0
3428,77.0,30.0,20.0,10.0,0.0
3429,74.0,12.0,30.0,10.0,0.0
3430,54.0,4.0,40.0,11.0,0.0
3431,51.0,5.0,40.0,12.0,0.0
3432,46.0,3.0,40.0,13.0,0.0
3433,34.0,6.0,40.0,14.0,0.0
3434,75.0,42.0,30.0,10.0,0.0
3435,78.0,42.0,60.0,10.0,0.0
3436,54.0,4.0,40.0,11.0,0.0
3437,51.0,5.0,40.0,12.0,0.0
3438,46.0,3.0,40.0,13.0,0.0
3439,34.0,6.0,40.0,14.0,0.0
3440,54.0,4.0,40.0,11.0,0.0
3441,51.0,5.0,40.0,12.0,0.0
3442,46.0,3.0,40.0,13.0,0.0
3443,34.0,48.0,40.0,14.0,0.0
3444,69.0,42.0,60.0,10.0,0.0
3445,54.0,4.0,40.0,11.0,0.0
3446,51.0,5.0,40.0,12.0,0.0
3447,46.0,3.0,40.0,13.0,0.0
3448,34.0,6.0,40.0,14.0,0.0
3449,54.0,4.0,40.0,11.0,0.0
3450,51.0,5.0,40.0,12.0,0.0
3451,46.0,3.0,40.0,13.0,0.0
3452,34.0,48.0,40.0,14.0,0.0
3453,78.0,0.0,240.0,0.0,0.0
3454,81.0,1.0,240.0,0.0,0.0
3455,54.0,4.0,40.0,11.0,0.0
3456,58.0,0.0,360.0,4.0,0.0
3457,69.0,3.0,240.0,1.0,0.0
3458,75.0,0.0,240.0,1.0,0.0
3459,70.0,2.0,360.0,6.0,0.0
3460,58.0,0.0,360.0,6.0,0.0
3461,63.0,0.0,240.0,2.0,0.0
3462,66.0,7.0,240.0,2.0,0.0
3463,46.0,6.0,360.0,5.0,0.0
3464,51.0,5.0,40.0,12.0,0.0
3465,46.0,3.0,40.0,13.0,0.0
3466,51.0,0.0,240.0,3.0,0.0
3467,54.0,30.0,240.0,3.0,0.0
3468,46.0,29.0,120.0,15.0,0.0
3469,34.0,48.0,40.0,14.0,0.0
3470,54.0,4.0,40.0,11.0,0.0
3471,51.0,5.0,40.0,12.0,0.0
3472,46.0,3.0,40.0,13.0,0.0
3473,34.0,19.0,40.0,14.0,0.0
3474,54.0,4.0,40.0,11.0,0.0
3475,51.0,5.0,40.0,12.0,0.0
3476,46.0,3.0,40.0,13.0,0.0
3477,34.0,48.0,40.0,14.0,0.0
3478,54.0,4.0,40.0,11.0,0.0
3479,51.0,5.0,40.0,12.0,0.0
3480,46.0,3.0,40.0,13.0,0.0
3481,34.0,7.0,40.0,14.0,0.0
3482,58.0,0.0,120.0,10.0,0.0
3483,70.0,1.0,120.0,10.0,0.0
3484,77.0,1.0,120.0,0.0,0.0
3485,82.0,0.0,120.0,0.0,0.0
3486,53.0,4.0,40.0,11.0,0.0
3487,58.0,0.0,40.0,11.0,0.0
3488,70.0,0.0,120.0,1.0,0.0
3489,73.0,1.0,120.0,1.0,0.0
3490,61.0,0.0,120.0,2.0,0.0
3491,65.0,1.0,120.0,2.0,0.0
3492,49.0,5.0,40.0,12.0,0.0
3493,46.0,3.0,40.0,13.0,0.0
3494,49.0,0.0,120.0,3.0,0.0
3495,53.0,1.0,120.0,3.0,0.0
3496,46.0,29.0,120.0,15.0,0.0
3497,34.0,48.0,40.0,14.0,0.0
3498,58.0,4.0,40.0,11.0,0.0
3499,53.0,0.0,40.0,11.0,0.0
3500,49.0,5.0,40.0,12.0,0.0
3501,46.0,3.0,40.0,13.0,0.0
3502,34.0,6.0,40.0,14.0,0.0
3503,58.0,4.0,40.0,11.0,0.0
3504,53.0,0.0,40.0,11.0,0.0
3505,49.0,5.0,40.0,12.0,0.0
3506,46.0,3.0,40.0,13.0,0.0
3507,34.0,48.0,40.0,14.0,0.0
3508,73.0,1.0,40.0,10.0,0.0
3509,58.0,3.0,40.0,11.0,0.0
3510,53.0,0.0,40.0,11.0,0.0
3511,49.0,5.0,40.0,12.0,0.0
3512,46.0,3.0,40.0,13.0,0.0
3513,34.0,26.0,40.0,14.0,0.0
3514,75.0,20.0,20.0,10.0,0.0
3515,58.0,4.0,40.0,11.0,0.0
3516,53.0,0.0,40.0,11.0,0.0
3517,49.0,5.0,40.0,12.0,0.0
3518,46.0,3.0,40.0,13.0,0.0
3519,34.0,6.0,40.0,14.0,0.0
3520,73.0,2.0,20.0,10.0,0.0
3521,75.0,20.0,20.0,10.0,0.0
3522,73.0,20.0,20.0,10.0,0.0
3523,58.0,4.0,40.0,11.0,0.0
3524,53.0,0.0,40.0,11.0,0.0
3525,49.0,5.0,40.0,12.0,0.0
3526,46.0,3.0,40.0,13.0,0.0
3527,34.0,6.0,40.0,14.0,0.0
3528,75.0,2.0,20.0,10.0,0.0
3529,73.0,20.0,20.0,10.0,0.0
3530,75.0,20.0,20.0,10.0,0.0
3531,53.0,0.0,40.0,11.0,0.0
3532,58.0,4.0,40.0,11.0,0.0
3533,49.0,5.0,40.0,12.0,0.0
3534,46.0,3.0,40.0,13.0,0.0
3535,34.0,6.0,40.0,14.0,0.0
3536,73.0,2.0,20.0,10.0,0.0
3537,75.0,30.0,20.0,10.0,0.0
3538,72.0,12.0,30.0,10.0,0.0
3539,53.0,0.0,40.0,11.0,0.0
3540,58.0,4.0,40.0,11.0,0.0
3541,49.0,5.0,40.0,12.0,0.0
3542,46.0,3.0,40.0,13.0,0.0
3543,34.0,6.0,40.0,14.0,0.0
3544,73.0,42.0,30.0,10.0,0.0
3545,77.0,42.0,60.0,10.0,0.0
3546,58.0,0.0,40.0,11.0,0.0
3547,53.0,4.0,40.0,11.0,0.0
3548,49.0,5.0,40.0,12.0,0.0
3549,46.0,3.0,40.0,13.0,0.0
3550,34.0,6.0,40.0,14.0,0.0
3551,58.0,0.0,40.0,11.0,0.0
3552,53.0,4.0,40.0,11.0,0.0
3553,49.0,5.0,40.0,12.0,0.0
3554,46.0,3.0,40.0,13.0,0.0
3555,34.0,48.0,40.0,14.0,0.0
3556,70.0,42.0,60.0,10.0,0.0
3557,53.0,4.0,40.0,11.0,0.0
3558,58.0,0.0,40.0,11.0,0.0
3559,49.0,5.0,40.0,12.0,0.0
3560,46.0,3.0,40.0,13.0,0.0
3561,34.0,6.0,40.0,14.0,0.0
3562,58.0,4.0,40.0,11.0,0.0
3563,53.0,0.0,40.0,11.0,0.0
3564,49.0,5.0,40.0,12.0,0.0
3565,46.0,3.0,40.0,13.0,0.0
3566,34.0,48.0,40.0,14.0,0.0
3567,82.0,1.0,60.0,0.0,0.0
3568,77.0,0.0,60.0,0.0,0.0
3569,73.0,0.0,60.0,1.0,0.0
3570,58.0,0.0,60.0,4.0,0.0
3571,58.0,0.0,40.0,11.0,0.0
3572,53.0,4.0,40.0,11.0,0.0
3573,70.0,1.0,60.0,1.0,0.0
3574,70.0,2.0,60.0,6.0,0.0
3575,58.0,0.0,60.0,6.0,0.0
3576,61.0,0.0,60.0,2.0,0.0
3577,70.0,1.0,60.0,2.0,0.0
3578,49.0,5.0,40.0,12.0,0.0
3579,46.0,6.0,60.0,5.0,0.0
3580,46.0,3.0,40.0,13.0,0.0
3581,49.0,0.0,60.0,3.0,0.0
3582,53.0,1.0,60.0,3.0,0.0
3583,46.0,29.0,60.0,15.0,0.0
3584,34.0,7.0,40.0,14.0,0.0
3585,53.0,0.0,40.0,11.0,0.0
3586,58.0,4.0,40.0,11.0,0.0
3587,49.0,5.0,40.0,12.0,0.0
3588,46.0,3.0,40.0,13.0,0.0
3589,34.0,48.0,40.0,14.0,0.0
3590,82.0,1.0,60.0,0.0,0.0
3591,77.0,0.0,60.0,0.0,0.0
3592,53.0,4.0,40.0,11.0,0.0
3593,58.0,0.0,40.0,11.0,0.0
3594,73.0,0.0,60.0,1.0,0.0
3595,58.0,0.0,60.0,4.0,0.0
3596,70.0,1.0,60.0,1.0,0.0
3597,70.0,0.0,60.0,6.0,0.0
3598,58.0,2.0,60.0,6.0,0.0
3599,70.0,0.0,60.0,2.0,0.0
3600,61.0,1.0,60.0,2.0,0.0
3601,46.0,6.0,60.0,5.0,0.0
3602,49.0,5.0,40.0,12.0,0.0
3603,46.0,3.0,40.0,13.0,0.0
3604,53.0,0.0,60.0,3.0,0.0
3605,49.0,1.0,60.0,3.0,0.0
3606,46.0,29.0,60.0,15.0,0.0
3607,34.0,7.0,40.0,14.0,0.0
3608,58.0,0.0,40.0,11.0,0.0
3609,53.0,4.0,40.0,11.0,0.0
3610,49.0,5.0,40.0,12.0,0.0
3611,46.0,3.0,40.0,13.0,0.0
3612,34.0,48.0,40.0,14.0,0.0
3613,69.0,0.0,120.0,10.0,0.0
3614,58.0,13.0,120.0,10.0,0.0
3615,54.0,0.0,40.0,11.0,0.0
3616,60.0,4.0,40.0,11.0,0.0
3617,51.0,5.0,40.0,12.0,0.0
3618,46.0,3.0,40.0,13.0,0.0
3619,46.0,29.0,120.0,15.0,0.0
3620,34.0,48.0,40.0,14.0,0.0
3621,54.0,4.0,40.0,11.0,0.0
3622,60.0,0.0,40.0,11.0,0.0
3623,51.0,5.0,40.0,12.0,0.0
3624,46.0,3.0,40.0,13.0,0.0
3625,34.0,6.0,40.0,14.0,0.0
3626,60.0,0.0,40.0,11.0,0.0
3627,54.0,4.0,40.0,11.0,0.0
3628,51.0,5.0,40.0,12.0,0.0
3629,46.0,3.0,40.0,13.0,0.0
3630,34.0,48.0,40.0,14.0,0.0
3631,75.0,1.0,40.0,10.0,0.0
3632,60.0,3.0,40.0,11.0,0.0
3633,54.0,0.0,40.0,11.0,0.0
3634,51.0,5.0,40.0,12.0,0.0
3635,46.0,3.0,40.0,13.0,0.0
3636,34.0,26.0,40.0,14.0,0.0
3637,77.0,20.0,20.0,10.0,0.0
3638,54.0,4.0,40.0,11.0,0.0
3639,60.0,0.0,40.0,11.0,0.0
3640,51.0,5.0,40.0,12.0,0.0
3641,46.0,3.0,40.0,13.0,0.0
3642,34.0,6.0,40.0,14.0,0.0
3643,75.0,2.0,20.0,10.0,0.0
3644,77.0,20.0,20.0,10.0,0.0
3645,75.0,20.0,20.0,10.0,0.0
3646,54.0,0.0,40.0,11.0,0.0
3647,60.0,4.0,40.0,11.0,0.0
3648,51.0,5.0,40.0,12.0,0.0
3649,46.0,3.0,40.0,13.0,0.0
3650,34.0,6.0,40.0,14.0,0.0
3651,77.0,2.0,20.0,10.0,0.0
3652,75.0,20.0,20.0,10.0,0.0
3653,77.0,20.0,20.0,10.0,0.0
3654,54.0,0.0,40.0,11.0,0.0
3655,60.0,4.0,40.0,11.0,0.0
3656,51.0,5.0,40.0,12.0,0.0
3657,46.0,3.0,40.0,13.0,0.0
3658,34.0,6.0,40.0,14.0,0.0
3659,75.0,2.0,20.0,10.0,0.0
3660,77.0,30.0,20.0,10.0,0.0
3661,74.0,12.0,30.0,10.0,0.0
3662,60.0,0.0,40.0,11.0,0.0
3663,54.0,4.0,40.0,11.0,0.0
3664,51.0,5.0,40.0,12.0,0.0
3665,46.0,3.0,40.0,13.0,0.0
3666,34.0,6.0,40.0,14.0,0.0
3667,75.0,42.0,30.0,10.0,0.0
3668,78.0,42.0,60.0,10.0,0.0
3669,60.0,4.0,40.0,11.0,0.0
3670,54.0,0.0,40.0,11.0,0.0
3671,51.0,5.0,40.0,12.0,0.0
3672,46.0,3.0,40.0,13.0,0.0
3673,34.0,6.0,40.0,14.0,0.0
3674,54.0,0.0,40.0,11.0,0.0
3675,60.0,4.0,40.0,11.0,0.0
3676,51.0,5.0,40.0,12.0,0.0
3677,46.0,3.0,40.0,13.0,0.0
3678,34.0,48.0,40.0,14.0,0.0
3679,69.0,42.0,60.0,10.0,0.0
3680,60.0,0.0,40.0,11.0,0.0
3681,54.0,4.0,40.0,11.0,0.0
3682,51.0,5.0,40.0,12.0,0.0
3683,46.0,3.0,40.0,13.0,0.0
3684,34.0,6.0,40.0,14.0,0.0
3685,54.0,0.0,40.0,11.0,0.0
3686,60.0,4.0,40.0,11.0,0.0
3687,51.0,5.0,40.0,12.0,0.0
3688,46.0,3.0,40.0,13.0,0.0
3689,34.0,48.0,40.0,14.0,0.0
3690,78.0,0.0,60.0,0.0,0.0
3691,81.0,1.0,60.0,0.0,0.0
3692,60.0,0.0,40.0,11.0,0.0
3693,58.0,0.0,60.0,4.0,0.0
3694,75.0,1.0,60.0,1.0,0.0
3695,54.0,4.0,40.0,11.0,0.0
3696,69.0,0.0,60.0,1.0,0.0
3697,58.0,0.0,60.0,6.0,0.0
3698,70.0,2.0,60.0,6.0,0.0
3699,63.0,0.0,60.0,2.0,0.0
3700,69.0,1.0,60.0,2.0,0.0
3701,46.0,6.0,60.0,5.0,0.0
3702,51.0,5.0,40.0,12.0,0.0
3703,46.0,3.0,40.0,13.0,0.0
3704,54.0,1.0,60.0,3.0,0.0
3705,51.0,0.0,60.0,3.0,0.0
3706,46.0,29.0,60.0,15.0,0.0
3707,34.0,7.0,40.0,14.0,0.0
3708,60.0,0.0,40.0,11.0,0.0
3709,54.0,4.0,40.0,11.0,0.0
3710,51.0,5.0,40.0,12.0,0.0
3711,46.0,3.0,40.0,13.0,0.0
3712,34.0,48.0,40.0,14.0,0.0
3713,81.0,1.0,60.0,0.0,0.0
3714,78.0,0.0,60.0,0.0,0.0
3715,69.0,0.0,60.0,1.0,0.0
3716,75.0,1.0,60.0,1.0,0.0
3717,54.0,0.0,40.0,11.0,0.0
3718,60.0,4.0,40.0,11.0,0.0
3719,58.0,0.0,60.0,4.0,0.0
3720,58.0,2.0,60.0,6.0,0.0
3721,70.0,0.0,60.0,6.0,0.0
3722,69.0,0.0,60.0,2.0,0.0
3723,63.0,1.0,60.0,2.0,0.0
3724,46.0,6.0,60.0,5.0,0.0
3725,51.0,5.0,40.0,12.0,0.0
3726,46.0,3.0,40.0,13.0,0.0
3727,51.0,1.0,60.0,3.0,0.0
3728,54.0,0.0,60.0,3.0,0.0
3729,46.0,29.0,60.0,15.0,0.0
3730,34.0,7.0,40.0,14.0,0.0
3731,60.0,0.0,40.0,11.0,0.0
3732,54.0,4.0,40.0,11.0,0.0
3733,51.0,5.0,40.0,12.0,0.0
3734,46.0,3.0,40.0,13.0,0.0
3735,34.0,48.0,40.0,14.0,0.0
3736,77.0,42.0,60.0,10.0,0.0
3737,58.0,0.0,40.0,11.0,0.0
3738,53.0,4.0,40.0,11.0,0.0
3739,49.0,5.0,40.0,12.0,0.0
3740,46.0,3.0,40.0,13.0,0.0
3741,46.0,29.0,120.0,15.0,0.0
3742,34.0,6.0,40.0,14.0,0.0
3743,58.0,4.0,40.0,11.0,0.0
3744,53.0,0.0,40.0,11.0,0.0
3745,49.0,5.0,40.0,12.0,0.0
3746,46.0,3.0,40.0,13.0,0.0
3747,34.0,19.0,40.0,14.0,0.0
3748,70.0,42.0,60.0,10.0,0.0
3749,58.0,0.0,40.0,11.0,0.0
3750,53.0,4.0,40.0,11.0,0.0
3751,49.0,5.0,40.0,12.0,0.0
3752,46.0,3.0,40.0,13.0,0.0
3753,34.0,6.0,40.0,14.0,0.0
3754,58.0,4.0,40.0,11.0,0.0
3755,53.0,0.0,40.0,11.0,0.0
3756,49.0,5.0,40.0,12.0,0.0
3757,46.0,3.0,40.0,13.0,0.0
3758,34.0,48.0,40.0,14.0,0.0
3759,82.0,1.0,60.0,0.0,0.0
3760,77.0,0.0,60.0,0.0,0.0
3761,70.0,0.0,60.0,1.0,0.0
3762,73.0,0.0,60.0,1.0,0.0
3763,53.0,0.0,40.0,11.0,0.0
3764,58.0,1.0,60.0,4.0,0.0
3765,58.0,4.0,40.0,11.0,0.0
3766,70.0,0.0,60.0,6.0,0.0
3767,58.0,2.0,60.0,6.0,0.0
3768,61.0,0.0,60.0,2.0,0.0
3769,70.0,1.0,60.0,2.0,0.0
3770,46.0,6.0,60.0,5.0,0.0
3771,49.0,5.0,40.0,12.0,0.0
3772,46.0,3.0,40.0,13.0,0.0
3773,53.0,0.0,60.0,3.0,0.0
3774,49.0,30.0,60.0,3.0,0.0
3775,34.0,7.0,40.0,14.0,0.0
3776,58.0,4.0,40.0,11.0,0.0
3777,53.0,0.0,40.0,11.0,0.0
3778,49.0,5.0,40.0,12.0,0.0
3779,46.0,3.0,40.0,13.0,0.0
3780,34.0,48.0,40.0,14.0,0.0
3781,82.0,0.0,60.0,0.0,0.0
3782,77.0,1.0,60.0,0.0,0.0
3783,58.0,0.0,60.0,4.0,0.0
3784,73.0,1.0,60.0,1.0,0.0
3785,58.0,0.0,40.0,11.0,0.0
3786,70.0,0.0,60.0,1.0,0.0
3787,53.0,4.0,40.0,11.0,0.0
3788,70.0,0.0,60.0,6.0,0.0
3789,58.0,2.0,60.0,6.0,0.0
3790,61.0,0.0,60.0,2.0,0.0
3791,70.0,1.0,60.0,2.0,0.0
3792,46.0,6.0,60.0,5.0,0.0
3793,49.0,5.0,40.0,12.0,0.0
3794,46.0,3.0,40.0,13.0,0.0
3795,53.0,30.0,60.0,3.0,0.0
3796,49.0,0.0,60.0,3.0,0.0
3797,34.0,7.0,40.0,14.0,0.0
3798,53.0,0.0,40.0,11.0,0.0
3799,58.0,4.0,40.0,11.0,0.0
3800,49.0,5.0,40.0,12.0,0.0
3801,46.0,3.0,40.0,13.0,0.0
3802,34.0,48.0,40.0,14.0,0.0
3803,78.0,42.0,60.0,10.0,0.0
3804,54.0,4.0,40.0,11.0,0.0
3805,51.0,5.0,40.0,12.0,0.0
3806,46.0,3.0,40.0,13.0,0.0
3807,46.0,29.0,120.0,15.0,0.0
3808,34.0,6.0,40.0,14.0,0.0
3809,54.0,4.0,40.0,11.0,0.0
3810,51.0,5.0,40.0,12.0,0.0
3811,46.0,3.0,40.0,13.0,0.0
3812,34.0,19.0,40.0,14.0,0.0
3813,69.0,42.0,60.0,10.0,0.0
3814,54.0,4.0,40.0,11.0,0.0
3815,51.0,5.0,40.0,12.0,0.0
3816,46.0,3.0,40.0,13.0,0.0
3817,34.0,6.0,40.0,14.0,0.0
3818,54.0,4.0,40.0,11.0,0.0
3819,51.0,5.0,40.0,12.0,0.0
3820,46.0,3.0,40.0,13.0,0.0
3821,34.0,48.0,40.0,14.0,0.0
3822,81.0,1.0,60.0,0.0,0.0
3823,78.0,0.0,60.0,0.0,0.0
3824,69.0,0.0,60.0,1.0,0.0
3825,75.0,1.0,60.0,1.0,0.0
3826,58.0,0.0,60.0,4.0,0.0
3827,54.0,4.0,40.0,11.0,0.0
3828,70.0,0.0,60.0,6.0,0.0
3829,58.0,2.0,60.0,6.0,0.0
3830,69.0,1.0,60.0,2.0,0.0
3831,63.0,0.0,60.0,2.0,0.0
3832,51.0,5.0,40.0,12.0,0.0
3833,46.0,6.0,60.0,5.0,0.0
3834,46.0,3.0,40.0,13.0,0.0
3835,54.0,0.0,60.0,3.0,0.0
3836,51.0,30.0,60.0,3.0,0.0
3837,34.0,7.0,40.0,14.0,0.0
3838,54.0,4.0,40.0,11.0,0.0
3839,51.0,5.0,40.0,12.0,0.0
3840,46.0,3.0,40.0,13.0,0.0
3841,34.0,48.0,40.0,14.0,0.0
3842,81.0,1.0,60.0,0.0,0.0
3843,78.0,0.0,60.0,0.0,0.0
3844,69.0,0.0,60.0,1.0,0.0
3845,75.0,0.0,60.0,1.0,0.0
3846,54.0,4.0,40.0,11.0,0.0
3847,58.0,1.0,60.0,4.0,0.0
3848,70.0,0.0,60.0,6.0,0.0
3849,58.0,2.0,60.0,6.0,0.0
3850,69.0,0.0,60.0,2.0,0.0
3851,63.0,1.0,60.0,2.0,0.0
3852,51.0,5.0,40.0,12.0,0.0
3853,46.0,6.0,60.0,5.0,0.0
3854,46.0,3.0,40.0,13.0,0.0
3855,54.0,0.0,60.0,3.0,0.0
3856,51.0,30.0,60.0,3.0,0.0
3857,34.0,7.0,40.0,14.0,0.0
3858,54.0,4.0,40.0,11.0,0.0
3859,51.0,5.0,40.0,12.0,0.0
3860,46.0,3.0,40.0,13.0,0.0
3861,34.0,48.0,40.0,14.0,0.0
3862,77.0,42.0,60.0,10.0,0.0
3863,53.0,4.0,40.0,11.0,0.0
3864,49.0,5.0,40.0,12.0,0.0
3865,46.0,3.0,40.0,13.0,0.0
3866,46.0,29.0,120.0,15.0,0.0
3867,34.0,6.0,40.0,14.0,0.0
3868,53.0,4.0,40.0,11.0,0.0
3869,49.0,5.0,40.0,12.0,0.0
3870,46.0,3.0,40.0,13.0,0.0
3871,34.0,19.0,40.0,14.0,0.0
3872,70.0,42.0,60.0,10.0,0.0
3873,53.0,4.0,40.0,11.0,0.0
3874,49.0,5.0,40.0,12.0,0.0
3875,46.0,3.0,40.0,13.0,0.0
3876,34.0,6.0,40.0,14.0,0.0
3877,53.0,4.0,40.0,11.0,0.0
3878,49.0,5.0,40.0,12.0,0.0
3879,46.0,3.0,40.0,13.0,0.0
3880,34.0,48.0,40.0,14.0,0.0
3881,77.0,0.0,60.0,0.0,0.0
3882,82.0,1.0,60.0,0.0,0.0
3883,58.0,0.0,60.0,4.0,0.0
3884,53.0,4.0,40.0,11.0,0.0
3885,73.0,0.0,60.0,1.0,0.0
3886,70.0,1.0,60.0,1.0,0.0
3887,58.0,2.0,60.0,6.0,0.0
3888,70.0,0.0,60.0,6.0,0.0
3889,61.0,1.0,60.0,2.0,0.0
3890,70.0,0.0,60.0,2.0,0.0
3891,49.0,5.0,40.0,12.0,0.0
3892,46.0,6.0,60.0,5.0,0.0
3893,46.0,3.0,40.0,13.0,0.0
3894,49.0,0.0,60.0,3.0,0.0
3895,53.0,30.0,60.0,3.0,0.0
3896,34.0,7.0,40.0,14.0,0.0
3897,53.0,4.0,40.0,11.0,0.0
3898,49.0,5.0,40.0,12.0,0.0
3899,46.0,3.0,40.0,13.0,0.0
3900,34.0,48.0,40.0,14.0,0.0
3901,82.0,0.0,60.0,0.0,0.0
3902,77.0,1.0,60.0,0.0,0.0
3903,70.0,0.0,60.0,1.0,0.0
3904,73.0,1.0,60.0,1.0,0.0
3905,53.0,4.0,40.0,11.0,0.0
3906,58.0,0.0,60.0,4.0,0.0
3907,70.0,2.0,60.0,6.0,0.0
3908,58.0,0.0,60.0,6.0,0.0
3909,70.0,0.0,60.0,2.0,0.0
3910,61.0,1.0,60.0,2.0,0.0
3911,49.0,5.0,40.0,12.0,0.0
3912,46.0,6.0,60.0,5.0,0.0
3913,46.0,3.0,40.0,13.0,0.0
3914,53.0,30.0,60.0,3.0,0.0
3915,49.0,0.0,60.0,3.0,0.0
3916,34.0,7.0,40.0,14.0,0.0
3917,53.0,4.0,40.0,11.0,0.0
3918,49.0,5.0,40.0,12.0,0.0
3919,46.0,3.0,40.0,13.0,0.0
3920,34.0,48.0,40.0,14.0,0.0
3921,78.0,42.0,60.0,10.0,0.0
3922,54.0,4.0,40.0,11.0,0.0
3923,51.0,5.0,40.0,12.0,0.0
3924,46.0,3.0,40.0,13.0,0.0
3925,46.0,29.0,120.0,15.0,0.0
3926,34.0,6.0,40.0,14.0,0.0
3927,54.0,4.0,40.0,11.0,0.0
3928,51.0,5.0,40.0,12.0,0.0
3929,46.0,3.0,40.0,13.0,0.0
3930,34.0,19.0,40.0,14.0,0.0
3931,69.0,42.0,60.0,10.0,0.0
3932,54.0,4.0,40.0,11.0,0.0
3933,51.0,5.0,40.0,12.0,0.0
3934,46.0,3.0,40.0,13.0,0.0
3935,34.0,6.0,40.0,14.0,0.0
3936,54.0,4.0,40.0,11.0,0.0
3937,51.0,5.0,40.0,12.0,0.0
3938,46.0,3.0,40.0,13.0,0.0
3939,34.0,48.0,40.0,14.0,0.0
3940,78.0,1.0,60.0,0.0,0.0
3941,81.0,0.0,60.0,0.0,0.0
3942,54.0,4.0,40.0,11.0,0.0
3943,58.0,1.0,60.0,4.0,0.0
3944,69.0,0.0,60.0,1.0,0.0
3945,75.0,0.0,60.0,1.0,0.0
3946,70.0,2.0,60.0,6.0,0.0
3947,58.0,0.0,60.0,6.0,0.0
3948,69.0,1.0,60.0,2.0,0.0
3949,63.0,0.0,60.0,2.0,0.0
3950,46.0,6.0,60.0,5.0,0.0
3951,51.0,5.0,40.0,12.0,0.0
3952,46.0,3.0,40.0,13.0,0.0
3953,51.0,30.0,60.0,3.0,0.0
3954,54.0,0.0,60.0,3.0,0.0
3955,34.0,7.0,40.0,14.0,0.0
3956,54.0,4.0,40.0,11.0,0.0
3957,51.0,5.0,40.0,12.0,0.0
3958,46.0,3.0,40.0,13.0,0.0
3959,34.0,48.0,40.0,14.0,0.0
3960,81.0,1.0,60.0,0.0,0.0
3961,78.0,0.0,60.0,0.0,0.0
3962,54.0,4.0,40.0,11.0,0.0
3963,75.0,1.0,60.0,1.0,0.0
3964,58.0,0.0,60.0,4.0,0.0
3965,69.0,0.0,60.0,1.0,0.0
3966,58.0,0.0,60.0,6.0,0.0
3967,70.0,2.0,60.0,6.0,0.0
3968,63.0,0.0,60.0,2.0,0.0
3969,69.0,1.0,60.0,2.0,0.0
3970,51.0,5.0,40.0,12.0,0.0
3971,46.0,6.0,60.0,5.0,0.0
3972,46.0,3.0,40.0,13.0,0.0
3973,54.0,0.0,60.0,3.0,0.0
3974,51.0,30.0,60.0,3.0,0.0
3975,34.0,7.0,40.0,14.0,0.0
3976,54.0,4.0,40.0,11.0,0.0
3977,51.0,5.0,40.0,12.0,0.0
3978,46.0,3.0,40.0,13.0,0.0
3979,34.0,118.0,40.0,14.0,0.0
3980,70.0,2.0,1080.0,10.0,0.0
3981,82.0,0.0,120.0,0.0,0.0
3982,77.0,1.0,120.0,0.0,0.0
3983,70.0,1.0,120.0,1.0,0.0
3984,53.0,9.0,120.0,11.0,0.0
3985,58.0,0.0,120.0,4.0,0.0
3986,73.0,0.0,120.0,1.0,0.0
3987,70.0,2.0,120.0,6.0,0.0
3988,58.0,0.0,120.0,6.0,0.0
3989,61.0,1.0,120.0,2.0,0.0
3990,70.0,0.0,120.0,2.0,0.0
3991,46.0,0.0,120.0,5.0,0.0
3992,49.0,6.0,120.0,12.0,0.0
3993,58.0,51.0,240.0,13.0,0.0
3994,53.0,1.0,120.0,3.0,0.0
3995,49.0,0.0,120.0,3.0,0.0
3996,46.0,1.0,120.0,15.0,0.0
3997,34.0,18.0,120.0,14.0,0.0
3998,65.0,60.0,30.0,11.0,0.0
3999,65.0,39.0,30.0,11.0,0.0
4000,62.0,50.0,60.0,11.0,0.0
4001,56.0,5.0,240.0,12.0,0.0
4002,56.0,51.0,240.0,13.0,0.0
4003,58.0,40.0,60.0,11.0,0.0
4004,65.0,60.0,30.0,11.0,0.0
4005,65.0,34.0,30.0,11.0,0.0
4006,63.0,50.0,60.0,11.0,0.0
4007,54.0,5.0,240.0,12.0,0.0
4008,54.0,51.0,240.0,13.0,0.0
4009,60.0,40.0,60.0,11.0,0.0
4010,66.0,60.0,30.0,11.0,0.0
4011,66.0,34.0,30.0,11.0,0.0
4012,65.0,50.0,60.0,11.0,0.0
4013,50.0,5.0,240.0,12.0,0.0
4014,50.0,109.0,240.0,13.0,0.0
4015,58.0,40.0,60.0,11.0,0.0
4016,68.0,60.0,30.0,11.0,0.0
4017,68.0,34.0,30.0,11.0,0.0
4018,66.0,4.0,120.0,11.0,0.0
4019,75.0,10.0,240.0,1.0,0.0
4020,51.0,5.0,120.0,12.0,0.0
4021,51.0,3.0,120.0,13.0,0.0
4022,54.0,48.0,240.0,3.0,0.0
4023,27.0,16.0,120.0,14.0,0.0
4024,75.0,60.0,30.0,10.0,0.0
4025,75.0,32.0,30.0,10.0,0.0
4026,70.0,50.0,60.0,10.0,0.0
4027,63.0,10.0,840.0,11.0,0.0
4028,73.0,10.0,240.0,1.0,0.0
4029,55.0,48.0,240.0,3.0,0.0
4030,67.0,40.0,60.0,10.0,0.0
4031,75.0,60.0,30.0,10.0,0.0
4032,75.0,32.0,30.0,10.0,0.0
4033,71.0,50.0,60.0,10.0,0.0
4034,71.0,10.0,240.0,1.0,0.0
4035,56.0,48.0,240.0,3.0,0.0
4036,68.0,40.0,60.0,10.0,0.0
4037,75.0,60.0,30.0,10.0,0.0
4038,75.0,32.0,30.0,10.0,0.0
4039,73.0,50.0,60.0,10.0,0.0
4040,67.0,10.0,240.0,1.0,0.0
4041,61.0,108.0,240.0,3.0,0.0
4042,70.0,40.0,60.0,10.0,0.0
4043,75.0,60.0,30.0,10.0,0.0
4044,75.0,32.0,30.0,10.0,0.0
4045,71.0,2.0,120.0,10.0,0.0
4046,68.0,0.0,120.0,1.0,0.0
4047,56.0,5.0,240.0,12.0,0.0
4048,56.0,51.0,240.0,13.0,0.0
4049,59.0,2.0,120.0,3.0,0.0
4050,32.0,18.0,120.0,14.0,0.0
4051,63.0,60.0,30.0,11.0,0.0
4052,63.0,34.0,30.0,11.0,0.0
4053,68.0,2.0,840.0,10.0,0.0
4054,60.0,50.0,60.0,11.0,0.0
4055,54.0,5.0,240.0,12.0,0.0
4056,54.0,51.0,240.0,13.0,0.0
4057,56.0,40.0,60.0,11.0,0.0
4058,63.0,60.0,30.0,11.0,0.0
4059,63.0,34.0,30.0,11.0,0.0
4060,61.0,50.0,60.0,11.0,0.0
4061,53.0,5.0,240.0,12.0,0.0
4062,53.0,51.0,240.0,13.0,0.0
4063,56.0,40.0,60.0,11.0,0.0
4064,65.0,60.0,30.0,11.0,0.0
4065,65.0,34.0,30.0,11.0,0.0
4066,63.0,50.0,60.0,11.0,0.0
4067,48.0,5.0,240.0,12.0,0.0
4068,48.0,109.0,240.0,13.0,0.0
4069,56.0,40.0,60.0,11.0,0.0
4070,66.0,60.0,30.0,11.0,0.0
4071,66.0,34.0,30.0,11.0,0.0
4072,73.0,10.0,240.0,1.0,0.0
4073,64.0,4.0,120.0,11.0,0.0
4074,49.0,5.0,120.0,12.0,0.0
4075,49.0,3.0,120.0,13.0,0.0
4076,52.0,48.0,240.0,3.0,0.0
4077,37.0,16.0,120.0,14.0,0.0
4078,73.0,60.0,30.0,10.0,0.0
4079,73.0,32.0,30.0,10.0,0.0
4080,68.0,50.0,60.0,10.0,0.0
4081,61.0,0.0,720.0,11.0,0.0
4082,71.0,10.0,240.0,1.0,0.0
4083,53.0,48.0,240.0,3.0,0.0
4084,65.0,40.0,60.0,10.0,0.0
4085,73.0,60.0,30.0,10.0,0.0
4086,73.0,32.0,30.0,10.0,0.0
4087,70.0,50.0,60.0,10.0,0.0
4088,70.0,10.0,240.0,1.0,0.0
4089,54.0,48.0,240.0,3.0,0.0
4090,66.0,40.0,60.0,10.0,0.0
4091,73.0,60.0,30.0,10.0,0.0
4092,73.0,32.0,30.0,10.0,0.0
4093,71.0,50.0,60.0,10.0,0.0
4094,65.0,10.0,240.0,1.0,0.0
4095,59.0,33.0,240.0,3.0,0.0
4096,68.0,40.0,60.0,10.0,0.0
4097,73.0,60.0,30.0,10.0,0.0
4098,73.0,32.0,30.0,10.0,0.0
4099,61.0,0.0,40.0,10.0,0.0
4100,70.0,2.0,40.0,10.0,0.0
4101,61.0,58.0,40.0,11.0,0.0
4102,66.0,4.0,120.0,1.0,0.0
4103,58.0,1.0,480.0,4.0,0.0
4104,58.0,0.0,480.0,6.0,0.0
4105,70.0,3.0,480.0,6.0,0.0
4106,46.0,0.0,480.0,5.0,0.0
4107,54.0,5.0,120.0,12.0,0.0
4108,42.0,1.0,120.0,13.0,0.0
4109,58.0,0.0,120.0,3.0,0.0
4110,42.0,1.0,120.0,3.0,0.0
4111,46.0,1.0,120.0,15.0,0.0
4112,30.0,31.0,120.0,14.0,0.0
4113,70.0,0.0,40.0,10.0,0.0
4114,61.0,2.0,40.0,10.0,0.0
4115,58.0,0.0,40.0,11.0,0.0
4116,66.0,15.0,40.0,11.0,0.0
4117,70.0,2.0,40.0,10.0,0.0
4118,61.0,0.0,40.0,10.0,0.0
4119,66.0,58.0,40.0,11.0,0.0
4120,58.0,0.0,40.0,11.0,0.0
4121,61.0,0.0,40.0,10.0,0.0
4122,70.0,2.0,40.0,10.0,0.0
4123,58.0,9.0,40.0,11.0,0.0
4124,66.0,0.0,40.0,11.0,0.0
4125,58.0,5.0,60.0,12.0,0.0
4126,46.0,1.0,60.0,13.0,0.0
4127,46.0,2.0,60.0,3.0,0.0
4128,34.0,22.0,60.0,14.0,0.0
4129,61.0,0.0,40.0,10.0,0.0
4130,70.0,1.0,40.0,10.0,0.0
4131,58.0,0.0,40.0,11.0,0.0
4132,66.0,7.0,40.0,11.0,0.0
4133,59.0,15.0,20.0,12.0,0.0
4134,47.0,1.0,30.0,13.0,0.0
4135,47.0,3.0,30.0,3.0,0.0
4136,35.0,12.0,40.0,14.0,0.0
4137,58.0,1.0,20.0,12.0,0.0
4138,46.0,1.0,30.0,13.0,0.0
4139,46.0,14.0,30.0,3.0,0.0
4140,59.0,5.0,20.0,12.0,0.0
4141,34.0,7.0,40.0,14.0,0.0
4142,61.0,1.0,40.0,10.0,0.0
4143,70.0,0.0,40.0,10.0,0.0
4144,58.0,19.0,40.0,11.0,0.0
4145,66.0,0.0,40.0,11.0,0.0
4146,58.0,8.0,20.0,12.0,0.0
4147,47.0,1.0,30.0,13.0,0.0
4148,47.0,3.0,30.0,3.0,0.0
4149,59.0,1.0,20.0,12.0,0.0
4150,35.0,12.0,40.0,14.0,0.0
4151,46.0,1.0,30.0,13.0,0.0
4152,46.0,2.0,30.0,3.0,0.0
4153,58.0,5.0,20.0,12.0,0.0
4154,70.0,1.0,40.0,10.0,0.0
4155,61.0,0.0,40.0,10.0,0.0
4156,58.0,0.0,40.0,11.0,0.0
4157,66.0,7.0,40.0,11.0,0.0
4158,59.0,15.0,20.0,12.0,0.0
4159,47.0,1.0,30.0,13.0,0.0
4160,47.0,3.0,30.0,3.0,0.0
4161,34.0,10.0,40.0,14.0,0.0
4162,58.0,1.0,20.0,12.0,0.0
4163,46.0,1.0,30.0,13.0,0.0
4164,46.0,24.0,30.0,3.0,0.0
4165,59.0,5.0,20.0,12.0,0.0
4166,35.0,2.0,15.0,14.0,0.0
4167,70.0,2.0,40.0,10.0,0.0
4168,61.0,0.0,40.0,10.0,0.0
4169,66.0,15.0,40.0,11.0,0.0
4170,58.0,0.0,40.0,11.0,0.0
4171,57.0,5.0,30.0,12.0,0.0
4172,45.0,1.0,30.0,13.0,0.0
4173,45.0,2.0,30.0,3.0,0.0
4174,33.0,1.0,30.0,14.0,0.0
4175,58.0,5.0,30.0,12.0,0.0
4176,46.0,1.0,30.0,13.0,0.0
4177,46.0,2.0,30.0,3.0,0.0
4178,34.0,31.0,30.0,14.0,0.0
4179,61.0,2.0,40.0,10.0,0.0
4180,70.0,0.0,40.0,10.0,0.0
4181,78.0,1.0,60.0,0.0,0.0
4182,58.0,14.0,40.0,11.0,0.0
4183,66.0,0.0,40.0,11.0,0.0
4184,66.0,4.0,60.0,1.0,0.0
4185,61.0,5.0,60.0,12.0,0.0
4186,49.0,1.0,60.0,13.0,0.0
4187,54.0,2.0,60.0,3.0,0.0
4188,49.0,0.0,60.0,3.0,0.0
4189,37.0,31.0,60.0,14.0,0.0
4190,61.0,0.0,40.0,10.0,0.0
4191,70.0,2.0,40.0,10.0,0.0
4192,66.0,0.0,40.0,11.0,0.0
4193,58.0,58.0,40.0,11.0,0.0
4194,61.0,0.0,40.0,10.0,0.0
4195,70.0,2.0,40.0,10.0,0.0
4196,82.0,1.0,60.0,0.0,0.0
4197,66.0,0.0,40.0,11.0,0.0
4198,70.0,4.0,60.0,1.0,0.0
4199,58.0,14.0,40.0,11.0,0.0
4200,54.0,5.0,60.0,12.0,0.0
4201,42.0,1.0,60.0,13.0,0.0
4202,58.0,0.0,60.0,3.0,0.0
4203,42.0,2.0,60.0,3.0,0.0
4204,30.0,31.0,60.0,14.0,0.0
4205,61.0,2.0,40.0,10.0,0.0
4206,70.0,0.0,40.0,10.0,0.0
4207,66.0,0.0,40.0,11.0,0.0
4208,58.0,58.0,40.0,11.0,0.0
4209,70.0,0.0,40.0,10.0,0.0
4210,61.0,2.0,40.0,10.0,0.0
4211,85.0,1.0,60.0,0.0,0.0
4212,73.0,10.0,60.0,1.0,0.0
4213,66.0,14.0,40.0,11.0,0.0
4214,58.0,0.0,40.0,11.0,0.0
4215,61.0,33.0,60.0,3.0,0.0
4216,70.0,2.0,40.0,10.0,0.0
4217,61.0,0.0,40.0,10.0,0.0
4218,58.0,0.0,40.0,11.0,0.0
4219,66.0,58.0,40.0,11.0,0.0
4220,70.0,2.0,40.0,10.0,0.0
4221,61.0,0.0,40.0,10.0,0.0
4222,78.0,1.0,60.0,0.0,0.0
4223,58.0,0.0,40.0,11.0,0.0
4224,66.0,10.0,60.0,1.0,0.0
4225,66.0,14.0,40.0,11.0,0.0
4226,54.0,33.0,60.0,3.0,0.0
4227,70.0,0.0,40.0,10.0,0.0
4228,61.0,2.0,40.0,10.0,0.0
4229,66.0,0.0,40.0,11.0,0.0
4230,58.0,58.0,40.0,11.0,0.0
4231,70.0,2.0,40.0,10.0,0.0
4232,61.0,0.0,40.0,10.0,0.0
4233,65.0,0.0,40.0,11.0,0.0
4234,58.0,1.0,480.0,4.0,0.0
4235,58.0,58.0,40.0,11.0,0.0
4236,70.0,3.0,480.0,6.0,0.0
4237,58.0,0.0,480.0,6.0,0.0
4238,53.0,5.0,120.0,12.0,0.0
4239,46.0,5.0,480.0,5.0,0.0
4240,41.0,1.0,120.0,13.0,0.0
4241,41.0,1.0,120.0,3.0,0.0
4242,46.0,1.0,120.0,15.0,0.0
4243,29.0,31.0,120.0,14.0,0.0
4244,70.0,2.0,40.0,10.0,0.0
4245,61.0,0.0,40.0,10.0,0.0
4246,65.0,19.0,40.0,11.0,0.0
4247,58.0,0.0,40.0,11.0,0.0
4248,61.0,2.0,40.0,10.0,0.0
4249,70.0,0.0,40.0,10.0,0.0
4250,65.0,58.0,40.0,11.0,0.0
4251,58.0,0.0,40.0,11.0,0.0
4252,70.0,0.0,40.0,10.0,0.0
4253,61.0,2.0,40.0,10.0,0.0
4254,58.0,0.0,40.0,11.0,0.0
4255,65.0,9.0,40.0,11.0,0.0
4256,58.0,5.0,60.0,12.0,0.0
4257,46.0,1.0,60.0,13.0,0.0
4258,46.0,2.0,60.0,3.0,0.0
4259,34.0,22.0,60.0,14.0,0.0
4260,70.0,0.0,40.0,10.0,0.0
4261,61.0,1.0,40.0,10.0,0.0
4262,58.0,0.0,40.0,11.0,0.0
4263,65.0,7.0,40.0,11.0,0.0
4264,60.0,15.0,20.0,12.0,0.0
4265,48.0,1.0,30.0,13.0,0.0
4266,48.0,3.0,30.0,3.0,0.0
4267,36.0,12.0,40.0,14.0,0.0
4268,58.0,1.0,20.0,12.0,0.0
4269,46.0,1.0,30.0,13.0,0.0
4270,46.0,14.0,30.0,3.0,0.0
4271,60.0,5.0,20.0,12.0,0.0
4272,34.0,7.0,40.0,14.0,0.0
4273,70.0,0.0,40.0,10.0,0.0
4274,61.0,1.0,40.0,10.0,0.0
4275,58.0,0.0,40.0,11.0,0.0
4276,65.0,19.0,40.0,11.0,0.0
4277,58.0,8.0,20.0,12.0,0.0
4278,48.0,1.0,30.0,13.0,0.0
4279,48.0,3.0,30.0,3.0,0.0
4280,60.0,1.0,20.0,12.0,0.0
4281,36.0,12.0,40.0,14.0,0.0
4282,46.0,1.0,30.0,13.0,0.0
4283,46.0,2.0,30.0,3.0,0.0
4284,58.0,5.0,20.0,12.0,0.0
4285,61.0,0.0,40.0,10.0,0.0
4286,70.0,1.0,40.0,10.0,0.0
4287,58.0,0.0,40.0,11.0,0.0
4288,65.0,7.0,40.0,11.0,0.0
4289,60.0,15.0,20.0,12.0,0.0
4290,48.0,1.0,30.0,13.0,0.0
4291,48.0,3.0,30.0,3.0,0.0
4292,34.0,10.0,40.0,14.0,0.0
4293,58.0,1.0,20.0,12.0,0.0
4294,46.0,1.0,30.0,13.0,0.0
4295,46.0,24.0,30.0,3.0,0.0
4296,60.0,5.0,20.0,12.0,0.0
4297,36.0,2.0,15.0,14.0,0.0
4298,61.0,2.0,40.0,10.0,0.0
4299,70.0,0.0,40.0,10.0,0.0
4300,58.0,15.0,40.0,11.0,0.0
4301,65.0,0.0,40.0,11.0,0.0
4302,57.0,5.0,30.0,12.0,0.0
4303,45.0,1.0,30.0,13.0,0.0
4304,45.0,2.0,30.0,3.0,0.0
4305,33.0,1.0,30.0,14.0,0.0
4306,58.0,0.0,30.0,12.0,0.0
4307,46.0,1.0,30.0,13.0,0.0
4308,46.0,2.0,30.0,3.0,0.0
4309,34.0,31.0,30.0,14.0,0.0
4310,61.0,0.0,40.0,10.0,0.0
4311,70.0,2.0,40.0,10.0,0.0
4312,77.0,5.0,60.0,0.0,0.0
4313,58.0,0.0,40.0,11.0,0.0
4314,65.0,14.0,40.0,11.0,0.0
4315,61.0,5.0,60.0,12.0,0.0
4316,49.0,1.0,60.0,13.0,0.0
4317,49.0,2.0,60.0,3.0,0.0
4318,53.0,0.0,60.0,3.0,0.0
4319,37.0,31.0,60.0,14.0,0.0
4320,70.0,0.0,40.0,10.0,0.0
4321,61.0,2.0,40.0,10.0,0.0
4322,65.0,58.0,40.0,11.0,0.0
4323,58.0,0.0,40.0,11.0,0.0
4324,61.0,2.0,40.0,10.0,0.0
4325,70.0,0.0,40.0,10.0,0.0
4326,82.0,5.0,60.0,0.0,0.0
4327,58.0,14.0,40.0,11.0,0.0
4328,65.0,0.0,40.0,11.0,0.0
4329,53.0,5.0,60.0,12.0,0.0
4330,41.0,1.0,60.0,13.0,0.0
4331,41.0,0.0,60.0,3.0,0.0
4332,58.0,2.0,60.0,3.0,0.0
4333,29.0,31.0,60.0,14.0,0.0
4334,61.0,0.0,40.0,10.0,0.0
4335,70.0,2.0,40.0,10.0,0.0
4336,58.0,0.0,40.0,11.0,0.0
4337,65.0,58.0,40.0,11.0,0.0
4338,61.0,0.0,40.0,10.0,0.0
4339,70.0,2.0,40.0,10.0,0.0
4340,85.0,11.0,60.0,0.0,0.0
4341,65.0,14.0,40.0,11.0,0.0
4342,58.0,0.0,40.0,11.0,0.0
4343,61.0,33.0,60.0,3.0,0.0
4344,61.0,2.0,40.0,10.0,0.0
4345,70.0,0.0,40.0,10.0,0.0
4346,65.0,0.0,40.0,11.0,0.0
4347,58.0,58.0,40.0,11.0,0.0
4348,70.0,0.0,40.0,10.0,0.0
4349,61.0,2.0,40.0,10.0,0.0
4350,77.0,11.0,60.0,0.0,0.0
4351,58.0,14.0,40.0,11.0,0.0
4352,65.0,0.0,40.0,11.0,0.0
4353,53.0,33.0,60.0,3.0,0.0
4354,61.0,2.0,40.0,10.0,0.0
4355,70.0,0.0,40.0,10.0,0.0
4356,58.0,0.0,40.0,11.0,0.0
4357,65.0,58.0,40.0,11.0,0.0
4358,70.0,2.0,40.0,10.0,0.0
4359,58.0,58.0,40.0,11.0,0.0
4360,68.0,0.0,40.0,11.0,0.0
4361,52.0,5.0,120.0,12.0,0.0
4362,40.0,1.0,120.0,13.0,0.0
4363,40.0,2.0,120.0,3.0,0.0
4364,28.0,31.0,120.0,14.0,0.0
4365,70.0,2.0,40.0,10.0,0.0
4366,58.0,0.0,40.0,11.0,0.0
4367,68.0,19.0,40.0,11.0,0.0
4368,70.0,2.0,40.0,10.0,0.0
4369,70.0,10.0,60.0,1.0,0.0
4370,58.0,0.0,40.0,11.0,0.0
4371,68.0,15.0,40.0,11.0,0.0
4372,58.0,33.0,60.0,3.0,0.0
4373,70.0,2.0,40.0,10.0,0.0
4374,58.0,58.0,40.0,11.0,0.0
4375,68.0,0.0,40.0,11.0,0.0
4376,70.0,2.0,40.0,10.0,0.0
4377,58.0,15.0,40.0,11.0,0.0
4378,68.0,0.0,40.0,11.0,0.0
4379,73.0,10.0,60.0,1.0,0.0
4380,61.0,33.0,60.0,3.0,0.0
4381,70.0,2.0,40.0,10.0,0.0
4382,68.0,0.0,40.0,11.0,0.0
4383,58.0,58.0,40.0,11.0,0.0
4384,70.0,2.0,40.0,10.0,0.0
4385,82.0,1.0,60.0,0.0,0.0
4386,64.0,10.0,60.0,1.0,0.0
4387,68.0,14.0,40.0,11.0,0.0
4388,58.0,0.0,40.0,11.0,0.0
4389,52.0,33.0,60.0,3.0,0.0
4390,70.0,2.0,40.0,10.0,0.0
4391,68.0,0.0,40.0,11.0,0.0
4392,58.0,58.0,40.0,11.0,0.0
4393,70.0,2.0,40.0,10.0,0.0
4394,85.0,44.0,60.0,0.0,0.0
4395,58.0,14.0,40.0,11.0,0.0
4396,67.0,0.0,40.0,11.0,0.0
4397,51.0,5.0,120.0,12.0,0.0
4398,39.0,1.0,120.0,13.0,0.0
4399,39.0,2.0,120.0,3.0,0.0
4400,27.0,31.0,120.0,14.0,0.0
4401,70.0,2.0,40.0,10.0,0.0
4402,58.0,19.0,40.0,11.0,0.0
4403,67.0,0.0,40.0,11.0,0.0
4404,70.0,2.0,40.0,10.0,0.0
4405,75.0,1.0,60.0,0.0,0.0
4406,58.0,0.0,40.0,11.0,0.0
4407,67.0,14.0,40.0,11.0,0.0
4408,70.0,10.0,60.0,1.0,0.0
4409,58.0,33.0,60.0,3.0,0.0
4410,70.0,2.0,40.0,10.0,0.0
4411,67.0,0.0,40.0,11.0,0.0
4412,58.0,58.0,40.0,11.0,0.0
4413,70.0,2.0,40.0,10.0,0.0
4414,67.0,15.0,40.0,11.0,0.0
4415,58.0,0.0,40.0,11.0,0.0
4416,73.0,10.0,60.0,1.0,0.0
4417,61.0,33.0,60.0,3.0,0.0
4418,70.0,2.0,40.0,10.0,0.0
4419,67.0,58.0,40.0,11.0,0.0
4420,58.0,0.0,40.0,11.0,0.0
4421,70.0,2.0,40.0,10.0,0.0
4422,75.0,1.0,60.0,0.0,0.0
4423,58.0,0.0,40.0,11.0,0.0
4424,67.0,14.0,40.0,11.0,0.0
4425,63.0,10.0,60.0,1.0,0.0
4426,51.0,33.0,60.0,3.0,0.0
4427,70.0,2.0,40.0,10.0,0.0
4428,67.0,58.0,40.0,11.0,0.0
4429,58.0,0.0,40.0,11.0,0.0
4430,72.0,2.0,40.0,10.0,0.0
4431,63.0,0.0,40.0,10.0,0.0
4432,80.0,44.0,60.0,0.0,0.0
4433,68.0,0.0,40.0,11.0,0.0
4434,60.0,1.0,480.0,4.0,0.0
4435,60.0,14.0,40.0,11.0,0.0
4436,72.0,3.0,480.0,6.0,0.0
4437,60.0,5.0,480.0,5.0,0.0
4438,56.0,5.0,120.0,12.0,0.0
4439,44.0,1.0,120.0,13.0,0.0
4440,44.0,2.0,120.0,3.0,0.0
4441,32.0,31.0,120.0,14.0,0.0
4442,72.0,0.0,40.0,10.0,0.0
4443,63.0,2.0,40.0,10.0,0.0
4444,60.0,19.0,40.0,11.0,0.0
4445,68.0,0.0,40.0,11.0,0.0
4446,63.0,0.0,40.0,10.0,0.0
4447,72.0,2.0,40.0,10.0,0.0
4448,68.0,58.0,40.0,11.0,0.0
4449,60.0,0.0,40.0,11.0,0.0
4450,63.0,2.0,40.0,10.0,0.0
4451,72.0,0.0,40.0,10.0,0.0
4452,60.0,0.0,40.0,11.0,0.0
4453,68.0,9.0,40.0,11.0,0.0
4454,60.0,5.0,60.0,12.0,0.0
4455,48.0,1.0,60.0,13.0,0.0
4456,48.0,2.0,60.0,3.0,0.0
4457,36.0,22.0,60.0,14.0,0.0
4458,72.0,0.0,40.0,10.0,0.0
4459,63.0,1.0,40.0,10.0,0.0
4460,60.0,7.0,40.0,11.0,0.0
4461,68.0,0.0,40.0,11.0,0.0
4462,61.0,15.0,20.0,12.0,0.0
4463,49.0,1.0,30.0,13.0,0.0
4464,49.0,3.0,30.0,3.0,0.0
4465,37.0,12.0,40.0,14.0,0.0
4466,60.0,1.0,20.0,12.0,0.0
4467,48.0,1.0,30.0,13.0,0.0
4468,48.0,14.0,30.0,3.0,0.0
4469,61.0,5.0,20.0,12.0,0.0
4470,36.0,7.0,40.0,14.0,0.0
4471,72.0,1.0,40.0,10.0,0.0
4472,63.0,0.0,40.0,10.0,0.0
4473,60.0,19.0,40.0,11.0,0.0
4474,68.0,0.0,40.0,11.0,0.0
4475,60.0,8.0,20.0,12.0,0.0
4476,49.0,1.0,30.0,13.0,0.0
4477,49.0,3.0,30.0,3.0,0.0
4478,61.0,1.0,20.0,12.0,0.0
4479,37.0,12.0,40.0,14.0,0.0
4480,48.0,1.0,30.0,13.0,0.0
4481,48.0,2.0,30.0,3.0,0.0
4482,60.0,5.0,20.0,12.0,0.0
4483,63.0,0.0,40.0,10.0,0.0
4484,72.0,1.0,40.0,10.0,0.0
4485,60.0,0.0,40.0,11.0,0.0
4486,68.0,7.0,40.0,11.0,0.0
4487,61.0,15.0,20.0,12.0,0.0
4488,49.0,1.0,30.0,13.0,0.0
4489,49.0,3.0,30.0,3.0,0.0
4490,36.0,10.0,40.0,14.0,0.0
4491,60.0,1.0,20.0,12.0,0.0
4492,48.0,1.0,30.0,13.0,0.0
4493,48.0,24.0,30.0,3.0,0.0
4494,61.0,5.0,20.0,12.0,0.0
4495,37.0,2.0,15.0,14.0,0.0
4496,63.0,0.0,40.0,10.0,0.0
4497,72.0,2.0,40.0,10.0,0.0
4498,60.0,0.0,40.0,11.0,0.0
4499,68.0,15.0,40.0,11.0,0.0
4500,58.0,5.0,30.0,12.0,0.0
4501,46.0,1.0,30.0,13.0,0.0
4502,46.0,2.0,30.0,3.0,0.0
4503,34.0,1.0,30.0,14.0,0.0
4504,60.0,0.0,30.0,12.0,0.0
4505,48.0,1.0,30.0,13.0,0.0
4506,48.0,2.0,30.0,3.0,0.0
4507,36.0,31.0,30.0,14.0,0.0
4508,63.0,0.0,40.0,10.0,0.0
4509,72.0,2.0,40.0,10.0,0.0
4510,80.0,1.0,60.0,0.0,0.0
4511,60.0,0.0,40.0,11.0,0.0
4512,68.0,4.0,60.0,1.0,0.0
4513,68.0,14.0,40.0,11.0,0.0
4514,63.0,5.0,60.0,12.0,0.0
4515,51.0,1.0,60.0,13.0,0.0
4516,51.0,0.0,60.0,3.0,0.0
4517,56.0,2.0,60.0,3.0,0.0
4518,39.0,31.0,60.0,14.0,0.0
4519,72.0,2.0,40.0,10.0,0.0
4520,63.0,0.0,40.0,10.0,0.0
4521,68.0,58.0,40.0,11.0,0.0
4522,60.0,0.0,40.0,11.0,0.0
4523,63.0,2.0,40.0,10.0,0.0
4524,72.0,0.0,40.0,10.0,0.0
4525,84.0,1.0,60.0,0.0,0.0
4526,72.0,4.0,60.0,1.0,0.0
4527,60.0,14.0,40.0,11.0,0.0
4528,68.0,0.0,40.0,11.0,0.0
4529,56.0,5.0,60.0,12.0,0.0
4530,44.0,1.0,60.0,13.0,0.0
4531,44.0,2.0,60.0,3.0,0.0
4532,60.0,0.0,60.0,3.0,0.0
4533,32.0,31.0,60.0,14.0,0.0
4534,72.0,2.0,40.0,10.0,0.0
4535,63.0,0.0,40.0,10.0,0.0
4536,60.0,58.0,40.0,11.0,0.0
4537,68.0,0.0,40.0,11.0,0.0
4538,72.0,0.0,40.0,10.0,0.0
4539,63.0,2.0,40.0,10.0,0.0
4540,87.0,1.0,60.0,0.0,0.0
4541,60.0,0.0,40.0,11.0,0.0
4542,75.0,10.0,60.0,1.0,0.0
4543,68.0,14.0,40.0,11.0,0.0
4544,63.0,33.0,60.0,3.0,0.0
4545,72.0,0.0,40.0,10.0,0.0
4546,63.0,2.0,40.0,10.0,0.0
4547,60.0,0.0,40.0,11.0,0.0
4548,68.0,58.0,40.0,11.0,0.0
4549,63.0,0.0,40.0,10.0,0.0
4550,72.0,2.0,40.0,10.0,0.0
4551,80.0,1.0,60.0,0.0,0.0
4552,68.0,10.0,60.0,1.0,0.0
4553,60.0,14.0,40.0,11.0,0.0
4554,68.0,0.0,40.0,11.0,0.0
4555,56.0,33.0,60.0,3.0,0.0
4556,63.0,0.0,40.0,10.0,0.0
4557,72.0,2.0,40.0,10.0,0.0
4558,68.0,0.0,40.0,11.0,0.0
4559,60.0,58.0,40.0,11.0,0.0
4560,72.0,0.0,40.0,10.0,0.0
4561,63.0,2.0,40.0,10.0,0.0
4562,60.0,1.0,480.0,4.0,0.0
4563,67.0,58.0,40.0,11.0,0.0
4564,60.0,0.0,40.0,11.0,0.0
4565,72.0,3.0,480.0,6.0,0.0
4566,60.0,0.0,480.0,5.0,0.0
4567,55.0,5.0,120.0,12.0,0.0
4568,43.0,1.0,120.0,13.0,0.0
4569,43.0,2.0,120.0,3.0,0.0
4570,31.0,31.0,120.0,14.0,0.0
4571,72.0,2.0,40.0,10.0,0.0
4572,63.0,0.0,40.0,10.0,0.0
4573,60.0,19.0,40.0,11.0,0.0
4574,67.0,0.0,40.0,11.0,0.0
4575,72.0,0.0,40.0,10.0,0.0
4576,63.0,2.0,40.0,10.0,0.0
4577,60.0,0.0,40.0,11.0,0.0
4578,67.0,58.0,40.0,11.0,0.0
4579,72.0,0.0,40.0,10.0,0.0
4580,63.0,2.0,40.0,10.0,0.0
4581,67.0,9.0,40.0,11.0,0.0
4582,60.0,0.0,40.0,11.0,0.0
4583,60.0,5.0,60.0,12.0,0.0
4584,48.0,1.0,60.0,13.0,0.0
4585,48.0,2.0,60.0,3.0,0.0
4586,36.0,22.0,60.0,14.0,0.0
4587,72.0,1.0,40.0,10.0,0.0
4588,63.0,0.0,40.0,10.0,0.0
4589,60.0,0.0,40.0,11.0,0.0
4590,67.0,7.0,40.0,11.0,0.0
4591,62.0,15.0,20.0,12.0,0.0
4592,50.0,1.0,30.0,13.0,0.0
4593,50.0,3.0,30.0,3.0,0.0
4594,38.0,12.0,40.0,14.0,0.0
4595,60.0,1.0,20.0,12.0,0.0
4596,48.0,1.0,30.0,13.0,0.0
4597,48.0,14.0,30.0,3.0,0.0
4598,62.0,5.0,20.0,12.0,0.0
4599,36.0,7.0,40.0,14.0,0.0
4600,72.0,0.0,40.0,10.0,0.0
4601,63.0,1.0,40.0,10.0,0.0
4602,60.0,0.0,40.0,11.0,0.0
4603,67.0,19.0,40.0,11.0,0.0
4604,60.0,8.0,20.0,12.0,0.0
4605,50.0,1.0,30.0,13.0,0.0
4606,50.0,3.0,30.0,3.0,0.0
4607,62.0,1.0,20.0,12.0,0.0
4608,38.0,12.0,40.0,14.0,0.0
4609,48.0,1.0,30.0,13.0,0.0
4610,48.0,2.0,30.0,3.0,0.0
4611,60.0,5.0,20.0,12.0,0.0
4612,72.0,0.0,40.0,10.0,0.0
4613,63.0,1.0,40.0,10.0,0.0
4614,60.0,7.0,40.0,11.0,0.0
4615,67.0,0.0,40.0,11.0,0.0
4616,62.0,15.0,20.0,12.0,0.0
4617,50.0,1.0,30.0,13.0,0.0
4618,50.0,3.0,30.0,3.0,0.0
4619,36.0,10.0,40.0,14.0,0.0
4620,60.0,1.0,20.0,12.0,0.0
4621,48.0,1.0,30.0,13.0,0.0
4622,48.0,24.0,30.0,3.0,0.0
4623,62.0,5.0,20.0,12.0,0.0
4624,38.0,2.0,15.0,14.0,0.0
4625,72.0,0.0,40.0,10.0,0.0
4626,63.0,2.0,40.0,10.0,0.0
4627,60.0,0.0,40.0,11.0,0.0
4628,67.0,15.0,40.0,11.0,0.0
4629,59.0,5.0,30.0,12.0,0.0
4630,47.0,1.0,30.0,13.0,0.0
4631,47.0,2.0,30.0,3.0,0.0
4632,35.0,1.0,30.0,14.0,0.0
4633,60.0,5.0,30.0,12.0,0.0
4634,48.0,1.0,30.0,13.0,0.0
4635,48.0,2.0,30.0,3.0,0.0
4636,36.0,31.0,30.0,14.0,0.0
4637,63.0,0.0,40.0,10.0,0.0
4638,72.0,2.0,40.0,10.0,0.0
4639,79.0,1.0,60.0,0.0,0.0
4640,67.0,4.0,60.0,1.0,0.0
4641,67.0,14.0,40.0,11.0,0.0
4642,60.0,0.0,40.0,11.0,0.0
4643,63.0,5.0,60.0,12.0,0.0
4644,51.0,1.0,60.0,13.0,0.0
4645,55.0,0.0,60.0,3.0,0.0
4646,51.0,2.0,60.0,3.0,0.0
4647,39.0,31.0,60.0,14.0,0.0
4648,63.0,0.0,40.0,10.0,0.0
4649,72.0,2.0,40.0,10.0,0.0
4650,67.0,0.0,40.0,11.0,0.0
4651,60.0,58.0,40.0,11.0,0.0
4652,63.0,0.0,40.0,10.0,0.0
4653,72.0,2.0,40.0,10.0,0.0
4654,84.0,1.0,60.0,0.0,0.0
4655,67.0,0.0,40.0,11.0,0.0
4656,60.0,14.0,40.0,11.0,0.0
4657,72.0,4.0,60.0,1.0,0.0
4658,55.0,5.0,60.0,12.0,0.0
4659,43.0,1.0,60.0,13.0,0.0
4660,43.0,2.0,60.0,3.0,0.0
4661,60.0,0.0,60.0,3.0,0.0
4662,31.0,31.0,60.0,14.0,0.0
4663,72.0,0.0,40.0,10.0,0.0
4664,63.0,2.0,40.0,10.0,0.0
4665,60.0,58.0,40.0,11.0,0.0
4666,67.0,0.0,40.0,11.0,0.0
4667,63.0,0.0,40.0,10.0,0.0
4668,72.0,2.0,40.0,10.0,0.0
4669,87.0,1.0,60.0,0.0,0.0
4670,75.0,10.0,60.0,1.0,0.0
4671,67.0,0.0,40.0,11.0,0.0
4672,60.0,14.0,40.0,11.0,0.0
4673,63.0,33.0,60.0,3.0,0.0
4674,63.0,0.0,40.0,10.0,0.0
4675,72.0,2.0,40.0,10.0,0.0
4676,60.0,58.0,40.0,11.0,0.0
4677,67.0,0.0,40.0,11.0,0.0
4678,63.0,0.0,40.0,10.0,0.0
4679,72.0,2.0,40.0,10.0,0.0
4680,79.0,1.0,60.0,0.0,0.0
4681,60.0,0.0,40.0,11.0,0.0
4682,67.0,14.0,40.0,11.0,0.0
4683,67.0,10.0,60.0,1.0,0.0
4684,55.0,33.0,60.0,3.0,0.0
4685,72.0,0.0,40.0,10.0,0.0
4686,63.0,2.0,40.0,10.0,0.0
4687,67.0,58.0,40.0,11.0,0.0
4688,60.0,0.0,40.0,11.0,0.0
4689,72.0,2.0,40.0,10.0,0.0
4690,70.0,58.0,40.0,11.0,0.0
4691,54.0,5.0,120.0,12.0,0.0
4692,42.0,1.0,120.0,13.0,0.0
4693,42.0,2.0,120.0,3.0,0.0
4694,30.0,31.0,120.0,14.0,0.0
4695,72.0,2.0,40.0,10.0,0.0
4696,70.0,19.0,40.0,11.0,0.0
4697,72.0,2.0,40.0,10.0,0.0
4698,72.0,10.0,60.0,1.0,0.0
4699,70.0,15.0,40.0,11.0,0.0
4700,60.0,33.0,60.0,3.0,0.0
4701,72.0,2.0,40.0,10.0,0.0
4702,70.0,58.0,40.0,11.0,0.0
4703,72.0,2.0,40.0,10.0,0.0
4704,70.0,15.0,40.0,11.0,0.0
4705,75.0,10.0,60.0,1.0,0.0
4706,63.0,33.0,60.0,3.0,0.0
4707,72.0,2.0,40.0,10.0,0.0
4708,70.0,58.0,40.0,11.0,0.0
4709,72.0,2.0,40.0,10.0,0.0
4710,84.0,1.0,60.0,0.0,0.0
4711,70.0,14.0,40.0,11.0,0.0
4712,66.0,10.0,60.0,1.0,0.0
4713,54.0,33.0,60.0,3.0,0.0
4714,72.0,2.0,40.0,10.0,0.0
4715,70.0,58.0,40.0,11.0,0.0
4716,72.0,2.0,40.0,10.0,0.0
4717,87.0,44.0,60.0,0.0,0.0
4718,69.0,14.0,40.0,11.0,0.0
4719,53.0,5.0,120.0,12.0,0.0
4720,41.0,1.0,120.0,13.0,0.0
4721,41.0,2.0,120.0,3.0,0.0
4722,29.0,31.0,120.0,14.0,0.0
4723,72.0,2.0,40.0,10.0,0.0
4724,69.0,19.0,40.0,11.0,0.0
4725,72.0,2.0,40.0,10.0,0.0
4726,77.0,1.0,60.0,0.0,0.0
4727,69.0,14.0,40.0,11.0,0.0
4728,72.0,10.0,60.0,1.0,0.0
4729,60.0,33.0,60.0,3.0,0.0
4730,72.0,2.0,40.0,10.0,0.0
4731,69.0,58.0,40.0,11.0,0.0
4732,72.0,2.0,40.0,10.0,0.0
4733,69.0,15.0,40.0,11.0,0.0
4734,75.0,10.0,60.0,1.0,0.0
4735,63.0,33.0,60.0,3.0,0.0
4736,72.0,2.0,40.0,10.0,0.0
4737,69.0,58.0,40.0,11.0,0.0
4738,72.0,2.0,40.0,10.0,0.0
4739,77.0,1.0,60.0,0.0,0.0
4740,69.0,14.0,40.0,11.0,0.0
4741,65.0,10.0,60.0,1.0,0.0
4742,53.0,33.0,60.0,3.0,0.0
4743,72.0,2.0,40.0,10.0,0.0
4744,69.0,58.0,40.0,11.0,0.0
4745,73.0,2.0,40.0,10.0,0.0
4746,82.0,44.0,60.0,0.0,0.0
4747,70.0,4.0,40.0,11.0,0.0
4748,58.0,10.0,40.0,12.0,0.0
4749,46.0,1.0,120.0,13.0,0.0
4750,46.0,2.0,120.0,3.0,0.0
4751,34.0,31.0,120.0,14.0,0.0
4752,73.0,2.0,40.0,10.0,0.0
4753,70.0,4.0,40.0,11.0,0.0
4754,65.0,20.0,40.0,12.0,0.0
4755,73.0,2.0,40.0,10.0,0.0
4756,70.0,1.0,60.0,0.0,0.0
4757,70.0,4.0,40.0,11.0,0.0
4758,70.0,10.0,60.0,1.0,0.0
4759,65.0,10.0,40.0,12.0,0.0
4760,58.0,33.0,60.0,3.0,0.0
4761,73.0,2.0,40.0,10.0,0.0
4762,70.0,4.0,40.0,11.0,0.0
4763,65.0,54.0,40.0,12.0,0.0
4764,73.0,2.0,40.0,10.0,0.0
4765,73.0,10.0,60.0,1.0,0.0
4766,70.0,4.0,40.0,11.0,0.0
4767,65.0,11.0,40.0,12.0,0.0
4768,61.0,33.0,60.0,3.0,0.0
4769,73.0,2.0,40.0,10.0,0.0
4770,70.0,4.0,40.0,11.0,0.0
4771,65.0,54.0,40.0,12.0,0.0
4772,73.0,2.0,40.0,10.0,0.0
4773,82.0,1.0,60.0,0.0,0.0
4774,65.0,10.0,60.0,1.0,0.0
4775,70.0,4.0,40.0,11.0,0.0
4776,65.0,10.0,40.0,12.0,0.0
4777,53.0,33.0,60.0,3.0,0.0
4778,73.0,2.0,40.0,10.0,0.0
4779,70.0,4.0,40.0,11.0,0.0
4780,65.0,54.0,40.0,12.0,0.0
4781,74.0,2.0,40.0,10.0,0.0
4782,83.0,44.0,60.0,0.0,0.0
4783,71.0,4.0,40.0,11.0,0.0
4784,65.0,10.0,40.0,12.0,0.0
4785,43.0,1.0,120.0,13.0,0.0
4786,43.0,2.0,120.0,3.0,0.0
4787,31.0,31.0,120.0,14.0,0.0
4788,74.0,2.0,40.0,10.0,0.0
4789,71.0,4.0,40.0,11.0,0.0
4790,65.0,20.0,40.0,12.0,0.0
4791,74.0,2.0,40.0,10.0,0.0
4792,79.0,1.0,60.0,0.0,0.0
4793,71.0,4.0,40.0,11.0,0.0
4794,71.0,10.0,60.0,1.0,0.0
4795,65.0,10.0,40.0,12.0,0.0
4796,59.0,33.0,60.0,3.0,0.0
4797,74.0,2.0,40.0,10.0,0.0
4798,71.0,4.0,40.0,11.0,0.0
4799,65.0,54.0,40.0,12.0,0.0
4800,74.0,2.0,40.0,10.0,0.0
4801,71.0,4.0,40.0,11.0,0.0
4802,74.0,10.0,60.0,1.0,0.0
4803,65.0,11.0,40.0,12.0,0.0
4804,62.0,33.0,60.0,3.0,0.0
4805,74.0,2.0,40.0,10.0,0.0
4806,71.0,4.0,40.0,11.0,0.0
4807,65.0,54.0,40.0,12.0,0.0
4808,74.0,2.0,40.0,10.0,0.0
4809,83.0,1.0,60.0,0.0,0.0
4810,71.0,4.0,40.0,11.0,0.0
4811,67.0,10.0,60.0,1.0,0.0
4812,65.0,10.0,40.0,12.0,0.0
4813,55.0,33.0,60.0,3.0,0.0
4814,74.0,2.0,40.0,10.0,0.0
4815,71.0,4.0,40.0,11.0,0.0
4816,65.0,54.0,40.0,12.0,0.0
4817,75.0,2.0,40.0,10.0,0.0
4818,84.0,44.0,60.0,0.0,0.0
4819,72.0,4.0,40.0,11.0,0.0
4820,63.0,10.0,40.0,12.0,0.0
4821,48.0,1.0,120.0,13.0,0.0
4822,48.0,2.0,120.0,3.0,0.0
4823,36.0,31.0,120.0,14.0,0.0
4824,75.0,2.0,40.0,10.0,0.0
4825,72.0,4.0,40.0,11.0,0.0
4826,67.0,20.0,40.0,12.0,0.0
4827,75.0,2.0,40.0,10.0,0.0
4828,72.0,1.0,60.0,0.0,0.0
4829,72.0,4.0,40.0,11.0,0.0
4830,72.0,10.0,60.0,1.0,0.0
4831,67.0,10.0,40.0,12.0,0.0
4832,60.0,33.0,60.0,3.0,0.0
4833,75.0,2.0,40.0,10.0,0.0
4834,72.0,4.0,40.0,11.0,0.0
4835,67.0,54.0,40.0,12.0,0.0
4836,75.0,2.0,40.0,10.0,0.0
4837,72.0,4.0,40.0,11.0,0.0
4838,75.0,10.0,60.0,1.0,0.0
4839,67.0,11.0,40.0,12.0,0.0
4840,63.0,33.0,60.0,3.0,0.0
4841,75.0,2.0,40.0,10.0,0.0
4842,72.0,4.0,40.0,11.0,0.0
4843,67.0,54.0,40.0,12.0,0.0
4844,75.0,2.0,40.0,10.0,0.0
4845,79.0,1.0,60.0,0.0,0.0
4846,67.0,10.0,60.0,1.0,0.0
4847,72.0,4.0,40.0,11.0,0.0
4848,67.0,10.0,40.0,12.0,0.0
4849,55.0,33.0,60.0,3.0,0.0
4850,75.0,2.0,40.0,10.0,0.0
4851,72.0,4.0,40.0,11.0,0.0
4852,67.0,54.0,40.0,12.0,0.0
4853,76.0,2.0,40.0,10.0,0.0
4854,82.0,44.0,60.0,0.0,0.0
4855,73.0,4.0,40.0,11.0,0.0
4856,67.0,10.0,40.0,12.0,0.0
4857,45.0,1.0,120.0,13.0,0.0
4858,45.0,2.0,120.0,3.0,0.0
4859,33.0,31.0,120.0,14.0,0.0
4860,76.0,2.0,40.0,10.0,0.0
4861,73.0,4.0,40.0,11.0,0.0
4862,67.0,20.0,40.0,12.0,0.0
4863,76.0,2.0,40.0,10.0,0.0
4864,79.0,1.0,60.0,0.0,0.0
4865,73.0,4.0,40.0,11.0,0.0
4866,67.0,10.0,60.0,1.0,0.0
4867,67.0,10.0,40.0,12.0,0.0
4868,55.0,33.0,60.0,3.0,0.0
4869,76.0,2.0,40.0,10.0,0.0
4870,73.0,4.0,40.0,11.0,0.0
4871,67.0,54.0,40.0,12.0,0.0
4872,76.0,2.0,40.0,10.0,0.0
4873,69.0,10.0,60.0,1.0,0.0
4874,73.0,4.0,40.0,11.0,0.0
4875,67.0,11.0,40.0,12.0,0.0
4876,57.0,33.0,60.0,3.0,0.0
4877,76.0,2.0,40.0,10.0,0.0
4878,73.0,4.0,40.0,11.0,0.0
4879,67.0,54.0,40.0,12.0,0.0
4880,76.0,2.0,40.0,10.0,0.0
4881,79.0,1.0,60.0,0.0,0.0
4882,73.0,4.0,40.0,11.0,0.0
4883,67.0,10.0,60.0,1.0,0.0
4884,67.0,10.0,40.0,12.0,0.0
4885,55.0,33.0,60.0,3.0,0.0
4886,76.0,2.0,40.0,10.0,0.0
4887,73.0,4.0,40.0,11.0,0.0
4888,67.0,54.0,40.0,12.0,0.0
4889,77.0,16.0,40.0,10.0,0.0
4890,77.0,44.0,60.0,0.0,0.0
4891,74.0,19.0,120.0,11.0,0.0
4892,65.0,5.0,120.0,12.0,0.0
4893,50.0,1.0,120.0,13.0,0.0
4894,50.0,2.0,120.0,3.0,0.0
4895,38.0,31.0,120.0,14.0,0.0
4896,77.0,2.0,40.0,10.0,0.0
4897,76.0,2.0,40.0,10.0,0.0
4898,81.0,1.0,60.0,0.0,0.0
4899,65.0,10.0,60.0,1.0,0.0
4900,64.0,14.0,40.0,11.0,0.0
4901,53.0,33.0,60.0,3.0,0.0
4902,76.0,2.0,40.0,10.0,0.0
4903,64.0,58.0,40.0,11.0,0.0
4904,74.0,2.0,40.0,10.0,0.0
4905,69.0,10.0,60.0,1.0,0.0
4906,62.0,15.0,40.0,11.0,0.0
4907,57.0,33.0,60.0,3.0,0.0
4908,74.0,2.0,40.0,10.0,0.0
4909,62.0,58.0,40.0,11.0,0.0
4910,73.0,2.0,40.0,10.0,0.0
4911,81.0,1.0,60.0,0.0,0.0
4912,65.0,10.0,60.0,1.0,0.0
4913,61.0,14.0,40.0,11.0,0.0
4914,53.0,33.0,60.0,3.0,0.0
4915,73.0,2.0,40.0,10.0,0.0
4916,61.0,58.0,40.0,11.0,0.0
4917,74.0,2.0,40.0,10.0,0.0
4918,86.0,44.0,60.0,0.0,0.0
4919,62.0,14.0,40.0,11.0,0.0
4920,58.0,5.0,120.0,12.0,0.0
4921,46.0,1.0,120.0,13.0,0.0
4922,46.0,2.0,120.0,3.0,0.0
4923,34.0,31.0,120.0,14.0,0.0
4924,74.0,2.0,40.0,10.0,0.0
4925,62.0,19.0,40.0,11.0,0.0
4926,76.0,2.0,40.0,10.0,0.0
4927,74.0,1.0,60.0,0.0,0.0
4928,62.0,10.0,60.0,1.0,0.0
4929,64.0,14.0,40.0,11.0,0.0
4930,50.0,33.0,60.0,3.0,0.0
4931,76.0,2.0,40.0,10.0,0.0
4932,64.0,58.0,40.0,11.0,0.0
4933,77.0,2.0,40.0,10.0,0.0
4934,65.0,15.0,40.0,11.0,0.0
4935,74.0,10.0,60.0,1.0,0.0
4936,62.0,33.0,60.0,3.0,0.0
4937,77.0,2.0,40.0,10.0,0.0
4938,65.0,58.0,40.0,11.0,0.0
4939,79.0,2.0,40.0,10.0,0.0
4940,86.0,1.0,60.0,0.0,0.0
4941,67.0,14.0,40.0,11.0,0.0
4942,74.0,10.0,60.0,1.0,0.0
4943,62.0,33.0,60.0,3.0,0.0
4944,79.0,2.0,40.0,10.0,0.0
4945,67.0,134.0,40.0,11.0,0.0
4946,81.0,2.0,360.0,10.0,0.0
4947,85.0,0.0,120.0,0.0,0.0
4948,69.0,4.0,360.0,11.0,0.0
4949,73.0,2.0,120.0,1.0,0.0
4950,69.0,5.0,360.0,12.0,0.0
4951,45.0,1.0,120.0,13.0,0.0
4952,45.0,0.0,120.0,3.0,0.0
4953,61.0,228.0,120.0,3.0,0.0
4954,33.0,8.0,120.0,14.0,0.0
4955,57.0,3.0,240.0,13.0,0.0
4956,45.0,96.0,240.0,14.0,0.0
4957,80.0,2.0,120.0,10.0,0.0
4958,68.0,4.0,120.0,11.0,0.0
4959,68.0,5.0,120.0,12.0,0.0
4960,56.0,3.0,120.0,13.0,0.0
4961,44.0,116.0,120.0,14.0,0.0
4962,81.0,2.0,120.0,10.0,0.0
4963,69.0,4.0,120.0,11.0,0.0
4964,69.0,5.0,120.0,12.0,0.0
4965,57.0,3.0,120.0,13.0,0.0
4966,45.0,106.0,120.0,14.0,0.0
4967,82.0,2.0,120.0,10.0,0.0
4968,70.0,4.0,120.0,11.0,0.0
4969,70.0,5.0,120.0,12.0,0.0
4970,58.0,3.0,120.0,13.0,0.0
4971,46.0,106.0,120.0,14.0,0.0
4972,81.0,2.0,120.0,10.0,0.0
4973,69.0,4.0,120.0,11.0,0.0
4974,69.0,5.0,120.0,12.0,0.0
4975,57.0,3.0,120.0,13.0,0.0
4976,45.0,106.0,120.0,14.0,0.0
4977,79.0,1.0,120.0,10.0,0.0
4978,67.0,2.0,120.0,11.0,0.0
4979,67.0,114.0,120.0,12.0,0.0
4980,55.0,1.0,120.0,13.0,0.0
4981,43.0,2.0,120.0,14.0,0.0
4982,77.0,2.0,120.0,10.0,0.0
4983,65.0,4.0,120.0,11.0,0.0
4984,65.0,5.0,120.0,12.0,0.0
4985,53.0,3.0,120.0,13.0,0.0
4986,41.0,106.0,120.0,14.0,0.0
4987,76.0,2.0,120.0,10.0,0.0
4988,64.0,4.0,120.0,11.0,0.0
4989,64.0,5.0,120.0,12.0,0.0
4990,52.0,3.0,120.0,13.0,0.0
4991,40.0,106.0,120.0,14.0,0.0
4992,74.0,2.0,120.0,10.0,0.0
4993,62.0,4.0,120.0,11.0,0.0
4994,62.0,5.0,120.0,12.0,0.0
4995,50.0,3.0,120.0,13.0,0.0
4996,38.0,106.0,120.0,14.0,0.0
4997,73.0,2.0,120.0,10.0,0.0
4998,61.0,4.0,120.0,11.0,0.0
4999,61.0,5.0,120.0,12.0,0.0
5000,49.0,3.0,120.0,13.0,0.0
5001,37.0,106.0,120.0,14.0,0.0
5002,74.0,2.0,120.0,10.0,0.0
5003,62.0,4.0,120.0,11.0,0.0
5004,62.0,5.0,120.0,12.0,0.0
5005,50.0,3.0,120.0,13.0,0.0
5006,38.0,106.0,120.0,14.0,0.0
5007,70.0,2.0,120.0,10.0,0.0
5008,58.0,4.0,120.0,11.0,0.0
5009,58.0,5.0,120.0,12.0,0.0
5010,46.0,3.0,120.0,13.0,0.0
5011,34.0,106.0,120.0,14.0,0.0
5012,69.0,2.0,120.0,10.0,0.0
5013,57.0,4.0,120.0,11.0,0.0
5014,57.0,5.0,120.0,12.0,0.0
5015,45.0,3.0,120.0,13.0,0.0
5016,33.0,96.0,120.0,14.0,0.0
5017,68.0,2.0,120.0,10.0,0.0
5018,56.0,4.0,120.0,11.0,0.0
5019,56.0,5.0,120.0,12.0,0.0
5020,44.0,3.0,120.0,13.0,0.0
5021,32.0,46.0,120.0,14.0,0.0
5022,69.0,2.0,60.0,10.0,0.0
5023,81.0,1.0,360.0,0.0,0.0
5024,69.0,9.0,360.0,1.0,0.0
5025,57.0,4.0,60.0,11.0,0.0
5026,57.0,54.0,60.0,12.0,0.0
5027,45.0,1.0,360.0,13.0,0.0
5028,57.0,0.0,360.0,3.0,0.0
5029,45.0,2.0,360.0,3.0,0.0
5030,33.0,36.0,360.0,14.0,0.0
5031,69.0,2.0,60.0,10.0,0.0
5032,69.0,4.0,60.0,11.0,0.0
5033,57.0,54.0,60.0,12.0,0.0
5034,69.0,2.0,60.0,10.0,0.0
5035,69.0,4.0,60.0,11.0,0.0
5036,57.0,54.0,60.0,12.0,0.0
5037,69.0,2.0,60.0,10.0,0.0
5038,69.0,4.0,60.0,11.0,0.0
5039,57.0,54.0,60.0,12.0,0.0
5040,69.0,2.0,60.0,10.0,0.0
5041,69.0,4.0,60.0,11.0,0.0
5042,57.0,54.0,60.0,12.0,0.0
5043,69.0,2.0,60.0,10.0,0.0
5044,69.0,4.0,60.0,11.0,0.0
5045,57.0,5.0,60.0,12.0,0.0
5046,68.0,2.0,60.0,10.0,0.0
5047,80.0,1.0,120.0,0.0,0.0
5048,68.0,4.0,60.0,11.0,0.0
5049,68.0,0.0,120.0,1.0,0.0
5050,56.0,54.0,60.0,12.0,0.0
5051,44.0,1.0,120.0,13.0,0.0
5052,56.0,0.0,120.0,3.0,0.0
5053,44.0,2.0,120.0,3.0,0.0
5054,32.0,46.0,120.0,14.0,0.0
5055,68.0,1.0,60.0,10.0,0.0
5056,68.0,4.0,60.0,11.0,0.0
5057,56.0,5.0,60.0,12.0,0.0
5058,69.0,2.0,60.0,10.0,0.0
5059,81.0,1.0,120.0,0.0,0.0
5060,69.0,9.0,120.0,1.0,0.0
5061,69.0,4.0,60.0,11.0,0.0
5062,57.0,54.0,60.0,12.0,0.0
5063,45.0,1.0,120.0,13.0,0.0
5064,45.0,0.0,120.0,3.0,0.0
5065,57.0,2.0,120.0,3.0,0.0
5066,33.0,36.0,120.0,14.0,0.0
5067,69.0,2.0,60.0,10.0,0.0
5068,69.0,4.0,60.0,11.0,0.0
5069,57.0,5.0,60.0,12.0,0.0
5070,70.0,2.0,60.0,10.0,0.0
5071,82.0,1.0,120.0,0.0,0.0
5072,70.0,4.0,60.0,11.0,0.0
5073,70.0,9.0,120.0,1.0,0.0
5074,58.0,54.0,60.0,12.0,0.0
5075,46.0,1.0,120.0,13.0,0.0
5076,46.0,0.0,120.0,3.0,0.0
5077,58.0,2.0,120.0,3.0,0.0
5078,34.0,36.0,120.0,14.0,0.0
5079,70.0,2.0,60.0,10.0,0.0
5080,70.0,4.0,60.0,11.0,0.0
5081,58.0,5.0,60.0,12.0,0.0
5082,69.0,2.0,60.0,10.0,0.0
5083,81.0,1.0,120.0,0.0,0.0
5084,69.0,9.0,120.0,1.0,0.0
5085,69.0,4.0,60.0,11.0,0.0
5086,57.0,54.0,60.0,12.0,0.0
5087,45.0,1.0,120.0,13.0,0.0
5088,57.0,0.0,120.0,3.0,0.0
5089,45.0,2.0,120.0,3.0,0.0
5090,33.0,36.0,120.0,14.0,0.0
5091,69.0,2.0,60.0,10.0,0.0
5092,69.0,4.0,60.0,11.0,0.0
5093,57.0,5.0,60.0,12.0,0.0
5094,67.0,2.0,60.0,10.0,0.0
5095,79.0,0.0,120.0,0.0,0.0
5096,67.0,2.0,120.0,1.0,0.0
5097,67.0,4.0,60.0,11.0,0.0
5098,55.0,54.0,60.0,12.0,0.0
5099,43.0,1.0,120.0,13.0,0.0
5100,43.0,38.0,120.0,3.0,0.0
5101,55.0,0.0,120.0,3.0,0.0
5102,31.0,8.0,120.0,14.0,0.0
5103,67.0,2.0,60.0,10.0,0.0
5104,67.0,4.0,60.0,11.0,0.0
5105,55.0,5.0,60.0,12.0,0.0
5106,65.0,2.0,60.0,10.0,0.0
5107,77.0,1.0,120.0,0.0,0.0
5108,65.0,9.0,120.0,1.0,0.0
5109,65.0,4.0,60.0,11.0,0.0
5110,53.0,54.0,60.0,12.0,0.0
5111,41.0,1.0,120.0,13.0,0.0
5112,41.0,0.0,120.0,3.0,0.0
5113,53.0,2.0,120.0,3.0,0.0
5114,29.0,36.0,120.0,14.0,0.0
5115,65.0,2.0,60.0,10.0,0.0
5116,65.0,4.0,60.0,11.0,0.0
5117,53.0,5.0,60.0,12.0,0.0
5118,64.0,2.0,60.0,10.0,0.0
5119,76.0,1.0,120.0,0.0,0.0
5120,76.0,9.0,120.0,1.0,0.0
5121,64.0,4.0,60.0,11.0,0.0
5122,52.0,54.0,60.0,12.0,0.0
5123,40.0,1.0,120.0,13.0,0.0
5124,52.0,2.0,120.0,3.0,0.0
5125,28.0,36.0,120.0,14.0,0.0
5126,64.0,2.0,60.0,10.0,0.0
5127,64.0,4.0,60.0,11.0,0.0
5128,52.0,5.0,60.0,12.0,0.0
5129,62.0,2.0,60.0,10.0,0.0
5130,74.0,1.0,120.0,0.0,0.0
5131,74.0,9.0,120.0,1.0,0.0
5132,62.0,4.0,60.0,11.0,0.0
5133,50.0,54.0,60.0,12.0,0.0
5134,38.0,1.0,120.0,13.0,0.0
5135,50.0,2.0,120.0,3.0,0.0
5136,26.0,36.0,120.0,14.0,0.0
5137,62.0,2.0,60.0,10.0,0.0
5138,62.0,4.0,60.0,11.0,0.0
5139,50.0,5.0,60.0,12.0,0.0
5140,61.0,2.0,60.0,10.0,0.0
5141,73.0,0.0,120.0,0.0,0.0
5142,73.0,2.0,120.0,1.0,0.0
5143,61.0,4.0,60.0,11.0,0.0
5144,49.0,54.0,60.0,12.0,0.0
5145,49.0,1.0,120.0,13.0,0.0
5146,49.0,38.0,120.0,3.0,0.0
5147,37.0,8.0,120.0,14.0,0.0
5148,61.0,2.0,60.0,10.0,0.0
5149,61.0,4.0,60.0,11.0,0.0
5150,49.0,5.0,60.0,12.0,0.0
5151,62.0,2.0,60.0,10.0,0.0
5152,74.0,1.0,120.0,0.0,0.0
5153,74.0,9.0,120.0,1.0,0.0
5154,62.0,4.0,60.0,11.0,0.0
5155,50.0,54.0,60.0,12.0,0.0
5156,50.0,1.0,120.0,13.0,0.0
5157,62.0,0.0,120.0,3.0,0.0
5158,50.0,2.0,120.0,3.0,0.0
5159,38.0,36.0,120.0,14.0,0.0
5160,62.0,2.0,60.0,10.0,0.0
5161,62.0,4.0,60.0,11.0,0.0
5162,50.0,5.0,60.0,12.0,0.0
5163,58.0,2.0,60.0,10.0,0.0
5164,82.0,1.0,120.0,0.0,0.0
5165,58.0,4.0,60.0,11.0,0.0
5166,70.0,9.0,120.0,1.0,0.0
5167,58.0,54.0,60.0,12.0,0.0
5168,46.0,1.0,120.0,13.0,0.0
5169,58.0,2.0,120.0,3.0,0.0
5170,46.0,0.0,120.0,3.0,0.0
5171,34.0,36.0,120.0,14.0,0.0
5172,58.0,2.0,60.0,10.0,0.0
5173,58.0,4.0,60.0,11.0,0.0
5174,58.0,5.0,60.0,12.0,0.0
5175,57.0,2.0,60.0,10.0,0.0
5176,81.0,1.0,120.0,0.0,0.0
5177,57.0,4.0,60.0,11.0,0.0
5178,69.0,9.0,120.0,1.0,0.0
5179,57.0,54.0,60.0,12.0,0.0
5180,45.0,1.0,120.0,13.0,0.0
5181,57.0,0.0,120.0,3.0,0.0
5182,45.0,2.0,120.0,3.0,0.0
5183,33.0,36.0,120.0,14.0,0.0
5184,57.0,2.0,60.0,10.0,0.0
5185,57.0,4.0,60.0,11.0,0.0
5186,57.0,5.0,60.0,12.0,0.0
5187,55.0,2.0,60.0,10.0,0.0
5188,79.0,1.0,120.0,0.0,0.0
5189,67.0,0.0,120.0,1.0,0.0
5190,55.0,4.0,60.0,11.0,0.0
5191,55.0,54.0,60.0,12.0,0.0
5192,43.0,1.0,120.0,13.0,0.0
5193,55.0,0.0,120.0,3.0,0.0
5194,43.0,2.0,120.0,3.0,0.0
5195,31.0,116.0,120.0,14.0,0.0
5196,55.0,1.0,60.0,10.0,0.0
5197,55.0,4.0,60.0,11.0,0.0
5198,55.0,5.0,60.0,12.0,0.0
5199,53.0,1.0,120.0,10.0,0.0
5200,77.0,1.0,120.0,0.0,0.0
5201,62.0,4.0,450.0,4.0,0.0
5202,65.0,4.0,120.0,1.0,0.0
5203,53.0,0.0,120.0,11.0,0.0
5204,50.0,19.0,450.0,5.0,0.0
5205,53.0,5.0,120.0,12.0,0.0
5206,41.0,1.0,120.0,13.0,0.0
5207,41.0,2.0,120.0,3.0,0.0
5208,29.0,107.0,120.0,14.0,0.0
5209,85.0,1.0,60.0,0.0,0.0
5210,73.0,10.0,60.0,1.0,0.0
5211,61.0,49.0,60.0,3.0,0.0
5212,86.0,1.0,60.0,0.0,0.0
5213,74.0,10.0,60.0,1.0,0.0
5214,62.0,145.0,60.0,3.0,0.0
5215,53.0,2.0,60.0,10.0,0.0
5216,53.0,4.0,60.0,11.0,0.0
5217,53.0,5.0,60.0,12.0,0.0
5218,41.0,1.0,60.0,13.0,0.0
5219,41.0,2.0,60.0,3.0,0.0
5220,29.0,46.0,60.0,14.0,0.0
5221,55.0,2.0,60.0,10.0,0.0
5222,62.0,4.0,450.0,4.0,0.0
5223,55.0,4.0,60.0,11.0,0.0
5224,50.0,19.0,450.0,5.0,0.0
5225,55.0,5.0,60.0,12.0,0.0
5226,43.0,1.0,60.0,13.0,0.0
5227,43.0,2.0,60.0,3.0,0.0
5228,31.0,167.0,60.0,14.0,0.0
5229,85.0,1.0,60.0,0.0,0.0
5230,73.0,10.0,60.0,1.0,0.0
5231,61.0,49.0,60.0,3.0,0.0
5232,86.0,1.0,60.0,0.0,0.0
5233,74.0,10.0,60.0,1.0,0.0
5234,62.0,145.0,60.0,3.0,0.0
5235,55.0,2.0,60.0,10.0,0.0
5236,55.0,4.0,60.0,11.0,0.0
5237,55.0,5.0,60.0,12.0,0.0
5238,43.0,1.0,60.0,13.0,0.0
5239,43.0,2.0,60.0,3.0,0.0
5240,31.0,46.0,60.0,14.0,0.0
5241,57.0,2.0,60.0,10.0,0.0
5242,62.0,4.0,450.0,4.0,0.0
5243,57.0,4.0,60.0,11.0,0.0
5244,50.0,19.0,450.0,5.0,0.0
5245,57.0,5.0,60.0,12.0,0.0
5246,45.0,1.0,60.0,13.0,0.0
5247,45.0,2.0,60.0,3.0,0.0
5248,33.0,167.0,60.0,14.0,0.0
5249,85.0,1.0,60.0,0.0,0.0
5250,73.0,10.0,60.0,1.0,0.0
5251,61.0,49.0,60.0,3.0,0.0
5252,86.0,1.0,60.0,0.0,0.0
5253,74.0,10.0,60.0,1.0,0.0
5254,62.0,145.0,60.0,3.0,0.0
5255,57.0,2.0,60.0,10.0,0.0
5256,57.0,4.0,60.0,11.0,0.0
5257,57.0,5.0,60.0,12.0,0.0
5258,45.0,1.0,60.0,13.0,0.0
5259,45.0,2.0,60.0,3.0,0.0
5260,33.0,46.0,60.0,14.0,0.0
5261,58.0,2.0,60.0,10.0,0.0
5262,62.0,4.0,120.0,4.0,0.0
5263,58.0,4.0,60.0,11.0,0.0
5264,50.0,114.0,120.0,5.0,0.0
5265,58.0,5.0,60.0,12.0,0.0
5266,46.0,1.0,60.0,13.0,0.0
5267,46.0,2.0,60.0,3.0,0.0
5268,34.0,48.0,60.0,14.0,0.0
5269,86.0,1.0,210.0,0.0,0.0
5270,74.0,10.0,210.0,1.0,0.0
5271,62.0,15.0,210.0,3.0,0.0
5272,58.0,2.0,60.0,10.0,0.0
5273,58.0,4.0,60.0,11.0,0.0
5274,58.0,5.0,60.0,12.0,0.0
5275,46.0,1.0,60.0,13.0,0.0
5276,46.0,2.0,60.0,3.0,0.0
5277,34.0,46.0,60.0,14.0,0.0
5278,56.0,2.0,60.0,10.0,0.0
5279,56.0,4.0,60.0,11.0,0.0
5280,62.0,4.0,120.0,4.0,0.0
5281,50.0,114.0,120.0,5.0,0.0
5282,56.0,5.0,60.0,12.0,0.0
5283,44.0,1.0,60.0,13.0,0.0
5284,44.0,2.0,60.0,3.0,0.0
5285,32.0,22.0,60.0,14.0,0.0
5286,86.0,1.0,210.0,0.0,0.0
5287,74.0,10.0,210.0,1.0,0.0
5288,62.0,5.0,210.0,3.0,0.0
5289,56.0,2.0,60.0,10.0,0.0
5290,56.0,4.0,60.0,11.0,0.0
5291,56.0,5.0,60.0,12.0,0.0
5292,44.0,1.0,60.0,13.0,0.0
5293,44.0,2.0,60.0,3.0,0.0
5294,32.0,38.0,60.0,14.0,0.0
5295,57.0,1.0,60.0,10.0,0.0
5296,62.0,2.0,120.0,4.0,0.0
5297,57.0,4.0,60.0,11.0,0.0
5298,50.0,46.0,120.0,5.0,0.0
5299,57.0,4.0,60.0,12.0,0.0
5300,45.0,3.0,60.0,13.0,0.0
5301,45.0,24.0,60.0,3.0,0.0
5302,33.0,8.0,60.0,14.0,0.0
5303,65.0,4.0,60.0,11.0,0.0
5304,62.0,5.0,60.0,12.0,0.0
5305,57.0,1.0,60.0,13.0,0.0
5306,45.0,2.0,60.0,14.0,0.0
5307,81.0,2.0,240.0,10.0,0.0
5308,65.0,4.0,60.0,11.0,0.0
5309,62.0,5.0,60.0,12.0,0.0
5310,57.0,3.0,60.0,13.0,0.0
5311,45.0,48.0,60.0,14.0,0.0
5312,65.0,4.0,60.0,11.0,0.0
5313,62.0,5.0,60.0,12.0,0.0
5314,57.0,3.0,60.0,13.0,0.0
5315,45.0,48.0,60.0,14.0,0.0
5316,65.0,4.0,60.0,11.0,0.0
5317,62.0,5.0,60.0,12.0,0.0
5318,57.0,3.0,60.0,13.0,0.0
5319,45.0,46.0,60.0,14.0,0.0
5320,65.0,4.0,60.0,11.0,0.0
5321,62.0,5.0,60.0,12.0,0.0
5322,57.0,3.0,60.0,13.0,0.0
5323,45.0,48.0,60.0,14.0,0.0
5324,77.0,1.0,60.0,10.0,0.0
5325,65.0,4.0,60.0,11.0,0.0
5326,62.0,4.0,60.0,12.0,0.0
5327,57.0,3.0,60.0,13.0,0.0
5328,45.0,46.0,60.0,14.0,0.0
5329,74.0,2.0,60.0,10.0,0.0
5330,65.0,4.0,60.0,11.0,0.0
5331,62.0,5.0,60.0,12.0,0.0
5332,57.0,3.0,60.0,13.0,0.0
5333,45.0,48.0,60.0,14.0,0.0
5334,69.0,2.0,240.0,10.0,0.0
5335,64.0,4.0,60.0,11.0,0.0
5336,62.0,5.0,60.0,12.0,0.0
5337,45.0,3.0,60.0,13.0,0.0
5338,33.0,48.0,60.0,14.0,0.0
5339,64.0,4.0,60.0,11.0,0.0
5340,62.0,5.0,60.0,12.0,0.0
5341,57.0,3.0,60.0,13.0,0.0
5342,45.0,48.0,60.0,14.0,0.0
5343,64.0,4.0,60.0,11.0,0.0
5344,62.0,5.0,60.0,12.0,0.0
5345,57.0,3.0,60.0,13.0,0.0
5346,45.0,46.0,60.0,14.0,0.0
5347,64.0,4.0,60.0,11.0,0.0
5348,62.0,5.0,60.0,12.0,0.0
5349,57.0,3.0,60.0,13.0,0.0
5350,45.0,16.0,60.0,14.0,0.0
5351,77.0,20.0,20.0,10.0,0.0
5352,64.0,4.0,60.0,11.0,0.0
5353,61.0,4.0,60.0,12.0,0.0
5354,45.0,3.0,60.0,13.0,0.0
5355,33.0,16.0,60.0,14.0,0.0
5356,76.0,12.0,20.0,10.0,0.0
5357,77.0,1.0,20.0,10.0,0.0
5358,76.0,20.0,20.0,10.0,0.0
5359,64.0,4.0,60.0,11.0,0.0
5360,61.0,4.0,60.0,12.0,0.0
5361,57.0,3.0,60.0,13.0,0.0
5362,45.0,16.0,60.0,14.0,0.0
5363,77.0,12.0,20.0,10.0,0.0
5364,76.0,1.0,20.0,10.0,0.0
5365,77.0,20.0,20.0,10.0,0.0
5366,64.0,4.0,60.0,11.0,0.0
5367,61.0,4.0,60.0,12.0,0.0
5368,57.0,3.0,60.0,13.0,0.0
5369,45.0,16.0,60.0,14.0,0.0
5370,76.0,12.0,20.0,10.0,0.0
5371,77.0,1.0,20.0,10.0,0.0
5372,76.0,20.0,20.0,10.0,0.0
5373,64.0,4.0,60.0,11.0,0.0
5374,61.0,4.0,60.0,12.0,0.0
5375,57.0,3.0,60.0,13.0,0.0
5376,45.0,116.0,60.0,14.0,0.0
5377,77.0,12.0,20.0,10.0,0.0
5378,76.0,1.0,20.0,10.0,0.0
5379,74.0,1.0,120.0,10.0,0.0
5380,77.0,1.0,120.0,0.0,0.0
5381,65.0,4.0,120.0,1.0,0.0
5382,62.0,1.0,450.0,4.0,0.0
5383,62.0,0.0,120.0,11.0,0.0
5384,62.0,3.0,450.0,6.0,0.0
5385,50.0,19.0,450.0,5.0,0.0
5386,62.0,5.0,120.0,12.0,0.0
5387,50.0,1.0,120.0,13.0,0.0
5388,50.0,2.0,120.0,3.0,0.0
5389,38.0,107.0,120.0,14.0,0.0
5390,85.0,1.0,60.0,0.0,0.0
5391,73.0,10.0,60.0,1.0,0.0
5392,61.0,49.0,60.0,3.0,0.0
5393,86.0,1.0,60.0,0.0,0.0
5394,74.0,10.0,60.0,1.0,0.0
5395,62.0,145.0,60.0,3.0,0.0
5396,65.0,1.0,60.0,10.0,0.0
5397,77.0,1.0,60.0,0.0,0.0
5398,53.0,4.0,60.0,11.0,0.0
5399,65.0,0.0,60.0,1.0,0.0
5400,53.0,5.0,60.0,12.0,0.0
5401,41.0,1.0,60.0,13.0,0.0
5402,41.0,2.0,60.0,3.0,0.0
5403,29.0,46.0,60.0,14.0,0.0
5404,67.0,1.0,60.0,10.0,0.0
5405,79.0,1.0,60.0,0.0,0.0
5406,55.0,0.0,60.0,11.0,0.0
5407,62.0,1.0,450.0,4.0,0.0
5408,67.0,4.0,60.0,1.0,0.0
5409,62.0,3.0,450.0,6.0,0.0
5410,55.0,5.0,60.0,12.0,0.0
5411,50.0,19.0,450.0,5.0,0.0
5412,43.0,1.0,60.0,13.0,0.0
5413,43.0,2.0,60.0,3.0,0.0
5414,31.0,167.0,60.0,14.0,0.0
5415,85.0,1.0,60.0,0.0,0.0
5416,73.0,10.0,60.0,1.0,0.0
5417,61.0,49.0,60.0,3.0,0.0
5418,86.0,1.0,60.0,0.0,0.0
5419,74.0,10.0,60.0,1.0,0.0
5420,62.0,145.0,60.0,3.0,0.0
5421,67.0,1.0,60.0,10.0,0.0
5422,79.0,1.0,60.0,0.0,0.0
5423,55.0,0.0,60.0,11.0,0.0
5424,67.0,4.0,60.0,1.0,0.0
5425,55.0,5.0,60.0,12.0,0.0
5426,43.0,1.0,60.0,13.0,0.0
5427,43.0,2.0,60.0,3.0,0.0
5428,31.0,46.0,60.0,14.0,0.0
5429,69.0,1.0,60.0,10.0,0.0
5430,81.0,1.0,60.0,0.0,0.0
5431,62.0,1.0,930.0,4.0,0.0
5432,57.0,0.0,60.0,11.0,0.0
5433,69.0,4.0,60.0,1.0,0.0
5434,62.0,3.0,930.0,6.0,0.0
5435,50.0,19.0,930.0,5.0,0.0
5436,57.0,5.0,60.0,12.0,0.0
5437,45.0,1.0,60.0,13.0,0.0
5438,45.0,2.0,60.0,3.0,0.0
5439,33.0,167.0,60.0,14.0,0.0
5440,85.0,1.0,60.0,0.0,0.0
5441,73.0,10.0,60.0,1.0,0.0
5442,61.0,49.0,60.0,3.0,0.0
5443,86.0,1.0,60.0,0.0,0.0
5444,74.0,10.0,60.0,1.0,0.0
5445,62.0,168.0,60.0,3.0,0.0
5446,69.0,1.0,60.0,10.0,0.0
5447,81.0,1.0,60.0,0.0,0.0
5448,57.0,0.0,60.0,11.0,0.0
5449,69.0,4.0,60.0,1.0,0.0
5450,57.0,5.0,60.0,12.0,0.0
5451,45.0,1.0,60.0,13.0,0.0
5452,45.0,2.0,60.0,3.0,0.0
5453,33.0,46.0,60.0,14.0,0.0
5454,70.0,1.0,60.0,10.0,0.0
5455,82.0,1.0,60.0,0.0,0.0
5456,70.0,0.0,60.0,1.0,0.0
5457,58.0,4.0,60.0,11.0,0.0
5458,58.0,5.0,60.0,12.0,0.0
5459,46.0,1.0,60.0,13.0,0.0
5460,46.0,2.0,60.0,3.0,0.0
5461,34.0,166.0,60.0,14.0,0.0
5462,70.0,1.0,60.0,10.0,0.0
5463,82.0,1.0,60.0,0.0,0.0
5464,58.0,4.0,60.0,11.0,0.0
5465,70.0,0.0,60.0,1.0,0.0
5466,58.0,5.0,60.0,12.0,0.0
5467,46.0,1.0,60.0,13.0,0.0
5468,46.0,2.0,60.0,3.0,0.0
5469,34.0,46.0,60.0,14.0,0.0
5470,68.0,1.0,60.0,10.0,0.0
5471,80.0,1.0,60.0,0.0,0.0
5472,56.0,0.0,60.0,11.0,0.0
5473,68.0,4.0,60.0,1.0,0.0
5474,56.0,5.0,60.0,12.0,0.0
5475,44.0,1.0,60.0,13.0,0.0
5476,44.0,2.0,60.0,3.0,0.0
5477,32.0,143.0,60.0,14.0,0.0
5478,68.0,1.0,60.0,10.0,0.0
5479,80.0,1.0,60.0,0.0,0.0
5480,56.0,0.0,60.0,11.0,0.0
5481,68.0,4.0,60.0,1.0,0.0
5482,56.0,5.0,60.0,12.0,0.0
5483,44.0,1.0,60.0,13.0,0.0
5484,44.0,2.0,60.0,3.0,0.0
5485,32.0,46.0,60.0,14.0,0.0
5486,69.0,1.0,60.0,10.0,0.0
5487,81.0,1.0,60.0,0.0,0.0
5488,57.0,4.0,60.0,11.0,0.0
5489,69.0,0.0,60.0,1.0,0.0
5490,62.0,4.0,1050.0,4.0,0.0
5491,62.0,22.0,930.0,6.0,0.0
5492,50.0,139.0,1050.0,5.0,0.0
5493,57.0,5.0,60.0,12.0,0.0
5494,45.0,1.0,60.0,13.0,0.0
5495,45.0,2.0,60.0,3.0,0.0
5496,33.0,167.0,60.0,14.0,0.0
5497,85.0,1.0,60.0,0.0,0.0
5498,73.0,10.0,60.0,1.0,0.0
5499,61.0,49.0,60.0,3.0,0.0
5500,86.0,1.0,60.0,0.0,0.0
5501,74.0,10.0,60.0,1.0,0.0
5502,62.0,168.0,60.0,3.0,0.0
5503,69.0,1.0,60.0,10.0,0.0
5504,81.0,1.0,60.0,0.0,0.0
5505,69.0,4.0,60.0,1.0,0.0
5506,57.0,0.0,60.0,11.0,0.0
5507,57.0,5.0,60.0,12.0,0.0
5508,45.0,1.0,60.0,13.0,0.0
5509,45.0,2.0,60.0,3.0,0.0
5510,33.0,46.0,60.0,14.0,0.0
5511,70.0,1.0,60.0,10.0,0.0
5512,82.0,1.0,60.0,0.0,0.0
5513,70.0,0.0,60.0,1.0,0.0
5514,58.0,4.0,60.0,11.0,0.0
5515,58.0,5.0,60.0,12.0,0.0
5516,46.0,1.0,60.0,13.0,0.0
5517,46.0,2.0,60.0,3.0,0.0
5518,34.0,166.0,60.0,14.0,0.0
5519,70.0,1.0,60.0,10.0,0.0
5520,82.0,1.0,60.0,0.0,0.0
5521,58.0,0.0,60.0,11.0,0.0
5522,70.0,4.0,60.0,1.0,0.0
5523,58.0,5.0,60.0,12.0,0.0
5524,46.0,1.0,60.0,13.0,0.0
5525,46.0,2.0,60.0,3.0,0.0
5526,34.0,46.0,60.0,14.0,0.0
5527,68.0,1.0,60.0,10.0,0.0
5528,80.0,1.0,60.0,0.0,0.0
5529,56.0,0.0,60.0,11.0,0.0
5530,68.0,4.0,60.0,1.0,0.0
5531,56.0,5.0,60.0,12.0,0.0
5532,44.0,1.0,60.0,13.0,0.0
5533,44.0,2.0,60.0,3.0,0.0
5534,32.0,144.0,60.0,14.0,0.0
5535,68.0,1.0,60.0,10.0,0.0
5536,80.0,1.0,60.0,0.0,0.0
5537,68.0,0.0,60.0,1.0,0.0
5538,56.0,4.0,60.0,11.0,0.0
5539,56.0,5.0,60.0,12.0,0.0
5540,44.0,1.0,60.0,13.0,0.0
5541,44.0,2.0,60.0,3.0,0.0
5542,32.0,46.0,60.0,14.0,0.0
5543,69.0,1.0,60.0,10.0,0.0
5544,81.0,1.0,60.0,0.0,0.0
5545,57.0,4.0,60.0,11.0,0.0
5546,69.0,0.0,60.0,1.0,0.0
5547,62.0,3.0,2040.0,6.0,0.0
5548,57.0,5.0,60.0,12.0,0.0
5549,45.0,1.0,60.0,13.0,0.0
5550,45.0,2.0,60.0,3.0,0.0
5551,33.0,23.0,60.0,14.0,0.0
5552,86.0,1.0,240.0,0.0,0.0
5553,74.0,10.0,240.0,1.0,0.0
5554,62.0,4.0,210.0,4.0,0.0
5555,50.0,10.0,210.0,5.0,0.0
5556,62.0,118.0,240.0,3.0,0.0
5557,69.0,1.0,60.0,10.0,0.0
5558,81.0,1.0,60.0,0.0,0.0
5559,69.0,4.0,60.0,1.0,0.0
5560,57.0,0.0,60.0,11.0,0.0
5561,57.0,5.0,60.0,12.0,0.0
5562,45.0,1.0,60.0,13.0,0.0
5563,45.0,2.0,60.0,3.0,0.0
5564,33.0,46.0,60.0,14.0,0.0
5565,70.0,1.0,60.0,10.0,0.0
5566,82.0,1.0,60.0,0.0,0.0
5567,58.0,4.0,60.0,11.0,0.0
5568,70.0,0.0,60.0,1.0,0.0
5569,58.0,5.0,60.0,12.0,0.0
5570,46.0,1.0,60.0,13.0,0.0
5571,46.0,2.0,60.0,3.0,0.0
5572,34.0,23.0,60.0,14.0,0.0
5573,86.0,1.0,240.0,0.0,0.0
5574,74.0,10.0,240.0,1.0,0.0
5575,62.0,4.0,210.0,4.0,0.0
5576,50.0,10.0,210.0,5.0,0.0
5577,62.0,118.0,240.0,3.0,0.0
5578,68.0,1.0,60.0,10.0,0.0
5579,80.0,1.0,60.0,0.0,0.0
5580,56.0,0.0,60.0,11.0,0.0
5581,68.0,4.0,60.0,1.0,0.0
5582,56.0,5.0,60.0,12.0,0.0
5583,44.0,1.0,60.0,13.0,0.0
5584,44.0,2.0,60.0,3.0,0.0
5585,32.0,46.0,60.0,14.0,0.0
5586,69.0,1.0,60.0,10.0,0.0
5587,81.0,1.0,60.0,0.0,0.0
5588,57.0,0.0,60.0,11.0,0.0
5589,69.0,4.0,60.0,1.0,0.0
5590,57.0,5.0,60.0,12.0,0.0
5591,45.0,1.0,60.0,13.0,0.0
5592,45.0,2.0,60.0,3.0,0.0
5593,33.0,23.0,60.0,14.0,0.0
5594,86.0,1.0,240.0,0.0,0.0
5595,62.0,4.0,210.0,4.0,0.0
5596,74.0,10.0,240.0,1.0,0.0
5597,50.0,10.0,210.0,5.0,0.0
5598,62.0,118.0,240.0,3.0,0.0
5599,69.0,1.0,60.0,10.0,0.0
5600,81.0,1.0,60.0,0.0,0.0
5601,57.0,0.0,60.0,11.0,0.0
5602,69.0,4.0,60.0,1.0,0.0
5603,57.0,5.0,60.0,12.0,0.0
5604,45.0,1.0,60.0,13.0,0.0
5605,45.0,2.0,60.0,3.0,0.0
5606,33.0,46.0,60.0,14.0,0.0
5607,70.0,1.0,60.0,10.0,0.0
5608,82.0,1.0,60.0,0.0,0.0
5609,58.0,0.0,60.0,11.0,0.0
5610,70.0,4.0,60.0,1.0,0.0
5611,58.0,5.0,60.0,12.0,0.0
5612,46.0,1.0,60.0,13.0,0.0
5613,46.0,2.0,60.0,3.0,0.0
5614,34.0,23.0,60.0,14.0,0.0
5615,86.0,0.0,240.0,0.0,0.0
5616,62.0,3.0,210.0,4.0,0.0
5617,74.0,2.0,240.0,1.0,0.0
5618,50.0,1.0,210.0,5.0,0.0
5619,62.0,38.0,240.0,3.0,0.0
5620,68.0,1.0,60.0,10.0,0.0
5621,80.0,1.0,60.0,0.0,0.0
5622,68.0,0.0,60.0,1.0,0.0
5623,56.0,4.0,60.0,11.0,0.0
5624,56.0,5.0,60.0,12.0,0.0
5625,44.0,1.0,60.0,13.0,0.0
5626,44.0,2.0,60.0,3.0,0.0
5627,32.0,26.0,60.0,14.0,0.0
5628,69.0,2.0,40.0,10.0,0.0
5629,81.0,1.0,60.0,0.0,0.0
5630,69.0,10.0,60.0,1.0,0.0
5631,57.0,4.0,40.0,11.0,0.0
5632,57.0,5.0,40.0,12.0,0.0
5633,45.0,3.0,40.0,13.0,0.0
5634,45.0,25.0,60.0,3.0,0.0
5635,33.0,7.0,40.0,14.0,0.0
5636,69.0,1.0,40.0,10.0,0.0
5637,57.0,4.0,40.0,11.0,0.0
5638,57.0,5.0,40.0,12.0,0.0
5639,45.0,1.0,40.0,13.0,0.0
5640,33.0,8.0,40.0,14.0,0.0
5641,69.0,2.0,40.0,10.0,0.0
5642,89.0,1.0,240.0,0.0,0.0
5643,86.0,0.0,240.0,0.0,0.0
5644,74.0,2.0,240.0,1.0,0.0
5645,57.0,4.0,40.0,11.0,0.0
5646,62.0,3.0,210.0,4.0,0.0
5647,77.0,0.0,240.0,1.0,0.0
5648,57.0,5.0,40.0,12.0,0.0
5649,50.0,1.0,210.0,5.0,0.0
5650,45.0,3.0,40.0,13.0,0.0
5651,62.0,38.0,240.0,3.0,0.0
5652,53.0,0.0,240.0,3.0,0.0
5653,33.0,46.0,40.0,14.0,0.0
5654,69.0,2.0,40.0,10.0,0.0
5655,57.0,4.0,40.0,11.0,0.0
5656,57.0,5.0,40.0,12.0,0.0
5657,45.0,3.0,40.0,13.0,0.0
5658,33.0,46.0,40.0,14.0,0.0
5659,70.0,2.0,40.0,10.0,0.0
5660,58.0,4.0,40.0,11.0,0.0
5661,58.0,5.0,40.0,12.0,0.0
5662,46.0,3.0,40.0,13.0,0.0
5663,34.0,43.0,40.0,14.0,0.0
5664,70.0,1.0,40.0,10.0,0.0
5665,58.0,4.0,40.0,11.0,0.0
5666,58.0,5.0,40.0,12.0,0.0
5667,46.0,0.0,40.0,13.0,0.0
5668,34.0,8.0,40.0,14.0,0.0
5669,68.0,2.0,40.0,10.0,0.0
5670,89.0,0.0,240.0,0.0,0.0
5671,86.0,1.0,240.0,0.0,0.0
5672,62.0,3.0,210.0,4.0,0.0
5673,56.0,4.0,40.0,11.0,0.0
5674,77.0,2.0,240.0,1.0,0.0
5675,74.0,0.0,240.0,1.0,0.0
5676,50.0,1.0,210.0,5.0,0.0
5677,56.0,5.0,40.0,12.0,0.0
5678,44.0,3.0,40.0,13.0,0.0
5679,62.0,38.0,240.0,3.0,0.0
5680,53.0,0.0,240.0,3.0,0.0
5681,32.0,46.0,40.0,14.0,0.0
5682,68.0,2.0,40.0,10.0,0.0
5683,56.0,4.0,40.0,11.0,0.0
5684,56.0,5.0,40.0,12.0,0.0
5685,44.0,3.0,40.0,13.0,0.0
5686,32.0,46.0,40.0,14.0,0.0
5687,69.0,2.0,40.0,10.0,0.0
5688,57.0,4.0,40.0,11.0,0.0
5689,57.0,5.0,40.0,12.0,0.0
5690,45.0,3.0,40.0,13.0,0.0
5691,33.0,43.0,40.0,14.0,0.0
5692,69.0,1.0,40.0,10.0,0.0
5693,57.0,4.0,40.0,11.0,0.0
5694,57.0,5.0,40.0,12.0,0.0
5695,45.0,0.0,40.0,13.0,0.0
5696,33.0,8.0,40.0,14.0,0.0
5697,69.0,2.0,40.0,10.0,0.0
5698,89.0,0.0,240.0,0.0,0.0
5699,86.0,0.0,240.0,0.0,0.0
5700,57.0,4.0,40.0,11.0,0.0
5701,74.0,0.0,240.0,1.0,0.0
5702,77.0,2.0,240.0,1.0,0.0
5703,62.0,3.0,210.0,4.0,0.0
5704,50.0,1.0,210.0,5.0,0.0
5705,57.0,5.0,40.0,12.0,0.0
5706,45.0,3.0,40.0,13.0,0.0
5707,53.0,38.0,240.0,3.0,0.0
5708,62.0,0.0,240.0,3.0,0.0
5709,33.0,46.0,40.0,14.0,0.0
5710,69.0,2.0,40.0,10.0,0.0
5711,57.0,4.0,40.0,11.0,0.0
5712,57.0,5.0,40.0,12.0,0.0
5713,45.0,3.0,40.0,13.0,0.0
5714,33.0,46.0,40.0,14.0,0.0
5715,70.0,2.0,40.0,10.0,0.0
5716,58.0,4.0,40.0,11.0,0.0
5717,58.0,5.0,40.0,12.0,0.0
5718,46.0,3.0,40.0,13.0,0.0
5719,34.0,43.0,40.0,14.0,0.0
5720,70.0,1.0,40.0,10.0,0.0
5721,58.0,4.0,40.0,11.0,0.0
5722,58.0,5.0,40.0,12.0,0.0
5723,46.0,1.0,40.0,13.0,0.0
5724,34.0,8.0,40.0,14.0,0.0
5725,68.0,2.0,40.0,10.0,0.0
5726,89.0,1.0,240.0,0.0,0.0
5727,86.0,0.0,240.0,0.0,0.0
5728,62.0,0.0,240.0,4.0,0.0
5729,77.0,0.0,240.0,1.0,0.0
5730,56.0,4.0,40.0,11.0,0.0
5731,74.0,8.0,240.0,1.0,0.0
5732,50.0,5.0,240.0,5.0,0.0
5733,56.0,5.0,40.0,12.0,0.0
5734,44.0,3.0,40.0,13.0,0.0
5735,62.0,0.0,240.0,3.0,0.0
5736,53.0,1.0,240.0,3.0,0.0
5737,32.0,46.0,40.0,14.0,0.0
5738,68.0,2.0,40.0,10.0,0.0
5739,56.0,4.0,40.0,11.0,0.0
5740,56.0,5.0,40.0,12.0,0.0
5741,44.0,3.0,40.0,13.0,0.0
5742,32.0,117.0,40.0,14.0,0.0
5743,69.0,2.0,120.0,10.0,0.0
5744,57.0,0.0,120.0,11.0,0.0
5745,57.0,0.0,120.0,12.0,0.0
5746,45.0,3.0,120.0,13.0,0.0
5747,33.0,106.0,120.0,14.0,0.0
5748,73.0,120.0,60.0,10.0,0.0
5749,74.0,722.0,120.0,10.0,0.0
5750,65.0,4.0,120.0,11.0,0.0
5751,60.0,5.0,120.0,12.0,0.0
5752,57.0,3.0,120.0,13.0,0.0
5753,45.0,106.0,120.0,14.0,0.0
5754,74.0,120.0,60.0,10.0,0.0
5755,75.0,600.0,120.0,10.0,0.0
5756,74.0,1.0,60.0,10.0,0.0
5757,86.0,1.0,60.0,0.0,0.0
5758,62.0,0.0,60.0,11.0,0.0
5759,74.0,10.0,60.0,1.0,0.0
5760,62.0,48.0,60.0,3.0,0.0
5761,75.0,1.0,60.0,10.0,0.0
5762,87.0,1.0,60.0,0.0,0.0
5763,75.0,0.0,60.0,1.0,0.0
5764,63.0,10.0,60.0,11.0,0.0
5765,63.0,158.0,60.0,3.0,0.0
5766,57.0,1.0,60.0,10.0,0.0
5767,69.0,1.0,60.0,0.0,0.0
5768,57.0,4.0,60.0,11.0,0.0
5769,69.0,0.0,60.0,1.0,0.0
5770,57.0,5.0,60.0,12.0,0.0
5771,45.0,1.0,60.0,13.0,0.0
5772,45.0,2.0,60.0,3.0,0.0
5773,33.0,13.0,60.0,14.0,0.0
5774,58.0,2.0,20.0,10.0,0.0
5775,70.0,3.0,15.0,0.0,0.0
5776,58.0,1.0,30.0,11.0,0.0
5777,70.0,4.0,20.0,1.0,0.0
5778,58.0,6.0,20.0,12.0,0.0
5779,46.0,1.0,30.0,13.0,0.0
5780,46.0,0.0,30.0,3.0,0.0
5781,34.0,6.0,40.0,14.0,0.0
5782,69.0,7.0,15.0,0.0,0.0
5783,57.0,1.0,20.0,10.0,0.0
5784,69.0,4.0,20.0,1.0,0.0
5785,57.0,3.0,20.0,12.0,0.0
5786,57.0,0.0,30.0,11.0,0.0
5787,70.0,5.0,15.0,0.0,0.0
5788,58.0,2.0,20.0,10.0,0.0
5789,45.0,1.0,30.0,13.0,0.0
5790,45.0,8.0,30.0,3.0,0.0
5791,70.0,3.0,20.0,1.0,0.0
5792,58.0,5.0,20.0,12.0,0.0
5793,69.0,1.0,15.0,0.0,0.0
5794,33.0,3.0,40.0,14.0,0.0
5795,57.0,1.0,20.0,10.0,0.0
5796,58.0,2.0,30.0,11.0,0.0
5797,69.0,4.0,20.0,1.0,0.0
5798,70.0,1.0,15.0,0.0,0.0
5799,57.0,6.0,20.0,12.0,0.0
5800,46.0,1.0,30.0,13.0,0.0
5801,46.0,4.0,30.0,3.0,0.0
5802,58.0,1.0,20.0,10.0,0.0
5803,69.0,3.0,15.0,0.0,0.0
5804,70.0,0.0,20.0,1.0,0.0
5805,58.0,7.0,20.0,12.0,0.0
5806,57.0,0.0,30.0,11.0,0.0
5807,34.0,6.0,40.0,14.0,0.0
5808,70.0,7.0,15.0,0.0,0.0
5809,57.0,2.0,20.0,10.0,0.0
5810,45.0,1.0,30.0,13.0,0.0
5811,45.0,2.0,30.0,3.0,0.0
5812,69.0,4.0,20.0,1.0,0.0
5813,57.0,3.0,20.0,12.0,0.0
5814,69.0,2.0,15.0,0.0,0.0
5815,58.0,2.0,20.0,10.0,0.0
5816,70.0,3.0,20.0,1.0,0.0
5817,58.0,8.0,30.0,11.0,0.0
5818,58.0,6.0,20.0,12.0,0.0
5819,70.0,1.0,15.0,0.0,0.0
5820,46.0,0.0,30.0,13.0,0.0
5821,46.0,4.0,30.0,3.0,0.0
5822,57.0,1.0,20.0,10.0,0.0
5823,69.0,0.0,20.0,1.0,0.0
5824,69.0,1.0,15.0,0.0,0.0
5825,57.0,8.0,20.0,12.0,0.0
5826,57.0,0.0,30.0,11.0,0.0
5827,58.0,1.0,20.0,10.0,0.0
5828,70.0,1.0,20.0,0.0,0.0
5829,45.0,1.0,30.0,13.0,0.0
5830,70.0,2.0,20.0,1.0,0.0
5831,45.0,18.0,30.0,3.0,0.0
5832,58.0,5.0,20.0,12.0,0.0
5833,33.0,6.0,15.0,14.0,0.0
5834,55.0,1.0,30.0,10.0,0.0
5835,67.0,1.0,30.0,0.0,0.0
5836,55.0,0.0,30.0,11.0,0.0
5837,67.0,4.0,30.0,1.0,0.0
5838,55.0,5.0,30.0,12.0,0.0
5839,43.0,1.0,30.0,13.0,0.0
5840,43.0,2.0,30.0,3.0,0.0
5841,31.0,16.0,30.0,14.0,0.0
5842,57.0,1.0,30.0,10.0,0.0
5843,69.0,1.0,30.0,0.0,0.0
5844,69.0,0.0,30.0,1.0,0.0
5845,57.0,4.0,30.0,11.0,0.0
5846,57.0,5.0,30.0,12.0,0.0
5847,45.0,1.0,30.0,13.0,0.0
5848,45.0,2.0,30.0,3.0,0.0
5849,33.0,46.0,30.0,14.0,0.0
5850,60.0,1.0,60.0,10.0,0.0
5851,72.0,1.0,60.0,0.0,0.0
5852,72.0,4.0,60.0,1.0,0.0
5853,60.0,0.0,60.0,11.0,0.0
5854,60.0,5.0,60.0,12.0,0.0
5855,48.0,1.0,60.0,13.0,0.0
5856,48.0,2.0,60.0,3.0,0.0
5857,36.0,106.0,60.0,14.0,0.0
5858,53.0,1.0,60.0,10.0,0.0
5859,65.0,1.0,60.0,0.0,0.0
5860,65.0,0.0,60.0,1.0,0.0
5861,53.0,4.0,60.0,11.0,0.0
5862,53.0,5.0,60.0,12.0,0.0
5863,41.0,1.0,60.0,13.0,0.0
5864,41.0,2.0,60.0,3.0,0.0
5865,29.0,196.0,60.0,14.0,0.0
5866,65.0,60.0,30.0,10.0,0.0
5867,65.0,28.0,720.0,11.0,0.0
5868,63.0,5.0,120.0,12.0,0.0
5869,63.0,49.0,120.0,13.0,0.0
5870,65.0,36.0,30.0,10.0,0.0
5871,70.0,50.0,60.0,10.0,0.0
5872,62.0,5.0,240.0,12.0,0.0
5873,62.0,49.0,240.0,13.0,0.0
5874,65.0,40.0,60.0,10.0,0.0
5875,74.0,60.0,30.0,10.0,0.0
5876,74.0,36.0,30.0,10.0,0.0
5877,72.0,50.0,60.0,10.0,0.0
5878,57.0,5.0,240.0,12.0,0.0
5879,57.0,59.0,240.0,13.0,0.0
5880,65.0,40.0,60.0,10.0,0.0
5881,75.0,60.0,30.0,10.0,0.0
5882,75.0,26.0,30.0,10.0,0.0
5883,74.0,50.0,60.0,10.0,0.0
5884,58.0,5.0,240.0,12.0,0.0
5885,58.0,49.0,240.0,13.0,0.0
5886,65.0,12.0,60.0,10.0,0.0
5887,77.0,22.0,30.0,10.0,0.0
5888,62.0,38.0,60.0,11.0,0.0
5889,77.0,22.0,30.0,10.0,0.0
5890,62.0,14.0,60.0,11.0,0.0
5891,77.0,50.0,60.0,10.0,0.0
5892,67.0,4.0,240.0,11.0,0.0
5893,63.0,5.0,240.0,12.0,0.0
5894,51.0,49.0,240.0,13.0,0.0
5895,27.0,16.0,120.0,14.0,0.0
5896,75.0,24.0,60.0,10.0,0.0
5897,74.0,60.0,30.0,10.0,0.0
5898,72.0,32.0,30.0,10.0,0.0
5899,72.0,50.0,60.0,10.0,0.0
5900,65.0,4.0,240.0,11.0,0.0
5901,62.0,5.0,240.0,12.0,0.0
5902,53.0,49.0,240.0,13.0,0.0
5903,29.0,16.0,120.0,14.0,0.0
5904,70.0,24.0,60.0,10.0,0.0
5905,70.0,60.0,30.0,10.0,0.0
5906,70.0,32.0,30.0,10.0,0.0
5907,70.0,50.0,60.0,10.0,0.0
5908,63.0,4.0,240.0,11.0,0.0
5909,60.0,4.0,240.0,4.0,0.0
5910,53.0,54.0,240.0,5.0,0.0
5911,60.0,5.0,240.0,12.0,0.0
5912,41.0,1.0,240.0,13.0,0.0
5913,29.0,16.0,120.0,14.0,0.0
5914,69.0,24.0,60.0,10.0,0.0
5915,67.0,60.0,30.0,10.0,0.0
5916,69.0,22.0,30.0,10.0,0.0
5917,70.0,1.0,60.0,10.0,0.0
5918,82.0,1.0,60.0,0.0,0.0
5919,62.0,1.0,60.0,11.0,0.0
5920,62.0,0.0,60.0,1.0,0.0
5921,70.0,0.0,60.0,1.0,0.0
5922,58.0,0.0,60.0,4.0,0.0
5923,70.0,0.0,60.0,6.0,0.0
5924,58.0,2.0,60.0,6.0,0.0
5925,70.0,1.0,60.0,2.0,0.0
5926,62.0,0.0,60.0,2.0,0.0
5927,58.0,5.0,60.0,12.0,0.0
5928,50.0,0.0,60.0,5.0,0.0
5929,46.0,1.0,60.0,13.0,0.0
5930,58.0,1.0,60.0,3.0,0.0
5931,46.0,0.0,60.0,3.0,0.0
5932,46.0,1.0,60.0,15.0,0.0
5933,34.0,106.0,60.0,14.0,0.0
5934,63.0,0.0,60.0,10.0,0.0
5935,72.0,1.0,60.0,10.0,0.0
5936,81.0,0.0,60.0,0.0,0.0
5937,84.0,1.0,60.0,0.0,0.0
5938,65.0,0.0,60.0,1.0,0.0
5939,72.0,0.0,60.0,1.0,0.0
5940,57.0,1.0,60.0,11.0,0.0
5941,60.0,0.0,60.0,4.0,0.0
5942,53.0,2.0,60.0,6.0,0.0
5943,65.0,0.0,60.0,6.0,0.0
5944,65.0,1.0,60.0,2.0,0.0
5945,72.0,0.0,60.0,2.0,0.0
5946,53.0,0.0,60.0,5.0,0.0
5947,53.0,5.0,60.0,12.0,0.0
5948,41.0,1.0,60.0,13.0,0.0
5949,53.0,0.0,60.0,3.0,0.0
5950,41.0,1.0,60.0,3.0,0.0
5951,41.0,1.0,60.0,15.0,0.0
5952,29.0,286.0,60.0,14.0,0.0
5953,74.0,1.0,60.0,10.0,0.0
5954,86.0,1.0,60.0,0.0,0.0
5955,74.0,10.0,60.0,1.0,0.0
5956,62.0,0.0,60.0,11.0,0.0
5957,62.0,48.0,60.0,3.0,0.0
5958,75.0,1.0,60.0,10.0,0.0
5959,87.0,1.0,60.0,0.0,0.0
5960,63.0,0.0,60.0,11.0,0.0
5961,75.0,10.0,60.0,1.0,0.0
5962,63.0,158.0,60.0,3.0,0.0
5963,57.0,1.0,60.0,10.0,0.0
5964,69.0,1.0,60.0,0.0,0.0
5965,69.0,4.0,60.0,1.0,0.0
5966,57.0,0.0,60.0,11.0,0.0
5967,57.0,5.0,60.0,12.0,0.0
5968,45.0,1.0,60.0,13.0,0.0
5969,45.0,2.0,60.0,3.0,0.0
5970,33.0,13.0,60.0,14.0,0.0
5971,58.0,2.0,20.0,10.0,0.0
5972,70.0,3.0,15.0,0.0,0.0
5973,58.0,1.0,30.0,11.0,0.0
5974,70.0,4.0,20.0,1.0,0.0
5975,58.0,6.0,20.0,12.0,0.0
5976,46.0,1.0,30.0,13.0,0.0
5977,46.0,0.0,30.0,3.0,0.0
5978,34.0,6.0,40.0,14.0,0.0
5979,69.0,7.0,15.0,0.0,0.0
5980,57.0,1.0,20.0,10.0,0.0
5981,69.0,4.0,20.0,1.0,0.0
5982,57.0,3.0,20.0,12.0,0.0
5983,57.0,3.0,30.0,11.0,0.0
5984,70.0,5.0,15.0,0.0,0.0
5985,58.0,2.0,20.0,10.0,0.0
5986,45.0,1.0,30.0,13.0,0.0
5987,45.0,8.0,30.0,3.0,0.0
5988,70.0,0.0,20.0,1.0,0.0
5989,58.0,5.0,20.0,12.0,0.0
5990,69.0,1.0,15.0,0.0,0.0
5991,33.0,3.0,40.0,14.0,0.0
5992,57.0,1.0,20.0,10.0,0.0
5993,69.0,4.0,20.0,1.0,0.0
5994,58.0,2.0,30.0,11.0,0.0
5995,70.0,1.0,15.0,0.0,0.0
5996,57.0,6.0,20.0,12.0,0.0
5997,46.0,1.0,30.0,13.0,0.0
5998,46.0,4.0,30.0,3.0,0.0
5999,58.0,1.0,20.0,10.0,0.0
6000,69.0,3.0,15.0,0.0,0.0
6001,70.0,0.0,20.0,1.0,0.0
6002,58.0,7.0,20.0,12.0,0.0
6003,57.0,4.0,30.0,11.0,0.0
6004,34.0,6.0,40.0,14.0,0.0
6005,70.0,7.0,15.0,0.0,0.0
6006,57.0,2.0,20.0,10.0,0.0
6007,45.0,1.0,30.0,13.0,0.0
6008,69.0,0.0,20.0,1.0,0.0
6009,45.0,2.0,30.0,3.0,0.0
6010,57.0,3.0,20.0,12.0,0.0
6011,69.0,2.0,15.0,0.0,0.0
6012,58.0,2.0,20.0,10.0,0.0
6013,58.0,8.0,30.0,11.0,0.0
6014,70.0,3.0,20.0,1.0,0.0
6015,58.0,6.0,20.0,12.0,0.0
6016,70.0,1.0,15.0,0.0,0.0
6017,46.0,1.0,30.0,13.0,0.0
6018,46.0,4.0,30.0,3.0,0.0
6019,33.0,6.0,40.0,14.0,0.0
6020,57.0,1.0,20.0,10.0,0.0
6021,69.0,0.0,20.0,1.0,0.0
6022,69.0,0.0,15.0,0.0,0.0
6023,57.0,8.0,20.0,12.0,0.0
6024,57.0,0.0,30.0,11.0,0.0
6025,58.0,1.0,20.0,10.0,0.0
6026,70.0,1.0,20.0,0.0,0.0
6027,45.0,1.0,30.0,13.0,0.0
6028,70.0,2.0,20.0,1.0,0.0
6029,45.0,18.0,30.0,3.0,0.0
6030,58.0,5.0,20.0,12.0,0.0
6031,33.0,2.0,15.0,14.0,0.0
6032,55.0,1.0,30.0,10.0,0.0
6033,67.0,1.0,30.0,0.0,0.0
6034,55.0,0.0,30.0,11.0,0.0
6035,67.0,4.0,30.0,1.0,0.0
6036,55.0,5.0,30.0,12.0,0.0
6037,43.0,1.0,30.0,13.0,0.0
6038,43.0,2.0,30.0,3.0,0.0
6039,31.0,16.0,30.0,14.0,0.0
6040,57.0,1.0,30.0,10.0,0.0
6041,69.0,1.0,30.0,0.0,0.0
6042,69.0,0.0,30.0,1.0,0.0
6043,57.0,4.0,30.0,11.0,0.0
6044,57.0,5.0,30.0,12.0,0.0
6045,45.0,1.0,30.0,13.0,0.0
6046,45.0,2.0,30.0,3.0,0.0
6047,33.0,46.0,30.0,14.0,0.0
6048,60.0,1.0,60.0,10.0,0.0
6049,72.0,1.0,60.0,0.0,0.0
6050,60.0,0.0,60.0,11.0,0.0
6051,72.0,1.0,60.0,1.0,0.0
6052,53.0,0.0,60.0,4.0,0.0
6053,53.0,2.0,60.0,6.0,0.0
6054,65.0,0.0,60.0,6.0,0.0
6055,72.0,1.0,60.0,2.0,0.0
6056,60.0,0.0,60.0,2.0,0.0
6057,60.0,0.0,60.0,12.0,0.0
6058,41.0,5.0,60.0,5.0,0.0
6059,48.0,1.0,60.0,13.0,0.0
6060,48.0,1.0,60.0,3.0,0.0
6061,41.0,1.0,60.0,15.0,0.0
6062,36.0,106.0,60.0,14.0,0.0
6063,53.0,1.0,60.0,10.0,0.0
6064,65.0,1.0,60.0,0.0,0.0
6065,65.0,1.0,60.0,1.0,0.0
6066,53.0,0.0,60.0,11.0,0.0
6067,53.0,0.0,60.0,4.0,0.0
6068,53.0,2.0,60.0,6.0,0.0
6069,65.0,0.0,60.0,6.0,0.0
6070,53.0,1.0,60.0,2.0,0.0
6071,65.0,0.0,60.0,2.0,0.0
6072,41.0,5.0,60.0,5.0,0.0
6073,53.0,0.0,60.0,12.0,0.0
6074,41.0,1.0,60.0,13.0,0.0
6075,41.0,1.0,60.0,3.0,0.0
6076,41.0,1.0,60.0,15.0,0.0
6077,29.0,196.0,60.0,14.0,0.0
6078,65.0,60.0,30.0,10.0,0.0
6079,65.0,38.0,720.0,11.0,0.0
6080,63.0,5.0,120.0,12.0,0.0
6081,63.0,49.0,120.0,13.0,0.0
6082,65.0,36.0,30.0,10.0,0.0
6083,70.0,50.0,60.0,10.0,0.0
6084,62.0,5.0,240.0,12.0,0.0
6085,62.0,49.0,240.0,13.0,0.0
6086,65.0,40.0,60.0,10.0,0.0
6087,74.0,60.0,30.0,10.0,0.0
6088,74.0,36.0,30.0,10.0,0.0
6089,72.0,50.0,60.0,10.0,0.0
6090,57.0,5.0,240.0,12.0,0.0
6091,57.0,59.0,240.0,13.0,0.0
6092,65.0,40.0,60.0,10.0,0.0
6093,75.0,60.0,30.0,10.0,0.0
6094,75.0,26.0,30.0,10.0,0.0
6095,74.0,50.0,60.0,10.0,0.0
6096,58.0,5.0,240.0,12.0,0.0
6097,58.0,49.0,240.0,13.0,0.0
6098,65.0,2.0,60.0,10.0,0.0
6099,77.0,22.0,30.0,10.0,0.0
6100,62.0,38.0,60.0,11.0,0.0
6101,77.0,22.0,30.0,10.0,0.0
6102,62.0,14.0,60.0,11.0,0.0
6103,77.0,50.0,60.0,10.0,0.0
6104,67.0,4.0,240.0,11.0,0.0
6105,63.0,5.0,240.0,12.0,0.0
6106,51.0,49.0,240.0,13.0,0.0
6107,27.0,16.0,120.0,14.0,0.0
6108,75.0,24.0,60.0,10.0,0.0
6109,74.0,60.0,30.0,10.0,0.0
6110,72.0,32.0,30.0,10.0,0.0
6111,72.0,50.0,60.0,10.0,0.0
6112,65.0,4.0,240.0,11.0,0.0
6113,62.0,5.0,240.0,12.0,0.0
6114,53.0,49.0,240.0,13.0,0.0
6115,29.0,16.0,120.0,14.0,0.0
6116,70.0,24.0,60.0,10.0,0.0
6117,70.0,60.0,30.0,10.0,0.0
6118,70.0,32.0,30.0,10.0,0.0
6119,70.0,50.0,60.0,10.0,0.0
6120,60.0,3.0,240.0,4.0,0.0
6121,63.0,4.0,240.0,11.0,0.0
6122,69.0,1.0,240.0,2.0,0.0
6123,63.0,0.0,240.0,2.0,0.0
6124,53.0,114.0,240.0,5.0,0.0
6125,60.0,5.0,240.0,12.0,0.0
6126,41.0,1.0,240.0,13.0,0.0
6127,29.0,16.0,120.0,14.0,0.0
6128,69.0,24.0,60.0,10.0,0.0
6129,67.0,60.0,30.0,10.0,0.0
6130,69.0,22.0,30.0,10.0,0.0
6131,70.0,2.0,120.0,10.0,0.0
6132,58.0,0.0,120.0,10.0,0.0
6133,62.0,3.0,120.0,11.0,0.0
6134,58.0,1.0,960.0,4.0,0.0
6135,70.0,3.0,960.0,6.0,0.0
6136,58.0,0.0,960.0,6.0,0.0
6137,70.0,1.0,120.0,2.0,0.0
6138,62.0,0.0,120.0,2.0,0.0
6139,58.0,5.0,120.0,12.0,0.0
6140,46.0,114.0,960.0,5.0,0.0
6141,46.0,2.0,120.0,13.0,0.0
6142,46.0,1.0,120.0,15.0,0.0
6143,34.0,107.0,120.0,14.0,0.0
6144,81.0,1.0,60.0,0.0,0.0
6145,69.0,10.0,60.0,1.0,0.0
6146,57.0,49.0,60.0,3.0,0.0
6147,82.0,1.0,60.0,0.0,0.0
6148,70.0,10.0,60.0,1.0,0.0
6149,58.0,138.0,60.0,3.0,0.0
6150,58.0,2.0,30.0,10.0,0.0
6151,58.0,4.0,30.0,11.0,0.0
6152,50.0,5.0,30.0,12.0,0.0
6153,50.0,3.0,30.0,13.0,0.0
6154,38.0,76.0,30.0,14.0,0.0
6155,60.0,2.0,60.0,10.0,0.0
6156,60.0,4.0,60.0,11.0,0.0
6157,51.0,5.0,60.0,12.0,0.0
6158,51.0,3.0,60.0,13.0,0.0
6159,39.0,106.0,60.0,14.0,0.0
6160,62.0,2.0,60.0,10.0,0.0
6161,62.0,4.0,60.0,11.0,0.0
6162,53.0,5.0,60.0,12.0,0.0
6163,53.0,3.0,60.0,13.0,0.0
6164,41.0,106.0,60.0,14.0,0.0
6165,63.0,2.0,60.0,10.0,0.0
6166,63.0,4.0,60.0,11.0,0.0
6167,55.0,5.0,60.0,12.0,0.0
6168,55.0,3.0,60.0,13.0,0.0
6169,43.0,106.0,60.0,14.0,0.0
6170,61.0,2.0,60.0,10.0,0.0
6171,61.0,4.0,60.0,11.0,0.0
6172,52.0,5.0,60.0,12.0,0.0
6173,52.0,3.0,60.0,13.0,0.0
6174,40.0,48.0,60.0,14.0,0.0
6175,62.0,2.0,120.0,10.0,0.0
6176,62.0,4.0,120.0,11.0,0.0
6177,70.0,0.0,960.0,6.0,0.0
6178,53.0,5.0,120.0,12.0,0.0
6179,46.0,55.0,960.0,5.0,0.0
6180,53.0,2.0,120.0,13.0,0.0
6181,46.0,1.0,120.0,15.0,0.0
6182,41.0,107.0,120.0,14.0,0.0
6183,81.0,1.0,60.0,0.0,0.0
6184,69.0,10.0,60.0,1.0,0.0
6185,57.0,49.0,60.0,3.0,0.0
6186,82.0,1.0,60.0,0.0,0.0
6187,70.0,10.0,60.0,1.0,0.0
6188,58.0,138.0,60.0,3.0,0.0
6189,62.0,2.0,30.0,10.0,0.0
6190,62.0,4.0,30.0,11.0,0.0
6191,54.0,5.0,30.0,12.0,0.0
6192,54.0,3.0,30.0,13.0,0.0
6193,42.0,76.0,30.0,14.0,0.0
6194,63.0,2.0,60.0,10.0,0.0
6195,63.0,4.0,60.0,11.0,0.0
6196,55.0,5.0,60.0,12.0,0.0
6197,55.0,3.0,60.0,13.0,0.0
6198,43.0,106.0,60.0,14.0,0.0
6199,65.0,2.0,60.0,10.0,0.0
6200,53.0,4.0,60.0,11.0,0.0
6201,50.0,5.0,60.0,12.0,0.0
6202,50.0,3.0,60.0,13.0,0.0
6203,38.0,106.0,60.0,14.0,0.0
6204,67.0,2.0,60.0,10.0,0.0
6205,55.0,4.0,60.0,11.0,0.0
6206,51.0,5.0,60.0,12.0,0.0
6207,51.0,3.0,60.0,13.0,0.0
6208,39.0,106.0,60.0,14.0,0.0
6209,69.0,2.0,60.0,10.0,0.0
6210,57.0,4.0,60.0,11.0,0.0
6211,48.0,5.0,60.0,12.0,0.0
6212,48.0,3.0,60.0,13.0,0.0
6213,36.0,48.0,60.0,14.0,0.0
6214,70.0,1.0,120.0,10.0,0.0
6215,82.0,1.0,60.0,0.0,0.0
6216,58.0,0.0,120.0,11.0,0.0
6217,70.0,10.0,60.0,1.0,0.0
6218,58.0,1.0,15.0,4.0,0.0
6219,58.0,3.0,15.0,6.0,0.0
6220,70.0,3.0,960.0,6.0,0.0
6221,46.0,55.0,960.0,5.0,0.0
6222,46.0,5.0,120.0,12.0,0.0
6223,46.0,1.0,120.0,13.0,0.0
6224,58.0,48.0,60.0,3.0,0.0
6225,46.0,1.0,120.0,15.0,0.0
6226,34.0,47.0,120.0,14.0,0.0
6227,81.0,1.0,60.0,0.0,0.0
6228,69.0,4.0,60.0,1.0,0.0
6229,57.0,1.0,60.0,3.0,0.0
6230,82.0,1.0,60.0,0.0,0.0
6231,70.0,10.0,60.0,1.0,0.0
6232,58.0,44.0,60.0,3.0,0.0
6233,81.0,1.0,60.0,0.0,0.0
6234,69.0,10.0,60.0,1.0,0.0
6235,57.0,54.0,60.0,3.0,0.0
6236,82.0,1.0,60.0,0.0,0.0
6237,70.0,10.0,60.0,1.0,0.0
6238,58.0,98.0,60.0,3.0,0.0
6239,70.0,2.0,60.0,10.0,0.0
6240,58.0,14.0,60.0,11.0,0.0
6241,50.0,5.0,60.0,12.0,0.0
6242,50.0,3.0,60.0,13.0,0.0
6243,38.0,36.0,60.0,14.0,0.0
6244,70.0,2.0,60.0,10.0,0.0
6245,58.0,58.0,60.0,11.0,0.0
6246,72.0,2.0,60.0,10.0,0.0
6247,60.0,14.0,60.0,11.0,0.0
6248,51.0,5.0,60.0,12.0,0.0
6249,51.0,3.0,60.0,13.0,0.0
6250,39.0,36.0,60.0,14.0,0.0
6251,72.0,2.0,60.0,10.0,0.0
6252,60.0,58.0,60.0,11.0,0.0
6253,74.0,2.0,60.0,10.0,0.0
6254,62.0,14.0,60.0,11.0,0.0
6255,53.0,5.0,60.0,12.0,0.0
6256,53.0,3.0,60.0,13.0,0.0
6257,41.0,36.0,60.0,14.0,0.0
6258,74.0,2.0,60.0,10.0,0.0
6259,62.0,58.0,60.0,11.0,0.0
6260,75.0,2.0,60.0,10.0,0.0
6261,63.0,14.0,60.0,11.0,0.0
6262,55.0,5.0,60.0,12.0,0.0
6263,55.0,3.0,60.0,13.0,0.0
6264,43.0,36.0,60.0,14.0,0.0
6265,75.0,2.0,60.0,10.0,0.0
6266,63.0,58.0,60.0,11.0,0.0
6267,73.0,2.0,60.0,10.0,0.0
6268,61.0,14.0,60.0,11.0,0.0
6269,52.0,5.0,60.0,12.0,0.0
6270,52.0,3.0,60.0,13.0,0.0
6271,40.0,36.0,60.0,14.0,0.0
6272,73.0,2.0,60.0,10.0,0.0
6273,61.0,10.0,60.0,11.0,0.0
6274,74.0,1.0,120.0,10.0,0.0
6275,82.0,1.0,60.0,0.0,0.0
6276,62.0,4.0,120.0,11.0,0.0
6277,70.0,10.0,60.0,1.0,0.0
6278,58.0,1.0,360.0,4.0,0.0
6279,58.0,0.0,15.0,6.0,0.0
6280,53.0,5.0,120.0,12.0,0.0
6281,46.0,44.0,360.0,5.0,0.0
6282,53.0,1.0,120.0,13.0,0.0
6283,58.0,48.0,60.0,3.0,0.0
6284,46.0,1.0,120.0,15.0,0.0
6285,41.0,47.0,120.0,14.0,0.0
6286,81.0,1.0,60.0,0.0,0.0
6287,69.0,0.0,60.0,1.0,0.0
6288,57.0,1.0,60.0,3.0,0.0
6289,82.0,1.0,60.0,0.0,0.0
6290,70.0,10.0,60.0,1.0,0.0
6291,58.0,44.0,60.0,3.0,0.0
6292,81.0,1.0,60.0,0.0,0.0
6293,69.0,10.0,60.0,1.0,0.0
6294,57.0,54.0,60.0,3.0,0.0
6295,82.0,1.0,60.0,0.0,0.0
6296,70.0,10.0,60.0,1.0,0.0
6297,58.0,50.0,60.0,3.0,0.0
6298,74.0,2.0,60.0,10.0,0.0
6299,82.0,1.0,60.0,0.0,0.0
6300,74.0,0.0,60.0,0.0,0.0
6301,58.0,0.0,60.0,4.0,0.0
6302,62.0,4.0,60.0,11.0,0.0
6303,74.0,0.0,60.0,1.0,0.0
6304,70.0,1.0,60.0,1.0,0.0
6305,70.0,3.0,15.0,6.0,0.0
6306,58.0,2.0,60.0,6.0,0.0
6307,62.0,1.0,60.0,2.0,0.0
6308,70.0,0.0,60.0,2.0,0.0
6309,56.0,5.0,60.0,12.0,0.0
6310,46.0,5.0,60.0,5.0,0.0
6311,56.0,1.0,60.0,13.0,0.0
6312,44.0,2.0,60.0,3.0,0.0
6313,56.0,0.0,60.0,3.0,0.0
6314,46.0,0.0,40.0,15.0,0.0
6315,44.0,36.0,60.0,14.0,0.0
6316,74.0,2.0,60.0,10.0,0.0
6317,62.0,4.0,60.0,11.0,0.0
6318,56.0,5.0,60.0,12.0,0.0
6319,46.0,49.0,40.0,15.0,0.0
6320,75.0,2.0,60.0,10.0,0.0
6321,82.0,0.0,60.0,0.0,0.0
6322,75.0,0.0,60.0,0.0,0.0
6323,70.0,0.0,60.0,1.0,0.0
6324,58.0,1.0,60.0,4.0,0.0
6325,75.0,0.0,60.0,1.0,0.0
6326,63.0,4.0,60.0,11.0,0.0
6327,58.0,0.0,60.0,6.0,0.0
6328,70.0,2.0,60.0,6.0,0.0
6329,63.0,0.0,60.0,2.0,0.0
6330,70.0,1.0,60.0,2.0,0.0
6331,55.0,5.0,60.0,12.0,0.0
6332,46.0,5.0,60.0,5.0,0.0
6333,55.0,1.0,60.0,13.0,0.0
6334,55.0,0.0,60.0,3.0,0.0
6335,43.0,2.0,60.0,3.0,0.0
6336,46.0,1.0,40.0,15.0,0.0
6337,43.0,36.0,60.0,14.0,0.0
6338,75.0,2.0,60.0,10.0,0.0
6339,63.0,4.0,60.0,11.0,0.0
6340,55.0,5.0,60.0,12.0,0.0
6341,46.0,49.0,40.0,15.0,0.0
6342,74.0,2.0,60.0,10.0,0.0
6343,82.0,1.0,60.0,0.0,0.0
6344,74.0,0.0,60.0,0.0,0.0
6345,62.0,4.0,60.0,11.0,0.0
6346,70.0,0.0,60.0,1.0,0.0
6347,74.0,1.0,60.0,1.0,0.0
6348,58.0,0.0,60.0,4.0,0.0
6349,58.0,2.0,60.0,6.0,0.0
6350,70.0,0.0,60.0,6.0,0.0
6351,62.0,1.0,60.0,2.0,0.0
6352,70.0,0.0,60.0,2.0,0.0
6353,56.0,5.0,60.0,12.0,0.0
6354,46.0,5.0,60.0,5.0,0.0
6355,56.0,1.0,60.0,13.0,0.0
6356,56.0,2.0,60.0,3.0,0.0
6357,44.0,0.0,60.0,3.0,0.0
6358,46.0,0.0,40.0,15.0,0.0
6359,44.0,36.0,60.0,14.0,0.0
6360,74.0,2.0,60.0,10.0,0.0
6361,62.0,4.0,60.0,11.0,0.0
6362,56.0,5.0,60.0,12.0,0.0
6363,46.0,49.0,40.0,15.0,0.0
6364,75.0,2.0,60.0,10.0,0.0
6365,75.0,0.0,60.0,0.0,0.0
6366,82.0,1.0,60.0,0.0,0.0
6367,70.0,0.0,60.0,1.0,0.0
6368,75.0,0.0,60.0,1.0,0.0
6369,58.0,1.0,60.0,4.0,0.0
6370,63.0,4.0,60.0,11.0,0.0
6371,58.0,0.0,60.0,6.0,0.0
6372,70.0,2.0,60.0,6.0,0.0
6373,63.0,1.0,60.0,2.0,0.0
6374,70.0,0.0,60.0,2.0,0.0
6375,55.0,5.0,60.0,12.0,0.0
6376,46.0,5.0,60.0,5.0,0.0
6377,55.0,1.0,60.0,13.0,0.0
6378,55.0,2.0,60.0,3.0,0.0
6379,43.0,0.0,60.0,3.0,0.0
6380,46.0,0.0,40.0,15.0,0.0
6381,43.0,36.0,60.0,14.0,0.0
6382,75.0,2.0,60.0,10.0,0.0
6383,63.0,4.0,60.0,11.0,0.0
6384,55.0,5.0,60.0,12.0,0.0
6385,46.0,49.0,40.0,15.0,0.0
6386,76.0,2.0,60.0,10.0,0.0
6387,76.0,1.0,60.0,0.0,0.0
6388,82.0,0.0,60.0,0.0,0.0
6389,76.0,0.0,60.0,1.0,0.0
6390,70.0,0.0,60.0,1.0,0.0
6391,64.0,4.0,60.0,11.0,0.0
6392,58.0,1.0,60.0,4.0,0.0
6393,70.0,2.0,60.0,6.0,0.0
6394,58.0,0.0,60.0,6.0,0.0
6395,70.0,1.0,60.0,2.0,0.0
6396,64.0,0.0,60.0,2.0,0.0
6397,46.0,5.0,60.0,5.0,0.0
6398,54.0,5.0,60.0,12.0,0.0
6399,54.0,1.0,60.0,13.0,0.0
6400,42.0,0.0,60.0,3.0,0.0
6401,54.0,2.0,60.0,3.0,0.0
6402,46.0,0.0,40.0,15.0,0.0
6403,42.0,36.0,60.0,14.0,0.0
6404,76.0,2.0,60.0,10.0,0.0
6405,64.0,4.0,60.0,11.0,0.0
6406,54.0,5.0,60.0,12.0,0.0
6407,46.0,49.0,40.0,15.0,0.0
6408,77.0,2.0,60.0,10.0,0.0
6409,81.0,1.0,120.0,0.0,0.0
6410,77.0,0.0,120.0,0.0,0.0
6411,69.0,0.0,120.0,1.0,0.0
6412,65.0,1.0,120.0,4.0,0.0
6413,77.0,0.0,120.0,1.0,0.0
6414,65.0,4.0,60.0,11.0,0.0
6415,53.0,1.0,120.0,6.0,0.0
6416,65.0,0.0,120.0,6.0,0.0
6417,65.0,1.0,120.0,2.0,0.0
6418,69.0,0.0,120.0,2.0,0.0
6419,53.0,6.0,120.0,5.0,0.0
6420,53.0,5.0,60.0,12.0,0.0
6421,41.0,3.0,60.0,13.0,0.0
6422,53.0,0.0,120.0,3.0,0.0
6423,41.0,1.0,120.0,3.0,0.0
6424,41.0,37.0,120.0,15.0,0.0
6425,29.0,46.0,60.0,14.0,0.0
6426,77.0,2.0,60.0,10.0,0.0
6427,60.0,4.0,60.0,11.0,0.0
6428,57.0,5.0,60.0,12.0,0.0
6429,53.0,0.0,60.0,13.0,0.0
6430,41.0,1.0,60.0,14.0,0.0
6431,77.0,2.0,60.0,10.0,0.0
6432,60.0,4.0,60.0,11.0,0.0
6433,57.0,5.0,60.0,12.0,0.0
6434,53.0,3.0,60.0,13.0,0.0
6435,41.0,46.0,60.0,14.0,0.0
6436,77.0,2.0,60.0,10.0,0.0
6437,60.0,4.0,60.0,11.0,0.0
6438,57.0,5.0,60.0,12.0,0.0
6439,53.0,3.0,60.0,13.0,0.0
6440,41.0,46.0,60.0,14.0,0.0
6441,81.0,2.0,60.0,10.0,0.0
6442,72.0,2.0,240.0,1.0,0.0
6443,63.0,4.0,60.0,11.0,0.0
6444,75.0,0.0,240.0,1.0,0.0
6445,60.0,5.0,60.0,12.0,0.0
6446,53.0,3.0,60.0,13.0,0.0
6447,63.0,0.0,240.0,3.0,0.0
6448,60.0,38.0,240.0,3.0,0.0
6449,41.0,46.0,60.0,14.0,0.0
6450,77.0,2.0,60.0,10.0,0.0
6451,63.0,4.0,60.0,11.0,0.0
6452,60.0,5.0,60.0,12.0,0.0
6453,53.0,3.0,60.0,13.0,0.0
6454,41.0,46.0,60.0,14.0,0.0
6455,77.0,2.0,60.0,10.0,0.0
6456,63.0,4.0,60.0,11.0,0.0
6457,60.0,5.0,60.0,12.0,0.0
6458,53.0,3.0,60.0,13.0,0.0
6459,41.0,46.0,60.0,14.0,0.0
6460,77.0,2.0,60.0,10.0,0.0
6461,63.0,4.0,60.0,11.0,0.0
6462,60.0,5.0,60.0,12.0,0.0
6463,53.0,1.0,60.0,13.0,0.0
6464,41.0,8.0,60.0,14.0,0.0
6465,82.0,2.0,60.0,10.0,0.0
6466,74.0,2.0,240.0,1.0,0.0
6467,62.0,4.0,60.0,11.0,0.0
6468,70.0,4.0,240.0,1.0,0.0
6469,53.0,1.0,120.0,6.0,0.0
6470,65.0,0.0,120.0,6.0,0.0
6471,58.0,5.0,60.0,12.0,0.0
6472,53.0,3.0,60.0,13.0,0.0
6473,62.0,38.0,240.0,3.0,0.0
6474,58.0,5.0,240.0,3.0,0.0
6475,41.0,37.0,120.0,15.0,0.0
6476,41.0,46.0,60.0,14.0,0.0
6477,77.0,2.0,60.0,10.0,0.0
6478,62.0,4.0,60.0,11.0,0.0
6479,58.0,5.0,60.0,12.0,0.0
6480,53.0,2.0,60.0,13.0,0.0
6481,41.0,9.0,60.0,14.0,0.0
6482,77.0,2.0,60.0,10.0,0.0
6483,62.0,4.0,60.0,11.0,0.0
6484,58.0,5.0,60.0,12.0,0.0
6485,53.0,3.0,60.0,13.0,0.0
6486,41.0,46.0,60.0,14.0,0.0
6487,77.0,2.0,60.0,10.0,0.0
6488,62.0,4.0,60.0,11.0,0.0
6489,58.0,1.0,60.0,12.0,0.0
6490,53.0,1.0,60.0,13.0,0.0
6491,41.0,3.0,60.0,14.0,0.0
6492,82.0,2.0,60.0,10.0,0.0
6493,70.0,2.0,240.0,1.0,0.0
6494,61.0,4.0,60.0,11.0,0.0
6495,73.0,0.0,240.0,1.0,0.0
6496,58.0,5.0,60.0,12.0,0.0
6497,53.0,3.0,60.0,13.0,0.0
6498,58.0,0.0,240.0,3.0,0.0
6499,61.0,38.0,240.0,3.0,0.0
6500,41.0,46.0,60.0,14.0,0.0
6501,76.0,2.0,60.0,10.0,0.0
6502,61.0,4.0,60.0,11.0,0.0
6503,58.0,5.0,60.0,12.0,0.0
6504,53.0,3.0,60.0,13.0,0.0
6505,41.0,46.0,60.0,14.0,0.0
6506,76.0,2.0,60.0,10.0,0.0
6507,61.0,4.0,60.0,11.0,0.0
6508,58.0,5.0,60.0,12.0,0.0
6509,53.0,3.0,60.0,13.0,0.0
6510,41.0,46.0,60.0,14.0,0.0
6511,76.0,2.0,60.0,10.0,0.0
6512,61.0,4.0,60.0,11.0,0.0
6513,58.0,5.0,60.0,12.0,0.0
6514,53.0,1.0,60.0,13.0,0.0
6515,41.0,8.0,60.0,14.0,0.0
6516,79.0,2.0,60.0,10.0,0.0
6517,60.0,4.0,60.0,11.0,0.0
6518,65.0,4.0,1050.0,4.0,0.0
6519,72.0,2.0,240.0,1.0,0.0
6520,69.0,0.0,240.0,1.0,0.0
6521,65.0,0.0,120.0,6.0,0.0
6522,53.0,1.0,120.0,6.0,0.0
6523,57.0,5.0,60.0,12.0,0.0
6524,53.0,8.0,1050.0,5.0,0.0
6525,53.0,3.0,60.0,13.0,0.0
6526,57.0,0.0,240.0,3.0,0.0
6527,41.0,37.0,120.0,15.0,0.0
6528,41.0,46.0,60.0,14.0,0.0
6529,77.0,2.0,60.0,10.0,0.0
6530,72.0,4.0,60.0,11.0,0.0
6531,57.0,5.0,60.0,12.0,0.0
6532,53.0,2.0,60.0,13.0,0.0
6533,41.0,9.0,60.0,14.0,0.0
6534,77.0,2.0,60.0,10.0,0.0
6535,72.0,4.0,60.0,11.0,0.0
6536,57.0,5.0,60.0,12.0,0.0
6537,53.0,3.0,60.0,13.0,0.0
6538,41.0,46.0,60.0,14.0,0.0
6539,77.0,2.0,60.0,10.0,0.0
6540,72.0,4.0,60.0,11.0,0.0
6541,57.0,5.0,60.0,12.0,0.0
6542,53.0,1.0,60.0,13.0,0.0
6543,41.0,8.0,60.0,14.0,0.0
6544,81.0,2.0,60.0,10.0,0.0
6545,77.0,1.0,480.0,0.0,0.0
6546,81.0,1.0,240.0,0.0,0.0
6547,75.0,4.0,60.0,11.0,0.0
6548,75.0,2.0,240.0,1.0,0.0
6549,72.0,0.0,240.0,1.0,0.0
6550,77.0,2.0,480.0,2.0,0.0
6551,65.0,0.0,480.0,2.0,0.0
6552,60.0,5.0,60.0,12.0,0.0
6553,53.0,3.0,60.0,13.0,0.0
6554,60.0,38.0,15.0,3.0,0.0
6555,63.0,38.0,240.0,3.0,0.0
6556,41.0,46.0,60.0,14.0,0.0
6557,77.0,2.0,60.0,10.0,0.0
6558,75.0,4.0,60.0,11.0,0.0
6559,60.0,5.0,60.0,12.0,0.0
6560,53.0,3.0,60.0,13.0,0.0
6561,41.0,46.0,60.0,14.0,0.0
6562,77.0,2.0,60.0,10.0,0.0
6563,75.0,4.0,60.0,11.0,0.0
6564,60.0,5.0,60.0,12.0,0.0
6565,53.0,3.0,60.0,13.0,0.0
6566,41.0,46.0,60.0,14.0,0.0
6567,77.0,2.0,60.0,10.0,0.0
6568,75.0,4.0,60.0,11.0,0.0
6569,60.0,5.0,60.0,12.0,0.0
6570,53.0,0.0,60.0,13.0,0.0
6571,41.0,8.0,60.0,14.0,0.0
6572,82.0,2.0,60.0,10.0,0.0
6573,82.0,1.0,240.0,0.0,0.0
6574,74.0,4.0,60.0,11.0,0.0
6575,74.0,2.0,240.0,1.0,0.0
6576,70.0,4.0,240.0,1.0,0.0
6577,65.0,1.0,120.0,6.0,0.0
6578,53.0,0.0,120.0,6.0,0.0
6579,58.0,5.0,60.0,12.0,0.0
6580,53.0,3.0,60.0,13.0,0.0
6581,62.0,38.0,240.0,3.0,0.0
6582,58.0,5.0,240.0,3.0,0.0
6583,41.0,37.0,120.0,15.0,0.0
6584,41.0,46.0,60.0,14.0,0.0
6585,77.0,2.0,60.0,10.0,0.0
6586,74.0,4.0,60.0,11.0,0.0
6587,58.0,5.0,60.0,12.0,0.0
6588,53.0,2.0,60.0,13.0,0.0
6589,41.0,9.0,60.0,14.0,0.0
6590,77.0,2.0,60.0,10.0,0.0
6591,74.0,4.0,60.0,11.0,0.0
6592,58.0,5.0,60.0,12.0,0.0
6593,53.0,3.0,60.0,13.0,0.0
6594,41.0,46.0,60.0,14.0,0.0
6595,77.0,2.0,60.0,10.0,0.0
6596,74.0,4.0,60.0,11.0,0.0
6597,58.0,0.0,60.0,12.0,0.0
6598,53.0,0.0,60.0,13.0,0.0
6599,41.0,1.0,60.0,14.0,0.0
6600,82.0,2.0,60.0,10.0,0.0
6601,82.0,1.0,240.0,0.0,0.0
6602,76.0,0.0,240.0,0.0,0.0
6603,70.0,2.0,240.0,1.0,0.0
6604,73.0,4.0,60.0,11.0,0.0
6605,73.0,0.0,240.0,1.0,0.0
6606,76.0,0.0,240.0,2.0,0.0
6607,64.0,7.0,240.0,2.0,0.0
6608,58.0,5.0,60.0,12.0,0.0
6609,53.0,3.0,60.0,13.0,0.0
6610,61.0,64.0,240.0,3.0,0.0
6611,58.0,0.0,240.0,3.0,0.0
6612,41.0,46.0,60.0,14.0,0.0
6613,76.0,2.0,60.0,10.0,0.0
6614,73.0,4.0,60.0,11.0,0.0
6615,58.0,5.0,60.0,12.0,0.0
6616,53.0,3.0,60.0,13.0,0.0
6617,41.0,46.0,60.0,14.0,0.0
6618,76.0,2.0,60.0,10.0,0.0
6619,73.0,4.0,60.0,11.0,0.0
6620,58.0,5.0,60.0,12.0,0.0
6621,53.0,3.0,60.0,13.0,0.0
6622,41.0,46.0,60.0,14.0,0.0
6623,76.0,2.0,60.0,10.0,0.0
6624,73.0,4.0,60.0,11.0,0.0
6625,58.0,5.0,60.0,12.0,0.0
6626,53.0,0.0,60.0,13.0,0.0
6627,41.0,1.0,60.0,14.0,0.0
6628,77.0,1.0,90.0,10.0,0.0
6629,77.0,1.0,90.0,0.0,0.0
6630,81.0,0.0,90.0,0.0,0.0
6631,72.0,0.0,90.0,11.0,0.0
6632,69.0,0.0,90.0,1.0,0.0
6633,72.0,1.0,90.0,1.0,0.0
6634,53.0,0.0,90.0,6.0,0.0
6635,65.0,2.0,90.0,6.0,0.0
6636,77.0,1.0,90.0,2.0,0.0
6637,65.0,0.0,90.0,2.0,0.0
6638,53.0,5.0,90.0,12.0,0.0
6639,53.0,1.0,90.0,13.0,0.0
6640,60.0,0.0,90.0,3.0,0.0
6641,57.0,2.0,90.0,3.0,0.0
6642,41.0,87.0,90.0,15.0,0.0
6643,41.0,7.0,90.0,14.0,0.0
6644,53.0,1.0,90.0,10.0,0.0
6645,65.0,1.0,90.0,0.0,0.0
6646,77.0,0.0,90.0,0.0,0.0
6647,65.0,0.0,90.0,1.0,0.0
6648,53.0,0.0,90.0,4.0,0.0
6649,53.0,1.0,90.0,11.0,0.0
6650,65.0,0.0,90.0,6.0,0.0
6651,53.0,2.0,90.0,6.0,0.0
6652,53.0,0.0,90.0,2.0,0.0
6653,65.0,1.0,90.0,2.0,0.0
6654,53.0,0.0,90.0,12.0,0.0
6655,53.0,5.0,90.0,5.0,0.0
6656,41.0,1.0,90.0,13.0,0.0
6657,41.0,0.0,90.0,3.0,0.0
6658,53.0,2.0,90.0,3.0,0.0
6659,41.0,87.0,90.0,15.0,0.0
6660,29.0,19.0,90.0,14.0,0.0
6661,53.0,1.0,90.0,10.0,0.0
6662,65.0,0.0,90.0,0.0,0.0
6663,77.0,1.0,90.0,0.0,0.0
6664,53.0,0.0,90.0,11.0,0.0
6665,65.0,0.0,90.0,1.0,0.0
6666,53.0,1.0,90.0,4.0,0.0
6667,65.0,2.0,90.0,6.0,0.0
6668,53.0,0.0,90.0,6.0,0.0
6669,53.0,0.0,90.0,2.0,0.0
6670,65.0,1.0,90.0,2.0,0.0
6671,53.0,0.0,90.0,5.0,0.0
6672,53.0,5.0,90.0,12.0,0.0
6673,41.0,1.0,90.0,13.0,0.0
6674,53.0,0.0,90.0,3.0,0.0
6675,41.0,2.0,90.0,3.0,0.0
6676,41.0,87.0,90.0,15.0,0.0
6677,29.0,19.0,90.0,14.0,0.0
6678,53.0,1.0,90.0,10.0,0.0
6679,65.0,0.0,90.0,0.0,0.0
6680,77.0,1.0,90.0,0.0,0.0
6681,53.0,0.0,90.0,4.0,0.0
6682,65.0,1.0,90.0,1.0,0.0
6683,53.0,0.0,90.0,11.0,0.0
6684,65.0,2.0,90.0,6.0,0.0
6685,53.0,0.0,90.0,6.0,0.0
6686,53.0,0.0,90.0,2.0,0.0
6687,65.0,1.0,90.0,2.0,0.0
6688,53.0,0.0,90.0,12.0,0.0
6689,53.0,5.0,90.0,5.0,0.0
6690,41.0,1.0,90.0,13.0,0.0
6691,41.0,0.0,90.0,3.0,0.0
6692,53.0,2.0,90.0,3.0,0.0
6693,41.0,131.0,90.0,15.0,0.0
6694,29.0,19.0,90.0,14.0,0.0
6695,53.0,1.0,120.0,10.0,0.0
6696,65.0,0.0,120.0,0.0,0.0
6697,77.0,1.0,120.0,0.0,0.0
6698,65.0,0.0,120.0,1.0,0.0
6699,53.0,0.0,120.0,4.0,0.0
6700,53.0,1.0,120.0,11.0,0.0
6701,65.0,0.0,120.0,6.0,0.0
6702,53.0,2.0,120.0,6.0,0.0
6703,65.0,1.0,120.0,2.0,0.0
6704,53.0,0.0,120.0,2.0,0.0
6705,53.0,5.0,120.0,5.0,0.0
6706,53.0,0.0,120.0,12.0,0.0
6707,41.0,1.0,120.0,13.0,0.0
6708,53.0,0.0,120.0,3.0,0.0
6709,41.0,1.0,120.0,3.0,0.0
6710,41.0,1.0,120.0,15.0,0.0
6711,29.0,480.0,120.0,14.0,0.0
6712,46.0,120.0,240.0,13.0,0.0
6713,34.0,117.0,120.0,14.0,0.0
6714,48.0,110.0,120.0,13.0,0.0
6715,50.0,133.0,120.0,13.0,0.0
6716,65.0,11.0,1680.0,10.0,0.0
6717,57.0,4.0,240.0,11.0,0.0
6718,53.0,115.0,240.0,12.0,0.0
6719,51.0,1.0,360.0,13.0,0.0
6720,29.0,108.0,120.0,14.0,0.0
6721,58.0,4.0,120.0,11.0,0.0
6722,55.0,106.0,120.0,12.0,0.0
6723,60.0,4.0,120.0,11.0,0.0
6724,57.0,5.0,120.0,12.0,0.0
6725,51.0,130.0,120.0,13.0,0.0
6726,62.0,4.0,480.0,11.0,0.0
6727,58.0,5.0,480.0,12.0,0.0
6728,51.0,3.0,120.0,13.0,0.0
6729,34.0,117.0,120.0,14.0,0.0
6730,50.0,120.0,120.0,13.0,0.0
6731,48.0,101.0,120.0,13.0,0.0
6732,46.0,133.0,120.0,13.0,0.0
6733,57.0,4.0,240.0,11.0,0.0
6734,53.0,115.0,240.0,12.0,0.0
6735,51.0,1.0,360.0,13.0,0.0
6736,29.0,108.0,120.0,14.0,0.0
6737,58.0,4.0,120.0,11.0,0.0
6738,55.0,106.0,120.0,12.0,0.0
6739,60.0,4.0,120.0,11.0,0.0
6740,57.0,5.0,120.0,12.0,0.0
6741,51.0,133.0,120.0,13.0,0.0
6742,62.0,4.0,240.0,11.0,0.0
6743,58.0,4.0,240.0,12.0,0.0
6744,50.0,109.0,240.0,13.0,0.0
6745,34.0,98.0,120.0,14.0,0.0
6746,63.0,11.0,120.0,10.0,0.0
6747,70.0,4.0,480.0,11.0,0.0
6748,58.0,4.0,480.0,12.0,0.0
6749,48.0,99.0,120.0,13.0,0.0
6750,62.0,11.0,120.0,10.0,0.0
6751,46.0,231.0,120.0,13.0,0.0
6752,67.0,11.0,240.0,10.0,0.0
6753,52.0,109.0,240.0,13.0,0.0
6754,65.0,11.0,120.0,10.0,0.0
6755,70.0,4.0,360.0,11.0,0.0
6756,58.0,8.0,360.0,12.0,0.0
6757,50.0,99.0,120.0,13.0,0.0
6758,64.0,11.0,120.0,10.0,0.0
6759,48.0,119.0,120.0,13.0,0.0
6760,69.0,2.0,120.0,10.0,0.0
6761,60.0,0.0,2040.0,4.0,0.0
6762,65.0,1.0,240.0,2.0,0.0
6763,60.0,6.0,2040.0,5.0,0.0
6764,53.0,1.0,360.0,13.0,0.0
6765,53.0,109.0,240.0,3.0,0.0
6766,29.0,108.0,120.0,14.0,0.0
6767,69.0,3.0,120.0,11.0,0.0
6768,57.0,6.0,120.0,12.0,0.0
6769,67.0,3.0,120.0,11.0,0.0
6770,67.0,1.0,120.0,2.0,0.0
6771,55.0,6.0,120.0,12.0,0.0
6772,55.0,100.0,120.0,3.0,0.0
6773,65.0,4.0,120.0,11.0,0.0
6774,69.0,1.0,120.0,2.0,0.0
6775,53.0,4.0,120.0,12.0,0.0
6776,53.0,6.0,120.0,13.0,0.0
6777,57.0,115.0,120.0,3.0,0.0
6778,72.0,2.0,240.0,10.0,0.0
6779,65.0,9.0,120.0,11.0,0.0
6780,70.0,2.0,360.0,2.0,0.0
6781,48.0,6.0,1560.0,12.0,0.0
6782,53.0,109.0,120.0,13.0,0.0
6783,58.0,4.0,360.0,3.0,0.0
6784,64.0,9.0,120.0,11.0,0.0
6785,52.0,109.0,120.0,13.0,0.0
6786,74.0,0.0,120.0,10.0,0.0
6787,62.0,5.0,120.0,11.0,0.0
6788,50.0,99.0,120.0,13.0,0.0
6789,76.0,2.0,120.0,10.0,0.0
6790,60.0,8.0,120.0,11.0,0.0
6791,70.0,1.0,120.0,2.0,0.0
6792,48.0,6.0,120.0,13.0,0.0
6793,58.0,53.0,120.0,3.0,0.0
6794,77.0,65.0,60.0,10.0,0.0
6795,65.0,9.0,360.0,11.0,0.0
6796,70.0,7.0,120.0,2.0,0.0
6797,53.0,4.0,360.0,13.0,0.0
6798,58.0,2.0,120.0,3.0,0.0
6799,29.0,111.0,120.0,14.0,0.0
6800,68.0,7.0,120.0,2.0,0.0
6801,56.0,100.0,120.0,3.0,0.0
6802,67.0,7.0,120.0,2.0,0.0
6803,55.0,100.0,120.0,3.0,0.0
6804,65.0,8.0,120.0,11.0,0.0
6805,65.0,1.0,120.0,2.0,0.0
6806,53.0,6.0,120.0,13.0,0.0
6807,53.0,115.0,120.0,3.0,0.0
6808,72.0,2.0,240.0,10.0,0.0
6809,65.0,9.0,120.0,11.0,0.0
6810,70.0,0.0,360.0,2.0,0.0
6811,53.0,109.0,120.0,13.0,0.0
6812,58.0,4.0,360.0,3.0,0.0
6813,64.0,9.0,120.0,11.0,0.0
6814,52.0,109.0,120.0,13.0,0.0
6815,74.0,2.0,120.0,10.0,0.0
6816,62.0,5.0,120.0,11.0,0.0
6817,50.0,99.0,120.0,13.0,0.0
6818,76.0,2.0,120.0,10.0,0.0
6819,60.0,8.0,120.0,11.0,0.0
6820,70.0,1.0,120.0,2.0,0.0
6821,48.0,6.0,120.0,13.0,0.0
6822,58.0,53.0,120.0,3.0,0.0
6823,77.0,56.0,60.0,10.0,0.0
6824,77.0,4.0,360.0,1.0,0.0
6825,65.0,3.0,120.0,11.0,0.0
6826,68.0,1.0,120.0,2.0,0.0
6827,53.0,1.0,240.0,13.0,0.0
6828,58.0,2.0,120.0,3.0,0.0
6829,29.0,112.0,120.0,14.0,0.0
6830,53.0,5.0,120.0,12.0,0.0
6831,56.0,110.0,120.0,3.0,0.0
6832,65.0,0.0,120.0,1.0,0.0
6833,56.0,5.0,120.0,12.0,0.0
6834,56.0,1.0,120.0,13.0,0.0
6835,60.0,110.0,120.0,3.0,0.0
6836,56.0,0.0,120.0,3.0,0.0
6837,67.0,4.0,120.0,1.0,0.0
6838,75.0,0.0,120.0,1.0,0.0
6839,55.0,1.0,120.0,13.0,0.0
6840,55.0,0.0,120.0,3.0,0.0
6841,58.0,110.0,120.0,3.0,0.0
6842,74.0,0.0,120.0,1.0,0.0
6843,68.0,4.0,120.0,1.0,0.0
6844,53.0,5.0,15.0,12.0,0.0
6845,53.0,1.0,120.0,13.0,0.0
6846,56.0,110.0,120.0,3.0,0.0
6847,53.0,0.0,120.0,3.0,0.0
6848,69.0,4.0,120.0,1.0,0.0
6849,72.0,0.0,120.0,1.0,0.0
6850,51.0,5.0,120.0,12.0,0.0
6851,51.0,1.0,120.0,13.0,0.0
6852,54.0,110.0,120.0,3.0,0.0
6853,51.0,0.0,120.0,3.0,0.0
6854,70.0,2.0,360.0,10.0,0.0
6855,82.0,3.0,720.0,0.0,0.0
6856,70.0,0.0,720.0,0.0,0.0
6857,70.0,4.0,120.0,1.0,0.0
6858,58.0,3.0,2280.0,4.0,0.0
6859,58.0,0.0,360.0,11.0,0.0
6860,50.0,5.0,120.0,12.0,0.0
6861,46.0,6.0,2280.0,5.0,0.0
6862,50.0,1.0,120.0,13.0,0.0
6863,53.0,0.0,120.0,3.0,0.0
6864,50.0,104.0,120.0,3.0,0.0
6865,68.0,0.0,120.0,1.0,0.0
6866,70.0,4.0,120.0,1.0,0.0
6867,46.0,1.0,120.0,12.0,0.0
6868,46.0,6.0,120.0,13.0,0.0
6869,46.0,0.0,120.0,3.0,0.0
6870,50.0,7.0,120.0,3.0,0.0
6871,34.0,106.0,120.0,14.0,0.0
6872,70.0,0.0,120.0,1.0,0.0
6873,67.0,5.0,120.0,1.0,0.0
6874,70.0,1.0,1680.0,2.0,0.0
6875,58.0,0.0,1680.0,2.0,0.0
6876,51.0,5.0,360.0,12.0,0.0
6877,51.0,1.0,360.0,13.0,0.0
6878,51.0,6.0,120.0,3.0,0.0
6879,55.0,0.0,120.0,3.0,0.0
6880,46.0,109.0,120.0,15.0,0.0
6881,39.0,8.0,360.0,14.0,0.0
6882,75.0,10.0,120.0,1.0,0.0
6883,63.0,0.0,120.0,1.0,0.0
6884,51.0,104.0,120.0,3.0,0.0
6885,77.0,0.0,120.0,1.0,0.0
6886,65.0,2.0,120.0,1.0,0.0
6887,53.0,104.0,120.0,3.0,0.0
6888,67.0,0.0,120.0,1.0,0.0
6889,79.0,4.0,120.0,1.0,0.0
6890,51.0,1.0,120.0,12.0,0.0
6891,51.0,0.0,120.0,13.0,0.0
6892,55.0,113.0,120.0,3.0,0.0
6893,39.0,3.0,120.0,14.0,0.0
6894,68.0,0.0,120.0,10.0,0.0
6895,58.0,2.0,120.0,10.0,0.0
6896,82.0,5.0,240.0,0.0,0.0
6897,70.0,0.0,240.0,0.0,0.0
6898,65.0,4.0,120.0,11.0,0.0
6899,80.0,4.0,360.0,1.0,0.0
6900,68.0,0.0,360.0,1.0,0.0
6901,51.0,5.0,120.0,12.0,0.0
6902,51.0,2.0,120.0,13.0,0.0
6903,56.0,4.0,360.0,3.0,0.0
6904,46.0,1.0,120.0,15.0,0.0
6905,39.0,107.0,120.0,14.0,0.0
6906,50.0,5.0,120.0,12.0,0.0
6907,50.0,3.0,120.0,13.0,0.0
6908,38.0,103.0,120.0,14.0,0.0
6909,72.0,5.0,120.0,0.0,0.0
6910,84.0,0.0,120.0,0.0,0.0
6911,48.0,1.0,120.0,12.0,0.0
6912,48.0,3.0,120.0,13.0,0.0
6913,36.0,102.0,120.0,14.0,0.0
6914,74.0,1.0,120.0,0.0,0.0
6915,86.0,0.0,120.0,0.0,0.0
6916,80.0,0.0,120.0,1.0,0.0
6917,68.0,4.0,120.0,1.0,0.0
6918,46.0,0.0,120.0,12.0,0.0
6919,46.0,3.0,120.0,13.0,0.0
6920,56.0,113.0,120.0,3.0,0.0
6921,34.0,3.0,120.0,14.0,0.0
6922,67.0,1.0,120.0,10.0,0.0
6923,58.0,0.0,120.0,10.0,0.0
6924,75.0,0.0,120.0,0.0,0.0
6925,87.0,1.0,120.0,0.0,0.0
6926,80.0,0.0,120.0,1.0,0.0
6927,68.0,0.0,120.0,1.0,0.0
6928,63.0,10.0,120.0,11.0,0.0
6929,51.0,5.0,360.0,12.0,0.0
6930,51.0,1.0,360.0,13.0,0.0
6931,56.0,1.0,120.0,3.0,0.0
6932,46.0,109.0,120.0,15.0,0.0
6933,39.0,8.0,360.0,14.0,0.0
6934,79.0,0.0,120.0,1.0,0.0
6935,67.0,10.0,120.0,1.0,0.0
6936,55.0,104.0,120.0,3.0,0.0
6937,77.0,0.0,120.0,1.0,0.0
6938,65.0,2.0,120.0,1.0,0.0
6939,53.0,104.0,120.0,3.0,0.0
6940,63.0,0.0,120.0,1.0,0.0
6941,75.0,4.0,120.0,1.0,0.0
6942,51.0,1.0,120.0,12.0,0.0
6943,51.0,3.0,120.0,13.0,0.0
6944,51.0,113.0,120.0,3.0,0.0
6945,39.0,3.0,120.0,14.0,0.0
6946,68.0,2.0,120.0,10.0,0.0
6947,58.0,0.0,120.0,10.0,0.0
6948,82.0,4.0,240.0,0.0,0.0
6949,70.0,0.0,240.0,0.0,0.0
6950,65.0,4.0,120.0,11.0,0.0
6951,80.0,0.0,360.0,1.0,0.0
6952,68.0,4.0,360.0,1.0,0.0
6953,51.0,5.0,120.0,12.0,0.0
6954,51.0,2.0,120.0,13.0,0.0
6955,56.0,4.0,360.0,3.0,0.0
6956,46.0,1.0,120.0,15.0,0.0
6957,39.0,107.0,120.0,14.0,0.0
6958,50.0,5.0,120.0,12.0,0.0
6959,50.0,3.0,120.0,13.0,0.0
6960,38.0,103.0,120.0,14.0,0.0
6961,84.0,4.0,120.0,0.0,0.0
6962,72.0,0.0,120.0,0.0,0.0
6963,72.0,0.0,120.0,2.0,0.0
6964,60.0,1.0,120.0,2.0,0.0
6965,48.0,1.0,120.0,12.0,0.0
6966,48.0,3.0,120.0,13.0,0.0
6967,36.0,102.0,120.0,14.0,0.0
6968,74.0,0.0,120.0,0.0,0.0
6969,86.0,1.0,120.0,0.0,0.0
6970,68.0,3.0,120.0,1.0,0.0
6971,80.0,0.0,120.0,1.0,0.0
6972,62.0,0.0,120.0,2.0,0.0
6973,74.0,1.0,120.0,2.0,0.0
6974,46.0,0.0,120.0,12.0,0.0
6975,46.0,3.0,120.0,13.0,0.0
6976,56.0,103.0,120.0,3.0,0.0
6977,34.0,3.0,120.0,14.0,0.0
6978,58.0,0.0,120.0,10.0,0.0
6979,67.0,2.0,120.0,10.0,0.0
6980,75.0,0.0,120.0,0.0,0.0
6981,87.0,1.0,120.0,0.0,0.0
6982,67.0,0.0,120.0,1.0,0.0
6983,63.0,9.0,120.0,11.0,0.0
6984,79.0,0.0,120.0,1.0,0.0
6985,63.0,0.0,120.0,2.0,0.0
6986,75.0,1.0,120.0,2.0,0.0
6987,51.0,5.0,360.0,12.0,0.0
6988,51.0,1.0,360.0,13.0,0.0
6989,55.0,1.0,120.0,3.0,0.0
6990,46.0,109.0,120.0,15.0,0.0
6991,39.0,106.0,360.0,14.0,0.0
6992,70.0,2.0,240.0,10.0,0.0
6993,58.0,0.0,240.0,11.0,0.0
6994,68.0,10.0,120.0,1.0,0.0
6995,80.0,0.0,120.0,1.0,0.0
6996,56.0,108.0,120.0,3.0,0.0
6997,79.0,4.0,120.0,1.0,0.0
6998,67.0,0.0,120.0,1.0,0.0
6999,55.0,2.0,120.0,3.0,0.0
7000,71.0,2.0,120.0,10.0,0.0
7001,65.0,0.0,120.0,1.0,0.0
7002,77.0,0.0,120.0,1.0,0.0
7003,59.0,4.0,120.0,11.0,0.0
7004,67.0,1.0,240.0,2.0,0.0
7005,50.0,5.0,120.0,12.0,0.0
7006,50.0,1.0,120.0,13.0,0.0
7007,53.0,2.0,120.0,3.0,0.0
7008,38.0,106.0,120.0,14.0,0.0
7009,72.0,2.0,120.0,10.0,0.0
7010,63.0,0.0,120.0,1.0,0.0
7011,75.0,3.0,120.0,1.0,0.0
7012,60.0,0.0,120.0,11.0,0.0
7013,55.0,5.0,120.0,12.0,0.0
7014,55.0,1.0,120.0,13.0,0.0
7015,51.0,2.0,120.0,3.0,0.0
7016,43.0,106.0,120.0,14.0,0.0
7017,74.0,1.0,120.0,10.0,0.0
7018,74.0,1.0,120.0,0.0,0.0
7019,86.0,0.0,120.0,0.0,0.0
7020,62.0,0.0,120.0,11.0,0.0
7021,71.0,0.0,120.0,1.0,0.0
7022,74.0,3.0,120.0,1.0,0.0
7023,68.0,1.0,120.0,2.0,0.0
7024,53.0,5.0,120.0,12.0,0.0
7025,53.0,1.0,120.0,13.0,0.0
7026,62.0,2.0,120.0,3.0,0.0
7027,56.0,0.0,120.0,3.0,0.0
7028,41.0,106.0,120.0,14.0,0.0
7029,75.0,1.0,120.0,10.0,0.0
7030,84.0,1.0,120.0,0.0,0.0
7031,72.0,0.0,120.0,0.0,0.0
7032,63.0,0.0,120.0,11.0,0.0
7033,67.0,1.0,120.0,2.0,0.0
7034,51.0,5.0,120.0,12.0,0.0
7035,51.0,1.0,120.0,13.0,0.0
7036,60.0,0.0,120.0,3.0,0.0
7037,55.0,2.0,120.0,3.0,0.0
7038,39.0,96.0,120.0,14.0,0.0
7039,79.0,2.0,120.0,10.0,0.0
7040,82.0,1.0,120.0,0.0,0.0
7041,70.0,0.0,120.0,0.0,0.0
7042,72.0,3.0,15.0,1.0,0.0
7043,67.0,4.0,120.0,11.0,0.0
7044,70.0,0.0,120.0,1.0,0.0
7045,67.0,1.0,120.0,2.0,0.0
7046,52.0,0.0,120.0,12.0,0.0
7047,52.0,3.0,120.0,13.0,0.0
7048,55.0,43.0,120.0,3.0,0.0
7049,58.0,0.0,120.0,3.0,0.0
7050,40.0,3.0,120.0,14.0,0.0
7051,53.0,6.0,60.0,10.0,0.0
7052,69.0,1.0,120.0,0.0,0.0
7053,81.0,0.0,120.0,0.0,0.0
7054,60.0,2.0,120.0,11.0,0.0
7055,72.0,0.0,120.0,1.0,0.0
7056,69.0,0.0,120.0,1.0,0.0
7057,65.0,7.0,120.0,2.0,0.0
7058,53.0,5.0,60.0,12.0,0.0
7059,41.0,3.0,60.0,13.0,0.0
7060,53.0,38.0,120.0,3.0,0.0
7061,57.0,0.0,120.0,3.0,0.0
7062,29.0,46.0,60.0,14.0,0.0
7063,53.0,6.0,60.0,10.0,0.0
7064,53.0,5.0,60.0,12.0,0.0
7065,53.0,0.0,60.0,13.0,0.0
7066,41.0,1.0,60.0,14.0,0.0
7067,57.0,6.0,60.0,10.0,0.0
7068,53.0,5.0,60.0,12.0,0.0
7069,53.0,3.0,60.0,13.0,0.0
7070,41.0,46.0,60.0,14.0,0.0
7071,57.0,6.0,60.0,10.0,0.0
7072,53.0,5.0,60.0,12.0,0.0
7073,53.0,3.0,60.0,13.0,0.0
7074,41.0,46.0,60.0,14.0,0.0
7075,60.0,6.0,60.0,10.0,0.0
7076,53.0,5.0,60.0,12.0,0.0
7077,53.0,3.0,60.0,13.0,0.0
7078,41.0,46.0,60.0,14.0,0.0
7079,60.0,6.0,60.0,10.0,0.0
7080,53.0,5.0,60.0,12.0,0.0
7081,53.0,3.0,60.0,13.0,0.0
7082,41.0,46.0,60.0,14.0,0.0
7083,65.0,6.0,60.0,10.0,0.0
7084,53.0,5.0,60.0,12.0,0.0
7085,53.0,3.0,60.0,13.0,0.0
7086,41.0,46.0,60.0,14.0,0.0
7087,65.0,6.0,60.0,10.0,0.0
7088,53.0,5.0,60.0,12.0,0.0
7089,53.0,3.0,60.0,13.0,0.0
7090,41.0,48.0,60.0,14.0,0.0
7091,69.0,2.0,360.0,10.0,0.0
7092,81.0,0.0,480.0,0.0,0.0
7093,77.0,0.0,480.0,0.0,0.0
7094,57.0,4.0,60.0,11.0,0.0
7095,60.0,0.0,480.0,4.0,0.0
7096,77.0,0.0,480.0,1.0,0.0
7097,69.0,1.0,480.0,1.0,0.0
7098,65.0,1.0,480.0,6.0,0.0
7099,53.0,0.0,480.0,6.0,0.0
7100,65.0,1.0,480.0,2.0,0.0
7101,69.0,0.0,480.0,2.0,0.0
7102,53.0,5.0,60.0,12.0,0.0
7103,53.0,6.0,480.0,5.0,0.0
7104,53.0,3.0,60.0,13.0,0.0
7105,57.0,38.0,480.0,3.0,0.0
7106,53.0,0.0,480.0,3.0,0.0
7107,41.0,39.0,120.0,15.0,0.0
7108,41.0,48.0,60.0,14.0,0.0
7109,57.0,4.0,60.0,11.0,0.0
7110,53.0,5.0,60.0,12.0,0.0
7111,53.0,3.0,60.0,13.0,0.0
7112,41.0,9.0,60.0,14.0,0.0
7113,60.0,4.0,60.0,11.0,0.0
7114,53.0,5.0,60.0,12.0,0.0
7115,53.0,3.0,60.0,13.0,0.0
7116,41.0,48.0,60.0,14.0,0.0
7117,60.0,4.0,60.0,11.0,0.0
7118,53.0,5.0,60.0,12.0,0.0
7119,53.0,3.0,60.0,13.0,0.0
7120,41.0,48.0,60.0,14.0,0.0
7121,65.0,4.0,60.0,11.0,0.0
7122,53.0,5.0,60.0,12.0,0.0
7123,53.0,3.0,60.0,13.0,0.0
7124,41.0,46.0,60.0,14.0,0.0
7125,65.0,4.0,60.0,11.0,0.0
7126,53.0,5.0,60.0,12.0,0.0
7127,53.0,3.0,60.0,13.0,0.0
7128,41.0,46.0,60.0,14.0,0.0
7129,53.0,2.0,60.0,10.0,0.0
7130,69.0,4.0,60.0,11.0,0.0
7131,53.0,5.0,60.0,12.0,0.0
7132,53.0,3.0,60.0,13.0,0.0
7133,41.0,46.0,60.0,14.0,0.0
7134,53.0,2.0,60.0,10.0,0.0
7135,69.0,4.0,60.0,11.0,0.0
7136,53.0,5.0,60.0,12.0,0.0
7137,53.0,1.0,60.0,13.0,0.0
7138,41.0,1.0,60.0,14.0,0.0
7139,55.0,6.0,60.0,10.0,0.0
7140,70.0,2.0,120.0,11.0,0.0
7141,52.0,5.0,60.0,12.0,0.0
7142,41.0,3.0,60.0,13.0,0.0
7143,29.0,46.0,60.0,14.0,0.0
7144,55.0,6.0,60.0,10.0,0.0
7145,52.0,5.0,60.0,12.0,0.0
7146,41.0,1.0,60.0,13.0,0.0
7147,29.0,46.0,60.0,14.0,0.0
7148,58.0,6.0,60.0,10.0,0.0
7149,52.0,5.0,60.0,12.0,0.0
7150,41.0,3.0,60.0,13.0,0.0
7151,29.0,46.0,60.0,14.0,0.0
7152,58.0,6.0,60.0,10.0,0.0
7153,52.0,5.0,60.0,12.0,0.0
7154,41.0,3.0,60.0,13.0,0.0
7155,29.0,46.0,60.0,14.0,0.0
7156,64.0,6.0,60.0,10.0,0.0
7157,52.0,5.0,60.0,12.0,0.0
7158,41.0,3.0,60.0,13.0,0.0
7159,29.0,46.0,60.0,14.0,0.0
7160,64.0,6.0,60.0,10.0,0.0
7161,52.0,5.0,60.0,12.0,0.0
7162,41.0,3.0,60.0,13.0,0.0
7163,29.0,46.0,60.0,14.0,0.0
7164,67.0,6.0,60.0,10.0,0.0
7165,52.0,5.0,60.0,12.0,0.0
7166,41.0,3.0,60.0,13.0,0.0
7167,29.0,46.0,60.0,14.0,0.0
7168,67.0,6.0,60.0,10.0,0.0
7169,52.0,5.0,60.0,12.0,0.0
7170,41.0,3.0,60.0,13.0,0.0
7171,29.0,48.0,60.0,14.0,0.0
7172,70.0,2.0,360.0,10.0,0.0
7173,79.0,0.0,480.0,0.0,0.0
7174,82.0,1.0,480.0,0.0,0.0
7175,65.0,0.0,480.0,4.0,0.0
7176,70.0,2.0,480.0,1.0,0.0
7177,58.0,4.0,60.0,11.0,0.0
7178,76.0,0.0,480.0,1.0,0.0
7179,65.0,1.0,120.0,6.0,0.0
7180,53.0,0.0,120.0,6.0,0.0
7181,70.0,1.0,480.0,2.0,0.0
7182,67.0,0.0,480.0,2.0,0.0
7183,52.0,5.0,60.0,12.0,0.0
7184,53.0,6.0,480.0,5.0,0.0
7185,41.0,3.0,60.0,13.0,0.0
7186,52.0,38.0,480.0,3.0,0.0
7187,58.0,0.0,480.0,3.0,0.0
7188,41.0,39.0,120.0,15.0,0.0
7189,29.0,48.0,60.0,14.0,0.0
7190,58.0,4.0,60.0,11.0,0.0
7191,52.0,5.0,60.0,12.0,0.0
7192,41.0,2.0,60.0,13.0,0.0
7193,29.0,9.0,60.0,14.0,0.0
7194,64.0,4.0,60.0,11.0,0.0
7195,52.0,5.0,60.0,12.0,0.0
7196,41.0,3.0,60.0,13.0,0.0
7197,29.0,48.0,60.0,14.0,0.0
7198,64.0,4.0,60.0,11.0,0.0
7199,52.0,5.0,60.0,12.0,0.0
7200,41.0,3.0,60.0,13.0,0.0
7201,29.0,48.0,60.0,14.0,0.0
7202,67.0,4.0,60.0,11.0,0.0
7203,52.0,5.0,60.0,12.0,0.0
7204,41.0,3.0,60.0,13.0,0.0
7205,29.0,46.0,60.0,14.0,0.0
7206,67.0,4.0,60.0,11.0,0.0
7207,52.0,5.0,60.0,12.0,0.0
7208,41.0,3.0,60.0,13.0,0.0
7209,29.0,46.0,60.0,14.0,0.0
7210,55.0,2.0,60.0,10.0,0.0
7211,70.0,4.0,60.0,11.0,0.0
7212,52.0,5.0,60.0,12.0,0.0
7213,41.0,3.0,60.0,13.0,0.0
7214,29.0,46.0,60.0,14.0,0.0
7215,55.0,2.0,60.0,10.0,0.0
7216,70.0,4.0,60.0,11.0,0.0
7217,52.0,5.0,60.0,12.0,0.0
7218,41.0,0.0,60.0,13.0,0.0
7219,29.0,1.0,60.0,14.0,0.0
7220,57.0,6.0,60.0,10.0,0.0
7221,72.0,4.0,120.0,11.0,0.0
7222,51.0,5.0,60.0,12.0,0.0
7223,41.0,3.0,60.0,13.0,0.0
7224,29.0,46.0,60.0,14.0,0.0
7225,57.0,2.0,60.0,10.0,0.0
7226,51.0,5.0,60.0,12.0,0.0
7227,41.0,3.0,60.0,13.0,0.0
7228,29.0,46.0,60.0,14.0,0.0
7229,72.0,2.0,60.0,10.0,0.0
7230,57.0,4.0,60.0,11.0,0.0
7231,60.0,0.0,60.0,11.0,0.0
7232,51.0,5.0,60.0,12.0,0.0
7233,41.0,3.0,60.0,13.0,0.0
7234,29.0,46.0,60.0,14.0,0.0
7235,72.0,2.0,60.0,10.0,0.0
7236,57.0,4.0,60.0,11.0,0.0
7237,60.0,0.0,60.0,11.0,0.0
7238,51.0,5.0,60.0,12.0,0.0
7239,41.0,3.0,60.0,13.0,0.0
7240,29.0,46.0,60.0,14.0,0.0
7241,72.0,2.0,60.0,10.0,0.0
7242,81.0,1.0,240.0,0.0,0.0
7243,84.0,0.0,240.0,0.0,0.0
7244,57.0,4.0,60.0,11.0,0.0
7245,60.0,0.0,60.0,11.0,0.0
7246,75.0,0.0,240.0,1.0,0.0
7247,69.0,1.0,240.0,1.0,0.0
7248,60.0,0.0,240.0,4.0,0.0
7249,65.0,0.0,240.0,6.0,0.0
7250,53.0,1.0,240.0,6.0,0.0
7251,69.0,0.0,240.0,2.0,0.0
7252,63.0,1.0,240.0,2.0,0.0
7253,51.0,5.0,60.0,12.0,0.0
7254,53.0,6.0,240.0,5.0,0.0
7255,41.0,3.0,60.0,13.0,0.0
7256,51.0,38.0,240.0,3.0,0.0
7257,57.0,0.0,240.0,3.0,0.0
7258,41.0,37.0,120.0,15.0,0.0
7259,29.0,46.0,60.0,14.0,0.0
7260,72.0,2.0,60.0,10.0,0.0
7261,57.0,4.0,60.0,11.0,0.0
7262,60.0,0.0,60.0,11.0,0.0
7263,51.0,5.0,60.0,12.0,0.0
7264,41.0,3.0,60.0,13.0,0.0
7265,29.0,9.0,60.0,14.0,0.0
7266,57.0,2.0,60.0,10.0,0.0
7267,57.0,0.0,60.0,11.0,0.0
7268,60.0,4.0,60.0,11.0,0.0
7269,51.0,5.0,60.0,12.0,0.0
7270,41.0,3.0,60.0,13.0,0.0
7271,29.0,46.0,60.0,14.0,0.0
7272,57.0,2.0,60.0,10.0,0.0
7273,57.0,4.0,60.0,11.0,0.0
7274,60.0,0.0,60.0,11.0,0.0
7275,51.0,5.0,60.0,12.0,0.0
7276,41.0,0.0,60.0,13.0,0.0
7277,29.0,1.0,60.0,14.0,0.0
7278,58.0,2.0,60.0,10.0,0.0
7279,58.0,0.0,60.0,11.0,0.0
7280,62.0,4.0,60.0,11.0,0.0
7281,50.0,5.0,60.0,12.0,0.0
7282,41.0,3.0,60.0,13.0,0.0
7283,29.0,46.0,60.0,14.0,0.0
7284,58.0,2.0,60.0,10.0,0.0
7285,58.0,4.0,60.0,11.0,0.0
7286,62.0,0.0,60.0,11.0,0.0
7287,50.0,5.0,60.0,12.0,0.0
7288,41.0,3.0,60.0,13.0,0.0
7289,29.0,46.0,60.0,14.0,0.0
7290,74.0,2.0,60.0,10.0,0.0
7291,62.0,4.0,60.0,11.0,0.0
7292,58.0,0.0,60.0,11.0,0.0
7293,50.0,5.0,60.0,12.0,0.0
7294,41.0,3.0,60.0,13.0,0.0
7295,29.0,46.0,60.0,14.0,0.0
7296,74.0,2.0,60.0,10.0,0.0
7297,58.0,0.0,60.0,11.0,0.0
7298,62.0,4.0,60.0,11.0,0.0
7299,50.0,5.0,60.0,12.0,0.0
7300,41.0,3.0,60.0,13.0,0.0
7301,29.0,46.0,60.0,14.0,0.0
7302,74.0,2.0,60.0,10.0,0.0
7303,86.0,0.0,240.0,0.0,0.0
7304,82.0,1.0,240.0,0.0,0.0
7305,74.0,0.0,240.0,1.0,0.0
7306,62.0,1.0,240.0,4.0,0.0
7307,58.0,0.0,60.0,11.0,0.0
7308,62.0,4.0,60.0,11.0,0.0
7309,70.0,2.0,240.0,1.0,0.0
7310,65.0,0.0,240.0,6.0,0.0
7311,53.0,3.0,240.0,6.0,0.0
7312,70.0,0.0,240.0,2.0,0.0
7313,62.0,7.0,240.0,2.0,0.0
7314,58.0,0.0,240.0,5.0,0.0
7315,50.0,5.0,60.0,12.0,0.0
7316,41.0,3.0,60.0,13.0,0.0
7317,50.0,1.0,240.0,3.0,0.0
7318,58.0,0.0,240.0,3.0,0.0
7319,29.0,46.0,60.0,14.0,0.0
7320,74.0,2.0,60.0,10.0,0.0
7321,58.0,4.0,60.0,11.0,0.0
7322,62.0,0.0,60.0,11.0,0.0
7323,50.0,5.0,60.0,12.0,0.0
7324,41.0,3.0,60.0,13.0,0.0
7325,29.0,46.0,60.0,14.0,0.0
7326,58.0,2.0,60.0,10.0,0.0
7327,58.0,4.0,60.0,11.0,0.0
7328,62.0,0.0,60.0,11.0,0.0
7329,50.0,5.0,60.0,12.0,0.0
7330,41.0,3.0,60.0,13.0,0.0
7331,41.0,37.0,120.0,15.0,0.0
7332,29.0,46.0,60.0,14.0,0.0
7333,58.0,2.0,60.0,10.0,0.0
7334,62.0,0.0,60.0,11.0,0.0
7335,58.0,4.0,60.0,11.0,0.0
7336,50.0,1.0,60.0,12.0,0.0
7337,41.0,0.0,60.0,13.0,0.0
7338,29.0,1.0,60.0,14.0,0.0
7339,60.0,60.0,60.0,10.0,0.0
7340,87.0,0.0,120.0,0.0,0.0
7341,81.0,1.0,120.0,0.0,0.0
7342,63.0,0.0,120.0,11.0,0.0
7343,75.0,0.0,120.0,1.0,0.0
7344,69.0,0.0,120.0,1.0,0.0
7345,60.0,1.0,120.0,4.0,0.0
7346,53.0,2.0,120.0,6.0,0.0
7347,65.0,0.0,120.0,6.0,0.0
7348,69.0,0.0,120.0,2.0,0.0
7349,63.0,1.0,120.0,2.0,0.0
7350,53.0,0.0,120.0,5.0,0.0
7351,45.0,5.0,120.0,12.0,0.0
7352,41.0,1.0,120.0,13.0,0.0
7353,48.0,1.0,120.0,3.0,0.0
7354,57.0,0.0,120.0,3.0,0.0
7355,41.0,1.0,120.0,15.0,0.0
7356,29.0,36.0,120.0,14.0,0.0
7357,60.0,11.0,60.0,10.0,0.0
7358,75.0,60.0,60.0,10.0,0.0
7359,75.0,60.0,60.0,10.0,0.0
7360,75.0,60.0,60.0,10.0,0.0
7361,75.0,60.0,60.0,10.0,0.0
7362,72.0,60.0,60.0,10.0,0.0
7363,72.0,60.0,60.0,10.0,0.0
7364,69.0,60.0,60.0,10.0,0.0
7365,69.0,60.0,60.0,10.0,0.0
7366,65.0,60.0,60.0,10.0,0.0
7367,65.0,60.0,60.0,10.0,0.0
7368,63.0,60.0,60.0,10.0,0.0
7369,63.0,60.0,60.0,10.0,0.0
7370,60.0,60.0,60.0,10.0,0.0
7371,60.0,70.0,60.0,10.0,0.0
7372,62.0,71.0,60.0,10.0,0.0
7373,65.0,4.0,480.0,4.0,0.0
7374,53.0,125.0,480.0,5.0,0.0
7375,46.0,3.0,120.0,13.0,0.0
7376,34.0,46.0,120.0,14.0,0.0
7377,65.0,2.0,60.0,10.0,0.0
7378,62.0,4.0,60.0,11.0,0.0
7379,46.0,0.0,60.0,12.0,0.0
7380,50.0,114.0,60.0,12.0,0.0
7381,62.0,2.0,60.0,10.0,0.0
7382,58.0,4.0,60.0,11.0,0.0
7383,53.0,114.0,60.0,12.0,0.0
7384,50.0,0.0,60.0,12.0,0.0
7385,65.0,2.0,60.0,10.0,0.0
7386,62.0,4.0,60.0,11.0,0.0
7387,46.0,56.0,60.0,12.0,0.0
7388,50.0,0.0,60.0,12.0,0.0
7389,62.0,4.0,240.0,4.0,0.0
7390,50.0,54.0,240.0,5.0,0.0
7391,46.0,3.0,120.0,13.0,0.0
7392,34.0,46.0,120.0,14.0,0.0
7393,65.0,2.0,60.0,10.0,0.0
7394,62.0,4.0,60.0,11.0,0.0
7395,46.0,56.0,60.0,12.0,0.0
7396,50.0,0.0,60.0,12.0,0.0
7397,62.0,2.0,60.0,10.0,0.0
7398,58.0,4.0,240.0,4.0,0.0
7399,58.0,4.0,60.0,11.0,0.0
7400,50.0,114.0,60.0,12.0,0.0
7401,53.0,0.0,60.0,12.0,0.0
7402,46.0,116.0,240.0,5.0,0.0
7403,65.0,2.0,60.0,10.0,0.0
7404,62.0,4.0,60.0,11.0,0.0
7405,46.0,56.0,60.0,12.0,0.0
7406,50.0,0.0,60.0,12.0,0.0
7407,77.0,129.0,480.0,1.0,0.0
7408,53.0,4.0,120.0,4.0,0.0
7409,41.0,5.0,120.0,5.0,0.0
7410,45.0,3.0,120.0,13.0,0.0
7411,33.0,46.0,120.0,14.0,0.0
7412,65.0,2.0,60.0,10.0,0.0
7413,63.0,4.0,60.0,11.0,0.0
7414,51.0,114.0,60.0,12.0,0.0
7415,48.0,0.0,60.0,12.0,0.0
7416,63.0,2.0,60.0,10.0,0.0
7417,60.0,4.0,60.0,11.0,0.0
7418,53.0,0.0,60.0,12.0,0.0
7419,51.0,114.0,60.0,12.0,0.0
7420,65.0,2.0,60.0,10.0,0.0
7421,63.0,4.0,60.0,11.0,0.0
7422,48.0,56.0,60.0,12.0,0.0
7423,51.0,0.0,60.0,12.0,0.0
7424,75.0,58.0,240.0,1.0,0.0
7425,41.0,3.0,120.0,13.0,0.0
7426,29.0,46.0,120.0,14.0,0.0
7427,72.0,1.0,60.0,10.0,0.0
7428,84.0,1.0,60.0,0.0,0.0
7429,63.0,4.0,60.0,11.0,0.0
7430,48.0,0.0,60.0,12.0,0.0
7431,51.0,54.0,60.0,12.0,0.0
7432,70.0,1.0,60.0,10.0,0.0
7433,82.0,1.0,60.0,0.0,0.0
7434,69.0,1.0,60.0,10.0,0.0
7435,81.0,1.0,60.0,0.0,0.0
7436,60.0,4.0,60.0,11.0,0.0
7437,72.0,63.0,240.0,1.0,0.0
7438,53.0,0.0,60.0,12.0,0.0
7439,51.0,54.0,60.0,12.0,0.0
7440,67.0,1.0,60.0,10.0,0.0
7441,79.0,59.0,60.0,0.0,0.0
7442,65.0,1.0,60.0,10.0,0.0
7443,77.0,1.0,60.0,0.0,0.0
7444,63.0,4.0,60.0,11.0,0.0
7445,51.0,0.0,60.0,12.0,0.0
7446,48.0,44.0,60.0,12.0,0.0
7447,69.0,1.0,60.0,10.0,0.0
7448,81.0,6.0,60.0,0.0,0.0
7449,70.0,2.0,60.0,10.0,0.0
7450,82.0,1.0,120.0,0.0,0.0
7451,65.0,4.0,480.0,4.0,0.0
7452,62.0,4.0,60.0,11.0,0.0
7453,74.0,9.0,120.0,1.0,0.0
7454,50.0,0.0,60.0,12.0,0.0
7455,46.0,55.0,60.0,12.0,0.0
7456,53.0,125.0,480.0,5.0,0.0
7457,46.0,3.0,120.0,13.0,0.0
7458,34.0,46.0,120.0,14.0,0.0
7459,65.0,2.0,60.0,10.0,0.0
7460,62.0,4.0,60.0,11.0,0.0
7461,50.0,114.0,60.0,12.0,0.0
7462,53.0,0.0,60.0,12.0,0.0
7463,62.0,2.0,60.0,10.0,0.0
7464,58.0,4.0,60.0,11.0,0.0
7465,50.0,114.0,60.0,12.0,0.0
7466,46.0,0.0,60.0,12.0,0.0
7467,65.0,2.0,60.0,10.0,0.0
7468,62.0,4.0,60.0,11.0,0.0
7469,53.0,0.0,60.0,12.0,0.0
7470,50.0,56.0,60.0,12.0,0.0
7471,62.0,4.0,240.0,4.0,0.0
7472,50.0,54.0,240.0,5.0,0.0
7473,46.0,3.0,120.0,13.0,0.0
7474,34.0,46.0,120.0,14.0,0.0
7475,65.0,2.0,60.0,10.0,0.0
7476,62.0,4.0,60.0,11.0,0.0
7477,50.0,56.0,60.0,12.0,0.0
7478,46.0,0.0,60.0,12.0,0.0
7479,62.0,2.0,60.0,10.0,0.0
7480,58.0,4.0,60.0,11.0,0.0
7481,58.0,4.0,240.0,4.0,0.0
7482,53.0,0.0,60.0,12.0,0.0
7483,50.0,114.0,60.0,12.0,0.0
7484,46.0,116.0,240.0,5.0,0.0
7485,65.0,2.0,60.0,10.0,0.0
7486,62.0,4.0,60.0,11.0,0.0
7487,46.0,0.0,60.0,12.0,0.0
7488,50.0,56.0,60.0,12.0,0.0
7489,77.0,129.0,480.0,1.0,0.0
7490,53.0,4.0,120.0,4.0,0.0
7491,41.0,5.0,120.0,5.0,0.0
7492,45.0,3.0,120.0,13.0,0.0
7493,33.0,46.0,120.0,14.0,0.0
7494,65.0,2.0,60.0,10.0,0.0
7495,63.0,4.0,60.0,11.0,0.0
7496,51.0,114.0,60.0,12.0,0.0
7497,48.0,0.0,60.0,12.0,0.0
7498,63.0,2.0,60.0,10.0,0.0
7499,60.0,4.0,60.0,11.0,0.0
7500,53.0,0.0,60.0,12.0,0.0
7501,51.0,114.0,60.0,12.0,0.0
7502,65.0,2.0,60.0,10.0,0.0
7503,63.0,4.0,60.0,11.0,0.0
7504,51.0,0.0,60.0,12.0,0.0
7505,48.0,56.0,60.0,12.0,0.0
7506,75.0,58.0,240.0,1.0,0.0
7507,41.0,3.0,120.0,13.0,0.0
7508,53.0,119.0,960.0,3.0,0.0
7509,29.0,46.0,120.0,14.0,0.0
7510,72.0,1.0,60.0,10.0,0.0
7511,84.0,1.0,60.0,0.0,0.0
7512,63.0,4.0,60.0,11.0,0.0
7513,60.0,54.0,60.0,12.0,0.0
7514,53.0,0.0,60.0,12.0,0.0
7515,70.0,1.0,60.0,10.0,0.0
7516,82.0,1.0,60.0,0.0,0.0
7517,69.0,1.0,60.0,10.0,0.0
7518,81.0,1.0,60.0,0.0,0.0
7519,72.0,63.0,240.0,1.0,0.0
7520,65.0,4.0,60.0,11.0,0.0
7521,60.0,54.0,60.0,12.0,0.0
7522,63.0,0.0,60.0,12.0,0.0
7523,67.0,1.0,60.0,10.0,0.0
7524,79.0,59.0,60.0,0.0,0.0
7525,65.0,1.0,60.0,10.0,0.0
7526,77.0,1.0,60.0,0.0,0.0
7527,63.0,4.0,60.0,11.0,0.0
7528,53.0,0.0,60.0,12.0,0.0
7529,60.0,44.0,60.0,12.0,0.0
7530,69.0,1.0,60.0,10.0,0.0
7531,81.0,6.0,60.0,0.0,0.0
7532,70.0,1.0,60.0,10.0,0.0
7533,82.0,1.0,60.0,0.0,0.0
7534,62.0,4.0,60.0,11.0,0.0
7535,74.0,10.0,1440.0,1.0,0.0
7536,53.0,0.0,60.0,12.0,0.0
7537,58.0,65.0,60.0,12.0,0.0
7538,46.0,3.0,120.0,13.0,0.0
7539,34.0,46.0,120.0,14.0,0.0
7540,74.0,2.0,60.0,10.0,0.0
7541,70.0,4.0,60.0,11.0,0.0
7542,62.0,114.0,60.0,12.0,0.0
7543,58.0,0.0,60.0,12.0,0.0
7544,70.0,2.0,60.0,10.0,0.0
7545,65.0,4.0,60.0,11.0,0.0
7546,58.0,0.0,60.0,12.0,0.0
7547,53.0,114.0,60.0,12.0,0.0
7548,74.0,2.0,60.0,10.0,0.0
7549,70.0,4.0,60.0,11.0,0.0
7550,62.0,66.0,60.0,12.0,0.0
7551,58.0,0.0,60.0,12.0,0.0
7552,50.0,3.0,120.0,13.0,0.0
7553,54.0,119.0,480.0,3.0,0.0
7554,38.0,46.0,120.0,14.0,0.0
7555,74.0,2.0,60.0,10.0,0.0
7556,69.0,4.0,60.0,11.0,0.0
7557,62.0,0.0,60.0,12.0,0.0
7558,57.0,114.0,60.0,12.0,0.0
7559,69.0,2.0,60.0,10.0,0.0
7560,66.0,4.0,60.0,11.0,0.0
7561,57.0,114.0,60.0,12.0,0.0
7562,54.0,0.0,60.0,12.0,0.0
7563,74.0,2.0,60.0,10.0,0.0
7564,69.0,4.0,60.0,11.0,0.0
7565,57.0,0.0,60.0,12.0,0.0
7566,62.0,66.0,60.0,12.0,0.0
7567,55.0,3.0,120.0,13.0,0.0
7568,55.0,119.0,480.0,3.0,0.0
7569,43.0,46.0,120.0,14.0,0.0
7570,74.0,2.0,60.0,10.0,0.0
7571,70.0,4.0,60.0,11.0,0.0
7572,58.0,114.0,60.0,12.0,0.0
7573,62.0,0.0,60.0,12.0,0.0
7574,70.0,2.0,60.0,10.0,0.0
7575,67.0,4.0,60.0,11.0,0.0
7576,58.0,114.0,60.0,12.0,0.0
7577,55.0,0.0,60.0,12.0,0.0
7578,74.0,2.0,60.0,10.0,0.0
7579,70.0,4.0,60.0,11.0,0.0
7580,58.0,56.0,60.0,12.0,0.0
7581,62.0,0.0,60.0,12.0,0.0
7582,77.0,58.0,1200.0,1.0,0.0
7583,65.0,4.0,960.0,4.0,0.0
7584,53.0,11.0,960.0,5.0,0.0
7585,53.0,3.0,120.0,13.0,0.0
7586,57.0,119.0,480.0,3.0,0.0
7587,41.0,46.0,120.0,14.0,0.0
7588,77.0,2.0,60.0,10.0,0.0
7589,72.0,4.0,60.0,11.0,0.0
7590,65.0,114.0,60.0,12.0,0.0
7591,60.0,0.0,60.0,12.0,0.0
7592,72.0,2.0,60.0,10.0,0.0
7593,69.0,4.0,60.0,11.0,0.0
7594,60.0,114.0,60.0,12.0,0.0
7595,57.0,0.0,60.0,12.0,0.0
7596,77.0,2.0,60.0,10.0,0.0
7597,72.0,4.0,60.0,11.0,0.0
7598,60.0,66.0,60.0,12.0,0.0
7599,65.0,0.0,60.0,12.0,0.0
7600,58.0,3.0,120.0,13.0,0.0
7601,58.0,110.0,480.0,3.0,0.0
7602,46.0,46.0,120.0,14.0,0.0
7603,77.0,2.0,60.0,10.0,0.0
7604,74.0,4.0,60.0,11.0,0.0
7605,58.0,0.0,60.0,12.0,0.0
7606,62.0,114.0,60.0,12.0,0.0
7607,74.0,2.0,60.0,10.0,0.0
7608,70.0,4.0,60.0,11.0,0.0
7609,65.0,0.0,60.0,12.0,0.0
7610,62.0,114.0,60.0,12.0,0.0
7611,77.0,2.0,60.0,10.0,0.0
7612,74.0,4.0,60.0,11.0,0.0
7613,58.0,0.0,60.0,12.0,0.0
7614,62.0,51.0,60.0,12.0,0.0
7615,63.0,4.0,120.0,4.0,0.0
7616,63.0,5.0,120.0,5.0,0.0
7617,51.0,3.0,120.0,13.0,0.0
7618,55.0,48.0,360.0,3.0,0.0
7619,39.0,46.0,120.0,14.0,0.0
7620,75.0,2.0,60.0,10.0,0.0
7621,67.0,4.0,60.0,11.0,0.0
7622,51.0,56.0,60.0,12.0,0.0
7623,60.0,0.0,60.0,12.0,0.0
7624,72.0,2.0,60.0,10.0,0.0
7625,63.0,0.0,120.0,4.0,0.0
7626,75.0,4.0,120.0,1.0,0.0
7627,63.0,4.0,60.0,11.0,0.0
7628,55.0,0.0,60.0,12.0,0.0
7629,63.0,6.0,120.0,5.0,0.0
7630,63.0,56.0,60.0,12.0,0.0
7631,75.0,2.0,60.0,10.0,0.0
7632,67.0,4.0,60.0,11.0,0.0
7633,72.0,10.0,120.0,1.0,0.0
7634,60.0,51.0,60.0,12.0,0.0
7635,51.0,0.0,60.0,12.0,0.0
7636,51.0,124.0,120.0,3.0,0.0
7637,72.0,58.0,240.0,1.0,0.0
7638,53.0,3.0,120.0,13.0,0.0
7639,50.0,119.0,480.0,3.0,0.0
7640,41.0,46.0,120.0,14.0,0.0
7641,74.0,2.0,60.0,10.0,0.0
7642,65.0,4.0,60.0,11.0,0.0
7643,50.0,56.0,60.0,12.0,0.0
7644,58.0,0.0,60.0,12.0,0.0
7645,70.0,2.0,60.0,10.0,0.0
7646,70.0,58.0,480.0,1.0,0.0
7647,65.0,4.0,120.0,4.0,0.0
7648,62.0,4.0,60.0,11.0,0.0
7649,65.0,54.0,120.0,5.0,0.0
7650,53.0,56.0,60.0,12.0,0.0
7651,62.0,0.0,60.0,12.0,0.0
7652,74.0,2.0,60.0,10.0,0.0
7653,65.0,4.0,60.0,11.0,0.0
7654,50.0,0.0,60.0,12.0,0.0
7655,58.0,66.0,60.0,12.0,0.0
7656,41.0,3.0,120.0,13.0,0.0
7657,51.0,53.0,480.0,3.0,0.0
7658,29.0,46.0,120.0,14.0,0.0
7659,72.0,2.0,60.0,10.0,0.0
7660,63.0,4.0,60.0,11.0,0.0
7661,57.0,0.0,60.0,12.0,0.0
7662,48.0,56.0,60.0,12.0,0.0
7663,69.0,2.0,60.0,10.0,0.0
7664,60.0,4.0,60.0,11.0,0.0
7665,72.0,0.0,180.0,1.0,0.0
7666,53.0,114.0,60.0,12.0,0.0
7667,60.0,0.0,60.0,12.0,0.0
7668,72.0,2.0,60.0,10.0,0.0
7669,63.0,4.0,60.0,11.0,0.0
7670,53.0,4.0,120.0,4.0,0.0
7671,53.0,6.0,120.0,5.0,0.0
7672,57.0,0.0,60.0,12.0,0.0
7673,48.0,51.0,60.0,12.0,0.0
7674,69.0,0.0,60.0,1.0,0.0
7675,70.0,2.0,60.0,10.0,0.0
7676,61.0,4.0,60.0,11.0,0.0
7677,70.0,9.0,120.0,1.0,0.0
7678,53.0,1.0,2040.0,4.0,0.0
7679,53.0,0.0,2040.0,6.0,0.0
7680,65.0,3.0,2040.0,6.0,0.0
7681,65.0,7.0,480.0,2.0,0.0
7682,58.0,0.0,60.0,12.0,0.0
7683,49.0,56.0,60.0,12.0,0.0
7684,41.0,5.0,2040.0,5.0,0.0
7685,46.0,1.0,120.0,13.0,0.0
7686,49.0,1.0,120.0,3.0,0.0
7687,41.0,1.0,120.0,15.0,0.0
7688,34.0,46.0,120.0,14.0,0.0
7689,73.0,2.0,60.0,10.0,0.0
7690,70.0,4.0,60.0,11.0,0.0
7691,53.0,0.0,60.0,12.0,0.0
7692,58.0,114.0,60.0,12.0,0.0
7693,70.0,2.0,60.0,10.0,0.0
7694,65.0,4.0,60.0,11.0,0.0
7695,61.0,0.0,60.0,12.0,0.0
7696,58.0,114.0,60.0,12.0,0.0
7697,53.0,119.0,240.0,3.0,0.0
7698,73.0,2.0,60.0,10.0,0.0
7699,70.0,4.0,60.0,11.0,0.0
7700,58.0,0.0,60.0,12.0,0.0
7701,53.0,59.0,60.0,12.0,0.0
7702,61.0,7.0,240.0,2.0,0.0
7703,46.0,2.0,120.0,13.0,0.0
7704,49.0,48.0,240.0,3.0,0.0
7705,41.0,1.0,120.0,15.0,0.0
7706,34.0,46.0,120.0,14.0,0.0
7707,73.0,2.0,60.0,10.0,0.0
7708,70.0,4.0,60.0,11.0,0.0
7709,53.0,59.0,60.0,12.0,0.0
7710,58.0,0.0,60.0,12.0,0.0
7711,70.0,2.0,60.0,10.0,0.0
7712,65.0,4.0,60.0,11.0,0.0
7713,58.0,7.0,240.0,2.0,0.0
7714,61.0,0.0,60.0,12.0,0.0
7715,58.0,114.0,60.0,12.0,0.0
7716,46.0,118.0,240.0,3.0,0.0
7717,73.0,2.0,60.0,10.0,0.0
7718,70.0,4.0,60.0,11.0,0.0
7719,58.0,54.0,60.0,12.0,0.0
7720,53.0,0.0,60.0,12.0,0.0
7721,77.0,129.0,480.0,1.0,0.0
7722,53.0,6.0,120.0,2.0,0.0
7723,45.0,1.0,120.0,13.0,0.0
7724,41.0,1.0,120.0,3.0,0.0
7725,41.0,1.0,120.0,15.0,0.0
7726,33.0,46.0,120.0,14.0,0.0
7727,75.0,2.0,60.0,10.0,0.0
7728,72.0,4.0,60.0,11.0,0.0
7729,60.0,114.0,60.0,12.0,0.0
7730,53.0,0.0,60.0,12.0,0.0
7731,72.0,2.0,60.0,10.0,0.0
7732,65.0,4.0,60.0,11.0,0.0
7733,63.0,0.0,60.0,12.0,0.0
7734,60.0,114.0,60.0,12.0,0.0
7735,75.0,2.0,60.0,10.0,0.0
7736,72.0,4.0,60.0,11.0,0.0
7737,53.0,0.0,60.0,12.0,0.0
7738,60.0,56.0,60.0,12.0,0.0
7739,75.0,58.0,240.0,1.0,0.0
7740,41.0,2.0,120.0,13.0,0.0
7741,41.0,1.0,120.0,15.0,0.0
7742,29.0,46.0,120.0,14.0,0.0
7743,72.0,1.0,60.0,10.0,0.0
7744,84.0,1.0,60.0,0.0,0.0
7745,72.0,4.0,60.0,11.0,0.0
7746,60.0,0.0,60.0,12.0,0.0
7747,53.0,54.0,60.0,12.0,0.0
7748,70.0,1.0,60.0,10.0,0.0
7749,82.0,1.0,60.0,0.0,0.0
7750,69.0,1.0,60.0,10.0,0.0
7751,81.0,1.0,60.0,0.0,0.0
7752,72.0,63.0,240.0,1.0,0.0
7753,65.0,4.0,60.0,11.0,0.0
7754,63.0,0.0,60.0,12.0,0.0
7755,60.0,54.0,60.0,12.0,0.0
7756,67.0,1.0,60.0,10.0,0.0
7757,79.0,59.0,60.0,0.0,0.0
7758,65.0,1.0,60.0,10.0,0.0
7759,77.0,1.0,60.0,0.0,0.0
7760,72.0,4.0,60.0,11.0,0.0
7761,60.0,0.0,60.0,12.0,0.0
7762,53.0,44.0,60.0,12.0,0.0
7763,69.0,1.0,60.0,10.0,0.0
7764,81.0,6.0,60.0,0.0,0.0
7765,70.0,1.0,60.0,10.0,0.0
7766,82.0,1.0,60.0,0.0,0.0
7767,73.0,0.0,120.0,1.0,0.0
7768,70.0,60.0,60.0,11.0,0.0
7769,46.0,2.0,120.0,13.0,0.0
7770,53.0,48.0,720.0,3.0,0.0
7771,41.0,1.0,120.0,15.0,0.0
7772,34.0,46.0,120.0,14.0,0.0
7773,65.0,2.0,60.0,10.0,0.0
7774,61.0,4.0,60.0,11.0,0.0
7775,46.0,114.0,60.0,12.0,0.0
7776,49.0,0.0,60.0,12.0,0.0
7777,61.0,2.0,60.0,10.0,0.0
7778,58.0,4.0,60.0,11.0,0.0
7779,49.0,0.0,60.0,12.0,0.0
7780,53.0,114.0,60.0,12.0,0.0
7781,65.0,2.0,60.0,10.0,0.0
7782,61.0,4.0,60.0,11.0,0.0
7783,49.0,185.0,60.0,12.0,0.0
7784,46.0,0.0,60.0,12.0,0.0
7785,46.0,3.0,120.0,13.0,0.0
7786,34.0,46.0,120.0,14.0,0.0
7787,65.0,2.0,60.0,10.0,0.0
7788,61.0,4.0,60.0,11.0,0.0
7789,49.0,66.0,60.0,12.0,0.0
7790,46.0,0.0,60.0,12.0,0.0
7791,61.0,2.0,60.0,10.0,0.0
7792,58.0,4.0,60.0,11.0,0.0
7793,53.0,0.0,60.0,12.0,0.0
7794,49.0,66.0,60.0,12.0,0.0
7795,51.0,48.0,120.0,3.0,0.0
7796,65.0,2.0,60.0,10.0,0.0
7797,61.0,4.0,60.0,11.0,0.0
7798,46.0,61.0,60.0,12.0,0.0
7799,49.0,0.0,60.0,12.0,0.0
7800,49.0,124.0,120.0,3.0,0.0
7801,44.0,3.0,120.0,13.0,0.0
7802,56.0,124.0,1440.0,3.0,0.0
7803,32.0,46.0,120.0,14.0,0.0
7804,68.0,2.0,60.0,10.0,0.0
7805,63.0,4.0,60.0,11.0,0.0
7806,51.0,0.0,60.0,12.0,0.0
7807,48.0,114.0,60.0,12.0,0.0
7808,63.0,2.0,60.0,10.0,0.0
7809,60.0,4.0,60.0,11.0,0.0
7810,51.0,0.0,60.0,12.0,0.0
7811,56.0,114.0,60.0,12.0,0.0
7812,68.0,2.0,60.0,10.0,0.0
7813,63.0,4.0,60.0,11.0,0.0
7814,48.0,185.0,60.0,12.0,0.0
7815,51.0,0.0,60.0,12.0,0.0
7816,68.0,10.0,960.0,1.0,0.0
7817,42.0,3.0,120.0,13.0,0.0
7818,30.0,46.0,120.0,14.0,0.0
7819,68.0,2.0,60.0,10.0,0.0
7820,63.0,4.0,60.0,11.0,0.0
7821,48.0,114.0,60.0,12.0,0.0
7822,51.0,0.0,60.0,12.0,0.0
7823,63.0,2.0,60.0,10.0,0.0
7824,60.0,4.0,60.0,11.0,0.0
7825,56.0,0.0,60.0,12.0,0.0
7826,51.0,114.0,60.0,12.0,0.0
7827,68.0,2.0,60.0,10.0,0.0
7828,63.0,4.0,60.0,11.0,0.0
7829,51.0,185.0,60.0,12.0,0.0
7830,48.0,0.0,60.0,12.0,0.0
7831,41.0,3.0,120.0,13.0,0.0
7832,29.0,46.0,120.0,14.0,0.0
7833,68.0,2.0,60.0,10.0,0.0
7834,65.0,4.0,60.0,11.0,0.0
7835,49.0,114.0,60.0,12.0,0.0
7836,53.0,0.0,60.0,12.0,0.0
7837,65.0,2.0,60.0,10.0,0.0
7838,61.0,4.0,60.0,11.0,0.0
7839,53.0,0.0,60.0,12.0,0.0
7840,56.0,114.0,60.0,12.0,0.0
7841,68.0,2.0,60.0,10.0,0.0
7842,65.0,4.0,60.0,11.0,0.0
7843,53.0,51.0,60.0,12.0,0.0
7844,49.0,0.0,60.0,12.0,0.0
7845,66.0,10.0,240.0,1.0,0.0
7846,42.0,3.0,120.0,13.0,0.0
7847,54.0,48.0,240.0,3.0,0.0
7848,30.0,46.0,120.0,14.0,0.0
7849,66.0,2.0,60.0,10.0,0.0
7850,63.0,4.0,60.0,11.0,0.0
7851,46.0,0.0,60.0,12.0,0.0
7852,51.0,56.0,60.0,12.0,0.0
7853,63.0,2.0,60.0,10.0,0.0
7854,58.0,4.0,60.0,11.0,0.0
7855,68.0,10.0,120.0,1.0,0.0
7856,54.0,0.0,60.0,12.0,0.0
7857,51.0,56.0,60.0,12.0,0.0
7858,56.0,48.0,120.0,3.0,0.0
7859,66.0,2.0,60.0,10.0,0.0
7860,70.0,10.0,120.0,1.0,0.0
7861,63.0,4.0,60.0,11.0,0.0
7862,51.0,0.0,60.0,12.0,0.0
7863,46.0,51.0,60.0,12.0,0.0
7864,58.0,124.0,120.0,3.0,0.0
7865,61.0,10.0,480.0,1.0,0.0
7866,44.0,3.0,120.0,13.0,0.0
7867,49.0,119.0,480.0,3.0,0.0
7868,32.0,46.0,120.0,14.0,0.0
7869,65.0,2.0,60.0,10.0,0.0
7870,61.0,4.0,60.0,11.0,0.0
7871,49.0,0.0,60.0,12.0,0.0
7872,44.0,114.0,60.0,12.0,0.0
7873,61.0,2.0,60.0,10.0,0.0
7874,56.0,4.0,60.0,11.0,0.0
7875,53.0,114.0,60.0,12.0,0.0
7876,49.0,0.0,60.0,12.0,0.0
7877,65.0,2.0,60.0,10.0,0.0
7878,61.0,4.0,60.0,11.0,0.0
7879,49.0,0.0,60.0,12.0,0.0
7880,44.0,56.0,60.0,12.0,0.0
7881,77.0,6.0,960.0,0.0,0.0
7882,60.0,10.0,480.0,1.0,0.0
7883,44.0,3.0,120.0,13.0,0.0
7884,48.0,124.0,480.0,3.0,0.0
7885,32.0,46.0,120.0,14.0,0.0
7886,65.0,2.0,60.0,10.0,0.0
7887,63.0,4.0,60.0,11.0,0.0
7888,48.0,114.0,60.0,12.0,0.0
7889,51.0,0.0,60.0,12.0,0.0
7890,63.0,2.0,60.0,10.0,0.0
7891,60.0,4.0,60.0,11.0,0.0
7892,53.0,114.0,60.0,12.0,0.0
7893,51.0,0.0,60.0,12.0,0.0
7894,65.0,2.0,60.0,10.0,0.0
7895,63.0,4.0,60.0,11.0,0.0
7896,48.0,51.0,60.0,12.0,0.0
7897,51.0,0.0,60.0,12.0,0.0
7898,65.0,10.0,480.0,1.0,0.0
7899,46.0,3.0,120.0,13.0,0.0
7900,53.0,119.0,480.0,3.0,0.0
7901,34.0,46.0,120.0,14.0,0.0
7902,73.0,2.0,60.0,10.0,0.0
7903,65.0,4.0,60.0,11.0,0.0
7904,58.0,0.0,60.0,12.0,0.0
7905,49.0,114.0,60.0,12.0,0.0
7906,70.0,2.0,60.0,10.0,0.0
7907,61.0,4.0,60.0,11.0,0.0
7908,53.0,0.0,60.0,12.0,0.0
7909,61.0,114.0,60.0,12.0,0.0
7910,73.0,2.0,60.0,10.0,0.0
7911,65.0,4.0,60.0,11.0,0.0
7912,58.0,0.0,60.0,12.0,0.0
7913,49.0,50.0,60.0,12.0,0.0
7914,75.0,1.0,240.0,0.0,0.0
7915,63.0,10.0,240.0,1.0,0.0
7916,39.0,3.0,120.0,13.0,0.0
7917,51.0,48.0,240.0,3.0,0.0
7918,27.0,46.0,120.0,14.0,0.0
7919,71.0,2.0,60.0,10.0,0.0
7920,66.0,4.0,60.0,11.0,0.0
7921,54.0,0.0,60.0,12.0,0.0
7922,47.0,55.0,60.0,12.0,0.0
7923,66.0,2.0,60.0,10.0,0.0
7924,77.0,1.0,120.0,0.0,0.0
7925,65.0,10.0,120.0,1.0,0.0
7926,63.0,4.0,60.0,11.0,0.0
7927,54.0,0.0,60.0,12.0,0.0
7928,59.0,55.0,60.0,12.0,0.0
7929,53.0,48.0,120.0,3.0,0.0
7930,71.0,2.0,60.0,10.0,0.0
7931,78.0,1.0,120.0,0.0,0.0
7932,66.0,4.0,60.0,11.0,0.0
7933,66.0,10.0,120.0,1.0,0.0
7934,47.0,50.0,60.0,12.0,0.0
7935,54.0,0.0,60.0,12.0,0.0
7936,54.0,124.0,120.0,3.0,0.0
7937,70.0,1.0,480.0,0.0,0.0
7938,58.0,10.0,480.0,1.0,0.0
7939,41.0,3.0,120.0,13.0,0.0
7940,46.0,119.0,480.0,3.0,0.0
7941,29.0,46.0,120.0,14.0,0.0
7942,70.0,2.0,60.0,10.0,0.0
7943,65.0,4.0,60.0,11.0,0.0
7944,53.0,0.0,60.0,12.0,0.0
7945,49.0,114.0,60.0,12.0,0.0
7946,65.0,2.0,60.0,10.0,0.0
7947,61.0,4.0,60.0,11.0,0.0
7948,53.0,114.0,60.0,12.0,0.0
7949,58.0,0.0,60.0,12.0,0.0
7950,70.0,2.0,60.0,10.0,0.0
7951,65.0,4.0,60.0,11.0,0.0
7952,49.0,55.0,60.0,12.0,0.0
7953,53.0,0.0,60.0,12.0,0.0
7954,69.0,1.0,480.0,0.0,0.0
7955,57.0,10.0,480.0,1.0,0.0
7956,41.0,3.0,120.0,13.0,0.0
7957,45.0,43.0,480.0,3.0,0.0
7958,29.0,46.0,120.0,14.0,0.0
7959,69.0,2.0,60.0,10.0,0.0
7960,65.0,4.0,60.0,11.0,0.0
7961,48.0,0.0,60.0,12.0,0.0
7962,53.0,114.0,60.0,12.0,0.0
7963,65.0,2.0,60.0,10.0,0.0
7964,60.0,4.0,60.0,11.0,0.0
7965,57.0,114.0,60.0,12.0,0.0
7966,53.0,0.0,60.0,12.0,0.0
7967,69.0,2.0,60.0,10.0,0.0
7968,65.0,4.0,60.0,11.0,0.0
7969,48.0,50.0,60.0,12.0,0.0
7970,53.0,0.0,60.0,12.0,0.0
7971,77.0,2.0,60.0,10.0,0.0
7972,77.0,1.0,480.0,0.0,0.0
7973,82.0,1.0,960.0,0.0,0.0
7974,58.0,0.0,960.0,4.0,0.0
7975,77.0,3.0,480.0,1.0,0.0
7976,65.0,14.0,60.0,11.0,0.0
7977,58.0,0.0,960.0,6.0,0.0
7978,70.0,2.0,960.0,6.0,0.0
7979,65.0,50.0,480.0,2.0,0.0
7980,46.0,49.0,960.0,5.0,0.0
7981,50.0,5.0,60.0,12.0,0.0
7982,38.0,1.0,60.0,13.0,0.0
7983,38.0,2.0,60.0,3.0,0.0
7984,46.0,37.0,120.0,15.0,0.0
7985,26.0,36.0,60.0,14.0,0.0
7986,77.0,2.0,60.0,10.0,0.0
7987,65.0,21.0,60.0,11.0,0.0
7988,77.0,2.0,60.0,10.0,0.0
7989,65.0,14.0,60.0,11.0,0.0
7990,53.0,5.0,60.0,12.0,0.0
7991,41.0,1.0,60.0,13.0,0.0
7992,41.0,2.0,60.0,3.0,0.0
7993,29.0,36.0,60.0,14.0,0.0
7994,77.0,2.0,60.0,10.0,0.0
7995,65.0,58.0,60.0,11.0,0.0
7996,77.0,2.0,60.0,10.0,0.0
7997,65.0,14.0,60.0,11.0,0.0
7998,58.0,5.0,60.0,12.0,0.0
7999,46.0,1.0,60.0,13.0,0.0
8000,46.0,2.0,60.0,3.0,0.0
8001,34.0,36.0,60.0,14.0,0.0
8002,77.0,2.0,60.0,10.0,0.0
8003,65.0,58.0,60.0,11.0,0.0
8004,77.0,2.0,60.0,10.0,0.0
8005,65.0,14.0,60.0,11.0,0.0
8006,62.0,5.0,60.0,12.0,0.0
8007,50.0,1.0,60.0,13.0,0.0
8008,50.0,2.0,60.0,3.0,0.0
8009,38.0,36.0,60.0,14.0,0.0
8010,77.0,2.0,60.0,10.0,0.0
8011,65.0,4.0,60.0,11.0,0.0
8012,74.0,2.0,60.0,10.0,0.0
8013,74.0,1.0,360.0,0.0,0.0
8014,74.0,3.0,360.0,1.0,0.0
8015,62.0,58.0,60.0,11.0,0.0
8016,62.0,50.0,360.0,2.0,0.0
8017,65.0,4.0,330.0,12.0,0.0
8018,53.0,1.0,330.0,13.0,0.0
8019,53.0,0.0,330.0,3.0,0.0
8020,41.0,2.0,330.0,14.0,0.0
8021,74.0,2.0,60.0,10.0,0.0
8022,62.0,58.0,60.0,11.0,0.0
8023,74.0,2.0,60.0,10.0,0.0
8024,62.0,58.0,60.0,11.0,0.0
8025,74.0,2.0,60.0,10.0,0.0
8026,62.0,58.0,60.0,11.0,0.0
8027,74.0,2.0,60.0,10.0,0.0
8028,62.0,54.0,60.0,11.0,0.0
8029,74.0,1.0,60.0,10.0,0.0
8030,62.0,2.0,60.0,11.0,0.0
8031,70.0,2.0,60.0,10.0,0.0
8032,70.0,0.0,120.0,0.0,0.0
8033,58.0,14.0,60.0,11.0,0.0
8034,70.0,0.0,120.0,1.0,0.0
8035,58.0,1.0,120.0,2.0,0.0
8036,50.0,5.0,60.0,12.0,0.0
8037,38.0,1.0,60.0,13.0,0.0
8038,38.0,2.0,60.0,3.0,0.0
8039,26.0,36.0,60.0,14.0,0.0
8040,70.0,2.0,60.0,10.0,0.0
8041,58.0,4.0,60.0,11.0,0.0
8042,79.0,2.0,60.0,10.0,0.0
8043,79.0,1.0,480.0,0.0,0.0
8044,82.0,0.0,960.0,0.0,0.0
8045,60.0,1.0,960.0,4.0,0.0
8046,70.0,0.0,960.0,1.0,0.0
8047,79.0,3.0,480.0,1.0,0.0
8048,67.0,14.0,60.0,11.0,0.0
8049,58.0,2.0,960.0,6.0,0.0
8050,70.0,0.0,960.0,6.0,0.0
8051,67.0,50.0,480.0,2.0,0.0
8052,58.0,49.0,960.0,5.0,0.0
8053,51.0,5.0,60.0,12.0,0.0
8054,39.0,1.0,60.0,13.0,0.0
8055,39.0,2.0,60.0,3.0,0.0
8056,46.0,37.0,120.0,15.0,0.0
8057,27.0,36.0,60.0,14.0,0.0
8058,79.0,2.0,60.0,10.0,0.0
8059,67.0,21.0,60.0,11.0,0.0
8060,79.0,2.0,60.0,10.0,0.0
8061,67.0,14.0,60.0,11.0,0.0
8062,55.0,5.0,60.0,12.0,0.0
8063,43.0,1.0,60.0,13.0,0.0
8064,43.0,2.0,60.0,3.0,0.0
8065,31.0,36.0,60.0,14.0,0.0
8066,79.0,2.0,60.0,10.0,0.0
8067,67.0,58.0,60.0,11.0,0.0
8068,79.0,2.0,60.0,10.0,0.0
8069,67.0,14.0,60.0,11.0,0.0
8070,58.0,5.0,60.0,12.0,0.0
8071,46.0,1.0,60.0,13.0,0.0
8072,46.0,2.0,60.0,3.0,0.0
8073,34.0,36.0,60.0,14.0,0.0
8074,79.0,2.0,60.0,10.0,0.0
8075,67.0,58.0,60.0,11.0,0.0
8076,79.0,2.0,60.0,10.0,0.0
8077,67.0,14.0,60.0,11.0,0.0
8078,63.0,5.0,60.0,12.0,0.0
8079,51.0,1.0,60.0,13.0,0.0
8080,51.0,2.0,60.0,3.0,0.0
8081,39.0,36.0,60.0,14.0,0.0
8082,79.0,2.0,60.0,10.0,0.0
8083,67.0,4.0,60.0,11.0,0.0
8084,75.0,2.0,60.0,10.0,0.0
8085,75.0,1.0,360.0,0.0,0.0
8086,63.0,58.0,60.0,11.0,0.0
8087,75.0,3.0,360.0,1.0,0.0
8088,63.0,50.0,360.0,2.0,0.0
8089,67.0,4.0,330.0,12.0,0.0
8090,55.0,1.0,330.0,13.0,0.0
8091,55.0,2.0,330.0,3.0,0.0
8092,43.0,2.0,330.0,14.0,0.0
8093,75.0,2.0,60.0,10.0,0.0
8094,63.0,58.0,60.0,11.0,0.0
8095,75.0,2.0,60.0,10.0,0.0
8096,63.0,58.0,60.0,11.0,0.0
8097,75.0,2.0,60.0,10.0,0.0
8098,63.0,58.0,60.0,11.0,0.0
8099,75.0,2.0,60.0,10.0,0.0
8100,63.0,54.0,60.0,11.0,0.0
8101,75.0,1.0,60.0,10.0,0.0
8102,63.0,0.0,60.0,11.0,0.0
8103,72.0,2.0,60.0,10.0,0.0
8104,72.0,1.0,120.0,0.0,0.0
8105,72.0,0.0,120.0,1.0,0.0
8106,60.0,14.0,60.0,11.0,0.0
8107,60.0,1.0,120.0,2.0,0.0
8108,52.0,5.0,60.0,12.0,0.0
8109,40.0,1.0,60.0,13.0,0.0
8110,40.0,2.0,60.0,3.0,0.0
8111,28.0,36.0,60.0,14.0,0.0
8112,72.0,2.0,60.0,10.0,0.0
8113,60.0,4.0,60.0,11.0,0.0
8114,77.0,2.0,60.0,10.0,0.0
8115,77.0,1.0,240.0,0.0,0.0
8116,82.0,0.0,480.0,0.0,0.0
8117,77.0,3.0,240.0,1.0,0.0
8118,65.0,14.0,60.0,11.0,0.0
8119,62.0,0.0,480.0,4.0,0.0
8120,58.0,2.0,480.0,6.0,0.0
8121,70.0,0.0,480.0,6.0,0.0
8122,65.0,50.0,240.0,2.0,0.0
8123,58.0,49.0,480.0,5.0,0.0
8124,53.0,5.0,60.0,12.0,0.0
8125,41.0,1.0,60.0,13.0,0.0
8126,41.0,2.0,60.0,3.0,0.0
8127,41.0,37.0,120.0,15.0,0.0
8128,29.0,36.0,60.0,14.0,0.0
8129,77.0,2.0,60.0,10.0,0.0
8130,65.0,21.0,60.0,11.0,0.0
8131,77.0,2.0,60.0,10.0,0.0
8132,65.0,4.0,60.0,11.0,0.0
8133,65.0,15.0,60.0,12.0,0.0
8134,53.0,1.0,60.0,13.0,0.0
8135,53.0,2.0,60.0,3.0,0.0
8136,41.0,36.0,60.0,14.0,0.0
8137,77.0,2.0,60.0,10.0,0.0
8138,65.0,4.0,60.0,11.0,0.0
8139,74.0,2.0,60.0,10.0,0.0
8140,74.0,1.0,120.0,0.0,0.0
8141,62.0,58.0,60.0,11.0,0.0
8142,74.0,3.0,120.0,1.0,0.0
8143,62.0,50.0,120.0,2.0,0.0
8144,74.0,2.0,60.0,10.0,0.0
8145,62.0,4.0,60.0,11.0,0.0
8146,70.0,2.0,60.0,10.0,0.0
8147,70.0,1.0,120.0,0.0,0.0
8148,70.0,0.0,120.0,1.0,0.0
8149,58.0,14.0,60.0,11.0,0.0
8150,58.0,1.0,120.0,2.0,0.0
8151,53.0,5.0,60.0,12.0,0.0
8152,41.0,1.0,60.0,13.0,0.0
8153,41.0,2.0,60.0,3.0,0.0
8154,29.0,36.0,60.0,14.0,0.0
8155,70.0,2.0,60.0,10.0,0.0
8156,58.0,4.0,60.0,11.0,0.0
8157,77.0,2.0,60.0,10.0,0.0
8158,77.0,1.0,240.0,0.0,0.0
8159,81.0,0.0,480.0,0.0,0.0
8160,65.0,14.0,60.0,11.0,0.0
8161,77.0,3.0,240.0,1.0,0.0
8162,60.0,0.0,480.0,4.0,0.0
8163,53.0,2.0,480.0,6.0,0.0
8164,65.0,0.0,480.0,6.0,0.0
8165,65.0,50.0,240.0,2.0,0.0
8166,53.0,49.0,480.0,5.0,0.0
8167,51.0,5.0,60.0,12.0,0.0
8168,39.0,1.0,60.0,13.0,0.0
8169,39.0,2.0,60.0,3.0,0.0
8170,41.0,37.0,120.0,15.0,0.0
8171,27.0,36.0,60.0,14.0,0.0
8172,77.0,2.0,60.0,10.0,0.0
8173,65.0,21.0,60.0,11.0,0.0
8174,77.0,2.0,60.0,10.0,0.0
8175,65.0,14.0,60.0,11.0,0.0
8176,63.0,5.0,60.0,12.0,0.0
8177,51.0,1.0,60.0,13.0,0.0
8178,51.0,2.0,60.0,3.0,0.0
8179,39.0,36.0,60.0,14.0,0.0
8180,77.0,2.0,60.0,10.0,0.0
8181,65.0,4.0,60.0,11.0,0.0
8182,72.0,2.0,60.0,10.0,0.0
8183,72.0,1.0,120.0,0.0,0.0
8184,60.0,58.0,60.0,11.0,0.0
8185,72.0,3.0,120.0,1.0,0.0
8186,60.0,50.0,120.0,2.0,0.0
8187,72.0,2.0,60.0,10.0,0.0
8188,60.0,4.0,60.0,11.0,0.0
8189,69.0,2.0,60.0,10.0,0.0
8190,69.0,1.0,120.0,0.0,0.0
8191,57.0,14.0,60.0,11.0,0.0
8192,69.0,0.0,120.0,1.0,0.0
8193,57.0,1.0,120.0,2.0,0.0
8194,51.0,5.0,60.0,12.0,0.0
8195,39.0,1.0,60.0,13.0,0.0
8196,39.0,2.0,60.0,3.0,0.0
8197,27.0,36.0,60.0,14.0,0.0
8198,69.0,2.0,60.0,10.0,0.0
8199,57.0,4.0,60.0,11.0,0.0
8200,70.0,2.0,60.0,10.0,0.0
8201,82.0,0.0,60.0,10.0,0.0
8202,82.0,0.0,960.0,0.0,0.0
8203,77.0,1.0,960.0,0.0,0.0
8204,65.0,3.0,480.0,4.0,0.0
8205,77.0,0.0,480.0,1.0,0.0
8206,65.0,0.0,480.0,1.0,0.0
8207,58.0,14.0,60.0,11.0,0.0
8208,58.0,2.0,960.0,6.0,0.0
8209,70.0,0.0,960.0,6.0,0.0
8210,65.0,0.0,480.0,2.0,0.0
8211,77.0,1.0,480.0,2.0,0.0
8212,50.0,5.0,60.0,12.0,0.0
8213,53.0,49.0,480.0,5.0,0.0
8214,38.0,3.0,60.0,13.0,0.0
8215,50.0,0.0,960.0,3.0,0.0
8216,53.0,38.0,960.0,3.0,0.0
8217,46.0,37.0,120.0,15.0,0.0
8218,26.0,36.0,60.0,14.0,0.0
8219,70.0,0.0,60.0,10.0,0.0
8220,82.0,2.0,60.0,10.0,0.0
8221,77.0,21.0,60.0,11.0,0.0
8222,82.0,2.0,60.0,10.0,0.0
8223,70.0,0.0,60.0,10.0,0.0
8224,77.0,14.0,60.0,11.0,0.0
8225,53.0,5.0,60.0,12.0,0.0
8226,41.0,3.0,60.0,13.0,0.0
8227,29.0,36.0,60.0,14.0,0.0
8228,70.0,2.0,60.0,10.0,0.0
8229,82.0,0.0,60.0,10.0,0.0
8230,77.0,58.0,60.0,11.0,0.0
8231,82.0,0.0,60.0,10.0,0.0
8232,70.0,2.0,60.0,10.0,0.0
8233,77.0,14.0,60.0,11.0,0.0
8234,58.0,5.0,60.0,12.0,0.0
8235,46.0,3.0,60.0,13.0,0.0
8236,34.0,36.0,60.0,14.0,0.0
8237,70.0,2.0,60.0,10.0,0.0
8238,82.0,0.0,60.0,10.0,0.0
8239,77.0,58.0,60.0,11.0,0.0
8240,70.0,2.0,60.0,10.0,0.0
8241,82.0,0.0,60.0,10.0,0.0
8242,77.0,14.0,60.0,11.0,0.0
8243,62.0,5.0,60.0,12.0,0.0
8244,50.0,3.0,60.0,13.0,0.0
8245,38.0,36.0,60.0,14.0,0.0
8246,70.0,2.0,60.0,10.0,0.0
8247,82.0,0.0,60.0,10.0,0.0
8248,77.0,5.0,60.0,11.0,0.0
8249,82.0,0.0,60.0,10.0,0.0
8250,70.0,2.0,60.0,10.0,0.0
8251,62.0,3.0,360.0,4.0,0.0
8252,74.0,0.0,360.0,1.0,0.0
8253,62.0,0.0,360.0,1.0,0.0
8254,74.0,58.0,60.0,11.0,0.0
8255,62.0,0.0,360.0,2.0,0.0
8256,74.0,1.0,360.0,2.0,0.0
8257,65.0,4.0,330.0,12.0,0.0
8258,50.0,49.0,360.0,5.0,0.0
8259,53.0,1.0,330.0,13.0,0.0
8260,41.0,3.0,330.0,14.0,0.0
8261,82.0,2.0,60.0,10.0,0.0
8262,70.0,0.0,60.0,10.0,0.0
8263,74.0,58.0,60.0,11.0,0.0
8264,82.0,2.0,60.0,10.0,0.0
8265,70.0,0.0,60.0,10.0,0.0
8266,74.0,58.0,60.0,11.0,0.0
8267,70.0,0.0,60.0,10.0,0.0
8268,82.0,2.0,60.0,10.0,0.0
8269,74.0,58.0,60.0,11.0,0.0
8270,70.0,2.0,60.0,10.0,0.0
8271,82.0,0.0,60.0,10.0,0.0
8272,74.0,54.0,60.0,11.0,0.0
8273,70.0,0.0,60.0,10.0,0.0
8274,82.0,1.0,60.0,10.0,0.0
8275,74.0,2.0,60.0,11.0,0.0
8276,82.0,0.0,60.0,10.0,0.0
8277,70.0,2.0,60.0,10.0,0.0
8278,58.0,1.0,120.0,1.0,0.0
8279,70.0,0.0,120.0,1.0,0.0
8280,70.0,14.0,60.0,11.0,0.0
8281,58.0,0.0,120.0,4.0,0.0
8282,70.0,0.0,120.0,2.0,0.0
8283,58.0,1.0,120.0,2.0,0.0
8284,46.0,11.0,120.0,5.0,0.0
8285,50.0,5.0,60.0,12.0,0.0
8286,38.0,3.0,60.0,13.0,0.0
8287,26.0,36.0,60.0,14.0,0.0
8288,70.0,0.0,60.0,10.0,0.0
8289,82.0,2.0,60.0,10.0,0.0
8290,70.0,4.0,60.0,11.0,0.0
8291,70.0,2.0,60.0,10.0,0.0
8292,82.0,0.0,60.0,10.0,0.0
8293,82.0,0.0,960.0,0.0,0.0
8294,79.0,1.0,960.0,0.0,0.0
8295,58.0,1.0,960.0,4.0,0.0
8296,79.0,3.0,480.0,1.0,0.0
8297,67.0,0.0,480.0,1.0,0.0
8298,79.0,14.0,60.0,11.0,0.0
8299,58.0,0.0,960.0,6.0,0.0
8300,70.0,2.0,960.0,6.0,0.0
8301,67.0,12.0,480.0,2.0,0.0
8302,46.0,11.0,960.0,5.0,0.0
8303,51.0,5.0,60.0,12.0,0.0
8304,39.0,3.0,60.0,13.0,0.0
8305,43.0,38.0,480.0,3.0,0.0
8306,55.0,0.0,480.0,3.0,0.0
8307,46.0,37.0,120.0,15.0,0.0
8308,27.0,36.0,60.0,14.0,0.0
8309,82.0,0.0,60.0,10.0,0.0
8310,70.0,2.0,60.0,10.0,0.0
8311,79.0,21.0,60.0,11.0,0.0
8312,70.0,2.0,60.0,10.0,0.0
8313,82.0,0.0,60.0,10.0,0.0
8314,79.0,14.0,60.0,11.0,0.0
8315,55.0,5.0,60.0,12.0,0.0
8316,43.0,3.0,60.0,13.0,0.0
8317,31.0,36.0,60.0,14.0,0.0
8318,70.0,2.0,60.0,10.0,0.0
8319,82.0,0.0,60.0,10.0,0.0
8320,79.0,58.0,60.0,11.0,0.0
8321,82.0,0.0,60.0,10.0,0.0
8322,70.0,2.0,60.0,10.0,0.0
8323,79.0,14.0,60.0,11.0,0.0
8324,58.0,5.0,60.0,12.0,0.0
8325,46.0,3.0,60.0,13.0,0.0
8326,34.0,36.0,60.0,14.0,0.0
8327,82.0,0.0,60.0,10.0,0.0
8328,70.0,2.0,60.0,10.0,0.0
8329,79.0,58.0,60.0,11.0,0.0
8330,70.0,2.0,60.0,10.0,0.0
8331,82.0,0.0,60.0,10.0,0.0
8332,79.0,14.0,60.0,11.0,0.0
8333,63.0,5.0,60.0,12.0,0.0
8334,51.0,3.0,60.0,13.0,0.0
8335,39.0,36.0,60.0,14.0,0.0
8336,70.0,2.0,60.0,10.0,0.0
8337,82.0,0.0,60.0,10.0,0.0
8338,79.0,5.0,60.0,11.0,0.0
8339,70.0,2.0,60.0,10.0,0.0
8340,82.0,0.0,60.0,10.0,0.0
8341,75.0,58.0,60.0,11.0,0.0
8342,63.0,3.0,360.0,1.0,0.0
8343,75.0,0.0,360.0,1.0,0.0
8344,63.0,12.0,360.0,2.0,0.0
8345,67.0,4.0,330.0,12.0,0.0
8346,55.0,1.0,330.0,13.0,0.0
8347,43.0,0.0,360.0,3.0,0.0
8348,51.0,38.0,360.0,3.0,0.0
8349,43.0,3.0,330.0,14.0,0.0
8350,70.0,2.0,60.0,10.0,0.0
8351,82.0,0.0,60.0,10.0,0.0
8352,75.0,58.0,60.0,11.0,0.0
8353,70.0,2.0,60.0,10.0,0.0
8354,82.0,0.0,60.0,10.0,0.0
8355,75.0,58.0,60.0,11.0,0.0
8356,82.0,2.0,60.0,10.0,0.0
8357,70.0,0.0,60.0,10.0,0.0
8358,75.0,58.0,60.0,11.0,0.0
8359,82.0,0.0,60.0,10.0,0.0
8360,70.0,2.0,60.0,10.0,0.0
8361,75.0,54.0,60.0,11.0,0.0
8362,82.0,0.0,60.0,10.0,0.0
8363,70.0,1.0,60.0,10.0,0.0
8364,75.0,2.0,60.0,11.0,0.0
8365,82.0,0.0,60.0,10.0,0.0
8366,70.0,2.0,60.0,10.0,0.0
8367,70.0,0.0,120.0,1.0,0.0
8368,58.0,0.0,120.0,1.0,0.0
8369,70.0,14.0,60.0,11.0,0.0
8370,58.0,1.0,120.0,2.0,0.0
8371,52.0,5.0,60.0,12.0,0.0
8372,40.0,3.0,60.0,13.0,0.0
8373,46.0,0.0,120.0,3.0,0.0
8374,40.0,38.0,120.0,3.0,0.0
8375,28.0,36.0,60.0,14.0,0.0
8376,70.0,2.0,60.0,10.0,0.0
8377,82.0,0.0,60.0,10.0,0.0
8378,70.0,4.0,60.0,11.0,0.0
8379,70.0,0.0,60.0,10.0,0.0
8380,82.0,2.0,60.0,10.0,0.0
8381,82.0,0.0,2040.0,0.0,0.0
8382,80.0,1.0,2040.0,0.0,0.0
8383,58.0,1.0,2040.0,4.0,0.0
8384,70.0,0.0,60.0,11.0,0.0
8385,80.0,14.0,60.0,11.0,0.0
8386,80.0,0.0,480.0,1.0,0.0
8387,70.0,53.0,480.0,1.0,0.0
8388,70.0,0.0,2040.0,6.0,0.0
8389,58.0,2.0,2040.0,6.0,0.0
8390,58.0,0.0,2040.0,2.0,0.0
8391,68.0,0.0,2040.0,2.0,0.0
8392,53.0,5.0,60.0,12.0,0.0
8393,46.0,1.0,2040.0,5.0,0.0
8394,41.0,3.0,60.0,13.0,0.0
8395,56.0,0.0,1920.0,3.0,0.0
8396,53.0,50.0,1920.0,3.0,0.0
8397,46.0,37.0,120.0,15.0,0.0
8398,29.0,36.0,60.0,14.0,0.0
8399,82.0,0.0,60.0,10.0,0.0
8400,70.0,2.0,60.0,10.0,0.0
8401,80.0,0.0,60.0,11.0,0.0
8402,70.0,21.0,60.0,11.0,0.0
8403,82.0,0.0,60.0,10.0,0.0
8404,70.0,2.0,60.0,10.0,0.0
8405,70.0,14.0,60.0,11.0,0.0
8406,80.0,0.0,60.0,11.0,0.0
8407,56.0,5.0,60.0,12.0,0.0
8408,44.0,3.0,60.0,13.0,0.0
8409,32.0,36.0,60.0,14.0,0.0
8410,82.0,2.0,60.0,10.0,0.0
8411,70.0,0.0,60.0,10.0,0.0
8412,70.0,0.0,60.0,11.0,0.0
8413,80.0,58.0,60.0,11.0,0.0
8414,82.0,0.0,60.0,10.0,0.0
8415,70.0,2.0,60.0,10.0,0.0
8416,80.0,0.0,60.0,11.0,0.0
8417,70.0,14.0,60.0,11.0,0.0
8418,62.0,5.0,60.0,12.0,0.0
8419,50.0,3.0,60.0,13.0,0.0
8420,38.0,36.0,60.0,14.0,0.0
8421,70.0,0.0,60.0,10.0,0.0
8422,82.0,2.0,60.0,10.0,0.0
8423,80.0,58.0,60.0,11.0,0.0
8424,70.0,0.0,60.0,11.0,0.0
8425,82.0,0.0,60.0,10.0,0.0
8426,70.0,2.0,60.0,10.0,0.0
8427,80.0,0.0,60.0,11.0,0.0
8428,70.0,14.0,60.0,11.0,0.0
8429,65.0,5.0,60.0,12.0,0.0
8430,53.0,3.0,60.0,13.0,0.0
8431,41.0,36.0,60.0,14.0,0.0
8432,82.0,2.0,60.0,10.0,0.0
8433,70.0,0.0,60.0,10.0,0.0
8434,70.0,5.0,60.0,11.0,0.0
8435,80.0,0.0,60.0,11.0,0.0
8436,82.0,2.0,60.0,10.0,0.0
8437,70.0,0.0,60.0,10.0,0.0
8438,70.0,10.0,60.0,11.0,0.0
8439,80.0,0.0,60.0,11.0,0.0
8440,65.0,4.0,60.0,1.0,0.0
8441,68.0,5.0,60.0,12.0,0.0
8442,56.0,3.0,60.0,13.0,0.0
8443,46.0,37.0,120.0,15.0,0.0
8444,44.0,36.0,60.0,14.0,0.0
8445,70.0,2.0,60.0,10.0,0.0
8446,82.0,0.0,60.0,10.0,0.0
8447,80.0,21.0,60.0,11.0,0.0
8448,70.0,0.0,60.0,11.0,0.0
8449,70.0,2.0,60.0,10.0,0.0
8450,82.0,0.0,60.0,10.0,0.0
8451,80.0,0.0,60.0,11.0,0.0
8452,70.0,10.0,60.0,11.0,0.0
8453,68.0,4.0,60.0,1.0,0.0
8454,65.0,5.0,60.0,12.0,0.0
8455,53.0,3.0,60.0,13.0,0.0
8456,41.0,36.0,60.0,14.0,0.0
8457,70.0,2.0,60.0,10.0,0.0
8458,82.0,0.0,60.0,10.0,0.0
8459,80.0,58.0,60.0,11.0,0.0
8460,70.0,0.0,60.0,11.0,0.0
8461,82.0,2.0,60.0,10.0,0.0
8462,70.0,0.0,60.0,10.0,0.0
8463,80.0,0.0,60.0,11.0,0.0
8464,70.0,10.0,60.0,11.0,0.0
8465,74.0,4.0,60.0,1.0,0.0
8466,62.0,5.0,60.0,12.0,0.0
8467,50.0,3.0,60.0,13.0,0.0
8468,38.0,36.0,60.0,14.0,0.0
8469,70.0,2.0,60.0,10.0,0.0
8470,82.0,0.0,60.0,10.0,0.0
8471,70.0,0.0,60.0,11.0,0.0
8472,80.0,58.0,60.0,11.0,0.0
8473,70.0,0.0,60.0,10.0,0.0
8474,82.0,2.0,60.0,10.0,0.0
8475,70.0,10.0,60.0,11.0,0.0
8476,80.0,0.0,60.0,11.0,0.0
8477,77.0,4.0,60.0,1.0,0.0
8478,56.0,5.0,60.0,12.0,0.0
8479,44.0,3.0,60.0,13.0,0.0
8480,32.0,36.0,60.0,14.0,0.0
8481,70.0,0.0,60.0,10.0,0.0
8482,82.0,2.0,60.0,10.0,0.0
8483,70.0,0.0,60.0,11.0,0.0
8484,80.0,58.0,60.0,11.0,0.0
8485,70.0,0.0,60.0,10.0,0.0
8486,82.0,2.0,60.0,10.0,0.0
8487,80.0,0.0,60.0,11.0,0.0
8488,70.0,10.0,60.0,11.0,0.0
8489,80.0,4.0,60.0,1.0,0.0
8490,53.0,5.0,60.0,12.0,0.0
8491,41.0,3.0,60.0,13.0,0.0
8492,46.0,37.0,120.0,15.0,0.0
8493,29.0,36.0,60.0,14.0,0.0
8494,70.0,2.0,60.0,10.0,0.0
8495,82.0,0.0,60.0,10.0,0.0
8496,70.0,21.0,60.0,11.0,0.0
8497,80.0,0.0,60.0,11.0,0.0
8498,82.0,2.0,60.0,10.0,0.0
8499,70.0,0.0,60.0,10.0,0.0
8500,70.0,0.0,60.0,11.0,0.0
8501,77.0,4.0,60.0,1.0,0.0
8502,80.0,10.0,60.0,11.0,0.0
8503,56.0,5.0,60.0,12.0,0.0
8504,44.0,3.0,60.0,13.0,0.0
8505,32.0,36.0,60.0,14.0,0.0
8506,70.0,2.0,60.0,10.0,0.0
8507,82.0,0.0,60.0,10.0,0.0
8508,80.0,0.0,60.0,11.0,0.0
8509,70.0,58.0,60.0,11.0,0.0
8510,70.0,0.0,60.0,10.0,0.0
8511,82.0,2.0,60.0,10.0,0.0
8512,74.0,4.0,60.0,1.0,0.0
8513,70.0,0.0,60.0,11.0,0.0
8514,80.0,10.0,60.0,11.0,0.0
8515,62.0,5.0,60.0,12.0,0.0
8516,50.0,3.0,60.0,13.0,0.0
8517,38.0,36.0,60.0,14.0,0.0
8518,82.0,2.0,60.0,10.0,0.0
8519,70.0,0.0,60.0,10.0,0.0
8520,80.0,0.0,60.0,11.0,0.0
8521,70.0,58.0,60.0,11.0,0.0
8522,82.0,2.0,60.0,10.0,0.0
8523,70.0,0.0,60.0,10.0,0.0
8524,68.0,4.0,60.0,1.0,0.0
8525,80.0,0.0,60.0,11.0,0.0
8526,70.0,10.0,60.0,11.0,0.0
8527,65.0,5.0,60.0,12.0,0.0
8528,53.0,3.0,60.0,13.0,0.0
8529,41.0,36.0,60.0,14.0,0.0
8530,70.0,2.0,60.0,10.0,0.0
8531,82.0,0.0,60.0,10.0,0.0
8532,70.0,0.0,60.0,11.0,0.0
8533,80.0,58.0,60.0,11.0,0.0
8534,82.0,2.0,60.0,10.0,0.0
8535,70.0,0.0,60.0,10.0,0.0
8536,70.0,0.0,60.0,11.0,0.0
8537,80.0,10.0,60.0,11.0,0.0
8538,65.0,4.0,60.0,1.0,0.0
8539,68.0,5.0,60.0,12.0,0.0
8540,56.0,3.0,60.0,13.0,0.0
8541,46.0,37.0,120.0,15.0,0.0
8542,44.0,36.0,60.0,14.0,0.0
8543,82.0,2.0,60.0,10.0,0.0
8544,70.0,0.0,60.0,10.0,0.0
8545,80.0,21.0,60.0,11.0,0.0
8546,70.0,0.0,60.0,11.0,0.0
8547,82.0,0.0,60.0,10.0,0.0
8548,70.0,2.0,60.0,10.0,0.0
8549,68.0,4.0,60.0,1.0,0.0
8550,80.0,10.0,60.0,11.0,0.0
8551,70.0,0.0,60.0,11.0,0.0
8552,65.0,5.0,60.0,12.0,0.0
8553,53.0,3.0,60.0,13.0,0.0
8554,41.0,36.0,60.0,14.0,0.0
8555,70.0,2.0,60.0,10.0,0.0
8556,82.0,0.0,60.0,10.0,0.0
8557,70.0,58.0,60.0,11.0,0.0
8558,80.0,0.0,60.0,11.0,0.0
8559,70.0,0.0,60.0,10.0,0.0
8560,82.0,2.0,60.0,10.0,0.0
8561,70.0,10.0,60.0,11.0,0.0
8562,74.0,4.0,60.0,1.0,0.0
8563,80.0,0.0,60.0,11.0,0.0
8564,62.0,5.0,60.0,12.0,0.0
8565,50.0,3.0,60.0,13.0,0.0
8566,38.0,36.0,60.0,14.0,0.0
8567,82.0,2.0,60.0,10.0,0.0
8568,70.0,0.0,60.0,10.0,0.0
8569,80.0,0.0,60.0,11.0,0.0
8570,70.0,58.0,60.0,11.0,0.0
8571,70.0,0.0,60.0,10.0,0.0
8572,82.0,2.0,60.0,10.0,0.0
8573,80.0,0.0,60.0,11.0,0.0
8574,70.0,10.0,60.0,11.0,0.0
8575,77.0,4.0,60.0,1.0,0.0
8576,56.0,5.0,60.0,12.0,0.0
8577,44.0,3.0,60.0,13.0,0.0
8578,32.0,36.0,60.0,14.0,0.0
8579,70.0,2.0,60.0,10.0,0.0
8580,82.0,0.0,60.0,10.0,0.0
8581,80.0,20.0,60.0,11.0,0.0
8582,70.0,0.0,60.0,11.0,0.0
8583,70.0,0.0,120.0,10.0,0.0
8584,82.0,1.0,120.0,10.0,0.0
8585,70.0,4.0,120.0,11.0,0.0
8586,80.0,10.0,60.0,1.0,0.0
8587,80.0,0.0,120.0,11.0,0.0
8588,53.0,5.0,120.0,12.0,0.0
8589,41.0,2.0,120.0,13.0,0.0
8590,41.0,44.0,60.0,3.0,0.0
8591,46.0,1.0,120.0,15.0,0.0
8592,29.0,58.0,120.0,14.0,0.0
8593,44.0,48.0,60.0,3.0,0.0
8594,79.0,72.0,60.0,10.0,0.0
8595,80.0,72.0,120.0,10.0,0.0
8596,50.0,48.0,60.0,3.0,0.0
8597,53.0,48.0,60.0,3.0,0.0
8598,76.0,72.0,60.0,10.0,0.0
8599,77.0,72.0,120.0,10.0,0.0
8600,56.0,48.0,60.0,3.0,0.0
8601,53.0,48.0,60.0,3.0,0.0
8602,73.0,72.0,60.0,10.0,0.0
8603,74.0,72.0,120.0,10.0,0.0
8604,50.0,48.0,60.0,3.0,0.0
8605,44.0,48.0,60.0,3.0,0.0
8606,69.0,72.0,60.0,10.0,0.0
8607,70.0,72.0,120.0,10.0,0.0
8608,41.0,48.0,60.0,3.0,0.0
8609,44.0,48.0,60.0,3.0,0.0
8610,67.0,72.0,60.0,10.0,0.0
8611,68.0,72.0,120.0,10.0,0.0
8612,50.0,48.0,60.0,3.0,0.0
8613,53.0,48.0,60.0,3.0,0.0
8614,64.0,72.0,60.0,10.0,0.0
8615,65.0,62.0,120.0,10.0,0.0
8616,56.0,48.0,60.0,3.0,0.0
8617,56.0,10.0,60.0,11.0,0.0
8618,53.0,48.0,60.0,3.0,0.0
8619,61.0,62.0,60.0,10.0,0.0
8620,62.0,62.0,120.0,10.0,0.0
8621,62.0,10.0,60.0,11.0,0.0
8622,50.0,48.0,60.0,3.0,0.0
8623,65.0,10.0,60.0,11.0,0.0
8624,44.0,48.0,60.0,3.0,0.0
8625,57.0,62.0,60.0,10.0,0.0
8626,58.0,120.0,120.0,10.0,0.0
8627,68.0,10.0,60.0,11.0,0.0
8628,41.0,48.0,60.0,3.0,0.0
8629,69.0,120.0,60.0,10.0,0.0
8630,70.0,120.0,120.0,10.0,0.0
8631,73.0,120.0,60.0,10.0,0.0
8632,74.0,120.0,120.0,10.0,0.0
8633,76.0,120.0,60.0,10.0,0.0
8634,77.0,120.0,120.0,10.0,0.0
8635,79.0,120.0,60.0,10.0,0.0
8636,80.0,120.0,120.0,10.0,0.0
8637,79.0,120.0,60.0,10.0,0.0
8638,80.0,120.0,120.0,10.0,0.0
8639,79.0,120.0,60.0,10.0,0.0
8640,80.0,120.0,120.0,10.0,0.0
8641,79.0,120.0,60.0,10.0,0.0
8642,80.0,120.0,120.0,10.0,0.0
8643,79.0,120.0,60.0,10.0,0.0
8644,80.0,110.0,120.0,10.0,0.0
8645,62.0,30.0,60.0,10.0,0.0
8646,63.0,20.0,20.0,10.0,0.0
8647,62.0,20.0,20.0,10.0,0.0
8648,63.0,20.0,20.0,10.0,0.0
8649,62.0,20.0,20.0,10.0,0.0
8650,63.0,20.0,20.0,10.0,0.0
8651,62.0,20.0,20.0,10.0,0.0
8652,63.0,20.0,20.0,10.0,0.0
8653,62.0,20.0,20.0,10.0,0.0
8654,63.0,30.0,20.0,10.0,0.0
8655,60.0,30.0,30.0,10.0,0.0
8656,62.0,60.0,30.0,10.0,0.0
8657,65.0,62.0,60.0,10.0,0.0
8658,74.0,4.0,120.0,1.0,0.0
8659,58.0,0.0,120.0,4.0,0.0
8660,62.0,0.0,120.0,11.0,0.0
8661,77.0,0.0,120.0,1.0,0.0
8662,58.0,0.0,120.0,12.0,0.0
8663,46.0,5.0,120.0,5.0,0.0
8664,56.0,3.0,120.0,13.0,0.0
8665,44.0,46.0,120.0,14.0,0.0
8666,58.0,300.0,60.0,10.0,0.0
8667,81.0,120.0,60.0,10.0,0.0
8668,82.0,110.0,120.0,10.0,0.0
8669,63.0,30.0,60.0,10.0,0.0
8670,65.0,20.0,20.0,10.0,0.0
8671,63.0,20.0,20.0,10.0,0.0
8672,65.0,20.0,20.0,10.0,0.0
8673,63.0,20.0,20.0,10.0,0.0
8674,65.0,20.0,20.0,10.0,0.0
8675,63.0,20.0,20.0,10.0,0.0
8676,65.0,20.0,20.0,10.0,0.0
8677,63.0,20.0,20.0,10.0,0.0
8678,65.0,30.0,20.0,10.0,0.0
8679,62.0,30.0,30.0,10.0,0.0
8680,63.0,60.0,30.0,10.0,0.0
8681,67.0,62.0,60.0,10.0,0.0
8682,75.0,0.0,120.0,1.0,0.0
8683,58.0,0.0,120.0,4.0,0.0
8684,63.0,4.0,120.0,11.0,0.0
8685,79.0,0.0,120.0,1.0,0.0
8686,46.0,5.0,120.0,5.0,0.0
8687,58.0,0.0,120.0,12.0,0.0
8688,55.0,3.0,120.0,13.0,0.0
8689,43.0,46.0,120.0,14.0,0.0
8690,58.0,300.0,60.0,10.0,0.0
8691,74.0,1.0,60.0,10.0,0.0
8692,86.0,1.0,60.0,0.0,0.0
8693,62.0,10.0,60.0,11.0,0.0
8694,74.0,0.0,60.0,1.0,0.0
8695,62.0,48.0,60.0,3.0,0.0
8696,75.0,1.0,60.0,10.0,0.0
8697,87.0,1.0,60.0,0.0,0.0
8698,75.0,10.0,60.0,1.0,0.0
8699,63.0,0.0,60.0,11.0,0.0
8700,63.0,158.0,60.0,3.0,0.0
8701,57.0,1.0,60.0,10.0,0.0
8702,69.0,1.0,60.0,0.0,0.0
8703,69.0,0.0,60.0,1.0,0.0
8704,57.0,4.0,60.0,11.0,0.0
8705,57.0,5.0,60.0,12.0,0.0
8706,45.0,1.0,60.0,13.0,0.0
8707,45.0,2.0,60.0,3.0,0.0
8708,33.0,13.0,60.0,14.0,0.0
8709,58.0,2.0,20.0,10.0,0.0
8710,70.0,3.0,15.0,0.0,0.0
8711,58.0,1.0,30.0,11.0,0.0
8712,70.0,4.0,20.0,1.0,0.0
8713,58.0,6.0,20.0,12.0,0.0
8714,46.0,1.0,30.0,13.0,0.0
8715,46.0,4.0,30.0,3.0,0.0
8716,34.0,6.0,40.0,14.0,0.0
8717,69.0,7.0,15.0,0.0,0.0
8718,57.0,1.0,20.0,10.0,0.0
8719,69.0,0.0,20.0,1.0,0.0
8720,57.0,3.0,20.0,12.0,0.0
8721,57.0,0.0,30.0,11.0,0.0
8722,70.0,5.0,15.0,0.0,0.0
8723,58.0,2.0,20.0,10.0,0.0
8724,45.0,1.0,30.0,13.0,0.0
8725,70.0,3.0,20.0,1.0,0.0
8726,45.0,8.0,30.0,3.0,0.0
8727,58.0,5.0,20.0,12.0,0.0
8728,69.0,1.0,15.0,0.0,0.0
8729,33.0,3.0,40.0,14.0,0.0
8730,57.0,1.0,20.0,10.0,0.0
8731,69.0,4.0,20.0,1.0,0.0
8732,58.0,2.0,30.0,11.0,0.0
8733,70.0,1.0,15.0,0.0,0.0
8734,57.0,6.0,20.0,12.0,0.0
8735,46.0,1.0,30.0,13.0,0.0
8736,46.0,0.0,30.0,3.0,0.0
8737,58.0,1.0,20.0,10.0,0.0
8738,69.0,3.0,15.0,0.0,0.0
8739,70.0,4.0,20.0,1.0,0.0
8740,58.0,7.0,20.0,12.0,0.0
8741,57.0,0.0,30.0,11.0,0.0
8742,34.0,6.0,40.0,14.0,0.0
8743,70.0,7.0,15.0,0.0,0.0
8744,57.0,2.0,20.0,10.0,0.0
8745,45.0,1.0,30.0,13.0,0.0
8746,45.0,2.0,30.0,3.0,0.0
8747,69.0,4.0,20.0,1.0,0.0
8748,57.0,3.0,20.0,12.0,0.0
8749,69.0,2.0,15.0,0.0,0.0
8750,58.0,2.0,20.0,10.0,0.0
8751,58.0,8.0,30.0,11.0,0.0
8752,70.0,3.0,20.0,1.0,0.0
8753,58.0,6.0,20.0,12.0,0.0
8754,70.0,1.0,15.0,0.0,0.0
8755,46.0,1.0,30.0,13.0,0.0
8756,46.0,0.0,30.0,3.0,0.0
8757,33.0,6.0,40.0,14.0,0.0
8758,57.0,1.0,20.0,10.0,0.0
8759,69.0,4.0,20.0,1.0,0.0
8760,69.0,0.0,15.0,0.0,0.0
8761,57.0,8.0,20.0,12.0,0.0
8762,57.0,2.0,30.0,11.0,0.0
8763,58.0,1.0,20.0,10.0,0.0
8764,70.0,1.0,20.0,0.0,0.0
8765,45.0,1.0,30.0,13.0,0.0
8766,70.0,0.0,20.0,1.0,0.0
8767,45.0,18.0,30.0,3.0,0.0
8768,58.0,5.0,20.0,12.0,0.0
8769,33.0,2.0,15.0,14.0,0.0
8770,55.0,1.0,30.0,10.0,0.0
8771,67.0,1.0,30.0,0.0,0.0
8772,67.0,0.0,30.0,1.0,0.0
8773,55.0,4.0,30.0,11.0,0.0
8774,55.0,5.0,30.0,12.0,0.0
8775,43.0,1.0,30.0,13.0,0.0
8776,43.0,2.0,30.0,3.0,0.0
8777,31.0,16.0,30.0,14.0,0.0
8778,57.0,1.0,30.0,10.0,0.0
8779,69.0,1.0,30.0,0.0,0.0
8780,57.0,4.0,30.0,11.0,0.0
8781,69.0,0.0,30.0,1.0,0.0
8782,57.0,5.0,30.0,12.0,0.0
8783,45.0,1.0,30.0,13.0,0.0
8784,45.0,2.0,30.0,3.0,0.0
8785,33.0,46.0,30.0,14.0,0.0
8786,60.0,1.0,60.0,10.0,0.0
8787,72.0,1.0,60.0,0.0,0.0
8788,60.0,4.0,60.0,11.0,0.0
8789,72.0,0.0,60.0,1.0,0.0
8790,60.0,5.0,60.0,12.0,0.0
8791,48.0,1.0,60.0,13.0,0.0
8792,48.0,2.0,60.0,3.0,0.0
8793,36.0,106.0,60.0,14.0,0.0
8794,53.0,1.0,60.0,10.0,0.0
8795,65.0,1.0,60.0,0.0,0.0
8796,65.0,0.0,60.0,1.0,0.0
8797,53.0,4.0,60.0,11.0,0.0
8798,53.0,5.0,60.0,12.0,0.0
8799,41.0,1.0,60.0,13.0,0.0
8800,41.0,2.0,60.0,3.0,0.0
8801,29.0,196.0,60.0,14.0,0.0
8802,65.0,60.0,30.0,10.0,0.0
8803,65.0,28.0,720.0,11.0,0.0
8804,63.0,5.0,120.0,12.0,0.0
8805,63.0,49.0,120.0,13.0,0.0
8806,65.0,36.0,30.0,10.0,0.0
8807,70.0,50.0,60.0,10.0,0.0
8808,62.0,5.0,240.0,12.0,0.0
8809,62.0,49.0,240.0,13.0,0.0
8810,65.0,40.0,60.0,10.0,0.0
8811,74.0,60.0,30.0,10.0,0.0
8812,74.0,36.0,30.0,10.0,0.0
8813,72.0,50.0,60.0,10.0,0.0
8814,57.0,5.0,240.0,12.0,0.0
8815,57.0,59.0,240.0,13.0,0.0
8816,65.0,40.0,60.0,10.0,0.0
8817,75.0,60.0,30.0,10.0,0.0
8818,75.0,26.0,30.0,10.0,0.0
8819,74.0,50.0,60.0,10.0,0.0
8820,58.0,5.0,240.0,12.0,0.0
8821,58.0,49.0,240.0,13.0,0.0
8822,65.0,12.0,60.0,10.0,0.0
8823,77.0,22.0,30.0,10.0,0.0
8824,62.0,38.0,60.0,11.0,0.0
8825,77.0,22.0,30.0,10.0,0.0
8826,62.0,14.0,60.0,11.0,0.0
8827,77.0,50.0,60.0,10.0,0.0
8828,67.0,4.0,240.0,11.0,0.0
8829,63.0,5.0,240.0,12.0,0.0
8830,51.0,49.0,240.0,13.0,0.0
8831,27.0,16.0,120.0,14.0,0.0
8832,75.0,24.0,60.0,10.0,0.0
8833,74.0,60.0,30.0,10.0,0.0
8834,72.0,32.0,30.0,10.0,0.0
8835,72.0,50.0,60.0,10.0,0.0
8836,65.0,4.0,240.0,11.0,0.0
8837,62.0,5.0,240.0,12.0,0.0
8838,53.0,49.0,240.0,13.0,0.0
8839,29.0,16.0,120.0,14.0,0.0
8840,70.0,24.0,60.0,10.0,0.0
8841,70.0,60.0,30.0,10.0,0.0
8842,70.0,32.0,30.0,10.0,0.0
8843,70.0,50.0,60.0,10.0,0.0
8844,63.0,4.0,240.0,11.0,0.0
8845,60.0,4.0,240.0,4.0,0.0
8846,60.0,5.0,240.0,12.0,0.0
8847,53.0,54.0,240.0,5.0,0.0
8848,41.0,1.0,240.0,13.0,0.0
8849,29.0,16.0,120.0,14.0,0.0
8850,69.0,24.0,60.0,10.0,0.0
8851,67.0,60.0,30.0,10.0,0.0
8852,69.0,22.0,30.0,10.0,0.0
8853,70.0,1.0,60.0,10.0,0.0
8854,82.0,1.0,60.0,0.0,0.0
8855,62.0,0.0,60.0,11.0,0.0
8856,70.0,0.0,60.0,1.0,0.0
8857,62.0,1.0,60.0,1.0,0.0
8858,58.0,0.0,60.0,4.0,0.0
8859,58.0,2.0,60.0,6.0,0.0
8860,70.0,0.0,60.0,6.0,0.0
8861,62.0,1.0,60.0,2.0,0.0
8862,70.0,0.0,60.0,2.0,0.0
8863,50.0,0.0,60.0,5.0,0.0
8864,58.0,5.0,60.0,12.0,0.0
8865,46.0,1.0,60.0,13.0,0.0
8866,58.0,1.0,60.0,3.0,0.0
8867,46.0,0.0,60.0,3.0,0.0
8868,46.0,1.0,60.0,15.0,0.0
8869,34.0,106.0,60.0,14.0,0.0
8870,63.0,0.0,60.0,10.0,0.0
8871,72.0,1.0,60.0,10.0,0.0
8872,84.0,0.0,60.0,0.0,0.0
8873,81.0,1.0,60.0,0.0,0.0
8874,60.0,0.0,60.0,4.0,0.0
8875,57.0,1.0,60.0,11.0,0.0
8876,65.0,0.0,60.0,1.0,0.0
8877,72.0,0.0,60.0,1.0,0.0
8878,53.0,0.0,60.0,6.0,0.0
8879,65.0,2.0,60.0,6.0,0.0
8880,72.0,0.0,60.0,2.0,0.0
8881,65.0,1.0,60.0,2.0,0.0
8882,53.0,0.0,60.0,12.0,0.0
8883,53.0,5.0,60.0,5.0,0.0
8884,41.0,1.0,60.0,13.0,0.0
8885,53.0,1.0,60.0,3.0,0.0
8886,41.0,0.0,60.0,3.0,0.0
8887,41.0,1.0,60.0,15.0,0.0
8888,29.0,286.0,60.0,14.0,0.0
8889,74.0,1.0,60.0,10.0,0.0
8890,86.0,1.0,60.0,0.0,0.0
8891,74.0,10.0,60.0,1.0,0.0
8892,62.0,0.0,60.0,11.0,0.0
8893,62.0,48.0,60.0,3.0,0.0
8894,75.0,1.0,60.0,10.0,0.0
8895,87.0,1.0,60.0,0.0,0.0
8896,63.0,10.0,60.0,11.0,0.0
8897,75.0,0.0,60.0,1.0,0.0
8898,63.0,158.0,60.0,3.0,0.0
8899,57.0,2.0,60.0,10.0,0.0
8900,57.0,4.0,60.0,11.0,0.0
8901,57.0,5.0,60.0,12.0,0.0
8902,45.0,1.0,60.0,13.0,0.0
8903,45.0,2.0,60.0,3.0,0.0
8904,33.0,16.0,60.0,14.0,0.0
8905,58.0,6.0,20.0,10.0,0.0
8906,58.0,8.0,30.0,11.0,0.0
8907,58.0,6.0,20.0,12.0,0.0
8908,46.0,1.0,30.0,13.0,0.0
8909,46.0,4.0,30.0,3.0,0.0
8910,34.0,6.0,40.0,14.0,0.0
8911,57.0,1.0,20.0,10.0,0.0
8912,57.0,8.0,20.0,12.0,0.0
8913,57.0,4.0,30.0,11.0,0.0
8914,58.0,2.0,20.0,10.0,0.0
8915,45.0,1.0,30.0,13.0,0.0
8916,45.0,8.0,30.0,3.0,0.0
8917,58.0,5.0,20.0,12.0,0.0
8918,33.0,6.0,40.0,14.0,0.0
8919,57.0,6.0,20.0,10.0,0.0
8920,58.0,2.0,30.0,11.0,0.0
8921,57.0,6.0,20.0,12.0,0.0
8922,46.0,1.0,30.0,13.0,0.0
8923,46.0,4.0,30.0,3.0,0.0
8924,58.0,1.0,20.0,10.0,0.0
8925,58.0,14.0,20.0,12.0,0.0
8926,57.0,4.0,30.0,11.0,0.0
8927,34.0,6.0,40.0,14.0,0.0
8928,57.0,2.0,20.0,10.0,0.0
8929,45.0,1.0,30.0,13.0,0.0
8930,45.0,2.0,30.0,3.0,0.0
8931,57.0,5.0,20.0,12.0,0.0
8932,58.0,6.0,20.0,10.0,0.0
8933,58.0,8.0,30.0,11.0,0.0
8934,58.0,6.0,20.0,12.0,0.0
8935,46.0,1.0,30.0,13.0,0.0
8936,46.0,4.0,30.0,3.0,0.0
8937,57.0,1.0,20.0,10.0,0.0
8938,57.0,8.0,20.0,12.0,0.0
8939,57.0,2.0,30.0,11.0,0.0
8940,58.0,2.0,20.0,10.0,0.0
8941,45.0,1.0,30.0,13.0,0.0
8942,45.0,18.0,30.0,3.0,0.0
8943,58.0,5.0,20.0,12.0,0.0
8944,33.0,6.0,15.0,14.0,0.0
8945,55.0,2.0,30.0,10.0,0.0
8946,55.0,4.0,30.0,11.0,0.0
8947,55.0,5.0,30.0,12.0,0.0
8948,43.0,1.0,30.0,13.0,0.0
8949,43.0,2.0,30.0,3.0,0.0
8950,31.0,16.0,30.0,14.0,0.0
8951,57.0,2.0,30.0,10.0,0.0
8952,57.0,4.0,30.0,11.0,0.0
8953,57.0,5.0,30.0,12.0,0.0
8954,45.0,1.0,30.0,13.0,0.0
8955,45.0,2.0,30.0,3.0,0.0
8956,33.0,46.0,30.0,14.0,0.0
8957,60.0,2.0,60.0,10.0,0.0
8958,60.0,3.0,60.0,11.0,0.0
8959,72.0,1.0,60.0,2.0,0.0
8960,60.0,0.0,60.0,2.0,0.0
8961,60.0,5.0,60.0,12.0,0.0
8962,48.0,1.0,60.0,13.0,0.0
8963,48.0,2.0,60.0,3.0,0.0
8964,36.0,106.0,60.0,14.0,0.0
8965,53.0,2.0,60.0,10.0,0.0
8966,53.0,3.0,60.0,11.0,0.0
8967,65.0,0.0,60.0,2.0,0.0
8968,53.0,1.0,60.0,2.0,0.0
8969,53.0,5.0,60.0,12.0,0.0
8970,41.0,1.0,60.0,13.0,0.0
8971,41.0,2.0,60.0,3.0,0.0
8972,29.0,286.0,60.0,14.0,0.0
8973,74.0,1.0,60.0,10.0,0.0
8974,86.0,1.0,60.0,0.0,0.0
8975,74.0,0.0,60.0,1.0,0.0
8976,62.0,10.0,60.0,11.0,0.0
8977,62.0,48.0,60.0,3.0,0.0
8978,75.0,1.0,60.0,10.0,0.0
8979,87.0,1.0,60.0,0.0,0.0
8980,75.0,0.0,60.0,1.0,0.0
8981,63.0,10.0,60.0,11.0,0.0
8982,63.0,158.0,60.0,3.0,0.0
8983,58.0,2.0,60.0,10.0,0.0
8984,58.0,4.0,60.0,11.0,0.0
8985,58.0,5.0,60.0,12.0,0.0
8986,46.0,1.0,60.0,13.0,0.0
8987,46.0,2.0,60.0,3.0,0.0
8988,34.0,16.0,60.0,14.0,0.0
8989,60.0,6.0,20.0,10.0,0.0
8990,60.0,8.0,30.0,11.0,0.0
8991,60.0,6.0,20.0,12.0,0.0
8992,48.0,1.0,30.0,13.0,0.0
8993,48.0,4.0,30.0,3.0,0.0
8994,36.0,6.0,40.0,14.0,0.0
8995,58.0,1.0,20.0,10.0,0.0
8996,58.0,8.0,20.0,12.0,0.0
8997,58.0,4.0,30.0,11.0,0.0
8998,60.0,2.0,20.0,10.0,0.0
8999,46.0,1.0,30.0,13.0,0.0
9000,46.0,8.0,30.0,3.0,0.0
9001,60.0,5.0,20.0,12.0,0.0
9002,34.0,6.0,40.0,14.0,0.0
9003,58.0,6.0,20.0,10.0,0.0
9004,60.0,2.0,30.0,11.0,0.0
9005,58.0,6.0,20.0,12.0,0.0
9006,48.0,1.0,30.0,13.0,0.0
9007,48.0,4.0,30.0,3.0,0.0
9008,60.0,1.0,20.0,10.0,0.0
9009,60.0,14.0,20.0,12.0,0.0
9010,58.0,4.0,30.0,11.0,0.0
9011,36.0,6.0,40.0,14.0,0.0
9012,58.0,2.0,20.0,10.0,0.0
9013,46.0,1.0,30.0,13.0,0.0
9014,46.0,2.0,30.0,3.0,0.0
9015,58.0,5.0,20.0,12.0,0.0
9016,60.0,6.0,20.0,10.0,0.0
9017,60.0,8.0,30.0,11.0,0.0
9018,60.0,6.0,20.0,12.0,0.0
9019,48.0,1.0,30.0,13.0,0.0
9020,48.0,4.0,30.0,3.0,0.0
9021,34.0,6.0,40.0,14.0,0.0
9022,58.0,1.0,20.0,10.0,0.0
9023,58.0,8.0,20.0,12.0,0.0
9024,58.0,2.0,30.0,11.0,0.0
9025,60.0,2.0,20.0,10.0,0.0
9026,46.0,1.0,30.0,13.0,0.0
9027,46.0,18.0,30.0,3.0,0.0
9028,60.0,5.0,20.0,12.0,0.0
9029,34.0,2.0,15.0,14.0,0.0
9030,57.0,2.0,30.0,10.0,0.0
9031,57.0,4.0,30.0,11.0,0.0
9032,57.0,5.0,30.0,12.0,0.0
9033,45.0,1.0,30.0,13.0,0.0
9034,45.0,2.0,30.0,3.0,0.0
9035,33.0,16.0,30.0,14.0,0.0
9036,58.0,2.0,30.0,10.0,0.0
9037,58.0,4.0,30.0,11.0,0.0
9038,58.0,5.0,30.0,12.0,0.0
9039,46.0,1.0,30.0,13.0,0.0
9040,46.0,2.0,30.0,3.0,0.0
9041,34.0,46.0,30.0,14.0,0.0
9042,63.0,2.0,60.0,10.0,0.0
9043,63.0,4.0,60.0,11.0,0.0
9044,63.0,5.0,60.0,12.0,0.0
9045,51.0,1.0,60.0,13.0,0.0
9046,51.0,2.0,60.0,3.0,0.0
9047,39.0,106.0,60.0,14.0,0.0
9048,54.0,2.0,60.0,10.0,0.0
9049,54.0,4.0,60.0,11.0,0.0
9050,54.0,5.0,60.0,12.0,0.0
9051,42.0,1.0,60.0,13.0,0.0
9052,42.0,2.0,60.0,3.0,0.0
9053,30.0,286.0,60.0,14.0,0.0
9054,74.0,1.0,60.0,10.0,0.0
9055,86.0,1.0,60.0,0.0,0.0
9056,62.0,10.0,60.0,11.0,0.0
9057,74.0,0.0,60.0,1.0,0.0
9058,62.0,48.0,60.0,3.0,0.0
9059,75.0,1.0,60.0,10.0,0.0
9060,87.0,1.0,60.0,0.0,0.0
9061,75.0,10.0,60.0,1.0,0.0
9062,63.0,0.0,60.0,11.0,0.0
9063,63.0,108.0,60.0,3.0,0.0
9064,58.0,2.0,60.0,10.0,0.0
9065,58.0,4.0,60.0,11.0,0.0
9066,58.0,5.0,60.0,12.0,0.0
9067,46.0,1.0,60.0,13.0,0.0
9068,46.0,2.0,60.0,3.0,0.0
9069,34.0,106.0,60.0,14.0,0.0
9070,63.0,2.0,60.0,10.0,0.0
9071,63.0,4.0,60.0,11.0,0.0
9072,63.0,5.0,60.0,12.0,0.0
9073,51.0,1.0,60.0,13.0,0.0
9074,51.0,2.0,60.0,3.0,0.0
9075,39.0,106.0,60.0,14.0,0.0
9076,55.0,2.0,60.0,10.0,0.0
9077,55.0,4.0,60.0,11.0,0.0
9078,55.0,5.0,60.0,12.0,0.0
9079,43.0,1.0,60.0,13.0,0.0
9080,43.0,2.0,60.0,3.0,0.0
9081,31.0,47.0,60.0,14.0,0.0
9082,86.0,1.0,60.0,0.0,0.0
9083,74.0,10.0,60.0,1.0,0.0
9084,62.0,49.0,60.0,3.0,0.0
9085,87.0,1.0,60.0,0.0,0.0
9086,75.0,10.0,60.0,1.0,0.0
9087,63.0,108.0,60.0,3.0,0.0
9088,60.0,2.0,60.0,10.0,0.0
9089,60.0,4.0,60.0,11.0,0.0
9090,60.0,5.0,60.0,12.0,0.0
9091,48.0,1.0,60.0,13.0,0.0
9092,46.0,2.0,60.0,3.0,0.0
9093,36.0,106.0,60.0,14.0,0.0
9094,63.0,2.0,60.0,10.0,0.0
9095,63.0,4.0,60.0,11.0,0.0
9096,63.0,5.0,60.0,12.0,0.0
9097,51.0,1.0,60.0,13.0,0.0
9098,51.0,2.0,60.0,3.0,0.0
9099,39.0,106.0,60.0,14.0,0.0
9100,56.0,2.0,60.0,10.0,0.0
9101,56.0,4.0,60.0,11.0,0.0
9102,56.0,5.0,60.0,12.0,0.0
9103,44.0,1.0,60.0,13.0,0.0
9104,44.0,2.0,60.0,3.0,0.0
9105,32.0,47.0,60.0,14.0,0.0
9106,86.0,1.0,60.0,0.0,0.0
9107,74.0,10.0,60.0,1.0,0.0
9108,62.0,168.0,60.0,3.0,0.0
9109,87.0,1.0,1200.0,0.0,0.0
9110,75.0,10.0,1200.0,1.0,0.0
9111,63.0,48.0,1200.0,3.0,0.0
9112,63.0,2.0,60.0,10.0,0.0
9113,63.0,4.0,60.0,11.0,0.0
9114,51.0,5.0,60.0,12.0,0.0
9115,51.0,1.0,60.0,13.0,0.0
9116,51.0,2.0,60.0,3.0,0.0
9117,39.0,106.0,60.0,14.0,0.0
9118,66.0,2.0,60.0,10.0,0.0
9119,66.0,4.0,60.0,11.0,0.0
9120,54.0,5.0,60.0,12.0,0.0
9121,54.0,1.0,60.0,13.0,0.0
9122,54.0,2.0,60.0,3.0,0.0
9123,42.0,106.0,60.0,14.0,0.0
9124,57.0,2.0,60.0,10.0,0.0
9125,57.0,4.0,60.0,11.0,0.0
9126,45.0,5.0,60.0,12.0,0.0
9127,45.0,1.0,60.0,13.0,0.0
9128,45.0,2.0,60.0,3.0,0.0
9129,33.0,106.0,60.0,14.0,0.0
9130,58.0,2.0,60.0,10.0,0.0
9131,58.0,4.0,60.0,11.0,0.0
9132,46.0,5.0,60.0,12.0,0.0
9133,46.0,1.0,60.0,13.0,0.0
9134,46.0,2.0,60.0,3.0,0.0
9135,34.0,106.0,60.0,14.0,0.0
9136,67.0,2.0,60.0,10.0,0.0
9137,67.0,4.0,60.0,11.0,0.0
9138,55.0,5.0,60.0,12.0,0.0
9139,55.0,1.0,60.0,13.0,0.0
9140,55.0,2.0,60.0,3.0,0.0
9141,43.0,106.0,60.0,14.0,0.0
9142,59.0,2.0,60.0,10.0,0.0
9143,59.0,4.0,60.0,11.0,0.0
9144,47.0,5.0,60.0,12.0,0.0
9145,47.0,1.0,60.0,13.0,0.0
9146,47.0,2.0,60.0,3.0,0.0
9147,35.0,106.0,60.0,14.0,0.0
9148,68.0,2.0,60.0,10.0,0.0
9149,68.0,4.0,60.0,11.0,0.0
9150,56.0,5.0,60.0,12.0,0.0
9151,56.0,1.0,60.0,13.0,0.0
9152,56.0,2.0,60.0,3.0,0.0
9153,44.0,106.0,60.0,14.0,0.0
9154,60.0,2.0,60.0,10.0,0.0
9155,60.0,4.0,60.0,11.0,0.0
9156,48.0,5.0,60.0,12.0,0.0
9157,48.0,1.0,60.0,13.0,0.0
9158,48.0,2.0,60.0,3.0,0.0
9159,36.0,106.0,60.0,14.0,0.0
9160,69.0,2.0,60.0,10.0,0.0
9161,69.0,4.0,60.0,11.0,0.0
9162,57.0,5.0,60.0,12.0,0.0
9163,57.0,1.0,60.0,13.0,0.0
9164,57.0,2.0,60.0,3.0,0.0
9165,45.0,47.0,60.0,14.0,0.0
9166,61.0,2.0,60.0,10.0,0.0
9167,85.0,1.0,360.0,0.0,0.0
9168,73.0,10.0,360.0,1.0,0.0
9169,61.0,4.0,60.0,11.0,0.0
9170,49.0,5.0,60.0,12.0,0.0
9171,49.0,1.0,60.0,13.0,0.0
9172,49.0,2.0,60.0,3.0,0.0
9173,61.0,48.0,360.0,3.0,0.0
9174,37.0,106.0,60.0,14.0,0.0
9175,70.0,2.0,60.0,10.0,0.0
9176,70.0,4.0,60.0,11.0,0.0
9177,58.0,5.0,60.0,12.0,0.0
9178,58.0,1.0,60.0,13.0,0.0
9179,58.0,2.0,60.0,3.0,0.0
9180,46.0,106.0,60.0,14.0,0.0
9181,61.0,2.0,60.0,10.0,0.0
9182,61.0,4.0,60.0,11.0,0.0
9183,49.0,5.0,60.0,12.0,0.0
9184,49.0,1.0,60.0,13.0,0.0
9185,49.0,2.0,60.0,3.0,0.0
9186,37.0,47.0,60.0,14.0,0.0
9187,70.0,2.0,60.0,10.0,0.0
9188,84.0,1.0,120.0,0.0,0.0
9189,72.0,10.0,120.0,1.0,0.0
9190,70.0,4.0,60.0,11.0,0.0
9191,58.0,5.0,60.0,12.0,0.0
9192,58.0,3.0,60.0,13.0,0.0
9193,60.0,48.0,120.0,3.0,0.0
9194,46.0,47.0,60.0,14.0,0.0
9195,62.0,2.0,60.0,10.0,0.0
9196,82.0,1.0,120.0,0.0,0.0
9197,70.0,10.0,120.0,1.0,0.0
9198,62.0,4.0,60.0,11.0,0.0
9199,50.0,5.0,60.0,12.0,0.0
9200,50.0,3.0,60.0,13.0,0.0
9201,58.0,48.0,120.0,3.0,0.0
9202,38.0,47.0,60.0,14.0,0.0
9203,70.0,2.0,60.0,10.0,0.0
9204,80.0,1.0,120.0,0.0,0.0
9205,68.0,10.0,120.0,1.0,0.0
9206,70.0,4.0,60.0,11.0,0.0
9207,58.0,5.0,60.0,12.0,0.0
9208,58.0,3.0,60.0,13.0,0.0
9209,56.0,48.0,120.0,3.0,0.0
9210,46.0,47.0,60.0,14.0,0.0
9211,63.0,2.0,60.0,10.0,0.0
9212,78.0,1.0,360.0,0.0,0.0
9213,66.0,10.0,360.0,1.0,0.0
9214,58.0,0.0,960.0,4.0,0.0
9215,63.0,4.0,60.0,11.0,0.0
9216,58.0,3.0,960.0,6.0,0.0
9217,70.0,0.0,960.0,6.0,0.0
9218,51.0,5.0,60.0,12.0,0.0
9219,46.0,6.0,960.0,5.0,0.0
9220,51.0,3.0,60.0,13.0,0.0
9221,54.0,1.0,360.0,3.0,0.0
9222,46.0,47.0,120.0,15.0,0.0
9223,39.0,59.0,60.0,14.0,0.0
9224,70.0,2.0,60.0,10.0,0.0
9225,70.0,4.0,60.0,11.0,0.0
9226,58.0,5.0,60.0,12.0,0.0
9227,58.0,3.0,60.0,13.0,0.0
9228,46.0,106.0,60.0,14.0,0.0
9229,65.0,2.0,60.0,10.0,0.0
9230,65.0,4.0,60.0,11.0,0.0
9231,53.0,5.0,60.0,12.0,0.0
9232,53.0,3.0,60.0,13.0,0.0
9233,46.0,47.0,120.0,15.0,0.0
9234,41.0,47.0,60.0,14.0,0.0
9235,70.0,2.0,60.0,10.0,0.0
9236,77.0,1.0,120.0,0.0,0.0
9237,65.0,10.0,120.0,1.0,0.0
9238,70.0,4.0,60.0,11.0,0.0
9239,58.0,5.0,60.0,12.0,0.0
9240,58.0,3.0,60.0,13.0,0.0
9241,53.0,48.0,120.0,3.0,0.0
9242,46.0,47.0,60.0,14.0,0.0
9243,66.0,2.0,60.0,10.0,0.0
9244,75.0,1.0,120.0,0.0,0.0
9245,66.0,4.0,60.0,11.0,0.0
9246,63.0,10.0,120.0,1.0,0.0
9247,54.0,5.0,60.0,12.0,0.0
9248,54.0,3.0,60.0,13.0,0.0
9249,51.0,1.0,120.0,3.0,0.0
9250,46.0,47.0,120.0,15.0,0.0
9251,42.0,47.0,60.0,14.0,0.0
9252,70.0,2.0,60.0,10.0,0.0
9253,73.0,1.0,120.0,0.0,0.0
9254,61.0,10.0,120.0,1.0,0.0
9255,70.0,4.0,60.0,11.0,0.0
9256,58.0,5.0,60.0,12.0,0.0
9257,58.0,3.0,60.0,13.0,0.0
9258,49.0,48.0,120.0,3.0,0.0
9259,46.0,47.0,60.0,14.0,0.0
9260,64.0,2.0,60.0,10.0,0.0
9261,72.0,1.0,120.0,0.0,0.0
9262,64.0,4.0,60.0,11.0,0.0
9263,60.0,10.0,120.0,1.0,0.0
9264,52.0,5.0,60.0,12.0,0.0
9265,52.0,3.0,60.0,13.0,0.0
9266,48.0,1.0,120.0,3.0,0.0
9267,46.0,47.0,120.0,15.0,0.0
9268,40.0,47.0,60.0,14.0,0.0
9269,70.0,2.0,60.0,10.0,0.0
9270,70.0,1.0,120.0,0.0,0.0
9271,58.0,1.0,120.0,1.0,0.0
9272,70.0,4.0,60.0,11.0,0.0
9273,58.0,5.0,60.0,12.0,0.0
9274,58.0,3.0,60.0,13.0,0.0
9275,46.0,44.0,120.0,3.0,0.0
9276,46.0,47.0,60.0,14.0,0.0
9277,65.0,1.0,120.0,10.0,0.0
9278,77.0,0.0,120.0,0.0,0.0
9279,65.0,0.0,120.0,1.0,0.0
9280,65.0,0.0,120.0,11.0,0.0
9281,53.0,1.0,120.0,4.0,0.0
9282,53.0,0.0,120.0,6.0,0.0
9283,65.0,3.0,120.0,6.0,0.0
9284,53.0,5.0,60.0,12.0,0.0
9285,41.0,6.0,120.0,5.0,0.0
9286,53.0,55.0,60.0,13.0,0.0
9287,53.0,44.0,240.0,3.0,0.0
9288,41.0,1.0,120.0,3.0,0.0
9289,41.0,1.0,120.0,15.0,0.0
9290,29.0,42.0,120.0,14.0,0.0
9291,53.0,4.0,60.0,12.0,0.0
9292,53.0,1.0,60.0,13.0,0.0
9293,53.0,5.0,60.0,12.0,0.0
9294,53.0,55.0,60.0,13.0,0.0
9295,53.0,5.0,60.0,12.0,0.0
9296,53.0,11.0,60.0,13.0,0.0
9297,53.0,5.0,60.0,12.0,0.0
9298,53.0,55.0,60.0,13.0,0.0
9299,55.0,44.0,120.0,3.0,0.0
9300,53.0,5.0,60.0,12.0,0.0
9301,53.0,11.0,60.0,13.0,0.0
9302,53.0,5.0,60.0,12.0,0.0
9303,53.0,55.0,60.0,13.0,0.0
9304,57.0,49.0,120.0,3.0,0.0
9305,53.0,5.0,60.0,12.0,0.0
9306,53.0,6.0,60.0,13.0,0.0
9307,53.0,5.0,60.0,12.0,0.0
9308,53.0,55.0,60.0,13.0,0.0
9309,58.0,49.0,360.0,3.0,0.0
9310,53.0,5.0,60.0,12.0,0.0
9311,53.0,55.0,60.0,13.0,0.0
9312,53.0,5.0,60.0,12.0,0.0
9313,53.0,55.0,60.0,13.0,0.0
9314,53.0,5.0,60.0,12.0,0.0
9315,53.0,55.0,60.0,13.0,0.0
9316,53.0,5.0,60.0,12.0,0.0
9317,53.0,55.0,60.0,13.0,0.0
9318,53.0,5.0,60.0,12.0,0.0
9319,53.0,6.0,60.0,13.0,0.0
9320,53.0,5.0,60.0,12.0,0.0
9321,53.0,55.0,60.0,13.0,0.0
9322,58.0,49.0,120.0,3.0,0.0
9323,53.0,5.0,60.0,12.0,0.0
9324,53.0,6.0,60.0,13.0,0.0
9325,77.0,1.0,120.0,10.0,0.0
9326,65.0,0.0,120.0,10.0,0.0
9327,65.0,0.0,120.0,4.0,0.0
9328,77.0,0.0,120.0,11.0,0.0
9329,65.0,1.0,120.0,11.0,0.0
9330,65.0,10.0,240.0,1.0,0.0
9331,69.0,0.0,240.0,1.0,0.0
9332,65.0,3.0,120.0,6.0,0.0
9333,53.0,0.0,120.0,6.0,0.0
9334,53.0,5.0,60.0,12.0,0.0
9335,53.0,7.0,120.0,5.0,0.0
9336,53.0,55.0,60.0,13.0,0.0
9337,53.0,44.0,240.0,3.0,0.0
9338,57.0,0.0,240.0,3.0,0.0
9339,41.0,1.0,120.0,15.0,0.0
9340,29.0,42.0,120.0,14.0,0.0
9341,53.0,4.0,60.0,12.0,0.0
9342,53.0,1.0,60.0,13.0,0.0
9343,53.0,5.0,60.0,12.0,0.0
9344,53.0,55.0,60.0,13.0,0.0
9345,53.0,5.0,60.0,12.0,0.0
9346,53.0,1.0,60.0,13.0,0.0
9347,70.0,10.0,120.0,1.0,0.0
9348,67.0,0.0,120.0,1.0,0.0
9349,53.0,5.0,60.0,12.0,0.0
9350,53.0,55.0,60.0,13.0,0.0
9351,58.0,44.0,120.0,3.0,0.0
9352,55.0,0.0,120.0,3.0,0.0
9353,53.0,5.0,60.0,12.0,0.0
9354,53.0,1.0,60.0,13.0,0.0
9355,72.0,0.0,120.0,1.0,0.0
9356,69.0,4.0,120.0,1.0,0.0
9357,53.0,5.0,60.0,12.0,0.0
9358,53.0,55.0,60.0,13.0,0.0
9359,60.0,0.0,120.0,3.0,0.0
9360,57.0,49.0,120.0,3.0,0.0
9361,53.0,1.0,60.0,12.0,0.0
9362,53.0,6.0,60.0,13.0,0.0
9363,73.0,4.0,360.0,1.0,0.0
9364,70.0,0.0,360.0,1.0,0.0
9365,53.0,5.0,60.0,12.0,0.0
9366,53.0,55.0,60.0,13.0,0.0
9367,58.0,0.0,360.0,3.0,0.0
9368,61.0,49.0,360.0,3.0,0.0
9369,53.0,5.0,60.0,12.0,0.0
9370,53.0,55.0,60.0,13.0,0.0
9371,53.0,5.0,60.0,12.0,0.0
9372,53.0,55.0,60.0,13.0,0.0
9373,53.0,5.0,60.0,12.0,0.0
9374,53.0,55.0,60.0,13.0,0.0
9375,53.0,5.0,60.0,12.0,0.0
9376,53.0,55.0,60.0,13.0,0.0
9377,53.0,1.0,60.0,12.0,0.0
9378,53.0,6.0,60.0,13.0,0.0
9379,73.0,0.0,120.0,1.0,0.0
9380,70.0,4.0,120.0,1.0,0.0
9381,53.0,5.0,60.0,12.0,0.0
9382,53.0,55.0,60.0,13.0,0.0
9383,61.0,43.0,120.0,3.0,0.0
9384,58.0,0.0,120.0,3.0,0.0
9385,53.0,1.0,60.0,12.0,0.0
9386,53.0,6.0,60.0,13.0,0.0
9387,65.0,11.0,60.0,10.0,0.0
9388,65.0,1.0,120.0,4.0,0.0
9389,72.0,10.0,240.0,1.0,0.0
9390,69.0,0.0,240.0,1.0,0.0
9391,53.0,3.0,120.0,6.0,0.0
9392,65.0,0.0,120.0,6.0,0.0
9393,53.0,7.0,120.0,12.0,0.0
9394,53.0,0.0,120.0,5.0,0.0
9395,53.0,49.0,60.0,13.0,0.0
9396,57.0,38.0,240.0,3.0,0.0
9397,60.0,0.0,240.0,3.0,0.0
9398,41.0,1.0,120.0,15.0,0.0
9399,29.0,36.0,120.0,14.0,0.0
9400,77.0,11.0,60.0,10.0,0.0
9401,53.0,1.0,60.0,13.0,0.0
9402,77.0,11.0,60.0,10.0,0.0
9403,53.0,49.0,60.0,13.0,0.0
9404,77.0,11.0,60.0,10.0,0.0
9405,53.0,1.0,60.0,13.0,0.0
9406,77.0,11.0,60.0,10.0,0.0
9407,70.0,10.0,120.0,1.0,0.0
9408,67.0,0.0,120.0,1.0,0.0
9409,53.0,49.0,60.0,13.0,0.0
9410,55.0,38.0,120.0,3.0,0.0
9411,58.0,0.0,120.0,3.0,0.0
9412,77.0,11.0,60.0,10.0,0.0
9413,53.0,1.0,60.0,13.0,0.0
9414,77.0,11.0,60.0,10.0,0.0
9415,69.0,4.0,120.0,1.0,0.0
9416,65.0,0.0,120.0,1.0,0.0
9417,53.0,49.0,60.0,13.0,0.0
9418,53.0,43.0,120.0,3.0,0.0
9419,57.0,0.0,120.0,3.0,0.0
9420,77.0,7.0,60.0,10.0,0.0
9421,53.0,6.0,60.0,13.0,0.0
9422,65.0,11.0,60.0,10.0,0.0
9423,82.0,0.0,240.0,0.0,0.0
9424,79.0,0.0,240.0,0.0,0.0
9425,65.0,1.0,120.0,4.0,0.0
9426,73.0,0.0,240.0,1.0,0.0
9427,70.0,3.0,240.0,11.0,0.0
9428,70.0,0.0,240.0,1.0,0.0
9429,53.0,0.0,120.0,6.0,0.0
9430,65.0,3.0,120.0,6.0,0.0
9431,58.0,0.0,240.0,2.0,0.0
9432,67.0,1.0,240.0,2.0,0.0
9433,55.0,6.0,240.0,12.0,0.0
9434,53.0,7.0,120.0,5.0,0.0
9435,53.0,49.0,60.0,13.0,0.0
9436,58.0,0.0,240.0,3.0,0.0
9437,61.0,38.0,240.0,3.0,0.0
9438,41.0,1.0,120.0,15.0,0.0
9439,29.0,36.0,120.0,14.0,0.0
9440,76.0,11.0,60.0,10.0,0.0
9441,53.0,1.0,60.0,13.0,0.0
9442,76.0,11.0,60.0,10.0,0.0
9443,53.0,49.0,60.0,13.0,0.0
9444,76.0,11.0,60.0,10.0,0.0
9445,53.0,1.0,60.0,13.0,0.0
9446,76.0,11.0,60.0,10.0,0.0
9447,81.0,0.0,120.0,0.0,0.0
9448,84.0,0.0,120.0,0.0,0.0
9449,69.0,0.0,120.0,1.0,0.0
9450,72.0,3.0,120.0,11.0,0.0
9451,72.0,0.0,120.0,1.0,0.0
9452,60.0,1.0,120.0,2.0,0.0
9453,69.0,0.0,120.0,2.0,0.0
9454,57.0,6.0,120.0,12.0,0.0
9455,53.0,49.0,60.0,13.0,0.0
9456,60.0,0.0,120.0,3.0,0.0
9457,57.0,38.0,120.0,3.0,0.0
9458,76.0,11.0,60.0,10.0,0.0
9459,53.0,1.0,60.0,13.0,0.0
9460,76.0,11.0,60.0,10.0,0.0
9461,82.0,1.0,120.0,0.0,0.0
9462,85.0,0.0,120.0,0.0,0.0
9463,67.0,3.0,120.0,1.0,0.0
9464,73.0,4.0,120.0,11.0,0.0
9465,70.0,0.0,120.0,1.0,0.0
9466,61.0,0.0,120.0,2.0,0.0
9467,70.0,1.0,120.0,2.0,0.0
9468,58.0,0.0,120.0,12.0,0.0
9469,53.0,49.0,60.0,13.0,0.0
9470,55.0,0.0,120.0,3.0,0.0
9471,58.0,43.0,120.0,3.0,0.0
9472,76.0,2.0,60.0,10.0,0.0
9473,53.0,6.0,60.0,13.0,0.0
9474,65.0,11.0,60.0,10.0,0.0
9475,81.0,0.0,120.0,0.0,0.0
9476,84.0,0.0,120.0,0.0,0.0
9477,65.0,0.0,120.0,4.0,0.0
9478,72.0,1.0,120.0,11.0,0.0
9479,69.0,10.0,240.0,1.0,0.0
9480,72.0,0.0,240.0,1.0,0.0
9481,65.0,0.0,120.0,6.0,0.0
9482,53.0,2.0,120.0,6.0,0.0
9483,60.0,0.0,120.0,2.0,0.0
9484,69.0,1.0,120.0,2.0,0.0
9485,53.0,0.0,120.0,5.0,0.0
9486,57.0,7.0,120.0,12.0,0.0
9487,53.0,49.0,60.0,13.0,0.0
9488,57.0,38.0,240.0,3.0,0.0
9489,60.0,0.0,240.0,3.0,0.0
9490,41.0,1.0,120.0,15.0,0.0
9491,29.0,36.0,120.0,14.0,0.0
9492,77.0,11.0,60.0,10.0,0.0
9493,53.0,1.0,60.0,13.0,0.0
9494,77.0,11.0,60.0,10.0,0.0
9495,53.0,49.0,60.0,13.0,0.0
9496,77.0,11.0,60.0,10.0,0.0
9497,53.0,1.0,60.0,13.0,0.0
9498,77.0,11.0,60.0,10.0,0.0
9499,67.0,10.0,120.0,1.0,0.0
9500,70.0,0.0,120.0,1.0,0.0
9501,53.0,49.0,60.0,13.0,0.0
9502,58.0,0.0,120.0,3.0,0.0
9503,55.0,38.0,120.0,3.0,0.0
9504,77.0,11.0,60.0,10.0,0.0
9505,53.0,1.0,60.0,13.0,0.0
9506,77.0,11.0,60.0,10.0,0.0
9507,65.0,0.0,120.0,1.0,0.0
9508,69.0,4.0,120.0,1.0,0.0
9509,53.0,49.0,60.0,13.0,0.0
9510,53.0,0.0,120.0,3.0,0.0
9511,57.0,43.0,120.0,3.0,0.0
9512,77.0,7.0,60.0,10.0,0.0
9513,53.0,6.0,60.0,13.0,0.0
9514,65.0,11.0,60.0,10.0,0.0
9515,79.0,0.0,240.0,0.0,0.0
9516,82.0,1.0,240.0,0.0,0.0
9517,65.0,1.0,120.0,4.0,0.0
9518,70.0,3.0,240.0,1.0,0.0
9519,73.0,0.0,240.0,1.0,0.0
9520,70.0,0.0,240.0,11.0,0.0
9521,65.0,3.0,120.0,6.0,0.0
9522,53.0,0.0,120.0,6.0,0.0
9523,58.0,0.0,240.0,2.0,0.0
9524,67.0,1.0,240.0,2.0,0.0
9525,53.0,7.0,120.0,5.0,0.0
9526,55.0,6.0,240.0,12.0,0.0
9527,53.0,49.0,60.0,13.0,0.0
9528,58.0,0.0,240.0,3.0,0.0
9529,61.0,38.0,240.0,3.0,0.0
9530,41.0,1.0,120.0,15.0,0.0
9531,29.0,36.0,120.0,14.0,0.0
9532,76.0,11.0,60.0,10.0,0.0
9533,53.0,1.0,60.0,13.0,0.0
9534,76.0,11.0,60.0,10.0,0.0
9535,53.0,49.0,60.0,13.0,0.0
9536,76.0,11.0,60.0,10.0,0.0
9537,53.0,0.0,60.0,13.0,0.0
9538,76.0,11.0,60.0,10.0,0.0
9539,81.0,0.0,120.0,0.0,0.0
9540,84.0,0.0,120.0,0.0,0.0
9541,72.0,0.0,120.0,11.0,0.0
9542,72.0,0.0,120.0,1.0,0.0
9543,69.0,3.0,120.0,1.0,0.0
9544,69.0,0.0,120.0,2.0,0.0
9545,60.0,1.0,120.0,2.0,0.0
9546,57.0,6.0,120.0,12.0,0.0
9547,53.0,49.0,60.0,13.0,0.0
9548,60.0,38.0,120.0,3.0,0.0
9549,57.0,0.0,120.0,3.0,0.0
9550,76.0,11.0,60.0,10.0,0.0
9551,53.0,1.0,60.0,13.0,0.0
9552,76.0,11.0,60.0,10.0,0.0
9553,85.0,1.0,120.0,0.0,0.0
9554,82.0,0.0,120.0,0.0,0.0
9555,67.0,3.0,120.0,1.0,0.0
9556,70.0,0.0,120.0,1.0,0.0
9557,73.0,4.0,120.0,11.0,0.0
9558,70.0,0.0,120.0,2.0,0.0
9559,61.0,1.0,120.0,2.0,0.0
9560,58.0,0.0,120.0,12.0,0.0
9561,53.0,49.0,60.0,13.0,0.0
9562,55.0,0.0,120.0,3.0,0.0
9563,58.0,43.0,120.0,3.0,0.0
9564,76.0,2.0,60.0,10.0,0.0
9565,53.0,6.0,60.0,13.0,0.0
9566,65.0,2.0,60.0,10.0,0.0
9567,81.0,0.0,120.0,0.0,0.0
9568,84.0,1.0,120.0,0.0,0.0
9569,72.0,4.0,60.0,11.0,0.0
9570,72.0,0.0,120.0,1.0,0.0
9571,65.0,2.0,960.0,4.0,0.0
9572,69.0,2.0,120.0,1.0,0.0
9573,60.0,0.0,120.0,2.0,0.0
9574,69.0,7.0,120.0,2.0,0.0
9575,53.0,1.0,960.0,5.0,0.0
9576,57.0,5.0,60.0,12.0,0.0
9577,53.0,3.0,60.0,13.0,0.0
9578,60.0,0.0,120.0,3.0,0.0
9579,57.0,38.0,120.0,3.0,0.0
9580,41.0,0.0,40.0,15.0,0.0
9581,29.0,46.0,60.0,14.0,0.0
9582,77.0,2.0,60.0,10.0,0.0
9583,72.0,4.0,60.0,11.0,0.0
9584,69.0,5.0,60.0,12.0,0.0
9585,53.0,0.0,60.0,13.0,0.0
9586,41.0,0.0,40.0,15.0,0.0
9587,29.0,1.0,60.0,14.0,0.0
9588,77.0,2.0,60.0,10.0,0.0
9589,72.0,4.0,60.0,11.0,0.0
9590,69.0,5.0,60.0,12.0,0.0
9591,53.0,0.0,60.0,13.0,0.0
9592,41.0,3.0,40.0,15.0,0.0
9593,29.0,46.0,60.0,14.0,0.0
9594,77.0,2.0,60.0,10.0,0.0
9595,72.0,4.0,60.0,11.0,0.0
9596,69.0,5.0,60.0,12.0,0.0
9597,53.0,3.0,60.0,13.0,0.0
9598,41.0,0.0,40.0,15.0,0.0
9599,29.0,46.0,60.0,14.0,0.0
9600,75.0,2.0,60.0,10.0,0.0
9601,70.0,4.0,60.0,11.0,0.0
9602,67.0,5.0,60.0,12.0,0.0
9603,53.0,0.0,60.0,13.0,0.0
9604,41.0,3.0,40.0,15.0,0.0
9605,29.0,46.0,60.0,14.0,0.0
9606,75.0,2.0,60.0,10.0,0.0
9607,70.0,4.0,60.0,11.0,0.0
9608,67.0,5.0,60.0,12.0,0.0
9609,53.0,0.0,60.0,13.0,0.0
9610,41.0,3.0,40.0,15.0,0.0
9611,29.0,46.0,60.0,14.0,0.0
9612,75.0,2.0,60.0,10.0,0.0
9613,70.0,4.0,60.0,11.0,0.0
9614,67.0,5.0,60.0,12.0,0.0
9615,53.0,3.0,60.0,13.0,0.0
9616,41.0,0.0,40.0,15.0,0.0
9617,29.0,46.0,60.0,14.0,0.0
9618,75.0,2.0,60.0,10.0,0.0
9619,70.0,4.0,60.0,11.0,0.0
9620,67.0,5.0,60.0,12.0,0.0
9621,53.0,3.0,60.0,13.0,0.0
9622,41.0,0.0,40.0,15.0,0.0
9623,29.0,46.0,60.0,14.0,0.0
9624,74.0,2.0,60.0,10.0,0.0
9625,70.0,4.0,60.0,11.0,0.0
9626,65.0,5.0,60.0,12.0,0.0
9627,53.0,3.0,60.0,13.0,0.0
9628,41.0,0.0,40.0,15.0,0.0
9629,29.0,46.0,60.0,14.0,0.0
9630,74.0,2.0,60.0,10.0,0.0
9631,70.0,4.0,60.0,11.0,0.0
9632,65.0,5.0,60.0,12.0,0.0
9633,53.0,3.0,60.0,13.0,0.0
9634,41.0,0.0,40.0,15.0,0.0
9635,29.0,46.0,60.0,14.0,0.0
9636,74.0,2.0,60.0,10.0,0.0
9637,77.0,0.0,120.0,0.0,0.0
9638,70.0,4.0,60.0,11.0,0.0
9639,65.0,2.0,120.0,1.0,0.0
9640,65.0,5.0,60.0,12.0,0.0
9641,53.0,0.0,60.0,13.0,0.0
9642,53.0,38.0,120.0,3.0,0.0
9643,41.0,3.0,40.0,15.0,0.0
9644,29.0,46.0,60.0,14.0,0.0
9645,74.0,2.0,60.0,10.0,0.0
9646,70.0,4.0,60.0,11.0,0.0
9647,65.0,5.0,60.0,12.0,0.0
9648,53.0,1.0,60.0,13.0,0.0
9649,41.0,0.0,40.0,15.0,0.0
9650,29.0,8.0,60.0,14.0,0.0
9651,72.0,2.0,60.0,10.0,0.0
9652,78.0,1.0,120.0,0.0,0.0
9653,69.0,4.0,60.0,11.0,0.0
9654,66.0,2.0,120.0,1.0,0.0
9655,66.0,5.0,60.0,12.0,0.0
9656,63.0,0.0,60.0,12.0,0.0
9657,53.0,0.0,60.0,13.0,0.0
9658,54.0,38.0,120.0,3.0,0.0
9659,41.0,3.0,40.0,15.0,0.0
9660,29.0,46.0,60.0,14.0,0.0
9661,72.0,2.0,60.0,10.0,0.0
9662,69.0,4.0,60.0,11.0,0.0
9663,66.0,5.0,60.0,12.0,0.0
9664,63.0,0.0,60.0,12.0,0.0
9665,53.0,0.0,60.0,13.0,0.0
9666,41.0,0.0,40.0,15.0,0.0
9667,29.0,8.0,60.0,14.0,0.0
9668,72.0,2.0,60.0,10.0,0.0
9669,77.0,1.0,120.0,0.0,0.0
9670,65.0,4.0,120.0,1.0,0.0
9671,69.0,4.0,60.0,11.0,0.0
9672,65.0,0.0,60.0,12.0,0.0
9673,63.0,5.0,60.0,12.0,0.0
9674,53.0,3.0,60.0,13.0,0.0
9675,53.0,54.0,120.0,3.0,0.0
9676,41.0,0.0,40.0,15.0,0.0
9677,29.0,46.0,60.0,14.0,0.0
9678,72.0,2.0,60.0,10.0,0.0
9679,69.0,4.0,60.0,11.0,0.0
9680,63.0,0.0,60.0,12.0,0.0
9681,65.0,0.0,60.0,12.0,0.0
9682,53.0,0.0,60.0,13.0,0.0
9683,41.0,1.0,40.0,15.0,0.0
9684,29.0,2.0,60.0,14.0,0.0
9685,58.0,0.0,120.0,10.0,0.0
9686,70.0,1.0,120.0,10.0,0.0
9687,82.0,1.0,120.0,0.0,0.0
9688,70.0,1.0,120.0,1.0,0.0
9689,58.0,0.0,120.0,4.0,0.0
9690,58.0,10.0,240.0,11.0,0.0
9691,58.0,0.0,120.0,6.0,0.0
9692,70.0,3.0,120.0,6.0,0.0
9693,65.0,0.0,120.0,12.0,0.0
9694,62.0,7.0,120.0,12.0,0.0
9695,46.0,0.0,120.0,5.0,0.0
9696,58.0,59.0,60.0,13.0,0.0
9697,46.0,49.0,240.0,3.0,0.0
9698,46.0,1.0,120.0,15.0,0.0
9699,34.0,47.0,120.0,14.0,0.0
9700,46.0,0.0,60.0,13.0,0.0
9701,46.0,60.0,60.0,13.0,0.0
9702,46.0,1.0,60.0,13.0,0.0
9703,60.0,10.0,120.0,11.0,0.0
9704,46.0,60.0,60.0,13.0,0.0
9705,48.0,49.0,120.0,3.0,0.0
9706,46.0,1.0,60.0,13.0,0.0
9707,62.0,9.0,120.0,11.0,0.0
9708,46.0,51.0,60.0,13.0,0.0
9709,50.0,54.0,120.0,3.0,0.0
9710,46.0,6.0,60.0,13.0,0.0
9711,63.0,9.0,360.0,11.0,0.0
9712,46.0,60.0,60.0,13.0,0.0
9713,51.0,54.0,360.0,3.0,0.0
9714,46.0,60.0,60.0,13.0,0.0
9715,46.0,60.0,60.0,13.0,0.0
9716,46.0,60.0,60.0,13.0,0.0
9717,46.0,51.0,60.0,13.0,0.0
9718,46.0,6.0,60.0,13.0,0.0
9719,63.0,9.0,120.0,11.0,0.0
9720,46.0,51.0,60.0,13.0,0.0
9721,51.0,54.0,120.0,3.0,0.0
9722,46.0,6.0,60.0,13.0,0.0
9723,58.0,0.0,120.0,10.0,0.0
9724,70.0,1.0,120.0,10.0,0.0
9725,62.0,4.0,240.0,11.0,0.0
9726,58.0,1.0,120.0,4.0,0.0
9727,70.0,3.0,120.0,6.0,0.0
9728,58.0,0.0,120.0,6.0,0.0
9729,58.0,6.0,240.0,12.0,0.0
9730,46.0,7.0,120.0,5.0,0.0
9731,46.0,59.0,60.0,13.0,0.0
9732,50.0,49.0,240.0,3.0,0.0
9733,46.0,0.0,240.0,3.0,0.0
9734,46.0,1.0,120.0,15.0,0.0
9735,34.0,47.0,120.0,14.0,0.0
9736,46.0,1.0,60.0,13.0,0.0
9737,46.0,60.0,60.0,13.0,0.0
9738,46.0,1.0,60.0,13.0,0.0
9739,63.0,4.0,120.0,11.0,0.0
9740,60.0,6.0,120.0,12.0,0.0
9741,46.0,60.0,60.0,13.0,0.0
9742,48.0,49.0,120.0,3.0,0.0
9743,51.0,0.0,120.0,3.0,0.0
9744,46.0,1.0,60.0,13.0,0.0
9745,65.0,4.0,120.0,11.0,0.0
9746,62.0,5.0,120.0,12.0,0.0
9747,46.0,51.0,60.0,13.0,0.0
9748,50.0,54.0,120.0,3.0,0.0
9749,53.0,0.0,120.0,3.0,0.0
9750,46.0,6.0,60.0,13.0,0.0
9751,66.0,4.0,360.0,11.0,0.0
9752,63.0,5.0,360.0,12.0,0.0
9753,46.0,60.0,60.0,13.0,0.0
9754,51.0,0.0,360.0,3.0,0.0
9755,54.0,54.0,360.0,3.0,0.0
9756,46.0,60.0,60.0,13.0,0.0
9757,46.0,60.0,60.0,13.0,0.0
9758,46.0,60.0,60.0,13.0,0.0
9759,46.0,51.0,60.0,13.0,0.0
9760,46.0,6.0,60.0,13.0,0.0
9761,66.0,4.0,120.0,11.0,0.0
9762,63.0,5.0,120.0,12.0,0.0
9763,46.0,51.0,60.0,13.0,0.0
9764,51.0,0.0,120.0,3.0,0.0
9765,54.0,43.0,120.0,3.0,0.0
9766,46.0,6.0,60.0,13.0,0.0
9767,70.0,11.0,60.0,10.0,0.0
9768,65.0,4.0,240.0,11.0,0.0
9769,58.0,1.0,120.0,4.0,0.0
9770,70.0,0.0,120.0,6.0,0.0
9771,58.0,3.0,120.0,6.0,0.0
9772,46.0,7.0,120.0,5.0,0.0
9773,62.0,6.0,240.0,12.0,0.0
9774,46.0,49.0,60.0,13.0,0.0
9775,50.0,0.0,240.0,3.0,0.0
9776,53.0,38.0,240.0,3.0,0.0
9777,46.0,1.0,120.0,15.0,0.0
9778,34.0,36.0,120.0,14.0,0.0
9779,82.0,11.0,60.0,10.0,0.0
9780,46.0,1.0,60.0,13.0,0.0
9781,82.0,11.0,60.0,10.0,0.0
9782,46.0,49.0,60.0,13.0,0.0
9783,82.0,11.0,60.0,10.0,0.0
9784,46.0,1.0,60.0,13.0,0.0
9785,82.0,11.0,60.0,10.0,0.0
9786,63.0,4.0,120.0,11.0,0.0
9787,60.0,6.0,120.0,12.0,0.0
9788,46.0,49.0,60.0,13.0,0.0
9789,51.0,38.0,120.0,3.0,0.0
9790,48.0,0.0,120.0,3.0,0.0
9791,82.0,11.0,60.0,10.0,0.0
9792,46.0,1.0,60.0,13.0,0.0
9793,82.0,11.0,60.0,10.0,0.0
9794,62.0,4.0,120.0,11.0,0.0
9795,58.0,5.0,120.0,12.0,0.0
9796,46.0,49.0,60.0,13.0,0.0
9797,50.0,0.0,120.0,3.0,0.0
9798,46.0,43.0,120.0,3.0,0.0
9799,82.0,2.0,60.0,10.0,0.0
9800,46.0,6.0,60.0,13.0,0.0
9801,70.0,11.0,60.0,10.0,0.0
9802,81.0,0.0,240.0,0.0,0.0
9803,84.0,0.0,240.0,0.0,0.0
9804,66.0,3.0,240.0,11.0,0.0
9805,58.0,1.0,120.0,4.0,0.0
9806,69.0,0.0,240.0,1.0,0.0
9807,72.0,0.0,240.0,1.0,0.0
9808,58.0,3.0,120.0,6.0,0.0
9809,70.0,0.0,120.0,6.0,0.0
9810,69.0,1.0,240.0,2.0,0.0
9811,60.0,0.0,240.0,2.0,0.0
9812,46.0,7.0,120.0,5.0,0.0
9813,63.0,6.0,240.0,12.0,0.0
9814,46.0,49.0,60.0,13.0,0.0
9815,51.0,0.0,240.0,3.0,0.0
9816,54.0,38.0,240.0,3.0,0.0
9817,46.0,1.0,120.0,15.0,0.0
9818,34.0,36.0,120.0,14.0,0.0
9819,81.0,11.0,60.0,10.0,0.0
9820,46.0,1.0,60.0,13.0,0.0
9821,81.0,11.0,60.0,10.0,0.0
9822,46.0,49.0,60.0,13.0,0.0
9823,81.0,11.0,60.0,10.0,0.0
9824,46.0,1.0,60.0,13.0,0.0
9825,81.0,11.0,60.0,10.0,0.0
9826,82.0,1.0,120.0,0.0,0.0
9827,86.0,0.0,120.0,0.0,0.0
9828,74.0,3.0,120.0,1.0,0.0
9829,70.0,0.0,120.0,1.0,0.0
9830,65.0,0.0,120.0,11.0,0.0
9831,62.0,1.0,120.0,2.0,0.0
9832,70.0,0.0,120.0,2.0,0.0
9833,62.0,6.0,120.0,12.0,0.0
9834,46.0,49.0,60.0,13.0,0.0
9835,50.0,38.0,120.0,3.0,0.0
9836,53.0,0.0,120.0,3.0,0.0
9837,81.0,11.0,60.0,10.0,0.0
9838,46.0,0.0,60.0,13.0,0.0
9839,81.0,11.0,60.0,10.0,0.0
9840,84.0,0.0,120.0,0.0,0.0
9841,87.0,1.0,120.0,0.0,0.0
9842,63.0,4.0,120.0,11.0,0.0
9843,75.0,3.0,120.0,1.0,0.0
9844,72.0,0.0,120.0,1.0,0.0
9845,63.0,0.0,120.0,2.0,0.0
9846,72.0,1.0,120.0,2.0,0.0
9847,60.0,0.0,120.0,12.0,0.0
9848,46.0,49.0,60.0,13.0,0.0
9849,51.0,0.0,120.0,3.0,0.0
9850,48.0,43.0,120.0,3.0,0.0
9851,81.0,2.0,60.0,10.0,0.0
9852,46.0,6.0,60.0,13.0,0.0
9853,70.0,11.0,60.0,10.0,0.0
9854,86.0,0.0,120.0,0.0,0.0
9855,82.0,0.0,120.0,0.0,0.0
9856,58.0,1.0,120.0,4.0,0.0
9857,70.0,0.0,120.0,1.0,0.0
9858,74.0,0.0,120.0,1.0,0.0
9859,65.0,4.0,240.0,11.0,0.0
9860,58.0,2.0,120.0,6.0,0.0
9861,70.0,0.0,120.0,6.0,0.0
9862,70.0,0.0,120.0,2.0,0.0
9863,62.0,1.0,120.0,2.0,0.0
9864,46.0,7.0,120.0,5.0,0.0
9865,62.0,6.0,240.0,12.0,0.0
9866,46.0,49.0,60.0,13.0,0.0
9867,53.0,38.0,240.0,3.0,0.0
9868,50.0,0.0,240.0,3.0,0.0
9869,46.0,1.0,120.0,15.0,0.0
9870,34.0,36.0,120.0,14.0,0.0
9871,82.0,11.0,60.0,10.0,0.0
9872,46.0,1.0,60.0,13.0,0.0
9873,82.0,11.0,60.0,10.0,0.0
9874,46.0,49.0,60.0,13.0,0.0
9875,82.0,11.0,60.0,10.0,0.0
9876,46.0,1.0,60.0,13.0,0.0
9877,82.0,11.0,60.0,10.0,0.0
9878,63.0,4.0,120.0,11.0,0.0
9879,60.0,6.0,120.0,12.0,0.0
9880,46.0,49.0,60.0,13.0,0.0
9881,48.0,0.0,120.0,3.0,0.0
9882,51.0,38.0,120.0,3.0,0.0
9883,82.0,11.0,60.0,10.0,0.0
9884,46.0,1.0,60.0,13.0,0.0
9885,82.0,11.0,60.0,10.0,0.0
9886,62.0,4.0,120.0,11.0,0.0
9887,58.0,5.0,120.0,12.0,0.0
9888,46.0,49.0,60.0,13.0,0.0
9889,50.0,0.0,120.0,3.0,0.0
9890,46.0,38.0,120.0,3.0,0.0
9891,82.0,2.0,60.0,10.0,0.0
9892,46.0,11.0,60.0,13.0,0.0
9893,70.0,11.0,60.0,10.0,0.0
9894,81.0,0.0,240.0,0.0,0.0
9895,84.0,0.0,240.0,0.0,0.0
9896,66.0,3.0,240.0,11.0,0.0
9897,72.0,0.0,240.0,1.0,0.0
9898,69.0,0.0,240.0,1.0,0.0
9899,58.0,1.0,120.0,4.0,0.0
9900,58.0,3.0,120.0,6.0,0.0
9901,70.0,0.0,120.0,6.0,0.0
9902,60.0,0.0,240.0,2.0,0.0
9903,69.0,1.0,240.0,2.0,0.0
9904,46.0,7.0,120.0,5.0,0.0
9905,63.0,6.0,240.0,12.0,0.0
9906,46.0,49.0,60.0,13.0,0.0
9907,51.0,38.0,240.0,3.0,0.0
9908,54.0,0.0,240.0,3.0,0.0
9909,46.0,1.0,120.0,15.0,0.0
9910,34.0,36.0,120.0,14.0,0.0
9911,81.0,11.0,60.0,10.0,0.0
9912,46.0,1.0,60.0,13.0,0.0
9913,81.0,11.0,60.0,10.0,0.0
9914,46.0,49.0,60.0,13.0,0.0
9915,81.0,11.0,60.0,10.0,0.0
9916,46.0,1.0,60.0,13.0,0.0
9917,81.0,11.0,60.0,10.0,0.0
9918,82.0,0.0,120.0,0.0,0.0
9919,86.0,1.0,120.0,0.0,0.0
9920,74.0,0.0,120.0,1.0,0.0
9921,70.0,3.0,120.0,1.0,0.0
9922,65.0,0.0,120.0,11.0,0.0
9923,70.0,1.0,120.0,2.0,0.0
9924,62.0,0.0,120.0,2.0,0.0
9925,62.0,6.0,120.0,12.0,0.0
9926,46.0,49.0,60.0,13.0,0.0
9927,53.0,0.0,120.0,3.0,0.0
9928,50.0,38.0,120.0,3.0,0.0
9929,81.0,11.0,60.0,10.0,0.0
9930,46.0,0.0,60.0,13.0,0.0
9931,81.0,11.0,60.0,10.0,0.0
9932,87.0,0.0,120.0,0.0,0.0
9933,84.0,1.0,120.0,0.0,0.0
9934,75.0,0.0,120.0,1.0,0.0
9935,63.0,4.0,120.0,11.0,0.0
9936,72.0,3.0,120.0,1.0,0.0
9937,72.0,0.0,120.0,2.0,0.0
9938,63.0,1.0,120.0,2.0,0.0
9939,60.0,0.0,120.0,12.0,0.0
9940,46.0,49.0,60.0,13.0,0.0
9941,51.0,43.0,120.0,3.0,0.0
9942,48.0,0.0,120.0,3.0,0.0
9943,81.0,2.0,60.0,10.0,0.0
9944,46.0,6.0,60.0,13.0,0.0
9945,82.0,2.0,60.0,10.0,0.0
9946,86.0,0.0,120.0,0.0,0.0
9947,82.0,1.0,120.0,0.0,0.0
9948,58.0,0.0,720.0,4.0,0.0
9949,70.0,1.0,120.0,1.0,0.0
9950,74.0,0.0,120.0,1.0,0.0
9951,65.0,58.0,60.0,11.0,0.0
9952,58.0,0.0,120.0,6.0,0.0
9953,70.0,2.0,120.0,6.0,0.0
9954,62.0,0.0,120.0,2.0,0.0
9955,70.0,7.0,120.0,2.0,0.0
9956,62.0,5.0,120.0,12.0,0.0
9957,46.0,5.0,720.0,5.0,0.0
9958,46.0,1.0,240.0,13.0,0.0
9959,53.0,1.0,120.0,3.0,0.0
9960,46.0,37.0,120.0,15.0,0.0
9961,34.0,36.0,240.0,14.0,0.0
9962,70.0,2.0,60.0,10.0,0.0
9963,65.0,4.0,60.0,11.0,0.0
9964,70.0,2.0,60.0,10.0,0.0
9965,74.0,1.0,60.0,0.0,0.0
9966,62.0,48.0,60.0,1.0,0.0
9967,62.0,9.0,60.0,11.0,0.0
9968,50.0,5.0,120.0,12.0,0.0
9969,46.0,2.0,120.0,3.0,0.0
9970,50.0,0.0,15.0,3.0,0.0
9971,70.0,2.0,60.0,10.0,0.0
9972,62.0,14.0,60.0,11.0,0.0
9973,70.0,2.0,60.0,10.0,0.0
9974,75.0,1.0,120.0,0.0,0.0
9975,82.0,1.0,360.0,0.0,0.0
9976,63.0,58.0,60.0,11.0,0.0
9977,70.0,3.0,360.0,1.0,0.0
9978,63.0,4.0,120.0,1.0,0.0
9979,58.0,0.0,360.0,2.0,0.0
9980,70.0,50.0,360.0,2.0,0.0
9981,51.0,5.0,120.0,12.0,0.0
9982,48.0,1.0,120.0,13.0,0.0
9983,51.0,2.0,120.0,3.0,0.0
9984,48.0,0.0,120.0,3.0,0.0
9985,36.0,36.0,120.0,14.0,0.0
9986,70.0,2.0,60.0,10.0,0.0
9987,63.0,9.0,60.0,11.0,0.0
9988,70.0,2.0,60.0,10.0,0.0
9989,77.0,1.0,120.0,0.0,0.0
9990,65.0,58.0,60.0,11.0,0.0
9991,65.0,4.0,120.0,1.0,0.0
9992,53.0,0.0,120.0,12.0,0.0
9993,50.0,3.0,120.0,13.0,0.0
9994,50.0,43.0,120.0,3.0,0.0
9995,53.0,0.0,120.0,3.0,0.0
9996,38.0,3.0,120.0,14.0,0.0
9997,70.0,2.0,60.0,10.0,0.0
9998,65.0,4.0,60.0,11.0,0.0
9999,70.0,2.0,60.0,10.0,0.0
10000,67.0,58.0,60.0,11.0,0.0
10001,55.0,0.0,240.0,12.0,0.0
10002,51.0,1.0,240.0,13.0,0.0
10003,51.0,2.0,240.0,3.0,0.0
10004,55.0,0.0,240.0,3.0,0.0
10005,39.0,36.0,240.0,14.0,0.0
10006,67.0,2.0,60.0,10.0,0.0
10007,67.0,4.0,60.0,11.0,0.0
10008,72.0,2.0,60.0,10.0,0.0
10009,79.0,1.0,60.0,0.0,0.0
10010,67.0,3.0,60.0,1.0,0.0
10011,67.0,9.0,60.0,11.0,0.0
10012,55.0,45.0,60.0,2.0,0.0
10013,67.0,0.0,60.0,2.0,0.0
10014,72.0,2.0,60.0,10.0,0.0
10015,67.0,9.0,60.0,11.0,0.0
10016,72.0,2.0,60.0,10.0,0.0
10017,84.0,1.0,360.0,0.0,0.0
10018,77.0,1.0,120.0,0.0,0.0
10019,60.0,0.0,480.0,4.0,0.0
10020,72.0,3.0,360.0,1.0,0.0
10021,65.0,4.0,120.0,1.0,0.0
10022,65.0,58.0,60.0,11.0,0.0
10023,60.0,0.0,360.0,2.0,0.0
10024,72.0,50.0,360.0,2.0,0.0
10025,53.0,5.0,120.0,12.0,0.0
10026,60.0,0.0,480.0,5.0,0.0
10027,50.0,1.0,120.0,13.0,0.0
10028,50.0,2.0,120.0,3.0,0.0
10029,53.0,0.0,120.0,3.0,0.0
10030,38.0,36.0,120.0,14.0,0.0
10031,72.0,2.0,60.0,10.0,0.0
10032,65.0,9.0,60.0,11.0,0.0
10033,72.0,2.0,60.0,10.0,0.0
10034,75.0,1.0,120.0,0.0,0.0
10035,63.0,58.0,60.0,11.0,0.0
10036,63.0,4.0,120.0,1.0,0.0
10037,51.0,0.0,120.0,12.0,0.0
10038,48.0,3.0,120.0,13.0,0.0
10039,51.0,43.0,120.0,3.0,0.0
10040,48.0,0.0,120.0,3.0,0.0
10041,36.0,3.0,120.0,14.0,0.0
10042,72.0,2.0,60.0,10.0,0.0
10043,63.0,4.0,60.0,11.0,0.0
10044,72.0,2.0,60.0,10.0,0.0
10045,69.0,58.0,60.0,11.0,0.0
10046,57.0,5.0,240.0,12.0,0.0
10047,53.0,1.0,240.0,13.0,0.0
10048,53.0,0.0,240.0,3.0,0.0
10049,57.0,2.0,240.0,3.0,0.0
10050,41.0,36.0,240.0,14.0,0.0
10051,69.0,2.0,60.0,10.0,0.0
10052,69.0,4.0,60.0,11.0,0.0
10053,74.0,2.0,60.0,10.0,0.0
10054,81.0,1.0,60.0,0.0,0.0
10055,69.0,9.0,60.0,11.0,0.0
10056,69.0,3.0,60.0,1.0,0.0
10057,69.0,0.0,60.0,2.0,0.0
10058,57.0,45.0,60.0,2.0,0.0
10059,74.0,2.0,60.0,10.0,0.0
10060,69.0,9.0,60.0,11.0,0.0
10061,74.0,2.0,60.0,10.0,0.0
10062,79.0,1.0,120.0,0.0,0.0
10063,86.0,1.0,360.0,0.0,0.0
10064,67.0,58.0,60.0,11.0,0.0
10065,67.0,4.0,120.0,1.0,0.0
10066,62.0,0.0,480.0,4.0,0.0
10067,74.0,3.0,360.0,1.0,0.0
10068,74.0,0.0,360.0,2.0,0.0
10069,62.0,50.0,360.0,2.0,0.0
10070,62.0,5.0,480.0,5.0,0.0
10071,55.0,5.0,120.0,12.0,0.0
10072,51.0,1.0,120.0,13.0,0.0
10073,51.0,0.0,120.0,3.0,0.0
10074,55.0,2.0,120.0,3.0,0.0
10075,39.0,36.0,120.0,14.0,0.0
10076,74.0,2.0,60.0,10.0,0.0
10077,67.0,9.0,60.0,11.0,0.0
10078,74.0,2.0,60.0,10.0,0.0
10079,77.0,0.0,120.0,0.0,0.0
10080,65.0,4.0,120.0,1.0,0.0
10081,65.0,58.0,60.0,11.0,0.0
10082,53.0,1.0,120.0,12.0,0.0
10083,50.0,3.0,120.0,13.0,0.0
10084,53.0,43.0,120.0,3.0,0.0
10085,50.0,0.0,120.0,3.0,0.0
10086,38.0,3.0,120.0,14.0,0.0
10087,74.0,2.0,60.0,10.0,0.0
10088,65.0,4.0,60.0,11.0,0.0
10089,74.0,2.0,60.0,10.0,0.0
10090,70.0,58.0,60.0,11.0,0.0
10091,58.0,0.0,240.0,12.0,0.0
10092,55.0,1.0,240.0,13.0,0.0
10093,55.0,0.0,240.0,3.0,0.0
10094,58.0,2.0,240.0,3.0,0.0
10095,43.0,36.0,240.0,14.0,0.0
10096,70.0,2.0,60.0,10.0,0.0
10097,70.0,4.0,60.0,11.0,0.0
10098,75.0,2.0,60.0,10.0,0.0
10099,82.0,1.0,60.0,0.0,0.0
10100,70.0,3.0,60.0,1.0,0.0
10101,70.0,9.0,60.0,11.0,0.0
10102,58.0,0.0,60.0,2.0,0.0
10103,70.0,45.0,60.0,2.0,0.0
10104,75.0,2.0,60.0,10.0,0.0
10105,70.0,9.0,60.0,11.0,0.0
10106,75.0,2.0,60.0,10.0,0.0
10107,87.0,1.0,1140.0,0.0,0.0
10108,81.0,5.0,120.0,0.0,0.0
10109,69.0,38.0,60.0,1.0,0.0
10110,63.0,2.0,240.0,4.0,0.0
10111,75.0,0.0,1140.0,1.0,0.0
10112,69.0,20.0,60.0,11.0,0.0
10113,60.0,0.0,1140.0,2.0,0.0
10114,72.0,1.0,1140.0,2.0,0.0
10115,57.0,5.0,120.0,12.0,0.0
10116,63.0,1.0,240.0,5.0,0.0
10117,53.0,1.0,120.0,13.0,0.0
10118,53.0,0.0,120.0,3.0,0.0
10119,57.0,2.0,120.0,3.0,0.0
10120,41.0,36.0,120.0,14.0,0.0
10121,75.0,2.0,60.0,10.0,0.0
10122,69.0,9.0,60.0,11.0,0.0
10123,75.0,2.0,60.0,10.0,0.0
10124,79.0,0.0,120.0,0.0,0.0
10125,67.0,4.0,120.0,1.0,0.0
10126,67.0,58.0,60.0,11.0,0.0
10127,55.0,1.0,120.0,12.0,0.0
10128,51.0,1.0,120.0,13.0,0.0
10129,51.0,38.0,120.0,3.0,0.0
10130,55.0,0.0,120.0,3.0,0.0
10131,39.0,2.0,120.0,14.0,0.0
10132,75.0,2.0,60.0,10.0,0.0
10133,67.0,4.0,60.0,11.0,0.0
10134,65.0,1.0,900.0,10.0,0.0
10135,75.0,0.0,900.0,10.0,0.0
10136,84.0,0.0,900.0,0.0,0.0
10137,72.0,0.0,900.0,1.0,0.0
10138,65.0,0.0,900.0,11.0,0.0
10139,60.0,0.0,900.0,4.0,0.0
10140,72.0,1.0,900.0,11.0,0.0
10141,72.0,0.0,900.0,6.0,0.0
10142,65.0,0.0,900.0,6.0,0.0
10143,60.0,0.0,900.0,12.0,0.0
10144,53.0,5.0,900.0,5.0,0.0
10145,57.0,1.0,900.0,13.0,0.0
10146,57.0,0.0,900.0,3.0,0.0
10147,60.0,2.0,900.0,3.0,0.0
10148,41.0,40.0,30.0,15.0,0.0
10149,45.0,951.0,900.0,14.0,0.0
10150,41.0,40.0,30.0,15.0,0.0
10151,41.0,40.0,30.0,15.0,0.0
10152,41.0,40.0,30.0,15.0,0.0
10153,41.0,40.0,30.0,15.0,0.0
10154,41.0,40.0,30.0,15.0,0.0
10155,41.0,40.0,30.0,15.0,0.0
10156,41.0,40.0,30.0,15.0,0.0
10157,41.0,40.0,30.0,15.0,0.0
10158,41.0,40.0,30.0,15.0,0.0
10159,41.0,40.0,30.0,15.0,0.0
10160,41.0,40.0,30.0,15.0,0.0
10161,41.0,40.0,30.0,15.0,0.0
10162,41.0,40.0,30.0,15.0,0.0
10163,41.0,40.0,30.0,15.0,0.0
10164,41.0,40.0,30.0,15.0,0.0
10165,41.0,40.0,30.0,15.0,0.0
10166,41.0,40.0,30.0,15.0,0.0
10167,41.0,40.0,30.0,15.0,0.0
10168,41.0,40.0,30.0,15.0,0.0
10169,41.0,65.0,30.0,15.0,0.0
10170,41.0,2.0,60.0,15.0,0.0
10171,62.0,2.0,900.0,10.0,0.0
10172,57.0,4.0,900.0,11.0,0.0
10173,50.0,5.0,900.0,12.0,0.0
10174,42.0,3.0,900.0,13.0,0.0
10175,30.0,127.0,900.0,14.0,0.0
10176,62.0,2.0,90.0,10.0,0.0
10177,57.0,4.0,90.0,11.0,0.0
10178,62.0,4.0,1080.0,4.0,0.0
10179,54.0,5.0,90.0,12.0,0.0
10180,50.0,90.0,1080.0,5.0,0.0
10181,50.0,3.0,90.0,13.0,0.0
10182,38.0,106.0,90.0,14.0,0.0
10183,62.0,2.0,90.0,10.0,0.0
10184,57.0,4.0,90.0,11.0,0.0
10185,54.0,125.0,90.0,12.0,0.0
10186,48.0,3.0,90.0,13.0,0.0
10187,36.0,106.0,90.0,14.0,0.0
10188,62.0,2.0,90.0,10.0,0.0
10189,57.0,4.0,90.0,11.0,0.0
10190,54.0,125.0,90.0,12.0,0.0
10191,46.0,3.0,90.0,13.0,0.0
10192,34.0,106.0,90.0,14.0,0.0
10193,62.0,2.0,90.0,10.0,0.0
10194,58.0,4.0,90.0,11.0,0.0
10195,55.0,125.0,90.0,12.0,0.0
10196,45.0,3.0,90.0,13.0,0.0
10197,33.0,106.0,90.0,14.0,0.0
10198,62.0,2.0,90.0,10.0,0.0
10199,60.0,4.0,90.0,11.0,0.0
10200,54.0,114.0,90.0,12.0,0.0
10201,62.0,2.0,90.0,10.0,0.0
10202,58.0,4.0,90.0,11.0,0.0
10203,67.0,7.0,1080.0,2.0,0.0
10204,55.0,5.0,90.0,12.0,0.0
10205,43.0,3.0,90.0,13.0,0.0
10206,55.0,84.0,1080.0,3.0,0.0
10207,31.0,12.0,90.0,14.0,0.0
10208,67.0,2.0,90.0,10.0,0.0
10209,62.0,4.0,90.0,11.0,0.0
10210,58.0,125.0,90.0,12.0,0.0
10211,53.0,3.0,90.0,13.0,0.0
10212,41.0,106.0,90.0,14.0,0.0
10213,67.0,2.0,90.0,10.0,0.0
10214,62.0,4.0,90.0,11.0,0.0
10215,59.0,125.0,90.0,12.0,0.0
10216,51.0,3.0,90.0,13.0,0.0
10217,39.0,106.0,90.0,14.0,0.0
10218,67.0,2.0,90.0,10.0,0.0
10219,63.0,4.0,90.0,11.0,0.0
10220,60.0,125.0,90.0,12.0,0.0
10221,50.0,3.0,90.0,13.0,0.0
10222,38.0,106.0,90.0,14.0,0.0
10223,67.0,2.0,90.0,10.0,0.0
10224,65.0,4.0,90.0,11.0,0.0
10225,59.0,114.0,90.0,12.0,0.0
10226,67.0,2.0,90.0,10.0,0.0
10227,63.0,4.0,90.0,11.0,0.0
10228,72.0,94.0,960.0,1.0,0.0
10229,60.0,5.0,90.0,12.0,0.0
10230,48.0,3.0,90.0,13.0,0.0
10231,36.0,15.0,90.0,14.0,0.0
10232,72.0,2.0,90.0,10.0,0.0
10233,63.0,4.0,90.0,11.0,0.0
10234,55.0,125.0,90.0,12.0,0.0
10235,46.0,3.0,90.0,13.0,0.0
10236,34.0,106.0,90.0,14.0,0.0
10237,72.0,2.0,90.0,10.0,0.0
10238,64.0,4.0,90.0,11.0,0.0
10239,55.0,125.0,90.0,12.0,0.0
10240,45.0,3.0,90.0,13.0,0.0
10241,33.0,106.0,90.0,14.0,0.0
10242,72.0,2.0,90.0,10.0,0.0
10243,65.0,4.0,90.0,11.0,0.0
10244,57.0,125.0,90.0,12.0,0.0
10245,43.0,3.0,90.0,13.0,0.0
10246,31.0,106.0,90.0,14.0,0.0
10247,72.0,2.0,90.0,10.0,0.0
10248,64.0,4.0,90.0,11.0,0.0
10249,58.0,20.0,90.0,12.0,0.0
10250,72.0,2.0,90.0,10.0,0.0
10251,60.0,0.0,240.0,4.0,0.0
10252,63.0,4.0,90.0,11.0,0.0
10253,72.0,4.0,240.0,1.0,0.0
10254,69.0,0.0,240.0,1.0,0.0
10255,57.0,5.0,90.0,12.0,0.0
10256,53.0,101.0,240.0,5.0,0.0
10257,41.0,3.0,90.0,13.0,0.0
10258,29.0,106.0,90.0,14.0,0.0
10259,60.0,2.0,90.0,10.0,0.0
10260,57.0,4.0,90.0,11.0,0.0
10261,53.0,20.0,90.0,12.0,0.0
10262,70.0,0.0,240.0,1.0,0.0
10263,74.0,4.0,240.0,1.0,0.0
10264,62.0,0.0,240.0,4.0,0.0
10265,58.0,101.0,240.0,5.0,0.0
10266,46.0,3.0,90.0,13.0,0.0
10267,34.0,106.0,90.0,14.0,0.0
10268,62.0,2.0,90.0,10.0,0.0
10269,58.0,4.0,90.0,11.0,0.0
10270,53.0,20.0,90.0,12.0,0.0
10271,63.0,4.0,240.0,4.0,0.0
10272,75.0,0.0,240.0,1.0,0.0
10273,60.0,101.0,240.0,5.0,0.0
10274,39.0,3.0,90.0,13.0,0.0
10275,27.0,106.0,90.0,14.0,0.0
10276,63.0,2.0,90.0,10.0,0.0
10277,60.0,4.0,90.0,11.0,0.0
10278,55.0,20.0,90.0,12.0,0.0
10279,72.0,0.0,15.0,1.0,0.0
10280,69.0,4.0,240.0,1.0,0.0
10281,60.0,0.0,240.0,4.0,0.0
10282,53.0,114.0,240.0,5.0,0.0
10283,41.0,3.0,90.0,13.0,0.0
10284,29.0,106.0,90.0,14.0,0.0
10285,60.0,2.0,90.0,10.0,0.0
10286,57.0,4.0,90.0,11.0,0.0
10287,53.0,20.0,90.0,12.0,0.0
10288,62.0,6.0,120.0,10.0,0.0
10289,62.0,5.0,120.0,12.0,0.0
10290,50.0,3.0,120.0,13.0,0.0
10291,38.0,48.0,120.0,14.0,0.0
10292,62.0,58.0,60.0,11.0,0.0
10293,73.0,62.0,60.0,10.0,0.0
10294,74.0,6.0,120.0,10.0,0.0
10295,54.0,10.0,60.0,11.0,0.0
10296,60.0,5.0,120.0,12.0,0.0
10297,48.0,3.0,120.0,13.0,0.0
10298,54.0,48.0,60.0,3.0,0.0
10299,36.0,48.0,120.0,14.0,0.0
10300,62.0,58.0,60.0,11.0,0.0
10301,73.0,62.0,60.0,10.0,0.0
10302,74.0,6.0,120.0,10.0,0.0
10303,55.0,10.0,60.0,11.0,0.0
10304,58.0,5.0,120.0,12.0,0.0
10305,46.0,3.0,120.0,13.0,0.0
10306,55.0,48.0,60.0,3.0,0.0
10307,34.0,48.0,120.0,14.0,0.0
10308,62.0,58.0,60.0,11.0,0.0
10309,73.0,62.0,60.0,10.0,0.0
10310,74.0,6.0,120.0,10.0,0.0
10311,57.0,10.0,60.0,11.0,0.0
10312,57.0,5.0,120.0,12.0,0.0
10313,45.0,3.0,120.0,13.0,0.0
10314,57.0,48.0,60.0,3.0,0.0
10315,33.0,48.0,120.0,14.0,0.0
10316,62.0,58.0,60.0,11.0,0.0
10317,73.0,62.0,60.0,10.0,0.0
10318,74.0,6.0,120.0,10.0,0.0
10319,58.0,10.0,60.0,11.0,0.0
10320,55.0,5.0,120.0,12.0,0.0
10321,43.0,3.0,120.0,13.0,0.0
10322,58.0,48.0,60.0,3.0,0.0
10323,31.0,46.0,120.0,14.0,0.0
10324,55.0,61.0,60.0,10.0,0.0
10325,78.0,1.0,60.0,0.0,0.0
10326,66.0,58.0,60.0,11.0,0.0
10327,59.0,2.0,60.0,10.0,0.0
10328,79.0,1.0,120.0,0.0,0.0
10329,67.0,4.0,120.0,11.0,0.0
10330,71.0,59.0,60.0,1.0,0.0
10331,65.0,5.0,120.0,12.0,0.0
10332,53.0,3.0,120.0,13.0,0.0
10333,41.0,46.0,120.0,14.0,0.0
10334,55.0,61.0,60.0,10.0,0.0
10335,78.0,1.0,60.0,0.0,0.0
10336,66.0,58.0,60.0,11.0,0.0
10337,60.0,2.0,60.0,10.0,0.0
10338,79.0,1.0,120.0,0.0,0.0
10339,67.0,4.0,120.0,11.0,0.0
10340,72.0,59.0,60.0,1.0,0.0
10341,63.0,5.0,120.0,12.0,0.0
10342,51.0,3.0,120.0,13.0,0.0
10343,39.0,46.0,120.0,14.0,0.0
10344,55.0,61.0,60.0,10.0,0.0
10345,78.0,1.0,60.0,0.0,0.0
10346,66.0,58.0,60.0,11.0,0.0
10347,62.0,2.0,60.0,10.0,0.0
10348,79.0,1.0,120.0,0.0,0.0
10349,74.0,59.0,60.0,1.0,0.0
10350,67.0,4.0,120.0,11.0,0.0
10351,62.0,5.0,120.0,12.0,0.0
10352,50.0,3.0,120.0,13.0,0.0
10353,38.0,46.0,120.0,14.0,0.0
10354,55.0,61.0,60.0,10.0,0.0
10355,78.0,1.0,60.0,0.0,0.0
10356,66.0,58.0,60.0,11.0,0.0
10357,63.0,2.0,60.0,10.0,0.0
10358,79.0,1.0,120.0,0.0,0.0
10359,75.0,59.0,60.0,1.0,0.0
10360,67.0,4.0,120.0,11.0,0.0
10361,60.0,5.0,120.0,12.0,0.0
10362,48.0,3.0,120.0,13.0,0.0
10363,36.0,48.0,120.0,14.0,0.0
10364,60.0,58.0,60.0,11.0,0.0
10365,71.0,62.0,60.0,10.0,0.0
10366,72.0,6.0,120.0,10.0,0.0
10367,52.0,10.0,60.0,11.0,0.0
10368,58.0,5.0,120.0,12.0,0.0
10369,46.0,3.0,120.0,13.0,0.0
10370,52.0,48.0,60.0,3.0,0.0
10371,34.0,48.0,120.0,14.0,0.0
10372,60.0,58.0,60.0,11.0,0.0
10373,71.0,62.0,60.0,10.0,0.0
10374,72.0,6.0,120.0,10.0,0.0
10375,53.0,10.0,60.0,11.0,0.0
10376,57.0,5.0,120.0,12.0,0.0
10377,45.0,3.0,120.0,13.0,0.0
10378,53.0,48.0,60.0,3.0,0.0
10379,33.0,48.0,120.0,14.0,0.0
10380,60.0,58.0,60.0,11.0,0.0
10381,71.0,62.0,60.0,10.0,0.0
10382,72.0,6.0,120.0,10.0,0.0
10383,55.0,10.0,60.0,11.0,0.0
10384,55.0,5.0,120.0,12.0,0.0
10385,43.0,3.0,120.0,13.0,0.0
10386,55.0,48.0,60.0,3.0,0.0
10387,31.0,48.0,120.0,14.0,0.0
10388,60.0,58.0,60.0,11.0,0.0
10389,71.0,62.0,60.0,10.0,0.0
10390,72.0,6.0,120.0,10.0,0.0
10391,57.0,10.0,60.0,11.0,0.0
10392,53.0,5.0,120.0,12.0,0.0
10393,41.0,3.0,120.0,13.0,0.0
10394,57.0,48.0,60.0,3.0,0.0
10395,29.0,46.0,120.0,14.0,0.0
10396,53.0,61.0,60.0,10.0,0.0
10397,76.0,1.0,60.0,0.0,0.0
10398,64.0,58.0,60.0,11.0,0.0
10399,57.0,2.0,60.0,10.0,0.0
10400,77.0,1.0,120.0,0.0,0.0
10401,69.0,59.0,60.0,1.0,0.0
10402,65.0,4.0,120.0,11.0,0.0
10403,63.0,5.0,120.0,12.0,0.0
10404,51.0,3.0,120.0,13.0,0.0
10405,39.0,46.0,120.0,14.0,0.0
10406,53.0,61.0,60.0,10.0,0.0
10407,76.0,1.0,60.0,0.0,0.0
10408,64.0,58.0,60.0,11.0,0.0
10409,58.0,2.0,60.0,10.0,0.0
10410,77.0,1.0,120.0,0.0,0.0
10411,70.0,59.0,60.0,1.0,0.0
10412,65.0,4.0,120.0,11.0,0.0
10413,62.0,5.0,120.0,12.0,0.0
10414,50.0,3.0,120.0,13.0,0.0
10415,38.0,46.0,120.0,14.0,0.0
10416,53.0,61.0,60.0,10.0,0.0
10417,76.0,1.0,60.0,0.0,0.0
10418,64.0,58.0,60.0,11.0,0.0
10419,60.0,2.0,60.0,10.0,0.0
10420,77.0,1.0,120.0,0.0,0.0
10421,72.0,59.0,60.0,1.0,0.0
10422,65.0,4.0,120.0,11.0,0.0
10423,60.0,5.0,120.0,12.0,0.0
10424,48.0,3.0,120.0,13.0,0.0
10425,36.0,46.0,120.0,14.0,0.0
10426,53.0,61.0,60.0,10.0,0.0
10427,76.0,1.0,60.0,0.0,0.0
10428,64.0,58.0,60.0,11.0,0.0
10429,62.0,2.0,60.0,10.0,0.0
10430,77.0,1.0,120.0,0.0,0.0
10431,74.0,10.0,60.0,1.0,0.0
10432,65.0,4.0,120.0,11.0,0.0
10433,58.0,5.0,120.0,12.0,0.0
10434,46.0,3.0,120.0,13.0,0.0
10435,62.0,49.0,60.0,3.0,0.0
10436,34.0,48.0,120.0,14.0,0.0
10437,58.0,58.0,60.0,11.0,0.0
10438,81.0,62.0,60.0,10.0,0.0
10439,82.0,6.0,120.0,10.0,0.0
10440,62.0,10.0,60.0,11.0,0.0
10441,56.0,5.0,120.0,12.0,0.0
10442,44.0,3.0,120.0,13.0,0.0
10443,50.0,48.0,60.0,3.0,0.0
10444,32.0,48.0,120.0,14.0,0.0
10445,58.0,58.0,60.0,11.0,0.0
10446,81.0,62.0,60.0,10.0,0.0
10447,82.0,6.0,120.0,10.0,0.0
10448,63.0,10.0,60.0,11.0,0.0
10449,55.0,5.0,120.0,12.0,0.0
10450,43.0,3.0,120.0,13.0,0.0
10451,51.0,48.0,60.0,3.0,0.0
10452,31.0,48.0,120.0,14.0,0.0
10453,58.0,58.0,60.0,11.0,0.0
10454,81.0,62.0,60.0,10.0,0.0
10455,82.0,6.0,120.0,10.0,0.0
10456,65.0,10.0,60.0,11.0,0.0
10457,53.0,5.0,120.0,12.0,0.0
10458,41.0,3.0,120.0,13.0,0.0
10459,53.0,48.0,60.0,3.0,0.0
10460,29.0,48.0,120.0,14.0,0.0
10461,58.0,58.0,60.0,11.0,0.0
10462,81.0,62.0,60.0,10.0,0.0
10463,82.0,6.0,120.0,10.0,0.0
10464,67.0,10.0,60.0,11.0,0.0
10465,51.0,5.0,120.0,12.0,0.0
10466,39.0,3.0,120.0,13.0,0.0
10467,55.0,48.0,60.0,3.0,0.0
10468,27.0,48.0,120.0,14.0,0.0
10469,58.0,58.0,60.0,11.0,0.0
10470,81.0,62.0,60.0,10.0,0.0
10471,82.0,6.0,120.0,10.0,0.0
10472,62.0,0.0,60.0,11.0,0.0
10473,62.0,10.0,60.0,1.0,0.0
10474,56.0,5.0,120.0,12.0,0.0
10475,44.0,3.0,120.0,13.0,0.0
10476,50.0,48.0,60.0,3.0,0.0
10477,32.0,48.0,120.0,14.0,0.0
10478,58.0,58.0,60.0,11.0,0.0
10479,81.0,62.0,60.0,10.0,0.0
10480,82.0,6.0,120.0,10.0,0.0
10481,63.0,10.0,60.0,1.0,0.0
10482,63.0,0.0,60.0,11.0,0.0
10483,55.0,5.0,120.0,12.0,0.0
10484,43.0,3.0,120.0,13.0,0.0
10485,51.0,48.0,60.0,3.0,0.0
10486,31.0,48.0,120.0,14.0,0.0
10487,58.0,58.0,60.0,11.0,0.0
10488,81.0,62.0,60.0,10.0,0.0
10489,82.0,6.0,120.0,10.0,0.0
10490,65.0,0.0,60.0,1.0,0.0
10491,65.0,10.0,60.0,11.0,0.0
10492,53.0,5.0,120.0,12.0,0.0
10493,41.0,3.0,120.0,13.0,0.0
10494,53.0,48.0,60.0,3.0,0.0
10495,29.0,48.0,120.0,14.0,0.0
10496,58.0,58.0,60.0,11.0,0.0
10497,81.0,61.0,60.0,10.0,0.0
10498,70.0,1.0,3840.0,10.0,0.0
10499,82.0,0.0,3840.0,10.0,0.0
10500,79.0,1.0,60.0,0.0,0.0
10501,46.0,2.0,3960.0,4.0,0.0
10502,67.0,0.0,60.0,11.0,0.0
10503,67.0,10.0,60.0,1.0,0.0
10504,34.0,6.0,3960.0,5.0,0.0
10505,51.0,5.0,240.0,12.0,0.0
10506,39.0,3.0,240.0,13.0,0.0
10507,55.0,174.0,60.0,3.0,0.0
10508,27.0,227.0,240.0,14.0,0.0
10509,74.0,1.0,240.0,0.0,0.0
10510,58.0,0.0,3600.0,11.0,0.0
10511,62.0,4.0,240.0,1.0,0.0
10512,70.0,0.0,3600.0,11.0,0.0
10513,56.0,5.0,240.0,12.0,0.0
10514,44.0,1.0,240.0,13.0,0.0
10515,50.0,2.0,240.0,3.0,0.0
10516,32.0,227.0,240.0,14.0,0.0
10517,75.0,1.0,240.0,0.0,0.0
10518,63.0,4.0,240.0,1.0,0.0
10519,55.0,5.0,240.0,12.0,0.0
10520,43.0,1.0,240.0,13.0,0.0
10521,51.0,2.0,240.0,3.0,0.0
10522,31.0,227.0,240.0,14.0,0.0
10523,77.0,1.0,240.0,0.0,0.0
10524,65.0,4.0,240.0,1.0,0.0
10525,53.0,5.0,240.0,12.0,0.0
10526,41.0,1.0,240.0,13.0,0.0
10527,53.0,2.0,240.0,3.0,0.0
10528,29.0,227.0,240.0,14.0,0.0
10529,79.0,1.0,240.0,0.0,0.0
10530,67.0,4.0,240.0,1.0,0.0
10531,51.0,5.0,240.0,12.0,0.0
10532,39.0,1.0,240.0,13.0,0.0
10533,55.0,2.0,240.0,3.0,0.0
10534,27.0,227.0,240.0,14.0,0.0
10535,74.0,1.0,240.0,0.0,0.0
10536,62.0,4.0,240.0,1.0,0.0
10537,56.0,5.0,240.0,12.0,0.0
10538,44.0,1.0,240.0,13.0,0.0
10539,50.0,2.0,240.0,3.0,0.0
10540,32.0,227.0,240.0,14.0,0.0
10541,75.0,1.0,240.0,0.0,0.0
10542,63.0,4.0,240.0,1.0,0.0
10543,55.0,5.0,240.0,12.0,0.0
10544,43.0,1.0,240.0,13.0,0.0
10545,51.0,2.0,240.0,3.0,0.0
10546,31.0,227.0,240.0,14.0,0.0
10547,77.0,1.0,240.0,0.0,0.0
10548,65.0,4.0,240.0,1.0,0.0
10549,53.0,5.0,240.0,12.0,0.0
10550,41.0,1.0,240.0,13.0,0.0
10551,53.0,2.0,240.0,3.0,0.0
10552,29.0,467.0,240.0,14.0,0.0
10553,79.0,1.0,480.0,0.0,0.0
10554,67.0,4.0,480.0,1.0,0.0
10555,51.0,5.0,480.0,12.0,0.0
10556,39.0,1.0,480.0,13.0,0.0
10557,55.0,2.0,480.0,3.0,0.0
10558,27.0,467.0,480.0,14.0,0.0
10559,74.0,1.0,480.0,0.0,0.0
10560,62.0,4.0,480.0,1.0,0.0
10561,56.0,5.0,480.0,12.0,0.0
10562,44.0,1.0,480.0,13.0,0.0
10563,50.0,2.0,480.0,3.0,0.0
10564,32.0,467.0,480.0,14.0,0.0
10565,75.0,1.0,480.0,0.0,0.0
10566,63.0,4.0,480.0,1.0,0.0
10567,55.0,5.0,480.0,12.0,0.0
10568,43.0,1.0,480.0,13.0,0.0
10569,51.0,2.0,480.0,3.0,0.0
10570,31.0,466.0,480.0,14.0,0.0
10571,77.0,1.0,480.0,0.0,0.0
10572,65.0,4.0,480.0,1.0,0.0
10573,53.0,5.0,480.0,12.0,0.0
10574,41.0,1.0,480.0,13.0,0.0
10575,53.0,2.0,480.0,3.0,0.0
10576,29.0,36.0,480.0,14.0,0.0
10577,82.0,2.0,60.0,10.0,0.0
10578,79.0,1.0,120.0,0.0,0.0
10579,67.0,0.0,120.0,1.0,0.0
10580,67.0,4.0,60.0,11.0,0.0
10581,51.0,5.0,60.0,12.0,0.0
10582,39.0,3.0,60.0,13.0,0.0
10583,55.0,38.0,120.0,3.0,0.0
10584,27.0,46.0,60.0,14.0,0.0
10585,82.0,2.0,60.0,10.0,0.0
10586,79.0,4.0,60.0,11.0,0.0
10587,51.0,5.0,60.0,12.0,0.0
10588,39.0,0.0,60.0,13.0,0.0
10589,27.0,2.0,60.0,14.0,0.0
10590,82.0,2.0,60.0,10.0,0.0
10591,79.0,4.0,60.0,11.0,0.0
10592,51.0,5.0,60.0,12.0,0.0
10593,39.0,3.0,60.0,13.0,0.0
10594,27.0,46.0,60.0,14.0,0.0
10595,82.0,2.0,60.0,10.0,0.0
10596,79.0,4.0,60.0,11.0,0.0
10597,51.0,5.0,60.0,12.0,0.0
10598,39.0,3.0,60.0,13.0,0.0
10599,27.0,46.0,60.0,14.0,0.0
10600,82.0,2.0,60.0,10.0,0.0
10601,79.0,4.0,60.0,11.0,0.0
10602,51.0,5.0,60.0,12.0,0.0
10603,39.0,3.0,60.0,13.0,0.0
10604,27.0,46.0,60.0,14.0,0.0
10605,82.0,2.0,60.0,10.0,0.0
10606,79.0,4.0,60.0,11.0,0.0
10607,51.0,5.0,60.0,12.0,0.0
10608,39.0,3.0,60.0,13.0,0.0
10609,27.0,46.0,60.0,14.0,0.0
10610,82.0,2.0,60.0,10.0,0.0
10611,79.0,4.0,60.0,11.0,0.0
10612,51.0,5.0,60.0,12.0,0.0
10613,39.0,3.0,60.0,13.0,0.0
10614,27.0,46.0,60.0,14.0,0.0
10615,82.0,2.0,60.0,10.0,0.0
10616,79.0,4.0,60.0,11.0,0.0
10617,51.0,5.0,60.0,12.0,0.0
10618,39.0,3.0,60.0,13.0,0.0
10619,27.0,46.0,60.0,14.0,0.0
10620,82.0,2.0,60.0,10.0,0.0
10621,79.0,4.0,60.0,11.0,0.0
10622,51.0,5.0,60.0,12.0,0.0
10623,39.0,3.0,60.0,13.0,0.0
10624,27.0,46.0,60.0,14.0,0.0
10625,82.0,2.0,60.0,10.0,0.0
10626,79.0,4.0,60.0,11.0,0.0
10627,51.0,5.0,60.0,12.0,0.0
10628,39.0,3.0,60.0,13.0,0.0
10629,27.0,46.0,60.0,14.0,0.0
10630,82.0,2.0,60.0,10.0,0.0
10631,79.0,4.0,60.0,11.0,0.0
10632,51.0,5.0,60.0,12.0,0.0
10633,39.0,3.0,60.0,13.0,0.0
10634,27.0,46.0,60.0,14.0,0.0
10635,82.0,2.0,60.0,10.0,0.0
10636,79.0,4.0,60.0,11.0,0.0
10637,51.0,5.0,60.0,12.0,0.0
10638,39.0,3.0,60.0,13.0,0.0
10639,27.0,46.0,60.0,14.0,0.0
10640,82.0,2.0,60.0,10.0,0.0
10641,79.0,4.0,60.0,11.0,0.0
10642,51.0,5.0,60.0,12.0,0.0
10643,39.0,3.0,60.0,13.0,0.0
10644,27.0,46.0,60.0,14.0,0.0
10645,82.0,2.0,60.0,10.0,0.0
10646,79.0,4.0,60.0,11.0,0.0
10647,51.0,5.0,60.0,12.0,0.0
10648,39.0,3.0,60.0,13.0,0.0
10649,27.0,46.0,60.0,14.0,0.0
10650,82.0,2.0,60.0,10.0,0.0
10651,79.0,4.0,60.0,11.0,0.0
10652,51.0,5.0,60.0,12.0,0.0
10653,39.0,3.0,60.0,13.0,0.0
10654,27.0,46.0,60.0,14.0,0.0
10655,82.0,2.0,60.0,10.0,0.0
10656,79.0,4.0,60.0,11.0,0.0
10657,51.0,5.0,60.0,12.0,0.0
10658,39.0,3.0,60.0,13.0,0.0
10659,27.0,46.0,60.0,14.0,0.0
10660,79.0,2.0,60.0,10.0,0.0
10661,75.0,4.0,60.0,11.0,0.0
10662,51.0,5.0,60.0,12.0,0.0
10663,39.0,3.0,60.0,13.0,0.0
10664,27.0,46.0,60.0,14.0,0.0
10665,79.0,2.0,60.0,10.0,0.0
10666,75.0,4.0,60.0,11.0,0.0
10667,51.0,5.0,60.0,12.0,0.0
10668,39.0,3.0,60.0,13.0,0.0
10669,27.0,46.0,60.0,14.0,0.0
10670,79.0,2.0,60.0,10.0,0.0
10671,75.0,4.0,60.0,11.0,0.0
10672,51.0,5.0,60.0,12.0,0.0
10673,39.0,3.0,60.0,13.0,0.0
10674,27.0,46.0,60.0,14.0,0.0
10675,79.0,2.0,60.0,10.0,0.0
10676,75.0,4.0,60.0,11.0,0.0
10677,51.0,5.0,60.0,12.0,0.0
10678,39.0,3.0,60.0,13.0,0.0
10679,27.0,46.0,60.0,14.0,0.0
10680,79.0,2.0,60.0,10.0,0.0
10681,75.0,4.0,60.0,11.0,0.0
10682,51.0,5.0,60.0,12.0,0.0
10683,39.0,3.0,60.0,13.0,0.0
10684,27.0,46.0,60.0,14.0,0.0
10685,79.0,2.0,60.0,10.0,0.0
10686,75.0,4.0,60.0,11.0,0.0
10687,51.0,5.0,60.0,12.0,0.0
10688,39.0,3.0,60.0,13.0,0.0
10689,27.0,46.0,60.0,14.0,0.0
10690,79.0,2.0,60.0,10.0,0.0
10691,75.0,4.0,60.0,11.0,0.0
10692,51.0,5.0,60.0,12.0,0.0
10693,39.0,3.0,60.0,13.0,0.0
10694,27.0,46.0,60.0,14.0,0.0
10695,79.0,2.0,60.0,10.0,0.0
10696,75.0,4.0,60.0,11.0,0.0
10697,51.0,5.0,60.0,12.0,0.0
10698,39.0,3.0,60.0,13.0,0.0
10699,27.0,46.0,60.0,14.0,0.0
10700,75.0,2.0,60.0,10.0,0.0
10701,70.0,4.0,60.0,11.0,0.0
10702,51.0,5.0,60.0,12.0,0.0
10703,39.0,3.0,60.0,13.0,0.0
10704,27.0,46.0,60.0,14.0,0.0
10705,75.0,2.0,60.0,10.0,0.0
10706,70.0,4.0,60.0,11.0,0.0
10707,51.0,5.0,60.0,12.0,0.0
10708,39.0,3.0,60.0,13.0,0.0
10709,27.0,46.0,60.0,14.0,0.0
10710,75.0,2.0,60.0,10.0,0.0
10711,70.0,4.0,60.0,11.0,0.0
10712,51.0,5.0,60.0,12.0,0.0
10713,39.0,3.0,60.0,13.0,0.0
10714,27.0,46.0,60.0,14.0,0.0
10715,75.0,2.0,60.0,10.0,0.0
10716,70.0,4.0,60.0,11.0,0.0
10717,51.0,5.0,60.0,12.0,0.0
10718,39.0,3.0,60.0,13.0,0.0
10719,27.0,46.0,60.0,14.0,0.0
10720,75.0,2.0,60.0,10.0,0.0
10721,70.0,4.0,60.0,11.0,0.0
10722,51.0,5.0,60.0,12.0,0.0
10723,39.0,3.0,60.0,13.0,0.0
10724,27.0,46.0,60.0,14.0,0.0
10725,75.0,2.0,60.0,10.0,0.0
10726,70.0,4.0,60.0,11.0,0.0
10727,51.0,5.0,60.0,12.0,0.0
10728,39.0,3.0,60.0,13.0,0.0
10729,27.0,46.0,60.0,14.0,0.0
10730,75.0,2.0,60.0,10.0,0.0
10731,70.0,4.0,60.0,11.0,0.0
10732,51.0,5.0,60.0,12.0,0.0
10733,39.0,3.0,60.0,13.0,0.0
10734,27.0,46.0,60.0,14.0,0.0
10735,75.0,2.0,60.0,10.0,0.0
10736,70.0,4.0,60.0,11.0,0.0
10737,51.0,5.0,60.0,12.0,0.0
10738,39.0,3.0,60.0,13.0,0.0
10739,27.0,46.0,60.0,14.0,0.0
10740,70.0,2.0,60.0,10.0,0.0
10741,67.0,4.0,60.0,11.0,0.0
10742,51.0,5.0,60.0,12.0,0.0
10743,39.0,3.0,60.0,13.0,0.0
10744,27.0,46.0,60.0,14.0,0.0
10745,70.0,2.0,60.0,10.0,0.0
10746,67.0,4.0,60.0,11.0,0.0
10747,51.0,5.0,60.0,12.0,0.0
10748,39.0,3.0,60.0,13.0,0.0
10749,27.0,46.0,60.0,14.0,0.0
10750,70.0,2.0,60.0,10.0,0.0
10751,67.0,4.0,60.0,11.0,0.0
10752,51.0,5.0,60.0,12.0,0.0
10753,39.0,3.0,60.0,13.0,0.0
10754,27.0,46.0,60.0,14.0,0.0
10755,70.0,2.0,60.0,10.0,0.0
10756,67.0,4.0,60.0,11.0,0.0
10757,51.0,5.0,60.0,12.0,0.0
10758,39.0,3.0,60.0,13.0,0.0
10759,27.0,46.0,60.0,14.0,0.0
10760,70.0,2.0,60.0,10.0,0.0
10761,67.0,4.0,60.0,11.0,0.0
10762,51.0,5.0,60.0,12.0,0.0
10763,39.0,3.0,60.0,13.0,0.0
10764,27.0,46.0,60.0,14.0,0.0
10765,70.0,2.0,60.0,10.0,0.0
10766,67.0,4.0,60.0,11.0,0.0
10767,51.0,5.0,60.0,12.0,0.0
10768,39.0,3.0,60.0,13.0,0.0
10769,27.0,46.0,60.0,14.0,0.0
10770,70.0,2.0,60.0,10.0,0.0
10771,67.0,4.0,60.0,11.0,0.0
10772,51.0,5.0,60.0,12.0,0.0
10773,39.0,3.0,60.0,13.0,0.0
10774,27.0,46.0,60.0,14.0,0.0
10775,70.0,2.0,60.0,10.0,0.0
10776,67.0,4.0,60.0,11.0,0.0
10777,51.0,5.0,60.0,12.0,0.0
10778,39.0,3.0,60.0,13.0,0.0
10779,27.0,46.0,60.0,14.0,0.0
10780,67.0,2.0,60.0,10.0,0.0
10781,63.0,4.0,60.0,11.0,0.0
10782,51.0,5.0,60.0,12.0,0.0
10783,39.0,3.0,60.0,13.0,0.0
10784,27.0,46.0,60.0,14.0,0.0
10785,67.0,2.0,60.0,10.0,0.0
10786,63.0,4.0,60.0,11.0,0.0
10787,51.0,5.0,60.0,12.0,0.0
10788,39.0,3.0,60.0,13.0,0.0
10789,27.0,46.0,60.0,14.0,0.0
10790,67.0,2.0,60.0,10.0,0.0
10791,63.0,4.0,60.0,11.0,0.0
10792,51.0,5.0,60.0,12.0,0.0
10793,39.0,3.0,60.0,13.0,0.0
10794,27.0,46.0,60.0,14.0,0.0
10795,67.0,2.0,60.0,10.0,0.0
10796,63.0,4.0,60.0,11.0,0.0
10797,51.0,5.0,60.0,12.0,0.0
10798,39.0,3.0,60.0,13.0,0.0
10799,27.0,46.0,60.0,14.0,0.0
10800,67.0,2.0,60.0,10.0,0.0
10801,63.0,4.0,60.0,11.0,0.0
10802,51.0,5.0,60.0,12.0,0.0
10803,39.0,3.0,60.0,13.0,0.0
10804,27.0,46.0,60.0,14.0,0.0
10805,67.0,2.0,60.0,10.0,0.0
10806,63.0,4.0,60.0,11.0,0.0
10807,51.0,5.0,60.0,12.0,0.0
10808,39.0,3.0,60.0,13.0,0.0
10809,27.0,46.0,60.0,14.0,0.0
10810,67.0,2.0,60.0,10.0,0.0
10811,63.0,4.0,60.0,11.0,0.0
10812,51.0,5.0,60.0,12.0,0.0
10813,39.0,3.0,60.0,13.0,0.0
10814,27.0,46.0,60.0,14.0,0.0
10815,67.0,2.0,60.0,10.0,0.0
10816,63.0,4.0,60.0,11.0,0.0
10817,51.0,5.0,60.0,12.0,0.0
10818,39.0,3.0,60.0,13.0,0.0
10819,27.0,41.0,60.0,14.0,0.0
10820,66.0,1.0,960.0,10.0,0.0
10821,58.0,0.0,960.0,10.0,0.0
10822,85.0,1.0,960.0,0.0,0.0
10823,82.0,0.0,960.0,0.0,0.0
10824,66.0,1.0,960.0,1.0,0.0
10825,58.0,0.0,960.0,4.0,0.0
10826,73.0,0.0,960.0,1.0,0.0
10827,61.0,0.0,960.0,11.0,0.0
10828,54.0,0.0,960.0,11.0,0.0
10829,58.0,0.0,960.0,6.0,0.0
10830,61.0,1.0,960.0,2.0,0.0
10831,70.0,0.0,960.0,2.0,0.0
10832,46.0,0.0,960.0,5.0,0.0
10833,52.0,5.0,960.0,12.0,0.0
10834,40.0,1.0,960.0,13.0,0.0
10835,40.0,2.0,960.0,3.0,0.0
10836,52.0,0.0,960.0,3.0,0.0
10837,46.0,40.0,30.0,15.0,0.0
10838,28.0,38.0,960.0,14.0,0.0
10839,46.0,40.0,30.0,15.0,0.0
10840,46.0,40.0,30.0,15.0,0.0
10841,46.0,40.0,30.0,15.0,0.0
10842,46.0,40.0,30.0,15.0,0.0
10843,46.0,40.0,30.0,15.0,0.0
10844,46.0,40.0,30.0,15.0,0.0
10845,46.0,40.0,30.0,15.0,0.0
10846,46.0,40.0,30.0,15.0,0.0
10847,46.0,40.0,30.0,15.0,0.0
10848,46.0,40.0,30.0,15.0,0.0
10849,46.0,40.0,30.0,15.0,0.0
10850,46.0,40.0,30.0,15.0,0.0
10851,46.0,40.0,30.0,15.0,0.0
10852,46.0,40.0,30.0,15.0,0.0
10853,46.0,40.0,30.0,15.0,0.0
10854,46.0,40.0,30.0,15.0,0.0
10855,46.0,40.0,30.0,15.0,0.0
10856,46.0,40.0,30.0,15.0,0.0
10857,46.0,40.0,30.0,15.0,0.0
10858,46.0,40.0,30.0,15.0,0.0
10859,46.0,40.0,30.0,15.0,0.0
10860,46.0,35.0,30.0,15.0,0.0
10861,46.0,0.0,30.0,15.0,0.0
10862,65.0,1.0,60.0,10.0,0.0
10863,82.0,0.0,960.0,0.0,0.0
10864,86.0,0.0,960.0,0.0,0.0
10865,62.0,4.0,60.0,11.0,0.0
10866,53.0,0.0,60.0,11.0,0.0
10867,74.0,0.0,960.0,1.0,0.0
10868,70.0,2.0,960.0,1.0,0.0
10869,62.0,0.0,960.0,4.0,0.0
10870,70.0,2.0,15.0,6.0,0.0
10871,58.0,1.0,120.0,6.0,0.0
10872,70.0,0.0,960.0,2.0,0.0
10873,53.0,4.0,60.0,12.0,0.0
10874,58.0,6.0,960.0,5.0,0.0
10875,41.0,3.0,60.0,13.0,0.0
10876,53.0,40.0,960.0,3.0,0.0
10877,41.0,0.0,960.0,3.0,0.0
10878,41.0,39.0,120.0,15.0,0.0
10879,29.0,48.0,60.0,14.0,0.0
10880,64.0,1.0,60.0,10.0,0.0
10881,70.0,0.0,60.0,11.0,0.0
10882,62.0,4.0,60.0,11.0,0.0
10883,53.0,4.0,60.0,12.0,0.0
10884,41.0,2.0,60.0,13.0,0.0
10885,29.0,9.0,60.0,14.0,0.0
10886,65.0,1.0,60.0,10.0,0.0
10887,62.0,4.0,60.0,11.0,0.0
10888,70.0,0.0,60.0,11.0,0.0
10889,53.0,4.0,60.0,12.0,0.0
10890,41.0,3.0,60.0,13.0,0.0
10891,29.0,48.0,60.0,14.0,0.0
10892,64.0,1.0,60.0,10.0,0.0
10893,70.0,0.0,60.0,11.0,0.0
10894,62.0,4.0,60.0,11.0,0.0
10895,53.0,4.0,60.0,12.0,0.0
10896,41.0,3.0,60.0,13.0,0.0
10897,29.0,48.0,60.0,14.0,0.0
10898,65.0,1.0,60.0,10.0,0.0
10899,62.0,4.0,60.0,11.0,0.0
10900,70.0,0.0,60.0,11.0,0.0
10901,53.0,4.0,60.0,12.0,0.0
10902,41.0,3.0,60.0,13.0,0.0
10903,29.0,48.0,60.0,14.0,0.0
10904,64.0,1.0,60.0,10.0,0.0
10905,62.0,0.0,60.0,11.0,0.0
10906,70.0,4.0,60.0,11.0,0.0
10907,53.0,4.0,60.0,12.0,0.0
10908,41.0,3.0,60.0,13.0,0.0
10909,29.0,48.0,60.0,14.0,0.0
10910,65.0,1.0,60.0,10.0,0.0
10911,70.0,4.0,60.0,11.0,0.0
10912,62.0,0.0,60.0,11.0,0.0
10913,53.0,4.0,60.0,12.0,0.0
10914,41.0,3.0,60.0,13.0,0.0
10915,29.0,46.0,60.0,14.0,0.0
10916,64.0,2.0,60.0,10.0,0.0
10917,62.0,4.0,60.0,11.0,0.0
10918,70.0,0.0,60.0,11.0,0.0
10919,53.0,5.0,60.0,12.0,0.0
10920,41.0,3.0,60.0,13.0,0.0
10921,29.0,48.0,60.0,14.0,0.0
10922,65.0,2.0,120.0,10.0,0.0
10923,62.0,0.0,60.0,11.0,0.0
10924,70.0,4.0,60.0,11.0,0.0
10925,53.0,5.0,60.0,12.0,0.0
10926,41.0,3.0,60.0,13.0,0.0
10927,29.0,46.0,60.0,14.0,0.0
10928,62.0,4.0,60.0,11.0,0.0
10929,70.0,0.0,60.0,11.0,0.0
10930,53.0,5.0,60.0,12.0,0.0
10931,41.0,3.0,60.0,13.0,0.0
10932,29.0,26.0,60.0,14.0,0.0
10933,67.0,22.0,30.0,10.0,0.0
10934,70.0,0.0,60.0,11.0,0.0
10935,62.0,4.0,60.0,11.0,0.0
10936,53.0,5.0,60.0,12.0,0.0
10937,41.0,3.0,60.0,13.0,0.0
10938,29.0,26.0,60.0,14.0,0.0
10939,69.0,22.0,30.0,10.0,0.0
10940,70.0,4.0,60.0,11.0,0.0
10941,62.0,0.0,60.0,11.0,0.0
10942,53.0,5.0,60.0,12.0,0.0
10943,41.0,3.0,60.0,13.0,0.0
10944,29.0,26.0,60.0,14.0,0.0
10945,70.0,22.0,30.0,10.0,0.0
10946,70.0,0.0,60.0,11.0,0.0
10947,62.0,4.0,60.0,11.0,0.0
10948,53.0,5.0,60.0,12.0,0.0
10949,41.0,3.0,60.0,13.0,0.0
10950,29.0,26.0,60.0,14.0,0.0
10951,72.0,22.0,30.0,10.0,0.0
10952,70.0,4.0,60.0,11.0,0.0
10953,62.0,0.0,60.0,11.0,0.0
10954,53.0,5.0,60.0,12.0,0.0
10955,41.0,3.0,60.0,13.0,0.0
10956,29.0,26.0,60.0,14.0,0.0
10957,74.0,22.0,30.0,10.0,0.0
10958,70.0,0.0,60.0,11.0,0.0
10959,62.0,4.0,60.0,11.0,0.0
10960,53.0,5.0,60.0,12.0,0.0
10961,41.0,3.0,60.0,13.0,0.0
10962,29.0,26.0,60.0,14.0,0.0
10963,75.0,22.0,30.0,10.0,0.0
10964,70.0,4.0,60.0,11.0,0.0
10965,62.0,0.0,60.0,11.0,0.0
10966,53.0,5.0,60.0,12.0,0.0
10967,41.0,1.0,60.0,13.0,0.0
10968,29.0,1.0,60.0,14.0,0.0
10969,77.0,1.0,60.0,10.0,0.0
10970,77.0,0.0,600.0,0.0,0.0
10971,89.0,0.0,600.0,0.0,0.0
10972,62.0,0.0,960.0,4.0,0.0
10973,74.0,0.0,960.0,1.0,0.0
10974,70.0,8.0,60.0,11.0,0.0
10975,70.0,1.0,960.0,1.0,0.0
10976,62.0,0.0,60.0,11.0,0.0
10977,62.0,1.0,15.0,2.0,0.0
10978,70.0,1.0,960.0,2.0,0.0
10979,65.0,5.0,600.0,12.0,0.0
10980,58.0,46.0,960.0,5.0,0.0
10981,53.0,0.0,600.0,13.0,0.0
10982,53.0,18.0,600.0,3.0,0.0
10983,41.0,51.0,40.0,15.0,0.0
10984,41.0,8.0,600.0,14.0,0.0
10985,76.0,1.0,60.0,10.0,0.0
10986,62.0,8.0,60.0,11.0,0.0
10987,70.0,0.0,60.0,11.0,0.0
10988,41.0,2.0,40.0,15.0,0.0
10989,77.0,1.0,60.0,10.0,0.0
10990,62.0,0.0,60.0,11.0,0.0
10991,70.0,8.0,60.0,11.0,0.0
10992,70.0,0.0,15.0,6.0,0.0
10993,58.0,49.0,15.0,6.0,0.0
10994,41.0,51.0,40.0,15.0,0.0
10995,76.0,1.0,60.0,10.0,0.0
10996,70.0,0.0,60.0,11.0,0.0
10997,62.0,8.0,60.0,11.0,0.0
10998,41.0,2.0,40.0,15.0,0.0
10999,77.0,1.0,60.0,10.0,0.0
11000,70.0,8.0,60.0,11.0,0.0
11001,62.0,0.0,60.0,11.0,0.0
11002,70.0,49.0,15.0,6.0,0.0
11003,41.0,51.0,40.0,15.0,0.0
11004,76.0,1.0,60.0,10.0,0.0
11005,70.0,8.0,60.0,11.0,0.0
11006,62.0,0.0,60.0,11.0,0.0
11007,41.0,2.0,40.0,15.0,0.0
11008,77.0,1.0,60.0,10.0,0.0
11009,70.0,8.0,60.0,11.0,0.0
11010,62.0,0.0,60.0,11.0,0.0
11011,58.0,0.0,15.0,6.0,0.0
11012,70.0,49.0,15.0,6.0,0.0
11013,41.0,49.0,40.0,15.0,0.0
11014,76.0,2.0,60.0,10.0,0.0
11015,62.0,9.0,60.0,11.0,0.0
11016,70.0,0.0,60.0,11.0,0.0
11017,41.0,2.0,40.0,15.0,0.0
11018,77.0,2.0,120.0,10.0,0.0
11019,62.0,9.0,60.0,11.0,0.0
11020,70.0,0.0,60.0,11.0,0.0
11021,70.0,49.0,15.0,6.0,0.0
11022,58.0,0.0,15.0,6.0,0.0
11023,41.0,49.0,40.0,15.0,0.0
11024,70.0,4.0,60.0,11.0,0.0
11025,62.0,0.0,60.0,11.0,0.0
11026,41.0,2.0,40.0,15.0,0.0
11027,75.0,6.0,30.0,10.0,0.0
11028,87.0,0.0,40.0,0.0,0.0
11029,75.0,6.0,40.0,0.0,0.0
11030,62.0,0.0,60.0,11.0,0.0
11031,70.0,5.0,60.0,11.0,0.0
11032,63.0,5.0,30.0,12.0,0.0
11033,51.0,3.0,30.0,13.0,0.0
11034,51.0,4.0,40.0,3.0,0.0
11035,41.0,29.0,40.0,15.0,0.0
11036,39.0,2.0,30.0,14.0,0.0
11037,74.0,6.0,30.0,10.0,0.0
11038,86.0,6.0,40.0,0.0,0.0
11039,74.0,0.0,40.0,0.0,0.0
11040,62.0,5.0,60.0,11.0,0.0
11041,70.0,0.0,60.0,11.0,0.0
11042,62.0,5.0,30.0,12.0,0.0
11043,50.0,3.0,30.0,13.0,0.0
11044,50.0,4.0,40.0,3.0,0.0
11045,41.0,2.0,40.0,15.0,0.0
11046,38.0,2.0,30.0,14.0,0.0
11047,72.0,6.0,30.0,10.0,0.0
11048,84.0,0.0,40.0,0.0,0.0
11049,72.0,6.0,40.0,0.0,0.0
11050,70.0,5.0,60.0,11.0,0.0
11051,62.0,0.0,60.0,11.0,0.0
11052,58.0,27.0,15.0,6.0,0.0
11053,70.0,0.0,15.0,6.0,0.0
11054,60.0,5.0,30.0,12.0,0.0
11055,48.0,3.0,30.0,13.0,0.0
11056,48.0,4.0,40.0,3.0,0.0
11057,41.0,29.0,40.0,15.0,0.0
11058,36.0,2.0,30.0,14.0,0.0
11059,70.0,6.0,30.0,10.0,0.0
11060,82.0,6.0,40.0,0.0,0.0
11061,70.0,0.0,40.0,0.0,0.0
11062,62.0,0.0,60.0,11.0,0.0
11063,70.0,5.0,60.0,11.0,0.0
11064,58.0,5.0,30.0,12.0,0.0
11065,46.0,3.0,30.0,13.0,0.0
11066,46.0,4.0,40.0,3.0,0.0
11067,41.0,2.0,40.0,15.0,0.0
11068,34.0,2.0,30.0,14.0,0.0
11069,69.0,6.0,30.0,10.0,0.0
11070,69.0,6.0,40.0,0.0,0.0
11071,81.0,0.0,40.0,0.0,0.0
11072,62.0,5.0,60.0,11.0,0.0
11073,70.0,0.0,60.0,11.0,0.0
11074,70.0,27.0,15.0,6.0,0.0
11075,58.0,2.0,120.0,6.0,0.0
11076,57.0,5.0,30.0,12.0,0.0
11077,45.0,3.0,30.0,13.0,0.0
11078,45.0,4.0,40.0,3.0,0.0
11079,41.0,29.0,40.0,15.0,0.0
11080,33.0,2.0,30.0,14.0,0.0
11081,67.0,6.0,30.0,10.0,0.0
11082,79.0,6.0,40.0,0.0,0.0
11083,67.0,0.0,40.0,0.0,0.0
11084,62.0,0.0,60.0,11.0,0.0
11085,70.0,5.0,60.0,11.0,0.0
11086,55.0,5.0,30.0,12.0,0.0
11087,43.0,3.0,30.0,13.0,0.0
11088,43.0,4.0,40.0,3.0,0.0
11089,41.0,1.0,40.0,15.0,0.0
11090,31.0,2.0,30.0,14.0,0.0
11091,65.0,1.0,60.0,10.0,0.0
11092,65.0,0.0,120.0,0.0,0.0
11093,77.0,2.0,120.0,0.0,0.0
11094,63.0,0.0,60.0,11.0,0.0
11095,69.0,4.0,60.0,11.0,0.0
11096,53.0,0.0,120.0,6.0,0.0
11097,65.0,1.0,120.0,6.0,0.0
11098,53.0,6.0,960.0,5.0,0.0
11099,53.0,4.0,60.0,12.0,0.0
11100,41.0,3.0,60.0,13.0,0.0
11101,41.0,40.0,960.0,3.0,0.0
11102,41.0,39.0,120.0,15.0,0.0
11103,29.0,48.0,60.0,14.0,0.0
11104,64.0,1.0,60.0,10.0,0.0
11105,69.0,0.0,60.0,11.0,0.0
11106,63.0,4.0,60.0,11.0,0.0
11107,53.0,4.0,60.0,12.0,0.0
11108,41.0,0.0,60.0,13.0,0.0
11109,29.0,9.0,60.0,14.0,0.0
11110,65.0,1.0,60.0,10.0,0.0
11111,69.0,4.0,60.0,11.0,0.0
11112,63.0,0.0,60.0,11.0,0.0
11113,53.0,4.0,60.0,12.0,0.0
11114,41.0,3.0,60.0,13.0,0.0
11115,29.0,48.0,60.0,14.0,0.0
11116,64.0,1.0,60.0,10.0,0.0
11117,69.0,0.0,60.0,11.0,0.0
11118,63.0,4.0,60.0,11.0,0.0
11119,53.0,4.0,60.0,12.0,0.0
11120,41.0,3.0,60.0,13.0,0.0
11121,29.0,48.0,60.0,14.0,0.0
11122,65.0,1.0,60.0,10.0,0.0
11123,63.0,4.0,60.0,11.0,0.0
11124,69.0,0.0,60.0,11.0,0.0
11125,53.0,4.0,60.0,12.0,0.0
11126,41.0,3.0,60.0,13.0,0.0
11127,29.0,48.0,60.0,14.0,0.0
11128,64.0,1.0,60.0,10.0,0.0
11129,63.0,0.0,60.0,11.0,0.0
11130,69.0,4.0,60.0,11.0,0.0
11131,53.0,4.0,60.0,12.0,0.0
11132,41.0,3.0,60.0,13.0,0.0
11133,29.0,48.0,60.0,14.0,0.0
11134,65.0,1.0,60.0,10.0,0.0
11135,63.0,4.0,60.0,11.0,0.0
11136,69.0,0.0,60.0,11.0,0.0
11137,53.0,4.0,60.0,12.0,0.0
11138,41.0,3.0,60.0,13.0,0.0
11139,29.0,46.0,60.0,14.0,0.0
11140,64.0,2.0,60.0,10.0,0.0
11141,63.0,4.0,60.0,11.0,0.0
11142,69.0,0.0,60.0,11.0,0.0
11143,53.0,5.0,60.0,12.0,0.0
11144,41.0,3.0,60.0,13.0,0.0
11145,29.0,48.0,60.0,14.0,0.0
11146,65.0,2.0,120.0,10.0,0.0
11147,69.0,4.0,60.0,11.0,0.0
11148,63.0,0.0,60.0,11.0,0.0
11149,53.0,5.0,60.0,12.0,0.0
11150,41.0,3.0,60.0,13.0,0.0
11151,29.0,46.0,60.0,14.0,0.0
11152,63.0,4.0,60.0,11.0,0.0
11153,69.0,0.0,60.0,11.0,0.0
11154,53.0,5.0,60.0,12.0,0.0
11155,41.0,3.0,60.0,13.0,0.0
11156,29.0,26.0,60.0,14.0,0.0
11157,67.0,22.0,30.0,10.0,0.0
11158,69.0,0.0,60.0,11.0,0.0
11159,63.0,4.0,60.0,11.0,0.0
11160,53.0,5.0,60.0,12.0,0.0
11161,41.0,3.0,60.0,13.0,0.0
11162,29.0,26.0,60.0,14.0,0.0
11163,69.0,22.0,30.0,10.0,0.0
11164,63.0,0.0,60.0,11.0,0.0
11165,69.0,4.0,60.0,11.0,0.0
11166,53.0,5.0,60.0,12.0,0.0
11167,41.0,3.0,60.0,13.0,0.0
11168,29.0,26.0,60.0,14.0,0.0
11169,70.0,22.0,30.0,10.0,0.0
11170,69.0,4.0,60.0,11.0,0.0
11171,63.0,0.0,60.0,11.0,0.0
11172,53.0,5.0,60.0,12.0,0.0
11173,41.0,3.0,60.0,13.0,0.0
11174,29.0,26.0,60.0,14.0,0.0
11175,72.0,22.0,30.0,10.0,0.0
11176,69.0,0.0,60.0,11.0,0.0
11177,63.0,4.0,60.0,11.0,0.0
11178,53.0,5.0,60.0,12.0,0.0
11179,41.0,3.0,60.0,13.0,0.0
11180,29.0,26.0,60.0,14.0,0.0
11181,74.0,22.0,30.0,10.0,0.0
11182,63.0,4.0,60.0,11.0,0.0
11183,69.0,0.0,60.0,11.0,0.0
11184,53.0,5.0,60.0,12.0,0.0
11185,41.0,3.0,60.0,13.0,0.0
11186,29.0,26.0,60.0,14.0,0.0
11187,75.0,22.0,30.0,10.0,0.0
11188,69.0,4.0,60.0,11.0,0.0
11189,63.0,0.0,60.0,11.0,0.0
11190,53.0,5.0,60.0,12.0,0.0
11191,41.0,1.0,60.0,13.0,0.0
11192,29.0,1.0,60.0,14.0,0.0
11193,77.0,1.0,60.0,10.0,0.0
11194,77.0,0.0,540.0,0.0,0.0
11195,89.0,0.0,540.0,0.0,0.0
11196,69.0,0.0,60.0,11.0,0.0
11197,60.0,2.0,15.0,4.0,0.0
11198,69.0,0.0,15.0,1.0,0.0
11199,75.0,0.0,15.0,1.0,0.0
11200,63.0,8.0,60.0,11.0,0.0
11201,53.0,49.0,120.0,6.0,0.0
11202,65.0,0.0,120.0,6.0,0.0
11203,63.0,0.0,15.0,2.0,0.0
11204,69.0,1.0,15.0,2.0,0.0
11205,65.0,5.0,540.0,12.0,0.0
11206,53.0,114.0,960.0,5.0,0.0
11207,53.0,3.0,540.0,13.0,0.0
11208,53.0,0.0,15.0,3.0,0.0
11209,41.0,51.0,40.0,15.0,0.0
11210,41.0,8.0,540.0,14.0,0.0
11211,76.0,1.0,60.0,10.0,0.0
11212,69.0,0.0,60.0,11.0,0.0
11213,63.0,8.0,60.0,11.0,0.0
11214,41.0,2.0,40.0,15.0,0.0
11215,77.0,1.0,60.0,10.0,0.0
11216,63.0,8.0,60.0,11.0,0.0
11217,69.0,0.0,60.0,11.0,0.0
11218,53.0,49.0,120.0,6.0,0.0
11219,65.0,0.0,120.0,6.0,0.0
11220,41.0,51.0,40.0,15.0,0.0
11221,76.0,1.0,60.0,10.0,0.0
11222,69.0,8.0,60.0,11.0,0.0
11223,63.0,0.0,60.0,11.0,0.0
11224,41.0,2.0,40.0,15.0,0.0
11225,77.0,1.0,60.0,10.0,0.0
11226,63.0,8.0,60.0,11.0,0.0
11227,69.0,0.0,60.0,11.0,0.0
11228,41.0,51.0,40.0,15.0,0.0
11229,76.0,1.0,60.0,10.0,0.0
11230,63.0,8.0,60.0,11.0,0.0
11231,69.0,0.0,60.0,11.0,0.0
11232,41.0,2.0,40.0,15.0,0.0
11233,77.0,1.0,60.0,10.0,0.0
11234,69.0,0.0,60.0,11.0,0.0
11235,63.0,8.0,60.0,11.0,0.0
11236,65.0,0.0,15.0,6.0,0.0
11237,53.0,49.0,15.0,6.0,0.0
11238,41.0,49.0,40.0,15.0,0.0
11239,76.0,2.0,60.0,10.0,0.0
11240,69.0,9.0,60.0,11.0,0.0
11241,63.0,0.0,60.0,11.0,0.0
11242,41.0,2.0,40.0,15.0,0.0
11243,77.0,2.0,30.0,10.0,0.0
11244,77.0,24.0,30.0,11.0,0.0
11245,53.0,27.0,15.0,6.0,0.0
11246,65.0,0.0,15.0,6.0,0.0
11247,41.0,0.0,40.0,15.0,0.0
11248,75.0,2.0,30.0,10.0,0.0
11249,75.0,0.0,40.0,0.0,0.0
11250,87.0,11.0,40.0,0.0,0.0
11251,75.0,4.0,30.0,11.0,0.0
11252,63.0,5.0,30.0,12.0,0.0
11253,51.0,3.0,30.0,13.0,0.0
11254,51.0,4.0,40.0,3.0,0.0
11255,41.0,2.0,40.0,15.0,0.0
11256,39.0,2.0,30.0,14.0,0.0
11257,74.0,2.0,30.0,10.0,0.0
11258,74.0,0.0,40.0,0.0,0.0
11259,86.0,11.0,40.0,0.0,0.0
11260,74.0,4.0,30.0,11.0,0.0
11261,53.0,27.0,120.0,6.0,0.0
11262,62.0,5.0,30.0,12.0,0.0
11263,50.0,3.0,30.0,13.0,0.0
11264,50.0,4.0,40.0,3.0,0.0
11265,41.0,29.0,40.0,15.0,0.0
11266,38.0,2.0,30.0,14.0,0.0
11267,72.0,2.0,30.0,10.0,0.0
11268,72.0,0.0,40.0,0.0,0.0
11269,84.0,11.0,40.0,0.0,0.0
11270,72.0,4.0,30.0,11.0,0.0
11271,60.0,5.0,30.0,12.0,0.0
11272,48.0,3.0,30.0,13.0,0.0
11273,48.0,4.0,40.0,3.0,0.0
11274,41.0,2.0,40.0,15.0,0.0
11275,36.0,2.0,30.0,14.0,0.0
11276,70.0,2.0,30.0,10.0,0.0
11277,82.0,11.0,40.0,0.0,0.0
11278,70.0,0.0,40.0,0.0,0.0
11279,70.0,4.0,30.0,11.0,0.0
11280,65.0,0.0,15.0,6.0,0.0
11281,53.0,0.0,120.0,6.0,0.0
11282,58.0,5.0,30.0,12.0,0.0
11283,46.0,3.0,30.0,13.0,0.0
11284,46.0,4.0,40.0,3.0,0.0
11285,41.0,29.0,40.0,15.0,0.0
11286,34.0,2.0,30.0,14.0,0.0
11287,69.0,2.0,30.0,10.0,0.0
11288,81.0,11.0,40.0,0.0,0.0
11289,69.0,0.0,40.0,0.0,0.0
11290,69.0,4.0,30.0,11.0,0.0
11291,57.0,5.0,30.0,12.0,0.0
11292,45.0,3.0,30.0,13.0,0.0
11293,45.0,4.0,40.0,3.0,0.0
11294,41.0,2.0,40.0,15.0,0.0
11295,33.0,2.0,30.0,14.0,0.0
11296,67.0,2.0,30.0,10.0,0.0
11297,79.0,0.0,40.0,0.0,0.0
11298,67.0,11.0,40.0,0.0,0.0
11299,67.0,4.0,30.0,11.0,0.0
11300,53.0,2.0,120.0,6.0,0.0
11301,65.0,27.0,15.0,6.0,0.0
11302,55.0,5.0,30.0,12.0,0.0
11303,43.0,3.0,30.0,13.0,0.0
11304,43.0,4.0,40.0,3.0,0.0
11305,41.0,29.0,40.0,15.0,0.0
11306,31.0,2.0,30.0,14.0,0.0
11307,65.0,2.0,30.0,10.0,0.0
11308,77.0,11.0,40.0,0.0,0.0
11309,65.0,0.0,40.0,0.0,0.0
11310,65.0,4.0,30.0,11.0,0.0
11311,53.0,5.0,30.0,12.0,0.0
11312,41.0,3.0,30.0,13.0,0.0
11313,41.0,4.0,40.0,3.0,0.0
11314,41.0,1.0,40.0,15.0,0.0
11315,29.0,2.0,30.0,14.0,0.0
11316,70.0,1.0,120.0,10.0,0.0
11317,82.0,1.0,120.0,0.0,0.0
11318,70.0,0.0,120.0,0.0,0.0
11319,70.0,0.0,120.0,1.0,0.0
11320,70.0,0.0,120.0,11.0,0.0
11321,74.0,0.0,120.0,1.0,0.0
11322,58.0,1.0,120.0,4.0,0.0
11323,58.0,0.0,120.0,6.0,0.0
11324,70.0,2.0,120.0,6.0,0.0
11325,62.0,1.0,120.0,2.0,0.0
11326,70.0,0.0,120.0,2.0,0.0
11327,46.0,5.0,120.0,5.0,0.0
11328,58.0,0.0,120.0,12.0,0.0
11329,46.0,1.0,120.0,13.0,0.0
11330,46.0,1.0,120.0,3.0,0.0
11331,46.0,1.0,120.0,15.0,0.0
11332,34.0,106.0,120.0,14.0,0.0
11333,81.0,120.0,60.0,10.0,0.0
11334,82.0,2.0,120.0,10.0,0.0
11335,58.0,1.0,120.0,4.0,0.0
11336,70.0,0.0,120.0,6.0,0.0
11337,58.0,3.0,120.0,6.0,0.0
11338,46.0,7.0,120.0,5.0,0.0
11339,46.0,108.0,120.0,15.0,0.0
11340,74.0,1.0,60.0,0.0,0.0
11341,74.0,0.0,60.0,1.0,0.0
11342,62.0,3.0,60.0,1.0,0.0
11343,62.0,0.0,60.0,11.0,0.0
11344,62.0,1.0,60.0,2.0,0.0
11345,62.0,5.0,60.0,12.0,0.0
11346,50.0,1.0,60.0,13.0,0.0
11347,50.0,2.0,60.0,3.0,0.0
11348,38.0,107.0,60.0,14.0,0.0
11349,75.0,1.0,120.0,0.0,0.0
11350,75.0,0.0,120.0,1.0,0.0
11351,63.0,3.0,120.0,11.0,0.0
11352,63.0,0.0,120.0,1.0,0.0
11353,63.0,1.0,120.0,2.0,0.0
11354,63.0,5.0,120.0,12.0,0.0
11355,51.0,1.0,120.0,13.0,0.0
11356,51.0,2.0,120.0,3.0,0.0
11357,39.0,106.0,120.0,14.0,0.0
11358,81.0,120.0,60.0,10.0,0.0
11359,82.0,2.0,120.0,10.0,0.0
11360,58.0,1.0,120.0,4.0,0.0
11361,70.0,0.0,120.0,6.0,0.0
11362,58.0,3.0,120.0,6.0,0.0
11363,46.0,7.0,120.0,5.0,0.0
11364,46.0,108.0,120.0,15.0,0.0
11365,76.0,1.0,60.0,0.0,0.0
11366,64.0,3.0,60.0,11.0,0.0
11367,64.0,0.0,60.0,1.0,0.0
11368,76.0,0.0,60.0,1.0,0.0
11369,64.0,1.0,60.0,2.0,0.0
11370,64.0,5.0,60.0,12.0,0.0
11371,52.0,1.0,60.0,13.0,0.0
11372,52.0,2.0,60.0,3.0,0.0
11373,40.0,107.0,60.0,14.0,0.0
11374,77.0,1.0,120.0,0.0,0.0
11375,65.0,0.0,120.0,1.0,0.0
11376,65.0,3.0,120.0,11.0,0.0
11377,77.0,0.0,120.0,1.0,0.0
11378,65.0,1.0,120.0,2.0,0.0
11379,65.0,5.0,120.0,12.0,0.0
11380,53.0,1.0,120.0,13.0,0.0
11381,53.0,2.0,120.0,3.0,0.0
11382,41.0,106.0,120.0,14.0,0.0
11383,81.0,120.0,60.0,10.0,0.0
11384,82.0,2.0,120.0,10.0,0.0
11385,58.0,1.0,120.0,4.0,0.0
11386,58.0,0.0,120.0,6.0,0.0
11387,70.0,3.0,120.0,6.0,0.0
11388,46.0,7.0,120.0,5.0,0.0
11389,46.0,108.0,120.0,15.0,0.0
11390,78.0,1.0,60.0,0.0,0.0
11391,66.0,0.0,60.0,11.0,0.0
11392,78.0,0.0,60.0,1.0,0.0
11393,66.0,3.0,60.0,1.0,0.0
11394,66.0,1.0,60.0,2.0,0.0
11395,66.0,5.0,60.0,12.0,0.0
11396,54.0,1.0,60.0,13.0,0.0
11397,54.0,2.0,60.0,3.0,0.0
11398,42.0,107.0,60.0,14.0,0.0
11399,79.0,1.0,120.0,0.0,0.0
11400,79.0,3.0,120.0,1.0,0.0
11401,67.0,0.0,120.0,11.0,0.0
11402,67.0,0.0,120.0,1.0,0.0
11403,67.0,1.0,120.0,2.0,0.0
11404,67.0,5.0,120.0,12.0,0.0
11405,55.0,1.0,120.0,13.0,0.0
11406,55.0,2.0,120.0,3.0,0.0
11407,43.0,106.0,120.0,14.0,0.0
11408,81.0,120.0,60.0,10.0,0.0
11409,82.0,2.0,120.0,10.0,0.0
11410,58.0,1.0,120.0,4.0,0.0
11411,58.0,0.0,120.0,6.0,0.0
11412,70.0,3.0,120.0,6.0,0.0
11413,46.0,7.0,120.0,5.0,0.0
11414,46.0,108.0,120.0,15.0,0.0
11415,79.0,1.0,60.0,0.0,0.0
11416,67.0,0.0,60.0,11.0,0.0
11417,79.0,0.0,60.0,1.0,0.0
11418,67.0,3.0,60.0,1.0,0.0
11419,67.0,1.0,60.0,2.0,0.0
11420,67.0,5.0,60.0,12.0,0.0
11421,55.0,1.0,60.0,13.0,0.0
11422,55.0,2.0,60.0,3.0,0.0
11423,43.0,36.0,60.0,14.0,0.0
11424,70.0,1.0,60.0,10.0,0.0
11425,82.0,0.0,60.0,10.0,0.0
11426,80.0,1.0,60.0,0.0,0.0
11427,58.0,0.0,120.0,4.0,0.0
11428,68.0,3.0,60.0,1.0,0.0
11429,68.0,0.0,60.0,11.0,0.0
11430,80.0,0.0,60.0,1.0,0.0
11431,58.0,0.0,120.0,6.0,0.0
11432,68.0,1.0,60.0,2.0,0.0
11433,68.0,5.0,60.0,12.0,0.0
11434,46.0,44.0,120.0,5.0,0.0
11435,56.0,1.0,60.0,13.0,0.0
11436,56.0,2.0,60.0,3.0,0.0
11437,46.0,0.0,40.0,15.0,0.0
11438,44.0,46.0,60.0,14.0,0.0
11439,70.0,0.0,60.0,10.0,0.0
11440,82.0,1.0,60.0,10.0,0.0
11441,79.0,1.0,60.0,0.0,0.0
11442,79.0,0.0,60.0,1.0,0.0
11443,67.0,3.0,60.0,11.0,0.0
11444,67.0,0.0,60.0,1.0,0.0
11445,67.0,1.0,60.0,2.0,0.0
11446,67.0,5.0,60.0,12.0,0.0
11447,55.0,0.0,60.0,13.0,0.0
11448,55.0,1.0,60.0,3.0,0.0
11449,46.0,1.0,40.0,15.0,0.0
11450,43.0,2.0,60.0,14.0,0.0
11451,82.0,0.0,60.0,10.0,0.0
11452,70.0,1.0,60.0,10.0,0.0
11453,77.0,1.0,60.0,0.0,0.0
11454,65.0,0.0,60.0,1.0,0.0
11455,77.0,3.0,60.0,1.0,0.0
11456,65.0,0.0,60.0,11.0,0.0
11457,70.0,1.0,15.0,6.0,0.0
11458,65.0,1.0,60.0,2.0,0.0
11459,65.0,5.0,60.0,12.0,0.0
11460,46.0,44.0,120.0,5.0,0.0
11461,53.0,0.0,60.0,13.0,0.0
11462,53.0,2.0,60.0,3.0,0.0
11463,46.0,1.0,40.0,15.0,0.0
11464,41.0,46.0,60.0,14.0,0.0
11465,70.0,1.0,60.0,10.0,0.0
11466,82.0,0.0,60.0,10.0,0.0
11467,79.0,1.0,60.0,0.0,0.0
11468,67.0,3.0,60.0,1.0,0.0
11469,67.0,0.0,60.0,11.0,0.0
11470,79.0,0.0,60.0,1.0,0.0
11471,67.0,1.0,60.0,2.0,0.0
11472,67.0,5.0,60.0,12.0,0.0
11473,55.0,1.0,60.0,13.0,0.0
11474,55.0,0.0,60.0,3.0,0.0
11475,46.0,0.0,40.0,15.0,0.0
11476,43.0,2.0,60.0,14.0,0.0
11477,70.0,0.0,60.0,10.0,0.0
11478,82.0,1.0,60.0,10.0,0.0
11479,80.0,1.0,60.0,0.0,0.0
11480,58.0,1.0,15.0,4.0,0.0
11481,80.0,3.0,60.0,1.0,0.0
11482,68.0,0.0,60.0,1.0,0.0
11483,68.0,0.0,60.0,11.0,0.0
11484,58.0,0.0,15.0,6.0,0.0
11485,68.0,1.0,60.0,2.0,0.0
11486,46.0,44.0,120.0,5.0,0.0
11487,68.0,5.0,60.0,12.0,0.0
11488,56.0,0.0,60.0,13.0,0.0
11489,56.0,2.0,60.0,3.0,0.0
11490,46.0,1.0,40.0,15.0,0.0
11491,44.0,46.0,60.0,14.0,0.0
11492,70.0,1.0,60.0,10.0,0.0
11493,82.0,0.0,60.0,10.0,0.0
11494,79.0,1.0,60.0,0.0,0.0
11495,79.0,3.0,60.0,1.0,0.0
11496,67.0,0.0,60.0,11.0,0.0
11497,67.0,0.0,60.0,1.0,0.0
11498,67.0,1.0,60.0,2.0,0.0
11499,67.0,5.0,60.0,12.0,0.0
11500,55.0,0.0,60.0,13.0,0.0
11501,55.0,1.0,60.0,3.0,0.0
11502,46.0,1.0,40.0,15.0,0.0
11503,43.0,2.0,60.0,14.0,0.0
11504,70.0,0.0,60.0,10.0,0.0
11505,82.0,1.0,60.0,10.0,0.0
11506,80.0,1.0,60.0,0.0,0.0
11507,80.0,3.0,60.0,1.0,0.0
11508,68.0,0.0,60.0,1.0,0.0
11509,58.0,0.0,15.0,4.0,0.0
11510,68.0,0.0,60.0,11.0,0.0
11511,70.0,1.0,15.0,6.0,0.0
11512,68.0,1.0,60.0,2.0,0.0
11513,68.0,5.0,60.0,12.0,0.0
11514,46.0,44.0,120.0,5.0,0.0
11515,56.0,0.0,60.0,13.0,0.0
11516,56.0,2.0,60.0,3.0,0.0
11517,46.0,1.0,40.0,15.0,0.0
11518,44.0,46.0,60.0,14.0,0.0
11519,70.0,1.0,60.0,10.0,0.0
11520,82.0,0.0,60.0,10.0,0.0
11521,79.0,1.0,60.0,0.0,0.0
11522,67.0,0.0,60.0,1.0,0.0
11523,79.0,0.0,60.0,1.0,0.0
11524,67.0,3.0,60.0,11.0,0.0
11525,67.0,1.0,60.0,2.0,0.0
11526,67.0,5.0,60.0,12.0,0.0
11527,55.0,1.0,60.0,13.0,0.0
11528,55.0,1.0,60.0,3.0,0.0
11529,46.0,0.0,40.0,15.0,0.0
11530,43.0,2.0,60.0,14.0,0.0
11531,82.0,1.0,60.0,10.0,0.0
11532,70.0,0.0,60.0,10.0,0.0
11533,80.0,1.0,60.0,0.0,0.0
11534,68.0,0.0,60.0,1.0,0.0
11535,80.0,0.0,60.0,1.0,0.0
11536,58.0,0.0,15.0,4.0,0.0
11537,68.0,3.0,60.0,11.0,0.0
11538,58.0,0.0,15.0,6.0,0.0
11539,70.0,1.0,15.0,6.0,0.0
11540,68.0,1.0,60.0,2.0,0.0
11541,68.0,5.0,60.0,12.0,0.0
11542,56.0,1.0,60.0,13.0,0.0
11543,56.0,2.0,60.0,3.0,0.0
11544,46.0,0.0,40.0,15.0,0.0
11545,44.0,46.0,60.0,14.0,0.0
11546,70.0,1.0,60.0,10.0,0.0
11547,82.0,0.0,60.0,10.0,0.0
11548,79.0,1.0,60.0,0.0,0.0
11549,67.0,0.0,60.0,11.0,0.0
11550,79.0,3.0,60.0,1.0,0.0
11551,67.0,0.0,60.0,1.0,0.0
11552,67.0,1.0,60.0,2.0,0.0
11553,67.0,5.0,60.0,12.0,0.0
11554,55.0,0.0,60.0,13.0,0.0
11555,55.0,0.0,60.0,3.0,0.0
11556,46.0,1.0,40.0,15.0,0.0
11557,43.0,2.0,60.0,14.0,0.0
11558,82.0,1.0,60.0,10.0,0.0
11559,70.0,0.0,60.0,10.0,0.0
11560,77.0,1.0,60.0,0.0,0.0
11561,58.0,1.0,15.0,4.0,0.0
11562,65.0,0.0,60.0,11.0,0.0
11563,65.0,0.0,60.0,1.0,0.0
11564,77.0,3.0,60.0,1.0,0.0
11565,58.0,1.0,15.0,6.0,0.0
11566,70.0,0.0,15.0,6.0,0.0
11567,65.0,1.0,60.0,2.0,0.0
11568,46.0,44.0,15.0,5.0,0.0
11569,65.0,5.0,60.0,12.0,0.0
11570,53.0,1.0,60.0,13.0,0.0
11571,53.0,2.0,60.0,3.0,0.0
11572,46.0,0.0,40.0,15.0,0.0
11573,41.0,46.0,60.0,14.0,0.0
11574,70.0,0.0,60.0,10.0,0.0
11575,82.0,1.0,60.0,10.0,0.0
11576,79.0,1.0,60.0,0.0,0.0
11577,67.0,3.0,60.0,11.0,0.0
11578,67.0,0.0,60.0,1.0,0.0
11579,79.0,0.0,60.0,1.0,0.0
11580,67.0,1.0,60.0,2.0,0.0
11581,67.0,5.0,60.0,12.0,0.0
11582,55.0,1.0,60.0,13.0,0.0
11583,55.0,0.0,60.0,3.0,0.0
11584,46.0,0.0,40.0,15.0,0.0
11585,43.0,2.0,60.0,14.0,0.0
11586,82.0,0.0,60.0,10.0,0.0
11587,70.0,1.0,60.0,10.0,0.0
11588,80.0,1.0,60.0,0.0,0.0
11589,80.0,3.0,60.0,1.0,0.0
11590,68.0,0.0,60.0,1.0,0.0
11591,58.0,1.0,15.0,4.0,0.0
11592,68.0,0.0,60.0,11.0,0.0
11593,58.0,1.0,15.0,6.0,0.0
11594,70.0,0.0,15.0,6.0,0.0
11595,68.0,1.0,60.0,2.0,0.0
11596,68.0,5.0,60.0,12.0,0.0
11597,46.0,44.0,120.0,5.0,0.0
11598,56.0,1.0,60.0,13.0,0.0
11599,56.0,2.0,60.0,3.0,0.0
11600,46.0,0.0,40.0,15.0,0.0
11601,44.0,46.0,60.0,14.0,0.0
11602,70.0,1.0,60.0,10.0,0.0
11603,82.0,0.0,60.0,10.0,0.0
11604,79.0,1.0,60.0,0.0,0.0
11605,67.0,0.0,60.0,1.0,0.0
11606,79.0,0.0,60.0,1.0,0.0
11607,67.0,3.0,60.0,11.0,0.0
11608,67.0,1.0,60.0,2.0,0.0
11609,67.0,5.0,60.0,12.0,0.0
11610,55.0,1.0,60.0,13.0,0.0
11611,55.0,1.0,60.0,3.0,0.0
11612,46.0,0.0,40.0,15.0,0.0
11613,43.0,2.0,60.0,14.0,0.0
11614,82.0,0.0,60.0,10.0,0.0
11615,70.0,1.0,60.0,10.0,0.0
11616,80.0,1.0,60.0,0.0,0.0
11617,68.0,0.0,60.0,11.0,0.0
11618,80.0,3.0,60.0,1.0,0.0
11619,68.0,0.0,60.0,1.0,0.0
11620,70.0,0.0,15.0,6.0,0.0
11621,58.0,1.0,15.0,6.0,0.0
11622,68.0,1.0,60.0,2.0,0.0
11623,68.0,5.0,60.0,12.0,0.0
11624,56.0,0.0,60.0,13.0,0.0
11625,56.0,2.0,60.0,3.0,0.0
11626,46.0,1.0,40.0,15.0,0.0
11627,44.0,46.0,60.0,14.0,0.0
11628,70.0,0.0,60.0,10.0,0.0
11629,82.0,1.0,60.0,10.0,0.0
11630,79.0,1.0,60.0,0.0,0.0
11631,67.0,0.0,60.0,11.0,0.0
11632,67.0,0.0,60.0,1.0,0.0
11633,79.0,3.0,60.0,1.0,0.0
11634,67.0,1.0,60.0,2.0,0.0
11635,67.0,5.0,60.0,12.0,0.0
11636,55.0,0.0,60.0,13.0,0.0
11637,55.0,0.0,60.0,3.0,0.0
11638,46.0,1.0,40.0,15.0,0.0
11639,43.0,2.0,60.0,14.0,0.0
11640,82.0,0.0,60.0,10.0,0.0
11641,70.0,1.0,60.0,10.0,0.0
11642,80.0,1.0,60.0,0.0,0.0
11643,68.0,0.0,60.0,11.0,0.0
11644,68.0,3.0,60.0,1.0,0.0
11645,80.0,0.0,60.0,1.0,0.0
11646,58.0,1.0,15.0,4.0,0.0
11647,58.0,1.0,15.0,6.0,0.0
11648,70.0,0.0,15.0,6.0,0.0
11649,68.0,1.0,60.0,2.0,0.0
11650,46.0,44.0,15.0,5.0,0.0
11651,68.0,5.0,60.0,12.0,0.0
11652,56.0,0.0,60.0,13.0,0.0
11653,56.0,2.0,60.0,3.0,0.0
11654,46.0,1.0,40.0,15.0,0.0
11655,44.0,46.0,60.0,14.0,0.0
11656,82.0,1.0,60.0,10.0,0.0
11657,70.0,0.0,60.0,10.0,0.0
11658,79.0,1.0,60.0,0.0,0.0
11659,67.0,3.0,60.0,11.0,0.0
11660,79.0,0.0,60.0,1.0,0.0
11661,67.0,0.0,60.0,1.0,0.0
11662,67.0,1.0,60.0,2.0,0.0
11663,67.0,5.0,60.0,12.0,0.0
11664,55.0,0.0,60.0,13.0,0.0
11665,55.0,0.0,60.0,3.0,0.0
11666,46.0,1.0,40.0,15.0,0.0
11667,43.0,2.0,60.0,14.0,0.0
11668,70.0,1.0,60.0,10.0,0.0
11669,82.0,0.0,60.0,10.0,0.0
11670,80.0,1.0,60.0,0.0,0.0
11671,68.0,3.0,60.0,11.0,0.0
11672,58.0,1.0,15.0,4.0,0.0
11673,68.0,0.0,60.0,1.0,0.0
11674,80.0,0.0,60.0,1.0,0.0
11675,58.0,1.0,120.0,6.0,0.0
11676,70.0,0.0,120.0,6.0,0.0
11677,68.0,1.0,60.0,2.0,0.0
11678,68.0,5.0,60.0,12.0,0.0
11679,46.0,44.0,15.0,5.0,0.0
11680,56.0,1.0,60.0,13.0,0.0
11681,56.0,2.0,60.0,3.0,0.0
11682,46.0,0.0,40.0,15.0,0.0
11683,44.0,46.0,60.0,14.0,0.0
11684,70.0,0.0,60.0,10.0,0.0
11685,82.0,1.0,60.0,10.0,0.0
11686,79.0,1.0,60.0,0.0,0.0
11687,67.0,0.0,60.0,1.0,0.0
11688,67.0,3.0,60.0,11.0,0.0
11689,79.0,0.0,60.0,1.0,0.0
11690,67.0,1.0,60.0,2.0,0.0
11691,67.0,5.0,60.0,12.0,0.0
11692,55.0,0.0,60.0,13.0,0.0
11693,55.0,0.0,60.0,3.0,0.0
11694,46.0,1.0,40.0,15.0,0.0
11695,43.0,2.0,60.0,14.0,0.0
11696,70.0,0.0,60.0,10.0,0.0
11697,82.0,1.0,60.0,10.0,0.0
11698,80.0,1.0,60.0,0.0,0.0
11699,80.0,0.0,60.0,1.0,0.0
11700,68.0,0.0,60.0,1.0,0.0
11701,58.0,1.0,15.0,4.0,0.0
11702,68.0,3.0,60.0,11.0,0.0
11703,58.0,1.0,120.0,6.0,0.0
11704,70.0,0.0,120.0,6.0,0.0
11705,68.0,1.0,60.0,2.0,0.0
11706,46.0,44.0,15.0,5.0,0.0
11707,68.0,5.0,60.0,12.0,0.0
11708,56.0,0.0,60.0,13.0,0.0
11709,56.0,2.0,60.0,3.0,0.0
11710,46.0,1.0,40.0,15.0,0.0
11711,44.0,46.0,60.0,14.0,0.0
11712,70.0,1.0,60.0,10.0,0.0
11713,82.0,0.0,60.0,10.0,0.0
11714,79.0,1.0,60.0,0.0,0.0
11715,79.0,3.0,60.0,1.0,0.0
11716,67.0,0.0,60.0,1.0,0.0
11717,67.0,0.0,60.0,11.0,0.0
11718,67.0,1.0,60.0,2.0,0.0
11719,67.0,5.0,60.0,12.0,0.0
11720,55.0,1.0,60.0,13.0,0.0
11721,55.0,0.0,60.0,3.0,0.0
11722,46.0,0.0,40.0,15.0,0.0
11723,43.0,2.0,60.0,14.0,0.0
11724,82.0,0.0,60.0,10.0,0.0
11725,70.0,1.0,60.0,10.0,0.0
11726,80.0,1.0,60.0,0.0,0.0
11727,80.0,3.0,60.0,1.0,0.0
11728,68.0,0.0,60.0,1.0,0.0
11729,68.0,0.0,60.0,11.0,0.0
11730,58.0,1.0,120.0,6.0,0.0
11731,70.0,0.0,120.0,6.0,0.0
11732,68.0,1.0,60.0,2.0,0.0
11733,46.0,44.0,15.0,5.0,0.0
11734,68.0,5.0,60.0,12.0,0.0
11735,56.0,1.0,60.0,13.0,0.0
11736,56.0,2.0,60.0,3.0,0.0
11737,46.0,0.0,40.0,15.0,0.0
11738,44.0,46.0,60.0,14.0,0.0
11739,70.0,1.0,60.0,10.0,0.0
11740,82.0,0.0,60.0,10.0,0.0
11741,79.0,1.0,60.0,0.0,0.0
11742,67.0,3.0,60.0,1.0,0.0
11743,67.0,0.0,60.0,11.0,0.0
11744,79.0,0.0,60.0,1.0,0.0
11745,67.0,1.0,60.0,2.0,0.0
11746,67.0,5.0,60.0,12.0,0.0
11747,55.0,0.0,60.0,13.0,0.0
11748,55.0,0.0,60.0,3.0,0.0
11749,46.0,1.0,40.0,15.0,0.0
11750,43.0,2.0,60.0,14.0,0.0
11751,82.0,1.0,60.0,10.0,0.0
11752,70.0,0.0,60.0,10.0,0.0
11753,80.0,1.0,60.0,0.0,0.0
11754,68.0,0.0,60.0,11.0,0.0
11755,58.0,1.0,15.0,4.0,0.0
11756,80.0,3.0,60.0,1.0,0.0
11757,68.0,0.0,60.0,1.0,0.0
11758,58.0,1.0,120.0,6.0,0.0
11759,70.0,0.0,120.0,6.0,0.0
11760,68.0,1.0,60.0,2.0,0.0
11761,68.0,5.0,60.0,12.0,0.0
11762,46.0,44.0,120.0,5.0,0.0
11763,56.0,1.0,60.0,13.0,0.0
11764,56.0,2.0,60.0,3.0,0.0
11765,46.0,0.0,40.0,15.0,0.0
11766,44.0,46.0,60.0,14.0,0.0
11767,70.0,1.0,60.0,10.0,0.0
11768,82.0,0.0,60.0,10.0,0.0
11769,79.0,1.0,60.0,0.0,0.0
11770,67.0,3.0,60.0,1.0,0.0
11771,79.0,0.0,60.0,1.0,0.0
11772,67.0,0.0,60.0,11.0,0.0
11773,67.0,1.0,60.0,2.0,0.0
11774,67.0,5.0,60.0,12.0,0.0
11775,55.0,1.0,60.0,13.0,0.0
11776,55.0,1.0,60.0,3.0,0.0
11777,46.0,0.0,40.0,15.0,0.0
11778,43.0,2.0,60.0,14.0,0.0
11779,82.0,1.0,60.0,10.0,0.0
11780,70.0,0.0,60.0,10.0,0.0
11781,77.0,1.0,60.0,0.0,0.0
11782,65.0,0.0,60.0,1.0,0.0
11783,65.0,3.0,60.0,11.0,0.0
11784,77.0,0.0,60.0,1.0,0.0
11785,58.0,1.0,120.0,4.0,0.0
11786,58.0,1.0,120.0,6.0,0.0
11787,70.0,0.0,120.0,6.0,0.0
11788,65.0,1.0,60.0,2.0,0.0
11789,65.0,5.0,60.0,12.0,0.0
11790,53.0,1.0,60.0,13.0,0.0
11791,53.0,2.0,60.0,3.0,0.0
11792,46.0,0.0,40.0,15.0,0.0
11793,41.0,46.0,60.0,14.0,0.0
11794,82.0,1.0,60.0,10.0,0.0
11795,70.0,0.0,60.0,10.0,0.0
11796,75.0,1.0,60.0,0.0,0.0
11797,63.0,0.0,60.0,1.0,0.0
11798,75.0,0.0,60.0,1.0,0.0
11799,63.0,3.0,60.0,11.0,0.0
11800,63.0,1.0,60.0,2.0,0.0
11801,63.0,5.0,60.0,12.0,0.0
11802,51.0,1.0,60.0,13.0,0.0
11803,51.0,0.0,60.0,3.0,0.0
11804,46.0,0.0,40.0,15.0,0.0
11805,39.0,2.0,60.0,14.0,0.0
11806,82.0,1.0,60.0,10.0,0.0
11807,70.0,0.0,60.0,10.0,0.0
11808,74.0,1.0,60.0,0.0,0.0
11809,74.0,3.0,60.0,1.0,0.0
11810,62.0,0.0,60.0,1.0,0.0
11811,62.0,0.0,60.0,11.0,0.0
11812,58.0,0.0,120.0,6.0,0.0
11813,62.0,1.0,60.0,2.0,0.0
11814,46.0,44.0,15.0,5.0,0.0
11815,62.0,5.0,60.0,12.0,0.0
11816,50.0,0.0,60.0,13.0,0.0
11817,50.0,2.0,60.0,3.0,0.0
11818,46.0,1.0,40.0,15.0,0.0
11819,38.0,46.0,60.0,14.0,0.0
11820,82.0,1.0,60.0,10.0,0.0
11821,70.0,0.0,60.0,10.0,0.0
11822,72.0,1.0,60.0,0.0,0.0
11823,60.0,0.0,60.0,11.0,0.0
11824,60.0,3.0,60.0,1.0,0.0
11825,72.0,0.0,60.0,1.0,0.0
11826,60.0,1.0,60.0,2.0,0.0
11827,60.0,5.0,60.0,12.0,0.0
11828,48.0,0.0,60.0,13.0,0.0
11829,48.0,0.0,60.0,3.0,0.0
11830,46.0,1.0,40.0,15.0,0.0
11831,36.0,2.0,60.0,14.0,0.0
11832,70.0,1.0,60.0,10.0,0.0
11833,82.0,0.0,60.0,10.0,0.0
11834,70.0,1.0,60.0,0.0,0.0
11835,58.0,0.0,60.0,1.0,0.0
11836,58.0,0.0,60.0,11.0,0.0
11837,58.0,1.0,15.0,4.0,0.0
11838,70.0,3.0,60.0,1.0,0.0
11839,70.0,1.0,15.0,6.0,0.0
11840,58.0,1.0,60.0,2.0,0.0
11841,46.0,44.0,15.0,5.0,0.0
11842,58.0,5.0,60.0,12.0,0.0
11843,46.0,0.0,60.0,13.0,0.0
11844,46.0,2.0,60.0,3.0,0.0
11845,46.0,1.0,40.0,15.0,0.0
11846,34.0,46.0,60.0,14.0,0.0
11847,82.0,0.0,60.0,10.0,0.0
11848,70.0,1.0,60.0,10.0,0.0
11849,68.0,1.0,60.0,0.0,0.0
11850,56.0,3.0,60.0,11.0,0.0
11851,68.0,0.0,60.0,1.0,0.0
11852,56.0,0.0,60.0,1.0,0.0
11853,56.0,1.0,60.0,2.0,0.0
11854,56.0,5.0,60.0,12.0,0.0
11855,44.0,0.0,60.0,13.0,0.0
11856,44.0,1.0,60.0,3.0,0.0
11857,46.0,1.0,40.0,15.0,0.0
11858,32.0,2.0,60.0,14.0,0.0
11859,82.0,12.0,40.0,10.0,0.0
11860,67.0,0.0,120.0,0.0,0.0
11861,55.0,4.0,60.0,11.0,0.0
11862,58.0,0.0,15.0,4.0,0.0
11863,82.0,2.0,480.0,1.0,0.0
11864,70.0,1.0,960.0,6.0,0.0
11865,58.0,1.0,15.0,6.0,0.0
11866,55.0,8.0,120.0,2.0,0.0
11867,55.0,5.0,60.0,12.0,0.0
11868,43.0,3.0,60.0,13.0,0.0
11869,43.0,18.0,480.0,3.0,0.0
11870,46.0,27.0,120.0,15.0,0.0
11871,31.0,36.0,60.0,14.0,0.0
11872,81.0,12.0,40.0,10.0,0.0
11873,55.0,4.0,60.0,11.0,0.0
11874,55.0,5.0,60.0,12.0,0.0
11875,43.0,3.0,60.0,13.0,0.0
11876,31.0,1.0,60.0,14.0,0.0
11877,82.0,12.0,40.0,10.0,0.0
11878,58.0,4.0,60.0,11.0,0.0
11879,55.0,5.0,60.0,12.0,0.0
11880,43.0,3.0,60.0,13.0,0.0
11881,31.0,36.0,60.0,14.0,0.0
11882,81.0,12.0,40.0,10.0,0.0
11883,58.0,4.0,60.0,11.0,0.0
11884,55.0,5.0,60.0,12.0,0.0
11885,43.0,3.0,60.0,13.0,0.0
11886,31.0,36.0,60.0,14.0,0.0
11887,82.0,12.0,40.0,10.0,0.0
11888,63.0,4.0,60.0,11.0,0.0
11889,55.0,5.0,60.0,12.0,0.0
11890,43.0,3.0,60.0,13.0,0.0
11891,31.0,36.0,60.0,14.0,0.0
11892,81.0,12.0,40.0,10.0,0.0
11893,63.0,4.0,60.0,11.0,0.0
11894,55.0,5.0,60.0,12.0,0.0
11895,43.0,3.0,60.0,13.0,0.0
11896,31.0,36.0,60.0,14.0,0.0
11897,82.0,12.0,40.0,10.0,0.0
11898,67.0,4.0,60.0,11.0,0.0
11899,55.0,5.0,60.0,12.0,0.0
11900,43.0,3.0,60.0,13.0,0.0
11901,31.0,36.0,60.0,14.0,0.0
11902,81.0,12.0,40.0,10.0,0.0
11903,67.0,4.0,60.0,11.0,0.0
11904,55.0,5.0,60.0,12.0,0.0
11905,43.0,1.0,60.0,13.0,0.0
11906,31.0,8.0,60.0,14.0,0.0
11907,82.0,22.0,30.0,10.0,0.0
11908,70.0,4.0,60.0,11.0,0.0
11909,75.0,0.0,480.0,1.0,0.0
11910,63.0,0.0,480.0,2.0,0.0
11911,54.0,5.0,60.0,12.0,0.0
11912,42.0,3.0,60.0,13.0,0.0
11913,42.0,38.0,480.0,3.0,0.0
11914,54.0,0.0,480.0,3.0,0.0
11915,46.0,17.0,120.0,15.0,0.0
11916,30.0,26.0,60.0,14.0,0.0
11917,80.0,22.0,30.0,10.0,0.0
11918,70.0,4.0,60.0,11.0,0.0
11919,54.0,5.0,60.0,12.0,0.0
11920,42.0,3.0,60.0,13.0,0.0
11921,30.0,9.0,60.0,14.0,0.0
11922,78.0,22.0,30.0,10.0,0.0
11923,75.0,4.0,60.0,11.0,0.0
11924,54.0,5.0,60.0,12.0,0.0
11925,42.0,3.0,60.0,13.0,0.0
11926,30.0,26.0,60.0,14.0,0.0
11927,77.0,22.0,30.0,10.0,0.0
11928,75.0,4.0,60.0,11.0,0.0
11929,54.0,5.0,60.0,12.0,0.0
11930,42.0,0.0,60.0,13.0,0.0
11931,30.0,26.0,60.0,14.0,0.0
11932,75.0,22.0,30.0,10.0,0.0
11933,87.0,3.0,15.0,0.0,0.0
11934,78.0,4.0,60.0,11.0,0.0
11935,54.0,5.0,60.0,12.0,0.0
11936,42.0,3.0,60.0,13.0,0.0
11937,30.0,26.0,60.0,14.0,0.0
11938,73.0,22.0,30.0,10.0,0.0
11939,78.0,4.0,60.0,11.0,0.0
11940,54.0,5.0,60.0,12.0,0.0
11941,42.0,3.0,60.0,13.0,0.0
11942,30.0,26.0,60.0,14.0,0.0
11943,72.0,22.0,30.0,10.0,0.0
11944,82.0,4.0,60.0,11.0,0.0
11945,54.0,5.0,60.0,12.0,0.0
11946,42.0,3.0,60.0,13.0,0.0
11947,30.0,26.0,60.0,14.0,0.0
11948,70.0,22.0,30.0,10.0,0.0
11949,82.0,4.0,60.0,11.0,0.0
11950,54.0,5.0,60.0,12.0,0.0
11951,42.0,0.0,60.0,13.0,0.0
11952,30.0,1.0,60.0,14.0,0.0
11953,77.0,2.0,60.0,10.0,0.0
11954,86.0,1.0,480.0,0.0,0.0
11955,82.0,0.0,15.0,0.0,0.0
11956,70.0,1.0,15.0,1.0,0.0
11957,58.0,1.0,480.0,4.0,0.0
11958,62.0,0.0,60.0,11.0,0.0
11959,74.0,0.0,480.0,1.0,0.0
11960,70.0,4.0,60.0,11.0,0.0
11961,58.0,0.0,480.0,6.0,0.0
11962,70.0,1.0,480.0,6.0,0.0
11963,62.0,1.0,480.0,2.0,0.0
11964,70.0,1.0,15.0,2.0,0.0
11965,46.0,6.0,15.0,5.0,0.0
11966,53.0,5.0,60.0,12.0,0.0
11967,41.0,3.0,60.0,13.0,0.0
11968,53.0,38.0,480.0,3.0,0.0
11969,46.0,37.0,120.0,15.0,0.0
11970,29.0,46.0,60.0,14.0,0.0
11971,76.0,2.0,60.0,10.0,0.0
11972,62.0,4.0,60.0,11.0,0.0
11973,70.0,0.0,60.0,11.0,0.0
11974,53.0,5.0,60.0,12.0,0.0
11975,41.0,3.0,60.0,13.0,0.0
11976,29.0,9.0,60.0,14.0,0.0
11977,77.0,2.0,60.0,10.0,0.0
11978,70.0,0.0,60.0,11.0,0.0
11979,62.0,4.0,60.0,11.0,0.0
11980,53.0,5.0,60.0,12.0,0.0
11981,41.0,3.0,60.0,13.0,0.0
11982,29.0,46.0,60.0,14.0,0.0
11983,76.0,2.0,60.0,10.0,0.0
11984,62.0,0.0,60.0,11.0,0.0
11985,70.0,4.0,60.0,11.0,0.0
11986,53.0,5.0,60.0,12.0,0.0
11987,41.0,3.0,60.0,13.0,0.0
11988,29.0,46.0,60.0,14.0,0.0
11989,77.0,2.0,60.0,10.0,0.0
11990,70.0,4.0,60.0,11.0,0.0
11991,62.0,0.0,60.0,11.0,0.0
11992,53.0,5.0,60.0,12.0,0.0
11993,41.0,3.0,60.0,13.0,0.0
11994,29.0,46.0,60.0,14.0,0.0
11995,74.0,2.0,60.0,10.0,0.0
11996,62.0,0.0,60.0,11.0,0.0
11997,70.0,4.0,60.0,11.0,0.0
11998,53.0,5.0,60.0,12.0,0.0
11999,41.0,3.0,60.0,13.0,0.0
12000,29.0,46.0,60.0,14.0,0.0
12001,72.0,2.0,60.0,10.0,0.0
12002,70.0,4.0,60.0,11.0,0.0
12003,62.0,0.0,60.0,11.0,0.0
12004,53.0,5.0,60.0,12.0,0.0
12005,41.0,3.0,60.0,13.0,0.0
12006,29.0,46.0,60.0,14.0,0.0
12007,70.0,2.0,60.0,10.0,0.0
12008,62.0,0.0,60.0,11.0,0.0
12009,70.0,4.0,60.0,11.0,0.0
12010,53.0,5.0,60.0,12.0,0.0
12011,41.0,0.0,60.0,13.0,0.0
12012,29.0,1.0,60.0,14.0,0.0
12013,75.0,2.0,60.0,10.0,0.0
12014,81.0,1.0,480.0,0.0,0.0
12015,84.0,0.0,480.0,0.0,0.0
12016,72.0,0.0,480.0,1.0,0.0
12017,69.0,0.0,480.0,1.0,0.0
12018,69.0,4.0,60.0,11.0,0.0
12019,60.0,0.0,60.0,11.0,0.0
12020,60.0,1.0,480.0,4.0,0.0
12021,65.0,1.0,480.0,6.0,0.0
12022,53.0,0.0,480.0,6.0,0.0
12023,69.0,0.0,480.0,2.0,0.0
12024,60.0,1.0,480.0,2.0,0.0
12025,53.0,6.0,480.0,5.0,0.0
12026,53.0,5.0,60.0,12.0,0.0
12027,41.0,3.0,60.0,13.0,0.0
12028,41.0,0.0,15.0,3.0,0.0
12029,53.0,0.0,480.0,3.0,0.0
12030,41.0,37.0,120.0,15.0,0.0
12031,29.0,46.0,60.0,14.0,0.0
12032,74.0,2.0,60.0,10.0,0.0
12033,69.0,0.0,60.0,11.0,0.0
12034,60.0,4.0,60.0,11.0,0.0
12035,53.0,5.0,60.0,12.0,0.0
12036,41.0,3.0,60.0,13.0,0.0
12037,29.0,9.0,60.0,14.0,0.0
12038,75.0,2.0,60.0,10.0,0.0
12039,69.0,4.0,60.0,11.0,0.0
12040,60.0,0.0,60.0,11.0,0.0
12041,53.0,5.0,60.0,12.0,0.0
12042,41.0,3.0,60.0,13.0,0.0
12043,29.0,46.0,60.0,14.0,0.0
12044,74.0,2.0,60.0,10.0,0.0
12045,60.0,0.0,60.0,11.0,0.0
12046,69.0,4.0,60.0,11.0,0.0
12047,53.0,5.0,60.0,12.0,0.0
12048,41.0,3.0,60.0,13.0,0.0
12049,29.0,46.0,60.0,14.0,0.0
12050,75.0,2.0,60.0,10.0,0.0
12051,60.0,0.0,60.0,11.0,0.0
12052,69.0,4.0,60.0,11.0,0.0
12053,53.0,5.0,60.0,12.0,0.0
12054,41.0,3.0,60.0,13.0,0.0
12055,29.0,46.0,60.0,14.0,0.0
12056,72.0,2.0,60.0,10.0,0.0
12057,69.0,0.0,60.0,11.0,0.0
12058,60.0,4.0,60.0,11.0,0.0
12059,53.0,5.0,60.0,12.0,0.0
12060,41.0,3.0,60.0,13.0,0.0
12061,29.0,46.0,60.0,14.0,0.0
12062,70.0,2.0,60.0,10.0,0.0
12063,69.0,4.0,60.0,11.0,0.0
12064,60.0,0.0,60.0,11.0,0.0
12065,53.0,5.0,60.0,12.0,0.0
12066,41.0,3.0,60.0,13.0,0.0
12067,29.0,46.0,60.0,14.0,0.0
12068,69.0,2.0,60.0,10.0,0.0
12069,60.0,0.0,60.0,11.0,0.0
12070,69.0,4.0,60.0,11.0,0.0
12071,53.0,5.0,60.0,12.0,0.0
12072,41.0,0.0,60.0,13.0,0.0
12073,29.0,1.0,60.0,14.0,0.0
12074,70.0,0.0,60.0,10.0,0.0
12075,82.0,1.0,60.0,10.0,0.0
12076,80.0,1.0,60.0,0.0,0.0
12077,68.0,0.0,60.0,1.0,0.0
12078,68.0,0.0,60.0,11.0,0.0
12079,80.0,3.0,60.0,1.0,0.0
12080,70.0,0.0,120.0,6.0,0.0
12081,68.0,1.0,60.0,2.0,0.0
12082,46.0,44.0,120.0,5.0,0.0
12083,68.0,5.0,60.0,12.0,0.0
12084,56.0,1.0,60.0,13.0,0.0
12085,56.0,2.0,60.0,3.0,0.0
12086,46.0,0.0,40.0,15.0,0.0
12087,44.0,46.0,60.0,14.0,0.0
12088,70.0,0.0,60.0,10.0,0.0
12089,82.0,1.0,60.0,10.0,0.0
12090,79.0,1.0,60.0,0.0,0.0
12091,67.0,0.0,60.0,11.0,0.0
12092,67.0,0.0,60.0,1.0,0.0
12093,79.0,3.0,60.0,1.0,0.0
12094,67.0,1.0,60.0,2.0,0.0
12095,67.0,5.0,60.0,12.0,0.0
12096,55.0,0.0,60.0,13.0,0.0
12097,55.0,0.0,60.0,3.0,0.0
12098,46.0,1.0,40.0,15.0,0.0
12099,43.0,2.0,60.0,14.0,0.0
12100,70.0,0.0,60.0,10.0,0.0
12101,82.0,1.0,60.0,10.0,0.0
12102,77.0,1.0,60.0,0.0,0.0
12103,77.0,0.0,60.0,1.0,0.0
12104,58.0,1.0,15.0,4.0,0.0
12105,65.0,0.0,60.0,11.0,0.0
12106,65.0,3.0,60.0,1.0,0.0
12107,58.0,1.0,15.0,6.0,0.0
12108,70.0,1.0,120.0,6.0,0.0
12109,65.0,1.0,60.0,2.0,0.0
12110,65.0,5.0,60.0,12.0,0.0
12111,53.0,0.0,60.0,13.0,0.0
12112,53.0,2.0,60.0,3.0,0.0
12113,46.0,1.0,40.0,15.0,0.0
12114,41.0,46.0,60.0,14.0,0.0
12115,82.0,1.0,60.0,10.0,0.0
12116,70.0,0.0,60.0,10.0,0.0
12117,79.0,1.0,60.0,0.0,0.0
12118,67.0,3.0,60.0,11.0,0.0
12119,67.0,0.0,60.0,1.0,0.0
12120,79.0,0.0,60.0,1.0,0.0
12121,67.0,1.0,60.0,2.0,0.0
12122,67.0,5.0,60.0,12.0,0.0
12123,55.0,0.0,60.0,13.0,0.0
12124,55.0,1.0,60.0,3.0,0.0
12125,46.0,1.0,40.0,15.0,0.0
12126,43.0,2.0,60.0,14.0,0.0
12127,82.0,0.0,60.0,10.0,0.0
12128,70.0,1.0,60.0,10.0,0.0
12129,80.0,1.0,60.0,0.0,0.0
12130,80.0,0.0,60.0,1.0,0.0
12131,68.0,0.0,60.0,1.0,0.0
12132,68.0,3.0,60.0,11.0,0.0
12133,58.0,0.0,15.0,6.0,0.0
12134,68.0,1.0,60.0,2.0,0.0
12135,46.0,44.0,15.0,5.0,0.0
12136,68.0,5.0,60.0,12.0,0.0
12137,56.0,1.0,60.0,13.0,0.0
12138,56.0,2.0,60.0,3.0,0.0
12139,46.0,0.0,40.0,15.0,0.0
12140,44.0,46.0,60.0,14.0,0.0
12141,70.0,1.0,60.0,10.0,0.0
12142,82.0,0.0,60.0,10.0,0.0
12143,79.0,1.0,60.0,0.0,0.0
12144,79.0,3.0,60.0,1.0,0.0
12145,67.0,0.0,60.0,1.0,0.0
12146,67.0,0.0,60.0,11.0,0.0
12147,67.0,1.0,60.0,2.0,0.0
12148,67.0,5.0,60.0,12.0,0.0
12149,55.0,1.0,60.0,13.0,0.0
12150,55.0,0.0,60.0,3.0,0.0
12151,46.0,0.0,40.0,15.0,0.0
12152,43.0,2.0,60.0,14.0,0.0
12153,82.0,1.0,60.0,10.0,0.0
12154,70.0,0.0,60.0,10.0,0.0
12155,80.0,1.0,60.0,0.0,0.0
12156,58.0,1.0,15.0,4.0,0.0
12157,68.0,0.0,60.0,11.0,0.0
12158,68.0,3.0,60.0,1.0,0.0
12159,80.0,0.0,60.0,1.0,0.0
12160,58.0,0.0,15.0,6.0,0.0
12161,70.0,1.0,15.0,6.0,0.0
12162,68.0,1.0,60.0,2.0,0.0
12163,46.0,44.0,15.0,5.0,0.0
12164,68.0,5.0,60.0,12.0,0.0
12165,56.0,1.0,60.0,13.0,0.0
12166,56.0,2.0,60.0,3.0,0.0
12167,46.0,0.0,40.0,15.0,0.0
12168,44.0,46.0,60.0,14.0,0.0
12169,82.0,0.0,60.0,10.0,0.0
12170,70.0,1.0,60.0,10.0,0.0
12171,79.0,1.0,60.0,0.0,0.0
12172,67.0,3.0,60.0,11.0,0.0
12173,79.0,0.0,60.0,1.0,0.0
12174,67.0,0.0,60.0,1.0,0.0
12175,67.0,1.0,60.0,2.0,0.0
12176,67.0,5.0,60.0,12.0,0.0
12177,55.0,1.0,60.0,13.0,0.0
12178,55.0,0.0,60.0,3.0,0.0
12179,46.0,0.0,40.0,15.0,0.0
12180,43.0,2.0,60.0,14.0,0.0
12181,82.0,0.0,60.0,10.0,0.0
12182,70.0,1.0,60.0,10.0,0.0
12183,80.0,1.0,60.0,0.0,0.0
12184,68.0,0.0,60.0,11.0,0.0
12185,80.0,3.0,60.0,1.0,0.0
12186,68.0,0.0,60.0,1.0,0.0
12187,58.0,0.0,120.0,4.0,0.0
12188,58.0,1.0,15.0,6.0,0.0
12189,70.0,0.0,120.0,6.0,0.0
12190,68.0,1.0,60.0,2.0,0.0
12191,68.0,5.0,60.0,12.0,0.0
12192,46.0,44.0,15.0,5.0,0.0
12193,56.0,1.0,60.0,13.0,0.0
12194,56.0,2.0,60.0,3.0,0.0
12195,46.0,0.0,40.0,15.0,0.0
12196,44.0,46.0,60.0,14.0,0.0
12197,70.0,0.0,60.0,10.0,0.0
12198,82.0,1.0,60.0,10.0,0.0
12199,79.0,1.0,60.0,0.0,0.0
12200,67.0,0.0,60.0,1.0,0.0
12201,67.0,0.0,60.0,11.0,0.0
12202,79.0,3.0,60.0,1.0,0.0
12203,67.0,1.0,60.0,2.0,0.0
12204,67.0,5.0,60.0,12.0,0.0
12205,55.0,1.0,60.0,13.0,0.0
12206,55.0,1.0,60.0,3.0,0.0
12207,46.0,0.0,40.0,15.0,0.0
12208,43.0,2.0,60.0,14.0,0.0
12209,82.0,0.0,60.0,10.0,0.0
12210,70.0,1.0,60.0,10.0,0.0
12211,77.0,1.0,60.0,0.0,0.0
12212,77.0,3.0,60.0,1.0,0.0
12213,65.0,0.0,60.0,11.0,0.0
12214,65.0,0.0,60.0,1.0,0.0
12215,58.0,0.0,120.0,6.0,0.0
12216,65.0,1.0,60.0,2.0,0.0
12217,46.0,44.0,15.0,5.0,0.0
12218,65.0,5.0,60.0,12.0,0.0
12219,53.0,0.0,60.0,13.0,0.0
12220,53.0,2.0,60.0,3.0,0.0
12221,46.0,1.0,40.0,15.0,0.0
12222,41.0,46.0,60.0,14.0,0.0
12223,70.0,0.0,60.0,10.0,0.0
12224,82.0,1.0,60.0,10.0,0.0
12225,79.0,1.0,60.0,0.0,0.0
12226,67.0,3.0,60.0,11.0,0.0
12227,67.0,0.0,60.0,1.0,0.0
12228,79.0,0.0,60.0,1.0,0.0
12229,67.0,1.0,60.0,2.0,0.0
12230,67.0,5.0,60.0,12.0,0.0
12231,55.0,1.0,60.0,13.0,0.0
12232,55.0,0.0,60.0,3.0,0.0
12233,46.0,0.0,40.0,15.0,0.0
12234,43.0,2.0,60.0,14.0,0.0
12235,70.0,0.0,60.0,10.0,0.0
12236,82.0,1.0,60.0,10.0,0.0
12237,80.0,1.0,60.0,0.0,0.0
12238,68.0,0.0,60.0,1.0,0.0
12239,58.0,1.0,15.0,4.0,0.0
12240,80.0,0.0,60.0,1.0,0.0
12241,68.0,3.0,60.0,11.0,0.0
12242,70.0,1.0,15.0,6.0,0.0
12243,58.0,0.0,120.0,6.0,0.0
12244,68.0,1.0,60.0,2.0,0.0
12245,46.0,44.0,15.0,5.0,0.0
12246,68.0,5.0,60.0,12.0,0.0
12247,56.0,0.0,60.0,13.0,0.0
12248,56.0,2.0,60.0,3.0,0.0
12249,46.0,1.0,40.0,15.0,0.0
12250,44.0,46.0,60.0,14.0,0.0
12251,70.0,1.0,60.0,10.0,0.0
12252,82.0,0.0,60.0,10.0,0.0
12253,79.0,1.0,60.0,0.0,0.0
12254,79.0,0.0,60.0,1.0,0.0
12255,67.0,0.0,60.0,11.0,0.0
12256,67.0,3.0,60.0,1.0,0.0
12257,67.0,1.0,60.0,2.0,0.0
12258,67.0,5.0,60.0,12.0,0.0
12259,55.0,0.0,60.0,13.0,0.0
12260,55.0,1.0,60.0,3.0,0.0
12261,46.0,1.0,40.0,15.0,0.0
12262,43.0,2.0,60.0,14.0,0.0
12263,82.0,0.0,60.0,10.0,0.0
12264,70.0,1.0,60.0,10.0,0.0
12265,80.0,1.0,60.0,0.0,0.0
12266,58.0,0.0,15.0,4.0,0.0
12267,68.0,0.0,60.0,11.0,0.0
12268,68.0,3.0,60.0,1.0,0.0
12269,80.0,0.0,60.0,1.0,0.0
12270,68.0,1.0,60.0,2.0,0.0
12271,68.0,5.0,60.0,12.0,0.0
12272,56.0,1.0,60.0,13.0,0.0
12273,56.0,2.0,60.0,3.0,0.0
12274,46.0,0.0,40.0,15.0,0.0
12275,44.0,46.0,60.0,14.0,0.0
12276,70.0,1.0,60.0,10.0,0.0
12277,82.0,0.0,60.0,10.0,0.0
12278,79.0,1.0,60.0,0.0,0.0
12279,67.0,0.0,60.0,1.0,0.0
12280,79.0,0.0,60.0,1.0,0.0
12281,67.0,3.0,60.0,11.0,0.0
12282,67.0,1.0,60.0,2.0,0.0
12283,67.0,5.0,60.0,12.0,0.0
12284,55.0,0.0,60.0,13.0,0.0
12285,55.0,1.0,60.0,3.0,0.0
12286,46.0,1.0,40.0,15.0,0.0
12287,43.0,2.0,60.0,14.0,0.0
12288,82.0,1.0,60.0,10.0,0.0
12289,70.0,0.0,60.0,10.0,0.0
12290,80.0,1.0,60.0,0.0,0.0
12291,68.0,0.0,60.0,11.0,0.0
12292,68.0,3.0,60.0,1.0,0.0
12293,80.0,0.0,60.0,1.0,0.0
12294,58.0,0.0,15.0,4.0,0.0
12295,58.0,1.0,15.0,6.0,0.0
12296,70.0,0.0,15.0,6.0,0.0
12297,68.0,1.0,60.0,2.0,0.0
12298,68.0,5.0,60.0,12.0,0.0
12299,46.0,44.0,15.0,5.0,0.0
12300,56.0,0.0,60.0,13.0,0.0
12301,56.0,2.0,60.0,3.0,0.0
12302,46.0,1.0,40.0,15.0,0.0
12303,44.0,46.0,60.0,14.0,0.0
12304,82.0,0.0,60.0,10.0,0.0
12305,70.0,1.0,60.0,10.0,0.0
12306,79.0,1.0,60.0,0.0,0.0
12307,79.0,3.0,60.0,1.0,0.0
12308,67.0,0.0,60.0,1.0,0.0
12309,67.0,0.0,60.0,11.0,0.0
12310,67.0,1.0,60.0,2.0,0.0
12311,67.0,5.0,60.0,12.0,0.0
12312,55.0,1.0,60.0,13.0,0.0
12313,55.0,1.0,60.0,3.0,0.0
12314,46.0,0.0,40.0,15.0,0.0
12315,43.0,2.0,60.0,14.0,0.0
12316,70.0,0.0,60.0,10.0,0.0
12317,82.0,1.0,60.0,10.0,0.0
12318,80.0,1.0,60.0,0.0,0.0
12319,68.0,0.0,60.0,1.0,0.0
12320,80.0,0.0,60.0,1.0,0.0
12321,68.0,3.0,60.0,11.0,0.0
12322,70.0,0.0,15.0,6.0,0.0
12323,58.0,1.0,15.0,6.0,0.0
12324,68.0,1.0,60.0,2.0,0.0
12325,46.0,44.0,15.0,5.0,0.0
12326,68.0,5.0,60.0,12.0,0.0
12327,56.0,1.0,60.0,13.0,0.0
12328,56.0,2.0,60.0,3.0,0.0
12329,46.0,0.0,40.0,15.0,0.0
12330,44.0,46.0,60.0,14.0,0.0
12331,70.0,1.0,60.0,10.0,0.0
12332,82.0,0.0,60.0,10.0,0.0
12333,79.0,1.0,60.0,0.0,0.0
12334,67.0,3.0,60.0,11.0,0.0
12335,67.0,0.0,60.0,1.0,0.0
12336,79.0,0.0,60.0,1.0,0.0
12337,67.0,1.0,60.0,2.0,0.0
12338,67.0,5.0,60.0,12.0,0.0
12339,55.0,1.0,60.0,13.0,0.0
12340,55.0,1.0,60.0,3.0,0.0
12341,46.0,0.0,40.0,15.0,0.0
12342,43.0,2.0,60.0,14.0,0.0
12343,70.0,0.0,60.0,10.0,0.0
12344,82.0,1.0,60.0,10.0,0.0
12345,80.0,1.0,60.0,0.0,0.0
12346,68.0,0.0,60.0,1.0,0.0
12347,68.0,0.0,60.0,11.0,0.0
12348,58.0,0.0,15.0,4.0,0.0
12349,80.0,3.0,60.0,1.0,0.0
12350,58.0,0.0,120.0,6.0,0.0
12351,68.0,1.0,60.0,2.0,0.0
12352,68.0,5.0,60.0,12.0,0.0
12353,56.0,1.0,60.0,13.0,0.0
12354,56.0,2.0,60.0,3.0,0.0
12355,46.0,0.0,40.0,15.0,0.0
12356,44.0,46.0,60.0,14.0,0.0
12357,82.0,0.0,60.0,10.0,0.0
12358,70.0,1.0,60.0,10.0,0.0
12359,79.0,1.0,60.0,0.0,0.0
12360,67.0,3.0,60.0,11.0,0.0
12361,67.0,0.0,60.0,1.0,0.0
12362,79.0,0.0,60.0,1.0,0.0
12363,67.0,1.0,60.0,2.0,0.0
12364,67.0,5.0,60.0,12.0,0.0
12365,55.0,1.0,60.0,13.0,0.0
12366,55.0,0.0,60.0,3.0,0.0
12367,46.0,0.0,40.0,15.0,0.0
12368,43.0,2.0,60.0,14.0,0.0
12369,82.0,1.0,60.0,10.0,0.0
12370,70.0,0.0,60.0,10.0,0.0
12371,80.0,1.0,60.0,0.0,0.0
12372,80.0,3.0,60.0,1.0,0.0
12373,68.0,0.0,60.0,1.0,0.0
12374,58.0,0.0,120.0,4.0,0.0
12375,68.0,0.0,60.0,11.0,0.0
12376,58.0,0.0,120.0,6.0,0.0
12377,70.0,1.0,15.0,6.0,0.0
12378,68.0,1.0,60.0,2.0,0.0
12379,46.0,44.0,15.0,5.0,0.0
12380,68.0,5.0,60.0,12.0,0.0
12381,56.0,0.0,60.0,13.0,0.0
12382,56.0,2.0,60.0,3.0,0.0
12383,46.0,1.0,40.0,15.0,0.0
12384,44.0,46.0,60.0,14.0,0.0
12385,70.0,0.0,60.0,10.0,0.0
12386,82.0,1.0,60.0,10.0,0.0
12387,79.0,1.0,60.0,0.0,0.0
12388,67.0,0.0,60.0,11.0,0.0
12389,79.0,3.0,60.0,1.0,0.0
12390,67.0,0.0,60.0,1.0,0.0
12391,67.0,1.0,60.0,2.0,0.0
12392,67.0,5.0,60.0,12.0,0.0
12393,55.0,0.0,60.0,13.0,0.0
12394,55.0,1.0,60.0,3.0,0.0
12395,46.0,1.0,40.0,15.0,0.0
12396,43.0,2.0,60.0,14.0,0.0
12397,70.0,0.0,60.0,10.0,0.0
12398,82.0,1.0,60.0,10.0,0.0
12399,80.0,1.0,60.0,0.0,0.0
12400,80.0,0.0,60.0,1.0,0.0
12401,68.0,0.0,60.0,1.0,0.0
12402,68.0,3.0,60.0,11.0,0.0
12403,68.0,1.0,60.0,2.0,0.0
12404,68.0,5.0,60.0,12.0,0.0
12405,56.0,0.0,60.0,13.0,0.0
12406,56.0,2.0,60.0,3.0,0.0
12407,46.0,1.0,40.0,15.0,0.0
12408,44.0,46.0,60.0,14.0,0.0
12409,82.0,0.0,60.0,10.0,0.0
12410,70.0,1.0,60.0,10.0,0.0
12411,79.0,1.0,60.0,0.0,0.0
12412,67.0,0.0,60.0,1.0,0.0
12413,79.0,0.0,60.0,1.0,0.0
12414,67.0,3.0,60.0,11.0,0.0
12415,67.0,1.0,60.0,2.0,0.0
12416,67.0,5.0,60.0,12.0,0.0
12417,55.0,1.0,60.0,13.0,0.0
12418,55.0,1.0,60.0,3.0,0.0
12419,46.0,0.0,40.0,15.0,0.0
12420,43.0,2.0,60.0,14.0,0.0
12421,70.0,1.0,60.0,10.0,0.0
12422,82.0,0.0,60.0,10.0,0.0
12423,77.0,1.0,60.0,0.0,0.0
12424,58.0,0.0,15.0,4.0,0.0
12425,65.0,0.0,60.0,11.0,0.0
12426,77.0,3.0,60.0,1.0,0.0
12427,65.0,0.0,60.0,1.0,0.0
12428,70.0,1.0,15.0,6.0,0.0
12429,58.0,0.0,15.0,6.0,0.0
12430,65.0,1.0,60.0,2.0,0.0
12431,46.0,44.0,15.0,5.0,0.0
12432,65.0,5.0,60.0,12.0,0.0
12433,53.0,1.0,60.0,13.0,0.0
12434,53.0,2.0,60.0,3.0,0.0
12435,46.0,0.0,40.0,15.0,0.0
12436,41.0,46.0,60.0,14.0,0.0
12437,70.0,0.0,60.0,10.0,0.0
12438,82.0,1.0,60.0,10.0,0.0
12439,75.0,1.0,60.0,0.0,0.0
12440,63.0,3.0,60.0,11.0,0.0
12441,75.0,0.0,60.0,1.0,0.0
12442,63.0,0.0,60.0,1.0,0.0
12443,63.0,1.0,60.0,2.0,0.0
12444,63.0,5.0,60.0,12.0,0.0
12445,51.0,1.0,60.0,13.0,0.0
12446,51.0,1.0,60.0,3.0,0.0
12447,46.0,0.0,40.0,15.0,0.0
12448,39.0,2.0,60.0,14.0,0.0
12449,70.0,0.0,60.0,10.0,0.0
12450,82.0,1.0,60.0,10.0,0.0
12451,74.0,1.0,60.0,0.0,0.0
12452,62.0,0.0,60.0,11.0,0.0
12453,58.0,1.0,120.0,4.0,0.0
12454,62.0,0.0,60.0,1.0,0.0
12455,74.0,3.0,60.0,1.0,0.0
12456,58.0,1.0,120.0,6.0,0.0
12457,70.0,1.0,15.0,6.0,0.0
12458,62.0,1.0,60.0,2.0,0.0
12459,46.0,44.0,15.0,5.0,0.0
12460,62.0,5.0,60.0,12.0,0.0
12461,50.0,1.0,60.0,13.0,0.0
12462,50.0,2.0,60.0,3.0,0.0
12463,46.0,0.0,40.0,15.0,0.0
12464,38.0,46.0,60.0,14.0,0.0
12465,82.0,1.0,60.0,10.0,0.0
12466,70.0,0.0,60.0,10.0,0.0
12467,72.0,1.0,60.0,0.0,0.0
12468,72.0,0.0,60.0,1.0,0.0
12469,60.0,3.0,60.0,1.0,0.0
12470,60.0,0.0,60.0,11.0,0.0
12471,60.0,1.0,60.0,2.0,0.0
12472,60.0,5.0,60.0,12.0,0.0
12473,48.0,1.0,60.0,13.0,0.0
12474,48.0,0.0,60.0,3.0,0.0
12475,46.0,0.0,40.0,15.0,0.0
12476,36.0,2.0,60.0,14.0,0.0
12477,70.0,0.0,60.0,10.0,0.0
12478,82.0,1.0,60.0,10.0,0.0
12479,70.0,1.0,60.0,0.0,0.0
12480,70.0,0.0,60.0,1.0,0.0
12481,58.0,3.0,60.0,1.0,0.0
12482,58.0,0.0,60.0,11.0,0.0
12483,58.0,0.0,120.0,4.0,0.0
12484,58.0,0.0,120.0,6.0,0.0
12485,70.0,1.0,120.0,6.0,0.0
12486,58.0,1.0,60.0,2.0,0.0
12487,46.0,44.0,15.0,5.0,0.0
12488,58.0,5.0,60.0,12.0,0.0
12489,46.0,0.0,60.0,13.0,0.0
12490,46.0,2.0,60.0,3.0,0.0
12491,46.0,1.0,40.0,15.0,0.0
12492,34.0,46.0,60.0,14.0,0.0
12493,70.0,0.0,60.0,10.0,0.0
12494,82.0,1.0,60.0,10.0,0.0
12495,68.0,1.0,60.0,0.0,0.0
12496,68.0,0.0,60.0,1.0,0.0
12497,56.0,3.0,60.0,11.0,0.0
12498,56.0,0.0,60.0,1.0,0.0
12499,56.0,1.0,60.0,2.0,0.0
12500,56.0,5.0,60.0,12.0,0.0
12501,44.0,1.0,60.0,13.0,0.0
12502,44.0,1.0,60.0,3.0,0.0
12503,46.0,0.0,40.0,15.0,0.0
12504,32.0,2.0,60.0,14.0,0.0
12505,83.0,6.0,60.0,10.0,0.0
12506,67.0,3.0,120.0,0.0,0.0
12507,55.0,4.0,120.0,11.0,0.0
12508,71.0,2.0,960.0,1.0,0.0
12509,62.0,0.0,960.0,4.0,0.0
12510,74.0,0.0,960.0,1.0,0.0
12511,55.0,45.0,120.0,2.0,0.0
12512,62.0,6.0,960.0,5.0,0.0
12513,55.0,5.0,60.0,12.0,0.0
12514,43.0,3.0,60.0,13.0,0.0
12515,55.0,38.0,480.0,3.0,0.0
12516,43.0,0.0,480.0,3.0,0.0
12517,31.0,46.0,60.0,14.0,0.0
12518,83.0,2.0,60.0,10.0,0.0
12519,67.0,5.0,60.0,12.0,0.0
12520,55.0,0.0,60.0,13.0,0.0
12521,43.0,1.0,60.0,14.0,0.0
12522,83.0,2.0,60.0,10.0,0.0
12523,79.0,4.0,60.0,11.0,0.0
12524,67.0,5.0,60.0,12.0,0.0
12525,55.0,3.0,60.0,13.0,0.0
12526,43.0,46.0,60.0,14.0,0.0
12527,83.0,2.0,60.0,10.0,0.0
12528,78.0,4.0,60.0,11.0,0.0
12529,67.0,5.0,60.0,12.0,0.0
12530,55.0,3.0,60.0,13.0,0.0
12531,43.0,46.0,60.0,14.0,0.0
12532,83.0,2.0,60.0,10.0,0.0
12533,83.0,0.0,480.0,0.0,0.0
12534,79.0,4.0,60.0,11.0,0.0
12535,67.0,0.0,720.0,2.0,0.0
12536,62.0,1.0,720.0,2.0,0.0
12537,67.0,5.0,60.0,12.0,0.0
12538,55.0,3.0,60.0,13.0,0.0
12539,43.0,46.0,60.0,14.0,0.0
12540,83.0,2.0,60.0,10.0,0.0
12541,78.0,4.0,60.0,11.0,0.0
12542,67.0,5.0,60.0,12.0,0.0
12543,55.0,3.0,60.0,13.0,0.0
12544,43.0,46.0,60.0,14.0,0.0
12545,83.0,2.0,60.0,10.0,0.0
12546,79.0,4.0,60.0,11.0,0.0
12547,67.0,5.0,60.0,12.0,0.0
12548,55.0,3.0,60.0,13.0,0.0
12549,43.0,46.0,60.0,14.0,0.0
12550,83.0,2.0,60.0,10.0,0.0
12551,78.0,4.0,60.0,11.0,0.0
12552,67.0,5.0,60.0,12.0,0.0
12553,55.0,3.0,60.0,13.0,0.0
12554,43.0,8.0,60.0,14.0,0.0
12555,83.0,2.0,60.0,10.0,0.0
12556,79.0,4.0,60.0,11.0,0.0
12557,65.0,5.0,60.0,12.0,0.0
12558,53.0,3.0,60.0,13.0,0.0
12559,53.0,0.0,480.0,3.0,0.0
12560,41.0,38.0,480.0,3.0,0.0
12561,41.0,46.0,60.0,14.0,0.0
12562,83.0,2.0,60.0,10.0,0.0
12563,77.0,4.0,60.0,11.0,0.0
12564,65.0,5.0,60.0,12.0,0.0
12565,53.0,3.0,60.0,13.0,0.0
12566,41.0,46.0,60.0,14.0,0.0
12567,83.0,2.0,60.0,10.0,0.0
12568,75.0,4.0,60.0,11.0,0.0
12569,65.0,5.0,60.0,12.0,0.0
12570,53.0,3.0,60.0,13.0,0.0
12571,41.0,46.0,60.0,14.0,0.0
12572,83.0,2.0,60.0,10.0,0.0
12573,74.0,4.0,60.0,11.0,0.0
12574,65.0,5.0,60.0,12.0,0.0
12575,53.0,0.0,60.0,13.0,0.0
12576,41.0,46.0,60.0,14.0,0.0
12577,83.0,2.0,60.0,10.0,0.0
12578,86.0,3.0,15.0,0.0,0.0
12579,83.0,0.0,240.0,0.0,0.0
12580,72.0,4.0,60.0,11.0,0.0
12581,65.0,5.0,60.0,12.0,0.0
12582,53.0,3.0,60.0,13.0,0.0
12583,41.0,46.0,60.0,14.0,0.0
12584,83.0,2.0,60.0,10.0,0.0
12585,71.0,4.0,60.0,11.0,0.0
12586,65.0,5.0,60.0,12.0,0.0
12587,53.0,3.0,60.0,13.0,0.0
12588,41.0,46.0,60.0,14.0,0.0
12589,83.0,2.0,60.0,10.0,0.0
12590,69.0,4.0,60.0,11.0,0.0
12591,65.0,5.0,60.0,12.0,0.0
12592,53.0,3.0,60.0,13.0,0.0
12593,41.0,46.0,60.0,14.0,0.0
12594,83.0,2.0,60.0,10.0,0.0
12595,67.0,4.0,60.0,11.0,0.0
12596,65.0,5.0,60.0,12.0,0.0
12597,53.0,0.0,60.0,13.0,0.0
12598,41.0,1.0,60.0,14.0,0.0
12599,84.0,2.0,60.0,10.0,0.0
12600,84.0,1.0,480.0,0.0,0.0
12601,87.0,0.0,480.0,0.0,0.0
12602,75.0,0.0,480.0,1.0,0.0
12603,72.0,0.0,480.0,1.0,0.0
12604,63.0,1.0,480.0,4.0,0.0
12605,75.0,4.0,60.0,11.0,0.0
12606,75.0,0.0,480.0,6.0,0.0
12607,72.0,1.0,480.0,6.0,0.0
12608,63.0,0.0,480.0,2.0,0.0
12609,67.0,1.0,480.0,2.0,0.0
12610,60.0,6.0,480.0,5.0,0.0
12611,63.0,5.0,60.0,12.0,0.0
12612,51.0,3.0,60.0,13.0,0.0
12613,39.0,0.0,120.0,3.0,0.0
12614,51.0,38.0,120.0,3.0,0.0
12615,39.0,46.0,60.0,14.0,0.0
12616,84.0,2.0,60.0,10.0,0.0
12617,74.0,4.0,60.0,11.0,0.0
12618,63.0,5.0,60.0,12.0,0.0
12619,51.0,3.0,60.0,13.0,0.0
12620,39.0,8.0,60.0,14.0,0.0
12621,84.0,2.0,60.0,10.0,0.0
12622,75.0,4.0,60.0,11.0,0.0
12623,63.0,5.0,60.0,12.0,0.0
12624,51.0,3.0,60.0,13.0,0.0
12625,51.0,38.0,120.0,3.0,0.0
12626,39.0,46.0,60.0,14.0,0.0
12627,84.0,2.0,60.0,10.0,0.0
12628,74.0,4.0,60.0,11.0,0.0
12629,63.0,5.0,60.0,12.0,0.0
12630,51.0,3.0,60.0,13.0,0.0
12631,39.0,8.0,60.0,14.0,0.0
12632,87.0,2.0,60.0,10.0,0.0
12633,75.0,4.0,60.0,11.0,0.0
12634,60.0,5.0,60.0,12.0,0.0
12635,48.0,3.0,60.0,13.0,0.0
12636,48.0,38.0,120.0,3.0,0.0
12637,36.0,46.0,60.0,14.0,0.0
12638,87.0,2.0,60.0,10.0,0.0
12639,77.0,4.0,60.0,11.0,0.0
12640,60.0,5.0,60.0,12.0,0.0
12641,48.0,3.0,60.0,13.0,0.0
12642,36.0,8.0,60.0,14.0,0.0
12643,87.0,2.0,60.0,10.0,0.0
12644,79.0,4.0,60.0,11.0,0.0
12645,60.0,5.0,60.0,12.0,0.0
12646,48.0,3.0,60.0,13.0,0.0
12647,48.0,38.0,120.0,3.0,0.0
12648,36.0,46.0,60.0,14.0,0.0
12649,87.0,2.0,60.0,10.0,0.0
12650,75.0,4.0,60.0,11.0,0.0
12651,60.0,5.0,60.0,12.0,0.0
12652,48.0,0.0,60.0,13.0,0.0
12653,36.0,1.0,60.0,14.0,0.0
12654,82.0,2.0,60.0,10.0,0.0
12655,86.0,0.0,240.0,0.0,0.0
12656,82.0,1.0,240.0,0.0,0.0
12657,74.0,1.0,240.0,1.0,0.0
12658,62.0,0.0,240.0,4.0,0.0
12659,74.0,4.0,60.0,11.0,0.0
12660,70.0,0.0,240.0,1.0,0.0
12661,70.0,1.0,240.0,6.0,0.0
12662,74.0,0.0,240.0,6.0,0.0
12663,62.0,1.0,240.0,2.0,0.0
12664,65.0,0.0,240.0,2.0,0.0
12665,58.0,6.0,240.0,5.0,0.0
12666,65.0,5.0,60.0,12.0,0.0
12667,53.0,3.0,60.0,13.0,0.0
12668,53.0,1.0,120.0,3.0,0.0
12669,41.0,37.0,120.0,15.0,0.0
12670,41.0,46.0,60.0,14.0,0.0
12671,82.0,2.0,60.0,10.0,0.0
12672,75.0,4.0,60.0,11.0,0.0
12673,65.0,5.0,60.0,12.0,0.0
12674,53.0,3.0,60.0,13.0,0.0
12675,41.0,8.0,60.0,14.0,0.0
12676,82.0,2.0,60.0,10.0,0.0
12677,77.0,4.0,60.0,11.0,0.0
12678,65.0,5.0,60.0,12.0,0.0
12679,53.0,3.0,60.0,13.0,0.0
12680,53.0,38.0,120.0,3.0,0.0
12681,41.0,46.0,60.0,14.0,0.0
12682,82.0,2.0,60.0,10.0,0.0
12683,74.0,4.0,60.0,11.0,0.0
12684,65.0,5.0,60.0,12.0,0.0
12685,53.0,0.0,60.0,13.0,0.0
12686,41.0,1.0,60.0,14.0,0.0
12687,81.0,2.0,60.0,10.0,0.0
12688,84.0,1.0,240.0,0.0,0.0
12689,81.0,0.0,240.0,0.0,0.0
12690,60.0,1.0,240.0,4.0,0.0
12691,72.0,0.0,240.0,1.0,0.0
12692,72.0,4.0,60.0,11.0,0.0
12693,69.0,0.0,240.0,1.0,0.0
12694,72.0,1.0,240.0,6.0,0.0
12695,65.0,0.0,240.0,6.0,0.0
12696,63.0,0.0,240.0,2.0,0.0
12697,53.0,6.0,240.0,5.0,0.0
12698,53.0,5.0,60.0,12.0,0.0
12699,41.0,3.0,60.0,13.0,0.0
12700,41.0,37.0,120.0,15.0,0.0
12701,29.0,46.0,60.0,14.0,0.0
12702,81.0,2.0,60.0,10.0,0.0
12703,74.0,4.0,60.0,11.0,0.0
12704,53.0,5.0,60.0,12.0,0.0
12705,41.0,3.0,60.0,13.0,0.0
12706,29.0,8.0,60.0,14.0,0.0
12707,81.0,2.0,60.0,10.0,0.0
12708,75.0,4.0,60.0,11.0,0.0
12709,53.0,5.0,60.0,12.0,0.0
12710,41.0,3.0,60.0,13.0,0.0
12711,41.0,1.0,15.0,3.0,0.0
12712,29.0,46.0,60.0,14.0,0.0
12713,81.0,2.0,60.0,10.0,0.0
12714,72.0,4.0,60.0,11.0,0.0
12715,53.0,5.0,60.0,12.0,0.0
12716,41.0,0.0,60.0,13.0,0.0
12717,29.0,1.0,60.0,14.0,0.0
12718,82.0,1.0,120.0,10.0,0.0
12719,82.0,1.0,120.0,0.0,0.0
12720,70.0,1.0,120.0,1.0,0.0
12721,62.0,4.0,60.0,11.0,0.0
12722,58.0,0.0,120.0,4.0,0.0
12723,62.0,0.0,120.0,6.0,0.0
12724,70.0,2.0,120.0,6.0,0.0
12725,62.0,0.0,120.0,2.0,0.0
12726,65.0,1.0,15.0,2.0,0.0
12727,50.0,56.0,60.0,12.0,0.0
12728,50.0,5.0,120.0,5.0,0.0
12729,46.0,1.0,120.0,13.0,0.0
12730,46.0,1.0,120.0,3.0,0.0
12731,46.0,1.0,120.0,15.0,0.0
12732,34.0,38.0,120.0,14.0,0.0
12733,62.0,4.0,60.0,11.0,0.0
12734,50.0,4.0,60.0,12.0,0.0
12735,65.0,4.0,60.0,11.0,0.0
12736,53.0,56.0,60.0,12.0,0.0
12737,88.0,1.0,60.0,0.0,0.0
12738,64.0,10.0,60.0,1.0,0.0
12739,76.0,0.0,60.0,1.0,0.0
12740,65.0,4.0,60.0,11.0,0.0
12741,53.0,5.0,60.0,12.0,0.0
12742,52.0,40.0,60.0,3.0,0.0
12743,89.0,1.0,120.0,0.0,0.0
12744,77.0,0.0,120.0,1.0,0.0
12745,65.0,10.0,120.0,1.0,0.0
12746,70.0,4.0,60.0,11.0,0.0
12747,58.0,56.0,60.0,12.0,0.0
12748,53.0,40.0,120.0,3.0,0.0
12749,70.0,4.0,60.0,11.0,0.0
12750,58.0,5.0,60.0,12.0,0.0
12751,65.0,4.0,60.0,11.0,0.0
12752,53.0,54.0,60.0,12.0,0.0
12753,74.0,2.0,60.0,10.0,0.0
12754,65.0,4.0,60.0,11.0,0.0
12755,53.0,24.0,60.0,12.0,0.0
12756,75.0,20.0,20.0,10.0,0.0
12757,58.0,4.0,480.0,4.0,0.0
12758,62.0,4.0,60.0,11.0,0.0
12759,50.0,46.0,480.0,5.0,0.0
12760,50.0,4.0,60.0,12.0,0.0
12761,46.0,3.0,120.0,13.0,0.0
12762,34.0,6.0,120.0,14.0,0.0
12763,74.0,12.0,20.0,10.0,0.0
12764,75.0,20.0,20.0,10.0,0.0
12765,74.0,20.0,20.0,10.0,0.0
12766,62.0,4.0,60.0,11.0,0.0
12767,50.0,4.0,60.0,12.0,0.0
12768,75.0,12.0,20.0,10.0,0.0
12769,74.0,11.0,20.0,10.0,0.0
12770,75.0,20.0,20.0,10.0,0.0
12771,65.0,4.0,60.0,11.0,0.0
12772,53.0,4.0,60.0,12.0,0.0
12773,74.0,12.0,20.0,10.0,0.0
12774,75.0,30.0,20.0,10.0,0.0
12775,72.0,22.0,30.0,10.0,0.0
12776,65.0,4.0,60.0,11.0,0.0
12777,53.0,4.0,60.0,12.0,0.0
12778,74.0,52.0,30.0,10.0,0.0
12779,77.0,52.0,60.0,10.0,0.0
12780,70.0,4.0,60.0,11.0,0.0
12781,58.0,4.0,60.0,12.0,0.0
12782,70.0,4.0,60.0,11.0,0.0
12783,58.0,56.0,60.0,12.0,0.0
12784,70.0,52.0,60.0,10.0,0.0
12785,62.0,4.0,60.0,11.0,0.0
12786,50.0,4.0,60.0,12.0,0.0
12787,62.0,4.0,60.0,11.0,0.0
12788,50.0,6.0,60.0,12.0,0.0
12789,69.0,2.0,120.0,10.0,0.0
12790,63.0,4.0,60.0,11.0,0.0
12791,60.0,4.0,120.0,4.0,0.0
12792,53.0,5.0,120.0,5.0,0.0
12793,51.0,56.0,60.0,12.0,0.0
12794,41.0,3.0,120.0,13.0,0.0
12795,29.0,38.0,120.0,14.0,0.0
12796,63.0,4.0,60.0,11.0,0.0
12797,51.0,4.0,60.0,12.0,0.0
12798,65.0,4.0,60.0,11.0,0.0
12799,53.0,56.0,60.0,12.0,0.0
12800,88.0,1.0,60.0,0.0,0.0
12801,65.0,4.0,60.0,11.0,0.0
12802,76.0,0.0,60.0,1.0,0.0
12803,64.0,10.0,60.0,1.0,0.0
12804,53.0,5.0,60.0,12.0,0.0
12805,52.0,40.0,60.0,3.0,0.0
12806,89.0,1.0,120.0,0.0,0.0
12807,72.0,4.0,60.0,11.0,0.0
12808,77.0,0.0,120.0,1.0,0.0
12809,65.0,10.0,120.0,1.0,0.0
12810,60.0,56.0,60.0,12.0,0.0
12811,53.0,40.0,120.0,3.0,0.0
12812,72.0,4.0,60.0,11.0,0.0
12813,60.0,5.0,60.0,12.0,0.0
12814,65.0,4.0,60.0,11.0,0.0
12815,53.0,54.0,60.0,12.0,0.0
12816,69.0,2.0,60.0,10.0,0.0
12817,65.0,4.0,60.0,11.0,0.0
12818,53.0,24.0,60.0,12.0,0.0
12819,70.0,20.0,20.0,10.0,0.0
12820,63.0,4.0,60.0,11.0,0.0
12821,60.0,4.0,480.0,4.0,0.0
12822,53.0,46.0,480.0,5.0,0.0
12823,51.0,4.0,60.0,12.0,0.0
12824,41.0,3.0,120.0,13.0,0.0
12825,29.0,6.0,120.0,14.0,0.0
12826,69.0,12.0,20.0,10.0,0.0
12827,70.0,20.0,20.0,10.0,0.0
12828,69.0,20.0,20.0,10.0,0.0
12829,63.0,4.0,60.0,11.0,0.0
12830,51.0,4.0,60.0,12.0,0.0
12831,70.0,12.0,20.0,10.0,0.0
12832,69.0,11.0,20.0,10.0,0.0
12833,70.0,20.0,20.0,10.0,0.0
12834,72.0,4.0,60.0,11.0,0.0
12835,60.0,4.0,60.0,12.0,0.0
12836,69.0,12.0,20.0,10.0,0.0
12837,70.0,30.0,20.0,10.0,0.0
12838,67.0,22.0,30.0,10.0,0.0
12839,72.0,4.0,60.0,11.0,0.0
12840,60.0,4.0,60.0,12.0,0.0
12841,69.0,52.0,30.0,10.0,0.0
12842,72.0,52.0,60.0,10.0,0.0
12843,65.0,4.0,60.0,11.0,0.0
12844,53.0,4.0,60.0,12.0,0.0
12845,65.0,4.0,60.0,11.0,0.0
12846,53.0,56.0,60.0,12.0,0.0
12847,65.0,52.0,60.0,10.0,0.0
12848,63.0,4.0,60.0,11.0,0.0
12849,51.0,4.0,60.0,12.0,0.0
12850,63.0,4.0,60.0,11.0,0.0
12851,51.0,6.0,60.0,12.0,0.0
12852,70.0,2.0,120.0,10.0,0.0
12853,58.0,4.0,120.0,4.0,0.0
12854,62.0,4.0,60.0,11.0,0.0
12855,50.0,56.0,60.0,12.0,0.0
12856,50.0,5.0,120.0,5.0,0.0
12857,46.0,3.0,120.0,13.0,0.0
12858,34.0,38.0,120.0,14.0,0.0
12859,62.0,4.0,60.0,11.0,0.0
12860,50.0,4.0,60.0,12.0,0.0
12861,65.0,4.0,60.0,11.0,0.0
12862,53.0,56.0,60.0,12.0,0.0
12863,88.0,1.0,60.0,0.0,0.0
12864,65.0,4.0,60.0,11.0,0.0
12865,64.0,10.0,60.0,1.0,0.0
12866,76.0,0.0,60.0,1.0,0.0
12867,53.0,5.0,60.0,12.0,0.0
12868,52.0,40.0,60.0,3.0,0.0
12869,89.0,1.0,120.0,0.0,0.0
12870,70.0,4.0,60.0,11.0,0.0
12871,65.0,0.0,120.0,1.0,0.0
12872,77.0,10.0,120.0,1.0,0.0
12873,58.0,56.0,60.0,12.0,0.0
12874,53.0,40.0,120.0,3.0,0.0
12875,70.0,4.0,60.0,11.0,0.0
12876,58.0,5.0,60.0,12.0,0.0
12877,65.0,4.0,60.0,11.0,0.0
12878,53.0,54.0,60.0,12.0,0.0
12879,74.0,2.0,60.0,10.0,0.0
12880,65.0,4.0,60.0,11.0,0.0
12881,53.0,24.0,60.0,12.0,0.0
12882,75.0,20.0,20.0,10.0,0.0
12883,62.0,4.0,60.0,11.0,0.0
12884,58.0,4.0,480.0,4.0,0.0
12885,50.0,4.0,60.0,12.0,0.0
12886,50.0,46.0,480.0,5.0,0.0
12887,46.0,3.0,120.0,13.0,0.0
12888,34.0,6.0,120.0,14.0,0.0
12889,74.0,12.0,20.0,10.0,0.0
12890,75.0,20.0,20.0,10.0,0.0
12891,74.0,20.0,20.0,10.0,0.0
12892,62.0,4.0,60.0,11.0,0.0
12893,50.0,4.0,60.0,12.0,0.0
12894,75.0,12.0,20.0,10.0,0.0
12895,74.0,11.0,20.0,10.0,0.0
12896,75.0,20.0,20.0,10.0,0.0
12897,65.0,4.0,60.0,11.0,0.0
12898,53.0,4.0,60.0,12.0,0.0
12899,74.0,12.0,20.0,10.0,0.0
12900,75.0,30.0,20.0,10.0,0.0
12901,72.0,22.0,30.0,10.0,0.0
12902,65.0,4.0,60.0,11.0,0.0
12903,53.0,4.0,60.0,12.0,0.0
12904,74.0,52.0,30.0,10.0,0.0
12905,77.0,52.0,60.0,10.0,0.0
12906,70.0,4.0,60.0,11.0,0.0
12907,58.0,4.0,60.0,12.0,0.0
12908,70.0,4.0,60.0,11.0,0.0
12909,58.0,56.0,60.0,12.0,0.0
12910,70.0,52.0,60.0,10.0,0.0
12911,65.0,4.0,60.0,11.0,0.0
12912,53.0,4.0,60.0,12.0,0.0
12913,65.0,4.0,60.0,11.0,0.0
12914,53.0,6.0,60.0,12.0,0.0
12915,69.0,2.0,120.0,10.0,0.0
12916,63.0,4.0,60.0,11.0,0.0
12917,60.0,4.0,120.0,4.0,0.0
12918,53.0,5.0,120.0,5.0,0.0
12919,51.0,56.0,60.0,12.0,0.0
12920,41.0,3.0,120.0,13.0,0.0
12921,29.0,38.0,120.0,14.0,0.0
12922,63.0,4.0,60.0,11.0,0.0
12923,51.0,4.0,60.0,12.0,0.0
12924,65.0,4.0,60.0,11.0,0.0
12925,53.0,56.0,60.0,12.0,0.0
12926,88.0,1.0,60.0,0.0,0.0
12927,65.0,4.0,60.0,11.0,0.0
12928,76.0,10.0,60.0,1.0,0.0
12929,64.0,0.0,60.0,1.0,0.0
12930,53.0,5.0,60.0,12.0,0.0
12931,52.0,40.0,60.0,3.0,0.0
12932,89.0,1.0,120.0,0.0,0.0
12933,65.0,0.0,120.0,1.0,0.0
12934,77.0,10.0,120.0,1.0,0.0
12935,72.0,4.0,60.0,11.0,0.0
12936,60.0,56.0,60.0,12.0,0.0
12937,53.0,40.0,120.0,3.0,0.0
12938,72.0,4.0,60.0,11.0,0.0
12939,60.0,5.0,60.0,12.0,0.0
12940,65.0,4.0,60.0,11.0,0.0
12941,53.0,54.0,60.0,12.0,0.0
12942,69.0,2.0,60.0,10.0,0.0
12943,65.0,4.0,60.0,11.0,0.0
12944,53.0,24.0,60.0,12.0,0.0
12945,70.0,20.0,20.0,10.0,0.0
12946,60.0,4.0,480.0,4.0,0.0
12947,63.0,4.0,60.0,11.0,0.0
12948,53.0,6.0,480.0,5.0,0.0
12949,51.0,4.0,60.0,12.0,0.0
12950,41.0,3.0,120.0,13.0,0.0
12951,29.0,6.0,120.0,14.0,0.0
12952,69.0,12.0,20.0,10.0,0.0
12953,70.0,20.0,20.0,10.0,0.0
12954,69.0,20.0,20.0,10.0,0.0
12955,63.0,4.0,60.0,11.0,0.0
12956,51.0,4.0,60.0,12.0,0.0
12957,70.0,12.0,20.0,10.0,0.0
12958,69.0,11.0,20.0,10.0,0.0
12959,70.0,20.0,20.0,10.0,0.0
12960,72.0,4.0,60.0,11.0,0.0
12961,60.0,4.0,60.0,12.0,0.0
12962,69.0,12.0,20.0,10.0,0.0
12963,70.0,30.0,20.0,10.0,0.0
12964,67.0,22.0,30.0,10.0,0.0
12965,72.0,4.0,60.0,11.0,0.0
12966,60.0,4.0,60.0,12.0,0.0
12967,69.0,52.0,30.0,10.0,0.0
12968,72.0,52.0,60.0,10.0,0.0
12969,65.0,4.0,60.0,11.0,0.0
12970,53.0,4.0,60.0,12.0,0.0
12971,65.0,4.0,60.0,11.0,0.0
12972,53.0,56.0,60.0,12.0,0.0
12973,65.0,52.0,60.0,10.0,0.0
12974,63.0,4.0,60.0,11.0,0.0
12975,51.0,4.0,60.0,12.0,0.0
12976,88.0,1.0,60.0,0.0,0.0
12977,76.0,0.0,60.0,1.0,0.0
12978,64.0,0.0,60.0,1.0,0.0
12979,63.0,4.0,60.0,11.0,0.0
12980,51.0,5.0,60.0,12.0,0.0
12981,52.0,40.0,60.0,3.0,0.0
12982,70.0,52.0,60.0,10.0,0.0
12983,89.0,1.0,120.0,0.0,0.0
12984,58.0,0.0,120.0,4.0,0.0
12985,65.0,4.0,120.0,1.0,0.0
12986,77.0,0.0,120.0,1.0,0.0
12987,62.0,4.0,60.0,11.0,0.0
12988,50.0,4.0,60.0,12.0,0.0
12989,50.0,5.0,120.0,5.0,0.0
12990,46.0,1.0,120.0,13.0,0.0
12991,53.0,2.0,120.0,3.0,0.0
12992,34.0,6.0,120.0,14.0,0.0
12993,62.0,4.0,60.0,11.0,0.0
12994,50.0,5.0,60.0,12.0,0.0
12995,75.0,20.0,20.0,10.0,0.0
12996,70.0,4.0,60.0,11.0,0.0
12997,58.0,4.0,60.0,12.0,0.0
12998,74.0,12.0,20.0,10.0,0.0
12999,75.0,20.0,20.0,10.0,0.0
13000,74.0,20.0,20.0,10.0,0.0
13001,70.0,4.0,60.0,11.0,0.0
13002,58.0,4.0,60.0,12.0,0.0
13003,75.0,12.0,20.0,10.0,0.0
13004,74.0,52.0,20.0,10.0,0.0
13005,77.0,52.0,60.0,10.0,0.0
13006,65.0,4.0,60.0,11.0,0.0
13007,53.0,4.0,60.0,12.0,0.0
13008,65.0,4.0,60.0,11.0,0.0
13009,53.0,56.0,60.0,12.0,0.0
13010,70.0,52.0,60.0,10.0,0.0
13011,62.0,4.0,60.0,11.0,0.0
13012,50.0,4.0,60.0,12.0,0.0
13013,88.0,1.0,60.0,0.0,0.0
13014,64.0,10.0,60.0,1.0,0.0
13015,62.0,4.0,60.0,11.0,0.0
13016,76.0,0.0,60.0,1.0,0.0
13017,50.0,5.0,60.0,12.0,0.0
13018,52.0,40.0,60.0,3.0,0.0
13019,89.0,1.0,120.0,0.0,0.0
13020,65.0,4.0,120.0,1.0,0.0
13021,60.0,0.0,120.0,4.0,0.0
13022,77.0,0.0,120.0,1.0,0.0
13023,63.0,4.0,60.0,11.0,0.0
13024,53.0,5.0,120.0,5.0,0.0
13025,51.0,56.0,60.0,12.0,0.0
13026,41.0,1.0,120.0,13.0,0.0
13027,53.0,2.0,120.0,3.0,0.0
13028,29.0,6.0,120.0,14.0,0.0
13029,63.0,4.0,60.0,11.0,0.0
13030,51.0,5.0,60.0,12.0,0.0
13031,70.0,20.0,20.0,10.0,0.0
13032,72.0,4.0,60.0,11.0,0.0
13033,60.0,4.0,60.0,12.0,0.0
13034,69.0,12.0,20.0,10.0,0.0
13035,70.0,20.0,20.0,10.0,0.0
13036,69.0,20.0,20.0,10.0,0.0
13037,72.0,4.0,60.0,11.0,0.0
13038,60.0,4.0,60.0,12.0,0.0
13039,70.0,12.0,20.0,10.0,0.0
13040,69.0,52.0,20.0,10.0,0.0
13041,72.0,52.0,60.0,10.0,0.0
13042,65.0,4.0,60.0,11.0,0.0
13043,53.0,4.0,60.0,12.0,0.0
13044,65.0,4.0,60.0,11.0,0.0
13045,53.0,56.0,60.0,12.0,0.0
13046,65.0,52.0,60.0,10.0,0.0
13047,63.0,4.0,60.0,11.0,0.0
13048,51.0,4.0,60.0,12.0,0.0
13049,88.0,1.0,60.0,0.0,0.0
13050,76.0,10.0,60.0,1.0,0.0
13051,63.0,4.0,60.0,11.0,0.0
13052,64.0,0.0,60.0,1.0,0.0
13053,51.0,5.0,60.0,12.0,0.0
13054,52.0,40.0,60.0,3.0,0.0
13055,89.0,1.0,120.0,0.0,0.0
13056,58.0,0.0,120.0,4.0,0.0
13057,62.0,4.0,60.0,11.0,0.0
13058,77.0,0.0,120.0,1.0,0.0
13059,65.0,4.0,120.0,1.0,0.0
13060,50.0,5.0,120.0,5.0,0.0
13061,50.0,56.0,60.0,12.0,0.0
13062,46.0,1.0,120.0,13.0,0.0
13063,53.0,2.0,120.0,3.0,0.0
13064,34.0,6.0,120.0,14.0,0.0
13065,62.0,4.0,60.0,11.0,0.0
13066,50.0,5.0,60.0,12.0,0.0
13067,75.0,20.0,20.0,10.0,0.0
13068,70.0,4.0,60.0,11.0,0.0
13069,58.0,4.0,60.0,12.0,0.0
13070,74.0,12.0,20.0,10.0,0.0
13071,75.0,20.0,20.0,10.0,0.0
13072,74.0,20.0,20.0,10.0,0.0
13073,70.0,4.0,60.0,11.0,0.0
13074,58.0,4.0,60.0,12.0,0.0
13075,75.0,12.0,20.0,10.0,0.0
13076,74.0,52.0,20.0,10.0,0.0
13077,77.0,52.0,60.0,10.0,0.0
13078,65.0,4.0,60.0,11.0,0.0
13079,53.0,4.0,60.0,12.0,0.0
13080,65.0,4.0,60.0,11.0,0.0
13081,53.0,56.0,60.0,12.0,0.0
13082,70.0,52.0,60.0,10.0,0.0
13083,62.0,4.0,60.0,11.0,0.0
13084,50.0,4.0,60.0,12.0,0.0
13085,88.0,1.0,60.0,0.0,0.0
13086,64.0,0.0,60.0,1.0,0.0
13087,76.0,10.0,60.0,1.0,0.0
13088,62.0,4.0,60.0,11.0,0.0
13089,50.0,5.0,60.0,12.0,0.0
13090,52.0,40.0,60.0,3.0,0.0
13091,89.0,1.0,120.0,0.0,0.0
13092,77.0,0.0,120.0,1.0,0.0
13093,65.0,0.0,120.0,1.0,0.0
13094,63.0,4.0,60.0,11.0,0.0
13095,60.0,4.0,120.0,4.0,0.0
13096,53.0,5.0,120.0,5.0,0.0
13097,51.0,56.0,60.0,12.0,0.0
13098,41.0,1.0,120.0,13.0,0.0
13099,53.0,2.0,120.0,3.0,0.0
13100,29.0,6.0,120.0,14.0,0.0
13101,63.0,4.0,60.0,11.0,0.0
13102,51.0,5.0,60.0,12.0,0.0
13103,70.0,20.0,20.0,10.0,0.0
13104,72.0,4.0,60.0,11.0,0.0
13105,60.0,4.0,60.0,12.0,0.0
13106,69.0,12.0,20.0,10.0,0.0
13107,70.0,20.0,20.0,10.0,0.0
13108,69.0,20.0,20.0,10.0,0.0
13109,72.0,4.0,60.0,11.0,0.0
13110,60.0,4.0,60.0,12.0,0.0
13111,70.0,12.0,20.0,10.0,0.0
13112,69.0,52.0,20.0,10.0,0.0
13113,72.0,52.0,60.0,10.0,0.0
13114,65.0,4.0,60.0,11.0,0.0
13115,53.0,4.0,60.0,12.0,0.0
13116,65.0,4.0,60.0,11.0,0.0
13117,53.0,56.0,60.0,12.0,0.0
13118,65.0,52.0,60.0,10.0,0.0
13119,63.0,4.0,60.0,11.0,0.0
13120,51.0,4.0,60.0,12.0,0.0
13121,63.0,4.0,60.0,11.0,0.0
13122,51.0,124.0,60.0,12.0,0.0
13123,70.0,1.0,120.0,10.0,0.0
13124,74.0,0.0,120.0,0.0,0.0
13125,82.0,1.0,120.0,0.0,0.0
13126,58.0,4.0,120.0,4.0,0.0
13127,70.0,0.0,120.0,1.0,0.0
13128,50.0,5.0,120.0,5.0,0.0
13129,50.0,0.0,120.0,12.0,0.0
13130,46.0,1.0,120.0,13.0,0.0
13131,46.0,0.0,120.0,3.0,0.0
13132,58.0,2.0,120.0,3.0,0.0
13133,34.0,786.0,120.0,14.0,0.0
13134,62.0,0.0,690.0,10.0,0.0
13135,74.0,1.0,690.0,0.0,0.0
13136,62.0,0.0,690.0,1.0,0.0
13137,74.0,1.0,690.0,1.0,0.0
13138,62.0,0.0,690.0,4.0,0.0
13139,62.0,0.0,690.0,11.0,0.0
13140,62.0,2.0,690.0,6.0,0.0
13141,62.0,1.0,690.0,2.0,0.0
13142,50.0,0.0,660.0,12.0,0.0
13143,50.0,130.0,690.0,5.0,0.0
13144,38.0,1.0,660.0,13.0,0.0
13145,50.0,0.0,660.0,3.0,0.0
13146,38.0,0.0,660.0,3.0,0.0
13147,26.0,0.0,660.0,14.0,0.0
13148,62.0,2.0,90.0,10.0,0.0
13149,57.0,4.0,90.0,11.0,0.0
13150,62.0,4.0,1080.0,4.0,0.0
13151,50.0,92.0,1080.0,5.0,0.0
13152,54.0,5.0,90.0,12.0,0.0
13153,50.0,3.0,90.0,13.0,0.0
13154,38.0,106.0,90.0,14.0,0.0
13155,62.0,2.0,90.0,10.0,0.0
13156,57.0,4.0,90.0,11.0,0.0
13157,54.0,125.0,90.0,12.0,0.0
13158,48.0,3.0,90.0,13.0,0.0
13159,36.0,106.0,90.0,14.0,0.0
13160,62.0,2.0,90.0,10.0,0.0
13161,57.0,4.0,90.0,11.0,0.0
13162,54.0,125.0,90.0,12.0,0.0
13163,46.0,3.0,90.0,13.0,0.0
13164,34.0,106.0,90.0,14.0,0.0
13165,62.0,2.0,90.0,10.0,0.0
13166,58.0,4.0,90.0,11.0,0.0
13167,55.0,125.0,90.0,12.0,0.0
13168,45.0,3.0,90.0,13.0,0.0
13169,33.0,106.0,90.0,14.0,0.0
13170,62.0,2.0,90.0,10.0,0.0
13171,60.0,4.0,90.0,11.0,0.0
13172,54.0,114.0,90.0,12.0,0.0
13173,62.0,6.0,90.0,10.0,0.0
13174,55.0,5.0,90.0,12.0,0.0
13175,43.0,3.0,90.0,13.0,0.0
13176,31.0,12.0,90.0,14.0,0.0
13177,58.0,22.0,90.0,11.0,0.0
13178,73.0,120.0,60.0,10.0,0.0
13179,74.0,696.0,120.0,10.0,0.0
13180,63.0,2.0,90.0,10.0,0.0
13181,75.0,118.0,1080.0,1.0,0.0
13182,58.0,4.0,90.0,11.0,0.0
13183,55.0,5.0,90.0,12.0,0.0
13184,51.0,3.0,90.0,13.0,0.0
13185,39.0,106.0,90.0,14.0,0.0
13186,63.0,2.0,90.0,10.0,0.0
13187,58.0,4.0,90.0,11.0,0.0
13188,55.0,125.0,90.0,12.0,0.0
13189,50.0,3.0,90.0,13.0,0.0
13190,38.0,106.0,90.0,14.0,0.0
13191,63.0,2.0,90.0,10.0,0.0
13192,58.0,4.0,90.0,11.0,0.0
13193,55.0,125.0,90.0,12.0,0.0
13194,48.0,3.0,90.0,13.0,0.0
13195,36.0,106.0,90.0,14.0,0.0
13196,63.0,2.0,90.0,10.0,0.0
13197,57.0,4.0,90.0,11.0,0.0
13198,54.0,125.0,90.0,12.0,0.0
13199,46.0,3.0,90.0,13.0,0.0
13200,34.0,106.0,90.0,14.0,0.0
13201,63.0,2.0,90.0,10.0,0.0
13202,58.0,4.0,90.0,11.0,0.0
13203,54.0,114.0,90.0,12.0,0.0
13204,63.0,2.0,90.0,10.0,0.0
13205,60.0,4.0,90.0,11.0,0.0
13206,53.0,5.0,90.0,12.0,0.0
13207,45.0,3.0,90.0,13.0,0.0
13208,33.0,12.0,90.0,14.0,0.0
13209,74.0,120.0,60.0,10.0,0.0
13210,75.0,600.0,120.0,10.0,0.0
13211,69.0,1.0,60.0,10.0,0.0
13212,81.0,1.0,60.0,0.0,0.0
13213,69.0,0.0,60.0,1.0,0.0
13214,57.0,3.0,60.0,11.0,0.0
13215,69.0,1.0,60.0,2.0,0.0
13216,57.0,0.0,60.0,2.0,0.0
13217,57.0,5.0,60.0,12.0,0.0
13218,45.0,1.0,60.0,13.0,0.0
13219,45.0,2.0,60.0,3.0,0.0
13220,57.0,0.0,60.0,3.0,0.0
13221,33.0,46.0,60.0,14.0,0.0
13222,58.0,1.0,60.0,10.0,0.0
13223,70.0,0.0,60.0,10.0,0.0
13224,82.0,1.0,60.0,0.0,0.0
13225,58.0,3.0,60.0,11.0,0.0
13226,70.0,0.0,60.0,1.0,0.0
13227,58.0,1.0,120.0,4.0,0.0
13228,70.0,0.0,120.0,6.0,0.0
13229,58.0,3.0,120.0,6.0,0.0
13230,70.0,0.0,60.0,2.0,0.0
13231,58.0,1.0,60.0,2.0,0.0
13232,46.0,7.0,120.0,5.0,0.0
13233,58.0,5.0,60.0,12.0,0.0
13234,46.0,1.0,60.0,13.0,0.0
13235,58.0,0.0,60.0,3.0,0.0
13236,46.0,2.0,60.0,3.0,0.0
13237,46.0,37.0,120.0,15.0,0.0
13238,34.0,48.0,60.0,14.0,0.0
13239,62.0,2.0,60.0,10.0,0.0
13240,62.0,28.0,60.0,11.0,0.0
13241,63.0,12.0,20.0,10.0,0.0
13242,63.0,8.0,30.0,11.0,0.0
13243,62.0,20.0,20.0,10.0,0.0
13244,62.0,18.0,30.0,11.0,0.0
13245,63.0,2.0,20.0,10.0,0.0
13246,62.0,12.0,20.0,10.0,0.0
13247,63.0,8.0,30.0,11.0,0.0
13248,63.0,20.0,20.0,10.0,0.0
13249,62.0,18.0,30.0,11.0,0.0
13250,62.0,2.0,20.0,10.0,0.0
13251,63.0,12.0,20.0,10.0,0.0
13252,63.0,8.0,30.0,11.0,0.0
13253,62.0,20.0,20.0,10.0,0.0
13254,62.0,18.0,30.0,11.0,0.0
13255,63.0,2.0,20.0,10.0,0.0
13256,62.0,12.0,20.0,10.0,0.0
13257,63.0,8.0,30.0,11.0,0.0
13258,63.0,20.0,20.0,10.0,0.0
13259,62.0,28.0,30.0,11.0,0.0
13260,62.0,2.0,20.0,10.0,0.0
13261,60.0,2.0,30.0,10.0,0.0
13262,60.0,28.0,30.0,11.0,0.0
13263,62.0,2.0,30.0,10.0,0.0
13264,62.0,58.0,30.0,11.0,0.0
13265,65.0,2.0,60.0,10.0,0.0
13266,65.0,118.0,60.0,11.0,0.0
13267,58.0,2.0,60.0,10.0,0.0
13268,58.0,298.0,60.0,11.0,0.0
13269,69.0,1.0,60.0,10.0,0.0
13270,81.0,1.0,60.0,0.0,0.0
13271,57.0,0.0,60.0,11.0,0.0
13272,69.0,3.0,60.0,1.0,0.0
13273,57.0,0.0,60.0,2.0,0.0
13274,69.0,1.0,60.0,2.0,0.0
13275,57.0,5.0,60.0,12.0,0.0
13276,45.0,1.0,60.0,13.0,0.0
13277,45.0,2.0,60.0,3.0,0.0
13278,57.0,0.0,60.0,3.0,0.0
13279,33.0,46.0,60.0,14.0,0.0
13280,58.0,0.0,60.0,10.0,0.0
13281,70.0,1.0,60.0,10.0,0.0
13282,82.0,1.0,60.0,0.0,0.0
13283,58.0,1.0,120.0,4.0,0.0
13284,58.0,0.0,60.0,11.0,0.0
13285,70.0,3.0,60.0,1.0,0.0
13286,58.0,0.0,120.0,6.0,0.0
13287,70.0,3.0,120.0,6.0,0.0
13288,58.0,1.0,60.0,2.0,0.0
13289,70.0,0.0,60.0,2.0,0.0
13290,46.0,7.0,120.0,5.0,0.0
13291,58.0,5.0,60.0,12.0,0.0
13292,46.0,1.0,60.0,13.0,0.0
13293,58.0,0.0,60.0,3.0,0.0
13294,46.0,2.0,60.0,3.0,0.0
13295,46.0,37.0,120.0,15.0,0.0
13296,34.0,48.0,60.0,14.0,0.0
13297,65.0,2.0,60.0,10.0,0.0
13298,65.0,28.0,60.0,11.0,0.0
13299,67.0,12.0,20.0,10.0,0.0
13300,67.0,8.0,30.0,11.0,0.0
13301,65.0,20.0,20.0,10.0,0.0
13302,65.0,18.0,30.0,11.0,0.0
13303,67.0,2.0,20.0,10.0,0.0
13304,65.0,12.0,20.0,10.0,0.0
13305,67.0,8.0,30.0,11.0,0.0
13306,67.0,20.0,20.0,10.0,0.0
13307,65.0,18.0,30.0,11.0,0.0
13308,65.0,2.0,20.0,10.0,0.0
13309,67.0,12.0,20.0,10.0,0.0
13310,67.0,8.0,30.0,11.0,0.0
13311,65.0,20.0,20.0,10.0,0.0
13312,65.0,18.0,30.0,11.0,0.0
13313,67.0,2.0,20.0,10.0,0.0
13314,65.0,12.0,20.0,10.0,0.0
13315,67.0,8.0,30.0,11.0,0.0
13316,67.0,20.0,20.0,10.0,0.0
13317,65.0,28.0,30.0,11.0,0.0
13318,65.0,2.0,20.0,10.0,0.0
13319,64.0,2.0,30.0,10.0,0.0
13320,64.0,28.0,30.0,11.0,0.0
13321,65.0,2.0,30.0,10.0,0.0
13322,65.0,58.0,30.0,11.0,0.0
13323,70.0,2.0,60.0,10.0,0.0
13324,70.0,118.0,60.0,11.0,0.0
13325,62.0,2.0,60.0,10.0,0.0
13326,62.0,298.0,60.0,11.0,0.0
13327,69.0,1.0,60.0,10.0,0.0
13328,81.0,1.0,60.0,0.0,0.0
13329,57.0,3.0,60.0,11.0,0.0
13330,69.0,0.0,60.0,1.0,0.0
13331,69.0,0.0,60.0,2.0,0.0
13332,57.0,1.0,60.0,2.0,0.0
13333,57.0,5.0,60.0,12.0,0.0
13334,45.0,1.0,60.0,13.0,0.0
13335,57.0,2.0,60.0,3.0,0.0
13336,45.0,0.0,60.0,3.0,0.0
13337,33.0,47.0,60.0,14.0,0.0
13338,70.0,0.0,120.0,10.0,0.0
13339,58.0,2.0,120.0,10.0,0.0
13340,82.0,1.0,60.0,0.0,0.0
13341,58.0,4.0,120.0,11.0,0.0
13342,70.0,3.0,60.0,1.0,0.0
13343,58.0,1.0,120.0,4.0,0.0
13344,70.0,0.0,120.0,6.0,0.0
13345,58.0,1.0,120.0,6.0,0.0
13346,58.0,0.0,60.0,2.0,0.0
13347,70.0,7.0,60.0,2.0,0.0
13348,46.0,7.0,120.0,5.0,0.0
13349,58.0,5.0,120.0,12.0,0.0
13350,46.0,1.0,120.0,13.0,0.0
13351,58.0,0.0,60.0,3.0,0.0
13352,46.0,38.0,60.0,3.0,0.0
13353,46.0,47.0,120.0,15.0,0.0
13354,34.0,2.0,120.0,14.0,0.0
13355,70.0,2.0,60.0,10.0,0.0
13356,58.0,118.0,60.0,11.0,0.0
13357,74.0,2.0,60.0,10.0,0.0
13358,62.0,118.0,60.0,11.0,0.0
13359,65.0,2.0,60.0,10.0,0.0
13360,53.0,179.0,60.0,11.0,0.0
13361,82.0,1.0,120.0,0.0,0.0
13362,70.0,1.0,120.0,1.0,0.0
13363,58.0,0.0,120.0,4.0,0.0
13364,58.0,2.0,120.0,6.0,0.0
13365,70.0,0.0,120.0,6.0,0.0
13366,58.0,1.0,120.0,2.0,0.0
13367,70.0,0.0,120.0,2.0,0.0
13368,46.0,0.0,120.0,5.0,0.0
13369,58.0,5.0,120.0,12.0,0.0
13370,46.0,1.0,120.0,13.0,0.0
13371,46.0,0.0,120.0,3.0,0.0
13372,58.0,1.0,120.0,3.0,0.0
13373,46.0,1.0,120.0,15.0,0.0
13374,34.0,46.0,120.0,14.0,0.0
13375,74.0,2.0,60.0,10.0,0.0
13376,62.0,118.0,60.0,11.0,0.0
13377,77.0,2.0,60.0,10.0,0.0
13378,65.0,118.0,60.0,11.0,0.0
13379,70.0,2.0,60.0,10.0,0.0
13380,58.0,179.0,60.0,11.0,0.0
13381,82.0,1.0,120.0,0.0,0.0
13382,58.0,0.0,120.0,4.0,0.0
13383,70.0,1.0,120.0,1.0,0.0
13384,58.0,2.0,120.0,6.0,0.0
13385,70.0,0.0,120.0,6.0,0.0
13386,58.0,0.0,120.0,2.0,0.0
13387,70.0,1.0,120.0,2.0,0.0
13388,58.0,5.0,120.0,12.0,0.0
13389,46.0,0.0,120.0,5.0,0.0
13390,46.0,1.0,120.0,13.0,0.0
13391,58.0,0.0,120.0,3.0,0.0
13392,46.0,1.0,120.0,3.0,0.0
13393,46.0,1.0,120.0,15.0,0.0
13394,34.0,46.0,120.0,14.0,0.0
13395,77.0,2.0,60.0,10.0,0.0
13396,65.0,118.0,60.0,11.0,0.0
13397,82.0,2.0,60.0,10.0,0.0
13398,70.0,118.0,60.0,11.0,0.0
13399,77.0,1.0,60.0,10.0,0.0
13400,77.0,1.0,60.0,0.0,0.0
13401,65.0,1.0,60.0,1.0,0.0
13402,53.0,0.0,60.0,4.0,0.0
13403,65.0,0.0,60.0,11.0,0.0
13404,53.0,0.0,60.0,6.0,0.0
13405,65.0,2.0,60.0,6.0,0.0
13406,65.0,0.0,60.0,2.0,0.0
13407,53.0,1.0,60.0,2.0,0.0
13408,41.0,5.0,60.0,5.0,0.0
13409,53.0,0.0,60.0,12.0,0.0
13410,41.0,1.0,60.0,13.0,0.0
13411,53.0,0.0,60.0,3.0,0.0
13412,41.0,1.0,60.0,3.0,0.0
13413,41.0,1.0,60.0,15.0,0.0
13414,29.0,106.0,60.0,14.0,0.0
13415,82.0,1.0,60.0,10.0,0.0
13416,82.0,1.0,60.0,0.0,0.0
13417,70.0,1.0,60.0,1.0,0.0
13418,70.0,0.0,60.0,11.0,0.0
13419,58.0,0.0,60.0,4.0,0.0
13420,58.0,0.0,60.0,6.0,0.0
13421,70.0,2.0,60.0,6.0,0.0
13422,58.0,1.0,60.0,2.0,0.0
13423,70.0,0.0,60.0,2.0,0.0
13424,46.0,5.0,60.0,5.0,0.0
13425,58.0,0.0,60.0,12.0,0.0
13426,46.0,1.0,60.0,13.0,0.0
13427,46.0,0.0,60.0,3.0,0.0
13428,58.0,1.0,60.0,3.0,0.0
13429,46.0,1.0,60.0,15.0,0.0
13430,34.0,106.0,60.0,14.0,0.0
13431,77.0,1.0,60.0,10.0,0.0
13432,77.0,1.0,60.0,0.0,0.0
13433,65.0,0.0,60.0,1.0,0.0
13434,65.0,1.0,60.0,11.0,0.0
13435,53.0,0.0,60.0,4.0,0.0
13436,53.0,2.0,60.0,6.0,0.0
13437,65.0,0.0,60.0,6.0,0.0
13438,65.0,1.0,60.0,2.0,0.0
13439,53.0,0.0,60.0,2.0,0.0
13440,41.0,0.0,60.0,5.0,0.0
13441,53.0,5.0,60.0,12.0,0.0
13442,41.0,1.0,60.0,13.0,0.0
13443,53.0,1.0,60.0,3.0,0.0
13444,41.0,0.0,60.0,3.0,0.0
13445,41.0,1.0,60.0,15.0,0.0
13446,29.0,106.0,60.0,14.0,0.0
13447,82.0,1.0,60.0,10.0,0.0
13448,82.0,1.0,60.0,0.0,0.0
13449,70.0,0.0,60.0,1.0,0.0
13450,70.0,0.0,60.0,11.0,0.0
13451,58.0,1.0,60.0,4.0,0.0
13452,58.0,0.0,60.0,6.0,0.0
13453,70.0,2.0,60.0,6.0,0.0
13454,70.0,1.0,60.0,2.0,0.0
13455,58.0,0.0,60.0,2.0,0.0
13456,58.0,0.0,60.0,12.0,0.0
13457,46.0,5.0,60.0,5.0,0.0
13458,46.0,1.0,60.0,13.0,0.0
13459,58.0,0.0,60.0,3.0,0.0
13460,46.0,1.0,60.0,3.0,0.0
13461,46.0,1.0,60.0,15.0,0.0
13462,34.0,106.0,60.0,14.0,0.0
13463,77.0,1.0,60.0,10.0,0.0
13464,77.0,1.0,60.0,0.0,0.0
13465,53.0,0.0,60.0,4.0,0.0
13466,65.0,1.0,60.0,1.0,0.0
13467,65.0,0.0,60.0,11.0,0.0
13468,65.0,0.0,60.0,6.0,0.0
13469,53.0,2.0,60.0,6.0,0.0
13470,65.0,0.0,60.0,2.0,0.0
13471,53.0,1.0,60.0,2.0,0.0
13472,41.0,5.0,60.0,5.0,0.0
13473,53.0,0.0,60.0,12.0,0.0
13474,41.0,1.0,60.0,13.0,0.0
13475,41.0,0.0,60.0,3.0,0.0
13476,53.0,1.0,60.0,3.0,0.0
13477,41.0,1.0,60.0,15.0,0.0
13478,29.0,96.0,60.0,14.0,0.0
13479,82.0,2.0,60.0,10.0,0.0
13480,82.0,1.0,120.0,0.0,0.0
13481,70.0,4.0,60.0,11.0,0.0
13482,58.0,0.0,120.0,4.0,0.0
13483,70.0,1.0,120.0,1.0,0.0
13484,58.0,0.0,120.0,6.0,0.0
13485,70.0,1.0,120.0,6.0,0.0
13486,58.0,0.0,120.0,2.0,0.0
13487,70.0,1.0,120.0,2.0,0.0
13488,46.0,2.0,120.0,5.0,0.0
13489,58.0,15.0,60.0,12.0,0.0
13490,46.0,3.0,60.0,13.0,0.0
13491,46.0,0.0,120.0,3.0,0.0
13492,58.0,13.0,120.0,3.0,0.0
13493,46.0,37.0,120.0,15.0,0.0
13494,34.0,35.0,60.0,14.0,0.0
13495,82.0,0.0,60.0,10.0,0.0
13496,70.0,1.0,60.0,11.0,0.0
13497,58.0,4.0,60.0,12.0,0.0
13498,77.0,2.0,60.0,10.0,0.0
13499,81.0,0.0,120.0,0.0,0.0
13500,84.0,1.0,120.0,0.0,0.0
13501,69.0,0.0,120.0,1.0,0.0
13502,65.0,4.0,60.0,11.0,0.0
13503,60.0,0.0,120.0,4.0,0.0
13504,72.0,1.0,120.0,1.0,0.0
13505,65.0,1.0,120.0,6.0,0.0
13506,53.0,0.0,120.0,6.0,0.0
13507,69.0,1.0,120.0,2.0,0.0
13508,60.0,0.0,120.0,2.0,0.0
13509,53.0,2.0,120.0,5.0,0.0
13510,65.0,15.0,60.0,12.0,0.0
13511,53.0,3.0,60.0,13.0,0.0
13512,53.0,13.0,120.0,3.0,0.0
13513,41.0,37.0,120.0,15.0,0.0
13514,41.0,35.0,60.0,14.0,0.0
13515,77.0,0.0,60.0,10.0,0.0
13516,65.0,1.0,60.0,11.0,0.0
13517,65.0,4.0,60.0,12.0,0.0
13518,82.0,2.0,60.0,10.0,0.0
13519,82.0,0.0,120.0,0.0,0.0
13520,86.0,1.0,120.0,0.0,0.0
13521,62.0,0.0,120.0,4.0,0.0
13522,70.0,4.0,60.0,11.0,0.0
13523,70.0,0.0,120.0,1.0,0.0
13524,74.0,0.0,120.0,1.0,0.0
13525,58.0,1.0,120.0,6.0,0.0
13526,70.0,0.0,120.0,6.0,0.0
13527,70.0,0.0,120.0,2.0,0.0
13528,62.0,1.0,120.0,2.0,0.0
13529,58.0,2.0,120.0,5.0,0.0
13530,70.0,15.0,60.0,12.0,0.0
13531,58.0,3.0,60.0,13.0,0.0
13532,58.0,13.0,120.0,3.0,0.0
13533,46.0,37.0,120.0,15.0,0.0
13534,46.0,35.0,60.0,14.0,0.0
13535,82.0,1.0,60.0,10.0,0.0
13536,70.0,1.0,60.0,11.0,0.0
13537,70.0,4.0,60.0,12.0,0.0
13538,77.0,2.0,60.0,10.0,0.0
13539,84.0,1.0,120.0,0.0,0.0
13540,81.0,0.0,120.0,0.0,0.0
13541,65.0,4.0,60.0,11.0,0.0
13542,69.0,0.0,120.0,1.0,0.0
13543,72.0,0.0,120.0,1.0,0.0
13544,60.0,1.0,120.0,4.0,0.0
13545,53.0,1.0,120.0,6.0,0.0
13546,65.0,0.0,120.0,6.0,0.0
13547,60.0,1.0,120.0,2.0,0.0
13548,69.0,0.0,120.0,2.0,0.0
13549,65.0,15.0,60.0,12.0,0.0
13550,53.0,2.0,120.0,5.0,0.0
13551,53.0,3.0,60.0,13.0,0.0
13552,53.0,13.0,120.0,3.0,0.0
13553,41.0,37.0,120.0,15.0,0.0
13554,41.0,35.0,60.0,14.0,0.0
13555,77.0,0.0,60.0,10.0,0.0
13556,65.0,1.0,60.0,11.0,0.0
13557,65.0,4.0,60.0,12.0,0.0
13558,82.0,2.0,60.0,10.0,0.0
13559,86.0,1.0,120.0,0.0,0.0
13560,82.0,0.0,120.0,0.0,0.0
13561,74.0,0.0,120.0,1.0,0.0
13562,70.0,4.0,60.0,11.0,0.0
13563,70.0,0.0,120.0,1.0,0.0
13564,62.0,1.0,120.0,4.0,0.0
13565,70.0,1.0,120.0,6.0,0.0
13566,58.0,0.0,120.0,6.0,0.0
13567,62.0,0.0,120.0,2.0,0.0
13568,70.0,1.0,120.0,2.0,0.0
13569,58.0,2.0,120.0,5.0,0.0
13570,70.0,15.0,60.0,12.0,0.0
13571,58.0,3.0,60.0,13.0,0.0
13572,58.0,13.0,120.0,3.0,0.0
13573,46.0,37.0,120.0,15.0,0.0
13574,46.0,35.0,60.0,14.0,0.0
13575,82.0,0.0,60.0,10.0,0.0
13576,70.0,1.0,60.0,11.0,0.0
13577,70.0,4.0,60.0,12.0,0.0
13578,77.0,2.0,60.0,10.0,0.0
13579,84.0,1.0,120.0,0.0,0.0
13580,81.0,0.0,120.0,0.0,0.0
13581,65.0,4.0,60.0,11.0,0.0
13582,60.0,0.0,120.0,4.0,0.0
13583,72.0,0.0,120.0,1.0,0.0
13584,69.0,1.0,120.0,1.0,0.0
13585,65.0,1.0,120.0,6.0,0.0
13586,53.0,0.0,120.0,6.0,0.0
13587,60.0,0.0,120.0,2.0,0.0
13588,69.0,1.0,120.0,2.0,0.0
13589,53.0,2.0,120.0,5.0,0.0
13590,65.0,15.0,60.0,12.0,0.0
13591,53.0,3.0,60.0,13.0,0.0
13592,53.0,13.0,120.0,3.0,0.0
13593,41.0,37.0,120.0,15.0,0.0
13594,41.0,35.0,60.0,14.0,0.0
13595,77.0,0.0,60.0,10.0,0.0
13596,65.0,1.0,60.0,11.0,0.0
13597,65.0,4.0,60.0,12.0,0.0
13598,82.0,2.0,60.0,10.0,0.0
13599,86.0,1.0,120.0,0.0,0.0
13600,82.0,0.0,120.0,0.0,0.0
13601,70.0,0.0,120.0,1.0,0.0
13602,74.0,0.0,120.0,1.0,0.0
13603,62.0,0.0,120.0,4.0,0.0
13604,70.0,4.0,60.0,11.0,0.0
13605,70.0,1.0,120.0,6.0,0.0
13606,58.0,0.0,120.0,6.0,0.0
13607,62.0,1.0,120.0,2.0,0.0
13608,70.0,0.0,120.0,2.0,0.0
13609,58.0,2.0,120.0,5.0,0.0
13610,70.0,15.0,60.0,12.0,0.0
13611,58.0,3.0,60.0,13.0,0.0
13612,58.0,13.0,120.0,3.0,0.0
13613,46.0,37.0,120.0,15.0,0.0
13614,46.0,35.0,60.0,14.0,0.0
13615,82.0,1.0,60.0,10.0,0.0
13616,70.0,1.0,60.0,11.0,0.0
13617,70.0,4.0,60.0,12.0,0.0
13618,77.0,2.0,60.0,10.0,0.0
13619,84.0,0.0,120.0,0.0,0.0
13620,81.0,1.0,120.0,0.0,0.0
13621,65.0,4.0,60.0,11.0,0.0
13622,72.0,0.0,120.0,1.0,0.0
13623,69.0,0.0,120.0,1.0,0.0
13624,60.0,1.0,120.0,4.0,0.0
13625,65.0,1.0,120.0,6.0,0.0
13626,53.0,0.0,120.0,6.0,0.0
13627,69.0,0.0,120.0,2.0,0.0
13628,60.0,1.0,120.0,2.0,0.0
13629,53.0,2.0,120.0,5.0,0.0
13630,65.0,15.0,60.0,12.0,0.0
13631,53.0,3.0,60.0,13.0,0.0
13632,53.0,13.0,120.0,3.0,0.0
13633,41.0,47.0,120.0,15.0,0.0
13634,41.0,35.0,60.0,14.0,0.0
13635,77.0,0.0,60.0,10.0,0.0
13636,65.0,1.0,60.0,11.0,0.0
13637,65.0,4.0,60.0,12.0,0.0
13638,82.0,13.0,60.0,10.0,0.0
13639,86.0,1.0,120.0,0.0,0.0
13640,82.0,0.0,120.0,0.0,0.0
13641,70.0,0.0,120.0,1.0,0.0
13642,74.0,0.0,120.0,1.0,0.0
13643,58.0,1.0,120.0,4.0,0.0
13644,70.0,0.0,120.0,11.0,0.0
13645,58.0,2.0,120.0,6.0,0.0
13646,70.0,0.0,120.0,6.0,0.0
13647,70.0,0.0,120.0,2.0,0.0
13648,62.0,1.0,120.0,2.0,0.0
13649,50.0,0.0,120.0,5.0,0.0
13650,70.0,5.0,120.0,12.0,0.0
13651,58.0,1.0,120.0,13.0,0.0
13652,58.0,2.0,120.0,3.0,0.0
13653,46.0,48.0,60.0,15.0,0.0
13654,46.0,46.0,120.0,14.0,0.0
13655,81.0,60.0,60.0,10.0,0.0
13656,79.0,60.0,60.0,10.0,0.0
13657,77.0,60.0,60.0,10.0,0.0
13658,75.0,60.0,60.0,10.0,0.0
13659,74.0,60.0,60.0,10.0,0.0
13660,72.0,60.0,60.0,10.0,0.0
13661,70.0,1.0,60.0,10.0,0.0
13662,82.0,1.0,60.0,0.0,0.0
13663,70.0,3.0,60.0,11.0,0.0
13664,58.0,1.0,120.0,4.0,0.0
13665,70.0,0.0,60.0,1.0,0.0
13666,82.0,0.0,60.0,1.0,0.0
13667,58.0,3.0,120.0,6.0,0.0
13668,70.0,0.0,120.0,6.0,0.0
13669,70.0,1.0,60.0,2.0,0.0
13670,70.0,5.0,60.0,12.0,0.0
13671,46.0,7.0,120.0,5.0,0.0
13672,58.0,1.0,60.0,13.0,0.0
13673,58.0,2.0,60.0,3.0,0.0
13674,46.0,47.0,120.0,15.0,0.0
13675,46.0,48.0,60.0,14.0,0.0
13676,69.0,1.0,60.0,10.0,0.0
13677,81.0,1.0,60.0,0.0,0.0
13678,69.0,3.0,60.0,11.0,0.0
13679,81.0,0.0,60.0,1.0,0.0
13680,69.0,0.0,60.0,1.0,0.0
13681,69.0,1.0,60.0,2.0,0.0
13682,69.0,5.0,60.0,12.0,0.0
13683,57.0,1.0,60.0,13.0,0.0
13684,57.0,2.0,60.0,3.0,0.0
13685,45.0,46.0,60.0,14.0,0.0
13686,67.0,1.0,60.0,10.0,0.0
13687,79.0,1.0,60.0,0.0,0.0
13688,79.0,0.0,60.0,1.0,0.0
13689,67.0,0.0,60.0,1.0,0.0
13690,67.0,3.0,60.0,11.0,0.0
13691,67.0,1.0,60.0,2.0,0.0
13692,67.0,5.0,60.0,12.0,0.0
13693,55.0,1.0,60.0,13.0,0.0
13694,55.0,2.0,60.0,3.0,0.0
13695,43.0,46.0,60.0,14.0,0.0
13696,65.0,1.0,60.0,10.0,0.0
13697,77.0,1.0,60.0,0.0,0.0
13698,65.0,0.0,60.0,1.0,0.0
13699,65.0,0.0,60.0,11.0,0.0
13700,77.0,3.0,60.0,1.0,0.0
13701,65.0,1.0,60.0,2.0,0.0
13702,65.0,5.0,60.0,12.0,0.0
13703,53.0,1.0,60.0,13.0,0.0
13704,53.0,2.0,60.0,3.0,0.0
13705,41.0,46.0,60.0,14.0,0.0
13706,63.0,1.0,60.0,10.0,0.0
13707,75.0,1.0,60.0,0.0,0.0
13708,63.0,0.0,60.0,11.0,0.0
13709,75.0,3.0,60.0,1.0,0.0
13710,63.0,0.0,60.0,1.0,0.0
13711,63.0,1.0,60.0,2.0,0.0
13712,63.0,5.0,60.0,12.0,0.0
13713,51.0,1.0,60.0,13.0,0.0
13714,51.0,2.0,60.0,3.0,0.0
13715,39.0,46.0,60.0,14.0,0.0
13716,62.0,1.0,60.0,10.0,0.0
13717,74.0,1.0,60.0,0.0,0.0
13718,62.0,3.0,60.0,11.0,0.0
13719,62.0,0.0,60.0,1.0,0.0
13720,74.0,0.0,60.0,1.0,0.0
13721,62.0,1.0,60.0,2.0,0.0
13722,62.0,5.0,60.0,12.0,0.0
13723,50.0,1.0,60.0,13.0,0.0
13724,50.0,2.0,60.0,3.0,0.0
13725,38.0,36.0,60.0,14.0,0.0
13726,60.0,2.0,60.0,10.0,0.0
13727,72.0,1.0,60.0,0.0,0.0
13728,72.0,2.0,60.0,1.0,0.0
13729,60.0,4.0,60.0,11.0,0.0
13730,60.0,0.0,60.0,1.0,0.0
13731,60.0,7.0,60.0,2.0,0.0
13732,60.0,5.0,60.0,12.0,0.0
13733,48.0,0.0,60.0,13.0,0.0
13734,48.0,33.0,60.0,3.0,0.0
13735,36.0,1.0,60.0,14.0,0.0
13736,58.0,1.0,60.0,10.0,0.0
13737,70.0,1.0,60.0,0.0,0.0
13738,58.0,0.0,120.0,1.0,0.0
13739,58.0,3.0,60.0,11.0,0.0
13740,70.0,0.0,60.0,1.0,0.0
13741,58.0,1.0,240.0,4.0,0.0
13742,58.0,3.0,240.0,6.0,0.0
13743,58.0,1.0,60.0,2.0,0.0
13744,58.0,5.0,60.0,12.0,0.0
13745,46.0,4.0,240.0,5.0,0.0
13746,46.0,1.0,60.0,13.0,0.0
13747,46.0,2.0,60.0,3.0,0.0
13748,46.0,15.0,30.0,15.0,0.0
13749,34.0,11.0,60.0,14.0,0.0
13750,46.0,35.0,30.0,15.0,0.0
13751,57.0,1.0,60.0,10.0,0.0
13752,69.0,1.0,60.0,0.0,0.0
13753,69.0,3.0,60.0,1.0,0.0
13754,57.0,0.0,60.0,11.0,0.0
13755,57.0,1.0,60.0,2.0,0.0
13756,57.0,5.0,60.0,12.0,0.0
13757,45.0,1.0,60.0,13.0,0.0
13758,45.0,2.0,60.0,3.0,0.0
13759,33.0,31.0,60.0,14.0,0.0
13760,46.0,0.0,30.0,15.0,0.0
13761,58.0,1.0,60.0,10.0,0.0
13762,70.0,1.0,60.0,0.0,0.0
13763,58.0,0.0,60.0,11.0,0.0
13764,70.0,3.0,60.0,1.0,0.0
13765,58.0,1.0,60.0,2.0,0.0
13766,58.0,5.0,60.0,12.0,0.0
13767,46.0,1.0,60.0,13.0,0.0
13768,46.0,2.0,60.0,3.0,0.0
13769,46.0,15.0,30.0,15.0,0.0
13770,34.0,11.0,60.0,14.0,0.0
13771,46.0,27.0,30.0,15.0,0.0
13772,57.0,1.0,60.0,10.0,0.0
13773,69.0,1.0,60.0,0.0,0.0
13774,69.0,0.0,60.0,1.0,0.0
13775,57.0,3.0,60.0,11.0,0.0
13776,57.0,1.0,60.0,2.0,0.0
13777,57.0,5.0,60.0,12.0,0.0
13778,45.0,1.0,60.0,13.0,0.0
13779,45.0,2.0,60.0,3.0,0.0
13780,33.0,31.0,60.0,14.0,0.0
13781,46.0,0.0,30.0,15.0,0.0
13782,58.0,1.0,60.0,10.0,0.0
13783,70.0,1.0,60.0,0.0,0.0
13784,70.0,3.0,60.0,1.0,0.0
13785,58.0,0.0,60.0,11.0,0.0
13786,62.0,1.0,240.0,4.0,0.0
13787,62.0,3.0,240.0,6.0,0.0
13788,58.0,1.0,60.0,2.0,0.0
13789,58.0,5.0,60.0,12.0,0.0
13790,50.0,5.0,240.0,5.0,0.0
13791,46.0,1.0,60.0,13.0,0.0
13792,46.0,2.0,60.0,3.0,0.0
13793,46.0,15.0,30.0,15.0,0.0
13794,34.0,11.0,60.0,14.0,0.0
13795,46.0,35.0,30.0,15.0,0.0
13796,57.0,1.0,60.0,10.0,0.0
13797,69.0,1.0,60.0,0.0,0.0
13798,57.0,0.0,60.0,11.0,0.0
13799,69.0,3.0,60.0,1.0,0.0
13800,57.0,0.0,60.0,2.0,0.0
13801,57.0,5.0,60.0,12.0,0.0
13802,45.0,1.0,60.0,13.0,0.0
13803,45.0,2.0,60.0,3.0,0.0
13804,33.0,31.0,60.0,14.0,0.0
13805,46.0,1.0,30.0,15.0,0.0
13806,58.0,1.0,60.0,10.0,0.0
13807,70.0,1.0,60.0,0.0,0.0
13808,58.0,3.0,60.0,11.0,0.0
13809,70.0,0.0,60.0,1.0,0.0
13810,58.0,1.0,60.0,2.0,0.0
13811,58.0,5.0,60.0,12.0,0.0
13812,46.0,1.0,60.0,13.0,0.0
13813,46.0,2.0,60.0,3.0,0.0
13814,46.0,15.0,30.0,15.0,0.0
13815,34.0,11.0,60.0,14.0,0.0
13816,46.0,25.0,30.0,15.0,0.0
13817,57.0,2.0,60.0,10.0,0.0
13818,69.0,0.0,60.0,0.0,0.0
13819,57.0,0.0,60.0,11.0,0.0
13820,69.0,2.0,60.0,1.0,0.0
13821,57.0,0.0,60.0,2.0,0.0
13822,57.0,0.0,60.0,12.0,0.0
13823,45.0,1.0,60.0,13.0,0.0
13824,45.0,33.0,60.0,3.0,0.0
13825,33.0,1.0,60.0,14.0,0.0
13826,46.0,7.0,30.0,15.0,0.0
13827,58.0,1.0,60.0,10.0,0.0
13828,70.0,1.0,60.0,0.0,0.0
13829,65.0,1.0,240.0,4.0,0.0
13830,70.0,3.0,60.0,1.0,0.0
13831,58.0,0.0,60.0,11.0,0.0
13832,65.0,3.0,240.0,6.0,0.0
13833,58.0,1.0,60.0,2.0,0.0
13834,53.0,4.0,240.0,5.0,0.0
13835,58.0,5.0,60.0,12.0,0.0
13836,46.0,1.0,60.0,13.0,0.0
13837,46.0,2.0,60.0,3.0,0.0
13838,46.0,15.0,30.0,15.0,0.0
13839,34.0,11.0,60.0,14.0,0.0
13840,46.0,35.0,30.0,15.0,0.0
13841,57.0,1.0,60.0,10.0,0.0
13842,69.0,1.0,60.0,0.0,0.0
13843,69.0,3.0,60.0,1.0,0.0
13844,57.0,0.0,60.0,11.0,0.0
13845,57.0,1.0,60.0,2.0,0.0
13846,57.0,5.0,60.0,12.0,0.0
13847,45.0,1.0,60.0,13.0,0.0
13848,45.0,2.0,60.0,3.0,0.0
13849,33.0,31.0,60.0,14.0,0.0
13850,46.0,0.0,30.0,15.0,0.0
13851,58.0,1.0,60.0,10.0,0.0
13852,70.0,1.0,60.0,0.0,0.0
13853,58.0,0.0,60.0,11.0,0.0
13854,70.0,3.0,60.0,1.0,0.0
13855,58.0,1.0,60.0,2.0,0.0
13856,58.0,5.0,60.0,12.0,0.0
13857,46.0,1.0,60.0,13.0,0.0
13858,46.0,2.0,60.0,3.0,0.0
13859,46.0,15.0,30.0,15.0,0.0
13860,34.0,11.0,60.0,14.0,0.0
13861,46.0,27.0,30.0,15.0,0.0
13862,57.0,1.0,60.0,10.0,0.0
13863,69.0,1.0,60.0,0.0,0.0
13864,57.0,0.0,60.0,11.0,0.0
13865,69.0,3.0,60.0,1.0,0.0
13866,57.0,1.0,60.0,2.0,0.0
13867,57.0,5.0,60.0,12.0,0.0
13868,45.0,1.0,60.0,13.0,0.0
13869,45.0,2.0,60.0,3.0,0.0
13870,33.0,31.0,60.0,14.0,0.0
13871,46.0,0.0,30.0,15.0,0.0
13872,58.0,1.0,60.0,10.0,0.0
13873,70.0,1.0,60.0,0.0,0.0
13874,58.0,0.0,60.0,11.0,0.0
13875,70.0,3.0,60.0,1.0,0.0
13876,62.0,1.0,240.0,4.0,0.0
13877,62.0,3.0,240.0,6.0,0.0
13878,58.0,1.0,60.0,2.0,0.0
13879,58.0,5.0,60.0,12.0,0.0
13880,50.0,5.0,240.0,5.0,0.0
13881,46.0,1.0,60.0,13.0,0.0
13882,46.0,2.0,60.0,3.0,0.0
13883,46.0,15.0,30.0,15.0,0.0
13884,34.0,11.0,60.0,14.0,0.0
13885,46.0,35.0,30.0,15.0,0.0
13886,57.0,1.0,60.0,10.0,0.0
13887,69.0,1.0,60.0,0.0,0.0
13888,57.0,3.0,60.0,11.0,0.0
13889,69.0,0.0,60.0,1.0,0.0
13890,57.0,0.0,60.0,2.0,0.0
13891,57.0,5.0,60.0,12.0,0.0
13892,45.0,1.0,60.0,13.0,0.0
13893,45.0,2.0,60.0,3.0,0.0
13894,33.0,31.0,60.0,14.0,0.0
13895,46.0,1.0,30.0,15.0,0.0
13896,58.0,1.0,60.0,10.0,0.0
13897,70.0,1.0,60.0,0.0,0.0
13898,70.0,3.0,60.0,1.0,0.0
13899,58.0,0.0,60.0,11.0,0.0
13900,58.0,1.0,60.0,2.0,0.0
13901,58.0,5.0,60.0,12.0,0.0
13902,46.0,1.0,60.0,13.0,0.0
13903,46.0,2.0,60.0,3.0,0.0
13904,46.0,15.0,30.0,15.0,0.0
13905,34.0,11.0,60.0,14.0,0.0
13906,46.0,25.0,30.0,15.0,0.0
13907,57.0,2.0,60.0,10.0,0.0
13908,69.0,0.0,60.0,0.0,0.0
13909,57.0,0.0,60.0,11.0,0.0
13910,69.0,2.0,60.0,1.0,0.0
13911,57.0,0.0,60.0,2.0,0.0
13912,57.0,0.0,60.0,12.0,0.0
13913,45.0,1.0,60.0,13.0,0.0
13914,45.0,108.0,60.0,3.0,0.0
13915,33.0,1.0,60.0,14.0,0.0
13916,46.0,7.0,30.0,15.0,0.0
13917,58.0,1.0,120.0,10.0,0.0
13918,70.0,1.0,120.0,0.0,0.0
13919,58.0,0.0,120.0,11.0,0.0
13920,58.0,1.0,120.0,4.0,0.0
13921,70.0,0.0,120.0,1.0,0.0
13922,58.0,2.0,120.0,6.0,0.0
13923,70.0,0.0,120.0,6.0,0.0
13924,58.0,1.0,120.0,2.0,0.0
13925,46.0,5.0,120.0,5.0,0.0
13926,58.0,0.0,120.0,12.0,0.0
13927,46.0,1.0,120.0,13.0,0.0
13928,46.0,1.0,120.0,3.0,0.0
13929,46.0,1.0,120.0,15.0,0.0
13930,34.0,466.0,120.0,14.0,0.0
13931,74.0,0.0,120.0,10.0,0.0
13932,58.0,0.0,120.0,10.0,0.0
13933,82.0,1.0,120.0,10.0,0.0
13934,82.0,1.0,120.0,0.0,0.0
13935,62.0,0.0,120.0,4.0,0.0
13936,74.0,0.0,120.0,1.0,0.0
13937,70.0,0.0,120.0,1.0,0.0
13938,65.0,0.0,120.0,11.0,0.0
13939,74.0,1.0,120.0,11.0,0.0
13940,58.0,0.0,120.0,11.0,0.0
13941,70.0,2.0,120.0,6.0,0.0
13942,62.0,0.0,120.0,6.0,0.0
13943,70.0,0.0,120.0,2.0,0.0
13944,62.0,1.0,120.0,2.0,0.0
13945,62.0,0.0,120.0,12.0,0.0
13946,53.0,0.0,120.0,12.0,0.0
13947,70.0,0.0,120.0,12.0,0.0
13948,58.0,5.0,120.0,5.0,0.0
13949,46.0,1.0,120.0,13.0,0.0
13950,46.0,1.0,120.0,3.0,0.0
13951,46.0,1.0,120.0,15.0,0.0
13952,34.0,226.0,120.0,14.0,0.0
13953,58.0,0.0,120.0,10.0,0.0
13954,82.0,0.0,120.0,10.0,0.0
13955,74.0,1.0,120.0,10.0,0.0
13956,82.0,1.0,120.0,0.0,0.0
13957,62.0,1.0,120.0,4.0,0.0
13958,74.0,0.0,120.0,11.0,0.0
13959,74.0,0.0,120.0,1.0,0.0
13960,65.0,0.0,120.0,11.0,0.0
13961,58.0,0.0,120.0,11.0,0.0
13962,70.0,0.0,120.0,1.0,0.0
13963,70.0,2.0,120.0,6.0,0.0
13964,62.0,0.0,120.0,6.0,0.0
13965,62.0,1.0,120.0,2.0,0.0
13966,70.0,0.0,120.0,2.0,0.0
13967,62.0,0.0,120.0,12.0,0.0
13968,70.0,0.0,120.0,12.0,0.0
13969,53.0,5.0,120.0,12.0,0.0
13970,58.0,0.0,120.0,5.0,0.0
13971,46.0,1.0,120.0,13.0,0.0
13972,46.0,1.0,120.0,3.0,0.0
13973,46.0,1.0,120.0,15.0,0.0
13974,34.0,226.0,120.0,14.0,0.0
13975,58.0,0.0,120.0,10.0,0.0
13976,74.0,0.0,120.0,10.0,0.0
13977,82.0,1.0,120.0,10.0,0.0
13978,82.0,1.0,120.0,0.0,0.0
13979,65.0,0.0,120.0,11.0,0.0
13980,58.0,0.0,120.0,11.0,0.0
13981,62.0,0.0,120.0,4.0,0.0
13982,70.0,1.0,120.0,1.0,0.0
13983,74.0,0.0,120.0,1.0,0.0
13984,74.0,0.0,120.0,11.0,0.0
13985,62.0,0.0,120.0,6.0,0.0
13986,70.0,2.0,120.0,6.0,0.0
13987,62.0,0.0,120.0,2.0,0.0
13988,70.0,1.0,120.0,2.0,0.0
13989,70.0,0.0,120.0,12.0,0.0
13990,53.0,0.0,120.0,12.0,0.0
13991,62.0,0.0,120.0,12.0,0.0
13992,58.0,5.0,120.0,5.0,0.0
13993,46.0,1.0,120.0,13.0,0.0
13994,46.0,1.0,120.0,3.0,0.0
13995,46.0,1.0,120.0,15.0,0.0
13996,34.0,466.0,120.0,14.0,0.0
13997,74.0,0.0,120.0,10.0,0.0
13998,65.0,0.0,120.0,10.0,0.0
13999,58.0,1.0,120.0,10.0,0.0
14000,82.0,1.0,120.0,0.0,0.0
14001,58.0,1.0,120.0,4.0,0.0
14002,74.0,0.0,120.0,1.0,0.0
14003,53.0,0.0,120.0,11.0,0.0
14004,62.0,0.0,120.0,11.0,0.0
14005,70.0,0.0,120.0,11.0,0.0
14006,70.0,0.0,120.0,1.0,0.0
14007,58.0,2.0,120.0,6.0,0.0
14008,70.0,0.0,120.0,6.0,0.0
14009,62.0,0.0,120.0,2.0,0.0
14010,70.0,1.0,120.0,2.0,0.0
14011,62.0,0.0,120.0,12.0,0.0
14012,46.0,5.0,120.0,12.0,0.0
14013,53.0,0.0,120.0,12.0,0.0
14014,50.0,0.0,120.0,5.0,0.0
14015,46.0,1.0,120.0,13.0,0.0
14016,46.0,1.0,120.0,3.0,0.0
14017,46.0,1.0,120.0,15.0,0.0
14018,34.0,466.0,120.0,14.0,0.0
14019,58.0,1.0,120.0,10.0,0.0
14020,70.0,1.0,120.0,0.0,0.0
14021,58.0,1.0,120.0,4.0,0.0
14022,70.0,0.0,120.0,1.0,0.0
14023,58.0,0.0,120.0,11.0,0.0
14024,58.0,2.0,120.0,6.0,0.0
14025,58.0,1.0,120.0,2.0,0.0
14026,46.0,0.0,120.0,12.0,0.0
14027,46.0,5.0,120.0,5.0,0.0
14028,46.0,1.0,120.0,13.0,0.0
14029,46.0,1.0,120.0,3.0,0.0
14030,46.0,1.0,120.0,15.0,0.0
14031,34.0,360.0,120.0,14.0,0.0
