,note,step,duration,channel,velocity
0,68.0,0.0,2400.0,12.0,0.0
1,56.0,460.0,2880.0,5.0,0.0
2,68.0,0.0,2400.0,5.0,0.0
3,73.0,0.0,2400.0,12.0,0.0
4,80.0,0.0,2400.0,11.0,0.0
5,61.0,220.0,2400.0,13.0,0.0
6,80.0,0.0,2400.0,10.0,0.0
7,76.0,0.0,2400.0,10.0,0.0
8,64.0,0.0,2400.0,13.0,0.0
9,76.0,0.0,2400.0,11.0,0.0
10,37.0,0.0,450.0,4.0,0.0
11,56.0,20.0,450.0,2.0,0.0
12,52.0,0.0,450.0,3.0,0.0
13,52.0,240.0,210.0,3.0,0.0
14,37.0,0.0,210.0,4.0,0.0
15,56.0,0.0,210.0,2.0,0.0
16,56.0,0.0,210.0,2.0,0.0
17,37.0,20.0,210.0,4.0,0.0
18,52.0,0.0,210.0,3.0,0.0
19,56.0,0.0,450.0,2.0,0.0
20,51.0,480.0,450.0,3.0,0.0
21,36.0,0.0,450.0,4.0,0.0
22,36.0,480.0,450.0,4.0,0.0
23,51.0,0.0,450.0,3.0,0.0
24,56.0,0.0,450.0,2.0,0.0
25,51.0,240.0,450.0,3.0,0.0
26,56.0,0.0,450.0,2.0,0.0
27,32.0,0.0,450.0,4.0,0.0
28,32.0,240.0,210.0,4.0,0.0
29,51.0,0.0,210.0,3.0,0.0
30,56.0,0.0,210.0,2.0,0.0
31,56.0,0.0,210.0,2.0,0.0
32,51.0,480.0,210.0,3.0,0.0
33,32.0,0.0,210.0,4.0,0.0
34,52.0,0.0,450.0,3.0,0.0
35,56.0,0.0,450.0,2.0,0.0
36,37.0,480.0,450.0,4.0,0.0
37,56.0,0.0,450.0,2.0,0.0
38,37.0,0.0,450.0,4.0,0.0
39,52.0,480.0,450.0,3.0,0.0
40,52.0,0.0,450.0,3.0,0.0
41,56.0,240.0,450.0,2.0,0.0
42,37.0,0.0,450.0,4.0,0.0
43,52.0,240.0,210.0,3.0,0.0
44,37.0,0.0,210.0,4.0,0.0
45,56.0,0.0,210.0,2.0,0.0
46,54.0,0.0,210.0,2.0,0.0
47,58.0,0.0,210.0,2.0,0.0
48,37.0,0.0,210.0,4.0,0.0
49,52.0,480.0,210.0,3.0,0.0
50,35.0,0.0,450.0,4.0,0.0
51,59.0,0.0,450.0,2.0,0.0
52,56.0,480.0,450.0,2.0,0.0
53,52.0,0.0,450.0,3.0,0.0
54,56.0,0.0,450.0,2.0,0.0
55,52.0,0.0,450.0,3.0,0.0
56,35.0,480.0,450.0,4.0,0.0
57,59.0,0.0,450.0,2.0,0.0
58,59.0,0.0,450.0,2.0,0.0
59,54.0,0.0,450.0,2.0,0.0
60,35.0,240.0,450.0,4.0,0.0
61,51.0,0.0,450.0,3.0,0.0
62,35.0,0.0,210.0,4.0,0.0
63,49.0,0.0,210.0,3.0,0.0
64,52.0,240.0,210.0,2.0,0.0
65,59.0,0.0,210.0,2.0,0.0
66,59.0,0.0,210.0,2.0,0.0
67,35.0,0.0,210.0,4.0,0.0
68,51.0,0.0,210.0,3.0,0.0
69,54.0,480.0,210.0,2.0,0.0
70,59.0,0.0,450.0,2.0,0.0
71,56.0,0.0,450.0,2.0,0.0
72,52.0,0.0,450.0,3.0,0.0
73,40.0,960.0,450.0,4.0,0.0
74,56.0,0.0,450.0,3.0,0.0
75,59.0,0.0,450.0,2.0,0.0
76,40.0,240.0,450.0,4.0,0.0
77,59.0,0.0,210.0,2.0,0.0
78,56.0,0.0,210.0,3.0,0.0
79,40.0,240.0,210.0,4.0,0.0
80,40.0,0.0,210.0,4.0,0.0
81,56.0,0.0,210.0,3.0,0.0
82,61.0,480.0,210.0,2.0,0.0
83,39.0,480.0,450.0,4.0,0.0
84,63.0,0.0,450.0,2.0,0.0
85,55.0,0.0,450.0,3.0,0.0
86,63.0,0.0,450.0,2.0,0.0
87,55.0,480.0,450.0,3.0,0.0
88,39.0,0.0,450.0,4.0,0.0
89,58.0,0.0,450.0,2.0,0.0
90,39.0,0.0,450.0,4.0,0.0
91,54.0,240.0,450.0,3.0,0.0
92,39.0,240.0,210.0,4.0,0.0
93,54.0,0.0,210.0,3.0,0.0
94,58.0,0.0,210.0,2.0,0.0
95,39.0,480.0,210.0,4.0,0.0
96,60.0,0.0,210.0,2.0,0.0
97,54.0,0.0,210.0,3.0,0.0
98,53.0,480.0,450.0,3.0,0.0
99,37.0,0.0,450.0,4.0,0.0
100,61.0,0.0,450.0,2.0,0.0
101,61.0,0.0,450.0,2.0,0.0
102,37.0,0.0,450.0,4.0,0.0
103,52.0,480.0,450.0,3.0,0.0
104,37.0,0.0,450.0,4.0,0.0
105,56.0,0.0,450.0,2.0,0.0
106,52.0,240.0,450.0,3.0,0.0
107,52.0,0.0,210.0,3.0,0.0
108,56.0,0.0,210.0,2.0,0.0
109,37.0,240.0,210.0,4.0,0.0
110,52.0,0.0,210.0,3.0,0.0
111,56.0,0.0,210.0,2.0,0.0
112,37.0,480.0,210.0,4.0,0.0
113,51.0,0.0,450.0,3.0,0.0
114,36.0,0.0,450.0,4.0,0.0
115,56.0,480.0,450.0,2.0,0.0
116,52.0,0.0,450.0,3.0,0.0
117,37.0,0.0,450.0,4.0,0.0
118,56.0,480.0,450.0,2.0,0.0
119,32.0,0.0,450.0,4.0,0.0
120,51.0,0.0,450.0,3.0,0.0
121,56.0,240.0,450.0,2.0,0.0
122,58.0,0.0,210.0,2.0,0.0
123,51.0,240.0,210.0,3.0,0.0
124,32.0,0.0,210.0,4.0,0.0
125,56.0,0.0,210.0,2.0,0.0
126,56.0,0.0,210.0,2.0,0.0
127,32.0,480.0,210.0,4.0,0.0
128,60.0,0.0,210.0,2.0,0.0
129,51.0,0.0,210.0,3.0,0.0
130,56.0,960.0,450.0,2.0,0.0
131,61.0,0.0,450.0,2.0,0.0
132,52.0,0.0,450.0,3.0,0.0
133,37.0,0.0,450.0,4.0,0.0
134,56.0,0.0,450.0,3.0,0.0
135,40.0,240.0,450.0,4.0,0.0
136,59.0,0.0,450.0,2.0,0.0
137,56.0,0.0,210.0,3.0,0.0
138,40.0,0.0,210.0,4.0,0.0
139,59.0,240.0,210.0,2.0,0.0
140,40.0,0.0,210.0,4.0,0.0
141,56.0,0.0,210.0,3.0,0.0
142,61.0,480.0,210.0,2.0,0.0
143,55.0,480.0,450.0,3.0,0.0
144,39.0,0.0,450.0,4.0,0.0
145,63.0,0.0,450.0,2.0,0.0
146,39.0,0.0,450.0,4.0,0.0
147,63.0,480.0,450.0,2.0,0.0
148,55.0,0.0,450.0,3.0,0.0
149,54.0,0.0,450.0,3.0,0.0
150,58.0,0.0,450.0,2.0,0.0
151,39.0,240.0,450.0,4.0,0.0
152,58.0,240.0,210.0,2.0,0.0
153,54.0,0.0,210.0,3.0,0.0
154,39.0,0.0,210.0,4.0,0.0
155,39.0,0.0,210.0,4.0,0.0
156,54.0,0.0,210.0,3.0,0.0
157,60.0,480.0,210.0,2.0,0.0
158,37.0,0.0,450.0,4.0,0.0
159,61.0,0.0,450.0,2.0,0.0
160,53.0,480.0,450.0,3.0,0.0
161,61.0,480.0,450.0,2.0,0.0
162,52.0,0.0,450.0,3.0,0.0
163,37.0,0.0,450.0,4.0,0.0
164,37.0,0.0,450.0,4.0,0.0
165,56.0,0.0,450.0,2.0,0.0
166,52.0,240.0,450.0,3.0,0.0
167,37.0,0.0,210.0,4.0,0.0
168,56.0,0.0,210.0,2.0,0.0
169,52.0,240.0,210.0,3.0,0.0
170,37.0,0.0,210.0,4.0,0.0
171,52.0,480.0,210.0,3.0,0.0
172,56.0,0.0,210.0,2.0,0.0
173,36.0,0.0,450.0,4.0,0.0
174,51.0,480.0,450.0,3.0,0.0
175,56.0,0.0,450.0,2.0,0.0
176,56.0,480.0,450.0,2.0,0.0
177,37.0,0.0,450.0,4.0,0.0
178,52.0,0.0,450.0,3.0,0.0
179,51.0,0.0,450.0,3.0,0.0
180,32.0,0.0,450.0,4.0,0.0
181,56.0,240.0,450.0,2.0,0.0
182,56.0,0.0,210.0,2.0,0.0
183,58.0,0.0,210.0,2.0,0.0
184,51.0,240.0,210.0,3.0,0.0
185,32.0,0.0,210.0,4.0,0.0
186,51.0,0.0,210.0,3.0,0.0
187,56.0,480.0,210.0,2.0,0.0
188,60.0,0.0,210.0,2.0,0.0
189,32.0,0.0,210.0,4.0,0.0
190,61.0,0.0,450.0,2.0,0.0
191,52.0,0.0,450.0,3.0,0.0
192,56.0,0.0,450.0,2.0,0.0
193,37.0,980.0,450.0,4.0,0.0
194,64.0,20.0,930.0,2.0,0.0
195,68.0,240.0,480.0,1.0,0.0
196,64.0,0.0,930.0,3.0,0.0
197,37.0,220.0,240.0,4.0,0.0
198,68.0,0.0,15.0,1.0,0.0
199,37.0,240.0,240.0,4.0,0.0
200,63.0,0.0,930.0,2.0,0.0
201,63.0,20.0,930.0,3.0,0.0
202,36.0,240.0,240.0,4.0,0.0
203,48.0,220.0,240.0,4.0,0.0
204,68.0,240.0,15.0,1.0,0.0
205,68.0,240.0,480.0,1.0,0.0
206,63.0,60.0,90.0,3.0,0.0
207,63.0,0.0,90.0,2.0,0.0
208,64.0,30.0,90.0,2.0,0.0
209,64.0,180.0,90.0,3.0,0.0
210,66.0,0.0,570.0,2.0,0.0
211,66.0,0.0,540.0,3.0,0.0
212,15.0,120.0,120.0,4.0,0.0
213,68.0,0.0,15.0,1.0,0.0
214,64.0,0.0,120.0,3.0,0.0
215,32.0,120.0,15.0,4.0,0.0
216,64.0,120.0,120.0,2.0,0.0
217,63.0,0.0,120.0,2.0,0.0
218,63.0,0.0,15.0,3.0,0.0
219,68.0,240.0,15.0,1.0,0.0
220,37.0,210.0,240.0,4.0,0.0
221,63.0,0.0,240.0,2.0,0.0
222,64.0,30.0,210.0,2.0,0.0
223,64.0,0.0,240.0,3.0,0.0
224,49.0,210.0,240.0,4.0,0.0
225,68.0,240.0,15.0,1.0,0.0
226,64.0,480.0,480.0,3.0,0.0
227,64.0,30.0,450.0,2.0,0.0
228,64.0,0.0,720.0,3.0,0.0
229,64.0,0.0,720.0,2.0,0.0
230,68.0,240.0,480.0,1.0,0.0
231,37.0,120.0,240.0,4.0,0.0
232,68.0,0.0,240.0,1.0,0.0
233,64.0,0.0,120.0,2.0,0.0
234,70.0,0.0,240.0,1.0,0.0
235,37.0,0.0,240.0,4.0,0.0
236,64.0,120.0,120.0,3.0,0.0
237,66.0,240.0,120.0,3.0,0.0
238,66.0,0.0,120.0,2.0,0.0
239,35.0,0.0,240.0,4.0,0.0
240,71.0,210.0,480.0,1.0,0.0
241,67.0,0.0,240.0,3.0,0.0
242,67.0,210.0,240.0,2.0,0.0
243,68.0,0.0,210.0,3.0,0.0
244,68.0,30.0,210.0,2.0,0.0
245,68.0,30.0,210.0,3.0,0.0
246,68.0,0.0,210.0,2.0,0.0
247,71.0,90.0,480.0,1.0,0.0
248,47.0,210.0,240.0,4.0,0.0
249,68.0,0.0,210.0,2.0,0.0
250,68.0,30.0,210.0,3.0,0.0
251,66.0,90.0,90.0,2.0,0.0
252,66.0,0.0,90.0,3.0,0.0
253,68.0,300.0,90.0,2.0,0.0
254,68.0,0.0,90.0,3.0,0.0
255,69.0,0.0,540.0,3.0,0.0
256,69.0,0.0,540.0,2.0,0.0
257,71.0,240.0,15.0,1.0,0.0
258,47.0,0.0,240.0,4.0,0.0
259,71.0,120.0,15.0,1.0,0.0
260,68.0,120.0,120.0,3.0,0.0
261,68.0,0.0,120.0,2.0,0.0
262,47.0,0.0,240.0,4.0,0.0
263,66.0,0.0,120.0,2.0,0.0
264,66.0,0.0,120.0,3.0,0.0
265,66.0,0.0,240.0,2.0,0.0
266,40.0,210.0,240.0,4.0,0.0
267,66.0,0.0,240.0,3.0,0.0
268,71.0,240.0,480.0,1.0,0.0
269,68.0,30.0,210.0,2.0,0.0
270,68.0,0.0,210.0,3.0,0.0
271,52.0,180.0,240.0,4.0,0.0
272,68.0,510.0,450.0,2.0,0.0
273,68.0,30.0,420.0,3.0,0.0
274,68.0,240.0,960.0,2.0,0.0
275,68.0,0.0,960.0,3.0,0.0
276,71.0,240.0,15.0,1.0,0.0
277,40.0,240.0,15.0,4.0,0.0
278,73.0,0.0,240.0,1.0,0.0
279,39.0,240.0,240.0,4.0,0.0
280,75.0,240.0,480.0,1.0,0.0
281,67.0,30.0,930.0,3.0,0.0
282,67.0,0.0,930.0,2.0,0.0
283,75.0,240.0,480.0,1.0,0.0
284,51.0,210.0,240.0,4.0,0.0
285,66.0,0.0,240.0,2.0,0.0
286,66.0,120.0,240.0,3.0,0.0
287,70.0,0.0,480.0,1.0,0.0
288,63.0,0.0,120.0,3.0,0.0
289,63.0,120.0,120.0,2.0,0.0
290,65.0,0.0,120.0,3.0,0.0
291,65.0,240.0,120.0,2.0,0.0
292,70.0,0.0,240.0,1.0,0.0
293,66.0,0.0,240.0,3.0,0.0
294,44.0,0.0,240.0,4.0,0.0
295,66.0,120.0,240.0,2.0,0.0
296,68.0,0.0,120.0,3.0,0.0
297,72.0,0.0,240.0,1.0,0.0
298,68.0,120.0,120.0,2.0,0.0
299,44.0,0.0,240.0,4.0,0.0
300,66.0,0.0,120.0,2.0,0.0
301,73.0,0.0,480.0,1.0,0.0
302,66.0,0.0,240.0,2.0,0.0
303,66.0,240.0,15.0,3.0,0.0
304,37.0,240.0,240.0,4.0,0.0
305,65.0,0.0,240.0,2.0,0.0
306,65.0,240.0,240.0,3.0,0.0
307,73.0,480.0,480.0,1.0,0.0
308,64.0,30.0,450.0,2.0,0.0
309,49.0,210.0,240.0,4.0,0.0
310,64.0,0.0,480.0,3.0,0.0
311,64.0,0.0,960.0,2.0,0.0
312,64.0,0.0,960.0,3.0,0.0
313,37.0,240.0,240.0,4.0,0.0
314,68.0,240.0,15.0,1.0,0.0
315,68.0,0.0,15.0,1.0,0.0
316,37.0,0.0,240.0,4.0,0.0
317,63.0,0.0,480.0,2.0,0.0
318,68.0,240.0,15.0,1.0,0.0
319,63.0,0.0,480.0,3.0,0.0
320,36.0,240.0,240.0,4.0,0.0
321,68.0,240.0,15.0,1.0,0.0
322,64.0,90.0,480.0,3.0,0.0
323,37.0,240.0,240.0,4.0,0.0
324,64.0,0.0,480.0,2.0,0.0
325,63.0,0.0,90.0,3.0,0.0
326,68.0,240.0,480.0,1.0,0.0
327,63.0,90.0,90.0,2.0,0.0
328,64.0,300.0,90.0,3.0,0.0
329,64.0,0.0,90.0,2.0,0.0
330,66.0,120.0,540.0,3.0,0.0
331,66.0,0.0,540.0,2.0,0.0
332,32.0,0.0,240.0,4.0,0.0
333,70.0,0.0,240.0,1.0,0.0
334,64.0,120.0,120.0,2.0,0.0
335,64.0,0.0,120.0,3.0,0.0
336,32.0,0.0,240.0,4.0,0.0
337,72.0,0.0,240.0,1.0,0.0
338,63.0,240.0,120.0,2.0,0.0
339,63.0,0.0,120.0,3.0,0.0
340,61.0,0.0,240.0,2.0,0.0
341,37.0,120.0,240.0,4.0,0.0
342,61.0,0.0,240.0,3.0,0.0
343,73.0,0.0,480.0,1.0,0.0
344,61.0,120.0,120.0,3.0,0.0
345,61.0,0.0,120.0,2.0,0.0
346,63.0,0.0,120.0,2.0,0.0
347,63.0,240.0,120.0,3.0,0.0
348,64.0,0.0,240.0,2.0,0.0
349,49.0,120.0,240.0,4.0,0.0
350,64.0,0.0,240.0,3.0,0.0
351,64.0,120.0,120.0,3.0,0.0
352,64.0,0.0,120.0,2.0,0.0
353,66.0,480.0,120.0,2.0,0.0
354,66.0,0.0,120.0,3.0,0.0
355,68.0,30.0,960.0,2.0,0.0
356,68.0,0.0,960.0,3.0,0.0
357,71.0,240.0,15.0,1.0,0.0
358,73.0,210.0,300.0,1.0,0.0
359,40.0,240.0,15.0,4.0,0.0
360,40.0,240.0,240.0,4.0,0.0
361,67.0,0.0,960.0,3.0,0.0
362,67.0,0.0,960.0,2.0,0.0
363,75.0,240.0,15.0,1.0,0.0
364,51.0,240.0,240.0,4.0,0.0
365,66.0,0.0,240.0,2.0,0.0
366,66.0,120.0,240.0,3.0,0.0
367,63.0,0.0,120.0,3.0,0.0
368,63.0,120.0,120.0,2.0,0.0
369,65.0,240.0,120.0,3.0,0.0
370,65.0,0.0,120.0,2.0,0.0
371,70.0,0.0,15.0,1.0,0.0
372,66.0,0.0,240.0,2.0,0.0
373,66.0,120.0,240.0,3.0,0.0
374,44.0,0.0,240.0,4.0,0.0
375,72.0,0.0,240.0,1.0,0.0
376,68.0,0.0,120.0,2.0,0.0
377,44.0,0.0,240.0,4.0,0.0
378,68.0,120.0,120.0,3.0,0.0
379,37.0,240.0,240.0,4.0,0.0
380,66.0,0.0,15.0,3.0,0.0
381,66.0,240.0,15.0,2.0,0.0
382,65.0,240.0,240.0,2.0,0.0
383,65.0,0.0,240.0,3.0,0.0
384,64.0,0.0,480.0,3.0,0.0
385,64.0,0.0,480.0,2.0,0.0
386,73.0,0.0,15.0,1.0,0.0
387,49.0,240.0,240.0,4.0,0.0
388,68.0,240.0,480.0,1.0,0.0
389,64.0,0.0,960.0,3.0,0.0
390,64.0,0.0,960.0,2.0,0.0
391,68.0,0.0,240.0,1.0,0.0
392,37.0,240.0,240.0,4.0,0.0
393,68.0,240.0,240.0,1.0,0.0
394,37.0,0.0,240.0,4.0,0.0
395,63.0,0.0,480.0,2.0,0.0
396,63.0,0.0,480.0,3.0,0.0
397,36.0,240.0,240.0,4.0,0.0
398,37.0,240.0,240.0,4.0,0.0
399,64.0,0.0,480.0,2.0,0.0
400,68.0,240.0,15.0,1.0,0.0
401,64.0,0.0,480.0,3.0,0.0
402,63.0,0.0,90.0,2.0,0.0
403,63.0,90.0,90.0,3.0,0.0
404,68.0,240.0,480.0,1.0,0.0
405,64.0,300.0,90.0,2.0,0.0
406,64.0,0.0,90.0,3.0,0.0
407,66.0,0.0,540.0,2.0,0.0
408,66.0,0.0,540.0,3.0,0.0
409,70.0,0.0,240.0,1.0,0.0
410,64.0,120.0,120.0,2.0,0.0
411,64.0,0.0,120.0,3.0,0.0
412,72.0,0.0,240.0,1.0,0.0
413,32.0,120.0,15.0,4.0,0.0
414,63.0,0.0,120.0,2.0,0.0
415,63.0,240.0,120.0,3.0,0.0
416,37.0,240.0,240.0,4.0,0.0
417,73.0,0.0,480.0,1.0,0.0
418,61.0,240.0,480.0,2.0,0.0
419,61.0,0.0,480.0,3.0,0.0
420,49.0,120.0,240.0,4.0,0.0
421,15.0,600.0,120.0,0.0,0.0
422,37.0,240.0,480.0,4.0,0.0
423,80.0,0.0,480.0,0.0,0.0
424,76.0,0.0,960.0,1.0,0.0
425,61.0,0.0,240.0,3.0,0.0
426,61.0,0.0,240.0,2.0,0.0
427,64.0,0.0,240.0,3.0,0.0
428,80.0,240.0,240.0,0.0,0.0
429,64.0,0.0,240.0,2.0,0.0
430,56.0,0.0,240.0,3.0,0.0
431,56.0,480.0,240.0,2.0,0.0
432,80.0,0.0,240.0,0.0,0.0
433,49.0,0.0,240.0,4.0,0.0
434,80.0,0.0,480.0,0.0,0.0
435,75.0,0.0,960.0,1.0,0.0
436,36.0,240.0,480.0,4.0,0.0
437,60.0,0.0,240.0,3.0,0.0
438,60.0,0.0,240.0,2.0,0.0
439,63.0,0.0,240.0,3.0,0.0
440,63.0,240.0,240.0,2.0,0.0
441,56.0,0.0,240.0,2.0,0.0
442,48.0,0.0,240.0,4.0,0.0
443,56.0,0.0,240.0,3.0,0.0
444,32.0,0.0,480.0,4.0,0.0
445,75.0,90.0,90.0,1.0,0.0
446,80.0,90.0,15.0,0.0,0.0
447,76.0,300.0,90.0,1.0,0.0
448,78.0,0.0,540.0,1.0,0.0
449,60.0,240.0,240.0,3.0,0.0
450,60.0,0.0,240.0,2.0,0.0
451,80.0,0.0,15.0,0.0,0.0
452,63.0,0.0,240.0,3.0,0.0
453,63.0,0.0,240.0,2.0,0.0
454,44.0,0.0,240.0,4.0,0.0
455,56.0,0.0,240.0,2.0,0.0
456,76.0,120.0,120.0,1.0,0.0
457,56.0,240.0,240.0,3.0,0.0
458,80.0,120.0,15.0,0.0,0.0
459,80.0,240.0,480.0,0.0,0.0
460,75.0,0.0,15.0,1.0,0.0
461,37.0,0.0,480.0,4.0,0.0
462,61.0,0.0,240.0,3.0,0.0
463,76.0,0.0,240.0,1.0,0.0
464,61.0,0.0,240.0,2.0,0.0
465,64.0,240.0,240.0,2.0,0.0
466,64.0,0.0,240.0,3.0,0.0
467,56.0,0.0,240.0,3.0,0.0
468,56.0,480.0,240.0,2.0,0.0
469,49.0,0.0,240.0,4.0,0.0
470,37.0,0.0,480.0,4.0,0.0
471,76.0,0.0,15.0,1.0,0.0
472,80.0,0.0,15.0,0.0,0.0
473,61.0,0.0,240.0,2.0,0.0
474,61.0,0.0,240.0,3.0,0.0
475,64.0,0.0,240.0,3.0,0.0
476,80.0,240.0,15.0,0.0,0.0
477,64.0,0.0,240.0,2.0,0.0
478,49.0,0.0,240.0,4.0,0.0
479,51.0,0.0,240.0,3.0,0.0
480,76.0,0.0,15.0,1.0,0.0
481,52.0,0.0,240.0,2.0,0.0
482,82.0,240.0,240.0,0.0,0.0
483,78.0,0.0,120.0,1.0,0.0
484,35.0,240.0,480.0,4.0,0.0
485,79.0,240.0,240.0,1.0,0.0
486,83.0,0.0,480.0,0.0,0.0
487,59.0,0.0,240.0,3.0,0.0
488,59.0,0.0,240.0,2.0,0.0
489,64.0,240.0,240.0,3.0,0.0
490,83.0,0.0,480.0,0.0,0.0
491,80.0,0.0,15.0,1.0,0.0
492,64.0,0.0,240.0,2.0,0.0
493,52.0,0.0,240.0,3.0,0.0
494,80.0,0.0,15.0,1.0,0.0
495,47.0,0.0,240.0,4.0,0.0
496,52.0,90.0,240.0,2.0,0.0
497,78.0,90.0,90.0,1.0,0.0
498,35.0,0.0,480.0,4.0,0.0
499,80.0,300.0,90.0,1.0,0.0
500,81.0,0.0,540.0,1.0,0.0
501,63.0,240.0,240.0,2.0,0.0
502,63.0,0.0,240.0,3.0,0.0
503,66.0,120.0,240.0,3.0,0.0
504,83.0,0.0,15.0,0.0,0.0
505,66.0,0.0,240.0,2.0,0.0
506,80.0,120.0,120.0,1.0,0.0
507,59.0,0.0,240.0,3.0,0.0
508,47.0,0.0,240.0,4.0,0.0
509,59.0,0.0,240.0,2.0,0.0
510,40.0,0.0,480.0,4.0,0.0
511,78.0,0.0,15.0,1.0,0.0
512,83.0,240.0,15.0,0.0,0.0
513,59.0,0.0,240.0,3.0,0.0
514,59.0,0.0,240.0,2.0,0.0
515,64.0,0.0,240.0,3.0,0.0
516,64.0,240.0,240.0,2.0,0.0
517,80.0,240.0,15.0,1.0,0.0
518,52.0,0.0,240.0,3.0,0.0
519,52.0,480.0,240.0,2.0,0.0
520,52.0,0.0,240.0,4.0,0.0
521,80.0,0.0,15.0,1.0,0.0
522,40.0,0.0,480.0,4.0,0.0
523,64.0,0.0,240.0,2.0,0.0
524,64.0,0.0,240.0,3.0,0.0
525,83.0,240.0,15.0,0.0,0.0
526,68.0,0.0,240.0,3.0,0.0
527,68.0,0.0,240.0,2.0,0.0
528,56.0,0.0,240.0,3.0,0.0
529,52.0,0.0,240.0,4.0,0.0
530,56.0,0.0,240.0,2.0,0.0
531,85.0,480.0,240.0,0.0,0.0
532,39.0,240.0,480.0,4.0,0.0
533,79.0,0.0,960.0,1.0,0.0
534,87.0,0.0,480.0,0.0,0.0
535,70.0,0.0,240.0,2.0,0.0
536,58.0,0.0,240.0,3.0,0.0
537,75.0,0.0,240.0,2.0,0.0
538,87.0,0.0,480.0,0.0,0.0
539,63.0,240.0,240.0,3.0,0.0
540,63.0,0.0,240.0,2.0,0.0
541,51.0,0.0,240.0,3.0,0.0
542,51.0,240.0,240.0,4.0,0.0
543,78.0,120.0,240.0,1.0,0.0
544,39.0,0.0,480.0,4.0,0.0
545,63.0,0.0,240.0,2.0,0.0
546,63.0,240.0,240.0,3.0,0.0
547,75.0,120.0,120.0,1.0,0.0
548,77.0,0.0,120.0,1.0,0.0
549,78.0,0.0,240.0,1.0,0.0
550,82.0,0.0,15.0,0.0,0.0
551,66.0,0.0,240.0,2.0,0.0
552,66.0,120.0,240.0,3.0,0.0
553,80.0,120.0,120.0,1.0,0.0
554,84.0,240.0,240.0,0.0,0.0
555,54.0,0.0,240.0,3.0,0.0
556,54.0,0.0,240.0,2.0,0.0
557,51.0,0.0,240.0,4.0,0.0
558,78.0,0.0,15.0,1.0,0.0
559,37.0,0.0,480.0,4.0,0.0
560,68.0,240.0,240.0,3.0,0.0
561,77.0,0.0,240.0,1.0,0.0
562,68.0,0.0,240.0,2.0,0.0
563,73.0,0.0,240.0,2.0,0.0
564,85.0,0.0,15.0,0.0,0.0
565,73.0,240.0,240.0,3.0,0.0
566,61.0,0.0,240.0,2.0,0.0
567,49.0,0.0,240.0,4.0,0.0
568,61.0,0.0,240.0,3.0,0.0
569,76.0,0.0,15.0,1.0,0.0
570,37.0,240.0,480.0,4.0,0.0
571,80.0,0.0,480.0,0.0,0.0
572,61.0,0.0,240.0,3.0,0.0
573,61.0,0.0,240.0,2.0,0.0
574,68.0,240.0,240.0,3.0,0.0
575,68.0,0.0,240.0,2.0,0.0
576,56.0,0.0,240.0,2.0,0.0
577,80.0,0.0,15.0,0.0,0.0
578,49.0,0.0,240.0,4.0,0.0
579,56.0,0.0,240.0,3.0,0.0
580,75.0,0.0,480.0,1.0,0.0
581,80.0,480.0,15.0,0.0,0.0
582,36.0,240.0,480.0,4.0,0.0
583,63.0,0.0,240.0,3.0,0.0
584,63.0,0.0,240.0,2.0,0.0
585,68.0,240.0,240.0,2.0,0.0
586,68.0,0.0,240.0,3.0,0.0
587,76.0,0.0,480.0,1.0,0.0
588,80.0,0.0,480.0,0.0,0.0
589,56.0,0.0,240.0,3.0,0.0
590,56.0,0.0,240.0,2.0,0.0
591,37.0,120.0,240.0,4.0,0.0
592,32.0,0.0,480.0,4.0,0.0
593,75.0,60.0,120.0,1.0,0.0
594,80.0,240.0,480.0,0.0,0.0
595,76.0,300.0,90.0,1.0,0.0
596,78.0,0.0,540.0,1.0,0.0
597,63.0,0.0,240.0,2.0,0.0
598,63.0,0.0,240.0,3.0,0.0
599,68.0,0.0,240.0,2.0,0.0
600,82.0,120.0,240.0,0.0,0.0
601,68.0,0.0,240.0,3.0,0.0
602,76.0,120.0,120.0,1.0,0.0
603,56.0,0.0,240.0,2.0,0.0
604,84.0,0.0,240.0,0.0,0.0
605,44.0,0.0,240.0,4.0,0.0
606,56.0,240.0,240.0,3.0,0.0
607,75.0,0.0,120.0,1.0,0.0
608,73.0,120.0,240.0,1.0,0.0
609,37.0,240.0,480.0,4.0,0.0
610,85.0,0.0,480.0,0.0,0.0
611,64.0,0.0,240.0,2.0,0.0
612,64.0,0.0,240.0,3.0,0.0
613,73.0,120.0,120.0,1.0,0.0
614,75.0,0.0,120.0,1.0,0.0
615,68.0,120.0,240.0,2.0,0.0
616,68.0,0.0,240.0,3.0,0.0
617,76.0,0.0,15.0,1.0,0.0
618,49.0,0.0,240.0,4.0,0.0
619,61.0,0.0,240.0,3.0,0.0
620,61.0,480.0,240.0,2.0,0.0
621,78.0,0.0,120.0,1.0,0.0
622,40.0,0.0,480.0,4.0,0.0
623,80.0,480.0,960.0,1.0,0.0
624,64.0,240.0,240.0,3.0,0.0
625,64.0,0.0,240.0,2.0,0.0
626,83.0,0.0,15.0,0.0,0.0
627,68.0,0.0,240.0,2.0,0.0
628,83.0,0.0,480.0,11.0,0.0
629,80.0,0.0,480.0,11.0,0.0
630,68.0,0.0,480.0,13.0,0.0
631,64.0,0.0,480.0,13.0,0.0
632,68.0,240.0,240.0,3.0,0.0
633,56.0,0.0,240.0,3.0,0.0
634,85.0,0.0,240.0,0.0,0.0
635,56.0,0.0,240.0,2.0,0.0
636,52.0,0.0,240.0,4.0,0.0
637,39.0,240.0,480.0,4.0,0.0
638,79.0,0.0,960.0,1.0,0.0
639,70.0,0.0,240.0,2.0,0.0
640,70.0,0.0,240.0,3.0,0.0
641,75.0,0.0,240.0,3.0,0.0
642,87.0,0.0,15.0,0.0,0.0
643,87.0,0.0,480.0,11.0,0.0
644,79.0,0.0,480.0,11.0,0.0
645,63.0,0.0,480.0,13.0,0.0
646,70.0,0.0,480.0,13.0,0.0
647,75.0,240.0,240.0,2.0,0.0
648,51.0,0.0,240.0,4.0,0.0
649,63.0,0.0,240.0,3.0,0.0
650,63.0,0.0,240.0,2.0,0.0
651,78.0,120.0,240.0,1.0,0.0
652,39.0,0.0,480.0,4.0,0.0
653,75.0,120.0,120.0,1.0,0.0
654,63.0,0.0,240.0,3.0,0.0
655,63.0,0.0,240.0,2.0,0.0
656,77.0,0.0,120.0,1.0,0.0
657,66.0,240.0,480.0,13.0,0.0
658,82.0,0.0,480.0,11.0,0.0
659,78.0,0.0,480.0,11.0,0.0
660,78.0,0.0,240.0,1.0,0.0
661,66.0,120.0,240.0,3.0,0.0
662,66.0,0.0,240.0,2.0,0.0
663,63.0,0.0,480.0,13.0,0.0
664,82.0,240.0,15.0,0.0,0.0
665,54.0,0.0,240.0,2.0,0.0
666,84.0,0.0,240.0,0.0,0.0
667,51.0,0.0,240.0,4.0,0.0
668,80.0,120.0,120.0,1.0,0.0
669,54.0,0.0,240.0,3.0,0.0
670,78.0,0.0,15.0,1.0,0.0
671,37.0,0.0,480.0,4.0,0.0
672,77.0,0.0,240.0,1.0,0.0
673,68.0,0.0,240.0,2.0,0.0
674,56.0,0.0,240.0,3.0,0.0
675,85.0,240.0,15.0,0.0,0.0
676,68.0,480.0,480.0,13.0,0.0
677,73.0,240.0,240.0,2.0,0.0
678,61.0,0.0,480.0,13.0,0.0
679,76.0,0.0,480.0,1.0,0.0
680,76.0,0.0,480.0,11.0,0.0
681,61.0,0.0,240.0,3.0,0.0
682,85.0,0.0,480.0,11.0,0.0
683,61.0,0.0,240.0,2.0,0.0
684,49.0,0.0,240.0,3.0,0.0
685,49.0,0.0,240.0,4.0,0.0
686,37.0,0.0,480.0,4.0,0.0
687,76.0,0.0,960.0,1.0,0.0
688,61.0,0.0,240.0,3.0,0.0
689,61.0,0.0,240.0,2.0,0.0
690,61.0,0.0,480.0,13.0,0.0
691,68.0,0.0,480.0,13.0,0.0
692,68.0,240.0,240.0,3.0,0.0
693,80.0,240.0,15.0,0.0,0.0
694,80.0,0.0,480.0,11.0,0.0
695,68.0,0.0,240.0,2.0,0.0
696,76.0,0.0,480.0,11.0,0.0
697,49.0,480.0,240.0,4.0,0.0
698,56.0,0.0,240.0,2.0,0.0
699,56.0,0.0,240.0,3.0,0.0
700,75.0,0.0,480.0,1.0,0.0
701,36.0,0.0,480.0,4.0,0.0
702,80.0,0.0,15.0,0.0,0.0
703,63.0,240.0,240.0,2.0,0.0
704,63.0,0.0,240.0,3.0,0.0
705,80.0,0.0,15.0,0.0,0.0
706,76.0,90.0,480.0,1.0,0.0
707,68.0,0.0,480.0,13.0,0.0
708,61.0,0.0,480.0,13.0,0.0
709,80.0,0.0,480.0,11.0,0.0
710,76.0,0.0,480.0,11.0,0.0
711,68.0,0.0,240.0,2.0,0.0
712,68.0,240.0,240.0,3.0,0.0
713,37.0,0.0,240.0,4.0,0.0
714,56.0,0.0,240.0,2.0,0.0
715,56.0,0.0,240.0,3.0,0.0
716,32.0,0.0,480.0,4.0,0.0
717,80.0,0.0,15.0,0.0,0.0
718,75.0,90.0,90.0,1.0,0.0
719,76.0,300.0,90.0,1.0,0.0
720,78.0,0.0,540.0,1.0,0.0
721,63.0,240.0,240.0,2.0,0.0
722,63.0,0.0,240.0,3.0,0.0
723,82.0,0.0,240.0,0.0,0.0
724,68.0,120.0,240.0,3.0,0.0
725,66.0,0.0,480.0,13.0,0.0
726,63.0,0.0,480.0,13.0,0.0
727,75.0,0.0,480.0,11.0,0.0
728,80.0,0.0,480.0,11.0,0.0
729,68.0,0.0,240.0,2.0,0.0
730,84.0,0.0,240.0,0.0,0.0
731,56.0,480.0,240.0,3.0,0.0
732,44.0,0.0,240.0,4.0,0.0
733,56.0,0.0,240.0,2.0,0.0
734,76.0,120.0,120.0,1.0,0.0
735,75.0,0.0,120.0,1.0,0.0
736,73.0,0.0,480.0,1.0,0.0
737,37.0,240.0,480.0,4.0,0.0
738,85.0,0.0,480.0,0.0,0.0
739,64.0,0.0,240.0,3.0,0.0
740,64.0,0.0,240.0,2.0,0.0
741,68.0,0.0,240.0,3.0,0.0
742,68.0,240.0,240.0,2.0,0.0
743,80.0,0.0,480.0,11.0,0.0
744,76.0,0.0,480.0,11.0,0.0
745,61.0,0.0,480.0,13.0,0.0
746,64.0,0.0,480.0,13.0,0.0
747,61.0,0.0,240.0,2.0,0.0
748,61.0,0.0,240.0,3.0,0.0
749,49.0,320.0,240.0,4.0,0.0
750,49.0,10.0,1110.0,3.0,0.0
751,49.0,0.0,480.0,7.0,0.0
752,88.0,0.0,960.0,0.0,0.0
753,56.0,0.0,480.0,5.0,0.0
754,37.0,0.0,480.0,4.0,0.0
755,73.0,0.0,480.0,6.0,0.0
756,61.0,0.0,480.0,6.0,0.0
757,56.0,0.0,480.0,13.0,0.0
758,80.0,0.0,480.0,11.0,0.0
759,60.0,0.0,150.0,2.0,0.0
760,61.0,160.0,150.0,3.0,0.0
761,73.0,0.0,240.0,1.0,0.0
762,63.0,0.0,150.0,2.0,0.0
763,64.0,0.0,150.0,3.0,0.0
764,56.0,0.0,480.0,2.0,0.0
765,68.0,0.0,15.0,5.0,0.0
766,56.0,0.0,480.0,3.0,0.0
767,80.0,0.0,240.0,11.0,0.0
768,76.0,0.0,240.0,1.0,0.0
769,68.0,240.0,15.0,13.0,0.0
770,80.0,0.0,15.0,12.0,0.0
771,68.0,0.0,15.0,12.0,0.0
772,56.0,0.0,240.0,13.0,0.0
773,37.0,160.0,150.0,4.0,0.0
774,56.0,0.0,15.0,5.0,0.0
775,56.0,0.0,240.0,13.0,0.0
776,80.0,0.0,15.0,12.0,0.0
777,68.0,80.0,15.0,12.0,0.0
778,68.0,0.0,240.0,1.0,0.0
779,80.0,0.0,240.0,11.0,0.0
780,49.0,0.0,150.0,4.0,0.0
781,68.0,150.0,15.0,13.0,0.0
782,36.0,0.0,480.0,4.0,0.0
783,68.0,0.0,15.0,5.0,0.0
784,80.0,0.0,480.0,6.0,0.0
785,48.0,160.0,150.0,3.0,0.0
786,56.0,0.0,480.0,7.0,0.0
787,80.0,0.0,480.0,11.0,0.0
788,80.0,0.0,15.0,12.0,0.0
789,68.0,0.0,15.0,12.0,0.0
790,60.0,160.0,150.0,2.0,0.0
791,60.0,0.0,150.0,3.0,0.0
792,75.0,0.0,240.0,1.0,0.0
793,63.0,240.0,150.0,3.0,0.0
794,63.0,0.0,150.0,2.0,0.0
795,56.0,0.0,15.0,5.0,0.0
796,56.0,0.0,15.0,13.0,0.0
797,56.0,0.0,480.0,2.0,0.0
798,92.0,0.0,15.0,10.0,0.0
799,80.0,0.0,15.0,10.0,0.0
800,78.0,80.0,240.0,1.0,0.0
801,68.0,0.0,480.0,12.0,0.0
802,48.0,0.0,480.0,3.0,0.0
803,36.0,160.0,150.0,4.0,0.0
804,68.0,0.0,240.0,1.0,0.0
805,48.0,0.0,150.0,4.0,0.0
806,80.0,0.0,15.0,10.0,0.0
807,80.0,0.0,15.0,12.0,0.0
808,80.0,0.0,15.0,11.0,0.0
809,44.0,140.0,150.0,3.0,0.0
810,56.0,0.0,480.0,7.0,0.0
811,68.0,0.0,15.0,5.0,0.0
812,32.0,0.0,480.0,4.0,0.0
813,68.0,0.0,15.0,13.0,0.0
814,56.0,0.0,15.0,13.0,0.0
815,87.0,150.0,15.0,0.0,0.0
816,80.0,0.0,480.0,6.0,0.0
817,88.0,20.0,150.0,0.0,0.0
818,61.0,160.0,150.0,2.0,0.0
819,60.0,0.0,150.0,3.0,0.0
820,75.0,0.0,240.0,1.0,0.0
821,90.0,50.0,480.0,0.0,0.0
822,63.0,0.0,150.0,3.0,0.0
823,64.0,0.0,150.0,2.0,0.0
824,44.0,0.0,480.0,3.0,0.0
825,68.0,0.0,15.0,5.0,0.0
826,56.0,0.0,15.0,5.0,0.0
827,52.0,0.0,480.0,2.0,0.0
828,78.0,0.0,240.0,1.0,0.0
829,68.0,0.0,15.0,13.0,0.0
830,80.0,30.0,240.0,11.0,0.0
831,68.0,240.0,15.0,12.0,0.0
832,92.0,0.0,15.0,10.0,0.0
833,32.0,40.0,150.0,4.0,0.0
834,80.0,0.0,15.0,12.0,0.0
835,68.0,0.0,15.0,12.0,0.0
836,72.0,0.0,240.0,1.0,0.0
837,68.0,0.0,15.0,5.0,0.0
838,56.0,0.0,15.0,5.0,0.0
839,88.0,120.0,120.0,0.0,0.0
840,68.0,0.0,15.0,13.0,0.0
841,56.0,0.0,15.0,13.0,0.0
842,92.0,0.0,15.0,10.0,0.0
843,80.0,0.0,15.0,10.0,0.0
844,44.0,0.0,150.0,4.0,0.0
845,87.0,0.0,120.0,0.0,0.0
846,80.0,0.0,15.0,10.0,0.0
847,92.0,0.0,15.0,10.0,0.0
848,68.0,0.0,15.0,5.0,0.0
849,56.0,0.0,15.0,5.0,0.0
850,87.0,80.0,240.0,0.0,0.0
851,56.0,0.0,480.0,13.0,0.0
852,68.0,0.0,480.0,13.0,0.0
853,37.0,0.0,480.0,4.0,0.0
854,80.0,0.0,15.0,11.0,0.0
855,73.0,0.0,480.0,6.0,0.0
856,61.0,0.0,480.0,6.0,0.0
857,49.0,0.0,480.0,7.0,0.0
858,80.0,0.0,15.0,12.0,0.0
859,68.0,240.0,15.0,12.0,0.0
860,61.0,160.0,150.0,3.0,0.0
861,61.0,0.0,150.0,2.0,0.0
862,76.0,0.0,240.0,1.0,0.0
863,88.0,0.0,240.0,0.0,0.0
864,64.0,0.0,150.0,3.0,0.0
865,64.0,0.0,150.0,2.0,0.0
866,80.0,0.0,15.0,11.0,0.0
867,80.0,80.0,240.0,1.0,0.0
868,56.0,0.0,480.0,2.0,0.0
869,56.0,240.0,15.0,5.0,0.0
870,37.0,160.0,150.0,4.0,0.0
871,73.0,0.0,240.0,1.0,0.0
872,49.0,0.0,150.0,4.0,0.0
873,80.0,0.0,15.0,12.0,0.0
874,37.0,0.0,480.0,4.0,0.0
875,92.0,0.0,15.0,10.0,0.0
876,68.0,0.0,15.0,12.0,0.0
877,80.0,0.0,15.0,10.0,0.0
878,88.0,0.0,15.0,0.0,0.0
879,49.0,0.0,480.0,7.0,0.0
880,73.0,0.0,480.0,6.0,0.0
881,49.0,0.0,15.0,3.0,0.0
882,68.0,0.0,15.0,5.0,0.0
883,56.0,0.0,15.0,5.0,0.0
884,80.0,0.0,15.0,11.0,0.0
885,61.0,0.0,480.0,6.0,0.0
886,56.0,160.0,15.0,13.0,0.0
887,68.0,0.0,15.0,13.0,0.0
888,61.0,160.0,150.0,3.0,0.0
889,61.0,0.0,150.0,2.0,0.0
890,73.0,0.0,240.0,1.0,0.0
891,64.0,0.0,150.0,3.0,0.0
892,64.0,0.0,150.0,2.0,0.0
893,80.0,0.0,15.0,12.0,0.0
894,80.0,0.0,15.0,11.0,0.0
895,68.0,0.0,15.0,12.0,0.0
896,56.0,0.0,480.0,2.0,0.0
897,49.0,160.0,480.0,3.0,0.0
898,68.0,240.0,15.0,5.0,0.0
899,76.0,0.0,240.0,1.0,0.0
900,80.0,0.0,15.0,10.0,0.0
901,92.0,0.0,15.0,10.0,0.0
902,56.0,0.0,15.0,13.0,0.0
903,68.0,0.0,240.0,13.0,0.0
904,35.0,40.0,150.0,4.0,0.0
905,76.0,120.0,120.0,0.0,0.0
906,82.0,0.0,240.0,11.0,0.0
907,82.0,0.0,240.0,12.0,0.0
908,94.0,0.0,240.0,10.0,0.0
909,82.0,0.0,240.0,10.0,0.0
910,64.0,0.0,240.0,1.0,0.0
911,58.0,0.0,240.0,13.0,0.0
912,70.0,0.0,240.0,13.0,0.0
913,70.0,0.0,240.0,12.0,0.0
914,70.0,0.0,240.0,5.0,0.0
915,47.0,0.0,150.0,4.0,0.0
916,78.0,0.0,120.0,0.0,0.0
917,47.0,60.0,150.0,3.0,0.0
918,35.0,0.0,480.0,4.0,0.0
919,79.0,100.0,210.0,0.0,0.0
920,59.0,0.0,480.0,13.0,0.0
921,59.0,0.0,150.0,3.0,0.0
922,61.0,160.0,150.0,2.0,0.0
923,76.0,0.0,240.0,1.0,0.0
924,64.0,0.0,150.0,2.0,0.0
925,64.0,0.0,150.0,3.0,0.0
926,83.0,0.0,15.0,12.0,0.0
927,80.0,0.0,480.0,6.0,0.0
928,52.0,0.0,480.0,2.0,0.0
929,71.0,0.0,15.0,12.0,0.0
930,71.0,240.0,15.0,5.0,0.0
931,80.0,80.0,240.0,1.0,0.0
932,80.0,0.0,15.0,0.0,0.0
933,71.0,0.0,15.0,13.0,0.0
934,47.0,150.0,480.0,3.0,0.0
935,95.0,0.0,15.0,10.0,0.0
936,83.0,0.0,15.0,10.0,0.0
937,56.0,0.0,480.0,7.0,0.0
938,83.0,0.0,15.0,11.0,0.0
939,35.0,160.0,150.0,4.0,0.0
940,80.0,0.0,240.0,0.0,0.0
941,68.0,0.0,240.0,1.0,0.0
942,47.0,0.0,150.0,4.0,0.0
943,78.0,10.0,150.0,0.0,0.0
944,83.0,0.0,15.0,12.0,0.0
945,35.0,0.0,480.0,4.0,0.0
946,71.0,0.0,15.0,5.0,0.0
947,71.0,0.0,15.0,13.0,0.0
948,83.0,0.0,480.0,11.0,0.0
949,59.0,0.0,15.0,13.0,0.0
950,95.0,0.0,15.0,10.0,0.0
951,83.0,0.0,15.0,10.0,0.0
952,47.0,110.0,150.0,3.0,0.0
953,80.0,50.0,150.0,0.0,0.0
954,63.0,160.0,150.0,3.0,0.0
955,59.0,0.0,150.0,2.0,0.0
956,81.0,50.0,510.0,0.0,0.0
957,75.0,0.0,240.0,1.0,0.0
958,64.0,240.0,150.0,2.0,0.0
959,66.0,0.0,150.0,3.0,0.0
960,71.0,0.0,15.0,12.0,0.0
961,71.0,0.0,15.0,5.0,0.0
962,95.0,0.0,15.0,10.0,0.0
963,83.0,0.0,15.0,10.0,0.0
964,47.0,0.0,480.0,3.0,0.0
965,83.0,0.0,15.0,12.0,0.0
966,78.0,0.0,240.0,1.0,0.0
967,52.0,0.0,480.0,2.0,0.0
968,59.0,0.0,480.0,2.0,0.0
969,35.0,40.0,150.0,4.0,0.0
970,83.0,0.0,15.0,11.0,0.0
971,71.0,0.0,15.0,13.0,0.0
972,59.0,10.0,15.0,13.0,0.0
973,83.0,0.0,15.0,12.0,0.0
974,71.0,0.0,240.0,1.0,0.0
975,83.0,0.0,240.0,10.0,0.0
976,71.0,0.0,240.0,5.0,0.0
977,71.0,0.0,15.0,12.0,0.0
978,80.0,120.0,120.0,0.0,0.0
979,47.0,160.0,150.0,4.0,0.0
980,78.0,0.0,120.0,0.0,0.0
981,56.0,0.0,480.0,7.0,0.0
982,78.0,80.0,240.0,0.0,0.0
983,80.0,0.0,480.0,6.0,0.0
984,59.0,0.0,15.0,13.0,0.0
985,71.0,0.0,480.0,12.0,0.0
986,83.0,0.0,480.0,12.0,0.0
987,95.0,0.0,15.0,10.0,0.0
988,83.0,0.0,480.0,10.0,0.0
989,40.0,80.0,150.0,3.0,0.0
990,71.0,0.0,480.0,13.0,0.0
991,71.0,0.0,480.0,5.0,0.0
992,40.0,0.0,480.0,4.0,0.0
993,83.0,0.0,480.0,11.0,0.0
994,59.0,0.0,150.0,3.0,0.0
995,63.0,160.0,150.0,2.0,0.0
996,76.0,0.0,240.0,1.0,0.0
997,64.0,0.0,150.0,3.0,0.0
998,66.0,240.0,150.0,2.0,0.0
999,80.0,0.0,15.0,0.0,0.0
1000,40.0,0.0,480.0,3.0,0.0
1001,59.0,160.0,480.0,2.0,0.0
1002,80.0,80.0,240.0,1.0,0.0
1003,40.0,160.0,150.0,4.0,0.0
1004,71.0,0.0,240.0,1.0,0.0
1005,52.0,0.0,150.0,4.0,0.0
1006,80.0,0.0,15.0,0.0,0.0
1007,83.0,0.0,480.0,10.0,0.0
1008,40.0,0.0,480.0,4.0,0.0
1009,71.0,0.0,480.0,12.0,0.0
1010,83.0,0.0,480.0,12.0,0.0
1011,56.0,0.0,480.0,7.0,0.0
1012,83.0,0.0,480.0,11.0,0.0
1013,80.0,0.0,480.0,6.0,0.0
1014,71.0,240.0,480.0,5.0,0.0
1015,40.0,160.0,150.0,3.0,0.0
1016,59.0,0.0,150.0,2.0,0.0
1017,59.0,160.0,150.0,3.0,0.0
1018,76.0,0.0,240.0,1.0,0.0
1019,64.0,0.0,150.0,2.0,0.0
1020,64.0,0.0,150.0,3.0,0.0
1021,52.0,0.0,480.0,2.0,0.0
1022,80.0,0.0,240.0,1.0,0.0
1023,83.0,0.0,240.0,11.0,0.0
1024,83.0,0.0,240.0,10.0,0.0
1025,40.0,0.0,480.0,3.0,0.0
1026,92.0,0.0,480.0,0.0,0.0
1027,59.0,0.0,15.0,13.0,0.0
1028,71.0,0.0,240.0,12.0,0.0
1029,83.0,0.0,240.0,12.0,0.0
1030,71.0,0.0,240.0,5.0,0.0
1031,40.0,160.0,150.0,4.0,0.0
1032,73.0,0.0,240.0,12.0,0.0
1033,85.0,160.0,240.0,12.0,0.0
1034,85.0,0.0,240.0,11.0,0.0
1035,73.0,0.0,240.0,5.0,0.0
1036,68.0,0.0,240.0,1.0,0.0
1037,85.0,0.0,240.0,10.0,0.0
1038,61.0,0.0,240.0,13.0,0.0
1039,52.0,0.0,150.0,4.0,0.0
1040,75.0,0.0,480.0,5.0,0.0
1041,39.0,0.0,480.0,4.0,0.0
1042,91.0,0.0,960.0,0.0,0.0
1043,87.0,0.0,480.0,11.0,0.0
1044,51.0,160.0,15.0,3.0,0.0
1045,59.0,0.0,150.0,2.0,0.0
1046,79.0,0.0,240.0,1.0,0.0
1047,63.0,0.0,150.0,3.0,0.0
1048,64.0,0.0,150.0,2.0,0.0
1049,75.0,0.0,15.0,11.0,0.0
1050,87.0,80.0,240.0,1.0,0.0
1051,52.0,0.0,480.0,2.0,0.0
1052,87.0,240.0,15.0,10.0,0.0
1053,63.0,0.0,15.0,13.0,0.0
1054,87.0,0.0,15.0,12.0,0.0
1055,75.0,0.0,15.0,12.0,0.0
1056,87.0,0.0,480.0,11.0,0.0
1057,75.0,0.0,480.0,5.0,0.0
1058,39.0,160.0,150.0,4.0,0.0
1059,75.0,0.0,240.0,1.0,0.0
1060,51.0,160.0,150.0,4.0,0.0
1061,94.0,0.0,480.0,10.0,0.0
1062,56.0,0.0,480.0,7.0,0.0
1063,82.0,0.0,480.0,12.0,0.0
1064,51.0,0.0,15.0,3.0,0.0
1065,70.0,0.0,480.0,12.0,0.0
1066,80.0,0.0,480.0,6.0,0.0
1067,90.0,80.0,240.0,0.0,0.0
1068,70.0,0.0,480.0,11.0,0.0
1069,39.0,0.0,480.0,4.0,0.0
1070,82.0,0.0,480.0,10.0,0.0
1071,59.0,0.0,150.0,2.0,0.0
1072,63.0,40.0,150.0,3.0,0.0
1073,87.0,120.0,120.0,0.0,0.0
1074,75.0,0.0,240.0,1.0,0.0
1075,66.0,0.0,150.0,3.0,0.0
1076,64.0,0.0,150.0,2.0,0.0
1077,89.0,240.0,120.0,0.0,0.0
1078,82.0,0.0,240.0,10.0,0.0
1079,58.0,0.0,15.0,13.0,0.0
1080,52.0,0.0,480.0,2.0,0.0
1081,82.0,0.0,15.0,11.0,0.0
1082,70.0,0.0,240.0,12.0,0.0
1083,70.0,0.0,240.0,11.0,0.0
1084,94.0,0.0,240.0,10.0,0.0
1085,82.0,0.0,240.0,12.0,0.0
1086,78.0,0.0,240.0,1.0,0.0
1087,51.0,0.0,480.0,3.0,0.0
1088,70.0,0.0,15.0,5.0,0.0
1089,90.0,0.0,210.0,0.0,0.0
1090,39.0,40.0,150.0,4.0,0.0
1091,84.0,160.0,240.0,11.0,0.0
1092,72.0,0.0,240.0,11.0,0.0
1093,96.0,0.0,240.0,10.0,0.0
1094,72.0,0.0,240.0,5.0,0.0
1095,84.0,0.0,240.0,12.0,0.0
1096,84.0,0.0,240.0,10.0,0.0
1097,66.0,0.0,240.0,1.0,0.0
1098,72.0,0.0,240.0,12.0,0.0
1099,92.0,120.0,120.0,0.0,0.0
1100,60.0,0.0,240.0,13.0,0.0
1101,51.0,0.0,150.0,4.0,0.0
1102,90.0,0.0,120.0,0.0,0.0
1103,73.0,0.0,480.0,5.0,0.0
1104,85.0,0.0,480.0,12.0,0.0
1105,49.0,0.0,480.0,7.0,0.0
1106,90.0,80.0,240.0,0.0,0.0
1107,73.0,0.0,480.0,6.0,0.0
1108,49.0,80.0,150.0,3.0,0.0
1109,37.0,0.0,480.0,4.0,0.0
1110,61.0,0.0,480.0,6.0,0.0
1111,73.0,0.0,480.0,12.0,0.0
1112,49.0,160.0,150.0,3.0,0.0
1113,63.0,0.0,150.0,2.0,0.0
1114,89.0,0.0,240.0,0.0,0.0
1115,77.0,0.0,240.0,1.0,0.0
1116,61.0,0.0,150.0,3.0,0.0
1117,75.0,0.0,150.0,2.0,0.0
1118,85.0,80.0,240.0,1.0,0.0
1119,85.0,0.0,15.0,11.0,0.0
1120,73.0,0.0,15.0,11.0,0.0
1121,49.0,0.0,480.0,3.0,0.0
1122,73.0,0.0,480.0,5.0,0.0
1123,63.0,0.0,480.0,2.0,0.0
1124,61.0,0.0,15.0,13.0,0.0
1125,73.0,160.0,480.0,12.0,0.0
1126,97.0,0.0,15.0,10.0,0.0
1127,85.0,240.0,15.0,10.0,0.0
1128,85.0,0.0,480.0,12.0,0.0
1129,37.0,160.0,150.0,4.0,0.0
1130,73.0,0.0,240.0,1.0,0.0
1131,49.0,0.0,150.0,4.0,0.0
1132,56.0,0.0,480.0,5.0,0.0
1133,61.0,0.0,480.0,6.0,0.0
1134,73.0,0.0,480.0,6.0,0.0
1135,88.0,0.0,15.0,0.0,0.0
1136,49.0,0.0,480.0,7.0,0.0
1137,37.0,0.0,480.0,4.0,0.0
1138,49.0,160.0,150.0,3.0,0.0
1139,80.0,0.0,480.0,12.0,0.0
1140,56.0,0.0,480.0,13.0,0.0
1141,68.0,0.0,480.0,12.0,0.0
1142,61.0,160.0,150.0,3.0,0.0
1143,61.0,0.0,150.0,2.0,0.0
1144,76.0,0.0,240.0,1.0,0.0
1145,64.0,0.0,150.0,2.0,0.0
1146,64.0,240.0,150.0,3.0,0.0
1147,80.0,0.0,240.0,1.0,0.0
1148,68.0,0.0,15.0,5.0,0.0
1149,92.0,0.0,15.0,10.0,0.0
1150,80.0,0.0,15.0,10.0,0.0
1151,80.0,0.0,15.0,11.0,0.0
1152,68.0,0.0,15.0,13.0,0.0
1153,56.0,0.0,480.0,2.0,0.0
1154,49.0,0.0,480.0,3.0,0.0
1155,68.0,0.0,240.0,12.0,0.0
1156,80.0,0.0,240.0,12.0,0.0
1157,37.0,160.0,150.0,4.0,0.0
1158,56.0,0.0,15.0,5.0,0.0
1159,56.0,0.0,15.0,13.0,0.0
1160,92.0,80.0,15.0,10.0,0.0
1161,68.0,0.0,240.0,12.0,0.0
1162,80.0,0.0,240.0,12.0,0.0
1163,68.0,0.0,240.0,13.0,0.0
1164,68.0,160.0,240.0,1.0,0.0
1165,80.0,0.0,240.0,10.0,0.0
1166,68.0,0.0,240.0,5.0,0.0
1167,49.0,0.0,150.0,4.0,0.0
1168,56.0,0.0,15.0,13.0,0.0
1169,56.0,0.0,15.0,5.0,0.0
1170,80.0,0.0,15.0,11.0,0.0
1171,68.0,0.0,480.0,13.0,0.0
1172,87.0,0.0,480.0,0.0,0.0
1173,56.0,0.0,480.0,7.0,0.0
1174,48.0,160.0,150.0,3.0,0.0
1175,92.0,0.0,480.0,10.0,0.0
1176,80.0,0.0,480.0,6.0,0.0
1177,36.0,0.0,480.0,4.0,0.0
1178,60.0,0.0,150.0,3.0,0.0
1179,60.0,160.0,150.0,2.0,0.0
1180,75.0,0.0,240.0,1.0,0.0
1181,63.0,240.0,150.0,3.0,0.0
1182,63.0,0.0,150.0,2.0,0.0
1183,80.0,80.0,240.0,1.0,0.0
1184,68.0,0.0,15.0,5.0,0.0
1185,80.0,0.0,15.0,10.0,0.0
1186,88.0,0.0,480.0,0.0,0.0
1187,56.0,0.0,480.0,2.0,0.0
1188,61.0,0.0,480.0,2.0,0.0
1189,80.0,0.0,15.0,12.0,0.0
1190,68.0,0.0,15.0,12.0,0.0
1191,80.0,0.0,480.0,11.0,0.0
1192,49.0,0.0,480.0,7.0,0.0
1193,61.0,0.0,480.0,6.0,0.0
1194,73.0,0.0,480.0,6.0,0.0
1195,56.0,0.0,480.0,13.0,0.0
1196,49.0,0.0,480.0,3.0,0.0
1197,37.0,160.0,150.0,4.0,0.0
1198,68.0,0.0,240.0,1.0,0.0
1199,49.0,0.0,150.0,4.0,0.0
1200,80.0,0.0,480.0,12.0,0.0
1201,68.0,0.0,480.0,12.0,0.0
1202,56.0,160.0,15.0,5.0,0.0
1203,68.0,0.0,15.0,5.0,0.0
1204,87.0,140.0,180.0,0.0,0.0
1205,68.0,0.0,15.0,13.0,0.0
1206,56.0,0.0,480.0,13.0,0.0
1207,32.0,0.0,480.0,4.0,0.0
1208,80.0,0.0,480.0,6.0,0.0
1209,44.0,20.0,150.0,3.0,0.0
1210,92.0,0.0,15.0,10.0,0.0
1211,80.0,0.0,480.0,11.0,0.0
1212,80.0,0.0,480.0,10.0,0.0
1213,88.0,150.0,180.0,0.0,0.0
1214,60.0,0.0,150.0,2.0,0.0
1215,60.0,10.0,150.0,3.0,0.0
1216,75.0,0.0,240.0,1.0,0.0
1217,90.0,50.0,450.0,0.0,0.0
1218,63.0,0.0,150.0,3.0,0.0
1219,63.0,0.0,150.0,2.0,0.0
1220,56.0,0.0,480.0,2.0,0.0
1221,94.0,0.0,240.0,10.0,0.0
1222,70.0,0.0,240.0,12.0,0.0
1223,44.0,0.0,480.0,3.0,0.0
1224,82.0,0.0,240.0,10.0,0.0
1225,56.0,240.0,15.0,7.0,0.0
1226,82.0,0.0,240.0,11.0,0.0
1227,58.0,30.0,240.0,13.0,0.0
1228,80.0,0.0,240.0,1.0,0.0
1229,80.0,0.0,240.0,6.0,0.0
1230,70.0,0.0,240.0,5.0,0.0
1231,82.0,0.0,240.0,12.0,0.0
1232,32.0,40.0,150.0,4.0,0.0
1233,68.0,0.0,240.0,1.0,0.0
1234,88.0,120.0,120.0,0.0,0.0
1235,80.0,0.0,240.0,6.0,0.0
1236,84.0,0.0,240.0,10.0,0.0
1237,96.0,0.0,240.0,10.0,0.0
1238,60.0,0.0,240.0,13.0,0.0
1239,72.0,0.0,240.0,12.0,0.0
1240,84.0,0.0,240.0,12.0,0.0
1241,56.0,0.0,15.0,7.0,0.0
1242,84.0,0.0,240.0,11.0,0.0
1243,72.0,0.0,240.0,5.0,0.0
1244,44.0,0.0,150.0,4.0,0.0
1245,87.0,0.0,120.0,0.0,0.0
1246,97.0,0.0,480.0,10.0,0.0
1247,85.0,0.0,480.0,10.0,0.0
1248,73.0,0.0,480.0,12.0,0.0
1249,61.0,0.0,480.0,13.0,0.0
1250,85.0,80.0,240.0,0.0,0.0
1251,85.0,0.0,480.0,11.0,0.0
1252,49.0,0.0,480.0,7.0,0.0
1253,37.0,0.0,480.0,4.0,0.0
1254,49.0,80.0,150.0,3.0,0.0
1255,73.0,160.0,480.0,6.0,0.0
1256,61.0,0.0,480.0,6.0,0.0
1257,85.0,0.0,480.0,12.0,0.0
1258,73.0,0.0,480.0,5.0,0.0
1259,49.0,40.0,150.0,3.0,0.0
1260,61.0,0.0,150.0,2.0,0.0
1261,73.0,120.0,120.0,0.0,0.0
1262,76.0,0.0,240.0,1.0,0.0
1263,61.0,0.0,150.0,3.0,0.0
1264,73.0,0.0,150.0,2.0,0.0
1265,75.0,0.0,120.0,0.0,0.0
1266,76.0,0.0,240.0,0.0,0.0
1267,80.0,80.0,240.0,1.0,0.0
1268,61.0,0.0,150.0,2.0,0.0
1269,49.0,80.0,15.0,3.0,0.0
1270,37.0,0.0,150.0,4.0,0.0
1271,61.0,40.0,150.0,2.0,0.0
1272,76.0,120.0,120.0,0.0,0.0
1273,68.0,0.0,240.0,1.0,0.0
1274,63.0,0.0,150.0,2.0,0.0
1275,49.0,0.0,150.0,4.0,0.0
1276,51.0,0.0,150.0,3.0,0.0
1277,78.0,160.0,120.0,0.0,0.0
1278,71.0,0.0,480.0,12.0,0.0
1279,64.0,160.0,150.0,2.0,0.0
1280,40.0,0.0,480.0,4.0,0.0
1281,59.0,0.0,480.0,13.0,0.0
1282,56.0,0.0,480.0,7.0,0.0
1283,83.0,0.0,480.0,11.0,0.0
1284,83.0,0.0,480.0,12.0,0.0
1285,80.0,0.0,480.0,6.0,0.0
1286,52.0,0.0,150.0,3.0,0.0
1287,80.0,0.0,480.0,0.0,0.0
1288,59.0,160.0,150.0,2.0,0.0
1289,59.0,0.0,150.0,3.0,0.0
1290,76.0,0.0,240.0,1.0,0.0
1291,64.0,0.0,150.0,3.0,0.0
1292,64.0,0.0,150.0,2.0,0.0
1293,59.0,0.0,240.0,13.0,0.0
1294,40.0,0.0,480.0,3.0,0.0
1295,92.0,0.0,480.0,0.0,0.0
1296,71.0,240.0,15.0,5.0,0.0
1297,52.0,0.0,480.0,2.0,0.0
1298,71.0,0.0,240.0,12.0,0.0
1299,83.0,80.0,240.0,12.0,0.0
1300,80.0,0.0,240.0,1.0,0.0
1301,83.0,0.0,240.0,11.0,0.0
1302,40.0,160.0,150.0,4.0,0.0
1303,73.0,160.0,240.0,5.0,0.0
1304,68.0,0.0,240.0,1.0,0.0
1305,85.0,0.0,240.0,11.0,0.0
1306,73.0,0.0,240.0,12.0,0.0
1307,85.0,0.0,240.0,12.0,0.0
1308,61.0,0.0,240.0,13.0,0.0
1309,52.0,0.0,150.0,4.0,0.0
1310,39.0,0.0,480.0,4.0,0.0
1311,91.0,0.0,960.0,0.0,0.0
1312,51.0,160.0,150.0,3.0,0.0
1313,51.0,0.0,150.0,3.0,0.0
1314,63.0,160.0,150.0,2.0,0.0
1315,79.0,0.0,240.0,1.0,0.0
1316,63.0,0.0,150.0,3.0,0.0
1317,75.0,0.0,150.0,2.0,0.0
1318,87.0,80.0,240.0,1.0,0.0
1319,87.0,0.0,15.0,12.0,0.0
1320,75.0,0.0,15.0,12.0,0.0
1321,87.0,240.0,15.0,11.0,0.0
1322,63.0,0.0,15.0,13.0,0.0
1323,75.0,0.0,15.0,5.0,0.0
1324,63.0,160.0,480.0,2.0,0.0
1325,49.0,0.0,480.0,3.0,0.0
1326,39.0,160.0,150.0,4.0,0.0
1327,75.0,0.0,240.0,1.0,0.0
1328,51.0,0.0,150.0,4.0,0.0
1329,39.0,240.0,480.0,4.0,0.0
1330,51.0,80.0,150.0,3.0,0.0
1331,82.0,0.0,480.0,12.0,0.0
1332,80.0,0.0,480.0,6.0,0.0
1333,82.0,0.0,480.0,10.0,0.0
1334,94.0,0.0,480.0,10.0,0.0
1335,90.0,80.0,240.0,0.0,0.0
1336,70.0,0.0,480.0,12.0,0.0
1337,70.0,0.0,480.0,5.0,0.0
1338,56.0,0.0,480.0,7.0,0.0
1339,63.0,40.0,150.0,2.0,0.0
1340,63.0,0.0,150.0,3.0,0.0
1341,75.0,0.0,240.0,1.0,0.0
1342,87.0,120.0,120.0,0.0,0.0
1343,66.0,0.0,150.0,2.0,0.0
1344,66.0,0.0,150.0,3.0,0.0
1345,89.0,0.0,120.0,0.0,0.0
1346,82.0,0.0,240.0,10.0,0.0
1347,94.0,0.0,240.0,10.0,0.0
1348,78.0,0.0,240.0,1.0,0.0
1349,49.0,160.0,480.0,3.0,0.0
1350,82.0,0.0,15.0,11.0,0.0
1351,58.0,0.0,15.0,13.0,0.0
1352,70.0,0.0,240.0,5.0,0.0
1353,70.0,0.0,240.0,12.0,0.0
1354,82.0,0.0,240.0,12.0,0.0
1355,90.0,50.0,240.0,0.0,0.0
1356,39.0,50.0,150.0,4.0,0.0
1357,66.0,0.0,240.0,1.0,0.0
1358,96.0,0.0,240.0,10.0,0.0
1359,84.0,0.0,240.0,10.0,0.0
1360,60.0,0.0,240.0,13.0,0.0
1361,84.0,0.0,240.0,11.0,0.0
1362,84.0,0.0,240.0,12.0,0.0
1363,72.0,0.0,240.0,12.0,0.0
1364,92.0,110.0,120.0,0.0,0.0
1365,72.0,0.0,240.0,5.0,0.0
1366,51.0,10.0,150.0,4.0,0.0
1367,90.0,0.0,120.0,0.0,0.0
1368,61.0,0.0,480.0,6.0,0.0
1369,85.0,0.0,480.0,12.0,0.0
1370,85.0,0.0,480.0,11.0,0.0
1371,73.0,240.0,480.0,6.0,0.0
1372,61.0,0.0,240.0,13.0,0.0
1373,85.0,0.0,480.0,10.0,0.0
1374,49.0,0.0,480.0,7.0,0.0
1375,73.0,0.0,480.0,5.0,0.0
1376,90.0,80.0,240.0,0.0,0.0
1377,37.0,0.0,480.0,4.0,0.0
1378,47.0,80.0,150.0,3.0,0.0
1379,61.0,0.0,150.0,2.0,0.0
1380,47.0,160.0,150.0,3.0,0.0
1381,89.0,0.0,240.0,0.0,0.0
1382,77.0,0.0,240.0,1.0,0.0
1383,61.0,0.0,150.0,3.0,0.0
1384,73.0,0.0,150.0,2.0,0.0
1385,85.0,0.0,480.0,10.0,0.0
1386,97.0,0.0,15.0,10.0,0.0
1387,85.0,80.0,240.0,1.0,0.0
1388,73.0,0.0,15.0,12.0,0.0
1389,85.0,0.0,480.0,11.0,0.0
1390,61.0,160.0,480.0,13.0,0.0
1391,54.0,0.0,480.0,2.0,0.0
1392,49.0,0.0,480.0,3.0,0.0
1393,88.0,20.0,450.0,0.0,0.0
1394,85.0,0.0,480.0,12.0,0.0
1395,73.0,0.0,480.0,5.0,0.0
1396,39.0,140.0,150.0,4.0,0.0
1397,73.0,0.0,240.0,1.0,0.0
1398,51.0,0.0,150.0,4.0,0.0
1399,80.0,0.0,480.0,12.0,0.0
1400,56.0,0.0,480.0,5.0,0.0
1401,88.0,0.0,960.0,0.0,0.0
1402,61.0,0.0,480.0,6.0,0.0
1403,73.0,0.0,480.0,6.0,0.0
1404,49.0,0.0,480.0,7.0,0.0
1405,37.0,240.0,480.0,4.0,0.0
1406,49.0,160.0,150.0,3.0,0.0
1407,61.0,0.0,150.0,2.0,0.0
1408,61.0,160.0,150.0,3.0,0.0
1409,76.0,0.0,240.0,1.0,0.0
1410,64.0,0.0,150.0,2.0,0.0
1411,64.0,0.0,150.0,3.0,0.0
1412,49.0,0.0,480.0,3.0,0.0
1413,92.0,0.0,15.0,10.0,0.0
1414,61.0,160.0,480.0,2.0,0.0
1415,80.0,80.0,240.0,1.0,0.0
1416,80.0,0.0,15.0,10.0,0.0
1417,68.0,0.0,15.0,13.0,0.0
1418,56.0,0.0,15.0,13.0,0.0
1419,68.0,0.0,15.0,12.0,0.0
1420,80.0,0.0,15.0,11.0,0.0
1421,68.0,0.0,15.0,5.0,0.0
1422,37.0,160.0,150.0,4.0,0.0
1423,56.0,0.0,15.0,5.0,0.0
1424,80.0,0.0,15.0,11.0,0.0
1425,68.0,0.0,15.0,13.0,0.0
1426,56.0,0.0,15.0,13.0,0.0
1427,68.0,0.0,15.0,5.0,0.0
1428,80.0,0.0,15.0,12.0,0.0
1429,68.0,0.0,15.0,12.0,0.0
1430,92.0,0.0,240.0,10.0,0.0
1431,68.0,0.0,240.0,1.0,0.0
1432,49.0,0.0,150.0,4.0,0.0
1433,80.0,0.0,15.0,10.0,0.0
1434,92.0,80.0,240.0,10.0,0.0
1435,56.0,0.0,480.0,13.0,0.0
1436,80.0,0.0,15.0,12.0,0.0
1437,68.0,0.0,15.0,12.0,0.0
1438,87.0,0.0,480.0,0.0,0.0
1439,80.0,0.0,480.0,6.0,0.0
1440,80.0,0.0,240.0,11.0,0.0
1441,48.0,80.0,150.0,3.0,0.0
1442,56.0,0.0,480.0,7.0,0.0
1443,56.0,0.0,480.0,5.0,0.0
1444,36.0,0.0,480.0,4.0,0.0
1445,68.0,0.0,15.0,5.0,0.0
1446,60.0,160.0,150.0,2.0,0.0
1447,60.0,0.0,150.0,3.0,0.0
1448,75.0,0.0,240.0,1.0,0.0
1449,63.0,0.0,150.0,3.0,0.0
1450,63.0,0.0,150.0,2.0,0.0
1451,68.0,0.0,15.0,13.0,0.0
1452,49.0,0.0,480.0,3.0,0.0
1453,80.0,80.0,240.0,1.0,0.0
1454,61.0,0.0,480.0,2.0,0.0
1455,56.0,0.0,480.0,2.0,0.0
1456,73.0,0.0,480.0,6.0,0.0
1457,88.0,0.0,480.0,0.0,0.0
1458,49.0,0.0,480.0,7.0,0.0
1459,56.0,0.0,480.0,5.0,0.0
1460,61.0,0.0,480.0,6.0,0.0
1461,37.0,160.0,150.0,4.0,0.0
1462,68.0,0.0,240.0,1.0,0.0
1463,49.0,0.0,150.0,4.0,0.0
1464,92.0,0.0,15.0,10.0,0.0
1465,44.0,20.0,150.0,3.0,0.0
1466,80.0,0.0,15.0,12.0,0.0
1467,68.0,0.0,15.0,12.0,0.0
1468,80.0,0.0,480.0,6.0,0.0
1469,80.0,0.0,15.0,11.0,0.0
1470,87.0,140.0,180.0,0.0,0.0
1471,80.0,0.0,15.0,10.0,0.0
1472,68.0,0.0,15.0,5.0,0.0
1473,56.0,160.0,15.0,13.0,0.0
1474,32.0,0.0,480.0,4.0,0.0
1475,56.0,0.0,480.0,5.0,0.0
1476,88.0,150.0,180.0,0.0,0.0
1477,60.0,0.0,150.0,3.0,0.0
1478,60.0,10.0,150.0,2.0,0.0
1479,75.0,160.0,240.0,1.0,0.0
1480,90.0,50.0,450.0,0.0,0.0
1481,68.0,0.0,150.0,2.0,0.0
1482,68.0,0.0,150.0,3.0,0.0
1483,70.0,0.0,240.0,5.0,0.0
1484,58.0,0.0,480.0,13.0,0.0
1485,80.0,0.0,240.0,6.0,0.0
1486,56.0,0.0,15.0,7.0,0.0
1487,94.0,0.0,240.0,10.0,0.0
1488,82.0,0.0,240.0,10.0,0.0
1489,82.0,0.0,240.0,11.0,0.0
1490,80.0,0.0,240.0,1.0,0.0
1491,82.0,0.0,240.0,12.0,0.0
1492,70.0,0.0,240.0,12.0,0.0
1493,66.0,0.0,15.0,3.0,0.0
1494,56.0,80.0,15.0,2.0,0.0
1495,37.0,40.0,150.0,4.0,0.0
1496,84.0,0.0,240.0,12.0,0.0
1497,78.0,480.0,240.0,1.0,0.0
1498,72.0,0.0,240.0,12.0,0.0
1499,84.0,0.0,240.0,10.0,0.0
1500,72.0,0.0,240.0,5.0,0.0
1501,96.0,0.0,240.0,10.0,0.0
1502,60.0,0.0,240.0,13.0,0.0
1503,88.0,120.0,120.0,0.0,0.0
1504,84.0,0.0,240.0,11.0,0.0
1505,80.0,0.0,240.0,6.0,0.0
1506,56.0,0.0,240.0,7.0,0.0
1507,68.0,0.0,150.0,2.0,0.0
1508,49.0,0.0,150.0,4.0,0.0
1509,66.0,0.0,150.0,3.0,0.0
1510,87.0,0.0,120.0,0.0,0.0
1511,85.0,0.0,480.0,12.0,0.0
1512,73.0,0.0,480.0,12.0,0.0
1513,61.0,0.0,480.0,2.0,0.0
1514,97.0,0.0,480.0,10.0,0.0
1515,73.0,0.0,480.0,5.0,0.0
1516,61.0,0.0,480.0,13.0,0.0
1517,85.0,0.0,480.0,10.0,0.0
1518,85.0,0.0,480.0,0.0,0.0
1519,85.0,660.0,480.0,11.0,0.0
1520,61.0,0.0,480.0,6.0,0.0
1521,73.0,0.0,480.0,6.0,0.0
1522,68.0,0.0,15.0,1.0,0.0
1523,49.0,0.0,480.0,3.0,0.0
1524,49.0,0.0,480.0,7.0,0.0
1525,37.0,0.0,480.0,4.0,0.0
1526,76.0,0.0,480.0,1.0,0.0
1527,66.0,0.0,480.0,13.0,0.0
1528,75.0,150.0,180.0,0.0,0.0
1529,78.0,0.0,480.0,12.0,0.0
1530,80.0,0.0,480.0,11.0,0.0
1531,76.0,150.0,180.0,0.0,0.0
1532,78.0,90.0,450.0,0.0,0.0
1533,68.0,0.0,15.0,5.0,0.0
1534,82.0,0.0,240.0,11.0,0.0
1535,63.0,240.0,15.0,13.0,0.0
1536,56.0,0.0,15.0,5.0,0.0
1537,75.0,0.0,15.0,12.0,0.0
1538,66.0,0.0,240.0,13.0,0.0
1539,76.0,120.0,120.0,0.0,0.0
1540,68.0,30.0,15.0,5.0,0.0
1541,84.0,0.0,240.0,11.0,0.0
1542,80.0,0.0,15.0,11.0,0.0
1543,78.0,0.0,15.0,12.0,0.0
1544,75.0,0.0,15.0,12.0,0.0
1545,56.0,480.0,240.0,5.0,0.0
1546,63.0,0.0,240.0,13.0,0.0
1547,66.0,0.0,240.0,13.0,0.0
1548,75.0,0.0,120.0,0.0,0.0
1549,73.0,0.0,480.0,0.0,0.0
1550,80.0,0.0,480.0,11.0,0.0
1551,76.0,0.0,480.0,12.0,0.0
1552,85.0,0.0,480.0,11.0,0.0
1553,73.0,620.0,480.0,12.0,0.0
1554,64.0,0.0,480.0,13.0,0.0
1555,68.0,0.0,15.0,5.0,0.0
1556,61.0,0.0,480.0,13.0,0.0
1557,32.0,160.0,480.0,4.0,0.0
1558,32.0,0.0,480.0,3.0,0.0
1559,63.0,100.0,120.0,1.0,0.0
1560,64.0,240.0,120.0,1.0,0.0
1561,66.0,60.0,510.0,1.0,0.0
1562,34.0,20.0,240.0,3.0,0.0
1563,80.0,0.0,960.0,12.0,0.0
1564,68.0,0.0,960.0,13.0,0.0
1565,80.0,80.0,150.0,0.0,0.0
1566,34.0,0.0,240.0,4.0,0.0
1567,78.0,40.0,150.0,0.0,0.0
1568,64.0,120.0,120.0,1.0,0.0
1569,36.0,160.0,240.0,4.0,0.0
1570,36.0,0.0,240.0,3.0,0.0
1571,75.0,0.0,150.0,0.0,0.0
1572,63.0,0.0,120.0,1.0,0.0
1573,37.0,0.0,480.0,3.0,0.0
1574,56.0,0.0,1920.0,2.0,0.0
1575,80.0,160.0,150.0,0.0,0.0
1576,53.0,160.0,1920.0,2.0,0.0
1577,61.0,0.0,1920.0,1.0,0.0
1578,37.0,160.0,480.0,4.0,0.0
1579,77.0,160.0,150.0,0.0,0.0
1580,73.0,0.0,150.0,0.0,0.0
1581,77.0,0.0,480.0,12.0,0.0
1582,65.0,160.0,480.0,13.0,0.0
1583,77.0,80.0,150.0,0.0,0.0
1584,49.0,80.0,240.0,4.0,0.0
1585,73.0,160.0,150.0,0.0,0.0
1586,49.0,0.0,15.0,3.0,0.0
1587,49.0,0.0,240.0,4.0,0.0
1588,68.0,0.0,150.0,0.0,0.0
1589,61.0,0.0,480.0,13.0,0.0
1590,73.0,160.0,150.0,0.0,0.0
1591,73.0,0.0,480.0,12.0,0.0
1592,37.0,0.0,480.0,3.0,0.0
1593,37.0,0.0,480.0,4.0,0.0
1594,68.0,160.0,150.0,0.0,0.0
1595,65.0,160.0,150.0,0.0,0.0
1596,77.0,0.0,480.0,12.0,0.0
1597,49.0,0.0,240.0,3.0,0.0
1598,65.0,0.0,480.0,13.0,0.0
1599,77.0,80.0,150.0,0.0,0.0
1600,73.0,160.0,150.0,0.0,0.0
1601,49.0,0.0,240.0,3.0,0.0
1602,49.0,80.0,15.0,4.0,0.0
1603,68.0,0.0,150.0,0.0,0.0
1604,37.0,0.0,480.0,4.0,0.0
1605,54.0,0.0,1440.0,2.0,0.0
1606,63.0,0.0,1440.0,1.0,0.0
1607,77.0,0.0,480.0,12.0,0.0
1608,58.0,0.0,1440.0,2.0,0.0
1609,77.0,160.0,150.0,0.0,0.0
1610,37.0,160.0,480.0,3.0,0.0
1611,65.0,0.0,480.0,13.0,0.0
1612,70.0,160.0,150.0,0.0,0.0
1613,66.0,0.0,150.0,0.0,0.0
1614,49.0,80.0,240.0,4.0,0.0
1615,75.0,80.0,150.0,0.0,0.0
1616,63.0,0.0,960.0,13.0,0.0
1617,66.0,0.0,960.0,12.0,0.0
1618,75.0,0.0,960.0,12.0,0.0
1619,54.0,0.0,960.0,13.0,0.0
1620,70.0,160.0,150.0,0.0,0.0
1621,49.0,0.0,15.0,3.0,0.0
1622,49.0,160.0,240.0,4.0,0.0
1623,66.0,0.0,150.0,0.0,0.0
1624,37.0,160.0,480.0,3.0,0.0
1625,37.0,0.0,480.0,4.0,0.0
1626,75.0,160.0,150.0,0.0,0.0
1627,70.0,160.0,150.0,0.0,0.0
1628,66.0,0.0,150.0,0.0,0.0
1629,73.0,80.0,150.0,0.0,0.0
1630,49.0,80.0,240.0,4.0,0.0
1631,53.0,0.0,240.0,2.0,0.0
1632,56.0,0.0,240.0,2.0,0.0
1633,53.0,0.0,480.0,13.0,0.0
1634,61.0,0.0,480.0,1.0,0.0
1635,65.0,0.0,480.0,12.0,0.0
1636,73.0,0.0,480.0,12.0,0.0
1637,61.0,160.0,480.0,13.0,0.0
1638,65.0,160.0,150.0,0.0,0.0
1639,49.0,0.0,15.0,3.0,0.0
1640,65.0,0.0,240.0,2.0,0.0
1641,49.0,0.0,240.0,4.0,0.0
1642,73.0,0.0,150.0,0.0,0.0
1643,63.0,160.0,150.0,0.0,0.0
1644,60.0,0.0,480.0,13.0,0.0
1645,37.0,0.0,480.0,4.0,0.0
1646,60.0,0.0,480.0,1.0,0.0
1647,63.0,0.0,480.0,2.0,0.0
1648,51.0,0.0,480.0,13.0,0.0
1649,66.0,160.0,480.0,2.0,0.0
1650,37.0,0.0,480.0,3.0,0.0
1651,72.0,0.0,480.0,12.0,0.0
1652,63.0,0.0,480.0,12.0,0.0
1653,66.0,160.0,150.0,0.0,0.0
1654,72.0,0.0,150.0,0.0,0.0
1655,61.0,0.0,480.0,1.0,0.0
1656,73.0,80.0,150.0,0.0,0.0
1657,73.0,0.0,480.0,12.0,0.0
1658,65.0,0.0,480.0,12.0,0.0
1659,65.0,0.0,240.0,2.0,0.0
1660,61.0,0.0,240.0,2.0,0.0
1661,53.0,0.0,480.0,13.0,0.0
1662,61.0,160.0,480.0,13.0,0.0
1663,49.0,0.0,240.0,4.0,0.0
1664,65.0,160.0,150.0,0.0,0.0
1665,53.0,0.0,240.0,2.0,0.0
1666,56.0,0.0,240.0,2.0,0.0
1667,49.0,80.0,15.0,3.0,0.0
1668,49.0,0.0,240.0,4.0,0.0
1669,73.0,0.0,150.0,0.0,0.0
1670,58.0,0.0,480.0,2.0,0.0
1671,54.0,0.0,480.0,2.0,0.0
1672,66.0,160.0,150.0,0.0,0.0
1673,75.0,0.0,480.0,12.0,0.0
1674,66.0,0.0,480.0,12.0,0.0
1675,37.0,0.0,480.0,4.0,0.0
1676,54.0,0.0,480.0,13.0,0.0
1677,63.0,0.0,480.0,13.0,0.0
1678,61.0,160.0,480.0,1.0,0.0
1679,37.0,0.0,480.0,3.0,0.0
1680,70.0,160.0,150.0,0.0,0.0
1681,75.0,0.0,150.0,0.0,0.0
1682,56.0,160.0,480.0,13.0,0.0
1683,65.0,0.0,480.0,13.0,0.0
1684,77.0,80.0,150.0,0.0,0.0
1685,77.0,0.0,480.0,12.0,0.0
1686,56.0,0.0,480.0,2.0,0.0
1687,68.0,0.0,480.0,12.0,0.0
1688,59.0,0.0,480.0,1.0,0.0
1689,49.0,0.0,240.0,4.0,0.0
1690,68.0,160.0,150.0,0.0,0.0
1691,49.0,80.0,15.0,3.0,0.0
1692,49.0,0.0,240.0,4.0,0.0
1693,77.0,0.0,150.0,0.0,0.0
1694,70.0,160.0,150.0,0.0,0.0
1695,37.0,0.0,480.0,3.0,0.0
1696,58.0,0.0,480.0,13.0,0.0
1697,66.0,0.0,480.0,13.0,0.0
1698,70.0,0.0,480.0,12.0,0.0
1699,78.0,0.0,480.0,12.0,0.0
1700,37.0,0.0,480.0,4.0,0.0
1701,58.0,0.0,480.0,2.0,0.0
1702,61.0,160.0,480.0,1.0,0.0
1703,73.0,160.0,150.0,0.0,0.0
1704,78.0,0.0,150.0,0.0,0.0
1705,72.0,0.0,480.0,12.0,0.0
1706,80.0,0.0,480.0,12.0,0.0
1707,68.0,160.0,480.0,13.0,0.0
1708,80.0,80.0,150.0,0.0,0.0
1709,49.0,0.0,240.0,4.0,0.0
1710,60.0,0.0,480.0,2.0,0.0
1711,60.0,0.0,480.0,13.0,0.0
1712,72.0,160.0,150.0,0.0,0.0
1713,49.0,0.0,240.0,4.0,0.0
1714,49.0,80.0,15.0,3.0,0.0
1715,80.0,0.0,150.0,0.0,0.0
1716,63.0,0.0,15.0,1.0,0.0
1717,60.0,0.0,480.0,2.0,0.0
1718,75.0,0.0,480.0,12.0,0.0
1719,49.0,0.0,15.0,3.0,0.0
1720,49.0,160.0,480.0,4.0,0.0
1721,78.0,0.0,480.0,12.0,0.0
1722,78.0,160.0,150.0,0.0,0.0
1723,66.0,0.0,480.0,13.0,0.0
1724,63.0,0.0,480.0,13.0,0.0
1725,72.0,160.0,150.0,0.0,0.0
1726,75.0,0.0,150.0,0.0,0.0
1727,73.0,80.0,150.0,0.0,0.0
1728,61.0,0.0,240.0,13.0,0.0
1729,61.0,0.0,240.0,1.0,0.0
1730,56.0,0.0,240.0,2.0,0.0
1731,73.0,0.0,240.0,12.0,0.0
1732,77.0,160.0,150.0,0.0,0.0
1733,61.0,0.0,15.0,4.0,0.0
1734,77.0,0.0,15.0,12.0,0.0
1735,71.0,0.0,240.0,1.0,0.0
1736,61.0,0.0,15.0,3.0,0.0
1737,65.0,80.0,15.0,13.0,0.0
1738,56.0,0.0,15.0,2.0,0.0
1739,59.0,0.0,15.0,1.0,0.0
1740,71.0,0.0,480.0,1.0,0.0
1741,68.0,0.0,15.0,13.0,0.0
1742,85.0,0.0,15.0,0.0,0.0
1743,49.0,0.0,480.0,3.0,0.0
1744,49.0,0.0,480.0,4.0,0.0
1745,65.0,0.0,15.0,13.0,0.0
1746,85.0,10.0,15.0,12.0,0.0
1747,77.0,0.0,15.0,12.0,0.0
1748,77.0,160.0,150.0,0.0,0.0
1749,73.0,0.0,150.0,0.0,0.0
1750,92.0,0.0,1920.0,10.0,0.0
1751,95.0,0.0,1920.0,10.0,0.0
1752,61.0,0.0,240.0,3.0,0.0
1753,59.0,0.0,15.0,1.0,0.0
1754,53.0,160.0,1920.0,2.0,0.0
1755,73.0,0.0,4320.0,6.0,0.0
1756,61.0,160.0,4320.0,6.0,0.0
1757,83.0,0.0,1920.0,11.0,0.0
1758,80.0,0.0,1920.0,11.0,0.0
1759,80.0,0.0,480.0,12.0,0.0
1760,71.0,0.0,1680.0,1.0,0.0
1761,80.0,80.0,150.0,0.0,0.0
1762,77.0,160.0,150.0,0.0,0.0
1763,61.0,80.0,15.0,4.0,0.0
1764,61.0,0.0,240.0,3.0,0.0
1765,71.0,0.0,150.0,0.0,0.0
1766,73.0,0.0,480.0,12.0,0.0
1767,49.0,0.0,480.0,4.0,0.0
1768,77.0,160.0,150.0,0.0,0.0
1769,77.0,160.0,15.0,12.0,0.0
1770,49.0,0.0,480.0,3.0,0.0
1771,61.0,0.0,480.0,13.0,0.0
1772,71.0,160.0,150.0,0.0,0.0
1773,68.0,0.0,150.0,0.0,0.0
1774,77.0,0.0,15.0,12.0,0.0
1775,80.0,0.0,480.0,12.0,0.0
1776,65.0,160.0,15.0,13.0,0.0
1777,68.0,0.0,480.0,13.0,0.0
1778,80.0,80.0,150.0,0.0,0.0
1779,77.0,160.0,150.0,0.0,0.0
1780,61.0,80.0,15.0,3.0,0.0
1781,61.0,0.0,15.0,4.0,0.0
1782,71.0,0.0,150.0,0.0,0.0
1783,77.0,0.0,480.0,12.0,0.0
1784,65.0,0.0,480.0,13.0,0.0
1785,68.0,0.0,480.0,13.0,0.0
1786,49.0,0.0,480.0,4.0,0.0
1787,80.0,0.0,480.0,12.0,0.0
1788,80.0,80.0,150.0,0.0,0.0
1789,49.0,0.0,480.0,3.0,0.0
1790,77.0,160.0,150.0,0.0,0.0
1791,71.0,0.0,240.0,1.0,0.0
1792,71.0,0.0,150.0,0.0,0.0
1793,70.0,80.0,150.0,0.0,0.0
1794,70.0,0.0,960.0,13.0,0.0
1795,61.0,0.0,15.0,1.0,0.0
1796,78.0,0.0,960.0,12.0,0.0
1797,61.0,0.0,240.0,3.0,0.0
1798,70.0,0.0,960.0,1.0,0.0
1799,94.0,0.0,960.0,10.0,0.0
1800,90.0,0.0,960.0,10.0,0.0
1801,82.0,0.0,960.0,12.0,0.0
1802,82.0,0.0,240.0,11.0,0.0
1803,66.0,0.0,960.0,13.0,0.0
1804,78.0,80.0,240.0,11.0,0.0
1805,54.0,160.0,960.0,2.0,0.0
1806,78.0,160.0,150.0,0.0,0.0
1807,61.0,0.0,15.0,4.0,0.0
1808,61.0,160.0,240.0,3.0,0.0
1809,80.0,0.0,150.0,0.0,0.0
1810,49.0,0.0,480.0,4.0,0.0
1811,49.0,0.0,480.0,3.0,0.0
1812,82.0,160.0,150.0,0.0,0.0
1813,78.0,160.0,150.0,0.0,0.0
1814,70.0,0.0,150.0,0.0,0.0
1815,77.0,0.0,480.0,12.0,0.0
1816,68.0,80.0,150.0,0.0,0.0
1817,80.0,160.0,480.0,12.0,0.0
1818,61.0,0.0,240.0,4.0,0.0
1819,61.0,0.0,15.0,1.0,0.0
1820,89.0,0.0,480.0,10.0,0.0
1821,92.0,0.0,480.0,10.0,0.0
1822,65.0,0.0,480.0,13.0,0.0
1823,68.0,0.0,480.0,13.0,0.0
1824,56.0,0.0,480.0,2.0,0.0
1825,77.0,160.0,150.0,0.0,0.0
1826,61.0,80.0,15.0,3.0,0.0
1827,61.0,0.0,240.0,4.0,0.0
1828,80.0,0.0,150.0,0.0,0.0
1829,46.0,0.0,240.0,3.0,0.0
1830,78.0,80.0,150.0,0.0,0.0
1831,63.0,0.0,480.0,13.0,0.0
1832,75.0,0.0,480.0,12.0,0.0
1833,58.0,0.0,240.0,2.0,0.0
1834,66.0,0.0,480.0,13.0,0.0
1835,78.0,0.0,480.0,12.0,0.0
1836,46.0,0.0,240.0,4.0,0.0
1837,87.0,0.0,480.0,10.0,0.0
1838,61.0,80.0,240.0,1.0,0.0
1839,90.0,0.0,480.0,10.0,0.0
1840,75.0,160.0,150.0,0.0,0.0
1841,48.0,0.0,240.0,3.0,0.0
1842,60.0,0.0,240.0,2.0,0.0
1843,48.0,0.0,240.0,4.0,0.0
1844,63.0,0.0,240.0,1.0,0.0
1845,85.0,0.0,480.0,10.0,0.0
1846,61.0,80.0,240.0,2.0,0.0
1847,85.0,0.0,480.0,11.0,0.0
1848,73.0,0.0,480.0,12.0,0.0
1849,77.0,0.0,480.0,12.0,0.0
1850,50.0,0.0,240.0,3.0,0.0
1851,89.0,0.0,480.0,10.0,0.0
1852,89.0,0.0,480.0,11.0,0.0
1853,68.0,10.0,15.0,0.0,0.0
1854,61.0,0.0,480.0,13.0,0.0
1855,65.0,0.0,480.0,13.0,0.0
1856,73.0,160.0,150.0,0.0,0.0
1857,49.0,0.0,15.0,4.0,0.0
1858,65.0,0.0,15.0,1.0,0.0
1859,50.0,0.0,240.0,3.0,0.0
1860,77.0,0.0,150.0,0.0,0.0
1861,56.0,0.0,15.0,2.0,0.0
1862,51.0,0.0,480.0,4.0,0.0
1863,63.0,0.0,960.0,5.0,0.0
1864,72.0,0.0,480.0,12.0,0.0
1865,75.0,0.0,960.0,5.0,0.0
1866,60.0,80.0,240.0,1.0,0.0
1867,51.0,0.0,480.0,3.0,0.0
1868,75.0,0.0,480.0,12.0,0.0
1869,87.0,0.0,480.0,11.0,0.0
1870,75.0,80.0,150.0,0.0,0.0
1871,63.0,0.0,480.0,13.0,0.0
1872,60.0,0.0,480.0,13.0,0.0
1873,84.0,0.0,480.0,11.0,0.0
1874,84.0,0.0,480.0,10.0,0.0
1875,87.0,0.0,480.0,10.0,0.0
1876,72.0,160.0,150.0,0.0,0.0
1877,60.0,0.0,240.0,2.0,0.0
1878,68.0,160.0,150.0,0.0,0.0
1879,79.0,0.0,480.0,12.0,0.0
1880,70.0,0.0,480.0,12.0,0.0
1881,82.0,0.0,480.0,11.0,0.0
1882,85.0,0.0,480.0,11.0,0.0
1883,94.0,0.0,480.0,10.0,0.0
1884,63.0,0.0,240.0,4.0,0.0
1885,61.0,80.0,240.0,2.0,0.0
1886,82.0,0.0,480.0,10.0,0.0
1887,67.0,0.0,480.0,13.0,0.0
1888,58.0,160.0,480.0,13.0,0.0
1889,63.0,0.0,15.0,1.0,0.0
1890,70.0,80.0,150.0,0.0,0.0
1891,73.0,160.0,150.0,0.0,0.0
1892,61.0,0.0,240.0,1.0,0.0
1893,63.0,0.0,15.0,3.0,0.0
1894,58.0,0.0,240.0,2.0,0.0
1895,63.0,0.0,240.0,4.0,0.0
1896,79.0,0.0,150.0,0.0,0.0
1897,68.0,0.0,480.0,13.0,0.0
1898,80.0,0.0,480.0,11.0,0.0
1899,84.0,0.0,480.0,11.0,0.0
1900,80.0,0.0,960.0,12.0,0.0
1901,72.0,0.0,960.0,12.0,0.0
1902,56.0,0.0,480.0,2.0,0.0
1903,80.0,0.0,480.0,10.0,0.0
1904,60.0,0.0,480.0,1.0,0.0
1905,92.0,0.0,480.0,10.0,0.0
1906,56.0,0.0,480.0,3.0,0.0
1907,56.0,0.0,480.0,4.0,0.0
1908,56.0,0.0,2880.0,5.0,0.0
1909,80.0,160.0,150.0,0.0,0.0
1910,60.0,0.0,480.0,13.0,0.0
1911,68.0,0.0,2880.0,5.0,0.0
1912,75.0,160.0,150.0,0.0,0.0
1913,72.0,160.0,150.0,0.0,0.0
1914,68.0,0.0,240.0,3.0,0.0
1915,80.0,80.0,150.0,0.0,0.0
1916,56.0,0.0,480.0,13.0,0.0
1917,60.0,0.0,480.0,13.0,0.0
1918,68.0,0.0,480.0,2.0,0.0
1919,72.0,0.0,480.0,1.0,0.0
1920,75.0,160.0,150.0,0.0,0.0
1921,68.0,80.0,15.0,4.0,0.0
1922,68.0,0.0,240.0,3.0,0.0
1923,72.0,0.0,150.0,0.0,0.0
1924,58.0,30.0,960.0,13.0,0.0
1925,70.0,0.0,960.0,2.0,0.0
1926,61.0,160.0,1440.0,13.0,0.0
1927,56.0,0.0,480.0,3.0,0.0
1928,73.0,0.0,960.0,1.0,0.0
1929,63.0,0.0,15.0,1.0,0.0
1930,82.0,160.0,150.0,0.0,0.0
1931,44.0,160.0,480.0,4.0,0.0
1932,75.0,160.0,150.0,0.0,0.0
1933,73.0,0.0,150.0,0.0,0.0
1934,56.0,0.0,240.0,4.0,0.0
1935,68.0,0.0,240.0,3.0,0.0
1936,82.0,80.0,150.0,0.0,0.0
1937,75.0,130.0,150.0,0.0,0.0
1938,56.0,160.0,240.0,4.0,0.0
1939,85.0,80.0,15.0,12.0,0.0
1940,68.0,0.0,240.0,3.0,0.0
1941,73.0,0.0,150.0,0.0,0.0
1942,56.0,30.0,960.0,13.0,0.0
1943,72.0,0.0,960.0,1.0,0.0
1944,80.0,160.0,150.0,0.0,0.0
1945,85.0,0.0,150.0,12.0,0.0
1946,68.0,0.0,960.0,2.0,0.0
1947,56.0,0.0,480.0,3.0,0.0
1948,60.0,0.0,960.0,13.0,0.0
1949,63.0,0.0,960.0,1.0,0.0
1950,44.0,0.0,480.0,4.0,0.0
1951,84.0,0.0,150.0,12.0,0.0
1952,75.0,160.0,150.0,0.0,0.0
1953,82.0,0.0,150.0,12.0,0.0
1954,72.0,0.0,150.0,0.0,0.0
1955,80.0,80.0,150.0,12.0,0.0
1956,80.0,0.0,150.0,0.0,0.0
1957,75.0,130.0,150.0,0.0,0.0
1958,79.0,0.0,150.0,12.0,0.0
1959,56.0,80.0,15.0,4.0,0.0
1960,68.0,0.0,15.0,3.0,0.0
1961,72.0,160.0,150.0,0.0,0.0
1962,77.0,0.0,150.0,12.0,0.0
1963,58.0,20.0,960.0,13.0,0.0
1964,75.0,0.0,480.0,12.0,0.0
1965,56.0,0.0,480.0,3.0,0.0
1966,70.0,160.0,960.0,2.0,0.0
1967,61.0,10.0,960.0,13.0,0.0
1968,73.0,0.0,960.0,1.0,0.0
1969,44.0,0.0,480.0,4.0,0.0
1970,79.0,160.0,150.0,0.0,0.0
1971,73.0,160.0,150.0,0.0,0.0
1972,70.0,160.0,150.0,0.0,0.0
1973,77.0,0.0,240.0,12.0,0.0
1974,75.0,80.0,150.0,0.0,0.0
1975,73.0,130.0,150.0,0.0,0.0
1976,68.0,80.0,15.0,3.0,0.0
1977,73.0,0.0,15.0,5.0,0.0
1978,56.0,0.0,15.0,4.0,0.0
1979,79.0,0.0,240.0,12.0,0.0
1980,70.0,0.0,150.0,0.0,0.0
1981,56.0,30.0,960.0,13.0,0.0
1982,72.0,160.0,960.0,1.0,0.0
1983,63.0,0.0,15.0,1.0,0.0
1984,44.0,0.0,480.0,4.0,0.0
1985,56.0,0.0,480.0,3.0,0.0
1986,73.0,160.0,150.0,5.0,0.0
1987,68.0,0.0,150.0,0.0,0.0
1988,68.0,0.0,960.0,2.0,0.0
1989,60.0,0.0,960.0,13.0,0.0
1990,80.0,0.0,480.0,12.0,0.0
1991,70.0,0.0,150.0,0.0,0.0
1992,72.0,160.0,150.0,5.0,0.0
1993,68.0,0.0,480.0,3.0,0.0
1994,75.0,0.0,150.0,0.0,0.0
1995,70.0,160.0,150.0,5.0,0.0
1996,56.0,80.0,240.0,4.0,0.0
1997,80.0,80.0,150.0,12.0,0.0
1998,70.0,0.0,150.0,0.0,0.0
1999,68.0,0.0,150.0,5.0,0.0
2000,75.0,0.0,150.0,0.0,0.0
2001,67.0,130.0,150.0,5.0,0.0
2002,82.0,0.0,150.0,12.0,0.0
2003,68.0,0.0,240.0,3.0,0.0
2004,56.0,0.0,240.0,4.0,0.0
2005,80.0,0.0,150.0,0.0,0.0
2006,84.0,0.0,150.0,12.0,0.0
2007,65.0,0.0,150.0,5.0,0.0
2008,58.0,30.0,960.0,13.0,0.0
2009,82.0,160.0,150.0,0.0,0.0
2010,63.0,0.0,15.0,1.0,0.0
2011,73.0,0.0,960.0,1.0,0.0
2012,56.0,0.0,480.0,3.0,0.0
2013,70.0,0.0,960.0,2.0,0.0
2014,44.0,160.0,480.0,4.0,0.0
2015,85.0,0.0,720.0,12.0,0.0
2016,61.0,160.0,960.0,13.0,0.0
2017,63.0,0.0,480.0,5.0,0.0
2018,75.0,160.0,150.0,0.0,0.0
2019,73.0,0.0,150.0,0.0,0.0
2020,82.0,80.0,150.0,0.0,0.0
2021,68.0,0.0,15.0,3.0,0.0
2022,65.0,80.0,240.0,5.0,0.0
2023,75.0,130.0,150.0,0.0,0.0
2024,56.0,0.0,15.0,4.0,0.0
2025,67.0,0.0,240.0,5.0,0.0
2026,73.0,0.0,150.0,0.0,0.0
2027,56.0,30.0,480.0,13.0,0.0
2028,44.0,0.0,480.0,4.0,0.0
2029,60.0,0.0,480.0,13.0,0.0
2030,56.0,0.0,480.0,3.0,0.0
2031,80.0,0.0,150.0,0.0,0.0
2032,63.0,0.0,15.0,1.0,0.0
2033,72.0,0.0,480.0,1.0,0.0
2034,68.0,0.0,480.0,2.0,0.0
2035,68.0,0.0,480.0,5.0,0.0
2036,85.0,0.0,15.0,12.0,0.0
2037,75.0,0.0,150.0,0.0,0.0
2038,84.0,130.0,150.0,12.0,0.0
2039,72.0,160.0,150.0,0.0,0.0
2040,82.0,0.0,150.0,12.0,0.0
2041,68.0,0.0,240.0,3.0,0.0
2042,56.0,80.0,240.0,4.0,0.0
2043,63.0,0.0,480.0,13.0,0.0
2044,80.0,0.0,150.0,12.0,0.0
2045,68.0,0.0,150.0,5.0,0.0
2046,60.0,0.0,480.0,1.0,0.0
2047,80.0,80.0,150.0,0.0,0.0
2048,79.0,0.0,150.0,12.0,0.0
2049,75.0,160.0,150.0,0.0,0.0
2050,67.0,0.0,150.0,5.0,0.0
2051,56.0,0.0,240.0,4.0,0.0
2052,68.0,0.0,240.0,3.0,0.0
2053,72.0,0.0,150.0,0.0,0.0
2054,59.0,0.0,960.0,1.0,0.0
2055,80.0,160.0,150.0,0.0,0.0
2056,68.0,0.0,15.0,5.0,0.0
2057,41.0,0.0,480.0,4.0,0.0
2058,74.0,160.0,960.0,11.0,0.0
2059,80.0,160.0,15.0,12.0,0.0
2060,80.0,0.0,1440.0,11.0,0.0
2061,62.0,0.0,960.0,13.0,0.0
2062,74.0,0.0,960.0,12.0,0.0
2063,53.0,160.0,480.0,3.0,0.0
2064,74.0,160.0,150.0,0.0,0.0
2065,71.0,0.0,150.0,0.0,0.0
2066,68.0,80.0,150.0,0.0,0.0
2067,71.0,160.0,150.0,0.0,0.0
2068,65.0,0.0,15.0,3.0,0.0
2069,53.0,80.0,15.0,4.0,0.0
2070,74.0,0.0,150.0,0.0,0.0
2071,68.0,160.0,150.0,0.0,0.0
2072,63.0,0.0,960.0,13.0,0.0
2073,42.0,160.0,480.0,4.0,0.0
2074,75.0,0.0,960.0,12.0,0.0
2075,54.0,0.0,480.0,3.0,0.0
2076,75.0,0.0,960.0,11.0,0.0
2077,60.0,0.0,960.0,1.0,0.0
2078,72.0,160.0,150.0,0.0,0.0
2079,75.0,0.0,150.0,0.0,0.0
2080,82.0,80.0,240.0,11.0,0.0
2081,70.0,0.0,240.0,5.0,0.0
2082,82.0,0.0,240.0,12.0,0.0
2083,80.0,80.0,150.0,0.0,0.0
2084,54.0,0.0,240.0,4.0,0.0
2085,75.0,160.0,150.0,0.0,0.0
2086,68.0,160.0,240.0,5.0,0.0
2087,54.0,0.0,240.0,4.0,0.0
2088,66.0,0.0,15.0,3.0,0.0
2089,80.0,0.0,240.0,11.0,0.0
2090,72.0,0.0,150.0,0.0,0.0
2091,74.0,0.0,960.0,11.0,0.0
2092,80.0,0.0,1440.0,11.0,0.0
2093,41.0,0.0,480.0,4.0,0.0
2094,62.0,160.0,960.0,13.0,0.0
2095,80.0,160.0,150.0,0.0,0.0
2096,59.0,0.0,960.0,1.0,0.0
2097,74.0,0.0,960.0,12.0,0.0
2098,80.0,0.0,15.0,12.0,0.0
2099,68.0,0.0,1440.0,5.0,0.0
2100,53.0,160.0,480.0,3.0,0.0
2101,74.0,160.0,150.0,0.0,0.0
2102,71.0,0.0,150.0,0.0,0.0
2103,68.0,80.0,150.0,0.0,0.0
2104,65.0,0.0,240.0,3.0,0.0
2105,71.0,160.0,150.0,0.0,0.0
2106,53.0,80.0,15.0,4.0,0.0
2107,65.0,0.0,240.0,3.0,0.0
2108,74.0,0.0,150.0,0.0,0.0
2109,75.0,0.0,960.0,12.0,0.0
2110,75.0,0.0,960.0,11.0,0.0
2111,68.0,160.0,150.0,0.0,0.0
2112,60.0,0.0,960.0,1.0,0.0
2113,42.0,0.0,480.0,4.0,0.0
2114,54.0,160.0,480.0,3.0,0.0
2115,63.0,0.0,960.0,13.0,0.0
2116,72.0,160.0,150.0,0.0,0.0
2117,75.0,0.0,150.0,0.0,0.0
2118,84.0,80.0,150.0,12.0,0.0
2119,72.0,0.0,150.0,5.0,0.0
2120,84.0,0.0,150.0,11.0,0.0
2121,80.0,0.0,150.0,0.0,0.0
2122,75.0,160.0,150.0,0.0,0.0
2123,82.0,0.0,150.0,12.0,0.0
2124,82.0,0.0,150.0,11.0,0.0
2125,70.0,0.0,150.0,5.0,0.0
2126,54.0,0.0,15.0,4.0,0.0
2127,66.0,80.0,15.0,3.0,0.0
2128,68.0,0.0,150.0,5.0,0.0
2129,72.0,0.0,150.0,0.0,0.0
2130,80.0,0.0,150.0,11.0,0.0
2131,80.0,0.0,15.0,12.0,0.0
2132,74.0,0.0,720.0,12.0,0.0
2133,80.0,160.0,150.0,0.0,0.0
2134,53.0,0.0,480.0,3.0,0.0
2135,41.0,0.0,480.0,4.0,0.0
2136,56.0,160.0,15.0,2.0,0.0
2137,68.0,0.0,960.0,5.0,0.0
2138,59.0,160.0,480.0,1.0,0.0
2139,62.0,0.0,480.0,13.0,0.0
2140,74.0,160.0,150.0,0.0,0.0
2141,71.0,0.0,150.0,0.0,0.0
2142,53.0,30.0,480.0,13.0,0.0
2143,53.0,0.0,240.0,4.0,0.0
2144,68.0,80.0,150.0,0.0,0.0
2145,59.0,0.0,480.0,2.0,0.0
2146,71.0,0.0,480.0,1.0,0.0
2147,71.0,130.0,150.0,0.0,0.0
2148,65.0,80.0,15.0,3.0,0.0
2149,53.0,0.0,240.0,4.0,0.0
2150,71.0,0.0,240.0,12.0,0.0
2151,74.0,0.0,150.0,0.0,0.0
2152,54.0,30.0,960.0,13.0,0.0
2153,42.0,10.0,480.0,4.0,0.0
2154,68.0,0.0,15.0,13.0,0.0
2155,70.0,0.0,150.0,0.0,0.0
2156,58.0,0.0,240.0,2.0,0.0
2157,70.0,0.0,960.0,5.0,0.0
2158,70.0,0.0,480.0,12.0,0.0
2159,54.0,0.0,480.0,3.0,0.0
2160,78.0,0.0,150.0,12.0,0.0
2161,66.0,160.0,150.0,13.0,0.0
2162,75.0,0.0,150.0,0.0,0.0
2163,70.0,80.0,15.0,1.0,0.0
2164,58.0,0.0,240.0,2.0,0.0
2165,77.0,0.0,150.0,12.0,0.0
2166,65.0,0.0,150.0,13.0,0.0
2167,66.0,10.0,240.0,3.0,0.0
2168,70.0,0.0,15.0,0.0,0.0
2169,66.0,80.0,240.0,1.0,0.0
2170,80.0,0.0,150.0,12.0,0.0
2171,68.0,70.0,150.0,13.0,0.0
2172,54.0,0.0,240.0,2.0,0.0
2173,78.0,0.0,150.0,12.0,0.0
2174,66.0,130.0,150.0,13.0,0.0
2175,70.0,0.0,150.0,12.0,0.0
2176,75.0,0.0,150.0,0.0,0.0
2177,66.0,0.0,240.0,3.0,0.0
2178,58.0,0.0,240.0,2.0,0.0
2179,54.0,0.0,15.0,4.0,0.0
2180,70.0,160.0,240.0,1.0,0.0
2181,66.0,0.0,150.0,12.0,0.0
2182,77.0,0.0,150.0,12.0,0.0
2183,78.0,0.0,150.0,0.0,0.0
2184,58.0,0.0,150.0,13.0,0.0
2185,53.0,30.0,480.0,13.0,0.0
2186,53.0,80.0,240.0,2.0,0.0
2187,44.0,160.0,480.0,4.0,0.0
2188,56.0,0.0,480.0,3.0,0.0
2189,61.0,0.0,480.0,13.0,0.0
2190,65.0,0.0,240.0,1.0,0.0
2191,73.0,0.0,480.0,12.0,0.0
2192,65.0,0.0,480.0,12.0,0.0
2193,77.0,80.0,150.0,0.0,0.0
2194,73.0,130.0,150.0,0.0,0.0
2195,56.0,0.0,240.0,2.0,0.0
2196,68.0,0.0,150.0,0.0,0.0
2197,56.0,30.0,480.0,13.0,0.0
2198,68.0,0.0,240.0,3.0,0.0
2199,56.0,0.0,240.0,2.0,0.0
2200,68.0,0.0,15.0,1.0,0.0
2201,68.0,0.0,15.0,5.0,0.0
2202,63.0,0.0,480.0,13.0,0.0
2203,75.0,0.0,480.0,12.0,0.0
2204,72.0,0.0,480.0,12.0,0.0
2205,66.0,80.0,150.0,0.0,0.0
2206,72.0,130.0,150.0,0.0,0.0
2207,56.0,0.0,15.0,4.0,0.0
2208,68.0,0.0,240.0,3.0,0.0
2209,66.0,0.0,240.0,1.0,0.0
2210,54.0,0.0,240.0,2.0,0.0
2211,75.0,160.0,150.0,0.0,0.0
2212,61.0,30.0,480.0,13.0,0.0
2213,65.0,80.0,240.0,1.0,0.0
2214,53.0,0.0,240.0,2.0,0.0
2215,65.0,0.0,480.0,13.0,0.0
2216,68.0,80.0,150.0,0.0,0.0
2217,68.0,0.0,15.0,5.0,0.0
2218,56.0,0.0,15.0,5.0,0.0
2219,73.0,0.0,480.0,12.0,0.0
2220,77.0,0.0,480.0,12.0,0.0
2221,37.0,0.0,480.0,4.0,0.0
2222,49.0,0.0,480.0,3.0,0.0
2223,73.0,130.0,150.0,0.0,0.0
2224,61.0,0.0,240.0,2.0,0.0
2225,65.0,130.0,240.0,1.0,0.0
2226,77.0,0.0,150.0,0.0,0.0
2227,63.0,30.0,150.0,13.0,0.0
2228,66.0,0.0,150.0,13.0,0.0
2229,49.0,0.0,240.0,4.0,0.0
2230,78.0,0.0,150.0,0.0,0.0
2231,66.0,0.0,150.0,1.0,0.0
2232,63.0,80.0,150.0,2.0,0.0
2233,78.0,0.0,150.0,12.0,0.0
2234,75.0,0.0,150.0,12.0,0.0
2235,64.0,30.0,150.0,13.0,0.0
2236,79.0,0.0,150.0,0.0,0.0
2237,67.0,130.0,150.0,13.0,0.0
2238,76.0,0.0,150.0,12.0,0.0
2239,79.0,0.0,150.0,12.0,0.0
2240,67.0,0.0,150.0,1.0,0.0
2241,64.0,0.0,150.0,2.0,0.0
2242,61.0,50.0,15.0,3.0,0.0
2243,49.0,10.0,240.0,4.0,0.0
2244,65.0,30.0,150.0,13.0,0.0
2245,68.0,0.0,150.0,1.0,0.0
2246,80.0,0.0,150.0,12.0,0.0
2247,77.0,0.0,150.0,12.0,0.0
2248,65.0,0.0,150.0,2.0,0.0
2249,80.0,0.0,150.0,0.0,0.0
2250,68.0,0.0,150.0,13.0,0.0
2251,68.0,0.0,15.0,5.0,0.0
2252,56.0,0.0,3840.0,2.0,0.0
2253,80.0,0.0,1440.0,11.0,0.0
2254,74.0,0.0,960.0,11.0,0.0
2255,62.0,0.0,960.0,13.0,0.0
2256,59.0,0.0,960.0,1.0,0.0
2257,53.0,0.0,480.0,3.0,0.0
2258,41.0,160.0,480.0,4.0,0.0
2259,74.0,160.0,960.0,12.0,0.0
2260,80.0,0.0,1440.0,12.0,0.0
2261,80.0,310.0,15.0,0.0,0.0
2262,74.0,160.0,150.0,0.0,0.0
2263,71.0,0.0,150.0,0.0,0.0
2264,68.0,80.0,150.0,0.0,0.0
2265,71.0,160.0,150.0,0.0,0.0
2266,65.0,0.0,15.0,3.0,0.0
2267,53.0,80.0,15.0,4.0,0.0
2268,74.0,0.0,150.0,0.0,0.0
2269,68.0,160.0,150.0,0.0,0.0
2270,60.0,0.0,960.0,1.0,0.0
2271,75.0,0.0,960.0,12.0,0.0
2272,75.0,0.0,960.0,11.0,0.0
2273,42.0,0.0,480.0,4.0,0.0
2274,54.0,160.0,480.0,3.0,0.0
2275,63.0,0.0,960.0,13.0,0.0
2276,72.0,160.0,150.0,0.0,0.0
2277,75.0,0.0,150.0,0.0,0.0
2278,80.0,80.0,150.0,0.0,0.0
2279,82.0,80.0,240.0,11.0,0.0
2280,66.0,0.0,240.0,3.0,0.0
2281,82.0,0.0,240.0,12.0,0.0
2282,70.0,0.0,240.0,5.0,0.0
2283,75.0,160.0,150.0,0.0,0.0
2284,54.0,0.0,15.0,4.0,0.0
2285,66.0,160.0,240.0,3.0,0.0
2286,72.0,0.0,150.0,0.0,0.0
2287,68.0,0.0,15.0,5.0,0.0
2288,80.0,0.0,15.0,11.0,0.0
2289,74.0,0.0,960.0,11.0,0.0
2290,80.0,0.0,15.0,12.0,0.0
2291,59.0,160.0,960.0,1.0,0.0
2292,41.0,160.0,480.0,4.0,0.0
2293,74.0,0.0,960.0,12.0,0.0
2294,80.0,160.0,150.0,0.0,0.0
2295,53.0,0.0,480.0,3.0,0.0
2296,62.0,0.0,960.0,13.0,0.0
2297,74.0,160.0,150.0,0.0,0.0
2298,71.0,0.0,150.0,0.0,0.0
2299,68.0,80.0,150.0,0.0,0.0
2300,53.0,0.0,240.0,4.0,0.0
2301,71.0,160.0,150.0,0.0,0.0
2302,65.0,80.0,15.0,3.0,0.0
2303,53.0,0.0,240.0,4.0,0.0
2304,74.0,0.0,150.0,0.0,0.0
2305,75.0,0.0,960.0,12.0,0.0
2306,60.0,0.0,960.0,1.0,0.0
2307,63.0,0.0,960.0,13.0,0.0
2308,68.0,160.0,150.0,0.0,0.0
2309,42.0,160.0,480.0,4.0,0.0
2310,75.0,0.0,960.0,11.0,0.0
2311,54.0,0.0,480.0,3.0,0.0
2312,72.0,160.0,150.0,0.0,0.0
2313,75.0,0.0,150.0,0.0,0.0
2314,80.0,80.0,150.0,0.0,0.0
2315,84.0,0.0,150.0,12.0,0.0
2316,84.0,0.0,150.0,11.0,0.0
2317,72.0,0.0,150.0,5.0,0.0
2318,66.0,80.0,240.0,3.0,0.0
2319,82.0,0.0,150.0,12.0,0.0
2320,82.0,160.0,150.0,11.0,0.0
2321,70.0,0.0,150.0,5.0,0.0
2322,75.0,0.0,150.0,0.0,0.0
2323,54.0,0.0,15.0,4.0,0.0
2324,66.0,0.0,240.0,3.0,0.0
2325,68.0,0.0,150.0,5.0,0.0
2326,72.0,160.0,150.0,0.0,0.0
2327,80.0,0.0,150.0,12.0,0.0
2328,62.0,30.0,450.0,13.0,0.0
2329,59.0,0.0,480.0,1.0,0.0
2330,53.0,0.0,480.0,3.0,0.0
2331,80.0,0.0,15.0,11.0,0.0
2332,56.0,160.0,480.0,2.0,0.0
2333,41.0,0.0,480.0,4.0,0.0
2334,68.0,160.0,960.0,5.0,0.0
2335,80.0,160.0,150.0,0.0,0.0
2336,74.0,130.0,150.0,0.0,0.0
2337,71.0,0.0,150.0,0.0,0.0
2338,62.0,0.0,30.0,13.0,0.0
2339,68.0,0.0,480.0,13.0,0.0
2340,59.0,0.0,480.0,2.0,0.0
2341,56.0,0.0,480.0,5.0,0.0
2342,68.0,80.0,150.0,0.0,0.0
2343,71.0,0.0,480.0,1.0,0.0
2344,71.0,160.0,150.0,0.0,0.0
2345,40.0,0.0,15.0,4.0,0.0
2346,52.0,80.0,15.0,3.0,0.0
2347,74.0,0.0,150.0,0.0,0.0
2348,61.0,30.0,480.0,13.0,0.0
2349,73.0,0.0,960.0,5.0,0.0
2350,69.0,0.0,480.0,13.0,0.0
2351,73.0,0.0,150.0,0.0,0.0
2352,45.0,0.0,480.0,3.0,0.0
2353,92.0,0.0,15.0,10.0,0.0
2354,80.0,80.0,150.0,11.0,0.0
2355,73.0,80.0,240.0,1.0,0.0
2356,33.0,0.0,480.0,4.0,0.0
2357,81.0,130.0,150.0,11.0,0.0
2358,81.0,0.0,150.0,0.0,0.0
2359,93.0,0.0,150.0,10.0,0.0
2360,61.0,0.0,15.0,2.0,0.0
2361,61.0,0.0,240.0,1.0,0.0
2362,80.0,0.0,150.0,11.0,0.0
2363,92.0,0.0,150.0,10.0,0.0
2364,57.0,30.0,480.0,13.0,0.0
2365,61.0,0.0,480.0,13.0,0.0
2366,45.0,0.0,240.0,4.0,0.0
2367,73.0,10.0,15.0,0.0,0.0
2368,57.0,0.0,240.0,2.0,0.0
2369,69.0,0.0,240.0,1.0,0.0
2370,83.0,80.0,150.0,11.0,0.0
2371,95.0,0.0,150.0,10.0,0.0
2372,93.0,0.0,150.0,10.0,0.0
2373,78.0,130.0,150.0,0.0,0.0
2374,81.0,0.0,150.0,11.0,0.0
2375,57.0,80.0,15.0,3.0,0.0
2376,73.0,0.0,240.0,1.0,0.0
2377,45.0,0.0,240.0,4.0,0.0
2378,61.0,0.0,240.0,2.0,0.0
2379,85.0,0.0,150.0,10.0,0.0
2380,73.0,0.0,150.0,11.0,0.0
2381,81.0,160.0,150.0,0.0,0.0
2382,56.0,30.0,480.0,13.0,0.0
2383,35.0,0.0,480.0,4.0,0.0
2384,56.0,0.0,240.0,2.0,0.0
2385,76.0,0.0,480.0,11.0,0.0
2386,68.0,80.0,240.0,1.0,0.0
2387,80.0,80.0,150.0,0.0,0.0
2388,59.0,0.0,480.0,13.0,0.0
2389,47.0,0.0,480.0,3.0,0.0
2390,88.0,0.0,480.0,10.0,0.0
2391,76.0,130.0,150.0,0.0,0.0
2392,59.0,0.0,240.0,2.0,0.0
2393,71.0,0.0,150.0,0.0,0.0
2394,57.0,30.0,480.0,13.0,0.0
2395,47.0,0.0,240.0,4.0,0.0
2396,71.0,160.0,15.0,1.0,0.0
2397,80.0,80.0,240.0,11.0,0.0
2398,59.0,0.0,240.0,3.0,0.0
2399,69.0,80.0,150.0,0.0,0.0
2400,63.0,0.0,480.0,13.0,0.0
2401,71.0,0.0,15.0,5.0,0.0
2402,59.0,0.0,240.0,2.0,0.0
2403,92.0,0.0,240.0,10.0,0.0
2404,75.0,130.0,150.0,0.0,0.0
2405,90.0,0.0,240.0,10.0,0.0
2406,47.0,0.0,240.0,4.0,0.0
2407,57.0,0.0,240.0,2.0,0.0
2408,59.0,0.0,240.0,3.0,0.0
2409,78.0,0.0,240.0,11.0,0.0
2410,63.0,0.0,240.0,1.0,0.0
2411,78.0,160.0,150.0,0.0,0.0
2412,56.0,30.0,480.0,13.0,0.0
2413,56.0,0.0,480.0,2.0,0.0
2414,64.0,0.0,480.0,1.0,0.0
2415,64.0,0.0,480.0,13.0,0.0
2416,88.0,0.0,960.0,10.0,0.0
2417,71.0,0.0,1920.0,5.0,0.0
2418,76.0,0.0,960.0,11.0,0.0
2419,52.0,160.0,480.0,3.0,0.0
2420,40.0,0.0,480.0,4.0,0.0
2421,68.0,160.0,150.0,0.0,0.0
2422,76.0,130.0,150.0,0.0,0.0
2423,80.0,0.0,150.0,0.0,0.0
2424,76.0,80.0,150.0,0.0,0.0
2425,64.0,160.0,480.0,2.0,0.0
2426,59.0,0.0,2400.0,1.0,0.0
2427,68.0,0.0,2400.0,1.0,0.0
2428,80.0,160.0,150.0,0.0,0.0
2429,64.0,80.0,15.0,3.0,0.0
2430,52.0,0.0,15.0,4.0,0.0
2431,83.0,0.0,150.0,0.0,0.0
2432,40.0,0.0,480.0,4.0,0.0
2433,75.0,160.0,150.0,0.0,0.0
2434,68.0,0.0,480.0,5.0,0.0
2435,66.0,0.0,960.0,2.0,0.0
2436,52.0,0.0,480.0,3.0,0.0
2437,78.0,160.0,150.0,0.0,0.0
2438,83.0,160.0,150.0,0.0,0.0
2439,75.0,80.0,150.0,0.0,0.0
2440,52.0,0.0,240.0,4.0,0.0
2441,78.0,160.0,150.0,0.0,0.0
2442,93.0,0.0,15.0,10.0,0.0
2443,52.0,0.0,240.0,4.0,0.0
2444,64.0,80.0,15.0,3.0,0.0
2445,83.0,0.0,150.0,0.0,0.0
2446,83.0,0.0,480.0,6.0,0.0
2447,76.0,160.0,150.0,0.0,0.0
2448,64.0,0.0,960.0,2.0,0.0
2449,56.0,0.0,480.0,7.0,0.0
2450,52.0,0.0,480.0,3.0,0.0
2451,40.0,160.0,480.0,4.0,0.0
2452,93.0,0.0,150.0,10.0,0.0
2453,92.0,160.0,150.0,10.0,0.0
2454,80.0,0.0,150.0,0.0,0.0
2455,83.0,0.0,150.0,0.0,0.0
2456,90.0,0.0,150.0,10.0,0.0
2457,88.0,0.0,150.0,10.0,0.0
2458,52.0,0.0,240.0,4.0,0.0
2459,64.0,80.0,240.0,3.0,0.0
2460,76.0,80.0,150.0,0.0,0.0
2461,87.0,0.0,150.0,10.0,0.0
2462,80.0,160.0,150.0,0.0,0.0
2463,52.0,0.0,240.0,4.0,0.0
2464,64.0,160.0,240.0,3.0,0.0
2465,85.0,0.0,180.0,10.0,0.0
2466,83.0,0.0,150.0,0.0,0.0
2467,52.0,0.0,480.0,3.0,0.0
2468,40.0,0.0,480.0,4.0,0.0
2469,69.0,0.0,960.0,1.0,0.0
2470,83.0,0.0,480.0,10.0,0.0
2471,66.0,0.0,960.0,2.0,0.0
2472,69.0,0.0,720.0,13.0,0.0
2473,75.0,160.0,150.0,0.0,0.0
2474,71.0,160.0,480.0,11.0,0.0
2475,78.0,160.0,150.0,0.0,0.0
2476,83.0,0.0,150.0,0.0,0.0
2477,52.0,0.0,240.0,4.0,0.0
2478,64.0,80.0,240.0,3.0,0.0
2479,75.0,80.0,150.0,0.0,0.0
2480,73.0,0.0,240.0,11.0,0.0
2481,85.0,0.0,240.0,10.0,0.0
2482,78.0,160.0,150.0,0.0,0.0
2483,75.0,0.0,240.0,11.0,0.0
2484,52.0,0.0,240.0,4.0,0.0
2485,64.0,0.0,240.0,3.0,0.0
2486,87.0,160.0,240.0,10.0,0.0
2487,83.0,0.0,150.0,0.0,0.0
2488,40.0,0.0,480.0,4.0,0.0
2489,52.0,160.0,480.0,3.0,0.0
2490,76.0,0.0,630.0,11.0,0.0
2491,69.0,0.0,15.0,13.0,0.0
2492,76.0,160.0,150.0,0.0,0.0
2493,64.0,0.0,960.0,2.0,0.0
2494,88.0,0.0,480.0,10.0,0.0
2495,56.0,80.0,720.0,7.0,0.0
2496,83.0,0.0,480.0,6.0,0.0
2497,68.0,0.0,960.0,1.0,0.0
2498,59.0,0.0,15.0,1.0,0.0
2499,68.0,0.0,480.0,5.0,0.0
2500,68.0,160.0,150.0,13.0,0.0
2501,80.0,0.0,150.0,0.0,0.0
2502,83.0,0.0,150.0,0.0,0.0
2503,66.0,0.0,150.0,13.0,0.0
2504,88.0,80.0,150.0,10.0,0.0
2505,76.0,0.0,150.0,0.0,0.0
2506,64.0,0.0,150.0,13.0,0.0
2507,52.0,0.0,240.0,4.0,0.0
2508,80.0,0.0,150.0,0.0,0.0
2509,90.0,0.0,150.0,10.0,0.0
2510,78.0,160.0,150.0,11.0,0.0
2511,63.0,0.0,150.0,13.0,0.0
2512,64.0,0.0,15.0,3.0,0.0
2513,52.0,0.0,240.0,4.0,0.0
2514,92.0,0.0,150.0,10.0,0.0
2515,80.0,0.0,150.0,11.0,0.0
2516,61.0,0.0,150.0,13.0,0.0
2517,83.0,0.0,150.0,0.0,0.0
2518,66.0,0.0,960.0,2.0,0.0
2519,59.0,0.0,480.0,13.0,0.0
2520,81.0,0.0,720.0,11.0,0.0
2521,59.0,0.0,960.0,1.0,0.0
2522,93.0,0.0,720.0,10.0,0.0
2523,69.0,0.0,960.0,1.0,0.0
2524,75.0,160.0,150.0,0.0,0.0
2525,40.0,0.0,480.0,4.0,0.0
2526,52.0,0.0,480.0,3.0,0.0
2527,71.0,160.0,15.0,5.0,0.0
2528,78.0,160.0,150.0,0.0,0.0
2529,83.0,160.0,150.0,0.0,0.0
2530,75.0,80.0,150.0,0.0,0.0
2531,52.0,0.0,240.0,4.0,0.0
2532,63.0,80.0,240.0,13.0,0.0
2533,64.0,0.0,240.0,3.0,0.0
2534,78.0,160.0,150.0,0.0,0.0
2535,64.0,60.0,240.0,3.0,0.0
2536,81.0,0.0,240.0,11.0,0.0
2537,66.0,0.0,240.0,13.0,0.0
2538,71.0,0.0,240.0,5.0,0.0
2539,93.0,0.0,240.0,10.0,0.0
2540,52.0,0.0,240.0,4.0,0.0
2541,83.0,0.0,150.0,0.0,0.0
2542,81.0,40.0,60.0,11.0,0.0
2543,69.0,30.0,90.0,13.0,0.0
2544,93.0,130.0,120.0,10.0,0.0
2545,68.0,0.0,90.0,13.0,0.0
2546,80.0,30.0,90.0,11.0,0.0
2547,92.0,130.0,120.0,10.0,0.0
2548,90.0,130.0,120.0,10.0,0.0
2549,66.0,30.0,90.0,13.0,0.0
2550,78.0,0.0,90.0,11.0,0.0
2551,76.0,0.0,90.0,11.0,0.0
2552,64.0,30.0,90.0,13.0,0.0
2553,88.0,130.0,120.0,10.0,0.0
2554,75.0,30.0,90.0,11.0,0.0
2555,63.0,0.0,90.0,13.0,0.0
2556,87.0,130.0,120.0,10.0,0.0
2557,85.0,0.0,150.0,0.0,0.0
2558,85.0,30.0,120.0,10.0,0.0
2559,73.0,100.0,150.0,1.0,0.0
2560,61.0,0.0,90.0,13.0,0.0
2561,73.0,30.0,90.0,11.0,0.0
2562,59.0,30.0,180.0,13.0,0.0
2563,71.0,0.0,180.0,11.0,0.0
2564,83.0,50.0,120.0,0.0,0.0
2565,83.0,50.0,210.0,10.0,0.0
2566,71.0,30.0,90.0,1.0,0.0
2567,81.0,130.0,120.0,0.0,0.0
2568,69.0,30.0,90.0,1.0,0.0
2569,68.0,30.0,90.0,1.0,0.0
2570,80.0,130.0,120.0,0.0,0.0
2571,78.0,130.0,120.0,0.0,0.0
2572,66.0,30.0,90.0,1.0,0.0
2573,76.0,130.0,120.0,0.0,0.0
2574,64.0,30.0,90.0,1.0,0.0
2575,63.0,100.0,150.0,2.0,0.0
2576,75.0,30.0,120.0,0.0,0.0
2577,63.0,30.0,90.0,1.0,0.0
2578,61.0,30.0,90.0,1.0,0.0
2579,73.0,130.0,120.0,0.0,0.0
2580,61.0,0.0,120.0,2.0,0.0
2581,71.0,0.0,120.0,0.0,0.0
2582,71.0,30.0,90.0,1.0,0.0
2583,59.0,130.0,120.0,2.0,0.0
2584,69.0,130.0,120.0,0.0,0.0
2585,57.0,0.0,120.0,2.0,0.0
2586,69.0,30.0,90.0,1.0,0.0
2587,68.0,30.0,90.0,1.0,0.0
2588,56.0,130.0,120.0,2.0,0.0
2589,68.0,0.0,120.0,0.0,0.0
2590,66.0,0.0,120.0,0.0,0.0
2591,66.0,30.0,90.0,1.0,0.0
2592,54.0,130.0,120.0,2.0,0.0
2593,64.0,30.0,120.0,2.0,0.0
2594,64.0,0.0,120.0,0.0,0.0
2595,52.0,0.0,150.0,4.0,0.0
2596,64.0,130.0,150.0,3.0,0.0
2597,64.0,30.0,90.0,1.0,0.0
2598,63.0,50.0,240.0,1.0,0.0
2599,63.0,30.0,120.0,2.0,0.0
2600,63.0,0.0,120.0,3.0,0.0
2601,63.0,0.0,240.0,0.0,0.0
2602,51.0,80.0,150.0,4.0,0.0
2603,61.0,30.0,120.0,2.0,0.0
2604,61.0,0.0,120.0,3.0,0.0
2605,49.0,130.0,150.0,4.0,0.0
2606,59.0,30.0,120.0,2.0,0.0
2607,47.0,130.0,150.0,4.0,0.0
2608,59.0,0.0,120.0,3.0,0.0
2609,57.0,30.0,120.0,3.0,0.0
2610,57.0,0.0,120.0,2.0,0.0
2611,45.0,130.0,150.0,4.0,0.0
2612,56.0,30.0,120.0,3.0,0.0
2613,44.0,130.0,150.0,4.0,0.0
2614,56.0,0.0,120.0,2.0,0.0
2615,54.0,30.0,120.0,2.0,0.0
2616,42.0,130.0,150.0,4.0,0.0
2617,54.0,0.0,120.0,3.0,0.0
2618,40.0,80.0,150.0,4.0,0.0
2619,52.0,50.0,240.0,2.0,0.0
2620,52.0,30.0,120.0,3.0,0.0
2621,51.0,30.0,120.0,3.0,0.0
2622,39.0,130.0,150.0,4.0,0.0
2623,37.0,150.0,150.0,4.0,0.0
2624,49.0,30.0,120.0,3.0,0.0
2625,63.0,0.0,150.0,1.0,0.0
2626,36.0,0.0,150.0,4.0,0.0
2627,48.0,0.0,150.0,3.0,0.0
2628,68.0,30.0,150.0,0.0,0.0
2629,56.0,210.0,180.0,2.0,0.0
2630,36.0,0.0,150.0,4.0,0.0
2631,48.0,210.0,180.0,3.0,0.0
2632,56.0,0.0,180.0,2.0,0.0
2633,63.0,30.0,150.0,1.0,0.0
2634,68.0,0.0,150.0,0.0,0.0
2635,51.0,0.0,180.0,5.0,0.0
2636,68.0,20.0,150.0,0.0,0.0
2637,80.0,50.0,180.0,6.0,0.0
2638,56.0,0.0,240.0,7.0,0.0
2639,80.0,10.0,240.0,12.0,0.0
2640,68.0,10.0,180.0,12.0,0.0
2641,63.0,170.0,240.0,5.0,0.0
2642,56.0,150.0,240.0,7.0,0.0
2643,80.0,10.0,240.0,12.0,0.0
2644,68.0,10.0,180.0,12.0,0.0
2645,80.0,50.0,180.0,6.0,0.0
2646,63.0,0.0,240.0,5.0,0.0
2647,51.0,0.0,180.0,5.0,0.0
2648,80.0,0.0,180.0,10.0,0.0
2649,68.0,30.0,150.0,13.0,0.0
2650,92.0,150.0,240.0,10.0,0.0
2651,80.0,60.0,180.0,11.0,0.0
2652,80.0,0.0,180.0,11.0,0.0
2653,68.0,30.0,150.0,13.0,0.0
2654,92.0,130.0,240.0,10.0,0.0
2655,80.0,60.0,180.0,10.0,0.0
2656,76.0,0.0,960.0,11.0,0.0
2657,88.0,0.0,960.0,10.0,0.0
2658,61.0,0.0,480.0,1.0,0.0
2659,64.0,0.0,960.0,13.0,0.0
2660,76.0,150.0,15.0,0.0,0.0
2661,73.0,120.0,40.0,0.0,0.0
2662,76.0,80.0,40.0,0.0,0.0
2663,32.0,40.0,15.0,4.0,0.0
2664,61.0,0.0,240.0,1.0,0.0
2665,80.0,120.0,40.0,0.0,0.0
2666,44.0,0.0,15.0,3.0,0.0
2667,76.0,80.0,40.0,0.0,0.0
2668,61.0,0.0,240.0,1.0,0.0
2669,73.0,120.0,40.0,0.0,0.0
2670,44.0,40.0,15.0,3.0,0.0
2671,32.0,160.0,240.0,4.0,0.0
2672,76.0,80.0,40.0,0.0,0.0
2673,60.0,0.0,480.0,1.0,0.0
2674,63.0,0.0,960.0,13.0,0.0
2675,75.0,0.0,960.0,11.0,0.0
2676,68.0,0.0,150.0,0.0,0.0
2677,63.0,120.0,40.0,2.0,0.0
2678,60.0,120.0,40.0,2.0,0.0
2679,63.0,80.0,40.0,2.0,0.0
2680,68.0,120.0,40.0,2.0,0.0
2681,44.0,40.0,15.0,3.0,0.0
2682,60.0,0.0,480.0,1.0,0.0
2683,32.0,0.0,15.0,4.0,0.0
2684,63.0,120.0,40.0,2.0,0.0
2685,60.0,120.0,40.0,2.0,0.0
2686,63.0,80.0,40.0,2.0,0.0
2687,87.0,0.0,15.0,10.0,0.0
2688,75.0,20.0,120.0,11.0,0.0
2689,32.0,0.0,15.0,4.0,0.0
2690,56.0,0.0,150.0,2.0,0.0
2691,63.0,0.0,120.0,13.0,0.0
2692,64.0,30.0,120.0,13.0,0.0
2693,76.0,0.0,120.0,11.0,0.0
2694,88.0,10.0,120.0,10.0,0.0
2695,75.0,80.0,40.0,0.0,0.0
2696,72.0,120.0,40.0,0.0,0.0
2697,78.0,0.0,360.0,11.0,0.0
2698,90.0,30.0,360.0,10.0,0.0
2699,66.0,0.0,390.0,13.0,0.0
2700,75.0,80.0,40.0,0.0,0.0
2701,63.0,40.0,15.0,1.0,0.0
2702,72.0,0.0,15.0,1.0,0.0
2703,44.0,0.0,15.0,3.0,0.0
2704,80.0,90.0,40.0,0.0,0.0
2705,75.0,80.0,40.0,0.0,0.0
2706,88.0,80.0,150.0,10.0,0.0
2707,64.0,0.0,150.0,13.0,0.0
2708,76.0,0.0,150.0,11.0,0.0
2709,32.0,0.0,15.0,4.0,0.0
2710,72.0,40.0,40.0,0.0,0.0
2711,72.0,0.0,15.0,1.0,0.0
2712,44.0,0.0,15.0,3.0,0.0
2713,63.0,40.0,15.0,1.0,0.0
2714,87.0,0.0,150.0,10.0,0.0
2715,63.0,140.0,150.0,13.0,0.0
2716,75.0,0.0,150.0,11.0,0.0
2717,75.0,80.0,40.0,0.0,0.0
2718,68.0,20.0,150.0,0.0,0.0
2719,75.0,0.0,240.0,11.0,0.0
2720,44.0,0.0,15.0,3.0,0.0
2721,32.0,0.0,480.0,4.0,0.0
2722,63.0,0.0,240.0,13.0,0.0
2723,87.0,40.0,240.0,10.0,0.0
2724,64.0,80.0,40.0,2.0,0.0
2725,61.0,120.0,40.0,2.0,0.0
2726,88.0,0.0,240.0,10.0,0.0
2727,64.0,0.0,240.0,13.0,0.0
2728,76.0,0.0,240.0,11.0,0.0
2729,64.0,80.0,40.0,2.0,0.0
2730,64.0,0.0,480.0,13.0,0.0
2731,64.0,0.0,15.0,1.0,0.0
2732,73.0,40.0,15.0,1.0,0.0
2733,76.0,0.0,480.0,11.0,0.0
2734,44.0,0.0,15.0,3.0,0.0
2735,32.0,0.0,480.0,4.0,0.0
2736,68.0,120.0,40.0,2.0,0.0
2737,64.0,120.0,40.0,2.0,0.0
2738,61.0,120.0,40.0,2.0,0.0
2739,64.0,80.0,40.0,2.0,0.0
2740,88.0,0.0,15.0,10.0,0.0
2741,44.0,0.0,15.0,3.0,0.0
2742,56.0,120.0,150.0,2.0,0.0
2743,76.0,40.0,690.0,11.0,0.0
2744,64.0,0.0,720.0,13.0,0.0
2745,59.0,0.0,480.0,1.0,0.0
2746,32.0,0.0,480.0,4.0,0.0
2747,76.0,30.0,15.0,0.0,0.0
2748,71.0,120.0,40.0,0.0,0.0
2749,76.0,80.0,40.0,0.0,0.0
2750,32.0,0.0,240.0,4.0,0.0
2751,44.0,40.0,15.0,3.0,0.0
2752,80.0,120.0,40.0,0.0,0.0
2753,59.0,0.0,240.0,1.0,0.0
2754,76.0,40.0,40.0,0.0,0.0
2755,66.0,0.0,240.0,13.0,0.0
2756,46.0,0.0,240.0,3.0,0.0
2757,78.0,120.0,240.0,11.0,0.0
2758,61.0,0.0,240.0,1.0,0.0
2759,73.0,0.0,240.0,1.0,0.0
2760,34.0,0.0,240.0,4.0,0.0
2761,90.0,0.0,240.0,10.0,0.0
2762,73.0,120.0,40.0,0.0,0.0
2763,76.0,80.0,40.0,0.0,0.0
2764,68.0,0.0,480.0,1.0,0.0
2765,91.0,40.0,240.0,10.0,0.0
2766,59.0,40.0,120.0,0.0,0.0
2767,47.0,40.0,480.0,3.0,0.0
2768,35.0,0.0,480.0,4.0,0.0
2769,67.0,0.0,240.0,13.0,0.0
2770,79.0,0.0,240.0,11.0,0.0
2771,68.0,80.0,40.0,2.0,0.0
2772,92.0,0.0,210.0,10.0,0.0
2773,64.0,120.0,40.0,2.0,0.0
2774,80.0,30.0,210.0,11.0,0.0
2775,68.0,0.0,210.0,13.0,0.0
2776,68.0,50.0,40.0,2.0,0.0
2777,80.0,0.0,210.0,11.0,0.0
2778,64.0,0.0,15.0,1.0,0.0
2779,68.0,0.0,210.0,13.0,0.0
2780,35.0,0.0,480.0,4.0,0.0
2781,71.0,120.0,40.0,2.0,0.0
2782,92.0,70.0,210.0,10.0,0.0
2783,68.0,0.0,480.0,1.0,0.0
2784,68.0,50.0,40.0,2.0,0.0
2785,64.0,120.0,40.0,2.0,0.0
2786,80.0,0.0,210.0,11.0,0.0
2787,68.0,0.0,210.0,13.0,0.0
2788,92.0,30.0,210.0,10.0,0.0
2789,68.0,50.0,40.0,2.0,0.0
2790,78.0,0.0,120.0,11.0,0.0
2791,35.0,0.0,480.0,4.0,0.0
2792,47.0,0.0,15.0,3.0,0.0
2793,66.0,0.0,480.0,1.0,0.0
2794,90.0,30.0,120.0,10.0,0.0
2795,66.0,10.0,150.0,13.0,0.0
2796,59.0,0.0,150.0,2.0,0.0
2797,80.0,0.0,120.0,11.0,0.0
2798,92.0,60.0,120.0,10.0,0.0
2799,68.0,10.0,150.0,13.0,0.0
2800,78.0,50.0,40.0,0.0,0.0
2801,93.0,0.0,450.0,10.0,0.0
2802,81.0,0.0,450.0,11.0,0.0
2803,75.0,120.0,40.0,0.0,0.0
2804,69.0,0.0,390.0,13.0,0.0
2805,78.0,80.0,40.0,0.0,0.0
2806,63.0,0.0,15.0,1.0,0.0
2807,35.0,40.0,240.0,4.0,0.0
2808,47.0,40.0,15.0,3.0,0.0
2809,83.0,120.0,40.0,0.0,0.0
2810,78.0,80.0,40.0,0.0,0.0
2811,80.0,80.0,150.0,11.0,0.0
2812,68.0,0.0,150.0,13.0,0.0
2813,92.0,0.0,150.0,10.0,0.0
2814,63.0,0.0,15.0,1.0,0.0
2815,47.0,0.0,240.0,3.0,0.0
2816,66.0,0.0,15.0,1.0,0.0
2817,75.0,40.0,40.0,0.0,0.0
2818,66.0,0.0,150.0,13.0,0.0
2819,78.0,80.0,40.0,0.0,0.0
2820,90.0,0.0,15.0,10.0,0.0
2821,71.0,80.0,150.0,0.0,0.0
2822,66.0,0.0,240.0,13.0,0.0
2823,47.0,0.0,240.0,3.0,0.0
2824,35.0,0.0,15.0,4.0,0.0
2825,78.0,0.0,15.0,11.0,0.0
2826,68.0,0.0,480.0,1.0,0.0
2827,64.0,40.0,480.0,1.0,0.0
2828,68.0,0.0,40.0,2.0,0.0
2829,64.0,120.0,40.0,2.0,0.0
2830,80.0,0.0,240.0,11.0,0.0
2831,92.0,0.0,240.0,10.0,0.0
2832,68.0,80.0,40.0,2.0,0.0
2833,68.0,0.0,15.0,13.0,0.0
2834,71.0,120.0,40.0,2.0,0.0
2835,80.0,20.0,390.0,11.0,0.0
2836,92.0,220.0,420.0,10.0,0.0
2837,68.0,120.0,40.0,2.0,0.0
2838,64.0,120.0,40.0,2.0,0.0
2839,68.0,0.0,40.0,2.0,0.0
2840,68.0,0.0,720.0,13.0,0.0
2841,92.0,0.0,720.0,10.0,0.0
2842,59.0,0.0,150.0,2.0,0.0
2843,80.0,0.0,720.0,11.0,0.0
2844,71.0,120.0,40.0,0.0,0.0
2845,68.0,120.0,40.0,0.0,0.0
2846,71.0,80.0,40.0,0.0,0.0
2847,47.0,0.0,15.0,3.0,0.0
2848,68.0,0.0,15.0,1.0,0.0
2849,64.0,40.0,15.0,1.0,0.0
2850,35.0,0.0,15.0,4.0,0.0
2851,76.0,120.0,40.0,0.0,0.0
2852,68.0,80.0,40.0,0.0,0.0
2853,37.0,0.0,240.0,4.0,0.0
2854,64.0,120.0,40.0,0.0,0.0
2855,70.0,0.0,240.0,13.0,0.0
2856,94.0,0.0,240.0,10.0,0.0
2857,49.0,0.0,240.0,3.0,0.0
2858,82.0,0.0,240.0,11.0,0.0
2859,64.0,160.0,240.0,1.0,0.0
2860,70.0,80.0,40.0,0.0,0.0
2861,80.0,0.0,480.0,11.0,0.0
2862,92.0,0.0,480.0,10.0,0.0
2863,68.0,0.0,480.0,13.0,0.0
2864,70.0,0.0,150.0,0.0,0.0
2865,70.0,0.0,15.0,1.0,0.0
2866,51.0,0.0,480.0,3.0,0.0
2867,63.0,0.0,480.0,1.0,0.0
2868,70.0,120.0,40.0,2.0,0.0
2869,67.0,120.0,40.0,2.0,0.0
2870,70.0,80.0,40.0,2.0,0.0
2871,39.0,40.0,15.0,4.0,0.0
2872,91.0,40.0,240.0,10.0,0.0
2873,51.0,0.0,480.0,3.0,0.0
2874,75.0,0.0,480.0,1.0,0.0
2875,63.0,0.0,480.0,1.0,0.0
2876,67.0,0.0,240.0,13.0,0.0
2877,75.0,120.0,40.0,2.0,0.0
2878,79.0,0.0,240.0,11.0,0.0
2879,70.0,80.0,40.0,2.0,0.0
2880,67.0,120.0,40.0,2.0,0.0
2881,70.0,80.0,40.0,2.0,0.0
2882,46.0,0.0,480.0,3.0,0.0
2883,78.0,0.0,720.0,11.0,0.0
2884,66.0,0.0,15.0,1.0,0.0
2885,66.0,0.0,720.0,13.0,0.0
2886,61.0,120.0,150.0,2.0,0.0
2887,90.0,0.0,720.0,10.0,0.0
2888,73.0,0.0,40.0,0.0,0.0
2889,70.0,120.0,40.0,0.0,0.0
2890,73.0,80.0,40.0,0.0,0.0
2891,46.0,0.0,240.0,3.0,0.0
2892,61.0,0.0,15.0,1.0,0.0
2893,78.0,120.0,40.0,0.0,0.0
2894,34.0,40.0,15.0,4.0,0.0
2895,66.0,40.0,240.0,1.0,0.0
2896,73.0,80.0,40.0,0.0,0.0
2897,68.0,0.0,240.0,13.0,0.0
2898,68.0,120.0,40.0,0.0,0.0
2899,36.0,160.0,240.0,4.0,0.0
2900,48.0,0.0,240.0,3.0,0.0
2901,80.0,0.0,240.0,11.0,0.0
2902,92.0,0.0,240.0,10.0,0.0
2903,63.0,0.0,240.0,1.0,0.0
2904,75.0,80.0,40.0,0.0,0.0
2905,61.0,0.0,480.0,1.0,0.0
2906,90.0,0.0,240.0,10.0,0.0
2907,66.0,40.0,240.0,13.0,0.0
2908,68.0,0.0,15.0,1.0,0.0
2909,68.0,0.0,150.0,0.0,0.0
2910,78.0,0.0,240.0,11.0,0.0
2911,65.0,80.0,40.0,2.0,0.0
2912,77.0,0.0,240.0,11.0,0.0
2913,61.0,120.0,40.0,2.0,0.0
2914,65.0,40.0,240.0,13.0,0.0
2915,89.0,0.0,240.0,10.0,0.0
2916,65.0,80.0,40.0,2.0,0.0
2917,49.0,0.0,15.0,3.0,0.0
2918,37.0,0.0,15.0,4.0,0.0
2919,61.0,0.0,480.0,1.0,0.0
2920,68.0,0.0,480.0,1.0,0.0
2921,76.0,0.0,240.0,11.0,0.0
2922,68.0,120.0,40.0,2.0,0.0
2923,88.0,0.0,240.0,10.0,0.0
2924,64.0,40.0,240.0,13.0,0.0
2925,64.0,80.0,40.0,2.0,0.0
2926,61.0,120.0,40.0,2.0,0.0
2927,64.0,80.0,40.0,2.0,0.0
2928,56.0,0.0,150.0,2.0,0.0
2929,73.0,0.0,15.0,1.0,0.0
2930,76.0,0.0,960.0,11.0,0.0
2931,64.0,0.0,960.0,13.0,0.0
2932,88.0,0.0,960.0,10.0,0.0
2933,76.0,120.0,40.0,0.0,0.0
2934,73.0,120.0,40.0,0.0,0.0
2935,76.0,80.0,40.0,0.0,0.0
2936,32.0,40.0,15.0,4.0,0.0
2937,44.0,0.0,15.0,3.0,0.0
2938,73.0,0.0,15.0,1.0,0.0
2939,64.0,0.0,15.0,1.0,0.0
2940,80.0,120.0,40.0,0.0,0.0
2941,76.0,80.0,40.0,0.0,0.0
2942,73.0,120.0,40.0,0.0,0.0
2943,32.0,0.0,240.0,4.0,0.0
2944,61.0,160.0,240.0,1.0,0.0
2945,76.0,80.0,40.0,0.0,0.0
2946,63.0,0.0,480.0,13.0,0.0
2947,68.0,0.0,150.0,0.0,0.0
2948,44.0,0.0,15.0,3.0,0.0
2949,87.0,0.0,480.0,10.0,0.0
2950,75.0,40.0,480.0,11.0,0.0
2951,60.0,40.0,240.0,1.0,0.0
2952,32.0,0.0,240.0,4.0,0.0
2953,63.0,80.0,40.0,2.0,0.0
2954,60.0,120.0,40.0,2.0,0.0
2955,63.0,80.0,40.0,2.0,0.0
2956,64.0,0.0,480.0,13.0,0.0
2957,68.0,120.0,40.0,2.0,0.0
2958,88.0,0.0,480.0,10.0,0.0
2959,64.0,40.0,240.0,1.0,0.0
2960,73.0,0.0,240.0,1.0,0.0
2961,76.0,120.0,480.0,11.0,0.0
2962,32.0,0.0,480.0,4.0,0.0
2963,64.0,80.0,40.0,2.0,0.0
2964,61.0,120.0,40.0,2.0,0.0
2965,61.0,0.0,240.0,1.0,0.0
2966,64.0,80.0,40.0,2.0,0.0
2967,63.0,0.0,480.0,1.0,0.0
2968,63.0,30.0,120.0,13.0,0.0
2969,56.0,0.0,150.0,2.0,0.0
2970,87.0,0.0,120.0,10.0,0.0
2971,44.0,0.0,15.0,3.0,0.0
2972,75.0,10.0,120.0,11.0,0.0
2973,32.0,0.0,480.0,4.0,0.0
2974,72.0,0.0,480.0,1.0,0.0
2975,88.0,0.0,120.0,10.0,0.0
2976,76.0,10.0,120.0,11.0,0.0
2977,64.0,60.0,120.0,13.0,0.0
2978,75.0,50.0,40.0,0.0,0.0
2979,90.0,0.0,450.0,10.0,0.0
2980,78.0,0.0,480.0,11.0,0.0
2981,66.0,50.0,480.0,13.0,0.0
2982,68.0,120.0,40.0,0.0,0.0
2983,75.0,80.0,40.0,0.0,0.0
2984,34.0,0.0,240.0,4.0,0.0
2985,73.0,0.0,240.0,1.0,0.0
2986,80.0,120.0,40.0,0.0,0.0
2987,46.0,40.0,240.0,3.0,0.0
2988,75.0,30.0,40.0,0.0,0.0
2989,76.0,80.0,150.0,11.0,0.0
2990,64.0,0.0,150.0,13.0,0.0
2991,88.0,0.0,150.0,10.0,0.0
2992,48.0,0.0,240.0,3.0,0.0
2993,75.0,130.0,240.0,1.0,0.0
2994,68.0,40.0,40.0,0.0,0.0
2995,36.0,0.0,240.0,4.0,0.0
2996,87.0,0.0,150.0,10.0,0.0
2997,63.0,0.0,150.0,13.0,0.0
2998,75.0,0.0,150.0,11.0,0.0
2999,78.0,80.0,40.0,0.0,0.0
3000,49.0,0.0,480.0,3.0,0.0
3001,61.0,0.0,120.0,13.0,0.0
3002,68.0,0.0,240.0,1.0,0.0
3003,85.0,30.0,120.0,10.0,0.0
3004,37.0,40.0,480.0,4.0,0.0
3005,73.0,0.0,120.0,11.0,0.0
3006,76.0,0.0,150.0,0.0,0.0
3007,68.0,80.0,150.0,0.0,0.0
3008,64.0,40.0,240.0,1.0,0.0
3009,64.0,0.0,40.0,2.0,0.0
3010,61.0,80.0,150.0,13.0,0.0
3011,73.0,0.0,150.0,11.0,0.0
3012,85.0,0.0,150.0,10.0,0.0
3013,61.0,40.0,40.0,2.0,0.0
3014,87.0,0.0,150.0,10.0,0.0
3015,75.0,0.0,150.0,11.0,0.0
3016,63.0,0.0,150.0,13.0,0.0
3017,64.0,80.0,40.0,2.0,0.0
3018,76.0,0.0,120.0,11.0,0.0
3019,88.0,30.0,120.0,10.0,0.0
3020,64.0,0.0,120.0,13.0,0.0
3021,68.0,90.0,40.0,2.0,0.0
3022,64.0,120.0,40.0,2.0,0.0
3023,64.0,80.0,150.0,13.0,0.0
3024,88.0,0.0,150.0,10.0,0.0
3025,76.0,0.0,150.0,11.0,0.0
3026,61.0,40.0,40.0,2.0,0.0
3027,66.0,0.0,150.0,13.0,0.0
3028,90.0,160.0,150.0,10.0,0.0
3029,78.0,0.0,150.0,11.0,0.0
3030,64.0,80.0,40.0,2.0,0.0
3031,47.0,0.0,480.0,3.0,0.0
3032,68.0,40.0,720.0,13.0,0.0
3033,92.0,0.0,720.0,10.0,0.0
3034,56.0,120.0,150.0,2.0,0.0
3035,80.0,0.0,720.0,11.0,0.0
3036,63.0,0.0,480.0,1.0,0.0
3037,68.0,0.0,480.0,1.0,0.0
3038,68.0,0.0,40.0,0.0,0.0
3039,63.0,120.0,40.0,0.0,0.0
3040,68.0,80.0,40.0,0.0,0.0
3041,47.0,0.0,240.0,3.0,0.0
3042,63.0,0.0,240.0,1.0,0.0
3043,68.0,0.0,240.0,1.0,0.0
3044,35.0,40.0,15.0,4.0,0.0
3045,75.0,120.0,40.0,0.0,0.0
3046,68.0,80.0,40.0,0.0,0.0
3047,70.0,0.0,240.0,13.0,0.0
3048,94.0,0.0,240.0,10.0,0.0
3049,37.0,0.0,240.0,4.0,0.0
3050,70.0,0.0,240.0,1.0,0.0
3051,64.0,0.0,240.0,1.0,0.0
3052,49.0,0.0,240.0,3.0,0.0
3053,82.0,160.0,240.0,11.0,0.0
3054,64.0,120.0,40.0,0.0,0.0
3055,70.0,80.0,40.0,0.0,0.0
3056,68.0,0.0,480.0,13.0,0.0
3057,70.0,0.0,150.0,0.0,0.0
3058,63.0,0.0,480.0,1.0,0.0
3059,92.0,0.0,480.0,10.0,0.0
3060,80.0,0.0,480.0,11.0,0.0
3061,70.0,40.0,480.0,1.0,0.0
3062,70.0,120.0,40.0,2.0,0.0
3063,67.0,120.0,40.0,2.0,0.0
3064,70.0,80.0,40.0,2.0,0.0
3065,67.0,40.0,240.0,13.0,0.0
3066,79.0,0.0,240.0,11.0,0.0
3067,39.0,0.0,15.0,4.0,0.0
3068,51.0,0.0,15.0,3.0,0.0
3069,75.0,120.0,40.0,2.0,0.0
3070,91.0,0.0,240.0,10.0,0.0
3071,75.0,0.0,480.0,1.0,0.0
3072,63.0,0.0,480.0,1.0,0.0
3073,66.0,0.0,480.0,1.0,0.0
3074,70.0,80.0,40.0,2.0,0.0
3075,66.0,120.0,40.0,2.0,0.0
3076,70.0,80.0,40.0,2.0,0.0
3077,78.0,0.0,150.0,11.0,0.0
3078,61.0,0.0,150.0,2.0,0.0
3079,61.0,0.0,480.0,1.0,0.0
3080,68.0,0.0,480.0,1.0,0.0
3081,90.0,0.0,150.0,10.0,0.0
3082,66.0,120.0,150.0,13.0,0.0
3083,34.0,0.0,480.0,4.0,0.0
3084,46.0,0.0,480.0,3.0,0.0
3085,70.0,0.0,40.0,0.0,0.0
3086,75.0,80.0,150.0,11.0,0.0
3087,87.0,0.0,150.0,10.0,0.0
3088,63.0,0.0,150.0,13.0,0.0
3089,66.0,40.0,40.0,0.0,0.0
3090,77.0,0.0,150.0,11.0,0.0
3091,65.0,0.0,150.0,13.0,0.0
3092,89.0,40.0,150.0,10.0,0.0
3093,70.0,80.0,40.0,0.0,0.0
3094,46.0,0.0,240.0,3.0,0.0
3095,90.0,0.0,150.0,10.0,0.0
3096,34.0,0.0,240.0,4.0,0.0
3097,61.0,0.0,240.0,1.0,0.0
3098,66.0,40.0,240.0,1.0,0.0
3099,78.0,0.0,150.0,11.0,0.0
3100,73.0,120.0,40.0,0.0,0.0
3101,66.0,80.0,150.0,13.0,0.0
3102,66.0,0.0,40.0,0.0,0.0
3103,68.0,80.0,150.0,13.0,0.0
3104,92.0,0.0,150.0,10.0,0.0
3105,80.0,0.0,150.0,11.0,0.0
3106,48.0,0.0,240.0,3.0,0.0
3107,68.0,0.0,240.0,1.0,0.0
3108,36.0,0.0,240.0,4.0,0.0
3109,63.0,160.0,240.0,1.0,0.0
3110,63.0,40.0,40.0,0.0,0.0
3111,78.0,0.0,150.0,11.0,0.0
3112,66.0,0.0,150.0,13.0,0.0
3113,68.0,80.0,40.0,0.0,0.0
3114,37.0,0.0,480.0,4.0,0.0
3115,66.0,40.0,240.0,13.0,0.0
3116,90.0,0.0,15.0,10.0,0.0
3117,49.0,0.0,480.0,3.0,0.0
3118,68.0,0.0,480.0,1.0,0.0
3119,61.0,0.0,480.0,1.0,0.0
3120,78.0,0.0,240.0,11.0,0.0
3121,68.0,80.0,150.0,0.0,0.0
3122,65.0,0.0,40.0,2.0,0.0
3123,89.0,40.0,240.0,10.0,0.0
3124,61.0,120.0,40.0,2.0,0.0
3125,77.0,0.0,240.0,11.0,0.0
3126,65.0,0.0,240.0,13.0,0.0
3127,65.0,80.0,40.0,2.0,0.0
3128,61.0,0.0,480.0,1.0,0.0
3129,68.0,0.0,480.0,1.0,0.0
3130,73.0,160.0,480.0,1.0,0.0
3131,49.0,0.0,480.0,3.0,0.0
3132,64.0,0.0,240.0,13.0,0.0
3133,88.0,0.0,240.0,10.0,0.0
3134,37.0,0.0,480.0,4.0,0.0
3135,76.0,40.0,240.0,11.0,0.0
3136,68.0,120.0,40.0,2.0,0.0
3137,64.0,80.0,40.0,2.0,0.0
3138,61.0,120.0,40.0,2.0,0.0
3139,64.0,80.0,40.0,2.0,0.0
3140,88.0,0.0,960.0,10.0,0.0
3141,64.0,0.0,960.0,13.0,0.0
3142,56.0,0.0,150.0,2.0,0.0
3143,64.0,0.0,480.0,1.0,0.0
3144,73.0,0.0,480.0,1.0,0.0
3145,76.0,0.0,960.0,11.0,0.0
3146,76.0,120.0,40.0,0.0,0.0
3147,73.0,120.0,40.0,0.0,0.0
3148,76.0,80.0,40.0,0.0,0.0
3149,32.0,0.0,15.0,4.0,0.0
3150,80.0,120.0,40.0,0.0,0.0
3151,44.0,40.0,15.0,3.0,0.0
3152,73.0,0.0,240.0,1.0,0.0
3153,64.0,0.0,240.0,1.0,0.0
3154,76.0,80.0,40.0,0.0,0.0
3155,61.0,120.0,240.0,1.0,0.0
3156,32.0,0.0,240.0,4.0,0.0
3157,73.0,120.0,40.0,0.0,0.0
3158,76.0,80.0,40.0,0.0,0.0
3159,60.0,40.0,240.0,1.0,0.0
3160,44.0,0.0,15.0,3.0,0.0
3161,68.0,40.0,120.0,0.0,0.0
3162,32.0,0.0,480.0,4.0,0.0
3163,75.0,0.0,480.0,11.0,0.0
3164,63.0,0.0,480.0,13.0,0.0
3165,87.0,0.0,480.0,10.0,0.0
3166,63.0,80.0,40.0,2.0,0.0
3167,60.0,120.0,40.0,2.0,0.0
3168,63.0,80.0,40.0,2.0,0.0
3169,44.0,40.0,15.0,3.0,0.0
3170,88.0,0.0,480.0,10.0,0.0
3171,76.0,0.0,480.0,11.0,0.0
3172,68.0,120.0,40.0,2.0,0.0
3173,73.0,40.0,240.0,1.0,0.0
3174,64.0,0.0,240.0,1.0,0.0
3175,64.0,0.0,480.0,13.0,0.0
3176,64.0,80.0,40.0,2.0,0.0
3177,61.0,120.0,40.0,2.0,0.0
3178,61.0,0.0,240.0,1.0,0.0
3179,64.0,80.0,40.0,2.0,0.0
3180,87.0,0.0,120.0,10.0,0.0
3181,63.0,30.0,120.0,13.0,0.0
3182,63.0,0.0,480.0,1.0,0.0
3183,72.0,0.0,480.0,1.0,0.0
3184,32.0,0.0,15.0,4.0,0.0
3185,56.0,0.0,150.0,2.0,0.0
3186,44.0,40.0,480.0,3.0,0.0
3187,75.0,0.0,120.0,11.0,0.0
3188,88.0,0.0,120.0,10.0,0.0
3189,64.0,0.0,120.0,13.0,0.0
3190,76.0,60.0,120.0,11.0,0.0
3191,75.0,60.0,40.0,0.0,0.0
3192,90.0,0.0,480.0,10.0,0.0
3193,66.0,0.0,480.0,13.0,0.0
3194,78.0,50.0,480.0,11.0,0.0
3195,68.0,120.0,40.0,0.0,0.0
3196,75.0,80.0,40.0,0.0,0.0
3197,46.0,0.0,240.0,3.0,0.0
3198,80.0,120.0,40.0,0.0,0.0
3199,73.0,0.0,240.0,1.0,0.0
3200,34.0,40.0,240.0,4.0,0.0
3201,75.0,30.0,40.0,0.0,0.0
3202,88.0,0.0,150.0,10.0,0.0
3203,76.0,80.0,150.0,11.0,0.0
3204,64.0,0.0,150.0,13.0,0.0
3205,75.0,0.0,240.0,1.0,0.0
3206,68.0,40.0,40.0,0.0,0.0
3207,36.0,140.0,240.0,4.0,0.0
3208,48.0,0.0,240.0,3.0,0.0
3209,75.0,0.0,150.0,11.0,0.0
3210,87.0,0.0,150.0,10.0,0.0
3211,63.0,0.0,150.0,13.0,0.0
3212,78.0,80.0,40.0,0.0,0.0
3213,61.0,0.0,480.0,13.0,0.0
3214,85.0,0.0,480.0,10.0,0.0
3215,68.0,0.0,150.0,0.0,0.0
3216,73.0,0.0,480.0,11.0,0.0
3217,37.0,0.0,480.0,4.0,0.0
3218,65.0,40.0,480.0,1.0,0.0
3219,68.0,0.0,480.0,1.0,0.0
3220,49.0,0.0,480.0,3.0,0.0
3221,77.0,20.0,150.0,0.0,0.0
3222,68.0,120.0,40.0,2.0,0.0
3223,65.0,120.0,40.0,2.0,0.0
3224,68.0,80.0,40.0,2.0,0.0
3225,71.0,120.0,40.0,2.0,0.0
3226,68.0,120.0,40.0,2.0,0.0
3227,64.0,120.0,40.0,2.0,0.0
3228,68.0,240.0,40.0,2.0,0.0
3229,85.0,80.0,630.0,10.0,0.0
3230,68.0,0.0,480.0,1.0,0.0
3231,73.0,0.0,480.0,6.0,0.0
3232,61.0,0.0,630.0,13.0,0.0
3233,61.0,0.0,480.0,6.0,0.0
3234,59.0,0.0,150.0,2.0,0.0
3235,73.0,0.0,630.0,11.0,0.0
3236,49.0,0.0,480.0,7.0,0.0
3237,77.0,120.0,40.0,0.0,0.0
3238,71.0,120.0,40.0,0.0,0.0
3239,77.0,80.0,40.0,0.0,0.0
3240,49.0,0.0,15.0,3.0,0.0
3241,37.0,0.0,15.0,4.0,0.0
3242,80.0,120.0,40.0,0.0,0.0
3243,65.0,40.0,15.0,1.0,0.0
3244,77.0,0.0,40.0,0.0,0.0
3245,63.0,0.0,150.0,13.0,0.0
3246,75.0,80.0,150.0,11.0,0.0
3247,87.0,0.0,150.0,10.0,0.0
3248,49.0,0.0,15.0,3.0,0.0
3249,68.0,0.0,15.0,1.0,0.0
3250,65.0,0.0,240.0,1.0,0.0
3251,71.0,40.0,40.0,0.0,0.0
3252,37.0,40.0,15.0,4.0,0.0
3253,65.0,0.0,150.0,13.0,0.0
3254,80.0,80.0,40.0,0.0,0.0
3255,77.0,0.0,15.0,11.0,0.0
3256,65.0,40.0,240.0,13.0,0.0
3257,81.0,20.0,150.0,0.0,0.0
3258,37.0,0.0,480.0,4.0,0.0
3259,49.0,140.0,15.0,3.0,0.0
3260,69.0,0.0,480.0,1.0,0.0
3261,89.0,0.0,15.0,10.0,0.0
3262,66.0,0.0,480.0,1.0,0.0
3263,57.0,80.0,40.0,2.0,0.0
3264,90.0,0.0,240.0,10.0,0.0
3265,78.0,0.0,240.0,11.0,0.0
3266,54.0,120.0,40.0,2.0,0.0
3267,57.0,80.0,40.0,2.0,0.0
3268,49.0,40.0,240.0,7.0,0.0
3269,66.0,0.0,15.0,13.0,0.0
3270,61.0,120.0,40.0,2.0,0.0
3271,61.0,0.0,240.0,6.0,0.0
3272,73.0,0.0,240.0,6.0,0.0
3273,57.0,80.0,40.0,2.0,0.0
3274,54.0,120.0,40.0,2.0,0.0
3275,61.0,0.0,240.0,6.0,0.0
3276,49.0,0.0,240.0,7.0,0.0
3277,66.0,80.0,40.0,2.0,0.0
3278,60.0,120.0,150.0,2.0,0.0
3279,90.0,160.0,15.0,10.0,0.0
3280,73.0,0.0,15.0,6.0,0.0
3281,61.0,0.0,480.0,6.0,0.0
3282,78.0,0.0,15.0,11.0,0.0
3283,66.0,80.0,630.0,13.0,0.0
3284,49.0,0.0,480.0,7.0,0.0
3285,69.0,0.0,40.0,0.0,0.0
3286,66.0,120.0,40.0,0.0,0.0
3287,69.0,80.0,40.0,0.0,0.0
3288,75.0,120.0,40.0,0.0,0.0
3289,66.0,0.0,15.0,1.0,0.0
3290,69.0,40.0,15.0,1.0,0.0
3291,37.0,0.0,15.0,4.0,0.0
3292,49.0,0.0,15.0,3.0,0.0
3293,71.0,0.0,40.0,0.0,0.0
3294,80.0,80.0,150.0,11.0,0.0
3295,68.0,0.0,150.0,13.0,0.0
3296,92.0,0.0,150.0,10.0,0.0
3297,37.0,40.0,15.0,4.0,0.0
3298,49.0,0.0,15.0,3.0,0.0
3299,66.0,40.0,40.0,0.0,0.0
3300,69.0,0.0,240.0,1.0,0.0
3301,66.0,0.0,240.0,1.0,0.0
3302,78.0,80.0,40.0,0.0,0.0
3303,81.0,0.0,15.0,11.0,0.0
3304,68.0,0.0,480.0,1.0,0.0
3305,93.0,140.0,15.0,10.0,0.0
3306,69.0,0.0,15.0,13.0,0.0
3307,65.0,0.0,480.0,1.0,0.0
3308,49.0,0.0,480.0,3.0,0.0
3309,77.0,20.0,150.0,0.0,0.0
3310,68.0,0.0,150.0,0.0,0.0
3311,37.0,0.0,480.0,4.0,0.0
3312,68.0,80.0,40.0,2.0,0.0
3313,92.0,40.0,240.0,10.0,0.0
3314,68.0,0.0,240.0,13.0,0.0
3315,65.0,120.0,40.0,2.0,0.0
3316,68.0,80.0,40.0,2.0,0.0
3317,49.0,0.0,240.0,7.0,0.0
3318,80.0,0.0,15.0,11.0,0.0
3319,68.0,0.0,480.0,13.0,0.0
3320,71.0,120.0,40.0,2.0,0.0
3321,92.0,160.0,480.0,10.0,0.0
3322,61.0,0.0,240.0,6.0,0.0
3323,68.0,80.0,40.0,2.0,0.0
3324,61.0,0.0,240.0,6.0,0.0
3325,64.0,120.0,40.0,2.0,0.0
3326,73.0,40.0,15.0,6.0,0.0
3327,68.0,80.0,40.0,2.0,0.0
3328,61.0,0.0,240.0,6.0,0.0
3329,73.0,80.0,150.0,11.0,0.0
3330,49.0,0.0,15.0,7.0,0.0
3331,61.0,0.0,150.0,13.0,0.0
3332,37.0,0.0,240.0,4.0,0.0
3333,73.0,0.0,240.0,6.0,0.0
3334,85.0,0.0,150.0,10.0,0.0
3335,59.0,0.0,150.0,2.0,0.0
3336,77.0,0.0,40.0,0.0,0.0
3337,85.0,0.0,150.0,10.0,0.0
3338,61.0,0.0,150.0,13.0,0.0
3339,68.0,0.0,15.0,1.0,0.0
3340,49.0,0.0,15.0,3.0,0.0
3341,37.0,0.0,240.0,4.0,0.0
3342,65.0,40.0,15.0,1.0,0.0
3343,71.0,40.0,40.0,0.0,0.0
3344,73.0,80.0,15.0,11.0,0.0
3345,61.0,0.0,150.0,13.0,0.0
3346,85.0,0.0,150.0,10.0,0.0
3347,77.0,80.0,40.0,0.0,0.0
3348,61.0,0.0,150.0,13.0,0.0
3349,49.0,0.0,240.0,3.0,0.0
3350,65.0,0.0,15.0,1.0,0.0
3351,85.0,0.0,150.0,10.0,0.0
3352,68.0,0.0,240.0,1.0,0.0
3353,80.0,120.0,40.0,0.0,0.0
3354,37.0,0.0,240.0,4.0,0.0
3355,73.0,80.0,150.0,11.0,0.0
3356,77.0,0.0,40.0,0.0,0.0
3357,63.0,0.0,150.0,13.0,0.0
3358,87.0,80.0,150.0,10.0,0.0
3359,75.0,0.0,150.0,11.0,0.0
3360,61.0,0.0,15.0,6.0,0.0
3361,71.0,40.0,40.0,0.0,0.0
3362,73.0,0.0,15.0,6.0,0.0
3363,49.0,0.0,15.0,7.0,0.0
3364,80.0,80.0,40.0,0.0,0.0
3365,37.0,40.0,240.0,4.0,0.0
3366,89.0,0.0,15.0,10.0,0.0
3367,81.0,20.0,150.0,0.0,0.0
3368,49.0,0.0,15.0,7.0,0.0
3369,65.0,0.0,15.0,13.0,0.0
3370,69.0,0.0,240.0,1.0,0.0
3371,73.0,140.0,15.0,6.0,0.0
3372,61.0,0.0,15.0,6.0,0.0
3373,77.0,0.0,15.0,11.0,0.0
3374,57.0,0.0,40.0,2.0,0.0
3375,66.0,80.0,150.0,13.0,0.0
3376,90.0,0.0,150.0,10.0,0.0
3377,54.0,40.0,40.0,2.0,0.0
3378,66.0,0.0,15.0,1.0,0.0
3379,49.0,0.0,15.0,3.0,0.0
3380,69.0,0.0,240.0,1.0,0.0
3381,78.0,0.0,15.0,11.0,0.0
3382,66.0,40.0,150.0,13.0,0.0
3383,90.0,0.0,150.0,10.0,0.0
3384,57.0,80.0,40.0,2.0,0.0
3385,37.0,0.0,15.0,4.0,0.0
3386,49.0,40.0,240.0,3.0,0.0
3387,61.0,120.0,40.0,2.0,0.0
3388,66.0,0.0,240.0,1.0,0.0
3389,49.0,0.0,240.0,7.0,0.0
3390,61.0,0.0,240.0,6.0,0.0
3391,73.0,0.0,240.0,6.0,0.0
3392,90.0,0.0,480.0,10.0,0.0
3393,69.0,0.0,240.0,1.0,0.0
3394,57.0,80.0,40.0,2.0,0.0
3395,54.0,120.0,40.0,2.0,0.0
3396,61.0,0.0,240.0,6.0,0.0
3397,73.0,0.0,240.0,6.0,0.0
3398,66.0,80.0,40.0,2.0,0.0
3399,69.0,0.0,240.0,1.0,0.0
3400,60.0,80.0,150.0,2.0,0.0
3401,66.0,0.0,240.0,1.0,0.0
3402,49.0,0.0,240.0,3.0,0.0
3403,78.0,0.0,15.0,11.0,0.0
3404,73.0,0.0,240.0,6.0,0.0
3405,61.0,40.0,240.0,6.0,0.0
3406,66.0,0.0,15.0,13.0,0.0
3407,49.0,160.0,15.0,7.0,0.0
3408,69.0,0.0,40.0,0.0,0.0
3409,90.0,0.0,15.0,10.0,0.0
3410,66.0,0.0,15.0,13.0,0.0
3411,78.0,0.0,15.0,11.0,0.0
3412,66.0,40.0,40.0,0.0,0.0
3413,49.0,0.0,240.0,3.0,0.0
3414,37.0,0.0,15.0,4.0,0.0
3415,78.0,80.0,15.0,11.0,0.0
3416,66.0,0.0,150.0,13.0,0.0
3417,69.0,80.0,40.0,0.0,0.0
3418,90.0,0.0,15.0,10.0,0.0
3419,75.0,120.0,40.0,0.0,0.0
3420,61.0,0.0,240.0,6.0,0.0
3421,73.0,0.0,240.0,6.0,0.0
3422,37.0,0.0,15.0,4.0,0.0
3423,66.0,0.0,15.0,1.0,0.0
3424,66.0,0.0,150.0,13.0,0.0
3425,78.0,0.0,150.0,11.0,0.0
3426,49.0,0.0,240.0,3.0,0.0
3427,69.0,40.0,15.0,1.0,0.0
3428,69.0,0.0,40.0,0.0,0.0
3429,68.0,0.0,150.0,13.0,0.0
3430,92.0,0.0,150.0,10.0,0.0
3431,80.0,80.0,150.0,11.0,0.0
3432,49.0,0.0,15.0,7.0,0.0
3433,66.0,40.0,40.0,0.0,0.0
3434,61.0,0.0,240.0,6.0,0.0
3435,73.0,0.0,240.0,6.0,0.0
3436,78.0,80.0,40.0,0.0,0.0
3437,69.0,0.0,15.0,13.0,0.0
3438,81.0,140.0,15.0,11.0,0.0
3439,93.0,0.0,15.0,10.0,0.0
3440,73.0,0.0,240.0,6.0,0.0
3441,77.0,20.0,150.0,0.0,0.0
3442,68.0,0.0,40.0,2.0,0.0
3443,68.0,80.0,150.0,13.0,0.0
3444,92.0,0.0,150.0,10.0,0.0
3445,61.0,0.0,15.0,6.0,0.0
3446,73.0,0.0,240.0,6.0,0.0
3447,65.0,40.0,40.0,2.0,0.0
3448,49.0,40.0,15.0,7.0,0.0
3449,80.0,0.0,15.0,11.0,0.0
3450,68.0,0.0,150.0,13.0,0.0
3451,92.0,0.0,150.0,10.0,0.0
3452,68.0,80.0,40.0,2.0,0.0
3453,68.0,0.0,240.0,1.0,0.0
3454,71.0,120.0,40.0,2.0,0.0
3455,68.0,80.0,40.0,2.0,0.0
3456,65.0,0.0,15.0,1.0,0.0
3457,68.0,160.0,240.0,1.0,0.0
3458,37.0,0.0,15.0,4.0,0.0
3459,65.0,120.0,40.0,2.0,0.0
3460,49.0,40.0,15.0,3.0,0.0
3461,59.0,80.0,40.0,2.0,0.0
3462,68.0,0.0,150.0,13.0,0.0
3463,92.0,0.0,150.0,10.0,0.0
3464,60.0,0.0,150.0,2.0,0.0
3465,80.0,0.0,150.0,11.0,0.0
3466,61.0,0.0,240.0,6.0,0.0
3467,73.0,0.0,240.0,6.0,0.0
3468,69.0,80.0,40.0,0.0,0.0
3469,81.0,0.0,150.0,11.0,0.0
3470,69.0,80.0,150.0,13.0,0.0
3471,93.0,0.0,150.0,10.0,0.0
3472,61.0,0.0,240.0,6.0,0.0
3473,49.0,40.0,15.0,7.0,0.0
3474,73.0,0.0,240.0,6.0,0.0
3475,66.0,40.0,40.0,0.0,0.0
3476,81.0,0.0,150.0,11.0,0.0
3477,93.0,0.0,150.0,10.0,0.0
3478,69.0,0.0,150.0,13.0,0.0
3479,69.0,80.0,40.0,0.0,0.0
3480,69.0,0.0,90.0,1.0,0.0
3481,66.0,80.0,90.0,1.0,0.0
3482,75.0,40.0,40.0,0.0,0.0
3483,37.0,0.0,240.0,4.0,0.0
3484,71.0,80.0,40.0,0.0,0.0
3485,66.0,40.0,40.0,0.0,0.0
3486,78.0,80.0,90.0,1.0,0.0
3487,49.0,40.0,15.0,3.0,0.0
3488,37.0,0.0,240.0,4.0,0.0
3489,72.0,80.0,40.0,0.0,0.0
3490,76.0,120.0,40.0,1.0,0.0
3491,61.0,0.0,240.0,6.0,0.0
3492,69.0,0.0,150.0,13.0,0.0
3493,73.0,40.0,240.0,6.0,0.0
3494,93.0,0.0,150.0,10.0,0.0
3495,49.0,0.0,240.0,7.0,0.0
3496,81.0,80.0,150.0,11.0,0.0
3497,73.0,40.0,450.0,0.0,0.0
3498,78.0,0.0,40.0,1.0,0.0
3499,80.0,0.0,150.0,11.0,0.0
3500,49.0,40.0,240.0,7.0,0.0
3501,80.0,40.0,40.0,1.0,0.0
3502,61.0,0.0,240.0,6.0,0.0
3503,73.0,0.0,240.0,6.0,0.0
3504,68.0,80.0,15.0,13.0,0.0
3505,80.0,0.0,150.0,11.0,0.0
3506,92.0,0.0,15.0,10.0,0.0
3507,78.0,40.0,40.0,1.0,0.0
3508,73.0,40.0,120.0,0.0,0.0
3509,76.0,80.0,40.0,1.0,0.0
3510,78.0,80.0,40.0,1.0,0.0
3511,75.0,40.0,120.0,0.0,0.0
3512,76.0,80.0,40.0,1.0,0.0
3513,37.0,0.0,15.0,4.0,0.0
3514,49.0,40.0,15.0,3.0,0.0
3515,75.0,80.0,40.0,1.0,0.0
3516,73.0,120.0,40.0,1.0,0.0
3517,76.0,20.0,390.0,0.0,0.0
3518,75.0,120.0,40.0,1.0,0.0
3519,76.0,100.0,40.0,1.0,0.0
3520,78.0,120.0,40.0,1.0,0.0
3521,76.0,20.0,390.0,0.0,0.0
3522,80.0,120.0,40.0,1.0,0.0
3523,82.0,120.0,40.0,1.0,0.0
3524,84.0,100.0,40.0,1.0,0.0
3525,85.0,120.0,40.0,1.0,0.0
3526,84.0,120.0,40.0,1.0,0.0
3527,75.0,80.0,450.0,0.0,0.0
3528,80.0,120.0,40.0,1.0,0.0
3529,82.0,120.0,40.0,1.0,0.0
3530,84.0,40.0,40.0,1.0,0.0
3531,75.0,40.0,120.0,0.0,0.0
3532,85.0,80.0,40.0,1.0,0.0
3533,87.0,120.0,40.0,1.0,0.0
3534,85.0,80.0,40.0,1.0,0.0
3535,77.0,40.0,120.0,0.0,0.0
3536,83.0,120.0,40.0,1.0,0.0
3537,78.0,40.0,120.0,0.0,0.0
3538,82.0,80.0,40.0,1.0,0.0
3539,82.0,120.0,40.0,1.0,0.0
3540,83.0,80.0,40.0,1.0,0.0
3541,76.0,40.0,120.0,0.0,0.0
3542,85.0,120.0,40.0,1.0,0.0
3543,75.0,40.0,120.0,0.0,0.0
3544,87.0,80.0,40.0,1.0,0.0
3545,75.0,120.0,40.0,1.0,0.0
3546,73.0,40.0,120.0,0.0,0.0
3547,77.0,80.0,40.0,1.0,0.0
3548,79.0,120.0,40.0,1.0,0.0
3549,71.0,120.0,40.0,0.0,0.0
3550,80.0,60.0,450.0,1.0,0.0
3551,73.0,120.0,40.0,0.0,0.0
3552,75.0,120.0,40.0,0.0,0.0
3553,73.0,60.0,40.0,0.0,0.0
3554,71.0,120.0,40.0,0.0,0.0
3555,80.0,120.0,150.0,1.0,0.0
3556,73.0,0.0,40.0,0.0,0.0
3557,82.0,100.0,180.0,1.0,0.0
3558,71.0,120.0,40.0,0.0,0.0
3559,70.0,20.0,40.0,0.0,0.0
3560,68.0,120.0,40.0,0.0,0.0
3561,83.0,40.0,360.0,1.0,0.0
3562,70.0,120.0,40.0,0.0,0.0
3563,71.0,80.0,40.0,0.0,0.0
3564,73.0,120.0,40.0,0.0,0.0
3565,75.0,120.0,40.0,0.0,0.0
3566,83.0,40.0,360.0,1.0,0.0
3567,77.0,120.0,40.0,0.0,0.0
3568,79.0,80.0,40.0,0.0,0.0
3569,80.0,120.0,40.0,0.0,0.0
3570,82.0,60.0,450.0,1.0,0.0
3571,80.0,120.0,40.0,0.0,0.0
3572,73.0,120.0,40.0,0.0,0.0
3573,75.0,120.0,40.0,0.0,0.0
3574,77.0,60.0,40.0,0.0,0.0
3575,78.0,120.0,40.0,0.0,0.0
3576,82.0,0.0,150.0,1.0,0.0
3577,75.0,120.0,40.0,0.0,0.0
3578,84.0,0.0,150.0,1.0,0.0
3579,80.0,120.0,40.0,0.0,0.0
3580,78.0,120.0,40.0,0.0,0.0
3581,76.0,120.0,40.0,0.0,0.0
3582,85.0,100.0,180.0,1.0,0.0
3583,75.0,20.0,40.0,0.0,0.0
3584,76.0,120.0,40.0,0.0,0.0
3585,81.0,100.0,180.0,1.0,0.0
3586,78.0,20.0,40.0,0.0,0.0
3587,80.0,120.0,40.0,0.0,0.0
3588,80.0,100.0,180.0,1.0,0.0
3589,68.0,20.0,40.0,0.0,0.0
3590,78.0,20.0,390.0,1.0,0.0
3591,70.0,120.0,40.0,0.0,0.0
3592,72.0,120.0,40.0,0.0,0.0
3593,73.0,40.0,480.0,0.0,0.0
3594,61.0,20.0,450.0,3.0,0.0
3595,64.0,100.0,40.0,2.0,0.0
3596,66.0,120.0,40.0,2.0,0.0
3597,68.0,120.0,40.0,2.0,0.0
3598,76.0,80.0,450.0,1.0,0.0
3599,66.0,60.0,40.0,2.0,0.0
3600,49.0,0.0,15.0,4.0,0.0
3601,64.0,120.0,40.0,2.0,0.0
3602,61.0,20.0,180.0,3.0,0.0
3603,66.0,20.0,40.0,2.0,0.0
3604,51.0,0.0,180.0,4.0,0.0
3605,80.0,80.0,450.0,1.0,0.0
3606,64.0,120.0,40.0,2.0,0.0
3607,63.0,100.0,180.0,3.0,0.0
3608,63.0,20.0,40.0,2.0,0.0
3609,64.0,20.0,390.0,3.0,0.0
3610,61.0,120.0,40.0,2.0,0.0
3611,52.0,0.0,390.0,4.0,0.0
3612,63.0,40.0,40.0,2.0,0.0
3613,64.0,100.0,40.0,2.0,0.0
3614,73.0,80.0,450.0,1.0,0.0
3615,66.0,120.0,40.0,2.0,0.0
3616,68.0,120.0,40.0,2.0,0.0
3617,64.0,0.0,390.0,3.0,0.0
3618,52.0,20.0,390.0,4.0,0.0
3619,70.0,40.0,40.0,2.0,0.0
3620,80.0,80.0,450.0,1.0,0.0
3621,72.0,100.0,40.0,2.0,0.0
3622,73.0,120.0,40.0,2.0,0.0
3623,73.0,40.0,480.0,0.0,0.0
3624,72.0,120.0,40.0,2.0,0.0
3625,51.0,60.0,390.0,4.0,0.0
3626,63.0,20.0,450.0,3.0,0.0
3627,68.0,40.0,40.0,2.0,0.0
3628,78.0,60.0,450.0,1.0,0.0
3629,70.0,120.0,40.0,2.0,0.0
3630,72.0,0.0,40.0,2.0,0.0
3631,73.0,120.0,40.0,2.0,0.0
3632,63.0,40.0,180.0,3.0,0.0
3633,51.0,0.0,180.0,4.0,0.0
3634,75.0,20.0,40.0,2.0,0.0
3635,65.0,0.0,180.0,3.0,0.0
3636,80.0,60.0,210.0,1.0,0.0
3637,73.0,120.0,40.0,2.0,0.0
3638,53.0,40.0,180.0,4.0,0.0
3639,71.0,20.0,40.0,2.0,0.0
3640,54.0,0.0,180.0,4.0,0.0
3641,66.0,20.0,180.0,3.0,0.0
3642,70.0,120.0,40.0,2.0,0.0
3643,82.0,80.0,210.0,1.0,0.0
3644,70.0,20.0,40.0,2.0,0.0
3645,80.0,80.0,210.0,1.0,0.0
3646,64.0,0.0,180.0,3.0,0.0
3647,71.0,120.0,40.0,2.0,0.0
3648,52.0,20.0,180.0,4.0,0.0
3649,73.0,20.0,40.0,2.0,0.0
3650,79.0,100.0,60.0,1.0,0.0
3651,75.0,20.0,40.0,2.0,0.0
3652,63.0,0.0,180.0,3.0,0.0
3653,51.0,0.0,180.0,4.0,0.0
3654,63.0,20.0,40.0,2.0,0.0
3655,79.0,100.0,60.0,1.0,0.0
3656,80.0,100.0,60.0,1.0,0.0
3657,65.0,20.0,40.0,2.0,0.0
3658,61.0,0.0,180.0,3.0,0.0
3659,82.0,40.0,480.0,0.0,0.0
3660,49.0,100.0,180.0,4.0,0.0
3661,67.0,20.0,40.0,2.0,0.0
3662,82.0,0.0,60.0,1.0,0.0
3663,83.0,40.0,480.0,1.0,0.0
3664,68.0,0.0,390.0,2.0,0.0
3665,59.0,120.0,40.0,3.0,0.0
3666,47.0,0.0,40.0,4.0,0.0
3667,61.0,80.0,40.0,3.0,0.0
3668,49.0,0.0,40.0,4.0,0.0
3669,63.0,120.0,40.0,3.0,0.0
3670,51.0,0.0,40.0,4.0,0.0
3671,80.0,40.0,480.0,0.0,0.0
3672,61.0,0.0,40.0,3.0,0.0
3673,49.0,80.0,40.0,4.0,0.0
3674,68.0,0.0,150.0,2.0,0.0
3675,59.0,120.0,40.0,3.0,0.0
3676,47.0,0.0,40.0,4.0,0.0
3677,61.0,0.0,40.0,3.0,0.0
3678,49.0,80.0,40.0,4.0,0.0
3679,70.0,120.0,150.0,2.0,0.0
3680,87.0,40.0,480.0,0.0,0.0
3681,59.0,120.0,40.0,3.0,0.0
3682,47.0,0.0,40.0,4.0,0.0
3683,46.0,0.0,40.0,4.0,0.0
3684,58.0,0.0,40.0,3.0,0.0
3685,71.0,120.0,390.0,2.0,0.0
3686,56.0,120.0,40.0,3.0,0.0
3687,44.0,0.0,40.0,4.0,0.0
3688,46.0,0.0,40.0,4.0,0.0
3689,58.0,80.0,40.0,3.0,0.0
3690,59.0,0.0,40.0,3.0,0.0
3691,80.0,40.0,480.0,0.0,0.0
3692,47.0,120.0,40.0,4.0,0.0
3693,61.0,0.0,40.0,3.0,0.0
3694,49.0,0.0,40.0,4.0,0.0
3695,71.0,0.0,390.0,2.0,0.0
3696,63.0,0.0,40.0,3.0,0.0
3697,51.0,120.0,40.0,4.0,0.0
3698,65.0,0.0,40.0,3.0,0.0
3699,53.0,80.0,40.0,4.0,0.0
3700,67.0,0.0,40.0,3.0,0.0
3701,55.0,120.0,40.0,4.0,0.0
3702,87.0,40.0,480.0,0.0,0.0
3703,68.0,0.0,40.0,3.0,0.0
3704,56.0,120.0,40.0,4.0,0.0
3705,68.0,120.0,40.0,3.0,0.0
3706,56.0,0.0,40.0,4.0,0.0
3707,70.0,0.0,390.0,2.0,0.0
3708,49.0,0.0,40.0,4.0,0.0
3709,61.0,80.0,40.0,3.0,0.0
3710,85.0,40.0,480.0,0.0,0.0
3711,63.0,120.0,40.0,3.0,0.0
3712,51.0,0.0,40.0,4.0,0.0
3713,53.0,120.0,40.0,4.0,0.0
3714,65.0,0.0,40.0,3.0,0.0
3715,54.0,120.0,40.0,4.0,0.0
3716,70.0,0.0,150.0,2.0,0.0
3717,66.0,0.0,40.0,3.0,0.0
3718,63.0,0.0,40.0,3.0,0.0
3719,51.0,80.0,40.0,4.0,0.0
3720,72.0,80.0,150.0,2.0,0.0
3721,56.0,120.0,40.0,4.0,0.0
3722,87.0,40.0,240.0,0.0,0.0
3723,68.0,0.0,40.0,3.0,0.0
3724,54.0,0.0,40.0,4.0,0.0
3725,66.0,0.0,40.0,3.0,0.0
3726,52.0,0.0,40.0,4.0,0.0
3727,88.0,100.0,180.0,0.0,0.0
3728,73.0,0.0,150.0,2.0,0.0
3729,64.0,120.0,40.0,3.0,0.0
3730,51.0,20.0,40.0,4.0,0.0
3731,63.0,0.0,40.0,3.0,0.0
3732,64.0,120.0,40.0,3.0,0.0
3733,52.0,0.0,40.0,4.0,0.0
3734,69.0,0.0,150.0,2.0,0.0
3735,85.0,100.0,180.0,0.0,0.0
3736,66.0,20.0,40.0,3.0,0.0
3737,54.0,0.0,40.0,4.0,0.0
3738,56.0,120.0,40.0,4.0,0.0
3739,68.0,0.0,40.0,3.0,0.0
3740,84.0,0.0,40.0,0.0,0.0
3741,68.0,0.0,150.0,2.0,0.0
3742,44.0,0.0,40.0,4.0,0.0
3743,56.0,0.0,40.0,3.0,0.0
3744,84.0,120.0,40.0,0.0,0.0
3745,58.0,0.0,40.0,3.0,0.0
3746,66.0,120.0,150.0,2.0,0.0
3747,85.0,120.0,40.0,0.0,0.0
3748,46.0,0.0,40.0,4.0,0.0
3749,87.0,0.0,40.0,0.0,0.0
3750,60.0,0.0,40.0,3.0,0.0
3751,48.0,0.0,40.0,4.0,0.0
3752,85.0,40.0,480.0,0.0,0.0
3753,49.0,0.0,150.0,4.0,0.0
3754,61.0,0.0,150.0,3.0,0.0
3755,65.0,120.0,40.0,2.0,0.0
3756,65.0,120.0,40.0,2.0,0.0
3757,59.0,0.0,150.0,3.0,0.0
3758,66.0,120.0,40.0,2.0,0.0
3759,47.0,0.0,150.0,4.0,0.0
3760,68.0,80.0,40.0,2.0,0.0
3761,58.0,0.0,150.0,3.0,0.0
3762,46.0,0.0,150.0,4.0,0.0
3763,61.0,120.0,40.0,2.0,0.0
3764,61.0,120.0,40.0,2.0,0.0
3765,77.0,0.0,40.0,1.0,0.0
3766,56.0,0.0,150.0,3.0,0.0
3767,63.0,120.0,40.0,2.0,0.0
3768,44.0,120.0,150.0,4.0,0.0
3769,78.0,0.0,40.0,1.0,0.0
3770,80.0,0.0,40.0,1.0,0.0
3771,65.0,0.0,40.0,2.0,0.0
3772,78.0,40.0,480.0,1.0,0.0
3773,66.0,0.0,150.0,2.0,0.0
3774,58.0,120.0,40.0,3.0,0.0
3775,46.0,0.0,40.0,4.0,0.0
3776,58.0,120.0,40.0,3.0,0.0
3777,46.0,0.0,40.0,4.0,0.0
3778,64.0,80.0,150.0,2.0,0.0
3779,59.0,0.0,40.0,3.0,0.0
3780,47.0,120.0,40.0,4.0,0.0
3781,49.0,0.0,40.0,4.0,0.0
3782,61.0,0.0,40.0,3.0,0.0
3783,42.0,0.0,40.0,4.0,0.0
3784,62.0,0.0,150.0,2.0,0.0
3785,54.0,120.0,40.0,3.0,0.0
3786,42.0,0.0,40.0,4.0,0.0
3787,82.0,0.0,40.0,0.0,0.0
3788,54.0,120.0,40.0,3.0,0.0
3789,61.0,0.0,150.0,2.0,0.0
3790,56.0,0.0,40.0,3.0,0.0
3791,83.0,0.0,40.0,0.0,0.0
3792,44.0,120.0,40.0,4.0,0.0
3793,58.0,120.0,40.0,3.0,0.0
3794,46.0,0.0,40.0,4.0,0.0
3795,85.0,0.0,40.0,0.0,0.0
3796,59.0,0.0,150.0,3.0,0.0
3797,63.0,120.0,40.0,2.0,0.0
3798,83.0,100.0,180.0,0.0,0.0
3799,47.0,0.0,150.0,4.0,0.0
3800,63.0,20.0,40.0,2.0,0.0
3801,57.0,0.0,150.0,3.0,0.0
3802,64.0,120.0,40.0,2.0,0.0
3803,45.0,20.0,150.0,4.0,0.0
3804,71.0,100.0,180.0,0.0,0.0
3805,66.0,0.0,40.0,2.0,0.0
3806,59.0,120.0,40.0,2.0,0.0
3807,56.0,0.0,150.0,3.0,0.0
3808,44.0,120.0,150.0,4.0,0.0
3809,59.0,0.0,40.0,2.0,0.0
3810,75.0,0.0,40.0,1.0,0.0
3811,61.0,120.0,40.0,2.0,0.0
3812,76.0,0.0,40.0,1.0,0.0
3813,42.0,0.0,390.0,4.0,0.0
3814,54.0,0.0,390.0,3.0,0.0
3815,78.0,120.0,40.0,1.0,0.0
3816,63.0,0.0,40.0,2.0,0.0
3817,80.0,120.0,40.0,1.0,0.0
3818,64.0,80.0,390.0,2.0,0.0
3819,81.0,120.0,40.0,1.0,0.0
3820,40.0,0.0,390.0,4.0,0.0
3821,52.0,0.0,390.0,3.0,0.0
3822,83.0,120.0,40.0,1.0,0.0
3823,81.0,0.0,40.0,1.0,0.0
3824,76.0,40.0,15.0,0.0,0.0
3825,80.0,120.0,40.0,1.0,0.0
3826,81.0,80.0,40.0,1.0,0.0
3827,78.0,40.0,240.0,0.0,0.0
3828,47.0,0.0,390.0,4.0,0.0
3829,59.0,120.0,390.0,3.0,0.0
3830,80.0,120.0,40.0,1.0,0.0
3831,78.0,80.0,40.0,1.0,0.0
3832,80.0,40.0,480.0,0.0,0.0
3833,76.0,120.0,40.0,1.0,0.0
3834,78.0,0.0,40.0,1.0,0.0
3835,40.0,0.0,390.0,4.0,0.0
3836,80.0,120.0,40.0,1.0,0.0
3837,52.0,120.0,390.0,3.0,0.0
3838,81.0,80.0,40.0,1.0,0.0
3839,83.0,120.0,40.0,1.0,0.0
3840,80.0,40.0,480.0,0.0,0.0
3841,85.0,0.0,40.0,1.0,0.0
3842,64.0,0.0,150.0,3.0,0.0
3843,68.0,0.0,390.0,2.0,0.0
3844,52.0,80.0,150.0,4.0,0.0
3845,87.0,120.0,40.0,1.0,0.0
3846,88.0,0.0,40.0,1.0,0.0
3847,82.0,60.0,450.0,1.0,0.0
3848,75.0,120.0,40.0,0.0,0.0
3849,76.0,120.0,40.0,0.0,0.0
3850,66.0,60.0,390.0,2.0,0.0
3851,78.0,120.0,40.0,0.0,0.0
3852,76.0,60.0,40.0,0.0,0.0
3853,82.0,60.0,210.0,1.0,0.0
3854,75.0,120.0,40.0,0.0,0.0
3855,78.0,0.0,40.0,0.0,0.0
3856,76.0,120.0,40.0,0.0,0.0
3857,84.0,60.0,210.0,1.0,0.0
3858,66.0,120.0,390.0,2.0,0.0
3859,75.0,60.0,40.0,0.0,0.0
3860,85.0,60.0,450.0,1.0,0.0
3861,73.0,120.0,40.0,0.0,0.0
3862,75.0,0.0,40.0,0.0,0.0
3863,76.0,120.0,40.0,0.0,0.0
3864,64.0,120.0,390.0,2.0,0.0
3865,78.0,60.0,40.0,0.0,0.0
3866,80.0,120.0,40.0,0.0,0.0
3867,85.0,60.0,690.0,1.0,0.0
3868,82.0,0.0,40.0,0.0,0.0
3869,84.0,120.0,40.0,0.0,0.0
3870,76.0,120.0,150.0,2.0,0.0
3871,85.0,0.0,40.0,0.0,0.0
3872,62.0,0.0,40.0,2.0,0.0
3873,66.0,40.0,480.0,3.0,0.0
3874,71.0,120.0,40.0,0.0,0.0
3875,73.0,0.0,40.0,0.0,0.0
3876,64.0,60.0,40.0,2.0,0.0
3877,66.0,0.0,40.0,2.0,0.0
3878,83.0,20.0,450.0,1.0,0.0
3879,74.0,120.0,40.0,0.0,0.0
3880,73.0,80.0,40.0,0.0,0.0
3881,64.0,0.0,40.0,2.0,0.0
3882,54.0,0.0,15.0,4.0,0.0
3883,62.0,0.0,40.0,2.0,0.0
3884,71.0,120.0,40.0,0.0,0.0
3885,66.0,0.0,240.0,3.0,0.0
3886,74.0,60.0,40.0,0.0,0.0
3887,66.0,0.0,40.0,2.0,0.0
3888,64.0,0.0,40.0,2.0,0.0
3889,73.0,120.0,40.0,0.0,0.0
3890,56.0,40.0,240.0,4.0,0.0
3891,83.0,60.0,450.0,1.0,0.0
3892,68.0,0.0,240.0,3.0,0.0
3893,62.0,80.0,40.0,2.0,0.0
3894,71.0,0.0,40.0,0.0,0.0
3895,57.0,40.0,480.0,4.0,0.0
3896,69.0,0.0,40.0,0.0,0.0
3897,61.0,120.0,40.0,2.0,0.0
3898,71.0,60.0,40.0,0.0,0.0
3899,62.0,0.0,40.0,2.0,0.0
3900,81.0,40.0,480.0,1.0,0.0
3901,64.0,120.0,40.0,2.0,0.0
3902,73.0,0.0,40.0,0.0,0.0
3903,74.0,0.0,40.0,0.0,0.0
3904,66.0,80.0,40.0,2.0,0.0
3905,69.0,0.0,15.0,3.0,0.0
3906,76.0,0.0,240.0,0.0,0.0
3907,68.0,120.0,40.0,2.0,0.0
3908,57.0,0.0,480.0,4.0,0.0
3909,69.0,80.0,40.0,2.0,0.0
3910,71.0,120.0,40.0,2.0,0.0
3911,85.0,40.0,480.0,0.0,0.0
3912,81.0,40.0,240.0,1.0,0.0
3913,73.0,80.0,40.0,2.0,0.0
3914,57.0,120.0,40.0,3.0,0.0
3915,45.0,0.0,40.0,4.0,0.0
3916,83.0,0.0,40.0,1.0,0.0
3917,63.0,120.0,390.0,2.0,0.0
3918,56.0,0.0,40.0,3.0,0.0
3919,71.0,0.0,40.0,1.0,0.0
3920,44.0,80.0,40.0,4.0,0.0
3921,83.0,40.0,480.0,0.0,0.0
3922,47.0,0.0,40.0,4.0,0.0
3923,68.0,120.0,40.0,1.0,0.0
3924,59.0,0.0,40.0,3.0,0.0
3925,57.0,0.0,40.0,3.0,0.0
3926,45.0,0.0,40.0,4.0,0.0
3927,66.0,0.0,40.0,1.0,0.0
3928,56.0,0.0,40.0,3.0,0.0
3929,44.0,120.0,40.0,4.0,0.0
3930,63.0,0.0,150.0,2.0,0.0
3931,65.0,0.0,40.0,1.0,0.0
3932,68.0,0.0,40.0,1.0,0.0
3933,59.0,0.0,40.0,3.0,0.0
3934,47.0,80.0,40.0,4.0,0.0
3935,83.0,40.0,480.0,0.0,0.0
3936,45.0,0.0,40.0,4.0,0.0
3937,65.0,0.0,150.0,2.0,0.0
3938,57.0,0.0,40.0,3.0,0.0
3939,73.0,120.0,40.0,1.0,0.0
3940,44.0,0.0,40.0,4.0,0.0
3941,71.0,0.0,40.0,1.0,0.0
3942,56.0,120.0,40.0,3.0,0.0
3943,69.0,0.0,40.0,1.0,0.0
3944,42.0,120.0,40.0,4.0,0.0
3945,66.0,0.0,390.0,2.0,0.0
3946,54.0,0.0,40.0,3.0,0.0
3947,78.0,20.0,450.0,11.0,0.0
3948,44.0,80.0,40.0,4.0,0.0
3949,56.0,0.0,40.0,3.0,0.0
3950,71.0,0.0,40.0,1.0,0.0
3951,73.0,120.0,40.0,1.0,0.0
3952,57.0,0.0,40.0,3.0,0.0
3953,45.0,0.0,40.0,4.0,0.0
3954,59.0,60.0,40.0,3.0,0.0
3955,47.0,0.0,40.0,4.0,0.0
3956,75.0,0.0,40.0,1.0,0.0
3957,77.0,120.0,40.0,1.0,0.0
3958,49.0,0.0,40.0,4.0,0.0
3959,66.0,40.0,15.0,13.0,0.0
3960,66.0,0.0,390.0,2.0,0.0
3961,61.0,0.0,40.0,3.0,0.0
3962,78.0,0.0,150.0,11.0,0.0
3963,51.0,0.0,40.0,4.0,0.0
3964,63.0,80.0,40.0,3.0,0.0
3965,78.0,0.0,40.0,1.0,0.0
3966,53.0,0.0,40.0,4.0,0.0
3967,65.0,120.0,40.0,3.0,0.0
3968,68.0,0.0,240.0,13.0,0.0
3969,81.0,40.0,15.0,0.0,0.0
3970,80.0,0.0,150.0,11.0,0.0
3971,80.0,0.0,40.0,1.0,0.0
3972,81.0,0.0,40.0,1.0,0.0
3973,54.0,80.0,40.0,4.0,0.0
3974,66.0,0.0,40.0,3.0,0.0
3975,54.0,0.0,40.0,4.0,0.0
3976,66.0,0.0,40.0,2.0,0.0
3977,69.0,40.0,3120.0,13.0,0.0
3978,81.0,0.0,40.0,0.0,0.0
3979,81.0,0.0,40.0,1.0,0.0
3980,81.0,0.0,3120.0,11.0,0.0
3981,66.0,120.0,40.0,3.0,0.0
3982,63.0,0.0,40.0,2.0,0.0
3983,54.0,80.0,40.0,3.0,0.0
3984,60.0,40.0,120.0,1.0,0.0
3985,69.0,0.0,40.0,1.0,0.0
3986,63.0,0.0,40.0,2.0,0.0
3987,66.0,0.0,40.0,2.0,0.0
3988,42.0,0.0,40.0,4.0,0.0
3989,78.0,0.0,40.0,0.0,0.0
3990,42.0,0.0,40.0,4.0,0.0
3991,63.0,0.0,40.0,2.0,0.0
3992,66.0,0.0,40.0,2.0,0.0
3993,60.0,40.0,120.0,1.0,0.0
3994,69.0,80.0,40.0,1.0,0.0
3995,54.0,0.0,40.0,3.0,0.0
3996,80.0,0.0,40.0,0.0,0.0
3997,69.0,0.0,40.0,1.0,0.0
3998,66.0,0.0,40.0,2.0,0.0
3999,81.0,0.0,40.0,0.0,0.0
4000,54.0,0.0,40.0,3.0,0.0
4001,42.0,80.0,40.0,4.0,0.0
4002,63.0,0.0,40.0,2.0,0.0
4003,84.0,0.0,15.0,10.0,0.0
4004,63.0,0.0,40.0,2.0,0.0
4005,78.0,0.0,40.0,0.0,0.0
4006,66.0,0.0,40.0,2.0,0.0
4007,42.0,0.0,40.0,4.0,0.0
4008,60.0,40.0,15.0,1.0,0.0
4009,54.0,80.0,40.0,3.0,0.0
4010,69.0,0.0,40.0,1.0,0.0
4011,75.0,0.0,40.0,0.0,0.0
4012,42.0,0.0,40.0,4.0,0.0
4013,66.0,0.0,40.0,2.0,0.0
4014,54.0,0.0,40.0,3.0,0.0
4015,69.0,0.0,40.0,1.0,0.0
4016,60.0,40.0,15.0,1.0,0.0
4017,63.0,20.0,40.0,2.0,0.0
4018,54.0,0.0,40.0,3.0,0.0
4019,85.0,60.0,180.0,10.0,0.0
4020,60.0,40.0,15.0,1.0,0.0
4021,42.0,0.0,40.0,4.0,0.0
4022,63.0,0.0,40.0,2.0,0.0
4023,66.0,0.0,40.0,2.0,0.0
4024,76.0,80.0,40.0,0.0,0.0
4025,69.0,0.0,40.0,1.0,0.0
4026,69.0,0.0,40.0,1.0,0.0
4027,78.0,0.0,40.0,0.0,0.0
4028,63.0,0.0,40.0,2.0,0.0
4029,66.0,20.0,40.0,2.0,0.0
4030,42.0,0.0,40.0,4.0,0.0
4031,54.0,0.0,40.0,3.0,0.0
4032,60.0,40.0,120.0,1.0,0.0
4033,63.0,0.0,40.0,2.0,0.0
4034,66.0,80.0,40.0,2.0,0.0
4035,54.0,0.0,40.0,3.0,0.0
4036,60.0,40.0,120.0,1.0,0.0
4037,69.0,0.0,40.0,1.0,0.0
4038,75.0,0.0,40.0,0.0,0.0
4039,42.0,0.0,40.0,4.0,0.0
4040,54.0,0.0,40.0,3.0,0.0
4041,69.0,80.0,40.0,1.0,0.0
4042,42.0,0.0,40.0,4.0,0.0
4043,66.0,0.0,40.0,2.0,0.0
4044,63.0,0.0,40.0,2.0,0.0
4045,72.0,0.0,40.0,0.0,0.0
4046,42.0,0.0,40.0,4.0,0.0
4047,66.0,0.0,40.0,2.0,0.0
4048,69.0,0.0,40.0,1.0,0.0
4049,63.0,0.0,40.0,2.0,0.0
4050,73.0,0.0,40.0,0.0,0.0
4051,60.0,40.0,15.0,1.0,0.0
4052,54.0,80.0,40.0,3.0,0.0
4053,66.0,80.0,40.0,2.0,0.0
4054,54.0,0.0,40.0,3.0,0.0
4055,69.0,0.0,40.0,1.0,0.0
4056,42.0,0.0,40.0,4.0,0.0
4057,60.0,40.0,15.0,1.0,0.0
4058,75.0,0.0,40.0,0.0,0.0
4059,63.0,0.0,40.0,2.0,0.0
4060,72.0,0.0,15.0,12.0,0.0
4061,63.0,80.0,40.0,2.0,0.0
4062,54.0,0.0,40.0,3.0,0.0
4063,66.0,0.0,40.0,2.0,0.0
4064,72.0,0.0,40.0,0.0,0.0
4065,87.0,40.0,15.0,10.0,0.0
4066,69.0,0.0,40.0,1.0,0.0
4067,42.0,0.0,40.0,4.0,0.0
4068,66.0,0.0,40.0,2.0,0.0
4069,54.0,0.0,40.0,3.0,0.0
4070,63.0,20.0,40.0,2.0,0.0
4071,42.0,0.0,40.0,4.0,0.0
4072,60.0,40.0,15.0,1.0,0.0
4073,69.0,0.0,40.0,1.0,0.0
4074,73.0,0.0,40.0,0.0,0.0
4075,66.0,0.0,40.0,2.0,0.0
4076,63.0,0.0,40.0,2.0,0.0
4077,69.0,0.0,40.0,1.0,0.0
4078,60.0,40.0,15.0,1.0,0.0
4079,73.0,0.0,240.0,12.0,0.0
4080,75.0,80.0,40.0,0.0,0.0
4081,54.0,0.0,40.0,3.0,0.0
4082,88.0,60.0,180.0,10.0,0.0
4083,42.0,0.0,40.0,4.0,0.0
4084,60.0,40.0,15.0,1.0,0.0
4085,69.0,0.0,40.0,1.0,0.0
4086,66.0,0.0,40.0,2.0,0.0
4087,76.0,0.0,40.0,0.0,0.0
4088,42.0,0.0,40.0,4.0,0.0
4089,54.0,0.0,40.0,3.0,0.0
4090,63.0,20.0,40.0,2.0,0.0
4091,54.0,0.0,40.0,3.0,0.0
4092,69.0,80.0,40.0,1.0,0.0
4093,60.0,40.0,15.0,1.0,0.0
4094,78.0,0.0,40.0,0.0,0.0
4095,66.0,0.0,40.0,2.0,0.0
4096,63.0,0.0,40.0,2.0,0.0
4097,42.0,0.0,40.0,4.0,0.0
4098,80.0,0.0,40.0,0.0,0.0
4099,54.0,80.0,40.0,3.0,0.0
4100,60.0,40.0,15.0,1.0,0.0
4101,63.0,0.0,40.0,2.0,0.0
4102,69.0,0.0,40.0,1.0,0.0
4103,42.0,0.0,40.0,4.0,0.0
4104,66.0,0.0,40.0,2.0,0.0
4105,63.0,0.0,40.0,2.0,0.0
4106,66.0,0.0,40.0,2.0,0.0
4107,81.0,0.0,40.0,0.0,0.0
4108,42.0,0.0,40.0,4.0,0.0
4109,69.0,80.0,40.0,1.0,0.0
4110,54.0,0.0,40.0,3.0,0.0
4111,60.0,40.0,120.0,1.0,0.0
4112,84.0,0.0,40.0,0.0,0.0
4113,63.0,0.0,40.0,2.0,0.0
4114,66.0,0.0,40.0,2.0,0.0
4115,42.0,0.0,40.0,4.0,0.0
4116,69.0,80.0,40.0,1.0,0.0
4117,54.0,0.0,40.0,3.0,0.0
4118,90.0,0.0,15.0,10.0,0.0
4119,63.0,80.0,40.0,2.0,0.0
4120,66.0,0.0,40.0,2.0,0.0
4121,75.0,0.0,15.0,12.0,0.0
4122,85.0,0.0,40.0,0.0,0.0
4123,42.0,0.0,40.0,4.0,0.0
4124,69.0,0.0,40.0,1.0,0.0
4125,60.0,40.0,15.0,1.0,0.0
4126,54.0,0.0,40.0,3.0,0.0
4127,69.0,80.0,40.0,1.0,0.0
4128,60.0,40.0,15.0,1.0,0.0
4129,42.0,0.0,40.0,4.0,0.0
4130,54.0,0.0,40.0,3.0,0.0
4131,66.0,0.0,40.0,2.0,0.0
4132,63.0,0.0,40.0,2.0,0.0
4133,87.0,0.0,40.0,0.0,0.0
4134,88.0,0.0,40.0,0.0,0.0
4135,76.0,40.0,240.0,12.0,0.0
4136,92.0,80.0,150.0,10.0,0.0
4137,54.0,0.0,40.0,3.0,0.0
4138,66.0,0.0,40.0,2.0,0.0
4139,42.0,0.0,40.0,4.0,0.0
4140,69.0,80.0,40.0,1.0,0.0
4141,60.0,40.0,15.0,1.0,0.0
4142,63.0,0.0,40.0,2.0,0.0
4143,89.0,0.0,40.0,0.0,0.0
4144,42.0,0.0,40.0,4.0,0.0
4145,54.0,0.0,40.0,3.0,0.0
4146,66.0,0.0,40.0,2.0,0.0
4147,63.0,0.0,40.0,2.0,0.0
4148,69.0,0.0,40.0,1.0,0.0
4149,60.0,40.0,15.0,1.0,0.0
4150,93.0,0.0,240.0,10.0,0.0
4151,69.0,0.0,40.0,1.0,0.0
4152,60.0,0.0,15.0,1.0,0.0
4153,63.0,0.0,40.0,2.0,0.0
4154,66.0,80.0,40.0,2.0,0.0
4155,54.0,0.0,40.0,3.0,0.0
4156,42.0,0.0,40.0,4.0,0.0
4157,90.0,0.0,40.0,0.0,0.0
4158,81.0,0.0,240.0,12.0,0.0
4159,75.0,0.0,40.0,1.0,0.0
4160,42.0,0.0,40.0,4.0,0.0
4161,54.0,80.0,40.0,3.0,0.0
4162,92.0,0.0,40.0,0.0,0.0
4163,63.0,0.0,40.0,2.0,0.0
4164,42.0,0.0,40.0,4.0,0.0
4165,56.0,0.0,720.0,5.0,0.0
4166,68.0,0.0,720.0,5.0,0.0
4167,75.0,10.0,40.0,1.0,0.0
4168,92.0,0.0,120.0,10.0,0.0
4169,80.0,0.0,120.0,12.0,0.0
4170,63.0,0.0,40.0,2.0,0.0
4171,92.0,0.0,40.0,0.0,0.0
4172,54.0,0.0,40.0,3.0,0.0
4173,68.0,0.0,120.0,13.0,0.0
4174,80.0,70.0,30.0,11.0,0.0
4175,63.0,0.0,40.0,2.0,0.0
4176,54.0,0.0,40.0,3.0,0.0
4177,92.0,10.0,40.0,0.0,0.0
4178,42.0,0.0,40.0,4.0,0.0
4179,91.0,40.0,120.0,10.0,0.0
4180,67.0,0.0,120.0,13.0,0.0
4181,56.0,40.0,15.0,7.0,0.0
4182,79.0,0.0,120.0,12.0,0.0
4183,75.0,0.0,40.0,1.0,0.0
4184,79.0,70.0,30.0,11.0,0.0
4185,92.0,10.0,40.0,0.0,0.0
4186,80.0,0.0,120.0,12.0,0.0
4187,63.0,0.0,40.0,2.0,0.0
4188,75.0,0.0,40.0,1.0,0.0
4189,68.0,40.0,120.0,13.0,0.0
4190,56.0,0.0,15.0,7.0,0.0
4191,42.0,0.0,40.0,4.0,0.0
4192,54.0,0.0,40.0,3.0,0.0
4193,92.0,0.0,120.0,10.0,0.0
4194,80.0,70.0,30.0,11.0,0.0
4195,75.0,0.0,40.0,1.0,0.0
4196,63.0,0.0,40.0,2.0,0.0
4197,68.0,0.0,40.0,12.0,0.0
4198,68.0,0.0,40.0,11.0,0.0
4199,92.0,0.0,40.0,0.0,0.0
4200,56.0,0.0,15.0,7.0,0.0
4201,54.0,0.0,40.0,3.0,0.0
4202,80.0,0.0,40.0,10.0,0.0
4203,42.0,10.0,40.0,4.0,0.0
4204,56.0,40.0,120.0,13.0,0.0
4205,80.0,70.0,30.0,11.0,0.0
4206,82.0,0.0,40.0,10.0,0.0
4207,68.0,0.0,40.0,2.0,0.0
4208,56.0,0.0,15.0,7.0,0.0
4209,70.0,0.0,40.0,11.0,0.0
4210,92.0,10.0,40.0,0.0,0.0
4211,52.0,0.0,40.0,3.0,0.0
4212,70.0,0.0,40.0,12.0,0.0
4213,40.0,0.0,40.0,4.0,0.0
4214,58.0,0.0,120.0,13.0,0.0
4215,80.0,0.0,40.0,1.0,0.0
4216,82.0,70.0,30.0,11.0,0.0
4217,78.0,0.0,40.0,1.0,0.0
4218,51.0,0.0,40.0,3.0,0.0
4219,92.0,0.0,40.0,0.0,0.0
4220,72.0,0.0,40.0,12.0,0.0
4221,39.0,0.0,40.0,4.0,0.0
4222,60.0,0.0,120.0,13.0,0.0
4223,66.0,0.0,40.0,2.0,0.0
4224,72.0,10.0,40.0,11.0,0.0
4225,84.0,0.0,40.0,10.0,0.0
4226,84.0,70.0,30.0,11.0,0.0
4227,49.0,0.0,450.0,3.0,0.0
4228,68.0,0.0,450.0,1.0,0.0
4229,80.0,0.0,450.0,1.0,0.0
4230,68.0,0.0,450.0,5.0,0.0
4231,73.0,0.0,40.0,12.0,0.0
4232,80.0,0.0,450.0,0.0,0.0
4233,92.0,0.0,450.0,0.0,0.0
4234,80.0,40.0,15.0,6.0,0.0
4235,85.0,10.0,40.0,10.0,0.0
4236,73.0,0.0,40.0,11.0,0.0
4237,64.0,0.0,450.0,2.0,0.0
4238,57.0,0.0,450.0,2.0,0.0
4239,37.0,0.0,450.0,4.0,0.0
4240,56.0,0.0,15.0,7.0,0.0
4241,61.0,40.0,120.0,13.0,0.0
4242,85.0,70.0,30.0,11.0,0.0
4243,75.0,0.0,40.0,12.0,0.0
4244,75.0,0.0,40.0,11.0,0.0
4245,87.0,10.0,40.0,10.0,0.0
4246,63.0,40.0,120.0,13.0,0.0
4247,87.0,70.0,30.0,11.0,0.0
4248,73.0,0.0,40.0,11.0,0.0
4249,88.0,10.0,40.0,10.0,0.0
4250,64.0,40.0,120.0,13.0,0.0
4251,76.0,0.0,40.0,12.0,0.0
4252,88.0,70.0,30.0,11.0,0.0
4253,75.0,0.0,40.0,12.0,0.0
4254,63.0,40.0,120.0,13.0,0.0
4255,71.0,10.0,40.0,11.0,0.0
4256,87.0,0.0,40.0,10.0,0.0
4257,87.0,40.0,30.0,11.0,0.0
4258,85.0,10.0,40.0,10.0,0.0
4259,64.0,0.0,180.0,2.0,0.0
4260,80.0,0.0,240.0,1.0,0.0
4261,61.0,40.0,120.0,13.0,0.0
4262,73.0,0.0,40.0,12.0,0.0
4263,68.0,20.0,180.0,1.0,0.0
4264,68.0,40.0,210.0,5.0,0.0
4265,57.0,0.0,180.0,2.0,0.0
4266,56.0,0.0,180.0,7.0,0.0
4267,80.0,0.0,180.0,0.0,0.0
4268,92.0,0.0,180.0,0.0,0.0
4269,49.0,0.0,180.0,3.0,0.0
4270,73.0,0.0,40.0,11.0,0.0
4271,37.0,0.0,180.0,4.0,0.0
4272,80.0,0.0,180.0,6.0,0.0
4273,85.0,70.0,30.0,11.0,0.0
4274,76.0,0.0,40.0,12.0,0.0
4275,76.0,10.0,40.0,11.0,0.0
4276,64.0,40.0,120.0,13.0,0.0
4277,88.0,0.0,40.0,10.0,0.0
4278,88.0,10.0,30.0,11.0,0.0
4279,63.0,40.0,120.0,13.0,0.0
4280,75.0,0.0,40.0,11.0,0.0
4281,87.0,0.0,40.0,10.0,0.0
4282,49.0,0.0,180.0,3.0,0.0
4283,68.0,0.0,180.0,1.0,0.0
4284,75.0,10.0,40.0,12.0,0.0
4285,68.0,40.0,210.0,5.0,0.0
4286,56.0,0.0,180.0,7.0,0.0
4287,80.0,0.0,180.0,6.0,0.0
4288,80.0,0.0,240.0,1.0,0.0
4289,57.0,0.0,180.0,2.0,0.0
4290,64.0,0.0,180.0,2.0,0.0
4291,80.0,0.0,180.0,0.0,0.0
4292,37.0,0.0,180.0,4.0,0.0
4293,92.0,20.0,180.0,0.0,0.0
4294,87.0,70.0,30.0,11.0,0.0
4295,85.0,0.0,40.0,10.0,0.0
4296,73.0,10.0,40.0,11.0,0.0
4297,73.0,0.0,40.0,12.0,0.0
4298,61.0,40.0,120.0,13.0,0.0
4299,85.0,10.0,30.0,11.0,0.0
4300,57.0,0.0,450.0,2.0,0.0
4301,63.0,0.0,450.0,2.0,0.0
4302,48.0,30.0,450.0,3.0,0.0
4303,36.0,40.0,480.0,4.0,0.0
4304,75.0,0.0,450.0,1.0,0.0
4305,68.0,0.0,450.0,1.0,0.0
4306,80.0,10.0,40.0,10.0,0.0
4307,56.0,0.0,450.0,7.0,0.0
4308,56.0,40.0,120.0,13.0,0.0
4309,80.0,0.0,450.0,6.0,0.0
4310,68.0,0.0,40.0,12.0,0.0
4311,92.0,0.0,450.0,0.0,0.0
4312,80.0,0.0,450.0,0.0,0.0
4313,68.0,0.0,40.0,11.0,0.0
4314,68.0,0.0,450.0,5.0,0.0
4315,80.0,70.0,30.0,11.0,0.0
4316,58.0,40.0,120.0,13.0,0.0
4317,70.0,10.0,40.0,11.0,0.0
4318,82.0,0.0,40.0,10.0,0.0
4319,70.0,0.0,40.0,12.0,0.0
4320,82.0,70.0,30.0,11.0,0.0
4321,60.0,40.0,120.0,13.0,0.0
4322,72.0,10.0,40.0,11.0,0.0
4323,72.0,0.0,40.0,12.0,0.0
4324,84.0,0.0,40.0,10.0,0.0
4325,84.0,70.0,30.0,11.0,0.0
4326,73.0,0.0,40.0,12.0,0.0
4327,85.0,0.0,40.0,10.0,0.0
4328,61.0,0.0,120.0,13.0,0.0
4329,73.0,10.0,40.0,11.0,0.0
4330,85.0,40.0,30.0,11.0,0.0
4331,80.0,0.0,450.0,0.0,0.0
4332,92.0,0.0,450.0,0.0,0.0
4333,68.0,0.0,450.0,5.0,0.0
4334,63.0,20.0,120.0,13.0,0.0
4335,75.0,0.0,40.0,11.0,0.0
4336,75.0,0.0,450.0,1.0,0.0
4337,80.0,0.0,450.0,6.0,0.0
4338,87.0,10.0,40.0,10.0,0.0
4339,68.0,0.0,450.0,1.0,0.0
4340,56.0,0.0,450.0,7.0,0.0
4341,36.0,0.0,480.0,4.0,0.0
4342,63.0,0.0,450.0,2.0,0.0
4343,75.0,0.0,40.0,12.0,0.0
4344,57.0,0.0,450.0,2.0,0.0
4345,48.0,30.0,450.0,3.0,0.0
4346,87.0,70.0,30.0,11.0,0.0
4347,64.0,20.0,120.0,13.0,0.0
4348,88.0,80.0,40.0,10.0,0.0
4349,76.0,0.0,40.0,12.0,0.0
4350,76.0,20.0,15.0,11.0,0.0
4351,66.0,20.0,120.0,13.0,0.0
4352,78.0,80.0,40.0,12.0,0.0
4353,90.0,0.0,40.0,10.0,0.0
4354,78.0,20.0,15.0,11.0,0.0
4355,92.0,0.0,40.0,10.0,0.0
4356,68.0,40.0,120.0,13.0,0.0
4357,80.0,50.0,40.0,12.0,0.0
4358,80.0,20.0,15.0,11.0,0.0
4359,56.0,0.0,450.0,2.0,0.0
4360,63.0,40.0,480.0,2.0,0.0
4361,93.0,0.0,40.0,10.0,0.0
4362,84.0,30.0,450.0,1.0,0.0
4363,75.0,0.0,450.0,1.0,0.0
4364,44.0,0.0,450.0,3.0,0.0
4365,78.0,10.0,40.0,12.0,0.0
4366,66.0,40.0,120.0,13.0,0.0
4367,56.0,0.0,450.0,7.0,0.0
4368,80.0,0.0,450.0,6.0,0.0
4369,68.0,0.0,450.0,5.0,0.0
4370,80.0,0.0,450.0,0.0,0.0
4371,92.0,0.0,450.0,0.0,0.0
4372,78.0,70.0,30.0,11.0,0.0
4373,87.0,0.0,40.0,10.0,0.0
4374,75.0,10.0,40.0,12.0,0.0
4375,63.0,40.0,120.0,13.0,0.0
4376,75.0,70.0,30.0,11.0,0.0
4377,88.0,0.0,40.0,10.0,0.0
4378,76.0,10.0,40.0,12.0,0.0
4379,64.0,40.0,120.0,13.0,0.0
4380,76.0,70.0,30.0,11.0,0.0
4381,90.0,0.0,40.0,10.0,0.0
4382,78.0,10.0,40.0,12.0,0.0
4383,66.0,0.0,120.0,13.0,0.0
4384,78.0,40.0,30.0,11.0,0.0
4385,80.0,0.0,180.0,6.0,0.0
4386,56.0,0.0,180.0,7.0,0.0
4387,44.0,0.0,180.0,3.0,0.0
4388,68.0,40.0,120.0,13.0,0.0
4389,68.0,60.0,180.0,5.0,0.0
4390,92.0,0.0,180.0,0.0,0.0
4391,92.0,10.0,40.0,10.0,0.0
4392,32.0,0.0,15.0,4.0,0.0
4393,56.0,0.0,180.0,2.0,0.0
4394,80.0,0.0,180.0,0.0,0.0
4395,75.0,0.0,180.0,1.0,0.0
4396,84.0,40.0,240.0,1.0,0.0
4397,80.0,0.0,40.0,12.0,0.0
4398,63.0,0.0,180.0,2.0,0.0
4399,80.0,70.0,30.0,11.0,0.0
4400,66.0,0.0,120.0,13.0,0.0
4401,90.0,0.0,40.0,10.0,0.0
4402,78.0,10.0,40.0,12.0,0.0
4403,78.0,10.0,30.0,11.0,0.0
4404,64.0,40.0,120.0,13.0,0.0
4405,44.0,0.0,180.0,3.0,0.0
4406,32.0,0.0,180.0,4.0,0.0
4407,56.0,0.0,180.0,7.0,0.0
4408,88.0,10.0,40.0,10.0,0.0
4409,80.0,0.0,180.0,6.0,0.0
4410,92.0,0.0,180.0,0.0,0.0
4411,75.0,0.0,180.0,1.0,0.0
4412,84.0,40.0,240.0,1.0,0.0
4413,76.0,0.0,40.0,12.0,0.0
4414,80.0,0.0,180.0,0.0,0.0
4415,56.0,0.0,180.0,2.0,0.0
4416,63.0,60.0,180.0,2.0,0.0
4417,68.0,0.0,180.0,5.0,0.0
4418,76.0,70.0,30.0,11.0,0.0
4419,75.0,10.0,40.0,12.0,0.0
4420,63.0,0.0,120.0,13.0,0.0
4421,87.0,0.0,40.0,10.0,0.0
4422,75.0,10.0,30.0,11.0,0.0
4423,68.0,0.0,450.0,5.0,0.0
4424,80.0,0.0,450.0,6.0,0.0
4425,80.0,0.0,450.0,0.0,0.0
4426,85.0,30.0,450.0,1.0,0.0
4427,37.0,0.0,450.0,4.0,0.0
4428,92.0,0.0,450.0,0.0,0.0
4429,49.0,0.0,450.0,3.0,0.0
4430,56.0,0.0,450.0,2.0,0.0
4431,64.0,0.0,450.0,2.0,0.0
4432,76.0,0.0,450.0,1.0,0.0
4433,88.0,10.0,40.0,10.0,0.0
4434,56.0,0.0,450.0,7.0,0.0
4435,76.0,0.0,40.0,12.0,0.0
4436,64.0,40.0,120.0,13.0,0.0
4437,76.0,70.0,30.0,11.0,0.0
4438,87.0,10.0,40.0,10.0,0.0
4439,63.0,40.0,120.0,13.0,0.0
4440,75.0,0.0,40.0,12.0,0.0
4441,75.0,70.0,30.0,11.0,0.0
4442,88.0,0.0,40.0,10.0,0.0
4443,76.0,10.0,40.0,12.0,0.0
4444,64.0,40.0,120.0,13.0,0.0
4445,76.0,70.0,30.0,11.0,0.0
4446,66.0,40.0,120.0,13.0,0.0
4447,78.0,0.0,40.0,12.0,0.0
4448,90.0,10.0,40.0,10.0,0.0
4449,78.0,40.0,30.0,11.0,0.0
4450,64.0,0.0,450.0,2.0,0.0
4451,76.0,0.0,450.0,1.0,0.0
4452,92.0,10.0,40.0,10.0,0.0
4453,85.0,0.0,450.0,1.0,0.0
4454,49.0,0.0,450.0,3.0,0.0
4455,56.0,30.0,450.0,2.0,0.0
4456,80.0,0.0,40.0,12.0,0.0
4457,37.0,0.0,450.0,4.0,0.0
4458,92.0,0.0,450.0,0.0,0.0
4459,80.0,0.0,450.0,0.0,0.0
4460,68.0,40.0,120.0,13.0,0.0
4461,68.0,0.0,450.0,5.0,0.0
4462,56.0,0.0,450.0,7.0,0.0
4463,80.0,0.0,450.0,6.0,0.0
4464,80.0,70.0,30.0,11.0,0.0
4465,68.0,0.0,40.0,12.0,0.0
4466,56.0,40.0,120.0,13.0,0.0
4467,68.0,0.0,40.0,11.0,0.0
4468,80.0,10.0,40.0,10.0,0.0
4469,80.0,70.0,30.0,11.0,0.0
4470,70.0,0.0,40.0,12.0,0.0
4471,58.0,40.0,120.0,13.0,0.0
4472,70.0,10.0,40.0,11.0,0.0
4473,82.0,0.0,40.0,10.0,0.0
4474,82.0,70.0,30.0,11.0,0.0
4475,84.0,0.0,40.0,10.0,0.0
4476,60.0,40.0,120.0,13.0,0.0
4477,72.0,10.0,40.0,12.0,0.0
4478,72.0,0.0,40.0,11.0,0.0
4479,84.0,40.0,30.0,11.0,0.0
4480,80.0,30.0,450.0,0.0,0.0
4481,64.0,0.0,450.0,2.0,0.0
4482,80.0,40.0,240.0,6.0,0.0
4483,61.0,40.0,120.0,13.0,0.0
4484,68.0,0.0,450.0,5.0,0.0
4485,49.0,0.0,450.0,3.0,0.0
4486,85.0,0.0,450.0,1.0,0.0
4487,76.0,0.0,450.0,1.0,0.0
4488,37.0,0.0,450.0,4.0,0.0
4489,73.0,0.0,40.0,11.0,0.0
4490,56.0,0.0,450.0,2.0,0.0
4491,92.0,0.0,450.0,0.0,0.0
4492,56.0,0.0,450.0,7.0,0.0
4493,73.0,10.0,40.0,12.0,0.0
4494,85.0,0.0,40.0,10.0,0.0
4495,85.0,70.0,30.0,11.0,0.0
4496,75.0,0.0,40.0,11.0,0.0
4497,63.0,0.0,120.0,13.0,0.0
4498,87.0,0.0,40.0,10.0,0.0
4499,75.0,10.0,40.0,12.0,0.0
4500,87.0,70.0,30.0,11.0,0.0
4501,64.0,40.0,120.0,13.0,0.0
4502,76.0,0.0,40.0,11.0,0.0
4503,88.0,0.0,40.0,10.0,0.0
4504,76.0,10.0,40.0,12.0,0.0
4505,88.0,70.0,30.0,11.0,0.0
4506,75.0,10.0,40.0,11.0,0.0
4507,87.0,0.0,40.0,10.0,0.0
4508,75.0,0.0,40.0,12.0,0.0
4509,63.0,40.0,120.0,13.0,0.0
4510,87.0,40.0,30.0,11.0,0.0
4511,56.0,0.0,180.0,7.0,0.0
4512,49.0,0.0,180.0,3.0,0.0
4513,64.0,0.0,180.0,2.0,0.0
4514,56.0,0.0,180.0,2.0,0.0
4515,37.0,0.0,180.0,4.0,0.0
4516,80.0,0.0,180.0,0.0,0.0
4517,92.0,0.0,180.0,0.0,0.0
4518,73.0,0.0,40.0,11.0,0.0
4519,80.0,0.0,180.0,6.0,0.0
4520,73.0,0.0,40.0,12.0,0.0
4521,68.0,60.0,180.0,5.0,0.0
4522,76.0,0.0,180.0,1.0,0.0
4523,85.0,0.0,240.0,1.0,0.0
4524,61.0,40.0,120.0,13.0,0.0
4525,85.0,10.0,40.0,10.0,0.0
4526,85.0,70.0,30.0,11.0,0.0
4527,88.0,0.0,40.0,10.0,0.0
4528,64.0,40.0,120.0,13.0,0.0
4529,76.0,0.0,40.0,11.0,0.0
4530,76.0,10.0,40.0,12.0,0.0
4531,88.0,10.0,30.0,11.0,0.0
4532,76.0,0.0,180.0,1.0,0.0
4533,64.0,0.0,180.0,2.0,0.0
4534,56.0,0.0,180.0,2.0,0.0
4535,85.0,0.0,240.0,1.0,0.0
4536,75.0,0.0,40.0,11.0,0.0
4537,68.0,0.0,180.0,5.0,0.0
4538,92.0,0.0,180.0,0.0,0.0
4539,56.0,0.0,180.0,7.0,0.0
4540,49.0,60.0,180.0,3.0,0.0
4541,80.0,0.0,180.0,6.0,0.0
4542,75.0,10.0,40.0,12.0,0.0
4543,80.0,0.0,180.0,0.0,0.0
4544,87.0,0.0,40.0,10.0,0.0
4545,37.0,0.0,180.0,4.0,0.0
4546,63.0,40.0,120.0,13.0,0.0
4547,87.0,70.0,30.0,11.0,0.0
4548,85.0,0.0,40.0,10.0,0.0
4549,73.0,0.0,40.0,12.0,0.0
4550,61.0,40.0,120.0,13.0,0.0
4551,73.0,10.0,40.0,11.0,0.0
4552,85.0,10.0,30.0,11.0,0.0
4553,68.0,0.0,240.0,5.0,0.0
4554,36.0,30.0,450.0,4.0,0.0
4555,66.0,0.0,450.0,2.0,0.0
4556,48.0,0.0,450.0,3.0,0.0
4557,87.0,0.0,450.0,1.0,0.0
4558,78.0,0.0,450.0,1.0,0.0
4559,80.0,0.0,40.0,10.0,0.0
4560,56.0,0.0,450.0,7.0,0.0
4561,68.0,10.0,40.0,12.0,0.0
4562,80.0,0.0,450.0,6.0,0.0
4563,92.0,0.0,450.0,0.0,0.0
4564,80.0,0.0,450.0,0.0,0.0
4565,56.0,40.0,120.0,13.0,0.0
4566,56.0,0.0,450.0,2.0,0.0
4567,80.0,70.0,30.0,11.0,0.0
4568,82.0,10.0,40.0,10.0,0.0
4569,70.0,0.0,40.0,12.0,0.0
4570,58.0,40.0,120.0,13.0,0.0
4571,82.0,70.0,30.0,11.0,0.0
4572,60.0,40.0,120.0,13.0,0.0
4573,72.0,10.0,40.0,12.0,0.0
4574,84.0,0.0,40.0,10.0,0.0
4575,84.0,70.0,30.0,11.0,0.0
4576,85.0,0.0,40.0,10.0,0.0
4577,73.0,10.0,40.0,12.0,0.0
4578,61.0,40.0,120.0,13.0,0.0
4579,85.0,40.0,30.0,11.0,0.0
4580,37.0,30.0,450.0,4.0,0.0
4581,63.0,40.0,120.0,13.0,0.0
4582,68.0,0.0,450.0,5.0,0.0
4583,85.0,0.0,450.0,1.0,0.0
4584,56.0,0.0,450.0,2.0,0.0
4585,64.0,0.0,450.0,2.0,0.0
4586,80.0,0.0,450.0,6.0,0.0
4587,92.0,0.0,450.0,0.0,0.0
4588,80.0,0.0,450.0,0.0,0.0
4589,75.0,0.0,40.0,12.0,0.0
4590,56.0,0.0,450.0,7.0,0.0
4591,76.0,0.0,450.0,1.0,0.0
4592,49.0,0.0,450.0,3.0,0.0
4593,87.0,10.0,40.0,10.0,0.0
4594,87.0,70.0,30.0,11.0,0.0
4595,88.0,10.0,40.0,10.0,0.0
4596,76.0,0.0,40.0,12.0,0.0
4597,64.0,40.0,120.0,13.0,0.0
4598,76.0,70.0,30.0,11.0,0.0
4599,66.0,40.0,120.0,13.0,0.0
4600,90.0,0.0,40.0,10.0,0.0
4601,78.0,10.0,40.0,12.0,0.0
4602,78.0,70.0,30.0,11.0,0.0
4603,68.0,40.0,120.0,13.0,0.0
4604,92.0,10.0,40.0,10.0,0.0
4605,80.0,0.0,40.0,12.0,0.0
4606,80.0,40.0,30.0,11.0,0.0
4607,92.0,0.0,450.0,0.0,0.0
4608,56.0,30.0,450.0,7.0,0.0
4609,75.0,0.0,450.0,1.0,0.0
4610,66.0,40.0,120.0,13.0,0.0
4611,32.0,0.0,450.0,4.0,0.0
4612,90.0,0.0,40.0,10.0,0.0
4613,68.0,40.0,240.0,5.0,0.0
4614,78.0,10.0,40.0,12.0,0.0
4615,63.0,0.0,450.0,2.0,0.0
4616,56.0,0.0,450.0,2.0,0.0
4617,80.0,0.0,450.0,6.0,0.0
4618,44.0,0.0,450.0,3.0,0.0
4619,84.0,0.0,450.0,1.0,0.0
4620,80.0,0.0,450.0,0.0,0.0
4621,78.0,70.0,30.0,11.0,0.0
4622,63.0,0.0,120.0,13.0,0.0
4623,87.0,10.0,40.0,10.0,0.0
4624,75.0,0.0,40.0,12.0,0.0
4625,75.0,70.0,30.0,11.0,0.0
4626,76.0,10.0,40.0,12.0,0.0
4627,64.0,40.0,120.0,13.0,0.0
4628,88.0,0.0,40.0,10.0,0.0
4629,76.0,70.0,30.0,11.0,0.0
4630,66.0,40.0,120.0,13.0,0.0
4631,90.0,0.0,40.0,10.0,0.0
4632,78.0,10.0,40.0,12.0,0.0
4633,78.0,40.0,30.0,11.0,0.0
4634,56.0,0.0,180.0,2.0,0.0
4635,61.0,0.0,180.0,2.0,0.0
4636,56.0,0.0,180.0,3.0,0.0
4637,92.0,0.0,40.0,10.0,0.0
4638,82.0,40.0,240.0,1.0,0.0
4639,68.0,40.0,120.0,13.0,0.0
4640,73.0,0.0,150.0,1.0,0.0
4641,56.0,60.0,180.0,7.0,0.0
4642,80.0,0.0,180.0,6.0,0.0
4643,70.0,0.0,180.0,5.0,0.0
4644,44.0,0.0,180.0,4.0,0.0
4645,82.0,0.0,180.0,0.0,0.0
4646,80.0,10.0,40.0,12.0,0.0
4647,80.0,70.0,30.0,11.0,0.0
4648,66.0,0.0,120.0,13.0,0.0
4649,90.0,10.0,40.0,10.0,0.0
4650,78.0,0.0,40.0,12.0,0.0
4651,78.0,10.0,30.0,11.0,0.0
4652,84.0,0.0,180.0,0.0,0.0
4653,88.0,10.0,40.0,10.0,0.0
4654,72.0,0.0,180.0,5.0,0.0
4655,84.0,0.0,240.0,1.0,0.0
4656,64.0,40.0,120.0,13.0,0.0
4657,75.0,0.0,180.0,1.0,0.0
4658,76.0,0.0,40.0,12.0,0.0
4659,56.0,0.0,180.0,3.0,0.0
4660,80.0,60.0,180.0,6.0,0.0
4661,56.0,0.0,180.0,7.0,0.0
4662,44.0,0.0,180.0,4.0,0.0
4663,63.0,0.0,180.0,2.0,0.0
4664,56.0,0.0,180.0,2.0,0.0
4665,76.0,70.0,30.0,11.0,0.0
4666,75.0,0.0,40.0,12.0,0.0
4667,63.0,240.0,120.0,13.0,0.0
4668,87.0,10.0,40.0,10.0,0.0
4669,75.0,10.0,30.0,11.0,0.0
4670,73.0,0.0,450.0,5.0,0.0
4671,37.0,0.0,480.0,4.0,0.0
4672,73.0,0.0,480.0,11.0,0.0
4673,76.0,210.0,240.0,1.0,0.0
4674,85.0,0.0,240.0,1.0,0.0
4675,49.0,30.0,450.0,7.0,0.0
4676,85.0,0.0,450.0,0.0,0.0
4677,49.0,0.0,480.0,3.0,0.0
4678,64.0,240.0,480.0,2.0,0.0
4679,73.0,0.0,480.0,6.0,0.0
4680,73.0,0.0,480.0,12.0,0.0
4681,56.0,0.0,480.0,2.0,0.0
4682,61.0,0.0,480.0,6.0,0.0
4683,61.0,0.0,480.0,13.0,0.0
4684,85.0,0.0,480.0,10.0,0.0
4685,80.0,240.0,15.0,11.0,0.0
4686,78.0,120.0,60.0,0.0,0.0
4687,56.0,0.0,450.0,5.0,0.0
4688,68.0,30.0,450.0,5.0,0.0
4689,66.0,0.0,480.0,13.0,0.0
4690,80.0,60.0,240.0,11.0,0.0
4691,75.0,60.0,60.0,0.0,0.0
4692,76.0,120.0,60.0,0.0,0.0
4693,78.0,30.0,60.0,0.0,0.0
4694,63.0,0.0,15.0,13.0,0.0
4695,66.0,0.0,240.0,13.0,0.0
4696,56.0,0.0,180.0,5.0,0.0
4697,68.0,0.0,180.0,5.0,0.0
4698,78.0,0.0,15.0,12.0,0.0
4699,75.0,60.0,15.0,12.0,0.0
4700,82.0,60.0,240.0,11.0,0.0
4701,80.0,120.0,60.0,0.0,0.0
4702,78.0,60.0,60.0,0.0,0.0
4703,63.0,0.0,240.0,13.0,0.0
4704,66.0,0.0,240.0,13.0,0.0
4705,76.0,120.0,60.0,0.0,0.0
4706,75.0,0.0,15.0,12.0,0.0
4707,78.0,240.0,240.0,12.0,0.0
4708,56.0,0.0,180.0,5.0,0.0
4709,68.0,0.0,180.0,5.0,0.0
4710,84.0,0.0,240.0,11.0,0.0
4711,75.0,60.0,60.0,0.0,0.0
4712,61.0,0.0,240.0,13.0,0.0
4713,64.0,240.0,240.0,13.0,0.0
4714,68.0,0.0,240.0,5.0,0.0
4715,85.0,0.0,240.0,11.0,0.0
4716,73.0,0.0,240.0,12.0,0.0
4717,76.0,0.0,240.0,12.0,0.0
4718,73.0,520.0,480.0,0.0,0.0
4719,66.0,120.0,40.0,1.0,0.0
4720,32.0,40.0,480.0,4.0,0.0
4721,44.0,0.0,480.0,3.0,0.0
4722,63.0,120.0,40.0,1.0,0.0
4723,65.0,120.0,40.0,1.0,0.0
4724,66.0,80.0,40.0,1.0,0.0
4725,34.0,0.0,240.0,4.0,0.0
4726,46.0,40.0,240.0,3.0,0.0
4727,68.0,0.0,960.0,13.0,0.0
4728,68.0,120.0,40.0,1.0,0.0
4729,80.0,80.0,150.0,0.0,0.0
4730,80.0,0.0,960.0,12.0,0.0
4731,66.0,0.0,40.0,1.0,0.0
4732,78.0,80.0,150.0,0.0,0.0
4733,36.0,0.0,240.0,4.0,0.0
4734,65.0,40.0,40.0,1.0,0.0
4735,48.0,160.0,240.0,3.0,0.0
4736,75.0,0.0,150.0,0.0,0.0
4737,63.0,80.0,40.0,1.0,0.0
4738,37.0,0.0,480.0,4.0,0.0
4739,53.0,0.0,1920.0,2.0,0.0
4740,61.0,160.0,1920.0,1.0,0.0
4741,49.0,0.0,480.0,3.0,0.0
4742,56.0,0.0,1920.0,2.0,0.0
4743,80.0,160.0,150.0,0.0,0.0
4744,77.0,160.0,150.0,0.0,0.0
4745,73.0,160.0,150.0,0.0,0.0
4746,77.0,0.0,480.0,12.0,0.0
4747,65.0,0.0,480.0,13.0,0.0
4748,77.0,160.0,150.0,0.0,0.0
4749,73.0,160.0,150.0,0.0,0.0
4750,68.0,160.0,150.0,0.0,0.0
4751,61.0,0.0,480.0,13.0,0.0
4752,32.0,0.0,480.0,4.0,0.0
4753,73.0,160.0,150.0,0.0,0.0
4754,44.0,160.0,480.0,3.0,0.0
4755,73.0,0.0,480.0,12.0,0.0
4756,68.0,160.0,150.0,0.0,0.0
4757,65.0,0.0,150.0,0.0,0.0
4758,77.0,80.0,150.0,0.0,0.0
4759,65.0,0.0,480.0,13.0,0.0
4760,73.0,160.0,150.0,0.0,0.0
4761,44.0,80.0,15.0,4.0,0.0
4762,56.0,0.0,15.0,3.0,0.0
4763,68.0,0.0,150.0,0.0,0.0
4764,58.0,0.0,1440.0,2.0,0.0
4765,65.0,0.0,480.0,13.0,0.0
4766,44.0,160.0,480.0,3.0,0.0
4767,54.0,0.0,1440.0,2.0,0.0
4768,32.0,0.0,480.0,4.0,0.0
4769,77.0,0.0,15.0,12.0,0.0
4770,63.0,0.0,960.0,1.0,0.0
4771,77.0,160.0,150.0,0.0,0.0
4772,70.0,160.0,150.0,0.0,0.0
4773,66.0,0.0,150.0,0.0,0.0
4774,56.0,0.0,240.0,3.0,0.0
4775,75.0,80.0,150.0,0.0,0.0
4776,54.0,0.0,960.0,13.0,0.0
4777,75.0,0.0,960.0,12.0,0.0
4778,66.0,0.0,960.0,12.0,0.0
4779,63.0,160.0,960.0,13.0,0.0
4780,70.0,160.0,150.0,0.0,0.0
4781,44.0,80.0,15.0,4.0,0.0
4782,56.0,0.0,240.0,3.0,0.0
4783,66.0,0.0,150.0,0.0,0.0
4784,44.0,80.0,240.0,3.0,0.0
4785,75.0,80.0,150.0,0.0,0.0
4786,32.0,0.0,240.0,4.0,0.0
4787,70.0,160.0,150.0,0.0,0.0
4788,66.0,0.0,150.0,0.0,0.0
4789,56.0,0.0,240.0,2.0,0.0
4790,53.0,0.0,240.0,2.0,0.0
4791,73.0,80.0,150.0,0.0,0.0
4792,53.0,160.0,480.0,13.0,0.0
4793,61.0,0.0,480.0,13.0,0.0
4794,65.0,0.0,480.0,12.0,0.0
4795,73.0,0.0,480.0,12.0,0.0
4796,61.0,0.0,480.0,1.0,0.0
4797,44.0,0.0,240.0,4.0,0.0
4798,65.0,160.0,150.0,0.0,0.0
4799,44.0,0.0,240.0,4.0,0.0
4800,56.0,80.0,15.0,3.0,0.0
4801,65.0,0.0,240.0,2.0,0.0
4802,73.0,0.0,150.0,0.0,0.0
4803,66.0,0.0,480.0,2.0,0.0
4804,63.0,0.0,480.0,2.0,0.0
4805,32.0,0.0,480.0,4.0,0.0
4806,60.0,160.0,480.0,1.0,0.0
4807,44.0,0.0,480.0,3.0,0.0
4808,63.0,160.0,150.0,0.0,0.0
4809,63.0,0.0,480.0,12.0,0.0
4810,72.0,0.0,480.0,12.0,0.0
4811,60.0,0.0,480.0,13.0,0.0
4812,51.0,0.0,480.0,13.0,0.0
4813,66.0,160.0,150.0,0.0,0.0
4814,72.0,0.0,150.0,0.0,0.0
4815,65.0,0.0,480.0,12.0,0.0
4816,73.0,80.0,150.0,0.0,0.0
4817,56.0,80.0,240.0,3.0,0.0
4818,61.0,0.0,480.0,13.0,0.0
4819,61.0,0.0,240.0,2.0,0.0
4820,53.0,0.0,480.0,13.0,0.0
4821,73.0,0.0,480.0,12.0,0.0
4822,65.0,0.0,240.0,2.0,0.0
4823,65.0,160.0,150.0,0.0,0.0
4824,53.0,0.0,240.0,2.0,0.0
4825,44.0,0.0,15.0,4.0,0.0
4826,56.0,160.0,240.0,2.0,0.0
4827,56.0,0.0,240.0,3.0,0.0
4828,73.0,0.0,150.0,0.0,0.0
4829,61.0,0.0,15.0,1.0,0.0
4830,58.0,0.0,480.0,2.0,0.0
4831,75.0,0.0,480.0,12.0,0.0
4832,66.0,160.0,150.0,0.0,0.0
4833,54.0,160.0,480.0,2.0,0.0
4834,66.0,0.0,480.0,12.0,0.0
4835,32.0,0.0,480.0,4.0,0.0
4836,44.0,0.0,480.0,3.0,0.0
4837,63.0,0.0,480.0,13.0,0.0
4838,54.0,0.0,480.0,13.0,0.0
4839,70.0,160.0,150.0,0.0,0.0
4840,75.0,0.0,150.0,0.0,0.0
4841,59.0,0.0,480.0,1.0,0.0
4842,68.0,160.0,480.0,12.0,0.0
4843,65.0,0.0,480.0,13.0,0.0
4844,56.0,0.0,480.0,13.0,0.0
4845,77.0,80.0,150.0,0.0,0.0
4846,77.0,0.0,480.0,12.0,0.0
4847,56.0,0.0,480.0,2.0,0.0
4848,68.0,160.0,150.0,0.0,0.0
4849,44.0,0.0,15.0,4.0,0.0
4850,56.0,80.0,15.0,3.0,0.0
4851,77.0,0.0,150.0,0.0,0.0
4852,70.0,160.0,150.0,0.0,0.0
4853,58.0,160.0,480.0,2.0,0.0
4854,70.0,0.0,480.0,12.0,0.0
4855,58.0,0.0,480.0,13.0,0.0
4856,78.0,0.0,480.0,12.0,0.0
4857,61.0,0.0,480.0,1.0,0.0
4858,32.0,0.0,480.0,4.0,0.0
4859,44.0,0.0,480.0,3.0,0.0
4860,66.0,0.0,480.0,13.0,0.0
4861,73.0,160.0,150.0,0.0,0.0
4862,78.0,0.0,150.0,0.0,0.0
4863,63.0,0.0,480.0,1.0,0.0
4864,44.0,80.0,240.0,4.0,0.0
4865,60.0,0.0,480.0,2.0,0.0
4866,80.0,0.0,480.0,12.0,0.0
4867,60.0,0.0,480.0,13.0,0.0
4868,68.0,0.0,480.0,13.0,0.0
4869,80.0,80.0,150.0,0.0,0.0
4870,72.0,160.0,480.0,12.0,0.0
4871,72.0,160.0,150.0,0.0,0.0
4872,56.0,0.0,15.0,3.0,0.0
4873,44.0,0.0,240.0,4.0,0.0
4874,80.0,0.0,150.0,0.0,0.0
4875,78.0,160.0,150.0,0.0,0.0
4876,63.0,0.0,480.0,13.0,0.0
4877,78.0,0.0,480.0,12.0,0.0
4878,60.0,0.0,480.0,2.0,0.0
4879,44.0,0.0,480.0,3.0,0.0
4880,75.0,0.0,480.0,12.0,0.0
4881,66.0,0.0,480.0,13.0,0.0
4882,32.0,0.0,480.0,4.0,0.0
4883,63.0,0.0,480.0,1.0,0.0
4884,72.0,160.0,150.0,0.0,0.0
4885,75.0,160.0,150.0,0.0,0.0
4886,73.0,80.0,240.0,12.0,0.0
4887,56.0,0.0,240.0,3.0,0.0
4888,71.0,0.0,240.0,1.0,0.0
4889,61.0,0.0,240.0,13.0,0.0
4890,56.0,0.0,240.0,2.0,0.0
4891,73.0,80.0,150.0,0.0,0.0
4892,77.0,160.0,150.0,0.0,0.0
4893,59.0,0.0,15.0,1.0,0.0
4894,77.0,0.0,15.0,12.0,0.0
4895,85.0,0.0,240.0,12.0,0.0
4896,65.0,0.0,15.0,13.0,0.0
4897,56.0,0.0,240.0,2.0,0.0
4898,68.0,0.0,240.0,13.0,0.0
4899,56.0,0.0,240.0,3.0,0.0
4900,71.0,0.0,480.0,1.0,0.0
4901,44.0,0.0,15.0,4.0,0.0
4902,56.0,0.0,480.0,2.0,0.0
4903,32.0,0.0,480.0,4.0,0.0
4904,85.0,0.0,15.0,0.0,0.0
4905,44.0,0.0,480.0,3.0,0.0
4906,85.0,0.0,480.0,12.0,0.0
4907,68.0,0.0,960.0,13.0,0.0
4908,77.0,160.0,150.0,0.0,0.0
4909,59.0,80.0,15.0,1.0,0.0
4910,71.0,0.0,1920.0,1.0,0.0
4911,73.0,160.0,150.0,0.0,0.0
4912,83.0,0.0,1920.0,11.0,0.0
4913,80.0,160.0,480.0,12.0,0.0
4914,77.0,0.0,15.0,12.0,0.0
4915,80.0,0.0,1920.0,11.0,0.0
4916,92.0,0.0,1920.0,10.0,0.0
4917,53.0,160.0,1920.0,2.0,0.0
4918,95.0,0.0,1920.0,10.0,0.0
4919,80.0,80.0,150.0,0.0,0.0
4920,61.0,0.0,4320.0,6.0,0.0
4921,73.0,0.0,4320.0,6.0,0.0
4922,77.0,160.0,150.0,0.0,0.0
4923,44.0,0.0,15.0,4.0,0.0
4924,56.0,80.0,15.0,3.0,0.0
4925,71.0,0.0,150.0,0.0,0.0
4926,61.0,0.0,480.0,13.0,0.0
4927,77.0,160.0,150.0,0.0,0.0
4928,65.0,0.0,15.0,13.0,0.0
4929,77.0,0.0,15.0,12.0,0.0
4930,73.0,0.0,480.0,12.0,0.0
4931,44.0,0.0,480.0,3.0,0.0
4932,32.0,0.0,480.0,4.0,0.0
4933,71.0,160.0,150.0,0.0,0.0
4934,68.0,160.0,150.0,0.0,0.0
4935,65.0,0.0,480.0,13.0,0.0
4936,68.0,0.0,480.0,13.0,0.0
4937,77.0,0.0,15.0,12.0,0.0
4938,44.0,80.0,240.0,4.0,0.0
4939,80.0,80.0,150.0,0.0,0.0
4940,77.0,160.0,150.0,0.0,0.0
4941,56.0,0.0,15.0,3.0,0.0
4942,44.0,0.0,240.0,4.0,0.0
4943,71.0,0.0,150.0,0.0,0.0
4944,80.0,80.0,150.0,0.0,0.0
4945,32.0,0.0,480.0,4.0,0.0
4946,68.0,0.0,480.0,13.0,0.0
4947,44.0,0.0,480.0,3.0,0.0
4948,80.0,160.0,15.0,12.0,0.0
4949,65.0,0.0,480.0,13.0,0.0
4950,77.0,0.0,480.0,12.0,0.0
4951,77.0,160.0,150.0,0.0,0.0
4952,71.0,0.0,240.0,1.0,0.0
4953,71.0,0.0,150.0,0.0,0.0
4954,70.0,80.0,150.0,0.0,0.0
4955,61.0,0.0,15.0,1.0,0.0
4956,70.0,0.0,960.0,1.0,0.0
4957,44.0,0.0,240.0,4.0,0.0
4958,66.0,0.0,960.0,13.0,0.0
4959,70.0,0.0,960.0,13.0,0.0
4960,78.0,80.0,240.0,11.0,0.0
4961,82.0,0.0,240.0,11.0,0.0
4962,82.0,160.0,960.0,12.0,0.0
4963,78.0,0.0,960.0,12.0,0.0
4964,54.0,0.0,960.0,2.0,0.0
4965,90.0,0.0,960.0,10.0,0.0
4966,94.0,0.0,960.0,10.0,0.0
4967,78.0,160.0,150.0,0.0,0.0
4968,44.0,160.0,240.0,4.0,0.0
4969,56.0,0.0,15.0,3.0,0.0
4970,80.0,0.0,150.0,0.0,0.0
4971,32.0,0.0,480.0,4.0,0.0
4972,44.0,0.0,480.0,3.0,0.0
4973,82.0,160.0,150.0,0.0,0.0
4974,78.0,160.0,150.0,0.0,0.0
4975,70.0,0.0,150.0,0.0,0.0
4976,56.0,0.0,480.0,2.0,0.0
4977,68.0,80.0,150.0,0.0,0.0
4978,44.0,0.0,240.0,4.0,0.0
4979,89.0,0.0,480.0,10.0,0.0
4980,92.0,0.0,480.0,10.0,0.0
4981,61.0,0.0,15.0,1.0,0.0
4982,80.0,0.0,480.0,12.0,0.0
4983,65.0,160.0,480.0,13.0,0.0
4984,68.0,0.0,480.0,13.0,0.0
4985,77.0,0.0,480.0,12.0,0.0
4986,77.0,160.0,150.0,0.0,0.0
4987,44.0,0.0,240.0,4.0,0.0
4988,56.0,80.0,15.0,3.0,0.0
4989,80.0,0.0,150.0,0.0,0.0
4990,78.0,160.0,150.0,0.0,0.0
4991,78.0,0.0,480.0,12.0,0.0
4992,61.0,0.0,15.0,1.0,0.0
4993,70.0,0.0,480.0,12.0,0.0
4994,44.0,0.0,480.0,3.0,0.0
4995,66.0,0.0,480.0,13.0,0.0
4996,58.0,0.0,480.0,13.0,0.0
4997,32.0,0.0,480.0,4.0,0.0
4998,58.0,0.0,480.0,2.0,0.0
4999,90.0,0.0,480.0,10.0,0.0
5000,87.0,160.0,480.0,10.0,0.0
5001,73.0,160.0,150.0,0.0,0.0
5002,70.0,0.0,150.0,0.0,0.0
5003,68.0,80.0,150.0,0.0,0.0
5004,65.0,160.0,480.0,13.0,0.0
5005,44.0,0.0,240.0,4.0,0.0
5006,59.0,0.0,480.0,1.0,0.0
5007,56.0,0.0,480.0,13.0,0.0
5008,68.0,0.0,480.0,12.0,0.0
5009,77.0,0.0,480.0,12.0,0.0
5010,89.0,0.0,480.0,10.0,0.0
5011,56.0,0.0,480.0,2.0,0.0
5012,85.0,0.0,480.0,10.0,0.0
5013,71.0,160.0,150.0,0.0,0.0
5014,56.0,80.0,15.0,3.0,0.0
5015,44.0,0.0,240.0,4.0,0.0
5016,77.0,0.0,150.0,0.0,0.0
5017,37.0,0.0,480.0,4.0,0.0
5018,61.0,0.0,480.0,1.0,0.0
5019,78.0,160.0,150.0,0.0,0.0
5020,90.0,10.0,480.0,10.0,0.0
5021,82.0,0.0,480.0,10.0,0.0
5022,49.0,0.0,480.0,3.0,0.0
5023,70.0,160.0,480.0,12.0,0.0
5024,58.0,0.0,480.0,2.0,0.0
5025,66.0,0.0,480.0,13.0,0.0
5026,58.0,0.0,480.0,13.0,0.0
5027,78.0,0.0,480.0,12.0,0.0
5028,73.0,150.0,150.0,0.0,0.0
5029,70.0,0.0,150.0,0.0,0.0
5030,68.0,80.0,150.0,0.0,0.0
5031,68.0,0.0,480.0,13.0,0.0
5032,84.0,10.0,480.0,10.0,0.0
5033,60.0,0.0,480.0,2.0,0.0
5034,60.0,0.0,480.0,13.0,0.0
5035,49.0,0.0,240.0,4.0,0.0
5036,92.0,0.0,480.0,10.0,0.0
5037,63.0,160.0,480.0,1.0,0.0
5038,61.0,80.0,240.0,3.0,0.0
5039,72.0,0.0,480.0,12.0,0.0
5040,80.0,0.0,480.0,12.0,0.0
5041,75.0,150.0,150.0,0.0,0.0
5042,49.0,0.0,240.0,4.0,0.0
5043,61.0,0.0,240.0,3.0,0.0
5044,80.0,0.0,150.0,0.0,0.0
5045,37.0,0.0,480.0,4.0,0.0
5046,56.0,0.0,960.0,2.0,0.0
5047,49.0,0.0,480.0,3.0,0.0
5048,77.0,160.0,150.0,0.0,0.0
5049,61.0,0.0,720.0,1.0,0.0
5050,77.0,0.0,960.0,12.0,0.0
5051,85.0,10.0,960.0,10.0,0.0
5052,89.0,0.0,480.0,10.0,0.0
5053,61.0,0.0,960.0,13.0,0.0
5054,65.0,0.0,960.0,13.0,0.0
5055,73.0,0.0,960.0,12.0,0.0
5056,73.0,160.0,150.0,0.0,0.0
5057,68.0,160.0,150.0,0.0,0.0
5058,77.0,80.0,150.0,0.0,0.0
5059,73.0,150.0,150.0,0.0,0.0
5060,49.0,80.0,15.0,4.0,0.0
5061,61.0,0.0,15.0,3.0,0.0
5062,59.0,0.0,240.0,1.0,0.0
5063,68.0,0.0,150.0,0.0,0.0
5064,78.0,160.0,150.0,0.0,0.0
5065,49.0,0.0,480.0,3.0,0.0
5066,78.0,0.0,480.0,12.0,0.0
5067,70.0,0.0,480.0,12.0,0.0
5068,66.0,0.0,480.0,13.0,0.0
5069,58.0,0.0,480.0,13.0,0.0
5070,61.0,0.0,480.0,1.0,0.0
5071,58.0,0.0,480.0,2.0,0.0
5072,37.0,160.0,480.0,4.0,0.0
5073,94.0,0.0,480.0,10.0,0.0
5074,82.0,10.0,480.0,10.0,0.0
5075,73.0,150.0,150.0,0.0,0.0
5076,70.0,0.0,150.0,0.0,0.0
5077,68.0,0.0,480.0,13.0,0.0
5078,84.0,10.0,480.0,10.0,0.0
5079,80.0,0.0,480.0,12.0,0.0
5080,72.0,160.0,480.0,12.0,0.0
5081,63.0,0.0,480.0,1.0,0.0
5082,96.0,0.0,480.0,10.0,0.0
5083,60.0,0.0,480.0,13.0,0.0
5084,80.0,80.0,150.0,0.0,0.0
5085,49.0,0.0,240.0,4.0,0.0
5086,60.0,0.0,480.0,2.0,0.0
5087,75.0,150.0,150.0,0.0,0.0
5088,49.0,0.0,240.0,4.0,0.0
5089,61.0,80.0,15.0,3.0,0.0
5090,68.0,0.0,150.0,0.0,0.0
5091,61.0,0.0,480.0,1.0,0.0
5092,65.0,0.0,960.0,13.0,0.0
5093,85.0,10.0,960.0,10.0,0.0
5094,89.0,0.0,960.0,10.0,0.0
5095,49.0,0.0,480.0,3.0,0.0
5096,56.0,0.0,960.0,2.0,0.0
5097,37.0,0.0,480.0,4.0,0.0
5098,77.0,160.0,150.0,0.0,0.0
5099,77.0,0.0,960.0,12.0,0.0
5100,73.0,0.0,960.0,12.0,0.0
5101,61.0,0.0,960.0,13.0,0.0
5102,73.0,160.0,150.0,0.0,0.0
5103,68.0,160.0,150.0,0.0,0.0
5104,61.0,0.0,240.0,3.0,0.0
5105,77.0,80.0,150.0,0.0,0.0
5106,73.0,150.0,150.0,0.0,0.0
5107,49.0,80.0,15.0,4.0,0.0
5108,61.0,0.0,240.0,3.0,0.0
5109,59.0,160.0,240.0,1.0,0.0
5110,68.0,0.0,150.0,0.0,0.0
5111,78.0,0.0,480.0,12.0,0.0
5112,58.0,0.0,480.0,13.0,0.0
5113,66.0,0.0,480.0,13.0,0.0
5114,58.0,0.0,480.0,2.0,0.0
5115,78.0,160.0,150.0,0.0,0.0
5116,70.0,0.0,480.0,12.0,0.0
5117,49.0,160.0,480.0,3.0,0.0
5118,37.0,0.0,480.0,4.0,0.0
5119,82.0,10.0,480.0,10.0,0.0
5120,90.0,0.0,480.0,10.0,0.0
5121,61.0,0.0,480.0,1.0,0.0
5122,73.0,150.0,150.0,0.0,0.0
5123,70.0,0.0,150.0,0.0,0.0
5124,80.0,80.0,150.0,0.0,0.0
5125,60.0,0.0,480.0,2.0,0.0
5126,84.0,70.0,420.0,10.0,0.0
5127,92.0,0.0,480.0,10.0,0.0
5128,63.0,0.0,480.0,1.0,0.0
5129,80.0,240.0,480.0,12.0,0.0
5130,68.0,0.0,480.0,13.0,0.0
5131,60.0,0.0,480.0,13.0,0.0
5132,61.0,0.0,240.0,3.0,0.0
5133,49.0,80.0,240.0,4.0,0.0
5134,72.0,0.0,480.0,12.0,0.0
5135,75.0,90.0,150.0,0.0,0.0
5136,61.0,0.0,240.0,3.0,0.0
5137,80.0,0.0,150.0,0.0,0.0
5138,73.0,20.0,3840.0,0.0,0.0
5139,56.0,480.0,960.0,2.0,0.0
5140,49.0,0.0,480.0,13.0,0.0
5141,61.0,180.0,480.0,13.0,0.0
5142,64.0,0.0,960.0,1.0,0.0
5143,49.0,0.0,15.0,4.0,0.0
5144,61.0,0.0,240.0,3.0,0.0
5145,73.0,0.0,480.0,12.0,0.0
5146,85.0,0.0,15.0,10.0,0.0
5147,73.0,60.0,180.0,12.0,0.0
5148,49.0,180.0,240.0,13.0,0.0
5149,61.0,0.0,180.0,13.0,0.0
5150,49.0,0.0,240.0,13.0,0.0
5151,61.0,0.0,180.0,13.0,0.0
5152,85.0,60.0,180.0,10.0,0.0
5153,73.0,0.0,180.0,12.0,0.0
5154,49.0,0.0,480.0,7.0,0.0
5155,61.0,0.0,480.0,13.0,0.0
5156,57.0,0.0,960.0,3.0,0.0
5157,61.0,0.0,960.0,2.0,0.0
5158,73.0,0.0,480.0,6.0,0.0
5159,66.0,0.0,960.0,1.0,0.0
5160,45.0,0.0,960.0,4.0,0.0
5161,49.0,0.0,15.0,13.0,0.0
5162,61.0,0.0,480.0,13.0,0.0
5163,85.0,0.0,15.0,10.0,0.0
5164,73.0,0.0,15.0,12.0,0.0
5165,61.0,240.0,15.0,6.0,0.0
5166,49.0,0.0,240.0,7.0,0.0
5167,73.0,0.0,240.0,6.0,0.0
5168,49.0,0.0,240.0,7.0,0.0
5169,73.0,0.0,240.0,6.0,0.0
5170,61.0,240.0,15.0,6.0,0.0
5171,85.0,0.0,15.0,10.0,0.0
5172,56.0,0.0,960.0,3.0,0.0
5173,64.0,0.0,960.0,1.0,0.0
5174,49.0,0.0,480.0,7.0,0.0
5175,49.0,480.0,15.0,13.0,0.0
5176,59.0,0.0,960.0,2.0,0.0
5177,73.0,0.0,480.0,12.0,0.0
5178,61.0,0.0,480.0,6.0,0.0
5179,44.0,480.0,960.0,4.0,0.0
5180,61.0,0.0,480.0,13.0,0.0
5181,73.0,0.0,480.0,6.0,0.0
5182,85.0,0.0,180.0,10.0,0.0
5183,73.0,60.0,180.0,12.0,0.0
5184,49.0,180.0,15.0,13.0,0.0
5185,61.0,0.0,180.0,13.0,0.0
5186,61.0,60.0,180.0,13.0,0.0
5187,85.0,0.0,180.0,10.0,0.0
5188,49.0,180.0,15.0,13.0,0.0
5189,73.0,0.0,180.0,12.0,0.0
5190,85.0,0.0,480.0,10.0,0.0
5191,57.0,0.0,960.0,2.0,0.0
5192,66.0,0.0,960.0,1.0,0.0
5193,49.0,0.0,15.0,13.0,0.0
5194,42.0,0.0,960.0,4.0,0.0
5195,54.0,0.0,960.0,3.0,0.0
5196,73.0,0.0,15.0,12.0,0.0
5197,85.0,0.0,480.0,10.0,0.0
5198,61.0,20.0,15.0,13.0,0.0
5199,49.0,0.0,480.0,13.0,0.0
5200,49.0,240.0,15.0,7.0,0.0
5201,49.0,220.0,240.0,7.0,0.0
5202,47.0,240.0,240.0,3.0,0.0
5203,66.0,0.0,240.0,1.0,0.0
5204,87.0,180.0,480.0,10.0,0.0
5205,75.0,0.0,240.0,0.0,0.0
5206,78.0,0.0,480.0,10.0,0.0
5207,35.0,0.0,240.0,4.0,0.0
5208,59.0,0.0,240.0,2.0,0.0
5209,66.0,0.0,240.0,0.0,0.0
5210,78.0,0.0,480.0,12.0,0.0
5211,63.0,0.0,480.0,13.0,0.0
5212,66.0,0.0,480.0,13.0,0.0
5213,75.0,0.0,480.0,12.0,0.0
5214,87.0,0.0,480.0,11.0,0.0
5215,76.0,0.0,180.0,12.0,0.0
5216,78.0,0.0,240.0,0.0,0.0
5217,61.0,0.0,15.0,6.0,0.0
5218,73.0,0.0,15.0,6.0,0.0
5219,73.0,0.0,180.0,12.0,0.0
5220,87.0,180.0,240.0,0.0,0.0
5221,47.0,0.0,240.0,4.0,0.0
5222,76.0,0.0,240.0,10.0,0.0
5223,64.0,0.0,180.0,13.0,0.0
5224,85.0,0.0,180.0,11.0,0.0
5225,61.0,0.0,180.0,13.0,0.0
5226,66.0,0.0,240.0,1.0,0.0
5227,75.0,0.0,240.0,1.0,0.0
5228,85.0,60.0,180.0,10.0,0.0
5229,83.0,0.0,240.0,1.0,0.0
5230,59.0,0.0,240.0,2.0,0.0
5231,71.0,0.0,15.0,5.0,0.0
5232,59.0,0.0,240.0,3.0,0.0
5233,71.0,0.0,240.0,2.0,0.0
5234,66.0,0.0,180.0,13.0,0.0
5235,63.0,60.0,180.0,13.0,0.0
5236,87.0,0.0,180.0,11.0,0.0
5237,71.0,0.0,180.0,5.0,0.0
5238,78.0,180.0,240.0,10.0,0.0
5239,61.0,0.0,240.0,6.0,0.0
5240,73.0,0.0,240.0,6.0,0.0
5241,75.0,0.0,180.0,12.0,0.0
5242,78.0,0.0,180.0,12.0,0.0
5243,87.0,0.0,180.0,10.0,0.0
5244,64.0,960.0,480.0,2.0,0.0
5245,64.0,0.0,180.0,13.0,0.0
5246,68.0,0.0,180.0,13.0,0.0
5247,40.0,0.0,480.0,4.0,0.0
5248,52.0,0.0,480.0,3.0,0.0
5249,76.0,60.0,180.0,12.0,0.0
5250,80.0,0.0,240.0,12.0,0.0
5251,88.0,0.0,180.0,11.0,0.0
5252,80.0,0.0,240.0,10.0,0.0
5253,88.0,0.0,180.0,10.0,0.0
5254,52.0,0.0,480.0,2.0,0.0
5255,80.0,0.0,480.0,1.0,0.0
5256,88.0,0.0,240.0,0.0,0.0
5257,80.0,0.0,240.0,6.0,0.0
5258,56.0,240.0,240.0,7.0,0.0
5259,76.0,0.0,480.0,1.0,0.0
5260,68.0,0.0,480.0,1.0,0.0
5261,80.0,0.0,240.0,0.0,0.0
5262,71.0,0.0,180.0,5.0,0.0
5263,72.0,0.0,480.0,0.0,0.0
5264,44.0,0.0,480.0,4.0,0.0
5265,66.0,0.0,480.0,1.0,0.0
5266,56.0,180.0,480.0,3.0,0.0
5267,70.0,60.0,180.0,0.0,0.0
5268,63.0,0.0,15.0,2.0,0.0
5269,44.0,0.0,180.0,4.0,0.0
5270,66.0,0.0,180.0,1.0,0.0
5271,56.0,0.0,180.0,3.0,0.0
5272,66.0,60.0,180.0,1.0,0.0
5273,56.0,0.0,180.0,3.0,0.0
5274,44.0,0.0,180.0,4.0,0.0
5275,72.0,0.0,180.0,0.0,0.0
5276,63.0,180.0,15.0,2.0,0.0
5277,73.0,60.0,180.0,0.0,0.0
5278,37.0,960.0,240.0,4.0,0.0
5279,61.0,0.0,240.0,2.0,0.0
5280,64.0,0.0,180.0,1.0,0.0
5281,49.0,0.0,240.0,3.0,0.0
5282,87.0,0.0,480.0,10.0,0.0
5283,35.0,0.0,240.0,4.0,0.0
5284,78.0,0.0,480.0,10.0,0.0
5285,78.0,0.0,480.0,12.0,0.0
5286,75.0,0.0,240.0,0.0,0.0
5287,66.0,0.0,240.0,0.0,0.0
5288,47.0,180.0,240.0,3.0,0.0
5289,71.0,60.0,420.0,5.0,0.0
5290,87.0,0.0,480.0,11.0,0.0
5291,78.0,0.0,480.0,11.0,0.0
5292,75.0,0.0,480.0,12.0,0.0
5293,63.0,180.0,480.0,13.0,0.0
5294,66.0,0.0,480.0,13.0,0.0
5295,59.0,0.0,240.0,2.0,0.0
5296,66.0,0.0,240.0,1.0,0.0
5297,75.0,0.0,240.0,1.0,0.0
5298,73.0,0.0,180.0,12.0,0.0
5299,76.0,0.0,180.0,10.0,0.0
5300,76.0,0.0,180.0,12.0,0.0
5301,78.0,0.0,240.0,0.0,0.0
5302,71.0,60.0,180.0,5.0,0.0
5303,85.0,0.0,180.0,11.0,0.0
5304,76.0,0.0,180.0,11.0,0.0
5305,47.0,0.0,240.0,4.0,0.0
5306,83.0,0.0,240.0,1.0,0.0
5307,87.0,10.0,240.0,0.0,0.0
5308,66.0,0.0,240.0,1.0,0.0
5309,59.0,0.0,240.0,3.0,0.0
5310,85.0,0.0,180.0,10.0,0.0
5311,71.0,0.0,240.0,2.0,0.0
5312,59.0,0.0,240.0,2.0,0.0
5313,64.0,0.0,240.0,13.0,0.0
5314,61.0,0.0,240.0,13.0,0.0
5315,75.0,0.0,240.0,1.0,0.0
5316,71.0,0.0,180.0,5.0,0.0
5317,87.0,170.0,15.0,11.0,0.0
5318,78.0,0.0,180.0,11.0,0.0
5319,78.0,60.0,180.0,12.0,0.0
5320,75.0,0.0,180.0,12.0,0.0
5321,63.0,180.0,240.0,13.0,0.0
5322,66.0,0.0,240.0,13.0,0.0
5323,78.0,0.0,180.0,10.0,0.0
5324,87.0,0.0,180.0,10.0,0.0
5325,80.0,0.0,480.0,0.0,0.0
5326,88.0,0.0,480.0,0.0,0.0
5327,52.0,0.0,480.0,2.0,0.0
5328,56.0,240.0,240.0,7.0,0.0
5329,64.0,0.0,480.0,2.0,0.0
5330,80.0,0.0,480.0,12.0,0.0
5331,88.0,60.0,180.0,11.0,0.0
5332,76.0,0.0,480.0,12.0,0.0
5333,80.0,0.0,480.0,1.0,0.0
5334,76.0,0.0,480.0,1.0,0.0
5335,68.0,960.0,480.0,1.0,0.0
5336,88.0,0.0,180.0,10.0,0.0
5337,80.0,0.0,180.0,10.0,0.0
5338,80.0,0.0,240.0,6.0,0.0
5339,40.0,0.0,480.0,4.0,0.0
5340,71.0,0.0,180.0,5.0,0.0
5341,52.0,0.0,480.0,3.0,0.0
5342,80.0,0.0,180.0,11.0,0.0
5343,64.0,0.0,240.0,13.0,0.0
5344,68.0,0.0,240.0,13.0,0.0
5345,66.0,0.0,480.0,1.0,0.0
5346,72.0,0.0,480.0,0.0,0.0
5347,63.0,0.0,480.0,2.0,0.0
5348,44.0,180.0,15.0,4.0,0.0
5349,66.0,0.0,180.0,1.0,0.0
5350,70.0,60.0,180.0,0.0,0.0
5351,56.0,0.0,15.0,3.0,0.0
5352,63.0,180.0,240.0,2.0,0.0
5353,66.0,0.0,180.0,1.0,0.0
5354,44.0,0.0,180.0,4.0,0.0
5355,72.0,0.0,180.0,0.0,0.0
5356,63.0,480.0,240.0,2.0,0.0
5357,56.0,60.0,180.0,3.0,0.0
5358,84.0,160.0,480.0,11.0,0.0
5359,87.0,0.0,480.0,10.0,0.0
5360,85.0,20.0,150.0,10.0,0.0
5361,82.0,220.0,180.0,11.0,0.0
5362,87.0,540.0,180.0,10.0,0.0
5363,83.0,0.0,180.0,11.0,0.0
5364,92.0,20.0,150.0,10.0,0.0
5365,85.0,180.0,480.0,11.0,0.0
5366,88.0,0.0,480.0,10.0,0.0
5367,49.0,0.0,480.0,3.0,0.0
5368,92.0,0.0,15.0,10.0,0.0
5369,61.0,0.0,480.0,2.0,0.0
5370,61.0,0.0,480.0,1.0,0.0
5371,88.0,220.0,210.0,10.0,0.0
5372,37.0,180.0,480.0,4.0,0.0
5373,85.0,0.0,180.0,11.0,0.0
5374,73.0,0.0,480.0,0.0,0.0
5375,88.0,40.0,210.0,10.0,0.0
5376,92.0,0.0,180.0,10.0,0.0
5377,85.0,20.0,180.0,11.0,0.0
5378,84.0,240.0,180.0,11.0,0.0
5379,92.0,480.0,420.0,10.0,0.0
5380,87.0,0.0,420.0,10.0,0.0
5381,84.0,0.0,720.0,11.0,0.0
5382,68.0,0.0,480.0,0.0,0.0
5383,56.0,0.0,480.0,3.0,0.0
5384,92.0,60.0,420.0,10.0,0.0
5385,87.0,0.0,420.0,10.0,0.0
5386,68.0,0.0,480.0,1.0,0.0
5387,56.0,480.0,480.0,2.0,0.0
5388,44.0,0.0,480.0,4.0,0.0
5389,72.0,0.0,480.0,12.0,0.0
5390,75.0,0.0,480.0,11.0,0.0
5391,68.0,420.0,480.0,0.0,0.0
5392,80.0,180.0,15.0,12.0,0.0
5393,72.0,0.0,180.0,12.0,0.0
5394,68.0,0.0,480.0,1.0,0.0
5395,56.0,0.0,480.0,2.0,0.0
5396,56.0,0.0,480.0,3.0,0.0
5397,75.0,240.0,180.0,11.0,0.0
5398,44.0,0.0,480.0,4.0,0.0
5399,72.0,0.0,180.0,12.0,0.0
5400,75.0,0.0,180.0,11.0,0.0
5401,80.0,60.0,180.0,12.0,0.0
5402,76.0,20.0,420.0,11.0,0.0
5403,73.0,460.0,450.0,12.0,0.0
5404,80.0,0.0,450.0,12.0,0.0
5405,49.0,0.0,480.0,4.0,0.0
5406,80.0,0.0,450.0,12.0,0.0
5407,73.0,40.0,450.0,12.0,0.0
5408,76.0,20.0,420.0,11.0,0.0
5409,61.0,0.0,480.0,3.0,0.0
5410,61.0,0.0,480.0,1.0,0.0
5411,73.0,0.0,480.0,0.0,0.0
5412,61.0,480.0,480.0,2.0,0.0
5413,68.0,140.0,480.0,5.0,0.0
5414,64.0,0.0,480.0,13.0,0.0
5415,61.0,0.0,480.0,13.0,0.0
5416,61.0,0.0,720.0,2.0,0.0
5417,64.0,420.0,720.0,1.0,0.0
5418,68.0,0.0,480.0,0.0,0.0
5419,64.0,0.0,180.0,13.0,0.0
5420,61.0,0.0,480.0,3.0,0.0
5421,61.0,200.0,180.0,13.0,0.0
5422,68.0,40.0,150.0,5.0,0.0
5423,49.0,0.0,480.0,4.0,0.0
5424,70.0,40.0,150.0,5.0,0.0
5425,61.0,0.0,180.0,13.0,0.0
5426,64.0,60.0,180.0,13.0,0.0
5427,68.0,0.0,420.0,5.0,0.0
5428,64.0,460.0,450.0,13.0,0.0
5429,71.0,20.0,420.0,5.0,0.0
5430,59.0,0.0,450.0,13.0,0.0
5431,64.0,0.0,480.0,1.0,0.0
5432,68.0,0.0,480.0,0.0,0.0
5433,71.0,0.0,420.0,5.0,0.0
5434,47.0,0.0,480.0,4.0,0.0
5435,64.0,40.0,450.0,13.0,0.0
5436,59.0,0.0,450.0,13.0,0.0
5437,59.0,0.0,480.0,3.0,0.0
5438,68.0,20.0,420.0,5.0,0.0
5439,66.0,0.0,480.0,0.0,0.0
5440,59.0,480.0,15.0,2.0,0.0
5441,63.0,0.0,480.0,1.0,0.0
5442,47.0,0.0,15.0,3.0,0.0
5443,59.0,0.0,15.0,2.0,0.0
5444,35.0,240.0,15.0,4.0,0.0
5445,61.0,0.0,240.0,1.0,0.0
5446,64.0,0.0,240.0,0.0,0.0
5447,63.0,0.0,240.0,1.0,0.0
5448,59.0,0.0,15.0,2.0,0.0
5449,35.0,0.0,15.0,4.0,0.0
5450,66.0,480.0,240.0,0.0,0.0
5451,47.0,0.0,240.0,3.0,0.0
5452,64.0,0.0,480.0,1.0,0.0
5453,59.0,0.0,480.0,2.0,0.0
5454,47.0,0.0,480.0,3.0,0.0
5455,68.0,0.0,480.0,0.0,0.0
5456,35.0,960.0,480.0,4.0,0.0
5457,92.0,0.0,480.0,10.0,0.0
5458,83.0,180.0,480.0,11.0,0.0
5459,64.0,420.0,480.0,4.0,0.0
5460,64.0,0.0,480.0,0.0,0.0
5461,64.0,0.0,480.0,3.0,0.0
5462,64.0,0.0,480.0,1.0,0.0
5463,92.0,220.0,210.0,10.0,0.0
5464,64.0,0.0,480.0,2.0,0.0
5465,83.0,20.0,180.0,11.0,0.0
5466,92.0,40.0,210.0,10.0,0.0
5467,85.0,20.0,180.0,11.0,0.0
5468,91.0,460.0,450.0,10.0,0.0
5469,87.0,20.0,420.0,11.0,0.0
5470,75.0,0.0,480.0,0.0,0.0
5471,63.0,0.0,480.0,1.0,0.0
5472,63.0,0.0,480.0,2.0,0.0
5473,63.0,460.0,480.0,4.0,0.0
5474,87.0,20.0,420.0,11.0,0.0
5475,90.0,40.0,450.0,10.0,0.0
5476,63.0,0.0,480.0,3.0,0.0
5477,78.0,20.0,450.0,11.0,0.0
5478,75.0,0.0,480.0,12.0,0.0
5479,82.0,180.0,480.0,12.0,0.0
5480,68.0,0.0,480.0,4.0,0.0
5481,68.0,0.0,480.0,3.0,0.0
5482,68.0,420.0,480.0,1.0,0.0
5483,68.0,0.0,480.0,0.0,0.0
5484,78.0,0.0,180.0,11.0,0.0
5485,75.0,240.0,180.0,12.0,0.0
5486,82.0,0.0,180.0,12.0,0.0
5487,68.0,0.0,480.0,2.0,0.0
5488,78.0,60.0,180.0,11.0,0.0
5489,75.0,0.0,180.0,12.0,0.0
5490,84.0,0.0,180.0,12.0,0.0
5491,85.0,460.0,450.0,12.0,0.0
5492,73.0,0.0,450.0,12.0,0.0
5493,77.0,20.0,420.0,11.0,0.0
5494,76.0,20.0,420.0,11.0,0.0
5495,61.0,0.0,480.0,1.0,0.0
5496,61.0,0.0,480.0,2.0,0.0
5497,61.0,0.0,480.0,3.0,0.0
5498,73.0,0.0,450.0,12.0,0.0
5499,85.0,40.0,450.0,12.0,0.0
5500,73.0,0.0,480.0,0.0,0.0
5501,49.0,480.0,480.0,4.0,0.0
5502,68.0,0.0,480.0,5.0,0.0
5503,64.0,0.0,480.0,0.0,0.0
5504,64.0,0.0,15.0,13.0,0.0
5505,61.0,180.0,15.0,13.0,0.0
5506,61.0,0.0,480.0,1.0,0.0
5507,49.0,0.0,480.0,4.0,0.0
5508,61.0,0.0,480.0,3.0,0.0
5509,68.0,0.0,180.0,5.0,0.0
5510,64.0,0.0,180.0,13.0,0.0
5511,68.0,60.0,180.0,5.0,0.0
5512,61.0,0.0,180.0,13.0,0.0
5513,68.0,0.0,450.0,5.0,0.0
5514,60.0,0.0,450.0,13.0,0.0
5515,63.0,0.0,450.0,5.0,0.0
5516,60.0,240.0,480.0,3.0,0.0
5517,48.0,0.0,480.0,4.0,0.0
5518,66.0,40.0,450.0,13.0,0.0
5519,56.0,240.0,15.0,2.0,0.0
5520,63.0,200.0,240.0,1.0,0.0
5521,66.0,0.0,480.0,0.0,0.0
5522,61.0,0.0,450.0,13.0,0.0
5523,64.0,0.0,450.0,13.0,0.0
5524,64.0,200.0,240.0,0.0,0.0
5525,49.0,0.0,480.0,4.0,0.0
5526,56.0,0.0,15.0,2.0,0.0
5527,61.0,240.0,480.0,1.0,0.0
5528,68.0,40.0,450.0,5.0,0.0
5529,61.0,0.0,480.0,3.0,0.0
5530,66.0,0.0,240.0,0.0,0.0
5531,44.0,0.0,480.0,3.0,0.0
5532,32.0,240.0,480.0,4.0,0.0
5533,63.0,240.0,15.0,1.0,0.0
5534,56.0,0.0,15.0,2.0,0.0
5535,46.0,0.0,240.0,3.0,0.0
5536,34.0,240.0,240.0,4.0,0.0
5537,66.0,0.0,15.0,0.0,0.0
5538,63.0,0.0,240.0,1.0,0.0
5539,48.0,480.0,240.0,3.0,0.0
5540,56.0,0.0,15.0,2.0,0.0
5541,36.0,0.0,240.0,4.0,0.0
5542,64.0,0.0,480.0,0.0,0.0
5543,61.0,960.0,480.0,1.0,0.0
5544,56.0,0.0,15.0,2.0,0.0
5545,49.0,0.0,480.0,3.0,0.0
5546,37.0,0.0,480.0,4.0,0.0
5547,78.0,0.0,480.0,12.0,0.0
5548,63.0,0.0,480.0,13.0,0.0
5549,66.0,0.0,480.0,13.0,0.0
5550,75.0,0.0,480.0,12.0,0.0
5551,68.0,160.0,15.0,5.0,0.0
5552,56.0,0.0,15.0,5.0,0.0
5553,63.0,0.0,150.0,13.0,0.0
5554,66.0,20.0,150.0,13.0,0.0
5555,82.0,0.0,180.0,11.0,0.0
5556,75.0,0.0,180.0,12.0,0.0
5557,80.0,0.0,15.0,11.0,0.0
5558,78.0,0.0,180.0,12.0,0.0
5559,75.0,0.0,180.0,12.0,0.0
5560,78.0,540.0,180.0,12.0,0.0
5561,56.0,0.0,180.0,5.0,0.0
5562,80.0,0.0,180.0,11.0,0.0
5563,68.0,0.0,180.0,5.0,0.0
5564,66.0,20.0,150.0,13.0,0.0
5565,84.0,0.0,180.0,11.0,0.0
5566,63.0,0.0,150.0,13.0,0.0
5567,61.0,0.0,480.0,13.0,0.0
5568,64.0,0.0,480.0,13.0,0.0
5569,76.0,960.0,480.0,12.0,0.0
5570,68.0,0.0,480.0,5.0,0.0
5571,80.0,0.0,480.0,11.0,0.0
5572,85.0,0.0,480.0,11.0,0.0
5573,73.0,0.0,480.0,12.0,0.0
5574,32.0,0.0,480.0,4.0,0.0
5575,63.0,240.0,480.0,1.0,0.0
5576,44.0,0.0,480.0,3.0,0.0
5577,66.0,0.0,15.0,0.0,0.0
5578,46.0,0.0,240.0,3.0,0.0
5579,56.0,0.0,15.0,2.0,0.0
5580,34.0,0.0,240.0,4.0,0.0
5581,63.0,0.0,15.0,1.0,0.0
5582,66.0,0.0,240.0,0.0,0.0
5583,48.0,0.0,240.0,3.0,0.0
5584,56.0,0.0,240.0,2.0,0.0
5585,36.0,0.0,240.0,4.0,0.0
5586,37.0,0.0,480.0,4.0,0.0
5587,56.0,240.0,240.0,2.0,0.0
5588,64.0,0.0,480.0,0.0,0.0
5589,61.0,240.0,480.0,1.0,0.0
5590,49.0,0.0,480.0,3.0,0.0
5591,58.0,240.0,240.0,2.0,0.0
5592,60.0,480.0,240.0,2.0,0.0
5593,61.0,0.0,480.0,2.0,0.0
5594,49.0,0.0,480.0,3.0,0.0
5595,37.0,240.0,480.0,4.0,0.0
5596,64.0,0.0,480.0,0.0,0.0
5597,68.0,0.0,480.0,1.0,0.0
5598,70.0,240.0,240.0,1.0,0.0
5599,80.0,160.0,480.0,0.0,0.0
5600,72.0,0.0,240.0,1.0,0.0
5601,73.0,0.0,480.0,1.0,0.0
5602,68.0,0.0,2160.0,5.0,0.0
5603,49.0,480.0,480.0,3.0,0.0
5604,82.0,240.0,150.0,0.0,0.0
5605,64.0,720.0,2160.0,13.0,0.0
5606,56.0,0.0,2160.0,5.0,0.0
5607,80.0,0.0,2160.0,10.0,0.0
5608,61.0,0.0,480.0,2.0,0.0
5609,37.0,0.0,480.0,4.0,0.0
5610,61.0,0.0,480.0,1.0,0.0
5611,73.0,0.0,2160.0,12.0,0.0
5612,61.0,0.0,2160.0,13.0,0.0
5613,80.0,0.0,2160.0,11.0,0.0
5614,76.0,0.0,2160.0,11.0,0.0
5615,68.0,0.0,2160.0,12.0,0.0
5616,84.0,80.0,150.0,0.0,0.0
5617,85.0,1200.0,480.0,0.0,0.0
