,note,step,duration,channel,velocity
0,46.0,0.0,960.0,2.0,0.0
1,62.0,0.0,480.0,1.0,0.0
2,65.0,360.0,480.0,0.0,0.0
3,65.0,0.0,360.0,1.0,0.0
4,70.0,0.0,360.0,0.0,0.0
5,62.0,120.0,15.0,1.0,0.0
6,34.0,480.0,15.0,3.0,0.0
7,69.0,0.0,15.0,1.0,0.0
8,63.0,0.0,480.0,1.0,0.0
9,72.0,0.0,15.0,0.0,0.0
10,65.0,264.0,210.0,1.0,0.0
11,74.0,0.0,210.0,0.0,0.0
12,70.0,0.0,210.0,1.0,0.0
13,68.0,0.0,240.0,1.0,0.0
14,65.0,0.0,240.0,1.0,0.0
15,74.0,0.0,240.0,0.0,0.0
16,70.0,324.0,480.0,1.0,0.0
17,46.0,0.0,15.0,2.0,0.0
18,67.0,0.0,480.0,1.0,0.0
19,75.0,40.0,120.0,0.0,0.0
20,34.0,0.0,960.0,3.0,0.0
21,77.0,40.0,40.0,0.0,0.0
22,75.0,40.0,40.0,0.0,0.0
23,74.0,120.0,40.0,0.0,0.0
24,75.0,120.0,120.0,0.0,0.0
25,77.0,0.0,120.0,0.0,0.0
26,72.0,54.0,480.0,1.0,0.0
27,79.0,144.0,330.0,0.0,0.0
28,69.0,0.0,480.0,1.0,0.0
29,77.0,12.0,120.0,0.0,0.0
30,46.0,0.0,15.0,2.0,0.0
31,70.0,5.0,3240.0,1.0,0.0
32,34.0,475.0,3240.0,3.0,0.0
33,75.0,60.0,60.0,0.0,0.0
34,74.0,60.0,60.0,0.0,0.0
35,79.0,60.0,60.0,0.0,0.0
36,77.0,3001.0,60.0,0.0,0.0
37,77.0,0.0,3000.0,0.0,0.0
38,74.0,120.0,360.0,0.0,0.0
39,75.0,480.0,120.0,0.0,0.0
40,77.0,224.0,480.0,0.0,0.0
41,46.0,0.0,1920.0,3.0,0.0
42,58.0,240.0,450.0,2.0,0.0
43,70.0,0.0,480.0,0.0,0.0
44,62.0,16.0,450.0,2.0,0.0
45,58.0,240.0,450.0,2.0,0.0
46,69.0,0.0,480.0,0.0,0.0
47,63.0,16.0,450.0,2.0,0.0
48,65.0,224.0,15.0,1.0,0.0
49,58.0,240.0,450.0,2.0,0.0
50,65.0,224.0,15.0,1.0,0.0
51,70.0,0.0,480.0,0.0,0.0
52,62.0,16.0,450.0,2.0,0.0
53,58.0,464.0,240.0,2.0,0.0
54,41.0,480.0,1920.0,3.0,0.0
55,65.0,0.0,15.0,1.0,0.0
56,63.0,0.0,1440.0,1.0,0.0
57,75.0,0.0,1440.0,0.0,0.0
58,60.0,240.0,450.0,2.0,0.0
59,69.0,224.0,1440.0,1.0,0.0
60,53.0,240.0,450.0,2.0,0.0
61,60.0,240.0,450.0,2.0,0.0
62,53.0,240.0,450.0,2.0,0.0
63,60.0,16.0,450.0,2.0,0.0
64,53.0,256.0,450.0,2.0,0.0
65,65.0,0.0,15.0,1.0,0.0
66,57.0,0.0,480.0,2.0,0.0
67,72.0,0.0,480.0,0.0,0.0
68,60.0,0.0,480.0,1.0,0.0
69,53.0,0.0,240.0,2.0,0.0
70,62.0,0.0,480.0,1.0,0.0
71,74.0,224.0,480.0,0.0,0.0
72,46.0,0.0,1440.0,3.0,0.0
73,65.0,0.0,480.0,1.0,0.0
74,58.0,256.0,450.0,2.0,0.0
75,79.0,0.0,480.0,0.0,0.0
76,67.0,16.0,480.0,1.0,0.0
77,51.0,208.0,510.0,3.0,0.0
78,58.0,256.0,450.0,2.0,0.0
79,77.0,1.0,480.0,0.0,0.0
80,65.0,0.0,480.0,1.0,0.0
81,50.0,208.0,510.0,3.0,0.0
82,58.0,240.0,450.0,2.0,0.0
83,46.0,16.0,450.0,3.0,0.0
84,70.0,0.0,480.0,1.0,0.0
85,55.0,15.0,15.0,2.0,0.0
86,82.0,231.0,480.0,0.0,0.0
87,58.0,233.0,480.0,2.0,0.0
88,46.0,16.0,450.0,3.0,0.0
89,69.0,192.0,480.0,1.0,0.0
90,81.0,0.0,480.0,0.0,0.0
91,53.0,0.0,450.0,2.0,0.0
92,58.0,272.0,420.0,2.0,0.0
93,51.0,16.0,450.0,2.0,0.0
94,46.0,0.0,450.0,3.0,0.0
95,79.0,0.0,480.0,0.0,0.0
96,67.0,192.0,480.0,1.0,0.0
97,58.0,272.0,420.0,2.0,0.0
98,77.0,0.0,480.0,0.0,0.0
99,65.0,120.0,480.0,1.0,0.0
100,46.0,0.0,450.0,3.0,0.0
101,50.0,16.0,450.0,2.0,0.0
102,58.0,0.0,240.0,2.0,0.0
103,74.0,120.0,120.0,0.0,0.0
104,75.0,120.0,120.0,0.0,0.0
105,74.0,120.0,120.0,0.0,0.0
106,70.0,120.0,120.0,0.0,0.0
107,75.0,120.0,120.0,0.0,0.0
108,77.0,120.0,120.0,0.0,0.0
109,75.0,120.0,120.0,0.0,0.0
110,72.0,120.0,120.0,0.0,0.0
111,69.0,0.0,480.0,0.0,0.0
112,53.0,120.0,120.0,3.0,0.0
113,57.0,120.0,120.0,3.0,0.0
114,60.0,120.0,120.0,3.0,0.0
115,63.0,480.0,120.0,3.0,0.0
116,51.0,120.0,480.0,3.0,0.0
117,75.0,120.0,120.0,0.0,0.0
118,77.0,120.0,120.0,0.0,0.0
119,75.0,120.0,120.0,0.0,0.0
120,72.0,120.0,120.0,0.0,0.0
121,77.0,120.0,120.0,0.0,0.0
122,79.0,120.0,120.0,0.0,0.0
123,77.0,120.0,120.0,0.0,0.0
124,74.0,120.0,120.0,0.0,0.0
125,50.0,120.0,120.0,3.0,0.0
126,70.0,480.0,480.0,0.0,0.0
127,53.0,120.0,120.0,3.0,0.0
128,58.0,120.0,120.0,3.0,0.0
129,62.0,0.0,120.0,3.0,0.0
130,50.0,160.0,480.0,3.0,0.0
131,82.0,160.0,150.0,0.0,0.0
132,46.0,0.0,150.0,3.0,0.0
133,81.0,160.0,150.0,0.0,0.0
134,48.0,0.0,150.0,3.0,0.0
135,79.0,0.0,150.0,0.0,0.0
136,50.0,160.0,150.0,3.0,0.0
137,77.0,160.0,150.0,0.0,0.0
138,51.0,160.0,960.0,3.0,0.0
139,75.0,160.0,150.0,0.0,0.0
140,74.0,160.0,150.0,0.0,0.0
141,72.0,160.0,150.0,0.0,0.0
142,70.0,160.0,150.0,0.0,0.0
143,69.0,0.0,150.0,0.0,0.0
144,53.0,0.0,960.0,3.0,0.0
145,67.0,160.0,150.0,0.0,0.0
146,65.0,160.0,150.0,0.0,0.0
147,64.0,160.0,150.0,0.0,0.0
148,63.0,0.0,480.0,3.0,0.0
149,65.0,160.0,150.0,0.0,0.0
150,67.0,160.0,150.0,0.0,0.0
151,69.0,480.0,150.0,0.0,0.0
152,58.0,0.0,480.0,3.0,0.0
153,62.0,0.0,480.0,2.0,0.0
154,70.0,480.0,480.0,0.0,0.0
155,53.0,0.0,480.0,3.0,0.0
156,65.0,0.0,15.0,2.0,0.0
157,69.0,0.0,480.0,2.0,0.0
158,60.0,480.0,480.0,2.0,0.0
159,72.0,0.0,480.0,0.0,0.0
160,70.0,0.0,480.0,2.0,0.0
161,65.0,0.0,15.0,2.0,0.0
162,58.0,0.0,480.0,2.0,0.0
163,46.0,0.0,480.0,3.0,0.0
164,74.0,0.0,480.0,0.0,0.0
165,58.0,0.0,480.0,3.0,0.0
166,74.0,0.0,480.0,0.0,0.0
167,70.0,960.0,480.0,2.0,0.0
168,62.0,0.0,480.0,2.0,0.0
169,65.0,0.0,480.0,2.0,0.0
170,72.0,960.0,480.0,2.0,0.0
171,67.0,0.0,480.0,2.0,0.0
172,60.0,0.0,480.0,2.0,0.0
173,51.0,0.0,480.0,3.0,0.0
174,75.0,0.0,480.0,0.0,0.0
175,53.0,0.0,480.0,3.0,0.0
176,72.0,0.0,480.0,0.0,0.0
177,69.0,480.0,480.0,2.0,0.0
178,65.0,0.0,15.0,2.0,0.0
179,70.0,0.0,480.0,2.0,0.0
180,46.0,0.0,480.0,3.0,0.0
181,74.0,0.0,480.0,0.0,0.0
182,75.0,960.0,480.0,0.0,0.0
183,72.0,0.0,480.0,2.0,0.0
184,65.0,480.0,15.0,2.0,0.0
185,41.0,0.0,480.0,3.0,0.0
186,57.0,960.0,480.0,3.0,0.0
187,60.0,0.0,480.0,2.0,0.0
188,75.0,0.0,480.0,0.0,0.0
189,65.0,0.0,480.0,2.0,0.0
190,72.0,0.0,480.0,2.0,0.0
191,63.0,0.0,480.0,2.0,0.0
192,69.0,0.0,480.0,2.0,0.0
193,53.0,0.0,480.0,3.0,0.0
194,63.0,0.0,480.0,2.0,0.0
195,60.0,0.0,480.0,2.0,0.0
196,72.0,0.0,480.0,2.0,0.0
197,57.0,0.0,480.0,2.0,0.0
198,65.0,0.0,480.0,2.0,0.0
199,77.0,960.0,480.0,0.0,0.0
200,74.0,0.0,480.0,0.0,0.0
201,62.0,0.0,480.0,2.0,0.0
202,65.0,0.0,480.0,2.0,0.0
203,70.0,120.0,480.0,2.0,0.0
204,58.0,0.0,480.0,3.0,0.0
205,77.0,120.0,120.0,0.0,0.0
206,79.0,120.0,120.0,0.0,0.0
207,77.0,120.0,120.0,0.0,0.0
208,74.0,960.0,120.0,0.0,0.0
209,82.0,120.0,1440.0,0.0,0.0
210,70.0,0.0,480.0,3.0,0.0
211,74.0,480.0,480.0,2.0,0.0
212,81.0,40.0,120.0,0.0,0.0
213,82.0,40.0,40.0,0.0,0.0
214,81.0,40.0,40.0,0.0,0.0
215,79.0,120.0,40.0,0.0,0.0
216,81.0,120.0,120.0,0.0,0.0
217,82.0,480.0,120.0,0.0,0.0
218,84.0,0.0,480.0,0.0,0.0
219,81.0,0.0,480.0,0.0,0.0
220,72.0,480.0,15.0,3.0,0.0
221,75.0,0.0,15.0,2.0,0.0
222,74.0,240.0,960.0,2.0,0.0
223,72.0,0.0,15.0,3.0,0.0
224,87.0,120.0,120.0,0.0,0.0
225,86.0,120.0,120.0,0.0,0.0
226,78.0,0.0,15.0,0.0,0.0
227,78.0,120.0,360.0,0.0,0.0
228,87.0,120.0,120.0,0.0,0.0
229,86.0,0.0,120.0,0.0,0.0
230,78.0,0.0,120.0,0.0,0.0
231,69.0,0.0,480.0,3.0,0.0
232,72.0,0.0,480.0,2.0,0.0
233,87.0,120.0,120.0,0.0,0.0
234,86.0,0.0,120.0,0.0,0.0
235,78.0,120.0,15.0,0.0,0.0
236,72.0,240.0,480.0,2.0,0.0
237,69.0,0.0,480.0,2.0,0.0
238,78.0,0.0,360.0,0.0,0.0
239,87.0,120.0,120.0,0.0,0.0
240,86.0,120.0,120.0,0.0,0.0
241,78.0,0.0,120.0,0.0,0.0
242,62.0,0.0,15.0,3.0,0.0
243,67.0,0.0,480.0,2.0,0.0
244,70.0,0.0,480.0,2.0,0.0
245,87.0,120.0,120.0,0.0,0.0
246,86.0,120.0,120.0,0.0,0.0
247,79.0,0.0,15.0,0.0,0.0
248,60.0,0.0,480.0,3.0,0.0
249,69.0,0.0,480.0,2.0,0.0
250,66.0,240.0,480.0,2.0,0.0
251,87.0,120.0,120.0,0.0,0.0
252,86.0,120.0,120.0,0.0,0.0
253,81.0,0.0,15.0,0.0,0.0
254,58.0,0.0,480.0,3.0,0.0
255,87.0,120.0,120.0,0.0,0.0
256,86.0,120.0,120.0,0.0,0.0
257,82.0,0.0,15.0,0.0,0.0
258,58.0,0.0,480.0,3.0,0.0
259,67.0,120.0,15.0,2.0,0.0
260,62.0,0.0,15.0,2.0,0.0
261,91.0,120.0,120.0,0.0,0.0
262,86.0,120.0,120.0,0.0,0.0
263,82.0,120.0,120.0,0.0,0.0
264,79.0,0.0,120.0,0.0,0.0
265,88.0,120.0,360.0,0.0,0.0
266,58.0,360.0,480.0,3.0,0.0
267,61.0,0.0,480.0,2.0,0.0
268,82.0,0.0,360.0,1.0,0.0
269,79.0,0.0,240.0,1.0,0.0
270,88.0,0.0,120.0,0.0,0.0
271,60.0,0.0,480.0,2.0,0.0
272,67.0,0.0,15.0,2.0,0.0
273,91.0,120.0,360.0,0.0,0.0
274,82.0,0.0,360.0,1.0,0.0
275,79.0,0.0,240.0,1.0,0.0
276,89.0,0.0,120.0,0.0,0.0
277,58.0,0.0,15.0,3.0,0.0
278,61.0,0.0,480.0,2.0,0.0
279,67.0,360.0,15.0,2.0,0.0
280,82.0,0.0,360.0,1.0,0.0
281,79.0,0.0,240.0,1.0,0.0
282,88.0,120.0,15.0,0.0,0.0
283,58.0,0.0,15.0,3.0,0.0
284,60.0,0.0,480.0,2.0,0.0
285,67.0,0.0,15.0,2.0,0.0
286,91.0,120.0,360.0,0.0,0.0
287,82.0,360.0,360.0,1.0,0.0
288,79.0,0.0,240.0,1.0,0.0
289,89.0,0.0,120.0,0.0,0.0
290,67.0,0.0,15.0,2.0,0.0
291,58.0,0.0,15.0,3.0,0.0
292,61.0,360.0,480.0,2.0,0.0
293,88.0,120.0,360.0,0.0,0.0
294,82.0,0.0,360.0,1.0,0.0
295,79.0,0.0,240.0,1.0,0.0
296,88.0,0.0,120.0,0.0,0.0
297,60.0,0.0,480.0,2.0,0.0
298,89.0,120.0,360.0,0.0,0.0
299,58.0,0.0,15.0,3.0,0.0
300,67.0,0.0,15.0,2.0,0.0
301,82.0,0.0,360.0,1.0,0.0
302,79.0,360.0,240.0,1.0,0.0
303,89.0,0.0,120.0,0.0,0.0
304,84.0,120.0,360.0,0.0,0.0
305,82.0,0.0,360.0,1.0,0.0
306,79.0,0.0,240.0,1.0,0.0
307,84.0,360.0,120.0,0.0,0.0
308,67.0,0.0,480.0,2.0,0.0
309,62.0,0.0,480.0,2.0,0.0
310,82.0,0.0,360.0,1.0,0.0
311,79.0,0.0,240.0,1.0,0.0
312,86.0,120.0,15.0,0.0,0.0
313,58.0,0.0,15.0,3.0,0.0
314,88.0,120.0,360.0,0.0,0.0
315,61.0,0.0,480.0,2.0,0.0
316,82.0,360.0,360.0,1.0,0.0
317,79.0,0.0,240.0,1.0,0.0
318,88.0,0.0,120.0,0.0,0.0
319,67.0,0.0,15.0,2.0,0.0
320,60.0,0.0,480.0,2.0,0.0
321,91.0,120.0,360.0,0.0,0.0
322,82.0,0.0,360.0,1.0,0.0
323,79.0,0.0,240.0,1.0,0.0
324,89.0,0.0,120.0,0.0,0.0
325,67.0,360.0,15.0,2.0,0.0
326,61.0,0.0,480.0,2.0,0.0
327,58.0,0.0,15.0,3.0,0.0
328,88.0,120.0,360.0,0.0,0.0
329,82.0,0.0,360.0,1.0,0.0
330,79.0,0.0,240.0,1.0,0.0
331,88.0,360.0,120.0,0.0,0.0
332,67.0,0.0,15.0,2.0,0.0
333,60.0,0.0,480.0,2.0,0.0
334,91.0,120.0,360.0,0.0,0.0
335,82.0,0.0,360.0,1.0,0.0
336,79.0,360.0,240.0,1.0,0.0
337,89.0,0.0,120.0,0.0,0.0
338,61.0,0.0,480.0,2.0,0.0
339,58.0,0.0,15.0,3.0,0.0
340,82.0,0.0,360.0,1.0,0.0
341,79.0,0.0,240.0,1.0,0.0
342,88.0,120.0,15.0,0.0,0.0
343,58.0,0.0,480.0,3.0,0.0
344,67.0,0.0,15.0,2.0,0.0
345,91.0,120.0,360.0,0.0,0.0
346,60.0,0.0,480.0,2.0,0.0
347,82.0,0.0,360.0,1.0,0.0
348,79.0,360.0,240.0,1.0,0.0
349,91.0,0.0,120.0,0.0,0.0
350,82.0,0.0,360.0,1.0,0.0
351,79.0,0.0,240.0,1.0,0.0
352,84.0,120.0,15.0,0.0,0.0
353,62.0,0.0,480.0,2.0,0.0
354,82.0,0.0,360.0,1.0,0.0
355,79.0,360.0,240.0,1.0,0.0
356,86.0,120.0,15.0,0.0,0.0
357,67.0,0.0,15.0,2.0,0.0
358,58.0,0.0,480.0,3.0,0.0
359,84.0,360.0,360.0,1.0,0.0
360,79.0,0.0,240.0,1.0,0.0
361,88.0,120.0,15.0,0.0,0.0
362,89.0,120.0,360.0,0.0,0.0
363,60.0,0.0,15.0,2.0,0.0
364,65.0,0.0,480.0,2.0,0.0
365,57.0,0.0,480.0,3.0,0.0
366,84.0,0.0,360.0,1.0,0.0
367,77.0,0.0,240.0,1.0,0.0
368,89.0,0.0,120.0,0.0,0.0
369,89.0,120.0,360.0,0.0,0.0
370,65.0,360.0,480.0,2.0,0.0
371,60.0,360.0,15.0,2.0,0.0
372,84.0,0.0,360.0,1.0,0.0
373,77.0,0.0,240.0,1.0,0.0
374,89.0,0.0,120.0,0.0,0.0
375,57.0,0.0,15.0,3.0,0.0
376,60.0,0.0,480.0,2.0,0.0
377,65.0,0.0,480.0,2.0,0.0
378,84.0,0.0,360.0,1.0,0.0
379,77.0,0.0,240.0,1.0,0.0
380,89.0,120.0,15.0,0.0,0.0
381,56.0,0.0,480.0,3.0,0.0
382,89.0,120.0,360.0,0.0,0.0
383,83.0,0.0,360.0,1.0,0.0
384,77.0,0.0,240.0,1.0,0.0
385,59.0,0.0,15.0,2.0,0.0
386,65.0,0.0,15.0,2.0,0.0
387,56.0,0.0,480.0,3.0,0.0
388,89.0,360.0,15.0,0.0,0.0
389,82.0,0.0,360.0,1.0,0.0
390,77.0,0.0,240.0,1.0,0.0
391,56.0,0.0,480.0,3.0,0.0
392,89.0,360.0,15.0,0.0,0.0
393,59.0,0.0,15.0,2.0,0.0
394,82.0,360.0,360.0,1.0,0.0
395,77.0,0.0,240.0,1.0,0.0
396,89.0,0.0,15.0,0.0,0.0
397,56.0,0.0,480.0,3.0,0.0
398,65.0,0.0,15.0,2.0,0.0
399,82.0,0.0,360.0,1.0,0.0
400,77.0,360.0,240.0,1.0,0.0
401,89.0,0.0,120.0,0.0,0.0
402,59.0,0.0,15.0,2.0,0.0
403,89.0,120.0,360.0,0.0,0.0
404,83.0,0.0,360.0,1.0,0.0
405,77.0,0.0,240.0,1.0,0.0
406,49.0,0.0,15.0,3.0,0.0
407,56.0,0.0,15.0,2.0,0.0
408,59.0,0.0,480.0,2.0,0.0
409,89.0,0.0,15.0,0.0,0.0
410,53.0,360.0,15.0,2.0,0.0
411,82.0,0.0,360.0,1.0,0.0
412,77.0,0.0,240.0,1.0,0.0
413,89.0,120.0,15.0,0.0,0.0
414,53.0,0.0,15.0,2.0,0.0
415,49.0,0.0,480.0,3.0,0.0
416,82.0,360.0,360.0,1.0,0.0
417,77.0,0.0,240.0,1.0,0.0
418,89.0,120.0,15.0,0.0,0.0
419,49.0,0.0,480.0,3.0,0.0
420,59.0,0.0,15.0,2.0,0.0
421,56.0,0.0,15.0,2.0,0.0
422,53.0,0.0,15.0,2.0,0.0
423,82.0,128.0,360.0,1.0,0.0
424,77.0,0.0,240.0,1.0,0.0
425,89.0,120.0,15.0,0.0,0.0
426,60.0,0.0,1920.0,3.0,0.0
427,48.0,5.0,1920.0,3.0,0.0
428,89.0,0.0,15.0,0.0,0.0
429,67.0,80.0,120.0,2.0,0.0
430,69.0,80.0,120.0,2.0,0.0
431,82.0,0.0,360.0,1.0,0.0
432,67.0,72.0,120.0,2.0,0.0
433,69.0,80.0,120.0,2.0,0.0
434,77.0,0.0,240.0,1.0,0.0
435,67.0,32.0,120.0,2.0,0.0
436,89.0,8.0,15.0,0.0,0.0
437,69.0,80.0,120.0,2.0,0.0
438,67.0,80.0,120.0,2.0,0.0
439,89.0,48.0,15.0,0.0,0.0
440,69.0,80.0,120.0,2.0,0.0
441,82.0,48.0,360.0,1.0,0.0
442,67.0,72.0,120.0,2.0,0.0
443,69.0,80.0,120.0,2.0,0.0
444,77.0,0.0,240.0,1.0,0.0
445,67.0,32.0,120.0,2.0,0.0
446,89.0,8.0,15.0,0.0,0.0
447,69.0,80.0,120.0,2.0,0.0
448,67.0,80.0,120.0,2.0,0.0
449,69.0,80.0,120.0,2.0,0.0
450,82.0,48.0,360.0,1.0,0.0
451,67.0,72.0,120.0,2.0,0.0
452,77.0,0.0,240.0,1.0,0.0
453,69.0,80.0,120.0,2.0,0.0
454,67.0,32.0,120.0,2.0,0.0
455,88.0,8.0,15.0,0.0,0.0
456,69.0,80.0,120.0,2.0,0.0
457,67.0,80.0,120.0,2.0,0.0
458,69.0,80.0,120.0,2.0,0.0
459,82.0,0.0,360.0,1.0,0.0
460,67.0,72.0,120.0,2.0,0.0
461,65.0,50.0,180.0,2.0,0.0
462,77.0,0.0,240.0,1.0,0.0
463,67.0,475.0,120.0,2.0,0.0
464,88.0,70.0,15.0,0.0,0.0
465,89.0,0.0,480.0,0.0,0.0
466,65.0,0.0,480.0,2.0,0.0
467,53.0,0.0,480.0,3.0,0.0
468,77.0,0.0,480.0,1.0,0.0
469,81.0,640.0,480.0,1.0,0.0
470,65.0,0.0,150.0,3.0,0.0
471,81.0,160.0,150.0,0.0,0.0
472,67.0,0.0,150.0,3.0,0.0
473,77.0,160.0,150.0,0.0,0.0
474,69.0,160.0,150.0,3.0,0.0
475,72.0,0.0,150.0,0.0,0.0
476,70.0,160.0,150.0,3.0,0.0
477,74.0,0.0,150.0,0.0,0.0
478,77.0,160.0,150.0,0.0,0.0
479,65.0,0.0,150.0,3.0,0.0
480,74.0,0.0,150.0,0.0,0.0
481,70.0,160.0,150.0,3.0,0.0
482,72.0,160.0,150.0,0.0,0.0
483,65.0,160.0,480.0,3.0,0.0
484,69.0,0.0,480.0,3.0,0.0
485,77.0,160.0,150.0,0.0,0.0
486,79.0,0.0,150.0,0.0,0.0
487,81.0,160.0,150.0,0.0,0.0
488,77.0,160.0,150.0,0.0,0.0
489,84.0,160.0,150.0,0.0,0.0
490,81.0,0.0,150.0,0.0,0.0
491,53.0,160.0,150.0,3.0,0.0
492,77.0,0.0,150.0,0.0,0.0
493,55.0,160.0,150.0,3.0,0.0
494,72.0,160.0,150.0,0.0,0.0
495,57.0,0.0,150.0,3.0,0.0
496,48.0,480.0,480.0,3.0,0.0
497,70.0,0.0,150.0,0.0,0.0
498,58.0,160.0,150.0,3.0,0.0
499,67.0,0.0,150.0,0.0,0.0
500,55.0,160.0,150.0,3.0,0.0
501,72.0,0.0,150.0,0.0,0.0
502,60.0,0.0,150.0,3.0,0.0
503,69.0,0.0,480.0,0.0,0.0
504,57.0,0.0,480.0,3.0,0.0
505,53.0,160.0,480.0,3.0,0.0
506,72.0,160.0,150.0,0.0,0.0
507,77.0,160.0,150.0,0.0,0.0
508,79.0,160.0,150.0,0.0,0.0
509,65.0,0.0,150.0,3.0,0.0
510,81.0,160.0,150.0,0.0,0.0
511,67.0,0.0,150.0,3.0,0.0
512,77.0,160.0,150.0,0.0,0.0
513,69.0,160.0,150.0,3.0,0.0
514,72.0,0.0,150.0,0.0,0.0
515,74.0,0.0,150.0,0.0,0.0
516,70.0,160.0,150.0,3.0,0.0
517,77.0,0.0,150.0,0.0,0.0
518,65.0,160.0,150.0,3.0,0.0
519,74.0,0.0,150.0,0.0,0.0
520,70.0,160.0,150.0,3.0,0.0
521,72.0,160.0,150.0,0.0,0.0
522,69.0,0.0,480.0,3.0,0.0
523,65.0,160.0,480.0,3.0,0.0
524,77.0,160.0,150.0,0.0,0.0
525,79.0,0.0,150.0,0.0,0.0
526,81.0,160.0,150.0,0.0,0.0
527,77.0,160.0,150.0,0.0,0.0
528,84.0,480.0,150.0,0.0,0.0
529,62.0,0.0,480.0,3.0,0.0
530,69.0,0.0,480.0,2.0,0.0
531,72.0,0.0,480.0,1.0,0.0
532,78.0,480.0,480.0,0.0,0.0
533,55.0,0.0,480.0,3.0,0.0
534,79.0,0.0,480.0,0.0,0.0
535,76.0,120.0,960.0,0.0,0.0
536,60.0,0.0,960.0,3.0,0.0
537,70.0,960.0,15.0,1.0,0.0
538,67.0,0.0,15.0,2.0,0.0
539,48.0,0.0,960.0,3.0,0.0
540,58.0,120.0,960.0,2.0,0.0
541,70.0,120.0,120.0,0.0,0.0
542,72.0,120.0,120.0,0.0,0.0
543,70.0,120.0,120.0,0.0,0.0
544,69.0,120.0,120.0,0.0,0.0
545,70.0,120.0,120.0,0.0,0.0
546,79.0,120.0,120.0,0.0,0.0
547,77.0,120.0,120.0,0.0,0.0
548,76.0,0.0,120.0,0.0,0.0
549,77.0,120.0,120.0,0.0,0.0
550,57.0,0.0,480.0,2.0,0.0
551,53.0,120.0,480.0,3.0,0.0
552,72.0,120.0,120.0,0.0,0.0
553,77.0,120.0,120.0,0.0,0.0
554,81.0,0.0,120.0,0.0,0.0
555,84.0,120.0,120.0,0.0,0.0
556,89.0,120.0,120.0,0.0,0.0
557,93.0,120.0,120.0,0.0,0.0
558,91.0,480.0,120.0,0.0,0.0
559,84.0,0.0,480.0,1.0,0.0
560,74.0,0.0,480.0,3.0,0.0
561,81.0,0.0,480.0,2.0,0.0
562,90.0,480.0,480.0,0.0,0.0
563,67.0,0.0,480.0,3.0,0.0
564,91.0,960.0,480.0,0.0,0.0
565,79.0,0.0,480.0,2.0,0.0
566,82.0,0.0,480.0,1.0,0.0
567,82.0,120.0,960.0,1.0,0.0
568,79.0,0.0,960.0,2.0,0.0
569,88.0,0.0,960.0,0.0,0.0
570,72.0,0.0,960.0,3.0,0.0
571,60.0,0.0,960.0,3.0,0.0
572,82.0,120.0,120.0,0.0,0.0
573,67.0,120.0,960.0,2.0,0.0
574,70.0,0.0,960.0,2.0,0.0
575,84.0,120.0,120.0,0.0,0.0
576,82.0,120.0,120.0,0.0,0.0
577,81.0,120.0,120.0,0.0,0.0
578,82.0,120.0,120.0,0.0,0.0
579,91.0,120.0,120.0,0.0,0.0
580,89.0,120.0,120.0,0.0,0.0
581,88.0,0.0,120.0,0.0,0.0
582,65.0,120.0,480.0,3.0,0.0
583,89.0,120.0,120.0,0.0,0.0
584,69.0,0.0,480.0,2.0,0.0
585,84.0,120.0,120.0,0.0,0.0
586,81.0,120.0,120.0,0.0,0.0
587,77.0,0.0,120.0,0.0,0.0
588,72.0,120.0,120.0,0.0,0.0
589,77.0,120.0,120.0,0.0,0.0
590,72.0,120.0,120.0,0.0,0.0
591,69.0,120.0,120.0,0.0,0.0
592,58.0,0.0,960.0,2.0,0.0
593,70.0,120.0,120.0,0.0,0.0
594,48.0,0.0,960.0,3.0,0.0
595,72.0,120.0,120.0,0.0,0.0
596,70.0,120.0,120.0,0.0,0.0
597,69.0,120.0,120.0,0.0,0.0
598,70.0,120.0,120.0,0.0,0.0
599,79.0,120.0,120.0,0.0,0.0
600,77.0,120.0,120.0,0.0,0.0
601,76.0,120.0,120.0,0.0,0.0
602,57.0,0.0,480.0,2.0,0.0
603,53.0,120.0,480.0,3.0,0.0
604,77.0,120.0,120.0,0.0,0.0
605,72.0,120.0,120.0,0.0,0.0
606,69.0,120.0,120.0,0.0,0.0
607,65.0,0.0,120.0,0.0,0.0
608,60.0,120.0,120.0,0.0,0.0
609,65.0,120.0,120.0,0.0,0.0
610,60.0,120.0,120.0,0.0,0.0
611,57.0,120.0,120.0,0.0,0.0
612,46.0,120.0,120.0,3.0,0.0
613,48.0,120.0,120.0,3.0,0.0
614,46.0,120.0,120.0,3.0,0.0
615,45.0,120.0,120.0,3.0,0.0
616,60.0,0.0,480.0,1.0,0.0
617,67.0,0.0,480.0,1.0,0.0
618,64.0,0.0,480.0,1.0,0.0
619,70.0,0.0,480.0,0.0,0.0
620,46.0,120.0,120.0,3.0,0.0
621,48.0,120.0,120.0,3.0,0.0
622,50.0,120.0,120.0,3.0,0.0
623,52.0,120.0,120.0,3.0,0.0
624,53.0,120.0,120.0,3.0,0.0
625,55.0,120.0,120.0,3.0,0.0
626,57.0,120.0,120.0,3.0,0.0
627,58.0,120.0,120.0,3.0,0.0
628,70.0,0.0,480.0,0.0,0.0
629,67.0,0.0,480.0,1.0,0.0
630,64.0,0.0,480.0,1.0,0.0
631,60.0,120.0,120.0,3.0,0.0
632,58.0,120.0,120.0,3.0,0.0
633,57.0,120.0,120.0,3.0,0.0
634,55.0,120.0,120.0,3.0,0.0
635,53.0,120.0,120.0,3.0,0.0
636,52.0,120.0,120.0,3.0,0.0
637,50.0,120.0,120.0,3.0,0.0
638,48.0,120.0,120.0,3.0,0.0
639,72.0,0.0,480.0,0.0,0.0
640,50.0,120.0,120.0,3.0,0.0
641,64.0,120.0,480.0,1.0,0.0
642,67.0,0.0,480.0,1.0,0.0
643,70.0,0.0,480.0,1.0,0.0
644,48.0,120.0,120.0,3.0,0.0
645,50.0,120.0,120.0,3.0,0.0
646,52.0,0.0,120.0,3.0,0.0
647,53.0,120.0,120.0,3.0,0.0
648,55.0,120.0,120.0,3.0,0.0
649,57.0,120.0,120.0,3.0,0.0
650,58.0,120.0,120.0,3.0,0.0
651,60.0,120.0,120.0,3.0,0.0
652,69.0,0.0,480.0,1.0,0.0
653,65.0,0.0,480.0,1.0,0.0
654,63.0,0.0,480.0,1.0,0.0
655,72.0,120.0,480.0,0.0,0.0
656,58.0,120.0,120.0,3.0,0.0
657,57.0,120.0,120.0,3.0,0.0
658,58.0,0.0,120.0,3.0,0.0
659,60.0,120.0,120.0,3.0,0.0
660,58.0,120.0,120.0,3.0,0.0
661,57.0,120.0,120.0,3.0,0.0
662,55.0,120.0,120.0,3.0,0.0
663,53.0,120.0,120.0,3.0,0.0
664,74.0,0.0,360.0,0.0,0.0
665,51.0,120.0,120.0,3.0,0.0
666,50.0,120.0,120.0,3.0,0.0
667,48.0,0.0,120.0,3.0,0.0
668,75.0,480.0,120.0,0.0,0.0
669,46.0,464.0,1920.0,3.0,0.0
670,77.0,224.0,480.0,0.0,0.0
671,58.0,240.0,450.0,2.0,0.0
672,70.0,0.0,480.0,0.0,0.0
673,62.0,16.0,450.0,2.0,0.0
674,65.0,224.0,480.0,1.0,0.0
675,58.0,240.0,450.0,2.0,0.0
676,63.0,16.0,450.0,2.0,0.0
677,69.0,224.0,480.0,0.0,0.0
678,65.0,0.0,480.0,1.0,0.0
679,58.0,240.0,450.0,2.0,0.0
680,62.0,16.0,450.0,2.0,0.0
681,70.0,0.0,480.0,0.0,0.0
682,58.0,0.0,240.0,2.0,0.0
683,60.0,240.0,450.0,2.0,0.0
684,41.0,480.0,1920.0,3.0,0.0
685,69.0,224.0,1440.0,1.0,0.0
686,65.0,0.0,15.0,1.0,0.0
687,63.0,0.0,1440.0,1.0,0.0
688,75.0,0.0,1440.0,0.0,0.0
689,53.0,240.0,450.0,2.0,0.0
690,60.0,240.0,450.0,2.0,0.0
691,53.0,240.0,450.0,2.0,0.0
692,60.0,16.0,450.0,2.0,0.0
693,53.0,256.0,450.0,2.0,0.0
694,65.0,0.0,15.0,1.0,0.0
695,60.0,0.0,480.0,1.0,0.0
696,57.0,0.0,480.0,2.0,0.0
697,72.0,0.0,480.0,0.0,0.0
698,53.0,0.0,240.0,2.0,0.0
699,65.0,0.0,15.0,1.0,0.0
700,62.0,0.0,480.0,1.0,0.0
701,46.0,0.0,1440.0,3.0,0.0
702,74.0,0.0,480.0,0.0,0.0
703,58.0,256.0,450.0,2.0,0.0
704,51.0,208.0,510.0,3.0,0.0
705,67.0,16.0,480.0,1.0,0.0
706,79.0,0.0,480.0,0.0,0.0
707,58.0,256.0,450.0,2.0,0.0
708,77.0,0.0,480.0,0.0,0.0
709,65.0,16.0,480.0,1.0,0.0
710,50.0,208.0,510.0,3.0,0.0
711,58.0,240.0,450.0,2.0,0.0
712,82.0,231.0,480.0,0.0,0.0
713,70.0,0.0,480.0,1.0,0.0
714,46.0,16.0,450.0,3.0,0.0
715,58.0,233.0,480.0,2.0,0.0
716,53.0,16.0,450.0,2.0,0.0
717,81.0,192.0,480.0,0.0,0.0
718,69.0,0.0,480.0,1.0,0.0
719,46.0,0.0,450.0,3.0,0.0
720,58.0,272.0,420.0,2.0,0.0
721,46.0,0.0,450.0,3.0,0.0
722,79.0,192.0,480.0,0.0,0.0
723,51.0,16.0,450.0,2.0,0.0
724,67.0,0.0,480.0,1.0,0.0
725,58.0,272.0,420.0,2.0,0.0
726,50.0,0.0,450.0,2.0,0.0
727,46.0,16.0,450.0,3.0,0.0
728,77.0,0.0,480.0,0.0,0.0
729,65.0,120.0,480.0,1.0,0.0
730,58.0,0.0,240.0,2.0,0.0
731,74.0,120.0,120.0,0.0,0.0
732,75.0,120.0,120.0,0.0,0.0
733,74.0,120.0,120.0,0.0,0.0
734,70.0,120.0,120.0,0.0,0.0
735,75.0,120.0,120.0,0.0,0.0
736,77.0,120.0,120.0,0.0,0.0
737,75.0,120.0,120.0,0.0,0.0
738,72.0,120.0,120.0,0.0,0.0
739,53.0,120.0,120.0,3.0,0.0
740,69.0,480.0,480.0,0.0,0.0
741,57.0,120.0,120.0,3.0,0.0
742,60.0,120.0,120.0,3.0,0.0
743,63.0,0.0,120.0,3.0,0.0
744,51.0,120.0,480.0,3.0,0.0
745,75.0,120.0,120.0,0.0,0.0
746,77.0,120.0,120.0,0.0,0.0
747,75.0,120.0,120.0,0.0,0.0
748,72.0,120.0,120.0,0.0,0.0
749,77.0,120.0,120.0,0.0,0.0
750,79.0,120.0,120.0,0.0,0.0
751,77.0,120.0,120.0,0.0,0.0
752,74.0,120.0,120.0,0.0,0.0
753,50.0,120.0,120.0,3.0,0.0
754,70.0,0.0,480.0,0.0,0.0
755,53.0,120.0,120.0,3.0,0.0
756,58.0,120.0,120.0,3.0,0.0
757,62.0,480.0,120.0,3.0,0.0
758,50.0,160.0,480.0,3.0,0.0
759,82.0,0.0,150.0,0.0,0.0
760,46.0,160.0,150.0,3.0,0.0
761,48.0,0.0,150.0,3.0,0.0
762,81.0,160.0,150.0,0.0,0.0
763,50.0,0.0,150.0,3.0,0.0
764,79.0,160.0,150.0,0.0,0.0
765,77.0,160.0,150.0,0.0,0.0
766,51.0,0.0,960.0,3.0,0.0
767,75.0,160.0,150.0,0.0,0.0
768,74.0,160.0,150.0,0.0,0.0
769,72.0,160.0,150.0,0.0,0.0
770,70.0,160.0,150.0,0.0,0.0
771,69.0,160.0,150.0,0.0,0.0
772,53.0,480.0,960.0,3.0,0.0
773,67.0,160.0,150.0,0.0,0.0
774,65.0,160.0,150.0,0.0,0.0
775,64.0,160.0,150.0,0.0,0.0
776,63.0,0.0,480.0,3.0,0.0
777,65.0,160.0,150.0,0.0,0.0
778,67.0,160.0,150.0,0.0,0.0
779,69.0,0.0,150.0,0.0,0.0
780,70.0,0.0,480.0,0.0,0.0
781,62.0,0.0,480.0,2.0,0.0
782,58.0,480.0,480.0,3.0,0.0
783,65.0,0.0,15.0,2.0,0.0
784,72.0,0.0,480.0,0.0,0.0
785,53.0,480.0,480.0,3.0,0.0
786,60.0,0.0,480.0,2.0,0.0
787,69.0,0.0,480.0,2.0,0.0
788,58.0,0.0,480.0,2.0,0.0
789,70.0,0.0,480.0,2.0,0.0
790,65.0,0.0,480.0,2.0,0.0
791,74.0,0.0,480.0,0.0,0.0
792,46.0,960.0,480.0,3.0,0.0
793,70.0,0.0,480.0,2.0,0.0
794,65.0,0.0,480.0,2.0,0.0
795,74.0,960.0,480.0,0.0,0.0
796,62.0,0.0,480.0,2.0,0.0
797,58.0,0.0,480.0,3.0,0.0
798,60.0,0.0,480.0,2.0,0.0
799,67.0,0.0,480.0,2.0,0.0
800,72.0,0.0,480.0,2.0,0.0
801,51.0,0.0,480.0,3.0,0.0
802,75.0,960.0,480.0,0.0,0.0
803,53.0,0.0,480.0,3.0,0.0
804,69.0,0.0,480.0,2.0,0.0
805,72.0,480.0,480.0,0.0,0.0
806,65.0,0.0,15.0,2.0,0.0
807,70.0,0.0,480.0,2.0,0.0
808,46.0,0.0,480.0,3.0,0.0
809,74.0,480.0,480.0,0.0,0.0
810,75.0,0.0,480.0,0.0,0.0
811,41.0,0.0,480.0,3.0,0.0
812,65.0,960.0,480.0,2.0,0.0
813,72.0,0.0,480.0,2.0,0.0
814,60.0,0.0,480.0,2.0,0.0
815,63.0,0.0,480.0,2.0,0.0
816,75.0,0.0,480.0,0.0,0.0
817,72.0,0.0,480.0,2.0,0.0
818,57.0,960.0,480.0,3.0,0.0
819,65.0,0.0,480.0,2.0,0.0
820,60.0,960.0,480.0,2.0,0.0
821,63.0,0.0,480.0,2.0,0.0
822,57.0,0.0,480.0,2.0,0.0
823,69.0,0.0,480.0,2.0,0.0
824,77.0,0.0,480.0,0.0,0.0
825,53.0,0.0,480.0,3.0,0.0
826,65.0,0.0,480.0,2.0,0.0
827,72.0,0.0,480.0,2.0,0.0
828,74.0,0.0,480.0,0.0,0.0
829,65.0,0.0,480.0,2.0,0.0
830,70.0,0.0,480.0,2.0,0.0
831,58.0,120.0,480.0,3.0,0.0
832,62.0,0.0,480.0,2.0,0.0
833,77.0,120.0,120.0,0.0,0.0
834,79.0,120.0,120.0,0.0,0.0
835,77.0,120.0,120.0,0.0,0.0
836,74.0,960.0,120.0,0.0,0.0
837,82.0,120.0,1440.0,0.0,0.0
838,70.0,0.0,480.0,3.0,0.0
839,74.0,480.0,480.0,2.0,0.0
840,72.0,0.0,1440.0,3.0,0.0
841,75.0,0.0,1440.0,2.0,0.0
842,81.0,40.0,120.0,0.0,0.0
843,82.0,40.0,40.0,0.0,0.0
844,81.0,40.0,40.0,0.0,0.0
845,79.0,120.0,40.0,0.0,0.0
846,81.0,120.0,120.0,0.0,0.0
847,82.0,480.0,120.0,0.0,0.0
848,84.0,480.0,480.0,0.0,0.0
849,75.0,0.0,480.0,2.0,0.0
850,81.0,0.0,480.0,0.0,0.0
851,74.0,0.0,960.0,2.0,0.0
852,72.0,240.0,15.0,3.0,0.0
853,87.0,120.0,120.0,0.0,0.0
854,86.0,0.0,120.0,0.0,0.0
855,78.0,120.0,15.0,0.0,0.0
856,87.0,120.0,120.0,0.0,0.0
857,86.0,120.0,120.0,0.0,0.0
858,78.0,0.0,15.0,0.0,0.0
859,78.0,120.0,360.0,0.0,0.0
860,69.0,0.0,480.0,3.0,0.0
861,72.0,0.0,480.0,2.0,0.0
862,87.0,120.0,120.0,0.0,0.0
863,86.0,0.0,120.0,0.0,0.0
864,78.0,240.0,120.0,0.0,0.0
865,62.0,240.0,480.0,3.0,0.0
866,72.0,0.0,480.0,2.0,0.0
867,69.0,0.0,480.0,2.0,0.0
868,87.0,120.0,120.0,0.0,0.0
869,86.0,0.0,120.0,0.0,0.0
870,78.0,120.0,15.0,0.0,0.0
871,70.0,0.0,480.0,2.0,0.0
872,67.0,0.0,480.0,2.0,0.0
873,79.0,0.0,360.0,0.0,0.0
874,62.0,240.0,480.0,3.0,0.0
875,87.0,120.0,120.0,0.0,0.0
876,86.0,120.0,120.0,0.0,0.0
877,79.0,0.0,120.0,0.0,0.0
878,66.0,0.0,480.0,2.0,0.0
879,69.0,0.0,480.0,2.0,0.0
880,81.0,120.0,360.0,0.0,0.0
881,60.0,0.0,480.0,3.0,0.0
882,87.0,120.0,120.0,0.0,0.0
883,86.0,0.0,120.0,0.0,0.0
884,81.0,240.0,120.0,0.0,0.0
885,62.0,0.0,480.0,2.0,0.0
886,82.0,120.0,360.0,0.0,0.0
887,87.0,120.0,120.0,0.0,0.0
888,86.0,0.0,120.0,0.0,0.0
889,82.0,0.0,120.0,0.0,0.0
890,91.0,120.0,120.0,0.0,0.0
891,58.0,0.0,15.0,3.0,0.0
892,67.0,120.0,15.0,2.0,0.0
893,62.0,0.0,480.0,2.0,0.0
894,86.0,120.0,120.0,0.0,0.0
895,82.0,120.0,120.0,0.0,0.0
896,79.0,0.0,120.0,0.0,0.0
897,58.0,0.0,480.0,3.0,0.0
898,88.0,120.0,360.0,0.0,0.0
899,61.0,360.0,480.0,2.0,0.0
900,67.0,360.0,15.0,2.0,0.0
901,82.0,0.0,360.0,1.0,0.0
902,79.0,0.0,240.0,1.0,0.0
903,88.0,0.0,120.0,0.0,0.0
904,60.0,0.0,480.0,2.0,0.0
905,91.0,120.0,360.0,0.0,0.0
906,67.0,0.0,480.0,2.0,0.0
907,82.0,0.0,360.0,1.0,0.0
908,79.0,0.0,240.0,1.0,0.0
909,89.0,0.0,120.0,0.0,0.0
910,58.0,360.0,15.0,3.0,0.0
911,88.0,120.0,360.0,0.0,0.0
912,61.0,0.0,480.0,2.0,0.0
913,82.0,0.0,360.0,1.0,0.0
914,79.0,0.0,240.0,1.0,0.0
915,88.0,360.0,120.0,0.0,0.0
916,60.0,0.0,480.0,2.0,0.0
917,67.0,0.0,15.0,2.0,0.0
918,58.0,0.0,480.0,3.0,0.0
919,91.0,120.0,360.0,0.0,0.0
920,82.0,0.0,360.0,1.0,0.0
921,79.0,360.0,240.0,1.0,0.0
922,89.0,0.0,120.0,0.0,0.0
923,61.0,360.0,480.0,2.0,0.0
924,82.0,0.0,360.0,1.0,0.0
925,79.0,0.0,240.0,1.0,0.0
926,88.0,120.0,15.0,0.0,0.0
927,58.0,0.0,15.0,3.0,0.0
928,67.0,0.0,15.0,2.0,0.0
929,60.0,0.0,480.0,2.0,0.0
930,82.0,0.0,360.0,1.0,0.0
931,79.0,0.0,240.0,1.0,0.0
932,89.0,120.0,15.0,0.0,0.0
933,82.0,0.0,360.0,1.0,0.0
934,79.0,0.0,240.0,1.0,0.0
935,84.0,120.0,15.0,0.0,0.0
936,67.0,0.0,480.0,2.0,0.0
937,62.0,360.0,480.0,2.0,0.0
938,82.0,0.0,360.0,1.0,0.0
939,79.0,0.0,240.0,1.0,0.0
940,86.0,120.0,15.0,0.0,0.0
941,61.0,0.0,480.0,2.0,0.0
942,58.0,0.0,15.0,3.0,0.0
943,88.0,120.0,360.0,0.0,0.0
944,82.0,0.0,360.0,1.0,0.0
945,79.0,0.0,240.0,1.0,0.0
946,88.0,0.0,120.0,0.0,0.0
947,91.0,120.0,360.0,0.0,0.0
948,58.0,360.0,15.0,3.0,0.0
949,67.0,0.0,15.0,2.0,0.0
950,60.0,0.0,480.0,2.0,0.0
951,82.0,0.0,360.0,1.0,0.0
952,79.0,0.0,240.0,1.0,0.0
953,89.0,0.0,120.0,0.0,0.0
954,67.0,0.0,15.0,2.0,0.0
955,58.0,360.0,15.0,3.0,0.0
956,61.0,0.0,480.0,2.0,0.0
957,82.0,0.0,360.0,1.0,0.0
958,79.0,360.0,240.0,1.0,0.0
959,88.0,120.0,15.0,0.0,0.0
960,58.0,0.0,15.0,3.0,0.0
961,91.0,120.0,360.0,0.0,0.0
962,60.0,0.0,480.0,2.0,0.0
963,82.0,0.0,360.0,1.0,0.0
964,79.0,0.0,240.0,1.0,0.0
965,89.0,0.0,120.0,0.0,0.0
966,58.0,0.0,480.0,3.0,0.0
967,67.0,360.0,15.0,2.0,0.0
968,88.0,120.0,360.0,0.0,0.0
969,61.0,360.0,480.0,2.0,0.0
970,82.0,0.0,360.0,1.0,0.0
971,79.0,0.0,240.0,1.0,0.0
972,88.0,0.0,120.0,0.0,0.0
973,91.0,120.0,360.0,0.0,0.0
974,67.0,360.0,480.0,2.0,0.0
975,60.0,0.0,480.0,2.0,0.0
976,58.0,0.0,480.0,3.0,0.0
977,82.0,0.0,360.0,1.0,0.0
978,79.0,0.0,240.0,1.0,0.0
979,91.0,0.0,120.0,0.0,0.0
980,84.0,120.0,360.0,0.0,0.0
981,82.0,0.0,360.0,1.0,0.0
982,79.0,360.0,240.0,1.0,0.0
983,84.0,0.0,120.0,0.0,0.0
984,62.0,0.0,480.0,2.0,0.0
985,86.0,120.0,360.0,0.0,0.0
986,82.0,360.0,360.0,1.0,0.0
987,79.0,0.0,240.0,1.0,0.0
988,86.0,0.0,120.0,0.0,0.0
989,58.0,360.0,480.0,3.0,0.0
990,60.0,0.0,480.0,2.0,0.0
991,67.0,0.0,15.0,2.0,0.0
992,84.0,0.0,360.0,1.0,0.0
993,79.0,0.0,240.0,1.0,0.0
994,88.0,120.0,15.0,0.0,0.0
995,60.0,0.0,480.0,2.0,0.0
996,65.0,0.0,480.0,2.0,0.0
997,89.0,120.0,360.0,0.0,0.0
998,57.0,0.0,480.0,3.0,0.0
999,84.0,0.0,360.0,1.0,0.0
1000,77.0,0.0,240.0,1.0,0.0
1001,60.0,0.0,480.0,2.0,0.0
1002,89.0,360.0,15.0,0.0,0.0
1003,84.0,0.0,360.0,1.0,0.0
1004,77.0,0.0,240.0,1.0,0.0
1005,89.0,120.0,15.0,0.0,0.0
1006,65.0,0.0,15.0,2.0,0.0
1007,57.0,360.0,15.0,3.0,0.0
1008,60.0,0.0,480.0,2.0,0.0
1009,84.0,0.0,360.0,1.0,0.0
1010,77.0,0.0,240.0,1.0,0.0
1011,89.0,120.0,15.0,0.0,0.0
1012,56.0,0.0,480.0,3.0,0.0
1013,89.0,0.0,15.0,0.0,0.0
1014,65.0,360.0,15.0,2.0,0.0
1015,59.0,0.0,480.0,2.0,0.0
1016,83.0,0.0,360.0,1.0,0.0
1017,77.0,0.0,240.0,1.0,0.0
1018,89.0,0.0,120.0,0.0,0.0
1019,89.0,120.0,360.0,0.0,0.0
1020,59.0,0.0,480.0,2.0,0.0
1021,65.0,360.0,15.0,2.0,0.0
1022,82.0,0.0,360.0,1.0,0.0
1023,77.0,360.0,240.0,1.0,0.0
1024,89.0,0.0,120.0,0.0,0.0
1025,89.0,120.0,360.0,0.0,0.0
1026,65.0,0.0,15.0,2.0,0.0
1027,56.0,0.0,15.0,3.0,0.0
1028,59.0,0.0,480.0,2.0,0.0
1029,82.0,0.0,360.0,1.0,0.0
1030,77.0,0.0,240.0,1.0,0.0
1031,89.0,0.0,120.0,0.0,0.0
1032,56.0,360.0,15.0,3.0,0.0
1033,65.0,0.0,15.0,2.0,0.0
1034,82.0,0.0,360.0,1.0,0.0
1035,77.0,0.0,240.0,1.0,0.0
1036,89.0,120.0,15.0,0.0,0.0
1037,59.0,0.0,15.0,2.0,0.0
1038,56.0,0.0,480.0,2.0,0.0
1039,53.0,0.0,480.0,2.0,0.0
1040,89.0,120.0,360.0,0.0,0.0
1041,49.0,0.0,480.0,3.0,0.0
1042,83.0,0.0,360.0,1.0,0.0
1043,77.0,0.0,240.0,1.0,0.0
1044,56.0,0.0,480.0,2.0,0.0
1045,89.0,360.0,15.0,0.0,0.0
1046,53.0,0.0,480.0,2.0,0.0
1047,59.0,360.0,480.0,2.0,0.0
1048,82.0,0.0,360.0,1.0,0.0
1049,77.0,0.0,240.0,1.0,0.0
1050,89.0,0.0,120.0,0.0,0.0
1051,49.0,0.0,15.0,3.0,0.0
1052,89.0,120.0,360.0,0.0,0.0
1053,82.0,0.0,360.0,1.0,0.0
1054,77.0,0.0,240.0,1.0,0.0
1055,89.0,0.0,15.0,0.0,0.0
1056,56.0,0.0,15.0,2.0,0.0
1057,59.0,360.0,15.0,2.0,0.0
1058,53.0,0.0,15.0,2.0,0.0
1059,49.0,0.0,480.0,3.0,0.0
1060,82.0,0.0,360.0,1.0,0.0
1061,77.0,0.0,240.0,1.0,0.0
1062,89.0,0.0,120.0,0.0,0.0
1063,48.0,5.0,1920.0,3.0,0.0
1064,89.0,8.0,360.0,0.0,0.0
1065,60.0,0.0,1920.0,3.0,0.0
1066,67.0,80.0,120.0,2.0,0.0
1067,69.0,80.0,120.0,2.0,0.0
1068,82.0,48.0,360.0,1.0,0.0
1069,67.0,72.0,120.0,2.0,0.0
1070,77.0,0.0,240.0,1.0,0.0
1071,69.0,80.0,120.0,2.0,0.0
1072,67.0,32.0,120.0,2.0,0.0
1073,89.0,0.0,120.0,0.0,0.0
1074,69.0,80.0,120.0,2.0,0.0
1075,67.0,80.0,120.0,2.0,0.0
1076,89.0,8.0,360.0,0.0,0.0
1077,69.0,80.0,120.0,2.0,0.0
1078,82.0,0.0,360.0,1.0,0.0
1079,67.0,72.0,120.0,2.0,0.0
1080,69.0,80.0,120.0,2.0,0.0
1081,77.0,48.0,240.0,1.0,0.0
1082,67.0,32.0,120.0,2.0,0.0
1083,89.0,0.0,120.0,0.0,0.0
1084,69.0,80.0,120.0,2.0,0.0
1085,67.0,80.0,120.0,2.0,0.0
1086,88.0,8.0,360.0,0.0,0.0
1087,69.0,80.0,120.0,2.0,0.0
1088,82.0,0.0,360.0,1.0,0.0
1089,67.0,72.0,120.0,2.0,0.0
1090,69.0,80.0,120.0,2.0,0.0
1091,77.0,0.0,240.0,1.0,0.0
1092,67.0,32.0,120.0,2.0,0.0
1093,69.0,80.0,120.0,2.0,0.0
1094,67.0,80.0,120.0,2.0,0.0
1095,88.0,48.0,15.0,0.0,0.0
1096,69.0,80.0,120.0,2.0,0.0
1097,82.0,0.0,360.0,1.0,0.0
1098,67.0,72.0,120.0,2.0,0.0
1099,77.0,0.0,240.0,1.0,0.0
1100,65.0,50.0,180.0,2.0,0.0
1101,67.0,475.0,120.0,2.0,0.0
1102,88.0,0.0,120.0,0.0,0.0
1103,81.0,0.0,480.0,1.0,0.0
1104,65.0,640.0,480.0,2.0,0.0
1105,77.0,0.0,480.0,1.0,0.0
1106,89.0,0.0,480.0,0.0,0.0
1107,53.0,0.0,480.0,3.0,0.0
1108,65.0,0.0,150.0,3.0,0.0
1109,81.0,160.0,150.0,0.0,0.0
1110,67.0,160.0,150.0,3.0,0.0
1111,77.0,0.0,150.0,0.0,0.0
1112,69.0,160.0,150.0,3.0,0.0
1113,72.0,0.0,150.0,0.0,0.0
1114,74.0,0.0,150.0,0.0,0.0
1115,70.0,160.0,150.0,3.0,0.0
1116,65.0,160.0,150.0,3.0,0.0
1117,77.0,0.0,150.0,0.0,0.0
1118,70.0,0.0,150.0,3.0,0.0
1119,74.0,160.0,150.0,0.0,0.0
1120,65.0,0.0,480.0,3.0,0.0
1121,72.0,160.0,150.0,0.0,0.0
1122,69.0,0.0,480.0,3.0,0.0
1123,77.0,160.0,150.0,0.0,0.0
1124,79.0,160.0,150.0,0.0,0.0
1125,81.0,160.0,150.0,0.0,0.0
1126,77.0,160.0,150.0,0.0,0.0
1127,84.0,160.0,150.0,0.0,0.0
1128,53.0,0.0,150.0,3.0,0.0
1129,81.0,160.0,150.0,0.0,0.0
1130,55.0,160.0,150.0,3.0,0.0
1131,77.0,0.0,150.0,0.0,0.0
1132,72.0,0.0,150.0,0.0,0.0
1133,57.0,160.0,150.0,3.0,0.0
1134,58.0,160.0,150.0,3.0,0.0
1135,70.0,0.0,150.0,0.0,0.0
1136,48.0,0.0,480.0,3.0,0.0
1137,67.0,0.0,150.0,0.0,0.0
1138,55.0,160.0,150.0,3.0,0.0
1139,72.0,480.0,150.0,0.0,0.0
1140,60.0,0.0,150.0,3.0,0.0
1141,53.0,0.0,480.0,3.0,0.0
1142,57.0,0.0,480.0,3.0,0.0
1143,69.0,160.0,480.0,0.0,0.0
1144,72.0,160.0,150.0,0.0,0.0
1145,77.0,160.0,150.0,0.0,0.0
1146,79.0,160.0,150.0,0.0,0.0
1147,65.0,160.0,150.0,3.0,0.0
1148,81.0,0.0,150.0,0.0,0.0
1149,67.0,0.0,150.0,3.0,0.0
1150,77.0,160.0,150.0,0.0,0.0
1151,69.0,0.0,150.0,3.0,0.0
1152,72.0,160.0,150.0,0.0,0.0
1153,74.0,160.0,150.0,0.0,0.0
1154,70.0,0.0,150.0,3.0,0.0
1155,77.0,160.0,150.0,0.0,0.0
1156,65.0,0.0,150.0,3.0,0.0
1157,74.0,160.0,150.0,0.0,0.0
1158,70.0,0.0,150.0,3.0,0.0
1159,69.0,160.0,480.0,3.0,0.0
1160,65.0,0.0,480.0,3.0,0.0
1161,72.0,160.0,150.0,0.0,0.0
1162,77.0,160.0,150.0,0.0,0.0
1163,79.0,0.0,150.0,0.0,0.0
1164,81.0,160.0,150.0,0.0,0.0
1165,77.0,160.0,150.0,0.0,0.0
1166,84.0,480.0,150.0,0.0,0.0
1167,69.0,0.0,480.0,2.0,0.0
1168,62.0,0.0,480.0,3.0,0.0
1169,72.0,480.0,480.0,1.0,0.0
1170,78.0,0.0,480.0,0.0,0.0
1171,79.0,960.0,480.0,0.0,0.0
1172,67.0,0.0,480.0,2.0,0.0
1173,55.0,0.0,480.0,3.0,0.0
1174,76.0,0.0,960.0,0.0,0.0
1175,70.0,0.0,15.0,1.0,0.0
1176,60.0,120.0,960.0,3.0,0.0
1177,67.0,0.0,960.0,2.0,0.0
1178,58.0,0.0,960.0,2.0,0.0
1179,70.0,120.0,120.0,0.0,0.0
1180,48.0,120.0,960.0,3.0,0.0
1181,72.0,120.0,120.0,0.0,0.0
1182,70.0,120.0,120.0,0.0,0.0
1183,69.0,120.0,120.0,0.0,0.0
1184,70.0,120.0,120.0,0.0,0.0
1185,79.0,120.0,120.0,0.0,0.0
1186,77.0,120.0,120.0,0.0,0.0
1187,76.0,0.0,120.0,0.0,0.0
1188,77.0,120.0,120.0,0.0,0.0
1189,57.0,120.0,480.0,2.0,0.0
1190,53.0,0.0,480.0,3.0,0.0
1191,72.0,120.0,120.0,0.0,0.0
1192,77.0,120.0,120.0,0.0,0.0
1193,81.0,0.0,120.0,0.0,0.0
1194,84.0,120.0,120.0,0.0,0.0
1195,89.0,120.0,120.0,0.0,0.0
1196,93.0,120.0,120.0,0.0,0.0
1197,91.0,480.0,120.0,0.0,0.0
1198,74.0,0.0,480.0,3.0,0.0
1199,81.0,480.0,480.0,2.0,0.0
1200,90.0,0.0,480.0,0.0,0.0
1201,84.0,0.0,480.0,1.0,0.0
1202,67.0,960.0,480.0,3.0,0.0
1203,91.0,0.0,480.0,0.0,0.0
1204,88.0,0.0,960.0,0.0,0.0
1205,72.0,120.0,960.0,3.0,0.0
1206,82.0,0.0,15.0,1.0,0.0
1207,79.0,0.0,15.0,2.0,0.0
1208,60.0,0.0,960.0,3.0,0.0
1209,82.0,120.0,120.0,0.0,0.0
1210,67.0,0.0,960.0,2.0,0.0
1211,70.0,0.0,960.0,2.0,0.0
1212,84.0,120.0,120.0,0.0,0.0
1213,82.0,120.0,120.0,0.0,0.0
1214,81.0,120.0,120.0,0.0,0.0
1215,82.0,120.0,120.0,0.0,0.0
1216,91.0,120.0,120.0,0.0,0.0
1217,89.0,120.0,120.0,0.0,0.0
1218,88.0,120.0,120.0,0.0,0.0
1219,89.0,120.0,120.0,0.0,0.0
1220,65.0,120.0,480.0,3.0,0.0
1221,69.0,0.0,480.0,2.0,0.0
1222,84.0,120.0,120.0,0.0,0.0
1223,81.0,120.0,120.0,0.0,0.0
1224,77.0,0.0,120.0,0.0,0.0
1225,72.0,120.0,120.0,0.0,0.0
1226,77.0,120.0,120.0,0.0,0.0
1227,72.0,120.0,120.0,0.0,0.0
1228,69.0,120.0,120.0,0.0,0.0
1229,70.0,120.0,120.0,0.0,0.0
1230,58.0,0.0,960.0,2.0,0.0
1231,48.0,120.0,960.0,3.0,0.0
1232,72.0,120.0,120.0,0.0,0.0
1233,70.0,120.0,120.0,0.0,0.0
1234,69.0,120.0,120.0,0.0,0.0
1235,70.0,120.0,120.0,0.0,0.0
1236,79.0,120.0,120.0,0.0,0.0
1237,77.0,120.0,120.0,0.0,0.0
1238,76.0,0.0,120.0,0.0,0.0
1239,53.0,120.0,480.0,3.0,0.0
1240,57.0,0.0,480.0,2.0,0.0
1241,77.0,120.0,120.0,0.0,0.0
1242,72.0,120.0,120.0,0.0,0.0
1243,69.0,120.0,120.0,0.0,0.0
1244,65.0,0.0,120.0,0.0,0.0
1245,60.0,120.0,120.0,0.0,0.0
1246,65.0,120.0,120.0,0.0,0.0
1247,60.0,120.0,120.0,0.0,0.0
1248,57.0,120.0,120.0,0.0,0.0
1249,46.0,120.0,120.0,3.0,0.0
1250,48.0,120.0,120.0,3.0,0.0
1251,46.0,120.0,120.0,3.0,0.0
1252,45.0,120.0,120.0,3.0,0.0
1253,60.0,120.0,480.0,1.0,0.0
1254,46.0,120.0,120.0,3.0,0.0
1255,67.0,0.0,480.0,1.0,0.0
1256,64.0,0.0,480.0,1.0,0.0
1257,70.0,0.0,480.0,0.0,0.0
1258,48.0,120.0,120.0,3.0,0.0
1259,50.0,120.0,120.0,3.0,0.0
1260,52.0,0.0,120.0,3.0,0.0
1261,53.0,120.0,120.0,3.0,0.0
1262,55.0,120.0,120.0,3.0,0.0
1263,57.0,120.0,120.0,3.0,0.0
1264,58.0,120.0,120.0,3.0,0.0
1265,70.0,0.0,480.0,0.0,0.0
1266,60.0,120.0,120.0,3.0,0.0
1267,67.0,0.0,480.0,1.0,0.0
1268,64.0,0.0,480.0,1.0,0.0
1269,58.0,120.0,120.0,3.0,0.0
1270,57.0,120.0,120.0,3.0,0.0
1271,55.0,120.0,120.0,3.0,0.0
1272,53.0,120.0,120.0,3.0,0.0
1273,52.0,120.0,120.0,3.0,0.0
1274,50.0,120.0,120.0,3.0,0.0
1275,48.0,120.0,120.0,3.0,0.0
1276,72.0,0.0,480.0,0.0,0.0
1277,70.0,0.0,480.0,1.0,0.0
1278,67.0,0.0,480.0,1.0,0.0
1279,64.0,120.0,480.0,1.0,0.0
1280,50.0,120.0,120.0,3.0,0.0
1281,48.0,120.0,120.0,3.0,0.0
1282,50.0,120.0,120.0,3.0,0.0
1283,52.0,0.0,120.0,3.0,0.0
1284,53.0,120.0,120.0,3.0,0.0
1285,55.0,120.0,120.0,3.0,0.0
1286,57.0,120.0,120.0,3.0,0.0
1287,58.0,120.0,120.0,3.0,0.0
1288,63.0,0.0,480.0,1.0,0.0
1289,65.0,0.0,480.0,1.0,0.0
1290,69.0,120.0,480.0,1.0,0.0
1291,60.0,120.0,120.0,3.0,0.0
1292,61.0,120.0,120.0,3.0,0.0
1293,63.0,120.0,120.0,3.0,0.0
1294,65.0,0.0,120.0,3.0,0.0
1295,66.0,120.0,120.0,3.0,0.0
1296,65.0,120.0,120.0,3.0,0.0
1297,63.0,120.0,120.0,3.0,0.0
1298,61.0,120.0,120.0,3.0,0.0
1299,73.0,120.0,360.0,0.0,0.0
1300,65.0,120.0,120.0,3.0,0.0
1301,63.0,120.0,120.0,3.0,0.0
1302,61.0,0.0,120.0,3.0,0.0
1303,75.0,0.0,120.0,0.0,0.0
1304,60.0,240.0,120.0,3.0,0.0
1305,77.0,224.0,480.0,0.0,0.0
1306,46.0,0.0,1920.0,3.0,0.0
1307,58.0,240.0,240.0,3.0,0.0
1308,58.0,240.0,450.0,2.0,0.0
1309,61.0,16.0,450.0,2.0,0.0
1310,70.0,0.0,480.0,0.0,0.0
1311,58.0,256.0,450.0,2.0,0.0
1312,65.0,208.0,15.0,1.0,0.0
1313,69.0,208.0,480.0,0.0,0.0
1314,63.0,16.0,450.0,2.0,0.0
1315,58.0,256.0,450.0,2.0,0.0
1316,65.0,0.0,480.0,1.0,0.0
1317,61.0,16.0,450.0,2.0,0.0
1318,70.0,688.0,480.0,0.0,0.0
1319,58.0,0.0,240.0,2.0,0.0
1320,51.0,0.0,1440.0,3.0,0.0
1321,78.0,208.0,1440.0,0.0,0.0
1322,58.0,256.0,450.0,2.0,0.0
1323,63.0,224.0,450.0,2.0,0.0
1324,58.0,256.0,450.0,2.0,0.0
1325,63.0,16.0,450.0,2.0,0.0
1326,58.0,256.0,450.0,2.0,0.0
1327,66.0,0.0,15.0,1.0,0.0
1328,70.0,0.0,15.0,1.0,0.0
1329,49.0,0.0,480.0,3.0,0.0
1330,61.0,16.0,450.0,2.0,0.0
1331,78.0,0.0,480.0,0.0,0.0
1332,58.0,80.0,240.0,2.0,0.0
1333,75.0,0.0,960.0,1.0,0.0
1334,48.0,80.0,480.0,3.0,0.0
1335,60.0,16.0,450.0,2.0,0.0
1336,78.0,80.0,90.0,0.0,0.0
1337,80.0,80.0,90.0,0.0,0.0
1338,78.0,80.0,90.0,0.0,0.0
1339,80.0,80.0,90.0,0.0,0.0
1340,56.0,32.0,450.0,2.0,0.0
1341,78.0,64.0,90.0,0.0,0.0
1342,80.0,0.0,90.0,0.0,0.0
1343,78.0,80.0,90.0,0.0,0.0
1344,58.0,0.0,240.0,2.0,0.0
1345,46.0,208.0,480.0,3.0,0.0
1346,80.0,48.0,90.0,0.0,0.0
1347,78.0,120.0,90.0,0.0,0.0
1348,56.0,272.0,450.0,2.0,0.0
1349,77.0,120.0,120.0,0.0,0.0
1350,78.0,0.0,120.0,0.0,0.0
1351,72.0,0.0,480.0,1.0,0.0
1352,80.0,240.0,720.0,0.0,0.0
1353,44.0,224.0,480.0,3.0,0.0
1354,56.0,16.0,450.0,2.0,0.0
1355,68.0,0.0,480.0,1.0,0.0
1356,48.0,0.0,480.0,3.0,0.0
1357,75.0,0.0,240.0,0.0,0.0
1358,60.0,240.0,240.0,2.0,0.0
1359,61.0,0.0,480.0,2.0,0.0
1360,77.0,0.0,240.0,0.0,0.0
1361,49.0,120.0,480.0,3.0,0.0
1362,80.0,120.0,120.0,1.0,0.0
1363,77.0,120.0,120.0,1.0,0.0
1364,80.0,0.0,120.0,1.0,0.0
1365,77.0,120.0,120.0,1.0,0.0
1366,80.0,120.0,120.0,1.0,0.0
1367,77.0,120.0,120.0,1.0,0.0
1368,80.0,120.0,120.0,1.0,0.0
1369,77.0,120.0,120.0,1.0,0.0
1370,72.0,120.0,480.0,3.0,0.0
1371,80.0,120.0,120.0,1.0,0.0
1372,77.0,120.0,120.0,1.0,0.0
1373,80.0,0.0,120.0,1.0,0.0
1374,77.0,120.0,120.0,1.0,0.0
1375,80.0,120.0,120.0,1.0,0.0
1376,77.0,120.0,120.0,1.0,0.0
1377,80.0,120.0,120.0,1.0,0.0
1378,77.0,120.0,120.0,1.0,0.0
1379,71.0,120.0,480.0,3.0,0.0
1380,79.0,120.0,120.0,1.0,0.0
1381,77.0,120.0,120.0,1.0,0.0
1382,79.0,0.0,120.0,1.0,0.0
1383,51.0,120.0,360.0,3.0,0.0
1384,75.0,120.0,120.0,1.0,0.0
1385,79.0,120.0,120.0,1.0,0.0
1386,75.0,0.0,120.0,1.0,0.0
1387,53.0,0.0,120.0,3.0,0.0
1388,79.0,120.0,120.0,1.0,0.0
1389,55.0,120.0,480.0,3.0,0.0
1390,75.0,120.0,120.0,1.0,0.0
1391,79.0,120.0,120.0,1.0,0.0
1392,75.0,120.0,120.0,1.0,0.0
1393,79.0,0.0,120.0,1.0,0.0
1394,87.0,120.0,360.0,0.0,0.0
1395,75.0,120.0,120.0,1.0,0.0
1396,79.0,120.0,120.0,1.0,0.0
1397,75.0,0.0,120.0,1.0,0.0
1398,89.0,240.0,120.0,0.0,0.0
1399,79.0,0.0,480.0,1.0,0.0
1400,48.0,0.0,15.0,3.0,0.0
1401,60.0,240.0,240.0,3.0,0.0
1402,91.0,0.0,480.0,0.0,0.0
1403,67.0,0.0,120.0,2.0,0.0
1404,63.0,0.0,15.0,2.0,0.0
1405,60.0,0.0,240.0,3.0,0.0
1406,67.0,240.0,120.0,2.0,0.0
1407,72.0,240.0,480.0,1.0,0.0
1408,63.0,0.0,240.0,2.0,0.0
1409,84.0,0.0,480.0,0.0,0.0
1410,60.0,0.0,240.0,3.0,0.0
1411,67.0,240.0,120.0,2.0,0.0
1412,63.0,0.0,240.0,2.0,0.0
1413,60.0,0.0,240.0,3.0,0.0
1414,67.0,0.0,120.0,2.0,0.0
1415,62.0,0.0,240.0,3.0,0.0
1416,71.0,240.0,480.0,1.0,0.0
1417,83.0,0.0,480.0,0.0,0.0
1418,65.0,240.0,240.0,2.0,0.0
1419,67.0,0.0,120.0,2.0,0.0
1420,62.0,0.0,240.0,3.0,0.0
1421,65.0,0.0,240.0,2.0,0.0
1422,67.0,0.0,120.0,2.0,0.0
1423,72.0,0.0,480.0,1.0,0.0
1424,60.0,0.0,240.0,3.0,0.0
1425,67.0,240.0,120.0,2.0,0.0
1426,60.0,0.0,240.0,3.0,0.0
1427,63.0,0.0,15.0,2.0,0.0
1428,67.0,0.0,120.0,2.0,0.0
1429,69.0,120.0,480.0,2.0,0.0
1430,66.0,0.0,480.0,3.0,0.0
1431,84.0,120.0,15.0,0.0,0.0
1432,87.0,239.0,15.0,0.0,0.0
1433,86.0,120.0,120.0,0.0,0.0
1434,84.0,0.0,120.0,0.0,0.0
1435,84.0,120.0,120.0,0.0,0.0
1436,87.0,120.0,120.0,0.0,0.0
1437,86.0,120.0,120.0,0.0,0.0
1438,84.0,120.0,120.0,0.0,0.0
1439,84.0,120.0,120.0,0.0,0.0
1440,87.0,120.0,120.0,0.0,0.0
1441,86.0,120.0,120.0,0.0,0.0
1442,84.0,120.0,120.0,0.0,0.0
1443,84.0,120.0,120.0,0.0,0.0
1444,69.0,0.0,360.0,3.0,0.0
1445,87.0,120.0,120.0,0.0,0.0
1446,86.0,120.0,120.0,0.0,0.0
1447,84.0,0.0,120.0,0.0,0.0
1448,70.0,0.0,120.0,3.0,0.0
1449,84.0,120.0,120.0,0.0,0.0
1450,66.0,120.0,15.0,3.0,0.0
1451,69.0,0.0,480.0,3.0,0.0
1452,72.0,0.0,480.0,3.0,0.0
1453,87.0,120.0,120.0,0.0,0.0
1454,86.0,120.0,120.0,0.0,0.0
1455,84.0,120.0,120.0,0.0,0.0
1456,87.0,120.0,120.0,0.0,0.0
1457,84.0,120.0,120.0,0.0,0.0
1458,82.0,120.0,120.0,0.0,0.0
1459,81.0,120.0,120.0,0.0,0.0
1460,87.0,120.0,120.0,0.0,0.0
1461,84.0,120.0,120.0,0.0,0.0
1462,82.0,120.0,120.0,0.0,0.0
1463,81.0,120.0,120.0,0.0,0.0
1464,86.0,120.0,120.0,0.0,0.0
1465,69.0,0.0,360.0,3.0,0.0
1466,66.0,0.0,480.0,3.0,0.0
1467,84.0,120.0,120.0,0.0,0.0
1468,82.0,120.0,120.0,0.0,0.0
1469,81.0,120.0,120.0,0.0,0.0
1470,74.0,0.0,120.0,3.0,0.0
1471,70.0,120.0,240.0,3.0,0.0
1472,67.0,0.0,240.0,3.0,0.0
1473,82.0,120.0,120.0,0.0,0.0
1474,86.0,0.0,120.0,0.0,0.0
1475,84.0,120.0,120.0,0.0,0.0
1476,82.0,120.0,120.0,0.0,0.0
1477,84.0,120.0,120.0,0.0,0.0
1478,55.0,0.0,480.0,3.0,0.0
1479,58.0,120.0,360.0,3.0,0.0
1480,82.0,120.0,120.0,0.0,0.0
1481,81.0,0.0,120.0,0.0,0.0
1482,79.0,120.0,120.0,0.0,0.0
1483,62.0,0.0,120.0,3.0,0.0
1484,78.0,120.0,120.0,0.0,0.0
1485,60.0,120.0,240.0,3.0,0.0
1486,57.0,0.0,240.0,3.0,0.0
1487,81.0,0.0,120.0,0.0,0.0
1488,79.0,120.0,120.0,0.0,0.0
1489,78.0,120.0,120.0,0.0,0.0
1490,66.0,0.0,480.0,3.0,0.0
1491,69.0,0.0,360.0,3.0,0.0
1492,86.0,120.0,120.0,0.0,0.0
1493,84.0,120.0,120.0,0.0,0.0
1494,82.0,120.0,120.0,0.0,0.0
1495,81.0,120.0,120.0,0.0,0.0
1496,74.0,0.0,120.0,3.0,0.0
1497,82.0,120.0,120.0,0.0,0.0
1498,70.0,0.0,240.0,3.0,0.0
1499,67.0,0.0,240.0,3.0,0.0
1500,86.0,120.0,120.0,0.0,0.0
1501,84.0,120.0,120.0,0.0,0.0
1502,82.0,120.0,120.0,0.0,0.0
1503,58.0,120.0,360.0,3.0,0.0
1504,84.0,120.0,120.0,0.0,0.0
1505,82.0,120.0,120.0,0.0,0.0
1506,81.0,0.0,120.0,0.0,0.0
1507,62.0,120.0,120.0,3.0,0.0
1508,79.0,0.0,120.0,0.0,0.0
1509,76.0,120.0,120.0,0.0,0.0
1510,55.0,0.0,15.0,3.0,0.0
1511,58.0,0.0,240.0,3.0,0.0
1512,79.0,0.0,120.0,0.0,0.0
1513,77.0,120.0,120.0,0.0,0.0
1514,76.0,120.0,120.0,0.0,0.0
1515,67.0,120.0,360.0,3.0,0.0
1516,84.0,120.0,120.0,0.0,0.0
1517,64.0,113.0,480.0,3.0,0.0
1518,82.0,120.0,120.0,0.0,0.0
1519,80.0,0.0,120.0,0.0,0.0
1520,79.0,0.0,120.0,0.0,0.0
1521,72.0,7.0,120.0,3.0,0.0
1522,65.0,120.0,240.0,3.0,0.0
1523,68.0,0.0,240.0,3.0,0.0
1524,80.0,120.0,120.0,0.0,0.0
1525,84.0,0.0,120.0,0.0,0.0
1526,82.0,120.0,120.0,0.0,0.0
1527,80.0,120.0,120.0,0.0,0.0
1528,53.0,120.0,480.0,3.0,0.0
1529,56.0,120.0,360.0,3.0,0.0
1530,82.0,120.0,120.0,0.0,0.0
1531,80.0,120.0,120.0,0.0,0.0
1532,79.0,0.0,120.0,0.0,0.0
1533,77.0,0.0,120.0,0.0,0.0
1534,60.0,0.0,120.0,3.0,0.0
1535,58.0,0.0,240.0,3.0,0.0
1536,55.0,0.0,240.0,3.0,0.0
1537,76.0,120.0,120.0,0.0,0.0
1538,79.0,120.0,120.0,0.0,0.0
1539,77.0,120.0,120.0,0.0,0.0
1540,76.0,120.0,120.0,0.0,0.0
1541,67.0,120.0,360.0,3.0,0.0
1542,64.0,120.0,480.0,3.0,0.0
1543,84.0,120.0,120.0,0.0,0.0
1544,82.0,120.0,120.0,0.0,0.0
1545,80.0,0.0,120.0,0.0,0.0
1546,79.0,0.0,120.0,0.0,0.0
1547,72.0,0.0,120.0,3.0,0.0
1548,80.0,120.0,120.0,0.0,0.0
1549,68.0,0.0,240.0,3.0,0.0
1550,65.0,120.0,240.0,3.0,0.0
1551,84.0,0.0,120.0,0.0,0.0
1552,82.0,120.0,120.0,0.0,0.0
1553,80.0,120.0,120.0,0.0,0.0
1554,56.0,0.0,360.0,3.0,0.0
1555,82.0,120.0,120.0,0.0,0.0
1556,53.0,15.0,480.0,3.0,0.0
1557,80.0,120.0,120.0,0.0,0.0
1558,79.0,105.0,120.0,0.0,0.0
1559,60.0,120.0,120.0,3.0,0.0
1560,77.0,0.0,120.0,0.0,0.0
1561,74.0,120.0,120.0,0.0,0.0
1562,58.0,0.0,240.0,3.0,0.0
1563,56.0,120.0,240.0,3.0,0.0
1564,53.0,0.0,240.0,3.0,0.0
1565,77.0,0.0,120.0,0.0,0.0
1566,75.0,120.0,120.0,0.0,0.0
1567,74.0,120.0,120.0,0.0,0.0
1568,62.0,113.0,480.0,3.0,0.0
1569,65.0,0.0,360.0,3.0,0.0
1570,82.0,120.0,120.0,0.0,0.0
1571,80.0,120.0,120.0,0.0,0.0
1572,79.0,120.0,120.0,0.0,0.0
1573,70.0,7.0,120.0,3.0,0.0
1574,77.0,0.0,120.0,0.0,0.0
1575,67.0,120.0,240.0,3.0,0.0
1576,63.0,0.0,240.0,3.0,0.0
1577,75.0,120.0,120.0,0.0,0.0
1578,79.0,0.0,120.0,0.0,0.0
1579,77.0,120.0,120.0,0.0,0.0
1580,75.0,120.0,120.0,0.0,0.0
1581,82.0,120.0,120.0,0.0,0.0
1582,53.0,0.0,360.0,3.0,0.0
1583,50.0,113.0,480.0,3.0,0.0
1584,80.0,120.0,120.0,0.0,0.0
1585,79.0,120.0,120.0,0.0,0.0
1586,58.0,7.0,120.0,3.0,0.0
1587,77.0,0.0,120.0,0.0,0.0
1588,55.0,0.0,240.0,3.0,0.0
1589,75.0,120.0,120.0,0.0,0.0
1590,51.0,120.0,240.0,3.0,0.0
1591,79.0,0.0,120.0,0.0,0.0
1592,77.0,120.0,120.0,0.0,0.0
1593,75.0,120.0,120.0,0.0,0.0
1594,70.0,0.0,120.0,3.0,0.0
1595,82.0,120.0,120.0,0.0,0.0
1596,80.0,120.0,120.0,0.0,0.0
1597,68.0,0.0,120.0,3.0,0.0
1598,79.0,120.0,120.0,0.0,0.0
1599,67.0,0.0,120.0,3.0,0.0
1600,65.0,120.0,120.0,3.0,0.0
1601,77.0,0.0,120.0,0.0,0.0
1602,75.0,120.0,120.0,0.0,0.0
1603,63.0,0.0,240.0,3.0,0.0
1604,79.0,120.0,120.0,0.0,0.0
1605,77.0,120.0,120.0,0.0,0.0
1606,75.0,120.0,120.0,0.0,0.0
1607,87.0,0.0,120.0,0.0,0.0
1608,75.0,120.0,120.0,3.0,0.0
1609,86.0,120.0,120.0,0.0,0.0
1610,74.0,0.0,120.0,3.0,0.0
1611,72.0,120.0,120.0,3.0,0.0
1612,84.0,0.0,120.0,0.0,0.0
1613,82.0,120.0,120.0,0.0,0.0
1614,70.0,0.0,120.0,3.0,0.0
1615,69.0,120.0,240.0,3.0,0.0
1616,81.0,120.0,120.0,0.0,0.0
1617,84.0,0.0,120.0,0.0,0.0
1618,82.0,120.0,120.0,0.0,0.0
1619,81.0,120.0,120.0,0.0,0.0
1620,75.0,120.0,120.0,3.0,0.0
1621,87.0,0.0,120.0,0.0,0.0
1622,86.0,0.0,120.0,0.0,0.0
1623,74.0,120.0,120.0,3.0,0.0
1624,72.0,120.0,120.0,3.0,0.0
1625,84.0,0.0,120.0,0.0,0.0
1626,82.0,120.0,120.0,0.0,0.0
1627,70.0,0.0,120.0,3.0,0.0
1628,69.0,120.0,240.0,3.0,0.0
1629,81.0,120.0,120.0,0.0,0.0
1630,84.0,0.0,120.0,0.0,0.0
1631,82.0,120.0,120.0,0.0,0.0
1632,81.0,120.0,120.0,0.0,0.0
1633,91.0,0.0,120.0,0.0,0.0
1634,79.0,120.0,120.0,3.0,0.0
1635,89.0,120.0,120.0,0.0,0.0
1636,77.0,0.0,120.0,3.0,0.0
1637,87.0,0.0,120.0,0.0,0.0
1638,75.0,120.0,120.0,3.0,0.0
1639,86.0,120.0,120.0,0.0,0.0
1640,74.0,0.0,120.0,3.0,0.0
1641,84.0,0.0,120.0,0.0,0.0
1642,72.0,120.0,120.0,3.0,0.0
1643,87.0,0.0,120.0,0.0,0.0
1644,75.0,120.0,120.0,3.0,0.0
1645,86.0,120.0,120.0,0.0,0.0
1646,74.0,0.0,120.0,3.0,0.0
1647,72.0,120.0,120.0,3.0,0.0
1648,84.0,0.0,120.0,0.0,0.0
1649,70.0,0.0,120.0,3.0,0.0
1650,82.0,120.0,120.0,0.0,0.0
1651,69.0,120.0,120.0,3.0,0.0
1652,81.0,0.0,120.0,0.0,0.0
1653,67.0,0.0,120.0,3.0,0.0
1654,79.0,120.0,120.0,0.0,0.0
1655,65.0,0.0,120.0,3.0,0.0
1656,77.0,120.0,120.0,0.0,0.0
1657,75.0,0.0,120.0,0.0,0.0
1658,63.0,120.0,120.0,3.0,0.0
1659,79.0,0.0,120.0,0.0,0.0
1660,67.0,120.0,120.0,3.0,0.0
1661,65.0,0.0,120.0,3.0,0.0
1662,77.0,120.0,120.0,0.0,0.0
1663,63.0,0.0,120.0,3.0,0.0
1664,75.0,120.0,120.0,0.0,0.0
1665,62.0,120.0,120.0,3.0,0.0
1666,74.0,0.0,120.0,0.0,0.0
1667,72.0,112.0,120.0,0.0,0.0
1668,60.0,8.0,120.0,3.0,0.0
1669,58.0,0.0,120.0,3.0,0.0
1670,70.0,120.0,120.0,0.0,0.0
1671,57.0,120.0,120.0,3.0,0.0
1672,69.0,0.0,120.0,0.0,0.0
1673,75.0,0.0,120.0,0.0,0.0
1674,63.0,120.0,120.0,3.0,0.0
1675,62.0,106.0,120.0,3.0,0.0
1676,74.0,0.0,120.0,0.0,0.0
1677,72.0,14.0,120.0,0.0,0.0
1678,60.0,120.0,120.0,3.0,0.0
1679,70.0,0.0,120.0,0.0,0.0
1680,58.0,120.0,120.0,3.0,0.0
1681,57.0,120.0,120.0,3.0,0.0
1682,69.0,0.0,120.0,0.0,0.0
1683,67.0,0.0,120.0,0.0,0.0
1684,55.0,120.0,120.0,3.0,0.0
1685,53.0,0.0,120.0,3.0,0.0
1686,65.0,120.0,120.0,0.0,0.0
1687,52.0,1920.0,120.0,3.0,0.0
1688,64.0,0.0,120.0,0.0,0.0
1689,65.0,0.0,1920.0,0.0,0.0
1690,53.0,0.0,1920.0,3.0,0.0
1691,69.0,160.0,960.0,0.0,0.0
1692,57.0,0.0,960.0,3.0,0.0
1693,60.0,160.0,150.0,3.0,0.0
1694,65.0,480.0,1920.0,1.0,0.0
1695,69.0,0.0,1440.0,1.0,0.0
1696,72.0,0.0,1440.0,0.0,0.0
1697,62.0,160.0,150.0,3.0,0.0
1698,60.0,160.0,150.0,3.0,0.0
1699,58.0,160.0,150.0,3.0,0.0
1700,57.0,160.0,150.0,3.0,0.0
1701,55.0,160.0,150.0,3.0,0.0
1702,53.0,160.0,150.0,3.0,0.0
1703,55.0,160.0,150.0,3.0,0.0
1704,53.0,160.0,150.0,3.0,0.0
1705,74.0,0.0,360.0,0.0,0.0
1706,70.0,120.0,360.0,1.0,0.0
1707,51.0,160.0,150.0,3.0,0.0
1708,50.0,40.0,150.0,3.0,0.0
1709,48.0,0.0,150.0,3.0,0.0
1710,75.0,0.0,120.0,0.0,0.0
1711,72.0,0.0,120.0,1.0,0.0
1712,46.0,240.0,1920.0,3.0,0.0
1713,77.0,240.0,480.0,0.0,0.0
1714,58.0,192.0,480.0,2.0,0.0
1715,70.0,0.0,480.0,0.0,0.0
1716,65.0,240.0,480.0,1.0,0.0
1717,62.0,48.0,420.0,2.0,0.0
1718,63.0,48.0,420.0,2.0,0.0
1719,69.0,0.0,480.0,0.0,0.0
1720,58.0,192.0,15.0,2.0,0.0
1721,62.0,48.0,420.0,2.0,0.0
1722,70.0,0.0,480.0,0.0,0.0
1723,65.0,240.0,15.0,1.0,0.0
1724,58.0,192.0,15.0,2.0,0.0
1725,41.0,240.0,1920.0,3.0,0.0
1726,63.0,0.0,1440.0,1.0,0.0
1727,65.0,0.0,15.0,1.0,0.0
1728,69.0,0.0,1440.0,1.0,0.0
1729,75.0,0.0,1440.0,0.0,0.0
1730,60.0,288.0,420.0,2.0,0.0
1731,53.0,192.0,480.0,2.0,0.0
1732,60.0,288.0,420.0,2.0,0.0
1733,60.0,48.0,420.0,2.0,0.0
1734,53.0,192.0,15.0,2.0,0.0
1735,72.0,0.0,480.0,0.0,0.0
1736,57.0,48.0,420.0,2.0,0.0
1737,65.0,240.0,15.0,1.0,0.0
1738,60.0,0.0,480.0,1.0,0.0
1739,53.0,240.0,480.0,2.0,0.0
1740,62.0,0.0,480.0,1.0,0.0
1741,65.0,0.0,480.0,1.0,0.0
1742,74.0,192.0,480.0,0.0,0.0
1743,58.0,288.0,420.0,2.0,0.0
1744,67.0,192.0,480.0,1.0,0.0
1745,79.0,0.0,480.0,0.0,0.0
1746,51.0,0.0,480.0,3.0,0.0
1747,58.0,288.0,420.0,2.0,0.0
1748,50.0,0.0,480.0,3.0,0.0
1749,77.0,0.0,480.0,0.0,0.0
1750,65.0,0.0,480.0,1.0,0.0
1751,58.0,288.0,420.0,2.0,0.0
1752,82.0,192.0,480.0,0.0,0.0
1753,70.0,0.0,480.0,1.0,0.0
1754,46.0,192.0,15.0,3.0,0.0
1755,58.0,288.0,420.0,2.0,0.0
1756,69.0,0.0,480.0,1.0,0.0
1757,53.0,0.0,480.0,2.0,0.0
1758,46.0,0.0,480.0,3.0,0.0
1759,81.0,192.0,480.0,0.0,0.0
1760,58.0,288.0,420.0,2.0,0.0
1761,46.0,0.0,480.0,3.0,0.0
1762,67.0,0.0,480.0,1.0,0.0
1763,51.0,192.0,480.0,2.0,0.0
1764,79.0,0.0,480.0,0.0,0.0
1765,58.0,288.0,420.0,2.0,0.0
1766,77.0,0.0,480.0,0.0,0.0
1767,65.0,0.0,480.0,1.0,0.0
1768,46.0,120.0,480.0,3.0,0.0
1769,50.0,0.0,480.0,2.0,0.0
1770,58.0,0.0,240.0,2.0,0.0
1771,74.0,120.0,120.0,0.0,0.0
1772,75.0,120.0,120.0,0.0,0.0
1773,74.0,120.0,120.0,0.0,0.0
1774,70.0,120.0,120.0,0.0,0.0
1775,75.0,120.0,120.0,0.0,0.0
1776,77.0,120.0,120.0,0.0,0.0
1777,75.0,120.0,120.0,0.0,0.0
1778,72.0,120.0,120.0,0.0,0.0
1779,69.0,480.0,480.0,0.0,0.0
1780,53.0,120.0,120.0,3.0,0.0
1781,57.0,120.0,120.0,3.0,0.0
1782,60.0,120.0,120.0,3.0,0.0
1783,63.0,0.0,120.0,3.0,0.0
1784,51.0,120.0,480.0,3.0,0.0
1785,75.0,120.0,120.0,0.0,0.0
1786,77.0,120.0,120.0,0.0,0.0
1787,75.0,120.0,120.0,0.0,0.0
1788,72.0,120.0,120.0,0.0,0.0
1789,77.0,120.0,120.0,0.0,0.0
1790,79.0,120.0,120.0,0.0,0.0
1791,77.0,120.0,120.0,0.0,0.0
1792,74.0,120.0,120.0,0.0,0.0
1793,70.0,0.0,480.0,0.0,0.0
1794,50.0,120.0,120.0,3.0,0.0
1795,53.0,120.0,120.0,3.0,0.0
1796,58.0,120.0,120.0,3.0,0.0
1797,62.0,480.0,120.0,3.0,0.0
1798,50.0,120.0,480.0,3.0,0.0
1799,74.0,120.0,120.0,0.0,0.0
1800,75.0,120.0,120.0,0.0,0.0
1801,74.0,120.0,120.0,0.0,0.0
1802,70.0,120.0,120.0,0.0,0.0
1803,77.0,120.0,120.0,0.0,0.0
1804,79.0,120.0,120.0,0.0,0.0
1805,77.0,120.0,120.0,0.0,0.0
1806,74.0,120.0,120.0,0.0,0.0
1807,71.0,480.0,480.0,0.0,0.0
1808,55.0,120.0,120.0,3.0,0.0
1809,59.0,120.0,120.0,3.0,0.0
1810,62.0,120.0,120.0,3.0,0.0
1811,65.0,0.0,120.0,3.0,0.0
1812,53.0,120.0,480.0,3.0,0.0
1813,77.0,120.0,120.0,0.0,0.0
1814,79.0,120.0,120.0,0.0,0.0
1815,77.0,120.0,120.0,0.0,0.0
1816,74.0,120.0,120.0,0.0,0.0
1817,79.0,120.0,120.0,0.0,0.0
1818,80.0,120.0,120.0,0.0,0.0
1819,79.0,120.0,120.0,0.0,0.0
1820,75.0,120.0,120.0,0.0,0.0
1821,51.0,120.0,120.0,3.0,0.0
1822,55.0,120.0,120.0,3.0,0.0
1823,60.0,120.0,120.0,3.0,0.0
1824,63.0,480.0,120.0,3.0,0.0
1825,51.0,160.0,480.0,3.0,0.0
1826,48.0,160.0,480.0,3.0,0.0
1827,51.0,0.0,480.0,2.0,0.0
1828,56.0,0.0,480.0,2.0,0.0
1829,60.0,0.0,480.0,2.0,0.0
1830,92.0,160.0,150.0,0.0,0.0
1831,91.0,160.0,150.0,0.0,0.0
1832,89.0,0.0,150.0,0.0,0.0
1833,87.0,160.0,150.0,0.0,0.0
1834,49.0,0.0,960.0,3.0,0.0
1835,53.0,160.0,960.0,2.0,0.0
1836,85.0,160.0,150.0,0.0,0.0
1837,84.0,160.0,150.0,0.0,0.0
1838,82.0,160.0,150.0,0.0,0.0
1839,80.0,160.0,150.0,0.0,0.0
1840,79.0,0.0,150.0,0.0,0.0
1841,51.0,0.0,960.0,3.0,0.0
1842,61.0,0.0,15.0,2.0,0.0
1843,58.0,0.0,15.0,2.0,0.0
1844,63.0,0.0,960.0,2.0,0.0
1845,77.0,160.0,150.0,0.0,0.0
1846,75.0,160.0,150.0,0.0,0.0
1847,74.0,160.0,150.0,0.0,0.0
1848,75.0,160.0,150.0,0.0,0.0
1849,77.0,160.0,150.0,0.0,0.0
1850,79.0,0.0,150.0,0.0,0.0
1851,80.0,0.0,480.0,0.0,0.0
1852,56.0,0.0,480.0,3.0,0.0
1853,60.0,0.0,480.0,2.0,0.0
1854,72.0,480.0,480.0,2.0,0.0
1855,51.0,0.0,480.0,3.0,0.0
1856,82.0,0.0,480.0,0.0,0.0
1857,63.0,0.0,15.0,2.0,0.0
1858,75.0,0.0,15.0,2.0,0.0
1859,58.0,0.0,480.0,2.0,0.0
1860,79.0,0.0,480.0,2.0,0.0
1861,84.0,0.0,480.0,0.0,0.0
1862,80.0,0.0,480.0,2.0,0.0
1863,75.0,960.0,480.0,2.0,0.0
1864,48.0,0.0,480.0,2.0,0.0
1865,51.0,0.0,480.0,2.0,0.0
1866,56.0,0.0,480.0,2.0,0.0
1867,44.0,0.0,480.0,3.0,0.0
1868,56.0,0.0,480.0,3.0,0.0
1869,68.0,960.0,480.0,2.0,0.0
1870,63.0,0.0,480.0,2.0,0.0
1871,60.0,0.0,480.0,2.0,0.0
1872,72.0,0.0,480.0,0.0,0.0
1873,49.0,960.0,480.0,3.0,0.0
1874,58.0,0.0,480.0,2.0,0.0
1875,53.0,0.0,480.0,2.0,0.0
1876,70.0,0.0,480.0,2.0,0.0
1877,65.0,0.0,480.0,2.0,0.0
1878,73.0,0.0,480.0,0.0,0.0
1879,63.0,0.0,480.0,3.0,0.0
1880,79.0,0.0,480.0,2.0,0.0
1881,70.0,0.0,480.0,2.0,0.0
1882,82.0,0.0,480.0,0.0,0.0
1883,67.0,480.0,480.0,2.0,0.0
1884,60.0,0.0,480.0,3.0,0.0
1885,84.0,0.0,480.0,0.0,0.0
1886,69.0,0.0,480.0,2.0,0.0
1887,63.0,0.0,480.0,2.0,0.0
1888,81.0,0.0,480.0,2.0,0.0
1889,75.0,0.0,15.0,2.0,0.0
1890,85.0,0.0,480.0,0.0,0.0
1891,77.0,0.0,15.0,2.0,0.0
1892,70.0,0.0,480.0,2.0,0.0
1893,61.0,960.0,480.0,2.0,0.0
1894,65.0,0.0,15.0,2.0,0.0
1895,82.0,0.0,480.0,2.0,0.0
1896,73.0,0.0,480.0,2.0,0.0
1897,58.0,0.0,480.0,3.0,0.0
1898,65.0,0.0,480.0,2.0,0.0
1899,58.0,960.0,480.0,3.0,0.0
1900,73.0,0.0,480.0,0.0,0.0
1901,70.0,0.0,480.0,2.0,0.0
1902,61.0,0.0,480.0,2.0,0.0
1903,66.0,0.0,480.0,2.0,0.0
1904,60.0,0.0,480.0,2.0,0.0
1905,75.0,0.0,480.0,0.0,0.0
1906,72.0,0.0,480.0,2.0,0.0
1907,51.0,960.0,480.0,3.0,0.0
1908,69.0,0.0,480.0,2.0,0.0
1909,81.0,0.0,480.0,2.0,0.0
1910,65.0,0.0,480.0,3.0,0.0
1911,84.0,480.0,480.0,0.0,0.0
1912,75.0,0.0,480.0,2.0,0.0
1913,65.0,480.0,480.0,2.0,0.0
1914,80.0,0.0,480.0,2.0,0.0
1915,68.0,0.0,480.0,2.0,0.0
1916,74.0,0.0,480.0,2.0,0.0
1917,77.0,0.0,15.0,2.0,0.0
1918,58.0,0.0,480.0,3.0,0.0
1919,86.0,0.0,480.0,0.0,0.0
1920,66.0,0.0,480.0,2.0,0.0
1921,78.0,0.0,480.0,2.0,0.0
1922,75.0,0.0,480.0,2.0,0.0
1923,87.0,0.0,480.0,0.0,0.0
1924,63.0,960.0,480.0,3.0,0.0
1925,70.0,0.0,480.0,2.0,0.0
1926,66.0,0.0,480.0,2.0,0.0
1927,63.0,960.0,480.0,3.0,0.0
1928,75.0,0.0,480.0,2.0,0.0
1929,78.0,0.0,480.0,0.0,0.0
1930,56.0,0.0,480.0,3.0,0.0
1931,77.0,0.0,480.0,2.0,0.0
1932,71.0,0.0,480.0,2.0,0.0
1933,59.0,960.0,480.0,2.0,0.0
1934,65.0,0.0,480.0,2.0,0.0
1935,80.0,0.0,480.0,0.0,0.0
1936,74.0,0.0,480.0,2.0,0.0
1937,62.0,0.0,480.0,2.0,0.0
1938,86.0,480.0,480.0,0.0,0.0
1939,58.0,0.0,480.0,3.0,0.0
1940,77.0,0.0,480.0,2.0,0.0
1941,65.0,0.0,480.0,2.0,0.0
1942,80.0,0.0,480.0,2.0,0.0
1943,75.0,0.0,480.0,2.0,0.0
1944,87.0,0.0,480.0,0.0,0.0
1945,51.0,480.0,480.0,3.0,0.0
1946,58.0,0.0,480.0,2.0,0.0
1947,63.0,0.0,480.0,2.0,0.0
1948,77.0,0.0,480.0,2.0,0.0
1949,80.0,0.0,480.0,2.0,0.0
1950,62.0,960.0,480.0,2.0,0.0
1951,89.0,0.0,480.0,0.0,0.0
1952,50.0,0.0,480.0,3.0,0.0
1953,58.0,0.0,480.0,2.0,0.0
1954,74.0,0.0,480.0,2.0,0.0
1955,65.0,0.0,480.0,3.0,0.0
1956,68.0,480.0,480.0,2.0,0.0
1957,77.0,0.0,480.0,0.0,0.0
1958,79.0,0.0,480.0,0.0,0.0
1959,63.0,0.0,480.0,3.0,0.0
1960,67.0,0.0,480.0,2.0,0.0
1961,75.0,480.0,480.0,2.0,0.0
1962,62.0,0.0,480.0,3.0,0.0
1963,65.0,0.0,480.0,2.0,0.0
1964,77.0,960.0,480.0,2.0,0.0
1965,80.0,0.0,480.0,0.0,0.0
1966,77.0,0.0,480.0,0.0,0.0
1967,74.0,0.0,480.0,2.0,0.0
1968,62.0,960.0,480.0,3.0,0.0
1969,70.0,0.0,480.0,2.0,0.0
1970,65.0,0.0,480.0,2.0,0.0
1971,80.0,960.0,480.0,0.0,0.0
1972,62.0,0.0,480.0,2.0,0.0
1973,58.0,0.0,480.0,3.0,0.0
1974,70.0,0.0,480.0,2.0,0.0
1975,77.0,0.0,480.0,2.0,0.0
1976,63.0,0.0,480.0,3.0,0.0
1977,67.0,120.0,480.0,2.0,0.0
1978,79.0,0.0,480.0,0.0,0.0
1979,75.0,0.0,480.0,2.0,0.0
1980,70.0,0.0,480.0,2.0,0.0
1981,82.0,120.0,120.0,0.0,0.0
1982,84.0,120.0,120.0,0.0,0.0
1983,82.0,120.0,120.0,0.0,0.0
1984,79.0,480.0,120.0,0.0,0.0
1985,87.0,480.0,480.0,0.0,0.0
1986,79.0,0.0,480.0,2.0,0.0
1987,75.0,600.0,480.0,3.0,0.0
1988,80.0,480.0,1440.0,2.0,0.0
1989,86.0,45.0,120.0,0.0,0.0
1990,87.0,35.0,40.0,0.0,0.0
1991,86.0,40.0,40.0,0.0,0.0
1992,84.0,120.0,40.0,0.0,0.0
1993,86.0,120.0,120.0,0.0,0.0
1994,87.0,480.0,120.0,0.0,0.0
1995,89.0,0.0,480.0,0.0,0.0
1996,77.0,0.0,15.0,3.0,0.0
1997,86.0,0.0,480.0,0.0,0.0
1998,80.0,240.0,480.0,2.0,0.0
1999,83.0,0.0,360.0,0.0,0.0
2000,77.0,0.0,960.0,3.0,0.0
2001,79.0,0.0,960.0,2.0,0.0
2002,92.0,120.0,120.0,0.0,0.0
2003,91.0,120.0,120.0,0.0,0.0
2004,83.0,240.0,120.0,0.0,0.0
2005,92.0,120.0,120.0,0.0,0.0
2006,91.0,120.0,120.0,0.0,0.0
2007,83.0,0.0,15.0,0.0,0.0
2008,74.0,240.0,480.0,3.0,0.0
2009,83.0,240.0,15.0,0.0,0.0
2010,92.0,120.0,120.0,0.0,0.0
2011,91.0,120.0,120.0,0.0,0.0
2012,77.0,0.0,15.0,2.0,0.0
2013,74.0,240.0,480.0,2.0,0.0
2014,83.0,0.0,15.0,0.0,0.0
2015,92.0,120.0,120.0,0.0,0.0
2016,91.0,120.0,120.0,0.0,0.0
2017,83.0,0.0,120.0,0.0,0.0
2018,67.0,0.0,15.0,3.0,0.0
2019,75.0,240.0,480.0,2.0,0.0
2020,72.0,0.0,480.0,2.0,0.0
2021,92.0,120.0,120.0,0.0,0.0
2022,91.0,0.0,120.0,0.0,0.0
2023,84.0,120.0,15.0,0.0,0.0
2024,86.0,0.0,360.0,0.0,0.0
2025,71.0,0.0,480.0,2.0,0.0
2026,65.0,0.0,480.0,3.0,0.0
2027,74.0,240.0,480.0,2.0,0.0
2028,92.0,120.0,120.0,0.0,0.0
2029,91.0,120.0,120.0,0.0,0.0
2030,86.0,0.0,120.0,0.0,0.0
2031,87.0,5.0,360.0,0.0,0.0
2032,67.0,0.0,480.0,2.0,0.0
2033,92.0,115.0,120.0,0.0,0.0
2034,91.0,120.0,120.0,0.0,0.0
2035,87.0,120.0,120.0,0.0,0.0
2036,63.0,0.0,15.0,3.0,0.0
2037,72.0,0.0,15.0,2.0,0.0
2038,96.0,120.0,120.0,0.0,0.0
2039,67.0,0.0,480.0,2.0,0.0
2040,91.0,120.0,120.0,0.0,0.0
2041,87.0,120.0,120.0,0.0,0.0
2042,84.0,0.0,120.0,0.0,0.0
2043,72.0,0.0,480.0,2.0,0.0
2044,66.0,0.0,480.0,2.0,0.0
2045,63.0,360.0,15.0,3.0,0.0
2046,87.0,360.0,360.0,1.0,0.0
2047,84.0,0.0,240.0,1.0,0.0
2048,93.0,120.0,15.0,0.0,0.0
2049,63.0,0.0,480.0,3.0,0.0
2050,96.0,120.0,360.0,0.0,0.0
2051,65.0,360.0,480.0,2.0,0.0
2052,87.0,0.0,360.0,1.0,0.0
2053,84.0,0.0,240.0,1.0,0.0
2054,94.0,0.0,120.0,0.0,0.0
2055,72.0,0.0,15.0,2.0,0.0
2056,66.0,360.0,480.0,2.0,0.0
2057,87.0,0.0,360.0,1.0,0.0
2058,84.0,0.0,240.0,1.0,0.0
2059,93.0,120.0,15.0,0.0,0.0
2060,63.0,0.0,15.0,3.0,0.0
2061,96.0,120.0,360.0,0.0,0.0
2062,65.0,0.0,480.0,2.0,0.0
2063,72.0,0.0,15.0,2.0,0.0
2064,87.0,0.0,360.0,1.0,0.0
2065,84.0,0.0,240.0,1.0,0.0
2066,94.0,360.0,120.0,0.0,0.0
2067,72.0,0.0,15.0,2.0,0.0
2068,66.0,0.0,480.0,2.0,0.0
2069,63.0,0.0,15.0,3.0,0.0
2070,87.0,0.0,360.0,1.0,0.0
2071,84.0,0.0,240.0,1.0,0.0
2072,93.0,120.0,15.0,0.0,0.0
2073,96.0,120.0,360.0,0.0,0.0
2074,63.0,360.0,480.0,3.0,0.0
2075,72.0,360.0,15.0,2.0,0.0
2076,65.0,0.0,480.0,2.0,0.0
2077,87.0,0.0,360.0,1.0,0.0
2078,84.0,0.0,240.0,1.0,0.0
2079,96.0,0.0,120.0,0.0,0.0
2080,89.0,120.0,360.0,0.0,0.0
2081,87.0,0.0,360.0,1.0,0.0
2082,84.0,360.0,240.0,1.0,0.0
2083,89.0,0.0,120.0,0.0,0.0
2084,91.0,120.0,360.0,0.0,0.0
2085,72.0,0.0,480.0,2.0,0.0
2086,67.0,0.0,480.0,2.0,0.0
2087,63.0,0.0,480.0,3.0,0.0
2088,87.0,360.0,360.0,1.0,0.0
2089,84.0,0.0,240.0,1.0,0.0
2090,91.0,0.0,120.0,0.0,0.0
2091,72.0,0.0,480.0,2.0,0.0
2092,66.0,0.0,480.0,2.0,0.0
2093,63.0,0.0,480.0,3.0,0.0
2094,87.0,360.0,360.0,1.0,0.0
2095,84.0,0.0,240.0,1.0,0.0
2096,93.0,120.0,15.0,0.0,0.0
2097,72.0,0.0,480.0,2.0,0.0
2098,96.0,120.0,360.0,0.0,0.0
2099,65.0,0.0,480.0,2.0,0.0
2100,87.0,0.0,360.0,1.0,0.0
2101,84.0,0.0,240.0,1.0,0.0
2102,94.0,360.0,120.0,0.0,0.0
2103,63.0,0.0,15.0,3.0,0.0
2104,66.0,360.0,480.0,2.0,0.0
2105,72.0,0.0,480.0,2.0,0.0
2106,87.0,0.0,360.0,1.0,0.0
2107,84.0,0.0,240.0,1.0,0.0
2108,93.0,120.0,15.0,0.0,0.0
2109,96.0,120.0,360.0,0.0,0.0
2110,72.0,0.0,480.0,2.0,0.0
2111,65.0,0.0,480.0,2.0,0.0
2112,87.0,0.0,360.0,1.0,0.0
2113,84.0,0.0,240.0,1.0,0.0
2114,94.0,0.0,120.0,0.0,0.0
2115,66.0,0.0,480.0,2.0,0.0
2116,63.0,360.0,15.0,3.0,0.0
2117,87.0,0.0,360.0,1.0,0.0
2118,84.0,0.0,240.0,1.0,0.0
2119,93.0,120.0,15.0,0.0,0.0
2120,63.0,0.0,480.0,3.0,0.0
2121,72.0,0.0,15.0,2.0,0.0
2122,65.0,0.0,480.0,2.0,0.0
2123,96.0,120.0,360.0,0.0,0.0
2124,87.0,0.0,360.0,1.0,0.0
2125,84.0,0.0,240.0,1.0,0.0
2126,96.0,360.0,120.0,0.0,0.0
2127,89.0,120.0,360.0,0.0,0.0
2128,87.0,360.0,360.0,1.0,0.0
2129,84.0,0.0,240.0,1.0,0.0
2130,89.0,0.0,120.0,0.0,0.0
2131,67.0,0.0,480.0,2.0,0.0
2132,72.0,0.0,480.0,2.0,0.0
2133,63.0,0.0,480.0,3.0,0.0
2134,87.0,360.0,360.0,1.0,0.0
2135,84.0,0.0,240.0,1.0,0.0
2136,91.0,120.0,15.0,0.0,0.0
2137,65.0,0.0,480.0,2.0,0.0
2138,72.0,0.0,480.0,2.0,0.0
2139,93.0,120.0,360.0,0.0,0.0
2140,63.0,0.0,480.0,3.0,0.0
2141,89.0,0.0,360.0,1.0,0.0
2142,84.0,0.0,240.0,1.0,0.0
2143,93.0,360.0,120.0,0.0,0.0
2144,70.0,0.0,480.0,2.0,0.0
2145,94.0,120.0,360.0,0.0,0.0
2146,89.0,0.0,360.0,1.0,0.0
2147,82.0,0.0,240.0,1.0,0.0
2148,94.0,0.0,120.0,0.0,0.0
2149,62.0,360.0,15.0,3.0,0.0
2150,65.0,0.0,15.0,2.0,0.0
2151,70.0,0.0,480.0,2.0,0.0
2152,89.0,360.0,360.0,1.0,0.0
2153,82.0,0.0,240.0,1.0,0.0
2154,94.0,120.0,15.0,0.0,0.0
2155,70.0,0.0,480.0,2.0,0.0
2156,62.0,0.0,480.0,3.0,0.0
2157,65.0,360.0,480.0,2.0,0.0
2158,89.0,0.0,360.0,1.0,0.0
2159,82.0,0.0,240.0,1.0,0.0
2160,94.0,120.0,15.0,0.0,0.0
2161,61.0,0.0,480.0,3.0,0.0
2162,94.0,0.0,15.0,0.0,0.0
2163,88.0,360.0,360.0,1.0,0.0
2164,82.0,0.0,240.0,1.0,0.0
2165,94.0,120.0,15.0,0.0,0.0
2166,94.0,0.0,15.0,0.0,0.0
2167,64.0,0.0,15.0,2.0,0.0
2168,70.0,0.0,15.0,2.0,0.0
2169,88.0,0.0,360.0,1.0,0.0
2170,82.0,0.0,240.0,1.0,0.0
2171,94.0,0.0,120.0,0.0,0.0
2172,61.0,0.0,15.0,3.0,0.0
2173,70.0,360.0,15.0,2.0,0.0
2174,94.0,120.0,360.0,0.0,0.0
2175,88.0,0.0,360.0,1.0,0.0
2176,82.0,0.0,240.0,1.0,0.0
2177,70.0,0.0,15.0,2.0,0.0
2178,64.0,0.0,15.0,2.0,0.0
2179,94.0,0.0,15.0,0.0,0.0
2180,61.0,0.0,480.0,3.0,0.0
2181,88.0,360.0,360.0,1.0,0.0
2182,82.0,0.0,240.0,1.0,0.0
2183,94.0,120.0,15.0,0.0,0.0
2184,52.0,0.0,480.0,2.0,0.0
2185,42.0,360.0,480.0,3.0,0.0
2186,49.0,0.0,480.0,2.0,0.0
2187,46.0,0.0,480.0,2.0,0.0
2188,94.0,120.0,360.0,0.0,0.0
2189,88.0,0.0,360.0,1.0,0.0
2190,82.0,0.0,240.0,1.0,0.0
2191,52.0,0.0,480.0,2.0,0.0
2192,49.0,0.0,480.0,2.0,0.0
2193,94.0,0.0,15.0,0.0,0.0
2194,88.0,0.0,360.0,1.0,0.0
2195,82.0,0.0,240.0,1.0,0.0
2196,94.0,120.0,15.0,0.0,0.0
2197,42.0,0.0,15.0,3.0,0.0
2198,94.0,360.0,15.0,0.0,0.0
2199,46.0,0.0,15.0,2.0,0.0
2200,88.0,0.0,360.0,1.0,0.0
2201,82.0,0.0,240.0,1.0,0.0
2202,42.0,0.0,15.0,3.0,0.0
2203,49.0,0.0,15.0,2.0,0.0
2204,52.0,0.0,15.0,2.0,0.0
2205,46.0,80.0,480.0,2.0,0.0
2206,94.0,360.0,15.0,0.0,0.0
2207,88.0,0.0,360.0,1.0,0.0
2208,82.0,0.0,240.0,1.0,0.0
2209,53.0,0.0,1920.0,3.0,0.0
2210,94.0,0.0,15.0,0.0,0.0
2211,60.0,80.0,90.0,2.0,0.0
2212,62.0,80.0,90.0,2.0,0.0
2213,87.0,80.0,360.0,1.0,0.0
2214,60.0,80.0,90.0,2.0,0.0
2215,82.0,0.0,240.0,1.0,0.0
2216,62.0,40.0,90.0,2.0,0.0
2217,60.0,80.0,90.0,2.0,0.0
2218,94.0,0.0,120.0,0.0,0.0
2219,62.0,0.0,90.0,2.0,0.0
2220,60.0,80.0,90.0,2.0,0.0
2221,62.0,80.0,90.0,2.0,0.0
2222,87.0,0.0,360.0,1.0,0.0
2223,60.0,80.0,90.0,2.0,0.0
2224,82.0,80.0,240.0,1.0,0.0
2225,62.0,40.0,90.0,2.0,0.0
2226,60.0,80.0,90.0,2.0,0.0
2227,94.0,40.0,15.0,0.0,0.0
2228,62.0,0.0,90.0,2.0,0.0
2229,60.0,80.0,90.0,2.0,0.0
2230,62.0,80.0,90.0,2.0,0.0
2231,87.0,80.0,360.0,1.0,0.0
2232,60.0,80.0,90.0,2.0,0.0
2233,62.0,40.0,90.0,2.0,0.0
2234,82.0,0.0,240.0,1.0,0.0
2235,60.0,80.0,90.0,2.0,0.0
2236,93.0,40.0,15.0,0.0,0.0
2237,62.0,0.0,90.0,2.0,0.0
2238,93.0,0.0,15.0,0.0,0.0
2239,60.0,80.0,90.0,2.0,0.0
2240,62.0,80.0,90.0,2.0,0.0
2241,87.0,480.0,360.0,1.0,0.0
2242,60.0,120.0,90.0,2.0,0.0
2243,82.0,0.0,240.0,1.0,0.0
2244,58.0,120.0,120.0,2.0,0.0
2245,93.0,0.0,120.0,0.0,0.0
2246,60.0,0.0,120.0,2.0,0.0
2247,86.0,0.0,480.0,1.0,0.0
2248,82.0,0.0,480.0,1.0,0.0
2249,46.0,0.0,480.0,3.0,0.0
2250,58.0,640.0,480.0,2.0,0.0
2251,94.0,0.0,480.0,0.0,0.0
2252,86.0,160.0,150.0,0.0,0.0
2253,70.0,0.0,150.0,3.0,0.0
2254,72.0,160.0,150.0,3.0,0.0
2255,82.0,0.0,150.0,0.0,0.0
2256,77.0,160.0,150.0,0.0,0.0
2257,74.0,0.0,150.0,3.0,0.0
2258,75.0,160.0,150.0,3.0,0.0
2259,79.0,0.0,150.0,0.0,0.0
2260,82.0,0.0,150.0,0.0,0.0
2261,70.0,160.0,150.0,3.0,0.0
2262,79.0,0.0,150.0,0.0,0.0
2263,75.0,160.0,150.0,3.0,0.0
2264,77.0,160.0,150.0,0.0,0.0
2265,70.0,0.0,480.0,3.0,0.0
2266,74.0,0.0,480.0,3.0,0.0
2267,82.0,160.0,150.0,0.0,0.0
2268,84.0,160.0,150.0,0.0,0.0
2269,86.0,160.0,150.0,0.0,0.0
2270,82.0,160.0,150.0,0.0,0.0
2271,89.0,160.0,150.0,0.0,0.0
2272,86.0,160.0,150.0,0.0,0.0
2273,58.0,0.0,150.0,3.0,0.0
2274,60.0,0.0,150.0,3.0,0.0
2275,82.0,160.0,150.0,0.0,0.0
2276,62.0,160.0,150.0,3.0,0.0
2277,77.0,0.0,150.0,0.0,0.0
2278,75.0,0.0,150.0,0.0,0.0
2279,53.0,0.0,480.0,3.0,0.0
2280,63.0,160.0,150.0,3.0,0.0
2281,72.0,160.0,150.0,0.0,0.0
2282,60.0,0.0,150.0,3.0,0.0
2283,77.0,0.0,150.0,0.0,0.0
2284,65.0,480.0,150.0,3.0,0.0
2285,74.0,0.0,480.0,0.0,0.0
2286,62.0,0.0,480.0,3.0,0.0
2287,58.0,160.0,480.0,3.0,0.0
2288,77.0,160.0,150.0,0.0,0.0
2289,82.0,160.0,150.0,0.0,0.0
2290,84.0,160.0,150.0,0.0,0.0
2291,86.0,160.0,150.0,0.0,0.0
2292,70.0,0.0,150.0,3.0,0.0
2293,72.0,0.0,150.0,3.0,0.0
2294,82.0,160.0,150.0,0.0,0.0
2295,77.0,160.0,150.0,0.0,0.0
2296,74.0,0.0,150.0,3.0,0.0
2297,75.0,160.0,150.0,3.0,0.0
2298,79.0,0.0,150.0,0.0,0.0
2299,82.0,160.0,150.0,0.0,0.0
2300,70.0,0.0,150.0,3.0,0.0
2301,75.0,0.0,150.0,3.0,0.0
2302,79.0,160.0,150.0,0.0,0.0
2303,77.0,160.0,150.0,0.0,0.0
2304,70.0,160.0,480.0,3.0,0.0
2305,74.0,0.0,480.0,3.0,0.0
2306,82.0,160.0,150.0,0.0,0.0
2307,84.0,0.0,150.0,0.0,0.0
2308,86.0,160.0,150.0,0.0,0.0
2309,82.0,160.0,150.0,0.0,0.0
2310,89.0,480.0,150.0,0.0,0.0
2311,74.0,0.0,480.0,2.0,0.0
2312,77.0,0.0,480.0,1.0,0.0
2313,71.0,0.0,480.0,2.0,0.0
2314,67.0,480.0,480.0,3.0,0.0
2315,83.0,0.0,480.0,0.0,0.0
2316,79.0,0.0,15.0,1.0,0.0
2317,84.0,0.0,480.0,0.0,0.0
2318,67.0,0.0,480.0,2.0,0.0
2319,63.0,0.0,480.0,2.0,0.0
2320,60.0,960.0,480.0,3.0,0.0
2321,77.0,0.0,960.0,1.0,0.0
2322,75.0,0.0,15.0,1.0,0.0
2323,69.0,0.0,960.0,2.0,0.0
2324,72.0,0.0,15.0,2.0,0.0
2325,81.0,0.0,960.0,0.0,0.0
2326,65.0,0.0,960.0,3.0,0.0
2327,63.0,120.0,960.0,2.0,0.0
2328,60.0,0.0,960.0,2.0,0.0
2329,53.0,0.0,960.0,3.0,0.0
2330,75.0,120.0,120.0,0.0,0.0
2331,77.0,120.0,120.0,0.0,0.0
2332,75.0,120.0,120.0,0.0,0.0
2333,74.0,120.0,120.0,0.0,0.0
2334,75.0,120.0,120.0,0.0,0.0
2335,84.0,120.0,120.0,0.0,0.0
2336,82.0,120.0,120.0,0.0,0.0
2337,81.0,0.0,120.0,0.0,0.0
2338,58.0,120.0,480.0,3.0,0.0
2339,62.0,0.0,480.0,2.0,0.0
2340,82.0,120.0,120.0,0.0,0.0
2341,77.0,120.0,120.0,0.0,0.0
2342,74.0,120.0,120.0,0.0,0.0
2343,77.0,0.0,120.0,0.0,0.0
2344,82.0,120.0,120.0,0.0,0.0
2345,86.0,120.0,120.0,0.0,0.0
2346,89.0,120.0,120.0,0.0,0.0
2347,94.0,480.0,120.0,0.0,0.0
2348,77.0,0.0,480.0,2.0,0.0
2349,67.0,480.0,480.0,3.0,0.0
2350,95.0,0.0,480.0,0.0,0.0
2351,86.0,0.0,480.0,1.0,0.0
2352,89.0,0.0,480.0,1.0,0.0
2353,83.0,0.0,480.0,1.0,0.0
2354,74.0,0.0,480.0,2.0,0.0
2355,71.0,0.0,480.0,2.0,0.0
2356,79.0,960.0,480.0,2.0,0.0
2357,75.0,0.0,480.0,2.0,0.0
2358,91.0,0.0,15.0,1.0,0.0
2359,96.0,0.0,480.0,0.0,0.0
2360,72.0,0.0,480.0,3.0,0.0
2361,87.0,0.0,15.0,1.0,0.0
2362,89.0,0.0,960.0,1.0,0.0
2363,84.0,0.0,15.0,1.0,0.0
2364,81.0,0.0,960.0,1.0,0.0
2365,93.0,0.0,960.0,0.0,0.0
2366,65.0,120.0,960.0,3.0,0.0
2367,72.0,0.0,960.0,2.0,0.0
2368,69.0,0.0,960.0,2.0,0.0
2369,75.0,0.0,960.0,2.0,0.0
2370,77.0,0.0,960.0,2.0,0.0
2371,60.0,0.0,960.0,2.0,0.0
2372,63.0,0.0,960.0,2.0,0.0
2373,87.0,120.0,120.0,0.0,0.0
2374,53.0,120.0,960.0,3.0,0.0
2375,89.0,120.0,120.0,0.0,0.0
2376,87.0,120.0,120.0,0.0,0.0
2377,86.0,120.0,120.0,0.0,0.0
2378,87.0,120.0,120.0,0.0,0.0
2379,96.0,120.0,120.0,0.0,0.0
2380,94.0,120.0,120.0,0.0,0.0
2381,93.0,0.0,120.0,0.0,0.0
2382,62.0,0.0,480.0,2.0,0.0
2383,94.0,120.0,120.0,0.0,0.0
2384,58.0,0.0,480.0,3.0,0.0
2385,89.0,120.0,120.0,0.0,0.0
2386,86.0,120.0,120.0,0.0,0.0
2387,82.0,120.0,120.0,0.0,0.0
2388,77.0,120.0,120.0,0.0,0.0
2389,82.0,120.0,120.0,0.0,0.0
2390,77.0,120.0,120.0,0.0,0.0
2391,74.0,120.0,120.0,0.0,0.0
2392,51.0,0.0,960.0,2.0,0.0
2393,41.0,0.0,960.0,3.0,0.0
2394,75.0,120.0,120.0,0.0,0.0
2395,48.0,0.0,960.0,2.0,0.0
2396,77.0,120.0,120.0,0.0,0.0
2397,75.0,120.0,120.0,0.0,0.0
2398,74.0,120.0,120.0,0.0,0.0
2399,75.0,120.0,120.0,0.0,0.0
2400,84.0,120.0,120.0,0.0,0.0
2401,82.0,120.0,120.0,0.0,0.0
2402,81.0,120.0,120.0,0.0,0.0
2403,46.0,0.0,480.0,3.0,0.0
2404,82.0,120.0,120.0,0.0,0.0
2405,50.0,120.0,480.0,2.0,0.0
2406,77.0,120.0,120.0,0.0,0.0
2407,74.0,120.0,120.0,0.0,0.0
2408,70.0,0.0,120.0,0.0,0.0
2409,65.0,120.0,120.0,0.0,0.0
2410,70.0,120.0,120.0,0.0,0.0
2411,65.0,120.0,120.0,0.0,0.0
2412,62.0,120.0,120.0,0.0,0.0
2413,51.0,120.0,120.0,3.0,0.0
2414,53.0,120.0,120.0,3.0,0.0
2415,51.0,120.0,120.0,3.0,0.0
2416,50.0,120.0,120.0,3.0,0.0
2417,69.0,0.0,480.0,1.0,0.0
2418,72.0,0.0,480.0,1.0,0.0
2419,75.0,120.0,480.0,0.0,0.0
2420,51.0,120.0,120.0,3.0,0.0
2421,53.0,120.0,120.0,3.0,0.0
2422,55.0,120.0,120.0,3.0,0.0
2423,57.0,0.0,120.0,3.0,0.0
2424,58.0,120.0,120.0,3.0,0.0
2425,60.0,120.0,120.0,3.0,0.0
2426,62.0,120.0,120.0,3.0,0.0
2427,63.0,120.0,120.0,3.0,0.0
2428,72.0,0.0,480.0,1.0,0.0
2429,69.0,0.0,480.0,1.0,0.0
2430,65.0,120.0,120.0,3.0,0.0
2431,75.0,120.0,480.0,0.0,0.0
2432,63.0,120.0,120.0,3.0,0.0
2433,62.0,120.0,120.0,3.0,0.0
2434,60.0,0.0,120.0,3.0,0.0
2435,58.0,120.0,120.0,3.0,0.0
2436,57.0,120.0,120.0,3.0,0.0
2437,55.0,120.0,120.0,3.0,0.0
2438,53.0,120.0,120.0,3.0,0.0
2439,55.0,120.0,120.0,3.0,0.0
2440,77.0,0.0,480.0,0.0,0.0
2441,72.0,0.0,480.0,1.0,0.0
2442,69.0,120.0,480.0,1.0,0.0
2443,75.0,0.0,480.0,1.0,0.0
2444,53.0,120.0,120.0,3.0,0.0
2445,55.0,120.0,120.0,3.0,0.0
2446,57.0,0.0,120.0,3.0,0.0
2447,58.0,120.0,120.0,3.0,0.0
2448,60.0,120.0,120.0,3.0,0.0
2449,62.0,120.0,120.0,3.0,0.0
2450,63.0,120.0,120.0,3.0,0.0
2451,74.0,0.0,480.0,1.0,0.0
2452,70.0,120.0,480.0,1.0,0.0
2453,77.0,0.0,480.0,0.0,0.0
2454,65.0,120.0,120.0,3.0,0.0
2455,67.0,120.0,120.0,3.0,0.0
2456,65.0,120.0,120.0,3.0,0.0
2457,63.0,0.0,120.0,3.0,0.0
2458,62.0,120.0,120.0,3.0,0.0
2459,63.0,120.0,120.0,3.0,0.0
2460,65.0,120.0,120.0,3.0,0.0
2461,63.0,120.0,120.0,3.0,0.0
2462,62.0,120.0,120.0,3.0,0.0
2463,74.0,0.0,360.0,0.0,0.0
2464,63.0,120.0,120.0,3.0,0.0
2465,62.0,120.0,120.0,3.0,0.0
2466,75.0,0.0,120.0,0.0,0.0
2467,60.0,120.0,120.0,3.0,0.0
2468,58.0,120.0,120.0,3.0,0.0
2469,60.0,120.0,120.0,3.0,0.0
2470,62.0,120.0,120.0,3.0,0.0
2471,63.0,120.0,120.0,3.0,0.0
2472,74.0,0.0,480.0,1.0,0.0
2473,68.0,0.0,480.0,1.0,0.0
2474,70.0,0.0,480.0,1.0,0.0
2475,65.0,120.0,120.0,3.0,0.0
2476,77.0,120.0,480.0,0.0,0.0
2477,63.0,120.0,120.0,3.0,0.0
2478,62.0,120.0,120.0,3.0,0.0
2479,60.0,0.0,120.0,3.0,0.0
2480,58.0,120.0,120.0,3.0,0.0
2481,62.0,120.0,120.0,3.0,0.0
2482,60.0,120.0,120.0,3.0,0.0
2483,58.0,120.0,120.0,3.0,0.0
2484,56.0,120.0,120.0,3.0,0.0
2485,74.0,120.0,360.0,0.0,0.0
2486,62.0,0.0,360.0,1.0,0.0
2487,55.0,120.0,120.0,3.0,0.0
2488,53.0,0.0,120.0,3.0,0.0
2489,51.0,120.0,120.0,3.0,0.0
2490,75.0,0.0,120.0,0.0,0.0
2491,63.0,0.0,120.0,1.0,0.0
2492,65.0,120.0,480.0,1.0,0.0
2493,50.0,120.0,120.0,3.0,0.0
2494,77.0,0.0,480.0,0.0,0.0
2495,51.0,120.0,120.0,3.0,0.0
2496,53.0,120.0,120.0,3.0,0.0
2497,51.0,0.0,120.0,3.0,0.0
2498,70.0,120.0,480.0,0.0,0.0
2499,50.0,120.0,120.0,3.0,0.0
2500,68.0,0.0,15.0,1.0,0.0
2501,53.0,120.0,120.0,3.0,0.0
2502,56.0,120.0,120.0,3.0,0.0
2503,58.0,0.0,120.0,3.0,0.0
2504,59.0,120.0,120.0,3.0,0.0
2505,68.0,0.0,15.0,1.0,0.0
2506,71.0,0.0,480.0,0.0,0.0
2507,56.0,120.0,120.0,3.0,0.0
2508,53.0,120.0,120.0,3.0,0.0
2509,51.0,0.0,120.0,3.0,0.0
2510,68.0,0.0,15.0,1.0,0.0
2511,50.0,120.0,120.0,3.0,0.0
2512,65.0,120.0,15.0,1.0,0.0
2513,70.0,0.0,480.0,0.0,0.0
2514,53.0,120.0,120.0,3.0,0.0
2515,56.0,120.0,120.0,3.0,0.0
2516,58.0,0.0,120.0,3.0,0.0
2517,68.0,120.0,15.0,1.0,0.0
2518,71.0,120.0,480.0,1.0,0.0
2519,59.0,120.0,120.0,3.0,0.0
2520,80.0,0.0,480.0,0.0,0.0
2521,56.0,120.0,120.0,3.0,0.0
2522,53.0,120.0,120.0,3.0,0.0
2523,51.0,0.0,120.0,3.0,0.0
2524,77.0,120.0,480.0,0.0,0.0
2525,50.0,120.0,120.0,3.0,0.0
2526,70.0,0.0,480.0,1.0,0.0
2527,68.0,0.0,480.0,1.0,0.0
2528,53.0,120.0,120.0,3.0,0.0
2529,58.0,120.0,120.0,3.0,0.0
2530,62.0,0.0,120.0,3.0,0.0
2531,51.0,120.0,120.0,3.0,0.0
2532,78.0,0.0,480.0,0.0,0.0
2533,54.0,120.0,120.0,3.0,0.0
2534,58.0,120.0,120.0,3.0,0.0
2535,63.0,0.0,120.0,3.0,0.0
2536,54.0,120.0,120.0,3.0,0.0
2537,75.0,0.0,480.0,0.0,0.0
2538,66.0,120.0,15.0,1.0,0.0
2539,70.0,0.0,15.0,1.0,0.0
2540,58.0,120.0,120.0,3.0,0.0
2541,63.0,120.0,120.0,3.0,0.0
2542,66.0,0.0,120.0,3.0,0.0
2543,57.0,120.0,120.0,3.0,0.0
2544,78.0,120.0,480.0,1.0,0.0
2545,87.0,0.0,480.0,0.0,0.0
2546,60.0,120.0,120.0,3.0,0.0
2547,63.0,120.0,120.0,3.0,0.0
2548,66.0,0.0,120.0,3.0,0.0
2549,75.0,0.0,15.0,1.0,0.0
2550,69.0,120.0,120.0,3.0,0.0
2551,84.0,0.0,480.0,0.0,0.0
2552,79.0,0.0,480.0,1.0,0.0
2553,72.0,120.0,120.0,3.0,0.0
2554,75.0,120.0,120.0,3.0,0.0
2555,72.0,0.0,120.0,3.0,0.0
2556,87.0,0.0,480.0,1.0,0.0
2557,90.0,120.0,480.0,0.0,0.0
2558,69.0,120.0,120.0,3.0,0.0
2559,72.0,120.0,120.0,3.0,0.0
2560,75.0,120.0,120.0,3.0,0.0
2561,72.0,0.0,120.0,3.0,0.0
2562,69.0,120.0,120.0,3.0,0.0
2563,84.0,0.0,15.0,1.0,0.0
2564,89.0,120.0,480.0,0.0,0.0
2565,87.0,0.0,480.0,1.0,0.0
2566,72.0,120.0,120.0,3.0,0.0
2567,75.0,120.0,120.0,3.0,0.0
2568,72.0,0.0,120.0,3.0,0.0
2569,69.0,120.0,120.0,3.0,0.0
2570,75.0,120.0,120.0,3.0,0.0
2571,74.0,120.0,120.0,3.0,0.0
2572,72.0,120.0,120.0,3.0,0.0
2573,77.0,120.0,120.0,3.0,0.0
2574,87.0,120.0,480.0,1.0,0.0
2575,84.0,0.0,480.0,1.0,0.0
2576,89.0,0.0,480.0,0.0,0.0
2577,75.0,120.0,120.0,3.0,0.0
2578,74.0,120.0,120.0,3.0,0.0
2579,72.0,0.0,120.0,3.0,0.0
2580,70.0,120.0,120.0,3.0,0.0
2581,77.0,120.0,120.0,3.0,0.0
2582,75.0,120.0,120.0,3.0,0.0
2583,74.0,120.0,120.0,3.0,0.0
2584,86.0,120.0,480.0,1.0,0.0
2585,82.0,120.0,120.0,3.0,0.0
2586,89.0,0.0,480.0,0.0,0.0
2587,81.0,120.0,120.0,3.0,0.0
2588,79.0,120.0,120.0,3.0,0.0
2589,77.0,0.0,120.0,3.0,0.0
2590,75.0,120.0,120.0,3.0,0.0
2591,74.0,120.0,120.0,3.0,0.0
2592,79.0,120.0,120.0,3.0,0.0
2593,77.0,120.0,120.0,3.0,0.0
2594,75.0,120.0,120.0,3.0,0.0
2595,86.0,0.0,480.0,1.0,0.0
2596,89.0,120.0,480.0,0.0,0.0
2597,74.0,120.0,120.0,3.0,0.0
2598,72.0,120.0,120.0,3.0,0.0
2599,70.0,0.0,120.0,3.0,0.0
2600,69.0,120.0,120.0,3.0,0.0
2601,70.0,120.0,120.0,3.0,0.0
2602,72.0,120.0,120.0,3.0,0.0
2603,70.0,120.0,120.0,3.0,0.0
2604,86.0,0.0,480.0,1.0,0.0
2605,64.0,120.0,120.0,3.0,0.0
2606,89.0,0.0,480.0,0.0,0.0
2607,65.0,120.0,120.0,3.0,0.0
2608,67.0,120.0,120.0,3.0,0.0
2609,65.0,120.0,120.0,3.0,0.0
2610,61.0,120.0,120.0,3.0,0.0
2611,62.0,120.0,120.0,3.0,0.0
2612,63.0,120.0,120.0,3.0,0.0
2613,62.0,120.0,120.0,3.0,0.0
2614,57.0,120.0,120.0,3.0,0.0
2615,89.0,0.0,480.0,1.0,0.0
2616,94.0,0.0,480.0,0.0,0.0
2617,58.0,120.0,120.0,3.0,0.0
2618,60.0,120.0,120.0,3.0,0.0
2619,58.0,0.0,120.0,3.0,0.0
2620,86.0,120.0,15.0,1.0,0.0
2621,82.0,0.0,15.0,1.0,0.0
2622,52.0,120.0,120.0,3.0,0.0
2623,53.0,120.0,120.0,3.0,0.0
2624,55.0,120.0,120.0,3.0,0.0
2625,53.0,0.0,120.0,3.0,0.0
2626,49.0,120.0,120.0,3.0,0.0
2627,94.0,0.0,15.0,0.0,0.0
2628,89.0,120.0,15.0,1.0,0.0
2629,50.0,120.0,120.0,3.0,0.0
2630,51.0,120.0,120.0,3.0,0.0
2631,50.0,0.0,120.0,3.0,0.0
2632,86.0,0.0,15.0,1.0,0.0
2633,89.0,0.0,15.0,1.0,0.0
2634,94.0,0.0,480.0,0.0,0.0
2635,46.0,0.0,480.0,3.0,0.0
2636,82.0,480.0,15.0,1.0,0.0
2637,54.0,0.0,720.0,3.0,0.0
2638,76.0,156.0,720.0,0.0,0.0
2639,58.0,0.0,720.0,2.0,0.0
2640,70.0,0.0,720.0,1.0,0.0
2641,69.0,0.0,150.0,1.0,0.0
2642,60.0,240.0,150.0,2.0,0.0
2643,77.0,0.0,150.0,0.0,0.0
2644,53.0,0.0,150.0,3.0,0.0
2645,51.0,0.0,150.0,3.0,0.0
2646,69.0,0.0,150.0,1.0,0.0
2647,53.0,0.0,150.0,2.0,0.0
2648,72.0,720.0,150.0,0.0,0.0
2649,53.0,0.0,150.0,2.0,0.0
2650,50.0,0.0,150.0,3.0,0.0
2651,70.0,0.0,150.0,1.0,0.0
2652,74.0,444.0,150.0,0.0,0.0
2653,75.0,0.0,360.0,0.0,0.0
2654,67.0,78.0,360.0,1.0,0.0
2655,48.0,0.0,360.0,3.0,0.0
2656,74.0,0.0,90.0,0.0,0.0
2657,50.0,0.0,90.0,3.0,0.0
2658,65.0,198.0,90.0,1.0,0.0
2659,51.0,0.0,150.0,3.0,0.0
2660,63.0,240.0,150.0,1.0,0.0
2661,72.0,0.0,150.0,0.0,0.0
2662,70.0,0.0,150.0,0.0,0.0
2663,52.0,0.0,150.0,3.0,0.0
2664,62.0,344.0,150.0,1.0,0.0
2665,53.0,1420.0,270.0,3.0,0.0
2666,69.0,0.0,270.0,0.0,0.0
2667,60.0,0.0,270.0,1.0,0.0
2668,68.0,0.0,720.0,3.0,0.0
2669,77.0,156.0,720.0,0.0,0.0
2670,74.0,0.0,720.0,1.0,0.0
2671,71.0,0.0,720.0,2.0,0.0
2672,75.0,318.0,150.0,1.0,0.0
2673,70.0,0.0,150.0,2.0,0.0
2674,67.0,0.0,150.0,3.0,0.0
2675,79.0,0.0,150.0,0.0,0.0
2676,80.0,0.0,240.0,0.0,0.0
2677,68.0,0.0,240.0,2.0,0.0
2678,65.0,0.0,240.0,3.0,0.0
2679,77.0,642.0,240.0,1.0,0.0
2680,67.0,0.0,150.0,2.0,0.0
2681,82.0,444.0,150.0,0.0,0.0
2682,79.0,0.0,150.0,1.0,0.0
2683,63.0,0.0,150.0,3.0,0.0
2684,84.0,78.0,360.0,0.0,0.0
2685,80.0,0.0,360.0,1.0,0.0
2686,56.0,156.0,480.0,3.0,0.0
2687,60.0,0.0,360.0,2.0,0.0
2688,80.0,42.0,90.0,0.0,0.0
2689,77.0,0.0,90.0,1.0,0.0
2690,65.0,0.0,90.0,2.0,0.0
2691,58.0,0.0,150.0,3.0,0.0
2692,75.0,240.0,150.0,1.0,0.0
2693,67.0,0.0,150.0,2.0,0.0
2694,79.0,0.0,150.0,0.0,0.0
2695,58.0,0.0,150.0,3.0,0.0
2696,68.0,384.0,150.0,2.0,0.0
2697,77.0,0.0,150.0,0.0,0.0
2698,74.0,0.0,150.0,1.0,0.0
2699,67.0,0.0,300.0,2.0,0.0
2700,75.0,0.0,300.0,1.0,0.0
2701,63.0,0.0,300.0,3.0,0.0
2702,79.0,1380.0,300.0,0.0,0.0
2703,75.0,0.0,720.0,0.0,0.0
2704,67.0,0.0,720.0,3.0,0.0
2705,65.0,0.0,150.0,3.0,0.0
2706,70.0,156.0,15.0,1.0,0.0
2707,74.0,444.0,150.0,1.0,0.0
2708,79.0,0.0,360.0,0.0,0.0
2709,63.0,0.0,360.0,3.0,0.0
2710,70.0,516.0,360.0,1.0,0.0
2711,62.0,0.0,150.0,3.0,0.0
2712,77.0,0.0,150.0,0.0,0.0
2713,70.0,444.0,150.0,1.0,0.0
2714,70.0,156.0,480.0,1.0,0.0
2715,60.0,78.0,360.0,3.0,0.0
2716,75.0,0.0,360.0,0.0,0.0
2717,74.0,0.0,90.0,0.0,0.0
2718,62.0,42.0,90.0,3.0,0.0
2719,70.0,0.0,150.0,1.0,0.0
2720,72.0,240.0,150.0,0.0,0.0
2721,63.0,0.0,150.0,3.0,0.0
2722,69.0,0.0,150.0,1.0,0.0
2723,53.0,0.0,150.0,3.0,0.0
2724,77.0,204.0,150.0,0.0,0.0
2725,58.0,42.0,150.0,3.0,0.0
2726,74.0,36.0,120.0,0.0,0.0
2727,70.0,162.0,90.0,1.0,0.0
2728,65.0,120.0,240.0,3.0,0.0
2729,69.0,78.0,120.0,0.0,0.0
2730,70.0,42.0,90.0,1.0,0.0
2731,75.0,78.0,120.0,0.0,0.0
2732,67.0,120.0,240.0,3.0,0.0
2733,82.0,42.0,90.0,1.0,0.0
2734,65.0,120.0,240.0,3.0,0.0
2735,74.0,78.0,120.0,0.0,0.0
2736,82.0,42.0,90.0,1.0,0.0
2737,63.0,120.0,240.0,3.0,0.0
2738,79.0,78.0,120.0,0.0,0.0
2739,82.0,42.0,90.0,1.0,0.0
2740,62.0,120.0,240.0,3.0,0.0
2741,77.0,78.0,120.0,0.0,0.0
2742,82.0,42.0,90.0,1.0,0.0
2743,60.0,120.0,240.0,3.0,0.0
2744,81.0,78.0,120.0,0.0,0.0
2745,84.0,42.0,90.0,1.0,0.0
2746,53.0,120.0,240.0,3.0,0.0
2747,81.0,78.0,120.0,0.0,0.0
2748,89.0,42.0,90.0,1.0,0.0
2749,58.0,120.0,240.0,3.0,0.0
2750,82.0,78.0,120.0,0.0,0.0
2751,86.0,42.0,90.0,1.0,0.0
2752,53.0,120.0,240.0,3.0,0.0
2753,82.0,78.0,120.0,0.0,0.0
2754,89.0,42.0,90.0,1.0,0.0
2755,50.0,120.0,240.0,3.0,0.0
2756,82.0,78.0,120.0,0.0,0.0
2757,89.0,42.0,90.0,1.0,0.0
2758,86.0,78.0,120.0,0.0,0.0
2759,53.0,120.0,240.0,3.0,0.0
2760,89.0,42.0,90.0,1.0,0.0
2761,46.0,120.0,240.0,3.0,0.0
2762,86.0,78.0,120.0,0.0,0.0
2763,89.0,42.0,90.0,1.0,0.0
2764,86.0,78.0,120.0,0.0,0.0
2765,53.0,120.0,240.0,3.0,0.0
2766,89.0,42.0,90.0,1.0,0.0
2767,84.0,78.0,120.0,0.0,0.0
2768,41.0,120.0,240.0,3.0,0.0
2769,87.0,42.0,90.0,1.0,0.0
2770,53.0,120.0,240.0,3.0,0.0
2771,81.0,78.0,120.0,0.0,0.0
2772,89.0,42.0,90.0,1.0,0.0
2773,46.0,42.0,150.0,3.0,0.0
2774,86.0,36.0,120.0,0.0,0.0
2775,82.0,162.0,90.0,1.0,0.0
2776,74.0,78.0,120.0,0.0,0.0
2777,65.0,120.0,240.0,3.0,0.0
2778,82.0,42.0,90.0,1.0,0.0
2779,67.0,120.0,240.0,3.0,0.0
2780,75.0,78.0,120.0,0.0,0.0
2781,82.0,42.0,90.0,1.0,0.0
2782,65.0,120.0,240.0,3.0,0.0
2783,74.0,78.0,120.0,0.0,0.0
2784,82.0,42.0,90.0,1.0,0.0
2785,79.0,78.0,120.0,0.0,0.0
2786,63.0,120.0,240.0,3.0,0.0
2787,82.0,42.0,90.0,1.0,0.0
2788,62.0,120.0,240.0,3.0,0.0
2789,77.0,78.0,120.0,0.0,0.0
2790,82.0,42.0,90.0,1.0,0.0
2791,60.0,120.0,240.0,3.0,0.0
2792,81.0,78.0,120.0,0.0,0.0
2793,84.0,42.0,90.0,1.0,0.0
2794,81.0,78.0,120.0,0.0,0.0
2795,53.0,120.0,240.0,3.0,0.0
2796,89.0,42.0,90.0,1.0,0.0
2797,58.0,120.0,240.0,3.0,0.0
2798,82.0,78.0,120.0,0.0,0.0
2799,86.0,42.0,90.0,1.0,0.0
2800,53.0,120.0,240.0,3.0,0.0
2801,82.0,78.0,120.0,0.0,0.0
2802,89.0,42.0,90.0,1.0,0.0
2803,50.0,120.0,240.0,3.0,0.0
2804,82.0,78.0,120.0,0.0,0.0
2805,89.0,42.0,90.0,1.0,0.0
2806,53.0,120.0,240.0,3.0,0.0
2807,86.0,78.0,120.0,0.0,0.0
2808,89.0,42.0,90.0,1.0,0.0
2809,86.0,78.0,120.0,0.0,0.0
2810,46.0,120.0,240.0,3.0,0.0
2811,89.0,42.0,90.0,1.0,0.0
2812,86.0,78.0,120.0,0.0,0.0
2813,53.0,120.0,240.0,3.0,0.0
2814,89.0,42.0,90.0,1.0,0.0
2815,41.0,120.0,240.0,3.0,0.0
2816,84.0,78.0,120.0,0.0,0.0
2817,87.0,42.0,90.0,1.0,0.0
2818,53.0,120.0,240.0,3.0,0.0
2819,81.0,78.0,120.0,0.0,0.0
2820,89.0,42.0,90.0,1.0,0.0
2821,86.0,78.0,120.0,0.0,0.0
2822,46.0,120.0,240.0,3.0,0.0
2823,89.0,42.0,90.0,1.0,0.0
2824,86.0,0.0,120.0,0.0,0.0
2825,58.0,120.0,240.0,3.0,0.0
2826,82.0,78.0,120.0,0.0,0.0
2827,89.0,42.0,90.0,1.0,0.0
2828,82.0,78.0,120.0,0.0,0.0
2829,39.0,120.0,240.0,3.0,0.0
2830,84.0,42.0,90.0,1.0,0.0
2831,82.0,78.0,120.0,0.0,0.0
2832,51.0,120.0,240.0,3.0,0.0
2833,88.0,42.0,90.0,1.0,0.0
2834,82.0,78.0,120.0,0.0,0.0
2835,40.0,120.0,240.0,3.0,0.0
2836,84.0,42.0,90.0,1.0,0.0
2837,82.0,78.0,120.0,0.0,0.0
2838,52.0,120.0,240.0,3.0,0.0
2839,91.0,42.0,90.0,1.0,0.0
2840,82.0,78.0,120.0,0.0,0.0
2841,36.0,120.0,240.0,3.0,0.0
2842,84.0,42.0,90.0,1.0,0.0
2843,82.0,78.0,120.0,0.0,0.0
2844,48.0,240.0,240.0,3.0,0.0
2845,91.0,42.0,90.0,1.0,0.0
2846,41.0,0.0,240.0,3.0,0.0
2847,84.0,120.0,240.0,0.0,0.0
2848,89.0,0.0,240.0,1.0,0.0
2849,53.0,0.0,240.0,3.0,0.0
2850,81.0,0.0,240.0,1.0,0.0
2851,64.0,78.0,120.0,0.0,0.0
2852,65.0,162.0,90.0,1.0,0.0
2853,64.0,78.0,120.0,0.0,0.0
2854,65.0,162.0,90.0,1.0,0.0
2855,68.0,78.0,120.0,0.0,0.0
2856,69.0,162.0,90.0,1.0,0.0
2857,68.0,78.0,120.0,0.0,0.0
2858,69.0,162.0,90.0,1.0,0.0
2859,71.0,78.0,120.0,0.0,0.0
2860,72.0,162.0,90.0,1.0,0.0
2861,71.0,78.0,120.0,0.0,0.0
2862,72.0,162.0,90.0,1.0,0.0
2863,76.0,78.0,120.0,0.0,0.0
2864,77.0,162.0,90.0,1.0,0.0
2865,76.0,78.0,120.0,0.0,0.0
2866,77.0,162.0,90.0,1.0,0.0
2867,80.0,78.0,120.0,0.0,0.0
2868,81.0,162.0,90.0,1.0,0.0
2869,80.0,78.0,120.0,0.0,0.0
2870,81.0,162.0,90.0,1.0,0.0
2871,83.0,78.0,120.0,0.0,0.0
2872,84.0,162.0,90.0,1.0,0.0
2873,83.0,78.0,120.0,0.0,0.0
2874,84.0,162.0,90.0,1.0,0.0
2875,88.0,78.0,120.0,0.0,0.0
2876,89.0,162.0,90.0,1.0,0.0
2877,88.0,78.0,120.0,0.0,0.0
2878,89.0,162.0,90.0,1.0,0.0
2879,92.0,78.0,120.0,0.0,0.0
2880,93.0,162.0,90.0,1.0,0.0
2881,92.0,78.0,120.0,0.0,0.0
2882,93.0,162.0,90.0,1.0,0.0
2883,95.0,78.0,120.0,0.0,0.0
2884,96.0,162.0,90.0,1.0,0.0
2885,88.0,78.0,120.0,0.0,0.0
2886,89.0,162.0,90.0,1.0,0.0
2887,92.0,78.0,120.0,0.0,0.0
2888,93.0,162.0,90.0,1.0,0.0
2889,83.0,78.0,120.0,0.0,0.0
2890,84.0,162.0,90.0,1.0,0.0
2891,88.0,78.0,120.0,0.0,0.0
2892,89.0,162.0,90.0,1.0,0.0
2893,80.0,78.0,120.0,0.0,0.0
2894,81.0,162.0,90.0,1.0,0.0
2895,83.0,78.0,120.0,0.0,0.0
2896,84.0,162.0,90.0,1.0,0.0
2897,76.0,78.0,120.0,0.0,0.0
2898,77.0,162.0,90.0,1.0,0.0
2899,80.0,78.0,120.0,0.0,0.0
2900,81.0,162.0,90.0,1.0,0.0
2901,71.0,78.0,120.0,0.0,0.0
2902,72.0,162.0,90.0,1.0,0.0
2903,76.0,78.0,120.0,0.0,0.0
2904,77.0,162.0,90.0,1.0,0.0
2905,68.0,78.0,120.0,0.0,0.0
2906,69.0,162.0,90.0,1.0,0.0
2907,76.0,78.0,120.0,0.0,0.0
2908,77.0,162.0,90.0,1.0,0.0
2909,64.0,78.0,120.0,0.0,0.0
2910,65.0,162.0,90.0,1.0,0.0
2911,76.0,78.0,120.0,0.0,0.0
2912,77.0,162.0,90.0,1.0,0.0
2913,64.0,78.0,120.0,0.0,0.0
2914,65.0,162.0,90.0,1.0,0.0
2915,76.0,78.0,120.0,0.0,0.0
2916,77.0,162.0,90.0,1.0,0.0
2917,52.0,78.0,120.0,0.0,0.0
2918,53.0,162.0,90.0,1.0,0.0
2919,64.0,78.0,120.0,0.0,0.0
2920,65.0,162.0,90.0,1.0,0.0
2921,64.0,78.0,120.0,0.0,0.0
2922,65.0,162.0,90.0,1.0,0.0
2923,76.0,78.0,120.0,0.0,0.0
2924,77.0,162.0,90.0,1.0,0.0
2925,52.0,78.0,120.0,0.0,0.0
2926,53.0,162.0,90.0,1.0,0.0
2927,64.0,78.0,120.0,0.0,0.0
2928,65.0,762.0,90.0,1.0,0.0
2929,76.0,0.0,720.0,0.0,0.0
2930,54.0,0.0,720.0,3.0,0.0
2931,58.0,156.0,720.0,2.0,0.0
2932,70.0,0.0,720.0,1.0,0.0
2933,60.0,0.0,150.0,2.0,0.0
2934,77.0,0.0,150.0,0.0,0.0
2935,53.0,240.0,150.0,3.0,0.0
2936,69.0,0.0,150.0,1.0,0.0
2937,53.0,720.0,150.0,2.0,0.0
2938,72.0,0.0,150.0,0.0,0.0
2939,69.0,0.0,150.0,1.0,0.0
2940,51.0,0.0,150.0,3.0,0.0
2941,50.0,0.0,150.0,3.0,0.0
2942,74.0,0.0,150.0,0.0,0.0
2943,70.0,0.0,150.0,1.0,0.0
2944,53.0,444.0,150.0,2.0,0.0
2945,75.0,0.0,360.0,0.0,0.0
2946,67.0,78.0,360.0,1.0,0.0
2947,48.0,0.0,360.0,3.0,0.0
2948,50.0,0.0,90.0,3.0,0.0
2949,65.0,0.0,90.0,1.0,0.0
2950,74.0,198.0,90.0,0.0,0.0
2951,72.0,0.0,150.0,0.0,0.0
2952,51.0,0.0,150.0,3.0,0.0
2953,63.0,240.0,150.0,1.0,0.0
2954,70.0,0.0,150.0,0.0,0.0
2955,52.0,444.0,150.0,3.0,0.0
2956,62.0,0.0,150.0,1.0,0.0
2957,69.0,0.0,360.0,0.0,0.0
2958,60.0,1320.0,360.0,1.0,0.0
2959,53.0,0.0,360.0,1.0,0.0
2960,71.0,156.0,720.0,2.0,0.0
2961,74.0,0.0,720.0,1.0,0.0
2962,68.0,0.0,720.0,3.0,0.0
2963,77.0,0.0,720.0,0.0,0.0
2964,70.0,318.0,150.0,2.0,0.0
2965,75.0,0.0,150.0,1.0,0.0
2966,67.0,0.0,150.0,3.0,0.0
2967,79.0,0.0,150.0,0.0,0.0
2968,80.0,0.0,240.0,0.0,0.0
2969,65.0,0.0,240.0,3.0,0.0
2970,77.0,0.0,240.0,1.0,0.0
2971,68.0,642.0,240.0,2.0,0.0
2972,79.0,0.0,150.0,1.0,0.0
2973,63.0,0.0,150.0,3.0,0.0
2974,82.0,444.0,150.0,0.0,0.0
2975,67.0,0.0,150.0,2.0,0.0
2976,56.0,156.0,480.0,3.0,0.0
2977,80.0,78.0,360.0,1.0,0.0
2978,84.0,0.0,360.0,0.0,0.0
2979,60.0,0.0,360.0,2.0,0.0
2980,80.0,0.0,90.0,0.0,0.0
2981,77.0,42.0,90.0,1.0,0.0
2982,65.0,0.0,90.0,2.0,0.0
2983,75.0,0.0,150.0,1.0,0.0
2984,67.0,0.0,150.0,2.0,0.0
2985,79.0,240.0,150.0,0.0,0.0
2986,58.0,0.0,150.0,3.0,0.0
2987,68.0,444.0,150.0,2.0,0.0
2988,77.0,0.0,150.0,0.0,0.0
2989,74.0,0.0,150.0,1.0,0.0
2990,58.0,0.0,150.0,3.0,0.0
2991,79.0,1320.0,360.0,0.0,0.0
2992,75.0,0.0,360.0,1.0,0.0
2993,67.0,0.0,360.0,2.0,0.0
2994,63.0,0.0,360.0,3.0,0.0
2995,70.0,0.0,720.0,1.0,0.0
2996,67.0,156.0,720.0,3.0,0.0
2997,75.0,0.0,720.0,0.0,0.0
2998,65.0,444.0,150.0,3.0,0.0
2999,70.0,0.0,150.0,1.0,0.0
3000,74.0,0.0,150.0,0.0,0.0
3001,70.0,516.0,360.0,1.0,0.0
3002,79.0,0.0,360.0,0.0,0.0
3003,63.0,0.0,360.0,3.0,0.0
3004,70.0,0.0,150.0,1.0,0.0
3005,62.0,0.0,150.0,3.0,0.0
3006,77.0,444.0,150.0,0.0,0.0
3007,70.0,156.0,480.0,1.0,0.0
3008,60.0,0.0,360.0,3.0,0.0
3009,75.0,78.0,360.0,0.0,0.0
3010,62.0,0.0,90.0,3.0,0.0
3011,74.0,42.0,90.0,0.0,0.0
3012,63.0,0.0,150.0,3.0,0.0
3013,72.0,0.0,150.0,0.0,0.0
3014,70.0,240.0,150.0,1.0,0.0
3015,77.0,0.0,150.0,0.0,0.0
3016,69.0,204.0,150.0,1.0,0.0
3017,53.0,0.0,150.0,3.0,0.0
3018,58.0,42.0,150.0,3.0,0.0
3019,74.0,36.0,120.0,0.0,0.0
3020,70.0,162.0,90.0,1.0,0.0
3021,69.0,78.0,120.0,0.0,0.0
3022,65.0,120.0,240.0,3.0,0.0
3023,70.0,42.0,90.0,1.0,0.0
3024,67.0,120.0,240.0,3.0,0.0
3025,75.0,78.0,120.0,0.0,0.0
3026,82.0,42.0,90.0,1.0,0.0
3027,65.0,120.0,240.0,3.0,0.0
3028,74.0,78.0,120.0,0.0,0.0
3029,82.0,42.0,90.0,1.0,0.0
3030,79.0,78.0,120.0,0.0,0.0
3031,63.0,120.0,240.0,3.0,0.0
3032,82.0,42.0,90.0,1.0,0.0
3033,62.0,120.0,240.0,3.0,0.0
3034,77.0,78.0,120.0,0.0,0.0
3035,82.0,42.0,90.0,1.0,0.0
3036,81.0,78.0,120.0,0.0,0.0
3037,60.0,120.0,240.0,3.0,0.0
3038,84.0,42.0,90.0,1.0,0.0
3039,81.0,78.0,120.0,0.0,0.0
3040,53.0,120.0,240.0,3.0,0.0
3041,89.0,42.0,90.0,1.0,0.0
3042,82.0,78.0,120.0,0.0,0.0
3043,58.0,120.0,240.0,3.0,0.0
3044,86.0,42.0,90.0,1.0,0.0
3045,53.0,120.0,240.0,3.0,0.0
3046,82.0,78.0,120.0,0.0,0.0
3047,89.0,42.0,90.0,1.0,0.0
3048,50.0,120.0,240.0,3.0,0.0
3049,82.0,78.0,120.0,0.0,0.0
3050,89.0,42.0,90.0,1.0,0.0
3051,53.0,120.0,240.0,3.0,0.0
3052,86.0,78.0,120.0,0.0,0.0
3053,89.0,42.0,90.0,1.0,0.0
3054,46.0,120.0,240.0,3.0,0.0
3055,86.0,78.0,120.0,0.0,0.0
3056,89.0,42.0,90.0,1.0,0.0
3057,53.0,120.0,240.0,3.0,0.0
3058,86.0,78.0,120.0,0.0,0.0
3059,89.0,42.0,90.0,1.0,0.0
3060,84.0,78.0,120.0,0.0,0.0
3061,41.0,120.0,240.0,3.0,0.0
3062,87.0,42.0,90.0,1.0,0.0
3063,53.0,78.0,240.0,3.0,0.0
3064,81.0,78.0,120.0,0.0,0.0
3065,89.0,42.0,90.0,1.0,0.0
3066,86.0,78.0,90.0,1.0,0.0
3067,46.0,42.0,150.0,3.0,0.0
3068,82.0,162.0,90.0,1.0,0.0
3069,74.0,78.0,120.0,0.0,0.0
3070,65.0,120.0,240.0,3.0,0.0
3071,82.0,42.0,90.0,1.0,0.0
3072,67.0,120.0,240.0,3.0,0.0
3073,75.0,78.0,120.0,0.0,0.0
3074,82.0,42.0,90.0,1.0,0.0
3075,74.0,78.0,120.0,0.0,0.0
3076,65.0,120.0,240.0,3.0,0.0
3077,82.0,42.0,90.0,1.0,0.0
3078,79.0,78.0,120.0,0.0,0.0
3079,63.0,120.0,240.0,3.0,0.0
3080,82.0,42.0,90.0,1.0,0.0
3081,62.0,120.0,240.0,3.0,0.0
3082,77.0,78.0,120.0,0.0,0.0
3083,82.0,42.0,90.0,1.0,0.0
3084,81.0,78.0,120.0,0.0,0.0
3085,60.0,120.0,240.0,3.0,0.0
3086,84.0,42.0,90.0,1.0,0.0
3087,81.0,78.0,120.0,0.0,0.0
3088,53.0,120.0,240.0,3.0,0.0
3089,89.0,42.0,90.0,1.0,0.0
3090,58.0,120.0,240.0,3.0,0.0
3091,82.0,78.0,120.0,0.0,0.0
3092,86.0,42.0,90.0,1.0,0.0
3093,46.0,120.0,240.0,3.0,0.0
3094,82.0,78.0,120.0,0.0,0.0
3095,89.0,42.0,90.0,1.0,0.0
3096,82.0,78.0,120.0,0.0,0.0
3097,55.0,120.0,240.0,3.0,0.0
3098,86.0,42.0,90.0,1.0,0.0
3099,82.0,78.0,120.0,0.0,0.0
3100,43.0,120.0,240.0,3.0,0.0
3101,91.0,42.0,90.0,1.0,0.0
3102,51.0,120.0,240.0,3.0,0.0
3103,82.0,78.0,120.0,0.0,0.0
3104,91.0,42.0,90.0,1.0,0.0
3105,82.0,78.0,120.0,0.0,0.0
3106,39.0,120.0,240.0,3.0,0.0
3107,91.0,42.0,90.0,1.0,0.0
3108,49.0,120.0,240.0,3.0,0.0
3109,82.0,78.0,120.0,0.0,0.0
3110,91.0,42.0,90.0,1.0,0.0
3111,37.0,240.0,240.0,3.0,0.0
3112,82.0,78.0,120.0,0.0,0.0
3113,91.0,42.0,90.0,1.0,0.0
3114,81.0,120.0,240.0,0.0,0.0
3115,50.0,0.0,240.0,3.0,0.0
3116,38.0,0.0,240.0,3.0,0.0
3117,90.0,0.0,240.0,1.0,0.0
3118,75.0,78.0,120.0,0.0,0.0
3119,74.0,162.0,90.0,1.0,0.0
3120,74.0,78.0,120.0,0.0,0.0
3121,73.0,162.0,90.0,1.0,0.0
3122,74.0,78.0,120.0,0.0,0.0
3123,73.0,162.0,90.0,1.0,0.0
3124,72.0,78.0,120.0,0.0,0.0
3125,70.0,162.0,90.0,1.0,0.0
3126,72.0,78.0,120.0,0.0,0.0
3127,70.0,162.0,90.0,1.0,0.0
3128,70.0,78.0,120.0,0.0,0.0
3129,69.0,162.0,90.0,1.0,0.0
3130,70.0,78.0,120.0,0.0,0.0
3131,69.0,162.0,90.0,1.0,0.0
3132,69.0,78.0,120.0,0.0,0.0
3133,67.0,162.0,90.0,1.0,0.0
3134,69.0,78.0,120.0,0.0,0.0
3135,67.0,162.0,90.0,1.0,0.0
3136,67.0,78.0,120.0,0.0,0.0
3137,65.0,162.0,90.0,1.0,0.0
3138,67.0,78.0,120.0,0.0,0.0
3139,65.0,162.0,90.0,1.0,0.0
3140,65.0,78.0,120.0,0.0,0.0
3141,63.0,162.0,90.0,1.0,0.0
3142,65.0,78.0,120.0,0.0,0.0
3143,63.0,162.0,90.0,1.0,0.0
3144,63.0,78.0,120.0,0.0,0.0
3145,62.0,162.0,90.0,1.0,0.0
3146,63.0,78.0,120.0,0.0,0.0
3147,62.0,162.0,90.0,1.0,0.0
3148,62.0,78.0,120.0,0.0,0.0
3149,61.0,162.0,90.0,1.0,0.0
3150,62.0,78.0,120.0,0.0,0.0
3151,61.0,162.0,90.0,1.0,0.0
3152,62.0,78.0,120.0,0.0,0.0
3153,60.0,162.0,90.0,1.0,0.0
3154,62.0,78.0,120.0,0.0,0.0
3155,60.0,162.0,90.0,1.0,0.0
3156,62.0,78.0,120.0,0.0,0.0
3157,58.0,162.0,90.0,1.0,0.0
3158,62.0,78.0,120.0,0.0,0.0
3159,58.0,162.0,90.0,1.0,0.0
3160,62.0,78.0,120.0,0.0,0.0
3161,57.0,162.0,90.0,1.0,0.0
3162,62.0,78.0,120.0,0.0,0.0
3163,57.0,402.0,90.0,1.0,0.0
3164,43.0,156.0,1920.0,4.0,0.0
3165,59.0,42.0,150.0,3.0,0.0
3166,62.0,36.0,120.0,0.0,0.0
3167,67.0,162.0,90.0,1.0,0.0
3168,62.0,42.0,150.0,3.0,0.0
3169,67.0,36.0,120.0,0.0,0.0
3170,71.0,162.0,90.0,1.0,0.0
3171,71.0,36.0,120.0,0.0,0.0
3172,67.0,42.0,150.0,3.0,0.0
3173,74.0,162.0,90.0,1.0,0.0
3174,71.0,42.0,150.0,3.0,0.0
3175,74.0,36.0,120.0,0.0,0.0
3176,79.0,162.0,90.0,1.0,0.0
3177,79.0,36.0,120.0,0.0,0.0
3178,74.0,42.0,150.0,3.0,0.0
3179,83.0,162.0,90.0,1.0,0.0
3180,83.0,36.0,120.0,0.0,0.0
3181,79.0,42.0,150.0,3.0,0.0
3182,86.0,162.0,90.0,1.0,0.0
3183,83.0,42.0,150.0,3.0,0.0
3184,86.0,36.0,120.0,0.0,0.0
3185,91.0,42.0,90.0,1.0,0.0
3186,95.0,120.0,240.0,0.0,0.0
3187,86.0,84.0,150.0,3.0,0.0
3188,70.0,78.0,120.0,0.0,0.0
3189,55.0,120.0,240.0,3.0,0.0
3190,74.0,42.0,90.0,1.0,0.0
3191,67.0,78.0,120.0,0.0,0.0
3192,58.0,120.0,240.0,3.0,0.0
3193,74.0,42.0,90.0,1.0,0.0
3194,70.0,78.0,120.0,0.0,0.0
3195,55.0,120.0,240.0,3.0,0.0
3196,74.0,42.0,90.0,1.0,0.0
3197,67.0,78.0,120.0,0.0,0.0
3198,58.0,120.0,240.0,3.0,0.0
3199,74.0,42.0,90.0,1.0,0.0
3200,55.0,120.0,240.0,3.0,0.0
3201,70.0,78.0,120.0,0.0,0.0
3202,74.0,42.0,90.0,1.0,0.0
3203,57.0,120.0,240.0,3.0,0.0
3204,50.0,0.0,480.0,3.0,0.0
3205,72.0,78.0,120.0,0.0,0.0
3206,74.0,42.0,90.0,1.0,0.0
3207,54.0,360.0,240.0,3.0,0.0
3208,69.0,78.0,120.0,0.0,0.0
3209,74.0,42.0,90.0,1.0,0.0
3210,43.0,156.0,1920.0,4.0,0.0
3211,59.0,84.0,150.0,3.0,0.0
3212,62.0,36.0,120.0,0.0,0.0
3213,67.0,120.0,120.0,1.0,0.0
3214,67.0,36.0,120.0,0.0,0.0
3215,62.0,84.0,150.0,3.0,0.0
3216,71.0,120.0,120.0,1.0,0.0
3217,71.0,36.0,120.0,0.0,0.0
3218,67.0,84.0,150.0,3.0,0.0
3219,74.0,120.0,120.0,1.0,0.0
3220,71.0,84.0,150.0,3.0,0.0
3221,74.0,36.0,120.0,0.0,0.0
3222,79.0,120.0,120.0,1.0,0.0
3223,74.0,84.0,150.0,3.0,0.0
3224,79.0,36.0,120.0,0.0,0.0
3225,83.0,120.0,120.0,1.0,0.0
3226,83.0,36.0,120.0,0.0,0.0
3227,79.0,84.0,150.0,3.0,0.0
3228,86.0,120.0,120.0,1.0,0.0
3229,86.0,36.0,120.0,0.0,0.0
3230,83.0,84.0,150.0,3.0,0.0
3231,91.0,0.0,120.0,1.0,0.0
3232,86.0,84.0,150.0,3.0,0.0
3233,95.0,120.0,240.0,0.0,0.0
3234,70.0,120.0,120.0,0.0,0.0
3235,55.0,120.0,240.0,3.0,0.0
3236,74.0,0.0,120.0,1.0,0.0
3237,67.0,120.0,120.0,0.0,0.0
3238,58.0,0.0,240.0,3.0,0.0
3239,74.0,120.0,120.0,1.0,0.0
3240,70.0,120.0,120.0,0.0,0.0
3241,55.0,0.0,240.0,3.0,0.0
3242,74.0,120.0,120.0,1.0,0.0
3243,67.0,120.0,120.0,0.0,0.0
3244,58.0,120.0,240.0,3.0,0.0
3245,74.0,0.0,120.0,1.0,0.0
3246,55.0,120.0,240.0,3.0,0.0
3247,70.0,120.0,120.0,0.0,0.0
3248,74.0,0.0,120.0,1.0,0.0
3249,57.0,0.0,240.0,3.0,0.0
3250,72.0,120.0,120.0,0.0,0.0
3251,50.0,120.0,480.0,3.0,0.0
3252,74.0,120.0,120.0,1.0,0.0
3253,54.0,0.0,240.0,3.0,0.0
3254,69.0,120.0,120.0,0.0,0.0
3255,74.0,0.0,120.0,1.0,0.0
3256,55.0,6.0,180.0,3.0,0.0
3257,67.0,72.0,120.0,0.0,0.0
3258,70.0,162.0,90.0,1.0,0.0
3259,55.0,120.0,240.0,3.0,0.0
3260,70.0,78.0,120.0,0.0,0.0
3261,79.0,42.0,90.0,1.0,0.0
3262,62.0,120.0,240.0,3.0,0.0
3263,69.0,78.0,120.0,0.0,0.0
3264,78.0,42.0,90.0,1.0,0.0
3265,78.0,78.0,120.0,0.0,0.0
3266,50.0,120.0,240.0,3.0,0.0
3267,81.0,42.0,90.0,1.0,0.0
3268,70.0,78.0,120.0,0.0,0.0
3269,55.0,120.0,240.0,3.0,0.0
3270,79.0,42.0,90.0,1.0,0.0
3271,79.0,78.0,120.0,0.0,0.0
3272,43.0,120.0,240.0,3.0,0.0
3273,82.0,42.0,90.0,1.0,0.0
3274,78.0,78.0,120.0,0.0,0.0
3275,50.0,120.0,240.0,3.0,0.0
3276,81.0,42.0,90.0,1.0,0.0
3277,81.0,78.0,120.0,0.0,0.0
3278,38.0,120.0,240.0,3.0,0.0
3279,84.0,42.0,90.0,1.0,0.0
3280,43.0,42.0,150.0,3.0,0.0
3281,70.0,36.0,120.0,0.0,0.0
3282,79.0,162.0,90.0,1.0,0.0
3283,55.0,120.0,240.0,3.0,0.0
3284,79.0,78.0,120.0,0.0,0.0
3285,82.0,42.0,90.0,1.0,0.0
3286,78.0,78.0,120.0,0.0,0.0
3287,62.0,120.0,240.0,3.0,0.0
3288,81.0,42.0,90.0,1.0,0.0
3289,50.0,120.0,240.0,3.0,0.0
3290,81.0,78.0,120.0,0.0,0.0
3291,84.0,42.0,90.0,1.0,0.0
3292,79.0,78.0,120.0,0.0,0.0
3293,55.0,120.0,240.0,3.0,0.0
3294,82.0,42.0,90.0,1.0,0.0
3295,82.0,78.0,120.0,0.0,0.0
3296,43.0,120.0,240.0,3.0,0.0
3297,91.0,42.0,90.0,1.0,0.0
3298,50.0,120.0,240.0,3.0,0.0
3299,81.0,78.0,120.0,0.0,0.0
3300,90.0,42.0,90.0,1.0,0.0
3301,38.0,120.0,240.0,3.0,0.0
3302,84.0,78.0,120.0,0.0,0.0
3303,93.0,42.0,90.0,1.0,0.0
3304,67.0,36.0,120.0,0.0,0.0
3305,43.0,42.0,150.0,3.0,0.0
3306,70.0,162.0,90.0,1.0,0.0
3307,70.0,78.0,120.0,0.0,0.0
3308,55.0,120.0,240.0,3.0,0.0
3309,79.0,42.0,90.0,1.0,0.0
3310,69.0,78.0,120.0,0.0,0.0
3311,62.0,120.0,240.0,3.0,0.0
3312,78.0,42.0,90.0,1.0,0.0
3313,78.0,78.0,120.0,0.0,0.0
3314,50.0,120.0,240.0,3.0,0.0
3315,81.0,42.0,90.0,1.0,0.0
3316,55.0,120.0,240.0,3.0,0.0
3317,70.0,78.0,120.0,0.0,0.0
3318,79.0,42.0,90.0,1.0,0.0
3319,43.0,120.0,240.0,3.0,0.0
3320,79.0,78.0,120.0,0.0,0.0
3321,82.0,42.0,90.0,1.0,0.0
3322,50.0,120.0,240.0,3.0,0.0
3323,78.0,78.0,120.0,0.0,0.0
3324,81.0,42.0,90.0,1.0,0.0
3325,38.0,120.0,240.0,3.0,0.0
3326,81.0,78.0,120.0,0.0,0.0
3327,84.0,42.0,90.0,1.0,0.0
3328,70.0,36.0,120.0,0.0,0.0
3329,43.0,42.0,150.0,3.0,0.0
3330,79.0,162.0,90.0,1.0,0.0
3331,79.0,78.0,120.0,0.0,0.0
3332,55.0,120.0,240.0,3.0,0.0
3333,82.0,42.0,90.0,1.0,0.0
3334,62.0,120.0,240.0,3.0,0.0
3335,78.0,78.0,120.0,0.0,0.0
3336,81.0,42.0,90.0,1.0,0.0
3337,81.0,78.0,120.0,0.0,0.0
3338,50.0,120.0,240.0,3.0,0.0
3339,84.0,42.0,90.0,1.0,0.0
3340,55.0,120.0,240.0,3.0,0.0
3341,79.0,78.0,120.0,0.0,0.0
3342,82.0,42.0,90.0,1.0,0.0
3343,82.0,78.0,120.0,0.0,0.0
3344,43.0,120.0,240.0,3.0,0.0
3345,91.0,42.0,90.0,1.0,0.0
3346,53.0,120.0,240.0,3.0,0.0
3347,80.0,78.0,120.0,0.0,0.0
3348,82.0,42.0,90.0,1.0,0.0
3349,41.0,120.0,240.0,3.0,0.0
3350,82.0,78.0,120.0,0.0,0.0
3351,92.0,42.0,90.0,1.0,0.0
3352,79.0,78.0,120.0,0.0,0.0
3353,51.0,120.0,240.0,3.0,0.0
3354,82.0,42.0,90.0,1.0,0.0
3355,87.0,78.0,120.0,0.0,0.0
3356,39.0,120.0,240.0,3.0,0.0
3357,91.0,42.0,90.0,1.0,0.0
3358,87.0,78.0,120.0,0.0,0.0
3359,51.0,120.0,240.0,3.0,0.0
3360,91.0,42.0,90.0,1.0,0.0
3361,39.0,360.0,240.0,3.0,0.0
3362,87.0,78.0,120.0,0.0,0.0
3363,91.0,42.0,90.0,1.0,0.0
3364,81.0,0.0,360.0,0.0,0.0
3365,47.0,0.0,360.0,3.0,0.0
3366,35.0,0.0,360.0,3.0,0.0
3367,87.0,0.0,360.0,1.0,0.0
3368,93.0,0.0,360.0,1.0,0.0
3369,90.0,480.0,360.0,1.0,0.0
3370,62.0,78.0,120.0,0.0,0.0
3371,63.0,162.0,90.0,1.0,0.0
3372,62.0,78.0,120.0,0.0,0.0
3373,63.0,162.0,90.0,1.0,0.0
3374,62.0,78.0,120.0,0.0,0.0
3375,63.0,162.0,90.0,1.0,0.0
3376,65.0,78.0,120.0,0.0,0.0
3377,66.0,162.0,90.0,1.0,0.0
3378,65.0,78.0,120.0,0.0,0.0
3379,66.0,162.0,90.0,1.0,0.0
3380,68.0,78.0,120.0,0.0,0.0
3381,69.0,162.0,90.0,1.0,0.0
3382,68.0,78.0,120.0,0.0,0.0
3383,69.0,162.0,90.0,1.0,0.0
3384,74.0,78.0,120.0,0.0,0.0
3385,75.0,162.0,90.0,1.0,0.0
3386,74.0,78.0,120.0,0.0,0.0
3387,75.0,162.0,90.0,1.0,0.0
3388,77.0,78.0,120.0,0.0,0.0
3389,78.0,162.0,90.0,1.0,0.0
3390,77.0,78.0,120.0,0.0,0.0
3391,78.0,162.0,90.0,1.0,0.0
3392,80.0,78.0,120.0,0.0,0.0
3393,81.0,162.0,90.0,1.0,0.0
3394,80.0,78.0,120.0,0.0,0.0
3395,81.0,162.0,90.0,1.0,0.0
3396,86.0,78.0,120.0,0.0,0.0
3397,87.0,162.0,90.0,1.0,0.0
3398,86.0,78.0,120.0,0.0,0.0
3399,87.0,162.0,90.0,1.0,0.0
3400,89.0,78.0,120.0,0.0,0.0
3401,90.0,162.0,90.0,1.0,0.0
3402,89.0,78.0,120.0,0.0,0.0
3403,90.0,162.0,90.0,1.0,0.0
3404,89.0,78.0,120.0,0.0,0.0
3405,90.0,162.0,90.0,1.0,0.0
3406,92.0,78.0,120.0,0.0,0.0
3407,93.0,162.0,90.0,1.0,0.0
3408,86.0,78.0,120.0,0.0,0.0
3409,87.0,162.0,90.0,1.0,0.0
3410,90.0,78.0,120.0,0.0,0.0
3411,93.0,162.0,90.0,1.0,0.0
3412,89.0,78.0,120.0,0.0,0.0
3413,90.0,162.0,90.0,1.0,0.0
3414,92.0,78.0,120.0,0.0,0.0
3415,93.0,162.0,90.0,1.0,0.0
3416,86.0,78.0,120.0,0.0,0.0
3417,87.0,162.0,90.0,1.0,0.0
3418,90.0,78.0,120.0,0.0,0.0
3419,93.0,162.0,90.0,1.0,0.0
3420,89.0,78.0,120.0,0.0,0.0
3421,90.0,162.0,90.0,1.0,0.0
3422,92.0,78.0,120.0,0.0,0.0
3423,93.0,162.0,90.0,1.0,0.0
3424,86.0,78.0,120.0,0.0,0.0
3425,87.0,162.0,90.0,1.0,0.0
3426,90.0,78.0,120.0,0.0,0.0
3427,93.0,162.0,90.0,1.0,0.0
3428,82.0,78.0,120.0,0.0,0.0
3429,83.0,162.0,90.0,1.0,0.0
3430,90.0,78.0,120.0,0.0,0.0
3431,93.0,162.0,90.0,1.0,0.0
3432,80.0,78.0,120.0,0.0,0.0
3433,81.0,162.0,90.0,1.0,0.0
3434,80.0,78.0,120.0,0.0,0.0
3435,81.0,162.0,90.0,1.0,0.0
3436,77.0,78.0,120.0,0.0,0.0
3437,78.0,162.0,90.0,1.0,0.0
3438,80.0,78.0,120.0,0.0,0.0
3439,81.0,162.0,90.0,1.0,0.0
3440,74.0,78.0,120.0,0.0,0.0
3441,75.0,162.0,90.0,1.0,0.0
3442,78.0,78.0,120.0,0.0,0.0
3443,81.0,162.0,90.0,1.0,0.0
3444,77.0,78.0,120.0,0.0,0.0
3445,78.0,162.0,90.0,1.0,0.0
3446,80.0,78.0,120.0,0.0,0.0
3447,81.0,162.0,90.0,1.0,0.0
3448,74.0,78.0,120.0,0.0,0.0
3449,75.0,162.0,90.0,1.0,0.0
3450,78.0,78.0,120.0,0.0,0.0
3451,81.0,162.0,90.0,1.0,0.0
3452,77.0,78.0,120.0,0.0,0.0
3453,78.0,162.0,90.0,1.0,0.0
3454,80.0,78.0,120.0,0.0,0.0
3455,81.0,162.0,90.0,1.0,0.0
3456,86.0,78.0,120.0,0.0,0.0
3457,87.0,162.0,90.0,1.0,0.0
3458,78.0,78.0,120.0,0.0,0.0
3459,81.0,162.0,90.0,1.0,0.0
3460,89.0,78.0,120.0,0.0,0.0
3461,90.0,162.0,90.0,1.0,0.0
3462,78.0,78.0,120.0,0.0,0.0
3463,81.0,162.0,90.0,1.0,0.0
3464,86.0,78.0,120.0,0.0,0.0
3465,87.0,162.0,90.0,1.0,0.0
3466,78.0,78.0,120.0,0.0,0.0
3467,81.0,162.0,90.0,1.0,0.0
3468,77.0,78.0,120.0,0.0,0.0
3469,78.0,162.0,90.0,1.0,0.0
3470,89.0,78.0,120.0,0.0,0.0
3471,90.0,162.0,90.0,1.0,0.0
3472,74.0,78.0,120.0,0.0,0.0
3473,75.0,162.0,90.0,1.0,0.0
3474,86.0,78.0,120.0,0.0,0.0
3475,87.0,162.0,90.0,1.0,0.0
3476,77.0,78.0,120.0,0.0,0.0
3477,78.0,162.0,90.0,1.0,0.0
3478,89.0,78.0,120.0,0.0,0.0
3479,90.0,162.0,90.0,1.0,0.0
3480,74.0,78.0,120.0,0.0,0.0
3481,75.0,162.0,90.0,1.0,0.0
3482,86.0,78.0,120.0,0.0,0.0
3483,87.0,762.0,90.0,1.0,0.0
3484,87.0,0.0,720.0,1.0,0.0
3485,71.0,0.0,720.0,3.0,0.0
3486,93.0,156.0,720.0,0.0,0.0
3487,81.0,0.0,720.0,1.0,0.0
3488,75.0,0.0,720.0,2.0,0.0
3489,70.0,0.0,150.0,3.0,0.0
3490,94.0,363.0,150.0,0.0,0.0
3491,74.0,0.0,150.0,2.0,0.0
3492,77.0,0.0,150.0,1.0,0.0
3493,86.0,0.0,150.0,1.0,0.0
3494,82.0,0.0,150.0,1.0,0.0
3495,86.0,0.0,270.0,1.0,0.0
3496,74.0,597.0,270.0,2.0,0.0
3497,70.0,0.0,270.0,3.0,0.0
3498,82.0,0.0,270.0,1.0,0.0
3499,77.0,0.0,270.0,1.0,0.0
3500,89.0,0.0,270.0,0.0,0.0
3501,67.0,444.0,150.0,0.0,0.0
3502,39.0,0.0,150.0,3.0,0.0
3503,63.0,0.0,150.0,1.0,0.0
3504,41.0,0.0,360.0,3.0,0.0
3505,60.0,0.0,360.0,1.0,0.0
3506,68.0,78.0,360.0,0.0,0.0
3507,43.0,0.0,90.0,3.0,0.0
3508,67.0,0.0,90.0,0.0,0.0
3509,58.0,198.0,90.0,1.0,0.0
3510,44.0,0.0,150.0,3.0,0.0
3511,65.0,240.0,150.0,0.0,0.0
3512,56.0,0.0,150.0,1.0,0.0
3513,63.0,0.0,150.0,0.0,0.0
3514,45.0,0.0,150.0,3.0,0.0
3515,55.0,444.0,150.0,1.0,0.0
3516,46.0,0.0,360.0,3.0,0.0
3517,62.0,0.0,360.0,0.0,0.0
3518,53.0,1320.0,360.0,1.0,0.0
3519,82.0,0.0,720.0,1.0,0.0
3520,91.0,0.0,720.0,0.0,0.0
3521,73.0,0.0,720.0,3.0,0.0
3522,75.0,0.0,720.0,2.0,0.0
3523,87.0,156.0,720.0,1.0,0.0
3524,79.0,0.0,720.0,1.0,0.0
3525,75.0,0.0,150.0,2.0,0.0
3526,92.0,240.0,150.0,0.0,0.0
3527,87.0,0.0,150.0,1.0,0.0
3528,80.0,0.0,150.0,1.0,0.0
3529,84.0,0.0,150.0,1.0,0.0
3530,72.0,0.0,150.0,3.0,0.0
3531,73.0,0.0,150.0,2.0,0.0
3532,70.0,0.0,150.0,3.0,0.0
3533,75.0,0.0,150.0,2.0,0.0
3534,82.0,720.0,150.0,1.0,0.0
3535,85.0,0.0,150.0,1.0,0.0
3536,94.0,0.0,150.0,0.0,0.0
3537,91.0,0.0,150.0,1.0,0.0
3538,63.0,0.0,150.0,0.0,0.0
3539,44.0,0.0,150.0,3.0,0.0
3540,60.0,444.0,150.0,1.0,0.0
3541,65.0,0.0,360.0,0.0,0.0
3542,37.0,78.0,360.0,3.0,0.0
3543,61.0,0.0,360.0,1.0,0.0
3544,58.0,0.0,90.0,1.0,0.0
3545,61.0,198.0,90.0,0.0,0.0
3546,49.0,0.0,90.0,3.0,0.0
3547,51.0,0.0,150.0,3.0,0.0
3548,60.0,0.0,150.0,0.0,0.0
3549,56.0,240.0,150.0,1.0,0.0
3550,58.0,0.0,150.0,0.0,0.0
3551,39.0,444.0,150.0,3.0,0.0
3552,55.0,0.0,150.0,1.0,0.0
3553,60.0,0.0,360.0,0.0,0.0
3554,56.0,1320.0,360.0,1.0,0.0
3555,44.0,0.0,360.0,3.0,0.0
3556,92.0,0.0,720.0,0.0,0.0
3557,72.0,156.0,720.0,3.0,0.0
3558,75.0,0.0,720.0,2.0,0.0
3559,80.0,0.0,720.0,1.0,0.0
3560,87.0,0.0,720.0,1.0,0.0
3561,91.0,0.0,150.0,0.0,0.0
3562,75.0,0.0,150.0,2.0,0.0
3563,70.0,240.0,150.0,3.0,0.0
3564,79.0,0.0,150.0,1.0,0.0
3565,87.0,0.0,150.0,1.0,0.0
3566,84.0,0.0,150.0,1.0,0.0
3567,68.0,0.0,150.0,3.0,0.0
3568,87.0,720.0,150.0,1.0,0.0
3569,75.0,0.0,150.0,2.0,0.0
3570,96.0,0.0,150.0,0.0,0.0
3571,63.0,0.0,150.0,1.0,0.0
3572,58.0,0.0,150.0,1.0,0.0
3573,43.0,444.0,150.0,3.0,0.0
3574,70.0,0.0,150.0,0.0,0.0
3575,68.0,0.0,360.0,0.0,0.0
3576,41.0,78.0,360.0,3.0,0.0
3577,60.0,0.0,480.0,1.0,0.0
3578,67.0,0.0,90.0,0.0,0.0
3579,43.0,42.0,90.0,3.0,0.0
3580,63.0,156.0,15.0,1.0,0.0
3581,65.0,0.0,150.0,0.0,0.0
3582,44.0,0.0,150.0,3.0,0.0
3583,60.0,240.0,150.0,1.0,0.0
3584,46.0,204.0,150.0,3.0,0.0
3585,62.0,0.0,150.0,1.0,0.0
3586,70.0,0.0,150.0,0.0,0.0
3587,67.0,36.0,120.0,0.0,0.0
3588,51.0,42.0,150.0,3.0,0.0
3589,63.0,162.0,90.0,1.0,0.0
3590,62.0,78.0,120.0,0.0,0.0
3591,58.0,120.0,240.0,3.0,0.0
3592,63.0,42.0,90.0,1.0,0.0
3593,68.0,78.0,120.0,0.0,0.0
3594,60.0,120.0,240.0,3.0,0.0
3595,75.0,42.0,90.0,1.0,0.0
3596,67.0,78.0,120.0,0.0,0.0
3597,58.0,120.0,240.0,3.0,0.0
3598,75.0,42.0,90.0,1.0,0.0
3599,56.0,120.0,240.0,3.0,0.0
3600,72.0,78.0,120.0,0.0,0.0
3601,75.0,42.0,90.0,1.0,0.0
3602,70.0,78.0,120.0,0.0,0.0
3603,55.0,120.0,240.0,3.0,0.0
3604,75.0,42.0,90.0,1.0,0.0
3605,74.0,78.0,120.0,0.0,0.0
3606,53.0,120.0,240.0,3.0,0.0
3607,77.0,42.0,90.0,1.0,0.0
3608,74.0,78.0,120.0,0.0,0.0
3609,46.0,120.0,240.0,3.0,0.0
3610,82.0,42.0,90.0,1.0,0.0
3611,51.0,120.0,240.0,3.0,0.0
3612,75.0,78.0,120.0,0.0,0.0
3613,79.0,42.0,90.0,1.0,0.0
3614,46.0,120.0,240.0,3.0,0.0
3615,75.0,78.0,120.0,0.0,0.0
3616,82.0,42.0,90.0,1.0,0.0
3617,75.0,78.0,120.0,0.0,0.0
3618,43.0,120.0,240.0,3.0,0.0
3619,82.0,42.0,90.0,1.0,0.0
3620,79.0,78.0,120.0,0.0,0.0
3621,46.0,120.0,240.0,3.0,0.0
3622,82.0,42.0,90.0,1.0,0.0
3623,39.0,120.0,240.0,3.0,0.0
3624,79.0,78.0,120.0,0.0,0.0
3625,82.0,42.0,90.0,1.0,0.0
3626,79.0,78.0,120.0,0.0,0.0
3627,46.0,120.0,240.0,3.0,0.0
3628,82.0,42.0,90.0,1.0,0.0
3629,34.0,120.0,240.0,3.0,0.0
3630,77.0,78.0,120.0,0.0,0.0
3631,80.0,42.0,90.0,1.0,0.0
3632,74.0,78.0,120.0,0.0,0.0
3633,46.0,120.0,240.0,3.0,0.0
3634,82.0,42.0,90.0,1.0,0.0
3635,39.0,42.0,150.0,3.0,0.0
3636,79.0,36.0,120.0,0.0,0.0
3637,75.0,162.0,90.0,1.0,0.0
3638,67.0,78.0,120.0,0.0,0.0
3639,58.0,120.0,240.0,3.0,0.0
3640,75.0,42.0,90.0,1.0,0.0
3641,68.0,78.0,120.0,0.0,0.0
3642,60.0,120.0,240.0,3.0,0.0
3643,75.0,42.0,90.0,1.0,0.0
3644,58.0,120.0,240.0,3.0,0.0
3645,67.0,78.0,120.0,0.0,0.0
3646,75.0,42.0,90.0,1.0,0.0
3647,56.0,120.0,240.0,3.0,0.0
3648,72.0,78.0,120.0,0.0,0.0
3649,75.0,42.0,90.0,1.0,0.0
3650,55.0,120.0,240.0,3.0,0.0
3651,70.0,78.0,120.0,0.0,0.0
3652,75.0,42.0,90.0,1.0,0.0
3653,53.0,120.0,240.0,3.0,0.0
3654,74.0,78.0,120.0,0.0,0.0
3655,77.0,42.0,90.0,1.0,0.0
3656,46.0,120.0,240.0,3.0,0.0
3657,74.0,78.0,120.0,0.0,0.0
3658,82.0,42.0,90.0,1.0,0.0
3659,51.0,120.0,240.0,3.0,0.0
3660,75.0,78.0,120.0,0.0,0.0
3661,79.0,42.0,90.0,1.0,0.0
3662,75.0,78.0,120.0,0.0,0.0
3663,46.0,120.0,240.0,3.0,0.0
3664,82.0,42.0,90.0,1.0,0.0
3665,42.0,120.0,240.0,3.0,0.0
3666,75.0,78.0,120.0,0.0,0.0
3667,82.0,42.0,90.0,1.0,0.0
3668,78.0,78.0,120.0,0.0,0.0
3669,46.0,120.0,240.0,3.0,0.0
3670,82.0,42.0,90.0,1.0,0.0
3671,78.0,78.0,120.0,0.0,0.0
3672,39.0,120.0,240.0,3.0,0.0
3673,87.0,42.0,90.0,1.0,0.0
3674,46.0,120.0,240.0,3.0,0.0
3675,78.0,78.0,120.0,0.0,0.0
3676,87.0,42.0,90.0,1.0,0.0
3677,41.0,120.0,240.0,3.0,0.0
3678,77.0,0.0,120.0,0.0,0.0
3679,81.0,78.0,120.0,0.0,0.0
3680,87.0,42.0,90.0,1.0,0.0
3681,45.0,120.0,240.0,3.0,0.0
3682,84.0,78.0,120.0,0.0,0.0
3683,77.0,0.0,120.0,0.0,0.0
3684,87.0,42.0,90.0,1.0,0.0
3685,82.0,0.0,120.0,0.0,0.0
3686,77.0,78.0,120.0,0.0,0.0
3687,46.0,120.0,240.0,3.0,0.0
3688,85.0,42.0,90.0,1.0,0.0
3689,53.0,120.0,240.0,3.0,0.0
3690,82.0,78.0,120.0,0.0,0.0
3691,77.0,0.0,120.0,0.0,0.0
3692,85.0,42.0,90.0,1.0,0.0
3693,77.0,78.0,120.0,0.0,0.0
3694,82.0,0.0,120.0,0.0,0.0
3695,49.0,120.0,240.0,3.0,0.0
3696,85.0,42.0,90.0,1.0,0.0
3697,77.0,0.0,120.0,0.0,0.0
3698,82.0,78.0,120.0,0.0,0.0
3699,53.0,120.0,240.0,3.0,0.0
3700,85.0,42.0,90.0,1.0,0.0
3701,77.0,0.0,120.0,0.0,0.0
3702,82.0,78.0,120.0,0.0,0.0
3703,46.0,120.0,240.0,3.0,0.0
3704,85.0,42.0,90.0,1.0,0.0
3705,58.0,120.0,240.0,3.0,0.0
3706,77.0,78.0,120.0,0.0,0.0
3707,73.0,0.0,120.0,0.0,0.0
3708,82.0,42.0,90.0,1.0,0.0
3709,42.0,120.0,240.0,3.0,0.0
3710,77.0,78.0,120.0,0.0,0.0
3711,70.0,0.0,120.0,0.0,0.0
3712,82.0,42.0,90.0,1.0,0.0
3713,76.0,78.0,120.0,0.0,0.0
3714,70.0,0.0,120.0,0.0,0.0
3715,54.0,240.0,240.0,3.0,0.0
3716,82.0,42.0,90.0,1.0,0.0
3717,77.0,120.0,240.0,0.0,0.0
3718,41.0,0.0,240.0,3.0,0.0
3719,53.0,0.0,240.0,3.0,0.0
3720,69.0,0.0,240.0,0.0,0.0
3721,81.0,0.0,240.0,1.0,0.0
3722,77.0,78.0,120.0,0.0,0.0
3723,75.0,162.0,90.0,1.0,0.0
3724,75.0,78.0,120.0,0.0,0.0
3725,73.0,162.0,90.0,1.0,0.0
3726,75.0,78.0,120.0,0.0,0.0
3727,73.0,162.0,90.0,1.0,0.0
3728,73.0,78.0,120.0,0.0,0.0
3729,72.0,162.0,90.0,1.0,0.0
3730,73.0,78.0,120.0,0.0,0.0
3731,72.0,162.0,90.0,1.0,0.0
3732,72.0,78.0,120.0,0.0,0.0
3733,70.0,162.0,90.0,1.0,0.0
3734,72.0,78.0,120.0,0.0,0.0
3735,70.0,162.0,90.0,1.0,0.0
3736,70.0,78.0,120.0,0.0,0.0
3737,69.0,162.0,90.0,1.0,0.0
3738,70.0,78.0,120.0,0.0,0.0
3739,69.0,162.0,90.0,1.0,0.0
3740,69.0,78.0,120.0,0.0,0.0
3741,66.0,162.0,90.0,1.0,0.0
3742,69.0,78.0,120.0,0.0,0.0
3743,66.0,162.0,90.0,1.0,0.0
3744,66.0,78.0,120.0,0.0,0.0
3745,65.0,162.0,90.0,1.0,0.0
3746,66.0,78.0,120.0,0.0,0.0
3747,65.0,162.0,90.0,1.0,0.0
3748,65.0,78.0,120.0,0.0,0.0
3749,64.0,162.0,90.0,1.0,0.0
3750,65.0,78.0,120.0,0.0,0.0
3751,64.0,162.0,90.0,1.0,0.0
3752,65.0,78.0,120.0,0.0,0.0
3753,64.0,162.0,90.0,1.0,0.0
3754,65.0,78.0,120.0,0.0,0.0
3755,64.0,162.0,90.0,1.0,0.0
3756,65.0,78.0,120.0,0.0,0.0
3757,63.0,162.0,90.0,1.0,0.0
3758,65.0,78.0,120.0,0.0,0.0
3759,63.0,162.0,90.0,1.0,0.0
3760,65.0,78.0,120.0,0.0,0.0
3761,61.0,162.0,90.0,1.0,0.0
3762,65.0,78.0,120.0,0.0,0.0
3763,61.0,162.0,90.0,1.0,0.0
3764,65.0,78.0,120.0,0.0,0.0
3765,60.0,162.0,90.0,1.0,0.0
3766,65.0,78.0,120.0,0.0,0.0
3767,60.0,282.0,90.0,1.0,0.0
3768,46.0,120.0,240.0,3.0,0.0
3769,62.0,0.0,240.0,3.0,0.0
3770,65.0,120.0,120.0,0.0,0.0
3771,70.0,120.0,120.0,1.0,0.0
3772,65.0,0.0,240.0,3.0,0.0
3773,70.0,120.0,120.0,0.0,0.0
3774,74.0,120.0,120.0,1.0,0.0
3775,70.0,0.0,240.0,3.0,0.0
3776,74.0,120.0,120.0,0.0,0.0
3777,77.0,120.0,120.0,1.0,0.0
3778,74.0,120.0,240.0,3.0,0.0
3779,77.0,120.0,120.0,0.0,0.0
3780,82.0,0.0,120.0,1.0,0.0
3781,77.0,120.0,240.0,3.0,0.0
3782,82.0,120.0,120.0,0.0,0.0
3783,86.0,0.0,120.0,1.0,0.0
3784,86.0,120.0,120.0,0.0,0.0
3785,82.0,120.0,240.0,3.0,0.0
3786,89.0,0.0,120.0,1.0,0.0
3787,86.0,240.0,240.0,3.0,0.0
3788,89.0,120.0,120.0,0.0,0.0
3789,94.0,0.0,120.0,1.0,0.0
3790,89.0,120.0,240.0,3.0,0.0
3791,98.0,0.0,240.0,0.0,0.0
3792,73.0,78.0,120.0,0.0,0.0
3793,58.0,120.0,240.0,3.0,0.0
3794,77.0,42.0,90.0,1.0,0.0
3795,70.0,78.0,120.0,0.0,0.0
3796,61.0,120.0,240.0,3.0,0.0
3797,77.0,42.0,90.0,1.0,0.0
3798,58.0,120.0,240.0,3.0,0.0
3799,73.0,78.0,120.0,0.0,0.0
3800,77.0,42.0,90.0,1.0,0.0
3801,70.0,78.0,120.0,0.0,0.0
3802,61.0,120.0,240.0,3.0,0.0
3803,77.0,42.0,90.0,1.0,0.0
3804,58.0,120.0,240.0,3.0,0.0
3805,73.0,78.0,120.0,0.0,0.0
3806,77.0,42.0,90.0,1.0,0.0
3807,60.0,120.0,240.0,3.0,0.0
3808,53.0,240.0,480.0,3.0,0.0
3809,75.0,78.0,120.0,0.0,0.0
3810,77.0,42.0,90.0,1.0,0.0
3811,57.0,0.0,240.0,3.0,0.0
3812,72.0,78.0,120.0,0.0,0.0
3813,77.0,42.0,90.0,1.0,0.0
3814,46.0,120.0,240.0,3.0,0.0
3815,62.0,0.0,240.0,3.0,0.0
3816,65.0,120.0,120.0,0.0,0.0
3817,70.0,120.0,120.0,1.0,0.0
3818,70.0,120.0,120.0,0.0,0.0
3819,65.0,120.0,240.0,3.0,0.0
3820,74.0,0.0,120.0,1.0,0.0
3821,74.0,120.0,120.0,0.0,0.0
3822,70.0,0.0,240.0,3.0,0.0
3823,77.0,120.0,120.0,1.0,0.0
3824,74.0,120.0,240.0,3.0,0.0
3825,77.0,120.0,120.0,0.0,0.0
3826,82.0,0.0,120.0,1.0,0.0
3827,82.0,120.0,120.0,0.0,0.0
3828,77.0,0.0,240.0,3.0,0.0
3829,86.0,120.0,120.0,1.0,0.0
3830,86.0,120.0,120.0,0.0,0.0
3831,82.0,120.0,240.0,3.0,0.0
3832,89.0,0.0,120.0,1.0,0.0
3833,89.0,120.0,120.0,0.0,0.0
3834,86.0,0.0,240.0,3.0,0.0
3835,94.0,240.0,120.0,1.0,0.0
3836,89.0,120.0,240.0,3.0,0.0
3837,98.0,0.0,240.0,0.0,0.0
3838,58.0,120.0,240.0,3.0,0.0
3839,73.0,78.0,120.0,0.0,0.0
3840,77.0,42.0,90.0,1.0,0.0
3841,61.0,120.0,240.0,3.0,0.0
3842,70.0,78.0,120.0,0.0,0.0
3843,77.0,42.0,90.0,1.0,0.0
3844,73.0,78.0,120.0,0.0,0.0
3845,58.0,120.0,240.0,3.0,0.0
3846,77.0,42.0,90.0,1.0,0.0
3847,70.0,78.0,120.0,0.0,0.0
3848,61.0,120.0,240.0,3.0,0.0
3849,77.0,42.0,90.0,1.0,0.0
3850,58.0,120.0,240.0,3.0,0.0
3851,73.0,78.0,120.0,0.0,0.0
3852,77.0,42.0,90.0,1.0,0.0
3853,53.0,120.0,480.0,3.0,0.0
3854,60.0,120.0,240.0,3.0,0.0
3855,75.0,78.0,120.0,0.0,0.0
3856,77.0,42.0,90.0,1.0,0.0
3857,57.0,0.0,240.0,3.0,0.0
3858,72.0,78.0,120.0,0.0,0.0
3859,77.0,42.0,90.0,1.0,0.0
3860,70.0,36.0,120.0,0.0,0.0
3861,58.0,42.0,150.0,3.0,0.0
3862,73.0,162.0,90.0,1.0,0.0
3863,58.0,120.0,240.0,3.0,0.0
3864,73.0,78.0,120.0,0.0,0.0
3865,82.0,42.0,90.0,1.0,0.0
3866,65.0,120.0,240.0,3.0,0.0
3867,72.0,78.0,120.0,0.0,0.0
3868,81.0,42.0,90.0,1.0,0.0
3869,81.0,78.0,120.0,0.0,0.0
3870,53.0,120.0,240.0,3.0,0.0
3871,84.0,42.0,90.0,1.0,0.0
3872,73.0,78.0,120.0,0.0,0.0
3873,58.0,120.0,240.0,3.0,0.0
3874,82.0,42.0,90.0,1.0,0.0
3875,46.0,120.0,240.0,3.0,0.0
3876,82.0,78.0,120.0,0.0,0.0
3877,85.0,42.0,90.0,1.0,0.0
3878,81.0,78.0,120.0,0.0,0.0
3879,53.0,120.0,240.0,3.0,0.0
3880,84.0,42.0,90.0,1.0,0.0
3881,84.0,78.0,120.0,0.0,0.0
3882,41.0,120.0,240.0,3.0,0.0
3883,87.0,42.0,90.0,1.0,0.0
3884,46.0,42.0,150.0,3.0,0.0
3885,73.0,36.0,120.0,0.0,0.0
3886,82.0,162.0,90.0,1.0,0.0
3887,58.0,120.0,240.0,3.0,0.0
3888,82.0,78.0,120.0,0.0,0.0
3889,85.0,42.0,90.0,1.0,0.0
3890,81.0,78.0,120.0,0.0,0.0
3891,65.0,120.0,240.0,3.0,0.0
3892,84.0,42.0,90.0,1.0,0.0
3893,53.0,120.0,240.0,3.0,0.0
3894,84.0,78.0,120.0,0.0,0.0
3895,87.0,42.0,90.0,1.0,0.0
3896,58.0,120.0,240.0,3.0,0.0
3897,82.0,78.0,120.0,0.0,0.0
3898,85.0,42.0,90.0,1.0,0.0
3899,46.0,120.0,240.0,3.0,0.0
3900,85.0,78.0,120.0,0.0,0.0
3901,94.0,42.0,90.0,1.0,0.0
3902,84.0,78.0,120.0,0.0,0.0
3903,53.0,120.0,240.0,3.0,0.0
3904,93.0,42.0,90.0,1.0,0.0
3905,87.0,78.0,120.0,0.0,0.0
3906,41.0,120.0,240.0,3.0,0.0
3907,96.0,42.0,90.0,1.0,0.0
3908,70.0,36.0,120.0,0.0,0.0
3909,46.0,42.0,150.0,3.0,0.0
3910,73.0,162.0,90.0,1.0,0.0
3911,73.0,78.0,120.0,0.0,0.0
3912,58.0,120.0,240.0,3.0,0.0
3913,82.0,42.0,90.0,1.0,0.0
3914,72.0,78.0,120.0,0.0,0.0
3915,65.0,120.0,240.0,3.0,0.0
3916,81.0,42.0,90.0,1.0,0.0
3917,81.0,78.0,120.0,0.0,0.0
3918,53.0,120.0,240.0,3.0,0.0
3919,84.0,42.0,90.0,1.0,0.0
3920,58.0,120.0,240.0,3.0,0.0
3921,73.0,78.0,120.0,0.0,0.0
3922,82.0,42.0,90.0,1.0,0.0
3923,46.0,120.0,240.0,3.0,0.0
3924,82.0,78.0,120.0,0.0,0.0
3925,85.0,42.0,90.0,1.0,0.0
3926,81.0,78.0,120.0,0.0,0.0
3927,53.0,120.0,240.0,3.0,0.0
3928,84.0,42.0,90.0,1.0,0.0
3929,41.0,120.0,240.0,3.0,0.0
3930,84.0,78.0,120.0,0.0,0.0
3931,87.0,42.0,90.0,1.0,0.0
3932,46.0,42.0,150.0,3.0,0.0
3933,73.0,36.0,120.0,0.0,0.0
3934,82.0,162.0,90.0,1.0,0.0
3935,58.0,120.0,240.0,3.0,0.0
3936,82.0,78.0,120.0,0.0,0.0
3937,85.0,42.0,90.0,1.0,0.0
3938,65.0,120.0,240.0,3.0,0.0
3939,81.0,78.0,120.0,0.0,0.0
3940,84.0,42.0,90.0,1.0,0.0
3941,53.0,120.0,240.0,3.0,0.0
3942,84.0,78.0,120.0,0.0,0.0
3943,87.0,42.0,90.0,1.0,0.0
3944,58.0,120.0,240.0,3.0,0.0
3945,82.0,78.0,120.0,0.0,0.0
3946,85.0,42.0,90.0,1.0,0.0
3947,46.0,120.0,240.0,3.0,0.0
3948,85.0,78.0,120.0,0.0,0.0
3949,94.0,42.0,90.0,1.0,0.0
3950,82.0,78.0,120.0,0.0,0.0
3951,56.0,120.0,240.0,3.0,0.0
3952,85.0,42.0,90.0,1.0,0.0
3953,44.0,120.0,240.0,3.0,0.0
3954,85.0,78.0,120.0,0.0,0.0
3955,94.0,42.0,90.0,1.0,0.0
3956,54.0,120.0,240.0,3.0,0.0
3957,82.0,78.0,120.0,0.0,0.0
3958,85.0,42.0,90.0,1.0,0.0
3959,42.0,120.0,240.0,3.0,0.0
3960,85.0,78.0,120.0,0.0,0.0
3961,94.0,42.0,90.0,1.0,0.0
3962,82.0,78.0,120.0,0.0,0.0
3963,54.0,120.0,240.0,3.0,0.0
3964,85.0,42.0,90.0,1.0,0.0
3965,85.0,78.0,120.0,0.0,0.0
3966,94.0,42.0,90.0,1.0,0.0
3967,42.0,360.0,15.0,3.0,0.0
3968,85.0,0.0,360.0,1.0,0.0
3969,94.0,0.0,360.0,1.0,0.0
3970,88.0,0.0,360.0,1.0,0.0
3971,82.0,0.0,360.0,0.0,0.0
3972,54.0,480.0,360.0,3.0,0.0
3973,63.0,78.0,120.0,0.0,0.0
3974,64.0,162.0,90.0,1.0,0.0
3975,63.0,78.0,120.0,0.0,0.0
3976,64.0,162.0,90.0,1.0,0.0
3977,63.0,78.0,120.0,0.0,0.0
3978,64.0,162.0,90.0,1.0,0.0
3979,69.0,78.0,120.0,0.0,0.0
3980,70.0,162.0,90.0,1.0,0.0
3981,69.0,78.0,120.0,0.0,0.0
3982,70.0,162.0,90.0,1.0,0.0
3983,72.0,78.0,120.0,0.0,0.0
3984,73.0,162.0,90.0,1.0,0.0
3985,72.0,78.0,120.0,0.0,0.0
3986,73.0,162.0,90.0,1.0,0.0
3987,75.0,78.0,120.0,0.0,0.0
3988,76.0,162.0,90.0,1.0,0.0
3989,75.0,78.0,120.0,0.0,0.0
3990,76.0,162.0,90.0,1.0,0.0
3991,81.0,78.0,120.0,0.0,0.0
3992,82.0,162.0,90.0,1.0,0.0
3993,81.0,78.0,120.0,0.0,0.0
3994,82.0,162.0,90.0,1.0,0.0
3995,84.0,78.0,120.0,0.0,0.0
3996,85.0,162.0,90.0,1.0,0.0
3997,84.0,78.0,120.0,0.0,0.0
3998,85.0,162.0,90.0,1.0,0.0
3999,87.0,78.0,120.0,0.0,0.0
4000,88.0,162.0,90.0,1.0,0.0
4001,87.0,78.0,120.0,0.0,0.0
4002,88.0,162.0,90.0,1.0,0.0
4003,93.0,78.0,120.0,0.0,0.0
4004,94.0,162.0,90.0,1.0,0.0
4005,93.0,78.0,120.0,0.0,0.0
4006,94.0,162.0,90.0,1.0,0.0
4007,96.0,78.0,120.0,0.0,0.0
4008,97.0,162.0,90.0,1.0,0.0
4009,96.0,78.0,120.0,0.0,0.0
4010,97.0,162.0,90.0,1.0,0.0
4011,93.0,78.0,120.0,0.0,0.0
4012,94.0,162.0,90.0,1.0,0.0
4013,93.0,78.0,120.0,0.0,0.0
4014,94.0,162.0,90.0,1.0,0.0
4015,87.0,78.0,120.0,0.0,0.0
4016,88.0,162.0,90.0,1.0,0.0
4017,96.0,78.0,120.0,0.0,0.0
4018,97.0,162.0,90.0,1.0,0.0
4019,84.0,78.0,120.0,0.0,0.0
4020,85.0,162.0,90.0,1.0,0.0
4021,93.0,78.0,120.0,0.0,0.0
4022,94.0,162.0,90.0,1.0,0.0
4023,84.0,78.0,120.0,0.0,0.0
4024,85.0,162.0,90.0,1.0,0.0
4025,87.0,78.0,120.0,0.0,0.0
4026,88.0,162.0,90.0,1.0,0.0
4027,81.0,78.0,120.0,0.0,0.0
4028,82.0,162.0,90.0,1.0,0.0
4029,85.0,78.0,120.0,0.0,0.0
4030,88.0,162.0,90.0,1.0,0.0
4031,75.0,78.0,120.0,0.0,0.0
4032,76.0,162.0,90.0,1.0,0.0
4033,87.0,78.0,120.0,0.0,0.0
4034,88.0,162.0,90.0,1.0,0.0
4035,72.0,78.0,120.0,0.0,0.0
4036,73.0,162.0,90.0,1.0,0.0
4037,87.0,78.0,120.0,0.0,0.0
4038,88.0,162.0,90.0,1.0,0.0
4039,69.0,78.0,120.0,0.0,0.0
4040,70.0,162.0,90.0,1.0,0.0
4041,85.0,78.0,120.0,0.0,0.0
4042,88.0,162.0,90.0,1.0,0.0
4043,72.0,78.0,120.0,0.0,0.0
4044,73.0,162.0,90.0,1.0,0.0
4045,87.0,78.0,120.0,0.0,0.0
4046,88.0,162.0,90.0,1.0,0.0
4047,69.0,78.0,120.0,0.0,0.0
4048,70.0,162.0,90.0,1.0,0.0
4049,85.0,78.0,120.0,0.0,0.0
4050,88.0,162.0,90.0,1.0,0.0
4051,84.0,78.0,120.0,0.0,0.0
4052,85.0,162.0,90.0,1.0,0.0
4053,75.0,78.0,120.0,0.0,0.0
4054,76.0,162.0,90.0,1.0,0.0
4055,81.0,78.0,120.0,0.0,0.0
4056,82.0,162.0,90.0,1.0,0.0
4057,73.0,78.0,120.0,0.0,0.0
4058,76.0,162.0,90.0,1.0,0.0
4059,84.0,78.0,120.0,0.0,0.0
4060,85.0,162.0,90.0,1.0,0.0
4061,75.0,78.0,120.0,0.0,0.0
4062,76.0,162.0,90.0,1.0,0.0
4063,81.0,78.0,120.0,0.0,0.0
4064,82.0,162.0,90.0,1.0,0.0
4065,73.0,78.0,120.0,0.0,0.0
4066,76.0,162.0,90.0,1.0,0.0
4067,84.0,78.0,120.0,0.0,0.0
4068,85.0,162.0,90.0,1.0,0.0
4069,75.0,78.0,120.0,0.0,0.0
4070,76.0,162.0,90.0,1.0,0.0
4071,81.0,78.0,120.0,0.0,0.0
4072,82.0,162.0,90.0,1.0,0.0
4073,73.0,78.0,120.0,0.0,0.0
4074,76.0,162.0,90.0,1.0,0.0
4075,84.0,78.0,120.0,0.0,0.0
4076,85.0,162.0,90.0,1.0,0.0
4077,73.0,78.0,120.0,0.0,0.0
4078,76.0,162.0,90.0,1.0,0.0
4079,81.0,78.0,120.0,0.0,0.0
4080,82.0,162.0,90.0,1.0,0.0
4081,73.0,78.0,120.0,0.0,0.0
4082,76.0,162.0,90.0,1.0,0.0
4083,84.0,78.0,120.0,0.0,0.0
4084,85.0,162.0,90.0,1.0,0.0
4085,73.0,78.0,120.0,0.0,0.0
4086,76.0,162.0,90.0,1.0,0.0
4087,72.0,78.0,120.0,0.0,0.0
4088,73.0,162.0,90.0,1.0,0.0
4089,84.0,78.0,120.0,0.0,0.0
4090,85.0,162.0,90.0,1.0,0.0
4091,75.0,78.0,120.0,0.0,0.0
4092,76.0,162.0,90.0,1.0,0.0
4093,87.0,78.0,120.0,0.0,0.0
4094,88.0,162.0,90.0,1.0,0.0
4095,72.0,78.0,120.0,0.0,0.0
4096,73.0,162.0,90.0,1.0,0.0
4097,84.0,78.0,120.0,0.0,0.0
4098,85.0,162.0,90.0,1.0,0.0
4099,75.0,78.0,120.0,0.0,0.0
4100,76.0,162.0,90.0,1.0,0.0
4101,87.0,78.0,120.0,0.0,0.0
4102,88.0,762.0,90.0,1.0,0.0
4103,76.0,0.0,720.0,1.0,0.0
4104,88.0,0.0,720.0,0.0,0.0
4105,70.0,0.0,720.0,2.0,0.0
4106,66.0,0.0,720.0,3.0,0.0
4107,82.0,156.0,720.0,1.0,0.0
4108,89.0,0.0,150.0,0.0,0.0
4109,72.0,0.0,150.0,2.0,0.0
4110,69.0,0.0,150.0,2.0,0.0
4111,77.0,276.0,150.0,1.0,0.0
4112,81.0,0.0,150.0,1.0,0.0
4113,65.0,0.0,150.0,3.0,0.0
4114,77.0,0.0,180.0,1.0,0.0
4115,65.0,0.0,180.0,3.0,0.0
4116,72.0,0.0,180.0,2.0,0.0
4117,69.0,768.0,180.0,2.0,0.0
4118,84.0,0.0,180.0,0.0,0.0
4119,81.0,0.0,180.0,1.0,0.0
4120,62.0,0.0,240.0,0.0,0.0
4121,53.0,360.0,240.0,1.0,0.0
4122,41.0,0.0,240.0,3.0,0.0
4123,39.0,120.0,360.0,3.0,0.0
4124,63.0,0.0,360.0,0.0,0.0
4125,55.0,0.0,360.0,1.0,0.0
4126,53.0,0.0,120.0,1.0,0.0
4127,62.0,0.0,120.0,0.0,0.0
4128,41.0,240.0,120.0,3.0,0.0
4129,60.0,240.0,240.0,0.0,0.0
4130,51.0,0.0,240.0,1.0,0.0
4131,43.0,0.0,240.0,3.0,0.0
4132,40.0,0.0,240.0,3.0,0.0
4133,50.0,0.0,240.0,1.0,0.0
4134,58.0,480.0,240.0,0.0,0.0
4135,41.0,0.0,480.0,3.0,0.0
4136,48.0,0.0,480.0,1.0,0.0
4137,57.0,1200.0,480.0,0.0,0.0
4138,89.0,0.0,720.0,0.0,0.0
4139,65.0,0.0,720.0,3.0,0.0
4140,77.0,0.0,720.0,1.0,0.0
4141,68.0,0.0,720.0,2.0,0.0
4142,86.0,156.0,720.0,1.0,0.0
4143,91.0,0.0,150.0,0.0,0.0
4144,70.0,0.0,15.0,2.0,0.0
4145,67.0,276.0,150.0,2.0,0.0
4146,63.0,0.0,150.0,3.0,0.0
4147,79.0,0.0,150.0,1.0,0.0
4148,87.0,0.0,150.0,1.0,0.0
4149,89.0,0.0,180.0,1.0,0.0
4150,92.0,0.0,180.0,0.0,0.0
4151,65.0,0.0,180.0,2.0,0.0
4152,70.0,0.0,180.0,2.0,0.0
4153,80.0,768.0,180.0,1.0,0.0
4154,62.0,0.0,180.0,3.0,0.0
4155,55.0,360.0,240.0,1.0,0.0
4156,39.0,0.0,240.0,3.0,0.0
4157,58.0,0.0,240.0,0.0,0.0
4158,44.0,120.0,360.0,3.0,0.0
4159,56.0,0.0,360.0,1.0,0.0
4160,60.0,0.0,360.0,0.0,0.0
4161,53.0,0.0,120.0,1.0,0.0
4162,41.0,240.0,120.0,3.0,0.0
4163,56.0,0.0,120.0,0.0,0.0
4164,51.0,240.0,240.0,1.0,0.0
4165,55.0,0.0,240.0,0.0,0.0
4166,46.0,0.0,15.0,3.0,0.0
4167,53.0,480.0,240.0,0.0,0.0
4168,50.0,0.0,240.0,1.0,0.0
4169,51.0,0.0,480.0,1.0,0.0
4170,55.0,1200.0,480.0,0.0,0.0
4171,39.0,0.0,480.0,3.0,0.0
4172,70.0,0.0,720.0,2.0,0.0
4173,87.0,240.0,720.0,0.0,0.0
4174,75.0,0.0,720.0,1.0,0.0
4175,67.0,0.0,720.0,3.0,0.0
4176,65.0,480.0,240.0,3.0,0.0
4177,86.0,0.0,240.0,0.0,0.0
4178,74.0,0.0,240.0,1.0,0.0
4179,91.0,0.0,480.0,0.0,0.0
4180,63.0,0.0,480.0,3.0,0.0
4181,70.0,0.0,15.0,2.0,0.0
4182,79.0,0.0,480.0,1.0,0.0
4183,58.0,0.0,240.0,1.0,0.0
4184,50.0,0.0,240.0,3.0,0.0
4185,65.0,360.0,240.0,0.0,0.0
4186,48.0,0.0,360.0,3.0,0.0
4187,58.0,0.0,720.0,1.0,0.0
4188,63.0,120.0,360.0,0.0,0.0
4189,62.0,240.0,120.0,0.0,0.0
4190,50.0,0.0,120.0,3.0,0.0
4191,60.0,0.0,240.0,0.0,0.0
4192,51.0,240.0,240.0,3.0,0.0
4193,65.0,0.0,240.0,0.0,0.0
4194,57.0,0.0,240.0,1.0,0.0
4195,53.0,360.0,240.0,3.0,0.0
4196,46.0,120.0,360.0,3.0,0.0
4197,62.0,240.0,720.0,0.0,0.0
4198,48.0,240.0,120.0,3.0,0.0
4199,50.0,0.0,240.0,3.0,0.0
4200,67.0,0.0,240.0,0.0,0.0
4201,51.0,0.0,240.0,3.0,0.0
4202,58.0,0.0,15.0,1.0,0.0
4203,48.0,120.0,360.0,3.0,0.0
4204,63.0,0.0,360.0,0.0,0.0
4205,58.0,0.0,720.0,1.0,0.0
4206,62.0,240.0,120.0,0.0,0.0
4207,50.0,0.0,120.0,3.0,0.0
4208,60.0,240.0,240.0,0.0,0.0
4209,51.0,0.0,240.0,3.0,0.0
4210,53.0,0.0,240.0,3.0,0.0
4211,57.0,0.0,240.0,1.0,0.0
4212,65.0,360.0,240.0,0.0,0.0
4213,62.0,225.0,720.0,0.0,0.0
4214,46.0,120.0,360.0,3.0,0.0
4215,48.0,240.0,120.0,3.0,0.0
4216,50.0,0.0,240.0,3.0,0.0
4217,51.0,0.0,240.0,3.0,0.0
4218,65.0,0.0,240.0,1.0,0.0
4219,58.0,15.0,15.0,1.0,0.0
4220,70.0,360.0,240.0,0.0,0.0
4221,68.0,15.0,360.0,0.0,0.0
4222,62.0,0.0,720.0,1.0,0.0
4223,58.0,8.0,720.0,1.0,0.0
4224,53.0,105.0,360.0,3.0,0.0
4225,67.0,0.0,120.0,0.0,0.0
4226,55.0,232.0,120.0,3.0,0.0
4227,65.0,0.0,240.0,0.0,0.0
4228,56.0,240.0,240.0,3.0,0.0
4229,62.0,0.0,240.0,1.0,0.0
4230,65.0,0.0,240.0,1.0,0.0
4231,70.0,360.0,240.0,0.0,0.0
4232,58.0,0.0,240.0,3.0,0.0
4233,60.0,120.0,360.0,3.0,0.0
4234,68.0,240.0,720.0,0.0,0.0
4235,62.0,240.0,120.0,3.0,0.0
4236,63.0,0.0,240.0,3.0,0.0
4237,74.0,0.0,240.0,1.0,0.0
4238,80.0,0.0,240.0,1.0,0.0
4239,65.0,0.0,240.0,3.0,0.0
4240,82.0,360.0,15.0,0.0,0.0
4241,79.0,0.0,720.0,1.0,0.0
4242,75.0,0.0,720.0,1.0,0.0
4243,67.0,120.0,360.0,3.0,0.0
4244,80.0,0.0,120.0,0.0,0.0
4245,68.0,240.0,120.0,3.0,0.0
4246,79.0,0.0,240.0,0.0,0.0
4247,70.0,240.0,240.0,3.0,0.0
4248,82.0,360.0,240.0,0.0,0.0
4249,75.0,0.0,240.0,3.0,0.0
4250,79.0,0.0,240.0,1.0,0.0
4251,75.0,0.0,720.0,1.0,0.0
4252,69.0,0.0,360.0,3.0,0.0
4253,84.0,120.0,360.0,0.0,0.0
4254,77.0,240.0,720.0,1.0,0.0
4255,70.0,0.0,120.0,3.0,0.0
4256,82.0,240.0,120.0,0.0,0.0
4257,81.0,0.0,240.0,0.0,0.0
4258,72.0,0.0,240.0,3.0,0.0
4259,84.0,360.0,240.0,0.0,0.0
4260,77.0,0.0,240.0,3.0,0.0
4261,81.0,0.0,240.0,1.0,0.0
4262,69.0,120.0,360.0,3.0,0.0
4263,84.0,0.0,360.0,0.0,0.0
4264,70.0,0.0,120.0,3.0,0.0
4265,82.0,240.0,120.0,0.0,0.0
4266,81.0,0.0,240.0,0.0,0.0
4267,72.0,240.0,240.0,3.0,0.0
4268,89.0,360.0,240.0,0.0,0.0
4269,77.0,0.0,240.0,3.0,0.0
4270,70.0,120.0,360.0,3.0,0.0
4271,86.0,0.0,360.0,0.0,0.0
4272,84.0,240.0,120.0,0.0,0.0
4273,72.0,0.0,120.0,3.0,0.0
4274,82.0,240.0,240.0,0.0,0.0
4275,74.0,0.0,240.0,3.0,0.0
4276,77.0,0.0,240.0,3.0,0.0
4277,89.0,360.0,240.0,0.0,0.0
4278,84.0,120.0,360.0,0.0,0.0
4279,69.0,0.0,360.0,3.0,0.0
4280,70.0,240.0,120.0,3.0,0.0
4281,82.0,0.0,120.0,0.0,0.0
4282,81.0,0.0,240.0,0.0,0.0
4283,72.0,240.0,240.0,3.0,0.0
4284,89.0,360.0,240.0,0.0,0.0
4285,77.0,0.0,240.0,3.0,0.0
4286,67.0,120.0,360.0,3.0,0.0
4287,82.0,0.0,360.0,0.0,0.0
4288,69.0,0.0,120.0,3.0,0.0
4289,81.0,240.0,120.0,0.0,0.0
4290,70.0,240.0,240.0,3.0,0.0
4291,79.0,0.0,240.0,0.0,0.0
4292,89.0,0.0,240.0,0.0,0.0
4293,77.0,360.0,240.0,3.0,0.0
4294,81.0,120.0,360.0,0.0,0.0
4295,65.0,0.0,360.0,3.0,0.0
4296,79.0,0.0,120.0,0.0,0.0
4297,67.0,240.0,120.0,3.0,0.0
4298,89.0,240.0,240.0,0.0,0.0
4299,69.0,0.0,240.0,3.0,0.0
4300,77.0,0.0,240.0,1.0,0.0
4301,72.0,0.0,240.0,2.0,0.0
4302,69.0,0.0,15.0,3.0,0.0
4303,72.0,0.0,360.0,2.0,0.0
4304,87.0,0.0,15.0,0.0,0.0
4305,77.0,360.0,15.0,1.0,0.0
4306,74.0,0.0,120.0,2.0,0.0
4307,86.0,0.0,120.0,0.0,0.0
4308,70.0,120.0,120.0,3.0,0.0
4309,84.0,0.0,240.0,0.0,0.0
4310,72.0,156.0,240.0,3.0,0.0
4311,75.0,0.0,240.0,2.0,0.0
4312,75.0,0.0,150.0,1.0,0.0
4313,57.0,0.0,150.0,3.0,0.0
4314,60.0,444.0,150.0,2.0,0.0
4315,77.0,0.0,150.0,0.0,0.0
4316,75.0,78.0,360.0,1.0,0.0
4317,60.0,0.0,360.0,2.0,0.0
4318,57.0,0.0,360.0,3.0,0.0
4319,62.0,0.0,90.0,2.0,0.0
4320,58.0,0.0,90.0,3.0,0.0
4321,74.0,42.0,90.0,1.0,0.0
4322,72.0,0.0,150.0,1.0,0.0
4323,63.0,0.0,150.0,2.0,0.0
4324,77.0,156.0,15.0,0.0,0.0
4325,75.0,0.0,150.0,1.0,0.0
4326,60.0,0.0,150.0,3.0,0.0
4327,62.0,0.0,150.0,3.0,0.0
4328,74.0,2004.0,150.0,1.0,0.0
4329,77.0,0.0,150.0,0.0,0.0
4330,65.0,0.0,150.0,2.0,0.0
4331,70.0,0.0,150.0,1.0,0.0
4332,63.0,1920.0,1920.0,3.0,0.0
4333,77.0,0.0,1920.0,0.0,0.0
4334,69.0,0.0,1920.0,1.0,0.0
4335,72.0,0.0,1920.0,1.0,0.0
4336,65.0,0.0,1920.0,2.0,0.0
4337,73.0,120.0,1920.0,1.0,0.0
4338,70.0,0.0,1920.0,1.0,0.0
4339,64.0,0.0,1920.0,2.0,0.0
4340,79.0,0.0,1920.0,0.0,0.0
4341,61.0,0.0,1920.0,3.0,0.0
4342,41.0,120.0,120.0,0.0,0.0
4343,45.0,120.0,120.0,0.0,0.0
4344,48.0,120.0,120.0,0.0,0.0
4345,51.0,120.0,120.0,0.0,0.0
4346,53.0,120.0,120.0,0.0,0.0
4347,57.0,120.0,120.0,0.0,0.0
4348,60.0,120.0,120.0,0.0,0.0
4349,63.0,120.0,120.0,0.0,0.0
4350,65.0,120.0,120.0,0.0,0.0
4351,69.0,120.0,120.0,0.0,0.0
4352,53.0,120.0,120.0,0.0,0.0
4353,57.0,120.0,120.0,0.0,0.0
4354,60.0,120.0,120.0,0.0,0.0
4355,63.0,120.0,120.0,0.0,0.0
4356,65.0,120.0,120.0,0.0,0.0
4357,69.0,120.0,120.0,0.0,0.0
4358,72.0,120.0,120.0,0.0,0.0
4359,75.0,120.0,120.0,0.0,0.0
4360,77.0,120.0,120.0,0.0,0.0
4361,81.0,120.0,120.0,0.0,0.0
4362,65.0,120.0,120.0,0.0,0.0
4363,69.0,120.0,120.0,0.0,0.0
4364,72.0,120.0,120.0,0.0,0.0
4365,75.0,120.0,120.0,0.0,0.0
4366,77.0,120.0,120.0,0.0,0.0
4367,81.0,120.0,120.0,0.0,0.0
4368,84.0,120.0,120.0,0.0,0.0
4369,87.0,120.0,120.0,0.0,0.0
4370,89.0,120.0,120.0,0.0,0.0
4371,93.0,1320.0,120.0,0.0,0.0
4372,52.0,120.0,720.0,3.0,0.0
4373,46.0,0.0,1920.0,3.0,0.0
4374,61.0,78.0,120.0,0.0,0.0
4375,70.0,162.0,90.0,1.0,0.0
4376,61.0,78.0,120.0,0.0,0.0
4377,70.0,162.0,90.0,1.0,0.0
4378,61.0,78.0,120.0,0.0,0.0
4379,70.0,42.0,90.0,1.0,0.0
4380,62.0,78.0,120.0,0.0,0.0
4381,53.0,120.0,240.0,3.0,0.0
4382,70.0,42.0,90.0,1.0,0.0
4383,63.0,78.0,120.0,0.0,0.0
4384,55.0,120.0,240.0,3.0,0.0
4385,70.0,42.0,90.0,1.0,0.0
4386,67.0,78.0,120.0,0.0,0.0
4387,51.0,120.0,240.0,3.0,0.0
4388,75.0,42.0,90.0,1.0,0.0
4389,72.0,78.0,120.0,0.0,0.0
4390,57.0,120.0,240.0,3.0,0.0
4391,75.0,42.0,90.0,1.0,0.0
4392,53.0,120.0,240.0,3.0,0.0
4393,69.0,78.0,120.0,0.0,0.0
4394,77.0,42.0,90.0,1.0,0.0
4395,64.0,120.0,720.0,3.0,0.0
4396,58.0,0.0,1920.0,3.0,0.0
4397,73.0,78.0,120.0,0.0,0.0
4398,82.0,162.0,90.0,1.0,0.0
4399,73.0,78.0,120.0,0.0,0.0
4400,82.0,162.0,90.0,1.0,0.0
4401,73.0,78.0,120.0,0.0,0.0
4402,82.0,42.0,90.0,1.0,0.0
4403,74.0,78.0,120.0,0.0,0.0
4404,65.0,120.0,240.0,3.0,0.0
4405,82.0,42.0,90.0,1.0,0.0
4406,75.0,78.0,120.0,0.0,0.0
4407,67.0,120.0,240.0,3.0,0.0
4408,82.0,42.0,90.0,1.0,0.0
4409,79.0,78.0,120.0,0.0,0.0
4410,63.0,120.0,240.0,3.0,0.0
4411,87.0,42.0,90.0,1.0,0.0
4412,69.0,120.0,240.0,3.0,0.0
4413,84.0,78.0,120.0,0.0,0.0
4414,87.0,42.0,90.0,1.0,0.0
4415,81.0,78.0,120.0,0.0,0.0
4416,65.0,120.0,240.0,3.0,0.0
4417,89.0,42.0,90.0,1.0,0.0
4418,70.0,42.0,150.0,3.0,0.0
4419,82.0,36.0,120.0,0.0,0.0
4420,86.0,162.0,90.0,1.0,0.0
4421,86.0,36.0,120.0,0.0,0.0
4422,65.0,42.0,150.0,3.0,0.0
4423,89.0,162.0,90.0,1.0,0.0
4424,82.0,36.0,120.0,0.0,0.0
4425,58.0,84.0,150.0,3.0,0.0
4426,86.0,120.0,120.0,1.0,0.0
4427,87.0,36.0,120.0,0.0,0.0
4428,84.0,0.0,120.0,0.0,0.0
4429,53.0,84.0,150.0,3.0,0.0
4430,93.0,156.0,120.0,1.0,0.0
4431,46.0,0.0,150.0,3.0,0.0
4432,94.0,0.0,150.0,0.0,0.0
4433,86.0,0.0,150.0,0.0,0.0
4434,82.0,0.0,150.0,0.0,0.0
