,note,step,duration,channel,velocity
0,75.0,240.0,240.0,0.0,0.0
1,63.0,0.0,240.0,1.0,0.0
2,58.0,0.0,240.0,2.0,0.0
3,67.0,240.0,240.0,1.0,0.0
4,55.0,0.0,15.0,2.0,0.0
5,51.0,192.0,15.0,3.0,0.0
6,79.0,48.0,180.0,0.0,0.0
7,58.0,192.0,240.0,2.0,0.0
8,51.0,0.0,15.0,3.0,0.0
9,75.0,48.0,180.0,0.0,0.0
10,63.0,240.0,240.0,1.0,0.0
11,58.0,480.0,240.0,2.0,0.0
12,70.0,0.0,960.0,1.0,0.0
13,55.0,0.0,15.0,2.0,0.0
14,82.0,240.0,960.0,0.0,0.0
15,58.0,0.0,240.0,2.0,0.0
16,55.0,0.0,15.0,2.0,0.0
17,51.0,480.0,15.0,3.0,0.0
18,58.0,0.0,240.0,2.0,0.0
19,55.0,0.0,15.0,2.0,0.0
20,80.0,240.0,240.0,0.0,0.0
21,58.0,0.0,240.0,2.0,0.0
22,79.0,240.0,240.0,0.0,0.0
23,55.0,0.0,15.0,2.0,0.0
24,51.0,0.0,15.0,3.0,0.0
25,77.0,240.0,240.0,0.0,0.0
26,75.0,240.0,240.0,0.0,0.0
27,58.0,0.0,240.0,2.0,0.0
28,51.0,0.0,15.0,3.0,0.0
29,55.0,0.0,480.0,2.0,0.0
30,74.0,240.0,240.0,0.0,0.0
31,58.0,0.0,240.0,2.0,0.0
32,75.0,0.0,240.0,0.0,0.0
33,55.0,480.0,480.0,2.0,0.0
34,51.0,0.0,480.0,3.0,0.0
35,79.0,240.0,240.0,0.0,0.0
36,75.0,0.0,240.0,0.0,0.0
37,58.0,0.0,240.0,2.0,0.0
38,56.0,0.0,480.0,2.0,0.0
39,74.0,360.0,480.0,0.0,0.0
40,60.0,0.0,240.0,2.0,0.0
41,56.0,0.0,480.0,2.0,0.0
42,51.0,0.0,15.0,3.0,0.0
43,72.0,120.0,360.0,0.0,0.0
44,60.0,240.0,240.0,2.0,0.0
45,70.0,240.0,240.0,0.0,0.0
46,56.0,0.0,480.0,2.0,0.0
47,60.0,0.0,240.0,2.0,0.0
48,68.0,0.0,240.0,0.0,0.0
49,56.0,0.0,480.0,2.0,0.0
50,51.0,240.0,15.0,3.0,0.0
51,67.0,240.0,240.0,0.0,0.0
52,65.0,0.0,240.0,0.0,0.0
53,60.0,240.0,240.0,2.0,0.0
54,56.0,240.0,480.0,2.0,0.0
55,51.0,0.0,15.0,3.0,0.0
56,64.0,240.0,240.0,0.0,0.0
57,65.0,0.0,240.0,0.0,0.0
58,60.0,0.0,240.0,2.0,0.0
59,68.0,240.0,240.0,0.0,0.0
60,51.0,0.0,480.0,3.0,0.0
61,56.0,0.0,480.0,2.0,0.0
62,65.0,0.0,240.0,0.0,0.0
63,60.0,480.0,240.0,2.0,0.0
64,62.0,0.0,960.0,0.0,0.0
65,56.0,480.0,480.0,2.0,0.0
66,53.0,0.0,480.0,2.0,0.0
67,58.0,0.0,240.0,2.0,0.0
68,51.0,0.0,15.0,3.0,0.0
69,56.0,0.0,480.0,2.0,0.0
70,53.0,0.0,480.0,2.0,0.0
71,58.0,240.0,240.0,2.0,0.0
72,51.0,0.0,15.0,3.0,0.0
73,65.0,240.0,240.0,0.0,0.0
74,56.0,0.0,480.0,2.0,0.0
75,58.0,0.0,240.0,2.0,0.0
76,53.0,0.0,15.0,2.0,0.0
77,51.0,192.0,15.0,3.0,0.0
78,68.0,288.0,180.0,0.0,0.0
79,56.0,192.0,480.0,2.0,0.0
80,58.0,0.0,240.0,2.0,0.0
81,65.0,288.0,180.0,0.0,0.0
82,51.0,192.0,480.0,3.0,0.0
83,56.0,0.0,480.0,2.0,0.0
84,53.0,0.0,480.0,2.0,0.0
85,58.0,0.0,240.0,2.0,0.0
86,62.0,288.0,180.0,0.0,0.0
87,56.0,240.0,480.0,2.0,0.0
88,51.0,0.0,480.0,3.0,0.0
89,53.0,0.0,480.0,2.0,0.0
90,58.0,0.0,240.0,2.0,0.0
91,55.0,0.0,1440.0,3.0,0.0
92,51.0,0.0,1440.0,3.0,0.0
93,63.0,240.0,240.0,0.0,0.0
94,58.0,240.0,240.0,0.0,0.0
95,57.0,240.0,240.0,0.0,0.0
96,58.0,240.0,240.0,0.0,0.0
97,62.0,240.0,240.0,0.0,0.0
98,63.0,240.0,240.0,0.0,0.0
99,46.0,0.0,1440.0,2.0,0.0
100,65.0,240.0,240.0,0.0,0.0
101,38.0,240.0,1440.0,3.0,0.0
102,50.0,0.0,1440.0,3.0,0.0
103,58.0,240.0,240.0,0.0,0.0
104,57.0,240.0,240.0,0.0,0.0
105,58.0,240.0,240.0,0.0,0.0
106,63.0,240.0,240.0,0.0,0.0
107,65.0,0.0,240.0,0.0,0.0
108,39.0,0.0,960.0,3.0,0.0
109,51.0,0.0,960.0,3.0,0.0
110,67.0,240.0,240.0,0.0,0.0
111,46.0,0.0,960.0,2.0,0.0
112,63.0,240.0,240.0,0.0,0.0
113,62.0,240.0,240.0,0.0,0.0
114,63.0,192.0,240.0,0.0,0.0
115,53.0,48.0,180.0,3.0,0.0
116,41.0,0.0,180.0,3.0,0.0
117,68.0,192.0,240.0,0.0,0.0
118,55.0,48.0,180.0,3.0,0.0
119,43.0,0.0,180.0,3.0,0.0
120,70.0,192.0,240.0,0.0,0.0
121,72.0,240.0,240.0,0.0,0.0
122,56.0,48.0,180.0,3.0,0.0
123,44.0,0.0,180.0,3.0,0.0
124,70.0,192.0,240.0,0.0,0.0
125,44.0,48.0,180.0,3.0,0.0
126,56.0,0.0,180.0,3.0,0.0
127,68.0,240.0,240.0,0.0,0.0
128,67.0,192.0,240.0,0.0,0.0
129,45.0,48.0,180.0,3.0,0.0
130,57.0,0.0,180.0,3.0,0.0
131,65.0,240.0,240.0,0.0,0.0
132,63.0,240.0,240.0,0.0,0.0
133,46.0,238.0,240.0,3.0,0.0
134,62.0,0.0,480.0,0.0,0.0
135,58.0,2.0,480.0,3.0,0.0
136,46.0,240.0,240.0,3.0,0.0
137,50.0,240.0,240.0,3.0,0.0
138,58.0,0.0,240.0,0.0,0.0
139,53.0,240.0,240.0,3.0,0.0
140,62.0,240.0,240.0,0.0,0.0
141,65.0,240.0,240.0,0.0,0.0
142,70.0,240.0,240.0,0.0,0.0
143,62.0,240.0,240.0,0.0,0.0
144,65.0,240.0,240.0,0.0,0.0
145,70.0,240.0,240.0,0.0,0.0
146,74.0,240.0,240.0,0.0,0.0
147,65.0,240.0,240.0,0.0,0.0
148,70.0,240.0,240.0,0.0,0.0
149,74.0,240.0,240.0,0.0,0.0
150,77.0,240.0,240.0,0.0,0.0
151,70.0,240.0,240.0,0.0,0.0
152,74.0,240.0,240.0,0.0,0.0
153,77.0,240.0,240.0,0.0,0.0
154,82.0,240.0,240.0,0.0,0.0
155,74.0,240.0,240.0,0.0,0.0
156,77.0,240.0,240.0,0.0,0.0
157,82.0,240.0,240.0,0.0,0.0
158,86.0,240.0,240.0,0.0,0.0
159,84.0,240.0,240.0,0.0,0.0
160,82.0,0.0,480.0,0.0,0.0
161,43.0,240.0,240.0,3.0,0.0
162,46.0,240.0,240.0,3.0,0.0
163,50.0,240.0,240.0,3.0,0.0
164,58.0,240.0,240.0,0.0,0.0
165,55.0,0.0,240.0,3.0,0.0
166,62.0,240.0,240.0,0.0,0.0
167,67.0,240.0,240.0,0.0,0.0
168,70.0,240.0,240.0,0.0,0.0
169,62.0,240.0,240.0,0.0,0.0
170,67.0,240.0,240.0,0.0,0.0
171,70.0,240.0,240.0,0.0,0.0
172,74.0,240.0,240.0,0.0,0.0
173,67.0,240.0,240.0,0.0,0.0
174,70.0,240.0,240.0,0.0,0.0
175,74.0,240.0,240.0,0.0,0.0
176,79.0,240.0,240.0,0.0,0.0
177,70.0,240.0,240.0,0.0,0.0
178,74.0,240.0,240.0,0.0,0.0
179,79.0,240.0,240.0,0.0,0.0
180,82.0,240.0,240.0,0.0,0.0
181,74.0,240.0,240.0,0.0,0.0
182,79.0,240.0,240.0,0.0,0.0
183,82.0,240.0,240.0,0.0,0.0
184,86.0,240.0,240.0,0.0,0.0
185,84.0,240.0,240.0,0.0,0.0
186,82.0,0.0,480.0,0.0,0.0
187,40.0,240.0,240.0,3.0,0.0
188,43.0,240.0,240.0,3.0,0.0
189,46.0,240.0,240.0,3.0,0.0
190,48.0,240.0,240.0,3.0,0.0
191,58.0,0.0,240.0,0.0,0.0
192,60.0,240.0,240.0,0.0,0.0
193,52.0,0.0,480.0,3.0,0.0
194,64.0,240.0,240.0,0.0,0.0
195,67.0,240.0,240.0,0.0,0.0
196,60.0,240.0,240.0,0.0,0.0
197,64.0,240.0,240.0,0.0,0.0
198,67.0,240.0,240.0,0.0,0.0
199,70.0,240.0,240.0,0.0,0.0
200,64.0,240.0,240.0,0.0,0.0
201,67.0,240.0,240.0,0.0,0.0
202,70.0,240.0,240.0,0.0,0.0
203,76.0,240.0,240.0,0.0,0.0
204,67.0,240.0,240.0,0.0,0.0
205,70.0,240.0,240.0,0.0,0.0
206,76.0,240.0,240.0,0.0,0.0
207,79.0,240.0,240.0,0.0,0.0
208,76.0,240.0,240.0,0.0,0.0
209,55.0,120.0,360.0,3.0,0.0
210,72.0,120.0,240.0,0.0,0.0
211,52.0,0.0,360.0,3.0,0.0
212,74.0,240.0,240.0,0.0,0.0
213,55.0,0.0,360.0,3.0,0.0
214,72.0,120.0,240.0,0.0,0.0
215,58.0,120.0,360.0,3.0,0.0
216,74.0,240.0,240.0,0.0,0.0
217,72.0,240.0,1440.0,0.0,0.0
218,69.0,0.0,1440.0,1.0,0.0
219,57.0,240.0,240.0,3.0,0.0
220,53.0,240.0,480.0,3.0,0.0
221,58.0,0.0,240.0,3.0,0.0
222,60.0,240.0,240.0,3.0,0.0
223,62.0,240.0,240.0,3.0,0.0
224,64.0,240.0,240.0,3.0,0.0
225,65.0,0.0,240.0,3.0,0.0
226,64.0,240.0,240.0,3.0,0.0
227,72.0,0.0,1440.0,0.0,0.0
228,70.0,0.0,1440.0,1.0,0.0
229,62.0,240.0,240.0,3.0,0.0
230,60.0,240.0,240.0,3.0,0.0
231,58.0,240.0,240.0,3.0,0.0
232,57.0,240.0,240.0,3.0,0.0
233,55.0,240.0,240.0,3.0,0.0
234,72.0,0.0,1440.0,1.0,0.0
235,75.0,0.0,1440.0,0.0,0.0
236,53.0,240.0,240.0,3.0,0.0
237,51.0,240.0,240.0,3.0,0.0
238,50.0,240.0,240.0,3.0,0.0
239,48.0,240.0,240.0,3.0,0.0
240,46.0,240.0,240.0,3.0,0.0
241,45.0,240.0,240.0,3.0,0.0
242,74.0,240.0,480.0,0.0,0.0
243,46.0,240.0,240.0,3.0,0.0
244,70.0,0.0,480.0,1.0,0.0
245,48.0,0.0,240.0,3.0,0.0
246,70.0,0.0,480.0,1.0,0.0
247,50.0,240.0,240.0,3.0,0.0
248,74.0,0.0,480.0,0.0,0.0
249,52.0,240.0,240.0,3.0,0.0
250,74.0,0.0,480.0,0.0,0.0
251,53.0,240.0,240.0,3.0,0.0
252,70.0,0.0,480.0,1.0,0.0
253,55.0,240.0,240.0,3.0,0.0
254,69.0,0.0,1440.0,1.0,0.0
255,57.0,240.0,240.0,3.0,0.0
256,53.0,0.0,480.0,3.0,0.0
257,58.0,240.0,240.0,3.0,0.0
258,60.0,240.0,240.0,3.0,0.0
259,62.0,240.0,240.0,3.0,0.0
260,64.0,240.0,240.0,3.0,0.0
261,65.0,0.0,240.0,3.0,0.0
262,64.0,240.0,240.0,3.0,0.0
263,70.0,0.0,1440.0,1.0,0.0
264,72.0,240.0,15.0,0.0,0.0
265,62.0,240.0,240.0,3.0,0.0
266,60.0,240.0,240.0,3.0,0.0
267,58.0,240.0,240.0,3.0,0.0
268,57.0,240.0,240.0,3.0,0.0
269,55.0,240.0,240.0,3.0,0.0
270,75.0,0.0,1440.0,0.0,0.0
271,72.0,0.0,1440.0,1.0,0.0
272,53.0,240.0,240.0,3.0,0.0
273,51.0,240.0,240.0,3.0,0.0
274,50.0,240.0,240.0,3.0,0.0
275,48.0,240.0,240.0,3.0,0.0
276,46.0,240.0,240.0,3.0,0.0
277,45.0,240.0,240.0,3.0,0.0
278,46.0,240.0,240.0,3.0,0.0
279,48.0,0.0,240.0,3.0,0.0
280,50.0,240.0,240.0,3.0,0.0
281,74.0,0.0,15.0,0.0,0.0
282,70.0,240.0,15.0,1.0,0.0
283,52.0,240.0,240.0,3.0,0.0
284,74.0,0.0,15.0,0.0,0.0
285,53.0,240.0,240.0,3.0,0.0
286,70.0,0.0,480.0,1.0,0.0
287,55.0,0.0,240.0,3.0,0.0
288,69.0,0.0,240.0,1.0,0.0
289,57.0,0.0,1440.0,3.0,0.0
290,60.0,0.0,1440.0,3.0,0.0
291,53.0,240.0,2880.0,3.0,0.0
292,72.0,240.0,240.0,0.0,0.0
293,70.0,240.0,240.0,0.0,0.0
294,72.0,240.0,240.0,0.0,0.0
295,74.0,240.0,240.0,0.0,0.0
296,76.0,240.0,240.0,0.0,0.0
297,77.0,240.0,240.0,0.0,0.0
298,55.0,0.0,1440.0,3.0,0.0
299,58.0,0.0,1440.0,3.0,0.0
300,76.0,240.0,240.0,0.0,0.0
301,74.0,240.0,240.0,0.0,0.0
302,72.0,240.0,240.0,0.0,0.0
303,70.0,240.0,240.0,0.0,0.0
304,69.0,240.0,240.0,0.0,0.0
305,67.0,0.0,240.0,0.0,0.0
306,70.0,240.0,240.0,0.0,0.0
307,53.0,0.0,2880.0,3.0,0.0
308,58.0,240.0,1440.0,3.0,0.0
309,64.0,0.0,1440.0,3.0,0.0
310,72.0,240.0,240.0,0.0,0.0
311,74.0,240.0,240.0,0.0,0.0
312,76.0,240.0,240.0,0.0,0.0
313,77.0,240.0,240.0,0.0,0.0
314,79.0,0.0,240.0,0.0,0.0
315,77.0,240.0,240.0,0.0,0.0
316,57.0,0.0,1440.0,3.0,0.0
317,75.0,240.0,240.0,0.0,0.0
318,74.0,240.0,240.0,0.0,0.0
319,72.0,240.0,240.0,0.0,0.0
320,70.0,240.0,240.0,0.0,0.0
321,69.0,0.0,240.0,0.0,0.0
322,57.0,0.0,1440.0,3.0,0.0
323,63.0,0.0,1440.0,3.0,0.0
324,60.0,240.0,15.0,3.0,0.0
325,53.0,0.0,1440.0,3.0,0.0
326,72.0,240.0,240.0,0.0,0.0
327,75.0,240.0,240.0,0.0,0.0
328,81.0,240.0,240.0,0.0,0.0
329,75.0,240.0,240.0,0.0,0.0
330,84.0,240.0,240.0,0.0,0.0
331,81.0,240.0,240.0,0.0,0.0
332,60.0,0.0,15.0,3.0,0.0
333,84.0,240.0,240.0,0.0,0.0
334,54.0,0.0,1440.0,3.0,0.0
335,63.0,0.0,1440.0,3.0,0.0
336,57.0,0.0,1440.0,3.0,0.0
337,81.0,240.0,240.0,0.0,0.0
338,84.0,240.0,240.0,0.0,0.0
339,81.0,240.0,240.0,0.0,0.0
340,84.0,240.0,240.0,0.0,0.0
341,81.0,0.0,240.0,0.0,0.0
342,63.0,0.0,960.0,3.0,0.0
343,60.0,240.0,15.0,3.0,0.0
344,53.0,0.0,960.0,3.0,0.0
345,84.0,240.0,240.0,0.0,0.0
346,81.0,240.0,240.0,0.0,0.0
347,77.0,240.0,240.0,0.0,0.0
348,79.0,240.0,240.0,0.0,0.0
349,51.0,0.0,480.0,3.0,0.0
350,60.0,0.0,15.0,3.0,0.0
351,57.0,0.0,15.0,3.0,0.0
352,81.0,240.0,240.0,0.0,0.0
353,77.0,240.0,240.0,0.0,0.0
354,58.0,0.0,960.0,3.0,0.0
355,53.0,0.0,960.0,3.0,0.0
356,50.0,0.0,960.0,3.0,0.0
357,82.0,240.0,240.0,0.0,0.0
358,77.0,240.0,240.0,0.0,0.0
359,82.0,240.0,240.0,0.0,0.0
360,77.0,240.0,240.0,0.0,0.0
361,46.0,240.0,480.0,3.0,0.0
362,74.0,240.0,240.0,0.0,0.0
363,58.0,0.0,480.0,3.0,0.0
364,70.0,0.0,240.0,0.0,0.0
365,53.0,0.0,15.0,3.0,0.0
366,57.0,0.0,1440.0,3.0,0.0
367,63.0,0.0,1440.0,3.0,0.0
368,60.0,0.0,1440.0,3.0,0.0
369,72.0,240.0,240.0,0.0,0.0
370,75.0,240.0,240.0,0.0,0.0
371,81.0,240.0,240.0,0.0,0.0
372,75.0,240.0,240.0,0.0,0.0
373,84.0,240.0,240.0,0.0,0.0
374,81.0,240.0,240.0,0.0,0.0
375,63.0,240.0,1440.0,3.0,0.0
376,57.0,0.0,1440.0,3.0,0.0
377,54.0,0.0,1440.0,3.0,0.0
378,84.0,240.0,240.0,0.0,0.0
379,81.0,240.0,240.0,0.0,0.0
380,84.0,240.0,240.0,0.0,0.0
381,81.0,240.0,240.0,0.0,0.0
382,84.0,240.0,240.0,0.0,0.0
383,81.0,0.0,240.0,0.0,0.0
384,84.0,240.0,240.0,0.0,0.0
385,60.0,0.0,15.0,3.0,0.0
386,63.0,240.0,960.0,3.0,0.0
387,53.0,0.0,960.0,3.0,0.0
388,81.0,240.0,240.0,0.0,0.0
389,77.0,240.0,240.0,0.0,0.0
390,79.0,0.0,240.0,0.0,0.0
391,57.0,0.0,15.0,3.0,0.0
392,81.0,240.0,240.0,0.0,0.0
393,51.0,240.0,480.0,3.0,0.0
394,60.0,0.0,480.0,3.0,0.0
395,77.0,0.0,240.0,0.0,0.0
396,82.0,240.0,240.0,0.0,0.0
397,50.0,240.0,960.0,3.0,0.0
398,77.0,240.0,240.0,0.0,0.0
399,82.0,240.0,240.0,0.0,0.0
400,77.0,0.0,240.0,0.0,0.0
401,53.0,0.0,15.0,3.0,0.0
402,46.0,0.0,480.0,3.0,0.0
403,58.0,0.0,15.0,3.0,0.0
404,74.0,240.0,240.0,0.0,0.0
405,70.0,0.0,240.0,0.0,0.0
406,51.0,0.0,480.0,3.0,0.0
407,55.0,240.0,480.0,3.0,0.0
408,58.0,0.0,15.0,3.0,0.0
409,79.0,240.0,240.0,0.0,0.0
410,75.0,0.0,240.0,0.0,0.0
411,79.0,240.0,240.0,0.0,0.0
412,75.0,240.0,240.0,0.0,0.0
413,55.0,0.0,480.0,3.0,0.0
414,51.0,0.0,480.0,3.0,0.0
415,70.0,240.0,240.0,0.0,0.0
416,60.0,480.0,480.0,3.0,0.0
417,67.0,0.0,240.0,0.0,0.0
418,62.0,480.0,480.0,3.0,0.0
419,65.0,60.0,960.0,0.0,0.0
420,58.0,0.0,480.0,3.0,0.0
421,53.0,0.0,480.0,3.0,0.0
422,57.0,0.0,480.0,3.0,0.0
423,53.0,0.0,480.0,3.0,0.0
424,72.0,60.0,60.0,0.0,0.0
425,63.0,0.0,480.0,3.0,0.0
426,74.0,60.0,60.0,0.0,0.0
427,72.0,60.0,60.0,0.0,0.0
428,74.0,40.0,60.0,0.0,0.0
429,72.0,40.0,30.0,0.0,0.0
430,74.0,40.0,30.0,0.0,0.0
431,72.0,60.0,30.0,0.0,0.0
432,70.0,60.0,60.0,0.0,0.0
433,72.0,240.0,60.0,0.0,0.0
434,46.0,0.0,450.0,3.0,0.0
435,70.0,200.0,240.0,0.0,0.0
436,50.0,40.0,450.0,2.0,0.0
437,53.0,192.0,240.0,2.0,0.0
438,77.0,48.0,180.0,0.0,0.0
439,65.0,200.0,240.0,1.0,0.0
440,46.0,0.0,450.0,3.0,0.0
441,50.0,40.0,450.0,2.0,0.0
442,53.0,192.0,240.0,2.0,0.0
443,46.0,0.0,450.0,3.0,0.0
444,58.0,200.0,240.0,1.0,0.0
445,50.0,40.0,450.0,2.0,0.0
446,70.0,48.0,180.0,0.0,0.0
447,53.0,440.0,240.0,2.0,0.0
448,48.0,0.0,450.0,2.0,0.0
449,51.0,0.0,450.0,2.0,0.0
450,46.0,40.0,450.0,3.0,0.0
451,53.0,192.0,240.0,2.0,0.0
452,48.0,0.0,450.0,2.0,0.0
453,63.0,200.0,240.0,1.0,0.0
454,75.0,48.0,180.0,0.0,0.0
455,51.0,40.0,450.0,2.0,0.0
456,46.0,0.0,450.0,3.0,0.0
457,53.0,192.0,240.0,2.0,0.0
458,51.0,40.0,450.0,2.0,0.0
459,57.0,200.0,240.0,1.0,0.0
460,46.0,0.0,450.0,3.0,0.0
461,69.0,48.0,180.0,0.0,0.0
462,48.0,0.0,450.0,2.0,0.0
463,53.0,672.0,240.0,2.0,0.0
464,70.0,0.0,180.0,0.0,0.0
465,58.0,432.0,240.0,1.0,0.0
466,46.0,48.0,180.0,3.0,0.0
467,67.0,48.0,180.0,0.0,0.0
468,55.0,912.0,240.0,1.0,0.0
469,43.0,0.0,180.0,3.0,0.0
470,68.0,48.0,180.0,0.0,0.0
471,56.0,432.0,240.0,1.0,0.0
472,44.0,0.0,180.0,3.0,0.0
473,53.0,912.0,240.0,1.0,0.0
474,65.0,0.0,180.0,0.0,0.0
475,41.0,48.0,180.0,3.0,0.0
476,43.0,0.0,180.0,3.0,0.0
477,67.0,432.0,240.0,1.0,0.0
478,79.0,0.0,180.0,0.0,0.0
479,55.0,48.0,180.0,3.0,0.0
480,76.0,0.0,180.0,0.0,0.0
481,40.0,48.0,180.0,3.0,0.0
482,64.0,912.0,240.0,1.0,0.0
483,52.0,0.0,180.0,3.0,0.0
484,53.0,48.0,180.0,3.0,0.0
485,41.0,0.0,180.0,3.0,0.0
486,65.0,432.0,240.0,1.0,0.0
487,77.0,0.0,180.0,0.0,0.0
488,74.0,0.0,180.0,0.0,0.0
489,38.0,0.0,180.0,3.0,0.0
490,62.0,432.0,240.0,1.0,0.0
491,50.0,48.0,180.0,3.0,0.0
492,52.0,192.0,480.0,2.0,0.0
493,72.0,48.0,180.0,0.0,0.0
494,60.0,240.0,240.0,1.0,0.0
495,55.0,0.0,240.0,2.0,0.0
496,48.0,0.0,15.0,3.0,0.0
497,76.0,48.0,180.0,0.0,0.0
498,64.0,240.0,240.0,1.0,0.0
499,55.0,192.0,240.0,2.0,0.0
500,60.0,240.0,240.0,1.0,0.0
501,72.0,48.0,180.0,0.0,0.0
502,52.0,0.0,15.0,2.0,0.0
503,55.0,0.0,240.0,2.0,0.0
504,48.0,480.0,15.0,3.0,0.0
505,79.0,0.0,960.0,0.0,0.0
506,52.0,0.0,15.0,2.0,0.0
507,67.0,240.0,960.0,1.0,0.0
508,55.0,0.0,240.0,2.0,0.0
509,48.0,480.0,15.0,3.0,0.0
510,55.0,0.0,240.0,2.0,0.0
511,77.0,240.0,240.0,0.0,0.0
512,48.0,0.0,480.0,3.0,0.0
513,52.0,0.0,15.0,2.0,0.0
514,76.0,240.0,240.0,0.0,0.0
515,55.0,0.0,240.0,2.0,0.0
516,74.0,240.0,240.0,0.0,0.0
517,55.0,0.0,240.0,2.0,0.0
518,72.0,0.0,240.0,0.0,0.0
519,52.0,0.0,15.0,2.0,0.0
520,48.0,240.0,15.0,3.0,0.0
521,71.0,240.0,240.0,0.0,0.0
522,72.0,240.0,240.0,0.0,0.0
523,55.0,0.0,240.0,2.0,0.0
524,52.0,480.0,480.0,2.0,0.0
525,48.0,0.0,15.0,3.0,0.0
526,76.0,240.0,240.0,0.0,0.0
527,72.0,0.0,240.0,0.0,0.0
528,55.0,0.0,240.0,2.0,0.0
529,48.0,0.0,15.0,3.0,0.0
530,71.0,0.0,480.0,0.0,0.0
531,57.0,0.0,240.0,2.0,0.0
532,69.0,120.0,360.0,0.0,0.0
533,53.0,360.0,15.0,2.0,0.0
534,57.0,0.0,240.0,2.0,0.0
535,67.0,240.0,240.0,0.0,0.0
536,48.0,240.0,15.0,3.0,0.0
537,65.0,240.0,240.0,0.0,0.0
538,57.0,0.0,240.0,2.0,0.0
539,53.0,0.0,15.0,2.0,0.0
540,48.0,0.0,15.0,3.0,0.0
541,64.0,240.0,240.0,0.0,0.0
542,62.0,0.0,240.0,0.0,0.0
543,57.0,0.0,240.0,2.0,0.0
544,48.0,240.0,15.0,3.0,0.0
545,61.0,240.0,240.0,0.0,0.0
546,57.0,0.0,240.0,2.0,0.0
547,62.0,240.0,240.0,0.0,0.0
548,53.0,0.0,15.0,2.0,0.0
549,65.0,240.0,240.0,0.0,0.0
550,48.0,0.0,480.0,3.0,0.0
551,57.0,0.0,240.0,2.0,0.0
552,62.0,0.0,240.0,0.0,0.0
553,59.0,0.0,960.0,0.0,0.0
554,50.0,0.0,480.0,2.0,0.0
555,55.0,0.0,240.0,2.0,0.0
556,53.0,480.0,15.0,2.0,0.0
557,48.0,0.0,15.0,3.0,0.0
558,55.0,0.0,240.0,2.0,0.0
559,48.0,0.0,15.0,3.0,0.0
560,53.0,0.0,15.0,2.0,0.0
561,62.0,240.0,240.0,0.0,0.0
562,50.0,240.0,15.0,2.0,0.0
563,55.0,192.0,240.0,2.0,0.0
564,65.0,288.0,180.0,0.0,0.0
565,50.0,192.0,480.0,2.0,0.0
566,53.0,0.0,480.0,2.0,0.0
567,55.0,0.0,240.0,2.0,0.0
568,48.0,0.0,15.0,3.0,0.0
569,62.0,288.0,180.0,0.0,0.0
570,55.0,0.0,240.0,2.0,0.0
571,53.0,0.0,15.0,2.0,0.0
572,48.0,0.0,15.0,3.0,0.0
573,59.0,288.0,180.0,0.0,0.0
574,50.0,192.0,15.0,2.0,0.0
575,55.0,192.0,240.0,2.0,0.0
576,48.0,0.0,15.0,3.0,0.0
577,60.0,240.0,180.0,0.0,0.0
578,55.0,240.0,180.0,1.0,0.0
579,64.0,0.0,180.0,0.0,0.0
580,67.0,240.0,180.0,2.0,0.0
581,55.0,240.0,180.0,1.0,0.0
582,60.0,240.0,180.0,0.0,0.0
583,64.0,0.0,180.0,2.0,0.0
584,55.0,48.0,180.0,1.0,0.0
585,48.0,192.0,15.0,3.0,0.0
586,60.0,240.0,180.0,0.0,0.0
587,55.0,240.0,180.0,1.0,0.0
588,64.0,0.0,180.0,0.0,0.0
589,67.0,240.0,180.0,2.0,0.0
590,55.0,240.0,180.0,1.0,0.0
591,64.0,240.0,180.0,2.0,0.0
592,60.0,0.0,180.0,0.0,0.0
593,55.0,48.0,180.0,1.0,0.0
594,48.0,192.0,1440.0,3.0,0.0
595,60.0,240.0,180.0,0.0,0.0
596,55.0,240.0,180.0,1.0,0.0
597,64.0,0.0,180.0,0.0,0.0
598,67.0,240.0,180.0,2.0,0.0
599,55.0,240.0,180.0,1.0,0.0
600,60.0,0.0,180.0,0.0,0.0
601,64.0,240.0,180.0,2.0,0.0
602,55.0,48.0,180.0,1.0,0.0
603,59.0,240.0,180.0,0.0,0.0
604,55.0,240.0,180.0,1.0,0.0
605,65.0,240.0,180.0,2.0,0.0
606,62.0,0.0,180.0,0.0,0.0
607,55.0,240.0,180.0,1.0,0.0
608,59.0,0.0,180.0,0.0,0.0
609,62.0,240.0,180.0,2.0,0.0
610,55.0,48.0,180.0,1.0,0.0
611,43.0,192.0,15.0,3.0,0.0
612,59.0,240.0,180.0,0.0,0.0
613,55.0,240.0,180.0,1.0,0.0
614,65.0,0.0,180.0,2.0,0.0
615,62.0,240.0,180.0,0.0,0.0
616,55.0,240.0,180.0,1.0,0.0
617,59.0,240.0,180.0,0.0,0.0
618,62.0,0.0,180.0,2.0,0.0
619,55.0,48.0,180.0,1.0,0.0
620,59.0,240.0,180.0,0.0,0.0
621,43.0,192.0,15.0,3.0,0.0
622,55.0,240.0,180.0,1.0,0.0
623,62.0,0.0,180.0,0.0,0.0
624,65.0,240.0,180.0,2.0,0.0
625,55.0,240.0,180.0,1.0,0.0
626,59.0,0.0,180.0,0.0,0.0
627,62.0,240.0,180.0,2.0,0.0
628,55.0,48.0,180.0,1.0,0.0
629,43.0,192.0,15.0,3.0,0.0
630,59.0,240.0,180.0,0.0,0.0
631,55.0,240.0,180.0,1.0,0.0
632,65.0,240.0,180.0,2.0,0.0
633,62.0,0.0,180.0,0.0,0.0
634,55.0,240.0,180.0,1.0,0.0
635,59.0,0.0,180.0,0.0,0.0
636,62.0,240.0,180.0,2.0,0.0
637,55.0,48.0,180.0,1.0,0.0
638,48.0,192.0,1440.0,3.0,0.0
639,60.0,240.0,180.0,0.0,0.0
640,55.0,240.0,180.0,1.0,0.0
641,63.0,240.0,180.0,2.0,0.0
642,60.0,0.0,180.0,0.0,0.0
643,55.0,240.0,180.0,1.0,0.0
644,60.0,0.0,180.0,0.0,0.0
645,63.0,240.0,180.0,2.0,0.0
646,55.0,48.0,180.0,1.0,0.0
647,56.0,240.0,180.0,0.0,0.0
648,44.0,192.0,1440.0,3.0,0.0
649,51.0,240.0,180.0,1.0,0.0
650,63.0,0.0,180.0,2.0,0.0
651,60.0,240.0,180.0,0.0,0.0
652,51.0,240.0,180.0,1.0,0.0
653,60.0,240.0,180.0,2.0,0.0
654,56.0,0.0,180.0,0.0,0.0
655,51.0,48.0,180.0,1.0,0.0
656,56.0,240.0,180.0,0.0,0.0
657,51.0,240.0,180.0,1.0,0.0
658,63.0,0.0,180.0,2.0,0.0
659,60.0,240.0,180.0,0.0,0.0
660,51.0,240.0,180.0,1.0,0.0
661,56.0,240.0,180.0,0.0,0.0
662,60.0,0.0,180.0,2.0,0.0
663,51.0,48.0,180.0,1.0,0.0
664,44.0,192.0,15.0,3.0,0.0
665,56.0,240.0,180.0,0.0,0.0
666,51.0,240.0,180.0,1.0,0.0
667,63.0,240.0,180.0,2.0,0.0
668,60.0,0.0,180.0,0.0,0.0
669,51.0,240.0,180.0,1.0,0.0
670,56.0,240.0,180.0,0.0,0.0
671,60.0,0.0,180.0,2.0,0.0
672,51.0,48.0,180.0,1.0,0.0
673,39.0,192.0,1440.0,3.0,0.0
674,55.0,240.0,180.0,0.0,0.0
675,51.0,240.0,180.0,1.0,0.0
676,58.0,240.0,180.0,0.0,0.0
677,61.0,0.0,180.0,2.0,0.0
678,51.0,240.0,180.0,1.0,0.0
679,58.0,240.0,180.0,2.0,0.0
680,55.0,0.0,180.0,0.0,0.0
681,51.0,48.0,180.0,1.0,0.0
682,55.0,240.0,180.0,0.0,0.0
683,51.0,240.0,180.0,1.0,0.0
684,58.0,0.0,180.0,0.0,0.0
685,61.0,240.0,180.0,2.0,0.0
686,51.0,240.0,180.0,1.0,0.0
687,55.0,0.0,180.0,0.0,0.0
688,58.0,240.0,180.0,2.0,0.0
689,51.0,48.0,180.0,1.0,0.0
690,55.0,240.0,180.0,0.0,0.0
691,39.0,192.0,15.0,3.0,0.0
692,51.0,240.0,180.0,1.0,0.0
693,61.0,0.0,180.0,2.0,0.0
694,58.0,240.0,180.0,0.0,0.0
695,51.0,240.0,180.0,1.0,0.0
696,55.0,240.0,180.0,0.0,0.0
697,58.0,0.0,180.0,2.0,0.0
698,51.0,48.0,180.0,1.0,0.0
699,55.0,240.0,180.0,0.0,0.0
700,39.0,192.0,15.0,3.0,0.0
701,51.0,240.0,180.0,1.0,0.0
702,58.0,240.0,180.0,0.0,0.0
703,61.0,0.0,180.0,2.0,0.0
704,51.0,240.0,180.0,1.0,0.0
705,55.0,0.0,180.0,0.0,0.0
706,58.0,240.0,180.0,2.0,0.0
707,51.0,48.0,180.0,1.0,0.0
708,56.0,240.0,180.0,0.0,0.0
709,51.0,240.0,180.0,1.0,0.0
710,60.0,0.0,180.0,2.0,0.0
711,56.0,240.0,180.0,0.0,0.0
712,51.0,240.0,180.0,1.0,0.0
713,56.0,240.0,180.0,0.0,0.0
714,60.0,0.0,180.0,2.0,0.0
715,51.0,48.0,180.0,1.0,0.0
716,44.0,240.0,15.0,3.0,0.0
717,32.0,240.0,1440.0,3.0,0.0
718,56.0,240.0,240.0,0.0,0.0
719,39.0,0.0,1440.0,2.0,0.0
720,51.0,240.0,240.0,0.0,0.0
721,50.0,240.0,240.0,0.0,0.0
722,51.0,240.0,240.0,0.0,0.0
723,55.0,240.0,240.0,0.0,0.0
724,56.0,0.0,240.0,0.0,0.0
725,31.0,0.0,1440.0,3.0,0.0
726,58.0,240.0,240.0,0.0,0.0
727,43.0,0.0,1440.0,3.0,0.0
728,51.0,240.0,240.0,0.0,0.0
729,50.0,240.0,240.0,0.0,0.0
730,51.0,240.0,240.0,0.0,0.0
731,56.0,240.0,240.0,0.0,0.0
732,58.0,0.0,240.0,0.0,0.0
733,44.0,0.0,960.0,3.0,0.0
734,32.0,0.0,960.0,3.0,0.0
735,39.0,240.0,15.0,2.0,0.0
736,60.0,240.0,240.0,0.0,0.0
737,56.0,240.0,240.0,0.0,0.0
738,55.0,240.0,240.0,0.0,0.0
739,56.0,240.0,240.0,0.0,0.0
740,41.0,240.0,240.0,3.0,0.0
741,61.0,0.0,240.0,0.0,0.0
742,63.0,192.0,240.0,0.0,0.0
743,36.0,0.0,240.0,3.0,0.0
744,37.0,48.0,180.0,3.0,0.0
745,65.0,240.0,240.0,0.0,0.0
746,63.0,192.0,240.0,0.0,0.0
747,61.0,240.0,240.0,0.0,0.0
748,37.0,48.0,180.0,3.0,0.0
749,60.0,192.0,240.0,0.0,0.0
750,58.0,240.0,240.0,0.0,0.0
751,38.0,48.0,180.0,3.0,0.0
752,56.0,480.0,240.0,0.0,0.0
753,55.0,0.0,480.0,0.0,0.0
754,39.0,720.0,480.0,3.0,0.0
755,61.0,0.0,240.0,3.0,0.0
756,73.0,240.0,240.0,0.0,0.0
757,63.0,240.0,240.0,3.0,0.0
758,75.0,0.0,240.0,0.0,0.0
759,65.0,240.0,240.0,3.0,0.0
760,77.0,0.0,240.0,0.0,0.0
761,75.0,240.0,240.0,0.0,0.0
762,63.0,0.0,240.0,3.0,0.0
763,73.0,240.0,240.0,0.0,0.0
764,61.0,0.0,240.0,3.0,0.0
765,60.0,240.0,240.0,3.0,0.0
766,72.0,0.0,240.0,0.0,0.0
767,70.0,0.0,240.0,0.0,0.0
768,58.0,240.0,240.0,3.0,0.0
769,68.0,480.0,240.0,0.0,0.0
770,56.0,0.0,240.0,3.0,0.0
771,55.0,0.0,480.0,3.0,0.0
772,67.0,720.0,480.0,0.0,0.0
773,61.0,240.0,240.0,0.0,0.0
774,49.0,0.0,240.0,3.0,0.0
775,51.0,0.0,240.0,3.0,0.0
776,63.0,240.0,240.0,0.0,0.0
777,64.0,240.0,240.0,0.0,0.0
778,52.0,0.0,240.0,3.0,0.0
779,51.0,240.0,240.0,3.0,0.0
780,63.0,0.0,240.0,0.0,0.0
781,61.0,0.0,240.0,0.0,0.0
782,49.0,240.0,240.0,3.0,0.0
783,47.0,0.0,240.0,3.0,0.0
784,59.0,240.0,240.0,0.0,0.0
785,58.0,0.0,240.0,0.0,0.0
786,46.0,240.0,240.0,3.0,0.0
787,63.0,0.0,240.0,0.0,0.0
788,51.0,192.0,240.0,3.0,0.0
789,56.0,240.0,180.0,0.0,0.0
790,51.0,240.0,180.0,1.0,0.0
791,63.0,240.0,180.0,2.0,0.0
792,59.0,0.0,180.0,0.0,0.0
793,51.0,240.0,180.0,1.0,0.0
794,59.0,0.0,180.0,2.0,0.0
795,56.0,240.0,180.0,0.0,0.0
796,51.0,48.0,180.0,1.0,0.0
797,44.0,192.0,15.0,3.0,0.0
798,56.0,240.0,180.0,0.0,0.0
799,51.0,240.0,180.0,1.0,0.0
800,59.0,240.0,180.0,0.0,0.0
801,63.0,0.0,180.0,2.0,0.0
802,51.0,240.0,180.0,1.0,0.0
803,59.0,240.0,180.0,2.0,0.0
804,56.0,0.0,180.0,0.0,0.0
805,51.0,48.0,180.0,1.0,0.0
806,56.0,240.0,180.0,0.0,0.0
807,44.0,192.0,1440.0,3.0,0.0
808,51.0,240.0,180.0,1.0,0.0
809,59.0,0.0,180.0,0.0,0.0
810,63.0,240.0,180.0,2.0,0.0
811,51.0,240.0,180.0,1.0,0.0
812,56.0,0.0,180.0,0.0,0.0
813,59.0,240.0,180.0,2.0,0.0
814,51.0,48.0,180.0,1.0,0.0
815,39.0,192.0,1440.0,3.0,0.0
816,55.0,240.0,180.0,0.0,0.0
817,51.0,240.0,180.0,1.0,0.0
818,58.0,0.0,180.0,0.0,0.0
819,61.0,240.0,180.0,2.0,0.0
820,51.0,240.0,180.0,1.0,0.0
821,58.0,0.0,180.0,2.0,0.0
822,55.0,240.0,180.0,0.0,0.0
823,51.0,48.0,180.0,1.0,0.0
824,55.0,240.0,180.0,0.0,0.0
825,39.0,192.0,1440.0,3.0,0.0
826,51.0,240.0,180.0,1.0,0.0
827,58.0,0.0,180.0,0.0,0.0
828,61.0,240.0,180.0,2.0,0.0
829,51.0,240.0,180.0,1.0,0.0
830,55.0,0.0,180.0,0.0,0.0
831,58.0,240.0,180.0,2.0,0.0
832,51.0,48.0,180.0,1.0,0.0
833,55.0,240.0,180.0,0.0,0.0
834,51.0,240.0,180.0,1.0,0.0
835,61.0,240.0,180.0,2.0,0.0
836,58.0,0.0,180.0,0.0,0.0
837,51.0,240.0,180.0,1.0,0.0
838,55.0,0.0,180.0,0.0,0.0
839,58.0,240.0,180.0,2.0,0.0
840,51.0,48.0,180.0,1.0,0.0
841,39.0,192.0,15.0,3.0,0.0
842,55.0,240.0,180.0,0.0,0.0
843,51.0,240.0,180.0,1.0,0.0
844,58.0,0.0,180.0,0.0,0.0
845,61.0,240.0,180.0,2.0,0.0
846,51.0,240.0,180.0,1.0,0.0
847,58.0,240.0,180.0,2.0,0.0
848,55.0,0.0,180.0,0.0,0.0
849,51.0,48.0,180.0,1.0,0.0
850,56.0,240.0,180.0,0.0,0.0
851,44.0,192.0,1440.0,3.0,0.0
852,51.0,49.0,180.0,1.0,0.0
853,59.0,239.0,15.0,2.0,0.0
854,56.0,192.0,240.0,0.0,0.0
855,51.0,240.0,180.0,1.0,0.0
856,58.0,192.0,240.0,0.0,0.0
857,61.0,48.0,180.0,2.0,0.0
858,54.0,48.0,180.0,1.0,0.0
859,47.0,192.0,1440.0,3.0,0.0
860,59.0,240.0,180.0,0.0,0.0
861,54.0,240.0,180.0,1.0,0.0
862,66.0,0.0,180.0,2.0,0.0
863,63.0,240.0,180.0,0.0,0.0
864,54.0,240.0,180.0,1.0,0.0
865,63.0,0.0,180.0,2.0,0.0
866,59.0,240.0,180.0,0.0,0.0
867,54.0,48.0,180.0,1.0,0.0
868,59.0,240.0,180.0,0.0,0.0
869,54.0,240.0,180.0,1.0,0.0
870,66.0,240.0,180.0,2.0,0.0
871,63.0,0.0,180.0,0.0,0.0
872,54.0,240.0,180.0,1.0,0.0
873,63.0,0.0,180.0,2.0,0.0
874,59.0,240.0,180.0,0.0,0.0
875,54.0,48.0,180.0,1.0,0.0
876,47.0,192.0,15.0,3.0,0.0
877,59.0,240.0,180.0,0.0,0.0
878,54.0,240.0,180.0,1.0,0.0
879,66.0,240.0,180.0,2.0,0.0
880,63.0,0.0,180.0,0.0,0.0
881,54.0,240.0,180.0,1.0,0.0
882,63.0,240.0,180.0,2.0,0.0
883,59.0,0.0,180.0,0.0,0.0
884,54.0,48.0,180.0,1.0,0.0
885,42.0,192.0,1440.0,3.0,0.0
886,58.0,240.0,180.0,0.0,0.0
887,54.0,240.0,180.0,1.0,0.0
888,61.0,0.0,180.0,0.0,0.0
889,64.0,240.0,180.0,2.0,0.0
890,54.0,240.0,180.0,1.0,0.0
891,58.0,0.0,180.0,0.0,0.0
892,61.0,240.0,180.0,2.0,0.0
893,54.0,48.0,180.0,1.0,0.0
894,58.0,240.0,180.0,0.0,0.0
895,54.0,240.0,180.0,1.0,0.0
896,61.0,240.0,180.0,0.0,0.0
897,64.0,0.0,180.0,2.0,0.0
898,54.0,240.0,180.0,1.0,0.0
899,61.0,0.0,180.0,2.0,0.0
900,58.0,240.0,180.0,0.0,0.0
901,54.0,48.0,180.0,1.0,0.0
902,58.0,240.0,180.0,0.0,0.0
903,42.0,192.0,15.0,3.0,0.0
904,54.0,240.0,180.0,1.0,0.0
905,61.0,240.0,180.0,0.0,0.0
906,64.0,0.0,180.0,2.0,0.0
907,54.0,240.0,180.0,1.0,0.0
908,61.0,0.0,180.0,2.0,0.0
909,58.0,240.0,180.0,0.0,0.0
910,54.0,48.0,180.0,1.0,0.0
911,42.0,192.0,15.0,3.0,0.0
912,58.0,240.0,180.0,0.0,0.0
913,54.0,240.0,180.0,1.0,0.0
914,64.0,240.0,180.0,2.0,0.0
915,61.0,0.0,180.0,0.0,0.0
916,54.0,240.0,180.0,1.0,0.0
917,61.0,0.0,180.0,2.0,0.0
918,58.0,240.0,180.0,0.0,0.0
919,54.0,48.0,180.0,1.0,0.0
920,47.0,240.0,1440.0,3.0,0.0
921,59.0,240.0,180.0,0.0,0.0
922,54.0,240.0,180.0,1.0,0.0
923,63.0,0.0,180.0,2.0,0.0
924,59.0,240.0,180.0,0.0,0.0
925,54.0,240.0,180.0,1.0,0.0
926,63.0,240.0,180.0,2.0,0.0
927,59.0,0.0,180.0,0.0,0.0
928,54.0,48.0,180.0,1.0,0.0
929,59.0,240.0,240.0,0.0,0.0
930,42.0,0.0,1440.0,2.0,0.0
931,47.0,0.0,1440.0,3.0,0.0
932,35.0,0.0,1440.0,3.0,0.0
933,54.0,240.0,240.0,0.0,0.0
934,53.0,240.0,240.0,0.0,0.0
935,54.0,240.0,240.0,0.0,0.0
936,58.0,240.0,240.0,0.0,0.0
937,59.0,240.0,240.0,0.0,0.0
938,46.0,0.0,1440.0,3.0,0.0
939,34.0,0.0,1440.0,3.0,0.0
940,61.0,240.0,240.0,0.0,0.0
941,42.0,0.0,1440.0,2.0,0.0
942,54.0,240.0,240.0,0.0,0.0
943,53.0,240.0,240.0,0.0,0.0
944,54.0,240.0,240.0,0.0,0.0
945,59.0,240.0,240.0,0.0,0.0
946,61.0,240.0,240.0,0.0,0.0
947,42.0,240.0,960.0,2.0,0.0
948,47.0,0.0,960.0,3.0,0.0
949,35.0,0.0,960.0,3.0,0.0
950,63.0,240.0,240.0,0.0,0.0
951,59.0,240.0,240.0,0.0,0.0
952,58.0,240.0,240.0,0.0,0.0
953,59.0,0.0,240.0,0.0,0.0
954,64.0,0.0,240.0,0.0,0.0
955,44.0,240.0,240.0,3.0,0.0
956,66.0,192.0,240.0,0.0,0.0
957,39.0,0.0,240.0,3.0,0.0
958,68.0,240.0,240.0,0.0,0.0
959,40.0,48.0,180.0,3.0,0.0
960,66.0,192.0,240.0,0.0,0.0
961,40.0,48.0,180.0,3.0,0.0
962,64.0,240.0,240.0,0.0,0.0
963,63.0,192.0,240.0,0.0,0.0
964,41.0,48.0,180.0,3.0,0.0
965,61.0,240.0,240.0,0.0,0.0
966,59.0,480.0,240.0,0.0,0.0
967,42.0,720.0,480.0,3.0,0.0
968,58.0,0.0,480.0,0.0,0.0
969,68.0,0.0,240.0,3.0,0.0
970,76.0,240.0,240.0,0.0,0.0
971,66.0,0.0,240.0,3.0,0.0
972,78.0,192.0,240.0,0.0,0.0
973,64.0,48.0,180.0,3.0,0.0
974,80.0,240.0,240.0,0.0,0.0
975,78.0,192.0,240.0,0.0,0.0
976,76.0,240.0,240.0,0.0,0.0
977,64.0,48.0,180.0,3.0,0.0
978,75.0,192.0,240.0,0.0,0.0
979,65.0,48.0,180.0,3.0,0.0
980,73.0,240.0,240.0,0.0,0.0
981,71.0,480.0,240.0,0.0,0.0
982,70.0,0.0,480.0,0.0,0.0
983,66.0,720.0,480.0,3.0,0.0
984,44.0,240.0,240.0,3.0,0.0
985,56.0,0.0,240.0,0.0,0.0
986,58.0,240.0,240.0,0.0,0.0
987,46.0,0.0,240.0,3.0,0.0
988,47.0,240.0,240.0,3.0,0.0
989,59.0,0.0,240.0,0.0,0.0
990,58.0,0.0,240.0,0.0,0.0
991,46.0,240.0,240.0,3.0,0.0
992,56.0,0.0,240.0,0.0,0.0
993,44.0,240.0,240.0,3.0,0.0
994,54.0,0.0,240.0,0.0,0.0
995,42.0,240.0,240.0,3.0,0.0
996,53.0,0.0,240.0,0.0,0.0
997,41.0,240.0,240.0,3.0,0.0
998,51.0,0.0,240.0,0.0,0.0
999,39.0,480.0,240.0,3.0,0.0
1000,50.0,0.0,480.0,0.0,0.0
1001,38.0,720.0,480.0,3.0,0.0
1002,68.0,240.0,240.0,3.0,0.0
1003,80.0,0.0,240.0,0.0,0.0
1004,82.0,0.0,240.0,0.0,0.0
1005,70.0,240.0,240.0,3.0,0.0
1006,83.0,0.0,240.0,0.0,0.0
1007,71.0,240.0,240.0,3.0,0.0
1008,82.0,0.0,240.0,0.0,0.0
1009,70.0,240.0,240.0,3.0,0.0
1010,80.0,240.0,240.0,0.0,0.0
1011,68.0,0.0,240.0,3.0,0.0
1012,78.0,0.0,240.0,0.0,0.0
1013,66.0,240.0,240.0,3.0,0.0
1014,77.0,240.0,240.0,0.0,0.0
1015,65.0,0.0,240.0,3.0,0.0
1016,63.0,240.0,240.0,3.0,0.0
1017,75.0,0.0,240.0,0.0,0.0
1018,74.0,0.0,240.0,0.0,0.0
1019,62.0,240.0,240.0,3.0,0.0
1020,59.0,240.0,240.0,3.0,0.0
1021,71.0,0.0,240.0,0.0,0.0
1022,70.0,240.0,240.0,0.0,0.0
1023,58.0,0.0,240.0,3.0,0.0
1024,56.0,240.0,240.0,3.0,0.0
1025,68.0,0.0,240.0,0.0,0.0
1026,66.0,0.0,240.0,0.0,0.0
1027,54.0,240.0,240.0,3.0,0.0
1028,53.0,192.0,240.0,3.0,0.0
1029,65.0,0.0,240.0,0.0,0.0
1030,51.0,48.0,180.0,3.0,0.0
1031,63.0,240.0,240.0,0.0,0.0
1032,62.0,192.0,240.0,0.0,0.0
1033,47.0,48.0,180.0,3.0,0.0
1034,63.0,240.0,240.0,0.0,0.0
1035,65.0,192.0,240.0,0.0,0.0
1036,45.0,48.0,180.0,3.0,0.0
1037,66.0,240.0,240.0,0.0,0.0
1038,63.0,480.0,240.0,0.0,0.0
1039,62.0,192.0,480.0,0.0,0.0
1040,46.0,192.0,1440.0,3.0,0.0
1041,65.0,0.0,180.0,2.0,0.0
1042,62.0,240.0,180.0,0.0,0.0
1043,53.0,240.0,180.0,1.0,0.0
1044,58.0,240.0,180.0,0.0,0.0
1045,62.0,0.0,180.0,2.0,0.0
1046,53.0,48.0,180.0,1.0,0.0
1047,46.0,192.0,1440.0,3.0,0.0
1048,58.0,240.0,180.0,0.0,0.0
1049,53.0,240.0,180.0,1.0,0.0
1050,65.0,0.0,180.0,2.0,0.0
1051,62.0,240.0,180.0,0.0,0.0
1052,53.0,240.0,180.0,1.0,0.0
1053,58.0,240.0,180.0,0.0,0.0
1054,62.0,0.0,180.0,2.0,0.0
1055,53.0,48.0,180.0,1.0,0.0
1056,58.0,240.0,180.0,0.0,0.0
1057,46.0,192.0,1440.0,3.0,0.0
1058,53.0,240.0,180.0,1.0,0.0
1059,62.0,0.0,180.0,0.0,0.0
1060,65.0,240.0,180.0,2.0,0.0
1061,53.0,240.0,180.0,1.0,0.0
1062,62.0,0.0,180.0,2.0,0.0
1063,58.0,240.0,180.0,0.0,0.0
1064,53.0,48.0,180.0,1.0,0.0
1065,57.0,240.0,180.0,0.0,0.0
1066,53.0,240.0,180.0,1.0,0.0
1067,63.0,240.0,180.0,2.0,0.0
1068,60.0,0.0,180.0,0.0,0.0
1069,53.0,240.0,180.0,1.0,0.0
1070,57.0,0.0,180.0,0.0,0.0
1071,60.0,240.0,180.0,2.0,0.0
1072,53.0,48.0,180.0,1.0,0.0
1073,41.0,192.0,15.0,3.0,0.0
1074,57.0,240.0,180.0,0.0,0.0
1075,53.0,240.0,180.0,1.0,0.0
1076,63.0,240.0,180.0,2.0,0.0
1077,60.0,0.0,180.0,0.0,0.0
1078,53.0,240.0,180.0,1.0,0.0
1079,60.0,240.0,180.0,2.0,0.0
1080,57.0,0.0,180.0,0.0,0.0
1081,53.0,48.0,180.0,1.0,0.0
1082,41.0,192.0,1440.0,3.0,0.0
1083,57.0,240.0,180.0,0.0,0.0
1084,53.0,240.0,180.0,1.0,0.0
1085,60.0,0.0,180.0,0.0,0.0
1086,63.0,240.0,180.0,2.0,0.0
1087,53.0,240.0,180.0,1.0,0.0
1088,57.0,240.0,180.0,0.0,0.0
1089,60.0,0.0,180.0,2.0,0.0
1090,53.0,48.0,180.0,1.0,0.0
1091,57.0,240.0,180.0,0.0,0.0
1092,41.0,192.0,1440.0,3.0,0.0
1093,53.0,240.0,180.0,1.0,0.0
1094,63.0,0.0,180.0,2.0,0.0
1095,60.0,240.0,180.0,0.0,0.0
1096,53.0,240.0,180.0,1.0,0.0
1097,57.0,0.0,180.0,0.0,0.0
1098,60.0,240.0,180.0,2.0,0.0
1099,53.0,48.0,180.0,1.0,0.0
1100,58.0,240.0,180.0,0.0,0.0
1101,46.0,192.0,1440.0,3.0,0.0
1102,53.0,240.0,180.0,1.0,0.0
1103,65.0,240.0,180.0,0.0,0.0
1104,62.0,0.0,180.0,2.0,0.0
1105,58.0,240.0,180.0,1.0,0.0
1106,65.0,0.0,180.0,0.0,0.0
1107,58.0,240.0,180.0,2.0,0.0
1108,62.0,48.0,180.0,1.0,0.0
1109,50.0,288.0,180.0,3.0,0.0
1110,65.0,0.0,480.0,1.0,0.0
1111,70.0,0.0,180.0,0.0,0.0
1112,58.0,192.0,240.0,1.0,0.0
1113,70.0,0.0,180.0,0.0,0.0
1114,65.0,192.0,480.0,1.0,0.0
1115,46.0,288.0,180.0,3.0,0.0
1116,58.0,0.0,240.0,1.0,0.0
1117,38.0,288.0,180.0,3.0,0.0
1118,70.0,0.0,180.0,0.0,0.0
1119,58.0,0.0,240.0,1.0,0.0
1120,70.0,288.0,180.0,0.0,0.0
1121,34.0,0.0,180.0,3.0,0.0
1122,65.0,192.0,15.0,1.0,0.0
1123,58.0,0.0,240.0,1.0,0.0
1124,50.0,0.0,180.0,3.0,0.0
1125,70.0,288.0,180.0,0.0,0.0
1126,65.0,192.0,15.0,1.0,0.0
1127,58.0,0.0,240.0,1.0,0.0
1128,70.0,0.0,180.0,0.0,0.0
1129,46.0,288.0,180.0,3.0,0.0
1130,58.0,192.0,240.0,1.0,0.0
1131,65.0,0.0,15.0,1.0,0.0
1132,38.0,0.0,180.0,3.0,0.0
1133,68.0,288.0,180.0,0.0,0.0
1134,58.0,0.0,240.0,1.0,0.0
1135,34.0,288.0,180.0,3.0,0.0
1136,68.0,0.0,180.0,0.0,0.0
1137,58.0,0.0,240.0,1.0,0.0
1138,68.0,288.0,180.0,0.0,0.0
1139,50.0,0.0,180.0,3.0,0.0
1140,65.0,192.0,15.0,1.0,0.0
1141,58.0,192.0,240.0,1.0,0.0
1142,46.0,0.0,180.0,3.0,0.0
1143,68.0,288.0,180.0,0.0,0.0
1144,58.0,0.0,240.0,1.0,0.0
1145,68.0,288.0,180.0,0.0,0.0
1146,65.0,192.0,15.0,1.0,0.0
1147,38.0,0.0,180.0,3.0,0.0
1148,58.0,0.0,240.0,1.0,0.0
1149,34.0,288.0,180.0,3.0,0.0
1150,65.0,0.0,480.0,1.0,0.0
1151,68.0,0.0,180.0,0.0,0.0
1152,58.0,240.0,240.0,1.0,0.0
1153,63.0,0.0,240.0,1.0,0.0
1154,75.0,432.0,240.0,0.0,0.0
1155,39.0,32.0,4290.0,3.0,0.0
1156,79.0,48.0,180.0,0.0,0.0
1157,67.0,240.0,240.0,1.0,0.0
1158,51.0,192.0,480.0,3.0,0.0
1159,55.0,0.0,480.0,2.0,0.0
1160,58.0,0.0,240.0,2.0,0.0
1161,75.0,48.0,180.0,0.0,0.0
1162,55.0,0.0,480.0,2.0,0.0
1163,51.0,480.0,480.0,3.0,0.0
1164,63.0,240.0,240.0,1.0,0.0
1165,58.0,0.0,240.0,2.0,0.0
1166,70.0,0.0,960.0,1.0,0.0
1167,82.0,240.0,960.0,0.0,0.0
1168,58.0,0.0,240.0,2.0,0.0
1169,55.0,480.0,15.0,2.0,0.0
1170,51.0,0.0,15.0,3.0,0.0
1171,58.0,0.0,240.0,2.0,0.0
1172,51.0,0.0,480.0,3.0,0.0
1173,80.0,240.0,240.0,0.0,0.0
1174,58.0,0.0,240.0,2.0,0.0
1175,79.0,240.0,240.0,0.0,0.0
1176,55.0,0.0,15.0,2.0,0.0
1177,77.0,240.0,240.0,0.0,0.0
1178,75.0,0.0,240.0,0.0,0.0
1179,58.0,0.0,240.0,2.0,0.0
1180,55.0,0.0,15.0,2.0,0.0
1181,51.0,240.0,15.0,3.0,0.0
1182,74.0,240.0,240.0,0.0,0.0
1183,58.0,240.0,240.0,2.0,0.0
1184,75.0,0.0,240.0,0.0,0.0
1185,79.0,208.0,240.0,0.0,0.0
1186,55.0,0.0,480.0,2.0,0.0
1187,51.0,0.0,480.0,3.0,0.0
1188,75.0,0.0,240.0,0.0,0.0
1189,58.0,480.0,240.0,2.0,0.0
1190,74.0,0.0,480.0,0.0,0.0
1191,56.0,360.0,480.0,2.0,0.0
1192,60.0,0.0,240.0,2.0,0.0
1193,51.0,0.0,15.0,3.0,0.0
1194,72.0,120.0,360.0,0.0,0.0
1195,56.0,0.0,480.0,2.0,0.0
1196,60.0,240.0,240.0,2.0,0.0
1197,56.0,240.0,480.0,2.0,0.0
1198,70.0,240.0,240.0,0.0,0.0
1199,51.0,0.0,480.0,3.0,0.0
1200,60.0,0.0,240.0,2.0,0.0
1201,68.0,0.0,240.0,0.0,0.0
1202,51.0,0.0,480.0,3.0,0.0
1203,67.0,240.0,240.0,0.0,0.0
1204,65.0,240.0,240.0,0.0,0.0
1205,60.0,0.0,240.0,2.0,0.0
1206,51.0,240.0,480.0,3.0,0.0
1207,56.0,0.0,15.0,2.0,0.0
1208,64.0,240.0,240.0,0.0,0.0
1209,60.0,0.0,240.0,2.0,0.0
1210,65.0,0.0,240.0,0.0,0.0
1211,68.0,240.0,240.0,0.0,0.0
1212,51.0,480.0,480.0,3.0,0.0
1213,65.0,0.0,240.0,0.0,0.0
1214,60.0,0.0,240.0,2.0,0.0
1215,53.0,0.0,480.0,2.0,0.0
1216,56.0,0.0,15.0,2.0,0.0
1217,62.0,50.0,750.0,0.0,0.0
1218,51.0,0.0,480.0,3.0,0.0
1219,58.0,270.0,240.0,2.0,0.0
1220,51.0,0.0,480.0,3.0,0.0
1221,53.0,0.0,480.0,2.0,0.0
1222,58.0,480.0,240.0,2.0,0.0
1223,67.0,80.0,90.0,0.0,0.0
1224,65.0,80.0,90.0,0.0,0.0
1225,64.0,0.0,90.0,0.0,0.0
1226,56.0,0.0,15.0,2.0,0.0
1227,65.0,0.0,480.0,0.0,0.0
1228,53.0,0.0,480.0,2.0,0.0
1229,58.0,0.0,240.0,2.0,0.0
1230,51.0,240.0,15.0,3.0,0.0
1231,53.0,0.0,480.0,2.0,0.0
1232,68.0,240.0,240.0,0.0,0.0
1233,58.0,0.0,240.0,2.0,0.0
1234,51.0,0.0,480.0,3.0,0.0
1235,65.0,288.0,180.0,0.0,0.0
1236,56.0,192.0,15.0,2.0,0.0
1237,58.0,192.0,240.0,2.0,0.0
1238,53.0,0.0,15.0,2.0,0.0
1239,56.0,0.0,480.0,2.0,0.0
1240,62.0,288.0,180.0,0.0,0.0
1241,58.0,240.0,240.0,2.0,0.0
1242,55.0,0.0,1440.0,3.0,0.0
1243,51.0,0.0,15.0,3.0,0.0
1244,63.0,240.0,240.0,0.0,0.0
1245,58.0,240.0,240.0,0.0,0.0
1246,57.0,240.0,240.0,0.0,0.0
1247,58.0,240.0,240.0,0.0,0.0
1248,62.0,240.0,240.0,0.0,0.0
1249,63.0,240.0,240.0,0.0,0.0
1250,65.0,240.0,240.0,0.0,0.0
1251,50.0,0.0,1440.0,3.0,0.0
1252,53.0,240.0,1440.0,3.0,0.0
1253,58.0,240.0,240.0,0.0,0.0
1254,57.0,240.0,240.0,0.0,0.0
1255,58.0,240.0,240.0,0.0,0.0
1256,63.0,240.0,240.0,0.0,0.0
1257,65.0,0.0,240.0,0.0,0.0
1258,67.0,240.0,240.0,0.0,0.0
1259,51.0,0.0,1440.0,3.0,0.0
1260,55.0,0.0,1440.0,3.0,0.0
1261,63.0,240.0,240.0,0.0,0.0
1262,62.0,240.0,240.0,0.0,0.0
1263,63.0,240.0,240.0,0.0,0.0
1264,65.0,240.0,240.0,0.0,0.0
1265,67.0,240.0,240.0,0.0,0.0
1266,68.0,240.0,240.0,0.0,0.0
1267,56.0,0.0,1440.0,3.0,0.0
1268,53.0,240.0,1440.0,3.0,0.0
1269,63.0,240.0,240.0,0.0,0.0
1270,62.0,240.0,240.0,0.0,0.0
1271,63.0,240.0,240.0,0.0,0.0
1272,67.0,240.0,240.0,0.0,0.0
1273,68.0,0.0,240.0,0.0,0.0
1274,70.0,240.0,480.0,0.0,0.0
1275,43.0,240.0,240.0,3.0,0.0
1276,46.0,0.0,240.0,3.0,0.0
1277,51.0,240.0,240.0,3.0,0.0
1278,55.0,240.0,240.0,3.0,0.0
1279,58.0,0.0,240.0,0.0,0.0
1280,63.0,240.0,240.0,0.0,0.0
1281,67.0,240.0,240.0,0.0,0.0
1282,70.0,240.0,240.0,0.0,0.0
1283,63.0,240.0,240.0,0.0,0.0
1284,67.0,240.0,240.0,0.0,0.0
1285,70.0,240.0,240.0,0.0,0.0
1286,75.0,240.0,240.0,0.0,0.0
1287,67.0,240.0,240.0,0.0,0.0
1288,70.0,240.0,240.0,0.0,0.0
1289,75.0,240.0,240.0,0.0,0.0
1290,79.0,240.0,240.0,0.0,0.0
1291,70.0,240.0,240.0,0.0,0.0
1292,75.0,240.0,240.0,0.0,0.0
1293,79.0,240.0,240.0,0.0,0.0
1294,82.0,240.0,240.0,0.0,0.0
1295,80.0,240.0,240.0,0.0,0.0
1296,79.0,240.0,240.0,0.0,0.0
1297,77.0,240.0,240.0,0.0,0.0
1298,75.0,240.0,240.0,0.0,0.0
1299,73.0,240.0,240.0,0.0,0.0
1300,72.0,0.0,480.0,0.0,0.0
1301,44.0,240.0,240.0,3.0,0.0
1302,48.0,240.0,240.0,3.0,0.0
1303,51.0,240.0,240.0,3.0,0.0
1304,60.0,240.0,240.0,0.0,0.0
1305,56.0,0.0,240.0,3.0,0.0
1306,63.0,240.0,240.0,0.0,0.0
1307,68.0,240.0,240.0,0.0,0.0
1308,72.0,240.0,240.0,0.0,0.0
1309,60.0,240.0,240.0,0.0,0.0
1310,63.0,240.0,240.0,0.0,0.0
1311,68.0,240.0,240.0,0.0,0.0
1312,72.0,240.0,240.0,0.0,0.0
1313,63.0,240.0,240.0,0.0,0.0
1314,68.0,240.0,240.0,0.0,0.0
1315,72.0,240.0,240.0,0.0,0.0
1316,75.0,240.0,240.0,0.0,0.0
1317,68.0,240.0,240.0,0.0,0.0
1318,72.0,240.0,240.0,0.0,0.0
1319,75.0,240.0,240.0,0.0,0.0
1320,80.0,240.0,240.0,0.0,0.0
1321,72.0,240.0,240.0,0.0,0.0
1322,75.0,240.0,240.0,0.0,0.0
1323,80.0,240.0,240.0,0.0,0.0
1324,84.0,240.0,240.0,0.0,0.0
1325,82.0,240.0,240.0,0.0,0.0
1326,69.0,240.0,480.0,0.0,0.0
1327,41.0,240.0,240.0,3.0,0.0
1328,45.0,0.0,240.0,3.0,0.0
1329,48.0,240.0,240.0,3.0,0.0
1330,51.0,0.0,240.0,3.0,0.0
1331,57.0,240.0,240.0,0.0,0.0
1332,60.0,240.0,240.0,0.0,0.0
1333,63.0,240.0,240.0,0.0,0.0
1334,69.0,240.0,240.0,0.0,0.0
1335,60.0,240.0,240.0,0.0,0.0
1336,63.0,240.0,240.0,0.0,0.0
1337,69.0,240.0,240.0,0.0,0.0
1338,72.0,240.0,240.0,0.0,0.0
1339,63.0,240.0,240.0,0.0,0.0
1340,69.0,240.0,240.0,0.0,0.0
1341,72.0,240.0,240.0,0.0,0.0
1342,75.0,240.0,240.0,0.0,0.0
1343,69.0,240.0,240.0,0.0,0.0
1344,72.0,240.0,240.0,0.0,0.0
1345,75.0,240.0,240.0,0.0,0.0
1346,81.0,240.0,240.0,0.0,0.0
1347,84.0,240.0,240.0,0.0,0.0
1348,60.0,0.0,360.0,3.0,0.0
1349,57.0,120.0,360.0,3.0,0.0
1350,77.0,120.0,240.0,0.0,0.0
1351,79.0,240.0,240.0,0.0,0.0
1352,77.0,120.0,240.0,0.0,0.0
1353,60.0,0.0,360.0,3.0,0.0
1354,63.0,120.0,360.0,3.0,0.0
1355,79.0,240.0,240.0,0.0,0.0
1356,77.0,240.0,1440.0,0.0,0.0
1357,58.0,240.0,480.0,3.0,0.0
1358,62.0,240.0,240.0,3.0,0.0
1359,74.0,0.0,1440.0,1.0,0.0
1360,63.0,0.0,240.0,3.0,0.0
1361,65.0,240.0,240.0,3.0,0.0
1362,67.0,240.0,240.0,3.0,0.0
1363,69.0,240.0,240.0,3.0,0.0
1364,70.0,0.0,240.0,3.0,0.0
1365,75.0,0.0,1440.0,1.0,0.0
1366,77.0,240.0,1440.0,0.0,0.0
1367,69.0,240.0,240.0,3.0,0.0
1368,67.0,240.0,240.0,3.0,0.0
1369,65.0,240.0,240.0,3.0,0.0
1370,63.0,240.0,240.0,3.0,0.0
1371,62.0,240.0,240.0,3.0,0.0
1372,60.0,0.0,240.0,3.0,0.0
1373,77.0,0.0,1440.0,1.0,0.0
1374,80.0,240.0,1440.0,0.0,0.0
1375,58.0,240.0,240.0,3.0,0.0
1376,56.0,240.0,240.0,3.0,0.0
1377,55.0,240.0,240.0,3.0,0.0
1378,53.0,240.0,240.0,3.0,0.0
1379,51.0,240.0,240.0,3.0,0.0
1380,50.0,0.0,240.0,3.0,0.0
1381,51.0,240.0,240.0,3.0,0.0
1382,75.0,0.0,480.0,1.0,0.0
1383,53.0,240.0,240.0,3.0,0.0
1384,79.0,0.0,15.0,0.0,0.0
1385,75.0,240.0,480.0,1.0,0.0
1386,55.0,240.0,240.0,3.0,0.0
1387,57.0,0.0,240.0,3.0,0.0
1388,79.0,0.0,15.0,0.0,0.0
1389,58.0,240.0,240.0,3.0,0.0
1390,75.0,0.0,480.0,1.0,0.0
1391,60.0,240.0,240.0,3.0,0.0
1392,74.0,0.0,1440.0,1.0,0.0
1393,58.0,240.0,480.0,3.0,0.0
1394,62.0,240.0,240.0,3.0,0.0
1395,63.0,0.0,240.0,3.0,0.0
1396,65.0,240.0,240.0,3.0,0.0
1397,67.0,240.0,240.0,3.0,0.0
1398,69.0,240.0,240.0,3.0,0.0
1399,70.0,240.0,240.0,3.0,0.0
1400,77.0,0.0,15.0,0.0,0.0
1401,75.0,0.0,1440.0,1.0,0.0
1402,69.0,240.0,240.0,3.0,0.0
1403,67.0,240.0,240.0,3.0,0.0
1404,65.0,240.0,240.0,3.0,0.0
1405,63.0,240.0,240.0,3.0,0.0
1406,62.0,240.0,240.0,3.0,0.0
1407,60.0,0.0,240.0,3.0,0.0
1408,77.0,0.0,1440.0,1.0,0.0
1409,80.0,240.0,1440.0,0.0,0.0
1410,58.0,240.0,240.0,3.0,0.0
1411,56.0,240.0,240.0,3.0,0.0
1412,55.0,240.0,240.0,3.0,0.0
1413,53.0,240.0,240.0,3.0,0.0
1414,51.0,240.0,240.0,3.0,0.0
1415,50.0,0.0,240.0,3.0,0.0
1416,51.0,240.0,240.0,3.0,0.0
1417,75.0,240.0,480.0,1.0,0.0
1418,79.0,0.0,480.0,0.0,0.0
1419,53.0,0.0,240.0,3.0,0.0
1420,55.0,240.0,240.0,3.0,0.0
1421,57.0,0.0,240.0,3.0,0.0
1422,79.0,0.0,15.0,0.0,0.0
1423,75.0,240.0,15.0,1.0,0.0
1424,58.0,240.0,240.0,3.0,0.0
1425,60.0,240.0,240.0,3.0,0.0
1426,65.0,240.0,1440.0,3.0,0.0
1427,62.0,0.0,1440.0,3.0,0.0
1428,77.0,240.0,240.0,0.0,0.0
1429,74.0,0.0,240.0,1.0,0.0
1430,75.0,240.0,240.0,0.0,0.0
1431,77.0,240.0,240.0,0.0,0.0
1432,79.0,240.0,240.0,0.0,0.0
1433,81.0,240.0,240.0,0.0,0.0
1434,82.0,0.0,240.0,0.0,0.0
1435,81.0,240.0,240.0,0.0,0.0
1436,60.0,240.0,1440.0,3.0,0.0
1437,79.0,240.0,240.0,0.0,0.0
1438,77.0,240.0,240.0,0.0,0.0
1439,75.0,240.0,240.0,0.0,0.0
1440,74.0,240.0,240.0,0.0,0.0
1441,72.0,0.0,240.0,0.0,0.0
1442,75.0,240.0,240.0,0.0,0.0
1443,58.0,0.0,15.0,3.0,0.0
1444,69.0,240.0,1440.0,3.0,0.0
1445,63.0,0.0,15.0,3.0,0.0
1446,77.0,240.0,240.0,0.0,0.0
1447,79.0,240.0,240.0,0.0,0.0
1448,81.0,240.0,240.0,0.0,0.0
1449,82.0,240.0,240.0,0.0,0.0
1450,84.0,0.0,240.0,0.0,0.0
1451,82.0,240.0,240.0,0.0,0.0
1452,62.0,0.0,1440.0,3.0,0.0
1453,65.0,0.0,1440.0,3.0,0.0
1454,80.0,240.0,240.0,0.0,0.0
1455,79.0,240.0,240.0,0.0,0.0
1456,77.0,240.0,240.0,0.0,0.0
1457,75.0,240.0,240.0,0.0,0.0
1458,74.0,0.0,240.0,0.0,0.0
1459,77.0,240.0,240.0,0.0,0.0
1460,58.0,240.0,15.0,3.0,0.0
1461,68.0,0.0,1440.0,3.0,0.0
1462,80.0,240.0,240.0,0.0,0.0
1463,86.0,240.0,240.0,0.0,0.0
1464,80.0,240.0,240.0,0.0,0.0
1465,89.0,240.0,240.0,0.0,0.0
1466,86.0,240.0,240.0,0.0,0.0
1467,62.0,0.0,15.0,3.0,0.0
1468,65.0,0.0,15.0,3.0,0.0
1469,59.0,240.0,1440.0,3.0,0.0
1470,89.0,240.0,240.0,0.0,0.0
1471,86.0,240.0,240.0,0.0,0.0
1472,89.0,240.0,240.0,0.0,0.0
1473,86.0,240.0,240.0,0.0,0.0
1474,89.0,240.0,240.0,0.0,0.0
1475,86.0,0.0,240.0,0.0,0.0
1476,89.0,240.0,240.0,0.0,0.0
1477,65.0,0.0,960.0,3.0,0.0
1478,62.0,0.0,15.0,3.0,0.0
1479,58.0,240.0,960.0,3.0,0.0
1480,68.0,0.0,15.0,3.0,0.0
1481,86.0,240.0,240.0,0.0,0.0
1482,82.0,240.0,240.0,0.0,0.0
1483,84.0,0.0,240.0,0.0,0.0
1484,86.0,240.0,240.0,0.0,0.0
1485,56.0,0.0,480.0,3.0,0.0
1486,65.0,0.0,480.0,3.0,0.0
1487,62.0,0.0,480.0,3.0,0.0
1488,82.0,240.0,240.0,0.0,0.0
1489,55.0,0.0,960.0,3.0,0.0
1490,87.0,240.0,240.0,0.0,0.0
1491,58.0,0.0,960.0,3.0,0.0
1492,82.0,240.0,240.0,0.0,0.0
1493,87.0,240.0,240.0,0.0,0.0
1494,82.0,0.0,240.0,0.0,0.0
1495,79.0,240.0,240.0,0.0,0.0
1496,58.0,0.0,480.0,3.0,0.0
1497,63.0,240.0,15.0,3.0,0.0
1498,51.0,0.0,480.0,3.0,0.0
1499,75.0,0.0,240.0,0.0,0.0
1500,77.0,240.0,240.0,0.0,0.0
1501,58.0,0.0,1440.0,3.0,0.0
1502,62.0,0.0,1440.0,3.0,0.0
1503,80.0,240.0,240.0,0.0,0.0
1504,86.0,240.0,240.0,0.0,0.0
1505,80.0,240.0,240.0,0.0,0.0
1506,89.0,240.0,240.0,0.0,0.0
1507,86.0,0.0,240.0,0.0,0.0
1508,89.0,240.0,240.0,0.0,0.0
1509,59.0,0.0,1440.0,3.0,0.0
1510,65.0,0.0,15.0,3.0,0.0
1511,68.0,240.0,15.0,3.0,0.0
1512,86.0,240.0,240.0,0.0,0.0
1513,89.0,240.0,240.0,0.0,0.0
1514,86.0,240.0,240.0,0.0,0.0
1515,89.0,240.0,240.0,0.0,0.0
1516,86.0,240.0,240.0,0.0,0.0
1517,65.0,0.0,15.0,3.0,0.0
1518,62.0,0.0,15.0,3.0,0.0
1519,58.0,240.0,960.0,3.0,0.0
1520,68.0,0.0,960.0,3.0,0.0
1521,89.0,240.0,240.0,0.0,0.0
1522,86.0,240.0,240.0,0.0,0.0
1523,82.0,240.0,240.0,0.0,0.0
1524,84.0,0.0,240.0,0.0,0.0
1525,86.0,240.0,240.0,0.0,0.0
1526,65.0,0.0,480.0,3.0,0.0
1527,62.0,0.0,480.0,3.0,0.0
1528,56.0,240.0,480.0,3.0,0.0
1529,82.0,0.0,240.0,0.0,0.0
1530,87.0,240.0,240.0,0.0,0.0
1531,58.0,240.0,960.0,3.0,0.0
1532,63.0,0.0,960.0,3.0,0.0
1533,55.0,0.0,960.0,3.0,0.0
1534,82.0,240.0,240.0,0.0,0.0
1535,87.0,240.0,240.0,0.0,0.0
1536,82.0,0.0,240.0,0.0,0.0
1537,63.0,0.0,480.0,3.0,0.0
1538,51.0,0.0,480.0,3.0,0.0
1539,58.0,0.0,480.0,3.0,0.0
1540,79.0,240.0,240.0,0.0,0.0
1541,75.0,240.0,240.0,0.0,0.0
1542,60.0,0.0,480.0,3.0,0.0
1543,63.0,0.0,480.0,3.0,0.0
1544,56.0,0.0,480.0,3.0,0.0
1545,84.0,240.0,240.0,0.0,0.0
1546,80.0,240.0,240.0,0.0,0.0
1547,84.0,240.0,240.0,0.0,0.0
1548,80.0,240.0,240.0,0.0,0.0
1549,75.0,240.0,240.0,0.0,0.0
1550,56.0,480.0,480.0,3.0,0.0
1551,65.0,0.0,480.0,3.0,0.0
1552,60.0,0.0,480.0,3.0,0.0
1553,72.0,0.0,240.0,0.0,0.0
1554,70.0,60.0,960.0,0.0,0.0
1555,58.0,0.0,480.0,3.0,0.0
1556,67.0,0.0,480.0,3.0,0.0
1557,63.0,480.0,480.0,3.0,0.0
1558,58.0,0.0,480.0,3.0,0.0
1559,62.0,0.0,480.0,3.0,0.0
1560,77.0,60.0,60.0,0.0,0.0
1561,68.0,0.0,480.0,3.0,0.0
1562,79.0,60.0,60.0,0.0,0.0
1563,77.0,60.0,60.0,0.0,0.0
1564,79.0,40.0,60.0,0.0,0.0
1565,77.0,40.0,30.0,0.0,0.0
1566,79.0,40.0,30.0,0.0,0.0
1567,77.0,60.0,30.0,0.0,0.0
1568,75.0,60.0,60.0,0.0,0.0
1569,77.0,240.0,60.0,0.0,0.0
1570,75.0,240.0,240.0,0.0,0.0
1571,58.0,0.0,240.0,2.0,0.0
1572,55.0,0.0,15.0,2.0,0.0
1573,51.0,192.0,15.0,3.0,0.0
1574,70.0,240.0,240.0,1.0,0.0
1575,82.0,48.0,180.0,0.0,0.0
1576,58.0,0.0,240.0,2.0,0.0
1577,55.0,0.0,480.0,2.0,0.0
1578,51.0,192.0,15.0,3.0,0.0
1579,63.0,240.0,240.0,1.0,0.0
1580,75.0,48.0,180.0,0.0,0.0
1581,58.0,0.0,240.0,2.0,0.0
1582,51.0,480.0,15.0,3.0,0.0
1583,58.0,0.0,240.0,2.0,0.0
1584,53.0,0.0,15.0,2.0,0.0
1585,56.0,192.0,15.0,2.0,0.0
1586,77.0,48.0,180.0,0.0,0.0
1587,65.0,240.0,240.0,1.0,0.0
1588,58.0,0.0,240.0,2.0,0.0
1589,51.0,192.0,15.0,3.0,0.0
1590,62.0,240.0,240.0,1.0,0.0
1591,56.0,0.0,480.0,2.0,0.0
1592,53.0,0.0,480.0,2.0,0.0
1593,74.0,48.0,180.0,0.0,0.0
1594,58.0,480.0,240.0,2.0,0.0
1595,43.0,0.0,480.0,3.0,0.0
1596,46.0,192.0,240.0,2.0,0.0
1597,58.0,240.0,240.0,1.0,0.0
1598,70.0,48.0,180.0,0.0,0.0
1599,46.0,0.0,240.0,2.0,0.0
1600,63.0,48.0,180.0,0.0,0.0
1601,43.0,192.0,15.0,3.0,0.0
1602,51.0,240.0,240.0,1.0,0.0
1603,46.0,480.0,240.0,2.0,0.0
1604,46.0,192.0,240.0,2.0,0.0
1605,68.0,48.0,180.0,0.0,0.0
1606,41.0,0.0,15.0,3.0,0.0
1607,56.0,240.0,240.0,1.0,0.0
1608,46.0,0.0,240.0,2.0,0.0
1609,62.0,48.0,180.0,0.0,0.0
1610,34.0,480.0,480.0,3.0,0.0
1611,50.0,240.0,240.0,1.0,0.0
1612,46.0,0.0,240.0,2.0,0.0
1613,58.0,192.0,240.0,2.0,0.0
1614,70.0,240.0,240.0,1.0,0.0
1615,55.0,0.0,15.0,2.0,0.0
1616,51.0,0.0,15.0,3.0,0.0
1617,82.0,48.0,180.0,0.0,0.0
1618,58.0,0.0,240.0,2.0,0.0
1619,75.0,48.0,180.0,0.0,0.0
1620,55.0,192.0,15.0,2.0,0.0
1621,63.0,240.0,240.0,1.0,0.0
1622,58.0,480.0,240.0,2.0,0.0
1623,51.0,0.0,15.0,3.0,0.0
1624,53.0,0.0,480.0,2.0,0.0
1625,58.0,192.0,240.0,2.0,0.0
1626,80.0,48.0,180.0,0.0,0.0
1627,53.0,0.0,480.0,2.0,0.0
1628,56.0,0.0,15.0,2.0,0.0
1629,68.0,240.0,240.0,1.0,0.0
1630,58.0,192.0,240.0,2.0,0.0
1631,74.0,48.0,180.0,0.0,0.0
1632,51.0,0.0,15.0,3.0,0.0
1633,53.0,480.0,480.0,2.0,0.0
1634,56.0,0.0,15.0,2.0,0.0
1635,62.0,240.0,240.0,1.0,0.0
1636,58.0,0.0,240.0,2.0,0.0
1637,46.0,0.0,240.0,2.0,0.0
1638,70.0,48.0,180.0,0.0,0.0
1639,58.0,240.0,240.0,1.0,0.0
1640,43.0,192.0,15.0,3.0,0.0
1641,46.0,0.0,240.0,2.0,0.0
1642,63.0,48.0,180.0,0.0,0.0
1643,43.0,0.0,480.0,3.0,0.0
1644,51.0,240.0,240.0,1.0,0.0
1645,46.0,480.0,240.0,2.0,0.0
1646,46.0,0.0,240.0,2.0,0.0
1647,41.0,192.0,15.0,3.0,0.0
1648,56.0,240.0,240.0,1.0,0.0
1649,68.0,48.0,180.0,0.0,0.0
1650,46.0,0.0,240.0,2.0,0.0
1651,34.0,240.0,480.0,3.0,0.0
1652,62.0,48.0,180.0,0.0,0.0
1653,50.0,240.0,240.0,1.0,0.0
1654,46.0,0.0,240.0,2.0,0.0
1655,67.0,0.0,240.0,0.0,0.0
1656,63.0,19.0,450.0,1.0,0.0
1657,39.0,221.0,240.0,3.0,0.0
1658,58.0,192.0,240.0,1.0,0.0
1659,63.0,19.0,450.0,1.0,0.0
1660,67.0,221.0,240.0,0.0,0.0
1661,43.0,48.0,180.0,3.0,0.0
1662,58.0,192.0,240.0,1.0,0.0
1663,63.0,19.0,450.0,1.0,0.0
1664,39.0,48.0,180.0,3.0,0.0
1665,67.0,221.0,240.0,0.0,0.0
1666,58.0,240.0,240.0,1.0,0.0
1667,46.0,0.0,960.0,3.0,0.0
1668,63.0,19.0,450.0,1.0,0.0
1669,67.0,221.0,240.0,0.0,0.0
1670,58.0,240.0,240.0,1.0,0.0
1671,63.0,19.0,450.0,1.0,0.0
1672,67.0,221.0,240.0,0.0,0.0
1673,58.0,240.0,240.0,1.0,0.0
1674,67.0,0.0,240.0,0.0,0.0
1675,44.0,221.0,240.0,3.0,0.0
1676,63.0,19.0,450.0,1.0,0.0
1677,58.0,0.0,240.0,1.0,0.0
1678,43.0,240.0,240.0,3.0,0.0
1679,63.0,19.0,450.0,1.0,0.0
1680,67.0,0.0,240.0,0.0,0.0
1681,41.0,221.0,240.0,3.0,0.0
1682,58.0,0.0,240.0,1.0,0.0
1683,39.0,240.0,240.0,3.0,0.0
1684,63.0,19.0,450.0,1.0,0.0
1685,38.0,0.0,240.0,3.0,0.0
1686,67.0,221.0,240.0,0.0,0.0
1687,39.0,0.0,240.0,3.0,0.0
1688,58.0,240.0,240.0,1.0,0.0
1689,67.0,0.0,240.0,0.0,0.0
1690,43.0,221.0,240.0,3.0,0.0
1691,63.0,19.0,450.0,1.0,0.0
1692,58.0,0.0,240.0,1.0,0.0
1693,39.0,240.0,240.0,3.0,0.0
1694,38.0,192.0,480.0,3.0,0.0
1695,68.0,221.0,240.0,0.0,0.0
1696,63.0,19.0,450.0,1.0,0.0
1697,56.0,0.0,240.0,1.0,0.0
1698,63.0,19.0,450.0,1.0,0.0
1699,36.0,48.0,180.0,3.0,0.0
1700,68.0,221.0,240.0,0.0,0.0
1701,56.0,192.0,240.0,1.0,0.0
1702,36.0,48.0,180.0,3.0,0.0
1703,63.0,19.0,450.0,1.0,0.0
1704,68.0,221.0,240.0,0.0,0.0
1705,56.0,240.0,240.0,1.0,0.0
1706,65.0,240.0,240.0,0.0,0.0
1707,53.0,0.0,240.0,2.0,0.0
1708,48.0,0.0,15.0,2.0,0.0
1709,44.0,192.0,15.0,3.0,0.0
1710,68.0,288.0,180.0,0.0,0.0
1711,53.0,0.0,240.0,2.0,0.0
1712,65.0,288.0,180.0,0.0,0.0
1713,48.0,0.0,480.0,2.0,0.0
1714,53.0,480.0,240.0,2.0,0.0
1715,44.0,0.0,15.0,3.0,0.0
1716,72.0,0.0,960.0,0.0,0.0
1717,48.0,480.0,480.0,2.0,0.0
1718,53.0,0.0,240.0,2.0,0.0
1719,44.0,0.0,15.0,3.0,0.0
1720,48.0,0.0,480.0,2.0,0.0
1721,53.0,0.0,240.0,2.0,0.0
1722,48.0,0.0,480.0,2.0,0.0
1723,44.0,240.0,15.0,3.0,0.0
1724,70.0,240.0,240.0,0.0,0.0
1725,68.0,0.0,240.0,0.0,0.0
1726,46.0,240.0,480.0,3.0,0.0
1727,53.0,240.0,15.0,2.0,0.0
1728,67.0,240.0,240.0,0.0,0.0
1729,65.0,0.0,240.0,0.0,0.0
1730,56.0,0.0,240.0,2.0,0.0
1731,68.0,240.0,240.0,0.0,0.0
1732,46.0,0.0,480.0,3.0,0.0
1733,56.0,240.0,240.0,2.0,0.0
1734,65.0,0.0,240.0,0.0,0.0
1735,62.0,240.0,240.0,0.0,0.0
1736,46.0,0.0,480.0,3.0,0.0
1737,53.0,0.0,15.0,2.0,0.0
1738,56.0,0.0,240.0,2.0,0.0
1739,65.0,0.0,15.0,0.0,0.0
1740,58.0,192.0,240.0,2.0,0.0
1741,55.0,0.0,15.0,2.0,0.0
1742,51.0,0.0,15.0,3.0,0.0
1743,63.0,288.0,180.0,0.0,0.0
1744,58.0,192.0,240.0,2.0,0.0
1745,63.0,288.0,180.0,0.0,0.0
1746,51.0,120.0,480.0,3.0,0.0
1747,55.0,0.0,15.0,2.0,0.0
1748,58.0,0.0,240.0,2.0,0.0
1749,67.0,36.0,450.0,1.0,0.0
1750,70.0,204.0,240.0,0.0,0.0
1751,50.0,60.0,120.0,3.0,0.0
1752,51.0,60.0,120.0,3.0,0.0
1753,63.0,120.0,240.0,1.0,0.0
1754,54.0,65.0,120.0,3.0,0.0
1755,70.0,204.0,240.0,0.0,0.0
1756,67.0,36.0,450.0,1.0,0.0
1757,55.0,55.0,120.0,3.0,0.0
1758,63.0,120.0,240.0,1.0,0.0
1759,50.0,55.0,120.0,3.0,0.0
1760,67.0,36.0,450.0,1.0,0.0
1761,70.0,204.0,240.0,0.0,0.0
1762,51.0,65.0,120.0,3.0,0.0
1763,63.0,120.0,240.0,1.0,0.0
1764,57.0,120.0,120.0,3.0,0.0
1765,67.0,36.0,450.0,1.0,0.0
1766,70.0,204.0,240.0,0.0,0.0
1767,58.0,225.0,900.0,3.0,0.0
1768,63.0,240.0,240.0,1.0,0.0
1769,70.0,204.0,240.0,0.0,0.0
1770,67.0,36.0,450.0,1.0,0.0
1771,63.0,15.0,240.0,1.0,0.0
1772,70.0,204.0,240.0,0.0,0.0
1773,67.0,36.0,450.0,1.0,0.0
1774,56.0,0.0,240.0,3.0,0.0
1775,63.0,240.0,240.0,1.0,0.0
1776,55.0,0.0,240.0,3.0,0.0
1777,53.0,0.0,240.0,3.0,0.0
1778,67.0,36.0,450.0,1.0,0.0
1779,70.0,204.0,240.0,0.0,0.0
1780,63.0,240.0,240.0,1.0,0.0
1781,51.0,0.0,240.0,3.0,0.0
1782,70.0,0.0,240.0,0.0,0.0
1783,50.0,204.0,240.0,3.0,0.0
1784,67.0,36.0,450.0,1.0,0.0
1785,63.0,240.0,240.0,1.0,0.0
1786,51.0,0.0,240.0,3.0,0.0
1787,70.0,204.0,240.0,0.0,0.0
1788,55.0,0.0,240.0,3.0,0.0
1789,67.0,36.0,450.0,1.0,0.0
1790,51.0,0.0,240.0,3.0,0.0
1791,63.0,240.0,240.0,1.0,0.0
1792,50.0,0.0,480.0,3.0,0.0
1793,75.0,204.0,240.0,0.0,0.0
1794,68.0,36.0,450.0,1.0,0.0
1795,63.0,192.0,240.0,1.0,0.0
1796,48.0,48.0,180.0,3.0,0.0
1797,75.0,204.0,240.0,0.0,0.0
1798,68.0,36.0,450.0,1.0,0.0
1799,63.0,192.0,240.0,1.0,0.0
1800,48.0,48.0,180.0,3.0,0.0
1801,68.0,36.0,450.0,1.0,0.0
1802,75.0,204.0,240.0,0.0,0.0
1803,63.0,127.0,240.0,1.0,0.0
1804,76.0,58.0,120.0,0.0,0.0
1805,77.0,295.0,120.0,0.0,0.0
1806,53.0,0.0,240.0,2.0,0.0
1807,48.0,0.0,15.0,2.0,0.0
1808,44.0,127.0,15.0,3.0,0.0
1809,79.0,58.0,120.0,0.0,0.0
1810,80.0,295.0,120.0,0.0,0.0
1811,53.0,0.0,240.0,2.0,0.0
1812,76.0,60.0,120.0,0.0,0.0
1813,48.0,0.0,480.0,2.0,0.0
1814,77.0,300.0,120.0,0.0,0.0
1815,53.0,127.0,240.0,2.0,0.0
1816,48.0,480.0,480.0,2.0,0.0
1817,44.0,0.0,15.0,3.0,0.0
1818,83.0,353.0,120.0,0.0,0.0
1819,84.0,240.0,900.0,0.0,0.0
1820,53.0,0.0,240.0,2.0,0.0
1821,44.0,0.0,15.0,3.0,0.0
1822,48.0,0.0,480.0,2.0,0.0
1823,53.0,0.0,240.0,2.0,0.0
1824,48.0,0.0,480.0,2.0,0.0
1825,82.0,240.0,240.0,0.0,0.0
1826,44.0,240.0,480.0,3.0,0.0
1827,80.0,0.0,240.0,0.0,0.0
1828,53.0,0.0,15.0,2.0,0.0
1829,79.0,240.0,240.0,0.0,0.0
1830,46.0,0.0,480.0,3.0,0.0
1831,77.0,0.0,240.0,0.0,0.0
1832,56.0,240.0,240.0,2.0,0.0
1833,80.0,240.0,240.0,0.0,0.0
1834,46.0,0.0,480.0,3.0,0.0
1835,56.0,0.0,240.0,2.0,0.0
1836,77.0,240.0,240.0,0.0,0.0
1837,74.0,240.0,240.0,0.0,0.0
1838,53.0,0.0,15.0,2.0,0.0
1839,46.0,0.0,480.0,3.0,0.0
1840,56.0,0.0,240.0,2.0,0.0
1841,77.0,240.0,240.0,0.0,0.0
1842,75.0,240.0,240.0,0.0,0.0
1843,70.0,240.0,240.0,0.0,0.0
1844,79.0,240.0,240.0,0.0,0.0
1845,55.0,0.0,480.0,2.0,0.0
1846,58.0,240.0,480.0,2.0,0.0
1847,75.0,0.0,240.0,0.0,0.0
1848,70.0,240.0,240.0,0.0,0.0
1849,51.0,0.0,480.0,2.0,0.0
1850,55.0,0.0,480.0,2.0,0.0
1851,67.0,240.0,240.0,0.0,0.0
1852,75.0,240.0,240.0,0.0,0.0
1853,39.0,0.0,15.0,3.0,0.0
1854,70.0,240.0,240.0,0.0,0.0
1855,58.0,0.0,480.0,2.0,0.0
1856,79.0,240.0,240.0,0.0,0.0
1857,75.0,0.0,240.0,0.0,0.0
1858,51.0,0.0,480.0,2.0,0.0
1859,55.0,240.0,15.0,2.0,0.0
1860,70.0,240.0,240.0,0.0,0.0
1861,67.0,0.0,240.0,0.0,0.0
1862,75.0,240.0,240.0,0.0,0.0
1863,39.0,240.0,15.0,3.0,0.0
1864,70.0,240.0,240.0,0.0,0.0
1865,79.0,240.0,240.0,0.0,0.0
1866,55.0,0.0,480.0,2.0,0.0
1867,58.0,0.0,480.0,2.0,0.0
1868,75.0,240.0,240.0,0.0,0.0
1869,70.0,240.0,240.0,0.0,0.0
1870,51.0,0.0,480.0,2.0,0.0
1871,55.0,0.0,480.0,2.0,0.0
1872,67.0,240.0,240.0,0.0,0.0
1873,46.0,240.0,1440.0,3.0,0.0
1874,74.0,240.0,240.0,0.0,0.0
1875,70.0,240.0,240.0,0.0,0.0
1876,56.0,240.0,480.0,2.0,0.0
1877,53.0,0.0,480.0,2.0,0.0
1878,77.0,240.0,240.0,0.0,0.0
1879,74.0,0.0,240.0,0.0,0.0
1880,70.0,240.0,240.0,0.0,0.0
1881,50.0,0.0,480.0,2.0,0.0
1882,53.0,0.0,480.0,2.0,0.0
1883,68.0,0.0,240.0,0.0,0.0
1884,70.0,240.0,240.0,0.0,0.0
1885,67.0,240.0,240.0,0.0,0.0
1886,58.0,0.0,480.0,2.0,0.0
1887,75.0,240.0,240.0,0.0,0.0
1888,70.0,240.0,240.0,0.0,0.0
1889,55.0,0.0,15.0,2.0,0.0
1890,51.0,0.0,480.0,2.0,0.0
1891,67.0,240.0,240.0,0.0,0.0
1892,63.0,0.0,240.0,0.0,0.0
1893,39.0,240.0,15.0,3.0,0.0
1894,70.0,240.0,240.0,0.0,0.0
1895,67.0,240.0,240.0,0.0,0.0
1896,75.0,240.0,240.0,0.0,0.0
1897,58.0,0.0,480.0,2.0,0.0
1898,70.0,0.0,240.0,0.0,0.0
1899,51.0,0.0,480.0,2.0,0.0
1900,67.0,240.0,240.0,0.0,0.0
1901,55.0,240.0,15.0,2.0,0.0
1902,63.0,0.0,240.0,0.0,0.0
1903,39.0,0.0,1440.0,3.0,0.0
1904,70.0,240.0,240.0,0.0,0.0
1905,67.0,240.0,240.0,0.0,0.0
1906,75.0,240.0,240.0,0.0,0.0
1907,58.0,0.0,480.0,2.0,0.0
1908,70.0,0.0,240.0,0.0,0.0
1909,67.0,240.0,240.0,0.0,0.0
1910,55.0,240.0,15.0,2.0,0.0
1911,51.0,240.0,480.0,2.0,0.0
1912,63.0,0.0,240.0,0.0,0.0
1913,68.0,240.0,240.0,0.0,0.0
1914,65.0,240.0,240.0,0.0,0.0
1915,56.0,240.0,480.0,2.0,0.0
1916,70.0,240.0,240.0,0.0,0.0
1917,68.0,0.0,240.0,0.0,0.0
1918,46.0,0.0,15.0,3.0,0.0
1919,53.0,0.0,15.0,2.0,0.0
1920,65.0,240.0,240.0,0.0,0.0
1921,62.0,240.0,240.0,0.0,0.0
1922,27.0,240.0,240.0,3.0,0.0
1923,63.0,240.0,480.0,0.0,0.0
1924,31.0,0.0,240.0,3.0,0.0
1925,34.0,240.0,240.0,3.0,0.0
1926,39.0,0.0,240.0,3.0,0.0
1927,51.0,240.0,240.0,0.0,0.0
1928,55.0,240.0,240.0,0.0,0.0
1929,43.0,0.0,240.0,3.0,0.0
1930,58.0,240.0,240.0,0.0,0.0
1931,46.0,0.0,240.0,3.0,0.0
1932,39.0,240.0,480.0,3.0,0.0
1933,63.0,240.0,240.0,0.0,0.0
1934,67.0,0.0,240.0,0.0,0.0
1935,70.0,240.0,240.0,0.0,0.0
1936,75.0,240.0,240.0,0.0,0.0
1937,79.0,240.0,240.0,0.0,0.0
1938,82.0,480.0,240.0,0.0,0.0
1939,87.0,3600.0,480.0,0.0,0.0
1940,63.0,480.0,720.0,0.0,0.0
1941,54.0,0.0,720.0,1.0,0.0
1942,46.0,240.0,240.0,2.0,0.0
1943,46.0,0.0,240.0,2.0,0.0
1944,39.0,0.0,15.0,3.0,0.0
1945,63.0,0.0,480.0,1.0,0.0
1946,66.0,0.0,480.0,0.0,0.0
1947,46.0,240.0,15.0,2.0,0.0
1948,65.0,0.0,240.0,1.0,0.0
1949,68.0,0.0,240.0,0.0,0.0
1950,66.0,0.0,480.0,1.0,0.0
1951,70.0,0.0,480.0,0.0,0.0
1952,46.0,240.0,240.0,2.0,0.0
1953,46.0,0.0,240.0,2.0,0.0
1954,66.0,0.0,15.0,1.0,0.0
1955,39.0,0.0,15.0,3.0,0.0
1956,70.0,480.0,15.0,0.0,0.0
1957,46.0,0.0,15.0,2.0,0.0
1958,63.0,0.0,240.0,1.0,0.0
1959,66.0,0.0,240.0,0.0,0.0
1960,39.0,480.0,15.0,3.0,0.0
1961,63.0,0.0,480.0,0.0,0.0
1962,54.0,0.0,480.0,1.0,0.0
1963,63.0,0.0,240.0,1.0,0.0
1964,66.0,0.0,240.0,0.0,0.0
1965,46.0,240.0,15.0,2.0,0.0
1966,65.0,0.0,720.0,0.0,0.0
1967,34.0,0.0,720.0,3.0,0.0
1968,62.0,473.0,720.0,1.0,0.0
1969,46.0,240.0,15.0,2.0,0.0
1970,63.0,0.0,720.0,0.0,0.0
1971,54.0,0.0,720.0,1.0,0.0
1972,46.0,240.0,240.0,2.0,0.0
1973,46.0,480.0,240.0,2.0,0.0
1974,66.0,0.0,480.0,0.0,0.0
1975,39.0,0.0,15.0,3.0,0.0
1976,63.0,0.0,480.0,1.0,0.0
1977,46.0,240.0,240.0,2.0,0.0
1978,68.0,480.0,240.0,0.0,0.0
1979,65.0,0.0,240.0,1.0,0.0
1980,46.0,0.0,240.0,2.0,0.0
1981,39.0,0.0,15.0,3.0,0.0
1982,70.0,0.0,480.0,0.0,0.0
1983,66.0,0.0,15.0,1.0,0.0
1984,46.0,240.0,15.0,2.0,0.0
1985,70.0,0.0,15.0,0.0,0.0
1986,37.0,0.0,720.0,3.0,0.0
1987,66.0,480.0,15.0,1.0,0.0
1988,49.0,0.0,240.0,2.0,0.0
1989,58.0,0.0,240.0,1.0,0.0
1990,66.0,240.0,240.0,0.0,0.0
1991,49.0,0.0,240.0,2.0,0.0
1992,59.0,240.0,240.0,1.0,0.0
1993,68.0,0.0,240.0,0.0,0.0
1994,37.0,0.0,720.0,3.0,0.0
1995,71.0,0.0,240.0,0.0,0.0
1996,63.0,240.0,240.0,1.0,0.0
1997,49.0,0.0,15.0,2.0,0.0
1998,65.0,0.0,240.0,0.0,0.0
1999,56.0,480.0,240.0,1.0,0.0
2000,66.0,0.0,720.0,0.0,0.0
2001,42.0,0.0,720.0,3.0,0.0
2002,58.0,0.0,720.0,1.0,0.0
2003,49.0,240.0,15.0,2.0,0.0
2004,66.0,240.0,480.0,1.0,0.0
2005,42.0,0.0,720.0,3.0,0.0
2006,70.0,0.0,480.0,0.0,0.0
2007,49.0,0.0,240.0,2.0,0.0
2008,58.0,0.0,240.0,1.0,0.0
2009,66.0,480.0,240.0,0.0,0.0
2010,49.0,0.0,240.0,2.0,0.0
2011,65.0,0.0,480.0,1.0,0.0
2012,37.0,0.0,720.0,3.0,0.0
2013,68.0,240.0,480.0,0.0,0.0
2014,49.0,0.0,240.0,2.0,0.0
2015,49.0,480.0,240.0,2.0,0.0
2016,70.0,0.0,240.0,0.0,0.0
2017,67.0,0.0,240.0,1.0,0.0
2018,71.0,0.0,480.0,0.0,0.0
2019,68.0,0.0,480.0,1.0,0.0
2020,44.0,240.0,240.0,2.0,0.0
2021,68.0,0.0,240.0,1.0,0.0
2022,44.0,480.0,240.0,2.0,0.0
2023,71.0,0.0,240.0,0.0,0.0
2024,71.0,0.0,480.0,0.0,0.0
2025,32.0,0.0,15.0,3.0,0.0
2026,68.0,0.0,480.0,1.0,0.0
2027,65.0,0.0,240.0,1.0,0.0
2028,68.0,240.0,240.0,0.0,0.0
2029,44.0,240.0,15.0,2.0,0.0
2030,62.0,240.0,240.0,1.0,0.0
2031,65.0,0.0,240.0,0.0,0.0
2032,65.0,0.0,240.0,1.0,0.0
2033,68.0,0.0,240.0,0.0,0.0
2034,46.0,240.0,240.0,2.0,0.0
2035,62.0,0.0,240.0,1.0,0.0
2036,34.0,0.0,15.0,3.0,0.0
2037,65.0,240.0,240.0,0.0,0.0
2038,63.0,0.0,240.0,1.0,0.0
2039,66.0,240.0,240.0,0.0,0.0
2040,51.0,0.0,240.0,2.0,0.0
2041,39.0,0.0,15.0,3.0,0.0
2042,63.0,240.0,240.0,1.0,0.0
2043,66.0,0.0,240.0,0.0,0.0
2044,49.0,0.0,240.0,2.0,0.0
2045,37.0,480.0,240.0,3.0,0.0
2046,68.0,0.0,240.0,0.0,0.0
2047,65.0,0.0,240.0,1.0,0.0
2048,66.0,0.0,480.0,1.0,0.0
2049,42.0,480.0,720.0,3.0,0.0
2050,70.0,240.0,480.0,0.0,0.0
2051,49.0,0.0,240.0,2.0,0.0
2052,58.0,0.0,240.0,1.0,0.0
2053,66.0,0.0,240.0,0.0,0.0
2054,49.0,0.0,240.0,2.0,0.0
2055,65.0,240.0,480.0,1.0,0.0
2056,68.0,0.0,480.0,0.0,0.0
2057,37.0,0.0,720.0,3.0,0.0
2058,49.0,0.0,240.0,2.0,0.0
2059,49.0,480.0,240.0,2.0,0.0
2060,70.0,0.0,240.0,0.0,0.0
2061,67.0,0.0,240.0,1.0,0.0
2062,32.0,480.0,720.0,3.0,0.0
2063,44.0,0.0,240.0,2.0,0.0
2064,68.0,0.0,15.0,1.0,0.0
2065,44.0,0.0,240.0,2.0,0.0
2066,71.0,240.0,15.0,0.0,0.0
2067,71.0,0.0,15.0,0.0,0.0
2068,68.0,240.0,480.0,1.0,0.0
2069,32.0,0.0,720.0,3.0,0.0
2070,44.0,0.0,15.0,2.0,0.0
2071,68.0,0.0,240.0,0.0,0.0
2072,65.0,240.0,240.0,1.0,0.0
2073,34.0,0.0,720.0,3.0,0.0
2074,65.0,0.0,240.0,0.0,0.0
2075,62.0,240.0,240.0,1.0,0.0
2076,65.0,240.0,240.0,1.0,0.0
2077,68.0,0.0,240.0,0.0,0.0
2078,46.0,0.0,15.0,2.0,0.0
2079,62.0,0.0,240.0,1.0,0.0
2080,65.0,480.0,240.0,0.0,0.0
2081,39.0,0.0,720.0,3.0,0.0
2082,54.0,720.0,720.0,1.0,0.0
2083,63.0,0.0,720.0,0.0,0.0
2084,51.0,240.0,240.0,2.0,0.0
2085,51.0,0.0,240.0,2.0,0.0
2086,54.0,720.0,720.0,0.0,0.0
2087,51.0,720.0,15.0,3.0,0.0
2088,52.0,0.0,720.0,1.0,0.0
2089,58.0,0.0,720.0,0.0,0.0
2090,42.0,137.0,720.0,3.0,0.0
2091,49.0,0.0,720.0,3.0,0.0
2092,59.0,0.0,480.0,0.0,0.0
2093,54.0,0.0,15.0,1.0,0.0
2094,51.0,120.0,480.0,1.0,0.0
2095,47.0,103.0,150.0,3.0,0.0
2096,51.0,120.0,120.0,3.0,0.0
2097,54.0,120.0,120.0,3.0,0.0
2098,51.0,0.0,120.0,3.0,0.0
2099,47.0,121.0,120.0,3.0,0.0
2100,42.0,119.0,120.0,3.0,0.0
2101,47.0,120.0,120.0,3.0,0.0
2102,51.0,120.0,120.0,3.0,0.0
2103,54.0,120.0,120.0,3.0,0.0
2104,51.0,120.0,120.0,3.0,0.0
2105,63.0,0.0,15.0,0.0,0.0
2106,47.0,120.0,120.0,3.0,0.0
2107,42.0,119.0,120.0,3.0,0.0
2108,47.0,120.0,120.0,3.0,0.0
2109,63.0,1.0,15.0,0.0,0.0
2110,51.0,0.0,120.0,3.0,0.0
2111,54.0,120.0,120.0,3.0,0.0
2112,51.0,120.0,120.0,3.0,0.0
2113,66.0,0.0,15.0,0.0,0.0
2114,47.0,60.0,120.0,3.0,0.0
2115,42.0,119.0,120.0,3.0,0.0
2116,66.0,1.0,60.0,0.0,0.0
2117,47.0,120.0,120.0,3.0,0.0
2118,71.0,0.0,240.0,0.0,0.0
2119,51.0,120.0,120.0,3.0,0.0
2120,70.0,0.0,240.0,0.0,0.0
2121,54.0,120.0,120.0,3.0,0.0
2122,51.0,120.0,120.0,3.0,0.0
2123,68.0,1.0,240.0,0.0,0.0
2124,47.0,120.0,120.0,3.0,0.0
2125,42.0,119.0,120.0,3.0,0.0
2126,66.0,0.0,240.0,0.0,0.0
2127,47.0,120.0,120.0,3.0,0.0
2128,51.0,120.0,120.0,3.0,0.0
2129,54.0,120.0,120.0,3.0,0.0
2130,64.0,0.0,240.0,0.0,0.0
2131,51.0,120.0,120.0,3.0,0.0
2132,63.0,1.0,240.0,0.0,0.0
2133,47.0,120.0,120.0,3.0,0.0
2134,42.0,119.0,120.0,3.0,0.0
2135,66.0,120.0,480.0,0.0,0.0
2136,49.0,120.0,120.0,3.0,0.0
2137,52.0,120.0,120.0,3.0,0.0
2138,54.0,120.0,120.0,3.0,0.0
2139,52.0,0.0,120.0,3.0,0.0
2140,49.0,65.0,120.0,3.0,0.0
2141,64.0,56.0,180.0,0.0,0.0
2142,42.0,59.0,120.0,3.0,0.0
2143,61.0,60.0,120.0,0.0,0.0
2144,73.0,0.0,240.0,0.0,0.0
2145,46.0,120.0,120.0,3.0,0.0
2146,49.0,120.0,120.0,3.0,0.0
2147,71.0,120.0,240.0,0.0,0.0
2148,54.0,120.0,120.0,3.0,0.0
2149,49.0,0.0,120.0,3.0,0.0
2150,46.0,120.0,120.0,3.0,0.0
2151,70.0,1.0,240.0,0.0,0.0
2152,42.0,119.0,120.0,3.0,0.0
2153,68.0,0.0,240.0,0.0,0.0
2154,46.0,120.0,120.0,3.0,0.0
2155,49.0,120.0,120.0,3.0,0.0
2156,66.0,0.0,240.0,0.0,0.0
2157,54.0,120.0,120.0,3.0,0.0
2158,49.0,120.0,120.0,3.0,0.0
2159,46.0,120.0,120.0,3.0,0.0
2160,64.0,1.0,240.0,0.0,0.0
2161,42.0,119.0,120.0,3.0,0.0
2162,47.0,120.0,120.0,3.0,0.0
2163,62.0,120.0,480.0,0.0,0.0
2164,51.0,120.0,120.0,3.0,0.0
2165,54.0,120.0,120.0,3.0,0.0
2166,51.0,0.0,120.0,3.0,0.0
2167,47.0,120.0,120.0,3.0,0.0
2168,63.0,0.0,240.0,0.0,0.0
2169,42.0,135.0,120.0,3.0,0.0
2170,61.0,0.0,480.0,0.0,0.0
2171,40.0,105.0,120.0,3.0,0.0
2172,42.0,120.0,120.0,3.0,0.0
2173,46.0,120.0,120.0,3.0,0.0
2174,49.0,120.0,120.0,3.0,0.0
2175,64.0,120.0,120.0,0.0,0.0
2176,46.0,0.0,120.0,3.0,0.0
2177,63.0,120.0,120.0,0.0,0.0
2178,42.0,0.0,120.0,3.0,0.0
2179,61.0,15.0,120.0,0.0,0.0
2180,40.0,105.0,120.0,3.0,0.0
2181,63.0,0.0,120.0,0.0,0.0
2182,42.0,120.0,120.0,3.0,0.0
2183,46.0,0.0,120.0,3.0,0.0
2184,64.0,120.0,120.0,0.0,0.0
2185,66.0,120.0,120.0,0.0,0.0
2186,49.0,0.0,120.0,3.0,0.0
2187,46.0,120.0,120.0,3.0,0.0
2188,68.0,0.0,120.0,0.0,0.0
2189,42.0,40.0,120.0,3.0,0.0
2190,66.0,0.0,120.0,0.0,0.0
2191,66.0,40.0,30.0,0.0,0.0
2192,39.0,45.0,120.0,3.0,0.0
2193,68.0,40.0,30.0,0.0,0.0
2194,66.0,15.0,30.0,0.0,0.0
2195,42.0,0.0,120.0,3.0,0.0
2196,65.0,60.0,60.0,0.0,0.0
2197,66.0,120.0,60.0,0.0,0.0
2198,47.0,120.0,120.0,3.0,0.0
2199,71.0,120.0,240.0,0.0,0.0
2200,51.0,0.0,120.0,3.0,0.0
2201,63.0,146.0,240.0,0.0,0.0
2202,54.0,120.0,120.0,3.0,0.0
2203,51.0,0.0,120.0,3.0,0.0
2204,52.0,94.0,150.0,3.0,0.0
2205,73.0,120.0,480.0,0.0,0.0
2206,54.0,120.0,120.0,3.0,0.0
2207,58.0,120.0,120.0,3.0,0.0
2208,61.0,0.0,120.0,3.0,0.0
2209,58.0,0.0,120.0,3.0,0.0
2210,76.0,120.0,120.0,0.0,0.0
2211,75.0,0.0,120.0,0.0,0.0
2212,54.0,120.0,120.0,3.0,0.0
2213,52.0,94.0,150.0,3.0,0.0
2214,73.0,26.0,120.0,0.0,0.0
2215,54.0,120.0,120.0,3.0,0.0
2216,75.0,0.0,120.0,0.0,0.0
2217,76.0,120.0,120.0,0.0,0.0
2218,58.0,0.0,120.0,3.0,0.0
2219,61.0,120.0,120.0,3.0,0.0
2220,78.0,0.0,120.0,0.0,0.0
2221,80.0,0.0,120.0,0.0,0.0
2222,58.0,120.0,120.0,3.0,0.0
2223,78.0,0.0,120.0,0.0,0.0
2224,54.0,40.0,120.0,3.0,0.0
2225,78.0,40.0,30.0,0.0,0.0
2226,51.0,34.0,150.0,3.0,0.0
2227,80.0,40.0,30.0,0.0,0.0
2228,78.0,26.0,30.0,0.0,0.0
2229,77.0,60.0,60.0,0.0,0.0
2230,54.0,0.0,120.0,3.0,0.0
2231,78.0,120.0,60.0,0.0,0.0
2232,59.0,120.0,120.0,3.0,0.0
2233,83.0,120.0,240.0,0.0,0.0
2234,63.0,0.0,120.0,3.0,0.0
2235,75.0,146.0,240.0,0.0,0.0
2236,59.0,120.0,120.0,3.0,0.0
2237,54.0,0.0,120.0,3.0,0.0
2238,52.0,94.0,150.0,3.0,0.0
2239,73.0,120.0,240.0,0.0,0.0
2240,56.0,0.0,120.0,3.0,0.0
2241,61.0,120.0,120.0,3.0,0.0
2242,76.0,120.0,240.0,0.0,0.0
2243,64.0,0.0,120.0,3.0,0.0
2244,61.0,120.0,120.0,3.0,0.0
2245,80.0,137.0,240.0,0.0,0.0
2246,56.0,0.0,120.0,3.0,0.0
2247,70.0,0.0,240.0,0.0,0.0
2248,54.0,103.0,150.0,3.0,0.0
2249,58.0,120.0,120.0,3.0,0.0
2250,73.0,120.0,240.0,0.0,0.0
2251,61.0,120.0,120.0,3.0,0.0
2252,64.0,0.0,120.0,3.0,0.0
2253,61.0,120.0,120.0,3.0,0.0
2254,78.0,0.0,240.0,0.0,0.0
2255,58.0,120.0,120.0,3.0,0.0
2256,76.0,0.0,480.0,0.0,0.0
2257,56.0,150.0,120.0,3.0,0.0
2258,55.0,90.0,150.0,3.0,0.0
2259,56.0,120.0,120.0,3.0,0.0
2260,58.0,120.0,120.0,3.0,0.0
2261,59.0,120.0,120.0,3.0,0.0
2262,75.0,149.0,240.0,0.0,0.0
2263,56.0,0.0,120.0,3.0,0.0
2264,40.0,91.0,150.0,3.0,0.0
2265,61.0,120.0,240.0,0.0,0.0
2266,44.0,0.0,120.0,3.0,0.0
2267,49.0,120.0,120.0,3.0,0.0
2268,64.0,120.0,240.0,0.0,0.0
2269,52.0,0.0,120.0,3.0,0.0
2270,56.0,120.0,120.0,3.0,0.0
2271,68.0,0.0,240.0,0.0,0.0
2272,52.0,149.0,120.0,3.0,0.0
2273,42.0,91.0,150.0,3.0,0.0
2274,59.0,120.0,240.0,0.0,0.0
2275,47.0,0.0,120.0,3.0,0.0
2276,51.0,120.0,120.0,3.0,0.0
2277,63.0,0.0,240.0,0.0,0.0
2278,54.0,120.0,120.0,3.0,0.0
2279,51.0,120.0,120.0,3.0,0.0
2280,66.0,0.0,240.0,0.0,0.0
2281,47.0,149.0,120.0,3.0,0.0
2282,42.0,91.0,150.0,3.0,0.0
2283,52.0,0.0,240.0,0.0,0.0
2284,46.0,120.0,120.0,3.0,0.0
2285,49.0,120.0,120.0,3.0,0.0
2286,54.0,120.0,240.0,0.0,0.0
2287,52.0,0.0,120.0,3.0,0.0
2288,58.0,0.0,240.0,0.0,0.0
2289,49.0,120.0,120.0,3.0,0.0
2290,52.0,240.0,120.0,3.0,0.0
2291,54.0,6.0,720.0,1.0,0.0
2292,51.0,0.0,720.0,1.0,0.0
2293,39.0,60.0,420.0,3.0,0.0
2294,59.0,0.0,720.0,0.0,0.0
2295,42.0,120.0,120.0,3.0,0.0
2296,47.0,60.0,120.0,3.0,0.0
2297,42.0,120.0,120.0,3.0,0.0
2298,39.0,120.0,120.0,3.0,0.0
2299,35.0,234.0,120.0,3.0,0.0
2300,40.0,20.0,450.0,3.0,0.0
2301,44.0,120.0,120.0,3.0,0.0
2302,47.0,100.0,120.0,3.0,0.0
2303,59.0,120.0,240.0,1.0,0.0
2304,68.0,0.0,240.0,1.0,0.0
2305,44.0,0.0,120.0,3.0,0.0
2306,40.0,120.0,120.0,3.0,0.0
2307,71.0,0.0,15.0,0.0,0.0
2308,68.0,0.0,240.0,1.0,0.0
2309,59.0,0.0,240.0,1.0,0.0
2310,35.0,234.0,120.0,3.0,0.0
2311,68.0,0.0,480.0,1.0,0.0
2312,71.0,6.0,15.0,0.0,0.0
2313,40.0,3.0,480.0,3.0,0.0
2314,44.0,120.0,120.0,3.0,0.0
2315,47.0,117.0,120.0,3.0,0.0
2316,44.0,0.0,120.0,3.0,0.0
2317,64.0,0.0,240.0,1.0,0.0
2318,40.0,120.0,120.0,3.0,0.0
2319,68.0,0.0,240.0,0.0,0.0
2320,35.0,234.0,120.0,3.0,0.0
2321,39.0,20.0,450.0,3.0,0.0
2322,66.0,6.0,720.0,0.0,0.0
2323,59.0,6.0,15.0,1.0,0.0
2324,42.0,120.0,120.0,3.0,0.0
2325,47.0,100.0,120.0,3.0,0.0
2326,42.0,120.0,120.0,3.0,0.0
2327,39.0,120.0,120.0,3.0,0.0
2328,35.0,234.0,120.0,3.0,0.0
2329,39.0,20.0,450.0,3.0,0.0
2330,54.0,0.0,720.0,1.0,0.0
2331,63.0,120.0,480.0,0.0,0.0
2332,59.0,6.0,720.0,1.0,0.0
2333,42.0,120.0,120.0,3.0,0.0
2334,47.0,100.0,120.0,3.0,0.0
2335,42.0,0.0,120.0,3.0,0.0
2336,39.0,120.0,120.0,3.0,0.0
2337,66.0,0.0,240.0,0.0,0.0
2338,35.0,234.0,120.0,3.0,0.0
2339,66.0,0.0,240.0,0.0,0.0
2340,37.0,20.0,450.0,3.0,0.0
2341,58.0,0.0,720.0,1.0,0.0
2342,40.0,120.0,120.0,3.0,0.0
2343,46.0,100.0,120.0,3.0,0.0
2344,64.0,0.0,240.0,0.0,0.0
2345,40.0,80.0,120.0,3.0,0.0
2346,37.0,40.0,120.0,3.0,0.0
2347,63.0,40.0,90.0,0.0,0.0
2348,66.0,80.0,90.0,0.0,0.0
2349,35.0,234.0,120.0,3.0,0.0
2350,64.0,6.0,90.0,0.0,0.0
2351,39.0,20.0,450.0,3.0,0.0
2352,54.0,6.0,720.0,1.0,0.0
2353,59.0,0.0,720.0,1.0,0.0
2354,63.0,0.0,720.0,0.0,0.0
2355,42.0,120.0,120.0,3.0,0.0
2356,47.0,100.0,120.0,3.0,0.0
2357,42.0,120.0,120.0,3.0,0.0
2358,39.0,120.0,120.0,3.0,0.0
2359,35.0,74.0,120.0,3.0,0.0
2360,40.0,20.0,450.0,3.0,0.0
2361,59.0,80.0,90.0,0.0,0.0
2362,61.0,80.0,90.0,0.0,0.0
2363,44.0,0.0,120.0,3.0,0.0
2364,59.0,60.0,90.0,0.0,0.0
2365,58.0,60.0,60.0,0.0,0.0
2366,47.0,0.0,120.0,3.0,0.0
2367,59.0,60.0,60.0,0.0,0.0
2368,44.0,40.0,120.0,3.0,0.0
2369,61.0,40.0,60.0,0.0,0.0
2370,63.0,0.0,60.0,0.0,0.0
2371,40.0,0.0,120.0,3.0,0.0
2372,64.0,40.0,30.0,0.0,0.0
2373,66.0,40.0,30.0,0.0,0.0
2374,68.0,60.0,30.0,0.0,0.0
2375,70.0,60.0,60.0,0.0,0.0
2376,35.0,114.0,120.0,3.0,0.0
2377,71.0,6.0,60.0,0.0,0.0
2378,73.0,120.0,120.0,0.0,0.0
2379,40.0,20.0,450.0,3.0,0.0
2380,44.0,0.0,120.0,3.0,0.0
2381,71.0,120.0,120.0,0.0,0.0
2382,70.0,100.0,120.0,0.0,0.0
2383,47.0,0.0,120.0,3.0,0.0
2384,44.0,0.0,120.0,3.0,0.0
2385,68.0,120.0,120.0,0.0,0.0
2386,71.0,120.0,120.0,0.0,0.0
2387,40.0,0.0,120.0,3.0,0.0
2388,68.0,0.0,120.0,0.0,0.0
2389,35.0,240.0,120.0,3.0,0.0
2390,66.0,120.0,720.0,0.0,0.0
2391,39.0,60.0,420.0,3.0,0.0
2392,42.0,120.0,120.0,3.0,0.0
2393,47.0,60.0,120.0,3.0,0.0
2394,42.0,120.0,120.0,3.0,0.0
2395,39.0,120.0,120.0,3.0,0.0
2396,35.0,50.0,660.0,3.0,0.0
2397,63.0,0.0,480.0,0.0,0.0
2398,39.0,120.0,120.0,3.0,0.0
2399,54.0,0.0,480.0,1.0,0.0
2400,42.0,120.0,120.0,3.0,0.0
2401,47.0,120.0,120.0,3.0,0.0
2402,42.0,70.0,120.0,3.0,0.0
2403,66.0,115.0,240.0,0.0,0.0
2404,39.0,120.0,120.0,3.0,0.0
2405,35.0,35.0,450.0,3.0,0.0
2406,57.0,5.0,15.0,1.0,0.0
2407,63.0,115.0,360.0,0.0,0.0
2408,39.0,120.0,120.0,3.0,0.0
2409,42.0,85.0,120.0,3.0,0.0
2410,47.0,5.0,120.0,3.0,0.0
2411,66.0,120.0,120.0,0.0,0.0
2412,35.0,0.0,120.0,3.0,0.0
2413,47.0,0.0,120.0,3.0,0.0
2414,57.0,0.0,240.0,1.0,0.0
2415,65.0,120.0,120.0,0.0,0.0
2416,35.0,480.0,120.0,3.0,0.0
2417,63.0,0.0,120.0,0.0,0.0
2418,62.0,0.0,720.0,0.0,0.0
2419,58.0,0.0,720.0,1.0,0.0
2420,34.0,0.0,720.0,3.0,0.0
2421,46.0,240.0,240.0,2.0,0.0
2422,46.0,480.0,240.0,2.0,0.0
2423,46.0,56.0,780.0,3.0,0.0
2424,62.0,0.0,480.0,1.0,0.0
2425,65.0,235.0,480.0,0.0,0.0
2426,58.0,5.0,15.0,2.0,0.0
2427,66.0,5.0,240.0,0.0,0.0
2428,63.0,59.0,240.0,1.0,0.0
2429,65.0,110.0,240.0,1.0,0.0
2430,68.0,120.0,120.0,0.0,0.0
2431,71.0,10.0,120.0,0.0,0.0
2432,70.0,120.0,120.0,0.0,0.0
2433,68.0,120.0,120.0,0.0,0.0
2434,66.0,120.0,120.0,0.0,0.0
2435,46.0,480.0,240.0,2.0,0.0
2436,65.0,0.0,120.0,0.0,0.0
2437,39.0,72.0,660.0,3.0,0.0
2438,54.0,480.0,720.0,1.0,0.0
2439,63.0,0.0,720.0,0.0,0.0
2440,46.0,168.0,15.0,2.0,0.0
2441,39.0,72.0,660.0,3.0,0.0
2442,66.0,168.0,480.0,0.0,0.0
2443,63.0,0.0,480.0,1.0,0.0
2444,46.0,0.0,240.0,2.0,0.0
2445,65.0,0.0,240.0,1.0,0.0
2446,46.0,0.0,240.0,2.0,0.0
2447,68.0,480.0,240.0,0.0,0.0
2448,39.0,72.0,660.0,3.0,0.0
2449,66.0,0.0,480.0,1.0,0.0
2450,70.0,168.0,480.0,0.0,0.0
2451,46.0,0.0,15.0,2.0,0.0
2452,66.0,0.0,240.0,1.0,0.0
2453,70.0,480.0,240.0,0.0,0.0
2454,39.0,72.0,660.0,3.0,0.0
2455,66.0,0.0,480.0,1.0,0.0
2456,70.0,0.0,480.0,0.0,0.0
2457,66.0,0.0,240.0,0.0,0.0
2458,46.0,168.0,15.0,2.0,0.0
2459,63.0,480.0,240.0,1.0,0.0
2460,39.0,72.0,660.0,3.0,0.0
2461,54.0,168.0,480.0,1.0,0.0
2462,63.0,0.0,480.0,0.0,0.0
2463,46.0,0.0,240.0,2.0,0.0
2464,63.0,0.0,240.0,1.0,0.0
2465,66.0,0.0,240.0,0.0,0.0
2466,46.0,480.0,240.0,2.0,0.0
2467,34.0,72.0,660.0,3.0,0.0
2468,65.0,480.0,720.0,0.0,0.0
2469,62.0,0.0,720.0,1.0,0.0
2470,46.0,168.0,240.0,2.0,0.0
2471,46.0,0.0,240.0,2.0,0.0
2472,39.0,72.0,660.0,3.0,0.0
2473,54.0,480.0,720.0,1.0,0.0
2474,63.0,0.0,720.0,0.0,0.0
2475,46.0,168.0,240.0,2.0,0.0
2476,46.0,0.0,240.0,2.0,0.0
2477,66.0,0.0,480.0,0.0,0.0
2478,39.0,72.0,660.0,3.0,0.0
2479,63.0,168.0,480.0,1.0,0.0
2480,46.0,0.0,240.0,2.0,0.0
2481,68.0,480.0,240.0,0.0,0.0
2482,65.0,0.0,240.0,1.0,0.0
2483,46.0,0.0,240.0,2.0,0.0
2484,39.0,72.0,660.0,3.0,0.0
2485,70.0,0.0,480.0,0.0,0.0
2486,66.0,0.0,15.0,1.0,0.0
2487,46.0,168.0,15.0,2.0,0.0
2488,37.0,72.0,660.0,3.0,0.0
2489,66.0,0.0,15.0,1.0,0.0
2490,70.0,480.0,15.0,0.0,0.0
2491,49.0,0.0,15.0,2.0,0.0
2492,66.0,0.0,240.0,0.0,0.0
2493,58.0,0.0,240.0,1.0,0.0
2494,68.0,0.0,240.0,0.0,0.0
2495,37.0,72.0,660.0,3.0,0.0
2496,59.0,240.0,240.0,1.0,0.0
2497,71.0,168.0,240.0,0.0,0.0
2498,63.0,0.0,240.0,1.0,0.0
2499,49.0,0.0,15.0,2.0,0.0
2500,56.0,480.0,240.0,1.0,0.0
2501,65.0,0.0,240.0,0.0,0.0
2502,66.0,480.0,720.0,0.0,0.0
2503,42.0,72.0,660.0,3.0,0.0
2504,58.0,0.0,720.0,1.0,0.0
2505,49.0,168.0,15.0,2.0,0.0
2506,42.0,72.0,660.0,3.0,0.0
2507,66.0,0.0,480.0,1.0,0.0
2508,70.0,168.0,480.0,0.0,0.0
2509,49.0,0.0,15.0,2.0,0.0
2510,58.0,0.0,240.0,1.0,0.0
2511,66.0,0.0,240.0,0.0,0.0
2512,37.0,72.0,660.0,3.0,0.0
2513,68.0,0.0,480.0,0.0,0.0
2514,65.0,0.0,480.0,1.0,0.0
2515,49.0,168.0,240.0,2.0,0.0
2516,70.0,0.0,240.0,0.0,0.0
2517,67.0,0.0,240.0,1.0,0.0
2518,49.0,480.0,240.0,2.0,0.0
2519,68.0,168.0,480.0,1.0,0.0
2520,32.0,72.0,660.0,3.0,0.0
2521,44.0,0.0,240.0,2.0,0.0
2522,44.0,480.0,240.0,2.0,0.0
2523,71.0,0.0,15.0,0.0,0.0
2524,32.0,72.0,660.0,3.0,0.0
2525,71.0,0.0,15.0,0.0,0.0
2526,68.0,0.0,15.0,1.0,0.0
2527,65.0,240.0,240.0,1.0,0.0
2528,44.0,0.0,15.0,2.0,0.0
2529,68.0,0.0,240.0,0.0,0.0
2530,34.0,0.0,480.0,3.0,0.0
2531,62.0,0.0,240.0,1.0,0.0
2532,65.0,240.0,240.0,0.0,0.0
2533,46.0,0.0,240.0,2.0,0.0
2534,68.0,0.0,240.0,0.0,0.0
2535,65.0,240.0,240.0,1.0,0.0
2536,65.0,0.0,240.0,0.0,0.0
2537,34.0,0.0,240.0,3.0,0.0
2538,62.0,240.0,240.0,1.0,0.0
2539,66.0,0.0,240.0,0.0,0.0
2540,39.0,0.0,240.0,3.0,0.0
2541,63.0,240.0,15.0,1.0,0.0
2542,39.0,0.0,240.0,3.0,0.0
2543,66.0,0.0,240.0,0.0,0.0
2544,51.0,0.0,240.0,2.0,0.0
2545,65.0,0.0,240.0,1.0,0.0
2546,68.0,0.0,240.0,0.0,0.0
2547,49.0,480.0,240.0,2.0,0.0
2548,37.0,0.0,240.0,3.0,0.0
2549,42.0,38.0,690.0,3.0,0.0
2550,70.0,0.0,480.0,0.0,0.0
2551,66.0,202.0,480.0,1.0,0.0
2552,49.0,0.0,240.0,2.0,0.0
2553,66.0,0.0,240.0,0.0,0.0
2554,58.0,480.0,240.0,1.0,0.0
2555,49.0,0.0,240.0,2.0,0.0
2556,68.0,0.0,480.0,0.0,0.0
2557,37.0,38.0,690.0,3.0,0.0
2558,65.0,202.0,480.0,1.0,0.0
2559,49.0,0.0,240.0,2.0,0.0
2560,49.0,0.0,240.0,2.0,0.0
2561,70.0,480.0,240.0,0.0,0.0
2562,67.0,0.0,240.0,1.0,0.0
2563,32.0,38.0,690.0,3.0,0.0
2564,71.0,0.0,480.0,0.0,0.0
2565,44.0,0.0,240.0,2.0,0.0
2566,68.0,202.0,15.0,1.0,0.0
2567,44.0,0.0,240.0,2.0,0.0
2568,32.0,38.0,690.0,3.0,0.0
2569,68.0,480.0,15.0,1.0,0.0
2570,71.0,0.0,15.0,0.0,0.0
2571,44.0,0.0,240.0,2.0,0.0
2572,68.0,0.0,240.0,0.0,0.0
2573,44.0,240.0,240.0,2.0,0.0
2574,65.0,0.0,240.0,1.0,0.0
2575,34.0,38.0,690.0,3.0,0.0
2576,65.0,240.0,240.0,0.0,0.0
2577,62.0,0.0,240.0,1.0,0.0
2578,65.0,0.0,240.0,1.0,0.0
2579,68.0,202.0,240.0,0.0,0.0
2580,46.0,0.0,240.0,2.0,0.0
2581,65.0,0.0,240.0,0.0,0.0
2582,62.0,240.0,240.0,1.0,0.0
2583,46.0,0.0,240.0,2.0,0.0
2584,63.0,0.0,720.0,0.0,0.0
2585,39.0,16.0,330.0,3.0,0.0
2586,54.0,0.0,720.0,1.0,0.0
2587,42.0,104.0,120.0,3.0,0.0
2588,46.0,240.0,120.0,3.0,0.0
2589,39.0,16.0,330.0,3.0,0.0
2590,42.0,104.0,120.0,3.0,0.0
2591,46.0,240.0,120.0,3.0,0.0
2592,51.0,24.0,450.0,3.0,0.0
2593,75.0,240.0,720.0,0.0,0.0
2594,63.0,0.0,720.0,1.0,0.0
2595,54.0,120.0,120.0,3.0,0.0
2596,58.0,96.0,120.0,3.0,0.0
2597,54.0,120.0,120.0,3.0,0.0
2598,51.0,120.0,120.0,3.0,0.0
2599,46.0,0.0,120.0,3.0,0.0
2600,51.0,24.0,450.0,3.0,0.0
2601,78.0,120.0,480.0,0.0,0.0
2602,66.0,0.0,480.0,1.0,0.0
2603,54.0,120.0,120.0,3.0,0.0
2604,58.0,96.0,120.0,3.0,0.0
2605,54.0,0.0,120.0,3.0,0.0
2606,68.0,0.0,240.0,1.0,0.0
2607,80.0,240.0,240.0,0.0,0.0
2608,51.0,120.0,120.0,3.0,0.0
2609,46.0,0.0,120.0,3.0,0.0
2610,70.0,0.0,480.0,1.0,0.0
2611,51.0,24.0,450.0,3.0,0.0
2612,54.0,120.0,120.0,3.0,0.0
2613,58.0,96.0,120.0,3.0,0.0
2614,54.0,120.0,120.0,3.0,0.0
2615,82.0,0.0,15.0,0.0,0.0
2616,51.0,120.0,120.0,3.0,0.0
2617,46.0,0.0,120.0,3.0,0.0
2618,51.0,24.0,450.0,3.0,0.0
2619,82.0,0.0,480.0,0.0,0.0
2620,70.0,240.0,15.0,1.0,0.0
2621,54.0,120.0,120.0,3.0,0.0
2622,58.0,96.0,120.0,3.0,0.0
2623,54.0,0.0,120.0,3.0,0.0
2624,51.0,120.0,120.0,3.0,0.0
2625,78.0,240.0,240.0,0.0,0.0
2626,66.0,0.0,240.0,1.0,0.0
2627,46.0,0.0,120.0,3.0,0.0
2628,63.0,0.0,480.0,1.0,0.0
2629,51.0,8.0,480.0,3.0,0.0
2630,75.0,0.0,480.0,0.0,0.0
2631,54.0,120.0,120.0,3.0,0.0
2632,58.0,112.0,120.0,3.0,0.0
2633,54.0,120.0,120.0,3.0,0.0
2634,66.0,0.0,240.0,1.0,0.0
2635,51.0,120.0,120.0,3.0,0.0
2636,78.0,240.0,240.0,0.0,0.0
2637,46.0,0.0,120.0,3.0,0.0
2638,50.0,24.0,450.0,3.0,0.0
2639,77.0,240.0,720.0,0.0,0.0
2640,65.0,0.0,720.0,1.0,0.0
2641,53.0,120.0,120.0,3.0,0.0
2642,58.0,96.0,120.0,3.0,0.0
2643,53.0,120.0,120.0,3.0,0.0
2644,50.0,120.0,120.0,3.0,0.0
2645,46.0,0.0,120.0,3.0,0.0
2646,50.0,24.0,450.0,3.0,0.0
2647,68.0,0.0,480.0,1.0,0.0
2648,80.0,120.0,480.0,0.0,0.0
2649,53.0,120.0,120.0,3.0,0.0
2650,58.0,96.0,120.0,3.0,0.0
2651,53.0,0.0,120.0,3.0,0.0
2652,50.0,120.0,120.0,3.0,0.0
2653,77.0,0.0,240.0,0.0,0.0
2654,65.0,0.0,240.0,1.0,0.0
2655,46.0,240.0,120.0,3.0,0.0
2656,62.0,120.0,480.0,1.0,0.0
2657,74.0,0.0,480.0,0.0,0.0
2658,50.0,40.0,450.0,3.0,0.0
2659,53.0,120.0,120.0,3.0,0.0
2660,58.0,80.0,120.0,3.0,0.0
2661,53.0,0.0,120.0,3.0,0.0
2662,77.0,0.0,240.0,0.0,0.0
2663,65.0,0.0,240.0,1.0,0.0
2664,50.0,120.0,120.0,3.0,0.0
2665,46.0,240.0,120.0,3.0,0.0
2666,63.0,0.0,720.0,1.0,0.0
2667,75.0,0.0,720.0,0.0,0.0
2668,47.0,24.0,450.0,3.0,0.0
2669,51.0,120.0,120.0,3.0,0.0
2670,54.0,96.0,120.0,3.0,0.0
2671,51.0,120.0,120.0,3.0,0.0
2672,47.0,120.0,120.0,3.0,0.0
2673,46.0,360.0,120.0,3.0,0.0
2674,59.0,312.0,360.0,1.0,0.0
2675,68.0,0.0,360.0,0.0,0.0
2676,53.0,0.0,360.0,2.0,0.0
2677,44.0,0.0,360.0,3.0,0.0
2678,59.0,0.0,180.0,1.0,0.0
2679,56.0,1128.0,180.0,2.0,0.0
2680,44.0,0.0,180.0,3.0,0.0
2681,65.0,0.0,180.0,0.0,0.0
2682,62.0,0.0,360.0,0.0,0.0
2683,56.0,312.0,360.0,1.0,0.0
2684,53.0,0.0,360.0,2.0,0.0
2685,46.0,0.0,360.0,3.0,0.0
2686,46.0,528.0,180.0,3.0,0.0
2687,65.0,0.0,180.0,0.0,0.0
2688,62.0,0.0,180.0,1.0,0.0
2689,56.0,0.0,180.0,2.0,0.0
2690,56.0,0.0,480.0,1.0,0.0
2691,58.0,0.0,480.0,1.0,0.0
2692,62.0,0.0,480.0,0.0,0.0
2693,46.0,0.0,480.0,3.0,0.0
2694,53.0,720.0,480.0,2.0,0.0
2695,63.0,2160.0,480.0,0.0,0.0
2696,39.0,0.0,480.0,3.0,0.0
2697,54.0,0.0,480.0,1.0,0.0
2698,58.0,0.0,480.0,1.0,0.0
2699,51.0,0.0,480.0,2.0,0.0
2700,67.0,120.0,240.0,0.0,0.0
2701,55.0,0.0,480.0,2.0,0.0
2702,51.0,240.0,480.0,3.0,0.0
2703,68.0,120.0,120.0,0.0,0.0
2704,67.0,0.0,120.0,0.0,0.0
2705,53.0,240.0,480.0,2.0,0.0
2706,70.0,120.0,240.0,0.0,0.0
2707,50.0,0.0,480.0,3.0,0.0
2708,72.0,120.0,120.0,0.0,0.0
2709,70.0,0.0,120.0,0.0,0.0
2710,51.0,480.0,480.0,2.0,0.0
2711,48.0,0.0,480.0,3.0,0.0
2712,63.0,120.0,240.0,0.0,0.0
2713,65.0,120.0,120.0,0.0,0.0
2714,63.0,0.0,120.0,0.0,0.0
2715,50.0,0.0,480.0,2.0,0.0
2716,67.0,240.0,480.0,0.0,0.0
2717,46.0,0.0,480.0,3.0,0.0
2718,60.0,120.0,240.0,0.0,0.0
2719,48.0,0.0,480.0,2.0,0.0
2720,44.0,240.0,480.0,3.0,0.0
2721,62.0,120.0,120.0,0.0,0.0
2722,60.0,0.0,120.0,0.0,0.0
2723,43.0,240.0,480.0,3.0,0.0
2724,63.0,120.0,240.0,0.0,0.0
2725,46.0,0.0,480.0,2.0,0.0
2726,65.0,120.0,120.0,0.0,0.0
2727,63.0,0.0,120.0,0.0,0.0
2728,65.0,120.0,240.0,0.0,0.0
2729,50.0,0.0,480.0,2.0,0.0
2730,46.0,0.0,480.0,3.0,0.0
2731,67.0,120.0,120.0,0.0,0.0
2732,65.0,480.0,120.0,0.0,0.0
2733,39.0,240.0,480.0,3.0,0.0
2734,51.0,0.0,480.0,2.0,0.0
2735,67.0,0.0,480.0,0.0,0.0
2736,67.0,120.0,240.0,0.0,0.0
2737,55.0,0.0,480.0,2.0,0.0
2738,51.0,0.0,480.0,3.0,0.0
2739,68.0,120.0,120.0,0.0,0.0
2740,67.0,240.0,120.0,0.0,0.0
2741,50.0,240.0,480.0,3.0,0.0
2742,53.0,0.0,480.0,2.0,0.0
2743,70.0,120.0,240.0,0.0,0.0
2744,72.0,120.0,120.0,0.0,0.0
2745,70.0,0.0,120.0,0.0,0.0
2746,57.0,480.0,480.0,2.0,0.0
2747,75.0,120.0,240.0,0.0,0.0
2748,48.0,0.0,480.0,3.0,0.0
2749,77.0,120.0,120.0,0.0,0.0
2750,75.0,0.0,120.0,0.0,0.0
2751,46.0,0.0,480.0,3.0,0.0
2752,74.0,0.0,480.0,0.0,0.0
2753,58.0,240.0,480.0,2.0,0.0
2754,72.0,120.0,240.0,0.0,0.0
2755,51.0,0.0,480.0,3.0,0.0
2756,55.0,0.0,480.0,2.0,0.0
2757,74.0,120.0,120.0,0.0,0.0
2758,72.0,60.0,120.0,0.0,0.0
2759,53.0,0.0,480.0,3.0,0.0
2760,60.0,0.0,480.0,2.0,0.0
2761,69.0,60.0,60.0,0.0,0.0
2762,70.0,112.0,60.0,0.0,0.0
2763,69.0,128.0,120.0,0.0,0.0
2764,67.0,120.0,120.0,0.0,0.0
2765,69.0,240.0,120.0,0.0,0.0
2766,58.0,960.0,240.0,2.0,0.0
2767,70.0,0.0,240.0,0.0,0.0
2768,46.0,0.0,240.0,3.0,0.0
2769,55.0,0.0,480.0,2.0,0.0
2770,67.0,120.0,240.0,0.0,0.0
2771,51.0,240.0,480.0,3.0,0.0
2772,68.0,120.0,120.0,0.0,0.0
2773,67.0,0.0,120.0,0.0,0.0
2774,53.0,240.0,480.0,2.0,0.0
2775,70.0,120.0,240.0,0.0,0.0
2776,50.0,0.0,480.0,3.0,0.0
2777,72.0,120.0,120.0,0.0,0.0
2778,70.0,0.0,120.0,0.0,0.0
2779,63.0,120.0,240.0,0.0,0.0
2780,48.0,0.0,480.0,3.0,0.0
2781,51.0,480.0,480.0,2.0,0.0
2782,65.0,120.0,120.0,0.0,0.0
2783,63.0,0.0,120.0,0.0,0.0
2784,46.0,0.0,480.0,3.0,0.0
2785,67.0,0.0,480.0,0.0,0.0
2786,50.0,240.0,480.0,2.0,0.0
2787,60.0,120.0,240.0,0.0,0.0
2788,44.0,0.0,480.0,3.0,0.0
2789,48.0,0.0,480.0,2.0,0.0
2790,62.0,120.0,120.0,0.0,0.0
2791,60.0,240.0,120.0,0.0,0.0
2792,43.0,0.0,480.0,3.0,0.0
2793,46.0,0.0,480.0,2.0,0.0
2794,63.0,120.0,240.0,0.0,0.0
2795,65.0,120.0,120.0,0.0,0.0
2796,63.0,240.0,120.0,0.0,0.0
2797,46.0,0.0,480.0,3.0,0.0
2798,50.0,0.0,480.0,2.0,0.0
2799,65.0,120.0,240.0,0.0,0.0
2800,67.0,120.0,120.0,0.0,0.0
2801,65.0,480.0,120.0,0.0,0.0
2802,51.0,0.0,480.0,2.0,0.0
2803,39.0,0.0,480.0,3.0,0.0
2804,51.0,0.0,480.0,3.0,0.0
2805,55.0,0.0,480.0,2.0,0.0
2806,67.0,240.0,15.0,0.0,0.0
2807,68.0,120.0,120.0,0.0,0.0
2808,67.0,240.0,120.0,0.0,0.0
2809,53.0,0.0,480.0,2.0,0.0
2810,50.0,0.0,480.0,3.0,0.0
2811,70.0,120.0,240.0,0.0,0.0
2812,72.0,120.0,120.0,0.0,0.0
2813,70.0,240.0,120.0,0.0,0.0
2814,48.0,0.0,480.0,3.0,0.0
2815,57.0,0.0,480.0,2.0,0.0
2816,75.0,120.0,240.0,0.0,0.0
2817,77.0,120.0,120.0,0.0,0.0
2818,75.0,480.0,120.0,0.0,0.0
2819,46.0,0.0,480.0,3.0,0.0
2820,74.0,0.0,480.0,0.0,0.0
2821,58.0,240.0,480.0,2.0,0.0
2822,72.0,120.0,240.0,0.0,0.0
2823,55.0,60.0,480.0,2.0,0.0
2824,51.0,0.0,480.0,3.0,0.0
2825,74.0,120.0,120.0,0.0,0.0
2826,72.0,0.0,120.0,0.0,0.0
2827,53.0,240.0,480.0,3.0,0.0
2828,69.0,60.0,60.0,0.0,0.0
2829,60.0,0.0,480.0,2.0,0.0
2830,70.0,112.0,60.0,0.0,0.0
2831,69.0,128.0,120.0,0.0,0.0
2832,67.0,120.0,120.0,0.0,0.0
2833,69.0,0.0,120.0,0.0,0.0
2834,58.0,960.0,240.0,2.0,0.0
2835,70.0,0.0,240.0,0.0,0.0
2836,46.0,0.0,240.0,3.0,0.0
2837,58.0,120.0,240.0,0.0,0.0
2838,46.0,0.0,240.0,3.0,0.0
2839,48.0,0.0,120.0,3.0,0.0
2840,60.0,120.0,120.0,0.0,0.0
2841,58.0,120.0,120.0,0.0,0.0
2842,46.0,0.0,120.0,3.0,0.0
2843,43.0,240.0,120.0,3.0,0.0
2844,55.0,0.0,120.0,0.0,0.0
2845,57.0,600.0,120.0,0.0,0.0
2846,45.0,0.0,120.0,3.0,0.0
2847,58.0,360.0,480.0,0.0,0.0
2848,46.0,0.0,480.0,3.0,0.0
2849,46.0,0.0,360.0,0.0,0.0
2850,34.0,120.0,360.0,3.0,0.0
2851,50.0,0.0,60.0,0.0,0.0
2852,38.0,120.0,60.0,3.0,0.0
2853,48.0,240.0,120.0,0.0,0.0
2854,36.0,0.0,120.0,3.0,0.0
2855,34.0,0.0,120.0,3.0,0.0
2856,46.0,240.0,120.0,0.0,0.0
2857,36.0,240.0,120.0,3.0,0.0
2858,48.0,0.0,120.0,0.0,0.0
2859,50.0,0.0,120.0,0.0,0.0
2860,38.0,600.0,120.0,3.0,0.0
2861,39.0,360.0,480.0,3.0,0.0
2862,51.0,0.0,480.0,0.0,0.0
2863,27.0,372.0,360.0,3.0,0.0
2864,39.0,0.0,360.0,0.0,0.0
2865,46.0,240.0,480.0,3.0,0.0
2866,70.0,108.0,240.0,0.0,0.0
2867,72.0,120.0,120.0,0.0,0.0
2868,70.0,0.0,120.0,0.0,0.0
2869,67.0,240.0,240.0,0.0,0.0
2870,41.0,480.0,480.0,3.0,0.0
2871,48.0,0.0,480.0,2.0,0.0
2872,63.0,0.0,480.0,1.0,0.0
2873,69.0,0.0,240.0,0.0,0.0
2874,62.0,0.0,480.0,1.0,0.0
2875,70.0,0.0,480.0,0.0,0.0
2876,46.0,480.0,480.0,3.0,0.0
2877,61.0,0.0,480.0,1.0,0.0
2878,46.0,240.0,480.0,2.0,0.0
2879,67.0,0.0,480.0,0.0,0.0
2880,39.0,0.0,480.0,3.0,0.0
2881,44.0,0.0,480.0,2.0,0.0
2882,60.0,156.0,480.0,1.0,0.0
2883,70.0,156.0,240.0,0.0,0.0
2884,32.0,0.0,480.0,3.0,0.0
2885,68.0,84.0,150.0,0.0,0.0
2886,46.0,240.0,480.0,2.0,0.0
2887,34.0,0.0,480.0,3.0,0.0
2888,56.0,0.0,480.0,1.0,0.0
2889,65.0,240.0,150.0,0.0,0.0
2890,62.0,84.0,150.0,0.0,0.0
2891,55.0,0.0,240.0,1.0,0.0
2892,63.0,0.0,240.0,0.0,0.0
2893,39.0,192.0,240.0,3.0,0.0
2894,51.0,240.0,180.0,3.0,0.0
2895,49.0,240.0,180.0,3.0,0.0
2896,48.0,288.0,180.0,3.0,0.0
2897,58.0,120.0,240.0,0.0,0.0
2898,46.0,0.0,240.0,3.0,0.0
2899,48.0,120.0,120.0,3.0,0.0
2900,60.0,0.0,120.0,0.0,0.0
2901,58.0,120.0,120.0,0.0,0.0
2902,46.0,0.0,120.0,3.0,0.0
2903,43.0,240.0,120.0,3.0,0.0
2904,55.0,0.0,120.0,0.0,0.0
2905,45.0,0.0,120.0,3.0,0.0
2906,57.0,600.0,120.0,0.0,0.0
2907,58.0,0.0,480.0,0.0,0.0
2908,46.0,360.0,480.0,3.0,0.0
2909,46.0,120.0,360.0,0.0,0.0
2910,34.0,0.0,360.0,3.0,0.0
2911,50.0,0.0,60.0,0.0,0.0
2912,38.0,120.0,60.0,3.0,0.0
2913,48.0,0.0,120.0,0.0,0.0
2914,36.0,240.0,120.0,3.0,0.0
2915,34.0,240.0,120.0,3.0,0.0
2916,46.0,0.0,120.0,0.0,0.0
2917,48.0,240.0,120.0,0.0,0.0
2918,36.0,0.0,120.0,3.0,0.0
2919,38.0,600.0,120.0,3.0,0.0
2920,50.0,0.0,120.0,0.0,0.0
2921,39.0,0.0,480.0,3.0,0.0
2922,51.0,360.0,480.0,0.0,0.0
2923,39.0,372.0,360.0,0.0,0.0
2924,27.0,0.0,360.0,3.0,0.0
2925,70.0,108.0,240.0,0.0,0.0
2926,46.0,240.0,480.0,3.0,0.0
2927,72.0,120.0,120.0,0.0,0.0
2928,70.0,0.0,120.0,0.0,0.0
2929,67.0,240.0,240.0,0.0,0.0
2930,63.0,0.0,480.0,1.0,0.0
2931,48.0,480.0,480.0,2.0,0.0
2932,41.0,0.0,480.0,3.0,0.0
2933,69.0,0.0,240.0,0.0,0.0
2934,46.0,480.0,480.0,3.0,0.0
2935,70.0,0.0,480.0,0.0,0.0
2936,62.0,0.0,480.0,1.0,0.0
2937,39.0,0.0,480.0,3.0,0.0
2938,61.0,240.0,480.0,1.0,0.0
2939,46.0,0.0,480.0,2.0,0.0
2940,67.0,0.0,480.0,0.0,0.0
2941,32.0,156.0,480.0,3.0,0.0
2942,70.0,156.0,240.0,0.0,0.0
2943,44.0,0.0,480.0,2.0,0.0
2944,60.0,0.0,480.0,1.0,0.0
2945,68.0,84.0,150.0,0.0,0.0
2946,65.0,240.0,150.0,0.0,0.0
2947,56.0,0.0,480.0,1.0,0.0
2948,34.0,0.0,480.0,3.0,0.0
2949,46.0,240.0,480.0,2.0,0.0
2950,62.0,84.0,150.0,0.0,0.0
2951,55.0,0.0,240.0,1.0,0.0
2952,63.0,480.0,240.0,0.0,0.0
2953,39.0,0.0,240.0,3.0,0.0
2954,51.0,120.0,240.0,0.0,0.0
2955,53.0,120.0,120.0,0.0,0.0
2956,51.0,240.0,120.0,0.0,0.0
2957,55.0,120.0,240.0,0.0,0.0
2958,56.0,120.0,120.0,0.0,0.0
2959,55.0,240.0,120.0,0.0,0.0
2960,67.0,120.0,240.0,0.0,0.0
2961,68.0,120.0,120.0,0.0,0.0
2962,67.0,224.0,120.0,0.0,0.0
2963,48.0,16.0,210.0,3.0,0.0
2964,51.0,0.0,210.0,2.0,0.0
2965,60.0,0.0,240.0,0.0,0.0
2966,55.0,120.0,120.0,2.0,0.0
2967,62.0,104.0,120.0,0.0,0.0
2968,48.0,16.0,210.0,3.0,0.0
2969,51.0,0.0,210.0,2.0,0.0
2970,60.0,224.0,120.0,0.0,0.0
2971,55.0,0.0,120.0,2.0,0.0
2972,75.0,0.0,480.0,0.0,0.0
2973,48.0,16.0,210.0,3.0,0.0
2974,51.0,0.0,210.0,2.0,0.0
2975,55.0,224.0,120.0,2.0,0.0
2976,51.0,0.0,210.0,2.0,0.0
2977,48.0,16.0,210.0,3.0,0.0
2978,55.0,224.0,120.0,2.0,0.0
2979,53.0,0.0,210.0,2.0,0.0
2980,74.0,0.0,240.0,0.0,0.0
2981,48.0,16.0,210.0,3.0,0.0
2982,50.0,0.0,210.0,2.0,0.0
2983,55.0,224.0,120.0,2.0,0.0
2984,50.0,0.0,210.0,2.0,0.0
2985,77.0,224.0,240.0,0.0,0.0
2986,53.0,0.0,210.0,2.0,0.0
2987,48.0,16.0,210.0,3.0,0.0
2988,55.0,0.0,120.0,2.0,0.0
2989,53.0,0.0,210.0,2.0,0.0
2990,48.0,16.0,210.0,3.0,0.0
2991,74.0,224.0,240.0,0.0,0.0
2992,50.0,0.0,210.0,2.0,0.0
2993,55.0,0.0,120.0,2.0,0.0
2994,53.0,0.0,210.0,2.0,0.0
2995,48.0,16.0,210.0,3.0,0.0
2996,71.0,224.0,240.0,0.0,0.0
2997,50.0,0.0,210.0,2.0,0.0
2998,55.0,0.0,120.0,2.0,0.0
2999,51.0,0.0,210.0,2.0,0.0
3000,72.0,0.0,480.0,0.0,0.0
3001,48.0,16.0,210.0,3.0,0.0
3002,55.0,224.0,120.0,2.0,0.0
3003,48.0,16.0,210.0,3.0,0.0
3004,51.0,0.0,210.0,2.0,0.0
3005,55.0,192.0,120.0,2.0,0.0
3006,67.0,32.0,180.0,0.0,0.0
3007,51.0,16.0,210.0,2.0,0.0
3008,48.0,0.0,210.0,3.0,0.0
3009,55.0,224.0,120.0,2.0,0.0
3010,51.0,0.0,210.0,2.0,0.0
3011,48.0,16.0,210.0,3.0,0.0
3012,67.0,0.0,240.0,0.0,0.0
3013,55.0,120.0,120.0,2.0,0.0
3014,56.0,120.0,120.0,3.0,0.0
3015,68.0,0.0,120.0,0.0,0.0
3016,67.0,0.0,120.0,0.0,0.0
3017,55.0,120.0,120.0,3.0,0.0
3018,65.0,0.0,120.0,0.0,0.0
3019,53.0,120.0,120.0,3.0,0.0
3020,63.0,0.0,120.0,0.0,0.0
3021,51.0,120.0,120.0,3.0,0.0
3022,50.0,0.0,120.0,3.0,0.0
3023,62.0,120.0,120.0,0.0,0.0
3024,51.0,0.0,120.0,3.0,0.0
3025,63.0,120.0,120.0,0.0,0.0
3026,50.0,0.0,120.0,3.0,0.0
3027,62.0,120.0,120.0,0.0,0.0
3028,60.0,0.0,120.0,0.0,0.0
3029,48.0,120.0,120.0,3.0,0.0
3030,47.0,120.0,120.0,3.0,0.0
3031,59.0,0.0,120.0,0.0,0.0
3032,48.0,0.0,120.0,3.0,0.0
3033,60.0,120.0,120.0,0.0,0.0
3034,50.0,120.0,120.0,3.0,0.0
3035,62.0,0.0,120.0,0.0,0.0
3036,59.0,120.0,120.0,0.0,0.0
3037,47.0,0.0,120.0,3.0,0.0
3038,55.0,240.0,120.0,0.0,0.0
3039,43.0,0.0,120.0,3.0,0.0
3040,43.0,0.0,120.0,3.0,0.0
3041,55.0,0.0,120.0,0.0,0.0
3042,59.0,0.0,120.0,0.0,0.0
3043,62.0,240.0,120.0,0.0,0.0
3044,43.0,0.0,120.0,3.0,0.0
3045,55.0,0.0,120.0,0.0,0.0
3046,60.0,0.0,120.0,0.0,0.0
3047,63.0,240.0,120.0,0.0,0.0
3048,43.0,0.0,120.0,3.0,0.0
3049,63.0,240.0,120.0,0.0,0.0
3050,60.0,0.0,120.0,0.0,0.0
3051,43.0,240.0,120.0,3.0,0.0
3052,63.0,0.0,120.0,0.0,0.0
3053,60.0,0.0,120.0,0.0,0.0
3054,63.0,0.0,120.0,0.0,0.0
3055,43.0,360.0,120.0,3.0,0.0
3056,55.0,0.0,120.0,0.0,0.0
3057,60.0,0.0,120.0,0.0,0.0
3058,43.0,480.0,240.0,3.0,0.0
3059,62.0,0.0,240.0,0.0,0.0
3060,59.0,0.0,240.0,0.0,0.0
3061,55.0,0.0,240.0,0.0,0.0
3062,55.0,120.0,240.0,0.0,0.0
3063,56.0,120.0,120.0,0.0,0.0
3064,55.0,240.0,120.0,0.0,0.0
3065,67.0,120.0,240.0,0.0,0.0
3066,68.0,120.0,120.0,0.0,0.0
3067,67.0,480.0,120.0,0.0,0.0
3068,79.0,720.0,480.0,0.0,0.0
3069,53.0,120.0,240.0,0.0,0.0
3070,55.0,120.0,120.0,0.0,0.0
3071,53.0,240.0,120.0,0.0,0.0
3072,68.0,120.0,240.0,0.0,0.0
3073,70.0,120.0,120.0,0.0,0.0
3074,68.0,480.0,120.0,0.0,0.0
3075,80.0,720.0,480.0,0.0,0.0
3076,50.0,120.0,240.0,0.0,0.0
3077,51.0,120.0,120.0,0.0,0.0
3078,50.0,240.0,120.0,0.0,0.0
3079,68.0,120.0,240.0,0.0,0.0
3080,70.0,120.0,120.0,0.0,0.0
3081,68.0,240.0,120.0,0.0,0.0
3082,77.0,120.0,240.0,0.0,0.0
3083,79.0,120.0,120.0,0.0,0.0
3084,77.0,240.0,120.0,0.0,0.0
3085,68.0,120.0,240.0,0.0,0.0
3086,70.0,120.0,120.0,0.0,0.0
3087,68.0,240.0,120.0,0.0,0.0
3088,77.0,120.0,240.0,0.0,0.0
3089,79.0,120.0,120.0,0.0,0.0
3090,77.0,240.0,120.0,0.0,0.0
3091,68.0,120.0,240.0,0.0,0.0
3092,70.0,120.0,120.0,0.0,0.0
3093,68.0,240.0,120.0,0.0,0.0
3094,74.0,120.0,240.0,0.0,0.0
3095,75.0,120.0,120.0,0.0,0.0
3096,74.0,240.0,120.0,0.0,0.0
3097,68.0,120.0,240.0,0.0,0.0
3098,70.0,120.0,120.0,0.0,0.0
3099,68.0,240.0,120.0,0.0,0.0
3100,74.0,120.0,240.0,0.0,0.0
3101,75.0,120.0,120.0,0.0,0.0
3102,74.0,240.0,120.0,0.0,0.0
3103,68.0,120.0,240.0,0.0,0.0
3104,70.0,120.0,120.0,0.0,0.0
3105,68.0,240.0,120.0,0.0,0.0
3106,70.0,120.0,240.0,0.0,0.0
3107,72.0,120.0,120.0,0.0,0.0
3108,70.0,240.0,120.0,0.0,0.0
3109,69.0,120.0,240.0,0.0,0.0
3110,70.0,120.0,120.0,0.0,0.0
3111,69.0,240.0,120.0,0.0,0.0
3112,70.0,120.0,240.0,0.0,0.0
3113,72.0,120.0,120.0,0.0,0.0
3114,70.0,240.0,120.0,0.0,0.0
3115,68.0,120.0,240.0,0.0,0.0
3116,70.0,120.0,120.0,0.0,0.0
3117,68.0,240.0,120.0,0.0,0.0
3118,70.0,120.0,240.0,0.0,0.0
3119,72.0,120.0,120.0,0.0,0.0
3120,70.0,240.0,120.0,0.0,0.0
3121,51.0,10.0,480.0,3.0,0.0
3122,67.0,80.0,240.0,0.0,0.0
3123,55.0,40.0,150.0,2.0,0.0
3124,68.0,110.0,120.0,0.0,0.0
3125,58.0,240.0,150.0,2.0,0.0
3126,67.0,0.0,120.0,0.0,0.0
3127,50.0,10.0,480.0,3.0,0.0
3128,70.0,80.0,240.0,0.0,0.0
3129,55.0,40.0,150.0,2.0,0.0
3130,72.0,110.0,120.0,0.0,0.0
3131,53.0,240.0,150.0,2.0,0.0
3132,70.0,0.0,120.0,0.0,0.0
3133,63.0,80.0,240.0,0.0,0.0
3134,48.0,10.0,480.0,3.0,0.0
3135,51.0,40.0,150.0,2.0,0.0
3136,65.0,110.0,120.0,0.0,0.0
3137,55.0,0.0,150.0,2.0,0.0
3138,63.0,320.0,120.0,0.0,0.0
3139,67.0,0.0,480.0,0.0,0.0
3140,46.0,20.0,450.0,3.0,0.0
3141,50.0,140.0,150.0,2.0,0.0
3142,55.0,240.0,150.0,2.0,0.0
3143,60.0,80.0,240.0,0.0,0.0
3144,44.0,20.0,450.0,3.0,0.0
3145,48.0,40.0,150.0,2.0,0.0
3146,62.0,100.0,120.0,0.0,0.0
3147,51.0,240.0,150.0,2.0,0.0
3148,60.0,0.0,120.0,0.0,0.0
3149,63.0,80.0,240.0,0.0,0.0
3150,43.0,20.0,450.0,3.0,0.0
3151,46.0,40.0,150.0,2.0,0.0
3152,65.0,100.0,120.0,0.0,0.0
3153,51.0,0.0,150.0,2.0,0.0
3154,63.0,240.0,120.0,0.0,0.0
3155,65.0,80.0,240.0,0.0,0.0
3156,41.0,10.0,480.0,3.0,0.0
3157,46.0,40.0,150.0,2.0,0.0
3158,67.0,110.0,120.0,0.0,0.0
3159,50.0,0.0,150.0,2.0,0.0
3160,65.0,320.0,120.0,0.0,0.0
3161,39.0,10.0,480.0,3.0,0.0
3162,46.0,150.0,150.0,2.0,0.0
3163,51.0,0.0,150.0,2.0,0.0
3164,67.0,240.0,15.0,0.0,0.0
3165,51.0,10.0,480.0,3.0,0.0
3166,55.0,40.0,150.0,2.0,0.0
3167,68.0,110.0,120.0,0.0,0.0
3168,58.0,0.0,150.0,2.0,0.0
3169,67.0,240.0,120.0,0.0,0.0
3170,50.0,10.0,480.0,3.0,0.0
3171,70.0,80.0,240.0,0.0,0.0
3172,53.0,40.0,150.0,2.0,0.0
3173,72.0,110.0,120.0,0.0,0.0
3174,58.0,0.0,150.0,2.0,0.0
3175,70.0,240.0,120.0,0.0,0.0
3176,75.0,80.0,240.0,0.0,0.0
3177,48.0,10.0,480.0,3.0,0.0
3178,53.0,40.0,150.0,2.0,0.0
3179,77.0,110.0,120.0,0.0,0.0
3180,57.0,0.0,150.0,2.0,0.0
3181,75.0,320.0,120.0,0.0,0.0
3182,74.0,0.0,480.0,0.0,0.0
3183,46.0,10.0,480.0,3.0,0.0
3184,53.0,150.0,150.0,2.0,0.0
3185,58.0,240.0,150.0,2.0,0.0
3186,72.0,80.0,240.0,0.0,0.0
3187,51.0,10.0,480.0,3.0,0.0
3188,55.0,40.0,150.0,2.0,0.0
3189,74.0,110.0,120.0,0.0,0.0
3190,60.0,0.0,150.0,2.0,0.0
3191,72.0,60.0,120.0,0.0,0.0
3192,69.0,60.0,60.0,0.0,0.0
3193,53.0,10.0,480.0,3.0,0.0
3194,70.0,112.0,60.0,0.0,0.0
3195,69.0,88.0,120.0,0.0,0.0
3196,60.0,40.0,150.0,2.0,0.0
3197,67.0,110.0,120.0,0.0,0.0
3198,63.0,0.0,150.0,2.0,0.0
3199,69.0,180.0,120.0,0.0,0.0
3200,58.0,60.0,180.0,3.0,0.0
3201,70.0,80.0,240.0,0.0,0.0
3202,65.0,160.0,150.0,3.0,0.0
3203,62.0,160.0,150.0,3.0,0.0
3204,58.0,160.0,150.0,3.0,0.0
3205,53.0,160.0,150.0,3.0,0.0
3206,50.0,240.0,150.0,3.0,0.0
3207,46.0,0.0,240.0,3.0,0.0
3208,58.0,120.0,240.0,0.0,0.0
3209,48.0,120.0,120.0,3.0,0.0
3210,60.0,0.0,120.0,0.0,0.0
3211,58.0,120.0,120.0,0.0,0.0
3212,46.0,0.0,120.0,3.0,0.0
3213,43.0,0.0,120.0,3.0,0.0
3214,55.0,240.0,120.0,0.0,0.0
3215,45.0,0.0,120.0,3.0,0.0
3216,57.0,600.0,120.0,0.0,0.0
3217,46.0,0.0,480.0,3.0,0.0
3218,58.0,360.0,480.0,0.0,0.0
3219,34.0,120.0,360.0,3.0,0.0
3220,46.0,0.0,360.0,0.0,0.0
3221,38.0,120.0,60.0,3.0,0.0
3222,50.0,0.0,60.0,0.0,0.0
3223,36.0,240.0,120.0,3.0,0.0
3224,48.0,0.0,120.0,0.0,0.0
3225,46.0,240.0,120.0,0.0,0.0
3226,34.0,0.0,120.0,3.0,0.0
3227,36.0,0.0,120.0,3.0,0.0
3228,48.0,240.0,120.0,0.0,0.0
3229,50.0,600.0,120.0,0.0,0.0
3230,38.0,0.0,120.0,3.0,0.0
3231,39.0,360.0,480.0,3.0,0.0
3232,51.0,0.0,480.0,0.0,0.0
3233,39.0,0.0,360.0,0.0,0.0
3234,27.0,360.0,360.0,3.0,0.0
3235,70.0,80.0,240.0,0.0,0.0
3236,46.0,10.0,480.0,3.0,0.0
3237,50.0,40.0,150.0,2.0,0.0
3238,72.0,110.0,120.0,0.0,0.0
3239,53.0,0.0,150.0,2.0,0.0
3240,70.0,120.0,120.0,0.0,0.0
3241,48.0,10.0,480.0,3.0,0.0
3242,67.0,200.0,120.0,0.0,0.0
3243,51.0,40.0,150.0,2.0,0.0
3244,69.0,110.0,120.0,0.0,0.0
3245,53.0,320.0,150.0,2.0,0.0
3246,70.0,0.0,480.0,0.0,0.0
3247,46.0,10.0,480.0,3.0,0.0
3248,50.0,150.0,150.0,2.0,0.0
3249,53.0,320.0,150.0,2.0,0.0
3250,39.0,10.0,480.0,3.0,0.0
3251,67.0,110.0,360.0,0.0,0.0
3252,49.0,40.0,150.0,2.0,0.0
3253,51.0,240.0,150.0,2.0,0.0
3254,70.0,80.0,240.0,0.0,0.0
3255,44.0,10.0,480.0,3.0,0.0
3256,48.0,76.0,150.0,2.0,0.0
3257,68.0,74.0,150.0,0.0,0.0
3258,53.0,156.0,150.0,2.0,0.0
3259,46.0,10.0,480.0,3.0,0.0
3260,65.0,164.0,150.0,0.0,0.0
3261,50.0,76.0,150.0,2.0,0.0
3262,62.0,74.0,150.0,0.0,0.0
3263,53.0,320.0,150.0,2.0,0.0
3264,39.0,10.0,480.0,3.0,0.0
3265,63.0,240.0,480.0,0.0,0.0
3266,46.0,150.0,150.0,2.0,0.0
3267,51.0,0.0,150.0,2.0,0.0
3268,51.0,120.0,120.0,0.0,0.0
3269,39.0,0.0,120.0,3.0,0.0
3270,53.0,120.0,120.0,0.0,0.0
3271,41.0,0.0,120.0,3.0,0.0
3272,43.0,0.0,120.0,3.0,0.0
3273,55.0,120.0,120.0,0.0,0.0
3274,44.0,0.0,120.0,3.0,0.0
3275,56.0,120.0,120.0,0.0,0.0
3276,51.0,120.0,120.0,0.0,0.0
3277,39.0,0.0,120.0,3.0,0.0
3278,53.0,0.0,120.0,0.0,0.0
3279,41.0,120.0,120.0,3.0,0.0
3280,55.0,120.0,120.0,0.0,0.0
3281,43.0,0.0,120.0,3.0,0.0
3282,44.0,0.0,120.0,3.0,0.0
3283,56.0,120.0,120.0,0.0,0.0
3284,46.0,0.0,120.0,3.0,0.0
3285,58.0,120.0,120.0,0.0,0.0
3286,48.0,120.0,120.0,3.0,0.0
3287,60.0,0.0,120.0,0.0,0.0
3288,61.0,0.0,120.0,0.0,0.0
3289,49.0,120.0,120.0,3.0,0.0
3290,63.0,240.0,120.0,0.0,0.0
3291,48.0,0.0,120.0,3.0,0.0
3292,51.0,0.0,120.0,3.0,0.0
3293,44.0,0.0,120.0,3.0,0.0
3294,60.0,0.0,120.0,0.0,0.0
3295,44.0,0.0,120.0,3.0,0.0
3296,48.0,240.0,120.0,3.0,0.0
3297,51.0,0.0,120.0,3.0,0.0
3298,44.0,0.0,120.0,3.0,0.0
3299,51.0,0.0,120.0,3.0,0.0
3300,48.0,0.0,120.0,3.0,0.0
3301,68.0,240.0,120.0,0.0,0.0
3302,48.0,0.0,120.0,3.0,0.0
3303,63.0,0.0,120.0,0.0,0.0
3304,44.0,240.0,120.0,3.0,0.0
3305,51.0,0.0,120.0,3.0,0.0
3306,56.0,0.0,120.0,3.0,0.0
3307,44.0,0.0,120.0,3.0,0.0
3308,51.0,0.0,120.0,3.0,0.0
3309,48.0,240.0,120.0,3.0,0.0
3310,72.0,0.0,120.0,0.0,0.0
3311,68.0,0.0,120.0,0.0,0.0
3312,48.0,0.0,120.0,3.0,0.0
3313,51.0,0.0,120.0,3.0,0.0
3314,44.0,240.0,120.0,3.0,0.0
3315,56.0,0.0,120.0,3.0,0.0
3316,44.0,240.0,120.0,3.0,0.0
3317,51.0,0.0,120.0,3.0,0.0
3318,75.0,0.0,120.0,0.0,0.0
3319,48.0,0.0,120.0,3.0,0.0
3320,56.0,0.0,120.0,3.0,0.0
3321,48.0,0.0,120.0,3.0,0.0
3322,51.0,0.0,120.0,3.0,0.0
3323,56.0,0.0,120.0,3.0,0.0
3324,72.0,0.0,120.0,0.0,0.0
3325,44.0,720.0,120.0,3.0,0.0
3326,49.0,0.0,600.0,3.0,0.0
3327,53.0,0.0,600.0,3.0,0.0
3328,56.0,0.0,600.0,3.0,0.0
3329,77.0,0.0,600.0,0.0,0.0
3330,65.0,120.0,600.0,1.0,0.0
3331,56.0,120.0,120.0,0.0,0.0
3332,44.0,0.0,120.0,3.0,0.0
3333,58.0,0.0,120.0,0.0,0.0
3334,46.0,120.0,120.0,3.0,0.0
3335,60.0,120.0,120.0,0.0,0.0
3336,48.0,0.0,120.0,3.0,0.0
3337,49.0,120.0,120.0,3.0,0.0
3338,61.0,0.0,120.0,0.0,0.0
3339,44.0,0.0,120.0,3.0,0.0
3340,56.0,120.0,120.0,0.0,0.0
3341,46.0,120.0,120.0,3.0,0.0
3342,58.0,0.0,120.0,0.0,0.0
3343,60.0,120.0,120.0,0.0,0.0
3344,48.0,0.0,120.0,3.0,0.0
3345,49.0,120.0,120.0,3.0,0.0
3346,61.0,0.0,120.0,0.0,0.0
3347,63.0,0.0,120.0,0.0,0.0
3348,51.0,120.0,120.0,3.0,0.0
3349,65.0,0.0,120.0,0.0,0.0
3350,53.0,120.0,120.0,3.0,0.0
3351,66.0,0.0,120.0,0.0,0.0
3352,54.0,120.0,120.0,3.0,0.0
3353,49.0,0.0,120.0,3.0,0.0
3354,68.0,240.0,120.0,0.0,0.0
3355,53.0,0.0,120.0,3.0,0.0
3356,56.0,0.0,120.0,3.0,0.0
3357,61.0,0.0,120.0,3.0,0.0
3358,49.0,240.0,120.0,3.0,0.0
3359,56.0,0.0,120.0,3.0,0.0
3360,65.0,0.0,120.0,0.0,0.0
3361,53.0,0.0,120.0,3.0,0.0
3362,61.0,0.0,120.0,3.0,0.0
3363,49.0,0.0,120.0,3.0,0.0
3364,56.0,0.0,120.0,3.0,0.0
3365,73.0,0.0,120.0,0.0,0.0
3366,53.0,240.0,120.0,3.0,0.0
3367,53.0,240.0,120.0,3.0,0.0
3368,61.0,0.0,120.0,3.0,0.0
3369,49.0,0.0,120.0,3.0,0.0
3370,68.0,0.0,120.0,0.0,0.0
3371,56.0,0.0,120.0,3.0,0.0
3372,53.0,0.0,120.0,3.0,0.0
3373,77.0,0.0,120.0,0.0,0.0
3374,56.0,0.0,120.0,3.0,0.0
3375,61.0,240.0,120.0,3.0,0.0
3376,49.0,0.0,120.0,3.0,0.0
3377,61.0,240.0,120.0,3.0,0.0
3378,56.0,0.0,120.0,3.0,0.0
3379,73.0,0.0,120.0,0.0,0.0
3380,49.0,0.0,120.0,3.0,0.0
3381,53.0,0.0,120.0,3.0,0.0
3382,85.0,0.0,120.0,0.0,0.0
3383,51.0,240.0,120.0,3.0,0.0
3384,58.0,0.0,120.0,3.0,0.0
3385,55.0,0.0,120.0,3.0,0.0
3386,51.0,0.0,120.0,3.0,0.0
3387,58.0,720.0,120.0,3.0,0.0
3388,55.0,0.0,120.0,3.0,0.0
3389,79.0,0.0,120.0,0.0,0.0
3390,44.0,120.0,600.0,3.0,0.0
3391,80.0,0.0,600.0,0.0,0.0
3392,56.0,0.0,600.0,3.0,0.0
3393,68.0,0.0,600.0,1.0,0.0
3394,51.0,120.0,120.0,0.0,0.0
3395,39.0,0.0,120.0,3.0,0.0
3396,41.0,0.0,120.0,3.0,0.0
3397,53.0,120.0,120.0,0.0,0.0
3398,55.0,0.0,120.0,0.0,0.0
3399,43.0,120.0,120.0,3.0,0.0
3400,44.0,0.0,120.0,3.0,0.0
3401,56.0,120.0,120.0,0.0,0.0
3402,39.0,0.0,120.0,3.0,0.0
3403,51.0,120.0,120.0,0.0,0.0
3404,41.0,0.0,120.0,3.0,0.0
3405,53.0,120.0,120.0,0.0,0.0
3406,43.0,0.0,120.0,3.0,0.0
3407,55.0,120.0,120.0,0.0,0.0
3408,56.0,0.0,120.0,0.0,0.0
3409,44.0,120.0,120.0,3.0,0.0
3410,58.0,0.0,120.0,0.0,0.0
3411,46.0,120.0,120.0,3.0,0.0
3412,48.0,0.0,120.0,3.0,0.0
3413,60.0,120.0,120.0,0.0,0.0
3414,49.0,120.0,120.0,3.0,0.0
3415,61.0,0.0,120.0,0.0,0.0
3416,63.0,0.0,120.0,0.0,0.0
3417,44.0,120.0,120.0,3.0,0.0
3418,48.0,0.0,120.0,3.0,0.0
3419,51.0,0.0,120.0,3.0,0.0
3420,60.0,120.0,120.0,0.0,0.0
3421,56.0,120.0,120.0,0.0,0.0
3422,44.0,0.0,120.0,3.0,0.0
3423,51.0,0.0,120.0,3.0,0.0
3424,48.0,0.0,120.0,3.0,0.0
3425,63.0,120.0,120.0,0.0,0.0
3426,48.0,0.0,120.0,3.0,0.0
3427,68.0,120.0,120.0,0.0,0.0
3428,44.0,0.0,120.0,3.0,0.0
3429,51.0,0.0,120.0,3.0,0.0
3430,63.0,120.0,120.0,0.0,0.0
3431,51.0,0.0,120.0,3.0,0.0
3432,44.0,0.0,120.0,3.0,0.0
3433,48.0,120.0,120.0,3.0,0.0
3434,60.0,0.0,120.0,0.0,0.0
3435,68.0,120.0,120.0,0.0,0.0
3436,48.0,0.0,120.0,3.0,0.0
3437,56.0,120.0,120.0,3.0,0.0
3438,51.0,0.0,120.0,3.0,0.0
3439,72.0,0.0,120.0,0.0,0.0
3440,44.0,0.0,120.0,3.0,0.0
3441,68.0,120.0,120.0,0.0,0.0
3442,44.0,0.0,120.0,3.0,0.0
3443,56.0,120.0,120.0,3.0,0.0
3444,48.0,0.0,120.0,3.0,0.0
3445,51.0,0.0,120.0,3.0,0.0
3446,63.0,0.0,120.0,0.0,0.0
3447,72.0,120.0,120.0,0.0,0.0
3448,48.0,0.0,120.0,3.0,0.0
3449,56.0,0.0,120.0,3.0,0.0
3450,44.0,120.0,120.0,3.0,0.0
3451,51.0,0.0,120.0,3.0,0.0
3452,75.0,0.0,120.0,0.0,0.0
3453,72.0,120.0,120.0,0.0,0.0
3454,44.0,0.0,120.0,3.0,0.0
3455,48.0,0.0,120.0,3.0,0.0
3456,68.0,120.0,120.0,0.0,0.0
3457,56.0,0.0,120.0,3.0,0.0
3458,51.0,0.0,120.0,3.0,0.0
3459,75.0,600.0,120.0,0.0,0.0
3460,77.0,0.0,600.0,0.0,0.0
3461,49.0,120.0,600.0,3.0,0.0
3462,56.0,0.0,600.0,3.0,0.0
3463,53.0,0.0,600.0,3.0,0.0
3464,65.0,0.0,600.0,1.0,0.0
3465,73.0,0.0,600.0,1.0,0.0
3466,68.0,0.0,600.0,1.0,0.0
3467,44.0,120.0,120.0,3.0,0.0
3468,56.0,0.0,120.0,0.0,0.0
3469,46.0,0.0,120.0,3.0,0.0
3470,58.0,120.0,120.0,0.0,0.0
3471,48.0,0.0,120.0,3.0,0.0
3472,60.0,120.0,120.0,0.0,0.0
3473,61.0,120.0,120.0,0.0,0.0
3474,49.0,0.0,120.0,3.0,0.0
3475,56.0,0.0,120.0,0.0,0.0
3476,44.0,120.0,120.0,3.0,0.0
3477,46.0,0.0,120.0,3.0,0.0
3478,58.0,120.0,120.0,0.0,0.0
3479,48.0,120.0,120.0,3.0,0.0
3480,60.0,0.0,120.0,0.0,0.0
3481,61.0,0.0,120.0,0.0,0.0
3482,49.0,120.0,120.0,3.0,0.0
3483,51.0,120.0,120.0,3.0,0.0
3484,63.0,0.0,120.0,0.0,0.0
3485,65.0,120.0,120.0,0.0,0.0
3486,53.0,0.0,120.0,3.0,0.0
3487,66.0,120.0,120.0,0.0,0.0
3488,54.0,0.0,120.0,3.0,0.0
3489,53.0,0.0,120.0,3.0,0.0
3490,56.0,120.0,120.0,3.0,0.0
3491,49.0,0.0,120.0,3.0,0.0
3492,68.0,0.0,120.0,0.0,0.0
3493,65.0,120.0,120.0,0.0,0.0
3494,53.0,0.0,120.0,3.0,0.0
3495,61.0,0.0,120.0,0.0,0.0
3496,61.0,0.0,120.0,3.0,0.0
3497,49.0,120.0,120.0,3.0,0.0
3498,56.0,0.0,120.0,3.0,0.0
3499,65.0,120.0,120.0,0.0,0.0
3500,49.0,0.0,120.0,3.0,0.0
3501,73.0,0.0,120.0,0.0,0.0
3502,53.0,120.0,120.0,3.0,0.0
3503,56.0,0.0,120.0,3.0,0.0
3504,61.0,0.0,120.0,3.0,0.0
3505,68.0,120.0,120.0,0.0,0.0
3506,53.0,0.0,120.0,3.0,0.0
3507,65.0,0.0,120.0,0.0,0.0
3508,61.0,120.0,120.0,3.0,0.0
3509,49.0,0.0,120.0,3.0,0.0
3510,56.0,0.0,120.0,3.0,0.0
3511,73.0,120.0,120.0,0.0,0.0
3512,49.0,0.0,120.0,3.0,0.0
3513,53.0,0.0,120.0,3.0,0.0
3514,61.0,120.0,120.0,3.0,0.0
3515,56.0,0.0,120.0,3.0,0.0
3516,77.0,0.0,120.0,0.0,0.0
3517,73.0,120.0,120.0,0.0,0.0
3518,68.0,0.0,120.0,0.0,0.0
3519,56.0,0.0,120.0,3.0,0.0
3520,61.0,0.0,120.0,3.0,0.0
3521,49.0,120.0,120.0,3.0,0.0
3522,53.0,0.0,120.0,3.0,0.0
3523,77.0,120.0,120.0,0.0,0.0
3524,73.0,120.0,120.0,0.0,0.0
3525,58.0,0.0,120.0,3.0,0.0
3526,55.0,0.0,120.0,3.0,0.0
3527,51.0,0.0,120.0,3.0,0.0
3528,85.0,120.0,120.0,0.0,0.0
3529,55.0,0.0,120.0,3.0,0.0
3530,58.0,0.0,120.0,3.0,0.0
3531,51.0,0.0,120.0,3.0,0.0
3532,82.0,120.0,120.0,0.0,0.0
3533,79.0,240.0,120.0,0.0,0.0
3534,80.0,1040.0,240.0,0.0,0.0
3535,44.0,0.0,240.0,3.0,0.0
3536,56.0,0.0,240.0,3.0,0.0
3537,56.0,320.0,480.0,3.0,0.0
3538,72.0,120.0,360.0,0.0,0.0
3539,60.0,40.0,150.0,2.0,0.0
3540,73.0,0.0,120.0,0.0,0.0
3541,63.0,0.0,150.0,2.0,0.0
3542,72.0,0.0,120.0,0.0,0.0
3543,55.0,0.0,480.0,3.0,0.0
3544,58.0,40.0,150.0,2.0,0.0
3545,77.0,0.0,120.0,0.0,0.0
3546,63.0,0.0,150.0,2.0,0.0
3547,75.0,120.0,15.0,0.0,0.0
3548,56.0,0.0,480.0,3.0,0.0
3549,72.0,120.0,360.0,0.0,0.0
3550,60.0,40.0,150.0,2.0,0.0
3551,73.0,0.0,120.0,0.0,0.0
3552,63.0,0.0,150.0,2.0,0.0
3553,72.0,320.0,120.0,0.0,0.0
3554,55.0,320.0,480.0,3.0,0.0
3555,58.0,40.0,150.0,2.0,0.0
3556,77.0,0.0,120.0,0.0,0.0
3557,63.0,0.0,150.0,2.0,0.0
3558,75.0,120.0,15.0,0.0,0.0
3559,53.0,0.0,480.0,3.0,0.0
3560,56.0,40.0,150.0,2.0,0.0
3561,70.0,120.0,120.0,0.0,0.0
3562,60.0,320.0,150.0,2.0,0.0
3563,68.0,0.0,15.0,0.0,0.0
3564,52.0,20.0,450.0,3.0,0.0
3565,55.0,40.0,150.0,2.0,0.0
3566,73.0,0.0,120.0,0.0,0.0
3567,60.0,240.0,150.0,2.0,0.0
3568,72.0,100.0,15.0,0.0,0.0
3569,53.0,20.0,450.0,3.0,0.0
3570,68.0,80.0,240.0,0.0,0.0
3571,56.0,40.0,150.0,2.0,0.0
3572,70.0,100.0,120.0,0.0,0.0
3573,60.0,0.0,150.0,2.0,0.0
3574,68.0,240.0,120.0,0.0,0.0
3575,52.0,20.0,450.0,3.0,0.0
3576,72.0,80.0,240.0,0.0,0.0
3577,55.0,40.0,150.0,2.0,0.0
3578,73.0,100.0,120.0,0.0,0.0
3579,60.0,0.0,150.0,2.0,0.0
3580,72.0,240.0,120.0,0.0,0.0
3581,68.0,80.0,240.0,0.0,0.0
3582,53.0,20.0,450.0,3.0,0.0
3583,56.0,40.0,150.0,2.0,0.0
3584,70.0,100.0,120.0,0.0,0.0
3585,60.0,0.0,150.0,2.0,0.0
3586,68.0,240.0,120.0,0.0,0.0
3587,70.0,80.0,240.0,0.0,0.0
3588,50.0,20.0,450.0,3.0,0.0
3589,53.0,40.0,150.0,2.0,0.0
3590,72.0,100.0,120.0,0.0,0.0
3591,58.0,0.0,150.0,2.0,0.0
3592,70.0,240.0,120.0,0.0,0.0
3593,67.0,0.0,240.0,0.0,0.0
3594,51.0,10.0,480.0,3.0,0.0
3595,55.0,120.0,120.0,2.0,0.0
3596,68.0,110.0,120.0,0.0,0.0
3597,58.0,0.0,120.0,2.0,0.0
3598,55.0,240.0,120.0,2.0,0.0
3599,67.0,0.0,120.0,0.0,0.0
3600,50.0,10.0,480.0,3.0,0.0
3601,70.0,0.0,240.0,0.0,0.0
3602,53.0,120.0,120.0,2.0,0.0
3603,72.0,0.0,120.0,0.0,0.0
3604,58.0,110.0,120.0,2.0,0.0
3605,53.0,0.0,120.0,2.0,0.0
3606,70.0,240.0,120.0,0.0,0.0
3607,63.0,0.0,240.0,0.0,0.0
3608,48.0,10.0,480.0,3.0,0.0
3609,51.0,120.0,120.0,2.0,0.0
3610,55.0,0.0,120.0,2.0,0.0
3611,65.0,110.0,120.0,0.0,0.0
3612,63.0,0.0,120.0,0.0,0.0
3613,51.0,240.0,120.0,2.0,0.0
3614,67.0,240.0,480.0,0.0,0.0
3615,46.0,20.0,450.0,3.0,0.0
3616,50.0,120.0,120.0,2.0,0.0
3617,55.0,100.0,120.0,2.0,0.0
3618,50.0,0.0,120.0,2.0,0.0
3619,60.0,120.0,240.0,0.0,0.0
3620,44.0,30.0,450.0,3.0,0.0
3621,48.0,0.0,120.0,2.0,0.0
3622,62.0,90.0,120.0,0.0,0.0
3623,51.0,0.0,120.0,2.0,0.0
3624,48.0,0.0,120.0,2.0,0.0
3625,60.0,240.0,120.0,0.0,0.0
3626,63.0,0.0,240.0,0.0,0.0
3627,43.0,30.0,450.0,3.0,0.0
3628,46.0,120.0,120.0,2.0,0.0
3629,65.0,0.0,120.0,0.0,0.0
3630,51.0,90.0,120.0,2.0,0.0
3631,46.0,0.0,120.0,2.0,0.0
3632,63.0,240.0,120.0,0.0,0.0
3633,41.0,30.0,450.0,3.0,0.0
3634,65.0,120.0,240.0,0.0,0.0
3635,46.0,0.0,120.0,2.0,0.0
3636,50.0,90.0,120.0,2.0,0.0
3637,67.0,0.0,120.0,0.0,0.0
3638,46.0,0.0,120.0,2.0,0.0
3639,65.0,240.0,120.0,0.0,0.0
3640,67.0,0.0,480.0,0.0,0.0
3641,39.0,30.0,450.0,3.0,0.0
3642,46.0,120.0,120.0,2.0,0.0
3643,51.0,90.0,120.0,2.0,0.0
3644,46.0,240.0,120.0,2.0,0.0
3645,51.0,30.0,450.0,3.0,0.0
3646,67.0,0.0,240.0,0.0,0.0
3647,55.0,120.0,120.0,2.0,0.0
3648,68.0,90.0,120.0,0.0,0.0
3649,58.0,0.0,120.0,2.0,0.0
3650,55.0,240.0,120.0,2.0,0.0
3651,67.0,0.0,120.0,0.0,0.0
3652,50.0,30.0,450.0,3.0,0.0
3653,70.0,120.0,240.0,0.0,0.0
3654,53.0,0.0,120.0,2.0,0.0
3655,72.0,90.0,120.0,0.0,0.0
3656,58.0,0.0,120.0,2.0,0.0
3657,53.0,0.0,120.0,2.0,0.0
3658,70.0,240.0,120.0,0.0,0.0
3659,75.0,0.0,240.0,0.0,0.0
3660,48.0,30.0,450.0,3.0,0.0
3661,53.0,120.0,120.0,2.0,0.0
3662,77.0,0.0,120.0,0.0,0.0
3663,57.0,90.0,120.0,2.0,0.0
3664,75.0,0.0,120.0,0.0,0.0
3665,53.0,240.0,120.0,2.0,0.0
3666,46.0,30.0,450.0,3.0,0.0
3667,74.0,240.0,480.0,0.0,0.0
3668,53.0,120.0,120.0,2.0,0.0
3669,58.0,90.0,120.0,2.0,0.0
3670,53.0,0.0,120.0,2.0,0.0
3671,72.0,120.0,240.0,0.0,0.0
3672,51.0,0.0,480.0,3.0,0.0
3673,55.0,0.0,120.0,2.0,0.0
3674,74.0,0.0,120.0,0.0,0.0
3675,58.0,82.0,120.0,2.0,0.0
3676,72.0,38.0,90.0,0.0,0.0
3677,55.0,240.0,120.0,2.0,0.0
3678,70.0,0.0,60.0,0.0,0.0
3679,69.0,120.0,240.0,0.0,0.0
3680,53.0,0.0,480.0,3.0,0.0
3681,60.0,0.0,120.0,2.0,0.0
3682,67.0,120.0,120.0,0.0,0.0
3683,63.0,0.0,120.0,2.0,0.0
3684,60.0,0.0,120.0,2.0,0.0
3685,69.0,240.0,120.0,0.0,0.0
3686,46.0,0.0,240.0,3.0,0.0
3687,70.0,120.0,240.0,0.0,0.0
3688,50.0,0.0,120.0,3.0,0.0
3689,53.0,120.0,120.0,3.0,0.0
3690,58.0,120.0,120.0,3.0,0.0
3691,57.0,120.0,120.0,3.0,0.0
3692,58.0,120.0,120.0,3.0,0.0
3693,56.0,120.0,120.0,3.0,0.0
3694,53.0,240.0,120.0,3.0,0.0
3695,51.0,10.0,480.0,3.0,0.0
3696,58.0,120.0,120.0,2.0,0.0
3697,67.0,6.0,300.0,0.0,0.0
3698,55.0,104.0,120.0,2.0,0.0
3699,79.0,0.0,150.0,0.0,0.0
3700,58.0,240.0,120.0,2.0,0.0
3701,50.0,10.0,480.0,3.0,0.0
3702,58.0,120.0,120.0,2.0,0.0
3703,70.0,6.0,300.0,0.0,0.0
3704,53.0,104.0,120.0,2.0,0.0
3705,82.0,240.0,150.0,0.0,0.0
3706,58.0,0.0,120.0,2.0,0.0
3707,48.0,10.0,480.0,3.0,0.0
3708,55.0,120.0,120.0,2.0,0.0
3709,63.0,6.0,300.0,0.0,0.0
3710,51.0,104.0,120.0,2.0,0.0
3711,75.0,240.0,150.0,0.0,0.0
3712,55.0,0.0,120.0,2.0,0.0
3713,46.0,14.0,450.0,3.0,0.0
3714,55.0,120.0,120.0,2.0,0.0
3715,67.0,16.0,300.0,0.0,0.0
3716,51.0,90.0,120.0,2.0,0.0
3717,79.0,240.0,150.0,0.0,0.0
3718,55.0,0.0,120.0,2.0,0.0
3719,44.0,14.0,450.0,3.0,0.0
3720,51.0,120.0,120.0,2.0,0.0
3721,60.0,16.0,300.0,0.0,0.0
3722,48.0,90.0,120.0,2.0,0.0
3723,72.0,240.0,150.0,0.0,0.0
3724,51.0,0.0,120.0,2.0,0.0
3725,43.0,14.0,450.0,3.0,0.0
3726,51.0,120.0,120.0,2.0,0.0
3727,63.0,16.0,300.0,0.0,0.0
3728,46.0,90.0,120.0,2.0,0.0
3729,75.0,0.0,150.0,0.0,0.0
3730,51.0,240.0,120.0,2.0,0.0
3731,41.0,4.0,450.0,3.0,0.0
3732,50.0,120.0,120.0,2.0,0.0
3733,65.0,16.0,300.0,0.0,0.0
3734,46.0,100.0,120.0,2.0,0.0
3735,77.0,240.0,150.0,0.0,0.0
3736,50.0,0.0,120.0,2.0,0.0
3737,39.0,4.0,450.0,3.0,0.0
3738,51.0,120.0,120.0,2.0,0.0
3739,67.0,16.0,300.0,0.0,0.0
3740,46.0,100.0,120.0,2.0,0.0
3741,79.0,0.0,150.0,0.0,0.0
3742,51.0,240.0,120.0,2.0,0.0
3743,51.0,0.0,480.0,3.0,0.0
3744,58.0,120.0,120.0,2.0,0.0
3745,67.0,16.0,300.0,0.0,0.0
3746,55.0,104.0,120.0,2.0,0.0
3747,79.0,240.0,150.0,0.0,0.0
3748,58.0,0.0,120.0,2.0,0.0
3749,50.0,240.0,480.0,3.0,0.0
3750,58.0,120.0,120.0,2.0,0.0
3751,70.0,16.0,300.0,0.0,0.0
3752,53.0,104.0,120.0,2.0,0.0
3753,82.0,0.0,150.0,0.0,0.0
3754,58.0,0.0,120.0,2.0,0.0
3755,48.0,0.0,480.0,3.0,0.0
3756,57.0,120.0,120.0,2.0,0.0
3757,75.0,232.0,330.0,0.0,0.0
3758,51.0,120.0,120.0,2.0,0.0
3759,87.0,0.0,150.0,0.0,0.0
3760,57.0,8.0,120.0,2.0,0.0
3761,46.0,10.0,480.0,3.0,0.0
3762,58.0,120.0,120.0,2.0,0.0
3763,74.0,232.0,330.0,0.0,0.0
3764,53.0,110.0,120.0,2.0,0.0
3765,86.0,0.0,150.0,0.0,0.0
3766,58.0,8.0,120.0,2.0,0.0
3767,51.0,10.0,480.0,3.0,0.0
3768,60.0,120.0,120.0,2.0,0.0
3769,72.0,232.0,330.0,0.0,0.0
3770,55.0,110.0,120.0,2.0,0.0
3771,84.0,8.0,150.0,0.0,0.0
3772,60.0,0.0,120.0,2.0,0.0
3773,53.0,10.0,480.0,3.0,0.0
3774,63.0,120.0,120.0,2.0,0.0
3775,69.0,6.0,300.0,0.0,0.0
3776,60.0,104.0,120.0,2.0,0.0
3777,81.0,0.0,150.0,0.0,0.0
3778,63.0,240.0,120.0,2.0,0.0
3779,46.0,110.0,240.0,3.0,0.0
3780,50.0,10.0,120.0,3.0,0.0
3781,70.0,16.0,300.0,0.0,0.0
3782,53.0,104.0,120.0,3.0,0.0
3783,82.0,0.0,150.0,0.0,0.0
3784,58.0,120.0,120.0,3.0,0.0
3785,57.0,120.0,120.0,3.0,0.0
3786,58.0,120.0,120.0,3.0,0.0
3787,53.0,120.0,120.0,3.0,0.0
3788,50.0,240.0,120.0,3.0,0.0
3789,58.0,0.0,240.0,0.0,0.0
3790,46.0,120.0,240.0,3.0,0.0
3791,48.0,0.0,120.0,3.0,0.0
3792,60.0,120.0,120.0,0.0,0.0
3793,46.0,120.0,120.0,3.0,0.0
3794,58.0,0.0,120.0,0.0,0.0
3795,55.0,240.0,120.0,0.0,0.0
3796,43.0,0.0,120.0,3.0,0.0
3797,45.0,600.0,120.0,3.0,0.0
3798,57.0,0.0,120.0,0.0,0.0
3799,58.0,0.0,480.0,0.0,0.0
3800,46.0,360.0,480.0,3.0,0.0
3801,34.0,0.0,360.0,3.0,0.0
3802,46.0,120.0,360.0,0.0,0.0
3803,50.0,120.0,60.0,0.0,0.0
3804,38.0,0.0,60.0,3.0,0.0
3805,36.0,0.0,120.0,3.0,0.0
3806,48.0,240.0,120.0,0.0,0.0
3807,46.0,0.0,120.0,0.0,0.0
3808,34.0,240.0,120.0,3.0,0.0
3809,48.0,0.0,120.0,0.0,0.0
3810,36.0,240.0,120.0,3.0,0.0
3811,38.0,600.0,120.0,3.0,0.0
3812,50.0,0.0,120.0,0.0,0.0
3813,39.0,360.0,480.0,3.0,0.0
3814,51.0,0.0,480.0,0.0,0.0
3815,27.0,0.0,360.0,3.0,0.0
3816,39.0,360.0,360.0,0.0,0.0
3817,46.0,4.0,450.0,3.0,0.0
3818,53.0,120.0,120.0,2.0,0.0
3819,67.0,16.0,300.0,0.0,0.0
3820,50.0,100.0,120.0,2.0,0.0
3821,79.0,0.0,150.0,0.0,0.0
3822,53.0,240.0,120.0,2.0,0.0
3823,48.0,240.0,480.0,3.0,0.0
3824,53.0,120.0,120.0,2.0,0.0
3825,69.0,16.0,300.0,0.0,0.0
3826,51.0,104.0,120.0,2.0,0.0
3827,81.0,0.0,150.0,0.0,0.0
3828,53.0,0.0,120.0,2.0,0.0
3829,46.0,4.0,450.0,3.0,0.0
3830,53.0,120.0,120.0,2.0,0.0
3831,70.0,16.0,300.0,0.0,0.0
3832,50.0,100.0,120.0,2.0,0.0
3833,82.0,240.0,150.0,0.0,0.0
3834,53.0,0.0,120.0,2.0,0.0
3835,39.0,4.0,450.0,3.0,0.0
3836,51.0,120.0,120.0,2.0,0.0
3837,67.0,16.0,300.0,0.0,0.0
3838,49.0,100.0,120.0,2.0,0.0
3839,79.0,240.0,150.0,0.0,0.0
3840,51.0,0.0,120.0,2.0,0.0
3841,44.0,4.0,450.0,3.0,0.0
3842,53.0,120.0,120.0,2.0,0.0
3843,68.0,16.0,300.0,0.0,0.0
3844,48.0,100.0,120.0,2.0,0.0
3845,80.0,0.0,150.0,0.0,0.0
3846,53.0,240.0,120.0,2.0,0.0
3847,46.0,4.0,450.0,3.0,0.0
3848,56.0,120.0,120.0,2.0,0.0
3849,62.0,16.0,300.0,0.0,0.0
3850,53.0,100.0,120.0,2.0,0.0
3851,74.0,220.0,150.0,0.0,0.0
3852,56.0,0.0,120.0,2.0,0.0
3853,51.0,0.0,240.0,3.0,0.0
3854,55.0,20.0,210.0,2.0,0.0
3855,63.0,0.0,480.0,0.0,0.0
3856,75.0,0.0,480.0,0.0,0.0
3857,58.0,120.0,120.0,3.0,0.0
3858,56.0,120.0,120.0,3.0,0.0
3859,55.0,120.0,120.0,3.0,0.0
3860,53.0,120.0,120.0,3.0,0.0
3861,51.0,120.0,120.0,3.0,0.0
3862,50.0,120.0,120.0,3.0,0.0
3863,48.0,240.0,120.0,3.0,0.0
3864,58.0,120.0,240.0,0.0,0.0
3865,46.0,0.0,240.0,3.0,0.0
3866,60.0,0.0,120.0,0.0,0.0
3867,48.0,120.0,120.0,3.0,0.0
3868,58.0,0.0,120.0,0.0,0.0
3869,46.0,120.0,120.0,3.0,0.0
3870,43.0,0.0,120.0,3.0,0.0
3871,55.0,240.0,120.0,0.0,0.0
3872,45.0,0.0,120.0,3.0,0.0
3873,57.0,600.0,120.0,0.0,0.0
3874,58.0,0.0,480.0,0.0,0.0
3875,46.0,360.0,480.0,3.0,0.0
3876,46.0,0.0,360.0,0.0,0.0
3877,34.0,360.0,360.0,3.0,0.0
3878,70.0,120.0,240.0,3.0,0.0
3879,82.0,0.0,240.0,0.0,0.0
3880,74.0,0.0,120.0,2.0,0.0
3881,84.0,120.0,120.0,0.0,0.0
3882,70.0,0.0,240.0,3.0,0.0
3883,82.0,120.0,120.0,0.0,0.0
3884,74.0,0.0,120.0,2.0,0.0
3885,79.0,120.0,120.0,0.0,0.0
3886,75.0,120.0,120.0,2.0,0.0
3887,72.0,0.0,15.0,3.0,0.0
3888,81.0,120.0,120.0,0.0,0.0
3889,75.0,240.0,120.0,2.0,0.0
3890,74.0,0.0,240.0,2.0,0.0
3891,82.0,0.0,240.0,0.0,0.0
3892,70.0,720.0,240.0,3.0,0.0
3893,50.0,120.0,60.0,0.0,0.0
3894,38.0,0.0,60.0,3.0,0.0
3895,36.0,240.0,120.0,3.0,0.0
3896,48.0,0.0,120.0,0.0,0.0
3897,34.0,0.0,120.0,3.0,0.0
3898,46.0,240.0,120.0,0.0,0.0
3899,48.0,240.0,120.0,0.0,0.0
3900,36.0,0.0,120.0,3.0,0.0
3901,38.0,0.0,120.0,3.0,0.0
3902,50.0,600.0,120.0,0.0,0.0
3903,39.0,360.0,480.0,3.0,0.0
3904,51.0,0.0,480.0,0.0,0.0
3905,27.0,0.0,360.0,3.0,0.0
3906,39.0,120.0,360.0,0.0,0.0
3907,86.0,120.0,60.0,0.0,0.0
3908,84.0,110.0,120.0,0.0,0.0
3909,68.0,10.0,240.0,3.0,0.0
3910,72.0,120.0,120.0,2.0,0.0
3911,67.0,10.0,240.0,3.0,0.0
3912,82.0,110.0,120.0,0.0,0.0
3913,70.0,120.0,120.0,2.0,0.0
3914,68.0,10.0,240.0,3.0,0.0
3915,84.0,110.0,120.0,0.0,0.0
3916,72.0,120.0,120.0,2.0,0.0
3917,65.0,10.0,240.0,3.0,0.0
3918,86.0,110.0,120.0,0.0,0.0
3919,68.0,240.0,120.0,2.0,0.0
3920,87.0,0.0,240.0,0.0,0.0
3921,67.0,0.0,240.0,3.0,0.0
3922,70.0,720.0,240.0,2.0,0.0
3923,74.0,120.0,60.0,0.0,0.0
3924,72.0,110.0,120.0,0.0,0.0
3925,56.0,10.0,240.0,3.0,0.0
3926,60.0,120.0,120.0,2.0,0.0
3927,55.0,10.0,240.0,3.0,0.0
3928,70.0,110.0,120.0,0.0,0.0
3929,58.0,120.0,120.0,2.0,0.0
3930,56.0,10.0,240.0,3.0,0.0
3931,72.0,110.0,120.0,0.0,0.0
3932,60.0,120.0,120.0,2.0,0.0
3933,74.0,110.0,120.0,0.0,0.0
3934,53.0,10.0,240.0,3.0,0.0
3935,56.0,230.0,120.0,2.0,0.0
3936,55.0,10.0,240.0,3.0,0.0
3937,75.0,0.0,240.0,0.0,0.0
3938,58.0,230.0,120.0,2.0,0.0
3939,55.0,10.0,240.0,3.0,0.0
3940,58.0,230.0,120.0,2.0,0.0
3941,70.0,120.0,240.0,0.0,0.0
3942,51.0,10.0,240.0,3.0,0.0
3943,61.0,0.0,120.0,2.0,0.0
3944,51.0,10.0,240.0,3.0,0.0
3945,72.0,110.0,120.0,0.0,0.0
3946,61.0,0.0,120.0,2.0,0.0
3947,70.0,220.0,120.0,0.0,0.0
3948,68.0,0.0,240.0,0.0,0.0
3949,56.0,20.0,210.0,3.0,0.0
3950,60.0,120.0,120.0,2.0,0.0
3951,70.0,100.0,120.0,0.0,0.0
3952,56.0,20.0,210.0,3.0,0.0
3953,60.0,220.0,120.0,2.0,0.0
3954,68.0,0.0,120.0,0.0,0.0
3955,65.0,120.0,240.0,0.0,0.0
3956,58.0,20.0,210.0,3.0,0.0
3957,62.0,0.0,120.0,2.0,0.0
3958,58.0,20.0,210.0,3.0,0.0
3959,67.0,100.0,120.0,0.0,0.0
3960,62.0,0.0,120.0,2.0,0.0
3961,65.0,220.0,120.0,0.0,0.0
3962,67.0,120.0,240.0,0.0,0.0
3963,51.0,20.0,210.0,3.0,0.0
3964,63.0,0.0,120.0,2.0,0.0
3965,51.0,20.0,210.0,3.0,0.0
3966,68.0,100.0,120.0,0.0,0.0
3967,63.0,0.0,120.0,2.0,0.0
3968,67.0,220.0,120.0,0.0,0.0
3969,55.0,20.0,210.0,3.0,0.0
3970,70.0,0.0,240.0,0.0,0.0
3971,61.0,120.0,120.0,2.0,0.0
3972,55.0,20.0,210.0,3.0,0.0
3973,72.0,100.0,120.0,0.0,0.0
3974,61.0,0.0,120.0,2.0,0.0
3975,70.0,220.0,120.0,0.0,0.0
3976,68.0,120.0,240.0,0.0,0.0
3977,56.0,20.0,210.0,3.0,0.0
3978,60.0,0.0,120.0,2.0,0.0
3979,56.0,20.0,210.0,3.0,0.0
3980,70.0,100.0,120.0,0.0,0.0
3981,60.0,220.0,120.0,2.0,0.0
3982,68.0,0.0,120.0,0.0,0.0
3983,65.0,120.0,240.0,0.0,0.0
3984,58.0,20.0,210.0,3.0,0.0
3985,62.0,0.0,120.0,2.0,0.0
3986,58.0,20.0,210.0,3.0,0.0
3987,67.0,100.0,120.0,0.0,0.0
3988,62.0,0.0,120.0,2.0,0.0
3989,65.0,220.0,120.0,0.0,0.0
3990,51.0,20.0,210.0,3.0,0.0
3991,67.0,0.0,240.0,0.0,0.0
3992,63.0,220.0,120.0,2.0,0.0
3993,51.0,20.0,210.0,3.0,0.0
3994,63.0,220.0,120.0,2.0,0.0
3995,55.0,20.0,210.0,3.0,0.0
3996,61.0,220.0,120.0,2.0,0.0
3997,70.0,16.0,300.0,0.0,0.0
3998,55.0,4.0,210.0,3.0,0.0
3999,82.0,220.0,150.0,0.0,0.0
4000,61.0,0.0,120.0,2.0,0.0
4001,56.0,20.0,210.0,3.0,0.0
4002,60.0,220.0,120.0,2.0,0.0
4003,68.0,16.0,300.0,0.0,0.0
4004,56.0,4.0,210.0,3.0,0.0
4005,80.0,0.0,150.0,0.0,0.0
4006,60.0,220.0,120.0,2.0,0.0
4007,58.0,20.0,210.0,3.0,0.0
4008,62.0,220.0,120.0,2.0,0.0
4009,65.0,16.0,300.0,0.0,0.0
4010,58.0,4.0,210.0,3.0,0.0
4011,77.0,220.0,150.0,0.0,0.0
4012,62.0,0.0,120.0,2.0,0.0
4013,51.0,20.0,210.0,3.0,0.0
4014,63.0,220.0,120.0,2.0,0.0
4015,67.0,16.0,300.0,0.0,0.0
4016,51.0,4.0,210.0,3.0,0.0
4017,79.0,0.0,150.0,0.0,0.0
4018,63.0,220.0,120.0,2.0,0.0
4019,55.0,20.0,210.0,3.0,0.0
4020,61.0,220.0,120.0,2.0,0.0
4021,70.0,16.0,300.0,0.0,0.0
4022,55.0,4.0,210.0,3.0,0.0
4023,82.0,220.0,150.0,0.0,0.0
4024,61.0,0.0,120.0,2.0,0.0
4025,56.0,20.0,210.0,3.0,0.0
4026,60.0,220.0,120.0,2.0,0.0
4027,68.0,16.0,300.0,0.0,0.0
4028,56.0,4.0,210.0,3.0,0.0
4029,80.0,230.0,150.0,0.0,0.0
4030,60.0,0.0,120.0,2.0,0.0
4031,58.0,10.0,240.0,3.0,0.0
4032,62.0,224.0,120.0,2.0,0.0
4033,65.0,6.0,300.0,0.0,0.0
4034,58.0,10.0,240.0,3.0,0.0
4035,77.0,240.0,150.0,0.0,0.0
4036,62.0,0.0,120.0,2.0,0.0
4037,67.0,120.0,240.0,0.0,0.0
4038,51.0,10.0,480.0,3.0,0.0
4039,55.0,0.0,120.0,2.0,0.0
4040,58.0,0.0,120.0,2.0,0.0
4041,68.0,110.0,120.0,0.0,0.0
4042,63.0,0.0,120.0,2.0,0.0
4043,67.0,240.0,120.0,0.0,0.0
4044,51.0,10.0,480.0,3.0,0.0
4045,70.0,120.0,240.0,0.0,0.0
4046,55.0,0.0,120.0,2.0,0.0
4047,72.0,0.0,120.0,0.0,0.0
4048,58.0,110.0,120.0,2.0,0.0
4049,63.0,240.0,120.0,2.0,0.0
4050,70.0,0.0,120.0,0.0,0.0
4051,67.0,0.0,240.0,0.0,0.0
4052,51.0,10.0,480.0,3.0,0.0
4053,55.0,120.0,120.0,2.0,0.0
4054,68.0,110.0,120.0,0.0,0.0
4055,58.0,0.0,120.0,2.0,0.0
4056,63.0,240.0,120.0,2.0,0.0
4057,67.0,0.0,120.0,0.0,0.0
4058,75.0,0.0,240.0,0.0,0.0
4059,51.0,10.0,480.0,3.0,0.0
4060,55.0,120.0,120.0,2.0,0.0
4061,58.0,110.0,120.0,2.0,0.0
4062,77.0,0.0,120.0,0.0,0.0
4063,63.0,240.0,120.0,2.0,0.0
4064,75.0,0.0,120.0,0.0,0.0
4065,51.0,10.0,480.0,3.0,0.0
4066,70.0,120.0,240.0,0.0,0.0
4067,55.0,0.0,120.0,2.0,0.0
4068,72.0,110.0,120.0,0.0,0.0
4069,58.0,0.0,120.0,2.0,0.0
4070,63.0,240.0,120.0,2.0,0.0
4071,70.0,0.0,120.0,0.0,0.0
4072,51.0,10.0,480.0,3.0,0.0
4073,79.0,0.0,240.0,0.0,0.0
4074,55.0,120.0,120.0,2.0,0.0
4075,80.0,0.0,120.0,0.0,0.0
4076,58.0,110.0,120.0,2.0,0.0
4077,79.0,240.0,120.0,0.0,0.0
4078,63.0,0.0,120.0,2.0,0.0
4079,51.0,10.0,480.0,3.0,0.0
4080,75.0,0.0,240.0,0.0,0.0
4081,55.0,120.0,120.0,2.0,0.0
4082,58.0,110.0,120.0,2.0,0.0
4083,63.0,240.0,120.0,2.0,0.0
4084,46.0,10.0,480.0,3.0,0.0
4085,70.0,0.0,240.0,1.0,0.0
4086,74.0,0.0,240.0,1.0,0.0
4087,77.0,120.0,240.0,1.0,0.0
4088,82.0,0.0,240.0,0.0,0.0
4089,50.0,0.0,120.0,2.0,0.0
4090,53.0,110.0,120.0,2.0,0.0
4091,58.0,240.0,120.0,2.0,0.0
4092,79.0,0.0,240.0,0.0,0.0
4093,39.0,0.0,240.0,3.0,0.0
4094,75.0,0.0,240.0,1.0,0.0
4095,67.0,0.0,240.0,1.0,0.0
