,note,step,duration,channel,velocity
0,78.0,1.0,240.0,0.0,0.0
1,84.0,0.0,240.0,0.0,0.0
2,56.0,0.0,300.0,4.0,0.0
3,66.0,1.0,240.0,1.0,0.0
4,72.0,0.0,240.0,1.0,0.0
5,66.0,2.0,120.0,10.0,0.0
6,63.0,5.0,240.0,2.0,0.0
7,66.0,0.0,240.0,2.0,0.0
8,72.0,1.0,120.0,10.0,0.0
9,44.0,4.0,300.0,5.0,0.0
10,63.0,0.0,120.0,10.0,0.0
11,56.0,2.0,120.0,12.0,0.0
12,60.0,0.0,120.0,11.0,0.0
13,56.0,1.0,120.0,13.0,0.0
14,44.0,0.0,240.0,3.0,0.0
15,51.0,3.0,120.0,11.0,0.0
16,56.0,63.0,240.0,3.0,0.0
17,44.0,100.0,120.0,14.0,0.0
18,61.0,2.0,120.0,10.0,0.0
19,85.0,0.0,60.0,0.0,0.0
20,77.0,1.0,60.0,0.0,0.0
21,73.0,1.0,60.0,1.0,0.0
22,65.0,0.0,60.0,1.0,0.0
23,65.0,1.0,120.0,10.0,0.0
24,65.0,1.0,60.0,2.0,0.0
25,61.0,0.0,60.0,2.0,0.0
26,53.0,1.0,120.0,11.0,0.0
27,73.0,1.0,120.0,10.0,0.0
28,49.0,2.0,120.0,12.0,0.0
29,49.0,0.0,120.0,13.0,0.0
30,61.0,4.0,120.0,11.0,0.0
31,49.0,52.0,60.0,3.0,0.0
32,37.0,0.0,60.0,3.0,0.0
33,37.0,229.0,120.0,14.0,0.0
34,51.0,2.0,120.0,10.0,0.0
35,73.0,1.0,240.0,0.0,0.0
36,79.0,0.0,240.0,0.0,0.0
37,61.0,1.0,120.0,10.0,0.0
38,58.0,0.0,240.0,4.0,0.0
39,73.0,1.0,240.0,1.0,0.0
40,67.0,0.0,240.0,1.0,0.0
41,61.0,0.0,240.0,2.0,0.0
42,51.0,1.0,120.0,11.0,0.0
43,58.0,1.0,240.0,2.0,0.0
44,67.0,1.0,120.0,10.0,0.0
45,51.0,4.0,240.0,5.0,0.0
46,61.0,0.0,120.0,11.0,0.0
47,51.0,2.0,120.0,12.0,0.0
48,67.0,0.0,120.0,11.0,0.0
49,51.0,4.0,120.0,13.0,0.0
50,39.0,63.0,240.0,3.0,0.0
51,51.0,0.0,240.0,3.0,0.0
52,39.0,100.0,120.0,14.0,0.0
53,53.0,2.0,120.0,10.0,0.0
54,80.0,1.0,60.0,0.0,0.0
55,72.0,0.0,60.0,0.0,0.0
56,60.0,1.0,120.0,10.0,0.0
57,72.0,0.0,60.0,1.0,0.0
58,68.0,0.0,60.0,1.0,0.0
59,56.0,1.0,60.0,4.0,0.0
60,56.0,0.0,60.0,2.0,0.0
61,60.0,1.0,60.0,2.0,0.0
62,53.0,1.0,120.0,11.0,0.0
63,44.0,4.0,60.0,5.0,0.0
64,68.0,1.0,120.0,10.0,0.0
65,60.0,2.0,120.0,11.0,0.0
66,53.0,0.0,120.0,12.0,0.0
67,68.0,0.0,120.0,11.0,0.0
68,53.0,4.0,120.0,13.0,0.0
69,41.0,52.0,60.0,3.0,0.0
70,53.0,0.0,60.0,3.0,0.0
71,41.0,229.0,120.0,14.0,0.0
72,58.0,2.0,120.0,10.0,0.0
73,86.0,0.0,240.0,0.0,0.0
74,80.0,1.0,240.0,0.0,0.0
75,58.0,0.0,240.0,4.0,0.0
76,74.0,1.0,240.0,1.0,0.0
77,68.0,0.0,240.0,1.0,0.0
78,68.0,1.0,120.0,10.0,0.0
79,68.0,0.0,240.0,2.0,0.0
80,65.0,1.0,240.0,2.0,0.0
81,58.0,1.0,120.0,11.0,0.0
82,58.0,4.0,240.0,5.0,0.0
83,74.0,1.0,120.0,10.0,0.0
84,68.0,2.0,120.0,11.0,0.0
85,46.0,0.0,120.0,12.0,0.0
86,46.0,4.0,120.0,13.0,0.0
87,46.0,102.0,240.0,3.0,0.0
88,58.0,0.0,240.0,3.0,0.0
89,34.0,100.0,120.0,14.0,0.0
90,86.0,0.0,90.0,0.0,0.0
91,80.0,1.0,90.0,0.0,0.0
92,74.0,0.0,90.0,1.0,0.0
93,68.0,0.0,90.0,1.0,0.0
94,58.0,1.0,90.0,4.0,0.0
95,68.0,1.0,120.0,10.0,0.0
96,58.0,1.0,120.0,11.0,0.0
97,68.0,1.0,90.0,2.0,0.0
98,65.0,0.0,90.0,2.0,0.0
99,58.0,4.0,90.0,5.0,0.0
100,58.0,0.0,120.0,12.0,0.0
101,46.0,4.0,120.0,13.0,0.0
102,46.0,13.0,90.0,3.0,0.0
103,58.0,0.0,90.0,3.0,0.0
104,34.0,89.0,120.0,14.0,0.0
105,58.0,2.0,15.0,10.0,0.0
106,86.0,1.0,90.0,0.0,0.0
107,80.0,0.0,90.0,0.0,0.0
108,68.0,0.0,90.0,1.0,0.0
109,74.0,0.0,90.0,1.0,0.0
110,58.0,1.0,90.0,4.0,0.0
111,68.0,1.0,120.0,10.0,0.0
112,58.0,1.0,120.0,11.0,0.0
113,68.0,0.0,90.0,2.0,0.0
114,65.0,1.0,90.0,2.0,0.0
115,58.0,4.0,90.0,5.0,0.0
116,74.0,1.0,15.0,10.0,0.0
117,58.0,0.0,120.0,12.0,0.0
118,68.0,2.0,15.0,11.0,0.0
119,46.0,4.0,120.0,13.0,0.0
120,58.0,13.0,90.0,3.0,0.0
121,46.0,0.0,90.0,3.0,0.0
122,34.0,109.0,120.0,14.0,0.0
123,75.0,65.0,180.0,10.0,0.0
124,58.0,1.0,120.0,10.0,0.0
125,67.0,0.0,120.0,10.0,0.0
126,51.0,0.0,120.0,10.0,0.0
127,79.0,0.0,120.0,0.0,0.0
128,87.0,1.0,120.0,0.0,0.0
129,58.0,0.0,120.0,4.0,0.0
130,75.0,0.0,120.0,1.0,0.0
131,63.0,0.0,120.0,6.0,0.0
132,51.0,0.0,120.0,6.0,0.0
133,67.0,1.0,120.0,1.0,0.0
134,67.0,0.0,120.0,2.0,0.0
135,67.0,1.0,120.0,11.0,0.0
136,58.0,0.0,120.0,11.0,0.0
137,51.0,0.0,120.0,11.0,0.0
138,63.0,0.0,120.0,2.0,0.0
139,51.0,1.0,120.0,5.0,0.0
140,51.0,2.0,120.0,12.0,0.0
141,39.0,1.0,120.0,15.0,0.0
142,39.0,0.0,120.0,13.0,0.0
143,51.0,3.0,120.0,3.0,0.0
144,39.0,0.0,120.0,3.0,0.0
145,27.0,44.0,120.0,14.0,0.0
146,76.0,3.0,60.0,10.0,0.0
147,64.0,57.0,60.0,11.0,0.0
148,77.0,3.0,60.0,10.0,0.0
149,65.0,57.0,60.0,11.0,0.0
150,73.0,3.0,60.0,10.0,0.0
151,61.0,57.0,60.0,11.0,0.0
152,70.0,3.0,60.0,10.0,0.0
153,58.0,52.0,60.0,11.0,0.0
154,68.0,3.0,60.0,10.0,0.0
155,56.0,65.0,60.0,11.0,0.0
156,67.0,3.0,90.0,10.0,0.0
157,75.0,1.0,630.0,1.0,0.0
158,63.0,1.0,600.0,4.0,0.0
159,55.0,12.0,90.0,11.0,0.0
160,63.0,29.0,630.0,2.0,0.0
161,51.0,1.0,600.0,5.0,0.0
162,61.0,2.0,120.0,12.0,0.0
163,39.0,4.0,60.0,13.0,0.0
164,39.0,4.0,60.0,3.0,0.0
165,27.0,19.0,60.0,14.0,0.0
166,51.0,4.0,60.0,13.0,0.0
167,51.0,2.0,60.0,3.0,0.0
168,70.0,3.0,15.0,10.0,0.0
169,58.0,2.0,15.0,11.0,0.0
170,68.0,3.0,15.0,10.0,0.0
171,56.0,10.0,15.0,11.0,0.0
172,67.0,3.0,150.0,10.0,0.0
173,73.0,2.0,120.0,0.0,0.0
174,55.0,32.0,150.0,11.0,0.0
175,58.0,2.0,240.0,12.0,0.0
176,51.0,4.0,60.0,3.0,0.0
177,61.0,3.0,120.0,3.0,0.0
178,39.0,52.0,15.0,14.0,0.0
179,51.0,4.0,15.0,13.0,0.0
180,51.0,4.0,60.0,3.0,0.0
181,39.0,50.0,15.0,14.0,0.0
182,70.0,2.0,120.0,0.0,0.0
183,49.0,0.0,60.0,3.0,0.0
184,58.0,3.0,120.0,3.0,0.0
185,37.0,19.0,60.0,14.0,0.0
186,68.0,3.0,30.0,10.0,0.0
187,56.0,4.0,30.0,11.0,0.0
188,70.0,3.0,30.0,10.0,0.0
189,58.0,27.0,30.0,11.0,0.0
190,49.0,4.0,15.0,13.0,0.0
191,49.0,2.0,60.0,3.0,0.0
192,72.0,1.0,30.0,10.0,0.0
193,60.0,0.0,30.0,11.0,0.0
194,73.0,3.0,30.0,10.0,0.0
195,67.0,2.0,120.0,0.0,0.0
196,61.0,27.0,30.0,11.0,0.0
197,51.0,2.0,120.0,12.0,0.0
198,55.0,3.0,120.0,3.0,0.0
199,49.0,4.0,60.0,3.0,0.0
200,37.0,19.0,15.0,14.0,0.0
201,70.0,3.0,30.0,10.0,0.0
202,58.0,0.0,30.0,11.0,0.0
203,68.0,3.0,30.0,10.0,0.0
204,56.0,22.0,30.0,11.0,0.0
205,49.0,4.0,15.0,13.0,0.0
206,49.0,2.0,60.0,3.0,0.0
207,37.0,19.0,15.0,14.0,0.0
208,67.0,3.0,30.0,10.0,0.0
209,55.0,3.0,30.0,11.0,0.0
210,70.0,3.0,90.0,10.0,0.0
211,58.0,22.0,90.0,11.0,0.0
212,63.0,2.0,120.0,12.0,0.0
213,48.0,4.0,60.0,13.0,0.0
214,48.0,4.0,60.0,3.0,0.0
215,48.0,1.0,60.0,3.0,0.0
216,36.0,19.0,15.0,14.0,0.0
217,68.0,3.0,30.0,10.0,0.0
218,56.0,4.0,30.0,11.0,0.0
219,68.0,3.0,150.0,10.0,0.0
220,75.0,1.0,120.0,0.0,0.0
221,63.0,1.0,120.0,4.0,0.0
222,56.0,24.0,150.0,11.0,0.0
223,51.0,1.0,120.0,5.0,0.0
224,60.0,2.0,120.0,12.0,0.0
225,48.0,4.0,15.0,13.0,0.0
226,48.0,4.0,60.0,3.0,0.0
227,63.0,3.0,120.0,3.0,0.0
228,36.0,21.0,15.0,14.0,0.0
229,74.0,1.0,30.0,1.0,0.0
230,62.0,0.0,30.0,2.0,0.0
231,75.0,1.0,30.0,1.0,0.0
232,63.0,24.0,30.0,2.0,0.0
233,48.0,1.0,60.0,13.0,0.0
234,48.0,1.0,60.0,3.0,0.0
235,36.0,14.0,60.0,14.0,0.0
236,74.0,1.0,30.0,1.0,0.0
237,62.0,3.0,30.0,2.0,0.0
238,72.0,1.0,120.0,0.0,0.0
239,75.0,1.0,60.0,1.0,0.0
240,60.0,1.0,120.0,4.0,0.0
241,63.0,7.0,60.0,2.0,0.0
242,48.0,1.0,120.0,5.0,0.0
243,56.0,2.0,120.0,12.0,0.0
244,60.0,3.0,120.0,3.0,0.0
245,48.0,0.0,60.0,3.0,0.0
246,67.0,3.0,30.0,10.0,0.0
247,55.0,4.0,30.0,11.0,0.0
248,68.0,3.0,30.0,10.0,0.0
249,75.0,1.0,60.0,1.0,0.0
250,63.0,7.0,60.0,2.0,0.0
251,56.0,19.0,30.0,11.0,0.0
252,48.0,4.0,15.0,13.0,0.0
253,48.0,0.0,60.0,3.0,0.0
254,36.0,19.0,15.0,14.0,0.0
255,67.0,1.0,30.0,10.0,0.0
256,55.0,1.0,30.0,11.0,0.0
257,68.0,3.0,30.0,10.0,0.0
258,68.0,1.0,120.0,0.0,0.0
259,75.0,1.0,60.0,1.0,0.0
260,56.0,1.0,120.0,4.0,0.0
261,63.0,7.0,60.0,2.0,0.0
262,56.0,19.0,30.0,11.0,0.0
263,44.0,1.0,120.0,5.0,0.0
264,48.0,4.0,60.0,13.0,0.0
265,48.0,4.0,60.0,3.0,0.0
266,56.0,3.0,120.0,3.0,0.0
267,36.0,19.0,15.0,14.0,0.0
268,67.0,3.0,30.0,10.0,0.0
269,55.0,0.0,30.0,11.0,0.0
270,68.0,3.0,30.0,10.0,0.0
271,75.0,1.0,60.0,1.0,0.0
272,63.0,2.0,60.0,2.0,0.0
273,56.0,19.0,30.0,11.0,0.0
274,48.0,1.0,60.0,13.0,0.0
275,48.0,1.0,60.0,3.0,0.0
276,36.0,52.0,60.0,14.0,0.0
277,69.0,3.0,30.0,10.0,0.0
278,57.0,3.0,30.0,11.0,0.0
279,70.0,3.0,90.0,10.0,0.0
280,70.0,4.0,270.0,0.0,0.0
281,75.0,1.0,360.0,1.0,0.0
282,58.0,12.0,90.0,11.0,0.0
283,63.0,2.0,360.0,2.0,0.0
284,39.0,1.0,300.0,5.0,0.0
285,51.0,2.0,15.0,12.0,0.0
286,43.0,4.0,60.0,13.0,0.0
287,43.0,4.0,60.0,3.0,0.0
288,61.0,22.0,270.0,3.0,0.0
289,31.0,19.0,60.0,14.0,0.0
290,55.0,2.0,60.0,3.0,0.0
291,43.0,52.0,60.0,14.0,0.0
292,73.0,3.0,15.0,10.0,0.0
293,61.0,9.0,15.0,11.0,0.0
294,72.0,3.0,15.0,10.0,0.0
295,60.0,3.0,15.0,11.0,0.0
296,70.0,3.0,150.0,10.0,0.0
297,58.0,1.0,150.0,11.0,0.0
298,61.0,3.0,150.0,12.0,0.0
299,55.0,4.0,15.0,13.0,0.0
300,55.0,4.0,60.0,3.0,0.0
301,43.0,52.0,60.0,14.0,0.0
302,55.0,4.0,60.0,13.0,0.0
303,55.0,4.0,60.0,3.0,0.0
304,55.0,1.0,60.0,13.0,0.0
305,55.0,3.0,240.0,3.0,0.0
306,43.0,16.0,15.0,14.0,0.0
307,69.0,1.0,30.0,10.0,0.0
308,69.0,1.0,30.0,0.0,0.0
309,57.0,1.0,30.0,11.0,0.0
310,60.0,2.0,30.0,12.0,0.0
311,60.0,3.0,30.0,3.0,0.0
312,70.0,1.0,30.0,10.0,0.0
313,70.0,2.0,30.0,0.0,0.0
314,51.0,1.0,15.0,4.0,0.0
315,58.0,2.0,30.0,11.0,0.0
316,39.0,1.0,60.0,5.0,0.0
317,61.0,3.0,30.0,12.0,0.0
318,55.0,1.0,60.0,13.0,0.0
319,61.0,19.0,30.0,3.0,0.0
320,43.0,19.0,60.0,14.0,0.0
321,72.0,1.0,30.0,10.0,0.0
322,72.0,1.0,30.0,0.0,0.0
323,60.0,0.0,30.0,11.0,0.0
324,57.0,2.0,30.0,12.0,0.0
325,57.0,3.0,30.0,3.0,0.0
326,73.0,1.0,30.0,10.0,0.0
327,70.0,0.0,30.0,0.0,0.0
328,73.0,1.0,30.0,0.0,0.0
329,51.0,2.0,60.0,4.0,0.0
330,73.0,0.0,30.0,1.0,0.0
331,70.0,1.0,30.0,1.0,0.0
332,58.0,0.0,30.0,2.0,0.0
333,61.0,2.0,30.0,2.0,0.0
334,61.0,0.0,30.0,11.0,0.0
335,39.0,1.0,60.0,5.0,0.0
336,58.0,3.0,30.0,12.0,0.0
337,58.0,19.0,30.0,3.0,0.0
338,39.0,19.0,60.0,14.0,0.0
339,75.0,1.0,30.0,10.0,0.0
340,75.0,1.0,30.0,0.0,0.0
341,72.0,0.0,30.0,0.0,0.0
342,75.0,0.0,30.0,1.0,0.0
343,72.0,1.0,30.0,1.0,0.0
344,63.0,0.0,30.0,11.0,0.0
345,63.0,2.0,30.0,2.0,0.0
346,60.0,0.0,30.0,2.0,0.0
347,60.0,2.0,30.0,12.0,0.0
348,60.0,3.0,30.0,3.0,0.0
349,77.0,1.0,30.0,10.0,0.0
350,77.0,1.0,30.0,0.0,0.0
351,77.0,1.0,30.0,1.0,0.0
352,51.0,0.0,60.0,4.0,0.0
353,73.0,0.0,30.0,1.0,0.0
354,65.0,2.0,30.0,11.0,0.0
355,65.0,0.0,30.0,2.0,0.0
356,39.0,1.0,60.0,5.0,0.0
357,61.0,3.0,30.0,12.0,0.0
358,51.0,1.0,15.0,13.0,0.0
359,61.0,18.0,30.0,3.0,0.0
360,39.0,93.0,60.0,14.0,0.0
361,73.0,0.0,30.0,10.0,0.0
362,70.0,0.0,30.0,0.0,0.0
363,73.0,0.0,15.0,0.0,0.0
364,73.0,1.0,30.0,1.0,0.0
365,70.0,0.0,30.0,1.0,0.0
366,58.0,1.0,30.0,2.0,0.0
367,61.0,0.0,15.0,2.0,0.0
368,61.0,3.0,30.0,11.0,0.0
369,58.0,2.0,30.0,12.0,0.0
370,58.0,2.0,30.0,3.0,0.0
371,72.0,3.0,90.0,10.0,0.0
372,72.0,0.0,120.0,0.0,0.0
373,68.0,1.0,120.0,0.0,0.0
374,68.0,0.0,120.0,1.0,0.0
375,56.0,1.0,120.0,4.0,0.0
376,72.0,0.0,120.0,1.0,0.0
377,51.0,0.0,90.0,11.0,0.0
378,60.0,0.0,120.0,2.0,0.0
379,56.0,1.0,120.0,2.0,0.0
380,60.0,1.0,90.0,11.0,0.0
381,44.0,0.0,120.0,5.0,0.0
382,56.0,0.0,90.0,12.0,0.0
383,44.0,4.0,90.0,13.0,0.0
384,56.0,0.0,120.0,3.0,0.0
385,32.0,120.0,90.0,14.0,0.0
386,84.0,0.0,120.0,0.0,0.0
387,87.0,1.0,120.0,0.0,0.0
388,63.0,0.0,120.0,4.0,0.0
389,56.0,0.0,120.0,6.0,0.0
390,68.0,0.0,120.0,6.0,0.0
391,72.0,0.0,120.0,1.0,0.0
392,75.0,1.0,120.0,1.0,0.0
393,63.0,1.0,120.0,2.0,0.0
394,72.0,0.0,120.0,2.0,0.0
395,60.0,1.0,120.0,5.0,0.0
396,44.0,3.0,120.0,15.0,0.0
397,56.0,0.0,120.0,3.0,0.0
398,44.0,112.0,120.0,3.0,0.0
399,61.0,0.0,120.0,10.0,0.0
400,53.0,3.0,120.0,10.0,0.0
401,70.0,0.0,120.0,10.0,0.0
402,70.0,0.0,120.0,11.0,0.0
403,61.0,0.0,120.0,11.0,0.0
404,53.0,2.0,120.0,11.0,0.0
405,61.0,2.0,120.0,12.0,0.0
406,49.0,4.0,120.0,13.0,0.0
407,37.0,110.0,120.0,14.0,0.0
408,82.0,1.0,120.0,0.0,0.0
409,85.0,0.0,120.0,0.0,0.0
410,56.0,0.0,120.0,6.0,0.0
411,70.0,1.0,120.0,1.0,0.0
412,73.0,0.0,120.0,1.0,0.0
413,68.0,0.0,120.0,6.0,0.0
414,61.0,0.0,120.0,4.0,0.0
415,65.0,0.0,120.0,2.0,0.0
416,61.0,1.0,120.0,2.0,0.0
417,58.0,1.0,120.0,5.0,0.0
418,44.0,3.0,120.0,15.0,0.0
419,61.0,0.0,120.0,3.0,0.0
420,49.0,175.0,120.0,3.0,0.0
421,51.0,3.0,180.0,10.0,0.0
422,68.0,0.0,180.0,10.0,0.0
423,60.0,0.0,180.0,10.0,0.0
424,84.0,1.0,180.0,0.0,0.0
425,80.0,0.0,180.0,0.0,0.0
426,68.0,0.0,180.0,1.0,0.0
427,60.0,1.0,180.0,4.0,0.0
428,63.0,1.0,240.0,6.0,0.0
429,51.0,0.0,240.0,6.0,0.0
430,56.0,0.0,180.0,2.0,0.0
431,60.0,0.0,180.0,11.0,0.0
432,51.0,1.0,180.0,11.0,0.0
433,56.0,52.0,180.0,5.0,0.0
434,39.0,55.0,240.0,15.0,0.0
435,51.0,0.0,240.0,3.0,0.0
436,63.0,2.0,240.0,3.0,0.0
437,39.0,49.0,300.0,14.0,0.0
438,72.0,0.0,60.0,10.0,0.0
439,84.0,0.0,60.0,0.0,0.0
440,87.0,1.0,60.0,0.0,0.0
441,75.0,1.0,60.0,1.0,0.0
442,72.0,0.0,15.0,1.0,0.0
443,63.0,0.0,60.0,4.0,0.0
444,63.0,0.0,60.0,2.0,0.0
445,60.0,1.0,15.0,2.0,0.0
446,63.0,2.0,60.0,11.0,0.0
447,60.0,1.0,60.0,5.0,0.0
448,72.0,1.0,60.0,10.0,0.0
449,87.0,1.0,60.0,0.0,0.0
450,84.0,0.0,60.0,0.0,0.0
451,63.0,0.0,60.0,4.0,0.0
452,72.0,0.0,60.0,1.0,0.0
453,75.0,1.0,60.0,1.0,0.0
454,63.0,0.0,60.0,11.0,0.0
455,60.0,1.0,60.0,2.0,0.0
456,63.0,0.0,60.0,2.0,0.0
457,60.0,1.0,60.0,5.0,0.0
458,39.0,0.0,60.0,3.0,0.0
459,70.0,1.0,60.0,10.0,0.0
460,82.0,1.0,60.0,0.0,0.0
461,85.0,0.0,60.0,0.0,0.0
462,61.0,1.0,60.0,4.0,0.0
463,73.0,0.0,60.0,1.0,0.0
464,70.0,0.0,60.0,1.0,0.0
465,61.0,0.0,60.0,2.0,0.0
466,61.0,0.0,60.0,11.0,0.0
467,58.0,1.0,60.0,2.0,0.0
468,58.0,1.0,60.0,5.0,0.0
469,51.0,2.0,15.0,12.0,0.0
470,51.0,1.0,15.0,13.0,0.0
471,51.0,3.0,15.0,3.0,0.0
472,39.0,49.0,60.0,14.0,0.0
473,68.0,1.0,60.0,10.0,0.0
474,84.0,0.0,60.0,0.0,0.0
475,80.0,1.0,60.0,0.0,0.0
476,72.0,1.0,60.0,1.0,0.0
477,68.0,0.0,60.0,1.0,0.0
478,60.0,0.0,60.0,4.0,0.0
479,60.0,0.0,60.0,11.0,0.0
480,56.0,1.0,60.0,2.0,0.0
481,60.0,0.0,60.0,2.0,0.0
482,56.0,1.0,60.0,5.0,0.0
483,51.0,2.0,60.0,12.0,0.0
484,51.0,1.0,15.0,13.0,0.0
485,51.0,3.0,15.0,3.0,0.0
486,39.0,45.0,60.0,14.0,0.0
487,67.0,0.0,60.0,10.0,0.0
488,82.0,1.0,60.0,0.0,0.0
489,79.0,0.0,60.0,0.0,0.0
490,67.0,0.0,60.0,1.0,0.0
491,70.0,0.0,60.0,1.0,0.0
492,61.0,1.0,60.0,4.0,0.0
493,61.0,1.0,60.0,2.0,0.0
494,58.0,3.0,60.0,11.0,0.0
495,58.0,1.0,60.0,5.0,0.0
496,52.0,2.0,60.0,12.0,0.0
497,52.0,4.0,60.0,13.0,0.0
498,52.0,2.0,60.0,3.0,0.0
499,55.0,0.0,60.0,3.0,0.0
500,40.0,93.0,60.0,14.0,0.0
501,53.0,0.0,90.0,10.0,0.0
502,60.0,3.0,90.0,10.0,0.0
503,68.0,0.0,90.0,10.0,0.0
504,80.0,1.0,120.0,0.0,0.0
505,60.0,0.0,120.0,4.0,0.0
506,68.0,1.0,120.0,1.0,0.0
507,60.0,1.0,120.0,2.0,0.0
508,56.0,0.0,90.0,11.0,0.0
509,68.0,1.0,90.0,11.0,0.0
510,60.0,0.0,90.0,11.0,0.0
511,56.0,0.0,120.0,5.0,0.0
512,53.0,0.0,90.0,12.0,0.0
513,53.0,4.0,90.0,13.0,0.0
514,56.0,0.0,120.0,3.0,0.0
515,53.0,0.0,120.0,3.0,0.0
516,41.0,120.0,90.0,14.0,0.0
517,80.0,1.0,120.0,0.0,0.0
518,84.0,0.0,120.0,0.0,0.0
519,68.0,1.0,120.0,6.0,0.0
520,68.0,0.0,120.0,1.0,0.0
521,56.0,0.0,120.0,4.0,0.0
522,72.0,0.0,120.0,1.0,0.0
523,56.0,0.0,120.0,6.0,0.0
524,60.0,0.0,120.0,2.0,0.0
525,56.0,1.0,120.0,2.0,0.0
526,44.0,4.0,120.0,5.0,0.0
527,44.0,103.0,120.0,15.0,0.0
528,41.0,9.0,120.0,3.0,0.0
529,53.0,0.0,120.0,3.0,0.0
530,61.0,0.0,120.0,10.0,0.0
531,77.0,0.0,120.0,10.0,0.0
532,68.0,3.0,120.0,10.0,0.0
533,68.0,0.0,120.0,11.0,0.0
534,61.0,2.0,120.0,11.0,0.0
535,77.0,0.0,120.0,11.0,0.0
536,49.0,0.0,120.0,12.0,0.0
537,61.0,2.0,120.0,12.0,0.0
538,56.0,0.0,120.0,12.0,0.0
539,49.0,4.0,120.0,13.0,0.0
540,37.0,110.0,120.0,14.0,0.0
541,85.0,1.0,120.0,0.0,0.0
542,82.0,0.0,120.0,0.0,0.0
543,70.0,0.0,120.0,1.0,0.0
544,73.0,1.0,120.0,1.0,0.0
545,56.0,0.0,120.0,6.0,0.0
546,56.0,0.0,120.0,4.0,0.0
547,68.0,0.0,120.0,6.0,0.0
548,61.0,0.0,120.0,2.0,0.0
549,65.0,1.0,120.0,2.0,0.0
550,44.0,1.0,120.0,5.0,0.0
551,44.0,3.0,120.0,15.0,0.0
552,37.0,0.0,120.0,3.0,0.0
553,49.0,118.0,120.0,3.0,0.0
554,51.0,3.0,120.0,10.0,0.0
555,68.0,0.0,120.0,10.0,0.0
556,60.0,0.0,120.0,10.0,0.0
557,80.0,1.0,240.0,0.0,0.0
558,84.0,0.0,240.0,0.0,0.0
559,72.0,1.0,240.0,1.0,0.0
560,68.0,0.0,240.0,1.0,0.0
561,63.0,1.0,240.0,6.0,0.0
562,56.0,2.0,300.0,4.0,0.0
563,51.0,0.0,240.0,6.0,0.0
564,51.0,2.0,120.0,11.0,0.0
565,56.0,4.0,240.0,2.0,0.0
566,60.0,0.0,240.0,2.0,0.0
567,68.0,0.0,120.0,11.0,0.0
568,60.0,0.0,120.0,11.0,0.0
569,44.0,47.0,300.0,5.0,0.0
570,39.0,57.0,240.0,15.0,0.0
571,51.0,2.0,120.0,12.0,0.0
572,51.0,4.0,120.0,13.0,0.0
573,39.0,2.0,240.0,3.0,0.0
574,51.0,0.0,240.0,3.0,0.0
575,39.0,105.0,120.0,14.0,0.0
576,84.0,1.0,120.0,0.0,0.0
577,80.0,0.0,120.0,0.0,0.0
578,72.0,0.0,120.0,1.0,0.0
579,68.0,1.0,120.0,1.0,0.0
580,60.0,0.0,120.0,2.0,0.0
581,68.0,5.0,120.0,2.0,0.0
582,39.0,0.0,120.0,3.0,0.0
583,51.0,4.0,120.0,3.0,0.0
584,63.0,2.0,60.0,4.0,0.0
585,51.0,58.0,60.0,5.0,0.0
586,84.0,1.0,120.0,0.0,0.0
587,80.0,0.0,120.0,0.0,0.0
588,72.0,0.0,120.0,1.0,0.0
589,68.0,1.0,120.0,1.0,0.0
590,60.0,2.0,60.0,4.0,0.0
591,68.0,5.0,120.0,2.0,0.0
592,60.0,0.0,120.0,2.0,0.0
593,48.0,47.0,60.0,5.0,0.0
594,51.0,0.0,120.0,3.0,0.0
595,39.0,4.0,120.0,3.0,0.0
596,56.0,2.0,60.0,4.0,0.0
597,44.0,56.0,60.0,5.0,0.0
598,51.0,3.0,60.0,10.0,0.0
599,85.0,1.0,240.0,0.0,0.0
600,73.0,0.0,240.0,1.0,0.0
601,67.0,0.0,240.0,1.0,0.0
602,51.0,0.0,240.0,4.0,0.0
603,51.0,2.0,60.0,11.0,0.0
604,58.0,1.0,240.0,2.0,0.0
605,39.0,2.0,240.0,5.0,0.0
606,51.0,2.0,60.0,12.0,0.0
607,39.0,4.0,60.0,13.0,0.0
608,27.0,19.0,60.0,14.0,0.0
609,53.0,3.0,30.0,10.0,0.0
610,53.0,2.0,30.0,11.0,0.0
611,53.0,2.0,30.0,12.0,0.0
612,41.0,4.0,30.0,13.0,0.0
613,29.0,19.0,30.0,14.0,0.0
614,55.0,3.0,30.0,10.0,0.0
615,55.0,2.0,30.0,11.0,0.0
616,55.0,2.0,30.0,12.0,0.0
617,43.0,4.0,30.0,13.0,0.0
618,31.0,19.0,30.0,14.0,0.0
619,56.0,3.0,30.0,10.0,0.0
620,56.0,2.0,30.0,11.0,0.0
621,56.0,2.0,30.0,12.0,0.0
622,44.0,4.0,30.0,13.0,0.0
623,32.0,19.0,30.0,14.0,0.0
624,58.0,3.0,30.0,10.0,0.0
625,58.0,2.0,30.0,11.0,0.0
626,58.0,2.0,30.0,12.0,0.0
627,46.0,4.0,30.0,13.0,0.0
628,34.0,19.0,30.0,14.0,0.0
629,60.0,3.0,30.0,10.0,0.0
630,60.0,2.0,30.0,11.0,0.0
631,60.0,2.0,30.0,12.0,0.0
632,48.0,4.0,30.0,13.0,0.0
633,36.0,14.0,30.0,14.0,0.0
634,62.0,3.0,30.0,10.0,0.0
635,62.0,2.0,30.0,11.0,0.0
636,62.0,1.0,30.0,12.0,0.0
637,50.0,1.0,30.0,13.0,0.0
638,38.0,2.0,30.0,14.0,0.0
639,63.0,3.0,180.0,10.0,0.0
640,79.0,0.0,15.0,0.0,0.0
641,73.0,0.0,240.0,0.0,0.0
642,61.0,0.0,240.0,1.0,0.0
643,58.0,0.0,240.0,4.0,0.0
644,67.0,1.0,240.0,1.0,0.0
645,61.0,0.0,240.0,2.0,0.0
646,67.0,0.0,15.0,2.0,0.0
647,63.0,2.0,180.0,11.0,0.0
648,51.0,1.0,240.0,5.0,0.0
649,63.0,2.0,180.0,12.0,0.0
650,51.0,4.0,180.0,13.0,0.0
651,51.0,0.0,15.0,3.0,0.0
652,39.0,167.0,15.0,3.0,0.0
653,39.0,9.0,180.0,14.0,0.0
654,63.0,3.0,15.0,10.0,0.0
655,63.0,2.0,15.0,11.0,0.0
656,63.0,2.0,15.0,12.0,0.0
657,51.0,4.0,15.0,13.0,0.0
658,39.0,4.0,15.0,14.0,0.0
659,61.0,3.0,15.0,10.0,0.0
660,61.0,2.0,15.0,11.0,0.0
661,61.0,2.0,15.0,12.0,0.0
662,49.0,4.0,15.0,13.0,0.0
663,37.0,4.0,15.0,14.0,0.0
664,60.0,3.0,15.0,10.0,0.0
665,60.0,2.0,15.0,11.0,0.0
666,60.0,2.0,15.0,12.0,0.0
667,48.0,4.0,15.0,13.0,0.0
668,36.0,0.0,15.0,14.0,0.0
669,58.0,3.0,15.0,10.0,0.0
670,58.0,2.0,15.0,11.0,0.0
671,58.0,2.0,15.0,12.0,0.0
672,46.0,4.0,15.0,13.0,0.0
673,34.0,110.0,15.0,14.0,0.0
674,56.0,142.0,300.0,10.0,0.0
675,72.0,1.0,120.0,0.0,0.0
676,80.0,0.0,120.0,0.0,0.0
677,56.0,1.0,120.0,4.0,0.0
678,60.0,0.0,120.0,1.0,0.0
679,68.0,0.0,120.0,1.0,0.0
680,56.0,0.0,120.0,11.0,0.0
681,68.0,0.0,120.0,2.0,0.0
682,60.0,1.0,120.0,2.0,0.0
683,48.0,1.0,120.0,5.0,0.0
684,56.0,2.0,120.0,12.0,0.0
685,44.0,1.0,120.0,13.0,0.0
686,56.0,0.0,120.0,3.0,0.0
687,44.0,3.0,120.0,3.0,0.0
688,32.0,177.0,120.0,14.0,0.0
689,51.0,20.0,90.0,10.0,0.0
690,55.0,133.0,20.0,10.0,0.0
691,56.0,142.0,300.0,10.0,0.0
692,51.0,2.0,120.0,11.0,0.0
693,48.0,2.0,120.0,12.0,0.0
694,44.0,4.0,120.0,13.0,0.0
695,32.0,177.0,120.0,14.0,0.0
696,51.0,20.0,90.0,10.0,0.0
697,55.0,40.0,20.0,10.0,0.0
698,56.0,60.0,30.0,10.0,0.0
699,51.0,2.0,120.0,11.0,0.0
700,48.0,2.0,120.0,12.0,0.0
701,44.0,4.0,120.0,13.0,0.0
702,32.0,19.0,120.0,14.0,0.0
703,56.0,33.0,30.0,10.0,0.0
704,51.0,60.0,30.0,10.0,0.0
705,55.0,60.0,30.0,10.0,0.0
706,56.0,60.0,30.0,10.0,0.0
707,51.0,2.0,120.0,11.0,0.0
708,48.0,2.0,120.0,12.0,0.0
709,44.0,4.0,120.0,13.0,0.0
710,32.0,19.0,120.0,14.0,0.0
711,56.0,33.0,30.0,10.0,0.0
712,51.0,60.0,30.0,10.0,0.0
713,55.0,90.0,30.0,10.0,0.0
714,56.0,63.0,60.0,10.0,0.0
715,51.0,2.0,120.0,11.0,0.0
716,48.0,2.0,120.0,12.0,0.0
717,44.0,4.0,120.0,13.0,0.0
718,32.0,49.0,120.0,14.0,0.0
719,60.0,120.0,60.0,10.0,0.0
720,63.0,120.0,60.0,10.0,0.0
721,67.0,180.0,60.0,10.0,0.0
722,68.0,361.0,120.0,10.0,0.0
723,72.0,0.0,960.0,0.0,0.0
724,80.0,1.0,480.0,0.0,0.0
725,72.0,6.0,480.0,1.0,0.0
726,63.0,0.0,960.0,3.0,0.0
727,56.0,354.0,480.0,3.0,0.0
728,81.0,1.0,480.0,0.0,0.0
729,72.0,28.0,360.0,1.0,0.0
730,75.0,1.0,480.0,1.0,0.0
731,69.0,0.0,480.0,2.0,0.0
732,72.0,2.0,480.0,2.0,0.0
733,53.0,3.0,480.0,3.0,0.0
734,65.0,3.0,30.0,10.0,0.0
735,65.0,0.0,120.0,1.0,0.0
736,65.0,2.0,30.0,11.0,0.0
737,53.0,2.0,30.0,12.0,0.0
738,53.0,4.0,30.0,13.0,0.0
739,41.0,19.0,30.0,14.0,0.0
740,63.0,3.0,30.0,10.0,0.0
741,63.0,2.0,30.0,11.0,0.0
742,51.0,2.0,30.0,12.0,0.0
743,51.0,4.0,30.0,13.0,0.0
744,39.0,19.0,30.0,14.0,0.0
745,61.0,3.0,30.0,10.0,0.0
746,61.0,2.0,30.0,11.0,0.0
747,49.0,2.0,30.0,12.0,0.0
748,49.0,4.0,30.0,13.0,0.0
749,37.0,19.0,30.0,14.0,0.0
750,60.0,1.0,30.0,10.0,0.0
751,60.0,0.0,30.0,11.0,0.0
752,48.0,2.0,30.0,12.0,0.0
753,48.0,1.0,30.0,13.0,0.0
754,36.0,110.0,30.0,14.0,0.0
755,58.0,142.0,300.0,10.0,0.0
756,82.0,1.0,120.0,0.0,0.0
757,73.0,0.0,120.0,0.0,0.0
758,65.0,0.0,120.0,1.0,0.0
759,73.0,1.0,120.0,1.0,0.0
760,58.0,2.0,120.0,11.0,0.0
761,70.0,0.0,120.0,2.0,0.0
762,73.0,0.0,120.0,2.0,0.0
763,46.0,2.0,120.0,12.0,0.0
764,46.0,1.0,120.0,13.0,0.0
765,46.0,0.0,120.0,3.0,0.0
766,61.0,3.0,120.0,3.0,0.0
767,34.0,177.0,120.0,14.0,0.0
768,53.0,30.0,90.0,10.0,0.0
769,57.0,123.0,30.0,10.0,0.0
770,58.0,142.0,300.0,10.0,0.0
771,53.0,2.0,120.0,11.0,0.0
772,49.0,2.0,120.0,12.0,0.0
773,46.0,4.0,120.0,13.0,0.0
774,34.0,177.0,120.0,14.0,0.0
775,53.0,30.0,90.0,10.0,0.0
776,57.0,30.0,30.0,10.0,0.0
777,58.0,60.0,30.0,10.0,0.0
778,53.0,2.0,120.0,11.0,0.0
779,49.0,2.0,120.0,12.0,0.0
780,46.0,4.0,120.0,13.0,0.0
781,34.0,19.0,120.0,14.0,0.0
782,58.0,33.0,30.0,10.0,0.0
783,53.0,60.0,30.0,10.0,0.0
784,57.0,60.0,30.0,10.0,0.0
785,58.0,60.0,30.0,10.0,0.0
786,53.0,2.0,120.0,11.0,0.0
787,49.0,2.0,120.0,12.0,0.0
788,46.0,4.0,120.0,13.0,0.0
789,34.0,19.0,120.0,14.0,0.0
790,58.0,33.0,30.0,10.0,0.0
791,53.0,60.0,30.0,10.0,0.0
792,57.0,90.0,30.0,10.0,0.0
793,58.0,63.0,60.0,10.0,0.0
794,53.0,2.0,120.0,11.0,0.0
795,49.0,2.0,120.0,12.0,0.0
796,46.0,4.0,120.0,13.0,0.0
797,34.0,49.0,120.0,14.0,0.0
798,61.0,120.0,60.0,10.0,0.0
799,65.0,120.0,60.0,10.0,0.0
800,69.0,180.0,60.0,10.0,0.0
801,70.0,362.0,120.0,10.0,0.0
802,73.0,0.0,960.0,0.0,0.0
803,77.0,1.0,480.0,1.0,0.0
804,58.0,0.0,960.0,4.0,0.0
805,61.0,0.0,960.0,2.0,0.0
806,65.0,0.0,480.0,2.0,0.0
807,58.0,1.0,960.0,5.0,0.0
808,58.0,2.0,480.0,12.0,0.0
809,46.0,3.0,480.0,3.0,0.0
810,58.0,0.0,480.0,3.0,0.0
811,34.0,7.0,480.0,14.0,0.0
812,58.0,5.0,20.0,10.0,0.0
813,76.0,1.0,480.0,1.0,0.0
814,58.0,2.0,15.0,11.0,0.0
815,64.0,1.0,480.0,2.0,0.0
816,56.0,0.0,20.0,12.0,0.0
817,58.0,8.0,20.0,12.0,0.0
818,46.0,1.0,15.0,13.0,0.0
819,56.0,0.0,480.0,3.0,0.0
820,44.0,3.0,480.0,3.0,0.0
821,34.0,7.0,30.0,14.0,0.0
822,56.0,4.0,15.0,11.0,0.0
823,56.0,1.0,20.0,10.0,0.0
824,58.0,12.0,15.0,11.0,0.0
825,44.0,4.0,30.0,13.0,0.0
826,58.0,3.0,20.0,10.0,0.0
827,32.0,7.0,30.0,14.0,0.0
828,58.0,2.0,20.0,12.0,0.0
829,56.0,2.0,15.0,11.0,0.0
830,56.0,5.0,20.0,10.0,0.0
831,58.0,2.0,15.0,11.0,0.0
832,56.0,8.0,20.0,12.0,0.0
833,46.0,3.0,30.0,13.0,0.0
834,34.0,4.0,30.0,14.0,0.0
835,56.0,4.0,15.0,11.0,0.0
836,58.0,1.0,20.0,10.0,0.0
837,58.0,3.0,20.0,12.0,0.0
838,58.0,12.0,15.0,11.0,0.0
839,44.0,4.0,30.0,13.0,0.0
840,56.0,3.0,20.0,10.0,0.0
841,32.0,7.0,30.0,14.0,0.0
842,56.0,2.0,20.0,12.0,0.0
843,56.0,2.0,15.0,11.0,0.0
844,58.0,5.0,20.0,10.0,0.0
845,58.0,2.0,15.0,11.0,0.0
846,58.0,8.0,20.0,12.0,0.0
847,46.0,3.0,30.0,13.0,0.0
848,34.0,4.0,30.0,14.0,0.0
849,56.0,4.0,15.0,11.0,0.0
850,56.0,1.0,20.0,10.0,0.0
851,56.0,3.0,20.0,12.0,0.0
852,58.0,12.0,15.0,11.0,0.0
853,44.0,4.0,30.0,13.0,0.0
854,58.0,3.0,20.0,10.0,0.0
855,32.0,7.0,30.0,14.0,0.0
856,58.0,2.0,20.0,12.0,0.0
857,56.0,2.0,15.0,11.0,0.0
858,56.0,5.0,20.0,10.0,0.0
859,58.0,2.0,15.0,11.0,0.0
860,56.0,8.0,20.0,12.0,0.0
861,46.0,3.0,30.0,13.0,0.0
862,34.0,4.0,30.0,14.0,0.0
863,56.0,4.0,15.0,11.0,0.0
864,58.0,1.0,20.0,10.0,0.0
865,58.0,3.0,20.0,12.0,0.0
866,58.0,12.0,15.0,11.0,0.0
867,44.0,4.0,30.0,13.0,0.0
868,56.0,3.0,20.0,10.0,0.0
869,32.0,7.0,30.0,14.0,0.0
870,56.0,2.0,20.0,12.0,0.0
871,56.0,2.0,15.0,11.0,0.0
872,58.0,5.0,20.0,10.0,0.0
873,58.0,2.0,15.0,11.0,0.0
874,58.0,8.0,20.0,12.0,0.0
875,46.0,3.0,30.0,13.0,0.0
876,34.0,4.0,30.0,14.0,0.0
877,56.0,4.0,15.0,11.0,0.0
878,56.0,1.0,20.0,10.0,0.0
879,56.0,3.0,20.0,12.0,0.0
880,58.0,12.0,15.0,11.0,0.0
881,44.0,4.0,30.0,13.0,0.0
882,58.0,3.0,20.0,10.0,0.0
883,32.0,7.0,30.0,14.0,0.0
884,58.0,2.0,20.0,12.0,0.0
885,56.0,2.0,15.0,11.0,0.0
886,56.0,5.0,20.0,10.0,0.0
887,58.0,2.0,15.0,11.0,0.0
888,56.0,8.0,20.0,12.0,0.0
889,46.0,3.0,30.0,13.0,0.0
890,34.0,4.0,30.0,14.0,0.0
891,56.0,4.0,15.0,11.0,0.0
892,58.0,1.0,20.0,10.0,0.0
893,58.0,3.0,20.0,12.0,0.0
894,58.0,12.0,15.0,11.0,0.0
895,44.0,4.0,30.0,13.0,0.0
896,56.0,3.0,20.0,10.0,0.0
897,32.0,7.0,30.0,14.0,0.0
898,56.0,2.0,20.0,12.0,0.0
899,56.0,2.0,15.0,11.0,0.0
900,58.0,5.0,20.0,10.0,0.0
901,58.0,2.0,15.0,11.0,0.0
902,58.0,8.0,20.0,12.0,0.0
903,46.0,3.0,30.0,13.0,0.0
904,34.0,4.0,30.0,14.0,0.0
905,56.0,4.0,15.0,11.0,0.0
906,56.0,1.0,20.0,10.0,0.0
907,56.0,3.0,20.0,12.0,0.0
908,58.0,12.0,15.0,11.0,0.0
909,44.0,4.0,30.0,13.0,0.0
910,58.0,3.0,20.0,10.0,0.0
911,32.0,19.0,30.0,14.0,0.0
912,58.0,2.0,20.0,12.0,0.0
913,56.0,2.0,15.0,11.0,0.0
914,55.0,3.0,30.0,10.0,0.0
915,55.0,2.0,30.0,11.0,0.0
916,55.0,2.0,30.0,12.0,0.0
917,43.0,4.0,30.0,13.0,0.0
918,31.0,19.0,30.0,14.0,0.0
919,56.0,1.0,30.0,10.0,0.0
920,56.0,0.0,30.0,11.0,0.0
921,56.0,2.0,30.0,12.0,0.0
922,44.0,1.0,30.0,13.0,0.0
923,32.0,297.0,30.0,14.0,0.0
924,55.0,3.0,300.0,10.0,0.0
925,82.0,1.0,15.0,0.0,0.0
926,73.0,1.0,330.0,0.0,0.0
927,73.0,0.0,15.0,1.0,0.0
928,58.0,1.0,330.0,4.0,0.0
929,75.0,0.0,330.0,1.0,0.0
930,63.0,0.0,330.0,2.0,0.0
931,61.0,1.0,330.0,2.0,0.0
932,55.0,2.0,300.0,11.0,0.0
933,51.0,4.0,330.0,5.0,0.0
934,55.0,2.0,300.0,12.0,0.0
935,43.0,4.0,300.0,13.0,0.0
936,43.0,107.0,330.0,3.0,0.0
937,55.0,0.0,330.0,3.0,0.0
938,31.0,17.0,300.0,14.0,0.0
939,51.0,30.0,90.0,10.0,0.0
940,55.0,30.0,30.0,10.0,0.0
941,58.0,60.0,30.0,10.0,0.0
942,58.0,60.0,30.0,10.0,0.0
943,51.0,60.0,30.0,10.0,0.0
944,55.0,60.0,30.0,10.0,0.0
945,58.0,60.0,30.0,10.0,0.0
946,58.0,120.0,30.0,10.0,0.0
947,51.0,3.0,90.0,10.0,0.0
948,51.0,2.0,90.0,11.0,0.0
949,51.0,2.0,90.0,12.0,0.0
950,39.0,1.0,90.0,13.0,0.0
951,39.0,3.0,90.0,3.0,0.0
952,51.0,0.0,90.0,3.0,0.0
953,27.0,19.0,90.0,14.0,0.0
954,55.0,3.0,30.0,10.0,0.0
955,55.0,2.0,30.0,11.0,0.0
956,55.0,2.0,30.0,12.0,0.0
957,43.0,1.0,30.0,13.0,0.0
958,55.0,3.0,30.0,3.0,0.0
959,43.0,0.0,30.0,3.0,0.0
960,31.0,297.0,30.0,14.0,0.0
961,58.0,3.0,300.0,10.0,0.0
962,79.0,1.0,330.0,0.0,0.0
963,63.0,1.0,330.0,4.0,0.0
964,75.0,0.0,330.0,1.0,0.0
965,73.0,0.0,330.0,1.0,0.0
966,58.0,2.0,300.0,11.0,0.0
967,67.0,0.0,330.0,2.0,0.0
968,61.0,1.0,330.0,2.0,0.0
969,51.0,4.0,330.0,5.0,0.0
970,58.0,2.0,300.0,12.0,0.0
971,46.0,4.0,300.0,13.0,0.0
972,46.0,0.0,330.0,3.0,0.0
973,58.0,107.0,330.0,3.0,0.0
974,34.0,17.0,300.0,14.0,0.0
975,51.0,30.0,90.0,10.0,0.0
976,55.0,30.0,30.0,10.0,0.0
977,58.0,60.0,30.0,10.0,0.0
978,58.0,60.0,30.0,10.0,0.0
979,51.0,60.0,30.0,10.0,0.0
980,55.0,60.0,30.0,10.0,0.0
981,58.0,60.0,30.0,10.0,0.0
982,58.0,120.0,30.0,10.0,0.0
983,55.0,3.0,90.0,10.0,0.0
984,55.0,2.0,90.0,11.0,0.0
985,55.0,2.0,90.0,12.0,0.0
986,43.0,1.0,90.0,13.0,0.0
987,55.0,3.0,90.0,3.0,0.0
988,43.0,0.0,90.0,3.0,0.0
989,31.0,19.0,90.0,14.0,0.0
990,58.0,3.0,30.0,10.0,0.0
991,58.0,2.0,30.0,11.0,0.0
992,58.0,2.0,30.0,12.0,0.0
993,46.0,1.0,30.0,13.0,0.0
994,58.0,3.0,30.0,3.0,0.0
995,34.0,239.0,30.0,14.0,0.0
996,61.0,3.0,300.0,10.0,0.0
997,79.0,1.0,600.0,0.0,0.0
998,82.0,0.0,600.0,0.0,0.0
999,75.0,0.0,600.0,1.0,0.0
1000,63.0,0.0,600.0,6.0,0.0
1001,79.0,0.0,600.0,1.0,0.0
1002,70.0,0.0,600.0,6.0,0.0
1003,63.0,1.0,600.0,4.0,0.0
1004,70.0,0.0,600.0,2.0,0.0
1005,67.0,1.0,600.0,2.0,0.0
1006,61.0,2.0,300.0,11.0,0.0
1007,51.0,4.0,600.0,5.0,0.0
1008,61.0,2.0,300.0,12.0,0.0
1009,49.0,4.0,300.0,13.0,0.0
1010,46.0,0.0,15.0,3.0,0.0
1011,58.0,0.0,600.0,3.0,0.0
1012,39.0,58.0,240.0,15.0,0.0
1013,37.0,131.0,300.0,14.0,0.0
1014,67.0,3.0,90.0,10.0,0.0
1015,67.0,27.0,90.0,11.0,0.0
1016,70.0,3.0,30.0,10.0,0.0
1017,70.0,27.0,30.0,11.0,0.0
1018,73.0,3.0,30.0,10.0,0.0
1019,73.0,57.0,30.0,11.0,0.0
1020,70.0,3.0,30.0,10.0,0.0
1021,70.0,18.0,30.0,11.0,0.0
1022,67.0,3.0,30.0,10.0,0.0
1023,79.0,1.0,120.0,0.0,0.0
1024,82.0,0.0,120.0,0.0,0.0
1025,79.0,0.0,120.0,1.0,0.0
1026,75.0,0.0,120.0,1.0,0.0
1027,63.0,1.0,120.0,6.0,0.0
1028,70.0,0.0,120.0,6.0,0.0
1029,63.0,0.0,120.0,4.0,0.0
1030,67.0,57.0,30.0,11.0,0.0
1031,70.0,1.0,120.0,2.0,0.0
1032,67.0,0.0,120.0,2.0,0.0
1033,51.0,4.0,120.0,5.0,0.0
1034,58.0,0.0,120.0,3.0,0.0
1035,46.0,12.0,120.0,3.0,0.0
1036,63.0,3.0,30.0,10.0,0.0
1037,63.0,18.0,30.0,11.0,0.0
1038,61.0,3.0,30.0,10.0,0.0
1039,82.0,1.0,120.0,0.0,0.0
1040,79.0,0.0,120.0,0.0,0.0
1041,63.0,0.0,120.0,6.0,0.0
1042,70.0,1.0,120.0,6.0,0.0
1043,63.0,0.0,120.0,4.0,0.0
1044,79.0,0.0,120.0,1.0,0.0
1045,75.0,0.0,120.0,1.0,0.0
1046,67.0,0.0,120.0,2.0,0.0
1047,70.0,1.0,120.0,2.0,0.0
1048,61.0,2.0,30.0,11.0,0.0
1049,51.0,4.0,120.0,5.0,0.0
1050,61.0,2.0,30.0,12.0,0.0
1051,49.0,4.0,30.0,13.0,0.0
1052,58.0,0.0,120.0,3.0,0.0
1053,46.0,12.0,120.0,3.0,0.0
1054,39.0,20.0,15.0,15.0,0.0
1055,37.0,49.0,30.0,14.0,0.0
1056,58.0,3.0,30.0,10.0,0.0
1057,58.0,2.0,30.0,11.0,0.0
1058,58.0,2.0,30.0,12.0,0.0
1059,46.0,4.0,30.0,13.0,0.0
1060,34.0,10.0,30.0,14.0,0.0
1061,55.0,3.0,30.0,10.0,0.0
1062,82.0,0.0,120.0,0.0,0.0
1063,79.0,1.0,120.0,0.0,0.0
1064,63.0,1.0,120.0,4.0,0.0
1065,70.0,0.0,120.0,6.0,0.0
1066,75.0,0.0,120.0,1.0,0.0
1067,79.0,0.0,120.0,1.0,0.0
1068,63.0,0.0,120.0,6.0,0.0
1069,70.0,0.0,120.0,2.0,0.0
1070,67.0,1.0,120.0,2.0,0.0
1071,55.0,2.0,30.0,11.0,0.0
1072,51.0,4.0,120.0,5.0,0.0
1073,55.0,2.0,30.0,12.0,0.0
1074,43.0,4.0,30.0,13.0,0.0
1075,46.0,12.0,120.0,3.0,0.0
1076,58.0,0.0,120.0,3.0,0.0
1077,39.0,20.0,15.0,15.0,0.0
1078,31.0,49.0,30.0,14.0,0.0
1079,51.0,3.0,30.0,10.0,0.0
1080,51.0,2.0,30.0,11.0,0.0
1081,51.0,2.0,30.0,12.0,0.0
1082,39.0,4.0,30.0,13.0,0.0
1083,27.0,10.0,30.0,14.0,0.0
1084,56.0,1.0,60.0,10.0,0.0
1085,80.0,0.0,60.0,0.0,0.0
1086,84.0,1.0,60.0,0.0,0.0
1087,68.0,0.0,60.0,6.0,0.0
1088,72.0,0.0,60.0,6.0,0.0
1089,80.0,0.0,60.0,1.0,0.0
1090,63.0,0.0,60.0,4.0,0.0
1091,75.0,1.0,60.0,1.0,0.0
1092,72.0,0.0,60.0,2.0,0.0
1093,68.0,0.0,60.0,2.0,0.0
1094,56.0,1.0,60.0,11.0,0.0
1095,51.0,1.0,60.0,5.0,0.0
1096,56.0,2.0,60.0,12.0,0.0
1097,44.0,1.0,60.0,13.0,0.0
1098,56.0,2.0,60.0,3.0,0.0
1099,44.0,0.0,60.0,3.0,0.0
1100,44.0,1.0,60.0,15.0,0.0
1101,32.0,229.0,60.0,14.0,0.0
1102,61.0,1.0,60.0,10.0,0.0
1103,77.0,1.0,60.0,0.0,0.0
1104,85.0,0.0,60.0,0.0,0.0
1105,56.0,0.0,60.0,4.0,0.0
1106,68.0,0.0,60.0,1.0,0.0
1107,77.0,0.0,60.0,1.0,0.0
1108,56.0,0.0,60.0,6.0,0.0
1109,68.0,1.0,60.0,6.0,0.0
1110,61.0,0.0,60.0,11.0,0.0
1111,73.0,1.0,60.0,2.0,0.0
1112,65.0,0.0,60.0,2.0,0.0
1113,44.0,1.0,60.0,5.0,0.0
1114,61.0,2.0,60.0,12.0,0.0
1115,49.0,1.0,60.0,13.0,0.0
1116,49.0,2.0,60.0,3.0,0.0
1117,68.0,1.0,60.0,10.0,0.0
1118,44.0,0.0,60.0,15.0,0.0
1119,77.0,0.0,60.0,10.0,0.0
1120,37.0,2.0,60.0,14.0,0.0
1121,77.0,227.0,60.0,11.0,0.0
1122,68.0,0.0,60.0,11.0,0.0
1123,60.0,1.0,60.0,10.0,0.0
1124,75.0,0.0,60.0,0.0,0.0
1125,84.0,1.0,60.0,0.0,0.0
1126,72.0,0.0,60.0,1.0,0.0
1127,56.0,0.0,60.0,4.0,0.0
1128,68.0,0.0,60.0,6.0,0.0
1129,56.0,0.0,60.0,6.0,0.0
1130,68.0,1.0,60.0,1.0,0.0
1131,63.0,0.0,60.0,2.0,0.0
1132,72.0,0.0,60.0,2.0,0.0
1133,60.0,1.0,60.0,11.0,0.0
1134,44.0,1.0,60.0,5.0,0.0
1135,63.0,2.0,60.0,12.0,0.0
1136,51.0,1.0,60.0,13.0,0.0
1137,51.0,2.0,60.0,3.0,0.0
1138,44.0,1.0,60.0,15.0,0.0
1139,75.0,0.0,60.0,10.0,0.0
1140,68.0,0.0,60.0,10.0,0.0
1141,39.0,2.0,60.0,14.0,0.0
1142,75.0,227.0,60.0,11.0,0.0
1143,68.0,0.0,60.0,11.0,0.0
1144,51.0,1.0,60.0,10.0,0.0
1145,79.0,1.0,60.0,0.0,0.0
1146,73.0,0.0,60.0,0.0,0.0
1147,70.0,0.0,60.0,1.0,0.0
1148,67.0,0.0,60.0,1.0,0.0
1149,63.0,0.0,60.0,6.0,0.0
1150,58.0,1.0,60.0,4.0,0.0
1151,51.0,0.0,60.0,6.0,0.0
1152,67.0,0.0,60.0,2.0,0.0
1153,61.0,0.0,60.0,2.0,0.0
1154,51.0,1.0,60.0,11.0,0.0
1155,51.0,1.0,60.0,5.0,0.0
1156,51.0,2.0,60.0,12.0,0.0
1157,39.0,1.0,60.0,13.0,0.0
1158,39.0,2.0,60.0,3.0,0.0
1159,39.0,1.0,60.0,15.0,0.0
1160,67.0,0.0,60.0,10.0,0.0
1161,58.0,0.0,60.0,10.0,0.0
1162,27.0,2.0,60.0,14.0,0.0
1163,67.0,222.0,60.0,11.0,0.0
1164,58.0,0.0,60.0,11.0,0.0
1165,51.0,3.0,360.0,10.0,0.0
1166,80.0,0.0,60.0,0.0,0.0
1167,72.0,0.0,60.0,0.0,0.0
1168,68.0,0.0,60.0,6.0,0.0
1169,56.0,0.0,60.0,6.0,0.0
1170,60.0,0.0,60.0,1.0,0.0
1171,68.0,1.0,60.0,1.0,0.0
1172,56.0,0.0,60.0,4.0,0.0
1173,60.0,1.0,60.0,2.0,0.0
1174,68.0,0.0,60.0,2.0,0.0
1175,51.0,2.0,360.0,11.0,0.0
1176,48.0,6.0,60.0,5.0,0.0
1177,56.0,2.0,60.0,12.0,0.0
1178,44.0,1.0,60.0,13.0,0.0
1179,44.0,3.0,60.0,3.0,0.0
1180,44.0,45.0,60.0,15.0,0.0
1181,60.0,1.0,360.0,10.0,0.0
1182,68.0,3.0,360.0,10.0,0.0
1183,32.0,1.0,60.0,14.0,0.0
1184,68.0,42.0,360.0,11.0,0.0
1185,60.0,7.0,360.0,11.0,0.0
1186,51.0,2.0,60.0,12.0,0.0
1187,48.0,0.0,60.0,12.0,0.0
1188,44.0,1.0,60.0,13.0,0.0
1189,44.0,3.0,60.0,3.0,0.0
1190,32.0,54.0,60.0,14.0,0.0
1191,51.0,2.0,60.0,12.0,0.0
1192,48.0,0.0,60.0,12.0,0.0
1193,44.0,1.0,60.0,13.0,0.0
1194,44.0,3.0,60.0,3.0,0.0
1195,32.0,54.0,60.0,14.0,0.0
1196,51.0,2.0,60.0,12.0,0.0
1197,48.0,0.0,60.0,12.0,0.0
1198,44.0,1.0,60.0,13.0,0.0
1199,44.0,3.0,60.0,3.0,0.0
1200,32.0,54.0,60.0,14.0,0.0
1201,51.0,2.0,60.0,12.0,0.0
1202,48.0,0.0,60.0,12.0,0.0
1203,44.0,1.0,60.0,13.0,0.0
1204,44.0,3.0,60.0,3.0,0.0
1205,32.0,49.0,60.0,14.0,0.0
1206,51.0,0.0,60.0,12.0,0.0
1207,48.0,2.0,60.0,12.0,0.0
1208,44.0,1.0,60.0,13.0,0.0
1209,44.0,2.0,60.0,3.0,0.0
1210,32.0,2.0,60.0,14.0,0.0
1211,72.0,3.0,120.0,10.0,0.0
1212,60.0,2.0,120.0,11.0,0.0
1213,48.0,0.0,60.0,12.0,0.0
1214,51.0,2.0,60.0,12.0,0.0
1215,44.0,1.0,60.0,13.0,0.0
1216,44.0,3.0,60.0,3.0,0.0
1217,32.0,49.0,60.0,14.0,0.0
1218,51.0,0.0,60.0,12.0,0.0
1219,48.0,2.0,60.0,12.0,0.0
1220,44.0,1.0,60.0,13.0,0.0
1221,44.0,3.0,60.0,3.0,0.0
1222,32.0,54.0,60.0,14.0,0.0
1223,75.0,1.0,360.0,10.0,0.0
1224,63.0,2.0,360.0,11.0,0.0
1225,48.0,2.0,60.0,12.0,0.0
1226,51.0,0.0,60.0,12.0,0.0
1227,44.0,1.0,60.0,13.0,0.0
1228,44.0,3.0,60.0,3.0,0.0
1229,32.0,54.0,60.0,14.0,0.0
1230,48.0,2.0,60.0,12.0,0.0
1231,51.0,0.0,60.0,12.0,0.0
1232,44.0,1.0,60.0,13.0,0.0
1233,44.0,3.0,60.0,3.0,0.0
1234,32.0,54.0,60.0,14.0,0.0
1235,80.0,1.0,120.0,0.0,0.0
1236,72.0,3.0,120.0,1.0,0.0
1237,68.0,0.0,120.0,1.0,0.0
1238,56.0,2.0,120.0,4.0,0.0
1239,48.0,51.0,120.0,5.0,0.0
1240,48.0,0.0,60.0,12.0,0.0
1241,51.0,2.0,60.0,12.0,0.0
1242,44.0,1.0,60.0,13.0,0.0
1243,44.0,3.0,60.0,3.0,0.0
1244,32.0,50.0,60.0,14.0,0.0
1245,48.0,2.0,60.0,12.0,0.0
1246,51.0,0.0,60.0,12.0,0.0
1247,44.0,1.0,60.0,13.0,0.0
1248,44.0,3.0,60.0,3.0,0.0
1249,32.0,1.0,60.0,14.0,0.0
1250,80.0,1.0,120.0,0.0,0.0
1251,68.0,1.0,120.0,1.0,0.0
1252,72.0,0.0,120.0,1.0,0.0
1253,48.0,26.0,120.0,5.0,0.0
1254,48.0,2.0,60.0,12.0,0.0
1255,51.0,0.0,60.0,12.0,0.0
1256,44.0,1.0,60.0,13.0,0.0
1257,44.0,3.0,60.0,3.0,0.0
1258,32.0,49.0,60.0,14.0,0.0
1259,48.0,0.0,60.0,12.0,0.0
1260,51.0,2.0,60.0,12.0,0.0
1261,44.0,1.0,60.0,13.0,0.0
1262,44.0,3.0,60.0,3.0,0.0
1263,32.0,1.0,60.0,14.0,0.0
1264,73.0,3.0,30.0,10.0,0.0
1265,80.0,1.0,120.0,0.0,0.0
1266,56.0,2.0,15.0,4.0,0.0
1267,68.0,1.0,120.0,1.0,0.0
1268,72.0,0.0,120.0,1.0,0.0
1269,61.0,22.0,30.0,11.0,0.0
1270,48.0,46.0,120.0,5.0,0.0
1271,48.0,2.0,60.0,12.0,0.0
1272,51.0,0.0,60.0,12.0,0.0
1273,44.0,1.0,60.0,13.0,0.0
1274,44.0,2.0,60.0,3.0,0.0
1275,32.0,2.0,60.0,14.0,0.0
1276,72.0,1.0,30.0,10.0,0.0
1277,60.0,27.0,30.0,11.0,0.0
1278,70.0,3.0,30.0,10.0,0.0
1279,58.0,17.0,30.0,11.0,0.0
1280,48.0,0.0,60.0,12.0,0.0
1281,51.0,2.0,60.0,12.0,0.0
1282,44.0,1.0,60.0,13.0,0.0
1283,44.0,3.0,60.0,3.0,0.0
1284,32.0,1.0,60.0,14.0,0.0
1285,68.0,1.0,20.0,10.0,0.0
1286,56.0,2.0,20.0,11.0,0.0
1287,67.0,0.0,60.0,10.0,0.0
1288,58.0,3.0,60.0,10.0,0.0
1289,79.0,2.0,360.0,0.0,0.0
1290,73.0,0.0,600.0,1.0,0.0
1291,67.0,0.0,600.0,1.0,0.0
1292,55.0,2.0,60.0,11.0,0.0
1293,67.0,5.0,360.0,2.0,0.0
1294,49.0,0.0,60.0,12.0,0.0
1295,51.0,2.0,60.0,12.0,0.0
1296,44.0,1.0,60.0,13.0,0.0
1297,44.0,3.0,60.0,3.0,0.0
1298,55.0,42.0,360.0,3.0,0.0
1299,32.0,49.0,60.0,14.0,0.0
1300,67.0,3.0,60.0,10.0,0.0
1301,58.0,0.0,60.0,10.0,0.0
1302,55.0,0.0,60.0,11.0,0.0
1303,58.0,2.0,60.0,11.0,0.0
1304,51.0,0.0,60.0,12.0,0.0
1305,49.0,2.0,60.0,12.0,0.0
1306,44.0,1.0,60.0,13.0,0.0
1307,44.0,3.0,60.0,3.0,0.0
1308,32.0,49.0,60.0,14.0,0.0
1309,67.0,3.0,60.0,10.0,0.0
1310,58.0,0.0,60.0,10.0,0.0
1311,55.0,2.0,60.0,11.0,0.0
1312,58.0,0.0,60.0,11.0,0.0
1313,49.0,0.0,60.0,12.0,0.0
1314,51.0,2.0,60.0,12.0,0.0
1315,44.0,1.0,60.0,13.0,0.0
1316,44.0,3.0,60.0,3.0,0.0
1317,32.0,49.0,60.0,14.0,0.0
1318,58.0,3.0,60.0,10.0,0.0
1319,67.0,0.0,60.0,10.0,0.0
1320,55.0,0.0,60.0,11.0,0.0
1321,58.0,2.0,60.0,11.0,0.0
1322,51.0,2.0,60.0,12.0,0.0
1323,49.0,0.0,60.0,12.0,0.0
1324,44.0,1.0,60.0,13.0,0.0
1325,44.0,3.0,60.0,3.0,0.0
1326,32.0,49.0,60.0,14.0,0.0
1327,58.0,0.0,60.0,10.0,0.0
1328,67.0,3.0,60.0,10.0,0.0
1329,58.0,0.0,60.0,11.0,0.0
1330,55.0,2.0,60.0,11.0,0.0
1331,49.0,0.0,60.0,12.0,0.0
1332,51.0,2.0,60.0,12.0,0.0
1333,44.0,1.0,60.0,13.0,0.0
1334,44.0,3.0,60.0,3.0,0.0
1335,32.0,49.0,60.0,14.0,0.0
1336,67.0,0.0,60.0,10.0,0.0
1337,58.0,3.0,60.0,10.0,0.0
1338,55.0,0.0,60.0,11.0,0.0
1339,58.0,2.0,60.0,11.0,0.0
1340,51.0,0.0,60.0,12.0,0.0
1341,49.0,2.0,60.0,12.0,0.0
1342,44.0,1.0,60.0,13.0,0.0
1343,44.0,3.0,60.0,3.0,0.0
1344,32.0,0.0,60.0,14.0,0.0
1345,58.0,3.0,60.0,10.0,0.0
1346,67.0,0.0,60.0,10.0,0.0
1347,82.0,2.0,120.0,0.0,0.0
1348,55.0,0.0,60.0,11.0,0.0
1349,58.0,2.0,60.0,11.0,0.0
1350,70.0,2.0,120.0,2.0,0.0
1351,49.0,0.0,60.0,12.0,0.0
1352,51.0,2.0,60.0,12.0,0.0
1353,44.0,1.0,60.0,13.0,0.0
1354,58.0,42.0,120.0,3.0,0.0
1355,44.0,3.0,60.0,3.0,0.0
1356,32.0,49.0,60.0,14.0,0.0
1357,58.0,0.0,60.0,10.0,0.0
1358,67.0,1.0,60.0,10.0,0.0
1359,55.0,0.0,60.0,11.0,0.0
1360,58.0,0.0,60.0,11.0,0.0
1361,49.0,0.0,60.0,12.0,0.0
1362,51.0,2.0,60.0,12.0,0.0
1363,44.0,1.0,60.0,13.0,0.0
1364,44.0,3.0,60.0,3.0,0.0
1365,32.0,7.0,60.0,14.0,0.0
1366,67.0,3.0,60.0,10.0,0.0
1367,58.0,0.0,60.0,10.0,0.0
1368,85.0,1.0,360.0,0.0,0.0
1369,73.0,0.0,360.0,2.0,0.0
1370,55.0,0.0,60.0,11.0,0.0
1371,58.0,2.0,60.0,11.0,0.0
1372,51.0,2.0,60.0,12.0,0.0
1373,49.0,0.0,60.0,12.0,0.0
1374,44.0,1.0,60.0,13.0,0.0
1375,44.0,3.0,60.0,3.0,0.0
1376,61.0,3.0,360.0,3.0,0.0
1377,32.0,49.0,60.0,14.0,0.0
1378,58.0,0.0,60.0,10.0,0.0
1379,67.0,3.0,60.0,10.0,0.0
1380,55.0,2.0,60.0,11.0,0.0
1381,58.0,0.0,60.0,11.0,0.0
1382,49.0,2.0,60.0,12.0,0.0
1383,51.0,0.0,60.0,12.0,0.0
1384,44.0,1.0,60.0,13.0,0.0
1385,44.0,3.0,60.0,3.0,0.0
1386,32.0,1.0,60.0,14.0,0.0
1387,58.0,3.0,60.0,10.0,0.0
1388,67.0,0.0,60.0,10.0,0.0
1389,67.0,0.0,120.0,1.0,0.0
1390,61.0,1.0,120.0,1.0,0.0
1391,63.0,0.0,120.0,6.0,0.0
1392,70.0,0.0,120.0,6.0,0.0
1393,58.0,2.0,15.0,4.0,0.0
1394,58.0,2.0,60.0,11.0,0.0
1395,55.0,0.0,60.0,11.0,0.0
1396,51.0,46.0,15.0,5.0,0.0
1397,49.0,0.0,60.0,12.0,0.0
1398,51.0,2.0,60.0,12.0,0.0
1399,44.0,1.0,60.0,13.0,0.0
1400,44.0,3.0,60.0,3.0,0.0
1401,44.0,40.0,120.0,15.0,0.0
1402,32.0,49.0,60.0,14.0,0.0
1403,58.0,2.0,60.0,10.0,0.0
1404,67.0,0.0,60.0,10.0,0.0
1405,55.0,2.0,60.0,11.0,0.0
1406,58.0,0.0,60.0,11.0,0.0
1407,49.0,2.0,60.0,12.0,0.0
1408,51.0,0.0,60.0,12.0,0.0
1409,44.0,1.0,60.0,13.0,0.0
1410,44.0,3.0,60.0,3.0,0.0
1411,32.0,1.0,60.0,14.0,0.0
1412,67.0,3.0,60.0,10.0,0.0
1413,58.0,0.0,60.0,10.0,0.0
1414,61.0,1.0,120.0,1.0,0.0
1415,67.0,0.0,120.0,1.0,0.0
1416,63.0,0.0,120.0,6.0,0.0
1417,70.0,2.0,120.0,6.0,0.0
1418,58.0,0.0,120.0,4.0,0.0
1419,58.0,2.0,60.0,11.0,0.0
1420,55.0,0.0,60.0,11.0,0.0
1421,51.0,6.0,15.0,5.0,0.0
1422,49.0,2.0,60.0,12.0,0.0
1423,51.0,0.0,60.0,12.0,0.0
1424,44.0,1.0,60.0,13.0,0.0
1425,44.0,3.0,60.0,3.0,0.0
1426,32.0,49.0,60.0,14.0,0.0
1427,67.0,0.0,60.0,10.0,0.0
1428,58.0,1.0,60.0,10.0,0.0
1429,55.0,0.0,60.0,11.0,0.0
1430,58.0,2.0,60.0,11.0,0.0
1431,49.0,0.0,60.0,12.0,0.0
1432,51.0,2.0,60.0,12.0,0.0
1433,44.0,1.0,60.0,13.0,0.0
1434,44.0,0.0,60.0,3.0,0.0
1435,32.0,1.0,60.0,14.0,0.0
1436,58.0,0.0,60.0,10.0,0.0
1437,67.0,3.0,60.0,10.0,0.0
1438,84.0,2.0,30.0,0.0,0.0
1439,58.0,0.0,120.0,4.0,0.0
1440,63.0,2.0,120.0,6.0,0.0
1441,67.0,0.0,120.0,1.0,0.0
1442,70.0,0.0,120.0,6.0,0.0
1443,61.0,1.0,120.0,1.0,0.0
1444,58.0,0.0,60.0,11.0,0.0
1445,55.0,2.0,60.0,11.0,0.0
1446,72.0,5.0,30.0,2.0,0.0
1447,51.0,6.0,15.0,5.0,0.0
1448,49.0,0.0,60.0,12.0,0.0
1449,51.0,2.0,60.0,12.0,0.0
1450,44.0,1.0,60.0,13.0,0.0
1451,60.0,12.0,30.0,3.0,0.0
1452,44.0,3.0,60.0,3.0,0.0
1453,44.0,21.0,15.0,15.0,0.0
1454,32.0,2.0,60.0,14.0,0.0
1455,82.0,0.0,30.0,0.0,0.0
1456,70.0,5.0,30.0,2.0,0.0
1457,58.0,23.0,30.0,3.0,0.0
1458,58.0,0.0,60.0,10.0,0.0
1459,67.0,1.0,60.0,10.0,0.0
1460,80.0,2.0,30.0,0.0,0.0
1461,55.0,0.0,60.0,11.0,0.0
1462,58.0,2.0,60.0,11.0,0.0
1463,68.0,5.0,30.0,2.0,0.0
1464,49.0,2.0,60.0,12.0,0.0
1465,51.0,0.0,60.0,12.0,0.0
1466,44.0,1.0,60.0,13.0,0.0
1467,44.0,0.0,60.0,3.0,0.0
1468,56.0,12.0,30.0,3.0,0.0
1469,32.0,1.0,60.0,14.0,0.0
1470,79.0,1.0,20.0,0.0,0.0
1471,67.0,0.0,20.0,2.0,0.0
1472,55.0,3.0,20.0,3.0,0.0
1473,68.0,1.0,60.0,10.0,0.0
1474,80.0,0.0,120.0,0.0,0.0
1475,60.0,0.0,120.0,6.0,0.0
1476,56.0,0.0,120.0,4.0,0.0
1477,68.0,0.0,120.0,6.0,0.0
1478,68.0,1.0,120.0,1.0,0.0
1479,60.0,0.0,120.0,1.0,0.0
1480,68.0,1.0,120.0,2.0,0.0
1481,56.0,47.0,60.0,11.0,0.0
1482,48.0,4.0,120.0,5.0,0.0
1483,48.0,2.0,60.0,12.0,0.0
1484,51.0,0.0,60.0,12.0,0.0
1485,44.0,1.0,60.0,13.0,0.0
1486,56.0,2.0,120.0,3.0,0.0
1487,44.0,2.0,60.0,3.0,0.0
1488,44.0,45.0,15.0,15.0,0.0
1489,32.0,2.0,60.0,14.0,0.0
1490,67.0,3.0,60.0,10.0,0.0
1491,55.0,2.0,60.0,11.0,0.0
1492,51.0,0.0,60.0,12.0,0.0
1493,60.0,2.0,60.0,12.0,0.0
1494,44.0,1.0,60.0,13.0,0.0
1495,44.0,3.0,60.0,3.0,0.0
1496,32.0,1.0,60.0,14.0,0.0
1497,68.0,3.0,30.0,10.0,0.0
1498,56.0,22.0,30.0,11.0,0.0
1499,60.0,2.0,60.0,12.0,0.0
1500,51.0,0.0,60.0,12.0,0.0
1501,44.0,1.0,60.0,13.0,0.0
1502,44.0,3.0,60.0,3.0,0.0
1503,32.0,29.0,60.0,14.0,0.0
1504,70.0,3.0,30.0,10.0,0.0
1505,58.0,22.0,30.0,11.0,0.0
1506,51.0,0.0,60.0,12.0,0.0
1507,60.0,2.0,60.0,12.0,0.0
1508,44.0,1.0,60.0,13.0,0.0
1509,44.0,3.0,60.0,3.0,0.0
1510,32.0,54.0,60.0,14.0,0.0
1511,72.0,1.0,60.0,10.0,0.0
1512,60.0,47.0,60.0,11.0,0.0
1513,60.0,0.0,60.0,12.0,0.0
1514,51.0,2.0,60.0,12.0,0.0
1515,44.0,1.0,60.0,13.0,0.0
1516,44.0,2.0,60.0,3.0,0.0
1517,32.0,2.0,60.0,14.0,0.0
1518,70.0,3.0,60.0,10.0,0.0
1519,58.0,2.0,60.0,11.0,0.0
1520,51.0,0.0,60.0,12.0,0.0
1521,60.0,2.0,60.0,12.0,0.0
1522,44.0,1.0,60.0,13.0,0.0
1523,44.0,3.0,60.0,3.0,0.0
1524,32.0,29.0,60.0,14.0,0.0
1525,72.0,3.0,30.0,10.0,0.0
1526,60.0,22.0,30.0,11.0,0.0
1527,51.0,0.0,60.0,12.0,0.0
1528,60.0,2.0,60.0,12.0,0.0
1529,44.0,1.0,60.0,13.0,0.0
1530,44.0,3.0,60.0,3.0,0.0
1531,32.0,29.0,60.0,14.0,0.0
1532,73.0,3.0,30.0,10.0,0.0
1533,61.0,22.0,30.0,11.0,0.0
1534,51.0,0.0,60.0,12.0,0.0
1535,60.0,2.0,60.0,12.0,0.0
1536,44.0,1.0,60.0,13.0,0.0
1537,44.0,3.0,60.0,3.0,0.0
1538,32.0,54.0,60.0,14.0,0.0
1539,75.0,1.0,60.0,10.0,0.0
1540,63.0,47.0,60.0,11.0,0.0
1541,51.0,0.0,60.0,12.0,0.0
1542,60.0,2.0,60.0,12.0,0.0
1543,44.0,1.0,60.0,13.0,0.0
1544,44.0,2.0,60.0,3.0,0.0
1545,32.0,2.0,60.0,14.0,0.0
1546,74.0,3.0,60.0,10.0,0.0
1547,62.0,2.0,60.0,11.0,0.0
1548,60.0,0.0,60.0,12.0,0.0
1549,51.0,2.0,60.0,12.0,0.0
1550,44.0,1.0,60.0,13.0,0.0
1551,44.0,3.0,60.0,3.0,0.0
1552,32.0,29.0,60.0,14.0,0.0
1553,75.0,3.0,30.0,10.0,0.0
1554,80.0,1.0,120.0,0.0,0.0
1555,68.0,1.0,120.0,1.0,0.0
1556,72.0,0.0,120.0,1.0,0.0
1557,68.0,0.0,120.0,2.0,0.0
1558,63.0,22.0,30.0,11.0,0.0
1559,60.0,2.0,120.0,2.0,0.0
1560,60.0,2.0,60.0,12.0,0.0
1561,51.0,0.0,60.0,12.0,0.0
1562,44.0,1.0,60.0,13.0,0.0
1563,56.0,3.0,120.0,3.0,0.0
1564,44.0,3.0,60.0,3.0,0.0
1565,32.0,29.0,60.0,14.0,0.0
1566,74.0,3.0,30.0,10.0,0.0
1567,62.0,18.0,30.0,11.0,0.0
1568,51.0,0.0,60.0,12.0,0.0
1569,60.0,2.0,60.0,12.0,0.0
1570,44.0,1.0,60.0,13.0,0.0
1571,44.0,0.0,60.0,3.0,0.0
1572,32.0,1.0,60.0,14.0,0.0
1573,75.0,1.0,60.0,10.0,0.0
1574,80.0,1.0,120.0,0.0,0.0
1575,72.0,1.0,120.0,1.0,0.0
1576,68.0,0.0,120.0,1.0,0.0
1577,56.0,2.0,15.0,4.0,0.0
1578,63.0,47.0,60.0,11.0,0.0
1579,68.0,2.0,120.0,2.0,0.0
1580,60.0,0.0,120.0,2.0,0.0
1581,48.0,51.0,15.0,5.0,0.0
1582,51.0,2.0,60.0,12.0,0.0
1583,60.0,0.0,60.0,12.0,0.0
1584,44.0,1.0,60.0,13.0,0.0
1585,56.0,3.0,120.0,3.0,0.0
1586,44.0,2.0,60.0,3.0,0.0
1587,32.0,2.0,60.0,14.0,0.0
1588,72.0,1.0,60.0,10.0,0.0
1589,60.0,0.0,60.0,11.0,0.0
1590,60.0,0.0,60.0,12.0,0.0
1591,51.0,2.0,60.0,12.0,0.0
1592,44.0,1.0,60.0,13.0,0.0
1593,44.0,0.0,60.0,3.0,0.0
1594,32.0,1.0,60.0,14.0,0.0
1595,70.0,3.0,30.0,10.0,0.0
1596,80.0,1.0,120.0,0.0,0.0
1597,68.0,0.0,120.0,1.0,0.0
1598,72.0,1.0,120.0,1.0,0.0
1599,56.0,2.0,120.0,4.0,0.0
1600,68.0,2.0,120.0,2.0,0.0
1601,58.0,22.0,30.0,11.0,0.0
1602,60.0,0.0,120.0,2.0,0.0
1603,48.0,26.0,15.0,5.0,0.0
1604,60.0,0.0,60.0,12.0,0.0
1605,51.0,2.0,60.0,12.0,0.0
1606,44.0,1.0,60.0,13.0,0.0
1607,44.0,3.0,60.0,3.0,0.0
1608,56.0,3.0,120.0,3.0,0.0
1609,32.0,29.0,60.0,14.0,0.0
1610,68.0,3.0,30.0,10.0,0.0
1611,56.0,18.0,30.0,11.0,0.0
1612,51.0,2.0,60.0,12.0,0.0
1613,60.0,0.0,60.0,12.0,0.0
1614,44.0,1.0,60.0,13.0,0.0
1615,44.0,0.0,60.0,3.0,0.0
1616,32.0,1.0,60.0,14.0,0.0
1617,67.0,3.0,60.0,10.0,0.0
1618,58.0,0.0,60.0,10.0,0.0
1619,79.0,0.0,60.0,0.0,0.0
1620,73.0,1.0,600.0,1.0,0.0
1621,67.0,0.0,600.0,1.0,0.0
1622,67.0,5.0,60.0,2.0,0.0
1623,55.0,2.0,60.0,11.0,0.0
1624,51.0,2.0,60.0,12.0,0.0
1625,61.0,0.0,60.0,12.0,0.0
1626,44.0,1.0,60.0,13.0,0.0
1627,44.0,3.0,60.0,3.0,0.0
1628,55.0,42.0,60.0,3.0,0.0
1629,32.0,2.0,60.0,14.0,0.0
1630,58.0,0.0,60.0,10.0,0.0
1631,67.0,3.0,60.0,10.0,0.0
1632,77.0,2.0,60.0,0.0,0.0
1633,65.0,5.0,60.0,2.0,0.0
1634,58.0,2.0,60.0,11.0,0.0
1635,55.0,0.0,60.0,11.0,0.0
1636,61.0,2.0,60.0,12.0,0.0
1637,51.0,0.0,60.0,12.0,0.0
1638,44.0,1.0,60.0,13.0,0.0
1639,53.0,42.0,60.0,3.0,0.0
1640,44.0,3.0,60.0,3.0,0.0
1641,32.0,0.0,60.0,14.0,0.0
1642,58.0,3.0,60.0,10.0,0.0
1643,67.0,0.0,60.0,10.0,0.0
1644,75.0,0.0,60.0,0.0,0.0
1645,63.0,5.0,60.0,2.0,0.0
1646,58.0,0.0,60.0,11.0,0.0
1647,55.0,2.0,60.0,11.0,0.0
1648,61.0,0.0,60.0,12.0,0.0
1649,51.0,2.0,60.0,12.0,0.0
1650,44.0,1.0,60.0,13.0,0.0
1651,51.0,42.0,60.0,3.0,0.0
1652,44.0,3.0,60.0,3.0,0.0
1653,32.0,2.0,60.0,14.0,0.0
1654,58.0,3.0,60.0,10.0,0.0
1655,67.0,0.0,60.0,10.0,0.0
1656,77.0,0.0,60.0,0.0,0.0
1657,65.0,5.0,60.0,2.0,0.0
1658,55.0,0.0,60.0,11.0,0.0
1659,58.0,2.0,60.0,11.0,0.0
1660,51.0,2.0,60.0,12.0,0.0
1661,61.0,0.0,60.0,12.0,0.0
1662,44.0,1.0,60.0,13.0,0.0
1663,44.0,3.0,60.0,3.0,0.0
1664,53.0,42.0,60.0,3.0,0.0
1665,32.0,2.0,60.0,14.0,0.0
1666,67.0,3.0,60.0,10.0,0.0
1667,58.0,0.0,60.0,10.0,0.0
1668,79.0,0.0,60.0,0.0,0.0
1669,67.0,5.0,60.0,2.0,0.0
1670,55.0,2.0,60.0,11.0,0.0
1671,58.0,0.0,60.0,11.0,0.0
1672,61.0,0.0,60.0,12.0,0.0
1673,51.0,2.0,60.0,12.0,0.0
1674,44.0,1.0,60.0,13.0,0.0
1675,44.0,3.0,60.0,3.0,0.0
1676,55.0,42.0,60.0,3.0,0.0
1677,32.0,2.0,60.0,14.0,0.0
1678,58.0,0.0,60.0,10.0,0.0
1679,67.0,3.0,60.0,10.0,0.0
1680,80.0,0.0,60.0,0.0,0.0
1681,58.0,0.0,60.0,11.0,0.0
1682,55.0,2.0,60.0,11.0,0.0
1683,68.0,5.0,60.0,2.0,0.0
1684,51.0,0.0,60.0,12.0,0.0
1685,61.0,2.0,60.0,12.0,0.0
1686,44.0,1.0,60.0,13.0,0.0
1687,56.0,42.0,60.0,3.0,0.0
1688,44.0,3.0,60.0,3.0,0.0
1689,32.0,2.0,60.0,14.0,0.0
1690,58.0,0.0,60.0,10.0,0.0
1691,67.0,3.0,60.0,10.0,0.0
1692,82.0,0.0,60.0,0.0,0.0
1693,58.0,2.0,60.0,11.0,0.0
1694,55.0,0.0,60.0,11.0,0.0
1695,70.0,5.0,60.0,2.0,0.0
1696,61.0,2.0,60.0,12.0,0.0
1697,51.0,0.0,60.0,12.0,0.0
1698,44.0,1.0,60.0,13.0,0.0
1699,58.0,42.0,60.0,3.0,0.0
1700,44.0,3.0,60.0,3.0,0.0
1701,32.0,2.0,60.0,14.0,0.0
1702,67.0,0.0,60.0,10.0,0.0
1703,58.0,1.0,60.0,10.0,0.0
1704,84.0,2.0,60.0,0.0,0.0
1705,55.0,0.0,60.0,11.0,0.0
1706,72.0,2.0,60.0,2.0,0.0
1707,58.0,0.0,60.0,11.0,0.0
1708,51.0,2.0,60.0,12.0,0.0
1709,61.0,0.0,60.0,12.0,0.0
1710,44.0,1.0,60.0,13.0,0.0
1711,60.0,0.0,60.0,3.0,0.0
1712,44.0,3.0,60.0,3.0,0.0
1713,32.0,49.0,60.0,14.0,0.0
1714,58.0,0.0,60.0,10.0,0.0
1715,67.0,3.0,60.0,10.0,0.0
1716,85.0,0.0,60.0,0.0,0.0
1717,73.0,5.0,60.0,2.0,0.0
1718,55.0,0.0,60.0,11.0,0.0
1719,58.0,2.0,60.0,11.0,0.0
1720,61.0,0.0,60.0,12.0,0.0
1721,51.0,2.0,60.0,12.0,0.0
1722,44.0,1.0,60.0,13.0,0.0
1723,61.0,42.0,60.0,3.0,0.0
1724,44.0,3.0,60.0,3.0,0.0
1725,32.0,2.0,60.0,14.0,0.0
1726,67.0,0.0,60.0,10.0,0.0
1727,58.0,3.0,60.0,10.0,0.0
1728,84.0,1.0,60.0,0.0,0.0
1729,58.0,2.0,60.0,11.0,0.0
1730,55.0,0.0,60.0,11.0,0.0
1731,72.0,1.0,60.0,2.0,0.0
1732,51.0,2.0,60.0,12.0,0.0
1733,61.0,0.0,60.0,12.0,0.0
1734,44.0,1.0,60.0,13.0,0.0
1735,60.0,42.0,60.0,3.0,0.0
1736,44.0,3.0,60.0,3.0,0.0
1737,32.0,0.0,60.0,14.0,0.0
1738,67.0,0.0,60.0,10.0,0.0
1739,58.0,3.0,60.0,10.0,0.0
1740,85.0,0.0,60.0,0.0,0.0
1741,63.0,0.0,120.0,6.0,0.0
1742,58.0,0.0,15.0,4.0,0.0
1743,67.0,0.0,120.0,1.0,0.0
1744,61.0,1.0,120.0,1.0,0.0
1745,73.0,5.0,60.0,2.0,0.0
1746,55.0,0.0,60.0,11.0,0.0
1747,58.0,2.0,60.0,11.0,0.0
1748,51.0,4.0,15.0,5.0,0.0
1749,61.0,0.0,60.0,12.0,0.0
1750,51.0,2.0,60.0,12.0,0.0
1751,44.0,1.0,60.0,13.0,0.0
1752,61.0,42.0,60.0,3.0,0.0
1753,44.0,3.0,60.0,3.0,0.0
1754,32.0,2.0,60.0,14.0,0.0
1755,67.0,0.0,60.0,10.0,0.0
1756,58.0,2.0,60.0,10.0,0.0
1757,84.0,0.0,60.0,0.0,0.0
1758,72.0,1.0,60.0,2.0,0.0
1759,58.0,0.0,60.0,11.0,0.0
1760,55.0,2.0,60.0,11.0,0.0
1761,61.0,2.0,60.0,12.0,0.0
1762,51.0,0.0,60.0,12.0,0.0
1763,44.0,1.0,60.0,13.0,0.0
1764,44.0,3.0,60.0,3.0,0.0
1765,60.0,2.0,60.0,3.0,0.0
1766,32.0,1.0,60.0,14.0,0.0
1767,58.0,0.0,60.0,10.0,0.0
1768,67.0,3.0,60.0,10.0,0.0
1769,85.0,2.0,60.0,0.0,0.0
1770,70.0,0.0,15.0,6.0,0.0
1771,61.0,0.0,120.0,1.0,0.0
1772,58.0,0.0,120.0,4.0,0.0
1773,67.0,1.0,120.0,1.0,0.0
1774,55.0,2.0,60.0,11.0,0.0
1775,73.0,5.0,60.0,2.0,0.0
1776,58.0,0.0,60.0,11.0,0.0
1777,51.0,4.0,15.0,5.0,0.0
1778,51.0,2.0,60.0,12.0,0.0
1779,61.0,0.0,60.0,12.0,0.0
1780,44.0,1.0,60.0,13.0,0.0
1781,61.0,42.0,60.0,3.0,0.0
1782,44.0,3.0,60.0,3.0,0.0
1783,44.0,40.0,15.0,15.0,0.0
1784,32.0,0.0,60.0,14.0,0.0
1785,67.0,2.0,60.0,10.0,0.0
1786,58.0,0.0,60.0,10.0,0.0
1787,82.0,0.0,60.0,0.0,0.0
1788,58.0,0.0,60.0,11.0,0.0
1789,70.0,1.0,60.0,2.0,0.0
1790,55.0,2.0,60.0,11.0,0.0
1791,61.0,0.0,60.0,12.0,0.0
1792,51.0,2.0,60.0,12.0,0.0
1793,44.0,1.0,60.0,13.0,0.0
1794,58.0,2.0,60.0,3.0,0.0
1795,44.0,3.0,60.0,3.0,0.0
1796,32.0,1.0,60.0,14.0,0.0
1797,67.0,0.0,60.0,10.0,0.0
1798,58.0,3.0,60.0,10.0,0.0
1799,80.0,0.0,60.0,0.0,0.0
1800,63.0,0.0,15.0,6.0,0.0
1801,67.0,0.0,120.0,1.0,0.0
1802,61.0,1.0,120.0,1.0,0.0
1803,58.0,0.0,120.0,4.0,0.0
1804,70.0,2.0,120.0,6.0,0.0
1805,58.0,2.0,60.0,11.0,0.0
1806,55.0,0.0,60.0,11.0,0.0
1807,68.0,5.0,60.0,2.0,0.0
1808,51.0,6.0,120.0,5.0,0.0
1809,61.0,0.0,60.0,12.0,0.0
1810,51.0,2.0,60.0,12.0,0.0
1811,44.0,1.0,60.0,13.0,0.0
1812,44.0,3.0,60.0,3.0,0.0
1813,56.0,42.0,60.0,3.0,0.0
1814,44.0,40.0,15.0,15.0,0.0
1815,32.0,2.0,60.0,14.0,0.0
1816,67.0,0.0,60.0,10.0,0.0
1817,58.0,1.0,60.0,10.0,0.0
1818,79.0,1.0,60.0,0.0,0.0
1819,67.0,0.0,60.0,2.0,0.0
1820,58.0,2.0,60.0,11.0,0.0
1821,55.0,0.0,60.0,11.0,0.0
1822,61.0,2.0,60.0,12.0,0.0
1823,51.0,0.0,60.0,12.0,0.0
1824,44.0,1.0,60.0,13.0,0.0
1825,44.0,3.0,60.0,3.0,0.0
1826,55.0,0.0,60.0,3.0,0.0
1827,32.0,1.0,60.0,14.0,0.0
1828,68.0,3.0,30.0,10.0,0.0
1829,80.0,1.0,120.0,0.0,0.0
1830,68.0,0.0,120.0,6.0,0.0
1831,60.0,0.0,120.0,6.0,0.0
1832,68.0,0.0,120.0,1.0,0.0
1833,56.0,1.0,120.0,4.0,0.0
1834,60.0,0.0,120.0,1.0,0.0
1835,56.0,57.0,30.0,11.0,0.0
1836,68.0,1.0,120.0,2.0,0.0
1837,48.0,1.0,120.0,5.0,0.0
1838,51.0,0.0,120.0,12.0,0.0
1839,60.0,2.0,120.0,12.0,0.0
1840,44.0,1.0,120.0,13.0,0.0
1841,44.0,2.0,120.0,3.0,0.0
1842,56.0,0.0,120.0,3.0,0.0
1843,44.0,1.0,120.0,15.0,0.0
1844,32.0,19.0,120.0,14.0,0.0
1845,68.0,3.0,30.0,10.0,0.0
1846,56.0,28.0,30.0,11.0,0.0
1847,63.0,3.0,30.0,10.0,0.0
1848,51.0,57.0,30.0,11.0,0.0
1849,67.0,3.0,30.0,10.0,0.0
1850,55.0,57.0,30.0,11.0,0.0
1851,68.0,3.0,30.0,10.0,0.0
1852,56.0,57.0,30.0,11.0,0.0
1853,68.0,3.0,30.0,10.0,0.0
1854,56.0,57.0,30.0,11.0,0.0
1855,65.0,1.0,30.0,10.0,0.0
1856,77.0,1.0,30.0,0.0,0.0
1857,65.0,1.0,30.0,1.0,0.0
1858,53.0,2.0,30.0,11.0,0.0
1859,65.0,0.0,30.0,2.0,0.0
1860,53.0,2.0,30.0,12.0,0.0
1861,41.0,1.0,30.0,13.0,0.0
1862,41.0,3.0,30.0,3.0,0.0
1863,29.0,49.0,30.0,14.0,0.0
1864,69.0,1.0,30.0,10.0,0.0
1865,81.0,1.0,30.0,0.0,0.0
1866,69.0,1.0,30.0,1.0,0.0
1867,57.0,0.0,30.0,11.0,0.0
1868,69.0,2.0,30.0,2.0,0.0
1869,57.0,2.0,30.0,12.0,0.0
1870,45.0,1.0,30.0,13.0,0.0
1871,45.0,3.0,30.0,3.0,0.0
1872,33.0,49.0,30.0,14.0,0.0
1873,70.0,3.0,30.0,10.0,0.0
1874,82.0,1.0,120.0,0.0,0.0
1875,70.0,1.0,120.0,1.0,0.0
1876,70.0,2.0,120.0,2.0,0.0
1877,58.0,57.0,30.0,11.0,0.0
1878,58.0,2.0,120.0,12.0,0.0
1879,46.0,1.0,120.0,13.0,0.0
1880,46.0,3.0,120.0,3.0,0.0
1881,34.0,19.0,120.0,14.0,0.0
1882,70.0,3.0,30.0,10.0,0.0
1883,58.0,28.0,30.0,11.0,0.0
1884,65.0,3.0,30.0,10.0,0.0
1885,53.0,57.0,30.0,11.0,0.0
1886,69.0,3.0,30.0,10.0,0.0
1887,57.0,57.0,30.0,11.0,0.0
1888,70.0,3.0,30.0,10.0,0.0
1889,58.0,57.0,30.0,11.0,0.0
1890,70.0,3.0,30.0,10.0,0.0
1891,58.0,57.0,30.0,11.0,0.0
1892,67.0,1.0,30.0,10.0,0.0
1893,79.0,1.0,30.0,0.0,0.0
1894,67.0,1.0,30.0,1.0,0.0
1895,67.0,2.0,30.0,2.0,0.0
1896,55.0,0.0,30.0,11.0,0.0
1897,55.0,2.0,30.0,12.0,0.0
1898,43.0,1.0,30.0,13.0,0.0
1899,43.0,3.0,30.0,3.0,0.0
1900,31.0,49.0,30.0,14.0,0.0
1901,71.0,1.0,30.0,10.0,0.0
1902,83.0,1.0,30.0,0.0,0.0
1903,71.0,1.0,30.0,1.0,0.0
1904,59.0,0.0,30.0,11.0,0.0
1905,71.0,2.0,30.0,2.0,0.0
1906,59.0,2.0,30.0,12.0,0.0
1907,47.0,1.0,30.0,13.0,0.0
1908,47.0,3.0,30.0,3.0,0.0
1909,35.0,49.0,30.0,14.0,0.0
1910,72.0,3.0,30.0,10.0,0.0
1911,84.0,1.0,60.0,0.0,0.0
1912,72.0,1.0,60.0,1.0,0.0
1913,72.0,5.0,60.0,2.0,0.0
1914,60.0,2.0,30.0,11.0,0.0
1915,60.0,2.0,30.0,12.0,0.0
1916,48.0,4.0,30.0,13.0,0.0
1917,48.0,32.0,60.0,3.0,0.0
1918,36.0,10.0,30.0,14.0,0.0
1919,72.0,3.0,30.0,10.0,0.0
1920,72.0,1.0,60.0,0.0,0.0
1921,72.0,1.0,60.0,1.0,0.0
1922,60.0,2.0,30.0,11.0,0.0
1923,60.0,5.0,60.0,2.0,0.0
1924,60.0,2.0,30.0,12.0,0.0
1925,48.0,4.0,30.0,13.0,0.0
1926,48.0,32.0,60.0,3.0,0.0
1927,36.0,10.0,30.0,14.0,0.0
1928,68.0,3.0,30.0,10.0,0.0
1929,68.0,1.0,60.0,0.0,0.0
1930,68.0,1.0,60.0,1.0,0.0
1931,56.0,5.0,60.0,2.0,0.0
1932,56.0,2.0,30.0,11.0,0.0
1933,56.0,2.0,30.0,12.0,0.0
1934,44.0,4.0,30.0,13.0,0.0
1935,44.0,32.0,60.0,3.0,0.0
1936,32.0,10.0,30.0,14.0,0.0
1937,72.0,3.0,30.0,10.0,0.0
1938,72.0,1.0,60.0,0.0,0.0
1939,72.0,1.0,60.0,1.0,0.0
1940,60.0,5.0,60.0,2.0,0.0
1941,60.0,2.0,30.0,11.0,0.0
1942,60.0,2.0,30.0,12.0,0.0
1943,48.0,4.0,30.0,13.0,0.0
1944,48.0,32.0,60.0,3.0,0.0
1945,36.0,10.0,30.0,14.0,0.0
1946,73.0,3.0,30.0,10.0,0.0
1947,73.0,1.0,60.0,0.0,0.0
1948,73.0,1.0,60.0,1.0,0.0
1949,61.0,5.0,60.0,2.0,0.0
1950,61.0,2.0,30.0,11.0,0.0
1951,61.0,2.0,30.0,12.0,0.0
1952,49.0,4.0,30.0,13.0,0.0
1953,49.0,32.0,60.0,3.0,0.0
1954,37.0,10.0,30.0,14.0,0.0
1955,70.0,3.0,30.0,10.0,0.0
1956,70.0,1.0,60.0,0.0,0.0
1957,70.0,1.0,60.0,1.0,0.0
1958,58.0,2.0,30.0,11.0,0.0
1959,58.0,5.0,60.0,2.0,0.0
1960,58.0,2.0,30.0,12.0,0.0
1961,46.0,4.0,30.0,13.0,0.0
1962,46.0,32.0,60.0,3.0,0.0
1963,34.0,10.0,30.0,14.0,0.0
1964,75.0,3.0,30.0,10.0,0.0
1965,75.0,1.0,60.0,0.0,0.0
1966,75.0,1.0,60.0,1.0,0.0
1967,63.0,2.0,30.0,11.0,0.0
1968,63.0,5.0,60.0,2.0,0.0
1969,63.0,2.0,30.0,12.0,0.0
1970,51.0,4.0,30.0,13.0,0.0
1971,51.0,32.0,60.0,3.0,0.0
1972,39.0,10.0,30.0,14.0,0.0
1973,72.0,3.0,30.0,10.0,0.0
1974,72.0,1.0,60.0,0.0,0.0
1975,72.0,1.0,60.0,1.0,0.0
1976,60.0,2.0,30.0,11.0,0.0
1977,60.0,5.0,60.0,2.0,0.0
1978,60.0,2.0,30.0,12.0,0.0
1979,48.0,4.0,30.0,13.0,0.0
1980,48.0,32.0,60.0,3.0,0.0
1981,36.0,10.0,30.0,14.0,0.0
1982,77.0,3.0,30.0,10.0,0.0
1983,77.0,1.0,60.0,0.0,0.0
1984,77.0,1.0,60.0,1.0,0.0
1985,65.0,5.0,60.0,2.0,0.0
1986,65.0,2.0,30.0,11.0,0.0
1987,65.0,2.0,30.0,12.0,0.0
1988,53.0,4.0,30.0,13.0,0.0
1989,53.0,32.0,60.0,3.0,0.0
1990,41.0,10.0,30.0,14.0,0.0
1991,73.0,3.0,30.0,10.0,0.0
1992,73.0,1.0,60.0,0.0,0.0
1993,73.0,1.0,60.0,1.0,0.0
1994,61.0,5.0,60.0,2.0,0.0
1995,61.0,2.0,30.0,11.0,0.0
1996,61.0,2.0,30.0,12.0,0.0
1997,49.0,4.0,30.0,13.0,0.0
1998,49.0,32.0,60.0,3.0,0.0
1999,37.0,10.0,30.0,14.0,0.0
2000,79.0,3.0,30.0,10.0,0.0
2001,79.0,1.0,60.0,0.0,0.0
2002,79.0,1.0,60.0,1.0,0.0
2003,67.0,5.0,60.0,2.0,0.0
2004,67.0,2.0,30.0,11.0,0.0
2005,67.0,2.0,30.0,12.0,0.0
2006,55.0,4.0,30.0,13.0,0.0
2007,55.0,32.0,60.0,3.0,0.0
2008,43.0,10.0,30.0,14.0,0.0
2009,75.0,3.0,30.0,10.0,0.0
2010,75.0,1.0,60.0,0.0,0.0
2011,75.0,1.0,60.0,1.0,0.0
2012,63.0,2.0,30.0,11.0,0.0
2013,63.0,5.0,60.0,2.0,0.0
2014,63.0,2.0,30.0,12.0,0.0
2015,51.0,4.0,30.0,13.0,0.0
2016,51.0,32.0,60.0,3.0,0.0
2017,39.0,10.0,30.0,14.0,0.0
2018,80.0,3.0,30.0,10.0,0.0
2019,80.0,1.0,60.0,0.0,0.0
2020,80.0,1.0,60.0,1.0,0.0
2021,68.0,5.0,60.0,2.0,0.0
2022,68.0,2.0,30.0,11.0,0.0
2023,68.0,2.0,30.0,12.0,0.0
2024,56.0,4.0,30.0,13.0,0.0
2025,56.0,32.0,60.0,3.0,0.0
2026,44.0,10.0,30.0,14.0,0.0
2027,77.0,3.0,30.0,10.0,0.0
2028,77.0,1.0,60.0,0.0,0.0
2029,77.0,1.0,60.0,1.0,0.0
2030,65.0,2.0,30.0,11.0,0.0
2031,65.0,5.0,60.0,2.0,0.0
2032,65.0,2.0,30.0,12.0,0.0
2033,53.0,4.0,30.0,13.0,0.0
2034,53.0,32.0,60.0,3.0,0.0
2035,41.0,10.0,30.0,14.0,0.0
2036,72.0,3.0,30.0,10.0,0.0
2037,72.0,1.0,60.0,0.0,0.0
2038,72.0,1.0,60.0,1.0,0.0
2039,60.0,5.0,60.0,2.0,0.0
2040,60.0,2.0,30.0,11.0,0.0
2041,60.0,2.0,30.0,12.0,0.0
2042,48.0,4.0,30.0,13.0,0.0
2043,48.0,32.0,60.0,3.0,0.0
2044,36.0,10.0,30.0,14.0,0.0
2045,74.0,3.0,30.0,10.0,0.0
2046,74.0,1.0,60.0,0.0,0.0
2047,74.0,1.0,60.0,1.0,0.0
2048,62.0,2.0,30.0,11.0,0.0
2049,62.0,5.0,60.0,2.0,0.0
2050,62.0,2.0,30.0,12.0,0.0
2051,50.0,4.0,30.0,13.0,0.0
2052,50.0,57.0,60.0,3.0,0.0
2053,38.0,10.0,30.0,14.0,0.0
2054,75.0,2.0,120.0,10.0,0.0
2055,75.0,0.0,60.0,0.0,0.0
2056,63.0,0.0,120.0,4.0,0.0
2057,75.0,1.0,120.0,1.0,0.0
2058,63.0,1.0,120.0,11.0,0.0
2059,63.0,32.0,60.0,2.0,0.0
2060,51.0,4.0,120.0,5.0,0.0
2061,51.0,2.0,60.0,12.0,0.0
2062,39.0,4.0,60.0,13.0,0.0
2063,51.0,27.0,120.0,3.0,0.0
2064,27.0,2.0,60.0,14.0,0.0
2065,63.0,2.0,30.0,12.0,0.0
2066,51.0,4.0,30.0,13.0,0.0
2067,39.0,19.0,30.0,14.0,0.0
2068,79.0,0.0,60.0,0.0,0.0
2069,82.0,2.0,60.0,0.0,0.0
2070,58.0,2.0,120.0,4.0,0.0
2071,67.0,32.0,60.0,2.0,0.0
2072,70.0,0.0,60.0,2.0,0.0
2073,51.0,57.0,120.0,5.0,0.0
2074,63.0,2.0,30.0,12.0,0.0
2075,51.0,4.0,30.0,13.0,0.0
2076,39.0,20.0,30.0,14.0,0.0
2077,63.0,2.0,30.0,12.0,0.0
2078,51.0,4.0,30.0,13.0,0.0
2079,39.0,21.0,30.0,14.0,0.0
2080,80.0,0.0,60.0,0.0,0.0
2081,84.0,2.0,60.0,0.0,0.0
2082,60.0,2.0,120.0,4.0,0.0
2083,72.0,0.0,60.0,2.0,0.0
2084,68.0,2.0,60.0,2.0,0.0
2085,61.0,2.0,60.0,12.0,0.0
2086,49.0,4.0,60.0,13.0,0.0
2087,37.0,44.0,60.0,14.0,0.0
2088,60.0,2.0,60.0,12.0,0.0
2089,48.0,4.0,60.0,13.0,0.0
2090,36.0,1.0,60.0,14.0,0.0
2091,80.0,2.0,60.0,0.0,0.0
2092,84.0,0.0,60.0,0.0,0.0
2093,60.0,2.0,120.0,4.0,0.0
2094,72.0,0.0,60.0,2.0,0.0
2095,68.0,32.0,60.0,2.0,0.0
2096,56.0,31.0,15.0,5.0,0.0
2097,58.0,2.0,30.0,12.0,0.0
2098,46.0,4.0,30.0,13.0,0.0
2099,34.0,20.0,30.0,14.0,0.0
2100,56.0,2.0,30.0,12.0,0.0
2101,44.0,4.0,30.0,13.0,0.0
2102,32.0,21.0,30.0,14.0,0.0
2103,63.0,3.0,120.0,10.0,0.0
2104,79.0,30.0,60.0,0.0,0.0
2105,82.0,30.0,30.0,0.0,0.0
2106,51.0,1.0,120.0,6.0,0.0
2107,58.0,0.0,120.0,4.0,0.0
2108,63.0,0.0,120.0,6.0,0.0
2109,70.0,0.0,120.0,2.0,0.0
2110,67.0,1.0,120.0,2.0,0.0
2111,58.0,7.0,120.0,11.0,0.0
2112,51.0,1.0,120.0,5.0,0.0
2113,51.0,2.0,120.0,12.0,0.0
2114,39.0,3.0,120.0,13.0,0.0
2115,39.0,1.0,120.0,15.0,0.0
2116,79.0,0.0,120.0,10.0,0.0
2117,70.0,3.0,120.0,10.0,0.0
2118,27.0,20.0,120.0,14.0,0.0
2119,67.0,0.0,120.0,11.0,0.0
2120,75.0,4.0,120.0,11.0,0.0
2121,87.0,1.0,30.0,0.0,0.0
2122,75.0,6.0,30.0,1.0,0.0
2123,63.0,7.0,30.0,3.0,0.0
2124,87.0,1.0,30.0,0.0,0.0
2125,75.0,6.0,30.0,1.0,0.0
2126,63.0,53.0,30.0,3.0,0.0
2127,87.0,1.0,30.0,0.0,0.0
2128,75.0,6.0,30.0,1.0,0.0
2129,63.0,83.0,30.0,3.0,0.0
2130,63.0,3.0,120.0,10.0,0.0
2131,85.0,1.0,60.0,0.0,0.0
2132,63.0,3.0,120.0,6.0,0.0
2133,51.0,0.0,120.0,6.0,0.0
2134,73.0,6.0,60.0,1.0,0.0
2135,60.0,3.0,120.0,11.0,0.0
2136,63.0,2.0,120.0,12.0,0.0
2137,51.0,3.0,120.0,13.0,0.0
2138,61.0,37.0,60.0,3.0,0.0
2139,72.0,3.0,120.0,10.0,0.0
2140,80.0,0.0,120.0,10.0,0.0
2141,39.0,1.0,120.0,15.0,0.0
2142,39.0,20.0,120.0,14.0,0.0
2143,75.0,0.0,120.0,11.0,0.0
2144,68.0,0.0,120.0,11.0,0.0
2145,84.0,1.0,60.0,0.0,0.0
2146,72.0,3.0,60.0,1.0,0.0
2147,60.0,4.0,60.0,3.0,0.0
2148,82.0,1.0,30.0,0.0,0.0
2149,70.0,6.0,30.0,1.0,0.0
2150,58.0,53.0,30.0,3.0,0.0
2151,80.0,1.0,30.0,0.0,0.0
2152,68.0,6.0,30.0,1.0,0.0
2153,56.0,77.0,30.0,3.0,0.0
2154,63.0,3.0,120.0,10.0,0.0
2155,75.0,34.0,60.0,0.0,0.0
2156,51.0,0.0,120.0,6.0,0.0
2157,63.0,6.0,120.0,6.0,0.0
2158,63.0,0.0,120.0,1.0,0.0
2159,58.0,7.0,120.0,11.0,0.0
2160,51.0,2.0,60.0,12.0,0.0
2161,39.0,4.0,60.0,13.0,0.0
2162,51.0,2.0,120.0,3.0,0.0
2163,39.0,25.0,120.0,15.0,0.0
2164,79.0,3.0,120.0,10.0,0.0
2165,70.0,0.0,120.0,10.0,0.0
2166,27.0,0.0,60.0,14.0,0.0
2167,67.0,4.0,120.0,11.0,0.0
2168,75.0,0.0,120.0,11.0,0.0
2169,63.0,2.0,30.0,12.0,0.0
2170,51.0,4.0,30.0,13.0,0.0
2171,39.0,4.0,30.0,14.0,0.0
2172,82.0,2.0,60.0,0.0,0.0
2173,79.0,0.0,60.0,0.0,0.0
2174,58.0,2.0,120.0,4.0,0.0
2175,70.0,0.0,60.0,2.0,0.0
2176,67.0,32.0,60.0,2.0,0.0
2177,51.0,57.0,120.0,5.0,0.0
2178,63.0,2.0,30.0,12.0,0.0
2179,51.0,4.0,30.0,13.0,0.0
2180,39.0,20.0,30.0,14.0,0.0
2181,63.0,2.0,30.0,12.0,0.0
2182,51.0,4.0,30.0,13.0,0.0
2183,39.0,21.0,30.0,14.0,0.0
2184,80.0,2.0,60.0,0.0,0.0
2185,84.0,0.0,60.0,0.0,0.0
2186,68.0,2.0,60.0,2.0,0.0
2187,72.0,0.0,60.0,2.0,0.0
2188,56.0,31.0,120.0,5.0,0.0
2189,61.0,2.0,60.0,12.0,0.0
2190,49.0,4.0,60.0,13.0,0.0
2191,37.0,44.0,60.0,14.0,0.0
2192,60.0,2.0,60.0,12.0,0.0
2193,48.0,4.0,60.0,13.0,0.0
2194,36.0,1.0,60.0,14.0,0.0
2195,84.0,0.0,60.0,0.0,0.0
2196,80.0,2.0,60.0,0.0,0.0
2197,60.0,2.0,15.0,4.0,0.0
2198,68.0,0.0,60.0,2.0,0.0
2199,72.0,32.0,60.0,2.0,0.0
2200,56.0,27.0,120.0,5.0,0.0
2201,58.0,2.0,30.0,12.0,0.0
2202,46.0,4.0,30.0,13.0,0.0
2203,34.0,20.0,30.0,14.0,0.0
2204,56.0,2.0,30.0,12.0,0.0
2205,44.0,4.0,30.0,13.0,0.0
2206,32.0,21.0,30.0,14.0,0.0
2207,63.0,3.0,120.0,10.0,0.0
2208,82.0,30.0,30.0,0.0,0.0
2209,79.0,30.0,60.0,0.0,0.0
2210,58.0,0.0,120.0,4.0,0.0
2211,51.0,0.0,120.0,6.0,0.0
2212,63.0,1.0,120.0,6.0,0.0
2213,70.0,0.0,120.0,2.0,0.0
2214,67.0,1.0,120.0,2.0,0.0
2215,58.0,7.0,120.0,11.0,0.0
2216,51.0,1.0,120.0,5.0,0.0
2217,51.0,2.0,120.0,12.0,0.0
2218,39.0,3.0,120.0,13.0,0.0
2219,79.0,0.0,120.0,10.0,0.0
2220,70.0,3.0,120.0,10.0,0.0
2221,39.0,1.0,120.0,15.0,0.0
2222,27.0,20.0,120.0,14.0,0.0
2223,75.0,0.0,120.0,11.0,0.0
2224,67.0,4.0,120.0,11.0,0.0
2225,87.0,1.0,30.0,0.0,0.0
2226,75.0,6.0,30.0,1.0,0.0
2227,63.0,7.0,30.0,3.0,0.0
2228,87.0,1.0,30.0,0.0,0.0
2229,75.0,6.0,30.0,1.0,0.0
2230,63.0,53.0,30.0,3.0,0.0
2231,87.0,1.0,30.0,0.0,0.0
2232,75.0,6.0,30.0,1.0,0.0
2233,63.0,83.0,30.0,3.0,0.0
2234,63.0,3.0,120.0,10.0,0.0
2235,85.0,1.0,60.0,0.0,0.0
2236,73.0,6.0,60.0,1.0,0.0
2237,60.0,3.0,120.0,11.0,0.0
2238,63.0,2.0,120.0,12.0,0.0
2239,51.0,4.0,120.0,13.0,0.0
2240,61.0,37.0,60.0,3.0,0.0
2241,80.0,3.0,120.0,10.0,0.0
2242,72.0,0.0,120.0,10.0,0.0
2243,39.0,20.0,120.0,14.0,0.0
2244,68.0,7.0,120.0,11.0,0.0
2245,75.0,0.0,120.0,11.0,0.0
2246,84.0,1.0,60.0,0.0,0.0
2247,72.0,3.0,60.0,1.0,0.0
2248,60.0,0.0,60.0,3.0,0.0
2249,82.0,1.0,30.0,0.0,0.0
2250,70.0,6.0,30.0,1.0,0.0
2251,58.0,53.0,30.0,3.0,0.0
2252,80.0,1.0,30.0,0.0,0.0
2253,68.0,6.0,30.0,1.0,0.0
2254,56.0,77.0,30.0,3.0,0.0
2255,63.0,3.0,120.0,10.0,0.0
2256,75.0,1.0,120.0,0.0,0.0
2257,51.0,0.0,120.0,6.0,0.0
2258,63.0,1.0,120.0,1.0,0.0
2259,63.0,5.0,120.0,2.0,0.0
2260,58.0,7.0,120.0,11.0,0.0
2261,51.0,2.0,60.0,12.0,0.0
2262,39.0,4.0,60.0,13.0,0.0
2263,39.0,0.0,120.0,3.0,0.0
2264,39.0,25.0,120.0,15.0,0.0
2265,70.0,0.0,120.0,10.0,0.0
2266,79.0,3.0,120.0,10.0,0.0
2267,27.0,34.0,60.0,14.0,0.0
2268,67.0,3.0,120.0,11.0,0.0
2269,75.0,0.0,120.0,11.0,0.0
2270,63.0,2.0,30.0,12.0,0.0
2271,51.0,4.0,30.0,13.0,0.0
2272,39.0,4.0,30.0,14.0,0.0
2273,79.0,0.0,120.0,0.0,0.0
2274,82.0,1.0,120.0,0.0,0.0
2275,63.0,0.0,15.0,6.0,0.0
2276,70.0,0.0,120.0,6.0,0.0
2277,58.0,0.0,120.0,4.0,0.0
2278,75.0,0.0,120.0,1.0,0.0
2279,70.0,0.0,120.0,1.0,0.0
2280,70.0,1.0,120.0,2.0,0.0
2281,67.0,0.0,120.0,2.0,0.0
2282,51.0,4.0,120.0,5.0,0.0
2283,63.0,2.0,30.0,12.0,0.0
2284,51.0,4.0,30.0,13.0,0.0
2285,51.0,2.0,15.0,3.0,0.0
2286,63.0,57.0,120.0,3.0,0.0
2287,39.0,54.0,30.0,14.0,0.0
2288,63.0,2.0,30.0,12.0,0.0
2289,51.0,4.0,30.0,13.0,0.0
2290,39.0,20.0,30.0,14.0,0.0
2291,63.0,3.0,120.0,10.0,0.0
2292,60.0,7.0,120.0,11.0,0.0
2293,61.0,2.0,60.0,12.0,0.0
2294,49.0,4.0,60.0,13.0,0.0
2295,72.0,2.0,120.0,10.0,0.0
2296,80.0,0.0,120.0,10.0,0.0
2297,44.0,25.0,120.0,15.0,0.0
2298,37.0,34.0,60.0,14.0,0.0
2299,68.0,3.0,120.0,11.0,0.0
2300,75.0,0.0,120.0,11.0,0.0
2301,60.0,0.0,60.0,12.0,0.0
2302,48.0,1.0,60.0,13.0,0.0
2303,36.0,9.0,60.0,14.0,0.0
2304,84.0,0.0,120.0,0.0,0.0
2305,80.0,1.0,120.0,0.0,0.0
2306,72.0,1.0,120.0,1.0,0.0
2307,60.0,0.0,120.0,4.0,0.0
2308,72.0,0.0,120.0,6.0,0.0
2309,68.0,0.0,120.0,6.0,0.0
2310,75.0,0.0,120.0,1.0,0.0
2311,68.0,0.0,120.0,2.0,0.0
2312,72.0,1.0,120.0,2.0,0.0
2313,56.0,4.0,120.0,5.0,0.0
2314,58.0,2.0,30.0,12.0,0.0
2315,46.0,4.0,30.0,13.0,0.0
2316,44.0,0.0,120.0,3.0,0.0
2317,56.0,47.0,120.0,3.0,0.0
2318,34.0,54.0,30.0,14.0,0.0
2319,56.0,2.0,30.0,12.0,0.0
2320,44.0,4.0,30.0,13.0,0.0
2321,32.0,20.0,30.0,14.0,0.0
2322,63.0,3.0,120.0,10.0,0.0
2323,58.0,7.0,120.0,11.0,0.0
2324,51.0,2.0,60.0,12.0,0.0
2325,39.0,4.0,60.0,13.0,0.0
2326,39.0,25.0,120.0,15.0,0.0
2327,70.0,0.0,120.0,10.0,0.0
2328,79.0,3.0,120.0,10.0,0.0
2329,27.0,34.0,60.0,14.0,0.0
2330,75.0,0.0,120.0,11.0,0.0
2331,67.0,12.0,120.0,11.0,0.0
2332,63.0,2.0,30.0,12.0,0.0
2333,51.0,4.0,30.0,13.0,0.0
2334,39.0,4.0,30.0,14.0,0.0
2335,82.0,0.0,120.0,0.0,0.0
2336,79.0,1.0,120.0,0.0,0.0
2337,75.0,0.0,120.0,1.0,0.0
2338,70.0,0.0,120.0,1.0,0.0
2339,58.0,1.0,120.0,4.0,0.0
2340,63.0,0.0,120.0,6.0,0.0
2341,70.0,0.0,120.0,6.0,0.0
2342,70.0,0.0,120.0,2.0,0.0
2343,67.0,1.0,120.0,2.0,0.0
2344,51.0,4.0,120.0,5.0,0.0
2345,63.0,2.0,30.0,12.0,0.0
2346,51.0,4.0,30.0,13.0,0.0
2347,51.0,57.0,120.0,3.0,0.0
2348,63.0,0.0,120.0,3.0,0.0
2349,39.0,54.0,30.0,14.0,0.0
2350,63.0,2.0,30.0,12.0,0.0
2351,51.0,4.0,30.0,13.0,0.0
2352,39.0,20.0,30.0,14.0,0.0
2353,63.0,3.0,120.0,10.0,0.0
2354,60.0,7.0,120.0,11.0,0.0
2355,61.0,2.0,60.0,12.0,0.0
2356,49.0,4.0,60.0,13.0,0.0
2357,44.0,25.0,120.0,15.0,0.0
2358,80.0,0.0,120.0,10.0,0.0
2359,72.0,0.0,120.0,10.0,0.0
2360,37.0,34.0,60.0,14.0,0.0
2361,68.0,3.0,120.0,11.0,0.0
2362,75.0,0.0,120.0,11.0,0.0
2363,60.0,2.0,60.0,12.0,0.0
2364,48.0,1.0,60.0,13.0,0.0
2365,36.0,9.0,60.0,14.0,0.0
2366,80.0,1.0,120.0,0.0,0.0
2367,84.0,0.0,120.0,0.0,0.0
2368,72.0,0.0,120.0,6.0,0.0
2369,68.0,0.0,120.0,6.0,0.0
2370,72.0,0.0,120.0,1.0,0.0
2371,60.0,1.0,120.0,4.0,0.0
2372,68.0,0.0,120.0,2.0,0.0
2373,72.0,1.0,120.0,2.0,0.0
2374,56.0,4.0,120.0,5.0,0.0
2375,58.0,2.0,30.0,12.0,0.0
2376,46.0,4.0,30.0,13.0,0.0
2377,56.0,0.0,120.0,3.0,0.0
2378,44.0,97.0,120.0,3.0,0.0
2379,34.0,54.0,30.0,14.0,0.0
2380,56.0,2.0,30.0,12.0,0.0
2381,44.0,4.0,30.0,13.0,0.0
2382,32.0,20.0,30.0,14.0,0.0
2383,63.0,3.0,120.0,10.0,0.0
2384,79.0,0.0,120.0,0.0,0.0
2385,82.0,1.0,120.0,0.0,0.0
2386,75.0,0.0,15.0,1.0,0.0
2387,63.0,0.0,120.0,6.0,0.0
2388,70.0,0.0,120.0,6.0,0.0
2389,70.0,1.0,120.0,1.0,0.0
2390,58.0,0.0,120.0,4.0,0.0
2391,58.0,7.0,120.0,11.0,0.0
2392,70.0,0.0,120.0,2.0,0.0
2393,67.0,1.0,120.0,2.0,0.0
2394,51.0,1.0,120.0,5.0,0.0
2395,51.0,2.0,120.0,12.0,0.0
2396,39.0,1.0,120.0,13.0,0.0
2397,63.0,2.0,120.0,3.0,0.0
2398,51.0,0.0,120.0,3.0,0.0
2399,39.0,1.0,120.0,15.0,0.0
2400,70.0,3.0,120.0,10.0,0.0
2401,79.0,0.0,120.0,10.0,0.0
2402,27.0,214.0,120.0,14.0,0.0
2403,67.0,3.0,120.0,11.0,0.0
2404,75.0,0.0,120.0,11.0,0.0
2405,58.0,3.0,120.0,10.0,0.0
2406,75.0,1.0,120.0,0.0,0.0
2407,51.0,0.0,120.0,6.0,0.0
2408,63.0,1.0,120.0,6.0,0.0
2409,75.0,0.0,120.0,1.0,0.0
2410,58.0,0.0,120.0,4.0,0.0
2411,58.0,7.0,120.0,11.0,0.0
2412,75.0,1.0,120.0,2.0,0.0
2413,51.0,1.0,120.0,5.0,0.0
2414,63.0,2.0,120.0,12.0,0.0
2415,51.0,1.0,120.0,13.0,0.0
2416,51.0,2.0,120.0,3.0,0.0
2417,75.0,3.0,120.0,10.0,0.0
2418,39.0,1.0,120.0,15.0,0.0
2419,67.0,0.0,120.0,10.0,0.0
2420,39.0,229.0,120.0,14.0,0.0
2421,75.0,0.0,120.0,11.0,0.0
2422,67.0,3.0,120.0,11.0,0.0
2423,51.0,1.0,120.0,10.0,0.0
2424,75.0,1.0,120.0,0.0,0.0
2425,63.0,0.0,120.0,1.0,0.0
2426,63.0,0.0,120.0,6.0,0.0
2427,51.0,0.0,120.0,4.0,0.0
2428,51.0,1.0,120.0,6.0,0.0
2429,51.0,0.0,120.0,11.0,0.0
2430,63.0,1.0,120.0,2.0,0.0
2431,39.0,1.0,120.0,5.0,0.0
2432,51.0,2.0,120.0,12.0,0.0
2433,39.0,1.0,120.0,13.0,0.0
2434,39.0,2.0,120.0,3.0,0.0
2435,39.0,1.0,120.0,15.0,0.0
2436,27.0,341.0,120.0,14.0,0.0
2437,70.0,71.0,120.0,1.0,0.0
2438,75.0,1.0,300.0,1.0,0.0
2439,55.0,62.0,60.0,11.0,0.0
2440,51.0,2.0,120.0,12.0,0.0
2441,51.0,4.0,120.0,13.0,0.0
2442,39.0,52.0,120.0,14.0,0.0
2443,58.0,119.0,60.0,11.0,0.0
2444,63.0,59.0,60.0,11.0,0.0
2445,74.0,60.0,60.0,1.0,0.0
2446,72.0,1.0,60.0,1.0,0.0
2447,67.0,49.0,60.0,11.0,0.0
2448,70.0,130.0,60.0,1.0,0.0
2449,80.0,60.0,300.0,0.0,0.0
2450,68.0,1.0,120.0,1.0,0.0
2451,68.0,2.0,120.0,11.0,0.0
2452,53.0,2.0,120.0,12.0,0.0
2453,53.0,4.0,120.0,13.0,0.0
2454,41.0,49.0,120.0,14.0,0.0
2455,68.0,120.0,60.0,10.0,0.0
2456,65.0,1.0,60.0,10.0,0.0
2457,79.0,59.0,60.0,0.0,0.0
2458,62.0,1.0,60.0,10.0,0.0
2459,77.0,50.0,60.0,0.0,0.0
2460,75.0,69.0,60.0,0.0,0.0
2461,56.0,3.0,60.0,10.0,0.0
2462,74.0,4.0,120.0,0.0,0.0
2463,77.0,1.0,300.0,1.0,0.0
2464,56.0,58.0,60.0,11.0,0.0
2465,46.0,2.0,120.0,12.0,0.0
2466,46.0,4.0,120.0,13.0,0.0
2467,34.0,52.0,120.0,14.0,0.0
2468,58.0,119.0,60.0,11.0,0.0
2469,62.0,59.0,60.0,11.0,0.0
2470,74.0,60.0,60.0,1.0,0.0
2471,70.0,1.0,60.0,1.0,0.0
2472,65.0,49.0,60.0,11.0,0.0
2473,68.0,68.0,60.0,1.0,0.0
2474,55.0,62.0,60.0,10.0,0.0
2475,82.0,60.0,300.0,0.0,0.0
2476,67.0,1.0,120.0,1.0,0.0
2477,63.0,2.0,120.0,11.0,0.0
2478,51.0,2.0,120.0,12.0,0.0
2479,51.0,4.0,120.0,13.0,0.0
2480,39.0,49.0,120.0,14.0,0.0
2481,58.0,120.0,60.0,10.0,0.0
2482,63.0,1.0,60.0,10.0,0.0
2483,79.0,59.0,60.0,0.0,0.0
2484,67.0,1.0,60.0,10.0,0.0
2485,77.0,50.0,60.0,0.0,0.0
2486,75.0,69.0,60.0,0.0,0.0
2487,65.0,61.0,60.0,10.0,0.0
2488,77.0,1.0,120.0,0.0,0.0
2489,74.0,1.0,120.0,1.0,0.0
2490,62.0,0.0,120.0,2.0,0.0
2491,62.0,0.0,120.0,11.0,0.0
2492,58.0,2.0,120.0,12.0,0.0
2493,46.0,4.0,120.0,13.0,0.0
2494,34.0,177.0,120.0,14.0,0.0
2495,80.0,1.0,240.0,0.0,0.0
2496,77.0,1.0,240.0,1.0,0.0
2497,65.0,2.0,15.0,2.0,0.0
2498,68.0,0.0,240.0,2.0,0.0
2499,77.0,1.0,120.0,10.0,0.0
2500,68.0,2.0,120.0,11.0,0.0
2501,58.0,2.0,120.0,12.0,0.0
2502,50.0,1.0,120.0,13.0,0.0
2503,58.0,52.0,60.0,3.0,0.0
2504,38.0,57.0,120.0,14.0,0.0
2505,57.0,3.0,60.0,3.0,0.0
2506,75.0,1.0,120.0,10.0,0.0
2507,79.0,1.0,120.0,0.0,0.0
2508,75.0,1.0,120.0,1.0,0.0
2509,63.0,0.0,120.0,2.0,0.0
2510,67.0,0.0,120.0,2.0,0.0
2511,67.0,2.0,120.0,11.0,0.0
2512,70.0,2.0,120.0,12.0,0.0
2513,51.0,1.0,120.0,13.0,0.0
2514,58.0,42.0,60.0,3.0,0.0
2515,39.0,59.0,120.0,14.0,0.0
2516,57.0,3.0,60.0,3.0,0.0
2517,74.0,3.0,60.0,10.0,0.0
2518,77.0,1.0,120.0,0.0,0.0
2519,74.0,1.0,120.0,1.0,0.0
2520,65.0,0.0,120.0,2.0,0.0
2521,62.0,2.0,120.0,2.0,0.0
2522,65.0,58.0,60.0,11.0,0.0
2523,58.0,2.0,120.0,12.0,0.0
2524,46.0,1.0,120.0,13.0,0.0
2525,58.0,3.0,120.0,3.0,0.0
2526,34.0,177.0,120.0,14.0,0.0
2527,80.0,1.0,240.0,0.0,0.0
2528,77.0,1.0,240.0,1.0,0.0
2529,68.0,0.0,240.0,2.0,0.0
2530,65.0,2.0,240.0,2.0,0.0
2531,77.0,1.0,120.0,10.0,0.0
2532,68.0,0.0,120.0,11.0,0.0
2533,58.0,2.0,120.0,12.0,0.0
2534,50.0,1.0,120.0,13.0,0.0
2535,58.0,52.0,60.0,3.0,0.0
2536,38.0,57.0,120.0,14.0,0.0
2537,57.0,3.0,60.0,3.0,0.0
2538,75.0,1.0,120.0,10.0,0.0
2539,79.0,1.0,120.0,0.0,0.0
2540,75.0,1.0,120.0,1.0,0.0
2541,67.0,2.0,120.0,11.0,0.0
2542,67.0,0.0,120.0,2.0,0.0
2543,63.0,0.0,120.0,2.0,0.0
2544,70.0,2.0,120.0,12.0,0.0
2545,51.0,1.0,120.0,13.0,0.0
2546,58.0,42.0,60.0,3.0,0.0
2547,39.0,59.0,120.0,14.0,0.0
2548,57.0,3.0,60.0,3.0,0.0
2549,74.0,3.0,60.0,10.0,0.0
2550,77.0,2.0,120.0,0.0,0.0
2551,74.0,9.0,120.0,1.0,0.0
2552,58.0,49.0,60.0,11.0,0.0
2553,65.0,2.0,120.0,2.0,0.0
2554,62.0,0.0,120.0,2.0,0.0
2555,65.0,2.0,120.0,12.0,0.0
2556,53.0,1.0,120.0,13.0,0.0
2557,58.0,3.0,120.0,3.0,0.0
2558,41.0,49.0,120.0,14.0,0.0
2559,70.0,3.0,60.0,10.0,0.0
2560,82.0,1.0,120.0,0.0,0.0
2561,74.0,6.0,120.0,1.0,0.0
2562,62.0,58.0,60.0,11.0,0.0
2563,58.0,113.0,120.0,3.0,0.0
2564,81.0,1.0,120.0,0.0,0.0
2565,75.0,3.0,120.0,1.0,0.0
2566,53.0,2.0,120.0,12.0,0.0
2567,41.0,1.0,120.0,13.0,0.0
2568,60.0,3.0,120.0,3.0,0.0
2569,29.0,49.0,120.0,14.0,0.0
2570,69.0,3.0,60.0,10.0,0.0
2571,84.0,1.0,120.0,0.0,0.0
2572,69.0,6.0,120.0,1.0,0.0
2573,63.0,48.0,60.0,11.0,0.0
2574,63.0,122.0,120.0,3.0,0.0
2575,70.0,1.0,120.0,10.0,0.0
2576,82.0,1.0,120.0,0.0,0.0
2577,70.0,1.0,120.0,1.0,0.0
2578,62.0,0.0,120.0,11.0,0.0
2579,53.0,2.0,120.0,11.0,0.0
2580,46.0,2.0,120.0,12.0,0.0
2581,46.0,1.0,120.0,13.0,0.0
2582,62.0,3.0,120.0,3.0,0.0
2583,34.0,234.0,120.0,14.0,0.0
2584,56.0,2.0,240.0,12.0,0.0
2585,56.0,4.0,240.0,13.0,0.0
2586,44.0,99.0,240.0,14.0,0.0
2587,70.0,3.0,120.0,10.0,0.0
2588,58.0,2.0,120.0,11.0,0.0
2589,53.0,2.0,120.0,12.0,0.0
2590,53.0,4.0,120.0,13.0,0.0
2591,41.0,67.0,120.0,14.0,0.0
2592,75.0,3.0,300.0,10.0,0.0
2593,63.0,5.0,300.0,11.0,0.0
2594,51.0,2.0,120.0,12.0,0.0
2595,51.0,4.0,120.0,13.0,0.0
2596,43.0,57.0,60.0,3.0,0.0
2597,39.0,57.0,120.0,14.0,0.0
2598,46.0,112.0,60.0,3.0,0.0
2599,51.0,52.0,60.0,3.0,0.0
2600,74.0,3.0,60.0,10.0,0.0
2601,62.0,57.0,60.0,11.0,0.0
2602,72.0,3.0,60.0,10.0,0.0
2603,60.0,5.0,60.0,11.0,0.0
2604,55.0,42.0,60.0,3.0,0.0
2605,70.0,3.0,60.0,10.0,0.0
2606,58.0,127.0,60.0,11.0,0.0
2607,68.0,3.0,120.0,10.0,0.0
2608,80.0,1.0,300.0,0.0,0.0
2609,68.0,59.0,300.0,1.0,0.0
2610,56.0,0.0,120.0,2.0,0.0
2611,56.0,2.0,120.0,11.0,0.0
2612,53.0,2.0,120.0,12.0,0.0
2613,53.0,1.0,120.0,13.0,0.0
2614,56.0,3.0,120.0,3.0,0.0
2615,41.0,112.0,120.0,14.0,0.0
2616,60.0,58.0,120.0,2.0,0.0
2617,65.0,58.0,120.0,2.0,0.0
2618,79.0,1.0,60.0,0.0,0.0
2619,67.0,1.0,60.0,1.0,0.0
2620,77.0,1.0,60.0,0.0,0.0
2621,65.0,49.0,60.0,1.0,0.0
2622,68.0,75.0,120.0,2.0,0.0
2623,75.0,1.0,60.0,0.0,0.0
2624,63.0,1.0,60.0,1.0,0.0
2625,77.0,3.0,300.0,10.0,0.0
2626,74.0,1.0,120.0,0.0,0.0
2627,62.0,1.0,120.0,1.0,0.0
2628,65.0,5.0,300.0,11.0,0.0
2629,56.0,2.0,120.0,2.0,0.0
2630,46.0,2.0,120.0,12.0,0.0
2631,46.0,4.0,120.0,13.0,0.0
2632,46.0,53.0,60.0,3.0,0.0
2633,34.0,57.0,120.0,14.0,0.0
2634,50.0,112.0,60.0,3.0,0.0
2635,53.0,52.0,60.0,3.0,0.0
2636,74.0,3.0,60.0,10.0,0.0
2637,62.0,57.0,60.0,11.0,0.0
2638,70.0,3.0,60.0,10.0,0.0
2639,58.0,5.0,60.0,11.0,0.0
2640,58.0,42.0,60.0,3.0,0.0
2641,68.0,3.0,60.0,10.0,0.0
2642,56.0,127.0,60.0,11.0,0.0
2643,67.0,3.0,120.0,10.0,0.0
2644,85.0,60.0,300.0,0.0,0.0
2645,58.0,0.0,120.0,2.0,0.0
2646,55.0,0.0,120.0,2.0,0.0
2647,55.0,2.0,120.0,11.0,0.0
2648,51.0,2.0,120.0,12.0,0.0
2649,51.0,1.0,120.0,13.0,0.0
2650,51.0,3.0,120.0,3.0,0.0
2651,39.0,112.0,120.0,14.0,0.0
2652,58.0,58.0,120.0,2.0,0.0
2653,61.0,0.0,120.0,2.0,0.0
2654,61.0,0.0,120.0,2.0,0.0
2655,82.0,2.0,60.0,0.0,0.0
2656,79.0,50.0,60.0,0.0,0.0
2657,70.0,0.0,120.0,2.0,0.0
2658,67.0,58.0,15.0,2.0,0.0
2659,73.0,2.0,60.0,0.0,0.0
2660,72.0,1.0,60.0,10.0,0.0
2661,75.0,2.0,60.0,0.0,0.0
2662,60.0,2.0,60.0,11.0,0.0
2663,68.0,0.0,120.0,2.0,0.0
2664,72.0,5.0,120.0,2.0,0.0
2665,56.0,2.0,60.0,12.0,0.0
2666,56.0,4.0,60.0,13.0,0.0
2667,60.0,57.0,120.0,3.0,0.0
2668,56.0,0.0,120.0,3.0,0.0
2669,44.0,52.0,60.0,14.0,0.0
2670,75.0,3.0,240.0,10.0,0.0
2671,84.0,0.0,120.0,0.0,0.0
2672,80.0,1.0,120.0,0.0,0.0
2673,68.0,6.0,120.0,1.0,0.0
2674,72.0,0.0,120.0,1.0,0.0
2675,63.0,127.0,240.0,11.0,0.0
2676,56.0,2.0,60.0,12.0,0.0
2677,56.0,4.0,60.0,13.0,0.0
2678,60.0,0.0,120.0,3.0,0.0
2679,56.0,102.0,120.0,3.0,0.0
2680,44.0,50.0,60.0,14.0,0.0
2681,85.0,1.0,360.0,0.0,0.0
2682,82.0,0.0,360.0,0.0,0.0
2683,70.0,0.0,360.0,1.0,0.0
2684,73.0,6.0,360.0,1.0,0.0
2685,61.0,0.0,360.0,3.0,0.0
2686,58.0,67.0,360.0,3.0,0.0
2687,76.0,3.0,120.0,10.0,0.0
2688,64.0,2.0,120.0,11.0,0.0
2689,55.0,2.0,120.0,12.0,0.0
2690,55.0,4.0,120.0,13.0,0.0
2691,43.0,49.0,120.0,14.0,0.0
2692,75.0,3.0,60.0,10.0,0.0
2693,63.0,2.0,60.0,11.0,0.0
2694,56.0,2.0,60.0,12.0,0.0
2695,56.0,4.0,60.0,13.0,0.0
2696,44.0,40.0,60.0,14.0,0.0
2697,75.0,3.0,240.0,10.0,0.0
2698,80.0,1.0,120.0,0.0,0.0
2699,84.0,0.0,120.0,0.0,0.0
2700,72.0,6.0,120.0,1.0,0.0
2701,68.0,0.0,120.0,1.0,0.0
2702,63.0,127.0,240.0,11.0,0.0
2703,56.0,2.0,60.0,12.0,0.0
2704,56.0,4.0,60.0,13.0,0.0
2705,56.0,0.0,120.0,3.0,0.0
2706,60.0,102.0,120.0,3.0,0.0
2707,44.0,50.0,60.0,14.0,0.0
2708,85.0,0.0,360.0,0.0,0.0
2709,82.0,1.0,360.0,0.0,0.0
2710,70.0,0.0,360.0,1.0,0.0
2711,73.0,1.0,360.0,1.0,0.0
2712,61.0,0.0,360.0,3.0,0.0
2713,58.0,3.0,360.0,3.0,0.0
2714,76.0,3.0,120.0,10.0,0.0
2715,64.0,2.0,120.0,11.0,0.0
2716,55.0,2.0,120.0,12.0,0.0
2717,55.0,4.0,120.0,13.0,0.0
2718,43.0,99.0,120.0,14.0,0.0
2719,77.0,1.0,120.0,10.0,0.0
2720,65.0,2.0,120.0,11.0,0.0
2721,56.0,2.0,120.0,12.0,0.0
2722,56.0,1.0,120.0,13.0,0.0
2723,44.0,119.0,120.0,14.0,0.0
2724,72.0,1.0,120.0,10.0,0.0
2725,84.0,1.0,120.0,0.0,0.0
2726,80.0,0.0,120.0,0.0,0.0
2727,72.0,0.0,120.0,1.0,0.0
2728,68.0,1.0,120.0,1.0,0.0
2729,68.0,2.0,120.0,11.0,0.0
2730,60.0,2.0,120.0,12.0,0.0
2731,53.0,1.0,120.0,13.0,0.0
2732,60.0,0.0,120.0,3.0,0.0
2733,56.0,3.0,120.0,3.0,0.0
2734,41.0,109.0,120.0,14.0,0.0
2735,70.0,1.0,120.0,10.0,0.0
2736,82.0,1.0,120.0,0.0,0.0
2737,79.0,0.0,120.0,0.0,0.0
2738,70.0,1.0,120.0,1.0,0.0
2739,67.0,0.0,120.0,1.0,0.0
2740,67.0,2.0,120.0,11.0,0.0
2741,64.0,2.0,120.0,12.0,0.0
2742,55.0,1.0,120.0,13.0,0.0
2743,58.0,0.0,120.0,3.0,0.0
2744,55.0,3.0,120.0,3.0,0.0
2745,43.0,99.0,120.0,14.0,0.0
2746,68.0,1.0,120.0,10.0,0.0
2747,80.0,1.0,120.0,0.0,0.0
2748,77.0,0.0,120.0,0.0,0.0
2749,68.0,1.0,120.0,1.0,0.0
2750,65.0,0.0,120.0,1.0,0.0
2751,65.0,2.0,120.0,11.0,0.0
2752,65.0,2.0,120.0,12.0,0.0
2753,56.0,1.0,120.0,13.0,0.0
2754,53.0,3.0,120.0,3.0,0.0
2755,56.0,0.0,120.0,3.0,0.0
2756,44.0,239.0,120.0,14.0,0.0
2757,67.0,1.0,240.0,10.0,0.0
2758,79.0,1.0,240.0,0.0,0.0
2759,75.0,0.0,240.0,0.0,0.0
2760,67.0,0.0,240.0,1.0,0.0
2761,63.0,1.0,240.0,1.0,0.0
2762,63.0,0.0,240.0,11.0,0.0
2763,70.0,0.0,240.0,2.0,0.0
2764,58.0,2.0,240.0,12.0,0.0
2765,58.0,1.0,240.0,13.0,0.0
2766,55.0,0.0,240.0,3.0,0.0
2767,51.0,3.0,240.0,3.0,0.0
2768,46.0,204.0,240.0,14.0,0.0
2769,65.0,3.0,210.0,10.0,0.0
2770,77.0,0.0,210.0,0.0,0.0
2771,74.0,1.0,210.0,0.0,0.0
2772,62.0,0.0,210.0,1.0,0.0
2773,65.0,1.0,210.0,1.0,0.0
2774,58.0,2.0,15.0,2.0,0.0
2775,70.0,3.0,210.0,2.0,0.0
2776,62.0,2.0,210.0,11.0,0.0
2777,58.0,1.0,210.0,12.0,0.0
2778,56.0,0.0,210.0,13.0,0.0
2779,53.0,0.0,210.0,3.0,0.0
2780,50.0,32.0,210.0,3.0,0.0
2781,44.0,2.0,210.0,14.0,0.0
2782,82.0,0.0,20.0,10.0,0.0
2783,70.0,3.0,20.0,10.0,0.0
2784,75.0,0.0,120.0,0.0,0.0
2785,82.0,0.0,120.0,0.0,0.0
2786,58.0,1.0,120.0,4.0,0.0
2787,58.0,0.0,120.0,1.0,0.0
2788,70.0,0.0,120.0,1.0,0.0
2789,70.0,0.0,120.0,6.0,0.0
2790,58.0,0.0,20.0,11.0,0.0
2791,70.0,2.0,20.0,11.0,0.0
2792,58.0,1.0,120.0,2.0,0.0
2793,70.0,0.0,120.0,2.0,0.0
2794,58.0,4.0,120.0,5.0,0.0
2795,63.0,2.0,20.0,12.0,0.0
2796,55.0,4.0,20.0,13.0,0.0
2797,55.0,0.0,120.0,3.0,0.0
2798,43.0,52.0,120.0,3.0,0.0
2799,43.0,19.0,20.0,14.0,0.0
2800,70.0,0.0,20.0,10.0,0.0
2801,82.0,3.0,20.0,10.0,0.0
2802,70.0,2.0,20.0,11.0,0.0
2803,58.0,0.0,20.0,11.0,0.0
2804,63.0,2.0,20.0,12.0,0.0
2805,55.0,4.0,20.0,13.0,0.0
2806,43.0,19.0,20.0,14.0,0.0
2807,70.0,3.0,20.0,10.0,0.0
2808,82.0,0.0,20.0,10.0,0.0
2809,58.0,2.0,20.0,11.0,0.0
2810,70.0,0.0,20.0,11.0,0.0
2811,63.0,2.0,20.0,12.0,0.0
2812,55.0,4.0,20.0,13.0,0.0
2813,43.0,19.0,20.0,14.0,0.0
2814,82.0,0.0,20.0,10.0,0.0
2815,70.0,3.0,20.0,10.0,0.0
2816,58.0,0.0,20.0,11.0,0.0
2817,70.0,2.0,20.0,11.0,0.0
2818,63.0,2.0,20.0,12.0,0.0
2819,55.0,4.0,20.0,13.0,0.0
2820,43.0,1.0,20.0,14.0,0.0
2821,70.0,0.0,60.0,10.0,0.0
2822,82.0,3.0,60.0,10.0,0.0
2823,70.0,2.0,60.0,11.0,0.0
2824,58.0,0.0,60.0,11.0,0.0
2825,63.0,2.0,60.0,12.0,0.0
2826,55.0,4.0,60.0,13.0,0.0
2827,43.0,69.0,60.0,14.0,0.0
2828,80.0,0.0,20.0,10.0,0.0
2829,70.0,3.0,20.0,10.0,0.0
2830,74.0,1.0,120.0,0.0,0.0
2831,80.0,0.0,120.0,0.0,0.0
2832,68.0,0.0,120.0,1.0,0.0
2833,74.0,0.0,120.0,1.0,0.0
2834,58.0,1.0,120.0,4.0,0.0
2835,70.0,0.0,120.0,6.0,0.0
2836,68.0,0.0,120.0,2.0,0.0
2837,62.0,1.0,120.0,2.0,0.0
2838,58.0,0.0,20.0,11.0,0.0
2839,70.0,2.0,20.0,11.0,0.0
2840,58.0,4.0,120.0,5.0,0.0
2841,62.0,2.0,20.0,12.0,0.0
2842,53.0,4.0,20.0,13.0,0.0
2843,53.0,0.0,120.0,3.0,0.0
2844,41.0,52.0,120.0,3.0,0.0
2845,41.0,19.0,20.0,14.0,0.0
2846,80.0,3.0,20.0,10.0,0.0
2847,70.0,0.0,20.0,10.0,0.0
2848,70.0,0.0,20.0,11.0,0.0
2849,58.0,2.0,20.0,11.0,0.0
2850,62.0,2.0,20.0,12.0,0.0
2851,53.0,4.0,20.0,13.0,0.0
2852,41.0,19.0,20.0,14.0,0.0
2853,70.0,3.0,20.0,10.0,0.0
2854,80.0,0.0,20.0,10.0,0.0
2855,70.0,2.0,20.0,11.0,0.0
2856,58.0,0.0,20.0,11.0,0.0
2857,62.0,2.0,20.0,12.0,0.0
2858,53.0,4.0,20.0,13.0,0.0
2859,41.0,19.0,20.0,14.0,0.0
2860,70.0,0.0,20.0,10.0,0.0
2861,80.0,3.0,20.0,10.0,0.0
2862,70.0,0.0,20.0,11.0,0.0
2863,58.0,2.0,20.0,11.0,0.0
2864,62.0,2.0,20.0,12.0,0.0
2865,53.0,4.0,20.0,13.0,0.0
2866,41.0,0.0,20.0,14.0,0.0
2867,70.0,3.0,60.0,10.0,0.0
2868,80.0,0.0,60.0,10.0,0.0
2869,58.0,0.0,60.0,11.0,0.0
2870,70.0,2.0,60.0,11.0,0.0
2871,62.0,2.0,60.0,12.0,0.0
2872,53.0,4.0,60.0,13.0,0.0
2873,41.0,69.0,60.0,14.0,0.0
2874,70.0,3.0,20.0,10.0,0.0
2875,79.0,0.0,20.0,10.0,0.0
2876,75.0,1.0,120.0,0.0,0.0
2877,79.0,0.0,120.0,0.0,0.0
2878,58.0,0.0,120.0,4.0,0.0
2879,70.0,1.0,120.0,6.0,0.0
2880,67.0,0.0,120.0,1.0,0.0
2881,75.0,0.0,120.0,1.0,0.0
2882,63.0,1.0,120.0,2.0,0.0
2883,67.0,0.0,120.0,2.0,0.0
2884,70.0,2.0,20.0,11.0,0.0
2885,58.0,0.0,20.0,11.0,0.0
2886,58.0,4.0,120.0,5.0,0.0
2887,63.0,2.0,20.0,12.0,0.0
2888,51.0,4.0,20.0,13.0,0.0
2889,39.0,52.0,120.0,3.0,0.0
2890,51.0,0.0,120.0,3.0,0.0
2891,39.0,19.0,20.0,14.0,0.0
2892,70.0,3.0,20.0,10.0,0.0
2893,79.0,0.0,20.0,10.0,0.0
2894,70.0,2.0,20.0,11.0,0.0
2895,58.0,0.0,20.0,11.0,0.0
2896,63.0,2.0,20.0,12.0,0.0
2897,51.0,4.0,20.0,13.0,0.0
2898,39.0,19.0,20.0,14.0,0.0
2899,79.0,3.0,20.0,10.0,0.0
2900,70.0,0.0,20.0,10.0,0.0
2901,70.0,2.0,20.0,11.0,0.0
2902,58.0,0.0,20.0,11.0,0.0
2903,63.0,2.0,20.0,12.0,0.0
2904,51.0,4.0,20.0,13.0,0.0
2905,39.0,19.0,20.0,14.0,0.0
2906,70.0,0.0,20.0,10.0,0.0
2907,79.0,3.0,20.0,10.0,0.0
2908,58.0,2.0,20.0,11.0,0.0
2909,70.0,0.0,20.0,11.0,0.0
2910,63.0,2.0,20.0,12.0,0.0
2911,51.0,4.0,20.0,13.0,0.0
2912,39.0,0.0,20.0,14.0,0.0
2913,70.0,0.0,60.0,10.0,0.0
2914,79.0,3.0,60.0,10.0,0.0
2915,58.0,2.0,60.0,11.0,0.0
2916,70.0,0.0,60.0,11.0,0.0
2917,63.0,2.0,60.0,12.0,0.0
2918,51.0,4.0,60.0,13.0,0.0
2919,39.0,79.0,60.0,14.0,0.0
2920,77.0,3.0,30.0,10.0,0.0
2921,77.0,1.0,60.0,0.0,0.0
2922,65.0,28.0,60.0,1.0,0.0
2923,65.0,22.0,30.0,11.0,0.0
2924,58.0,2.0,60.0,12.0,0.0
2925,70.0,0.0,60.0,12.0,0.0
2926,56.0,4.0,60.0,13.0,0.0
2927,44.0,0.0,60.0,14.0,0.0
2928,79.0,3.0,30.0,10.0,0.0
2929,79.0,0.0,60.0,0.0,0.0
2930,67.0,28.0,60.0,1.0,0.0
2931,67.0,22.0,30.0,11.0,0.0
2932,70.0,2.0,60.0,12.0,0.0
2933,58.0,0.0,60.0,12.0,0.0
2934,56.0,4.0,60.0,13.0,0.0
2935,44.0,1.0,60.0,14.0,0.0
2936,80.0,3.0,30.0,10.0,0.0
2937,80.0,1.0,60.0,0.0,0.0
2938,68.0,28.0,60.0,1.0,0.0
2939,68.0,22.0,30.0,11.0,0.0
2940,58.0,0.0,60.0,12.0,0.0
2941,70.0,2.0,60.0,12.0,0.0
2942,56.0,4.0,60.0,13.0,0.0
2943,44.0,0.0,60.0,14.0,0.0
2944,81.0,3.0,30.0,10.0,0.0
2945,81.0,1.0,60.0,0.0,0.0
2946,69.0,3.0,60.0,1.0,0.0
2947,69.0,18.0,30.0,11.0,0.0
2948,70.0,0.0,60.0,12.0,0.0
2949,58.0,2.0,60.0,12.0,0.0
2950,56.0,4.0,60.0,13.0,0.0
2951,44.0,19.0,60.0,14.0,0.0
2952,70.0,3.0,20.0,10.0,0.0
2953,82.0,0.0,20.0,10.0,0.0
2954,82.0,1.0,240.0,0.0,0.0
2955,70.0,0.0,240.0,6.0,0.0
2956,70.0,6.0,240.0,1.0,0.0
2957,58.0,2.0,20.0,11.0,0.0
2958,70.0,0.0,20.0,11.0,0.0
2959,63.0,2.0,20.0,12.0,0.0
2960,55.0,4.0,20.0,13.0,0.0
2961,58.0,4.0,240.0,3.0,0.0
2962,43.0,19.0,20.0,14.0,0.0
2963,70.0,3.0,20.0,10.0,0.0
2964,82.0,0.0,20.0,10.0,0.0
2965,58.0,2.0,20.0,11.0,0.0
2966,70.0,0.0,20.0,11.0,0.0
2967,63.0,2.0,20.0,12.0,0.0
2968,55.0,4.0,20.0,13.0,0.0
2969,43.0,19.0,20.0,14.0,0.0
2970,70.0,3.0,20.0,10.0,0.0
2971,82.0,0.0,20.0,10.0,0.0
2972,58.0,2.0,20.0,11.0,0.0
2973,70.0,0.0,20.0,11.0,0.0
2974,63.0,2.0,20.0,12.0,0.0
2975,55.0,4.0,20.0,13.0,0.0
2976,43.0,19.0,20.0,14.0,0.0
2977,82.0,3.0,20.0,10.0,0.0
2978,70.0,0.0,20.0,10.0,0.0
2979,70.0,2.0,20.0,11.0,0.0
2980,58.0,0.0,20.0,11.0,0.0
2981,63.0,2.0,20.0,12.0,0.0
2982,55.0,4.0,20.0,13.0,0.0
2983,43.0,59.0,20.0,14.0,0.0
2984,82.0,0.0,60.0,10.0,0.0
2985,70.0,3.0,60.0,10.0,0.0
2986,58.0,0.0,60.0,11.0,0.0
2987,70.0,2.0,60.0,11.0,0.0
2988,63.0,2.0,60.0,12.0,0.0
2989,55.0,4.0,60.0,13.0,0.0
2990,43.0,40.0,60.0,14.0,0.0
2991,70.0,0.0,20.0,10.0,0.0
2992,80.0,3.0,20.0,10.0,0.0
2993,86.0,1.0,240.0,0.0,0.0
2994,80.0,0.0,240.0,0.0,0.0
2995,74.0,0.0,240.0,1.0,0.0
2996,58.0,2.0,15.0,4.0,0.0
2997,70.0,0.0,240.0,6.0,0.0
2998,68.0,6.0,240.0,1.0,0.0
2999,58.0,2.0,20.0,11.0,0.0
3000,70.0,0.0,20.0,11.0,0.0
3001,58.0,16.0,15.0,5.0,0.0
3002,62.0,2.0,20.0,12.0,0.0
3003,53.0,4.0,20.0,13.0,0.0
3004,62.0,4.0,240.0,3.0,0.0
3005,56.0,0.0,240.0,3.0,0.0
3006,41.0,19.0,20.0,14.0,0.0
3007,80.0,3.0,20.0,10.0,0.0
3008,70.0,0.0,20.0,10.0,0.0
3009,70.0,2.0,20.0,11.0,0.0
3010,58.0,0.0,20.0,11.0,0.0
3011,62.0,2.0,20.0,12.0,0.0
3012,53.0,4.0,20.0,13.0,0.0
3013,41.0,19.0,20.0,14.0,0.0
3014,80.0,3.0,20.0,10.0,0.0
3015,70.0,0.0,20.0,10.0,0.0
3016,70.0,2.0,20.0,11.0,0.0
3017,58.0,0.0,20.0,11.0,0.0
3018,62.0,2.0,20.0,12.0,0.0
3019,53.0,4.0,20.0,13.0,0.0
3020,41.0,19.0,20.0,14.0,0.0
3021,80.0,3.0,20.0,10.0,0.0
3022,70.0,0.0,20.0,10.0,0.0
3023,70.0,2.0,20.0,11.0,0.0
3024,58.0,0.0,20.0,11.0,0.0
3025,62.0,2.0,20.0,12.0,0.0
3026,53.0,4.0,20.0,13.0,0.0
3027,41.0,59.0,20.0,14.0,0.0
3028,70.0,3.0,60.0,10.0,0.0
3029,80.0,0.0,60.0,10.0,0.0
3030,58.0,2.0,60.0,11.0,0.0
3031,70.0,0.0,60.0,11.0,0.0
3032,62.0,2.0,60.0,12.0,0.0
3033,53.0,4.0,60.0,13.0,0.0
3034,41.0,40.0,60.0,14.0,0.0
3035,79.0,0.0,20.0,10.0,0.0
3036,70.0,3.0,20.0,10.0,0.0
3037,87.0,0.0,120.0,0.0,0.0
3038,79.0,1.0,120.0,0.0,0.0
3039,70.0,0.0,240.0,6.0,0.0
3040,67.0,0.0,120.0,1.0,0.0
3041,75.0,6.0,120.0,1.0,0.0
3042,58.0,2.0,15.0,4.0,0.0
3043,70.0,2.0,20.0,11.0,0.0
3044,58.0,0.0,20.0,11.0,0.0
3045,58.0,16.0,15.0,5.0,0.0
3046,63.0,2.0,20.0,12.0,0.0
3047,51.0,4.0,20.0,13.0,0.0
3048,63.0,0.0,120.0,3.0,0.0
3049,55.0,52.0,120.0,3.0,0.0
3050,39.0,19.0,20.0,14.0,0.0
3051,70.0,0.0,20.0,10.0,0.0
3052,79.0,3.0,20.0,10.0,0.0
3053,70.0,0.0,20.0,11.0,0.0
3054,58.0,2.0,20.0,11.0,0.0
3055,63.0,2.0,20.0,12.0,0.0
3056,51.0,4.0,20.0,13.0,0.0
3057,39.0,19.0,20.0,14.0,0.0
3058,70.0,0.0,20.0,10.0,0.0
3059,79.0,3.0,20.0,10.0,0.0
3060,58.0,2.0,20.0,11.0,0.0
3061,70.0,0.0,20.0,11.0,0.0
3062,63.0,2.0,20.0,12.0,0.0
3063,51.0,4.0,20.0,13.0,0.0
3064,39.0,19.0,20.0,14.0,0.0
3065,70.0,3.0,20.0,10.0,0.0
3066,79.0,0.0,20.0,10.0,0.0
3067,70.0,0.0,20.0,11.0,0.0
3068,58.0,2.0,20.0,11.0,0.0
3069,63.0,2.0,20.0,12.0,0.0
3070,51.0,4.0,20.0,13.0,0.0
3071,39.0,0.0,20.0,14.0,0.0
3072,79.0,3.0,60.0,10.0,0.0
3073,70.0,0.0,60.0,10.0,0.0
3074,58.0,0.0,60.0,11.0,0.0
3075,70.0,2.0,60.0,11.0,0.0
3076,63.0,2.0,60.0,12.0,0.0
3077,51.0,4.0,60.0,13.0,0.0
3078,39.0,51.0,60.0,14.0,0.0
3079,77.0,3.0,30.0,10.0,0.0
3080,77.0,0.0,60.0,0.0,0.0
3081,65.0,28.0,60.0,1.0,0.0
3082,65.0,22.0,30.0,11.0,0.0
3083,70.0,2.0,60.0,12.0,0.0
3084,58.0,0.0,60.0,12.0,0.0
3085,56.0,4.0,60.0,13.0,0.0
3086,44.0,1.0,60.0,14.0,0.0
3087,79.0,3.0,30.0,10.0,0.0
3088,79.0,0.0,60.0,0.0,0.0
3089,67.0,28.0,60.0,1.0,0.0
3090,67.0,22.0,30.0,11.0,0.0
3091,58.0,0.0,60.0,12.0,0.0
3092,70.0,2.0,60.0,12.0,0.0
3093,56.0,4.0,60.0,13.0,0.0
3094,44.0,1.0,60.0,14.0,0.0
3095,80.0,3.0,30.0,10.0,0.0
3096,80.0,1.0,60.0,0.0,0.0
3097,68.0,28.0,60.0,1.0,0.0
3098,68.0,22.0,30.0,11.0,0.0
3099,70.0,0.0,60.0,12.0,0.0
3100,58.0,2.0,60.0,12.0,0.0
3101,56.0,4.0,60.0,13.0,0.0
3102,44.0,0.0,60.0,14.0,0.0
3103,81.0,3.0,30.0,10.0,0.0
3104,81.0,1.0,60.0,0.0,0.0
3105,69.0,3.0,60.0,1.0,0.0
3106,69.0,18.0,30.0,11.0,0.0
3107,70.0,2.0,60.0,12.0,0.0
3108,58.0,0.0,60.0,12.0,0.0
3109,56.0,4.0,60.0,13.0,0.0
3110,44.0,19.0,60.0,14.0,0.0
3111,82.0,3.0,20.0,10.0,0.0
3112,82.0,1.0,180.0,0.0,0.0
3113,70.0,1.0,180.0,1.0,0.0
3114,58.0,2.0,240.0,4.0,0.0
3115,70.0,0.0,240.0,6.0,0.0
3116,70.0,27.0,20.0,11.0,0.0
3117,70.0,2.0,180.0,2.0,0.0
3118,58.0,16.0,240.0,5.0,0.0
3119,55.0,2.0,180.0,12.0,0.0
3120,55.0,1.0,180.0,13.0,0.0
3121,55.0,3.0,180.0,3.0,0.0
3122,43.0,19.0,180.0,14.0,0.0
3123,82.0,3.0,20.0,10.0,0.0
3124,70.0,27.0,20.0,11.0,0.0
3125,82.0,3.0,20.0,10.0,0.0
3126,70.0,27.0,20.0,11.0,0.0
3127,82.0,3.0,20.0,10.0,0.0
3128,70.0,27.0,20.0,11.0,0.0
3129,82.0,3.0,20.0,10.0,0.0
3130,70.0,27.0,20.0,11.0,0.0
3131,82.0,1.0,20.0,10.0,0.0
3132,70.0,0.0,20.0,11.0,0.0
3133,80.0,3.0,20.0,10.0,0.0
3134,80.0,1.0,60.0,0.0,0.0
3135,68.0,1.0,60.0,1.0,0.0
3136,68.0,2.0,60.0,2.0,0.0
3137,68.0,27.0,20.0,11.0,0.0
3138,53.0,2.0,60.0,12.0,0.0
3139,53.0,1.0,60.0,13.0,0.0
3140,53.0,3.0,60.0,3.0,0.0
3141,41.0,1.0,60.0,14.0,0.0
3142,80.0,1.0,20.0,10.0,0.0
3143,68.0,0.0,20.0,11.0,0.0
3144,79.0,3.0,20.0,10.0,0.0
3145,79.0,1.0,60.0,0.0,0.0
3146,67.0,1.0,60.0,1.0,0.0
3147,67.0,27.0,20.0,11.0,0.0
3148,67.0,0.0,60.0,2.0,0.0
3149,51.0,2.0,60.0,12.0,0.0
3150,51.0,1.0,60.0,13.0,0.0
3151,51.0,3.0,60.0,3.0,0.0
3152,39.0,19.0,60.0,14.0,0.0
3153,79.0,1.0,20.0,10.0,0.0
3154,67.0,2.0,20.0,11.0,0.0
3155,77.0,3.0,20.0,10.0,0.0
3156,77.0,1.0,60.0,0.0,0.0
3157,65.0,1.0,60.0,1.0,0.0
3158,65.0,2.0,60.0,2.0,0.0
3159,65.0,27.0,20.0,11.0,0.0
3160,53.0,2.0,60.0,12.0,0.0
3161,53.0,1.0,60.0,13.0,0.0
3162,53.0,3.0,60.0,3.0,0.0
3163,41.0,19.0,60.0,14.0,0.0
3164,77.0,1.0,20.0,10.0,0.0
3165,65.0,0.0,20.0,11.0,0.0
3166,75.0,3.0,20.0,10.0,0.0
3167,75.0,1.0,60.0,0.0,0.0
3168,63.0,1.0,60.0,1.0,0.0
3169,63.0,27.0,20.0,11.0,0.0
3170,63.0,0.0,60.0,2.0,0.0
3171,54.0,2.0,60.0,12.0,0.0
3172,54.0,1.0,60.0,13.0,0.0
3173,54.0,3.0,60.0,3.0,0.0
3174,42.0,19.0,60.0,14.0,0.0
3175,75.0,1.0,20.0,10.0,0.0
3176,63.0,2.0,20.0,11.0,0.0
3177,73.0,3.0,20.0,10.0,0.0
3178,73.0,1.0,60.0,0.0,0.0
3179,61.0,1.0,60.0,1.0,0.0
3180,61.0,2.0,60.0,2.0,0.0
3181,61.0,27.0,20.0,11.0,0.0
3182,55.0,2.0,60.0,12.0,0.0
3183,55.0,1.0,60.0,13.0,0.0
3184,55.0,3.0,60.0,3.0,0.0
3185,43.0,19.0,60.0,14.0,0.0
3186,73.0,1.0,20.0,10.0,0.0
3187,61.0,0.0,20.0,11.0,0.0
3188,72.0,3.0,20.0,10.0,0.0
3189,72.0,2.0,120.0,0.0,0.0
3190,60.0,1.0,60.0,1.0,0.0
3191,60.0,27.0,20.0,11.0,0.0
3192,60.0,27.0,60.0,2.0,0.0
3193,56.0,2.0,180.0,12.0,0.0
3194,56.0,1.0,180.0,13.0,0.0
3195,56.0,3.0,180.0,3.0,0.0
3196,44.0,19.0,180.0,14.0,0.0
3197,72.0,2.0,20.0,10.0,0.0
3198,72.0,0.0,20.0,11.0,0.0
3199,72.0,3.0,20.0,10.0,0.0
3200,72.0,1.0,120.0,1.0,0.0
3201,72.0,2.0,120.0,2.0,0.0
3202,72.0,27.0,20.0,11.0,0.0
3203,72.0,1.0,20.0,10.0,0.0
3204,72.0,27.0,20.0,11.0,0.0
3205,72.0,3.0,20.0,10.0,0.0
3206,84.0,1.0,60.0,0.0,0.0
3207,72.0,27.0,20.0,11.0,0.0
3208,72.0,1.0,20.0,10.0,0.0
3209,72.0,0.0,20.0,11.0,0.0
3210,70.0,3.0,20.0,10.0,0.0
3211,82.0,1.0,60.0,0.0,0.0
3212,70.0,1.0,60.0,1.0,0.0
3213,70.0,27.0,20.0,11.0,0.0
3214,70.0,2.0,60.0,2.0,0.0
3215,55.0,2.0,60.0,12.0,0.0
3216,55.0,1.0,60.0,13.0,0.0
3217,55.0,3.0,60.0,3.0,0.0
3218,43.0,19.0,60.0,14.0,0.0
3219,70.0,1.0,20.0,10.0,0.0
3220,70.0,0.0,20.0,11.0,0.0
3221,68.0,3.0,20.0,10.0,0.0
3222,80.0,1.0,60.0,0.0,0.0
3223,68.0,1.0,60.0,1.0,0.0
3224,68.0,27.0,20.0,11.0,0.0
3225,68.0,2.0,60.0,2.0,0.0
3226,60.0,2.0,60.0,12.0,0.0
3227,60.0,1.0,60.0,13.0,0.0
3228,60.0,3.0,60.0,3.0,0.0
3229,48.0,19.0,60.0,14.0,0.0
3230,68.0,1.0,20.0,10.0,0.0
3231,68.0,0.0,20.0,11.0,0.0
3232,67.0,3.0,20.0,10.0,0.0
3233,79.0,1.0,60.0,0.0,0.0
3234,67.0,1.0,60.0,1.0,0.0
3235,67.0,0.0,60.0,2.0,0.0
3236,67.0,27.0,20.0,11.0,0.0
3237,58.0,2.0,60.0,12.0,0.0
3238,58.0,1.0,60.0,13.0,0.0
3239,58.0,3.0,60.0,3.0,0.0
3240,46.0,19.0,60.0,14.0,0.0
3241,67.0,1.0,20.0,10.0,0.0
3242,67.0,2.0,20.0,11.0,0.0
3243,65.0,3.0,20.0,10.0,0.0
3244,77.0,1.0,60.0,0.0,0.0
3245,65.0,1.0,60.0,1.0,0.0
3246,65.0,27.0,20.0,11.0,0.0
3247,65.0,2.0,60.0,2.0,0.0
3248,56.0,2.0,60.0,12.0,0.0
3249,56.0,1.0,60.0,13.0,0.0
3250,56.0,3.0,60.0,3.0,0.0
3251,44.0,19.0,60.0,14.0,0.0
3252,65.0,1.0,20.0,10.0,0.0
3253,65.0,0.0,20.0,11.0,0.0
3254,63.0,3.0,20.0,10.0,0.0
3255,75.0,1.0,60.0,0.0,0.0
3256,63.0,1.0,60.0,1.0,0.0
3257,63.0,2.0,60.0,2.0,0.0
3258,63.0,27.0,20.0,11.0,0.0
3259,57.0,2.0,60.0,12.0,0.0
3260,57.0,1.0,60.0,13.0,0.0
3261,57.0,3.0,60.0,3.0,0.0
3262,45.0,19.0,60.0,14.0,0.0
3263,63.0,1.0,20.0,10.0,0.0
3264,63.0,0.0,20.0,11.0,0.0
3265,62.0,3.0,20.0,10.0,0.0
3266,74.0,1.0,60.0,0.0,0.0
3267,62.0,1.0,60.0,1.0,0.0
3268,62.0,0.0,60.0,2.0,0.0
3269,62.0,12.0,20.0,11.0,0.0
3270,58.0,2.0,30.0,12.0,0.0
3271,58.0,4.0,30.0,13.0,0.0
3272,58.0,22.0,60.0,3.0,0.0
3273,46.0,9.0,30.0,14.0,0.0
3274,62.0,1.0,20.0,10.0,0.0
3275,62.0,5.0,20.0,11.0,0.0
3276,63.0,3.0,20.0,10.0,0.0
3277,75.0,1.0,60.0,0.0,0.0
3278,63.0,1.0,60.0,1.0,0.0
3279,63.0,12.0,20.0,11.0,0.0
3280,63.0,5.0,60.0,2.0,0.0
3281,67.0,2.0,30.0,12.0,0.0
3282,55.0,4.0,30.0,13.0,0.0
3283,55.0,22.0,60.0,3.0,0.0
3284,43.0,9.0,30.0,14.0,0.0
3285,63.0,1.0,20.0,10.0,0.0
3286,63.0,0.0,20.0,11.0,0.0
3287,65.0,3.0,20.0,10.0,0.0
3288,77.0,0.0,60.0,0.0,0.0
3289,65.0,1.0,60.0,0.0,0.0
3290,65.0,1.0,60.0,1.0,0.0
3291,65.0,12.0,20.0,11.0,0.0
3292,65.0,5.0,60.0,2.0,0.0
3293,65.0,2.0,30.0,12.0,0.0
3294,53.0,4.0,30.0,13.0,0.0
3295,53.0,22.0,60.0,3.0,0.0
3296,41.0,9.0,30.0,14.0,0.0
3297,65.0,1.0,20.0,10.0,0.0
3298,65.0,0.0,20.0,11.0,0.0
3299,67.0,3.0,20.0,10.0,0.0
3300,79.0,1.0,60.0,0.0,0.0
3301,67.0,0.0,60.0,0.0,0.0
3302,67.0,1.0,60.0,1.0,0.0
3303,67.0,12.0,20.0,11.0,0.0
3304,67.0,5.0,60.0,2.0,0.0
3305,63.0,2.0,30.0,12.0,0.0
3306,51.0,4.0,30.0,13.0,0.0
3307,51.0,22.0,60.0,3.0,0.0
3308,39.0,9.0,30.0,14.0,0.0
3309,67.0,1.0,20.0,10.0,0.0
3310,67.0,0.0,20.0,11.0,0.0
3311,68.0,3.0,20.0,10.0,0.0
3312,68.0,1.0,60.0,0.0,0.0
3313,80.0,0.0,60.0,0.0,0.0
3314,68.0,1.0,60.0,1.0,0.0
3315,68.0,12.0,20.0,11.0,0.0
3316,68.0,0.0,60.0,2.0,0.0
3317,62.0,2.0,30.0,12.0,0.0
3318,50.0,4.0,30.0,13.0,0.0
3319,50.0,22.0,60.0,3.0,0.0
3320,38.0,9.0,30.0,14.0,0.0
3321,68.0,1.0,20.0,10.0,0.0
3322,68.0,5.0,20.0,11.0,0.0
3323,70.0,3.0,20.0,10.0,0.0
3324,82.0,1.0,60.0,0.0,0.0
3325,70.0,0.0,60.0,0.0,0.0
3326,70.0,1.0,60.0,1.0,0.0
3327,70.0,12.0,20.0,11.0,0.0
3328,70.0,5.0,60.0,2.0,0.0
3329,60.0,2.0,30.0,12.0,0.0
3330,48.0,4.0,30.0,13.0,0.0
3331,48.0,22.0,60.0,3.0,0.0
3332,36.0,9.0,30.0,14.0,0.0
3333,70.0,1.0,20.0,10.0,0.0
3334,70.0,0.0,20.0,11.0,0.0
3335,72.0,3.0,20.0,10.0,0.0
3336,72.0,0.0,60.0,0.0,0.0
3337,84.0,1.0,60.0,0.0,0.0
3338,72.0,1.0,60.0,1.0,0.0
3339,72.0,5.0,60.0,2.0,0.0
3340,72.0,12.0,20.0,11.0,0.0
3341,58.0,2.0,30.0,12.0,0.0
3342,46.0,4.0,30.0,13.0,0.0
3343,46.0,22.0,60.0,3.0,0.0
3344,34.0,9.0,30.0,14.0,0.0
3345,72.0,1.0,20.0,10.0,0.0
3346,72.0,0.0,20.0,11.0,0.0
3347,74.0,3.0,20.0,10.0,0.0
3348,74.0,0.0,60.0,0.0,0.0
3349,86.0,1.0,60.0,0.0,0.0
3350,74.0,1.0,60.0,1.0,0.0
3351,74.0,0.0,60.0,2.0,0.0
3352,74.0,12.0,20.0,11.0,0.0
3353,56.0,2.0,30.0,12.0,0.0
3354,44.0,4.0,30.0,13.0,0.0
3355,44.0,62.0,60.0,3.0,0.0
3356,32.0,9.0,30.0,14.0,0.0
3357,74.0,1.0,20.0,10.0,0.0
3358,74.0,5.0,20.0,11.0,0.0
3359,75.0,1.0,60.0,10.0,0.0
3360,87.0,0.0,60.0,0.0,0.0
3361,75.0,1.0,60.0,0.0,0.0
3362,75.0,1.0,60.0,1.0,0.0
3363,75.0,0.0,60.0,2.0,0.0
3364,75.0,2.0,60.0,11.0,0.0
3365,55.0,2.0,60.0,12.0,0.0
3366,43.0,1.0,60.0,13.0,0.0
3367,43.0,3.0,60.0,3.0,0.0
3368,31.0,109.0,60.0,14.0,0.0
3369,72.0,1.0,60.0,10.0,0.0
3370,84.0,1.0,60.0,0.0,0.0
3371,63.0,1.0,60.0,1.0,0.0
3372,72.0,0.0,60.0,1.0,0.0
3373,63.0,0.0,120.0,6.0,0.0
3374,63.0,2.0,120.0,4.0,0.0
3375,72.0,2.0,60.0,2.0,0.0
3376,63.0,0.0,60.0,11.0,0.0
3377,63.0,0.0,60.0,2.0,0.0
3378,51.0,56.0,120.0,5.0,0.0
3379,63.0,2.0,60.0,12.0,0.0
3380,44.0,1.0,60.0,13.0,0.0
3381,44.0,3.0,60.0,3.0,0.0
3382,32.0,51.0,60.0,14.0,0.0
3383,70.0,1.0,60.0,10.0,0.0
3384,82.0,1.0,60.0,0.0,0.0
3385,70.0,0.0,60.0,1.0,0.0
3386,67.0,1.0,60.0,1.0,0.0
3387,67.0,0.0,60.0,2.0,0.0
3388,70.0,0.0,60.0,2.0,0.0
3389,67.0,2.0,60.0,11.0,0.0
3390,58.0,56.0,120.0,5.0,0.0
3391,63.0,2.0,60.0,12.0,0.0
3392,46.0,1.0,60.0,13.0,0.0
3393,46.0,3.0,60.0,3.0,0.0
3394,34.0,51.0,60.0,14.0,0.0
3395,62.0,1.0,60.0,10.0,0.0
3396,74.0,1.0,60.0,0.0,0.0
3397,70.0,0.0,15.0,6.0,0.0
3398,68.0,0.0,60.0,1.0,0.0
3399,74.0,1.0,60.0,1.0,0.0
3400,58.0,2.0,15.0,4.0,0.0
3401,62.0,2.0,60.0,11.0,0.0
3402,53.0,0.0,60.0,11.0,0.0
3403,68.0,0.0,60.0,2.0,0.0
3404,62.0,0.0,60.0,2.0,0.0
3405,58.0,106.0,120.0,5.0,0.0
3406,56.0,2.0,60.0,12.0,0.0
3407,46.0,1.0,60.0,13.0,0.0
3408,46.0,3.0,60.0,3.0,0.0
3409,34.0,51.0,60.0,14.0,0.0
3410,63.0,3.0,120.0,10.0,0.0
3411,75.0,1.0,120.0,0.0,0.0
3412,63.0,1.0,120.0,6.0,0.0
3413,67.0,0.0,120.0,1.0,0.0
3414,75.0,0.0,120.0,1.0,0.0
3415,58.0,0.0,120.0,4.0,0.0
3416,63.0,2.0,120.0,11.0,0.0
3417,55.0,0.0,120.0,11.0,0.0
3418,67.0,0.0,120.0,2.0,0.0
3419,63.0,1.0,120.0,2.0,0.0
3420,51.0,82.0,120.0,5.0,0.0
3421,55.0,6.0,120.0,12.0,0.0
3422,51.0,1.0,300.0,13.0,0.0
3423,51.0,3.0,300.0,3.0,0.0
3424,39.0,15.0,300.0,14.0,0.0
3425,58.0,3.0,90.0,10.0,0.0
3426,54.0,2.0,90.0,11.0,0.0
3427,51.0,96.0,90.0,12.0,0.0
3428,58.0,3.0,90.0,10.0,0.0
3429,54.0,2.0,90.0,11.0,0.0
3430,51.0,36.0,90.0,12.0,0.0
3431,49.0,1.0,60.0,13.0,0.0
3432,49.0,3.0,60.0,3.0,0.0
3433,37.0,56.0,60.0,14.0,0.0
3434,58.0,3.0,90.0,10.0,0.0
3435,54.0,2.0,90.0,11.0,0.0
3436,51.0,26.0,90.0,12.0,0.0
3437,47.0,1.0,60.0,13.0,0.0
3438,47.0,3.0,60.0,3.0,0.0
3439,35.0,15.0,60.0,14.0,0.0
3440,46.0,1.0,60.0,13.0,0.0
3441,46.0,3.0,60.0,3.0,0.0
3442,34.0,85.0,60.0,14.0,0.0
3443,59.0,3.0,90.0,10.0,0.0
3444,56.0,2.0,90.0,11.0,0.0
3445,51.0,37.0,90.0,12.0,0.0
3446,44.0,4.0,300.0,13.0,0.0
3447,44.0,78.0,120.0,3.0,0.0
3448,32.0,25.0,300.0,14.0,0.0
3449,59.0,3.0,90.0,10.0,0.0
3450,56.0,2.0,90.0,11.0,0.0
3451,51.0,86.0,90.0,12.0,0.0
3452,59.0,3.0,90.0,10.0,0.0
3453,56.0,2.0,90.0,11.0,0.0
3454,51.0,36.0,90.0,12.0,0.0
3455,42.0,4.0,60.0,13.0,0.0
3456,30.0,56.0,60.0,14.0,0.0
3457,59.0,3.0,90.0,10.0,0.0
3458,56.0,2.0,90.0,11.0,0.0
3459,51.0,26.0,90.0,12.0,0.0
3460,41.0,4.0,60.0,13.0,0.0
3461,29.0,15.0,60.0,14.0,0.0
3462,39.0,4.0,60.0,13.0,0.0
3463,27.0,85.0,60.0,14.0,0.0
3464,59.0,3.0,90.0,10.0,0.0
3465,73.0,5.0,840.0,1.0,0.0
3466,56.0,2.0,90.0,11.0,0.0
3467,53.0,115.0,90.0,12.0,0.0
3468,37.0,4.0,300.0,13.0,0.0
3469,25.0,25.0,300.0,14.0,0.0
3470,59.0,3.0,90.0,10.0,0.0
3471,56.0,2.0,90.0,11.0,0.0
3472,49.0,86.0,90.0,12.0,0.0
3473,59.0,3.0,90.0,10.0,0.0
3474,56.0,2.0,90.0,11.0,0.0
3475,49.0,36.0,90.0,12.0,0.0
3476,39.0,4.0,60.0,13.0,0.0
3477,27.0,56.0,60.0,14.0,0.0
3478,59.0,3.0,90.0,10.0,0.0
3479,56.0,2.0,90.0,11.0,0.0
3480,49.0,26.0,90.0,12.0,0.0
3481,40.0,4.0,60.0,13.0,0.0
3482,28.0,15.0,60.0,14.0,0.0
3483,41.0,4.0,60.0,13.0,0.0
3484,29.0,85.0,60.0,14.0,0.0
3485,58.0,3.0,90.0,10.0,0.0
3486,54.0,2.0,90.0,11.0,0.0
3487,49.0,115.0,90.0,12.0,0.0
3488,42.0,4.0,300.0,13.0,0.0
3489,30.0,25.0,300.0,14.0,0.0
3490,58.0,3.0,90.0,10.0,0.0
3491,54.0,2.0,90.0,11.0,0.0
3492,49.0,86.0,90.0,12.0,0.0
3493,58.0,3.0,90.0,10.0,0.0
3494,54.0,2.0,90.0,11.0,0.0
3495,49.0,31.0,90.0,12.0,0.0
3496,44.0,4.0,60.0,13.0,0.0
3497,32.0,51.0,60.0,14.0,0.0
3498,58.0,3.0,90.0,10.0,0.0
3499,71.0,5.0,60.0,1.0,0.0
3500,54.0,2.0,90.0,11.0,0.0
3501,49.0,21.0,90.0,12.0,0.0
3502,45.0,4.0,60.0,13.0,0.0
3503,33.0,15.0,60.0,14.0,0.0
3504,70.0,5.0,60.0,1.0,0.0
3505,46.0,4.0,60.0,13.0,0.0
3506,34.0,46.0,60.0,14.0,0.0
3507,56.0,3.0,90.0,10.0,0.0
3508,70.0,20.0,40.0,1.0,0.0
3509,54.0,2.0,90.0,11.0,0.0
3510,51.0,1.0,90.0,12.0,0.0
3511,47.0,4.0,60.0,13.0,0.0
3512,35.0,15.0,60.0,14.0,0.0
3513,68.0,25.0,40.0,1.0,0.0
3514,46.0,4.0,60.0,13.0,0.0
3515,34.0,36.0,60.0,14.0,0.0
3516,56.0,3.0,90.0,10.0,0.0
3517,68.0,5.0,90.0,1.0,0.0
3518,54.0,2.0,90.0,11.0,0.0
3519,51.0,1.0,90.0,12.0,0.0
3520,47.0,4.0,30.0,13.0,0.0
3521,35.0,45.0,30.0,14.0,0.0
3522,48.0,4.0,30.0,13.0,0.0
3523,36.0,86.0,30.0,14.0,0.0
3524,56.0,3.0,90.0,10.0,0.0
3525,68.0,25.0,90.0,1.0,0.0
3526,53.0,2.0,90.0,11.0,0.0
3527,49.0,1.0,90.0,12.0,0.0
3528,49.0,4.0,60.0,13.0,0.0
3529,37.0,15.0,60.0,14.0,0.0
3530,48.0,4.0,60.0,13.0,0.0
3531,36.0,36.0,60.0,14.0,0.0
3532,56.0,3.0,90.0,10.0,0.0
3533,68.0,5.0,90.0,1.0,0.0
3534,53.0,2.0,90.0,11.0,0.0
3535,53.0,1.0,90.0,12.0,0.0
3536,49.0,4.0,30.0,13.0,0.0
3537,37.0,45.0,30.0,14.0,0.0
3538,49.0,4.0,30.0,13.0,0.0
3539,37.0,105.0,30.0,14.0,0.0
3540,56.0,3.0,90.0,10.0,0.0
3541,70.0,5.0,840.0,1.0,0.0
3542,53.0,2.0,90.0,11.0,0.0
3543,53.0,115.0,90.0,12.0,0.0
3544,50.0,4.0,300.0,13.0,0.0
3545,58.0,3.0,840.0,3.0,0.0
3546,38.0,25.0,300.0,14.0,0.0
3547,68.0,3.0,90.0,10.0,0.0
3548,65.0,2.0,90.0,11.0,0.0
3549,58.0,86.0,90.0,12.0,0.0
3550,68.0,3.0,90.0,10.0,0.0
3551,65.0,2.0,90.0,11.0,0.0
3552,58.0,36.0,90.0,12.0,0.0
3553,46.0,4.0,60.0,13.0,0.0
3554,34.0,56.0,60.0,14.0,0.0
3555,68.0,3.0,90.0,10.0,0.0
3556,65.0,2.0,90.0,11.0,0.0
3557,58.0,26.0,90.0,12.0,0.0
3558,48.0,4.0,60.0,13.0,0.0
3559,36.0,15.0,60.0,14.0,0.0
3560,50.0,4.0,60.0,13.0,0.0
3561,38.0,85.0,60.0,14.0,0.0
3562,66.0,3.0,90.0,10.0,0.0
3563,63.0,2.0,90.0,11.0,0.0
3564,58.0,115.0,90.0,12.0,0.0
3565,51.0,4.0,300.0,13.0,0.0
3566,39.0,25.0,300.0,14.0,0.0
3567,66.0,3.0,90.0,10.0,0.0
3568,63.0,2.0,90.0,11.0,0.0
3569,58.0,86.0,90.0,12.0,0.0
3570,66.0,3.0,90.0,10.0,0.0
3571,63.0,2.0,90.0,11.0,0.0
3572,58.0,31.0,90.0,12.0,0.0
3573,51.0,1.0,60.0,13.0,0.0
3574,39.0,51.0,60.0,14.0,0.0
3575,66.0,3.0,90.0,10.0,0.0
3576,68.0,5.0,60.0,1.0,0.0
3577,58.0,2.0,90.0,11.0,0.0
3578,63.0,21.0,90.0,12.0,0.0
3579,53.0,1.0,60.0,13.0,0.0
3580,56.0,3.0,60.0,3.0,0.0
3581,41.0,15.0,60.0,14.0,0.0
3582,66.0,5.0,60.0,1.0,0.0
3583,54.0,1.0,60.0,13.0,0.0
3584,54.0,3.0,60.0,3.0,0.0
3585,42.0,46.0,60.0,14.0,0.0
3586,65.0,3.0,90.0,10.0,0.0
3587,66.0,6.0,40.0,1.0,0.0
3588,59.0,2.0,90.0,11.0,0.0
3589,63.0,1.0,90.0,12.0,0.0
3590,56.0,4.0,60.0,13.0,0.0
3591,54.0,14.0,40.0,3.0,0.0
3592,44.0,15.0,60.0,14.0,0.0
3593,65.0,6.0,40.0,1.0,0.0
3594,53.0,19.0,40.0,3.0,0.0
3595,55.0,4.0,60.0,13.0,0.0
3596,43.0,36.0,60.0,14.0,0.0
3597,65.0,3.0,90.0,10.0,0.0
3598,65.0,5.0,90.0,1.0,0.0
3599,59.0,2.0,90.0,11.0,0.0
3600,63.0,1.0,90.0,12.0,0.0
3601,56.0,4.0,30.0,13.0,0.0
3602,53.0,3.0,90.0,3.0,0.0
3603,44.0,45.0,30.0,14.0,0.0
3604,56.0,1.0,30.0,13.0,0.0
3605,44.0,86.0,30.0,14.0,0.0
3606,65.0,3.0,90.0,10.0,0.0
3607,65.0,6.0,90.0,1.0,0.0
3608,60.0,2.0,90.0,11.0,0.0
3609,63.0,1.0,90.0,12.0,0.0
3610,57.0,4.0,60.0,13.0,0.0
3611,53.0,19.0,90.0,3.0,0.0
3612,45.0,15.0,60.0,14.0,0.0
3613,56.0,4.0,60.0,13.0,0.0
3614,44.0,36.0,60.0,14.0,0.0
3615,65.0,3.0,90.0,10.0,0.0
3616,65.0,5.0,90.0,1.0,0.0
3617,60.0,2.0,90.0,11.0,0.0
3618,63.0,1.0,90.0,12.0,0.0
3619,57.0,4.0,30.0,13.0,0.0
3620,53.0,3.0,90.0,3.0,0.0
3621,45.0,45.0,30.0,14.0,0.0
3622,57.0,1.0,30.0,13.0,0.0
3623,45.0,105.0,30.0,14.0,0.0
3624,65.0,3.0,90.0,10.0,0.0
3625,80.0,0.0,480.0,0.0,0.0
3626,74.0,0.0,480.0,0.0,0.0
3627,74.0,1.0,480.0,1.0,0.0
3628,68.0,0.0,480.0,1.0,0.0
3629,68.0,0.0,480.0,2.0,0.0
3630,65.0,5.0,480.0,2.0,0.0
3631,62.0,2.0,90.0,11.0,0.0
3632,62.0,115.0,90.0,12.0,0.0
3633,58.0,4.0,300.0,13.0,0.0
3634,56.0,0.0,480.0,3.0,0.0
3635,62.0,78.0,480.0,3.0,0.0
3636,46.0,25.0,300.0,14.0,0.0
3637,74.0,3.0,90.0,10.0,0.0
3638,68.0,2.0,90.0,11.0,0.0
3639,65.0,86.0,90.0,12.0,0.0
3640,74.0,3.0,90.0,10.0,0.0
3641,68.0,2.0,90.0,11.0,0.0
3642,65.0,36.0,90.0,12.0,0.0
3643,57.0,4.0,60.0,13.0,0.0
3644,45.0,56.0,60.0,14.0,0.0
3645,74.0,3.0,90.0,10.0,0.0
3646,68.0,2.0,90.0,11.0,0.0
3647,65.0,26.0,90.0,12.0,0.0
3648,58.0,4.0,60.0,13.0,0.0
3649,46.0,15.0,60.0,14.0,0.0
3650,59.0,4.0,60.0,13.0,0.0
3651,47.0,1.0,60.0,14.0,0.0
3652,75.0,3.0,90.0,10.0,0.0
3653,79.0,0.0,480.0,0.0,0.0
3654,75.0,0.0,720.0,0.0,0.0
3655,75.0,1.0,720.0,1.0,0.0
3656,67.0,1.0,480.0,1.0,0.0
3657,67.0,2.0,90.0,11.0,0.0
3658,63.0,5.0,720.0,2.0,0.0
3659,67.0,5.0,480.0,2.0,0.0
3660,63.0,115.0,90.0,12.0,0.0
3661,60.0,4.0,300.0,13.0,0.0
3662,63.0,59.0,480.0,3.0,0.0
3663,55.0,0.0,480.0,3.0,0.0
3664,48.0,15.0,300.0,14.0,0.0
3665,75.0,3.0,90.0,10.0,0.0
3666,67.0,2.0,90.0,11.0,0.0
3667,63.0,96.0,90.0,12.0,0.0
3668,75.0,3.0,90.0,10.0,0.0
3669,67.0,2.0,90.0,11.0,0.0
3670,63.0,36.0,90.0,12.0,0.0
3671,58.0,4.0,60.0,13.0,0.0
3672,46.0,56.0,60.0,14.0,0.0
3673,75.0,3.0,90.0,10.0,0.0
3674,67.0,2.0,90.0,11.0,0.0
3675,63.0,26.0,90.0,12.0,0.0
3676,56.0,4.0,60.0,13.0,0.0
3677,44.0,15.0,60.0,14.0,0.0
3678,55.0,4.0,60.0,13.0,0.0
3679,43.0,1.0,60.0,14.0,0.0
3680,75.0,3.0,90.0,10.0,0.0
3681,77.0,0.0,480.0,0.0,0.0
3682,65.0,113.0,480.0,1.0,0.0
3683,72.0,0.0,240.0,2.0,0.0
3684,65.0,2.0,90.0,11.0,0.0
3685,60.0,36.0,90.0,12.0,0.0
3686,56.0,4.0,60.0,13.0,0.0
3687,63.0,0.0,240.0,3.0,0.0
3688,60.0,59.0,240.0,3.0,0.0
3689,44.0,15.0,60.0,14.0,0.0
3690,55.0,4.0,60.0,13.0,0.0
3691,43.0,56.0,60.0,14.0,0.0
3692,75.0,3.0,90.0,10.0,0.0
3693,72.0,2.0,90.0,11.0,0.0
3694,65.0,26.0,90.0,12.0,0.0
3695,56.0,4.0,60.0,13.0,0.0
3696,44.0,15.0,60.0,14.0,0.0
3697,57.0,4.0,60.0,13.0,0.0
3698,45.0,1.0,60.0,14.0,0.0
3699,74.0,3.0,90.0,10.0,0.0
3700,74.0,1.0,240.0,0.0,0.0
3701,74.0,1.0,240.0,1.0,0.0
3702,62.0,0.0,240.0,2.0,0.0
3703,68.0,4.0,240.0,2.0,0.0
3704,68.0,2.0,90.0,11.0,0.0
3705,65.0,36.0,90.0,12.0,0.0
3706,58.0,4.0,60.0,13.0,0.0
3707,62.0,0.0,240.0,3.0,0.0
3708,56.0,3.0,240.0,3.0,0.0
3709,46.0,15.0,60.0,14.0,0.0
3710,56.0,4.0,60.0,13.0,0.0
3711,44.0,56.0,60.0,14.0,0.0
3712,74.0,3.0,90.0,10.0,0.0
3713,68.0,2.0,90.0,11.0,0.0
3714,65.0,20.0,90.0,12.0,0.0
3715,58.0,4.0,60.0,13.0,0.0
3716,46.0,15.0,60.0,14.0,0.0
3717,46.0,1.0,60.0,13.0,0.0
3718,34.0,1.0,60.0,14.0,0.0
3719,75.0,1.0,360.0,10.0,0.0
3720,75.0,1.0,360.0,0.0,0.0
3721,63.0,1.0,360.0,1.0,0.0
3722,75.0,0.0,360.0,1.0,0.0
3723,67.0,0.0,120.0,2.0,0.0
3724,63.0,5.0,360.0,11.0,0.0
3725,63.0,92.0,120.0,2.0,0.0
3726,51.0,2.0,120.0,12.0,0.0
3727,51.0,4.0,120.0,13.0,0.0
3728,51.0,0.0,360.0,3.0,0.0
3729,63.0,12.0,360.0,3.0,0.0
3730,39.0,2.0,120.0,14.0,0.0
3731,46.0,2.0,90.0,12.0,0.0
3732,46.0,4.0,90.0,13.0,0.0
3733,34.0,14.0,90.0,14.0,0.0
3734,50.0,2.0,20.0,12.0,0.0
3735,50.0,4.0,20.0,13.0,0.0
3736,38.0,109.0,20.0,14.0,0.0
3737,51.0,2.0,360.0,6.0,0.0
3738,63.0,0.0,360.0,6.0,0.0
3739,63.0,0.0,360.0,4.0,0.0
3740,51.0,91.0,360.0,5.0,0.0
3741,51.0,2.0,360.0,12.0,0.0
3742,51.0,4.0,360.0,13.0,0.0
3743,39.0,80.0,120.0,15.0,0.0
3744,39.0,1.0,360.0,14.0,0.0
3745,70.0,1.0,90.0,10.0,0.0
3746,70.0,1.0,90.0,0.0,0.0
3747,58.0,1.0,90.0,1.0,0.0
3748,70.0,0.0,90.0,1.0,0.0
3749,58.0,5.0,90.0,11.0,0.0
3750,58.0,12.0,90.0,3.0,0.0
3751,46.0,0.0,90.0,3.0,0.0
3752,74.0,1.0,20.0,10.0,0.0
3753,74.0,1.0,20.0,0.0,0.0
3754,62.0,0.0,20.0,1.0,0.0
3755,74.0,1.0,20.0,1.0,0.0
3756,62.0,5.0,20.0,11.0,0.0
3757,62.0,117.0,20.0,3.0,0.0
3758,50.0,0.0,20.0,3.0,0.0
3759,75.0,1.0,360.0,10.0,0.0
3760,75.0,1.0,360.0,0.0,0.0
3761,63.0,1.0,360.0,1.0,0.0
3762,75.0,0.0,360.0,1.0,0.0
3763,63.0,5.0,360.0,11.0,0.0
3764,51.0,12.0,360.0,3.0,0.0
3765,63.0,0.0,360.0,3.0,0.0
3766,46.0,2.0,90.0,12.0,0.0
3767,46.0,4.0,90.0,13.0,0.0
3768,34.0,14.0,90.0,14.0,0.0
3769,50.0,2.0,20.0,12.0,0.0
3770,50.0,4.0,20.0,13.0,0.0
3771,38.0,109.0,20.0,14.0,0.0
3772,63.0,1.0,360.0,6.0,0.0
3773,51.0,0.0,360.0,6.0,0.0
3774,63.0,0.0,360.0,4.0,0.0
3775,51.0,1.0,360.0,5.0,0.0
3776,51.0,2.0,360.0,12.0,0.0
3777,51.0,1.0,360.0,13.0,0.0
3778,39.0,80.0,120.0,15.0,0.0
3779,39.0,49.0,360.0,14.0,0.0
3780,70.0,1.0,90.0,10.0,0.0
3781,70.0,1.0,90.0,0.0,0.0
3782,70.0,0.0,90.0,1.0,0.0
3783,58.0,1.0,90.0,1.0,0.0
3784,58.0,5.0,90.0,11.0,0.0
3785,46.0,12.0,90.0,3.0,0.0
3786,58.0,0.0,90.0,3.0,0.0
3787,74.0,1.0,20.0,10.0,0.0
3788,74.0,1.0,20.0,0.0,0.0
3789,74.0,0.0,20.0,1.0,0.0
3790,62.0,1.0,20.0,1.0,0.0
3791,62.0,5.0,20.0,11.0,0.0
3792,50.0,32.0,20.0,3.0,0.0
3793,62.0,0.0,20.0,3.0,0.0
3794,75.0,3.0,30.0,10.0,0.0
3795,75.0,1.0,60.0,0.0,0.0
3796,63.0,0.0,60.0,1.0,0.0
3797,75.0,58.0,60.0,1.0,0.0
3798,63.0,28.0,30.0,11.0,0.0
3799,51.0,0.0,120.0,3.0,0.0
3800,63.0,2.0,120.0,3.0,0.0
3801,39.0,1.0,120.0,15.0,0.0
3802,75.0,2.0,60.0,10.0,0.0
3803,63.0,1.0,60.0,11.0,0.0
3804,74.0,3.0,60.0,10.0,0.0
3805,62.0,47.0,60.0,11.0,0.0
3806,75.0,3.0,60.0,10.0,0.0
3807,63.0,37.0,60.0,11.0,0.0
3808,77.0,3.0,30.0,10.0,0.0
3809,77.0,1.0,60.0,0.0,0.0
3810,65.0,58.0,60.0,1.0,0.0
3811,74.0,0.0,60.0,1.0,0.0
3812,62.0,0.0,120.0,2.0,0.0
3813,65.0,28.0,30.0,11.0,0.0
3814,65.0,0.0,120.0,2.0,0.0
3815,62.0,2.0,120.0,12.0,0.0
3816,46.0,1.0,120.0,13.0,0.0
3817,46.0,3.0,120.0,3.0,0.0
3818,34.0,49.0,120.0,14.0,0.0
3819,77.0,3.0,60.0,10.0,0.0
3820,65.0,2.0,60.0,11.0,0.0
3821,75.0,3.0,60.0,10.0,0.0
3822,63.0,47.0,60.0,11.0,0.0
3823,77.0,3.0,60.0,10.0,0.0
3824,65.0,37.0,60.0,11.0,0.0
3825,79.0,3.0,30.0,10.0,0.0
3826,79.0,1.0,60.0,0.0,0.0
3827,75.0,0.0,60.0,1.0,0.0
3828,67.0,58.0,60.0,1.0,0.0
3829,63.0,0.0,120.0,2.0,0.0
3830,67.0,2.0,120.0,2.0,0.0
3831,67.0,28.0,30.0,11.0,0.0
3832,63.0,2.0,120.0,12.0,0.0
3833,51.0,1.0,120.0,13.0,0.0
3834,51.0,3.0,120.0,3.0,0.0
3835,39.0,49.0,120.0,14.0,0.0
3836,79.0,3.0,60.0,10.0,0.0
3837,67.0,0.0,60.0,11.0,0.0
3838,77.0,3.0,60.0,10.0,0.0
3839,65.0,47.0,60.0,11.0,0.0
3840,79.0,3.0,60.0,10.0,0.0
3841,67.0,37.0,60.0,11.0,0.0
3842,80.0,3.0,30.0,10.0,0.0
3843,80.0,1.0,60.0,0.0,0.0
3844,74.0,0.0,60.0,1.0,0.0
3845,68.0,58.0,60.0,1.0,0.0
3846,68.0,0.0,120.0,2.0,0.0
3847,68.0,28.0,30.0,11.0,0.0
3848,62.0,2.0,120.0,2.0,0.0
3849,70.0,2.0,120.0,12.0,0.0
3850,58.0,0.0,120.0,12.0,0.0
3851,53.0,1.0,120.0,13.0,0.0
3852,53.0,3.0,120.0,3.0,0.0
3853,41.0,49.0,120.0,14.0,0.0
3854,80.0,3.0,60.0,10.0,0.0
3855,68.0,0.0,60.0,11.0,0.0
3856,79.0,3.0,60.0,10.0,0.0
3857,67.0,47.0,60.0,11.0,0.0
3858,80.0,3.0,60.0,10.0,0.0
3859,68.0,27.0,60.0,11.0,0.0
3860,82.0,3.0,20.0,10.0,0.0
3861,82.0,1.0,480.0,0.0,0.0
3862,70.0,0.0,480.0,1.0,0.0
3863,75.0,1.0,480.0,1.0,0.0
3864,70.0,27.0,20.0,11.0,0.0
3865,67.0,17.0,120.0,2.0,0.0
3866,63.0,0.0,120.0,2.0,0.0
3867,55.0,2.0,60.0,12.0,0.0
3868,43.0,4.0,60.0,13.0,0.0
3869,58.0,22.0,480.0,3.0,0.0
3870,55.0,0.0,480.0,3.0,0.0
3871,31.0,9.0,60.0,14.0,0.0
3872,82.0,3.0,20.0,10.0,0.0
3873,70.0,12.0,20.0,11.0,0.0
3874,82.0,3.0,20.0,10.0,0.0
3875,70.0,27.0,20.0,11.0,0.0
3876,82.0,3.0,20.0,10.0,0.0
3877,70.0,10.0,20.0,11.0,0.0
3878,82.0,3.0,20.0,10.0,0.0
3879,70.0,27.0,20.0,11.0,0.0
3880,58.0,2.0,60.0,12.0,0.0
3881,46.0,4.0,60.0,13.0,0.0
3882,34.0,9.0,60.0,14.0,0.0
3883,82.0,3.0,20.0,10.0,0.0
3884,70.0,12.0,20.0,11.0,0.0
3885,82.0,3.0,20.0,10.0,0.0
3886,70.0,27.0,20.0,11.0,0.0
3887,82.0,3.0,20.0,10.0,0.0
3888,70.0,27.0,20.0,11.0,0.0
3889,82.0,3.0,20.0,10.0,0.0
3890,70.0,27.0,20.0,11.0,0.0
3891,63.0,2.0,60.0,12.0,0.0
3892,51.0,4.0,60.0,13.0,0.0
3893,39.0,9.0,60.0,14.0,0.0
3894,82.0,3.0,20.0,10.0,0.0
3895,70.0,12.0,20.0,11.0,0.0
3896,82.0,3.0,20.0,10.0,0.0
3897,70.0,27.0,20.0,11.0,0.0
3898,82.0,3.0,20.0,10.0,0.0
3899,70.0,27.0,20.0,11.0,0.0
3900,82.0,3.0,20.0,10.0,0.0
3901,70.0,27.0,20.0,11.0,0.0
3902,67.0,2.0,60.0,12.0,0.0
3903,55.0,4.0,60.0,13.0,0.0
3904,43.0,9.0,60.0,14.0,0.0
3905,82.0,3.0,20.0,10.0,0.0
3906,70.0,12.0,20.0,11.0,0.0
3907,82.0,3.0,20.0,10.0,0.0
3908,70.0,27.0,20.0,11.0,0.0
3909,82.0,1.0,20.0,10.0,0.0
3910,70.0,5.0,20.0,11.0,0.0
3911,83.0,3.0,20.0,10.0,0.0
3912,83.0,1.0,480.0,0.0,0.0
3913,74.0,0.0,480.0,0.0,0.0
3914,71.0,1.0,480.0,1.0,0.0
3915,74.0,0.0,480.0,1.0,0.0
3916,71.0,27.0,20.0,11.0,0.0
3917,53.0,2.0,60.0,12.0,0.0
3918,41.0,4.0,60.0,13.0,0.0
3919,56.0,22.0,480.0,3.0,0.0
3920,53.0,0.0,480.0,3.0,0.0
3921,29.0,9.0,60.0,14.0,0.0
3922,83.0,3.0,20.0,10.0,0.0
3923,71.0,12.0,20.0,11.0,0.0
3924,83.0,3.0,20.0,10.0,0.0
3925,71.0,27.0,20.0,11.0,0.0
3926,83.0,3.0,20.0,10.0,0.0
3927,71.0,27.0,20.0,11.0,0.0
3928,83.0,3.0,20.0,10.0,0.0
3929,71.0,27.0,20.0,11.0,0.0
3930,56.0,2.0,60.0,12.0,0.0
3931,44.0,4.0,60.0,13.0,0.0
3932,32.0,9.0,60.0,14.0,0.0
3933,83.0,3.0,20.0,10.0,0.0
3934,71.0,12.0,20.0,11.0,0.0
3935,83.0,3.0,20.0,10.0,0.0
3936,71.0,27.0,20.0,11.0,0.0
3937,83.0,3.0,20.0,10.0,0.0
3938,71.0,27.0,20.0,11.0,0.0
3939,83.0,3.0,20.0,10.0,0.0
3940,71.0,27.0,20.0,11.0,0.0
3941,62.0,2.0,60.0,12.0,0.0
3942,50.0,4.0,60.0,13.0,0.0
3943,38.0,9.0,60.0,14.0,0.0
3944,83.0,3.0,20.0,10.0,0.0
3945,71.0,12.0,20.0,11.0,0.0
3946,83.0,3.0,20.0,10.0,0.0
3947,71.0,27.0,20.0,11.0,0.0
3948,83.0,3.0,20.0,10.0,0.0
3949,71.0,27.0,20.0,11.0,0.0
3950,83.0,3.0,20.0,10.0,0.0
3951,71.0,27.0,20.0,11.0,0.0
3952,65.0,2.0,60.0,12.0,0.0
3953,53.0,4.0,60.0,13.0,0.0
3954,41.0,9.0,60.0,14.0,0.0
3955,83.0,3.0,20.0,10.0,0.0
3956,71.0,12.0,20.0,11.0,0.0
3957,83.0,3.0,20.0,10.0,0.0
3958,71.0,27.0,20.0,11.0,0.0
3959,83.0,1.0,20.0,10.0,0.0
3960,71.0,5.0,20.0,11.0,0.0
3961,84.0,3.0,20.0,10.0,0.0
3962,84.0,1.0,480.0,0.0,0.0
3963,79.0,0.0,480.0,0.0,0.0
3964,72.0,0.0,480.0,1.0,0.0
3965,67.0,1.0,480.0,1.0,0.0
3966,72.0,27.0,20.0,11.0,0.0
3967,52.0,2.0,60.0,12.0,0.0
3968,40.0,4.0,60.0,13.0,0.0
3969,52.0,0.0,480.0,3.0,0.0
3970,55.0,22.0,480.0,3.0,0.0
3971,28.0,9.0,60.0,14.0,0.0
3972,84.0,3.0,20.0,10.0,0.0
3973,72.0,12.0,20.0,11.0,0.0
3974,84.0,3.0,20.0,10.0,0.0
3975,72.0,27.0,20.0,11.0,0.0
3976,84.0,3.0,20.0,10.0,0.0
3977,72.0,27.0,20.0,11.0,0.0
3978,84.0,3.0,20.0,10.0,0.0
3979,72.0,27.0,20.0,11.0,0.0
3980,55.0,2.0,60.0,12.0,0.0
3981,43.0,4.0,60.0,13.0,0.0
3982,31.0,9.0,60.0,14.0,0.0
3983,84.0,3.0,20.0,10.0,0.0
3984,72.0,12.0,20.0,11.0,0.0
3985,84.0,3.0,20.0,10.0,0.0
3986,72.0,27.0,20.0,11.0,0.0
3987,84.0,3.0,20.0,10.0,0.0
3988,72.0,27.0,20.0,11.0,0.0
3989,84.0,3.0,20.0,10.0,0.0
3990,72.0,27.0,20.0,11.0,0.0
3991,60.0,2.0,60.0,12.0,0.0
3992,48.0,4.0,60.0,13.0,0.0
3993,36.0,9.0,60.0,14.0,0.0
3994,84.0,3.0,20.0,10.0,0.0
3995,72.0,12.0,20.0,11.0,0.0
3996,84.0,3.0,20.0,10.0,0.0
3997,72.0,27.0,20.0,11.0,0.0
3998,84.0,3.0,20.0,10.0,0.0
3999,72.0,27.0,20.0,11.0,0.0
4000,84.0,3.0,20.0,10.0,0.0
4001,72.0,27.0,20.0,11.0,0.0
4002,64.0,2.0,60.0,12.0,0.0
4003,52.0,4.0,60.0,13.0,0.0
4004,40.0,9.0,60.0,14.0,0.0
4005,84.0,3.0,20.0,10.0,0.0
4006,72.0,12.0,20.0,11.0,0.0
4007,84.0,3.0,20.0,10.0,0.0
4008,72.0,27.0,20.0,11.0,0.0
4009,84.0,1.0,20.0,10.0,0.0
4010,72.0,5.0,20.0,11.0,0.0
4011,85.0,3.0,20.0,10.0,0.0
4012,73.0,1.0,120.0,0.0,0.0
4013,85.0,0.0,120.0,0.0,0.0
4014,73.0,6.0,120.0,1.0,0.0
4015,73.0,27.0,20.0,11.0,0.0
4016,58.0,2.0,60.0,12.0,0.0
4017,46.0,4.0,60.0,13.0,0.0
4018,46.0,12.0,480.0,3.0,0.0
4019,61.0,12.0,120.0,3.0,0.0
4020,34.0,9.0,60.0,14.0,0.0
4021,85.0,3.0,20.0,10.0,0.0
4022,73.0,12.0,20.0,11.0,0.0
4023,85.0,3.0,20.0,10.0,0.0
4024,73.0,27.0,20.0,11.0,0.0
4025,85.0,3.0,20.0,10.0,0.0
4026,73.0,8.0,20.0,11.0,0.0
4027,82.0,3.0,20.0,10.0,0.0
4028,82.0,1.0,120.0,0.0,0.0
4029,70.0,6.0,120.0,1.0,0.0
4030,70.0,27.0,20.0,11.0,0.0
4031,70.0,2.0,60.0,12.0,0.0
4032,58.0,4.0,60.0,13.0,0.0
4033,58.0,12.0,120.0,3.0,0.0
4034,46.0,9.0,60.0,14.0,0.0
4035,82.0,3.0,20.0,10.0,0.0
4036,70.0,12.0,20.0,11.0,0.0
4037,82.0,3.0,20.0,10.0,0.0
4038,70.0,27.0,20.0,11.0,0.0
4039,82.0,3.0,20.0,10.0,0.0
4040,70.0,8.0,20.0,11.0,0.0
4041,79.0,3.0,20.0,10.0,0.0
4042,79.0,1.0,120.0,0.0,0.0
4043,67.0,6.0,120.0,1.0,0.0
4044,67.0,27.0,20.0,11.0,0.0
4045,70.0,2.0,60.0,12.0,0.0
4046,58.0,4.0,60.0,13.0,0.0
4047,55.0,12.0,120.0,3.0,0.0
4048,46.0,9.0,60.0,14.0,0.0
4049,79.0,3.0,20.0,10.0,0.0
4050,67.0,12.0,20.0,11.0,0.0
4051,79.0,3.0,20.0,10.0,0.0
4052,67.0,27.0,20.0,11.0,0.0
4053,79.0,3.0,20.0,10.0,0.0
4054,67.0,8.0,20.0,11.0,0.0
4055,76.0,3.0,20.0,10.0,0.0
4056,76.0,1.0,120.0,0.0,0.0
4057,64.0,1.0,120.0,1.0,0.0
4058,64.0,27.0,20.0,11.0,0.0
4059,70.0,2.0,60.0,12.0,0.0
4060,58.0,4.0,60.0,13.0,0.0
4061,52.0,10.0,120.0,3.0,0.0
4062,46.0,9.0,60.0,14.0,0.0
4063,76.0,3.0,20.0,10.0,0.0
4064,64.0,12.0,20.0,11.0,0.0
4065,76.0,3.0,20.0,10.0,0.0
4066,64.0,27.0,20.0,11.0,0.0
4067,76.0,1.0,20.0,10.0,0.0
4068,64.0,5.0,20.0,11.0,0.0
4069,77.0,3.0,20.0,10.0,0.0
4070,72.0,0.0,480.0,0.0,0.0
4071,77.0,1.0,480.0,0.0,0.0
4072,72.0,0.0,480.0,1.0,0.0
4073,65.0,18.0,480.0,1.0,0.0
4074,65.0,27.0,20.0,11.0,0.0
4075,56.0,2.0,60.0,12.0,0.0
4076,44.0,4.0,60.0,13.0,0.0
4077,53.0,22.0,120.0,3.0,0.0
4078,44.0,0.0,120.0,3.0,0.0
4079,32.0,9.0,60.0,14.0,0.0
4080,77.0,3.0,20.0,10.0,0.0
4081,77.0,12.0,20.0,11.0,0.0
4082,77.0,3.0,20.0,10.0,0.0
4083,77.0,27.0,20.0,11.0,0.0
4084,77.0,3.0,20.0,10.0,0.0
4085,77.0,5.0,20.0,11.0,0.0
4086,77.0,3.0,20.0,10.0,0.0
4087,77.0,27.0,20.0,11.0,0.0
4088,68.0,2.0,60.0,12.0,0.0
4089,56.0,4.0,60.0,13.0,0.0
4090,60.0,0.0,120.0,3.0,0.0
4091,56.0,22.0,120.0,3.0,0.0
4092,44.0,9.0,60.0,14.0,0.0
4093,77.0,3.0,20.0,10.0,0.0
4094,77.0,12.0,20.0,11.0,0.0
4095,77.0,3.0,20.0,10.0,0.0
4096,77.0,27.0,20.0,11.0,0.0
4097,77.0,3.0,20.0,10.0,0.0
4098,77.0,5.0,20.0,11.0,0.0
4099,77.0,3.0,20.0,10.0,0.0
4100,77.0,27.0,20.0,11.0,0.0
4101,68.0,2.0,60.0,12.0,0.0
4102,56.0,4.0,60.0,13.0,0.0
4103,60.0,22.0,120.0,3.0,0.0
4104,56.0,0.0,120.0,3.0,0.0
4105,44.0,9.0,60.0,14.0,0.0
4106,77.0,3.0,20.0,10.0,0.0
4107,77.0,12.0,20.0,11.0,0.0
4108,77.0,3.0,20.0,10.0,0.0
4109,77.0,27.0,20.0,11.0,0.0
4110,77.0,3.0,20.0,10.0,0.0
4111,77.0,5.0,20.0,11.0,0.0
4112,77.0,3.0,20.0,10.0,0.0
4113,77.0,27.0,20.0,11.0,0.0
4114,68.0,2.0,60.0,12.0,0.0
4115,56.0,4.0,60.0,13.0,0.0
4116,60.0,0.0,120.0,3.0,0.0
4117,56.0,3.0,120.0,3.0,0.0
4118,44.0,9.0,60.0,14.0,0.0
4119,77.0,3.0,20.0,10.0,0.0
4120,77.0,12.0,20.0,11.0,0.0
4121,77.0,3.0,20.0,10.0,0.0
4122,77.0,27.0,20.0,11.0,0.0
4123,77.0,3.0,20.0,10.0,0.0
4124,77.0,5.0,20.0,11.0,0.0
4125,78.0,3.0,20.0,10.0,0.0
4126,78.0,1.0,120.0,0.0,0.0
4127,78.0,6.0,120.0,1.0,0.0
4128,78.0,27.0,20.0,11.0,0.0
4129,57.0,2.0,60.0,12.0,0.0
4130,45.0,4.0,60.0,13.0,0.0
4131,60.0,0.0,120.0,3.0,0.0
4132,57.0,12.0,120.0,3.0,0.0
4133,33.0,9.0,60.0,14.0,0.0
4134,78.0,3.0,20.0,10.0,0.0
4135,78.0,12.0,20.0,11.0,0.0
4136,78.0,3.0,20.0,10.0,0.0
4137,78.0,27.0,20.0,11.0,0.0
4138,78.0,3.0,20.0,10.0,0.0
4139,78.0,8.0,20.0,11.0,0.0
4140,75.0,3.0,20.0,10.0,0.0
4141,75.0,1.0,120.0,0.0,0.0
4142,75.0,6.0,120.0,1.0,0.0
4143,75.0,27.0,20.0,11.0,0.0
4144,63.0,2.0,60.0,12.0,0.0
4145,51.0,4.0,60.0,13.0,0.0
4146,63.0,0.0,120.0,3.0,0.0
4147,51.0,12.0,120.0,3.0,0.0
4148,39.0,9.0,60.0,14.0,0.0
4149,75.0,3.0,20.0,10.0,0.0
4150,75.0,12.0,20.0,11.0,0.0
4151,75.0,3.0,20.0,10.0,0.0
4152,75.0,27.0,20.0,11.0,0.0
4153,75.0,3.0,20.0,10.0,0.0
4154,75.0,8.0,20.0,11.0,0.0
4155,72.0,3.0,20.0,10.0,0.0
4156,72.0,1.0,120.0,0.0,0.0
4157,84.0,0.0,120.0,0.0,0.0
4158,72.0,6.0,120.0,1.0,0.0
4159,72.0,27.0,20.0,11.0,0.0
4160,60.0,2.0,60.0,12.0,0.0
4161,48.0,4.0,60.0,13.0,0.0
4162,60.0,12.0,120.0,3.0,0.0
4163,48.0,0.0,120.0,3.0,0.0
4164,36.0,9.0,60.0,14.0,0.0
4165,72.0,3.0,20.0,10.0,0.0
4166,72.0,12.0,20.0,11.0,0.0
4167,72.0,3.0,20.0,10.0,0.0
4168,72.0,27.0,20.0,11.0,0.0
4169,72.0,3.0,20.0,10.0,0.0
4170,72.0,8.0,20.0,11.0,0.0
4171,69.0,3.0,20.0,10.0,0.0
4172,69.0,0.0,120.0,0.0,0.0
4173,81.0,1.0,120.0,0.0,0.0
4174,69.0,1.0,120.0,1.0,0.0
4175,69.0,27.0,20.0,11.0,0.0
4176,57.0,2.0,60.0,12.0,0.0
4177,45.0,4.0,60.0,13.0,0.0
4178,45.0,0.0,120.0,3.0,0.0
4179,57.0,22.0,120.0,3.0,0.0
4180,33.0,9.0,60.0,14.0,0.0
4181,69.0,3.0,20.0,10.0,0.0
4182,69.0,12.0,20.0,11.0,0.0
4183,69.0,3.0,20.0,10.0,0.0
4184,69.0,27.0,20.0,11.0,0.0
4185,69.0,1.0,20.0,10.0,0.0
4186,69.0,5.0,20.0,11.0,0.0
4187,70.0,3.0,20.0,10.0,0.0
4188,82.0,0.0,240.0,0.0,0.0
4189,70.0,1.0,240.0,0.0,0.0
4190,70.0,1.0,240.0,1.0,0.0
4191,70.0,2.0,240.0,2.0,0.0
4192,70.0,27.0,20.0,11.0,0.0
4193,58.0,0.0,240.0,2.0,0.0
4194,58.0,2.0,60.0,12.0,0.0
4195,46.0,4.0,60.0,13.0,0.0
4196,46.0,0.0,240.0,3.0,0.0
4197,58.0,3.0,240.0,3.0,0.0
4198,34.0,19.0,60.0,14.0,0.0
4199,70.0,3.0,20.0,10.0,0.0
4200,70.0,2.0,20.0,11.0,0.0
4201,70.0,3.0,20.0,10.0,0.0
4202,70.0,27.0,20.0,11.0,0.0
4203,58.0,2.0,60.0,12.0,0.0
4204,46.0,4.0,60.0,13.0,0.0
4205,34.0,19.0,60.0,14.0,0.0
4206,70.0,3.0,20.0,10.0,0.0
4207,70.0,2.0,20.0,11.0,0.0
4208,70.0,3.0,20.0,10.0,0.0
4209,70.0,27.0,20.0,11.0,0.0
4210,58.0,2.0,60.0,12.0,0.0
4211,46.0,4.0,60.0,13.0,0.0
4212,34.0,19.0,60.0,14.0,0.0
4213,70.0,3.0,20.0,10.0,0.0
4214,70.0,2.0,20.0,11.0,0.0
4215,70.0,3.0,20.0,10.0,0.0
4216,70.0,27.0,20.0,11.0,0.0
4217,58.0,2.0,60.0,12.0,0.0
4218,46.0,1.0,60.0,13.0,0.0
4219,34.0,19.0,60.0,14.0,0.0
4220,70.0,1.0,20.0,10.0,0.0
4221,70.0,0.0,20.0,11.0,0.0
4222,72.0,3.0,20.0,10.0,0.0
4223,72.0,1.0,240.0,0.0,0.0
4224,84.0,0.0,240.0,0.0,0.0
4225,60.0,0.0,240.0,4.0,0.0
4226,72.0,1.0,240.0,1.0,0.0
4227,60.0,2.0,240.0,6.0,0.0
4228,72.0,0.0,240.0,6.0,0.0
4229,60.0,0.0,240.0,2.0,0.0
4230,72.0,0.0,240.0,2.0,0.0
4231,72.0,27.0,20.0,11.0,0.0
4232,48.0,16.0,240.0,5.0,0.0
4233,60.0,2.0,60.0,12.0,0.0
4234,48.0,4.0,60.0,13.0,0.0
4235,60.0,3.0,240.0,3.0,0.0
4236,48.0,0.0,240.0,3.0,0.0
4237,36.0,19.0,60.0,14.0,0.0
4238,72.0,3.0,20.0,10.0,0.0
4239,72.0,2.0,20.0,11.0,0.0
4240,72.0,3.0,20.0,10.0,0.0
4241,72.0,27.0,20.0,11.0,0.0
4242,60.0,2.0,60.0,12.0,0.0
4243,48.0,4.0,60.0,13.0,0.0
4244,36.0,19.0,60.0,14.0,0.0
4245,72.0,3.0,20.0,10.0,0.0
4246,72.0,2.0,20.0,11.0,0.0
4247,72.0,3.0,20.0,10.0,0.0
4248,72.0,27.0,20.0,11.0,0.0
4249,60.0,2.0,60.0,12.0,0.0
4250,48.0,4.0,60.0,13.0,0.0
4251,36.0,19.0,60.0,14.0,0.0
4252,72.0,3.0,20.0,10.0,0.0
4253,72.0,2.0,20.0,11.0,0.0
4254,72.0,3.0,20.0,10.0,0.0
4255,72.0,27.0,20.0,11.0,0.0
4256,60.0,2.0,60.0,12.0,0.0
4257,48.0,1.0,60.0,13.0,0.0
4258,36.0,1.0,60.0,14.0,0.0
4259,72.0,1.0,20.0,10.0,0.0
4260,72.0,2.0,20.0,11.0,0.0
4261,68.0,3.0,20.0,10.0,0.0
4262,68.0,1.0,240.0,0.0,0.0
4263,80.0,0.0,240.0,0.0,0.0
4264,56.0,2.0,240.0,4.0,0.0
4265,68.0,1.0,240.0,1.0,0.0
4266,68.0,0.0,240.0,6.0,0.0
4267,56.0,0.0,240.0,6.0,0.0
4268,68.0,0.0,240.0,2.0,0.0
4269,68.0,27.0,20.0,11.0,0.0
4270,56.0,2.0,240.0,2.0,0.0
4271,44.0,16.0,240.0,5.0,0.0
4272,56.0,2.0,60.0,12.0,0.0
4273,44.0,4.0,60.0,13.0,0.0
4274,56.0,0.0,240.0,3.0,0.0
4275,44.0,3.0,240.0,3.0,0.0
4276,32.0,19.0,60.0,14.0,0.0
4277,68.0,3.0,20.0,10.0,0.0
4278,68.0,2.0,20.0,11.0,0.0
4279,68.0,3.0,20.0,10.0,0.0
4280,68.0,27.0,20.0,11.0,0.0
4281,56.0,2.0,60.0,12.0,0.0
4282,44.0,4.0,60.0,13.0,0.0
4283,32.0,19.0,60.0,14.0,0.0
4284,68.0,3.0,20.0,10.0,0.0
4285,68.0,2.0,20.0,11.0,0.0
4286,68.0,3.0,20.0,10.0,0.0
4287,68.0,27.0,20.0,11.0,0.0
4288,56.0,2.0,60.0,12.0,0.0
4289,44.0,4.0,60.0,13.0,0.0
4290,32.0,19.0,60.0,14.0,0.0
4291,68.0,3.0,20.0,10.0,0.0
4292,68.0,2.0,20.0,11.0,0.0
4293,68.0,3.0,20.0,10.0,0.0
4294,68.0,27.0,20.0,11.0,0.0
4295,56.0,2.0,60.0,12.0,0.0
4296,44.0,1.0,60.0,13.0,0.0
4297,32.0,1.0,60.0,14.0,0.0
4298,68.0,1.0,20.0,10.0,0.0
4299,68.0,0.0,20.0,11.0,0.0
4300,70.0,3.0,20.0,10.0,0.0
4301,70.0,1.0,240.0,0.0,0.0
4302,82.0,0.0,240.0,0.0,0.0
4303,70.0,1.0,240.0,1.0,0.0
4304,70.0,2.0,240.0,6.0,0.0
4305,58.0,0.0,240.0,4.0,0.0
4306,70.0,0.0,240.0,2.0,0.0
4307,70.0,27.0,20.0,11.0,0.0
4308,58.0,0.0,240.0,2.0,0.0
4309,58.0,59.0,240.0,5.0,0.0
4310,58.0,2.0,60.0,12.0,0.0
4311,46.0,4.0,60.0,13.0,0.0
4312,58.0,0.0,240.0,3.0,0.0
4313,46.0,3.0,240.0,3.0,0.0
4314,34.0,19.0,60.0,14.0,0.0
4315,70.0,3.0,20.0,10.0,0.0
4316,70.0,2.0,20.0,11.0,0.0
4317,70.0,3.0,20.0,10.0,0.0
4318,70.0,27.0,20.0,11.0,0.0
4319,58.0,2.0,60.0,12.0,0.0
4320,46.0,4.0,60.0,13.0,0.0
4321,34.0,19.0,60.0,14.0,0.0
4322,70.0,3.0,20.0,10.0,0.0
4323,70.0,2.0,20.0,11.0,0.0
4324,70.0,3.0,20.0,10.0,0.0
4325,70.0,27.0,20.0,11.0,0.0
4326,58.0,2.0,60.0,12.0,0.0
4327,46.0,4.0,60.0,13.0,0.0
4328,34.0,19.0,60.0,14.0,0.0
4329,70.0,3.0,20.0,10.0,0.0
4330,70.0,2.0,20.0,11.0,0.0
4331,70.0,3.0,20.0,10.0,0.0
4332,70.0,27.0,20.0,11.0,0.0
4333,58.0,2.0,60.0,12.0,0.0
4334,46.0,1.0,60.0,13.0,0.0
4335,34.0,1.0,60.0,14.0,0.0
4336,70.0,1.0,20.0,10.0,0.0
4337,70.0,2.0,20.0,11.0,0.0
4338,63.0,1.0,120.0,10.0,0.0
4339,75.0,1.0,120.0,0.0,0.0
4340,63.0,0.0,120.0,0.0,0.0
4341,63.0,1.0,120.0,6.0,0.0
4342,51.0,1.0,840.0,4.0,0.0
4343,63.0,6.0,120.0,1.0,0.0
4344,63.0,2.0,120.0,2.0,0.0
4345,51.0,0.0,120.0,2.0,0.0
4346,63.0,49.0,60.0,11.0,0.0
4347,39.0,59.0,840.0,5.0,0.0
4348,51.0,2.0,120.0,12.0,0.0
4349,39.0,3.0,120.0,13.0,0.0
4350,39.0,2.0,120.0,3.0,0.0
4351,51.0,0.0,120.0,3.0,0.0
4352,39.0,1.0,120.0,15.0,0.0
4353,27.0,52.0,120.0,14.0,0.0
4354,51.0,0.0,60.0,11.0,0.0
4355,68.0,6.0,120.0,1.0,0.0
4356,72.0,0.0,120.0,1.0,0.0
4357,63.0,50.0,60.0,11.0,0.0
4358,60.0,55.0,120.0,3.0,0.0
4359,56.0,0.0,120.0,3.0,0.0
4360,51.0,9.0,60.0,11.0,0.0
4361,67.0,0.0,120.0,1.0,0.0
4362,70.0,1.0,120.0,1.0,0.0
4363,63.0,59.0,60.0,11.0,0.0
4364,55.0,0.0,120.0,3.0,0.0
4365,58.0,55.0,120.0,3.0,0.0
4366,51.0,5.0,60.0,11.0,0.0
4367,74.0,2.0,120.0,10.0,0.0
4368,65.0,0.0,120.0,1.0,0.0
4369,68.0,6.0,120.0,1.0,0.0
4370,63.0,50.0,60.0,11.0,0.0
4371,56.0,0.0,120.0,3.0,0.0
4372,53.0,55.0,120.0,3.0,0.0
4373,51.0,7.0,60.0,11.0,0.0
4374,75.0,3.0,180.0,10.0,0.0
4375,63.0,1.0,120.0,1.0,0.0
4376,67.0,0.0,120.0,1.0,0.0
4377,63.0,59.0,60.0,11.0,0.0
4378,55.0,52.0,120.0,3.0,0.0
4379,51.0,0.0,120.0,3.0,0.0
4380,51.0,5.0,60.0,11.0,0.0
4381,68.0,0.0,120.0,1.0,0.0
4382,65.0,6.0,120.0,1.0,0.0
4383,63.0,27.0,60.0,11.0,0.0
4384,53.0,0.0,120.0,3.0,0.0
4385,56.0,52.0,120.0,3.0,0.0
4386,74.0,20.0,30.0,10.0,0.0
4387,51.0,9.0,60.0,11.0,0.0
4388,72.0,3.0,20.0,10.0,0.0
4389,70.0,3.0,60.0,10.0,0.0
4390,70.0,0.0,120.0,1.0,0.0
4391,67.0,6.0,120.0,1.0,0.0
4392,63.0,49.0,60.0,11.0,0.0
4393,58.0,4.0,120.0,3.0,0.0
4394,55.0,0.0,120.0,3.0,0.0
4395,51.0,1.0,60.0,11.0,0.0
4396,68.0,1.0,120.0,10.0,0.0
4397,74.0,1.0,120.0,0.0,0.0
4398,86.0,0.0,120.0,0.0,0.0
4399,74.0,0.0,120.0,1.0,0.0
4400,68.0,1.0,120.0,1.0,0.0
4401,58.0,0.0,120.0,4.0,0.0
4402,74.0,0.0,120.0,2.0,0.0
4403,62.0,1.0,120.0,2.0,0.0
4404,62.0,50.0,60.0,11.0,0.0
4405,58.0,1.0,120.0,5.0,0.0
4406,58.0,2.0,120.0,12.0,0.0
4407,46.0,1.0,120.0,13.0,0.0
4408,56.0,0.0,120.0,3.0,0.0
4409,53.0,3.0,120.0,3.0,0.0
4410,34.0,52.0,120.0,14.0,0.0
4411,53.0,7.0,60.0,11.0,0.0
4412,67.0,1.0,120.0,10.0,0.0
4413,87.0,1.0,120.0,0.0,0.0
4414,75.0,0.0,120.0,0.0,0.0
4415,51.0,1.0,840.0,4.0,0.0
4416,75.0,0.0,120.0,1.0,0.0
4417,63.0,1.0,120.0,1.0,0.0
4418,75.0,0.0,120.0,2.0,0.0
4419,63.0,57.0,60.0,11.0,0.0
4420,63.0,2.0,120.0,2.0,0.0
4421,39.0,59.0,840.0,5.0,0.0
4422,63.0,2.0,120.0,12.0,0.0
4423,51.0,1.0,120.0,13.0,0.0
4424,55.0,0.0,120.0,3.0,0.0
4425,51.0,2.0,120.0,3.0,0.0
4426,39.0,1.0,120.0,15.0,0.0
4427,39.0,52.0,120.0,14.0,0.0
4428,51.0,0.0,60.0,11.0,0.0
4429,72.0,0.0,120.0,1.0,0.0
4430,68.0,6.0,120.0,1.0,0.0
4431,63.0,50.0,60.0,11.0,0.0
4432,60.0,0.0,120.0,3.0,0.0
4433,56.0,55.0,120.0,3.0,0.0
4434,51.0,9.0,60.0,11.0,0.0
4435,70.0,1.0,120.0,1.0,0.0
4436,67.0,0.0,120.0,1.0,0.0
4437,63.0,59.0,60.0,11.0,0.0
4438,55.0,55.0,120.0,3.0,0.0
4439,58.0,0.0,120.0,3.0,0.0
4440,51.0,5.0,60.0,11.0,0.0
4441,74.0,2.0,120.0,10.0,0.0
4442,68.0,0.0,120.0,1.0,0.0
4443,65.0,6.0,120.0,1.0,0.0
4444,63.0,50.0,60.0,11.0,0.0
4445,53.0,55.0,120.0,3.0,0.0
4446,56.0,0.0,120.0,3.0,0.0
4447,51.0,7.0,60.0,11.0,0.0
4448,75.0,3.0,180.0,10.0,0.0
4449,63.0,1.0,120.0,1.0,0.0
4450,67.0,0.0,120.0,1.0,0.0
4451,63.0,59.0,60.0,11.0,0.0
4452,51.0,52.0,120.0,3.0,0.0
4453,55.0,0.0,120.0,3.0,0.0
4454,51.0,5.0,60.0,11.0,0.0
4455,65.0,6.0,120.0,1.0,0.0
4456,68.0,0.0,120.0,1.0,0.0
4457,63.0,27.0,60.0,11.0,0.0
4458,56.0,0.0,120.0,3.0,0.0
4459,53.0,52.0,120.0,3.0,0.0
4460,74.0,20.0,30.0,10.0,0.0
4461,51.0,9.0,60.0,11.0,0.0
4462,72.0,3.0,20.0,10.0,0.0
4463,70.0,3.0,60.0,10.0,0.0
4464,70.0,0.0,120.0,1.0,0.0
4465,67.0,6.0,120.0,1.0,0.0
4466,63.0,49.0,60.0,11.0,0.0
4467,58.0,4.0,120.0,3.0,0.0
4468,55.0,0.0,120.0,3.0,0.0
4469,51.0,1.0,60.0,11.0,0.0
4470,74.0,1.0,120.0,10.0,0.0
4471,86.0,1.0,120.0,0.0,0.0
4472,74.0,0.0,120.0,0.0,0.0
4473,58.0,0.0,120.0,4.0,0.0
4474,68.0,0.0,120.0,1.0,0.0
4475,65.0,1.0,120.0,1.0,0.0
4476,70.0,0.0,120.0,6.0,0.0
4477,74.0,0.0,120.0,2.0,0.0
4478,62.0,50.0,60.0,11.0,0.0
4479,62.0,1.0,120.0,2.0,0.0
4480,58.0,1.0,120.0,5.0,0.0
4481,58.0,2.0,120.0,12.0,0.0
4482,46.0,1.0,120.0,13.0,0.0
4483,53.0,3.0,120.0,3.0,0.0
4484,56.0,0.0,120.0,3.0,0.0
4485,34.0,51.0,120.0,14.0,0.0
4486,53.0,7.0,60.0,11.0,0.0
4487,75.0,1.0,180.0,10.0,0.0
4488,75.0,1.0,120.0,0.0,0.0
4489,87.0,2.0,180.0,0.0,0.0
4490,51.0,1.0,360.0,4.0,0.0
4491,63.0,1.0,60.0,1.0,0.0
4492,67.0,0.0,60.0,1.0,0.0
4493,63.0,1.0,120.0,6.0,0.0
4494,75.0,0.0,180.0,2.0,0.0
4495,63.0,27.0,180.0,2.0,0.0
4496,63.0,5.0,60.0,11.0,0.0
4497,39.0,4.0,360.0,5.0,0.0
4498,63.0,2.0,120.0,12.0,0.0
4499,51.0,3.0,120.0,13.0,0.0
4500,51.0,0.0,60.0,3.0,0.0
4501,55.0,53.0,60.0,3.0,0.0
4502,39.0,1.0,120.0,15.0,0.0
4503,39.0,49.0,120.0,14.0,0.0
4504,51.0,2.0,60.0,11.0,0.0
4505,68.0,0.0,120.0,1.0,0.0
4506,72.0,6.0,120.0,1.0,0.0
4507,63.0,0.0,60.0,11.0,0.0
4508,60.0,0.0,120.0,3.0,0.0
4509,56.0,52.0,120.0,3.0,0.0
4510,74.0,1.0,30.0,10.0,0.0
4511,86.0,2.0,30.0,0.0,0.0
4512,51.0,0.0,60.0,11.0,0.0
4513,62.0,17.0,30.0,2.0,0.0
4514,74.0,0.0,30.0,2.0,0.0
4515,72.0,1.0,20.0,10.0,0.0
4516,84.0,2.0,20.0,0.0,0.0
4517,60.0,0.0,20.0,2.0,0.0
4518,72.0,9.0,20.0,2.0,0.0
4519,70.0,1.0,60.0,10.0,0.0
4520,82.0,2.0,60.0,0.0,0.0
4521,67.0,0.0,120.0,1.0,0.0
4522,70.0,0.0,120.0,1.0,0.0
4523,58.0,0.0,60.0,2.0,0.0
4524,63.0,0.0,60.0,11.0,0.0
4525,70.0,59.0,60.0,2.0,0.0
4526,55.0,0.0,120.0,3.0,0.0
4527,58.0,55.0,120.0,3.0,0.0
4528,51.0,1.0,60.0,11.0,0.0
4529,74.0,1.0,120.0,10.0,0.0
4530,80.0,0.0,120.0,0.0,0.0
4531,86.0,1.0,120.0,0.0,0.0
4532,58.0,0.0,120.0,4.0,0.0
4533,65.0,1.0,120.0,1.0,0.0
4534,68.0,0.0,120.0,1.0,0.0
4535,70.0,0.0,120.0,6.0,0.0
4536,56.0,50.0,60.0,11.0,0.0
4537,74.0,0.0,120.0,2.0,0.0
4538,62.0,1.0,120.0,2.0,0.0
4539,58.0,1.0,120.0,5.0,0.0
4540,58.0,2.0,120.0,12.0,0.0
4541,46.0,1.0,120.0,13.0,0.0
4542,53.0,0.0,120.0,3.0,0.0
4543,56.0,3.0,120.0,3.0,0.0
4544,34.0,51.0,120.0,14.0,0.0
4545,58.0,7.0,60.0,11.0,0.0
4546,75.0,1.0,180.0,10.0,0.0
4547,87.0,2.0,180.0,0.0,0.0
4548,79.0,1.0,120.0,0.0,0.0
4549,51.0,2.0,360.0,4.0,0.0
4550,63.0,1.0,120.0,6.0,0.0
4551,67.0,1.0,60.0,1.0,0.0
4552,63.0,0.0,60.0,1.0,0.0
4553,63.0,0.0,180.0,2.0,0.0
4554,75.0,0.0,180.0,2.0,0.0
4555,55.0,5.0,60.0,11.0,0.0
4556,39.0,4.0,360.0,5.0,0.0
4557,63.0,2.0,120.0,12.0,0.0
4558,51.0,3.0,120.0,13.0,0.0
4559,55.0,0.0,60.0,3.0,0.0
4560,51.0,53.0,60.0,3.0,0.0
4561,39.0,1.0,120.0,15.0,0.0
4562,39.0,49.0,120.0,14.0,0.0
4563,51.0,2.0,60.0,11.0,0.0
4564,72.0,0.0,120.0,1.0,0.0
4565,68.0,1.0,120.0,1.0,0.0
4566,63.0,27.0,60.0,11.0,0.0
4567,56.0,0.0,120.0,3.0,0.0
4568,60.0,52.0,120.0,3.0,0.0
4569,74.0,1.0,30.0,10.0,0.0
4570,86.0,2.0,30.0,0.0,0.0
4571,74.0,17.0,30.0,2.0,0.0
4572,62.0,0.0,30.0,2.0,0.0
4573,51.0,0.0,60.0,11.0,0.0
4574,72.0,11.0,20.0,10.0,0.0
4575,84.0,1.0,30.0,0.0,0.0
4576,60.0,5.0,30.0,2.0,0.0
4577,72.0,0.0,30.0,2.0,0.0
4578,70.0,1.0,60.0,10.0,0.0
4579,82.0,2.0,60.0,0.0,0.0
4580,70.0,0.0,120.0,1.0,0.0
4581,67.0,0.0,120.0,1.0,0.0
4582,58.0,0.0,60.0,2.0,0.0
4583,70.0,0.0,60.0,2.0,0.0
4584,63.0,50.0,60.0,11.0,0.0
4585,58.0,0.0,120.0,3.0,0.0
4586,55.0,52.0,120.0,3.0,0.0
4587,51.0,9.0,60.0,11.0,0.0
4588,58.0,3.0,60.0,10.0,0.0
4589,80.0,1.0,120.0,0.0,0.0
4590,86.0,0.0,120.0,0.0,0.0
4591,70.0,2.0,120.0,6.0,0.0
4592,65.0,0.0,120.0,1.0,0.0
4593,68.0,0.0,120.0,1.0,0.0
4594,58.0,0.0,120.0,4.0,0.0
4595,62.0,0.0,60.0,2.0,0.0
4596,74.0,0.0,60.0,2.0,0.0
4597,68.0,0.0,60.0,11.0,0.0
4598,58.0,2.0,60.0,11.0,0.0
4599,58.0,4.0,120.0,5.0,0.0
4600,58.0,2.0,60.0,12.0,0.0
4601,46.0,3.0,60.0,13.0,0.0
4602,56.0,0.0,120.0,3.0,0.0
4603,53.0,3.0,120.0,3.0,0.0
4604,74.0,0.0,60.0,10.0,0.0
4605,65.0,51.0,60.0,10.0,0.0
4606,34.0,49.0,120.0,14.0,0.0
4607,51.0,3.0,60.0,10.0,0.0
4608,58.0,0.0,60.0,10.0,0.0
4609,87.0,1.0,480.0,0.0,0.0
4610,79.0,1.0,120.0,0.0,0.0
4611,58.0,2.0,240.0,4.0,0.0
4612,63.0,8.0,120.0,1.0,0.0
4613,67.0,0.0,120.0,1.0,0.0
4614,63.0,0.0,120.0,6.0,0.0
4615,75.0,1.0,480.0,2.0,0.0
4616,58.0,0.0,60.0,11.0,0.0
4617,51.0,2.0,60.0,11.0,0.0
4618,63.0,0.0,480.0,2.0,0.0
4619,51.0,0.0,60.0,12.0,0.0
4620,63.0,2.0,60.0,12.0,0.0
4621,51.0,3.0,60.0,13.0,0.0
4622,55.0,233.0,240.0,3.0,0.0
4623,39.0,112.0,120.0,15.0,0.0
4624,75.0,0.0,60.0,10.0,0.0
4625,67.0,1.0,60.0,10.0,0.0
4626,39.0,2.0,60.0,14.0,0.0
4627,67.0,48.0,60.0,11.0,0.0
4628,75.0,0.0,240.0,1.0,0.0
4629,51.0,4.0,15.0,5.0,0.0
4630,63.0,233.0,240.0,3.0,0.0
4631,51.0,0.0,15.0,3.0,0.0
4632,85.0,1.0,240.0,0.0,0.0
4633,63.0,1.0,15.0,4.0,0.0
4634,73.0,1.0,240.0,1.0,0.0
4635,61.0,0.0,240.0,2.0,0.0
4636,73.0,1.0,240.0,2.0,0.0
4637,61.0,233.0,240.0,3.0,0.0
4638,49.0,0.0,240.0,3.0,0.0
4639,82.0,1.0,240.0,0.0,0.0
4640,70.0,1.0,240.0,1.0,0.0
4641,70.0,0.0,240.0,2.0,0.0
4642,58.0,1.0,240.0,2.0,0.0
4643,51.0,4.0,15.0,5.0,0.0
4644,46.0,0.0,240.0,3.0,0.0
4645,58.0,112.0,240.0,3.0,0.0
4646,58.0,3.0,120.0,10.0,0.0
4647,51.0,0.0,120.0,10.0,0.0
4648,79.0,1.0,240.0,0.0,0.0
4649,63.0,0.0,15.0,4.0,0.0
4650,67.0,1.0,240.0,1.0,0.0
4651,67.0,0.0,240.0,2.0,0.0
4652,55.0,5.0,240.0,2.0,0.0
4653,51.0,0.0,120.0,11.0,0.0
4654,58.0,2.0,120.0,11.0,0.0
4655,51.0,4.0,960.0,5.0,0.0
4656,61.0,0.0,120.0,12.0,0.0
4657,51.0,2.0,120.0,12.0,0.0
4658,39.0,3.0,120.0,13.0,0.0
4659,43.0,0.0,240.0,3.0,0.0
4660,55.0,233.0,240.0,3.0,0.0
4661,67.0,1.0,120.0,10.0,0.0
4662,27.0,2.0,120.0,14.0,0.0
4663,67.0,108.0,120.0,11.0,0.0
4664,75.0,1.0,240.0,0.0,0.0
4665,75.0,0.0,240.0,1.0,0.0
4666,63.0,1.0,240.0,1.0,0.0
4667,63.0,5.0,240.0,2.0,0.0
4668,51.0,233.0,240.0,3.0,0.0
4669,39.0,0.0,240.0,3.0,0.0
4670,73.0,1.0,240.0,0.0,0.0
4671,61.0,1.0,240.0,1.0,0.0
4672,73.0,0.0,240.0,1.0,0.0
4673,61.0,5.0,240.0,2.0,0.0
4674,37.0,0.0,240.0,3.0,0.0
4675,49.0,202.0,240.0,3.0,0.0
4676,70.0,0.0,240.0,0.0,0.0
4677,58.0,0.0,240.0,1.0,0.0
4678,70.0,0.0,240.0,1.0,0.0
4679,58.0,1.0,240.0,2.0,0.0
4680,46.0,113.0,240.0,3.0,0.0
4681,34.0,0.0,240.0,3.0,0.0
4682,51.0,3.0,90.0,10.0,0.0
4683,51.0,2.0,90.0,11.0,0.0
4684,51.0,2.0,90.0,12.0,0.0
4685,39.0,4.0,90.0,13.0,0.0
4686,27.0,9.0,90.0,14.0,0.0
4687,55.0,3.0,20.0,10.0,0.0
4688,55.0,2.0,20.0,11.0,0.0
4689,55.0,2.0,20.0,12.0,0.0
4690,43.0,4.0,20.0,13.0,0.0
4691,31.0,1.0,20.0,14.0,0.0
4692,56.0,142.0,300.0,10.0,0.0
4693,80.0,0.0,120.0,0.0,0.0
4694,72.0,1.0,120.0,0.0,0.0
4695,60.0,1.0,120.0,1.0,0.0
4696,68.0,0.0,120.0,1.0,0.0
4697,56.0,0.0,120.0,4.0,0.0
4698,60.0,0.0,120.0,2.0,0.0
4699,68.0,1.0,120.0,2.0,0.0
4700,56.0,0.0,120.0,11.0,0.0
4701,48.0,1.0,120.0,5.0,0.0
4702,56.0,2.0,120.0,12.0,0.0
4703,44.0,1.0,120.0,13.0,0.0
4704,44.0,0.0,120.0,3.0,0.0
4705,56.0,3.0,120.0,3.0,0.0
4706,32.0,177.0,120.0,14.0,0.0
4707,51.0,20.0,90.0,10.0,0.0
4708,55.0,133.0,20.0,10.0,0.0
4709,56.0,142.0,300.0,10.0,0.0
4710,51.0,2.0,120.0,11.0,0.0
4711,48.0,2.0,120.0,12.0,0.0
4712,44.0,4.0,120.0,13.0,0.0
4713,32.0,177.0,120.0,14.0,0.0
4714,51.0,20.0,90.0,10.0,0.0
4715,55.0,40.0,20.0,10.0,0.0
4716,56.0,60.0,30.0,10.0,0.0
4717,51.0,2.0,120.0,11.0,0.0
4718,48.0,2.0,120.0,12.0,0.0
4719,44.0,4.0,120.0,13.0,0.0
4720,32.0,19.0,120.0,14.0,0.0
4721,56.0,33.0,30.0,10.0,0.0
4722,51.0,60.0,30.0,10.0,0.0
4723,55.0,60.0,30.0,10.0,0.0
4724,56.0,60.0,30.0,10.0,0.0
4725,51.0,2.0,120.0,11.0,0.0
4726,48.0,2.0,120.0,12.0,0.0
4727,44.0,4.0,120.0,13.0,0.0
4728,32.0,19.0,120.0,14.0,0.0
4729,56.0,33.0,30.0,10.0,0.0
4730,51.0,60.0,30.0,10.0,0.0
4731,55.0,90.0,30.0,10.0,0.0
4732,56.0,63.0,60.0,10.0,0.0
4733,51.0,2.0,120.0,11.0,0.0
4734,48.0,2.0,120.0,12.0,0.0
4735,44.0,4.0,120.0,13.0,0.0
4736,32.0,49.0,120.0,14.0,0.0
4737,60.0,120.0,60.0,10.0,0.0
4738,63.0,120.0,60.0,10.0,0.0
4739,67.0,180.0,60.0,10.0,0.0
4740,68.0,361.0,120.0,10.0,0.0
4741,80.0,1.0,480.0,0.0,0.0
4742,72.0,0.0,960.0,0.0,0.0
4743,56.0,354.0,480.0,3.0,0.0
4744,63.0,0.0,960.0,3.0,0.0
4745,81.0,1.0,480.0,0.0,0.0
4746,75.0,0.0,480.0,1.0,0.0
4747,72.0,6.0,15.0,1.0,0.0
4748,72.0,0.0,480.0,2.0,0.0
4749,69.0,2.0,480.0,2.0,0.0
4750,53.0,3.0,480.0,3.0,0.0
4751,65.0,3.0,30.0,10.0,0.0
4752,65.0,2.0,30.0,11.0,0.0
4753,53.0,2.0,30.0,12.0,0.0
4754,53.0,4.0,30.0,13.0,0.0
4755,41.0,19.0,30.0,14.0,0.0
4756,63.0,3.0,30.0,10.0,0.0
4757,63.0,2.0,30.0,11.0,0.0
4758,51.0,2.0,30.0,12.0,0.0
4759,51.0,4.0,30.0,13.0,0.0
4760,39.0,19.0,30.0,14.0,0.0
4761,61.0,3.0,30.0,10.0,0.0
4762,61.0,2.0,30.0,11.0,0.0
4763,49.0,2.0,30.0,12.0,0.0
4764,49.0,4.0,30.0,13.0,0.0
4765,37.0,19.0,30.0,14.0,0.0
4766,60.0,1.0,30.0,10.0,0.0
4767,60.0,0.0,30.0,11.0,0.0
4768,48.0,2.0,30.0,12.0,0.0
4769,48.0,1.0,30.0,13.0,0.0
4770,36.0,110.0,30.0,14.0,0.0
4771,58.0,142.0,300.0,10.0,0.0
4772,82.0,1.0,120.0,0.0,0.0
4773,73.0,0.0,120.0,0.0,0.0
4774,65.0,1.0,15.0,1.0,0.0
4775,73.0,0.0,120.0,1.0,0.0
4776,58.0,0.0,120.0,11.0,0.0
4777,73.0,2.0,120.0,2.0,0.0
4778,70.0,0.0,120.0,2.0,0.0
4779,46.0,2.0,120.0,12.0,0.0
4780,46.0,1.0,120.0,13.0,0.0
4781,61.0,3.0,120.0,3.0,0.0
4782,46.0,0.0,120.0,3.0,0.0
4783,34.0,177.0,120.0,14.0,0.0
4784,53.0,30.0,90.0,10.0,0.0
4785,57.0,123.0,30.0,10.0,0.0
4786,58.0,142.0,300.0,10.0,0.0
4787,53.0,2.0,120.0,11.0,0.0
4788,49.0,2.0,120.0,12.0,0.0
4789,46.0,4.0,120.0,13.0,0.0
4790,34.0,177.0,120.0,14.0,0.0
4791,53.0,30.0,90.0,10.0,0.0
4792,57.0,30.0,30.0,10.0,0.0
4793,58.0,60.0,30.0,10.0,0.0
4794,53.0,2.0,120.0,11.0,0.0
4795,49.0,2.0,120.0,12.0,0.0
4796,46.0,4.0,120.0,13.0,0.0
4797,34.0,19.0,120.0,14.0,0.0
4798,58.0,33.0,30.0,10.0,0.0
4799,53.0,60.0,30.0,10.0,0.0
4800,57.0,60.0,30.0,10.0,0.0
4801,58.0,60.0,30.0,10.0,0.0
4802,53.0,2.0,120.0,11.0,0.0
4803,49.0,2.0,120.0,12.0,0.0
4804,46.0,4.0,120.0,13.0,0.0
4805,34.0,19.0,120.0,14.0,0.0
4806,58.0,33.0,30.0,10.0,0.0
4807,53.0,60.0,30.0,10.0,0.0
4808,57.0,90.0,30.0,10.0,0.0
4809,58.0,63.0,60.0,10.0,0.0
4810,53.0,2.0,120.0,11.0,0.0
4811,49.0,2.0,120.0,12.0,0.0
4812,46.0,4.0,120.0,13.0,0.0
4813,34.0,49.0,120.0,14.0,0.0
4814,61.0,120.0,60.0,10.0,0.0
4815,65.0,120.0,60.0,10.0,0.0
4816,69.0,180.0,60.0,10.0,0.0
4817,70.0,362.0,120.0,10.0,0.0
4818,77.0,1.0,480.0,1.0,0.0
4819,73.0,0.0,960.0,1.0,0.0
4820,65.0,2.0,480.0,2.0,0.0
4821,58.0,0.0,480.0,11.0,0.0
4822,58.0,1.0,960.0,5.0,0.0
4823,58.0,2.0,480.0,12.0,0.0
4824,58.0,3.0,480.0,3.0,0.0
4825,46.0,0.0,480.0,3.0,0.0
4826,34.0,7.0,480.0,14.0,0.0
4827,58.0,5.0,20.0,10.0,0.0
4828,76.0,0.0,480.0,1.0,0.0
4829,64.0,0.0,480.0,2.0,0.0
4830,58.0,2.0,15.0,11.0,0.0
4831,58.0,8.0,20.0,12.0,0.0
4832,46.0,1.0,15.0,13.0,0.0
4833,44.0,0.0,480.0,3.0,0.0
4834,56.0,3.0,480.0,3.0,0.0
4835,34.0,4.0,30.0,14.0,0.0
4836,56.0,4.0,15.0,11.0,0.0
4837,56.0,1.0,20.0,10.0,0.0
4838,56.0,3.0,20.0,12.0,0.0
4839,58.0,12.0,15.0,11.0,0.0
4840,44.0,4.0,30.0,13.0,0.0
4841,58.0,3.0,20.0,10.0,0.0
4842,32.0,7.0,30.0,14.0,0.0
4843,58.0,2.0,20.0,12.0,0.0
4844,56.0,2.0,15.0,11.0,0.0
4845,56.0,5.0,20.0,10.0,0.0
4846,58.0,2.0,15.0,11.0,0.0
4847,56.0,8.0,20.0,12.0,0.0
4848,46.0,3.0,30.0,13.0,0.0
4849,34.0,4.0,30.0,14.0,0.0
4850,56.0,4.0,15.0,11.0,0.0
4851,58.0,1.0,20.0,10.0,0.0
4852,58.0,3.0,20.0,12.0,0.0
4853,58.0,12.0,15.0,11.0,0.0
4854,44.0,4.0,30.0,13.0,0.0
4855,56.0,3.0,20.0,10.0,0.0
4856,32.0,7.0,30.0,14.0,0.0
4857,56.0,2.0,20.0,12.0,0.0
4858,56.0,2.0,15.0,11.0,0.0
4859,58.0,5.0,20.0,10.0,0.0
4860,58.0,2.0,15.0,11.0,0.0
4861,58.0,8.0,20.0,12.0,0.0
4862,46.0,3.0,30.0,13.0,0.0
4863,34.0,4.0,30.0,14.0,0.0
4864,56.0,4.0,15.0,11.0,0.0
4865,56.0,1.0,20.0,10.0,0.0
4866,56.0,3.0,20.0,12.0,0.0
4867,58.0,12.0,15.0,11.0,0.0
4868,44.0,4.0,30.0,13.0,0.0
4869,58.0,3.0,20.0,10.0,0.0
4870,32.0,7.0,30.0,14.0,0.0
4871,58.0,2.0,20.0,12.0,0.0
4872,56.0,2.0,15.0,11.0,0.0
4873,56.0,5.0,20.0,10.0,0.0
4874,58.0,2.0,15.0,11.0,0.0
4875,56.0,8.0,20.0,12.0,0.0
4876,46.0,3.0,30.0,13.0,0.0
4877,34.0,4.0,30.0,14.0,0.0
4878,56.0,4.0,15.0,11.0,0.0
4879,58.0,1.0,20.0,10.0,0.0
4880,58.0,3.0,20.0,12.0,0.0
4881,58.0,12.0,15.0,11.0,0.0
4882,44.0,4.0,30.0,13.0,0.0
4883,56.0,3.0,20.0,10.0,0.0
4884,32.0,7.0,30.0,14.0,0.0
4885,56.0,2.0,20.0,12.0,0.0
4886,56.0,2.0,15.0,11.0,0.0
4887,58.0,5.0,20.0,10.0,0.0
4888,58.0,2.0,15.0,11.0,0.0
4889,58.0,8.0,20.0,12.0,0.0
4890,46.0,3.0,30.0,13.0,0.0
4891,34.0,4.0,30.0,14.0,0.0
4892,56.0,4.0,15.0,11.0,0.0
4893,56.0,1.0,20.0,10.0,0.0
4894,56.0,3.0,20.0,12.0,0.0
4895,58.0,12.0,15.0,11.0,0.0
4896,44.0,4.0,30.0,13.0,0.0
4897,58.0,3.0,20.0,10.0,0.0
4898,32.0,7.0,30.0,14.0,0.0
4899,58.0,2.0,20.0,12.0,0.0
4900,56.0,2.0,15.0,11.0,0.0
4901,56.0,5.0,20.0,10.0,0.0
4902,58.0,2.0,15.0,11.0,0.0
4903,56.0,8.0,20.0,12.0,0.0
4904,46.0,3.0,30.0,13.0,0.0
4905,34.0,4.0,30.0,14.0,0.0
4906,56.0,4.0,15.0,11.0,0.0
4907,58.0,1.0,20.0,10.0,0.0
4908,58.0,3.0,20.0,12.0,0.0
4909,58.0,12.0,15.0,11.0,0.0
4910,44.0,4.0,30.0,13.0,0.0
4911,56.0,3.0,20.0,10.0,0.0
4912,32.0,7.0,30.0,14.0,0.0
4913,56.0,2.0,20.0,12.0,0.0
4914,56.0,2.0,15.0,11.0,0.0
4915,58.0,5.0,20.0,10.0,0.0
4916,58.0,2.0,15.0,11.0,0.0
4917,58.0,8.0,20.0,12.0,0.0
4918,46.0,3.0,30.0,13.0,0.0
4919,34.0,4.0,30.0,14.0,0.0
4920,56.0,4.0,15.0,11.0,0.0
4921,56.0,1.0,20.0,10.0,0.0
4922,56.0,3.0,20.0,12.0,0.0
4923,58.0,12.0,15.0,11.0,0.0
4924,44.0,4.0,30.0,13.0,0.0
4925,58.0,3.0,20.0,10.0,0.0
4926,32.0,19.0,30.0,14.0,0.0
4927,58.0,2.0,20.0,12.0,0.0
4928,56.0,2.0,15.0,11.0,0.0
4929,55.0,3.0,30.0,10.0,0.0
4930,55.0,2.0,30.0,11.0,0.0
4931,55.0,2.0,30.0,12.0,0.0
4932,43.0,4.0,30.0,13.0,0.0
4933,31.0,19.0,30.0,14.0,0.0
4934,56.0,1.0,30.0,10.0,0.0
4935,56.0,0.0,30.0,11.0,0.0
4936,56.0,2.0,30.0,12.0,0.0
4937,44.0,1.0,30.0,13.0,0.0
4938,32.0,297.0,30.0,14.0,0.0
4939,55.0,3.0,300.0,10.0,0.0
4940,73.0,1.0,15.0,0.0,0.0
4941,82.0,0.0,15.0,0.0,0.0
4942,75.0,0.0,330.0,1.0,0.0
4943,73.0,0.0,330.0,1.0,0.0
4944,58.0,1.0,15.0,4.0,0.0
4945,55.0,2.0,300.0,11.0,0.0
4946,61.0,1.0,15.0,2.0,0.0
4947,63.0,0.0,330.0,2.0,0.0
4948,51.0,4.0,330.0,5.0,0.0
4949,55.0,2.0,300.0,12.0,0.0
4950,43.0,4.0,300.0,13.0,0.0
4951,55.0,0.0,330.0,3.0,0.0
4952,43.0,107.0,330.0,3.0,0.0
4953,31.0,17.0,300.0,14.0,0.0
4954,51.0,30.0,90.0,10.0,0.0
4955,55.0,30.0,30.0,10.0,0.0
4956,58.0,60.0,30.0,10.0,0.0
4957,58.0,60.0,30.0,10.0,0.0
4958,51.0,60.0,30.0,10.0,0.0
4959,55.0,60.0,30.0,10.0,0.0
4960,58.0,60.0,30.0,10.0,0.0
4961,58.0,120.0,30.0,10.0,0.0
4962,51.0,3.0,90.0,10.0,0.0
4963,51.0,2.0,90.0,11.0,0.0
4964,51.0,2.0,90.0,12.0,0.0
4965,39.0,1.0,90.0,13.0,0.0
4966,51.0,3.0,90.0,3.0,0.0
4967,39.0,0.0,90.0,3.0,0.0
4968,27.0,19.0,90.0,14.0,0.0
4969,55.0,3.0,30.0,10.0,0.0
4970,55.0,2.0,30.0,11.0,0.0
4971,55.0,2.0,30.0,12.0,0.0
4972,43.0,1.0,30.0,13.0,0.0
4973,55.0,0.0,30.0,3.0,0.0
4974,43.0,3.0,30.0,3.0,0.0
4975,31.0,297.0,30.0,14.0,0.0
4976,58.0,3.0,300.0,10.0,0.0
4977,79.0,1.0,330.0,0.0,0.0
4978,75.0,1.0,330.0,1.0,0.0
4979,63.0,0.0,330.0,4.0,0.0
4980,73.0,0.0,330.0,1.0,0.0
4981,67.0,0.0,330.0,2.0,0.0
4982,58.0,2.0,300.0,11.0,0.0
4983,61.0,1.0,330.0,2.0,0.0
4984,51.0,4.0,330.0,5.0,0.0
4985,58.0,2.0,300.0,12.0,0.0
4986,46.0,4.0,300.0,13.0,0.0
4987,46.0,107.0,330.0,3.0,0.0
4988,58.0,0.0,330.0,3.0,0.0
4989,34.0,17.0,300.0,14.0,0.0
4990,51.0,30.0,90.0,10.0,0.0
4991,55.0,30.0,30.0,10.0,0.0
4992,58.0,60.0,30.0,10.0,0.0
4993,58.0,60.0,30.0,10.0,0.0
4994,51.0,60.0,30.0,10.0,0.0
4995,55.0,60.0,30.0,10.0,0.0
4996,58.0,60.0,30.0,10.0,0.0
4997,58.0,120.0,30.0,10.0,0.0
4998,55.0,3.0,90.0,10.0,0.0
4999,55.0,2.0,90.0,11.0,0.0
5000,55.0,2.0,90.0,12.0,0.0
5001,43.0,1.0,90.0,13.0,0.0
5002,43.0,0.0,90.0,3.0,0.0
5003,55.0,3.0,90.0,3.0,0.0
5004,31.0,19.0,90.0,14.0,0.0
5005,58.0,3.0,30.0,10.0,0.0
5006,58.0,2.0,30.0,11.0,0.0
5007,58.0,2.0,30.0,12.0,0.0
5008,46.0,1.0,30.0,13.0,0.0
5009,34.0,239.0,30.0,14.0,0.0
5010,61.0,3.0,300.0,10.0,0.0
5011,79.0,0.0,600.0,0.0,0.0
5012,82.0,1.0,600.0,0.0,0.0
5013,70.0,0.0,600.0,6.0,0.0
5014,63.0,1.0,600.0,4.0,0.0
5015,63.0,0.0,600.0,6.0,0.0
5016,79.0,0.0,600.0,1.0,0.0
5017,75.0,0.0,600.0,1.0,0.0
5018,61.0,2.0,300.0,11.0,0.0
5019,70.0,0.0,600.0,2.0,0.0
5020,67.0,1.0,600.0,2.0,0.0
5021,51.0,4.0,600.0,5.0,0.0
5022,61.0,2.0,300.0,12.0,0.0
5023,49.0,4.0,300.0,13.0,0.0
5024,46.0,3.0,15.0,3.0,0.0
5025,58.0,0.0,15.0,3.0,0.0
5026,39.0,58.0,240.0,15.0,0.0
5027,37.0,131.0,300.0,14.0,0.0
5028,67.0,3.0,90.0,10.0,0.0
5029,67.0,27.0,90.0,11.0,0.0
5030,70.0,3.0,30.0,10.0,0.0
5031,70.0,27.0,30.0,11.0,0.0
5032,73.0,3.0,30.0,10.0,0.0
5033,73.0,57.0,30.0,11.0,0.0
5034,70.0,3.0,30.0,10.0,0.0
5035,70.0,18.0,30.0,11.0,0.0
5036,67.0,3.0,30.0,10.0,0.0
5037,82.0,0.0,120.0,0.0,0.0
5038,79.0,1.0,120.0,0.0,0.0
5039,63.0,1.0,120.0,4.0,0.0
5040,75.0,0.0,120.0,1.0,0.0
5041,79.0,0.0,120.0,1.0,0.0
5042,63.0,0.0,120.0,6.0,0.0
5043,70.0,0.0,120.0,6.0,0.0
5044,67.0,1.0,120.0,2.0,0.0
5045,70.0,0.0,120.0,2.0,0.0
5046,67.0,57.0,30.0,11.0,0.0
5047,51.0,4.0,120.0,5.0,0.0
5048,46.0,0.0,120.0,3.0,0.0
5049,58.0,12.0,120.0,3.0,0.0
5050,39.0,20.0,120.0,15.0,0.0
5051,63.0,3.0,30.0,10.0,0.0
5052,63.0,18.0,30.0,11.0,0.0
5053,61.0,3.0,30.0,10.0,0.0
5054,82.0,0.0,120.0,0.0,0.0
5055,79.0,1.0,120.0,0.0,0.0
5056,70.0,0.0,120.0,6.0,0.0
5057,79.0,0.0,120.0,1.0,0.0
5058,75.0,0.0,120.0,1.0,0.0
5059,63.0,0.0,120.0,6.0,0.0
5060,63.0,1.0,120.0,4.0,0.0
5061,61.0,2.0,30.0,11.0,0.0
5062,67.0,0.0,120.0,2.0,0.0
5063,70.0,1.0,120.0,2.0,0.0
5064,51.0,4.0,120.0,5.0,0.0
5065,61.0,2.0,30.0,12.0,0.0
5066,49.0,4.0,30.0,13.0,0.0
5067,46.0,0.0,120.0,3.0,0.0
5068,58.0,12.0,120.0,3.0,0.0
5069,37.0,49.0,30.0,14.0,0.0
5070,58.0,3.0,30.0,10.0,0.0
5071,58.0,2.0,30.0,11.0,0.0
5072,58.0,2.0,30.0,12.0,0.0
5073,46.0,4.0,30.0,13.0,0.0
5074,34.0,10.0,30.0,14.0,0.0
5075,55.0,3.0,30.0,10.0,0.0
5076,79.0,0.0,120.0,0.0,0.0
5077,82.0,1.0,120.0,0.0,0.0
5078,63.0,0.0,120.0,6.0,0.0
5079,79.0,0.0,120.0,1.0,0.0
5080,75.0,0.0,120.0,1.0,0.0
5081,70.0,1.0,120.0,6.0,0.0
5082,63.0,0.0,120.0,4.0,0.0
5083,70.0,0.0,120.0,2.0,0.0
5084,67.0,1.0,120.0,2.0,0.0
5085,55.0,2.0,30.0,11.0,0.0
5086,51.0,4.0,120.0,5.0,0.0
5087,55.0,2.0,30.0,12.0,0.0
5088,43.0,4.0,30.0,13.0,0.0
5089,58.0,12.0,120.0,3.0,0.0
5090,46.0,0.0,120.0,3.0,0.0
5091,39.0,20.0,15.0,15.0,0.0
5092,31.0,49.0,30.0,14.0,0.0
5093,51.0,3.0,30.0,10.0,0.0
5094,51.0,2.0,30.0,11.0,0.0
5095,51.0,2.0,30.0,12.0,0.0
5096,39.0,4.0,30.0,13.0,0.0
5097,27.0,10.0,30.0,14.0,0.0
5098,56.0,1.0,60.0,10.0,0.0
5099,84.0,0.0,60.0,0.0,0.0
5100,80.0,1.0,60.0,0.0,0.0
5101,80.0,0.0,60.0,1.0,0.0
5102,75.0,0.0,60.0,1.0,0.0
5103,63.0,0.0,60.0,4.0,0.0
5104,68.0,1.0,60.0,6.0,0.0
5105,72.0,0.0,60.0,6.0,0.0
5106,68.0,0.0,60.0,2.0,0.0
5107,56.0,1.0,60.0,11.0,0.0
5108,72.0,0.0,60.0,2.0,0.0
5109,51.0,1.0,60.0,5.0,0.0
5110,56.0,2.0,60.0,12.0,0.0
5111,44.0,1.0,60.0,13.0,0.0
5112,56.0,0.0,60.0,3.0,0.0
5113,44.0,2.0,60.0,3.0,0.0
5114,44.0,1.0,60.0,15.0,0.0
5115,32.0,229.0,60.0,14.0,0.0
5116,61.0,1.0,60.0,10.0,0.0
5117,77.0,1.0,60.0,0.0,0.0
5118,85.0,0.0,60.0,0.0,0.0
5119,77.0,0.0,60.0,1.0,0.0
5120,68.0,0.0,60.0,1.0,0.0
5121,56.0,0.0,60.0,4.0,0.0
5122,56.0,1.0,60.0,6.0,0.0
5123,68.0,0.0,60.0,6.0,0.0
5124,61.0,0.0,60.0,11.0,0.0
5125,73.0,0.0,60.0,2.0,0.0
5126,65.0,1.0,60.0,2.0,0.0
5127,44.0,1.0,60.0,5.0,0.0
5128,61.0,2.0,60.0,12.0,0.0
5129,49.0,1.0,60.0,13.0,0.0
5130,49.0,2.0,60.0,3.0,0.0
5131,44.0,0.0,60.0,15.0,0.0
5132,68.0,1.0,60.0,10.0,0.0
5133,77.0,0.0,60.0,10.0,0.0
5134,37.0,2.0,60.0,14.0,0.0
5135,68.0,227.0,60.0,11.0,0.0
5136,77.0,0.0,60.0,11.0,0.0
5137,60.0,1.0,60.0,10.0,0.0
5138,75.0,0.0,60.0,0.0,0.0
5139,84.0,1.0,60.0,0.0,0.0
5140,68.0,0.0,60.0,6.0,0.0
5141,56.0,0.0,60.0,4.0,0.0
5142,56.0,1.0,60.0,6.0,0.0
5143,68.0,0.0,60.0,1.0,0.0
5144,72.0,0.0,60.0,1.0,0.0
5145,63.0,0.0,60.0,2.0,0.0
5146,60.0,0.0,60.0,11.0,0.0
5147,72.0,1.0,60.0,2.0,0.0
5148,44.0,1.0,60.0,5.0,0.0
5149,63.0,2.0,60.0,12.0,0.0
5150,51.0,1.0,60.0,13.0,0.0
5151,51.0,2.0,60.0,3.0,0.0
5152,68.0,0.0,60.0,10.0,0.0
5153,75.0,1.0,60.0,10.0,0.0
5154,44.0,0.0,60.0,15.0,0.0
5155,39.0,2.0,60.0,14.0,0.0
5156,75.0,227.0,60.0,11.0,0.0
5157,68.0,0.0,60.0,11.0,0.0
5158,51.0,1.0,60.0,10.0,0.0
5159,73.0,0.0,60.0,0.0,0.0
5160,79.0,1.0,60.0,0.0,0.0
5161,63.0,0.0,60.0,6.0,0.0
5162,51.0,1.0,60.0,6.0,0.0
5163,58.0,0.0,60.0,4.0,0.0
5164,70.0,0.0,60.0,1.0,0.0
5165,67.0,0.0,60.0,1.0,0.0
5166,67.0,0.0,60.0,2.0,0.0
5167,61.0,0.0,60.0,2.0,0.0
5168,51.0,1.0,60.0,11.0,0.0
5169,51.0,1.0,60.0,5.0,0.0
5170,51.0,2.0,60.0,12.0,0.0
5171,39.0,1.0,60.0,13.0,0.0
5172,39.0,2.0,60.0,3.0,0.0
5173,58.0,0.0,60.0,10.0,0.0
5174,39.0,1.0,60.0,15.0,0.0
5175,67.0,0.0,60.0,10.0,0.0
5176,27.0,2.0,60.0,14.0,0.0
5177,67.0,222.0,60.0,11.0,0.0
5178,58.0,0.0,60.0,11.0,0.0
5179,51.0,3.0,360.0,10.0,0.0
5180,72.0,0.0,60.0,0.0,0.0
5181,80.0,0.0,60.0,0.0,0.0
5182,68.0,1.0,60.0,6.0,0.0
5183,56.0,0.0,60.0,4.0,0.0
5184,68.0,0.0,60.0,1.0,0.0
5185,60.0,0.0,60.0,1.0,0.0
5186,56.0,0.0,60.0,6.0,0.0
5187,68.0,0.0,60.0,2.0,0.0
5188,60.0,1.0,60.0,2.0,0.0
5189,51.0,2.0,360.0,11.0,0.0
5190,48.0,6.0,60.0,5.0,0.0
5191,56.0,2.0,60.0,12.0,0.0
5192,44.0,1.0,60.0,13.0,0.0
5193,44.0,3.0,60.0,3.0,0.0
5194,44.0,45.0,60.0,15.0,0.0
5195,60.0,1.0,360.0,10.0,0.0
5196,68.0,3.0,360.0,10.0,0.0
5197,32.0,1.0,60.0,14.0,0.0
5198,68.0,42.0,360.0,11.0,0.0
5199,60.0,7.0,360.0,11.0,0.0
5200,48.0,2.0,60.0,12.0,0.0
5201,51.0,0.0,60.0,12.0,0.0
5202,44.0,1.0,60.0,13.0,0.0
5203,44.0,3.0,60.0,3.0,0.0
5204,32.0,54.0,60.0,14.0,0.0
5205,48.0,2.0,60.0,12.0,0.0
5206,51.0,0.0,60.0,12.0,0.0
5207,44.0,1.0,60.0,13.0,0.0
5208,44.0,3.0,60.0,3.0,0.0
5209,32.0,54.0,60.0,14.0,0.0
5210,48.0,2.0,60.0,12.0,0.0
5211,51.0,0.0,60.0,12.0,0.0
5212,44.0,1.0,60.0,13.0,0.0
5213,44.0,3.0,60.0,3.0,0.0
5214,32.0,54.0,60.0,14.0,0.0
5215,51.0,0.0,60.0,12.0,0.0
5216,48.0,2.0,60.0,12.0,0.0
5217,44.0,1.0,60.0,13.0,0.0
5218,44.0,3.0,60.0,3.0,0.0
5219,32.0,49.0,60.0,14.0,0.0
5220,48.0,2.0,60.0,12.0,0.0
5221,51.0,0.0,60.0,12.0,0.0
5222,44.0,1.0,60.0,13.0,0.0
5223,44.0,2.0,60.0,3.0,0.0
5224,32.0,2.0,60.0,14.0,0.0
5225,72.0,3.0,120.0,10.0,0.0
5226,60.0,2.0,120.0,11.0,0.0
5227,51.0,2.0,60.0,12.0,0.0
5228,48.0,0.0,60.0,12.0,0.0
5229,44.0,1.0,60.0,13.0,0.0
5230,44.0,3.0,60.0,3.0,0.0
5231,32.0,49.0,60.0,14.0,0.0
5232,48.0,0.0,60.0,12.0,0.0
5233,51.0,2.0,60.0,12.0,0.0
5234,44.0,1.0,60.0,13.0,0.0
5235,44.0,3.0,60.0,3.0,0.0
5236,32.0,54.0,60.0,14.0,0.0
5237,75.0,1.0,360.0,10.0,0.0
5238,63.0,2.0,360.0,11.0,0.0
5239,48.0,2.0,60.0,12.0,0.0
5240,51.0,0.0,60.0,12.0,0.0
5241,44.0,1.0,60.0,13.0,0.0
5242,44.0,3.0,60.0,3.0,0.0
5243,32.0,54.0,60.0,14.0,0.0
5244,48.0,0.0,60.0,12.0,0.0
5245,51.0,2.0,60.0,12.0,0.0
5246,44.0,1.0,60.0,13.0,0.0
5247,44.0,3.0,60.0,3.0,0.0
5248,32.0,54.0,60.0,14.0,0.0
5249,80.0,1.0,120.0,0.0,0.0
5250,56.0,2.0,120.0,4.0,0.0
5251,72.0,0.0,120.0,1.0,0.0
5252,68.0,3.0,120.0,1.0,0.0
5253,48.0,2.0,60.0,12.0,0.0
5254,51.0,0.0,60.0,12.0,0.0
5255,44.0,1.0,60.0,13.0,0.0
5256,44.0,3.0,60.0,3.0,0.0
5257,32.0,50.0,60.0,14.0,0.0
5258,51.0,0.0,60.0,12.0,0.0
5259,48.0,2.0,60.0,12.0,0.0
5260,44.0,1.0,60.0,13.0,0.0
5261,44.0,3.0,60.0,3.0,0.0
5262,32.0,1.0,60.0,14.0,0.0
5263,80.0,1.0,120.0,0.0,0.0
5264,68.0,1.0,120.0,1.0,0.0
5265,72.0,0.0,120.0,1.0,0.0
5266,56.0,2.0,120.0,4.0,0.0
5267,48.0,51.0,15.0,5.0,0.0
5268,48.0,2.0,60.0,12.0,0.0
5269,51.0,0.0,60.0,12.0,0.0
5270,44.0,1.0,60.0,13.0,0.0
5271,44.0,3.0,60.0,3.0,0.0
5272,32.0,49.0,60.0,14.0,0.0
5273,48.0,0.0,60.0,12.0,0.0
5274,51.0,2.0,60.0,12.0,0.0
5275,44.0,1.0,60.0,13.0,0.0
5276,44.0,3.0,60.0,3.0,0.0
5277,32.0,1.0,60.0,14.0,0.0
5278,73.0,3.0,30.0,10.0,0.0
5279,80.0,1.0,120.0,0.0,0.0
5280,68.0,0.0,120.0,1.0,0.0
5281,72.0,1.0,120.0,1.0,0.0
5282,56.0,2.0,120.0,4.0,0.0
5283,61.0,22.0,30.0,11.0,0.0
5284,48.0,46.0,120.0,5.0,0.0
5285,51.0,0.0,60.0,12.0,0.0
5286,48.0,2.0,60.0,12.0,0.0
5287,44.0,1.0,60.0,13.0,0.0
5288,44.0,2.0,60.0,3.0,0.0
5289,32.0,2.0,60.0,14.0,0.0
5290,72.0,1.0,30.0,10.0,0.0
5291,60.0,27.0,30.0,11.0,0.0
5292,70.0,3.0,30.0,10.0,0.0
5293,58.0,17.0,30.0,11.0,0.0
5294,51.0,0.0,60.0,12.0,0.0
5295,48.0,2.0,60.0,12.0,0.0
5296,44.0,1.0,60.0,13.0,0.0
5297,44.0,3.0,60.0,3.0,0.0
5298,32.0,1.0,60.0,14.0,0.0
5299,68.0,1.0,20.0,10.0,0.0
5300,56.0,2.0,20.0,11.0,0.0
5301,58.0,3.0,60.0,10.0,0.0
5302,67.0,0.0,60.0,10.0,0.0
5303,79.0,0.0,360.0,0.0,0.0
5304,73.0,0.0,600.0,1.0,0.0
5305,58.0,2.0,600.0,4.0,0.0
5306,67.0,0.0,600.0,1.0,0.0
5307,67.0,5.0,360.0,2.0,0.0
5308,55.0,2.0,60.0,11.0,0.0
5309,51.0,46.0,600.0,5.0,0.0
5310,49.0,2.0,60.0,12.0,0.0
5311,51.0,0.0,60.0,12.0,0.0
5312,44.0,1.0,60.0,13.0,0.0
5313,44.0,3.0,60.0,3.0,0.0
5314,55.0,42.0,360.0,3.0,0.0
5315,32.0,49.0,60.0,14.0,0.0
5316,58.0,3.0,60.0,10.0,0.0
5317,67.0,0.0,60.0,10.0,0.0
5318,58.0,2.0,60.0,11.0,0.0
5319,55.0,0.0,60.0,11.0,0.0
5320,49.0,0.0,60.0,12.0,0.0
5321,51.0,2.0,60.0,12.0,0.0
5322,44.0,1.0,60.0,13.0,0.0
5323,44.0,3.0,60.0,3.0,0.0
5324,32.0,49.0,60.0,14.0,0.0
5325,58.0,3.0,60.0,10.0,0.0
5326,67.0,0.0,60.0,10.0,0.0
5327,55.0,0.0,60.0,11.0,0.0
5328,58.0,2.0,60.0,11.0,0.0
5329,51.0,2.0,60.0,12.0,0.0
5330,49.0,0.0,60.0,12.0,0.0
5331,44.0,1.0,60.0,13.0,0.0
5332,44.0,3.0,60.0,3.0,0.0
5333,32.0,49.0,60.0,14.0,0.0
5334,67.0,3.0,60.0,10.0,0.0
5335,58.0,0.0,60.0,10.0,0.0
5336,58.0,2.0,60.0,11.0,0.0
5337,55.0,0.0,60.0,11.0,0.0
5338,51.0,2.0,60.0,12.0,0.0
5339,49.0,0.0,60.0,12.0,0.0
5340,44.0,1.0,60.0,13.0,0.0
5341,44.0,3.0,60.0,3.0,0.0
5342,32.0,49.0,60.0,14.0,0.0
5343,58.0,0.0,60.0,10.0,0.0
5344,67.0,3.0,60.0,10.0,0.0
5345,55.0,2.0,60.0,11.0,0.0
5346,58.0,0.0,60.0,11.0,0.0
5347,51.0,2.0,60.0,12.0,0.0
5348,49.0,0.0,60.0,12.0,0.0
5349,44.0,1.0,60.0,13.0,0.0
5350,44.0,3.0,60.0,3.0,0.0
5351,32.0,49.0,60.0,14.0,0.0
5352,58.0,3.0,60.0,10.0,0.0
5353,67.0,0.0,60.0,10.0,0.0
5354,55.0,2.0,60.0,11.0,0.0
5355,58.0,0.0,60.0,11.0,0.0
5356,49.0,2.0,60.0,12.0,0.0
5357,51.0,0.0,60.0,12.0,0.0
5358,44.0,1.0,60.0,13.0,0.0
5359,44.0,3.0,60.0,3.0,0.0
5360,32.0,2.0,60.0,14.0,0.0
5361,58.0,3.0,60.0,10.0,0.0
5362,67.0,0.0,60.0,10.0,0.0
5363,82.0,2.0,120.0,0.0,0.0
5364,70.0,2.0,120.0,2.0,0.0
5365,55.0,0.0,60.0,11.0,0.0
5366,58.0,2.0,60.0,11.0,0.0
5367,49.0,2.0,60.0,12.0,0.0
5368,51.0,0.0,60.0,12.0,0.0
5369,44.0,1.0,60.0,13.0,0.0
5370,44.0,3.0,60.0,3.0,0.0
5371,58.0,42.0,120.0,3.0,0.0
5372,32.0,49.0,60.0,14.0,0.0
5373,67.0,1.0,60.0,10.0,0.0
5374,58.0,0.0,60.0,10.0,0.0
5375,58.0,0.0,60.0,11.0,0.0
5376,55.0,0.0,60.0,11.0,0.0
5377,51.0,2.0,60.0,12.0,0.0
5378,49.0,0.0,60.0,12.0,0.0
5379,44.0,1.0,60.0,13.0,0.0
5380,44.0,3.0,60.0,3.0,0.0
5381,32.0,7.0,60.0,14.0,0.0
5382,58.0,0.0,60.0,10.0,0.0
5383,67.0,3.0,60.0,10.0,0.0
5384,85.0,1.0,360.0,0.0,0.0
5385,55.0,2.0,60.0,11.0,0.0
5386,58.0,0.0,60.0,11.0,0.0
5387,73.0,0.0,360.0,2.0,0.0
5388,49.0,0.0,60.0,12.0,0.0
5389,51.0,2.0,60.0,12.0,0.0
5390,44.0,1.0,60.0,13.0,0.0
5391,44.0,3.0,60.0,3.0,0.0
5392,61.0,3.0,360.0,3.0,0.0
5393,32.0,49.0,60.0,14.0,0.0
5394,67.0,0.0,60.0,10.0,0.0
5395,58.0,3.0,60.0,10.0,0.0
5396,55.0,0.0,60.0,11.0,0.0
5397,58.0,2.0,60.0,11.0,0.0
5398,51.0,2.0,60.0,12.0,0.0
5399,49.0,0.0,60.0,12.0,0.0
5400,44.0,1.0,60.0,13.0,0.0
5401,44.0,3.0,60.0,3.0,0.0
5402,32.0,1.0,60.0,14.0,0.0
5403,58.0,0.0,60.0,10.0,0.0
5404,67.0,3.0,60.0,10.0,0.0
5405,61.0,0.0,120.0,1.0,0.0
5406,58.0,0.0,120.0,4.0,0.0
5407,67.0,1.0,120.0,1.0,0.0
5408,58.0,0.0,60.0,11.0,0.0
5409,55.0,2.0,60.0,11.0,0.0
5410,51.0,6.0,120.0,5.0,0.0
5411,51.0,2.0,60.0,12.0,0.0
5412,49.0,0.0,60.0,12.0,0.0
5413,44.0,1.0,60.0,13.0,0.0
5414,44.0,3.0,60.0,3.0,0.0
5415,32.0,49.0,60.0,14.0,0.0
5416,58.0,0.0,60.0,10.0,0.0
5417,67.0,2.0,60.0,10.0,0.0
5418,55.0,2.0,60.0,11.0,0.0
5419,58.0,0.0,60.0,11.0,0.0
5420,49.0,0.0,60.0,12.0,0.0
5421,51.0,2.0,60.0,12.0,0.0
5422,44.0,1.0,60.0,13.0,0.0
5423,44.0,3.0,60.0,3.0,0.0
5424,32.0,1.0,60.0,14.0,0.0
5425,67.0,3.0,60.0,10.0,0.0
5426,58.0,0.0,60.0,10.0,0.0
5427,61.0,0.0,120.0,1.0,0.0
5428,67.0,1.0,120.0,1.0,0.0
5429,70.0,0.0,15.0,6.0,0.0
5430,63.0,2.0,15.0,6.0,0.0
5431,58.0,0.0,120.0,4.0,0.0
5432,58.0,2.0,60.0,11.0,0.0
5433,55.0,0.0,60.0,11.0,0.0
5434,51.0,2.0,60.0,12.0,0.0
5435,49.0,0.0,60.0,12.0,0.0
5436,44.0,1.0,60.0,13.0,0.0
5437,44.0,3.0,60.0,3.0,0.0
5438,44.0,40.0,15.0,15.0,0.0
5439,32.0,49.0,60.0,14.0,0.0
5440,67.0,1.0,60.0,10.0,0.0
5441,58.0,0.0,60.0,10.0,0.0
5442,58.0,2.0,60.0,11.0,0.0
5443,55.0,0.0,60.0,11.0,0.0
5444,49.0,2.0,60.0,12.0,0.0
5445,51.0,0.0,60.0,12.0,0.0
5446,44.0,1.0,60.0,13.0,0.0
5447,44.0,0.0,60.0,3.0,0.0
5448,32.0,1.0,60.0,14.0,0.0
5449,67.0,3.0,60.0,10.0,0.0
5450,58.0,0.0,60.0,10.0,0.0
5451,84.0,2.0,30.0,0.0,0.0
5452,61.0,0.0,120.0,1.0,0.0
5453,67.0,1.0,120.0,1.0,0.0
5454,70.0,2.0,15.0,6.0,0.0
5455,63.0,0.0,15.0,6.0,0.0
5456,58.0,0.0,120.0,4.0,0.0
5457,58.0,2.0,60.0,11.0,0.0
5458,55.0,0.0,60.0,11.0,0.0
5459,72.0,5.0,30.0,2.0,0.0
5460,51.0,6.0,15.0,5.0,0.0
5461,51.0,0.0,60.0,12.0,0.0
5462,49.0,2.0,60.0,12.0,0.0
5463,44.0,1.0,60.0,13.0,0.0
5464,60.0,12.0,30.0,3.0,0.0
5465,44.0,3.0,60.0,3.0,0.0
5466,44.0,21.0,15.0,15.0,0.0
5467,32.0,0.0,60.0,14.0,0.0
5468,82.0,2.0,30.0,0.0,0.0
5469,70.0,5.0,30.0,2.0,0.0
5470,58.0,23.0,30.0,3.0,0.0
5471,58.0,1.0,60.0,10.0,0.0
5472,67.0,0.0,60.0,10.0,0.0
5473,80.0,2.0,30.0,0.0,0.0
5474,58.0,0.0,60.0,11.0,0.0
5475,68.0,5.0,30.0,2.0,0.0
5476,55.0,0.0,60.0,11.0,0.0
5477,51.0,2.0,60.0,12.0,0.0
5478,49.0,0.0,60.0,12.0,0.0
5479,44.0,1.0,60.0,13.0,0.0
5480,56.0,12.0,30.0,3.0,0.0
5481,44.0,3.0,60.0,3.0,0.0
5482,32.0,1.0,60.0,14.0,0.0
5483,79.0,1.0,20.0,0.0,0.0
5484,67.0,2.0,20.0,2.0,0.0
5485,55.0,0.0,20.0,3.0,0.0
5486,68.0,1.0,60.0,10.0,0.0
5487,80.0,1.0,120.0,0.0,0.0
5488,68.0,0.0,120.0,6.0,0.0
5489,68.0,0.0,120.0,1.0,0.0
5490,60.0,0.0,120.0,1.0,0.0
5491,56.0,0.0,120.0,4.0,0.0
5492,60.0,1.0,120.0,6.0,0.0
5493,56.0,47.0,60.0,11.0,0.0
5494,68.0,1.0,120.0,2.0,0.0
5495,48.0,4.0,120.0,5.0,0.0
5496,48.0,0.0,60.0,12.0,0.0
5497,51.0,2.0,60.0,12.0,0.0
5498,44.0,1.0,60.0,13.0,0.0
5499,44.0,2.0,60.0,3.0,0.0
5500,56.0,2.0,120.0,3.0,0.0
5501,44.0,20.0,120.0,15.0,0.0
5502,32.0,2.0,60.0,14.0,0.0
5503,67.0,3.0,60.0,10.0,0.0
5504,55.0,2.0,60.0,11.0,0.0
5505,51.0,0.0,60.0,12.0,0.0
5506,60.0,2.0,60.0,12.0,0.0
5507,44.0,1.0,60.0,13.0,0.0
5508,44.0,3.0,60.0,3.0,0.0
5509,32.0,0.0,60.0,14.0,0.0
5510,68.0,3.0,30.0,10.0,0.0
5511,56.0,22.0,30.0,11.0,0.0
5512,51.0,0.0,60.0,12.0,0.0
5513,60.0,2.0,60.0,12.0,0.0
5514,44.0,1.0,60.0,13.0,0.0
5515,44.0,3.0,60.0,3.0,0.0
5516,32.0,29.0,60.0,14.0,0.0
5517,70.0,3.0,30.0,10.0,0.0
5518,58.0,22.0,30.0,11.0,0.0
5519,60.0,2.0,60.0,12.0,0.0
5520,51.0,0.0,60.0,12.0,0.0
5521,44.0,1.0,60.0,13.0,0.0
5522,44.0,3.0,60.0,3.0,0.0
5523,32.0,54.0,60.0,14.0,0.0
5524,72.0,1.0,60.0,10.0,0.0
5525,60.0,47.0,60.0,11.0,0.0
5526,51.0,0.0,60.0,12.0,0.0
5527,60.0,2.0,60.0,12.0,0.0
5528,44.0,1.0,60.0,13.0,0.0
5529,44.0,2.0,60.0,3.0,0.0
5530,32.0,2.0,60.0,14.0,0.0
5531,70.0,3.0,60.0,10.0,0.0
5532,58.0,2.0,60.0,11.0,0.0
5533,51.0,2.0,60.0,12.0,0.0
5534,60.0,0.0,60.0,12.0,0.0
5535,44.0,1.0,60.0,13.0,0.0
5536,44.0,3.0,60.0,3.0,0.0
5537,32.0,29.0,60.0,14.0,0.0
5538,72.0,3.0,30.0,10.0,0.0
5539,60.0,22.0,30.0,11.0,0.0
5540,60.0,2.0,60.0,12.0,0.0
5541,51.0,0.0,60.0,12.0,0.0
5542,44.0,1.0,60.0,13.0,0.0
5543,44.0,3.0,60.0,3.0,0.0
5544,32.0,29.0,60.0,14.0,0.0
5545,73.0,3.0,30.0,10.0,0.0
5546,61.0,22.0,30.0,11.0,0.0
5547,60.0,2.0,60.0,12.0,0.0
5548,51.0,0.0,60.0,12.0,0.0
5549,44.0,1.0,60.0,13.0,0.0
5550,44.0,3.0,60.0,3.0,0.0
5551,32.0,54.0,60.0,14.0,0.0
5552,75.0,1.0,60.0,10.0,0.0
5553,63.0,47.0,60.0,11.0,0.0
5554,60.0,0.0,60.0,12.0,0.0
5555,51.0,2.0,60.0,12.0,0.0
5556,44.0,1.0,60.0,13.0,0.0
5557,44.0,2.0,60.0,3.0,0.0
5558,32.0,2.0,60.0,14.0,0.0
5559,74.0,3.0,60.0,10.0,0.0
5560,62.0,2.0,60.0,11.0,0.0
5561,51.0,2.0,60.0,12.0,0.0
5562,60.0,0.0,60.0,12.0,0.0
5563,44.0,1.0,60.0,13.0,0.0
5564,44.0,3.0,60.0,3.0,0.0
5565,32.0,29.0,60.0,14.0,0.0
5566,75.0,3.0,30.0,10.0,0.0
5567,80.0,1.0,120.0,0.0,0.0
5568,72.0,1.0,120.0,1.0,0.0
5569,68.0,0.0,120.0,1.0,0.0
5570,63.0,22.0,30.0,11.0,0.0
5571,68.0,0.0,120.0,2.0,0.0
5572,60.0,2.0,120.0,2.0,0.0
5573,51.0,2.0,60.0,12.0,0.0
5574,60.0,0.0,60.0,12.0,0.0
5575,44.0,1.0,60.0,13.0,0.0
5576,44.0,3.0,60.0,3.0,0.0
5577,56.0,3.0,120.0,3.0,0.0
5578,32.0,29.0,60.0,14.0,0.0
5579,74.0,3.0,30.0,10.0,0.0
5580,62.0,18.0,30.0,11.0,0.0
5581,51.0,0.0,60.0,12.0,0.0
5582,60.0,2.0,60.0,12.0,0.0
5583,44.0,1.0,60.0,13.0,0.0
5584,44.0,0.0,60.0,3.0,0.0
5585,32.0,1.0,60.0,14.0,0.0
5586,75.0,1.0,60.0,10.0,0.0
5587,80.0,1.0,120.0,0.0,0.0
5588,72.0,1.0,120.0,1.0,0.0
5589,68.0,0.0,120.0,1.0,0.0
5590,56.0,2.0,15.0,4.0,0.0
5591,60.0,0.0,120.0,2.0,0.0
5592,63.0,47.0,60.0,11.0,0.0
5593,68.0,0.0,120.0,2.0,0.0
5594,48.0,51.0,15.0,5.0,0.0
5595,51.0,0.0,60.0,12.0,0.0
5596,60.0,2.0,60.0,12.0,0.0
5597,44.0,1.0,60.0,13.0,0.0
5598,44.0,2.0,60.0,3.0,0.0
5599,56.0,3.0,120.0,3.0,0.0
5600,32.0,2.0,60.0,14.0,0.0
5601,72.0,1.0,60.0,10.0,0.0
5602,60.0,2.0,60.0,11.0,0.0
5603,60.0,2.0,60.0,12.0,0.0
5604,51.0,0.0,60.0,12.0,0.0
5605,44.0,1.0,60.0,13.0,0.0
5606,44.0,0.0,60.0,3.0,0.0
5607,32.0,1.0,60.0,14.0,0.0
5608,70.0,3.0,30.0,10.0,0.0
5609,80.0,1.0,120.0,0.0,0.0
5610,72.0,1.0,120.0,1.0,0.0
5611,68.0,0.0,120.0,1.0,0.0
5612,56.0,2.0,15.0,4.0,0.0
5613,60.0,2.0,120.0,2.0,0.0
5614,68.0,0.0,120.0,2.0,0.0
5615,58.0,22.0,30.0,11.0,0.0
5616,48.0,46.0,120.0,5.0,0.0
5617,51.0,2.0,60.0,12.0,0.0
5618,60.0,0.0,60.0,12.0,0.0
5619,44.0,1.0,60.0,13.0,0.0
5620,44.0,3.0,60.0,3.0,0.0
5621,56.0,0.0,120.0,3.0,0.0
5622,32.0,29.0,60.0,14.0,0.0
5623,68.0,3.0,30.0,10.0,0.0
5624,56.0,18.0,30.0,11.0,0.0
5625,60.0,2.0,60.0,12.0,0.0
5626,51.0,0.0,60.0,12.0,0.0
5627,44.0,1.0,60.0,13.0,0.0
5628,44.0,3.0,60.0,3.0,0.0
5629,32.0,1.0,60.0,14.0,0.0
5630,67.0,3.0,60.0,10.0,0.0
5631,58.0,0.0,60.0,10.0,0.0
5632,79.0,2.0,60.0,0.0,0.0
5633,73.0,0.0,600.0,1.0,0.0
5634,58.0,0.0,600.0,4.0,0.0
5635,55.0,2.0,60.0,11.0,0.0
5636,67.0,5.0,60.0,2.0,0.0
5637,51.0,4.0,600.0,5.0,0.0
5638,51.0,2.0,60.0,12.0,0.0
5639,61.0,0.0,60.0,12.0,0.0
5640,44.0,1.0,60.0,13.0,0.0
5641,55.0,42.0,60.0,3.0,0.0
5642,44.0,3.0,60.0,3.0,0.0
5643,32.0,0.0,60.0,14.0,0.0
5644,67.0,0.0,60.0,10.0,0.0
5645,58.0,3.0,60.0,10.0,0.0
5646,77.0,0.0,60.0,0.0,0.0
5647,55.0,0.0,60.0,11.0,0.0
5648,58.0,2.0,60.0,11.0,0.0
5649,65.0,5.0,60.0,2.0,0.0
5650,61.0,0.0,60.0,12.0,0.0
5651,51.0,2.0,60.0,12.0,0.0
5652,44.0,1.0,60.0,13.0,0.0
5653,44.0,3.0,60.0,3.0,0.0
5654,53.0,42.0,60.0,3.0,0.0
5655,32.0,2.0,60.0,14.0,0.0
5656,67.0,0.0,60.0,10.0,0.0
5657,58.0,3.0,60.0,10.0,0.0
5658,75.0,0.0,60.0,0.0,0.0
5659,63.0,5.0,60.0,2.0,0.0
5660,58.0,2.0,60.0,11.0,0.0
5661,55.0,0.0,60.0,11.0,0.0
5662,51.0,2.0,60.0,12.0,0.0
5663,61.0,0.0,60.0,12.0,0.0
5664,44.0,1.0,60.0,13.0,0.0
5665,51.0,42.0,60.0,3.0,0.0
5666,44.0,3.0,60.0,3.0,0.0
5667,32.0,2.0,60.0,14.0,0.0
5668,67.0,3.0,60.0,10.0,0.0
5669,58.0,0.0,60.0,10.0,0.0
5670,77.0,0.0,60.0,0.0,0.0
5671,65.0,5.0,60.0,2.0,0.0
5672,58.0,0.0,60.0,11.0,0.0
5673,55.0,2.0,60.0,11.0,0.0
5674,61.0,2.0,60.0,12.0,0.0
5675,51.0,0.0,60.0,12.0,0.0
5676,44.0,1.0,60.0,13.0,0.0
5677,44.0,3.0,60.0,3.0,0.0
5678,53.0,42.0,60.0,3.0,0.0
5679,32.0,2.0,60.0,14.0,0.0
5680,58.0,0.0,60.0,10.0,0.0
5681,67.0,3.0,60.0,10.0,0.0
5682,79.0,0.0,60.0,0.0,0.0
5683,55.0,0.0,60.0,11.0,0.0
5684,67.0,5.0,60.0,2.0,0.0
5685,58.0,2.0,60.0,11.0,0.0
5686,61.0,2.0,60.0,12.0,0.0
5687,51.0,0.0,60.0,12.0,0.0
5688,44.0,1.0,60.0,13.0,0.0
5689,44.0,3.0,60.0,3.0,0.0
5690,55.0,42.0,60.0,3.0,0.0
5691,32.0,2.0,60.0,14.0,0.0
5692,58.0,0.0,60.0,10.0,0.0
5693,67.0,3.0,60.0,10.0,0.0
5694,80.0,2.0,60.0,0.0,0.0
5695,58.0,2.0,60.0,11.0,0.0
5696,55.0,0.0,60.0,11.0,0.0
5697,68.0,5.0,60.0,2.0,0.0
5698,61.0,0.0,60.0,12.0,0.0
5699,51.0,2.0,60.0,12.0,0.0
5700,44.0,1.0,60.0,13.0,0.0
5701,44.0,3.0,60.0,3.0,0.0
5702,56.0,42.0,60.0,3.0,0.0
5703,32.0,0.0,60.0,14.0,0.0
5704,58.0,0.0,60.0,10.0,0.0
5705,67.0,3.0,60.0,10.0,0.0
5706,82.0,2.0,60.0,0.0,0.0
5707,55.0,2.0,60.0,11.0,0.0
5708,58.0,0.0,60.0,11.0,0.0
5709,70.0,5.0,60.0,2.0,0.0
5710,61.0,2.0,60.0,12.0,0.0
5711,51.0,0.0,60.0,12.0,0.0
5712,44.0,1.0,60.0,13.0,0.0
5713,58.0,42.0,60.0,3.0,0.0
5714,44.0,3.0,60.0,3.0,0.0
5715,32.0,0.0,60.0,14.0,0.0
5716,67.0,0.0,60.0,10.0,0.0
5717,58.0,1.0,60.0,10.0,0.0
5718,84.0,2.0,60.0,0.0,0.0
5719,55.0,0.0,60.0,11.0,0.0
5720,58.0,2.0,60.0,11.0,0.0
5721,72.0,0.0,60.0,2.0,0.0
5722,51.0,0.0,60.0,12.0,0.0
5723,61.0,2.0,60.0,12.0,0.0
5724,44.0,1.0,60.0,13.0,0.0
5725,60.0,3.0,60.0,3.0,0.0
5726,44.0,0.0,60.0,3.0,0.0
5727,32.0,49.0,60.0,14.0,0.0
5728,67.0,0.0,60.0,10.0,0.0
5729,58.0,3.0,60.0,10.0,0.0
5730,85.0,2.0,60.0,0.0,0.0
5731,73.0,5.0,60.0,2.0,0.0
5732,55.0,0.0,60.0,11.0,0.0
5733,58.0,2.0,60.0,11.0,0.0
5734,51.0,2.0,60.0,12.0,0.0
5735,61.0,0.0,60.0,12.0,0.0
5736,44.0,1.0,60.0,13.0,0.0
5737,44.0,3.0,60.0,3.0,0.0
5738,61.0,42.0,60.0,3.0,0.0
5739,32.0,0.0,60.0,14.0,0.0
5740,58.0,3.0,60.0,10.0,0.0
5741,67.0,0.0,60.0,10.0,0.0
5742,84.0,0.0,60.0,0.0,0.0
5743,55.0,0.0,60.0,11.0,0.0
5744,58.0,2.0,60.0,11.0,0.0
5745,72.0,1.0,60.0,2.0,0.0
5746,51.0,2.0,60.0,12.0,0.0
5747,61.0,0.0,60.0,12.0,0.0
5748,44.0,1.0,60.0,13.0,0.0
5749,44.0,3.0,60.0,3.0,0.0
5750,60.0,42.0,60.0,3.0,0.0
5751,32.0,1.0,60.0,14.0,0.0
5752,67.0,0.0,60.0,10.0,0.0
5753,58.0,3.0,60.0,10.0,0.0
5754,85.0,0.0,60.0,0.0,0.0
5755,63.0,1.0,120.0,6.0,0.0
5756,58.0,0.0,120.0,4.0,0.0
5757,67.0,1.0,15.0,1.0,0.0
5758,61.0,0.0,120.0,1.0,0.0
5759,73.0,5.0,60.0,2.0,0.0
5760,58.0,0.0,60.0,11.0,0.0
5761,55.0,2.0,60.0,11.0,0.0
5762,51.0,2.0,60.0,12.0,0.0
5763,61.0,0.0,60.0,12.0,0.0
5764,44.0,1.0,60.0,13.0,0.0
5765,61.0,42.0,60.0,3.0,0.0
5766,44.0,3.0,60.0,3.0,0.0
5767,32.0,2.0,60.0,14.0,0.0
5768,58.0,0.0,60.0,10.0,0.0
5769,67.0,2.0,60.0,10.0,0.0
5770,84.0,1.0,60.0,0.0,0.0
5771,55.0,0.0,60.0,11.0,0.0
5772,72.0,1.0,60.0,2.0,0.0
5773,58.0,2.0,60.0,11.0,0.0
5774,61.0,2.0,60.0,12.0,0.0
5775,51.0,0.0,60.0,12.0,0.0
5776,44.0,1.0,60.0,13.0,0.0
5777,60.0,2.0,60.0,3.0,0.0
5778,44.0,3.0,60.0,3.0,0.0
5779,32.0,0.0,60.0,14.0,0.0
5780,67.0,3.0,60.0,10.0,0.0
5781,58.0,0.0,60.0,10.0,0.0
5782,85.0,0.0,60.0,0.0,0.0
5783,58.0,0.0,120.0,4.0,0.0
5784,61.0,0.0,120.0,1.0,0.0
5785,70.0,0.0,15.0,6.0,0.0
5786,67.0,1.0,120.0,1.0,0.0
5787,55.0,0.0,60.0,11.0,0.0
5788,73.0,5.0,60.0,2.0,0.0
5789,58.0,2.0,60.0,11.0,0.0
5790,51.0,4.0,15.0,5.0,0.0
5791,61.0,2.0,60.0,12.0,0.0
5792,51.0,0.0,60.0,12.0,0.0
5793,44.0,1.0,60.0,13.0,0.0
5794,61.0,42.0,60.0,3.0,0.0
5795,44.0,3.0,60.0,3.0,0.0
5796,44.0,40.0,15.0,15.0,0.0
5797,32.0,2.0,60.0,14.0,0.0
5798,67.0,2.0,60.0,10.0,0.0
5799,58.0,0.0,60.0,10.0,0.0
5800,82.0,1.0,60.0,0.0,0.0
5801,70.0,1.0,60.0,2.0,0.0
5802,58.0,0.0,60.0,11.0,0.0
5803,55.0,2.0,60.0,11.0,0.0
5804,61.0,0.0,60.0,12.0,0.0
5805,51.0,2.0,60.0,12.0,0.0
5806,44.0,1.0,60.0,13.0,0.0
5807,58.0,2.0,60.0,3.0,0.0
5808,44.0,3.0,60.0,3.0,0.0
5809,32.0,0.0,60.0,14.0,0.0
5810,58.0,0.0,60.0,10.0,0.0
5811,67.0,3.0,60.0,10.0,0.0
5812,80.0,2.0,60.0,0.0,0.0
5813,67.0,0.0,120.0,1.0,0.0
5814,63.0,0.0,15.0,6.0,0.0
5815,70.0,1.0,15.0,6.0,0.0
5816,58.0,0.0,120.0,4.0,0.0
5817,61.0,1.0,120.0,1.0,0.0
5818,58.0,2.0,60.0,11.0,0.0
5819,55.0,0.0,60.0,11.0,0.0
5820,68.0,5.0,60.0,2.0,0.0
5821,51.0,6.0,120.0,5.0,0.0
5822,51.0,2.0,60.0,12.0,0.0
5823,61.0,0.0,60.0,12.0,0.0
5824,44.0,1.0,60.0,13.0,0.0
5825,44.0,3.0,60.0,3.0,0.0
5826,56.0,42.0,60.0,3.0,0.0
5827,44.0,20.0,120.0,15.0,0.0
5828,32.0,0.0,60.0,14.0,0.0
5829,67.0,1.0,60.0,10.0,0.0
5830,58.0,0.0,60.0,10.0,0.0
5831,79.0,1.0,60.0,0.0,0.0
5832,55.0,2.0,60.0,11.0,0.0
5833,58.0,0.0,60.0,11.0,0.0
5834,67.0,0.0,60.0,2.0,0.0
5835,61.0,0.0,60.0,12.0,0.0
5836,51.0,2.0,60.0,12.0,0.0
5837,44.0,1.0,60.0,13.0,0.0
5838,55.0,0.0,60.0,3.0,0.0
5839,44.0,3.0,60.0,3.0,0.0
5840,32.0,1.0,60.0,14.0,0.0
5841,68.0,3.0,30.0,10.0,0.0
5842,80.0,1.0,120.0,0.0,0.0
5843,68.0,0.0,120.0,1.0,0.0
5844,68.0,0.0,120.0,6.0,0.0
5845,60.0,1.0,120.0,1.0,0.0
5846,56.0,0.0,120.0,4.0,0.0
5847,60.0,0.0,120.0,6.0,0.0
5848,56.0,57.0,30.0,11.0,0.0
5849,68.0,1.0,120.0,2.0,0.0
5850,48.0,1.0,120.0,5.0,0.0
5851,60.0,2.0,120.0,12.0,0.0
5852,51.0,0.0,120.0,12.0,0.0
5853,44.0,1.0,120.0,13.0,0.0
5854,44.0,0.0,120.0,3.0,0.0
5855,56.0,2.0,120.0,3.0,0.0
5856,44.0,1.0,120.0,15.0,0.0
5857,32.0,19.0,120.0,14.0,0.0
5858,68.0,3.0,30.0,10.0,0.0
5859,56.0,28.0,30.0,11.0,0.0
5860,63.0,3.0,30.0,10.0,0.0
5861,51.0,57.0,30.0,11.0,0.0
5862,67.0,3.0,30.0,10.0,0.0
5863,55.0,57.0,30.0,11.0,0.0
5864,68.0,3.0,30.0,10.0,0.0
5865,56.0,57.0,30.0,11.0,0.0
5866,68.0,3.0,30.0,10.0,0.0
5867,56.0,57.0,30.0,11.0,0.0
5868,65.0,1.0,30.0,10.0,0.0
5869,77.0,1.0,30.0,0.0,0.0
5870,65.0,1.0,30.0,1.0,0.0
5871,65.0,2.0,30.0,2.0,0.0
5872,53.0,0.0,30.0,11.0,0.0
5873,53.0,2.0,30.0,12.0,0.0
5874,41.0,1.0,30.0,13.0,0.0
5875,41.0,3.0,30.0,3.0,0.0
5876,29.0,49.0,30.0,14.0,0.0
5877,69.0,1.0,30.0,10.0,0.0
5878,81.0,1.0,30.0,0.0,0.0
5879,69.0,1.0,30.0,1.0,0.0
5880,69.0,0.0,30.0,2.0,0.0
5881,57.0,2.0,30.0,11.0,0.0
5882,57.0,2.0,30.0,12.0,0.0
5883,45.0,1.0,30.0,13.0,0.0
5884,45.0,3.0,30.0,3.0,0.0
5885,33.0,49.0,30.0,14.0,0.0
5886,70.0,3.0,30.0,10.0,0.0
5887,82.0,1.0,120.0,0.0,0.0
5888,70.0,1.0,120.0,1.0,0.0
5889,70.0,2.0,120.0,2.0,0.0
5890,58.0,57.0,30.0,11.0,0.0
5891,58.0,2.0,120.0,12.0,0.0
5892,46.0,1.0,120.0,13.0,0.0
5893,46.0,3.0,120.0,3.0,0.0
5894,34.0,19.0,120.0,14.0,0.0
5895,70.0,3.0,30.0,10.0,0.0
5896,58.0,28.0,30.0,11.0,0.0
5897,65.0,3.0,30.0,10.0,0.0
5898,53.0,57.0,30.0,11.0,0.0
5899,69.0,3.0,30.0,10.0,0.0
5900,57.0,57.0,30.0,11.0,0.0
5901,70.0,3.0,30.0,10.0,0.0
5902,58.0,57.0,30.0,11.0,0.0
5903,70.0,3.0,30.0,10.0,0.0
5904,58.0,57.0,30.0,11.0,0.0
5905,67.0,1.0,30.0,10.0,0.0
5906,79.0,1.0,30.0,0.0,0.0
5907,67.0,1.0,30.0,1.0,0.0
5908,67.0,0.0,30.0,2.0,0.0
5909,55.0,2.0,30.0,11.0,0.0
5910,55.0,2.0,30.0,12.0,0.0
5911,43.0,1.0,30.0,13.0,0.0
5912,43.0,3.0,30.0,3.0,0.0
5913,31.0,49.0,30.0,14.0,0.0
5914,71.0,1.0,30.0,10.0,0.0
5915,83.0,1.0,30.0,0.0,0.0
5916,71.0,1.0,30.0,1.0,0.0
5917,71.0,2.0,30.0,2.0,0.0
5918,59.0,0.0,30.0,11.0,0.0
5919,59.0,2.0,30.0,12.0,0.0
5920,47.0,1.0,30.0,13.0,0.0
5921,47.0,3.0,30.0,3.0,0.0
5922,35.0,49.0,30.0,14.0,0.0
5923,72.0,3.0,30.0,10.0,0.0
5924,84.0,1.0,60.0,0.0,0.0
5925,72.0,1.0,60.0,1.0,0.0
5926,60.0,2.0,30.0,11.0,0.0
5927,72.0,5.0,60.0,2.0,0.0
5928,60.0,2.0,30.0,12.0,0.0
5929,48.0,4.0,30.0,13.0,0.0
5930,48.0,32.0,60.0,3.0,0.0
5931,36.0,10.0,30.0,14.0,0.0
5932,72.0,3.0,30.0,10.0,0.0
5933,72.0,1.0,60.0,0.0,0.0
5934,72.0,1.0,60.0,1.0,0.0
5935,60.0,2.0,30.0,11.0,0.0
5936,60.0,5.0,60.0,2.0,0.0
5937,60.0,2.0,30.0,12.0,0.0
5938,48.0,4.0,30.0,13.0,0.0
5939,48.0,32.0,60.0,3.0,0.0
5940,36.0,10.0,30.0,14.0,0.0
5941,68.0,3.0,30.0,10.0,0.0
5942,68.0,1.0,60.0,0.0,0.0
5943,68.0,1.0,60.0,1.0,0.0
5944,56.0,2.0,30.0,11.0,0.0
5945,56.0,5.0,60.0,2.0,0.0
5946,56.0,2.0,30.0,12.0,0.0
5947,44.0,4.0,30.0,13.0,0.0
5948,44.0,32.0,60.0,3.0,0.0
5949,32.0,10.0,30.0,14.0,0.0
5950,72.0,3.0,30.0,10.0,0.0
5951,72.0,1.0,60.0,0.0,0.0
5952,72.0,1.0,60.0,1.0,0.0
5953,60.0,5.0,60.0,2.0,0.0
5954,60.0,2.0,30.0,11.0,0.0
5955,60.0,2.0,30.0,12.0,0.0
5956,48.0,4.0,30.0,13.0,0.0
5957,48.0,32.0,60.0,3.0,0.0
5958,36.0,10.0,30.0,14.0,0.0
5959,73.0,3.0,30.0,10.0,0.0
5960,73.0,1.0,60.0,0.0,0.0
5961,73.0,1.0,60.0,1.0,0.0
5962,61.0,5.0,60.0,2.0,0.0
5963,61.0,2.0,30.0,11.0,0.0
5964,61.0,2.0,30.0,12.0,0.0
5965,49.0,4.0,30.0,13.0,0.0
5966,49.0,32.0,60.0,3.0,0.0
5967,37.0,10.0,30.0,14.0,0.0
5968,70.0,3.0,30.0,10.0,0.0
5969,70.0,1.0,60.0,0.0,0.0
5970,70.0,1.0,60.0,1.0,0.0
5971,58.0,5.0,60.0,2.0,0.0
5972,58.0,2.0,30.0,11.0,0.0
5973,58.0,2.0,30.0,12.0,0.0
5974,46.0,4.0,30.0,13.0,0.0
5975,46.0,32.0,60.0,3.0,0.0
5976,34.0,10.0,30.0,14.0,0.0
5977,75.0,3.0,30.0,10.0,0.0
5978,75.0,1.0,60.0,0.0,0.0
5979,75.0,1.0,60.0,1.0,0.0
5980,63.0,5.0,60.0,2.0,0.0
5981,63.0,2.0,30.0,11.0,0.0
5982,63.0,2.0,30.0,12.0,0.0
5983,51.0,4.0,30.0,13.0,0.0
5984,51.0,32.0,60.0,3.0,0.0
5985,39.0,10.0,30.0,14.0,0.0
5986,72.0,3.0,30.0,10.0,0.0
5987,72.0,1.0,60.0,0.0,0.0
5988,72.0,1.0,60.0,1.0,0.0
5989,60.0,2.0,30.0,11.0,0.0
5990,60.0,5.0,60.0,2.0,0.0
5991,60.0,2.0,30.0,12.0,0.0
5992,48.0,4.0,30.0,13.0,0.0
5993,48.0,32.0,60.0,3.0,0.0
5994,36.0,10.0,30.0,14.0,0.0
5995,77.0,3.0,30.0,10.0,0.0
5996,77.0,1.0,60.0,0.0,0.0
5997,77.0,1.0,60.0,1.0,0.0
5998,65.0,2.0,30.0,11.0,0.0
5999,65.0,5.0,60.0,2.0,0.0
6000,65.0,2.0,30.0,12.0,0.0
6001,53.0,4.0,30.0,13.0,0.0
6002,53.0,32.0,60.0,3.0,0.0
6003,41.0,10.0,30.0,14.0,0.0
6004,73.0,3.0,30.0,10.0,0.0
6005,73.0,1.0,60.0,0.0,0.0
6006,73.0,1.0,60.0,1.0,0.0
6007,61.0,2.0,30.0,11.0,0.0
6008,61.0,5.0,60.0,2.0,0.0
6009,61.0,2.0,30.0,12.0,0.0
6010,49.0,4.0,30.0,13.0,0.0
6011,49.0,32.0,60.0,3.0,0.0
6012,37.0,10.0,30.0,14.0,0.0
6013,79.0,3.0,30.0,10.0,0.0
6014,79.0,1.0,60.0,0.0,0.0
6015,79.0,1.0,60.0,1.0,0.0
6016,67.0,2.0,30.0,11.0,0.0
6017,67.0,5.0,60.0,2.0,0.0
6018,67.0,2.0,30.0,12.0,0.0
6019,55.0,4.0,30.0,13.0,0.0
6020,55.0,32.0,60.0,3.0,0.0
6021,43.0,10.0,30.0,14.0,0.0
6022,75.0,3.0,30.0,10.0,0.0
6023,75.0,1.0,60.0,0.0,0.0
6024,75.0,1.0,60.0,1.0,0.0
6025,63.0,5.0,60.0,2.0,0.0
6026,63.0,2.0,30.0,11.0,0.0
6027,63.0,2.0,30.0,12.0,0.0
6028,51.0,4.0,30.0,13.0,0.0
6029,51.0,32.0,60.0,3.0,0.0
6030,39.0,10.0,30.0,14.0,0.0
6031,80.0,3.0,30.0,10.0,0.0
6032,80.0,1.0,60.0,0.0,0.0
6033,80.0,1.0,60.0,1.0,0.0
6034,68.0,5.0,60.0,2.0,0.0
6035,68.0,2.0,30.0,11.0,0.0
6036,68.0,2.0,30.0,12.0,0.0
6037,56.0,4.0,30.0,13.0,0.0
6038,56.0,32.0,60.0,3.0,0.0
6039,44.0,10.0,30.0,14.0,0.0
6040,77.0,3.0,30.0,10.0,0.0
6041,77.0,1.0,60.0,0.0,0.0
6042,77.0,1.0,60.0,1.0,0.0
6043,65.0,5.0,60.0,2.0,0.0
6044,65.0,2.0,30.0,11.0,0.0
6045,65.0,2.0,30.0,12.0,0.0
6046,53.0,4.0,30.0,13.0,0.0
6047,53.0,32.0,60.0,3.0,0.0
6048,41.0,10.0,30.0,14.0,0.0
6049,72.0,3.0,30.0,10.0,0.0
6050,72.0,1.0,60.0,0.0,0.0
6051,72.0,1.0,60.0,1.0,0.0
6052,60.0,2.0,30.0,11.0,0.0
6053,60.0,5.0,60.0,2.0,0.0
6054,60.0,2.0,30.0,12.0,0.0
6055,48.0,4.0,30.0,13.0,0.0
6056,48.0,32.0,60.0,3.0,0.0
6057,36.0,10.0,30.0,14.0,0.0
6058,74.0,3.0,30.0,10.0,0.0
6059,74.0,1.0,60.0,0.0,0.0
6060,74.0,1.0,60.0,1.0,0.0
6061,62.0,5.0,60.0,2.0,0.0
6062,62.0,2.0,30.0,11.0,0.0
6063,62.0,2.0,30.0,12.0,0.0
6064,50.0,4.0,30.0,13.0,0.0
6065,50.0,57.0,60.0,3.0,0.0
6066,38.0,10.0,30.0,14.0,0.0
6067,75.0,2.0,120.0,10.0,0.0
6068,75.0,2.0,60.0,0.0,0.0
6069,63.0,1.0,120.0,4.0,0.0
6070,75.0,0.0,120.0,1.0,0.0
6071,63.0,32.0,60.0,2.0,0.0
6072,63.0,1.0,120.0,11.0,0.0
6073,51.0,2.0,60.0,12.0,0.0
6074,39.0,4.0,60.0,13.0,0.0
6075,51.0,27.0,120.0,3.0,0.0
6076,27.0,0.0,60.0,14.0,0.0
6077,63.0,2.0,30.0,12.0,0.0
6078,51.0,4.0,30.0,13.0,0.0
6079,39.0,19.0,30.0,14.0,0.0
6080,82.0,0.0,60.0,0.0,0.0
6081,79.0,2.0,60.0,0.0,0.0
6082,58.0,2.0,120.0,4.0,0.0
6083,70.0,0.0,60.0,2.0,0.0
6084,67.0,32.0,60.0,2.0,0.0
6085,51.0,4.0,15.0,5.0,0.0
6086,63.0,2.0,30.0,12.0,0.0
6087,51.0,4.0,30.0,13.0,0.0
6088,39.0,20.0,30.0,14.0,0.0
6089,63.0,2.0,30.0,12.0,0.0
6090,51.0,4.0,30.0,13.0,0.0
6091,39.0,21.0,30.0,14.0,0.0
6092,80.0,0.0,60.0,0.0,0.0
6093,84.0,2.0,60.0,0.0,0.0
6094,60.0,2.0,120.0,4.0,0.0
6095,68.0,0.0,60.0,2.0,0.0
6096,72.0,2.0,60.0,2.0,0.0
6097,56.0,31.0,120.0,5.0,0.0
6098,61.0,2.0,60.0,12.0,0.0
6099,49.0,4.0,60.0,13.0,0.0
6100,37.0,44.0,60.0,14.0,0.0
6101,60.0,2.0,60.0,12.0,0.0
6102,48.0,4.0,60.0,13.0,0.0
6103,36.0,1.0,60.0,14.0,0.0
6104,80.0,0.0,60.0,0.0,0.0
6105,84.0,2.0,60.0,0.0,0.0
6106,60.0,2.0,120.0,4.0,0.0
6107,68.0,32.0,60.0,2.0,0.0
6108,72.0,0.0,60.0,2.0,0.0
6109,56.0,27.0,120.0,5.0,0.0
6110,58.0,2.0,30.0,12.0,0.0
6111,46.0,4.0,30.0,13.0,0.0
6112,34.0,20.0,30.0,14.0,0.0
6113,56.0,2.0,30.0,12.0,0.0
6114,44.0,4.0,30.0,13.0,0.0
6115,32.0,21.0,30.0,14.0,0.0
6116,63.0,3.0,120.0,10.0,0.0
6117,82.0,30.0,30.0,0.0,0.0
6118,79.0,30.0,60.0,0.0,0.0
6119,51.0,0.0,120.0,6.0,0.0
6120,63.0,0.0,120.0,6.0,0.0
6121,58.0,1.0,120.0,4.0,0.0
6122,58.0,7.0,120.0,11.0,0.0
6123,70.0,1.0,120.0,2.0,0.0
6124,67.0,0.0,120.0,2.0,0.0
6125,51.0,1.0,120.0,5.0,0.0
6126,51.0,2.0,120.0,12.0,0.0
6127,39.0,3.0,120.0,13.0,0.0
6128,70.0,0.0,120.0,10.0,0.0
6129,79.0,3.0,120.0,10.0,0.0
6130,39.0,1.0,120.0,15.0,0.0
6131,27.0,20.0,120.0,14.0,0.0
6132,67.0,4.0,120.0,11.0,0.0
6133,75.0,0.0,120.0,11.0,0.0
6134,87.0,1.0,30.0,0.0,0.0
6135,75.0,6.0,30.0,1.0,0.0
6136,63.0,7.0,30.0,3.0,0.0
6137,87.0,1.0,30.0,0.0,0.0
6138,75.0,6.0,30.0,1.0,0.0
6139,63.0,53.0,30.0,3.0,0.0
6140,87.0,1.0,30.0,0.0,0.0
6141,75.0,6.0,30.0,1.0,0.0
6142,63.0,83.0,30.0,3.0,0.0
6143,63.0,3.0,120.0,10.0,0.0
6144,85.0,1.0,60.0,0.0,0.0
6145,73.0,6.0,60.0,1.0,0.0
6146,63.0,3.0,120.0,6.0,0.0
6147,51.0,0.0,120.0,6.0,0.0
6148,60.0,3.0,120.0,11.0,0.0
6149,63.0,2.0,120.0,12.0,0.0
6150,51.0,3.0,120.0,13.0,0.0
6151,61.0,37.0,60.0,3.0,0.0
6152,39.0,1.0,120.0,15.0,0.0
6153,72.0,3.0,120.0,10.0,0.0
6154,80.0,0.0,120.0,10.0,0.0
6155,39.0,20.0,120.0,14.0,0.0
6156,68.0,0.0,120.0,11.0,0.0
6157,75.0,0.0,120.0,11.0,0.0
6158,84.0,1.0,60.0,0.0,0.0
6159,72.0,3.0,60.0,1.0,0.0
6160,60.0,4.0,60.0,3.0,0.0
6161,82.0,1.0,30.0,0.0,0.0
6162,70.0,6.0,30.0,1.0,0.0
6163,58.0,53.0,30.0,3.0,0.0
6164,80.0,1.0,30.0,0.0,0.0
6165,68.0,6.0,30.0,1.0,0.0
6166,56.0,77.0,30.0,3.0,0.0
6167,63.0,3.0,120.0,10.0,0.0
6168,75.0,0.0,60.0,0.0,0.0
6169,63.0,0.0,120.0,6.0,0.0
6170,63.0,6.0,120.0,1.0,0.0
6171,51.0,0.0,120.0,6.0,0.0
6172,58.0,7.0,120.0,11.0,0.0
6173,51.0,2.0,60.0,12.0,0.0
6174,39.0,4.0,60.0,13.0,0.0
6175,51.0,2.0,120.0,3.0,0.0
6176,39.0,25.0,120.0,15.0,0.0
6177,79.0,3.0,120.0,10.0,0.0
6178,70.0,0.0,120.0,10.0,0.0
6179,27.0,34.0,60.0,14.0,0.0
6180,75.0,4.0,120.0,11.0,0.0
6181,67.0,0.0,120.0,11.0,0.0
6182,63.0,2.0,30.0,12.0,0.0
6183,51.0,4.0,30.0,13.0,0.0
6184,39.0,4.0,30.0,14.0,0.0
6185,82.0,2.0,60.0,0.0,0.0
6186,79.0,0.0,60.0,0.0,0.0
6187,58.0,2.0,120.0,4.0,0.0
6188,70.0,0.0,60.0,2.0,0.0
6189,67.0,32.0,60.0,2.0,0.0
6190,51.0,57.0,120.0,5.0,0.0
6191,63.0,2.0,30.0,12.0,0.0
6192,51.0,4.0,30.0,13.0,0.0
6193,39.0,20.0,30.0,14.0,0.0
6194,63.0,2.0,30.0,12.0,0.0
6195,51.0,4.0,30.0,13.0,0.0
6196,39.0,21.0,30.0,14.0,0.0
6197,80.0,2.0,60.0,0.0,0.0
6198,84.0,0.0,60.0,0.0,0.0
6199,68.0,0.0,60.0,2.0,0.0
6200,72.0,2.0,60.0,2.0,0.0
6201,56.0,31.0,120.0,5.0,0.0
6202,61.0,2.0,60.0,12.0,0.0
6203,49.0,4.0,60.0,13.0,0.0
6204,37.0,44.0,60.0,14.0,0.0
6205,60.0,2.0,60.0,12.0,0.0
6206,48.0,4.0,60.0,13.0,0.0
6207,36.0,1.0,60.0,14.0,0.0
6208,80.0,2.0,60.0,0.0,0.0
6209,84.0,0.0,60.0,0.0,0.0
6210,60.0,2.0,15.0,4.0,0.0
6211,72.0,32.0,60.0,2.0,0.0
6212,68.0,0.0,60.0,2.0,0.0
6213,56.0,27.0,120.0,5.0,0.0
6214,58.0,2.0,30.0,12.0,0.0
6215,46.0,4.0,30.0,13.0,0.0
6216,34.0,20.0,30.0,14.0,0.0
6217,56.0,2.0,30.0,12.0,0.0
6218,44.0,4.0,30.0,13.0,0.0
6219,32.0,21.0,30.0,14.0,0.0
6220,63.0,3.0,120.0,10.0,0.0
6221,82.0,30.0,30.0,0.0,0.0
6222,79.0,30.0,60.0,0.0,0.0
6223,63.0,1.0,120.0,6.0,0.0
6224,51.0,0.0,120.0,6.0,0.0
6225,58.0,0.0,120.0,4.0,0.0
6226,70.0,0.0,120.0,2.0,0.0
6227,58.0,7.0,120.0,11.0,0.0
6228,67.0,1.0,120.0,2.0,0.0
6229,51.0,1.0,120.0,5.0,0.0
6230,51.0,2.0,120.0,12.0,0.0
6231,39.0,3.0,120.0,13.0,0.0
6232,39.0,1.0,120.0,15.0,0.0
6233,79.0,0.0,120.0,10.0,0.0
6234,70.0,3.0,120.0,10.0,0.0
6235,27.0,20.0,120.0,14.0,0.0
6236,67.0,4.0,120.0,11.0,0.0
6237,75.0,0.0,120.0,11.0,0.0
6238,87.0,1.0,30.0,0.0,0.0
6239,75.0,6.0,30.0,1.0,0.0
6240,63.0,7.0,30.0,3.0,0.0
6241,87.0,1.0,30.0,0.0,0.0
6242,75.0,6.0,30.0,1.0,0.0
6243,63.0,53.0,30.0,3.0,0.0
6244,87.0,1.0,30.0,0.0,0.0
6245,75.0,6.0,30.0,1.0,0.0
6246,63.0,83.0,30.0,3.0,0.0
6247,63.0,3.0,120.0,10.0,0.0
6248,85.0,1.0,60.0,0.0,0.0
6249,73.0,6.0,60.0,1.0,0.0
6250,60.0,3.0,120.0,11.0,0.0
6251,63.0,2.0,120.0,12.0,0.0
6252,51.0,4.0,120.0,13.0,0.0
6253,61.0,37.0,60.0,3.0,0.0
6254,72.0,0.0,120.0,10.0,0.0
6255,80.0,3.0,120.0,10.0,0.0
6256,39.0,20.0,120.0,14.0,0.0
6257,68.0,7.0,120.0,11.0,0.0
6258,75.0,0.0,120.0,11.0,0.0
6259,84.0,1.0,60.0,0.0,0.0
6260,72.0,3.0,60.0,1.0,0.0
6261,60.0,0.0,60.0,3.0,0.0
6262,82.0,1.0,30.0,0.0,0.0
6263,70.0,6.0,30.0,1.0,0.0
6264,58.0,53.0,30.0,3.0,0.0
6265,80.0,1.0,30.0,0.0,0.0
6266,68.0,6.0,30.0,1.0,0.0
6267,56.0,77.0,30.0,3.0,0.0
6268,63.0,3.0,120.0,10.0,0.0
6269,75.0,1.0,120.0,0.0,0.0
6270,51.0,0.0,120.0,6.0,0.0
6271,63.0,0.0,120.0,6.0,0.0
6272,63.0,1.0,120.0,1.0,0.0
6273,63.0,5.0,120.0,2.0,0.0
6274,58.0,7.0,120.0,11.0,0.0
6275,51.0,2.0,60.0,12.0,0.0
6276,39.0,4.0,60.0,13.0,0.0
6277,51.0,0.0,120.0,3.0,0.0
6278,39.0,2.0,120.0,3.0,0.0
6279,70.0,0.0,120.0,10.0,0.0
6280,79.0,3.0,120.0,10.0,0.0
6281,39.0,25.0,120.0,15.0,0.0
6282,27.0,34.0,60.0,14.0,0.0
6283,67.0,3.0,120.0,11.0,0.0
6284,75.0,0.0,120.0,11.0,0.0
6285,63.0,2.0,30.0,12.0,0.0
6286,51.0,4.0,30.0,13.0,0.0
6287,39.0,4.0,30.0,14.0,0.0
6288,79.0,1.0,120.0,0.0,0.0
6289,82.0,0.0,120.0,0.0,0.0
6290,70.0,0.0,120.0,1.0,0.0
6291,63.0,0.0,120.0,6.0,0.0
6292,70.0,0.0,120.0,6.0,0.0
6293,58.0,0.0,120.0,4.0,0.0
6294,75.0,1.0,120.0,1.0,0.0
6295,70.0,0.0,120.0,2.0,0.0
6296,67.0,1.0,120.0,2.0,0.0
6297,51.0,4.0,120.0,5.0,0.0
6298,63.0,2.0,30.0,12.0,0.0
6299,51.0,4.0,30.0,13.0,0.0
6300,63.0,57.0,120.0,3.0,0.0
6301,51.0,0.0,120.0,3.0,0.0
6302,39.0,54.0,30.0,14.0,0.0
6303,63.0,2.0,30.0,12.0,0.0
6304,51.0,4.0,30.0,13.0,0.0
6305,39.0,20.0,30.0,14.0,0.0
6306,63.0,3.0,120.0,10.0,0.0
6307,60.0,7.0,120.0,11.0,0.0
6308,61.0,2.0,60.0,12.0,0.0
6309,49.0,4.0,60.0,13.0,0.0
6310,44.0,25.0,120.0,15.0,0.0
6311,72.0,0.0,120.0,10.0,0.0
6312,80.0,2.0,120.0,10.0,0.0
6313,37.0,34.0,60.0,14.0,0.0
6314,75.0,3.0,120.0,11.0,0.0
6315,68.0,0.0,120.0,11.0,0.0
6316,60.0,0.0,60.0,12.0,0.0
6317,48.0,1.0,60.0,13.0,0.0
6318,36.0,9.0,60.0,14.0,0.0
6319,80.0,1.0,120.0,0.0,0.0
6320,84.0,0.0,120.0,0.0,0.0
6321,72.0,0.0,120.0,6.0,0.0
6322,72.0,1.0,120.0,1.0,0.0
6323,75.0,0.0,120.0,1.0,0.0
6324,68.0,0.0,120.0,6.0,0.0
6325,60.0,0.0,120.0,4.0,0.0
6326,72.0,1.0,120.0,2.0,0.0
6327,68.0,0.0,120.0,2.0,0.0
6328,56.0,4.0,120.0,5.0,0.0
6329,58.0,2.0,30.0,12.0,0.0
6330,46.0,4.0,30.0,13.0,0.0
6331,44.0,47.0,120.0,3.0,0.0
6332,56.0,0.0,120.0,3.0,0.0
6333,34.0,54.0,30.0,14.0,0.0
6334,56.0,2.0,30.0,12.0,0.0
6335,44.0,4.0,30.0,13.0,0.0
6336,32.0,20.0,30.0,14.0,0.0
6337,63.0,3.0,120.0,10.0,0.0
6338,58.0,7.0,120.0,11.0,0.0
6339,51.0,2.0,60.0,12.0,0.0
6340,39.0,4.0,60.0,13.0,0.0
6341,79.0,0.0,120.0,10.0,0.0
6342,70.0,3.0,120.0,10.0,0.0
6343,39.0,25.0,120.0,15.0,0.0
6344,27.0,34.0,60.0,14.0,0.0
6345,67.0,12.0,120.0,11.0,0.0
6346,75.0,0.0,120.0,11.0,0.0
6347,63.0,2.0,30.0,12.0,0.0
6348,51.0,4.0,30.0,13.0,0.0
6349,39.0,4.0,30.0,14.0,0.0
6350,79.0,0.0,120.0,0.0,0.0
6351,82.0,1.0,120.0,0.0,0.0
6352,70.0,0.0,120.0,6.0,0.0
6353,63.0,0.0,120.0,6.0,0.0
6354,70.0,1.0,120.0,1.0,0.0
6355,58.0,0.0,120.0,4.0,0.0
6356,75.0,0.0,120.0,1.0,0.0
6357,67.0,0.0,120.0,2.0,0.0
6358,70.0,1.0,120.0,2.0,0.0
6359,51.0,4.0,120.0,5.0,0.0
6360,63.0,2.0,30.0,12.0,0.0
6361,51.0,4.0,30.0,13.0,0.0
6362,63.0,57.0,120.0,3.0,0.0
6363,51.0,0.0,120.0,3.0,0.0
6364,39.0,54.0,30.0,14.0,0.0
6365,63.0,2.0,30.0,12.0,0.0
6366,51.0,4.0,30.0,13.0,0.0
6367,39.0,20.0,30.0,14.0,0.0
6368,63.0,3.0,120.0,10.0,0.0
6369,60.0,7.0,120.0,11.0,0.0
6370,61.0,2.0,60.0,12.0,0.0
6371,49.0,4.0,60.0,13.0,0.0
6372,80.0,2.0,120.0,10.0,0.0
6373,44.0,25.0,120.0,15.0,0.0
6374,72.0,0.0,120.0,10.0,0.0
6375,37.0,34.0,60.0,14.0,0.0
6376,68.0,0.0,120.0,11.0,0.0
6377,75.0,3.0,120.0,11.0,0.0
6378,60.0,0.0,60.0,12.0,0.0
6379,48.0,1.0,60.0,13.0,0.0
6380,36.0,9.0,60.0,14.0,0.0
6381,80.0,0.0,120.0,0.0,0.0
6382,84.0,1.0,120.0,0.0,0.0
6383,72.0,0.0,120.0,1.0,0.0
6384,72.0,0.0,120.0,6.0,0.0
6385,60.0,1.0,120.0,4.0,0.0
6386,68.0,0.0,120.0,6.0,0.0
6387,68.0,1.0,120.0,2.0,0.0
6388,72.0,0.0,120.0,2.0,0.0
6389,56.0,4.0,120.0,5.0,0.0
6390,58.0,2.0,30.0,12.0,0.0
6391,46.0,4.0,30.0,13.0,0.0
6392,56.0,0.0,120.0,3.0,0.0
6393,44.0,97.0,120.0,3.0,0.0
6394,34.0,54.0,30.0,14.0,0.0
6395,56.0,2.0,30.0,12.0,0.0
6396,44.0,4.0,30.0,13.0,0.0
6397,32.0,20.0,30.0,14.0,0.0
6398,63.0,3.0,120.0,10.0,0.0
6399,82.0,1.0,120.0,0.0,0.0
6400,79.0,0.0,120.0,0.0,0.0
6401,70.0,0.0,120.0,1.0,0.0
6402,75.0,0.0,15.0,1.0,0.0
6403,58.0,1.0,120.0,4.0,0.0
6404,70.0,0.0,120.0,6.0,0.0
6405,63.0,0.0,120.0,6.0,0.0
6406,70.0,1.0,120.0,2.0,0.0
6407,67.0,0.0,120.0,2.0,0.0
6408,58.0,7.0,120.0,11.0,0.0
6409,51.0,1.0,120.0,5.0,0.0
6410,51.0,2.0,120.0,12.0,0.0
6411,39.0,1.0,120.0,13.0,0.0
6412,63.0,0.0,120.0,3.0,0.0
6413,51.0,2.0,120.0,3.0,0.0
6414,70.0,0.0,120.0,10.0,0.0
6415,39.0,1.0,120.0,15.0,0.0
6416,79.0,3.0,120.0,10.0,0.0
6417,27.0,214.0,120.0,14.0,0.0
6418,75.0,0.0,120.0,11.0,0.0
6419,67.0,3.0,120.0,11.0,0.0
6420,58.0,3.0,120.0,10.0,0.0
6421,75.0,1.0,120.0,0.0,0.0
6422,58.0,0.0,120.0,4.0,0.0
6423,75.0,0.0,120.0,1.0,0.0
6424,51.0,1.0,120.0,6.0,0.0
6425,63.0,0.0,120.0,6.0,0.0
6426,58.0,7.0,120.0,11.0,0.0
6427,75.0,1.0,120.0,2.0,0.0
6428,51.0,1.0,120.0,5.0,0.0
6429,63.0,2.0,120.0,12.0,0.0
6430,51.0,1.0,120.0,13.0,0.0
6431,51.0,2.0,120.0,3.0,0.0
6432,39.0,1.0,120.0,15.0,0.0
6433,75.0,0.0,120.0,10.0,0.0
6434,67.0,3.0,120.0,10.0,0.0
6435,39.0,229.0,120.0,14.0,0.0
6436,75.0,3.0,120.0,11.0,0.0
6437,67.0,0.0,120.0,11.0,0.0
6438,51.0,1.0,120.0,10.0,0.0
6439,75.0,1.0,120.0,0.0,0.0
6440,51.0,0.0,120.0,6.0,0.0
6441,51.0,0.0,120.0,4.0,0.0
6442,63.0,1.0,120.0,6.0,0.0
6443,63.0,0.0,120.0,1.0,0.0
6444,51.0,1.0,120.0,11.0,0.0
6445,63.0,0.0,120.0,2.0,0.0
6446,39.0,1.0,120.0,5.0,0.0
6447,51.0,2.0,120.0,12.0,0.0
6448,39.0,1.0,120.0,13.0,0.0
6449,39.0,2.0,120.0,3.0,0.0
6450,39.0,1.0,120.0,15.0,0.0
6451,27.0,341.0,120.0,14.0,0.0
6452,70.0,71.0,120.0,1.0,0.0
6453,75.0,1.0,300.0,1.0,0.0
6454,55.0,62.0,60.0,11.0,0.0
6455,51.0,2.0,120.0,12.0,0.0
6456,51.0,4.0,120.0,13.0,0.0
6457,39.0,52.0,120.0,14.0,0.0
6458,58.0,119.0,60.0,11.0,0.0
6459,63.0,59.0,60.0,11.0,0.0
6460,74.0,60.0,60.0,1.0,0.0
6461,72.0,1.0,60.0,1.0,0.0
6462,67.0,49.0,60.0,11.0,0.0
6463,70.0,130.0,60.0,1.0,0.0
6464,80.0,60.0,300.0,0.0,0.0
6465,68.0,1.0,120.0,1.0,0.0
6466,68.0,2.0,120.0,11.0,0.0
6467,53.0,2.0,120.0,12.0,0.0
6468,53.0,4.0,120.0,13.0,0.0
6469,41.0,49.0,120.0,14.0,0.0
6470,68.0,120.0,60.0,10.0,0.0
6471,65.0,1.0,60.0,10.0,0.0
6472,79.0,59.0,60.0,0.0,0.0
6473,62.0,1.0,60.0,10.0,0.0
6474,77.0,50.0,60.0,0.0,0.0
6475,75.0,69.0,60.0,0.0,0.0
6476,56.0,3.0,60.0,10.0,0.0
6477,74.0,4.0,120.0,0.0,0.0
6478,77.0,1.0,300.0,1.0,0.0
6479,56.0,58.0,60.0,11.0,0.0
6480,46.0,2.0,120.0,12.0,0.0
6481,46.0,4.0,120.0,13.0,0.0
6482,34.0,52.0,120.0,14.0,0.0
6483,58.0,119.0,60.0,11.0,0.0
6484,62.0,59.0,60.0,11.0,0.0
6485,74.0,60.0,60.0,1.0,0.0
6486,70.0,1.0,60.0,1.0,0.0
6487,65.0,49.0,60.0,11.0,0.0
6488,68.0,68.0,60.0,1.0,0.0
6489,55.0,62.0,60.0,10.0,0.0
6490,82.0,60.0,300.0,0.0,0.0
6491,67.0,1.0,120.0,1.0,0.0
6492,63.0,2.0,120.0,11.0,0.0
6493,51.0,2.0,120.0,12.0,0.0
6494,51.0,4.0,120.0,13.0,0.0
6495,39.0,49.0,120.0,14.0,0.0
6496,58.0,120.0,60.0,10.0,0.0
6497,63.0,1.0,60.0,10.0,0.0
6498,79.0,59.0,60.0,0.0,0.0
6499,67.0,1.0,60.0,10.0,0.0
6500,77.0,50.0,60.0,0.0,0.0
6501,75.0,69.0,60.0,0.0,0.0
6502,65.0,61.0,60.0,10.0,0.0
6503,77.0,1.0,120.0,0.0,0.0
6504,74.0,1.0,120.0,1.0,0.0
6505,62.0,2.0,120.0,2.0,0.0
6506,62.0,0.0,120.0,11.0,0.0
6507,58.0,2.0,120.0,12.0,0.0
6508,46.0,4.0,120.0,13.0,0.0
6509,34.0,177.0,120.0,14.0,0.0
6510,80.0,1.0,240.0,0.0,0.0
6511,77.0,1.0,240.0,1.0,0.0
6512,65.0,0.0,15.0,2.0,0.0
6513,68.0,0.0,240.0,2.0,0.0
6514,77.0,1.0,120.0,10.0,0.0
6515,68.0,2.0,120.0,11.0,0.0
6516,58.0,2.0,120.0,12.0,0.0
6517,50.0,1.0,120.0,13.0,0.0
6518,58.0,52.0,60.0,3.0,0.0
6519,38.0,57.0,120.0,14.0,0.0
6520,57.0,3.0,60.0,3.0,0.0
6521,75.0,1.0,120.0,10.0,0.0
6522,79.0,1.0,120.0,0.0,0.0
6523,75.0,1.0,120.0,1.0,0.0
6524,63.0,0.0,120.0,2.0,0.0
6525,67.0,2.0,120.0,2.0,0.0
6526,67.0,0.0,120.0,11.0,0.0
6527,70.0,2.0,120.0,12.0,0.0
6528,51.0,1.0,120.0,13.0,0.0
6529,58.0,42.0,60.0,3.0,0.0
6530,39.0,59.0,120.0,14.0,0.0
6531,57.0,3.0,60.0,3.0,0.0
6532,74.0,3.0,60.0,10.0,0.0
6533,77.0,1.0,120.0,0.0,0.0
6534,74.0,1.0,120.0,1.0,0.0
6535,65.0,58.0,60.0,11.0,0.0
6536,62.0,0.0,120.0,2.0,0.0
6537,58.0,2.0,120.0,12.0,0.0
6538,46.0,1.0,120.0,13.0,0.0
6539,58.0,3.0,120.0,3.0,0.0
6540,34.0,177.0,120.0,14.0,0.0
6541,80.0,1.0,240.0,0.0,0.0
6542,77.0,1.0,240.0,1.0,0.0
6543,65.0,2.0,15.0,2.0,0.0
6544,68.0,0.0,240.0,2.0,0.0
6545,77.0,1.0,120.0,10.0,0.0
6546,68.0,2.0,120.0,11.0,0.0
6547,58.0,2.0,120.0,12.0,0.0
6548,50.0,1.0,120.0,13.0,0.0
6549,58.0,52.0,60.0,3.0,0.0
6550,38.0,57.0,120.0,14.0,0.0
6551,57.0,3.0,60.0,3.0,0.0
6552,75.0,1.0,120.0,10.0,0.0
6553,79.0,1.0,120.0,0.0,0.0
6554,75.0,1.0,120.0,1.0,0.0
6555,67.0,2.0,120.0,2.0,0.0
6556,63.0,0.0,120.0,2.0,0.0
6557,67.0,0.0,120.0,11.0,0.0
6558,70.0,2.0,120.0,12.0,0.0
6559,51.0,1.0,120.0,13.0,0.0
6560,58.0,42.0,60.0,3.0,0.0
6561,39.0,59.0,120.0,14.0,0.0
6562,57.0,3.0,60.0,3.0,0.0
6563,74.0,3.0,60.0,10.0,0.0
6564,77.0,2.0,120.0,0.0,0.0
6565,74.0,9.0,120.0,1.0,0.0
6566,65.0,2.0,120.0,2.0,0.0
6567,58.0,49.0,60.0,11.0,0.0
6568,62.0,0.0,120.0,2.0,0.0
6569,65.0,2.0,120.0,12.0,0.0
6570,53.0,1.0,120.0,13.0,0.0
6571,58.0,3.0,120.0,3.0,0.0
6572,41.0,49.0,120.0,14.0,0.0
6573,70.0,3.0,60.0,10.0,0.0
6574,82.0,1.0,120.0,0.0,0.0
6575,74.0,6.0,120.0,1.0,0.0
6576,62.0,58.0,60.0,11.0,0.0
6577,58.0,113.0,120.0,3.0,0.0
6578,81.0,1.0,120.0,0.0,0.0
6579,75.0,3.0,120.0,1.0,0.0
6580,53.0,2.0,120.0,12.0,0.0
6581,41.0,1.0,120.0,13.0,0.0
6582,60.0,3.0,120.0,3.0,0.0
6583,29.0,49.0,120.0,14.0,0.0
6584,69.0,3.0,60.0,10.0,0.0
6585,84.0,1.0,120.0,0.0,0.0
6586,69.0,6.0,120.0,1.0,0.0
6587,63.0,48.0,60.0,11.0,0.0
6588,63.0,122.0,120.0,3.0,0.0
6589,70.0,1.0,120.0,10.0,0.0
6590,82.0,1.0,120.0,0.0,0.0
6591,70.0,1.0,120.0,1.0,0.0
6592,53.0,0.0,120.0,11.0,0.0
6593,62.0,2.0,120.0,11.0,0.0
6594,46.0,2.0,120.0,12.0,0.0
6595,46.0,1.0,120.0,13.0,0.0
6596,62.0,3.0,120.0,3.0,0.0
6597,34.0,234.0,120.0,14.0,0.0
6598,56.0,2.0,240.0,12.0,0.0
6599,56.0,4.0,240.0,13.0,0.0
6600,44.0,99.0,240.0,14.0,0.0
6601,70.0,3.0,120.0,10.0,0.0
6602,58.0,2.0,120.0,11.0,0.0
6603,53.0,2.0,120.0,12.0,0.0
6604,53.0,4.0,120.0,13.0,0.0
6605,41.0,67.0,120.0,14.0,0.0
6606,75.0,3.0,300.0,10.0,0.0
6607,63.0,5.0,300.0,11.0,0.0
6608,51.0,2.0,120.0,12.0,0.0
6609,51.0,4.0,120.0,13.0,0.0
6610,43.0,57.0,60.0,3.0,0.0
6611,39.0,57.0,120.0,14.0,0.0
6612,46.0,112.0,60.0,3.0,0.0
6613,51.0,52.0,60.0,3.0,0.0
6614,74.0,3.0,60.0,10.0,0.0
6615,62.0,57.0,60.0,11.0,0.0
6616,72.0,3.0,60.0,10.0,0.0
6617,60.0,5.0,60.0,11.0,0.0
6618,55.0,42.0,60.0,3.0,0.0
6619,70.0,3.0,60.0,10.0,0.0
6620,58.0,127.0,60.0,11.0,0.0
6621,68.0,3.0,120.0,10.0,0.0
6622,80.0,1.0,300.0,0.0,0.0
6623,68.0,59.0,300.0,1.0,0.0
6624,56.0,0.0,120.0,11.0,0.0
6625,56.0,2.0,120.0,2.0,0.0
6626,53.0,2.0,120.0,12.0,0.0
6627,53.0,1.0,120.0,13.0,0.0
6628,56.0,3.0,120.0,3.0,0.0
6629,41.0,112.0,120.0,14.0,0.0
6630,60.0,58.0,120.0,2.0,0.0
6631,65.0,58.0,120.0,2.0,0.0
6632,79.0,1.0,60.0,0.0,0.0
6633,67.0,1.0,60.0,1.0,0.0
6634,77.0,1.0,60.0,0.0,0.0
6635,65.0,49.0,60.0,1.0,0.0
6636,68.0,75.0,120.0,2.0,0.0
6637,75.0,1.0,60.0,0.0,0.0
6638,63.0,1.0,60.0,1.0,0.0
6639,77.0,3.0,300.0,10.0,0.0
6640,74.0,1.0,120.0,0.0,0.0
6641,62.0,1.0,120.0,1.0,0.0
6642,65.0,5.0,300.0,11.0,0.0
6643,56.0,2.0,120.0,2.0,0.0
6644,46.0,2.0,120.0,12.0,0.0
6645,46.0,4.0,120.0,13.0,0.0
6646,46.0,53.0,60.0,3.0,0.0
6647,34.0,57.0,120.0,14.0,0.0
6648,50.0,112.0,60.0,3.0,0.0
6649,53.0,52.0,60.0,3.0,0.0
6650,74.0,3.0,60.0,10.0,0.0
6651,62.0,57.0,60.0,11.0,0.0
6652,70.0,3.0,60.0,10.0,0.0
6653,58.0,5.0,60.0,11.0,0.0
6654,58.0,42.0,60.0,3.0,0.0
6655,68.0,3.0,60.0,10.0,0.0
6656,56.0,127.0,60.0,11.0,0.0
6657,67.0,3.0,120.0,10.0,0.0
6658,85.0,60.0,300.0,0.0,0.0
6659,55.0,0.0,120.0,2.0,0.0
6660,55.0,2.0,120.0,11.0,0.0
6661,51.0,2.0,120.0,12.0,0.0
6662,51.0,1.0,120.0,13.0,0.0
6663,51.0,3.0,120.0,3.0,0.0
6664,39.0,112.0,120.0,14.0,0.0
6665,58.0,0.0,15.0,2.0,0.0
6666,61.0,0.0,120.0,2.0,0.0
6667,67.0,58.0,120.0,2.0,0.0
6668,61.0,0.0,120.0,2.0,0.0
6669,82.0,2.0,60.0,0.0,0.0
6670,79.0,50.0,60.0,0.0,0.0
6671,70.0,0.0,120.0,2.0,0.0
6672,67.0,67.0,120.0,2.0,0.0
6673,73.0,2.0,60.0,0.0,0.0
6674,72.0,1.0,60.0,10.0,0.0
6675,75.0,2.0,60.0,0.0,0.0
6676,60.0,2.0,60.0,11.0,0.0
6677,68.0,0.0,120.0,2.0,0.0
6678,72.0,5.0,120.0,2.0,0.0
6679,56.0,2.0,60.0,12.0,0.0
6680,56.0,4.0,60.0,13.0,0.0
6681,60.0,57.0,120.0,3.0,0.0
6682,56.0,0.0,120.0,3.0,0.0
6683,44.0,52.0,60.0,14.0,0.0
6684,75.0,3.0,240.0,10.0,0.0
6685,84.0,0.0,120.0,0.0,0.0
6686,80.0,1.0,120.0,0.0,0.0
6687,72.0,0.0,120.0,1.0,0.0
6688,68.0,6.0,120.0,1.0,0.0
6689,63.0,127.0,240.0,11.0,0.0
6690,56.0,2.0,60.0,12.0,0.0
6691,56.0,4.0,60.0,13.0,0.0
6692,56.0,0.0,120.0,3.0,0.0
6693,60.0,102.0,120.0,3.0,0.0
6694,44.0,50.0,60.0,14.0,0.0
6695,85.0,1.0,360.0,0.0,0.0
6696,82.0,0.0,360.0,0.0,0.0
6697,73.0,0.0,360.0,1.0,0.0
6698,70.0,6.0,360.0,1.0,0.0
6699,58.0,0.0,360.0,3.0,0.0
6700,61.0,67.0,360.0,3.0,0.0
6701,76.0,3.0,120.0,10.0,0.0
6702,64.0,2.0,120.0,11.0,0.0
6703,55.0,2.0,120.0,12.0,0.0
6704,55.0,4.0,120.0,13.0,0.0
6705,43.0,49.0,120.0,14.0,0.0
6706,75.0,3.0,60.0,10.0,0.0
6707,63.0,2.0,60.0,11.0,0.0
6708,56.0,2.0,60.0,12.0,0.0
6709,56.0,4.0,60.0,13.0,0.0
6710,44.0,40.0,60.0,14.0,0.0
6711,75.0,3.0,240.0,10.0,0.0
6712,80.0,0.0,120.0,0.0,0.0
6713,84.0,1.0,120.0,0.0,0.0
6714,72.0,6.0,120.0,1.0,0.0
6715,68.0,0.0,120.0,1.0,0.0
6716,63.0,127.0,240.0,11.0,0.0
6717,56.0,2.0,60.0,12.0,0.0
6718,56.0,4.0,60.0,13.0,0.0
6719,56.0,0.0,120.0,3.0,0.0
6720,60.0,102.0,120.0,3.0,0.0
6721,44.0,50.0,60.0,14.0,0.0
6722,82.0,1.0,360.0,0.0,0.0
6723,85.0,0.0,360.0,0.0,0.0
6724,70.0,1.0,360.0,1.0,0.0
6725,73.0,0.0,360.0,1.0,0.0
6726,61.0,3.0,360.0,3.0,0.0
6727,58.0,0.0,360.0,3.0,0.0
6728,76.0,3.0,120.0,10.0,0.0
6729,64.0,2.0,120.0,11.0,0.0
6730,55.0,2.0,120.0,12.0,0.0
6731,55.0,4.0,120.0,13.0,0.0
6732,43.0,99.0,120.0,14.0,0.0
6733,77.0,1.0,120.0,10.0,0.0
6734,65.0,2.0,120.0,11.0,0.0
6735,56.0,2.0,120.0,12.0,0.0
6736,56.0,1.0,120.0,13.0,0.0
6737,44.0,119.0,120.0,14.0,0.0
6738,72.0,1.0,120.0,10.0,0.0
6739,84.0,0.0,120.0,0.0,0.0
6740,80.0,1.0,120.0,0.0,0.0
6741,72.0,1.0,120.0,1.0,0.0
6742,68.0,0.0,120.0,1.0,0.0
6743,68.0,2.0,120.0,11.0,0.0
6744,60.0,2.0,120.0,12.0,0.0
6745,53.0,1.0,120.0,13.0,0.0
6746,60.0,3.0,120.0,3.0,0.0
6747,56.0,0.0,120.0,3.0,0.0
6748,41.0,109.0,120.0,14.0,0.0
6749,70.0,1.0,120.0,10.0,0.0
6750,79.0,0.0,120.0,0.0,0.0
6751,82.0,1.0,120.0,0.0,0.0
6752,67.0,1.0,120.0,1.0,0.0
6753,70.0,0.0,120.0,1.0,0.0
6754,67.0,2.0,120.0,11.0,0.0
6755,64.0,2.0,120.0,12.0,0.0
6756,55.0,1.0,120.0,13.0,0.0
6757,58.0,0.0,120.0,3.0,0.0
6758,55.0,3.0,120.0,3.0,0.0
6759,43.0,99.0,120.0,14.0,0.0
6760,68.0,1.0,120.0,10.0,0.0
6761,77.0,0.0,120.0,0.0,0.0
6762,80.0,1.0,120.0,0.0,0.0
6763,65.0,0.0,120.0,1.0,0.0
6764,68.0,1.0,120.0,1.0,0.0
6765,65.0,2.0,120.0,11.0,0.0
6766,65.0,2.0,120.0,12.0,0.0
6767,56.0,1.0,120.0,13.0,0.0
6768,56.0,3.0,120.0,3.0,0.0
6769,53.0,0.0,120.0,3.0,0.0
6770,44.0,239.0,120.0,14.0,0.0
6771,67.0,1.0,240.0,10.0,0.0
6772,79.0,0.0,240.0,0.0,0.0
6773,75.0,1.0,240.0,0.0,0.0
6774,63.0,0.0,240.0,1.0,0.0
6775,67.0,1.0,240.0,1.0,0.0
6776,63.0,2.0,240.0,11.0,0.0
6777,70.0,0.0,240.0,2.0,0.0
6778,58.0,2.0,240.0,12.0,0.0
6779,58.0,1.0,240.0,13.0,0.0
6780,55.0,0.0,240.0,3.0,0.0
6781,51.0,3.0,240.0,3.0,0.0
6782,46.0,204.0,240.0,14.0,0.0
6783,65.0,3.0,210.0,10.0,0.0
6784,74.0,0.0,210.0,0.0,0.0
6785,77.0,1.0,210.0,0.0,0.0
6786,65.0,0.0,210.0,1.0,0.0
6787,62.0,1.0,210.0,1.0,0.0
6788,70.0,0.0,210.0,2.0,0.0
6789,58.0,0.0,15.0,2.0,0.0
6790,62.0,2.0,210.0,11.0,0.0
6791,58.0,1.0,210.0,12.0,0.0
6792,56.0,0.0,210.0,13.0,0.0
6793,50.0,32.0,210.0,3.0,0.0
6794,53.0,0.0,210.0,3.0,0.0
6795,44.0,2.0,210.0,14.0,0.0
6796,70.0,3.0,20.0,10.0,0.0
6797,82.0,0.0,20.0,10.0,0.0
6798,82.0,0.0,120.0,0.0,0.0
6799,75.0,0.0,120.0,0.0,0.0
6800,70.0,0.0,120.0,1.0,0.0
6801,58.0,0.0,120.0,1.0,0.0
6802,58.0,1.0,120.0,4.0,0.0
6803,70.0,0.0,120.0,6.0,0.0
6804,58.0,1.0,120.0,2.0,0.0
6805,70.0,0.0,20.0,11.0,0.0
6806,58.0,2.0,20.0,11.0,0.0
6807,70.0,0.0,120.0,2.0,0.0
6808,58.0,4.0,120.0,5.0,0.0
6809,63.0,2.0,20.0,12.0,0.0
6810,55.0,4.0,20.0,13.0,0.0
6811,43.0,52.0,120.0,3.0,0.0
6812,55.0,0.0,120.0,3.0,0.0
6813,43.0,19.0,20.0,14.0,0.0
6814,70.0,0.0,20.0,10.0,0.0
6815,82.0,3.0,20.0,10.0,0.0
6816,58.0,0.0,20.0,11.0,0.0
6817,70.0,2.0,20.0,11.0,0.0
6818,63.0,2.0,20.0,12.0,0.0
6819,55.0,4.0,20.0,13.0,0.0
6820,43.0,19.0,20.0,14.0,0.0
6821,70.0,0.0,20.0,10.0,0.0
6822,82.0,3.0,20.0,10.0,0.0
6823,58.0,0.0,20.0,11.0,0.0
6824,70.0,2.0,20.0,11.0,0.0
6825,63.0,2.0,20.0,12.0,0.0
6826,55.0,4.0,20.0,13.0,0.0
6827,43.0,19.0,20.0,14.0,0.0
6828,70.0,3.0,20.0,10.0,0.0
6829,82.0,0.0,20.0,10.0,0.0
6830,70.0,2.0,20.0,11.0,0.0
6831,58.0,0.0,20.0,11.0,0.0
6832,63.0,2.0,20.0,12.0,0.0
6833,55.0,4.0,20.0,13.0,0.0
6834,43.0,1.0,20.0,14.0,0.0
6835,70.0,0.0,60.0,10.0,0.0
6836,82.0,3.0,60.0,10.0,0.0
6837,70.0,0.0,60.0,11.0,0.0
6838,58.0,2.0,60.0,11.0,0.0
6839,63.0,2.0,60.0,12.0,0.0
6840,55.0,4.0,60.0,13.0,0.0
6841,43.0,69.0,60.0,14.0,0.0
6842,80.0,3.0,20.0,10.0,0.0
6843,70.0,0.0,20.0,10.0,0.0
6844,80.0,1.0,120.0,0.0,0.0
6845,74.0,0.0,120.0,0.0,0.0
6846,58.0,0.0,120.0,4.0,0.0
6847,68.0,0.0,120.0,1.0,0.0
6848,70.0,1.0,120.0,6.0,0.0
6849,74.0,0.0,120.0,1.0,0.0
6850,62.0,0.0,120.0,2.0,0.0
6851,58.0,0.0,20.0,11.0,0.0
6852,70.0,2.0,20.0,11.0,0.0
6853,68.0,1.0,120.0,2.0,0.0
6854,58.0,4.0,120.0,5.0,0.0
6855,62.0,2.0,20.0,12.0,0.0
6856,53.0,4.0,20.0,13.0,0.0
6857,53.0,0.0,120.0,3.0,0.0
6858,41.0,52.0,120.0,3.0,0.0
6859,41.0,19.0,20.0,14.0,0.0
6860,70.0,0.0,20.0,10.0,0.0
6861,80.0,3.0,20.0,10.0,0.0
6862,70.0,2.0,20.0,11.0,0.0
6863,58.0,0.0,20.0,11.0,0.0
6864,62.0,2.0,20.0,12.0,0.0
6865,53.0,4.0,20.0,13.0,0.0
6866,41.0,19.0,20.0,14.0,0.0
6867,70.0,3.0,20.0,10.0,0.0
6868,80.0,0.0,20.0,10.0,0.0
6869,58.0,0.0,20.0,11.0,0.0
6870,70.0,2.0,20.0,11.0,0.0
6871,62.0,2.0,20.0,12.0,0.0
6872,53.0,4.0,20.0,13.0,0.0
6873,41.0,19.0,20.0,14.0,0.0
6874,70.0,3.0,20.0,10.0,0.0
6875,80.0,0.0,20.0,10.0,0.0
6876,70.0,2.0,20.0,11.0,0.0
6877,58.0,0.0,20.0,11.0,0.0
6878,62.0,2.0,20.0,12.0,0.0
6879,53.0,4.0,20.0,13.0,0.0
6880,41.0,0.0,20.0,14.0,0.0
6881,70.0,3.0,60.0,10.0,0.0
6882,80.0,0.0,60.0,10.0,0.0
6883,70.0,2.0,60.0,11.0,0.0
6884,58.0,0.0,60.0,11.0,0.0
6885,62.0,2.0,60.0,12.0,0.0
6886,53.0,4.0,60.0,13.0,0.0
6887,41.0,69.0,60.0,14.0,0.0
6888,70.0,3.0,20.0,10.0,0.0
6889,79.0,0.0,20.0,10.0,0.0
6890,79.0,1.0,120.0,0.0,0.0
6891,75.0,0.0,120.0,0.0,0.0
6892,75.0,1.0,120.0,1.0,0.0
6893,58.0,0.0,120.0,4.0,0.0
6894,67.0,0.0,120.0,1.0,0.0
6895,70.0,0.0,120.0,6.0,0.0
6896,67.0,0.0,120.0,2.0,0.0
6897,58.0,2.0,20.0,11.0,0.0
6898,63.0,1.0,120.0,2.0,0.0
6899,70.0,0.0,20.0,11.0,0.0
6900,58.0,4.0,120.0,5.0,0.0
6901,63.0,2.0,20.0,12.0,0.0
6902,51.0,4.0,20.0,13.0,0.0
6903,51.0,0.0,120.0,3.0,0.0
6904,39.0,52.0,120.0,3.0,0.0
6905,39.0,19.0,20.0,14.0,0.0
6906,70.0,0.0,20.0,10.0,0.0
6907,79.0,3.0,20.0,10.0,0.0
6908,70.0,0.0,20.0,11.0,0.0
6909,58.0,2.0,20.0,11.0,0.0
6910,63.0,2.0,20.0,12.0,0.0
6911,51.0,4.0,20.0,13.0,0.0
6912,39.0,19.0,20.0,14.0,0.0
6913,79.0,3.0,20.0,10.0,0.0
6914,70.0,0.0,20.0,10.0,0.0
6915,58.0,2.0,20.0,11.0,0.0
6916,70.0,0.0,20.0,11.0,0.0
6917,63.0,2.0,20.0,12.0,0.0
6918,51.0,4.0,20.0,13.0,0.0
6919,39.0,19.0,20.0,14.0,0.0
6920,79.0,0.0,20.0,10.0,0.0
6921,70.0,3.0,20.0,10.0,0.0
6922,70.0,0.0,20.0,11.0,0.0
6923,58.0,2.0,20.0,11.0,0.0
6924,63.0,2.0,20.0,12.0,0.0
6925,51.0,4.0,20.0,13.0,0.0
6926,39.0,0.0,20.0,14.0,0.0
6927,79.0,0.0,60.0,10.0,0.0
6928,70.0,3.0,60.0,10.0,0.0
6929,58.0,2.0,60.0,11.0,0.0
6930,70.0,0.0,60.0,11.0,0.0
6931,63.0,2.0,60.0,12.0,0.0
6932,51.0,4.0,60.0,13.0,0.0
6933,39.0,79.0,60.0,14.0,0.0
6934,77.0,3.0,30.0,10.0,0.0
6935,77.0,0.0,60.0,0.0,0.0
6936,65.0,28.0,60.0,1.0,0.0
6937,65.0,22.0,30.0,11.0,0.0
6938,70.0,0.0,60.0,12.0,0.0
6939,58.0,2.0,60.0,12.0,0.0
6940,56.0,4.0,60.0,13.0,0.0
6941,44.0,1.0,60.0,14.0,0.0
6942,79.0,3.0,30.0,10.0,0.0
6943,79.0,1.0,60.0,0.0,0.0
6944,67.0,28.0,60.0,1.0,0.0
6945,67.0,22.0,30.0,11.0,0.0
6946,70.0,2.0,60.0,12.0,0.0
6947,58.0,0.0,60.0,12.0,0.0
6948,56.0,4.0,60.0,13.0,0.0
6949,44.0,0.0,60.0,14.0,0.0
6950,80.0,3.0,30.0,10.0,0.0
6951,80.0,1.0,60.0,0.0,0.0
6952,68.0,28.0,60.0,1.0,0.0
6953,68.0,22.0,30.0,11.0,0.0
6954,70.0,2.0,60.0,12.0,0.0
6955,58.0,0.0,60.0,12.0,0.0
6956,56.0,4.0,60.0,13.0,0.0
6957,44.0,0.0,60.0,14.0,0.0
6958,81.0,3.0,30.0,10.0,0.0
6959,81.0,1.0,60.0,0.0,0.0
6960,69.0,3.0,60.0,1.0,0.0
6961,69.0,18.0,30.0,11.0,0.0
6962,58.0,0.0,60.0,12.0,0.0
6963,70.0,2.0,60.0,12.0,0.0
6964,56.0,4.0,60.0,13.0,0.0
6965,44.0,19.0,60.0,14.0,0.0
6966,70.0,3.0,20.0,10.0,0.0
6967,82.0,0.0,20.0,10.0,0.0
6968,82.0,1.0,240.0,0.0,0.0
6969,70.0,0.0,240.0,6.0,0.0
6970,70.0,6.0,240.0,1.0,0.0
6971,58.0,2.0,20.0,11.0,0.0
6972,70.0,0.0,20.0,11.0,0.0
6973,58.0,16.0,240.0,5.0,0.0
6974,63.0,2.0,20.0,12.0,0.0
6975,55.0,4.0,20.0,13.0,0.0
6976,58.0,4.0,240.0,3.0,0.0
6977,43.0,19.0,20.0,14.0,0.0
6978,70.0,3.0,20.0,10.0,0.0
6979,82.0,0.0,20.0,10.0,0.0
6980,58.0,2.0,20.0,11.0,0.0
6981,70.0,0.0,20.0,11.0,0.0
6982,63.0,2.0,20.0,12.0,0.0
6983,55.0,4.0,20.0,13.0,0.0
6984,43.0,19.0,20.0,14.0,0.0
6985,82.0,3.0,20.0,10.0,0.0
6986,70.0,0.0,20.0,10.0,0.0
6987,58.0,0.0,20.0,11.0,0.0
6988,70.0,2.0,20.0,11.0,0.0
6989,63.0,2.0,20.0,12.0,0.0
6990,55.0,4.0,20.0,13.0,0.0
6991,43.0,19.0,20.0,14.0,0.0
6992,82.0,0.0,20.0,10.0,0.0
6993,70.0,3.0,20.0,10.0,0.0
6994,70.0,0.0,20.0,11.0,0.0
6995,58.0,2.0,20.0,11.0,0.0
6996,63.0,2.0,20.0,12.0,0.0
6997,55.0,4.0,20.0,13.0,0.0
6998,43.0,59.0,20.0,14.0,0.0
6999,70.0,0.0,60.0,10.0,0.0
7000,82.0,3.0,60.0,10.0,0.0
7001,58.0,2.0,60.0,11.0,0.0
7002,70.0,0.0,60.0,11.0,0.0
7003,63.0,2.0,60.0,12.0,0.0
7004,55.0,4.0,60.0,13.0,0.0
7005,43.0,40.0,60.0,14.0,0.0
7006,80.0,3.0,20.0,10.0,0.0
7007,70.0,0.0,20.0,10.0,0.0
7008,86.0,0.0,240.0,0.0,0.0
7009,80.0,1.0,240.0,0.0,0.0
7010,70.0,2.0,240.0,6.0,0.0
7011,58.0,2.0,15.0,4.0,0.0
7012,68.0,0.0,240.0,1.0,0.0
7013,74.0,6.0,240.0,1.0,0.0
7014,70.0,0.0,20.0,11.0,0.0
7015,58.0,2.0,20.0,11.0,0.0
7016,62.0,2.0,20.0,12.0,0.0
7017,53.0,4.0,20.0,13.0,0.0
7018,56.0,4.0,240.0,3.0,0.0
7019,62.0,0.0,240.0,3.0,0.0
7020,41.0,19.0,20.0,14.0,0.0
7021,80.0,3.0,20.0,10.0,0.0
7022,70.0,0.0,20.0,10.0,0.0
7023,58.0,0.0,20.0,11.0,0.0
7024,70.0,2.0,20.0,11.0,0.0
7025,62.0,2.0,20.0,12.0,0.0
7026,53.0,4.0,20.0,13.0,0.0
7027,41.0,19.0,20.0,14.0,0.0
7028,70.0,3.0,20.0,10.0,0.0
7029,80.0,0.0,20.0,10.0,0.0
7030,58.0,0.0,20.0,11.0,0.0
7031,70.0,2.0,20.0,11.0,0.0
7032,62.0,2.0,20.0,12.0,0.0
7033,53.0,4.0,20.0,13.0,0.0
7034,41.0,19.0,20.0,14.0,0.0
7035,80.0,3.0,20.0,10.0,0.0
7036,70.0,0.0,20.0,10.0,0.0
7037,58.0,0.0,20.0,11.0,0.0
7038,70.0,2.0,20.0,11.0,0.0
7039,62.0,2.0,20.0,12.0,0.0
7040,53.0,4.0,20.0,13.0,0.0
7041,41.0,59.0,20.0,14.0,0.0
7042,70.0,0.0,60.0,10.0,0.0
7043,80.0,3.0,60.0,10.0,0.0
7044,70.0,2.0,60.0,11.0,0.0
7045,58.0,0.0,60.0,11.0,0.0
7046,62.0,2.0,60.0,12.0,0.0
7047,53.0,4.0,60.0,13.0,0.0
7048,41.0,40.0,60.0,14.0,0.0
7049,79.0,3.0,20.0,10.0,0.0
7050,70.0,0.0,20.0,10.0,0.0
7051,79.0,0.0,120.0,0.0,0.0
7052,87.0,1.0,120.0,0.0,0.0
7053,70.0,0.0,240.0,6.0,0.0
7054,58.0,2.0,240.0,4.0,0.0
7055,75.0,6.0,120.0,1.0,0.0
7056,67.0,0.0,120.0,1.0,0.0
7057,70.0,0.0,20.0,11.0,0.0
7058,58.0,2.0,20.0,11.0,0.0
7059,58.0,16.0,15.0,5.0,0.0
7060,63.0,2.0,20.0,12.0,0.0
7061,51.0,4.0,20.0,13.0,0.0
7062,63.0,52.0,120.0,3.0,0.0
7063,55.0,0.0,120.0,3.0,0.0
7064,39.0,19.0,20.0,14.0,0.0
7065,79.0,0.0,20.0,10.0,0.0
7066,70.0,3.0,20.0,10.0,0.0
7067,70.0,0.0,20.0,11.0,0.0
7068,58.0,2.0,20.0,11.0,0.0
7069,63.0,2.0,20.0,12.0,0.0
7070,51.0,4.0,20.0,13.0,0.0
7071,39.0,19.0,20.0,14.0,0.0
7072,79.0,3.0,20.0,10.0,0.0
7073,70.0,0.0,20.0,10.0,0.0
7074,70.0,2.0,20.0,11.0,0.0
7075,58.0,0.0,20.0,11.0,0.0
7076,63.0,2.0,20.0,12.0,0.0
7077,51.0,4.0,20.0,13.0,0.0
7078,39.0,19.0,20.0,14.0,0.0
7079,79.0,3.0,20.0,10.0,0.0
7080,70.0,0.0,20.0,10.0,0.0
7081,70.0,0.0,20.0,11.0,0.0
7082,58.0,2.0,20.0,11.0,0.0
7083,63.0,2.0,20.0,12.0,0.0
7084,51.0,4.0,20.0,13.0,0.0
7085,39.0,0.0,20.0,14.0,0.0
7086,79.0,3.0,60.0,10.0,0.0
7087,70.0,0.0,60.0,10.0,0.0
7088,58.0,2.0,60.0,11.0,0.0
7089,70.0,0.0,60.0,11.0,0.0
7090,63.0,2.0,60.0,12.0,0.0
7091,51.0,4.0,60.0,13.0,0.0
7092,39.0,51.0,60.0,14.0,0.0
7093,77.0,3.0,30.0,10.0,0.0
7094,77.0,0.0,60.0,0.0,0.0
7095,65.0,28.0,60.0,1.0,0.0
7096,65.0,22.0,30.0,11.0,0.0
7097,58.0,0.0,60.0,12.0,0.0
7098,70.0,2.0,60.0,12.0,0.0
7099,56.0,4.0,60.0,13.0,0.0
7100,44.0,1.0,60.0,14.0,0.0
7101,79.0,3.0,30.0,10.0,0.0
7102,79.0,1.0,60.0,0.0,0.0
7103,67.0,28.0,60.0,1.0,0.0
7104,67.0,22.0,30.0,11.0,0.0
7105,70.0,2.0,60.0,12.0,0.0
7106,58.0,0.0,60.0,12.0,0.0
7107,56.0,4.0,60.0,13.0,0.0
7108,44.0,0.0,60.0,14.0,0.0
7109,80.0,3.0,30.0,10.0,0.0
7110,80.0,0.0,60.0,0.0,0.0
7111,68.0,28.0,60.0,1.0,0.0
7112,68.0,22.0,30.0,11.0,0.0
7113,58.0,0.0,60.0,12.0,0.0
7114,70.0,2.0,60.0,12.0,0.0
7115,56.0,4.0,60.0,13.0,0.0
7116,44.0,1.0,60.0,14.0,0.0
7117,81.0,3.0,30.0,10.0,0.0
7118,81.0,1.0,60.0,0.0,0.0
7119,69.0,3.0,60.0,1.0,0.0
7120,69.0,18.0,30.0,11.0,0.0
7121,58.0,0.0,60.0,12.0,0.0
7122,70.0,2.0,60.0,12.0,0.0
7123,56.0,4.0,60.0,13.0,0.0
7124,44.0,19.0,60.0,14.0,0.0
7125,82.0,3.0,20.0,10.0,0.0
7126,82.0,1.0,180.0,0.0,0.0
7127,70.0,1.0,180.0,1.0,0.0
7128,58.0,0.0,240.0,4.0,0.0
7129,70.0,2.0,240.0,6.0,0.0
7130,70.0,0.0,180.0,2.0,0.0
7131,70.0,27.0,20.0,11.0,0.0
7132,58.0,16.0,240.0,5.0,0.0
7133,55.0,2.0,180.0,12.0,0.0
7134,55.0,1.0,180.0,13.0,0.0
7135,55.0,3.0,180.0,3.0,0.0
7136,43.0,19.0,180.0,14.0,0.0
7137,82.0,3.0,20.0,10.0,0.0
7138,70.0,27.0,20.0,11.0,0.0
7139,82.0,3.0,20.0,10.0,0.0
7140,70.0,27.0,20.0,11.0,0.0
7141,82.0,3.0,20.0,10.0,0.0
7142,70.0,27.0,20.0,11.0,0.0
7143,82.0,3.0,20.0,10.0,0.0
7144,70.0,27.0,20.0,11.0,0.0
7145,82.0,1.0,20.0,10.0,0.0
7146,70.0,2.0,20.0,11.0,0.0
7147,80.0,3.0,20.0,10.0,0.0
7148,80.0,1.0,60.0,0.0,0.0
7149,68.0,1.0,60.0,1.0,0.0
7150,68.0,27.0,20.0,11.0,0.0
7151,68.0,2.0,60.0,2.0,0.0
7152,53.0,2.0,60.0,12.0,0.0
7153,53.0,1.0,60.0,13.0,0.0
7154,53.0,3.0,60.0,3.0,0.0
7155,41.0,1.0,60.0,14.0,0.0
7156,80.0,1.0,20.0,10.0,0.0
7157,68.0,0.0,20.0,11.0,0.0
7158,79.0,3.0,20.0,10.0,0.0
7159,79.0,1.0,60.0,0.0,0.0
7160,67.0,1.0,60.0,1.0,0.0
7161,67.0,27.0,20.0,11.0,0.0
7162,67.0,2.0,60.0,2.0,0.0
7163,51.0,2.0,60.0,12.0,0.0
7164,51.0,1.0,60.0,13.0,0.0
7165,51.0,3.0,60.0,3.0,0.0
7166,39.0,19.0,60.0,14.0,0.0
7167,79.0,1.0,20.0,10.0,0.0
7168,67.0,0.0,20.0,11.0,0.0
7169,77.0,3.0,20.0,10.0,0.0
7170,77.0,1.0,60.0,0.0,0.0
7171,65.0,1.0,60.0,1.0,0.0
7172,65.0,27.0,20.0,11.0,0.0
7173,65.0,0.0,60.0,2.0,0.0
7174,53.0,2.0,60.0,12.0,0.0
7175,53.0,1.0,60.0,13.0,0.0
7176,53.0,3.0,60.0,3.0,0.0
7177,41.0,19.0,60.0,14.0,0.0
7178,77.0,1.0,20.0,10.0,0.0
7179,65.0,2.0,20.0,11.0,0.0
7180,75.0,3.0,20.0,10.0,0.0
7181,75.0,1.0,60.0,0.0,0.0
7182,63.0,1.0,60.0,1.0,0.0
7183,63.0,27.0,20.0,11.0,0.0
7184,63.0,0.0,60.0,2.0,0.0
7185,54.0,2.0,60.0,12.0,0.0
7186,54.0,1.0,60.0,13.0,0.0
7187,54.0,3.0,60.0,3.0,0.0
7188,42.0,19.0,60.0,14.0,0.0
7189,75.0,1.0,20.0,10.0,0.0
7190,63.0,2.0,20.0,11.0,0.0
7191,73.0,3.0,20.0,10.0,0.0
7192,73.0,1.0,60.0,0.0,0.0
7193,61.0,1.0,60.0,1.0,0.0
7194,61.0,27.0,20.0,11.0,0.0
7195,61.0,2.0,60.0,2.0,0.0
7196,55.0,2.0,60.0,12.0,0.0
7197,55.0,1.0,60.0,13.0,0.0
7198,55.0,3.0,60.0,3.0,0.0
7199,43.0,19.0,60.0,14.0,0.0
7200,73.0,1.0,20.0,10.0,0.0
7201,61.0,0.0,20.0,11.0,0.0
7202,72.0,3.0,20.0,10.0,0.0
7203,72.0,2.0,120.0,0.0,0.0
7204,60.0,1.0,60.0,1.0,0.0
7205,60.0,27.0,60.0,2.0,0.0
7206,60.0,27.0,20.0,11.0,0.0
7207,56.0,2.0,180.0,12.0,0.0
7208,56.0,1.0,180.0,13.0,0.0
7209,56.0,3.0,180.0,3.0,0.0
7210,44.0,19.0,180.0,14.0,0.0
7211,72.0,2.0,20.0,10.0,0.0
7212,72.0,0.0,20.0,11.0,0.0
7213,72.0,3.0,20.0,10.0,0.0
7214,72.0,1.0,120.0,1.0,0.0
7215,72.0,2.0,120.0,2.0,0.0
7216,72.0,27.0,20.0,11.0,0.0
7217,72.0,1.0,20.0,10.0,0.0
7218,72.0,27.0,20.0,11.0,0.0
7219,72.0,3.0,20.0,10.0,0.0
7220,84.0,1.0,60.0,0.0,0.0
7221,72.0,27.0,20.0,11.0,0.0
7222,72.0,1.0,20.0,10.0,0.0
7223,72.0,0.0,20.0,11.0,0.0
7224,70.0,3.0,20.0,10.0,0.0
7225,82.0,1.0,60.0,0.0,0.0
7226,70.0,1.0,60.0,1.0,0.0
7227,70.0,2.0,60.0,2.0,0.0
7228,70.0,27.0,20.0,11.0,0.0
7229,55.0,2.0,60.0,12.0,0.0
7230,55.0,1.0,60.0,13.0,0.0
7231,55.0,3.0,60.0,3.0,0.0
7232,43.0,19.0,60.0,14.0,0.0
7233,70.0,1.0,20.0,10.0,0.0
7234,70.0,0.0,20.0,11.0,0.0
7235,68.0,3.0,20.0,10.0,0.0
7236,80.0,1.0,60.0,0.0,0.0
7237,68.0,1.0,60.0,1.0,0.0
7238,68.0,2.0,60.0,2.0,0.0
7239,68.0,27.0,20.0,11.0,0.0
7240,60.0,2.0,60.0,12.0,0.0
7241,60.0,1.0,60.0,13.0,0.0
7242,60.0,3.0,60.0,3.0,0.0
7243,48.0,19.0,60.0,14.0,0.0
7244,68.0,1.0,20.0,10.0,0.0
7245,68.0,0.0,20.0,11.0,0.0
7246,67.0,3.0,20.0,10.0,0.0
7247,79.0,1.0,60.0,0.0,0.0
7248,67.0,1.0,60.0,1.0,0.0
7249,67.0,27.0,20.0,11.0,0.0
7250,67.0,2.0,60.0,2.0,0.0
7251,58.0,2.0,60.0,12.0,0.0
7252,58.0,1.0,60.0,13.0,0.0
7253,58.0,3.0,60.0,3.0,0.0
7254,46.0,19.0,60.0,14.0,0.0
7255,67.0,1.0,20.0,10.0,0.0
7256,67.0,0.0,20.0,11.0,0.0
7257,65.0,3.0,20.0,10.0,0.0
7258,77.0,1.0,60.0,0.0,0.0
7259,65.0,1.0,60.0,1.0,0.0
7260,65.0,27.0,20.0,11.0,0.0
7261,65.0,2.0,60.0,2.0,0.0
7262,56.0,2.0,60.0,12.0,0.0
7263,56.0,1.0,60.0,13.0,0.0
7264,56.0,3.0,60.0,3.0,0.0
7265,44.0,19.0,60.0,14.0,0.0
7266,65.0,1.0,20.0,10.0,0.0
7267,65.0,0.0,20.0,11.0,0.0
7268,63.0,3.0,20.0,10.0,0.0
7269,75.0,1.0,60.0,0.0,0.0
7270,63.0,1.0,60.0,1.0,0.0
7271,63.0,27.0,20.0,11.0,0.0
7272,63.0,2.0,60.0,2.0,0.0
7273,57.0,2.0,60.0,12.0,0.0
7274,57.0,1.0,60.0,13.0,0.0
7275,57.0,3.0,60.0,3.0,0.0
7276,45.0,19.0,60.0,14.0,0.0
7277,63.0,1.0,20.0,10.0,0.0
7278,63.0,0.0,20.0,11.0,0.0
7279,62.0,3.0,20.0,10.0,0.0
7280,74.0,1.0,60.0,0.0,0.0
7281,62.0,1.0,60.0,1.0,0.0
7282,62.0,12.0,20.0,11.0,0.0
7283,62.0,5.0,60.0,2.0,0.0
7284,58.0,2.0,30.0,12.0,0.0
7285,58.0,4.0,30.0,13.0,0.0
7286,58.0,22.0,60.0,3.0,0.0
7287,46.0,9.0,30.0,14.0,0.0
7288,62.0,1.0,20.0,10.0,0.0
7289,62.0,0.0,20.0,11.0,0.0
7290,63.0,3.0,20.0,10.0,0.0
7291,75.0,1.0,60.0,0.0,0.0
7292,63.0,1.0,60.0,1.0,0.0
7293,63.0,5.0,60.0,2.0,0.0
7294,63.0,12.0,20.0,11.0,0.0
7295,67.0,2.0,30.0,12.0,0.0
7296,55.0,4.0,30.0,13.0,0.0
7297,55.0,22.0,60.0,3.0,0.0
7298,43.0,9.0,30.0,14.0,0.0
7299,63.0,1.0,20.0,10.0,0.0
7300,63.0,0.0,20.0,11.0,0.0
7301,65.0,3.0,20.0,10.0,0.0
7302,65.0,1.0,60.0,0.0,0.0
7303,77.0,0.0,60.0,0.0,0.0
7304,65.0,1.0,60.0,1.0,0.0
7305,65.0,5.0,60.0,2.0,0.0
7306,65.0,12.0,20.0,11.0,0.0
7307,65.0,2.0,30.0,12.0,0.0
7308,53.0,4.0,30.0,13.0,0.0
7309,53.0,22.0,60.0,3.0,0.0
7310,41.0,9.0,30.0,14.0,0.0
7311,65.0,1.0,20.0,10.0,0.0
7312,65.0,0.0,20.0,11.0,0.0
7313,67.0,3.0,20.0,10.0,0.0
7314,79.0,0.0,60.0,0.0,0.0
7315,67.0,1.0,60.0,0.0,0.0
7316,67.0,1.0,60.0,1.0,0.0
7317,67.0,5.0,60.0,2.0,0.0
7318,67.0,12.0,20.0,11.0,0.0
7319,63.0,2.0,30.0,12.0,0.0
7320,51.0,4.0,30.0,13.0,0.0
7321,51.0,22.0,60.0,3.0,0.0
7322,39.0,9.0,30.0,14.0,0.0
7323,67.0,1.0,20.0,10.0,0.0
7324,67.0,0.0,20.0,11.0,0.0
7325,68.0,3.0,20.0,10.0,0.0
7326,68.0,0.0,60.0,0.0,0.0
7327,80.0,1.0,60.0,0.0,0.0
7328,68.0,1.0,60.0,1.0,0.0
7329,68.0,0.0,60.0,2.0,0.0
7330,68.0,12.0,20.0,11.0,0.0
7331,62.0,2.0,30.0,12.0,0.0
7332,50.0,4.0,30.0,13.0,0.0
7333,50.0,22.0,60.0,3.0,0.0
7334,38.0,9.0,30.0,14.0,0.0
7335,68.0,1.0,20.0,10.0,0.0
7336,68.0,5.0,20.0,11.0,0.0
7337,70.0,3.0,20.0,10.0,0.0
7338,70.0,1.0,60.0,0.0,0.0
7339,82.0,0.0,60.0,0.0,0.0
7340,70.0,1.0,60.0,1.0,0.0
7341,70.0,0.0,60.0,2.0,0.0
7342,70.0,12.0,20.0,11.0,0.0
7343,60.0,2.0,30.0,12.0,0.0
7344,48.0,4.0,30.0,13.0,0.0
7345,48.0,22.0,60.0,3.0,0.0
7346,36.0,9.0,30.0,14.0,0.0
7347,70.0,1.0,20.0,10.0,0.0
7348,70.0,5.0,20.0,11.0,0.0
7349,72.0,3.0,20.0,10.0,0.0
7350,72.0,1.0,60.0,0.0,0.0
7351,84.0,0.0,60.0,0.0,0.0
7352,72.0,1.0,60.0,1.0,0.0
7353,72.0,12.0,20.0,11.0,0.0
7354,72.0,5.0,60.0,2.0,0.0
7355,58.0,2.0,30.0,12.0,0.0
7356,46.0,4.0,30.0,13.0,0.0
7357,46.0,22.0,60.0,3.0,0.0
7358,34.0,9.0,30.0,14.0,0.0
7359,72.0,1.0,20.0,10.0,0.0
7360,72.0,0.0,20.0,11.0,0.0
7361,74.0,3.0,20.0,10.0,0.0
7362,74.0,1.0,60.0,0.0,0.0
7363,86.0,0.0,60.0,0.0,0.0
7364,74.0,1.0,60.0,1.0,0.0
7365,74.0,12.0,20.0,11.0,0.0
7366,74.0,0.0,60.0,2.0,0.0
7367,56.0,2.0,30.0,12.0,0.0
7368,44.0,4.0,30.0,13.0,0.0
7369,44.0,62.0,60.0,3.0,0.0
7370,32.0,9.0,30.0,14.0,0.0
7371,74.0,1.0,20.0,10.0,0.0
7372,74.0,5.0,20.0,11.0,0.0
7373,75.0,1.0,60.0,10.0,0.0
7374,75.0,1.0,60.0,0.0,0.0
7375,87.0,0.0,60.0,0.0,0.0
7376,75.0,1.0,60.0,1.0,0.0
7377,75.0,0.0,60.0,2.0,0.0
7378,75.0,2.0,60.0,11.0,0.0
7379,55.0,2.0,60.0,12.0,0.0
7380,43.0,1.0,60.0,13.0,0.0
7381,43.0,3.0,60.0,3.0,0.0
7382,31.0,109.0,60.0,14.0,0.0
7383,72.0,1.0,60.0,10.0,0.0
7384,84.0,1.0,60.0,0.0,0.0
7385,63.0,0.0,120.0,6.0,0.0
7386,63.0,2.0,120.0,4.0,0.0
7387,63.0,1.0,60.0,1.0,0.0
7388,72.0,0.0,60.0,1.0,0.0
7389,63.0,0.0,60.0,2.0,0.0
7390,63.0,2.0,60.0,11.0,0.0
7391,72.0,0.0,60.0,2.0,0.0
7392,51.0,56.0,120.0,5.0,0.0
7393,63.0,2.0,60.0,12.0,0.0
7394,44.0,1.0,60.0,13.0,0.0
7395,44.0,3.0,60.0,3.0,0.0
7396,32.0,51.0,60.0,14.0,0.0
7397,70.0,1.0,60.0,10.0,0.0
7398,82.0,1.0,60.0,0.0,0.0
7399,67.0,0.0,60.0,1.0,0.0
7400,70.0,1.0,60.0,1.0,0.0
7401,58.0,0.0,120.0,4.0,0.0
7402,70.0,0.0,60.0,2.0,0.0
7403,67.0,0.0,60.0,2.0,0.0
7404,67.0,2.0,60.0,11.0,0.0
7405,63.0,2.0,60.0,12.0,0.0
7406,46.0,1.0,60.0,13.0,0.0
7407,46.0,3.0,60.0,3.0,0.0
7408,34.0,51.0,60.0,14.0,0.0
7409,62.0,1.0,60.0,10.0,0.0
7410,74.0,1.0,60.0,0.0,0.0
7411,74.0,1.0,60.0,1.0,0.0
7412,68.0,0.0,60.0,1.0,0.0
7413,70.0,2.0,15.0,6.0,0.0
7414,62.0,2.0,60.0,11.0,0.0
7415,53.0,0.0,60.0,11.0,0.0
7416,68.0,0.0,60.0,2.0,0.0
7417,62.0,0.0,60.0,2.0,0.0
7418,58.0,56.0,15.0,5.0,0.0
7419,56.0,2.0,60.0,12.0,0.0
7420,46.0,1.0,60.0,13.0,0.0
7421,46.0,3.0,60.0,3.0,0.0
7422,34.0,51.0,60.0,14.0,0.0
7423,63.0,3.0,120.0,10.0,0.0
7424,75.0,1.0,120.0,0.0,0.0
7425,67.0,0.0,120.0,1.0,0.0
7426,58.0,2.0,15.0,4.0,0.0
7427,63.0,0.0,120.0,6.0,0.0
7428,75.0,1.0,120.0,1.0,0.0
7429,55.0,2.0,120.0,11.0,0.0
7430,63.0,1.0,120.0,2.0,0.0
7431,67.0,0.0,120.0,2.0,0.0
7432,63.0,0.0,120.0,11.0,0.0
7433,51.0,82.0,120.0,5.0,0.0
7434,55.0,6.0,120.0,12.0,0.0
7435,51.0,1.0,300.0,13.0,0.0
7436,51.0,3.0,300.0,3.0,0.0
7437,39.0,15.0,300.0,14.0,0.0
7438,58.0,3.0,90.0,10.0,0.0
7439,54.0,2.0,90.0,11.0,0.0
7440,51.0,96.0,90.0,12.0,0.0
7441,58.0,3.0,90.0,10.0,0.0
7442,54.0,2.0,90.0,11.0,0.0
7443,51.0,36.0,90.0,12.0,0.0
7444,49.0,1.0,60.0,13.0,0.0
7445,49.0,3.0,60.0,3.0,0.0
7446,37.0,56.0,60.0,14.0,0.0
7447,58.0,3.0,90.0,10.0,0.0
7448,54.0,2.0,90.0,11.0,0.0
7449,51.0,26.0,90.0,12.0,0.0
7450,47.0,1.0,60.0,13.0,0.0
7451,47.0,3.0,60.0,3.0,0.0
7452,35.0,15.0,60.0,14.0,0.0
7453,46.0,1.0,60.0,13.0,0.0
7454,46.0,3.0,60.0,3.0,0.0
7455,34.0,85.0,60.0,14.0,0.0
7456,59.0,3.0,90.0,10.0,0.0
7457,56.0,2.0,90.0,11.0,0.0
7458,51.0,37.0,90.0,12.0,0.0
7459,44.0,4.0,300.0,13.0,0.0
7460,44.0,78.0,120.0,3.0,0.0
7461,32.0,25.0,300.0,14.0,0.0
7462,59.0,3.0,90.0,10.0,0.0
7463,56.0,2.0,90.0,11.0,0.0
7464,51.0,86.0,90.0,12.0,0.0
7465,59.0,3.0,90.0,10.0,0.0
7466,56.0,2.0,90.0,11.0,0.0
7467,51.0,36.0,90.0,12.0,0.0
7468,42.0,4.0,60.0,13.0,0.0
7469,30.0,56.0,60.0,14.0,0.0
7470,59.0,3.0,90.0,10.0,0.0
7471,56.0,2.0,90.0,11.0,0.0
7472,51.0,26.0,90.0,12.0,0.0
7473,41.0,4.0,60.0,13.0,0.0
7474,29.0,15.0,60.0,14.0,0.0
7475,39.0,4.0,60.0,13.0,0.0
7476,27.0,85.0,60.0,14.0,0.0
7477,59.0,3.0,90.0,10.0,0.0
7478,73.0,5.0,840.0,1.0,0.0
7479,56.0,2.0,90.0,11.0,0.0
7480,53.0,115.0,90.0,12.0,0.0
7481,37.0,4.0,300.0,13.0,0.0
7482,25.0,25.0,300.0,14.0,0.0
7483,59.0,3.0,90.0,10.0,0.0
7484,56.0,2.0,90.0,11.0,0.0
7485,49.0,86.0,90.0,12.0,0.0
7486,59.0,3.0,90.0,10.0,0.0
7487,56.0,2.0,90.0,11.0,0.0
7488,49.0,36.0,90.0,12.0,0.0
7489,39.0,4.0,60.0,13.0,0.0
7490,27.0,56.0,60.0,14.0,0.0
7491,59.0,3.0,90.0,10.0,0.0
7492,56.0,2.0,90.0,11.0,0.0
7493,49.0,26.0,90.0,12.0,0.0
7494,40.0,4.0,60.0,13.0,0.0
7495,28.0,15.0,60.0,14.0,0.0
7496,41.0,4.0,60.0,13.0,0.0
7497,29.0,85.0,60.0,14.0,0.0
7498,58.0,3.0,90.0,10.0,0.0
7499,54.0,2.0,90.0,11.0,0.0
7500,49.0,115.0,90.0,12.0,0.0
7501,42.0,4.0,300.0,13.0,0.0
7502,30.0,25.0,300.0,14.0,0.0
7503,58.0,3.0,90.0,10.0,0.0
7504,54.0,2.0,90.0,11.0,0.0
7505,49.0,86.0,90.0,12.0,0.0
7506,58.0,3.0,90.0,10.0,0.0
7507,54.0,2.0,90.0,11.0,0.0
7508,49.0,31.0,90.0,12.0,0.0
7509,44.0,4.0,60.0,13.0,0.0
7510,32.0,51.0,60.0,14.0,0.0
7511,58.0,3.0,90.0,10.0,0.0
7512,71.0,5.0,60.0,1.0,0.0
7513,54.0,2.0,90.0,11.0,0.0
7514,49.0,21.0,90.0,12.0,0.0
7515,45.0,4.0,60.0,13.0,0.0
7516,33.0,15.0,60.0,14.0,0.0
7517,70.0,5.0,60.0,1.0,0.0
7518,46.0,4.0,60.0,13.0,0.0
7519,34.0,46.0,60.0,14.0,0.0
7520,56.0,3.0,90.0,10.0,0.0
7521,70.0,20.0,40.0,1.0,0.0
7522,54.0,2.0,90.0,11.0,0.0
7523,51.0,1.0,90.0,12.0,0.0
7524,47.0,4.0,60.0,13.0,0.0
7525,35.0,15.0,60.0,14.0,0.0
7526,68.0,25.0,40.0,1.0,0.0
7527,46.0,4.0,60.0,13.0,0.0
7528,34.0,36.0,60.0,14.0,0.0
7529,56.0,3.0,90.0,10.0,0.0
7530,68.0,5.0,90.0,1.0,0.0
7531,54.0,2.0,90.0,11.0,0.0
7532,51.0,1.0,90.0,12.0,0.0
7533,47.0,4.0,30.0,13.0,0.0
7534,35.0,45.0,30.0,14.0,0.0
7535,48.0,4.0,30.0,13.0,0.0
7536,36.0,86.0,30.0,14.0,0.0
7537,56.0,3.0,90.0,10.0,0.0
7538,68.0,25.0,90.0,1.0,0.0
7539,53.0,2.0,90.0,11.0,0.0
7540,49.0,1.0,90.0,12.0,0.0
7541,49.0,4.0,60.0,13.0,0.0
7542,37.0,15.0,60.0,14.0,0.0
7543,48.0,4.0,60.0,13.0,0.0
7544,36.0,36.0,60.0,14.0,0.0
7545,56.0,3.0,90.0,10.0,0.0
7546,68.0,5.0,90.0,1.0,0.0
7547,53.0,2.0,90.0,11.0,0.0
7548,53.0,1.0,90.0,12.0,0.0
7549,49.0,4.0,30.0,13.0,0.0
7550,37.0,45.0,30.0,14.0,0.0
7551,49.0,4.0,30.0,13.0,0.0
7552,37.0,105.0,30.0,14.0,0.0
7553,56.0,3.0,90.0,10.0,0.0
7554,70.0,5.0,840.0,1.0,0.0
7555,53.0,2.0,90.0,11.0,0.0
7556,53.0,115.0,90.0,12.0,0.0
7557,50.0,4.0,300.0,13.0,0.0
7558,58.0,3.0,840.0,3.0,0.0
7559,38.0,25.0,300.0,14.0,0.0
7560,68.0,3.0,90.0,10.0,0.0
7561,65.0,2.0,90.0,11.0,0.0
7562,58.0,86.0,90.0,12.0,0.0
7563,68.0,3.0,90.0,10.0,0.0
7564,65.0,2.0,90.0,11.0,0.0
7565,58.0,36.0,90.0,12.0,0.0
7566,46.0,4.0,60.0,13.0,0.0
7567,34.0,56.0,60.0,14.0,0.0
7568,68.0,3.0,90.0,10.0,0.0
7569,65.0,2.0,90.0,11.0,0.0
7570,58.0,26.0,90.0,12.0,0.0
7571,48.0,4.0,60.0,13.0,0.0
7572,36.0,15.0,60.0,14.0,0.0
7573,50.0,4.0,60.0,13.0,0.0
7574,38.0,85.0,60.0,14.0,0.0
7575,66.0,3.0,90.0,10.0,0.0
7576,63.0,2.0,90.0,11.0,0.0
7577,58.0,115.0,90.0,12.0,0.0
7578,51.0,4.0,300.0,13.0,0.0
7579,39.0,25.0,300.0,14.0,0.0
7580,66.0,3.0,90.0,10.0,0.0
7581,63.0,2.0,90.0,11.0,0.0
7582,58.0,86.0,90.0,12.0,0.0
7583,66.0,3.0,90.0,10.0,0.0
7584,63.0,2.0,90.0,11.0,0.0
7585,58.0,31.0,90.0,12.0,0.0
7586,51.0,1.0,60.0,13.0,0.0
7587,39.0,51.0,60.0,14.0,0.0
7588,66.0,3.0,90.0,10.0,0.0
7589,68.0,5.0,60.0,1.0,0.0
7590,58.0,2.0,90.0,11.0,0.0
7591,63.0,21.0,90.0,12.0,0.0
7592,53.0,1.0,60.0,13.0,0.0
7593,56.0,3.0,60.0,3.0,0.0
7594,41.0,15.0,60.0,14.0,0.0
7595,66.0,5.0,60.0,1.0,0.0
7596,54.0,1.0,60.0,13.0,0.0
7597,54.0,3.0,60.0,3.0,0.0
7598,42.0,46.0,60.0,14.0,0.0
7599,65.0,3.0,90.0,10.0,0.0
7600,66.0,6.0,40.0,1.0,0.0
7601,59.0,2.0,90.0,11.0,0.0
7602,63.0,1.0,90.0,12.0,0.0
7603,56.0,4.0,60.0,13.0,0.0
7604,54.0,14.0,40.0,3.0,0.0
7605,44.0,15.0,60.0,14.0,0.0
7606,65.0,6.0,40.0,1.0,0.0
7607,53.0,19.0,40.0,3.0,0.0
7608,55.0,4.0,60.0,13.0,0.0
7609,43.0,36.0,60.0,14.0,0.0
7610,65.0,3.0,90.0,10.0,0.0
7611,65.0,5.0,90.0,1.0,0.0
7612,59.0,2.0,90.0,11.0,0.0
7613,63.0,1.0,90.0,12.0,0.0
7614,56.0,4.0,30.0,13.0,0.0
7615,53.0,3.0,90.0,3.0,0.0
7616,44.0,45.0,30.0,14.0,0.0
7617,56.0,1.0,30.0,13.0,0.0
7618,44.0,86.0,30.0,14.0,0.0
7619,65.0,3.0,90.0,10.0,0.0
7620,65.0,6.0,90.0,1.0,0.0
7621,60.0,2.0,90.0,11.0,0.0
7622,63.0,1.0,90.0,12.0,0.0
7623,57.0,4.0,60.0,13.0,0.0
7624,53.0,19.0,90.0,3.0,0.0
7625,45.0,15.0,60.0,14.0,0.0
7626,56.0,4.0,60.0,13.0,0.0
7627,44.0,36.0,60.0,14.0,0.0
7628,65.0,3.0,90.0,10.0,0.0
7629,65.0,5.0,90.0,1.0,0.0
7630,60.0,2.0,90.0,11.0,0.0
7631,63.0,1.0,90.0,12.0,0.0
7632,57.0,4.0,30.0,13.0,0.0
7633,53.0,3.0,90.0,3.0,0.0
7634,45.0,45.0,30.0,14.0,0.0
7635,57.0,1.0,30.0,13.0,0.0
7636,45.0,105.0,30.0,14.0,0.0
7637,65.0,3.0,90.0,10.0,0.0
7638,80.0,0.0,480.0,0.0,0.0
7639,74.0,0.0,480.0,0.0,0.0
7640,68.0,1.0,480.0,1.0,0.0
7641,74.0,0.0,480.0,1.0,0.0
7642,68.0,0.0,480.0,2.0,0.0
7643,62.0,2.0,90.0,11.0,0.0
7644,65.0,5.0,480.0,2.0,0.0
7645,62.0,115.0,90.0,12.0,0.0
7646,58.0,4.0,300.0,13.0,0.0
7647,56.0,0.0,480.0,3.0,0.0
7648,62.0,78.0,480.0,3.0,0.0
7649,46.0,25.0,300.0,14.0,0.0
7650,74.0,3.0,90.0,10.0,0.0
7651,68.0,2.0,90.0,11.0,0.0
7652,65.0,86.0,90.0,12.0,0.0
7653,74.0,3.0,90.0,10.0,0.0
7654,68.0,2.0,90.0,11.0,0.0
7655,65.0,36.0,90.0,12.0,0.0
7656,57.0,4.0,60.0,13.0,0.0
7657,45.0,56.0,60.0,14.0,0.0
7658,74.0,3.0,90.0,10.0,0.0
7659,68.0,2.0,90.0,11.0,0.0
7660,65.0,26.0,90.0,12.0,0.0
7661,58.0,4.0,60.0,13.0,0.0
7662,46.0,15.0,60.0,14.0,0.0
7663,59.0,4.0,60.0,13.0,0.0
7664,47.0,1.0,60.0,14.0,0.0
7665,75.0,3.0,90.0,10.0,0.0
7666,79.0,0.0,480.0,0.0,0.0
7667,75.0,1.0,720.0,0.0,0.0
7668,75.0,1.0,720.0,1.0,0.0
7669,67.0,1.0,480.0,1.0,0.0
7670,67.0,2.0,90.0,11.0,0.0
7671,63.0,0.0,720.0,2.0,0.0
7672,67.0,5.0,480.0,2.0,0.0
7673,63.0,115.0,90.0,12.0,0.0
7674,60.0,4.0,300.0,13.0,0.0
7675,55.0,59.0,480.0,3.0,0.0
7676,48.0,15.0,300.0,14.0,0.0
7677,75.0,3.0,90.0,10.0,0.0
7678,67.0,2.0,90.0,11.0,0.0
7679,63.0,96.0,90.0,12.0,0.0
7680,75.0,3.0,90.0,10.0,0.0
7681,67.0,2.0,90.0,11.0,0.0
7682,63.0,36.0,90.0,12.0,0.0
7683,58.0,4.0,60.0,13.0,0.0
7684,46.0,56.0,60.0,14.0,0.0
7685,75.0,3.0,90.0,10.0,0.0
7686,67.0,2.0,90.0,11.0,0.0
7687,63.0,26.0,90.0,12.0,0.0
7688,56.0,4.0,60.0,13.0,0.0
7689,44.0,15.0,60.0,14.0,0.0
7690,55.0,4.0,60.0,13.0,0.0
7691,43.0,1.0,60.0,14.0,0.0
7692,75.0,3.0,90.0,10.0,0.0
7693,77.0,0.0,480.0,0.0,0.0
7694,65.0,113.0,480.0,1.0,0.0
7695,72.0,5.0,240.0,2.0,0.0
7696,65.0,2.0,90.0,11.0,0.0
7697,60.0,36.0,90.0,12.0,0.0
7698,56.0,4.0,60.0,13.0,0.0
7699,60.0,0.0,240.0,3.0,0.0
7700,63.0,0.0,15.0,3.0,0.0
7701,44.0,15.0,60.0,14.0,0.0
7702,55.0,4.0,60.0,13.0,0.0
7703,43.0,56.0,60.0,14.0,0.0
7704,75.0,3.0,90.0,10.0,0.0
7705,72.0,2.0,90.0,11.0,0.0
7706,65.0,26.0,90.0,12.0,0.0
7707,56.0,4.0,60.0,13.0,0.0
7708,44.0,15.0,60.0,14.0,0.0
7709,57.0,4.0,60.0,13.0,0.0
7710,45.0,0.0,60.0,14.0,0.0
7711,74.0,3.0,90.0,10.0,0.0
7712,74.0,1.0,240.0,0.0,0.0
7713,74.0,1.0,240.0,1.0,0.0
7714,62.0,4.0,240.0,2.0,0.0
7715,68.0,2.0,90.0,11.0,0.0
7716,68.0,0.0,240.0,2.0,0.0
7717,65.0,36.0,90.0,12.0,0.0
7718,58.0,4.0,60.0,13.0,0.0
7719,56.0,3.0,240.0,3.0,0.0
7720,62.0,0.0,240.0,3.0,0.0
7721,46.0,15.0,60.0,14.0,0.0
7722,56.0,4.0,60.0,13.0,0.0
7723,44.0,56.0,60.0,14.0,0.0
7724,74.0,3.0,90.0,10.0,0.0
7725,68.0,2.0,90.0,11.0,0.0
7726,65.0,20.0,90.0,12.0,0.0
7727,58.0,4.0,60.0,13.0,0.0
7728,46.0,15.0,60.0,14.0,0.0
7729,46.0,1.0,60.0,13.0,0.0
7730,34.0,1.0,60.0,14.0,0.0
7731,75.0,1.0,360.0,10.0,0.0
7732,75.0,1.0,360.0,0.0,0.0
7733,63.0,1.0,360.0,1.0,0.0
7734,75.0,0.0,360.0,1.0,0.0
7735,63.0,92.0,120.0,2.0,0.0
7736,67.0,0.0,120.0,2.0,0.0
7737,63.0,5.0,360.0,11.0,0.0
7738,51.0,2.0,120.0,12.0,0.0
7739,51.0,4.0,120.0,13.0,0.0
7740,63.0,0.0,360.0,3.0,0.0
7741,51.0,12.0,360.0,3.0,0.0
7742,39.0,2.0,120.0,14.0,0.0
7743,46.0,2.0,90.0,12.0,0.0
7744,46.0,4.0,90.0,13.0,0.0
7745,34.0,14.0,90.0,14.0,0.0
7746,50.0,2.0,20.0,12.0,0.0
7747,50.0,4.0,20.0,13.0,0.0
7748,38.0,109.0,20.0,14.0,0.0
7749,63.0,0.0,360.0,4.0,0.0
7750,51.0,2.0,360.0,6.0,0.0
7751,63.0,0.0,360.0,6.0,0.0
7752,51.0,91.0,360.0,5.0,0.0
7753,51.0,2.0,360.0,12.0,0.0
7754,51.0,4.0,360.0,13.0,0.0
7755,39.0,80.0,120.0,15.0,0.0
7756,39.0,1.0,360.0,14.0,0.0
7757,70.0,1.0,90.0,10.0,0.0
7758,70.0,1.0,90.0,0.0,0.0
7759,58.0,0.0,90.0,1.0,0.0
7760,70.0,1.0,90.0,1.0,0.0
7761,58.0,5.0,90.0,11.0,0.0
7762,46.0,0.0,90.0,3.0,0.0
7763,58.0,12.0,90.0,3.0,0.0
7764,74.0,1.0,20.0,10.0,0.0
7765,74.0,1.0,20.0,0.0,0.0
7766,62.0,0.0,20.0,1.0,0.0
7767,74.0,1.0,20.0,1.0,0.0
7768,62.0,5.0,20.0,11.0,0.0
7769,62.0,0.0,20.0,3.0,0.0
7770,50.0,117.0,20.0,3.0,0.0
7771,75.0,1.0,360.0,10.0,0.0
7772,75.0,1.0,360.0,0.0,0.0
7773,63.0,0.0,360.0,1.0,0.0
7774,75.0,1.0,360.0,1.0,0.0
7775,63.0,5.0,360.0,11.0,0.0
7776,63.0,12.0,360.0,3.0,0.0
7777,51.0,0.0,360.0,3.0,0.0
7778,46.0,2.0,90.0,12.0,0.0
7779,46.0,4.0,90.0,13.0,0.0
7780,34.0,14.0,90.0,14.0,0.0
7781,50.0,2.0,20.0,12.0,0.0
7782,50.0,4.0,20.0,13.0,0.0
7783,38.0,109.0,20.0,14.0,0.0
7784,51.0,0.0,360.0,6.0,0.0
7785,63.0,1.0,360.0,4.0,0.0
7786,63.0,0.0,360.0,6.0,0.0
7787,51.0,1.0,360.0,5.0,0.0
7788,51.0,2.0,360.0,12.0,0.0
7789,51.0,1.0,360.0,13.0,0.0
7790,39.0,80.0,120.0,15.0,0.0
7791,39.0,49.0,360.0,14.0,0.0
7792,70.0,1.0,90.0,10.0,0.0
7793,70.0,1.0,90.0,0.0,0.0
7794,70.0,0.0,90.0,1.0,0.0
7795,58.0,1.0,90.0,1.0,0.0
7796,58.0,5.0,90.0,11.0,0.0
7797,58.0,0.0,90.0,3.0,0.0
7798,46.0,12.0,90.0,3.0,0.0
7799,74.0,1.0,20.0,10.0,0.0
7800,74.0,1.0,20.0,0.0,0.0
7801,74.0,0.0,20.0,1.0,0.0
7802,62.0,1.0,20.0,1.0,0.0
7803,62.0,5.0,20.0,11.0,0.0
7804,50.0,32.0,20.0,3.0,0.0
7805,62.0,0.0,20.0,3.0,0.0
7806,75.0,3.0,30.0,10.0,0.0
7807,75.0,1.0,60.0,0.0,0.0
7808,63.0,58.0,60.0,1.0,0.0
7809,75.0,0.0,60.0,1.0,0.0
7810,63.0,28.0,30.0,11.0,0.0
7811,51.0,2.0,120.0,3.0,0.0
7812,63.0,0.0,120.0,3.0,0.0
7813,39.0,1.0,120.0,15.0,0.0
7814,75.0,2.0,60.0,10.0,0.0
7815,63.0,1.0,60.0,11.0,0.0
7816,74.0,3.0,60.0,10.0,0.0
7817,62.0,47.0,60.0,11.0,0.0
7818,75.0,3.0,60.0,10.0,0.0
7819,63.0,37.0,60.0,11.0,0.0
7820,77.0,3.0,30.0,10.0,0.0
7821,77.0,1.0,60.0,0.0,0.0
7822,74.0,0.0,60.0,1.0,0.0
7823,65.0,58.0,60.0,1.0,0.0
7824,65.0,2.0,120.0,2.0,0.0
7825,65.0,28.0,30.0,11.0,0.0
7826,62.0,0.0,120.0,2.0,0.0
7827,62.0,2.0,120.0,12.0,0.0
7828,46.0,1.0,120.0,13.0,0.0
7829,46.0,3.0,120.0,3.0,0.0
7830,34.0,49.0,120.0,14.0,0.0
7831,77.0,3.0,60.0,10.0,0.0
7832,65.0,0.0,60.0,11.0,0.0
7833,75.0,3.0,60.0,10.0,0.0
7834,63.0,47.0,60.0,11.0,0.0
7835,77.0,3.0,60.0,10.0,0.0
7836,65.0,37.0,60.0,11.0,0.0
7837,79.0,3.0,30.0,10.0,0.0
7838,79.0,1.0,60.0,0.0,0.0
7839,75.0,58.0,60.0,1.0,0.0
7840,67.0,0.0,60.0,1.0,0.0
7841,67.0,28.0,30.0,11.0,0.0
7842,67.0,2.0,120.0,2.0,0.0
7843,63.0,0.0,120.0,2.0,0.0
7844,63.0,2.0,120.0,12.0,0.0
7845,51.0,1.0,120.0,13.0,0.0
7846,51.0,3.0,120.0,3.0,0.0
7847,39.0,49.0,120.0,14.0,0.0
7848,79.0,3.0,60.0,10.0,0.0
7849,67.0,0.0,60.0,11.0,0.0
7850,77.0,3.0,60.0,10.0,0.0
7851,65.0,47.0,60.0,11.0,0.0
7852,79.0,3.0,60.0,10.0,0.0
7853,67.0,37.0,60.0,11.0,0.0
7854,80.0,3.0,30.0,10.0,0.0
7855,80.0,1.0,60.0,0.0,0.0
7856,74.0,0.0,60.0,1.0,0.0
7857,68.0,58.0,60.0,1.0,0.0
7858,68.0,2.0,120.0,2.0,0.0
7859,62.0,0.0,120.0,2.0,0.0
7860,68.0,28.0,30.0,11.0,0.0
7861,58.0,2.0,120.0,12.0,0.0
7862,70.0,0.0,120.0,12.0,0.0
7863,53.0,1.0,120.0,13.0,0.0
7864,53.0,3.0,120.0,3.0,0.0
7865,41.0,49.0,120.0,14.0,0.0
7866,80.0,3.0,60.0,10.0,0.0
7867,68.0,0.0,60.0,11.0,0.0
7868,79.0,3.0,60.0,10.0,0.0
7869,67.0,47.0,60.0,11.0,0.0
7870,80.0,3.0,60.0,10.0,0.0
7871,68.0,27.0,60.0,11.0,0.0
7872,82.0,3.0,20.0,10.0,0.0
7873,82.0,1.0,480.0,0.0,0.0
7874,70.0,0.0,480.0,1.0,0.0
7875,75.0,1.0,480.0,1.0,0.0
7876,70.0,27.0,20.0,11.0,0.0
7877,63.0,0.0,120.0,2.0,0.0
7878,67.0,17.0,120.0,2.0,0.0
7879,55.0,2.0,60.0,12.0,0.0
7880,43.0,4.0,60.0,13.0,0.0
7881,55.0,0.0,480.0,3.0,0.0
7882,58.0,22.0,480.0,3.0,0.0
7883,31.0,9.0,60.0,14.0,0.0
7884,82.0,3.0,20.0,10.0,0.0
7885,70.0,12.0,20.0,11.0,0.0
7886,82.0,3.0,20.0,10.0,0.0
7887,70.0,27.0,20.0,11.0,0.0
7888,82.0,3.0,20.0,10.0,0.0
7889,70.0,10.0,20.0,11.0,0.0
7890,82.0,3.0,20.0,10.0,0.0
7891,70.0,27.0,20.0,11.0,0.0
7892,58.0,2.0,60.0,12.0,0.0
7893,46.0,4.0,60.0,13.0,0.0
7894,34.0,9.0,60.0,14.0,0.0
7895,82.0,3.0,20.0,10.0,0.0
7896,70.0,12.0,20.0,11.0,0.0
7897,82.0,3.0,20.0,10.0,0.0
7898,70.0,27.0,20.0,11.0,0.0
7899,82.0,3.0,20.0,10.0,0.0
7900,70.0,27.0,20.0,11.0,0.0
7901,82.0,3.0,20.0,10.0,0.0
7902,70.0,27.0,20.0,11.0,0.0
7903,63.0,2.0,60.0,12.0,0.0
7904,51.0,4.0,60.0,13.0,0.0
7905,39.0,9.0,60.0,14.0,0.0
7906,82.0,3.0,20.0,10.0,0.0
7907,70.0,12.0,20.0,11.0,0.0
7908,82.0,3.0,20.0,10.0,0.0
7909,70.0,27.0,20.0,11.0,0.0
7910,82.0,3.0,20.0,10.0,0.0
7911,70.0,27.0,20.0,11.0,0.0
7912,82.0,3.0,20.0,10.0,0.0
7913,70.0,27.0,20.0,11.0,0.0
7914,67.0,2.0,60.0,12.0,0.0
7915,55.0,4.0,60.0,13.0,0.0
7916,43.0,9.0,60.0,14.0,0.0
7917,82.0,3.0,20.0,10.0,0.0
7918,70.0,12.0,20.0,11.0,0.0
7919,82.0,3.0,20.0,10.0,0.0
7920,70.0,27.0,20.0,11.0,0.0
7921,82.0,1.0,20.0,10.0,0.0
7922,70.0,5.0,20.0,11.0,0.0
7923,83.0,3.0,20.0,10.0,0.0
7924,74.0,1.0,480.0,0.0,0.0
7925,83.0,0.0,480.0,0.0,0.0
7926,71.0,1.0,480.0,1.0,0.0
7927,74.0,0.0,480.0,1.0,0.0
7928,71.0,27.0,20.0,11.0,0.0
7929,53.0,2.0,60.0,12.0,0.0
7930,41.0,4.0,60.0,13.0,0.0
7931,56.0,22.0,480.0,3.0,0.0
7932,53.0,0.0,480.0,3.0,0.0
7933,29.0,9.0,60.0,14.0,0.0
7934,83.0,3.0,20.0,10.0,0.0
7935,71.0,12.0,20.0,11.0,0.0
7936,83.0,3.0,20.0,10.0,0.0
7937,71.0,27.0,20.0,11.0,0.0
7938,83.0,3.0,20.0,10.0,0.0
7939,71.0,27.0,20.0,11.0,0.0
7940,83.0,3.0,20.0,10.0,0.0
7941,71.0,27.0,20.0,11.0,0.0
7942,56.0,2.0,60.0,12.0,0.0
7943,44.0,4.0,60.0,13.0,0.0
7944,32.0,9.0,60.0,14.0,0.0
7945,83.0,3.0,20.0,10.0,0.0
7946,71.0,12.0,20.0,11.0,0.0
7947,83.0,3.0,20.0,10.0,0.0
7948,71.0,27.0,20.0,11.0,0.0
7949,83.0,3.0,20.0,10.0,0.0
7950,71.0,27.0,20.0,11.0,0.0
7951,83.0,3.0,20.0,10.0,0.0
7952,71.0,27.0,20.0,11.0,0.0
7953,62.0,2.0,60.0,12.0,0.0
7954,50.0,4.0,60.0,13.0,0.0
7955,38.0,9.0,60.0,14.0,0.0
7956,83.0,3.0,20.0,10.0,0.0
7957,71.0,12.0,20.0,11.0,0.0
7958,83.0,3.0,20.0,10.0,0.0
7959,71.0,27.0,20.0,11.0,0.0
7960,83.0,3.0,20.0,10.0,0.0
7961,71.0,27.0,20.0,11.0,0.0
7962,83.0,3.0,20.0,10.0,0.0
7963,71.0,27.0,20.0,11.0,0.0
7964,65.0,2.0,60.0,12.0,0.0
7965,53.0,4.0,60.0,13.0,0.0
7966,41.0,9.0,60.0,14.0,0.0
7967,83.0,3.0,20.0,10.0,0.0
7968,71.0,12.0,20.0,11.0,0.0
7969,83.0,3.0,20.0,10.0,0.0
7970,71.0,27.0,20.0,11.0,0.0
7971,83.0,1.0,20.0,10.0,0.0
7972,71.0,5.0,20.0,11.0,0.0
7973,84.0,3.0,20.0,10.0,0.0
7974,84.0,0.0,480.0,0.0,0.0
7975,79.0,1.0,480.0,0.0,0.0
7976,67.0,1.0,480.0,1.0,0.0
7977,72.0,0.0,480.0,1.0,0.0
7978,72.0,27.0,20.0,11.0,0.0
7979,52.0,2.0,60.0,12.0,0.0
7980,40.0,4.0,60.0,13.0,0.0
7981,52.0,22.0,480.0,3.0,0.0
7982,55.0,0.0,480.0,3.0,0.0
7983,28.0,9.0,60.0,14.0,0.0
7984,84.0,3.0,20.0,10.0,0.0
7985,72.0,12.0,20.0,11.0,0.0
7986,84.0,3.0,20.0,10.0,0.0
7987,72.0,27.0,20.0,11.0,0.0
7988,84.0,3.0,20.0,10.0,0.0
7989,72.0,27.0,20.0,11.0,0.0
7990,84.0,3.0,20.0,10.0,0.0
7991,72.0,27.0,20.0,11.0,0.0
7992,55.0,2.0,60.0,12.0,0.0
7993,43.0,4.0,60.0,13.0,0.0
7994,31.0,9.0,60.0,14.0,0.0
7995,84.0,3.0,20.0,10.0,0.0
7996,72.0,12.0,20.0,11.0,0.0
7997,84.0,3.0,20.0,10.0,0.0
7998,72.0,27.0,20.0,11.0,0.0
7999,84.0,3.0,20.0,10.0,0.0
8000,72.0,27.0,20.0,11.0,0.0
8001,84.0,3.0,20.0,10.0,0.0
8002,72.0,27.0,20.0,11.0,0.0
8003,60.0,2.0,60.0,12.0,0.0
8004,48.0,4.0,60.0,13.0,0.0
8005,36.0,9.0,60.0,14.0,0.0
8006,84.0,3.0,20.0,10.0,0.0
8007,72.0,12.0,20.0,11.0,0.0
8008,84.0,3.0,20.0,10.0,0.0
8009,72.0,27.0,20.0,11.0,0.0
8010,84.0,3.0,20.0,10.0,0.0
8011,72.0,27.0,20.0,11.0,0.0
8012,84.0,3.0,20.0,10.0,0.0
8013,72.0,27.0,20.0,11.0,0.0
8014,64.0,2.0,60.0,12.0,0.0
8015,52.0,4.0,60.0,13.0,0.0
8016,40.0,9.0,60.0,14.0,0.0
8017,84.0,3.0,20.0,10.0,0.0
8018,72.0,12.0,20.0,11.0,0.0
8019,84.0,3.0,20.0,10.0,0.0
8020,72.0,27.0,20.0,11.0,0.0
8021,84.0,1.0,20.0,10.0,0.0
8022,72.0,5.0,20.0,11.0,0.0
8023,85.0,3.0,20.0,10.0,0.0
8024,73.0,1.0,120.0,0.0,0.0
8025,85.0,0.0,120.0,0.0,0.0
8026,73.0,6.0,120.0,1.0,0.0
8027,73.0,27.0,20.0,11.0,0.0
8028,58.0,2.0,60.0,12.0,0.0
8029,46.0,4.0,60.0,13.0,0.0
8030,61.0,12.0,120.0,3.0,0.0
8031,46.0,12.0,480.0,3.0,0.0
8032,34.0,9.0,60.0,14.0,0.0
8033,85.0,3.0,20.0,10.0,0.0
8034,73.0,12.0,20.0,11.0,0.0
8035,85.0,3.0,20.0,10.0,0.0
8036,73.0,27.0,20.0,11.0,0.0
8037,85.0,3.0,20.0,10.0,0.0
8038,73.0,8.0,20.0,11.0,0.0
8039,82.0,3.0,20.0,10.0,0.0
8040,82.0,1.0,120.0,0.0,0.0
8041,70.0,6.0,120.0,1.0,0.0
8042,70.0,27.0,20.0,11.0,0.0
8043,70.0,2.0,60.0,12.0,0.0
8044,58.0,4.0,60.0,13.0,0.0
8045,58.0,12.0,120.0,3.0,0.0
8046,46.0,9.0,60.0,14.0,0.0
8047,82.0,3.0,20.0,10.0,0.0
8048,70.0,12.0,20.0,11.0,0.0
8049,82.0,3.0,20.0,10.0,0.0
8050,70.0,27.0,20.0,11.0,0.0
8051,82.0,3.0,20.0,10.0,0.0
8052,70.0,8.0,20.0,11.0,0.0
8053,79.0,3.0,20.0,10.0,0.0
8054,79.0,1.0,120.0,0.0,0.0
8055,67.0,6.0,120.0,1.0,0.0
8056,67.0,27.0,20.0,11.0,0.0
8057,70.0,2.0,60.0,12.0,0.0
8058,58.0,4.0,60.0,13.0,0.0
8059,55.0,12.0,120.0,3.0,0.0
8060,46.0,9.0,60.0,14.0,0.0
8061,79.0,3.0,20.0,10.0,0.0
8062,67.0,12.0,20.0,11.0,0.0
8063,79.0,3.0,20.0,10.0,0.0
8064,67.0,27.0,20.0,11.0,0.0
8065,79.0,3.0,20.0,10.0,0.0
8066,67.0,8.0,20.0,11.0,0.0
8067,76.0,3.0,20.0,10.0,0.0
8068,76.0,1.0,120.0,0.0,0.0
8069,64.0,1.0,120.0,1.0,0.0
8070,64.0,27.0,20.0,11.0,0.0
8071,70.0,2.0,60.0,12.0,0.0
8072,58.0,4.0,60.0,13.0,0.0
8073,52.0,10.0,120.0,3.0,0.0
8074,46.0,9.0,60.0,14.0,0.0
8075,76.0,3.0,20.0,10.0,0.0
8076,64.0,12.0,20.0,11.0,0.0
8077,76.0,3.0,20.0,10.0,0.0
8078,64.0,27.0,20.0,11.0,0.0
8079,76.0,1.0,20.0,10.0,0.0
8080,64.0,5.0,20.0,11.0,0.0
8081,77.0,3.0,20.0,10.0,0.0
8082,77.0,1.0,480.0,0.0,0.0
8083,72.0,0.0,480.0,0.0,0.0
8084,72.0,0.0,480.0,1.0,0.0
8085,65.0,18.0,480.0,1.0,0.0
8086,65.0,27.0,20.0,11.0,0.0
8087,56.0,2.0,60.0,12.0,0.0
8088,44.0,4.0,60.0,13.0,0.0
8089,44.0,0.0,120.0,3.0,0.0
8090,53.0,22.0,120.0,3.0,0.0
8091,32.0,9.0,60.0,14.0,0.0
8092,77.0,3.0,20.0,10.0,0.0
8093,77.0,12.0,20.0,11.0,0.0
8094,77.0,3.0,20.0,10.0,0.0
8095,77.0,27.0,20.0,11.0,0.0
8096,77.0,3.0,20.0,10.0,0.0
8097,77.0,5.0,20.0,11.0,0.0
8098,77.0,3.0,20.0,10.0,0.0
8099,77.0,27.0,20.0,11.0,0.0
8100,68.0,2.0,60.0,12.0,0.0
8101,56.0,4.0,60.0,13.0,0.0
8102,56.0,22.0,120.0,3.0,0.0
8103,60.0,0.0,120.0,3.0,0.0
8104,44.0,9.0,60.0,14.0,0.0
8105,77.0,3.0,20.0,10.0,0.0
8106,77.0,12.0,20.0,11.0,0.0
8107,77.0,3.0,20.0,10.0,0.0
8108,77.0,27.0,20.0,11.0,0.0
8109,77.0,3.0,20.0,10.0,0.0
8110,77.0,5.0,20.0,11.0,0.0
8111,77.0,3.0,20.0,10.0,0.0
8112,77.0,27.0,20.0,11.0,0.0
8113,68.0,2.0,60.0,12.0,0.0
8114,56.0,4.0,60.0,13.0,0.0
8115,60.0,0.0,120.0,3.0,0.0
8116,56.0,22.0,120.0,3.0,0.0
8117,44.0,9.0,60.0,14.0,0.0
8118,77.0,3.0,20.0,10.0,0.0
8119,77.0,12.0,20.0,11.0,0.0
8120,77.0,3.0,20.0,10.0,0.0
8121,77.0,27.0,20.0,11.0,0.0
8122,77.0,3.0,20.0,10.0,0.0
8123,77.0,5.0,20.0,11.0,0.0
8124,77.0,3.0,20.0,10.0,0.0
8125,77.0,27.0,20.0,11.0,0.0
8126,68.0,2.0,60.0,12.0,0.0
8127,56.0,4.0,60.0,13.0,0.0
8128,60.0,0.0,120.0,3.0,0.0
8129,56.0,3.0,120.0,3.0,0.0
8130,44.0,9.0,60.0,14.0,0.0
8131,77.0,3.0,20.0,10.0,0.0
8132,77.0,12.0,20.0,11.0,0.0
8133,77.0,3.0,20.0,10.0,0.0
8134,77.0,27.0,20.0,11.0,0.0
8135,77.0,3.0,20.0,10.0,0.0
8136,77.0,5.0,20.0,11.0,0.0
8137,78.0,3.0,20.0,10.0,0.0
8138,78.0,1.0,120.0,0.0,0.0
8139,78.0,6.0,120.0,1.0,0.0
8140,78.0,27.0,20.0,11.0,0.0
8141,57.0,2.0,60.0,12.0,0.0
8142,45.0,4.0,60.0,13.0,0.0
8143,57.0,12.0,120.0,3.0,0.0
8144,60.0,0.0,120.0,3.0,0.0
8145,33.0,9.0,60.0,14.0,0.0
8146,78.0,3.0,20.0,10.0,0.0
8147,78.0,12.0,20.0,11.0,0.0
8148,78.0,3.0,20.0,10.0,0.0
8149,78.0,27.0,20.0,11.0,0.0
8150,78.0,3.0,20.0,10.0,0.0
8151,78.0,8.0,20.0,11.0,0.0
8152,75.0,3.0,20.0,10.0,0.0
8153,75.0,1.0,120.0,0.0,0.0
8154,75.0,6.0,120.0,1.0,0.0
8155,75.0,27.0,20.0,11.0,0.0
8156,63.0,2.0,60.0,12.0,0.0
8157,51.0,4.0,60.0,13.0,0.0
8158,51.0,12.0,120.0,3.0,0.0
8159,63.0,0.0,120.0,3.0,0.0
8160,39.0,9.0,60.0,14.0,0.0
8161,75.0,3.0,20.0,10.0,0.0
8162,75.0,12.0,20.0,11.0,0.0
8163,75.0,3.0,20.0,10.0,0.0
8164,75.0,27.0,20.0,11.0,0.0
8165,75.0,3.0,20.0,10.0,0.0
8166,75.0,8.0,20.0,11.0,0.0
8167,72.0,3.0,20.0,10.0,0.0
8168,72.0,1.0,120.0,0.0,0.0
8169,84.0,0.0,120.0,0.0,0.0
8170,72.0,6.0,120.0,1.0,0.0
8171,72.0,27.0,20.0,11.0,0.0
8172,60.0,2.0,60.0,12.0,0.0
8173,48.0,4.0,60.0,13.0,0.0
8174,60.0,0.0,120.0,3.0,0.0
8175,48.0,12.0,120.0,3.0,0.0
8176,36.0,9.0,60.0,14.0,0.0
8177,72.0,3.0,20.0,10.0,0.0
8178,72.0,12.0,20.0,11.0,0.0
8179,72.0,3.0,20.0,10.0,0.0
8180,72.0,27.0,20.0,11.0,0.0
8181,72.0,3.0,20.0,10.0,0.0
8182,72.0,8.0,20.0,11.0,0.0
8183,69.0,3.0,20.0,10.0,0.0
8184,69.0,1.0,120.0,0.0,0.0
8185,81.0,0.0,120.0,0.0,0.0
8186,69.0,1.0,120.0,1.0,0.0
8187,69.0,27.0,20.0,11.0,0.0
8188,57.0,2.0,60.0,12.0,0.0
8189,45.0,4.0,60.0,13.0,0.0
8190,45.0,22.0,120.0,3.0,0.0
8191,57.0,0.0,120.0,3.0,0.0
8192,33.0,9.0,60.0,14.0,0.0
8193,69.0,3.0,20.0,10.0,0.0
8194,69.0,12.0,20.0,11.0,0.0
8195,69.0,3.0,20.0,10.0,0.0
8196,69.0,27.0,20.0,11.0,0.0
8197,69.0,1.0,20.0,10.0,0.0
8198,69.0,5.0,20.0,11.0,0.0
8199,70.0,3.0,20.0,10.0,0.0
8200,82.0,1.0,240.0,0.0,0.0
8201,70.0,0.0,240.0,0.0,0.0
8202,70.0,1.0,240.0,1.0,0.0
8203,70.0,27.0,20.0,11.0,0.0
8204,58.0,0.0,240.0,2.0,0.0
8205,70.0,2.0,240.0,2.0,0.0
8206,58.0,2.0,60.0,12.0,0.0
8207,46.0,4.0,60.0,13.0,0.0
8208,46.0,3.0,240.0,3.0,0.0
8209,58.0,0.0,240.0,3.0,0.0
8210,34.0,19.0,60.0,14.0,0.0
8211,70.0,3.0,20.0,10.0,0.0
8212,70.0,2.0,20.0,11.0,0.0
8213,70.0,3.0,20.0,10.0,0.0
8214,70.0,27.0,20.0,11.0,0.0
8215,58.0,2.0,60.0,12.0,0.0
8216,46.0,4.0,60.0,13.0,0.0
8217,34.0,19.0,60.0,14.0,0.0
8218,70.0,3.0,20.0,10.0,0.0
8219,70.0,2.0,20.0,11.0,0.0
8220,70.0,3.0,20.0,10.0,0.0
8221,70.0,27.0,20.0,11.0,0.0
8222,58.0,2.0,60.0,12.0,0.0
8223,46.0,4.0,60.0,13.0,0.0
8224,34.0,19.0,60.0,14.0,0.0
8225,70.0,3.0,20.0,10.0,0.0
8226,70.0,2.0,20.0,11.0,0.0
8227,70.0,3.0,20.0,10.0,0.0
8228,70.0,27.0,20.0,11.0,0.0
8229,58.0,2.0,60.0,12.0,0.0
8230,46.0,1.0,60.0,13.0,0.0
8231,34.0,19.0,60.0,14.0,0.0
8232,70.0,1.0,20.0,10.0,0.0
8233,70.0,0.0,20.0,11.0,0.0
8234,72.0,3.0,20.0,10.0,0.0
8235,72.0,0.0,240.0,0.0,0.0
8236,84.0,1.0,240.0,0.0,0.0
8237,60.0,0.0,240.0,4.0,0.0
8238,72.0,0.0,240.0,6.0,0.0
8239,60.0,2.0,240.0,6.0,0.0
8240,72.0,1.0,240.0,1.0,0.0
8241,72.0,27.0,20.0,11.0,0.0
8242,72.0,0.0,240.0,2.0,0.0
8243,60.0,0.0,240.0,2.0,0.0
8244,48.0,16.0,240.0,5.0,0.0
8245,60.0,2.0,60.0,12.0,0.0
8246,48.0,4.0,60.0,13.0,0.0
8247,60.0,3.0,240.0,3.0,0.0
8248,48.0,0.0,240.0,3.0,0.0
8249,36.0,19.0,60.0,14.0,0.0
8250,72.0,3.0,20.0,10.0,0.0
8251,72.0,2.0,20.0,11.0,0.0
8252,72.0,3.0,20.0,10.0,0.0
8253,72.0,27.0,20.0,11.0,0.0
8254,60.0,2.0,60.0,12.0,0.0
8255,48.0,4.0,60.0,13.0,0.0
8256,36.0,19.0,60.0,14.0,0.0
8257,72.0,3.0,20.0,10.0,0.0
8258,72.0,2.0,20.0,11.0,0.0
8259,72.0,3.0,20.0,10.0,0.0
8260,72.0,27.0,20.0,11.0,0.0
8261,60.0,2.0,60.0,12.0,0.0
8262,48.0,4.0,60.0,13.0,0.0
8263,36.0,19.0,60.0,14.0,0.0
8264,72.0,3.0,20.0,10.0,0.0
8265,72.0,2.0,20.0,11.0,0.0
8266,72.0,3.0,20.0,10.0,0.0
8267,72.0,27.0,20.0,11.0,0.0
8268,60.0,2.0,60.0,12.0,0.0
8269,48.0,1.0,60.0,13.0,0.0
8270,36.0,1.0,60.0,14.0,0.0
8271,72.0,1.0,20.0,10.0,0.0
8272,72.0,2.0,20.0,11.0,0.0
8273,68.0,3.0,20.0,10.0,0.0
8274,80.0,1.0,240.0,0.0,0.0
8275,68.0,0.0,240.0,0.0,0.0
8276,68.0,0.0,240.0,6.0,0.0
8277,56.0,2.0,240.0,4.0,0.0
8278,56.0,0.0,240.0,6.0,0.0
8279,68.0,1.0,240.0,1.0,0.0
8280,56.0,0.0,240.0,2.0,0.0
8281,68.0,27.0,20.0,11.0,0.0
8282,68.0,2.0,240.0,2.0,0.0
8283,44.0,16.0,240.0,5.0,0.0
8284,56.0,2.0,60.0,12.0,0.0
8285,44.0,4.0,60.0,13.0,0.0
8286,44.0,3.0,240.0,3.0,0.0
8287,56.0,0.0,240.0,3.0,0.0
8288,32.0,19.0,60.0,14.0,0.0
8289,68.0,3.0,20.0,10.0,0.0
8290,68.0,2.0,20.0,11.0,0.0
8291,68.0,3.0,20.0,10.0,0.0
8292,68.0,27.0,20.0,11.0,0.0
8293,56.0,2.0,60.0,12.0,0.0
8294,44.0,4.0,60.0,13.0,0.0
8295,32.0,19.0,60.0,14.0,0.0
8296,68.0,3.0,20.0,10.0,0.0
8297,68.0,2.0,20.0,11.0,0.0
8298,68.0,3.0,20.0,10.0,0.0
8299,68.0,27.0,20.0,11.0,0.0
8300,56.0,2.0,60.0,12.0,0.0
8301,44.0,4.0,60.0,13.0,0.0
8302,32.0,19.0,60.0,14.0,0.0
8303,68.0,3.0,20.0,10.0,0.0
8304,68.0,2.0,20.0,11.0,0.0
8305,68.0,3.0,20.0,10.0,0.0
8306,68.0,27.0,20.0,11.0,0.0
8307,56.0,2.0,60.0,12.0,0.0
8308,44.0,1.0,60.0,13.0,0.0
8309,32.0,1.0,60.0,14.0,0.0
8310,68.0,1.0,20.0,10.0,0.0
8311,68.0,0.0,20.0,11.0,0.0
8312,70.0,3.0,20.0,10.0,0.0
8313,70.0,0.0,240.0,0.0,0.0
8314,82.0,1.0,240.0,0.0,0.0
8315,58.0,0.0,240.0,4.0,0.0
8316,70.0,1.0,240.0,1.0,0.0
8317,70.0,2.0,240.0,6.0,0.0
8318,70.0,0.0,240.0,2.0,0.0
8319,70.0,27.0,20.0,11.0,0.0
8320,58.0,0.0,240.0,2.0,0.0
8321,58.0,59.0,240.0,5.0,0.0
8322,58.0,2.0,60.0,12.0,0.0
8323,46.0,4.0,60.0,13.0,0.0
8324,46.0,0.0,240.0,3.0,0.0
8325,58.0,3.0,240.0,3.0,0.0
8326,34.0,19.0,60.0,14.0,0.0
8327,70.0,3.0,20.0,10.0,0.0
8328,70.0,2.0,20.0,11.0,0.0
8329,70.0,3.0,20.0,10.0,0.0
8330,70.0,27.0,20.0,11.0,0.0
8331,58.0,2.0,60.0,12.0,0.0
8332,46.0,4.0,60.0,13.0,0.0
8333,34.0,19.0,60.0,14.0,0.0
8334,70.0,3.0,20.0,10.0,0.0
8335,70.0,2.0,20.0,11.0,0.0
8336,70.0,3.0,20.0,10.0,0.0
8337,70.0,27.0,20.0,11.0,0.0
8338,58.0,2.0,60.0,12.0,0.0
8339,46.0,4.0,60.0,13.0,0.0
8340,34.0,19.0,60.0,14.0,0.0
8341,70.0,3.0,20.0,10.0,0.0
8342,70.0,2.0,20.0,11.0,0.0
8343,70.0,3.0,20.0,10.0,0.0
8344,70.0,27.0,20.0,11.0,0.0
8345,58.0,2.0,60.0,12.0,0.0
8346,46.0,1.0,60.0,13.0,0.0
8347,34.0,1.0,60.0,14.0,0.0
8348,70.0,1.0,20.0,10.0,0.0
8349,70.0,2.0,20.0,11.0,0.0
8350,63.0,1.0,120.0,10.0,0.0
8351,75.0,1.0,120.0,0.0,0.0
8352,63.0,0.0,120.0,0.0,0.0
8353,51.0,1.0,840.0,4.0,0.0
8354,63.0,1.0,120.0,6.0,0.0
8355,63.0,6.0,120.0,1.0,0.0
8356,63.0,49.0,60.0,11.0,0.0
8357,63.0,0.0,120.0,2.0,0.0
8358,51.0,0.0,120.0,2.0,0.0
8359,39.0,59.0,840.0,5.0,0.0
8360,51.0,2.0,120.0,12.0,0.0
8361,39.0,3.0,120.0,13.0,0.0
8362,51.0,0.0,120.0,3.0,0.0
8363,39.0,2.0,120.0,3.0,0.0
8364,39.0,1.0,120.0,15.0,0.0
8365,27.0,52.0,120.0,14.0,0.0
8366,51.0,2.0,60.0,11.0,0.0
8367,72.0,6.0,120.0,1.0,0.0
8368,68.0,0.0,120.0,1.0,0.0
8369,63.0,50.0,60.0,11.0,0.0
8370,60.0,55.0,120.0,3.0,0.0
8371,56.0,0.0,120.0,3.0,0.0
8372,51.0,9.0,60.0,11.0,0.0
8373,70.0,1.0,120.0,1.0,0.0
8374,67.0,0.0,120.0,1.0,0.0
8375,63.0,59.0,60.0,11.0,0.0
8376,58.0,0.0,120.0,3.0,0.0
8377,55.0,55.0,120.0,3.0,0.0
8378,51.0,5.0,60.0,11.0,0.0
8379,74.0,2.0,120.0,10.0,0.0
8380,65.0,0.0,120.0,1.0,0.0
8381,68.0,6.0,120.0,1.0,0.0
8382,63.0,50.0,60.0,11.0,0.0
8383,53.0,55.0,120.0,3.0,0.0
8384,56.0,0.0,120.0,3.0,0.0
8385,51.0,7.0,60.0,11.0,0.0
8386,75.0,3.0,180.0,10.0,0.0
8387,67.0,1.0,120.0,1.0,0.0
8388,63.0,0.0,120.0,1.0,0.0
8389,63.0,59.0,60.0,11.0,0.0
8390,51.0,52.0,120.0,3.0,0.0
8391,55.0,0.0,120.0,3.0,0.0
8392,51.0,5.0,60.0,11.0,0.0
8393,68.0,0.0,120.0,1.0,0.0
8394,65.0,6.0,120.0,1.0,0.0
8395,63.0,27.0,60.0,11.0,0.0
8396,56.0,52.0,120.0,3.0,0.0
8397,53.0,0.0,120.0,3.0,0.0
8398,74.0,20.0,30.0,10.0,0.0
8399,51.0,9.0,60.0,11.0,0.0
8400,72.0,3.0,20.0,10.0,0.0
8401,70.0,3.0,60.0,10.0,0.0
8402,70.0,0.0,120.0,1.0,0.0
8403,67.0,6.0,120.0,1.0,0.0
8404,63.0,49.0,60.0,11.0,0.0
8405,58.0,0.0,120.0,3.0,0.0
8406,55.0,4.0,120.0,3.0,0.0
8407,51.0,1.0,60.0,11.0,0.0
8408,68.0,1.0,120.0,10.0,0.0
8409,86.0,1.0,120.0,0.0,0.0
8410,74.0,0.0,120.0,0.0,0.0
8411,68.0,1.0,120.0,1.0,0.0
8412,58.0,0.0,120.0,4.0,0.0
8413,74.0,0.0,120.0,1.0,0.0
8414,62.0,50.0,60.0,11.0,0.0
8415,74.0,1.0,120.0,2.0,0.0
8416,62.0,0.0,120.0,2.0,0.0
8417,58.0,1.0,120.0,5.0,0.0
8418,58.0,2.0,120.0,12.0,0.0
8419,46.0,1.0,120.0,13.0,0.0
8420,56.0,3.0,120.0,3.0,0.0
8421,53.0,0.0,120.0,3.0,0.0
8422,34.0,52.0,120.0,14.0,0.0
8423,53.0,7.0,60.0,11.0,0.0
8424,67.0,1.0,120.0,10.0,0.0
8425,87.0,1.0,120.0,0.0,0.0
8426,75.0,0.0,120.0,0.0,0.0
8427,63.0,1.0,120.0,1.0,0.0
8428,75.0,0.0,120.0,1.0,0.0
8429,51.0,1.0,840.0,4.0,0.0
8430,63.0,2.0,120.0,2.0,0.0
8431,75.0,0.0,120.0,2.0,0.0
8432,63.0,57.0,60.0,11.0,0.0
8433,39.0,59.0,840.0,5.0,0.0
8434,63.0,2.0,120.0,12.0,0.0
8435,51.0,1.0,120.0,13.0,0.0
8436,55.0,2.0,120.0,3.0,0.0
8437,51.0,0.0,120.0,3.0,0.0
8438,39.0,1.0,120.0,15.0,0.0
8439,39.0,52.0,120.0,14.0,0.0
8440,51.0,0.0,60.0,11.0,0.0
8441,72.0,6.0,120.0,1.0,0.0
8442,68.0,0.0,120.0,1.0,0.0
8443,63.0,50.0,60.0,11.0,0.0
8444,60.0,55.0,120.0,3.0,0.0
8445,56.0,0.0,120.0,3.0,0.0
8446,51.0,9.0,60.0,11.0,0.0
8447,67.0,0.0,120.0,1.0,0.0
8448,70.0,1.0,120.0,1.0,0.0
8449,63.0,59.0,60.0,11.0,0.0
8450,58.0,0.0,120.0,3.0,0.0
8451,55.0,55.0,120.0,3.0,0.0
8452,51.0,5.0,60.0,11.0,0.0
8453,74.0,2.0,120.0,10.0,0.0
8454,65.0,6.0,120.0,1.0,0.0
8455,68.0,0.0,120.0,1.0,0.0
8456,63.0,50.0,60.0,11.0,0.0
8457,56.0,0.0,120.0,3.0,0.0
8458,53.0,55.0,120.0,3.0,0.0
8459,51.0,7.0,60.0,11.0,0.0
8460,75.0,3.0,180.0,10.0,0.0
8461,67.0,0.0,120.0,1.0,0.0
8462,63.0,1.0,120.0,1.0,0.0
8463,63.0,59.0,60.0,11.0,0.0
8464,51.0,0.0,120.0,3.0,0.0
8465,55.0,52.0,120.0,3.0,0.0
8466,51.0,5.0,60.0,11.0,0.0
8467,68.0,0.0,120.0,1.0,0.0
8468,65.0,6.0,120.0,1.0,0.0
8469,63.0,27.0,60.0,11.0,0.0
8470,56.0,0.0,120.0,3.0,0.0
8471,53.0,52.0,120.0,3.0,0.0
8472,74.0,20.0,30.0,10.0,0.0
8473,51.0,9.0,60.0,11.0,0.0
8474,72.0,3.0,20.0,10.0,0.0
8475,70.0,3.0,60.0,10.0,0.0
8476,70.0,6.0,120.0,1.0,0.0
8477,67.0,0.0,120.0,1.0,0.0
8478,63.0,49.0,60.0,11.0,0.0
8479,58.0,4.0,120.0,3.0,0.0
8480,55.0,0.0,120.0,3.0,0.0
8481,51.0,1.0,60.0,11.0,0.0
8482,74.0,1.0,120.0,10.0,0.0
8483,86.0,0.0,120.0,0.0,0.0
8484,74.0,1.0,120.0,0.0,0.0
8485,65.0,0.0,120.0,1.0,0.0
8486,58.0,1.0,120.0,4.0,0.0
8487,68.0,0.0,120.0,1.0,0.0
8488,70.0,0.0,120.0,6.0,0.0
8489,62.0,0.0,120.0,2.0,0.0
8490,62.0,50.0,60.0,11.0,0.0
8491,74.0,1.0,120.0,2.0,0.0
8492,58.0,1.0,120.0,5.0,0.0
8493,58.0,2.0,120.0,12.0,0.0
8494,46.0,1.0,120.0,13.0,0.0
8495,53.0,0.0,120.0,3.0,0.0
8496,56.0,3.0,120.0,3.0,0.0
8497,34.0,51.0,120.0,14.0,0.0
8498,53.0,7.0,60.0,11.0,0.0
8499,75.0,1.0,180.0,10.0,0.0
8500,87.0,2.0,180.0,0.0,0.0
8501,75.0,1.0,120.0,0.0,0.0
8502,63.0,1.0,120.0,6.0,0.0
8503,67.0,0.0,60.0,1.0,0.0
8504,63.0,1.0,60.0,1.0,0.0
8505,51.0,1.0,360.0,4.0,0.0
8506,63.0,5.0,60.0,11.0,0.0
8507,63.0,0.0,180.0,2.0,0.0
8508,75.0,27.0,180.0,2.0,0.0
8509,39.0,4.0,360.0,5.0,0.0
8510,63.0,2.0,120.0,12.0,0.0
8511,51.0,3.0,120.0,13.0,0.0
8512,55.0,53.0,60.0,3.0,0.0
8513,51.0,0.0,60.0,3.0,0.0
8514,39.0,1.0,120.0,15.0,0.0
8515,39.0,49.0,120.0,14.0,0.0
8516,51.0,2.0,60.0,11.0,0.0
8517,68.0,6.0,120.0,1.0,0.0
8518,72.0,0.0,120.0,1.0,0.0
8519,63.0,0.0,60.0,11.0,0.0
8520,56.0,0.0,120.0,3.0,0.0
8521,60.0,52.0,120.0,3.0,0.0
8522,74.0,1.0,30.0,10.0,0.0
8523,86.0,2.0,30.0,0.0,0.0
8524,51.0,0.0,60.0,11.0,0.0
8525,74.0,17.0,30.0,2.0,0.0
8526,62.0,0.0,30.0,2.0,0.0
8527,72.0,1.0,20.0,10.0,0.0
8528,84.0,2.0,20.0,0.0,0.0
8529,72.0,9.0,20.0,2.0,0.0
8530,60.0,0.0,20.0,2.0,0.0
8531,70.0,1.0,60.0,10.0,0.0
8532,82.0,2.0,60.0,0.0,0.0
8533,67.0,0.0,120.0,1.0,0.0
8534,70.0,0.0,120.0,1.0,0.0
8535,58.0,0.0,60.0,2.0,0.0
8536,70.0,59.0,60.0,2.0,0.0
8537,63.0,0.0,60.0,11.0,0.0
8538,58.0,0.0,120.0,3.0,0.0
8539,55.0,55.0,120.0,3.0,0.0
8540,51.0,1.0,60.0,11.0,0.0
8541,74.0,1.0,120.0,10.0,0.0
8542,80.0,1.0,120.0,0.0,0.0
8543,86.0,0.0,120.0,0.0,0.0
8544,65.0,0.0,120.0,1.0,0.0
8545,68.0,0.0,120.0,1.0,0.0
8546,70.0,1.0,120.0,6.0,0.0
8547,58.0,0.0,120.0,4.0,0.0
8548,56.0,50.0,60.0,11.0,0.0
8549,62.0,0.0,120.0,2.0,0.0
8550,74.0,1.0,120.0,2.0,0.0
8551,58.0,1.0,120.0,5.0,0.0
8552,58.0,2.0,120.0,12.0,0.0
8553,46.0,1.0,120.0,13.0,0.0
8554,56.0,3.0,120.0,3.0,0.0
8555,53.0,0.0,120.0,3.0,0.0
8556,34.0,51.0,120.0,14.0,0.0
8557,58.0,7.0,60.0,11.0,0.0
8558,75.0,1.0,180.0,10.0,0.0
8559,87.0,2.0,180.0,0.0,0.0
8560,79.0,1.0,120.0,0.0,0.0
8561,51.0,2.0,360.0,4.0,0.0
8562,67.0,1.0,60.0,1.0,0.0
8563,63.0,0.0,60.0,1.0,0.0
8564,63.0,1.0,120.0,6.0,0.0
8565,55.0,5.0,60.0,11.0,0.0
8566,75.0,27.0,180.0,2.0,0.0
8567,63.0,0.0,180.0,2.0,0.0
8568,39.0,4.0,360.0,5.0,0.0
8569,63.0,2.0,120.0,12.0,0.0
8570,51.0,3.0,120.0,13.0,0.0
8571,55.0,53.0,60.0,3.0,0.0
8572,51.0,0.0,60.0,3.0,0.0
8573,39.0,1.0,120.0,15.0,0.0
8574,39.0,49.0,120.0,14.0,0.0
8575,51.0,2.0,60.0,11.0,0.0
8576,72.0,0.0,120.0,1.0,0.0
8577,68.0,1.0,120.0,1.0,0.0
8578,63.0,0.0,60.0,11.0,0.0
8579,56.0,0.0,120.0,3.0,0.0
8580,60.0,52.0,120.0,3.0,0.0
8581,74.0,1.0,30.0,10.0,0.0
8582,86.0,2.0,30.0,0.0,0.0
8583,62.0,0.0,30.0,2.0,0.0
8584,74.0,17.0,30.0,2.0,0.0
8585,51.0,0.0,60.0,11.0,0.0
8586,72.0,11.0,20.0,10.0,0.0
8587,84.0,1.0,30.0,0.0,0.0
8588,60.0,0.0,30.0,2.0,0.0
8589,72.0,5.0,30.0,2.0,0.0
8590,70.0,1.0,60.0,10.0,0.0
8591,82.0,2.0,60.0,0.0,0.0
8592,70.0,0.0,120.0,1.0,0.0
8593,67.0,0.0,120.0,1.0,0.0
8594,70.0,0.0,60.0,2.0,0.0
8595,58.0,50.0,60.0,2.0,0.0
8596,63.0,0.0,60.0,11.0,0.0
8597,55.0,0.0,120.0,3.0,0.0
8598,58.0,52.0,120.0,3.0,0.0
8599,51.0,9.0,60.0,11.0,0.0
8600,58.0,3.0,60.0,10.0,0.0
8601,86.0,0.0,120.0,0.0,0.0
8602,80.0,1.0,120.0,0.0,0.0
8603,68.0,2.0,120.0,1.0,0.0
8604,65.0,0.0,120.0,1.0,0.0
8605,70.0,0.0,120.0,6.0,0.0
8606,62.0,0.0,60.0,2.0,0.0
8607,74.0,0.0,60.0,2.0,0.0
8608,68.0,0.0,60.0,11.0,0.0
8609,58.0,2.0,60.0,11.0,0.0
8610,58.0,4.0,120.0,5.0,0.0
8611,58.0,2.0,60.0,12.0,0.0
8612,46.0,3.0,60.0,13.0,0.0
8613,53.0,0.0,120.0,3.0,0.0
8614,56.0,3.0,120.0,3.0,0.0
8615,74.0,51.0,60.0,10.0,0.0
8616,65.0,0.0,60.0,10.0,0.0
8617,34.0,49.0,120.0,14.0,0.0
8618,58.0,0.0,60.0,10.0,0.0
8619,51.0,3.0,60.0,10.0,0.0
8620,87.0,1.0,480.0,0.0,0.0
8621,79.0,1.0,120.0,0.0,0.0
8622,63.0,8.0,120.0,1.0,0.0
8623,63.0,0.0,120.0,6.0,0.0
8624,58.0,0.0,15.0,4.0,0.0
8625,67.0,0.0,120.0,1.0,0.0
8626,51.0,2.0,60.0,11.0,0.0
8627,63.0,0.0,480.0,2.0,0.0
8628,75.0,1.0,480.0,2.0,0.0
8629,63.0,2.0,60.0,12.0,0.0
8630,51.0,0.0,60.0,12.0,0.0
8631,51.0,3.0,60.0,13.0,0.0
8632,55.0,233.0,240.0,3.0,0.0
8633,39.0,112.0,120.0,15.0,0.0
8634,67.0,0.0,60.0,10.0,0.0
8635,75.0,1.0,60.0,10.0,0.0
8636,39.0,2.0,60.0,14.0,0.0
8637,67.0,48.0,60.0,11.0,0.0
8638,58.0,0.0,60.0,11.0,0.0
8639,75.0,0.0,240.0,1.0,0.0
8640,51.0,4.0,15.0,5.0,0.0
8641,51.0,0.0,15.0,3.0,0.0
8642,63.0,0.0,240.0,3.0,0.0
8643,85.0,1.0,240.0,0.0,0.0
8644,73.0,0.0,240.0,1.0,0.0
8645,63.0,1.0,15.0,4.0,0.0
8646,61.0,0.0,240.0,2.0,0.0
8647,73.0,1.0,240.0,2.0,0.0
8648,49.0,0.0,240.0,3.0,0.0
8649,61.0,233.0,240.0,3.0,0.0
8650,82.0,1.0,240.0,0.0,0.0
8651,63.0,1.0,15.0,4.0,0.0
8652,70.0,1.0,240.0,1.0,0.0
8653,58.0,0.0,240.0,2.0,0.0
8654,70.0,1.0,240.0,2.0,0.0
8655,51.0,4.0,15.0,5.0,0.0
8656,58.0,112.0,240.0,3.0,0.0
8657,46.0,0.0,240.0,3.0,0.0
8658,51.0,3.0,120.0,10.0,0.0
8659,79.0,1.0,240.0,0.0,0.0
8660,67.0,1.0,240.0,1.0,0.0
8661,63.0,0.0,960.0,4.0,0.0
8662,55.0,5.0,240.0,2.0,0.0
8663,51.0,2.0,120.0,11.0,0.0
8664,67.0,0.0,240.0,2.0,0.0
8665,51.0,4.0,15.0,5.0,0.0
8666,51.0,2.0,120.0,12.0,0.0
8667,61.0,0.0,120.0,12.0,0.0
8668,39.0,3.0,120.0,13.0,0.0
8669,43.0,0.0,240.0,3.0,0.0
8670,55.0,233.0,240.0,3.0,0.0
8671,67.0,0.0,120.0,10.0,0.0
8672,58.0,1.0,120.0,10.0,0.0
8673,27.0,2.0,120.0,14.0,0.0
8674,58.0,0.0,120.0,11.0,0.0
8675,67.0,108.0,120.0,11.0,0.0
8676,75.0,1.0,240.0,0.0,0.0
8677,63.0,1.0,240.0,1.0,0.0
8678,75.0,0.0,240.0,1.0,0.0
8679,63.0,5.0,240.0,2.0,0.0
8680,51.0,233.0,240.0,3.0,0.0
8681,39.0,0.0,240.0,3.0,0.0
8682,73.0,1.0,240.0,0.0,0.0
8683,73.0,1.0,240.0,1.0,0.0
8684,61.0,0.0,240.0,1.0,0.0
8685,61.0,5.0,240.0,2.0,0.0
8686,37.0,0.0,240.0,3.0,0.0
8687,49.0,233.0,240.0,3.0,0.0
8688,70.0,1.0,240.0,0.0,0.0
8689,58.0,0.0,240.0,1.0,0.0
8690,70.0,1.0,240.0,1.0,0.0
8691,58.0,1.0,240.0,2.0,0.0
8692,34.0,327.0,240.0,3.0,0.0
8693,46.0,0.0,240.0,3.0,0.0
8694,65.0,3.0,330.0,10.0,0.0
8695,77.0,0.0,330.0,10.0,0.0
8696,77.0,0.0,360.0,0.0,0.0
8697,72.0,1.0,360.0,0.0,0.0
8698,65.0,0.0,360.0,1.0,0.0
8699,60.0,0.0,360.0,1.0,0.0
8700,60.0,0.0,360.0,4.0,0.0
8701,72.0,1.0,360.0,6.0,0.0
8702,60.0,0.0,360.0,6.0,0.0
8703,65.0,0.0,330.0,11.0,0.0
8704,60.0,1.0,360.0,2.0,0.0
8705,60.0,2.0,330.0,11.0,0.0
8706,57.0,0.0,330.0,11.0,0.0
8707,65.0,0.0,360.0,2.0,0.0
8708,48.0,4.0,360.0,5.0,0.0
8709,57.0,2.0,330.0,12.0,0.0
8710,45.0,4.0,330.0,13.0,0.0
8711,45.0,82.0,360.0,3.0,0.0
8712,33.0,15.0,330.0,14.0,0.0
8713,72.0,20.0,90.0,10.0,0.0
8714,76.0,40.0,20.0,10.0,0.0
8715,77.0,60.0,30.0,10.0,0.0
8716,77.0,60.0,30.0,10.0,0.0
8717,72.0,60.0,30.0,10.0,0.0
8718,76.0,60.0,30.0,10.0,0.0
8719,77.0,60.0,30.0,10.0,0.0
8720,77.0,60.0,30.0,10.0,0.0
8721,72.0,60.0,30.0,10.0,0.0
8722,76.0,91.0,30.0,10.0,0.0
8723,77.0,7.0,120.0,10.0,0.0
8724,77.0,1.0,60.0,0.0,0.0
8725,72.0,0.0,60.0,1.0,0.0
8726,69.0,1.0,60.0,1.0,0.0
8727,65.0,2.0,60.0,11.0,0.0
8728,57.0,0.0,60.0,12.0,0.0
8729,60.0,55.0,60.0,12.0,0.0
8730,51.0,1.0,120.0,13.0,0.0
8731,51.0,3.0,120.0,3.0,0.0
8732,39.0,188.0,120.0,14.0,0.0
8733,78.0,1.0,210.0,0.0,0.0
8734,72.0,45.0,210.0,1.0,0.0
8735,69.0,0.0,210.0,1.0,0.0
8736,66.0,2.0,210.0,11.0,0.0
8737,57.0,0.0,210.0,12.0,0.0
8738,60.0,0.0,210.0,12.0,0.0
8739,48.0,1.0,120.0,13.0,0.0
8740,48.0,3.0,120.0,3.0,0.0
8741,36.0,188.0,120.0,14.0,0.0
8742,77.0,1.0,210.0,0.0,0.0
8743,72.0,45.0,210.0,1.0,0.0
8744,69.0,0.0,210.0,1.0,0.0
8745,65.0,2.0,210.0,11.0,0.0
8746,57.0,0.0,210.0,12.0,0.0
8747,60.0,0.0,210.0,12.0,0.0
8748,45.0,1.0,120.0,13.0,0.0
8749,45.0,3.0,120.0,3.0,0.0
8750,57.0,327.0,480.0,3.0,0.0
8751,33.0,188.0,120.0,14.0,0.0
8752,78.0,1.0,210.0,0.0,0.0
8753,69.0,0.0,210.0,1.0,0.0
8754,72.0,45.0,210.0,1.0,0.0
8755,66.0,2.0,210.0,11.0,0.0
8756,60.0,0.0,210.0,12.0,0.0
8757,57.0,0.0,210.0,12.0,0.0
8758,39.0,1.0,120.0,13.0,0.0
8759,39.0,3.0,120.0,3.0,0.0
8760,27.0,50.0,120.0,14.0,0.0
8761,77.0,1.0,60.0,0.0,0.0
8762,72.0,1.0,60.0,1.0,0.0
8763,69.0,0.0,60.0,1.0,0.0
8764,65.0,2.0,60.0,11.0,0.0
8765,60.0,63.0,60.0,12.0,0.0
8766,57.0,0.0,60.0,12.0,0.0
8767,70.0,3.0,330.0,10.0,0.0
8768,82.0,0.0,330.0,10.0,0.0
8769,77.0,0.0,360.0,0.0,0.0
8770,82.0,1.0,360.0,0.0,0.0
8771,65.0,0.0,360.0,1.0,0.0
8772,70.0,0.0,360.0,6.0,0.0
8773,70.0,0.0,360.0,1.0,0.0
8774,58.0,1.0,360.0,4.0,0.0
8775,70.0,0.0,360.0,2.0,0.0
8776,70.0,0.0,330.0,11.0,0.0
8777,58.0,2.0,330.0,11.0,0.0
8778,65.0,1.0,360.0,2.0,0.0
8779,58.0,4.0,360.0,5.0,0.0
8780,50.0,2.0,330.0,12.0,0.0
8781,38.0,4.0,330.0,13.0,0.0
8782,50.0,82.0,360.0,3.0,0.0
8783,58.0,0.0,360.0,3.0,0.0
8784,26.0,15.0,330.0,14.0,0.0
8785,77.0,20.0,90.0,10.0,0.0
8786,81.0,40.0,20.0,10.0,0.0
8787,82.0,60.0,30.0,10.0,0.0
8788,82.0,60.0,30.0,10.0,0.0
8789,77.0,60.0,30.0,10.0,0.0
8790,81.0,60.0,30.0,10.0,0.0
8791,82.0,60.0,30.0,10.0,0.0
8792,82.0,60.0,30.0,10.0,0.0
8793,77.0,60.0,30.0,10.0,0.0
8794,81.0,91.0,30.0,10.0,0.0
8795,82.0,7.0,120.0,10.0,0.0
8796,82.0,1.0,60.0,0.0,0.0
8797,74.0,0.0,60.0,1.0,0.0
8798,77.0,1.0,60.0,1.0,0.0
8799,70.0,2.0,60.0,11.0,0.0
8800,62.0,0.0,60.0,12.0,0.0
8801,65.0,55.0,60.0,12.0,0.0
8802,56.0,1.0,120.0,13.0,0.0
8803,56.0,3.0,120.0,3.0,0.0
8804,44.0,188.0,120.0,14.0,0.0
8805,83.0,0.0,210.0,0.0,0.0
8806,77.0,45.0,210.0,1.0,0.0
8807,74.0,0.0,210.0,1.0,0.0
8808,71.0,2.0,210.0,11.0,0.0
8809,65.0,0.0,210.0,12.0,0.0
8810,62.0,1.0,210.0,12.0,0.0
8811,53.0,1.0,120.0,13.0,0.0
8812,53.0,3.0,120.0,3.0,0.0
8813,41.0,188.0,120.0,14.0,0.0
8814,82.0,1.0,210.0,0.0,0.0
8815,74.0,45.0,210.0,1.0,0.0
8816,77.0,0.0,210.0,1.0,0.0
8817,70.0,2.0,210.0,11.0,0.0
8818,62.0,0.0,210.0,12.0,0.0
8819,65.0,0.0,210.0,12.0,0.0
8820,50.0,1.0,120.0,13.0,0.0
8821,62.0,327.0,480.0,3.0,0.0
8822,50.0,3.0,120.0,3.0,0.0
8823,38.0,188.0,120.0,14.0,0.0
8824,83.0,0.0,210.0,0.0,0.0
8825,74.0,45.0,210.0,1.0,0.0
8826,77.0,0.0,210.0,1.0,0.0
8827,71.0,2.0,210.0,11.0,0.0
8828,65.0,1.0,210.0,12.0,0.0
8829,62.0,0.0,210.0,12.0,0.0
8830,44.0,1.0,120.0,13.0,0.0
8831,44.0,3.0,120.0,3.0,0.0
8832,32.0,50.0,120.0,14.0,0.0
8833,82.0,1.0,60.0,0.0,0.0
8834,74.0,1.0,60.0,1.0,0.0
8835,77.0,0.0,60.0,1.0,0.0
8836,70.0,2.0,60.0,11.0,0.0
8837,62.0,0.0,60.0,12.0,0.0
8838,65.0,63.0,60.0,12.0,0.0
8839,75.0,3.0,330.0,10.0,0.0
8840,87.0,0.0,360.0,0.0,0.0
8841,82.0,1.0,360.0,0.0,0.0
8842,58.0,0.0,360.0,4.0,0.0
8843,75.0,0.0,360.0,1.0,0.0
8844,70.0,1.0,360.0,1.0,0.0
8845,70.0,0.0,360.0,6.0,0.0
8846,63.0,0.0,360.0,6.0,0.0
8847,58.0,0.0,330.0,11.0,0.0
8848,70.0,2.0,330.0,11.0,0.0
8849,70.0,1.0,360.0,2.0,0.0
8850,63.0,0.0,360.0,2.0,0.0
8851,51.0,4.0,360.0,5.0,0.0
8852,55.0,2.0,330.0,12.0,0.0
8853,43.0,4.0,330.0,13.0,0.0
8854,63.0,82.0,360.0,3.0,0.0
8855,55.0,0.0,360.0,3.0,0.0
8856,31.0,15.0,330.0,14.0,0.0
8857,70.0,20.0,90.0,10.0,0.0
8858,74.0,40.0,20.0,10.0,0.0
8859,75.0,60.0,30.0,10.0,0.0
8860,75.0,60.0,30.0,10.0,0.0
8861,70.0,60.0,30.0,10.0,0.0
8862,74.0,60.0,30.0,10.0,0.0
8863,75.0,60.0,30.0,10.0,0.0
8864,75.0,60.0,30.0,10.0,0.0
8865,70.0,60.0,30.0,10.0,0.0
8866,74.0,91.0,30.0,10.0,0.0
8867,75.0,7.0,120.0,10.0,0.0
8868,75.0,1.0,60.0,0.0,0.0
8869,70.0,0.0,60.0,1.0,0.0
8870,67.0,1.0,60.0,1.0,0.0
8871,63.0,2.0,60.0,11.0,0.0
8872,55.0,55.0,60.0,12.0,0.0
8873,58.0,0.0,60.0,12.0,0.0
8874,49.0,1.0,120.0,13.0,0.0
8875,49.0,3.0,120.0,3.0,0.0
8876,37.0,188.0,120.0,14.0,0.0
8877,76.0,0.0,210.0,0.0,0.0
8878,70.0,45.0,210.0,1.0,0.0
8879,67.0,0.0,210.0,1.0,0.0
8880,64.0,2.0,210.0,11.0,0.0
8881,55.0,1.0,210.0,12.0,0.0
8882,58.0,0.0,210.0,12.0,0.0
8883,46.0,1.0,120.0,13.0,0.0
8884,46.0,3.0,120.0,3.0,0.0
8885,34.0,188.0,120.0,14.0,0.0
8886,75.0,1.0,210.0,0.0,0.0
8887,67.0,0.0,210.0,1.0,0.0
8888,70.0,45.0,210.0,1.0,0.0
8889,63.0,2.0,210.0,11.0,0.0
8890,58.0,0.0,210.0,12.0,0.0
8891,55.0,0.0,210.0,12.0,0.0
8892,58.0,2.0,480.0,4.0,0.0
8893,51.0,4.0,480.0,5.0,0.0
8894,43.0,1.0,120.0,13.0,0.0
8895,43.0,3.0,120.0,3.0,0.0
8896,61.0,15.0,480.0,3.0,0.0
8897,31.0,188.0,120.0,14.0,0.0
8898,76.0,0.0,210.0,0.0,0.0
8899,67.0,0.0,210.0,1.0,0.0
8900,70.0,45.0,210.0,1.0,0.0
8901,64.0,2.0,210.0,11.0,0.0
8902,58.0,0.0,210.0,12.0,0.0
8903,55.0,1.0,210.0,12.0,0.0
8904,39.0,1.0,120.0,13.0,0.0
8905,39.0,3.0,120.0,3.0,0.0
8906,27.0,50.0,120.0,14.0,0.0
8907,73.0,1.0,60.0,0.0,0.0
8908,67.0,0.0,60.0,1.0,0.0
8909,70.0,1.0,60.0,1.0,0.0
8910,61.0,2.0,60.0,11.0,0.0
8911,55.0,0.0,60.0,12.0,0.0
8912,58.0,57.0,60.0,12.0,0.0
8913,51.0,1.0,120.0,10.0,0.0
8914,71.0,1.0,120.0,0.0,0.0
8915,68.0,0.0,120.0,1.0,0.0
8916,68.0,0.0,120.0,6.0,0.0
8917,56.0,2.0,120.0,6.0,0.0
8918,71.0,0.0,120.0,1.0,0.0
8919,56.0,0.0,120.0,4.0,0.0
8920,51.0,0.0,20.0,11.0,0.0
8921,59.0,2.0,20.0,11.0,0.0
8922,44.0,4.0,120.0,5.0,0.0
8923,56.0,28.0,20.0,12.0,0.0
8924,44.0,4.0,60.0,13.0,0.0
8925,44.0,0.0,120.0,3.0,0.0
8926,59.0,2.0,120.0,3.0,0.0
8927,68.0,0.0,120.0,10.0,0.0
8928,59.0,13.0,120.0,10.0,0.0
8929,32.0,12.0,60.0,14.0,0.0
8930,51.0,2.0,20.0,11.0,0.0
8931,59.0,0.0,20.0,11.0,0.0
8932,56.0,12.0,20.0,12.0,0.0
8933,51.0,2.0,20.0,11.0,0.0
8934,59.0,0.0,20.0,11.0,0.0
8935,56.0,28.0,20.0,12.0,0.0
8936,59.0,2.0,20.0,11.0,0.0
8937,51.0,0.0,20.0,11.0,0.0
8938,56.0,5.0,20.0,12.0,0.0
8939,59.0,0.0,20.0,11.0,0.0
8940,51.0,2.0,20.0,11.0,0.0
8941,56.0,28.0,20.0,12.0,0.0
8942,47.0,4.0,60.0,13.0,0.0
8943,35.0,12.0,60.0,14.0,0.0
8944,59.0,2.0,20.0,11.0,0.0
8945,51.0,0.0,20.0,11.0,0.0
8946,56.0,12.0,20.0,12.0,0.0
8947,51.0,2.0,20.0,11.0,0.0
8948,59.0,0.0,20.0,11.0,0.0
8949,56.0,28.0,20.0,12.0,0.0
8950,51.0,2.0,20.0,11.0,0.0
8951,59.0,0.0,20.0,11.0,0.0
8952,56.0,28.0,20.0,12.0,0.0
8953,51.0,0.0,20.0,11.0,0.0
8954,59.0,2.0,20.0,11.0,0.0
8955,56.0,28.0,20.0,12.0,0.0
8956,51.0,4.0,60.0,13.0,0.0
8957,39.0,12.0,60.0,14.0,0.0
8958,51.0,0.0,20.0,11.0,0.0
8959,59.0,2.0,20.0,11.0,0.0
8960,56.0,12.0,20.0,12.0,0.0
8961,59.0,2.0,20.0,11.0,0.0
8962,51.0,0.0,20.0,11.0,0.0
8963,56.0,28.0,20.0,12.0,0.0
8964,59.0,0.0,20.0,11.0,0.0
8965,51.0,2.0,20.0,11.0,0.0
8966,56.0,28.0,20.0,12.0,0.0
8967,51.0,2.0,20.0,11.0,0.0
8968,59.0,0.0,20.0,11.0,0.0
8969,56.0,28.0,20.0,12.0,0.0
8970,55.0,4.0,60.0,13.0,0.0
8971,43.0,12.0,60.0,14.0,0.0
8972,51.0,2.0,20.0,11.0,0.0
8973,59.0,0.0,20.0,11.0,0.0
8974,56.0,12.0,20.0,12.0,0.0
8975,51.0,2.0,20.0,11.0,0.0
8976,59.0,0.0,20.0,11.0,0.0
8977,56.0,28.0,20.0,12.0,0.0
8978,51.0,0.0,20.0,11.0,0.0
8979,59.0,2.0,20.0,11.0,0.0
8980,56.0,28.0,20.0,12.0,0.0
8981,68.0,1.0,60.0,0.0,0.0
8982,56.0,21.0,60.0,1.0,0.0
8983,51.0,0.0,20.0,11.0,0.0
8984,59.0,2.0,20.0,11.0,0.0
8985,56.0,28.0,20.0,12.0,0.0
8986,56.0,4.0,120.0,13.0,0.0
8987,44.0,12.0,120.0,14.0,0.0
8988,51.0,2.0,20.0,11.0,0.0
8989,59.0,0.0,20.0,11.0,0.0
8990,56.0,6.0,20.0,12.0,0.0
8991,59.0,0.0,20.0,11.0,0.0
8992,51.0,2.0,20.0,11.0,0.0
8993,56.0,28.0,20.0,12.0,0.0
8994,51.0,2.0,20.0,11.0,0.0
8995,59.0,0.0,20.0,11.0,0.0
8996,56.0,12.0,20.0,12.0,0.0
8997,71.0,1.0,60.0,0.0,0.0
8998,59.0,21.0,60.0,1.0,0.0
8999,51.0,2.0,20.0,11.0,0.0
9000,59.0,0.0,20.0,11.0,0.0
9001,56.0,28.0,20.0,12.0,0.0
9002,51.0,2.0,20.0,11.0,0.0
9003,59.0,0.0,20.0,11.0,0.0
9004,56.0,6.0,20.0,12.0,0.0
9005,51.0,2.0,20.0,11.0,0.0
9006,59.0,0.0,20.0,11.0,0.0
9007,56.0,28.0,20.0,12.0,0.0
9008,51.0,2.0,20.0,11.0,0.0
9009,59.0,0.0,20.0,11.0,0.0
9010,56.0,28.0,20.0,12.0,0.0
9011,75.0,1.0,60.0,0.0,0.0
9012,63.0,21.0,60.0,1.0,0.0
9013,51.0,2.0,20.0,11.0,0.0
9014,59.0,0.0,20.0,11.0,0.0
9015,56.0,28.0,20.0,12.0,0.0
9016,59.0,2.0,20.0,11.0,0.0
9017,51.0,0.0,20.0,11.0,0.0
9018,56.0,6.0,20.0,12.0,0.0
9019,59.0,0.0,20.0,11.0,0.0
9020,51.0,2.0,20.0,11.0,0.0
9021,56.0,28.0,20.0,12.0,0.0
9022,51.0,2.0,20.0,11.0,0.0
9023,59.0,0.0,20.0,11.0,0.0
9024,56.0,28.0,20.0,12.0,0.0
9025,79.0,1.0,60.0,0.0,0.0
9026,67.0,21.0,60.0,1.0,0.0
9027,51.0,0.0,20.0,11.0,0.0
9028,59.0,2.0,20.0,11.0,0.0
9029,56.0,28.0,20.0,12.0,0.0
9030,51.0,2.0,20.0,11.0,0.0
9031,59.0,0.0,20.0,11.0,0.0
9032,56.0,6.0,20.0,12.0,0.0
9033,51.0,2.0,20.0,11.0,0.0
9034,59.0,0.0,20.0,11.0,0.0
9035,56.0,28.0,20.0,12.0,0.0
9036,51.0,0.0,20.0,11.0,0.0
9037,59.0,2.0,20.0,11.0,0.0
9038,56.0,28.0,20.0,12.0,0.0
9039,56.0,8.0,60.0,10.0,0.0
9040,80.0,1.0,840.0,0.0,0.0
9041,56.0,2.0,600.0,4.0,0.0
9042,68.0,0.0,1080.0,1.0,0.0
9043,59.0,2.0,20.0,11.0,0.0
9044,68.0,1.0,1080.0,2.0,0.0
9045,51.0,0.0,20.0,11.0,0.0
9046,56.0,0.0,1080.0,2.0,0.0
9047,56.0,28.0,20.0,12.0,0.0
9048,44.0,15.0,60.0,3.0,0.0
9049,51.0,2.0,20.0,11.0,0.0
9050,59.0,0.0,20.0,11.0,0.0
9051,56.0,5.0,20.0,12.0,0.0
9052,51.0,0.0,20.0,11.0,0.0
9053,59.0,2.0,20.0,11.0,0.0
9054,56.0,28.0,20.0,12.0,0.0
9055,59.0,0.0,20.0,11.0,0.0
9056,51.0,2.0,20.0,11.0,0.0
9057,56.0,28.0,20.0,12.0,0.0
9058,59.0,8.0,60.0,10.0,0.0
9059,51.0,0.0,20.0,11.0,0.0
9060,59.0,2.0,20.0,11.0,0.0
9061,56.0,28.0,20.0,12.0,0.0
9062,47.0,15.0,60.0,3.0,0.0
9063,51.0,0.0,20.0,11.0,0.0
9064,59.0,2.0,20.0,11.0,0.0
9065,56.0,5.0,20.0,12.0,0.0
9066,59.0,0.0,20.0,11.0,0.0
9067,51.0,2.0,20.0,11.0,0.0
9068,56.0,28.0,20.0,12.0,0.0
9069,59.0,2.0,20.0,11.0,0.0
9070,51.0,0.0,20.0,11.0,0.0
9071,56.0,28.0,20.0,12.0,0.0
9072,63.0,8.0,60.0,10.0,0.0
9073,51.0,0.0,20.0,11.0,0.0
9074,59.0,2.0,20.0,11.0,0.0
9075,56.0,28.0,20.0,12.0,0.0
9076,51.0,15.0,60.0,3.0,0.0
9077,51.0,2.0,20.0,11.0,0.0
9078,59.0,0.0,20.0,11.0,0.0
9079,56.0,5.0,20.0,12.0,0.0
9080,51.0,0.0,20.0,11.0,0.0
9081,59.0,2.0,20.0,11.0,0.0
9082,56.0,28.0,20.0,12.0,0.0
9083,59.0,2.0,20.0,11.0,0.0
9084,51.0,0.0,20.0,11.0,0.0
9085,56.0,28.0,20.0,12.0,0.0
9086,67.0,23.0,60.0,10.0,0.0
9087,59.0,2.0,20.0,11.0,0.0
9088,51.0,0.0,20.0,11.0,0.0
9089,56.0,28.0,20.0,12.0,0.0
9090,55.0,15.0,120.0,3.0,0.0
9091,51.0,2.0,20.0,11.0,0.0
9092,59.0,0.0,20.0,11.0,0.0
9093,56.0,5.0,20.0,12.0,0.0
9094,51.0,2.0,20.0,11.0,0.0
9095,59.0,0.0,20.0,11.0,0.0
9096,56.0,28.0,20.0,12.0,0.0
9097,59.0,0.0,20.0,11.0,0.0
9098,51.0,2.0,20.0,11.0,0.0
9099,56.0,13.0,20.0,12.0,0.0
9100,68.0,7.0,60.0,10.0,0.0
9101,59.0,2.0,20.0,11.0,0.0
9102,56.0,28.0,20.0,12.0,0.0
9103,56.0,4.0,60.0,13.0,0.0
9104,56.0,15.0,120.0,3.0,0.0
9105,44.0,12.0,60.0,14.0,0.0
9106,59.0,2.0,20.0,11.0,0.0
9107,56.0,5.0,20.0,12.0,0.0
9108,59.0,2.0,20.0,11.0,0.0
9109,56.0,28.0,20.0,12.0,0.0
9110,59.0,2.0,20.0,11.0,0.0
9111,56.0,7.0,20.0,12.0,0.0
9112,70.0,7.0,60.0,10.0,0.0
9113,56.0,2.0,120.0,4.0,0.0
9114,68.0,2.0,20.0,11.0,0.0
9115,44.0,4.0,15.0,5.0,0.0
9116,56.0,28.0,20.0,12.0,0.0
9117,54.0,4.0,60.0,13.0,0.0
9118,58.0,15.0,120.0,3.0,0.0
9119,42.0,12.0,60.0,14.0,0.0
9120,68.0,2.0,20.0,11.0,0.0
9121,56.0,5.0,20.0,12.0,0.0
9122,68.0,2.0,20.0,11.0,0.0
9123,56.0,28.0,20.0,12.0,0.0
9124,68.0,2.0,20.0,11.0,0.0
9125,56.0,7.0,20.0,12.0,0.0
9126,71.0,7.0,60.0,10.0,0.0
9127,68.0,2.0,20.0,11.0,0.0
9128,44.0,4.0,15.0,5.0,0.0
9129,56.0,28.0,20.0,12.0,0.0
9130,52.0,4.0,60.0,13.0,0.0
9131,59.0,15.0,120.0,3.0,0.0
9132,40.0,12.0,60.0,14.0,0.0
9133,68.0,2.0,20.0,11.0,0.0
9134,56.0,5.0,20.0,12.0,0.0
9135,68.0,2.0,20.0,11.0,0.0
9136,56.0,28.0,20.0,12.0,0.0
9137,68.0,2.0,20.0,11.0,0.0
9138,56.0,6.0,20.0,12.0,0.0
9139,72.0,7.0,60.0,10.0,0.0
9140,78.0,1.0,120.0,0.0,0.0
9141,56.0,2.0,15.0,4.0,0.0
9142,66.0,2.0,20.0,11.0,0.0
9143,44.0,4.0,15.0,5.0,0.0
9144,56.0,28.0,20.0,12.0,0.0
9145,51.0,4.0,60.0,13.0,0.0
9146,60.0,15.0,120.0,3.0,0.0
9147,39.0,12.0,60.0,14.0,0.0
9148,66.0,2.0,20.0,11.0,0.0
9149,56.0,5.0,20.0,12.0,0.0
9150,66.0,2.0,20.0,11.0,0.0
9151,56.0,28.0,20.0,12.0,0.0
9152,66.0,2.0,20.0,11.0,0.0
9153,56.0,6.0,20.0,12.0,0.0
9154,73.0,1.0,120.0,10.0,0.0
9155,76.0,1.0,120.0,0.0,0.0
9156,56.0,1.0,120.0,4.0,0.0
9157,64.0,0.0,20.0,11.0,0.0
9158,56.0,2.0,20.0,11.0,0.0
9159,44.0,4.0,15.0,5.0,0.0
9160,56.0,28.0,20.0,12.0,0.0
9161,49.0,4.0,60.0,13.0,0.0
9162,61.0,15.0,120.0,3.0,0.0
9163,37.0,12.0,60.0,14.0,0.0
9164,56.0,2.0,20.0,11.0,0.0
9165,64.0,0.0,20.0,11.0,0.0
9166,61.0,12.0,20.0,12.0,0.0
9167,64.0,0.0,20.0,11.0,0.0
9168,56.0,2.0,20.0,11.0,0.0
9169,61.0,28.0,20.0,12.0,0.0
9170,64.0,2.0,20.0,11.0,0.0
9171,56.0,0.0,20.0,11.0,0.0
9172,61.0,5.0,20.0,12.0,0.0
9173,64.0,2.0,20.0,11.0,0.0
9174,56.0,0.0,20.0,11.0,0.0
9175,61.0,28.0,20.0,12.0,0.0
9176,52.0,4.0,60.0,13.0,0.0
9177,40.0,12.0,60.0,14.0,0.0
9178,56.0,0.0,20.0,11.0,0.0
9179,64.0,2.0,20.0,11.0,0.0
9180,61.0,12.0,20.0,12.0,0.0
9181,64.0,2.0,20.0,11.0,0.0
9182,56.0,0.0,20.0,11.0,0.0
9183,61.0,28.0,20.0,12.0,0.0
9184,56.0,0.0,20.0,11.0,0.0
9185,64.0,2.0,20.0,11.0,0.0
9186,61.0,28.0,20.0,12.0,0.0
9187,64.0,0.0,20.0,11.0,0.0
9188,56.0,2.0,20.0,11.0,0.0
9189,61.0,28.0,20.0,12.0,0.0
9190,56.0,4.0,60.0,13.0,0.0
9191,44.0,12.0,60.0,14.0,0.0
9192,56.0,0.0,20.0,11.0,0.0
9193,64.0,2.0,20.0,11.0,0.0
9194,61.0,12.0,20.0,12.0,0.0
9195,64.0,0.0,20.0,11.0,0.0
9196,56.0,2.0,20.0,11.0,0.0
9197,61.0,28.0,20.0,12.0,0.0
9198,64.0,2.0,20.0,11.0,0.0
9199,56.0,0.0,20.0,11.0,0.0
9200,61.0,28.0,20.0,12.0,0.0
9201,64.0,0.0,20.0,11.0,0.0
9202,56.0,2.0,20.0,11.0,0.0
9203,61.0,28.0,20.0,12.0,0.0
9204,60.0,4.0,60.0,13.0,0.0
9205,48.0,12.0,60.0,14.0,0.0
9206,64.0,2.0,20.0,11.0,0.0
9207,56.0,0.0,20.0,11.0,0.0
9208,61.0,12.0,20.0,12.0,0.0
9209,64.0,2.0,20.0,11.0,0.0
9210,56.0,0.0,20.0,11.0,0.0
9211,61.0,28.0,20.0,12.0,0.0
9212,56.0,0.0,20.0,11.0,0.0
9213,64.0,2.0,20.0,11.0,0.0
9214,61.0,28.0,20.0,12.0,0.0
9215,73.0,1.0,60.0,0.0,0.0
9216,61.0,21.0,60.0,1.0,0.0
9217,56.0,2.0,20.0,11.0,0.0
9218,64.0,0.0,20.0,11.0,0.0
9219,61.0,28.0,20.0,12.0,0.0
9220,61.0,4.0,120.0,13.0,0.0
9221,49.0,12.0,120.0,14.0,0.0
9222,56.0,0.0,20.0,11.0,0.0
9223,64.0,2.0,20.0,11.0,0.0
9224,61.0,6.0,20.0,12.0,0.0
9225,64.0,0.0,20.0,11.0,0.0
9226,56.0,2.0,20.0,11.0,0.0
9227,61.0,28.0,20.0,12.0,0.0
9228,56.0,0.0,20.0,11.0,0.0
9229,64.0,2.0,20.0,11.0,0.0
9230,61.0,12.0,20.0,12.0,0.0
9231,76.0,1.0,60.0,0.0,0.0
9232,64.0,21.0,60.0,1.0,0.0
9233,64.0,2.0,20.0,11.0,0.0
9234,56.0,0.0,20.0,11.0,0.0
9235,61.0,28.0,20.0,12.0,0.0
9236,64.0,2.0,20.0,11.0,0.0
9237,56.0,0.0,20.0,11.0,0.0
9238,61.0,6.0,20.0,12.0,0.0
9239,56.0,2.0,20.0,11.0,0.0
9240,64.0,0.0,20.0,11.0,0.0
9241,61.0,28.0,20.0,12.0,0.0
9242,56.0,0.0,20.0,11.0,0.0
9243,64.0,2.0,20.0,11.0,0.0
9244,61.0,28.0,20.0,12.0,0.0
9245,80.0,1.0,60.0,0.0,0.0
9246,68.0,21.0,60.0,1.0,0.0
9247,56.0,2.0,20.0,11.0,0.0
9248,64.0,0.0,20.0,11.0,0.0
9249,61.0,28.0,20.0,12.0,0.0
9250,56.0,2.0,20.0,11.0,0.0
9251,64.0,0.0,20.0,11.0,0.0
9252,61.0,6.0,20.0,12.0,0.0
9253,56.0,2.0,20.0,11.0,0.0
9254,64.0,0.0,20.0,11.0,0.0
9255,61.0,28.0,20.0,12.0,0.0
9256,64.0,2.0,20.0,11.0,0.0
9257,56.0,0.0,20.0,11.0,0.0
9258,61.0,28.0,20.0,12.0,0.0
9259,84.0,1.0,60.0,0.0,0.0
9260,72.0,21.0,60.0,1.0,0.0
9261,56.0,2.0,20.0,11.0,0.0
9262,64.0,0.0,20.0,11.0,0.0
9263,61.0,28.0,20.0,12.0,0.0
9264,64.0,2.0,20.0,11.0,0.0
9265,56.0,0.0,20.0,11.0,0.0
9266,61.0,6.0,20.0,12.0,0.0
9267,64.0,0.0,20.0,11.0,0.0
9268,56.0,2.0,20.0,11.0,0.0
9269,61.0,28.0,20.0,12.0,0.0
9270,64.0,2.0,20.0,11.0,0.0
9271,56.0,0.0,20.0,11.0,0.0
9272,61.0,28.0,20.0,12.0,0.0
9273,61.0,8.0,60.0,10.0,0.0
9274,85.0,1.0,840.0,0.0,0.0
9275,73.0,2.0,840.0,1.0,0.0
9276,64.0,2.0,20.0,11.0,0.0
9277,56.0,0.0,20.0,11.0,0.0
9278,61.0,0.0,1080.0,2.0,0.0
9279,73.0,1.0,1080.0,2.0,0.0
9280,61.0,19.0,600.0,5.0,0.0
9281,61.0,28.0,20.0,12.0,0.0
9282,49.0,15.0,60.0,3.0,0.0
9283,64.0,0.0,20.0,11.0,0.0
9284,56.0,2.0,20.0,11.0,0.0
9285,61.0,5.0,20.0,12.0,0.0
9286,56.0,2.0,20.0,11.0,0.0
9287,64.0,0.0,20.0,11.0,0.0
9288,61.0,28.0,20.0,12.0,0.0
9289,64.0,2.0,20.0,11.0,0.0
9290,56.0,0.0,20.0,11.0,0.0
9291,61.0,28.0,20.0,12.0,0.0
9292,64.0,8.0,60.0,10.0,0.0
9293,56.0,0.0,20.0,11.0,0.0
9294,64.0,2.0,20.0,11.0,0.0
9295,61.0,28.0,20.0,12.0,0.0
9296,52.0,15.0,60.0,3.0,0.0
9297,64.0,0.0,20.0,11.0,0.0
9298,56.0,2.0,20.0,11.0,0.0
9299,61.0,5.0,20.0,12.0,0.0
9300,56.0,2.0,20.0,11.0,0.0
9301,64.0,0.0,20.0,11.0,0.0
9302,61.0,28.0,20.0,12.0,0.0
9303,64.0,2.0,20.0,11.0,0.0
9304,56.0,0.0,20.0,11.0,0.0
9305,61.0,28.0,20.0,12.0,0.0
9306,68.0,8.0,60.0,10.0,0.0
9307,56.0,0.0,20.0,11.0,0.0
9308,64.0,2.0,20.0,11.0,0.0
9309,61.0,28.0,20.0,12.0,0.0
9310,56.0,15.0,60.0,3.0,0.0
9311,64.0,0.0,20.0,11.0,0.0
9312,56.0,2.0,20.0,11.0,0.0
9313,61.0,5.0,20.0,12.0,0.0
9314,64.0,2.0,20.0,11.0,0.0
9315,56.0,0.0,20.0,11.0,0.0
9316,61.0,28.0,20.0,12.0,0.0
9317,64.0,0.0,20.0,11.0,0.0
9318,56.0,2.0,20.0,11.0,0.0
9319,61.0,28.0,20.0,12.0,0.0
9320,72.0,8.0,60.0,10.0,0.0
9321,56.0,2.0,20.0,11.0,0.0
9322,64.0,0.0,20.0,11.0,0.0
9323,61.0,28.0,20.0,12.0,0.0
9324,60.0,15.0,60.0,3.0,0.0
9325,64.0,0.0,20.0,11.0,0.0
9326,56.0,2.0,20.0,11.0,0.0
9327,61.0,5.0,20.0,12.0,0.0
9328,64.0,0.0,20.0,11.0,0.0
9329,56.0,2.0,20.0,11.0,0.0
9330,61.0,28.0,20.0,12.0,0.0
9331,56.0,0.0,20.0,11.0,0.0
9332,64.0,2.0,20.0,11.0,0.0
9333,61.0,28.0,20.0,12.0,0.0
9334,73.0,7.0,60.0,10.0,0.0
9335,64.0,2.0,20.0,11.0,0.0
9336,61.0,28.0,20.0,12.0,0.0
9337,49.0,4.0,60.0,13.0,0.0
9338,61.0,15.0,360.0,3.0,0.0
9339,37.0,12.0,60.0,14.0,0.0
9340,64.0,2.0,20.0,11.0,0.0
9341,61.0,5.0,20.0,12.0,0.0
9342,64.0,2.0,20.0,11.0,0.0
9343,61.0,28.0,20.0,12.0,0.0
9344,64.0,2.0,20.0,11.0,0.0
9345,61.0,7.0,20.0,12.0,0.0
9346,75.0,7.0,60.0,10.0,0.0
9347,61.0,2.0,15.0,4.0,0.0
9348,73.0,2.0,20.0,11.0,0.0
9349,61.0,28.0,20.0,12.0,0.0
9350,47.0,4.0,60.0,13.0,0.0
9351,35.0,12.0,60.0,14.0,0.0
9352,73.0,2.0,20.0,11.0,0.0
9353,61.0,5.0,20.0,12.0,0.0
9354,73.0,2.0,20.0,11.0,0.0
9355,61.0,28.0,20.0,12.0,0.0
9356,73.0,2.0,20.0,11.0,0.0
9357,61.0,7.0,20.0,12.0,0.0
9358,76.0,7.0,60.0,10.0,0.0
9359,61.0,2.0,15.0,4.0,0.0
9360,73.0,2.0,20.0,11.0,0.0
9361,61.0,19.0,15.0,5.0,0.0
9362,61.0,28.0,20.0,12.0,0.0
9363,46.0,4.0,60.0,13.0,0.0
9364,34.0,12.0,60.0,14.0,0.0
9365,73.0,2.0,20.0,11.0,0.0
9366,61.0,5.0,20.0,12.0,0.0
9367,73.0,2.0,20.0,11.0,0.0
9368,61.0,28.0,20.0,12.0,0.0
9369,73.0,2.0,20.0,11.0,0.0
9370,61.0,6.0,20.0,12.0,0.0
9371,77.0,7.0,60.0,10.0,0.0
9372,83.0,1.0,120.0,0.0,0.0
9373,71.0,0.0,120.0,1.0,0.0
9374,71.0,2.0,20.0,11.0,0.0
9375,61.0,4.0,120.0,5.0,0.0
9376,61.0,28.0,20.0,12.0,0.0
9377,44.0,4.0,60.0,13.0,0.0
9378,59.0,15.0,120.0,3.0,0.0
9379,32.0,12.0,60.0,14.0,0.0
9380,71.0,2.0,20.0,11.0,0.0
9381,61.0,5.0,20.0,12.0,0.0
9382,71.0,2.0,20.0,11.0,0.0
9383,61.0,28.0,20.0,12.0,0.0
9384,71.0,2.0,20.0,11.0,0.0
9385,61.0,6.0,20.0,12.0,0.0
9386,78.0,1.0,120.0,10.0,0.0
9387,82.0,1.0,120.0,0.0,0.0
9388,70.0,0.0,120.0,1.0,0.0
9389,61.0,2.0,15.0,4.0,0.0
9390,70.0,2.0,20.0,11.0,0.0
9391,61.0,4.0,120.0,5.0,0.0
9392,61.0,28.0,20.0,12.0,0.0
9393,42.0,4.0,60.0,13.0,0.0
9394,58.0,15.0,120.0,3.0,0.0
9395,30.0,12.0,60.0,14.0,0.0
9396,61.0,2.0,20.0,11.0,0.0
9397,58.0,12.0,20.0,12.0,0.0
9398,61.0,2.0,20.0,11.0,0.0
9399,58.0,28.0,20.0,12.0,0.0
9400,61.0,2.0,20.0,11.0,0.0
9401,58.0,5.0,20.0,12.0,0.0
9402,61.0,2.0,20.0,11.0,0.0
9403,58.0,28.0,20.0,12.0,0.0
9404,46.0,4.0,60.0,13.0,0.0
9405,34.0,12.0,60.0,14.0,0.0
9406,61.0,2.0,20.0,11.0,0.0
9407,58.0,12.0,20.0,12.0,0.0
9408,61.0,2.0,20.0,11.0,0.0
9409,58.0,28.0,20.0,12.0,0.0
9410,61.0,2.0,20.0,11.0,0.0
9411,58.0,28.0,20.0,12.0,0.0
9412,61.0,2.0,20.0,11.0,0.0
9413,58.0,28.0,20.0,12.0,0.0
9414,49.0,4.0,60.0,13.0,0.0
9415,37.0,12.0,60.0,14.0,0.0
9416,61.0,2.0,20.0,11.0,0.0
9417,58.0,12.0,20.0,12.0,0.0
9418,61.0,2.0,20.0,11.0,0.0
9419,58.0,28.0,20.0,12.0,0.0
9420,61.0,2.0,20.0,11.0,0.0
9421,58.0,28.0,20.0,12.0,0.0
9422,61.0,2.0,20.0,11.0,0.0
9423,58.0,28.0,20.0,12.0,0.0
9424,53.0,4.0,60.0,13.0,0.0
9425,41.0,12.0,60.0,14.0,0.0
9426,61.0,2.0,20.0,11.0,0.0
9427,58.0,12.0,20.0,12.0,0.0
9428,61.0,2.0,20.0,11.0,0.0
9429,58.0,28.0,20.0,12.0,0.0
9430,61.0,2.0,20.0,11.0,0.0
9431,58.0,28.0,20.0,12.0,0.0
9432,76.0,1.0,60.0,10.0,0.0
9433,70.0,22.0,60.0,0.0,0.0
9434,61.0,2.0,20.0,11.0,0.0
9435,58.0,28.0,20.0,12.0,0.0
9436,54.0,4.0,120.0,13.0,0.0
9437,49.0,15.0,480.0,3.0,0.0
9438,52.0,0.0,480.0,3.0,0.0
9439,42.0,12.0,120.0,14.0,0.0
9440,61.0,2.0,20.0,11.0,0.0
9441,58.0,5.0,20.0,12.0,0.0
9442,61.0,2.0,20.0,11.0,0.0
9443,58.0,28.0,20.0,12.0,0.0
9444,61.0,2.0,20.0,11.0,0.0
9445,58.0,12.0,20.0,12.0,0.0
9446,73.0,1.0,60.0,10.0,0.0
9447,73.0,22.0,60.0,0.0,0.0
9448,61.0,2.0,20.0,11.0,0.0
9449,58.0,28.0,20.0,12.0,0.0
9450,61.0,2.0,20.0,11.0,0.0
9451,58.0,5.0,20.0,12.0,0.0
9452,61.0,2.0,20.0,11.0,0.0
9453,58.0,28.0,20.0,12.0,0.0
9454,61.0,2.0,20.0,11.0,0.0
9455,58.0,28.0,20.0,12.0,0.0
9456,70.0,1.0,60.0,10.0,0.0
9457,78.0,22.0,60.0,0.0,0.0
9458,61.0,2.0,20.0,11.0,0.0
9459,58.0,28.0,20.0,12.0,0.0
9460,61.0,2.0,20.0,11.0,0.0
9461,58.0,5.0,20.0,12.0,0.0
9462,61.0,2.0,20.0,11.0,0.0
9463,58.0,28.0,20.0,12.0,0.0
9464,61.0,2.0,20.0,11.0,0.0
9465,58.0,28.0,20.0,12.0,0.0
9466,64.0,1.0,60.0,10.0,0.0
9467,82.0,22.0,60.0,0.0,0.0
9468,61.0,2.0,20.0,11.0,0.0
9469,58.0,28.0,20.0,12.0,0.0
9470,61.0,2.0,20.0,11.0,0.0
9471,58.0,5.0,20.0,12.0,0.0
9472,61.0,2.0,20.0,11.0,0.0
9473,58.0,28.0,20.0,12.0,0.0
9474,61.0,2.0,20.0,11.0,0.0
9475,58.0,13.0,20.0,12.0,0.0
9476,63.0,1.0,120.0,10.0,0.0
9477,83.0,7.0,120.0,0.0,0.0
9478,71.0,5.0,600.0,1.0,0.0
9479,75.0,0.0,600.0,1.0,0.0
9480,63.0,2.0,20.0,11.0,0.0
9481,59.0,28.0,20.0,12.0,0.0
9482,42.0,4.0,60.0,13.0,0.0
9483,51.0,0.0,120.0,3.0,0.0
9484,47.0,15.0,120.0,3.0,0.0
9485,30.0,12.0,60.0,14.0,0.0
9486,63.0,2.0,20.0,11.0,0.0
9487,59.0,12.0,20.0,12.0,0.0
9488,63.0,2.0,20.0,11.0,0.0
9489,59.0,28.0,20.0,12.0,0.0
9490,63.0,2.0,20.0,11.0,0.0
9491,59.0,5.0,20.0,12.0,0.0
9492,63.0,2.0,20.0,11.0,0.0
9493,59.0,28.0,20.0,12.0,0.0
9494,42.0,4.0,60.0,13.0,0.0
9495,30.0,12.0,60.0,14.0,0.0
9496,63.0,2.0,20.0,11.0,0.0
9497,59.0,12.0,20.0,12.0,0.0
9498,63.0,2.0,20.0,11.0,0.0
9499,59.0,28.0,20.0,12.0,0.0
9500,63.0,2.0,20.0,11.0,0.0
9501,59.0,28.0,20.0,12.0,0.0
9502,63.0,2.0,20.0,11.0,0.0
9503,59.0,28.0,20.0,12.0,0.0
9504,47.0,4.0,60.0,13.0,0.0
9505,35.0,12.0,60.0,14.0,0.0
9506,63.0,2.0,20.0,11.0,0.0
9507,59.0,12.0,20.0,12.0,0.0
9508,63.0,2.0,20.0,11.0,0.0
9509,59.0,28.0,20.0,12.0,0.0
9510,63.0,2.0,20.0,11.0,0.0
9511,59.0,28.0,20.0,12.0,0.0
9512,63.0,2.0,20.0,11.0,0.0
9513,59.0,28.0,20.0,12.0,0.0
9514,51.0,4.0,60.0,13.0,0.0
9515,39.0,12.0,60.0,14.0,0.0
9516,63.0,2.0,20.0,11.0,0.0
9517,59.0,12.0,20.0,12.0,0.0
9518,63.0,2.0,20.0,11.0,0.0
9519,59.0,28.0,20.0,12.0,0.0
9520,63.0,2.0,20.0,11.0,0.0
9521,59.0,28.0,20.0,12.0,0.0
9522,75.0,1.0,60.0,10.0,0.0
9523,71.0,22.0,60.0,0.0,0.0
9524,63.0,2.0,20.0,11.0,0.0
9525,59.0,28.0,20.0,12.0,0.0
9526,54.0,4.0,120.0,13.0,0.0
9527,47.0,15.0,600.0,3.0,0.0
9528,51.0,15.0,480.0,3.0,0.0
9529,42.0,12.0,120.0,14.0,0.0
9530,63.0,2.0,20.0,11.0,0.0
9531,59.0,5.0,20.0,12.0,0.0
9532,63.0,2.0,20.0,11.0,0.0
9533,59.0,28.0,20.0,12.0,0.0
9534,63.0,2.0,20.0,11.0,0.0
9535,59.0,7.0,20.0,12.0,0.0
9536,71.0,1.0,60.0,10.0,0.0
9537,75.0,22.0,60.0,0.0,0.0
9538,63.0,2.0,20.0,11.0,0.0
9539,59.0,28.0,20.0,12.0,0.0
9540,63.0,2.0,20.0,11.0,0.0
9541,59.0,5.0,20.0,12.0,0.0
9542,63.0,2.0,20.0,11.0,0.0
9543,59.0,28.0,20.0,12.0,0.0
9544,63.0,2.0,20.0,11.0,0.0
9545,59.0,28.0,20.0,12.0,0.0
9546,66.0,1.0,60.0,10.0,0.0
9547,78.0,22.0,60.0,0.0,0.0
9548,63.0,2.0,20.0,11.0,0.0
9549,59.0,28.0,20.0,12.0,0.0
9550,63.0,2.0,20.0,11.0,0.0
9551,59.0,5.0,20.0,12.0,0.0
9552,63.0,2.0,20.0,11.0,0.0
9553,59.0,28.0,20.0,12.0,0.0
9554,63.0,2.0,20.0,11.0,0.0
9555,59.0,28.0,20.0,12.0,0.0
9556,63.0,23.0,60.0,10.0,0.0
9557,83.0,7.0,120.0,0.0,0.0
9558,63.0,2.0,20.0,11.0,0.0
9559,59.0,28.0,20.0,12.0,0.0
9560,63.0,2.0,20.0,11.0,0.0
9561,59.0,5.0,20.0,12.0,0.0
9562,63.0,2.0,20.0,11.0,0.0
9563,59.0,28.0,20.0,12.0,0.0
9564,63.0,2.0,20.0,11.0,0.0
9565,59.0,6.0,20.0,12.0,0.0
9566,65.0,8.0,120.0,10.0,0.0
9567,86.0,19.0,600.0,0.0,0.0
9568,71.0,0.0,960.0,1.0,0.0
9569,74.0,1.0,960.0,1.0,0.0
9570,65.0,0.0,20.0,11.0,0.0
9571,59.0,2.0,20.0,11.0,0.0
9572,62.0,28.0,20.0,12.0,0.0
9573,42.0,4.0,60.0,13.0,0.0
9574,53.0,0.0,120.0,3.0,0.0
9575,30.0,12.0,60.0,14.0,0.0
9576,65.0,2.0,20.0,11.0,0.0
9577,59.0,0.0,20.0,11.0,0.0
9578,62.0,12.0,20.0,12.0,0.0
9579,65.0,2.0,20.0,11.0,0.0
9580,59.0,0.0,20.0,11.0,0.0
9581,62.0,28.0,20.0,12.0,0.0
9582,59.0,0.0,20.0,11.0,0.0
9583,65.0,2.0,20.0,11.0,0.0
9584,62.0,5.0,20.0,12.0,0.0
9585,59.0,0.0,20.0,11.0,0.0
9586,65.0,2.0,20.0,11.0,0.0
9587,62.0,28.0,20.0,12.0,0.0
9588,47.0,4.0,60.0,13.0,0.0
9589,35.0,12.0,60.0,14.0,0.0
9590,65.0,0.0,20.0,11.0,0.0
9591,59.0,2.0,20.0,11.0,0.0
9592,62.0,12.0,20.0,12.0,0.0
9593,59.0,2.0,20.0,11.0,0.0
9594,65.0,0.0,20.0,11.0,0.0
9595,62.0,28.0,20.0,12.0,0.0
9596,65.0,2.0,20.0,11.0,0.0
9597,59.0,0.0,20.0,11.0,0.0
9598,62.0,25.0,20.0,12.0,0.0
9599,77.0,3.0,20.0,10.0,0.0
9600,65.0,2.0,20.0,11.0,0.0
9601,59.0,0.0,20.0,11.0,0.0
9602,62.0,25.0,20.0,12.0,0.0
9603,50.0,4.0,60.0,13.0,0.0
9604,38.0,9.0,60.0,14.0,0.0
9605,77.0,3.0,20.0,10.0,0.0
9606,59.0,2.0,20.0,11.0,0.0
9607,65.0,0.0,20.0,11.0,0.0
9608,62.0,12.0,20.0,12.0,0.0
9609,77.0,3.0,20.0,10.0,0.0
9610,59.0,0.0,20.0,11.0,0.0
9611,65.0,2.0,20.0,11.0,0.0
9612,62.0,25.0,20.0,12.0,0.0
9613,77.0,3.0,20.0,10.0,0.0
9614,65.0,0.0,20.0,11.0,0.0
9615,59.0,2.0,20.0,11.0,0.0
9616,62.0,25.0,20.0,12.0,0.0
9617,77.0,3.0,20.0,10.0,0.0
9618,59.0,0.0,20.0,11.0,0.0
9619,65.0,2.0,20.0,11.0,0.0
9620,62.0,25.0,20.0,12.0,0.0
9621,53.0,4.0,60.0,13.0,0.0
9622,41.0,9.0,60.0,14.0,0.0
9623,77.0,3.0,20.0,10.0,0.0
9624,59.0,2.0,20.0,11.0,0.0
9625,65.0,0.0,20.0,11.0,0.0
9626,62.0,12.0,20.0,12.0,0.0
9627,77.0,3.0,20.0,10.0,0.0
9628,59.0,0.0,20.0,11.0,0.0
9629,65.0,2.0,20.0,11.0,0.0
9630,62.0,25.0,20.0,12.0,0.0
9631,77.0,3.0,20.0,10.0,0.0
9632,59.0,2.0,20.0,11.0,0.0
9633,65.0,0.0,20.0,11.0,0.0
9634,62.0,25.0,20.0,12.0,0.0
9635,77.0,3.0,20.0,10.0,0.0
9636,65.0,0.0,20.0,11.0,0.0
9637,59.0,2.0,20.0,11.0,0.0
9638,68.0,5.0,480.0,2.0,0.0
9639,56.0,0.0,480.0,2.0,0.0
9640,62.0,25.0,20.0,12.0,0.0
9641,56.0,4.0,60.0,13.0,0.0
9642,59.0,22.0,480.0,3.0,0.0
9643,62.0,0.0,480.0,3.0,0.0
9644,44.0,9.0,60.0,14.0,0.0
9645,77.0,3.0,20.0,10.0,0.0
9646,65.0,2.0,20.0,11.0,0.0
9647,59.0,0.0,20.0,11.0,0.0
9648,62.0,12.0,20.0,12.0,0.0
9649,77.0,3.0,20.0,10.0,0.0
9650,59.0,2.0,20.0,11.0,0.0
9651,65.0,0.0,20.0,11.0,0.0
9652,62.0,25.0,20.0,12.0,0.0
9653,77.0,3.0,20.0,10.0,0.0
9654,59.0,2.0,20.0,11.0,0.0
9655,65.0,0.0,20.0,11.0,0.0
9656,62.0,6.0,20.0,12.0,0.0
9657,77.0,3.0,20.0,10.0,0.0
9658,59.0,0.0,20.0,11.0,0.0
9659,65.0,2.0,20.0,11.0,0.0
9660,62.0,25.0,20.0,12.0,0.0
9661,53.0,4.0,60.0,13.0,0.0
9662,41.0,9.0,60.0,14.0,0.0
9663,77.0,3.0,20.0,10.0,0.0
9664,59.0,2.0,20.0,11.0,0.0
9665,65.0,0.0,20.0,11.0,0.0
9666,62.0,12.0,20.0,12.0,0.0
9667,77.0,3.0,20.0,10.0,0.0
9668,59.0,0.0,20.0,11.0,0.0
9669,65.0,2.0,20.0,11.0,0.0
9670,62.0,25.0,20.0,12.0,0.0
9671,77.0,3.0,20.0,10.0,0.0
9672,59.0,2.0,20.0,11.0,0.0
9673,65.0,0.0,20.0,11.0,0.0
9674,62.0,6.0,20.0,12.0,0.0
9675,77.0,3.0,20.0,10.0,0.0
9676,77.0,19.0,15.0,0.0,0.0
9677,65.0,0.0,20.0,11.0,0.0
9678,59.0,2.0,20.0,11.0,0.0
9679,62.0,25.0,20.0,12.0,0.0
9680,50.0,4.0,60.0,13.0,0.0
9681,38.0,9.0,60.0,14.0,0.0
9682,77.0,3.0,20.0,10.0,0.0
9683,65.0,2.0,20.0,11.0,0.0
9684,59.0,0.0,20.0,11.0,0.0
9685,62.0,12.0,20.0,12.0,0.0
9686,77.0,3.0,20.0,10.0,0.0
9687,65.0,2.0,20.0,11.0,0.0
9688,59.0,0.0,20.0,11.0,0.0
9689,62.0,25.0,20.0,12.0,0.0
9690,77.0,3.0,20.0,10.0,0.0
9691,59.0,2.0,20.0,11.0,0.0
9692,65.0,0.0,20.0,11.0,0.0
9693,62.0,6.0,20.0,12.0,0.0
9694,77.0,3.0,20.0,10.0,0.0
9695,77.0,1.0,120.0,0.0,0.0
9696,65.0,0.0,20.0,11.0,0.0
9697,59.0,2.0,20.0,11.0,0.0
9698,62.0,25.0,20.0,12.0,0.0
9699,47.0,4.0,60.0,13.0,0.0
9700,35.0,9.0,60.0,14.0,0.0
9701,77.0,3.0,20.0,10.0,0.0
9702,65.0,0.0,20.0,11.0,0.0
9703,59.0,2.0,20.0,11.0,0.0
9704,62.0,12.0,20.0,12.0,0.0
9705,77.0,3.0,20.0,10.0,0.0
9706,65.0,0.0,20.0,11.0,0.0
9707,59.0,2.0,20.0,11.0,0.0
9708,62.0,25.0,20.0,12.0,0.0
9709,77.0,3.0,20.0,10.0,0.0
9710,65.0,0.0,20.0,11.0,0.0
9711,59.0,2.0,20.0,11.0,0.0
9712,62.0,6.0,20.0,12.0,0.0
9713,78.0,60.0,30.0,10.0,0.0
9714,78.0,1.0,120.0,0.0,0.0
9715,70.0,0.0,120.0,1.0,0.0
9716,73.0,1.0,120.0,1.0,0.0
9717,66.0,2.0,120.0,11.0,0.0
9718,58.0,0.0,120.0,11.0,0.0
9719,70.0,0.0,120.0,2.0,0.0
9720,58.0,0.0,120.0,2.0,0.0
9721,61.0,2.0,120.0,12.0,0.0
9722,42.0,1.0,120.0,13.0,0.0
9723,58.0,0.0,120.0,3.0,0.0
9724,61.0,3.0,120.0,3.0,0.0
9725,30.0,19.0,120.0,14.0,0.0
9726,78.0,31.0,30.0,10.0,0.0
9727,78.0,60.0,30.0,10.0,0.0
9728,78.0,90.0,30.0,10.0,0.0
9729,76.0,50.0,60.0,10.0,0.0
9730,75.0,40.0,60.0,10.0,0.0
9731,73.0,60.0,30.0,10.0,0.0
9732,71.0,63.0,30.0,10.0,0.0
9733,70.0,33.0,120.0,10.0,0.0
9734,54.0,60.0,30.0,11.0,0.0
9735,66.0,27.0,30.0,11.0,0.0
9736,66.0,32.0,30.0,11.0,0.0
9737,66.0,2.0,60.0,12.0,0.0
9738,54.0,4.0,60.0,13.0,0.0
9739,42.0,19.0,60.0,14.0,0.0
9740,70.0,3.0,30.0,10.0,0.0
9741,66.0,57.0,30.0,11.0,0.0
9742,71.0,33.0,30.0,10.0,0.0
9743,64.0,2.0,60.0,11.0,0.0
9744,66.0,2.0,60.0,12.0,0.0
9745,54.0,4.0,60.0,13.0,0.0
9746,42.0,19.0,60.0,14.0,0.0
9747,73.0,23.0,30.0,10.0,0.0
9748,63.0,37.0,60.0,11.0,0.0
9749,75.0,3.0,30.0,10.0,0.0
9750,61.0,32.0,30.0,11.0,0.0
9751,66.0,2.0,60.0,12.0,0.0
9752,54.0,4.0,60.0,13.0,0.0
9753,42.0,19.0,60.0,14.0,0.0
9754,77.0,3.0,30.0,10.0,0.0
9755,59.0,57.0,30.0,11.0,0.0
9756,78.0,60.0,30.0,10.0,0.0
9757,58.0,2.0,120.0,11.0,0.0
9758,54.0,2.0,120.0,12.0,0.0
9759,42.0,4.0,120.0,13.0,0.0
9760,30.0,19.0,120.0,14.0,0.0
9761,78.0,33.0,30.0,10.0,0.0
9762,78.0,60.0,30.0,10.0,0.0
9763,78.0,3.0,30.0,10.0,0.0
9764,58.0,60.0,30.0,11.0,0.0
9765,76.0,33.0,60.0,10.0,0.0
9766,59.0,27.0,30.0,11.0,0.0
9767,75.0,40.0,60.0,10.0,0.0
9768,61.0,17.0,30.0,11.0,0.0
9769,73.0,3.0,30.0,10.0,0.0
9770,63.0,57.0,30.0,11.0,0.0
9771,71.0,3.0,30.0,10.0,0.0
9772,65.0,60.0,30.0,11.0,0.0
9773,70.0,33.0,120.0,10.0,0.0
9774,66.0,60.0,30.0,11.0,0.0
9775,66.0,27.0,30.0,11.0,0.0
9776,66.0,32.0,30.0,11.0,0.0
9777,66.0,2.0,60.0,12.0,0.0
9778,54.0,4.0,60.0,13.0,0.0
9779,42.0,19.0,60.0,14.0,0.0
9780,70.0,3.0,30.0,10.0,0.0
9781,66.0,57.0,30.0,11.0,0.0
9782,71.0,33.0,30.0,10.0,0.0
9783,64.0,2.0,60.0,11.0,0.0
9784,66.0,2.0,60.0,12.0,0.0
9785,54.0,4.0,60.0,13.0,0.0
9786,42.0,19.0,60.0,14.0,0.0
9787,73.0,23.0,30.0,10.0,0.0
9788,63.0,37.0,60.0,11.0,0.0
9789,75.0,3.0,30.0,10.0,0.0
9790,61.0,32.0,30.0,11.0,0.0
9791,66.0,2.0,60.0,12.0,0.0
9792,54.0,4.0,60.0,13.0,0.0
9793,42.0,19.0,60.0,14.0,0.0
9794,77.0,3.0,30.0,10.0,0.0
9795,59.0,57.0,30.0,11.0,0.0
9796,78.0,3.0,30.0,10.0,0.0
9797,78.0,1.0,120.0,0.0,0.0
9798,78.0,6.0,120.0,1.0,0.0
9799,73.0,0.0,120.0,1.0,0.0
9800,58.0,2.0,30.0,11.0,0.0
9801,54.0,2.0,30.0,12.0,0.0
9802,42.0,4.0,30.0,13.0,0.0
9803,58.0,0.0,120.0,3.0,0.0
9804,61.0,34.0,120.0,3.0,0.0
9805,30.0,49.0,30.0,14.0,0.0
9806,78.0,3.0,30.0,10.0,0.0
9807,66.0,2.0,30.0,11.0,0.0
9808,66.0,2.0,30.0,12.0,0.0
9809,54.0,4.0,30.0,13.0,0.0
9810,42.0,8.0,30.0,14.0,0.0
9811,78.0,3.0,30.0,10.0,0.0
9812,82.0,0.0,120.0,0.0,0.0
9813,85.0,1.0,120.0,0.0,0.0
9814,78.0,0.0,120.0,1.0,0.0
9815,73.0,6.0,120.0,1.0,0.0
9816,66.0,2.0,30.0,11.0,0.0
9817,66.0,2.0,30.0,12.0,0.0
9818,54.0,4.0,30.0,13.0,0.0
9819,58.0,0.0,120.0,3.0,0.0
9820,61.0,64.0,120.0,3.0,0.0
9821,42.0,49.0,30.0,14.0,0.0
9822,78.0,3.0,30.0,10.0,0.0
9823,66.0,2.0,30.0,11.0,0.0
9824,66.0,2.0,30.0,12.0,0.0
9825,54.0,4.0,30.0,13.0,0.0
9826,42.0,8.0,30.0,14.0,0.0
9827,76.0,3.0,60.0,10.0,0.0
9828,83.0,0.0,120.0,0.0,0.0
9829,87.0,1.0,120.0,0.0,0.0
9830,75.0,0.0,120.0,1.0,0.0
9831,78.0,0.0,120.0,1.0,0.0
9832,64.0,2.0,60.0,11.0,0.0
9833,64.0,2.0,60.0,12.0,0.0
9834,52.0,4.0,60.0,13.0,0.0
9835,59.0,1.0,120.0,3.0,0.0
9836,63.0,0.0,120.0,3.0,0.0
9837,40.0,38.0,60.0,14.0,0.0
9838,75.0,3.0,60.0,10.0,0.0
9839,63.0,2.0,60.0,11.0,0.0
9840,63.0,1.0,60.0,12.0,0.0
9841,51.0,4.0,60.0,13.0,0.0
9842,39.0,29.0,60.0,14.0,0.0
9843,73.0,3.0,30.0,10.0,0.0
9844,83.0,1.0,120.0,0.0,0.0
9845,87.0,0.0,120.0,0.0,0.0
9846,78.0,0.0,120.0,1.0,0.0
9847,75.0,6.0,120.0,1.0,0.0
9848,61.0,2.0,30.0,11.0,0.0
9849,61.0,2.0,30.0,12.0,0.0
9850,49.0,4.0,30.0,13.0,0.0
9851,59.0,0.0,120.0,3.0,0.0
9852,63.0,34.0,120.0,3.0,0.0
9853,37.0,49.0,30.0,14.0,0.0
9854,71.0,3.0,30.0,10.0,0.0
9855,59.0,2.0,30.0,11.0,0.0
9856,59.0,2.0,30.0,12.0,0.0
9857,47.0,4.0,30.0,13.0,0.0
9858,35.0,8.0,30.0,14.0,0.0
9859,70.0,3.0,30.0,10.0,0.0
9860,82.0,0.0,120.0,0.0,0.0
9861,85.0,1.0,120.0,0.0,0.0
9862,78.0,0.0,120.0,1.0,0.0
9863,73.0,6.0,120.0,1.0,0.0
9864,58.0,2.0,30.0,11.0,0.0
9865,54.0,2.0,30.0,12.0,0.0
9866,42.0,4.0,30.0,13.0,0.0
9867,61.0,0.0,120.0,3.0,0.0
9868,58.0,34.0,120.0,3.0,0.0
9869,30.0,49.0,30.0,14.0,0.0
9870,78.0,3.0,30.0,10.0,0.0
9871,66.0,2.0,30.0,11.0,0.0
9872,66.0,2.0,30.0,12.0,0.0
9873,54.0,4.0,30.0,13.0,0.0
9874,42.0,8.0,30.0,14.0,0.0
9875,78.0,3.0,30.0,10.0,0.0
9876,82.0,0.0,120.0,0.0,0.0
9877,85.0,1.0,120.0,0.0,0.0
9878,78.0,0.0,120.0,1.0,0.0
9879,73.0,6.0,120.0,1.0,0.0
9880,66.0,2.0,30.0,11.0,0.0
9881,66.0,2.0,30.0,12.0,0.0
9882,54.0,4.0,30.0,13.0,0.0
9883,61.0,0.0,120.0,3.0,0.0
9884,58.0,64.0,120.0,3.0,0.0
9885,42.0,49.0,30.0,14.0,0.0
9886,78.0,3.0,30.0,10.0,0.0
9887,66.0,2.0,30.0,11.0,0.0
9888,66.0,2.0,30.0,12.0,0.0
9889,54.0,4.0,30.0,13.0,0.0
9890,42.0,8.0,30.0,14.0,0.0
9891,76.0,3.0,60.0,10.0,0.0
9892,83.0,0.0,120.0,0.0,0.0
9893,87.0,1.0,120.0,0.0,0.0
9894,78.0,0.0,120.0,1.0,0.0
9895,75.0,3.0,120.0,1.0,0.0
9896,64.0,2.0,60.0,11.0,0.0
9897,64.0,2.0,60.0,12.0,0.0
9898,52.0,4.0,60.0,13.0,0.0
9899,63.0,1.0,120.0,3.0,0.0
9900,59.0,0.0,120.0,3.0,0.0
9901,40.0,38.0,60.0,14.0,0.0
9902,75.0,0.0,60.0,10.0,0.0
9903,63.0,2.0,60.0,11.0,0.0
9904,63.0,1.0,60.0,12.0,0.0
9905,51.0,4.0,60.0,13.0,0.0
9906,39.0,29.0,60.0,14.0,0.0
9907,73.0,3.0,30.0,10.0,0.0
9908,87.0,1.0,120.0,0.0,0.0
9909,83.0,0.0,120.0,0.0,0.0
9910,78.0,6.0,120.0,1.0,0.0
9911,75.0,0.0,120.0,1.0,0.0
9912,61.0,2.0,30.0,11.0,0.0
9913,61.0,2.0,30.0,12.0,0.0
9914,49.0,4.0,30.0,13.0,0.0
9915,63.0,0.0,120.0,3.0,0.0
9916,59.0,34.0,120.0,3.0,0.0
9917,37.0,49.0,30.0,14.0,0.0
9918,71.0,3.0,30.0,10.0,0.0
9919,59.0,2.0,30.0,11.0,0.0
9920,59.0,2.0,30.0,12.0,0.0
9921,47.0,4.0,30.0,13.0,0.0
9922,35.0,8.0,30.0,14.0,0.0
9923,70.0,60.0,30.0,10.0,0.0
9924,82.0,0.0,120.0,0.0,0.0
9925,85.0,1.0,120.0,0.0,0.0
9926,73.0,0.0,120.0,1.0,0.0
9927,78.0,1.0,120.0,1.0,0.0
9928,58.0,2.0,120.0,11.0,0.0
9929,54.0,2.0,120.0,12.0,0.0
9930,42.0,1.0,120.0,13.0,0.0
9931,61.0,0.0,120.0,3.0,0.0
9932,58.0,3.0,120.0,3.0,0.0
9933,30.0,19.0,120.0,14.0,0.0
9934,71.0,31.0,30.0,10.0,0.0
9935,73.0,60.0,30.0,10.0,0.0
9936,75.0,90.0,30.0,10.0,0.0
9937,76.0,50.0,60.0,10.0,0.0
9938,75.0,40.0,60.0,10.0,0.0
9939,73.0,60.0,30.0,10.0,0.0
9940,71.0,60.0,30.0,10.0,0.0
9941,70.0,60.0,30.0,10.0,0.0
9942,71.0,60.0,30.0,10.0,0.0
9943,70.0,60.0,30.0,10.0,0.0
9944,68.0,60.0,30.0,10.0,0.0
9945,66.0,60.0,30.0,10.0,0.0
9946,64.0,60.0,30.0,10.0,0.0
9947,63.0,60.0,30.0,10.0,0.0
9948,61.0,60.0,30.0,10.0,0.0
9949,59.0,3.0,30.0,10.0,0.0
9950,59.0,57.0,30.0,11.0,0.0
9951,59.0,27.0,360.0,3.0,0.0
9952,66.0,3.0,30.0,10.0,0.0
9953,63.0,57.0,30.0,11.0,0.0
9954,66.0,3.0,30.0,10.0,0.0
9955,63.0,57.0,30.0,11.0,0.0
9956,66.0,3.0,30.0,10.0,0.0
9957,63.0,57.0,30.0,11.0,0.0
9958,66.0,3.0,30.0,10.0,0.0
9959,63.0,57.0,30.0,11.0,0.0
9960,66.0,3.0,30.0,10.0,0.0
9961,63.0,30.0,30.0,11.0,0.0
9962,66.0,3.0,30.0,10.0,0.0
9963,63.0,57.0,30.0,11.0,0.0
9964,54.0,25.0,90.0,3.0,0.0
9965,64.0,3.0,30.0,10.0,0.0
9966,61.0,5.0,30.0,11.0,0.0
9967,58.0,27.0,30.0,3.0,0.0
9968,63.0,3.0,30.0,10.0,0.0
9969,59.0,35.0,30.0,11.0,0.0
9970,59.0,22.0,60.0,3.0,0.0
9971,66.0,3.0,30.0,10.0,0.0
9972,63.0,57.0,30.0,11.0,0.0
9973,66.0,3.0,30.0,10.0,0.0
9974,66.0,1.0,90.0,1.0,0.0
9975,63.0,57.0,30.0,11.0,0.0
9976,64.0,2.0,30.0,10.0,0.0
9977,61.0,24.0,30.0,11.0,0.0
9978,70.0,33.0,30.0,1.0,0.0
9979,63.0,3.0,30.0,10.0,0.0
9980,71.0,28.0,60.0,1.0,0.0
9981,59.0,29.0,30.0,11.0,0.0
9982,66.0,3.0,30.0,10.0,0.0
9983,63.0,57.0,30.0,11.0,0.0
9984,66.0,3.0,30.0,10.0,0.0
9985,78.0,2.0,90.0,0.0,0.0
9986,63.0,57.0,30.0,11.0,0.0
9987,64.0,1.0,30.0,10.0,0.0
9988,61.0,23.0,30.0,11.0,0.0
9989,82.0,65.0,30.0,0.0,0.0
9990,63.0,3.0,120.0,10.0,0.0
9991,83.0,59.0,60.0,0.0,0.0
9992,59.0,94.0,120.0,11.0,0.0
9993,78.0,1.0,240.0,0.0,0.0
9994,75.0,5.0,240.0,1.0,0.0
9995,42.0,4.0,90.0,13.0,0.0
9996,30.0,16.0,90.0,14.0,0.0
9997,46.0,4.0,20.0,13.0,0.0
9998,34.0,120.0,20.0,14.0,0.0
9999,47.0,4.0,120.0,13.0,0.0
10000,35.0,79.0,120.0,14.0,0.0
10001,54.0,20.0,90.0,10.0,0.0
10002,76.0,1.0,120.0,0.0,0.0
10003,73.0,118.0,120.0,1.0,0.0
10004,58.0,11.0,20.0,10.0,0.0
10005,59.0,1.0,120.0,10.0,0.0
10006,75.0,1.0,120.0,0.0,0.0
10007,71.0,119.0,120.0,1.0,0.0
10008,79.0,1.0,120.0,0.0,0.0
10009,73.0,6.0,120.0,1.0,0.0
10010,57.0,113.0,120.0,3.0,0.0
10011,80.0,1.0,120.0,0.0,0.0
10012,72.0,6.0,120.0,1.0,0.0
10013,56.0,108.0,120.0,3.0,0.0
10014,78.0,1.0,120.0,0.0,0.0
10015,75.0,0.0,120.0,1.0,0.0
10016,44.0,4.0,120.0,13.0,0.0
10017,60.0,27.0,120.0,3.0,0.0
10018,32.0,2.0,120.0,14.0,0.0
10019,64.0,3.0,30.0,10.0,0.0
10020,76.0,1.0,120.0,0.0,0.0
10021,68.0,6.0,120.0,1.0,0.0
10022,61.0,57.0,30.0,11.0,0.0
10023,49.0,4.0,360.0,13.0,0.0
10024,61.0,22.0,120.0,3.0,0.0
10025,37.0,29.0,360.0,14.0,0.0
10026,68.0,3.0,30.0,10.0,0.0
10027,64.0,28.0,30.0,11.0,0.0
10028,68.0,3.0,30.0,10.0,0.0
10029,64.0,57.0,30.0,11.0,0.0
10030,68.0,3.0,30.0,10.0,0.0
10031,64.0,57.0,30.0,11.0,0.0
10032,68.0,3.0,30.0,10.0,0.0
10033,64.0,57.0,30.0,11.0,0.0
10034,68.0,3.0,30.0,10.0,0.0
10035,64.0,24.0,30.0,11.0,0.0
10036,68.0,3.0,30.0,10.0,0.0
10037,64.0,57.0,30.0,11.0,0.0
10038,44.0,4.0,90.0,13.0,0.0
10039,32.0,16.0,90.0,14.0,0.0
10040,66.0,3.0,30.0,10.0,0.0
10041,63.0,4.0,30.0,11.0,0.0
10042,48.0,4.0,20.0,13.0,0.0
10043,36.0,29.0,20.0,14.0,0.0
10044,64.0,3.0,30.0,10.0,0.0
10045,61.0,57.0,30.0,11.0,0.0
10046,49.0,4.0,120.0,13.0,0.0
10047,37.0,19.0,120.0,14.0,0.0
10048,68.0,3.0,30.0,10.0,0.0
10049,64.0,34.0,30.0,11.0,0.0
10050,68.0,3.0,30.0,10.0,0.0
10051,64.0,57.0,30.0,11.0,0.0
10052,56.0,25.0,90.0,3.0,0.0
10053,66.0,3.0,30.0,10.0,0.0
10054,63.0,5.0,30.0,11.0,0.0
10055,60.0,27.0,30.0,3.0,0.0
10056,64.0,3.0,30.0,10.0,0.0
10057,61.0,35.0,30.0,11.0,0.0
10058,61.0,22.0,60.0,3.0,0.0
10059,68.0,3.0,30.0,10.0,0.0
10060,64.0,57.0,30.0,11.0,0.0
10061,68.0,3.0,30.0,10.0,0.0
10062,68.0,1.0,90.0,1.0,0.0
10063,64.0,57.0,30.0,11.0,0.0
10064,66.0,2.0,30.0,10.0,0.0
10065,63.0,24.0,30.0,11.0,0.0
10066,72.0,65.0,30.0,1.0,0.0
10067,64.0,91.0,120.0,10.0,0.0
10068,73.0,51.0,60.0,1.0,0.0
10069,61.0,7.0,120.0,11.0,0.0
10070,80.0,25.0,90.0,0.0,0.0
10071,56.0,2.0,240.0,11.0,0.0
10072,52.0,95.0,240.0,12.0,0.0
10073,84.0,65.0,30.0,0.0,0.0
10074,85.0,52.0,60.0,0.0,0.0
10075,68.0,20.0,90.0,10.0,0.0
10076,54.0,2.0,120.0,11.0,0.0
10077,51.0,125.0,120.0,12.0,0.0
10078,72.0,3.0,20.0,10.0,0.0
10079,73.0,3.0,120.0,10.0,0.0
10080,52.0,2.0,120.0,11.0,0.0
10081,49.0,116.0,120.0,12.0,0.0
10082,83.0,1.0,120.0,0.0,0.0
10083,78.0,6.0,120.0,1.0,0.0
10084,63.0,113.0,120.0,3.0,0.0
10085,82.0,1.0,120.0,0.0,0.0
10086,77.0,6.0,120.0,1.0,0.0
10087,62.0,108.0,120.0,3.0,0.0
10088,80.0,1.0,120.0,0.0,0.0
10089,74.0,4.0,120.0,1.0,0.0
10090,46.0,0.0,120.0,13.0,0.0
10091,58.0,27.0,120.0,3.0,0.0
10092,34.0,2.0,120.0,14.0,0.0
10093,66.0,3.0,30.0,10.0,0.0
10094,78.0,1.0,120.0,0.0,0.0
10095,70.0,6.0,120.0,1.0,0.0
10096,63.0,57.0,30.0,11.0,0.0
10097,51.0,4.0,360.0,13.0,0.0
10098,63.0,22.0,120.0,3.0,0.0
10099,39.0,29.0,360.0,14.0,0.0
10100,70.0,3.0,30.0,10.0,0.0
10101,66.0,28.0,30.0,11.0,0.0
10102,70.0,3.0,30.0,10.0,0.0
10103,66.0,57.0,30.0,11.0,0.0
10104,70.0,3.0,30.0,10.0,0.0
10105,66.0,57.0,30.0,11.0,0.0
10106,70.0,3.0,30.0,10.0,0.0
10107,66.0,57.0,30.0,11.0,0.0
10108,70.0,3.0,30.0,10.0,0.0
10109,66.0,24.0,30.0,11.0,0.0
10110,70.0,3.0,30.0,10.0,0.0
10111,66.0,57.0,30.0,11.0,0.0
10112,46.0,4.0,90.0,13.0,0.0
10113,34.0,16.0,90.0,14.0,0.0
10114,68.0,3.0,30.0,10.0,0.0
10115,65.0,4.0,30.0,11.0,0.0
10116,50.0,4.0,20.0,13.0,0.0
10117,38.0,29.0,20.0,14.0,0.0
10118,66.0,3.0,30.0,10.0,0.0
10119,63.0,57.0,30.0,11.0,0.0
10120,51.0,4.0,120.0,13.0,0.0
10121,39.0,19.0,120.0,14.0,0.0
10122,70.0,3.0,30.0,10.0,0.0
10123,66.0,34.0,30.0,11.0,0.0
10124,70.0,3.0,30.0,10.0,0.0
10125,66.0,57.0,30.0,11.0,0.0
10126,58.0,25.0,90.0,3.0,0.0
10127,68.0,3.0,30.0,10.0,0.0
10128,65.0,5.0,30.0,11.0,0.0
10129,62.0,27.0,30.0,3.0,0.0
10130,66.0,3.0,30.0,10.0,0.0
10131,63.0,35.0,30.0,11.0,0.0
10132,63.0,22.0,60.0,3.0,0.0
10133,70.0,3.0,30.0,10.0,0.0
10134,66.0,57.0,30.0,11.0,0.0
10135,70.0,3.0,30.0,10.0,0.0
10136,70.0,1.0,90.0,1.0,0.0
10137,66.0,57.0,30.0,11.0,0.0
10138,68.0,2.0,30.0,10.0,0.0
10139,65.0,24.0,30.0,11.0,0.0
10140,74.0,65.0,30.0,1.0,0.0
10141,66.0,91.0,120.0,10.0,0.0
10142,75.0,51.0,60.0,1.0,0.0
10143,63.0,7.0,120.0,11.0,0.0
10144,82.0,25.0,90.0,0.0,0.0
10145,58.0,2.0,240.0,11.0,0.0
10146,54.0,95.0,240.0,12.0,0.0
10147,86.0,65.0,30.0,0.0,0.0
10148,87.0,52.0,60.0,0.0,0.0
10149,70.0,20.0,90.0,10.0,0.0
10150,56.0,2.0,120.0,11.0,0.0
10151,53.0,125.0,120.0,12.0,0.0
10152,74.0,3.0,20.0,10.0,0.0
10153,75.0,3.0,120.0,10.0,0.0
10154,54.0,2.0,120.0,11.0,0.0
10155,51.0,117.0,120.0,12.0,0.0
10156,78.0,6.0,120.0,1.0,0.0
10157,63.0,114.0,120.0,3.0,0.0
10158,77.0,6.0,120.0,1.0,0.0
10159,61.0,87.0,120.0,3.0,0.0
10160,75.0,4.0,120.0,1.0,0.0
10161,53.0,2.0,90.0,12.0,0.0
10162,41.0,4.0,90.0,13.0,0.0
10163,60.0,119.0,120.0,3.0,0.0
10164,29.0,14.0,90.0,14.0,0.0
10165,57.0,2.0,20.0,12.0,0.0
10166,45.0,0.0,20.0,13.0,0.0
10167,33.0,2.0,20.0,14.0,0.0
10168,73.0,3.0,120.0,1.0,0.0
10169,58.0,2.0,120.0,12.0,0.0
10170,49.0,1.0,120.0,13.0,0.0
10171,58.0,3.0,120.0,3.0,0.0
10172,37.0,110.0,120.0,14.0,0.0
10173,78.0,1.0,120.0,0.0,0.0
10174,69.0,6.0,120.0,1.0,0.0
10175,63.0,113.0,120.0,3.0,0.0
10176,77.0,1.0,120.0,0.0,0.0
10177,70.0,6.0,120.0,1.0,0.0
10178,61.0,82.0,120.0,3.0,0.0
10179,65.0,3.0,90.0,10.0,0.0
10180,75.0,1.0,120.0,0.0,0.0
10181,72.0,4.0,120.0,1.0,0.0
10182,53.0,17.0,90.0,11.0,0.0
10183,65.0,1.0,120.0,12.0,0.0
10184,53.0,0.0,120.0,13.0,0.0
10185,57.0,114.0,120.0,3.0,0.0
10186,41.0,2.0,120.0,14.0,0.0
10187,69.0,3.0,20.0,10.0,0.0
10188,57.0,2.0,20.0,11.0,0.0
10189,70.0,1.0,120.0,10.0,0.0
10190,73.0,2.0,120.0,0.0,0.0
10191,70.0,3.0,120.0,1.0,0.0
10192,58.0,0.0,120.0,11.0,0.0
10193,58.0,2.0,120.0,12.0,0.0
10194,46.0,4.0,120.0,13.0,0.0
10195,58.0,2.0,120.0,3.0,0.0
10196,34.0,111.0,120.0,14.0,0.0
10197,73.0,6.0,120.0,1.0,0.0
10198,58.0,114.0,120.0,3.0,0.0
10199,72.0,6.0,120.0,1.0,0.0
10200,56.0,87.0,120.0,3.0,0.0
10201,70.0,6.0,120.0,1.0,0.0
10202,48.0,2.0,90.0,12.0,0.0
10203,48.0,4.0,90.0,13.0,0.0
10204,55.0,109.0,120.0,3.0,0.0
10205,36.0,14.0,90.0,14.0,0.0
10206,52.0,2.0,20.0,12.0,0.0
10207,52.0,4.0,20.0,13.0,0.0
10208,40.0,1.0,20.0,14.0,0.0
10209,68.0,6.0,120.0,1.0,0.0
10210,53.0,2.0,120.0,12.0,0.0
10211,53.0,4.0,120.0,13.0,0.0
10212,53.0,2.0,120.0,3.0,0.0
10213,41.0,110.0,120.0,14.0,0.0
10214,76.0,1.0,120.0,0.0,0.0
10215,73.0,6.0,120.0,1.0,0.0
10216,58.0,113.0,120.0,3.0,0.0
10217,77.0,1.0,120.0,0.0,0.0
10218,72.0,6.0,120.0,1.0,0.0
10219,56.0,82.0,120.0,3.0,0.0
10220,72.0,3.0,90.0,10.0,0.0
10221,79.0,0.0,120.0,0.0,0.0
10222,70.0,6.0,120.0,1.0,0.0
10223,60.0,17.0,90.0,11.0,0.0
10224,60.0,2.0,120.0,12.0,0.0
10225,48.0,4.0,120.0,13.0,0.0
10226,55.0,108.0,120.0,3.0,0.0
10227,36.0,1.0,120.0,14.0,0.0
10228,76.0,3.0,20.0,10.0,0.0
10229,64.0,2.0,20.0,11.0,0.0
10230,77.0,3.0,120.0,10.0,0.0
10231,80.0,1.0,120.0,0.0,0.0
10232,68.0,3.0,120.0,1.0,0.0
10233,65.0,2.0,120.0,11.0,0.0
10234,53.0,2.0,120.0,12.0,0.0
10235,41.0,4.0,120.0,13.0,0.0
10236,53.0,0.0,120.0,3.0,0.0
10237,29.0,110.0,120.0,14.0,0.0
10238,80.0,1.0,120.0,0.0,0.0
10239,72.0,0.0,240.0,1.0,0.0
10240,68.0,6.0,120.0,1.0,0.0
10241,53.0,0.0,120.0,3.0,0.0
10242,56.0,113.0,120.0,3.0,0.0
10243,79.0,1.0,120.0,0.0,0.0
10244,67.0,6.0,120.0,1.0,0.0
10245,55.0,62.0,120.0,3.0,0.0
10246,51.0,0.0,120.0,3.0,0.0
10247,61.0,3.0,60.0,10.0,0.0
10248,77.0,1.0,120.0,0.0,0.0
10249,65.0,0.0,120.0,1.0,0.0
10250,71.0,0.0,120.0,1.0,0.0
10251,61.0,2.0,60.0,11.0,0.0
10252,61.0,2.0,60.0,12.0,0.0
10253,49.0,4.0,60.0,13.0,0.0
10254,53.0,118.0,120.0,3.0,0.0
10255,49.0,0.0,120.0,3.0,0.0
10256,37.0,29.0,60.0,14.0,0.0
10257,61.0,3.0,20.0,10.0,0.0
10258,61.0,2.0,20.0,11.0,0.0
10259,61.0,1.0,20.0,12.0,0.0
10260,49.0,4.0,20.0,13.0,0.0
10261,37.0,2.0,20.0,14.0,0.0
10262,60.0,3.0,360.0,10.0,0.0
10263,76.0,1.0,120.0,0.0,0.0
10264,64.0,0.0,120.0,1.0,0.0
10265,60.0,0.0,960.0,6.0,0.0
10266,72.0,6.0,120.0,1.0,0.0
10267,72.0,0.0,960.0,6.0,0.0
10268,60.0,2.0,960.0,4.0,0.0
10269,60.0,2.0,360.0,11.0,0.0
10270,48.0,131.0,960.0,5.0,0.0
10271,60.0,2.0,360.0,12.0,0.0
10272,48.0,4.0,360.0,13.0,0.0
10273,52.0,222.0,120.0,3.0,0.0
10274,48.0,0.0,120.0,3.0,0.0
10275,36.0,89.0,360.0,14.0,0.0
10276,55.0,3.0,90.0,10.0,0.0
10277,55.0,2.0,90.0,11.0,0.0
10278,55.0,2.0,90.0,12.0,0.0
10279,43.0,4.0,90.0,13.0,0.0
10280,31.0,9.0,90.0,14.0,0.0
10281,59.0,3.0,20.0,10.0,0.0
10282,59.0,2.0,20.0,11.0,0.0
10283,59.0,2.0,20.0,12.0,0.0
10284,47.0,4.0,20.0,13.0,0.0
10285,35.0,29.0,20.0,14.0,0.0
10286,60.0,3.0,30.0,10.0,0.0
10287,60.0,2.0,30.0,11.0,0.0
10288,60.0,2.0,30.0,12.0,0.0
10289,48.0,4.0,30.0,13.0,0.0
10290,36.0,49.0,30.0,14.0,0.0
10291,62.0,3.0,30.0,10.0,0.0
10292,62.0,2.0,30.0,11.0,0.0
10293,62.0,2.0,30.0,12.0,0.0
10294,50.0,4.0,30.0,13.0,0.0
10295,38.0,49.0,30.0,14.0,0.0
10296,64.0,3.0,30.0,10.0,0.0
10297,64.0,2.0,30.0,11.0,0.0
10298,64.0,2.0,30.0,12.0,0.0
10299,52.0,4.0,30.0,13.0,0.0
10300,40.0,49.0,30.0,14.0,0.0
10301,65.0,3.0,30.0,10.0,0.0
10302,65.0,2.0,30.0,11.0,0.0
10303,65.0,2.0,30.0,12.0,0.0
10304,53.0,4.0,30.0,13.0,0.0
10305,41.0,49.0,30.0,14.0,0.0
10306,67.0,3.0,30.0,10.0,0.0
10307,67.0,2.0,30.0,11.0,0.0
10308,67.0,2.0,30.0,12.0,0.0
10309,55.0,4.0,30.0,13.0,0.0
10310,43.0,49.0,30.0,14.0,0.0
10311,68.0,3.0,30.0,10.0,0.0
10312,68.0,2.0,30.0,11.0,0.0
10313,68.0,2.0,30.0,12.0,0.0
10314,56.0,4.0,30.0,13.0,0.0
10315,44.0,49.0,30.0,14.0,0.0
10316,70.0,3.0,30.0,10.0,0.0
10317,70.0,2.0,30.0,11.0,0.0
10318,70.0,2.0,30.0,12.0,0.0
10319,58.0,4.0,30.0,13.0,0.0
10320,46.0,49.0,30.0,14.0,0.0
10321,67.0,3.0,30.0,10.0,0.0
10322,67.0,2.0,30.0,11.0,0.0
10323,67.0,2.0,30.0,12.0,0.0
10324,55.0,4.0,30.0,13.0,0.0
10325,43.0,6.0,30.0,14.0,0.0
10326,65.0,3.0,120.0,10.0,0.0
10327,77.0,1.0,360.0,0.0,0.0
10328,80.0,0.0,360.0,0.0,0.0
10329,68.0,0.0,360.0,1.0,0.0
10330,72.0,0.0,960.0,6.0,0.0
10331,60.0,0.0,960.0,4.0,0.0
10332,60.0,2.0,960.0,6.0,0.0
10333,65.0,6.0,360.0,1.0,0.0
10334,65.0,2.0,120.0,11.0,0.0
10335,72.0,5.0,1080.0,2.0,0.0
10336,60.0,0.0,1080.0,2.0,0.0
10337,48.0,1.0,960.0,5.0,0.0
10338,65.0,2.0,120.0,12.0,0.0
10339,53.0,4.0,120.0,13.0,0.0
10340,56.0,0.0,360.0,3.0,0.0
10341,53.0,113.0,360.0,3.0,0.0
10342,41.0,230.0,120.0,14.0,0.0
10343,82.0,0.0,120.0,0.0,0.0
10344,79.0,1.0,120.0,0.0,0.0
10345,67.0,0.0,120.0,1.0,0.0
10346,55.0,113.0,120.0,3.0,0.0
10347,58.0,0.0,120.0,3.0,0.0
10348,82.0,0.0,120.0,0.0,0.0
10349,85.0,1.0,120.0,0.0,0.0
10350,73.0,0.0,120.0,1.0,0.0
10351,70.0,6.0,15.0,1.0,0.0
10352,61.0,0.0,120.0,3.0,0.0
10353,58.0,113.0,120.0,3.0,0.0
10354,80.0,1.0,120.0,0.0,0.0
10355,84.0,0.0,120.0,0.0,0.0
10356,68.0,0.0,120.0,1.0,0.0
10357,72.0,6.0,120.0,1.0,0.0
10358,56.0,0.0,120.0,3.0,0.0
10359,60.0,113.0,120.0,3.0,0.0
10360,82.0,1.0,120.0,0.0,0.0
10361,79.0,0.0,120.0,0.0,0.0
10362,70.0,0.0,120.0,1.0,0.0
10363,67.0,6.0,120.0,1.0,0.0
10364,55.0,0.0,120.0,3.0,0.0
10365,58.0,22.0,120.0,3.0,0.0
10366,53.0,3.0,30.0,10.0,0.0
10367,80.0,0.0,120.0,0.0,0.0
10368,77.0,0.0,120.0,0.0,0.0
10369,68.0,0.0,120.0,1.0,0.0
10370,65.0,6.0,120.0,1.0,0.0
10371,53.0,2.0,30.0,11.0,0.0
10372,53.0,2.0,30.0,12.0,0.0
10373,41.0,4.0,30.0,13.0,0.0
10374,53.0,0.0,120.0,3.0,0.0
10375,56.0,113.0,120.0,3.0,0.0
10376,29.0,19.0,30.0,14.0,0.0
10377,55.0,3.0,30.0,10.0,0.0
10378,55.0,2.0,30.0,11.0,0.0
10379,55.0,2.0,30.0,12.0,0.0
10380,43.0,4.0,30.0,13.0,0.0
10381,31.0,19.0,30.0,14.0,0.0
10382,56.0,3.0,30.0,10.0,0.0
10383,56.0,2.0,30.0,11.0,0.0
10384,56.0,2.0,30.0,12.0,0.0
10385,44.0,4.0,30.0,13.0,0.0
10386,32.0,6.0,30.0,14.0,0.0
10387,58.0,3.0,20.0,10.0,0.0
10388,58.0,2.0,20.0,11.0,0.0
10389,58.0,2.0,20.0,12.0,0.0
10390,46.0,4.0,20.0,13.0,0.0
10391,34.0,1.0,20.0,14.0,0.0
10392,60.0,3.0,360.0,10.0,0.0
10393,76.0,0.0,120.0,0.0,0.0
10394,79.0,1.0,120.0,0.0,0.0
10395,60.0,0.0,960.0,4.0,0.0
10396,67.0,0.0,120.0,1.0,0.0
10397,64.0,1.0,120.0,1.0,0.0
10398,60.0,0.0,960.0,6.0,0.0
10399,72.0,2.0,960.0,6.0,0.0
10400,60.0,2.0,360.0,11.0,0.0
10401,48.0,131.0,960.0,5.0,0.0
10402,60.0,2.0,360.0,12.0,0.0
10403,48.0,4.0,360.0,13.0,0.0
10404,55.0,222.0,120.0,3.0,0.0
10405,52.0,0.0,120.0,3.0,0.0
10406,36.0,89.0,360.0,14.0,0.0
10407,55.0,3.0,90.0,10.0,0.0
10408,55.0,2.0,90.0,11.0,0.0
10409,55.0,2.0,90.0,12.0,0.0
10410,43.0,4.0,90.0,13.0,0.0
10411,31.0,9.0,90.0,14.0,0.0
10412,59.0,3.0,20.0,10.0,0.0
10413,59.0,2.0,20.0,11.0,0.0
10414,59.0,2.0,20.0,12.0,0.0
10415,47.0,4.0,20.0,13.0,0.0
10416,35.0,29.0,20.0,14.0,0.0
10417,60.0,3.0,30.0,10.0,0.0
10418,60.0,2.0,30.0,11.0,0.0
10419,60.0,2.0,30.0,12.0,0.0
10420,48.0,4.0,30.0,13.0,0.0
10421,36.0,49.0,30.0,14.0,0.0
10422,62.0,3.0,30.0,10.0,0.0
10423,62.0,2.0,30.0,11.0,0.0
10424,62.0,2.0,30.0,12.0,0.0
10425,50.0,4.0,30.0,13.0,0.0
10426,38.0,49.0,30.0,14.0,0.0
10427,64.0,3.0,30.0,10.0,0.0
10428,64.0,2.0,30.0,11.0,0.0
10429,64.0,2.0,30.0,12.0,0.0
10430,52.0,4.0,30.0,13.0,0.0
10431,40.0,49.0,30.0,14.0,0.0
10432,65.0,3.0,30.0,10.0,0.0
10433,65.0,2.0,30.0,11.0,0.0
10434,65.0,2.0,30.0,12.0,0.0
10435,53.0,4.0,30.0,13.0,0.0
10436,41.0,49.0,30.0,14.0,0.0
10437,67.0,3.0,30.0,10.0,0.0
10438,67.0,2.0,30.0,11.0,0.0
10439,67.0,2.0,30.0,12.0,0.0
10440,55.0,4.0,30.0,13.0,0.0
10441,43.0,49.0,30.0,14.0,0.0
10442,68.0,3.0,30.0,10.0,0.0
10443,68.0,2.0,30.0,11.0,0.0
10444,68.0,2.0,30.0,12.0,0.0
10445,56.0,4.0,30.0,13.0,0.0
10446,44.0,49.0,30.0,14.0,0.0
10447,70.0,3.0,30.0,10.0,0.0
10448,70.0,2.0,30.0,11.0,0.0
10449,70.0,2.0,30.0,12.0,0.0
10450,58.0,4.0,30.0,13.0,0.0
10451,46.0,49.0,30.0,14.0,0.0
10452,67.0,3.0,30.0,10.0,0.0
10453,67.0,2.0,30.0,11.0,0.0
10454,67.0,2.0,30.0,12.0,0.0
10455,55.0,4.0,30.0,13.0,0.0
10456,43.0,6.0,30.0,14.0,0.0
10457,65.0,3.0,120.0,10.0,0.0
10458,77.0,0.0,360.0,0.0,0.0
10459,80.0,1.0,360.0,0.0,0.0
10460,68.0,6.0,360.0,1.0,0.0
10461,60.0,0.0,960.0,4.0,0.0
10462,60.0,0.0,960.0,6.0,0.0
10463,72.0,2.0,960.0,6.0,0.0
10464,65.0,0.0,360.0,1.0,0.0
10465,72.0,2.0,1080.0,2.0,0.0
10466,60.0,0.0,1080.0,2.0,0.0
10467,65.0,2.0,120.0,11.0,0.0
10468,48.0,1.0,960.0,5.0,0.0
10469,65.0,2.0,120.0,12.0,0.0
10470,53.0,4.0,120.0,13.0,0.0
10471,53.0,0.0,360.0,3.0,0.0
10472,56.0,113.0,360.0,3.0,0.0
10473,41.0,230.0,120.0,14.0,0.0
10474,79.0,1.0,120.0,0.0,0.0
10475,82.0,0.0,120.0,0.0,0.0
10476,67.0,6.0,120.0,1.0,0.0
10477,70.0,0.0,120.0,1.0,0.0
10478,58.0,113.0,120.0,3.0,0.0
10479,55.0,0.0,120.0,3.0,0.0
10480,85.0,1.0,120.0,0.0,0.0
10481,82.0,0.0,120.0,0.0,0.0
10482,73.0,0.0,120.0,1.0,0.0
10483,70.0,6.0,120.0,1.0,0.0
10484,61.0,113.0,120.0,3.0,0.0
10485,58.0,0.0,120.0,3.0,0.0
10486,80.0,0.0,120.0,0.0,0.0
10487,84.0,1.0,120.0,0.0,0.0
10488,68.0,0.0,120.0,1.0,0.0
10489,72.0,6.0,120.0,1.0,0.0
10490,60.0,113.0,120.0,3.0,0.0
10491,56.0,0.0,120.0,3.0,0.0
10492,82.0,0.0,120.0,0.0,0.0
10493,79.0,1.0,120.0,0.0,0.0
10494,67.0,6.0,120.0,1.0,0.0
10495,70.0,0.0,120.0,1.0,0.0
10496,55.0,22.0,120.0,3.0,0.0
10497,58.0,0.0,120.0,3.0,0.0
10498,53.0,3.0,30.0,10.0,0.0
10499,77.0,0.0,120.0,0.0,0.0
10500,80.0,1.0,120.0,0.0,0.0
10501,68.0,0.0,120.0,1.0,0.0
10502,65.0,0.0,120.0,1.0,0.0
10503,53.0,2.0,30.0,11.0,0.0
10504,53.0,2.0,30.0,12.0,0.0
10505,41.0,4.0,30.0,13.0,0.0
10506,53.0,0.0,120.0,3.0,0.0
10507,56.0,58.0,120.0,3.0,0.0
10508,29.0,19.0,30.0,14.0,0.0
10509,55.0,3.0,30.0,10.0,0.0
10510,55.0,2.0,30.0,11.0,0.0
10511,55.0,2.0,30.0,12.0,0.0
10512,43.0,4.0,30.0,13.0,0.0
10513,31.0,19.0,30.0,14.0,0.0
10514,56.0,3.0,30.0,10.0,0.0
10515,56.0,2.0,30.0,11.0,0.0
10516,56.0,2.0,30.0,12.0,0.0
10517,44.0,4.0,30.0,13.0,0.0
10518,32.0,6.0,30.0,14.0,0.0
10519,58.0,3.0,20.0,10.0,0.0
10520,58.0,2.0,20.0,11.0,0.0
10521,58.0,1.0,20.0,12.0,0.0
10522,46.0,4.0,20.0,13.0,0.0
10523,34.0,2.0,20.0,14.0,0.0
10524,60.0,3.0,120.0,10.0,0.0
10525,79.0,1.0,60.0,0.0,0.0
10526,76.0,0.0,60.0,0.0,0.0
10527,64.0,6.0,60.0,1.0,0.0
10528,67.0,0.0,60.0,1.0,0.0
10529,60.0,2.0,360.0,4.0,0.0
10530,72.0,0.0,360.0,6.0,0.0
10531,60.0,0.0,360.0,6.0,0.0
10532,60.0,0.0,120.0,11.0,0.0
10533,48.0,12.0,360.0,5.0,0.0
10534,60.0,2.0,120.0,12.0,0.0
10535,48.0,4.0,120.0,13.0,0.0
10536,55.0,0.0,60.0,3.0,0.0
10537,52.0,52.0,60.0,3.0,0.0
10538,36.0,110.0,120.0,14.0,0.0
10539,84.0,0.0,120.0,0.0,0.0
10540,80.0,1.0,120.0,0.0,0.0
10541,68.0,6.0,120.0,1.0,0.0
10542,72.0,0.0,120.0,1.0,0.0
10543,56.0,99.0,120.0,3.0,0.0
10544,60.0,0.0,120.0,3.0,0.0
10545,79.0,0.0,120.0,0.0,0.0
10546,82.0,1.0,120.0,0.0,0.0
10547,70.0,6.0,120.0,1.0,0.0
10548,67.0,0.0,120.0,1.0,0.0
10549,58.0,0.0,120.0,3.0,0.0
10550,55.0,22.0,120.0,3.0,0.0
10551,53.0,3.0,30.0,10.0,0.0
10552,77.0,1.0,120.0,0.0,0.0
10553,80.0,0.0,120.0,0.0,0.0
10554,68.0,0.0,120.0,1.0,0.0
10555,65.0,4.0,120.0,1.0,0.0
10556,72.0,2.0,120.0,6.0,0.0
10557,60.0,0.0,120.0,6.0,0.0
10558,60.0,0.0,120.0,4.0,0.0
10559,72.0,2.0,240.0,2.0,0.0
10560,53.0,2.0,30.0,11.0,0.0
10561,60.0,0.0,240.0,2.0,0.0
10562,48.0,1.0,120.0,5.0,0.0
10563,53.0,2.0,30.0,12.0,0.0
10564,41.0,4.0,30.0,13.0,0.0
10565,56.0,0.0,120.0,3.0,0.0
10566,53.0,58.0,120.0,3.0,0.0
10567,29.0,19.0,30.0,14.0,0.0
10568,55.0,3.0,30.0,10.0,0.0
10569,55.0,2.0,30.0,11.0,0.0
10570,55.0,2.0,30.0,12.0,0.0
10571,43.0,4.0,30.0,13.0,0.0
10572,31.0,19.0,30.0,14.0,0.0
10573,56.0,3.0,30.0,10.0,0.0
10574,56.0,2.0,30.0,11.0,0.0
10575,56.0,2.0,30.0,12.0,0.0
10576,44.0,4.0,30.0,13.0,0.0
10577,32.0,6.0,30.0,14.0,0.0
10578,58.0,3.0,20.0,10.0,0.0
10579,58.0,2.0,20.0,11.0,0.0
10580,58.0,1.0,20.0,12.0,0.0
10581,46.0,0.0,20.0,13.0,0.0
10582,34.0,2.0,20.0,14.0,0.0
10583,60.0,3.0,120.0,10.0,0.0
10584,76.0,1.0,60.0,0.0,0.0
10585,79.0,0.0,60.0,0.0,0.0
10586,64.0,0.0,60.0,1.0,0.0
10587,60.0,0.0,360.0,4.0,0.0
10588,60.0,2.0,360.0,6.0,0.0
10589,72.0,0.0,360.0,6.0,0.0
10590,67.0,6.0,60.0,1.0,0.0
10591,60.0,2.0,120.0,11.0,0.0
10592,48.0,12.0,360.0,5.0,0.0
10593,60.0,2.0,120.0,12.0,0.0
10594,48.0,4.0,120.0,13.0,0.0
10595,55.0,0.0,60.0,3.0,0.0
10596,52.0,50.0,60.0,3.0,0.0
10597,36.0,110.0,120.0,14.0,0.0
10598,84.0,0.0,120.0,0.0,0.0
10599,80.0,1.0,120.0,0.0,0.0
10600,68.0,0.0,120.0,1.0,0.0
10601,72.0,6.0,120.0,1.0,0.0
10602,60.0,99.0,120.0,3.0,0.0
10603,56.0,0.0,120.0,3.0,0.0
10604,82.0,0.0,120.0,0.0,0.0
10605,79.0,1.0,120.0,0.0,0.0
10606,70.0,6.0,120.0,1.0,0.0
10607,67.0,0.0,120.0,1.0,0.0
10608,58.0,22.0,120.0,3.0,0.0
10609,55.0,0.0,120.0,3.0,0.0
10610,53.0,3.0,30.0,10.0,0.0
10611,77.0,1.0,120.0,0.0,0.0
10612,80.0,0.0,120.0,0.0,0.0
10613,68.0,4.0,120.0,1.0,0.0
10614,65.0,0.0,120.0,1.0,0.0
10615,60.0,2.0,120.0,6.0,0.0
10616,72.0,0.0,120.0,6.0,0.0
10617,60.0,0.0,120.0,4.0,0.0
10618,72.0,2.0,240.0,2.0,0.0
10619,60.0,0.0,240.0,2.0,0.0
10620,53.0,2.0,30.0,11.0,0.0
10621,48.0,1.0,120.0,5.0,0.0
10622,53.0,2.0,30.0,12.0,0.0
10623,41.0,4.0,30.0,13.0,0.0
10624,56.0,115.0,120.0,3.0,0.0
10625,53.0,0.0,120.0,3.0,0.0
10626,29.0,19.0,30.0,14.0,0.0
10627,55.0,3.0,30.0,10.0,0.0
10628,55.0,2.0,30.0,11.0,0.0
10629,55.0,2.0,30.0,12.0,0.0
10630,43.0,4.0,30.0,13.0,0.0
10631,31.0,19.0,30.0,14.0,0.0
10632,56.0,3.0,30.0,10.0,0.0
10633,56.0,2.0,30.0,11.0,0.0
10634,56.0,2.0,30.0,12.0,0.0
10635,44.0,4.0,30.0,13.0,0.0
10636,32.0,6.0,30.0,14.0,0.0
10637,58.0,3.0,20.0,10.0,0.0
10638,58.0,2.0,20.0,11.0,0.0
10639,58.0,1.0,20.0,12.0,0.0
10640,46.0,0.0,20.0,13.0,0.0
10641,34.0,2.0,20.0,14.0,0.0
10642,60.0,1.0,120.0,10.0,0.0
10643,79.0,1.0,120.0,0.0,0.0
10644,76.0,0.0,120.0,0.0,0.0
10645,64.0,0.0,120.0,1.0,0.0
10646,60.0,0.0,120.0,4.0,0.0
10647,60.0,0.0,120.0,6.0,0.0
10648,72.0,1.0,120.0,6.0,0.0
10649,67.0,0.0,120.0,1.0,0.0
10650,60.0,1.0,120.0,11.0,0.0
10651,48.0,1.0,120.0,5.0,0.0
10652,60.0,2.0,120.0,12.0,0.0
10653,48.0,1.0,120.0,13.0,0.0
10654,55.0,0.0,120.0,3.0,0.0
10655,52.0,3.0,120.0,3.0,0.0
10656,36.0,421.0,120.0,14.0,0.0
10657,60.0,0.0,60.0,10.0,0.0
10658,72.0,1.0,60.0,10.0,0.0
10659,84.0,0.0,60.0,0.0,0.0
10660,72.0,1.0,60.0,0.0,0.0
10661,60.0,0.0,60.0,6.0,0.0
10662,72.0,0.0,60.0,1.0,0.0
10663,60.0,0.0,60.0,1.0,0.0
10664,60.0,0.0,60.0,4.0,0.0
10665,72.0,1.0,60.0,6.0,0.0
10666,72.0,0.0,60.0,11.0,0.0
10667,72.0,0.0,60.0,2.0,0.0
10668,60.0,1.0,60.0,2.0,0.0
10669,60.0,0.0,60.0,11.0,0.0
10670,48.0,1.0,60.0,5.0,0.0
10671,60.0,2.0,60.0,12.0,0.0
10672,48.0,1.0,60.0,13.0,0.0
10673,60.0,0.0,60.0,3.0,0.0
10674,48.0,3.0,60.0,3.0,0.0
10675,36.0,229.0,60.0,14.0,0.0
10676,72.0,1.0,60.0,10.0,0.0
10677,60.0,0.0,60.0,10.0,0.0
10678,72.0,0.0,60.0,0.0,0.0
10679,84.0,1.0,60.0,0.0,0.0
10680,60.0,1.0,60.0,1.0,0.0
10681,72.0,0.0,60.0,6.0,0.0
10682,60.0,0.0,60.0,6.0,0.0
10683,72.0,0.0,60.0,1.0,0.0
10684,60.0,0.0,60.0,4.0,0.0
10685,72.0,0.0,60.0,2.0,0.0
10686,60.0,1.0,60.0,2.0,0.0
10687,72.0,0.0,60.0,11.0,0.0
10688,60.0,0.0,60.0,11.0,0.0
10689,48.0,1.0,60.0,5.0,0.0
10690,60.0,2.0,60.0,12.0,0.0
10691,48.0,1.0,60.0,13.0,0.0
10692,48.0,0.0,60.0,3.0,0.0
10693,60.0,3.0,60.0,3.0,0.0
10694,36.0,229.0,60.0,14.0,0.0
10695,60.0,2.0,60.0,10.0,0.0
10696,72.0,0.0,60.0,10.0,0.0
10697,72.0,0.0,960.0,0.0,0.0
10698,84.0,1.0,960.0,0.0,0.0
10699,72.0,1.0,960.0,1.0,0.0
10700,60.0,1.0,60.0,6.0,0.0
10701,60.0,0.0,60.0,4.0,0.0
10702,72.0,0.0,60.0,6.0,0.0
10703,72.0,5.0,960.0,2.0,0.0
10704,60.0,1.0,60.0,11.0,0.0
10705,72.0,0.0,60.0,11.0,0.0
10706,60.0,0.0,960.0,2.0,0.0
10707,48.0,1.0,60.0,5.0,0.0
10708,60.0,2.0,60.0,12.0,0.0
10709,48.0,4.0,60.0,13.0,0.0
10710,60.0,0.0,960.0,3.0,0.0
10711,48.0,478.0,960.0,3.0,0.0
10712,36.0,873.0,60.0,14.0,0.0
10713,85.0,0.0,480.0,0.0,0.0
10714,73.0,1.0,480.0,0.0,0.0
10715,73.0,6.0,480.0,1.0,0.0
10716,49.0,473.0,480.0,3.0,0.0
10717,61.0,0.0,480.0,3.0,0.0
10718,70.0,0.0,480.0,0.0,0.0
10719,82.0,1.0,480.0,0.0,0.0
10720,70.0,6.0,480.0,1.0,0.0
10721,46.0,0.0,480.0,3.0,0.0
10722,58.0,473.0,480.0,3.0,0.0
10723,67.0,1.0,480.0,0.0,0.0
10724,79.0,0.0,480.0,0.0,0.0
10725,67.0,6.0,480.0,1.0,0.0
10726,55.0,382.0,480.0,3.0,0.0
10727,43.0,0.0,480.0,3.0,0.0
10728,63.0,0.0,480.0,0.0,0.0
10729,75.0,1.0,480.0,0.0,0.0
10730,63.0,6.0,480.0,1.0,0.0
10731,39.0,300.0,480.0,3.0,0.0
10732,51.0,0.0,480.0,3.0,0.0
10733,63.0,3.0,30.0,10.0,0.0
10734,63.0,2.0,30.0,11.0,0.0
10735,63.0,2.0,30.0,12.0,0.0
10736,51.0,4.0,30.0,13.0,0.0
10737,39.0,19.0,30.0,14.0,0.0
10738,61.0,3.0,30.0,10.0,0.0
10739,61.0,2.0,30.0,11.0,0.0
10740,61.0,2.0,30.0,12.0,0.0
10741,49.0,4.0,30.0,13.0,0.0
10742,37.0,19.0,30.0,14.0,0.0
10743,60.0,3.0,30.0,10.0,0.0
10744,60.0,2.0,30.0,11.0,0.0
10745,60.0,2.0,30.0,12.0,0.0
10746,48.0,4.0,30.0,13.0,0.0
10747,36.0,6.0,30.0,14.0,0.0
10748,58.0,3.0,15.0,10.0,0.0
10749,58.0,2.0,15.0,11.0,0.0
10750,58.0,2.0,15.0,12.0,0.0
10751,46.0,4.0,15.0,13.0,0.0
10752,34.0,3.0,15.0,14.0,0.0
10753,56.0,1.0,300.0,10.0,0.0
10754,80.0,1.0,300.0,0.0,0.0
10755,56.0,2.0,360.0,6.0,0.0
10756,68.0,0.0,360.0,6.0,0.0
10757,68.0,1.0,300.0,1.0,0.0
10758,56.0,0.0,360.0,4.0,0.0
10759,56.0,2.0,300.0,11.0,0.0
10760,68.0,0.0,300.0,2.0,0.0
10761,44.0,6.0,360.0,5.0,0.0
10762,56.0,2.0,300.0,12.0,0.0
10763,44.0,1.0,300.0,13.0,0.0
10764,44.0,3.0,300.0,3.0,0.0
10765,44.0,80.0,360.0,15.0,0.0
10766,32.0,43.0,300.0,14.0,0.0
10767,51.0,1.0,90.0,10.0,0.0
10768,75.0,1.0,90.0,0.0,0.0
10769,63.0,1.0,90.0,1.0,0.0
10770,63.0,0.0,90.0,2.0,0.0
10771,51.0,2.0,90.0,11.0,0.0
10772,51.0,2.0,90.0,12.0,0.0
10773,39.0,1.0,90.0,13.0,0.0
10774,39.0,3.0,90.0,3.0,0.0
10775,27.0,9.0,90.0,14.0,0.0
10776,55.0,1.0,20.0,10.0,0.0
10777,79.0,1.0,20.0,0.0,0.0
10778,67.0,1.0,20.0,1.0,0.0
10779,55.0,0.0,20.0,11.0,0.0
10780,67.0,2.0,20.0,2.0,0.0
10781,55.0,2.0,20.0,12.0,0.0
10782,43.0,1.0,20.0,13.0,0.0
10783,43.0,3.0,20.0,3.0,0.0
10784,31.0,307.0,20.0,14.0,0.0
10785,56.0,1.0,300.0,10.0,0.0
10786,80.0,1.0,300.0,0.0,0.0
10787,68.0,2.0,360.0,6.0,0.0
10788,56.0,0.0,360.0,4.0,0.0
10789,56.0,0.0,360.0,6.0,0.0
10790,68.0,1.0,300.0,1.0,0.0
10791,68.0,0.0,300.0,2.0,0.0
10792,56.0,2.0,300.0,11.0,0.0
10793,44.0,6.0,360.0,5.0,0.0
10794,56.0,2.0,300.0,12.0,0.0
10795,44.0,1.0,300.0,13.0,0.0
10796,44.0,3.0,300.0,3.0,0.0
10797,44.0,80.0,360.0,15.0,0.0
10798,32.0,43.0,300.0,14.0,0.0
10799,51.0,1.0,90.0,10.0,0.0
10800,75.0,1.0,90.0,0.0,0.0
10801,63.0,1.0,90.0,1.0,0.0
10802,63.0,0.0,90.0,2.0,0.0
10803,51.0,2.0,90.0,11.0,0.0
10804,51.0,2.0,90.0,12.0,0.0
10805,39.0,1.0,90.0,13.0,0.0
10806,39.0,3.0,90.0,3.0,0.0
10807,27.0,9.0,90.0,14.0,0.0
10808,55.0,1.0,20.0,10.0,0.0
10809,79.0,1.0,20.0,0.0,0.0
10810,67.0,1.0,20.0,1.0,0.0
10811,67.0,2.0,20.0,2.0,0.0
10812,55.0,0.0,20.0,11.0,0.0
10813,55.0,2.0,20.0,12.0,0.0
10814,43.0,1.0,20.0,13.0,0.0
10815,43.0,3.0,20.0,3.0,0.0
10816,31.0,29.0,20.0,14.0,0.0
10817,56.0,1.0,30.0,10.0,0.0
10818,80.0,1.0,30.0,0.0,0.0
10819,56.0,0.0,120.0,6.0,0.0
10820,68.0,2.0,120.0,6.0,0.0
10821,56.0,0.0,120.0,4.0,0.0
10822,68.0,1.0,30.0,1.0,0.0
10823,68.0,2.0,30.0,2.0,0.0
10824,56.0,0.0,30.0,11.0,0.0
10825,44.0,6.0,120.0,5.0,0.0
10826,56.0,2.0,30.0,12.0,0.0
10827,44.0,1.0,30.0,13.0,0.0
10828,44.0,3.0,30.0,3.0,0.0
10829,44.0,20.0,120.0,15.0,0.0
10830,32.0,49.0,30.0,14.0,0.0
10831,56.0,1.0,30.0,10.0,0.0
10832,80.0,1.0,30.0,0.0,0.0
10833,68.0,1.0,30.0,1.0,0.0
10834,68.0,2.0,30.0,2.0,0.0
10835,56.0,0.0,30.0,11.0,0.0
10836,56.0,2.0,30.0,12.0,0.0
10837,44.0,1.0,30.0,13.0,0.0
10838,44.0,3.0,30.0,3.0,0.0
10839,32.0,21.0,30.0,14.0,0.0
10840,51.0,1.0,30.0,10.0,0.0
10841,75.0,1.0,30.0,0.0,0.0
10842,63.0,1.0,30.0,1.0,0.0
10843,51.0,0.0,30.0,11.0,0.0
10844,63.0,2.0,30.0,2.0,0.0
10845,51.0,2.0,30.0,12.0,0.0
10846,39.0,1.0,30.0,13.0,0.0
10847,39.0,3.0,30.0,3.0,0.0
10848,27.0,49.0,30.0,14.0,0.0
10849,55.0,1.0,30.0,10.0,0.0
10850,79.0,1.0,30.0,0.0,0.0
10851,67.0,1.0,30.0,1.0,0.0
10852,55.0,2.0,30.0,11.0,0.0
10853,67.0,0.0,30.0,2.0,0.0
10854,55.0,2.0,30.0,12.0,0.0
10855,43.0,1.0,30.0,13.0,0.0
10856,43.0,3.0,30.0,3.0,0.0
10857,31.0,49.0,30.0,14.0,0.0
10858,56.0,1.0,30.0,10.0,0.0
10859,80.0,1.0,30.0,0.0,0.0
10860,56.0,0.0,120.0,4.0,0.0
10861,68.0,0.0,120.0,6.0,0.0
10862,68.0,1.0,30.0,1.0,0.0
10863,56.0,2.0,120.0,6.0,0.0
10864,56.0,2.0,30.0,11.0,0.0
10865,68.0,0.0,30.0,2.0,0.0
10866,44.0,6.0,120.0,5.0,0.0
10867,56.0,2.0,30.0,12.0,0.0
10868,44.0,1.0,30.0,13.0,0.0
10869,44.0,3.0,30.0,3.0,0.0
10870,44.0,20.0,120.0,15.0,0.0
10871,32.0,49.0,30.0,14.0,0.0
10872,56.0,1.0,30.0,10.0,0.0
10873,80.0,1.0,30.0,0.0,0.0
10874,68.0,1.0,30.0,1.0,0.0
10875,68.0,2.0,30.0,2.0,0.0
10876,56.0,0.0,30.0,11.0,0.0
10877,56.0,2.0,30.0,12.0,0.0
10878,44.0,1.0,30.0,13.0,0.0
10879,44.0,3.0,30.0,3.0,0.0
10880,32.0,21.0,30.0,14.0,0.0
10881,51.0,1.0,30.0,10.0,0.0
10882,75.0,1.0,30.0,0.0,0.0
10883,63.0,1.0,30.0,1.0,0.0
10884,51.0,2.0,30.0,11.0,0.0
10885,63.0,0.0,30.0,2.0,0.0
10886,51.0,2.0,30.0,12.0,0.0
10887,39.0,1.0,30.0,13.0,0.0
10888,39.0,3.0,30.0,3.0,0.0
10889,27.0,49.0,30.0,14.0,0.0
10890,55.0,1.0,30.0,10.0,0.0
10891,79.0,1.0,30.0,0.0,0.0
10892,67.0,1.0,30.0,1.0,0.0
10893,67.0,0.0,30.0,2.0,0.0
10894,55.0,2.0,30.0,11.0,0.0
10895,55.0,2.0,30.0,12.0,0.0
10896,43.0,1.0,30.0,13.0,0.0
10897,43.0,3.0,30.0,3.0,0.0
10898,31.0,79.0,30.0,14.0,0.0
10899,56.0,1.0,60.0,10.0,0.0
10900,80.0,1.0,60.0,0.0,0.0
10901,68.0,1.0,60.0,1.0,0.0
10902,56.0,2.0,120.0,4.0,0.0
10903,68.0,0.0,120.0,6.0,0.0
10904,56.0,0.0,120.0,6.0,0.0
10905,68.0,2.0,60.0,2.0,0.0
10906,56.0,0.0,60.0,11.0,0.0
10907,44.0,6.0,120.0,5.0,0.0
10908,56.0,2.0,60.0,12.0,0.0
10909,44.0,1.0,60.0,13.0,0.0
10910,44.0,3.0,60.0,3.0,0.0
10911,44.0,50.0,120.0,15.0,0.0
10912,32.0,51.0,60.0,14.0,0.0
10913,60.0,1.0,60.0,10.0,0.0
10914,84.0,0.0,60.0,0.0,0.0
10915,72.0,1.0,60.0,0.0,0.0
10916,72.0,1.0,60.0,1.0,0.0
10917,60.0,2.0,60.0,11.0,0.0
10918,72.0,0.0,60.0,2.0,0.0
10919,60.0,2.0,60.0,12.0,0.0
10920,48.0,1.0,60.0,13.0,0.0
10921,48.0,3.0,60.0,3.0,0.0
10922,36.0,109.0,60.0,14.0,0.0
10923,63.0,1.0,60.0,10.0,0.0
10924,87.0,1.0,60.0,0.0,0.0
10925,75.0,0.0,60.0,0.0,0.0
10926,75.0,1.0,60.0,1.0,0.0
10927,63.0,0.0,60.0,11.0,0.0
10928,75.0,2.0,60.0,2.0,0.0
10929,63.0,2.0,60.0,12.0,0.0
10930,51.0,1.0,60.0,13.0,0.0
10931,51.0,3.0,60.0,3.0,0.0
10932,39.0,109.0,60.0,14.0,0.0
10933,67.0,1.0,60.0,10.0,0.0
10934,79.0,0.0,60.0,0.0,0.0
10935,63.0,1.0,60.0,0.0,0.0
10936,67.0,1.0,60.0,1.0,0.0
10937,67.0,2.0,60.0,11.0,0.0
10938,67.0,0.0,60.0,2.0,0.0
10939,55.0,2.0,60.0,12.0,0.0
10940,55.0,1.0,60.0,13.0,0.0
10941,55.0,3.0,60.0,3.0,0.0
10942,43.0,169.0,60.0,14.0,0.0
10943,68.0,1.0,120.0,10.0,0.0
10944,80.0,1.0,480.0,0.0,0.0
10945,68.0,2.0,120.0,0.0,0.0
10946,68.0,0.0,480.0,1.0,0.0
10947,72.0,6.0,480.0,1.0,0.0
10948,68.0,0.0,120.0,11.0,0.0
10949,68.0,2.0,120.0,2.0,0.0
10950,56.0,2.0,120.0,12.0,0.0
10951,56.0,4.0,120.0,13.0,0.0
10952,56.0,382.0,480.0,3.0,0.0
10953,60.0,0.0,960.0,3.0,0.0
10954,44.0,350.0,120.0,14.0,0.0
10955,81.0,1.0,480.0,0.0,0.0
10956,75.0,0.0,480.0,1.0,0.0
10957,69.0,1.0,480.0,1.0,0.0
10958,60.0,5.0,480.0,2.0,0.0
10959,63.0,0.0,480.0,2.0,0.0
10960,53.0,300.0,480.0,3.0,0.0
10961,65.0,3.0,30.0,10.0,0.0
10962,65.0,2.0,30.0,11.0,0.0
10963,53.0,2.0,30.0,12.0,0.0
10964,53.0,4.0,30.0,13.0,0.0
10965,41.0,19.0,30.0,14.0,0.0
10966,63.0,3.0,30.0,10.0,0.0
10967,63.0,2.0,30.0,11.0,0.0
10968,51.0,2.0,30.0,12.0,0.0
10969,51.0,4.0,30.0,13.0,0.0
10970,39.0,19.0,30.0,14.0,0.0
10971,61.0,3.0,30.0,10.0,0.0
10972,61.0,2.0,30.0,11.0,0.0
10973,49.0,2.0,30.0,12.0,0.0
10974,49.0,4.0,30.0,13.0,0.0
10975,37.0,9.0,30.0,14.0,0.0
10976,60.0,3.0,20.0,10.0,0.0
10977,60.0,2.0,20.0,11.0,0.0
10978,48.0,2.0,20.0,12.0,0.0
10979,48.0,4.0,20.0,13.0,0.0
10980,36.0,0.0,20.0,14.0,0.0
10981,58.0,1.0,300.0,10.0,0.0
10982,82.0,1.0,300.0,0.0,0.0
10983,73.0,0.0,300.0,1.0,0.0
10984,70.0,1.0,300.0,1.0,0.0
10985,58.0,2.0,360.0,4.0,0.0
10986,61.0,0.0,300.0,2.0,0.0
10987,58.0,2.0,300.0,11.0,0.0
10988,58.0,86.0,360.0,5.0,0.0
10989,58.0,2.0,300.0,12.0,0.0
10990,46.0,0.0,300.0,12.0,0.0
10991,46.0,1.0,300.0,13.0,0.0
10992,46.0,0.0,300.0,3.0,0.0
10993,58.0,3.0,300.0,3.0,0.0
10994,34.0,43.0,300.0,14.0,0.0
10995,53.0,1.0,90.0,10.0,0.0
10996,77.0,1.0,90.0,0.0,0.0
10997,65.0,1.0,90.0,1.0,0.0
10998,65.0,2.0,90.0,2.0,0.0
10999,53.0,0.0,90.0,11.0,0.0
11000,53.0,2.0,90.0,12.0,0.0
11001,41.0,1.0,90.0,13.0,0.0
11002,41.0,3.0,90.0,3.0,0.0
11003,53.0,0.0,90.0,3.0,0.0
11004,29.0,9.0,90.0,14.0,0.0
11005,57.0,1.0,20.0,10.0,0.0
11006,81.0,1.0,20.0,0.0,0.0
11007,69.0,1.0,20.0,1.0,0.0
11008,69.0,2.0,20.0,2.0,0.0
11009,57.0,0.0,20.0,11.0,0.0
11010,57.0,2.0,20.0,12.0,0.0
11011,45.0,1.0,20.0,13.0,0.0
11012,45.0,0.0,20.0,3.0,0.0
11013,57.0,3.0,20.0,3.0,0.0
11014,33.0,307.0,20.0,14.0,0.0
11015,58.0,1.0,300.0,10.0,0.0
11016,82.0,1.0,300.0,0.0,0.0
11017,58.0,0.0,360.0,4.0,0.0
11018,70.0,2.0,360.0,6.0,0.0
11019,70.0,1.0,300.0,1.0,0.0
11020,58.0,2.0,300.0,11.0,0.0
11021,70.0,0.0,300.0,2.0,0.0
11022,58.0,86.0,360.0,5.0,0.0
11023,58.0,2.0,300.0,12.0,0.0
11024,46.0,1.0,300.0,13.0,0.0
11025,46.0,3.0,300.0,3.0,0.0
11026,58.0,0.0,300.0,3.0,0.0
11027,34.0,43.0,300.0,14.0,0.0
11028,53.0,1.0,90.0,10.0,0.0
11029,77.0,1.0,90.0,0.0,0.0
11030,65.0,1.0,90.0,1.0,0.0
11031,53.0,2.0,90.0,11.0,0.0
11032,65.0,0.0,90.0,2.0,0.0
11033,53.0,2.0,90.0,12.0,0.0
11034,41.0,1.0,90.0,13.0,0.0
11035,53.0,3.0,90.0,3.0,0.0
11036,41.0,0.0,90.0,3.0,0.0
11037,29.0,9.0,90.0,14.0,0.0
11038,57.0,1.0,20.0,10.0,0.0
11039,81.0,1.0,20.0,0.0,0.0
11040,69.0,1.0,20.0,1.0,0.0
11041,57.0,2.0,20.0,11.0,0.0
11042,69.0,0.0,20.0,2.0,0.0
11043,57.0,2.0,20.0,12.0,0.0
11044,45.0,1.0,20.0,13.0,0.0
11045,57.0,0.0,20.0,3.0,0.0
11046,45.0,3.0,20.0,3.0,0.0
11047,33.0,29.0,20.0,14.0,0.0
11048,58.0,1.0,30.0,10.0,0.0
11049,82.0,1.0,30.0,0.0,0.0
11050,70.0,1.0,30.0,1.0,0.0
11051,58.0,0.0,120.0,4.0,0.0
11052,70.0,2.0,120.0,6.0,0.0
11053,70.0,0.0,30.0,2.0,0.0
11054,58.0,2.0,30.0,11.0,0.0
11055,58.0,26.0,120.0,5.0,0.0
11056,58.0,2.0,30.0,12.0,0.0
11057,46.0,1.0,30.0,13.0,0.0
11058,46.0,3.0,30.0,3.0,0.0
11059,58.0,0.0,30.0,3.0,0.0
11060,34.0,49.0,30.0,14.0,0.0
11061,58.0,1.0,30.0,10.0,0.0
11062,82.0,1.0,30.0,0.0,0.0
11063,70.0,1.0,30.0,1.0,0.0
11064,70.0,0.0,30.0,2.0,0.0
11065,58.0,2.0,30.0,11.0,0.0
11066,58.0,2.0,30.0,12.0,0.0
11067,46.0,1.0,30.0,13.0,0.0
11068,46.0,3.0,30.0,3.0,0.0
11069,58.0,0.0,30.0,3.0,0.0
11070,34.0,21.0,30.0,14.0,0.0
11071,53.0,1.0,30.0,10.0,0.0
11072,77.0,1.0,30.0,0.0,0.0
11073,65.0,1.0,30.0,1.0,0.0
11074,65.0,0.0,30.0,2.0,0.0
11075,53.0,2.0,30.0,11.0,0.0
11076,53.0,2.0,30.0,12.0,0.0
11077,41.0,1.0,30.0,13.0,0.0
11078,53.0,3.0,30.0,3.0,0.0
11079,41.0,0.0,30.0,3.0,0.0
11080,29.0,49.0,30.0,14.0,0.0
11081,57.0,1.0,30.0,10.0,0.0
11082,81.0,1.0,30.0,0.0,0.0
11083,69.0,1.0,30.0,1.0,0.0
11084,57.0,0.0,30.0,11.0,0.0
11085,69.0,2.0,30.0,2.0,0.0
11086,57.0,2.0,30.0,12.0,0.0
11087,45.0,1.0,30.0,13.0,0.0
11088,45.0,0.0,30.0,3.0,0.0
11089,57.0,3.0,30.0,3.0,0.0
11090,33.0,49.0,30.0,14.0,0.0
11091,58.0,1.0,30.0,10.0,0.0
11092,82.0,1.0,30.0,0.0,0.0
11093,70.0,2.0,120.0,6.0,0.0
11094,70.0,1.0,30.0,1.0,0.0
11095,58.0,0.0,120.0,4.0,0.0
11096,70.0,2.0,30.0,2.0,0.0
11097,58.0,0.0,30.0,11.0,0.0
11098,58.0,26.0,120.0,5.0,0.0
11099,58.0,2.0,30.0,12.0,0.0
11100,46.0,1.0,30.0,13.0,0.0
11101,58.0,0.0,30.0,3.0,0.0
11102,46.0,3.0,30.0,3.0,0.0
11103,34.0,49.0,30.0,14.0,0.0
11104,58.0,1.0,30.0,10.0,0.0
11105,82.0,1.0,30.0,0.0,0.0
11106,70.0,1.0,30.0,1.0,0.0
11107,70.0,2.0,30.0,2.0,0.0
11108,58.0,0.0,30.0,11.0,0.0
11109,58.0,2.0,30.0,12.0,0.0
11110,46.0,1.0,30.0,13.0,0.0
11111,58.0,0.0,30.0,3.0,0.0
11112,46.0,3.0,30.0,3.0,0.0
11113,34.0,21.0,30.0,14.0,0.0
11114,53.0,1.0,30.0,10.0,0.0
11115,77.0,1.0,30.0,0.0,0.0
11116,65.0,1.0,30.0,1.0,0.0
11117,65.0,2.0,30.0,2.0,0.0
11118,53.0,0.0,30.0,11.0,0.0
11119,53.0,2.0,30.0,12.0,0.0
11120,41.0,1.0,30.0,13.0,0.0
11121,53.0,0.0,30.0,3.0,0.0
11122,41.0,3.0,30.0,3.0,0.0
11123,29.0,49.0,30.0,14.0,0.0
11124,57.0,1.0,30.0,10.0,0.0
11125,81.0,1.0,30.0,0.0,0.0
11126,69.0,1.0,30.0,1.0,0.0
11127,69.0,0.0,30.0,2.0,0.0
11128,57.0,2.0,30.0,11.0,0.0
11129,57.0,2.0,30.0,12.0,0.0
11130,45.0,1.0,30.0,13.0,0.0
11131,57.0,3.0,30.0,3.0,0.0
11132,45.0,0.0,30.0,3.0,0.0
11133,33.0,79.0,30.0,14.0,0.0
11134,58.0,1.0,60.0,10.0,0.0
11135,82.0,1.0,60.0,0.0,0.0
11136,70.0,0.0,120.0,6.0,0.0
11137,70.0,1.0,60.0,1.0,0.0
11138,58.0,2.0,120.0,4.0,0.0
11139,58.0,0.0,60.0,11.0,0.0
11140,70.0,2.0,60.0,2.0,0.0
11141,58.0,56.0,120.0,5.0,0.0
11142,58.0,2.0,60.0,12.0,0.0
11143,46.0,1.0,60.0,13.0,0.0
11144,46.0,0.0,60.0,3.0,0.0
11145,58.0,3.0,60.0,3.0,0.0
11146,34.0,51.0,60.0,14.0,0.0
11147,61.0,1.0,60.0,10.0,0.0
11148,73.0,1.0,60.0,0.0,0.0
11149,73.0,1.0,60.0,1.0,0.0
11150,73.0,2.0,60.0,2.0,0.0
11151,61.0,0.0,60.0,11.0,0.0
11152,61.0,2.0,60.0,12.0,0.0
11153,49.0,1.0,60.0,13.0,0.0
11154,49.0,3.0,60.0,3.0,0.0
11155,37.0,109.0,60.0,14.0,0.0
11156,65.0,1.0,60.0,10.0,0.0
11157,77.0,1.0,60.0,0.0,0.0
11158,77.0,1.0,60.0,1.0,0.0
11159,65.0,0.0,60.0,11.0,0.0
11160,77.0,2.0,60.0,2.0,0.0
11161,65.0,2.0,60.0,12.0,0.0
11162,53.0,1.0,60.0,13.0,0.0
11163,53.0,3.0,60.0,3.0,0.0
11164,41.0,109.0,60.0,14.0,0.0
11165,69.0,1.0,60.0,10.0,0.0
11166,69.0,1.0,60.0,0.0,0.0
11167,69.0,1.0,60.0,1.0,0.0
11168,69.0,0.0,60.0,11.0,0.0
11169,69.0,2.0,60.0,2.0,0.0
11170,57.0,2.0,60.0,12.0,0.0
11171,57.0,1.0,60.0,13.0,0.0
11172,57.0,3.0,60.0,3.0,0.0
11173,45.0,169.0,60.0,14.0,0.0
11174,70.0,3.0,120.0,10.0,0.0
11175,70.0,1.0,480.0,1.0,0.0
11176,61.0,0.0,480.0,2.0,0.0
11177,65.0,5.0,480.0,2.0,0.0
11178,70.0,2.0,120.0,11.0,0.0
11179,58.0,2.0,120.0,12.0,0.0
11180,58.0,4.0,120.0,13.0,0.0
11181,58.0,387.0,480.0,3.0,0.0
11182,46.0,351.0,120.0,14.0,0.0
11183,72.0,1.0,480.0,1.0,0.0
11184,56.0,2.0,600.0,6.0,0.0
11185,56.0,0.0,600.0,4.0,0.0
11186,66.0,5.0,480.0,2.0,0.0
11187,63.0,0.0,480.0,2.0,0.0
11188,44.0,1.0,600.0,5.0,0.0
11189,44.0,114.0,480.0,3.0,0.0
11190,56.0,0.0,960.0,3.0,0.0
11191,56.0,2.0,30.0,12.0,0.0
11192,56.0,4.0,30.0,13.0,0.0
11193,44.0,24.0,30.0,14.0,0.0
11194,54.0,2.0,30.0,12.0,0.0
11195,54.0,4.0,30.0,13.0,0.0
11196,42.0,24.0,30.0,14.0,0.0
11197,53.0,2.0,30.0,12.0,0.0
11198,53.0,4.0,30.0,13.0,0.0
11199,41.0,14.0,30.0,14.0,0.0
11200,51.0,2.0,20.0,12.0,0.0
11201,51.0,4.0,20.0,13.0,0.0
11202,39.0,1.0,20.0,14.0,0.0
11203,73.0,0.0,480.0,1.0,0.0
11204,65.0,1.0,480.0,1.0,0.0
11205,61.0,0.0,480.0,2.0,0.0
11206,65.0,5.0,480.0,2.0,0.0
11207,49.0,2.0,120.0,12.0,0.0
11208,49.0,4.0,120.0,13.0,0.0
11209,49.0,382.0,480.0,3.0,0.0
11210,37.0,351.0,120.0,14.0,0.0
11211,74.0,0.0,480.0,1.0,0.0
11212,68.0,1.0,480.0,1.0,0.0
11213,58.0,1.0,720.0,4.0,0.0
11214,62.0,5.0,480.0,2.0,0.0
11215,68.0,0.0,480.0,2.0,0.0
11216,58.0,4.0,720.0,5.0,0.0
11217,46.0,112.0,480.0,3.0,0.0
11218,58.0,147.0,720.0,3.0,0.0
11219,70.0,3.0,30.0,10.0,0.0
11220,58.0,27.0,30.0,11.0,0.0
11221,68.0,3.0,30.0,10.0,0.0
11222,56.0,27.0,30.0,11.0,0.0
11223,67.0,3.0,30.0,10.0,0.0
11224,55.0,17.0,30.0,11.0,0.0
11225,65.0,3.0,20.0,10.0,0.0
11226,53.0,9.0,20.0,11.0,0.0
11227,63.0,3.0,120.0,10.0,0.0
11228,75.0,0.0,240.0,1.0,0.0
11229,67.0,0.0,240.0,1.0,0.0
11230,63.0,1.0,240.0,2.0,0.0
11231,51.0,119.0,120.0,11.0,0.0
11232,67.0,0.0,240.0,2.0,0.0
11233,51.0,0.0,240.0,3.0,0.0
11234,76.0,1.0,240.0,1.0,0.0
11235,67.0,0.0,240.0,1.0,0.0
11236,60.0,0.0,480.0,4.0,0.0
11237,64.0,5.0,240.0,2.0,0.0
11238,70.0,0.0,240.0,2.0,0.0
11239,48.0,4.0,480.0,5.0,0.0
11240,48.0,117.0,240.0,3.0,0.0
11241,60.0,0.0,480.0,3.0,0.0
11242,60.0,2.0,30.0,12.0,0.0
11243,48.0,4.0,30.0,13.0,0.0
11244,36.0,24.0,30.0,14.0,0.0
11245,58.0,2.0,30.0,12.0,0.0
11246,46.0,4.0,30.0,13.0,0.0
11247,34.0,24.0,30.0,14.0,0.0
11248,56.0,2.0,30.0,12.0,0.0
11249,44.0,4.0,30.0,13.0,0.0
11250,32.0,14.0,30.0,14.0,0.0
11251,55.0,2.0,20.0,12.0,0.0
11252,43.0,4.0,20.0,13.0,0.0
11253,31.0,1.0,20.0,14.0,0.0
11254,68.0,0.0,240.0,1.0,0.0
11255,65.0,1.0,240.0,2.0,0.0
11256,53.0,2.0,120.0,12.0,0.0
11257,41.0,4.0,120.0,13.0,0.0
11258,53.0,142.0,240.0,3.0,0.0
11259,29.0,111.0,120.0,14.0,0.0
11260,77.0,1.0,240.0,0.0,0.0
11261,77.0,1.0,15.0,1.0,0.0
11262,71.0,0.0,240.0,1.0,0.0
11263,68.0,0.0,15.0,2.0,0.0
11264,65.0,5.0,240.0,2.0,0.0
11265,61.0,114.0,480.0,3.0,0.0
11266,49.0,112.0,240.0,3.0,0.0
11267,73.0,3.0,30.0,10.0,0.0
11268,61.0,27.0,30.0,11.0,0.0
11269,71.0,3.0,30.0,10.0,0.0
11270,59.0,27.0,30.0,11.0,0.0
11271,70.0,3.0,30.0,10.0,0.0
11272,58.0,17.0,30.0,11.0,0.0
11273,68.0,3.0,20.0,10.0,0.0
11274,56.0,8.0,20.0,11.0,0.0
11275,66.0,3.0,120.0,10.0,0.0
11276,78.0,1.0,240.0,0.0,0.0
11277,78.0,1.0,240.0,1.0,0.0
11278,70.0,33.0,360.0,1.0,0.0
11279,66.0,5.0,240.0,2.0,0.0
11280,70.0,0.0,240.0,2.0,0.0
11281,54.0,118.0,120.0,11.0,0.0
11282,54.0,0.0,240.0,3.0,0.0
11283,79.0,1.0,240.0,0.0,0.0
11284,63.0,0.0,240.0,4.0,0.0
11285,73.0,1.0,240.0,1.0,0.0
11286,73.0,1.0,240.0,2.0,0.0
11287,67.0,0.0,240.0,2.0,0.0
11288,51.0,4.0,240.0,5.0,0.0
11289,63.0,142.0,480.0,3.0,0.0
11290,51.0,117.0,240.0,3.0,0.0
11291,67.0,0.0,120.0,1.0,0.0
11292,63.0,2.0,30.0,12.0,0.0
11293,51.0,4.0,30.0,13.0,0.0
11294,39.0,24.0,30.0,14.0,0.0
11295,61.0,2.0,30.0,12.0,0.0
11296,49.0,4.0,30.0,13.0,0.0
11297,37.0,24.0,30.0,14.0,0.0
11298,60.0,2.0,30.0,12.0,0.0
11299,48.0,4.0,30.0,13.0,0.0
11300,36.0,14.0,30.0,14.0,0.0
11301,58.0,2.0,20.0,12.0,0.0
11302,46.0,4.0,20.0,13.0,0.0
11303,34.0,0.0,20.0,14.0,0.0
11304,80.0,1.0,240.0,0.0,0.0
11305,56.0,0.0,240.0,4.0,0.0
11306,68.0,1.0,240.0,1.0,0.0
11307,72.0,0.0,240.0,2.0,0.0
11308,68.0,1.0,240.0,2.0,0.0
11309,44.0,4.0,240.0,5.0,0.0
11310,56.0,2.0,120.0,12.0,0.0
11311,44.0,4.0,120.0,13.0,0.0
11312,56.0,0.0,240.0,3.0,0.0
11313,32.0,110.0,120.0,14.0,0.0
11314,75.0,0.0,240.0,0.0,0.0
11315,81.0,1.0,240.0,0.0,0.0
11316,72.0,0.0,15.0,1.0,0.0
11317,69.0,0.0,240.0,1.0,0.0
11318,53.0,112.0,240.0,3.0,0.0
11319,63.0,0.0,240.0,3.0,0.0
11320,77.0,3.0,30.0,10.0,0.0
11321,65.0,27.0,30.0,11.0,0.0
11322,75.0,3.0,30.0,10.0,0.0
11323,63.0,27.0,30.0,11.0,0.0
11324,73.0,3.0,30.0,10.0,0.0
11325,61.0,17.0,30.0,11.0,0.0
11326,72.0,3.0,20.0,10.0,0.0
11327,60.0,8.0,20.0,11.0,0.0
11328,70.0,3.0,120.0,10.0,0.0
11329,82.0,1.0,240.0,0.0,0.0
11330,73.0,0.0,240.0,0.0,0.0
11331,70.0,6.0,240.0,1.0,0.0
11332,73.0,0.0,240.0,1.0,0.0
11333,58.0,118.0,120.0,11.0,0.0
11334,58.0,0.0,240.0,3.0,0.0
11335,61.0,147.0,240.0,3.0,0.0
11336,78.0,1.0,240.0,0.0,0.0
11337,84.0,0.0,240.0,0.0,0.0
11338,72.0,1.0,240.0,1.0,0.0
11339,66.0,0.0,240.0,1.0,0.0
11340,63.0,0.0,240.0,2.0,0.0
11341,66.0,5.0,240.0,2.0,0.0
11342,63.0,57.0,240.0,3.0,0.0
11343,56.0,0.0,240.0,3.0,0.0
11344,68.0,2.0,30.0,12.0,0.0
11345,56.0,4.0,30.0,13.0,0.0
11346,44.0,24.0,30.0,14.0,0.0
11347,66.0,2.0,30.0,12.0,0.0
11348,54.0,4.0,30.0,13.0,0.0
11349,42.0,24.0,30.0,14.0,0.0
11350,65.0,2.0,30.0,12.0,0.0
11351,53.0,4.0,30.0,13.0,0.0
11352,41.0,14.0,30.0,14.0,0.0
11353,63.0,2.0,20.0,12.0,0.0
11354,51.0,4.0,20.0,13.0,0.0
11355,39.0,0.0,20.0,14.0,0.0
11356,77.0,1.0,240.0,0.0,0.0
11357,85.0,0.0,240.0,0.0,0.0
11358,65.0,1.0,240.0,1.0,0.0
11359,73.0,0.0,240.0,1.0,0.0
11360,61.0,5.0,240.0,2.0,0.0
11361,65.0,0.0,240.0,2.0,0.0
11362,61.0,2.0,60.0,12.0,0.0
11363,49.0,4.0,60.0,13.0,0.0
11364,49.0,0.0,240.0,3.0,0.0
11365,61.0,52.0,240.0,3.0,0.0
11366,37.0,79.0,60.0,14.0,0.0
11367,77.0,3.0,30.0,10.0,0.0
11368,65.0,2.0,30.0,11.0,0.0
11369,65.0,2.0,30.0,12.0,0.0
11370,53.0,4.0,30.0,13.0,0.0
11371,41.0,19.0,30.0,14.0,0.0
11372,75.0,3.0,30.0,10.0,0.0
11373,63.0,2.0,30.0,11.0,0.0
11374,63.0,2.0,30.0,12.0,0.0
11375,51.0,4.0,30.0,13.0,0.0
11376,39.0,19.0,30.0,14.0,0.0
11377,73.0,3.0,30.0,10.0,0.0
11378,61.0,2.0,30.0,11.0,0.0
11379,61.0,2.0,30.0,12.0,0.0
11380,49.0,4.0,30.0,13.0,0.0
11381,37.0,9.0,30.0,14.0,0.0
11382,72.0,3.0,20.0,10.0,0.0
11383,60.0,2.0,20.0,11.0,0.0
11384,60.0,2.0,20.0,12.0,0.0
11385,48.0,4.0,20.0,13.0,0.0
11386,36.0,0.0,20.0,14.0,0.0
11387,70.0,3.0,60.0,10.0,0.0
11388,80.0,0.0,240.0,0.0,0.0
11389,86.0,1.0,240.0,0.0,0.0
11390,68.0,0.0,240.0,1.0,0.0
11391,70.0,0.0,240.0,6.0,0.0
11392,74.0,1.0,240.0,1.0,0.0
11393,58.0,2.0,60.0,11.0,0.0
11394,68.0,0.0,240.0,2.0,0.0
11395,65.0,1.0,240.0,2.0,0.0
11396,58.0,4.0,240.0,5.0,0.0
11397,58.0,2.0,60.0,12.0,0.0
11398,46.0,4.0,60.0,13.0,0.0
11399,58.0,0.0,240.0,3.0,0.0
11400,46.0,47.0,240.0,3.0,0.0
11401,34.0,79.0,60.0,14.0,0.0
11402,70.0,3.0,30.0,10.0,0.0
11403,58.0,2.0,30.0,11.0,0.0
11404,58.0,2.0,30.0,12.0,0.0
11405,46.0,4.0,30.0,13.0,0.0
11406,34.0,19.0,30.0,14.0,0.0
11407,68.0,3.0,30.0,10.0,0.0
11408,56.0,2.0,30.0,11.0,0.0
11409,56.0,2.0,30.0,12.0,0.0
11410,44.0,4.0,30.0,13.0,0.0
11411,32.0,19.0,30.0,14.0,0.0
11412,67.0,3.0,30.0,10.0,0.0
11413,55.0,2.0,30.0,11.0,0.0
11414,55.0,2.0,30.0,12.0,0.0
11415,43.0,4.0,30.0,13.0,0.0
11416,31.0,9.0,30.0,14.0,0.0
11417,65.0,3.0,20.0,10.0,0.0
11418,53.0,2.0,20.0,11.0,0.0
11419,53.0,2.0,20.0,12.0,0.0
11420,41.0,4.0,20.0,13.0,0.0
11421,29.0,0.0,20.0,14.0,0.0
11422,63.0,1.0,60.0,10.0,0.0
11423,79.0,1.0,480.0,0.0,0.0
11424,87.0,0.0,360.0,0.0,0.0
11425,63.0,8.0,120.0,6.0,0.0
11426,67.0,0.0,360.0,1.0,0.0
11427,75.0,1.0,360.0,1.0,0.0
11428,58.0,0.0,15.0,4.0,0.0
11429,67.0,0.0,360.0,2.0,0.0
11430,63.0,0.0,360.0,2.0,0.0
11431,51.0,52.0,60.0,11.0,0.0
11432,51.0,51.0,480.0,5.0,0.0
11433,51.0,2.0,60.0,12.0,0.0
11434,39.0,3.0,60.0,13.0,0.0
11435,51.0,0.0,360.0,3.0,0.0
11436,39.0,1.0,360.0,3.0,0.0
11437,39.0,45.0,120.0,15.0,0.0
11438,27.0,2.0,60.0,14.0,0.0
11439,55.0,0.0,60.0,12.0,0.0
11440,58.0,2.0,60.0,12.0,0.0
11441,51.0,4.0,60.0,13.0,0.0
11442,39.0,1.0,60.0,14.0,0.0
11443,75.0,3.0,240.0,10.0,0.0
11444,63.0,1.0,240.0,11.0,0.0
11445,58.0,0.0,60.0,12.0,0.0
11446,55.0,2.0,60.0,12.0,0.0
11447,51.0,4.0,60.0,13.0,0.0
11448,39.0,54.0,60.0,14.0,0.0
11449,58.0,0.0,60.0,12.0,0.0
11450,55.0,2.0,60.0,12.0,0.0
11451,51.0,4.0,60.0,13.0,0.0
11452,39.0,54.0,60.0,14.0,0.0
11453,58.0,2.0,60.0,12.0,0.0
11454,55.0,0.0,60.0,12.0,0.0
11455,51.0,4.0,60.0,13.0,0.0
11456,39.0,49.0,60.0,14.0,0.0
11457,58.0,2.0,60.0,12.0,0.0
11458,55.0,0.0,60.0,12.0,0.0
11459,51.0,3.0,60.0,13.0,0.0
11460,39.0,29.0,60.0,14.0,0.0
11461,75.0,3.0,30.0,10.0,0.0
11462,85.0,0.0,120.0,0.0,0.0
11463,67.0,1.0,120.0,1.0,0.0
11464,73.0,0.0,120.0,1.0,0.0
11465,63.0,22.0,30.0,11.0,0.0
11466,67.0,0.0,120.0,2.0,0.0
11467,73.0,2.0,120.0,2.0,0.0
11468,58.0,2.0,60.0,12.0,0.0
11469,55.0,0.0,60.0,12.0,0.0
11470,51.0,3.0,60.0,13.0,0.0
11471,55.0,0.0,120.0,3.0,0.0
11472,58.0,1.0,120.0,3.0,0.0
11473,39.0,2.0,60.0,14.0,0.0
11474,73.0,1.0,30.0,10.0,0.0
11475,61.0,27.0,30.0,11.0,0.0
11476,72.0,3.0,30.0,10.0,0.0
11477,60.0,17.0,30.0,11.0,0.0
11478,55.0,0.0,60.0,12.0,0.0
11479,58.0,0.0,60.0,12.0,0.0
11480,51.0,3.0,60.0,13.0,0.0
11481,39.0,1.0,60.0,14.0,0.0
11482,70.0,3.0,20.0,10.0,0.0
11483,58.0,0.0,20.0,11.0,0.0
11484,72.0,1.0,60.0,10.0,0.0
11485,84.0,0.0,120.0,0.0,0.0
11486,80.0,1.0,120.0,0.0,0.0
11487,68.0,0.0,120.0,1.0,0.0
11488,60.0,2.0,120.0,4.0,0.0
11489,72.0,1.0,120.0,1.0,0.0
11490,72.0,0.0,120.0,2.0,0.0
11491,68.0,0.0,120.0,2.0,0.0
11492,60.0,50.0,60.0,11.0,0.0
11493,56.0,26.0,120.0,5.0,0.0
11494,60.0,2.0,60.0,12.0,0.0
11495,56.0,0.0,60.0,12.0,0.0
11496,51.0,3.0,60.0,13.0,0.0
11497,60.0,1.0,120.0,3.0,0.0
11498,56.0,0.0,120.0,3.0,0.0
11499,39.0,2.0,60.0,14.0,0.0
11500,56.0,0.0,60.0,12.0,0.0
11501,60.0,2.0,60.0,12.0,0.0
11502,51.0,3.0,60.0,13.0,0.0
11503,39.0,1.0,60.0,14.0,0.0
11504,72.0,3.0,30.0,10.0,0.0
11505,72.0,0.0,120.0,0.0,0.0
11506,80.0,1.0,120.0,0.0,0.0
11507,68.0,0.0,120.0,1.0,0.0
11508,72.0,1.0,120.0,1.0,0.0
11509,63.0,0.0,120.0,4.0,0.0
11510,68.0,0.0,120.0,6.0,0.0
11511,72.0,0.0,120.0,2.0,0.0
11512,68.0,2.0,120.0,2.0,0.0
11513,60.0,22.0,30.0,11.0,0.0
11514,51.0,6.0,120.0,5.0,0.0
11515,60.0,0.0,60.0,12.0,0.0
11516,56.0,2.0,60.0,12.0,0.0
11517,51.0,3.0,60.0,13.0,0.0
11518,56.0,1.0,120.0,3.0,0.0
11519,60.0,0.0,120.0,3.0,0.0
11520,39.0,45.0,120.0,15.0,0.0
11521,39.0,2.0,60.0,14.0,0.0
11522,70.0,1.0,30.0,10.0,0.0
11523,58.0,27.0,30.0,11.0,0.0
11524,68.0,3.0,30.0,10.0,0.0
11525,56.0,17.0,30.0,11.0,0.0
11526,56.0,0.0,60.0,12.0,0.0
11527,60.0,0.0,60.0,12.0,0.0
11528,51.0,3.0,60.0,13.0,0.0
11529,39.0,1.0,60.0,14.0,0.0
11530,67.0,3.0,20.0,10.0,0.0
11531,55.0,0.0,20.0,11.0,0.0
11532,68.0,1.0,60.0,10.0,0.0
11533,68.0,1.0,120.0,0.0,0.0
11534,77.0,0.0,120.0,0.0,0.0
11535,68.0,1.0,120.0,1.0,0.0
11536,56.0,2.0,15.0,6.0,0.0
11537,65.0,0.0,120.0,1.0,0.0
11538,68.0,0.0,120.0,6.0,0.0
11539,56.0,50.0,60.0,11.0,0.0
11540,65.0,0.0,120.0,2.0,0.0
11541,68.0,2.0,120.0,2.0,0.0
11542,56.0,2.0,60.0,12.0,0.0
11543,65.0,0.0,60.0,12.0,0.0
11544,51.0,3.0,60.0,13.0,0.0
11545,53.0,0.0,120.0,3.0,0.0
11546,56.0,1.0,120.0,3.0,0.0
11547,39.0,20.0,120.0,15.0,0.0
11548,39.0,2.0,60.0,14.0,0.0
11549,56.0,0.0,60.0,12.0,0.0
11550,65.0,0.0,60.0,12.0,0.0
11551,51.0,3.0,60.0,13.0,0.0
11552,39.0,1.0,60.0,14.0,0.0
11553,68.0,3.0,30.0,10.0,0.0
11554,74.0,0.0,120.0,0.0,0.0
11555,68.0,1.0,120.0,0.0,0.0
11556,56.0,0.0,120.0,6.0,0.0
11557,68.0,2.0,120.0,6.0,0.0
11558,63.0,2.0,15.0,4.0,0.0
11559,68.0,1.0,120.0,1.0,0.0
11560,65.0,0.0,120.0,1.0,0.0
11561,65.0,2.0,120.0,2.0,0.0
11562,68.0,0.0,120.0,2.0,0.0
11563,68.0,22.0,30.0,11.0,0.0
11564,51.0,6.0,15.0,5.0,0.0
11565,56.0,2.0,60.0,12.0,0.0
11566,65.0,0.0,60.0,12.0,0.0
11567,51.0,3.0,60.0,13.0,0.0
11568,56.0,0.0,120.0,3.0,0.0
11569,53.0,1.0,120.0,3.0,0.0
11570,39.0,45.0,120.0,15.0,0.0
11571,39.0,2.0,60.0,14.0,0.0
11572,65.0,1.0,30.0,10.0,0.0
11573,65.0,27.0,30.0,11.0,0.0
11574,63.0,3.0,30.0,10.0,0.0
11575,63.0,17.0,30.0,11.0,0.0
11576,65.0,0.0,60.0,12.0,0.0
11577,56.0,0.0,60.0,12.0,0.0
11578,51.0,3.0,60.0,13.0,0.0
11579,39.0,1.0,60.0,14.0,0.0
11580,62.0,3.0,20.0,10.0,0.0
11581,62.0,0.0,20.0,11.0,0.0
11582,63.0,1.0,60.0,10.0,0.0
11583,67.0,1.0,120.0,0.0,0.0
11584,75.0,0.0,120.0,0.0,0.0
11585,63.0,8.0,120.0,6.0,0.0
11586,51.0,0.0,120.0,6.0,0.0
11587,63.0,2.0,360.0,4.0,0.0
11588,67.0,1.0,120.0,1.0,0.0
11589,67.0,2.0,120.0,2.0,0.0
11590,63.0,50.0,60.0,11.0,0.0
11591,55.0,2.0,60.0,12.0,0.0
11592,63.0,0.0,60.0,12.0,0.0
11593,39.0,3.0,60.0,13.0,0.0
11594,55.0,1.0,120.0,3.0,0.0
11595,51.0,0.0,120.0,3.0,0.0
11596,39.0,45.0,120.0,15.0,0.0
11597,27.0,2.0,60.0,14.0,0.0
11598,58.0,0.0,60.0,12.0,0.0
11599,55.0,0.0,60.0,12.0,0.0
11600,51.0,3.0,60.0,13.0,0.0
11601,39.0,1.0,60.0,14.0,0.0
11602,75.0,3.0,240.0,10.0,0.0
11603,87.0,0.0,240.0,0.0,0.0
11604,79.0,1.0,240.0,0.0,0.0
11605,75.0,1.0,240.0,1.0,0.0
11606,67.0,1.0,120.0,1.0,0.0
11607,75.0,0.0,240.0,2.0,0.0
11608,67.0,0.0,120.0,2.0,0.0
11609,63.0,0.0,240.0,11.0,0.0
11610,55.0,2.0,60.0,12.0,0.0
11611,58.0,0.0,60.0,12.0,0.0
11612,51.0,4.0,60.0,13.0,0.0
11613,55.0,0.0,120.0,3.0,0.0
11614,51.0,1.0,120.0,3.0,0.0
11615,39.0,53.0,60.0,14.0,0.0
11616,58.0,0.0,60.0,12.0,0.0
11617,55.0,2.0,60.0,12.0,0.0
11618,51.0,3.0,60.0,13.0,0.0
11619,39.0,54.0,60.0,14.0,0.0
11620,70.0,0.0,120.0,1.0,0.0
11621,70.0,0.0,120.0,2.0,0.0
11622,55.0,2.0,60.0,12.0,0.0
11623,58.0,0.0,60.0,12.0,0.0
11624,51.0,4.0,60.0,13.0,0.0
11625,58.0,0.0,120.0,3.0,0.0
11626,55.0,1.0,120.0,3.0,0.0
11627,39.0,49.0,60.0,14.0,0.0
11628,58.0,0.0,60.0,12.0,0.0
11629,55.0,2.0,60.0,12.0,0.0
11630,51.0,3.0,60.0,13.0,0.0
11631,39.0,1.0,60.0,14.0,0.0
11632,75.0,3.0,30.0,10.0,0.0
11633,82.0,0.0,120.0,0.0,0.0
11634,85.0,1.0,120.0,0.0,0.0
11635,70.0,0.0,120.0,1.0,0.0
11636,73.0,1.0,120.0,1.0,0.0
11637,58.0,2.0,120.0,4.0,0.0
11638,63.0,22.0,30.0,11.0,0.0
11639,70.0,0.0,120.0,2.0,0.0
11640,73.0,0.0,120.0,2.0,0.0
11641,51.0,26.0,15.0,5.0,0.0
11642,55.0,2.0,60.0,12.0,0.0
11643,58.0,0.0,60.0,12.0,0.0
11644,51.0,3.0,60.0,13.0,0.0
11645,58.0,0.0,120.0,3.0,0.0
11646,55.0,1.0,120.0,3.0,0.0
11647,39.0,2.0,60.0,14.0,0.0
11648,73.0,1.0,30.0,10.0,0.0
11649,61.0,27.0,30.0,11.0,0.0
11650,72.0,3.0,30.0,10.0,0.0
11651,60.0,17.0,30.0,11.0,0.0
11652,55.0,2.0,60.0,12.0,0.0
11653,58.0,0.0,60.0,12.0,0.0
11654,51.0,3.0,60.0,13.0,0.0
11655,39.0,1.0,60.0,14.0,0.0
11656,70.0,3.0,20.0,10.0,0.0
11657,58.0,0.0,20.0,11.0,0.0
11658,72.0,1.0,60.0,10.0,0.0
11659,80.0,0.0,120.0,0.0,0.0
11660,84.0,1.0,120.0,0.0,0.0
11661,63.0,0.0,120.0,1.0,0.0
11662,72.0,1.0,120.0,1.0,0.0
11663,60.0,2.0,120.0,4.0,0.0
11664,72.0,0.0,120.0,2.0,0.0
11665,63.0,0.0,120.0,2.0,0.0
11666,60.0,50.0,60.0,11.0,0.0
11667,56.0,26.0,120.0,5.0,0.0
11668,60.0,2.0,60.0,12.0,0.0
11669,56.0,0.0,60.0,12.0,0.0
11670,51.0,3.0,60.0,13.0,0.0
11671,56.0,0.0,120.0,3.0,0.0
11672,60.0,1.0,120.0,3.0,0.0
11673,39.0,2.0,60.0,14.0,0.0
11674,56.0,2.0,60.0,12.0,0.0
11675,60.0,0.0,60.0,12.0,0.0
11676,51.0,3.0,60.0,13.0,0.0
11677,39.0,1.0,60.0,14.0,0.0
11678,72.0,3.0,30.0,10.0,0.0
11679,80.0,0.0,120.0,0.0,0.0
11680,68.0,0.0,120.0,6.0,0.0
11681,72.0,1.0,120.0,1.0,0.0
11682,63.0,2.0,120.0,4.0,0.0
11683,63.0,0.0,120.0,1.0,0.0
11684,56.0,0.0,120.0,6.0,0.0
11685,63.0,0.0,120.0,2.0,0.0
11686,60.0,22.0,30.0,11.0,0.0
11687,72.0,0.0,120.0,2.0,0.0
11688,56.0,2.0,60.0,12.0,0.0
11689,60.0,0.0,60.0,12.0,0.0
11690,51.0,3.0,60.0,13.0,0.0
11691,60.0,0.0,120.0,3.0,0.0
11692,56.0,1.0,120.0,3.0,0.0
11693,39.0,45.0,120.0,15.0,0.0
11694,39.0,2.0,60.0,14.0,0.0
11695,70.0,1.0,30.0,10.0,0.0
11696,58.0,27.0,30.0,11.0,0.0
11697,68.0,3.0,30.0,10.0,0.0
11698,56.0,17.0,30.0,11.0,0.0
11699,56.0,2.0,60.0,12.0,0.0
11700,60.0,0.0,60.0,12.0,0.0
11701,51.0,3.0,60.0,13.0,0.0
11702,39.0,1.0,60.0,14.0,0.0
11703,67.0,3.0,20.0,10.0,0.0
11704,55.0,1.0,20.0,11.0,0.0
11705,68.0,1.0,60.0,10.0,0.0
11706,77.0,1.0,120.0,0.0,0.0
11707,68.0,0.0,120.0,6.0,0.0
11708,65.0,0.0,120.0,1.0,0.0
11709,56.0,0.0,120.0,6.0,0.0
11710,68.0,1.0,120.0,1.0,0.0
11711,56.0,50.0,60.0,11.0,0.0
11712,65.0,2.0,120.0,2.0,0.0
11713,68.0,0.0,120.0,2.0,0.0
11714,51.0,6.0,15.0,5.0,0.0
11715,56.0,2.0,60.0,12.0,0.0
11716,65.0,0.0,60.0,12.0,0.0
11717,51.0,3.0,60.0,13.0,0.0
11718,56.0,0.0,120.0,3.0,0.0
11719,53.0,1.0,120.0,3.0,0.0
11720,39.0,20.0,120.0,15.0,0.0
11721,39.0,2.0,60.0,14.0,0.0
11722,65.0,0.0,60.0,12.0,0.0
11723,56.0,0.0,60.0,12.0,0.0
11724,51.0,3.0,60.0,13.0,0.0
11725,39.0,1.0,60.0,14.0,0.0
11726,68.0,3.0,30.0,10.0,0.0
11727,74.0,0.0,120.0,0.0,0.0
11728,68.0,0.0,120.0,6.0,0.0
11729,68.0,1.0,120.0,1.0,0.0
11730,74.0,0.0,120.0,1.0,0.0
11731,56.0,0.0,120.0,6.0,0.0
11732,63.0,2.0,15.0,4.0,0.0
11733,68.0,2.0,120.0,2.0,0.0
11734,68.0,22.0,30.0,11.0,0.0
11735,74.0,0.0,120.0,2.0,0.0
11736,56.0,0.0,60.0,12.0,0.0
11737,65.0,2.0,60.0,12.0,0.0
11738,51.0,3.0,60.0,13.0,0.0
11739,53.0,1.0,120.0,3.0,0.0
11740,56.0,0.0,120.0,3.0,0.0
11741,39.0,2.0,60.0,14.0,0.0
11742,65.0,1.0,30.0,10.0,0.0
11743,65.0,27.0,30.0,11.0,0.0
11744,63.0,3.0,30.0,10.0,0.0
11745,63.0,17.0,30.0,11.0,0.0
11746,65.0,0.0,60.0,12.0,0.0
11747,56.0,0.0,60.0,12.0,0.0
11748,51.0,3.0,60.0,13.0,0.0
11749,39.0,1.0,60.0,14.0,0.0
11750,62.0,3.0,20.0,10.0,0.0
11751,62.0,1.0,20.0,11.0,0.0
11752,63.0,1.0,30.0,10.0,0.0
11753,75.0,2.0,30.0,0.0,0.0
11754,63.0,2.0,15.0,4.0,0.0
11755,63.0,0.0,120.0,6.0,0.0
11756,75.0,0.0,120.0,1.0,0.0
11757,51.0,2.0,120.0,6.0,0.0
11758,67.0,0.0,120.0,1.0,0.0
11759,75.0,0.0,30.0,2.0,0.0
11760,63.0,2.0,30.0,2.0,0.0
11761,63.0,0.0,30.0,11.0,0.0
11762,51.0,6.0,15.0,5.0,0.0
11763,63.0,2.0,30.0,12.0,0.0
11764,55.0,0.0,30.0,12.0,0.0
11765,51.0,1.0,30.0,13.0,0.0
11766,51.0,3.0,30.0,3.0,0.0
11767,39.0,20.0,15.0,15.0,0.0
11768,39.0,49.0,30.0,14.0,0.0
11769,65.0,1.0,30.0,10.0,0.0
11770,77.0,2.0,30.0,0.0,0.0
11771,65.0,2.0,30.0,11.0,0.0
11772,65.0,0.0,30.0,2.0,0.0
11773,53.0,2.0,30.0,12.0,0.0
11774,53.0,1.0,30.0,13.0,0.0
11775,53.0,3.0,30.0,3.0,0.0
11776,41.0,21.0,30.0,14.0,0.0
11777,67.0,1.0,30.0,10.0,0.0
11778,79.0,2.0,30.0,0.0,0.0
11779,67.0,2.0,30.0,2.0,0.0
11780,67.0,0.0,30.0,11.0,0.0
11781,55.0,2.0,30.0,12.0,0.0
11782,55.0,1.0,30.0,13.0,0.0
11783,55.0,3.0,30.0,3.0,0.0
11784,43.0,49.0,30.0,14.0,0.0
11785,68.0,1.0,30.0,10.0,0.0
11786,80.0,2.0,30.0,0.0,0.0
11787,68.0,2.0,30.0,11.0,0.0
11788,68.0,0.0,30.0,2.0,0.0
11789,56.0,2.0,30.0,12.0,0.0
11790,56.0,1.0,30.0,13.0,0.0
11791,56.0,3.0,30.0,3.0,0.0
11792,44.0,49.0,30.0,14.0,0.0
11793,70.0,1.0,30.0,10.0,0.0
11794,82.0,1.0,30.0,0.0,0.0
11795,70.0,1.0,30.0,1.0,0.0
11796,70.0,0.0,30.0,2.0,0.0
11797,70.0,2.0,30.0,11.0,0.0
11798,58.0,2.0,30.0,12.0,0.0
11799,58.0,1.0,30.0,13.0,0.0
11800,58.0,3.0,30.0,3.0,0.0
11801,46.0,49.0,30.0,14.0,0.0
11802,68.0,1.0,30.0,10.0,0.0
11803,80.0,1.0,30.0,0.0,0.0
11804,68.0,1.0,30.0,1.0,0.0
11805,68.0,0.0,30.0,11.0,0.0
11806,68.0,2.0,30.0,2.0,0.0
11807,56.0,2.0,30.0,12.0,0.0
11808,56.0,1.0,30.0,13.0,0.0
11809,56.0,3.0,30.0,3.0,0.0
11810,44.0,49.0,30.0,14.0,0.0
11811,67.0,1.0,30.0,10.0,0.0
11812,79.0,1.0,30.0,0.0,0.0
11813,67.0,1.0,30.0,1.0,0.0
11814,67.0,2.0,30.0,2.0,0.0
11815,67.0,0.0,30.0,11.0,0.0
11816,55.0,2.0,30.0,12.0,0.0
11817,55.0,1.0,30.0,13.0,0.0
11818,55.0,3.0,30.0,3.0,0.0
11819,43.0,49.0,30.0,14.0,0.0
11820,65.0,1.0,30.0,10.0,0.0
11821,77.0,1.0,30.0,0.0,0.0
11822,65.0,1.0,30.0,1.0,0.0
11823,65.0,0.0,30.0,11.0,0.0
11824,65.0,2.0,30.0,2.0,0.0
11825,53.0,2.0,30.0,12.0,0.0
11826,53.0,1.0,30.0,13.0,0.0
11827,53.0,3.0,30.0,3.0,0.0
11828,41.0,49.0,30.0,14.0,0.0
11829,63.0,1.0,30.0,10.0,0.0
11830,75.0,1.0,30.0,0.0,0.0
11831,63.0,2.0,120.0,6.0,0.0
11832,51.0,0.0,120.0,6.0,0.0
11833,63.0,0.0,120.0,4.0,0.0
11834,63.0,1.0,30.0,1.0,0.0
11835,63.0,0.0,30.0,2.0,0.0
11836,63.0,2.0,30.0,11.0,0.0
11837,51.0,6.0,120.0,5.0,0.0
11838,51.0,2.0,30.0,12.0,0.0
11839,51.0,1.0,30.0,13.0,0.0
11840,51.0,3.0,30.0,3.0,0.0
11841,39.0,20.0,120.0,15.0,0.0
11842,39.0,49.0,30.0,14.0,0.0
11843,65.0,1.0,30.0,10.0,0.0
11844,77.0,1.0,30.0,0.0,0.0
11845,65.0,1.0,30.0,1.0,0.0
11846,65.0,0.0,30.0,11.0,0.0
11847,65.0,2.0,30.0,2.0,0.0
11848,53.0,2.0,30.0,12.0,0.0
11849,53.0,1.0,30.0,13.0,0.0
11850,53.0,3.0,30.0,3.0,0.0
11851,41.0,21.0,30.0,14.0,0.0
11852,67.0,1.0,30.0,10.0,0.0
11853,79.0,1.0,30.0,0.0,0.0
11854,67.0,1.0,30.0,1.0,0.0
11855,67.0,0.0,30.0,2.0,0.0
11856,67.0,2.0,30.0,11.0,0.0
11857,55.0,2.0,30.0,12.0,0.0
11858,55.0,1.0,30.0,13.0,0.0
11859,55.0,3.0,30.0,3.0,0.0
11860,43.0,49.0,30.0,14.0,0.0
11861,68.0,1.0,30.0,10.0,0.0
11862,80.0,1.0,30.0,0.0,0.0
11863,68.0,1.0,30.0,1.0,0.0
11864,68.0,2.0,30.0,11.0,0.0
11865,68.0,0.0,30.0,2.0,0.0
11866,56.0,2.0,30.0,12.0,0.0
11867,56.0,1.0,30.0,13.0,0.0
11868,56.0,3.0,30.0,3.0,0.0
11869,44.0,49.0,30.0,14.0,0.0
11870,70.0,1.0,30.0,10.0,0.0
11871,82.0,1.0,30.0,0.0,0.0
11872,70.0,1.0,30.0,1.0,0.0
11873,70.0,2.0,30.0,2.0,0.0
11874,70.0,0.0,30.0,11.0,0.0
11875,58.0,2.0,30.0,12.0,0.0
11876,58.0,1.0,30.0,13.0,0.0
11877,58.0,3.0,30.0,3.0,0.0
11878,46.0,49.0,30.0,14.0,0.0
11879,68.0,1.0,30.0,10.0,0.0
11880,80.0,1.0,30.0,0.0,0.0
11881,68.0,1.0,30.0,1.0,0.0
11882,68.0,2.0,30.0,2.0,0.0
11883,68.0,0.0,30.0,11.0,0.0
11884,56.0,2.0,30.0,12.0,0.0
11885,56.0,1.0,30.0,13.0,0.0
11886,56.0,3.0,30.0,3.0,0.0
11887,44.0,49.0,30.0,14.0,0.0
11888,67.0,1.0,30.0,10.0,0.0
11889,79.0,1.0,30.0,0.0,0.0
11890,67.0,1.0,30.0,1.0,0.0
11891,67.0,2.0,30.0,2.0,0.0
11892,67.0,0.0,30.0,11.0,0.0
11893,55.0,2.0,30.0,12.0,0.0
11894,55.0,1.0,30.0,13.0,0.0
11895,55.0,3.0,30.0,3.0,0.0
11896,43.0,49.0,30.0,14.0,0.0
11897,65.0,1.0,30.0,10.0,0.0
11898,77.0,1.0,30.0,0.0,0.0
11899,65.0,1.0,30.0,1.0,0.0
11900,65.0,2.0,30.0,11.0,0.0
11901,65.0,0.0,30.0,2.0,0.0
11902,53.0,2.0,30.0,12.0,0.0
11903,53.0,1.0,30.0,13.0,0.0
11904,53.0,3.0,30.0,3.0,0.0
11905,41.0,79.0,30.0,14.0,0.0
11906,63.0,3.0,60.0,10.0,0.0
11907,75.0,1.0,120.0,0.0,0.0
11908,63.0,0.0,120.0,4.0,0.0
11909,63.0,1.0,120.0,1.0,0.0
11910,63.0,0.0,120.0,6.0,0.0
11911,51.0,0.0,120.0,6.0,0.0
11912,63.0,1.0,120.0,2.0,0.0
11913,63.0,2.0,60.0,11.0,0.0
11914,51.0,1.0,120.0,5.0,0.0
11915,51.0,2.0,60.0,12.0,0.0
11916,51.0,4.0,60.0,13.0,0.0
11917,51.0,2.0,120.0,3.0,0.0
11918,39.0,1.0,120.0,15.0,0.0
11919,39.0,49.0,60.0,14.0,0.0
11920,62.0,1.0,60.0,10.0,0.0
11921,62.0,0.0,60.0,11.0,0.0
11922,50.0,2.0,60.0,12.0,0.0
11923,50.0,1.0,60.0,13.0,0.0
11924,38.0,49.0,60.0,14.0,0.0
11925,63.0,3.0,60.0,10.0,0.0
11926,63.0,2.0,60.0,11.0,0.0
11927,51.0,2.0,60.0,12.0,0.0
11928,51.0,4.0,60.0,13.0,0.0
11929,39.0,49.0,60.0,14.0,0.0
11930,62.0,3.0,60.0,10.0,0.0
11931,62.0,2.0,60.0,11.0,0.0
11932,50.0,2.0,60.0,12.0,0.0
11933,50.0,4.0,60.0,13.0,0.0
11934,38.0,49.0,60.0,14.0,0.0
11935,63.0,3.0,60.0,10.0,0.0
11936,63.0,2.0,60.0,11.0,0.0
11937,51.0,2.0,60.0,12.0,0.0
11938,51.0,4.0,60.0,13.0,0.0
11939,39.0,49.0,60.0,14.0,0.0
11940,62.0,3.0,60.0,10.0,0.0
11941,62.0,2.0,60.0,11.0,0.0
11942,50.0,2.0,60.0,12.0,0.0
11943,50.0,4.0,60.0,13.0,0.0
11944,38.0,49.0,60.0,14.0,0.0
11945,63.0,3.0,60.0,10.0,0.0
11946,63.0,2.0,60.0,11.0,0.0
11947,51.0,2.0,60.0,12.0,0.0
11948,51.0,4.0,60.0,13.0,0.0
11949,39.0,39.0,60.0,14.0,0.0
11950,62.0,3.0,60.0,10.0,0.0
11951,62.0,2.0,60.0,11.0,0.0
11952,50.0,2.0,60.0,12.0,0.0
11953,50.0,4.0,60.0,13.0,0.0
11954,38.0,59.0,60.0,14.0,0.0
11955,63.0,3.0,60.0,10.0,0.0
11956,63.0,2.0,60.0,11.0,0.0
11957,51.0,2.0,60.0,12.0,0.0
11958,51.0,4.0,60.0,13.0,0.0
11959,39.0,49.0,60.0,14.0,0.0
11960,62.0,3.0,60.0,10.0,0.0
11961,62.0,2.0,60.0,11.0,0.0
11962,50.0,2.0,60.0,12.0,0.0
11963,50.0,4.0,60.0,13.0,0.0
11964,38.0,49.0,60.0,14.0,0.0
11965,63.0,3.0,60.0,10.0,0.0
11966,63.0,2.0,60.0,11.0,0.0
11967,51.0,2.0,60.0,12.0,0.0
11968,51.0,4.0,60.0,13.0,0.0
11969,39.0,49.0,60.0,14.0,0.0
11970,62.0,3.0,60.0,10.0,0.0
11971,62.0,2.0,60.0,11.0,0.0
11972,50.0,2.0,60.0,12.0,0.0
11973,50.0,4.0,60.0,13.0,0.0
11974,38.0,49.0,60.0,14.0,0.0
11975,63.0,3.0,60.0,10.0,0.0
11976,63.0,2.0,60.0,11.0,0.0
11977,51.0,2.0,60.0,12.0,0.0
11978,51.0,4.0,60.0,13.0,0.0
11979,39.0,49.0,60.0,14.0,0.0
11980,61.0,3.0,60.0,10.0,0.0
11981,61.0,2.0,60.0,11.0,0.0
11982,49.0,2.0,60.0,12.0,0.0
11983,49.0,4.0,60.0,13.0,0.0
11984,37.0,49.0,60.0,14.0,0.0
11985,60.0,3.0,60.0,10.0,0.0
11986,75.0,2.0,120.0,0.0,0.0
11987,63.0,2.0,120.0,2.0,0.0
11988,60.0,2.0,60.0,11.0,0.0
11989,48.0,2.0,60.0,12.0,0.0
11990,48.0,4.0,60.0,13.0,0.0
11991,36.0,39.0,60.0,14.0,0.0
11992,58.0,1.0,60.0,10.0,0.0
11993,58.0,0.0,60.0,11.0,0.0
11994,46.0,2.0,60.0,12.0,0.0
11995,46.0,4.0,60.0,13.0,0.0
11996,34.0,64.0,60.0,14.0,0.0
11997,56.0,3.0,120.0,10.0,0.0
11998,80.0,2.0,300.0,0.0,0.0
11999,56.0,4.0,120.0,11.0,0.0
12000,68.0,2.0,300.0,2.0,0.0
12001,48.0,55.0,60.0,12.0,0.0
12002,44.0,4.0,120.0,13.0,0.0
12003,32.0,54.0,120.0,14.0,0.0
12004,51.0,116.0,60.0,12.0,0.0
12005,56.0,56.0,60.0,12.0,0.0
12006,79.0,2.0,60.0,0.0,0.0
12007,67.0,58.0,60.0,2.0,0.0
12008,77.0,2.0,60.0,0.0,0.0
12009,65.0,2.0,60.0,2.0,0.0
12010,60.0,46.0,60.0,12.0,0.0
12011,75.0,2.0,60.0,0.0,0.0
12012,63.0,67.0,60.0,2.0,0.0
12013,61.0,3.0,60.0,10.0,0.0
12014,73.0,2.0,120.0,0.0,0.0
12015,73.0,1.0,300.0,1.0,0.0
12016,61.0,2.0,120.0,2.0,0.0
12017,61.0,58.0,60.0,11.0,0.0
12018,53.0,2.0,120.0,12.0,0.0
12019,46.0,4.0,120.0,13.0,0.0
12020,61.0,54.0,300.0,3.0,0.0
12021,34.0,49.0,120.0,14.0,0.0
12022,65.0,3.0,60.0,10.0,0.0
12023,65.0,117.0,60.0,11.0,0.0
12024,70.0,2.0,60.0,10.0,0.0
12025,70.0,5.0,60.0,11.0,0.0
12026,72.0,6.0,60.0,1.0,0.0
12027,60.0,52.0,60.0,3.0,0.0
12028,73.0,2.0,60.0,10.0,0.0
12029,70.0,1.0,60.0,1.0,0.0
12030,73.0,5.0,60.0,11.0,0.0
12031,58.0,44.0,60.0,3.0,0.0
12032,68.0,6.0,60.0,1.0,0.0
12033,56.0,67.0,60.0,3.0,0.0
12034,67.0,2.0,120.0,10.0,0.0
12035,82.0,4.0,300.0,0.0,0.0
12036,67.0,1.0,120.0,1.0,0.0
12037,67.0,4.0,120.0,11.0,0.0
12038,55.0,55.0,60.0,12.0,0.0
12039,51.0,1.0,120.0,13.0,0.0
12040,55.0,3.0,120.0,3.0,0.0
12041,39.0,54.0,120.0,14.0,0.0
12042,58.0,116.0,60.0,12.0,0.0
12043,61.0,56.0,60.0,12.0,0.0
12044,79.0,60.0,60.0,0.0,0.0
12045,75.0,4.0,60.0,0.0,0.0
12046,67.0,46.0,60.0,12.0,0.0
12047,73.0,69.0,60.0,0.0,0.0
12048,72.0,3.0,60.0,10.0,0.0
12049,72.0,4.0,120.0,0.0,0.0
12050,75.0,1.0,300.0,1.0,0.0
12051,68.0,58.0,60.0,11.0,0.0
12052,68.0,2.0,120.0,12.0,0.0
12053,44.0,4.0,120.0,13.0,0.0
12054,63.0,54.0,300.0,3.0,0.0
12055,32.0,49.0,120.0,14.0,0.0
12056,68.0,3.0,60.0,10.0,0.0
12057,63.0,117.0,60.0,11.0,0.0
12058,63.0,2.0,60.0,10.0,0.0
12059,60.0,5.0,60.0,11.0,0.0
12060,72.0,6.0,60.0,1.0,0.0
12061,60.0,52.0,60.0,3.0,0.0
12062,60.0,2.0,60.0,10.0,0.0
12063,70.0,1.0,60.0,1.0,0.0
12064,56.0,5.0,60.0,11.0,0.0
12065,58.0,44.0,60.0,3.0,0.0
12066,68.0,6.0,60.0,1.0,0.0
12067,56.0,62.0,60.0,3.0,0.0
12068,58.0,3.0,60.0,10.0,0.0
12069,67.0,5.0,120.0,1.0,0.0
12070,55.0,59.0,60.0,11.0,0.0
12071,51.0,1.0,120.0,13.0,0.0
12072,55.0,3.0,120.0,3.0,0.0
12073,39.0,229.0,120.0,14.0,0.0
12074,73.0,1.0,240.0,1.0,0.0
12075,61.0,3.0,240.0,3.0,0.0
12076,73.0,1.0,120.0,10.0,0.0
12077,79.0,1.0,120.0,0.0,0.0
12078,58.0,0.0,120.0,4.0,0.0
12079,67.0,0.0,120.0,2.0,0.0
12080,61.0,1.0,120.0,2.0,0.0
12081,67.0,0.0,120.0,11.0,0.0
12082,51.0,1.0,120.0,5.0,0.0
12083,58.0,2.0,120.0,12.0,0.0
12084,51.0,1.0,120.0,13.0,0.0
12085,39.0,100.0,120.0,14.0,0.0
12086,72.0,1.0,120.0,10.0,0.0
12087,80.0,1.0,120.0,0.0,0.0
12088,72.0,1.0,120.0,1.0,0.0
12089,60.0,1.0,120.0,4.0,0.0
12090,68.0,1.0,120.0,11.0,0.0
12091,60.0,0.0,120.0,2.0,0.0
12092,68.0,4.0,120.0,2.0,0.0
12093,56.0,1.0,120.0,5.0,0.0
12094,56.0,117.0,120.0,12.0,0.0
12095,56.0,1.0,120.0,13.0,0.0
12096,60.0,2.0,120.0,3.0,0.0
12097,44.0,1.0,120.0,14.0,0.0
12098,70.0,5.0,120.0,1.0,0.0
12099,51.0,1.0,120.0,13.0,0.0
12100,55.0,3.0,120.0,3.0,0.0
12101,39.0,229.0,120.0,14.0,0.0
12102,73.0,1.0,240.0,1.0,0.0
12103,58.0,3.0,240.0,3.0,0.0
12104,73.0,1.0,120.0,10.0,0.0
12105,79.0,1.0,120.0,0.0,0.0
12106,58.0,0.0,120.0,4.0,0.0
12107,67.0,0.0,120.0,11.0,0.0
12108,67.0,1.0,120.0,2.0,0.0
12109,61.0,0.0,120.0,2.0,0.0
12110,51.0,1.0,120.0,5.0,0.0
12111,58.0,2.0,120.0,12.0,0.0
12112,51.0,1.0,120.0,13.0,0.0
12113,39.0,99.0,120.0,14.0,0.0
12114,72.0,1.0,120.0,10.0,0.0
12115,80.0,1.0,120.0,0.0,0.0
12116,72.0,1.0,120.0,1.0,0.0
12117,60.0,2.0,120.0,4.0,0.0
12118,68.0,0.0,120.0,11.0,0.0
12119,68.0,0.0,120.0,2.0,0.0
12120,60.0,2.0,120.0,2.0,0.0
12121,56.0,56.0,120.0,5.0,0.0
12122,56.0,2.0,120.0,12.0,0.0
12123,56.0,1.0,120.0,13.0,0.0
12124,56.0,3.0,120.0,3.0,0.0
12125,44.0,1.0,120.0,14.0,0.0
12126,70.0,3.0,60.0,10.0,0.0
12127,79.0,1.0,120.0,0.0,0.0
12128,70.0,2.0,120.0,1.0,0.0
12129,58.0,0.0,120.0,4.0,0.0
12130,67.0,2.0,60.0,11.0,0.0
12131,58.0,3.0,120.0,5.0,0.0
12132,63.0,56.0,60.0,12.0,0.0
12133,58.0,4.0,120.0,13.0,0.0
12134,55.0,113.0,240.0,3.0,0.0
12135,46.0,49.0,120.0,14.0,0.0
12136,75.0,3.0,60.0,10.0,0.0
12137,82.0,1.0,240.0,0.0,0.0
12138,75.0,1.0,120.0,1.0,0.0
12139,67.0,2.0,60.0,11.0,0.0
12140,63.0,5.0,120.0,2.0,0.0
12141,58.0,57.0,60.0,12.0,0.0
12142,74.0,0.0,120.0,1.0,0.0
12143,58.0,1.0,120.0,4.0,0.0
12144,62.0,1.0,120.0,2.0,0.0
12145,58.0,3.0,120.0,5.0,0.0
12146,46.0,4.0,120.0,13.0,0.0
12147,56.0,122.0,240.0,3.0,0.0
12148,34.0,49.0,120.0,14.0,0.0
12149,74.0,3.0,60.0,10.0,0.0
12150,74.0,1.0,120.0,0.0,0.0
12151,77.0,1.0,120.0,1.0,0.0
12152,65.0,5.0,120.0,2.0,0.0
12153,68.0,2.0,60.0,11.0,0.0
12154,58.0,46.0,60.0,12.0,0.0
12155,75.0,1.0,120.0,10.0,0.0
12156,75.0,1.0,120.0,0.0,0.0
12157,58.0,1.0,120.0,4.0,0.0
12158,75.0,0.0,120.0,1.0,0.0
12159,63.0,1.0,120.0,2.0,0.0
12160,67.0,0.0,120.0,11.0,0.0
12161,51.0,1.0,120.0,5.0,0.0
12162,51.0,2.0,120.0,12.0,0.0
12163,51.0,1.0,120.0,13.0,0.0
12164,55.0,3.0,120.0,3.0,0.0
12165,39.0,234.0,120.0,14.0,0.0
12166,61.0,2.0,240.0,12.0,0.0
12167,61.0,4.0,240.0,13.0,0.0
12168,49.0,99.0,240.0,14.0,0.0
12169,63.0,1.0,120.0,10.0,0.0
12170,75.0,4.0,120.0,0.0,0.0
12171,58.0,2.0,120.0,12.0,0.0
12172,58.0,4.0,120.0,13.0,0.0
12173,46.0,67.0,120.0,14.0,0.0
12174,68.0,1.0,300.0,10.0,0.0
12175,80.0,7.0,300.0,0.0,0.0
12176,56.0,2.0,120.0,12.0,0.0
12177,56.0,4.0,120.0,13.0,0.0
12178,44.0,0.0,60.0,3.0,0.0
12179,48.0,57.0,60.0,3.0,0.0
12180,44.0,57.0,120.0,14.0,0.0
12181,51.0,0.0,60.0,3.0,0.0
12182,48.0,112.0,60.0,3.0,0.0
12183,56.0,0.0,60.0,3.0,0.0
12184,51.0,52.0,60.0,3.0,0.0
12185,67.0,1.0,60.0,10.0,0.0
12186,79.0,59.0,60.0,0.0,0.0
12187,65.0,1.0,60.0,10.0,0.0
12188,77.0,7.0,60.0,0.0,0.0
12189,60.0,0.0,60.0,3.0,0.0
12190,56.0,42.0,60.0,3.0,0.0
12191,63.0,1.0,60.0,10.0,0.0
12192,75.0,72.0,60.0,0.0,0.0
12193,61.0,1.0,120.0,10.0,0.0
12194,73.0,4.0,120.0,0.0,0.0
12195,73.0,1.0,300.0,1.0,0.0
12196,61.0,57.0,60.0,11.0,0.0
12197,58.0,2.0,120.0,12.0,0.0
12198,46.0,4.0,120.0,13.0,0.0
12199,61.0,54.0,300.0,3.0,0.0
12200,34.0,52.0,120.0,14.0,0.0
12201,65.0,119.0,60.0,11.0,0.0
12202,70.0,5.0,60.0,11.0,0.0
12203,72.0,6.0,60.0,1.0,0.0
12204,60.0,54.0,60.0,3.0,0.0
12205,70.0,1.0,60.0,1.0,0.0
12206,73.0,5.0,60.0,11.0,0.0
12207,58.0,44.0,60.0,3.0,0.0
12208,68.0,6.0,60.0,1.0,0.0
12209,56.0,65.0,60.0,3.0,0.0
12210,70.0,1.0,300.0,10.0,0.0
12211,82.0,2.0,300.0,0.0,0.0
12212,67.0,1.0,120.0,1.0,0.0
12213,61.0,2.0,120.0,11.0,0.0
12214,55.0,59.0,60.0,2.0,0.0
12215,58.0,0.0,60.0,2.0,0.0
12216,51.0,2.0,120.0,12.0,0.0
12217,39.0,1.0,120.0,13.0,0.0
12218,55.0,3.0,120.0,3.0,0.0
12219,27.0,52.0,120.0,14.0,0.0
12220,58.0,0.0,60.0,2.0,0.0
12221,61.0,117.0,60.0,2.0,0.0
12222,61.0,57.0,60.0,2.0,0.0
12223,67.0,0.0,60.0,2.0,0.0
12224,67.0,1.0,60.0,10.0,0.0
12225,79.0,59.0,60.0,0.0,0.0
12226,63.0,1.0,60.0,10.0,0.0
12227,75.0,2.0,60.0,0.0,0.0
12228,70.0,0.0,60.0,2.0,0.0
12229,67.0,47.0,60.0,2.0,0.0
12230,61.0,1.0,60.0,10.0,0.0
12231,73.0,77.0,60.0,0.0,0.0
12232,60.0,1.0,120.0,10.0,0.0
12233,72.0,2.0,120.0,0.0,0.0
12234,56.0,2.0,600.0,4.0,0.0
12235,78.0,6.0,300.0,1.0,0.0
12236,68.0,2.0,120.0,2.0,0.0
12237,72.0,0.0,120.0,2.0,0.0
12238,44.0,1.0,600.0,5.0,0.0
12239,56.0,2.0,120.0,12.0,0.0
12240,44.0,4.0,120.0,13.0,0.0
12241,44.0,52.0,60.0,3.0,0.0
12242,48.0,0.0,60.0,3.0,0.0
12243,32.0,57.0,120.0,14.0,0.0
12244,51.0,0.0,60.0,3.0,0.0
12245,48.0,114.0,60.0,3.0,0.0
12246,51.0,54.0,60.0,3.0,0.0
12247,56.0,0.0,60.0,3.0,0.0
12248,75.0,60.0,60.0,1.0,0.0
12249,72.0,6.0,60.0,1.0,0.0
12250,56.0,2.0,120.0,12.0,0.0
12251,44.0,4.0,120.0,13.0,0.0
12252,60.0,44.0,60.0,3.0,0.0
12253,56.0,0.0,60.0,3.0,0.0
12254,32.0,117.0,120.0,14.0,0.0
12255,66.0,3.0,60.0,1.0,0.0
12256,65.0,0.0,120.0,1.0,0.0
12257,61.0,2.0,120.0,12.0,0.0
12258,49.0,4.0,120.0,13.0,0.0
12259,56.0,0.0,120.0,3.0,0.0
12260,61.0,4.0,120.0,3.0,0.0
12261,37.0,111.0,120.0,14.0,0.0
12262,68.0,1.0,240.0,10.0,0.0
12263,80.0,2.0,240.0,0.0,0.0
12264,77.0,1.0,120.0,1.0,0.0
12265,73.0,0.0,120.0,1.0,0.0
12266,65.0,0.0,120.0,2.0,0.0
12267,61.0,107.0,120.0,2.0,0.0
12268,56.0,5.0,240.0,11.0,0.0
12269,56.0,122.0,240.0,3.0,0.0
12270,75.0,0.0,360.0,1.0,0.0
12271,78.0,1.0,360.0,1.0,0.0
12272,66.0,5.0,360.0,2.0,0.0
12273,63.0,0.0,360.0,2.0,0.0
12274,69.0,1.0,120.0,10.0,0.0
12275,81.0,2.0,120.0,0.0,0.0
12276,57.0,2.0,120.0,11.0,0.0
12277,60.0,2.0,120.0,12.0,0.0
12278,48.0,1.0,120.0,13.0,0.0
12279,48.0,3.0,120.0,3.0,0.0
12280,57.0,0.0,120.0,3.0,0.0
12281,36.0,49.0,120.0,14.0,0.0
12282,68.0,3.0,60.0,10.0,0.0
12283,80.0,1.0,120.0,0.0,0.0
12284,56.0,2.0,60.0,11.0,0.0
12285,61.0,2.0,60.0,12.0,0.0
12286,49.0,4.0,60.0,13.0,0.0
12287,56.0,0.0,120.0,3.0,0.0
12288,49.0,124.0,120.0,3.0,0.0
12289,37.0,40.0,60.0,14.0,0.0
12290,68.0,1.0,240.0,10.0,0.0
12291,80.0,2.0,240.0,0.0,0.0
12292,73.0,1.0,120.0,1.0,0.0
12293,77.0,0.0,120.0,1.0,0.0
12294,56.0,5.0,240.0,11.0,0.0
12295,61.0,0.0,120.0,2.0,0.0
12296,65.0,107.0,120.0,2.0,0.0
12297,56.0,129.0,240.0,3.0,0.0
12298,75.0,0.0,360.0,1.0,0.0
12299,78.0,1.0,360.0,1.0,0.0
12300,63.0,0.0,360.0,2.0,0.0
12301,66.0,5.0,360.0,2.0,0.0
12302,69.0,3.0,180.0,10.0,0.0
12303,81.0,1.0,240.0,0.0,0.0
12304,57.0,2.0,180.0,11.0,0.0
12305,66.0,2.0,180.0,12.0,0.0
12306,48.0,1.0,120.0,13.0,0.0
12307,57.0,122.0,240.0,3.0,0.0
12308,48.0,3.0,120.0,3.0,0.0
12309,36.0,49.0,120.0,14.0,0.0
12310,49.0,4.0,60.0,13.0,0.0
12311,49.0,0.0,120.0,3.0,0.0
12312,37.0,40.0,60.0,14.0,0.0
12313,70.0,1.0,120.0,10.0,0.0
12314,82.0,1.0,120.0,0.0,0.0
12315,73.0,0.0,120.0,1.0,0.0
12316,77.0,1.0,120.0,1.0,0.0
12317,58.0,0.0,120.0,11.0,0.0
12318,65.0,0.0,120.0,2.0,0.0
12319,61.0,2.0,120.0,2.0,0.0
12320,65.0,2.0,120.0,12.0,0.0
12321,49.0,1.0,120.0,13.0,0.0
12322,58.0,3.0,120.0,3.0,0.0
12323,49.0,0.0,120.0,3.0,0.0
12324,37.0,109.0,120.0,14.0,0.0
12325,72.0,1.0,120.0,10.0,0.0
12326,84.0,1.0,120.0,0.0,0.0
12327,72.0,0.0,120.0,1.0,0.0
12328,75.0,1.0,120.0,1.0,0.0
12329,60.0,2.0,120.0,11.0,0.0
12330,60.0,0.0,120.0,2.0,0.0
12331,63.0,0.0,120.0,2.0,0.0
12332,63.0,2.0,120.0,12.0,0.0
12333,48.0,1.0,120.0,13.0,0.0
12334,57.0,0.0,120.0,3.0,0.0
12335,60.0,3.0,120.0,3.0,0.0
12336,36.0,99.0,120.0,14.0,0.0
12337,73.0,1.0,120.0,10.0,0.0
12338,85.0,1.0,120.0,0.0,0.0
12339,70.0,0.0,120.0,1.0,0.0
12340,73.0,1.0,120.0,1.0,0.0
12341,61.0,0.0,120.0,11.0,0.0
12342,61.0,2.0,120.0,2.0,0.0
12343,58.0,0.0,120.0,2.0,0.0
12344,61.0,2.0,120.0,12.0,0.0
12345,46.0,1.0,120.0,13.0,0.0
12346,61.0,0.0,120.0,3.0,0.0
12347,58.0,3.0,120.0,3.0,0.0
12348,34.0,124.0,120.0,14.0,0.0
12349,68.0,1.0,240.0,10.0,0.0
12350,80.0,1.0,240.0,0.0,0.0
12351,60.0,0.0,240.0,4.0,0.0
12352,72.0,1.0,240.0,1.0,0.0
12353,68.0,0.0,240.0,1.0,0.0
12354,60.0,0.0,240.0,11.0,0.0
12355,60.0,1.0,240.0,2.0,0.0
12356,56.0,0.0,240.0,2.0,0.0
12357,56.0,3.0,240.0,5.0,0.0
12358,51.0,115.0,120.0,12.0,0.0
12359,51.0,1.0,240.0,13.0,0.0
12360,56.0,3.0,240.0,3.0,0.0
12361,51.0,0.0,240.0,3.0,0.0
12362,39.0,104.0,240.0,14.0,0.0
12363,63.0,105.0,240.0,12.0,0.0
12364,67.0,1.0,210.0,10.0,0.0
12365,79.0,1.0,210.0,0.0,0.0
12366,58.0,1.0,210.0,4.0,0.0
12367,70.0,0.0,210.0,1.0,0.0
12368,67.0,0.0,210.0,1.0,0.0
12369,58.0,0.0,210.0,11.0,0.0
12370,55.0,1.0,210.0,2.0,0.0
12371,58.0,0.0,210.0,2.0,0.0
12372,51.0,3.0,210.0,5.0,0.0
12373,49.0,1.0,210.0,13.0,0.0
12374,49.0,3.0,210.0,3.0,0.0
12375,55.0,0.0,210.0,3.0,0.0
12376,37.0,4.0,210.0,14.0,0.0
12377,63.0,25.0,120.0,12.0,0.0
12378,75.0,3.0,20.0,10.0,0.0
12379,75.0,0.0,120.0,0.0,0.0
12380,75.0,0.0,120.0,1.0,0.0
12381,63.0,1.0,120.0,4.0,0.0
12382,63.0,0.0,120.0,1.0,0.0
12383,63.0,1.0,120.0,2.0,0.0
12384,63.0,0.0,20.0,11.0,0.0
12385,51.0,2.0,20.0,11.0,0.0
12386,56.0,0.0,120.0,2.0,0.0
12387,51.0,4.0,120.0,5.0,0.0
12388,68.0,2.0,20.0,12.0,0.0
12389,48.0,4.0,20.0,13.0,0.0
12390,60.0,0.0,120.0,3.0,0.0
12391,48.0,52.0,120.0,3.0,0.0
12392,36.0,19.0,20.0,14.0,0.0
12393,75.0,3.0,20.0,10.0,0.0
12394,63.0,2.0,20.0,11.0,0.0
12395,51.0,0.0,20.0,11.0,0.0
12396,56.0,2.0,20.0,12.0,0.0
12397,48.0,4.0,20.0,13.0,0.0
12398,36.0,19.0,20.0,14.0,0.0
12399,75.0,3.0,20.0,10.0,0.0
12400,51.0,0.0,20.0,11.0,0.0
12401,63.0,2.0,20.0,11.0,0.0
12402,56.0,2.0,20.0,12.0,0.0
12403,48.0,4.0,20.0,13.0,0.0
12404,36.0,19.0,20.0,14.0,0.0
12405,75.0,3.0,20.0,10.0,0.0
12406,51.0,2.0,20.0,11.0,0.0
12407,63.0,0.0,20.0,11.0,0.0
12408,56.0,2.0,20.0,12.0,0.0
12409,48.0,4.0,20.0,13.0,0.0
12410,36.0,1.0,20.0,14.0,0.0
12411,75.0,3.0,60.0,10.0,0.0
12412,63.0,2.0,60.0,11.0,0.0
12413,51.0,0.0,60.0,11.0,0.0
12414,56.0,2.0,60.0,12.0,0.0
12415,48.0,4.0,60.0,13.0,0.0
12416,36.0,69.0,60.0,14.0,0.0
12417,73.0,3.0,20.0,10.0,0.0
12418,79.0,1.0,120.0,0.0,0.0
12419,85.0,0.0,120.0,0.0,0.0
12420,73.0,0.0,120.0,1.0,0.0
12421,63.0,0.0,120.0,4.0,0.0
12422,61.0,1.0,120.0,1.0,0.0
12423,63.0,0.0,20.0,11.0,0.0
12424,51.0,2.0,20.0,11.0,0.0
12425,61.0,0.0,120.0,2.0,0.0
12426,67.0,1.0,120.0,2.0,0.0
12427,51.0,4.0,120.0,5.0,0.0
12428,55.0,2.0,20.0,12.0,0.0
12429,46.0,4.0,20.0,13.0,0.0
12430,58.0,0.0,120.0,3.0,0.0
12431,46.0,52.0,120.0,3.0,0.0
12432,34.0,19.0,20.0,14.0,0.0
12433,73.0,3.0,20.0,10.0,0.0
12434,51.0,0.0,20.0,11.0,0.0
12435,63.0,2.0,20.0,11.0,0.0
12436,55.0,2.0,20.0,12.0,0.0
12437,46.0,4.0,20.0,13.0,0.0
12438,34.0,19.0,20.0,14.0,0.0
12439,73.0,3.0,20.0,10.0,0.0
12440,63.0,2.0,20.0,11.0,0.0
12441,51.0,0.0,20.0,11.0,0.0
12442,55.0,2.0,20.0,12.0,0.0
12443,46.0,4.0,20.0,13.0,0.0
12444,34.0,19.0,20.0,14.0,0.0
12445,73.0,3.0,20.0,10.0,0.0
12446,63.0,0.0,20.0,11.0,0.0
12447,51.0,2.0,20.0,11.0,0.0
12448,55.0,2.0,20.0,12.0,0.0
12449,46.0,4.0,20.0,13.0,0.0
12450,34.0,0.0,20.0,14.0,0.0
12451,73.0,3.0,60.0,10.0,0.0
12452,51.0,0.0,60.0,11.0,0.0
12453,63.0,2.0,60.0,11.0,0.0
12454,55.0,2.0,60.0,12.0,0.0
12455,46.0,4.0,60.0,13.0,0.0
12456,34.0,69.0,60.0,14.0,0.0
12457,72.0,3.0,20.0,10.0,0.0
12458,80.0,0.0,120.0,0.0,0.0
12459,84.0,0.0,120.0,0.0,0.0
12460,63.0,0.0,120.0,4.0,0.0
12461,72.0,1.0,120.0,1.0,0.0
12462,60.0,0.0,120.0,1.0,0.0
12463,51.0,0.0,20.0,11.0,0.0
12464,60.0,0.0,120.0,2.0,0.0
12465,68.0,1.0,120.0,2.0,0.0
12466,63.0,2.0,20.0,11.0,0.0
12467,51.0,4.0,120.0,5.0,0.0
12468,56.0,2.0,20.0,12.0,0.0
12469,44.0,4.0,20.0,13.0,0.0
12470,56.0,52.0,120.0,3.0,0.0
12471,44.0,0.0,120.0,3.0,0.0
12472,32.0,19.0,20.0,14.0,0.0
12473,72.0,3.0,20.0,10.0,0.0
12474,63.0,0.0,20.0,11.0,0.0
12475,51.0,2.0,20.0,11.0,0.0
12476,56.0,2.0,20.0,12.0,0.0
12477,44.0,4.0,20.0,13.0,0.0
12478,32.0,19.0,20.0,14.0,0.0
12479,72.0,3.0,20.0,10.0,0.0
12480,63.0,2.0,20.0,11.0,0.0
12481,51.0,0.0,20.0,11.0,0.0
12482,56.0,2.0,20.0,12.0,0.0
12483,44.0,4.0,20.0,13.0,0.0
12484,32.0,19.0,20.0,14.0,0.0
12485,72.0,3.0,20.0,10.0,0.0
12486,63.0,0.0,20.0,11.0,0.0
12487,51.0,2.0,20.0,11.0,0.0
12488,56.0,2.0,20.0,12.0,0.0
12489,44.0,4.0,20.0,13.0,0.0
12490,32.0,1.0,20.0,14.0,0.0
12491,72.0,3.0,60.0,10.0,0.0
12492,63.0,0.0,60.0,11.0,0.0
12493,51.0,2.0,60.0,11.0,0.0
12494,56.0,2.0,60.0,12.0,0.0
12495,44.0,4.0,60.0,13.0,0.0
12496,32.0,79.0,60.0,14.0,0.0
12497,70.0,3.0,30.0,10.0,0.0
12498,58.0,22.0,30.0,11.0,0.0
12499,51.0,2.0,60.0,12.0,0.0
12500,49.0,4.0,60.0,13.0,0.0
12501,37.0,29.0,60.0,14.0,0.0
12502,72.0,3.0,30.0,10.0,0.0
12503,60.0,22.0,30.0,11.0,0.0
12504,51.0,2.0,60.0,12.0,0.0
12505,49.0,4.0,60.0,13.0,0.0
12506,37.0,29.0,60.0,14.0,0.0
12507,73.0,3.0,30.0,10.0,0.0
12508,61.0,22.0,30.0,11.0,0.0
12509,51.0,2.0,60.0,12.0,0.0
12510,49.0,4.0,60.0,13.0,0.0
12511,37.0,29.0,60.0,14.0,0.0
12512,74.0,3.0,30.0,10.0,0.0
12513,62.0,22.0,30.0,11.0,0.0
12514,51.0,2.0,60.0,12.0,0.0
12515,49.0,4.0,60.0,13.0,0.0
12516,37.0,19.0,60.0,14.0,0.0
12517,75.0,3.0,20.0,10.0,0.0
12518,75.0,1.0,240.0,0.0,0.0
12519,87.0,0.0,240.0,0.0,0.0
12520,63.0,0.0,240.0,4.0,0.0
12521,75.0,1.0,240.0,1.0,0.0
12522,63.0,0.0,240.0,1.0,0.0
12523,63.0,0.0,20.0,11.0,0.0
12524,63.0,5.0,240.0,2.0,0.0
12525,51.0,2.0,20.0,11.0,0.0
12526,56.0,2.0,20.0,12.0,0.0
12527,48.0,4.0,20.0,13.0,0.0
12528,51.0,4.0,240.0,3.0,0.0
12529,39.0,50.0,120.0,15.0,0.0
12530,36.0,19.0,20.0,14.0,0.0
12531,75.0,3.0,20.0,10.0,0.0
12532,51.0,2.0,20.0,11.0,0.0
12533,63.0,0.0,20.0,11.0,0.0
12534,56.0,2.0,20.0,12.0,0.0
12535,48.0,4.0,20.0,13.0,0.0
12536,36.0,19.0,20.0,14.0,0.0
12537,75.0,3.0,20.0,10.0,0.0
12538,51.0,2.0,20.0,11.0,0.0
12539,63.0,0.0,20.0,11.0,0.0
12540,56.0,2.0,20.0,12.0,0.0
12541,48.0,4.0,20.0,13.0,0.0
12542,36.0,19.0,20.0,14.0,0.0
12543,75.0,3.0,20.0,10.0,0.0
12544,63.0,0.0,20.0,11.0,0.0
12545,51.0,2.0,20.0,11.0,0.0
12546,56.0,2.0,20.0,12.0,0.0
12547,48.0,4.0,20.0,13.0,0.0
12548,36.0,9.0,20.0,14.0,0.0
12549,75.0,3.0,60.0,10.0,0.0
12550,51.0,2.0,60.0,11.0,0.0
12551,63.0,0.0,60.0,11.0,0.0
12552,56.0,2.0,60.0,12.0,0.0
12553,48.0,4.0,60.0,13.0,0.0
12554,36.0,40.0,60.0,14.0,0.0
12555,73.0,3.0,20.0,10.0,0.0
12556,85.0,0.0,240.0,0.0,0.0
12557,79.0,1.0,240.0,0.0,0.0
12558,63.0,2.0,15.0,6.0,0.0
12559,73.0,1.0,240.0,1.0,0.0
12560,63.0,2.0,240.0,4.0,0.0
12561,67.0,0.0,240.0,1.0,0.0
12562,51.0,0.0,20.0,11.0,0.0
12563,63.0,2.0,20.0,11.0,0.0
12564,67.0,0.0,240.0,2.0,0.0
12565,61.0,5.0,240.0,2.0,0.0
12566,51.0,16.0,15.0,5.0,0.0
12567,55.0,2.0,20.0,12.0,0.0
12568,46.0,4.0,20.0,13.0,0.0
12569,55.0,0.0,240.0,3.0,0.0
12570,49.0,4.0,240.0,3.0,0.0
12571,39.0,50.0,120.0,15.0,0.0
12572,34.0,19.0,20.0,14.0,0.0
12573,73.0,3.0,20.0,10.0,0.0
12574,51.0,2.0,20.0,11.0,0.0
12575,63.0,0.0,20.0,11.0,0.0
12576,55.0,2.0,20.0,12.0,0.0
12577,46.0,4.0,20.0,13.0,0.0
12578,34.0,19.0,20.0,14.0,0.0
12579,73.0,3.0,20.0,10.0,0.0
12580,51.0,0.0,20.0,11.0,0.0
12581,63.0,2.0,20.0,11.0,0.0
12582,55.0,2.0,20.0,12.0,0.0
12583,46.0,4.0,20.0,13.0,0.0
12584,34.0,19.0,20.0,14.0,0.0
12585,73.0,3.0,20.0,10.0,0.0
12586,51.0,2.0,20.0,11.0,0.0
12587,63.0,0.0,20.0,11.0,0.0
12588,55.0,2.0,20.0,12.0,0.0
12589,46.0,4.0,20.0,13.0,0.0
12590,34.0,9.0,20.0,14.0,0.0
12591,73.0,3.0,60.0,10.0,0.0
12592,51.0,0.0,60.0,11.0,0.0
12593,63.0,2.0,60.0,11.0,0.0
12594,55.0,2.0,60.0,12.0,0.0
12595,46.0,4.0,60.0,13.0,0.0
12596,34.0,40.0,60.0,14.0,0.0
12597,72.0,3.0,20.0,10.0,0.0
12598,84.0,0.0,120.0,0.0,0.0
12599,80.0,1.0,120.0,0.0,0.0
12600,68.0,0.0,120.0,1.0,0.0
12601,72.0,0.0,120.0,1.0,0.0
12602,63.0,1.0,120.0,6.0,0.0
12603,63.0,0.0,120.0,4.0,0.0
12604,63.0,2.0,20.0,11.0,0.0
12605,51.0,0.0,20.0,11.0,0.0
12606,68.0,1.0,120.0,2.0,0.0
12607,60.0,0.0,120.0,2.0,0.0
12608,51.0,4.0,120.0,5.0,0.0
12609,56.0,2.0,20.0,12.0,0.0
12610,44.0,4.0,20.0,13.0,0.0
12611,48.0,0.0,120.0,3.0,0.0
12612,56.0,2.0,120.0,3.0,0.0
12613,39.0,50.0,120.0,15.0,0.0
12614,32.0,19.0,20.0,14.0,0.0
12615,72.0,3.0,20.0,10.0,0.0
12616,51.0,0.0,20.0,11.0,0.0
12617,63.0,2.0,20.0,11.0,0.0
12618,56.0,2.0,20.0,12.0,0.0
12619,44.0,4.0,20.0,13.0,0.0
12620,32.0,19.0,20.0,14.0,0.0
12621,72.0,3.0,20.0,10.0,0.0
12622,63.0,0.0,20.0,11.0,0.0
12623,51.0,2.0,20.0,11.0,0.0
12624,56.0,2.0,20.0,12.0,0.0
12625,44.0,4.0,20.0,13.0,0.0
12626,32.0,19.0,20.0,14.0,0.0
12627,72.0,3.0,20.0,10.0,0.0
12628,63.0,0.0,20.0,11.0,0.0
12629,51.0,2.0,20.0,11.0,0.0
12630,56.0,2.0,20.0,12.0,0.0
12631,44.0,4.0,20.0,13.0,0.0
12632,32.0,0.0,20.0,14.0,0.0
12633,72.0,3.0,60.0,10.0,0.0
12634,51.0,2.0,60.0,11.0,0.0
12635,63.0,0.0,60.0,11.0,0.0
12636,56.0,2.0,60.0,12.0,0.0
12637,44.0,4.0,60.0,13.0,0.0
12638,32.0,79.0,60.0,14.0,0.0
12639,70.0,3.0,30.0,10.0,0.0
12640,58.0,12.0,30.0,11.0,0.0
12641,51.0,2.0,40.0,12.0,0.0
12642,49.0,4.0,40.0,13.0,0.0
12643,37.0,39.0,40.0,14.0,0.0
12644,72.0,3.0,30.0,10.0,0.0
12645,60.0,12.0,30.0,11.0,0.0
12646,51.0,2.0,40.0,12.0,0.0
12647,49.0,4.0,40.0,13.0,0.0
12648,37.0,39.0,40.0,14.0,0.0
12649,73.0,3.0,30.0,10.0,0.0
12650,61.0,12.0,30.0,11.0,0.0
12651,51.0,2.0,40.0,12.0,0.0
12652,49.0,4.0,40.0,13.0,0.0
12653,37.0,39.0,40.0,14.0,0.0
12654,74.0,3.0,30.0,10.0,0.0
12655,62.0,12.0,30.0,11.0,0.0
12656,51.0,2.0,40.0,12.0,0.0
12657,49.0,4.0,40.0,13.0,0.0
12658,37.0,29.0,40.0,14.0,0.0
12659,75.0,3.0,20.0,10.0,0.0
12660,75.0,0.0,180.0,0.0,0.0
12661,87.0,1.0,180.0,0.0,0.0
12662,75.0,1.0,180.0,1.0,0.0
12663,63.0,27.0,20.0,11.0,0.0
12664,75.0,2.0,180.0,2.0,0.0
12665,51.0,2.0,180.0,12.0,0.0
12666,48.0,1.0,180.0,13.0,0.0
12667,48.0,3.0,180.0,3.0,0.0
12668,36.0,19.0,180.0,14.0,0.0
12669,75.0,3.0,20.0,10.0,0.0
12670,63.0,27.0,20.0,11.0,0.0
12671,75.0,3.0,20.0,10.0,0.0
12672,63.0,27.0,20.0,11.0,0.0
12673,75.0,3.0,20.0,10.0,0.0
12674,63.0,27.0,20.0,11.0,0.0
12675,75.0,3.0,20.0,10.0,0.0
12676,63.0,27.0,20.0,11.0,0.0
12677,75.0,1.0,20.0,10.0,0.0
12678,63.0,0.0,20.0,11.0,0.0
12679,73.0,3.0,20.0,10.0,0.0
12680,73.0,0.0,60.0,0.0,0.0
12681,85.0,1.0,60.0,0.0,0.0
12682,73.0,1.0,60.0,1.0,0.0
12683,61.0,27.0,20.0,11.0,0.0
12684,73.0,2.0,60.0,2.0,0.0
12685,55.0,2.0,60.0,12.0,0.0
12686,46.0,1.0,60.0,13.0,0.0
12687,46.0,3.0,60.0,3.0,0.0
12688,34.0,19.0,60.0,14.0,0.0
12689,73.0,1.0,20.0,10.0,0.0
12690,61.0,0.0,20.0,11.0,0.0
12691,72.0,3.0,20.0,10.0,0.0
12692,84.0,1.0,60.0,0.0,0.0
12693,72.0,0.0,60.0,0.0,0.0
12694,72.0,1.0,60.0,1.0,0.0
12695,72.0,0.0,60.0,2.0,0.0
12696,60.0,27.0,20.0,11.0,0.0
12697,56.0,2.0,60.0,12.0,0.0
12698,44.0,1.0,60.0,13.0,0.0
12699,44.0,3.0,60.0,3.0,0.0
12700,32.0,19.0,60.0,14.0,0.0
12701,72.0,1.0,20.0,10.0,0.0
12702,60.0,2.0,20.0,11.0,0.0
12703,70.0,3.0,20.0,10.0,0.0
12704,82.0,1.0,60.0,0.0,0.0
12705,70.0,0.0,60.0,0.0,0.0
12706,70.0,1.0,60.0,1.0,0.0
12707,58.0,27.0,20.0,11.0,0.0
12708,70.0,2.0,60.0,2.0,0.0
12709,49.0,2.0,60.0,12.0,0.0
12710,46.0,1.0,60.0,13.0,0.0
12711,46.0,3.0,60.0,3.0,0.0
12712,34.0,19.0,60.0,14.0,0.0
12713,70.0,1.0,20.0,10.0,0.0
12714,58.0,0.0,20.0,11.0,0.0
12715,68.0,3.0,20.0,10.0,0.0
12716,68.0,0.0,60.0,0.0,0.0
12717,80.0,1.0,60.0,0.0,0.0
12718,68.0,1.0,60.0,1.0,0.0
12719,68.0,0.0,60.0,2.0,0.0
12720,56.0,27.0,20.0,11.0,0.0
12721,51.0,2.0,60.0,12.0,0.0
12722,47.0,1.0,60.0,13.0,0.0
12723,47.0,3.0,60.0,3.0,0.0
12724,35.0,19.0,60.0,14.0,0.0
12725,68.0,1.0,20.0,10.0,0.0
12726,56.0,2.0,20.0,11.0,0.0
12727,67.0,3.0,20.0,10.0,0.0
12728,67.0,0.0,60.0,0.0,0.0
12729,79.0,1.0,60.0,0.0,0.0
12730,67.0,1.0,60.0,1.0,0.0
12731,55.0,27.0,20.0,11.0,0.0
12732,67.0,2.0,60.0,2.0,0.0
12733,51.0,2.0,60.0,12.0,0.0
12734,48.0,1.0,60.0,13.0,0.0
12735,48.0,3.0,60.0,3.0,0.0
12736,36.0,19.0,60.0,14.0,0.0
12737,67.0,1.0,20.0,10.0,0.0
12738,55.0,0.0,20.0,11.0,0.0
12739,65.0,3.0,20.0,10.0,0.0
12740,65.0,1.0,60.0,0.0,0.0
12741,65.0,1.0,60.0,1.0,0.0
12742,65.0,0.0,180.0,2.0,0.0
12743,53.0,27.0,20.0,11.0,0.0
12744,61.0,2.0,180.0,12.0,0.0
12745,49.0,1.0,180.0,13.0,0.0
12746,49.0,3.0,180.0,3.0,0.0
12747,37.0,19.0,180.0,14.0,0.0
12748,77.0,1.0,20.0,10.0,0.0
12749,65.0,27.0,20.0,11.0,0.0
12750,77.0,3.0,20.0,10.0,0.0
12751,77.0,0.0,120.0,0.0,0.0
12752,77.0,1.0,120.0,1.0,0.0
12753,65.0,27.0,20.0,11.0,0.0
12754,77.0,3.0,20.0,10.0,0.0
12755,65.0,27.0,20.0,11.0,0.0
12756,77.0,3.0,20.0,10.0,0.0
12757,65.0,27.0,20.0,11.0,0.0
12758,77.0,1.0,20.0,10.0,0.0
12759,65.0,2.0,20.0,11.0,0.0
12760,75.0,3.0,20.0,10.0,0.0
12761,75.0,1.0,60.0,0.0,0.0
12762,75.0,1.0,60.0,1.0,0.0
12763,63.0,0.0,60.0,2.0,0.0
12764,63.0,27.0,20.0,11.0,0.0
12765,60.0,2.0,60.0,12.0,0.0
12766,48.0,1.0,60.0,13.0,0.0
12767,48.0,3.0,60.0,3.0,0.0
12768,36.0,19.0,60.0,14.0,0.0
12769,75.0,1.0,20.0,10.0,0.0
12770,63.0,2.0,20.0,11.0,0.0
12771,73.0,3.0,20.0,10.0,0.0
12772,73.0,1.0,60.0,0.0,0.0
12773,73.0,1.0,60.0,1.0,0.0
12774,61.0,27.0,20.0,11.0,0.0
12775,61.0,0.0,60.0,2.0,0.0
12776,58.0,2.0,60.0,12.0,0.0
12777,46.0,1.0,60.0,13.0,0.0
12778,46.0,3.0,60.0,3.0,0.0
12779,34.0,19.0,60.0,14.0,0.0
12780,73.0,1.0,20.0,10.0,0.0
12781,61.0,2.0,20.0,11.0,0.0
12782,72.0,3.0,20.0,10.0,0.0
12783,72.0,1.0,60.0,0.0,0.0
12784,72.0,1.0,60.0,1.0,0.0
12785,60.0,0.0,60.0,2.0,0.0
12786,60.0,27.0,20.0,11.0,0.0
12787,60.0,2.0,60.0,12.0,0.0
12788,48.0,1.0,60.0,13.0,0.0
12789,48.0,3.0,60.0,3.0,0.0
12790,36.0,19.0,60.0,14.0,0.0
12791,72.0,1.0,20.0,10.0,0.0
12792,60.0,2.0,20.0,11.0,0.0
12793,70.0,3.0,20.0,10.0,0.0
12794,70.0,1.0,60.0,0.0,0.0
12795,70.0,1.0,60.0,1.0,0.0
12796,58.0,27.0,20.0,11.0,0.0
12797,58.0,0.0,60.0,2.0,0.0
12798,61.0,2.0,60.0,12.0,0.0
12799,49.0,1.0,60.0,13.0,0.0
12800,49.0,3.0,60.0,3.0,0.0
12801,37.0,19.0,60.0,14.0,0.0
12802,70.0,1.0,20.0,10.0,0.0
12803,58.0,2.0,20.0,11.0,0.0
12804,68.0,3.0,20.0,10.0,0.0
12805,68.0,1.0,60.0,0.0,0.0
12806,68.0,1.0,60.0,1.0,0.0
12807,56.0,2.0,60.0,2.0,0.0
12808,56.0,27.0,20.0,11.0,0.0
12809,62.0,2.0,60.0,12.0,0.0
12810,50.0,1.0,60.0,13.0,0.0
12811,50.0,3.0,60.0,3.0,0.0
12812,38.0,19.0,60.0,14.0,0.0
12813,68.0,1.0,20.0,10.0,0.0
12814,56.0,0.0,20.0,11.0,0.0
12815,67.0,3.0,20.0,10.0,0.0
12816,67.0,1.0,60.0,0.0,0.0
12817,67.0,1.0,60.0,1.0,0.0
12818,55.0,12.0,20.0,11.0,0.0
12819,55.0,0.0,60.0,2.0,0.0
12820,63.0,2.0,30.0,12.0,0.0
12821,51.0,4.0,30.0,13.0,0.0
12822,51.0,22.0,60.0,3.0,0.0
12823,39.0,9.0,30.0,14.0,0.0
12824,67.0,1.0,20.0,10.0,0.0
12825,55.0,5.0,20.0,11.0,0.0
12826,68.0,3.0,20.0,10.0,0.0
12827,68.0,1.0,60.0,0.0,0.0
12828,68.0,1.0,60.0,1.0,0.0
12829,56.0,5.0,60.0,2.0,0.0
12830,56.0,12.0,20.0,11.0,0.0
12831,72.0,2.0,30.0,12.0,0.0
12832,60.0,4.0,30.0,13.0,0.0
12833,60.0,22.0,60.0,3.0,0.0
12834,48.0,9.0,30.0,14.0,0.0
12835,68.0,1.0,20.0,10.0,0.0
12836,56.0,0.0,20.0,11.0,0.0
12837,70.0,3.0,20.0,10.0,0.0
12838,70.0,1.0,60.0,0.0,0.0
12839,58.0,0.0,60.0,1.0,0.0
12840,70.0,1.0,60.0,1.0,0.0
12841,63.0,2.0,120.0,6.0,0.0
12842,63.0,0.0,120.0,4.0,0.0
12843,70.0,0.0,120.0,6.0,0.0
12844,58.0,5.0,60.0,2.0,0.0
12845,58.0,12.0,20.0,11.0,0.0
12846,51.0,6.0,120.0,5.0,0.0
12847,70.0,2.0,30.0,12.0,0.0
12848,58.0,4.0,30.0,13.0,0.0
12849,58.0,22.0,60.0,3.0,0.0
12850,46.0,9.0,30.0,14.0,0.0
12851,70.0,1.0,20.0,10.0,0.0
12852,58.0,0.0,20.0,11.0,0.0
12853,72.0,3.0,20.0,10.0,0.0
12854,72.0,1.0,60.0,0.0,0.0
12855,72.0,0.0,60.0,1.0,0.0
12856,60.0,1.0,60.0,1.0,0.0
12857,60.0,12.0,20.0,11.0,0.0
12858,60.0,5.0,60.0,2.0,0.0
12859,68.0,2.0,30.0,12.0,0.0
12860,56.0,4.0,30.0,13.0,0.0
12861,56.0,4.0,60.0,3.0,0.0
12862,44.0,9.0,30.0,14.0,0.0
12863,72.0,1.0,20.0,10.0,0.0
12864,60.0,0.0,20.0,11.0,0.0
12865,73.0,3.0,20.0,10.0,0.0
12866,73.0,1.0,60.0,0.0,0.0
12867,63.0,2.0,120.0,4.0,0.0
12868,63.0,0.0,120.0,6.0,0.0
12869,73.0,1.0,60.0,1.0,0.0
12870,70.0,0.0,120.0,6.0,0.0
12871,61.0,0.0,60.0,1.0,0.0
12872,61.0,5.0,60.0,2.0,0.0
12873,61.0,12.0,20.0,11.0,0.0
12874,51.0,6.0,120.0,5.0,0.0
12875,67.0,2.0,30.0,12.0,0.0
12876,55.0,4.0,30.0,13.0,0.0
12877,55.0,22.0,60.0,3.0,0.0
12878,39.0,10.0,15.0,15.0,0.0
12879,43.0,9.0,30.0,14.0,0.0
12880,73.0,1.0,20.0,10.0,0.0
12881,61.0,0.0,20.0,11.0,0.0
12882,75.0,3.0,20.0,10.0,0.0
12883,75.0,1.0,60.0,0.0,0.0
12884,63.0,1.0,60.0,1.0,0.0
12885,75.0,0.0,60.0,1.0,0.0
12886,63.0,5.0,60.0,2.0,0.0
12887,63.0,12.0,20.0,11.0,0.0
12888,65.0,2.0,30.0,12.0,0.0
12889,53.0,4.0,30.0,13.0,0.0
12890,53.0,4.0,60.0,3.0,0.0
12891,41.0,9.0,30.0,14.0,0.0
12892,75.0,1.0,20.0,10.0,0.0
12893,63.0,0.0,20.0,11.0,0.0
12894,77.0,3.0,20.0,10.0,0.0
12895,77.0,1.0,60.0,0.0,0.0
12896,63.0,2.0,120.0,6.0,0.0
12897,70.0,0.0,120.0,6.0,0.0
12898,63.0,0.0,120.0,4.0,0.0
12899,77.0,0.0,60.0,1.0,0.0
12900,65.0,1.0,60.0,1.0,0.0
12901,65.0,12.0,20.0,11.0,0.0
12902,65.0,5.0,60.0,2.0,0.0
12903,63.0,2.0,30.0,12.0,0.0
12904,51.0,4.0,30.0,13.0,0.0
12905,51.0,22.0,60.0,3.0,0.0
12906,39.0,10.0,15.0,15.0,0.0
12907,39.0,9.0,30.0,14.0,0.0
12908,77.0,1.0,20.0,10.0,0.0
12909,65.0,0.0,20.0,11.0,0.0
12910,79.0,3.0,20.0,10.0,0.0
12911,79.0,1.0,60.0,0.0,0.0
12912,79.0,0.0,60.0,1.0,0.0
12913,67.0,1.0,60.0,1.0,0.0
12914,67.0,12.0,20.0,11.0,0.0
12915,67.0,0.0,60.0,2.0,0.0
12916,61.0,2.0,30.0,12.0,0.0
12917,49.0,4.0,30.0,13.0,0.0
12918,50.0,4.0,60.0,3.0,0.0
12919,37.0,9.0,30.0,14.0,0.0
12920,79.0,1.0,20.0,10.0,0.0
12921,67.0,5.0,20.0,11.0,0.0
12922,80.0,1.0,60.0,10.0,0.0
12923,80.0,1.0,60.0,0.0,0.0
12924,68.0,0.0,60.0,1.0,0.0
12925,80.0,1.0,60.0,1.0,0.0
12926,63.0,2.0,120.0,4.0,0.0
12927,72.0,0.0,120.0,6.0,0.0
12928,68.0,2.0,60.0,2.0,0.0
12929,68.0,0.0,60.0,11.0,0.0
12930,51.0,6.0,15.0,5.0,0.0
12931,60.0,2.0,60.0,12.0,0.0
12932,48.0,1.0,60.0,13.0,0.0
12933,48.0,3.0,60.0,3.0,0.0
12934,44.0,50.0,120.0,15.0,0.0
12935,36.0,51.0,60.0,14.0,0.0
12936,77.0,1.0,60.0,10.0,0.0
12937,77.0,1.0,60.0,0.0,0.0
12938,73.0,0.0,60.0,0.0,0.0
12939,68.0,0.0,15.0,6.0,0.0
12940,56.0,2.0,120.0,6.0,0.0
12941,77.0,1.0,60.0,1.0,0.0
12942,68.0,0.0,60.0,1.0,0.0
12943,61.0,2.0,60.0,2.0,0.0
12944,65.0,0.0,60.0,11.0,0.0
12945,65.0,0.0,60.0,2.0,0.0
12946,61.0,2.0,60.0,12.0,0.0
12947,49.0,1.0,60.0,13.0,0.0
12948,49.0,3.0,60.0,3.0,0.0
12949,44.0,50.0,120.0,15.0,0.0
12950,37.0,51.0,60.0,14.0,0.0
12951,75.0,1.0,60.0,10.0,0.0
12952,72.0,1.0,60.0,0.0,0.0
12953,75.0,0.0,60.0,0.0,0.0
12954,56.0,0.0,15.0,4.0,0.0
12955,68.0,0.0,15.0,6.0,0.0
12956,56.0,0.0,120.0,6.0,0.0
12957,72.0,0.0,60.0,1.0,0.0
12958,75.0,1.0,60.0,1.0,0.0
12959,63.0,2.0,60.0,2.0,0.0
12960,60.0,0.0,60.0,2.0,0.0
12961,63.0,0.0,60.0,11.0,0.0
12962,44.0,6.0,15.0,5.0,0.0
12963,63.0,2.0,60.0,12.0,0.0
12964,51.0,1.0,60.0,13.0,0.0
12965,51.0,3.0,60.0,3.0,0.0
12966,44.0,50.0,120.0,15.0,0.0
12967,39.0,51.0,60.0,14.0,0.0
12968,67.0,1.0,60.0,10.0,0.0
12969,79.0,1.0,60.0,0.0,0.0
12970,73.0,0.0,60.0,0.0,0.0
12971,63.0,0.0,120.0,6.0,0.0
12972,51.0,0.0,120.0,6.0,0.0
12973,58.0,2.0,120.0,4.0,0.0
12974,61.0,1.0,60.0,1.0,0.0
12975,67.0,0.0,60.0,1.0,0.0
12976,61.0,2.0,60.0,2.0,0.0
12977,67.0,0.0,60.0,2.0,0.0
12978,61.0,0.0,60.0,11.0,0.0
12979,51.0,0.0,60.0,11.0,0.0
12980,51.0,6.0,120.0,5.0,0.0
12981,51.0,2.0,60.0,12.0,0.0
12982,39.0,1.0,60.0,13.0,0.0
12983,39.0,3.0,60.0,3.0,0.0
12984,39.0,71.0,120.0,15.0,0.0
12985,27.0,51.0,60.0,14.0,0.0
12986,68.0,3.0,90.0,10.0,0.0
12987,72.0,0.0,120.0,0.0,0.0
12988,80.0,1.0,120.0,0.0,0.0
12989,68.0,1.0,120.0,6.0,0.0
12990,56.0,0.0,120.0,4.0,0.0
12991,56.0,0.0,120.0,6.0,0.0
12992,68.0,0.0,120.0,1.0,0.0
12993,60.0,0.0,120.0,1.0,0.0
12994,68.0,0.0,120.0,2.0,0.0
12995,60.0,1.0,120.0,2.0,0.0
12996,51.0,2.0,90.0,11.0,0.0
12997,60.0,0.0,90.0,11.0,0.0
12998,44.0,4.0,120.0,5.0,0.0
12999,56.0,35.0,90.0,12.0,0.0
13000,56.0,4.0,300.0,13.0,0.0
13001,44.0,2.0,120.0,3.0,0.0
13002,44.0,71.0,120.0,15.0,0.0
13003,44.0,20.0,300.0,14.0,0.0
13004,63.0,3.0,90.0,10.0,0.0
13005,59.0,2.0,90.0,11.0,0.0
13006,56.0,91.0,90.0,12.0,0.0
13007,63.0,3.0,90.0,10.0,0.0
13008,59.0,2.0,90.0,11.0,0.0
13009,56.0,41.0,90.0,12.0,0.0
13010,54.0,4.0,60.0,13.0,0.0
13011,42.0,56.0,60.0,14.0,0.0
13012,63.0,3.0,90.0,10.0,0.0
13013,59.0,2.0,90.0,11.0,0.0
13014,56.0,31.0,90.0,12.0,0.0
13015,52.0,4.0,60.0,13.0,0.0
13016,40.0,10.0,60.0,14.0,0.0
13017,51.0,4.0,60.0,13.0,0.0
13018,39.0,80.0,60.0,14.0,0.0
13019,64.0,3.0,90.0,10.0,0.0
13020,61.0,2.0,90.0,11.0,0.0
13021,56.0,115.0,90.0,12.0,0.0
13022,49.0,4.0,300.0,13.0,0.0
13023,37.0,20.0,300.0,14.0,0.0
13024,64.0,3.0,90.0,10.0,0.0
13025,61.0,2.0,90.0,11.0,0.0
13026,56.0,91.0,90.0,12.0,0.0
13027,64.0,3.0,90.0,10.0,0.0
13028,61.0,2.0,90.0,11.0,0.0
13029,56.0,41.0,90.0,12.0,0.0
13030,47.0,4.0,60.0,13.0,0.0
13031,35.0,56.0,60.0,14.0,0.0
13032,64.0,3.0,90.0,10.0,0.0
13033,61.0,2.0,90.0,11.0,0.0
13034,56.0,31.0,90.0,12.0,0.0
13035,46.0,4.0,60.0,13.0,0.0
13036,34.0,10.0,60.0,14.0,0.0
13037,44.0,4.0,60.0,13.0,0.0
13038,32.0,80.0,60.0,14.0,0.0
13039,64.0,3.0,90.0,10.0,0.0
13040,78.0,5.0,840.0,1.0,0.0
13041,61.0,2.0,90.0,11.0,0.0
13042,58.0,115.0,90.0,12.0,0.0
13043,42.0,4.0,300.0,13.0,0.0
13044,30.0,20.0,300.0,14.0,0.0
13045,64.0,3.0,90.0,10.0,0.0
13046,61.0,2.0,90.0,11.0,0.0
13047,54.0,91.0,90.0,12.0,0.0
13048,64.0,3.0,90.0,10.0,0.0
13049,61.0,2.0,90.0,11.0,0.0
13050,54.0,41.0,90.0,12.0,0.0
13051,44.0,4.0,60.0,13.0,0.0
13052,32.0,56.0,60.0,14.0,0.0
13053,64.0,3.0,90.0,10.0,0.0
13054,61.0,2.0,90.0,11.0,0.0
13055,54.0,31.0,90.0,12.0,0.0
13056,45.0,4.0,60.0,13.0,0.0
13057,33.0,10.0,60.0,14.0,0.0
13058,46.0,4.0,60.0,13.0,0.0
13059,34.0,80.0,60.0,14.0,0.0
13060,63.0,3.0,90.0,10.0,0.0
13061,59.0,2.0,90.0,11.0,0.0
13062,54.0,115.0,90.0,12.0,0.0
13063,47.0,4.0,300.0,13.0,0.0
13064,35.0,20.0,300.0,14.0,0.0
13065,63.0,3.0,90.0,10.0,0.0
13066,59.0,2.0,90.0,11.0,0.0
13067,54.0,91.0,90.0,12.0,0.0
13068,63.0,3.0,90.0,10.0,0.0
13069,59.0,2.0,90.0,11.0,0.0
13070,54.0,36.0,90.0,12.0,0.0
13071,49.0,4.0,60.0,13.0,0.0
13072,37.0,51.0,60.0,14.0,0.0
13073,63.0,3.0,90.0,10.0,0.0
13074,76.0,5.0,60.0,1.0,0.0
13075,59.0,2.0,90.0,11.0,0.0
13076,54.0,26.0,90.0,12.0,0.0
13077,50.0,4.0,60.0,13.0,0.0
13078,38.0,10.0,60.0,14.0,0.0
13079,75.0,5.0,60.0,1.0,0.0
13080,51.0,4.0,60.0,13.0,0.0
13081,39.0,46.0,60.0,14.0,0.0
13082,61.0,3.0,90.0,10.0,0.0
13083,75.0,20.0,40.0,1.0,0.0
13084,59.0,2.0,90.0,11.0,0.0
13085,56.0,6.0,90.0,12.0,0.0
13086,52.0,4.0,60.0,13.0,0.0
13087,40.0,10.0,60.0,14.0,0.0
13088,73.0,25.0,40.0,1.0,0.0
13089,51.0,4.0,60.0,13.0,0.0
13090,39.0,36.0,60.0,14.0,0.0
13091,61.0,3.0,90.0,10.0,0.0
13092,73.0,5.0,90.0,1.0,0.0
13093,59.0,2.0,90.0,11.0,0.0
13094,56.0,6.0,90.0,12.0,0.0
13095,52.0,4.0,30.0,13.0,0.0
13096,40.0,40.0,30.0,14.0,0.0
13097,53.0,4.0,30.0,13.0,0.0
13098,41.0,86.0,30.0,14.0,0.0
13099,61.0,3.0,90.0,10.0,0.0
13100,73.0,25.0,90.0,1.0,0.0
13101,58.0,2.0,90.0,11.0,0.0
13102,54.0,6.0,90.0,12.0,0.0
13103,54.0,4.0,60.0,13.0,0.0
13104,42.0,10.0,60.0,14.0,0.0
13105,53.0,4.0,60.0,13.0,0.0
13106,41.0,36.0,60.0,14.0,0.0
13107,61.0,3.0,90.0,10.0,0.0
13108,73.0,5.0,90.0,1.0,0.0
13109,58.0,2.0,90.0,11.0,0.0
13110,54.0,6.0,90.0,12.0,0.0
13111,54.0,4.0,30.0,13.0,0.0
13112,42.0,40.0,30.0,14.0,0.0
13113,54.0,4.0,30.0,13.0,0.0
13114,42.0,100.0,30.0,14.0,0.0
13115,61.0,3.0,90.0,10.0,0.0
13116,73.0,79.0,120.0,1.0,0.0
13117,61.0,2.0,90.0,11.0,0.0
13118,75.0,4.0,840.0,2.0,0.0
13119,58.0,36.0,90.0,12.0,0.0
13120,55.0,4.0,300.0,13.0,0.0
13121,63.0,3.0,840.0,3.0,0.0
13122,43.0,20.0,300.0,14.0,0.0
13123,70.0,3.0,90.0,10.0,0.0
13124,61.0,2.0,90.0,11.0,0.0
13125,63.0,91.0,90.0,12.0,0.0
13126,70.0,3.0,90.0,10.0,0.0
13127,61.0,2.0,90.0,11.0,0.0
13128,63.0,41.0,90.0,12.0,0.0
13129,51.0,4.0,60.0,13.0,0.0
13130,39.0,56.0,60.0,14.0,0.0
13131,70.0,3.0,90.0,10.0,0.0
13132,61.0,2.0,90.0,11.0,0.0
13133,63.0,31.0,90.0,12.0,0.0
13134,53.0,4.0,60.0,13.0,0.0
13135,41.0,10.0,60.0,14.0,0.0
13136,55.0,4.0,60.0,13.0,0.0
13137,43.0,80.0,60.0,14.0,0.0
13138,68.0,3.0,90.0,10.0,0.0
13139,59.0,2.0,90.0,11.0,0.0
13140,63.0,115.0,90.0,12.0,0.0
13141,56.0,4.0,300.0,13.0,0.0
13142,44.0,20.0,300.0,14.0,0.0
13143,68.0,3.0,90.0,10.0,0.0
13144,59.0,2.0,90.0,11.0,0.0
13145,63.0,91.0,90.0,12.0,0.0
13146,68.0,3.0,90.0,10.0,0.0
13147,59.0,2.0,90.0,11.0,0.0
13148,63.0,37.0,90.0,12.0,0.0
13149,44.0,1.0,60.0,13.0,0.0
13150,32.0,52.0,60.0,14.0,0.0
13151,68.0,3.0,90.0,10.0,0.0
13152,59.0,2.0,90.0,11.0,0.0
13153,73.0,4.0,60.0,2.0,0.0
13154,63.0,27.0,90.0,12.0,0.0
13155,46.0,1.0,60.0,13.0,0.0
13156,61.0,3.0,60.0,3.0,0.0
13157,34.0,10.0,60.0,14.0,0.0
13158,71.0,4.0,60.0,2.0,0.0
13159,47.0,1.0,60.0,13.0,0.0
13160,59.0,3.0,60.0,3.0,0.0
13161,35.0,47.0,60.0,14.0,0.0
13162,68.0,3.0,90.0,10.0,0.0
13163,71.0,5.0,40.0,2.0,0.0
13164,58.0,2.0,90.0,11.0,0.0
13165,64.0,7.0,90.0,12.0,0.0
13166,49.0,4.0,60.0,13.0,0.0
13167,59.0,14.0,40.0,3.0,0.0
13168,37.0,10.0,60.0,14.0,0.0
13169,70.0,5.0,40.0,2.0,0.0
13170,58.0,19.0,40.0,3.0,0.0
13171,48.0,4.0,60.0,13.0,0.0
13172,36.0,36.0,60.0,14.0,0.0
13173,68.0,3.0,90.0,10.0,0.0
13174,64.0,2.0,90.0,11.0,0.0
13175,70.0,4.0,90.0,2.0,0.0
13176,58.0,7.0,90.0,12.0,0.0
13177,49.0,4.0,30.0,13.0,0.0
13178,58.0,3.0,90.0,3.0,0.0
13179,37.0,40.0,30.0,14.0,0.0
13180,49.0,1.0,30.0,13.0,0.0
13181,37.0,86.0,30.0,14.0,0.0
13182,68.0,3.0,90.0,10.0,0.0
13183,70.0,5.0,90.0,2.0,0.0
13184,65.0,2.0,90.0,11.0,0.0
13185,59.0,7.0,90.0,12.0,0.0
13186,50.0,4.0,60.0,13.0,0.0
13187,58.0,19.0,90.0,3.0,0.0
13188,38.0,10.0,60.0,14.0,0.0
13189,49.0,4.0,60.0,13.0,0.0
13190,37.0,36.0,60.0,14.0,0.0
13191,68.0,3.0,90.0,10.0,0.0
13192,65.0,2.0,90.0,11.0,0.0
13193,70.0,4.0,90.0,2.0,0.0
13194,59.0,7.0,90.0,12.0,0.0
13195,50.0,4.0,30.0,13.0,0.0
13196,58.0,3.0,90.0,3.0,0.0
13197,38.0,40.0,30.0,14.0,0.0
13198,50.0,1.0,30.0,13.0,0.0
13199,38.0,100.0,30.0,14.0,0.0
13200,67.0,3.0,90.0,10.0,0.0
13201,79.0,2.0,480.0,0.0,0.0
13202,70.0,5.0,480.0,2.0,0.0
13203,73.0,0.0,480.0,2.0,0.0
13204,63.0,2.0,90.0,11.0,0.0
13205,58.0,115.0,90.0,12.0,0.0
13206,51.0,4.0,300.0,13.0,0.0
13207,58.0,0.0,480.0,3.0,0.0
13208,61.0,73.0,480.0,3.0,0.0
13209,39.0,20.0,300.0,14.0,0.0
13210,73.0,3.0,90.0,10.0,0.0
13211,67.0,2.0,90.0,11.0,0.0
13212,58.0,91.0,90.0,12.0,0.0
13213,73.0,3.0,90.0,10.0,0.0
13214,67.0,2.0,90.0,11.0,0.0
13215,58.0,41.0,90.0,12.0,0.0
13216,50.0,4.0,60.0,13.0,0.0
13217,38.0,56.0,60.0,14.0,0.0
13218,73.0,3.0,90.0,10.0,0.0
13219,67.0,2.0,90.0,11.0,0.0
13220,58.0,31.0,90.0,12.0,0.0
13221,51.0,4.0,60.0,13.0,0.0
13222,39.0,10.0,60.0,14.0,0.0
13223,52.0,4.0,60.0,13.0,0.0
13224,40.0,0.0,60.0,14.0,0.0
13225,72.0,3.0,90.0,10.0,0.0
13226,80.0,1.0,720.0,0.0,0.0
13227,72.0,1.0,480.0,1.0,0.0
13228,60.0,0.0,480.0,4.0,0.0
13229,72.0,5.0,480.0,2.0,0.0
13230,68.0,1.0,720.0,2.0,0.0
13231,68.0,2.0,90.0,11.0,0.0
13232,56.0,4.0,720.0,5.0,0.0
13233,56.0,115.0,90.0,12.0,0.0
13234,53.0,4.0,300.0,13.0,0.0
13235,60.0,59.0,480.0,3.0,0.0
13236,56.0,59.0,720.0,3.0,0.0
13237,41.0,20.0,300.0,14.0,0.0
13238,72.0,3.0,90.0,10.0,0.0
13239,68.0,2.0,90.0,11.0,0.0
13240,56.0,91.0,90.0,12.0,0.0
13241,72.0,3.0,90.0,10.0,0.0
13242,68.0,2.0,90.0,11.0,0.0
13243,56.0,41.0,90.0,12.0,0.0
13244,51.0,4.0,60.0,13.0,0.0
13245,39.0,56.0,60.0,14.0,0.0
13246,72.0,3.0,90.0,10.0,0.0
13247,68.0,2.0,90.0,11.0,0.0
13248,56.0,31.0,90.0,12.0,0.0
13249,49.0,4.0,60.0,13.0,0.0
13250,37.0,10.0,60.0,14.0,0.0
13251,48.0,4.0,60.0,13.0,0.0
13252,36.0,1.0,60.0,14.0,0.0
13253,70.0,3.0,90.0,10.0,0.0
13254,58.0,1.0,480.0,4.0,0.0
13255,77.0,1.0,240.0,1.0,0.0
13256,65.0,2.0,90.0,11.0,0.0
13257,70.0,1.0,480.0,2.0,0.0
13258,56.0,41.0,90.0,12.0,0.0
13259,49.0,4.0,60.0,13.0,0.0
13260,58.0,57.0,480.0,3.0,0.0
13261,37.0,10.0,60.0,14.0,0.0
13262,48.0,4.0,60.0,13.0,0.0
13263,36.0,56.0,60.0,14.0,0.0
13264,70.0,3.0,90.0,10.0,0.0
13265,65.0,2.0,90.0,11.0,0.0
13266,56.0,31.0,90.0,12.0,0.0
13267,49.0,4.0,60.0,13.0,0.0
13268,37.0,10.0,60.0,14.0,0.0
13269,50.0,4.0,60.0,13.0,0.0
13270,38.0,0.0,60.0,14.0,0.0
13271,70.0,3.0,90.0,10.0,0.0
13272,79.0,1.0,240.0,0.0,0.0
13273,73.0,1.0,240.0,1.0,0.0
13274,61.0,2.0,90.0,11.0,0.0
13275,67.0,4.0,240.0,2.0,0.0
13276,51.0,4.0,240.0,5.0,0.0
13277,55.0,41.0,90.0,12.0,0.0
13278,51.0,4.0,60.0,13.0,0.0
13279,55.0,3.0,240.0,3.0,0.0
13280,39.0,10.0,60.0,14.0,0.0
13281,50.0,4.0,60.0,13.0,0.0
13282,38.0,56.0,60.0,14.0,0.0
13283,70.0,3.0,90.0,10.0,0.0
13284,61.0,2.0,90.0,11.0,0.0
13285,55.0,25.0,90.0,12.0,0.0
13286,51.0,4.0,60.0,13.0,0.0
13287,39.0,10.0,60.0,14.0,0.0
13288,39.0,1.0,60.0,13.0,0.0
13289,27.0,1.0,60.0,14.0,0.0
13290,68.0,1.0,360.0,10.0,0.0
13291,72.0,1.0,360.0,0.0,0.0
13292,80.0,0.0,360.0,0.0,0.0
13293,56.0,2.0,240.0,4.0,0.0
13294,72.0,0.0,360.0,1.0,0.0
13295,68.0,1.0,360.0,1.0,0.0
13296,56.0,0.0,360.0,11.0,0.0
13297,60.0,0.0,360.0,11.0,0.0
13298,68.0,5.0,360.0,2.0,0.0
13299,48.0,106.0,240.0,5.0,0.0
13300,56.0,2.0,60.0,12.0,0.0
13301,44.0,4.0,60.0,13.0,0.0
13302,44.0,0.0,360.0,3.0,0.0
13303,56.0,12.0,360.0,3.0,0.0
13304,32.0,144.0,60.0,14.0,0.0
13305,51.0,2.0,90.0,12.0,0.0
13306,39.0,4.0,90.0,13.0,0.0
13307,27.0,14.0,90.0,14.0,0.0
13308,55.0,2.0,20.0,12.0,0.0
13309,43.0,4.0,20.0,13.0,0.0
13310,31.0,1.0,20.0,14.0,0.0
13311,68.0,0.0,360.0,6.0,0.0
13312,56.0,0.0,360.0,4.0,0.0
13313,56.0,2.0,360.0,6.0,0.0
13314,44.0,91.0,360.0,5.0,0.0
13315,56.0,2.0,360.0,12.0,0.0
13316,44.0,4.0,360.0,13.0,0.0
13317,44.0,80.0,120.0,15.0,0.0
13318,32.0,1.0,360.0,14.0,0.0
13319,63.0,1.0,90.0,10.0,0.0
13320,75.0,1.0,90.0,0.0,0.0
13321,63.0,1.0,90.0,1.0,0.0
13322,63.0,5.0,90.0,2.0,0.0
13323,51.0,0.0,90.0,11.0,0.0
13324,51.0,12.0,90.0,3.0,0.0
13325,39.0,0.0,90.0,3.0,0.0
13326,67.0,1.0,20.0,10.0,0.0
13327,79.0,1.0,20.0,0.0,0.0
13328,67.0,1.0,20.0,1.0,0.0
13329,55.0,5.0,20.0,11.0,0.0
13330,67.0,0.0,20.0,2.0,0.0
13331,55.0,117.0,20.0,3.0,0.0
13332,43.0,0.0,20.0,3.0,0.0
13333,68.0,1.0,360.0,10.0,0.0
13334,80.0,0.0,360.0,0.0,0.0
13335,72.0,1.0,360.0,0.0,0.0
13336,72.0,1.0,360.0,1.0,0.0
13337,68.0,0.0,360.0,1.0,0.0
13338,56.0,5.0,360.0,11.0,0.0
13339,68.0,0.0,360.0,2.0,0.0
13340,56.0,0.0,360.0,3.0,0.0
13341,44.0,12.0,360.0,3.0,0.0
13342,51.0,2.0,90.0,12.0,0.0
13343,39.0,4.0,90.0,13.0,0.0
13344,27.0,14.0,90.0,14.0,0.0
13345,55.0,2.0,20.0,12.0,0.0
13346,43.0,4.0,20.0,13.0,0.0
13347,31.0,109.0,20.0,14.0,0.0
13348,56.0,0.0,360.0,4.0,0.0
13349,56.0,1.0,360.0,6.0,0.0
13350,68.0,0.0,360.0,6.0,0.0
13351,44.0,1.0,360.0,5.0,0.0
13352,56.0,2.0,360.0,12.0,0.0
13353,44.0,1.0,360.0,13.0,0.0
13354,44.0,80.0,120.0,15.0,0.0
13355,32.0,49.0,360.0,14.0,0.0
13356,63.0,1.0,90.0,10.0,0.0
13357,75.0,1.0,90.0,0.0,0.0
13358,63.0,1.0,90.0,1.0,0.0
13359,51.0,5.0,90.0,11.0,0.0
13360,63.0,0.0,90.0,2.0,0.0
13361,51.0,0.0,90.0,3.0,0.0
13362,39.0,12.0,90.0,3.0,0.0
13363,67.0,1.0,20.0,10.0,0.0
13364,79.0,1.0,20.0,0.0,0.0
13365,67.0,1.0,20.0,1.0,0.0
13366,67.0,5.0,20.0,2.0,0.0
13367,55.0,0.0,20.0,11.0,0.0
13368,55.0,0.0,20.0,3.0,0.0
13369,43.0,32.0,20.0,3.0,0.0
13370,68.0,3.0,30.0,10.0,0.0
13371,80.0,1.0,60.0,0.0,0.0
13372,68.0,58.0,60.0,1.0,0.0
13373,68.0,1.0,120.0,2.0,0.0
13374,56.0,0.0,120.0,2.0,0.0
13375,56.0,28.0,30.0,11.0,0.0
13376,44.0,0.0,120.0,3.0,0.0
13377,56.0,2.0,120.0,3.0,0.0
13378,44.0,1.0,120.0,15.0,0.0
13379,68.0,2.0,60.0,10.0,0.0
13380,56.0,0.0,60.0,11.0,0.0
13381,67.0,3.0,60.0,10.0,0.0
13382,55.0,47.0,60.0,11.0,0.0
13383,68.0,3.0,60.0,10.0,0.0
13384,56.0,37.0,60.0,11.0,0.0
13385,70.0,3.0,30.0,10.0,0.0
13386,82.0,0.0,60.0,0.0,0.0
13387,79.0,1.0,60.0,0.0,0.0
13388,58.0,0.0,120.0,4.0,0.0
13389,70.0,0.0,60.0,1.0,0.0
13390,67.0,58.0,60.0,1.0,0.0
13391,51.0,0.0,120.0,6.0,0.0
13392,63.0,1.0,120.0,6.0,0.0
13393,58.0,28.0,30.0,11.0,0.0
13394,58.0,0.0,120.0,2.0,0.0
13395,67.0,0.0,120.0,2.0,0.0
13396,51.0,1.0,120.0,5.0,0.0
13397,67.0,2.0,120.0,12.0,0.0
13398,51.0,1.0,120.0,13.0,0.0
13399,51.0,2.0,120.0,3.0,0.0
13400,39.0,1.0,120.0,15.0,0.0
13401,39.0,49.0,120.0,14.0,0.0
13402,70.0,2.0,60.0,10.0,0.0
13403,58.0,1.0,60.0,11.0,0.0
13404,69.0,3.0,60.0,10.0,0.0
13405,57.0,47.0,60.0,11.0,0.0
13406,70.0,3.0,60.0,10.0,0.0
13407,58.0,37.0,60.0,11.0,0.0
13408,72.0,3.0,30.0,10.0,0.0
13409,80.0,1.0,60.0,0.0,0.0
13410,84.0,0.0,60.0,0.0,0.0
13411,63.0,1.0,120.0,4.0,0.0
13412,72.0,0.0,60.0,1.0,0.0
13413,68.0,58.0,60.0,1.0,0.0
13414,56.0,0.0,120.0,6.0,0.0
13415,68.0,0.0,120.0,6.0,0.0
13416,60.0,0.0,120.0,2.0,0.0
13417,68.0,0.0,120.0,2.0,0.0
13418,60.0,28.0,30.0,11.0,0.0
13419,51.0,1.0,120.0,5.0,0.0
13420,68.0,2.0,120.0,12.0,0.0
13421,56.0,1.0,120.0,13.0,0.0
13422,56.0,2.0,120.0,3.0,0.0
13423,44.0,1.0,120.0,15.0,0.0
13424,44.0,49.0,120.0,14.0,0.0
13425,72.0,2.0,60.0,10.0,0.0
13426,60.0,1.0,60.0,11.0,0.0
13427,70.0,3.0,60.0,10.0,0.0
13428,58.0,47.0,60.0,11.0,0.0
13429,72.0,3.0,60.0,10.0,0.0
13430,60.0,37.0,60.0,11.0,0.0
13431,73.0,3.0,30.0,10.0,0.0
13432,85.0,1.0,60.0,0.0,0.0
13433,80.0,0.0,60.0,0.0,0.0
13434,68.0,58.0,60.0,1.0,0.0
13435,73.0,0.0,60.0,1.0,0.0
13436,56.0,1.0,120.0,4.0,0.0
13437,56.0,0.0,120.0,6.0,0.0
13438,68.0,0.0,120.0,6.0,0.0
13439,61.0,0.0,120.0,2.0,0.0
13440,68.0,1.0,120.0,2.0,0.0
13441,61.0,28.0,30.0,11.0,0.0
13442,44.0,1.0,120.0,5.0,0.0
13443,70.0,2.0,120.0,12.0,0.0
13444,58.0,1.0,120.0,13.0,0.0
13445,58.0,2.0,120.0,3.0,0.0
13446,44.0,1.0,120.0,15.0,0.0
13447,46.0,49.0,120.0,14.0,0.0
13448,73.0,2.0,60.0,10.0,0.0
13449,61.0,0.0,60.0,11.0,0.0
13450,72.0,3.0,60.0,10.0,0.0
13451,60.0,47.0,60.0,11.0,0.0
13452,73.0,3.0,60.0,10.0,0.0
13453,61.0,27.0,60.0,11.0,0.0
13454,75.0,3.0,20.0,10.0,0.0
13455,87.0,1.0,480.0,0.0,0.0
13456,68.0,2.0,120.0,6.0,0.0
13457,56.0,0.0,120.0,6.0,0.0
13458,56.0,0.0,120.0,4.0,0.0
13459,75.0,1.0,480.0,1.0,0.0
13460,68.0,0.0,480.0,1.0,0.0
13461,63.0,27.0,20.0,11.0,0.0
13462,44.0,6.0,120.0,5.0,0.0
13463,60.0,2.0,60.0,12.0,0.0
13464,48.0,4.0,60.0,13.0,0.0
13465,63.0,22.0,480.0,3.0,0.0
13466,60.0,0.0,480.0,3.0,0.0
13467,44.0,10.0,120.0,15.0,0.0
13468,36.0,9.0,60.0,14.0,0.0
13469,75.0,3.0,20.0,10.0,0.0
13470,63.0,12.0,20.0,11.0,0.0
13471,75.0,3.0,20.0,10.0,0.0
13472,63.0,27.0,20.0,11.0,0.0
13473,75.0,3.0,20.0,10.0,0.0
13474,63.0,9.0,20.0,11.0,0.0
13475,75.0,3.0,20.0,10.0,0.0
13476,63.0,27.0,20.0,11.0,0.0
13477,63.0,2.0,60.0,12.0,0.0
13478,51.0,4.0,60.0,13.0,0.0
13479,39.0,9.0,60.0,14.0,0.0
13480,75.0,3.0,20.0,10.0,0.0
13481,63.0,12.0,20.0,11.0,0.0
13482,75.0,3.0,20.0,10.0,0.0
13483,63.0,27.0,20.0,11.0,0.0
13484,75.0,3.0,20.0,10.0,0.0
13485,63.0,27.0,20.0,11.0,0.0
13486,75.0,3.0,20.0,10.0,0.0
13487,63.0,27.0,20.0,11.0,0.0
13488,68.0,2.0,60.0,12.0,0.0
13489,56.0,4.0,60.0,13.0,0.0
13490,44.0,9.0,60.0,14.0,0.0
13491,75.0,3.0,20.0,10.0,0.0
13492,63.0,12.0,20.0,11.0,0.0
13493,75.0,3.0,20.0,10.0,0.0
13494,63.0,27.0,20.0,11.0,0.0
13495,75.0,3.0,20.0,10.0,0.0
13496,63.0,27.0,20.0,11.0,0.0
13497,75.0,3.0,20.0,10.0,0.0
13498,63.0,27.0,20.0,11.0,0.0
13499,72.0,2.0,60.0,12.0,0.0
13500,60.0,4.0,60.0,13.0,0.0
13501,48.0,9.0,60.0,14.0,0.0
13502,75.0,3.0,20.0,10.0,0.0
13503,63.0,12.0,20.0,11.0,0.0
13504,75.0,3.0,20.0,10.0,0.0
13505,63.0,27.0,20.0,11.0,0.0
13506,75.0,1.0,20.0,10.0,0.0
13507,63.0,5.0,20.0,11.0,0.0
13508,76.0,3.0,20.0,10.0,0.0
13509,85.0,1.0,480.0,0.0,0.0
13510,67.0,0.0,480.0,1.0,0.0
13511,76.0,1.0,480.0,1.0,0.0
13512,64.0,27.0,20.0,11.0,0.0
13513,58.0,2.0,60.0,12.0,0.0
13514,46.0,4.0,60.0,13.0,0.0
13515,61.0,22.0,480.0,3.0,0.0
13516,58.0,0.0,480.0,3.0,0.0
13517,34.0,9.0,60.0,14.0,0.0
13518,76.0,3.0,20.0,10.0,0.0
13519,64.0,12.0,20.0,11.0,0.0
13520,76.0,3.0,20.0,10.0,0.0
13521,64.0,27.0,20.0,11.0,0.0
13522,76.0,3.0,20.0,10.0,0.0
13523,64.0,27.0,20.0,11.0,0.0
13524,76.0,3.0,20.0,10.0,0.0
13525,64.0,27.0,20.0,11.0,0.0
13526,61.0,2.0,60.0,12.0,0.0
13527,49.0,4.0,60.0,13.0,0.0
13528,37.0,9.0,60.0,14.0,0.0
13529,76.0,3.0,20.0,10.0,0.0
13530,64.0,12.0,20.0,11.0,0.0
13531,76.0,3.0,20.0,10.0,0.0
13532,64.0,27.0,20.0,11.0,0.0
13533,76.0,3.0,20.0,10.0,0.0
13534,64.0,27.0,20.0,11.0,0.0
13535,76.0,3.0,20.0,10.0,0.0
13536,64.0,27.0,20.0,11.0,0.0
13537,67.0,2.0,60.0,12.0,0.0
13538,55.0,4.0,60.0,13.0,0.0
13539,43.0,9.0,60.0,14.0,0.0
13540,76.0,3.0,20.0,10.0,0.0
13541,64.0,12.0,20.0,11.0,0.0
13542,76.0,3.0,20.0,10.0,0.0
13543,64.0,27.0,20.0,11.0,0.0
13544,76.0,3.0,20.0,10.0,0.0
13545,64.0,27.0,20.0,11.0,0.0
13546,76.0,3.0,20.0,10.0,0.0
13547,64.0,27.0,20.0,11.0,0.0
13548,70.0,2.0,60.0,12.0,0.0
13549,58.0,4.0,60.0,13.0,0.0
13550,46.0,9.0,60.0,14.0,0.0
13551,76.0,3.0,20.0,10.0,0.0
13552,64.0,12.0,20.0,11.0,0.0
13553,76.0,3.0,20.0,10.0,0.0
13554,64.0,27.0,20.0,11.0,0.0
13555,76.0,1.0,20.0,10.0,0.0
13556,64.0,5.0,20.0,11.0,0.0
13557,77.0,3.0,20.0,10.0,0.0
13558,84.0,1.0,600.0,0.0,0.0
13559,77.0,19.0,480.0,0.0,0.0
13560,72.0,0.0,480.0,1.0,0.0
13561,77.0,1.0,480.0,1.0,0.0
13562,65.0,27.0,20.0,11.0,0.0
13563,57.0,2.0,60.0,12.0,0.0
13564,45.0,4.0,60.0,13.0,0.0
13565,57.0,0.0,600.0,3.0,0.0
13566,60.0,3.0,600.0,3.0,0.0
13567,33.0,9.0,60.0,14.0,0.0
13568,77.0,3.0,20.0,10.0,0.0
13569,65.0,12.0,20.0,11.0,0.0
13570,77.0,3.0,20.0,10.0,0.0
13571,65.0,27.0,20.0,11.0,0.0
13572,77.0,3.0,20.0,10.0,0.0
13573,65.0,27.0,20.0,11.0,0.0
13574,77.0,3.0,20.0,10.0,0.0
13575,65.0,27.0,20.0,11.0,0.0
13576,60.0,2.0,60.0,12.0,0.0
13577,48.0,4.0,60.0,13.0,0.0
13578,36.0,9.0,60.0,14.0,0.0
13579,77.0,3.0,20.0,10.0,0.0
13580,65.0,12.0,20.0,11.0,0.0
13581,77.0,3.0,20.0,10.0,0.0
13582,65.0,27.0,20.0,11.0,0.0
13583,77.0,3.0,20.0,10.0,0.0
13584,65.0,27.0,20.0,11.0,0.0
13585,77.0,3.0,20.0,10.0,0.0
13586,65.0,27.0,20.0,11.0,0.0
13587,65.0,2.0,60.0,12.0,0.0
13588,53.0,4.0,60.0,13.0,0.0
13589,41.0,9.0,60.0,14.0,0.0
13590,77.0,3.0,20.0,10.0,0.0
13591,65.0,12.0,20.0,11.0,0.0
13592,77.0,3.0,20.0,10.0,0.0
13593,65.0,27.0,20.0,11.0,0.0
13594,77.0,3.0,20.0,10.0,0.0
13595,65.0,27.0,20.0,11.0,0.0
13596,77.0,3.0,20.0,10.0,0.0
13597,65.0,27.0,20.0,11.0,0.0
13598,69.0,2.0,60.0,12.0,0.0
13599,57.0,4.0,60.0,13.0,0.0
13600,45.0,9.0,60.0,14.0,0.0
13601,77.0,3.0,20.0,10.0,0.0
13602,65.0,12.0,20.0,11.0,0.0
13603,77.0,3.0,20.0,10.0,0.0
13604,65.0,27.0,20.0,11.0,0.0
13605,77.0,2.0,20.0,10.0,0.0
13606,65.0,8.0,20.0,11.0,0.0
13607,78.0,3.0,20.0,10.0,0.0
13608,78.0,0.0,120.0,0.0,0.0
13609,66.0,0.0,120.0,1.0,0.0
13610,78.0,18.0,120.0,1.0,0.0
13611,66.0,27.0,20.0,11.0,0.0
13612,63.0,2.0,60.0,12.0,0.0
13613,51.0,4.0,60.0,13.0,0.0
13614,39.0,9.0,60.0,14.0,0.0
13615,78.0,3.0,20.0,10.0,0.0
13616,66.0,12.0,20.0,11.0,0.0
13617,78.0,3.0,20.0,10.0,0.0
13618,66.0,27.0,20.0,11.0,0.0
13619,78.0,3.0,20.0,10.0,0.0
13620,66.0,5.0,20.0,11.0,0.0
13621,75.0,3.0,20.0,10.0,0.0
13622,75.0,0.0,120.0,0.0,0.0
13623,87.0,1.0,120.0,0.0,0.0
13624,63.0,0.0,120.0,1.0,0.0
13625,75.0,18.0,120.0,1.0,0.0
13626,63.0,27.0,20.0,11.0,0.0
13627,63.0,2.0,60.0,12.0,0.0
13628,63.0,4.0,60.0,13.0,0.0
13629,57.0,0.0,120.0,3.0,0.0
13630,54.0,3.0,120.0,3.0,0.0
13631,51.0,9.0,60.0,14.0,0.0
13632,75.0,3.0,20.0,10.0,0.0
13633,63.0,12.0,20.0,11.0,0.0
13634,75.0,3.0,20.0,10.0,0.0
13635,63.0,27.0,20.0,11.0,0.0
13636,75.0,3.0,20.0,10.0,0.0
13637,63.0,5.0,20.0,11.0,0.0
13638,72.0,3.0,20.0,10.0,0.0
13639,72.0,0.0,120.0,0.0,0.0
13640,84.0,1.0,120.0,0.0,0.0
13641,60.0,18.0,120.0,1.0,0.0
13642,72.0,0.0,120.0,1.0,0.0
13643,60.0,27.0,20.0,11.0,0.0
13644,63.0,2.0,60.0,12.0,0.0
13645,63.0,4.0,60.0,13.0,0.0
13646,57.0,3.0,120.0,3.0,0.0
13647,54.0,0.0,120.0,3.0,0.0
13648,51.0,9.0,60.0,14.0,0.0
13649,72.0,3.0,20.0,10.0,0.0
13650,60.0,12.0,20.0,11.0,0.0
13651,72.0,3.0,20.0,10.0,0.0
13652,60.0,27.0,20.0,11.0,0.0
13653,72.0,3.0,20.0,10.0,0.0
13654,60.0,5.0,20.0,11.0,0.0
13655,69.0,3.0,20.0,10.0,0.0
13656,81.0,0.0,120.0,0.0,0.0
13657,69.0,1.0,120.0,0.0,0.0
13658,57.0,0.0,120.0,1.0,0.0
13659,69.0,1.0,120.0,1.0,0.0
13660,57.0,27.0,20.0,11.0,0.0
13661,63.0,2.0,60.0,12.0,0.0
13662,63.0,4.0,60.0,13.0,0.0
13663,54.0,22.0,120.0,3.0,0.0
13664,57.0,0.0,120.0,3.0,0.0
13665,51.0,9.0,60.0,14.0,0.0
13666,69.0,3.0,20.0,10.0,0.0
13667,57.0,12.0,20.0,11.0,0.0
13668,69.0,3.0,20.0,10.0,0.0
13669,57.0,27.0,20.0,11.0,0.0
13670,69.0,1.0,20.0,10.0,0.0
13671,57.0,5.0,20.0,11.0,0.0
13672,70.0,3.0,20.0,10.0,0.0
13673,70.0,1.0,480.0,0.0,0.0
13674,82.0,0.0,480.0,0.0,0.0
13675,70.0,0.0,480.0,1.0,0.0
13676,58.0,1.0,480.0,1.0,0.0
13677,61.0,5.0,480.0,2.0,0.0
13678,65.0,0.0,600.0,2.0,0.0
13679,58.0,27.0,20.0,11.0,0.0
13680,61.0,2.0,60.0,12.0,0.0
13681,49.0,4.0,60.0,13.0,0.0
13682,49.0,0.0,480.0,3.0,0.0
13683,53.0,22.0,480.0,3.0,0.0
13684,37.0,9.0,60.0,14.0,0.0
13685,82.0,3.0,20.0,10.0,0.0
13686,70.0,12.0,20.0,11.0,0.0
13687,82.0,3.0,20.0,10.0,0.0
13688,70.0,27.0,20.0,11.0,0.0
13689,82.0,3.0,20.0,10.0,0.0
13690,70.0,27.0,20.0,11.0,0.0
13691,82.0,3.0,20.0,10.0,0.0
13692,70.0,27.0,20.0,11.0,0.0
13693,70.0,2.0,60.0,12.0,0.0
13694,53.0,4.0,60.0,13.0,0.0
13695,41.0,9.0,60.0,14.0,0.0
13696,82.0,3.0,20.0,10.0,0.0
13697,70.0,12.0,20.0,11.0,0.0
13698,82.0,3.0,20.0,10.0,0.0
13699,70.0,27.0,20.0,11.0,0.0
13700,82.0,3.0,20.0,10.0,0.0
13701,70.0,27.0,20.0,11.0,0.0
13702,82.0,3.0,20.0,10.0,0.0
13703,70.0,27.0,20.0,11.0,0.0
13704,65.0,2.0,60.0,12.0,0.0
13705,58.0,4.0,60.0,13.0,0.0
13706,46.0,9.0,60.0,14.0,0.0
13707,82.0,3.0,20.0,10.0,0.0
13708,70.0,12.0,20.0,11.0,0.0
13709,82.0,3.0,20.0,10.0,0.0
13710,70.0,27.0,20.0,11.0,0.0
13711,82.0,3.0,20.0,10.0,0.0
13712,70.0,27.0,20.0,11.0,0.0
13713,82.0,3.0,20.0,10.0,0.0
13714,70.0,27.0,20.0,11.0,0.0
13715,61.0,2.0,60.0,12.0,0.0
13716,61.0,4.0,60.0,13.0,0.0
13717,49.0,9.0,60.0,14.0,0.0
13718,82.0,3.0,20.0,10.0,0.0
13719,70.0,12.0,20.0,11.0,0.0
13720,82.0,3.0,20.0,10.0,0.0
13721,70.0,27.0,20.0,11.0,0.0
13722,82.0,1.0,20.0,10.0,0.0
13723,70.0,0.0,20.0,11.0,0.0
13724,83.0,3.0,20.0,10.0,0.0
13725,71.0,0.0,120.0,0.0,0.0
13726,83.0,1.0,120.0,0.0,0.0
13727,71.0,1.0,120.0,1.0,0.0
13728,62.0,5.0,120.0,2.0,0.0
13729,71.0,27.0,20.0,11.0,0.0
13730,62.0,2.0,60.0,12.0,0.0
13731,50.0,4.0,60.0,13.0,0.0
13732,50.0,12.0,120.0,3.0,0.0
13733,38.0,9.0,60.0,14.0,0.0
13734,83.0,3.0,20.0,10.0,0.0
13735,71.0,12.0,20.0,11.0,0.0
13736,83.0,3.0,20.0,10.0,0.0
13737,71.0,27.0,20.0,11.0,0.0
13738,83.0,3.0,20.0,10.0,0.0
13739,71.0,8.0,20.0,11.0,0.0
13740,80.0,3.0,20.0,10.0,0.0
13741,80.0,1.0,120.0,0.0,0.0
13742,68.0,0.0,120.0,6.0,0.0
13743,56.0,0.0,120.0,4.0,0.0
13744,68.0,0.0,120.0,1.0,0.0
13745,68.0,1.0,120.0,2.0,0.0
13746,68.0,27.0,20.0,11.0,0.0
13747,44.0,4.0,120.0,5.0,0.0
13748,68.0,2.0,60.0,12.0,0.0
13749,56.0,4.0,60.0,13.0,0.0
13750,56.0,2.0,120.0,3.0,0.0
13751,44.0,10.0,120.0,15.0,0.0
13752,44.0,9.0,60.0,14.0,0.0
13753,80.0,3.0,20.0,10.0,0.0
13754,68.0,12.0,20.0,11.0,0.0
13755,80.0,3.0,20.0,10.0,0.0
13756,68.0,27.0,20.0,11.0,0.0
13757,80.0,3.0,20.0,10.0,0.0
13758,68.0,8.0,20.0,11.0,0.0
13759,77.0,3.0,20.0,10.0,0.0
13760,77.0,1.0,120.0,0.0,0.0
13761,65.0,0.0,120.0,1.0,0.0
13762,68.0,0.0,120.0,6.0,0.0
13763,56.0,1.0,15.0,6.0,0.0
13764,56.0,0.0,120.0,4.0,0.0
13765,65.0,1.0,120.0,2.0,0.0
13766,65.0,27.0,20.0,11.0,0.0
13767,44.0,4.0,120.0,5.0,0.0
13768,65.0,2.0,60.0,12.0,0.0
13769,53.0,4.0,60.0,13.0,0.0
13770,53.0,2.0,120.0,3.0,0.0
13771,44.0,10.0,120.0,15.0,0.0
13772,41.0,9.0,60.0,14.0,0.0
13773,77.0,3.0,20.0,10.0,0.0
13774,65.0,12.0,20.0,11.0,0.0
13775,77.0,3.0,20.0,10.0,0.0
13776,65.0,27.0,20.0,11.0,0.0
13777,77.0,3.0,20.0,10.0,0.0
13778,65.0,8.0,20.0,11.0,0.0
13779,74.0,3.0,20.0,10.0,0.0
13780,74.0,1.0,120.0,0.0,0.0
13781,56.0,1.0,15.0,6.0,0.0
13782,68.0,0.0,120.0,6.0,0.0
13783,62.0,1.0,120.0,1.0,0.0
13784,62.0,5.0,120.0,2.0,0.0
13785,62.0,27.0,20.0,11.0,0.0
13786,44.0,6.0,120.0,5.0,0.0
13787,62.0,2.0,60.0,12.0,0.0
13788,50.0,4.0,60.0,13.0,0.0
13789,50.0,4.0,120.0,3.0,0.0
13790,44.0,10.0,120.0,15.0,0.0
13791,38.0,9.0,60.0,14.0,0.0
13792,74.0,3.0,20.0,10.0,0.0
13793,62.0,12.0,20.0,11.0,0.0
13794,74.0,3.0,20.0,10.0,0.0
13795,62.0,27.0,20.0,11.0,0.0
13796,74.0,1.0,20.0,10.0,0.0
13797,62.0,0.0,20.0,11.0,0.0
13798,75.0,3.0,20.0,10.0,0.0
13799,75.0,1.0,240.0,0.0,0.0
13800,63.0,1.0,240.0,1.0,0.0
13801,56.0,2.0,15.0,4.0,0.0
13802,63.0,2.0,240.0,6.0,0.0
13803,51.0,0.0,240.0,6.0,0.0
13804,63.0,2.0,240.0,2.0,0.0
13805,63.0,27.0,20.0,11.0,0.0
13806,44.0,6.0,240.0,5.0,0.0
13807,63.0,2.0,60.0,12.0,0.0
13808,51.0,4.0,60.0,13.0,0.0
13809,51.0,3.0,240.0,3.0,0.0
13810,39.0,10.0,240.0,15.0,0.0
13811,39.0,19.0,60.0,14.0,0.0
13812,75.0,3.0,20.0,10.0,0.0
13813,63.0,2.0,20.0,11.0,0.0
13814,75.0,3.0,20.0,10.0,0.0
13815,63.0,27.0,20.0,11.0,0.0
13816,63.0,2.0,60.0,12.0,0.0
13817,51.0,4.0,60.0,13.0,0.0
13818,39.0,19.0,60.0,14.0,0.0
13819,75.0,3.0,20.0,10.0,0.0
13820,63.0,2.0,20.0,11.0,0.0
13821,75.0,3.0,20.0,10.0,0.0
13822,63.0,27.0,20.0,11.0,0.0
13823,63.0,2.0,60.0,12.0,0.0
13824,51.0,4.0,60.0,13.0,0.0
13825,39.0,19.0,60.0,14.0,0.0
13826,75.0,3.0,20.0,10.0,0.0
13827,63.0,2.0,20.0,11.0,0.0
13828,75.0,3.0,20.0,10.0,0.0
13829,63.0,27.0,20.0,11.0,0.0
13830,63.0,2.0,60.0,12.0,0.0
13831,51.0,1.0,60.0,13.0,0.0
13832,39.0,1.0,60.0,14.0,0.0
13833,75.0,1.0,20.0,10.0,0.0
13834,63.0,0.0,20.0,11.0,0.0
13835,77.0,3.0,20.0,10.0,0.0
13836,77.0,1.0,240.0,0.0,0.0
13837,65.0,1.0,240.0,1.0,0.0
13838,65.0,27.0,20.0,11.0,0.0
13839,65.0,0.0,240.0,2.0,0.0
13840,65.0,2.0,60.0,12.0,0.0
13841,53.0,4.0,60.0,13.0,0.0
13842,53.0,3.0,240.0,3.0,0.0
13843,41.0,19.0,60.0,14.0,0.0
13844,77.0,3.0,20.0,10.0,0.0
13845,65.0,2.0,20.0,11.0,0.0
13846,77.0,3.0,20.0,10.0,0.0
13847,65.0,27.0,20.0,11.0,0.0
13848,65.0,2.0,60.0,12.0,0.0
13849,53.0,4.0,60.0,13.0,0.0
13850,41.0,19.0,60.0,14.0,0.0
13851,77.0,3.0,20.0,10.0,0.0
13852,65.0,2.0,20.0,11.0,0.0
13853,77.0,3.0,20.0,10.0,0.0
13854,65.0,27.0,20.0,11.0,0.0
13855,65.0,2.0,60.0,12.0,0.0
13856,53.0,4.0,60.0,13.0,0.0
13857,41.0,19.0,60.0,14.0,0.0
13858,77.0,3.0,20.0,10.0,0.0
13859,65.0,2.0,20.0,11.0,0.0
13860,77.0,3.0,20.0,10.0,0.0
13861,65.0,27.0,20.0,11.0,0.0
13862,65.0,2.0,60.0,12.0,0.0
13863,53.0,1.0,60.0,13.0,0.0
13864,41.0,19.0,60.0,14.0,0.0
13865,77.0,1.0,20.0,10.0,0.0
13866,65.0,2.0,20.0,11.0,0.0
13867,73.0,3.0,20.0,10.0,0.0
13868,73.0,1.0,240.0,0.0,0.0
13869,61.0,1.0,240.0,1.0,0.0
13870,61.0,27.0,20.0,11.0,0.0
13871,61.0,0.0,240.0,2.0,0.0
13872,61.0,2.0,60.0,12.0,0.0
13873,49.0,4.0,60.0,13.0,0.0
13874,49.0,3.0,240.0,3.0,0.0
13875,37.0,19.0,60.0,14.0,0.0
13876,73.0,3.0,20.0,10.0,0.0
13877,61.0,2.0,20.0,11.0,0.0
13878,73.0,3.0,20.0,10.0,0.0
13879,61.0,27.0,20.0,11.0,0.0
13880,61.0,2.0,60.0,12.0,0.0
13881,49.0,4.0,60.0,13.0,0.0
13882,37.0,19.0,60.0,14.0,0.0
13883,73.0,3.0,20.0,10.0,0.0
13884,61.0,2.0,20.0,11.0,0.0
13885,73.0,3.0,20.0,10.0,0.0
13886,61.0,27.0,20.0,11.0,0.0
13887,61.0,2.0,60.0,12.0,0.0
13888,49.0,4.0,60.0,13.0,0.0
13889,37.0,19.0,60.0,14.0,0.0
13890,73.0,3.0,20.0,10.0,0.0
13891,61.0,2.0,20.0,11.0,0.0
13892,73.0,3.0,20.0,10.0,0.0
13893,61.0,27.0,20.0,11.0,0.0
13894,61.0,2.0,60.0,12.0,0.0
13895,49.0,1.0,60.0,13.0,0.0
13896,37.0,19.0,60.0,14.0,0.0
13897,73.0,1.0,20.0,10.0,0.0
13898,61.0,2.0,20.0,11.0,0.0
13899,75.0,3.0,20.0,10.0,0.0
13900,75.0,1.0,240.0,0.0,0.0
13901,63.0,0.0,240.0,6.0,0.0
13902,63.0,1.0,240.0,1.0,0.0
13903,63.0,0.0,240.0,4.0,0.0
13904,75.0,2.0,240.0,6.0,0.0
13905,63.0,17.0,20.0,11.0,0.0
13906,63.0,0.0,240.0,2.0,0.0
13907,51.0,6.0,240.0,5.0,0.0
13908,63.0,2.0,60.0,12.0,0.0
13909,51.0,4.0,60.0,13.0,0.0
13910,51.0,3.0,240.0,3.0,0.0
13911,39.0,9.0,60.0,14.0,0.0
13912,75.0,3.0,20.0,10.0,0.0
13913,63.0,2.0,20.0,11.0,0.0
13914,39.0,10.0,15.0,15.0,0.0
13915,75.0,3.0,20.0,10.0,0.0
13916,63.0,17.0,20.0,11.0,0.0
13917,63.0,2.0,60.0,12.0,0.0
13918,51.0,4.0,60.0,13.0,0.0
13919,39.0,9.0,60.0,14.0,0.0
13920,75.0,3.0,20.0,10.0,0.0
13921,63.0,2.0,20.0,11.0,0.0
13922,39.0,10.0,15.0,15.0,0.0
13923,75.0,3.0,20.0,10.0,0.0
13924,63.0,17.0,20.0,11.0,0.0
13925,63.0,2.0,60.0,12.0,0.0
13926,51.0,4.0,60.0,13.0,0.0
13927,39.0,10.0,15.0,15.0,0.0
13928,39.0,9.0,60.0,14.0,0.0
13929,75.0,3.0,20.0,10.0,0.0
13930,63.0,2.0,20.0,11.0,0.0
13931,39.0,10.0,30.0,15.0,0.0
13932,75.0,3.0,20.0,10.0,0.0
13933,63.0,17.0,20.0,11.0,0.0
13934,63.0,2.0,60.0,12.0,0.0
13935,51.0,1.0,60.0,13.0,0.0
13936,39.0,10.0,30.0,15.0,0.0
13937,39.0,1.0,60.0,14.0,0.0
13938,75.0,1.0,20.0,10.0,0.0
13939,63.0,2.0,20.0,11.0,0.0
13940,39.0,55.0,30.0,15.0,0.0
13941,68.0,1.0,120.0,10.0,0.0
13942,68.0,1.0,120.0,0.0,0.0
13943,56.0,0.0,840.0,4.0,0.0
13944,68.0,1.0,120.0,6.0,0.0
13945,56.0,0.0,120.0,6.0,0.0
13946,56.0,0.0,120.0,1.0,0.0
13947,56.0,2.0,120.0,2.0,0.0
13948,56.0,0.0,120.0,11.0,0.0
13949,44.0,61.0,840.0,5.0,0.0
13950,56.0,55.0,60.0,12.0,0.0
13951,44.0,1.0,120.0,13.0,0.0
13952,44.0,2.0,120.0,3.0,0.0
13953,44.0,1.0,120.0,15.0,0.0
13954,32.0,54.0,120.0,14.0,0.0
13955,44.0,2.0,60.0,12.0,0.0
13956,77.0,1.0,120.0,1.0,0.0
13957,73.0,0.0,120.0,1.0,0.0
13958,65.0,0.0,120.0,2.0,0.0
13959,61.0,62.0,120.0,2.0,0.0
13960,56.0,50.0,60.0,12.0,0.0
13961,44.0,7.0,60.0,12.0,0.0
13962,75.0,1.0,120.0,1.0,0.0
13963,72.0,0.0,120.0,1.0,0.0
13964,60.0,0.0,120.0,2.0,0.0
13965,63.0,2.0,120.0,2.0,0.0
13966,56.0,57.0,60.0,12.0,0.0
13967,44.0,60.0,60.0,12.0,0.0
13968,79.0,2.0,120.0,10.0,0.0
13969,73.0,1.0,120.0,1.0,0.0
13970,70.0,0.0,120.0,1.0,0.0
13971,58.0,0.0,120.0,2.0,0.0
13972,61.0,0.0,120.0,2.0,0.0
13973,67.0,62.0,120.0,11.0,0.0
13974,56.0,50.0,60.0,12.0,0.0
13975,44.0,5.0,60.0,12.0,0.0
13976,80.0,3.0,180.0,10.0,0.0
13977,72.0,1.0,120.0,1.0,0.0
13978,68.0,0.0,120.0,1.0,0.0
13979,68.0,2.0,180.0,11.0,0.0
13980,56.0,2.0,120.0,2.0,0.0
13981,60.0,0.0,120.0,2.0,0.0
13982,56.0,57.0,60.0,12.0,0.0
13983,44.0,55.0,60.0,12.0,0.0
13984,73.0,1.0,120.0,1.0,0.0
13985,70.0,0.0,120.0,1.0,0.0
13986,61.0,57.0,120.0,2.0,0.0
13987,58.0,0.0,120.0,2.0,0.0
13988,56.0,25.0,60.0,12.0,0.0
13989,79.0,3.0,30.0,10.0,0.0
13990,67.0,17.0,30.0,11.0,0.0
13991,44.0,7.0,60.0,12.0,0.0
13992,77.0,3.0,20.0,10.0,0.0
13993,65.0,2.0,20.0,11.0,0.0
13994,75.0,3.0,60.0,10.0,0.0
13995,72.0,0.0,120.0,1.0,0.0
13996,75.0,1.0,120.0,1.0,0.0
13997,63.0,0.0,120.0,2.0,0.0
13998,63.0,2.0,60.0,11.0,0.0
13999,60.0,1.0,120.0,2.0,0.0
14000,56.0,50.0,60.0,12.0,0.0
14001,44.0,7.0,60.0,12.0,0.0
14002,73.0,1.0,120.0,10.0,0.0
14003,79.0,1.0,120.0,0.0,0.0
14004,70.0,1.0,120.0,1.0,0.0
14005,58.0,0.0,120.0,4.0,0.0
14006,73.0,0.0,120.0,1.0,0.0
14007,61.0,1.0,120.0,2.0,0.0
14008,58.0,0.0,120.0,2.0,0.0
14009,61.0,0.0,120.0,11.0,0.0
14010,51.0,3.0,120.0,5.0,0.0
14011,58.0,50.0,60.0,12.0,0.0
14012,39.0,1.0,120.0,13.0,0.0
14013,49.0,0.0,120.0,3.0,0.0
14014,46.0,3.0,120.0,3.0,0.0
14015,27.0,50.0,120.0,14.0,0.0
14016,51.0,5.0,60.0,12.0,0.0
14017,72.0,3.0,120.0,10.0,0.0
14018,80.0,1.0,60.0,0.0,0.0
14019,56.0,1.0,840.0,4.0,0.0
14020,72.0,1.0,60.0,1.0,0.0
14021,68.0,0.0,60.0,1.0,0.0
14022,60.0,0.0,60.0,2.0,0.0
14023,60.0,2.0,120.0,11.0,0.0
14024,56.0,2.0,60.0,2.0,0.0
14025,44.0,4.0,840.0,5.0,0.0
14026,56.0,3.0,60.0,12.0,0.0
14027,44.0,4.0,120.0,13.0,0.0
14028,44.0,52.0,60.0,3.0,0.0
14029,48.0,0.0,60.0,3.0,0.0
14030,32.0,54.0,120.0,14.0,0.0
14031,44.0,2.0,60.0,12.0,0.0
14032,61.0,0.0,120.0,2.0,0.0
14033,65.0,5.0,120.0,2.0,0.0
14034,56.0,50.0,60.0,12.0,0.0
14035,53.0,57.0,120.0,3.0,0.0
14036,49.0,0.0,120.0,3.0,0.0
14037,44.0,8.0,60.0,12.0,0.0
14038,60.0,2.0,120.0,2.0,0.0
14039,63.0,0.0,120.0,2.0,0.0
14040,56.0,58.0,60.0,12.0,0.0
14041,51.0,0.0,120.0,3.0,0.0
14042,48.0,57.0,120.0,3.0,0.0
14043,44.0,3.0,60.0,12.0,0.0
14044,79.0,3.0,120.0,10.0,0.0
14045,67.0,0.0,120.0,11.0,0.0
14046,58.0,5.0,120.0,2.0,0.0
14047,61.0,0.0,120.0,2.0,0.0
14048,56.0,50.0,60.0,12.0,0.0
14049,46.0,0.0,120.0,3.0,0.0
14050,49.0,57.0,120.0,3.0,0.0
14051,44.0,5.0,60.0,12.0,0.0
14052,80.0,3.0,180.0,10.0,0.0
14053,56.0,2.0,120.0,2.0,0.0
14054,60.0,0.0,120.0,2.0,0.0
14055,68.0,2.0,180.0,11.0,0.0
14056,56.0,58.0,60.0,12.0,0.0
14057,44.0,52.0,120.0,3.0,0.0
14058,48.0,0.0,120.0,3.0,0.0
14059,44.0,3.0,60.0,12.0,0.0
14060,61.0,0.0,120.0,2.0,0.0
14061,58.0,5.0,120.0,2.0,0.0
14062,56.0,25.0,60.0,12.0,0.0
14063,49.0,0.0,120.0,3.0,0.0
14064,46.0,52.0,120.0,3.0,0.0
14065,79.0,3.0,30.0,10.0,0.0
14066,67.0,17.0,30.0,11.0,0.0
14067,44.0,8.0,60.0,12.0,0.0
14068,77.0,3.0,20.0,10.0,0.0
14069,65.0,2.0,20.0,11.0,0.0
14070,75.0,3.0,60.0,10.0,0.0
14071,63.0,2.0,60.0,11.0,0.0
14072,60.0,0.0,120.0,2.0,0.0
14073,63.0,1.0,120.0,2.0,0.0
14074,56.0,50.0,60.0,12.0,0.0
14075,51.0,57.0,120.0,3.0,0.0
14076,48.0,0.0,120.0,3.0,0.0
14077,44.0,7.0,60.0,12.0,0.0
14078,79.0,1.0,120.0,10.0,0.0
14079,79.0,1.0,120.0,0.0,0.0
14080,70.0,1.0,120.0,1.0,0.0
14081,73.0,0.0,120.0,1.0,0.0
14082,58.0,0.0,120.0,4.0,0.0
14083,67.0,1.0,120.0,11.0,0.0
14084,61.0,0.0,120.0,2.0,0.0
14085,58.0,0.0,120.0,2.0,0.0
14086,51.0,3.0,120.0,5.0,0.0
14087,58.0,50.0,60.0,12.0,0.0
14088,39.0,1.0,120.0,13.0,0.0
14089,49.0,0.0,120.0,3.0,0.0
14090,46.0,3.0,120.0,3.0,0.0
14091,27.0,51.0,120.0,14.0,0.0
14092,51.0,5.0,60.0,12.0,0.0
14093,80.0,1.0,180.0,10.0,0.0
14094,80.0,2.0,180.0,0.0,0.0
14095,68.0,0.0,60.0,1.0,0.0
14096,72.0,1.0,60.0,1.0,0.0
14097,56.0,0.0,360.0,4.0,0.0
14098,60.0,2.0,60.0,2.0,0.0
14099,68.0,2.0,180.0,11.0,0.0
14100,56.0,0.0,60.0,2.0,0.0
14101,44.0,61.0,360.0,5.0,0.0
14102,56.0,3.0,60.0,12.0,0.0
14103,44.0,4.0,120.0,13.0,0.0
14104,44.0,57.0,60.0,3.0,0.0
14105,48.0,0.0,60.0,3.0,0.0
14106,32.0,49.0,120.0,14.0,0.0
14107,44.0,2.0,60.0,12.0,0.0
14108,77.0,0.0,120.0,1.0,0.0
14109,73.0,1.0,120.0,1.0,0.0
14110,65.0,0.0,120.0,2.0,0.0
14111,61.0,57.0,120.0,2.0,0.0
14112,56.0,25.0,60.0,12.0,0.0
14113,79.0,1.0,30.0,10.0,0.0
14114,79.0,2.0,30.0,0.0,0.0
14115,67.0,17.0,30.0,11.0,0.0
14116,44.0,6.0,60.0,12.0,0.0
14117,77.0,3.0,20.0,10.0,0.0
14118,77.0,0.0,30.0,0.0,0.0
14119,65.0,2.0,20.0,11.0,0.0
14120,75.0,3.0,60.0,10.0,0.0
14121,75.0,1.0,120.0,0.0,0.0
14122,72.0,1.0,120.0,1.0,0.0
14123,75.0,0.0,120.0,1.0,0.0
14124,63.0,1.0,120.0,2.0,0.0
14125,60.0,0.0,120.0,2.0,0.0
14126,63.0,2.0,60.0,11.0,0.0
14127,56.0,50.0,60.0,12.0,0.0
14128,44.0,6.0,60.0,12.0,0.0
14129,79.0,1.0,120.0,10.0,0.0
14130,73.0,0.0,120.0,0.0,0.0
14131,79.0,1.0,120.0,0.0,0.0
14132,70.0,0.0,120.0,1.0,0.0
14133,73.0,0.0,120.0,1.0,0.0
14134,58.0,0.0,120.0,4.0,0.0
14135,63.0,0.0,120.0,6.0,0.0
14136,51.0,1.0,120.0,6.0,0.0
14137,67.0,1.0,120.0,11.0,0.0
14138,61.0,0.0,120.0,2.0,0.0
14139,58.0,0.0,120.0,2.0,0.0
14140,51.0,3.0,120.0,5.0,0.0
14141,58.0,50.0,60.0,12.0,0.0
14142,39.0,3.0,120.0,13.0,0.0
14143,39.0,1.0,120.0,15.0,0.0
14144,27.0,51.0,120.0,14.0,0.0
14145,51.0,5.0,60.0,12.0,0.0
14146,80.0,1.0,180.0,10.0,0.0
14147,80.0,2.0,180.0,0.0,0.0
14148,56.0,0.0,120.0,6.0,0.0
14149,56.0,0.0,360.0,4.0,0.0
14150,68.0,3.0,120.0,6.0,0.0
14151,72.0,1.0,60.0,1.0,0.0
14152,68.0,0.0,60.0,1.0,0.0
14153,60.0,0.0,60.0,2.0,0.0
14154,56.0,2.0,60.0,2.0,0.0
14155,68.0,2.0,180.0,11.0,0.0
14156,44.0,4.0,360.0,5.0,0.0
14157,56.0,57.0,60.0,12.0,0.0
14158,44.0,3.0,120.0,13.0,0.0
14159,44.0,1.0,120.0,15.0,0.0
14160,32.0,49.0,120.0,14.0,0.0
14161,44.0,2.0,60.0,12.0,0.0
14162,73.0,1.0,120.0,1.0,0.0
14163,77.0,0.0,120.0,1.0,0.0
14164,61.0,0.0,120.0,2.0,0.0
14165,65.0,5.0,120.0,2.0,0.0
14166,56.0,25.0,60.0,12.0,0.0
14167,49.0,0.0,120.0,3.0,0.0
14168,53.0,52.0,120.0,3.0,0.0
14169,79.0,1.0,30.0,10.0,0.0
14170,79.0,2.0,30.0,0.0,0.0
14171,67.0,17.0,30.0,11.0,0.0
14172,44.0,6.0,60.0,12.0,0.0
14173,77.0,3.0,20.0,10.0,0.0
14174,77.0,0.0,30.0,0.0,0.0
14175,65.0,2.0,20.0,11.0,0.0
14176,75.0,3.0,60.0,10.0,0.0
14177,75.0,1.0,120.0,0.0,0.0
14178,72.0,0.0,120.0,1.0,0.0
14179,75.0,1.0,120.0,1.0,0.0
14180,63.0,2.0,60.0,11.0,0.0
14181,60.0,0.0,120.0,2.0,0.0
14182,63.0,1.0,120.0,2.0,0.0
14183,56.0,50.0,60.0,12.0,0.0
14184,48.0,0.0,120.0,3.0,0.0
14185,51.0,52.0,120.0,3.0,0.0
14186,44.0,6.0,60.0,12.0,0.0
14187,63.0,1.0,60.0,10.0,0.0
14188,79.0,2.0,60.0,0.0,0.0
14189,73.0,1.0,120.0,0.0,0.0
14190,58.0,0.0,120.0,4.0,0.0
14191,73.0,0.0,120.0,1.0,0.0
14192,70.0,0.0,120.0,1.0,0.0
14193,63.0,0.0,120.0,6.0,0.0
14194,51.0,1.0,120.0,6.0,0.0
14195,61.0,1.0,120.0,2.0,0.0
14196,58.0,0.0,120.0,2.0,0.0
14197,67.0,2.0,60.0,11.0,0.0
14198,58.0,0.0,60.0,11.0,0.0
14199,51.0,4.0,120.0,5.0,0.0
14200,58.0,2.0,60.0,12.0,0.0
14201,39.0,3.0,60.0,13.0,0.0
14202,49.0,0.0,120.0,3.0,0.0
14203,46.0,53.0,120.0,3.0,0.0
14204,79.0,1.0,60.0,10.0,0.0
14205,70.0,0.0,60.0,10.0,0.0
14206,39.0,0.0,60.0,15.0,0.0
14207,27.0,44.0,60.0,14.0,0.0
14208,51.0,6.0,60.0,12.0,0.0
14209,63.0,1.0,120.0,10.0,0.0
14210,80.0,6.0,60.0,0.0,0.0
14211,72.0,1.0,120.0,0.0,0.0
14212,68.0,240.0,240.0,1.0,0.0
14213,56.0,0.0,120.0,6.0,0.0
14214,68.0,1.0,120.0,6.0,0.0
14215,56.0,0.0,120.0,4.0,0.0
14216,72.0,0.0,240.0,1.0,0.0
14217,60.0,1.0,120.0,2.0,0.0
14218,56.0,0.0,120.0,2.0,0.0
14219,60.0,0.0,120.0,11.0,0.0
14220,51.0,0.0,120.0,11.0,0.0
14221,44.0,1.0,120.0,5.0,0.0
14222,44.0,3.0,120.0,12.0,0.0
14223,51.0,0.0,120.0,12.0,0.0
14224,44.0,4.0,60.0,13.0,0.0
14225,48.0,0.0,120.0,3.0,0.0
14226,44.0,2.0,120.0,3.0,0.0
14227,72.0,0.0,120.0,10.0,0.0
14228,80.0,3.0,120.0,10.0,0.0
14229,44.0,0.0,120.0,15.0,0.0
14230,32.0,49.0,60.0,14.0,0.0
14231,68.0,2.0,120.0,11.0,0.0
14232,60.0,107.0,120.0,12.0,0.0
14233,80.0,0.0,240.0,1.0,0.0
14234,68.0,6.0,240.0,1.0,0.0
14235,56.0,234.0,240.0,3.0,0.0
14236,78.0,0.0,240.0,1.0,0.0
14237,66.0,6.0,240.0,1.0,0.0
14238,54.0,202.0,240.0,3.0,0.0
14239,75.0,1.0,240.0,0.0,0.0
14240,87.0,0.0,240.0,0.0,0.0
14241,75.0,6.0,240.0,1.0,0.0
14242,51.0,22.0,240.0,3.0,0.0
14243,63.0,0.0,240.0,3.0,0.0
14244,63.0,3.0,90.0,10.0,0.0
14245,51.0,17.0,90.0,11.0,0.0
14246,67.0,3.0,20.0,10.0,0.0
14247,55.0,8.0,20.0,11.0,0.0
14248,68.0,3.0,30.0,10.0,0.0
14249,72.0,1.0,240.0,0.0,0.0
14250,84.0,0.0,240.0,0.0,0.0
14251,72.0,6.0,240.0,1.0,0.0
14252,56.0,57.0,30.0,11.0,0.0
14253,44.0,4.0,720.0,5.0,0.0
14254,56.0,2.0,120.0,12.0,0.0
14255,56.0,3.0,120.0,13.0,0.0
14256,48.0,0.0,240.0,3.0,0.0
14257,60.0,22.0,240.0,3.0,0.0
14258,44.0,1.0,120.0,15.0,0.0
14259,44.0,19.0,120.0,14.0,0.0
14260,68.0,3.0,30.0,10.0,0.0
14261,56.0,32.0,30.0,11.0,0.0
14262,63.0,3.0,30.0,10.0,0.0
14263,51.0,57.0,30.0,11.0,0.0
14264,67.0,3.0,30.0,10.0,0.0
14265,55.0,28.0,30.0,11.0,0.0
14266,68.0,3.0,30.0,10.0,0.0
14267,80.0,1.0,240.0,0.0,0.0
14268,68.0,1.0,240.0,1.0,0.0
14269,56.0,57.0,30.0,11.0,0.0
14270,68.0,5.0,240.0,2.0,0.0
14271,56.0,0.0,240.0,3.0,0.0
14272,44.0,22.0,240.0,3.0,0.0
14273,68.0,3.0,30.0,10.0,0.0
14274,56.0,57.0,30.0,11.0,0.0
14275,63.0,3.0,30.0,10.0,0.0
14276,51.0,57.0,30.0,11.0,0.0
14277,67.0,3.0,30.0,10.0,0.0
14278,55.0,28.0,30.0,11.0,0.0
14279,68.0,3.0,30.0,10.0,0.0
14280,78.0,1.0,240.0,0.0,0.0
14281,66.0,0.0,240.0,1.0,0.0
14282,56.0,57.0,30.0,11.0,0.0
14283,66.0,1.0,240.0,2.0,0.0
14284,42.0,22.0,240.0,3.0,0.0
14285,54.0,0.0,240.0,3.0,0.0
14286,68.0,3.0,30.0,10.0,0.0
14287,56.0,57.0,30.0,11.0,0.0
14288,63.0,3.0,30.0,10.0,0.0
14289,51.0,57.0,30.0,11.0,0.0
14290,67.0,3.0,30.0,10.0,0.0
14291,55.0,28.0,30.0,11.0,0.0
14292,68.0,3.0,30.0,10.0,0.0
14293,75.0,1.0,240.0,0.0,0.0
14294,68.0,0.0,15.0,6.0,0.0
14295,56.0,0.0,15.0,4.0,0.0
14296,56.0,1.0,15.0,6.0,0.0
14297,63.0,1.0,240.0,1.0,0.0
14298,63.0,1.0,240.0,2.0,0.0
14299,56.0,87.0,30.0,11.0,0.0
14300,44.0,4.0,240.0,5.0,0.0
14301,39.0,112.0,240.0,3.0,0.0
14302,51.0,0.0,240.0,3.0,0.0
14303,44.0,50.0,120.0,15.0,0.0
14304,68.0,3.0,60.0,10.0,0.0
14305,56.0,7.0,60.0,11.0,0.0
14306,70.0,3.0,60.0,10.0,0.0
14307,58.0,47.0,60.0,11.0,0.0
14308,72.0,3.0,60.0,10.0,0.0
14309,60.0,8.0,60.0,11.0,0.0
14310,73.0,1.0,120.0,10.0,0.0
14311,73.0,1.0,120.0,0.0,0.0
14312,56.0,0.0,15.0,4.0,0.0
14313,56.0,0.0,120.0,6.0,0.0
14314,68.0,0.0,120.0,6.0,0.0
14315,61.0,0.0,120.0,1.0,0.0
14316,61.0,0.0,120.0,11.0,0.0
14317,61.0,1.0,120.0,2.0,0.0
14318,44.0,4.0,120.0,5.0,0.0
14319,49.0,87.0,120.0,3.0,0.0
14320,37.0,0.0,120.0,3.0,0.0
14321,56.0,2.0,90.0,12.0,0.0
14322,44.0,4.0,90.0,13.0,0.0
14323,32.0,14.0,90.0,14.0,0.0
14324,60.0,2.0,20.0,12.0,0.0
14325,48.0,4.0,20.0,13.0,0.0
14326,36.0,64.0,20.0,14.0,0.0
14327,77.0,0.0,240.0,1.0,0.0
14328,65.0,6.0,240.0,1.0,0.0
14329,61.0,2.0,60.0,12.0,0.0
14330,49.0,4.0,60.0,13.0,0.0
14331,53.0,234.0,240.0,3.0,0.0
14332,37.0,171.0,60.0,14.0,0.0
14333,63.0,6.0,240.0,1.0,0.0
14334,75.0,0.0,240.0,1.0,0.0
14335,63.0,202.0,240.0,3.0,0.0
14336,84.0,1.0,240.0,0.0,0.0
14337,72.0,6.0,240.0,1.0,0.0
14338,60.0,22.0,240.0,3.0,0.0
14339,72.0,3.0,90.0,10.0,0.0
14340,60.0,17.0,90.0,11.0,0.0
14341,76.0,3.0,20.0,10.0,0.0
14342,64.0,8.0,20.0,11.0,0.0
14343,77.0,3.0,30.0,10.0,0.0
14344,81.0,1.0,240.0,0.0,0.0
14345,69.0,6.0,240.0,1.0,0.0
14346,65.0,57.0,30.0,11.0,0.0
14347,41.0,4.0,120.0,13.0,0.0
14348,57.0,22.0,240.0,3.0,0.0
14349,29.0,19.0,120.0,14.0,0.0
14350,77.0,3.0,30.0,10.0,0.0
14351,65.0,34.0,30.0,11.0,0.0
14352,72.0,3.0,30.0,10.0,0.0
14353,60.0,57.0,30.0,11.0,0.0
14354,76.0,3.0,30.0,10.0,0.0
14355,64.0,28.0,30.0,11.0,0.0
14356,77.0,3.0,30.0,10.0,0.0
14357,77.0,1.0,240.0,0.0,0.0
14358,65.0,1.0,240.0,1.0,0.0
14359,65.0,5.0,240.0,2.0,0.0
14360,65.0,57.0,30.0,11.0,0.0
14361,53.0,22.0,240.0,3.0,0.0
14362,77.0,3.0,30.0,10.0,0.0
14363,65.0,57.0,30.0,11.0,0.0
14364,72.0,3.0,30.0,10.0,0.0
14365,60.0,57.0,30.0,11.0,0.0
14366,76.0,3.0,30.0,10.0,0.0
14367,64.0,28.0,30.0,11.0,0.0
14368,77.0,3.0,30.0,10.0,0.0
14369,75.0,1.0,240.0,0.0,0.0
14370,63.0,1.0,240.0,1.0,0.0
14371,65.0,57.0,30.0,11.0,0.0
14372,63.0,5.0,240.0,2.0,0.0
14373,51.0,22.0,240.0,3.0,0.0
14374,77.0,3.0,30.0,10.0,0.0
14375,65.0,57.0,30.0,11.0,0.0
14376,72.0,3.0,30.0,10.0,0.0
14377,60.0,57.0,30.0,11.0,0.0
14378,76.0,3.0,30.0,10.0,0.0
14379,64.0,28.0,30.0,11.0,0.0
14380,77.0,3.0,30.0,10.0,0.0
14381,72.0,1.0,240.0,0.0,0.0
14382,60.0,1.0,240.0,1.0,0.0
14383,60.0,5.0,240.0,2.0,0.0
14384,65.0,87.0,30.0,11.0,0.0
14385,48.0,112.0,240.0,3.0,0.0
14386,77.0,3.0,60.0,10.0,0.0
14387,65.0,57.0,60.0,11.0,0.0
14388,79.0,3.0,60.0,10.0,0.0
14389,67.0,47.0,60.0,11.0,0.0
14390,81.0,3.0,60.0,10.0,0.0
14391,69.0,8.0,60.0,11.0,0.0
14392,82.0,1.0,120.0,10.0,0.0
14393,70.0,1.0,120.0,0.0,0.0
14394,58.0,1.0,120.0,1.0,0.0
14395,58.0,5.0,120.0,2.0,0.0
14396,70.0,0.0,120.0,11.0,0.0
14397,46.0,87.0,120.0,3.0,0.0
14398,53.0,2.0,90.0,12.0,0.0
14399,41.0,4.0,90.0,13.0,0.0
14400,29.0,14.0,90.0,14.0,0.0
14401,57.0,2.0,20.0,12.0,0.0
14402,45.0,4.0,20.0,13.0,0.0
14403,33.0,64.0,20.0,14.0,0.0
14404,70.0,6.0,240.0,1.0,0.0
14405,58.0,2.0,60.0,12.0,0.0
14406,46.0,4.0,60.0,13.0,0.0
14407,58.0,0.0,240.0,3.0,0.0
14408,46.0,233.0,240.0,3.0,0.0
14409,34.0,171.0,60.0,14.0,0.0
14410,85.0,1.0,240.0,0.0,0.0
14411,73.0,6.0,240.0,1.0,0.0
14412,49.0,202.0,240.0,3.0,0.0
14413,61.0,0.0,240.0,3.0,0.0
14414,82.0,1.0,240.0,0.0,0.0
14415,70.0,6.0,240.0,1.0,0.0
14416,46.0,22.0,240.0,3.0,0.0
14417,58.0,0.0,240.0,3.0,0.0
14418,70.0,3.0,90.0,10.0,0.0
14419,58.0,17.0,90.0,11.0,0.0
14420,74.0,3.0,20.0,10.0,0.0
14421,62.0,8.0,20.0,11.0,0.0
14422,75.0,3.0,30.0,10.0,0.0
14423,79.0,1.0,240.0,0.0,0.0
14424,67.0,6.0,240.0,1.0,0.0
14425,63.0,0.0,600.0,6.0,0.0
14426,70.0,2.0,600.0,6.0,0.0
14427,63.0,8.0,30.0,11.0,0.0
14428,51.0,0.0,120.0,12.0,0.0
14429,39.0,43.0,30.0,15.0,0.0
14430,39.0,4.0,120.0,13.0,0.0
14431,55.0,22.0,240.0,3.0,0.0
14432,43.0,0.0,240.0,3.0,0.0
14433,27.0,19.0,120.0,14.0,0.0
14434,39.0,6.0,30.0,15.0,0.0
14435,75.0,3.0,30.0,10.0,0.0
14436,63.0,32.0,30.0,11.0,0.0
14437,39.0,2.0,30.0,15.0,0.0
14438,70.0,3.0,30.0,10.0,0.0
14439,58.0,10.0,30.0,11.0,0.0
14440,39.0,44.0,30.0,15.0,0.0
14441,39.0,3.0,30.0,15.0,0.0
14442,74.0,3.0,30.0,10.0,0.0
14443,62.0,28.0,30.0,11.0,0.0
14444,39.0,0.0,30.0,15.0,0.0
14445,75.0,3.0,30.0,10.0,0.0
14446,75.0,1.0,240.0,0.0,0.0
14447,63.0,1.0,240.0,1.0,0.0
14448,63.0,13.0,30.0,11.0,0.0
14449,63.0,5.0,240.0,2.0,0.0
14450,51.0,0.0,240.0,3.0,0.0
14451,39.0,22.0,240.0,3.0,0.0
14452,39.0,38.0,30.0,15.0,0.0
14453,39.0,6.0,30.0,15.0,0.0
14454,75.0,3.0,30.0,10.0,0.0
14455,63.0,30.0,30.0,11.0,0.0
14456,39.0,27.0,30.0,15.0,0.0
14457,70.0,3.0,30.0,10.0,0.0
14458,58.0,10.0,30.0,11.0,0.0
14459,39.0,42.0,30.0,15.0,0.0
14460,39.0,5.0,30.0,15.0,0.0
14461,74.0,3.0,30.0,10.0,0.0
14462,62.0,28.0,30.0,11.0,0.0
14463,39.0,0.0,30.0,15.0,0.0
14464,75.0,3.0,30.0,10.0,0.0
14465,73.0,0.0,240.0,0.0,0.0
14466,63.0,2.0,600.0,4.0,0.0
14467,61.0,0.0,240.0,1.0,0.0
14468,61.0,5.0,240.0,2.0,0.0
14469,63.0,9.0,30.0,11.0,0.0
14470,51.0,61.0,600.0,5.0,0.0
14471,39.0,41.0,30.0,15.0,0.0
14472,49.0,22.0,240.0,3.0,0.0
14473,37.0,0.0,240.0,3.0,0.0
14474,39.0,7.0,30.0,15.0,0.0
14475,75.0,3.0,30.0,10.0,0.0
14476,63.0,29.0,30.0,11.0,0.0
14477,39.0,26.0,30.0,15.0,0.0
14478,70.0,3.0,30.0,10.0,0.0
14479,63.0,0.0,120.0,6.0,0.0
14480,58.0,11.0,30.0,11.0,0.0
14481,39.0,42.0,30.0,15.0,0.0
14482,39.0,4.0,30.0,15.0,0.0
14483,74.0,3.0,30.0,10.0,0.0
14484,62.0,28.0,30.0,11.0,0.0
14485,39.0,1.0,30.0,15.0,0.0
14486,75.0,3.0,30.0,10.0,0.0
14487,70.0,1.0,240.0,0.0,0.0
14488,51.0,1.0,15.0,6.0,0.0
14489,58.0,1.0,240.0,1.0,0.0
14490,63.0,0.0,120.0,6.0,0.0
14491,58.0,2.0,240.0,2.0,0.0
14492,63.0,12.0,30.0,11.0,0.0
14493,34.0,52.0,240.0,3.0,0.0
14494,46.0,0.0,240.0,3.0,0.0
14495,39.0,40.0,30.0,15.0,0.0
14496,39.0,35.0,30.0,15.0,0.0
14497,75.0,2.0,60.0,10.0,0.0
14498,63.0,3.0,60.0,11.0,0.0
14499,39.0,41.0,30.0,15.0,0.0
14500,77.0,3.0,60.0,10.0,0.0
14501,51.0,0.0,120.0,6.0,0.0
14502,63.0,0.0,120.0,6.0,0.0
14503,65.0,23.0,60.0,11.0,0.0
14504,39.0,13.0,30.0,15.0,0.0
14505,39.0,24.0,30.0,15.0,0.0
14506,79.0,3.0,60.0,10.0,0.0
14507,67.0,8.0,60.0,11.0,0.0
14508,39.0,3.0,30.0,15.0,0.0
14509,80.0,1.0,60.0,10.0,0.0
14510,68.0,1.0,60.0,0.0,0.0
14511,72.0,0.0,60.0,0.0,0.0
14512,56.0,0.0,60.0,6.0,0.0
14513,56.0,1.0,60.0,1.0,0.0
14514,68.0,0.0,60.0,6.0,0.0
14515,60.0,0.0,60.0,1.0,0.0
14516,68.0,2.0,60.0,11.0,0.0
14517,56.0,0.0,60.0,2.0,0.0
14518,60.0,0.0,60.0,2.0,0.0
14519,56.0,2.0,60.0,12.0,0.0
14520,44.0,1.0,60.0,13.0,0.0
14521,32.0,0.0,60.0,3.0,0.0
14522,44.0,2.0,60.0,3.0,0.0
14523,44.0,1.0,60.0,15.0,0.0
14524,32.0,51.0,60.0,14.0,0.0
14525,56.0,2.0,60.0,12.0,0.0
14526,44.0,4.0,60.0,13.0,0.0
14527,32.0,109.0,60.0,14.0,0.0
14528,61.0,1.0,60.0,10.0,0.0
14529,77.0,1.0,60.0,0.0,0.0
14530,73.0,0.0,60.0,0.0,0.0
14531,56.0,0.0,60.0,6.0,0.0
14532,68.0,1.0,60.0,6.0,0.0
14533,73.0,0.0,60.0,1.0,0.0
14534,56.0,0.0,60.0,4.0,0.0
14535,68.0,0.0,60.0,1.0,0.0
14536,65.0,0.0,60.0,2.0,0.0
14537,61.0,1.0,60.0,11.0,0.0
14538,61.0,0.0,60.0,2.0,0.0
14539,44.0,4.0,60.0,5.0,0.0
14540,37.0,2.0,60.0,3.0,0.0
14541,49.0,0.0,60.0,3.0,0.0
14542,68.0,0.0,60.0,10.0,0.0
14543,77.0,3.0,60.0,10.0,0.0
14544,44.0,0.0,60.0,15.0,0.0
14545,68.0,0.0,60.0,11.0,0.0
14546,77.0,112.0,60.0,11.0,0.0
14547,61.0,2.0,60.0,12.0,0.0
14548,49.0,4.0,60.0,13.0,0.0
14549,37.0,109.0,60.0,14.0,0.0
14550,60.0,1.0,60.0,10.0,0.0
14551,75.0,1.0,60.0,0.0,0.0
14552,72.0,0.0,60.0,0.0,0.0
14553,56.0,0.0,60.0,6.0,0.0
14554,68.0,1.0,60.0,1.0,0.0
14555,72.0,0.0,60.0,1.0,0.0
14556,56.0,0.0,60.0,4.0,0.0
14557,68.0,0.0,60.0,6.0,0.0
14558,60.0,1.0,60.0,2.0,0.0
14559,63.0,0.0,60.0,2.0,0.0
14560,60.0,0.0,60.0,11.0,0.0
14561,44.0,4.0,60.0,5.0,0.0
14562,51.0,0.0,60.0,3.0,0.0
14563,39.0,2.0,60.0,3.0,0.0
14564,68.0,0.0,60.0,10.0,0.0
14565,75.0,0.0,60.0,10.0,0.0
14566,44.0,3.0,60.0,15.0,0.0
14567,68.0,0.0,60.0,11.0,0.0
14568,75.0,112.0,60.0,11.0,0.0
14569,63.0,2.0,60.0,12.0,0.0
14570,51.0,4.0,60.0,13.0,0.0
14571,39.0,109.0,60.0,14.0,0.0
14572,58.0,1.0,60.0,10.0,0.0
14573,73.0,0.0,60.0,0.0,0.0
14574,79.0,1.0,60.0,0.0,0.0
14575,61.0,1.0,60.0,4.0,0.0
14576,70.0,0.0,60.0,1.0,0.0
14577,73.0,0.0,60.0,1.0,0.0
14578,61.0,0.0,60.0,2.0,0.0
14579,58.0,1.0,60.0,11.0,0.0
14580,67.0,0.0,60.0,2.0,0.0
14581,58.0,4.0,60.0,5.0,0.0
14582,52.0,0.0,60.0,3.0,0.0
14583,40.0,2.0,60.0,3.0,0.0
14584,73.0,0.0,60.0,10.0,0.0
14585,67.0,3.0,60.0,10.0,0.0
14586,67.0,0.0,60.0,11.0,0.0
14587,73.0,112.0,60.0,11.0,0.0
14588,64.0,2.0,60.0,12.0,0.0
14589,52.0,4.0,60.0,13.0,0.0
14590,40.0,109.0,60.0,14.0,0.0
14591,72.0,1.0,60.0,10.0,0.0
14592,68.0,0.0,60.0,10.0,0.0
14593,80.0,1.0,60.0,0.0,0.0
14594,72.0,0.0,60.0,0.0,0.0
14595,60.0,0.0,60.0,4.0,0.0
14596,68.0,0.0,60.0,6.0,0.0
14597,68.0,0.0,60.0,1.0,0.0
14598,72.0,0.0,60.0,1.0,0.0
14599,56.0,1.0,60.0,6.0,0.0
14600,68.0,0.0,60.0,2.0,0.0
14601,60.0,0.0,60.0,2.0,0.0
14602,68.0,0.0,60.0,11.0,0.0
14603,72.0,1.0,60.0,11.0,0.0
14604,56.0,4.0,60.0,5.0,0.0
14605,41.0,2.0,60.0,3.0,0.0
14606,53.0,0.0,60.0,3.0,0.0
14607,44.0,115.0,60.0,15.0,0.0
14608,65.0,2.0,60.0,12.0,0.0
14609,53.0,4.0,60.0,13.0,0.0
14610,41.0,109.0,60.0,14.0,0.0
14611,61.0,1.0,60.0,10.0,0.0
14612,77.0,0.0,60.0,0.0,0.0
14613,73.0,1.0,60.0,0.0,0.0
14614,56.0,0.0,60.0,4.0,0.0
14615,68.0,1.0,60.0,1.0,0.0
14616,73.0,0.0,60.0,1.0,0.0
14617,68.0,0.0,60.0,6.0,0.0
14618,56.0,0.0,60.0,6.0,0.0
14619,68.0,0.0,60.0,2.0,0.0
14620,65.0,1.0,60.0,2.0,0.0
14621,61.0,0.0,60.0,11.0,0.0
14622,44.0,4.0,60.0,5.0,0.0
14623,37.0,0.0,60.0,3.0,0.0
14624,49.0,2.0,60.0,3.0,0.0
14625,77.0,0.0,60.0,10.0,0.0
14626,68.0,3.0,60.0,10.0,0.0
14627,44.0,0.0,60.0,15.0,0.0
14628,77.0,0.0,60.0,11.0,0.0
14629,68.0,112.0,60.0,11.0,0.0
14630,61.0,2.0,60.0,12.0,0.0
14631,49.0,4.0,60.0,13.0,0.0
14632,37.0,109.0,60.0,14.0,0.0
14633,60.0,1.0,60.0,10.0,0.0
14634,72.0,1.0,60.0,0.0,0.0
14635,75.0,0.0,60.0,0.0,0.0
14636,56.0,0.0,60.0,4.0,0.0
14637,72.0,0.0,60.0,1.0,0.0
14638,68.0,0.0,60.0,1.0,0.0
14639,56.0,0.0,60.0,6.0,0.0
14640,68.0,1.0,60.0,6.0,0.0
14641,60.0,0.0,60.0,11.0,0.0
14642,63.0,1.0,60.0,2.0,0.0
14643,60.0,0.0,60.0,2.0,0.0
14644,44.0,4.0,60.0,5.0,0.0
14645,51.0,2.0,60.0,3.0,0.0
14646,39.0,0.0,60.0,3.0,0.0
14647,68.0,0.0,60.0,10.0,0.0
14648,75.0,0.0,60.0,10.0,0.0
14649,44.0,3.0,60.0,15.0,0.0
14650,75.0,0.0,60.0,11.0,0.0
14651,68.0,112.0,60.0,11.0,0.0
14652,63.0,2.0,60.0,12.0,0.0
14653,51.0,4.0,60.0,13.0,0.0
14654,39.0,109.0,60.0,14.0,0.0
14655,58.0,1.0,60.0,10.0,0.0
14656,73.0,1.0,60.0,0.0,0.0
14657,79.0,0.0,60.0,0.0,0.0
14658,73.0,1.0,60.0,1.0,0.0
14659,70.0,0.0,60.0,1.0,0.0
14660,61.0,0.0,60.0,4.0,0.0
14661,58.0,0.0,60.0,11.0,0.0
14662,61.0,0.0,60.0,2.0,0.0
14663,67.0,1.0,60.0,2.0,0.0
14664,58.0,4.0,60.0,5.0,0.0
14665,40.0,2.0,60.0,3.0,0.0
14666,52.0,0.0,60.0,3.0,0.0
14667,67.0,0.0,60.0,10.0,0.0
14668,73.0,3.0,60.0,10.0,0.0
14669,73.0,112.0,60.0,11.0,0.0
14670,67.0,0.0,60.0,11.0,0.0
14671,64.0,2.0,60.0,12.0,0.0
14672,52.0,4.0,60.0,13.0,0.0
14673,40.0,109.0,60.0,14.0,0.0
14674,68.0,1.0,60.0,10.0,0.0
14675,72.0,0.0,60.0,10.0,0.0
14676,72.0,0.0,60.0,0.0,0.0
14677,80.0,1.0,60.0,0.0,0.0
14678,68.0,0.0,60.0,6.0,0.0
14679,72.0,0.0,60.0,1.0,0.0
14680,60.0,0.0,60.0,4.0,0.0
14681,56.0,0.0,60.0,6.0,0.0
14682,68.0,1.0,60.0,1.0,0.0
14683,60.0,0.0,60.0,2.0,0.0
14684,72.0,0.0,60.0,11.0,0.0
14685,68.0,0.0,60.0,2.0,0.0
14686,68.0,1.0,60.0,11.0,0.0
14687,56.0,4.0,60.0,5.0,0.0
14688,53.0,2.0,60.0,3.0,0.0
14689,41.0,0.0,60.0,3.0,0.0
14690,44.0,115.0,60.0,15.0,0.0
14691,65.0,2.0,60.0,12.0,0.0
14692,53.0,4.0,60.0,13.0,0.0
14693,41.0,109.0,60.0,14.0,0.0
14694,61.0,1.0,60.0,10.0,0.0
14695,85.0,1.0,60.0,0.0,0.0
14696,77.0,0.0,60.0,0.0,0.0
14697,56.0,0.0,60.0,6.0,0.0
14698,77.0,0.0,60.0,1.0,0.0
14699,68.0,1.0,60.0,1.0,0.0
14700,56.0,0.0,60.0,4.0,0.0
14701,68.0,0.0,60.0,6.0,0.0
14702,61.0,1.0,60.0,11.0,0.0
14703,68.0,0.0,60.0,2.0,0.0
14704,65.0,0.0,60.0,2.0,0.0
14705,44.0,4.0,60.0,5.0,0.0
14706,37.0,2.0,60.0,3.0,0.0
14707,49.0,0.0,60.0,3.0,0.0
14708,77.0,0.0,60.0,10.0,0.0
14709,68.0,0.0,60.0,10.0,0.0
14710,44.0,3.0,60.0,15.0,0.0
14711,77.0,112.0,60.0,11.0,0.0
14712,68.0,0.0,60.0,11.0,0.0
14713,61.0,2.0,60.0,12.0,0.0
14714,49.0,4.0,60.0,13.0,0.0
14715,37.0,109.0,60.0,14.0,0.0
14716,60.0,1.0,60.0,10.0,0.0
14717,80.0,0.0,60.0,0.0,0.0
14718,84.0,1.0,60.0,0.0,0.0
14719,56.0,0.0,60.0,4.0,0.0
14720,72.0,0.0,60.0,1.0,0.0
14721,68.0,0.0,60.0,1.0,0.0
14722,68.0,0.0,60.0,6.0,0.0
14723,56.0,1.0,60.0,6.0,0.0
14724,68.0,1.0,60.0,2.0,0.0
14725,60.0,0.0,60.0,2.0,0.0
14726,60.0,0.0,60.0,11.0,0.0
14727,44.0,4.0,60.0,5.0,0.0
14728,39.0,0.0,60.0,3.0,0.0
14729,51.0,2.0,60.0,3.0,0.0
14730,75.0,3.0,60.0,10.0,0.0
14731,68.0,0.0,60.0,10.0,0.0
14732,44.0,0.0,60.0,15.0,0.0
14733,75.0,0.0,60.0,11.0,0.0
14734,68.0,112.0,60.0,11.0,0.0
14735,63.0,2.0,60.0,12.0,0.0
14736,51.0,4.0,60.0,13.0,0.0
14737,39.0,109.0,60.0,14.0,0.0
14738,63.0,1.0,60.0,10.0,0.0
14739,73.0,1.0,60.0,0.0,0.0
14740,79.0,0.0,60.0,0.0,0.0
14741,70.0,0.0,60.0,1.0,0.0
14742,58.0,0.0,60.0,4.0,0.0
14743,67.0,0.0,60.0,1.0,0.0
14744,63.0,1.0,60.0,6.0,0.0
14745,70.0,0.0,60.0,6.0,0.0
14746,61.0,0.0,60.0,2.0,0.0
14747,63.0,1.0,60.0,11.0,0.0
14748,67.0,0.0,60.0,2.0,0.0
14749,51.0,4.0,60.0,5.0,0.0
14750,51.0,0.0,60.0,3.0,0.0
14751,39.0,2.0,60.0,3.0,0.0
14752,70.0,3.0,60.0,10.0,0.0
14753,39.0,0.0,60.0,15.0,0.0
14754,79.0,0.0,60.0,10.0,0.0
14755,79.0,0.0,60.0,11.0,0.0
14756,70.0,112.0,60.0,11.0,0.0
14757,51.0,2.0,60.0,12.0,0.0
14758,39.0,4.0,60.0,13.0,0.0
14759,27.0,72.0,60.0,14.0,0.0
14760,63.0,2.0,60.0,10.0,0.0
14761,72.0,1.0,1560.0,0.0,0.0
14762,80.0,0.0,1560.0,0.0,0.0
14763,56.0,2.0,1080.0,4.0,0.0
14764,68.0,0.0,60.0,6.0,0.0
14765,60.0,8.0,60.0,6.0,0.0
14766,68.0,0.0,1560.0,1.0,0.0
14767,51.0,2.0,20.0,11.0,0.0
14768,68.0,0.0,1560.0,2.0,0.0
14769,60.0,0.0,20.0,11.0,0.0
14770,60.0,1.0,1560.0,2.0,0.0
14771,48.0,3.0,1080.0,5.0,0.0
14772,56.0,28.0,20.0,12.0,0.0
14773,44.0,4.0,360.0,13.0,0.0
14774,44.0,15.0,360.0,3.0,0.0
14775,72.0,0.0,60.0,10.0,0.0
14776,80.0,0.0,60.0,10.0,0.0
14777,44.0,13.0,60.0,15.0,0.0
14778,32.0,7.0,360.0,14.0,0.0
14779,51.0,0.0,20.0,11.0,0.0
14780,60.0,2.0,20.0,11.0,0.0
14781,56.0,5.0,20.0,12.0,0.0
14782,60.0,2.0,20.0,11.0,0.0
14783,51.0,0.0,20.0,11.0,0.0
14784,56.0,28.0,20.0,12.0,0.0
14785,51.0,2.0,20.0,11.0,0.0
14786,60.0,0.0,20.0,11.0,0.0
14787,56.0,28.0,20.0,12.0,0.0
14788,60.0,2.0,20.0,11.0,0.0
14789,51.0,0.0,20.0,11.0,0.0
14790,56.0,28.0,20.0,12.0,0.0
14791,51.0,0.0,20.0,11.0,0.0
14792,60.0,2.0,20.0,11.0,0.0
14793,56.0,28.0,20.0,12.0,0.0
14794,60.0,2.0,20.0,11.0,0.0
14795,51.0,0.0,20.0,11.0,0.0
14796,56.0,28.0,20.0,12.0,0.0
14797,60.0,2.0,20.0,11.0,0.0
14798,51.0,0.0,20.0,11.0,0.0
14799,56.0,28.0,20.0,12.0,0.0
14800,51.0,2.0,20.0,11.0,0.0
14801,60.0,0.0,20.0,11.0,0.0
14802,56.0,28.0,20.0,12.0,0.0
14803,51.0,2.0,20.0,11.0,0.0
14804,60.0,0.0,20.0,11.0,0.0
14805,56.0,28.0,20.0,12.0,0.0
14806,60.0,2.0,20.0,11.0,0.0
14807,51.0,0.0,20.0,11.0,0.0
14808,56.0,28.0,20.0,12.0,0.0
14809,60.0,2.0,20.0,11.0,0.0
14810,51.0,0.0,20.0,11.0,0.0
14811,56.0,2.0,20.0,12.0,0.0
14812,51.0,7.0,90.0,10.0,0.0
14813,60.0,0.0,20.0,11.0,0.0
14814,51.0,2.0,20.0,11.0,0.0
14815,56.0,28.0,20.0,12.0,0.0
14816,39.0,1.0,90.0,13.0,0.0
14817,39.0,3.0,90.0,3.0,0.0
14818,27.0,9.0,90.0,14.0,0.0
14819,60.0,2.0,20.0,11.0,0.0
14820,51.0,0.0,20.0,11.0,0.0
14821,56.0,28.0,20.0,12.0,0.0
14822,60.0,2.0,20.0,11.0,0.0
14823,51.0,0.0,20.0,11.0,0.0
14824,56.0,5.0,20.0,12.0,0.0
14825,55.0,3.0,20.0,10.0,0.0
14826,60.0,2.0,20.0,11.0,0.0
14827,51.0,0.0,20.0,11.0,0.0
14828,56.0,2.0,20.0,12.0,0.0
14829,43.0,1.0,20.0,13.0,0.0
14830,43.0,3.0,20.0,3.0,0.0
14831,31.0,22.0,20.0,14.0,0.0
14832,56.0,7.0,30.0,10.0,0.0
14833,51.0,2.0,20.0,11.0,0.0
14834,60.0,0.0,20.0,11.0,0.0
14835,56.0,5.0,20.0,12.0,0.0
14836,44.0,1.0,30.0,13.0,0.0
14837,44.0,3.0,30.0,3.0,0.0
14838,32.0,12.0,30.0,14.0,0.0
14839,51.0,2.0,20.0,11.0,0.0
14840,60.0,0.0,20.0,11.0,0.0
14841,56.0,28.0,20.0,12.0,0.0
14842,56.0,7.0,30.0,10.0,0.0
14843,60.0,0.0,20.0,11.0,0.0
14844,51.0,2.0,20.0,11.0,0.0
14845,56.0,5.0,20.0,12.0,0.0
14846,44.0,1.0,30.0,13.0,0.0
14847,44.0,3.0,30.0,3.0,0.0
14848,32.0,12.0,30.0,14.0,0.0
14849,60.0,2.0,20.0,11.0,0.0
14850,51.0,0.0,20.0,11.0,0.0
14851,56.0,28.0,20.0,12.0,0.0
14852,51.0,7.0,30.0,10.0,0.0
14853,51.0,2.0,20.0,11.0,0.0
14854,60.0,0.0,20.0,11.0,0.0
14855,56.0,5.0,20.0,12.0,0.0
14856,39.0,1.0,30.0,13.0,0.0
14857,39.0,3.0,30.0,3.0,0.0
14858,27.0,12.0,30.0,14.0,0.0
14859,51.0,2.0,20.0,11.0,0.0
14860,60.0,0.0,20.0,11.0,0.0
14861,56.0,28.0,20.0,12.0,0.0
14862,55.0,7.0,30.0,10.0,0.0
14863,60.0,2.0,20.0,11.0,0.0
14864,51.0,0.0,20.0,11.0,0.0
14865,56.0,5.0,20.0,12.0,0.0
14866,43.0,1.0,30.0,13.0,0.0
14867,43.0,3.0,30.0,3.0,0.0
14868,31.0,12.0,30.0,14.0,0.0
14869,60.0,2.0,20.0,11.0,0.0
14870,51.0,0.0,20.0,11.0,0.0
14871,56.0,28.0,20.0,12.0,0.0
14872,56.0,7.0,30.0,10.0,0.0
14873,51.0,0.0,20.0,11.0,0.0
14874,60.0,2.0,20.0,11.0,0.0
14875,56.0,5.0,20.0,12.0,0.0
14876,44.0,1.0,30.0,13.0,0.0
14877,44.0,3.0,30.0,3.0,0.0
14878,32.0,12.0,30.0,14.0,0.0
14879,60.0,2.0,20.0,11.0,0.0
14880,51.0,0.0,20.0,11.0,0.0
14881,56.0,28.0,20.0,12.0,0.0
14882,56.0,7.0,30.0,10.0,0.0
14883,60.0,2.0,20.0,11.0,0.0
14884,51.0,0.0,20.0,11.0,0.0
14885,56.0,5.0,20.0,12.0,0.0
14886,44.0,1.0,30.0,13.0,0.0
14887,44.0,3.0,30.0,3.0,0.0
14888,32.0,12.0,30.0,14.0,0.0
14889,60.0,2.0,20.0,11.0,0.0
14890,51.0,0.0,20.0,11.0,0.0
14891,56.0,28.0,20.0,12.0,0.0
14892,51.0,7.0,30.0,10.0,0.0
14893,51.0,2.0,20.0,11.0,0.0
14894,60.0,0.0,20.0,11.0,0.0
14895,56.0,5.0,20.0,12.0,0.0
14896,39.0,1.0,30.0,13.0,0.0
14897,39.0,3.0,30.0,3.0,0.0
14898,27.0,12.0,30.0,14.0,0.0
14899,60.0,2.0,20.0,11.0,0.0
14900,51.0,0.0,20.0,11.0,0.0
14901,56.0,28.0,20.0,12.0,0.0
14902,55.0,7.0,30.0,10.0,0.0
14903,60.0,2.0,20.0,11.0,0.0
14904,51.0,0.0,20.0,11.0,0.0
14905,56.0,5.0,20.0,12.0,0.0
14906,43.0,1.0,30.0,13.0,0.0
14907,43.0,3.0,30.0,3.0,0.0
14908,31.0,12.0,30.0,14.0,0.0
14909,60.0,0.0,20.0,11.0,0.0
14910,51.0,2.0,20.0,11.0,0.0
14911,56.0,28.0,20.0,12.0,0.0
14912,56.0,2.0,120.0,10.0,0.0
14913,60.0,2.0,20.0,11.0,0.0
14914,51.0,0.0,20.0,11.0,0.0
14915,56.0,28.0,20.0,12.0,0.0
14916,44.0,1.0,120.0,13.0,0.0
14917,44.0,3.0,120.0,3.0,0.0
14918,32.0,12.0,120.0,14.0,0.0
14919,60.0,0.0,20.0,11.0,0.0
14920,51.0,2.0,20.0,11.0,0.0
14921,56.0,28.0,20.0,12.0,0.0
14922,60.0,0.0,20.0,11.0,0.0
14923,51.0,2.0,20.0,11.0,0.0
14924,56.0,28.0,20.0,12.0,0.0
14925,60.0,2.0,20.0,11.0,0.0
14926,51.0,0.0,20.0,11.0,0.0
14927,56.0,5.0,20.0,12.0,0.0
14928,56.0,8.0,120.0,6.0,0.0
14929,56.0,2.0,60.0,4.0,0.0
14930,51.0,2.0,20.0,11.0,0.0
14931,60.0,0.0,20.0,11.0,0.0
14932,44.0,19.0,60.0,5.0,0.0
14933,56.0,28.0,20.0,12.0,0.0
14934,44.0,13.0,120.0,15.0,0.0
14935,60.0,0.0,20.0,11.0,0.0
14936,51.0,2.0,20.0,11.0,0.0
14937,56.0,7.0,20.0,12.0,0.0
14938,51.0,2.0,20.0,11.0,0.0
14939,60.0,0.0,20.0,11.0,0.0
14940,56.0,28.0,20.0,12.0,0.0
14941,51.0,0.0,20.0,11.0,0.0
14942,60.0,2.0,20.0,11.0,0.0
14943,56.0,7.0,20.0,12.0,0.0
14944,60.0,2.0,60.0,4.0,0.0
14945,60.0,8.0,120.0,6.0,0.0
14946,60.0,2.0,20.0,11.0,0.0
14947,51.0,0.0,20.0,11.0,0.0
14948,48.0,19.0,60.0,5.0,0.0
14949,56.0,28.0,20.0,12.0,0.0
14950,51.0,0.0,20.0,11.0,0.0
14951,60.0,2.0,20.0,11.0,0.0
14952,56.0,7.0,20.0,12.0,0.0
14953,51.0,0.0,20.0,11.0,0.0
14954,60.0,2.0,20.0,11.0,0.0
14955,56.0,28.0,20.0,12.0,0.0
14956,60.0,2.0,20.0,11.0,0.0
14957,51.0,0.0,20.0,11.0,0.0
14958,56.0,7.0,20.0,12.0,0.0
14959,63.0,8.0,120.0,6.0,0.0
14960,63.0,2.0,60.0,4.0,0.0
14961,51.0,2.0,20.0,11.0,0.0
14962,60.0,0.0,20.0,11.0,0.0
14963,51.0,19.0,60.0,5.0,0.0
14964,56.0,28.0,20.0,12.0,0.0
14965,44.0,13.0,15.0,15.0,0.0
14966,51.0,2.0,20.0,11.0,0.0
14967,60.0,0.0,20.0,11.0,0.0
14968,56.0,7.0,20.0,12.0,0.0
14969,51.0,2.0,20.0,11.0,0.0
14970,60.0,0.0,20.0,11.0,0.0
14971,56.0,28.0,20.0,12.0,0.0
14972,60.0,0.0,20.0,11.0,0.0
14973,51.0,2.0,20.0,11.0,0.0
14974,56.0,7.0,20.0,12.0,0.0
14975,68.0,23.0,60.0,10.0,0.0
14976,68.0,0.0,120.0,4.0,0.0
14977,68.0,1.0,120.0,6.0,0.0
14978,60.0,2.0,20.0,11.0,0.0
14979,51.0,0.0,20.0,11.0,0.0
14980,56.0,6.0,120.0,5.0,0.0
14981,56.0,28.0,20.0,12.0,0.0
14982,44.0,13.0,120.0,15.0,0.0
14983,60.0,2.0,20.0,11.0,0.0
14984,51.0,0.0,20.0,11.0,0.0
14985,56.0,5.0,20.0,12.0,0.0
14986,51.0,2.0,20.0,11.0,0.0
14987,60.0,0.0,20.0,11.0,0.0
14988,56.0,28.0,20.0,12.0,0.0
14989,60.0,2.0,20.0,11.0,0.0
14990,51.0,0.0,20.0,11.0,0.0
14991,56.0,6.0,20.0,12.0,0.0
14992,68.0,1.0,60.0,10.0,0.0
14993,68.0,1.0,60.0,0.0,0.0
14994,72.0,0.0,60.0,0.0,0.0
14995,56.0,0.0,60.0,1.0,0.0
14996,60.0,0.0,15.0,1.0,0.0
14997,56.0,4.0,60.0,2.0,0.0
14998,60.0,0.0,60.0,2.0,0.0
14999,60.0,0.0,20.0,11.0,0.0
15000,51.0,2.0,20.0,11.0,0.0
15001,56.0,28.0,20.0,12.0,0.0
15002,56.0,1.0,60.0,13.0,0.0
15003,44.0,3.0,60.0,3.0,0.0
15004,48.0,0.0,60.0,3.0,0.0
15005,44.0,12.0,60.0,14.0,0.0
15006,60.0,0.0,20.0,11.0,0.0
15007,51.0,2.0,20.0,11.0,0.0
15008,56.0,5.0,20.0,12.0,0.0
15009,51.0,0.0,20.0,11.0,0.0
15010,60.0,2.0,20.0,11.0,0.0
15011,56.0,28.0,20.0,12.0,0.0
15012,60.0,2.0,20.0,11.0,0.0
15013,51.0,0.0,20.0,11.0,0.0
15014,56.0,28.0,20.0,12.0,0.0
15015,72.0,1.0,60.0,10.0,0.0
15016,72.0,1.0,60.0,0.0,0.0
15017,75.0,0.0,60.0,0.0,0.0
15018,60.0,0.0,60.0,1.0,0.0
15019,63.0,1.0,60.0,1.0,0.0
15020,60.0,4.0,60.0,2.0,0.0
15021,51.0,0.0,20.0,11.0,0.0
15022,60.0,2.0,20.0,11.0,0.0
15023,63.0,0.0,60.0,2.0,0.0
15024,56.0,28.0,20.0,12.0,0.0
15025,51.0,1.0,60.0,13.0,0.0
15026,48.0,0.0,60.0,3.0,0.0
15027,51.0,3.0,60.0,3.0,0.0
15028,39.0,12.0,60.0,14.0,0.0
15029,60.0,2.0,20.0,11.0,0.0
15030,51.0,0.0,20.0,11.0,0.0
15031,56.0,5.0,20.0,12.0,0.0
15032,60.0,2.0,20.0,11.0,0.0
15033,51.0,0.0,20.0,11.0,0.0
15034,56.0,28.0,20.0,12.0,0.0
15035,60.0,2.0,20.0,11.0,0.0
15036,51.0,0.0,20.0,11.0,0.0
15037,56.0,28.0,20.0,12.0,0.0
15038,75.0,1.0,60.0,10.0,0.0
15039,75.0,1.0,60.0,0.0,0.0
15040,80.0,0.0,60.0,0.0,0.0
15041,63.0,0.0,60.0,1.0,0.0
15042,68.0,1.0,60.0,1.0,0.0
15043,63.0,4.0,60.0,2.0,0.0
15044,51.0,0.0,20.0,11.0,0.0
15045,68.0,0.0,60.0,2.0,0.0
15046,60.0,2.0,20.0,11.0,0.0
15047,56.0,28.0,20.0,12.0,0.0
15048,48.0,1.0,60.0,13.0,0.0
15049,56.0,0.0,60.0,3.0,0.0
15050,51.0,3.0,60.0,3.0,0.0
15051,36.0,12.0,60.0,14.0,0.0
15052,60.0,0.0,20.0,11.0,0.0
15053,51.0,2.0,20.0,11.0,0.0
15054,56.0,5.0,20.0,12.0,0.0
15055,60.0,0.0,20.0,11.0,0.0
15056,51.0,2.0,20.0,11.0,0.0
15057,56.0,28.0,20.0,12.0,0.0
15058,51.0,2.0,20.0,11.0,0.0
15059,60.0,0.0,20.0,11.0,0.0
15060,56.0,28.0,20.0,12.0,0.0
15061,80.0,23.0,120.0,10.0,0.0
15062,80.0,0.0,1560.0,0.0,0.0
15063,84.0,1.0,1560.0,0.0,0.0
15064,72.0,0.0,1560.0,1.0,0.0
15065,68.0,0.0,1560.0,1.0,0.0
15066,56.0,2.0,1080.0,4.0,0.0
15067,68.0,0.0,1560.0,2.0,0.0
15068,51.0,2.0,20.0,11.0,0.0
15069,72.0,1.0,1560.0,2.0,0.0
15070,60.0,0.0,20.0,11.0,0.0
15071,48.0,3.0,1080.0,5.0,0.0
15072,56.0,28.0,20.0,12.0,0.0
15073,44.0,4.0,360.0,13.0,0.0
15074,44.0,15.0,360.0,3.0,0.0
15075,32.0,7.0,360.0,14.0,0.0
15076,60.0,0.0,20.0,11.0,0.0
15077,51.0,2.0,20.0,11.0,0.0
15078,56.0,28.0,20.0,12.0,0.0
15079,51.0,0.0,20.0,11.0,0.0
15080,60.0,2.0,20.0,11.0,0.0
15081,56.0,28.0,20.0,12.0,0.0
15082,60.0,0.0,20.0,11.0,0.0
15083,51.0,2.0,20.0,11.0,0.0
15084,56.0,5.0,20.0,12.0,0.0
15085,60.0,2.0,20.0,11.0,0.0
15086,51.0,0.0,20.0,11.0,0.0
15087,56.0,28.0,20.0,12.0,0.0
15088,51.0,0.0,20.0,11.0,0.0
15089,60.0,2.0,20.0,11.0,0.0
15090,56.0,28.0,20.0,12.0,0.0
15091,51.0,2.0,20.0,11.0,0.0
15092,60.0,0.0,20.0,11.0,0.0
15093,56.0,28.0,20.0,12.0,0.0
15094,51.0,2.0,20.0,11.0,0.0
15095,60.0,0.0,20.0,11.0,0.0
15096,56.0,28.0,20.0,12.0,0.0
15097,51.0,0.0,20.0,11.0,0.0
15098,60.0,2.0,20.0,11.0,0.0
15099,56.0,28.0,20.0,12.0,0.0
15100,60.0,2.0,20.0,11.0,0.0
15101,51.0,0.0,20.0,11.0,0.0
15102,56.0,28.0,20.0,12.0,0.0
15103,60.0,0.0,20.0,11.0,0.0
15104,51.0,2.0,20.0,11.0,0.0
15105,56.0,28.0,20.0,12.0,0.0
15106,51.0,2.0,20.0,11.0,0.0
15107,60.0,0.0,20.0,11.0,0.0
15108,56.0,2.0,20.0,12.0,0.0
15109,51.0,7.0,90.0,10.0,0.0
15110,51.0,2.0,20.0,11.0,0.0
15111,60.0,0.0,20.0,11.0,0.0
15112,56.0,28.0,20.0,12.0,0.0
15113,39.0,1.0,90.0,13.0,0.0
15114,39.0,3.0,90.0,3.0,0.0
15115,27.0,9.0,90.0,14.0,0.0
15116,51.0,0.0,20.0,11.0,0.0
15117,60.0,2.0,20.0,11.0,0.0
15118,56.0,28.0,20.0,12.0,0.0
15119,51.0,0.0,20.0,11.0,0.0
15120,60.0,2.0,20.0,11.0,0.0
15121,56.0,5.0,20.0,12.0,0.0
15122,55.0,3.0,20.0,10.0,0.0
15123,51.0,0.0,20.0,11.0,0.0
15124,60.0,2.0,20.0,11.0,0.0
15125,56.0,2.0,20.0,12.0,0.0
15126,43.0,1.0,20.0,13.0,0.0
15127,43.0,3.0,20.0,3.0,0.0
15128,31.0,22.0,20.0,14.0,0.0
15129,56.0,7.0,30.0,10.0,0.0
15130,60.0,0.0,20.0,11.0,0.0
15131,51.0,2.0,20.0,11.0,0.0
15132,56.0,5.0,20.0,12.0,0.0
15133,44.0,1.0,30.0,13.0,0.0
15134,44.0,3.0,30.0,3.0,0.0
15135,32.0,12.0,30.0,14.0,0.0
15136,60.0,0.0,20.0,11.0,0.0
15137,51.0,2.0,20.0,11.0,0.0
15138,56.0,28.0,20.0,12.0,0.0
15139,56.0,7.0,30.0,10.0,0.0
15140,51.0,2.0,20.0,11.0,0.0
15141,60.0,0.0,20.0,11.0,0.0
15142,56.0,5.0,20.0,12.0,0.0
15143,44.0,1.0,30.0,13.0,0.0
15144,44.0,3.0,30.0,3.0,0.0
15145,32.0,12.0,30.0,14.0,0.0
15146,51.0,2.0,20.0,11.0,0.0
15147,60.0,0.0,20.0,11.0,0.0
15148,56.0,28.0,20.0,12.0,0.0
15149,51.0,7.0,30.0,10.0,0.0
15150,51.0,2.0,20.0,11.0,0.0
15151,60.0,0.0,20.0,11.0,0.0
15152,56.0,5.0,20.0,12.0,0.0
15153,39.0,1.0,30.0,13.0,0.0
15154,39.0,3.0,30.0,3.0,0.0
15155,27.0,12.0,30.0,14.0,0.0
15156,51.0,2.0,20.0,11.0,0.0
15157,60.0,0.0,20.0,11.0,0.0
15158,56.0,28.0,20.0,12.0,0.0
15159,55.0,7.0,30.0,10.0,0.0
15160,51.0,0.0,20.0,11.0,0.0
15161,60.0,2.0,20.0,11.0,0.0
15162,56.0,5.0,20.0,12.0,0.0
15163,43.0,1.0,30.0,13.0,0.0
15164,43.0,3.0,30.0,3.0,0.0
15165,31.0,12.0,30.0,14.0,0.0
15166,60.0,2.0,20.0,11.0,0.0
15167,51.0,0.0,20.0,11.0,0.0
15168,56.0,28.0,20.0,12.0,0.0
15169,56.0,7.0,30.0,10.0,0.0
15170,51.0,2.0,20.0,11.0,0.0
15171,60.0,0.0,20.0,11.0,0.0
15172,56.0,5.0,20.0,12.0,0.0
15173,44.0,1.0,30.0,13.0,0.0
15174,44.0,3.0,30.0,3.0,0.0
15175,32.0,12.0,30.0,14.0,0.0
15176,60.0,0.0,20.0,11.0,0.0
15177,51.0,2.0,20.0,11.0,0.0
15178,56.0,28.0,20.0,12.0,0.0
15179,56.0,7.0,30.0,10.0,0.0
15180,60.0,0.0,20.0,11.0,0.0
15181,51.0,2.0,20.0,11.0,0.0
15182,56.0,5.0,20.0,12.0,0.0
15183,44.0,1.0,30.0,13.0,0.0
15184,44.0,3.0,30.0,3.0,0.0
15185,32.0,12.0,30.0,14.0,0.0
15186,60.0,2.0,20.0,11.0,0.0
15187,51.0,0.0,20.0,11.0,0.0
15188,56.0,28.0,20.0,12.0,0.0
15189,51.0,7.0,30.0,10.0,0.0
15190,51.0,2.0,20.0,11.0,0.0
15191,60.0,0.0,20.0,11.0,0.0
15192,56.0,5.0,20.0,12.0,0.0
15193,39.0,1.0,30.0,13.0,0.0
15194,39.0,3.0,30.0,3.0,0.0
15195,27.0,12.0,30.0,14.0,0.0
15196,60.0,2.0,20.0,11.0,0.0
15197,51.0,0.0,20.0,11.0,0.0
15198,56.0,28.0,20.0,12.0,0.0
15199,55.0,7.0,30.0,10.0,0.0
15200,51.0,2.0,20.0,11.0,0.0
15201,60.0,0.0,20.0,11.0,0.0
15202,56.0,5.0,20.0,12.0,0.0
15203,43.0,1.0,30.0,13.0,0.0
15204,43.0,3.0,30.0,3.0,0.0
15205,31.0,12.0,30.0,14.0,0.0
15206,51.0,0.0,20.0,11.0,0.0
15207,60.0,2.0,20.0,11.0,0.0
15208,56.0,28.0,20.0,12.0,0.0
15209,56.0,2.0,120.0,10.0,0.0
15210,51.0,0.0,20.0,11.0,0.0
15211,60.0,2.0,20.0,11.0,0.0
15212,56.0,28.0,20.0,12.0,0.0
15213,44.0,1.0,120.0,13.0,0.0
15214,44.0,3.0,120.0,3.0,0.0
15215,32.0,12.0,120.0,14.0,0.0
15216,60.0,2.0,20.0,11.0,0.0
15217,51.0,0.0,20.0,11.0,0.0
15218,56.0,28.0,20.0,12.0,0.0
15219,51.0,0.0,20.0,11.0,0.0
15220,60.0,2.0,20.0,11.0,0.0
15221,56.0,28.0,20.0,12.0,0.0
15222,60.0,0.0,20.0,11.0,0.0
15223,51.0,2.0,20.0,11.0,0.0
15224,56.0,5.0,20.0,12.0,0.0
15225,56.0,0.0,60.0,6.0,0.0
15226,48.0,0.0,60.0,4.0,0.0
15227,60.0,2.0,60.0,6.0,0.0
15228,60.0,2.0,20.0,11.0,0.0
15229,51.0,0.0,20.0,11.0,0.0
15230,44.0,19.0,60.0,5.0,0.0
15231,56.0,28.0,20.0,12.0,0.0
15232,51.0,2.0,20.0,11.0,0.0
15233,60.0,0.0,20.0,11.0,0.0
15234,56.0,7.0,20.0,12.0,0.0
15235,51.0,0.0,20.0,11.0,0.0
15236,60.0,2.0,20.0,11.0,0.0
15237,56.0,28.0,20.0,12.0,0.0
15238,51.0,0.0,20.0,11.0,0.0
15239,60.0,2.0,20.0,11.0,0.0
15240,56.0,15.0,20.0,12.0,0.0
15241,51.0,2.0,60.0,4.0,0.0
15242,60.0,0.0,60.0,6.0,0.0
15243,63.0,0.0,60.0,6.0,0.0
15244,60.0,2.0,20.0,11.0,0.0
15245,51.0,0.0,20.0,11.0,0.0
15246,48.0,19.0,60.0,5.0,0.0
15247,56.0,28.0,20.0,12.0,0.0
15248,44.0,13.0,15.0,15.0,0.0
15249,51.0,2.0,20.0,11.0,0.0
15250,60.0,0.0,20.0,11.0,0.0
15251,56.0,7.0,20.0,12.0,0.0
15252,60.0,2.0,20.0,11.0,0.0
15253,51.0,0.0,20.0,11.0,0.0
15254,56.0,28.0,20.0,12.0,0.0
15255,60.0,2.0,20.0,11.0,0.0
15256,51.0,0.0,20.0,11.0,0.0
15257,56.0,15.0,20.0,12.0,0.0
15258,56.0,0.0,60.0,4.0,0.0
15259,63.0,2.0,60.0,6.0,0.0
15260,68.0,0.0,60.0,6.0,0.0
15261,60.0,2.0,20.0,11.0,0.0
15262,51.0,0.0,20.0,11.0,0.0
15263,51.0,19.0,60.0,5.0,0.0
15264,56.0,28.0,20.0,12.0,0.0
15265,44.0,13.0,15.0,15.0,0.0
15266,51.0,2.0,20.0,11.0,0.0
15267,60.0,0.0,20.0,11.0,0.0
15268,56.0,7.0,20.0,12.0,0.0
15269,51.0,0.0,20.0,11.0,0.0
15270,60.0,2.0,20.0,11.0,0.0
15271,56.0,28.0,20.0,12.0,0.0
15272,51.0,2.0,20.0,11.0,0.0
15273,60.0,0.0,20.0,11.0,0.0
15274,56.0,15.0,20.0,12.0,0.0
15275,72.0,23.0,60.0,10.0,0.0
15276,72.0,0.0,120.0,6.0,0.0
15277,68.0,0.0,120.0,6.0,0.0
15278,60.0,1.0,120.0,4.0,0.0
15279,60.0,0.0,20.0,11.0,0.0
15280,51.0,2.0,20.0,11.0,0.0
15281,56.0,6.0,120.0,5.0,0.0
15282,56.0,28.0,20.0,12.0,0.0
15283,44.0,13.0,120.0,15.0,0.0
15284,60.0,2.0,20.0,11.0,0.0
15285,51.0,0.0,20.0,11.0,0.0
15286,56.0,5.0,20.0,12.0,0.0
15287,60.0,0.0,20.0,11.0,0.0
15288,51.0,2.0,20.0,11.0,0.0
15289,56.0,28.0,20.0,12.0,0.0
15290,60.0,2.0,20.0,11.0,0.0
15291,51.0,0.0,20.0,11.0,0.0
15292,56.0,6.0,20.0,12.0,0.0
15293,72.0,1.0,60.0,10.0,0.0
15294,75.0,1.0,60.0,0.0,0.0
15295,72.0,0.0,60.0,0.0,0.0
15296,63.0,1.0,60.0,1.0,0.0
15297,60.0,0.0,60.0,1.0,0.0
15298,51.0,0.0,20.0,11.0,0.0
15299,63.0,0.0,60.0,2.0,0.0
15300,60.0,4.0,60.0,2.0,0.0
15301,60.0,2.0,20.0,11.0,0.0
15302,56.0,28.0,20.0,12.0,0.0
15303,56.0,1.0,60.0,13.0,0.0
15304,48.0,0.0,60.0,3.0,0.0
15305,51.0,3.0,60.0,3.0,0.0
15306,44.0,12.0,60.0,14.0,0.0
15307,60.0,2.0,20.0,11.0,0.0
15308,51.0,0.0,20.0,11.0,0.0
15309,56.0,5.0,20.0,12.0,0.0
15310,60.0,0.0,20.0,11.0,0.0
15311,51.0,2.0,20.0,11.0,0.0
15312,56.0,28.0,20.0,12.0,0.0
15313,51.0,2.0,20.0,11.0,0.0
15314,60.0,0.0,20.0,11.0,0.0
15315,56.0,28.0,20.0,12.0,0.0
15316,75.0,1.0,60.0,10.0,0.0
15317,75.0,0.0,60.0,0.0,0.0
15318,80.0,1.0,60.0,0.0,0.0
15319,68.0,1.0,60.0,1.0,0.0
15320,63.0,0.0,60.0,1.0,0.0
15321,63.0,4.0,60.0,2.0,0.0
15322,68.0,0.0,60.0,2.0,0.0
15323,60.0,2.0,20.0,11.0,0.0
15324,51.0,0.0,20.0,11.0,0.0
15325,56.0,28.0,20.0,12.0,0.0
15326,51.0,1.0,60.0,13.0,0.0
15327,56.0,0.0,60.0,3.0,0.0
15328,51.0,3.0,60.0,3.0,0.0
15329,39.0,12.0,60.0,14.0,0.0
15330,51.0,2.0,20.0,11.0,0.0
15331,60.0,0.0,20.0,11.0,0.0
15332,56.0,5.0,20.0,12.0,0.0
15333,60.0,0.0,20.0,11.0,0.0
15334,51.0,2.0,20.0,11.0,0.0
15335,56.0,28.0,20.0,12.0,0.0
15336,60.0,2.0,20.0,11.0,0.0
15337,51.0,0.0,20.0,11.0,0.0
15338,56.0,28.0,20.0,12.0,0.0
15339,80.0,1.0,60.0,10.0,0.0
15340,80.0,1.0,60.0,0.0,0.0
15341,84.0,0.0,60.0,0.0,0.0
15342,72.0,0.0,60.0,1.0,0.0
15343,68.0,1.0,60.0,1.0,0.0
15344,72.0,0.0,60.0,2.0,0.0
15345,51.0,2.0,20.0,11.0,0.0
15346,60.0,0.0,20.0,11.0,0.0
15347,68.0,4.0,60.0,2.0,0.0
15348,56.0,28.0,20.0,12.0,0.0
15349,48.0,1.0,60.0,13.0,0.0
15350,56.0,3.0,60.0,3.0,0.0
15351,60.0,0.0,60.0,3.0,0.0
15352,36.0,12.0,60.0,14.0,0.0
15353,60.0,2.0,20.0,11.0,0.0
15354,51.0,0.0,20.0,11.0,0.0
15355,56.0,5.0,20.0,12.0,0.0
15356,60.0,0.0,20.0,11.0,0.0
15357,51.0,2.0,20.0,11.0,0.0
15358,56.0,28.0,20.0,12.0,0.0
15359,51.0,2.0,20.0,11.0,0.0
15360,60.0,0.0,20.0,11.0,0.0
15361,56.0,28.0,20.0,12.0,0.0
15362,84.0,10.0,120.0,10.0,0.0
15363,84.0,0.0,1560.0,0.0,0.0
15364,87.0,1.0,1560.0,0.0,0.0
15365,75.0,1.0,1560.0,1.0,0.0
15366,56.0,0.0,1560.0,4.0,0.0
15367,72.0,0.0,1560.0,1.0,0.0
15368,51.0,0.0,20.0,11.0,0.0
15369,60.0,2.0,20.0,11.0,0.0
15370,72.0,0.0,1560.0,2.0,0.0
15371,75.0,1.0,1560.0,2.0,0.0
15372,48.0,4.0,1560.0,5.0,0.0
15373,56.0,28.0,20.0,12.0,0.0
15374,44.0,4.0,360.0,13.0,0.0
15375,60.0,2.0,1560.0,3.0,0.0
15376,63.0,0.0,1560.0,3.0,0.0
15377,44.0,13.0,120.0,15.0,0.0
15378,32.0,22.0,360.0,14.0,0.0
15379,51.0,0.0,20.0,11.0,0.0
15380,60.0,2.0,20.0,11.0,0.0
15381,56.0,28.0,20.0,12.0,0.0
15382,60.0,0.0,20.0,11.0,0.0
15383,51.0,2.0,20.0,11.0,0.0
15384,56.0,28.0,20.0,12.0,0.0
15385,60.0,0.0,20.0,11.0,0.0
15386,51.0,2.0,20.0,11.0,0.0
15387,56.0,5.0,20.0,12.0,0.0
15388,60.0,2.0,20.0,11.0,0.0
15389,51.0,0.0,20.0,11.0,0.0
15390,56.0,28.0,20.0,12.0,0.0
15391,60.0,0.0,20.0,11.0,0.0
15392,51.0,2.0,20.0,11.0,0.0
15393,56.0,28.0,20.0,12.0,0.0
15394,60.0,0.0,20.0,11.0,0.0
15395,51.0,2.0,20.0,11.0,0.0
15396,56.0,28.0,20.0,12.0,0.0
15397,51.0,2.0,20.0,11.0,0.0
15398,60.0,0.0,20.0,11.0,0.0
15399,56.0,28.0,20.0,12.0,0.0
15400,60.0,0.0,20.0,11.0,0.0
15401,51.0,2.0,20.0,11.0,0.0
15402,56.0,28.0,20.0,12.0,0.0
15403,60.0,0.0,20.0,11.0,0.0
15404,51.0,2.0,20.0,11.0,0.0
15405,56.0,28.0,20.0,12.0,0.0
15406,51.0,0.0,20.0,11.0,0.0
15407,60.0,2.0,20.0,11.0,0.0
15408,56.0,28.0,20.0,12.0,0.0
15409,51.0,0.0,20.0,11.0,0.0
15410,60.0,2.0,20.0,11.0,0.0
15411,56.0,2.0,20.0,12.0,0.0
15412,51.0,7.0,90.0,10.0,0.0
15413,51.0,2.0,20.0,11.0,0.0
15414,60.0,0.0,20.0,11.0,0.0
15415,56.0,28.0,20.0,12.0,0.0
15416,39.0,4.0,90.0,13.0,0.0
15417,27.0,9.0,90.0,14.0,0.0
15418,51.0,0.0,20.0,11.0,0.0
15419,60.0,2.0,20.0,11.0,0.0
15420,56.0,28.0,20.0,12.0,0.0
15421,51.0,2.0,20.0,11.0,0.0
15422,60.0,0.0,20.0,11.0,0.0
15423,56.0,5.0,20.0,12.0,0.0
15424,55.0,3.0,20.0,10.0,0.0
15425,51.0,0.0,20.0,11.0,0.0
15426,60.0,2.0,20.0,11.0,0.0
15427,56.0,2.0,20.0,12.0,0.0
15428,43.0,4.0,20.0,13.0,0.0
15429,31.0,22.0,20.0,14.0,0.0
15430,56.0,7.0,30.0,10.0,0.0
15431,60.0,0.0,20.0,11.0,0.0
15432,51.0,2.0,20.0,11.0,0.0
15433,56.0,5.0,20.0,12.0,0.0
15434,44.0,4.0,30.0,13.0,0.0
15435,32.0,12.0,30.0,14.0,0.0
15436,60.0,2.0,20.0,11.0,0.0
15437,51.0,0.0,20.0,11.0,0.0
15438,56.0,28.0,20.0,12.0,0.0
15439,56.0,7.0,30.0,10.0,0.0
15440,51.0,2.0,20.0,11.0,0.0
15441,60.0,0.0,20.0,11.0,0.0
15442,56.0,5.0,20.0,12.0,0.0
15443,44.0,4.0,30.0,13.0,0.0
15444,32.0,12.0,30.0,14.0,0.0
15445,51.0,0.0,20.0,11.0,0.0
15446,60.0,2.0,20.0,11.0,0.0
15447,56.0,28.0,20.0,12.0,0.0
15448,51.0,7.0,30.0,10.0,0.0
15449,60.0,0.0,20.0,11.0,0.0
15450,51.0,2.0,20.0,11.0,0.0
15451,56.0,5.0,20.0,12.0,0.0
15452,39.0,4.0,30.0,13.0,0.0
15453,27.0,12.0,30.0,14.0,0.0
15454,51.0,2.0,20.0,11.0,0.0
15455,60.0,0.0,20.0,11.0,0.0
15456,56.0,28.0,20.0,12.0,0.0
15457,55.0,7.0,30.0,10.0,0.0
15458,60.0,0.0,20.0,11.0,0.0
15459,51.0,2.0,20.0,11.0,0.0
15460,56.0,5.0,20.0,12.0,0.0
15461,43.0,4.0,30.0,13.0,0.0
15462,31.0,12.0,30.0,14.0,0.0
15463,60.0,2.0,20.0,11.0,0.0
15464,51.0,0.0,20.0,11.0,0.0
15465,56.0,28.0,20.0,12.0,0.0
15466,56.0,7.0,30.0,10.0,0.0
15467,60.0,0.0,20.0,11.0,0.0
15468,51.0,2.0,20.0,11.0,0.0
15469,56.0,5.0,20.0,12.0,0.0
15470,44.0,4.0,30.0,13.0,0.0
15471,32.0,12.0,30.0,14.0,0.0
15472,51.0,0.0,20.0,11.0,0.0
15473,60.0,2.0,20.0,11.0,0.0
15474,56.0,28.0,20.0,12.0,0.0
15475,56.0,7.0,30.0,10.0,0.0
15476,60.0,0.0,20.0,11.0,0.0
15477,51.0,2.0,20.0,11.0,0.0
15478,56.0,5.0,20.0,12.0,0.0
15479,44.0,4.0,30.0,13.0,0.0
15480,32.0,12.0,30.0,14.0,0.0
15481,60.0,0.0,20.0,11.0,0.0
15482,51.0,2.0,20.0,11.0,0.0
15483,56.0,28.0,20.0,12.0,0.0
15484,51.0,7.0,30.0,10.0,0.0
15485,51.0,2.0,20.0,11.0,0.0
15486,60.0,0.0,20.0,11.0,0.0
15487,56.0,5.0,20.0,12.0,0.0
15488,39.0,4.0,30.0,13.0,0.0
15489,27.0,12.0,30.0,14.0,0.0
15490,60.0,2.0,20.0,11.0,0.0
15491,51.0,0.0,20.0,11.0,0.0
15492,56.0,28.0,20.0,12.0,0.0
15493,55.0,7.0,30.0,10.0,0.0
15494,60.0,0.0,20.0,11.0,0.0
15495,51.0,2.0,20.0,11.0,0.0
15496,56.0,5.0,20.0,12.0,0.0
15497,43.0,4.0,30.0,13.0,0.0
15498,31.0,12.0,30.0,14.0,0.0
15499,51.0,2.0,20.0,11.0,0.0
15500,60.0,0.0,20.0,11.0,0.0
15501,56.0,28.0,20.0,12.0,0.0
15502,56.0,7.0,120.0,10.0,0.0
15503,51.0,0.0,20.0,11.0,0.0
15504,60.0,2.0,20.0,11.0,0.0
15505,56.0,28.0,20.0,12.0,0.0
15506,44.0,4.0,120.0,13.0,0.0
15507,32.0,12.0,120.0,14.0,0.0
15508,60.0,0.0,20.0,11.0,0.0
15509,51.0,2.0,20.0,11.0,0.0
15510,56.0,28.0,20.0,12.0,0.0
15511,51.0,0.0,20.0,11.0,0.0
15512,60.0,2.0,20.0,11.0,0.0
15513,56.0,28.0,20.0,12.0,0.0
15514,60.0,2.0,20.0,11.0,0.0
15515,51.0,0.0,20.0,11.0,0.0
15516,56.0,5.0,20.0,12.0,0.0
15517,63.0,0.0,60.0,6.0,0.0
15518,51.0,21.0,60.0,6.0,0.0
15519,51.0,2.0,20.0,11.0,0.0
15520,60.0,0.0,20.0,11.0,0.0
15521,56.0,28.0,20.0,12.0,0.0
15522,44.0,13.0,120.0,15.0,0.0
15523,60.0,0.0,20.0,11.0,0.0
15524,51.0,2.0,20.0,11.0,0.0
15525,56.0,7.0,20.0,12.0,0.0
15526,60.0,0.0,20.0,11.0,0.0
15527,51.0,2.0,20.0,11.0,0.0
15528,56.0,28.0,20.0,12.0,0.0
15529,60.0,2.0,20.0,11.0,0.0
15530,51.0,0.0,20.0,11.0,0.0
15531,56.0,15.0,20.0,12.0,0.0
15532,56.0,0.0,60.0,6.0,0.0
15533,68.0,21.0,60.0,6.0,0.0
15534,60.0,2.0,20.0,11.0,0.0
15535,51.0,0.0,20.0,11.0,0.0
15536,56.0,28.0,20.0,12.0,0.0
15537,51.0,0.0,20.0,11.0,0.0
15538,60.0,2.0,20.0,11.0,0.0
15539,56.0,7.0,20.0,12.0,0.0
15540,51.0,0.0,20.0,11.0,0.0
15541,60.0,2.0,20.0,11.0,0.0
15542,56.0,28.0,20.0,12.0,0.0
15543,51.0,0.0,20.0,11.0,0.0
15544,60.0,2.0,20.0,11.0,0.0
15545,56.0,15.0,20.0,12.0,0.0
15546,60.0,21.0,60.0,6.0,0.0
15547,72.0,0.0,60.0,6.0,0.0
15548,51.0,2.0,20.0,11.0,0.0
15549,60.0,0.0,20.0,11.0,0.0
15550,56.0,28.0,20.0,12.0,0.0
15551,44.0,13.0,15.0,15.0,0.0
15552,51.0,2.0,20.0,11.0,0.0
15553,60.0,0.0,20.0,11.0,0.0
15554,56.0,7.0,20.0,12.0,0.0
15555,60.0,2.0,20.0,11.0,0.0
15556,51.0,0.0,20.0,11.0,0.0
15557,56.0,28.0,20.0,12.0,0.0
15558,51.0,0.0,20.0,11.0,0.0
15559,60.0,2.0,20.0,11.0,0.0
15560,56.0,15.0,20.0,12.0,0.0
15561,72.0,23.0,60.0,10.0,0.0
15562,75.0,0.0,960.0,6.0,0.0
15563,63.0,0.0,960.0,6.0,0.0
15564,60.0,2.0,20.0,11.0,0.0
15565,56.0,28.0,20.0,12.0,0.0
15566,44.0,13.0,15.0,15.0,0.0
15567,60.0,2.0,20.0,11.0,0.0
15568,56.0,5.0,20.0,12.0,0.0
15569,60.0,2.0,20.0,11.0,0.0
15570,56.0,28.0,20.0,12.0,0.0
15571,60.0,2.0,20.0,11.0,0.0
15572,56.0,6.0,20.0,12.0,0.0
15573,75.0,1.0,60.0,10.0,0.0
15574,75.0,1.0,60.0,0.0,0.0
15575,51.0,1.0,60.0,4.0,0.0
15576,63.0,0.0,60.0,1.0,0.0
15577,63.0,2.0,20.0,11.0,0.0
15578,63.0,1.0,60.0,2.0,0.0
15579,39.0,3.0,60.0,5.0,0.0
15580,51.0,28.0,20.0,12.0,0.0
15581,51.0,1.0,60.0,13.0,0.0
15582,51.0,3.0,60.0,3.0,0.0
15583,39.0,12.0,60.0,14.0,0.0
15584,63.0,2.0,20.0,11.0,0.0
15585,51.0,5.0,20.0,12.0,0.0
15586,63.0,2.0,20.0,11.0,0.0
15587,51.0,28.0,20.0,12.0,0.0
15588,63.0,2.0,20.0,11.0,0.0
15589,51.0,28.0,20.0,12.0,0.0
15590,80.0,1.0,60.0,10.0,0.0
15591,80.0,1.0,60.0,0.0,0.0
15592,56.0,1.0,60.0,4.0,0.0
15593,68.0,0.0,60.0,1.0,0.0
15594,68.0,2.0,20.0,11.0,0.0
15595,68.0,1.0,60.0,2.0,0.0
15596,44.0,3.0,60.0,5.0,0.0
15597,56.0,28.0,20.0,12.0,0.0
15598,56.0,1.0,60.0,13.0,0.0
15599,56.0,3.0,60.0,3.0,0.0
15600,44.0,12.0,60.0,14.0,0.0
15601,68.0,2.0,20.0,11.0,0.0
15602,56.0,5.0,20.0,12.0,0.0
15603,68.0,2.0,20.0,11.0,0.0
15604,56.0,28.0,20.0,12.0,0.0
15605,68.0,2.0,20.0,11.0,0.0
15606,56.0,28.0,20.0,12.0,0.0
15607,84.0,1.0,60.0,10.0,0.0
15608,84.0,1.0,60.0,0.0,0.0
15609,60.0,0.0,60.0,4.0,0.0
15610,72.0,1.0,60.0,1.0,0.0
15611,72.0,1.0,60.0,2.0,0.0
15612,72.0,2.0,20.0,11.0,0.0
15613,48.0,3.0,60.0,5.0,0.0
15614,60.0,28.0,20.0,12.0,0.0
15615,60.0,1.0,60.0,13.0,0.0
15616,60.0,3.0,60.0,3.0,0.0
15617,48.0,12.0,60.0,14.0,0.0
15618,72.0,2.0,20.0,11.0,0.0
15619,60.0,5.0,20.0,12.0,0.0
15620,72.0,2.0,20.0,11.0,0.0
15621,60.0,28.0,20.0,12.0,0.0
15622,72.0,2.0,20.0,11.0,0.0
15623,60.0,25.0,20.0,12.0,0.0
15624,87.0,3.0,20.0,10.0,0.0
15625,87.0,1.0,60.0,0.0,0.0
15626,75.0,1.0,60.0,1.0,0.0
15627,63.0,2.0,480.0,4.0,0.0
15628,75.0,4.0,60.0,2.0,0.0
15629,75.0,2.0,20.0,11.0,0.0
15630,51.0,5.0,480.0,5.0,0.0
15631,63.0,25.0,20.0,12.0,0.0
15632,63.0,1.0,60.0,13.0,0.0
15633,63.0,3.0,60.0,3.0,0.0
15634,51.0,9.0,60.0,14.0,0.0
15635,87.0,3.0,20.0,10.0,0.0
15636,75.0,2.0,20.0,11.0,0.0
15637,63.0,6.0,20.0,12.0,0.0
15638,87.0,3.0,20.0,10.0,0.0
15639,75.0,2.0,20.0,11.0,0.0
15640,63.0,25.0,20.0,12.0,0.0
15641,87.0,3.0,20.0,10.0,0.0
15642,75.0,2.0,20.0,11.0,0.0
15643,63.0,25.0,20.0,12.0,0.0
15644,84.0,3.0,20.0,10.0,0.0
15645,84.0,1.0,60.0,0.0,0.0
15646,72.0,1.0,60.0,1.0,0.0
15647,72.0,2.0,20.0,11.0,0.0
15648,72.0,3.0,60.0,2.0,0.0
15649,60.0,9.0,20.0,12.0,0.0
15650,60.0,1.0,60.0,13.0,0.0
15651,60.0,3.0,60.0,3.0,0.0
15652,44.0,16.0,20.0,15.0,0.0
15653,48.0,9.0,60.0,14.0,0.0
15654,84.0,3.0,20.0,10.0,0.0
15655,72.0,2.0,20.0,11.0,0.0
15656,60.0,6.0,20.0,12.0,0.0
15657,44.0,1.0,20.0,15.0,0.0
15658,84.0,3.0,20.0,10.0,0.0
15659,72.0,2.0,20.0,11.0,0.0
15660,60.0,10.0,20.0,12.0,0.0
15661,44.0,15.0,20.0,15.0,0.0
15662,84.0,3.0,20.0,10.0,0.0
15663,72.0,2.0,20.0,11.0,0.0
15664,60.0,12.0,20.0,12.0,0.0
15665,44.0,13.0,20.0,15.0,0.0
15666,80.0,3.0,20.0,10.0,0.0
15667,80.0,1.0,60.0,0.0,0.0
15668,68.0,1.0,60.0,1.0,0.0
15669,68.0,2.0,20.0,11.0,0.0
15670,68.0,3.0,60.0,2.0,0.0
15671,56.0,9.0,20.0,12.0,0.0
15672,56.0,1.0,60.0,13.0,0.0
15673,56.0,3.0,60.0,3.0,0.0
15674,44.0,16.0,20.0,15.0,0.0
15675,44.0,9.0,60.0,14.0,0.0
15676,80.0,3.0,20.0,10.0,0.0
15677,68.0,2.0,20.0,11.0,0.0
15678,56.0,6.0,20.0,12.0,0.0
15679,44.0,1.0,20.0,15.0,0.0
15680,80.0,3.0,20.0,10.0,0.0
15681,68.0,2.0,20.0,11.0,0.0
15682,56.0,8.0,20.0,12.0,0.0
15683,44.0,17.0,20.0,15.0,0.0
15684,80.0,3.0,20.0,10.0,0.0
15685,68.0,2.0,20.0,11.0,0.0
15686,56.0,13.0,20.0,12.0,0.0
15687,44.0,12.0,20.0,15.0,0.0
15688,75.0,3.0,20.0,10.0,0.0
15689,75.0,1.0,60.0,0.0,0.0
15690,63.0,1.0,60.0,1.0,0.0
15691,63.0,2.0,60.0,2.0,0.0
15692,63.0,2.0,20.0,11.0,0.0
15693,51.0,9.0,20.0,12.0,0.0
15694,51.0,1.0,60.0,13.0,0.0
15695,51.0,3.0,60.0,3.0,0.0
15696,44.0,16.0,20.0,15.0,0.0
15697,39.0,9.0,60.0,14.0,0.0
15698,75.0,3.0,20.0,10.0,0.0
15699,63.0,2.0,20.0,11.0,0.0
15700,51.0,6.0,20.0,12.0,0.0
15701,44.0,2.0,20.0,15.0,0.0
15702,75.0,3.0,20.0,10.0,0.0
15703,63.0,2.0,20.0,11.0,0.0
15704,51.0,8.0,20.0,12.0,0.0
15705,44.0,17.0,20.0,15.0,0.0
15706,75.0,3.0,20.0,10.0,0.0
15707,63.0,2.0,20.0,11.0,0.0
15708,51.0,7.0,20.0,12.0,0.0
15709,44.0,11.0,20.0,15.0,0.0
15710,84.0,3.0,20.0,10.0,0.0
15711,84.0,1.0,60.0,0.0,0.0
15712,60.0,0.0,480.0,6.0,0.0
15713,72.0,0.0,480.0,6.0,0.0
15714,60.0,1.0,480.0,4.0,0.0
15715,72.0,1.0,60.0,1.0,0.0
15716,72.0,3.0,60.0,2.0,0.0
15717,72.0,2.0,20.0,11.0,0.0
15718,48.0,16.0,480.0,5.0,0.0
15719,60.0,11.0,20.0,12.0,0.0
15720,60.0,1.0,60.0,13.0,0.0
15721,60.0,3.0,60.0,3.0,0.0
15722,48.0,9.0,60.0,14.0,0.0
15723,44.0,14.0,20.0,15.0,0.0
15724,84.0,3.0,20.0,10.0,0.0
15725,72.0,2.0,20.0,11.0,0.0
15726,60.0,6.0,20.0,12.0,0.0
15727,44.0,1.0,20.0,15.0,0.0
15728,84.0,3.0,20.0,10.0,0.0
15729,72.0,2.0,20.0,11.0,0.0
15730,60.0,8.0,20.0,12.0,0.0
15731,44.0,17.0,20.0,15.0,0.0
15732,84.0,3.0,20.0,10.0,0.0
15733,72.0,2.0,20.0,11.0,0.0
15734,60.0,8.0,20.0,12.0,0.0
15735,44.0,17.0,20.0,15.0,0.0
15736,80.0,3.0,20.0,10.0,0.0
15737,80.0,1.0,60.0,0.0,0.0
15738,68.0,1.0,60.0,1.0,0.0
15739,68.0,2.0,20.0,11.0,0.0
15740,68.0,2.0,60.0,2.0,0.0
15741,56.0,7.0,20.0,12.0,0.0
15742,56.0,1.0,60.0,13.0,0.0
15743,56.0,3.0,60.0,3.0,0.0
15744,44.0,18.0,20.0,15.0,0.0
15745,44.0,9.0,60.0,14.0,0.0
15746,80.0,3.0,20.0,10.0,0.0
15747,68.0,2.0,20.0,11.0,0.0
15748,56.0,6.0,20.0,12.0,0.0
15749,44.0,2.0,20.0,15.0,0.0
15750,80.0,3.0,20.0,10.0,0.0
15751,68.0,2.0,20.0,11.0,0.0
15752,56.0,7.0,20.0,12.0,0.0
15753,44.0,18.0,20.0,15.0,0.0
15754,80.0,3.0,20.0,10.0,0.0
15755,68.0,2.0,20.0,11.0,0.0
15756,56.0,5.0,20.0,12.0,0.0
15757,44.0,20.0,20.0,15.0,0.0
15758,75.0,3.0,20.0,10.0,0.0
15759,75.0,1.0,60.0,0.0,0.0
15760,63.0,1.0,60.0,1.0,0.0
15761,63.0,1.0,60.0,2.0,0.0
15762,63.0,2.0,20.0,11.0,0.0
15763,51.0,12.0,20.0,12.0,0.0
15764,51.0,1.0,60.0,13.0,0.0
15765,51.0,3.0,60.0,3.0,0.0
15766,39.0,9.0,60.0,14.0,0.0
15767,44.0,13.0,20.0,15.0,0.0
15768,75.0,3.0,20.0,10.0,0.0
15769,63.0,2.0,20.0,11.0,0.0
15770,51.0,6.0,20.0,12.0,0.0
15771,44.0,3.0,20.0,15.0,0.0
15772,75.0,3.0,20.0,10.0,0.0
15773,63.0,2.0,20.0,11.0,0.0
15774,51.0,8.0,20.0,12.0,0.0
15775,44.0,17.0,20.0,15.0,0.0
15776,75.0,3.0,20.0,10.0,0.0
15777,63.0,2.0,20.0,11.0,0.0
15778,51.0,5.0,20.0,12.0,0.0
15779,44.0,20.0,20.0,15.0,0.0
15780,72.0,3.0,20.0,10.0,0.0
15781,72.0,1.0,60.0,0.0,0.0
15782,60.0,1.0,60.0,1.0,0.0
15783,60.0,2.0,20.0,11.0,0.0
15784,60.0,2.0,60.0,2.0,0.0
15785,48.0,7.0,20.0,12.0,0.0
15786,48.0,1.0,60.0,13.0,0.0
15787,48.0,3.0,60.0,3.0,0.0
15788,44.0,18.0,20.0,15.0,0.0
15789,36.0,9.0,60.0,14.0,0.0
15790,72.0,3.0,20.0,10.0,0.0
15791,60.0,2.0,20.0,11.0,0.0
15792,48.0,6.0,20.0,12.0,0.0
15793,44.0,2.0,20.0,15.0,0.0
15794,72.0,3.0,20.0,10.0,0.0
15795,60.0,2.0,20.0,11.0,0.0
15796,48.0,8.0,20.0,12.0,0.0
15797,44.0,17.0,20.0,15.0,0.0
15798,72.0,3.0,20.0,10.0,0.0
15799,60.0,2.0,20.0,11.0,0.0
15800,48.0,7.0,20.0,12.0,0.0
15801,44.0,1.0,20.0,15.0,0.0
15802,80.0,3.0,20.0,10.0,0.0
15803,80.0,1.0,60.0,0.0,0.0
15804,56.0,2.0,360.0,6.0,0.0
15805,68.0,1.0,60.0,1.0,0.0
15806,56.0,0.0,360.0,4.0,0.0
15807,56.0,2.0,60.0,2.0,0.0
15808,68.0,2.0,20.0,11.0,0.0
15809,44.0,16.0,360.0,5.0,0.0
15810,68.0,11.0,20.0,12.0,0.0
15811,56.0,1.0,60.0,13.0,0.0
15812,56.0,3.0,60.0,3.0,0.0
15813,44.0,9.0,60.0,14.0,0.0
15814,44.0,14.0,20.0,15.0,0.0
15815,80.0,3.0,20.0,10.0,0.0
15816,68.0,2.0,20.0,11.0,0.0
15817,68.0,6.0,20.0,12.0,0.0
15818,44.0,2.0,20.0,15.0,0.0
15819,80.0,3.0,20.0,10.0,0.0
15820,68.0,2.0,20.0,11.0,0.0
15821,68.0,9.0,20.0,12.0,0.0
15822,44.0,16.0,20.0,15.0,0.0
15823,80.0,3.0,20.0,10.0,0.0
15824,68.0,2.0,20.0,11.0,0.0
15825,68.0,8.0,20.0,12.0,0.0
15826,44.0,17.0,20.0,15.0,0.0
15827,75.0,3.0,20.0,10.0,0.0
15828,75.0,1.0,60.0,0.0,0.0
15829,75.0,1.0,60.0,1.0,0.0
15830,75.0,2.0,20.0,11.0,0.0
15831,75.0,4.0,60.0,2.0,0.0
15832,63.0,11.0,20.0,12.0,0.0
15833,51.0,1.0,60.0,13.0,0.0
15834,51.0,3.0,60.0,3.0,0.0
15835,39.0,9.0,60.0,14.0,0.0
15836,44.0,14.0,20.0,15.0,0.0
15837,75.0,3.0,20.0,10.0,0.0
15838,75.0,2.0,20.0,11.0,0.0
15839,63.0,6.0,20.0,12.0,0.0
15840,44.0,0.0,20.0,15.0,0.0
15841,75.0,3.0,20.0,10.0,0.0
15842,75.0,2.0,20.0,11.0,0.0
15843,63.0,9.0,20.0,12.0,0.0
15844,44.0,16.0,20.0,15.0,0.0
15845,75.0,3.0,20.0,10.0,0.0
15846,75.0,2.0,20.0,11.0,0.0
15847,63.0,8.0,20.0,12.0,0.0
15848,44.0,17.0,20.0,15.0,0.0
15849,72.0,3.0,20.0,10.0,0.0
15850,84.0,1.0,60.0,0.0,0.0
15851,72.0,1.0,60.0,1.0,0.0
15852,72.0,2.0,20.0,11.0,0.0
15853,72.0,2.0,60.0,2.0,0.0
15854,60.0,12.0,20.0,12.0,0.0
15855,48.0,1.0,60.0,13.0,0.0
15856,48.0,3.0,60.0,3.0,0.0
15857,36.0,9.0,60.0,14.0,0.0
15858,44.0,13.0,20.0,15.0,0.0
15859,72.0,3.0,20.0,10.0,0.0
15860,72.0,2.0,20.0,11.0,0.0
15861,60.0,6.0,20.0,12.0,0.0
15862,44.0,2.0,20.0,15.0,0.0
15863,72.0,3.0,20.0,10.0,0.0
15864,72.0,2.0,20.0,11.0,0.0
15865,60.0,11.0,20.0,12.0,0.0
15866,44.0,14.0,20.0,15.0,0.0
15867,72.0,3.0,20.0,10.0,0.0
15868,72.0,2.0,20.0,11.0,0.0
15869,60.0,7.0,20.0,12.0,0.0
15870,44.0,0.0,20.0,15.0,0.0
15871,68.0,3.0,20.0,10.0,0.0
15872,80.0,1.0,60.0,0.0,0.0
15873,68.0,0.0,15.0,6.0,0.0
15874,68.0,1.0,60.0,4.0,0.0
15875,68.0,0.0,60.0,1.0,0.0
15876,68.0,1.0,60.0,2.0,0.0
15877,68.0,2.0,20.0,11.0,0.0
15878,56.0,3.0,60.0,5.0,0.0
15879,56.0,10.0,20.0,12.0,0.0
15880,44.0,1.0,60.0,13.0,0.0
15881,44.0,0.0,60.0,3.0,0.0
15882,44.0,15.0,20.0,15.0,0.0
15883,32.0,9.0,60.0,14.0,0.0
15884,68.0,3.0,20.0,10.0,0.0
15885,68.0,2.0,20.0,11.0,0.0
15886,56.0,6.0,20.0,12.0,0.0
15887,44.0,3.0,20.0,15.0,0.0
15888,68.0,3.0,20.0,10.0,0.0
15889,68.0,2.0,20.0,11.0,0.0
15890,56.0,12.0,20.0,12.0,0.0
15891,44.0,13.0,20.0,15.0,0.0
15892,68.0,3.0,20.0,10.0,0.0
15893,68.0,2.0,20.0,11.0,0.0
15894,56.0,12.0,20.0,12.0,0.0
15895,44.0,13.0,20.0,15.0,0.0
15896,63.0,3.0,20.0,10.0,0.0
15897,75.0,1.0,60.0,0.0,0.0
15898,63.0,0.0,60.0,6.0,0.0
15899,63.0,1.0,60.0,1.0,0.0
15900,63.0,0.0,60.0,4.0,0.0
15901,63.0,2.0,20.0,11.0,0.0
15902,63.0,1.0,60.0,2.0,0.0
15903,51.0,3.0,60.0,5.0,0.0
15904,51.0,12.0,20.0,12.0,0.0
15905,39.0,1.0,60.0,13.0,0.0
15906,39.0,3.0,60.0,3.0,0.0
15907,27.0,9.0,60.0,14.0,0.0
15908,44.0,13.0,20.0,15.0,0.0
15909,63.0,3.0,20.0,10.0,0.0
15910,63.0,2.0,20.0,11.0,0.0
15911,51.0,6.0,20.0,12.0,0.0
15912,44.0,0.0,20.0,15.0,0.0
15913,63.0,3.0,20.0,10.0,0.0
15914,63.0,2.0,20.0,11.0,0.0
15915,51.0,9.0,20.0,12.0,0.0
15916,44.0,16.0,20.0,15.0,0.0
15917,63.0,3.0,20.0,10.0,0.0
15918,63.0,2.0,20.0,11.0,0.0
15919,51.0,10.0,20.0,12.0,0.0
15920,44.0,15.0,20.0,15.0,0.0
15921,68.0,3.0,20.0,10.0,0.0
15922,80.0,1.0,60.0,0.0,0.0
15923,80.0,0.0,60.0,1.0,0.0
15924,68.0,1.0,60.0,4.0,0.0
15925,68.0,0.0,60.0,6.0,0.0
15926,68.0,0.0,60.0,1.0,0.0
15927,68.0,1.0,60.0,2.0,0.0
15928,68.0,2.0,20.0,11.0,0.0
15929,56.0,1.0,60.0,5.0,0.0
15930,56.0,12.0,20.0,12.0,0.0
15931,44.0,1.0,60.0,13.0,0.0
15932,44.0,3.0,60.0,3.0,0.0
15933,32.0,9.0,60.0,14.0,0.0
15934,44.0,13.0,20.0,15.0,0.0
15935,68.0,3.0,20.0,10.0,0.0
15936,68.0,2.0,20.0,11.0,0.0
15937,56.0,6.0,20.0,12.0,0.0
15938,44.0,2.0,20.0,15.0,0.0
15939,68.0,3.0,20.0,10.0,0.0
15940,68.0,2.0,20.0,11.0,0.0
15941,56.0,12.0,20.0,12.0,0.0
15942,44.0,13.0,20.0,15.0,0.0
15943,68.0,3.0,20.0,10.0,0.0
15944,68.0,2.0,20.0,11.0,0.0
15945,56.0,10.0,20.0,12.0,0.0
15946,44.0,15.0,20.0,15.0,0.0
15947,63.0,3.0,20.0,10.0,0.0
15948,75.0,1.0,60.0,0.0,0.0
15949,75.0,0.0,60.0,1.0,0.0
15950,63.0,0.0,60.0,6.0,0.0
15951,63.0,0.0,60.0,1.0,0.0
15952,63.0,1.0,60.0,4.0,0.0
15953,63.0,1.0,60.0,2.0,0.0
15954,63.0,2.0,20.0,11.0,0.0
15955,51.0,3.0,60.0,5.0,0.0
15956,51.0,14.0,20.0,12.0,0.0
15957,39.0,1.0,60.0,13.0,0.0
15958,39.0,3.0,60.0,3.0,0.0
15959,27.0,9.0,60.0,14.0,0.0
15960,44.0,11.0,20.0,15.0,0.0
15961,63.0,3.0,20.0,10.0,0.0
15962,63.0,2.0,20.0,11.0,0.0
15963,51.0,6.0,20.0,12.0,0.0
15964,44.0,0.0,20.0,15.0,0.0
15965,63.0,3.0,20.0,10.0,0.0
15966,63.0,2.0,20.0,11.0,0.0
15967,51.0,8.0,20.0,12.0,0.0
15968,44.0,17.0,20.0,15.0,0.0
15969,63.0,3.0,20.0,10.0,0.0
15970,63.0,2.0,20.0,11.0,0.0
15971,51.0,9.0,20.0,12.0,0.0
15972,44.0,16.0,20.0,15.0,0.0
15973,60.0,3.0,20.0,10.0,0.0
15974,72.0,1.0,60.0,0.0,0.0
15975,72.0,0.0,60.0,1.0,0.0
15976,60.0,0.0,60.0,1.0,0.0
15977,60.0,0.0,60.0,4.0,0.0
15978,60.0,1.0,60.0,6.0,0.0
15979,60.0,2.0,20.0,11.0,0.0
15980,60.0,1.0,60.0,2.0,0.0
15981,48.0,1.0,60.0,5.0,0.0
15982,48.0,8.0,20.0,12.0,0.0
15983,36.0,1.0,60.0,13.0,0.0
15984,36.0,3.0,60.0,3.0,0.0
15985,44.0,17.0,20.0,15.0,0.0
15986,24.0,9.0,60.0,14.0,0.0
15987,60.0,3.0,20.0,10.0,0.0
15988,60.0,2.0,20.0,11.0,0.0
15989,48.0,6.0,20.0,12.0,0.0
15990,44.0,2.0,20.0,15.0,0.0
15991,60.0,3.0,20.0,10.0,0.0
15992,60.0,2.0,20.0,11.0,0.0
15993,48.0,13.0,20.0,12.0,0.0
15994,44.0,12.0,20.0,15.0,0.0
15995,60.0,3.0,20.0,10.0,0.0
15996,60.0,2.0,20.0,11.0,0.0
15997,48.0,9.0,20.0,12.0,0.0
15998,44.0,116.0,20.0,15.0,0.0
15999,56.0,1.0,120.0,10.0,0.0
16000,68.0,1.0,120.0,0.0,0.0
16001,56.0,0.0,120.0,6.0,0.0
16002,56.0,1.0,120.0,1.0,0.0
16003,68.0,0.0,120.0,1.0,0.0
16004,56.0,0.0,120.0,4.0,0.0
16005,56.0,0.0,120.0,11.0,0.0
16006,56.0,1.0,120.0,2.0,0.0
16007,44.0,1.0,120.0,5.0,0.0
16008,44.0,2.0,120.0,12.0,0.0
16009,32.0,1.0,120.0,13.0,0.0
16010,32.0,2.0,120.0,3.0,0.0
16011,44.0,1.0,120.0,15.0,0.0
16012,20.0,469.0,120.0,14.0,0.0
16013,63.0,1.0,120.0,10.0,0.0
16014,80.0,1.0,120.0,0.0,0.0
16015,72.0,0.0,120.0,1.0,0.0
16016,63.0,0.0,120.0,4.0,0.0
16017,56.0,0.0,120.0,6.0,0.0
16018,68.0,1.0,120.0,6.0,0.0
16019,68.0,0.0,120.0,1.0,0.0
16020,60.0,1.0,120.0,2.0,0.0
16021,68.0,0.0,120.0,2.0,0.0
16022,63.0,0.0,120.0,11.0,0.0
16023,56.0,1.0,120.0,5.0,0.0
16024,51.0,2.0,120.0,12.0,0.0
16025,44.0,1.0,120.0,13.0,0.0
16026,44.0,2.0,120.0,3.0,0.0
16027,44.0,1.0,120.0,15.0,0.0
16028,72.0,0.0,120.0,10.0,0.0
16029,80.0,0.0,120.0,10.0,0.0
16030,32.0,2.0,120.0,14.0,0.0
16031,72.0,2.0,120.0,11.0,0.0
16032,80.0,0.0,120.0,11.0,0.0
16033,68.0,465.0,120.0,12.0,0.0
16034,60.0,0.0,120.0,12.0,0.0
16035,51.0,1.0,120.0,10.0,0.0
16036,80.0,1.0,120.0,0.0,0.0
16037,56.0,0.0,120.0,4.0,0.0
16038,60.0,0.0,120.0,6.0,0.0
16039,68.0,1.0,120.0,6.0,0.0
16040,68.0,0.0,120.0,1.0,0.0
16041,72.0,0.0,120.0,1.0,0.0
16042,51.0,0.0,120.0,11.0,0.0
16043,60.0,1.0,120.0,2.0,0.0
16044,68.0,0.0,120.0,2.0,0.0
16045,44.0,1.0,120.0,5.0,0.0
16046,44.0,2.0,120.0,12.0,0.0
16047,44.0,1.0,120.0,13.0,0.0
16048,44.0,2.0,120.0,3.0,0.0
16049,68.0,0.0,120.0,10.0,0.0
16050,60.0,1.0,120.0,10.0,0.0
16051,44.0,0.0,120.0,15.0,0.0
16052,32.0,2.0,120.0,14.0,0.0
16053,60.0,467.0,120.0,11.0,0.0
16054,68.0,0.0,120.0,11.0,0.0
16055,51.0,1.0,120.0,10.0,0.0
16056,80.0,1.0,120.0,0.0,0.0
16057,68.0,0.0,120.0,1.0,0.0
16058,56.0,0.0,120.0,4.0,0.0
16059,72.0,1.0,120.0,1.0,0.0
16060,56.0,0.0,120.0,6.0,0.0
16061,68.0,0.0,120.0,2.0,0.0
16062,51.0,0.0,120.0,11.0,0.0
16063,60.0,1.0,120.0,2.0,0.0
16064,48.0,1.0,120.0,5.0,0.0
16065,44.0,2.0,120.0,12.0,0.0
16066,32.0,0.0,120.0,13.0,0.0
16067,44.0,1.0,120.0,13.0,0.0
16068,44.0,2.0,120.0,3.0,0.0
16069,44.0,1.0,120.0,15.0,0.0
16070,68.0,0.0,120.0,10.0,0.0
16071,60.0,0.0,120.0,10.0,0.0
16072,20.0,2.0,120.0,14.0,0.0
16073,32.0,0.0,120.0,14.0,0.0
16074,68.0,227.0,120.0,11.0,0.0
16075,60.0,0.0,120.0,11.0,0.0
16076,51.0,1.0,120.0,10.0,0.0
16077,80.0,1.0,120.0,0.0,0.0
16078,68.0,1.0,120.0,1.0,0.0
16079,56.0,0.0,120.0,4.0,0.0
16080,72.0,0.0,120.0,1.0,0.0
16081,56.0,0.0,120.0,6.0,0.0
16082,51.0,1.0,120.0,11.0,0.0
16083,60.0,0.0,120.0,2.0,0.0
16084,68.0,0.0,120.0,2.0,0.0
16085,48.0,1.0,120.0,5.0,0.0
16086,44.0,2.0,120.0,12.0,0.0
16087,44.0,0.0,120.0,13.0,0.0
16088,32.0,1.0,120.0,13.0,0.0
16089,44.0,2.0,120.0,3.0,0.0
16090,60.0,1.0,120.0,10.0,0.0
16091,44.0,0.0,120.0,15.0,0.0
16092,68.0,0.0,120.0,10.0,0.0
16093,20.0,2.0,120.0,14.0,0.0
16094,32.0,0.0,120.0,14.0,0.0
16095,68.0,0.0,120.0,11.0,0.0
16096,60.0,227.0,120.0,11.0,0.0
16097,51.0,1.0,120.0,10.0,0.0
16098,80.0,1.0,120.0,0.0,0.0
16099,72.0,0.0,120.0,1.0,0.0
16100,68.0,1.0,120.0,1.0,0.0
16101,56.0,0.0,120.0,6.0,0.0
16102,56.0,0.0,120.0,4.0,0.0
16103,68.0,0.0,120.0,2.0,0.0
16104,60.0,0.0,120.0,2.0,0.0
16105,51.0,1.0,120.0,11.0,0.0
16106,48.0,1.0,120.0,5.0,0.0
16107,44.0,2.0,120.0,12.0,0.0
16108,44.0,1.0,120.0,13.0,0.0
16109,32.0,0.0,120.0,13.0,0.0
16110,44.0,2.0,120.0,3.0,0.0
16111,60.0,0.0,120.0,10.0,0.0
16112,44.0,1.0,120.0,15.0,0.0
16113,68.0,0.0,120.0,10.0,0.0
16114,20.0,2.0,120.0,14.0,0.0
16115,32.0,0.0,120.0,14.0,0.0
16116,60.0,0.0,120.0,11.0,0.0
16117,68.0,358.0,120.0,11.0,0.0
