,note,step,duration,channel,velocity
0,44.0,0.0,480.0,2.0,0.0
1,68.0,480.0,480.0,0.0,0.0
2,60.0,0.0,480.0,1.0,0.0
3,63.0,0.0,480.0,1.0,0.0
4,48.0,0.0,480.0,2.0,0.0
5,68.0,480.0,480.0,0.0,0.0
6,65.0,0.0,480.0,1.0,0.0
7,49.0,0.0,480.0,2.0,0.0
8,70.0,720.0,480.0,0.0,0.0
9,67.0,0.0,720.0,0.0,0.0
10,58.0,240.0,720.0,1.0,0.0
11,51.0,0.0,720.0,2.0,0.0
12,68.0,0.0,240.0,0.0,0.0
13,53.0,0.0,240.0,2.0,0.0
14,63.0,420.0,15.0,1.0,0.0
15,70.0,7.0,420.0,0.0,0.0
16,55.0,0.0,420.0,2.0,0.0
17,56.0,480.0,480.0,2.0,0.0
18,72.0,0.0,480.0,0.0,0.0
19,63.0,0.0,480.0,1.0,0.0
20,72.0,480.0,480.0,0.0,0.0
21,68.0,0.0,15.0,1.0,0.0
22,53.0,0.0,480.0,2.0,0.0
23,65.0,0.0,15.0,1.0,0.0
24,70.0,0.0,480.0,1.0,0.0
25,49.0,480.0,480.0,2.0,0.0
26,73.0,0.0,480.0,0.0,0.0
27,72.0,240.0,720.0,0.0,0.0
28,68.0,240.0,480.0,1.0,0.0
29,63.0,0.0,480.0,1.0,0.0
30,51.0,0.0,480.0,2.0,0.0
31,52.0,0.0,480.0,2.0,0.0
32,61.0,420.0,480.0,2.0,0.0
33,67.0,0.0,480.0,1.0,0.0
34,70.0,0.0,240.0,0.0,0.0
35,68.0,8.0,420.0,0.0,0.0
36,65.0,7.0,420.0,1.0,0.0
37,53.0,285.0,420.0,2.0,0.0
38,60.0,0.0,420.0,2.0,0.0
39,49.0,480.0,480.0,2.0,0.0
40,72.0,240.0,240.0,0.0,0.0
41,65.0,0.0,480.0,1.0,0.0
42,61.0,0.0,480.0,1.0,0.0
43,70.0,0.0,240.0,0.0,0.0
44,63.0,0.0,480.0,1.0,0.0
45,68.0,0.0,480.0,0.0,0.0
46,51.0,480.0,480.0,2.0,0.0
47,60.0,0.0,480.0,1.0,0.0
48,58.0,0.0,480.0,1.0,0.0
49,67.0,310.0,480.0,0.0,0.0
50,39.0,0.0,480.0,2.0,0.0
51,60.0,0.0,570.0,1.0,0.0
52,63.0,0.0,15.0,1.0,0.0
53,68.0,227.0,570.0,0.0,0.0
54,44.0,265.0,300.0,2.0,0.0
55,39.0,352.0,330.0,2.0,0.0
56,32.0,766.0,180.0,2.0,0.0
57,60.0,480.0,480.0,1.0,0.0
58,44.0,0.0,480.0,2.0,0.0
59,68.0,0.0,480.0,0.0,0.0
60,63.0,0.0,480.0,1.0,0.0
61,48.0,0.0,480.0,2.0,0.0
62,68.0,480.0,480.0,0.0,0.0
63,49.0,0.0,480.0,2.0,0.0
64,65.0,0.0,480.0,1.0,0.0
65,70.0,720.0,480.0,0.0,0.0
66,67.0,0.0,720.0,0.0,0.0
67,58.0,240.0,720.0,1.0,0.0
68,51.0,0.0,720.0,2.0,0.0
69,53.0,0.0,240.0,2.0,0.0
70,63.0,0.0,240.0,1.0,0.0
71,68.0,420.0,240.0,0.0,0.0
72,55.0,0.0,420.0,2.0,0.0
73,63.0,533.0,420.0,1.0,0.0
74,70.0,7.0,420.0,0.0,0.0
75,63.0,480.0,480.0,1.0,0.0
76,56.0,0.0,480.0,2.0,0.0
77,68.0,0.0,480.0,1.0,0.0
78,72.0,0.0,480.0,0.0,0.0
79,72.0,0.0,480.0,0.0,0.0
80,53.0,0.0,480.0,2.0,0.0
81,65.0,480.0,480.0,1.0,0.0
82,68.0,0.0,480.0,1.0,0.0
83,49.0,0.0,480.0,2.0,0.0
84,73.0,0.0,480.0,0.0,0.0
85,70.0,480.0,480.0,1.0,0.0
86,65.0,0.0,480.0,1.0,0.0
87,51.0,240.0,480.0,2.0,0.0
88,63.0,0.0,480.0,1.0,0.0
89,68.0,0.0,480.0,1.0,0.0
90,72.0,240.0,720.0,0.0,0.0
91,52.0,0.0,480.0,2.0,0.0
92,61.0,420.0,480.0,2.0,0.0
93,67.0,0.0,480.0,1.0,0.0
94,70.0,0.0,240.0,0.0,0.0
95,65.0,7.0,420.0,1.0,0.0
96,68.0,0.0,420.0,0.0,0.0
97,60.0,8.0,420.0,2.0,0.0
98,53.0,285.0,420.0,2.0,0.0
99,65.0,0.0,480.0,1.0,0.0
100,61.0,0.0,480.0,1.0,0.0
101,49.0,0.0,480.0,2.0,0.0
102,72.0,240.0,240.0,0.0,0.0
103,70.0,480.0,240.0,0.0,0.0
104,51.0,480.0,480.0,2.0,0.0
105,60.0,0.0,480.0,1.0,0.0
106,68.0,0.0,480.0,0.0,0.0
107,67.0,0.0,480.0,0.0,0.0
108,63.0,0.0,15.0,1.0,0.0
109,58.0,0.0,480.0,1.0,0.0
110,39.0,310.0,480.0,2.0,0.0
111,68.0,0.0,570.0,0.0,0.0
112,44.0,265.0,300.0,2.0,0.0
113,60.0,215.0,570.0,1.0,0.0
114,63.0,0.0,570.0,1.0,0.0
115,32.0,170.0,300.0,2.0,0.0
116,70.0,240.0,240.0,0.0,0.0
117,72.0,240.0,240.0,0.0,0.0
118,73.0,480.0,240.0,0.0,0.0
119,75.0,480.0,480.0,0.0,0.0
120,72.0,0.0,480.0,1.0,0.0
121,44.0,0.0,480.0,2.0,0.0
122,48.0,0.0,480.0,2.0,0.0
123,63.0,0.0,15.0,1.0,0.0
124,75.0,0.0,480.0,0.0,0.0
125,72.0,0.0,480.0,1.0,0.0
126,51.0,0.0,480.0,2.0,0.0
127,63.0,480.0,15.0,1.0,0.0
128,75.0,0.0,15.0,0.0,0.0
129,72.0,480.0,15.0,1.0,0.0
130,56.0,240.0,480.0,2.0,0.0
131,44.0,0.0,480.0,2.0,0.0
132,70.0,0.0,240.0,1.0,0.0
133,63.0,240.0,15.0,1.0,0.0
134,73.0,0.0,240.0,0.0,0.0
135,63.0,420.0,15.0,1.0,0.0
136,72.0,0.0,420.0,0.0,0.0
137,68.0,15.0,420.0,1.0,0.0
138,39.0,0.0,480.0,2.0,0.0
139,70.0,0.0,15.0,1.0,0.0
140,63.0,480.0,15.0,1.0,0.0
141,73.0,0.0,15.0,0.0,0.0
142,43.0,0.0,480.0,2.0,0.0
143,73.0,0.0,15.0,0.0,0.0
144,63.0,480.0,15.0,1.0,0.0
145,46.0,0.0,480.0,2.0,0.0
146,73.0,0.0,15.0,0.0,0.0
147,63.0,480.0,15.0,1.0,0.0
148,70.0,0.0,15.0,1.0,0.0
149,51.0,240.0,480.0,2.0,0.0
150,39.0,420.0,480.0,2.0,0.0
151,68.0,0.0,240.0,1.0,0.0
152,63.0,0.0,15.0,1.0,0.0
153,72.0,0.0,240.0,0.0,0.0
154,70.0,533.0,420.0,0.0,0.0
155,63.0,7.0,420.0,1.0,0.0
156,67.0,0.0,420.0,1.0,0.0
157,72.0,0.0,480.0,0.0,0.0
158,68.0,0.0,480.0,1.0,0.0
159,63.0,0.0,480.0,1.0,0.0
160,44.0,240.0,480.0,2.0,0.0
161,65.0,240.0,240.0,1.0,0.0
162,73.0,0.0,240.0,0.0,0.0
163,63.0,240.0,240.0,1.0,0.0
164,72.0,0.0,240.0,0.0,0.0
165,56.0,0.0,15.0,2.0,0.0
166,61.0,240.0,240.0,1.0,0.0
167,70.0,0.0,240.0,0.0,0.0
168,60.0,720.0,240.0,1.0,0.0
169,68.0,0.0,240.0,0.0,0.0
170,72.0,0.0,720.0,0.0,0.0
171,56.0,240.0,720.0,2.0,0.0
172,63.0,0.0,720.0,1.0,0.0
173,73.0,0.0,240.0,0.0,0.0
174,68.0,0.0,15.0,1.0,0.0
175,61.0,0.0,240.0,1.0,0.0
176,53.0,420.0,240.0,2.0,0.0
177,75.0,7.0,420.0,0.0,0.0
178,63.0,8.0,420.0,1.0,0.0
179,68.0,0.0,15.0,1.0,0.0
180,48.0,160.0,480.0,2.0,0.0
181,49.0,80.0,240.0,2.0,0.0
182,77.0,80.0,150.0,0.0,0.0
183,75.0,160.0,150.0,0.0,0.0
184,46.0,480.0,240.0,2.0,0.0
185,73.0,0.0,150.0,0.0,0.0
186,68.0,0.0,480.0,1.0,0.0
187,63.0,480.0,480.0,1.0,0.0
188,72.0,0.0,480.0,0.0,0.0
189,51.0,0.0,480.0,2.0,0.0
190,70.0,0.0,480.0,0.0,0.0
191,39.0,0.0,480.0,2.0,0.0
192,67.0,310.0,480.0,1.0,0.0
193,61.0,0.0,480.0,1.0,0.0
194,68.0,310.0,480.0,0.0,0.0
195,63.0,0.0,480.0,1.0,0.0
196,44.0,170.0,300.0,2.0,0.0
197,60.0,0.0,480.0,1.0,0.0
198,39.0,314.0,300.0,2.0,0.0
199,32.0,576.0,150.0,2.0,0.0
200,68.0,240.0,240.0,0.0,0.0
201,67.0,240.0,240.0,0.0,0.0
202,68.0,0.0,480.0,0.0,0.0
203,60.0,240.0,240.0,1.0,0.0
204,53.0,0.0,480.0,2.0,0.0
205,65.0,240.0,240.0,1.0,0.0
206,61.0,240.0,240.0,1.0,0.0
207,70.0,0.0,480.0,0.0,0.0
208,46.0,0.0,240.0,2.0,0.0
209,49.0,0.0,240.0,2.0,0.0
210,65.0,240.0,240.0,1.0,0.0
211,58.0,240.0,240.0,1.0,0.0
212,67.0,0.0,720.0,0.0,0.0
213,51.0,240.0,720.0,2.0,0.0
214,62.0,240.0,240.0,1.0,0.0
215,63.0,0.0,960.0,1.0,0.0
216,53.0,240.0,240.0,2.0,0.0
217,68.0,0.0,240.0,0.0,0.0
218,55.0,0.0,240.0,2.0,0.0
219,70.0,240.0,240.0,0.0,0.0
220,51.0,240.0,240.0,2.0,0.0
221,67.0,0.0,240.0,0.0,0.0
222,72.0,0.0,240.0,0.0,0.0
223,56.0,240.0,240.0,2.0,0.0
224,55.0,0.0,240.0,2.0,0.0
225,71.0,240.0,240.0,0.0,0.0
226,56.0,240.0,240.0,2.0,0.0
227,72.0,240.0,480.0,0.0,0.0
228,53.0,0.0,240.0,2.0,0.0
229,69.0,0.0,240.0,1.0,0.0
230,72.0,0.0,240.0,1.0,0.0
231,75.0,240.0,240.0,0.0,0.0
232,46.0,0.0,240.0,2.0,0.0
233,49.0,240.0,240.0,2.0,0.0
234,70.0,0.0,480.0,1.0,0.0
235,73.0,240.0,480.0,0.0,0.0
236,51.0,240.0,480.0,2.0,0.0
237,72.0,0.0,480.0,0.0,0.0
238,68.0,240.0,480.0,1.0,0.0
239,49.0,0.0,480.0,2.0,0.0
240,70.0,240.0,240.0,0.0,0.0
241,67.0,0.0,240.0,1.0,0.0
242,68.0,240.0,240.0,0.0,0.0
243,48.0,0.0,480.0,2.0,0.0
244,63.0,0.0,15.0,1.0,0.0
245,69.0,240.0,240.0,0.0,0.0
246,66.0,0.0,240.0,1.0,0.0
247,72.0,120.0,240.0,0.0,0.0
248,53.0,0.0,240.0,2.0,0.0
249,70.0,120.0,120.0,0.0,0.0
250,49.0,240.0,240.0,2.0,0.0
251,70.0,120.0,240.0,0.0,0.0
252,60.0,0.0,240.0,2.0,0.0
253,68.0,120.0,120.0,0.0,0.0
254,51.0,240.0,240.0,2.0,0.0
255,56.0,0.0,240.0,2.0,0.0
256,68.0,120.0,240.0,0.0,0.0
257,61.0,0.0,240.0,2.0,0.0
258,67.0,120.0,120.0,0.0,0.0
259,51.0,240.0,240.0,2.0,0.0
260,58.0,0.0,240.0,2.0,0.0
261,56.0,240.0,480.0,2.0,0.0
262,60.0,0.0,480.0,2.0,0.0
263,68.0,240.0,240.0,0.0,0.0
264,60.0,0.0,240.0,0.0,0.0
265,61.0,240.0,240.0,0.0,0.0
266,63.0,240.0,240.0,0.0,0.0
267,60.0,0.0,240.0,2.0,0.0
268,65.0,240.0,240.0,0.0,0.0
269,61.0,0.0,240.0,2.0,0.0
270,58.0,0.0,240.0,2.0,0.0
271,67.0,240.0,240.0,0.0,0.0
272,68.0,0.0,240.0,0.0,0.0
273,56.0,240.0,240.0,2.0,0.0
274,67.0,240.0,240.0,0.0,0.0
275,52.0,0.0,240.0,2.0,0.0
276,60.0,240.0,240.0,1.0,0.0
277,53.0,0.0,480.0,2.0,0.0
278,68.0,240.0,480.0,0.0,0.0
279,65.0,0.0,240.0,1.0,0.0
280,46.0,0.0,240.0,2.0,0.0
281,61.0,240.0,240.0,1.0,0.0
282,70.0,240.0,480.0,0.0,0.0
283,65.0,0.0,240.0,1.0,0.0
284,49.0,0.0,240.0,2.0,0.0
285,58.0,240.0,240.0,1.0,0.0
286,67.0,240.0,720.0,0.0,0.0
287,51.0,0.0,720.0,2.0,0.0
288,62.0,240.0,240.0,1.0,0.0
289,63.0,0.0,960.0,1.0,0.0
290,53.0,0.0,240.0,2.0,0.0
291,68.0,240.0,240.0,0.0,0.0
292,55.0,240.0,240.0,2.0,0.0
293,70.0,0.0,240.0,0.0,0.0
294,51.0,240.0,240.0,2.0,0.0
295,67.0,0.0,240.0,0.0,0.0
296,56.0,240.0,240.0,2.0,0.0
297,72.0,0.0,240.0,0.0,0.0
298,55.0,0.0,240.0,2.0,0.0
299,71.0,240.0,240.0,0.0,0.0
300,72.0,0.0,480.0,0.0,0.0
301,56.0,240.0,240.0,2.0,0.0
302,53.0,0.0,240.0,2.0,0.0
303,69.0,240.0,240.0,1.0,0.0
304,46.0,0.0,240.0,2.0,0.0
305,72.0,0.0,240.0,1.0,0.0
306,75.0,240.0,240.0,0.0,0.0
307,49.0,240.0,240.0,2.0,0.0
308,70.0,240.0,480.0,1.0,0.0
309,73.0,0.0,480.0,0.0,0.0
310,51.0,240.0,480.0,2.0,0.0
311,72.0,0.0,480.0,0.0,0.0
312,68.0,240.0,480.0,1.0,0.0
313,49.0,0.0,480.0,2.0,0.0
314,70.0,240.0,240.0,0.0,0.0
315,67.0,0.0,240.0,1.0,0.0
316,48.0,0.0,480.0,2.0,0.0
317,68.0,240.0,240.0,0.0,0.0
318,63.0,0.0,15.0,1.0,0.0
319,66.0,240.0,240.0,1.0,0.0
320,69.0,0.0,240.0,0.0,0.0
321,72.0,120.0,240.0,0.0,0.0
322,70.0,120.0,120.0,0.0,0.0
323,49.0,0.0,240.0,2.0,0.0
324,53.0,240.0,240.0,2.0,0.0
325,70.0,120.0,240.0,0.0,0.0
326,56.0,240.0,240.0,2.0,0.0
327,68.0,120.0,120.0,0.0,0.0
328,51.0,0.0,240.0,2.0,0.0
329,60.0,0.0,240.0,2.0,0.0
330,68.0,120.0,240.0,0.0,0.0
331,61.0,0.0,240.0,2.0,0.0
332,67.0,120.0,120.0,0.0,0.0
333,58.0,0.0,240.0,2.0,0.0
334,51.0,240.0,240.0,2.0,0.0
335,68.0,240.0,240.0,0.0,0.0
336,60.0,0.0,480.0,2.0,0.0
337,56.0,240.0,480.0,2.0,0.0
338,67.0,0.0,240.0,0.0,0.0
339,68.0,240.0,240.0,0.0,0.0
340,55.0,0.0,240.0,2.0,0.0
341,70.0,240.0,240.0,0.0,0.0
342,72.0,0.0,240.0,0.0,0.0
343,56.0,240.0,240.0,2.0,0.0
344,58.0,0.0,240.0,2.0,0.0
345,73.0,240.0,240.0,0.0,0.0
346,75.0,0.0,480.0,0.0,0.0
347,60.0,240.0,240.0,2.0,0.0
348,74.0,240.0,240.0,1.0,0.0
349,59.0,0.0,240.0,2.0,0.0
350,75.0,0.0,480.0,0.0,0.0
351,60.0,240.0,240.0,2.0,0.0
352,58.0,240.0,240.0,2.0,0.0
353,73.0,0.0,240.0,1.0,0.0
354,72.0,0.0,240.0,1.0,0.0
355,56.0,240.0,240.0,2.0,0.0
356,75.0,0.0,480.0,0.0,0.0
357,54.0,0.0,240.0,2.0,0.0
358,70.0,240.0,240.0,1.0,0.0
359,53.0,0.0,960.0,2.0,0.0
360,75.0,0.0,720.0,0.0,0.0
361,69.0,240.0,240.0,1.0,0.0
362,58.0,0.0,240.0,2.0,0.0
363,66.0,240.0,240.0,1.0,0.0
364,57.0,0.0,240.0,2.0,0.0
365,65.0,240.0,240.0,1.0,0.0
366,65.0,0.0,240.0,2.0,0.0
367,73.0,240.0,240.0,0.0,0.0
368,70.0,0.0,480.0,1.0,0.0
369,64.0,240.0,240.0,2.0,0.0
370,72.0,240.0,480.0,0.0,0.0
371,69.0,0.0,240.0,1.0,0.0
372,63.0,0.0,240.0,2.0,0.0
373,53.0,0.0,240.0,2.0,0.0
374,61.0,0.0,240.0,2.0,0.0
375,73.0,0.0,480.0,0.0,0.0
376,58.0,240.0,240.0,2.0,0.0
377,57.0,0.0,240.0,2.0,0.0
378,72.0,240.0,240.0,1.0,0.0
379,58.0,240.0,240.0,2.0,0.0
380,56.0,0.0,240.0,2.0,0.0
381,72.0,240.0,240.0,1.0,0.0
382,55.0,0.0,240.0,2.0,0.0
383,73.0,0.0,15.0,0.0,0.0
384,70.0,240.0,240.0,1.0,0.0
385,52.0,240.0,240.0,2.0,0.0
386,68.0,0.0,240.0,1.0,0.0
387,67.0,240.0,240.0,1.0,0.0
388,73.0,0.0,720.0,0.0,0.0
389,51.0,0.0,960.0,2.0,0.0
390,64.0,0.0,240.0,1.0,0.0
391,56.0,240.0,240.0,2.0,0.0
392,55.0,240.0,240.0,2.0,0.0
393,63.0,0.0,240.0,1.0,0.0
394,72.0,240.0,240.0,0.0,0.0
395,68.0,0.0,480.0,1.0,0.0
396,63.0,0.0,240.0,2.0,0.0
397,62.0,240.0,240.0,2.0,0.0
398,70.0,0.0,480.0,0.0,0.0
399,67.0,480.0,240.0,1.0,0.0
400,61.0,0.0,240.0,2.0,0.0
401,51.0,0.0,240.0,2.0,0.0
402,56.0,0.0,960.0,2.0,0.0
403,68.0,0.0,480.0,1.0,0.0
404,72.0,0.0,480.0,0.0,0.0
405,67.0,240.0,240.0,2.0,0.0
406,65.0,0.0,240.0,2.0,0.0
407,68.0,0.0,240.0,1.0,0.0
408,73.0,240.0,240.0,0.0,0.0
409,63.0,0.0,240.0,2.0,0.0
410,67.0,0.0,240.0,1.0,0.0
411,72.0,240.0,240.0,0.0,0.0
412,70.0,0.0,240.0,0.0,0.0
413,61.0,240.0,240.0,2.0,0.0
414,65.0,0.0,240.0,1.0,0.0
415,60.0,0.0,240.0,2.0,0.0
416,68.0,0.0,240.0,0.0,0.0
417,63.0,240.0,240.0,1.0,0.0
418,65.0,240.0,240.0,2.0,0.0
419,68.0,0.0,480.0,1.0,0.0
420,72.0,0.0,480.0,0.0,0.0
421,63.0,240.0,240.0,2.0,0.0
422,61.0,240.0,240.0,2.0,0.0
423,70.0,240.0,240.0,1.0,0.0
424,73.0,0.0,240.0,0.0,0.0
425,60.0,0.0,240.0,2.0,0.0
426,75.0,0.0,240.0,0.0,0.0
427,58.0,0.0,240.0,2.0,0.0
428,72.0,240.0,15.0,1.0,0.0
429,56.0,240.0,480.0,2.0,0.0
430,76.0,240.0,240.0,0.0,0.0
431,73.0,0.0,240.0,1.0,0.0
432,77.0,0.0,240.0,0.0,0.0
433,49.0,0.0,480.0,2.0,0.0
434,70.0,120.0,480.0,1.0,0.0
435,58.0,240.0,240.0,2.0,0.0
436,73.0,0.0,480.0,0.0,0.0
437,51.0,0.0,720.0,2.0,0.0
438,72.0,0.0,480.0,0.0,0.0
439,68.0,240.0,480.0,1.0,0.0
440,60.0,120.0,120.0,2.0,0.0
441,62.0,240.0,120.0,2.0,0.0
442,63.0,0.0,240.0,2.0,0.0
443,67.0,0.0,720.0,1.0,0.0
444,70.0,155.0,720.0,0.0,0.0
445,39.0,155.0,240.0,2.0,0.0
446,61.0,0.0,720.0,1.0,0.0
447,44.0,240.0,150.0,2.0,0.0
448,51.0,85.0,150.0,2.0,0.0
449,60.0,0.0,240.0,1.0,0.0
450,63.0,0.0,240.0,1.0,0.0
451,68.0,120.0,240.0,0.0,0.0
452,56.0,85.0,150.0,2.0,0.0
453,51.0,120.0,120.0,2.0,0.0
454,55.0,120.0,120.0,2.0,0.0
455,53.0,120.0,120.0,2.0,0.0
456,56.0,120.0,120.0,2.0,0.0
457,55.0,120.0,120.0,2.0,0.0
458,58.0,120.0,120.0,2.0,0.0
459,56.0,120.0,120.0,2.0,0.0
460,55.0,120.0,120.0,2.0,0.0
461,53.0,120.0,120.0,2.0,0.0
462,55.0,96.0,120.0,2.0,0.0
463,56.0,144.0,90.0,2.0,0.0
464,60.0,96.0,120.0,0.0,0.0
465,57.0,24.0,90.0,2.0,0.0
466,65.0,120.0,120.0,0.0,0.0
467,63.0,96.0,120.0,0.0,0.0
468,58.0,24.0,90.0,2.0,0.0
469,61.0,120.0,120.0,0.0,0.0
470,65.0,96.0,120.0,0.0,0.0
471,70.0,120.0,120.0,0.0,0.0
472,50.0,24.0,90.0,2.0,0.0
473,68.0,120.0,120.0,0.0,0.0
474,67.0,120.0,120.0,0.0,0.0
475,65.0,120.0,120.0,0.0,0.0
476,63.0,120.0,120.0,0.0,0.0
477,65.0,120.0,120.0,0.0,0.0
478,67.0,120.0,120.0,0.0,0.0
479,65.0,120.0,120.0,0.0,0.0
480,51.0,0.0,15.0,2.0,0.0
481,67.0,120.0,120.0,0.0,0.0
482,68.0,0.0,120.0,0.0,0.0
483,53.0,120.0,120.0,2.0,0.0
484,70.0,120.0,120.0,0.0,0.0
485,55.0,0.0,120.0,2.0,0.0
486,67.0,0.0,120.0,0.0,0.0
487,51.0,120.0,120.0,2.0,0.0
488,68.0,120.0,120.0,0.0,0.0
489,53.0,0.0,120.0,2.0,0.0
490,55.0,120.0,120.0,2.0,0.0
491,70.0,0.0,120.0,0.0,0.0
492,56.0,120.0,120.0,2.0,0.0
493,72.0,0.0,120.0,0.0,0.0
494,70.0,0.0,120.0,0.0,0.0
495,55.0,120.0,120.0,2.0,0.0
496,53.0,120.0,120.0,2.0,0.0
497,68.0,0.0,120.0,0.0,0.0
498,70.0,0.0,120.0,0.0,0.0
499,55.0,120.0,120.0,2.0,0.0
500,56.0,120.0,120.0,2.0,0.0
501,72.0,0.0,120.0,0.0,0.0
502,70.0,0.0,120.0,0.0,0.0
503,55.0,120.0,120.0,2.0,0.0
504,56.0,120.0,120.0,2.0,0.0
505,72.0,0.0,120.0,0.0,0.0
506,68.0,0.0,120.0,0.0,0.0
507,53.0,120.0,120.0,2.0,0.0
508,65.0,0.0,120.0,0.0,0.0
509,49.0,120.0,120.0,2.0,0.0
510,73.0,0.0,120.0,0.0,0.0
511,53.0,120.0,120.0,2.0,0.0
512,75.0,0.0,120.0,0.0,0.0
513,46.0,120.0,120.0,2.0,0.0
514,58.0,120.0,120.0,2.0,0.0
515,73.0,0.0,120.0,0.0,0.0
516,63.0,0.0,120.0,0.0,0.0
517,51.0,120.0,120.0,2.0,0.0
518,72.0,120.0,120.0,0.0,0.0
519,56.0,0.0,120.0,2.0,0.0
520,51.0,120.0,120.0,2.0,0.0
521,73.0,0.0,120.0,0.0,0.0
522,72.0,120.0,120.0,0.0,0.0
523,56.0,0.0,120.0,2.0,0.0
524,61.0,120.0,120.0,0.0,0.0
525,52.0,0.0,120.0,2.0,0.0
526,55.0,0.0,120.0,2.0,0.0
527,70.0,120.0,120.0,0.0,0.0
528,52.0,120.0,120.0,2.0,0.0
529,72.0,0.0,120.0,0.0,0.0
530,70.0,120.0,120.0,0.0,0.0
531,55.0,0.0,120.0,2.0,0.0
532,53.0,0.0,120.0,2.0,0.0
533,60.0,120.0,120.0,0.0,0.0
534,56.0,0.0,120.0,2.0,0.0
535,68.0,120.0,120.0,0.0,0.0
536,51.0,0.0,120.0,2.0,0.0
537,60.0,120.0,120.0,0.0,0.0
538,54.0,0.0,120.0,2.0,0.0
539,69.0,120.0,120.0,0.0,0.0
540,49.0,0.0,120.0,2.0,0.0
541,61.0,120.0,120.0,0.0,0.0
542,53.0,0.0,120.0,2.0,0.0
543,70.0,120.0,120.0,0.0,0.0
544,72.0,0.0,120.0,0.0,0.0
545,46.0,120.0,120.0,2.0,0.0
546,70.0,120.0,120.0,0.0,0.0
547,49.0,0.0,120.0,2.0,0.0
548,39.0,96.0,270.0,2.0,0.0
549,60.0,120.0,120.0,0.0,0.0
550,68.0,0.0,120.0,0.0,0.0
551,44.0,24.0,120.0,2.0,0.0
552,70.0,120.0,120.0,0.0,0.0
553,48.0,0.0,120.0,2.0,0.0
554,51.0,120.0,120.0,2.0,0.0
555,68.0,0.0,120.0,0.0,0.0
556,39.0,96.0,270.0,2.0,0.0
557,58.0,120.0,120.0,0.0,0.0
558,46.0,24.0,120.0,2.0,0.0
559,67.0,0.0,120.0,0.0,0.0
560,68.0,0.0,120.0,0.0,0.0
561,49.0,120.0,120.0,2.0,0.0
562,67.0,0.0,120.0,0.0,0.0
563,51.0,120.0,120.0,2.0,0.0
564,60.0,120.0,120.0,0.0,0.0
565,44.0,120.0,480.0,2.0,0.0
566,48.0,0.0,480.0,2.0,0.0
567,68.0,120.0,120.0,0.0,0.0
568,67.0,120.0,120.0,0.0,0.0
569,68.0,0.0,120.0,0.0,0.0
570,63.0,120.0,120.0,3.0,0.0
571,68.0,120.0,120.0,0.0,0.0
572,51.0,120.0,240.0,2.0,0.0
573,61.0,120.0,120.0,3.0,0.0
574,68.0,0.0,120.0,0.0,0.0
575,60.0,120.0,120.0,3.0,0.0
576,53.0,0.0,240.0,2.0,0.0
577,68.0,120.0,120.0,0.0,0.0
578,55.0,120.0,240.0,2.0,0.0
579,58.0,120.0,120.0,3.0,0.0
580,68.0,0.0,120.0,0.0,0.0
581,56.0,120.0,120.0,2.0,0.0
582,55.0,120.0,120.0,2.0,0.0
583,53.0,120.0,120.0,2.0,0.0
584,55.0,96.0,120.0,2.0,0.0
585,56.0,144.0,90.0,2.0,0.0
586,60.0,96.0,120.0,0.0,0.0
587,65.0,120.0,120.0,0.0,0.0
588,57.0,24.0,90.0,2.0,0.0
589,63.0,96.0,120.0,0.0,0.0
590,58.0,24.0,90.0,2.0,0.0
591,61.0,120.0,120.0,0.0,0.0
592,65.0,96.0,120.0,0.0,0.0
593,70.0,120.0,120.0,0.0,0.0
594,50.0,24.0,90.0,2.0,0.0
595,68.0,120.0,120.0,0.0,0.0
596,67.0,120.0,120.0,0.0,0.0
597,65.0,120.0,120.0,0.0,0.0
598,63.0,120.0,120.0,0.0,0.0
599,65.0,120.0,120.0,0.0,0.0
600,67.0,120.0,120.0,0.0,0.0
601,65.0,0.0,120.0,0.0,0.0
602,67.0,0.0,120.0,0.0,0.0
603,51.0,120.0,15.0,2.0,0.0
604,68.0,120.0,120.0,0.0,0.0
605,53.0,0.0,120.0,2.0,0.0
606,55.0,0.0,120.0,2.0,0.0
607,70.0,120.0,120.0,0.0,0.0
608,51.0,120.0,120.0,2.0,0.0
609,67.0,0.0,120.0,0.0,0.0
610,68.0,0.0,120.0,0.0,0.0
611,53.0,120.0,120.0,2.0,0.0
612,70.0,120.0,120.0,0.0,0.0
613,55.0,0.0,120.0,2.0,0.0
614,72.0,120.0,120.0,0.0,0.0
615,56.0,0.0,120.0,2.0,0.0
616,70.0,0.0,120.0,0.0,0.0
617,55.0,120.0,120.0,2.0,0.0
618,68.0,120.0,120.0,0.0,0.0
619,53.0,0.0,120.0,2.0,0.0
620,55.0,120.0,120.0,2.0,0.0
621,70.0,0.0,120.0,0.0,0.0
622,72.0,0.0,120.0,0.0,0.0
623,56.0,120.0,120.0,2.0,0.0
624,70.0,0.0,120.0,0.0,0.0
625,55.0,120.0,120.0,2.0,0.0
626,56.0,0.0,120.0,2.0,0.0
627,72.0,120.0,120.0,0.0,0.0
628,53.0,0.0,120.0,2.0,0.0
629,68.0,120.0,120.0,0.0,0.0
630,49.0,120.0,120.0,2.0,0.0
631,65.0,0.0,120.0,0.0,0.0
632,53.0,0.0,120.0,2.0,0.0
633,73.0,120.0,120.0,0.0,0.0
634,46.0,120.0,120.0,2.0,0.0
635,75.0,0.0,120.0,0.0,0.0
636,73.0,0.0,120.0,0.0,0.0
637,58.0,120.0,120.0,2.0,0.0
638,63.0,120.0,120.0,0.0,0.0
639,51.0,0.0,120.0,2.0,0.0
640,56.0,0.0,120.0,2.0,0.0
641,72.0,120.0,120.0,0.0,0.0
642,51.0,120.0,120.0,2.0,0.0
643,73.0,0.0,120.0,0.0,0.0
644,72.0,0.0,120.0,0.0,0.0
645,56.0,120.0,120.0,2.0,0.0
646,61.0,0.0,120.0,0.0,0.0
647,52.0,120.0,120.0,2.0,0.0
648,70.0,0.0,120.0,0.0,0.0
649,55.0,120.0,120.0,2.0,0.0
650,52.0,0.0,120.0,2.0,0.0
651,72.0,120.0,120.0,0.0,0.0
652,55.0,0.0,120.0,2.0,0.0
653,70.0,120.0,120.0,0.0,0.0
654,53.0,0.0,120.0,2.0,0.0
655,60.0,120.0,120.0,0.0,0.0
656,56.0,0.0,120.0,2.0,0.0
657,68.0,120.0,120.0,0.0,0.0
658,51.0,0.0,120.0,2.0,0.0
659,60.0,120.0,120.0,0.0,0.0
660,54.0,120.0,120.0,2.0,0.0
661,69.0,0.0,120.0,0.0,0.0
662,61.0,0.0,120.0,0.0,0.0
663,49.0,120.0,120.0,2.0,0.0
664,70.0,0.0,120.0,0.0,0.0
665,53.0,120.0,120.0,2.0,0.0
666,72.0,120.0,120.0,0.0,0.0
667,46.0,0.0,120.0,2.0,0.0
668,49.0,120.0,120.0,2.0,0.0
669,70.0,0.0,120.0,0.0,0.0
670,60.0,120.0,120.0,0.0,0.0
671,39.0,96.0,270.0,2.0,0.0
672,68.0,0.0,120.0,0.0,0.0
673,44.0,24.0,120.0,2.0,0.0
674,70.0,120.0,120.0,0.0,0.0
675,48.0,0.0,120.0,2.0,0.0
676,68.0,0.0,120.0,0.0,0.0
677,51.0,120.0,120.0,2.0,0.0
678,58.0,120.0,120.0,0.0,0.0
679,39.0,96.0,270.0,2.0,0.0
680,46.0,0.0,120.0,2.0,0.0
681,67.0,24.0,120.0,0.0,0.0
682,49.0,0.0,120.0,2.0,0.0
683,68.0,120.0,120.0,0.0,0.0
684,51.0,0.0,120.0,2.0,0.0
685,67.0,120.0,120.0,0.0,0.0
686,44.0,0.0,480.0,2.0,0.0
687,48.0,120.0,480.0,2.0,0.0
688,60.0,120.0,120.0,0.0,0.0
689,68.0,120.0,120.0,0.0,0.0
690,67.0,120.0,120.0,0.0,0.0
691,68.0,0.0,120.0,0.0,0.0
692,67.0,120.0,120.0,0.0,0.0
693,68.0,120.0,120.0,0.0,0.0
694,55.0,0.0,120.0,2.0,0.0
695,70.0,120.0,120.0,0.0,0.0
696,63.0,120.0,120.0,3.0,0.0
697,72.0,0.0,120.0,0.0,0.0
698,56.0,120.0,120.0,2.0,0.0
699,63.0,120.0,120.0,3.0,0.0
700,73.0,0.0,120.0,0.0,0.0
701,58.0,120.0,120.0,2.0,0.0
702,63.0,96.0,120.0,3.0,0.0
703,75.0,24.0,90.0,0.0,0.0
704,60.0,96.0,120.0,2.0,0.0
705,63.0,120.0,90.0,3.0,0.0
706,56.0,96.0,120.0,2.0,0.0
707,72.0,24.0,90.0,0.0,0.0
708,63.0,120.0,90.0,3.0,0.0
709,51.0,96.0,120.0,2.0,0.0
710,68.0,24.0,90.0,0.0,0.0
711,63.0,120.0,90.0,3.0,0.0
712,56.0,96.0,120.0,2.0,0.0
713,72.0,24.0,90.0,0.0,0.0
714,63.0,120.0,90.0,3.0,0.0
715,75.0,24.0,90.0,0.0,0.0
716,60.0,96.0,120.0,2.0,0.0
717,63.0,120.0,90.0,3.0,0.0
718,59.0,96.0,120.0,2.0,0.0
719,74.0,24.0,90.0,0.0,0.0
720,63.0,120.0,90.0,3.0,0.0
721,60.0,96.0,120.0,2.0,0.0
722,75.0,24.0,90.0,0.0,0.0
723,63.0,120.0,90.0,3.0,0.0
724,56.0,96.0,120.0,2.0,0.0
725,72.0,24.0,90.0,0.0,0.0
726,63.0,120.0,90.0,3.0,0.0
727,68.0,24.0,90.0,0.0,0.0
728,51.0,96.0,120.0,2.0,0.0
729,63.0,120.0,90.0,3.0,0.0
730,60.0,96.0,120.0,2.0,0.0
731,75.0,24.0,90.0,0.0,0.0
732,63.0,120.0,90.0,3.0,0.0
733,58.0,96.0,120.0,2.0,0.0
734,73.0,24.0,90.0,0.0,0.0
735,63.0,120.0,90.0,3.0,0.0
736,56.0,96.0,120.0,2.0,0.0
737,72.0,24.0,90.0,0.0,0.0
738,63.0,120.0,90.0,3.0,0.0
739,58.0,96.0,120.0,2.0,0.0
740,73.0,24.0,90.0,0.0,0.0
741,63.0,120.0,90.0,3.0,0.0
742,55.0,96.0,120.0,2.0,0.0
743,70.0,24.0,90.0,0.0,0.0
744,63.0,120.0,90.0,3.0,0.0
745,51.0,96.0,120.0,2.0,0.0
746,67.0,24.0,90.0,0.0,0.0
747,63.0,120.0,90.0,3.0,0.0
748,55.0,96.0,120.0,2.0,0.0
749,70.0,24.0,90.0,0.0,0.0
750,63.0,120.0,90.0,3.0,0.0
751,58.0,96.0,120.0,2.0,0.0
752,73.0,24.0,90.0,0.0,0.0
753,63.0,120.0,90.0,3.0,0.0
754,72.0,24.0,90.0,0.0,0.0
755,57.0,96.0,120.0,2.0,0.0
756,63.0,120.0,90.0,3.0,0.0
757,58.0,96.0,120.0,2.0,0.0
758,73.0,24.0,90.0,0.0,0.0
759,63.0,120.0,90.0,3.0,0.0
760,55.0,96.0,120.0,2.0,0.0
761,70.0,24.0,90.0,0.0,0.0
762,63.0,120.0,90.0,3.0,0.0
763,67.0,24.0,90.0,0.0,0.0
764,51.0,96.0,120.0,2.0,0.0
765,63.0,120.0,90.0,3.0,0.0
766,73.0,24.0,90.0,0.0,0.0
767,58.0,96.0,120.0,2.0,0.0
768,63.0,120.0,90.0,3.0,0.0
769,56.0,96.0,120.0,2.0,0.0
770,72.0,24.0,90.0,0.0,0.0
771,63.0,120.0,90.0,3.0,0.0
772,55.0,96.0,120.0,2.0,0.0
773,71.0,24.0,90.0,0.0,0.0
774,63.0,144.0,90.0,3.0,0.0
775,56.0,120.0,120.0,2.0,0.0
776,72.0,0.0,120.0,0.0,0.0
777,71.0,120.0,120.0,0.0,0.0
778,55.0,0.0,120.0,2.0,0.0
779,72.0,0.0,120.0,0.0,0.0
780,53.0,120.0,120.0,2.0,0.0
781,68.0,0.0,120.0,0.0,0.0
782,51.0,120.0,120.0,2.0,0.0
783,73.0,0.0,120.0,0.0,0.0
784,53.0,120.0,120.0,2.0,0.0
785,51.0,120.0,120.0,2.0,0.0
786,72.0,0.0,120.0,0.0,0.0
787,70.0,0.0,120.0,0.0,0.0
788,49.0,120.0,120.0,2.0,0.0
789,68.0,0.0,120.0,0.0,0.0
790,48.0,120.0,120.0,2.0,0.0
791,77.0,0.0,120.0,0.0,0.0
792,49.0,120.0,120.0,2.0,0.0
793,75.0,0.0,120.0,0.0,0.0
794,48.0,120.0,120.0,2.0,0.0
795,73.0,120.0,120.0,0.0,0.0
796,46.0,0.0,120.0,2.0,0.0
797,44.0,120.0,120.0,2.0,0.0
798,72.0,0.0,120.0,0.0,0.0
799,44.0,0.0,720.0,2.0,0.0
800,80.0,120.0,120.0,0.0,0.0
801,48.0,120.0,720.0,2.0,0.0
802,79.0,120.0,120.0,0.0,0.0
803,80.0,120.0,120.0,0.0,0.0
804,68.0,120.0,120.0,3.0,0.0
805,80.0,120.0,120.0,0.0,0.0
806,68.0,0.0,120.0,3.0,0.0
807,79.0,32.0,120.0,0.0,0.0
808,46.0,88.0,150.0,2.0,0.0
809,49.0,0.0,150.0,2.0,0.0
810,68.0,120.0,120.0,3.0,0.0
811,78.0,32.0,120.0,0.0,0.0
812,48.0,0.0,150.0,2.0,0.0
813,51.0,88.0,150.0,2.0,0.0
814,68.0,120.0,120.0,3.0,0.0
815,56.0,120.0,360.0,2.0,0.0
816,48.0,88.0,150.0,2.0,0.0
817,76.0,32.0,120.0,0.0,0.0
818,68.0,120.0,120.0,3.0,0.0
819,49.0,0.0,120.0,2.0,0.0
820,77.0,0.0,120.0,0.0,0.0
821,72.0,0.0,120.0,0.0,0.0
822,57.0,120.0,120.0,2.0,0.0
823,73.0,0.0,120.0,0.0,0.0
824,58.0,120.0,120.0,2.0,0.0
825,70.0,0.0,120.0,0.0,0.0
826,61.0,120.0,120.0,2.0,0.0
827,68.0,120.0,120.0,0.0,0.0
828,60.0,0.0,120.0,2.0,0.0
829,51.0,0.0,120.0,2.0,0.0
830,72.0,120.0,120.0,0.0,0.0
831,56.0,120.0,120.0,2.0,0.0
832,75.0,0.0,120.0,0.0,0.0
833,51.0,0.0,120.0,2.0,0.0
834,74.0,120.0,120.0,0.0,0.0
835,58.0,120.0,120.0,2.0,0.0
836,73.0,0.0,120.0,0.0,0.0
837,72.0,0.0,120.0,0.0,0.0
838,51.0,120.0,120.0,2.0,0.0
839,73.0,120.0,120.0,0.0,0.0
840,55.0,0.0,120.0,2.0,0.0
841,51.0,0.0,120.0,2.0,0.0
842,70.0,120.0,120.0,0.0,0.0
843,56.0,120.0,120.0,2.0,0.0
844,68.0,0.0,480.0,0.0,0.0
845,51.0,120.0,120.0,2.0,0.0
846,48.0,120.0,120.0,2.0,0.0
847,51.0,120.0,120.0,2.0,0.0
848,44.0,120.0,120.0,2.0,0.0
849,39.0,120.0,120.0,2.0,0.0
850,36.0,120.0,120.0,2.0,0.0
851,39.0,191.0,120.0,2.0,0.0
852,32.0,409.0,180.0,2.0,0.0
853,56.0,120.0,120.0,0.0,0.0
854,60.0,120.0,120.0,0.0,0.0
855,63.0,120.0,120.0,0.0,0.0
856,48.0,36.0,120.0,2.0,0.0
857,68.0,120.0,15.0,0.0,0.0
858,56.0,120.0,120.0,3.0,0.0
859,68.0,84.0,150.0,0.0,0.0
860,51.0,36.0,120.0,2.0,0.0
861,56.0,120.0,120.0,3.0,0.0
862,49.0,120.0,120.0,2.0,0.0
863,58.0,120.0,120.0,3.0,0.0
864,70.0,84.0,150.0,0.0,0.0
865,53.0,36.0,120.0,2.0,0.0
866,58.0,120.0,120.0,3.0,0.0
867,51.0,120.0,120.0,2.0,0.0
868,58.0,0.0,120.0,3.0,0.0
869,68.0,120.0,60.0,0.0,0.0
870,67.0,0.0,120.0,0.0,0.0
871,55.0,120.0,120.0,2.0,0.0
872,65.0,0.0,120.0,0.0,0.0
873,58.0,120.0,120.0,3.0,0.0
874,67.0,84.0,150.0,0.0,0.0
875,51.0,36.0,120.0,2.0,0.0
876,55.0,120.0,120.0,3.0,0.0
877,53.0,36.0,120.0,2.0,0.0
878,68.0,84.0,150.0,0.0,0.0
879,56.0,120.0,120.0,3.0,0.0
880,55.0,120.0,120.0,2.0,0.0
881,70.0,120.0,480.0,0.0,0.0
882,58.0,120.0,120.0,3.0,0.0
883,51.0,120.0,120.0,2.0,0.0
884,55.0,0.0,120.0,3.0,0.0
885,60.0,0.0,120.0,0.0,0.0
886,44.0,120.0,120.0,2.0,0.0
887,56.0,120.0,120.0,3.0,0.0
888,63.0,0.0,120.0,0.0,0.0
889,51.0,120.0,120.0,2.0,0.0
890,68.0,0.0,120.0,0.0,0.0
891,72.0,120.0,120.0,0.0,0.0
892,56.0,0.0,120.0,3.0,0.0
893,53.0,120.0,120.0,2.0,0.0
894,60.0,0.0,120.0,3.0,0.0
895,72.0,120.0,15.0,0.0,0.0
896,56.0,120.0,120.0,2.0,0.0
897,80.0,120.0,120.0,0.0,0.0
898,60.0,0.0,120.0,3.0,0.0
899,49.0,120.0,120.0,2.0,0.0
900,58.0,0.0,120.0,3.0,0.0
901,53.0,120.0,120.0,2.0,0.0
902,73.0,120.0,15.0,0.0,0.0
903,58.0,0.0,120.0,3.0,0.0
904,82.0,120.0,120.0,0.0,0.0
905,51.0,120.0,120.0,2.0,0.0
906,60.0,0.0,120.0,3.0,0.0
907,72.0,96.0,15.0,0.0,0.0
908,56.0,24.0,90.0,2.0,0.0
909,80.0,0.0,120.0,0.0,0.0
910,60.0,120.0,120.0,3.0,0.0
911,49.0,120.0,120.0,2.0,0.0
912,58.0,120.0,120.0,3.0,0.0
913,70.0,0.0,15.0,0.0,0.0
914,51.0,0.0,120.0,2.0,0.0
915,79.0,120.0,120.0,0.0,0.0
916,58.0,0.0,120.0,3.0,0.0
917,48.0,120.0,120.0,2.0,0.0
918,56.0,0.0,120.0,3.0,0.0
919,80.0,120.0,120.0,0.0,0.0
920,48.0,120.0,120.0,2.0,0.0
921,78.0,0.0,120.0,0.0,0.0
922,75.0,120.0,120.0,1.0,0.0
923,57.0,0.0,120.0,3.0,0.0
924,49.0,120.0,120.0,2.0,0.0
925,73.0,0.0,120.0,1.0,0.0
926,77.0,120.0,120.0,0.0,0.0
927,58.0,0.0,120.0,3.0,0.0
928,46.0,120.0,120.0,2.0,0.0
929,82.0,0.0,120.0,0.0,0.0
930,73.0,240.0,120.0,1.0,0.0
931,58.0,0.0,120.0,3.0,0.0
932,51.0,120.0,240.0,2.0,0.0
933,60.0,0.0,120.0,3.0,0.0
934,82.0,0.0,120.0,0.0,0.0
935,72.0,0.0,120.0,1.0,0.0
936,56.0,120.0,120.0,3.0,0.0
937,72.0,0.0,120.0,1.0,0.0
938,80.0,240.0,120.0,0.0,0.0
939,60.0,0.0,120.0,3.0,0.0
940,51.0,120.0,240.0,2.0,0.0
941,70.0,0.0,120.0,1.0,0.0
942,63.0,0.0,120.0,3.0,0.0
943,80.0,0.0,120.0,0.0,0.0
944,62.0,120.0,120.0,3.0,0.0
945,79.0,120.0,120.0,0.0,0.0
946,70.0,0.0,120.0,1.0,0.0
947,63.0,0.0,120.0,3.0,0.0
948,44.0,120.0,120.0,2.0,0.0
949,48.0,120.0,120.0,2.0,0.0
950,72.0,84.0,150.0,1.0,0.0
951,51.0,36.0,120.0,2.0,0.0
952,80.0,0.0,150.0,0.0,0.0
953,55.0,480.0,120.0,2.0,0.0
954,56.0,240.0,480.0,2.0,0.0
955,75.0,0.0,480.0,0.0,0.0
956,72.0,0.0,480.0,1.0,0.0
957,68.0,360.0,240.0,1.0,0.0
958,72.0,0.0,240.0,0.0,0.0
959,56.0,120.0,120.0,0.0,0.0
960,60.0,120.0,120.0,0.0,0.0
961,63.0,120.0,120.0,0.0,0.0
962,68.0,120.0,15.0,0.0,0.0
963,48.0,36.0,120.0,2.0,0.0
964,56.0,120.0,120.0,3.0,0.0
965,68.0,84.0,150.0,0.0,0.0
966,51.0,36.0,120.0,2.0,0.0
967,56.0,120.0,120.0,3.0,0.0
968,49.0,120.0,120.0,2.0,0.0
969,58.0,120.0,120.0,3.0,0.0
970,53.0,36.0,120.0,2.0,0.0
971,70.0,84.0,150.0,0.0,0.0
972,58.0,120.0,120.0,3.0,0.0
973,51.0,120.0,120.0,2.0,0.0
974,58.0,0.0,120.0,3.0,0.0
975,68.0,120.0,60.0,0.0,0.0
976,67.0,0.0,120.0,0.0,0.0
977,55.0,120.0,120.0,2.0,0.0
978,65.0,120.0,120.0,0.0,0.0
979,58.0,0.0,120.0,3.0,0.0
980,51.0,36.0,120.0,2.0,0.0
981,67.0,84.0,150.0,0.0,0.0
982,55.0,120.0,120.0,3.0,0.0
983,68.0,84.0,150.0,0.0,0.0
984,53.0,36.0,120.0,2.0,0.0
985,56.0,120.0,120.0,3.0,0.0
986,55.0,120.0,120.0,2.0,0.0
987,70.0,120.0,480.0,0.0,0.0
988,58.0,120.0,120.0,3.0,0.0
989,51.0,120.0,120.0,2.0,0.0
990,55.0,0.0,120.0,3.0,0.0
991,44.0,0.0,120.0,2.0,0.0
992,60.0,120.0,120.0,0.0,0.0
993,56.0,120.0,120.0,3.0,0.0
994,63.0,0.0,120.0,0.0,0.0
995,68.0,120.0,120.0,0.0,0.0
996,51.0,0.0,120.0,2.0,0.0
997,72.0,120.0,120.0,0.0,0.0
998,56.0,0.0,120.0,3.0,0.0
999,53.0,120.0,120.0,2.0,0.0
1000,60.0,0.0,120.0,3.0,0.0
1001,56.0,120.0,120.0,2.0,0.0
1002,72.0,120.0,15.0,0.0,0.0
1003,60.0,120.0,120.0,3.0,0.0
1004,80.0,0.0,120.0,0.0,0.0
1005,49.0,120.0,120.0,2.0,0.0
1006,73.0,120.0,120.0,0.0,0.0
1007,58.0,0.0,120.0,3.0,0.0
1008,53.0,120.0,120.0,2.0,0.0
1009,73.0,0.0,120.0,0.0,0.0
1010,58.0,0.0,120.0,3.0,0.0
1011,82.0,120.0,120.0,0.0,0.0
1012,51.0,120.0,120.0,2.0,0.0
1013,72.0,96.0,120.0,0.0,0.0
1014,60.0,0.0,120.0,3.0,0.0
1015,56.0,24.0,90.0,2.0,0.0
1016,72.0,120.0,120.0,0.0,0.0
1017,60.0,0.0,120.0,3.0,0.0
1018,80.0,120.0,120.0,0.0,0.0
1019,49.0,120.0,120.0,2.0,0.0
1020,58.0,0.0,120.0,3.0,0.0
1021,51.0,0.0,120.0,2.0,0.0
1022,70.0,120.0,15.0,0.0,0.0
1023,79.0,120.0,120.0,0.0,0.0
1024,58.0,0.0,120.0,3.0,0.0
1025,48.0,120.0,120.0,2.0,0.0
1026,80.0,120.0,120.0,0.0,0.0
1027,56.0,0.0,120.0,3.0,0.0
1028,48.0,120.0,120.0,2.0,0.0
1029,57.0,0.0,120.0,3.0,0.0
1030,75.0,120.0,120.0,1.0,0.0
1031,78.0,0.0,120.0,0.0,0.0
1032,49.0,120.0,120.0,2.0,0.0
1033,77.0,120.0,120.0,0.0,0.0
1034,73.0,0.0,120.0,1.0,0.0
1035,58.0,0.0,120.0,3.0,0.0
1036,46.0,120.0,120.0,2.0,0.0
1037,73.0,0.0,120.0,1.0,0.0
1038,58.0,240.0,120.0,3.0,0.0
1039,82.0,0.0,120.0,0.0,0.0
1040,51.0,0.0,240.0,2.0,0.0
1041,72.0,0.0,120.0,1.0,0.0
1042,60.0,120.0,120.0,3.0,0.0
1043,82.0,0.0,120.0,0.0,0.0
1044,56.0,120.0,120.0,3.0,0.0
1045,80.0,240.0,120.0,0.0,0.0
1046,72.0,0.0,120.0,1.0,0.0
1047,60.0,0.0,120.0,3.0,0.0
1048,51.0,0.0,240.0,2.0,0.0
1049,80.0,0.0,120.0,0.0,0.0
1050,63.0,120.0,120.0,3.0,0.0
1051,70.0,0.0,120.0,1.0,0.0
1052,62.0,120.0,120.0,3.0,0.0
1053,79.0,0.0,120.0,0.0,0.0
1054,63.0,0.0,120.0,3.0,0.0
1055,70.0,120.0,120.0,1.0,0.0
1056,44.0,120.0,120.0,2.0,0.0
1057,48.0,120.0,120.0,2.0,0.0
1058,72.0,0.0,150.0,1.0,0.0
1059,80.0,84.0,150.0,0.0,0.0
1060,51.0,36.0,120.0,2.0,0.0
1061,55.0,480.0,120.0,2.0,0.0
1062,56.0,0.0,480.0,2.0,0.0
1063,72.0,240.0,480.0,1.0,0.0
1064,75.0,0.0,480.0,0.0,0.0
1065,68.0,0.0,240.0,1.0,0.0
1066,72.0,360.0,240.0,0.0,0.0
1067,63.0,120.0,120.0,0.0,0.0
1068,68.0,120.0,120.0,0.0,0.0
1069,72.0,120.0,120.0,0.0,0.0
1070,73.0,120.0,120.0,0.0,0.0
1071,48.0,36.0,120.0,2.0,0.0
1072,75.0,84.0,150.0,0.0,0.0
1073,56.0,120.0,120.0,3.0,0.0
1074,75.0,84.0,150.0,0.0,0.0
1075,51.0,36.0,120.0,2.0,0.0
1076,56.0,120.0,120.0,3.0,0.0
1077,46.0,120.0,120.0,2.0,0.0
1078,54.0,120.0,120.0,3.0,0.0
1079,75.0,84.0,150.0,0.0,0.0
1080,49.0,36.0,120.0,2.0,0.0
1081,54.0,120.0,120.0,3.0,0.0
1082,45.0,120.0,120.0,2.0,0.0
1083,75.0,120.0,120.0,0.0,0.0
1084,53.0,0.0,120.0,3.0,0.0
1085,77.0,0.0,60.0,0.0,0.0
1086,48.0,0.0,120.0,2.0,0.0
1087,75.0,120.0,120.0,0.0,0.0
1088,74.0,120.0,120.0,0.0,0.0
1089,53.0,0.0,120.0,3.0,0.0
1090,45.0,120.0,120.0,2.0,0.0
1091,75.0,0.0,120.0,0.0,0.0
1092,84.0,0.0,120.0,0.0,0.0
1093,53.0,120.0,120.0,3.0,0.0
1094,46.0,0.0,120.0,2.0,0.0
1095,73.0,120.0,120.0,0.0,0.0
1096,82.0,120.0,120.0,0.0,0.0
1097,53.0,0.0,120.0,3.0,0.0
1098,41.0,0.0,240.0,2.0,0.0
1099,72.0,120.0,120.0,0.0,0.0
1100,82.0,0.0,120.0,0.0,0.0
1101,53.0,120.0,120.0,3.0,0.0
1102,70.0,0.0,120.0,0.0,0.0
1103,51.0,120.0,120.0,3.0,0.0
1104,81.0,0.0,120.0,0.0,0.0
1105,48.0,120.0,120.0,3.0,0.0
1106,61.0,120.0,120.0,0.0,0.0
1107,46.0,0.0,120.0,2.0,0.0
1108,53.0,0.0,120.0,3.0,0.0
1109,65.0,120.0,120.0,0.0,0.0
1110,49.0,0.0,120.0,2.0,0.0
1111,70.0,120.0,120.0,0.0,0.0
1112,53.0,120.0,120.0,3.0,0.0
1113,73.0,0.0,15.0,0.0,0.0
1114,46.0,36.0,120.0,2.0,0.0
1115,53.0,120.0,120.0,3.0,0.0
1116,73.0,84.0,150.0,0.0,0.0
1117,49.0,36.0,120.0,2.0,0.0
1118,53.0,120.0,120.0,3.0,0.0
1119,44.0,120.0,120.0,2.0,0.0
1120,52.0,120.0,120.0,3.0,0.0
1121,46.0,36.0,120.0,2.0,0.0
1122,73.0,84.0,150.0,0.0,0.0
1123,52.0,120.0,120.0,3.0,0.0
1124,43.0,120.0,120.0,2.0,0.0
1125,73.0,120.0,120.0,0.0,0.0
1126,51.0,0.0,120.0,3.0,0.0
1127,75.0,0.0,60.0,0.0,0.0
1128,46.0,0.0,120.0,2.0,0.0
1129,73.0,120.0,120.0,0.0,0.0
1130,51.0,120.0,120.0,3.0,0.0
1131,72.0,0.0,120.0,0.0,0.0
1132,73.0,120.0,120.0,0.0,0.0
1133,43.0,0.0,120.0,2.0,0.0
1134,82.0,120.0,120.0,0.0,0.0
1135,51.0,0.0,120.0,3.0,0.0
1136,72.0,120.0,120.0,0.0,0.0
1137,44.0,0.0,120.0,2.0,0.0
1138,51.0,0.0,120.0,3.0,0.0
1139,80.0,120.0,120.0,0.0,0.0
1140,70.0,120.0,120.0,0.0,0.0
1141,39.0,0.0,240.0,2.0,0.0
1142,80.0,0.0,120.0,0.0,0.0
1143,51.0,120.0,120.0,3.0,0.0
1144,49.0,120.0,120.0,3.0,0.0
1145,70.0,0.0,120.0,0.0,0.0
1146,79.0,0.0,120.0,0.0,0.0
1147,46.0,240.0,120.0,3.0,0.0
1148,44.0,120.0,240.0,2.0,0.0
1149,48.0,0.0,120.0,3.0,0.0
1150,72.0,0.0,15.0,0.0,0.0
1151,51.0,0.0,120.0,3.0,0.0
1152,56.0,0.0,120.0,3.0,0.0
1153,80.0,120.0,120.0,0.0,0.0
1154,53.0,120.0,120.0,2.0,0.0
1155,73.0,0.0,120.0,0.0,0.0
1156,56.0,0.0,120.0,3.0,0.0
1157,80.0,120.0,120.0,0.0,0.0
1158,72.0,120.0,120.0,0.0,0.0
1159,51.0,0.0,120.0,2.0,0.0
1160,80.0,120.0,120.0,0.0,0.0
1161,56.0,0.0,120.0,3.0,0.0
1162,49.0,0.0,120.0,2.0,0.0
1163,70.0,120.0,120.0,0.0,0.0
1164,56.0,120.0,120.0,3.0,0.0
1165,80.0,0.0,120.0,0.0,0.0
1166,68.0,120.0,120.0,0.0,0.0
1167,48.0,0.0,120.0,2.0,0.0
1168,80.0,156.0,120.0,0.0,0.0
1169,56.0,0.0,120.0,3.0,0.0
1170,42.0,84.0,150.0,2.0,0.0
1171,72.0,120.0,120.0,0.0,0.0
1172,72.0,120.0,120.0,0.0,0.0
1173,54.0,81.0,510.0,2.0,0.0
1174,68.0,120.0,120.0,1.0,0.0
1175,72.0,120.0,120.0,0.0,0.0
1176,68.0,39.0,120.0,1.0,0.0
1177,73.0,36.0,120.0,0.0,0.0
1178,53.0,0.0,150.0,2.0,0.0
1179,56.0,84.0,150.0,3.0,0.0
1180,68.0,120.0,120.0,1.0,0.0
1181,56.0,0.0,150.0,3.0,0.0
1182,48.0,84.0,150.0,2.0,0.0
1183,75.0,36.0,120.0,0.0,0.0
1184,68.0,120.0,120.0,1.0,0.0
1185,56.0,0.0,150.0,3.0,0.0
1186,76.0,36.0,120.0,0.0,0.0
1187,48.0,84.0,150.0,2.0,0.0
1188,68.0,120.0,120.0,1.0,0.0
1189,49.0,120.0,120.0,2.0,0.0
1190,77.0,0.0,120.0,0.0,0.0
1191,56.0,120.0,120.0,3.0,0.0
1192,46.0,120.0,120.0,2.0,0.0
1193,58.0,0.0,120.0,3.0,0.0
1194,82.0,147.0,120.0,1.0,0.0
1195,85.0,0.0,120.0,0.0,0.0
1196,51.0,93.0,150.0,2.0,0.0
1197,82.0,0.0,120.0,1.0,0.0
1198,84.0,0.0,120.0,0.0,0.0
1199,60.0,120.0,120.0,3.0,0.0
1200,56.0,120.0,120.0,3.0,0.0
1201,80.0,147.0,120.0,1.0,0.0
1202,84.0,0.0,120.0,0.0,0.0
1203,60.0,0.0,120.0,3.0,0.0
1204,51.0,93.0,150.0,2.0,0.0
1205,82.0,0.0,120.0,0.0,0.0
1206,63.0,0.0,120.0,3.0,0.0
1207,80.0,120.0,120.0,1.0,0.0
1208,62.0,120.0,120.0,3.0,0.0
1209,82.0,0.0,120.0,0.0,0.0
1210,63.0,0.0,120.0,3.0,0.0
1211,79.0,120.0,120.0,1.0,0.0
1212,44.0,120.0,120.0,2.0,0.0
1213,48.0,120.0,120.0,2.0,0.0
1214,80.0,84.0,150.0,0.0,0.0
1215,51.0,36.0,120.0,2.0,0.0
1216,72.0,0.0,150.0,1.0,0.0
1217,55.0,480.0,120.0,2.0,0.0
1218,56.0,0.0,480.0,2.0,0.0
1219,75.0,156.0,480.0,1.0,0.0
1220,84.0,0.0,480.0,0.0,0.0
1221,80.0,0.0,150.0,0.0,0.0
1222,72.0,420.0,150.0,1.0,0.0
1223,44.0,0.0,90.0,2.0,0.0
1224,32.0,120.0,90.0,2.0,0.0
1225,44.0,120.0,90.0,2.0,0.0
1226,32.0,0.0,90.0,2.0,0.0
1227,48.0,120.0,90.0,1.0,0.0
1228,56.0,0.0,90.0,0.0,0.0
1229,51.0,0.0,90.0,1.0,0.0
1230,56.0,0.0,90.0,0.0,0.0
1231,51.0,120.0,90.0,1.0,0.0
1232,48.0,0.0,90.0,1.0,0.0
1233,69.0,0.0,90.0,0.0,0.0
1234,53.0,24.0,90.0,2.0,0.0
1235,63.0,216.0,120.0,1.0,0.0
1236,60.0,0.0,90.0,2.0,0.0
1237,63.0,600.0,120.0,1.0,0.0
1238,69.0,24.0,90.0,0.0,0.0
1239,53.0,0.0,90.0,2.0,0.0
1240,60.0,0.0,90.0,2.0,0.0
1241,46.0,0.0,480.0,2.0,0.0
1242,58.0,0.0,480.0,2.0,0.0
1243,61.0,96.0,480.0,1.0,0.0
1244,70.0,0.0,480.0,0.0,0.0
1245,39.0,120.0,90.0,2.0,0.0
1246,27.0,0.0,90.0,2.0,0.0
1247,27.0,0.0,90.0,2.0,0.0
1248,39.0,120.0,90.0,2.0,0.0
1249,48.0,0.0,90.0,1.0,0.0
1250,51.0,120.0,90.0,1.0,0.0
1251,56.0,0.0,90.0,0.0,0.0
1252,51.0,0.0,90.0,1.0,0.0
1253,48.0,0.0,90.0,1.0,0.0
1254,56.0,120.0,90.0,0.0,0.0
1255,63.0,0.0,90.0,2.0,0.0
1256,61.0,240.0,90.0,2.0,0.0
1257,79.0,0.0,90.0,0.0,0.0
1258,70.0,0.0,90.0,1.0,0.0
1259,70.0,0.0,90.0,1.0,0.0
1260,61.0,0.0,90.0,2.0,0.0
1261,79.0,0.0,90.0,0.0,0.0
1262,63.0,624.0,90.0,2.0,0.0
1263,80.0,0.0,480.0,0.0,0.0
1264,63.0,0.0,480.0,2.0,0.0
1265,60.0,96.0,480.0,2.0,0.0
1266,68.0,0.0,480.0,1.0,0.0
1267,30.0,120.0,90.0,2.0,0.0
1268,42.0,0.0,90.0,2.0,0.0
1269,42.0,120.0,90.0,2.0,0.0
1270,30.0,0.0,90.0,2.0,0.0
1271,51.0,0.0,90.0,1.0,0.0
1272,56.0,120.0,90.0,1.0,0.0
1273,60.0,0.0,90.0,0.0,0.0
1274,51.0,0.0,90.0,1.0,0.0
1275,56.0,0.0,90.0,1.0,0.0
1276,60.0,120.0,90.0,0.0,0.0
1277,68.0,0.0,90.0,1.0,0.0
1278,72.0,0.0,90.0,0.0,0.0
1279,63.0,0.0,90.0,2.0,0.0
1280,54.0,240.0,90.0,2.0,0.0
1281,72.0,0.0,90.0,0.0,0.0
1282,54.0,0.0,90.0,2.0,0.0
1283,63.0,624.0,90.0,2.0,0.0
1284,68.0,0.0,90.0,1.0,0.0
1285,53.0,0.0,480.0,2.0,0.0
1286,61.0,0.0,480.0,2.0,0.0
1287,73.0,96.0,480.0,0.0,0.0
1288,68.0,0.0,480.0,1.0,0.0
1289,27.0,120.0,90.0,2.0,0.0
1290,39.0,0.0,90.0,2.0,0.0
1291,27.0,120.0,90.0,2.0,0.0
1292,39.0,0.0,90.0,2.0,0.0
1293,51.0,0.0,90.0,1.0,0.0
1294,56.0,120.0,90.0,1.0,0.0
1295,60.0,0.0,90.0,0.0,0.0
1296,51.0,0.0,90.0,1.0,0.0
1297,56.0,0.0,90.0,1.0,0.0
1298,60.0,120.0,90.0,0.0,0.0
1299,49.0,120.0,90.0,2.0,0.0
1300,55.0,0.0,90.0,2.0,0.0
1301,49.0,0.0,90.0,2.0,0.0
1302,55.0,120.0,90.0,2.0,0.0
1303,63.0,0.0,90.0,1.0,0.0
1304,70.0,120.0,90.0,0.0,0.0
1305,70.0,0.0,90.0,0.0,0.0
1306,63.0,120.0,90.0,1.0,0.0
1307,36.0,120.0,90.0,2.0,0.0
1308,48.0,0.0,90.0,2.0,0.0
1309,48.0,120.0,90.0,2.0,0.0
1310,36.0,0.0,90.0,2.0,0.0
1311,57.0,0.0,90.0,0.0,0.0
1312,54.0,0.0,90.0,1.0,0.0
1313,51.0,120.0,90.0,1.0,0.0
1314,57.0,120.0,90.0,0.0,0.0
1315,54.0,0.0,90.0,1.0,0.0
1316,51.0,0.0,90.0,1.0,0.0
1317,37.0,120.0,90.0,2.0,0.0
1318,25.0,0.0,90.0,2.0,0.0
1319,25.0,0.0,90.0,2.0,0.0
1320,37.0,120.0,90.0,2.0,0.0
1321,58.0,120.0,90.0,0.0,0.0
1322,53.0,0.0,90.0,1.0,0.0
1323,49.0,0.0,90.0,1.0,0.0
1324,49.0,0.0,90.0,1.0,0.0
1325,53.0,0.0,90.0,1.0,0.0
1326,58.0,120.0,90.0,0.0,0.0
1327,51.0,120.0,90.0,2.0,0.0
1328,51.0,120.0,90.0,2.0,0.0
1329,68.0,120.0,90.0,0.0,0.0
1330,60.0,0.0,90.0,1.0,0.0
1331,60.0,0.0,90.0,1.0,0.0
1332,68.0,120.0,90.0,0.0,0.0
1333,27.0,0.0,90.0,2.0,0.0
1334,39.0,120.0,90.0,2.0,0.0
1335,27.0,120.0,90.0,2.0,0.0
1336,39.0,0.0,90.0,2.0,0.0
1337,55.0,0.0,90.0,0.0,0.0
1338,46.0,120.0,90.0,1.0,0.0
1339,49.0,0.0,90.0,1.0,0.0
1340,49.0,0.0,90.0,1.0,0.0
1341,46.0,0.0,90.0,1.0,0.0
1342,55.0,180.0,90.0,0.0,0.0
1343,32.0,84.0,150.0,2.0,0.0
1344,44.0,0.0,150.0,2.0,0.0
1345,56.0,120.0,120.0,0.0,0.0
1346,60.0,120.0,120.0,0.0,0.0
1347,63.0,120.0,120.0,0.0,0.0
1348,68.0,120.0,120.0,0.0,0.0
1349,72.0,120.0,120.0,0.0,0.0
1350,75.0,120.0,120.0,0.0,0.0
1351,80.0,156.0,120.0,0.0,0.0
1352,68.0,84.0,150.0,0.0,0.0
1353,44.0,120.0,120.0,2.0,0.0
1354,39.0,120.0,120.0,2.0,0.0
1355,36.0,96.0,120.0,2.0,0.0
1356,32.0,0.0,90.0,2.0,0.0
1357,44.0,120.0,90.0,2.0,0.0
1358,44.0,120.0,90.0,2.0,0.0
1359,32.0,0.0,90.0,2.0,0.0
1360,56.0,120.0,90.0,0.0,0.0
1361,48.0,0.0,90.0,1.0,0.0
1362,51.0,0.0,90.0,1.0,0.0
1363,51.0,0.0,90.0,1.0,0.0
1364,48.0,0.0,90.0,1.0,0.0
1365,56.0,120.0,90.0,0.0,0.0
1366,53.0,0.0,90.0,2.0,0.0
1367,69.0,0.0,90.0,0.0,0.0
1368,60.0,24.0,90.0,2.0,0.0
1369,63.0,216.0,120.0,1.0,0.0
1370,60.0,0.0,90.0,2.0,0.0
1371,63.0,600.0,120.0,1.0,0.0
1372,69.0,24.0,90.0,0.0,0.0
1373,53.0,0.0,90.0,2.0,0.0
1374,46.0,0.0,480.0,2.0,0.0
1375,58.0,0.0,480.0,2.0,0.0
1376,61.0,0.0,480.0,1.0,0.0
1377,70.0,96.0,480.0,0.0,0.0
1378,39.0,0.0,90.0,2.0,0.0
1379,27.0,120.0,90.0,2.0,0.0
1380,27.0,120.0,90.0,2.0,0.0
1381,39.0,0.0,90.0,2.0,0.0
1382,51.0,120.0,90.0,1.0,0.0
1383,48.0,0.0,90.0,1.0,0.0
1384,56.0,0.0,90.0,0.0,0.0
1385,51.0,0.0,90.0,1.0,0.0
1386,48.0,0.0,90.0,1.0,0.0
1387,56.0,120.0,90.0,0.0,0.0
1388,63.0,240.0,90.0,2.0,0.0
1389,61.0,0.0,90.0,2.0,0.0
1390,70.0,0.0,90.0,1.0,0.0
1391,79.0,0.0,90.0,0.0,0.0
1392,79.0,0.0,90.0,0.0,0.0
1393,70.0,624.0,90.0,1.0,0.0
1394,63.0,0.0,90.0,2.0,0.0
1395,61.0,0.0,90.0,2.0,0.0
1396,60.0,0.0,480.0,2.0,0.0
1397,68.0,0.0,480.0,1.0,0.0
1398,80.0,0.0,480.0,0.0,0.0
1399,63.0,96.0,480.0,2.0,0.0
1400,30.0,120.0,90.0,2.0,0.0
1401,42.0,0.0,90.0,2.0,0.0
1402,30.0,120.0,90.0,2.0,0.0
1403,42.0,0.0,90.0,2.0,0.0
1404,56.0,120.0,90.0,1.0,0.0
1405,51.0,0.0,90.0,1.0,0.0
1406,60.0,0.0,90.0,0.0,0.0
1407,51.0,0.0,90.0,1.0,0.0
1408,56.0,0.0,90.0,1.0,0.0
1409,60.0,120.0,90.0,0.0,0.0
1410,54.0,240.0,90.0,2.0,0.0
1411,68.0,0.0,90.0,1.0,0.0
1412,72.0,0.0,90.0,0.0,0.0
1413,63.0,0.0,90.0,2.0,0.0
1414,54.0,0.0,90.0,2.0,0.0
1415,68.0,0.0,90.0,1.0,0.0
1416,72.0,624.0,90.0,0.0,0.0
1417,63.0,0.0,90.0,2.0,0.0
1418,61.0,0.0,480.0,2.0,0.0
1419,53.0,0.0,480.0,2.0,0.0
1420,68.0,0.0,480.0,1.0,0.0
1421,73.0,96.0,480.0,0.0,0.0
1422,27.0,120.0,90.0,2.0,0.0
1423,39.0,0.0,90.0,2.0,0.0
1424,27.0,0.0,90.0,2.0,0.0
1425,39.0,120.0,90.0,2.0,0.0
1426,51.0,0.0,90.0,1.0,0.0
1427,56.0,0.0,90.0,1.0,0.0
1428,60.0,120.0,90.0,0.0,0.0
1429,60.0,0.0,90.0,0.0,0.0
1430,51.0,120.0,90.0,1.0,0.0
1431,56.0,0.0,90.0,1.0,0.0
1432,49.0,0.0,90.0,2.0,0.0
1433,55.0,120.0,90.0,2.0,0.0
1434,55.0,0.0,90.0,2.0,0.0
1435,49.0,120.0,90.0,2.0,0.0
1436,63.0,120.0,90.0,1.0,0.0
1437,70.0,0.0,90.0,0.0,0.0
1438,70.0,120.0,90.0,0.0,0.0
1439,63.0,0.0,90.0,1.0,0.0
1440,36.0,120.0,90.0,2.0,0.0
1441,48.0,0.0,90.0,2.0,0.0
1442,36.0,0.0,90.0,2.0,0.0
1443,48.0,120.0,90.0,2.0,0.0
1444,51.0,0.0,90.0,1.0,0.0
1445,54.0,0.0,90.0,1.0,0.0
1446,57.0,120.0,90.0,0.0,0.0
1447,51.0,120.0,90.0,1.0,0.0
1448,54.0,0.0,90.0,1.0,0.0
1449,57.0,0.0,90.0,0.0,0.0
1450,37.0,0.0,90.0,2.0,0.0
1451,25.0,120.0,90.0,2.0,0.0
1452,37.0,120.0,90.0,2.0,0.0
1453,25.0,0.0,90.0,2.0,0.0
1454,58.0,0.0,90.0,0.0,0.0
1455,49.0,0.0,90.0,1.0,0.0
1456,53.0,120.0,90.0,1.0,0.0
1457,58.0,0.0,90.0,0.0,0.0
1458,53.0,120.0,90.0,1.0,0.0
1459,49.0,0.0,90.0,1.0,0.0
1460,51.0,120.0,90.0,2.0,0.0
1461,51.0,120.0,90.0,2.0,0.0
1462,60.0,120.0,90.0,1.0,0.0
1463,68.0,0.0,90.0,0.0,0.0
1464,60.0,0.0,90.0,1.0,0.0
1465,68.0,120.0,90.0,0.0,0.0
1466,39.0,120.0,90.0,2.0,0.0
1467,27.0,0.0,90.0,2.0,0.0
1468,39.0,0.0,90.0,2.0,0.0
1469,27.0,120.0,90.0,2.0,0.0
1470,49.0,0.0,90.0,1.0,0.0
1471,46.0,120.0,90.0,1.0,0.0
1472,55.0,0.0,90.0,0.0,0.0
1473,55.0,0.0,90.0,0.0,0.0
1474,49.0,0.0,90.0,1.0,0.0
1475,46.0,180.0,90.0,1.0,0.0
1476,44.0,84.0,150.0,2.0,0.0
1477,32.0,0.0,150.0,2.0,0.0
1478,56.0,120.0,120.0,0.0,0.0
1479,60.0,120.0,120.0,0.0,0.0
1480,63.0,120.0,120.0,0.0,0.0
1481,68.0,120.0,120.0,0.0,0.0
1482,72.0,120.0,120.0,0.0,0.0
1483,75.0,120.0,120.0,0.0,0.0
1484,80.0,156.0,120.0,0.0,0.0
1485,68.0,84.0,150.0,0.0,0.0
1486,44.0,120.0,120.0,2.0,0.0
1487,39.0,120.0,120.0,2.0,0.0
1488,36.0,96.0,120.0,2.0,0.0
1489,30.0,120.0,90.0,2.0,0.0
1490,30.0,120.0,90.0,2.0,0.0
1491,48.0,0.0,90.0,1.0,0.0
1492,51.0,0.0,90.0,0.0,0.0
1493,44.0,120.0,90.0,1.0,0.0
1494,44.0,0.0,90.0,1.0,0.0
1495,48.0,120.0,90.0,1.0,0.0
1496,51.0,0.0,90.0,0.0,0.0
1497,42.0,120.0,90.0,2.0,0.0
1498,42.0,120.0,90.0,2.0,0.0
1499,63.0,120.0,90.0,0.0,0.0
1500,56.0,0.0,90.0,1.0,0.0
1501,60.0,0.0,90.0,1.0,0.0
1502,63.0,0.0,90.0,0.0,0.0
1503,60.0,0.0,90.0,1.0,0.0
1504,56.0,120.0,90.0,1.0,0.0
1505,54.0,120.0,90.0,2.0,0.0
1506,54.0,120.0,90.0,2.0,0.0
1507,72.0,120.0,90.0,1.0,0.0
1508,68.0,0.0,90.0,1.0,0.0
1509,75.0,0.0,90.0,0.0,0.0
1510,72.0,120.0,90.0,1.0,0.0
1511,75.0,0.0,90.0,0.0,0.0
1512,68.0,0.0,90.0,1.0,0.0
1513,53.0,120.0,90.0,2.0,0.0
1514,53.0,120.0,90.0,2.0,0.0
1515,69.0,0.0,90.0,1.0,0.0
1516,72.0,0.0,90.0,1.0,0.0
1517,75.0,120.0,90.0,0.0,0.0
1518,75.0,0.0,90.0,0.0,0.0
1519,69.0,120.0,90.0,1.0,0.0
1520,72.0,0.0,90.0,1.0,0.0
1521,77.0,240.0,90.0,1.0,0.0
1522,72.0,0.0,90.0,2.0,0.0
1523,81.0,0.0,90.0,0.0,0.0
1524,75.0,0.0,90.0,2.0,0.0
1525,70.0,0.0,90.0,2.0,0.0
1526,73.0,624.0,90.0,2.0,0.0
1527,77.0,0.0,90.0,1.0,0.0
1528,81.0,0.0,90.0,0.0,0.0
1529,69.0,0.0,480.0,2.0,0.0
1530,84.0,96.0,480.0,0.0,0.0
1531,77.0,0.0,480.0,1.0,0.0
1532,72.0,0.0,480.0,2.0,0.0
1533,28.0,120.0,90.0,2.0,0.0
1534,28.0,120.0,90.0,2.0,0.0
1535,49.0,0.0,90.0,0.0,0.0
1536,44.0,0.0,90.0,1.0,0.0
1537,46.0,120.0,90.0,1.0,0.0
1538,44.0,0.0,90.0,1.0,0.0
1539,49.0,0.0,90.0,0.0,0.0
1540,46.0,120.0,90.0,1.0,0.0
1541,40.0,120.0,90.0,2.0,0.0
1542,40.0,120.0,90.0,2.0,0.0
1543,58.0,0.0,90.0,1.0,0.0
1544,61.0,0.0,90.0,0.0,0.0
1545,56.0,120.0,90.0,1.0,0.0
1546,58.0,0.0,90.0,1.0,0.0
1547,61.0,120.0,90.0,0.0,0.0
1548,52.0,120.0,90.0,2.0,0.0
1549,52.0,120.0,90.0,2.0,0.0
1550,70.0,0.0,90.0,1.0,0.0
1551,73.0,120.0,90.0,0.0,0.0
1552,68.0,0.0,90.0,1.0,0.0
1553,68.0,120.0,90.0,1.0,0.0
1554,73.0,0.0,90.0,0.0,0.0
1555,70.0,0.0,90.0,1.0,0.0
1556,51.0,120.0,90.0,2.0,0.0
1557,51.0,120.0,90.0,2.0,0.0
1558,73.0,0.0,90.0,0.0,0.0
1559,67.0,0.0,90.0,1.0,0.0
1560,70.0,120.0,90.0,1.0,0.0
1561,73.0,0.0,90.0,0.0,0.0
1562,70.0,0.0,90.0,1.0,0.0
1563,67.0,120.0,90.0,1.0,0.0
1564,85.0,0.0,90.0,0.0,0.0
1565,67.0,0.0,90.0,2.0,0.0
1566,82.0,0.0,90.0,1.0,0.0
1567,70.0,0.0,90.0,2.0,0.0
1568,63.0,0.0,90.0,2.0,0.0
1569,75.0,240.0,90.0,1.0,0.0
1570,68.0,624.0,90.0,2.0,0.0
1571,75.0,0.0,90.0,1.0,0.0
1572,63.0,0.0,90.0,2.0,0.0
1573,72.0,0.0,90.0,2.0,0.0
1574,80.0,0.0,90.0,1.0,0.0
1575,84.0,0.0,90.0,0.0,0.0
1576,63.0,0.0,480.0,2.0,0.0
1577,70.0,0.0,480.0,2.0,0.0
1578,79.0,0.0,480.0,1.0,0.0
1579,73.0,0.0,480.0,2.0,0.0
1580,82.0,96.0,480.0,0.0,0.0
1581,75.0,0.0,480.0,1.0,0.0
1582,32.0,0.0,90.0,2.0,0.0
1583,44.0,120.0,90.0,2.0,0.0
1584,32.0,0.0,90.0,2.0,0.0
1585,44.0,120.0,90.0,2.0,0.0
1586,84.0,120.0,90.0,0.0,0.0
1587,80.0,0.0,90.0,1.0,0.0
1588,80.0,120.0,90.0,1.0,0.0
1589,84.0,0.0,90.0,0.0,0.0
1590,48.0,120.0,90.0,2.0,0.0
1591,36.0,0.0,90.0,2.0,0.0
1592,36.0,120.0,90.0,2.0,0.0
1593,48.0,0.0,90.0,2.0,0.0
1594,80.0,0.0,90.0,1.0,0.0
1595,84.0,120.0,90.0,0.0,0.0
1596,84.0,0.0,90.0,0.0,0.0
1597,80.0,120.0,90.0,1.0,0.0
1598,39.0,0.0,90.0,2.0,0.0
1599,51.0,120.0,90.0,2.0,0.0
1600,51.0,120.0,90.0,2.0,0.0
1601,39.0,0.0,90.0,2.0,0.0
1602,80.0,120.0,90.0,1.0,0.0
1603,84.0,0.0,90.0,0.0,0.0
1604,84.0,0.0,90.0,0.0,0.0
1605,80.0,180.0,90.0,1.0,0.0
1606,56.0,84.0,150.0,2.0,0.0
1607,44.0,0.0,150.0,2.0,0.0
1608,84.0,120.0,120.0,0.0,0.0
1609,80.0,120.0,120.0,0.0,0.0
1610,75.0,120.0,120.0,0.0,0.0
1611,72.0,120.0,120.0,0.0,0.0
1612,68.0,120.0,120.0,0.0,0.0
1613,63.0,120.0,120.0,0.0,0.0
1614,60.0,156.0,120.0,0.0,0.0
1615,56.0,216.0,150.0,0.0,0.0
1616,48.0,0.0,150.0,2.0,0.0
1617,64.0,24.0,120.0,0.0,0.0
1618,36.0,0.0,150.0,2.0,0.0
1619,56.0,180.0,150.0,1.0,0.0
1620,49.0,120.0,90.0,2.0,0.0
1621,37.0,0.0,90.0,2.0,0.0
1622,49.0,120.0,90.0,2.0,0.0
1623,37.0,0.0,90.0,2.0,0.0
1624,58.0,0.0,90.0,1.0,0.0
1625,56.0,0.0,90.0,1.0,0.0
1626,65.0,120.0,90.0,0.0,0.0
1627,65.0,120.0,90.0,0.0,0.0
1628,58.0,0.0,90.0,1.0,0.0
1629,56.0,0.0,90.0,1.0,0.0
1630,51.0,120.0,90.0,2.0,0.0
1631,39.0,0.0,90.0,2.0,0.0
1632,39.0,120.0,90.0,2.0,0.0
1633,51.0,0.0,90.0,2.0,0.0
1634,58.0,120.0,90.0,1.0,0.0
1635,56.0,0.0,90.0,1.0,0.0
1636,63.0,0.0,90.0,0.0,0.0
1637,56.0,0.0,90.0,1.0,0.0
1638,58.0,0.0,90.0,1.0,0.0
1639,63.0,120.0,90.0,0.0,0.0
1640,27.0,120.0,90.0,2.0,0.0
1641,39.0,0.0,90.0,2.0,0.0
1642,27.0,0.0,90.0,2.0,0.0
1643,39.0,120.0,90.0,2.0,0.0
1644,63.0,0.0,90.0,0.0,0.0
1645,55.0,0.0,90.0,1.0,0.0
1646,58.0,120.0,90.0,1.0,0.0
1647,63.0,0.0,90.0,0.0,0.0
1648,55.0,0.0,90.0,1.0,0.0
1649,58.0,180.0,90.0,1.0,0.0
1650,44.0,0.0,150.0,2.0,0.0
1651,32.0,84.0,150.0,2.0,0.0
1652,56.0,120.0,120.0,0.0,0.0
1653,60.0,120.0,120.0,0.0,0.0
1654,63.0,120.0,120.0,0.0,0.0
1655,68.0,120.0,120.0,0.0,0.0
1656,72.0,120.0,120.0,0.0,0.0
1657,75.0,120.0,120.0,0.0,0.0
1658,79.0,78.0,120.0,0.0,0.0
1659,80.0,224.0,90.0,0.0,0.0
1660,32.0,1928.0,120.0,2.0,0.0
1661,68.0,125.0,630.0,0.0,0.0
1662,56.0,160.0,150.0,3.0,0.0
1663,59.0,170.0,150.0,3.0,0.0
1664,52.0,25.0,300.0,2.0,0.0
1665,67.0,150.0,150.0,0.0,0.0
1666,56.0,10.0,150.0,3.0,0.0
1667,68.0,160.0,150.0,0.0,0.0
1668,59.0,10.0,150.0,3.0,0.0
1669,49.0,25.0,300.0,2.0,0.0
1670,70.0,125.0,150.0,0.0,0.0
1671,52.0,10.0,150.0,3.0,0.0
1672,68.0,150.0,150.0,0.0,0.0
1673,70.0,285.0,150.0,0.0,0.0
1674,58.0,10.0,150.0,3.0,0.0
1675,67.0,125.0,630.0,0.0,0.0
1676,51.0,25.0,300.0,2.0,0.0
1677,55.0,160.0,150.0,3.0,0.0
1678,58.0,170.0,150.0,3.0,0.0
1679,51.0,25.0,300.0,2.0,0.0
1680,55.0,10.0,150.0,3.0,0.0
1681,63.0,150.0,150.0,0.0,0.0
1682,58.0,10.0,150.0,3.0,0.0
1683,65.0,160.0,150.0,0.0,0.0
1684,67.0,125.0,150.0,0.0,0.0
1685,51.0,25.0,300.0,2.0,0.0
1686,68.0,150.0,150.0,0.0,0.0
1687,53.0,10.0,150.0,3.0,0.0
1688,55.0,10.0,150.0,3.0,0.0
1689,70.0,285.0,150.0,0.0,0.0
1690,71.0,125.0,630.0,0.0,0.0
1691,56.0,25.0,300.0,2.0,0.0
1692,59.0,160.0,150.0,3.0,0.0
1693,63.0,170.0,150.0,3.0,0.0
1694,56.0,25.0,300.0,2.0,0.0
1695,70.0,150.0,150.0,0.0,0.0
1696,59.0,10.0,150.0,3.0,0.0
1697,63.0,10.0,150.0,3.0,0.0
1698,71.0,160.0,150.0,0.0,0.0
1699,52.0,25.0,300.0,2.0,0.0
1700,73.0,125.0,150.0,0.0,0.0
1701,56.0,10.0,150.0,3.0,0.0
1702,75.0,150.0,150.0,0.0,0.0
1703,73.0,160.0,150.0,0.0,0.0
1704,61.0,10.0,150.0,3.0,0.0
1705,54.0,25.0,300.0,2.0,0.0
1706,71.0,125.0,150.0,0.0,0.0
1707,59.0,10.0,150.0,3.0,0.0
1708,73.0,150.0,150.0,0.0,0.0
1709,71.0,160.0,150.0,0.0,0.0
1710,63.0,10.0,150.0,3.0,0.0
1711,70.0,125.0,150.0,0.0,0.0
1712,55.0,25.0,300.0,2.0,0.0
1713,61.0,10.0,150.0,3.0,0.0
1714,71.0,150.0,150.0,0.0,0.0
1715,64.0,10.0,150.0,3.0,0.0
1716,70.0,160.0,150.0,0.0,0.0
1717,68.0,125.0,150.0,0.0,0.0
1718,56.0,25.0,300.0,2.0,0.0
1719,59.0,10.0,150.0,3.0,0.0
1720,67.0,150.0,150.0,0.0,0.0
1721,68.0,160.0,150.0,0.0,0.0
1722,63.0,10.0,150.0,3.0,0.0
1723,49.0,25.0,300.0,2.0,0.0
1724,69.0,125.0,150.0,0.0,0.0
1725,52.0,10.0,150.0,3.0,0.0
1726,71.0,150.0,150.0,0.0,0.0
1727,69.0,160.0,150.0,0.0,0.0
1728,57.0,10.0,150.0,3.0,0.0
1729,68.0,125.0,150.0,0.0,0.0
1730,50.0,25.0,300.0,2.0,0.0
1731,70.0,107.0,150.0,0.0,0.0
1732,53.0,10.0,150.0,3.0,0.0
1733,59.0,30.0,150.0,3.0,0.0
1734,68.0,43.0,120.0,0.0,0.0
1735,68.0,140.0,60.0,0.0,0.0
1736,67.0,125.0,150.0,0.0,0.0
1737,51.0,25.0,300.0,2.0,0.0
1738,65.0,150.0,150.0,0.0,0.0
1739,58.0,10.0,150.0,3.0,0.0
1740,67.0,285.0,150.0,0.0,0.0
1741,61.0,10.0,150.0,3.0,0.0
1742,68.0,160.0,630.0,0.0,0.0
1743,44.0,25.0,300.0,2.0,0.0
1744,47.0,160.0,150.0,3.0,0.0
1745,51.0,160.0,150.0,3.0,0.0
1746,56.0,10.0,150.0,3.0,0.0
1747,62.0,160.0,150.0,0.0,0.0
1748,63.0,160.0,150.0,0.0,0.0
1749,64.0,160.0,150.0,0.0,0.0
1750,63.0,160.0,150.0,0.0,0.0
1751,67.0,310.0,150.0,0.0,0.0
1752,68.0,125.0,630.0,0.0,0.0
1753,56.0,160.0,150.0,3.0,0.0
1754,59.0,170.0,150.0,3.0,0.0
1755,52.0,25.0,300.0,2.0,0.0
1756,67.0,150.0,150.0,0.0,0.0
1757,56.0,10.0,150.0,3.0,0.0
1758,59.0,10.0,150.0,3.0,0.0
1759,68.0,160.0,150.0,0.0,0.0
1760,70.0,125.0,150.0,0.0,0.0
1761,49.0,25.0,300.0,2.0,0.0
1762,68.0,150.0,150.0,0.0,0.0
1763,52.0,10.0,150.0,3.0,0.0
1764,70.0,285.0,150.0,0.0,0.0
1765,58.0,10.0,150.0,3.0,0.0
1766,51.0,25.0,300.0,2.0,0.0
1767,67.0,125.0,630.0,0.0,0.0
1768,55.0,160.0,150.0,3.0,0.0
1769,58.0,170.0,150.0,3.0,0.0
1770,51.0,25.0,300.0,2.0,0.0
1771,55.0,10.0,150.0,3.0,0.0
1772,63.0,150.0,150.0,0.0,0.0
1773,65.0,160.0,150.0,0.0,0.0
1774,58.0,10.0,150.0,3.0,0.0
1775,67.0,125.0,150.0,0.0,0.0
1776,51.0,25.0,300.0,2.0,0.0
1777,68.0,150.0,150.0,0.0,0.0
1778,53.0,10.0,150.0,3.0,0.0
1779,70.0,285.0,150.0,0.0,0.0
1780,55.0,10.0,150.0,3.0,0.0
1781,56.0,25.0,300.0,2.0,0.0
1782,71.0,125.0,630.0,0.0,0.0
1783,59.0,160.0,150.0,3.0,0.0
1784,63.0,170.0,150.0,3.0,0.0
1785,56.0,25.0,300.0,2.0,0.0
1786,59.0,10.0,150.0,3.0,0.0
1787,70.0,150.0,150.0,0.0,0.0
1788,63.0,10.0,150.0,3.0,0.0
1789,71.0,160.0,150.0,0.0,0.0
1790,52.0,25.0,300.0,2.0,0.0
1791,73.0,125.0,150.0,0.0,0.0
1792,56.0,10.0,150.0,3.0,0.0
1793,75.0,150.0,150.0,0.0,0.0
1794,61.0,10.0,150.0,3.0,0.0
1795,73.0,160.0,150.0,0.0,0.0
1796,71.0,125.0,150.0,0.0,0.0
1797,54.0,25.0,300.0,2.0,0.0
1798,59.0,10.0,150.0,3.0,0.0
1799,73.0,150.0,150.0,0.0,0.0
1800,71.0,160.0,150.0,0.0,0.0
1801,63.0,10.0,150.0,3.0,0.0
1802,55.0,25.0,300.0,2.0,0.0
1803,70.0,125.0,150.0,0.0,0.0
1804,71.0,150.0,150.0,0.0,0.0
1805,61.0,10.0,150.0,3.0,0.0
1806,64.0,10.0,150.0,3.0,0.0
1807,70.0,160.0,150.0,0.0,0.0
1808,68.0,125.0,150.0,0.0,0.0
1809,56.0,25.0,300.0,2.0,0.0
1810,67.0,150.0,150.0,0.0,0.0
1811,59.0,10.0,150.0,3.0,0.0
1812,63.0,10.0,150.0,3.0,0.0
1813,68.0,160.0,150.0,0.0,0.0
1814,69.0,125.0,150.0,0.0,0.0
1815,49.0,25.0,300.0,2.0,0.0
1816,52.0,10.0,150.0,3.0,0.0
1817,71.0,150.0,150.0,0.0,0.0
1818,69.0,160.0,150.0,0.0,0.0
1819,57.0,10.0,150.0,3.0,0.0
1820,68.0,125.0,150.0,0.0,0.0
1821,50.0,25.0,300.0,2.0,0.0
1822,70.0,107.0,150.0,0.0,0.0
1823,53.0,10.0,150.0,3.0,0.0
1824,68.0,43.0,120.0,0.0,0.0
1825,59.0,30.0,150.0,3.0,0.0
1826,68.0,140.0,60.0,0.0,0.0
1827,67.0,125.0,150.0,0.0,0.0
1828,51.0,25.0,300.0,2.0,0.0
1829,58.0,10.0,150.0,3.0,0.0
1830,65.0,150.0,150.0,0.0,0.0
1831,67.0,285.0,150.0,0.0,0.0
1832,61.0,10.0,150.0,3.0,0.0
1833,68.0,150.0,630.0,0.0,0.0
1834,44.0,25.0,300.0,2.0,0.0
1835,47.0,160.0,150.0,3.0,0.0
1836,51.0,160.0,150.0,3.0,0.0
1837,56.0,10.0,150.0,3.0,0.0
1838,66.0,150.0,150.0,0.0,0.0
1839,56.0,10.0,150.0,3.0,0.0
1840,68.0,150.0,150.0,0.0,0.0
1841,54.0,10.0,150.0,3.0,0.0
1842,52.0,10.0,150.0,3.0,0.0
1843,70.0,150.0,150.0,0.0,0.0
1844,51.0,10.0,150.0,3.0,0.0
1845,71.0,150.0,150.0,0.0,0.0
1846,73.0,270.0,150.0,0.0,0.0
1847,49.0,10.0,150.0,3.0,0.0
1848,47.0,40.0,270.0,2.0,0.0
1849,75.0,110.0,630.0,0.0,0.0
1850,51.0,160.0,150.0,3.0,0.0
1851,54.0,170.0,150.0,3.0,0.0
1852,51.0,40.0,270.0,2.0,0.0
1853,54.0,10.0,150.0,3.0,0.0
1854,71.0,150.0,150.0,0.0,0.0
1855,59.0,10.0,150.0,3.0,0.0
1856,73.0,160.0,150.0,0.0,0.0
1857,54.0,40.0,270.0,2.0,0.0
1858,75.0,110.0,150.0,0.0,0.0
1859,71.0,150.0,150.0,0.0,0.0
1860,59.0,10.0,150.0,3.0,0.0
1861,63.0,10.0,150.0,3.0,0.0
1862,73.0,270.0,150.0,0.0,0.0
1863,59.0,40.0,270.0,2.0,0.0
1864,63.0,160.0,150.0,3.0,0.0
1865,66.0,170.0,150.0,3.0,0.0
1866,58.0,40.0,270.0,2.0,0.0
1867,75.0,110.0,15.0,0.0,0.0
1868,63.0,10.0,150.0,3.0,0.0
1869,67.0,32.0,150.0,3.0,0.0
1870,73.0,35.0,120.0,0.0,0.0
1871,73.0,138.0,60.0,0.0,0.0
1872,56.0,40.0,270.0,2.0,0.0
1873,71.0,110.0,150.0,0.0,0.0
1874,63.0,10.0,150.0,3.0,0.0
1875,70.0,150.0,150.0,0.0,0.0
1876,71.0,270.0,150.0,0.0,0.0
1877,68.0,10.0,150.0,3.0,0.0
1878,73.0,110.0,630.0,0.0,0.0
1879,52.0,40.0,270.0,2.0,0.0
1880,56.0,160.0,150.0,3.0,0.0
1881,61.0,170.0,150.0,3.0,0.0
1882,52.0,40.0,270.0,2.0,0.0
1883,70.0,150.0,150.0,0.0,0.0
1884,56.0,10.0,150.0,3.0,0.0
1885,71.0,160.0,150.0,0.0,0.0
1886,61.0,10.0,150.0,3.0,0.0
1887,52.0,40.0,270.0,2.0,0.0
1888,73.0,110.0,150.0,0.0,0.0
1889,56.0,10.0,150.0,3.0,0.0
1890,70.0,150.0,150.0,0.0,0.0
1891,61.0,10.0,150.0,3.0,0.0
1892,71.0,320.0,150.0,0.0,0.0
1893,51.0,0.0,330.0,2.0,0.0
1894,55.0,160.0,150.0,3.0,0.0
1895,61.0,160.0,150.0,3.0,0.0
1896,53.0,40.0,270.0,2.0,0.0
1897,73.0,120.0,15.0,0.0,0.0
1898,56.0,110.0,150.0,3.0,0.0
1899,71.0,50.0,120.0,0.0,0.0
1900,61.0,25.0,150.0,3.0,0.0
1901,71.0,135.0,60.0,0.0,0.0
1902,70.0,120.0,150.0,0.0,0.0
1903,55.0,40.0,270.0,2.0,0.0
1904,61.0,0.0,150.0,3.0,0.0
1905,68.0,160.0,150.0,0.0,0.0
1906,51.0,0.0,150.0,3.0,0.0
1907,70.0,280.0,150.0,0.0,0.0
1908,56.0,40.0,270.0,2.0,0.0
1909,71.0,120.0,630.0,0.0,0.0
1910,59.0,160.0,150.0,3.0,0.0
1911,63.0,160.0,150.0,3.0,0.0
1912,51.0,40.0,270.0,2.0,0.0
1913,67.0,0.0,150.0,0.0,0.0
1914,56.0,160.0,150.0,3.0,0.0
1915,68.0,0.0,150.0,0.0,0.0
1916,59.0,160.0,150.0,3.0,0.0
1917,49.0,40.0,270.0,2.0,0.0
1918,70.0,120.0,150.0,0.0,0.0
1919,71.0,160.0,150.0,0.0,0.0
1920,55.0,0.0,150.0,3.0,0.0
1921,58.0,0.0,150.0,3.0,0.0
1922,73.0,280.0,150.0,0.0,0.0
1923,75.0,30.0,450.0,0.0,0.0
1924,47.0,40.0,270.0,2.0,0.0
1925,51.0,130.0,150.0,3.0,0.0
1926,56.0,25.0,150.0,3.0,0.0
1927,68.0,255.0,60.0,0.0,0.0
1928,48.0,40.0,270.0,2.0,0.0
1929,80.0,120.0,630.0,0.0,0.0
1930,51.0,160.0,150.0,3.0,0.0
1931,56.0,160.0,150.0,3.0,0.0
1932,48.0,40.0,270.0,2.0,0.0
1933,54.0,160.0,150.0,3.0,0.0
1934,75.0,0.0,150.0,0.0,0.0
1935,56.0,160.0,150.0,3.0,0.0
1936,78.0,0.0,150.0,0.0,0.0
1937,49.0,40.0,270.0,2.0,0.0
1938,76.0,120.0,150.0,0.0,0.0
1939,52.0,0.0,150.0,3.0,0.0
1940,73.0,160.0,150.0,0.0,0.0
1941,57.0,280.0,150.0,3.0,0.0
1942,69.0,0.0,150.0,0.0,0.0
1943,68.0,45.0,480.0,0.0,0.0
1944,51.0,40.0,270.0,2.0,0.0
1945,56.0,160.0,150.0,3.0,0.0
1946,59.0,0.0,150.0,3.0,0.0
1947,67.0,37.0,60.0,0.0,0.0
1948,51.0,8.0,270.0,2.0,0.0
1949,68.0,41.0,30.0,0.0,0.0
1950,67.0,38.0,30.0,0.0,0.0
1951,68.0,41.0,30.0,0.0,0.0
1952,58.0,6.0,150.0,3.0,0.0
1953,67.0,38.0,30.0,0.0,0.0
1954,68.0,40.0,30.0,0.0,0.0
1955,67.0,32.0,60.0,0.0,0.0
1956,68.0,41.0,60.0,0.0,0.0
1957,67.0,53.0,60.0,0.0,0.0
1958,61.0,0.0,150.0,3.0,0.0
1959,65.0,60.0,60.0,0.0,0.0
1960,67.0,280.0,60.0,0.0,0.0
1961,67.0,0.0,480.0,1.0,0.0
1962,56.0,40.0,270.0,2.0,0.0
1963,70.0,161.0,480.0,0.0,0.0
1964,61.0,160.0,150.0,3.0,0.0
1965,63.0,0.0,150.0,3.0,0.0
1966,56.0,404.0,300.0,2.0,0.0
1967,59.0,79.0,150.0,3.0,0.0
1968,68.0,70.0,240.0,0.0,0.0
1969,63.0,0.0,240.0,1.0,0.0
1970,68.0,0.0,240.0,0.0,0.0
1971,56.0,150.0,300.0,2.0,0.0
1972,60.0,54.0,240.0,1.0,0.0
1973,56.0,744.0,90.0,2.0,0.0
1974,60.0,0.0,90.0,1.0,0.0
1975,63.0,0.0,90.0,1.0,0.0
1976,68.0,18.0,90.0,0.0,0.0
1977,60.0,240.0,720.0,1.0,0.0
1978,68.0,0.0,720.0,0.0,0.0
1979,56.0,0.0,720.0,2.0,0.0
1980,63.0,0.0,720.0,1.0,0.0
1981,58.0,0.0,240.0,2.0,0.0
1982,67.0,0.0,240.0,0.0,0.0
1983,61.0,0.0,240.0,1.0,0.0
1984,63.0,234.0,240.0,1.0,0.0
1985,68.0,0.0,240.0,0.0,0.0
1986,60.0,204.0,240.0,2.0,0.0
1987,60.0,0.0,240.0,1.0,0.0
1988,63.0,0.0,240.0,1.0,0.0
1989,67.0,276.0,90.0,0.0,0.0
1990,61.0,0.0,90.0,1.0,0.0
1991,58.0,0.0,90.0,2.0,0.0
1992,63.0,0.0,90.0,1.0,0.0
1993,56.0,0.0,240.0,2.0,0.0
1994,63.0,204.0,240.0,1.0,0.0
1995,60.0,0.0,240.0,1.0,0.0
1996,68.0,0.0,240.0,0.0,0.0
1997,70.0,0.0,90.0,0.0,0.0
1998,49.0,0.0,90.0,2.0,0.0
1999,65.0,762.0,90.0,1.0,0.0
2000,51.0,0.0,720.0,2.0,0.0
2001,67.0,0.0,720.0,0.0,0.0
2002,58.0,0.0,720.0,1.0,0.0
2003,53.0,0.0,240.0,2.0,0.0
2004,63.0,240.0,15.0,1.0,0.0
2005,68.0,234.0,240.0,0.0,0.0
2006,55.0,0.0,240.0,2.0,0.0
2007,63.0,0.0,240.0,1.0,0.0
2008,70.0,204.0,240.0,0.0,0.0
2009,51.0,0.0,90.0,2.0,0.0
2010,63.0,276.0,90.0,1.0,0.0
2011,67.0,0.0,90.0,0.0,0.0
2012,53.0,0.0,240.0,2.0,0.0
2013,68.0,204.0,240.0,0.0,0.0
2014,63.0,0.0,240.0,1.0,0.0
2015,63.0,762.0,90.0,1.0,0.0
2016,70.0,0.0,90.0,0.0,0.0
2017,55.0,0.0,90.0,2.0,0.0
2018,56.0,240.0,720.0,2.0,0.0
2019,72.0,0.0,720.0,0.0,0.0
2020,70.0,234.0,240.0,0.0,0.0
2021,63.0,0.0,15.0,1.0,0.0
2022,55.0,0.0,240.0,2.0,0.0
2023,56.0,0.0,240.0,2.0,0.0
2024,63.0,0.0,240.0,1.0,0.0
2025,72.0,204.0,240.0,0.0,0.0
2026,56.0,0.0,90.0,2.0,0.0
2027,54.0,0.0,90.0,2.0,0.0
2028,72.0,0.0,90.0,0.0,0.0
2029,63.0,276.0,90.0,1.0,0.0
2030,56.0,0.0,240.0,2.0,0.0
2031,53.0,0.0,240.0,2.0,0.0
2032,65.0,204.0,240.0,1.0,0.0
2033,73.0,0.0,240.0,0.0,0.0
2034,65.0,276.0,90.0,1.0,0.0
2035,56.0,0.0,90.0,2.0,0.0
2036,73.0,0.0,90.0,0.0,0.0
2037,49.0,0.0,90.0,2.0,0.0
2038,56.0,204.0,240.0,2.0,0.0
2039,51.0,0.0,240.0,2.0,0.0
2040,63.0,0.0,240.0,1.0,0.0
2041,72.0,0.0,240.0,0.0,0.0
2042,56.0,0.0,90.0,2.0,0.0
2043,72.0,0.0,90.0,0.0,0.0
2044,63.0,0.0,90.0,1.0,0.0
2045,51.0,276.0,90.0,2.0,0.0
2046,70.0,0.0,240.0,0.0,0.0
2047,55.0,0.0,240.0,2.0,0.0
2048,52.0,0.0,240.0,2.0,0.0
2049,61.0,204.0,240.0,1.0,0.0
2050,52.0,0.0,90.0,2.0,0.0
2051,55.0,0.0,90.0,2.0,0.0
2052,61.0,276.0,90.0,1.0,0.0
2053,70.0,0.0,90.0,0.0,0.0
2054,68.0,204.0,240.0,0.0,0.0
2055,60.0,0.0,240.0,1.0,0.0
2056,53.0,0.0,240.0,2.0,0.0
2057,56.0,0.0,240.0,2.0,0.0
2058,53.0,0.0,90.0,2.0,0.0
2059,60.0,276.0,90.0,1.0,0.0
2060,68.0,0.0,90.0,0.0,0.0
2061,56.0,0.0,90.0,2.0,0.0
2062,69.0,204.0,240.0,0.0,0.0
2063,61.0,0.0,240.0,1.0,0.0
2064,51.0,0.0,240.0,2.0,0.0
2065,54.0,0.0,240.0,2.0,0.0
2066,54.0,402.0,90.0,2.0,0.0
2067,69.0,0.0,90.0,0.0,0.0
2068,51.0,0.0,90.0,2.0,0.0
2069,61.0,0.0,90.0,1.0,0.0
2070,70.0,354.0,360.0,0.0,0.0
2071,53.0,0.0,360.0,2.0,0.0
2072,49.0,0.0,360.0,2.0,0.0
2073,61.0,0.0,360.0,1.0,0.0
2074,46.0,0.0,240.0,2.0,0.0
2075,65.0,0.0,240.0,1.0,0.0
2076,61.0,0.0,240.0,1.0,0.0
2077,70.0,204.0,240.0,0.0,0.0
2078,70.0,0.0,90.0,0.0,0.0
2079,65.0,0.0,90.0,1.0,0.0
2080,61.0,276.0,90.0,1.0,0.0
2081,46.0,0.0,90.0,2.0,0.0
2082,60.0,0.0,240.0,1.0,0.0
2083,68.0,204.0,240.0,0.0,0.0
2084,51.0,0.0,240.0,2.0,0.0
2085,63.0,0.0,240.0,1.0,0.0
2086,68.0,0.0,90.0,0.0,0.0
2087,60.0,276.0,90.0,1.0,0.0
2088,51.0,0.0,90.0,2.0,0.0
2089,63.0,0.0,90.0,1.0,0.0
2090,39.0,0.0,240.0,2.0,0.0
2091,67.0,204.0,240.0,0.0,0.0
2092,58.0,0.0,240.0,1.0,0.0
2093,63.0,0.0,240.0,1.0,0.0
2094,58.0,0.0,90.0,1.0,0.0
2095,39.0,0.0,90.0,2.0,0.0
2096,63.0,402.0,90.0,1.0,0.0
2097,67.0,0.0,90.0,0.0,0.0
2098,60.0,0.0,360.0,1.0,0.0
2099,63.0,0.0,360.0,1.0,0.0
2100,44.0,0.0,360.0,2.0,0.0
2101,68.0,240.0,360.0,0.0,0.0
2102,80.0,120.0,120.0,1.0,0.0
2103,75.0,120.0,120.0,1.0,0.0
2104,80.0,120.0,120.0,1.0,0.0
2105,75.0,360.0,120.0,1.0,0.0
2106,72.0,240.0,360.0,1.0,0.0
2107,75.0,120.0,120.0,1.0,0.0
2108,63.0,0.0,120.0,2.0,0.0
2109,72.0,0.0,120.0,1.0,0.0
2110,60.0,120.0,120.0,2.0,0.0
2111,75.0,120.0,120.0,1.0,0.0
2112,63.0,0.0,120.0,2.0,0.0
2113,60.0,720.0,120.0,2.0,0.0
2114,72.0,0.0,120.0,1.0,0.0
2115,56.0,240.0,720.0,2.0,0.0
2116,68.0,0.0,720.0,0.0,0.0
2117,60.0,0.0,720.0,1.0,0.0
2118,63.0,0.0,720.0,1.0,0.0
2119,67.0,0.0,240.0,0.0,0.0
2120,61.0,234.0,240.0,1.0,0.0
2121,58.0,0.0,240.0,2.0,0.0
2122,63.0,0.0,240.0,1.0,0.0
2123,60.0,0.0,240.0,2.0,0.0
2124,60.0,0.0,240.0,1.0,0.0
2125,68.0,0.0,240.0,0.0,0.0
2126,63.0,204.0,240.0,1.0,0.0
2127,58.0,0.0,90.0,2.0,0.0
2128,61.0,0.0,90.0,1.0,0.0
2129,67.0,276.0,90.0,0.0,0.0
2130,63.0,0.0,90.0,1.0,0.0
2131,60.0,0.0,240.0,1.0,0.0
2132,63.0,0.0,240.0,1.0,0.0
2133,68.0,0.0,240.0,0.0,0.0
2134,56.0,204.0,240.0,2.0,0.0
2135,65.0,762.0,90.0,1.0,0.0
2136,70.0,0.0,90.0,0.0,0.0
2137,49.0,0.0,90.0,2.0,0.0
2138,51.0,240.0,720.0,2.0,0.0
2139,58.0,0.0,720.0,1.0,0.0
2140,67.0,0.0,720.0,0.0,0.0
2141,63.0,0.0,15.0,1.0,0.0
2142,68.0,234.0,240.0,0.0,0.0
2143,53.0,0.0,240.0,2.0,0.0
2144,55.0,0.0,240.0,2.0,0.0
2145,70.0,204.0,240.0,0.0,0.0
2146,63.0,0.0,15.0,1.0,0.0
2147,67.0,0.0,90.0,0.0,0.0
2148,51.0,276.0,90.0,2.0,0.0
2149,63.0,0.0,90.0,1.0,0.0
2150,68.0,0.0,240.0,0.0,0.0
2151,63.0,204.0,240.0,1.0,0.0
2152,53.0,0.0,240.0,2.0,0.0
2153,70.0,762.0,90.0,0.0,0.0
2154,63.0,0.0,90.0,1.0,0.0
2155,55.0,0.0,90.0,2.0,0.0
2156,72.0,0.0,720.0,0.0,0.0
2157,56.0,240.0,720.0,2.0,0.0
2158,70.0,0.0,240.0,0.0,0.0
2159,63.0,0.0,15.0,1.0,0.0
2160,55.0,234.0,240.0,2.0,0.0
2161,63.0,204.0,240.0,1.0,0.0
2162,72.0,0.0,240.0,0.0,0.0
2163,56.0,0.0,240.0,2.0,0.0
2164,56.0,276.0,90.0,2.0,0.0
2165,72.0,0.0,90.0,0.0,0.0
2166,63.0,0.0,90.0,1.0,0.0
2167,54.0,0.0,90.0,2.0,0.0
2168,65.0,0.0,240.0,1.0,0.0
2169,53.0,0.0,240.0,2.0,0.0
2170,73.0,204.0,240.0,0.0,0.0
2171,56.0,0.0,240.0,2.0,0.0
2172,65.0,0.0,90.0,1.0,0.0
2173,73.0,0.0,90.0,0.0,0.0
2174,56.0,276.0,90.0,2.0,0.0
2175,49.0,0.0,90.0,2.0,0.0
2176,63.0,204.0,240.0,1.0,0.0
2177,72.0,0.0,240.0,0.0,0.0
2178,56.0,0.0,240.0,2.0,0.0
2179,51.0,0.0,240.0,2.0,0.0
2180,63.0,276.0,90.0,1.0,0.0
2181,56.0,0.0,90.0,2.0,0.0
2182,51.0,0.0,90.0,2.0,0.0
2183,72.0,0.0,90.0,0.0,0.0
2184,55.0,0.0,240.0,2.0,0.0
2185,52.0,0.0,240.0,2.0,0.0
2186,61.0,204.0,240.0,1.0,0.0
2187,70.0,0.0,240.0,0.0,0.0
2188,55.0,0.0,90.0,2.0,0.0
2189,52.0,276.0,90.0,2.0,0.0
2190,61.0,0.0,90.0,1.0,0.0
2191,70.0,0.0,90.0,0.0,0.0
2192,56.0,0.0,240.0,2.0,0.0
2193,68.0,0.0,240.0,0.0,0.0
2194,53.0,204.0,240.0,2.0,0.0
2195,60.0,0.0,240.0,1.0,0.0
2196,68.0,0.0,90.0,0.0,0.0
2197,56.0,0.0,90.0,2.0,0.0
2198,53.0,0.0,90.0,2.0,0.0
2199,60.0,276.0,90.0,1.0,0.0
2200,61.0,0.0,240.0,1.0,0.0
2201,69.0,204.0,240.0,0.0,0.0
2202,54.0,0.0,240.0,2.0,0.0
2203,51.0,0.0,240.0,2.0,0.0
2204,61.0,0.0,90.0,1.0,0.0
2205,69.0,402.0,90.0,0.0,0.0
2206,51.0,0.0,90.0,2.0,0.0
2207,54.0,0.0,90.0,2.0,0.0
2208,61.0,354.0,360.0,1.0,0.0
2209,49.0,0.0,360.0,2.0,0.0
2210,53.0,0.0,360.0,2.0,0.0
2211,70.0,0.0,360.0,0.0,0.0
2212,70.0,0.0,240.0,0.0,0.0
2213,46.0,0.0,240.0,2.0,0.0
2214,65.0,0.0,240.0,1.0,0.0
2215,61.0,204.0,240.0,1.0,0.0
2216,65.0,276.0,90.0,1.0,0.0
2217,61.0,0.0,90.0,1.0,0.0
2218,46.0,0.0,90.0,2.0,0.0
2219,70.0,0.0,90.0,0.0,0.0
2220,60.0,204.0,240.0,1.0,0.0
2221,63.0,0.0,240.0,1.0,0.0
2222,68.0,0.0,240.0,0.0,0.0
2223,51.0,0.0,240.0,2.0,0.0
2224,51.0,276.0,90.0,2.0,0.0
2225,68.0,0.0,90.0,0.0,0.0
2226,63.0,0.0,90.0,1.0,0.0
2227,60.0,0.0,90.0,1.0,0.0
2228,58.0,0.0,240.0,1.0,0.0
2229,63.0,0.0,240.0,1.0,0.0
2230,39.0,204.0,240.0,2.0,0.0
2231,67.0,0.0,240.0,0.0,0.0
2232,63.0,0.0,90.0,1.0,0.0
2233,58.0,0.0,90.0,1.0,0.0
2234,67.0,0.0,90.0,0.0,0.0
2235,39.0,402.0,90.0,2.0,0.0
2236,63.0,240.0,360.0,1.0,0.0
2237,60.0,0.0,360.0,1.0,0.0
2238,68.0,0.0,360.0,0.0,0.0
2239,44.0,0.0,360.0,2.0,0.0
2240,63.0,120.0,120.0,2.0,0.0
2241,75.0,0.0,120.0,1.0,0.0
2242,72.0,0.0,120.0,1.0,0.0
2243,60.0,120.0,120.0,2.0,0.0
2244,75.0,0.0,120.0,1.0,0.0
2245,63.0,120.0,120.0,2.0,0.0
2246,72.0,360.0,120.0,1.0,0.0
2247,60.0,0.0,120.0,2.0,0.0
2248,68.0,354.0,360.0,1.0,0.0
2249,56.0,0.0,360.0,2.0,0.0
2250,60.0,0.0,240.0,2.0,0.0
2251,75.0,0.0,240.0,0.0,0.0
2252,63.0,204.0,240.0,1.0,0.0
2253,68.0,0.0,240.0,1.0,0.0
2254,48.0,0.0,240.0,2.0,0.0
2255,68.0,0.0,90.0,1.0,0.0
2256,63.0,0.0,90.0,1.0,0.0
2257,75.0,0.0,90.0,0.0,0.0
2258,60.0,642.0,90.0,2.0,0.0
2259,48.0,0.0,90.0,2.0,0.0
2260,68.0,7.0,600.0,1.0,0.0
2261,63.0,246.0,630.0,1.0,0.0
2262,60.0,7.0,600.0,2.0,0.0
2263,48.0,8.0,600.0,2.0,0.0
2264,75.0,8.0,630.0,0.0,0.0
2265,68.0,318.0,150.0,1.0,0.0
2266,75.0,0.0,150.0,0.0,0.0
2267,60.0,0.0,150.0,2.0,0.0
2268,48.0,0.0,150.0,2.0,0.0
2269,63.0,0.0,150.0,1.0,0.0
2270,48.0,0.0,240.0,2.0,0.0
2271,68.0,1.0,240.0,1.0,0.0
2272,63.0,203.0,240.0,1.0,0.0
2273,60.0,0.0,240.0,2.0,0.0
2274,75.0,0.0,240.0,0.0,0.0
2275,68.0,0.0,90.0,1.0,0.0
2276,63.0,0.0,90.0,1.0,0.0
2277,60.0,0.0,90.0,2.0,0.0
2278,48.0,0.0,90.0,2.0,0.0
2279,75.0,276.0,90.0,0.0,0.0
2280,73.0,0.0,240.0,0.0,0.0
2281,46.0,204.0,240.0,2.0,0.0
2282,67.0,0.0,240.0,1.0,0.0
2283,63.0,0.0,240.0,1.0,0.0
2284,58.0,0.0,240.0,2.0,0.0
2285,57.0,0.0,90.0,2.0,0.0
2286,72.0,0.0,90.0,0.0,0.0
2287,66.0,0.0,90.0,1.0,0.0
2288,63.0,402.0,90.0,1.0,0.0
2289,45.0,0.0,90.0,2.0,0.0
2290,73.0,0.0,360.0,0.0,0.0
2291,63.0,0.0,360.0,1.0,0.0
2292,58.0,240.0,360.0,2.0,0.0
2293,46.0,0.0,360.0,2.0,0.0
2294,67.0,0.0,360.0,1.0,0.0
2295,46.0,120.0,120.0,2.0,0.0
2296,43.0,120.0,120.0,2.0,0.0
2297,46.0,120.0,120.0,2.0,0.0
2298,43.0,360.0,120.0,2.0,0.0
2299,39.0,354.0,360.0,2.0,0.0
2300,46.0,0.0,240.0,2.0,0.0
2301,73.0,0.0,240.0,0.0,0.0
2302,58.0,0.0,240.0,2.0,0.0
2303,67.0,204.0,240.0,1.0,0.0
2304,63.0,0.0,240.0,1.0,0.0
2305,67.0,0.0,90.0,1.0,0.0
2306,63.0,0.0,90.0,1.0,0.0
2307,58.0,0.0,90.0,2.0,0.0
2308,73.0,642.0,90.0,0.0,0.0
2309,46.0,0.0,90.0,2.0,0.0
2310,46.0,0.0,600.0,2.0,0.0
2311,58.0,7.0,600.0,2.0,0.0
2312,63.0,261.0,600.0,1.0,0.0
2313,67.0,8.0,600.0,1.0,0.0
2314,73.0,0.0,600.0,0.0,0.0
2315,73.0,0.0,150.0,0.0,0.0
2316,63.0,318.0,150.0,1.0,0.0
2317,67.0,0.0,150.0,1.0,0.0
2318,58.0,0.0,150.0,2.0,0.0
2319,46.0,0.0,150.0,2.0,0.0
2320,46.0,204.0,240.0,2.0,0.0
2321,58.0,0.0,240.0,2.0,0.0
2322,73.0,0.0,240.0,0.0,0.0
2323,67.0,0.0,240.0,1.0,0.0
2324,63.0,0.0,240.0,1.0,0.0
2325,63.0,0.0,90.0,1.0,0.0
2326,58.0,0.0,90.0,2.0,0.0
2327,46.0,0.0,90.0,2.0,0.0
2328,67.0,0.0,90.0,1.0,0.0
2329,73.0,276.0,90.0,0.0,0.0
2330,44.0,0.0,240.0,2.0,0.0
2331,56.0,0.0,240.0,2.0,0.0
2332,72.0,0.0,240.0,0.0,0.0
2333,63.0,204.0,240.0,1.0,0.0
2334,68.0,0.0,240.0,1.0,0.0
2335,65.0,0.0,90.0,1.0,0.0
2336,49.0,0.0,90.0,2.0,0.0
2337,61.0,402.0,90.0,2.0,0.0
2338,70.0,0.0,90.0,0.0,0.0
2339,64.0,0.0,360.0,1.0,0.0
2340,48.0,240.0,360.0,2.0,0.0
2341,60.0,0.0,360.0,2.0,0.0
2342,72.0,0.0,360.0,0.0,0.0
2343,67.0,120.0,120.0,1.0,0.0
2344,55.0,0.0,120.0,2.0,0.0
2345,52.0,120.0,120.0,2.0,0.0
2346,64.0,0.0,120.0,1.0,0.0
2347,55.0,120.0,120.0,2.0,0.0
2348,67.0,0.0,120.0,1.0,0.0
2349,52.0,360.0,120.0,2.0,0.0
2350,64.0,0.0,120.0,1.0,0.0
2351,60.0,354.0,360.0,1.0,0.0
2352,48.0,0.0,360.0,2.0,0.0
2353,72.0,204.0,240.0,0.0,0.0
2354,64.0,0.0,240.0,1.0,0.0
2355,48.0,0.0,240.0,2.0,0.0
2356,55.0,0.0,240.0,2.0,0.0
2357,55.0,402.0,90.0,2.0,0.0
2358,48.0,0.0,90.0,2.0,0.0
2359,72.0,0.0,90.0,0.0,0.0
2360,64.0,0.0,90.0,1.0,0.0
2361,55.0,0.0,360.0,2.0,0.0
2362,48.0,0.0,360.0,2.0,0.0
2363,64.0,0.0,360.0,1.0,0.0
2364,72.0,354.0,360.0,0.0,0.0
2365,55.0,0.0,240.0,2.0,0.0
2366,48.0,204.0,240.0,2.0,0.0
2367,64.0,0.0,240.0,1.0,0.0
2368,72.0,0.0,240.0,0.0,0.0
2369,72.0,402.0,90.0,0.0,0.0
2370,55.0,0.0,90.0,2.0,0.0
2371,64.0,0.0,90.0,1.0,0.0
2372,48.0,0.0,90.0,2.0,0.0
2373,53.0,0.0,360.0,2.0,0.0
2374,65.0,240.0,360.0,1.0,0.0
2375,72.0,0.0,360.0,0.0,0.0
2376,56.0,0.0,360.0,2.0,0.0
2377,56.0,6.0,240.0,2.0,0.0
2378,53.0,0.0,240.0,2.0,0.0
2379,73.0,114.0,120.0,0.0,0.0
2380,72.0,120.0,120.0,0.0,0.0
2381,70.0,78.0,120.0,0.0,0.0
2382,53.0,42.0,90.0,2.0,0.0
2383,68.0,480.0,120.0,0.0,0.0
2384,56.0,0.0,90.0,2.0,0.0
2385,54.0,240.0,480.0,2.0,0.0
2386,75.0,0.0,720.0,0.0,0.0
2387,72.0,0.0,720.0,1.0,0.0
2388,53.0,120.0,120.0,2.0,0.0
2389,73.0,0.0,240.0,1.0,0.0
2390,68.0,0.0,15.0,1.0,0.0
2391,77.0,120.0,240.0,0.0,0.0
2392,51.0,120.0,120.0,2.0,0.0
2393,49.0,0.0,120.0,2.0,0.0
2394,48.0,114.0,120.0,2.0,0.0
2395,75.0,0.0,240.0,1.0,0.0
2396,68.0,0.0,15.0,1.0,0.0
2397,78.0,0.0,240.0,0.0,0.0
2398,49.0,120.0,120.0,2.0,0.0
2399,51.0,78.0,120.0,2.0,0.0
2400,49.0,120.0,120.0,2.0,0.0
2401,75.0,0.0,90.0,1.0,0.0
2402,78.0,42.0,90.0,0.0,0.0
2403,48.0,114.0,120.0,2.0,0.0
2404,68.0,6.0,240.0,1.0,0.0
2405,78.0,0.0,240.0,0.0,0.0
2406,75.0,0.0,240.0,1.0,0.0
2407,44.0,120.0,120.0,2.0,0.0
2408,46.0,78.0,120.0,2.0,0.0
2409,78.0,42.0,90.0,0.0,0.0
2410,75.0,0.0,90.0,1.0,0.0
2411,48.0,120.0,120.0,2.0,0.0
2412,49.0,120.0,120.0,2.0,0.0
2413,73.0,0.0,720.0,1.0,0.0
2414,68.0,0.0,720.0,1.0,0.0
2415,77.0,120.0,720.0,0.0,0.0
2416,48.0,120.0,120.0,2.0,0.0
2417,49.0,120.0,120.0,2.0,0.0
2418,48.0,120.0,120.0,2.0,0.0
2419,49.0,120.0,120.0,2.0,0.0
2420,46.0,0.0,120.0,2.0,0.0
2421,48.0,120.0,120.0,2.0,0.0
2422,72.0,0.0,120.0,1.0,0.0
2423,75.0,0.0,120.0,0.0,0.0
2424,70.0,0.0,120.0,1.0,0.0
2425,49.0,0.0,120.0,2.0,0.0
2426,73.0,120.0,120.0,0.0,0.0
2427,68.0,0.0,240.0,1.0,0.0
2428,72.0,6.0,240.0,0.0,0.0
2429,51.0,114.0,120.0,2.0,0.0
2430,50.0,120.0,120.0,2.0,0.0
2431,51.0,78.0,120.0,2.0,0.0
2432,68.0,0.0,90.0,1.0,0.0
2433,50.0,120.0,120.0,2.0,0.0
2434,72.0,42.0,90.0,0.0,0.0
2435,61.0,0.0,240.0,1.0,0.0
2436,51.0,114.0,120.0,2.0,0.0
2437,70.0,6.0,240.0,0.0,0.0
2438,39.0,120.0,120.0,2.0,0.0
2439,41.0,78.0,120.0,2.0,0.0
2440,61.0,0.0,90.0,1.0,0.0
2441,43.0,156.0,120.0,2.0,0.0
2442,70.0,42.0,90.0,0.0,0.0
2443,44.0,168.0,180.0,2.0,0.0
2444,60.0,36.0,150.0,1.0,0.0
2445,68.0,0.0,150.0,0.0,0.0
2446,56.0,120.0,120.0,0.0,0.0
2447,60.0,120.0,120.0,0.0,0.0
2448,58.0,120.0,120.0,0.0,0.0
2449,61.0,120.0,120.0,0.0,0.0
2450,60.0,120.0,120.0,0.0,0.0
2451,63.0,120.0,120.0,0.0,0.0
2452,61.0,120.0,120.0,0.0,0.0
2453,65.0,120.0,120.0,0.0,0.0
2454,63.0,120.0,120.0,0.0,0.0
2455,67.0,120.0,120.0,0.0,0.0
2456,65.0,120.0,120.0,0.0,0.0
2457,68.0,120.0,120.0,0.0,0.0
2458,67.0,120.0,120.0,0.0,0.0
2459,70.0,240.0,120.0,0.0,0.0
2460,68.0,24.0,450.0,0.0,0.0
2461,56.0,0.0,480.0,2.0,0.0
2462,63.0,120.0,120.0,1.0,0.0
2463,60.0,96.0,120.0,1.0,0.0
2464,63.0,120.0,120.0,1.0,0.0
2465,60.0,84.0,150.0,2.0,0.0
2466,68.0,36.0,120.0,0.0,0.0
2467,63.0,120.0,120.0,1.0,0.0
2468,58.0,84.0,150.0,2.0,0.0
2469,67.0,36.0,120.0,0.0,0.0
2470,63.0,120.0,120.0,1.0,0.0
2471,68.0,36.0,120.0,0.0,0.0
2472,60.0,84.0,150.0,2.0,0.0
2473,63.0,120.0,120.0,1.0,0.0
2474,67.0,36.0,120.0,0.0,0.0
2475,58.0,84.0,150.0,2.0,0.0
2476,63.0,120.0,120.0,1.0,0.0
2477,60.0,84.0,150.0,2.0,0.0
2478,68.0,36.0,120.0,0.0,0.0
2479,63.0,120.0,120.0,1.0,0.0
2480,70.0,36.0,120.0,0.0,0.0
2481,61.0,84.0,150.0,2.0,0.0
2482,63.0,240.0,120.0,1.0,0.0
2483,51.0,120.0,480.0,2.0,0.0
2484,67.0,24.0,450.0,0.0,0.0
2485,63.0,120.0,120.0,1.0,0.0
2486,62.0,96.0,120.0,1.0,0.0
2487,63.0,0.0,120.0,1.0,0.0
2488,67.0,36.0,120.0,0.0,0.0
2489,51.0,84.0,150.0,2.0,0.0
2490,63.0,120.0,120.0,1.0,0.0
2491,68.0,36.0,120.0,0.0,0.0
2492,53.0,84.0,150.0,2.0,0.0
2493,63.0,120.0,120.0,1.0,0.0
2494,70.0,36.0,120.0,0.0,0.0
2495,55.0,84.0,150.0,2.0,0.0
2496,63.0,120.0,120.0,1.0,0.0
2497,67.0,36.0,120.0,0.0,0.0
2498,51.0,84.0,150.0,2.0,0.0
2499,63.0,120.0,120.0,1.0,0.0
2500,68.0,36.0,120.0,0.0,0.0
2501,53.0,84.0,150.0,2.0,0.0
2502,63.0,120.0,120.0,1.0,0.0
2503,70.0,36.0,120.0,0.0,0.0
2504,55.0,84.0,150.0,2.0,0.0
2505,63.0,240.0,120.0,1.0,0.0
2506,56.0,0.0,480.0,2.0,0.0
2507,72.0,42.0,450.0,0.0,0.0
2508,68.0,120.0,120.0,1.0,0.0
2509,63.0,78.0,120.0,1.0,0.0
2510,68.0,120.0,120.0,1.0,0.0
2511,56.0,84.0,150.0,2.0,0.0
2512,72.0,36.0,120.0,0.0,0.0
2513,63.0,120.0,120.0,1.0,0.0
2514,70.0,36.0,120.0,0.0,0.0
2515,55.0,84.0,150.0,2.0,0.0
2516,63.0,120.0,120.0,1.0,0.0
2517,56.0,84.0,150.0,2.0,0.0
2518,72.0,36.0,120.0,0.0,0.0
2519,63.0,120.0,120.0,1.0,0.0
2520,54.0,84.0,150.0,2.0,0.0
2521,72.0,36.0,120.0,0.0,0.0
2522,68.0,120.0,120.0,1.0,0.0
2523,53.0,84.0,150.0,2.0,0.0
2524,73.0,36.0,120.0,0.0,0.0
2525,68.0,120.0,120.0,1.0,0.0
2526,73.0,36.0,120.0,0.0,0.0
2527,49.0,84.0,150.0,2.0,0.0
2528,65.0,240.0,120.0,1.0,0.0
2529,72.0,42.0,450.0,0.0,0.0
2530,51.0,120.0,480.0,2.0,0.0
2531,68.0,120.0,120.0,1.0,0.0
2532,63.0,78.0,120.0,1.0,0.0
2533,68.0,0.0,120.0,1.0,0.0
2534,72.0,36.0,120.0,0.0,0.0
2535,51.0,84.0,150.0,2.0,0.0
2536,63.0,120.0,120.0,1.0,0.0
2537,49.0,84.0,150.0,2.0,0.0
2538,70.0,36.0,120.0,0.0,0.0
2539,67.0,0.0,120.0,1.0,0.0
2540,63.0,120.0,120.0,1.0,0.0
2541,48.0,84.0,150.0,2.0,0.0
2542,68.0,36.0,120.0,0.0,0.0
2543,63.0,120.0,120.0,1.0,0.0
2544,67.0,36.0,120.0,0.0,0.0
2545,46.0,84.0,150.0,2.0,0.0
2546,63.0,120.0,120.0,1.0,0.0
2547,68.0,36.0,120.0,0.0,0.0
2548,48.0,84.0,150.0,2.0,0.0
2549,63.0,120.0,120.0,1.0,0.0
2550,53.0,84.0,150.0,2.0,0.0
2551,69.0,36.0,120.0,0.0,0.0
2552,63.0,120.0,120.0,1.0,0.0
2553,70.0,36.0,120.0,0.0,0.0
2554,46.0,84.0,150.0,2.0,0.0
2555,61.0,120.0,120.0,1.0,0.0
2556,70.0,36.0,120.0,0.0,0.0
2557,48.0,84.0,150.0,2.0,0.0
2558,63.0,120.0,120.0,1.0,0.0
2559,70.0,36.0,120.0,0.0,0.0
2560,49.0,84.0,150.0,2.0,0.0
2561,65.0,120.0,120.0,1.0,0.0
2562,53.0,84.0,150.0,2.0,0.0
2563,68.0,36.0,120.0,0.0,0.0
2564,61.0,120.0,120.0,1.0,0.0
2565,68.0,36.0,120.0,0.0,0.0
2566,51.0,84.0,150.0,2.0,0.0
2567,60.0,120.0,120.0,1.0,0.0
2568,50.0,84.0,150.0,2.0,0.0
2569,68.0,36.0,120.0,0.0,0.0
2570,59.0,120.0,120.0,1.0,0.0
2571,68.0,36.0,120.0,0.0,0.0
2572,51.0,84.0,150.0,2.0,0.0
2573,58.0,120.0,120.0,1.0,0.0
2574,39.0,84.0,150.0,2.0,0.0
2575,67.0,36.0,120.0,0.0,0.0
2576,61.0,156.0,120.0,1.0,0.0
2577,68.0,0.0,150.0,0.0,0.0
2578,60.0,84.0,150.0,1.0,0.0
2579,44.0,120.0,240.0,2.0,0.0
2580,63.0,120.0,120.0,0.0,0.0
2581,67.0,120.0,120.0,0.0,0.0
2582,65.0,120.0,120.0,0.0,0.0
2583,68.0,120.0,120.0,0.0,0.0
2584,67.0,120.0,120.0,0.0,0.0
2585,70.0,120.0,120.0,0.0,0.0
2586,68.0,120.0,120.0,0.0,0.0
2587,72.0,120.0,120.0,0.0,0.0
2588,70.0,120.0,120.0,0.0,0.0
2589,73.0,120.0,120.0,0.0,0.0
2590,72.0,120.0,120.0,0.0,0.0
2591,75.0,120.0,120.0,0.0,0.0
2592,73.0,120.0,120.0,0.0,0.0
2593,77.0,240.0,120.0,0.0,0.0
2594,75.0,60.0,420.0,0.0,0.0
2595,60.0,120.0,720.0,2.0,0.0
2596,68.0,120.0,120.0,1.0,0.0
2597,63.0,60.0,120.0,1.0,0.0
2598,68.0,120.0,120.0,1.0,0.0
2599,75.0,120.0,120.0,0.0,0.0
2600,68.0,0.0,120.0,1.0,0.0
2601,58.0,0.0,240.0,2.0,0.0
2602,75.0,120.0,120.0,0.0,0.0
2603,66.0,120.0,120.0,1.0,0.0
2604,75.0,36.0,120.0,0.0,0.0
2605,57.0,84.0,150.0,2.0,0.0
2606,65.0,120.0,120.0,1.0,0.0
2607,75.0,36.0,120.0,0.0,0.0
2608,54.0,84.0,150.0,2.0,0.0
2609,70.0,120.0,120.0,1.0,0.0
2610,53.0,84.0,150.0,2.0,0.0
2611,75.0,36.0,120.0,0.0,0.0
2612,69.0,120.0,120.0,1.0,0.0
2613,54.0,84.0,150.0,2.0,0.0
2614,75.0,36.0,120.0,0.0,0.0
2615,70.0,78.0,120.0,1.0,0.0
2616,53.0,78.0,90.0,2.0,0.0
2617,75.0,60.0,300.0,0.0,0.0
2618,72.0,84.0,150.0,1.0,0.0
2619,41.0,60.0,120.0,2.0,0.0
2620,43.0,36.0,120.0,2.0,0.0
2621,84.0,84.0,150.0,0.0,0.0
2622,45.0,120.0,120.0,2.0,0.0
2623,46.0,36.0,120.0,2.0,0.0
2624,73.0,60.0,300.0,0.0,0.0
2625,70.0,84.0,150.0,1.0,0.0
2626,48.0,60.0,120.0,2.0,0.0
2627,49.0,36.0,120.0,2.0,0.0
2628,82.0,84.0,150.0,0.0,0.0
2629,51.0,120.0,120.0,2.0,0.0
2630,72.0,60.0,300.0,0.0,0.0
2631,53.0,36.0,120.0,2.0,0.0
2632,69.0,84.0,150.0,1.0,0.0
2633,52.0,60.0,120.0,2.0,0.0
2634,53.0,36.0,120.0,2.0,0.0
2635,81.0,84.0,150.0,0.0,0.0
2636,54.0,120.0,120.0,2.0,0.0
2637,53.0,120.0,120.0,2.0,0.0
2638,51.0,120.0,120.0,2.0,0.0
2639,70.0,0.0,120.0,0.0,0.0
2640,49.0,120.0,120.0,2.0,0.0
2641,48.0,156.0,120.0,2.0,0.0
2642,72.0,0.0,120.0,0.0,0.0
2643,46.0,84.0,150.0,2.0,0.0
2644,73.0,42.0,450.0,0.0,0.0
2645,65.0,120.0,120.0,1.0,0.0
2646,61.0,78.0,120.0,1.0,0.0
2647,58.0,0.0,480.0,2.0,0.0
2648,65.0,120.0,120.0,1.0,0.0
2649,73.0,120.0,120.0,0.0,0.0
2650,65.0,120.0,120.0,1.0,0.0
2651,73.0,120.0,120.0,0.0,0.0
2652,56.0,120.0,240.0,2.0,0.0
2653,64.0,0.0,120.0,1.0,0.0
2654,73.0,36.0,120.0,0.0,0.0
2655,55.0,84.0,150.0,2.0,0.0
2656,63.0,120.0,120.0,1.0,0.0
2657,73.0,36.0,120.0,0.0,0.0
2658,52.0,84.0,150.0,2.0,0.0
2659,68.0,120.0,120.0,1.0,0.0
2660,73.0,36.0,120.0,0.0,0.0
2661,51.0,84.0,150.0,2.0,0.0
2662,67.0,120.0,120.0,1.0,0.0
2663,52.0,84.0,150.0,2.0,0.0
2664,73.0,36.0,120.0,0.0,0.0
2665,68.0,78.0,120.0,1.0,0.0
2666,73.0,60.0,300.0,0.0,0.0
2667,51.0,78.0,90.0,2.0,0.0
2668,70.0,84.0,150.0,1.0,0.0
2669,39.0,60.0,120.0,2.0,0.0
2670,41.0,36.0,120.0,2.0,0.0
2671,82.0,84.0,150.0,0.0,0.0
2672,43.0,120.0,120.0,2.0,0.0
2673,72.0,60.0,300.0,0.0,0.0
2674,68.0,84.0,150.0,1.0,0.0
2675,44.0,36.0,120.0,2.0,0.0
2676,46.0,60.0,120.0,2.0,0.0
2677,48.0,36.0,120.0,2.0,0.0
2678,80.0,84.0,150.0,0.0,0.0
2679,50.0,120.0,120.0,2.0,0.0
2680,67.0,84.0,150.0,1.0,0.0
2681,51.0,36.0,120.0,2.0,0.0
2682,70.0,60.0,300.0,0.0,0.0
2683,50.0,60.0,120.0,2.0,0.0
2684,79.0,84.0,150.0,0.0,0.0
2685,51.0,36.0,120.0,2.0,0.0
2686,53.0,120.0,120.0,2.0,0.0
2687,51.0,120.0,120.0,2.0,0.0
2688,49.0,0.0,120.0,2.0,0.0
2689,67.0,120.0,120.0,0.0,0.0
2690,48.0,0.0,120.0,2.0,0.0
2691,68.0,120.0,120.0,0.0,0.0
2692,46.0,0.0,120.0,2.0,0.0
2693,70.0,156.0,120.0,0.0,0.0
2694,44.0,84.0,150.0,2.0,0.0
2695,72.0,6.0,480.0,0.0,0.0
2696,68.0,120.0,120.0,1.0,0.0
2697,56.0,0.0,480.0,2.0,0.0
2698,63.0,114.0,120.0,1.0,0.0
2699,68.0,120.0,120.0,1.0,0.0
2700,72.0,120.0,120.0,0.0,0.0
2701,68.0,120.0,120.0,1.0,0.0
2702,55.0,0.0,240.0,2.0,0.0
2703,72.0,120.0,120.0,0.0,0.0
2704,68.0,120.0,120.0,1.0,0.0
2705,53.0,84.0,150.0,2.0,0.0
2706,73.0,36.0,120.0,0.0,0.0
2707,68.0,120.0,120.0,1.0,0.0
2708,72.0,36.0,120.0,0.0,0.0
2709,51.0,84.0,150.0,2.0,0.0
2710,67.0,120.0,120.0,1.0,0.0
2711,70.0,36.0,120.0,0.0,0.0
2712,49.0,84.0,150.0,2.0,0.0
2713,65.0,120.0,120.0,1.0,0.0
2714,48.0,84.0,150.0,2.0,0.0
2715,68.0,36.0,120.0,0.0,0.0
2716,63.0,156.0,120.0,1.0,0.0
2717,72.0,42.0,450.0,0.0,0.0
2718,44.0,84.0,150.0,2.0,0.0
2719,68.0,120.0,120.0,1.0,0.0
2720,63.0,78.0,120.0,1.0,0.0
2721,56.0,0.0,480.0,2.0,0.0
2722,68.0,120.0,120.0,1.0,0.0
2723,72.0,120.0,120.0,0.0,0.0
2724,68.0,120.0,120.0,1.0,0.0
2725,58.0,120.0,240.0,2.0,0.0
2726,73.0,120.0,120.0,0.0,0.0
2727,68.0,0.0,120.0,1.0,0.0
2728,60.0,84.0,150.0,2.0,0.0
2729,75.0,36.0,120.0,0.0,0.0
2730,68.0,120.0,120.0,1.0,0.0
2731,59.0,84.0,150.0,2.0,0.0
2732,74.0,36.0,120.0,0.0,0.0
2733,68.0,120.0,120.0,1.0,0.0
2734,60.0,84.0,150.0,2.0,0.0
2735,75.0,36.0,120.0,0.0,0.0
2736,68.0,120.0,120.0,1.0,0.0
2737,60.0,84.0,150.0,2.0,0.0
2738,76.0,36.0,120.0,0.0,0.0
2739,68.0,156.0,120.0,1.0,0.0
2740,61.0,84.0,150.0,2.0,0.0
2741,77.0,0.0,240.0,0.0,0.0
2742,68.0,120.0,120.0,1.0,0.0
2743,70.0,36.0,120.0,1.0,0.0
2744,61.0,84.0,150.0,2.0,0.0
2745,68.0,156.0,120.0,1.0,0.0
2746,65.0,84.0,150.0,2.0,0.0
2747,73.0,120.0,240.0,0.0,0.0
2748,68.0,0.0,120.0,1.0,0.0
2749,65.0,84.0,150.0,2.0,0.0
2750,70.0,36.0,120.0,1.0,0.0
2751,68.0,156.0,120.0,1.0,0.0
2752,63.0,84.0,150.0,2.0,0.0
2753,72.0,0.0,240.0,0.0,0.0
2754,68.0,120.0,120.0,1.0,0.0
2755,63.0,84.0,150.0,2.0,0.0
2756,70.0,36.0,120.0,1.0,0.0
2757,68.0,156.0,120.0,1.0,0.0
2758,51.0,84.0,150.0,2.0,0.0
2759,70.0,120.0,240.0,0.0,0.0
2760,67.0,0.0,120.0,1.0,0.0
2761,51.0,84.0,150.0,2.0,0.0
2762,65.0,36.0,120.0,1.0,0.0
2763,67.0,156.0,120.0,1.0,0.0
2764,56.0,120.0,240.0,2.0,0.0
2765,68.0,84.0,150.0,0.0,0.0
2766,63.0,120.0,120.0,0.0,0.0
2767,67.0,120.0,120.0,0.0,0.0
2768,65.0,120.0,120.0,0.0,0.0
2769,68.0,120.0,120.0,0.0,0.0
2770,67.0,120.0,120.0,0.0,0.0
2771,70.0,120.0,120.0,0.0,0.0
2772,68.0,120.0,120.0,0.0,0.0
2773,72.0,120.0,120.0,0.0,0.0
2774,70.0,120.0,120.0,0.0,0.0
2775,73.0,120.0,120.0,0.0,0.0
2776,72.0,120.0,120.0,0.0,0.0
2777,75.0,120.0,120.0,0.0,0.0
2778,73.0,120.0,120.0,0.0,0.0
2779,77.0,156.0,120.0,0.0,0.0
2780,60.0,0.0,240.0,2.0,0.0
2781,75.0,84.0,150.0,0.0,0.0
2782,63.0,120.0,120.0,3.0,0.0
2783,61.0,120.0,120.0,3.0,0.0
2784,75.0,0.0,480.0,0.0,0.0
2785,63.0,120.0,120.0,3.0,0.0
2786,60.0,120.0,120.0,2.0,0.0
2787,63.0,120.0,120.0,3.0,0.0
2788,74.0,120.0,240.0,0.0,0.0
2789,59.0,120.0,120.0,2.0,0.0
2790,63.0,0.0,120.0,3.0,0.0
2791,60.0,120.0,120.0,2.0,0.0
2792,75.0,0.0,240.0,0.0,0.0
2793,63.0,120.0,120.0,3.0,0.0
2794,74.0,120.0,240.0,0.0,0.0
2795,59.0,120.0,120.0,2.0,0.0
2796,63.0,0.0,120.0,3.0,0.0
2797,75.0,0.0,240.0,0.0,0.0
2798,60.0,120.0,120.0,2.0,0.0
2799,63.0,120.0,120.0,3.0,0.0
2800,74.0,0.0,240.0,0.0,0.0
2801,59.0,120.0,120.0,2.0,0.0
2802,63.0,120.0,120.0,3.0,0.0
2803,60.0,120.0,120.0,2.0,0.0
2804,75.0,48.0,300.0,0.0,0.0
2805,63.0,72.0,120.0,3.0,0.0
2806,84.0,120.0,120.0,0.0,0.0
2807,57.0,0.0,120.0,2.0,0.0
2808,63.0,120.0,120.0,3.0,0.0
2809,58.0,120.0,120.0,2.0,0.0
2810,73.0,48.0,300.0,0.0,0.0
2811,63.0,72.0,120.0,3.0,0.0
2812,55.0,120.0,120.0,2.0,0.0
2813,82.0,0.0,120.0,0.0,0.0
2814,63.0,120.0,120.0,3.0,0.0
2815,72.0,48.0,300.0,0.0,0.0
2816,56.0,120.0,120.0,2.0,0.0
2817,63.0,72.0,120.0,3.0,0.0
2818,80.0,120.0,120.0,0.0,0.0
2819,55.0,0.0,120.0,2.0,0.0
2820,63.0,120.0,120.0,3.0,0.0
2821,56.0,120.0,120.0,2.0,0.0
2822,63.0,120.0,120.0,3.0,0.0
2823,72.0,0.0,240.0,0.0,0.0
2824,57.0,120.0,120.0,2.0,0.0
2825,63.0,156.0,120.0,3.0,0.0
2826,73.0,84.0,150.0,0.0,0.0
2827,58.0,120.0,240.0,2.0,0.0
2828,63.0,0.0,120.0,3.0,0.0
2829,55.0,120.0,120.0,3.0,0.0
2830,73.0,0.0,480.0,0.0,0.0
2831,63.0,120.0,120.0,3.0,0.0
2832,58.0,120.0,120.0,2.0,0.0
2833,63.0,120.0,120.0,3.0,0.0
2834,57.0,120.0,120.0,2.0,0.0
2835,72.0,0.0,240.0,0.0,0.0
2836,63.0,120.0,120.0,3.0,0.0
2837,73.0,120.0,240.0,0.0,0.0
2838,58.0,120.0,120.0,2.0,0.0
2839,63.0,0.0,120.0,3.0,0.0
2840,72.0,0.0,240.0,0.0,0.0
2841,57.0,120.0,120.0,2.0,0.0
2842,63.0,120.0,120.0,3.0,0.0
2843,73.0,0.0,240.0,0.0,0.0
2844,58.0,120.0,120.0,2.0,0.0
2845,63.0,120.0,120.0,3.0,0.0
2846,57.0,120.0,120.0,2.0,0.0
2847,72.0,120.0,240.0,0.0,0.0
2848,63.0,0.0,120.0,3.0,0.0
2849,58.0,120.0,120.0,2.0,0.0
2850,73.0,30.0,330.0,0.0,0.0
2851,63.0,90.0,120.0,3.0,0.0
2852,55.0,0.0,120.0,2.0,0.0
2853,82.0,120.0,120.0,0.0,0.0
2854,63.0,120.0,120.0,3.0,0.0
2855,56.0,120.0,120.0,2.0,0.0
2856,72.0,30.0,330.0,0.0,0.0
2857,63.0,90.0,120.0,3.0,0.0
2858,80.0,0.0,120.0,0.0,0.0
2859,60.0,120.0,120.0,2.0,0.0
2860,63.0,120.0,120.0,3.0,0.0
2861,51.0,120.0,120.0,2.0,0.0
2862,70.0,30.0,330.0,0.0,0.0
2863,63.0,90.0,120.0,3.0,0.0
2864,62.0,0.0,120.0,3.0,0.0
2865,79.0,120.0,120.0,0.0,0.0
2866,63.0,120.0,120.0,3.0,0.0
2867,61.0,120.0,120.0,3.0,0.0
2868,63.0,120.0,120.0,3.0,0.0
2869,67.0,0.0,120.0,0.0,0.0
2870,58.0,0.0,120.0,2.0,0.0
2871,68.0,120.0,120.0,0.0,0.0
2872,63.0,156.0,120.0,3.0,0.0
2873,70.0,0.0,120.0,0.0,0.0
2874,56.0,60.0,150.0,2.0,0.0
2875,72.0,18.0,450.0,0.0,0.0
2876,68.0,120.0,90.0,1.0,0.0
2877,63.0,60.0,90.0,1.0,0.0
2878,44.0,42.0,150.0,2.0,0.0
2879,68.0,120.0,90.0,1.0,0.0
2880,56.0,60.0,150.0,2.0,0.0
2881,72.0,60.0,90.0,0.0,0.0
2882,68.0,120.0,90.0,1.0,0.0
2883,55.0,60.0,150.0,2.0,0.0
2884,72.0,60.0,90.0,0.0,0.0
2885,68.0,120.0,90.0,1.0,0.0
2886,53.0,60.0,150.0,2.0,0.0
2887,73.0,60.0,90.0,0.0,0.0
2888,68.0,120.0,90.0,1.0,0.0
2889,72.0,60.0,90.0,0.0,0.0
2890,51.0,60.0,150.0,2.0,0.0
2891,68.0,120.0,90.0,1.0,0.0
2892,70.0,60.0,90.0,0.0,0.0
2893,49.0,60.0,150.0,2.0,0.0
2894,65.0,120.0,90.0,1.0,0.0
2895,48.0,60.0,150.0,2.0,0.0
2896,68.0,60.0,90.0,0.0,0.0
2897,63.0,180.0,90.0,1.0,0.0
2898,72.0,120.0,450.0,0.0,0.0
2899,56.0,60.0,150.0,2.0,0.0
2900,68.0,120.0,90.0,1.0,0.0
2901,44.0,60.0,150.0,2.0,0.0
2902,63.0,60.0,90.0,1.0,0.0
2903,68.0,0.0,90.0,1.0,0.0
2904,56.0,60.0,150.0,2.0,0.0
2905,72.0,60.0,90.0,0.0,0.0
2906,68.0,120.0,90.0,1.0,0.0
2907,58.0,60.0,150.0,2.0,0.0
2908,73.0,60.0,90.0,0.0,0.0
2909,68.0,120.0,90.0,1.0,0.0
2910,60.0,60.0,150.0,2.0,0.0
2911,75.0,60.0,90.0,0.0,0.0
2912,68.0,120.0,90.0,1.0,0.0
2913,74.0,60.0,90.0,0.0,0.0
2914,59.0,60.0,150.0,2.0,0.0
2915,68.0,120.0,90.0,1.0,0.0
2916,60.0,60.0,150.0,2.0,0.0
2917,75.0,60.0,90.0,0.0,0.0
2918,68.0,120.0,90.0,1.0,0.0
2919,60.0,60.0,150.0,2.0,0.0
2920,76.0,60.0,90.0,0.0,0.0
2921,68.0,120.0,90.0,1.0,0.0
2922,61.0,60.0,150.0,2.0,0.0
2923,77.0,60.0,90.0,0.0,0.0
2924,68.0,120.0,90.0,1.0,0.0
2925,70.0,0.0,90.0,0.0,0.0
2926,70.0,60.0,90.0,1.0,0.0
2927,61.0,60.0,150.0,2.0,0.0
2928,68.0,120.0,90.0,1.0,0.0
2929,65.0,60.0,150.0,2.0,0.0
2930,73.0,60.0,90.0,0.0,0.0
2931,68.0,120.0,90.0,1.0,0.0
2932,65.0,60.0,150.0,2.0,0.0
2933,70.0,0.0,90.0,0.0,0.0
2934,70.0,60.0,90.0,1.0,0.0
2935,68.0,120.0,90.0,1.0,0.0
2936,72.0,60.0,90.0,0.0,0.0
2937,63.0,60.0,150.0,2.0,0.0
2938,68.0,120.0,90.0,1.0,0.0
2939,70.0,60.0,90.0,1.0,0.0
2940,63.0,60.0,150.0,2.0,0.0
2941,70.0,0.0,90.0,0.0,0.0
2942,68.0,120.0,90.0,1.0,0.0
2943,51.0,60.0,150.0,2.0,0.0
2944,70.0,60.0,90.0,0.0,0.0
2945,67.0,120.0,90.0,1.0,0.0
2946,51.0,60.0,150.0,2.0,0.0
2947,68.0,60.0,90.0,0.0,0.0
2948,67.0,180.0,90.0,1.0,0.0
2949,72.0,18.0,450.0,0.0,0.0
2950,56.0,60.0,150.0,2.0,0.0
2951,68.0,120.0,90.0,1.0,0.0
2952,44.0,42.0,150.0,2.0,0.0
2953,63.0,60.0,90.0,1.0,0.0
2954,68.0,120.0,90.0,1.0,0.0
2955,72.0,60.0,90.0,0.0,0.0
2956,56.0,60.0,150.0,2.0,0.0
2957,68.0,120.0,90.0,1.0,0.0
2958,73.0,60.0,90.0,0.0,0.0
2959,58.0,60.0,150.0,2.0,0.0
2960,68.0,120.0,90.0,1.0,0.0
2961,60.0,60.0,150.0,2.0,0.0
2962,75.0,60.0,90.0,0.0,0.0
2963,68.0,120.0,90.0,1.0,0.0
2964,74.0,60.0,90.0,0.0,0.0
2965,59.0,60.0,150.0,2.0,0.0
2966,68.0,120.0,90.0,1.0,0.0
2967,60.0,60.0,150.0,2.0,0.0
2968,75.0,60.0,90.0,0.0,0.0
2969,68.0,120.0,90.0,1.0,0.0
2970,60.0,60.0,150.0,2.0,0.0
2971,76.0,60.0,90.0,0.0,0.0
2972,68.0,120.0,90.0,1.0,0.0
2973,77.0,60.0,90.0,0.0,0.0
2974,61.0,60.0,150.0,2.0,0.0
2975,68.0,120.0,90.0,1.0,0.0
2976,76.0,60.0,90.0,0.0,0.0
2977,60.0,60.0,150.0,2.0,0.0
2978,68.0,120.0,90.0,1.0,0.0
2979,61.0,60.0,150.0,2.0,0.0
2980,77.0,60.0,90.0,0.0,0.0
2981,68.0,120.0,90.0,1.0,0.0
2982,60.0,60.0,150.0,2.0,0.0
2983,76.0,60.0,90.0,0.0,0.0
2984,68.0,120.0,90.0,1.0,0.0
2985,77.0,60.0,90.0,0.0,0.0
2986,61.0,60.0,150.0,2.0,0.0
2987,68.0,120.0,90.0,1.0,0.0
2988,60.0,60.0,150.0,2.0,0.0
2989,76.0,60.0,90.0,0.0,0.0
2990,68.0,120.0,90.0,1.0,0.0
2991,77.0,60.0,90.0,0.0,0.0
2992,61.0,60.0,150.0,2.0,0.0
2993,68.0,120.0,90.0,1.0,0.0
2994,76.0,60.0,90.0,0.0,0.0
2995,60.0,60.0,150.0,2.0,0.0
2996,68.0,180.0,90.0,1.0,0.0
2997,61.0,204.0,150.0,2.0,0.0
2998,77.0,102.0,390.0,0.0,0.0
2999,73.0,18.0,240.0,1.0,0.0
3000,68.0,120.0,240.0,1.0,0.0
3001,65.0,240.0,240.0,1.0,0.0
3002,73.0,102.0,390.0,0.0,0.0
3003,68.0,18.0,240.0,1.0,0.0
3004,65.0,120.0,240.0,1.0,0.0
3005,61.0,240.0,240.0,1.0,0.0
3006,68.0,102.0,390.0,0.0,0.0
3007,65.0,18.0,240.0,1.0,0.0
3008,61.0,120.0,240.0,1.0,0.0
3009,56.0,240.0,240.0,1.0,0.0
3010,65.0,102.0,390.0,0.0,0.0
3011,61.0,18.0,240.0,1.0,0.0
3012,56.0,360.0,240.0,1.0,0.0
3013,53.0,0.0,120.0,1.0,0.0
3014,61.0,102.0,390.0,0.0,0.0
3015,56.0,18.0,240.0,1.0,0.0
3016,53.0,120.0,240.0,1.0,0.0
3017,49.0,234.0,240.0,1.0,0.0
3018,56.0,6.0,360.0,0.0,0.0
3019,53.0,120.0,240.0,1.0,0.0
3020,49.0,120.0,240.0,1.0,0.0
3021,44.0,240.0,240.0,1.0,0.0
3022,53.0,90.0,390.0,0.0,0.0
3023,49.0,30.0,240.0,1.0,0.0
3024,44.0,120.0,240.0,1.0,0.0
3025,41.0,240.0,240.0,1.0,0.0
3026,49.0,42.0,450.0,0.0,0.0
3027,44.0,78.0,240.0,1.0,0.0
3028,41.0,360.0,240.0,1.0,0.0
3029,44.0,0.0,120.0,1.0,0.0
3030,37.0,0.0,360.0,2.0,0.0
3031,25.0,2040.0,360.0,2.0,0.0
3032,61.0,0.0,480.0,0.0,0.0
3033,58.0,480.0,480.0,3.0,0.0
3034,53.0,0.0,480.0,3.0,0.0
3035,46.0,0.0,480.0,2.0,0.0
3036,34.0,0.0,480.0,2.0,0.0
3037,63.0,0.0,480.0,0.0,0.0
3038,30.0,0.0,480.0,2.0,0.0
3039,58.0,0.0,480.0,3.0,0.0
3040,42.0,840.0,480.0,2.0,0.0
3041,51.0,0.0,480.0,3.0,0.0
3042,41.0,0.0,1440.0,2.0,0.0
3043,29.0,0.0,1440.0,2.0,0.0
3044,53.0,0.0,1440.0,3.0,0.0
3045,60.0,7.0,840.0,0.0,0.0
3046,57.0,113.0,840.0,3.0,0.0
3047,61.0,0.0,120.0,0.0,0.0
3048,58.0,480.0,120.0,3.0,0.0
3049,63.0,480.0,480.0,0.0,0.0
3050,60.0,0.0,480.0,3.0,0.0
3051,44.0,720.0,480.0,2.0,0.0
3052,59.0,0.0,480.0,3.0,0.0
3053,50.0,0.0,480.0,3.0,0.0
3054,50.0,0.0,720.0,3.0,0.0
3055,59.0,120.0,720.0,3.0,0.0
3056,65.0,0.0,15.0,0.0,0.0
3057,44.0,0.0,720.0,2.0,0.0
3058,51.0,480.0,240.0,3.0,0.0
3059,68.0,120.0,120.0,0.0,0.0
3060,42.0,0.0,240.0,2.0,0.0
3061,58.0,0.0,240.0,3.0,0.0
3062,66.0,0.0,120.0,0.0,0.0
3063,56.0,0.0,480.0,3.0,0.0
3064,44.0,0.0,480.0,2.0,0.0
3065,61.0,0.0,480.0,3.0,0.0
3066,65.0,54.0,480.0,0.0,0.0
3067,60.0,0.0,480.0,3.0,0.0
3068,54.0,0.0,480.0,3.0,0.0
3069,45.0,3.0,480.0,2.0,0.0
3070,63.0,40.0,60.0,0.0,0.0
3071,65.0,40.0,60.0,0.0,0.0
3072,63.0,40.0,60.0,0.0,0.0
3073,65.0,40.0,60.0,0.0,0.0
3074,63.0,40.0,60.0,0.0,0.0
3075,65.0,40.0,60.0,0.0,0.0
3076,63.0,40.0,60.0,0.0,0.0
3077,65.0,40.0,60.0,0.0,0.0
3078,63.0,40.0,60.0,0.0,0.0
3079,61.0,66.0,60.0,0.0,0.0
3080,63.0,477.0,60.0,0.0,0.0
3081,46.0,240.0,480.0,2.0,0.0
3082,53.0,0.0,480.0,3.0,0.0
3083,61.0,0.0,480.0,0.0,0.0
3084,65.0,120.0,360.0,0.0,0.0
3085,58.0,120.0,240.0,3.0,0.0
3086,42.0,0.0,480.0,2.0,0.0
3087,54.0,0.0,240.0,3.0,0.0
3088,63.0,480.0,120.0,0.0,0.0
3089,44.0,0.0,480.0,2.0,0.0
3090,56.0,0.0,480.0,3.0,0.0
3091,61.0,240.0,720.0,0.0,0.0
3092,53.0,240.0,480.0,3.0,0.0
3093,51.0,0.0,480.0,3.0,0.0
3094,45.0,240.0,480.0,2.0,0.0
3095,54.0,0.0,480.0,3.0,0.0
3096,60.0,0.0,240.0,0.0,0.0
3097,53.0,0.0,240.0,3.0,0.0
3098,49.0,0.0,240.0,3.0,0.0
3099,61.0,120.0,360.0,0.0,0.0
3100,46.0,120.0,240.0,2.0,0.0
3101,49.0,480.0,240.0,3.0,0.0
3102,53.0,0.0,240.0,3.0,0.0
3103,37.0,0.0,240.0,2.0,0.0
3104,58.0,0.0,120.0,0.0,0.0
3105,56.0,120.0,840.0,0.0,0.0
3106,48.0,0.0,480.0,3.0,0.0
3107,51.0,0.0,480.0,3.0,0.0
3108,39.0,360.0,15.0,2.0,0.0
3109,27.0,160.0,480.0,2.0,0.0
3110,46.0,0.0,480.0,3.0,0.0
3111,49.0,0.0,480.0,3.0,0.0
3112,55.0,0.0,120.0,0.0,0.0
3113,32.0,120.0,240.0,2.0,0.0
3114,48.0,80.0,90.0,1.0,0.0
3115,51.0,0.0,90.0,1.0,0.0
3116,44.0,0.0,15.0,3.0,0.0
3117,56.0,155.0,240.0,0.0,0.0
3118,51.0,80.0,90.0,1.0,0.0
3119,44.0,40.0,15.0,3.0,0.0
3120,48.0,5.0,90.0,1.0,0.0
3121,32.0,120.0,240.0,2.0,0.0
3122,48.0,80.0,90.0,1.0,0.0
3123,44.0,0.0,120.0,3.0,0.0
3124,51.0,0.0,90.0,1.0,0.0
3125,56.0,0.0,240.0,0.0,0.0
3126,44.0,40.0,120.0,3.0,0.0
3127,51.0,80.0,90.0,1.0,0.0
3128,44.0,160.0,120.0,3.0,0.0
3129,48.0,0.0,90.0,1.0,0.0
3130,25.0,120.0,240.0,2.0,0.0
3131,49.0,80.0,90.0,1.0,0.0
3132,37.0,0.0,120.0,3.0,0.0
3133,53.0,0.0,90.0,1.0,0.0
3134,37.0,40.0,120.0,3.0,0.0
3135,58.0,155.0,240.0,0.0,0.0
3136,53.0,80.0,90.0,1.0,0.0
3137,37.0,0.0,120.0,3.0,0.0
3138,49.0,5.0,90.0,1.0,0.0
3139,27.0,0.0,240.0,2.0,0.0
3140,46.0,80.0,90.0,1.0,0.0
3141,39.0,0.0,120.0,3.0,0.0
3142,51.0,120.0,90.0,1.0,0.0
3143,55.0,5.0,240.0,0.0,0.0
3144,51.0,75.0,90.0,1.0,0.0
3145,39.0,40.0,15.0,3.0,0.0
3146,46.0,120.0,90.0,1.0,0.0
3147,27.0,40.0,120.0,2.0,0.0
3148,51.0,80.0,90.0,1.0,0.0
3149,39.0,10.0,120.0,3.0,0.0
3150,55.0,110.0,90.0,0.0,0.0
3151,29.0,40.0,120.0,2.0,0.0
3152,51.0,80.0,90.0,1.0,0.0
3153,41.0,10.0,120.0,3.0,0.0
3154,56.0,110.0,90.0,0.0,0.0
3155,31.0,40.0,120.0,2.0,0.0
3156,51.0,80.0,90.0,1.0,0.0
3157,43.0,10.0,120.0,3.0,0.0
3158,58.0,110.0,90.0,0.0,0.0
3159,27.0,40.0,120.0,2.0,0.0
3160,51.0,80.0,90.0,1.0,0.0
3161,39.0,10.0,120.0,3.0,0.0
3162,55.0,150.0,90.0,0.0,0.0
3163,32.0,78.0,240.0,2.0,0.0
3164,51.0,38.0,90.0,1.0,0.0
3165,44.0,42.0,90.0,3.0,0.0
3166,58.0,0.0,90.0,1.0,0.0
3167,60.0,5.0,240.0,0.0,0.0
3168,44.0,82.0,90.0,3.0,0.0
3169,51.0,38.0,90.0,1.0,0.0
3170,44.0,37.0,90.0,3.0,0.0
3171,58.0,160.0,90.0,1.0,0.0
3172,32.0,78.0,240.0,2.0,0.0
3173,51.0,38.0,90.0,1.0,0.0
3174,44.0,42.0,90.0,3.0,0.0
3175,56.0,0.0,90.0,1.0,0.0
3176,60.0,5.0,240.0,0.0,0.0
3177,44.0,82.0,90.0,3.0,0.0
3178,51.0,38.0,90.0,1.0,0.0
3179,44.0,37.0,90.0,3.0,0.0
3180,56.0,160.0,90.0,1.0,0.0
3181,25.0,0.0,240.0,2.0,0.0
3182,51.0,38.0,90.0,1.0,0.0
3183,37.0,42.0,90.0,3.0,0.0
3184,58.0,78.0,90.0,1.0,0.0
3185,61.0,0.0,240.0,0.0,0.0
3186,37.0,82.0,90.0,3.0,0.0
3187,51.0,38.0,90.0,1.0,0.0
3188,37.0,42.0,90.0,3.0,0.0
3189,58.0,80.0,90.0,1.0,0.0
3190,27.0,40.0,120.0,2.0,0.0
3191,51.0,40.0,90.0,1.0,0.0
3192,58.0,80.0,90.0,1.0,0.0
3193,39.0,7.0,120.0,3.0,0.0
3194,60.0,73.0,90.0,0.0,0.0
3195,27.0,40.0,120.0,2.0,0.0
3196,51.0,40.0,90.0,1.0,0.0
3197,56.0,80.0,90.0,1.0,0.0
3198,39.0,0.0,120.0,3.0,0.0
3199,60.0,80.0,90.0,0.0,0.0
3200,27.0,40.0,120.0,2.0,0.0
3201,49.0,40.0,90.0,1.0,0.0
3202,56.0,80.0,90.0,1.0,0.0
3203,39.0,0.0,120.0,3.0,0.0
3204,58.0,80.0,90.0,0.0,0.0
3205,28.0,40.0,120.0,2.0,0.0
3206,49.0,40.0,90.0,1.0,0.0
3207,55.0,80.0,90.0,1.0,0.0
3208,40.0,80.0,120.0,3.0,0.0
3209,58.0,0.0,90.0,0.0,0.0
3210,48.0,40.0,90.0,1.0,0.0
3211,29.0,40.0,120.0,2.0,0.0
3212,53.0,80.0,90.0,1.0,0.0
3213,41.0,80.0,120.0,3.0,0.0
3214,56.0,0.0,90.0,0.0,0.0
3215,48.0,40.0,90.0,1.0,0.0
3216,27.0,40.0,120.0,2.0,0.0
3217,53.0,80.0,90.0,1.0,0.0
3218,39.0,80.0,120.0,3.0,0.0
3219,57.0,0.0,90.0,0.0,0.0
3220,25.0,40.0,120.0,2.0,0.0
3221,49.0,40.0,90.0,1.0,0.0
3222,53.0,80.0,90.0,1.0,0.0
3223,37.0,80.0,120.0,3.0,0.0
3224,57.0,0.0,90.0,0.0,0.0
3225,25.0,40.0,120.0,2.0,0.0
3226,49.0,40.0,90.0,1.0,0.0
3227,53.0,80.0,90.0,1.0,0.0
3228,37.0,80.0,120.0,3.0,0.0
3229,58.0,0.0,90.0,0.0,0.0
3230,27.0,40.0,120.0,2.0,0.0
3231,48.0,40.0,90.0,1.0,0.0
3232,51.0,80.0,90.0,1.0,0.0
3233,39.0,0.0,120.0,3.0,0.0
3234,58.0,80.0,90.0,0.0,0.0
3235,48.0,40.0,90.0,1.0,0.0
3236,27.0,40.0,120.0,2.0,0.0
3237,51.0,80.0,90.0,1.0,0.0
3238,39.0,0.0,120.0,3.0,0.0
3239,56.0,80.0,90.0,0.0,0.0
3240,46.0,40.0,90.0,1.0,0.0
3241,27.0,40.0,120.0,2.0,0.0
3242,51.0,80.0,90.0,1.0,0.0
3243,39.0,80.0,120.0,3.0,0.0
3244,56.0,0.0,90.0,0.0,0.0
3245,46.0,40.0,90.0,1.0,0.0
3246,27.0,40.0,120.0,2.0,0.0
3247,51.0,80.0,90.0,1.0,0.0
3248,39.0,240.0,120.0,3.0,0.0
3249,55.0,0.0,90.0,0.0,0.0
3250,44.0,120.0,480.0,3.0,0.0
3251,32.0,0.0,480.0,2.0,0.0
3252,56.0,120.0,120.0,0.0,0.0
3253,58.0,120.0,120.0,0.0,0.0
3254,60.0,0.0,120.0,0.0,0.0
3255,61.0,120.0,120.0,0.0,0.0
3256,63.0,120.0,120.0,0.0,0.0
3257,65.0,120.0,120.0,0.0,0.0
3258,67.0,120.0,120.0,0.0,0.0
3259,68.0,120.0,120.0,0.0,0.0
3260,70.0,120.0,120.0,0.0,0.0
3261,72.0,120.0,120.0,0.0,0.0
3262,73.0,240.0,120.0,0.0,0.0
3263,75.0,0.0,480.0,0.0,0.0
3264,44.0,78.0,120.0,2.0,0.0
3265,56.0,120.0,90.0,2.0,0.0
3266,56.0,42.0,90.0,2.0,0.0
3267,66.0,240.0,15.0,1.0,0.0
3268,44.0,78.0,120.0,2.0,0.0
3269,56.0,120.0,90.0,2.0,0.0
3270,56.0,42.0,90.0,2.0,0.0
3271,75.0,240.0,15.0,0.0,0.0
3272,66.0,120.0,480.0,1.0,0.0
3273,44.0,78.0,120.0,2.0,0.0
3274,56.0,120.0,90.0,2.0,0.0
3275,56.0,42.0,90.0,2.0,0.0
3276,75.0,0.0,720.0,0.0,0.0
3277,66.0,0.0,720.0,1.0,0.0
3278,44.0,120.0,120.0,2.0,0.0
3279,56.0,120.0,120.0,2.0,0.0
3280,44.0,120.0,120.0,2.0,0.0
3281,56.0,120.0,120.0,2.0,0.0
3282,44.0,120.0,120.0,2.0,0.0
3283,56.0,120.0,120.0,2.0,0.0
3284,65.0,120.0,240.0,1.0,0.0
3285,73.0,0.0,240.0,0.0,0.0
3286,44.0,120.0,120.0,2.0,0.0
3287,56.0,0.0,120.0,2.0,0.0
3288,72.0,0.0,240.0,0.0,0.0
3289,44.0,120.0,120.0,2.0,0.0
3290,63.0,0.0,240.0,1.0,0.0
3291,56.0,120.0,120.0,2.0,0.0
3292,72.0,0.0,240.0,0.0,0.0
3293,64.0,0.0,240.0,1.0,0.0
3294,44.0,120.0,120.0,2.0,0.0
3295,56.0,240.0,120.0,2.0,0.0
3296,65.0,0.0,480.0,1.0,0.0
3297,73.0,240.0,480.0,0.0,0.0
3298,44.0,78.0,120.0,2.0,0.0
3299,56.0,120.0,90.0,2.0,0.0
3300,56.0,42.0,90.0,2.0,0.0
3301,68.0,0.0,15.0,1.0,0.0
3302,73.0,0.0,480.0,0.0,0.0
3303,65.0,0.0,480.0,1.0,0.0
3304,44.0,78.0,120.0,2.0,0.0
3305,56.0,120.0,90.0,2.0,0.0
3306,56.0,42.0,90.0,2.0,0.0
3307,68.0,240.0,15.0,1.0,0.0
3308,44.0,78.0,120.0,2.0,0.0
3309,56.0,120.0,90.0,2.0,0.0
3310,56.0,42.0,90.0,2.0,0.0
3311,73.0,120.0,15.0,0.0,0.0
3312,65.0,0.0,15.0,1.0,0.0
3313,44.0,120.0,120.0,2.0,0.0
3314,56.0,120.0,120.0,2.0,0.0
3315,44.0,120.0,120.0,2.0,0.0
3316,56.0,120.0,120.0,2.0,0.0
3317,44.0,120.0,120.0,2.0,0.0
3318,56.0,0.0,120.0,2.0,0.0
3319,72.0,0.0,240.0,0.0,0.0
3320,63.0,0.0,240.0,1.0,0.0
3321,68.0,120.0,15.0,1.0,0.0
3322,44.0,120.0,120.0,2.0,0.0
3323,56.0,120.0,120.0,2.0,0.0
3324,70.0,0.0,240.0,0.0,0.0
3325,61.0,120.0,240.0,1.0,0.0
3326,68.0,0.0,240.0,1.0,0.0
3327,44.0,120.0,120.0,2.0,0.0
3328,56.0,0.0,120.0,2.0,0.0
3329,62.0,0.0,240.0,1.0,0.0
3330,44.0,120.0,120.0,2.0,0.0
3331,71.0,120.0,240.0,0.0,0.0
3332,68.0,0.0,240.0,1.0,0.0
3333,56.0,0.0,120.0,2.0,0.0
3334,44.0,40.0,120.0,2.0,0.0
3335,60.0,80.0,90.0,0.0,0.0
3336,56.0,80.0,120.0,2.0,0.0
3337,68.0,0.0,90.0,0.0,0.0
3338,55.0,40.0,120.0,2.0,0.0
3339,72.0,40.0,90.0,0.0,0.0
3340,68.0,80.0,90.0,0.0,0.0
3341,56.0,0.0,120.0,2.0,0.0
3342,60.0,120.0,90.0,0.0,0.0
3343,53.0,40.0,120.0,2.0,0.0
3344,61.0,80.0,90.0,0.0,0.0
3345,56.0,120.0,120.0,2.0,0.0
3346,73.0,0.0,90.0,0.0,0.0
3347,51.0,40.0,120.0,2.0,0.0
3348,60.0,80.0,90.0,0.0,0.0
3349,55.0,0.0,120.0,2.0,0.0
3350,72.0,120.0,90.0,0.0,0.0
3351,49.0,40.0,120.0,2.0,0.0
3352,58.0,80.0,90.0,0.0,0.0
3353,53.0,120.0,120.0,2.0,0.0
3354,70.0,0.0,90.0,0.0,0.0
3355,48.0,40.0,120.0,2.0,0.0
3356,56.0,80.0,90.0,0.0,0.0
3357,51.0,120.0,120.0,2.0,0.0
3358,68.0,0.0,90.0,0.0,0.0
3359,44.0,40.0,120.0,2.0,0.0
3360,60.0,80.0,90.0,0.0,0.0
3361,56.0,0.0,120.0,2.0,0.0
3362,68.0,80.0,90.0,0.0,0.0
3363,55.0,40.0,120.0,2.0,0.0
3364,72.0,40.0,90.0,0.0,0.0
3365,68.0,80.0,90.0,0.0,0.0
3366,56.0,0.0,120.0,2.0,0.0
3367,60.0,120.0,90.0,0.0,0.0
3368,44.0,40.0,120.0,2.0,0.0
3369,60.0,80.0,90.0,0.0,0.0
3370,56.0,0.0,120.0,2.0,0.0
3371,72.0,120.0,90.0,0.0,0.0
3372,41.0,40.0,120.0,2.0,0.0
3373,61.0,80.0,90.0,0.0,0.0
3374,53.0,0.0,120.0,2.0,0.0
3375,73.0,120.0,90.0,0.0,0.0
3376,36.0,40.0,120.0,2.0,0.0
3377,63.0,80.0,90.0,0.0,0.0
3378,48.0,120.0,120.0,2.0,0.0
3379,75.0,0.0,90.0,0.0,0.0
3380,36.0,40.0,120.0,2.0,0.0
3381,64.0,80.0,90.0,0.0,0.0
3382,48.0,0.0,120.0,2.0,0.0
3383,76.0,80.0,90.0,0.0,0.0
3384,37.0,40.0,120.0,2.0,0.0
3385,65.0,40.0,90.0,0.0,0.0
3386,68.0,80.0,90.0,0.0,0.0
3387,49.0,0.0,120.0,2.0,0.0
3388,77.0,80.0,90.0,0.0,0.0
3389,70.0,40.0,90.0,0.0,0.0
3390,34.0,40.0,120.0,2.0,0.0
3391,73.0,80.0,90.0,0.0,0.0
3392,46.0,0.0,120.0,2.0,0.0
3393,82.0,80.0,90.0,0.0,0.0
3394,39.0,40.0,120.0,2.0,0.0
3395,70.0,40.0,90.0,0.0,0.0
3396,72.0,80.0,90.0,0.0,0.0
3397,51.0,0.0,120.0,2.0,0.0
3398,82.0,80.0,90.0,0.0,0.0
3399,50.0,40.0,120.0,2.0,0.0
3400,68.0,40.0,90.0,0.0,0.0
3401,72.0,80.0,90.0,0.0,0.0
3402,51.0,0.0,120.0,2.0,0.0
3403,80.0,80.0,90.0,0.0,0.0
3404,68.0,40.0,90.0,0.0,0.0
3405,27.0,40.0,120.0,2.0,0.0
3406,70.0,80.0,90.0,0.0,0.0
3407,39.0,80.0,120.0,2.0,0.0
3408,80.0,0.0,90.0,0.0,0.0
3409,38.0,40.0,120.0,2.0,0.0
3410,67.0,40.0,90.0,0.0,0.0
3411,70.0,80.0,90.0,0.0,0.0
3412,39.0,120.0,120.0,2.0,0.0
3413,79.0,0.0,90.0,0.0,0.0
3414,80.0,120.0,240.0,0.0,0.0
3415,32.0,120.0,120.0,2.0,0.0
3416,44.0,0.0,120.0,2.0,0.0
3417,46.0,120.0,120.0,2.0,0.0
3418,48.0,120.0,120.0,2.0,0.0
3419,49.0,120.0,120.0,2.0,0.0
3420,51.0,120.0,120.0,2.0,0.0
3421,53.0,120.0,120.0,2.0,0.0
3422,55.0,120.0,120.0,2.0,0.0
3423,56.0,120.0,120.0,2.0,0.0
3424,58.0,120.0,120.0,2.0,0.0
3425,60.0,120.0,120.0,2.0,0.0
3426,61.0,240.0,120.0,2.0,0.0
3427,68.0,78.0,120.0,0.0,0.0
3428,80.0,120.0,90.0,0.0,0.0
3429,80.0,42.0,90.0,0.0,0.0
3430,54.0,240.0,15.0,3.0,0.0
3431,63.0,0.0,15.0,2.0,0.0
3432,68.0,78.0,120.0,0.0,0.0
3433,80.0,120.0,90.0,0.0,0.0
3434,80.0,42.0,90.0,0.0,0.0
3435,63.0,0.0,15.0,2.0,0.0
3436,68.0,78.0,120.0,0.0,0.0
3437,80.0,120.0,90.0,0.0,0.0
3438,80.0,42.0,90.0,0.0,0.0
3439,68.0,120.0,120.0,0.0,0.0
3440,63.0,0.0,15.0,2.0,0.0
3441,54.0,120.0,15.0,3.0,0.0
3442,80.0,120.0,120.0,0.0,0.0
3443,68.0,120.0,120.0,0.0,0.0
3444,80.0,120.0,120.0,0.0,0.0
3445,68.0,120.0,120.0,0.0,0.0
3446,80.0,0.0,120.0,0.0,0.0
3447,53.0,0.0,240.0,3.0,0.0
3448,61.0,120.0,240.0,2.0,0.0
3449,68.0,120.0,120.0,0.0,0.0
3450,80.0,0.0,120.0,0.0,0.0
3451,68.0,120.0,120.0,0.0,0.0
3452,60.0,0.0,240.0,2.0,0.0
3453,51.0,120.0,240.0,3.0,0.0
3454,80.0,0.0,120.0,0.0,0.0
3455,52.0,0.0,240.0,3.0,0.0
3456,68.0,120.0,120.0,0.0,0.0
3457,60.0,0.0,240.0,2.0,0.0
3458,80.0,240.0,120.0,0.0,0.0
3459,56.0,0.0,480.0,3.0,0.0
3460,61.0,0.0,480.0,2.0,0.0
3461,68.0,78.0,120.0,0.0,0.0
3462,80.0,120.0,90.0,0.0,0.0
3463,80.0,42.0,90.0,0.0,0.0
3464,53.0,240.0,15.0,3.0,0.0
3465,68.0,78.0,120.0,0.0,0.0
3466,80.0,120.0,90.0,0.0,0.0
3467,80.0,42.0,90.0,0.0,0.0
3468,56.0,0.0,15.0,3.0,0.0
3469,61.0,0.0,15.0,2.0,0.0
3470,68.0,78.0,120.0,0.0,0.0
3471,80.0,120.0,90.0,0.0,0.0
3472,80.0,42.0,90.0,0.0,0.0
3473,53.0,120.0,15.0,3.0,0.0
3474,61.0,0.0,720.0,2.0,0.0
3475,56.0,0.0,15.0,3.0,0.0
3476,68.0,120.0,120.0,0.0,0.0
3477,80.0,120.0,120.0,0.0,0.0
3478,68.0,120.0,120.0,0.0,0.0
3479,80.0,120.0,120.0,0.0,0.0
3480,68.0,120.0,120.0,0.0,0.0
3481,80.0,120.0,120.0,0.0,0.0
3482,51.0,0.0,240.0,3.0,0.0
3483,56.0,0.0,15.0,3.0,0.0
3484,60.0,0.0,240.0,2.0,0.0
3485,68.0,120.0,120.0,0.0,0.0
3486,80.0,0.0,120.0,0.0,0.0
3487,68.0,120.0,120.0,0.0,0.0
3488,56.0,120.0,15.0,3.0,0.0
3489,58.0,120.0,240.0,2.0,0.0
3490,49.0,0.0,240.0,3.0,0.0
3491,80.0,0.0,120.0,0.0,0.0
3492,50.0,0.0,240.0,3.0,0.0
3493,68.0,120.0,120.0,0.0,0.0
3494,56.0,160.0,240.0,3.0,0.0
3495,59.0,0.0,240.0,2.0,0.0
3496,80.0,0.0,120.0,0.0,0.0
3497,60.0,0.0,480.0,2.0,0.0
3498,51.0,0.0,480.0,3.0,0.0
3499,56.0,0.0,480.0,3.0,0.0
3500,80.0,80.0,90.0,0.0,0.0
3501,79.0,80.0,90.0,0.0,0.0
3502,80.0,80.0,90.0,0.0,0.0
3503,79.0,80.0,90.0,0.0,0.0
3504,80.0,160.0,90.0,0.0,0.0
3505,61.0,0.0,240.0,2.0,0.0
3506,53.0,0.0,240.0,3.0,0.0
3507,79.0,80.0,90.0,0.0,0.0
3508,80.0,0.0,90.0,0.0,0.0
3509,60.0,0.0,240.0,2.0,0.0
3510,56.0,160.0,15.0,3.0,0.0
3511,51.0,0.0,240.0,3.0,0.0
3512,79.0,80.0,90.0,0.0,0.0
3513,80.0,0.0,90.0,0.0,0.0
3514,49.0,0.0,240.0,3.0,0.0
3515,55.0,160.0,240.0,3.0,0.0
3516,58.0,0.0,240.0,2.0,0.0
3517,79.0,80.0,90.0,0.0,0.0
3518,80.0,0.0,90.0,0.0,0.0
3519,56.0,0.0,240.0,2.0,0.0
3520,48.0,160.0,240.0,3.0,0.0
3521,79.0,80.0,90.0,0.0,0.0
3522,80.0,0.0,90.0,0.0,0.0
3523,60.0,0.0,720.0,2.0,0.0
3524,56.0,0.0,720.0,3.0,0.0
3525,79.0,80.0,90.0,0.0,0.0
3526,80.0,80.0,90.0,0.0,0.0
3527,84.0,80.0,90.0,0.0,0.0
3528,82.0,80.0,90.0,0.0,0.0
3529,80.0,80.0,90.0,0.0,0.0
3530,79.0,80.0,90.0,0.0,0.0
3531,77.0,80.0,90.0,0.0,0.0
3532,75.0,80.0,90.0,0.0,0.0
3533,58.0,80.0,240.0,3.0,0.0
3534,73.0,80.0,90.0,0.0,0.0
3535,61.0,0.0,240.0,2.0,0.0
3536,72.0,80.0,90.0,0.0,0.0
3537,70.0,0.0,90.0,0.0,0.0
3538,68.0,80.0,90.0,0.0,0.0
3539,63.0,80.0,240.0,2.0,0.0
3540,60.0,0.0,240.0,3.0,0.0
3541,67.0,80.0,90.0,0.0,0.0
3542,68.0,0.0,90.0,0.0,0.0
3543,44.0,80.0,90.0,2.0,0.0
3544,75.0,0.0,90.0,0.0,0.0
3545,46.0,0.0,90.0,2.0,0.0
3546,72.0,80.0,90.0,0.0,0.0
3547,48.0,0.0,90.0,2.0,0.0
3548,68.0,80.0,90.0,0.0,0.0
3549,49.0,0.0,90.0,2.0,0.0
3550,65.0,80.0,90.0,0.0,0.0
3551,53.0,0.0,90.0,2.0,0.0
3552,77.0,80.0,90.0,0.0,0.0
3553,58.0,80.0,90.0,2.0,0.0
3554,76.0,0.0,90.0,0.0,0.0
3555,49.0,0.0,90.0,2.0,0.0
3556,77.0,80.0,90.0,0.0,0.0
3557,53.0,0.0,90.0,2.0,0.0
3558,73.0,80.0,90.0,0.0,0.0
3559,58.0,0.0,90.0,2.0,0.0
3560,70.0,80.0,90.0,0.0,0.0
3561,51.0,80.0,90.0,2.0,0.0
3562,56.0,80.0,90.0,2.0,0.0
3563,75.0,0.0,90.0,0.0,0.0
3564,74.0,0.0,90.0,0.0,0.0
3565,60.0,80.0,90.0,2.0,0.0
3566,75.0,0.0,90.0,0.0,0.0
3567,51.0,80.0,90.0,2.0,0.0
3568,72.0,0.0,90.0,0.0,0.0
3569,56.0,80.0,90.0,2.0,0.0
3570,60.0,0.0,90.0,2.0,0.0
3571,68.0,40.0,90.0,0.0,0.0
3572,39.0,0.0,90.0,2.0,0.0
3573,70.0,40.0,30.0,0.0,0.0
3574,72.0,40.0,30.0,0.0,0.0
3575,70.0,40.0,30.0,0.0,0.0
3576,43.0,0.0,90.0,2.0,0.0
3577,72.0,40.0,30.0,0.0,0.0
3578,46.0,0.0,90.0,2.0,0.0
3579,70.0,40.0,30.0,0.0,0.0
3580,72.0,40.0,30.0,0.0,0.0
3581,51.0,40.0,90.0,2.0,0.0
3582,70.0,40.0,30.0,0.0,0.0
3583,72.0,0.0,30.0,0.0,0.0
3584,70.0,40.0,30.0,0.0,0.0
3585,53.0,20.0,90.0,2.0,0.0
3586,68.0,60.0,60.0,0.0,0.0
3587,55.0,156.0,90.0,2.0,0.0
3588,70.0,0.0,60.0,0.0,0.0
3589,44.0,4.0,150.0,2.0,0.0
3590,56.0,0.0,150.0,2.0,0.0
3591,68.0,80.0,90.0,0.0,0.0
3592,72.0,156.0,90.0,0.0,0.0
3593,55.0,0.0,150.0,2.0,0.0
3594,43.0,4.0,150.0,2.0,0.0
3595,68.0,80.0,90.0,0.0,0.0
3596,72.0,156.0,90.0,0.0,0.0
3597,41.0,0.0,150.0,2.0,0.0
3598,53.0,4.0,150.0,2.0,0.0
3599,68.0,80.0,90.0,0.0,0.0
3600,73.0,156.0,90.0,0.0,0.0
3601,39.0,4.0,150.0,2.0,0.0
3602,51.0,0.0,150.0,2.0,0.0
3603,67.0,80.0,90.0,0.0,0.0
3604,72.0,156.0,90.0,0.0,0.0
3605,49.0,4.0,150.0,2.0,0.0
3606,37.0,0.0,150.0,2.0,0.0
3607,65.0,80.0,90.0,0.0,0.0
3608,70.0,156.0,90.0,0.0,0.0
3609,48.0,4.0,150.0,2.0,0.0
3610,36.0,0.0,150.0,2.0,0.0
3611,63.0,80.0,90.0,0.0,0.0
3612,68.0,156.0,90.0,0.0,0.0
3613,49.0,0.0,150.0,2.0,0.0
3614,37.0,4.0,150.0,2.0,0.0
3615,56.0,80.0,90.0,0.0,0.0
3616,65.0,156.0,90.0,0.0,0.0
3617,36.0,4.0,150.0,2.0,0.0
3618,48.0,0.0,150.0,2.0,0.0
3619,56.0,80.0,90.0,0.0,0.0
3620,65.0,156.0,90.0,0.0,0.0
3621,37.0,0.0,150.0,2.0,0.0
3622,49.0,4.0,150.0,2.0,0.0
3623,61.0,80.0,90.0,0.0,0.0
3624,65.0,156.0,90.0,0.0,0.0
3625,46.0,0.0,150.0,2.0,0.0
3626,34.0,4.0,150.0,2.0,0.0
3627,61.0,80.0,90.0,0.0,0.0
3628,65.0,156.0,90.0,0.0,0.0
3629,39.0,0.0,150.0,2.0,0.0
3630,51.0,4.0,150.0,2.0,0.0
3631,61.0,80.0,90.0,0.0,0.0
3632,67.0,156.0,90.0,0.0,0.0
3633,39.0,4.0,150.0,2.0,0.0
3634,27.0,0.0,150.0,2.0,0.0
3635,61.0,80.0,90.0,0.0,0.0
3636,67.0,156.0,90.0,0.0,0.0
3637,56.0,0.0,150.0,2.0,0.0
3638,44.0,4.0,150.0,2.0,0.0
3639,60.0,80.0,90.0,0.0,0.0
3640,68.0,156.0,90.0,0.0,0.0
3641,67.0,0.0,150.0,2.0,0.0
3642,55.0,4.0,150.0,2.0,0.0
3643,68.0,80.0,90.0,0.0,0.0
3644,80.0,156.0,90.0,0.0,0.0
3645,53.0,0.0,150.0,2.0,0.0
3646,65.0,4.0,150.0,2.0,0.0
3647,73.0,80.0,90.0,0.0,0.0
3648,80.0,156.0,90.0,0.0,0.0
3649,51.0,4.0,150.0,2.0,0.0
3650,63.0,0.0,150.0,2.0,0.0
3651,72.0,80.0,90.0,0.0,0.0
3652,80.0,156.0,90.0,0.0,0.0
3653,49.0,0.0,150.0,2.0,0.0
3654,61.0,4.0,150.0,2.0,0.0
3655,70.0,80.0,90.0,0.0,0.0
3656,80.0,156.0,90.0,0.0,0.0
3657,60.0,4.0,150.0,2.0,0.0
3658,48.0,0.0,150.0,2.0,0.0
3659,68.0,80.0,90.0,0.0,0.0
3660,80.0,156.0,90.0,0.0,0.0
3661,61.0,0.0,150.0,2.0,0.0
3662,49.0,4.0,150.0,2.0,0.0
3663,68.0,80.0,90.0,0.0,0.0
3664,77.0,156.0,90.0,0.0,0.0
3665,48.0,0.0,150.0,2.0,0.0
3666,60.0,4.0,150.0,2.0,0.0
3667,68.0,80.0,90.0,0.0,0.0
3668,77.0,156.0,90.0,0.0,0.0
3669,61.0,4.0,150.0,2.0,0.0
3670,49.0,0.0,150.0,2.0,0.0
3671,73.0,80.0,90.0,0.0,0.0
3672,77.0,156.0,90.0,0.0,0.0
3673,58.0,4.0,150.0,2.0,0.0
3674,46.0,0.0,150.0,2.0,0.0
3675,73.0,80.0,90.0,0.0,0.0
3676,77.0,156.0,90.0,0.0,0.0
3677,51.0,0.0,150.0,2.0,0.0
3678,63.0,4.0,150.0,2.0,0.0
3679,73.0,80.0,90.0,0.0,0.0
3680,79.0,156.0,90.0,0.0,0.0
3681,39.0,4.0,150.0,2.0,0.0
3682,51.0,0.0,150.0,2.0,0.0
3683,73.0,80.0,90.0,0.0,0.0
3684,79.0,156.0,90.0,0.0,0.0
3685,56.0,0.0,150.0,2.0,0.0
3686,44.0,4.0,150.0,2.0,0.0
3687,72.0,80.0,90.0,0.0,0.0
3688,80.0,156.0,90.0,0.0,0.0
3689,63.0,4.0,150.0,2.0,0.0
3690,51.0,0.0,150.0,2.0,0.0
3691,73.0,80.0,90.0,0.0,0.0
3692,79.0,156.0,90.0,0.0,0.0
3693,68.0,0.0,150.0,2.0,0.0
3694,56.0,4.0,150.0,2.0,0.0
3695,72.0,80.0,90.0,0.0,0.0
3696,80.0,156.0,90.0,0.0,0.0
3697,51.0,4.0,150.0,2.0,0.0
3698,63.0,0.0,150.0,2.0,0.0
3699,79.0,80.0,90.0,0.0,0.0
3700,82.0,156.0,90.0,0.0,0.0
3701,44.0,4.0,150.0,2.0,0.0
3702,56.0,0.0,150.0,2.0,0.0
3703,80.0,80.0,90.0,0.0,0.0
3704,84.0,156.0,90.0,0.0,0.0
3705,51.0,4.0,150.0,2.0,0.0
3706,39.0,0.0,150.0,2.0,0.0
3707,79.0,80.0,90.0,0.0,0.0
3708,82.0,234.0,90.0,0.0,0.0
3709,80.0,0.0,240.0,1.0,0.0
3710,84.0,0.0,240.0,0.0,0.0
3711,32.0,480.0,240.0,2.0,0.0
3712,44.0,0.0,240.0,2.0,0.0
3713,51.0,0.0,240.0,1.0,0.0
3714,48.0,0.0,240.0,1.0,0.0
3715,56.0,0.0,240.0,0.0,0.0
3716,32.0,0.0,240.0,2.0,0.0
3717,44.0,0.0,240.0,2.0,0.0
