,note,step,duration,channel,velocity
0,68.0,0.0,120.0,0.0,0.0
1,73.0,0.0,180.0,1.0,0.0
2,73.0,0.0,180.0,0.0,0.0
3,61.0,0.0,180.0,2.0,0.0
4,68.0,180.0,15.0,1.0,0.0
5,52.0,0.0,180.0,2.0,0.0
6,56.0,60.0,180.0,2.0,0.0
7,64.0,0.0,180.0,1.0,0.0
8,49.0,0.0,180.0,2.0,0.0
9,75.0,60.0,60.0,1.0,0.0
10,75.0,0.0,60.0,0.0,0.0
11,76.0,60.0,60.0,0.0,0.0
12,76.0,0.0,60.0,1.0,0.0
13,77.0,180.0,60.0,1.0,0.0
14,77.0,0.0,60.0,0.0,0.0
15,69.0,0.0,180.0,2.0,0.0
16,78.0,60.0,180.0,0.0,0.0
17,78.0,0.0,180.0,1.0,0.0
18,73.0,0.0,180.0,1.0,0.0
19,65.0,0.0,60.0,2.0,0.0
20,80.0,0.0,60.0,1.0,0.0
21,73.0,0.0,60.0,1.0,0.0
22,80.0,30.0,60.0,0.0,0.0
23,83.0,30.0,30.0,0.0,0.0
24,66.0,0.0,60.0,2.0,0.0
25,81.0,0.0,60.0,1.0,0.0
26,81.0,0.0,30.0,0.0,0.0
27,73.0,30.0,15.0,1.0,0.0
28,78.0,0.0,60.0,1.0,0.0
29,80.0,30.0,30.0,0.0,0.0
30,69.0,120.0,60.0,2.0,0.0
31,78.0,0.0,30.0,0.0,0.0
32,76.0,0.0,120.0,0.0,0.0
33,73.0,0.0,15.0,1.0,0.0
34,68.0,0.0,120.0,2.0,0.0
35,76.0,120.0,120.0,1.0,0.0
36,72.0,0.0,120.0,1.0,0.0
37,75.0,120.0,120.0,0.0,0.0
38,56.0,0.0,120.0,2.0,0.0
39,75.0,0.0,120.0,1.0,0.0
40,71.0,0.0,60.0,1.0,0.0
41,75.0,0.0,60.0,0.0,0.0
42,68.0,0.0,60.0,2.0,0.0
43,73.0,0.0,90.0,1.0,0.0
44,75.0,90.0,15.0,1.0,0.0
45,75.0,30.0,15.0,1.0,0.0
46,67.0,0.0,15.0,2.0,0.0
47,75.0,0.0,15.0,0.0,0.0
48,73.0,0.0,30.0,1.0,0.0
49,75.0,0.0,60.0,1.0,0.0
50,67.0,60.0,15.0,2.0,0.0
51,75.0,0.0,60.0,0.0,0.0
52,75.0,60.0,60.0,0.0,0.0
53,67.0,0.0,15.0,2.0,0.0
54,73.0,60.0,15.0,1.0,0.0
55,75.0,0.0,60.0,1.0,0.0
56,73.0,0.0,60.0,1.0,0.0
57,75.0,0.0,60.0,1.0,0.0
58,75.0,60.0,60.0,0.0,0.0
59,67.0,0.0,15.0,2.0,0.0
60,76.0,0.0,60.0,0.0,0.0
61,76.0,0.0,15.0,1.0,0.0
62,73.0,120.0,15.0,1.0,0.0
63,76.0,0.0,120.0,0.0,0.0
64,68.0,0.0,120.0,2.0,0.0
65,56.0,0.0,120.0,2.0,0.0
66,75.0,0.0,120.0,0.0,0.0
67,75.0,0.0,120.0,1.0,0.0
68,72.0,120.0,120.0,1.0,0.0
69,75.0,180.0,60.0,0.0,0.0
70,75.0,0.0,60.0,1.0,0.0
71,80.0,60.0,180.0,1.0,0.0
72,80.0,0.0,180.0,0.0,0.0
73,68.0,0.0,180.0,1.0,0.0
74,56.0,0.0,120.0,2.0,0.0
75,59.0,0.0,120.0,2.0,0.0
76,66.0,60.0,60.0,1.0,0.0
77,78.0,0.0,60.0,1.0,0.0
78,78.0,0.0,60.0,0.0,0.0
79,76.0,0.0,60.0,1.0,0.0
80,64.0,60.0,60.0,1.0,0.0
81,76.0,0.0,60.0,0.0,0.0
82,75.0,0.0,60.0,1.0,0.0
83,75.0,0.0,60.0,0.0,0.0
84,63.0,0.0,60.0,1.0,0.0
85,59.0,0.0,15.0,2.0,0.0
86,74.0,30.0,90.0,0.0,0.0
87,65.0,0.0,90.0,1.0,0.0
88,74.0,0.0,90.0,1.0,0.0
89,56.0,90.0,15.0,2.0,0.0
90,59.0,0.0,15.0,2.0,0.0
91,56.0,0.0,15.0,2.0,0.0
92,74.0,180.0,30.0,1.0,0.0
93,65.0,0.0,30.0,1.0,0.0
94,74.0,0.0,30.0,0.0,0.0
95,83.0,0.0,180.0,0.0,0.0
96,59.0,0.0,15.0,2.0,0.0
97,74.0,0.0,180.0,1.0,0.0
98,65.0,0.0,180.0,1.0,0.0
99,59.0,60.0,15.0,2.0,0.0
100,56.0,0.0,15.0,2.0,0.0
101,59.0,0.0,15.0,2.0,0.0
102,56.0,0.0,15.0,2.0,0.0
103,74.0,0.0,15.0,1.0,0.0
104,65.0,0.0,15.0,1.0,0.0
105,74.0,120.0,15.0,0.0,0.0
106,67.0,120.0,120.0,1.0,0.0
107,75.0,0.0,120.0,1.0,0.0
108,58.0,0.0,120.0,2.0,0.0
109,55.0,0.0,120.0,2.0,0.0
110,75.0,0.0,120.0,0.0,0.0
111,75.0,0.0,60.0,0.0,0.0
112,75.0,180.0,60.0,1.0,0.0
113,76.0,0.0,180.0,1.0,0.0
114,73.0,0.0,180.0,1.0,0.0
115,67.0,60.0,180.0,2.0,0.0
116,76.0,0.0,180.0,0.0,0.0
117,71.0,0.0,60.0,1.0,0.0
118,75.0,60.0,60.0,1.0,0.0
119,68.0,0.0,60.0,2.0,0.0
120,75.0,0.0,60.0,0.0,0.0
121,70.0,60.0,60.0,2.0,0.0
122,73.0,0.0,60.0,1.0,0.0
123,79.0,0.0,60.0,0.0,0.0
124,63.0,0.0,60.0,2.0,0.0
125,79.0,0.0,60.0,1.0,0.0
126,71.0,0.0,60.0,1.0,0.0
127,80.0,0.0,60.0,0.0,0.0
128,80.0,0.0,60.0,1.0,0.0
129,68.0,0.0,60.0,2.0,0.0
130,64.0,60.0,60.0,2.0,0.0
131,49.0,0.0,240.0,2.0,0.0
132,80.0,60.0,120.0,0.0,0.0
133,70.0,0.0,15.0,1.0,0.0
134,68.0,0.0,15.0,1.0,0.0
135,64.0,60.0,15.0,1.0,0.0
136,64.0,60.0,60.0,1.0,0.0
137,70.0,0.0,120.0,0.0,0.0
138,68.0,0.0,60.0,1.0,0.0
139,70.0,0.0,60.0,1.0,0.0
140,61.0,40.0,15.0,2.0,0.0
141,49.0,0.0,120.0,2.0,0.0
142,70.0,40.0,40.0,0.0,0.0
143,73.0,40.0,40.0,0.0,0.0
144,70.0,0.0,60.0,1.0,0.0
145,68.0,0.0,60.0,1.0,0.0
146,64.0,120.0,60.0,1.0,0.0
147,76.0,0.0,40.0,0.0,0.0
148,76.0,0.0,120.0,0.0,0.0
149,63.0,120.0,60.0,1.0,0.0
150,68.0,0.0,60.0,1.0,0.0
151,71.0,0.0,60.0,1.0,0.0
152,75.0,60.0,180.0,0.0,0.0
153,51.0,0.0,15.0,2.0,0.0
154,63.0,0.0,60.0,1.0,0.0
155,68.0,0.0,60.0,1.0,0.0
156,71.0,60.0,60.0,1.0,0.0
157,51.0,0.0,15.0,2.0,0.0
158,39.0,0.0,120.0,2.0,0.0
159,67.0,0.0,60.0,1.0,0.0
160,58.0,0.0,60.0,1.0,0.0
161,67.0,60.0,60.0,0.0,0.0
162,62.0,0.0,60.0,1.0,0.0
163,56.0,0.0,120.0,2.0,0.0
164,59.0,60.0,60.0,1.0,0.0
165,68.0,0.0,60.0,1.0,0.0
166,68.0,60.0,120.0,0.0,0.0
167,44.0,0.0,120.0,2.0,0.0
168,75.0,60.0,120.0,1.0,0.0
169,75.0,60.0,60.0,1.0,0.0
170,63.0,0.0,60.0,2.0,0.0
171,59.0,0.0,60.0,2.0,0.0
172,58.0,0.0,60.0,2.0,0.0
173,61.0,0.0,60.0,2.0,0.0
174,79.0,60.0,60.0,1.0,0.0
175,56.0,0.0,60.0,2.0,0.0
176,59.0,0.0,60.0,2.0,0.0
177,64.0,100.0,180.0,2.0,0.0
178,61.0,0.0,180.0,2.0,0.0
179,80.0,120.0,15.0,1.0,0.0
180,70.0,0.0,60.0,1.0,0.0
181,70.0,40.0,40.0,1.0,0.0
182,73.0,40.0,40.0,1.0,0.0
183,76.0,120.0,40.0,1.0,0.0
184,76.0,120.0,120.0,1.0,0.0
185,59.0,60.0,120.0,2.0,0.0
186,56.0,0.0,120.0,2.0,0.0
187,75.0,60.0,180.0,1.0,0.0
188,61.0,0.0,120.0,2.0,0.0
189,58.0,0.0,120.0,2.0,0.0
190,51.0,0.0,15.0,2.0,0.0
191,67.0,120.0,60.0,1.0,0.0
192,44.0,60.0,120.0,2.0,0.0
193,61.0,0.0,120.0,1.0,0.0
194,70.0,0.0,120.0,1.0,0.0
195,67.0,0.0,120.0,1.0,0.0
196,68.0,180.0,60.0,1.0,0.0
197,56.0,0.0,60.0,2.0,0.0
198,59.0,0.0,60.0,1.0,0.0
199,75.0,120.0,120.0,0.0,0.0
200,44.0,120.0,360.0,2.0,0.0
201,56.0,0.0,360.0,2.0,0.0
202,63.0,0.0,60.0,1.0,0.0
203,68.0,0.0,60.0,1.0,0.0
204,71.0,60.0,15.0,1.0,0.0
205,63.0,0.0,60.0,1.0,0.0
206,68.0,0.0,60.0,1.0,0.0
207,68.0,60.0,60.0,1.0,0.0
208,63.0,0.0,60.0,1.0,0.0
209,71.0,60.0,15.0,1.0,0.0
210,75.0,0.0,15.0,0.0,0.0
211,68.0,0.0,15.0,1.0,0.0
212,71.0,60.0,15.0,1.0,0.0
213,63.0,0.0,15.0,1.0,0.0
214,55.0,120.0,360.0,2.0,0.0
215,76.0,60.0,120.0,0.0,0.0
216,43.0,0.0,360.0,2.0,0.0
217,70.0,0.0,60.0,1.0,0.0
218,73.0,0.0,60.0,1.0,0.0
219,63.0,0.0,60.0,1.0,0.0
220,63.0,60.0,60.0,1.0,0.0
221,75.0,0.0,60.0,0.0,0.0
222,73.0,0.0,15.0,1.0,0.0
223,70.0,0.0,15.0,1.0,0.0
224,63.0,60.0,60.0,1.0,0.0
225,70.0,0.0,60.0,1.0,0.0
226,75.0,0.0,60.0,0.0,0.0
227,73.0,60.0,15.0,1.0,0.0
228,63.0,0.0,15.0,1.0,0.0
229,70.0,0.0,60.0,1.0,0.0
230,39.0,0.0,360.0,2.0,0.0
231,75.0,0.0,180.0,0.0,0.0
232,51.0,120.0,360.0,2.0,0.0
233,67.0,0.0,60.0,1.0,0.0
234,73.0,0.0,60.0,1.0,0.0
235,63.0,60.0,15.0,1.0,0.0
236,67.0,60.0,60.0,1.0,0.0
237,73.0,0.0,60.0,1.0,0.0
238,63.0,0.0,15.0,1.0,0.0
239,76.0,60.0,60.0,0.0,0.0
240,67.0,0.0,60.0,1.0,0.0
241,73.0,0.0,60.0,1.0,0.0
242,70.0,0.0,60.0,0.0,0.0
243,73.0,0.0,60.0,1.0,0.0
244,75.0,0.0,60.0,0.0,0.0
245,73.0,0.0,60.0,1.0,0.0
246,67.0,60.0,15.0,1.0,0.0
247,63.0,0.0,15.0,1.0,0.0
248,56.0,0.0,360.0,2.0,0.0
249,44.0,120.0,360.0,2.0,0.0
250,73.0,0.0,120.0,0.0,0.0
251,71.0,0.0,60.0,1.0,0.0
252,68.0,60.0,15.0,1.0,0.0
253,71.0,60.0,120.0,0.0,0.0
254,63.0,0.0,15.0,1.0,0.0
255,71.0,0.0,60.0,1.0,0.0
256,68.0,0.0,60.0,1.0,0.0
257,63.0,0.0,60.0,1.0,0.0
258,71.0,0.0,60.0,1.0,0.0
259,71.0,0.0,60.0,0.0,0.0
260,68.0,60.0,15.0,1.0,0.0
261,71.0,0.0,15.0,1.0,0.0
262,63.0,0.0,15.0,1.0,0.0
263,42.0,120.0,360.0,2.0,0.0
264,54.0,0.0,360.0,2.0,0.0
265,72.0,0.0,240.0,0.0,0.0
266,72.0,0.0,60.0,1.0,0.0
267,68.0,0.0,60.0,1.0,0.0
268,63.0,60.0,15.0,1.0,0.0
269,69.0,0.0,60.0,1.0,0.0
270,72.0,60.0,60.0,1.0,0.0
271,72.0,60.0,60.0,1.0,0.0
272,63.0,0.0,60.0,1.0,0.0
273,68.0,0.0,15.0,1.0,0.0
274,72.0,0.0,120.0,0.0,0.0
275,63.0,0.0,60.0,1.0,0.0
276,63.0,0.0,60.0,1.0,0.0
277,68.0,0.0,15.0,1.0,0.0
278,72.0,60.0,15.0,1.0,0.0
279,40.0,0.0,240.0,2.0,0.0
280,52.0,0.0,240.0,2.0,0.0
281,73.0,0.0,240.0,0.0,0.0
282,64.0,0.0,60.0,1.0,0.0
283,73.0,60.0,60.0,1.0,0.0
284,68.0,0.0,60.0,1.0,0.0
285,69.0,0.0,60.0,1.0,0.0
286,68.0,60.0,60.0,1.0,0.0
287,64.0,0.0,15.0,1.0,0.0
288,73.0,60.0,15.0,1.0,0.0
289,39.0,0.0,60.0,2.0,0.0
290,75.0,0.0,60.0,0.0,0.0
291,51.0,0.0,60.0,2.0,0.0
292,66.0,0.0,60.0,1.0,0.0
293,72.0,60.0,60.0,1.0,0.0
294,75.0,0.0,60.0,1.0,0.0
295,76.0,0.0,60.0,0.0,0.0
296,37.0,0.0,60.0,2.0,0.0
297,49.0,0.0,60.0,2.0,0.0
298,76.0,120.0,60.0,1.0,0.0
299,73.0,0.0,60.0,1.0,0.0
300,68.0,0.0,60.0,1.0,0.0
301,36.0,0.0,240.0,2.0,0.0
302,48.0,0.0,240.0,2.0,0.0
303,68.0,60.0,60.0,1.0,0.0
304,75.0,0.0,15.0,1.0,0.0
305,69.0,0.0,60.0,1.0,0.0
306,78.0,0.0,15.0,1.0,0.0
307,75.0,60.0,15.0,1.0,0.0
308,78.0,30.0,60.0,1.0,0.0
309,68.0,0.0,15.0,1.0,0.0
310,78.0,0.0,15.0,0.0,0.0
311,49.0,0.0,120.0,2.0,0.0
312,37.0,0.0,120.0,2.0,0.0
313,76.0,0.0,30.0,0.0,0.0
314,76.0,0.0,15.0,1.0,0.0
315,73.0,30.0,15.0,1.0,0.0
316,75.0,30.0,30.0,0.0,0.0
317,68.0,0.0,60.0,1.0,0.0
318,76.0,120.0,30.0,0.0,0.0
319,44.0,0.0,180.0,2.0,0.0
320,76.0,0.0,120.0,0.0,0.0
321,67.0,0.0,60.0,1.0,0.0
322,73.0,60.0,60.0,1.0,0.0
323,76.0,0.0,60.0,1.0,0.0
324,75.0,0.0,60.0,1.0,0.0
325,72.0,0.0,60.0,1.0,0.0
326,68.0,60.0,60.0,1.0,0.0
327,75.0,0.0,60.0,0.0,0.0
328,56.0,0.0,15.0,2.0,0.0
329,54.0,60.0,60.0,2.0,0.0
330,69.0,0.0,60.0,1.0,0.0
331,68.0,0.0,60.0,1.0,0.0
332,56.0,0.0,15.0,2.0,0.0
333,52.0,60.0,60.0,2.0,0.0
334,60.0,0.0,60.0,1.0,0.0
335,56.0,0.0,60.0,2.0,0.0
336,51.0,0.0,60.0,2.0,0.0
337,68.0,0.0,60.0,0.0,0.0
338,66.0,120.0,60.0,1.0,0.0
339,73.0,60.0,180.0,0.0,0.0
340,64.0,0.0,120.0,1.0,0.0
341,61.0,60.0,120.0,1.0,0.0
342,49.0,0.0,120.0,2.0,0.0
343,56.0,0.0,120.0,2.0,0.0
344,75.0,60.0,60.0,0.0,0.0
345,76.0,60.0,60.0,0.0,0.0
346,77.0,180.0,60.0,0.0,0.0
347,69.0,60.0,180.0,2.0,0.0
348,78.0,0.0,180.0,1.0,0.0
349,73.0,0.0,180.0,1.0,0.0
350,78.0,0.0,180.0,0.0,0.0
351,80.0,0.0,60.0,0.0,0.0
352,80.0,0.0,60.0,1.0,0.0
353,65.0,30.0,60.0,2.0,0.0
354,83.0,30.0,30.0,0.0,0.0
355,81.0,30.0,60.0,1.0,0.0
356,73.0,0.0,15.0,1.0,0.0
357,66.0,0.0,60.0,2.0,0.0
358,81.0,0.0,30.0,0.0,0.0
359,78.0,0.0,60.0,1.0,0.0
360,73.0,0.0,15.0,1.0,0.0
361,69.0,0.0,60.0,2.0,0.0
362,80.0,30.0,30.0,0.0,0.0
363,78.0,120.0,30.0,0.0,0.0
364,76.0,0.0,120.0,1.0,0.0
365,73.0,0.0,120.0,1.0,0.0
366,76.0,120.0,120.0,0.0,0.0
367,68.0,0.0,120.0,2.0,0.0
368,75.0,0.0,120.0,0.0,0.0
369,72.0,120.0,120.0,1.0,0.0
370,75.0,0.0,120.0,1.0,0.0
371,56.0,0.0,120.0,2.0,0.0
372,72.0,0.0,60.0,1.0,0.0
373,75.0,0.0,60.0,0.0,0.0
374,68.0,0.0,60.0,2.0,0.0
375,75.0,90.0,15.0,1.0,0.0
376,73.0,0.0,90.0,1.0,0.0
377,75.0,0.0,90.0,0.0,0.0
378,67.0,0.0,90.0,2.0,0.0
379,73.0,0.0,30.0,1.0,0.0
380,75.0,0.0,30.0,1.0,0.0
381,67.0,60.0,15.0,2.0,0.0
382,75.0,0.0,15.0,0.0,0.0
383,75.0,0.0,60.0,1.0,0.0
384,73.0,0.0,15.0,1.0,0.0
385,75.0,0.0,15.0,0.0,0.0
386,75.0,60.0,15.0,1.0,0.0
387,67.0,0.0,15.0,2.0,0.0
388,76.0,0.0,60.0,1.0,0.0
389,73.0,0.0,15.0,1.0,0.0
390,67.0,0.0,60.0,2.0,0.0
391,76.0,0.0,60.0,0.0,0.0
392,68.0,120.0,120.0,2.0,0.0
393,76.0,0.0,120.0,1.0,0.0
394,73.0,0.0,120.0,1.0,0.0
395,76.0,0.0,120.0,0.0,0.0
396,75.0,0.0,120.0,0.0,0.0
397,75.0,0.0,120.0,1.0,0.0
398,72.0,120.0,120.0,1.0,0.0
399,56.0,0.0,120.0,2.0,0.0
400,75.0,0.0,60.0,0.0,0.0
401,75.0,0.0,60.0,1.0,0.0
402,63.0,180.0,60.0,1.0,0.0
403,66.0,60.0,180.0,1.0,0.0
404,78.0,0.0,180.0,1.0,0.0
405,78.0,0.0,180.0,0.0,0.0
406,57.0,0.0,60.0,2.0,0.0
407,61.0,0.0,60.0,2.0,0.0
408,56.0,0.0,60.0,2.0,0.0
409,59.0,0.0,60.0,2.0,0.0
410,76.0,0.0,60.0,1.0,0.0
411,64.0,60.0,60.0,1.0,0.0
412,76.0,0.0,60.0,0.0,0.0
413,54.0,0.0,60.0,2.0,0.0
414,57.0,0.0,60.0,2.0,0.0
415,75.0,0.0,60.0,1.0,0.0
416,63.0,60.0,60.0,1.0,0.0
417,75.0,0.0,60.0,0.0,0.0
418,73.0,0.0,60.0,1.0,0.0
419,61.0,0.0,60.0,1.0,0.0
420,56.0,0.0,60.0,2.0,0.0
421,52.0,0.0,60.0,2.0,0.0
422,73.0,60.0,60.0,0.0,0.0
423,51.0,30.0,90.0,2.0,0.0
424,72.0,30.0,60.0,0.0,0.0
425,72.0,0.0,90.0,1.0,0.0
426,60.0,0.0,90.0,1.0,0.0
427,72.0,0.0,60.0,0.0,0.0
428,54.0,0.0,15.0,2.0,0.0
429,57.0,0.0,30.0,2.0,0.0
430,72.0,0.0,15.0,1.0,0.0
431,63.0,0.0,15.0,1.0,0.0
432,81.0,0.0,180.0,0.0,0.0
433,72.0,0.0,60.0,0.0,0.0
434,72.0,0.0,15.0,1.0,0.0
435,54.0,60.0,15.0,2.0,0.0
436,57.0,0.0,15.0,2.0,0.0
437,63.0,0.0,60.0,1.0,0.0
438,72.0,120.0,15.0,1.0,0.0
439,75.0,0.0,120.0,0.0,0.0
440,63.0,0.0,120.0,1.0,0.0
441,57.0,0.0,15.0,2.0,0.0
442,54.0,0.0,15.0,2.0,0.0
443,73.0,0.0,120.0,1.0,0.0
444,64.0,0.0,120.0,1.0,0.0
445,73.0,0.0,120.0,0.0,0.0
446,52.0,0.0,120.0,2.0,0.0
447,56.0,120.0,120.0,2.0,0.0
448,73.0,120.0,60.0,0.0,0.0
449,42.0,0.0,240.0,2.0,0.0
450,75.0,0.0,240.0,0.0,0.0
451,54.0,0.0,240.0,2.0,0.0
452,75.0,0.0,60.0,1.0,0.0
453,69.0,0.0,60.0,1.0,0.0
454,75.0,60.0,60.0,1.0,0.0
455,73.0,60.0,15.0,1.0,0.0
456,69.0,0.0,60.0,1.0,0.0
457,75.0,0.0,60.0,1.0,0.0
458,73.0,0.0,60.0,1.0,0.0
459,75.0,20.0,90.0,0.0,0.0
460,42.0,120.0,120.0,2.0,0.0
461,75.0,40.0,60.0,1.0,0.0
462,73.0,0.0,60.0,1.0,0.0
463,69.0,60.0,15.0,1.0,0.0
464,54.0,0.0,120.0,2.0,0.0
465,75.0,0.0,60.0,1.0,0.0
466,73.0,0.0,60.0,1.0,0.0
467,69.0,0.0,60.0,1.0,0.0
468,78.0,0.0,15.0,0.0,0.0
469,77.0,60.0,120.0,0.0,0.0
470,77.0,0.0,60.0,1.0,0.0
471,77.0,0.0,60.0,1.0,0.0
472,73.0,0.0,15.0,1.0,0.0
473,71.0,0.0,15.0,1.0,0.0
474,73.0,60.0,15.0,1.0,0.0
475,71.0,0.0,60.0,1.0,0.0
476,77.0,0.0,15.0,1.0,0.0
477,56.0,60.0,15.0,2.0,0.0
478,44.0,0.0,15.0,2.0,0.0
479,73.0,60.0,60.0,1.0,0.0
480,77.0,0.0,60.0,0.0,0.0
481,71.0,0.0,15.0,1.0,0.0
482,77.0,120.0,60.0,1.0,0.0
483,73.0,0.0,60.0,1.0,0.0
484,78.0,60.0,180.0,0.0,0.0
485,57.0,60.0,240.0,2.0,0.0
486,45.0,0.0,240.0,2.0,0.0
487,73.0,60.0,60.0,1.0,0.0
488,78.0,0.0,60.0,1.0,0.0
489,78.0,0.0,60.0,1.0,0.0
490,73.0,0.0,60.0,1.0,0.0
491,73.0,0.0,60.0,1.0,0.0
492,78.0,0.0,60.0,1.0,0.0
493,78.0,0.0,60.0,0.0,0.0
494,53.0,60.0,120.0,2.0,0.0
495,41.0,0.0,120.0,2.0,0.0
496,80.0,0.0,15.0,0.0,0.0
497,80.0,60.0,15.0,1.0,0.0
498,73.0,0.0,15.0,1.0,0.0
499,73.0,0.0,15.0,1.0,0.0
500,81.0,0.0,300.0,1.0,0.0
501,81.0,30.0,180.0,0.0,0.0
502,42.0,0.0,300.0,2.0,0.0
503,54.0,0.0,300.0,2.0,0.0
504,74.0,60.0,60.0,1.0,0.0
505,83.0,30.0,30.0,0.0,0.0
506,81.0,30.0,30.0,0.0,0.0
507,80.0,30.0,30.0,0.0,0.0
508,78.0,0.0,30.0,0.0,0.0
509,69.0,60.0,60.0,1.0,0.0
510,72.0,0.0,60.0,1.0,0.0
511,75.0,30.0,15.0,1.0,0.0
512,76.0,30.0,30.0,0.0,0.0
513,54.0,0.0,60.0,2.0,0.0
514,75.0,0.0,30.0,0.0,0.0
515,73.0,0.0,240.0,0.0,0.0
516,55.0,60.0,60.0,2.0,0.0
517,73.0,60.0,60.0,1.0,0.0
518,70.0,0.0,60.0,1.0,0.0
519,64.0,0.0,60.0,1.0,0.0
520,56.0,60.0,60.0,2.0,0.0
521,64.0,0.0,60.0,1.0,0.0
522,68.0,0.0,60.0,1.0,0.0
523,73.0,60.0,60.0,1.0,0.0
524,44.0,30.0,60.0,2.0,0.0
525,76.0,30.0,90.0,0.0,0.0
526,68.0,0.0,60.0,1.0,0.0
527,66.0,0.0,60.0,1.0,0.0
528,72.0,60.0,60.0,1.0,0.0
529,75.0,0.0,30.0,0.0,0.0
530,73.0,0.0,120.0,0.0,0.0
531,49.0,60.0,120.0,2.0,0.0
532,73.0,60.0,60.0,1.0,0.0
533,64.0,0.0,60.0,1.0,0.0
534,68.0,0.0,15.0,1.0,0.0
535,80.0,0.0,120.0,1.0,0.0
536,68.0,60.0,15.0,1.0,0.0
537,80.0,0.0,60.0,1.0,0.0
538,64.0,60.0,60.0,2.0,0.0
539,78.0,60.0,60.0,1.0,0.0
540,72.0,0.0,60.0,1.0,0.0
541,68.0,0.0,60.0,1.0,0.0
542,63.0,0.0,60.0,2.0,0.0
543,61.0,0.0,60.0,2.0,0.0
544,76.0,120.0,60.0,1.0,0.0
545,73.0,0.0,60.0,1.0,0.0
546,68.0,0.0,60.0,1.0,0.0
547,60.0,0.0,120.0,2.0,0.0
548,68.0,0.0,120.0,1.0,0.0
549,75.0,0.0,15.0,1.0,0.0
550,75.0,120.0,15.0,0.0,0.0
551,56.0,0.0,120.0,2.0,0.0
552,72.0,0.0,120.0,1.0,0.0
553,61.0,60.0,120.0,2.0,0.0
554,73.0,0.0,120.0,1.0,0.0
555,78.0,60.0,60.0,0.0,0.0
556,68.0,60.0,15.0,1.0,0.0
557,76.0,0.0,120.0,1.0,0.0
558,76.0,0.0,60.0,0.0,0.0
559,75.0,60.0,120.0,0.0,0.0
560,75.0,0.0,60.0,1.0,0.0
561,72.0,0.0,60.0,1.0,0.0
562,68.0,0.0,15.0,1.0,0.0
563,56.0,0.0,120.0,2.0,0.0
564,68.0,60.0,15.0,1.0,0.0
565,80.0,60.0,15.0,1.0,0.0
566,64.0,0.0,60.0,2.0,0.0
567,63.0,0.0,60.0,2.0,0.0
568,68.0,0.0,15.0,1.0,0.0
569,78.0,0.0,60.0,1.0,0.0
570,72.0,60.0,60.0,1.0,0.0
571,68.0,0.0,15.0,1.0,0.0
572,73.0,0.0,60.0,1.0,0.0
573,76.0,0.0,60.0,1.0,0.0
574,61.0,120.0,60.0,2.0,0.0
575,68.0,0.0,15.0,1.0,0.0
576,75.0,0.0,120.0,1.0,0.0
577,60.0,0.0,120.0,2.0,0.0
578,56.0,0.0,120.0,2.0,0.0
579,75.0,120.0,15.0,0.0,0.0
580,75.0,0.0,120.0,1.0,0.0
581,72.0,0.0,120.0,1.0,0.0
582,68.0,0.0,120.0,1.0,0.0
583,61.0,0.0,120.0,2.0,0.0
584,76.0,0.0,120.0,1.0,0.0
585,73.0,60.0,120.0,1.0,0.0
586,78.0,60.0,60.0,0.0,0.0
587,68.0,0.0,120.0,1.0,0.0
588,56.0,0.0,60.0,2.0,0.0
589,76.0,0.0,15.0,0.0,0.0
590,75.0,0.0,60.0,1.0,0.0
591,72.0,0.0,60.0,1.0,0.0
592,60.0,15.0,40.0,2.0,0.0
593,68.0,45.0,15.0,1.0,0.0
594,80.0,60.0,120.0,1.0,0.0
595,75.0,0.0,60.0,0.0,0.0
596,63.0,60.0,15.0,2.0,0.0
597,66.0,0.0,60.0,2.0,0.0
598,68.0,0.0,15.0,1.0,0.0
599,64.0,0.0,60.0,2.0,0.0
600,80.0,60.0,60.0,1.0,0.0
601,63.0,60.0,60.0,2.0,0.0
602,78.0,0.0,60.0,1.0,0.0
603,72.0,0.0,60.0,1.0,0.0
604,68.0,0.0,60.0,1.0,0.0
605,76.0,0.0,60.0,1.0,0.0
606,68.0,240.0,60.0,1.0,0.0
607,76.0,0.0,60.0,0.0,0.0
608,61.0,0.0,60.0,2.0,0.0
609,75.0,0.0,240.0,0.0,0.0
610,73.0,0.0,15.0,1.0,0.0
611,75.0,0.0,240.0,1.0,0.0
612,69.0,0.0,240.0,1.0,0.0
613,69.0,0.0,120.0,1.0,0.0
614,75.0,0.0,120.0,1.0,0.0
615,75.0,0.0,120.0,0.0,0.0
616,66.0,120.0,15.0,2.0,0.0
617,73.0,0.0,120.0,1.0,0.0
618,76.0,0.0,240.0,1.0,0.0
619,76.0,60.0,180.0,0.0,0.0
620,67.0,0.0,240.0,2.0,0.0
621,76.0,60.0,60.0,0.0,0.0
622,64.0,0.0,120.0,1.0,0.0
623,73.0,0.0,15.0,1.0,0.0
624,70.0,0.0,15.0,1.0,0.0
625,75.0,60.0,60.0,0.0,0.0
626,55.0,0.0,120.0,2.0,0.0
627,73.0,120.0,60.0,0.0,0.0
628,56.0,0.0,120.0,2.0,0.0
629,63.0,0.0,120.0,1.0,0.0
630,68.0,120.0,120.0,1.0,0.0
631,72.0,0.0,120.0,1.0,0.0
632,72.0,0.0,120.0,0.0,0.0
633,80.0,0.0,120.0,1.0,0.0
634,72.0,0.0,120.0,1.0,0.0
635,80.0,0.0,120.0,1.0,0.0
636,80.0,180.0,120.0,0.0,0.0
637,72.0,0.0,120.0,1.0,0.0
638,56.0,0.0,15.0,2.0,0.0
639,44.0,120.0,15.0,2.0,0.0
640,79.0,0.0,360.0,1.0,0.0
641,73.0,0.0,360.0,1.0,0.0
642,57.0,0.0,360.0,2.0,0.0
643,45.0,0.0,360.0,2.0,0.0
644,79.0,60.0,180.0,0.0,0.0
645,76.0,60.0,60.0,0.0,0.0
646,75.0,60.0,60.0,0.0,0.0
647,73.0,120.0,60.0,0.0,0.0
648,72.0,0.0,240.0,1.0,0.0
649,80.0,120.0,240.0,1.0,0.0
650,68.0,120.0,120.0,0.0,0.0
651,56.0,0.0,240.0,2.0,0.0
652,60.0,0.0,120.0,1.0,0.0
653,44.0,0.0,15.0,2.0,0.0
654,63.0,0.0,120.0,1.0,0.0
655,56.0,0.0,120.0,2.0,0.0
656,44.0,0.0,15.0,2.0,0.0
657,68.0,240.0,15.0,1.0,0.0
658,60.0,120.0,240.0,1.0,0.0
659,63.0,0.0,240.0,1.0,0.0
660,56.0,0.0,240.0,2.0,0.0
661,56.0,90.0,120.0,2.0,0.0
662,61.0,60.0,240.0,2.0,0.0
663,58.0,30.0,30.0,2.0,0.0
664,56.0,60.0,30.0,2.0,0.0
665,54.0,60.0,60.0,2.0,0.0
666,53.0,0.0,60.0,2.0,0.0
667,51.0,60.0,60.0,2.0,0.0
668,61.0,60.0,120.0,2.0,0.0
669,49.0,0.0,60.0,2.0,0.0
670,48.0,60.0,60.0,2.0,0.0
671,63.0,0.0,240.0,2.0,0.0
672,46.0,60.0,60.0,2.0,0.0
673,44.0,60.0,60.0,2.0,0.0
674,42.0,60.0,60.0,2.0,0.0
675,56.0,0.0,120.0,2.0,0.0
676,60.0,0.0,120.0,2.0,0.0
677,41.0,60.0,60.0,2.0,0.0
678,63.0,0.0,120.0,2.0,0.0
679,39.0,60.0,60.0,2.0,0.0
680,56.0,0.0,180.0,2.0,0.0
681,37.0,30.0,60.0,2.0,0.0
682,65.0,0.0,180.0,2.0,0.0
683,61.0,0.0,180.0,2.0,0.0
684,41.0,30.0,30.0,2.0,0.0
685,42.0,60.0,30.0,2.0,0.0
686,49.0,60.0,60.0,2.0,0.0
687,63.0,0.0,60.0,2.0,0.0
688,48.0,0.0,60.0,2.0,0.0
689,65.0,0.0,60.0,2.0,0.0
690,56.0,60.0,15.0,2.0,0.0
691,49.0,60.0,60.0,2.0,0.0
692,42.0,0.0,60.0,2.0,0.0
693,63.0,0.0,60.0,2.0,0.0
694,66.0,0.0,60.0,2.0,0.0
695,58.0,60.0,60.0,2.0,0.0
696,65.0,0.0,120.0,2.0,0.0
697,44.0,30.0,60.0,2.0,0.0
698,61.0,0.0,120.0,2.0,0.0
699,56.0,30.0,30.0,2.0,0.0
700,55.0,60.0,30.0,2.0,0.0
701,63.0,0.0,120.0,2.0,0.0
702,60.0,60.0,120.0,2.0,0.0
703,56.0,60.0,60.0,2.0,0.0
704,51.0,0.0,60.0,2.0,0.0
705,48.0,60.0,60.0,2.0,0.0
706,44.0,60.0,60.0,2.0,0.0
707,46.0,30.0,60.0,2.0,0.0
708,61.0,0.0,240.0,1.0,0.0
709,63.0,60.0,240.0,1.0,0.0
710,58.0,30.0,30.0,2.0,0.0
711,57.0,60.0,30.0,2.0,0.0
712,58.0,60.0,60.0,2.0,0.0
713,55.0,0.0,60.0,2.0,0.0
714,49.0,0.0,60.0,2.0,0.0
715,65.0,60.0,60.0,1.0,0.0
716,67.0,60.0,60.0,1.0,0.0
717,46.0,0.0,60.0,2.0,0.0
718,68.0,0.0,240.0,1.0,0.0
719,48.0,30.0,60.0,2.0,0.0
720,60.0,30.0,30.0,2.0,0.0
721,58.0,60.0,30.0,2.0,0.0
722,60.0,60.0,60.0,2.0,0.0
723,56.0,60.0,60.0,2.0,0.0
724,65.0,60.0,60.0,1.0,0.0
725,61.0,0.0,60.0,2.0,0.0
726,49.0,60.0,60.0,2.0,0.0
727,70.0,0.0,60.0,1.0,0.0
728,68.0,0.0,240.0,1.0,0.0
729,51.0,60.0,120.0,2.0,0.0
730,60.0,30.0,60.0,2.0,0.0
731,63.0,30.0,30.0,2.0,0.0
732,62.0,0.0,30.0,2.0,0.0
733,39.0,60.0,120.0,2.0,0.0
734,63.0,60.0,60.0,2.0,0.0
735,60.0,0.0,60.0,2.0,0.0
736,67.0,60.0,120.0,1.0,0.0
737,51.0,0.0,120.0,2.0,0.0
738,58.0,60.0,60.0,2.0,0.0
739,61.0,0.0,60.0,2.0,0.0
740,60.0,0.0,120.0,1.0,0.0
741,44.0,30.0,60.0,2.0,0.0
742,68.0,0.0,120.0,1.0,0.0
743,56.0,30.0,30.0,2.0,0.0
744,55.0,60.0,30.0,2.0,0.0
745,56.0,60.0,60.0,2.0,0.0
746,54.0,60.0,60.0,2.0,0.0
747,68.0,90.0,120.0,0.0,0.0
748,53.0,60.0,60.0,2.0,0.0
749,51.0,0.0,60.0,2.0,0.0
750,49.0,0.0,240.0,2.0,0.0
751,80.0,30.0,30.0,1.0,0.0
752,79.0,60.0,30.0,1.0,0.0
753,80.0,60.0,60.0,1.0,0.0
754,77.0,0.0,60.0,1.0,0.0
755,53.0,0.0,120.0,2.0,0.0
756,75.0,60.0,60.0,1.0,0.0
757,73.0,60.0,15.0,0.0,0.0
758,73.0,0.0,60.0,1.0,0.0
759,56.0,60.0,240.0,2.0,0.0
760,75.0,0.0,240.0,0.0,0.0
761,72.0,60.0,60.0,1.0,0.0
762,70.0,60.0,60.0,1.0,0.0
763,68.0,60.0,60.0,1.0,0.0
764,66.0,0.0,60.0,1.0,0.0
765,65.0,60.0,60.0,1.0,0.0
766,75.0,0.0,120.0,0.0,0.0
767,44.0,60.0,120.0,2.0,0.0
768,63.0,0.0,60.0,1.0,0.0
769,65.0,30.0,60.0,1.0,0.0
770,77.0,0.0,180.0,0.0,0.0
771,49.0,0.0,60.0,2.0,0.0
772,68.0,30.0,30.0,1.0,0.0
773,53.0,0.0,30.0,2.0,0.0
774,56.0,0.0,30.0,2.0,0.0
775,73.0,60.0,30.0,1.0,0.0
776,61.0,60.0,60.0,2.0,0.0
777,77.0,0.0,60.0,1.0,0.0
778,75.0,0.0,60.0,0.0,0.0
779,75.0,60.0,60.0,1.0,0.0
780,60.0,0.0,60.0,2.0,0.0
781,68.0,0.0,60.0,1.0,0.0
782,77.0,0.0,60.0,0.0,0.0
783,77.0,0.0,60.0,1.0,0.0
784,73.0,0.0,60.0,1.0,0.0
785,68.0,0.0,60.0,1.0,0.0
786,61.0,60.0,60.0,2.0,0.0
787,78.0,0.0,60.0,1.0,0.0
788,75.0,0.0,60.0,1.0,0.0
789,70.0,0.0,60.0,1.0,0.0
790,78.0,0.0,60.0,0.0,0.0
791,54.0,60.0,60.0,2.0,0.0
792,56.0,0.0,120.0,2.0,0.0
793,77.0,60.0,120.0,0.0,0.0
794,73.0,60.0,60.0,1.0,0.0
795,77.0,0.0,120.0,1.0,0.0
796,68.0,0.0,60.0,1.0,0.0
797,75.0,60.0,120.0,1.0,0.0
798,44.0,0.0,120.0,2.0,0.0
799,72.0,60.0,60.0,1.0,0.0
800,75.0,0.0,120.0,0.0,0.0
801,68.0,0.0,60.0,1.0,0.0
802,56.0,60.0,120.0,2.0,0.0
803,72.0,60.0,60.0,1.0,0.0
804,75.0,0.0,120.0,1.0,0.0
805,68.0,0.0,60.0,1.0,0.0
806,73.0,30.0,60.0,1.0,0.0
807,75.0,0.0,15.0,0.0,0.0
808,58.0,60.0,120.0,2.0,0.0
809,85.0,30.0,30.0,1.0,0.0
810,84.0,0.0,30.0,1.0,0.0
811,85.0,60.0,60.0,1.0,0.0
812,46.0,60.0,120.0,2.0,0.0
813,82.0,0.0,60.0,1.0,0.0
814,77.0,60.0,60.0,0.0,0.0
815,79.0,0.0,60.0,1.0,0.0
816,58.0,60.0,120.0,2.0,0.0
817,73.0,0.0,60.0,1.0,0.0
818,79.0,0.0,60.0,0.0,0.0
819,75.0,0.0,60.0,1.0,0.0
820,60.0,30.0,60.0,2.0,0.0
821,80.0,0.0,240.0,0.0,0.0
822,80.0,0.0,30.0,1.0,0.0
823,60.0,30.0,30.0,2.0,0.0
824,58.0,0.0,30.0,2.0,0.0
825,79.0,60.0,30.0,1.0,0.0
826,60.0,0.0,60.0,2.0,0.0
827,80.0,60.0,60.0,1.0,0.0
828,72.0,0.0,60.0,1.0,0.0
829,56.0,60.0,60.0,2.0,0.0
830,61.0,0.0,60.0,2.0,0.0
831,77.0,60.0,60.0,0.0,0.0
832,77.0,0.0,60.0,1.0,0.0
833,73.0,60.0,60.0,1.0,0.0
834,82.0,0.0,60.0,0.0,0.0
835,82.0,0.0,60.0,1.0,0.0
836,58.0,0.0,60.0,2.0,0.0
837,80.0,0.0,240.0,0.0,0.0
838,63.0,60.0,120.0,2.0,0.0
839,72.0,30.0,60.0,1.0,0.0
840,80.0,60.0,240.0,1.0,0.0
841,75.0,30.0,30.0,1.0,0.0
842,73.0,0.0,30.0,1.0,0.0
843,51.0,0.0,120.0,2.0,0.0
844,72.0,60.0,60.0,1.0,0.0
845,75.0,0.0,60.0,1.0,0.0
846,63.0,0.0,120.0,2.0,0.0
847,70.0,60.0,60.0,1.0,0.0
848,79.0,0.0,120.0,1.0,0.0
849,79.0,0.0,120.0,0.0,0.0
850,73.0,60.0,60.0,1.0,0.0
851,72.0,0.0,60.0,1.0,0.0
852,80.0,0.0,120.0,0.0,0.0
853,80.0,60.0,60.0,1.0,0.0
854,68.0,0.0,60.0,1.0,0.0
855,56.0,60.0,15.0,2.0,0.0
856,44.0,60.0,120.0,2.0,0.0
857,60.0,60.0,60.0,1.0,0.0
858,63.0,0.0,60.0,1.0,0.0
859,68.0,0.0,60.0,1.0,0.0
860,63.0,60.0,60.0,1.0,0.0
861,60.0,0.0,60.0,1.0,0.0
862,42.0,0.0,120.0,2.0,0.0
863,54.0,0.0,120.0,2.0,0.0
864,80.0,0.0,60.0,0.0,0.0
865,68.0,60.0,15.0,1.0,0.0
866,53.0,0.0,240.0,2.0,0.0
867,41.0,60.0,240.0,2.0,0.0
868,65.0,30.0,60.0,1.0,0.0
869,80.0,0.0,240.0,0.0,0.0
870,61.0,0.0,60.0,1.0,0.0
871,73.0,30.0,30.0,1.0,0.0
872,72.0,60.0,30.0,1.0,0.0
873,73.0,60.0,60.0,1.0,0.0
874,68.0,0.0,60.0,1.0,0.0
875,59.0,0.0,120.0,2.0,0.0
876,47.0,0.0,120.0,2.0,0.0
877,77.0,60.0,60.0,0.0,0.0
878,65.0,0.0,60.0,1.0,0.0
879,61.0,60.0,60.0,1.0,0.0
880,73.0,0.0,60.0,0.0,0.0
881,58.0,0.0,240.0,2.0,0.0
882,73.0,30.0,60.0,1.0,0.0
883,80.0,60.0,120.0,0.0,0.0
884,46.0,0.0,240.0,2.0,0.0
885,73.0,30.0,30.0,1.0,0.0
886,72.0,0.0,30.0,1.0,0.0
887,73.0,60.0,60.0,1.0,0.0
888,78.0,0.0,120.0,0.0,0.0
889,61.0,60.0,60.0,1.0,0.0
890,44.0,0.0,120.0,2.0,0.0
891,74.0,60.0,60.0,1.0,0.0
892,77.0,60.0,120.0,0.0,0.0
893,56.0,0.0,120.0,2.0,0.0
894,62.0,0.0,60.0,1.0,0.0
895,75.0,0.0,60.0,1.0,0.0
896,42.0,0.0,60.0,2.0,0.0
897,54.0,60.0,60.0,2.0,0.0
898,75.0,0.0,60.0,0.0,0.0
899,82.0,0.0,60.0,0.0,0.0
900,38.0,0.0,60.0,2.0,0.0
901,50.0,60.0,60.0,2.0,0.0
902,82.0,0.0,60.0,1.0,0.0
903,70.0,0.0,60.0,1.0,0.0
904,80.0,0.0,60.0,0.0,0.0
905,70.0,0.0,60.0,1.0,0.0
906,80.0,0.0,60.0,1.0,0.0
907,78.0,0.0,60.0,1.0,0.0
908,70.0,60.0,60.0,1.0,0.0
909,51.0,0.0,15.0,2.0,0.0
910,78.0,0.0,60.0,0.0,0.0
911,39.0,60.0,15.0,2.0,0.0
912,77.0,0.0,60.0,0.0,0.0
913,53.0,0.0,60.0,2.0,0.0
914,41.0,0.0,60.0,2.0,0.0
915,77.0,60.0,60.0,1.0,0.0
916,68.0,0.0,60.0,1.0,0.0
917,42.0,0.0,60.0,2.0,0.0
918,54.0,0.0,60.0,2.0,0.0
919,75.0,0.0,60.0,1.0,0.0
920,75.0,60.0,60.0,0.0,0.0
921,66.0,0.0,60.0,1.0,0.0
922,56.0,0.0,120.0,2.0,0.0
923,65.0,60.0,60.0,1.0,0.0
924,73.0,0.0,120.0,1.0,0.0
925,73.0,60.0,120.0,0.0,0.0
926,68.0,0.0,60.0,1.0,0.0
927,72.0,0.0,120.0,0.0,0.0
928,63.0,60.0,60.0,1.0,0.0
929,44.0,0.0,120.0,2.0,0.0
930,68.0,60.0,60.0,1.0,0.0
931,63.0,60.0,60.0,1.0,0.0
932,72.0,0.0,15.0,1.0,0.0
933,54.0,0.0,120.0,2.0,0.0
934,42.0,60.0,120.0,2.0,0.0
935,68.0,0.0,60.0,0.0,0.0
936,68.0,0.0,60.0,1.0,0.0
937,53.0,0.0,240.0,2.0,0.0
938,41.0,60.0,240.0,2.0,0.0
939,73.0,30.0,60.0,1.0,0.0
940,73.0,0.0,240.0,0.0,0.0
941,80.0,30.0,30.0,1.0,0.0
942,79.0,60.0,30.0,1.0,0.0
943,80.0,60.0,60.0,1.0,0.0
944,68.0,0.0,180.0,1.0,0.0
945,51.0,0.0,60.0,2.0,0.0
946,39.0,60.0,60.0,2.0,0.0
947,75.0,0.0,60.0,0.0,0.0
948,78.0,0.0,60.0,1.0,0.0
949,77.0,0.0,60.0,0.0,0.0
950,37.0,60.0,60.0,2.0,0.0
951,77.0,0.0,60.0,1.0,0.0
952,49.0,0.0,60.0,2.0,0.0
953,78.0,0.0,240.0,0.0,0.0
954,78.0,30.0,60.0,1.0,0.0
955,46.0,0.0,240.0,2.0,0.0
956,58.0,60.0,240.0,2.0,0.0
957,85.0,30.0,30.0,1.0,0.0
958,84.0,60.0,30.0,1.0,0.0
959,85.0,60.0,60.0,1.0,0.0
960,73.0,0.0,180.0,1.0,0.0
961,56.0,0.0,60.0,2.0,0.0
962,44.0,0.0,60.0,2.0,0.0
963,80.0,0.0,60.0,0.0,0.0
964,83.0,60.0,60.0,1.0,0.0
965,54.0,0.0,60.0,2.0,0.0
966,82.0,0.0,60.0,1.0,0.0
967,42.0,0.0,60.0,2.0,0.0
968,82.0,60.0,60.0,0.0,0.0
969,80.0,0.0,180.0,0.0,0.0
970,44.0,0.0,120.0,2.0,0.0
971,77.0,60.0,60.0,1.0,0.0
972,80.0,60.0,60.0,1.0,0.0
973,56.0,0.0,120.0,2.0,0.0
974,77.0,60.0,60.0,1.0,0.0
975,77.0,60.0,60.0,0.0,0.0
976,73.0,0.0,60.0,1.0,0.0
977,72.0,60.0,60.0,1.0,0.0
978,44.0,0.0,120.0,2.0,0.0
979,78.0,0.0,60.0,0.0,0.0
980,75.0,0.0,60.0,0.0,0.0
981,66.0,60.0,60.0,1.0,0.0
982,49.0,0.0,60.0,2.0,0.0
983,73.0,0.0,120.0,0.0,0.0
984,65.0,60.0,60.0,1.0,0.0
985,73.0,60.0,60.0,1.0,0.0
986,72.0,60.0,60.0,1.0,0.0
987,70.0,60.0,60.0,1.0,0.0
988,68.0,60.0,60.0,1.0,0.0
989,66.0,60.0,60.0,1.0,0.0
990,65.0,30.0,60.0,2.0,0.0
991,82.0,30.0,30.0,1.0,0.0
992,66.0,0.0,60.0,2.0,0.0
993,84.0,30.0,30.0,1.0,0.0
994,80.0,30.0,30.0,1.0,0.0
995,65.0,30.0,60.0,2.0,0.0
996,82.0,0.0,30.0,1.0,0.0
997,78.0,30.0,30.0,1.0,0.0
998,63.0,30.0,60.0,2.0,0.0
999,80.0,0.0,30.0,1.0,0.0
1000,61.0,30.0,60.0,2.0,0.0
1001,77.0,30.0,30.0,1.0,0.0
1002,78.0,0.0,30.0,1.0,0.0
1003,56.0,0.0,60.0,2.0,0.0
1004,75.0,30.0,30.0,1.0,0.0
1005,68.0,0.0,60.0,0.0,0.0
1006,60.0,0.0,60.0,2.0,0.0
1007,77.0,30.0,30.0,1.0,0.0
1008,73.0,30.0,30.0,1.0,0.0
1009,68.0,30.0,30.0,1.0,0.0
1010,73.0,30.0,30.0,1.0,0.0
1011,77.0,30.0,30.0,1.0,0.0
1012,80.0,30.0,30.0,1.0,0.0
1013,68.0,30.0,30.0,1.0,0.0
1014,73.0,30.0,30.0,1.0,0.0
1015,77.0,0.0,30.0,1.0,0.0
1016,53.0,0.0,15.0,2.0,0.0
1017,80.0,30.0,30.0,1.0,0.0
1018,73.0,0.0,15.0,0.0,0.0
1019,61.0,30.0,15.0,2.0,0.0
1020,77.0,30.0,30.0,1.0,0.0
1021,75.0,30.0,30.0,1.0,0.0
1022,73.0,0.0,30.0,1.0,0.0
1023,75.0,0.0,240.0,0.0,0.0
1024,56.0,30.0,240.0,2.0,0.0
1025,75.0,30.0,30.0,1.0,0.0
1026,68.0,30.0,30.0,1.0,0.0
1027,72.0,30.0,30.0,1.0,0.0
1028,75.0,30.0,30.0,1.0,0.0
1029,80.0,30.0,30.0,1.0,0.0
1030,68.0,30.0,30.0,1.0,0.0
1031,72.0,30.0,30.0,1.0,0.0
1032,75.0,0.0,30.0,1.0,0.0
1033,63.0,0.0,15.0,2.0,0.0
1034,80.0,30.0,30.0,1.0,0.0
1035,75.0,0.0,120.0,0.0,0.0
1036,56.0,30.0,120.0,2.0,0.0
1037,78.0,30.0,30.0,1.0,0.0
1038,77.0,30.0,30.0,1.0,0.0
1039,75.0,0.0,30.0,1.0,0.0
1040,65.0,0.0,180.0,2.0,0.0
1041,61.0,0.0,180.0,2.0,0.0
1042,77.0,30.0,30.0,1.0,0.0
1043,77.0,30.0,180.0,0.0,0.0
1044,68.0,30.0,30.0,1.0,0.0
1045,73.0,30.0,30.0,1.0,0.0
1046,77.0,30.0,30.0,1.0,0.0
1047,80.0,30.0,30.0,1.0,0.0
1048,68.0,0.0,30.0,1.0,0.0
1049,60.0,30.0,60.0,2.0,0.0
1050,63.0,0.0,60.0,2.0,0.0
1051,80.0,30.0,30.0,1.0,0.0
1052,75.0,0.0,60.0,0.0,0.0
1053,68.0,0.0,30.0,1.0,0.0
1054,80.0,30.0,30.0,1.0,0.0
1055,77.0,0.0,60.0,0.0,0.0
1056,65.0,0.0,60.0,2.0,0.0
1057,61.0,0.0,60.0,2.0,0.0
1058,68.0,30.0,30.0,1.0,0.0
1059,78.0,0.0,60.0,0.0,0.0
1060,66.0,0.0,60.0,2.0,0.0
1061,63.0,30.0,60.0,2.0,0.0
1062,80.0,30.0,30.0,1.0,0.0
1063,68.0,0.0,30.0,1.0,0.0
1064,65.0,30.0,120.0,2.0,0.0
1065,61.0,0.0,120.0,2.0,0.0
1066,77.0,0.0,120.0,0.0,0.0
1067,80.0,30.0,30.0,1.0,0.0
1068,68.0,30.0,30.0,1.0,0.0
1069,80.0,30.0,30.0,1.0,0.0
1070,68.0,0.0,30.0,1.0,0.0
1071,75.0,30.0,120.0,0.0,0.0
1072,80.0,30.0,30.0,1.0,0.0
1073,60.0,0.0,120.0,2.0,0.0
1074,63.0,0.0,120.0,2.0,0.0
1075,68.0,30.0,30.0,1.0,0.0
1076,80.0,30.0,30.0,1.0,0.0
1077,68.0,0.0,30.0,1.0,0.0
1078,80.0,30.0,30.0,1.0,0.0
1079,84.0,30.0,30.0,1.0,0.0
1080,75.0,0.0,60.0,0.0,0.0
1081,63.0,30.0,60.0,2.0,0.0
1082,60.0,0.0,60.0,2.0,0.0
1083,82.0,30.0,30.0,1.0,0.0
1084,80.0,0.0,30.0,1.0,0.0
1085,79.0,30.0,30.0,1.0,0.0
1086,63.0,0.0,240.0,2.0,0.0
1087,58.0,0.0,240.0,2.0,0.0
1088,75.0,0.0,240.0,0.0,0.0
1089,73.0,30.0,30.0,1.0,0.0
1090,79.0,30.0,30.0,1.0,0.0
1091,82.0,30.0,30.0,1.0,0.0
1092,85.0,30.0,30.0,1.0,0.0
1093,84.0,30.0,30.0,1.0,0.0
1094,82.0,30.0,30.0,1.0,0.0
1095,80.0,30.0,30.0,1.0,0.0
1096,65.0,0.0,60.0,2.0,0.0
1097,77.0,0.0,60.0,0.0,0.0
1098,58.0,30.0,120.0,2.0,0.0
1099,79.0,30.0,30.0,1.0,0.0
1100,77.0,30.0,30.0,1.0,0.0
1101,67.0,0.0,60.0,2.0,0.0
1102,79.0,0.0,60.0,0.0,0.0
1103,75.0,30.0,30.0,1.0,0.0
1104,73.0,0.0,30.0,1.0,0.0
1105,68.0,0.0,120.0,2.0,0.0
1106,56.0,0.0,120.0,2.0,0.0
1107,80.0,0.0,240.0,0.0,0.0
1108,72.0,30.0,30.0,1.0,0.0
1109,75.0,30.0,30.0,1.0,0.0
1110,80.0,30.0,30.0,1.0,0.0
1111,84.0,30.0,30.0,1.0,0.0
1112,60.0,0.0,60.0,2.0,0.0
1113,87.0,30.0,30.0,1.0,0.0
1114,75.0,30.0,30.0,1.0,0.0
1115,60.0,30.0,60.0,2.0,0.0
1116,87.0,30.0,30.0,1.0,0.0
1117,75.0,0.0,30.0,1.0,0.0
1118,61.0,0.0,60.0,2.0,0.0
1119,77.0,0.0,60.0,0.0,0.0
1120,77.0,30.0,30.0,1.0,0.0
1121,85.0,30.0,30.0,1.0,0.0
1122,58.0,0.0,60.0,2.0,0.0
1123,87.0,30.0,30.0,1.0,0.0
1124,82.0,0.0,60.0,0.0,0.0
1125,85.0,30.0,30.0,1.0,0.0
1126,63.0,0.0,60.0,2.0,0.0
1127,80.0,0.0,240.0,0.0,0.0
1128,75.0,30.0,30.0,1.0,0.0
1129,84.0,30.0,30.0,1.0,0.0
1130,51.0,30.0,60.0,2.0,0.0
1131,85.0,30.0,30.0,1.0,0.0
1132,84.0,0.0,30.0,1.0,0.0
1133,63.0,0.0,60.0,2.0,0.0
1134,75.0,30.0,30.0,1.0,0.0
1135,84.0,30.0,30.0,1.0,0.0
1136,51.0,30.0,60.0,2.0,0.0
1137,85.0,30.0,30.0,1.0,0.0
1138,84.0,0.0,30.0,1.0,0.0
1139,79.0,0.0,120.0,0.0,0.0
1140,73.0,30.0,30.0,1.0,0.0
1141,63.0,0.0,60.0,2.0,0.0
1142,82.0,30.0,30.0,1.0,0.0
1143,51.0,60.0,60.0,2.0,0.0
1144,84.0,30.0,30.0,1.0,0.0
1145,82.0,0.0,30.0,1.0,0.0
1146,80.0,30.0,120.0,0.0,0.0
1147,56.0,0.0,60.0,2.0,0.0
1148,80.0,0.0,60.0,1.0,0.0
1149,72.0,30.0,60.0,1.0,0.0
1150,44.0,0.0,60.0,2.0,0.0
1151,63.0,30.0,30.0,1.0,0.0
1152,61.0,0.0,30.0,1.0,0.0
1153,60.0,30.0,30.0,1.0,0.0
1154,56.0,0.0,180.0,2.0,0.0
1155,61.0,30.0,30.0,1.0,0.0
1156,63.0,30.0,30.0,1.0,0.0
1157,65.0,0.0,30.0,1.0,0.0
1158,66.0,30.0,30.0,1.0,0.0
1159,80.0,30.0,15.0,0.0,0.0
1160,68.0,30.0,30.0,1.0,0.0
1161,80.0,0.0,15.0,0.0,0.0
1162,54.0,0.0,60.0,2.0,0.0
1163,70.0,30.0,30.0,1.0,0.0
1164,72.0,0.0,30.0,1.0,0.0
1165,80.0,30.0,15.0,0.0,0.0
1166,53.0,30.0,240.0,2.0,0.0
1167,73.0,30.0,30.0,1.0,0.0
1168,68.0,30.0,30.0,1.0,0.0
1169,65.0,30.0,30.0,1.0,0.0
1170,61.0,30.0,30.0,1.0,0.0
1171,73.0,30.0,30.0,1.0,0.0
1172,68.0,0.0,30.0,1.0,0.0
1173,65.0,30.0,30.0,1.0,0.0
1174,80.0,0.0,60.0,0.0,0.0
1175,61.0,0.0,30.0,1.0,0.0
1176,77.0,30.0,60.0,0.0,0.0
1177,73.0,30.0,30.0,1.0,0.0
1178,47.0,0.0,120.0,2.0,0.0
1179,59.0,0.0,120.0,2.0,0.0
1180,68.0,0.0,30.0,1.0,0.0
1181,65.0,30.0,30.0,1.0,0.0
1182,73.0,30.0,60.0,0.0,0.0
1183,61.0,0.0,30.0,1.0,0.0
1184,46.0,0.0,240.0,2.0,0.0
1185,58.0,0.0,240.0,2.0,0.0
1186,80.0,30.0,120.0,0.0,0.0
1187,73.0,30.0,30.0,1.0,0.0
1188,68.0,30.0,30.0,1.0,0.0
1189,65.0,30.0,30.0,1.0,0.0
1190,61.0,0.0,30.0,1.0,0.0
1191,73.0,30.0,30.0,1.0,0.0
1192,78.0,30.0,120.0,0.0,0.0
1193,68.0,30.0,30.0,1.0,0.0
1194,65.0,30.0,30.0,1.0,0.0
1195,61.0,0.0,30.0,1.0,0.0
1196,77.0,0.0,120.0,0.0,0.0
1197,74.0,30.0,30.0,1.0,0.0
1198,56.0,60.0,120.0,2.0,0.0
1199,44.0,0.0,120.0,2.0,0.0
1200,62.0,30.0,30.0,1.0,0.0
1201,74.0,30.0,30.0,1.0,0.0
1202,62.0,0.0,30.0,1.0,0.0
1203,75.0,0.0,60.0,1.0,0.0
1204,42.0,0.0,60.0,2.0,0.0
1205,54.0,30.0,60.0,2.0,0.0
1206,75.0,0.0,60.0,0.0,0.0
1207,38.0,0.0,60.0,2.0,0.0
1208,50.0,30.0,60.0,2.0,0.0
1209,82.0,0.0,60.0,0.0,0.0
1210,70.0,30.0,30.0,1.0,0.0
1211,82.0,0.0,30.0,1.0,0.0
1212,80.0,0.0,60.0,0.0,0.0
1213,70.0,30.0,30.0,1.0,0.0
1214,51.0,30.0,60.0,2.0,0.0
1215,80.0,0.0,30.0,1.0,0.0
1216,70.0,30.0,30.0,1.0,0.0
1217,39.0,0.0,15.0,2.0,0.0
1218,78.0,30.0,60.0,0.0,0.0
1219,51.0,0.0,60.0,2.0,0.0
1220,78.0,0.0,30.0,1.0,0.0
1221,68.0,30.0,30.0,1.0,0.0
1222,77.0,30.0,60.0,0.0,0.0
1223,41.0,0.0,60.0,2.0,0.0
1224,53.0,0.0,60.0,2.0,0.0
1225,77.0,0.0,30.0,1.0,0.0
1226,66.0,30.0,30.0,1.0,0.0
1227,42.0,0.0,60.0,2.0,0.0
1228,54.0,30.0,60.0,2.0,0.0
1229,75.0,0.0,60.0,0.0,0.0
1230,75.0,0.0,30.0,1.0,0.0
1231,73.0,0.0,120.0,0.0,0.0
1232,56.0,30.0,120.0,2.0,0.0
1233,65.0,30.0,30.0,1.0,0.0
1234,68.0,30.0,30.0,1.0,0.0
1235,73.0,30.0,30.0,1.0,0.0
1236,68.0,0.0,30.0,1.0,0.0
1237,44.0,30.0,120.0,2.0,0.0
1238,72.0,0.0,120.0,0.0,0.0
1239,63.0,30.0,30.0,1.0,0.0
1240,68.0,30.0,30.0,1.0,0.0
1241,72.0,30.0,30.0,1.0,0.0
1242,68.0,0.0,30.0,1.0,0.0
1243,63.0,30.0,30.0,1.0,0.0
1244,54.0,0.0,120.0,2.0,0.0
1245,42.0,30.0,120.0,2.0,0.0
1246,68.0,30.0,30.0,1.0,0.0
1247,68.0,0.0,60.0,0.0,0.0
1248,72.0,30.0,30.0,1.0,0.0
1249,68.0,0.0,30.0,1.0,0.0
1250,73.0,30.0,240.0,0.0,0.0
1251,73.0,30.0,30.0,1.0,0.0
1252,41.0,0.0,180.0,2.0,0.0
1253,53.0,0.0,180.0,2.0,0.0
1254,61.0,30.0,30.0,1.0,0.0
1255,65.0,30.0,30.0,1.0,0.0
1256,68.0,30.0,30.0,1.0,0.0
1257,73.0,30.0,30.0,1.0,0.0
1258,68.0,30.0,30.0,1.0,0.0
1259,80.0,30.0,30.0,1.0,0.0
1260,41.0,0.0,60.0,2.0,0.0
1261,53.0,0.0,60.0,2.0,0.0
1262,68.0,0.0,30.0,1.0,0.0
1263,72.0,30.0,30.0,1.0,0.0
1264,75.0,0.0,60.0,0.0,0.0
1265,39.0,30.0,60.0,2.0,0.0
1266,51.0,0.0,60.0,2.0,0.0
1267,68.0,0.0,30.0,1.0,0.0
1268,77.0,0.0,60.0,0.0,0.0
1269,77.0,30.0,30.0,1.0,0.0
1270,49.0,30.0,60.0,2.0,0.0
1271,73.0,0.0,30.0,1.0,0.0
1272,37.0,0.0,60.0,2.0,0.0
1273,68.0,0.0,30.0,1.0,0.0
1274,78.0,0.0,240.0,0.0,0.0
1275,78.0,30.0,30.0,1.0,0.0
1276,46.0,0.0,180.0,2.0,0.0
1277,58.0,0.0,180.0,2.0,0.0
1278,73.0,30.0,30.0,1.0,0.0
1279,78.0,30.0,30.0,1.0,0.0
1280,82.0,30.0,30.0,1.0,0.0
1281,85.0,30.0,30.0,1.0,0.0
1282,73.0,30.0,30.0,1.0,0.0
1283,85.0,30.0,30.0,1.0,0.0
1284,46.0,30.0,60.0,2.0,0.0
1285,58.0,0.0,60.0,2.0,0.0
1286,73.0,0.0,30.0,1.0,0.0
1287,83.0,30.0,30.0,1.0,0.0
1288,77.0,0.0,30.0,1.0,0.0
1289,80.0,0.0,60.0,0.0,0.0
1290,44.0,0.0,60.0,2.0,0.0
1291,56.0,0.0,60.0,2.0,0.0
1292,73.0,30.0,30.0,1.0,0.0
1293,82.0,30.0,60.0,0.0,0.0
1294,42.0,0.0,60.0,2.0,0.0
1295,82.0,30.0,30.0,1.0,0.0
1296,54.0,0.0,60.0,2.0,0.0
1297,73.0,0.0,30.0,1.0,0.0
1298,77.0,30.0,30.0,1.0,0.0
1299,80.0,0.0,180.0,0.0,0.0
1300,44.0,30.0,60.0,2.0,0.0
1301,80.0,0.0,30.0,1.0,0.0
1302,77.0,30.0,30.0,1.0,0.0
1303,56.0,0.0,60.0,2.0,0.0
1304,73.0,30.0,30.0,1.0,0.0
1305,44.0,0.0,60.0,2.0,0.0
1306,68.0,30.0,30.0,1.0,0.0
1307,77.0,30.0,30.0,1.0,0.0
1308,56.0,0.0,60.0,2.0,0.0
1309,73.0,30.0,30.0,1.0,0.0
1310,77.0,0.0,60.0,0.0,0.0
1311,68.0,30.0,30.0,1.0,0.0
1312,66.0,30.0,30.0,1.0,0.0
1313,44.0,0.0,60.0,2.0,0.0
1314,78.0,0.0,60.0,0.0,0.0
1315,72.0,30.0,30.0,1.0,0.0
1316,56.0,0.0,60.0,2.0,0.0
1317,75.0,60.0,60.0,0.0,0.0
1318,68.0,30.0,30.0,1.0,0.0
1319,66.0,0.0,30.0,1.0,0.0
1320,73.0,0.0,120.0,0.0,0.0
1321,49.0,0.0,60.0,2.0,0.0
1322,65.0,30.0,60.0,1.0,0.0
1323,61.0,30.0,30.0,2.0,0.0
1324,63.0,30.0,30.0,2.0,0.0
1325,60.0,30.0,30.0,2.0,0.0
1326,61.0,30.0,30.0,2.0,0.0
1327,58.0,30.0,30.0,2.0,0.0
1328,60.0,30.0,30.0,2.0,0.0
1329,56.0,30.0,30.0,2.0,0.0
1330,58.0,30.0,30.0,2.0,0.0
1331,54.0,30.0,30.0,2.0,0.0
1332,56.0,60.0,30.0,2.0,0.0
1333,53.0,30.0,60.0,2.0,0.0
1334,73.0,0.0,30.0,1.0,0.0
1335,58.0,30.0,30.0,2.0,0.0
1336,60.0,0.0,30.0,2.0,0.0
1337,75.0,30.0,30.0,1.0,0.0
1338,56.0,0.0,30.0,2.0,0.0
1339,72.0,30.0,30.0,1.0,0.0
1340,73.0,0.0,30.0,1.0,0.0
1341,58.0,30.0,30.0,2.0,0.0
1342,54.0,30.0,30.0,2.0,0.0
1343,70.0,0.0,30.0,1.0,0.0
1344,56.0,30.0,30.0,2.0,0.0
1345,72.0,0.0,30.0,1.0,0.0
1346,68.0,30.0,30.0,1.0,0.0
1347,68.0,0.0,120.0,0.0,0.0
1348,53.0,0.0,30.0,2.0,0.0
1349,54.0,0.0,30.0,2.0,0.0
1350,70.0,30.0,30.0,1.0,0.0
1351,51.0,0.0,30.0,2.0,0.0
1352,66.0,30.0,30.0,1.0,0.0
1353,53.0,30.0,30.0,2.0,0.0
1354,68.0,0.0,30.0,1.0,0.0
1355,65.0,0.0,60.0,1.0,0.0
1356,49.0,30.0,30.0,2.0,0.0
1357,73.0,0.0,240.0,0.0,0.0
1358,56.0,30.0,30.0,2.0,0.0
1359,61.0,30.0,30.0,2.0,0.0
1360,60.0,30.0,30.0,2.0,0.0
1361,61.0,30.0,30.0,2.0,0.0
1362,60.0,30.0,30.0,2.0,0.0
1363,58.0,30.0,30.0,2.0,0.0
1364,56.0,30.0,30.0,2.0,0.0
1365,54.0,30.0,30.0,2.0,0.0
1366,73.0,0.0,120.0,0.0,0.0
1367,65.0,0.0,15.0,1.0,0.0
1368,68.0,0.0,15.0,1.0,0.0
1369,73.0,0.0,15.0,1.0,0.0
1370,53.0,30.0,30.0,2.0,0.0
1371,51.0,30.0,30.0,2.0,0.0
1372,49.0,0.0,30.0,2.0,0.0
1373,48.0,30.0,30.0,2.0,0.0
1374,68.0,0.0,240.0,1.0,0.0
1375,75.0,30.0,240.0,1.0,0.0
1376,46.0,30.0,30.0,2.0,0.0
1377,44.0,30.0,30.0,2.0,0.0
1378,43.0,30.0,30.0,2.0,0.0
1379,44.0,30.0,30.0,2.0,0.0
1380,48.0,30.0,30.0,2.0,0.0
1381,51.0,30.0,30.0,2.0,0.0
1382,55.0,0.0,30.0,2.0,0.0
1383,56.0,30.0,30.0,2.0,0.0
1384,72.0,0.0,15.0,1.0,0.0
1385,75.0,0.0,15.0,0.0,0.0
1386,75.0,30.0,120.0,1.0,0.0
1387,68.0,0.0,120.0,1.0,0.0
1388,54.0,30.0,30.0,2.0,0.0
1389,53.0,30.0,30.0,2.0,0.0
1390,51.0,0.0,30.0,2.0,0.0
1391,77.0,0.0,180.0,0.0,0.0
1392,49.0,30.0,30.0,2.0,0.0
1393,77.0,30.0,180.0,1.0,0.0
1394,73.0,0.0,180.0,1.0,0.0
1395,53.0,30.0,30.0,2.0,0.0
1396,56.0,30.0,30.0,2.0,0.0
1397,61.0,30.0,30.0,2.0,0.0
1398,49.0,30.0,30.0,2.0,0.0
1399,61.0,0.0,30.0,2.0,0.0
1400,68.0,0.0,15.0,1.0,0.0
1401,75.0,0.0,60.0,0.0,0.0
1402,75.0,0.0,60.0,1.0,0.0
1403,48.0,30.0,30.0,2.0,0.0
1404,60.0,30.0,30.0,2.0,0.0
1405,77.0,0.0,60.0,0.0,0.0
1406,68.0,0.0,15.0,1.0,0.0
1407,73.0,0.0,60.0,1.0,0.0
1408,49.0,30.0,30.0,2.0,0.0
1409,77.0,0.0,60.0,1.0,0.0
1410,61.0,30.0,30.0,2.0,0.0
1411,75.0,30.0,60.0,1.0,0.0
1412,78.0,0.0,60.0,1.0,0.0
1413,70.0,0.0,60.0,1.0,0.0
1414,42.0,0.0,30.0,2.0,0.0
1415,80.0,30.0,30.0,0.0,0.0
1416,78.0,0.0,30.0,0.0,0.0
1417,54.0,0.0,30.0,2.0,0.0
1418,73.0,30.0,120.0,1.0,0.0
1419,77.0,0.0,120.0,0.0,0.0
1420,77.0,0.0,120.0,1.0,0.0
1421,44.0,30.0,30.0,2.0,0.0
1422,68.0,30.0,240.0,1.0,0.0
1423,49.0,30.0,30.0,2.0,0.0
1424,53.0,30.0,30.0,2.0,0.0
1425,56.0,0.0,30.0,2.0,0.0
1426,44.0,30.0,30.0,2.0,0.0
1427,75.0,0.0,120.0,0.0,0.0
1428,75.0,0.0,120.0,1.0,0.0
1429,72.0,0.0,120.0,1.0,0.0
1430,49.0,30.0,30.0,2.0,0.0
1431,53.0,30.0,30.0,2.0,0.0
1432,56.0,0.0,30.0,2.0,0.0
1433,44.0,30.0,30.0,2.0,0.0
1434,49.0,30.0,30.0,2.0,0.0
1435,75.0,0.0,60.0,0.0,0.0
1436,53.0,30.0,30.0,2.0,0.0
1437,75.0,0.0,60.0,1.0,0.0
1438,72.0,0.0,60.0,1.0,0.0
1439,68.0,0.0,60.0,1.0,0.0
1440,56.0,30.0,30.0,2.0,0.0
1441,73.0,0.0,240.0,1.0,0.0
1442,75.0,0.0,240.0,1.0,0.0
1443,46.0,30.0,30.0,2.0,0.0
1444,75.0,30.0,240.0,0.0,0.0
1445,58.0,30.0,30.0,2.0,0.0
1446,57.0,30.0,30.0,2.0,0.0
1447,58.0,30.0,30.0,2.0,0.0
1448,55.0,30.0,30.0,2.0,0.0
1449,58.0,30.0,30.0,2.0,0.0
1450,49.0,30.0,30.0,2.0,0.0
1451,55.0,0.0,30.0,2.0,0.0
1452,46.0,30.0,30.0,2.0,0.0
1453,77.0,0.0,60.0,1.0,0.0
1454,77.0,30.0,60.0,0.0,0.0
1455,49.0,0.0,30.0,2.0,0.0
1456,79.0,30.0,60.0,1.0,0.0
1457,79.0,0.0,60.0,0.0,0.0
1458,55.0,30.0,30.0,2.0,0.0
1459,58.0,0.0,30.0,2.0,0.0
1460,48.0,30.0,30.0,2.0,0.0
1461,80.0,30.0,240.0,1.0,0.0
1462,75.0,30.0,180.0,1.0,0.0
1463,80.0,0.0,240.0,0.0,0.0
1464,60.0,30.0,30.0,2.0,0.0
1465,58.0,30.0,30.0,2.0,0.0
1466,60.0,30.0,30.0,2.0,0.0
1467,48.0,30.0,30.0,2.0,0.0
1468,60.0,0.0,30.0,2.0,0.0
1469,44.0,30.0,30.0,2.0,0.0
1470,72.0,0.0,60.0,1.0,0.0
1471,56.0,0.0,30.0,2.0,0.0
1472,49.0,30.0,30.0,2.0,0.0
1473,77.0,0.0,60.0,0.0,0.0
1474,77.0,0.0,60.0,1.0,0.0
1475,61.0,30.0,30.0,2.0,0.0
1476,82.0,0.0,60.0,0.0,0.0
1477,46.0,30.0,30.0,2.0,0.0
1478,73.0,0.0,60.0,1.0,0.0
1479,82.0,30.0,60.0,1.0,0.0
1480,58.0,0.0,30.0,2.0,0.0
1481,80.0,30.0,240.0,0.0,0.0
1482,80.0,0.0,240.0,1.0,0.0
1483,72.0,0.0,240.0,1.0,0.0
1484,51.0,30.0,30.0,2.0,0.0
1485,56.0,30.0,30.0,2.0,0.0
1486,60.0,30.0,30.0,2.0,0.0
1487,63.0,30.0,30.0,2.0,0.0
1488,51.0,30.0,30.0,2.0,0.0
1489,56.0,30.0,30.0,2.0,0.0
1490,60.0,30.0,30.0,2.0,0.0
1491,63.0,0.0,30.0,2.0,0.0
1492,70.0,0.0,120.0,1.0,0.0
1493,75.0,0.0,15.0,1.0,0.0
1494,79.0,0.0,120.0,1.0,0.0
1495,51.0,30.0,30.0,2.0,0.0
1496,79.0,0.0,120.0,0.0,0.0
1497,58.0,30.0,30.0,2.0,0.0
1498,61.0,30.0,30.0,2.0,0.0
1499,63.0,30.0,30.0,2.0,0.0
1500,80.0,0.0,120.0,0.0,0.0
1501,75.0,0.0,120.0,1.0,0.0
1502,72.0,0.0,120.0,1.0,0.0
1503,80.0,30.0,120.0,1.0,0.0
1504,56.0,30.0,30.0,2.0,0.0
1505,60.0,30.0,30.0,2.0,0.0
1506,63.0,30.0,30.0,2.0,0.0
1507,61.0,0.0,30.0,2.0,0.0
1508,60.0,30.0,30.0,2.0,0.0
1509,58.0,30.0,30.0,2.0,0.0
1510,56.0,30.0,30.0,2.0,0.0
1511,55.0,30.0,30.0,2.0,0.0
1512,56.0,30.0,30.0,2.0,0.0
1513,58.0,30.0,30.0,2.0,0.0
1514,68.0,0.0,60.0,1.0,0.0
1515,80.0,0.0,60.0,1.0,0.0
1516,80.0,30.0,60.0,0.0,0.0
1517,54.0,30.0,30.0,2.0,0.0
1518,56.0,0.0,30.0,2.0,0.0
1519,68.0,0.0,240.0,1.0,0.0
1520,80.0,30.0,240.0,1.0,0.0
1521,53.0,30.0,30.0,2.0,0.0
1522,80.0,0.0,240.0,0.0,0.0
1523,56.0,30.0,30.0,2.0,0.0
1524,59.0,30.0,30.0,2.0,0.0
1525,58.0,30.0,30.0,2.0,0.0
1526,56.0,30.0,30.0,2.0,0.0
1527,54.0,30.0,30.0,2.0,0.0
1528,53.0,30.0,30.0,2.0,0.0
1529,51.0,0.0,30.0,2.0,0.0
1530,49.0,30.0,30.0,2.0,0.0
1531,65.0,0.0,60.0,1.0,0.0
1532,77.0,30.0,60.0,0.0,0.0
1533,77.0,0.0,60.0,1.0,0.0
1534,51.0,0.0,30.0,2.0,0.0
1535,47.0,30.0,30.0,2.0,0.0
1536,73.0,0.0,60.0,1.0,0.0
1537,61.0,0.0,60.0,1.0,0.0
1538,73.0,0.0,60.0,0.0,0.0
1539,49.0,30.0,30.0,2.0,0.0
1540,80.0,30.0,120.0,1.0,0.0
1541,68.0,0.0,120.0,1.0,0.0
1542,46.0,30.0,30.0,2.0,0.0
1543,80.0,0.0,120.0,0.0,0.0
1544,49.0,30.0,30.0,2.0,0.0
1545,54.0,30.0,30.0,2.0,0.0
1546,58.0,0.0,30.0,2.0,0.0
1547,46.0,30.0,30.0,2.0,0.0
1548,78.0,0.0,60.0,0.0,0.0
1549,66.0,0.0,60.0,1.0,0.0
1550,78.0,0.0,60.0,1.0,0.0
1551,49.0,30.0,30.0,2.0,0.0
1552,54.0,30.0,30.0,2.0,0.0
1553,58.0,30.0,30.0,2.0,0.0
1554,44.0,30.0,30.0,2.0,0.0
1555,77.0,0.0,120.0,0.0,0.0
1556,65.0,30.0,120.0,1.0,0.0
1557,77.0,0.0,120.0,1.0,0.0
1558,47.0,30.0,30.0,2.0,0.0
1559,50.0,30.0,30.0,2.0,0.0
1560,53.0,0.0,30.0,2.0,0.0
1561,75.0,0.0,60.0,1.0,0.0
1562,75.0,30.0,60.0,0.0,0.0
1563,42.0,30.0,30.0,2.0,0.0
1564,54.0,0.0,30.0,2.0,0.0
1565,70.0,0.0,60.0,1.0,0.0
1566,82.0,0.0,60.0,0.0,0.0
1567,38.0,30.0,30.0,2.0,0.0
1568,82.0,0.0,60.0,1.0,0.0
1569,50.0,30.0,30.0,2.0,0.0
1570,80.0,0.0,60.0,0.0,0.0
1571,68.0,0.0,60.0,1.0,0.0
1572,39.0,30.0,30.0,2.0,0.0
1573,80.0,0.0,60.0,1.0,0.0
1574,51.0,30.0,30.0,2.0,0.0
1575,66.0,0.0,60.0,1.0,0.0
1576,78.0,0.0,60.0,1.0,0.0
1577,39.0,30.0,30.0,2.0,0.0
1578,78.0,30.0,60.0,0.0,0.0
1579,51.0,0.0,30.0,2.0,0.0
1580,41.0,30.0,30.0,2.0,0.0
1581,77.0,30.0,60.0,1.0,0.0
1582,77.0,0.0,60.0,0.0,0.0
1583,65.0,0.0,60.0,1.0,0.0
1584,53.0,0.0,30.0,2.0,0.0
1585,42.0,30.0,30.0,2.0,0.0
1586,75.0,0.0,60.0,0.0,0.0
1587,75.0,30.0,60.0,1.0,0.0
1588,63.0,0.0,60.0,1.0,0.0
1589,54.0,0.0,30.0,2.0,0.0
1590,44.0,30.0,30.0,2.0,0.0
1591,77.0,0.0,120.0,1.0,0.0
1592,73.0,0.0,120.0,0.0,0.0
1593,49.0,30.0,30.0,2.0,0.0
1594,53.0,30.0,30.0,2.0,0.0
1595,56.0,0.0,30.0,2.0,0.0
1596,44.0,30.0,30.0,2.0,0.0
1597,72.0,0.0,120.0,0.0,0.0
1598,68.0,0.0,15.0,1.0,0.0
1599,72.0,30.0,15.0,1.0,0.0
1600,63.0,30.0,120.0,1.0,0.0
1601,56.0,30.0,30.0,2.0,0.0
1602,55.0,30.0,30.0,2.0,0.0
1603,56.0,0.0,30.0,2.0,0.0
1604,44.0,30.0,30.0,2.0,0.0
1605,56.0,30.0,30.0,2.0,0.0
1606,68.0,0.0,60.0,0.0,0.0
1607,68.0,0.0,60.0,1.0,0.0
1608,42.0,30.0,30.0,2.0,0.0
1609,54.0,30.0,30.0,2.0,0.0
1610,73.0,30.0,180.0,1.0,0.0
1611,41.0,30.0,30.0,2.0,0.0
1612,73.0,30.0,240.0,0.0,0.0
1613,44.0,30.0,30.0,2.0,0.0
1614,49.0,30.0,30.0,2.0,0.0
1615,53.0,30.0,30.0,2.0,0.0
1616,41.0,30.0,30.0,2.0,0.0
1617,53.0,0.0,30.0,2.0,0.0
1618,68.0,0.0,60.0,1.0,0.0
1619,80.0,0.0,60.0,1.0,0.0
1620,41.0,30.0,30.0,2.0,0.0
1621,53.0,0.0,30.0,2.0,0.0
1622,75.0,0.0,60.0,0.0,0.0
1623,78.0,0.0,60.0,1.0,0.0
1624,72.0,0.0,60.0,1.0,0.0
1625,39.0,30.0,30.0,2.0,0.0
1626,51.0,30.0,30.0,2.0,0.0
1627,77.0,0.0,60.0,0.0,0.0
1628,37.0,30.0,30.0,2.0,0.0
1629,73.0,0.0,60.0,1.0,0.0
1630,77.0,30.0,60.0,1.0,0.0
1631,68.0,0.0,15.0,1.0,0.0
1632,49.0,0.0,30.0,2.0,0.0
1633,78.0,0.0,240.0,0.0,0.0
1634,78.0,0.0,180.0,1.0,0.0
1635,46.0,30.0,30.0,2.0,0.0
1636,49.0,30.0,30.0,2.0,0.0
1637,54.0,30.0,30.0,2.0,0.0
1638,58.0,30.0,30.0,2.0,0.0
1639,46.0,30.0,30.0,2.0,0.0
1640,58.0,30.0,30.0,2.0,0.0
1641,85.0,0.0,60.0,1.0,0.0
1642,46.0,30.0,30.0,2.0,0.0
1643,58.0,0.0,30.0,2.0,0.0
1644,44.0,30.0,30.0,2.0,0.0
1645,73.0,30.0,15.0,1.0,0.0
1646,83.0,30.0,60.0,1.0,0.0
1647,80.0,0.0,60.0,0.0,0.0
1648,77.0,0.0,60.0,1.0,0.0
1649,56.0,0.0,30.0,2.0,0.0
1650,42.0,30.0,30.0,2.0,0.0
1651,82.0,30.0,60.0,0.0,0.0
1652,78.0,0.0,60.0,1.0,0.0
1653,82.0,0.0,60.0,1.0,0.0
1654,54.0,0.0,30.0,2.0,0.0
1655,77.0,0.0,180.0,1.0,0.0
1656,80.0,0.0,180.0,0.0,0.0
1657,80.0,0.0,180.0,1.0,0.0
1658,73.0,0.0,15.0,1.0,0.0
1659,44.0,30.0,30.0,2.0,0.0
1660,49.0,30.0,30.0,2.0,0.0
1661,53.0,30.0,30.0,2.0,0.0
1662,56.0,30.0,30.0,2.0,0.0
1663,44.0,30.0,30.0,2.0,0.0
1664,49.0,0.0,30.0,2.0,0.0
1665,53.0,30.0,30.0,2.0,0.0
1666,77.0,0.0,60.0,0.0,0.0
1667,73.0,0.0,60.0,1.0,0.0
1668,77.0,0.0,60.0,1.0,0.0
1669,56.0,30.0,30.0,2.0,0.0
1670,44.0,30.0,30.0,2.0,0.0
1671,78.0,0.0,60.0,0.0,0.0
1672,78.0,0.0,60.0,1.0,0.0
1673,51.0,30.0,30.0,2.0,0.0
1674,66.0,0.0,60.0,1.0,0.0
1675,72.0,0.0,15.0,1.0,0.0
1676,75.0,0.0,60.0,0.0,0.0
1677,54.0,30.0,30.0,2.0,0.0
1678,56.0,60.0,30.0,2.0,0.0
1679,73.0,0.0,60.0,1.0,0.0
1680,65.0,30.0,60.0,1.0,0.0
1681,49.0,0.0,120.0,2.0,0.0
1682,73.0,0.0,120.0,0.0,0.0
1683,85.0,30.0,30.0,1.0,0.0
1684,84.0,30.0,30.0,1.0,0.0
1685,85.0,30.0,30.0,1.0,0.0
1686,84.0,30.0,30.0,1.0,0.0
1687,65.0,30.0,60.0,2.0,0.0
1688,61.0,0.0,60.0,2.0,0.0
1689,82.0,30.0,30.0,1.0,0.0
1690,80.0,0.0,30.0,1.0,0.0
1691,78.0,30.0,30.0,1.0,0.0
1692,73.0,0.0,120.0,0.0,0.0
1693,65.0,0.0,60.0,2.0,0.0
1694,61.0,0.0,60.0,2.0,0.0
1695,77.0,30.0,30.0,1.0,0.0
1696,75.0,30.0,30.0,1.0,0.0
1697,61.0,0.0,60.0,2.0,0.0
1698,65.0,0.0,60.0,2.0,0.0
1699,73.0,60.0,30.0,1.0,0.0
1700,66.0,30.0,180.0,2.0,0.0
1701,61.0,0.0,180.0,2.0,0.0
1702,75.0,30.0,60.0,1.0,0.0
1703,87.0,30.0,30.0,1.0,0.0
1704,86.0,30.0,30.0,1.0,0.0
1705,87.0,30.0,30.0,1.0,0.0
1706,85.0,0.0,30.0,1.0,0.0
1707,75.0,0.0,15.0,0.0,0.0
1708,66.0,0.0,60.0,2.0,0.0
1709,61.0,0.0,60.0,2.0,0.0
1710,84.0,30.0,30.0,1.0,0.0
1711,82.0,30.0,30.0,1.0,0.0
1712,66.0,30.0,60.0,2.0,0.0
1713,61.0,0.0,60.0,2.0,0.0
1714,75.0,0.0,15.0,0.0,0.0
1715,80.0,30.0,30.0,1.0,0.0
1716,78.0,0.0,30.0,1.0,0.0
1717,75.0,0.0,15.0,0.0,0.0
1718,77.0,15.0,30.0,1.0,0.0
1719,66.0,0.0,60.0,2.0,0.0
1720,75.0,0.0,30.0,1.0,0.0
1721,78.0,0.0,15.0,0.0,0.0
1722,77.0,0.0,120.0,0.0,0.0
1723,77.0,30.0,60.0,1.0,0.0
1724,61.0,60.0,15.0,2.0,0.0
1725,89.0,30.0,30.0,1.0,0.0
1726,88.0,30.0,30.0,1.0,0.0
1727,89.0,30.0,30.0,1.0,0.0
1728,87.0,0.0,30.0,1.0,0.0
1729,85.0,30.0,30.0,1.0,0.0
1730,61.0,30.0,15.0,2.0,0.0
1731,68.0,0.0,15.0,2.0,0.0
1732,83.0,0.0,30.0,1.0,0.0
1733,68.0,0.0,15.0,2.0,0.0
1734,77.0,0.0,120.0,0.0,0.0
1735,82.0,30.0,30.0,1.0,0.0
1736,61.0,30.0,15.0,2.0,0.0
1737,80.0,0.0,30.0,1.0,0.0
1738,61.0,30.0,15.0,2.0,0.0
1739,68.0,0.0,15.0,2.0,0.0
1740,78.0,30.0,30.0,1.0,0.0
1741,77.0,60.0,30.0,1.0,0.0
1742,70.0,0.0,180.0,2.0,0.0
1743,78.0,30.0,60.0,1.0,0.0
1744,90.0,30.0,30.0,1.0,0.0
1745,89.0,30.0,30.0,1.0,0.0
1746,90.0,30.0,30.0,1.0,0.0
1747,89.0,30.0,30.0,1.0,0.0
1748,78.0,0.0,15.0,0.0,0.0
1749,61.0,0.0,15.0,2.0,0.0
1750,87.0,30.0,30.0,1.0,0.0
1751,85.0,0.0,30.0,1.0,0.0
1752,61.0,0.0,15.0,2.0,0.0
1753,70.0,0.0,15.0,2.0,0.0
1754,78.0,30.0,15.0,0.0,0.0
1755,83.0,30.0,30.0,1.0,0.0
1756,82.0,30.0,30.0,1.0,0.0
1757,70.0,60.0,60.0,2.0,0.0
1758,61.0,0.0,60.0,2.0,0.0
1759,78.0,0.0,15.0,0.0,0.0
1760,80.0,15.0,30.0,1.0,0.0
1761,78.0,0.0,30.0,1.0,0.0
1762,82.0,0.0,15.0,0.0,0.0
1763,77.0,30.0,60.0,1.0,0.0
1764,71.0,0.0,240.0,2.0,0.0
1765,68.0,0.0,240.0,2.0,0.0
1766,65.0,0.0,240.0,2.0,0.0
1767,61.0,0.0,240.0,2.0,0.0
1768,80.0,0.0,120.0,0.0,0.0
1769,89.0,30.0,30.0,1.0,0.0
1770,88.0,30.0,30.0,1.0,0.0
1771,89.0,30.0,30.0,1.0,0.0
1772,87.0,30.0,30.0,1.0,0.0
1773,85.0,30.0,30.0,1.0,0.0
1774,83.0,30.0,30.0,1.0,0.0
1775,61.0,0.0,120.0,2.0,0.0
1776,65.0,0.0,120.0,2.0,0.0
1777,68.0,0.0,120.0,2.0,0.0
1778,80.0,0.0,120.0,0.0,0.0
1779,71.0,0.0,120.0,2.0,0.0
1780,82.0,30.0,30.0,1.0,0.0
1781,80.0,30.0,30.0,1.0,0.0
1782,78.0,30.0,30.0,1.0,0.0
1783,77.0,30.0,30.0,1.0,0.0
1784,82.0,30.0,30.0,1.0,0.0
1785,82.0,30.0,240.0,0.0,0.0
1786,66.0,0.0,240.0,2.0,0.0
1787,85.0,30.0,30.0,1.0,0.0
1788,82.0,30.0,30.0,1.0,0.0
1789,78.0,30.0,30.0,1.0,0.0
1790,73.0,30.0,30.0,1.0,0.0
1791,82.0,30.0,30.0,1.0,0.0
1792,78.0,30.0,30.0,1.0,0.0
1793,73.0,0.0,30.0,1.0,0.0
1794,70.0,30.0,30.0,1.0,0.0
1795,54.0,0.0,15.0,2.0,0.0
1796,78.0,0.0,120.0,0.0,0.0
1797,78.0,30.0,30.0,1.0,0.0
1798,73.0,30.0,30.0,1.0,0.0
1799,70.0,0.0,30.0,1.0,0.0
1800,66.0,30.0,30.0,1.0,0.0
1801,42.0,30.0,15.0,2.0,0.0
1802,54.0,0.0,240.0,2.0,0.0
1803,73.0,30.0,30.0,1.0,0.0
1804,70.0,30.0,30.0,1.0,0.0
1805,66.0,30.0,30.0,1.0,0.0
1806,61.0,30.0,30.0,1.0,0.0
1807,73.0,30.0,30.0,1.0,0.0
1808,70.0,30.0,30.0,1.0,0.0
1809,66.0,0.0,30.0,1.0,0.0
1810,61.0,30.0,30.0,1.0,0.0
1811,73.0,0.0,15.0,0.0,0.0
1812,53.0,30.0,120.0,2.0,0.0
1813,41.0,0.0,120.0,2.0,0.0
1814,73.0,30.0,30.0,1.0,0.0
1815,71.0,30.0,30.0,1.0,0.0
1816,68.0,0.0,30.0,1.0,0.0
1817,42.0,0.0,120.0,2.0,0.0
1818,61.0,30.0,30.0,1.0,0.0
1819,73.0,0.0,240.0,0.0,0.0
1820,54.0,0.0,120.0,2.0,0.0
1821,73.0,30.0,30.0,1.0,0.0
1822,70.0,30.0,30.0,1.0,0.0
1823,66.0,30.0,30.0,1.0,0.0
1824,46.0,0.0,120.0,2.0,0.0
1825,58.0,0.0,120.0,2.0,0.0
1826,61.0,30.0,30.0,1.0,0.0
1827,73.0,30.0,30.0,1.0,0.0
1828,70.0,30.0,30.0,1.0,0.0
1829,66.0,30.0,30.0,1.0,0.0
1830,54.0,360.0,120.0,2.0,0.0
1831,42.0,0.0,120.0,2.0,0.0
1832,73.0,0.0,120.0,0.0,0.0
1833,61.0,30.0,30.0,1.0,0.0
1834,73.0,30.0,30.0,1.0,0.0
1835,70.0,30.0,30.0,1.0,0.0
1836,66.0,0.0,30.0,1.0,0.0
1837,73.0,110.0,360.0,1.0,0.0
1838,68.0,0.0,360.0,1.0,0.0
1839,65.0,0.0,360.0,1.0,0.0
1840,37.0,0.0,360.0,2.0,0.0
1841,61.0,0.0,360.0,1.0,0.0
1842,73.0,0.0,360.0,0.0,0.0
1843,49.0,0.0,360.0,2.0,0.0
