,note,step,duration,channel,velocity
0,85.0,0.0,120.0,2.0,0.0
1,61.0,0.0,120.0,3.0,0.0
2,65.0,0.0,120.0,3.0,0.0
3,49.0,0.0,120.0,6.0,0.0
4,97.0,0.0,120.0,0.0,0.0
5,61.0,0.0,120.0,8.0,0.0
6,68.0,0.0,120.0,8.0,0.0
7,77.0,120.0,120.0,1.0,0.0
8,61.0,0.0,120.0,4.0,0.0
9,73.0,0.0,120.0,4.0,0.0
10,77.0,0.0,120.0,2.0,0.0
11,85.0,240.0,240.0,1.0,0.0
12,49.0,0.0,120.0,11.0,0.0
13,73.0,0.0,120.0,10.0,0.0
14,68.0,0.0,120.0,10.0,0.0
15,61.0,0.0,120.0,10.0,0.0
16,77.0,0.0,120.0,7.0,0.0
17,85.0,0.0,120.0,7.0,0.0
18,61.0,0.0,120.0,5.0,0.0
19,89.0,0.0,120.0,0.0,0.0
20,73.0,0.0,120.0,5.0,0.0
21,80.0,240.0,240.0,1.0,0.0
22,65.0,0.0,480.0,8.0,0.0
23,77.0,240.0,240.0,1.0,0.0
24,61.0,120.0,480.0,10.0,0.0
25,82.0,0.0,240.0,1.0,0.0
26,80.0,240.0,240.0,2.0,0.0
27,56.0,0.0,120.0,4.0,0.0
28,56.0,0.0,120.0,6.0,0.0
29,75.0,0.0,120.0,8.0,0.0
30,68.0,0.0,120.0,8.0,0.0
31,92.0,0.0,120.0,0.0,0.0
32,68.0,0.0,120.0,10.0,0.0
33,63.0,0.0,120.0,10.0,0.0
34,60.0,0.0,120.0,10.0,0.0
35,60.0,0.0,120.0,3.0,0.0
36,80.0,60.0,600.0,1.0,0.0
37,68.0,0.0,120.0,5.0,0.0
38,48.0,0.0,120.0,11.0,0.0
39,80.0,0.0,120.0,7.0,0.0
40,68.0,120.0,120.0,4.0,0.0
41,87.0,0.0,120.0,0.0,0.0
42,75.0,0.0,120.0,7.0,0.0
43,63.0,0.0,120.0,3.0,0.0
44,75.0,120.0,240.0,2.0,0.0
45,63.0,120.0,480.0,8.0,0.0
46,68.0,0.0,240.0,2.0,0.0
47,60.0,0.0,480.0,10.0,0.0
48,82.0,60.0,60.0,1.0,0.0
49,80.0,120.0,60.0,1.0,0.0
50,78.0,0.0,240.0,2.0,0.0
51,80.0,60.0,120.0,1.0,0.0
52,82.0,60.0,60.0,1.0,0.0
53,80.0,0.0,60.0,1.0,0.0
54,47.0,0.0,120.0,3.0,0.0
55,77.0,0.0,120.0,7.0,0.0
56,85.0,0.0,120.0,7.0,0.0
57,89.0,120.0,120.0,0.0,0.0
58,59.0,0.0,120.0,3.0,0.0
59,61.0,0.0,120.0,5.0,0.0
60,73.0,0.0,120.0,5.0,0.0
61,73.0,240.0,240.0,4.0,0.0
62,80.0,60.0,540.0,1.0,0.0
63,68.0,0.0,120.0,8.0,0.0
64,61.0,0.0,120.0,8.0,0.0
65,77.0,0.0,540.0,2.0,0.0
66,92.0,0.0,120.0,0.0,0.0
67,59.0,0.0,120.0,10.0,0.0
68,68.0,0.0,120.0,10.0,0.0
69,73.0,0.0,120.0,10.0,0.0
70,49.0,0.0,120.0,6.0,0.0
71,47.0,0.0,120.0,11.0,0.0
72,68.0,60.0,240.0,4.0,0.0
73,58.0,0.0,480.0,10.0,0.0
74,68.0,120.0,480.0,8.0,0.0
75,61.0,0.0,480.0,8.0,0.0
76,61.0,0.0,240.0,4.0,0.0
77,85.0,60.0,240.0,0.0,0.0
78,78.0,60.0,60.0,1.0,0.0
79,75.0,0.0,60.0,2.0,0.0
80,73.0,60.0,60.0,2.0,0.0
81,77.0,0.0,60.0,1.0,0.0
82,75.0,0.0,60.0,2.0,0.0
83,78.0,0.0,60.0,1.0,0.0
84,77.0,0.0,60.0,2.0,0.0
85,80.0,60.0,60.0,1.0,0.0
86,73.0,0.0,240.0,4.0,0.0
87,78.0,0.0,60.0,2.0,0.0
88,82.0,60.0,60.0,1.0,0.0
89,83.0,60.0,60.0,1.0,0.0
90,73.0,0.0,120.0,2.0,0.0
91,80.0,0.0,60.0,2.0,0.0
92,80.0,0.0,60.0,1.0,0.0
93,77.0,0.0,60.0,2.0,0.0
94,85.0,0.0,120.0,7.0,0.0
95,49.0,0.0,120.0,6.0,0.0
96,46.0,0.0,120.0,11.0,0.0
97,66.0,0.0,240.0,3.0,0.0
98,54.0,120.0,240.0,3.0,0.0
99,58.0,0.0,120.0,10.0,0.0
100,61.0,0.0,120.0,10.0,0.0
101,66.0,0.0,120.0,10.0,0.0
102,73.0,0.0,120.0,7.0,0.0
103,66.0,0.0,120.0,8.0,0.0
104,73.0,0.0,120.0,8.0,0.0
105,61.0,0.0,120.0,5.0,0.0
106,73.0,0.0,120.0,5.0,0.0
107,85.0,0.0,480.0,0.0,0.0
108,73.0,120.0,120.0,2.0,0.0
109,78.0,0.0,120.0,2.0,0.0
110,73.0,0.0,480.0,4.0,0.0
111,78.0,0.0,720.0,1.0,0.0
112,66.0,0.0,600.0,2.0,0.0
113,73.0,0.0,240.0,1.0,0.0
114,73.0,120.0,120.0,7.0,0.0
115,58.0,0.0,120.0,11.0,0.0
116,61.0,0.0,120.0,10.0,0.0
117,66.0,0.0,120.0,8.0,0.0
118,61.0,0.0,240.0,3.0,0.0
119,49.0,120.0,240.0,3.0,0.0
120,61.0,0.0,120.0,2.0,0.0
121,75.0,120.0,240.0,1.0,0.0
122,71.0,0.0,240.0,4.0,0.0
123,87.0,0.0,240.0,0.0,0.0
124,63.0,0.0,240.0,2.0,0.0
125,54.0,0.0,240.0,3.0,0.0
126,66.0,0.0,120.0,8.0,0.0
127,45.0,0.0,240.0,3.0,0.0
128,57.0,120.0,120.0,11.0,0.0
129,59.0,0.0,120.0,10.0,0.0
130,75.0,0.0,120.0,7.0,0.0
131,80.0,0.0,120.0,1.0,0.0
132,76.0,0.0,120.0,7.0,0.0
133,64.0,0.0,240.0,2.0,0.0
134,56.0,0.0,120.0,11.0,0.0
135,64.0,0.0,120.0,8.0,0.0
136,68.0,120.0,120.0,2.0,0.0
137,59.0,0.0,240.0,3.0,0.0
138,71.0,0.0,240.0,4.0,0.0
139,59.0,0.0,120.0,10.0,0.0
140,76.0,0.0,240.0,1.0,0.0
141,44.0,0.0,240.0,3.0,0.0
142,71.0,0.0,120.0,2.0,0.0
143,83.0,0.0,120.0,1.0,0.0
144,76.0,0.0,120.0,7.0,0.0
145,64.0,0.0,360.0,2.0,0.0
146,76.0,0.0,360.0,1.0,0.0
147,57.0,0.0,360.0,3.0,0.0
148,61.0,0.0,120.0,10.0,0.0
149,88.0,120.0,15.0,0.0,0.0
150,73.0,240.0,120.0,4.0,0.0
151,45.0,0.0,360.0,3.0,0.0
152,57.0,0.0,120.0,11.0,0.0
153,64.0,0.0,120.0,8.0,0.0
154,73.0,0.0,15.0,2.0,0.0
155,49.0,0.0,15.0,4.0,0.0
156,73.0,30.0,30.0,7.0,0.0
157,85.0,30.0,15.0,1.0,0.0
158,37.0,0.0,15.0,4.0,0.0
159,57.0,30.0,120.0,3.0,0.0
160,45.0,0.0,120.0,3.0,0.0
161,61.0,0.0,30.0,8.0,0.0
162,73.0,0.0,120.0,1.0,0.0
163,61.0,0.0,120.0,2.0,0.0
164,85.0,0.0,120.0,0.0,0.0
165,57.0,0.0,15.0,10.0,0.0
166,58.0,0.0,15.0,11.0,0.0
167,73.0,0.0,30.0,7.0,0.0
168,57.0,0.0,15.0,10.0,0.0
169,61.0,30.0,15.0,8.0,0.0
170,58.0,0.0,15.0,11.0,0.0
171,73.0,0.0,15.0,7.0,0.0
172,57.0,0.0,30.0,10.0,0.0
173,61.0,0.0,30.0,8.0,0.0
174,80.0,0.0,120.0,1.0,0.0
175,92.0,0.0,120.0,0.0,0.0
176,56.0,0.0,120.0,3.0,0.0
177,44.0,0.0,120.0,3.0,0.0
178,56.0,0.0,120.0,4.0,0.0
179,68.0,0.0,120.0,4.0,0.0
180,56.0,0.0,30.0,11.0,0.0
181,68.0,0.0,120.0,2.0,0.0
182,56.0,0.0,120.0,10.0,0.0
183,68.0,30.0,30.0,8.0,0.0
184,68.0,0.0,30.0,7.0,0.0
185,63.0,0.0,30.0,7.0,0.0
186,60.0,0.0,30.0,8.0,0.0
187,56.0,30.0,30.0,11.0,0.0
188,61.0,0.0,30.0,8.0,0.0
189,65.0,30.0,30.0,7.0,0.0
190,56.0,0.0,30.0,11.0,0.0
191,66.0,0.0,30.0,7.0,0.0
192,56.0,0.0,30.0,11.0,0.0
193,63.0,30.0,30.0,8.0,0.0
194,68.0,30.0,30.0,7.0,0.0
195,65.0,0.0,30.0,8.0,0.0
196,66.0,0.0,30.0,8.0,0.0
197,56.0,0.0,15.0,11.0,0.0
198,70.0,30.0,30.0,7.0,0.0
199,56.0,0.0,15.0,11.0,0.0
200,72.0,30.0,30.0,7.0,0.0
201,68.0,0.0,30.0,8.0,0.0
202,73.0,0.0,30.0,7.0,0.0
203,70.0,0.0,30.0,8.0,0.0
204,56.0,0.0,15.0,11.0,0.0
205,75.0,0.0,30.0,7.0,0.0
206,56.0,30.0,15.0,11.0,0.0
207,66.0,0.0,30.0,10.0,0.0
208,72.0,0.0,15.0,8.0,0.0
209,56.0,30.0,15.0,11.0,0.0
210,68.0,0.0,30.0,10.0,0.0
211,77.0,0.0,30.0,7.0,0.0
212,70.0,0.0,30.0,10.0,0.0
213,78.0,0.0,30.0,7.0,0.0
214,56.0,30.0,15.0,11.0,0.0
215,73.0,30.0,30.0,8.0,0.0
216,80.0,0.0,30.0,7.0,0.0
217,56.0,0.0,15.0,11.0,0.0
218,72.0,30.0,30.0,10.0,0.0
219,75.0,0.0,30.0,8.0,0.0
220,56.0,0.0,15.0,11.0,0.0
221,73.0,30.0,30.0,10.0,0.0
222,82.0,0.0,30.0,7.0,0.0
223,77.0,0.0,30.0,8.0,0.0
224,56.0,0.0,15.0,11.0,0.0
225,78.0,0.0,30.0,8.0,0.0
226,75.0,0.0,30.0,10.0,0.0
227,84.0,0.0,30.0,7.0,0.0
228,80.0,0.0,30.0,8.0,0.0
229,77.0,30.0,30.0,10.0,0.0
230,85.0,0.0,30.0,7.0,0.0
231,56.0,30.0,15.0,11.0,0.0
232,78.0,0.0,30.0,8.0,0.0
233,87.0,0.0,30.0,7.0,0.0
234,75.0,0.0,30.0,10.0,0.0
235,56.0,120.0,30.0,11.0,0.0
236,77.0,0.0,120.0,8.0,0.0
237,77.0,0.0,240.0,2.0,0.0
238,61.0,0.0,240.0,3.0,0.0
239,73.0,120.0,120.0,10.0,0.0
240,65.0,240.0,240.0,3.0,0.0
241,56.0,0.0,120.0,11.0,0.0
242,89.0,0.0,120.0,7.0,0.0
243,73.0,0.0,15.0,2.0,0.0
244,68.0,0.0,240.0,2.0,0.0
245,61.0,30.0,240.0,3.0,0.0
246,53.0,30.0,120.0,3.0,0.0
247,65.0,0.0,120.0,2.0,0.0
248,65.0,0.0,30.0,7.0,0.0
249,56.0,0.0,15.0,3.0,0.0
250,56.0,0.0,120.0,10.0,0.0
251,68.0,0.0,120.0,2.0,0.0
252,61.0,30.0,15.0,8.0,0.0
253,56.0,0.0,15.0,11.0,0.0
254,65.0,30.0,30.0,7.0,0.0
255,66.0,30.0,30.0,7.0,0.0
256,56.0,0.0,30.0,11.0,0.0
257,63.0,0.0,30.0,8.0,0.0
258,65.0,0.0,30.0,8.0,0.0
259,68.0,0.0,30.0,7.0,0.0
260,56.0,0.0,30.0,11.0,0.0
261,70.0,0.0,30.0,7.0,0.0
262,66.0,0.0,30.0,8.0,0.0
263,56.0,30.0,15.0,11.0,0.0
264,68.0,30.0,30.0,8.0,0.0
265,72.0,0.0,30.0,7.0,0.0
266,70.0,0.0,30.0,8.0,0.0
267,73.0,0.0,30.0,7.0,0.0
268,72.0,0.0,30.0,8.0,0.0
269,56.0,30.0,15.0,11.0,0.0
270,75.0,0.0,30.0,7.0,0.0
271,56.0,30.0,15.0,11.0,0.0
272,77.0,30.0,30.0,7.0,0.0
273,68.0,0.0,30.0,10.0,0.0
274,73.0,0.0,15.0,8.0,0.0
275,70.0,0.0,30.0,10.0,0.0
276,78.0,30.0,30.0,7.0,0.0
277,80.0,0.0,30.0,7.0,0.0
278,56.0,0.0,15.0,11.0,0.0
279,75.0,0.0,30.0,8.0,0.0
280,72.0,30.0,30.0,10.0,0.0
281,77.0,0.0,30.0,8.0,0.0
282,82.0,0.0,30.0,7.0,0.0
283,73.0,30.0,30.0,10.0,0.0
284,56.0,0.0,30.0,11.0,0.0
285,84.0,0.0,30.0,7.0,0.0
286,78.0,0.0,30.0,8.0,0.0
287,75.0,0.0,30.0,10.0,0.0
288,80.0,0.0,30.0,8.0,0.0
289,85.0,30.0,30.0,7.0,0.0
290,77.0,0.0,30.0,10.0,0.0
291,56.0,30.0,15.0,11.0,0.0
292,56.0,0.0,30.0,11.0,0.0
293,78.0,0.0,30.0,10.0,0.0
294,87.0,30.0,30.0,7.0,0.0
295,80.0,0.0,15.0,8.0,0.0
296,56.0,0.0,30.0,11.0,0.0
297,77.0,120.0,30.0,10.0,0.0
298,89.0,0.0,30.0,7.0,0.0
299,90.0,120.0,120.0,7.0,0.0
300,75.0,0.0,240.0,2.0,0.0
301,63.0,0.0,240.0,3.0,0.0
302,66.0,240.0,240.0,3.0,0.0
303,56.0,0.0,120.0,11.0,0.0
304,78.0,0.0,240.0,2.0,0.0
305,75.0,0.0,120.0,10.0,0.0
306,80.0,0.0,120.0,8.0,0.0
307,72.0,0.0,240.0,2.0,0.0
308,75.0,0.0,240.0,2.0,0.0
309,60.0,0.0,240.0,3.0,0.0
310,63.0,30.0,15.0,3.0,0.0
311,66.0,0.0,240.0,3.0,0.0
312,72.0,0.0,30.0,2.0,0.0
313,56.0,0.0,30.0,11.0,0.0
314,56.0,0.0,120.0,10.0,0.0
315,63.0,30.0,30.0,8.0,0.0
316,72.0,0.0,15.0,0.0,0.0
317,66.0,0.0,15.0,7.0,0.0
318,63.0,0.0,30.0,8.0,0.0
319,72.0,0.0,30.0,2.0,0.0
320,73.0,0.0,30.0,2.0,0.0
321,56.0,0.0,15.0,11.0,0.0
322,73.0,0.0,30.0,0.0,0.0
323,68.0,30.0,30.0,7.0,0.0
324,65.0,0.0,30.0,8.0,0.0
325,66.0,30.0,30.0,8.0,0.0
326,75.0,0.0,30.0,2.0,0.0
327,56.0,0.0,15.0,11.0,0.0
328,70.0,0.0,30.0,7.0,0.0
329,75.0,0.0,30.0,0.0,0.0
330,77.0,0.0,30.0,2.0,0.0
331,77.0,0.0,30.0,0.0,0.0
332,68.0,0.0,30.0,8.0,0.0
333,72.0,0.0,30.0,7.0,0.0
334,56.0,30.0,15.0,11.0,0.0
335,78.0,0.0,30.0,0.0,0.0
336,70.0,30.0,30.0,8.0,0.0
337,78.0,0.0,30.0,2.0,0.0
338,73.0,0.0,30.0,7.0,0.0
339,75.0,0.0,30.0,7.0,0.0
340,56.0,0.0,30.0,11.0,0.0
341,72.0,0.0,30.0,8.0,0.0
342,80.0,0.0,30.0,2.0,0.0
343,80.0,30.0,30.0,0.0,0.0
344,77.0,0.0,30.0,7.0,0.0
345,73.0,0.0,30.0,8.0,0.0
346,82.0,30.0,30.0,2.0,0.0
347,82.0,0.0,30.0,0.0,0.0
348,84.0,0.0,30.0,0.0,0.0
349,63.0,0.0,15.0,3.0,0.0
350,63.0,0.0,30.0,10.0,0.0
351,66.0,0.0,30.0,10.0,0.0
352,56.0,0.0,15.0,11.0,0.0
353,84.0,0.0,30.0,1.0,0.0
354,75.0,0.0,30.0,8.0,0.0
355,56.0,30.0,30.0,4.0,0.0
356,68.0,0.0,30.0,4.0,0.0
357,84.0,0.0,30.0,2.0,0.0
358,75.0,0.0,30.0,2.0,0.0
359,78.0,0.0,30.0,7.0,0.0
360,65.0,0.0,30.0,10.0,0.0
361,80.0,0.0,30.0,7.0,0.0
362,85.0,0.0,30.0,0.0,0.0
363,78.0,0.0,30.0,2.0,0.0
364,56.0,0.0,15.0,11.0,0.0
365,77.0,30.0,30.0,8.0,0.0
366,85.0,0.0,30.0,1.0,0.0
367,63.0,0.0,15.0,3.0,0.0
368,66.0,0.0,15.0,3.0,0.0
369,68.0,0.0,30.0,10.0,0.0
370,75.0,0.0,30.0,2.0,0.0
371,56.0,0.0,30.0,4.0,0.0
372,87.0,0.0,30.0,1.0,0.0
373,63.0,0.0,15.0,3.0,0.0
374,87.0,0.0,30.0,0.0,0.0
375,56.0,0.0,15.0,11.0,0.0
376,66.0,0.0,15.0,3.0,0.0
377,66.0,0.0,30.0,10.0,0.0
378,82.0,0.0,30.0,7.0,0.0
379,75.0,0.0,30.0,2.0,0.0
380,70.0,0.0,30.0,10.0,0.0
381,68.0,0.0,15.0,4.0,0.0
382,78.0,0.0,30.0,8.0,0.0
383,56.0,0.0,30.0,4.0,0.0
384,56.0,0.0,15.0,11.0,0.0
385,89.0,0.0,30.0,0.0,0.0
386,63.0,0.0,15.0,3.0,0.0
387,66.0,0.0,15.0,3.0,0.0
388,84.0,0.0,30.0,7.0,0.0
389,78.0,30.0,15.0,2.0,0.0
390,80.0,0.0,30.0,8.0,0.0
391,68.0,0.0,30.0,10.0,0.0
392,72.0,0.0,30.0,10.0,0.0
393,89.0,30.0,30.0,1.0,0.0
394,73.0,0.0,30.0,10.0,0.0
395,56.0,0.0,30.0,11.0,0.0
396,82.0,0.0,30.0,8.0,0.0
397,85.0,0.0,30.0,7.0,0.0
398,68.0,0.0,15.0,4.0,0.0
399,56.0,0.0,15.0,4.0,0.0
400,87.0,0.0,30.0,1.0,0.0
401,75.0,0.0,15.0,2.0,0.0
402,90.0,0.0,30.0,1.0,0.0
403,78.0,0.0,30.0,2.0,0.0
404,70.0,0.0,30.0,10.0,0.0
405,90.0,30.0,30.0,0.0,0.0
406,56.0,30.0,30.0,4.0,0.0
407,75.0,0.0,30.0,10.0,0.0
408,72.0,0.0,30.0,10.0,0.0
409,84.0,0.0,30.0,8.0,0.0
410,87.0,0.0,30.0,1.0,0.0
411,90.0,0.0,30.0,1.0,0.0
412,87.0,0.0,30.0,7.0,0.0
413,78.0,0.0,30.0,2.0,0.0
414,75.0,0.0,30.0,2.0,0.0
415,68.0,0.0,30.0,4.0,0.0
416,63.0,0.0,15.0,3.0,0.0
417,92.0,0.0,30.0,0.0,0.0
418,66.0,0.0,15.0,3.0,0.0
419,56.0,0.0,30.0,11.0,0.0
420,63.0,0.0,15.0,3.0,0.0
421,66.0,0.0,15.0,3.0,0.0
422,78.0,0.0,30.0,2.0,0.0
423,85.0,0.0,30.0,8.0,0.0
424,94.0,30.0,30.0,0.0,0.0
425,87.0,0.0,30.0,1.0,0.0
426,90.0,0.0,30.0,1.0,0.0
427,56.0,0.0,30.0,11.0,0.0
428,89.0,0.0,30.0,7.0,0.0
429,73.0,0.0,30.0,10.0,0.0
430,77.0,0.0,30.0,10.0,0.0
431,68.0,0.0,30.0,4.0,0.0
432,87.0,0.0,30.0,8.0,0.0
433,56.0,0.0,30.0,11.0,0.0
434,75.0,0.0,15.0,2.0,0.0
435,87.0,0.0,30.0,1.0,0.0
436,90.0,0.0,30.0,1.0,0.0
437,56.0,0.0,15.0,4.0,0.0
438,78.0,0.0,30.0,2.0,0.0
439,68.0,30.0,30.0,4.0,0.0
440,90.0,0.0,30.0,7.0,0.0
441,75.0,0.0,30.0,10.0,0.0
442,78.0,0.0,30.0,10.0,0.0
443,63.0,0.0,15.0,3.0,0.0
444,96.0,0.0,30.0,0.0,0.0
445,66.0,0.0,15.0,3.0,0.0
446,77.0,0.0,30.0,10.0,0.0
447,73.0,0.0,30.0,10.0,0.0
448,89.0,0.0,600.0,1.0,0.0
449,61.0,0.0,600.0,3.0,0.0
450,85.0,0.0,600.0,1.0,0.0
451,65.0,0.0,600.0,3.0,0.0
452,92.0,0.0,15.0,0.0,0.0
453,97.0,0.0,600.0,0.0,0.0
454,89.0,0.0,120.0,7.0,0.0
455,73.0,30.0,120.0,7.0,0.0
456,49.0,30.0,30.0,11.0,0.0
457,61.0,0.0,600.0,4.0,0.0
458,73.0,0.0,600.0,4.0,0.0
459,73.0,0.0,600.0,5.0,0.0
460,61.0,0.0,600.0,5.0,0.0
461,73.0,0.0,600.0,2.0,0.0
462,77.0,0.0,600.0,2.0,0.0
463,68.0,0.0,120.0,8.0,0.0
464,61.0,0.0,120.0,8.0,0.0
465,85.0,30.0,240.0,8.0,0.0
466,49.0,0.0,120.0,6.0,0.0
467,61.0,0.0,30.0,10.0,0.0
468,49.0,30.0,30.0,11.0,0.0
469,65.0,0.0,15.0,10.0,0.0
470,51.0,0.0,30.0,11.0,0.0
471,61.0,30.0,30.0,10.0,0.0
472,53.0,0.0,30.0,11.0,0.0
473,61.0,0.0,30.0,10.0,0.0
474,65.0,0.0,30.0,10.0,0.0
475,65.0,0.0,30.0,10.0,0.0
476,54.0,30.0,30.0,11.0,0.0
477,61.0,0.0,30.0,10.0,0.0
478,61.0,0.0,30.0,10.0,0.0
479,56.0,30.0,30.0,11.0,0.0
480,65.0,0.0,15.0,10.0,0.0
481,58.0,30.0,30.0,11.0,0.0
482,65.0,0.0,15.0,10.0,0.0
483,61.0,0.0,15.0,10.0,0.0
484,60.0,0.0,30.0,11.0,0.0
485,61.0,30.0,30.0,11.0,0.0
486,80.0,0.0,240.0,8.0,0.0
487,61.0,0.0,15.0,10.0,0.0
488,65.0,0.0,15.0,10.0,0.0
489,63.0,0.0,30.0,11.0,0.0
490,65.0,0.0,15.0,10.0,0.0
491,61.0,30.0,15.0,10.0,0.0
492,65.0,0.0,30.0,11.0,0.0
493,66.0,30.0,30.0,11.0,0.0
494,65.0,30.0,15.0,10.0,0.0
495,61.0,0.0,15.0,10.0,0.0
496,65.0,0.0,15.0,10.0,0.0
497,68.0,30.0,30.0,11.0,0.0
498,70.0,0.0,30.0,11.0,0.0
499,65.0,0.0,15.0,10.0,0.0
500,72.0,0.0,30.0,11.0,0.0
501,61.0,30.0,15.0,10.0,0.0
502,61.0,0.0,30.0,10.0,0.0
503,73.0,0.0,30.0,11.0,0.0
504,49.0,0.0,120.0,6.0,0.0
505,77.0,30.0,240.0,8.0,0.0
506,61.0,0.0,30.0,7.0,0.0
507,65.0,30.0,15.0,10.0,0.0
508,49.0,30.0,120.0,11.0,0.0
509,68.0,30.0,30.0,7.0,0.0
510,65.0,30.0,15.0,10.0,0.0
511,61.0,0.0,15.0,10.0,0.0
512,61.0,0.0,15.0,10.0,0.0
513,65.0,0.0,30.0,10.0,0.0
514,70.0,30.0,30.0,7.0,0.0
515,72.0,0.0,30.0,7.0,0.0
516,73.0,0.0,30.0,7.0,0.0
517,61.0,0.0,15.0,10.0,0.0
518,65.0,0.0,15.0,10.0,0.0
519,75.0,0.0,30.0,7.0,0.0
520,65.0,30.0,15.0,10.0,0.0
521,77.0,30.0,30.0,7.0,0.0
522,61.0,0.0,15.0,10.0,0.0
523,61.0,0.0,30.0,10.0,0.0
524,78.0,0.0,30.0,7.0,0.0
525,65.0,0.0,30.0,10.0,0.0
526,61.0,0.0,30.0,10.0,0.0
527,82.0,0.0,240.0,8.0,0.0
528,80.0,0.0,30.0,7.0,0.0
529,82.0,0.0,30.0,7.0,0.0
530,65.0,30.0,15.0,10.0,0.0
531,61.0,30.0,15.0,10.0,0.0
532,84.0,30.0,30.0,7.0,0.0
533,61.0,0.0,15.0,10.0,0.0
534,65.0,0.0,15.0,10.0,0.0
535,85.0,30.0,30.0,7.0,0.0
536,87.0,0.0,30.0,7.0,0.0
537,65.0,0.0,30.0,10.0,0.0
538,61.0,30.0,30.0,10.0,0.0
539,89.0,0.0,30.0,7.0,0.0
540,65.0,0.0,15.0,10.0,0.0
541,90.0,0.0,30.0,7.0,0.0
542,61.0,30.0,15.0,10.0,0.0
543,65.0,0.0,30.0,10.0,0.0
544,61.0,30.0,15.0,10.0,0.0
545,92.0,30.0,30.0,7.0,0.0
546,87.0,0.0,480.0,1.0,0.0
547,92.0,0.0,480.0,0.0,0.0
548,56.0,0.0,120.0,6.0,0.0
549,68.0,0.0,120.0,8.0,0.0
550,75.0,0.0,120.0,8.0,0.0
551,72.0,0.0,30.0,10.0,0.0
552,60.0,0.0,480.0,3.0,0.0
553,80.0,0.0,120.0,8.0,0.0
554,75.0,0.0,30.0,10.0,0.0
555,68.0,0.0,600.0,5.0,0.0
556,87.0,0.0,480.0,0.0,0.0
557,92.0,0.0,240.0,7.0,0.0
558,80.0,0.0,600.0,1.0,0.0
559,68.0,0.0,600.0,4.0,0.0
560,56.0,0.0,600.0,4.0,0.0
561,75.0,30.0,480.0,2.0,0.0
562,80.0,30.0,600.0,2.0,0.0
563,48.0,30.0,15.0,11.0,0.0
564,63.0,0.0,30.0,10.0,0.0
565,60.0,0.0,15.0,10.0,0.0
566,49.0,30.0,30.0,11.0,0.0
567,60.0,0.0,15.0,10.0,0.0
568,63.0,0.0,15.0,10.0,0.0
569,51.0,0.0,30.0,11.0,0.0
570,53.0,30.0,30.0,11.0,0.0
571,63.0,0.0,15.0,10.0,0.0
572,60.0,0.0,15.0,10.0,0.0
573,54.0,0.0,30.0,11.0,0.0
574,56.0,30.0,30.0,11.0,0.0
575,60.0,0.0,30.0,10.0,0.0
576,63.0,0.0,30.0,10.0,0.0
577,58.0,0.0,30.0,11.0,0.0
578,63.0,30.0,15.0,10.0,0.0
579,60.0,0.0,15.0,10.0,0.0
580,60.0,0.0,30.0,11.0,0.0
581,87.0,0.0,240.0,7.0,0.0
582,60.0,30.0,15.0,10.0,0.0
583,61.0,0.0,30.0,11.0,0.0
584,63.0,30.0,30.0,11.0,0.0
585,60.0,0.0,15.0,10.0,0.0
586,63.0,30.0,15.0,10.0,0.0
587,63.0,0.0,15.0,10.0,0.0
588,65.0,0.0,30.0,11.0,0.0
589,66.0,0.0,30.0,11.0,0.0
590,63.0,30.0,15.0,10.0,0.0
591,60.0,0.0,15.0,10.0,0.0
592,60.0,0.0,15.0,10.0,0.0
593,68.0,0.0,30.0,11.0,0.0
594,63.0,30.0,15.0,10.0,0.0
595,63.0,30.0,15.0,10.0,0.0
596,60.0,0.0,15.0,10.0,0.0
597,70.0,0.0,30.0,11.0,0.0
598,72.0,0.0,30.0,11.0,0.0
599,63.0,30.0,15.0,10.0,0.0
600,60.0,0.0,15.0,10.0,0.0
601,85.0,0.0,120.0,1.0,0.0
602,68.0,30.0,30.0,8.0,0.0
603,59.0,0.0,120.0,3.0,0.0
604,92.0,0.0,120.0,0.0,0.0
605,47.0,0.0,120.0,11.0,0.0
606,89.0,0.0,120.0,0.0,0.0
607,77.0,0.0,120.0,2.0,0.0
608,80.0,0.0,240.0,7.0,0.0
609,56.0,0.0,120.0,6.0,0.0
610,61.0,0.0,15.0,10.0,0.0
611,59.0,0.0,15.0,10.0,0.0
612,65.0,0.0,30.0,8.0,0.0
613,66.0,0.0,30.0,8.0,0.0
614,68.0,0.0,30.0,8.0,0.0
615,61.0,0.0,15.0,10.0,0.0
616,59.0,30.0,15.0,10.0,0.0
617,70.0,0.0,30.0,8.0,0.0
618,61.0,0.0,15.0,10.0,0.0
619,59.0,0.0,15.0,10.0,0.0
620,59.0,30.0,30.0,10.0,0.0
621,71.0,0.0,30.0,8.0,0.0
622,61.0,0.0,30.0,10.0,0.0
623,73.0,30.0,30.0,8.0,0.0
624,61.0,0.0,30.0,10.0,0.0
625,59.0,0.0,15.0,10.0,0.0
626,61.0,0.0,30.0,10.0,0.0
627,75.0,30.0,30.0,8.0,0.0
628,77.0,30.0,30.0,8.0,0.0
629,92.0,0.0,240.0,7.0,0.0
630,59.0,0.0,15.0,10.0,0.0
631,61.0,0.0,15.0,10.0,0.0
632,78.0,0.0,30.0,8.0,0.0
633,80.0,0.0,30.0,8.0,0.0
634,59.0,0.0,30.0,10.0,0.0
635,82.0,0.0,30.0,8.0,0.0
636,59.0,30.0,30.0,10.0,0.0
637,61.0,30.0,15.0,10.0,0.0
638,83.0,30.0,30.0,8.0,0.0
639,61.0,0.0,30.0,10.0,0.0
640,84.0,0.0,30.0,8.0,0.0
641,61.0,30.0,15.0,10.0,0.0
642,61.0,0.0,15.0,10.0,0.0
643,85.0,30.0,15.0,8.0,0.0
644,85.0,0.0,600.0,2.0,0.0
645,49.0,0.0,120.0,6.0,0.0
646,90.0,0.0,120.0,7.0,0.0
647,73.0,0.0,120.0,8.0,0.0
648,61.0,0.0,600.0,4.0,0.0
649,78.0,0.0,600.0,1.0,0.0
650,90.0,0.0,600.0,1.0,0.0
651,66.0,0.0,480.0,5.0,0.0
652,54.0,0.0,480.0,5.0,0.0
653,85.0,30.0,15.0,8.0,0.0
654,97.0,0.0,600.0,0.0,0.0
655,90.0,0.0,600.0,0.0,0.0
656,73.0,0.0,600.0,4.0,0.0
657,73.0,0.0,600.0,2.0,0.0
658,46.0,0.0,30.0,11.0,0.0
659,66.0,0.0,120.0,8.0,0.0
660,73.0,0.0,30.0,10.0,0.0
661,70.0,30.0,30.0,10.0,0.0
662,46.0,30.0,480.0,3.0,0.0
663,61.0,30.0,120.0,8.0,0.0
664,58.0,0.0,480.0,3.0,0.0
665,46.0,0.0,30.0,11.0,0.0
666,61.0,30.0,15.0,10.0,0.0
667,58.0,0.0,15.0,10.0,0.0
668,47.0,0.0,30.0,11.0,0.0
669,58.0,30.0,15.0,10.0,0.0
670,61.0,0.0,30.0,10.0,0.0
671,49.0,0.0,30.0,11.0,0.0
672,51.0,0.0,30.0,11.0,0.0
673,58.0,30.0,30.0,10.0,0.0
674,61.0,0.0,30.0,10.0,0.0
675,58.0,0.0,30.0,10.0,0.0
676,53.0,0.0,30.0,11.0,0.0
677,54.0,0.0,30.0,11.0,0.0
678,61.0,30.0,15.0,10.0,0.0
679,56.0,0.0,30.0,11.0,0.0
680,58.0,30.0,15.0,10.0,0.0
681,61.0,30.0,15.0,10.0,0.0
682,58.0,0.0,15.0,10.0,0.0
683,58.0,0.0,30.0,11.0,0.0
684,78.0,0.0,240.0,8.0,0.0
685,58.0,30.0,15.0,10.0,0.0
686,61.0,0.0,30.0,10.0,0.0
687,59.0,30.0,30.0,11.0,0.0
688,61.0,0.0,30.0,11.0,0.0
689,58.0,30.0,15.0,10.0,0.0
690,61.0,0.0,15.0,10.0,0.0
691,63.0,30.0,30.0,11.0,0.0
692,61.0,0.0,15.0,10.0,0.0
693,65.0,0.0,30.0,11.0,0.0
694,61.0,30.0,15.0,10.0,0.0
695,58.0,0.0,15.0,10.0,0.0
696,66.0,30.0,30.0,11.0,0.0
697,61.0,0.0,15.0,10.0,0.0
698,58.0,0.0,15.0,10.0,0.0
699,68.0,0.0,30.0,11.0,0.0
700,70.0,0.0,30.0,11.0,0.0
701,61.0,0.0,15.0,10.0,0.0
702,58.0,30.0,15.0,10.0,0.0
703,73.0,0.0,240.0,8.0,0.0
704,49.0,0.0,120.0,5.0,0.0
705,45.0,30.0,120.0,11.0,0.0
706,49.0,0.0,120.0,6.0,0.0
707,45.0,0.0,120.0,3.0,0.0
708,61.0,0.0,120.0,5.0,0.0
709,61.0,0.0,30.0,10.0,0.0
710,57.0,0.0,120.0,3.0,0.0
711,61.0,0.0,30.0,10.0,0.0
712,66.0,0.0,15.0,7.0,0.0
713,57.0,30.0,15.0,10.0,0.0
714,57.0,0.0,30.0,10.0,0.0
715,61.0,0.0,30.0,10.0,0.0
716,68.0,30.0,30.0,7.0,0.0
717,61.0,0.0,30.0,10.0,0.0
718,57.0,0.0,30.0,10.0,0.0
719,69.0,0.0,30.0,7.0,0.0
720,71.0,30.0,30.0,7.0,0.0
721,61.0,0.0,30.0,10.0,0.0
722,57.0,0.0,30.0,10.0,0.0
723,57.0,0.0,30.0,10.0,0.0
724,61.0,0.0,30.0,10.0,0.0
725,73.0,30.0,30.0,7.0,0.0
726,75.0,0.0,30.0,7.0,0.0
727,61.0,30.0,15.0,10.0,0.0
728,57.0,0.0,15.0,10.0,0.0
729,77.0,0.0,30.0,7.0,0.0
730,85.0,30.0,240.0,8.0,0.0
731,78.0,30.0,30.0,7.0,0.0
732,57.0,0.0,30.0,10.0,0.0
733,61.0,30.0,15.0,10.0,0.0
734,57.0,0.0,30.0,10.0,0.0
735,61.0,0.0,15.0,10.0,0.0
736,80.0,30.0,30.0,7.0,0.0
737,57.0,30.0,30.0,10.0,0.0
738,61.0,0.0,30.0,10.0,0.0
739,81.0,0.0,30.0,7.0,0.0
740,83.0,0.0,30.0,7.0,0.0
741,57.0,30.0,30.0,10.0,0.0
742,61.0,0.0,30.0,10.0,0.0
743,85.0,0.0,30.0,7.0,0.0
744,57.0,30.0,30.0,10.0,0.0
745,61.0,0.0,30.0,10.0,0.0
746,57.0,30.0,30.0,10.0,0.0
747,61.0,0.0,30.0,10.0,0.0
748,87.0,0.0,30.0,7.0,0.0
749,89.0,0.0,30.0,7.0,0.0
750,61.0,0.0,30.0,10.0,0.0
751,57.0,30.0,30.0,10.0,0.0
752,57.0,0.0,30.0,10.0,0.0
753,61.0,0.0,30.0,10.0,0.0
754,71.0,0.0,600.0,4.0,0.0
755,90.0,0.0,15.0,7.0,0.0
756,78.0,0.0,120.0,7.0,0.0
757,57.0,0.0,30.0,10.0,0.0
758,78.0,0.0,480.0,2.0,0.0
759,75.0,0.0,480.0,2.0,0.0
760,71.0,0.0,600.0,5.0,0.0
761,87.0,0.0,480.0,1.0,0.0
762,95.0,0.0,480.0,0.0,0.0
763,57.0,0.0,480.0,3.0,0.0
764,45.0,0.0,480.0,3.0,0.0
765,75.0,0.0,120.0,8.0,0.0
766,66.0,0.0,120.0,8.0,0.0
767,59.0,0.0,120.0,8.0,0.0
768,90.0,0.0,480.0,0.0,0.0
769,45.0,30.0,15.0,11.0,0.0
770,59.0,0.0,15.0,10.0,0.0
771,57.0,30.0,15.0,10.0,0.0
772,47.0,30.0,30.0,11.0,0.0
773,59.0,0.0,15.0,10.0,0.0
774,49.0,0.0,30.0,11.0,0.0
775,57.0,0.0,15.0,10.0,0.0
776,59.0,0.0,15.0,10.0,0.0
777,51.0,30.0,30.0,11.0,0.0
778,57.0,30.0,15.0,10.0,0.0
779,57.0,0.0,30.0,10.0,0.0
780,59.0,0.0,15.0,10.0,0.0
781,52.0,30.0,30.0,11.0,0.0
782,59.0,0.0,15.0,10.0,0.0
783,54.0,30.0,30.0,11.0,0.0
784,57.0,0.0,15.0,10.0,0.0
785,56.0,0.0,30.0,11.0,0.0
786,59.0,0.0,30.0,10.0,0.0
787,83.0,0.0,240.0,7.0,0.0
788,57.0,30.0,15.0,10.0,0.0
789,57.0,30.0,30.0,11.0,0.0
790,57.0,0.0,15.0,10.0,0.0
791,59.0,0.0,15.0,10.0,0.0
792,59.0,0.0,30.0,11.0,0.0
793,61.0,0.0,30.0,11.0,0.0
794,59.0,0.0,15.0,10.0,0.0
795,57.0,30.0,15.0,10.0,0.0
796,63.0,0.0,30.0,11.0,0.0
797,59.0,30.0,30.0,10.0,0.0
798,57.0,0.0,30.0,10.0,0.0
799,64.0,0.0,30.0,11.0,0.0
800,57.0,0.0,30.0,10.0,0.0
801,66.0,30.0,30.0,11.0,0.0
802,59.0,30.0,15.0,10.0,0.0
803,57.0,0.0,15.0,10.0,0.0
804,59.0,0.0,15.0,10.0,0.0
805,68.0,30.0,30.0,11.0,0.0
806,57.0,0.0,15.0,10.0,0.0
807,59.0,0.0,15.0,10.0,0.0
808,69.0,0.0,30.0,11.0,0.0
809,71.0,0.0,30.0,8.0,0.0
810,44.0,0.0,120.0,3.0,0.0
811,56.0,0.0,30.0,3.0,0.0
812,95.0,30.0,30.0,0.0,0.0
813,92.0,30.0,120.0,0.0,0.0
814,56.0,0.0,120.0,6.0,0.0
815,76.0,0.0,240.0,7.0,0.0
816,80.0,0.0,120.0,2.0,0.0
817,76.0,0.0,120.0,2.0,0.0
818,56.0,0.0,30.0,10.0,0.0
819,59.0,0.0,30.0,10.0,0.0
820,83.0,30.0,15.0,1.0,0.0
821,88.0,0.0,120.0,1.0,0.0
822,44.0,0.0,120.0,11.0,0.0
823,64.0,0.0,30.0,8.0,0.0
824,56.0,0.0,30.0,10.0,0.0
825,59.0,0.0,30.0,10.0,0.0
826,52.0,30.0,30.0,3.0,0.0
827,76.0,0.0,30.0,0.0,0.0
828,78.0,0.0,30.0,0.0,0.0
829,66.0,0.0,30.0,8.0,0.0
830,56.0,0.0,30.0,10.0,0.0
831,54.0,0.0,30.0,3.0,0.0
832,59.0,30.0,15.0,10.0,0.0
833,80.0,0.0,30.0,0.0,0.0
834,56.0,0.0,30.0,3.0,0.0
835,68.0,0.0,30.0,8.0,0.0
836,59.0,0.0,15.0,10.0,0.0
837,56.0,0.0,15.0,10.0,0.0
838,57.0,0.0,30.0,3.0,0.0
839,81.0,0.0,30.0,0.0,0.0
840,69.0,0.0,30.0,8.0,0.0
841,71.0,30.0,30.0,8.0,0.0
842,83.0,0.0,30.0,0.0,0.0
843,56.0,0.0,30.0,10.0,0.0
844,59.0,30.0,15.0,10.0,0.0
845,59.0,0.0,30.0,3.0,0.0
846,56.0,0.0,30.0,10.0,0.0
847,59.0,0.0,30.0,10.0,0.0
848,73.0,30.0,30.0,8.0,0.0
849,61.0,0.0,30.0,3.0,0.0
850,85.0,0.0,30.0,0.0,0.0
851,56.0,0.0,30.0,10.0,0.0
852,59.0,0.0,30.0,10.0,0.0
853,87.0,30.0,30.0,0.0,0.0
854,63.0,0.0,30.0,3.0,0.0
855,75.0,0.0,30.0,8.0,0.0
856,76.0,30.0,30.0,8.0,0.0
857,64.0,0.0,30.0,3.0,0.0
858,88.0,0.0,30.0,0.0,0.0
859,52.0,0.0,30.0,11.0,0.0
860,88.0,0.0,240.0,7.0,0.0
861,90.0,0.0,30.0,0.0,0.0
862,52.0,0.0,30.0,11.0,0.0
863,66.0,30.0,30.0,3.0,0.0
864,78.0,0.0,30.0,8.0,0.0
865,56.0,0.0,15.0,10.0,0.0
866,59.0,0.0,15.0,10.0,0.0
867,59.0,0.0,15.0,10.0,0.0
868,56.0,0.0,15.0,10.0,0.0
869,80.0,30.0,30.0,8.0,0.0
870,92.0,0.0,30.0,0.0,0.0
871,52.0,0.0,30.0,11.0,0.0
872,68.0,0.0,30.0,3.0,0.0
873,52.0,0.0,30.0,11.0,0.0
874,69.0,0.0,30.0,3.0,0.0
875,56.0,0.0,30.0,10.0,0.0
876,59.0,0.0,30.0,10.0,0.0
877,81.0,0.0,30.0,8.0,0.0
878,93.0,30.0,30.0,0.0,0.0
879,71.0,0.0,30.0,3.0,0.0
880,83.0,0.0,30.0,8.0,0.0
881,95.0,0.0,30.0,0.0,0.0
882,56.0,0.0,30.0,10.0,0.0
883,56.0,0.0,30.0,11.0,0.0
884,76.0,30.0,15.0,1.0,0.0
885,59.0,0.0,15.0,10.0,0.0
886,92.0,0.0,30.0,0.0,0.0
887,80.0,0.0,30.0,8.0,0.0
888,56.0,0.0,30.0,11.0,0.0
889,68.0,0.0,30.0,3.0,0.0
890,78.0,0.0,30.0,1.0,0.0
891,56.0,0.0,15.0,10.0,0.0
892,66.0,0.0,30.0,3.0,0.0
893,90.0,0.0,30.0,0.0,0.0
894,78.0,30.0,30.0,8.0,0.0
895,56.0,0.0,30.0,11.0,0.0
896,80.0,0.0,30.0,1.0,0.0
897,88.0,0.0,30.0,0.0,0.0
898,64.0,0.0,30.0,3.0,0.0
899,76.0,0.0,30.0,8.0,0.0
900,59.0,0.0,15.0,10.0,0.0
901,56.0,120.0,30.0,11.0,0.0
902,56.0,0.0,30.0,10.0,0.0
903,87.0,0.0,120.0,7.0,0.0
904,81.0,0.0,240.0,1.0,0.0
905,75.0,0.0,240.0,1.0,0.0
906,75.0,120.0,120.0,8.0,0.0
907,71.0,0.0,240.0,2.0,0.0
908,87.0,0.0,120.0,0.0,0.0
909,59.0,0.0,15.0,10.0,0.0
910,54.0,0.0,120.0,10.0,0.0
911,59.0,0.0,120.0,11.0,0.0
912,66.0,0.0,240.0,2.0,0.0
913,63.0,0.0,15.0,3.0,0.0
914,59.0,30.0,15.0,3.0,0.0
915,66.0,0.0,120.0,2.0,0.0
916,71.0,0.0,120.0,2.0,0.0
917,83.0,30.0,30.0,1.0,0.0
918,81.0,30.0,30.0,1.0,0.0
919,80.0,30.0,30.0,1.0,0.0
920,81.0,0.0,30.0,1.0,0.0
921,75.0,60.0,15.0,1.0,0.0
922,59.0,0.0,15.0,3.0,0.0
923,83.0,60.0,60.0,1.0,0.0
924,71.0,0.0,60.0,2.0,0.0
925,66.0,0.0,15.0,2.0,0.0
926,75.0,0.0,15.0,1.0,0.0
927,71.0,0.0,60.0,2.0,0.0
928,63.0,0.0,15.0,3.0,0.0
929,81.0,0.0,60.0,1.0,0.0
930,59.0,0.0,15.0,3.0,0.0
931,59.0,0.0,180.0,10.0,0.0
932,80.0,0.0,120.0,1.0,0.0
933,52.0,0.0,180.0,3.0,0.0
934,64.0,0.0,180.0,3.0,0.0
935,68.0,60.0,180.0,2.0,0.0
936,71.0,0.0,180.0,2.0,0.0
937,83.0,0.0,60.0,1.0,0.0
938,76.0,60.0,15.0,1.0,0.0
939,83.0,0.0,30.0,1.0,0.0
940,76.0,120.0,30.0,1.0,0.0
941,64.0,0.0,30.0,3.0,0.0
942,52.0,0.0,30.0,3.0,0.0
943,52.0,0.0,180.0,3.0,0.0
944,64.0,60.0,180.0,3.0,0.0
945,68.0,0.0,15.0,2.0,0.0
946,59.0,0.0,15.0,10.0,0.0
947,71.0,0.0,15.0,2.0,0.0
948,88.0,60.0,120.0,1.0,0.0
949,76.0,0.0,15.0,1.0,0.0
950,83.0,0.0,60.0,1.0,0.0
951,71.0,0.0,30.0,2.0,0.0
952,83.0,0.0,30.0,1.0,0.0
953,68.0,0.0,30.0,2.0,0.0
954,76.0,0.0,30.0,1.0,0.0
955,64.0,0.0,30.0,3.0,0.0
956,59.0,0.0,30.0,10.0,0.0
957,52.0,120.0,30.0,3.0,0.0
958,59.0,120.0,120.0,10.0,0.0
959,83.0,60.0,600.0,7.0,0.0
960,81.0,0.0,240.0,1.0,0.0
961,75.0,0.0,240.0,1.0,0.0
962,71.0,0.0,600.0,8.0,0.0
963,59.0,0.0,240.0,3.0,0.0
964,66.0,0.0,240.0,2.0,0.0
965,71.0,0.0,240.0,2.0,0.0
966,63.0,30.0,15.0,3.0,0.0
967,83.0,30.0,30.0,1.0,0.0
968,81.0,30.0,30.0,1.0,0.0
969,80.0,30.0,30.0,1.0,0.0
970,81.0,60.0,30.0,1.0,0.0
971,71.0,0.0,15.0,2.0,0.0
972,75.0,0.0,15.0,1.0,0.0
973,83.0,0.0,60.0,1.0,0.0
974,66.0,0.0,15.0,2.0,0.0
975,63.0,0.0,15.0,3.0,0.0
976,59.0,0.0,15.0,3.0,0.0
977,66.0,120.0,60.0,2.0,0.0
978,81.0,0.0,60.0,1.0,0.0
979,59.0,0.0,60.0,3.0,0.0
980,63.0,0.0,60.0,3.0,0.0
981,75.0,0.0,60.0,1.0,0.0
982,71.0,0.0,15.0,2.0,0.0
983,80.0,0.0,120.0,1.0,0.0
984,64.0,60.0,180.0,3.0,0.0
985,59.0,0.0,180.0,10.0,0.0
986,68.0,0.0,180.0,2.0,0.0
987,52.0,0.0,180.0,3.0,0.0
988,83.0,0.0,60.0,1.0,0.0
989,76.0,0.0,15.0,1.0,0.0
990,68.0,0.0,30.0,2.0,0.0
991,83.0,0.0,30.0,1.0,0.0
992,59.0,0.0,30.0,10.0,0.0
993,52.0,0.0,30.0,3.0,0.0
994,56.0,0.0,180.0,3.0,0.0
995,71.0,0.0,15.0,2.0,0.0
996,59.0,0.0,180.0,10.0,0.0
997,76.0,0.0,15.0,1.0,0.0
998,64.0,120.0,15.0,3.0,0.0
999,88.0,0.0,120.0,1.0,0.0
1000,76.0,0.0,60.0,1.0,0.0
1001,83.0,0.0,60.0,1.0,0.0
1002,71.0,0.0,15.0,8.0,0.0
1003,83.0,15.0,15.0,7.0,0.0
1004,85.0,15.0,15.0,7.0,0.0
1005,73.0,0.0,15.0,8.0,0.0
1006,71.0,0.0,15.0,8.0,0.0
1007,83.0,15.0,15.0,7.0,0.0
1008,73.0,0.0,15.0,8.0,0.0
1009,85.0,15.0,15.0,7.0,0.0
1010,71.0,0.0,15.0,8.0,0.0
1011,83.0,15.0,15.0,7.0,0.0
1012,73.0,0.0,15.0,8.0,0.0
1013,85.0,15.0,15.0,7.0,0.0
1014,83.0,0.0,30.0,1.0,0.0
1015,69.0,0.0,15.0,8.0,0.0
1016,81.0,15.0,15.0,7.0,0.0
1017,56.0,0.0,30.0,3.0,0.0
1018,64.0,0.0,30.0,3.0,0.0
1019,71.0,0.0,30.0,2.0,0.0
1020,59.0,120.0,30.0,10.0,0.0
1021,71.0,0.0,15.0,8.0,0.0
1022,83.0,0.0,15.0,7.0,0.0
1023,85.0,0.0,120.0,7.0,0.0
1024,73.0,0.0,180.0,2.0,0.0
1025,69.0,60.0,180.0,2.0,0.0
1026,73.0,0.0,120.0,8.0,0.0
1027,85.0,0.0,120.0,1.0,0.0
1028,76.0,0.0,15.0,1.0,0.0
1029,57.0,0.0,180.0,3.0,0.0
1030,64.0,0.0,180.0,3.0,0.0
1031,57.0,0.0,120.0,10.0,0.0
1032,73.0,0.0,60.0,1.0,0.0
1033,81.0,0.0,60.0,1.0,0.0
1034,57.0,0.0,30.0,3.0,0.0
1035,81.0,0.0,30.0,1.0,0.0
1036,73.0,0.0,30.0,1.0,0.0
1037,57.0,0.0,180.0,3.0,0.0
1038,64.0,0.0,15.0,3.0,0.0
1039,73.0,120.0,15.0,2.0,0.0
1040,69.0,0.0,15.0,2.0,0.0
1041,88.0,0.0,120.0,1.0,0.0
1042,73.0,15.0,15.0,8.0,0.0
1043,85.0,0.0,15.0,7.0,0.0
1044,85.0,15.0,15.0,1.0,0.0
1045,81.0,30.0,60.0,1.0,0.0
1046,75.0,15.0,15.0,8.0,0.0
1047,87.0,0.0,15.0,7.0,0.0
1048,85.0,0.0,15.0,7.0,0.0
1049,73.0,15.0,15.0,8.0,0.0
1050,84.0,0.0,15.0,7.0,0.0
1051,72.0,0.0,15.0,8.0,0.0
1052,87.0,0.0,30.0,7.0,0.0
1053,75.0,30.0,30.0,8.0,0.0
1054,57.0,0.0,30.0,3.0,0.0
1055,85.0,0.0,30.0,1.0,0.0
1056,81.0,0.0,30.0,1.0,0.0
1057,88.0,60.0,30.0,7.0,0.0
1058,73.0,0.0,30.0,2.0,0.0
1059,69.0,0.0,30.0,2.0,0.0
1060,64.0,0.0,15.0,3.0,0.0
1061,83.0,0.0,120.0,1.0,0.0
1062,71.0,60.0,180.0,2.0,0.0
1063,59.0,0.0,180.0,3.0,0.0
1064,68.0,0.0,180.0,2.0,0.0
1065,76.0,0.0,15.0,8.0,0.0
1066,88.0,60.0,60.0,7.0,0.0
1067,83.0,0.0,60.0,7.0,0.0
1068,71.0,0.0,60.0,8.0,0.0
1069,80.0,60.0,15.0,1.0,0.0
1070,76.0,0.0,60.0,1.0,0.0
1071,80.0,0.0,30.0,1.0,0.0
1072,76.0,0.0,30.0,1.0,0.0
1073,68.0,120.0,30.0,2.0,0.0
1074,64.0,0.0,30.0,3.0,0.0
1075,66.0,0.0,180.0,2.0,0.0
1076,63.0,0.0,180.0,3.0,0.0
1077,71.0,0.0,15.0,2.0,0.0
1078,59.0,0.0,15.0,3.0,0.0
1079,83.0,0.0,120.0,1.0,0.0
1080,78.0,30.0,120.0,1.0,0.0
1081,69.0,30.0,30.0,8.0,0.0
1082,81.0,0.0,30.0,7.0,0.0
1083,75.0,0.0,60.0,1.0,0.0
1084,78.0,30.0,60.0,1.0,0.0
1085,78.0,0.0,30.0,7.0,0.0
1086,66.0,0.0,30.0,8.0,0.0
1087,75.0,0.0,30.0,7.0,0.0
1088,63.0,30.0,30.0,8.0,0.0
1089,59.0,30.0,30.0,8.0,0.0
1090,83.0,0.0,30.0,1.0,0.0
1091,71.0,0.0,30.0,7.0,0.0
1092,51.0,30.0,30.0,11.0,0.0
1093,71.0,0.0,15.0,3.0,0.0
1094,54.0,30.0,480.0,10.0,0.0
1095,69.0,0.0,240.0,7.0,0.0
1096,59.0,0.0,120.0,8.0,0.0
1097,51.0,30.0,15.0,11.0,0.0
1098,51.0,30.0,30.0,11.0,0.0
1099,66.0,0.0,240.0,8.0,0.0
1100,51.0,30.0,30.0,11.0,0.0
1101,51.0,30.0,30.0,11.0,0.0
1102,51.0,30.0,15.0,11.0,0.0
1103,71.0,0.0,30.0,7.0,0.0
1104,51.0,0.0,60.0,11.0,0.0
1105,69.0,30.0,30.0,7.0,0.0
1106,83.0,30.0,15.0,1.0,0.0
1107,71.0,0.0,15.0,3.0,0.0
1108,68.0,30.0,30.0,7.0,0.0
1109,83.0,0.0,15.0,1.0,0.0
1110,71.0,0.0,30.0,3.0,0.0
1111,69.0,0.0,30.0,7.0,0.0
1112,83.0,0.0,15.0,1.0,0.0
1113,71.0,0.0,30.0,3.0,0.0
1114,83.0,30.0,15.0,1.0,0.0
1115,59.0,0.0,120.0,8.0,0.0
1116,71.0,0.0,60.0,7.0,0.0
1117,71.0,0.0,15.0,3.0,0.0
1118,83.0,30.0,15.0,1.0,0.0
1119,83.0,0.0,15.0,1.0,0.0
1120,69.0,0.0,60.0,7.0,0.0
1121,83.0,0.0,15.0,1.0,0.0
1122,71.0,30.0,15.0,3.0,0.0
1123,68.0,0.0,120.0,7.0,0.0
1124,59.0,30.0,120.0,8.0,0.0
1125,71.0,0.0,270.0,3.0,0.0
1126,56.0,0.0,180.0,10.0,0.0
1127,83.0,0.0,15.0,1.0,0.0
1128,52.0,30.0,15.0,11.0,0.0
1129,52.0,30.0,15.0,11.0,0.0
1130,52.0,30.0,15.0,11.0,0.0
1131,52.0,0.0,15.0,11.0,0.0
1132,71.0,0.0,60.0,7.0,0.0
1133,64.0,0.0,60.0,8.0,0.0
1134,52.0,30.0,15.0,11.0,0.0
1135,56.0,0.0,30.0,10.0,0.0
1136,71.0,0.0,30.0,7.0,0.0
1137,52.0,30.0,15.0,11.0,0.0
1138,64.0,0.0,15.0,8.0,0.0
1139,52.0,30.0,15.0,11.0,0.0
1140,56.0,0.0,120.0,10.0,0.0
1141,76.0,30.0,120.0,7.0,0.0
1142,71.0,0.0,15.0,3.0,0.0
1143,83.0,30.0,15.0,1.0,0.0
1144,83.0,30.0,15.0,1.0,0.0
1145,71.0,0.0,30.0,3.0,0.0
1146,59.0,0.0,60.0,10.0,0.0
1147,83.0,0.0,15.0,1.0,0.0
1148,68.0,0.0,60.0,8.0,0.0
1149,71.0,30.0,30.0,3.0,0.0
1150,71.0,30.0,60.0,7.0,0.0
1151,71.0,0.0,30.0,3.0,0.0
1152,83.0,0.0,30.0,1.0,0.0
1153,71.0,0.0,30.0,3.0,0.0
1154,83.0,30.0,15.0,1.0,0.0
1155,56.0,0.0,30.0,10.0,0.0
1156,71.0,0.0,30.0,7.0,0.0
1157,59.0,0.0,15.0,8.0,0.0
1158,71.0,0.0,15.0,3.0,0.0
1159,51.0,30.0,30.0,11.0,0.0
1160,69.0,30.0,240.0,7.0,0.0
1161,54.0,0.0,480.0,10.0,0.0
1162,83.0,0.0,270.0,1.0,0.0
1163,51.0,30.0,30.0,11.0,0.0
1164,51.0,30.0,15.0,11.0,0.0
1165,66.0,0.0,240.0,8.0,0.0
1166,51.0,30.0,15.0,11.0,0.0
1167,51.0,30.0,15.0,11.0,0.0
1168,51.0,30.0,15.0,11.0,0.0
1169,51.0,0.0,15.0,11.0,0.0
1170,71.0,30.0,30.0,7.0,0.0
1171,69.0,0.0,30.0,7.0,0.0
1172,71.0,0.0,30.0,3.0,0.0
1173,83.0,30.0,30.0,1.0,0.0
1174,71.0,0.0,30.0,3.0,0.0
1175,68.0,0.0,30.0,7.0,0.0
1176,83.0,30.0,30.0,1.0,0.0
1177,71.0,0.0,30.0,3.0,0.0
1178,69.0,0.0,30.0,7.0,0.0
1179,83.0,30.0,15.0,1.0,0.0
1180,71.0,0.0,60.0,7.0,0.0
1181,71.0,0.0,30.0,3.0,0.0
1182,83.0,0.0,30.0,1.0,0.0
1183,83.0,0.0,30.0,1.0,0.0
1184,69.0,30.0,60.0,7.0,0.0
1185,71.0,30.0,15.0,3.0,0.0
1186,83.0,0.0,30.0,1.0,0.0
1187,71.0,30.0,15.0,3.0,0.0
1188,88.0,30.0,270.0,0.0,0.0
1189,59.0,0.0,15.0,8.0,0.0
1190,83.0,30.0,240.0,1.0,0.0
1191,68.0,0.0,120.0,7.0,0.0
1192,56.0,0.0,180.0,10.0,0.0
1193,71.0,0.0,15.0,3.0,0.0
1194,52.0,30.0,15.0,11.0,0.0
1195,52.0,30.0,15.0,11.0,0.0
1196,71.0,30.0,60.0,7.0,0.0
1197,52.0,0.0,15.0,11.0,0.0
1198,64.0,0.0,60.0,8.0,0.0
1199,52.0,30.0,15.0,11.0,0.0
1200,52.0,0.0,15.0,11.0,0.0
1201,56.0,0.0,30.0,10.0,0.0
1202,71.0,0.0,30.0,7.0,0.0
1203,52.0,0.0,30.0,11.0,0.0
1204,56.0,0.0,60.0,11.0,0.0
1205,64.0,0.0,15.0,8.0,0.0
1206,64.0,0.0,30.0,3.0,0.0
1207,76.0,0.0,120.0,7.0,0.0
1208,52.0,0.0,120.0,10.0,0.0
1209,76.0,0.0,15.0,1.0,0.0
1210,88.0,0.0,30.0,0.0,0.0
1211,64.0,30.0,15.0,3.0,0.0
1212,76.0,0.0,30.0,1.0,0.0
1213,88.0,30.0,15.0,0.0,0.0
1214,76.0,0.0,30.0,1.0,0.0
1215,71.0,0.0,60.0,7.0,0.0
1216,88.0,0.0,30.0,0.0,0.0
1217,68.0,0.0,60.0,8.0,0.0
1218,64.0,30.0,15.0,3.0,0.0
1219,64.0,0.0,30.0,3.0,0.0
1220,88.0,0.0,30.0,0.0,0.0
1221,76.0,30.0,15.0,1.0,0.0
1222,76.0,30.0,15.0,1.0,0.0
1223,56.0,0.0,15.0,10.0,0.0
1224,76.0,0.0,30.0,1.0,0.0
1225,71.0,0.0,30.0,7.0,0.0
1226,64.0,0.0,15.0,3.0,0.0
1227,88.0,0.0,15.0,0.0,0.0
1228,59.0,0.0,30.0,8.0,0.0
1229,88.0,0.0,15.0,0.0,0.0
1230,76.0,0.0,120.0,1.0,0.0
1231,73.0,0.0,120.0,8.0,0.0
1232,76.0,0.0,120.0,7.0,0.0
1233,52.0,0.0,120.0,10.0,0.0
1234,64.0,0.0,120.0,3.0,0.0
1235,45.0,30.0,15.0,11.0,0.0
1236,45.0,30.0,30.0,11.0,0.0
1237,45.0,30.0,30.0,11.0,0.0
1238,78.0,0.0,30.0,1.0,0.0
1239,58.0,0.0,60.0,10.0,0.0
1240,64.0,0.0,60.0,8.0,0.0
1241,46.0,0.0,60.0,11.0,0.0
1242,73.0,30.0,60.0,7.0,0.0
1243,90.0,0.0,15.0,0.0,0.0
1244,66.0,30.0,15.0,3.0,0.0
1245,78.0,0.0,30.0,1.0,0.0
1246,66.0,0.0,15.0,3.0,0.0
1247,90.0,30.0,30.0,0.0,0.0
1248,78.0,0.0,30.0,1.0,0.0
1249,64.0,0.0,30.0,8.0,0.0
1250,66.0,0.0,15.0,3.0,0.0
1251,78.0,30.0,30.0,1.0,0.0
1252,73.0,0.0,30.0,7.0,0.0
1253,58.0,0.0,30.0,10.0,0.0
1254,90.0,0.0,30.0,0.0,0.0
1255,54.0,0.0,120.0,10.0,0.0
1256,78.0,0.0,120.0,7.0,0.0
1257,66.0,0.0,15.0,3.0,0.0
1258,90.0,0.0,120.0,0.0,0.0
1259,73.0,0.0,120.0,8.0,0.0
1260,46.0,30.0,30.0,11.0,0.0
1261,46.0,30.0,15.0,11.0,0.0
1262,46.0,30.0,15.0,11.0,0.0
1263,47.0,30.0,60.0,11.0,0.0
1264,75.0,0.0,60.0,7.0,0.0
1265,75.0,0.0,30.0,2.0,0.0
1266,59.0,0.0,60.0,10.0,0.0
1267,90.0,0.0,30.0,0.0,0.0
1268,66.0,0.0,60.0,8.0,0.0
1269,78.0,30.0,15.0,1.0,0.0
1270,59.0,0.0,30.0,3.0,0.0
1271,78.0,30.0,15.0,1.0,0.0
1272,90.0,0.0,30.0,0.0,0.0
1273,63.0,0.0,15.0,3.0,0.0
1274,75.0,0.0,30.0,2.0,0.0
1275,66.0,0.0,15.0,2.0,0.0
1276,87.0,0.0,15.0,1.0,0.0
1277,59.0,0.0,15.0,3.0,0.0
1278,87.0,0.0,15.0,1.0,0.0
1279,78.0,0.0,15.0,1.0,0.0
1280,90.0,0.0,30.0,0.0,0.0
1281,90.0,30.0,30.0,0.0,0.0
1282,66.0,30.0,15.0,2.0,0.0
1283,75.0,0.0,15.0,2.0,0.0
1284,59.0,0.0,15.0,3.0,0.0
1285,63.0,0.0,15.0,3.0,0.0
1286,63.0,0.0,30.0,10.0,0.0
1287,78.0,0.0,30.0,1.0,0.0
1288,75.0,0.0,30.0,7.0,0.0
1289,56.0,30.0,120.0,6.0,0.0
1290,60.0,0.0,240.0,3.0,0.0
1291,72.0,30.0,30.0,10.0,0.0
1292,68.0,0.0,120.0,7.0,0.0
1293,75.0,0.0,120.0,7.0,0.0
1294,80.0,0.0,240.0,7.0,0.0
1295,75.0,0.0,30.0,10.0,0.0
1296,63.0,0.0,15.0,3.0,0.0
1297,68.0,0.0,240.0,5.0,0.0
1298,68.0,0.0,240.0,2.0,0.0
1299,80.0,0.0,240.0,1.0,0.0
1300,87.0,0.0,15.0,1.0,0.0
1301,63.0,0.0,15.0,8.0,0.0
1302,68.0,0.0,240.0,8.0,0.0
1303,92.0,0.0,240.0,0.0,0.0
1304,75.0,0.0,240.0,2.0,0.0
1305,87.0,0.0,240.0,0.0,0.0
1306,56.0,0.0,240.0,4.0,0.0
1307,48.0,0.0,15.0,11.0,0.0
1308,49.0,30.0,30.0,11.0,0.0
1309,60.0,0.0,15.0,10.0,0.0
1310,63.0,30.0,15.0,10.0,0.0
1311,63.0,0.0,15.0,10.0,0.0
1312,51.0,0.0,30.0,11.0,0.0
1313,60.0,0.0,30.0,10.0,0.0
1314,53.0,0.0,30.0,11.0,0.0
1315,63.0,30.0,30.0,10.0,0.0
1316,60.0,0.0,30.0,10.0,0.0
1317,54.0,0.0,30.0,11.0,0.0
1318,60.0,0.0,30.0,10.0,0.0
1319,56.0,0.0,30.0,11.0,0.0
1320,63.0,30.0,15.0,10.0,0.0
1321,60.0,30.0,30.0,10.0,0.0
1322,58.0,0.0,30.0,11.0,0.0
1323,63.0,0.0,15.0,10.0,0.0
1324,60.0,30.0,30.0,11.0,0.0
1325,63.0,0.0,30.0,10.0,0.0
1326,60.0,0.0,15.0,10.0,0.0
1327,75.0,0.0,240.0,7.0,0.0
1328,63.0,0.0,240.0,8.0,0.0
1329,80.0,0.0,240.0,1.0,0.0
1330,92.0,0.0,240.0,0.0,0.0
1331,56.0,0.0,120.0,6.0,0.0
1332,80.0,30.0,240.0,2.0,0.0
1333,68.0,0.0,240.0,3.0,0.0
1334,68.0,0.0,240.0,5.0,0.0
1335,68.0,30.0,15.0,4.0,0.0
1336,60.0,0.0,15.0,10.0,0.0
1337,61.0,0.0,30.0,11.0,0.0
1338,63.0,0.0,15.0,10.0,0.0
1339,63.0,0.0,30.0,11.0,0.0
1340,60.0,30.0,15.0,10.0,0.0
1341,60.0,30.0,15.0,10.0,0.0
1342,63.0,0.0,15.0,10.0,0.0
1343,65.0,0.0,30.0,11.0,0.0
1344,66.0,30.0,30.0,11.0,0.0
1345,63.0,0.0,15.0,10.0,0.0
1346,60.0,30.0,15.0,10.0,0.0
1347,68.0,30.0,30.0,11.0,0.0
1348,60.0,0.0,15.0,10.0,0.0
1349,63.0,0.0,15.0,10.0,0.0
1350,70.0,0.0,30.0,11.0,0.0
1351,72.0,0.0,30.0,11.0,0.0
1352,48.0,0.0,120.0,11.0,0.0
1353,75.0,0.0,240.0,1.0,0.0
1354,63.0,0.0,240.0,3.0,0.0
1355,60.0,0.0,15.0,10.0,0.0
1356,63.0,0.0,15.0,10.0,0.0
1357,68.0,0.0,15.0,4.0,0.0
1358,56.0,0.0,15.0,4.0,0.0
1359,56.0,0.0,120.0,6.0,0.0
1360,60.0,30.0,30.0,8.0,0.0
1361,68.0,0.0,240.0,7.0,0.0
1362,75.0,0.0,240.0,2.0,0.0
1363,87.0,0.0,240.0,0.0,0.0
1364,68.0,0.0,30.0,8.0,0.0
1365,60.0,30.0,15.0,10.0,0.0
1366,70.0,30.0,30.0,8.0,0.0
1367,63.0,0.0,15.0,10.0,0.0
1368,72.0,30.0,30.0,8.0,0.0
1369,60.0,0.0,15.0,10.0,0.0
1370,63.0,0.0,15.0,10.0,0.0
1371,73.0,0.0,30.0,8.0,0.0
1372,75.0,30.0,30.0,8.0,0.0
1373,60.0,0.0,30.0,10.0,0.0
1374,63.0,30.0,15.0,10.0,0.0
1375,63.0,0.0,15.0,10.0,0.0
1376,77.0,0.0,30.0,8.0,0.0
1377,60.0,0.0,30.0,10.0,0.0
1378,78.0,0.0,30.0,8.0,0.0
1379,68.0,0.0,15.0,4.0,0.0
1380,56.0,0.0,240.0,3.0,0.0
1381,80.0,0.0,240.0,7.0,0.0
1382,56.0,0.0,120.0,6.0,0.0
1383,80.0,30.0,240.0,0.0,0.0
1384,56.0,0.0,15.0,4.0,0.0
1385,68.0,0.0,240.0,2.0,0.0
1386,63.0,0.0,15.0,10.0,0.0
1387,60.0,30.0,15.0,10.0,0.0
1388,68.0,0.0,15.0,5.0,0.0
1389,68.0,0.0,240.0,1.0,0.0
1390,80.0,0.0,30.0,8.0,0.0
1391,60.0,30.0,15.0,10.0,0.0
1392,82.0,0.0,30.0,8.0,0.0
1393,63.0,30.0,15.0,10.0,0.0
1394,60.0,0.0,15.0,10.0,0.0
1395,84.0,0.0,30.0,8.0,0.0
1396,63.0,0.0,30.0,10.0,0.0
1397,60.0,30.0,30.0,10.0,0.0
1398,85.0,0.0,30.0,8.0,0.0
1399,87.0,0.0,30.0,8.0,0.0
1400,63.0,30.0,15.0,10.0,0.0
1401,60.0,0.0,15.0,10.0,0.0
1402,89.0,0.0,30.0,8.0,0.0
1403,90.0,0.0,30.0,8.0,0.0
1404,92.0,0.0,30.0,8.0,0.0
1405,60.0,30.0,15.0,10.0,0.0
1406,63.0,0.0,15.0,10.0,0.0
1407,77.0,0.0,30.0,10.0,0.0
1408,74.0,0.0,30.0,10.0,0.0
1409,68.0,0.0,240.0,4.0,0.0
1410,70.0,0.0,240.0,8.0,0.0
1411,68.0,0.0,240.0,3.0,0.0
1412,80.0,30.0,240.0,1.0,0.0
1413,80.0,0.0,240.0,2.0,0.0
1414,82.0,0.0,240.0,7.0,0.0
1415,56.0,0.0,240.0,4.0,0.0
1416,70.0,0.0,120.0,7.0,0.0
1417,68.0,0.0,240.0,5.0,0.0
1418,92.0,0.0,240.0,0.0,0.0
1419,50.0,30.0,30.0,11.0,0.0
1420,56.0,0.0,120.0,6.0,0.0
1421,77.0,30.0,120.0,7.0,0.0
1422,62.0,30.0,30.0,10.0,0.0
1423,65.0,0.0,30.0,10.0,0.0
1424,50.0,0.0,30.0,11.0,0.0
1425,51.0,30.0,30.0,11.0,0.0
1426,62.0,0.0,30.0,10.0,0.0
1427,65.0,0.0,15.0,10.0,0.0
1428,62.0,0.0,30.0,10.0,0.0
1429,53.0,0.0,30.0,11.0,0.0
1430,62.0,0.0,30.0,10.0,0.0
1431,65.0,0.0,30.0,10.0,0.0
1432,54.0,30.0,30.0,11.0,0.0
1433,65.0,0.0,30.0,10.0,0.0
1434,56.0,0.0,30.0,11.0,0.0
1435,62.0,30.0,30.0,10.0,0.0
1436,58.0,0.0,30.0,11.0,0.0
1437,65.0,0.0,30.0,10.0,0.0
1438,60.0,0.0,30.0,11.0,0.0
1439,65.0,0.0,30.0,10.0,0.0
1440,62.0,30.0,15.0,10.0,0.0
1441,62.0,0.0,15.0,10.0,0.0
1442,62.0,0.0,30.0,11.0,0.0
1443,70.0,0.0,240.0,3.0,0.0
1444,65.0,0.0,240.0,8.0,0.0
1445,56.0,0.0,240.0,4.0,0.0
1446,68.0,0.0,240.0,4.0,0.0
1447,56.0,30.0,120.0,6.0,0.0
1448,94.0,0.0,240.0,0.0,0.0
1449,70.0,0.0,240.0,5.0,0.0
1450,58.0,0.0,240.0,5.0,0.0
1451,82.0,30.0,240.0,2.0,0.0
1452,77.0,0.0,240.0,7.0,0.0
1453,82.0,0.0,240.0,1.0,0.0
1454,63.0,0.0,30.0,11.0,0.0
1455,65.0,30.0,15.0,10.0,0.0
1456,62.0,30.0,30.0,10.0,0.0
1457,65.0,30.0,30.0,11.0,0.0
1458,65.0,0.0,15.0,10.0,0.0
1459,62.0,0.0,15.0,10.0,0.0
1460,66.0,0.0,30.0,11.0,0.0
1461,68.0,30.0,30.0,11.0,0.0
1462,62.0,0.0,15.0,10.0,0.0
1463,65.0,0.0,30.0,10.0,0.0
1464,56.0,0.0,30.0,11.0,0.0
1465,62.0,30.0,30.0,10.0,0.0
1466,65.0,0.0,30.0,10.0,0.0
1467,58.0,0.0,30.0,11.0,0.0
1468,65.0,0.0,15.0,10.0,0.0
1469,62.0,30.0,15.0,10.0,0.0
1470,60.0,0.0,30.0,11.0,0.0
1471,62.0,30.0,30.0,8.0,0.0
1472,77.0,0.0,240.0,1.0,0.0
1473,89.0,0.0,240.0,0.0,0.0
1474,70.0,0.0,240.0,7.0,0.0
1475,58.0,0.0,240.0,5.0,0.0
1476,70.0,0.0,240.0,5.0,0.0
1477,62.0,0.0,120.0,11.0,0.0
1478,68.0,0.0,240.0,4.0,0.0
1479,56.0,30.0,120.0,6.0,0.0
1480,65.0,30.0,240.0,3.0,0.0
1481,78.0,0.0,240.0,2.0,0.0
1482,62.0,0.0,30.0,10.0,0.0
1483,68.0,0.0,30.0,8.0,0.0
1484,62.0,0.0,30.0,10.0,0.0
1485,65.0,0.0,15.0,10.0,0.0
1486,65.0,30.0,15.0,10.0,0.0
1487,70.0,30.0,30.0,8.0,0.0
1488,65.0,0.0,15.0,10.0,0.0
1489,72.0,0.0,30.0,8.0,0.0
1490,62.0,0.0,15.0,10.0,0.0
1491,74.0,0.0,30.0,8.0,0.0
1492,75.0,30.0,30.0,8.0,0.0
1493,65.0,30.0,15.0,10.0,0.0
1494,62.0,0.0,15.0,10.0,0.0
1495,62.0,0.0,15.0,10.0,0.0
1496,65.0,0.0,30.0,10.0,0.0
1497,77.0,0.0,30.0,8.0,0.0
1498,78.0,0.0,30.0,8.0,0.0
1499,82.0,0.0,240.0,7.0,0.0
1500,68.0,0.0,240.0,2.0,0.0
1501,62.0,0.0,15.0,10.0,0.0
1502,56.0,0.0,15.0,4.0,0.0
1503,80.0,0.0,240.0,0.0,0.0
1504,56.0,0.0,120.0,6.0,0.0
1505,65.0,0.0,15.0,10.0,0.0
1506,58.0,0.0,240.0,5.0,0.0
1507,70.0,30.0,240.0,5.0,0.0
1508,68.0,0.0,240.0,1.0,0.0
1509,80.0,30.0,30.0,8.0,0.0
1510,56.0,0.0,240.0,3.0,0.0
1511,62.0,0.0,30.0,10.0,0.0
1512,82.0,0.0,30.0,8.0,0.0
1513,65.0,30.0,15.0,10.0,0.0
1514,62.0,0.0,30.0,10.0,0.0
1515,84.0,0.0,30.0,8.0,0.0
1516,86.0,30.0,30.0,8.0,0.0
1517,65.0,30.0,15.0,10.0,0.0
1518,62.0,0.0,30.0,10.0,0.0
1519,65.0,0.0,15.0,10.0,0.0
1520,87.0,30.0,30.0,8.0,0.0
1521,62.0,0.0,30.0,10.0,0.0
1522,89.0,0.0,30.0,8.0,0.0
1523,90.0,30.0,30.0,8.0,0.0
1524,65.0,30.0,15.0,10.0,0.0
1525,62.0,0.0,15.0,10.0,0.0
1526,92.0,0.0,30.0,8.0,0.0
1527,62.0,0.0,15.0,10.0,0.0
1528,65.0,0.0,30.0,10.0,0.0
1529,56.0,0.0,120.0,6.0,0.0
1530,68.0,0.0,240.0,3.0,0.0
1531,68.0,0.0,15.0,4.0,0.0
1532,92.0,30.0,240.0,0.0,0.0
1533,75.0,30.0,30.0,10.0,0.0
1534,59.0,0.0,240.0,8.0,0.0
1535,80.0,0.0,240.0,2.0,0.0
1536,75.0,0.0,120.0,7.0,0.0
1537,83.0,0.0,240.0,7.0,0.0
1538,56.0,0.0,15.0,4.0,0.0
1539,80.0,0.0,240.0,1.0,0.0
1540,68.0,0.0,240.0,5.0,0.0
1541,51.0,0.0,30.0,11.0,0.0
1542,68.0,0.0,120.0,7.0,0.0
1543,63.0,0.0,30.0,10.0,0.0
1544,71.0,0.0,240.0,8.0,0.0
1545,51.0,0.0,30.0,11.0,0.0
1546,59.0,0.0,15.0,10.0,0.0
1547,56.0,30.0,15.0,10.0,0.0
1548,53.0,30.0,30.0,11.0,0.0
1549,56.0,0.0,15.0,10.0,0.0
1550,59.0,0.0,15.0,10.0,0.0
1551,55.0,0.0,30.0,11.0,0.0
1552,56.0,30.0,30.0,11.0,0.0
1553,59.0,30.0,15.0,10.0,0.0
1554,56.0,0.0,15.0,10.0,0.0
1555,59.0,0.0,15.0,10.0,0.0
1556,58.0,30.0,30.0,11.0,0.0
1557,59.0,30.0,30.0,11.0,0.0
1558,59.0,0.0,15.0,10.0,0.0
1559,56.0,0.0,15.0,10.0,0.0
1560,59.0,0.0,15.0,10.0,0.0
1561,56.0,0.0,30.0,10.0,0.0
1562,61.0,0.0,30.0,11.0,0.0
1563,68.0,0.0,240.0,5.0,0.0
1564,71.0,0.0,240.0,5.0,0.0
1565,83.0,0.0,240.0,2.0,0.0
1566,95.0,30.0,240.0,0.0,0.0
1567,68.0,0.0,240.0,8.0,0.0
1568,56.0,0.0,15.0,4.0,0.0
1569,56.0,30.0,120.0,6.0,0.0
1570,71.0,0.0,240.0,3.0,0.0
1571,80.0,0.0,240.0,7.0,0.0
1572,68.0,0.0,240.0,4.0,0.0
1573,83.0,0.0,240.0,1.0,0.0
1574,59.0,0.0,15.0,10.0,0.0
1575,56.0,0.0,15.0,10.0,0.0
1576,63.0,30.0,15.0,11.0,0.0
1577,56.0,30.0,15.0,10.0,0.0
1578,59.0,0.0,30.0,10.0,0.0
1579,65.0,0.0,30.0,11.0,0.0
1580,67.0,0.0,30.0,11.0,0.0
1581,56.0,30.0,15.0,10.0,0.0
1582,59.0,0.0,30.0,10.0,0.0
1583,56.0,0.0,30.0,10.0,0.0
1584,68.0,30.0,30.0,11.0,0.0
1585,59.0,0.0,30.0,10.0,0.0
1586,58.0,0.0,30.0,11.0,0.0
1587,59.0,30.0,15.0,10.0,0.0
1588,56.0,0.0,15.0,10.0,0.0
1589,59.0,0.0,30.0,11.0,0.0
1590,61.0,0.0,30.0,11.0,0.0
1591,56.0,0.0,15.0,4.0,0.0
1592,71.0,0.0,240.0,7.0,0.0
1593,56.0,0.0,15.0,10.0,0.0
1594,63.0,0.0,120.0,11.0,0.0
1595,59.0,0.0,15.0,10.0,0.0
1596,80.0,0.0,240.0,2.0,0.0
1597,80.0,0.0,240.0,1.0,0.0
1598,68.0,0.0,240.0,5.0,0.0
1599,68.0,0.0,240.0,3.0,0.0
1600,56.0,0.0,120.0,6.0,0.0
1601,92.0,0.0,240.0,0.0,0.0
1602,59.0,30.0,30.0,8.0,0.0
1603,59.0,0.0,15.0,10.0,0.0
1604,68.0,0.0,30.0,8.0,0.0
1605,70.0,30.0,30.0,8.0,0.0
1606,59.0,0.0,15.0,10.0,0.0
1607,56.0,30.0,15.0,10.0,0.0
1608,59.0,0.0,30.0,10.0,0.0
1609,71.0,0.0,30.0,8.0,0.0
1610,56.0,30.0,15.0,10.0,0.0
1611,73.0,0.0,30.0,8.0,0.0
1612,56.0,0.0,15.0,10.0,0.0
1613,59.0,30.0,15.0,10.0,0.0
1614,75.0,0.0,30.0,8.0,0.0
1615,59.0,30.0,15.0,10.0,0.0
1616,56.0,0.0,15.0,10.0,0.0
1617,77.0,0.0,30.0,8.0,0.0
1618,56.0,30.0,15.0,10.0,0.0
1619,79.0,0.0,30.0,8.0,0.0
1620,71.0,0.0,15.0,5.0,0.0
1621,68.0,0.0,15.0,4.0,0.0
1622,56.0,0.0,15.0,4.0,0.0
1623,56.0,0.0,240.0,3.0,0.0
1624,59.0,30.0,15.0,10.0,0.0
1625,56.0,0.0,120.0,6.0,0.0
1626,80.0,0.0,30.0,8.0,0.0
1627,68.0,0.0,240.0,1.0,0.0
1628,68.0,0.0,240.0,2.0,0.0
1629,80.0,0.0,240.0,0.0,0.0
1630,56.0,30.0,15.0,10.0,0.0
1631,59.0,0.0,15.0,10.0,0.0
1632,82.0,30.0,30.0,8.0,0.0
1633,56.0,0.0,30.0,10.0,0.0
1634,59.0,0.0,30.0,10.0,0.0
1635,83.0,30.0,30.0,8.0,0.0
1636,56.0,0.0,30.0,10.0,0.0
1637,85.0,30.0,30.0,8.0,0.0
1638,59.0,0.0,15.0,10.0,0.0
1639,87.0,0.0,30.0,8.0,0.0
1640,59.0,0.0,15.0,10.0,0.0
1641,56.0,30.0,15.0,10.0,0.0
1642,89.0,30.0,30.0,8.0,0.0
1643,59.0,0.0,15.0,10.0,0.0
1644,91.0,30.0,30.0,8.0,0.0
1645,59.0,0.0,15.0,10.0,0.0
1646,56.0,0.0,15.0,10.0,0.0
1647,92.0,0.0,30.0,8.0,0.0
1648,68.0,0.0,240.0,4.0,0.0
1649,56.0,0.0,120.0,6.0,0.0
1650,59.0,0.0,240.0,8.0,0.0
1651,71.0,0.0,240.0,8.0,0.0
1652,80.0,0.0,240.0,2.0,0.0
1653,83.0,0.0,15.0,7.0,0.0
1654,76.0,0.0,120.0,7.0,0.0
1655,68.0,0.0,120.0,7.0,0.0
1656,59.0,0.0,120.0,7.0,0.0
1657,68.0,0.0,240.0,3.0,0.0
1658,80.0,30.0,240.0,1.0,0.0
1659,40.0,30.0,30.0,11.0,0.0
1660,68.0,0.0,30.0,10.0,0.0
1661,92.0,0.0,240.0,0.0,0.0
1662,71.0,0.0,30.0,10.0,0.0
1663,68.0,30.0,15.0,5.0,0.0
1664,59.0,0.0,30.0,10.0,0.0
1665,40.0,30.0,30.0,11.0,0.0
1666,56.0,0.0,15.0,10.0,0.0
1667,42.0,30.0,30.0,11.0,0.0
1668,59.0,0.0,30.0,10.0,0.0
1669,56.0,0.0,30.0,10.0,0.0
1670,44.0,30.0,30.0,11.0,0.0
1671,45.0,30.0,30.0,11.0,0.0
1672,56.0,0.0,30.0,10.0,0.0
1673,59.0,0.0,15.0,10.0,0.0
1674,47.0,30.0,30.0,11.0,0.0
1675,59.0,0.0,15.0,10.0,0.0
1676,56.0,0.0,15.0,10.0,0.0
1677,49.0,30.0,30.0,11.0,0.0
1678,59.0,0.0,15.0,10.0,0.0
1679,56.0,0.0,15.0,10.0,0.0
1680,51.0,0.0,30.0,11.0,0.0
1681,56.0,0.0,15.0,4.0,0.0
1682,71.0,0.0,240.0,3.0,0.0
1683,52.0,30.0,30.0,11.0,0.0
1684,68.0,0.0,240.0,4.0,0.0
1685,95.0,0.0,240.0,0.0,0.0
1686,71.0,0.0,240.0,5.0,0.0
1687,83.0,0.0,240.0,1.0,0.0
1688,56.0,0.0,120.0,6.0,0.0
1689,83.0,0.0,240.0,2.0,0.0
1690,68.0,0.0,240.0,8.0,0.0
1691,80.0,0.0,240.0,7.0,0.0
1692,59.0,0.0,30.0,10.0,0.0
1693,56.0,0.0,15.0,10.0,0.0
1694,54.0,30.0,30.0,11.0,0.0
1695,59.0,0.0,15.0,10.0,0.0
1696,56.0,0.0,15.0,10.0,0.0
1697,56.0,0.0,30.0,11.0,0.0
1698,56.0,0.0,15.0,10.0,0.0
1699,59.0,30.0,15.0,10.0,0.0
1700,57.0,30.0,30.0,11.0,0.0
1701,59.0,0.0,15.0,10.0,0.0
1702,56.0,0.0,15.0,10.0,0.0
1703,59.0,0.0,30.0,11.0,0.0
1704,59.0,0.0,15.0,10.0,0.0
1705,61.0,0.0,30.0,11.0,0.0
1706,59.0,0.0,15.0,10.0,0.0
1707,56.0,30.0,15.0,10.0,0.0
1708,63.0,30.0,30.0,11.0,0.0
1709,64.0,0.0,30.0,11.0,0.0
1710,56.0,0.0,30.0,10.0,0.0
1711,59.0,0.0,30.0,10.0,0.0
1712,68.0,0.0,30.0,3.0,0.0
1713,40.0,0.0,120.0,11.0,0.0
1714,92.0,30.0,30.0,0.0,0.0
1715,56.0,0.0,240.0,4.0,0.0
1716,68.0,30.0,15.0,5.0,0.0
1717,76.0,0.0,240.0,7.0,0.0
1718,56.0,30.0,120.0,6.0,0.0
1719,80.0,0.0,120.0,1.0,0.0
1720,68.0,0.0,240.0,4.0,0.0
1721,80.0,0.0,120.0,2.0,0.0
1722,76.0,30.0,30.0,0.0,0.0
1723,59.0,0.0,15.0,10.0,0.0
1724,56.0,0.0,15.0,10.0,0.0
1725,52.0,0.0,30.0,3.0,0.0
1726,64.0,0.0,15.0,8.0,0.0
1727,59.0,0.0,15.0,10.0,0.0
1728,78.0,0.0,30.0,0.0,0.0
1729,66.0,0.0,30.0,8.0,0.0
1730,54.0,0.0,30.0,3.0,0.0
1731,80.0,0.0,30.0,0.0,0.0
1732,68.0,0.0,30.0,8.0,0.0
1733,56.0,0.0,30.0,3.0,0.0
1734,56.0,30.0,15.0,10.0,0.0
1735,56.0,0.0,30.0,10.0,0.0
1736,69.0,30.0,30.0,8.0,0.0
1737,59.0,0.0,15.0,10.0,0.0
1738,81.0,0.0,30.0,0.0,0.0
1739,57.0,0.0,30.0,3.0,0.0
1740,56.0,0.0,30.0,10.0,0.0
1741,83.0,0.0,30.0,0.0,0.0
1742,71.0,0.0,30.0,8.0,0.0
1743,59.0,30.0,30.0,3.0,0.0
1744,59.0,0.0,30.0,10.0,0.0
1745,73.0,30.0,30.0,8.0,0.0
1746,85.0,0.0,30.0,0.0,0.0
1747,61.0,0.0,30.0,3.0,0.0
1748,56.0,0.0,30.0,10.0,0.0
1749,63.0,30.0,30.0,3.0,0.0
1750,59.0,0.0,15.0,10.0,0.0
1751,87.0,0.0,30.0,0.0,0.0
1752,56.0,0.0,30.0,10.0,0.0
1753,75.0,0.0,30.0,8.0,0.0
1754,68.0,0.0,15.0,5.0,0.0
1755,56.0,30.0,120.0,6.0,0.0
1756,68.0,0.0,240.0,4.0,0.0
1757,76.0,0.0,30.0,8.0,0.0
1758,76.0,0.0,30.0,1.0,0.0
1759,56.0,0.0,240.0,4.0,0.0
1760,59.0,0.0,30.0,10.0,0.0
1761,88.0,0.0,30.0,0.0,0.0
1762,83.0,120.0,240.0,7.0,0.0
1763,64.0,0.0,30.0,3.0,0.0
1764,52.0,0.0,15.0,11.0,0.0
1765,78.0,0.0,30.0,1.0,0.0
1766,78.0,0.0,30.0,8.0,0.0
1767,66.0,0.0,30.0,3.0,0.0
1768,56.0,30.0,15.0,10.0,0.0
1769,90.0,0.0,30.0,0.0,0.0
1770,68.0,30.0,30.0,3.0,0.0
1771,80.0,0.0,30.0,8.0,0.0
1772,92.0,0.0,30.0,0.0,0.0
1773,80.0,0.0,30.0,1.0,0.0
1774,56.0,0.0,15.0,10.0,0.0
1775,59.0,0.0,15.0,10.0,0.0
1776,52.0,30.0,15.0,11.0,0.0
1777,81.0,0.0,30.0,1.0,0.0
1778,52.0,0.0,30.0,11.0,0.0
1779,59.0,0.0,15.0,10.0,0.0
1780,56.0,0.0,30.0,10.0,0.0
1781,81.0,0.0,30.0,8.0,0.0
1782,93.0,0.0,30.0,0.0,0.0
1783,69.0,0.0,30.0,3.0,0.0
1784,71.0,0.0,30.0,3.0,0.0
1785,83.0,0.0,30.0,8.0,0.0
1786,95.0,0.0,30.0,0.0,0.0
1787,68.0,0.0,30.0,3.0,0.0
1788,64.0,0.0,15.0,11.0,0.0
1789,83.0,0.0,15.0,1.0,0.0
1790,68.0,30.0,30.0,8.0,0.0
1791,59.0,30.0,15.0,10.0,0.0
1792,56.0,0.0,15.0,10.0,0.0
1793,92.0,0.0,30.0,0.0,0.0
1794,56.0,0.0,30.0,10.0,0.0
1795,59.0,0.0,30.0,10.0,0.0
1796,64.0,0.0,15.0,11.0,0.0
1797,90.0,0.0,30.0,0.0,0.0
1798,83.0,0.0,15.0,1.0,0.0
1799,66.0,0.0,30.0,3.0,0.0
1800,88.0,0.0,30.0,0.0,0.0
1801,83.0,0.0,15.0,1.0,0.0
1802,64.0,0.0,30.0,3.0,0.0
1803,68.0,30.0,15.0,8.0,0.0
1804,64.0,0.0,30.0,11.0,0.0
1805,86.0,0.0,240.0,0.0,0.0
1806,74.0,0.0,120.0,7.0,0.0
1807,68.0,0.0,120.0,4.0,0.0
1808,71.0,120.0,120.0,8.0,0.0
1809,64.0,0.0,120.0,11.0,0.0
1810,59.0,0.0,15.0,10.0,0.0
1811,56.0,0.0,15.0,10.0,0.0
1812,56.0,0.0,120.0,4.0,0.0
1813,76.0,0.0,240.0,1.0,0.0
1814,74.0,0.0,240.0,2.0,0.0
1815,71.0,0.0,240.0,2.0,0.0
1816,76.0,0.0,120.0,1.0,0.0
1817,64.0,30.0,15.0,3.0,0.0
1818,83.0,0.0,15.0,1.0,0.0
1819,88.0,30.0,30.0,0.0,0.0
1820,52.0,0.0,15.0,3.0,0.0
1821,71.0,0.0,120.0,2.0,0.0
1822,74.0,0.0,120.0,2.0,0.0
1823,86.0,30.0,30.0,0.0,0.0
1824,85.0,30.0,30.0,0.0,0.0
1825,86.0,0.0,30.0,0.0,0.0
1826,88.0,0.0,60.0,0.0,0.0
1827,83.0,0.0,15.0,1.0,0.0
1828,76.0,0.0,60.0,1.0,0.0
1829,52.0,60.0,15.0,3.0,0.0
1830,74.0,0.0,60.0,2.0,0.0
1831,71.0,0.0,60.0,2.0,0.0
1832,64.0,0.0,15.0,3.0,0.0
1833,52.0,60.0,15.0,3.0,0.0
1834,86.0,0.0,60.0,0.0,0.0
1835,71.0,0.0,60.0,2.0,0.0
1836,83.0,0.0,60.0,1.0,0.0
1837,74.0,120.0,60.0,2.0,0.0
1838,85.0,0.0,120.0,0.0,0.0
1839,57.0,0.0,180.0,10.0,0.0
1840,61.0,0.0,180.0,10.0,0.0
1841,76.0,0.0,15.0,1.0,0.0
1842,81.0,60.0,120.0,1.0,0.0
1843,57.0,0.0,120.0,11.0,0.0
1844,73.0,0.0,180.0,2.0,0.0
1845,69.0,0.0,180.0,2.0,0.0
1846,52.0,0.0,180.0,3.0,0.0
1847,64.0,0.0,180.0,3.0,0.0
1848,88.0,0.0,60.0,0.0,0.0
1849,85.0,60.0,60.0,1.0,0.0
1850,85.0,0.0,30.0,1.0,0.0
1851,69.0,0.0,30.0,2.0,0.0
1852,61.0,0.0,30.0,10.0,0.0
1853,64.0,0.0,30.0,3.0,0.0
1854,52.0,120.0,30.0,3.0,0.0
1855,73.0,0.0,30.0,2.0,0.0
1856,88.0,0.0,30.0,0.0,0.0
1857,76.0,0.0,15.0,1.0,0.0
1858,57.0,0.0,15.0,10.0,0.0
1859,69.0,0.0,180.0,2.0,0.0
1860,73.0,0.0,180.0,2.0,0.0
1861,64.0,0.0,180.0,3.0,0.0
1862,61.0,60.0,180.0,10.0,0.0
1863,61.0,0.0,120.0,11.0,0.0
1864,93.0,60.0,120.0,0.0,0.0
1865,52.0,0.0,180.0,3.0,0.0
1866,85.0,0.0,180.0,1.0,0.0
1867,88.0,0.0,60.0,0.0,0.0
1868,57.0,0.0,30.0,10.0,0.0
1869,61.0,120.0,30.0,10.0,0.0
1870,88.0,0.0,30.0,0.0,0.0
1871,52.0,0.0,30.0,3.0,0.0
1872,73.0,0.0,30.0,2.0,0.0
1873,69.0,0.0,30.0,2.0,0.0
1874,85.0,0.0,30.0,1.0,0.0
1875,86.0,0.0,240.0,0.0,0.0
1876,74.0,0.0,240.0,2.0,0.0
1877,64.0,120.0,120.0,11.0,0.0
1878,88.0,60.0,600.0,7.0,0.0
1879,76.0,0.0,15.0,1.0,0.0
1880,64.0,0.0,15.0,3.0,0.0
1881,59.0,0.0,480.0,10.0,0.0
1882,56.0,0.0,480.0,10.0,0.0
1883,76.0,0.0,600.0,8.0,0.0
1884,71.0,0.0,15.0,2.0,0.0
1885,83.0,0.0,15.0,1.0,0.0
1886,76.0,0.0,15.0,1.0,0.0
1887,52.0,0.0,15.0,3.0,0.0
1888,64.0,30.0,15.0,3.0,0.0
1889,88.0,30.0,30.0,0.0,0.0
1890,86.0,30.0,30.0,0.0,0.0
1891,85.0,30.0,30.0,0.0,0.0
1892,86.0,0.0,30.0,0.0,0.0
1893,64.0,0.0,15.0,3.0,0.0
1894,74.0,0.0,15.0,2.0,0.0
1895,71.0,60.0,15.0,2.0,0.0
1896,88.0,0.0,60.0,0.0,0.0
1897,76.0,0.0,15.0,1.0,0.0
1898,83.0,0.0,15.0,1.0,0.0
1899,52.0,0.0,60.0,3.0,0.0
1900,52.0,0.0,60.0,3.0,0.0
1901,64.0,0.0,60.0,3.0,0.0
1902,83.0,0.0,15.0,1.0,0.0
1903,86.0,0.0,60.0,0.0,0.0
1904,71.0,120.0,60.0,2.0,0.0
1905,74.0,0.0,60.0,2.0,0.0
1906,85.0,0.0,120.0,0.0,0.0
1907,52.0,0.0,120.0,3.0,0.0
1908,64.0,0.0,120.0,3.0,0.0
1909,57.0,0.0,180.0,10.0,0.0
1910,61.0,0.0,180.0,10.0,0.0
1911,73.0,0.0,180.0,2.0,0.0
1912,76.0,0.0,15.0,1.0,0.0
1913,81.0,0.0,120.0,1.0,0.0
1914,69.0,0.0,180.0,2.0,0.0
1915,57.0,0.0,120.0,11.0,0.0
1916,49.0,0.0,60.0,3.0,0.0
1917,88.0,60.0,60.0,0.0,0.0
1918,61.0,0.0,60.0,3.0,0.0
1919,85.0,0.0,60.0,1.0,0.0
1920,57.0,0.0,30.0,10.0,0.0
1921,69.0,0.0,30.0,2.0,0.0
1922,88.0,0.0,30.0,0.0,0.0
1923,73.0,0.0,30.0,2.0,0.0
1924,85.0,120.0,30.0,1.0,0.0
1925,76.0,0.0,30.0,1.0,0.0
1926,49.0,0.0,30.0,3.0,0.0
1927,61.0,0.0,30.0,3.0,0.0
1928,61.0,0.0,30.0,10.0,0.0
1929,73.0,15.0,180.0,2.0,0.0
1930,61.0,0.0,180.0,3.0,0.0
1931,57.0,0.0,180.0,10.0,0.0
1932,93.0,0.0,120.0,0.0,0.0
1933,85.0,0.0,180.0,1.0,0.0
1934,76.0,0.0,180.0,1.0,0.0
1935,61.0,0.0,180.0,10.0,0.0
1936,61.0,15.0,120.0,11.0,0.0
1937,49.0,0.0,180.0,3.0,0.0
1938,69.0,0.0,180.0,2.0,0.0
1939,88.0,15.0,15.0,7.0,0.0
1940,88.0,0.0,60.0,0.0,0.0
1941,76.0,0.0,15.0,8.0,0.0
1942,78.0,0.0,15.0,8.0,0.0
1943,90.0,15.0,15.0,7.0,0.0
1944,76.0,0.0,15.0,8.0,0.0
1945,88.0,15.0,15.0,7.0,0.0
1946,78.0,0.0,15.0,8.0,0.0
1947,90.0,0.0,15.0,7.0,0.0
1948,76.0,0.0,15.0,8.0,0.0
1949,88.0,15.0,15.0,7.0,0.0
1950,78.0,15.0,15.0,8.0,0.0
1951,90.0,0.0,15.0,7.0,0.0
1952,85.0,0.0,30.0,1.0,0.0
1953,88.0,0.0,30.0,0.0,0.0
1954,86.0,15.0,15.0,7.0,0.0
1955,76.0,0.0,30.0,1.0,0.0
1956,49.0,0.0,30.0,3.0,0.0
1957,61.0,0.0,30.0,3.0,0.0
1958,57.0,0.0,30.0,10.0,0.0
1959,69.0,0.0,30.0,2.0,0.0
1960,73.0,120.0,30.0,2.0,0.0
1961,61.0,0.0,30.0,10.0,0.0
1962,74.0,0.0,15.0,8.0,0.0
1963,76.0,0.0,15.0,8.0,0.0
1964,88.0,0.0,15.0,7.0,0.0
1965,78.0,0.0,120.0,8.0,0.0
1966,62.0,0.0,180.0,3.0,0.0
1967,50.0,0.0,180.0,3.0,0.0
1968,90.0,60.0,120.0,0.0,0.0
1969,57.0,60.0,180.0,10.0,0.0
1970,50.0,0.0,120.0,11.0,0.0
1971,81.0,0.0,180.0,1.0,0.0
1972,71.0,0.0,180.0,2.0,0.0
1973,78.0,0.0,180.0,1.0,0.0
1974,90.0,0.0,120.0,7.0,0.0
1975,59.0,0.0,180.0,10.0,0.0
1976,69.0,0.0,180.0,2.0,0.0
1977,86.0,0.0,60.0,0.0,0.0
1978,62.0,0.0,30.0,3.0,0.0
1979,69.0,0.0,30.0,2.0,0.0
1980,57.0,0.0,30.0,10.0,0.0
1981,78.0,0.0,30.0,1.0,0.0
1982,86.0,120.0,30.0,0.0,0.0
1983,59.0,0.0,30.0,10.0,0.0
1984,50.0,0.0,30.0,3.0,0.0
1985,69.0,0.0,180.0,2.0,0.0
1986,71.0,0.0,15.0,2.0,0.0
1987,81.0,0.0,15.0,1.0,0.0
1988,78.0,0.0,180.0,1.0,0.0
1989,62.0,0.0,180.0,3.0,0.0
1990,62.0,15.0,120.0,11.0,0.0
1991,59.0,0.0,180.0,10.0,0.0
1992,57.0,0.0,180.0,10.0,0.0
1993,50.0,0.0,180.0,3.0,0.0
1994,93.0,0.0,120.0,0.0,0.0
1995,90.0,30.0,60.0,0.0,0.0
1996,78.0,15.0,15.0,7.0,0.0
1997,66.0,0.0,15.0,8.0,0.0
1998,80.0,15.0,15.0,7.0,0.0
1999,68.0,0.0,15.0,8.0,0.0
2000,66.0,0.0,15.0,8.0,0.0
2001,78.0,15.0,15.0,7.0,0.0
2002,68.0,0.0,15.0,8.0,0.0
2003,80.0,0.0,15.0,7.0,0.0
2004,68.0,0.0,30.0,8.0,0.0
2005,80.0,30.0,30.0,7.0,0.0
2006,69.0,0.0,30.0,8.0,0.0
2007,59.0,0.0,30.0,10.0,0.0
2008,57.0,0.0,30.0,10.0,0.0
2009,81.0,0.0,30.0,1.0,0.0
2010,78.0,0.0,30.0,1.0,0.0
2011,90.0,0.0,30.0,0.0,0.0
2012,81.0,60.0,30.0,7.0,0.0
2013,50.0,0.0,30.0,3.0,0.0
2014,62.0,0.0,30.0,3.0,0.0
2015,71.0,0.0,30.0,2.0,0.0
2016,85.0,60.0,120.0,1.0,0.0
2017,52.0,0.0,120.0,11.0,0.0
2018,64.0,60.0,180.0,3.0,0.0
2019,52.0,0.0,180.0,3.0,0.0
2020,73.0,0.0,180.0,2.0,0.0
2021,69.0,0.0,15.0,2.0,0.0
2022,69.0,0.0,60.0,8.0,0.0
2023,61.0,0.0,180.0,10.0,0.0
2024,76.0,0.0,180.0,1.0,0.0
2025,88.0,0.0,120.0,0.0,0.0
2026,81.0,60.0,60.0,7.0,0.0
2027,57.0,0.0,180.0,10.0,0.0
2028,76.0,0.0,60.0,7.0,0.0
2029,64.0,0.0,60.0,8.0,0.0
2030,85.0,0.0,60.0,0.0,0.0
2031,81.0,0.0,60.0,1.0,0.0
2032,69.0,0.0,30.0,2.0,0.0
2033,85.0,0.0,30.0,0.0,0.0
2034,81.0,0.0,30.0,1.0,0.0
2035,73.0,0.0,30.0,2.0,0.0
2036,52.0,0.0,30.0,3.0,0.0
2037,83.0,0.0,120.0,1.0,0.0
2038,76.0,0.0,15.0,1.0,0.0
2039,52.0,0.0,120.0,11.0,0.0
2040,64.0,120.0,15.0,3.0,0.0
2041,68.0,0.0,180.0,2.0,0.0
2042,71.0,0.0,180.0,2.0,0.0
2043,52.0,0.0,180.0,3.0,0.0
2044,59.0,0.0,180.0,10.0,0.0
2045,56.0,0.0,180.0,10.0,0.0
2046,88.0,30.0,120.0,0.0,0.0
2047,86.0,0.0,30.0,7.0,0.0
2048,83.0,0.0,60.0,0.0,0.0
2049,74.0,30.0,30.0,8.0,0.0
2050,80.0,0.0,60.0,1.0,0.0
2051,71.0,0.0,30.0,8.0,0.0
2052,83.0,0.0,30.0,7.0,0.0
2053,80.0,30.0,30.0,7.0,0.0
2054,68.0,0.0,30.0,8.0,0.0
2055,64.0,0.0,30.0,8.0,0.0
2056,76.0,0.0,30.0,1.0,0.0
2057,76.0,0.0,30.0,7.0,0.0
2058,88.0,30.0,15.0,0.0,0.0
2059,64.0,0.0,270.0,3.0,0.0
2060,74.0,30.0,240.0,7.0,0.0
2061,64.0,0.0,120.0,8.0,0.0
2062,59.0,0.0,480.0,10.0,0.0
2063,44.0,30.0,15.0,11.0,0.0
2064,44.0,30.0,15.0,11.0,0.0
2065,44.0,30.0,15.0,11.0,0.0
2066,71.0,0.0,240.0,8.0,0.0
2067,44.0,30.0,15.0,11.0,0.0
2068,44.0,30.0,15.0,11.0,0.0
2069,44.0,0.0,30.0,11.0,0.0
2070,44.0,0.0,60.0,11.0,0.0
2071,76.0,30.0,30.0,7.0,0.0
2072,76.0,0.0,15.0,1.0,0.0
2073,88.0,0.0,30.0,0.0,0.0
2074,74.0,30.0,30.0,7.0,0.0
2075,64.0,0.0,15.0,3.0,0.0
2076,76.0,0.0,30.0,1.0,0.0
2077,73.0,0.0,30.0,7.0,0.0
2078,74.0,30.0,30.0,7.0,0.0
2079,64.0,0.0,15.0,3.0,0.0
2080,88.0,30.0,15.0,0.0,0.0
2081,76.0,0.0,30.0,1.0,0.0
2082,76.0,0.0,60.0,7.0,0.0
2083,88.0,0.0,15.0,0.0,0.0
2084,64.0,0.0,120.0,8.0,0.0
2085,76.0,0.0,30.0,1.0,0.0
2086,88.0,0.0,30.0,0.0,0.0
2087,64.0,30.0,15.0,3.0,0.0
2088,64.0,0.0,30.0,3.0,0.0
2089,76.0,30.0,15.0,1.0,0.0
2090,74.0,0.0,60.0,7.0,0.0
2091,88.0,30.0,15.0,0.0,0.0
2092,76.0,0.0,15.0,1.0,0.0
2093,76.0,0.0,15.0,1.0,0.0
2094,45.0,30.0,30.0,11.0,0.0
2095,73.0,0.0,270.0,1.0,0.0
2096,64.0,0.0,120.0,8.0,0.0
2097,61.0,30.0,120.0,10.0,0.0
2098,64.0,0.0,15.0,3.0,0.0
2099,61.0,0.0,270.0,3.0,0.0
2100,88.0,30.0,15.0,0.0,0.0
2101,73.0,0.0,120.0,7.0,0.0
2102,45.0,30.0,15.0,11.0,0.0
2103,45.0,0.0,30.0,11.0,0.0
2104,76.0,0.0,60.0,7.0,0.0
2105,73.0,0.0,60.0,8.0,0.0
2106,57.0,0.0,60.0,10.0,0.0
2107,45.0,30.0,30.0,11.0,0.0
2108,45.0,30.0,15.0,11.0,0.0
2109,73.0,0.0,30.0,8.0,0.0
2110,45.0,30.0,15.0,11.0,0.0
2111,57.0,0.0,30.0,10.0,0.0
2112,76.0,0.0,30.0,7.0,0.0
2113,52.0,0.0,120.0,10.0,0.0
2114,73.0,0.0,180.0,8.0,0.0
2115,81.0,30.0,120.0,7.0,0.0
2116,45.0,0.0,60.0,11.0,0.0
2117,64.0,0.0,15.0,3.0,0.0
2118,73.0,0.0,30.0,1.0,0.0
2119,88.0,0.0,15.0,0.0,0.0
2120,76.0,30.0,15.0,1.0,0.0
2121,85.0,0.0,15.0,0.0,0.0
2122,64.0,0.0,15.0,3.0,0.0
2123,61.0,30.0,15.0,3.0,0.0
2124,73.0,0.0,30.0,1.0,0.0
2125,76.0,0.0,30.0,1.0,0.0
2126,85.0,0.0,30.0,0.0,0.0
2127,88.0,30.0,15.0,0.0,0.0
2128,64.0,0.0,15.0,3.0,0.0
2129,61.0,0.0,15.0,3.0,0.0
2130,64.0,0.0,15.0,3.0,0.0
2131,61.0,30.0,30.0,3.0,0.0
2132,85.0,0.0,15.0,0.0,0.0
2133,57.0,0.0,60.0,10.0,0.0
2134,76.0,0.0,15.0,1.0,0.0
2135,73.0,0.0,15.0,1.0,0.0
2136,76.0,0.0,60.0,7.0,0.0
2137,88.0,0.0,15.0,0.0,0.0
2138,85.0,0.0,15.0,0.0,0.0
2139,73.0,0.0,15.0,1.0,0.0
2140,76.0,0.0,15.0,1.0,0.0
2141,61.0,0.0,15.0,3.0,0.0
2142,88.0,0.0,30.0,0.0,0.0
2143,64.0,30.0,15.0,3.0,0.0
2144,76.0,30.0,30.0,1.0,0.0
2145,64.0,0.0,15.0,3.0,0.0
2146,85.0,30.0,15.0,0.0,0.0
2147,57.0,0.0,30.0,10.0,0.0
2148,76.0,0.0,30.0,7.0,0.0
2149,73.0,0.0,30.0,8.0,0.0
2150,88.0,0.0,30.0,0.0,0.0
2151,73.0,0.0,120.0,7.0,0.0
2152,64.0,0.0,120.0,8.0,0.0
2153,64.0,0.0,15.0,3.0,0.0
2154,61.0,0.0,15.0,3.0,0.0
2155,85.0,0.0,270.0,0.0,0.0
2156,61.0,30.0,120.0,10.0,0.0
2157,45.0,30.0,30.0,11.0,0.0
2158,73.0,0.0,15.0,1.0,0.0
2159,76.0,0.0,270.0,1.0,0.0
2160,45.0,30.0,30.0,11.0,0.0
2161,45.0,30.0,30.0,11.0,0.0
2162,73.0,0.0,60.0,8.0,0.0
2163,76.0,30.0,60.0,7.0,0.0
2164,45.0,0.0,15.0,11.0,0.0
2165,57.0,0.0,60.0,10.0,0.0
2166,45.0,0.0,15.0,11.0,0.0
2167,57.0,0.0,30.0,10.0,0.0
2168,76.0,0.0,30.0,7.0,0.0
2169,45.0,30.0,15.0,11.0,0.0
2170,73.0,0.0,15.0,8.0,0.0
2171,85.0,0.0,120.0,7.0,0.0
2172,52.0,0.0,120.0,10.0,0.0
2173,73.0,0.0,15.0,1.0,0.0
2174,64.0,0.0,15.0,3.0,0.0
2175,61.0,0.0,15.0,3.0,0.0
2176,76.0,0.0,30.0,1.0,0.0
2177,85.0,0.0,30.0,0.0,0.0
2178,88.0,30.0,15.0,0.0,0.0
2179,61.0,30.0,15.0,3.0,0.0
2180,64.0,0.0,15.0,3.0,0.0
2181,85.0,0.0,30.0,0.0,0.0
2182,61.0,0.0,30.0,3.0,0.0
2183,88.0,0.0,15.0,0.0,0.0
2184,76.0,30.0,15.0,1.0,0.0
2185,73.0,0.0,15.0,1.0,0.0
2186,88.0,0.0,15.0,0.0,0.0
2187,76.0,0.0,60.0,7.0,0.0
2188,61.0,0.0,30.0,3.0,0.0
2189,85.0,30.0,15.0,0.0,0.0
2190,64.0,0.0,15.0,3.0,0.0
2191,57.0,0.0,60.0,10.0,0.0
2192,76.0,0.0,30.0,1.0,0.0
2193,88.0,0.0,15.0,0.0,0.0
2194,73.0,30.0,15.0,1.0,0.0
2195,76.0,0.0,30.0,1.0,0.0
2196,64.0,0.0,15.0,3.0,0.0
2197,61.0,30.0,30.0,3.0,0.0
2198,88.0,0.0,15.0,0.0,0.0
2199,85.0,0.0,15.0,0.0,0.0
2200,76.0,0.0,30.0,1.0,0.0
2201,73.0,0.0,30.0,1.0,0.0
2202,85.0,0.0,30.0,0.0,0.0
2203,88.0,0.0,15.0,0.0,0.0
2204,73.0,30.0,30.0,1.0,0.0
2205,76.0,0.0,30.0,1.0,0.0
2206,73.0,0.0,30.0,8.0,0.0
2207,76.0,0.0,30.0,7.0,0.0
2208,64.0,30.0,15.0,3.0,0.0
2209,61.0,0.0,15.0,3.0,0.0
2210,57.0,0.0,30.0,10.0,0.0
2211,61.0,0.0,15.0,3.0,0.0
2212,64.0,0.0,15.0,3.0,0.0
2213,73.0,30.0,120.0,7.0,0.0
2214,64.0,0.0,120.0,10.0,0.0
2215,69.0,0.0,120.0,8.0,0.0
2216,85.0,0.0,60.0,0.0,0.0
2217,88.0,0.0,60.0,0.0,0.0
2218,76.0,0.0,60.0,1.0,0.0
2219,73.0,0.0,60.0,1.0,0.0
2220,45.0,30.0,15.0,11.0,0.0
2221,45.0,30.0,30.0,11.0,0.0
2222,45.0,0.0,30.0,11.0,0.0
2223,61.0,0.0,60.0,10.0,0.0
2224,73.0,0.0,60.0,8.0,0.0
2225,73.0,0.0,30.0,1.0,0.0
2226,76.0,0.0,30.0,1.0,0.0
2227,64.0,30.0,30.0,3.0,0.0
2228,61.0,0.0,30.0,3.0,0.0
2229,76.0,0.0,60.0,7.0,0.0
2230,45.0,0.0,60.0,11.0,0.0
2231,85.0,0.0,15.0,0.0,0.0
2232,88.0,0.0,15.0,0.0,0.0
2233,61.0,0.0,30.0,3.0,0.0
2234,76.0,0.0,30.0,1.0,0.0
2235,73.0,0.0,15.0,1.0,0.0
2236,85.0,0.0,15.0,0.0,0.0
2237,61.0,0.0,30.0,3.0,0.0
2238,64.0,30.0,15.0,3.0,0.0
2239,76.0,0.0,15.0,1.0,0.0
2240,88.0,30.0,15.0,0.0,0.0
2241,85.0,0.0,15.0,0.0,0.0
2242,61.0,0.0,30.0,10.0,0.0
2243,73.0,0.0,30.0,8.0,0.0
2244,76.0,0.0,30.0,7.0,0.0
2245,76.0,0.0,120.0,8.0,0.0
2246,61.0,0.0,15.0,3.0,0.0
2247,64.0,0.0,15.0,3.0,0.0
2248,57.0,30.0,120.0,10.0,0.0
2249,85.0,0.0,60.0,0.0,0.0
2250,88.0,0.0,60.0,0.0,0.0
2251,73.0,0.0,15.0,1.0,0.0
2252,85.0,0.0,120.0,7.0,0.0
2253,76.0,30.0,15.0,1.0,0.0
2254,45.0,30.0,15.0,11.0,0.0
2255,45.0,0.0,15.0,11.0,0.0
2256,45.0,30.0,15.0,11.0,0.0
2257,85.0,0.0,30.0,0.0,0.0
2258,76.0,0.0,30.0,1.0,0.0
2259,73.0,0.0,30.0,1.0,0.0
2260,61.0,0.0,60.0,10.0,0.0
2261,76.0,0.0,60.0,7.0,0.0
2262,45.0,0.0,15.0,11.0,0.0
2263,73.0,0.0,60.0,8.0,0.0
2264,73.0,0.0,30.0,1.0,0.0
2265,76.0,0.0,30.0,1.0,0.0
2266,88.0,0.0,15.0,0.0,0.0
2267,61.0,30.0,15.0,3.0,0.0
2268,64.0,0.0,15.0,3.0,0.0
2269,73.0,0.0,30.0,1.0,0.0
2270,76.0,0.0,30.0,1.0,0.0
2271,88.0,30.0,15.0,0.0,0.0
2272,85.0,0.0,15.0,0.0,0.0
2273,64.0,0.0,30.0,3.0,0.0
2274,76.0,0.0,30.0,1.0,0.0
2275,61.0,30.0,15.0,3.0,0.0
2276,73.0,0.0,30.0,1.0,0.0
2277,73.0,0.0,30.0,8.0,0.0
2278,61.0,0.0,30.0,10.0,0.0
2279,88.0,0.0,15.0,0.0,0.0
2280,85.0,0.0,15.0,0.0,0.0
2281,76.0,0.0,15.0,7.0,0.0
2282,64.0,0.0,15.0,3.0,0.0
2283,61.0,30.0,15.0,3.0,0.0
2284,45.0,30.0,30.0,11.0,0.0
2285,73.0,30.0,120.0,8.0,0.0
2286,88.0,0.0,15.0,0.0,0.0
2287,85.0,0.0,15.0,0.0,0.0
2288,76.0,0.0,60.0,1.0,0.0
2289,69.0,0.0,120.0,10.0,0.0
2290,73.0,0.0,60.0,1.0,0.0
2291,45.0,0.0,15.0,11.0,0.0
2292,45.0,0.0,30.0,11.0,0.0
2293,76.0,0.0,60.0,8.0,0.0
2294,45.0,0.0,60.0,11.0,0.0
2295,85.0,0.0,60.0,7.0,0.0
2296,64.0,0.0,60.0,10.0,0.0
2297,64.0,0.0,30.0,3.0,0.0
2298,85.0,0.0,30.0,2.0,0.0
2299,88.0,0.0,15.0,0.0,0.0
2300,76.0,0.0,15.0,2.0,0.0
2301,64.0,0.0,30.0,3.0,0.0
2302,61.0,0.0,15.0,3.0,0.0
2303,85.0,0.0,15.0,0.0,0.0
2304,76.0,0.0,15.0,1.0,0.0
2305,73.0,30.0,15.0,1.0,0.0
2306,73.0,0.0,15.0,1.0,0.0
2307,85.0,0.0,15.0,0.0,0.0
2308,64.0,0.0,30.0,3.0,0.0
2309,61.0,0.0,30.0,3.0,0.0
2310,76.0,0.0,30.0,1.0,0.0
2311,85.0,30.0,15.0,2.0,0.0
2312,76.0,0.0,15.0,2.0,0.0
2313,73.0,0.0,15.0,1.0,0.0
2314,85.0,0.0,15.0,2.0,0.0
2315,85.0,0.0,30.0,7.0,0.0
2316,61.0,0.0,30.0,3.0,0.0
2317,88.0,0.0,15.0,0.0,0.0
2318,64.0,0.0,30.0,10.0,0.0
2319,85.0,0.0,30.0,0.0,0.0
2320,76.0,0.0,30.0,8.0,0.0
2321,85.0,0.0,60.0,0.0,0.0
2322,88.0,0.0,15.0,0.0,0.0
2323,61.0,0.0,120.0,10.0,0.0
2324,61.0,0.0,60.0,3.0,0.0
2325,64.0,0.0,15.0,3.0,0.0
2326,88.0,0.0,120.0,7.0,0.0
2327,76.0,0.0,15.0,1.0,0.0
2328,45.0,30.0,30.0,11.0,0.0
2329,85.0,0.0,15.0,2.0,0.0
2330,73.0,0.0,60.0,1.0,0.0
2331,76.0,30.0,15.0,2.0,0.0
2332,76.0,30.0,120.0,8.0,0.0
2333,45.0,30.0,15.0,11.0,0.0
2334,45.0,0.0,30.0,11.0,0.0
2335,57.0,0.0,60.0,10.0,0.0
2336,45.0,0.0,60.0,11.0,0.0
2337,85.0,0.0,60.0,7.0,0.0
2338,76.0,0.0,30.0,1.0,0.0
2339,76.0,0.0,30.0,2.0,0.0
2340,85.0,0.0,30.0,2.0,0.0
2341,73.0,0.0,60.0,8.0,0.0
2342,61.0,0.0,15.0,3.0,0.0
2343,64.0,0.0,15.0,3.0,0.0
2344,76.0,0.0,30.0,2.0,0.0
2345,85.0,0.0,30.0,2.0,0.0
2346,88.0,0.0,15.0,1.0,0.0
2347,61.0,30.0,15.0,4.0,0.0
2348,88.0,0.0,15.0,0.0,0.0
2349,85.0,0.0,15.0,0.0,0.0
2350,76.0,0.0,30.0,1.0,0.0
2351,57.0,0.0,30.0,3.0,0.0
2352,61.0,0.0,30.0,3.0,0.0
2353,61.0,0.0,15.0,4.0,0.0
2354,73.0,0.0,30.0,2.0,0.0
2355,85.0,0.0,15.0,0.0,0.0
2356,57.0,0.0,30.0,3.0,0.0
2357,61.0,0.0,30.0,3.0,0.0
2358,85.0,0.0,15.0,0.0,0.0
2359,73.0,0.0,30.0,8.0,0.0
2360,85.0,0.0,30.0,7.0,0.0
2361,85.0,0.0,15.0,2.0,0.0
2362,61.0,0.0,15.0,4.0,0.0
2363,57.0,30.0,30.0,10.0,0.0
2364,73.0,30.0,15.0,1.0,0.0
2365,85.0,0.0,15.0,1.0,0.0
2366,73.0,0.0,30.0,2.0,0.0
2367,68.0,0.0,60.0,4.0,0.0
2368,92.0,0.0,60.0,0.0,0.0
2369,68.0,30.0,30.0,11.0,0.0
2370,56.0,0.0,60.0,6.0,0.0
2371,68.0,0.0,60.0,5.0,0.0
2372,80.0,0.0,60.0,1.0,0.0
2373,80.0,30.0,60.0,8.0,0.0
2374,68.0,0.0,60.0,1.0,0.0
2375,80.0,0.0,60.0,0.0,0.0
2376,92.0,0.0,60.0,7.0,0.0
2377,56.0,0.0,60.0,3.0,0.0
2378,68.0,0.0,60.0,2.0,0.0
2379,56.0,0.0,60.0,10.0,0.0
2380,80.0,0.0,60.0,2.0,0.0
2381,44.0,0.0,15.0,11.0,0.0
2382,44.0,30.0,15.0,11.0,0.0
2383,44.0,30.0,15.0,11.0,0.0
2384,44.0,30.0,30.0,11.0,0.0
2385,44.0,30.0,30.0,11.0,0.0
2386,44.0,30.0,60.0,11.0,0.0
2387,92.0,30.0,30.0,7.0,0.0
2388,80.0,0.0,30.0,8.0,0.0
2389,68.0,0.0,30.0,7.0,0.0
2390,68.0,0.0,15.0,8.0,0.0
2391,68.0,0.0,30.0,7.0,0.0
2392,68.0,30.0,15.0,8.0,0.0
2393,68.0,30.0,30.0,7.0,0.0
2394,68.0,0.0,15.0,8.0,0.0
2395,68.0,30.0,15.0,7.0,0.0
2396,68.0,30.0,30.0,8.0,0.0
2397,68.0,0.0,15.0,7.0,0.0
2398,68.0,0.0,30.0,8.0,0.0
2399,68.0,120.0,120.0,3.0,0.0
2400,68.0,0.0,60.0,7.0,0.0
2401,80.0,0.0,240.0,0.0,0.0
2402,68.0,60.0,60.0,8.0,0.0
2403,63.0,0.0,120.0,3.0,0.0
2404,56.0,0.0,120.0,3.0,0.0
2405,72.0,120.0,15.0,2.0,0.0
2406,84.0,0.0,120.0,0.0,0.0
2407,56.0,0.0,120.0,11.0,0.0
2408,68.0,0.0,120.0,10.0,0.0
2409,80.0,0.0,120.0,1.0,0.0
2410,68.0,90.0,120.0,2.0,0.0
2411,87.0,0.0,90.0,0.0,0.0
2412,75.0,0.0,90.0,2.0,0.0
2413,84.0,30.0,90.0,1.0,0.0
2414,68.0,0.0,180.0,3.0,0.0
2415,72.0,0.0,90.0,2.0,0.0
2416,63.0,0.0,120.0,10.0,0.0
2417,51.0,0.0,120.0,11.0,0.0
2418,73.0,0.0,30.0,2.0,0.0
2419,70.0,0.0,30.0,2.0,0.0
2420,82.0,30.0,30.0,1.0,0.0
2421,85.0,0.0,30.0,0.0,0.0
2422,80.0,0.0,60.0,1.0,0.0
2423,56.0,30.0,30.0,10.0,0.0
2424,56.0,0.0,60.0,6.0,0.0
2425,68.0,0.0,60.0,5.0,0.0
2426,84.0,0.0,60.0,0.0,0.0
2427,68.0,0.0,60.0,4.0,0.0
2428,72.0,0.0,60.0,2.0,0.0
2429,68.0,0.0,60.0,2.0,0.0
2430,68.0,0.0,30.0,11.0,0.0
2431,56.0,0.0,60.0,3.0,0.0
2432,68.0,0.0,30.0,10.0,0.0
2433,44.0,30.0,15.0,11.0,0.0
2434,56.0,0.0,30.0,10.0,0.0
2435,44.0,30.0,15.0,11.0,0.0
2436,56.0,30.0,30.0,10.0,0.0
2437,44.0,0.0,15.0,11.0,0.0
2438,44.0,0.0,15.0,11.0,0.0
2439,56.0,30.0,15.0,10.0,0.0
2440,56.0,30.0,15.0,10.0,0.0
2441,44.0,0.0,15.0,11.0,0.0
2442,56.0,0.0,15.0,10.0,0.0
2443,44.0,0.0,30.0,11.0,0.0
2444,92.0,30.0,30.0,7.0,0.0
2445,80.0,0.0,30.0,8.0,0.0
2446,56.0,0.0,60.0,10.0,0.0
2447,44.0,0.0,60.0,11.0,0.0
2448,68.0,0.0,30.0,8.0,0.0
2449,68.0,30.0,15.0,7.0,0.0
2450,68.0,30.0,30.0,8.0,0.0
2451,68.0,30.0,30.0,7.0,0.0
2452,68.0,0.0,30.0,8.0,0.0
2453,68.0,0.0,30.0,8.0,0.0
2454,68.0,30.0,30.0,7.0,0.0
2455,68.0,0.0,15.0,7.0,0.0
2456,68.0,30.0,15.0,8.0,0.0
2457,68.0,60.0,30.0,8.0,0.0
2458,68.0,0.0,30.0,7.0,0.0
2459,68.0,120.0,120.0,3.0,0.0
2460,80.0,120.0,240.0,0.0,0.0
2461,68.0,60.0,60.0,7.0,0.0
2462,68.0,0.0,60.0,8.0,0.0
2463,63.0,0.0,120.0,3.0,0.0
2464,72.0,0.0,15.0,2.0,0.0
2465,56.0,0.0,120.0,3.0,0.0
2466,68.0,90.0,120.0,2.0,0.0
2467,84.0,0.0,120.0,0.0,0.0
2468,68.0,0.0,120.0,10.0,0.0
2469,80.0,0.0,120.0,1.0,0.0
2470,56.0,0.0,120.0,11.0,0.0
2471,72.0,0.0,15.0,2.0,0.0
2472,87.0,0.0,90.0,0.0,0.0
2473,68.0,0.0,180.0,3.0,0.0
2474,84.0,30.0,90.0,1.0,0.0
2475,63.0,0.0,120.0,10.0,0.0
2476,75.0,0.0,90.0,2.0,0.0
2477,51.0,30.0,120.0,11.0,0.0
2478,85.0,0.0,30.0,0.0,0.0
2479,70.0,0.0,30.0,2.0,0.0
2480,73.0,0.0,30.0,2.0,0.0
2481,82.0,0.0,30.0,1.0,0.0
2482,84.0,0.0,30.0,0.0,0.0
2483,68.0,0.0,120.0,2.0,0.0
2484,72.0,0.0,120.0,2.0,0.0
2485,80.0,30.0,30.0,1.0,0.0
2486,44.0,0.0,120.0,11.0,0.0
2487,56.0,0.0,120.0,10.0,0.0
2488,92.0,30.0,15.0,0.0,0.0
2489,80.0,0.0,15.0,1.0,0.0
2490,80.0,0.0,30.0,1.0,0.0
2491,92.0,30.0,15.0,0.0,0.0
2492,80.0,30.0,30.0,1.0,0.0
2493,92.0,0.0,15.0,0.0,0.0
2494,80.0,30.0,30.0,1.0,0.0
2495,92.0,0.0,15.0,0.0,0.0
2496,80.0,30.0,30.0,1.0,0.0
2497,92.0,60.0,30.0,0.0,0.0
2498,80.0,0.0,30.0,1.0,0.0
2499,80.0,0.0,60.0,1.0,0.0
2500,92.0,0.0,60.0,0.0,0.0
2501,68.0,0.0,15.0,8.0,0.0
2502,80.0,30.0,15.0,7.0,0.0
2503,68.0,0.0,15.0,8.0,0.0
2504,80.0,30.0,15.0,7.0,0.0
2505,68.0,30.0,15.0,8.0,0.0
2506,68.0,0.0,15.0,8.0,0.0
2507,80.0,30.0,15.0,7.0,0.0
2508,68.0,0.0,30.0,8.0,0.0
2509,80.0,30.0,15.0,7.0,0.0
2510,80.0,0.0,120.0,7.0,0.0
2511,68.0,120.0,15.0,8.0,0.0
2512,80.0,0.0,60.0,1.0,0.0
2513,92.0,0.0,60.0,0.0,0.0
2514,80.0,0.0,60.0,1.0,0.0
2515,92.0,60.0,60.0,0.0,0.0
2516,92.0,0.0,60.0,0.0,0.0
2517,92.0,0.0,60.0,0.0,0.0
2518,80.0,60.0,15.0,1.0,0.0
2519,68.0,0.0,60.0,8.0,0.0
2520,80.0,60.0,15.0,7.0,0.0
2521,80.0,0.0,15.0,7.0,0.0
2522,68.0,60.0,15.0,8.0,0.0
2523,68.0,120.0,15.0,8.0,0.0
2524,80.0,240.0,120.0,7.0,0.0
2525,92.0,240.0,120.0,0.0,0.0
2526,80.0,0.0,120.0,1.0,0.0
2527,68.0,0.0,120.0,8.0,0.0
2528,80.0,240.0,120.0,7.0,0.0
2529,80.0,0.0,120.0,1.0,0.0
2530,92.0,120.0,120.0,0.0,0.0
2531,92.0,0.0,30.0,0.0,0.0
2532,92.0,0.0,120.0,0.0,0.0
2533,80.0,120.0,15.0,1.0,0.0
2534,80.0,0.0,30.0,7.0,0.0
2535,68.0,120.0,15.0,8.0,0.0
2536,80.0,0.0,120.0,7.0,0.0
2537,80.0,120.0,15.0,1.0,0.0
2538,92.0,0.0,15.0,0.0,0.0
2539,80.0,0.0,30.0,7.0,0.0
2540,80.0,120.0,120.0,7.0,0.0
2541,68.0,120.0,15.0,8.0,0.0
2542,92.0,90.0,30.0,0.0,0.0
2543,80.0,0.0,30.0,1.0,0.0
2544,80.0,0.0,90.0,1.0,0.0
2545,92.0,30.0,15.0,0.0,0.0
2546,80.0,60.0,15.0,1.0,0.0
2547,80.0,30.0,90.0,1.0,0.0
2548,92.0,90.0,15.0,0.0,0.0
2549,80.0,0.0,30.0,1.0,0.0
2550,92.0,60.0,30.0,0.0,0.0
2551,80.0,0.0,60.0,1.0,0.0
2552,92.0,90.0,60.0,0.0,0.0
2553,92.0,0.0,15.0,0.0,0.0
2554,80.0,30.0,15.0,1.0,0.0
2555,92.0,60.0,15.0,0.0,0.0
2556,80.0,90.0,15.0,1.0,0.0
2557,92.0,30.0,15.0,0.0,0.0
2558,80.0,60.0,15.0,1.0,0.0
2559,92.0,0.0,60.0,0.0,0.0
2560,80.0,90.0,15.0,1.0,0.0
2561,92.0,0.0,15.0,0.0,0.0
2562,68.0,0.0,15.0,3.0,0.0
2563,80.0,30.0,15.0,1.0,0.0
2564,92.0,60.0,15.0,0.0,0.0
2565,92.0,30.0,90.0,0.0,0.0
2566,68.0,90.0,15.0,3.0,0.0
2567,80.0,0.0,15.0,1.0,0.0
2568,80.0,0.0,30.0,1.0,0.0
2569,68.0,60.0,15.0,3.0,0.0
2570,92.0,0.0,15.0,0.0,0.0
2571,80.0,90.0,60.0,1.0,0.0
2572,65.0,30.0,90.0,3.0,0.0
2573,89.0,0.0,90.0,0.0,0.0
2574,92.0,0.0,15.0,0.0,0.0
2575,68.0,0.0,90.0,3.0,0.0
2576,92.0,0.0,15.0,0.0,0.0
2577,65.0,0.0,30.0,3.0,0.0
2578,89.0,0.0,15.0,0.0,0.0
2579,65.0,0.0,60.0,3.0,0.0
2580,68.0,60.0,15.0,3.0,0.0
2581,92.0,0.0,60.0,0.0,0.0
2582,89.0,0.0,15.0,0.0,0.0
2583,68.0,90.0,15.0,3.0,0.0
2584,77.0,0.0,90.0,2.0,0.0
2585,37.0,0.0,90.0,4.0,0.0
2586,80.0,0.0,90.0,1.0,0.0
2587,68.0,0.0,90.0,1.0,0.0
2588,49.0,0.0,90.0,4.0,0.0
2589,89.0,0.0,15.0,0.0,0.0
2590,49.0,0.0,30.0,4.0,0.0
2591,92.0,30.0,15.0,0.0,0.0
2592,80.0,0.0,15.0,2.0,0.0
2593,68.0,0.0,15.0,3.0,0.0
2594,65.0,0.0,15.0,3.0,0.0
2595,37.0,0.0,30.0,4.0,0.0
2596,92.0,0.0,15.0,0.0,0.0
2597,89.0,0.0,15.0,0.0,0.0
2598,80.0,0.0,15.0,1.0,0.0
2599,68.0,0.0,15.0,1.0,0.0
2600,68.0,0.0,15.0,3.0,0.0
2601,49.0,0.0,60.0,4.0,0.0
2602,80.0,0.0,15.0,2.0,0.0
2603,77.0,60.0,15.0,2.0,0.0
2604,61.0,0.0,30.0,10.0,0.0
2605,61.0,0.0,30.0,8.0,0.0
2606,65.0,0.0,15.0,3.0,0.0
2607,80.0,0.0,15.0,1.0,0.0
2608,61.0,0.0,120.0,10.0,0.0
2609,61.0,0.0,15.0,7.0,0.0
2610,68.0,0.0,15.0,3.0,0.0
2611,68.0,1.0,2280.0,1.0,0.0
2612,37.0,0.0,15.0,4.0,0.0
2613,49.0,0.0,15.0,11.0,0.0
2614,77.0,0.0,15.0,2.0,0.0
2615,80.0,0.0,15.0,2.0,0.0
2616,61.0,0.0,120.0,8.0,0.0
2617,89.0,150.0,120.0,0.0,0.0
2618,92.0,120.0,15.0,0.0,0.0
2619,49.0,1.0,2220.0,4.0,0.0
2620,90.0,60.0,30.0,0.0,0.0
2621,78.0,0.0,360.0,2.0,0.0
2622,75.0,0.0,360.0,2.0,0.0
2623,89.0,0.0,15.0,0.0,0.0
2624,63.0,0.0,360.0,3.0,0.0
2625,66.0,0.0,360.0,3.0,0.0
2626,90.0,29.0,240.0,0.0,0.0
2627,82.0,60.0,30.0,0.0,0.0
2628,84.0,0.0,60.0,0.0,0.0
2629,61.0,0.0,30.0,7.0,0.0
2630,61.0,0.0,30.0,10.0,0.0
2631,61.0,0.0,120.0,10.0,0.0
2632,73.0,0.0,120.0,2.0,0.0
2633,61.0,0.0,120.0,3.0,0.0
2634,61.0,0.0,15.0,8.0,0.0
2635,49.0,120.0,15.0,11.0,0.0
2636,61.0,0.0,120.0,7.0,0.0
2637,85.0,0.0,15.0,0.0,0.0
2638,65.0,0.0,15.0,3.0,0.0
2639,80.0,0.0,60.0,2.0,0.0
2640,77.0,60.0,15.0,2.0,0.0
2641,85.0,0.0,15.0,0.0,0.0
2642,68.0,90.0,15.0,3.0,0.0
2643,80.0,0.0,90.0,2.0,0.0
2644,77.0,0.0,90.0,2.0,0.0
2645,65.0,0.0,15.0,3.0,0.0
2646,87.0,60.0,30.0,0.0,0.0
2647,78.0,0.0,30.0,2.0,0.0
2648,66.0,0.0,30.0,3.0,0.0
2649,75.0,0.0,30.0,2.0,0.0
2650,63.0,0.0,30.0,3.0,0.0
2651,65.0,0.0,60.0,3.0,0.0
2652,61.0,0.0,15.0,3.0,0.0
2653,77.0,0.0,15.0,2.0,0.0
2654,73.0,0.0,15.0,2.0,0.0
2655,89.0,60.0,15.0,0.0,0.0
2656,65.0,0.0,60.0,3.0,0.0
2657,75.0,30.0,210.0,2.0,0.0
2658,87.0,15.0,120.0,0.0,0.0
2659,72.0,0.0,210.0,2.0,0.0
2660,60.0,0.0,210.0,3.0,0.0
2661,63.0,0.0,210.0,3.0,0.0
2662,89.0,15.0,15.0,0.0,0.0
2663,87.0,15.0,15.0,0.0,0.0
2664,85.0,45.0,15.0,0.0,0.0
2665,87.0,0.0,40.0,0.0,0.0
2666,73.0,0.0,30.0,2.0,0.0
2667,89.0,60.0,30.0,0.0,0.0
2668,77.0,0.0,30.0,2.0,0.0
2669,65.0,0.0,30.0,3.0,0.0
2670,61.0,0.0,30.0,3.0,0.0
2671,78.0,0.0,60.0,2.0,0.0
2672,75.0,120.0,60.0,2.0,0.0
2673,66.0,0.0,60.0,3.0,0.0
2674,63.0,0.0,60.0,3.0,0.0
2675,90.0,0.0,60.0,0.0,0.0
2676,61.0,0.0,30.0,7.0,0.0
2677,49.0,0.0,30.0,11.0,0.0
2678,61.0,0.0,30.0,8.0,0.0
2679,92.0,30.0,270.0,0.0,0.0
2680,89.0,0.0,120.0,0.0,0.0
2681,49.0,0.0,120.0,11.0,0.0
2682,68.0,0.0,360.0,3.0,0.0
2683,61.0,0.0,15.0,10.0,0.0
2684,61.0,0.0,120.0,8.0,0.0
2685,61.0,150.0,120.0,7.0,0.0
2686,77.0,0.0,360.0,2.0,0.0
2687,80.0,0.0,360.0,2.0,0.0
2688,65.0,0.0,360.0,3.0,0.0
2689,90.0,60.0,30.0,0.0,0.0
2690,89.0,15.0,60.0,0.0,0.0
2691,66.0,0.0,360.0,3.0,0.0
2692,78.0,0.0,360.0,2.0,0.0
2693,75.0,0.0,360.0,2.0,0.0
2694,89.0,256.0,15.0,0.0,0.0
2695,63.0,0.0,360.0,3.0,0.0
2696,90.0,29.0,240.0,0.0,0.0
2697,82.0,60.0,30.0,0.0,0.0
2698,84.0,0.0,60.0,0.0,0.0
2699,61.0,59.0,30.0,10.0,0.0
2700,49.0,0.0,30.0,11.0,0.0
2701,61.0,0.0,120.0,3.0,0.0
2702,61.0,0.0,15.0,8.0,0.0
2703,49.0,59.0,60.0,11.0,0.0
2704,73.0,0.0,120.0,2.0,0.0
2705,77.0,0.0,120.0,2.0,0.0
2706,61.0,0.0,15.0,7.0,0.0
2707,65.0,0.0,120.0,3.0,0.0
2708,85.0,0.0,120.0,0.0,0.0
2709,61.0,0.0,60.0,10.0,0.0
2710,61.0,0.0,60.0,4.0,0.0
2711,53.0,0.0,60.0,10.0,0.0
2712,73.0,0.0,60.0,2.0,0.0
2713,77.0,0.0,60.0,2.0,0.0
2714,65.0,0.0,60.0,7.0,0.0
2715,56.0,60.0,15.0,4.0,0.0
2716,65.0,0.0,60.0,8.0,0.0
2717,80.0,0.0,60.0,1.0,0.0
2718,61.0,0.0,60.0,3.0,0.0
2719,65.0,0.0,60.0,3.0,0.0
2720,85.0,0.0,60.0,0.0,0.0
2721,53.0,0.0,60.0,11.0,0.0
2722,65.0,0.0,60.0,4.0,0.0
2723,56.0,0.0,60.0,10.0,0.0
2724,56.0,0.0,60.0,11.0,0.0
2725,68.0,0.0,15.0,1.0,0.0
2726,73.0,0.0,120.0,2.0,0.0
2727,56.0,60.0,15.0,4.0,0.0
2728,77.0,0.0,60.0,2.0,0.0
2729,65.0,0.0,60.0,3.0,0.0
2730,61.0,60.0,120.0,3.0,0.0
2731,68.0,0.0,60.0,4.0,0.0
2732,68.0,0.0,60.0,7.0,0.0
2733,85.0,60.0,60.0,0.0,0.0
2734,68.0,0.0,60.0,8.0,0.0
2735,80.0,0.0,60.0,2.0,0.0
2736,68.0,0.0,60.0,3.0,0.0
2737,89.0,0.0,60.0,0.0,0.0
2738,68.0,0.0,15.0,4.0,0.0
2739,68.0,0.0,15.0,1.0,0.0
2740,80.0,0.0,15.0,1.0,0.0
2741,72.0,0.0,60.0,2.0,0.0
2742,78.0,0.0,60.0,2.0,0.0
2743,56.0,0.0,15.0,4.0,0.0
2744,68.0,0.0,60.0,7.0,0.0
2745,68.0,0.0,60.0,8.0,0.0
2746,56.0,0.0,60.0,11.0,0.0
2747,56.0,0.0,60.0,10.0,0.0
2748,87.0,0.0,60.0,0.0,0.0
2749,66.0,0.0,60.0,3.0,0.0
2750,60.0,0.0,60.0,3.0,0.0
2751,61.0,60.0,120.0,8.0,0.0
2752,61.0,0.0,120.0,7.0,0.0
2753,73.0,30.0,90.0,2.0,0.0
2754,77.0,0.0,90.0,2.0,0.0
2755,80.0,0.0,120.0,1.0,0.0
2756,85.0,0.0,120.0,0.0,0.0
2757,37.0,0.0,2400.0,4.0,0.0
2758,49.0,0.0,2400.0,4.0,0.0
2759,49.0,0.0,120.0,11.0,0.0
2760,61.0,0.0,120.0,10.0,0.0
2761,61.0,0.0,90.0,3.0,0.0
2762,65.0,0.0,90.0,3.0,0.0
2763,68.0,0.0,120.0,1.0,0.0
2764,66.0,0.0,30.0,3.0,0.0
2765,78.0,0.0,30.0,2.0,0.0
2766,63.0,0.0,30.0,3.0,0.0
2767,75.0,0.0,30.0,2.0,0.0
2768,68.0,0.0,60.0,3.0,0.0
2769,65.0,0.0,60.0,3.0,0.0
2770,80.0,0.0,60.0,2.0,0.0
2771,77.0,60.0,60.0,2.0,0.0
2772,70.0,0.0,60.0,3.0,0.0
2773,82.0,0.0,60.0,2.0,0.0
2774,66.0,0.0,60.0,3.0,0.0
2775,78.0,60.0,15.0,2.0,0.0
2776,54.0,0.0,60.0,3.0,0.0
2777,58.0,0.0,15.0,3.0,0.0
2778,73.0,0.0,60.0,1.0,0.0
2779,82.0,60.0,15.0,2.0,0.0
2780,85.0,0.0,15.0,0.0,0.0
2781,82.0,120.0,15.0,2.0,0.0
2782,78.0,0.0,15.0,2.0,0.0
2783,54.0,0.0,15.0,3.0,0.0
2784,58.0,0.0,360.0,3.0,0.0
2785,73.0,60.0,15.0,1.0,0.0
2786,85.0,0.0,15.0,0.0,0.0
2787,85.0,30.0,90.0,0.0,0.0
2788,73.0,0.0,90.0,1.0,0.0
2789,90.0,60.0,30.0,0.0,0.0
2790,78.0,0.0,30.0,1.0,0.0
2791,82.0,0.0,60.0,1.0,0.0
2792,61.0,0.0,30.0,10.0,0.0
2793,61.0,0.0,30.0,7.0,0.0
2794,49.0,0.0,30.0,11.0,0.0
2795,94.0,0.0,15.0,0.0,0.0
2796,80.0,0.0,720.0,2.0,0.0
2797,77.0,0.0,720.0,2.0,0.0
2798,61.0,0.0,120.0,7.0,0.0
2799,61.0,60.0,15.0,8.0,0.0
2800,61.0,0.0,120.0,10.0,0.0
2801,82.0,0.0,60.0,1.0,0.0
2802,56.0,0.0,720.0,3.0,0.0
2803,53.0,0.0,720.0,3.0,0.0
2804,49.0,0.0,120.0,11.0,0.0
2805,92.0,60.0,60.0,0.0,0.0
2806,80.0,0.0,60.0,1.0,0.0
2807,77.0,120.0,60.0,1.0,0.0
2808,89.0,0.0,60.0,0.0,0.0
2809,85.0,0.0,120.0,0.0,0.0
2810,73.0,60.0,120.0,1.0,0.0
2811,68.0,0.0,60.0,7.0,0.0
2812,56.0,60.0,60.0,11.0,0.0
2813,56.0,0.0,60.0,10.0,0.0
2814,68.0,0.0,60.0,8.0,0.0
2815,58.0,0.0,60.0,11.0,0.0
2816,70.0,0.0,60.0,7.0,0.0
2817,58.0,0.0,60.0,10.0,0.0
2818,70.0,60.0,60.0,8.0,0.0
2819,56.0,60.0,60.0,11.0,0.0
2820,56.0,0.0,60.0,10.0,0.0
2821,68.0,0.0,60.0,7.0,0.0
2822,68.0,0.0,60.0,8.0,0.0
2823,65.0,0.0,60.0,8.0,0.0
2824,65.0,0.0,60.0,7.0,0.0
2825,53.0,0.0,60.0,11.0,0.0
2826,53.0,120.0,60.0,10.0,0.0
2827,49.0,60.0,120.0,11.0,0.0
2828,61.0,0.0,120.0,8.0,0.0
2829,61.0,0.0,120.0,7.0,0.0
2830,61.0,0.0,120.0,10.0,0.0
2831,73.0,90.0,15.0,1.0,0.0
2832,82.0,0.0,360.0,2.0,0.0
2833,78.0,0.0,360.0,2.0,0.0
2834,58.0,0.0,360.0,3.0,0.0
2835,54.0,0.0,360.0,3.0,0.0
2836,85.0,0.0,15.0,0.0,0.0
2837,90.0,0.0,30.0,0.0,0.0
2838,78.0,60.0,30.0,1.0,0.0
2839,73.0,90.0,60.0,1.0,0.0
2840,85.0,0.0,15.0,0.0,0.0
2841,73.0,30.0,90.0,1.0,0.0
2842,90.0,0.0,30.0,0.0,0.0
2843,78.0,60.0,30.0,1.0,0.0
2844,82.0,0.0,60.0,1.0,0.0
2845,61.0,0.0,30.0,7.0,0.0
2846,61.0,0.0,30.0,8.0,0.0
2847,82.0,0.0,60.0,1.0,0.0
2848,61.0,0.0,120.0,8.0,0.0
2849,61.0,0.0,15.0,10.0,0.0
2850,49.0,60.0,15.0,11.0,0.0
2851,61.0,0.0,120.0,7.0,0.0
2852,94.0,0.0,15.0,0.0,0.0
2853,80.0,0.0,600.0,2.0,0.0
2854,53.0,0.0,600.0,3.0,0.0
2855,56.0,60.0,600.0,3.0,0.0
2856,80.0,0.0,60.0,1.0,0.0
2857,92.0,0.0,60.0,0.0,0.0
2858,89.0,120.0,60.0,0.0,0.0
2859,77.0,0.0,60.0,1.0,0.0
2860,73.0,0.0,120.0,1.0,0.0
2861,85.0,60.0,120.0,0.0,0.0
2862,56.0,0.0,60.0,10.0,0.0
2863,68.0,0.0,60.0,8.0,0.0
2864,56.0,0.0,60.0,11.0,0.0
2865,68.0,60.0,60.0,7.0,0.0
2866,70.0,0.0,60.0,7.0,0.0
2867,58.0,0.0,60.0,11.0,0.0
2868,70.0,0.0,60.0,8.0,0.0
2869,58.0,60.0,60.0,10.0,0.0
2870,68.0,60.0,60.0,8.0,0.0
2871,68.0,0.0,60.0,7.0,0.0
2872,56.0,0.0,60.0,10.0,0.0
2873,56.0,0.0,60.0,11.0,0.0
2874,53.0,0.0,60.0,10.0,0.0
2875,53.0,60.0,60.0,11.0,0.0
2876,65.0,0.0,60.0,7.0,0.0
2877,65.0,0.0,60.0,8.0,0.0
2878,61.0,0.0,120.0,10.0,0.0
2879,61.0,0.0,120.0,8.0,0.0
2880,49.0,60.0,120.0,11.0,0.0
2881,61.0,0.0,120.0,7.0,0.0
2882,77.0,0.0,15.0,2.0,0.0
2883,65.0,0.0,60.0,3.0,0.0
2884,61.0,0.0,60.0,3.0,0.0
2885,77.0,120.0,60.0,1.0,0.0
2886,77.0,0.0,15.0,2.0,0.0
2887,73.0,0.0,15.0,2.0,0.0
2888,61.0,0.0,60.0,3.0,0.0
2889,65.0,0.0,60.0,3.0,0.0
2890,89.0,0.0,60.0,0.0,0.0
2891,60.0,0.0,180.0,3.0,0.0
2892,87.0,60.0,120.0,0.0,0.0
2893,72.0,90.0,180.0,2.0,0.0
2894,63.0,0.0,180.0,3.0,0.0
2895,75.0,0.0,120.0,1.0,0.0
2896,75.0,0.0,180.0,2.0,0.0
2897,80.0,0.0,60.0,0.0,0.0
2898,68.0,0.0,15.0,1.0,0.0
2899,80.0,0.0,90.0,0.0,0.0
2900,61.0,0.0,180.0,3.0,0.0
2901,65.0,300.0,180.0,3.0,0.0
2902,77.0,0.0,180.0,2.0,0.0
2903,73.0,0.0,180.0,2.0,0.0
2904,89.0,0.0,30.0,0.0,0.0
2905,77.0,60.0,30.0,1.0,0.0
2906,73.0,0.0,60.0,1.0,0.0
2907,85.0,0.0,60.0,0.0,0.0
2908,56.0,0.0,30.0,11.0,0.0
2909,56.0,0.0,30.0,10.0,0.0
2910,80.0,0.0,30.0,7.0,0.0
2911,68.0,0.0,300.0,7.0,0.0
2912,68.0,0.0,15.0,8.0,0.0
2913,72.0,0.0,300.0,2.0,0.0
2914,80.0,0.0,300.0,7.0,0.0
2915,80.0,0.0,300.0,1.0,0.0
2916,75.0,0.0,300.0,2.0,0.0
2917,92.0,60.0,300.0,0.0,0.0
2918,56.0,0.0,300.0,11.0,0.0
2919,80.0,0.0,300.0,8.0,0.0
2920,60.0,0.0,300.0,3.0,0.0
2921,63.0,0.0,300.0,3.0,0.0
2922,56.0,0.0,300.0,10.0,0.0
2923,65.0,0.0,60.0,3.0,0.0
2924,89.0,0.0,60.0,0.0,0.0
2925,61.0,120.0,60.0,3.0,0.0
2926,77.0,0.0,60.0,1.0,0.0
2927,73.0,0.0,60.0,2.0,0.0
2928,77.0,0.0,60.0,2.0,0.0
2929,75.0,60.0,120.0,1.0,0.0
2930,87.0,0.0,120.0,0.0,0.0
2931,75.0,0.0,180.0,2.0,0.0
2932,60.0,0.0,180.0,3.0,0.0
2933,72.0,0.0,180.0,2.0,0.0
2934,63.0,0.0,180.0,3.0,0.0
2935,73.0,0.0,90.0,2.0,0.0
2936,68.0,90.0,15.0,1.0,0.0
2937,80.0,0.0,15.0,0.0,0.0
2938,61.0,0.0,90.0,3.0,0.0
2939,65.0,0.0,15.0,3.0,0.0
2940,77.0,60.0,30.0,1.0,0.0
2941,89.0,0.0,30.0,0.0,0.0
2942,77.0,30.0,15.0,2.0,0.0
2943,61.0,0.0,60.0,3.0,0.0
2944,73.0,0.0,60.0,2.0,0.0
2945,73.0,0.0,60.0,1.0,0.0
2946,85.0,0.0,60.0,0.0,0.0
2947,68.0,0.0,30.0,7.0,0.0
2948,80.0,0.0,30.0,8.0,0.0
2949,68.0,0.0,30.0,8.0,0.0
2950,56.0,0.0,15.0,4.0,0.0
2951,68.0,0.0,270.0,7.0,0.0
2952,80.0,0.0,15.0,7.0,0.0
2953,80.0,0.0,300.0,2.0,0.0
2954,68.0,0.0,15.0,4.0,0.0
2955,80.0,0.0,300.0,0.0,0.0
2956,92.0,0.0,300.0,0.0,0.0
2957,56.0,0.0,270.0,3.0,0.0
2958,80.0,0.0,270.0,8.0,0.0
2959,68.0,0.0,270.0,8.0,0.0
2960,80.0,0.0,300.0,1.0,0.0
2961,68.0,0.0,300.0,1.0,0.0
2962,56.0,0.0,15.0,11.0,0.0
2963,56.0,270.0,15.0,10.0,0.0
2964,65.0,0.0,30.0,10.0,0.0
2965,53.0,0.0,30.0,11.0,0.0
2966,77.0,0.0,30.0,8.0,0.0
2967,77.0,0.0,30.0,7.0,0.0
2968,53.0,0.0,30.0,3.0,0.0
2969,61.0,0.0,60.0,10.0,0.0
2970,49.0,0.0,60.0,11.0,0.0
2971,73.0,0.0,60.0,8.0,0.0
2972,49.0,270.0,60.0,3.0,0.0
2973,73.0,0.0,60.0,7.0,0.0
2974,80.0,0.0,300.0,2.0,0.0
2975,80.0,0.0,300.0,1.0,0.0
2976,68.0,0.0,300.0,1.0,0.0
2977,68.0,0.0,270.0,8.0,0.0
2978,56.0,0.0,270.0,11.0,0.0
2979,80.0,30.0,270.0,8.0,0.0
2980,80.0,0.0,300.0,0.0,0.0
2981,68.0,0.0,270.0,10.0,0.0
2982,68.0,0.0,270.0,7.0,0.0
2983,92.0,0.0,300.0,0.0,0.0
2984,80.0,0.0,270.0,7.0,0.0
2985,56.0,0.0,270.0,3.0,0.0
2986,68.0,0.0,300.0,4.0,0.0
2987,56.0,0.0,300.0,4.0,0.0
2988,77.0,60.0,30.0,7.0,0.0
2989,65.0,0.0,30.0,8.0,0.0
2990,53.0,0.0,30.0,3.0,0.0
2991,53.0,0.0,30.0,11.0,0.0
2992,65.0,0.0,30.0,10.0,0.0
2993,62.0,60.0,60.0,8.0,0.0
2994,50.0,0.0,60.0,3.0,0.0
2995,62.0,0.0,60.0,10.0,0.0
2996,74.0,0.0,60.0,7.0,0.0
2997,50.0,0.0,60.0,11.0,0.0
2998,80.0,0.0,120.0,0.0,0.0
2999,80.0,0.0,60.0,7.0,0.0
3000,92.0,0.0,120.0,0.0,0.0
3001,68.0,0.0,120.0,4.0,0.0
3002,56.0,0.0,120.0,4.0,0.0
3003,56.0,0.0,60.0,3.0,0.0
3004,68.0,0.0,60.0,10.0,0.0
3005,56.0,0.0,60.0,11.0,0.0
3006,68.0,0.0,120.0,1.0,0.0
3007,80.0,60.0,120.0,1.0,0.0
3008,80.0,0.0,120.0,2.0,0.0
3009,68.0,60.0,60.0,8.0,0.0
3010,78.0,0.0,30.0,7.0,0.0
3011,66.0,0.0,30.0,10.0,0.0
3012,54.0,0.0,30.0,3.0,0.0
3013,66.0,0.0,30.0,8.0,0.0
3014,54.0,0.0,30.0,11.0,0.0
3015,63.0,0.0,60.0,8.0,0.0
3016,63.0,60.0,60.0,10.0,0.0
3017,75.0,0.0,60.0,7.0,0.0
3018,51.0,0.0,60.0,11.0,0.0
3019,51.0,0.0,60.0,3.0,0.0
3020,80.0,0.0,120.0,2.0,0.0
3021,80.0,0.0,120.0,0.0,0.0
3022,92.0,0.0,120.0,0.0,0.0
3023,68.0,0.0,120.0,1.0,0.0
3024,84.0,0.0,60.0,7.0,0.0
3025,60.0,0.0,60.0,11.0,0.0
3026,80.0,0.0,120.0,1.0,0.0
3027,60.0,0.0,60.0,3.0,0.0
3028,56.0,0.0,120.0,4.0,0.0
3029,68.0,0.0,120.0,4.0,0.0
3030,72.0,60.0,60.0,10.0,0.0
3031,72.0,0.0,60.0,8.0,0.0
3032,80.0,0.0,30.0,7.0,0.0
3033,68.0,0.0,30.0,8.0,0.0
3034,68.0,60.0,30.0,10.0,0.0
3035,56.0,0.0,30.0,3.0,0.0
3036,56.0,0.0,30.0,11.0,0.0
3037,54.0,60.0,60.0,11.0,0.0
3038,78.0,0.0,60.0,7.0,0.0
3039,66.0,0.0,60.0,10.0,0.0
3040,54.0,0.0,60.0,3.0,0.0
3041,66.0,0.0,60.0,8.0,0.0
3042,56.0,0.0,120.0,4.0,0.0
3043,68.0,0.0,120.0,4.0,0.0
3044,63.0,0.0,60.0,3.0,0.0
3045,75.0,0.0,60.0,10.0,0.0
3046,80.0,0.0,120.0,0.0,0.0
3047,80.0,0.0,120.0,2.0,0.0
3048,92.0,0.0,120.0,0.0,0.0
3049,87.0,60.0,60.0,7.0,0.0
3050,80.0,60.0,120.0,1.0,0.0
3051,75.0,0.0,60.0,8.0,0.0
3052,63.0,0.0,60.0,11.0,0.0
3053,68.0,0.0,120.0,1.0,0.0
3054,72.0,0.0,30.0,10.0,0.0
3055,60.0,0.0,30.0,11.0,0.0
3056,84.0,0.0,30.0,7.0,0.0
3057,72.0,0.0,30.0,8.0,0.0
3058,60.0,0.0,30.0,3.0,0.0
3059,80.0,0.0,60.0,7.0,0.0
3060,56.0,0.0,60.0,11.0,0.0
3061,56.0,0.0,60.0,3.0,0.0
3062,68.0,0.0,60.0,10.0,0.0
3063,68.0,60.0,60.0,8.0,0.0
3064,90.0,0.0,60.0,7.0,0.0
3065,78.0,60.0,60.0,1.0,0.0
3066,68.0,0.0,60.0,4.0,0.0
3067,56.0,0.0,60.0,4.0,0.0
3068,78.0,0.0,60.0,10.0,0.0
3069,90.0,0.0,60.0,0.0,0.0
3070,78.0,0.0,60.0,8.0,0.0
3071,78.0,0.0,60.0,2.0,0.0
3072,90.0,0.0,60.0,1.0,0.0
3073,66.0,0.0,60.0,3.0,0.0
3074,66.0,0.0,60.0,11.0,0.0
3075,75.0,60.0,30.0,2.0,0.0
3076,68.0,0.0,30.0,4.0,0.0
3077,75.0,0.0,30.0,10.0,0.0
3078,75.0,0.0,30.0,1.0,0.0
3079,87.0,0.0,30.0,1.0,0.0
3080,87.0,0.0,30.0,0.0,0.0
3081,63.0,0.0,30.0,3.0,0.0
3082,87.0,0.0,30.0,7.0,0.0
3083,75.0,0.0,30.0,8.0,0.0
3084,63.0,0.0,30.0,11.0,0.0
3085,84.0,0.0,60.0,7.0,0.0
3086,56.0,0.0,15.0,4.0,0.0
3087,72.0,0.0,60.0,1.0,0.0
3088,84.0,0.0,60.0,1.0,0.0
3089,68.0,0.0,60.0,4.0,0.0
3090,60.0,0.0,60.0,11.0,0.0
3091,72.0,0.0,60.0,8.0,0.0
3092,84.0,0.0,60.0,0.0,0.0
3093,60.0,120.0,60.0,3.0,0.0
3094,72.0,0.0,60.0,2.0,0.0
3095,78.0,0.0,120.0,1.0,0.0
3096,75.0,0.0,120.0,2.0,0.0
3097,78.0,0.0,120.0,2.0,0.0
3098,75.0,0.0,120.0,8.0,0.0
3099,84.0,0.0,120.0,8.0,0.0
3100,56.0,0.0,120.0,11.0,0.0
3101,72.0,0.0,15.0,10.0,0.0
3102,87.0,0.0,120.0,1.0,0.0
3103,56.0,0.0,120.0,4.0,0.0
3104,68.0,0.0,120.0,4.0,0.0
3105,87.0,90.0,120.0,0.0,0.0
3106,90.0,0.0,120.0,0.0,0.0
3107,90.0,0.0,120.0,7.0,0.0
3108,63.0,0.0,120.0,3.0,0.0
3109,63.0,0.0,120.0,10.0,0.0
3110,66.0,0.0,120.0,3.0,0.0
3111,68.0,0.0,30.0,8.0,0.0
3112,56.0,0.0,30.0,10.0,0.0
3113,80.0,30.0,30.0,7.0,0.0
3114,70.0,0.0,30.0,8.0,0.0
3115,82.0,30.0,30.0,7.0,0.0
3116,58.0,0.0,30.0,10.0,0.0
3117,72.0,0.0,30.0,8.0,0.0
3118,84.0,0.0,30.0,7.0,0.0
3119,60.0,30.0,30.0,10.0,0.0
3120,73.0,0.0,30.0,8.0,0.0
3121,85.0,20.0,30.0,7.0,0.0
3122,61.0,0.0,30.0,10.0,0.0
3123,75.0,0.0,20.0,8.0,0.0
3124,63.0,0.0,20.0,10.0,0.0
3125,87.0,20.0,20.0,7.0,0.0
3126,65.0,0.0,20.0,10.0,0.0
3127,77.0,20.0,20.0,8.0,0.0
3128,89.0,0.0,20.0,7.0,0.0
3129,90.0,0.0,20.0,7.0,0.0
3130,78.0,0.0,20.0,8.0,0.0
3131,66.0,30.0,20.0,10.0,0.0
3132,80.0,0.0,30.0,8.0,0.0
3133,68.0,0.0,360.0,2.0,0.0
3134,92.0,0.0,270.0,7.0,0.0
3135,56.0,0.0,360.0,3.0,0.0
3136,53.0,0.0,360.0,3.0,0.0
3137,77.0,0.0,270.0,4.0,0.0
3138,92.0,0.0,360.0,0.0,0.0
3139,89.0,0.0,360.0,0.0,0.0
3140,65.0,0.0,360.0,2.0,0.0
3141,80.0,0.0,270.0,4.0,0.0
3142,77.0,0.0,360.0,1.0,0.0
3143,49.0,0.0,90.0,11.0,0.0
3144,80.0,0.0,360.0,1.0,0.0
3145,68.0,30.0,30.0,10.0,0.0
3146,49.0,0.0,90.0,6.0,0.0
3147,61.0,0.0,30.0,10.0,0.0
3148,65.0,30.0,30.0,8.0,0.0
3149,66.0,30.0,30.0,8.0,0.0
3150,63.0,0.0,30.0,10.0,0.0
3151,61.0,0.0,15.0,5.0,0.0
3152,49.0,0.0,15.0,5.0,0.0
3153,65.0,0.0,15.0,10.0,0.0
3154,49.0,0.0,15.0,6.0,0.0
3155,49.0,30.0,15.0,11.0,0.0
3156,68.0,0.0,15.0,8.0,0.0
3157,65.0,0.0,15.0,10.0,0.0
3158,68.0,0.0,30.0,8.0,0.0
3159,61.0,30.0,30.0,10.0,0.0
3160,61.0,0.0,15.0,5.0,0.0
3161,49.0,0.0,15.0,5.0,0.0
3162,65.0,0.0,30.0,8.0,0.0
3163,49.0,30.0,15.0,6.0,0.0
3164,63.0,0.0,30.0,10.0,0.0
3165,66.0,30.0,30.0,8.0,0.0
3166,65.0,0.0,30.0,10.0,0.0
3167,68.0,0.0,30.0,8.0,0.0
3168,61.0,0.0,15.0,5.0,0.0
3169,49.0,0.0,15.0,5.0,0.0
3170,49.0,30.0,15.0,11.0,0.0
3171,75.0,0.0,30.0,4.0,0.0
3172,90.0,0.0,30.0,7.0,0.0
3173,78.0,0.0,30.0,4.0,0.0
3174,68.0,0.0,15.0,8.0,0.0
3175,73.0,0.0,60.0,4.0,0.0
3176,77.0,0.0,60.0,4.0,0.0
3177,49.0,30.0,15.0,6.0,0.0
3178,65.0,0.0,15.0,10.0,0.0
3179,89.0,0.0,60.0,7.0,0.0
3180,65.0,30.0,15.0,10.0,0.0
3181,68.0,0.0,30.0,8.0,0.0
3182,54.0,0.0,300.0,3.0,0.0
3183,58.0,0.0,300.0,3.0,0.0
3184,49.0,0.0,15.0,5.0,0.0
3185,49.0,0.0,15.0,11.0,0.0
3186,66.0,30.0,30.0,8.0,0.0
3187,49.0,15.0,15.0,6.0,0.0
3188,58.0,0.0,30.0,10.0,0.0
3189,61.0,0.0,15.0,5.0,0.0
3190,66.0,0.0,300.0,2.0,0.0
3191,70.0,0.0,300.0,2.0,0.0
3192,89.0,15.0,15.0,7.0,0.0
3193,73.0,0.0,300.0,4.0,0.0
3194,78.0,0.0,300.0,4.0,0.0
3195,90.0,0.0,300.0,0.0,0.0
3196,78.0,0.0,300.0,1.0,0.0
3197,94.0,0.0,300.0,0.0,0.0
3198,82.0,0.0,300.0,1.0,0.0
3199,90.0,0.0,240.0,7.0,0.0
3200,59.0,30.0,30.0,10.0,0.0
3201,68.0,0.0,30.0,8.0,0.0
3202,70.0,0.0,30.0,8.0,0.0
3203,61.0,0.0,15.0,10.0,0.0
3204,61.0,0.0,30.0,5.0,0.0
3205,49.0,0.0,15.0,5.0,0.0
3206,70.0,0.0,30.0,8.0,0.0
3207,49.0,0.0,15.0,11.0,0.0
3208,70.0,30.0,30.0,8.0,0.0
3209,61.0,0.0,15.0,10.0,0.0
3210,49.0,30.0,15.0,6.0,0.0
3211,61.0,0.0,30.0,10.0,0.0
3212,70.0,0.0,30.0,8.0,0.0
3213,58.0,0.0,30.0,10.0,0.0
3214,61.0,0.0,15.0,5.0,0.0
3215,49.0,30.0,15.0,5.0,0.0
3216,49.0,0.0,15.0,6.0,0.0
3217,66.0,30.0,30.0,8.0,0.0
3218,49.0,0.0,90.0,11.0,0.0
3219,68.0,0.0,30.0,8.0,0.0
3220,59.0,30.0,30.0,10.0,0.0
3221,70.0,30.0,30.0,8.0,0.0
3222,61.0,0.0,15.0,10.0,0.0
3223,82.0,0.0,30.0,7.0,0.0
3224,66.0,30.0,30.0,8.0,0.0
3225,61.0,0.0,15.0,5.0,0.0
3226,49.0,0.0,15.0,5.0,0.0
3227,49.0,0.0,30.0,11.0,0.0
3228,49.0,0.0,30.0,6.0,0.0
3229,84.0,0.0,60.0,7.0,0.0
3230,49.0,0.0,60.0,5.0,0.0
3231,63.0,0.0,60.0,2.0,0.0
3232,72.0,0.0,60.0,2.0,0.0
3233,49.0,0.0,60.0,6.0,0.0
3234,61.0,0.0,60.0,5.0,0.0
3235,75.0,30.0,60.0,1.0,0.0
3236,75.0,0.0,60.0,4.0,0.0
3237,84.0,0.0,60.0,1.0,0.0
3238,51.0,0.0,60.0,3.0,0.0
3239,60.0,0.0,60.0,3.0,0.0
3240,68.0,0.0,60.0,4.0,0.0
3241,87.0,0.0,60.0,0.0,0.0
3242,96.0,0.0,60.0,0.0,0.0
3243,63.0,0.0,15.0,10.0,0.0
3244,66.0,30.0,15.0,8.0,0.0
3245,65.0,30.0,30.0,8.0,0.0
3246,97.0,0.0,420.0,0.0,0.0
3247,89.0,0.0,420.0,0.0,0.0
3248,49.0,0.0,15.0,11.0,0.0
3249,49.0,0.0,90.0,6.0,0.0
3250,65.0,0.0,120.0,4.0,0.0
3251,65.0,0.0,420.0,2.0,0.0
3252,85.0,0.0,420.0,1.0,0.0
3253,49.0,30.0,90.0,5.0,0.0
3254,61.0,0.0,90.0,5.0,0.0
3255,61.0,0.0,30.0,10.0,0.0
3256,77.0,0.0,420.0,1.0,0.0
3257,73.0,0.0,420.0,2.0,0.0
3258,63.0,30.0,30.0,10.0,0.0
3259,66.0,0.0,30.0,8.0,0.0
3260,65.0,0.0,30.0,10.0,0.0
3261,65.0,0.0,30.0,10.0,0.0
3262,68.0,0.0,15.0,8.0,0.0
3263,49.0,0.0,30.0,6.0,0.0
3264,49.0,0.0,30.0,5.0,0.0
3265,61.0,0.0,30.0,5.0,0.0
3266,49.0,0.0,15.0,11.0,0.0
3267,61.0,0.0,15.0,3.0,0.0
3268,53.0,0.0,15.0,3.0,0.0
3269,73.0,0.0,15.0,4.0,0.0
3270,49.0,0.0,60.0,6.0,0.0
3271,85.0,0.0,15.0,7.0,0.0
3272,68.0,30.0,15.0,8.0,0.0
3273,65.0,30.0,15.0,10.0,0.0
3274,68.0,0.0,15.0,8.0,0.0
3275,61.0,0.0,15.0,5.0,0.0
3276,49.0,0.0,15.0,5.0,0.0
3277,85.0,0.0,15.0,7.0,0.0
3278,65.0,0.0,15.0,4.0,0.0
3279,73.0,30.0,15.0,4.0,0.0
3280,61.0,30.0,30.0,8.0,0.0
3281,53.0,30.0,90.0,3.0,0.0
3282,61.0,0.0,90.0,3.0,0.0
3283,49.0,0.0,90.0,6.0,0.0
3284,53.0,0.0,30.0,10.0,0.0
3285,54.0,30.0,30.0,10.0,0.0
3286,63.0,0.0,30.0,8.0,0.0
3287,61.0,0.0,30.0,10.0,0.0
3288,68.0,0.0,30.0,4.0,0.0
3289,49.0,0.0,15.0,11.0,0.0
3290,65.0,0.0,15.0,8.0,0.0
3291,75.0,0.0,30.0,4.0,0.0
3292,49.0,0.0,30.0,5.0,0.0
3293,61.0,0.0,30.0,5.0,0.0
3294,63.0,0.0,30.0,3.0,0.0
3295,56.0,0.0,30.0,3.0,0.0
3296,87.0,0.0,30.0,7.0,0.0
3297,61.0,30.0,15.0,10.0,0.0
3298,77.0,0.0,60.0,4.0,0.0
3299,73.0,0.0,60.0,4.0,0.0
3300,49.0,0.0,15.0,6.0,0.0
3301,65.0,0.0,60.0,3.0,0.0
3302,61.0,0.0,60.0,3.0,0.0
3303,89.0,0.0,60.0,7.0,0.0
3304,61.0,0.0,30.0,10.0,0.0
3305,65.0,30.0,15.0,8.0,0.0
3306,49.0,30.0,15.0,5.0,0.0
3307,61.0,0.0,15.0,5.0,0.0
3308,61.0,0.0,60.0,3.0,0.0
3309,65.0,0.0,60.0,3.0,0.0
3310,49.0,0.0,15.0,6.0,0.0
3311,49.0,0.0,15.0,11.0,0.0
3312,73.0,0.0,60.0,4.0,0.0
3313,77.0,0.0,60.0,4.0,0.0
3314,56.0,30.0,30.0,10.0,0.0
3315,89.0,0.0,60.0,7.0,0.0
3316,63.0,0.0,30.0,8.0,0.0
3317,61.0,0.0,30.0,10.0,0.0
3318,65.0,30.0,30.0,8.0,0.0
3319,56.0,0.0,210.0,3.0,0.0
3320,87.0,0.0,60.0,0.0,0.0
3321,96.0,0.0,60.0,0.0,0.0
3322,63.0,0.0,30.0,10.0,0.0
3323,63.0,0.0,210.0,3.0,0.0
3324,75.0,0.0,210.0,4.0,0.0
3325,87.0,0.0,210.0,7.0,0.0
3326,68.0,0.0,210.0,4.0,0.0
3327,84.0,0.0,60.0,1.0,0.0
3328,75.0,0.0,60.0,1.0,0.0
3329,63.0,0.0,60.0,2.0,0.0
3330,72.0,0.0,60.0,2.0,0.0
3331,49.0,0.0,15.0,5.0,0.0
3332,66.0,0.0,15.0,8.0,0.0
3333,49.0,30.0,15.0,6.0,0.0
3334,63.0,0.0,30.0,10.0,0.0
3335,85.0,0.0,60.0,0.0,0.0
3336,82.0,0.0,60.0,1.0,0.0
3337,73.0,0.0,60.0,1.0,0.0
3338,73.0,0.0,60.0,2.0,0.0
3339,70.0,0.0,60.0,2.0,0.0
3340,94.0,0.0,60.0,0.0,0.0
3341,49.0,0.0,15.0,5.0,0.0
3342,61.0,0.0,15.0,5.0,0.0
3343,49.0,0.0,60.0,6.0,0.0
3344,49.0,30.0,15.0,11.0,0.0
3345,63.0,30.0,30.0,10.0,0.0
3346,66.0,0.0,15.0,8.0,0.0
3347,63.0,30.0,30.0,10.0,0.0
3348,72.0,0.0,30.0,8.0,0.0
3349,72.0,0.0,120.0,2.0,0.0
3350,72.0,0.0,120.0,1.0,0.0
3351,49.0,0.0,15.0,11.0,0.0
3352,49.0,0.0,15.0,5.0,0.0
3353,61.0,0.0,15.0,5.0,0.0
3354,84.0,0.0,120.0,0.0,0.0
3355,63.0,30.0,30.0,10.0,0.0
3356,49.0,30.0,90.0,6.0,0.0
3357,65.0,0.0,30.0,10.0,0.0
3358,73.0,30.0,30.0,8.0,0.0
3359,66.0,0.0,30.0,10.0,0.0
3360,75.0,0.0,15.0,8.0,0.0
3361,66.0,0.0,30.0,10.0,0.0
3362,77.0,0.0,30.0,4.0,0.0
3363,73.0,0.0,30.0,4.0,0.0
3364,49.0,0.0,15.0,11.0,0.0
3365,61.0,0.0,15.0,5.0,0.0
3366,49.0,0.0,15.0,5.0,0.0
3367,89.0,0.0,30.0,7.0,0.0
3368,49.0,0.0,30.0,6.0,0.0
3369,65.0,0.0,30.0,3.0,0.0
3370,61.0,0.0,30.0,3.0,0.0
3371,78.0,0.0,60.0,4.0,0.0
3372,75.0,0.0,15.0,8.0,0.0
3373,63.0,0.0,60.0,3.0,0.0
3374,66.0,15.0,60.0,3.0,0.0
3375,68.0,0.0,60.0,1.0,0.0
3376,80.0,0.0,15.0,1.0,0.0
3377,75.0,0.0,60.0,4.0,0.0
3378,68.0,0.0,15.0,2.0,0.0
3379,61.0,0.0,60.0,5.0,0.0
3380,90.0,0.0,60.0,7.0,0.0
3381,92.0,30.0,15.0,0.0,0.0
3382,80.0,0.0,60.0,0.0,0.0
3383,75.0,0.0,15.0,8.0,0.0
3384,66.0,30.0,15.0,10.0,0.0
3385,65.0,0.0,30.0,10.0,0.0
3386,49.0,0.0,15.0,11.0,0.0
3387,89.0,0.0,360.0,0.0,0.0
3388,80.0,0.0,270.0,4.0,0.0
3389,91.0,15.0,15.0,7.0,0.0
3390,73.0,30.0,30.0,8.0,0.0
3391,65.0,0.0,360.0,3.0,0.0
3392,68.0,0.0,360.0,3.0,0.0
3393,77.0,1.0,270.0,4.0,0.0
3394,80.0,0.0,15.0,1.0,0.0
3395,77.0,0.0,360.0,1.0,0.0
3396,80.0,0.0,15.0,2.0,0.0
3397,77.0,0.0,360.0,2.0,0.0
3398,49.0,0.0,15.0,6.0,0.0
3399,49.0,0.0,15.0,5.0,0.0
3400,92.0,0.0,360.0,0.0,0.0
3401,92.0,29.0,240.0,7.0,0.0
3402,66.0,30.0,30.0,10.0,0.0
3403,75.0,0.0,30.0,8.0,0.0
3404,68.0,0.0,30.0,10.0,0.0
3405,61.0,0.0,15.0,5.0,0.0
3406,49.0,0.0,15.0,6.0,0.0
3407,77.0,0.0,15.0,8.0,0.0
3408,68.0,0.0,30.0,10.0,0.0
3409,49.0,30.0,15.0,11.0,0.0
3410,49.0,0.0,15.0,5.0,0.0
3411,77.0,0.0,15.0,8.0,0.0
3412,49.0,0.0,15.0,6.0,0.0
3413,49.0,30.0,15.0,11.0,0.0
3414,68.0,0.0,15.0,10.0,0.0
3415,77.0,30.0,15.0,8.0,0.0
3416,49.0,0.0,15.0,11.0,0.0
3417,73.0,0.0,30.0,8.0,0.0
3418,65.0,30.0,30.0,10.0,0.0
3419,49.0,0.0,15.0,5.0,0.0
3420,61.0,0.0,15.0,5.0,0.0
3421,49.0,30.0,15.0,6.0,0.0
3422,75.0,30.0,30.0,8.0,0.0
3423,66.0,0.0,30.0,10.0,0.0
3424,68.0,0.0,30.0,10.0,0.0
3425,61.0,0.0,15.0,5.0,0.0
3426,77.0,0.0,15.0,8.0,0.0
3427,75.0,0.0,30.0,4.0,0.0
3428,49.0,0.0,15.0,11.0,0.0
3429,49.0,0.0,15.0,6.0,0.0
3430,78.0,0.0,30.0,4.0,0.0
3431,90.0,0.0,30.0,7.0,0.0
3432,77.0,0.0,60.0,4.0,0.0
3433,77.0,0.0,30.0,8.0,0.0
3434,61.0,30.0,15.0,5.0,0.0
3435,68.0,0.0,15.0,10.0,0.0
3436,49.0,0.0,15.0,5.0,0.0
3437,49.0,0.0,60.0,6.0,0.0
3438,49.0,0.0,60.0,11.0,0.0
3439,68.0,0.0,30.0,10.0,0.0
3440,77.0,0.0,30.0,8.0,0.0
3441,49.0,0.0,15.0,5.0,0.0
3442,94.0,0.0,300.0,0.0,0.0
3443,90.0,0.0,300.0,0.0,0.0
3444,78.0,0.0,300.0,2.0,0.0
3445,82.0,0.0,300.0,1.0,0.0
3446,70.0,30.0,30.0,10.0,0.0
3447,78.0,0.0,30.0,8.0,0.0
3448,89.0,14.0,15.0,7.0,0.0
3449,82.0,0.0,300.0,2.0,0.0
3450,70.0,0.0,300.0,3.0,0.0
3451,78.0,0.0,300.0,1.0,0.0
3452,78.0,0.0,300.0,4.0,0.0
3453,73.0,1.0,15.0,4.0,0.0
3454,90.0,0.0,240.0,7.0,0.0
3455,71.0,30.0,30.0,10.0,0.0
3456,80.0,0.0,30.0,8.0,0.0
3457,73.0,0.0,30.0,10.0,0.0
3458,49.0,0.0,15.0,6.0,0.0
3459,82.0,0.0,15.0,8.0,0.0
3460,73.0,0.0,30.0,10.0,0.0
3461,49.0,0.0,15.0,11.0,0.0
3462,61.0,30.0,15.0,5.0,0.0
3463,49.0,0.0,15.0,5.0,0.0
3464,82.0,0.0,15.0,8.0,0.0
3465,73.0,0.0,30.0,10.0,0.0
3466,49.0,30.0,15.0,6.0,0.0
3467,73.0,0.0,30.0,10.0,0.0
3468,82.0,30.0,15.0,8.0,0.0
3469,70.0,0.0,30.0,8.0,0.0
3470,49.0,30.0,15.0,5.0,0.0
3471,49.0,0.0,15.0,11.0,0.0
3472,61.0,0.0,15.0,5.0,0.0
3473,66.0,30.0,30.0,10.0,0.0
3474,71.0,30.0,30.0,8.0,0.0
3475,68.0,0.0,30.0,10.0,0.0
3476,70.0,0.0,30.0,10.0,0.0
3477,61.0,0.0,15.0,5.0,0.0
3478,49.0,0.0,15.0,5.0,0.0
3479,73.0,30.0,15.0,8.0,0.0
3480,70.0,0.0,30.0,10.0,0.0
3481,49.0,0.0,30.0,11.0,0.0
3482,49.0,0.0,15.0,6.0,0.0
3483,82.0,0.0,30.0,7.0,0.0
3484,84.0,0.0,60.0,1.0,0.0
3485,84.0,0.0,60.0,7.0,0.0
3486,75.0,0.0,60.0,4.0,0.0
3487,63.0,0.0,60.0,3.0,0.0
3488,66.0,0.0,15.0,3.0,0.0
3489,68.0,0.0,60.0,4.0,0.0
3490,75.0,30.0,60.0,1.0,0.0
3491,49.0,0.0,60.0,6.0,0.0
3492,78.0,0.0,60.0,2.0,0.0
3493,96.0,0.0,60.0,0.0,0.0
3494,87.0,0.0,60.0,0.0,0.0
3495,49.0,30.0,15.0,5.0,0.0
3496,61.0,0.0,60.0,5.0,0.0
3497,75.0,0.0,60.0,2.0,0.0
3498,75.0,0.0,15.0,8.0,0.0
3499,66.0,30.0,15.0,10.0,0.0
3500,49.0,30.0,90.0,6.0,0.0
3501,49.0,0.0,15.0,11.0,0.0
3502,61.0,0.0,120.0,3.0,0.0
3503,73.0,0.0,30.0,8.0,0.0
3504,65.0,30.0,30.0,10.0,0.0
3505,73.0,0.0,120.0,4.0,0.0
3506,65.0,0.0,120.0,4.0,0.0
3507,85.0,0.0,120.0,7.0,0.0
3508,75.0,30.0,30.0,8.0,0.0
3509,66.0,0.0,30.0,10.0,0.0
3510,68.0,0.0,30.0,10.0,0.0
3511,77.0,0.0,30.0,8.0,0.0
3512,61.0,0.0,15.0,5.0,0.0
3513,49.0,0.0,15.0,5.0,0.0
3514,49.0,0.0,15.0,11.0,0.0
3515,68.0,0.0,30.0,10.0,0.0
3516,49.0,0.0,15.0,6.0,0.0
3517,77.0,0.0,15.0,2.0,0.0
3518,65.0,0.0,15.0,3.0,0.0
3519,73.0,0.0,15.0,2.0,0.0
3520,65.0,0.0,60.0,4.0,0.0
3521,53.0,0.0,60.0,11.0,0.0
3522,85.0,0.0,15.0,1.0,0.0
3523,77.0,0.0,15.0,1.0,0.0
3524,77.0,0.0,15.0,8.0,0.0
3525,85.0,0.0,60.0,7.0,0.0
3526,97.0,0.0,15.0,0.0,0.0
3527,89.0,0.0,15.0,0.0,0.0
3528,61.0,0.0,60.0,5.0,0.0
3529,73.0,0.0,60.0,4.0,0.0
3530,49.0,0.0,60.0,5.0,0.0
3531,77.0,30.0,15.0,8.0,0.0
3532,68.0,0.0,15.0,10.0,0.0
3533,61.0,0.0,15.0,3.0,0.0
3534,77.0,0.0,60.0,1.0,0.0
3535,85.0,0.0,60.0,1.0,0.0
3536,65.0,0.0,60.0,4.0,0.0
3537,73.0,30.0,30.0,8.0,0.0
3538,65.0,0.0,120.0,3.0,0.0
3539,73.0,0.0,60.0,4.0,0.0
3540,97.0,0.0,15.0,0.0,0.0
3541,89.0,0.0,60.0,0.0,0.0
3542,77.0,30.0,15.0,2.0,0.0
3543,65.0,0.0,30.0,10.0,0.0
3544,85.0,0.0,60.0,7.0,0.0
3545,56.0,0.0,90.0,6.0,0.0
3546,73.0,0.0,60.0,2.0,0.0
3547,75.0,30.0,30.0,8.0,0.0
3548,66.0,0.0,30.0,10.0,0.0
3549,89.0,0.0,60.0,7.0,0.0
3550,80.0,0.0,60.0,2.0,0.0
3551,77.0,0.0,60.0,2.0,0.0
3552,85.0,0.0,60.0,0.0,0.0
3553,68.0,0.0,30.0,10.0,0.0
3554,73.0,0.0,60.0,4.0,0.0
3555,77.0,0.0,60.0,4.0,0.0
3556,89.0,0.0,60.0,1.0,0.0
3557,80.0,0.0,60.0,1.0,0.0
3558,77.0,0.0,30.0,8.0,0.0
3559,68.0,0.0,15.0,5.0,0.0
3560,56.0,30.0,15.0,11.0,0.0
3561,77.0,0.0,30.0,8.0,0.0
3562,68.0,30.0,30.0,10.0,0.0
3563,75.0,0.0,60.0,4.0,0.0
3564,68.0,0.0,60.0,4.0,0.0
3565,75.0,0.0,60.0,2.0,0.0
3566,68.0,0.0,15.0,5.0,0.0
3567,56.0,0.0,15.0,6.0,0.0
3568,87.0,0.0,60.0,7.0,0.0
3569,78.0,0.0,60.0,1.0,0.0
3570,87.0,0.0,60.0,1.0,0.0
3571,44.0,0.0,60.0,11.0,0.0
3572,60.0,0.0,60.0,3.0,0.0
3573,66.0,0.0,60.0,3.0,0.0
3574,78.0,0.0,60.0,2.0,0.0
3575,87.0,0.0,60.0,0.0,0.0
3576,96.0,0.0,60.0,0.0,0.0
3577,66.0,0.0,30.0,10.0,0.0
3578,66.0,0.0,30.0,10.0,0.0
3579,75.0,30.0,15.0,8.0,0.0
3580,65.0,0.0,30.0,10.0,0.0
3581,85.0,0.0,120.0,7.0,0.0
3582,85.0,0.0,120.0,1.0,0.0
3583,73.0,30.0,30.0,8.0,0.0
3584,73.0,0.0,120.0,4.0,0.0
3585,65.0,0.0,120.0,4.0,0.0
3586,49.0,0.0,90.0,6.0,0.0
3587,77.0,0.0,120.0,1.0,0.0
3588,73.0,0.0,120.0,2.0,0.0
3589,77.0,30.0,120.0,2.0,0.0
3590,61.0,0.0,120.0,3.0,0.0
3591,65.0,0.0,120.0,3.0,0.0
3592,89.0,0.0,120.0,0.0,0.0
3593,61.0,0.0,90.0,5.0,0.0
3594,75.0,0.0,30.0,8.0,0.0
3595,66.0,30.0,30.0,10.0,0.0
3596,77.0,0.0,30.0,8.0,0.0
3597,68.0,0.0,30.0,10.0,0.0
3598,65.0,0.0,30.0,8.0,0.0
3599,49.0,0.0,15.0,11.0,0.0
3600,61.0,0.0,30.0,10.0,0.0
3601,49.0,30.0,15.0,5.0,0.0
3602,49.0,0.0,30.0,6.0,0.0
3603,61.0,0.0,15.0,5.0,0.0
3604,49.0,0.0,15.0,5.0,0.0
3605,49.0,0.0,60.0,11.0,0.0
3606,66.0,0.0,30.0,8.0,0.0
3607,97.0,0.0,15.0,0.0,0.0
3608,63.0,30.0,30.0,10.0,0.0
3609,68.0,0.0,30.0,8.0,0.0
3610,65.0,0.0,30.0,10.0,0.0
3611,61.0,0.0,15.0,5.0,0.0
3612,73.0,0.0,15.0,1.0,0.0
3613,85.0,0.0,15.0,0.0,0.0
3614,97.0,0.0,90.0,0.0,0.0
3615,85.0,0.0,15.0,1.0,0.0
3616,49.0,30.0,15.0,6.0,0.0
3617,49.0,0.0,90.0,5.0,0.0
3618,66.0,0.0,15.0,10.0,0.0
3619,70.0,30.0,15.0,8.0,0.0
3620,66.0,30.0,15.0,10.0,0.0
3621,85.0,0.0,30.0,0.0,0.0
3622,49.0,30.0,15.0,11.0,0.0
3623,73.0,0.0,15.0,1.0,0.0
3624,85.0,0.0,15.0,1.0,0.0
3625,70.0,0.0,15.0,8.0,0.0
3626,49.0,0.0,30.0,6.0,0.0
3627,73.0,0.0,60.0,4.0,0.0
3628,73.0,0.0,60.0,2.0,0.0
3629,49.0,0.0,15.0,5.0,0.0
3630,73.0,0.0,15.0,1.0,0.0
3631,61.0,0.0,15.0,5.0,0.0
3632,85.0,0.0,60.0,1.0,0.0
3633,97.0,0.0,15.0,0.0,0.0
3634,66.0,0.0,15.0,10.0,0.0
3635,49.0,0.0,60.0,6.0,0.0
3636,49.0,0.0,60.0,11.0,0.0
3637,61.0,0.0,60.0,3.0,0.0
3638,70.0,0.0,15.0,8.0,0.0
3639,66.0,30.0,15.0,10.0,0.0
3640,66.0,0.0,15.0,10.0,0.0
3641,61.0,0.0,15.0,4.0,0.0
3642,97.0,0.0,15.0,0.0,0.0
3643,85.0,0.0,15.0,0.0,0.0
3644,49.0,0.0,120.0,6.0,0.0
3645,73.0,0.0,120.0,4.0,0.0
3646,85.0,0.0,15.0,7.0,0.0
3647,49.0,0.0,120.0,11.0,0.0
3648,61.0,0.0,15.0,5.0,0.0
3649,70.0,30.0,30.0,8.0,0.0
3650,49.0,30.0,15.0,5.0,0.0
3651,68.0,0.0,30.0,10.0,0.0
3652,71.0,30.0,30.0,8.0,0.0
3653,70.0,0.0,15.0,10.0,0.0
3654,73.0,30.0,15.0,8.0,0.0
3655,70.0,0.0,15.0,10.0,0.0
3656,61.0,0.0,15.0,4.0,0.0
3657,73.0,0.0,15.0,2.0,0.0
3658,61.0,0.0,15.0,3.0,0.0
3659,73.0,30.0,15.0,8.0,0.0
3660,70.0,0.0,30.0,10.0,0.0
3661,58.0,30.0,30.0,10.0,0.0
3662,66.0,0.0,30.0,8.0,0.0
3663,73.0,0.0,15.0,4.0,0.0
3664,85.0,0.0,15.0,7.0,0.0
3665,61.0,0.0,15.0,4.0,0.0
3666,61.0,0.0,90.0,3.0,0.0
3667,73.0,30.0,15.0,2.0,0.0
3668,61.0,30.0,30.0,10.0,0.0
3669,68.0,0.0,30.0,8.0,0.0
3670,70.0,0.0,30.0,8.0,0.0
3671,90.0,30.0,30.0,7.0,0.0
3672,66.0,0.0,15.0,10.0,0.0
3673,66.0,0.0,30.0,3.0,0.0
3674,70.0,0.0,30.0,8.0,0.0
3675,73.0,0.0,15.0,4.0,0.0
3676,78.0,0.0,30.0,2.0,0.0
3677,61.0,0.0,15.0,4.0,0.0
3678,49.0,0.0,60.0,11.0,0.0
3679,70.0,0.0,30.0,8.0,0.0
3680,94.0,30.0,60.0,7.0,0.0
3681,70.0,0.0,30.0,8.0,0.0
3682,66.0,30.0,15.0,10.0,0.0
3683,73.0,0.0,15.0,4.0,0.0
3684,61.0,0.0,15.0,4.0,0.0
3685,70.0,0.0,15.0,3.0,0.0
3686,49.0,0.0,120.0,11.0,0.0
3687,82.0,0.0,15.0,2.0,0.0
3688,49.0,0.0,90.0,6.0,0.0
3689,65.0,30.0,30.0,8.0,0.0
3690,61.0,0.0,30.0,10.0,0.0
3691,94.0,0.0,60.0,7.0,0.0
3692,66.0,30.0,30.0,8.0,0.0
3693,63.0,0.0,30.0,10.0,0.0
3694,65.0,0.0,30.0,10.0,0.0
3695,68.0,0.0,60.0,4.0,0.0
3696,92.0,0.0,60.0,7.0,0.0
3697,80.0,30.0,60.0,4.0,0.0
3698,80.0,0.0,60.0,2.0,0.0
3699,68.0,0.0,60.0,3.0,0.0
3700,68.0,0.0,30.0,8.0,0.0
3701,85.0,0.0,15.0,1.0,0.0
3702,73.0,0.0,15.0,1.0,0.0
3703,49.0,0.0,30.0,6.0,0.0
3704,85.0,0.0,30.0,0.0,0.0
3705,61.0,30.0,15.0,5.0,0.0
3706,49.0,0.0,15.0,5.0,0.0
3707,77.0,0.0,60.0,2.0,0.0
3708,49.0,0.0,60.0,11.0,0.0
3709,85.0,0.0,60.0,0.0,0.0
3710,97.0,0.0,15.0,0.0,0.0
3711,65.0,0.0,15.0,10.0,0.0
3712,85.0,0.0,15.0,1.0,0.0
3713,73.0,0.0,15.0,1.0,0.0
3714,68.0,0.0,15.0,8.0,0.0
3715,65.0,30.0,60.0,4.0,0.0
3716,89.0,0.0,60.0,7.0,0.0
3717,77.0,0.0,60.0,4.0,0.0
3718,65.0,0.0,60.0,3.0,0.0
3719,65.0,30.0,15.0,10.0,0.0
3720,68.0,0.0,30.0,8.0,0.0
3721,49.0,0.0,15.0,6.0,0.0
3722,61.0,0.0,120.0,4.0,0.0
3723,73.0,30.0,30.0,8.0,0.0
3724,73.0,0.0,15.0,1.0,0.0
3725,65.0,0.0,30.0,10.0,0.0
3726,73.0,0.0,120.0,2.0,0.0
3727,85.0,0.0,90.0,0.0,0.0
3728,85.0,0.0,120.0,7.0,0.0
3729,61.0,0.0,15.0,5.0,0.0
3730,49.0,0.0,15.0,5.0,0.0
3731,49.0,30.0,90.0,11.0,0.0
3732,66.0,0.0,30.0,10.0,0.0
3733,75.0,30.0,30.0,8.0,0.0
3734,77.0,0.0,30.0,8.0,0.0
3735,68.0,0.0,15.0,10.0,0.0
3736,85.0,0.0,15.0,1.0,0.0
3737,97.0,0.0,15.0,0.0,0.0
3738,49.0,0.0,30.0,5.0,0.0
3739,61.0,0.0,15.0,5.0,0.0
3740,53.0,0.0,30.0,11.0,0.0
3741,73.0,0.0,15.0,4.0,0.0
3742,61.0,0.0,60.0,4.0,0.0
3743,68.0,30.0,30.0,10.0,0.0
3744,61.0,0.0,15.0,5.0,0.0
3745,56.0,0.0,60.0,11.0,0.0
3746,61.0,0.0,15.0,3.0,0.0
3747,85.0,0.0,60.0,7.0,0.0
3748,85.0,0.0,15.0,0.0,0.0
3749,97.0,0.0,60.0,0.0,0.0
3750,49.0,0.0,15.0,6.0,0.0
3751,77.0,0.0,15.0,8.0,0.0
3752,73.0,0.0,15.0,1.0,0.0
3753,85.0,30.0,15.0,1.0,0.0
3754,73.0,0.0,60.0,2.0,0.0
3755,68.0,0.0,30.0,10.0,0.0
3756,77.0,0.0,30.0,8.0,0.0
3757,61.0,0.0,15.0,5.0,0.0
3758,49.0,0.0,15.0,5.0,0.0
3759,73.0,0.0,15.0,4.0,0.0
3760,66.0,0.0,30.0,10.0,0.0
3761,61.0,0.0,15.0,3.0,0.0
3762,59.0,0.0,60.0,11.0,0.0
3763,85.0,0.0,90.0,7.0,0.0
3764,73.0,30.0,30.0,8.0,0.0
3765,85.0,0.0,15.0,1.0,0.0
3766,73.0,0.0,15.0,1.0,0.0
3767,61.0,0.0,90.0,4.0,0.0
3768,73.0,0.0,90.0,2.0,0.0
3769,49.0,0.0,120.0,6.0,0.0
3770,68.0,0.0,30.0,10.0,0.0
3771,77.0,30.0,30.0,8.0,0.0
3772,58.0,0.0,60.0,11.0,0.0
3773,70.0,0.0,30.0,10.0,0.0
3774,66.0,30.0,30.0,3.0,0.0
3775,78.0,30.0,15.0,8.0,0.0
3776,90.0,0.0,30.0,7.0,0.0
3777,78.0,0.0,30.0,2.0,0.0
3778,54.0,30.0,60.0,11.0,0.0
3779,73.0,0.0,15.0,4.0,0.0
3780,61.0,0.0,15.0,4.0,0.0
3781,70.0,0.0,15.0,10.0,0.0
3782,78.0,0.0,15.0,8.0,0.0
3783,61.0,0.0,60.0,3.0,0.0
3784,85.0,0.0,60.0,7.0,0.0
3785,70.0,0.0,30.0,10.0,0.0
3786,78.0,30.0,15.0,8.0,0.0
3787,61.0,0.0,90.0,3.0,0.0
3788,73.0,0.0,15.0,2.0,0.0
3789,73.0,0.0,15.0,4.0,0.0
3790,85.0,30.0,90.0,7.0,0.0
3791,70.0,30.0,30.0,8.0,0.0
3792,66.0,0.0,30.0,10.0,0.0
3793,68.0,30.0,30.0,10.0,0.0
3794,71.0,0.0,30.0,8.0,0.0
3795,70.0,0.0,30.0,10.0,0.0
3796,73.0,0.0,30.0,8.0,0.0
3797,78.0,0.0,30.0,2.0,0.0
3798,66.0,0.0,30.0,3.0,0.0
3799,61.0,0.0,15.0,4.0,0.0
3800,90.0,0.0,30.0,7.0,0.0
3801,73.0,0.0,30.0,4.0,0.0
3802,82.0,0.0,60.0,2.0,0.0
3803,70.0,0.0,15.0,10.0,0.0
3804,49.0,30.0,15.0,11.0,0.0
3805,73.0,0.0,15.0,8.0,0.0
3806,73.0,0.0,60.0,4.0,0.0
3807,61.0,0.0,60.0,4.0,0.0
3808,73.0,0.0,15.0,8.0,0.0
3809,70.0,0.0,30.0,10.0,0.0
3810,61.0,30.0,30.0,10.0,0.0
3811,73.0,0.0,60.0,4.0,0.0
3812,61.0,0.0,60.0,4.0,0.0
3813,82.0,0.0,60.0,2.0,0.0
3814,94.0,30.0,15.0,7.0,0.0
3815,49.0,0.0,90.0,6.0,0.0
3816,65.0,0.0,30.0,8.0,0.0
3817,49.0,30.0,90.0,5.0,0.0
3818,49.0,0.0,15.0,11.0,0.0
3819,70.0,0.0,15.0,3.0,0.0
3820,66.0,0.0,30.0,8.0,0.0
3821,63.0,0.0,30.0,10.0,0.0
3822,68.0,0.0,30.0,8.0,0.0
3823,80.0,0.0,60.0,4.0,0.0
3824,68.0,0.0,60.0,4.0,0.0
3825,92.0,0.0,60.0,7.0,0.0
3826,68.0,0.0,60.0,3.0,0.0
3827,80.0,0.0,60.0,2.0,0.0
3828,97.0,0.0,15.0,0.0,0.0
3829,85.0,0.0,15.0,0.0,0.0
3830,85.0,0.0,15.0,1.0,0.0
3831,61.0,0.0,15.0,5.0,0.0
3832,65.0,0.0,15.0,10.0,0.0
3833,68.0,30.0,15.0,8.0,0.0
3834,77.0,0.0,60.0,2.0,0.0
3835,61.0,0.0,15.0,5.0,0.0
3836,73.0,0.0,15.0,1.0,0.0
3837,49.0,0.0,15.0,5.0,0.0
3838,89.0,0.0,60.0,7.0,0.0
3839,65.0,0.0,60.0,4.0,0.0
3840,77.0,0.0,60.0,4.0,0.0
3841,49.0,0.0,15.0,11.0,0.0
3842,65.0,0.0,60.0,3.0,0.0
3843,85.0,0.0,60.0,1.0,0.0
3844,85.0,0.0,60.0,0.0,0.0
3845,68.0,0.0,15.0,8.0,0.0
3846,65.0,30.0,15.0,10.0,0.0
3847,73.0,0.0,120.0,2.0,0.0
3848,61.0,30.0,60.0,4.0,0.0
3849,73.0,0.0,60.0,4.0,0.0
3850,49.0,0.0,15.0,11.0,0.0
3851,61.0,0.0,15.0,5.0,0.0
3852,49.0,0.0,15.0,5.0,0.0
3853,85.0,0.0,120.0,7.0,0.0
3854,61.0,0.0,120.0,3.0,0.0
3855,85.0,0.0,120.0,0.0,0.0
3856,97.0,0.0,15.0,0.0,0.0
3857,65.0,30.0,30.0,8.0,0.0
3858,73.0,0.0,120.0,1.0,0.0
3859,85.0,0.0,120.0,1.0,0.0
3860,61.0,0.0,30.0,10.0,0.0
3861,49.0,30.0,120.0,6.0,0.0
3862,63.0,0.0,30.0,10.0,0.0
3863,66.0,0.0,30.0,8.0,0.0
3864,68.0,0.0,30.0,8.0,0.0
3865,65.0,30.0,30.0,10.0,0.0
3866,56.0,0.0,60.0,4.0,0.0
3867,68.0,0.0,60.0,4.0,0.0
3868,68.0,0.0,30.0,8.0,0.0
3869,53.0,0.0,30.0,11.0,0.0
3870,56.0,0.0,60.0,11.0,0.0
3871,49.0,0.0,60.0,4.0,0.0
3872,68.0,0.0,30.0,8.0,0.0
3873,65.0,0.0,15.0,10.0,0.0
3874,80.0,30.0,60.0,7.0,0.0
3875,68.0,0.0,30.0,8.0,0.0
3876,65.0,0.0,30.0,10.0,0.0
3877,37.0,0.0,15.0,4.0,0.0
3878,65.0,30.0,30.0,8.0,0.0
3879,61.0,0.0,60.0,11.0,0.0
3880,61.0,0.0,30.0,10.0,0.0
3881,82.0,0.0,60.0,7.0,0.0
3882,68.0,0.0,15.0,2.0,0.0
3883,65.0,0.0,15.0,2.0,0.0
3884,49.0,1.0,2880.0,4.0,0.0
3885,66.0,0.0,30.0,8.0,0.0
3886,63.0,30.0,30.0,10.0,0.0
3887,65.0,30.0,60.0,11.0,0.0
3888,80.0,0.0,60.0,7.0,0.0
3889,65.0,0.0,30.0,10.0,0.0
3890,68.0,30.0,30.0,8.0,0.0
3891,65.0,0.0,30.0,10.0,0.0
3892,68.0,0.0,30.0,8.0,0.0
3893,68.0,0.0,60.0,11.0,0.0
3894,92.0,0.0,60.0,0.0,0.0
3895,77.0,0.0,60.0,7.0,0.0
3896,68.0,0.0,60.0,3.0,0.0
3897,80.0,0.0,60.0,1.0,0.0
3898,65.0,0.0,30.0,10.0,0.0
3899,68.0,30.0,15.0,8.0,0.0
3900,65.0,0.0,30.0,10.0,0.0
3901,68.0,0.0,15.0,8.0,0.0
3902,94.0,30.0,60.0,0.0,0.0
3903,70.0,0.0,60.0,3.0,0.0
3904,61.0,0.0,15.0,5.0,0.0
3905,82.0,0.0,60.0,1.0,0.0
3906,49.0,0.0,15.0,5.0,0.0
3907,73.0,0.0,120.0,7.0,0.0
3908,49.0,0.0,90.0,11.0,0.0
3909,49.0,30.0,15.0,6.0,0.0
3910,68.0,0.0,30.0,8.0,0.0
3911,65.0,30.0,15.0,10.0,0.0
3912,68.0,0.0,60.0,3.0,0.0
3913,65.0,0.0,15.0,10.0,0.0
3914,92.0,30.0,60.0,0.0,0.0
3915,80.0,0.0,60.0,1.0,0.0
3916,68.0,0.0,30.0,8.0,0.0
3917,53.0,0.0,30.0,11.0,0.0
3918,65.0,0.0,30.0,10.0,0.0
3919,56.0,30.0,60.0,11.0,0.0
3920,68.0,0.0,15.0,8.0,0.0
3921,77.0,0.0,60.0,1.0,0.0
3922,65.0,0.0,30.0,10.0,0.0
3923,80.0,0.0,60.0,7.0,0.0
3924,65.0,0.0,60.0,3.0,0.0
3925,89.0,0.0,60.0,0.0,0.0
3926,65.0,0.0,30.0,10.0,0.0
3927,68.0,30.0,15.0,8.0,0.0
3928,66.0,0.0,360.0,2.0,0.0
3929,70.0,30.0,30.0,8.0,0.0
3930,66.0,0.0,30.0,10.0,0.0
3931,83.0,0.0,60.0,7.0,0.0
3932,70.0,0.0,360.0,2.0,0.0
3933,61.0,30.0,60.0,11.0,0.0
3934,68.0,0.0,30.0,10.0,0.0
3935,71.0,0.0,30.0,8.0,0.0
3936,66.0,0.0,60.0,11.0,0.0
3937,73.0,0.0,30.0,8.0,0.0
3938,82.0,30.0,60.0,7.0,0.0
3939,70.0,30.0,15.0,10.0,0.0
3940,73.0,0.0,30.0,8.0,0.0
3941,94.0,0.0,60.0,0.0,0.0
3942,70.0,0.0,30.0,10.0,0.0
3943,82.0,0.0,60.0,1.0,0.0
3944,78.0,30.0,60.0,7.0,0.0
3945,70.0,0.0,60.0,11.0,0.0
3946,70.0,0.0,60.0,3.0,0.0
3947,73.0,30.0,15.0,8.0,0.0
3948,70.0,0.0,30.0,10.0,0.0
3949,49.0,0.0,30.0,5.0,0.0
3950,49.0,0.0,30.0,6.0,0.0
3951,71.0,30.0,60.0,3.0,0.0
3952,49.0,0.0,120.0,5.0,0.0
3953,61.0,0.0,15.0,5.0,0.0
3954,49.0,0.0,90.0,11.0,0.0
3955,49.0,0.0,120.0,6.0,0.0
3956,73.0,0.0,15.0,8.0,0.0
3957,95.0,0.0,60.0,0.0,0.0
3958,70.0,30.0,30.0,10.0,0.0
3959,83.0,0.0,60.0,1.0,0.0
3960,73.0,0.0,120.0,7.0,0.0
3961,73.0,0.0,15.0,8.0,0.0
3962,70.0,0.0,30.0,10.0,0.0
3963,70.0,0.0,60.0,3.0,0.0
3964,82.0,0.0,60.0,1.0,0.0
3965,94.0,0.0,60.0,0.0,0.0
3966,70.0,0.0,30.0,10.0,0.0
3967,73.0,30.0,15.0,8.0,0.0
3968,54.0,30.0,30.0,11.0,0.0
3969,82.0,30.0,60.0,7.0,0.0
3970,70.0,0.0,15.0,10.0,0.0
3971,66.0,0.0,60.0,3.0,0.0
3972,73.0,0.0,15.0,8.0,0.0
3973,90.0,0.0,60.0,0.0,0.0
3974,78.0,0.0,60.0,1.0,0.0
3975,58.0,0.0,60.0,11.0,0.0
3976,73.0,0.0,15.0,8.0,0.0
3977,70.0,0.0,30.0,10.0,0.0
3978,72.0,30.0,30.0,8.0,0.0
3979,72.0,0.0,360.0,2.0,0.0
3980,63.0,0.0,30.0,10.0,0.0
3981,85.0,0.0,60.0,7.0,0.0
3982,63.0,0.0,360.0,2.0,0.0
3983,61.0,30.0,60.0,11.0,0.0
3984,65.0,0.0,30.0,10.0,0.0
3985,73.0,0.0,30.0,8.0,0.0
3986,72.0,0.0,30.0,8.0,0.0
3987,84.0,30.0,60.0,7.0,0.0
3988,63.0,30.0,30.0,10.0,0.0
3989,63.0,0.0,60.0,11.0,0.0
3990,66.0,0.0,30.0,10.0,0.0
3991,75.0,0.0,15.0,8.0,0.0
3992,66.0,0.0,60.0,3.0,0.0
3993,66.0,0.0,30.0,10.0,0.0
3994,78.0,0.0,60.0,1.0,0.0
3995,66.0,0.0,60.0,11.0,0.0
3996,78.0,0.0,60.0,7.0,0.0
3997,90.0,30.0,60.0,0.0,0.0
3998,75.0,0.0,30.0,8.0,0.0
3999,49.0,30.0,90.0,11.0,0.0
4000,80.0,0.0,60.0,1.0,0.0
4001,68.0,0.0,60.0,3.0,0.0
4002,75.0,0.0,120.0,7.0,0.0
4003,66.0,0.0,15.0,10.0,0.0
4004,92.0,0.0,60.0,0.0,0.0
4005,75.0,0.0,15.0,8.0,0.0
4006,66.0,30.0,15.0,10.0,0.0
4007,49.0,0.0,30.0,6.0,0.0
4008,90.0,0.0,60.0,0.0,0.0
4009,75.0,0.0,15.0,8.0,0.0
4010,66.0,30.0,60.0,3.0,0.0
4011,78.0,0.0,60.0,1.0,0.0
4012,61.0,0.0,15.0,5.0,0.0
4013,66.0,0.0,30.0,10.0,0.0
4014,49.0,0.0,120.0,6.0,0.0
4015,51.0,0.0,30.0,11.0,0.0
4016,66.0,0.0,30.0,10.0,0.0
4017,87.0,0.0,60.0,0.0,0.0
4018,75.0,0.0,15.0,8.0,0.0
4019,54.0,0.0,60.0,11.0,0.0
4020,84.0,30.0,60.0,7.0,0.0
4021,63.0,0.0,60.0,3.0,0.0
4022,75.0,0.0,60.0,1.0,0.0
4023,75.0,0.0,15.0,8.0,0.0
4024,66.0,30.0,15.0,10.0,0.0
4025,65.0,0.0,30.0,10.0,0.0
4026,61.0,0.0,60.0,11.0,0.0
4027,73.0,0.0,360.0,2.0,0.0
4028,65.0,0.0,360.0,2.0,0.0
4029,73.0,30.0,30.0,8.0,0.0
4030,87.0,30.0,60.0,7.0,0.0
4031,75.0,0.0,30.0,8.0,0.0
4032,66.0,0.0,30.0,10.0,0.0
4033,85.0,30.0,60.0,7.0,0.0
4034,65.0,30.0,30.0,10.0,0.0
4035,65.0,0.0,60.0,11.0,0.0
4036,73.0,0.0,30.0,8.0,0.0
4037,68.0,0.0,60.0,3.0,0.0
4038,92.0,30.0,60.0,0.0,0.0
4039,80.0,0.0,60.0,7.0,0.0
4040,68.0,0.0,60.0,11.0,0.0
4041,77.0,0.0,15.0,8.0,0.0
4042,68.0,0.0,15.0,10.0,0.0
4043,80.0,0.0,60.0,1.0,0.0
4044,68.0,30.0,15.0,10.0,0.0
4045,70.0,0.0,60.0,3.0,0.0
4046,82.0,0.0,60.0,1.0,0.0
4047,77.0,0.0,15.0,8.0,0.0
4048,68.0,0.0,15.0,10.0,0.0
4049,49.0,0.0,90.0,11.0,0.0
4050,77.0,0.0,120.0,7.0,0.0
4051,94.0,30.0,60.0,0.0,0.0
4052,77.0,30.0,15.0,8.0,0.0
4053,61.0,0.0,30.0,5.0,0.0
4054,49.0,0.0,30.0,5.0,0.0
4055,68.0,0.0,30.0,10.0,0.0
4056,68.0,0.0,30.0,10.0,0.0
4057,77.0,0.0,15.0,8.0,0.0
4058,68.0,0.0,60.0,3.0,0.0
4059,80.0,0.0,60.0,1.0,0.0
4060,49.0,30.0,120.0,5.0,0.0
4061,49.0,0.0,15.0,6.0,0.0
4062,92.0,0.0,60.0,0.0,0.0
4063,61.0,0.0,120.0,5.0,0.0
4064,53.0,30.0,30.0,11.0,0.0
4065,77.0,30.0,15.0,8.0,0.0
4066,77.0,0.0,15.0,8.0,0.0
4067,89.0,0.0,60.0,0.0,0.0
4068,65.0,0.0,60.0,3.0,0.0
4069,68.0,0.0,15.0,10.0,0.0
4070,77.0,0.0,60.0,1.0,0.0
4071,80.0,0.0,60.0,7.0,0.0
4072,56.0,0.0,60.0,11.0,0.0
4073,68.0,0.0,30.0,10.0,0.0
4074,77.0,30.0,15.0,8.0,0.0
4075,65.0,30.0,30.0,10.0,0.0
4076,73.0,0.0,30.0,8.0,0.0
4077,77.0,0.0,360.0,2.0,0.0
4078,68.0,0.0,360.0,2.0,0.0
4079,82.0,0.0,60.0,7.0,0.0
4080,61.0,0.0,60.0,11.0,0.0
4081,75.0,30.0,30.0,8.0,0.0
4082,66.0,0.0,30.0,10.0,0.0
4083,80.0,30.0,60.0,7.0,0.0
4084,65.0,0.0,60.0,11.0,0.0
4085,73.0,30.0,30.0,8.0,0.0
4086,65.0,0.0,30.0,10.0,0.0
4087,77.0,0.0,15.0,8.0,0.0
4088,92.0,0.0,60.0,0.0,0.0
4089,68.0,0.0,60.0,11.0,0.0
4090,77.0,0.0,60.0,7.0,0.0
4091,68.0,30.0,60.0,3.0,0.0
4092,68.0,0.0,15.0,10.0,0.0
4093,80.0,0.0,60.0,1.0,0.0
4094,61.0,0.0,30.0,5.0,0.0
4095,49.0,0.0,30.0,6.0,0.0
4096,49.0,0.0,30.0,5.0,0.0
4097,77.0,0.0,15.0,8.0,0.0
4098,94.0,0.0,60.0,0.0,0.0
4099,82.0,0.0,60.0,1.0,0.0
4100,49.0,0.0,120.0,6.0,0.0
4101,82.0,0.0,60.0,7.0,0.0
4102,68.0,0.0,15.0,10.0,0.0
4103,49.0,0.0,60.0,11.0,0.0
4104,77.0,0.0,15.0,8.0,0.0
4105,49.0,0.0,120.0,5.0,0.0
4106,61.0,0.0,120.0,5.0,0.0
4107,70.0,0.0,60.0,3.0,0.0
4108,68.0,30.0,15.0,10.0,0.0
4109,68.0,0.0,60.0,3.0,0.0
4110,92.0,30.0,60.0,0.0,0.0
4111,68.0,0.0,30.0,10.0,0.0
4112,77.0,30.0,15.0,8.0,0.0
4113,80.0,0.0,60.0,1.0,0.0
4114,80.0,0.0,60.0,7.0,0.0
4115,53.0,0.0,60.0,11.0,0.0
4116,77.0,0.0,60.0,1.0,0.0
4117,68.0,0.0,15.0,10.0,0.0
4118,77.0,0.0,60.0,7.0,0.0
4119,56.0,0.0,60.0,11.0,0.0
4120,77.0,0.0,15.0,8.0,0.0
4121,65.0,0.0,60.0,3.0,0.0
4122,89.0,0.0,60.0,0.0,0.0
4123,68.0,0.0,15.0,10.0,0.0
4124,77.0,0.0,30.0,8.0,0.0
4125,61.0,0.0,60.0,11.0,0.0
4126,71.0,30.0,60.0,3.0,0.0
4127,83.0,0.0,60.0,1.0,0.0
4128,78.0,30.0,30.0,8.0,0.0
4129,83.0,0.0,60.0,7.0,0.0
4130,49.0,0.0,15.0,6.0,0.0
4131,95.0,0.0,60.0,0.0,0.0
4132,70.0,0.0,30.0,10.0,0.0
4133,70.0,0.0,360.0,2.0,0.0
4134,61.0,30.0,15.0,5.0,0.0
4135,49.0,0.0,15.0,5.0,0.0
4136,78.0,0.0,360.0,2.0,0.0
4137,71.0,0.0,30.0,10.0,0.0
4138,80.0,0.0,30.0,8.0,0.0
4139,82.0,0.0,60.0,1.0,0.0
4140,82.0,0.0,60.0,7.0,0.0
4141,73.0,0.0,30.0,10.0,0.0
4142,94.0,0.0,60.0,0.0,0.0
4143,66.0,0.0,60.0,11.0,0.0
4144,70.0,0.0,60.0,3.0,0.0
4145,73.0,0.0,30.0,10.0,0.0
4146,82.0,30.0,15.0,8.0,0.0
4147,66.0,0.0,60.0,3.0,0.0
4148,78.0,0.0,60.0,7.0,0.0
4149,78.0,0.0,60.0,1.0,0.0
4150,90.0,0.0,60.0,0.0,0.0
4151,73.0,30.0,30.0,10.0,0.0
4152,82.0,30.0,15.0,8.0,0.0
4153,70.0,0.0,60.0,11.0,0.0
4154,49.0,0.0,30.0,6.0,0.0
4155,83.0,0.0,60.0,7.0,0.0
4156,95.0,0.0,60.0,0.0,0.0
4157,83.0,0.0,60.0,1.0,0.0
4158,49.0,0.0,120.0,6.0,0.0
4159,73.0,30.0,15.0,10.0,0.0
4160,61.0,0.0,15.0,5.0,0.0
4161,49.0,0.0,15.0,5.0,0.0
4162,71.0,30.0,60.0,3.0,0.0
4163,82.0,0.0,15.0,8.0,0.0
4164,49.0,0.0,60.0,11.0,0.0
4165,82.0,0.0,15.0,8.0,0.0
4166,73.0,0.0,30.0,10.0,0.0
4167,82.0,0.0,60.0,1.0,0.0
4168,73.0,0.0,30.0,10.0,0.0
4169,94.0,0.0,60.0,0.0,0.0
4170,70.0,0.0,60.0,3.0,0.0
4171,82.0,0.0,60.0,7.0,0.0
4172,54.0,0.0,60.0,11.0,0.0
4173,82.0,30.0,15.0,8.0,0.0
4174,90.0,0.0,60.0,0.0,0.0
4175,78.0,0.0,60.0,7.0,0.0
4176,73.0,0.0,15.0,10.0,0.0
4177,78.0,0.0,60.0,1.0,0.0
4178,82.0,30.0,15.0,8.0,0.0
4179,58.0,0.0,60.0,11.0,0.0
4180,66.0,0.0,60.0,3.0,0.0
4181,73.0,0.0,30.0,10.0,0.0
4182,82.0,30.0,15.0,8.0,0.0
4183,75.0,30.0,30.0,8.0,0.0
4184,72.0,0.0,360.0,2.0,0.0
4185,85.0,0.0,60.0,7.0,0.0
4186,72.0,0.0,30.0,10.0,0.0
4187,85.0,0.0,60.0,1.0,0.0
4188,49.0,30.0,15.0,5.0,0.0
4189,75.0,0.0,360.0,2.0,0.0
4190,61.0,0.0,15.0,5.0,0.0
4191,49.0,0.0,15.0,6.0,0.0
4192,65.0,0.0,60.0,3.0,0.0
4193,61.0,0.0,60.0,11.0,0.0
4194,89.0,30.0,60.0,0.0,0.0
4195,73.0,0.0,30.0,10.0,0.0
4196,77.0,0.0,30.0,8.0,0.0
4197,84.0,0.0,60.0,7.0,0.0
4198,63.0,0.0,60.0,11.0,0.0
4199,72.0,0.0,30.0,10.0,0.0
4200,87.0,0.0,60.0,0.0,0.0
4201,63.0,0.0,60.0,3.0,0.0
4202,84.0,30.0,60.0,1.0,0.0
4203,75.0,0.0,30.0,10.0,0.0
4204,78.0,30.0,15.0,8.0,0.0
4205,84.0,0.0,60.0,0.0,0.0
4206,78.0,0.0,30.0,8.0,0.0
4207,80.0,0.0,60.0,1.0,0.0
4208,80.0,0.0,60.0,7.0,0.0
4209,66.0,0.0,60.0,11.0,0.0
4210,60.0,0.0,60.0,3.0,0.0
4211,75.0,30.0,15.0,10.0,0.0
4212,78.0,0.0,30.0,8.0,0.0
4213,61.0,30.0,30.0,5.0,0.0
4214,49.0,0.0,30.0,6.0,0.0
4215,85.0,30.0,60.0,7.0,0.0
4216,75.0,0.0,15.0,10.0,0.0
4217,85.0,0.0,60.0,1.0,0.0
4218,89.0,0.0,60.0,0.0,0.0
4219,65.0,0.0,60.0,3.0,0.0
4220,49.0,0.0,60.0,11.0,0.0
4221,49.0,0.0,120.0,6.0,0.0
4222,49.0,0.0,15.0,5.0,0.0
4223,61.0,0.0,120.0,5.0,0.0
4224,78.0,30.0,15.0,8.0,0.0
4225,75.0,0.0,30.0,10.0,0.0
4226,51.0,0.0,60.0,11.0,0.0
4227,87.0,0.0,60.0,0.0,0.0
4228,63.0,0.0,60.0,3.0,0.0
4229,75.0,30.0,30.0,10.0,0.0
4230,84.0,30.0,60.0,1.0,0.0
4231,84.0,0.0,60.0,7.0,0.0
4232,78.0,0.0,15.0,8.0,0.0
4233,75.0,0.0,30.0,10.0,0.0
4234,60.0,0.0,60.0,3.0,0.0
4235,80.0,0.0,60.0,7.0,0.0
4236,84.0,0.0,60.0,0.0,0.0
4237,75.0,30.0,30.0,10.0,0.0
4238,80.0,0.0,60.0,1.0,0.0
4239,54.0,0.0,60.0,11.0,0.0
4240,78.0,0.0,15.0,8.0,0.0
4241,49.0,0.0,30.0,5.0,0.0
4242,75.0,0.0,30.0,10.0,0.0
4243,66.0,0.0,60.0,3.0,0.0
4244,49.0,0.0,15.0,6.0,0.0
4245,61.0,0.0,60.0,11.0,0.0
4246,73.0,0.0,360.0,2.0,0.0
4247,77.0,0.0,360.0,2.0,0.0
4248,73.0,30.0,30.0,10.0,0.0
4249,49.0,0.0,120.0,5.0,0.0
4250,61.0,30.0,15.0,5.0,0.0
4251,87.0,0.0,60.0,7.0,0.0
4252,77.0,0.0,30.0,8.0,0.0
4253,90.0,0.0,60.0,0.0,0.0
4254,87.0,0.0,60.0,1.0,0.0
4255,75.0,30.0,30.0,10.0,0.0
4256,78.0,0.0,30.0,8.0,0.0
4257,85.0,0.0,60.0,1.0,0.0
4258,89.0,30.0,60.0,0.0,0.0
4259,73.0,0.0,30.0,10.0,0.0
4260,65.0,0.0,60.0,3.0,0.0
4261,65.0,0.0,60.0,11.0,0.0
4262,85.0,0.0,60.0,7.0,0.0
4263,80.0,30.0,15.0,8.0,0.0
4264,68.0,0.0,60.0,11.0,0.0
4265,80.0,0.0,15.0,8.0,0.0
4266,61.0,0.0,60.0,3.0,0.0
4267,77.0,0.0,15.0,10.0,0.0
4268,80.0,0.0,60.0,1.0,0.0
4269,80.0,0.0,60.0,7.0,0.0
4270,85.0,0.0,60.0,0.0,0.0
4271,49.0,0.0,30.0,5.0,0.0
4272,77.0,0.0,30.0,10.0,0.0
4273,80.0,30.0,30.0,8.0,0.0
4274,49.0,0.0,30.0,6.0,0.0
4275,90.0,30.0,60.0,0.0,0.0
4276,49.0,0.0,120.0,5.0,0.0
4277,61.0,0.0,15.0,5.0,0.0
4278,78.0,0.0,60.0,1.0,0.0
4279,90.0,0.0,60.0,7.0,0.0
4280,49.0,0.0,60.0,11.0,0.0
4281,49.0,30.0,120.0,6.0,0.0
4282,66.0,0.0,60.0,3.0,0.0
4283,80.0,30.0,30.0,8.0,0.0
4284,77.0,0.0,15.0,10.0,0.0
4285,53.0,0.0,60.0,11.0,0.0
4286,77.0,0.0,15.0,10.0,0.0
4287,77.0,0.0,60.0,1.0,0.0
4288,65.0,0.0,60.0,3.0,0.0
4289,80.0,0.0,15.0,8.0,0.0
4290,89.0,0.0,60.0,7.0,0.0
4291,89.0,0.0,60.0,0.0,0.0
4292,80.0,0.0,15.0,8.0,0.0
4293,77.0,0.0,30.0,10.0,0.0
4294,85.0,0.0,60.0,0.0,0.0
4295,73.0,0.0,60.0,1.0,0.0
4296,56.0,0.0,60.0,11.0,0.0
4297,61.0,0.0,60.0,3.0,0.0
4298,80.0,0.0,15.0,8.0,0.0
4299,85.0,0.0,60.0,7.0,0.0
4300,49.0,0.0,30.0,6.0,0.0
4301,61.0,0.0,30.0,5.0,0.0
4302,80.0,0.0,30.0,8.0,0.0
4303,49.0,0.0,30.0,5.0,0.0
4304,77.0,29.0,15.0,10.0,0.0
4305,80.0,0.0,360.0,1.0,0.0
4306,74.0,0.0,30.0,10.0,0.0
4307,68.0,0.0,360.0,4.0,0.0
4308,56.0,0.0,360.0,4.0,0.0
4309,68.0,0.0,360.0,3.0,0.0
4310,65.0,0.0,360.0,3.0,0.0
4311,92.0,30.0,360.0,0.0,0.0
4312,53.0,0.0,30.0,11.0,0.0
4313,80.0,15.0,30.0,8.0,0.0
4314,86.0,0.0,360.0,0.0,0.0
4315,92.0,0.0,270.0,7.0,0.0
4316,74.0,0.0,360.0,2.0,0.0
4317,80.0,0.0,360.0,2.0,0.0
4318,68.0,0.0,360.0,5.0,0.0
4319,56.0,15.0,15.0,6.0,0.0
4320,56.0,15.0,15.0,6.0,0.0
4321,65.0,0.0,30.0,11.0,0.0
4322,74.0,0.0,30.0,10.0,0.0
4323,80.0,0.0,30.0,8.0,0.0
4324,56.0,15.0,15.0,6.0,0.0
4325,80.0,0.0,30.0,8.0,0.0
4326,65.0,0.0,30.0,11.0,0.0
4327,56.0,15.0,15.0,6.0,0.0
4328,74.0,0.0,15.0,10.0,0.0
4329,80.0,0.0,30.0,8.0,0.0
4330,65.0,0.0,30.0,11.0,0.0
4331,80.0,0.0,30.0,8.0,0.0
4332,56.0,15.0,15.0,6.0,0.0
4333,65.0,15.0,30.0,11.0,0.0
4334,74.0,0.0,15.0,10.0,0.0
4335,56.0,15.0,15.0,6.0,0.0
4336,80.0,0.0,30.0,8.0,0.0
4337,56.0,0.0,15.0,6.0,0.0
4338,56.0,15.0,15.0,6.0,0.0
4339,56.0,0.0,15.0,6.0,0.0
4340,65.0,0.0,15.0,11.0,0.0
4341,74.0,15.0,15.0,10.0,0.0
4342,56.0,0.0,15.0,6.0,0.0
4343,65.0,0.0,15.0,11.0,0.0
4344,74.0,15.0,15.0,10.0,0.0
4345,56.0,15.0,15.0,6.0,0.0
4346,80.0,0.0,15.0,8.0,0.0
4347,65.0,0.0,30.0,11.0,0.0
4348,56.0,0.0,15.0,6.0,0.0
4349,74.0,0.0,30.0,10.0,0.0
4350,80.0,15.0,15.0,8.0,0.0
4351,56.0,15.0,15.0,6.0,0.0
4352,65.0,0.0,30.0,11.0,0.0
4353,91.0,0.0,30.0,7.0,0.0
4354,80.0,0.0,30.0,8.0,0.0
4355,56.0,15.0,15.0,6.0,0.0
4356,89.0,0.0,60.0,7.0,0.0
4357,56.0,0.0,60.0,6.0,0.0
4358,74.0,30.0,15.0,10.0,0.0
4359,65.0,30.0,15.0,11.0,0.0
4360,74.0,0.0,30.0,10.0,0.0
4361,80.0,0.0,15.0,8.0,0.0
4362,79.0,0.0,240.0,2.0,0.0
4363,75.0,0.0,240.0,2.0,0.0
4364,89.0,0.0,60.0,7.0,0.0
4365,75.0,0.0,240.0,4.0,0.0
4366,49.0,0.0,120.0,6.0,0.0
4367,79.0,0.0,30.0,8.0,0.0
4368,49.0,0.0,120.0,5.0,0.0
4369,61.0,0.0,120.0,5.0,0.0
4370,79.0,0.0,240.0,1.0,0.0
4371,87.0,0.0,240.0,0.0,0.0
4372,63.0,30.0,15.0,11.0,0.0
4373,75.0,0.0,15.0,10.0,0.0
4374,79.0,0.0,30.0,8.0,0.0
4375,91.0,0.0,180.0,7.0,0.0
4376,79.0,0.0,30.0,8.0,0.0
4377,75.0,30.0,15.0,10.0,0.0
4378,63.0,0.0,15.0,11.0,0.0
4379,79.0,0.0,30.0,8.0,0.0
4380,63.0,30.0,15.0,11.0,0.0
4381,75.0,0.0,15.0,10.0,0.0
4382,63.0,0.0,15.0,11.0,0.0
4383,75.0,30.0,15.0,10.0,0.0
4384,79.0,0.0,15.0,8.0,0.0
4385,79.0,0.0,15.0,8.0,0.0
4386,49.0,0.0,60.0,5.0,0.0
4387,61.0,0.0,60.0,5.0,0.0
4388,49.0,0.0,60.0,6.0,0.0
4389,63.0,0.0,30.0,11.0,0.0
4390,75.0,30.0,30.0,10.0,0.0
4391,79.0,0.0,30.0,8.0,0.0
4392,75.0,0.0,30.0,10.0,0.0
4393,63.0,0.0,15.0,3.0,0.0
4394,67.0,0.0,15.0,3.0,0.0
4395,82.0,0.0,15.0,1.0,0.0
4396,73.0,0.0,60.0,7.0,0.0
4397,91.0,0.0,15.0,0.0,0.0
4398,63.0,30.0,15.0,11.0,0.0
4399,63.0,30.0,15.0,11.0,0.0
4400,67.0,0.0,15.0,10.0,0.0
4401,70.0,0.0,15.0,8.0,0.0
4402,82.0,0.0,60.0,1.0,0.0
4403,91.0,0.0,15.0,0.0,0.0
4404,63.0,0.0,60.0,3.0,0.0
4405,79.0,0.0,15.0,2.0,0.0
4406,67.0,0.0,15.0,3.0,0.0
4407,75.0,0.0,60.0,7.0,0.0
4408,63.0,30.0,15.0,11.0,0.0
4409,70.0,0.0,15.0,8.0,0.0
4410,67.0,0.0,15.0,10.0,0.0
4411,63.0,0.0,30.0,11.0,0.0
4412,65.0,0.0,30.0,10.0,0.0
4413,89.0,0.0,60.0,0.0,0.0
4414,61.0,0.0,60.0,3.0,0.0
4415,65.0,0.0,60.0,3.0,0.0
4416,70.0,0.0,30.0,8.0,0.0
4417,77.0,0.0,60.0,2.0,0.0
4418,77.0,0.0,120.0,7.0,0.0
4419,82.0,0.0,60.0,1.0,0.0
4420,61.0,30.0,15.0,11.0,0.0
4421,70.0,0.0,15.0,8.0,0.0
4422,65.0,30.0,15.0,10.0,0.0
4423,61.0,0.0,15.0,11.0,0.0
4424,70.0,0.0,15.0,8.0,0.0
4425,65.0,30.0,15.0,10.0,0.0
4426,77.0,0.0,60.0,2.0,0.0
4427,61.0,0.0,15.0,11.0,0.0
4428,61.0,0.0,60.0,3.0,0.0
4429,65.0,0.0,60.0,3.0,0.0
4430,82.0,0.0,60.0,1.0,0.0
4431,70.0,0.0,30.0,8.0,0.0
4432,89.0,0.0,60.0,0.0,0.0
4433,65.0,0.0,15.0,10.0,0.0
4434,70.0,0.0,30.0,8.0,0.0
4435,61.0,0.0,30.0,11.0,0.0
4436,70.0,0.0,30.0,8.0,0.0
4437,77.0,0.0,60.0,2.0,0.0
4438,61.0,0.0,60.0,3.0,0.0
4439,89.0,0.0,60.0,0.0,0.0
4440,77.0,30.0,15.0,7.0,0.0
4441,65.0,0.0,15.0,10.0,0.0
4442,82.0,0.0,60.0,1.0,0.0
4443,65.0,30.0,60.0,3.0,0.0
4444,65.0,0.0,15.0,10.0,0.0
4445,61.0,30.0,15.0,11.0,0.0
4446,70.0,0.0,30.0,8.0,0.0
4447,65.0,0.0,15.0,10.0,0.0
4448,70.0,0.0,15.0,8.0,0.0
4449,61.0,0.0,15.0,11.0,0.0
4450,79.0,0.0,30.0,7.0,0.0
4451,65.0,30.0,15.0,10.0,0.0
4452,61.0,30.0,15.0,11.0,0.0
4453,65.0,0.0,60.0,3.0,0.0
4454,77.0,0.0,60.0,7.0,0.0
4455,89.0,0.0,60.0,0.0,0.0
4456,70.0,0.0,30.0,8.0,0.0
4457,61.0,0.0,60.0,3.0,0.0
4458,77.0,0.0,60.0,2.0,0.0
4459,82.0,0.0,60.0,1.0,0.0
4460,65.0,30.0,15.0,10.0,0.0
4461,70.0,60.0,30.0,8.0,0.0
4462,61.0,0.0,30.0,11.0,0.0
4463,84.0,0.0,120.0,1.0,0.0
4464,76.0,60.0,120.0,7.0,0.0
4465,67.0,60.0,60.0,10.0,0.0
4466,79.0,0.0,120.0,2.0,0.0
4467,60.0,0.0,120.0,11.0,0.0
4468,60.0,0.0,120.0,3.0,0.0
4469,88.0,0.0,120.0,0.0,0.0
4470,72.0,0.0,60.0,8.0,0.0
4471,72.0,0.0,60.0,7.0,0.0
4472,67.0,0.0,60.0,8.0,0.0
4473,64.0,90.0,60.0,10.0,0.0
4474,60.0,60.0,120.0,11.0,0.0
4475,72.0,30.0,90.0,7.0,0.0
4476,75.0,0.0,30.0,7.0,0.0
4477,67.0,15.0,60.0,8.0,0.0
4478,79.0,0.0,60.0,7.0,0.0
4479,64.0,0.0,60.0,10.0,0.0
4480,77.0,105.0,15.0,7.0,0.0
4481,60.0,60.0,120.0,11.0,0.0
4482,80.0,0.0,15.0,7.0,0.0
4483,68.0,0.0,60.0,8.0,0.0
4484,60.0,0.0,60.0,8.0,0.0
4485,65.0,90.0,60.0,10.0,0.0
4486,60.0,60.0,120.0,11.0,0.0
4487,80.0,30.0,90.0,7.0,0.0
4488,79.0,0.0,30.0,7.0,0.0
4489,68.0,0.0,60.0,8.0,0.0
4490,77.0,0.0,60.0,7.0,0.0
4491,60.0,0.0,60.0,8.0,0.0
4492,65.0,120.0,60.0,10.0,0.0
4493,76.0,60.0,120.0,7.0,0.0
4494,60.0,0.0,120.0,11.0,0.0
4495,67.0,0.0,60.0,8.0,0.0
4496,64.0,0.0,60.0,10.0,0.0
4497,60.0,90.0,60.0,8.0,0.0
4498,60.0,60.0,120.0,11.0,0.0
4499,72.0,0.0,15.0,7.0,0.0
4500,75.0,0.0,30.0,7.0,0.0
4501,79.0,0.0,60.0,7.0,0.0
4502,64.0,0.0,60.0,10.0,0.0
4503,60.0,0.0,60.0,8.0,0.0
4504,67.0,30.0,60.0,8.0,0.0
4505,92.0,0.0,180.0,0.0,0.0
4506,84.0,0.0,360.0,0.0,0.0
4507,68.0,0.0,180.0,3.0,0.0
4508,60.0,0.0,360.0,3.0,0.0
4509,72.0,0.0,360.0,2.0,0.0
4510,53.0,0.0,30.0,11.0,0.0
4511,80.0,0.0,180.0,1.0,0.0
4512,65.0,0.0,30.0,10.0,0.0
4513,68.0,30.0,15.0,8.0,0.0
4514,65.0,30.0,15.0,10.0,0.0
4515,53.0,0.0,15.0,11.0,0.0
4516,68.0,0.0,15.0,8.0,0.0
4517,68.0,0.0,15.0,8.0,0.0
4518,53.0,0.0,15.0,11.0,0.0
4519,65.0,0.0,30.0,10.0,0.0
4520,53.0,30.0,15.0,11.0,0.0
4521,80.0,0.0,15.0,7.0,0.0
4522,65.0,30.0,15.0,10.0,0.0
4523,53.0,0.0,30.0,11.0,0.0
4524,68.0,0.0,15.0,8.0,0.0
4525,56.0,0.0,30.0,11.0,0.0
4526,89.0,0.0,180.0,0.0,0.0
4527,65.0,0.0,180.0,3.0,0.0
4528,77.0,60.0,180.0,1.0,0.0
4529,65.0,0.0,15.0,8.0,0.0
4530,60.0,30.0,15.0,10.0,0.0
4531,56.0,0.0,30.0,11.0,0.0
4532,65.0,0.0,15.0,8.0,0.0
4533,60.0,30.0,15.0,10.0,0.0
4534,56.0,0.0,30.0,11.0,0.0
4535,60.0,0.0,30.0,10.0,0.0
4536,65.0,0.0,30.0,8.0,0.0
4537,56.0,0.0,30.0,11.0,0.0
4538,84.0,30.0,15.0,7.0,0.0
4539,56.0,0.0,30.0,11.0,0.0
4540,65.0,0.0,30.0,8.0,0.0
4541,65.0,0.0,30.0,8.0,0.0
4542,56.0,0.0,30.0,11.0,0.0
4543,60.0,30.0,15.0,10.0,0.0
4544,59.0,0.0,60.0,10.0,0.0
4545,71.0,0.0,120.0,2.0,0.0
4546,55.0,0.0,120.0,11.0,0.0
4547,83.0,0.0,120.0,7.0,0.0
4548,83.0,0.0,120.0,0.0,0.0
4549,86.0,0.0,120.0,0.0,0.0
4550,59.0,60.0,120.0,3.0,0.0
4551,62.0,60.0,60.0,8.0,0.0
4552,74.0,0.0,120.0,1.0,0.0
4553,62.0,0.0,120.0,3.0,0.0
4554,62.0,0.0,60.0,8.0,0.0
4555,67.0,90.0,60.0,8.0,0.0
4556,59.0,0.0,60.0,10.0,0.0
4557,67.0,0.0,60.0,1.0,0.0
4558,55.0,0.0,60.0,3.0,0.0
4559,55.0,0.0,60.0,10.0,0.0
4560,79.0,0.0,15.0,0.0,0.0
4561,55.0,0.0,90.0,3.0,0.0
4562,55.0,0.0,120.0,11.0,0.0
4563,67.0,0.0,90.0,1.0,0.0
4564,83.0,0.0,30.0,0.0,0.0
4565,59.0,60.0,30.0,3.0,0.0
4566,71.0,0.0,30.0,1.0,0.0
4567,67.0,120.0,60.0,8.0,0.0
4568,86.0,0.0,60.0,0.0,0.0
4569,74.0,0.0,60.0,1.0,0.0
4570,62.0,0.0,60.0,3.0,0.0
4571,62.0,0.0,60.0,8.0,0.0
4572,59.0,0.0,60.0,10.0,0.0
4573,55.0,0.0,60.0,10.0,0.0
4574,55.0,0.0,120.0,11.0,0.0
4575,60.0,0.0,60.0,10.0,0.0
4576,88.0,0.0,15.0,0.0,0.0
4577,64.0,0.0,15.0,3.0,0.0
4578,55.0,0.0,60.0,10.0,0.0
4579,62.0,0.0,60.0,8.0,0.0
4580,67.0,0.0,60.0,8.0,0.0
4581,76.0,60.0,15.0,1.0,0.0
4582,64.0,0.0,15.0,3.0,0.0
4583,55.0,0.0,120.0,11.0,0.0
4584,88.0,0.0,90.0,0.0,0.0
4585,76.0,90.0,15.0,1.0,0.0
4586,86.0,60.0,30.0,0.0,0.0
4587,62.0,0.0,30.0,3.0,0.0
4588,74.0,0.0,30.0,1.0,0.0
4589,72.0,0.0,60.0,1.0,0.0
4590,55.0,120.0,60.0,10.0,0.0
4591,60.0,0.0,60.0,3.0,0.0
4592,60.0,0.0,60.0,10.0,0.0
4593,84.0,0.0,60.0,0.0,0.0
4594,62.0,0.0,60.0,8.0,0.0
4595,67.0,0.0,60.0,8.0,0.0
4596,71.0,0.0,120.0,1.0,0.0
4597,55.0,0.0,120.0,11.0,0.0
4598,83.0,0.0,120.0,0.0,0.0
4599,59.0,60.0,120.0,3.0,0.0
4600,62.0,0.0,60.0,8.0,0.0
4601,67.0,0.0,60.0,8.0,0.0
4602,55.0,90.0,60.0,10.0,0.0
4603,59.0,0.0,60.0,10.0,0.0
4604,55.0,0.0,120.0,11.0,0.0
4605,79.0,0.0,15.0,7.0,0.0
4606,83.0,60.0,30.0,7.0,0.0
4607,55.0,0.0,60.0,10.0,0.0
4608,86.0,0.0,60.0,7.0,0.0
4609,67.0,30.0,60.0,8.0,0.0
4610,74.0,0.0,60.0,1.0,0.0
4611,62.0,0.0,60.0,3.0,0.0
4612,59.0,0.0,60.0,10.0,0.0
4613,86.0,0.0,60.0,0.0,0.0
4614,62.0,0.0,60.0,8.0,0.0
4615,60.0,0.0,360.0,11.0,0.0
4616,87.0,0.0,120.0,0.0,0.0
4617,63.0,0.0,120.0,3.0,0.0
4618,63.0,30.0,30.0,8.0,0.0
4619,63.0,0.0,15.0,10.0,0.0
4620,75.0,0.0,15.0,8.0,0.0
4621,63.0,30.0,30.0,10.0,0.0
4622,63.0,0.0,30.0,10.0,0.0
4623,87.0,0.0,15.0,7.0,0.0
4624,87.0,0.0,60.0,1.0,0.0
4625,87.0,0.0,60.0,0.0,0.0
4626,51.0,0.0,15.0,3.0,0.0
4627,75.0,30.0,15.0,1.0,0.0
4628,63.0,0.0,30.0,10.0,0.0
4629,75.0,0.0,15.0,8.0,0.0
4630,63.0,0.0,60.0,3.0,0.0
4631,75.0,30.0,15.0,8.0,0.0
4632,51.0,0.0,15.0,3.0,0.0
4633,75.0,30.0,30.0,8.0,0.0
4634,87.0,0.0,120.0,1.0,0.0
4635,63.0,0.0,15.0,10.0,0.0
4636,75.0,0.0,120.0,1.0,0.0
4637,87.0,0.0,30.0,8.0,0.0
4638,75.0,30.0,15.0,10.0,0.0
4639,87.0,0.0,15.0,8.0,0.0
4640,75.0,0.0,30.0,10.0,0.0
4641,87.0,0.0,15.0,0.0,0.0
4642,92.0,0.0,15.0,0.0,0.0
4643,63.0,0.0,15.0,3.0,0.0
4644,92.0,30.0,15.0,7.0,0.0
4645,87.0,0.0,15.0,8.0,0.0
4646,75.0,30.0,15.0,10.0,0.0
4647,85.0,0.0,90.0,8.0,0.0
4648,63.0,0.0,15.0,3.0,0.0
4649,51.0,0.0,15.0,3.0,0.0
4650,87.0,0.0,15.0,1.0,0.0
4651,75.0,0.0,15.0,1.0,0.0
4652,87.0,60.0,15.0,0.0,0.0
4653,92.0,30.0,60.0,7.0,0.0
4654,73.0,30.0,90.0,10.0,0.0
4655,92.0,0.0,60.0,0.0,0.0
4656,73.0,0.0,120.0,2.0,0.0
4657,91.0,0.0,240.0,0.0,0.0
4658,91.0,0.0,240.0,7.0,0.0
4659,84.0,0.0,30.0,8.0,0.0
4660,72.0,0.0,30.0,10.0,0.0
4661,82.0,30.0,30.0,8.0,0.0
4662,85.0,0.0,15.0,2.0,0.0
4663,73.0,0.0,60.0,2.0,0.0
4664,46.0,0.0,15.0,11.0,0.0
4665,70.0,0.0,30.0,10.0,0.0
4666,73.0,0.0,15.0,4.0,0.0
4667,61.0,30.0,15.0,4.0,0.0
4668,68.0,0.0,30.0,10.0,0.0
4669,80.0,0.0,30.0,8.0,0.0
4670,61.0,0.0,15.0,4.0,0.0
4671,73.0,0.0,120.0,2.0,0.0
4672,67.0,0.0,30.0,10.0,0.0
4673,85.0,0.0,120.0,2.0,0.0
4674,79.0,30.0,30.0,8.0,0.0
4675,73.0,0.0,120.0,4.0,0.0
4676,58.0,0.0,120.0,11.0,0.0
4677,68.0,30.0,30.0,10.0,0.0
4678,80.0,0.0,30.0,8.0,0.0
4679,67.0,0.0,30.0,10.0,0.0
4680,79.0,30.0,30.0,8.0,0.0
4681,65.0,30.0,30.0,10.0,0.0
4682,77.0,0.0,30.0,8.0,0.0
4683,85.0,0.0,60.0,0.0,0.0
4684,73.0,0.0,60.0,2.0,0.0
4685,85.0,0.0,60.0,2.0,0.0
4686,75.0,0.0,30.0,8.0,0.0
4687,85.0,0.0,60.0,7.0,0.0
4688,63.0,30.0,30.0,10.0,0.0
4689,61.0,0.0,60.0,4.0,0.0
4690,73.0,0.0,60.0,4.0,0.0
4691,73.0,0.0,30.0,8.0,0.0
4692,61.0,30.0,30.0,10.0,0.0
4693,87.0,0.0,120.0,0.0,0.0
4694,84.0,0.0,120.0,7.0,0.0
4695,72.0,0.0,360.0,2.0,0.0
4696,60.0,30.0,30.0,10.0,0.0
4697,84.0,0.0,360.0,2.0,0.0
4698,58.0,0.0,15.0,11.0,0.0
4699,68.0,0.0,360.0,4.0,0.0
4700,56.0,0.0,360.0,4.0,0.0
4701,72.0,0.0,30.0,8.0,0.0
4702,72.0,30.0,30.0,8.0,0.0
4703,60.0,0.0,30.0,10.0,0.0
4704,60.0,0.0,30.0,10.0,0.0
4705,56.0,0.0,300.0,11.0,0.0
4706,72.0,30.0,15.0,8.0,0.0
4707,60.0,0.0,30.0,10.0,0.0
4708,63.0,0.0,15.0,3.0,0.0
4709,84.0,0.0,15.0,0.0,0.0
4710,84.0,0.0,60.0,7.0,0.0
4711,87.0,0.0,15.0,1.0,0.0
4712,72.0,0.0,30.0,8.0,0.0
4713,60.0,30.0,15.0,10.0,0.0
4714,72.0,0.0,30.0,8.0,0.0
4715,87.0,0.0,15.0,0.0,0.0
4716,51.0,0.0,15.0,3.0,0.0
4717,75.0,0.0,15.0,1.0,0.0
4718,87.0,0.0,15.0,1.0,0.0
4719,60.0,0.0,30.0,10.0,0.0
4720,84.0,30.0,15.0,8.0,0.0
4721,72.0,0.0,30.0,10.0,0.0
4722,84.0,30.0,15.0,8.0,0.0
4723,72.0,30.0,15.0,10.0,0.0
4724,84.0,0.0,30.0,8.0,0.0
4725,84.0,0.0,30.0,8.0,0.0
4726,89.0,0.0,15.0,7.0,0.0
4727,72.0,30.0,15.0,10.0,0.0
4728,75.0,0.0,15.0,1.0,0.0
4729,87.0,0.0,15.0,1.0,0.0
4730,87.0,0.0,15.0,0.0,0.0
4731,89.0,0.0,15.0,0.0,0.0
4732,63.0,0.0,15.0,3.0,0.0
4733,51.0,0.0,15.0,3.0,0.0
4734,84.0,0.0,30.0,8.0,0.0
4735,72.0,0.0,30.0,10.0,0.0
4736,89.0,0.0,15.0,7.0,0.0
4737,70.0,0.0,120.0,5.0,0.0
4738,70.0,0.0,120.0,2.0,0.0
4739,58.0,0.0,120.0,5.0,0.0
4740,51.0,0.0,420.0,3.0,0.0
4741,63.0,0.0,420.0,3.0,0.0
4742,82.0,30.0,90.0,8.0,0.0
4743,89.0,0.0,60.0,0.0,0.0
4744,75.0,60.0,15.0,1.0,0.0
4745,87.0,0.0,420.0,1.0,0.0
4746,70.0,0.0,90.0,10.0,0.0
4747,87.0,0.0,240.0,0.0,0.0
4748,87.0,0.0,240.0,7.0,0.0
4749,80.0,0.0,30.0,8.0,0.0
4750,68.0,0.0,30.0,10.0,0.0
4751,79.0,0.0,30.0,8.0,0.0
4752,82.0,0.0,15.0,2.0,0.0
4753,43.0,30.0,15.0,11.0,0.0
4754,67.0,30.0,30.0,10.0,0.0
4755,70.0,0.0,60.0,2.0,0.0
4756,77.0,0.0,30.0,8.0,0.0
4757,65.0,30.0,30.0,10.0,0.0
4758,70.0,0.0,15.0,5.0,0.0
4759,58.0,0.0,15.0,5.0,0.0
4760,75.0,30.0,30.0,8.0,0.0
4761,70.0,0.0,120.0,2.0,0.0
4762,63.0,0.0,30.0,10.0,0.0
4763,77.0,0.0,30.0,8.0,0.0
4764,65.0,30.0,30.0,10.0,0.0
4765,63.0,0.0,30.0,10.0,0.0
4766,75.0,30.0,30.0,8.0,0.0
4767,74.0,0.0,30.0,8.0,0.0
4768,62.0,30.0,30.0,10.0,0.0
4769,60.0,0.0,30.0,10.0,0.0
4770,82.0,0.0,15.0,2.0,0.0
4771,70.0,0.0,60.0,2.0,0.0
4772,82.0,0.0,60.0,7.0,0.0
4773,55.0,0.0,15.0,11.0,0.0
4774,82.0,0.0,60.0,0.0,0.0
4775,72.0,30.0,30.0,8.0,0.0
4776,70.0,0.0,60.0,5.0,0.0
4777,58.0,0.0,15.0,5.0,0.0
4778,58.0,0.0,30.0,10.0,0.0
4779,70.0,0.0,30.0,8.0,0.0
4780,55.0,30.0,15.0,11.0,0.0
4781,56.0,30.0,30.0,10.0,0.0
4782,68.0,0.0,300.0,5.0,0.0
4783,80.0,0.0,120.0,0.0,0.0
4784,87.0,0.0,60.0,0.0,0.0
4785,68.0,0.0,30.0,8.0,0.0
4786,68.0,0.0,120.0,2.0,0.0
4787,80.0,0.0,120.0,2.0,0.0
4788,73.0,0.0,30.0,8.0,0.0
4789,61.0,0.0,30.0,10.0,0.0
4790,53.0,0.0,240.0,3.0,0.0
4791,61.0,30.0,30.0,10.0,0.0
4792,85.0,0.0,60.0,0.0,0.0
4793,53.0,0.0,240.0,11.0,0.0
4794,73.0,0.0,30.0,8.0,0.0
4795,61.0,0.0,240.0,3.0,0.0
4796,61.0,0.0,15.0,10.0,0.0
4797,80.0,0.0,15.0,7.0,0.0
4798,73.0,0.0,15.0,8.0,0.0
4799,68.0,0.0,15.0,4.0,0.0
4800,56.0,0.0,15.0,4.0,0.0
4801,73.0,0.0,15.0,1.0,0.0
4802,92.0,0.0,60.0,0.0,0.0
4803,68.0,0.0,60.0,2.0,0.0
4804,85.0,30.0,15.0,1.0,0.0
4805,61.0,0.0,30.0,10.0,0.0
4806,73.0,0.0,30.0,8.0,0.0
4807,73.0,0.0,15.0,2.0,0.0
4808,85.0,0.0,120.0,7.0,0.0
4809,97.0,0.0,120.0,0.0,0.0
4810,73.0,0.0,120.0,7.0,0.0
4811,68.0,30.0,30.0,10.0,0.0
4812,85.0,30.0,15.0,1.0,0.0
4813,61.0,0.0,120.0,4.0,0.0
4814,80.0,0.0,30.0,8.0,0.0
4815,56.0,0.0,15.0,10.0,0.0
4816,68.0,30.0,15.0,8.0,0.0
4817,68.0,0.0,15.0,8.0,0.0
4818,56.0,30.0,15.0,10.0,0.0
4819,61.0,0.0,60.0,4.0,0.0
4820,73.0,0.0,15.0,4.0,0.0
4821,85.0,0.0,15.0,1.0,0.0
4822,80.0,0.0,15.0,1.0,0.0
4823,52.0,0.0,60.0,11.0,0.0
4824,92.0,0.0,15.0,0.0,0.0
4825,61.0,0.0,60.0,5.0,0.0
4826,56.0,0.0,30.0,10.0,0.0
4827,52.0,0.0,60.0,3.0,0.0
4828,64.0,0.0,60.0,3.0,0.0
4829,97.0,0.0,60.0,0.0,0.0
4830,73.0,30.0,15.0,2.0,0.0
4831,68.0,0.0,15.0,2.0,0.0
4832,85.0,0.0,60.0,7.0,0.0
4833,68.0,30.0,15.0,8.0,0.0
4834,56.0,0.0,30.0,10.0,0.0
4835,85.0,0.0,15.0,1.0,0.0
4836,82.0,0.0,60.0,1.0,0.0
4837,67.0,120.0,120.0,8.0,0.0
4838,51.0,0.0,120.0,11.0,0.0
4839,55.0,0.0,120.0,10.0,0.0
4840,58.0,0.0,60.0,5.0,0.0
4841,70.0,0.0,60.0,2.0,0.0
4842,73.0,0.0,15.0,7.0,0.0
4843,51.0,0.0,60.0,3.0,0.0
4844,85.0,0.0,120.0,7.0,0.0
4845,61.0,0.0,60.0,5.0,0.0
4846,63.0,0.0,60.0,3.0,0.0
4847,94.0,0.0,15.0,0.0,0.0
4848,97.0,0.0,15.0,0.0,0.0
4849,73.0,0.0,15.0,2.0,0.0
4850,70.0,0.0,60.0,2.0,0.0
4851,58.0,0.0,60.0,3.0,0.0
4852,61.0,0.0,60.0,3.0,0.0
4853,85.0,0.0,60.0,1.0,0.0
4854,82.0,0.0,60.0,1.0,0.0
4855,75.0,60.0,15.0,4.0,0.0
4856,58.0,0.0,60.0,5.0,0.0
4857,61.0,0.0,60.0,5.0,0.0
4858,58.0,0.0,60.0,3.0,0.0
4859,61.0,0.0,60.0,3.0,0.0
4860,73.0,0.0,120.0,7.0,0.0
4861,70.0,0.0,60.0,2.0,0.0
4862,75.0,0.0,120.0,8.0,0.0
4863,82.0,0.0,120.0,8.0,0.0
4864,75.0,0.0,60.0,4.0,0.0
4865,63.0,0.0,120.0,10.0,0.0
4866,85.0,0.0,120.0,7.0,0.0
4867,51.0,0.0,120.0,11.0,0.0
4868,97.0,0.0,60.0,0.0,0.0
4869,94.0,0.0,60.0,0.0,0.0
4870,61.0,0.0,15.0,5.0,0.0
4871,73.0,0.0,15.0,2.0,0.0
4872,70.0,0.0,60.0,2.0,0.0
4873,58.0,60.0,15.0,5.0,0.0
4874,58.0,0.0,60.0,3.0,0.0
4875,61.0,0.0,60.0,3.0,0.0
4876,85.0,0.0,15.0,1.0,0.0
4877,82.0,0.0,15.0,1.0,0.0
4878,97.0,0.0,60.0,0.0,0.0
4879,94.0,0.0,60.0,0.0,0.0
4880,75.0,120.0,60.0,4.0,0.0
4881,51.0,0.0,120.0,11.0,0.0
4882,84.0,0.0,120.0,7.0,0.0
4883,84.0,0.0,60.0,1.0,0.0
4884,75.0,0.0,120.0,7.0,0.0
4885,96.0,0.0,60.0,0.0,0.0
4886,75.0,0.0,120.0,8.0,0.0
4887,92.0,0.0,60.0,0.0,0.0
4888,75.0,0.0,60.0,4.0,0.0
4889,80.0,0.0,120.0,8.0,0.0
4890,63.0,0.0,120.0,10.0,0.0
4891,68.0,0.0,60.0,2.0,0.0
4892,72.0,60.0,60.0,2.0,0.0
4893,80.0,0.0,15.0,1.0,0.0
4894,84.0,0.0,60.0,1.0,0.0
4895,96.0,0.0,60.0,0.0,0.0
4896,92.0,0.0,60.0,0.0,0.0
4897,68.0,0.0,60.0,2.0,0.0
4898,75.0,120.0,60.0,4.0,0.0
4899,60.0,0.0,15.0,3.0,0.0
4900,56.0,0.0,15.0,3.0,0.0
4901,72.0,0.0,60.0,2.0,0.0
4902,84.0,0.0,120.0,7.0,0.0
4903,51.0,0.0,120.0,11.0,0.0
4904,92.0,0.0,120.0,7.0,0.0
4905,60.0,0.0,60.0,3.0,0.0
4906,84.0,0.0,120.0,8.0,0.0
4907,75.0,0.0,120.0,8.0,0.0
4908,80.0,0.0,60.0,1.0,0.0
4909,84.0,0.0,60.0,1.0,0.0
4910,63.0,0.0,120.0,10.0,0.0
4911,68.0,0.0,15.0,2.0,0.0
4912,72.0,0.0,15.0,2.0,0.0
4913,84.0,0.0,60.0,1.0,0.0
4914,56.0,0.0,15.0,3.0,0.0
4915,92.0,0.0,15.0,0.0,0.0
4916,75.0,0.0,15.0,4.0,0.0
4917,96.0,60.0,15.0,0.0,0.0
4918,60.0,120.0,60.0,3.0,0.0
4919,80.0,0.0,60.0,1.0,0.0
4920,63.0,0.0,120.0,10.0,0.0
4921,73.0,0.0,60.0,2.0,0.0
4922,70.0,0.0,60.0,2.0,0.0
4923,82.0,0.0,120.0,7.0,0.0
4924,91.0,0.0,120.0,7.0,0.0
4925,85.0,0.0,60.0,1.0,0.0
4926,75.0,0.0,60.0,4.0,0.0
4927,51.0,0.0,120.0,11.0,0.0
4928,58.0,0.0,60.0,3.0,0.0
4929,75.0,0.0,120.0,8.0,0.0
4930,82.0,0.0,120.0,8.0,0.0
4931,94.0,0.0,15.0,0.0,0.0
4932,97.0,0.0,15.0,0.0,0.0
4933,61.0,0.0,15.0,5.0,0.0
4934,61.0,0.0,15.0,3.0,0.0
4935,58.0,0.0,15.0,5.0,0.0
4936,75.0,0.0,60.0,4.0,0.0
4937,70.0,0.0,60.0,2.0,0.0
4938,73.0,0.0,60.0,2.0,0.0
4939,82.0,60.0,15.0,1.0,0.0
4940,85.0,0.0,60.0,1.0,0.0
4941,58.0,0.0,60.0,3.0,0.0
4942,70.0,0.0,60.0,2.0,0.0
4943,85.0,0.0,120.0,7.0,0.0
4944,94.0,60.0,60.0,0.0,0.0
4945,58.0,0.0,60.0,5.0,0.0
4946,61.0,0.0,60.0,5.0,0.0
4947,75.0,0.0,120.0,8.0,0.0
4948,82.0,0.0,120.0,8.0,0.0
4949,58.0,0.0,60.0,3.0,0.0
4950,63.0,0.0,120.0,10.0,0.0
4951,82.0,0.0,60.0,1.0,0.0
4952,85.0,0.0,60.0,1.0,0.0
4953,73.0,0.0,120.0,7.0,0.0
4954,51.0,0.0,120.0,11.0,0.0
4955,73.0,0.0,60.0,2.0,0.0
4956,61.0,0.0,15.0,3.0,0.0
4957,82.0,0.0,60.0,1.0,0.0
4958,85.0,0.0,60.0,1.0,0.0
4959,97.0,0.0,15.0,0.0,0.0
4960,75.0,0.0,15.0,4.0,0.0
4961,70.0,0.0,60.0,2.0,0.0
4962,94.0,0.0,60.0,0.0,0.0
4963,61.0,0.0,60.0,5.0,0.0
4964,58.0,0.0,60.0,5.0,0.0
4965,58.0,0.0,60.0,3.0,0.0
4966,73.0,0.0,60.0,2.0,0.0
4967,80.0,0.0,120.0,8.0,0.0
4968,84.0,0.0,60.0,1.0,0.0
4969,75.0,0.0,120.0,8.0,0.0
4970,60.0,0.0,60.0,3.0,0.0
4971,68.0,0.0,60.0,2.0,0.0
4972,72.0,0.0,60.0,2.0,0.0
4973,63.0,0.0,120.0,10.0,0.0
4974,75.0,0.0,120.0,7.0,0.0
4975,84.0,0.0,120.0,7.0,0.0
4976,96.0,0.0,60.0,0.0,0.0
4977,92.0,0.0,60.0,0.0,0.0
4978,51.0,0.0,120.0,11.0,0.0
4979,80.0,0.0,15.0,1.0,0.0
4980,84.0,0.0,60.0,1.0,0.0
4981,56.0,0.0,15.0,3.0,0.0
4982,92.0,120.0,60.0,0.0,0.0
4983,75.0,60.0,15.0,4.0,0.0
4984,60.0,0.0,60.0,3.0,0.0
4985,68.0,0.0,60.0,2.0,0.0
4986,72.0,0.0,60.0,2.0,0.0
4987,96.0,0.0,60.0,0.0,0.0
4988,80.0,0.0,120.0,7.0,0.0
4989,84.0,0.0,60.0,1.0,0.0
4990,80.0,0.0,60.0,1.0,0.0
4991,72.0,0.0,60.0,2.0,0.0
4992,68.0,0.0,60.0,2.0,0.0
4993,63.0,0.0,120.0,10.0,0.0
4994,60.0,0.0,60.0,3.0,0.0
4995,92.0,0.0,60.0,0.0,0.0
4996,84.0,0.0,120.0,8.0,0.0
4997,75.0,0.0,120.0,8.0,0.0
4998,75.0,0.0,60.0,4.0,0.0
4999,92.0,0.0,120.0,7.0,0.0
5000,51.0,0.0,120.0,11.0,0.0
5001,56.0,60.0,60.0,3.0,0.0
5002,68.0,0.0,60.0,2.0,0.0
5003,72.0,0.0,60.0,2.0,0.0
5004,92.0,0.0,60.0,0.0,0.0
5005,96.0,0.0,15.0,0.0,0.0
5006,80.0,0.0,60.0,1.0,0.0
5007,84.0,0.0,60.0,1.0,0.0
5008,75.0,0.0,60.0,4.0,0.0
5009,56.0,0.0,60.0,3.0,0.0
5010,60.0,360.0,60.0,3.0,0.0
5011,65.0,0.0,300.0,8.0,0.0
5012,53.0,0.0,300.0,10.0,0.0
5013,53.0,60.0,300.0,11.0,0.0
5014,65.0,0.0,300.0,7.0,0.0
5015,52.0,0.0,60.0,11.0,0.0
5016,52.0,0.0,60.0,10.0,0.0
5017,64.0,0.0,60.0,7.0,0.0
5018,64.0,300.0,60.0,8.0,0.0
5019,63.0,0.0,300.0,8.0,0.0
5020,87.0,30.0,300.0,1.0,0.0
5021,75.0,0.0,300.0,2.0,0.0
5022,51.0,0.0,300.0,11.0,0.0
5023,63.0,0.0,300.0,7.0,0.0
5024,63.0,0.0,300.0,10.0,0.0
5025,63.0,0.0,300.0,3.0,0.0
5026,65.0,0.0,30.0,8.0,0.0
5027,65.0,30.0,30.0,7.0,0.0
5028,58.0,0.0,60.0,3.0,0.0
5029,53.0,0.0,30.0,11.0,0.0
5030,70.0,120.0,60.0,2.0,0.0
5031,65.0,0.0,30.0,10.0,0.0
5032,82.0,0.0,60.0,1.0,0.0
5033,55.0,0.0,30.0,11.0,0.0
5034,67.0,0.0,30.0,10.0,0.0
5035,67.0,0.0,30.0,8.0,0.0
5036,67.0,0.0,30.0,7.0,0.0
5037,68.0,0.0,780.0,4.0,0.0
5038,68.0,0.0,120.0,8.0,0.0
5039,56.0,0.0,180.0,3.0,0.0
5040,68.0,60.0,120.0,7.0,0.0
5041,68.0,0.0,120.0,10.0,0.0
5042,56.0,0.0,120.0,11.0,0.0
5043,56.0,60.0,780.0,4.0,0.0
5044,68.0,0.0,15.0,2.0,0.0
5045,72.0,0.0,90.0,2.0,0.0
5046,80.0,90.0,15.0,1.0,0.0
5047,56.0,0.0,90.0,3.0,0.0
5048,60.0,0.0,90.0,3.0,0.0
5049,84.0,30.0,90.0,1.0,0.0
5050,51.0,0.0,30.0,3.0,0.0
5051,68.0,0.0,15.0,2.0,0.0
5052,80.0,0.0,15.0,1.0,0.0
5053,75.0,60.0,30.0,1.0,0.0
5054,56.0,0.0,30.0,3.0,0.0
5055,63.0,0.0,30.0,2.0,0.0
5056,63.0,0.0,60.0,2.0,0.0
5057,68.0,0.0,60.0,2.0,0.0
5058,56.0,0.0,60.0,3.0,0.0
5059,75.0,90.0,60.0,1.0,0.0
5060,80.0,0.0,60.0,1.0,0.0
5061,51.0,0.0,60.0,3.0,0.0
5062,73.0,30.0,90.0,2.0,0.0
5063,70.0,0.0,90.0,2.0,0.0
5064,85.0,0.0,90.0,1.0,0.0
5065,61.0,0.0,90.0,3.0,0.0
5066,58.0,0.0,90.0,3.0,0.0
5067,58.0,0.0,30.0,3.0,0.0
5068,82.0,0.0,15.0,1.0,0.0
5069,63.0,0.0,30.0,2.0,0.0
5070,70.0,0.0,30.0,2.0,0.0
5071,51.0,0.0,15.0,3.0,0.0
5072,58.0,0.0,60.0,3.0,0.0
5073,82.0,0.0,15.0,1.0,0.0
5074,75.0,60.0,15.0,1.0,0.0
5075,63.0,0.0,60.0,2.0,0.0
5076,70.0,0.0,60.0,2.0,0.0
5077,75.0,0.0,360.0,2.0,0.0
5078,72.0,0.0,360.0,2.0,0.0
5079,84.0,0.0,360.0,1.0,0.0
5080,60.0,0.0,360.0,3.0,0.0
5081,68.0,0.0,180.0,8.0,0.0
5082,68.0,0.0,180.0,7.0,0.0
5083,56.0,0.0,180.0,10.0,0.0
5084,56.0,0.0,180.0,11.0,0.0
5085,75.0,60.0,15.0,4.0,0.0
5086,87.0,0.0,15.0,1.0,0.0
5087,72.0,0.0,180.0,7.0,0.0
5088,75.0,0.0,15.0,4.0,0.0
5089,92.0,0.0,90.0,0.0,0.0
5090,60.0,0.0,180.0,11.0,0.0
5091,60.0,0.0,180.0,10.0,0.0
5092,63.0,60.0,15.0,3.0,0.0
5093,80.0,0.0,90.0,2.0,0.0
5094,72.0,0.0,180.0,8.0,0.0
5095,68.0,0.0,90.0,3.0,0.0
5096,75.0,0.0,60.0,4.0,0.0
5097,75.0,0.0,15.0,2.0,0.0
5098,72.0,0.0,30.0,2.0,0.0
5099,84.0,60.0,30.0,1.0,0.0
5100,63.0,30.0,15.0,3.0,0.0
5101,87.0,0.0,30.0,0.0,0.0
5102,60.0,0.0,30.0,3.0,0.0
5103,75.0,0.0,60.0,2.0,0.0
5104,87.0,0.0,60.0,0.0,0.0
5105,60.0,0.0,60.0,3.0,0.0
5106,63.0,0.0,60.0,3.0,0.0
5107,72.0,0.0,60.0,2.0,0.0
5108,75.0,0.0,90.0,2.0,0.0
5109,63.0,30.0,90.0,3.0,0.0
5110,63.0,0.0,180.0,10.0,0.0
5111,75.0,0.0,180.0,8.0,0.0
5112,84.0,0.0,15.0,1.0,0.0
5113,63.0,0.0,180.0,11.0,0.0
5114,87.0,0.0,90.0,0.0,0.0
5115,75.0,60.0,15.0,4.0,0.0
5116,75.0,0.0,180.0,7.0,0.0
5117,75.0,0.0,60.0,4.0,0.0
5118,84.0,0.0,30.0,0.0,0.0
5119,72.0,0.0,15.0,2.0,0.0
5120,80.0,0.0,30.0,1.0,0.0
5121,60.0,0.0,15.0,3.0,0.0
5122,56.0,0.0,30.0,3.0,0.0
5123,80.0,0.0,60.0,1.0,0.0
5124,60.0,0.0,15.0,3.0,0.0
5125,68.0,60.0,15.0,2.0,0.0
5126,80.0,0.0,60.0,1.0,0.0
5127,72.0,0.0,15.0,2.0,0.0
5128,63.0,0.0,180.0,7.0,0.0
5129,68.0,0.0,60.0,2.0,0.0
5130,63.0,0.0,180.0,8.0,0.0
5131,60.0,0.0,15.0,3.0,0.0
5132,51.0,0.0,180.0,11.0,0.0
5133,75.0,0.0,15.0,4.0,0.0
5134,56.0,0.0,15.0,3.0,0.0
5135,84.0,60.0,15.0,0.0,0.0
5136,63.0,0.0,180.0,10.0,0.0
5137,85.0,0.0,60.0,0.0,0.0
5138,82.0,0.0,60.0,1.0,0.0
5139,70.0,0.0,60.0,2.0,0.0
5140,61.0,0.0,60.0,3.0,0.0
5141,75.0,60.0,15.0,4.0,0.0
5142,73.0,0.0,60.0,2.0,0.0
5143,58.0,60.0,15.0,3.0,0.0
5144,75.0,0.0,15.0,4.0,0.0
5145,79.0,0.0,60.0,1.0,0.0
5146,55.0,0.0,60.0,3.0,0.0
5147,67.0,0.0,60.0,2.0,0.0
5148,70.0,0.0,60.0,2.0,0.0
5149,82.0,0.0,60.0,0.0,0.0
5150,56.0,0.0,120.0,6.0,0.0
5151,68.0,0.0,60.0,3.0,0.0
5152,56.0,0.0,60.0,3.0,0.0
5153,68.0,0.0,120.0,8.0,0.0
5154,75.0,0.0,120.0,8.0,0.0
5155,75.0,0.0,120.0,7.0,0.0
5156,68.0,0.0,120.0,5.0,0.0
5157,80.0,0.0,180.0,7.0,0.0
5158,56.0,0.0,180.0,10.0,0.0
5159,56.0,0.0,60.0,4.0,0.0
5160,68.0,0.0,60.0,4.0,0.0
5161,68.0,0.0,60.0,2.0,0.0
5162,56.0,60.0,60.0,4.0,0.0
5163,68.0,0.0,60.0,4.0,0.0
5164,80.0,0.0,15.0,1.0,0.0
5165,68.0,0.0,60.0,2.0,0.0
5166,80.0,60.0,15.0,0.0,0.0
5167,92.0,0.0,60.0,0.0,0.0
5168,68.0,0.0,15.0,3.0,0.0
5169,56.0,0.0,15.0,3.0,0.0
5170,80.0,0.0,60.0,1.0,0.0
5171,68.0,0.0,60.0,2.0,0.0
5172,80.0,0.0,15.0,2.0,0.0
5173,92.0,0.0,60.0,0.0,0.0
5174,80.0,0.0,60.0,0.0,0.0
5175,56.0,0.0,60.0,4.0,0.0
5176,56.0,0.0,15.0,11.0,0.0
5177,84.0,30.0,90.0,7.0,0.0
5178,68.0,0.0,120.0,5.0,0.0
5179,80.0,0.0,15.0,2.0,0.0
5180,56.0,0.0,60.0,4.0,0.0
5181,68.0,0.0,15.0,4.0,0.0
5182,68.0,0.0,90.0,10.0,0.0
5183,72.0,0.0,90.0,8.0,0.0
5184,56.0,0.0,15.0,3.0,0.0
5185,56.0,0.0,120.0,6.0,0.0
5186,80.0,0.0,15.0,1.0,0.0
5187,80.0,0.0,15.0,2.0,0.0
5188,80.0,0.0,15.0,0.0,0.0
5189,92.0,0.0,15.0,0.0,0.0
5190,68.0,0.0,15.0,4.0,0.0
5191,68.0,30.0,15.0,2.0,0.0
5192,68.0,0.0,15.0,3.0,0.0
5193,56.0,0.0,30.0,11.0,0.0
5194,68.0,0.0,30.0,8.0,0.0
5195,80.0,0.0,30.0,7.0,0.0
5196,68.0,0.0,15.0,2.0,0.0
5197,56.0,0.0,15.0,4.0,0.0
5198,68.0,0.0,60.0,4.0,0.0
5199,68.0,0.0,60.0,8.0,0.0
5200,63.0,0.0,15.0,10.0,0.0
5201,56.0,0.0,15.0,3.0,0.0
5202,68.0,0.0,15.0,3.0,0.0
5203,80.0,0.0,15.0,0.0,0.0
5204,92.0,0.0,15.0,0.0,0.0
5205,56.0,0.0,60.0,11.0,0.0
5206,80.0,60.0,15.0,2.0,0.0
5207,80.0,0.0,60.0,7.0,0.0
5208,56.0,0.0,15.0,4.0,0.0
5209,70.0,0.0,90.0,10.0,0.0
5210,73.0,30.0,90.0,8.0,0.0
5211,56.0,0.0,15.0,3.0,0.0
5212,68.0,0.0,15.0,3.0,0.0
5213,56.0,0.0,120.0,6.0,0.0
5214,80.0,0.0,15.0,1.0,0.0
5215,68.0,0.0,120.0,5.0,0.0
5216,68.0,0.0,60.0,4.0,0.0
5217,85.0,0.0,90.0,7.0,0.0
5218,80.0,0.0,15.0,2.0,0.0
5219,80.0,0.0,15.0,1.0,0.0
5220,80.0,0.0,15.0,0.0,0.0
5221,56.0,0.0,60.0,3.0,0.0
5222,68.0,0.0,15.0,3.0,0.0
5223,92.0,0.0,15.0,0.0,0.0
5224,80.0,30.0,15.0,2.0,0.0
5225,68.0,0.0,15.0,2.0,0.0
5226,56.0,0.0,15.0,11.0,0.0
5227,82.0,0.0,30.0,7.0,0.0
5228,63.0,0.0,15.0,10.0,0.0
5229,56.0,0.0,15.0,4.0,0.0
5230,68.0,0.0,15.0,4.0,0.0
5231,80.0,0.0,15.0,0.0,0.0
5232,92.0,0.0,15.0,0.0,0.0
5233,80.0,0.0,60.0,1.0,0.0
5234,82.0,0.0,60.0,7.0,0.0
5235,80.0,0.0,15.0,2.0,0.0
5236,68.0,0.0,15.0,2.0,0.0
5237,70.0,60.0,15.0,8.0,0.0
5238,68.0,60.0,60.0,3.0,0.0
5239,56.0,0.0,60.0,3.0,0.0
5240,83.0,0.0,60.0,2.0,0.0
5241,56.0,0.0,15.0,11.0,0.0
5242,83.0,0.0,60.0,0.0,0.0
5243,95.0,30.0,60.0,0.0,0.0
5244,68.0,0.0,120.0,5.0,0.0
5245,56.0,60.0,120.0,6.0,0.0
5246,71.0,0.0,90.0,10.0,0.0
5247,75.0,0.0,60.0,4.0,0.0
5248,71.0,0.0,15.0,2.0,0.0
5249,59.0,0.0,15.0,3.0,0.0
5250,71.0,0.0,15.0,3.0,0.0
5251,83.0,0.0,60.0,2.0,0.0
5252,83.0,0.0,15.0,1.0,0.0
5253,75.0,0.0,60.0,4.0,0.0
5254,95.0,0.0,60.0,0.0,0.0
5255,75.0,0.0,15.0,8.0,0.0
5256,56.0,0.0,30.0,11.0,0.0
5257,87.0,30.0,15.0,7.0,0.0
5258,59.0,0.0,30.0,10.0,0.0
5259,75.0,0.0,15.0,8.0,0.0
5260,83.0,0.0,15.0,0.0,0.0
5261,71.0,0.0,15.0,3.0,0.0
5262,54.0,90.0,60.0,11.0,0.0
5263,95.0,0.0,60.0,0.0,0.0
5264,59.0,0.0,60.0,3.0,0.0
5265,59.0,0.0,60.0,10.0,0.0
5266,57.0,0.0,60.0,10.0,0.0
5267,83.0,0.0,15.0,1.0,0.0
5268,83.0,0.0,60.0,2.0,0.0
5269,71.0,0.0,60.0,2.0,0.0
5270,75.0,0.0,60.0,4.0,0.0
5271,87.0,0.0,60.0,7.0,0.0
5272,76.0,0.0,120.0,2.0,0.0
5273,56.0,0.0,90.0,10.0,0.0
5274,59.0,0.0,90.0,10.0,0.0
5275,64.0,0.0,120.0,3.0,0.0
5276,68.0,0.0,120.0,5.0,0.0
5277,88.0,0.0,120.0,1.0,0.0
5278,76.0,0.0,120.0,1.0,0.0
5279,88.0,0.0,120.0,0.0,0.0
5280,88.0,0.0,90.0,7.0,0.0
5281,56.0,0.0,120.0,6.0,0.0
5282,68.0,0.0,120.0,4.0,0.0
5283,52.0,0.0,120.0,3.0,0.0
5284,56.0,60.0,120.0,4.0,0.0
5285,52.0,0.0,90.0,11.0,0.0
5286,88.0,0.0,30.0,7.0,0.0
5287,76.0,0.0,30.0,10.0,0.0
5288,76.0,30.0,15.0,8.0,0.0
5289,64.0,0.0,30.0,11.0,0.0
5290,71.0,0.0,60.0,8.0,0.0
5291,71.0,0.0,60.0,10.0,0.0
5292,83.0,90.0,60.0,7.0,0.0
5293,59.0,0.0,60.0,11.0,0.0
5294,68.0,0.0,90.0,8.0,0.0
5295,68.0,30.0,90.0,10.0,0.0
5296,56.0,0.0,15.0,11.0,0.0
5297,80.0,0.0,15.0,7.0,0.0
5298,68.0,0.0,30.0,8.0,0.0
5299,68.0,60.0,30.0,10.0,0.0
5300,52.0,90.0,60.0,11.0,0.0
5301,64.0,0.0,60.0,8.0,0.0
5302,76.0,0.0,60.0,7.0,0.0
5303,64.0,0.0,60.0,10.0,0.0
5304,59.0,30.0,90.0,10.0,0.0
5305,71.0,0.0,90.0,7.0,0.0
5306,59.0,0.0,90.0,8.0,0.0
5307,47.0,0.0,15.0,11.0,0.0
5308,71.0,0.0,30.0,8.0,0.0
5309,71.0,60.0,30.0,7.0,0.0
5310,59.0,0.0,30.0,10.0,0.0
5311,68.0,90.0,60.0,8.0,0.0
5312,68.0,0.0,60.0,7.0,0.0
5313,56.0,0.0,60.0,10.0,0.0
5314,44.0,0.0,60.0,11.0,0.0
5315,40.0,0.0,90.0,11.0,0.0
5316,64.0,30.0,90.0,7.0,0.0
5317,64.0,0.0,90.0,8.0,0.0
5318,64.0,60.0,30.0,8.0,0.0
5319,52.0,0.0,15.0,10.0,0.0
5320,64.0,0.0,30.0,7.0,0.0
5321,52.0,0.0,30.0,11.0,0.0
5322,47.0,0.0,60.0,11.0,0.0
5323,59.0,0.0,60.0,10.0,0.0
5324,59.0,0.0,60.0,7.0,0.0
5325,59.0,120.0,60.0,8.0,0.0
5326,52.0,0.0,120.0,10.0,0.0
5327,64.0,0.0,120.0,7.0,0.0
5328,52.0,0.0,120.0,11.0,0.0
5329,64.0,180.0,120.0,8.0,0.0
5330,59.0,60.0,30.0,10.0,0.0
5331,59.0,0.0,30.0,7.0,0.0
5332,59.0,0.0,30.0,8.0,0.0
5333,59.0,120.0,60.0,7.0,0.0
5334,47.0,0.0,15.0,11.0,0.0
5335,59.0,0.0,60.0,10.0,0.0
5336,59.0,0.0,60.0,8.0,0.0
5337,64.0,0.0,120.0,7.0,0.0
5338,64.0,0.0,120.0,8.0,0.0
5339,52.0,180.0,120.0,11.0,0.0
5340,52.0,0.0,120.0,10.0,0.0
5341,59.0,0.0,30.0,10.0,0.0
5342,59.0,0.0,30.0,7.0,0.0
5343,71.0,0.0,30.0,1.0,0.0
5344,59.0,0.0,15.0,3.0,0.0
5345,47.0,0.0,15.0,11.0,0.0
5346,59.0,60.0,15.0,8.0,0.0
5347,71.0,0.0,60.0,1.0,0.0
5348,59.0,0.0,60.0,10.0,0.0
5349,59.0,120.0,60.0,7.0,0.0
5350,52.0,0.0,120.0,11.0,0.0
5351,76.0,0.0,120.0,1.0,0.0
5352,52.0,0.0,120.0,10.0,0.0
5353,64.0,0.0,120.0,3.0,0.0
5354,64.0,0.0,120.0,8.0,0.0
5355,64.0,360.0,120.0,7.0,0.0
5356,64.0,0.0,120.0,8.0,0.0
5357,52.0,0.0,120.0,11.0,0.0
5358,76.0,0.0,120.0,1.0,0.0
5359,64.0,270.0,120.0,7.0,0.0
5360,64.0,0.0,120.0,3.0,0.0
5361,52.0,0.0,120.0,10.0,0.0
5362,70.0,0.0,30.0,10.0,0.0
5363,73.0,0.0,30.0,8.0,0.0
5364,64.0,30.0,30.0,8.0,0.0
5365,85.0,0.0,270.0,7.0,0.0
5366,67.0,0.0,15.0,10.0,0.0
5367,70.0,0.0,30.0,10.0,0.0
5368,73.0,30.0,15.0,8.0,0.0
5369,70.0,0.0,30.0,10.0,0.0
5370,64.0,0.0,15.0,8.0,0.0
5371,67.0,0.0,30.0,10.0,0.0
5372,64.0,0.0,30.0,8.0,0.0
5373,73.0,0.0,30.0,8.0,0.0
5374,67.0,0.0,15.0,10.0,0.0
5375,70.0,30.0,15.0,10.0,0.0
5376,43.0,0.0,30.0,11.0,0.0
5377,73.0,0.0,15.0,8.0,0.0
5378,64.0,0.0,15.0,8.0,0.0
5379,67.0,0.0,30.0,10.0,0.0
5380,70.0,0.0,30.0,10.0,0.0
5381,44.0,0.0,30.0,11.0,0.0
5382,64.0,0.0,15.0,8.0,0.0
5383,73.0,30.0,15.0,8.0,0.0
5384,46.0,30.0,120.0,11.0,0.0
5385,70.0,0.0,15.0,10.0,0.0
5386,67.0,0.0,15.0,10.0,0.0
5387,73.0,30.0,15.0,8.0,0.0
5388,64.0,0.0,15.0,8.0,0.0
5389,70.0,0.0,15.0,10.0,0.0
5390,67.0,0.0,30.0,10.0,0.0
5391,67.0,0.0,30.0,10.0,0.0
5392,70.0,0.0,30.0,10.0,0.0
5393,73.0,30.0,15.0,8.0,0.0
5394,83.0,0.0,30.0,7.0,0.0
5395,64.0,0.0,15.0,8.0,0.0
5396,67.0,0.0,30.0,10.0,0.0
5397,73.0,0.0,15.0,8.0,0.0
5398,82.0,0.0,60.0,7.0,0.0
5399,70.0,0.0,15.0,10.0,0.0
5400,64.0,0.0,30.0,8.0,0.0
5401,67.0,0.0,15.0,10.0,0.0
5402,73.0,30.0,15.0,8.0,0.0
5403,85.0,0.0,270.0,7.0,0.0
5404,70.0,0.0,15.0,10.0,0.0
5405,64.0,30.0,15.0,8.0,0.0
5406,67.0,0.0,30.0,10.0,0.0
5407,73.0,0.0,15.0,8.0,0.0
5408,70.0,30.0,15.0,10.0,0.0
5409,64.0,30.0,30.0,8.0,0.0
5410,67.0,0.0,15.0,10.0,0.0
5411,64.0,0.0,30.0,8.0,0.0
5412,73.0,0.0,30.0,8.0,0.0
5413,70.0,0.0,30.0,10.0,0.0
5414,73.0,0.0,30.0,8.0,0.0
5415,70.0,0.0,30.0,10.0,0.0
5416,82.0,0.0,30.0,1.0,0.0
5417,64.0,0.0,30.0,8.0,0.0
5418,67.0,30.0,15.0,10.0,0.0
5419,70.0,0.0,30.0,10.0,0.0
5420,83.0,0.0,30.0,1.0,0.0
5421,64.0,30.0,30.0,8.0,0.0
5422,73.0,0.0,15.0,8.0,0.0
5423,64.0,0.0,30.0,8.0,0.0
5424,85.0,30.0,60.0,1.0,0.0
5425,70.0,30.0,15.0,10.0,0.0
5426,67.0,0.0,15.0,10.0,0.0
5427,73.0,0.0,15.0,8.0,0.0
5428,64.0,0.0,15.0,8.0,0.0
5429,73.0,0.0,15.0,8.0,0.0
5430,83.0,0.0,30.0,7.0,0.0
5431,70.0,30.0,15.0,10.0,0.0
5432,73.0,0.0,15.0,8.0,0.0
5433,64.0,0.0,15.0,8.0,0.0
5434,67.0,0.0,15.0,10.0,0.0
5435,67.0,0.0,15.0,10.0,0.0
5436,70.0,0.0,30.0,10.0,0.0
5437,64.0,0.0,30.0,8.0,0.0
5438,73.0,0.0,30.0,8.0,0.0
5439,82.0,0.0,60.0,7.0,0.0
5440,67.0,30.0,15.0,10.0,0.0
5441,85.0,0.0,270.0,7.0,0.0
5442,64.0,0.0,15.0,8.0,0.0
5443,73.0,30.0,15.0,8.0,0.0
5444,70.0,0.0,15.0,10.0,0.0
5445,67.0,0.0,15.0,10.0,0.0
5446,67.0,0.0,15.0,10.0,0.0
5447,70.0,30.0,15.0,10.0,0.0
5448,73.0,30.0,15.0,8.0,0.0
5449,64.0,0.0,15.0,8.0,0.0
5450,67.0,30.0,30.0,10.0,0.0
5451,70.0,0.0,30.0,10.0,0.0
5452,73.0,0.0,30.0,8.0,0.0
5453,64.0,0.0,30.0,8.0,0.0
5454,67.0,0.0,30.0,10.0,0.0
5455,64.0,0.0,30.0,8.0,0.0
5456,43.0,0.0,30.0,11.0,0.0
5457,67.0,0.0,30.0,10.0,0.0
5458,70.0,30.0,15.0,10.0,0.0
5459,44.0,0.0,30.0,11.0,0.0
5460,70.0,0.0,15.0,10.0,0.0
5461,73.0,30.0,15.0,8.0,0.0
5462,64.0,0.0,15.0,8.0,0.0
5463,70.0,30.0,15.0,10.0,0.0
5464,67.0,0.0,15.0,10.0,0.0
5465,46.0,0.0,120.0,11.0,0.0
5466,73.0,0.0,30.0,8.0,0.0
5467,70.0,0.0,30.0,10.0,0.0
5468,64.0,0.0,30.0,8.0,0.0
5469,73.0,0.0,30.0,8.0,0.0
5470,64.0,0.0,30.0,8.0,0.0
5471,73.0,0.0,30.0,8.0,0.0
5472,67.0,30.0,15.0,10.0,0.0
5473,67.0,0.0,15.0,10.0,0.0
5474,70.0,30.0,15.0,10.0,0.0
5475,83.0,0.0,30.0,7.0,0.0
5476,73.0,0.0,30.0,8.0,0.0
5477,82.0,0.0,60.0,7.0,0.0
5478,67.0,0.0,30.0,10.0,0.0
5479,64.0,30.0,15.0,8.0,0.0
5480,73.0,0.0,30.0,8.0,0.0
5481,70.0,30.0,15.0,10.0,0.0
5482,73.0,0.0,15.0,8.0,0.0
5483,64.0,0.0,15.0,8.0,0.0
5484,85.0,0.0,270.0,7.0,0.0
5485,67.0,30.0,15.0,10.0,0.0
5486,73.0,0.0,15.0,8.0,0.0
5487,64.0,0.0,15.0,8.0,0.0
5488,70.0,30.0,15.0,10.0,0.0
5489,70.0,0.0,15.0,10.0,0.0
5490,64.0,0.0,15.0,8.0,0.0
5491,67.0,30.0,15.0,10.0,0.0
5492,67.0,30.0,15.0,10.0,0.0
5493,70.0,0.0,30.0,10.0,0.0
5494,73.0,0.0,15.0,8.0,0.0
5495,64.0,0.0,15.0,8.0,0.0
5496,67.0,30.0,30.0,10.0,0.0
5497,70.0,0.0,30.0,10.0,0.0
5498,73.0,30.0,15.0,8.0,0.0
5499,64.0,0.0,15.0,8.0,0.0
5500,82.0,0.0,30.0,1.0,0.0
5501,83.0,0.0,30.0,1.0,0.0
5502,73.0,0.0,30.0,8.0,0.0
5503,85.0,0.0,60.0,1.0,0.0
5504,64.0,0.0,15.0,8.0,0.0
5505,67.0,30.0,15.0,10.0,0.0
5506,70.0,0.0,15.0,10.0,0.0
5507,73.0,0.0,30.0,8.0,0.0
5508,73.0,0.0,15.0,8.0,0.0
5509,64.0,0.0,15.0,8.0,0.0
5510,70.0,30.0,15.0,10.0,0.0
5511,67.0,0.0,15.0,10.0,0.0
5512,64.0,0.0,15.0,8.0,0.0
5513,83.0,0.0,30.0,7.0,0.0
5514,67.0,0.0,15.0,10.0,0.0
5515,73.0,0.0,15.0,8.0,0.0
5516,82.0,30.0,60.0,7.0,0.0
5517,70.0,30.0,15.0,10.0,0.0
5518,64.0,0.0,30.0,8.0,0.0
5519,73.0,0.0,15.0,8.0,0.0
5520,67.0,0.0,30.0,10.0,0.0
5521,70.0,30.0,15.0,10.0,0.0
5522,64.0,0.0,30.0,8.0,0.0
5523,70.0,0.0,30.0,10.0,0.0
5524,85.0,0.0,270.0,7.0,0.0
5525,67.0,0.0,30.0,10.0,0.0
5526,73.0,0.0,30.0,8.0,0.0
5527,61.0,0.0,30.0,10.0,0.0
5528,63.0,30.0,15.0,8.0,0.0
5529,61.0,0.0,30.0,10.0,0.0
5530,63.0,30.0,15.0,8.0,0.0
5531,61.0,30.0,30.0,10.0,0.0
5532,63.0,30.0,15.0,8.0,0.0
5533,43.0,30.0,30.0,11.0,0.0
5534,82.0,0.0,30.0,1.0,0.0
5535,58.0,0.0,30.0,10.0,0.0
5536,60.0,0.0,30.0,10.0,0.0
5537,44.0,0.0,30.0,11.0,0.0
5538,63.0,0.0,15.0,8.0,0.0
5539,84.0,0.0,30.0,1.0,0.0
5540,85.0,30.0,120.0,1.0,0.0
5541,46.0,30.0,60.0,11.0,0.0
5542,63.0,30.0,15.0,8.0,0.0
5543,61.0,0.0,30.0,10.0,0.0
5544,61.0,0.0,30.0,10.0,0.0
5545,73.0,0.0,15.0,8.0,0.0
5546,61.0,30.0,15.0,10.0,0.0
5547,84.0,0.0,30.0,7.0,0.0
5548,73.0,0.0,30.0,8.0,0.0
5549,82.0,0.0,60.0,7.0,0.0
5550,72.0,0.0,30.0,8.0,0.0
5551,61.0,0.0,30.0,10.0,0.0
5552,44.0,30.0,30.0,11.0,0.0
5553,73.0,30.0,30.0,8.0,0.0
5554,61.0,0.0,30.0,10.0,0.0
5555,46.0,0.0,30.0,11.0,0.0
5556,48.0,0.0,60.0,11.0,0.0
5557,87.0,0.0,270.0,7.0,0.0
5558,75.0,30.0,30.0,8.0,0.0
5559,61.0,0.0,30.0,10.0,0.0
5560,60.0,0.0,30.0,10.0,0.0
5561,63.0,30.0,15.0,8.0,0.0
5562,60.0,30.0,15.0,10.0,0.0
5563,63.0,0.0,30.0,8.0,0.0
5564,63.0,0.0,30.0,8.0,0.0
5565,72.0,0.0,30.0,2.0,0.0
5566,60.0,30.0,30.0,10.0,0.0
5567,44.0,0.0,30.0,11.0,0.0
5568,73.0,0.0,30.0,2.0,0.0
5569,61.0,30.0,30.0,10.0,0.0
5570,46.0,0.0,30.0,11.0,0.0
5571,75.0,0.0,120.0,2.0,0.0
5572,48.0,0.0,60.0,11.0,0.0
5573,63.0,0.0,15.0,8.0,0.0
5574,63.0,0.0,30.0,10.0,0.0
5575,75.0,0.0,30.0,8.0,0.0
5576,75.0,0.0,30.0,8.0,0.0
5577,63.0,30.0,15.0,10.0,0.0
5578,75.0,30.0,30.0,8.0,0.0
5579,63.0,0.0,30.0,10.0,0.0
5580,85.0,0.0,30.0,7.0,0.0
5581,46.0,30.0,30.0,11.0,0.0
5582,84.0,0.0,60.0,7.0,0.0
5583,73.0,0.0,30.0,8.0,0.0
5584,48.0,0.0,30.0,11.0,0.0
5585,75.0,30.0,30.0,8.0,0.0
5586,63.0,0.0,15.0,10.0,0.0
5587,49.0,30.0,60.0,11.0,0.0
5588,89.0,30.0,270.0,7.0,0.0
5589,63.0,0.0,15.0,10.0,0.0
5590,77.0,30.0,30.0,8.0,0.0
5591,61.0,0.0,30.0,10.0,0.0
5592,65.0,0.0,15.0,8.0,0.0
5593,61.0,30.0,15.0,10.0,0.0
5594,65.0,30.0,30.0,8.0,0.0
5595,46.0,0.0,30.0,11.0,0.0
5596,61.0,0.0,30.0,10.0,0.0
5597,61.0,0.0,30.0,3.0,0.0
5598,65.0,30.0,15.0,8.0,0.0
5599,63.0,0.0,30.0,10.0,0.0
5600,63.0,0.0,30.0,3.0,0.0
5601,48.0,30.0,30.0,11.0,0.0
5602,49.0,0.0,60.0,11.0,0.0
5603,65.0,0.0,120.0,3.0,0.0
5604,65.0,30.0,30.0,8.0,0.0
5605,65.0,0.0,30.0,10.0,0.0
5606,65.0,0.0,30.0,10.0,0.0
5607,77.0,30.0,15.0,8.0,0.0
5608,77.0,0.0,15.0,8.0,0.0
5609,65.0,0.0,15.0,10.0,0.0
5610,87.0,30.0,30.0,7.0,0.0
5611,48.0,0.0,30.0,11.0,0.0
5612,75.0,30.0,30.0,8.0,0.0
5613,85.0,30.0,60.0,7.0,0.0
5614,77.0,0.0,30.0,8.0,0.0
5615,65.0,0.0,15.0,10.0,0.0
5616,49.0,0.0,30.0,11.0,0.0
5617,65.0,30.0,30.0,10.0,0.0
5618,91.0,0.0,270.0,7.0,0.0
5619,79.0,0.0,30.0,8.0,0.0
5620,51.0,0.0,60.0,11.0,0.0
5621,67.0,30.0,30.0,8.0,0.0
5622,63.0,0.0,15.0,10.0,0.0
5623,67.0,0.0,15.0,8.0,0.0
5624,63.0,30.0,15.0,10.0,0.0
5625,67.0,30.0,15.0,8.0,0.0
5626,63.0,30.0,30.0,10.0,0.0
5627,75.0,0.0,30.0,1.0,0.0
5628,48.0,0.0,30.0,11.0,0.0
5629,77.0,0.0,30.0,1.0,0.0
5630,65.0,0.0,30.0,10.0,0.0
5631,49.0,30.0,30.0,11.0,0.0
5632,67.0,0.0,15.0,8.0,0.0
5633,51.0,0.0,60.0,11.0,0.0
5634,79.0,30.0,120.0,1.0,0.0
5635,67.0,0.0,15.0,10.0,0.0
5636,67.0,30.0,30.0,10.0,0.0
5637,79.0,30.0,15.0,8.0,0.0
5638,79.0,0.0,15.0,8.0,0.0
5639,89.0,0.0,30.0,7.0,0.0
5640,67.0,0.0,30.0,10.0,0.0
5641,87.0,0.0,60.0,7.0,0.0
5642,49.0,0.0,30.0,11.0,0.0
5643,77.0,0.0,30.0,8.0,0.0
5644,67.0,30.0,15.0,10.0,0.0
5645,51.0,0.0,30.0,11.0,0.0
5646,79.0,30.0,30.0,8.0,0.0
5647,80.0,0.0,30.0,8.0,0.0
5648,67.0,0.0,15.0,10.0,0.0
5649,53.0,0.0,60.0,11.0,0.0
5650,92.0,0.0,270.0,7.0,0.0
5651,68.0,30.0,15.0,8.0,0.0
5652,65.0,0.0,15.0,10.0,0.0
5653,65.0,0.0,15.0,10.0,0.0
5654,68.0,30.0,15.0,8.0,0.0
5655,89.0,0.0,30.0,0.0,0.0
5656,49.0,30.0,30.0,11.0,0.0
5657,65.0,0.0,30.0,10.0,0.0
5658,67.0,30.0,30.0,10.0,0.0
5659,68.0,0.0,15.0,8.0,0.0
5660,91.0,0.0,30.0,0.0,0.0
5661,51.0,0.0,30.0,11.0,0.0
5662,68.0,0.0,15.0,8.0,0.0
5663,53.0,0.0,60.0,11.0,0.0
5664,92.0,0.0,120.0,0.0,0.0
5665,68.0,0.0,15.0,10.0,0.0
5666,80.0,30.0,30.0,8.0,0.0
5667,68.0,0.0,15.0,10.0,0.0
5668,80.0,30.0,30.0,8.0,0.0
5669,91.0,0.0,30.0,7.0,0.0
5670,68.0,0.0,15.0,10.0,0.0
5671,80.0,0.0,30.0,8.0,0.0
5672,89.0,0.0,60.0,7.0,0.0
5673,79.0,0.0,30.0,8.0,0.0
5674,68.0,0.0,30.0,10.0,0.0
5675,51.0,30.0,30.0,11.0,0.0
5676,80.0,0.0,30.0,8.0,0.0
5677,68.0,0.0,30.0,10.0,0.0
5678,53.0,30.0,30.0,11.0,0.0
5679,82.0,30.0,30.0,8.0,0.0
5680,68.0,0.0,30.0,10.0,0.0
5681,55.0,0.0,60.0,11.0,0.0
5682,94.0,0.0,270.0,7.0,0.0
5683,67.0,30.0,30.0,10.0,0.0
5684,70.0,0.0,30.0,8.0,0.0
5685,70.0,0.0,30.0,8.0,0.0
5686,67.0,30.0,30.0,10.0,0.0
5687,70.0,30.0,30.0,8.0,0.0
5688,67.0,0.0,30.0,10.0,0.0
5689,67.0,0.0,30.0,10.0,0.0
5690,70.0,0.0,30.0,8.0,0.0
5691,91.0,0.0,30.0,0.0,0.0
5692,51.0,0.0,30.0,11.0,0.0
5693,79.0,0.0,30.0,1.0,0.0
5694,67.0,30.0,30.0,3.0,0.0
5695,92.0,0.0,30.0,0.0,0.0
5696,68.0,0.0,30.0,3.0,0.0
5697,80.0,0.0,30.0,1.0,0.0
5698,53.0,0.0,30.0,11.0,0.0
5699,68.0,0.0,30.0,10.0,0.0
5700,94.0,0.0,60.0,0.0,0.0
5701,55.0,0.0,60.0,11.0,0.0
5702,70.0,30.0,15.0,8.0,0.0
5703,70.0,0.0,60.0,3.0,0.0
5704,82.0,30.0,60.0,1.0,0.0
5705,70.0,0.0,15.0,10.0,0.0
5706,82.0,0.0,15.0,8.0,0.0
5707,70.0,30.0,30.0,10.0,0.0
5708,92.0,0.0,30.0,7.0,0.0
5709,82.0,30.0,30.0,8.0,0.0
5710,92.0,0.0,30.0,0.0,0.0
5711,91.0,0.0,60.0,7.0,0.0
5712,70.0,0.0,15.0,10.0,0.0
5713,68.0,0.0,30.0,3.0,0.0
5714,53.0,0.0,30.0,11.0,0.0
5715,80.0,0.0,30.0,8.0,0.0
5716,80.0,30.0,30.0,1.0,0.0
5717,65.0,0.0,30.0,3.0,0.0
5718,70.0,30.0,30.0,10.0,0.0
5719,55.0,0.0,30.0,11.0,0.0
5720,70.0,0.0,30.0,3.0,0.0
5721,67.0,0.0,30.0,3.0,0.0
5722,82.0,0.0,30.0,8.0,0.0
5723,94.0,0.0,30.0,0.0,0.0
5724,82.0,0.0,30.0,1.0,0.0
5725,96.0,0.0,540.0,0.0,0.0
5726,80.0,0.0,540.0,2.0,0.0
5727,56.0,0.0,540.0,4.0,0.0
5728,84.0,0.0,30.0,8.0,0.0
5729,84.0,0.0,540.0,1.0,0.0
5730,72.0,0.0,540.0,2.0,0.0
5731,68.0,0.0,540.0,3.0,0.0
5732,72.0,0.0,540.0,3.0,0.0
5733,72.0,0.0,30.0,10.0,0.0
5734,80.0,0.0,540.0,1.0,0.0
5735,56.0,0.0,90.0,11.0,0.0
5736,68.0,0.0,120.0,5.0,0.0
5737,56.0,0.0,120.0,6.0,0.0
5738,75.0,0.0,30.0,10.0,0.0
5739,96.0,30.0,15.0,7.0,0.0
5740,92.0,0.0,30.0,8.0,0.0
5741,80.0,0.0,30.0,8.0,0.0
5742,72.0,0.0,15.0,10.0,0.0
5743,96.0,30.0,15.0,7.0,0.0
5744,92.0,0.0,30.0,8.0,0.0
5745,75.0,0.0,15.0,10.0,0.0
5746,68.0,0.0,30.0,11.0,0.0
5747,80.0,0.0,15.0,8.0,0.0
5748,96.0,30.0,15.0,7.0,0.0
5749,75.0,0.0,15.0,10.0,0.0
5750,72.0,30.0,15.0,10.0,0.0
5751,92.0,0.0,15.0,8.0,0.0
5752,80.0,0.0,15.0,8.0,0.0
5753,96.0,0.0,15.0,7.0,0.0
5754,63.0,0.0,60.0,11.0,0.0
5755,75.0,30.0,30.0,10.0,0.0
5756,72.0,30.0,15.0,10.0,0.0
5757,80.0,0.0,30.0,8.0,0.0
5758,92.0,0.0,15.0,8.0,0.0
5759,96.0,0.0,15.0,7.0,0.0
5760,96.0,0.0,15.0,7.0,0.0
5761,92.0,0.0,30.0,8.0,0.0
5762,92.0,0.0,30.0,8.0,0.0
5763,80.0,0.0,15.0,8.0,0.0
5764,72.0,0.0,15.0,10.0,0.0
5765,75.0,30.0,15.0,10.0,0.0
5766,96.0,0.0,30.0,7.0,0.0
5767,96.0,30.0,30.0,7.0,0.0
5768,75.0,0.0,30.0,10.0,0.0
5769,60.0,0.0,15.0,11.0,0.0
5770,92.0,0.0,15.0,8.0,0.0
5771,80.0,0.0,15.0,8.0,0.0
5772,72.0,0.0,15.0,10.0,0.0
5773,96.0,0.0,30.0,7.0,0.0
5774,80.0,0.0,30.0,8.0,0.0
5775,92.0,0.0,15.0,8.0,0.0
5776,72.0,0.0,15.0,10.0,0.0
5777,75.0,0.0,15.0,10.0,0.0
5778,56.0,0.0,60.0,11.0,0.0
5779,80.0,0.0,30.0,8.0,0.0
5780,96.0,0.0,15.0,7.0,0.0
5781,72.0,0.0,15.0,10.0,0.0
5782,75.0,0.0,30.0,10.0,0.0
5783,92.0,30.0,15.0,8.0,0.0
5784,75.0,0.0,30.0,10.0,0.0
5785,72.0,30.0,15.0,10.0,0.0
5786,80.0,0.0,30.0,8.0,0.0
5787,75.0,0.0,30.0,10.0,0.0
5788,92.0,0.0,15.0,8.0,0.0
5789,96.0,30.0,15.0,7.0,0.0
5790,72.0,0.0,15.0,10.0,0.0
5791,75.0,0.0,30.0,10.0,0.0
5792,80.0,0.0,15.0,8.0,0.0
5793,92.0,0.0,15.0,8.0,0.0
5794,96.0,30.0,15.0,7.0,0.0
5795,51.0,0.0,15.0,11.0,0.0
5796,96.0,0.0,15.0,7.0,0.0
5797,80.0,0.0,30.0,8.0,0.0
5798,92.0,0.0,30.0,8.0,0.0
5799,96.0,0.0,15.0,7.0,0.0
5800,80.0,0.0,30.0,8.0,0.0
5801,75.0,0.0,15.0,10.0,0.0
5802,92.0,0.0,30.0,8.0,0.0
5803,48.0,0.0,60.0,11.0,0.0
5804,72.0,30.0,15.0,10.0,0.0
5805,80.0,30.0,30.0,8.0,0.0
5806,96.0,0.0,15.0,7.0,0.0
5807,92.0,0.0,30.0,8.0,0.0
5808,72.0,0.0,30.0,10.0,0.0
5809,75.0,0.0,30.0,10.0,0.0
5810,56.0,0.0,90.0,4.0,0.0
5811,68.0,0.0,15.0,4.0,0.0
5812,96.0,0.0,30.0,7.0,0.0
5813,44.0,0.0,120.0,11.0,0.0
5814,68.0,0.0,90.0,3.0,0.0
5815,92.0,0.0,15.0,0.0,0.0
5816,96.0,0.0,90.0,0.0,0.0
5817,72.0,0.0,90.0,3.0,0.0
5818,72.0,0.0,90.0,2.0,0.0
5819,80.0,0.0,30.0,8.0,0.0
5820,80.0,0.0,90.0,2.0,0.0
5821,75.0,0.0,15.0,10.0,0.0
5822,72.0,0.0,15.0,10.0,0.0
5823,92.0,30.0,15.0,8.0,0.0
5824,80.0,30.0,15.0,8.0,0.0
5825,72.0,0.0,30.0,10.0,0.0
5826,75.0,0.0,15.0,10.0,0.0
5827,96.0,0.0,15.0,7.0,0.0
5828,92.0,0.0,30.0,8.0,0.0
5829,68.0,0.0,30.0,3.0,0.0
5830,75.0,0.0,15.0,10.0,0.0
5831,56.0,0.0,15.0,6.0,0.0
5832,68.0,0.0,15.0,5.0,0.0
5833,84.0,0.0,15.0,1.0,0.0
5834,80.0,0.0,15.0,1.0,0.0
5835,92.0,0.0,30.0,0.0,0.0
5836,96.0,0.0,30.0,0.0,0.0
5837,72.0,0.0,30.0,2.0,0.0
5838,80.0,0.0,30.0,2.0,0.0
5839,96.0,0.0,15.0,7.0,0.0
5840,80.0,30.0,15.0,8.0,0.0
5841,72.0,0.0,15.0,3.0,0.0
5842,80.0,0.0,15.0,1.0,0.0
5843,92.0,0.0,60.0,0.0,0.0
5844,56.0,0.0,60.0,6.0,0.0
5845,92.0,0.0,15.0,8.0,0.0
5846,96.0,0.0,30.0,7.0,0.0
5847,68.0,0.0,60.0,3.0,0.0
5848,96.0,0.0,60.0,0.0,0.0
5849,84.0,0.0,60.0,1.0,0.0
5850,68.0,30.0,15.0,5.0,0.0
5851,72.0,0.0,15.0,10.0,0.0
5852,72.0,30.0,60.0,2.0,0.0
5853,68.0,0.0,15.0,4.0,0.0
5854,56.0,0.0,15.0,4.0,0.0
5855,92.0,0.0,15.0,8.0,0.0
5856,80.0,30.0,15.0,8.0,0.0
5857,75.0,0.0,15.0,10.0,0.0
5858,72.0,0.0,15.0,10.0,0.0
5859,96.0,0.0,30.0,7.0,0.0
5860,82.0,0.0,540.0,1.0,0.0
5861,80.0,0.0,15.0,8.0,0.0
5862,92.0,0.0,15.0,8.0,0.0
5863,80.0,0.0,15.0,1.0,0.0
5864,92.0,0.0,540.0,0.0,0.0
5865,94.0,0.0,540.0,0.0,0.0
5866,80.0,0.0,15.0,2.0,0.0
5867,70.0,0.0,540.0,2.0,0.0
5868,70.0,0.0,540.0,3.0,0.0
5869,68.0,0.0,540.0,4.0,0.0
5870,49.0,0.0,120.0,6.0,0.0
5871,96.0,0.0,30.0,7.0,0.0
5872,61.0,0.0,120.0,5.0,0.0
5873,49.0,30.0,120.0,5.0,0.0
5874,68.0,30.0,540.0,3.0,0.0
5875,92.0,30.0,15.0,8.0,0.0
5876,75.0,0.0,15.0,10.0,0.0
5877,72.0,0.0,15.0,10.0,0.0
5878,72.0,0.0,15.0,10.0,0.0
5879,80.0,0.0,15.0,8.0,0.0
5880,96.0,30.0,15.0,7.0,0.0
5881,92.0,0.0,15.0,8.0,0.0
5882,75.0,0.0,15.0,10.0,0.0
5883,72.0,0.0,15.0,10.0,0.0
5884,92.0,0.0,30.0,8.0,0.0
5885,96.0,0.0,15.0,7.0,0.0
5886,73.0,30.0,15.0,11.0,0.0
5887,80.0,0.0,30.0,8.0,0.0
5888,70.0,0.0,60.0,11.0,0.0
5889,72.0,0.0,15.0,10.0,0.0
5890,92.0,0.0,30.0,8.0,0.0
5891,75.0,0.0,30.0,10.0,0.0
5892,80.0,30.0,15.0,8.0,0.0
5893,96.0,0.0,15.0,7.0,0.0
5894,75.0,0.0,30.0,10.0,0.0
5895,72.0,30.0,30.0,10.0,0.0
5896,80.0,0.0,30.0,8.0,0.0
5897,92.0,0.0,15.0,8.0,0.0
5898,75.0,0.0,30.0,10.0,0.0
5899,96.0,0.0,15.0,7.0,0.0
5900,92.0,0.0,15.0,8.0,0.0
5901,72.0,30.0,15.0,10.0,0.0
5902,96.0,0.0,15.0,7.0,0.0
5903,80.0,0.0,15.0,8.0,0.0
5904,92.0,0.0,15.0,8.0,0.0
5905,75.0,30.0,15.0,10.0,0.0
5906,72.0,0.0,15.0,10.0,0.0
5907,92.0,0.0,30.0,8.0,0.0
5908,65.0,0.0,15.0,11.0,0.0
5909,96.0,0.0,30.0,7.0,0.0
5910,72.0,0.0,30.0,10.0,0.0
5911,75.0,0.0,30.0,10.0,0.0
5912,80.0,0.0,15.0,8.0,0.0
5913,61.0,0.0,60.0,11.0,0.0
5914,96.0,0.0,30.0,7.0,0.0
5915,72.0,0.0,30.0,10.0,0.0
5916,75.0,0.0,30.0,10.0,0.0
5917,92.0,0.0,30.0,8.0,0.0
5918,72.0,0.0,30.0,10.0,0.0
5919,96.0,0.0,30.0,7.0,0.0
5920,92.0,0.0,30.0,8.0,0.0
5921,80.0,0.0,30.0,8.0,0.0
5922,75.0,30.0,15.0,10.0,0.0
5923,96.0,0.0,30.0,7.0,0.0
5924,58.0,0.0,90.0,11.0,0.0
5925,92.0,0.0,15.0,8.0,0.0
5926,80.0,0.0,15.0,8.0,0.0
5927,72.0,30.0,15.0,10.0,0.0
5928,75.0,0.0,15.0,10.0,0.0
5929,96.0,0.0,30.0,7.0,0.0
5930,92.0,0.0,15.0,8.0,0.0
5931,75.0,30.0,15.0,10.0,0.0
5932,80.0,0.0,15.0,8.0,0.0
5933,72.0,0.0,15.0,10.0,0.0
5934,96.0,0.0,30.0,7.0,0.0
5935,75.0,0.0,15.0,10.0,0.0
5936,72.0,0.0,15.0,10.0,0.0
5937,58.0,0.0,30.0,11.0,0.0
5938,92.0,0.0,30.0,8.0,0.0
5939,53.0,0.0,60.0,11.0,0.0
5940,75.0,0.0,30.0,10.0,0.0
5941,96.0,0.0,15.0,7.0,0.0
5942,72.0,30.0,30.0,10.0,0.0
5943,92.0,0.0,30.0,8.0,0.0
5944,80.0,30.0,15.0,8.0,0.0
5945,96.0,0.0,15.0,7.0,0.0
5946,72.0,0.0,30.0,10.0,0.0
5947,75.0,0.0,30.0,10.0,0.0
5948,72.0,0.0,30.0,10.0,0.0
5949,80.0,0.0,15.0,8.0,0.0
5950,80.0,0.0,15.0,1.0,0.0
5951,75.0,0.0,30.0,10.0,0.0
5952,92.0,0.0,15.0,8.0,0.0
5953,80.0,0.0,15.0,2.0,0.0
5954,96.0,0.0,15.0,7.0,0.0
5955,56.0,0.0,15.0,4.0,0.0
5956,61.0,0.0,90.0,5.0,0.0
5957,49.0,0.0,120.0,11.0,0.0
5958,70.0,0.0,90.0,2.0,0.0
5959,72.0,0.0,30.0,10.0,0.0
5960,96.0,0.0,15.0,7.0,0.0
5961,92.0,30.0,15.0,8.0,0.0
5962,80.0,0.0,15.0,8.0,0.0
5963,80.0,30.0,15.0,8.0,0.0
5964,96.0,0.0,15.0,7.0,0.0
5965,92.0,0.0,15.0,8.0,0.0
5966,72.0,30.0,30.0,10.0,0.0
5967,75.0,0.0,15.0,10.0,0.0
5968,96.0,0.0,15.0,7.0,0.0
5969,80.0,0.0,15.0,8.0,0.0
5970,92.0,0.0,15.0,8.0,0.0
5971,80.0,0.0,15.0,1.0,0.0
5972,82.0,0.0,15.0,1.0,0.0
5973,49.0,0.0,15.0,5.0,0.0
5974,70.0,0.0,15.0,3.0,0.0
5975,49.0,0.0,15.0,6.0,0.0
5976,61.0,0.0,30.0,5.0,0.0
5977,68.0,0.0,15.0,3.0,0.0
5978,92.0,0.0,15.0,0.0,0.0
5979,94.0,0.0,15.0,0.0,0.0
5980,75.0,0.0,15.0,10.0,0.0
5981,68.0,0.0,15.0,4.0,0.0
5982,56.0,0.0,15.0,4.0,0.0
5983,49.0,0.0,60.0,6.0,0.0
5984,94.0,0.0,60.0,0.0,0.0
5985,92.0,0.0,60.0,0.0,0.0
5986,68.0,0.0,15.0,3.0,0.0
5987,70.0,0.0,15.0,3.0,0.0
5988,80.0,0.0,15.0,8.0,0.0
5989,70.0,0.0,15.0,2.0,0.0
5990,80.0,0.0,15.0,2.0,0.0
5991,61.0,0.0,60.0,5.0,0.0
5992,49.0,0.0,60.0,5.0,0.0
5993,68.0,0.0,15.0,4.0,0.0
5994,96.0,30.0,15.0,7.0,0.0
5995,75.0,0.0,15.0,10.0,0.0
5996,72.0,0.0,15.0,10.0,0.0
5997,80.0,0.0,60.0,1.0,0.0
5998,82.0,0.0,15.0,1.0,0.0
5999,56.0,30.0,60.0,4.0,0.0
6000,92.0,0.0,15.0,8.0,0.0
6001,96.0,0.0,15.0,7.0,0.0
6002,80.0,30.0,15.0,8.0,0.0
6003,72.0,0.0,30.0,10.0,0.0
6004,75.0,0.0,30.0,10.0,0.0
6005,49.0,0.0,30.0,11.0,0.0
6006,69.0,0.0,180.0,3.0,0.0
6007,81.0,0.0,180.0,1.0,0.0
6008,69.0,0.0,30.0,7.0,0.0
6009,93.0,30.0,180.0,0.0,0.0
6010,49.0,0.0,30.0,11.0,0.0
6011,52.0,30.0,15.0,10.0,0.0
6012,52.0,0.0,15.0,10.0,0.0
6013,69.0,30.0,15.0,7.0,0.0
6014,69.0,0.0,30.0,7.0,0.0
6015,49.0,30.0,15.0,11.0,0.0
6016,52.0,30.0,15.0,10.0,0.0
6017,69.0,0.0,30.0,7.0,0.0
6018,49.0,30.0,30.0,11.0,0.0
6019,52.0,0.0,15.0,10.0,0.0
6020,69.0,0.0,30.0,7.0,0.0
6021,88.0,0.0,180.0,0.0,0.0
6022,49.0,0.0,15.0,11.0,0.0
6023,52.0,0.0,15.0,10.0,0.0
6024,76.0,0.0,180.0,1.0,0.0
6025,64.0,0.0,180.0,3.0,0.0
6026,69.0,0.0,15.0,7.0,0.0
6027,64.0,0.0,15.0,8.0,0.0
6028,49.0,30.0,15.0,11.0,0.0
6029,64.0,0.0,15.0,8.0,0.0
6030,52.0,30.0,15.0,10.0,0.0
6031,69.0,0.0,30.0,7.0,0.0
6032,49.0,0.0,30.0,11.0,0.0
6033,52.0,0.0,15.0,10.0,0.0
6034,64.0,30.0,15.0,8.0,0.0
6035,49.0,0.0,15.0,11.0,0.0
6036,52.0,0.0,15.0,10.0,0.0
6037,69.0,30.0,15.0,7.0,0.0
6038,64.0,0.0,30.0,8.0,0.0
6039,49.0,0.0,15.0,11.0,0.0
6040,52.0,30.0,15.0,10.0,0.0
6041,69.0,0.0,30.0,7.0,0.0
6042,64.0,30.0,30.0,8.0,0.0
6043,67.0,30.0,30.0,7.0,0.0
6044,63.0,0.0,30.0,8.0,0.0
6045,79.0,0.0,180.0,0.0,0.0
6046,55.0,0.0,180.0,3.0,0.0
6047,67.0,30.0,180.0,1.0,0.0
6048,58.0,0.0,15.0,10.0,0.0
6049,51.0,0.0,15.0,11.0,0.0
6050,87.0,0.0,15.0,7.0,0.0
6051,58.0,0.0,30.0,10.0,0.0
6052,67.0,0.0,15.0,8.0,0.0
6053,75.0,0.0,30.0,8.0,0.0
6054,63.0,0.0,30.0,10.0,0.0
6055,51.0,30.0,15.0,11.0,0.0
6056,51.0,30.0,30.0,11.0,0.0
6057,63.0,0.0,30.0,10.0,0.0
6058,75.0,0.0,30.0,8.0,0.0
6059,87.0,30.0,15.0,7.0,0.0
6060,87.0,0.0,15.0,7.0,0.0
6061,63.0,0.0,30.0,10.0,0.0
6062,51.0,0.0,30.0,11.0,0.0
6063,75.0,0.0,30.0,8.0,0.0
6064,87.0,30.0,30.0,7.0,0.0
6065,75.0,0.0,60.0,1.0,0.0
6066,87.0,0.0,60.0,0.0,0.0
6067,63.0,0.0,60.0,3.0,0.0
6068,75.0,0.0,30.0,8.0,0.0
6069,63.0,0.0,15.0,10.0,0.0
6070,51.0,0.0,15.0,11.0,0.0
6071,87.0,30.0,30.0,7.0,0.0
6072,77.0,0.0,30.0,1.0,0.0
6073,89.0,0.0,30.0,0.0,0.0
6074,51.0,0.0,15.0,11.0,0.0
6075,63.0,0.0,15.0,10.0,0.0
6076,89.0,0.0,30.0,7.0,0.0
6077,75.0,0.0,15.0,8.0,0.0
6078,65.0,0.0,30.0,3.0,0.0
6079,79.0,0.0,30.0,1.0,0.0
6080,67.0,0.0,30.0,3.0,0.0
6081,75.0,0.0,30.0,8.0,0.0
6082,61.0,30.0,30.0,10.0,0.0
6083,91.0,0.0,30.0,0.0,0.0
6084,49.0,0.0,30.0,11.0,0.0
6085,91.0,0.0,30.0,7.0,0.0
6086,48.0,0.0,30.0,11.0,0.0
6087,77.0,0.0,30.0,8.0,0.0
6088,80.0,0.0,30.0,1.0,0.0
6089,92.0,0.0,30.0,0.0,0.0
6090,92.0,0.0,30.0,7.0,0.0
6091,60.0,30.0,30.0,10.0,0.0
6092,68.0,0.0,30.0,3.0,0.0
6093,79.0,30.0,30.0,8.0,0.0
6094,94.0,0.0,30.0,7.0,0.0
6095,46.0,0.0,30.0,11.0,0.0
6096,94.0,0.0,30.0,0.0,0.0
6097,82.0,0.0,30.0,1.0,0.0
6098,58.0,0.0,30.0,10.0,0.0
6099,70.0,0.0,30.0,3.0,0.0
6100,44.0,30.0,90.0,11.0,0.0
6101,56.0,0.0,90.0,11.0,0.0
6102,56.0,0.0,120.0,6.0,0.0
6103,56.0,0.0,540.0,4.0,0.0
6104,80.0,0.0,540.0,1.0,0.0
6105,84.0,0.0,540.0,1.0,0.0
6106,56.0,30.0,30.0,10.0,0.0
6107,80.0,0.0,30.0,8.0,0.0
6108,68.0,0.0,120.0,5.0,0.0
6109,96.0,0.0,15.0,7.0,0.0
6110,92.0,30.0,30.0,8.0,0.0
6111,80.0,0.0,30.0,8.0,0.0
6112,72.0,0.0,15.0,10.0,0.0
6113,75.0,0.0,15.0,10.0,0.0
6114,80.0,0.0,30.0,8.0,0.0
6115,96.0,0.0,30.0,7.0,0.0
6116,92.0,0.0,30.0,8.0,0.0
6117,68.0,0.0,30.0,11.0,0.0
6118,96.0,0.0,30.0,7.0,0.0
6119,80.0,0.0,30.0,8.0,0.0
6120,75.0,0.0,30.0,10.0,0.0
6121,92.0,30.0,30.0,8.0,0.0
6122,75.0,0.0,30.0,10.0,0.0
6123,72.0,0.0,15.0,10.0,0.0
6124,96.0,30.0,30.0,7.0,0.0
6125,63.0,0.0,60.0,11.0,0.0
6126,92.0,0.0,30.0,8.0,0.0
6127,80.0,0.0,30.0,8.0,0.0
6128,72.0,0.0,30.0,10.0,0.0
6129,96.0,0.0,30.0,7.0,0.0
6130,75.0,0.0,15.0,10.0,0.0
6131,60.0,0.0,90.0,11.0,0.0
6132,72.0,30.0,30.0,10.0,0.0
6133,92.0,30.0,15.0,8.0,0.0
6134,80.0,0.0,15.0,8.0,0.0
6135,96.0,0.0,15.0,7.0,0.0
6136,92.0,0.0,15.0,8.0,0.0
6137,80.0,0.0,15.0,8.0,0.0
6138,72.0,0.0,15.0,10.0,0.0
6139,75.0,30.0,15.0,10.0,0.0
6140,96.0,0.0,15.0,7.0,0.0
6141,72.0,0.0,15.0,10.0,0.0
6142,60.0,30.0,30.0,11.0,0.0
6143,75.0,0.0,30.0,10.0,0.0
6144,92.0,0.0,15.0,8.0,0.0
6145,80.0,0.0,15.0,8.0,0.0
6146,96.0,0.0,15.0,7.0,0.0
6147,72.0,0.0,15.0,10.0,0.0
6148,56.0,30.0,60.0,11.0,0.0
6149,72.0,30.0,15.0,10.0,0.0
6150,80.0,0.0,15.0,8.0,0.0
6151,75.0,0.0,15.0,10.0,0.0
6152,96.0,0.0,15.0,7.0,0.0
6153,72.0,0.0,15.0,10.0,0.0
6154,92.0,0.0,15.0,8.0,0.0
6155,80.0,0.0,30.0,8.0,0.0
6156,92.0,0.0,15.0,8.0,0.0
6157,72.0,0.0,30.0,10.0,0.0
6158,96.0,30.0,15.0,7.0,0.0
6159,75.0,0.0,15.0,10.0,0.0
6160,80.0,0.0,15.0,8.0,0.0
6161,75.0,0.0,15.0,10.0,0.0
6162,96.0,0.0,15.0,7.0,0.0
6163,92.0,30.0,15.0,8.0,0.0
6164,72.0,0.0,15.0,10.0,0.0
6165,51.0,0.0,15.0,11.0,0.0
6166,48.0,0.0,60.0,11.0,0.0
6167,96.0,0.0,30.0,7.0,0.0
6168,75.0,0.0,15.0,10.0,0.0
6169,92.0,0.0,15.0,8.0,0.0
6170,80.0,30.0,15.0,8.0,0.0
6171,92.0,0.0,15.0,8.0,0.0
6172,72.0,30.0,15.0,10.0,0.0
6173,75.0,0.0,15.0,10.0,0.0
6174,96.0,30.0,30.0,7.0,0.0
6175,75.0,0.0,15.0,10.0,0.0
6176,92.0,0.0,15.0,8.0,0.0
6177,80.0,0.0,15.0,8.0,0.0
6178,80.0,0.0,15.0,2.0,0.0
6179,72.0,0.0,15.0,2.0,0.0
6180,96.0,0.0,15.0,0.0,0.0
6181,92.0,0.0,15.0,0.0,0.0
6182,72.0,0.0,15.0,3.0,0.0
6183,68.0,0.0,15.0,3.0,0.0
6184,84.0,0.0,90.0,1.0,0.0
6185,68.0,0.0,15.0,4.0,0.0
6186,44.0,0.0,120.0,11.0,0.0
6187,56.0,0.0,90.0,4.0,0.0
6188,96.0,0.0,30.0,7.0,0.0
6189,75.0,30.0,30.0,10.0,0.0
6190,72.0,30.0,15.0,10.0,0.0
6191,80.0,0.0,30.0,8.0,0.0
6192,96.0,0.0,30.0,7.0,0.0
6193,96.0,0.0,30.0,7.0,0.0
6194,92.0,0.0,15.0,8.0,0.0
6195,80.0,0.0,30.0,8.0,0.0
6196,68.0,0.0,15.0,5.0,0.0
6197,80.0,0.0,30.0,8.0,0.0
6198,75.0,0.0,15.0,10.0,0.0
6199,80.0,0.0,15.0,2.0,0.0
6200,72.0,0.0,15.0,2.0,0.0
6201,80.0,0.0,15.0,1.0,0.0
6202,72.0,30.0,15.0,10.0,0.0
6203,96.0,0.0,15.0,0.0,0.0
6204,92.0,0.0,15.0,0.0,0.0
6205,56.0,0.0,15.0,6.0,0.0
6206,56.0,0.0,30.0,4.0,0.0
6207,68.0,0.0,30.0,4.0,0.0
6208,72.0,0.0,15.0,3.0,0.0
6209,68.0,0.0,15.0,3.0,0.0
6210,92.0,0.0,30.0,8.0,0.0
6211,96.0,0.0,30.0,7.0,0.0
6212,84.0,0.0,15.0,1.0,0.0
6213,80.0,0.0,15.0,1.0,0.0
6214,72.0,0.0,30.0,10.0,0.0
6215,68.0,0.0,60.0,4.0,0.0
6216,56.0,0.0,60.0,6.0,0.0
6217,75.0,30.0,30.0,10.0,0.0
6218,68.0,0.0,15.0,5.0,0.0
6219,96.0,0.0,60.0,0.0,0.0
6220,80.0,0.0,15.0,2.0,0.0
6221,72.0,0.0,15.0,2.0,0.0
6222,68.0,30.0,15.0,3.0,0.0
6223,72.0,0.0,60.0,3.0,0.0
6224,92.0,0.0,15.0,0.0,0.0
6225,96.0,0.0,15.0,7.0,0.0
6226,80.0,0.0,15.0,8.0,0.0
6227,92.0,0.0,15.0,8.0,0.0
6228,75.0,0.0,30.0,10.0,0.0
6229,72.0,0.0,30.0,10.0,0.0
6230,73.0,0.0,90.0,11.0,0.0
6231,49.0,0.0,120.0,5.0,0.0
6232,61.0,0.0,120.0,5.0,0.0
6233,70.0,0.0,540.0,2.0,0.0
6234,56.0,30.0,15.0,4.0,0.0
6235,68.0,0.0,15.0,3.0,0.0
6236,80.0,0.0,540.0,2.0,0.0
6237,68.0,0.0,540.0,4.0,0.0
6238,80.0,0.0,15.0,8.0,0.0
6239,92.0,0.0,15.0,0.0,0.0
6240,77.0,0.0,30.0,10.0,0.0
6241,49.0,0.0,120.0,6.0,0.0
6242,96.0,0.0,30.0,7.0,0.0
6243,73.0,0.0,15.0,10.0,0.0
6244,80.0,30.0,15.0,8.0,0.0
6245,92.0,0.0,15.0,8.0,0.0
6246,77.0,0.0,30.0,10.0,0.0
6247,73.0,30.0,15.0,10.0,0.0
6248,96.0,0.0,15.0,7.0,0.0
6249,92.0,0.0,30.0,8.0,0.0
6250,80.0,0.0,30.0,8.0,0.0
6251,77.0,0.0,30.0,10.0,0.0
6252,96.0,0.0,30.0,7.0,0.0
6253,73.0,0.0,30.0,11.0,0.0
6254,70.0,30.0,60.0,11.0,0.0
6255,96.0,0.0,30.0,7.0,0.0
6256,80.0,0.0,15.0,8.0,0.0
6257,73.0,0.0,15.0,10.0,0.0
6258,77.0,0.0,15.0,10.0,0.0
6259,92.0,30.0,15.0,8.0,0.0
6260,80.0,0.0,15.0,8.0,0.0
6261,77.0,30.0,15.0,10.0,0.0
6262,73.0,0.0,15.0,10.0,0.0
6263,92.0,0.0,30.0,8.0,0.0
6264,96.0,0.0,15.0,7.0,0.0
6265,73.0,0.0,30.0,10.0,0.0
6266,92.0,0.0,30.0,8.0,0.0
6267,77.0,0.0,30.0,10.0,0.0
6268,65.0,0.0,90.0,11.0,0.0
6269,96.0,0.0,30.0,7.0,0.0
6270,80.0,30.0,15.0,8.0,0.0
6271,92.0,30.0,30.0,8.0,0.0
6272,77.0,0.0,30.0,10.0,0.0
6273,73.0,0.0,30.0,10.0,0.0
6274,96.0,0.0,30.0,7.0,0.0
6275,92.0,0.0,30.0,8.0,0.0
6276,73.0,0.0,15.0,10.0,0.0
6277,65.0,0.0,30.0,11.0,0.0
6278,77.0,0.0,15.0,10.0,0.0
6279,92.0,0.0,30.0,8.0,0.0
6280,80.0,30.0,15.0,8.0,0.0
6281,61.0,0.0,60.0,11.0,0.0
6282,73.0,0.0,15.0,10.0,0.0
6283,80.0,0.0,30.0,8.0,0.0
6284,96.0,30.0,15.0,7.0,0.0
6285,92.0,0.0,30.0,8.0,0.0
6286,96.0,0.0,15.0,7.0,0.0
6287,77.0,30.0,15.0,10.0,0.0
6288,92.0,0.0,15.0,8.0,0.0
6289,96.0,0.0,15.0,7.0,0.0
6290,73.0,0.0,15.0,10.0,0.0
6291,77.0,0.0,15.0,10.0,0.0
6292,80.0,30.0,15.0,8.0,0.0
6293,73.0,0.0,15.0,10.0,0.0
6294,77.0,0.0,15.0,10.0,0.0
6295,96.0,0.0,30.0,7.0,0.0
6296,77.0,0.0,15.0,10.0,0.0
6297,73.0,0.0,30.0,10.0,0.0
6298,80.0,30.0,15.0,8.0,0.0
6299,92.0,0.0,15.0,8.0,0.0
6300,96.0,30.0,30.0,7.0,0.0
6301,58.0,0.0,15.0,11.0,0.0
6302,92.0,0.0,15.0,8.0,0.0
6303,80.0,0.0,30.0,8.0,0.0
6304,73.0,0.0,30.0,10.0,0.0
6305,96.0,0.0,30.0,7.0,0.0
6306,73.0,0.0,30.0,10.0,0.0
6307,92.0,0.0,30.0,8.0,0.0
6308,77.0,0.0,15.0,10.0,0.0
6309,53.0,30.0,60.0,11.0,0.0
6310,80.0,0.0,30.0,8.0,0.0
6311,73.0,0.0,30.0,10.0,0.0
6312,96.0,30.0,15.0,7.0,0.0
6313,92.0,0.0,30.0,8.0,0.0
6314,80.0,0.0,30.0,8.0,0.0
6315,56.0,0.0,15.0,4.0,0.0
6316,94.0,0.0,15.0,0.0,0.0
6317,68.0,0.0,90.0,4.0,0.0
6318,96.0,0.0,15.0,7.0,0.0
6319,73.0,0.0,30.0,10.0,0.0
6320,77.0,0.0,15.0,10.0,0.0
6321,61.0,0.0,90.0,5.0,0.0
6322,70.0,0.0,15.0,3.0,0.0
6323,68.0,0.0,15.0,3.0,0.0
6324,92.0,30.0,30.0,8.0,0.0
6325,92.0,0.0,90.0,0.0,0.0
6326,80.0,0.0,30.0,8.0,0.0
6327,82.0,0.0,15.0,1.0,0.0
6328,49.0,0.0,120.0,11.0,0.0
6329,80.0,0.0,90.0,2.0,0.0
6330,80.0,0.0,15.0,1.0,0.0
6331,96.0,0.0,15.0,7.0,0.0
6332,77.0,0.0,30.0,10.0,0.0
6333,92.0,0.0,30.0,8.0,0.0
6334,80.0,0.0,30.0,8.0,0.0
6335,73.0,0.0,15.0,10.0,0.0
6336,96.0,30.0,15.0,7.0,0.0
6337,96.0,0.0,30.0,7.0,0.0
6338,80.0,0.0,30.0,2.0,0.0
6339,70.0,0.0,15.0,2.0,0.0
6340,92.0,0.0,15.0,8.0,0.0
6341,94.0,0.0,15.0,0.0,0.0
6342,70.0,0.0,15.0,3.0,0.0
6343,68.0,0.0,15.0,3.0,0.0
6344,49.0,0.0,15.0,6.0,0.0
6345,92.0,0.0,30.0,0.0,0.0
6346,80.0,30.0,15.0,8.0,0.0
6347,49.0,0.0,15.0,5.0,0.0
6348,73.0,0.0,15.0,10.0,0.0
6349,77.0,0.0,15.0,10.0,0.0
6350,56.0,0.0,30.0,4.0,0.0
6351,61.0,0.0,30.0,5.0,0.0
6352,80.0,0.0,15.0,1.0,0.0
6353,49.0,0.0,60.0,6.0,0.0
6354,82.0,0.0,15.0,1.0,0.0
6355,68.0,0.0,15.0,4.0,0.0
6356,96.0,0.0,30.0,7.0,0.0
6357,94.0,0.0,15.0,0.0,0.0
6358,92.0,0.0,60.0,0.0,0.0
6359,56.0,0.0,60.0,4.0,0.0
6360,49.0,30.0,15.0,5.0,0.0
6361,80.0,0.0,15.0,8.0,0.0
6362,92.0,0.0,15.0,8.0,0.0
6363,73.0,0.0,15.0,10.0,0.0
6364,80.0,0.0,60.0,2.0,0.0
6365,77.0,0.0,30.0,10.0,0.0
6366,70.0,0.0,60.0,3.0,0.0
6367,70.0,0.0,60.0,2.0,0.0
6368,61.0,0.0,60.0,5.0,0.0
6369,68.0,0.0,60.0,3.0,0.0
6370,80.0,0.0,15.0,8.0,0.0
6371,92.0,30.0,15.0,8.0,0.0
6372,73.0,0.0,30.0,10.0,0.0
6373,96.0,0.0,30.0,7.0,0.0
6374,77.0,0.0,30.0,10.0,0.0
6375,49.0,0.0,360.0,11.0,0.0
6376,69.0,180.0,180.0,10.0,0.0
6377,81.0,0.0,180.0,8.0,0.0
6378,93.0,0.0,180.0,7.0,0.0
6379,76.0,180.0,180.0,8.0,0.0
6380,81.0,0.0,180.0,1.0,0.0
6381,88.0,0.0,180.0,7.0,0.0
6382,93.0,0.0,180.0,0.0,0.0
6383,69.0,0.0,180.0,3.0,0.0
6384,64.0,0.0,180.0,10.0,0.0
6385,91.0,0.0,300.0,0.0,0.0
6386,67.0,0.0,300.0,3.0,0.0
6387,79.0,60.0,180.0,7.0,0.0
6388,79.0,0.0,300.0,1.0,0.0
6389,55.0,0.0,240.0,10.0,0.0
6390,51.0,0.0,360.0,11.0,0.0
6391,67.0,60.0,240.0,8.0,0.0
6392,87.0,0.0,120.0,7.0,0.0
6393,75.0,0.0,60.0,8.0,0.0
6394,75.0,30.0,60.0,1.0,0.0
6395,75.0,0.0,60.0,8.0,0.0
6396,63.0,60.0,15.0,10.0,0.0
6397,63.0,0.0,60.0,3.0,0.0
6398,87.0,0.0,60.0,0.0,0.0
6399,68.0,0.0,120.0,5.0,0.0
6400,63.0,30.0,270.0,3.0,0.0
6401,56.0,0.0,120.0,6.0,0.0
6402,75.0,0.0,30.0,8.0,0.0
6403,68.0,30.0,120.0,4.0,0.0
6404,56.0,0.0,120.0,11.0,0.0
6405,87.0,0.0,15.0,7.0,0.0
6406,56.0,0.0,120.0,4.0,0.0
6407,87.0,0.0,270.0,0.0,0.0
6408,63.0,30.0,30.0,10.0,0.0
6409,87.0,0.0,270.0,1.0,0.0
6410,75.0,0.0,270.0,2.0,0.0
6411,56.0,0.0,15.0,10.0,0.0
6412,60.0,0.0,15.0,10.0,0.0
6413,63.0,30.0,15.0,8.0,0.0
6414,63.0,0.0,30.0,8.0,0.0
6415,56.0,0.0,15.0,10.0,0.0
6416,60.0,30.0,15.0,10.0,0.0
6417,60.0,0.0,30.0,10.0,0.0
6418,56.0,0.0,15.0,10.0,0.0
6419,63.0,30.0,15.0,8.0,0.0
6420,60.0,0.0,120.0,11.0,0.0
6421,56.0,0.0,30.0,10.0,0.0
6422,60.0,30.0,15.0,10.0,0.0
6423,56.0,30.0,120.0,6.0,0.0
6424,68.0,0.0,120.0,4.0,0.0
6425,56.0,0.0,120.0,4.0,0.0
6426,63.0,30.0,30.0,8.0,0.0
6427,56.0,0.0,30.0,10.0,0.0
6428,63.0,30.0,15.0,8.0,0.0
6429,60.0,0.0,15.0,10.0,0.0
6430,56.0,0.0,30.0,10.0,0.0
6431,56.0,0.0,30.0,10.0,0.0
6432,60.0,0.0,30.0,10.0,0.0
6433,85.0,0.0,30.0,7.0,0.0
6434,85.0,0.0,30.0,0.0,0.0
6435,97.0,0.0,30.0,0.0,0.0
6436,63.0,0.0,30.0,8.0,0.0
6437,73.0,0.0,30.0,2.0,0.0
6438,61.0,0.0,30.0,3.0,0.0
6439,85.0,0.0,30.0,1.0,0.0
6440,63.0,0.0,30.0,8.0,0.0
6441,84.0,0.0,60.0,7.0,0.0
6442,60.0,30.0,30.0,10.0,0.0
6443,72.0,0.0,60.0,2.0,0.0
6444,56.0,0.0,15.0,10.0,0.0
6445,63.0,0.0,30.0,8.0,0.0
6446,60.0,0.0,30.0,10.0,0.0
6447,61.0,0.0,30.0,10.0,0.0
6448,60.0,15.0,15.0,3.0,0.0
6449,72.0,0.0,15.0,2.0,0.0
6450,84.0,0.0,15.0,1.0,0.0
6451,84.0,0.0,15.0,0.0,0.0
6452,84.0,15.0,15.0,7.0,0.0
6453,96.0,0.0,15.0,0.0,0.0
6454,63.0,0.0,120.0,11.0,0.0
6455,63.0,30.0,30.0,8.0,0.0
6456,75.0,0.0,120.0,4.0,0.0
6457,97.0,30.0,240.0,0.0,0.0
6458,85.0,0.0,240.0,0.0,0.0
6459,85.0,0.0,240.0,1.0,0.0
6460,85.0,0.0,240.0,7.0,0.0
6461,58.0,0.0,15.0,10.0,0.0
6462,63.0,30.0,30.0,8.0,0.0
6463,61.0,0.0,15.0,10.0,0.0
6464,63.0,0.0,30.0,8.0,0.0
6465,58.0,30.0,15.0,10.0,0.0
6466,61.0,0.0,15.0,10.0,0.0
6467,63.0,30.0,15.0,8.0,0.0
6468,61.0,0.0,15.0,10.0,0.0
6469,58.0,0.0,15.0,10.0,0.0
6470,63.0,30.0,15.0,8.0,0.0
6471,63.0,0.0,15.0,8.0,0.0
6472,58.0,0.0,30.0,10.0,0.0
6473,61.0,0.0,30.0,10.0,0.0
6474,63.0,30.0,15.0,8.0,0.0
6475,61.0,30.0,15.0,10.0,0.0
6476,58.0,0.0,15.0,10.0,0.0
6477,73.0,0.0,15.0,2.0,0.0
6478,63.0,0.0,15.0,8.0,0.0
6479,65.0,0.0,30.0,2.0,0.0
6480,61.0,0.0,15.0,3.0,0.0
6481,58.0,0.0,30.0,3.0,0.0
6482,63.0,0.0,30.0,11.0,0.0
6483,89.0,0.0,30.0,0.0,0.0
6484,77.0,0.0,30.0,1.0,0.0
6485,58.0,0.0,15.0,10.0,0.0
6486,77.0,0.0,30.0,7.0,0.0
6487,61.0,0.0,30.0,10.0,0.0
6488,85.0,0.0,30.0,0.0,0.0
6489,79.0,0.0,60.0,7.0,0.0
6490,61.0,0.0,30.0,10.0,0.0
6491,58.0,0.0,15.0,10.0,0.0
6492,58.0,0.0,60.0,3.0,0.0
6493,63.0,0.0,15.0,8.0,0.0
6494,61.0,0.0,60.0,3.0,0.0
6495,73.0,0.0,15.0,1.0,0.0
6496,63.0,0.0,60.0,11.0,0.0
6497,67.0,0.0,60.0,2.0,0.0
6498,73.0,30.0,15.0,2.0,0.0
6499,79.0,0.0,60.0,1.0,0.0
6500,87.0,0.0,60.0,0.0,0.0
6501,91.0,0.0,60.0,0.0,0.0
6502,63.0,0.0,15.0,8.0,0.0
6503,58.0,0.0,30.0,10.0,0.0
6504,61.0,0.0,30.0,10.0,0.0
6505,80.0,0.0,120.0,7.0,0.0
6506,72.0,0.0,120.0,1.0,0.0
6507,72.0,30.0,120.0,2.0,0.0
6508,68.0,0.0,120.0,2.0,0.0
6509,92.0,0.0,120.0,0.0,0.0
6510,87.0,0.0,120.0,0.0,0.0
6511,80.0,0.0,120.0,1.0,0.0
6512,75.0,0.0,120.0,4.0,0.0
6513,60.0,0.0,30.0,10.0,0.0
6514,63.0,0.0,270.0,11.0,0.0
6515,63.0,30.0,15.0,8.0,0.0
6516,60.0,0.0,120.0,3.0,0.0
6517,56.0,0.0,120.0,3.0,0.0
6518,63.0,0.0,30.0,8.0,0.0
6519,56.0,30.0,15.0,10.0,0.0
6520,56.0,30.0,15.0,10.0,0.0
6521,60.0,0.0,15.0,10.0,0.0
6522,56.0,0.0,30.0,10.0,0.0
6523,63.0,30.0,15.0,8.0,0.0
6524,56.0,0.0,30.0,10.0,0.0
6525,60.0,0.0,15.0,10.0,0.0
6526,63.0,0.0,15.0,8.0,0.0
6527,63.0,0.0,30.0,8.0,0.0
6528,60.0,30.0,30.0,10.0,0.0
6529,60.0,0.0,120.0,3.0,0.0
6530,56.0,0.0,15.0,10.0,0.0
6531,60.0,0.0,30.0,10.0,0.0
6532,72.0,0.0,120.0,2.0,0.0
6533,84.0,0.0,120.0,1.0,0.0
6534,87.0,0.0,120.0,0.0,0.0
6535,96.0,30.0,120.0,0.0,0.0
6536,72.0,0.0,120.0,1.0,0.0
6537,84.0,0.0,120.0,7.0,0.0
6538,75.0,0.0,120.0,7.0,0.0
6539,63.0,30.0,15.0,8.0,0.0
6540,60.0,0.0,30.0,10.0,0.0
6541,63.0,0.0,15.0,8.0,0.0
6542,56.0,30.0,15.0,10.0,0.0
6543,61.0,0.0,30.0,11.0,0.0
6544,56.0,0.0,15.0,10.0,0.0
6545,60.0,0.0,15.0,10.0,0.0
6546,63.0,30.0,15.0,8.0,0.0
6547,60.0,0.0,15.0,10.0,0.0
6548,60.0,15.0,60.0,11.0,0.0
6549,63.0,0.0,15.0,8.0,0.0
6550,60.0,30.0,15.0,10.0,0.0
6551,56.0,0.0,15.0,10.0,0.0
6552,75.0,30.0,120.0,4.0,0.0
6553,58.0,0.0,30.0,10.0,0.0
6554,87.0,0.0,120.0,1.0,0.0
6555,75.0,0.0,120.0,1.0,0.0
6556,87.0,0.0,120.0,7.0,0.0
6557,60.0,15.0,15.0,11.0,0.0
6558,75.0,0.0,120.0,2.0,0.0
6559,63.0,0.0,120.0,3.0,0.0
6560,75.0,0.0,120.0,7.0,0.0
6561,87.0,0.0,120.0,0.0,0.0
6562,61.0,0.0,240.0,11.0,0.0
6563,63.0,30.0,15.0,8.0,0.0
6564,61.0,0.0,15.0,10.0,0.0
6565,61.0,0.0,15.0,10.0,0.0
6566,63.0,0.0,15.0,8.0,0.0
6567,58.0,30.0,15.0,10.0,0.0
6568,61.0,30.0,15.0,10.0,0.0
6569,58.0,0.0,15.0,10.0,0.0
6570,63.0,0.0,15.0,8.0,0.0
6571,61.0,0.0,15.0,10.0,0.0
6572,58.0,0.0,15.0,10.0,0.0
6573,61.0,30.0,15.0,10.0,0.0
6574,58.0,0.0,15.0,10.0,0.0
6575,63.0,0.0,15.0,8.0,0.0
6576,61.0,0.0,30.0,10.0,0.0
6577,58.0,0.0,15.0,10.0,0.0
6578,63.0,30.0,15.0,8.0,0.0
6579,61.0,0.0,30.0,10.0,0.0
6580,63.0,0.0,30.0,8.0,0.0
6581,58.0,30.0,15.0,10.0,0.0
6582,87.0,0.0,30.0,0.0,0.0
6583,63.0,0.0,30.0,8.0,0.0
6584,63.0,0.0,30.0,3.0,0.0
6585,53.0,0.0,30.0,11.0,0.0
6586,75.0,0.0,30.0,2.0,0.0
6587,58.0,0.0,30.0,10.0,0.0
6588,61.0,30.0,15.0,10.0,0.0
6589,87.0,0.0,30.0,1.0,0.0
6590,75.0,0.0,30.0,1.0,0.0
6591,87.0,0.0,60.0,0.0,0.0
6592,63.0,0.0,60.0,3.0,0.0
6593,55.0,0.0,60.0,11.0,0.0
6594,87.0,0.0,60.0,1.0,0.0
6595,87.0,30.0,15.0,7.0,0.0
6596,75.0,0.0,60.0,2.0,0.0
6597,58.0,0.0,30.0,10.0,0.0
6598,61.0,0.0,30.0,10.0,0.0
6599,61.0,0.0,30.0,10.0,0.0
6600,58.0,0.0,30.0,10.0,0.0
6601,63.0,30.0,15.0,8.0,0.0
6602,75.0,0.0,15.0,1.0,0.0
6603,56.0,0.0,30.0,10.0,0.0
6604,68.0,0.0,120.0,5.0,0.0
6605,63.0,0.0,15.0,8.0,0.0
6606,75.0,0.0,120.0,2.0,0.0
6607,56.0,0.0,120.0,6.0,0.0
6608,87.0,30.0,120.0,1.0,0.0
6609,63.0,0.0,120.0,3.0,0.0
6610,68.0,0.0,120.0,4.0,0.0
6611,56.0,0.0,120.0,4.0,0.0
6612,87.0,0.0,120.0,0.0,0.0
6613,56.0,0.0,120.0,11.0,0.0
6614,87.0,30.0,15.0,7.0,0.0
6615,63.0,0.0,15.0,8.0,0.0
6616,56.0,0.0,30.0,10.0,0.0
6617,60.0,30.0,15.0,10.0,0.0
6618,60.0,0.0,30.0,10.0,0.0
6619,56.0,30.0,30.0,10.0,0.0
6620,63.0,30.0,15.0,8.0,0.0
6621,56.0,0.0,30.0,10.0,0.0
6622,60.0,0.0,30.0,10.0,0.0
6623,96.0,0.0,60.0,0.0,0.0
6624,84.0,0.0,60.0,0.0,0.0
6625,63.0,0.0,15.0,8.0,0.0
6626,84.0,0.0,60.0,1.0,0.0
6627,56.0,30.0,15.0,10.0,0.0
6628,60.0,0.0,15.0,10.0,0.0
6629,63.0,0.0,30.0,8.0,0.0
6630,84.0,0.0,15.0,1.0,0.0
6631,75.0,0.0,120.0,4.0,0.0
6632,84.0,0.0,15.0,7.0,0.0
6633,84.0,0.0,15.0,0.0,0.0
6634,58.0,0.0,30.0,10.0,0.0
6635,96.0,0.0,15.0,0.0,0.0
6636,72.0,0.0,15.0,2.0,0.0
6637,60.0,15.0,15.0,3.0,0.0
6638,85.0,30.0,60.0,7.0,0.0
6639,97.0,0.0,60.0,0.0,0.0
6640,85.0,0.0,60.0,0.0,0.0
6641,85.0,0.0,60.0,1.0,0.0
6642,61.0,30.0,15.0,10.0,0.0
6643,63.0,0.0,15.0,8.0,0.0
6644,61.0,0.0,30.0,10.0,0.0
6645,58.0,0.0,15.0,10.0,0.0
6646,63.0,30.0,15.0,8.0,0.0
6647,73.0,0.0,15.0,2.0,0.0
6648,85.0,0.0,30.0,1.0,0.0
6649,77.0,0.0,30.0,1.0,0.0
6650,85.0,0.0,30.0,0.0,0.0
6651,89.0,30.0,30.0,0.0,0.0
6652,61.0,0.0,15.0,3.0,0.0
6653,63.0,0.0,15.0,8.0,0.0
6654,65.0,0.0,30.0,2.0,0.0
6655,58.0,0.0,30.0,3.0,0.0
6656,61.0,0.0,30.0,10.0,0.0
6657,77.0,0.0,30.0,7.0,0.0
6658,73.0,0.0,15.0,2.0,0.0
6659,63.0,0.0,15.0,8.0,0.0
6660,67.0,0.0,60.0,2.0,0.0
6661,79.0,0.0,60.0,7.0,0.0
6662,61.0,0.0,30.0,10.0,0.0
6663,58.0,0.0,15.0,10.0,0.0
6664,58.0,0.0,60.0,3.0,0.0
6665,61.0,0.0,60.0,3.0,0.0
6666,63.0,0.0,15.0,11.0,0.0
6667,79.0,0.0,60.0,1.0,0.0
6668,85.0,0.0,60.0,1.0,0.0
6669,91.0,0.0,60.0,0.0,0.0
6670,63.0,30.0,15.0,8.0,0.0
6671,58.0,0.0,30.0,10.0,0.0
6672,61.0,0.0,30.0,10.0,0.0
6673,80.0,0.0,120.0,1.0,0.0
6674,84.0,0.0,120.0,1.0,0.0
6675,63.0,30.0,15.0,11.0,0.0
6676,87.0,0.0,15.0,0.0,0.0
6677,68.0,0.0,120.0,2.0,0.0
6678,96.0,0.0,120.0,0.0,0.0
6679,80.0,0.0,120.0,7.0,0.0
6680,60.0,0.0,120.0,3.0,0.0
6681,56.0,0.0,120.0,3.0,0.0
6682,72.0,0.0,120.0,2.0,0.0
6683,75.0,30.0,120.0,4.0,0.0
6684,60.0,0.0,15.0,10.0,0.0
6685,56.0,0.0,15.0,10.0,0.0
6686,63.0,30.0,15.0,8.0,0.0
6687,60.0,30.0,15.0,10.0,0.0
6688,63.0,0.0,15.0,8.0,0.0
6689,56.0,0.0,15.0,10.0,0.0
6690,63.0,30.0,15.0,8.0,0.0
6691,60.0,0.0,15.0,10.0,0.0
6692,56.0,0.0,15.0,10.0,0.0
6693,56.0,0.0,15.0,10.0,0.0
6694,60.0,0.0,15.0,10.0,0.0
6695,60.0,0.0,60.0,11.0,0.0
6696,60.0,0.0,15.0,10.0,0.0
6697,56.0,0.0,15.0,10.0,0.0
6698,63.0,30.0,15.0,8.0,0.0
6699,63.0,0.0,15.0,8.0,0.0
6700,60.0,15.0,15.0,11.0,0.0
6701,61.0,0.0,60.0,11.0,0.0
6702,61.0,30.0,15.0,10.0,0.0
6703,58.0,0.0,15.0,10.0,0.0
6704,63.0,30.0,15.0,8.0,0.0
6705,63.0,30.0,30.0,3.0,0.0
6706,75.0,0.0,30.0,1.0,0.0
6707,63.0,0.0,15.0,8.0,0.0
6708,61.0,30.0,15.0,10.0,0.0
6709,87.0,0.0,30.0,0.0,0.0
6710,87.0,0.0,30.0,1.0,0.0
6711,58.0,0.0,15.0,10.0,0.0
6712,87.0,0.0,30.0,7.0,0.0
6713,53.0,0.0,30.0,11.0,0.0
6714,63.0,0.0,30.0,8.0,0.0
6715,55.0,0.0,60.0,11.0,0.0
6716,75.0,0.0,15.0,2.0,0.0
6717,61.0,30.0,30.0,10.0,0.0
6718,87.0,0.0,60.0,0.0,0.0
6719,58.0,0.0,15.0,10.0,0.0
6720,63.0,0.0,30.0,8.0,0.0
6721,61.0,0.0,30.0,10.0,0.0
6722,75.0,0.0,15.0,2.0,0.0
6723,75.0,0.0,15.0,1.0,0.0
6724,87.0,0.0,15.0,1.0,0.0
6725,63.0,0.0,15.0,3.0,0.0
6726,87.0,0.0,15.0,7.0,0.0
6727,87.0,0.0,120.0,0.0,0.0
6728,56.0,0.0,120.0,4.0,0.0
6729,68.0,30.0,120.0,4.0,0.0
6730,56.0,0.0,120.0,6.0,0.0
6731,56.0,0.0,120.0,11.0,0.0
6732,63.0,0.0,30.0,8.0,0.0
6733,68.0,0.0,120.0,5.0,0.0
6734,63.0,0.0,30.0,8.0,0.0
6735,60.0,30.0,15.0,10.0,0.0
6736,56.0,0.0,15.0,10.0,0.0
6737,60.0,0.0,15.0,10.0,0.0
6738,56.0,30.0,30.0,10.0,0.0
6739,63.0,0.0,15.0,8.0,0.0
6740,60.0,0.0,15.0,10.0,0.0
6741,56.0,0.0,30.0,10.0,0.0
6742,60.0,0.0,15.0,10.0,0.0
6743,63.0,0.0,15.0,8.0,0.0
6744,84.0,0.0,60.0,1.0,0.0
6745,84.0,0.0,60.0,0.0,0.0
6746,84.0,0.0,60.0,7.0,0.0
6747,63.0,0.0,15.0,8.0,0.0
6748,60.0,0.0,30.0,10.0,0.0
6749,56.0,30.0,15.0,10.0,0.0
6750,60.0,0.0,15.0,3.0,0.0
6751,61.0,0.0,30.0,10.0,0.0
6752,72.0,0.0,15.0,2.0,0.0
6753,84.0,0.0,15.0,7.0,0.0
6754,96.0,0.0,15.0,0.0,0.0
6755,75.0,0.0,120.0,4.0,0.0
6756,84.0,0.0,15.0,1.0,0.0
6757,63.0,30.0,30.0,8.0,0.0
6758,84.0,0.0,15.0,0.0,0.0
6759,85.0,0.0,60.0,1.0,0.0
6760,85.0,0.0,60.0,7.0,0.0
6761,85.0,0.0,60.0,0.0,0.0
6762,97.0,0.0,60.0,0.0,0.0
6763,58.0,0.0,15.0,10.0,0.0
6764,61.0,0.0,30.0,10.0,0.0
6765,63.0,30.0,30.0,8.0,0.0
6766,58.0,0.0,15.0,10.0,0.0
6767,61.0,0.0,30.0,10.0,0.0
6768,63.0,30.0,30.0,8.0,0.0
6769,73.0,0.0,15.0,2.0,0.0
6770,89.0,0.0,30.0,0.0,0.0
6771,61.0,0.0,30.0,10.0,0.0
6772,77.0,0.0,30.0,7.0,0.0
6773,61.0,0.0,15.0,3.0,0.0
6774,58.0,0.0,30.0,10.0,0.0
6775,65.0,0.0,30.0,2.0,0.0
6776,58.0,0.0,30.0,3.0,0.0
6777,85.0,0.0,30.0,1.0,0.0
6778,63.0,0.0,30.0,11.0,0.0
6779,77.0,0.0,30.0,1.0,0.0
6780,85.0,0.0,30.0,0.0,0.0
6781,63.0,0.0,30.0,8.0,0.0
6782,73.0,30.0,15.0,2.0,0.0
6783,63.0,0.0,60.0,11.0,0.0
6784,79.0,0.0,60.0,1.0,0.0
6785,85.0,0.0,60.0,1.0,0.0
6786,91.0,0.0,60.0,0.0,0.0
6787,61.0,0.0,15.0,3.0,0.0
6788,58.0,0.0,60.0,3.0,0.0
6789,67.0,0.0,60.0,2.0,0.0
6790,87.0,0.0,60.0,0.0,0.0
6791,63.0,0.0,15.0,8.0,0.0
6792,61.0,30.0,15.0,10.0,0.0
6793,58.0,0.0,15.0,10.0,0.0
6794,68.0,0.0,60.0,4.0,0.0
6795,55.0,0.0,15.0,10.0,0.0
6796,68.0,0.0,60.0,5.0,0.0
6797,67.0,45.0,15.0,8.0,0.0
6798,68.0,0.0,60.0,2.0,0.0
6799,56.0,60.0,60.0,4.0,0.0
6800,56.0,0.0,60.0,6.0,0.0
6801,80.0,0.0,60.0,1.0,0.0
6802,92.0,0.0,60.0,0.0,0.0
6803,56.0,0.0,60.0,3.0,0.0
6804,55.0,0.0,15.0,11.0,0.0
6805,79.0,15.0,15.0,7.0,0.0
6806,68.0,0.0,120.0,8.0,0.0
6807,80.0,0.0,120.0,7.0,0.0
6808,56.0,0.0,120.0,11.0,0.0
6809,56.0,60.0,120.0,10.0,0.0
6810,56.0,0.0,60.0,3.0,0.0
6811,68.0,0.0,60.0,2.0,0.0
6812,80.0,0.0,60.0,2.0,0.0
6813,68.0,0.0,60.0,3.0,0.0
6814,92.0,0.0,60.0,0.0,0.0
6815,56.0,0.0,60.0,6.0,0.0
6816,68.0,0.0,60.0,5.0,0.0
6817,80.0,15.0,60.0,1.0,0.0
6818,68.0,0.0,60.0,4.0,0.0
6819,56.0,0.0,60.0,4.0,0.0
6820,56.0,0.0,15.0,10.0,0.0
6821,80.0,0.0,15.0,7.0,0.0
6822,68.0,0.0,15.0,8.0,0.0
6823,44.0,105.0,15.0,11.0,0.0
6824,70.0,0.0,120.0,8.0,0.0
6825,46.0,0.0,120.0,11.0,0.0
6826,58.0,60.0,120.0,10.0,0.0
6827,82.0,0.0,120.0,7.0,0.0
6828,68.0,0.0,60.0,4.0,0.0
6829,68.0,15.0,60.0,3.0,0.0
6830,80.0,0.0,60.0,2.0,0.0
6831,68.0,0.0,60.0,2.0,0.0
6832,92.0,0.0,60.0,0.0,0.0
6833,56.0,0.0,60.0,4.0,0.0
6834,56.0,0.0,60.0,3.0,0.0
6835,56.0,0.0,60.0,6.0,0.0
6836,80.0,0.0,60.0,1.0,0.0
6837,68.0,0.0,60.0,5.0,0.0
6838,46.0,0.0,15.0,11.0,0.0
6839,70.0,0.0,15.0,8.0,0.0
6840,82.0,0.0,15.0,7.0,0.0
6841,58.0,105.0,15.0,10.0,0.0
6842,48.0,0.0,120.0,11.0,0.0
6843,84.0,0.0,120.0,7.0,0.0
6844,60.0,0.0,120.0,10.0,0.0
6845,72.0,60.0,120.0,8.0,0.0
6846,68.0,0.0,60.0,2.0,0.0
6847,56.0,0.0,60.0,6.0,0.0
6848,80.0,0.0,60.0,2.0,0.0
6849,68.0,0.0,60.0,3.0,0.0
6850,68.0,0.0,60.0,4.0,0.0
6851,80.0,15.0,60.0,1.0,0.0
6852,68.0,0.0,60.0,5.0,0.0
6853,56.0,0.0,60.0,3.0,0.0
6854,56.0,0.0,60.0,4.0,0.0
6855,92.0,0.0,60.0,0.0,0.0
6856,72.0,0.0,15.0,8.0,0.0
6857,60.0,0.0,15.0,10.0,0.0
6858,84.0,105.0,15.0,7.0,0.0
6859,48.0,0.0,15.0,11.0,0.0
6860,85.0,0.0,120.0,7.0,0.0
6861,73.0,0.0,120.0,8.0,0.0
6862,61.0,0.0,120.0,10.0,0.0
6863,49.0,60.0,120.0,11.0,0.0
6864,92.0,0.0,60.0,0.0,0.0
6865,80.0,0.0,60.0,2.0,0.0
6866,68.0,0.0,60.0,2.0,0.0
6867,56.0,0.0,60.0,3.0,0.0
6868,68.0,0.0,60.0,3.0,0.0
6869,56.0,0.0,60.0,4.0,0.0
6870,68.0,0.0,60.0,4.0,0.0
6871,68.0,15.0,60.0,5.0,0.0
6872,80.0,0.0,60.0,1.0,0.0
6873,56.0,0.0,60.0,6.0,0.0
6874,61.0,105.0,15.0,10.0,0.0
6875,49.0,0.0,15.0,11.0,0.0
6876,73.0,0.0,15.0,8.0,0.0
6877,85.0,0.0,15.0,7.0,0.0
6878,87.0,0.0,120.0,7.0,0.0
6879,63.0,60.0,120.0,10.0,0.0
6880,51.0,0.0,120.0,11.0,0.0
6881,75.0,0.0,120.0,8.0,0.0
6882,68.0,0.0,60.0,4.0,0.0
6883,68.0,0.0,60.0,5.0,0.0
6884,80.0,0.0,60.0,1.0,0.0
6885,80.0,0.0,60.0,2.0,0.0
6886,56.0,0.0,60.0,4.0,0.0
6887,68.0,0.0,60.0,2.0,0.0
6888,92.0,15.0,60.0,0.0,0.0
6889,68.0,0.0,60.0,3.0,0.0
6890,56.0,0.0,60.0,3.0,0.0
6891,56.0,0.0,60.0,6.0,0.0
6892,51.0,0.0,15.0,11.0,0.0
6893,87.0,105.0,15.0,7.0,0.0
6894,63.0,0.0,15.0,10.0,0.0
6895,75.0,0.0,15.0,8.0,0.0
6896,65.0,0.0,120.0,10.0,0.0
6897,77.0,0.0,120.0,8.0,0.0
6898,53.0,60.0,120.0,11.0,0.0
6899,89.0,0.0,120.0,7.0,0.0
6900,68.0,0.0,60.0,5.0,0.0
6901,80.0,15.0,60.0,2.0,0.0
6902,68.0,0.0,60.0,2.0,0.0
6903,80.0,0.0,60.0,1.0,0.0
6904,56.0,0.0,60.0,4.0,0.0
6905,92.0,0.0,60.0,0.0,0.0
6906,68.0,0.0,60.0,3.0,0.0
6907,56.0,0.0,60.0,6.0,0.0
6908,56.0,0.0,60.0,3.0,0.0
6909,68.0,0.0,60.0,4.0,0.0
6910,53.0,0.0,15.0,11.0,0.0
6911,77.0,105.0,15.0,8.0,0.0
6912,89.0,0.0,15.0,7.0,0.0
6913,65.0,0.0,15.0,10.0,0.0
6914,66.0,0.0,120.0,10.0,0.0
6915,78.0,0.0,120.0,8.0,0.0
6916,54.0,0.0,120.0,11.0,0.0
6917,90.0,60.0,120.0,7.0,0.0
6918,80.0,0.0,60.0,1.0,0.0
6919,56.0,0.0,60.0,4.0,0.0
6920,68.0,0.0,60.0,3.0,0.0
6921,56.0,0.0,60.0,3.0,0.0
6922,68.0,120.0,60.0,4.0,0.0
6923,56.0,0.0,60.0,6.0,0.0
6924,68.0,0.0,60.0,5.0,0.0
6925,92.0,0.0,60.0,0.0,0.0
6926,80.0,0.0,60.0,2.0,0.0
6927,68.0,0.0,60.0,2.0,0.0
6928,91.0,0.0,120.0,7.0,0.0
6929,79.0,0.0,120.0,8.0,0.0
6930,67.0,60.0,120.0,10.0,0.0
6931,55.0,0.0,120.0,11.0,0.0
6932,56.0,0.0,60.0,3.0,0.0
6933,68.0,0.0,60.0,5.0,0.0
6934,92.0,450.0,60.0,0.0,0.0
6935,56.0,0.0,60.0,6.0,0.0
6936,80.0,0.0,60.0,2.0,0.0
6937,68.0,0.0,60.0,4.0,0.0
6938,68.0,0.0,60.0,3.0,0.0
6939,80.0,0.0,60.0,1.0,0.0
6940,56.0,0.0,60.0,4.0,0.0
6941,68.0,0.0,60.0,2.0,0.0
6942,80.0,0.0,90.0,1.0,0.0
6943,92.0,30.0,90.0,0.0,0.0
6944,80.0,60.0,30.0,1.0,0.0
6945,92.0,0.0,30.0,0.0,0.0
6946,80.0,0.0,60.0,1.0,0.0
6947,92.0,90.0,15.0,0.0,0.0
6948,80.0,0.0,90.0,1.0,0.0
6949,80.0,0.0,30.0,1.0,0.0
6950,92.0,30.0,15.0,0.0,0.0
6951,92.0,60.0,15.0,0.0,0.0
6952,80.0,90.0,60.0,1.0,0.0
6953,92.0,0.0,90.0,0.0,0.0
6954,80.0,30.0,90.0,1.0,0.0
6955,92.0,60.0,30.0,0.0,0.0
6956,80.0,0.0,15.0,1.0,0.0
6957,92.0,0.0,60.0,0.0,0.0
6958,80.0,90.0,15.0,1.0,0.0
6959,80.0,60.0,30.0,1.0,0.0
6960,92.0,30.0,15.0,0.0,0.0
6961,92.0,90.0,60.0,0.0,0.0
6962,80.0,0.0,15.0,1.0,0.0
6963,92.0,0.0,90.0,0.0,0.0
6964,68.0,0.0,15.0,3.0,0.0
6965,80.0,30.0,15.0,1.0,0.0
6966,80.0,0.0,15.0,1.0,0.0
6967,68.0,60.0,15.0,3.0,0.0
6968,92.0,0.0,15.0,0.0,0.0
6969,92.0,0.0,15.0,0.0,0.0
6970,80.0,0.0,15.0,1.0,0.0
6971,68.0,90.0,15.0,3.0,0.0
6972,92.0,0.0,15.0,0.0,0.0
6973,68.0,30.0,15.0,3.0,0.0
6974,68.0,0.0,60.0,3.0,0.0
6975,80.0,60.0,15.0,1.0,0.0
6976,92.0,90.0,15.0,0.0,0.0
6977,65.0,0.0,90.0,3.0,0.0
6978,68.0,0.0,90.0,3.0,0.0
6979,89.0,30.0,15.0,0.0,0.0
6980,65.0,0.0,30.0,3.0,0.0
6981,92.0,0.0,15.0,0.0,0.0
6982,65.0,0.0,60.0,3.0,0.0
6983,68.0,60.0,15.0,3.0,0.0
6984,89.0,0.0,15.0,0.0,0.0
6985,80.0,0.0,90.0,1.0,0.0
6986,49.0,0.0,90.0,4.0,0.0
6987,37.0,0.0,90.0,4.0,0.0
6988,80.0,0.0,90.0,2.0,0.0
6989,77.0,0.0,90.0,2.0,0.0
6990,68.0,0.0,15.0,3.0,0.0
6991,65.0,0.0,15.0,3.0,0.0
6992,92.0,0.0,15.0,0.0,0.0
6993,68.0,0.0,15.0,1.0,0.0
6994,49.0,0.0,30.0,4.0,0.0
6995,89.0,30.0,15.0,0.0,0.0
6996,80.0,0.0,30.0,1.0,0.0
6997,89.0,0.0,60.0,0.0,0.0
6998,65.0,60.0,15.0,3.0,0.0
6999,77.0,0.0,15.0,2.0,0.0
7000,37.0,0.0,15.0,4.0,0.0
7001,80.0,0.0,15.0,2.0,0.0
7002,68.0,0.0,60.0,3.0,0.0
7003,49.0,0.0,60.0,4.0,0.0
7004,61.0,0.0,30.0,8.0,0.0
7005,61.0,0.0,30.0,7.0,0.0
7006,61.0,0.0,15.0,10.0,0.0
7007,92.0,0.0,15.0,0.0,0.0
7008,61.0,0.0,120.0,8.0,0.0
7009,89.0,0.0,120.0,0.0,0.0
7010,80.0,0.0,15.0,1.0,0.0
7011,49.0,0.0,2220.0,4.0,0.0
7012,49.0,0.0,15.0,11.0,0.0
7013,80.0,0.0,15.0,2.0,0.0
7014,77.0,0.0,15.0,2.0,0.0
7015,37.0,1.0,2220.0,4.0,0.0
7016,68.0,0.0,15.0,1.0,0.0
7017,65.0,120.0,15.0,3.0,0.0
7018,68.0,15.0,360.0,3.0,0.0
7019,61.0,0.0,120.0,7.0,0.0
7020,90.0,60.0,30.0,0.0,0.0
7021,89.0,0.0,60.0,0.0,0.0
7022,89.0,256.0,15.0,0.0,0.0
7023,63.0,0.0,360.0,3.0,0.0
7024,66.0,0.0,360.0,3.0,0.0
7025,75.0,0.0,360.0,2.0,0.0
7026,78.0,0.0,360.0,2.0,0.0
7027,90.0,29.0,240.0,0.0,0.0
7028,82.0,60.0,30.0,0.0,0.0
7029,84.0,0.0,60.0,0.0,0.0
7030,61.0,0.0,30.0,7.0,0.0
7031,61.0,120.0,15.0,8.0,0.0
7032,61.0,0.0,120.0,3.0,0.0
7033,65.0,0.0,120.0,3.0,0.0
7034,49.0,0.0,15.0,11.0,0.0
7035,77.0,0.0,120.0,2.0,0.0
7036,61.0,0.0,15.0,10.0,0.0
7037,61.0,0.0,120.0,7.0,0.0
7038,73.0,0.0,120.0,2.0,0.0
7039,85.0,0.0,120.0,0.0,0.0
7040,77.0,0.0,60.0,2.0,0.0
7041,85.0,0.0,60.0,0.0,0.0
7042,85.0,30.0,90.0,0.0,0.0
7043,77.0,0.0,90.0,2.0,0.0
7044,68.0,0.0,15.0,3.0,0.0
7045,65.0,0.0,15.0,3.0,0.0
7046,80.0,90.0,15.0,2.0,0.0
7047,63.0,0.0,30.0,3.0,0.0
7048,87.0,0.0,30.0,0.0,0.0
7049,78.0,0.0,30.0,2.0,0.0
7050,75.0,60.0,30.0,2.0,0.0
7051,66.0,0.0,30.0,3.0,0.0
7052,89.0,0.0,60.0,0.0,0.0
7053,73.0,0.0,60.0,2.0,0.0
7054,61.0,0.0,15.0,3.0,0.0
7055,65.0,0.0,15.0,3.0,0.0
7056,73.0,0.0,60.0,2.0,0.0
7057,77.0,60.0,15.0,2.0,0.0
7058,89.0,0.0,60.0,0.0,0.0
7059,75.0,0.0,210.0,2.0,0.0
7060,72.0,0.0,210.0,2.0,0.0
7061,87.0,15.0,120.0,0.0,0.0
7062,60.0,0.0,210.0,3.0,0.0
7063,63.0,0.0,210.0,3.0,0.0
7064,89.0,15.0,15.0,0.0,0.0
7065,87.0,15.0,15.0,0.0,0.0
7066,85.0,45.0,15.0,0.0,0.0
7067,87.0,30.0,40.0,0.0,0.0
7068,65.0,0.0,30.0,3.0,0.0
7069,61.0,0.0,30.0,3.0,0.0
7070,77.0,60.0,30.0,2.0,0.0
7071,73.0,0.0,30.0,2.0,0.0
7072,89.0,0.0,30.0,0.0,0.0
7073,90.0,0.0,60.0,0.0,0.0
7074,63.0,0.0,60.0,3.0,0.0
7075,66.0,0.0,60.0,3.0,0.0
7076,75.0,0.0,60.0,2.0,0.0
7077,78.0,0.0,60.0,2.0,0.0
7078,49.0,0.0,30.0,11.0,0.0
7079,61.0,0.0,30.0,7.0,0.0
7080,65.0,0.0,360.0,3.0,0.0
7081,77.0,15.0,360.0,2.0,0.0
7082,80.0,0.0,360.0,2.0,0.0
7083,61.0,120.0,15.0,10.0,0.0
7084,68.0,0.0,360.0,3.0,0.0
7085,61.0,0.0,15.0,8.0,0.0
7086,89.0,0.0,120.0,0.0,0.0
7087,92.0,30.0,270.0,0.0,0.0
7088,61.0,0.0,120.0,7.0,0.0
7089,49.0,0.0,120.0,11.0,0.0
7090,90.0,60.0,30.0,0.0,0.0
7091,89.0,0.0,60.0,0.0,0.0
7092,66.0,0.0,360.0,3.0,0.0
7093,63.0,0.0,360.0,3.0,0.0
7094,78.0,0.0,360.0,2.0,0.0
7095,75.0,0.0,360.0,2.0,0.0
7096,89.0,256.0,15.0,0.0,0.0
7097,90.0,29.0,240.0,0.0,0.0
7098,82.0,60.0,30.0,0.0,0.0
7099,84.0,0.0,60.0,0.0,0.0
7100,61.0,0.0,30.0,7.0,0.0
7101,61.0,0.0,30.0,8.0,0.0
7102,49.0,59.0,30.0,11.0,0.0
7103,61.0,0.0,60.0,7.0,0.0
7104,61.0,0.0,15.0,10.0,0.0
7105,77.0,0.0,120.0,2.0,0.0
7106,73.0,0.0,120.0,2.0,0.0
7107,65.0,0.0,120.0,3.0,0.0
7108,61.0,59.0,60.0,8.0,0.0
7109,61.0,0.0,120.0,3.0,0.0
7110,49.0,0.0,60.0,11.0,0.0
7111,56.0,0.0,60.0,4.0,0.0
7112,61.0,60.0,60.0,4.0,0.0
7113,73.0,0.0,60.0,2.0,0.0
7114,77.0,0.0,60.0,2.0,0.0
7115,85.0,0.0,15.0,0.0,0.0
7116,53.0,0.0,60.0,11.0,0.0
7117,68.0,0.0,60.0,1.0,0.0
7118,80.0,0.0,60.0,1.0,0.0
7119,56.0,0.0,60.0,4.0,0.0
7120,65.0,0.0,60.0,4.0,0.0
7121,65.0,0.0,60.0,8.0,0.0
7122,65.0,0.0,60.0,7.0,0.0
7123,53.0,0.0,60.0,10.0,0.0
7124,68.0,0.0,60.0,7.0,0.0
7125,56.0,0.0,60.0,11.0,0.0
7126,73.0,0.0,120.0,2.0,0.0
7127,68.0,0.0,60.0,4.0,0.0
7128,68.0,60.0,60.0,8.0,0.0
7129,56.0,0.0,60.0,10.0,0.0
7130,77.0,0.0,60.0,2.0,0.0
7131,80.0,0.0,120.0,1.0,0.0
7132,61.0,0.0,15.0,3.0,0.0
7133,65.0,0.0,15.0,3.0,0.0
7134,85.0,60.0,15.0,0.0,0.0
7135,56.0,0.0,15.0,4.0,0.0
7136,80.0,60.0,60.0,2.0,0.0
7137,68.0,0.0,60.0,3.0,0.0
7138,89.0,0.0,60.0,0.0,0.0
7139,68.0,0.0,15.0,1.0,0.0
7140,66.0,0.0,60.0,3.0,0.0
7141,60.0,0.0,60.0,3.0,0.0
7142,68.0,0.0,60.0,7.0,0.0
7143,80.0,0.0,60.0,1.0,0.0
7144,68.0,0.0,15.0,4.0,0.0
7145,78.0,0.0,60.0,2.0,0.0
7146,87.0,0.0,60.0,0.0,0.0
7147,56.0,0.0,60.0,10.0,0.0
7148,68.0,0.0,60.0,8.0,0.0
7149,56.0,0.0,60.0,4.0,0.0
7150,56.0,90.0,60.0,11.0,0.0
7151,72.0,0.0,60.0,2.0,0.0
7152,61.0,0.0,120.0,7.0,0.0
7153,61.0,30.0,90.0,3.0,0.0
7154,65.0,0.0,90.0,3.0,0.0
7155,49.0,0.0,2400.0,4.0,0.0
7156,61.0,0.0,120.0,8.0,0.0
7157,73.0,0.0,90.0,2.0,0.0
7158,37.0,0.0,2400.0,4.0,0.0
7159,80.0,0.0,120.0,1.0,0.0
7160,68.0,60.0,120.0,1.0,0.0
7161,77.0,0.0,90.0,2.0,0.0
7162,85.0,0.0,120.0,0.0,0.0
7163,61.0,0.0,120.0,10.0,0.0
7164,49.0,0.0,120.0,11.0,0.0
7165,75.0,0.0,30.0,2.0,0.0
7166,78.0,0.0,30.0,2.0,0.0
7167,63.0,0.0,30.0,3.0,0.0
7168,66.0,0.0,30.0,3.0,0.0
7169,80.0,0.0,60.0,2.0,0.0
7170,65.0,0.0,60.0,3.0,0.0
7171,77.0,0.0,60.0,2.0,0.0
7172,68.0,60.0,60.0,3.0,0.0
7173,70.0,0.0,60.0,3.0,0.0
7174,66.0,0.0,60.0,3.0,0.0
7175,78.0,0.0,15.0,2.0,0.0
7176,82.0,60.0,15.0,2.0,0.0
7177,82.0,0.0,15.0,2.0,0.0
7178,85.0,0.0,60.0,0.0,0.0
7179,54.0,0.0,15.0,3.0,0.0
7180,58.0,60.0,15.0,3.0,0.0
7181,73.0,0.0,60.0,1.0,0.0
7182,78.0,0.0,15.0,2.0,0.0
7183,82.0,0.0,360.0,2.0,0.0
7184,58.0,0.0,360.0,3.0,0.0
7185,54.0,60.0,360.0,3.0,0.0
7186,73.0,0.0,15.0,1.0,0.0
7187,85.0,60.0,15.0,0.0,0.0
7188,85.0,90.0,15.0,0.0,0.0
7189,73.0,30.0,90.0,1.0,0.0
7190,90.0,0.0,30.0,0.0,0.0
7191,78.0,60.0,30.0,1.0,0.0
7192,82.0,0.0,60.0,1.0,0.0
7193,94.0,0.0,60.0,0.0,0.0
7194,61.0,0.0,15.0,8.0,0.0
7195,77.0,0.0,720.0,2.0,0.0
7196,82.0,60.0,60.0,1.0,0.0
7197,61.0,0.0,15.0,10.0,0.0
7198,80.0,0.0,720.0,2.0,0.0
7199,61.0,0.0,15.0,7.0,0.0
7200,56.0,0.0,720.0,3.0,0.0
7201,49.0,0.0,15.0,11.0,0.0
7202,94.0,0.0,60.0,0.0,0.0
7203,53.0,0.0,720.0,3.0,0.0
7204,92.0,0.0,60.0,0.0,0.0
7205,80.0,0.0,60.0,1.0,0.0
7206,89.0,0.0,60.0,0.0,0.0
7207,77.0,120.0,60.0,1.0,0.0
7208,73.0,0.0,120.0,1.0,0.0
7209,85.0,60.0,120.0,0.0,0.0
7210,68.0,60.0,60.0,8.0,0.0
7211,56.0,0.0,60.0,10.0,0.0
7212,56.0,0.0,60.0,11.0,0.0
7213,68.0,0.0,60.0,7.0,0.0
7214,58.0,0.0,60.0,10.0,0.0
7215,58.0,0.0,60.0,11.0,0.0
7216,70.0,0.0,60.0,8.0,0.0
7217,70.0,60.0,60.0,7.0,0.0
7218,56.0,0.0,60.0,11.0,0.0
7219,56.0,60.0,60.0,10.0,0.0
7220,68.0,0.0,60.0,8.0,0.0
7221,68.0,0.0,60.0,7.0,0.0
7222,53.0,0.0,60.0,10.0,0.0
7223,65.0,0.0,60.0,7.0,0.0
7224,65.0,0.0,60.0,8.0,0.0
7225,53.0,120.0,60.0,11.0,0.0
7226,61.0,0.0,120.0,8.0,0.0
7227,61.0,0.0,120.0,10.0,0.0
7228,49.0,60.0,120.0,11.0,0.0
7229,61.0,0.0,120.0,7.0,0.0
7230,85.0,90.0,60.0,0.0,0.0
7231,73.0,0.0,15.0,1.0,0.0
7232,54.0,0.0,360.0,3.0,0.0
7233,78.0,0.0,360.0,2.0,0.0
7234,82.0,60.0,360.0,2.0,0.0
7235,85.0,30.0,90.0,0.0,0.0
7236,58.0,0.0,360.0,3.0,0.0
7237,78.0,0.0,30.0,1.0,0.0
7238,90.0,60.0,30.0,0.0,0.0
7239,73.0,90.0,60.0,1.0,0.0
7240,85.0,0.0,60.0,0.0,0.0
7241,73.0,30.0,90.0,1.0,0.0
7242,85.0,0.0,90.0,0.0,0.0
7243,90.0,0.0,30.0,0.0,0.0
7244,78.0,60.0,30.0,1.0,0.0
7245,82.0,0.0,60.0,1.0,0.0
7246,82.0,0.0,60.0,1.0,0.0
7247,61.0,0.0,15.0,10.0,0.0
7248,49.0,0.0,15.0,11.0,0.0
7249,61.0,0.0,15.0,8.0,0.0
7250,56.0,0.0,600.0,3.0,0.0
7251,53.0,60.0,600.0,3.0,0.0
7252,94.0,0.0,15.0,0.0,0.0
7253,80.0,0.0,600.0,2.0,0.0
7254,61.0,0.0,15.0,7.0,0.0
7255,80.0,0.0,60.0,1.0,0.0
7256,92.0,0.0,60.0,0.0,0.0
7257,77.0,0.0,60.0,1.0,0.0
7258,89.0,120.0,60.0,0.0,0.0
7259,73.0,60.0,120.0,1.0,0.0
7260,85.0,0.0,120.0,0.0,0.0
7261,56.0,0.0,60.0,11.0,0.0
7262,68.0,0.0,60.0,8.0,0.0
7263,56.0,0.0,60.0,10.0,0.0
7264,68.0,60.0,60.0,7.0,0.0
7265,58.0,60.0,60.0,11.0,0.0
7266,70.0,0.0,60.0,7.0,0.0
7267,70.0,0.0,60.0,8.0,0.0
7268,58.0,0.0,60.0,10.0,0.0
7269,68.0,60.0,60.0,7.0,0.0
7270,56.0,0.0,60.0,10.0,0.0
7271,56.0,0.0,60.0,11.0,0.0
7272,68.0,0.0,60.0,8.0,0.0
7273,65.0,0.0,60.0,7.0,0.0
7274,53.0,0.0,60.0,10.0,0.0
7275,65.0,60.0,60.0,8.0,0.0
7276,53.0,0.0,60.0,11.0,0.0
7277,61.0,0.0,120.0,10.0,0.0
7278,49.0,0.0,120.0,11.0,0.0
7279,61.0,0.0,120.0,8.0,0.0
7280,61.0,0.0,120.0,7.0,0.0
7281,61.0,0.0,60.0,3.0,0.0
7282,65.0,0.0,60.0,3.0,0.0
7283,77.0,0.0,15.0,2.0,0.0
7284,65.0,0.0,60.0,3.0,0.0
7285,73.0,60.0,15.0,2.0,0.0
7286,77.0,0.0,60.0,1.0,0.0
7287,89.0,120.0,60.0,0.0,0.0
7288,77.0,0.0,60.0,2.0,0.0
7289,61.0,0.0,60.0,3.0,0.0
7290,72.0,0.0,180.0,2.0,0.0
7291,63.0,0.0,180.0,3.0,0.0
7292,60.0,0.0,180.0,3.0,0.0
7293,75.0,0.0,180.0,2.0,0.0
7294,75.0,0.0,120.0,1.0,0.0
7295,87.0,60.0,120.0,0.0,0.0
7296,80.0,0.0,15.0,0.0,0.0
7297,61.0,0.0,180.0,3.0,0.0
7298,65.0,300.0,180.0,3.0,0.0
7299,73.0,0.0,180.0,2.0,0.0
7300,77.0,0.0,180.0,2.0,0.0
7301,68.0,90.0,15.0,1.0,0.0
7302,77.0,0.0,30.0,1.0,0.0
7303,89.0,60.0,30.0,0.0,0.0
7304,73.0,0.0,60.0,1.0,0.0
7305,85.0,0.0,60.0,0.0,0.0
7306,56.0,0.0,30.0,10.0,0.0
7307,56.0,0.0,30.0,11.0,0.0
7308,68.0,0.0,30.0,8.0,0.0
7309,92.0,0.0,300.0,0.0,0.0
7310,80.0,0.0,300.0,1.0,0.0
7311,63.0,0.0,300.0,3.0,0.0
7312,56.0,0.0,300.0,11.0,0.0
7313,56.0,0.0,300.0,10.0,0.0
7314,80.0,0.0,15.0,7.0,0.0
7315,68.0,0.0,300.0,7.0,0.0
7316,72.0,0.0,300.0,2.0,0.0
7317,75.0,0.0,300.0,2.0,0.0
7318,80.0,0.0,300.0,8.0,0.0
7319,68.0,60.0,300.0,8.0,0.0
7320,68.0,0.0,720.0,4.0,0.0
7321,60.0,0.0,300.0,3.0,0.0
7322,89.0,0.0,60.0,0.0,0.0
7323,65.0,0.0,60.0,3.0,0.0
7324,61.0,120.0,60.0,3.0,0.0
7325,77.0,0.0,60.0,1.0,0.0
7326,77.0,0.0,60.0,2.0,0.0
7327,73.0,0.0,60.0,2.0,0.0
7328,63.0,90.0,180.0,3.0,0.0
7329,87.0,60.0,120.0,0.0,0.0
7330,60.0,0.0,180.0,3.0,0.0
7331,75.0,0.0,180.0,2.0,0.0
7332,72.0,0.0,180.0,2.0,0.0
7333,75.0,0.0,120.0,1.0,0.0
7334,68.0,0.0,60.0,1.0,0.0
7335,80.0,0.0,60.0,0.0,0.0
7336,68.0,0.0,90.0,1.0,0.0
7337,73.0,0.0,90.0,2.0,0.0
7338,61.0,0.0,90.0,3.0,0.0
7339,80.0,30.0,90.0,0.0,0.0
7340,77.0,0.0,15.0,2.0,0.0
7341,65.0,0.0,15.0,3.0,0.0
7342,89.0,0.0,30.0,0.0,0.0
7343,77.0,0.0,30.0,1.0,0.0
7344,85.0,0.0,60.0,0.0,0.0
7345,73.0,0.0,60.0,1.0,0.0
7346,73.0,0.0,60.0,2.0,0.0
7347,61.0,0.0,60.0,3.0,0.0
7348,80.0,0.0,30.0,8.0,0.0
7349,68.0,0.0,30.0,8.0,0.0
7350,56.0,0.0,30.0,11.0,0.0
7351,80.0,0.0,30.0,7.0,0.0
7352,80.0,0.0,300.0,2.0,0.0
7353,68.0,0.0,300.0,1.0,0.0
7354,80.0,0.0,300.0,1.0,0.0
7355,68.0,0.0,15.0,7.0,0.0
7356,56.0,0.0,15.0,10.0,0.0
7357,56.0,0.0,270.0,11.0,0.0
7358,80.0,0.0,270.0,7.0,0.0
7359,56.0,270.0,15.0,4.0,0.0
7360,68.0,0.0,300.0,4.0,0.0
7361,92.0,0.0,300.0,0.0,0.0
7362,80.0,0.0,300.0,0.0,0.0
7363,56.0,0.0,270.0,3.0,0.0
7364,68.0,0.0,270.0,8.0,0.0
7365,80.0,0.0,270.0,8.0,0.0
7366,53.0,0.0,30.0,11.0,0.0
7367,53.0,0.0,30.0,3.0,0.0
7368,77.0,0.0,30.0,8.0,0.0
7369,65.0,0.0,30.0,10.0,0.0
7370,77.0,60.0,30.0,7.0,0.0
7371,49.0,0.0,60.0,3.0,0.0
7372,61.0,0.0,60.0,10.0,0.0
7373,73.0,0.0,60.0,8.0,0.0
7374,73.0,0.0,60.0,7.0,0.0
7375,49.0,270.0,60.0,11.0,0.0
7376,80.0,0.0,300.0,0.0,0.0
7377,68.0,0.0,270.0,8.0,0.0
7378,80.0,0.0,300.0,2.0,0.0
7379,68.0,0.0,300.0,1.0,0.0
7380,80.0,0.0,270.0,8.0,0.0
7381,56.0,0.0,300.0,4.0,0.0
7382,92.0,0.0,300.0,0.0,0.0
7383,68.0,0.0,300.0,4.0,0.0
7384,80.0,0.0,270.0,7.0,0.0
7385,68.0,0.0,270.0,7.0,0.0
7386,80.0,0.0,300.0,1.0,0.0
7387,56.0,30.0,270.0,3.0,0.0
7388,68.0,0.0,270.0,10.0,0.0
7389,56.0,0.0,270.0,11.0,0.0
7390,77.0,0.0,30.0,7.0,0.0
7391,65.0,60.0,30.0,10.0,0.0
7392,53.0,0.0,30.0,11.0,0.0
7393,53.0,0.0,30.0,3.0,0.0
7394,65.0,0.0,30.0,8.0,0.0
7395,74.0,60.0,60.0,7.0,0.0
7396,50.0,0.0,60.0,11.0,0.0
7397,62.0,0.0,60.0,8.0,0.0
7398,50.0,0.0,60.0,3.0,0.0
7399,62.0,0.0,60.0,10.0,0.0
7400,56.0,0.0,120.0,4.0,0.0
7401,80.0,0.0,120.0,0.0,0.0
7402,68.0,0.0,60.0,8.0,0.0
7403,56.0,0.0,60.0,3.0,0.0
7404,68.0,60.0,60.0,10.0,0.0
7405,68.0,0.0,120.0,4.0,0.0
7406,56.0,0.0,60.0,11.0,0.0
7407,92.0,0.0,120.0,0.0,0.0
7408,80.0,0.0,120.0,2.0,0.0
7409,80.0,0.0,120.0,1.0,0.0
7410,68.0,0.0,120.0,1.0,0.0
7411,80.0,0.0,60.0,7.0,0.0
7412,78.0,0.0,30.0,7.0,0.0
7413,54.0,60.0,30.0,3.0,0.0
7414,66.0,0.0,30.0,10.0,0.0
7415,54.0,0.0,30.0,11.0,0.0
7416,66.0,0.0,30.0,8.0,0.0
7417,75.0,0.0,60.0,7.0,0.0
7418,63.0,0.0,60.0,10.0,0.0
7419,63.0,0.0,60.0,8.0,0.0
7420,51.0,60.0,60.0,3.0,0.0
7421,51.0,0.0,60.0,11.0,0.0
7422,80.0,0.0,120.0,1.0,0.0
7423,80.0,0.0,120.0,2.0,0.0
7424,84.0,60.0,60.0,7.0,0.0
7425,68.0,0.0,120.0,4.0,0.0
7426,56.0,0.0,120.0,4.0,0.0
7427,72.0,0.0,60.0,8.0,0.0
7428,92.0,0.0,120.0,0.0,0.0
7429,60.0,0.0,60.0,11.0,0.0
7430,80.0,0.0,120.0,0.0,0.0
7431,68.0,60.0,120.0,1.0,0.0
7432,72.0,0.0,60.0,10.0,0.0
7433,60.0,0.0,60.0,3.0,0.0
7434,56.0,0.0,30.0,3.0,0.0
7435,80.0,0.0,30.0,7.0,0.0
7436,68.0,0.0,30.0,8.0,0.0
7437,56.0,0.0,30.0,11.0,0.0
7438,68.0,0.0,30.0,10.0,0.0
7439,54.0,0.0,60.0,3.0,0.0
7440,78.0,0.0,60.0,7.0,0.0
7441,66.0,60.0,60.0,8.0,0.0
7442,66.0,0.0,60.0,10.0,0.0
7443,54.0,0.0,60.0,11.0,0.0
7444,80.0,0.0,120.0,0.0,0.0
7445,80.0,60.0,120.0,1.0,0.0
7446,87.0,0.0,60.0,7.0,0.0
7447,80.0,0.0,120.0,2.0,0.0
7448,63.0,60.0,60.0,3.0,0.0
7449,75.0,0.0,60.0,10.0,0.0
7450,92.0,0.0,120.0,0.0,0.0
7451,63.0,0.0,60.0,11.0,0.0
7452,75.0,0.0,60.0,8.0,0.0
7453,68.0,0.0,120.0,1.0,0.0
7454,56.0,0.0,120.0,4.0,0.0
7455,68.0,0.0,120.0,4.0,0.0
7456,84.0,0.0,30.0,7.0,0.0
7457,60.0,0.0,30.0,11.0,0.0
7458,72.0,0.0,30.0,10.0,0.0
7459,60.0,0.0,30.0,3.0,0.0
7460,72.0,0.0,30.0,8.0,0.0
7461,80.0,0.0,60.0,7.0,0.0
7462,56.0,0.0,60.0,11.0,0.0
7463,56.0,0.0,60.0,3.0,0.0
7464,68.0,60.0,60.0,10.0,0.0
7465,68.0,0.0,60.0,8.0,0.0
7466,78.0,0.0,60.0,8.0,0.0
7467,66.0,0.0,60.0,11.0,0.0
7468,66.0,0.0,60.0,3.0,0.0
7469,78.0,60.0,60.0,2.0,0.0
7470,90.0,0.0,60.0,0.0,0.0
7471,90.0,0.0,60.0,7.0,0.0
7472,78.0,0.0,60.0,1.0,0.0
7473,78.0,0.0,60.0,10.0,0.0
7474,56.0,0.0,60.0,4.0,0.0
7475,68.0,0.0,60.0,4.0,0.0
7476,90.0,0.0,60.0,1.0,0.0
7477,75.0,0.0,30.0,8.0,0.0
7478,63.0,0.0,30.0,3.0,0.0
7479,87.0,0.0,30.0,1.0,0.0
7480,75.0,0.0,30.0,10.0,0.0
7481,87.0,0.0,30.0,0.0,0.0
7482,75.0,0.0,30.0,1.0,0.0
7483,63.0,0.0,30.0,11.0,0.0
7484,75.0,0.0,30.0,2.0,0.0
7485,87.0,0.0,30.0,7.0,0.0
7486,72.0,120.0,60.0,2.0,0.0
7487,84.0,0.0,60.0,0.0,0.0
7488,60.0,0.0,60.0,11.0,0.0
7489,84.0,0.0,60.0,7.0,0.0
7490,72.0,0.0,60.0,8.0,0.0
7491,72.0,0.0,60.0,1.0,0.0
7492,60.0,0.0,60.0,3.0,0.0
7493,68.0,60.0,15.0,4.0,0.0
7494,56.0,0.0,15.0,4.0,0.0
7495,84.0,0.0,60.0,1.0,0.0
7496,75.0,0.0,120.0,8.0,0.0
7497,84.0,0.0,120.0,8.0,0.0
7498,56.0,0.0,120.0,11.0,0.0
7499,56.0,0.0,120.0,4.0,0.0
7500,66.0,0.0,120.0,3.0,0.0
7501,63.0,0.0,120.0,3.0,0.0
7502,72.0,0.0,15.0,10.0,0.0
7503,87.0,90.0,120.0,0.0,0.0
7504,90.0,0.0,120.0,0.0,0.0
7505,78.0,0.0,120.0,2.0,0.0
7506,75.0,0.0,120.0,2.0,0.0
7507,63.0,0.0,120.0,10.0,0.0
7508,90.0,0.0,120.0,7.0,0.0
7509,68.0,0.0,120.0,4.0,0.0
7510,78.0,0.0,120.0,1.0,0.0
7511,87.0,0.0,120.0,1.0,0.0
7512,56.0,0.0,30.0,10.0,0.0
7513,80.0,30.0,30.0,7.0,0.0
7514,68.0,0.0,30.0,8.0,0.0
7515,58.0,0.0,30.0,10.0,0.0
7516,82.0,30.0,30.0,7.0,0.0
7517,70.0,0.0,30.0,8.0,0.0
7518,72.0,0.0,30.0,8.0,0.0
7519,84.0,0.0,30.0,7.0,0.0
7520,60.0,30.0,30.0,10.0,0.0
7521,73.0,20.0,30.0,8.0,0.0
7522,85.0,0.0,30.0,7.0,0.0
7523,61.0,0.0,30.0,10.0,0.0
7524,63.0,0.0,20.0,10.0,0.0
7525,75.0,20.0,20.0,8.0,0.0
7526,87.0,0.0,20.0,7.0,0.0
7527,89.0,0.0,20.0,7.0,0.0
7528,65.0,20.0,20.0,10.0,0.0
7529,77.0,0.0,20.0,8.0,0.0
7530,90.0,30.0,20.0,7.0,0.0
7531,66.0,0.0,20.0,10.0,0.0
7532,78.0,0.0,20.0,8.0,0.0
7533,80.0,0.0,360.0,1.0,0.0
7534,89.0,0.0,360.0,0.0,0.0
7535,68.0,30.0,30.0,10.0,0.0
7536,65.0,0.0,360.0,2.0,0.0
7537,68.0,0.0,360.0,2.0,0.0
7538,49.0,0.0,90.0,6.0,0.0
7539,92.0,30.0,270.0,7.0,0.0
7540,49.0,0.0,90.0,11.0,0.0
7541,80.0,0.0,270.0,4.0,0.0
7542,92.0,0.0,360.0,0.0,0.0
7543,53.0,0.0,360.0,3.0,0.0
7544,80.0,0.0,30.0,8.0,0.0
7545,77.0,0.0,270.0,4.0,0.0
7546,77.0,0.0,360.0,1.0,0.0
7547,56.0,0.0,360.0,3.0,0.0
7548,65.0,30.0,30.0,8.0,0.0
7549,61.0,0.0,30.0,10.0,0.0
7550,63.0,0.0,30.0,10.0,0.0
7551,66.0,0.0,30.0,8.0,0.0
7552,49.0,0.0,30.0,6.0,0.0
7553,61.0,0.0,15.0,5.0,0.0
7554,49.0,30.0,15.0,5.0,0.0
7555,65.0,0.0,30.0,10.0,0.0
7556,49.0,0.0,30.0,11.0,0.0
7557,49.0,0.0,15.0,5.0,0.0
7558,61.0,0.0,15.0,5.0,0.0
7559,49.0,0.0,60.0,6.0,0.0
7560,65.0,0.0,30.0,10.0,0.0
7561,68.0,30.0,15.0,8.0,0.0
7562,49.0,0.0,60.0,11.0,0.0
7563,68.0,0.0,30.0,8.0,0.0
7564,65.0,0.0,30.0,10.0,0.0
7565,61.0,30.0,15.0,5.0,0.0
7566,61.0,0.0,30.0,10.0,0.0
7567,65.0,30.0,30.0,8.0,0.0
7568,49.0,0.0,90.0,11.0,0.0
7569,49.0,0.0,90.0,6.0,0.0
7570,49.0,0.0,15.0,5.0,0.0
7571,63.0,0.0,30.0,10.0,0.0
7572,66.0,30.0,30.0,8.0,0.0
7573,49.0,0.0,15.0,5.0,0.0
7574,49.0,0.0,30.0,11.0,0.0
7575,75.0,0.0,30.0,4.0,0.0
7576,78.0,0.0,30.0,4.0,0.0
7577,49.0,0.0,30.0,6.0,0.0
7578,61.0,0.0,15.0,5.0,0.0
7579,65.0,0.0,15.0,10.0,0.0
7580,68.0,0.0,15.0,8.0,0.0
7581,90.0,0.0,30.0,7.0,0.0
7582,49.0,0.0,60.0,5.0,0.0
7583,61.0,0.0,60.0,5.0,0.0
7584,77.0,0.0,60.0,4.0,0.0
7585,89.0,0.0,60.0,7.0,0.0
7586,49.0,0.0,60.0,6.0,0.0
7587,49.0,0.0,60.0,11.0,0.0
7588,68.0,0.0,15.0,8.0,0.0
7589,65.0,30.0,15.0,10.0,0.0
7590,66.0,30.0,30.0,8.0,0.0
7591,89.0,15.0,15.0,7.0,0.0
7592,54.0,0.0,300.0,3.0,0.0
7593,49.0,0.0,90.0,6.0,0.0
7594,94.0,0.0,300.0,0.0,0.0
7595,58.0,30.0,300.0,3.0,0.0
7596,90.0,0.0,300.0,0.0,0.0
7597,70.0,0.0,300.0,2.0,0.0
7598,66.0,0.0,300.0,2.0,0.0
7599,78.0,0.0,300.0,1.0,0.0
7600,78.0,0.0,300.0,4.0,0.0
7601,82.0,0.0,300.0,1.0,0.0
7602,61.0,0.0,90.0,5.0,0.0
7603,58.0,0.0,30.0,10.0,0.0
7604,49.0,30.0,90.0,5.0,0.0
7605,73.0,15.0,15.0,4.0,0.0
7606,90.0,0.0,240.0,7.0,0.0
7607,59.0,0.0,30.0,10.0,0.0
7608,68.0,30.0,30.0,8.0,0.0
7609,70.0,0.0,30.0,8.0,0.0
7610,70.0,30.0,30.0,8.0,0.0
7611,49.0,0.0,15.0,11.0,0.0
7612,61.0,0.0,15.0,10.0,0.0
7613,49.0,0.0,30.0,5.0,0.0
7614,49.0,0.0,15.0,6.0,0.0
7615,61.0,0.0,15.0,5.0,0.0
7616,61.0,0.0,15.0,10.0,0.0
7617,70.0,30.0,15.0,8.0,0.0
7618,66.0,0.0,30.0,8.0,0.0
7619,61.0,0.0,15.0,5.0,0.0
7620,49.0,0.0,15.0,5.0,0.0
7621,58.0,30.0,30.0,10.0,0.0
7622,49.0,30.0,15.0,11.0,0.0
7623,59.0,0.0,30.0,10.0,0.0
7624,68.0,30.0,30.0,8.0,0.0
7625,70.0,0.0,30.0,8.0,0.0
7626,49.0,0.0,15.0,11.0,0.0
7627,49.0,0.0,15.0,5.0,0.0
7628,61.0,30.0,15.0,5.0,0.0
7629,49.0,0.0,15.0,6.0,0.0
7630,61.0,0.0,15.0,10.0,0.0
7631,82.0,0.0,30.0,7.0,0.0
7632,84.0,0.0,60.0,7.0,0.0
7633,68.0,0.0,60.0,4.0,0.0
7634,75.0,0.0,60.0,4.0,0.0
7635,49.0,0.0,60.0,5.0,0.0
7636,61.0,0.0,60.0,5.0,0.0
7637,72.0,0.0,60.0,2.0,0.0
7638,63.0,0.0,60.0,2.0,0.0
7639,66.0,0.0,15.0,8.0,0.0
7640,51.0,0.0,60.0,3.0,0.0
7641,60.0,0.0,60.0,3.0,0.0
7642,49.0,0.0,60.0,11.0,0.0
7643,87.0,0.0,60.0,0.0,0.0
7644,84.0,0.0,60.0,1.0,0.0
7645,75.0,0.0,60.0,1.0,0.0
7646,96.0,0.0,60.0,0.0,0.0
7647,63.0,30.0,15.0,10.0,0.0
7648,66.0,0.0,15.0,8.0,0.0
7649,77.0,0.0,420.0,1.0,0.0
7650,61.0,0.0,120.0,3.0,0.0
7651,85.0,0.0,420.0,1.0,0.0
7652,85.0,0.0,120.0,7.0,0.0
7653,65.0,0.0,420.0,2.0,0.0
7654,61.0,0.0,30.0,10.0,0.0
7655,65.0,30.0,30.0,8.0,0.0
7656,49.0,0.0,15.0,6.0,0.0
7657,89.0,0.0,420.0,0.0,0.0
7658,97.0,0.0,420.0,0.0,0.0
7659,49.0,0.0,90.0,11.0,0.0
7660,65.0,0.0,120.0,4.0,0.0
7661,73.0,0.0,420.0,2.0,0.0
7662,73.0,0.0,120.0,4.0,0.0
7663,63.0,30.0,30.0,10.0,0.0
7664,66.0,0.0,30.0,8.0,0.0
7665,65.0,0.0,15.0,10.0,0.0
7666,49.0,0.0,15.0,5.0,0.0
7667,68.0,30.0,15.0,8.0,0.0
7668,61.0,0.0,15.0,5.0,0.0
7669,49.0,0.0,30.0,11.0,0.0
7670,49.0,30.0,15.0,6.0,0.0
7671,68.0,0.0,30.0,8.0,0.0
7672,53.0,0.0,15.0,3.0,0.0
7673,65.0,0.0,60.0,4.0,0.0
7674,73.0,0.0,60.0,4.0,0.0
7675,61.0,0.0,15.0,5.0,0.0
7676,49.0,0.0,15.0,5.0,0.0
7677,65.0,30.0,15.0,10.0,0.0
7678,68.0,0.0,30.0,8.0,0.0
7679,53.0,0.0,15.0,3.0,0.0
7680,61.0,0.0,15.0,3.0,0.0
7681,85.0,0.0,15.0,7.0,0.0
7682,49.0,0.0,15.0,5.0,0.0
7683,53.0,30.0,30.0,10.0,0.0
7684,61.0,0.0,30.0,8.0,0.0
7685,49.0,30.0,15.0,11.0,0.0
7686,65.0,0.0,90.0,4.0,0.0
7687,73.0,0.0,90.0,4.0,0.0
7688,49.0,0.0,90.0,6.0,0.0
7689,63.0,30.0,30.0,8.0,0.0
7690,54.0,0.0,30.0,10.0,0.0
7691,61.0,0.0,30.0,10.0,0.0
7692,65.0,0.0,15.0,8.0,0.0
7693,68.0,0.0,30.0,4.0,0.0
7694,75.0,0.0,30.0,4.0,0.0
7695,61.0,0.0,30.0,10.0,0.0
7696,87.0,0.0,30.0,7.0,0.0
7697,63.0,0.0,30.0,3.0,0.0
7698,56.0,0.0,30.0,3.0,0.0
7699,49.0,30.0,30.0,6.0,0.0
7700,49.0,0.0,15.0,5.0,0.0
7701,61.0,0.0,15.0,5.0,0.0
7702,49.0,0.0,30.0,11.0,0.0
7703,73.0,0.0,60.0,4.0,0.0
7704,61.0,0.0,30.0,10.0,0.0
7705,61.0,0.0,60.0,3.0,0.0
7706,65.0,30.0,30.0,8.0,0.0
7707,49.0,0.0,60.0,6.0,0.0
7708,49.0,0.0,60.0,5.0,0.0
7709,61.0,0.0,60.0,5.0,0.0
7710,49.0,0.0,60.0,11.0,0.0
7711,61.0,0.0,30.0,10.0,0.0
7712,65.0,0.0,30.0,8.0,0.0
7713,89.0,0.0,15.0,7.0,0.0
7714,56.0,30.0,30.0,10.0,0.0
7715,73.0,0.0,60.0,4.0,0.0
7716,77.0,0.0,15.0,4.0,0.0
7717,65.0,30.0,15.0,3.0,0.0
7718,49.0,0.0,90.0,11.0,0.0
7719,63.0,0.0,30.0,8.0,0.0
7720,61.0,0.0,60.0,3.0,0.0
7721,49.0,0.0,90.0,5.0,0.0
7722,61.0,0.0,30.0,10.0,0.0
7723,65.0,0.0,30.0,8.0,0.0
7724,72.0,0.0,60.0,2.0,0.0
7725,63.0,0.0,60.0,2.0,0.0
7726,75.0,30.0,210.0,4.0,0.0
7727,68.0,0.0,210.0,4.0,0.0
7728,75.0,0.0,60.0,1.0,0.0
7729,84.0,0.0,60.0,1.0,0.0
7730,63.0,0.0,210.0,3.0,0.0
7731,87.0,0.0,210.0,7.0,0.0
7732,87.0,0.0,60.0,0.0,0.0
7733,56.0,0.0,210.0,3.0,0.0
7734,96.0,0.0,60.0,0.0,0.0
7735,63.0,0.0,15.0,10.0,0.0
7736,49.0,0.0,15.0,6.0,0.0
7737,61.0,0.0,15.0,5.0,0.0
7738,49.0,0.0,30.0,5.0,0.0
7739,66.0,30.0,15.0,8.0,0.0
7740,94.0,0.0,60.0,0.0,0.0
7741,49.0,0.0,15.0,11.0,0.0
7742,70.0,0.0,60.0,2.0,0.0
7743,73.0,0.0,60.0,2.0,0.0
7744,63.0,30.0,30.0,10.0,0.0
7745,85.0,0.0,60.0,0.0,0.0
7746,82.0,0.0,60.0,1.0,0.0
7747,61.0,0.0,15.0,5.0,0.0
7748,66.0,30.0,15.0,8.0,0.0
7749,73.0,0.0,60.0,1.0,0.0
7750,49.0,0.0,15.0,6.0,0.0
7751,66.0,0.0,30.0,8.0,0.0
7752,63.0,0.0,30.0,10.0,0.0
7753,61.0,0.0,15.0,5.0,0.0
7754,49.0,0.0,15.0,5.0,0.0
7755,63.0,0.0,30.0,10.0,0.0
7756,68.0,0.0,120.0,2.0,0.0
7757,84.0,0.0,120.0,0.0,0.0
7758,72.0,30.0,30.0,8.0,0.0
7759,72.0,0.0,120.0,2.0,0.0
7760,72.0,0.0,120.0,1.0,0.0
7761,92.0,0.0,120.0,0.0,0.0
7762,49.0,0.0,90.0,11.0,0.0
7763,65.0,0.0,30.0,10.0,0.0
7764,73.0,30.0,30.0,8.0,0.0
7765,66.0,0.0,30.0,10.0,0.0
7766,75.0,0.0,30.0,8.0,0.0
7767,75.0,0.0,30.0,8.0,0.0
7768,49.0,0.0,15.0,6.0,0.0
7769,65.0,0.0,30.0,3.0,0.0
7770,61.0,0.0,30.0,3.0,0.0
7771,89.0,30.0,30.0,7.0,0.0
7772,49.0,0.0,30.0,11.0,0.0
7773,66.0,0.0,30.0,10.0,0.0
7774,61.0,0.0,15.0,5.0,0.0
7775,49.0,0.0,15.0,5.0,0.0
7776,77.0,0.0,30.0,4.0,0.0
7777,73.0,0.0,30.0,4.0,0.0
7778,80.0,0.0,15.0,1.0,0.0
7779,66.0,0.0,30.0,10.0,0.0
7780,49.0,0.0,15.0,6.0,0.0
7781,68.0,0.0,60.0,1.0,0.0
7782,66.0,0.0,60.0,3.0,0.0
7783,63.0,0.0,60.0,3.0,0.0
7784,80.0,0.0,60.0,2.0,0.0
7785,68.0,0.0,60.0,2.0,0.0
7786,49.0,0.0,60.0,5.0,0.0
7787,90.0,0.0,60.0,7.0,0.0
7788,78.0,0.0,60.0,4.0,0.0
7789,75.0,0.0,60.0,4.0,0.0
7790,80.0,0.0,60.0,0.0,0.0
7791,61.0,0.0,60.0,5.0,0.0
7792,66.0,0.0,30.0,10.0,0.0
7793,75.0,30.0,15.0,8.0,0.0
7794,49.0,0.0,15.0,11.0,0.0
7795,77.0,0.0,360.0,2.0,0.0
7796,80.0,0.0,360.0,2.0,0.0
7797,77.0,0.0,360.0,1.0,0.0
7798,80.0,0.0,15.0,1.0,0.0
7799,49.0,0.0,15.0,6.0,0.0
7800,65.0,0.0,360.0,3.0,0.0
7801,68.0,0.0,360.0,3.0,0.0
7802,91.0,15.0,15.0,7.0,0.0
7803,92.0,0.0,15.0,0.0,0.0
7804,89.0,1.0,360.0,0.0,0.0
7805,80.0,1.0,270.0,4.0,0.0
7806,77.0,0.0,270.0,4.0,0.0
7807,65.0,0.0,30.0,10.0,0.0
7808,73.0,30.0,30.0,8.0,0.0
7809,92.0,29.0,240.0,7.0,0.0
7810,66.0,30.0,30.0,10.0,0.0
7811,75.0,0.0,30.0,8.0,0.0
7812,61.0,0.0,15.0,5.0,0.0
7813,49.0,30.0,15.0,5.0,0.0
7814,68.0,0.0,15.0,10.0,0.0
7815,77.0,0.0,15.0,8.0,0.0
7816,49.0,0.0,30.0,6.0,0.0
7817,49.0,0.0,15.0,11.0,0.0
7818,61.0,0.0,15.0,5.0,0.0
7819,49.0,0.0,15.0,5.0,0.0
7820,49.0,0.0,60.0,6.0,0.0
7821,68.0,0.0,15.0,10.0,0.0
7822,77.0,0.0,15.0,8.0,0.0
7823,49.0,30.0,15.0,11.0,0.0
7824,68.0,0.0,15.0,10.0,0.0
7825,77.0,30.0,15.0,8.0,0.0
7826,65.0,0.0,30.0,10.0,0.0
7827,49.0,0.0,90.0,6.0,0.0
7828,49.0,30.0,15.0,5.0,0.0
7829,49.0,0.0,90.0,11.0,0.0
7830,61.0,0.0,90.0,5.0,0.0
7831,73.0,30.0,30.0,8.0,0.0
7832,75.0,0.0,30.0,8.0,0.0
7833,66.0,30.0,30.0,10.0,0.0
7834,77.0,0.0,30.0,8.0,0.0
7835,68.0,0.0,30.0,10.0,0.0
7836,61.0,0.0,30.0,5.0,0.0
7837,49.0,0.0,30.0,6.0,0.0
7838,90.0,0.0,30.0,7.0,0.0
7839,78.0,0.0,30.0,4.0,0.0
7840,75.0,0.0,30.0,4.0,0.0
7841,68.0,0.0,15.0,10.0,0.0
7842,77.0,0.0,15.0,8.0,0.0
7843,73.0,0.0,60.0,4.0,0.0
7844,49.0,0.0,60.0,6.0,0.0
7845,77.0,0.0,60.0,4.0,0.0
7846,49.0,30.0,15.0,5.0,0.0
7847,49.0,0.0,15.0,11.0,0.0
7848,68.0,0.0,30.0,10.0,0.0
7849,77.0,30.0,15.0,8.0,0.0
7850,70.0,0.0,30.0,10.0,0.0
7851,78.0,0.0,300.0,1.0,0.0
7852,70.0,0.0,300.0,3.0,0.0
7853,73.0,0.0,300.0,4.0,0.0
7854,78.0,0.0,300.0,4.0,0.0
7855,61.0,0.0,15.0,5.0,0.0
7856,49.0,0.0,90.0,5.0,0.0
7857,82.0,0.0,300.0,1.0,0.0
7858,49.0,0.0,15.0,11.0,0.0
7859,94.0,0.0,300.0,0.0,0.0
7860,90.0,30.0,300.0,0.0,0.0
7861,78.0,30.0,30.0,8.0,0.0
7862,89.0,14.0,15.0,7.0,0.0
7863,78.0,0.0,300.0,2.0,0.0
7864,82.0,0.0,300.0,2.0,0.0
7865,90.0,0.0,240.0,7.0,0.0
7866,71.0,0.0,30.0,10.0,0.0
7867,80.0,30.0,30.0,8.0,0.0
7868,82.0,0.0,30.0,8.0,0.0
7869,73.0,0.0,30.0,10.0,0.0
7870,49.0,0.0,30.0,5.0,0.0
7871,49.0,0.0,15.0,11.0,0.0
7872,61.0,0.0,15.0,5.0,0.0
7873,49.0,30.0,15.0,6.0,0.0
7874,73.0,30.0,30.0,10.0,0.0
7875,49.0,0.0,15.0,6.0,0.0
7876,49.0,0.0,60.0,11.0,0.0
7877,82.0,0.0,15.0,8.0,0.0
7878,49.0,0.0,60.0,5.0,0.0
7879,73.0,0.0,30.0,10.0,0.0
7880,82.0,0.0,30.0,8.0,0.0
7881,73.0,0.0,30.0,10.0,0.0
7882,70.0,30.0,30.0,8.0,0.0
7883,66.0,0.0,30.0,10.0,0.0
7884,49.0,0.0,15.0,6.0,0.0
7885,61.0,30.0,15.0,5.0,0.0
7886,68.0,30.0,30.0,10.0,0.0
7887,71.0,0.0,30.0,8.0,0.0
7888,73.0,0.0,30.0,8.0,0.0
7889,82.0,0.0,30.0,7.0,0.0
7890,49.0,0.0,15.0,6.0,0.0
7891,49.0,0.0,15.0,5.0,0.0
7892,70.0,30.0,15.0,10.0,0.0
7893,61.0,0.0,30.0,5.0,0.0
7894,49.0,0.0,15.0,11.0,0.0
7895,73.0,0.0,30.0,8.0,0.0
7896,66.0,0.0,15.0,3.0,0.0
7897,49.0,0.0,15.0,11.0,0.0
7898,63.0,0.0,60.0,3.0,0.0
7899,84.0,30.0,60.0,1.0,0.0
7900,75.0,30.0,30.0,8.0,0.0
7901,75.0,0.0,60.0,2.0,0.0
7902,75.0,0.0,60.0,1.0,0.0
7903,75.0,0.0,60.0,4.0,0.0
7904,66.0,0.0,30.0,10.0,0.0
7905,87.0,0.0,60.0,0.0,0.0
7906,96.0,0.0,60.0,0.0,0.0
7907,68.0,0.0,60.0,4.0,0.0
7908,49.0,0.0,15.0,6.0,0.0
7909,78.0,0.0,60.0,2.0,0.0
7910,84.0,0.0,60.0,7.0,0.0
7911,75.0,0.0,30.0,8.0,0.0
7912,66.0,0.0,30.0,10.0,0.0
7913,73.0,0.0,120.0,2.0,0.0
7914,61.0,0.0,15.0,5.0,0.0
7915,49.0,0.0,15.0,5.0,0.0
7916,73.0,30.0,30.0,8.0,0.0
7917,65.0,0.0,120.0,3.0,0.0
7918,65.0,0.0,30.0,10.0,0.0
7919,49.0,0.0,90.0,6.0,0.0
7920,85.0,0.0,120.0,1.0,0.0
7921,77.0,0.0,120.0,1.0,0.0
7922,61.0,0.0,120.0,3.0,0.0
7923,49.0,0.0,90.0,11.0,0.0
7924,75.0,0.0,30.0,8.0,0.0
7925,66.0,30.0,30.0,10.0,0.0
7926,77.0,0.0,30.0,8.0,0.0
7927,68.0,0.0,30.0,10.0,0.0
7928,49.0,0.0,30.0,6.0,0.0
7929,61.0,0.0,15.0,5.0,0.0
7930,49.0,30.0,15.0,5.0,0.0
7931,49.0,0.0,30.0,11.0,0.0
7932,85.0,0.0,15.0,7.0,0.0
7933,53.0,30.0,60.0,11.0,0.0
7934,68.0,30.0,15.0,10.0,0.0
7935,49.0,0.0,60.0,6.0,0.0
7936,73.0,0.0,15.0,4.0,0.0
7937,65.0,0.0,15.0,4.0,0.0
7938,61.0,0.0,15.0,5.0,0.0
7939,49.0,0.0,15.0,5.0,0.0
7940,97.0,0.0,15.0,0.0,0.0
7941,89.0,0.0,15.0,0.0,0.0
7942,73.0,0.0,60.0,2.0,0.0
7943,77.0,0.0,15.0,2.0,0.0
7944,77.0,0.0,15.0,8.0,0.0
7945,61.0,0.0,60.0,3.0,0.0
7946,65.0,0.0,60.0,3.0,0.0
7947,85.0,0.0,60.0,1.0,0.0
7948,68.0,0.0,30.0,10.0,0.0
7949,77.0,0.0,30.0,8.0,0.0
7950,77.0,0.0,15.0,1.0,0.0
7951,85.0,0.0,60.0,1.0,0.0
7952,89.0,0.0,60.0,0.0,0.0
7953,97.0,0.0,120.0,0.0,0.0
7954,73.0,30.0,60.0,4.0,0.0
7955,65.0,0.0,120.0,3.0,0.0
7956,61.0,0.0,120.0,3.0,0.0
7957,73.0,0.0,60.0,2.0,0.0
7958,65.0,0.0,60.0,4.0,0.0
7959,73.0,0.0,30.0,8.0,0.0
7960,85.0,0.0,60.0,7.0,0.0
7961,65.0,30.0,30.0,10.0,0.0
7962,56.0,0.0,90.0,6.0,0.0
7963,56.0,0.0,90.0,11.0,0.0
7964,66.0,0.0,30.0,10.0,0.0
7965,75.0,0.0,30.0,8.0,0.0
7966,77.0,0.0,15.0,2.0,0.0
7967,80.0,0.0,60.0,2.0,0.0
7968,85.0,0.0,60.0,0.0,0.0
7969,68.0,0.0,30.0,10.0,0.0
7970,89.0,0.0,60.0,1.0,0.0
7971,80.0,0.0,60.0,1.0,0.0
7972,89.0,0.0,60.0,7.0,0.0
7973,77.0,0.0,60.0,4.0,0.0
7974,73.0,30.0,60.0,4.0,0.0
7975,68.0,0.0,30.0,10.0,0.0
7976,77.0,30.0,15.0,8.0,0.0
7977,56.0,0.0,30.0,6.0,0.0
7978,68.0,0.0,15.0,5.0,0.0
7979,56.0,0.0,30.0,11.0,0.0
7980,66.0,0.0,60.0,3.0,0.0
7981,87.0,0.0,60.0,1.0,0.0
7982,78.0,0.0,60.0,1.0,0.0
7983,60.0,0.0,60.0,3.0,0.0
7984,87.0,0.0,60.0,7.0,0.0
7985,78.0,0.0,60.0,2.0,0.0
7986,66.0,0.0,30.0,10.0,0.0
7987,87.0,0.0,60.0,0.0,0.0
7988,96.0,0.0,60.0,0.0,0.0
7989,75.0,0.0,60.0,2.0,0.0
7990,44.0,30.0,60.0,11.0,0.0
7991,75.0,30.0,30.0,8.0,0.0
7992,68.0,0.0,60.0,5.0,0.0
7993,75.0,0.0,60.0,4.0,0.0
7994,68.0,0.0,60.0,4.0,0.0
7995,56.0,0.0,60.0,6.0,0.0
7996,66.0,0.0,30.0,10.0,0.0
7997,75.0,0.0,30.0,8.0,0.0
7998,97.0,0.0,120.0,0.0,0.0
7999,73.0,0.0,120.0,4.0,0.0
8000,77.0,0.0,120.0,2.0,0.0
8001,61.0,0.0,120.0,3.0,0.0
8002,65.0,0.0,120.0,3.0,0.0
8003,73.0,0.0,120.0,2.0,0.0
8004,49.0,0.0,90.0,5.0,0.0
8005,89.0,0.0,120.0,0.0,0.0
8006,49.0,0.0,90.0,6.0,0.0
8007,65.0,0.0,120.0,4.0,0.0
8008,73.0,30.0,30.0,8.0,0.0
8009,65.0,0.0,30.0,10.0,0.0
8010,85.0,0.0,120.0,1.0,0.0
8011,77.0,0.0,120.0,1.0,0.0
8012,85.0,0.0,120.0,7.0,0.0
8013,75.0,0.0,30.0,8.0,0.0
8014,66.0,30.0,30.0,10.0,0.0
8015,68.0,0.0,30.0,10.0,0.0
8016,77.0,0.0,30.0,8.0,0.0
8017,61.0,0.0,15.0,5.0,0.0
8018,65.0,0.0,30.0,8.0,0.0
8019,61.0,0.0,30.0,10.0,0.0
8020,49.0,30.0,15.0,11.0,0.0
8021,49.0,0.0,15.0,11.0,0.0
8022,49.0,0.0,15.0,6.0,0.0
8023,63.0,0.0,30.0,10.0,0.0
8024,85.0,0.0,60.0,0.0,0.0
8025,97.0,0.0,60.0,0.0,0.0
8026,66.0,30.0,30.0,8.0,0.0
8027,73.0,0.0,60.0,1.0,0.0
8028,85.0,0.0,60.0,1.0,0.0
8029,61.0,30.0,15.0,5.0,0.0
8030,49.0,0.0,15.0,5.0,0.0
8031,68.0,0.0,30.0,8.0,0.0
8032,65.0,0.0,30.0,10.0,0.0
8033,49.0,30.0,15.0,5.0,0.0
8034,85.0,0.0,90.0,0.0,0.0
8035,85.0,0.0,90.0,1.0,0.0
8036,70.0,0.0,15.0,8.0,0.0
8037,66.0,30.0,15.0,10.0,0.0
8038,70.0,0.0,15.0,8.0,0.0
8039,66.0,30.0,15.0,10.0,0.0
8040,70.0,0.0,15.0,8.0,0.0
8041,66.0,0.0,15.0,10.0,0.0
8042,49.0,0.0,15.0,11.0,0.0
8043,49.0,30.0,15.0,6.0,0.0
8044,61.0,0.0,15.0,5.0,0.0
8045,49.0,0.0,30.0,5.0,0.0
8046,97.0,0.0,15.0,0.0,0.0
8047,73.0,0.0,15.0,1.0,0.0
8048,85.0,0.0,30.0,1.0,0.0
8049,85.0,0.0,15.0,0.0,0.0
8050,73.0,0.0,60.0,2.0,0.0
8051,97.0,0.0,15.0,0.0,0.0
8052,70.0,0.0,15.0,8.0,0.0
8053,61.0,0.0,60.0,3.0,0.0
8054,49.0,0.0,60.0,5.0,0.0
8055,61.0,0.0,60.0,5.0,0.0
8056,49.0,0.0,15.0,6.0,0.0
8057,66.0,30.0,15.0,10.0,0.0
8058,70.0,0.0,15.0,8.0,0.0
8059,66.0,30.0,15.0,10.0,0.0
8060,85.0,0.0,15.0,0.0,0.0
8061,73.0,0.0,15.0,4.0,0.0
8062,61.0,0.0,15.0,4.0,0.0
8063,49.0,0.0,120.0,6.0,0.0
8064,85.0,0.0,15.0,7.0,0.0
8065,73.0,0.0,120.0,2.0,0.0
8066,85.0,0.0,15.0,1.0,0.0
8067,73.0,0.0,15.0,1.0,0.0
8068,66.0,0.0,15.0,10.0,0.0
8069,49.0,0.0,120.0,5.0,0.0
8070,70.0,30.0,30.0,8.0,0.0
8071,49.0,30.0,15.0,11.0,0.0
8072,61.0,0.0,120.0,5.0,0.0
8073,71.0,0.0,30.0,8.0,0.0
8074,68.0,30.0,30.0,10.0,0.0
8075,73.0,30.0,30.0,8.0,0.0
8076,70.0,0.0,15.0,10.0,0.0
8077,73.0,0.0,30.0,8.0,0.0
8078,61.0,0.0,15.0,3.0,0.0
8079,73.0,30.0,15.0,4.0,0.0
8080,85.0,0.0,15.0,7.0,0.0
8081,61.0,0.0,15.0,4.0,0.0
8082,70.0,30.0,15.0,10.0,0.0
8083,73.0,0.0,15.0,8.0,0.0
8084,61.0,0.0,90.0,4.0,0.0
8085,73.0,0.0,15.0,4.0,0.0
8086,61.0,0.0,15.0,3.0,0.0
8087,66.0,30.0,30.0,8.0,0.0
8088,73.0,30.0,15.0,2.0,0.0
8089,58.0,0.0,30.0,10.0,0.0
8090,85.0,0.0,90.0,7.0,0.0
8091,61.0,30.0,30.0,10.0,0.0
8092,68.0,0.0,30.0,8.0,0.0
8093,66.0,0.0,30.0,3.0,0.0
8094,66.0,0.0,15.0,10.0,0.0
8095,61.0,0.0,30.0,4.0,0.0
8096,70.0,30.0,15.0,8.0,0.0
8097,90.0,0.0,30.0,7.0,0.0
8098,78.0,0.0,30.0,2.0,0.0
8099,66.0,0.0,15.0,10.0,0.0
8100,94.0,0.0,60.0,7.0,0.0
8101,73.0,30.0,15.0,4.0,0.0
8102,70.0,0.0,60.0,3.0,0.0
8103,70.0,0.0,15.0,8.0,0.0
8104,49.0,0.0,60.0,11.0,0.0
8105,70.0,30.0,15.0,8.0,0.0
8106,66.0,0.0,30.0,10.0,0.0
8107,61.0,0.0,90.0,5.0,0.0
8108,61.0,30.0,30.0,10.0,0.0
8109,82.0,0.0,15.0,2.0,0.0
8110,94.0,0.0,60.0,7.0,0.0
8111,61.0,30.0,15.0,4.0,0.0
8112,49.0,0.0,90.0,5.0,0.0
8113,73.0,0.0,15.0,4.0,0.0
8114,70.0,0.0,60.0,3.0,0.0
8115,65.0,0.0,30.0,8.0,0.0
8116,63.0,0.0,30.0,10.0,0.0
8117,66.0,0.0,30.0,8.0,0.0
8118,80.0,0.0,60.0,2.0,0.0
8119,68.0,0.0,60.0,3.0,0.0
8120,92.0,30.0,60.0,7.0,0.0
8121,68.0,0.0,30.0,8.0,0.0
8122,68.0,0.0,60.0,4.0,0.0
8123,80.0,0.0,60.0,4.0,0.0
8124,49.0,0.0,15.0,6.0,0.0
8125,73.0,0.0,30.0,1.0,0.0
8126,85.0,0.0,30.0,1.0,0.0
8127,61.0,0.0,30.0,5.0,0.0
8128,85.0,0.0,15.0,0.0,0.0
8129,97.0,0.0,15.0,0.0,0.0
8130,65.0,30.0,15.0,10.0,0.0
8131,49.0,0.0,15.0,11.0,0.0
8132,61.0,0.0,60.0,5.0,0.0
8133,49.0,0.0,15.0,5.0,0.0
8134,65.0,0.0,60.0,4.0,0.0
8135,77.0,0.0,60.0,4.0,0.0
8136,65.0,0.0,60.0,3.0,0.0
8137,77.0,0.0,60.0,2.0,0.0
8138,85.0,0.0,60.0,1.0,0.0
8139,85.0,0.0,60.0,0.0,0.0
8140,68.0,0.0,15.0,8.0,0.0
8141,97.0,0.0,60.0,0.0,0.0
8142,49.0,0.0,15.0,6.0,0.0
8143,89.0,0.0,60.0,7.0,0.0
8144,73.0,0.0,60.0,1.0,0.0
8145,65.0,30.0,15.0,10.0,0.0
8146,68.0,0.0,30.0,8.0,0.0
8147,49.0,0.0,15.0,5.0,0.0
8148,73.0,0.0,30.0,8.0,0.0
8149,85.0,0.0,90.0,1.0,0.0
8150,73.0,0.0,120.0,2.0,0.0
8151,61.0,0.0,120.0,4.0,0.0
8152,73.0,0.0,120.0,4.0,0.0
8153,49.0,0.0,90.0,11.0,0.0
8154,65.0,30.0,15.0,10.0,0.0
8155,66.0,0.0,30.0,10.0,0.0
8156,75.0,30.0,30.0,8.0,0.0
8157,68.0,0.0,30.0,10.0,0.0
8158,49.0,0.0,15.0,5.0,0.0
8159,61.0,0.0,15.0,5.0,0.0
8160,73.0,0.0,15.0,1.0,0.0
8161,85.0,0.0,15.0,0.0,0.0
8162,97.0,30.0,15.0,0.0,0.0
8163,49.0,0.0,15.0,6.0,0.0
8164,77.0,0.0,15.0,8.0,0.0
8165,53.0,0.0,30.0,11.0,0.0
8166,68.0,0.0,30.0,10.0,0.0
8167,73.0,0.0,15.0,1.0,0.0
8168,73.0,0.0,60.0,4.0,0.0
8169,61.0,0.0,60.0,4.0,0.0
8170,61.0,0.0,15.0,3.0,0.0
8171,49.0,0.0,60.0,5.0,0.0
8172,61.0,0.0,60.0,5.0,0.0
8173,56.0,0.0,60.0,11.0,0.0
8174,85.0,0.0,15.0,1.0,0.0
8175,97.0,0.0,15.0,0.0,0.0
8176,77.0,0.0,15.0,8.0,0.0
8177,49.0,30.0,15.0,6.0,0.0
8178,85.0,0.0,15.0,7.0,0.0
8179,77.0,0.0,15.0,8.0,0.0
8180,68.0,30.0,15.0,10.0,0.0
8181,73.0,30.0,30.0,8.0,0.0
8182,49.0,0.0,120.0,5.0,0.0
8183,85.0,0.0,15.0,7.0,0.0
8184,61.0,0.0,120.0,5.0,0.0
8185,85.0,0.0,450.0,1.0,0.0
8186,73.0,0.0,90.0,4.0,0.0
8187,49.0,0.0,120.0,6.0,0.0
8188,61.0,0.0,90.0,3.0,0.0
8189,73.0,0.0,15.0,2.0,0.0
8190,85.0,0.0,15.0,0.0,0.0
8191,59.0,0.0,60.0,11.0,0.0
8192,66.0,0.0,30.0,10.0,0.0
8193,77.0,0.0,30.0,8.0,0.0
8194,68.0,30.0,30.0,10.0,0.0
8195,58.0,0.0,60.0,11.0,0.0
8196,78.0,0.0,15.0,8.0,0.0
8197,61.0,0.0,15.0,4.0,0.0
8198,66.0,0.0,30.0,3.0,0.0
8199,73.0,0.0,30.0,4.0,0.0
8200,70.0,30.0,15.0,10.0,0.0
8201,78.0,30.0,30.0,2.0,0.0
8202,90.0,0.0,30.0,7.0,0.0
8203,61.0,0.0,60.0,3.0,0.0
8204,54.0,0.0,60.0,11.0,0.0
8205,61.0,0.0,15.0,4.0,0.0
8206,78.0,0.0,30.0,8.0,0.0
8207,73.0,0.0,60.0,4.0,0.0
8208,70.0,30.0,15.0,10.0,0.0
8209,78.0,30.0,30.0,8.0,0.0
8210,85.0,0.0,15.0,7.0,0.0
8211,73.0,0.0,15.0,2.0,0.0
8212,61.0,0.0,90.0,3.0,0.0
8213,49.0,0.0,120.0,11.0,0.0
8214,70.0,0.0,30.0,8.0,0.0
8215,66.0,30.0,30.0,10.0,0.0
8216,71.0,30.0,30.0,8.0,0.0
8217,68.0,0.0,30.0,10.0,0.0
8218,70.0,0.0,15.0,10.0,0.0
8219,61.0,0.0,15.0,4.0,0.0
8220,73.0,0.0,15.0,4.0,0.0
8221,78.0,0.0,30.0,2.0,0.0
8222,90.0,30.0,30.0,7.0,0.0
8223,66.0,0.0,30.0,3.0,0.0
8224,73.0,30.0,15.0,8.0,0.0
8225,73.0,0.0,15.0,4.0,0.0
8226,70.0,0.0,30.0,10.0,0.0
8227,94.0,0.0,60.0,7.0,0.0
8228,73.0,30.0,30.0,8.0,0.0
8229,82.0,30.0,60.0,2.0,0.0
8230,61.0,0.0,60.0,4.0,0.0
8231,70.0,0.0,30.0,10.0,0.0
8232,73.0,0.0,30.0,8.0,0.0
8233,49.0,0.0,90.0,6.0,0.0
8234,65.0,0.0,30.0,8.0,0.0
8235,70.0,0.0,15.0,3.0,0.0
8236,61.0,30.0,30.0,10.0,0.0
8237,61.0,0.0,60.0,4.0,0.0
8238,94.0,0.0,60.0,7.0,0.0
8239,49.0,0.0,15.0,11.0,0.0
8240,82.0,0.0,60.0,2.0,0.0
8241,73.0,30.0,60.0,4.0,0.0
8242,66.0,0.0,30.0,8.0,0.0
8243,63.0,0.0,30.0,10.0,0.0
8244,68.0,0.0,60.0,4.0,0.0
8245,80.0,0.0,60.0,4.0,0.0
8246,68.0,0.0,60.0,3.0,0.0
8247,80.0,0.0,60.0,2.0,0.0
8248,92.0,0.0,60.0,7.0,0.0
8249,68.0,0.0,30.0,8.0,0.0
8250,65.0,0.0,30.0,10.0,0.0
8251,97.0,0.0,15.0,0.0,0.0
8252,49.0,30.0,15.0,5.0,0.0
8253,61.0,0.0,15.0,5.0,0.0
8254,73.0,0.0,15.0,1.0,0.0
8255,85.0,0.0,30.0,0.0,0.0
8256,97.0,0.0,60.0,0.0,0.0
8257,77.0,0.0,60.0,2.0,0.0
8258,65.0,0.0,15.0,10.0,0.0
8259,89.0,0.0,60.0,7.0,0.0
8260,73.0,0.0,15.0,1.0,0.0
8261,85.0,0.0,15.0,1.0,0.0
8262,65.0,0.0,60.0,3.0,0.0
8263,61.0,0.0,15.0,5.0,0.0
8264,68.0,30.0,15.0,8.0,0.0
8265,49.0,0.0,60.0,11.0,0.0
8266,65.0,0.0,60.0,4.0,0.0
8267,77.0,0.0,60.0,4.0,0.0
8268,68.0,30.0,15.0,8.0,0.0
8269,65.0,0.0,30.0,10.0,0.0
8270,85.0,0.0,120.0,7.0,0.0
8271,61.0,0.0,30.0,10.0,0.0
8272,61.0,0.0,15.0,5.0,0.0
8273,73.0,0.0,120.0,2.0,0.0
8274,73.0,0.0,15.0,1.0,0.0
8275,85.0,0.0,120.0,1.0,0.0
8276,49.0,0.0,120.0,6.0,0.0
8277,49.0,0.0,15.0,5.0,0.0
8278,61.0,0.0,120.0,3.0,0.0
8279,85.0,30.0,15.0,0.0,0.0
8280,49.0,0.0,90.0,11.0,0.0
8281,73.0,30.0,60.0,4.0,0.0
8282,65.0,30.0,30.0,8.0,0.0
8283,61.0,0.0,60.0,4.0,0.0
8284,97.0,0.0,120.0,0.0,0.0
8285,66.0,0.0,30.0,8.0,0.0
8286,63.0,0.0,30.0,10.0,0.0
8287,68.0,30.0,30.0,8.0,0.0
8288,68.0,0.0,60.0,4.0,0.0
8289,56.0,30.0,60.0,4.0,0.0
8290,65.0,0.0,30.0,10.0,0.0
8291,53.0,0.0,30.0,11.0,0.0
8292,68.0,0.0,30.0,8.0,0.0
8293,65.0,0.0,30.0,10.0,0.0
8294,80.0,0.0,60.0,7.0,0.0
8295,68.0,0.0,60.0,2.0,0.0
8296,65.0,0.0,60.0,2.0,0.0
8297,56.0,30.0,60.0,11.0,0.0
8298,65.0,30.0,15.0,10.0,0.0
8299,68.0,0.0,15.0,8.0,0.0
8300,65.0,0.0,30.0,8.0,0.0
8301,82.0,0.0,60.0,7.0,0.0
8302,61.0,30.0,30.0,10.0,0.0
8303,49.0,0.0,15.0,4.0,0.0
8304,37.0,0.0,15.0,4.0,0.0
8305,65.0,0.0,360.0,2.0,0.0
8306,68.0,0.0,360.0,2.0,0.0
8307,61.0,0.0,60.0,11.0,0.0
8308,66.0,0.0,30.0,8.0,0.0
8309,63.0,30.0,30.0,10.0,0.0
8310,68.0,0.0,30.0,8.0,0.0
8311,80.0,0.0,60.0,7.0,0.0
8312,65.0,30.0,60.0,11.0,0.0
8313,65.0,30.0,15.0,10.0,0.0
8314,68.0,0.0,30.0,8.0,0.0
8315,68.0,0.0,60.0,3.0,0.0
8316,65.0,0.0,15.0,10.0,0.0
8317,80.0,0.0,60.0,1.0,0.0
8318,68.0,0.0,30.0,8.0,0.0
8319,77.0,0.0,60.0,7.0,0.0
8320,68.0,0.0,60.0,11.0,0.0
8321,92.0,0.0,60.0,0.0,0.0
8322,61.0,0.0,30.0,5.0,0.0
8323,49.0,0.0,30.0,5.0,0.0
8324,65.0,0.0,30.0,10.0,0.0
8325,49.0,0.0,30.0,6.0,0.0
8326,70.0,0.0,60.0,3.0,0.0
8327,49.0,0.0,120.0,5.0,0.0
8328,61.0,0.0,120.0,5.0,0.0
8329,94.0,0.0,60.0,0.0,0.0
8330,49.0,0.0,90.0,11.0,0.0
8331,49.0,0.0,120.0,6.0,0.0
8332,82.0,0.0,60.0,1.0,0.0
8333,73.0,0.0,120.0,7.0,0.0
8334,68.0,30.0,15.0,8.0,0.0
8335,65.0,30.0,30.0,10.0,0.0
8336,68.0,0.0,30.0,8.0,0.0
8337,92.0,0.0,60.0,0.0,0.0
8338,80.0,0.0,60.0,1.0,0.0
8339,65.0,30.0,15.0,10.0,0.0
8340,68.0,0.0,60.0,3.0,0.0
8341,68.0,0.0,15.0,8.0,0.0
8342,53.0,0.0,30.0,11.0,0.0
8343,65.0,30.0,15.0,10.0,0.0
8344,77.0,0.0,60.0,1.0,0.0
8345,65.0,0.0,60.0,3.0,0.0
8346,65.0,30.0,15.0,10.0,0.0
8347,80.0,0.0,60.0,7.0,0.0
8348,56.0,0.0,60.0,11.0,0.0
8349,89.0,30.0,60.0,0.0,0.0
8350,65.0,0.0,15.0,10.0,0.0
8351,68.0,30.0,15.0,8.0,0.0
8352,66.0,0.0,360.0,2.0,0.0
8353,70.0,0.0,360.0,2.0,0.0
8354,66.0,30.0,30.0,10.0,0.0
8355,61.0,0.0,60.0,11.0,0.0
8356,83.0,30.0,60.0,7.0,0.0
8357,70.0,0.0,30.0,8.0,0.0
8358,71.0,0.0,30.0,8.0,0.0
8359,68.0,0.0,30.0,10.0,0.0
8360,82.0,0.0,60.0,7.0,0.0
8361,66.0,0.0,60.0,11.0,0.0
8362,70.0,0.0,15.0,10.0,0.0
8363,73.0,30.0,15.0,8.0,0.0
8364,78.0,0.0,60.0,7.0,0.0
8365,70.0,0.0,60.0,11.0,0.0
8366,94.0,0.0,60.0,0.0,0.0
8367,82.0,0.0,60.0,1.0,0.0
8368,70.0,0.0,60.0,3.0,0.0
8369,49.0,0.0,30.0,6.0,0.0
8370,70.0,30.0,15.0,10.0,0.0
8371,73.0,0.0,15.0,8.0,0.0
8372,73.0,0.0,15.0,8.0,0.0
8373,73.0,0.0,120.0,7.0,0.0
8374,49.0,0.0,90.0,11.0,0.0
8375,95.0,30.0,60.0,0.0,0.0
8376,61.0,30.0,15.0,5.0,0.0
8377,71.0,0.0,60.0,3.0,0.0
8378,49.0,0.0,120.0,6.0,0.0
8379,83.0,0.0,60.0,1.0,0.0
8380,49.0,0.0,15.0,5.0,0.0
8381,70.0,30.0,15.0,10.0,0.0
8382,70.0,0.0,60.0,3.0,0.0
8383,73.0,0.0,15.0,8.0,0.0
8384,94.0,0.0,60.0,0.0,0.0
8385,82.0,0.0,60.0,1.0,0.0
8386,54.0,0.0,30.0,11.0,0.0
8387,70.0,30.0,15.0,10.0,0.0
8388,82.0,30.0,60.0,7.0,0.0
8389,90.0,0.0,60.0,0.0,0.0
8390,70.0,0.0,15.0,10.0,0.0
8391,66.0,0.0,60.0,3.0,0.0
8392,73.0,30.0,15.0,8.0,0.0
8393,78.0,0.0,60.0,1.0,0.0
8394,58.0,0.0,60.0,11.0,0.0
8395,73.0,0.0,15.0,8.0,0.0
8396,70.0,30.0,15.0,10.0,0.0
8397,72.0,30.0,360.0,2.0,0.0
8398,63.0,0.0,360.0,2.0,0.0
8399,61.0,0.0,60.0,11.0,0.0
8400,63.0,30.0,30.0,10.0,0.0
8401,85.0,0.0,60.0,7.0,0.0
8402,72.0,0.0,30.0,8.0,0.0
8403,73.0,0.0,30.0,8.0,0.0
8404,65.0,30.0,30.0,10.0,0.0
8405,72.0,30.0,30.0,8.0,0.0
8406,63.0,30.0,60.0,11.0,0.0
8407,84.0,0.0,60.0,7.0,0.0
8408,63.0,0.0,30.0,10.0,0.0
8409,75.0,0.0,30.0,8.0,0.0
8410,78.0,0.0,60.0,1.0,0.0
8411,78.0,0.0,60.0,7.0,0.0
8412,66.0,30.0,60.0,3.0,0.0
8413,90.0,0.0,60.0,0.0,0.0
8414,66.0,0.0,15.0,10.0,0.0
8415,66.0,0.0,60.0,11.0,0.0
8416,75.0,0.0,15.0,8.0,0.0
8417,66.0,0.0,30.0,10.0,0.0
8418,75.0,0.0,120.0,7.0,0.0
8419,92.0,0.0,60.0,0.0,0.0
8420,68.0,0.0,60.0,3.0,0.0
8421,80.0,0.0,60.0,1.0,0.0
8422,49.0,0.0,90.0,11.0,0.0
8423,66.0,30.0,30.0,10.0,0.0
8424,75.0,0.0,15.0,8.0,0.0
8425,61.0,0.0,30.0,5.0,0.0
8426,49.0,0.0,15.0,6.0,0.0
8427,78.0,0.0,60.0,1.0,0.0
8428,66.0,0.0,15.0,10.0,0.0
8429,90.0,0.0,60.0,0.0,0.0
8430,61.0,0.0,120.0,5.0,0.0
8431,66.0,0.0,60.0,3.0,0.0
8432,75.0,30.0,15.0,8.0,0.0
8433,75.0,0.0,15.0,8.0,0.0
8434,51.0,30.0,30.0,11.0,0.0
8435,66.0,30.0,15.0,10.0,0.0
8436,75.0,0.0,60.0,1.0,0.0
8437,84.0,0.0,60.0,7.0,0.0
8438,63.0,0.0,60.0,3.0,0.0
8439,87.0,0.0,60.0,0.0,0.0
8440,66.0,0.0,15.0,10.0,0.0
8441,75.0,30.0,30.0,8.0,0.0
8442,54.0,0.0,60.0,11.0,0.0
8443,66.0,0.0,15.0,10.0,0.0
8444,75.0,0.0,30.0,8.0,0.0
8445,73.0,0.0,30.0,8.0,0.0
8446,65.0,30.0,30.0,10.0,0.0
8447,87.0,0.0,60.0,7.0,0.0
8448,61.0,30.0,60.0,11.0,0.0
8449,73.0,0.0,360.0,2.0,0.0
8450,65.0,0.0,360.0,2.0,0.0
8451,75.0,0.0,30.0,8.0,0.0
8452,66.0,0.0,30.0,10.0,0.0
8453,85.0,0.0,60.0,7.0,0.0
8454,65.0,0.0,30.0,10.0,0.0
8455,65.0,0.0,60.0,11.0,0.0
8456,73.0,30.0,30.0,8.0,0.0
8457,68.0,0.0,15.0,10.0,0.0
8458,68.0,0.0,60.0,11.0,0.0
8459,68.0,0.0,60.0,3.0,0.0
8460,80.0,0.0,60.0,1.0,0.0
8461,77.0,30.0,15.0,8.0,0.0
8462,92.0,0.0,60.0,0.0,0.0
8463,80.0,30.0,60.0,7.0,0.0
8464,68.0,0.0,30.0,10.0,0.0
8465,82.0,0.0,60.0,1.0,0.0
8466,70.0,0.0,60.0,3.0,0.0
8467,94.0,0.0,60.0,0.0,0.0
8468,49.0,0.0,90.0,11.0,0.0
8469,77.0,0.0,15.0,8.0,0.0
8470,77.0,0.0,120.0,7.0,0.0
8471,77.0,0.0,30.0,8.0,0.0
8472,68.0,30.0,15.0,10.0,0.0
8473,49.0,0.0,30.0,6.0,0.0
8474,77.0,0.0,30.0,8.0,0.0
8475,92.0,0.0,60.0,0.0,0.0
8476,49.0,0.0,15.0,5.0,0.0
8477,61.0,30.0,15.0,5.0,0.0
8478,49.0,0.0,120.0,6.0,0.0
8479,80.0,0.0,60.0,1.0,0.0
8480,68.0,30.0,60.0,3.0,0.0
8481,77.0,0.0,30.0,8.0,0.0
8482,53.0,0.0,30.0,11.0,0.0
8483,68.0,30.0,15.0,10.0,0.0
8484,56.0,0.0,60.0,11.0,0.0
8485,89.0,0.0,60.0,0.0,0.0
8486,77.0,30.0,30.0,8.0,0.0
8487,77.0,0.0,60.0,1.0,0.0
8488,65.0,0.0,60.0,3.0,0.0
8489,80.0,30.0,60.0,7.0,0.0
8490,68.0,0.0,30.0,10.0,0.0
8491,77.0,0.0,30.0,8.0,0.0
8492,68.0,0.0,30.0,10.0,0.0
8493,68.0,0.0,360.0,2.0,0.0
8494,61.0,0.0,60.0,11.0,0.0
8495,73.0,0.0,30.0,8.0,0.0
8496,77.0,0.0,360.0,2.0,0.0
8497,65.0,30.0,30.0,10.0,0.0
8498,82.0,0.0,60.0,7.0,0.0
8499,66.0,0.0,30.0,10.0,0.0
8500,75.0,30.0,30.0,8.0,0.0
8501,65.0,0.0,60.0,11.0,0.0
8502,65.0,0.0,30.0,10.0,0.0
8503,80.0,0.0,60.0,7.0,0.0
8504,73.0,30.0,30.0,8.0,0.0
8505,68.0,0.0,30.0,10.0,0.0
8506,92.0,0.0,60.0,0.0,0.0
8507,77.0,0.0,60.0,7.0,0.0
8508,77.0,30.0,15.0,8.0,0.0
8509,68.0,30.0,60.0,11.0,0.0
8510,68.0,0.0,60.0,3.0,0.0
8511,80.0,0.0,60.0,1.0,0.0
8512,77.0,0.0,30.0,8.0,0.0
8513,49.0,0.0,30.0,6.0,0.0
8514,68.0,30.0,15.0,10.0,0.0
8515,49.0,0.0,30.0,5.0,0.0
8516,82.0,0.0,60.0,1.0,0.0
8517,77.0,0.0,30.0,8.0,0.0
8518,61.0,0.0,15.0,5.0,0.0
8519,82.0,0.0,60.0,7.0,0.0
8520,49.0,0.0,120.0,6.0,0.0
8521,49.0,0.0,120.0,5.0,0.0
8522,70.0,0.0,60.0,3.0,0.0
8523,94.0,0.0,60.0,0.0,0.0
8524,49.0,30.0,60.0,11.0,0.0
8525,68.0,30.0,15.0,10.0,0.0
8526,68.0,0.0,15.0,10.0,0.0
8527,80.0,0.0,60.0,7.0,0.0
8528,68.0,0.0,60.0,3.0,0.0
8529,53.0,0.0,60.0,11.0,0.0
8530,92.0,0.0,60.0,0.0,0.0
8531,80.0,0.0,60.0,1.0,0.0
8532,77.0,0.0,15.0,8.0,0.0
8533,68.0,0.0,15.0,10.0,0.0
8534,77.0,30.0,15.0,8.0,0.0
8535,89.0,0.0,60.0,0.0,0.0
8536,77.0,0.0,15.0,8.0,0.0
8537,65.0,0.0,60.0,3.0,0.0
8538,77.0,0.0,60.0,7.0,0.0
8539,56.0,30.0,60.0,11.0,0.0
8540,77.0,0.0,60.0,1.0,0.0
8541,68.0,0.0,30.0,10.0,0.0
8542,68.0,0.0,30.0,10.0,0.0
8543,77.0,0.0,30.0,8.0,0.0
8544,70.0,30.0,30.0,10.0,0.0
8545,95.0,0.0,60.0,0.0,0.0
8546,61.0,0.0,15.0,5.0,0.0
8547,71.0,0.0,60.0,3.0,0.0
8548,83.0,0.0,60.0,7.0,0.0
8549,49.0,0.0,15.0,5.0,0.0
8550,83.0,30.0,60.0,1.0,0.0
8551,78.0,0.0,30.0,8.0,0.0
8552,49.0,0.0,15.0,6.0,0.0
8553,61.0,0.0,60.0,11.0,0.0
8554,70.0,0.0,360.0,2.0,0.0
8555,78.0,0.0,360.0,2.0,0.0
8556,80.0,0.0,30.0,8.0,0.0
8557,71.0,0.0,30.0,10.0,0.0
8558,82.0,0.0,60.0,7.0,0.0
8559,94.0,0.0,60.0,0.0,0.0
8560,70.0,0.0,60.0,3.0,0.0
8561,82.0,30.0,60.0,1.0,0.0
8562,66.0,0.0,60.0,11.0,0.0
8563,82.0,0.0,15.0,8.0,0.0
8564,73.0,30.0,15.0,10.0,0.0
8565,78.0,0.0,60.0,1.0,0.0
8566,78.0,0.0,60.0,7.0,0.0
8567,66.0,30.0,60.0,3.0,0.0
8568,70.0,0.0,60.0,11.0,0.0
8569,90.0,0.0,60.0,0.0,0.0
8570,73.0,0.0,15.0,10.0,0.0
8571,73.0,0.0,15.0,10.0,0.0
8572,82.0,30.0,15.0,8.0,0.0
8573,61.0,0.0,30.0,5.0,0.0
8574,49.0,0.0,30.0,5.0,0.0
8575,49.0,0.0,30.0,6.0,0.0
8576,82.0,0.0,15.0,8.0,0.0
8577,95.0,0.0,60.0,0.0,0.0
8578,83.0,0.0,60.0,1.0,0.0
8579,83.0,30.0,60.0,7.0,0.0
8580,49.0,0.0,60.0,11.0,0.0
8581,71.0,0.0,60.0,3.0,0.0
8582,61.0,0.0,120.0,5.0,0.0
8583,49.0,0.0,120.0,5.0,0.0
8584,49.0,0.0,120.0,6.0,0.0
8585,73.0,0.0,15.0,10.0,0.0
8586,82.0,0.0,30.0,8.0,0.0
8587,54.0,0.0,60.0,11.0,0.0
8588,94.0,0.0,60.0,0.0,0.0
8589,70.0,0.0,60.0,3.0,0.0
8590,82.0,0.0,60.0,7.0,0.0
8591,82.0,0.0,60.0,1.0,0.0
8592,82.0,30.0,15.0,8.0,0.0
8593,73.0,0.0,15.0,10.0,0.0
8594,58.0,0.0,60.0,11.0,0.0
8595,78.0,0.0,60.0,1.0,0.0
8596,73.0,0.0,15.0,10.0,0.0
8597,82.0,30.0,15.0,8.0,0.0
8598,90.0,0.0,60.0,0.0,0.0
8599,66.0,0.0,60.0,3.0,0.0
8600,78.0,0.0,60.0,7.0,0.0
8601,82.0,30.0,15.0,8.0,0.0
8602,73.0,0.0,15.0,10.0,0.0
8603,49.0,0.0,30.0,6.0,0.0
8604,61.0,0.0,30.0,5.0,0.0
8605,72.0,0.0,30.0,10.0,0.0
8606,89.0,0.0,60.0,0.0,0.0
8607,49.0,0.0,120.0,6.0,0.0
8608,85.0,0.0,60.0,1.0,0.0
8609,65.0,0.0,60.0,3.0,0.0
8610,75.0,30.0,30.0,8.0,0.0
8611,49.0,0.0,15.0,5.0,0.0
8612,85.0,30.0,60.0,7.0,0.0
8613,72.0,0.0,360.0,2.0,0.0
8614,75.0,0.0,360.0,2.0,0.0
8615,61.0,0.0,60.0,11.0,0.0
8616,61.0,0.0,120.0,5.0,0.0
8617,73.0,0.0,30.0,10.0,0.0
8618,77.0,0.0,30.0,8.0,0.0
8619,63.0,0.0,60.0,11.0,0.0
8620,87.0,0.0,60.0,0.0,0.0
8621,84.0,0.0,60.0,7.0,0.0
8622,84.0,0.0,60.0,1.0,0.0
8623,63.0,30.0,60.0,3.0,0.0
8624,72.0,30.0,30.0,10.0,0.0
8625,78.0,0.0,30.0,8.0,0.0
8626,80.0,0.0,60.0,1.0,0.0
8627,78.0,0.0,15.0,8.0,0.0
8628,66.0,0.0,60.0,11.0,0.0
8629,80.0,0.0,60.0,7.0,0.0
8630,75.0,0.0,15.0,10.0,0.0
8631,84.0,0.0,60.0,0.0,0.0
8632,60.0,0.0,60.0,3.0,0.0
8633,61.0,0.0,30.0,5.0,0.0
8634,49.0,0.0,30.0,5.0,0.0
8635,75.0,30.0,15.0,10.0,0.0
8636,49.0,0.0,30.0,6.0,0.0
8637,49.0,0.0,120.0,5.0,0.0
8638,49.0,0.0,60.0,11.0,0.0
8639,78.0,30.0,15.0,8.0,0.0
8640,85.0,0.0,60.0,1.0,0.0
8641,49.0,0.0,120.0,6.0,0.0
8642,85.0,0.0,60.0,7.0,0.0
8643,65.0,0.0,60.0,3.0,0.0
8644,89.0,0.0,60.0,0.0,0.0
8645,75.0,0.0,15.0,10.0,0.0
8646,61.0,0.0,120.0,5.0,0.0
8647,78.0,0.0,30.0,8.0,0.0
8648,75.0,30.0,15.0,10.0,0.0
8649,51.0,0.0,60.0,11.0,0.0
8650,84.0,0.0,60.0,7.0,0.0
8651,87.0,30.0,60.0,0.0,0.0
8652,84.0,0.0,60.0,1.0,0.0
8653,63.0,0.0,60.0,3.0,0.0
8654,75.0,0.0,30.0,10.0,0.0
8655,75.0,0.0,30.0,10.0,0.0
8656,78.0,30.0,15.0,8.0,0.0
8657,78.0,0.0,15.0,8.0,0.0
8658,54.0,0.0,60.0,11.0,0.0
8659,80.0,0.0,60.0,7.0,0.0
8660,60.0,0.0,60.0,3.0,0.0
8661,80.0,0.0,60.0,1.0,0.0
8662,84.0,0.0,60.0,0.0,0.0
8663,75.0,0.0,30.0,10.0,0.0
8664,78.0,30.0,15.0,8.0,0.0
8665,61.0,0.0,30.0,5.0,0.0
8666,75.0,30.0,30.0,10.0,0.0
8667,77.0,0.0,360.0,2.0,0.0
8668,73.0,0.0,360.0,2.0,0.0
8669,49.0,0.0,15.0,6.0,0.0
8670,77.0,0.0,30.0,8.0,0.0
8671,87.0,0.0,60.0,1.0,0.0
8672,87.0,30.0,60.0,7.0,0.0
8673,61.0,0.0,60.0,11.0,0.0
8674,90.0,0.0,60.0,0.0,0.0
8675,66.0,0.0,60.0,3.0,0.0
8676,49.0,0.0,15.0,5.0,0.0
8677,73.0,30.0,30.0,10.0,0.0
8678,61.0,0.0,120.0,5.0,0.0
8679,78.0,0.0,30.0,8.0,0.0
8680,75.0,0.0,30.0,10.0,0.0
8681,85.0,0.0,60.0,1.0,0.0
8682,73.0,30.0,30.0,10.0,0.0
8683,89.0,30.0,60.0,0.0,0.0
8684,65.0,0.0,60.0,11.0,0.0
8685,85.0,0.0,60.0,7.0,0.0
8686,65.0,0.0,60.0,3.0,0.0
8687,80.0,0.0,15.0,8.0,0.0
8688,80.0,0.0,60.0,7.0,0.0
8689,61.0,0.0,60.0,3.0,0.0
8690,77.0,0.0,15.0,10.0,0.0
8691,80.0,0.0,60.0,1.0,0.0
8692,68.0,0.0,60.0,11.0,0.0
8693,85.0,0.0,60.0,0.0,0.0
8694,80.0,0.0,15.0,8.0,0.0
8695,77.0,30.0,15.0,10.0,0.0
8696,49.0,0.0,30.0,5.0,0.0
8697,49.0,0.0,30.0,6.0,0.0
8698,61.0,0.0,30.0,5.0,0.0
8699,78.0,0.0,60.0,1.0,0.0
8700,90.0,30.0,60.0,7.0,0.0
8701,49.0,0.0,120.0,6.0,0.0
8702,90.0,0.0,60.0,0.0,0.0
8703,80.0,30.0,30.0,8.0,0.0
8704,49.0,0.0,120.0,5.0,0.0
8705,61.0,0.0,120.0,5.0,0.0
8706,77.0,0.0,30.0,10.0,0.0
8707,49.0,0.0,60.0,11.0,0.0
8708,66.0,0.0,60.0,3.0,0.0
8709,77.0,0.0,30.0,10.0,0.0
8710,89.0,0.0,60.0,0.0,0.0
8711,80.0,0.0,15.0,8.0,0.0
8712,77.0,30.0,60.0,1.0,0.0
8713,65.0,0.0,60.0,3.0,0.0
8714,53.0,0.0,60.0,11.0,0.0
8715,89.0,0.0,60.0,7.0,0.0
8716,77.0,30.0,15.0,10.0,0.0
8717,80.0,0.0,30.0,8.0,0.0
8718,85.0,0.0,60.0,0.0,0.0
8719,85.0,0.0,60.0,7.0,0.0
8720,73.0,0.0,60.0,1.0,0.0
8721,56.0,0.0,60.0,11.0,0.0
8722,80.0,29.0,30.0,8.0,0.0
8723,61.0,0.0,60.0,3.0,0.0
8724,77.0,0.0,15.0,10.0,0.0
8725,77.0,15.0,30.0,10.0,0.0
8726,49.0,0.0,30.0,6.0,0.0
8727,49.0,0.0,30.0,5.0,0.0
8728,61.0,0.0,30.0,5.0,0.0
8729,74.0,0.0,360.0,2.0,0.0
8730,80.0,30.0,360.0,2.0,0.0
8731,68.0,0.0,360.0,5.0,0.0
8732,92.0,0.0,360.0,0.0,0.0
8733,80.0,0.0,15.0,8.0,0.0
8734,53.0,0.0,30.0,11.0,0.0
8735,68.0,0.0,360.0,3.0,0.0
8736,65.0,0.0,360.0,3.0,0.0
8737,92.0,15.0,270.0,7.0,0.0
8738,86.0,0.0,360.0,0.0,0.0
8739,68.0,0.0,360.0,4.0,0.0
8740,80.0,0.0,360.0,1.0,0.0
8741,56.0,0.0,360.0,4.0,0.0
8742,74.0,15.0,30.0,10.0,0.0
8743,56.0,15.0,15.0,6.0,0.0
8744,56.0,0.0,15.0,6.0,0.0
8745,74.0,0.0,30.0,10.0,0.0
8746,56.0,15.0,15.0,6.0,0.0
8747,80.0,0.0,15.0,8.0,0.0
8748,65.0,0.0,15.0,11.0,0.0
8749,74.0,15.0,30.0,10.0,0.0
8750,56.0,15.0,15.0,6.0,0.0
8751,80.0,0.0,30.0,8.0,0.0
8752,74.0,0.0,30.0,10.0,0.0
8753,56.0,15.0,15.0,6.0,0.0
8754,74.0,0.0,30.0,10.0,0.0
8755,65.0,0.0,15.0,11.0,0.0
8756,56.0,15.0,15.0,6.0,0.0
8757,56.0,15.0,15.0,6.0,0.0
8758,56.0,0.0,15.0,6.0,0.0
8759,65.0,0.0,15.0,11.0,0.0
8760,80.0,15.0,15.0,8.0,0.0
8761,56.0,0.0,15.0,6.0,0.0
8762,65.0,0.0,15.0,11.0,0.0
8763,56.0,15.0,15.0,6.0,0.0
8764,80.0,15.0,30.0,8.0,0.0
8765,74.0,15.0,15.0,10.0,0.0
8766,56.0,0.0,15.0,6.0,0.0
8767,65.0,0.0,15.0,11.0,0.0
8768,56.0,15.0,15.0,6.0,0.0
8769,65.0,0.0,15.0,11.0,0.0
8770,80.0,15.0,15.0,8.0,0.0
8771,74.0,0.0,15.0,10.0,0.0
8772,56.0,15.0,15.0,6.0,0.0
8773,65.0,0.0,30.0,11.0,0.0
8774,74.0,0.0,15.0,10.0,0.0
8775,91.0,0.0,30.0,7.0,0.0
8776,56.0,15.0,15.0,6.0,0.0
8777,89.0,0.0,60.0,7.0,0.0
8778,80.0,30.0,15.0,8.0,0.0
8779,74.0,0.0,30.0,10.0,0.0
8780,56.0,0.0,60.0,6.0,0.0
8781,65.0,0.0,30.0,11.0,0.0
8782,65.0,0.0,30.0,11.0,0.0
8783,74.0,0.0,30.0,10.0,0.0
8784,80.0,30.0,15.0,8.0,0.0
8785,79.0,0.0,240.0,1.0,0.0
8786,79.0,0.0,30.0,8.0,0.0
8787,49.0,0.0,120.0,5.0,0.0
8788,61.0,0.0,120.0,5.0,0.0
8789,49.0,30.0,120.0,6.0,0.0
8790,79.0,0.0,240.0,2.0,0.0
8791,75.0,0.0,240.0,2.0,0.0
8792,75.0,0.0,240.0,4.0,0.0
8793,89.0,30.0,60.0,7.0,0.0
8794,91.0,0.0,240.0,0.0,0.0
8795,87.0,0.0,240.0,0.0,0.0
8796,75.0,0.0,30.0,10.0,0.0
8797,63.0,30.0,15.0,11.0,0.0
8798,79.0,0.0,30.0,8.0,0.0
8799,63.0,0.0,15.0,11.0,0.0
8800,91.0,0.0,180.0,7.0,0.0
8801,75.0,0.0,15.0,10.0,0.0
8802,79.0,30.0,30.0,8.0,0.0
8803,75.0,0.0,15.0,10.0,0.0
8804,79.0,0.0,30.0,8.0,0.0
8805,63.0,0.0,15.0,11.0,0.0
8806,63.0,0.0,15.0,11.0,0.0
8807,79.0,30.0,15.0,8.0,0.0
8808,75.0,0.0,15.0,10.0,0.0
8809,63.0,0.0,15.0,11.0,0.0
8810,75.0,30.0,15.0,10.0,0.0
8811,49.0,30.0,60.0,6.0,0.0
8812,61.0,0.0,60.0,5.0,0.0
8813,49.0,0.0,60.0,5.0,0.0
8814,79.0,0.0,15.0,8.0,0.0
8815,63.0,30.0,15.0,11.0,0.0
8816,75.0,0.0,30.0,10.0,0.0
8817,82.0,0.0,15.0,1.0,0.0
8818,63.0,0.0,15.0,11.0,0.0
8819,73.0,30.0,60.0,7.0,0.0
8820,91.0,0.0,60.0,0.0,0.0
8821,70.0,30.0,30.0,8.0,0.0
8822,63.0,0.0,15.0,3.0,0.0
8823,67.0,0.0,15.0,3.0,0.0
8824,67.0,0.0,30.0,10.0,0.0
8825,70.0,0.0,30.0,8.0,0.0
8826,63.0,0.0,15.0,11.0,0.0
8827,67.0,0.0,15.0,10.0,0.0
8828,67.0,0.0,60.0,3.0,0.0
8829,63.0,0.0,60.0,3.0,0.0
8830,79.0,0.0,15.0,2.0,0.0
8831,75.0,0.0,60.0,7.0,0.0
8832,91.0,0.0,60.0,0.0,0.0
8833,67.0,0.0,30.0,10.0,0.0
8834,63.0,0.0,15.0,11.0,0.0
8835,70.0,30.0,15.0,8.0,0.0
8836,65.0,0.0,30.0,10.0,0.0
8837,70.0,0.0,30.0,8.0,0.0
8838,65.0,0.0,60.0,3.0,0.0
8839,82.0,30.0,15.0,1.0,0.0
8840,61.0,0.0,60.0,3.0,0.0
8841,89.0,30.0,60.0,0.0,0.0
8842,77.0,0.0,60.0,2.0,0.0
8843,77.0,0.0,120.0,7.0,0.0
8844,61.0,30.0,15.0,11.0,0.0
8845,70.0,0.0,30.0,8.0,0.0
8846,65.0,0.0,30.0,10.0,0.0
8847,65.0,0.0,30.0,10.0,0.0
8848,61.0,30.0,15.0,11.0,0.0
8849,70.0,0.0,15.0,8.0,0.0
8850,61.0,0.0,15.0,11.0,0.0
8851,89.0,0.0,60.0,0.0,0.0
8852,65.0,0.0,15.0,10.0,0.0
8853,82.0,30.0,60.0,1.0,0.0
8854,61.0,0.0,60.0,3.0,0.0
8855,77.0,0.0,60.0,7.0,0.0
8856,70.0,30.0,15.0,8.0,0.0
8857,65.0,0.0,60.0,3.0,0.0
8858,65.0,30.0,15.0,10.0,0.0
8859,61.0,0.0,15.0,11.0,0.0
8860,89.0,0.0,60.0,0.0,0.0
8861,65.0,0.0,60.0,3.0,0.0
8862,61.0,0.0,60.0,3.0,0.0
8863,70.0,0.0,15.0,8.0,0.0
8864,77.0,0.0,15.0,2.0,0.0
8865,65.0,0.0,30.0,10.0,0.0
8866,77.0,0.0,90.0,7.0,0.0
8867,82.0,0.0,60.0,1.0,0.0
8868,65.0,0.0,30.0,10.0,0.0
8869,70.0,0.0,15.0,8.0,0.0
8870,61.0,0.0,15.0,11.0,0.0
8871,79.0,0.0,30.0,7.0,0.0
8872,65.0,0.0,15.0,10.0,0.0
8873,70.0,30.0,15.0,8.0,0.0
8874,77.0,0.0,60.0,2.0,0.0
8875,77.0,0.0,60.0,7.0,0.0
8876,82.0,0.0,60.0,1.0,0.0
8877,70.0,0.0,15.0,8.0,0.0
8878,61.0,30.0,15.0,11.0,0.0
8879,89.0,0.0,60.0,0.0,0.0
8880,65.0,0.0,15.0,10.0,0.0
8881,65.0,0.0,60.0,3.0,0.0
8882,61.0,0.0,60.0,3.0,0.0
8883,70.0,30.0,15.0,8.0,0.0
8884,61.0,0.0,15.0,11.0,0.0
8885,65.0,0.0,30.0,10.0,0.0
8886,84.0,60.0,120.0,1.0,0.0
8887,60.0,0.0,120.0,11.0,0.0
8888,76.0,0.0,120.0,7.0,0.0
8889,79.0,0.0,120.0,2.0,0.0
8890,60.0,0.0,120.0,3.0,0.0
8891,67.0,0.0,60.0,10.0,0.0
8892,88.0,0.0,120.0,0.0,0.0
8893,72.0,60.0,60.0,8.0,0.0
8894,67.0,0.0,60.0,8.0,0.0
8895,64.0,0.0,60.0,10.0,0.0
8896,72.0,90.0,60.0,7.0,0.0
8897,60.0,60.0,120.0,11.0,0.0
8898,72.0,30.0,90.0,7.0,0.0
8899,75.0,0.0,30.0,7.0,0.0
8900,67.0,15.0,60.0,8.0,0.0
8901,79.0,0.0,60.0,7.0,0.0
8902,64.0,0.0,60.0,10.0,0.0
8903,60.0,60.0,120.0,11.0,0.0
8904,77.0,105.0,15.0,7.0,0.0
8905,80.0,0.0,15.0,7.0,0.0
8906,65.0,90.0,60.0,10.0,0.0
8907,68.0,0.0,60.0,8.0,0.0
8908,60.0,0.0,60.0,8.0,0.0
8909,60.0,60.0,120.0,11.0,0.0
8910,80.0,30.0,90.0,7.0,0.0
8911,79.0,0.0,30.0,7.0,0.0
8912,68.0,120.0,60.0,8.0,0.0
8913,77.0,0.0,60.0,7.0,0.0
8914,60.0,0.0,60.0,8.0,0.0
8915,65.0,0.0,60.0,10.0,0.0
8916,76.0,0.0,120.0,7.0,0.0
8917,60.0,60.0,120.0,11.0,0.0
8918,67.0,0.0,60.0,8.0,0.0
8919,64.0,0.0,60.0,10.0,0.0
8920,60.0,0.0,60.0,8.0,0.0
8921,60.0,60.0,120.0,11.0,0.0
8922,72.0,90.0,15.0,7.0,0.0
8923,75.0,0.0,30.0,7.0,0.0
8924,60.0,30.0,60.0,8.0,0.0
8925,64.0,0.0,60.0,10.0,0.0
8926,79.0,0.0,60.0,7.0,0.0
8927,67.0,0.0,60.0,8.0,0.0
8928,84.0,0.0,360.0,0.0,0.0
8929,92.0,0.0,180.0,0.0,0.0
8930,68.0,30.0,180.0,3.0,0.0
8931,60.0,0.0,360.0,3.0,0.0
8932,80.0,0.0,120.0,7.0,0.0
8933,80.0,0.0,180.0,1.0,0.0
8934,72.0,0.0,360.0,2.0,0.0
8935,53.0,30.0,15.0,11.0,0.0
8936,65.0,0.0,15.0,10.0,0.0
8937,68.0,0.0,15.0,8.0,0.0
8938,53.0,0.0,15.0,11.0,0.0
8939,65.0,0.0,30.0,10.0,0.0
8940,68.0,30.0,30.0,8.0,0.0
8941,53.0,0.0,30.0,11.0,0.0
8942,65.0,30.0,30.0,10.0,0.0
8943,68.0,0.0,15.0,8.0,0.0
8944,80.0,0.0,60.0,7.0,0.0
8945,65.0,0.0,15.0,10.0,0.0
8946,53.0,0.0,15.0,11.0,0.0
8947,68.0,0.0,30.0,8.0,0.0
8948,60.0,0.0,30.0,10.0,0.0
8949,84.0,0.0,120.0,7.0,0.0
8950,89.0,0.0,180.0,0.0,0.0
8951,77.0,0.0,180.0,1.0,0.0
8952,65.0,0.0,180.0,3.0,0.0
8953,65.0,30.0,30.0,8.0,0.0
8954,56.0,0.0,15.0,11.0,0.0
8955,65.0,30.0,15.0,8.0,0.0
8956,56.0,0.0,15.0,11.0,0.0
8957,60.0,0.0,15.0,10.0,0.0
8958,56.0,0.0,15.0,11.0,0.0
8959,65.0,30.0,15.0,8.0,0.0
8960,60.0,0.0,30.0,10.0,0.0
8961,60.0,0.0,30.0,10.0,0.0
8962,84.0,60.0,60.0,7.0,0.0
8963,56.0,0.0,15.0,11.0,0.0
8964,65.0,30.0,15.0,8.0,0.0
8965,65.0,30.0,15.0,8.0,0.0
8966,56.0,0.0,30.0,11.0,0.0
8967,60.0,0.0,30.0,10.0,0.0
8968,62.0,60.0,60.0,8.0,0.0
8969,55.0,0.0,120.0,11.0,0.0
8970,71.0,0.0,120.0,2.0,0.0
8971,62.0,0.0,120.0,3.0,0.0
8972,59.0,0.0,60.0,10.0,0.0
8973,59.0,60.0,120.0,3.0,0.0
8974,86.0,0.0,120.0,0.0,0.0
8975,83.0,0.0,120.0,7.0,0.0
8976,83.0,0.0,120.0,0.0,0.0
8977,74.0,0.0,120.0,1.0,0.0
8978,59.0,0.0,60.0,10.0,0.0
8979,55.0,0.0,60.0,10.0,0.0
8980,55.0,90.0,60.0,3.0,0.0
8981,67.0,0.0,60.0,1.0,0.0
8982,62.0,0.0,60.0,8.0,0.0
8983,67.0,0.0,60.0,8.0,0.0
8984,79.0,0.0,15.0,0.0,0.0
8985,55.0,60.0,120.0,11.0,0.0
8986,67.0,0.0,90.0,1.0,0.0
8987,55.0,30.0,90.0,3.0,0.0
8988,83.0,0.0,30.0,0.0,0.0
8989,59.0,0.0,30.0,3.0,0.0
8990,71.0,0.0,30.0,1.0,0.0
8991,62.0,0.0,60.0,3.0,0.0
8992,59.0,120.0,60.0,10.0,0.0
8993,86.0,0.0,60.0,0.0,0.0
8994,55.0,0.0,60.0,10.0,0.0
8995,74.0,0.0,60.0,1.0,0.0
8996,67.0,0.0,60.0,8.0,0.0
8997,62.0,0.0,60.0,8.0,0.0
8998,76.0,0.0,120.0,1.0,0.0
8999,64.0,0.0,120.0,3.0,0.0
9000,55.0,0.0,120.0,11.0,0.0
9001,67.0,0.0,60.0,8.0,0.0
9002,62.0,0.0,60.0,8.0,0.0
9003,55.0,0.0,60.0,10.0,0.0
9004,60.0,0.0,60.0,10.0,0.0
9005,88.0,60.0,15.0,0.0,0.0
9006,64.0,0.0,60.0,3.0,0.0
9007,76.0,0.0,15.0,1.0,0.0
9008,88.0,30.0,90.0,0.0,0.0
9009,55.0,0.0,120.0,11.0,0.0
9010,64.0,0.0,90.0,3.0,0.0
9011,74.0,0.0,30.0,1.0,0.0
9012,86.0,0.0,30.0,0.0,0.0
9013,62.0,60.0,30.0,3.0,0.0
9014,60.0,0.0,60.0,3.0,0.0
9015,60.0,0.0,60.0,10.0,0.0
9016,55.0,0.0,60.0,10.0,0.0
9017,84.0,0.0,60.0,0.0,0.0
9018,67.0,120.0,60.0,8.0,0.0
9019,62.0,0.0,60.0,8.0,0.0
9020,72.0,0.0,60.0,1.0,0.0
9021,83.0,0.0,120.0,0.0,0.0
9022,55.0,0.0,120.0,11.0,0.0
9023,59.0,60.0,120.0,3.0,0.0
9024,71.0,0.0,120.0,1.0,0.0
9025,67.0,0.0,60.0,8.0,0.0
9026,55.0,0.0,60.0,10.0,0.0
9027,59.0,0.0,60.0,10.0,0.0
9028,62.0,0.0,60.0,8.0,0.0
9029,55.0,0.0,120.0,11.0,0.0
9030,79.0,90.0,15.0,7.0,0.0
9031,83.0,60.0,30.0,7.0,0.0
9032,62.0,0.0,60.0,8.0,0.0
9033,67.0,0.0,60.0,8.0,0.0
9034,62.0,30.0,60.0,3.0,0.0
9035,59.0,0.0,60.0,10.0,0.0
9036,86.0,0.0,60.0,7.0,0.0
9037,55.0,0.0,60.0,10.0,0.0
9038,74.0,0.0,60.0,1.0,0.0
9039,86.0,0.0,60.0,0.0,0.0
9040,60.0,0.0,360.0,11.0,0.0
9041,87.0,30.0,120.0,0.0,0.0
9042,87.0,0.0,120.0,7.0,0.0
9043,63.0,0.0,120.0,3.0,0.0
9044,51.0,0.0,120.0,3.0,0.0
9045,63.0,30.0,30.0,8.0,0.0
9046,75.0,0.0,120.0,1.0,0.0
9047,63.0,0.0,15.0,10.0,0.0
9048,75.0,30.0,15.0,8.0,0.0
9049,75.0,0.0,30.0,8.0,0.0
9050,63.0,30.0,15.0,10.0,0.0
9051,75.0,0.0,30.0,8.0,0.0
9052,63.0,30.0,30.0,10.0,0.0
9053,63.0,0.0,60.0,3.0,0.0
9054,87.0,0.0,60.0,0.0,0.0
9055,87.0,0.0,60.0,7.0,0.0
9056,75.0,0.0,30.0,8.0,0.0
9057,87.0,0.0,120.0,0.0,0.0
9058,75.0,0.0,15.0,1.0,0.0
9059,87.0,30.0,15.0,1.0,0.0
9060,51.0,0.0,15.0,3.0,0.0
9061,63.0,0.0,15.0,10.0,0.0
9062,75.0,30.0,30.0,8.0,0.0
9063,75.0,30.0,30.0,10.0,0.0
9064,87.0,0.0,15.0,8.0,0.0
9065,87.0,0.0,30.0,8.0,0.0
9066,75.0,30.0,15.0,10.0,0.0
9067,92.0,0.0,15.0,0.0,0.0
9068,63.0,0.0,15.0,3.0,0.0
9069,87.0,0.0,15.0,1.0,0.0
9070,92.0,0.0,15.0,7.0,0.0
9071,51.0,0.0,15.0,3.0,0.0
9072,75.0,0.0,15.0,1.0,0.0
9073,75.0,30.0,15.0,10.0,0.0
9074,75.0,0.0,15.0,10.0,0.0
9075,87.0,30.0,15.0,8.0,0.0
9076,87.0,0.0,15.0,0.0,0.0
9077,73.0,0.0,90.0,10.0,0.0
9078,92.0,0.0,15.0,0.0,0.0
9079,51.0,0.0,15.0,3.0,0.0
9080,85.0,30.0,90.0,8.0,0.0
9081,73.0,0.0,120.0,4.0,0.0
9082,87.0,0.0,480.0,1.0,0.0
9083,73.0,0.0,120.0,2.0,0.0
9084,92.0,30.0,60.0,7.0,0.0
9085,75.0,0.0,480.0,1.0,0.0
9086,91.0,30.0,240.0,0.0,0.0
9087,91.0,0.0,240.0,7.0,0.0
9088,84.0,0.0,30.0,8.0,0.0
9089,72.0,0.0,30.0,10.0,0.0
9090,70.0,0.0,30.0,10.0,0.0
9091,61.0,0.0,15.0,4.0,0.0
9092,85.0,0.0,15.0,2.0,0.0
9093,82.0,30.0,30.0,8.0,0.0
9094,46.0,30.0,15.0,11.0,0.0
9095,73.0,0.0,60.0,4.0,0.0
9096,68.0,0.0,30.0,10.0,0.0
9097,80.0,0.0,30.0,8.0,0.0
9098,73.0,0.0,15.0,2.0,0.0
9099,85.0,30.0,15.0,2.0,0.0
9100,79.0,30.0,30.0,8.0,0.0
9101,67.0,0.0,30.0,10.0,0.0
9102,73.0,0.0,120.0,4.0,0.0
9103,58.0,0.0,120.0,11.0,0.0
9104,80.0,30.0,30.0,8.0,0.0
9105,68.0,0.0,30.0,10.0,0.0
9106,67.0,0.0,30.0,10.0,0.0
9107,79.0,30.0,30.0,8.0,0.0
9108,65.0,0.0,30.0,10.0,0.0
9109,77.0,0.0,30.0,8.0,0.0
9110,58.0,0.0,60.0,11.0,0.0
9111,85.0,0.0,15.0,2.0,0.0
9112,85.0,0.0,60.0,7.0,0.0
9113,73.0,0.0,15.0,2.0,0.0
9114,61.0,0.0,15.0,4.0,0.0
9115,73.0,0.0,60.0,4.0,0.0
9116,75.0,0.0,30.0,8.0,0.0
9117,63.0,30.0,30.0,10.0,0.0
9118,85.0,0.0,60.0,0.0,0.0
9119,73.0,0.0,30.0,8.0,0.0
9120,61.0,30.0,30.0,10.0,0.0
9121,56.0,0.0,360.0,4.0,0.0
9122,68.0,0.0,360.0,4.0,0.0
9123,58.0,0.0,60.0,11.0,0.0
9124,84.0,0.0,360.0,2.0,0.0
9125,72.0,0.0,360.0,2.0,0.0
9126,72.0,30.0,30.0,8.0,0.0
9127,87.0,0.0,120.0,0.0,0.0
9128,60.0,0.0,15.0,10.0,0.0
9129,56.0,0.0,300.0,11.0,0.0
9130,60.0,0.0,30.0,10.0,0.0
9131,72.0,30.0,15.0,8.0,0.0
9132,72.0,30.0,15.0,8.0,0.0
9133,60.0,30.0,30.0,10.0,0.0
9134,84.0,0.0,15.0,7.0,0.0
9135,75.0,0.0,60.0,1.0,0.0
9136,87.0,0.0,60.0,1.0,0.0
9137,84.0,0.0,15.0,0.0,0.0
9138,51.0,0.0,15.0,3.0,0.0
9139,63.0,0.0,15.0,3.0,0.0
9140,60.0,0.0,30.0,10.0,0.0
9141,87.0,0.0,60.0,0.0,0.0
9142,72.0,30.0,15.0,8.0,0.0
9143,60.0,0.0,30.0,10.0,0.0
9144,60.0,30.0,30.0,10.0,0.0
9145,89.0,0.0,120.0,0.0,0.0
9146,84.0,0.0,30.0,8.0,0.0
9147,51.0,0.0,120.0,3.0,0.0
9148,63.0,0.0,120.0,3.0,0.0
9149,87.0,0.0,120.0,0.0,0.0
9150,84.0,30.0,30.0,8.0,0.0
9151,72.0,0.0,30.0,10.0,0.0
9152,84.0,0.0,30.0,8.0,0.0
9153,72.0,30.0,15.0,10.0,0.0
9154,84.0,0.0,30.0,8.0,0.0
9155,89.0,0.0,15.0,7.0,0.0
9156,89.0,0.0,60.0,0.0,0.0
9157,75.0,0.0,15.0,1.0,0.0
9158,87.0,0.0,15.0,1.0,0.0
9159,87.0,0.0,60.0,0.0,0.0
9160,72.0,30.0,15.0,10.0,0.0
9161,84.0,30.0,30.0,8.0,0.0
9162,72.0,0.0,15.0,10.0,0.0
9163,84.0,60.0,30.0,8.0,0.0
9164,75.0,0.0,15.0,1.0,0.0
9165,89.0,30.0,60.0,7.0,0.0
9166,51.0,0.0,15.0,3.0,0.0
9167,87.0,0.0,15.0,1.0,0.0
9168,63.0,0.0,15.0,3.0,0.0
9169,70.0,0.0,90.0,10.0,0.0
9170,58.0,0.0,120.0,5.0,0.0
9171,70.0,0.0,120.0,5.0,0.0
9172,89.0,0.0,60.0,0.0,0.0
9173,70.0,0.0,120.0,2.0,0.0
9174,82.0,30.0,90.0,8.0,0.0
9175,82.0,0.0,120.0,2.0,0.0
9176,87.0,30.0,240.0,0.0,0.0
9177,87.0,0.0,240.0,7.0,0.0
9178,80.0,0.0,30.0,8.0,0.0
9179,68.0,0.0,30.0,10.0,0.0
9180,58.0,0.0,60.0,5.0,0.0
9181,70.0,0.0,60.0,5.0,0.0
9182,43.0,30.0,15.0,11.0,0.0
9183,79.0,30.0,30.0,8.0,0.0
9184,67.0,0.0,30.0,10.0,0.0
9185,65.0,0.0,30.0,10.0,0.0
9186,77.0,0.0,30.0,8.0,0.0
9187,82.0,30.0,15.0,2.0,0.0
9188,70.0,0.0,15.0,2.0,0.0
9189,75.0,30.0,30.0,8.0,0.0
9190,63.0,0.0,30.0,10.0,0.0
9191,65.0,30.0,30.0,10.0,0.0
9192,77.0,0.0,30.0,8.0,0.0
9193,75.0,30.0,30.0,8.0,0.0
9194,63.0,0.0,30.0,10.0,0.0
9195,62.0,0.0,30.0,10.0,0.0
9196,74.0,0.0,30.0,8.0,0.0
9197,60.0,30.0,30.0,10.0,0.0
9198,55.0,0.0,15.0,11.0,0.0
9199,70.0,0.0,15.0,5.0,0.0
9200,72.0,0.0,30.0,8.0,0.0
9201,82.0,0.0,60.0,7.0,0.0
9202,58.0,0.0,15.0,5.0,0.0
9203,70.0,0.0,60.0,2.0,0.0
9204,82.0,0.0,60.0,2.0,0.0
9205,82.0,0.0,60.0,0.0,0.0
9206,70.0,0.0,30.0,8.0,0.0
9207,58.0,30.0,30.0,10.0,0.0
9208,68.0,0.0,300.0,5.0,0.0
9209,68.0,0.0,120.0,2.0,0.0
9210,55.0,0.0,60.0,11.0,0.0
9211,68.0,0.0,30.0,8.0,0.0
9212,80.0,0.0,120.0,2.0,0.0
9213,87.0,30.0,60.0,0.0,0.0
9214,80.0,0.0,120.0,0.0,0.0
9215,56.0,30.0,30.0,10.0,0.0
9216,73.0,0.0,30.0,8.0,0.0
9217,61.0,0.0,15.0,10.0,0.0
9218,53.0,0.0,240.0,11.0,0.0
9219,53.0,0.0,240.0,3.0,0.0
9220,61.0,0.0,240.0,3.0,0.0
9221,73.0,0.0,60.0,1.0,0.0
9222,85.0,0.0,60.0,0.0,0.0
9223,73.0,0.0,15.0,8.0,0.0
9224,85.0,30.0,15.0,1.0,0.0
9225,73.0,0.0,60.0,1.0,0.0
9226,68.0,0.0,15.0,4.0,0.0
9227,56.0,0.0,15.0,4.0,0.0
9228,68.0,0.0,60.0,2.0,0.0
9229,61.0,0.0,15.0,10.0,0.0
9230,80.0,0.0,15.0,7.0,0.0
9231,73.0,0.0,15.0,8.0,0.0
9232,73.0,0.0,60.0,2.0,0.0
9233,73.0,0.0,15.0,8.0,0.0
9234,61.0,30.0,30.0,10.0,0.0
9235,85.0,0.0,120.0,7.0,0.0
9236,92.0,0.0,15.0,0.0,0.0
9237,68.0,0.0,120.0,2.0,0.0
9238,80.0,30.0,30.0,8.0,0.0
9239,97.0,0.0,120.0,0.0,0.0
9240,73.0,0.0,120.0,2.0,0.0
9241,68.0,0.0,30.0,10.0,0.0
9242,68.0,0.0,30.0,8.0,0.0
9243,68.0,30.0,30.0,8.0,0.0
9244,56.0,30.0,15.0,10.0,0.0
9245,56.0,0.0,30.0,10.0,0.0
9246,73.0,0.0,15.0,7.0,0.0
9247,73.0,0.0,15.0,4.0,0.0
9248,85.0,0.0,60.0,7.0,0.0
9249,64.0,0.0,60.0,3.0,0.0
9250,92.0,0.0,15.0,0.0,0.0
9251,61.0,0.0,60.0,5.0,0.0
9252,52.0,0.0,60.0,3.0,0.0
9253,56.0,0.0,30.0,10.0,0.0
9254,68.0,0.0,15.0,8.0,0.0
9255,68.0,0.0,60.0,2.0,0.0
9256,85.0,30.0,15.0,1.0,0.0
9257,73.0,0.0,60.0,2.0,0.0
9258,52.0,0.0,60.0,11.0,0.0
9259,61.0,0.0,15.0,4.0,0.0
9260,80.0,0.0,15.0,1.0,0.0
9261,68.0,30.0,15.0,8.0,0.0
9262,56.0,0.0,30.0,10.0,0.0
9263,70.0,0.0,60.0,2.0,0.0
9264,58.0,0.0,60.0,5.0,0.0
9265,67.0,0.0,120.0,8.0,0.0
9266,51.0,0.0,60.0,3.0,0.0
9267,63.0,0.0,60.0,3.0,0.0
9268,61.0,0.0,60.0,5.0,0.0
9269,51.0,0.0,120.0,11.0,0.0
9270,82.0,0.0,60.0,1.0,0.0
9271,55.0,0.0,120.0,10.0,0.0
9272,85.0,0.0,120.0,7.0,0.0
9273,97.0,0.0,15.0,0.0,0.0
9274,85.0,0.0,60.0,1.0,0.0
9275,73.0,0.0,120.0,7.0,0.0
9276,85.0,0.0,60.0,1.0,0.0
9277,82.0,0.0,60.0,1.0,0.0
9278,75.0,0.0,15.0,4.0,0.0
9279,61.0,0.0,60.0,5.0,0.0
9280,58.0,0.0,60.0,5.0,0.0
9281,58.0,0.0,60.0,3.0,0.0
9282,61.0,0.0,60.0,3.0,0.0
9283,73.0,0.0,15.0,2.0,0.0
9284,94.0,60.0,15.0,0.0,0.0
9285,97.0,0.0,15.0,0.0,0.0
9286,70.0,0.0,60.0,2.0,0.0
9287,75.0,0.0,60.0,4.0,0.0
9288,61.0,0.0,60.0,5.0,0.0
9289,58.0,60.0,60.0,5.0,0.0
9290,73.0,0.0,120.0,7.0,0.0
9291,82.0,0.0,60.0,1.0,0.0
9292,63.0,0.0,120.0,10.0,0.0
9293,82.0,0.0,120.0,8.0,0.0
9294,85.0,0.0,120.0,7.0,0.0
9295,70.0,0.0,60.0,2.0,0.0
9296,97.0,0.0,60.0,0.0,0.0
9297,94.0,0.0,60.0,0.0,0.0
9298,51.0,0.0,120.0,11.0,0.0
9299,75.0,0.0,120.0,8.0,0.0
9300,73.0,0.0,60.0,2.0,0.0
9301,85.0,0.0,15.0,1.0,0.0
9302,82.0,0.0,60.0,1.0,0.0
9303,73.0,0.0,60.0,2.0,0.0
9304,70.0,0.0,60.0,2.0,0.0
9305,97.0,0.0,60.0,0.0,0.0
9306,58.0,0.0,15.0,3.0,0.0
9307,75.0,0.0,60.0,4.0,0.0
9308,61.0,0.0,15.0,3.0,0.0
9309,94.0,0.0,60.0,0.0,0.0
9310,58.0,0.0,60.0,5.0,0.0
9311,61.0,0.0,60.0,5.0,0.0
9312,84.0,0.0,120.0,7.0,0.0
9313,75.0,0.0,120.0,7.0,0.0
9314,96.0,0.0,60.0,0.0,0.0
9315,92.0,0.0,60.0,0.0,0.0
9316,63.0,0.0,120.0,10.0,0.0
9317,84.0,0.0,60.0,1.0,0.0
9318,51.0,0.0,120.0,11.0,0.0
9319,60.0,0.0,60.0,3.0,0.0
9320,80.0,0.0,120.0,8.0,0.0
9321,72.0,0.0,60.0,2.0,0.0
9322,75.0,120.0,120.0,8.0,0.0
9323,80.0,0.0,15.0,1.0,0.0
9324,68.0,0.0,15.0,2.0,0.0
9325,84.0,0.0,60.0,1.0,0.0
9326,75.0,0.0,15.0,4.0,0.0
9327,72.0,0.0,60.0,2.0,0.0
9328,96.0,0.0,60.0,0.0,0.0
9329,92.0,0.0,60.0,0.0,0.0
9330,60.0,0.0,60.0,3.0,0.0
9331,56.0,60.0,15.0,3.0,0.0
9332,75.0,0.0,120.0,8.0,0.0
9333,68.0,0.0,60.0,2.0,0.0
9334,84.0,0.0,60.0,1.0,0.0
9335,51.0,0.0,120.0,11.0,0.0
9336,92.0,0.0,120.0,7.0,0.0
9337,63.0,0.0,120.0,10.0,0.0
9338,72.0,0.0,60.0,2.0,0.0
9339,84.0,0.0,120.0,8.0,0.0
9340,84.0,0.0,120.0,7.0,0.0
9341,80.0,0.0,15.0,1.0,0.0
9342,75.0,0.0,15.0,4.0,0.0
9343,72.0,0.0,60.0,2.0,0.0
9344,68.0,0.0,60.0,2.0,0.0
9345,56.0,0.0,15.0,3.0,0.0
9346,60.0,0.0,15.0,3.0,0.0
9347,84.0,0.0,60.0,1.0,0.0
9348,92.0,60.0,15.0,0.0,0.0
9349,96.0,0.0,15.0,0.0,0.0
9350,94.0,0.0,60.0,0.0,0.0
9351,58.0,0.0,60.0,5.0,0.0
9352,75.0,0.0,120.0,8.0,0.0
9353,82.0,0.0,120.0,8.0,0.0
9354,82.0,0.0,60.0,1.0,0.0
9355,61.0,0.0,60.0,5.0,0.0
9356,63.0,0.0,120.0,10.0,0.0
9357,51.0,0.0,120.0,11.0,0.0
9358,82.0,0.0,120.0,7.0,0.0
9359,91.0,0.0,120.0,7.0,0.0
9360,58.0,0.0,15.0,3.0,0.0
9361,82.0,0.0,60.0,1.0,0.0
9362,85.0,0.0,15.0,1.0,0.0
9363,61.0,0.0,15.0,3.0,0.0
9364,75.0,0.0,15.0,4.0,0.0
9365,73.0,0.0,15.0,2.0,0.0
9366,58.0,120.0,60.0,5.0,0.0
9367,70.0,0.0,15.0,2.0,0.0
9368,61.0,0.0,60.0,5.0,0.0
9369,97.0,60.0,15.0,0.0,0.0
9370,94.0,0.0,60.0,0.0,0.0
9371,85.0,0.0,120.0,7.0,0.0
9372,73.0,0.0,120.0,7.0,0.0
9373,75.0,0.0,60.0,4.0,0.0
9374,82.0,0.0,60.0,1.0,0.0
9375,75.0,0.0,120.0,8.0,0.0
9376,82.0,0.0,120.0,8.0,0.0
9377,58.0,0.0,60.0,3.0,0.0
9378,61.0,0.0,60.0,3.0,0.0
9379,51.0,0.0,120.0,11.0,0.0
9380,63.0,0.0,120.0,10.0,0.0
9381,61.0,0.0,60.0,5.0,0.0
9382,70.0,60.0,15.0,2.0,0.0
9383,73.0,0.0,15.0,2.0,0.0
9384,61.0,0.0,60.0,5.0,0.0
9385,85.0,0.0,15.0,1.0,0.0
9386,82.0,0.0,60.0,1.0,0.0
9387,61.0,0.0,60.0,3.0,0.0
9388,58.0,0.0,60.0,3.0,0.0
9389,97.0,0.0,15.0,0.0,0.0
9390,94.0,0.0,15.0,0.0,0.0
9391,75.0,0.0,60.0,4.0,0.0
9392,58.0,0.0,15.0,5.0,0.0
9393,80.0,0.0,120.0,8.0,0.0
9394,84.0,0.0,120.0,7.0,0.0
9395,72.0,0.0,60.0,2.0,0.0
9396,51.0,0.0,120.0,11.0,0.0
9397,75.0,0.0,120.0,8.0,0.0
9398,68.0,0.0,60.0,2.0,0.0
9399,75.0,120.0,120.0,7.0,0.0
9400,96.0,0.0,60.0,0.0,0.0
9401,56.0,0.0,60.0,3.0,0.0
9402,60.0,0.0,60.0,3.0,0.0
9403,63.0,0.0,120.0,10.0,0.0
9404,92.0,0.0,60.0,0.0,0.0
9405,92.0,0.0,60.0,0.0,0.0
9406,96.0,0.0,60.0,0.0,0.0
9407,75.0,60.0,15.0,4.0,0.0
9408,56.0,0.0,60.0,3.0,0.0
9409,68.0,0.0,60.0,2.0,0.0
9410,72.0,0.0,60.0,2.0,0.0
9411,84.0,0.0,15.0,1.0,0.0
9412,80.0,0.0,15.0,1.0,0.0
9413,60.0,0.0,60.0,3.0,0.0
9414,80.0,0.0,120.0,7.0,0.0
9415,96.0,0.0,60.0,0.0,0.0
9416,92.0,0.0,60.0,0.0,0.0
9417,72.0,0.0,60.0,2.0,0.0
9418,92.0,0.0,120.0,7.0,0.0
9419,63.0,0.0,120.0,10.0,0.0
9420,51.0,0.0,120.0,11.0,0.0
9421,75.0,0.0,120.0,8.0,0.0
9422,84.0,0.0,120.0,8.0,0.0
9423,56.0,0.0,60.0,3.0,0.0
9424,60.0,0.0,60.0,3.0,0.0
9425,68.0,0.0,15.0,2.0,0.0
9426,84.0,0.0,15.0,1.0,0.0
9427,80.0,0.0,15.0,1.0,0.0
9428,72.0,0.0,60.0,2.0,0.0
9429,96.0,0.0,60.0,0.0,0.0
9430,92.0,0.0,60.0,0.0,0.0
9431,56.0,0.0,60.0,3.0,0.0
9432,60.0,0.0,60.0,3.0,0.0
9433,75.0,60.0,15.0,4.0,0.0
9434,65.0,0.0,300.0,8.0,0.0
9435,53.0,0.0,300.0,10.0,0.0
9436,65.0,0.0,300.0,7.0,0.0
9437,53.0,60.0,300.0,11.0,0.0
9438,52.0,0.0,60.0,11.0,0.0
9439,52.0,300.0,60.0,10.0,0.0
9440,64.0,0.0,60.0,7.0,0.0
9441,64.0,0.0,60.0,8.0,0.0
9442,51.0,0.0,300.0,11.0,0.0
9443,63.0,0.0,300.0,8.0,0.0
9444,63.0,0.0,300.0,3.0,0.0
9445,63.0,0.0,300.0,7.0,0.0
9446,75.0,0.0,300.0,2.0,0.0
9447,63.0,30.0,300.0,10.0,0.0
9448,87.0,0.0,300.0,1.0,0.0
9449,58.0,0.0,60.0,3.0,0.0
9450,65.0,0.0,30.0,7.0,0.0
9451,65.0,30.0,30.0,10.0,0.0
9452,65.0,0.0,30.0,8.0,0.0
9453,53.0,0.0,30.0,11.0,0.0
9454,82.0,0.0,60.0,1.0,0.0
9455,70.0,0.0,60.0,2.0,0.0
9456,67.0,120.0,30.0,8.0,0.0
9457,55.0,0.0,30.0,11.0,0.0
9458,67.0,0.0,30.0,7.0,0.0
9459,67.0,0.0,30.0,10.0,0.0
9460,68.0,60.0,120.0,7.0,0.0
9461,56.0,0.0,120.0,11.0,0.0
9462,56.0,60.0,780.0,4.0,0.0
9463,68.0,0.0,780.0,4.0,0.0
9464,68.0,0.0,120.0,10.0,0.0
9465,68.0,0.0,120.0,8.0,0.0
9466,80.0,0.0,180.0,1.0,0.0
9467,68.0,90.0,15.0,2.0,0.0
9468,72.0,30.0,90.0,2.0,0.0
9469,80.0,0.0,90.0,1.0,0.0
9470,84.0,0.0,90.0,1.0,0.0
9471,60.0,0.0,90.0,3.0,0.0
9472,56.0,0.0,15.0,3.0,0.0
9473,51.0,0.0,30.0,3.0,0.0
9474,75.0,0.0,30.0,1.0,0.0
9475,80.0,0.0,30.0,1.0,0.0
9476,68.0,0.0,15.0,2.0,0.0
9477,63.0,60.0,15.0,2.0,0.0
9478,56.0,0.0,15.0,3.0,0.0
9479,80.0,0.0,60.0,1.0,0.0
9480,75.0,0.0,60.0,1.0,0.0
9481,51.0,0.0,60.0,3.0,0.0
9482,68.0,0.0,60.0,2.0,0.0
9483,73.0,0.0,90.0,2.0,0.0
9484,61.0,30.0,90.0,3.0,0.0
9485,70.0,0.0,90.0,2.0,0.0
9486,85.0,0.0,90.0,1.0,0.0
9487,82.0,0.0,15.0,1.0,0.0
9488,51.0,0.0,30.0,3.0,0.0
9489,58.0,0.0,15.0,3.0,0.0
9490,63.0,0.0,30.0,2.0,0.0
9491,70.0,0.0,30.0,2.0,0.0
9492,51.0,0.0,60.0,3.0,0.0
9493,58.0,0.0,60.0,3.0,0.0
9494,82.0,0.0,60.0,1.0,0.0
9495,75.0,60.0,15.0,1.0,0.0
9496,70.0,0.0,60.0,2.0,0.0
9497,63.0,240.0,60.0,2.0,0.0
9498,84.0,60.0,360.0,1.0,0.0
9499,87.0,0.0,360.0,1.0,0.0
9500,72.0,0.0,360.0,2.0,0.0
9501,60.0,0.0,360.0,3.0,0.0
9502,68.0,0.0,180.0,8.0,0.0
9503,56.0,0.0,180.0,11.0,0.0
9504,56.0,0.0,180.0,10.0,0.0
9505,68.0,0.0,180.0,7.0,0.0
9506,75.0,60.0,60.0,4.0,0.0
9507,75.0,0.0,60.0,4.0,0.0
9508,75.0,0.0,15.0,2.0,0.0
9509,60.0,60.0,180.0,10.0,0.0
9510,72.0,0.0,180.0,7.0,0.0
9511,60.0,0.0,180.0,11.0,0.0
9512,72.0,0.0,180.0,8.0,0.0
9513,63.0,0.0,15.0,3.0,0.0
9514,80.0,0.0,90.0,2.0,0.0
9515,68.0,0.0,90.0,3.0,0.0
9516,92.0,30.0,90.0,0.0,0.0
9517,75.0,30.0,60.0,4.0,0.0
9518,87.0,0.0,90.0,1.0,0.0
9519,75.0,0.0,15.0,2.0,0.0
9520,84.0,0.0,30.0,1.0,0.0
9521,87.0,0.0,30.0,0.0,0.0
9522,63.0,0.0,15.0,3.0,0.0
9523,72.0,0.0,15.0,2.0,0.0
9524,84.0,0.0,60.0,1.0,0.0
9525,75.0,0.0,60.0,2.0,0.0
9526,75.0,60.0,15.0,4.0,0.0
9527,63.0,0.0,15.0,3.0,0.0
9528,60.0,0.0,15.0,3.0,0.0
9529,75.0,0.0,180.0,7.0,0.0
9530,63.0,0.0,15.0,3.0,0.0
9531,60.0,0.0,15.0,3.0,0.0
9532,87.0,0.0,15.0,0.0,0.0
9533,84.0,0.0,90.0,1.0,0.0
9534,75.0,30.0,90.0,2.0,0.0
9535,75.0,0.0,15.0,4.0,0.0
9536,75.0,0.0,180.0,8.0,0.0
9537,63.0,0.0,180.0,11.0,0.0
9538,75.0,0.0,60.0,4.0,0.0
9539,80.0,0.0,30.0,1.0,0.0
9540,72.0,0.0,15.0,2.0,0.0
9541,68.0,0.0,30.0,2.0,0.0
9542,84.0,0.0,15.0,0.0,0.0
9543,60.0,0.0,15.0,3.0,0.0
9544,68.0,0.0,60.0,2.0,0.0
9545,72.0,0.0,60.0,2.0,0.0
9546,75.0,0.0,60.0,4.0,0.0
9547,80.0,0.0,60.0,1.0,0.0
9548,56.0,60.0,15.0,3.0,0.0
9549,63.0,0.0,180.0,8.0,0.0
9550,84.0,0.0,60.0,0.0,0.0
9551,51.0,0.0,180.0,11.0,0.0
9552,60.0,60.0,15.0,3.0,0.0
9553,63.0,0.0,15.0,10.0,0.0
9554,63.0,0.0,180.0,7.0,0.0
9555,68.0,0.0,60.0,2.0,0.0
9556,72.0,0.0,60.0,2.0,0.0
9557,80.0,0.0,60.0,1.0,0.0
9558,56.0,0.0,60.0,3.0,0.0
9559,75.0,0.0,15.0,4.0,0.0
9560,85.0,0.0,60.0,0.0,0.0
9561,82.0,0.0,60.0,1.0,0.0
9562,61.0,0.0,60.0,3.0,0.0
9563,58.0,0.0,60.0,3.0,0.0
9564,73.0,0.0,60.0,2.0,0.0
9565,67.0,0.0,60.0,2.0,0.0
9566,70.0,0.0,15.0,2.0,0.0
9567,55.0,60.0,60.0,3.0,0.0
9568,82.0,0.0,60.0,0.0,0.0
9569,58.0,0.0,60.0,3.0,0.0
9570,75.0,0.0,60.0,4.0,0.0
9571,79.0,0.0,60.0,1.0,0.0
9572,80.0,0.0,60.0,1.0,0.0
9573,80.0,0.0,180.0,7.0,0.0
9574,75.0,0.0,120.0,7.0,0.0
9575,56.0,0.0,120.0,6.0,0.0
9576,68.0,0.0,120.0,5.0,0.0
9577,56.0,0.0,180.0,11.0,0.0
9578,68.0,0.0,60.0,2.0,0.0
9579,56.0,0.0,180.0,10.0,0.0
9580,68.0,60.0,60.0,3.0,0.0
9581,75.0,0.0,120.0,8.0,0.0
9582,56.0,0.0,60.0,3.0,0.0
9583,68.0,0.0,120.0,8.0,0.0
9584,68.0,0.0,15.0,4.0,0.0
9585,56.0,0.0,15.0,4.0,0.0
9586,92.0,60.0,60.0,0.0,0.0
9587,80.0,0.0,15.0,0.0,0.0
9588,56.0,0.0,60.0,3.0,0.0
9589,68.0,0.0,60.0,3.0,0.0
9590,56.0,60.0,60.0,4.0,0.0
9591,80.0,0.0,15.0,1.0,0.0
9592,68.0,0.0,15.0,2.0,0.0
9593,80.0,0.0,15.0,2.0,0.0
9594,68.0,0.0,60.0,4.0,0.0
9595,68.0,0.0,120.0,5.0,0.0
9596,92.0,0.0,15.0,0.0,0.0
9597,68.0,0.0,90.0,10.0,0.0
9598,68.0,0.0,15.0,3.0,0.0
9599,56.0,0.0,15.0,3.0,0.0
9600,72.0,30.0,90.0,8.0,0.0
9601,80.0,0.0,15.0,0.0,0.0
9602,80.0,0.0,60.0,2.0,0.0
9603,68.0,0.0,60.0,2.0,0.0
9604,84.0,0.0,90.0,7.0,0.0
9605,56.0,0.0,120.0,6.0,0.0
9606,56.0,30.0,60.0,4.0,0.0
9607,68.0,0.0,60.0,4.0,0.0
9608,80.0,0.0,15.0,1.0,0.0
9609,68.0,0.0,60.0,3.0,0.0
9610,80.0,0.0,15.0,0.0,0.0
9611,92.0,0.0,15.0,0.0,0.0
9612,68.0,0.0,60.0,4.0,0.0
9613,56.0,0.0,15.0,11.0,0.0
9614,80.0,0.0,15.0,7.0,0.0
9615,68.0,60.0,15.0,8.0,0.0
9616,68.0,0.0,15.0,2.0,0.0
9617,80.0,0.0,15.0,2.0,0.0
9618,92.0,0.0,15.0,0.0,0.0
9619,80.0,0.0,15.0,0.0,0.0
9620,63.0,0.0,15.0,10.0,0.0
9621,56.0,0.0,15.0,3.0,0.0
9622,56.0,0.0,15.0,11.0,0.0
9623,56.0,0.0,15.0,4.0,0.0
9624,56.0,0.0,15.0,11.0,0.0
9625,80.0,0.0,15.0,1.0,0.0
9626,68.0,0.0,120.0,5.0,0.0
9627,56.0,0.0,15.0,3.0,0.0
9628,68.0,0.0,15.0,3.0,0.0
9629,68.0,0.0,15.0,2.0,0.0
9630,70.0,30.0,90.0,10.0,0.0
9631,56.0,0.0,120.0,6.0,0.0
9632,73.0,0.0,90.0,8.0,0.0
9633,68.0,0.0,15.0,4.0,0.0
9634,56.0,0.0,60.0,4.0,0.0
9635,85.0,0.0,90.0,7.0,0.0
9636,92.0,0.0,60.0,0.0,0.0
9637,80.0,0.0,60.0,0.0,0.0
9638,80.0,0.0,15.0,1.0,0.0
9639,56.0,0.0,15.0,3.0,0.0
9640,68.0,0.0,60.0,3.0,0.0
9641,68.0,0.0,15.0,2.0,0.0
9642,80.0,30.0,15.0,2.0,0.0
9643,92.0,0.0,60.0,0.0,0.0
9644,80.0,0.0,60.0,0.0,0.0
9645,70.0,0.0,30.0,8.0,0.0
9646,63.0,0.0,30.0,10.0,0.0
9647,56.0,0.0,15.0,11.0,0.0
9648,92.0,0.0,60.0,0.0,0.0
9649,70.0,0.0,60.0,8.0,0.0
9650,56.0,0.0,15.0,4.0,0.0
9651,68.0,0.0,15.0,4.0,0.0
9652,68.0,0.0,60.0,2.0,0.0
9653,68.0,0.0,60.0,3.0,0.0
9654,80.0,0.0,60.0,0.0,0.0
9655,82.0,0.0,15.0,7.0,0.0
9656,56.0,0.0,60.0,3.0,0.0
9657,63.0,0.0,60.0,10.0,0.0
9658,80.0,0.0,60.0,2.0,0.0
9659,80.0,60.0,15.0,1.0,0.0
9660,56.0,0.0,120.0,6.0,0.0
9661,95.0,0.0,60.0,0.0,0.0
9662,83.0,0.0,60.0,2.0,0.0
9663,75.0,30.0,60.0,4.0,0.0
9664,68.0,0.0,120.0,5.0,0.0
9665,71.0,0.0,90.0,10.0,0.0
9666,59.0,0.0,60.0,3.0,0.0
9667,71.0,0.0,60.0,3.0,0.0
9668,56.0,60.0,15.0,11.0,0.0
9669,83.0,0.0,60.0,0.0,0.0
9670,71.0,0.0,15.0,2.0,0.0
9671,83.0,0.0,15.0,1.0,0.0
9672,71.0,0.0,60.0,3.0,0.0
9673,59.0,0.0,60.0,3.0,0.0
9674,95.0,0.0,60.0,0.0,0.0
9675,87.0,0.0,15.0,7.0,0.0
9676,75.0,30.0,15.0,8.0,0.0
9677,56.0,0.0,15.0,11.0,0.0
9678,83.0,0.0,15.0,0.0,0.0
9679,87.0,0.0,60.0,7.0,0.0
9680,57.0,0.0,60.0,10.0,0.0
9681,59.0,0.0,15.0,10.0,0.0
9682,71.0,0.0,60.0,3.0,0.0
9683,59.0,0.0,60.0,3.0,0.0
9684,75.0,0.0,15.0,4.0,0.0
9685,95.0,90.0,60.0,0.0,0.0
9686,83.0,60.0,15.0,1.0,0.0
9687,71.0,0.0,15.0,2.0,0.0
9688,83.0,0.0,15.0,2.0,0.0
9689,54.0,0.0,60.0,11.0,0.0
9690,75.0,0.0,60.0,8.0,0.0
9691,52.0,0.0,120.0,3.0,0.0
9692,88.0,0.0,120.0,1.0,0.0
9693,56.0,0.0,120.0,4.0,0.0
9694,64.0,0.0,120.0,3.0,0.0
9695,68.0,0.0,120.0,4.0,0.0
9696,68.0,0.0,120.0,5.0,0.0
9697,56.0,0.0,120.0,6.0,0.0
9698,76.0,0.0,120.0,2.0,0.0
9699,56.0,0.0,90.0,10.0,0.0
9700,59.0,30.0,90.0,10.0,0.0
9701,76.0,0.0,90.0,8.0,0.0
9702,88.0,60.0,120.0,0.0,0.0
9703,52.0,0.0,90.0,11.0,0.0
9704,76.0,0.0,120.0,1.0,0.0
9705,76.0,0.0,30.0,10.0,0.0
9706,76.0,0.0,30.0,8.0,0.0
9707,64.0,0.0,30.0,11.0,0.0
9708,88.0,0.0,15.0,7.0,0.0
9709,59.0,0.0,60.0,11.0,0.0
9710,71.0,0.0,60.0,10.0,0.0
9711,71.0,90.0,60.0,8.0,0.0
9712,83.0,0.0,60.0,7.0,0.0
9713,68.0,30.0,90.0,10.0,0.0
9714,80.0,0.0,90.0,7.0,0.0
9715,56.0,0.0,90.0,11.0,0.0
9716,68.0,0.0,90.0,8.0,0.0
9717,56.0,0.0,30.0,11.0,0.0
9718,68.0,60.0,30.0,8.0,0.0
9719,80.0,0.0,30.0,7.0,0.0
9720,68.0,0.0,30.0,10.0,0.0
9721,64.0,90.0,60.0,10.0,0.0
9722,76.0,0.0,60.0,7.0,0.0
9723,52.0,0.0,60.0,11.0,0.0
9724,64.0,0.0,60.0,8.0,0.0
9725,71.0,0.0,90.0,7.0,0.0
9726,47.0,0.0,90.0,11.0,0.0
9727,59.0,0.0,90.0,8.0,0.0
9728,71.0,0.0,30.0,8.0,0.0
9729,47.0,0.0,30.0,11.0,0.0
9730,59.0,30.0,15.0,10.0,0.0
9731,71.0,60.0,30.0,7.0,0.0
9732,56.0,0.0,60.0,10.0,0.0
9733,68.0,0.0,60.0,8.0,0.0
9734,44.0,0.0,60.0,11.0,0.0
9735,68.0,90.0,60.0,7.0,0.0
9736,64.0,0.0,90.0,8.0,0.0
9737,64.0,0.0,90.0,7.0,0.0
9738,40.0,0.0,90.0,11.0,0.0
9739,64.0,0.0,30.0,7.0,0.0
9740,52.0,60.0,30.0,11.0,0.0
9741,64.0,0.0,30.0,8.0,0.0
9742,52.0,30.0,15.0,10.0,0.0
9743,59.0,120.0,60.0,7.0,0.0
9744,59.0,0.0,60.0,10.0,0.0
9745,59.0,0.0,60.0,8.0,0.0
9746,47.0,0.0,60.0,11.0,0.0
9747,52.0,0.0,120.0,11.0,0.0
9748,64.0,0.0,120.0,8.0,0.0
9749,64.0,180.0,120.0,7.0,0.0
9750,52.0,0.0,120.0,10.0,0.0
9751,59.0,0.0,30.0,8.0,0.0
9752,47.0,0.0,30.0,11.0,0.0
9753,59.0,120.0,60.0,8.0,0.0
9754,59.0,0.0,15.0,7.0,0.0
9755,47.0,0.0,60.0,11.0,0.0
9756,59.0,60.0,15.0,10.0,0.0
9757,64.0,0.0,120.0,7.0,0.0
9758,52.0,0.0,120.0,10.0,0.0
9759,52.0,180.0,120.0,11.0,0.0
9760,64.0,0.0,120.0,8.0,0.0
9761,59.0,0.0,30.0,10.0,0.0
9762,47.0,0.0,30.0,11.0,0.0
9763,59.0,0.0,15.0,3.0,0.0
9764,59.0,0.0,15.0,7.0,0.0
9765,59.0,0.0,15.0,8.0,0.0
9766,47.0,0.0,60.0,11.0,0.0
9767,59.0,0.0,60.0,10.0,0.0
9768,71.0,60.0,15.0,1.0,0.0
9769,76.0,0.0,120.0,1.0,0.0
9770,64.0,360.0,120.0,8.0,0.0
9771,52.0,0.0,120.0,11.0,0.0
9772,52.0,0.0,120.0,10.0,0.0
9773,64.0,0.0,120.0,7.0,0.0
9774,64.0,0.0,120.0,3.0,0.0
9775,64.0,0.0,120.0,3.0,0.0
9776,52.0,0.0,120.0,10.0,0.0
9777,52.0,0.0,120.0,11.0,0.0
9778,64.0,0.0,120.0,7.0,0.0
9779,76.0,270.0,120.0,1.0,0.0
9780,64.0,0.0,120.0,8.0,0.0
9781,85.0,0.0,270.0,7.0,0.0
9782,73.0,0.0,30.0,8.0,0.0
9783,64.0,0.0,30.0,8.0,0.0
9784,70.0,30.0,15.0,10.0,0.0
9785,67.0,0.0,15.0,10.0,0.0
9786,73.0,0.0,30.0,8.0,0.0
9787,67.0,0.0,15.0,10.0,0.0
9788,70.0,0.0,15.0,10.0,0.0
9789,73.0,0.0,30.0,8.0,0.0
9790,64.0,30.0,15.0,8.0,0.0
9791,67.0,0.0,15.0,10.0,0.0
9792,64.0,0.0,15.0,8.0,0.0
9793,73.0,0.0,30.0,8.0,0.0
9794,70.0,30.0,15.0,10.0,0.0
9795,70.0,0.0,15.0,10.0,0.0
9796,67.0,0.0,15.0,10.0,0.0
9797,43.0,0.0,30.0,11.0,0.0
9798,73.0,0.0,30.0,8.0,0.0
9799,64.0,0.0,15.0,8.0,0.0
9800,44.0,0.0,30.0,11.0,0.0
9801,67.0,30.0,15.0,10.0,0.0
9802,70.0,0.0,30.0,10.0,0.0
9803,46.0,0.0,120.0,11.0,0.0
9804,73.0,0.0,15.0,8.0,0.0
9805,64.0,30.0,15.0,8.0,0.0
9806,67.0,30.0,30.0,10.0,0.0
9807,70.0,0.0,15.0,10.0,0.0
9808,67.0,0.0,30.0,10.0,0.0
9809,73.0,0.0,15.0,8.0,0.0
9810,64.0,30.0,15.0,8.0,0.0
9811,67.0,0.0,30.0,10.0,0.0
9812,70.0,0.0,30.0,10.0,0.0
9813,83.0,30.0,30.0,7.0,0.0
9814,67.0,0.0,30.0,10.0,0.0
9815,64.0,0.0,30.0,8.0,0.0
9816,73.0,0.0,30.0,8.0,0.0
9817,82.0,0.0,60.0,7.0,0.0
9818,70.0,0.0,15.0,10.0,0.0
9819,64.0,0.0,30.0,8.0,0.0
9820,73.0,0.0,30.0,8.0,0.0
9821,67.0,30.0,30.0,10.0,0.0
9822,70.0,0.0,30.0,10.0,0.0
9823,67.0,30.0,30.0,10.0,0.0
9824,73.0,0.0,15.0,8.0,0.0
9825,64.0,0.0,15.0,8.0,0.0
9826,85.0,0.0,270.0,7.0,0.0
9827,70.0,0.0,30.0,10.0,0.0
9828,67.0,0.0,30.0,10.0,0.0
9829,70.0,0.0,30.0,10.0,0.0
9830,64.0,0.0,30.0,8.0,0.0
9831,67.0,0.0,15.0,10.0,0.0
9832,64.0,0.0,30.0,8.0,0.0
9833,73.0,30.0,15.0,8.0,0.0
9834,70.0,30.0,15.0,10.0,0.0
9835,67.0,0.0,15.0,10.0,0.0
9836,64.0,0.0,30.0,8.0,0.0
9837,67.0,0.0,30.0,10.0,0.0
9838,73.0,30.0,15.0,8.0,0.0
9839,70.0,0.0,30.0,10.0,0.0
9840,82.0,0.0,30.0,1.0,0.0
9841,83.0,0.0,30.0,1.0,0.0
9842,67.0,0.0,30.0,10.0,0.0
9843,73.0,30.0,15.0,8.0,0.0
9844,64.0,0.0,15.0,8.0,0.0
9845,70.0,0.0,30.0,10.0,0.0
9846,85.0,30.0,60.0,1.0,0.0
9847,73.0,30.0,15.0,8.0,0.0
9848,64.0,0.0,15.0,8.0,0.0
9849,73.0,0.0,15.0,8.0,0.0
9850,70.0,0.0,15.0,10.0,0.0
9851,67.0,30.0,15.0,10.0,0.0
9852,73.0,0.0,15.0,8.0,0.0
9853,64.0,0.0,15.0,8.0,0.0
9854,67.0,0.0,30.0,10.0,0.0
9855,83.0,0.0,30.0,7.0,0.0
9856,70.0,30.0,15.0,10.0,0.0
9857,73.0,0.0,30.0,8.0,0.0
9858,67.0,30.0,30.0,10.0,0.0
9859,64.0,0.0,15.0,8.0,0.0
9860,82.0,0.0,60.0,7.0,0.0
9861,70.0,0.0,15.0,10.0,0.0
9862,67.0,0.0,15.0,10.0,0.0
9863,73.0,0.0,15.0,8.0,0.0
9864,64.0,30.0,15.0,8.0,0.0
9865,85.0,0.0,270.0,7.0,0.0
9866,70.0,0.0,15.0,10.0,0.0
9867,67.0,0.0,15.0,10.0,0.0
9868,73.0,30.0,15.0,8.0,0.0
9869,64.0,0.0,15.0,8.0,0.0
9870,73.0,0.0,15.0,8.0,0.0
9871,64.0,30.0,30.0,8.0,0.0
9872,70.0,0.0,15.0,10.0,0.0
9873,67.0,0.0,15.0,10.0,0.0
9874,67.0,0.0,15.0,10.0,0.0
9875,70.0,0.0,15.0,10.0,0.0
9876,73.0,0.0,15.0,8.0,0.0
9877,64.0,30.0,15.0,8.0,0.0
9878,70.0,0.0,15.0,10.0,0.0
9879,43.0,0.0,30.0,11.0,0.0
9880,67.0,0.0,15.0,10.0,0.0
9881,64.0,30.0,15.0,8.0,0.0
9882,64.0,0.0,15.0,8.0,0.0
9883,73.0,30.0,15.0,8.0,0.0
9884,44.0,30.0,30.0,11.0,0.0
9885,70.0,0.0,15.0,10.0,0.0
9886,67.0,0.0,15.0,10.0,0.0
9887,70.0,0.0,15.0,10.0,0.0
9888,64.0,0.0,30.0,8.0,0.0
9889,73.0,0.0,30.0,8.0,0.0
9890,46.0,0.0,120.0,11.0,0.0
9891,70.0,30.0,15.0,10.0,0.0
9892,67.0,0.0,15.0,10.0,0.0
9893,64.0,0.0,30.0,8.0,0.0
9894,73.0,0.0,30.0,8.0,0.0
9895,67.0,0.0,30.0,10.0,0.0
9896,64.0,0.0,30.0,8.0,0.0
9897,70.0,0.0,15.0,10.0,0.0
9898,83.0,30.0,30.0,7.0,0.0
9899,67.0,0.0,30.0,10.0,0.0
9900,64.0,0.0,30.0,8.0,0.0
9901,73.0,30.0,15.0,8.0,0.0
9902,70.0,0.0,30.0,10.0,0.0
9903,82.0,0.0,60.0,7.0,0.0
9904,67.0,30.0,15.0,10.0,0.0
9905,73.0,0.0,15.0,8.0,0.0
9906,64.0,0.0,15.0,8.0,0.0
9907,70.0,0.0,30.0,10.0,0.0
9908,85.0,0.0,270.0,7.0,0.0
9909,73.0,30.0,30.0,8.0,0.0
9910,70.0,0.0,15.0,10.0,0.0
9911,67.0,0.0,15.0,10.0,0.0
9912,64.0,0.0,15.0,8.0,0.0
9913,73.0,0.0,30.0,8.0,0.0
9914,67.0,0.0,30.0,10.0,0.0
9915,70.0,30.0,30.0,10.0,0.0
9916,73.0,0.0,30.0,8.0,0.0
9917,64.0,0.0,15.0,8.0,0.0
9918,67.0,0.0,30.0,10.0,0.0
9919,70.0,0.0,30.0,10.0,0.0
9920,73.0,0.0,15.0,8.0,0.0
9921,82.0,0.0,30.0,1.0,0.0
9922,64.0,0.0,30.0,8.0,0.0
9923,67.0,30.0,30.0,10.0,0.0
9924,83.0,0.0,30.0,1.0,0.0
9925,73.0,0.0,15.0,8.0,0.0
9926,70.0,0.0,15.0,10.0,0.0
9927,70.0,0.0,15.0,10.0,0.0
9928,67.0,0.0,15.0,10.0,0.0
9929,73.0,0.0,15.0,8.0,0.0
9930,64.0,30.0,15.0,8.0,0.0
9931,85.0,0.0,60.0,1.0,0.0
9932,64.0,0.0,30.0,8.0,0.0
9933,73.0,0.0,30.0,8.0,0.0
9934,67.0,0.0,30.0,10.0,0.0
9935,73.0,0.0,30.0,8.0,0.0
9936,70.0,30.0,15.0,10.0,0.0
9937,83.0,0.0,30.0,7.0,0.0
9938,70.0,30.0,15.0,10.0,0.0
9939,67.0,0.0,15.0,10.0,0.0
9940,64.0,0.0,15.0,8.0,0.0
9941,73.0,0.0,15.0,8.0,0.0
9942,82.0,0.0,60.0,7.0,0.0
9943,64.0,0.0,15.0,8.0,0.0
9944,67.0,0.0,30.0,10.0,0.0
9945,70.0,0.0,30.0,10.0,0.0
9946,73.0,30.0,15.0,8.0,0.0
9947,70.0,0.0,30.0,10.0,0.0
9948,64.0,0.0,30.0,8.0,0.0
9949,63.0,0.0,30.0,8.0,0.0
9950,73.0,30.0,15.0,8.0,0.0
9951,67.0,0.0,15.0,10.0,0.0
9952,70.0,0.0,30.0,10.0,0.0
9953,85.0,30.0,270.0,7.0,0.0
9954,61.0,0.0,30.0,10.0,0.0
9955,63.0,30.0,30.0,8.0,0.0
9956,61.0,30.0,30.0,10.0,0.0
9957,63.0,0.0,15.0,8.0,0.0
9958,61.0,30.0,30.0,10.0,0.0
9959,43.0,30.0,30.0,11.0,0.0
9960,63.0,0.0,15.0,8.0,0.0
9961,82.0,0.0,30.0,1.0,0.0
9962,58.0,0.0,30.0,10.0,0.0
9963,60.0,0.0,30.0,10.0,0.0
9964,44.0,0.0,30.0,11.0,0.0
9965,84.0,0.0,30.0,1.0,0.0
9966,63.0,30.0,15.0,8.0,0.0
9967,46.0,0.0,60.0,11.0,0.0
9968,85.0,0.0,120.0,1.0,0.0
9969,61.0,30.0,30.0,10.0,0.0
9970,61.0,30.0,30.0,10.0,0.0
9971,73.0,0.0,15.0,8.0,0.0
9972,61.0,0.0,30.0,10.0,0.0
9973,73.0,0.0,30.0,8.0,0.0
9974,84.0,30.0,30.0,7.0,0.0
9975,61.0,0.0,15.0,10.0,0.0
9976,82.0,0.0,60.0,7.0,0.0
9977,72.0,0.0,30.0,8.0,0.0
9978,44.0,30.0,30.0,11.0,0.0
9979,61.0,0.0,15.0,10.0,0.0
9980,73.0,0.0,30.0,8.0,0.0
9981,46.0,0.0,30.0,11.0,0.0
9982,75.0,0.0,30.0,8.0,0.0
9983,61.0,30.0,15.0,10.0,0.0
9984,48.0,0.0,60.0,11.0,0.0
9985,87.0,0.0,270.0,7.0,0.0
9986,60.0,30.0,30.0,10.0,0.0
9987,63.0,0.0,30.0,8.0,0.0
9988,63.0,30.0,15.0,8.0,0.0
9989,60.0,0.0,15.0,10.0,0.0
9990,60.0,30.0,15.0,10.0,0.0
9991,63.0,0.0,30.0,8.0,0.0
9992,72.0,0.0,30.0,2.0,0.0
9993,44.0,0.0,30.0,11.0,0.0
9994,63.0,0.0,30.0,8.0,0.0
9995,46.0,0.0,30.0,11.0,0.0
9996,73.0,30.0,30.0,2.0,0.0
9997,61.0,0.0,30.0,10.0,0.0
9998,63.0,0.0,30.0,10.0,0.0
9999,48.0,0.0,60.0,11.0,0.0
10000,75.0,0.0,120.0,2.0,0.0
10001,63.0,30.0,30.0,8.0,0.0
10002,75.0,30.0,15.0,8.0,0.0
10003,63.0,0.0,15.0,10.0,0.0
10004,75.0,30.0,15.0,8.0,0.0
10005,85.0,30.0,30.0,7.0,0.0
10006,46.0,0.0,30.0,11.0,0.0
10007,63.0,0.0,15.0,10.0,0.0
10008,73.0,30.0,30.0,8.0,0.0
10009,84.0,0.0,60.0,7.0,0.0
10010,63.0,0.0,15.0,10.0,0.0
10011,75.0,0.0,30.0,8.0,0.0
10012,48.0,30.0,30.0,11.0,0.0
10013,89.0,30.0,270.0,7.0,0.0
10014,63.0,30.0,30.0,10.0,0.0
10015,77.0,0.0,30.0,8.0,0.0
10016,49.0,0.0,60.0,11.0,0.0
10017,65.0,0.0,30.0,8.0,0.0
10018,61.0,30.0,15.0,10.0,0.0
10019,65.0,30.0,30.0,8.0,0.0
10020,65.0,0.0,30.0,8.0,0.0
10021,61.0,30.0,30.0,10.0,0.0
10022,65.0,30.0,30.0,8.0,0.0
10023,46.0,0.0,30.0,11.0,0.0
10024,61.0,0.0,30.0,10.0,0.0
10025,61.0,0.0,30.0,3.0,0.0
10026,63.0,0.0,30.0,3.0,0.0
10027,63.0,0.0,30.0,10.0,0.0
10028,48.0,30.0,30.0,11.0,0.0
10029,65.0,0.0,30.0,8.0,0.0
10030,65.0,0.0,30.0,8.0,0.0
10031,49.0,0.0,60.0,11.0,0.0
10032,65.0,30.0,30.0,10.0,0.0
10033,65.0,0.0,120.0,3.0,0.0
10034,77.0,0.0,30.0,8.0,0.0
10035,65.0,30.0,30.0,10.0,0.0
10036,77.0,0.0,30.0,8.0,0.0
10037,65.0,0.0,30.0,10.0,0.0
10038,65.0,0.0,30.0,10.0,0.0
10039,87.0,0.0,30.0,7.0,0.0
10040,77.0,30.0,30.0,8.0,0.0
10041,48.0,0.0,30.0,11.0,0.0
10042,85.0,0.0,60.0,7.0,0.0
10043,75.0,30.0,30.0,8.0,0.0
10044,65.0,0.0,30.0,10.0,0.0
10045,77.0,0.0,30.0,8.0,0.0
10046,49.0,0.0,30.0,11.0,0.0
10047,51.0,0.0,60.0,11.0,0.0
10048,91.0,0.0,270.0,7.0,0.0
10049,65.0,30.0,15.0,10.0,0.0
10050,79.0,0.0,30.0,8.0,0.0
10051,63.0,30.0,15.0,10.0,0.0
10052,67.0,0.0,15.0,8.0,0.0
10053,63.0,30.0,15.0,10.0,0.0
10054,67.0,30.0,15.0,8.0,0.0
10055,75.0,0.0,30.0,1.0,0.0
10056,48.0,0.0,30.0,11.0,0.0
10057,63.0,0.0,30.0,10.0,0.0
10058,65.0,30.0,30.0,10.0,0.0
10059,77.0,0.0,30.0,1.0,0.0
10060,49.0,0.0,30.0,11.0,0.0
10061,79.0,0.0,120.0,1.0,0.0
10062,51.0,0.0,60.0,11.0,0.0
10063,67.0,0.0,15.0,8.0,0.0
10064,67.0,30.0,15.0,10.0,0.0
10065,79.0,0.0,30.0,8.0,0.0
10066,67.0,30.0,15.0,10.0,0.0
10067,89.0,0.0,30.0,7.0,0.0
10068,79.0,30.0,15.0,8.0,0.0
10069,67.0,0.0,30.0,10.0,0.0
10070,49.0,30.0,30.0,11.0,0.0
10071,87.0,0.0,60.0,7.0,0.0
10072,77.0,0.0,30.0,8.0,0.0
10073,51.0,30.0,30.0,11.0,0.0
10074,79.0,0.0,30.0,8.0,0.0
10075,67.0,0.0,15.0,10.0,0.0
10076,92.0,0.0,270.0,7.0,0.0
10077,53.0,0.0,60.0,11.0,0.0
10078,67.0,30.0,30.0,10.0,0.0
10079,80.0,0.0,30.0,8.0,0.0
10080,68.0,0.0,30.0,8.0,0.0
10081,65.0,30.0,15.0,10.0,0.0
10082,65.0,0.0,15.0,10.0,0.0
10083,68.0,30.0,15.0,8.0,0.0
10084,68.0,0.0,15.0,8.0,0.0
10085,89.0,0.0,30.0,0.0,0.0
10086,49.0,30.0,30.0,11.0,0.0
10087,65.0,0.0,30.0,10.0,0.0
10088,67.0,0.0,30.0,10.0,0.0
10089,91.0,30.0,30.0,0.0,0.0
10090,51.0,0.0,30.0,11.0,0.0
10091,68.0,0.0,30.0,8.0,0.0
10092,68.0,0.0,30.0,10.0,0.0
10093,53.0,30.0,60.0,11.0,0.0
10094,92.0,30.0,120.0,0.0,0.0
10095,68.0,30.0,30.0,8.0,0.0
10096,80.0,0.0,30.0,8.0,0.0
10097,68.0,0.0,30.0,10.0,0.0
10098,80.0,30.0,30.0,8.0,0.0
10099,68.0,0.0,15.0,10.0,0.0
10100,91.0,0.0,30.0,7.0,0.0
10101,80.0,0.0,30.0,8.0,0.0
10102,51.0,0.0,30.0,11.0,0.0
10103,68.0,30.0,30.0,10.0,0.0
10104,79.0,0.0,30.0,8.0,0.0
10105,89.0,30.0,60.0,7.0,0.0
10106,80.0,0.0,30.0,8.0,0.0
10107,53.0,0.0,30.0,11.0,0.0
10108,68.0,0.0,15.0,10.0,0.0
10109,82.0,30.0,30.0,8.0,0.0
10110,94.0,0.0,270.0,7.0,0.0
10111,55.0,0.0,60.0,11.0,0.0
10112,67.0,0.0,30.0,10.0,0.0
10113,70.0,30.0,15.0,8.0,0.0
10114,67.0,0.0,30.0,10.0,0.0
10115,67.0,0.0,30.0,10.0,0.0
10116,70.0,30.0,15.0,8.0,0.0
10117,67.0,0.0,30.0,10.0,0.0
10118,67.0,0.0,30.0,3.0,0.0
10119,91.0,0.0,30.0,0.0,0.0
10120,51.0,30.0,30.0,11.0,0.0
10121,79.0,0.0,30.0,1.0,0.0
10122,70.0,30.0,15.0,8.0,0.0
10123,92.0,0.0,30.0,0.0,0.0
10124,70.0,0.0,15.0,8.0,0.0
10125,68.0,30.0,30.0,3.0,0.0
10126,53.0,0.0,30.0,11.0,0.0
10127,68.0,0.0,30.0,10.0,0.0
10128,80.0,0.0,30.0,1.0,0.0
10129,55.0,0.0,60.0,11.0,0.0
10130,94.0,0.0,60.0,0.0,0.0
10131,70.0,0.0,15.0,8.0,0.0
10132,82.0,0.0,60.0,1.0,0.0
10133,70.0,30.0,30.0,10.0,0.0
10134,70.0,0.0,60.0,3.0,0.0
10135,82.0,0.0,15.0,8.0,0.0
10136,70.0,30.0,15.0,10.0,0.0
10137,92.0,0.0,30.0,7.0,0.0
10138,82.0,0.0,30.0,8.0,0.0
10139,80.0,0.0,30.0,8.0,0.0
10140,91.0,30.0,60.0,7.0,0.0
10141,53.0,0.0,30.0,11.0,0.0
10142,92.0,30.0,30.0,0.0,0.0
10143,70.0,30.0,15.0,10.0,0.0
10144,80.0,0.0,30.0,1.0,0.0
10145,68.0,0.0,30.0,3.0,0.0
10146,65.0,0.0,30.0,3.0,0.0
10147,67.0,0.0,30.0,3.0,0.0
10148,55.0,0.0,30.0,11.0,0.0
10149,82.0,0.0,30.0,8.0,0.0
10150,70.0,0.0,30.0,3.0,0.0
10151,94.0,0.0,30.0,0.0,0.0
10152,70.0,0.0,30.0,10.0,0.0
10153,82.0,0.0,30.0,1.0,0.0
10154,92.0,0.0,540.0,0.0,0.0
10155,96.0,0.0,540.0,0.0,0.0
10156,72.0,0.0,540.0,2.0,0.0
10157,80.0,0.0,540.0,2.0,0.0
10158,68.0,0.0,120.0,5.0,0.0
10159,84.0,0.0,30.0,8.0,0.0
10160,56.0,0.0,90.0,11.0,0.0
10161,72.0,0.0,540.0,3.0,0.0
10162,56.0,0.0,120.0,6.0,0.0
10163,72.0,0.0,15.0,10.0,0.0
10164,75.0,0.0,30.0,10.0,0.0
10165,96.0,30.0,15.0,7.0,0.0
10166,80.0,0.0,15.0,8.0,0.0
10167,92.0,0.0,15.0,8.0,0.0
10168,75.0,0.0,30.0,10.0,0.0
10169,96.0,30.0,30.0,7.0,0.0
10170,72.0,0.0,15.0,10.0,0.0
10171,68.0,0.0,30.0,11.0,0.0
10172,92.0,0.0,30.0,8.0,0.0
10173,96.0,0.0,15.0,7.0,0.0
10174,92.0,0.0,30.0,8.0,0.0
10175,80.0,30.0,15.0,8.0,0.0
10176,63.0,30.0,60.0,11.0,0.0
10177,72.0,0.0,15.0,10.0,0.0
10178,75.0,0.0,15.0,10.0,0.0
10179,75.0,0.0,15.0,10.0,0.0
10180,96.0,0.0,30.0,7.0,0.0
10181,72.0,0.0,30.0,10.0,0.0
10182,80.0,30.0,15.0,8.0,0.0
10183,92.0,0.0,15.0,8.0,0.0
10184,96.0,0.0,30.0,7.0,0.0
10185,72.0,0.0,30.0,10.0,0.0
10186,75.0,0.0,30.0,10.0,0.0
10187,60.0,30.0,90.0,11.0,0.0
10188,92.0,0.0,30.0,8.0,0.0
10189,80.0,30.0,15.0,8.0,0.0
10190,96.0,30.0,30.0,7.0,0.0
10191,80.0,0.0,15.0,8.0,0.0
10192,72.0,0.0,15.0,10.0,0.0
10193,75.0,0.0,15.0,10.0,0.0
10194,96.0,0.0,30.0,7.0,0.0
10195,92.0,0.0,15.0,8.0,0.0
10196,72.0,0.0,15.0,10.0,0.0
10197,60.0,0.0,30.0,11.0,0.0
10198,75.0,0.0,30.0,10.0,0.0
10199,96.0,0.0,15.0,7.0,0.0
10200,56.0,0.0,60.0,11.0,0.0
10201,80.0,30.0,15.0,8.0,0.0
10202,92.0,0.0,15.0,8.0,0.0
10203,72.0,0.0,30.0,10.0,0.0
10204,75.0,0.0,30.0,10.0,0.0
10205,92.0,0.0,15.0,8.0,0.0
10206,80.0,0.0,15.0,8.0,0.0
10207,96.0,30.0,15.0,7.0,0.0
10208,75.0,0.0,15.0,10.0,0.0
10209,72.0,0.0,15.0,10.0,0.0
10210,80.0,0.0,15.0,8.0,0.0
10211,92.0,0.0,30.0,8.0,0.0
10212,96.0,0.0,30.0,7.0,0.0
10213,75.0,30.0,15.0,10.0,0.0
10214,80.0,0.0,30.0,8.0,0.0
10215,72.0,0.0,30.0,10.0,0.0
10216,80.0,30.0,30.0,8.0,0.0
10217,92.0,30.0,15.0,8.0,0.0
10218,96.0,0.0,15.0,7.0,0.0
10219,75.0,0.0,30.0,10.0,0.0
10220,92.0,0.0,15.0,8.0,0.0
10221,72.0,0.0,15.0,10.0,0.0
10222,51.0,0.0,15.0,11.0,0.0
10223,80.0,0.0,30.0,8.0,0.0
10224,96.0,0.0,15.0,7.0,0.0
10225,75.0,0.0,15.0,10.0,0.0
10226,92.0,30.0,15.0,8.0,0.0
10227,48.0,0.0,60.0,11.0,0.0
10228,96.0,0.0,15.0,7.0,0.0
10229,92.0,0.0,15.0,8.0,0.0
10230,80.0,30.0,15.0,8.0,0.0
10231,72.0,0.0,15.0,10.0,0.0
10232,75.0,0.0,15.0,10.0,0.0
10233,68.0,0.0,15.0,3.0,0.0
10234,56.0,0.0,90.0,6.0,0.0
10235,92.0,0.0,15.0,8.0,0.0
10236,80.0,0.0,15.0,8.0,0.0
10237,72.0,0.0,90.0,3.0,0.0
10238,96.0,0.0,15.0,7.0,0.0
10239,80.0,0.0,90.0,2.0,0.0
10240,68.0,0.0,15.0,4.0,0.0
10241,56.0,0.0,15.0,4.0,0.0
10242,72.0,0.0,15.0,10.0,0.0
10243,92.0,0.0,90.0,0.0,0.0
10244,96.0,0.0,90.0,0.0,0.0
10245,75.0,30.0,15.0,10.0,0.0
10246,84.0,0.0,15.0,1.0,0.0
10247,80.0,0.0,15.0,1.0,0.0
10248,44.0,0.0,120.0,11.0,0.0
10249,75.0,0.0,15.0,10.0,0.0
10250,72.0,0.0,15.0,10.0,0.0
10251,80.0,30.0,15.0,8.0,0.0
10252,96.0,0.0,15.0,7.0,0.0
10253,80.0,0.0,15.0,8.0,0.0
10254,92.0,30.0,15.0,8.0,0.0
10255,80.0,0.0,15.0,8.0,0.0
10256,92.0,0.0,15.0,8.0,0.0
10257,84.0,0.0,15.0,1.0,0.0
10258,80.0,0.0,30.0,1.0,0.0
10259,92.0,0.0,30.0,0.0,0.0
10260,68.0,0.0,15.0,4.0,0.0
10261,56.0,0.0,15.0,4.0,0.0
10262,68.0,0.0,15.0,5.0,0.0
10263,75.0,0.0,15.0,10.0,0.0
10264,72.0,30.0,15.0,10.0,0.0
10265,72.0,0.0,15.0,2.0,0.0
10266,80.0,0.0,30.0,2.0,0.0
10267,75.0,0.0,15.0,10.0,0.0
10268,92.0,0.0,60.0,0.0,0.0
10269,96.0,0.0,15.0,0.0,0.0
10270,56.0,0.0,15.0,4.0,0.0
10271,92.0,0.0,15.0,8.0,0.0
10272,80.0,0.0,15.0,8.0,0.0
10273,80.0,0.0,60.0,1.0,0.0
10274,84.0,0.0,60.0,1.0,0.0
10275,72.0,0.0,15.0,3.0,0.0
10276,68.0,0.0,15.0,3.0,0.0
10277,72.0,0.0,15.0,2.0,0.0
10278,96.0,30.0,15.0,7.0,0.0
10279,68.0,0.0,60.0,5.0,0.0
10280,56.0,0.0,15.0,6.0,0.0
10281,68.0,0.0,60.0,4.0,0.0
10282,80.0,0.0,60.0,2.0,0.0
10283,96.0,30.0,15.0,7.0,0.0
10284,75.0,0.0,15.0,10.0,0.0
10285,72.0,0.0,15.0,10.0,0.0
10286,56.0,0.0,15.0,4.0,0.0
10287,70.0,0.0,540.0,3.0,0.0
10288,92.0,0.0,15.0,8.0,0.0
10289,80.0,0.0,15.0,8.0,0.0
10290,68.0,0.0,540.0,3.0,0.0
10291,68.0,0.0,540.0,4.0,0.0
10292,49.0,0.0,120.0,6.0,0.0
10293,49.0,30.0,120.0,5.0,0.0
10294,73.0,0.0,90.0,11.0,0.0
10295,80.0,0.0,540.0,2.0,0.0
10296,70.0,0.0,540.0,2.0,0.0
10297,96.0,0.0,30.0,7.0,0.0
10298,61.0,0.0,120.0,5.0,0.0
10299,80.0,0.0,15.0,8.0,0.0
10300,92.0,0.0,15.0,8.0,0.0
10301,72.0,0.0,15.0,10.0,0.0
10302,75.0,30.0,15.0,10.0,0.0
10303,96.0,0.0,15.0,7.0,0.0
10304,80.0,0.0,30.0,8.0,0.0
10305,75.0,0.0,15.0,10.0,0.0
10306,92.0,30.0,15.0,8.0,0.0
10307,92.0,0.0,30.0,8.0,0.0
10308,75.0,0.0,15.0,10.0,0.0
10309,72.0,0.0,15.0,10.0,0.0
10310,73.0,0.0,30.0,11.0,0.0
10311,96.0,0.0,30.0,7.0,0.0
10312,70.0,0.0,60.0,11.0,0.0
10313,80.0,0.0,15.0,8.0,0.0
10314,72.0,0.0,15.0,10.0,0.0
10315,75.0,0.0,15.0,10.0,0.0
10316,92.0,0.0,30.0,8.0,0.0
10317,96.0,0.0,30.0,7.0,0.0
10318,75.0,0.0,15.0,10.0,0.0
10319,72.0,0.0,15.0,10.0,0.0
10320,80.0,0.0,30.0,8.0,0.0
10321,92.0,0.0,30.0,8.0,0.0
10322,75.0,0.0,15.0,10.0,0.0
10323,72.0,0.0,15.0,10.0,0.0
10324,96.0,30.0,15.0,7.0,0.0
10325,75.0,0.0,15.0,10.0,0.0
10326,92.0,0.0,15.0,8.0,0.0
10327,72.0,0.0,15.0,10.0,0.0
10328,80.0,0.0,15.0,8.0,0.0
10329,96.0,30.0,15.0,7.0,0.0
10330,80.0,0.0,15.0,8.0,0.0
10331,96.0,0.0,30.0,7.0,0.0
10332,72.0,0.0,30.0,10.0,0.0
10333,75.0,0.0,30.0,10.0,0.0
10334,92.0,0.0,30.0,8.0,0.0
10335,96.0,30.0,30.0,7.0,0.0
10336,72.0,0.0,30.0,10.0,0.0
10337,80.0,30.0,15.0,8.0,0.0
10338,75.0,0.0,30.0,10.0,0.0
10339,65.0,0.0,15.0,11.0,0.0
10340,61.0,0.0,60.0,11.0,0.0
10341,92.0,0.0,15.0,8.0,0.0
10342,80.0,0.0,15.0,8.0,0.0
10343,96.0,0.0,30.0,7.0,0.0
10344,80.0,0.0,30.0,8.0,0.0
10345,75.0,30.0,15.0,10.0,0.0
10346,72.0,0.0,15.0,10.0,0.0
10347,92.0,0.0,30.0,8.0,0.0
10348,96.0,0.0,30.0,7.0,0.0
10349,75.0,0.0,30.0,10.0,0.0
10350,72.0,30.0,15.0,10.0,0.0
10351,72.0,30.0,15.0,10.0,0.0
10352,75.0,0.0,30.0,10.0,0.0
10353,80.0,0.0,15.0,8.0,0.0
10354,96.0,0.0,15.0,7.0,0.0
10355,92.0,0.0,15.0,8.0,0.0
10356,72.0,0.0,30.0,10.0,0.0
10357,96.0,0.0,30.0,7.0,0.0
10358,75.0,0.0,15.0,10.0,0.0
10359,58.0,0.0,15.0,11.0,0.0
10360,92.0,0.0,15.0,8.0,0.0
10361,80.0,30.0,15.0,8.0,0.0
10362,92.0,0.0,15.0,8.0,0.0
10363,80.0,0.0,15.0,8.0,0.0
10364,96.0,0.0,15.0,7.0,0.0
10365,75.0,0.0,30.0,10.0,0.0
10366,72.0,30.0,15.0,10.0,0.0
10367,53.0,0.0,60.0,11.0,0.0
10368,96.0,30.0,15.0,7.0,0.0
10369,80.0,0.0,30.0,8.0,0.0
10370,92.0,0.0,30.0,8.0,0.0
10371,80.0,0.0,15.0,1.0,0.0
10372,82.0,0.0,15.0,1.0,0.0
10373,96.0,0.0,15.0,7.0,0.0
10374,94.0,0.0,15.0,0.0,0.0
10375,75.0,0.0,15.0,10.0,0.0
10376,72.0,0.0,15.0,10.0,0.0
10377,68.0,0.0,90.0,3.0,0.0
10378,68.0,0.0,90.0,4.0,0.0
10379,49.0,0.0,90.0,5.0,0.0
10380,92.0,30.0,15.0,0.0,0.0
10381,61.0,0.0,90.0,5.0,0.0
10382,49.0,0.0,120.0,11.0,0.0
10383,92.0,0.0,30.0,8.0,0.0
10384,80.0,0.0,30.0,8.0,0.0
10385,96.0,0.0,15.0,7.0,0.0
10386,72.0,30.0,15.0,10.0,0.0
10387,75.0,0.0,30.0,10.0,0.0
10388,96.0,0.0,15.0,7.0,0.0
10389,92.0,0.0,15.0,8.0,0.0
10390,80.0,0.0,15.0,8.0,0.0
10391,72.0,0.0,30.0,10.0,0.0
10392,75.0,0.0,30.0,10.0,0.0
10393,70.0,0.0,15.0,3.0,0.0
10394,49.0,0.0,30.0,5.0,0.0
10395,61.0,0.0,30.0,5.0,0.0
10396,49.0,0.0,15.0,6.0,0.0
10397,56.0,0.0,15.0,4.0,0.0
10398,68.0,0.0,30.0,3.0,0.0
10399,80.0,0.0,15.0,8.0,0.0
10400,96.0,30.0,15.0,7.0,0.0
10401,80.0,0.0,15.0,1.0,0.0
10402,92.0,0.0,15.0,0.0,0.0
10403,94.0,0.0,15.0,0.0,0.0
10404,80.0,0.0,15.0,2.0,0.0
10405,70.0,0.0,15.0,2.0,0.0
10406,72.0,0.0,30.0,10.0,0.0
10407,92.0,0.0,30.0,8.0,0.0
10408,82.0,0.0,15.0,1.0,0.0
10409,82.0,0.0,15.0,1.0,0.0
10410,80.0,0.0,60.0,2.0,0.0
10411,70.0,0.0,15.0,2.0,0.0
10412,49.0,30.0,60.0,5.0,0.0
10413,61.0,0.0,60.0,5.0,0.0
10414,80.0,30.0,15.0,1.0,0.0
10415,92.0,0.0,15.0,0.0,0.0
10416,68.0,0.0,60.0,3.0,0.0
10417,70.0,0.0,60.0,3.0,0.0
10418,49.0,0.0,15.0,6.0,0.0
10419,68.0,0.0,15.0,4.0,0.0
10420,56.0,0.0,15.0,4.0,0.0
10421,92.0,0.0,30.0,8.0,0.0
10422,75.0,0.0,15.0,10.0,0.0
10423,94.0,0.0,60.0,0.0,0.0
10424,75.0,0.0,30.0,10.0,0.0
10425,72.0,0.0,15.0,10.0,0.0
10426,80.0,0.0,15.0,8.0,0.0
10427,96.0,30.0,15.0,7.0,0.0
10428,92.0,0.0,30.0,8.0,0.0
10429,93.0,0.0,180.0,0.0,0.0
10430,52.0,0.0,30.0,10.0,0.0
10431,81.0,0.0,180.0,1.0,0.0
10432,69.0,0.0,180.0,3.0,0.0
10433,69.0,30.0,30.0,7.0,0.0
10434,49.0,0.0,15.0,11.0,0.0
10435,69.0,0.0,30.0,7.0,0.0
10436,49.0,30.0,30.0,11.0,0.0
10437,52.0,30.0,15.0,10.0,0.0
10438,69.0,0.0,15.0,7.0,0.0
10439,52.0,0.0,15.0,10.0,0.0
10440,49.0,0.0,30.0,11.0,0.0
10441,69.0,30.0,15.0,7.0,0.0
10442,69.0,30.0,15.0,7.0,0.0
10443,49.0,0.0,15.0,11.0,0.0
10444,52.0,0.0,15.0,10.0,0.0
10445,88.0,0.0,180.0,0.0,0.0
10446,76.0,0.0,180.0,1.0,0.0
10447,52.0,0.0,15.0,10.0,0.0
10448,64.0,0.0,180.0,3.0,0.0
10449,69.0,0.0,30.0,7.0,0.0
10450,49.0,30.0,15.0,11.0,0.0
10451,64.0,30.0,15.0,8.0,0.0
10452,49.0,0.0,15.0,11.0,0.0
10453,52.0,0.0,15.0,10.0,0.0
10454,64.0,0.0,15.0,8.0,0.0
10455,69.0,30.0,15.0,7.0,0.0
10456,64.0,0.0,30.0,8.0,0.0
10457,69.0,30.0,30.0,7.0,0.0
10458,49.0,30.0,15.0,11.0,0.0
10459,52.0,0.0,15.0,10.0,0.0
10460,52.0,0.0,30.0,10.0,0.0
10461,64.0,30.0,30.0,8.0,0.0
10462,49.0,0.0,30.0,11.0,0.0
10463,69.0,0.0,15.0,7.0,0.0
10464,49.0,0.0,30.0,11.0,0.0
10465,64.0,30.0,30.0,8.0,0.0
10466,52.0,0.0,30.0,10.0,0.0
10467,67.0,0.0,30.0,7.0,0.0
10468,55.0,0.0,180.0,3.0,0.0
10469,67.0,0.0,180.0,1.0,0.0
10470,79.0,0.0,180.0,0.0,0.0
10471,63.0,30.0,30.0,8.0,0.0
10472,58.0,0.0,15.0,10.0,0.0
10473,51.0,0.0,15.0,11.0,0.0
10474,87.0,0.0,15.0,7.0,0.0
10475,51.0,0.0,15.0,11.0,0.0
10476,67.0,0.0,15.0,8.0,0.0
10477,58.0,0.0,30.0,10.0,0.0
10478,75.0,0.0,30.0,8.0,0.0
10479,51.0,0.0,15.0,11.0,0.0
10480,87.0,0.0,15.0,7.0,0.0
10481,63.0,30.0,15.0,10.0,0.0
10482,63.0,0.0,30.0,10.0,0.0
10483,75.0,30.0,15.0,8.0,0.0
10484,51.0,0.0,30.0,11.0,0.0
10485,63.0,30.0,60.0,3.0,0.0
10486,87.0,0.0,60.0,0.0,0.0
10487,75.0,0.0,60.0,1.0,0.0
10488,87.0,0.0,15.0,7.0,0.0
10489,75.0,30.0,15.0,8.0,0.0
10490,63.0,0.0,15.0,10.0,0.0
10491,87.0,0.0,15.0,7.0,0.0
10492,51.0,0.0,15.0,11.0,0.0
10493,75.0,30.0,15.0,8.0,0.0
10494,63.0,0.0,30.0,10.0,0.0
10495,89.0,0.0,30.0,7.0,0.0
10496,77.0,0.0,30.0,1.0,0.0
10497,51.0,30.0,30.0,11.0,0.0
10498,89.0,0.0,30.0,0.0,0.0
10499,75.0,0.0,30.0,8.0,0.0
10500,65.0,0.0,30.0,3.0,0.0
10501,91.0,0.0,30.0,7.0,0.0
10502,61.0,0.0,30.0,10.0,0.0
10503,67.0,0.0,30.0,3.0,0.0
10504,49.0,0.0,30.0,11.0,0.0
10505,91.0,30.0,30.0,0.0,0.0
10506,75.0,0.0,30.0,8.0,0.0
10507,79.0,0.0,30.0,1.0,0.0
10508,80.0,0.0,30.0,1.0,0.0
10509,92.0,0.0,30.0,7.0,0.0
10510,48.0,0.0,30.0,11.0,0.0
10511,68.0,30.0,30.0,3.0,0.0
10512,60.0,0.0,30.0,10.0,0.0
10513,77.0,0.0,30.0,8.0,0.0
10514,92.0,0.0,30.0,0.0,0.0
10515,58.0,30.0,30.0,10.0,0.0
10516,79.0,0.0,30.0,8.0,0.0
10517,82.0,0.0,30.0,1.0,0.0
10518,94.0,0.0,30.0,0.0,0.0
10519,94.0,0.0,30.0,7.0,0.0
10520,46.0,0.0,30.0,11.0,0.0
10521,70.0,0.0,30.0,3.0,0.0
10522,80.0,30.0,30.0,8.0,0.0
10523,68.0,0.0,120.0,5.0,0.0
10524,80.0,0.0,540.0,2.0,0.0
10525,44.0,30.0,90.0,11.0,0.0
10526,92.0,0.0,540.0,0.0,0.0
10527,56.0,0.0,90.0,11.0,0.0
10528,72.0,0.0,540.0,2.0,0.0
10529,56.0,0.0,30.0,10.0,0.0
10530,96.0,0.0,30.0,7.0,0.0
10531,56.0,0.0,120.0,6.0,0.0
10532,96.0,30.0,30.0,7.0,0.0
10533,72.0,0.0,30.0,10.0,0.0
10534,80.0,0.0,30.0,8.0,0.0
10535,92.0,0.0,30.0,8.0,0.0
10536,75.0,0.0,30.0,10.0,0.0
10537,92.0,0.0,30.0,8.0,0.0
10538,96.0,0.0,15.0,7.0,0.0
10539,72.0,0.0,15.0,10.0,0.0
10540,75.0,0.0,15.0,10.0,0.0
10541,80.0,0.0,15.0,8.0,0.0
10542,68.0,30.0,30.0,11.0,0.0
10543,96.0,0.0,15.0,7.0,0.0
10544,92.0,0.0,15.0,8.0,0.0
10545,80.0,0.0,15.0,8.0,0.0
10546,72.0,0.0,30.0,10.0,0.0
10547,63.0,0.0,60.0,11.0,0.0
10548,75.0,0.0,15.0,10.0,0.0
10549,96.0,0.0,15.0,7.0,0.0
10550,80.0,0.0,30.0,8.0,0.0
10551,72.0,0.0,30.0,10.0,0.0
10552,96.0,0.0,15.0,7.0,0.0
10553,92.0,30.0,15.0,8.0,0.0
10554,80.0,30.0,15.0,8.0,0.0
10555,75.0,0.0,15.0,10.0,0.0
10556,72.0,0.0,15.0,10.0,0.0
10557,92.0,0.0,30.0,8.0,0.0
10558,92.0,30.0,30.0,8.0,0.0
10559,80.0,0.0,30.0,8.0,0.0
10560,96.0,30.0,15.0,7.0,0.0
10561,72.0,0.0,30.0,10.0,0.0
10562,60.0,0.0,15.0,11.0,0.0
10563,96.0,0.0,15.0,7.0,0.0
10564,75.0,0.0,15.0,10.0,0.0
10565,92.0,0.0,30.0,8.0,0.0
10566,96.0,0.0,30.0,7.0,0.0
10567,75.0,0.0,15.0,10.0,0.0
10568,72.0,0.0,15.0,10.0,0.0
10569,56.0,30.0,60.0,11.0,0.0
10570,80.0,30.0,15.0,8.0,0.0
10571,80.0,0.0,15.0,8.0,0.0
10572,92.0,0.0,15.0,8.0,0.0
10573,72.0,30.0,15.0,10.0,0.0
10574,75.0,0.0,15.0,10.0,0.0
10575,72.0,0.0,15.0,10.0,0.0
10576,96.0,0.0,15.0,7.0,0.0
10577,80.0,0.0,30.0,8.0,0.0
10578,96.0,30.0,15.0,7.0,0.0
10579,72.0,0.0,15.0,10.0,0.0
10580,75.0,0.0,15.0,10.0,0.0
10581,92.0,0.0,15.0,8.0,0.0
10582,80.0,0.0,30.0,8.0,0.0
10583,96.0,0.0,15.0,7.0,0.0
10584,75.0,0.0,15.0,10.0,0.0
10585,80.0,0.0,30.0,8.0,0.0
10586,92.0,0.0,15.0,8.0,0.0
10587,51.0,0.0,15.0,11.0,0.0
10588,80.0,0.0,30.0,8.0,0.0
10589,72.0,0.0,15.0,10.0,0.0
10590,75.0,0.0,15.0,10.0,0.0
10591,92.0,30.0,30.0,8.0,0.0
10592,75.0,0.0,15.0,10.0,0.0
10593,96.0,0.0,15.0,7.0,0.0
10594,48.0,0.0,60.0,11.0,0.0
10595,96.0,0.0,30.0,7.0,0.0
10596,75.0,0.0,15.0,10.0,0.0
10597,80.0,0.0,15.0,8.0,0.0
10598,92.0,0.0,15.0,8.0,0.0
10599,72.0,30.0,15.0,10.0,0.0
10600,75.0,0.0,30.0,10.0,0.0
10601,84.0,0.0,15.0,1.0,0.0
10602,80.0,0.0,15.0,8.0,0.0
10603,72.0,0.0,15.0,10.0,0.0
10604,72.0,0.0,90.0,2.0,0.0
10605,92.0,0.0,15.0,8.0,0.0
10606,96.0,30.0,15.0,0.0,0.0
10607,56.0,0.0,90.0,6.0,0.0
10608,96.0,0.0,30.0,7.0,0.0
10609,68.0,0.0,15.0,4.0,0.0
10610,56.0,0.0,15.0,4.0,0.0
10611,72.0,0.0,15.0,3.0,0.0
10612,68.0,0.0,15.0,3.0,0.0
10613,44.0,0.0,120.0,11.0,0.0
10614,80.0,0.0,15.0,1.0,0.0
10615,68.0,0.0,90.0,5.0,0.0
10616,75.0,30.0,30.0,10.0,0.0
10617,96.0,0.0,30.0,7.0,0.0
10618,92.0,0.0,30.0,8.0,0.0
10619,80.0,0.0,30.0,8.0,0.0
10620,72.0,0.0,15.0,10.0,0.0
10621,96.0,0.0,30.0,7.0,0.0
10622,80.0,0.0,15.0,2.0,0.0
10623,72.0,0.0,15.0,3.0,0.0
10624,68.0,0.0,30.0,4.0,0.0
10625,80.0,0.0,15.0,8.0,0.0
10626,92.0,0.0,15.0,8.0,0.0
10627,56.0,30.0,30.0,6.0,0.0
10628,80.0,0.0,15.0,1.0,0.0
10629,96.0,0.0,15.0,0.0,0.0
10630,92.0,0.0,15.0,0.0,0.0
10631,72.0,0.0,15.0,10.0,0.0
10632,75.0,30.0,15.0,10.0,0.0
10633,56.0,0.0,30.0,4.0,0.0
10634,68.0,0.0,15.0,5.0,0.0
10635,68.0,0.0,15.0,3.0,0.0
10636,96.0,0.0,15.0,0.0,0.0
10637,72.0,0.0,15.0,3.0,0.0
10638,96.0,0.0,15.0,7.0,0.0
10639,56.0,0.0,60.0,4.0,0.0
10640,80.0,0.0,15.0,8.0,0.0
10641,92.0,0.0,15.0,8.0,0.0
10642,84.0,0.0,15.0,1.0,0.0
10643,72.0,0.0,15.0,2.0,0.0
10644,56.0,0.0,60.0,6.0,0.0
10645,80.0,0.0,60.0,2.0,0.0
10646,96.0,0.0,15.0,7.0,0.0
10647,75.0,0.0,15.0,10.0,0.0
10648,72.0,30.0,15.0,10.0,0.0
10649,80.0,0.0,15.0,1.0,0.0
10650,80.0,0.0,15.0,8.0,0.0
10651,49.0,30.0,120.0,5.0,0.0
10652,61.0,0.0,120.0,5.0,0.0
10653,92.0,0.0,15.0,8.0,0.0
10654,73.0,0.0,90.0,11.0,0.0
10655,96.0,0.0,15.0,7.0,0.0
10656,73.0,0.0,30.0,10.0,0.0
10657,77.0,0.0,30.0,10.0,0.0
10658,92.0,0.0,15.0,0.0,0.0
10659,70.0,0.0,540.0,3.0,0.0
10660,68.0,30.0,15.0,4.0,0.0
10661,49.0,0.0,120.0,6.0,0.0
10662,77.0,30.0,30.0,10.0,0.0
10663,73.0,0.0,30.0,10.0,0.0
10664,80.0,0.0,30.0,8.0,0.0
10665,92.0,0.0,15.0,8.0,0.0
10666,96.0,30.0,15.0,7.0,0.0
10667,92.0,0.0,15.0,8.0,0.0
10668,73.0,0.0,30.0,11.0,0.0
10669,73.0,0.0,15.0,10.0,0.0
10670,77.0,0.0,15.0,10.0,0.0
10671,92.0,0.0,15.0,8.0,0.0
10672,96.0,0.0,15.0,7.0,0.0
10673,80.0,30.0,15.0,8.0,0.0
10674,77.0,0.0,15.0,10.0,0.0
10675,70.0,0.0,60.0,11.0,0.0
10676,96.0,0.0,15.0,7.0,0.0
10677,92.0,0.0,30.0,8.0,0.0
10678,73.0,0.0,15.0,10.0,0.0
10679,77.0,0.0,15.0,10.0,0.0
10680,80.0,0.0,15.0,8.0,0.0
10681,96.0,30.0,15.0,7.0,0.0
10682,65.0,0.0,90.0,11.0,0.0
10683,80.0,0.0,30.0,8.0,0.0
10684,92.0,30.0,15.0,8.0,0.0
10685,73.0,0.0,15.0,10.0,0.0
10686,77.0,30.0,30.0,10.0,0.0
10687,96.0,0.0,15.0,7.0,0.0
10688,73.0,0.0,30.0,10.0,0.0
10689,80.0,0.0,15.0,8.0,0.0
10690,92.0,0.0,15.0,8.0,0.0
10691,96.0,0.0,15.0,7.0,0.0
10692,77.0,30.0,15.0,10.0,0.0
10693,80.0,0.0,15.0,8.0,0.0
10694,96.0,0.0,30.0,7.0,0.0
10695,92.0,0.0,15.0,8.0,0.0
10696,73.0,30.0,15.0,10.0,0.0
10697,77.0,0.0,15.0,10.0,0.0
10698,65.0,0.0,30.0,11.0,0.0
10699,61.0,30.0,60.0,11.0,0.0
10700,96.0,0.0,30.0,7.0,0.0
10701,73.0,0.0,15.0,10.0,0.0
10702,77.0,0.0,30.0,10.0,0.0
10703,80.0,0.0,30.0,8.0,0.0
10704,92.0,0.0,30.0,8.0,0.0
10705,73.0,30.0,15.0,10.0,0.0
10706,80.0,0.0,30.0,8.0,0.0
10707,92.0,0.0,30.0,8.0,0.0
10708,77.0,0.0,15.0,10.0,0.0
10709,96.0,0.0,15.0,7.0,0.0
10710,73.0,0.0,30.0,10.0,0.0
10711,92.0,0.0,30.0,8.0,0.0
10712,58.0,0.0,90.0,11.0,0.0
10713,80.0,0.0,30.0,8.0,0.0
10714,92.0,0.0,30.0,8.0,0.0
10715,80.0,0.0,30.0,8.0,0.0
10716,73.0,0.0,30.0,10.0,0.0
10717,96.0,0.0,15.0,7.0,0.0
10718,77.0,30.0,15.0,10.0,0.0
10719,73.0,0.0,30.0,10.0,0.0
10720,80.0,30.0,15.0,8.0,0.0
10721,92.0,0.0,15.0,8.0,0.0
10722,58.0,0.0,30.0,11.0,0.0
10723,53.0,30.0,60.0,11.0,0.0
10724,77.0,0.0,15.0,10.0,0.0
10725,73.0,0.0,15.0,10.0,0.0
10726,96.0,0.0,15.0,7.0,0.0
10727,80.0,0.0,15.0,8.0,0.0
10728,80.0,30.0,15.0,8.0,0.0
10729,92.0,0.0,15.0,8.0,0.0
10730,73.0,0.0,30.0,10.0,0.0
10731,77.0,0.0,30.0,10.0,0.0
10732,68.0,0.0,15.0,3.0,0.0
10733,82.0,0.0,15.0,1.0,0.0
10734,80.0,0.0,15.0,1.0,0.0
10735,49.0,0.0,120.0,11.0,0.0
10736,92.0,0.0,15.0,0.0,0.0
10737,94.0,0.0,15.0,0.0,0.0
10738,80.0,0.0,15.0,8.0,0.0
10739,92.0,0.0,15.0,8.0,0.0
10740,70.0,0.0,15.0,2.0,0.0
10741,80.0,0.0,15.0,2.0,0.0
10742,68.0,0.0,15.0,4.0,0.0
10743,56.0,0.0,15.0,4.0,0.0
10744,96.0,0.0,15.0,7.0,0.0
10745,70.0,0.0,90.0,3.0,0.0
10746,73.0,0.0,30.0,10.0,0.0
10747,77.0,0.0,30.0,10.0,0.0
10748,77.0,0.0,30.0,10.0,0.0
10749,96.0,0.0,15.0,7.0,0.0
10750,80.0,30.0,15.0,8.0,0.0
10751,92.0,0.0,15.0,8.0,0.0
10752,73.0,0.0,15.0,10.0,0.0
10753,96.0,0.0,15.0,7.0,0.0
10754,80.0,30.0,15.0,8.0,0.0
10755,92.0,0.0,30.0,8.0,0.0
10756,56.0,0.0,15.0,4.0,0.0
10757,80.0,0.0,15.0,1.0,0.0
10758,82.0,0.0,15.0,1.0,0.0
10759,68.0,30.0,30.0,3.0,0.0
10760,80.0,0.0,15.0,8.0,0.0
10761,49.0,0.0,15.0,6.0,0.0
10762,61.0,0.0,15.0,5.0,0.0
10763,49.0,0.0,15.0,5.0,0.0
10764,70.0,0.0,30.0,3.0,0.0
10765,77.0,0.0,15.0,10.0,0.0
10766,94.0,0.0,15.0,0.0,0.0
10767,92.0,0.0,15.0,0.0,0.0
10768,73.0,30.0,15.0,10.0,0.0
10769,70.0,0.0,15.0,2.0,0.0
10770,80.0,0.0,15.0,8.0,0.0
10771,92.0,0.0,15.0,8.0,0.0
10772,73.0,0.0,15.0,10.0,0.0
10773,82.0,0.0,15.0,1.0,0.0
10774,94.0,0.0,60.0,0.0,0.0
10775,77.0,0.0,15.0,10.0,0.0
10776,70.0,0.0,15.0,2.0,0.0
10777,80.0,0.0,15.0,2.0,0.0
10778,80.0,0.0,60.0,1.0,0.0
10779,92.0,0.0,60.0,0.0,0.0
10780,56.0,0.0,60.0,4.0,0.0
10781,68.0,0.0,15.0,4.0,0.0
10782,96.0,0.0,15.0,7.0,0.0
10783,68.0,0.0,60.0,3.0,0.0
10784,49.0,0.0,60.0,6.0,0.0
10785,70.0,0.0,60.0,3.0,0.0
10786,49.0,0.0,60.0,5.0,0.0
10787,61.0,0.0,60.0,5.0,0.0
10788,96.0,0.0,15.0,7.0,0.0
10789,73.0,0.0,15.0,10.0,0.0
10790,77.0,30.0,15.0,10.0,0.0
10791,92.0,0.0,30.0,8.0,0.0
10792,80.0,0.0,30.0,8.0,0.0
10793,81.0,0.0,180.0,8.0,0.0
10794,69.0,180.0,180.0,10.0,0.0
10795,93.0,0.0,180.0,7.0,0.0
10796,49.0,0.0,360.0,11.0,0.0
10797,88.0,0.0,180.0,7.0,0.0
10798,76.0,0.0,180.0,8.0,0.0
10799,93.0,0.0,180.0,0.0,0.0
10800,69.0,0.0,180.0,3.0,0.0
10801,81.0,180.0,180.0,1.0,0.0
10802,64.0,0.0,180.0,10.0,0.0
10803,67.0,0.0,240.0,8.0,0.0
10804,55.0,60.0,240.0,10.0,0.0
10805,79.0,60.0,180.0,7.0,0.0
10806,51.0,0.0,360.0,11.0,0.0
10807,67.0,0.0,300.0,3.0,0.0
10808,91.0,60.0,300.0,0.0,0.0
10809,79.0,0.0,300.0,1.0,0.0
10810,87.0,0.0,120.0,7.0,0.0
10811,75.0,0.0,60.0,8.0,0.0
10812,63.0,0.0,60.0,10.0,0.0
10813,63.0,0.0,60.0,10.0,0.0
10814,75.0,0.0,60.0,1.0,0.0
10815,87.0,0.0,60.0,0.0,0.0
10816,63.0,0.0,60.0,3.0,0.0
10817,75.0,0.0,15.0,8.0,0.0
10818,56.0,0.0,120.0,11.0,0.0
10819,87.0,0.0,270.0,1.0,0.0
10820,68.0,0.0,120.0,4.0,0.0
10821,56.0,0.0,120.0,4.0,0.0
10822,75.0,0.0,270.0,2.0,0.0
10823,56.0,0.0,120.0,6.0,0.0
10824,63.0,30.0,30.0,10.0,0.0
10825,87.0,30.0,270.0,0.0,0.0
10826,68.0,30.0,120.0,5.0,0.0
10827,63.0,0.0,270.0,3.0,0.0
10828,87.0,30.0,15.0,7.0,0.0
10829,56.0,30.0,30.0,10.0,0.0
10830,60.0,0.0,30.0,10.0,0.0
10831,63.0,0.0,15.0,8.0,0.0
10832,60.0,0.0,30.0,10.0,0.0
10833,56.0,30.0,30.0,10.0,0.0
10834,60.0,0.0,30.0,10.0,0.0
10835,56.0,0.0,15.0,10.0,0.0
10836,63.0,0.0,15.0,8.0,0.0
10837,63.0,0.0,15.0,8.0,0.0
10838,60.0,0.0,15.0,10.0,0.0
10839,56.0,30.0,30.0,10.0,0.0
10840,63.0,0.0,15.0,8.0,0.0
10841,56.0,0.0,120.0,4.0,0.0
10842,68.0,0.0,120.0,4.0,0.0
10843,56.0,0.0,30.0,10.0,0.0
10844,60.0,30.0,30.0,10.0,0.0
10845,60.0,0.0,120.0,11.0,0.0
10846,56.0,0.0,120.0,6.0,0.0
10847,63.0,0.0,15.0,8.0,0.0
10848,56.0,30.0,30.0,10.0,0.0
10849,60.0,0.0,30.0,10.0,0.0
10850,63.0,0.0,15.0,8.0,0.0
10851,56.0,0.0,30.0,10.0,0.0
10852,60.0,0.0,30.0,10.0,0.0
10853,85.0,0.0,30.0,1.0,0.0
10854,61.0,0.0,30.0,3.0,0.0
10855,85.0,0.0,30.0,7.0,0.0
10856,73.0,0.0,30.0,2.0,0.0
10857,63.0,0.0,30.0,8.0,0.0
10858,85.0,30.0,30.0,0.0,0.0
10859,97.0,0.0,30.0,0.0,0.0
10860,84.0,0.0,60.0,1.0,0.0
10861,84.0,0.0,60.0,0.0,0.0
10862,60.0,0.0,60.0,3.0,0.0
10863,84.0,15.0,60.0,7.0,0.0
10864,60.0,0.0,15.0,10.0,0.0
10865,56.0,0.0,15.0,10.0,0.0
10866,72.0,0.0,60.0,2.0,0.0
10867,63.0,30.0,15.0,8.0,0.0
10868,56.0,0.0,15.0,10.0,0.0
10869,60.0,0.0,30.0,10.0,0.0
10870,63.0,30.0,120.0,11.0,0.0
10871,58.0,30.0,30.0,10.0,0.0
10872,61.0,0.0,30.0,10.0,0.0
10873,75.0,0.0,120.0,4.0,0.0
10874,60.0,0.0,15.0,3.0,0.0
10875,63.0,0.0,15.0,8.0,0.0
10876,72.0,0.0,15.0,2.0,0.0
10877,96.0,0.0,15.0,0.0,0.0
10878,84.0,0.0,15.0,0.0,0.0
10879,84.0,0.0,15.0,1.0,0.0
10880,84.0,15.0,15.0,7.0,0.0
10881,97.0,0.0,240.0,0.0,0.0
10882,85.0,0.0,240.0,7.0,0.0
10883,85.0,0.0,240.0,1.0,0.0
10884,61.0,0.0,240.0,3.0,0.0
10885,63.0,0.0,15.0,8.0,0.0
10886,61.0,0.0,15.0,10.0,0.0
10887,58.0,30.0,15.0,10.0,0.0
10888,63.0,0.0,15.0,8.0,0.0
10889,61.0,0.0,15.0,10.0,0.0
10890,58.0,30.0,15.0,10.0,0.0
10891,63.0,0.0,15.0,8.0,0.0
10892,61.0,0.0,30.0,10.0,0.0
10893,58.0,0.0,30.0,10.0,0.0
10894,63.0,0.0,30.0,8.0,0.0
10895,58.0,30.0,30.0,10.0,0.0
10896,61.0,0.0,30.0,10.0,0.0
10897,61.0,30.0,30.0,10.0,0.0
10898,63.0,0.0,15.0,8.0,0.0
10899,58.0,0.0,15.0,10.0,0.0
10900,61.0,0.0,30.0,10.0,0.0
10901,58.0,0.0,30.0,10.0,0.0
10902,61.0,0.0,30.0,10.0,0.0
10903,63.0,0.0,30.0,8.0,0.0
10904,89.0,0.0,30.0,0.0,0.0
10905,77.0,0.0,30.0,7.0,0.0
10906,77.0,0.0,30.0,1.0,0.0
10907,73.0,0.0,30.0,1.0,0.0
10908,85.0,0.0,15.0,0.0,0.0
10909,58.0,0.0,30.0,3.0,0.0
10910,61.0,0.0,30.0,3.0,0.0
10911,63.0,0.0,30.0,11.0,0.0
10912,73.0,30.0,15.0,2.0,0.0
10913,65.0,30.0,30.0,2.0,0.0
10914,61.0,0.0,15.0,10.0,0.0
10915,58.0,0.0,15.0,10.0,0.0
10916,67.0,0.0,60.0,2.0,0.0
10917,63.0,0.0,15.0,8.0,0.0
10918,58.0,0.0,60.0,3.0,0.0
10919,63.0,30.0,60.0,11.0,0.0
10920,73.0,0.0,15.0,2.0,0.0
10921,79.0,0.0,60.0,1.0,0.0
10922,73.0,0.0,60.0,1.0,0.0
10923,87.0,0.0,60.0,0.0,0.0
10924,91.0,0.0,60.0,0.0,0.0
10925,79.0,0.0,60.0,7.0,0.0
10926,61.0,0.0,60.0,3.0,0.0
10927,61.0,0.0,15.0,10.0,0.0
10928,58.0,0.0,30.0,10.0,0.0
10929,63.0,30.0,15.0,8.0,0.0
10930,72.0,30.0,120.0,1.0,0.0
10931,56.0,0.0,120.0,3.0,0.0
10932,60.0,0.0,120.0,3.0,0.0
10933,63.0,30.0,30.0,8.0,0.0
10934,80.0,0.0,120.0,1.0,0.0
10935,75.0,0.0,120.0,4.0,0.0
10936,87.0,0.0,120.0,0.0,0.0
10937,80.0,0.0,120.0,7.0,0.0
10938,72.0,0.0,120.0,2.0,0.0
10939,68.0,0.0,120.0,2.0,0.0
10940,92.0,0.0,120.0,0.0,0.0
10941,63.0,0.0,270.0,11.0,0.0
10942,56.0,0.0,15.0,10.0,0.0
10943,60.0,0.0,15.0,10.0,0.0
10944,56.0,0.0,15.0,10.0,0.0
10945,60.0,0.0,30.0,10.0,0.0
10946,63.0,30.0,15.0,8.0,0.0
10947,63.0,30.0,15.0,8.0,0.0
10948,60.0,0.0,30.0,10.0,0.0
10949,56.0,0.0,30.0,10.0,0.0
10950,56.0,30.0,30.0,10.0,0.0
10951,60.0,0.0,30.0,10.0,0.0
10952,63.0,0.0,15.0,8.0,0.0
10953,63.0,0.0,15.0,8.0,0.0
10954,87.0,0.0,120.0,0.0,0.0
10955,75.0,0.0,120.0,7.0,0.0
10956,72.0,0.0,120.0,2.0,0.0
10957,60.0,0.0,120.0,3.0,0.0
10958,84.0,0.0,120.0,7.0,0.0
10959,60.0,30.0,15.0,10.0,0.0
10960,56.0,0.0,15.0,10.0,0.0
10961,72.0,0.0,120.0,1.0,0.0
10962,84.0,30.0,120.0,1.0,0.0
10963,96.0,0.0,120.0,0.0,0.0
10964,60.0,0.0,15.0,10.0,0.0
10965,56.0,0.0,15.0,10.0,0.0
10966,63.0,30.0,15.0,8.0,0.0
10967,61.0,0.0,30.0,11.0,0.0
10968,60.0,0.0,15.0,10.0,0.0
10969,63.0,0.0,30.0,8.0,0.0
10970,56.0,0.0,15.0,10.0,0.0
10971,60.0,0.0,15.0,10.0,0.0
10972,63.0,0.0,15.0,8.0,0.0
10973,60.0,0.0,15.0,10.0,0.0
10974,56.0,30.0,15.0,10.0,0.0
10975,63.0,30.0,120.0,3.0,0.0
10976,75.0,0.0,120.0,2.0,0.0
10977,87.0,0.0,120.0,0.0,0.0
10978,58.0,0.0,30.0,10.0,0.0
10979,87.0,0.0,120.0,7.0,0.0
10980,75.0,0.0,120.0,4.0,0.0
10981,75.0,0.0,120.0,7.0,0.0
10982,60.0,0.0,15.0,11.0,0.0
10983,87.0,0.0,120.0,1.0,0.0
10984,63.0,0.0,30.0,8.0,0.0
10985,75.0,0.0,120.0,1.0,0.0
10986,61.0,0.0,240.0,11.0,0.0
10987,61.0,30.0,15.0,10.0,0.0
10988,58.0,0.0,15.0,10.0,0.0
10989,63.0,30.0,15.0,8.0,0.0
10990,61.0,30.0,15.0,10.0,0.0
10991,63.0,0.0,15.0,8.0,0.0
10992,58.0,0.0,15.0,10.0,0.0
10993,61.0,0.0,15.0,10.0,0.0
10994,58.0,0.0,15.0,10.0,0.0
10995,63.0,0.0,30.0,8.0,0.0
10996,63.0,0.0,30.0,8.0,0.0
10997,61.0,30.0,15.0,10.0,0.0
10998,58.0,0.0,15.0,10.0,0.0
10999,63.0,0.0,30.0,8.0,0.0
11000,58.0,0.0,30.0,10.0,0.0
11001,61.0,30.0,15.0,10.0,0.0
11002,61.0,30.0,15.0,10.0,0.0
11003,63.0,0.0,15.0,8.0,0.0
11004,58.0,30.0,30.0,10.0,0.0
11005,63.0,0.0,15.0,8.0,0.0
11006,75.0,0.0,30.0,2.0,0.0
11007,53.0,0.0,30.0,11.0,0.0
11008,58.0,0.0,30.0,10.0,0.0
11009,61.0,0.0,30.0,10.0,0.0
11010,87.0,0.0,30.0,0.0,0.0
11011,63.0,0.0,15.0,3.0,0.0
11012,58.0,0.0,30.0,10.0,0.0
11013,87.0,0.0,15.0,7.0,0.0
11014,55.0,0.0,60.0,11.0,0.0
11015,61.0,0.0,30.0,10.0,0.0
11016,87.0,0.0,15.0,1.0,0.0
11017,75.0,0.0,15.0,1.0,0.0
11018,75.0,0.0,60.0,2.0,0.0
11019,87.0,0.0,60.0,0.0,0.0
11020,63.0,30.0,30.0,8.0,0.0
11021,61.0,0.0,30.0,10.0,0.0
11022,58.0,0.0,30.0,10.0,0.0
11023,63.0,30.0,30.0,8.0,0.0
11024,75.0,0.0,15.0,1.0,0.0
11025,75.0,0.0,120.0,2.0,0.0
11026,68.0,0.0,120.0,5.0,0.0
11027,68.0,0.0,120.0,4.0,0.0
11028,60.0,0.0,30.0,10.0,0.0
11029,56.0,0.0,30.0,10.0,0.0
11030,56.0,0.0,120.0,4.0,0.0
11031,87.0,30.0,120.0,0.0,0.0
11032,87.0,0.0,120.0,7.0,0.0
11033,87.0,0.0,120.0,1.0,0.0
11034,56.0,0.0,120.0,11.0,0.0
11035,63.0,0.0,120.0,3.0,0.0
11036,56.0,0.0,120.0,6.0,0.0
11037,63.0,30.0,15.0,8.0,0.0
11038,56.0,30.0,30.0,10.0,0.0
11039,60.0,0.0,30.0,10.0,0.0
11040,63.0,0.0,15.0,8.0,0.0
11041,63.0,0.0,15.0,8.0,0.0
11042,60.0,30.0,15.0,10.0,0.0
11043,56.0,0.0,15.0,10.0,0.0
11044,84.0,0.0,60.0,7.0,0.0
11045,63.0,0.0,15.0,8.0,0.0
11046,84.0,0.0,60.0,1.0,0.0
11047,60.0,0.0,60.0,3.0,0.0
11048,96.0,0.0,60.0,0.0,0.0
11049,56.0,0.0,30.0,10.0,0.0
11050,60.0,0.0,30.0,10.0,0.0
11051,56.0,0.0,30.0,10.0,0.0
11052,63.0,0.0,30.0,8.0,0.0
11053,60.0,0.0,30.0,10.0,0.0
11054,84.0,15.0,15.0,1.0,0.0
11055,84.0,0.0,15.0,0.0,0.0
11056,84.0,0.0,15.0,7.0,0.0
11057,96.0,0.0,15.0,0.0,0.0
11058,75.0,0.0,120.0,4.0,0.0
11059,72.0,15.0,15.0,2.0,0.0
11060,61.0,0.0,30.0,10.0,0.0
11061,60.0,0.0,15.0,3.0,0.0
11062,85.0,0.0,60.0,1.0,0.0
11063,97.0,0.0,60.0,0.0,0.0
11064,85.0,0.0,60.0,7.0,0.0
11065,73.0,0.0,60.0,2.0,0.0
11066,63.0,0.0,15.0,8.0,0.0
11067,58.0,30.0,15.0,10.0,0.0
11068,61.0,0.0,30.0,10.0,0.0
11069,77.0,0.0,30.0,7.0,0.0
11070,85.0,0.0,15.0,0.0,0.0
11071,73.0,0.0,30.0,2.0,0.0
11072,65.0,0.0,30.0,2.0,0.0
11073,89.0,0.0,30.0,0.0,0.0
11074,61.0,0.0,15.0,10.0,0.0
11075,58.0,0.0,15.0,10.0,0.0
11076,61.0,0.0,15.0,3.0,0.0
11077,63.0,30.0,15.0,8.0,0.0
11078,77.0,0.0,30.0,1.0,0.0
11079,85.0,0.0,30.0,1.0,0.0
11080,79.0,0.0,60.0,1.0,0.0
11081,67.0,0.0,60.0,2.0,0.0
11082,63.0,0.0,15.0,11.0,0.0
11083,61.0,0.0,15.0,3.0,0.0
11084,58.0,0.0,15.0,3.0,0.0
11085,73.0,0.0,60.0,2.0,0.0
11086,85.0,0.0,60.0,1.0,0.0
11087,79.0,0.0,60.0,7.0,0.0
11088,58.0,30.0,15.0,10.0,0.0
11089,91.0,0.0,60.0,0.0,0.0
11090,61.0,0.0,15.0,10.0,0.0
11091,58.0,0.0,15.0,10.0,0.0
11092,63.0,30.0,15.0,8.0,0.0
11093,80.0,30.0,120.0,7.0,0.0
11094,56.0,0.0,30.0,10.0,0.0
11095,75.0,0.0,120.0,4.0,0.0
11096,60.0,0.0,120.0,3.0,0.0
11097,84.0,0.0,120.0,1.0,0.0
11098,72.0,0.0,120.0,2.0,0.0
11099,68.0,0.0,120.0,2.0,0.0
11100,56.0,0.0,120.0,3.0,0.0
11101,63.0,0.0,15.0,11.0,0.0
11102,80.0,0.0,120.0,1.0,0.0
11103,87.0,30.0,15.0,0.0,0.0
11104,63.0,0.0,30.0,8.0,0.0
11105,96.0,0.0,120.0,0.0,0.0
11106,56.0,0.0,30.0,10.0,0.0
11107,60.0,30.0,15.0,10.0,0.0
11108,63.0,30.0,30.0,8.0,0.0
11109,56.0,30.0,30.0,10.0,0.0
11110,60.0,0.0,30.0,10.0,0.0
11111,63.0,0.0,30.0,8.0,0.0
11112,56.0,0.0,30.0,10.0,0.0
11113,63.0,0.0,30.0,8.0,0.0
11114,60.0,0.0,30.0,10.0,0.0
11115,60.0,0.0,30.0,10.0,0.0
11116,63.0,0.0,30.0,8.0,0.0
11117,60.0,0.0,30.0,10.0,0.0
11118,56.0,30.0,15.0,10.0,0.0
11119,60.0,0.0,15.0,11.0,0.0
11120,63.0,0.0,15.0,8.0,0.0
11121,58.0,0.0,30.0,10.0,0.0
11122,61.0,30.0,60.0,11.0,0.0
11123,63.0,30.0,15.0,8.0,0.0
11124,61.0,0.0,15.0,10.0,0.0
11125,58.0,0.0,15.0,10.0,0.0
11126,61.0,0.0,15.0,10.0,0.0
11127,58.0,30.0,30.0,10.0,0.0
11128,61.0,0.0,15.0,10.0,0.0
11129,63.0,0.0,15.0,8.0,0.0
11130,75.0,0.0,30.0,2.0,0.0
11131,53.0,0.0,30.0,11.0,0.0
11132,87.0,0.0,30.0,0.0,0.0
11133,87.0,0.0,15.0,1.0,0.0
11134,75.0,0.0,15.0,1.0,0.0
11135,63.0,0.0,15.0,3.0,0.0
11136,87.0,0.0,15.0,7.0,0.0
11137,87.0,0.0,60.0,0.0,0.0
11138,55.0,0.0,60.0,11.0,0.0
11139,61.0,0.0,30.0,10.0,0.0
11140,58.0,30.0,15.0,10.0,0.0
11141,63.0,0.0,15.0,8.0,0.0
11142,61.0,0.0,30.0,10.0,0.0
11143,87.0,0.0,15.0,1.0,0.0
11144,75.0,0.0,15.0,2.0,0.0
11145,68.0,0.0,120.0,5.0,0.0
11146,63.0,0.0,120.0,3.0,0.0
11147,68.0,0.0,120.0,4.0,0.0
11148,56.0,0.0,120.0,4.0,0.0
11149,75.0,30.0,120.0,1.0,0.0
11150,56.0,0.0,120.0,11.0,0.0
11151,87.0,0.0,120.0,0.0,0.0
11152,87.0,30.0,15.0,7.0,0.0
11153,56.0,0.0,120.0,6.0,0.0
11154,60.0,0.0,30.0,10.0,0.0
11155,63.0,0.0,15.0,8.0,0.0
11156,56.0,30.0,15.0,10.0,0.0
11157,60.0,30.0,15.0,10.0,0.0
11158,56.0,0.0,15.0,10.0,0.0
11159,63.0,0.0,30.0,8.0,0.0
11160,63.0,0.0,30.0,8.0,0.0
11161,56.0,0.0,30.0,10.0,0.0
11162,96.0,0.0,60.0,0.0,0.0
11163,84.0,0.0,60.0,7.0,0.0
11164,60.0,0.0,15.0,10.0,0.0
11165,56.0,30.0,30.0,10.0,0.0
11166,60.0,0.0,60.0,3.0,0.0
11167,63.0,0.0,30.0,8.0,0.0
11168,84.0,0.0,60.0,1.0,0.0
11169,60.0,0.0,15.0,10.0,0.0
11170,56.0,0.0,30.0,10.0,0.0
11171,63.0,0.0,30.0,8.0,0.0
11172,61.0,0.0,30.0,10.0,0.0
11173,75.0,0.0,120.0,4.0,0.0
11174,72.0,0.0,15.0,2.0,0.0
11175,60.0,0.0,15.0,3.0,0.0
11176,63.0,30.0,30.0,8.0,0.0
11177,84.0,0.0,15.0,7.0,0.0
11178,84.0,0.0,15.0,1.0,0.0
11179,84.0,15.0,15.0,0.0,0.0
11180,96.0,0.0,15.0,0.0,0.0
11181,97.0,0.0,60.0,0.0,0.0
11182,85.0,0.0,60.0,7.0,0.0
11183,73.0,0.0,60.0,2.0,0.0
11184,58.0,0.0,15.0,10.0,0.0
11185,61.0,0.0,30.0,10.0,0.0
11186,63.0,30.0,30.0,8.0,0.0
11187,58.0,0.0,30.0,10.0,0.0
11188,63.0,0.0,30.0,8.0,0.0
11189,85.0,0.0,15.0,0.0,0.0
11190,89.0,0.0,30.0,0.0,0.0
11191,65.0,0.0,30.0,2.0,0.0
11192,77.0,0.0,30.0,7.0,0.0
11193,73.0,0.0,30.0,2.0,0.0
11194,61.0,0.0,15.0,10.0,0.0
11195,61.0,0.0,15.0,3.0,0.0
11196,58.0,0.0,30.0,3.0,0.0
11197,77.0,0.0,30.0,1.0,0.0
11198,85.0,30.0,15.0,1.0,0.0
11199,87.0,0.0,60.0,0.0,0.0
11200,63.0,0.0,15.0,8.0,0.0
11201,58.0,0.0,15.0,10.0,0.0
11202,61.0,0.0,30.0,10.0,0.0
11203,91.0,0.0,60.0,0.0,0.0
11204,79.0,0.0,60.0,1.0,0.0
11205,67.0,0.0,60.0,2.0,0.0
11206,73.0,0.0,60.0,2.0,0.0
11207,58.0,0.0,60.0,3.0,0.0
11208,61.0,0.0,60.0,3.0,0.0
11209,85.0,0.0,60.0,1.0,0.0
11210,63.0,30.0,15.0,11.0,0.0
11211,58.0,15.0,30.0,10.0,0.0
11212,61.0,0.0,30.0,10.0,0.0
11213,63.0,30.0,15.0,8.0,0.0
11214,80.0,0.0,60.0,1.0,0.0
11215,56.0,0.0,60.0,3.0,0.0
11216,68.0,0.0,60.0,2.0,0.0
11217,67.0,0.0,15.0,8.0,0.0
11218,68.0,0.0,60.0,4.0,0.0
11219,55.0,45.0,15.0,11.0,0.0
11220,92.0,0.0,60.0,0.0,0.0
11221,56.0,0.0,60.0,4.0,0.0
11222,56.0,60.0,60.0,6.0,0.0
11223,79.0,0.0,15.0,7.0,0.0
11224,55.0,0.0,15.0,10.0,0.0
11225,68.0,0.0,60.0,5.0,0.0
11226,56.0,0.0,120.0,11.0,0.0
11227,80.0,0.0,120.0,7.0,0.0
11228,68.0,60.0,120.0,8.0,0.0
11229,56.0,0.0,120.0,10.0,0.0
11230,68.0,0.0,60.0,5.0,0.0
11231,56.0,0.0,60.0,4.0,0.0
11232,92.0,0.0,60.0,0.0,0.0
11233,68.0,0.0,60.0,2.0,0.0
11234,56.0,0.0,60.0,6.0,0.0
11235,80.0,0.0,60.0,2.0,0.0
11236,80.0,15.0,60.0,1.0,0.0
11237,68.0,0.0,60.0,3.0,0.0
11238,56.0,0.0,60.0,3.0,0.0
11239,68.0,0.0,60.0,4.0,0.0
11240,56.0,0.0,15.0,10.0,0.0
11241,80.0,0.0,15.0,7.0,0.0
11242,44.0,105.0,15.0,11.0,0.0
11243,68.0,0.0,15.0,8.0,0.0
11244,58.0,0.0,120.0,10.0,0.0
11245,82.0,0.0,120.0,7.0,0.0
11246,46.0,0.0,120.0,11.0,0.0
11247,70.0,60.0,120.0,8.0,0.0
11248,92.0,0.0,60.0,0.0,0.0
11249,68.0,0.0,60.0,4.0,0.0
11250,80.0,0.0,60.0,1.0,0.0
11251,56.0,0.0,60.0,4.0,0.0
11252,56.0,0.0,60.0,6.0,0.0
11253,68.0,15.0,60.0,5.0,0.0
11254,80.0,0.0,60.0,2.0,0.0
11255,68.0,0.0,60.0,3.0,0.0
11256,56.0,0.0,60.0,3.0,0.0
11257,68.0,0.0,60.0,2.0,0.0
11258,82.0,105.0,15.0,7.0,0.0
11259,70.0,0.0,15.0,8.0,0.0
11260,46.0,0.0,15.0,11.0,0.0
11261,58.0,0.0,15.0,10.0,0.0
11262,72.0,0.0,120.0,8.0,0.0
11263,60.0,60.0,120.0,10.0,0.0
11264,48.0,0.0,120.0,11.0,0.0
11265,84.0,0.0,120.0,7.0,0.0
11266,80.0,0.0,60.0,1.0,0.0
11267,92.0,0.0,60.0,0.0,0.0
11268,56.0,0.0,60.0,6.0,0.0
11269,56.0,0.0,60.0,3.0,0.0
11270,80.0,0.0,60.0,2.0,0.0
11271,68.0,15.0,60.0,3.0,0.0
11272,68.0,0.0,60.0,2.0,0.0
11273,68.0,0.0,60.0,5.0,0.0
11274,56.0,0.0,60.0,4.0,0.0
11275,68.0,0.0,60.0,4.0,0.0
11276,84.0,0.0,15.0,7.0,0.0
11277,60.0,105.0,15.0,10.0,0.0
11278,72.0,0.0,15.0,8.0,0.0
11279,48.0,0.0,15.0,11.0,0.0
11280,73.0,0.0,120.0,8.0,0.0
11281,49.0,0.0,120.0,11.0,0.0
11282,61.0,0.0,120.0,10.0,0.0
11283,85.0,60.0,120.0,7.0,0.0
11284,80.0,0.0,60.0,1.0,0.0
11285,68.0,0.0,60.0,3.0,0.0
11286,56.0,0.0,60.0,6.0,0.0
11287,56.0,0.0,60.0,3.0,0.0
11288,68.0,0.0,60.0,2.0,0.0
11289,92.0,0.0,60.0,0.0,0.0
11290,68.0,0.0,60.0,4.0,0.0
11291,56.0,0.0,60.0,4.0,0.0
11292,68.0,0.0,60.0,5.0,0.0
11293,80.0,15.0,60.0,2.0,0.0
11294,85.0,0.0,15.0,7.0,0.0
11295,61.0,0.0,15.0,10.0,0.0
11296,73.0,105.0,15.0,8.0,0.0
11297,49.0,0.0,15.0,11.0,0.0
11298,87.0,0.0,120.0,7.0,0.0
11299,75.0,0.0,120.0,8.0,0.0
11300,63.0,0.0,120.0,10.0,0.0
11301,51.0,60.0,120.0,11.0,0.0
11302,56.0,0.0,60.0,4.0,0.0
11303,68.0,0.0,60.0,4.0,0.0
11304,68.0,0.0,60.0,5.0,0.0
11305,56.0,0.0,60.0,6.0,0.0
11306,80.0,0.0,60.0,1.0,0.0
11307,68.0,0.0,60.0,3.0,0.0
11308,56.0,0.0,60.0,3.0,0.0
11309,92.0,0.0,60.0,0.0,0.0
11310,80.0,15.0,60.0,2.0,0.0
11311,68.0,0.0,60.0,2.0,0.0
11312,87.0,0.0,15.0,7.0,0.0
11313,51.0,105.0,15.0,11.0,0.0
11314,63.0,0.0,15.0,10.0,0.0
11315,75.0,0.0,15.0,8.0,0.0
11316,89.0,0.0,120.0,7.0,0.0
11317,65.0,0.0,120.0,10.0,0.0
11318,77.0,0.0,120.0,8.0,0.0
11319,53.0,60.0,120.0,11.0,0.0
11320,68.0,0.0,60.0,2.0,0.0
11321,92.0,15.0,60.0,0.0,0.0
11322,80.0,0.0,60.0,2.0,0.0
11323,56.0,0.0,60.0,4.0,0.0
11324,56.0,0.0,60.0,6.0,0.0
11325,80.0,0.0,60.0,1.0,0.0
11326,68.0,0.0,60.0,5.0,0.0
11327,68.0,0.0,60.0,4.0,0.0
11328,68.0,0.0,60.0,3.0,0.0
11329,56.0,0.0,60.0,3.0,0.0
11330,89.0,0.0,15.0,7.0,0.0
11331,53.0,105.0,15.0,11.0,0.0
11332,77.0,0.0,15.0,8.0,0.0
11333,65.0,0.0,15.0,10.0,0.0
11334,66.0,0.0,120.0,10.0,0.0
11335,90.0,60.0,120.0,7.0,0.0
11336,78.0,0.0,120.0,8.0,0.0
11337,54.0,0.0,120.0,11.0,0.0
11338,80.0,120.0,60.0,1.0,0.0
11339,68.0,0.0,60.0,3.0,0.0
11340,56.0,0.0,60.0,3.0,0.0
11341,68.0,0.0,60.0,4.0,0.0
11342,80.0,0.0,60.0,2.0,0.0
11343,68.0,0.0,60.0,5.0,0.0
11344,68.0,0.0,60.0,2.0,0.0
11345,92.0,0.0,60.0,0.0,0.0
11346,56.0,0.0,60.0,6.0,0.0
11347,56.0,0.0,60.0,4.0,0.0
11348,91.0,60.0,120.0,7.0,0.0
11349,55.0,0.0,120.0,11.0,0.0
11350,67.0,0.0,120.0,10.0,0.0
11351,79.0,0.0,120.0,8.0,0.0
11352,68.0,0.0,60.0,5.0,0.0
11353,92.0,0.0,60.0,0.0,0.0
11354,80.0,375.0,60.0,2.0,0.0
11355,68.0,0.0,60.0,2.0,0.0
11356,68.0,0.0,60.0,3.0,0.0
11357,56.0,0.0,60.0,3.0,0.0
11358,68.0,0.0,60.0,4.0,0.0
11359,80.0,0.0,60.0,1.0,0.0
11360,56.0,0.0,60.0,4.0,0.0
11361,56.0,0.0,60.0,6.0,0.0
11362,79.0,0.0,15.0,7.0,0.0
11363,67.0,105.0,15.0,8.0,0.0
11364,43.0,0.0,15.0,11.0,0.0
11365,55.0,0.0,15.0,10.0,0.0
11366,56.0,0.0,120.0,10.0,0.0
11367,44.0,0.0,120.0,11.0,0.0
11368,68.0,60.0,120.0,8.0,0.0
11369,80.0,0.0,120.0,7.0,0.0
11370,71.0,0.0,60.0,4.0,0.0
11371,83.0,0.0,60.0,0.0,0.0
11372,95.0,0.0,60.0,0.0,0.0
11373,83.0,0.0,60.0,1.0,0.0
11374,71.0,0.0,60.0,3.0,0.0
11375,59.0,0.0,60.0,3.0,0.0
11376,83.0,0.0,60.0,2.0,0.0
11377,71.0,15.0,60.0,2.0,0.0
11378,80.0,105.0,15.0,7.0,0.0
11379,68.0,0.0,15.0,8.0,0.0
11380,56.0,0.0,15.0,10.0,0.0
11381,44.0,0.0,15.0,11.0,0.0
11382,57.0,0.0,120.0,10.0,0.0
11383,45.0,0.0,120.0,11.0,0.0
11384,69.0,60.0,120.0,8.0,0.0
11385,81.0,0.0,120.0,7.0,0.0
11386,71.0,0.0,60.0,3.0,0.0
11387,59.0,0.0,60.0,3.0,0.0
11388,71.0,0.0,60.0,2.0,0.0
11389,83.0,0.0,60.0,0.0,0.0
11390,83.0,15.0,60.0,1.0,0.0
11391,71.0,0.0,60.0,4.0,0.0
11392,95.0,0.0,60.0,0.0,0.0
11393,83.0,0.0,60.0,2.0,0.0
11394,81.0,0.0,15.0,7.0,0.0
11395,57.0,105.0,15.0,10.0,0.0
11396,45.0,0.0,15.0,11.0,0.0
11397,69.0,0.0,15.0,8.0,0.0
11398,82.0,60.0,120.0,7.0,0.0
11399,46.0,0.0,120.0,11.0,0.0
11400,70.0,0.0,120.0,8.0,0.0
11401,58.0,0.0,120.0,10.0,0.0
11402,71.0,0.0,60.0,3.0,0.0
11403,59.0,0.0,60.0,3.0,0.0
11404,71.0,0.0,60.0,4.0,0.0
11405,83.0,0.0,60.0,0.0,0.0
11406,95.0,15.0,60.0,0.0,0.0
11407,71.0,0.0,60.0,2.0,0.0
11408,83.0,0.0,60.0,2.0,0.0
11409,83.0,0.0,60.0,1.0,0.0
11410,70.0,0.0,15.0,8.0,0.0
11411,46.0,0.0,15.0,11.0,0.0
11412,58.0,0.0,15.0,10.0,0.0
11413,82.0,105.0,15.0,7.0,0.0
11414,71.0,0.0,120.0,8.0,0.0
11415,83.0,60.0,120.0,7.0,0.0
11416,59.0,0.0,120.0,10.0,0.0
11417,47.0,0.0,120.0,11.0,0.0
11418,83.0,0.0,60.0,0.0,0.0
11419,95.0,0.0,60.0,0.0,0.0
11420,83.0,0.0,60.0,1.0,0.0
11421,71.0,0.0,60.0,4.0,0.0
11422,83.0,0.0,60.0,2.0,0.0
11423,71.0,0.0,60.0,2.0,0.0
11424,59.0,810.0,60.0,3.0,0.0
11425,71.0,0.0,60.0,3.0,0.0
11426,71.0,30.0,90.0,7.0,0.0
11427,71.0,60.0,15.0,7.0,0.0
11428,71.0,90.0,15.0,7.0,0.0
11429,71.0,30.0,15.0,7.0,0.0
11430,71.0,60.0,15.0,7.0,0.0
11431,71.0,90.0,15.0,7.0,0.0
11432,71.0,60.0,15.0,7.0,0.0
11433,71.0,30.0,15.0,7.0,0.0
11434,71.0,60.0,15.0,7.0,0.0
11435,71.0,90.0,15.0,7.0,0.0
11436,71.0,0.0,30.0,7.0,0.0
11437,68.0,30.0,15.0,8.0,0.0
11438,71.0,0.0,15.0,7.0,0.0
11439,68.0,90.0,15.0,8.0,0.0
11440,68.0,30.0,15.0,8.0,0.0
11441,68.0,0.0,15.0,8.0,0.0
11442,71.0,60.0,15.0,7.0,0.0
11443,64.0,0.0,90.0,3.0,0.0
11444,71.0,90.0,15.0,7.0,0.0
11445,68.0,0.0,90.0,8.0,0.0
11446,68.0,0.0,30.0,8.0,0.0
11447,71.0,30.0,15.0,7.0,0.0
11448,64.0,60.0,30.0,3.0,0.0
11449,64.0,0.0,60.0,3.0,0.0
11450,59.0,0.0,90.0,10.0,0.0
11451,56.0,0.0,90.0,10.0,0.0
11452,68.0,0.0,15.0,8.0,0.0
11453,71.0,90.0,15.0,7.0,0.0
11454,64.0,0.0,90.0,3.0,0.0
11455,68.0,0.0,15.0,8.0,0.0
11456,47.0,30.0,15.0,11.0,0.0
11457,56.0,0.0,30.0,10.0,0.0
11458,71.0,0.0,15.0,7.0,0.0
11459,64.0,60.0,15.0,3.0,0.0
11460,71.0,0.0,15.0,7.0,0.0
11461,68.0,0.0,15.0,8.0,0.0
11462,59.0,0.0,15.0,10.0,0.0
11463,54.0,0.0,60.0,10.0,0.0
11464,47.0,270.0,60.0,11.0,0.0
11465,71.0,0.0,720.0,7.0,0.0
11466,59.0,0.0,15.0,10.0,0.0
11467,56.0,90.0,1080.0,10.0,0.0
11468,68.0,0.0,1080.0,8.0,0.0
11469,47.0,30.0,270.0,11.0,0.0
11470,45.0,60.0,30.0,11.0,0.0
11471,44.0,90.0,60.0,11.0,0.0
11472,45.0,30.0,90.0,11.0,0.0
11473,47.0,60.0,30.0,11.0,0.0
11474,49.0,90.0,60.0,11.0,0.0
11475,51.0,30.0,90.0,11.0,0.0
11476,52.0,60.0,30.0,11.0,0.0
11477,54.0,90.0,60.0,11.0,0.0
11478,56.0,30.0,90.0,11.0,0.0
11479,71.0,0.0,270.0,7.0,0.0
11480,57.0,60.0,30.0,11.0,0.0
11481,59.0,90.0,60.0,11.0,0.0
11482,61.0,30.0,90.0,11.0,0.0
11483,63.0,60.0,30.0,11.0,0.0
11484,69.0,0.0,30.0,7.0,0.0
11485,68.0,0.0,60.0,7.0,0.0
11486,64.0,0.0,60.0,11.0,0.0
11487,59.0,0.0,15.0,10.0,0.0
11488,66.0,30.0,90.0,11.0,0.0
11489,69.0,0.0,90.0,7.0,0.0
11490,64.0,0.0,15.0,3.0,0.0
11491,57.0,0.0,360.0,10.0,0.0
11492,69.0,0.0,360.0,8.0,0.0
11493,71.0,0.0,30.0,7.0,0.0
11494,64.0,60.0,30.0,11.0,0.0
11495,63.0,0.0,60.0,11.0,0.0
11496,73.0,90.0,60.0,7.0,0.0
11497,75.0,30.0,90.0,7.0,0.0
11498,61.0,0.0,90.0,11.0,0.0
11499,76.0,60.0,30.0,7.0,0.0
11500,59.0,0.0,30.0,11.0,0.0
11501,78.0,0.0,60.0,7.0,0.0
11502,57.0,90.0,60.0,11.0,0.0
11503,80.0,30.0,90.0,7.0,0.0
11504,59.0,30.0,270.0,10.0,0.0
11505,64.0,0.0,15.0,3.0,0.0
11506,56.0,0.0,90.0,11.0,0.0
11507,71.0,0.0,270.0,8.0,0.0
11508,54.0,0.0,30.0,11.0,0.0
11509,81.0,60.0,30.0,7.0,0.0
11510,83.0,90.0,60.0,7.0,0.0
11511,52.0,0.0,15.0,11.0,0.0
11512,85.0,0.0,90.0,7.0,0.0
11513,87.0,0.0,30.0,7.0,0.0
11514,69.0,0.0,30.0,8.0,0.0
11515,57.0,0.0,30.0,10.0,0.0
11516,56.0,90.0,60.0,10.0,0.0
11517,68.0,0.0,60.0,8.0,0.0
11518,88.0,0.0,60.0,7.0,0.0
11519,51.0,0.0,90.0,11.0,0.0
11520,90.0,0.0,90.0,7.0,0.0
11521,57.0,30.0,90.0,10.0,0.0
11522,69.0,0.0,90.0,8.0,0.0
11523,88.0,60.0,30.0,7.0,0.0
11524,49.0,0.0,30.0,11.0,0.0
11525,71.0,0.0,30.0,8.0,0.0
11526,59.0,0.0,30.0,10.0,0.0
11527,61.0,0.0,60.0,10.0,0.0
11528,87.0,0.0,60.0,7.0,0.0
11529,73.0,90.0,60.0,8.0,0.0
11530,47.0,0.0,60.0,11.0,0.0
11531,85.0,0.0,90.0,7.0,0.0
11532,63.0,0.0,90.0,10.0,0.0
11533,75.0,30.0,90.0,8.0,0.0
11534,47.0,60.0,120.0,11.0,0.0
11535,64.0,0.0,30.0,10.0,0.0
11536,83.0,0.0,30.0,7.0,0.0
11537,76.0,0.0,30.0,8.0,0.0
11538,66.0,0.0,60.0,10.0,0.0
11539,81.0,90.0,60.0,7.0,0.0
11540,78.0,0.0,60.0,8.0,0.0
11541,68.0,0.0,90.0,10.0,0.0
11542,71.0,30.0,270.0,1.0,0.0
11543,80.0,30.0,90.0,7.0,0.0
11544,52.0,0.0,120.0,11.0,0.0
11545,80.0,0.0,90.0,8.0,0.0
11546,78.0,0.0,30.0,7.0,0.0
11547,81.0,0.0,30.0,8.0,0.0
11548,69.0,60.0,30.0,10.0,0.0
11549,83.0,0.0,60.0,8.0,0.0
11550,71.0,0.0,60.0,10.0,0.0
11551,85.0,0.0,90.0,8.0,0.0
11552,73.0,0.0,90.0,10.0,0.0
11553,76.0,90.0,15.0,7.0,0.0
11554,69.0,0.0,30.0,1.0,0.0
11555,87.0,0.0,30.0,8.0,0.0
11556,75.0,0.0,30.0,10.0,0.0
11557,76.0,90.0,60.0,10.0,0.0
11558,88.0,0.0,60.0,8.0,0.0
11559,68.0,0.0,60.0,1.0,0.0
11560,52.0,60.0,15.0,11.0,0.0
11561,69.0,30.0,90.0,1.0,0.0
11562,52.0,60.0,120.0,11.0,0.0
11563,75.0,0.0,90.0,7.0,0.0
11564,90.0,0.0,90.0,8.0,0.0
11565,78.0,0.0,90.0,10.0,0.0
11566,76.0,0.0,30.0,10.0,0.0
11567,88.0,0.0,30.0,8.0,0.0
11568,73.0,0.0,30.0,7.0,0.0
11569,87.0,90.0,60.0,8.0,0.0
11570,75.0,0.0,60.0,10.0,0.0
11571,71.0,0.0,15.0,7.0,0.0
11572,73.0,30.0,90.0,10.0,0.0
11573,75.0,0.0,90.0,1.0,0.0
11574,85.0,0.0,90.0,8.0,0.0
11575,52.0,0.0,30.0,11.0,0.0
11576,83.0,0.0,30.0,8.0,0.0
11577,71.0,0.0,30.0,10.0,0.0
11578,69.0,0.0,60.0,10.0,0.0
11579,81.0,0.0,60.0,8.0,0.0
11580,52.0,90.0,60.0,11.0,0.0
11581,80.0,0.0,90.0,8.0,0.0
11582,72.0,0.0,90.0,7.0,0.0
11583,68.0,30.0,90.0,10.0,0.0
11584,59.0,30.0,270.0,3.0,0.0
11585,80.0,0.0,90.0,1.0,0.0
11586,83.0,0.0,270.0,0.0,0.0
11587,52.0,0.0,120.0,11.0,0.0
11588,81.0,0.0,30.0,1.0,0.0
11589,78.0,0.0,30.0,8.0,0.0
11590,83.0,0.0,30.0,7.0,0.0
11591,66.0,60.0,30.0,10.0,0.0
11592,83.0,0.0,60.0,1.0,0.0
11593,76.0,0.0,60.0,8.0,0.0
11594,64.0,0.0,60.0,10.0,0.0
11595,83.0,90.0,15.0,7.0,0.0
11596,64.0,60.0,120.0,10.0,0.0
11597,76.0,0.0,120.0,8.0,0.0
11598,85.0,0.0,90.0,1.0,0.0
11599,87.0,0.0,30.0,1.0,0.0
11600,52.0,0.0,30.0,11.0,0.0
11601,57.0,0.0,30.0,3.0,0.0
11602,81.0,0.0,30.0,0.0,0.0
11603,56.0,0.0,60.0,3.0,0.0
11604,80.0,0.0,60.0,0.0,0.0
11605,88.0,0.0,60.0,1.0,0.0
11606,52.0,90.0,15.0,11.0,0.0
11607,90.0,30.0,90.0,1.0,0.0
11608,57.0,0.0,90.0,3.0,0.0
11609,75.0,0.0,90.0,8.0,0.0
11610,81.0,0.0,90.0,0.0,0.0
11611,63.0,0.0,90.0,10.0,0.0
11612,83.0,0.0,30.0,7.0,0.0
11613,88.0,0.0,30.0,1.0,0.0
11614,59.0,60.0,30.0,3.0,0.0
11615,61.0,0.0,30.0,10.0,0.0
11616,73.0,0.0,30.0,8.0,0.0
11617,83.0,0.0,30.0,0.0,0.0
11618,61.0,0.0,60.0,3.0,0.0
11619,85.0,0.0,60.0,0.0,0.0
11620,83.0,0.0,60.0,7.0,0.0
11621,87.0,0.0,60.0,1.0,0.0
11622,71.0,90.0,60.0,8.0,0.0
11623,85.0,30.0,90.0,1.0,0.0
11624,87.0,0.0,90.0,0.0,0.0
11625,63.0,0.0,90.0,3.0,0.0
11626,59.0,0.0,15.0,10.0,0.0
11627,71.0,0.0,120.0,8.0,0.0
11628,83.0,60.0,120.0,7.0,0.0
11629,52.0,0.0,30.0,11.0,0.0
11630,64.0,0.0,30.0,3.0,0.0
11631,83.0,0.0,30.0,1.0,0.0
11632,88.0,0.0,30.0,0.0,0.0
11633,90.0,0.0,60.0,0.0,0.0
11634,81.0,0.0,60.0,1.0,0.0
11635,66.0,0.0,60.0,3.0,0.0
11636,92.0,0.0,720.0,0.0,0.0
11637,64.0,0.0,90.0,10.0,0.0
11638,68.0,0.0,720.0,3.0,0.0
11639,80.0,0.0,720.0,1.0,0.0
11640,83.0,0.0,90.0,7.0,0.0
11641,52.0,90.0,15.0,11.0,0.0
11642,80.0,30.0,15.0,8.0,0.0
11643,52.0,0.0,15.0,11.0,0.0
11644,71.0,0.0,30.0,10.0,0.0
11645,83.0,0.0,30.0,7.0,0.0
11646,52.0,60.0,15.0,11.0,0.0
11647,80.0,0.0,60.0,8.0,0.0
11648,71.0,90.0,15.0,10.0,0.0
11649,83.0,0.0,15.0,7.0,0.0
11650,52.0,0.0,15.0,11.0,0.0
11651,52.0,0.0,15.0,11.0,0.0
11652,80.0,0.0,15.0,8.0,0.0
11653,71.0,0.0,30.0,10.0,0.0
11654,83.0,30.0,15.0,7.0,0.0
11655,52.0,0.0,60.0,11.0,0.0
11656,83.0,0.0,15.0,7.0,0.0
11657,80.0,60.0,15.0,8.0,0.0
11658,71.0,90.0,15.0,10.0,0.0
11659,80.0,0.0,15.0,8.0,0.0
11660,52.0,30.0,15.0,11.0,0.0
11661,83.0,0.0,15.0,7.0,0.0
11662,52.0,0.0,60.0,11.0,0.0
11663,80.0,60.0,15.0,8.0,0.0
11664,83.0,0.0,15.0,7.0,0.0
11665,71.0,0.0,15.0,10.0,0.0
11666,52.0,0.0,90.0,11.0,0.0
11667,80.0,0.0,90.0,8.0,0.0
11668,71.0,0.0,90.0,10.0,0.0
11669,83.0,30.0,90.0,7.0,0.0
11670,71.0,0.0,30.0,10.0,0.0
11671,52.0,0.0,30.0,11.0,0.0
11672,71.0,0.0,60.0,10.0,0.0
11673,83.0,0.0,15.0,7.0,0.0
11674,80.0,60.0,15.0,8.0,0.0
11675,67.0,0.0,720.0,3.0,0.0
11676,70.0,30.0,90.0,10.0,0.0
11677,79.0,0.0,720.0,1.0,0.0
11678,52.0,90.0,15.0,11.0,0.0
11679,79.0,0.0,90.0,8.0,0.0
11680,91.0,0.0,720.0,0.0,0.0
11681,52.0,0.0,15.0,11.0,0.0
11682,85.0,0.0,15.0,7.0,0.0
11683,79.0,0.0,30.0,8.0,0.0
11684,85.0,0.0,60.0,7.0,0.0
11685,79.0,0.0,60.0,8.0,0.0
11686,70.0,60.0,15.0,10.0,0.0
11687,79.0,0.0,90.0,8.0,0.0
11688,52.0,90.0,15.0,11.0,0.0
11689,52.0,0.0,15.0,11.0,0.0
11690,85.0,0.0,15.0,7.0,0.0
11691,70.0,30.0,15.0,10.0,0.0
11692,70.0,0.0,15.0,10.0,0.0
11693,52.0,0.0,15.0,11.0,0.0
11694,79.0,60.0,15.0,8.0,0.0
11695,79.0,90.0,15.0,8.0,0.0
11696,70.0,0.0,15.0,10.0,0.0
11697,85.0,0.0,15.0,7.0,0.0
11698,52.0,0.0,15.0,11.0,0.0
11699,79.0,0.0,15.0,8.0,0.0
11700,85.0,0.0,30.0,7.0,0.0
11701,70.0,0.0,15.0,10.0,0.0
11702,52.0,0.0,15.0,11.0,0.0
11703,79.0,0.0,60.0,8.0,0.0
11704,70.0,0.0,15.0,10.0,0.0
11705,52.0,0.0,15.0,11.0,0.0
11706,85.0,90.0,15.0,7.0,0.0
11707,52.0,0.0,15.0,11.0,0.0
11708,79.0,30.0,15.0,8.0,0.0
11709,85.0,0.0,15.0,7.0,0.0
11710,70.0,0.0,30.0,10.0,0.0
11711,79.0,0.0,60.0,8.0,0.0
11712,70.0,90.0,60.0,10.0,0.0
11713,85.0,0.0,60.0,7.0,0.0
11714,52.0,0.0,60.0,11.0,0.0
11715,87.0,0.0,90.0,7.0,0.0
11716,78.0,90.0,180.0,1.0,0.0
11717,92.0,0.0,180.0,0.0,0.0
11718,66.0,0.0,180.0,3.0,0.0
11719,69.0,0.0,90.0,10.0,0.0
11720,52.0,0.0,15.0,11.0,0.0
11721,69.0,0.0,30.0,10.0,0.0
11722,78.0,30.0,15.0,8.0,0.0
11723,87.0,0.0,30.0,7.0,0.0
11724,52.0,60.0,15.0,11.0,0.0
11725,78.0,0.0,15.0,8.0,0.0
11726,87.0,0.0,15.0,7.0,0.0
11727,69.0,0.0,15.0,10.0,0.0
11728,71.0,0.0,540.0,3.0,0.0
11729,52.0,0.0,15.0,11.0,0.0
11730,78.0,0.0,15.0,8.0,0.0
11731,83.0,0.0,540.0,1.0,0.0
11732,78.0,0.0,15.0,8.0,0.0
11733,87.0,0.0,15.0,7.0,0.0
11734,69.0,0.0,30.0,10.0,0.0
11735,52.0,60.0,30.0,11.0,0.0
11736,87.0,0.0,15.0,7.0,0.0
11737,78.0,0.0,15.0,8.0,0.0
11738,52.0,0.0,60.0,11.0,0.0
11739,69.0,0.0,15.0,10.0,0.0
11740,52.0,0.0,90.0,11.0,0.0
11741,87.0,0.0,15.0,7.0,0.0
11742,78.0,90.0,15.0,8.0,0.0
11743,78.0,0.0,15.0,8.0,0.0
11744,69.0,30.0,15.0,10.0,0.0
11745,87.0,60.0,30.0,7.0,0.0
11746,52.0,0.0,30.0,11.0,0.0
11747,78.0,0.0,60.0,8.0,0.0
11748,69.0,0.0,60.0,10.0,0.0
11749,87.0,0.0,60.0,7.0,0.0
11750,52.0,90.0,15.0,11.0,0.0
11751,87.0,0.0,15.0,7.0,0.0
11752,78.0,0.0,15.0,8.0,0.0
11753,69.0,30.0,15.0,10.0,0.0
11754,52.0,0.0,30.0,11.0,0.0
11755,78.0,60.0,60.0,8.0,0.0
11756,69.0,0.0,15.0,10.0,0.0
11757,52.0,0.0,60.0,11.0,0.0
11758,87.0,0.0,60.0,7.0,0.0
11759,56.0,0.0,120.0,6.0,0.0
11760,79.0,30.0,60.0,8.0,0.0
11761,68.0,0.0,1440.0,3.0,0.0
11762,92.0,0.0,1440.0,0.0,0.0
11763,95.0,0.0,15.0,0.0,0.0
11764,64.0,0.0,1440.0,3.0,0.0
11765,71.0,0.0,1440.0,4.0,0.0
11766,68.0,0.0,120.0,5.0,0.0
11767,80.0,0.0,1440.0,2.0,0.0
11768,76.0,0.0,1440.0,2.0,0.0
11769,88.0,0.0,1440.0,1.0,0.0
11770,68.0,0.0,90.0,10.0,0.0
11771,52.0,0.0,120.0,11.0,0.0
11772,88.0,30.0,15.0,7.0,0.0
11773,76.0,0.0,30.0,10.0,0.0
11774,68.0,0.0,15.0,8.0,0.0
11775,59.0,0.0,15.0,8.0,0.0
11776,59.0,0.0,15.0,8.0,0.0
11777,68.0,0.0,30.0,8.0,0.0
11778,59.0,0.0,30.0,8.0,0.0
11779,68.0,0.0,30.0,8.0,0.0
11780,71.0,30.0,15.0,10.0,0.0
11781,68.0,0.0,30.0,8.0,0.0
11782,83.0,0.0,15.0,7.0,0.0
11783,59.0,30.0,15.0,8.0,0.0
11784,68.0,30.0,30.0,8.0,0.0
11785,59.0,0.0,15.0,8.0,0.0
11786,68.0,0.0,30.0,8.0,0.0
11787,64.0,30.0,15.0,11.0,0.0
11788,59.0,0.0,30.0,8.0,0.0
11789,59.0,30.0,60.0,11.0,0.0
11790,68.0,30.0,15.0,8.0,0.0
11791,59.0,30.0,30.0,8.0,0.0
11792,59.0,0.0,30.0,8.0,0.0
11793,68.0,0.0,30.0,8.0,0.0
11794,68.0,30.0,120.0,5.0,0.0
11795,59.0,30.0,30.0,8.0,0.0
11796,56.0,0.0,120.0,6.0,0.0
11797,68.0,0.0,15.0,8.0,0.0
11798,59.0,0.0,30.0,8.0,0.0
11799,83.0,30.0,15.0,7.0,0.0
11800,71.0,0.0,30.0,10.0,0.0
11801,68.0,0.0,15.0,8.0,0.0
11802,59.0,0.0,15.0,8.0,0.0
11803,59.0,0.0,15.0,8.0,0.0
11804,80.0,0.0,60.0,7.0,0.0
11805,59.0,30.0,15.0,8.0,0.0
11806,68.0,0.0,15.0,8.0,0.0
11807,68.0,30.0,15.0,10.0,0.0
11808,68.0,30.0,30.0,8.0,0.0
11809,59.0,0.0,15.0,8.0,0.0
11810,68.0,30.0,15.0,8.0,0.0
11811,59.0,0.0,15.0,8.0,0.0
11812,68.0,0.0,15.0,8.0,0.0
11813,59.0,0.0,15.0,8.0,0.0
11814,59.0,30.0,15.0,11.0,0.0
11815,56.0,0.0,60.0,11.0,0.0
11816,59.0,30.0,15.0,8.0,0.0
11817,68.0,0.0,15.0,8.0,0.0
11818,59.0,0.0,15.0,8.0,0.0
11819,68.0,0.0,30.0,8.0,0.0
11820,56.0,0.0,120.0,11.0,0.0
11821,56.0,0.0,120.0,6.0,0.0
11822,68.0,30.0,120.0,5.0,0.0
11823,59.0,0.0,30.0,8.0,0.0
11824,59.0,30.0,30.0,8.0,0.0
11825,68.0,30.0,15.0,8.0,0.0
11826,59.0,0.0,30.0,8.0,0.0
11827,80.0,0.0,15.0,7.0,0.0
11828,68.0,0.0,15.0,10.0,0.0
11829,59.0,0.0,30.0,8.0,0.0
11830,68.0,30.0,15.0,8.0,0.0
11831,64.0,0.0,150.0,10.0,0.0
11832,68.0,0.0,30.0,8.0,0.0
11833,76.0,0.0,150.0,7.0,0.0
11834,64.0,0.0,30.0,11.0,0.0
11835,59.0,30.0,15.0,8.0,0.0
11836,59.0,0.0,120.0,11.0,0.0
11837,68.0,0.0,120.0,5.0,0.0
11838,56.0,0.0,120.0,6.0,0.0
11839,68.0,30.0,15.0,8.0,0.0
11840,59.0,0.0,15.0,8.0,0.0
11841,68.0,30.0,15.0,8.0,0.0
11842,59.0,0.0,15.0,8.0,0.0
11843,64.0,0.0,30.0,10.0,0.0
11844,76.0,0.0,30.0,7.0,0.0
11845,68.0,30.0,15.0,8.0,0.0
11846,59.0,30.0,30.0,8.0,0.0
11847,59.0,0.0,150.0,10.0,0.0
11848,71.0,0.0,150.0,7.0,0.0
11849,59.0,30.0,30.0,8.0,0.0
11850,68.0,0.0,30.0,8.0,0.0
11851,59.0,0.0,30.0,11.0,0.0
11852,59.0,30.0,30.0,8.0,0.0
11853,68.0,0.0,30.0,8.0,0.0
11854,56.0,0.0,120.0,6.0,0.0
11855,56.0,0.0,120.0,11.0,0.0
11856,68.0,30.0,30.0,8.0,0.0
11857,59.0,0.0,30.0,8.0,0.0
11858,68.0,0.0,120.0,5.0,0.0
11859,59.0,0.0,30.0,8.0,0.0
11860,59.0,0.0,30.0,8.0,0.0
11861,68.0,30.0,15.0,8.0,0.0
11862,59.0,30.0,30.0,10.0,0.0
11863,68.0,30.0,15.0,8.0,0.0
11864,71.0,0.0,30.0,7.0,0.0
11865,59.0,0.0,30.0,8.0,0.0
11866,68.0,0.0,150.0,7.0,0.0
11867,56.0,0.0,30.0,11.0,0.0
11868,59.0,0.0,15.0,8.0,0.0
11869,68.0,30.0,15.0,8.0,0.0
11870,52.0,0.0,120.0,11.0,0.0
11871,68.0,0.0,30.0,8.0,0.0
11872,68.0,0.0,120.0,5.0,0.0
11873,56.0,0.0,120.0,6.0,0.0
11874,59.0,30.0,30.0,8.0,0.0
11875,59.0,0.0,30.0,8.0,0.0
11876,68.0,30.0,15.0,8.0,0.0
11877,59.0,0.0,30.0,8.0,0.0
11878,56.0,30.0,15.0,10.0,0.0
11879,68.0,0.0,30.0,7.0,0.0
11880,68.0,0.0,30.0,8.0,0.0
11881,59.0,0.0,15.0,8.0,0.0
11882,64.0,0.0,60.0,7.0,0.0
11883,68.0,0.0,30.0,8.0,0.0
11884,52.0,0.0,60.0,10.0,0.0
11885,52.0,0.0,30.0,11.0,0.0
11886,68.0,0.0,30.0,8.0,0.0
11887,69.0,0.0,90.0,3.0,0.0
11888,66.0,0.0,90.0,3.0,0.0
11889,59.0,0.0,15.0,8.0,0.0
11890,83.0,30.0,15.0,1.0,0.0
11891,87.0,30.0,90.0,1.0,0.0
11892,78.0,0.0,90.0,2.0,0.0
11893,81.0,0.0,90.0,2.0,0.0
11894,90.0,0.0,90.0,0.0,0.0
11895,93.0,0.0,90.0,0.0,0.0
11896,63.0,0.0,120.0,7.0,0.0
11897,63.0,0.0,120.0,10.0,0.0
11898,47.0,0.0,120.0,11.0,0.0
11899,69.0,30.0,15.0,8.0,0.0
11900,59.0,0.0,15.0,8.0,0.0
11901,69.0,0.0,15.0,8.0,0.0
11902,93.0,0.0,30.0,0.0,0.0
11903,83.0,0.0,15.0,1.0,0.0
11904,71.0,0.0,15.0,4.0,0.0
11905,81.0,0.0,30.0,2.0,0.0
11906,69.0,0.0,30.0,3.0,0.0
11907,66.0,0.0,30.0,3.0,0.0
11908,87.0,30.0,30.0,1.0,0.0
11909,69.0,0.0,15.0,8.0,0.0
11910,59.0,0.0,15.0,8.0,0.0
11911,78.0,0.0,15.0,2.0,0.0
11912,90.0,0.0,15.0,0.0,0.0
11913,81.0,0.0,60.0,2.0,0.0
11914,66.0,0.0,60.0,3.0,0.0
11915,69.0,0.0,60.0,3.0,0.0
11916,93.0,0.0,60.0,0.0,0.0
11917,87.0,0.0,15.0,1.0,0.0
11918,83.0,0.0,15.0,1.0,0.0
11919,71.0,30.0,15.0,4.0,0.0
11920,69.0,0.0,15.0,8.0,0.0
11921,59.0,0.0,15.0,8.0,0.0
11922,90.0,0.0,15.0,0.0,0.0
11923,78.0,0.0,90.0,2.0,0.0
11924,66.0,0.0,90.0,3.0,0.0
11925,59.0,0.0,30.0,8.0,0.0
11926,59.0,0.0,30.0,8.0,0.0
11927,69.0,30.0,15.0,8.0,0.0
11928,69.0,0.0,15.0,3.0,0.0
11929,93.0,0.0,15.0,0.0,0.0
11930,69.0,0.0,15.0,8.0,0.0
11931,71.0,30.0,15.0,4.0,0.0
11932,66.0,0.0,30.0,3.0,0.0
11933,83.0,0.0,30.0,1.0,0.0
11934,81.0,0.0,15.0,2.0,0.0
11935,87.0,0.0,15.0,1.0,0.0
11936,69.0,0.0,60.0,3.0,0.0
11937,93.0,30.0,15.0,0.0,0.0
11938,90.0,0.0,15.0,0.0,0.0
11939,69.0,0.0,15.0,8.0,0.0
11940,59.0,0.0,15.0,8.0,0.0
11941,81.0,0.0,15.0,2.0,0.0
11942,78.0,0.0,15.0,2.0,0.0
11943,69.0,30.0,15.0,8.0,0.0
11944,59.0,0.0,15.0,8.0,0.0
11945,83.0,0.0,15.0,1.0,0.0
11946,90.0,0.0,15.0,0.0,0.0
11947,93.0,0.0,15.0,0.0,0.0
11948,87.0,0.0,15.0,1.0,0.0
11949,81.0,0.0,90.0,2.0,0.0
11950,71.0,0.0,15.0,4.0,0.0
11951,66.0,30.0,15.0,3.0,0.0
11952,78.0,0.0,90.0,2.0,0.0
11953,69.0,30.0,15.0,8.0,0.0
11954,59.0,0.0,15.0,8.0,0.0
11955,59.0,0.0,15.0,8.0,0.0
11956,69.0,30.0,15.0,8.0,0.0
11957,90.0,0.0,15.0,0.0,0.0
11958,83.0,0.0,15.0,1.0,0.0
11959,87.0,0.0,15.0,1.0,0.0
11960,71.0,0.0,15.0,4.0,0.0
11961,66.0,0.0,15.0,3.0,0.0
11962,69.0,0.0,15.0,3.0,0.0
11963,90.0,0.0,15.0,0.0,0.0
11964,93.0,0.0,15.0,0.0,0.0
11965,87.0,0.0,15.0,1.0,0.0
11966,59.0,0.0,15.0,8.0,0.0
11967,71.0,0.0,15.0,4.0,0.0
11968,81.0,0.0,15.0,2.0,0.0
11969,78.0,0.0,15.0,2.0,0.0
11970,83.0,0.0,60.0,1.0,0.0
11971,69.0,30.0,15.0,8.0,0.0
11972,59.0,0.0,30.0,8.0,0.0
11973,69.0,0.0,30.0,8.0,0.0
11974,71.0,0.0,15.0,4.0,0.0
11975,66.0,0.0,15.0,3.0,0.0
11976,69.0,0.0,15.0,3.0,0.0
11977,83.0,0.0,90.0,1.0,0.0
11978,87.0,0.0,15.0,1.0,0.0
11979,78.0,30.0,90.0,2.0,0.0
11980,59.0,0.0,15.0,8.0,0.0
11981,69.0,30.0,15.0,8.0,0.0
11982,59.0,0.0,15.0,8.0,0.0
11983,69.0,0.0,30.0,8.0,0.0
11984,66.0,0.0,15.0,3.0,0.0
11985,69.0,0.0,15.0,3.0,0.0
11986,93.0,0.0,15.0,0.0,0.0
11987,90.0,0.0,15.0,0.0,0.0
11988,59.0,0.0,15.0,8.0,0.0
11989,81.0,0.0,15.0,2.0,0.0
11990,87.0,0.0,15.0,1.0,0.0
11991,71.0,0.0,15.0,4.0,0.0
11992,78.0,0.0,30.0,2.0,0.0
11993,59.0,30.0,15.0,8.0,0.0
11994,69.0,0.0,15.0,8.0,0.0
11995,71.0,0.0,15.0,4.0,0.0
11996,90.0,0.0,15.0,0.0,0.0
11997,93.0,0.0,15.0,0.0,0.0
11998,81.0,0.0,15.0,2.0,0.0
11999,69.0,0.0,60.0,3.0,0.0
12000,66.0,0.0,60.0,3.0,0.0
12001,83.0,0.0,15.0,1.0,0.0
12002,87.0,0.0,15.0,1.0,0.0
12003,69.0,30.0,15.0,8.0,0.0
12004,59.0,0.0,15.0,8.0,0.0
12005,90.0,0.0,15.0,0.0,0.0
12006,93.0,0.0,15.0,0.0,0.0
12007,63.0,0.0,90.0,10.0,0.0
12008,71.0,0.0,1440.0,4.0,0.0
12009,66.0,0.0,1440.0,3.0,0.0
12010,81.0,0.0,15.0,2.0,0.0
12011,63.0,0.0,90.0,7.0,0.0
12012,87.0,0.0,15.0,1.0,0.0
12013,54.0,90.0,1440.0,5.0,0.0
12014,66.0,0.0,1440.0,5.0,0.0
12015,78.0,0.0,15.0,2.0,0.0
12016,69.0,0.0,15.0,8.0,0.0
12017,69.0,0.0,1440.0,3.0,0.0
12018,81.0,0.0,1440.0,1.0,0.0
12019,47.0,0.0,120.0,11.0,0.0
12020,59.0,0.0,30.0,8.0,0.0
12021,69.0,30.0,15.0,8.0,0.0
12022,59.0,0.0,15.0,8.0,0.0
12023,69.0,0.0,15.0,8.0,0.0
12024,81.0,0.0,30.0,7.0,0.0
12025,69.0,30.0,30.0,10.0,0.0
12026,69.0,0.0,15.0,8.0,0.0
12027,59.0,0.0,15.0,8.0,0.0
12028,66.0,0.0,60.0,10.0,0.0
12029,59.0,0.0,30.0,8.0,0.0
12030,69.0,0.0,30.0,8.0,0.0
12031,66.0,0.0,270.0,10.0,0.0
12032,78.0,30.0,15.0,7.0,0.0
12033,47.0,0.0,90.0,11.0,0.0
12034,69.0,30.0,15.0,8.0,0.0
12035,59.0,0.0,15.0,8.0,0.0
12036,59.0,0.0,15.0,8.0,0.0
12037,69.0,0.0,30.0,8.0,0.0
12038,69.0,0.0,30.0,11.0,0.0
12039,59.0,0.0,30.0,8.0,0.0
12040,69.0,30.0,15.0,8.0,0.0
12041,59.0,30.0,30.0,8.0,0.0
12042,66.0,30.0,60.0,11.0,0.0
12043,69.0,0.0,15.0,8.0,0.0
12044,59.0,0.0,15.0,8.0,0.0
12045,66.0,0.0,270.0,11.0,0.0
12046,69.0,30.0,15.0,8.0,0.0
12047,59.0,0.0,15.0,8.0,0.0
12048,69.0,30.0,15.0,8.0,0.0
12049,59.0,0.0,15.0,8.0,0.0
12050,90.0,0.0,30.0,7.0,0.0
12051,78.0,30.0,30.0,10.0,0.0
12052,59.0,0.0,30.0,8.0,0.0
12053,69.0,0.0,15.0,8.0,0.0
12054,87.0,0.0,60.0,7.0,0.0
12055,59.0,30.0,30.0,8.0,0.0
12056,75.0,0.0,60.0,10.0,0.0
12057,87.0,0.0,270.0,7.0,0.0
12058,69.0,0.0,15.0,8.0,0.0
12059,75.0,30.0,270.0,10.0,0.0
12060,59.0,30.0,15.0,8.0,0.0
12061,69.0,0.0,30.0,8.0,0.0
12062,59.0,30.0,15.0,8.0,0.0
12063,69.0,30.0,15.0,8.0,0.0
12064,59.0,0.0,15.0,8.0,0.0
12065,66.0,30.0,30.0,11.0,0.0
12066,69.0,0.0,30.0,8.0,0.0
12067,59.0,30.0,15.0,8.0,0.0
12068,69.0,30.0,30.0,8.0,0.0
12069,63.0,0.0,15.0,11.0,0.0
12070,69.0,30.0,15.0,8.0,0.0
12071,59.0,0.0,15.0,8.0,0.0
12072,69.0,30.0,15.0,8.0,0.0
12073,83.0,0.0,30.0,7.0,0.0
12074,59.0,0.0,15.0,8.0,0.0
12075,71.0,30.0,30.0,10.0,0.0
12076,69.0,0.0,15.0,8.0,0.0
12077,59.0,0.0,15.0,8.0,0.0
12078,81.0,0.0,150.0,7.0,0.0
12079,69.0,0.0,30.0,11.0,0.0
12080,59.0,30.0,30.0,8.0,0.0
12081,69.0,0.0,15.0,8.0,0.0
12082,66.0,0.0,120.0,11.0,0.0
12083,59.0,30.0,30.0,8.0,0.0
12084,59.0,0.0,15.0,8.0,0.0
12085,69.0,30.0,15.0,8.0,0.0
12086,69.0,30.0,15.0,10.0,0.0
12087,81.0,30.0,30.0,7.0,0.0
12088,69.0,0.0,30.0,8.0,0.0
12089,59.0,0.0,15.0,8.0,0.0
12090,69.0,30.0,15.0,8.0,0.0
12091,66.0,0.0,30.0,11.0,0.0
12092,63.0,0.0,120.0,11.0,0.0
12093,69.0,30.0,30.0,8.0,0.0
12094,59.0,30.0,15.0,8.0,0.0
12095,59.0,0.0,15.0,8.0,0.0
12096,69.0,30.0,15.0,8.0,0.0
12097,78.0,0.0,15.0,7.0,0.0
12098,66.0,0.0,15.0,10.0,0.0
12099,75.0,0.0,150.0,7.0,0.0
12100,69.0,0.0,15.0,8.0,0.0
12101,59.0,0.0,15.0,8.0,0.0
12102,63.0,30.0,150.0,10.0,0.0
12103,59.0,30.0,15.0,8.0,0.0
12104,63.0,30.0,30.0,11.0,0.0
12105,69.0,0.0,30.0,8.0,0.0
12106,59.0,30.0,30.0,8.0,0.0
12107,69.0,0.0,30.0,8.0,0.0
12108,59.0,30.0,120.0,11.0,0.0
12109,59.0,30.0,30.0,8.0,0.0
12110,69.0,0.0,30.0,8.0,0.0
12111,69.0,0.0,30.0,8.0,0.0
12112,59.0,0.0,30.0,8.0,0.0
12113,59.0,0.0,30.0,10.0,0.0
12114,59.0,0.0,30.0,8.0,0.0
12115,71.0,0.0,30.0,7.0,0.0
12116,69.0,0.0,15.0,8.0,0.0
12117,69.0,0.0,60.0,7.0,0.0
12118,57.0,0.0,60.0,10.0,0.0
12119,59.0,30.0,15.0,8.0,0.0
12120,69.0,0.0,30.0,8.0,0.0
12121,47.0,0.0,30.0,11.0,0.0
12122,87.0,0.0,90.0,0.0,0.0
12123,56.0,0.0,120.0,10.0,0.0
12124,60.0,0.0,120.0,8.0,0.0
12125,80.0,0.0,90.0,1.0,0.0
12126,87.0,0.0,15.0,1.0,0.0
12127,80.0,0.0,120.0,7.0,0.0
12128,80.0,0.0,90.0,2.0,0.0
12129,68.0,0.0,90.0,3.0,0.0
12130,68.0,0.0,120.0,7.0,0.0
12131,75.0,0.0,120.0,7.0,0.0
12132,48.0,0.0,120.0,11.0,0.0
12133,56.0,0.0,120.0,6.0,0.0
12134,68.0,0.0,120.0,8.0,0.0
12135,75.0,0.0,90.0,2.0,0.0
12136,68.0,0.0,120.0,5.0,0.0
12137,63.0,0.0,15.0,3.0,0.0
12138,80.0,0.0,30.0,1.0,0.0
12139,92.0,0.0,15.0,0.0,0.0
12140,68.0,30.0,15.0,4.0,0.0
12141,56.0,0.0,15.0,4.0,0.0
12142,60.0,0.0,30.0,3.0,0.0
12143,72.0,0.0,15.0,2.0,0.0
12144,63.0,0.0,15.0,3.0,0.0
12145,68.0,0.0,15.0,4.0,0.0
12146,60.0,0.0,60.0,3.0,0.0
12147,75.0,0.0,15.0,2.0,0.0
12148,84.0,0.0,15.0,1.0,0.0
12149,87.0,0.0,15.0,0.0,0.0
12150,92.0,60.0,15.0,0.0,0.0
12151,68.0,0.0,15.0,4.0,0.0
12152,56.0,0.0,15.0,4.0,0.0
12153,87.0,0.0,15.0,0.0,0.0
12154,63.0,0.0,90.0,3.0,0.0
12155,84.0,0.0,15.0,1.0,0.0
12156,80.0,0.0,15.0,1.0,0.0
12157,75.0,90.0,15.0,2.0,0.0
12158,72.0,0.0,15.0,2.0,0.0
12159,72.0,0.0,30.0,2.0,0.0
12160,84.0,0.0,15.0,1.0,0.0
12161,80.0,0.0,15.0,1.0,0.0
12162,56.0,0.0,15.0,4.0,0.0
12163,60.0,0.0,15.0,3.0,0.0
12164,68.0,0.0,15.0,4.0,0.0
12165,92.0,30.0,15.0,0.0,0.0
12166,68.0,0.0,15.0,4.0,0.0
12167,72.0,0.0,60.0,2.0,0.0
12168,75.0,0.0,15.0,2.0,0.0
12169,84.0,0.0,60.0,1.0,0.0
12170,80.0,90.0,60.0,1.0,0.0
12171,56.0,0.0,15.0,4.0,0.0
12172,63.0,60.0,15.0,3.0,0.0
12173,87.0,0.0,15.0,0.0,0.0
12174,92.0,0.0,60.0,0.0,0.0
12175,56.0,0.0,15.0,4.0,0.0
12176,63.0,0.0,15.0,3.0,0.0
12177,60.0,0.0,15.0,3.0,0.0
12178,84.0,0.0,90.0,1.0,0.0
12179,80.0,0.0,90.0,1.0,0.0
12180,92.0,0.0,15.0,0.0,0.0
12181,87.0,0.0,15.0,0.0,0.0
12182,75.0,0.0,15.0,2.0,0.0
12183,72.0,0.0,15.0,2.0,0.0
12184,68.0,0.0,15.0,4.0,0.0
12185,80.0,0.0,30.0,1.0,0.0
12186,63.0,0.0,30.0,3.0,0.0
12187,60.0,0.0,15.0,3.0,0.0
12188,84.0,0.0,30.0,1.0,0.0
12189,75.0,0.0,15.0,2.0,0.0
12190,72.0,0.0,15.0,2.0,0.0
12191,80.0,0.0,60.0,1.0,0.0
12192,84.0,0.0,60.0,1.0,0.0
12193,68.0,60.0,15.0,4.0,0.0
12194,56.0,0.0,15.0,4.0,0.0
12195,60.0,0.0,60.0,3.0,0.0
12196,84.0,0.0,90.0,1.0,0.0
12197,80.0,0.0,90.0,1.0,0.0
12198,60.0,0.0,90.0,3.0,0.0
12199,63.0,0.0,15.0,3.0,0.0
12200,56.0,0.0,90.0,4.0,0.0
12201,68.0,0.0,90.0,4.0,0.0
12202,87.0,90.0,15.0,0.0,0.0
12203,92.0,0.0,15.0,0.0,0.0
12204,75.0,0.0,90.0,2.0,0.0
12205,72.0,30.0,90.0,2.0,0.0
12206,68.0,0.0,30.0,4.0,0.0
12207,60.0,0.0,30.0,3.0,0.0
12208,92.0,0.0,15.0,0.0,0.0
12209,87.0,0.0,15.0,0.0,0.0
12210,80.0,0.0,30.0,1.0,0.0
12211,56.0,0.0,15.0,4.0,0.0
12212,92.0,0.0,15.0,0.0,0.0
12213,60.0,0.0,60.0,3.0,0.0
12214,75.0,0.0,15.0,2.0,0.0
12215,72.0,0.0,15.0,2.0,0.0
12216,84.0,0.0,15.0,1.0,0.0
12217,63.0,60.0,15.0,3.0,0.0
12218,68.0,0.0,90.0,10.0,0.0
12219,75.0,0.0,15.0,2.0,0.0
12220,72.0,0.0,1560.0,2.0,0.0
12221,63.0,0.0,1560.0,3.0,0.0
12222,63.0,30.0,60.0,10.0,0.0
12223,56.0,0.0,60.0,10.0,0.0
12224,87.0,0.0,15.0,0.0,0.0
12225,92.0,0.0,15.0,0.0,0.0
12226,68.0,0.0,30.0,8.0,0.0
12227,60.0,0.0,1560.0,3.0,0.0
12228,68.0,30.0,15.0,4.0,0.0
12229,80.0,30.0,90.0,7.0,0.0
12230,75.0,0.0,60.0,7.0,0.0
12231,68.0,0.0,60.0,7.0,0.0
12232,56.0,0.0,120.0,6.0,0.0
12233,56.0,0.0,15.0,4.0,0.0
12234,48.0,0.0,120.0,11.0,0.0
12235,68.0,0.0,1560.0,5.0,0.0
12236,84.0,0.0,15.0,1.0,0.0
12237,80.0,0.0,15.0,1.0,0.0
12238,68.0,0.0,30.0,8.0,0.0
12239,60.0,30.0,15.0,8.0,0.0
12240,68.0,0.0,30.0,8.0,0.0
12241,60.0,0.0,15.0,8.0,0.0
12242,80.0,0.0,30.0,10.0,0.0
12243,92.0,30.0,30.0,7.0,0.0
12244,68.0,0.0,15.0,8.0,0.0
12245,60.0,0.0,15.0,8.0,0.0
12246,87.0,0.0,60.0,7.0,0.0
12247,60.0,0.0,30.0,8.0,0.0
12248,68.0,0.0,15.0,8.0,0.0
12249,60.0,30.0,90.0,11.0,0.0
12250,75.0,30.0,15.0,10.0,0.0
12251,60.0,30.0,30.0,8.0,0.0
12252,68.0,0.0,15.0,8.0,0.0
12253,68.0,30.0,15.0,8.0,0.0
12254,60.0,0.0,15.0,8.0,0.0
12255,60.0,0.0,30.0,8.0,0.0
12256,68.0,30.0,30.0,11.0,0.0
12257,68.0,0.0,30.0,8.0,0.0
12258,60.0,30.0,30.0,8.0,0.0
12259,68.0,0.0,30.0,8.0,0.0
12260,68.0,0.0,15.0,8.0,0.0
12261,60.0,0.0,15.0,8.0,0.0
12262,63.0,30.0,15.0,11.0,0.0
12263,56.0,0.0,120.0,6.0,0.0
12264,68.0,0.0,15.0,8.0,0.0
12265,60.0,30.0,15.0,8.0,0.0
12266,75.0,0.0,15.0,10.0,0.0
12267,87.0,30.0,15.0,7.0,0.0
12268,84.0,0.0,60.0,7.0,0.0
12269,72.0,0.0,60.0,10.0,0.0
12270,68.0,30.0,15.0,8.0,0.0
12271,60.0,0.0,15.0,8.0,0.0
12272,68.0,30.0,15.0,8.0,0.0
12273,60.0,0.0,15.0,8.0,0.0
12274,84.0,0.0,270.0,7.0,0.0
12275,68.0,0.0,15.0,8.0,0.0
12276,60.0,30.0,15.0,8.0,0.0
12277,68.0,0.0,15.0,8.0,0.0
12278,68.0,30.0,15.0,8.0,0.0
12279,60.0,0.0,15.0,8.0,0.0
12280,63.0,0.0,30.0,11.0,0.0
12281,60.0,30.0,60.0,11.0,0.0
12282,68.0,30.0,15.0,8.0,0.0
12283,60.0,0.0,15.0,8.0,0.0
12284,60.0,0.0,15.0,8.0,0.0
12285,68.0,30.0,15.0,8.0,0.0
12286,56.0,0.0,120.0,6.0,0.0
12287,60.0,0.0,30.0,8.0,0.0
12288,60.0,0.0,120.0,11.0,0.0
12289,60.0,30.0,30.0,8.0,0.0
12290,68.0,30.0,15.0,8.0,0.0
12291,60.0,0.0,30.0,8.0,0.0
12292,68.0,0.0,15.0,8.0,0.0
12293,84.0,30.0,30.0,7.0,0.0
12294,72.0,30.0,15.0,10.0,0.0
12295,68.0,30.0,30.0,8.0,0.0
12296,60.0,0.0,15.0,8.0,0.0
12297,68.0,30.0,30.0,11.0,0.0
12298,60.0,0.0,30.0,8.0,0.0
12299,68.0,0.0,30.0,8.0,0.0
12300,56.0,0.0,120.0,6.0,0.0
12301,60.0,30.0,30.0,8.0,0.0
12302,63.0,0.0,120.0,11.0,0.0
12303,68.0,0.0,15.0,8.0,0.0
12304,60.0,0.0,15.0,8.0,0.0
12305,68.0,30.0,15.0,8.0,0.0
12306,68.0,30.0,15.0,10.0,0.0
12307,80.0,0.0,15.0,7.0,0.0
12308,68.0,0.0,15.0,8.0,0.0
12309,60.0,30.0,15.0,8.0,0.0
12310,63.0,0.0,30.0,11.0,0.0
12311,68.0,30.0,15.0,8.0,0.0
12312,60.0,0.0,15.0,8.0,0.0
12313,60.0,0.0,120.0,11.0,0.0
12314,68.0,30.0,15.0,8.0,0.0
12315,60.0,0.0,15.0,8.0,0.0
12316,56.0,0.0,120.0,6.0,0.0
12317,60.0,30.0,30.0,8.0,0.0
12318,68.0,0.0,30.0,8.0,0.0
12319,68.0,0.0,30.0,8.0,0.0
12320,75.0,0.0,15.0,7.0,0.0
12321,60.0,30.0,15.0,8.0,0.0
12322,68.0,0.0,30.0,8.0,0.0
12323,63.0,0.0,15.0,10.0,0.0
12324,60.0,0.0,15.0,8.0,0.0
12325,60.0,0.0,30.0,11.0,0.0
12326,68.0,30.0,15.0,8.0,0.0
12327,56.0,0.0,120.0,6.0,0.0
12328,56.0,0.0,120.0,11.0,0.0
12329,68.0,30.0,15.0,8.0,0.0
12330,60.0,0.0,15.0,8.0,0.0
12331,60.0,30.0,15.0,8.0,0.0
12332,68.0,0.0,15.0,8.0,0.0
12333,68.0,30.0,15.0,8.0,0.0
12334,60.0,30.0,15.0,10.0,0.0
12335,72.0,0.0,15.0,7.0,0.0
12336,68.0,0.0,15.0,8.0,0.0
12337,60.0,0.0,15.0,8.0,0.0
12338,68.0,0.0,15.0,8.0,0.0
12339,60.0,0.0,15.0,8.0,0.0
12340,68.0,0.0,60.0,7.0,0.0
12341,68.0,30.0,15.0,8.0,0.0
12342,60.0,0.0,15.0,8.0,0.0
12343,68.0,0.0,90.0,8.0,0.0
12344,56.0,0.0,15.0,11.0,0.0
12345,56.0,90.0,15.0,10.0,0.0
12346,68.0,30.0,90.0,7.0,0.0
12347,56.0,0.0,120.0,6.0,0.0
12348,56.0,0.0,15.0,10.0,0.0
12349,68.0,0.0,30.0,8.0,0.0
12350,56.0,0.0,30.0,11.0,0.0
12351,68.0,60.0,30.0,7.0,0.0
12352,56.0,0.0,60.0,11.0,0.0
12353,56.0,0.0,15.0,10.0,0.0
12354,68.0,90.0,60.0,8.0,0.0
12355,68.0,0.0,60.0,7.0,0.0
12356,92.0,0.0,90.0,0.0,0.0
12357,68.0,0.0,90.0,2.0,0.0
12358,80.0,0.0,90.0,2.0,0.0
12359,80.0,30.0,15.0,0.0,0.0
12360,80.0,0.0,30.0,2.0,0.0
12361,80.0,0.0,15.0,1.0,0.0
12362,68.0,0.0,15.0,3.0,0.0
12363,68.0,0.0,30.0,2.0,0.0
12364,68.0,0.0,60.0,3.0,0.0
12365,92.0,60.0,15.0,0.0,0.0
12366,80.0,90.0,60.0,0.0,0.0
12367,80.0,0.0,60.0,1.0,0.0
12368,68.0,0.0,60.0,2.0,0.0
12369,80.0,0.0,60.0,2.0,0.0
12370,53.0,0.0,90.0,11.0,0.0
12371,65.0,0.0,90.0,8.0,0.0
12372,65.0,0.0,15.0,7.0,0.0
12373,53.0,30.0,15.0,10.0,0.0
12374,65.0,0.0,30.0,8.0,0.0
12375,41.0,0.0,15.0,11.0,0.0
12376,65.0,0.0,60.0,8.0,0.0
12377,53.0,0.0,15.0,11.0,0.0
12378,65.0,0.0,60.0,7.0,0.0
12379,53.0,60.0,15.0,10.0,0.0
12380,41.0,0.0,60.0,11.0,0.0
12381,69.0,0.0,90.0,3.0,0.0
12382,81.0,0.0,90.0,1.0,0.0
12383,93.0,0.0,90.0,0.0,0.0
12384,81.0,0.0,90.0,0.0,0.0
12385,81.0,0.0,15.0,2.0,0.0
12386,69.0,0.0,30.0,3.0,0.0
12387,81.0,0.0,30.0,1.0,0.0
12388,69.0,30.0,15.0,2.0,0.0
12389,81.0,0.0,60.0,1.0,0.0
12390,81.0,0.0,15.0,2.0,0.0
12391,69.0,0.0,15.0,2.0,0.0
12392,81.0,60.0,15.0,0.0,0.0
12393,93.0,0.0,15.0,0.0,0.0
12394,69.0,90.0,60.0,3.0,0.0
12395,65.0,30.0,90.0,7.0,0.0
12396,41.0,0.0,15.0,11.0,0.0
12397,53.0,0.0,15.0,11.0,0.0
12398,65.0,0.0,15.0,8.0,0.0
12399,53.0,0.0,15.0,10.0,0.0
12400,65.0,0.0,30.0,7.0,0.0
12401,65.0,0.0,15.0,8.0,0.0
12402,53.0,0.0,60.0,10.0,0.0
12403,65.0,0.0,60.0,7.0,0.0
12404,53.0,60.0,15.0,11.0,0.0
12405,41.0,90.0,60.0,11.0,0.0
12406,81.0,0.0,90.0,1.0,0.0
12407,69.0,0.0,90.0,2.0,0.0
12408,81.0,0.0,90.0,2.0,0.0
12409,93.0,0.0,15.0,0.0,0.0
12410,81.0,60.0,30.0,2.0,0.0
12411,69.0,0.0,15.0,3.0,0.0
12412,81.0,0.0,30.0,1.0,0.0
12413,69.0,0.0,30.0,2.0,0.0
12414,81.0,30.0,15.0,0.0,0.0
12415,93.0,0.0,60.0,0.0,0.0
12416,81.0,0.0,60.0,0.0,0.0
12417,69.0,0.0,15.0,3.0,0.0
12418,81.0,0.0,60.0,2.0,0.0
12419,69.0,0.0,60.0,2.0,0.0
12420,81.0,0.0,15.0,1.0,0.0
12421,65.0,0.0,360.0,3.0,0.0
12422,84.0,0.0,360.0,0.0,0.0
12423,85.0,0.0,330.0,0.0,0.0
12424,81.0,30.0,330.0,1.0,0.0
12425,64.0,0.0,360.0,3.0,0.0
12426,88.0,90.0,30.0,0.0,0.0
12427,85.0,0.0,15.0,1.0,0.0
12428,64.0,30.0,90.0,10.0,0.0
12429,64.0,0.0,360.0,3.0,0.0
12430,57.0,0.0,360.0,3.0,0.0
12431,88.0,0.0,270.0,0.0,0.0
12432,66.0,60.0,30.0,10.0,0.0
12433,68.0,90.0,60.0,10.0,0.0
12434,69.0,0.0,90.0,10.0,0.0
12435,86.0,0.0,30.0,0.0,0.0
12436,68.0,0.0,30.0,10.0,0.0
12437,83.0,60.0,30.0,1.0,0.0
12438,69.0,0.0,60.0,10.0,0.0
12439,85.0,0.0,60.0,0.0,0.0
12440,81.0,90.0,60.0,1.0,0.0
12441,83.0,0.0,120.0,1.0,0.0
12442,64.0,0.0,120.0,3.0,0.0
12443,86.0,0.0,120.0,0.0,0.0
12444,71.0,30.0,15.0,10.0,0.0
12445,78.0,0.0,30.0,7.0,0.0
12446,74.0,0.0,30.0,8.0,0.0
12447,80.0,0.0,60.0,7.0,0.0
12448,74.0,0.0,60.0,8.0,0.0
12449,71.0,60.0,60.0,10.0,0.0
12450,81.0,60.0,60.0,7.0,0.0
12451,73.0,0.0,60.0,8.0,0.0
12452,81.0,0.0,120.0,1.0,0.0
12453,69.0,0.0,60.0,10.0,0.0
12454,69.0,0.0,120.0,3.0,0.0
12455,85.0,60.0,120.0,0.0,0.0
12456,73.0,0.0,30.0,7.0,0.0
12457,69.0,0.0,30.0,8.0,0.0
12458,69.0,0.0,60.0,8.0,0.0
12459,75.0,60.0,60.0,7.0,0.0
12460,66.0,0.0,15.0,10.0,0.0
12461,74.0,0.0,120.0,1.0,0.0
12462,52.0,0.0,120.0,3.0,0.0
12463,64.0,0.0,120.0,3.0,0.0
12464,68.0,0.0,120.0,8.0,0.0
12465,64.0,60.0,60.0,10.0,0.0
12466,76.0,0.0,120.0,7.0,0.0
12467,83.0,0.0,120.0,0.0,0.0
12468,54.0,0.0,30.0,11.0,0.0
12469,62.0,60.0,30.0,10.0,0.0
12470,56.0,60.0,60.0,11.0,0.0
12471,62.0,0.0,60.0,10.0,0.0
12472,73.0,60.0,120.0,1.0,0.0
12473,64.0,0.0,120.0,3.0,0.0
12474,57.0,0.0,120.0,3.0,0.0
12475,61.0,60.0,60.0,10.0,0.0
12476,81.0,0.0,120.0,0.0,0.0
12477,57.0,0.0,60.0,11.0,0.0
12478,49.0,0.0,30.0,11.0,0.0
12479,57.0,0.0,15.0,10.0,0.0
12480,51.0,0.0,60.0,11.0,0.0
12481,83.0,0.0,30.0,2.0,0.0
12482,71.0,0.0,30.0,2.0,0.0
12483,68.0,0.0,270.0,3.0,0.0
12484,56.0,60.0,120.0,10.0,0.0
12485,52.0,0.0,120.0,11.0,0.0
12486,72.0,30.0,90.0,8.0,0.0
12487,73.0,0.0,30.0,8.0,0.0
12488,75.0,90.0,60.0,8.0,0.0
12489,76.0,0.0,90.0,8.0,0.0
12490,66.0,0.0,30.0,3.0,0.0
12491,83.0,30.0,15.0,2.0,0.0
12492,71.0,0.0,15.0,2.0,0.0
12493,75.0,0.0,30.0,8.0,0.0
12494,71.0,0.0,15.0,2.0,0.0
12495,83.0,60.0,15.0,2.0,0.0
12496,64.0,0.0,60.0,3.0,0.0
12497,76.0,90.0,60.0,8.0,0.0
12498,78.0,30.0,90.0,8.0,0.0
12499,71.0,0.0,120.0,3.0,0.0
12500,81.0,60.0,120.0,2.0,0.0
12501,71.0,0.0,120.0,2.0,0.0
12502,69.0,0.0,30.0,10.0,0.0
12503,73.0,0.0,30.0,7.0,0.0
12504,66.0,0.0,30.0,8.0,0.0
12505,75.0,0.0,60.0,7.0,0.0
12506,66.0,0.0,60.0,8.0,0.0
12507,69.0,60.0,60.0,10.0,0.0
12508,80.0,0.0,120.0,2.0,0.0
12509,64.0,0.0,120.0,3.0,0.0
12510,76.0,60.0,60.0,7.0,0.0
12511,71.0,0.0,120.0,2.0,0.0
12512,68.0,0.0,60.0,10.0,0.0
12513,64.0,0.0,60.0,8.0,0.0
12514,68.0,60.0,30.0,7.0,0.0
12515,59.0,0.0,30.0,8.0,0.0
12516,64.0,0.0,30.0,10.0,0.0
12517,59.0,60.0,60.0,8.0,0.0
12518,64.0,0.0,60.0,10.0,0.0
12519,70.0,0.0,60.0,7.0,0.0
12520,71.0,0.0,120.0,7.0,0.0
12521,59.0,0.0,120.0,3.0,0.0
12522,59.0,60.0,60.0,8.0,0.0
12523,69.0,0.0,120.0,3.0,0.0
12524,63.0,0.0,120.0,10.0,0.0
12525,71.0,0.0,120.0,2.0,0.0
12526,78.0,60.0,120.0,2.0,0.0
12527,49.0,0.0,30.0,11.0,0.0
12528,69.0,0.0,30.0,8.0,0.0
12529,69.0,60.0,60.0,8.0,0.0
12530,51.0,0.0,60.0,11.0,0.0
12531,71.0,0.0,120.0,2.0,0.0
12532,76.0,0.0,120.0,2.0,0.0
12533,68.0,0.0,120.0,3.0,0.0
12534,52.0,0.0,120.0,3.0,0.0
12535,68.0,60.0,60.0,8.0,0.0
12536,52.0,0.0,60.0,11.0,0.0
12537,56.0,60.0,30.0,11.0,0.0
12538,64.0,0.0,30.0,8.0,0.0
12539,58.0,0.0,60.0,11.0,0.0
12540,64.0,90.0,60.0,8.0,0.0
12541,90.0,0.0,30.0,0.0,0.0
12542,66.0,30.0,90.0,10.0,0.0
12543,90.0,0.0,270.0,0.0,0.0
12544,59.0,0.0,120.0,11.0,0.0
12545,78.0,0.0,15.0,1.0,0.0
12546,74.0,0.0,270.0,1.0,0.0
12547,62.0,0.0,120.0,8.0,0.0
12548,68.0,60.0,30.0,10.0,0.0
12549,70.0,90.0,60.0,10.0,0.0
12550,71.0,30.0,90.0,10.0,0.0
12551,78.0,0.0,30.0,1.0,0.0
12552,88.0,0.0,30.0,0.0,0.0
12553,73.0,0.0,30.0,1.0,0.0
12554,70.0,60.0,30.0,10.0,0.0
12555,71.0,0.0,60.0,1.0,0.0
12556,86.0,0.0,60.0,0.0,0.0
12557,71.0,0.0,60.0,10.0,0.0
12558,88.0,0.0,120.0,0.0,0.0
12559,78.0,90.0,15.0,1.0,0.0
12560,73.0,30.0,90.0,10.0,0.0
12561,66.0,0.0,120.0,1.0,0.0
12562,80.0,0.0,30.0,7.0,0.0
12563,82.0,0.0,60.0,7.0,0.0
12564,76.0,0.0,15.0,8.0,0.0
12565,73.0,60.0,15.0,10.0,0.0
12566,71.0,60.0,60.0,10.0,0.0
12567,78.0,0.0,120.0,1.0,0.0
12568,71.0,0.0,120.0,1.0,0.0
12569,86.0,0.0,120.0,0.0,0.0
12570,74.0,0.0,60.0,8.0,0.0
12571,83.0,0.0,60.0,7.0,0.0
12572,74.0,0.0,30.0,7.0,0.0
12573,71.0,0.0,15.0,8.0,0.0
12574,76.0,60.0,60.0,7.0,0.0
12575,66.0,60.0,15.0,10.0,0.0
12576,66.0,0.0,15.0,10.0,0.0
12577,70.0,0.0,120.0,8.0,0.0
12578,85.0,60.0,120.0,0.0,0.0
12579,76.0,0.0,120.0,1.0,0.0
12580,66.0,0.0,120.0,1.0,0.0
12581,78.0,0.0,120.0,7.0,0.0
12582,56.0,0.0,30.0,11.0,0.0
12583,58.0,0.0,60.0,11.0,0.0
12584,64.0,0.0,15.0,10.0,0.0
12585,59.0,60.0,60.0,11.0,0.0
12586,74.0,60.0,120.0,1.0,0.0
12587,66.0,0.0,120.0,1.0,0.0
12588,83.0,0.0,120.0,0.0,0.0
12589,62.0,0.0,60.0,10.0,0.0
12590,59.0,0.0,30.0,10.0,0.0
12591,50.0,0.0,30.0,11.0,0.0
12592,59.0,0.0,60.0,10.0,0.0
12593,52.0,0.0,60.0,11.0,0.0
12594,85.0,0.0,30.0,1.0,0.0
12595,73.0,90.0,30.0,2.0,0.0
12596,54.0,60.0,120.0,11.0,0.0
12597,73.0,30.0,90.0,8.0,0.0
12598,69.0,0.0,270.0,3.0,0.0
12599,57.0,0.0,120.0,10.0,0.0
12600,73.0,0.0,270.0,2.0,0.0
12601,85.0,30.0,270.0,1.0,0.0
12602,75.0,0.0,30.0,8.0,0.0
12603,77.0,90.0,60.0,8.0,0.0
12604,85.0,0.0,90.0,0.0,0.0
12605,78.0,0.0,90.0,8.0,0.0
12606,89.0,60.0,30.0,0.0,0.0
12607,68.0,0.0,30.0,3.0,0.0
12608,83.0,0.0,30.0,1.0,0.0
12609,77.0,0.0,30.0,8.0,0.0
12610,73.0,0.0,30.0,2.0,0.0
12611,81.0,0.0,60.0,1.0,0.0
12612,78.0,0.0,60.0,8.0,0.0
12613,73.0,0.0,60.0,2.0,0.0
12614,66.0,0.0,60.0,3.0,0.0
12615,90.0,90.0,60.0,0.0,0.0
12616,80.0,30.0,90.0,8.0,0.0
12617,73.0,0.0,120.0,2.0,0.0
12618,83.0,0.0,120.0,1.0,0.0
12619,61.0,0.0,120.0,3.0,0.0
12620,92.0,60.0,120.0,0.0,0.0
12621,75.0,0.0,30.0,7.0,0.0
12622,77.0,0.0,60.0,7.0,0.0
12623,68.0,0.0,15.0,8.0,0.0
12624,71.0,0.0,15.0,10.0,0.0
12625,69.0,60.0,60.0,10.0,0.0
12626,78.0,0.0,60.0,7.0,0.0
12627,66.0,0.0,60.0,8.0,0.0
12628,90.0,0.0,120.0,0.0,0.0
12629,81.0,0.0,120.0,1.0,0.0
12630,66.0,0.0,120.0,3.0,0.0
12631,73.0,0.0,120.0,2.0,0.0
12632,69.0,0.0,30.0,7.0,0.0
12633,69.0,0.0,15.0,10.0,0.0
12634,71.0,0.0,60.0,7.0,0.0
12635,66.0,60.0,15.0,8.0,0.0
12636,80.0,0.0,120.0,2.0,0.0
12637,83.0,60.0,120.0,2.0,0.0
12638,68.0,0.0,120.0,3.0,0.0
12639,73.0,0.0,120.0,4.0,0.0
12640,61.0,0.0,120.0,4.0,0.0
12641,71.0,0.0,120.0,3.0,0.0
12642,73.0,0.0,120.0,7.0,0.0
12643,65.0,0.0,120.0,8.0,0.0
12644,68.0,60.0,60.0,10.0,0.0
12645,59.0,0.0,30.0,10.0,0.0
12646,51.0,0.0,30.0,11.0,0.0
12647,53.0,60.0,60.0,11.0,0.0
12648,59.0,0.0,60.0,10.0,0.0
12649,61.0,0.0,120.0,4.0,0.0
12650,73.0,60.0,120.0,4.0,0.0
12651,54.0,60.0,60.0,11.0,0.0
12652,81.0,0.0,120.0,2.0,0.0
12653,57.0,0.0,60.0,10.0,0.0
12654,78.0,0.0,120.0,2.0,0.0
12655,66.0,0.0,120.0,3.0,0.0
12656,69.0,0.0,120.0,3.0,0.0
12657,45.0,0.0,30.0,11.0,0.0
12658,54.0,0.0,15.0,10.0,0.0
12659,47.0,0.0,60.0,11.0,0.0
12660,73.0,0.0,120.0,2.0,0.0
12661,53.0,60.0,60.0,10.0,0.0
12662,92.0,60.0,120.0,0.0,0.0
12663,61.0,0.0,120.0,3.0,0.0
12664,83.0,0.0,120.0,1.0,0.0
12665,49.0,0.0,120.0,11.0,0.0
12666,75.0,0.0,30.0,7.0,0.0
12667,68.0,0.0,30.0,8.0,0.0
12668,68.0,0.0,60.0,8.0,0.0
12669,71.0,0.0,15.0,10.0,0.0
12670,77.0,0.0,60.0,7.0,0.0
12671,66.0,0.0,120.0,3.0,0.0
12672,90.0,0.0,120.0,0.0,0.0
12673,66.0,0.0,60.0,8.0,0.0
12674,81.0,0.0,120.0,1.0,0.0
12675,69.0,60.0,60.0,10.0,0.0
12676,78.0,0.0,60.0,7.0,0.0
12677,73.0,0.0,120.0,2.0,0.0
12678,69.0,0.0,30.0,7.0,0.0
12679,66.0,60.0,30.0,8.0,0.0
12680,69.0,0.0,15.0,10.0,0.0
12681,71.0,60.0,60.0,7.0,0.0
12682,66.0,0.0,60.0,8.0,0.0
12683,80.0,0.0,120.0,2.0,0.0
12684,68.0,60.0,60.0,10.0,0.0
12685,83.0,0.0,120.0,2.0,0.0
12686,73.0,0.0,120.0,4.0,0.0
12687,61.0,0.0,120.0,4.0,0.0
12688,68.0,0.0,120.0,3.0,0.0
12689,71.0,0.0,120.0,3.0,0.0
12690,73.0,0.0,120.0,7.0,0.0
12691,65.0,0.0,120.0,8.0,0.0
12692,51.0,0.0,30.0,11.0,0.0
12693,53.0,0.0,60.0,11.0,0.0
12694,59.0,60.0,15.0,10.0,0.0
12695,69.0,0.0,120.0,3.0,0.0
12696,66.0,0.0,120.0,3.0,0.0
12697,73.0,60.0,120.0,4.0,0.0
12698,61.0,0.0,120.0,4.0,0.0
12699,54.0,0.0,60.0,11.0,0.0
12700,81.0,0.0,120.0,2.0,0.0
12701,78.0,0.0,120.0,2.0,0.0
12702,58.0,60.0,60.0,10.0,0.0
12703,45.0,0.0,30.0,11.0,0.0
12704,54.0,0.0,15.0,10.0,0.0
12705,47.0,0.0,60.0,11.0,0.0
12706,53.0,0.0,60.0,10.0,0.0
12707,61.0,0.0,90.0,4.0,0.0
12708,73.0,0.0,90.0,4.0,0.0
12709,49.0,30.0,60.0,11.0,0.0
12710,77.0,30.0,90.0,2.0,0.0
12711,80.0,0.0,90.0,2.0,0.0
12712,73.0,0.0,30.0,2.0,0.0
12713,49.0,60.0,30.0,11.0,0.0
12714,53.0,0.0,30.0,10.0,0.0
12715,85.0,0.0,30.0,2.0,0.0
12716,73.0,0.0,15.0,4.0,0.0
12717,61.0,0.0,15.0,4.0,0.0
12718,54.0,0.0,60.0,10.0,0.0
12719,51.0,0.0,60.0,11.0,0.0
12720,85.0,0.0,60.0,2.0,0.0
12721,56.0,30.0,60.0,10.0,0.0
12722,53.0,0.0,60.0,11.0,0.0
12723,73.0,0.0,90.0,4.0,0.0
12724,61.0,30.0,90.0,4.0,0.0
12725,73.0,60.0,15.0,2.0,0.0
12726,85.0,0.0,15.0,2.0,0.0
12727,73.0,0.0,15.0,2.0,0.0
12728,51.0,0.0,30.0,11.0,0.0
12729,61.0,0.0,30.0,4.0,0.0
12730,73.0,0.0,30.0,4.0,0.0
12731,54.0,0.0,30.0,10.0,0.0
12732,85.0,60.0,15.0,2.0,0.0
12733,53.0,0.0,60.0,11.0,0.0
12734,61.0,0.0,60.0,4.0,0.0
12735,56.0,60.0,60.0,10.0,0.0
12736,73.0,0.0,60.0,2.0,0.0
12737,73.0,0.0,60.0,4.0,0.0
12738,54.0,0.0,60.0,11.0,0.0
12739,73.0,30.0,90.0,4.0,0.0
12740,57.0,30.0,60.0,10.0,0.0
12741,85.0,0.0,90.0,2.0,0.0
12742,73.0,0.0,90.0,2.0,0.0
12743,61.0,0.0,90.0,4.0,0.0
12744,73.0,0.0,30.0,2.0,0.0
12745,85.0,0.0,30.0,2.0,0.0
12746,56.0,60.0,30.0,10.0,0.0
12747,53.0,0.0,30.0,11.0,0.0
12748,73.0,0.0,15.0,4.0,0.0
12749,61.0,0.0,15.0,4.0,0.0
12750,57.0,0.0,60.0,10.0,0.0
12751,85.0,0.0,60.0,2.0,0.0
12752,54.0,0.0,60.0,11.0,0.0
12753,59.0,0.0,60.0,10.0,0.0
12754,73.0,0.0,15.0,4.0,0.0
12755,73.0,60.0,15.0,2.0,0.0
12756,85.0,0.0,90.0,2.0,0.0
12757,56.0,30.0,60.0,11.0,0.0
12758,61.0,0.0,90.0,4.0,0.0
12759,73.0,0.0,30.0,4.0,0.0
12760,73.0,30.0,15.0,2.0,0.0
12761,54.0,0.0,30.0,11.0,0.0
12762,58.0,0.0,30.0,10.0,0.0
12763,61.0,60.0,15.0,4.0,0.0
12764,85.0,0.0,15.0,2.0,0.0
12765,59.0,0.0,60.0,10.0,0.0
12766,56.0,0.0,60.0,11.0,0.0
12767,73.0,0.0,15.0,4.0,0.0
12768,61.0,60.0,15.0,4.0,0.0
12769,73.0,0.0,15.0,2.0,0.0
12770,66.0,30.0,60.0,8.0,0.0
12771,61.0,0.0,780.0,10.0,0.0
12772,78.0,0.0,60.0,7.0,0.0
12773,62.0,30.0,90.0,3.0,0.0
12774,57.0,30.0,780.0,11.0,0.0
12775,73.0,0.0,15.0,2.0,0.0
12776,85.0,0.0,15.0,2.0,0.0
12777,66.0,0.0,30.0,8.0,0.0
12778,73.0,0.0,15.0,4.0,0.0
12779,61.0,0.0,15.0,4.0,0.0
12780,61.0,0.0,15.0,3.0,0.0
12781,74.0,0.0,15.0,1.0,0.0
12782,86.0,0.0,15.0,1.0,0.0
12783,62.0,0.0,15.0,3.0,0.0
12784,61.0,0.0,60.0,3.0,0.0
12785,68.0,0.0,60.0,8.0,0.0
12786,80.0,0.0,60.0,7.0,0.0
12787,73.0,60.0,15.0,4.0,0.0
12788,85.0,0.0,15.0,2.0,0.0
12789,69.0,30.0,60.0,8.0,0.0
12790,81.0,0.0,60.0,7.0,0.0
12791,62.0,0.0,90.0,3.0,0.0
12792,61.0,0.0,90.0,3.0,0.0
12793,73.0,0.0,15.0,4.0,0.0
12794,74.0,0.0,15.0,1.0,0.0
12795,86.0,0.0,15.0,1.0,0.0
12796,61.0,0.0,15.0,4.0,0.0
12797,73.0,60.0,15.0,2.0,0.0
12798,85.0,0.0,15.0,2.0,0.0
12799,73.0,0.0,30.0,2.0,0.0
12800,73.0,30.0,15.0,4.0,0.0
12801,61.0,0.0,15.0,4.0,0.0
12802,68.0,0.0,30.0,8.0,0.0
12803,61.0,0.0,15.0,4.0,0.0
12804,61.0,0.0,15.0,3.0,0.0
12805,62.0,0.0,15.0,3.0,0.0
12806,81.0,60.0,60.0,7.0,0.0
12807,73.0,0.0,60.0,4.0,0.0
12808,69.0,0.0,60.0,8.0,0.0
12809,73.0,0.0,60.0,2.0,0.0
12810,74.0,0.0,15.0,1.0,0.0
12811,86.0,60.0,15.0,1.0,0.0
12812,85.0,0.0,60.0,2.0,0.0
12813,62.0,0.0,15.0,3.0,0.0
12814,74.0,0.0,15.0,1.0,0.0
12815,86.0,0.0,15.0,1.0,0.0
12816,71.0,30.0,60.0,8.0,0.0
12817,61.0,0.0,90.0,3.0,0.0
12818,83.0,0.0,60.0,7.0,0.0
12819,73.0,30.0,90.0,2.0,0.0
12820,73.0,0.0,15.0,4.0,0.0
12821,62.0,0.0,15.0,3.0,0.0
12822,61.0,0.0,15.0,4.0,0.0
12823,74.0,0.0,15.0,1.0,0.0
12824,86.0,0.0,30.0,1.0,0.0
12825,85.0,0.0,15.0,2.0,0.0
12826,81.0,0.0,30.0,7.0,0.0
12827,69.0,0.0,30.0,8.0,0.0
12828,73.0,0.0,30.0,2.0,0.0
12829,61.0,0.0,15.0,4.0,0.0
12830,62.0,0.0,15.0,3.0,0.0
12831,85.0,60.0,15.0,2.0,0.0
12832,83.0,60.0,60.0,7.0,0.0
12833,71.0,0.0,60.0,8.0,0.0
12834,61.0,0.0,15.0,3.0,0.0
12835,73.0,0.0,60.0,4.0,0.0
12836,85.0,30.0,60.0,7.0,0.0
12837,62.0,0.0,15.0,3.0,0.0
12838,73.0,0.0,15.0,2.0,0.0
12839,85.0,0.0,15.0,2.0,0.0
12840,73.0,0.0,60.0,8.0,0.0
12841,74.0,0.0,15.0,1.0,0.0
12842,86.0,0.0,15.0,1.0,0.0
12843,73.0,0.0,90.0,4.0,0.0
12844,61.0,0.0,15.0,3.0,0.0
12845,62.0,0.0,15.0,3.0,0.0
12846,73.0,0.0,30.0,2.0,0.0
12847,85.0,30.0,15.0,2.0,0.0
12848,61.0,0.0,15.0,4.0,0.0
12849,83.0,0.0,30.0,7.0,0.0
12850,71.0,0.0,30.0,8.0,0.0
12851,61.0,0.0,15.0,4.0,0.0
12852,73.0,0.0,60.0,2.0,0.0
12853,73.0,0.0,15.0,4.0,0.0
12854,61.0,0.0,15.0,3.0,0.0
12855,86.0,0.0,15.0,1.0,0.0
12856,73.0,0.0,60.0,8.0,0.0
12857,85.0,0.0,60.0,7.0,0.0
12858,74.0,0.0,15.0,1.0,0.0
12859,62.0,60.0,15.0,3.0,0.0
12860,85.0,0.0,15.0,2.0,0.0
12861,86.0,0.0,90.0,1.0,0.0
12862,74.0,0.0,90.0,1.0,0.0
12863,86.0,30.0,780.0,7.0,0.0
12864,61.0,0.0,15.0,3.0,0.0
12865,62.0,0.0,15.0,3.0,0.0
12866,74.0,0.0,780.0,8.0,0.0
12867,73.0,0.0,15.0,4.0,0.0
12868,61.0,60.0,15.0,4.0,0.0
12869,73.0,0.0,15.0,2.0,0.0
12870,73.0,30.0,15.0,4.0,0.0
12871,61.0,0.0,30.0,3.0,0.0
12872,50.0,0.0,30.0,11.0,0.0
12873,54.0,0.0,30.0,10.0,0.0
12874,52.0,0.0,60.0,11.0,0.0
12875,86.0,0.0,15.0,1.0,0.0
12876,74.0,0.0,15.0,1.0,0.0
12877,56.0,0.0,60.0,10.0,0.0
12878,62.0,0.0,15.0,3.0,0.0
12879,85.0,0.0,15.0,2.0,0.0
12880,73.0,0.0,15.0,2.0,0.0
12881,61.0,60.0,15.0,4.0,0.0
12882,62.0,0.0,15.0,3.0,0.0
12883,86.0,0.0,15.0,1.0,0.0
12884,57.0,30.0,60.0,10.0,0.0
12885,61.0,0.0,15.0,3.0,0.0
12886,74.0,0.0,90.0,1.0,0.0
12887,73.0,0.0,15.0,4.0,0.0
12888,73.0,60.0,15.0,2.0,0.0
12889,54.0,0.0,60.0,11.0,0.0
12890,85.0,0.0,90.0,2.0,0.0
12891,86.0,0.0,15.0,1.0,0.0
12892,74.0,0.0,30.0,1.0,0.0
12893,61.0,0.0,15.0,4.0,0.0
12894,61.0,30.0,15.0,3.0,0.0
12895,56.0,0.0,30.0,10.0,0.0
12896,53.0,0.0,30.0,11.0,0.0
12897,73.0,0.0,30.0,4.0,0.0
12898,85.0,0.0,15.0,2.0,0.0
12899,54.0,0.0,60.0,11.0,0.0
12900,57.0,0.0,60.0,10.0,0.0
12901,61.0,0.0,15.0,3.0,0.0
12902,62.0,0.0,15.0,3.0,0.0
12903,73.0,0.0,15.0,2.0,0.0
12904,61.0,0.0,15.0,4.0,0.0
12905,86.0,60.0,15.0,1.0,0.0
12906,74.0,0.0,15.0,1.0,0.0
12907,59.0,30.0,60.0,10.0,0.0
12908,85.0,0.0,15.0,2.0,0.0
12909,73.0,0.0,15.0,2.0,0.0
12910,62.0,60.0,15.0,3.0,0.0
12911,73.0,0.0,15.0,4.0,0.0
12912,61.0,0.0,15.0,3.0,0.0
12913,61.0,0.0,90.0,4.0,0.0
12914,56.0,0.0,60.0,11.0,0.0
12915,74.0,0.0,15.0,1.0,0.0
12916,57.0,0.0,30.0,10.0,0.0
12917,86.0,0.0,15.0,1.0,0.0
12918,62.0,0.0,30.0,3.0,0.0
12919,61.0,0.0,30.0,3.0,0.0
12920,54.0,0.0,30.0,11.0,0.0
12921,73.0,0.0,30.0,4.0,0.0
12922,73.0,0.0,30.0,2.0,0.0
12923,85.0,0.0,30.0,2.0,0.0
12924,73.0,0.0,60.0,4.0,0.0
12925,85.0,0.0,60.0,2.0,0.0
12926,61.0,0.0,15.0,4.0,0.0
12927,56.0,0.0,60.0,11.0,0.0
12928,59.0,0.0,60.0,10.0,0.0
12929,73.0,0.0,60.0,2.0,0.0
12930,74.0,0.0,15.0,1.0,0.0
12931,62.0,0.0,60.0,3.0,0.0
12932,86.0,60.0,15.0,1.0,0.0
12933,61.0,0.0,15.0,3.0,0.0
12934,86.0,0.0,15.0,1.0,0.0
12935,74.0,60.0,15.0,1.0,0.0
12936,57.0,30.0,60.0,11.0,0.0
12937,61.0,0.0,90.0,4.0,0.0
12938,62.0,0.0,90.0,3.0,0.0
12939,61.0,0.0,60.0,10.0,0.0
12940,73.0,0.0,90.0,4.0,0.0
12941,59.0,0.0,30.0,10.0,0.0
12942,56.0,0.0,30.0,11.0,0.0
12943,86.0,0.0,15.0,1.0,0.0
12944,74.0,0.0,15.0,1.0,0.0
12945,73.0,0.0,15.0,2.0,0.0
12946,62.0,0.0,30.0,3.0,0.0
12947,85.0,30.0,15.0,2.0,0.0
12948,61.0,0.0,30.0,3.0,0.0
12949,57.0,0.0,60.0,11.0,0.0
12950,73.0,0.0,15.0,4.0,0.0
12951,61.0,0.0,15.0,4.0,0.0
12952,61.0,0.0,60.0,3.0,0.0
12953,61.0,0.0,60.0,10.0,0.0
12954,73.0,60.0,60.0,2.0,0.0
12955,85.0,60.0,15.0,2.0,0.0
12956,62.0,0.0,15.0,3.0,0.0
12957,86.0,0.0,15.0,1.0,0.0
12958,74.0,0.0,15.0,1.0,0.0
12959,71.0,0.0,60.0,4.0,0.0
12960,74.0,0.0,90.0,2.0,0.0
12961,62.0,30.0,780.0,10.0,0.0
12962,59.0,0.0,780.0,11.0,0.0
12963,86.0,30.0,90.0,2.0,0.0
12964,62.0,0.0,15.0,3.0,0.0
12965,86.0,0.0,15.0,1.0,0.0
12966,88.0,0.0,30.0,0.0,0.0
12967,80.0,0.0,30.0,7.0,0.0
12968,68.0,0.0,30.0,8.0,0.0
12969,64.0,0.0,15.0,3.0,0.0
12970,62.0,0.0,15.0,3.0,0.0
12971,81.0,0.0,60.0,7.0,0.0
12972,74.0,0.0,15.0,2.0,0.0
12973,76.0,0.0,15.0,2.0,0.0
12974,88.0,0.0,60.0,0.0,0.0
12975,76.0,60.0,15.0,1.0,0.0
12976,86.0,0.0,15.0,1.0,0.0
12977,69.0,0.0,60.0,8.0,0.0
12978,76.0,0.0,15.0,2.0,0.0
12979,74.0,0.0,15.0,2.0,0.0
12980,88.0,0.0,90.0,0.0,0.0
12981,83.0,0.0,60.0,7.0,0.0
12982,86.0,0.0,15.0,1.0,0.0
12983,62.0,0.0,90.0,3.0,0.0
12984,64.0,60.0,15.0,3.0,0.0
12985,71.0,30.0,60.0,8.0,0.0
12986,88.0,0.0,30.0,0.0,0.0
12987,81.0,0.0,30.0,7.0,0.0
12988,76.0,0.0,15.0,2.0,0.0
12989,86.0,0.0,15.0,1.0,0.0
12990,76.0,0.0,15.0,1.0,0.0
12991,69.0,0.0,30.0,8.0,0.0
12992,74.0,0.0,30.0,2.0,0.0
12993,88.0,0.0,60.0,0.0,0.0
12994,62.0,0.0,15.0,3.0,0.0
12995,76.0,60.0,15.0,1.0,0.0
12996,83.0,0.0,60.0,7.0,0.0
12997,71.0,0.0,60.0,8.0,0.0
12998,64.0,0.0,15.0,3.0,0.0
12999,86.0,0.0,15.0,1.0,0.0
13000,73.0,0.0,60.0,8.0,0.0
13001,64.0,0.0,15.0,3.0,0.0
13002,76.0,0.0,15.0,2.0,0.0
13003,74.0,60.0,15.0,2.0,0.0
13004,85.0,30.0,60.0,7.0,0.0
13005,76.0,0.0,15.0,1.0,0.0
13006,88.0,0.0,90.0,0.0,0.0
13007,62.0,0.0,90.0,3.0,0.0
13008,74.0,0.0,15.0,2.0,0.0
13009,83.0,0.0,30.0,7.0,0.0
13010,76.0,0.0,15.0,2.0,0.0
13011,76.0,0.0,30.0,1.0,0.0
13012,62.0,0.0,30.0,3.0,0.0
13013,71.0,0.0,30.0,8.0,0.0
13014,86.0,30.0,15.0,1.0,0.0
13015,86.0,0.0,15.0,1.0,0.0
13016,73.0,0.0,60.0,8.0,0.0
13017,88.0,0.0,15.0,0.0,0.0
13018,76.0,0.0,60.0,2.0,0.0
13019,74.0,0.0,60.0,2.0,0.0
13020,85.0,60.0,60.0,7.0,0.0
13021,64.0,60.0,15.0,3.0,0.0
13022,62.0,0.0,60.0,3.0,0.0
13023,86.0,30.0,60.0,7.0,0.0
13024,86.0,0.0,15.0,1.0,0.0
13025,76.0,0.0,15.0,1.0,0.0
13026,74.0,0.0,60.0,8.0,0.0
13027,64.0,0.0,15.0,3.0,0.0
13028,76.0,0.0,90.0,2.0,0.0
13029,74.0,0.0,90.0,2.0,0.0
13030,62.0,0.0,90.0,3.0,0.0
13031,64.0,0.0,15.0,3.0,0.0
13032,73.0,0.0,30.0,8.0,0.0
13033,74.0,0.0,30.0,2.0,0.0
13034,76.0,0.0,15.0,1.0,0.0
13035,88.0,30.0,15.0,0.0,0.0
13036,86.0,0.0,30.0,1.0,0.0
13037,85.0,0.0,30.0,7.0,0.0
13038,62.0,0.0,15.0,3.0,0.0
13039,86.0,0.0,60.0,7.0,0.0
13040,88.0,0.0,60.0,0.0,0.0
13041,74.0,0.0,60.0,8.0,0.0
13042,64.0,0.0,15.0,3.0,0.0
13043,76.0,60.0,15.0,2.0,0.0
13044,74.0,0.0,60.0,2.0,0.0
13045,86.0,60.0,60.0,1.0,0.0
13046,76.0,0.0,60.0,1.0,0.0
13047,88.0,30.0,90.0,0.0,0.0
13048,88.0,30.0,780.0,7.0,0.0
13049,76.0,0.0,780.0,8.0,0.0
13050,62.0,0.0,15.0,3.0,0.0
13051,64.0,0.0,90.0,3.0,0.0
13052,76.0,0.0,90.0,1.0,0.0
13053,86.0,0.0,90.0,1.0,0.0
13054,62.0,0.0,15.0,3.0,0.0
13055,76.0,0.0,15.0,2.0,0.0
13056,74.0,0.0,15.0,2.0,0.0
13057,56.0,0.0,30.0,10.0,0.0
13058,64.0,0.0,30.0,3.0,0.0
13059,88.0,0.0,30.0,0.0,0.0
13060,52.0,0.0,30.0,11.0,0.0
13061,76.0,0.0,60.0,2.0,0.0
13062,74.0,0.0,60.0,2.0,0.0
13063,62.0,60.0,15.0,3.0,0.0
13064,57.0,0.0,60.0,10.0,0.0
13065,76.0,0.0,15.0,1.0,0.0
13066,86.0,0.0,15.0,1.0,0.0
13067,54.0,0.0,60.0,11.0,0.0
13068,56.0,0.0,60.0,11.0,0.0
13069,59.0,30.0,60.0,10.0,0.0
13070,88.0,0.0,15.0,0.0,0.0
13071,62.0,0.0,15.0,3.0,0.0
13072,64.0,0.0,15.0,3.0,0.0
13073,86.0,0.0,15.0,1.0,0.0
13074,76.0,60.0,15.0,1.0,0.0
13075,57.0,60.0,30.0,10.0,0.0
13076,74.0,30.0,15.0,2.0,0.0
13077,76.0,0.0,15.0,2.0,0.0
13078,54.0,0.0,30.0,11.0,0.0
13079,64.0,0.0,30.0,3.0,0.0
13080,62.0,0.0,30.0,3.0,0.0
13081,56.0,60.0,60.0,11.0,0.0
13082,76.0,0.0,15.0,1.0,0.0
13083,86.0,0.0,15.0,1.0,0.0
13084,88.0,0.0,15.0,0.0,0.0
13085,62.0,0.0,60.0,3.0,0.0
13086,76.0,0.0,15.0,2.0,0.0
13087,59.0,0.0,60.0,10.0,0.0
13088,64.0,0.0,60.0,3.0,0.0
13089,74.0,0.0,60.0,2.0,0.0
13090,76.0,0.0,15.0,2.0,0.0
13091,74.0,0.0,90.0,2.0,0.0
13092,57.0,30.0,60.0,11.0,0.0
13093,86.0,0.0,15.0,1.0,0.0
13094,76.0,0.0,15.0,1.0,0.0
13095,61.0,0.0,60.0,10.0,0.0
13096,88.0,30.0,90.0,0.0,0.0
13097,64.0,0.0,90.0,3.0,0.0
13098,62.0,0.0,90.0,3.0,0.0
13099,56.0,60.0,30.0,11.0,0.0
13100,59.0,0.0,30.0,10.0,0.0
13101,86.0,0.0,30.0,1.0,0.0
13102,76.0,0.0,15.0,2.0,0.0
13103,64.0,0.0,30.0,3.0,0.0
13104,88.0,0.0,30.0,0.0,0.0
13105,62.0,0.0,15.0,3.0,0.0
13106,76.0,0.0,15.0,1.0,0.0
13107,88.0,0.0,60.0,0.0,0.0
13108,74.0,0.0,15.0,2.0,0.0
13109,76.0,0.0,15.0,2.0,0.0
13110,57.0,0.0,60.0,11.0,0.0
13111,61.0,0.0,60.0,10.0,0.0
13112,74.0,0.0,15.0,2.0,0.0
13113,86.0,0.0,15.0,1.0,0.0
13114,64.0,0.0,15.0,3.0,0.0
13115,62.0,0.0,90.0,3.0,0.0
13116,76.0,60.0,15.0,1.0,0.0
13117,62.0,30.0,60.0,10.0,0.0
13118,76.0,0.0,90.0,2.0,0.0
13119,60.0,0.0,60.0,11.0,0.0
13120,74.0,0.0,15.0,2.0,0.0
13121,88.0,0.0,15.0,0.0,0.0
13122,86.0,0.0,15.0,1.0,0.0
13123,76.0,0.0,15.0,1.0,0.0
13124,57.0,0.0,30.0,11.0,0.0
13125,76.0,0.0,30.0,2.0,0.0
13126,64.0,30.0,15.0,3.0,0.0
13127,61.0,60.0,30.0,10.0,0.0
13128,64.0,0.0,60.0,3.0,0.0
13129,62.0,0.0,15.0,3.0,0.0
13130,76.0,0.0,60.0,2.0,0.0
13131,74.0,0.0,60.0,2.0,0.0
13132,86.0,0.0,60.0,1.0,0.0
13133,60.0,0.0,60.0,11.0,0.0
13134,76.0,0.0,60.0,1.0,0.0
13135,62.0,60.0,60.0,10.0,0.0
13136,76.0,0.0,90.0,1.0,0.0
13137,88.0,0.0,90.0,1.0,0.0
13138,64.0,0.0,780.0,10.0,0.0
13139,88.0,0.0,15.0,0.0,0.0
13140,64.0,30.0,90.0,3.0,0.0
13141,61.0,30.0,780.0,11.0,0.0
13142,76.0,0.0,90.0,2.0,0.0
13143,70.0,0.0,30.0,8.0,0.0
13144,78.0,0.0,30.0,1.0,0.0
13145,82.0,0.0,30.0,7.0,0.0
13146,88.0,0.0,30.0,1.0,0.0
13147,90.0,0.0,30.0,0.0,0.0
13148,78.0,0.0,60.0,1.0,0.0
13149,71.0,0.0,60.0,8.0,0.0
13150,76.0,60.0,15.0,2.0,0.0
13151,78.0,0.0,15.0,2.0,0.0
13152,66.0,0.0,15.0,3.0,0.0
13153,64.0,0.0,15.0,3.0,0.0
13154,90.0,60.0,60.0,0.0,0.0
13155,83.0,0.0,60.0,7.0,0.0
13156,85.0,0.0,60.0,7.0,0.0
13157,73.0,30.0,60.0,8.0,0.0
13158,88.0,0.0,15.0,1.0,0.0
13159,78.0,0.0,90.0,1.0,0.0
13160,90.0,0.0,90.0,0.0,0.0
13161,66.0,0.0,15.0,3.0,0.0
13162,76.0,0.0,15.0,2.0,0.0
13163,64.0,0.0,15.0,3.0,0.0
13164,71.0,0.0,30.0,8.0,0.0
13165,78.0,30.0,15.0,2.0,0.0
13166,83.0,0.0,30.0,7.0,0.0
13167,78.0,0.0,30.0,1.0,0.0
13168,88.0,0.0,30.0,1.0,0.0
13169,85.0,0.0,60.0,7.0,0.0
13170,78.0,0.0,60.0,1.0,0.0
13171,73.0,0.0,60.0,8.0,0.0
13172,78.0,0.0,15.0,2.0,0.0
13173,88.0,60.0,60.0,1.0,0.0
13174,90.0,0.0,15.0,0.0,0.0
13175,64.0,0.0,60.0,3.0,0.0
13176,66.0,0.0,60.0,3.0,0.0
13177,76.0,60.0,15.0,2.0,0.0
13178,74.0,30.0,60.0,8.0,0.0
13179,86.0,0.0,60.0,7.0,0.0
13180,64.0,0.0,90.0,3.0,0.0
13181,88.0,0.0,90.0,1.0,0.0
13182,78.0,0.0,15.0,2.0,0.0
13183,76.0,0.0,15.0,2.0,0.0
13184,73.0,0.0,30.0,8.0,0.0
13185,85.0,0.0,30.0,7.0,0.0
13186,90.0,0.0,15.0,0.0,0.0
13187,88.0,60.0,30.0,1.0,0.0
13188,78.0,30.0,15.0,1.0,0.0
13189,64.0,0.0,30.0,3.0,0.0
13190,66.0,0.0,30.0,3.0,0.0
13191,74.0,0.0,60.0,8.0,0.0
13192,90.0,0.0,15.0,0.0,0.0
13193,64.0,0.0,60.0,3.0,0.0
13194,78.0,60.0,60.0,2.0,0.0
13195,76.0,0.0,60.0,2.0,0.0
13196,86.0,0.0,60.0,7.0,0.0
13197,88.0,0.0,60.0,1.0,0.0
13198,78.0,0.0,60.0,1.0,0.0
13199,66.0,0.0,15.0,3.0,0.0
13200,76.0,30.0,60.0,8.0,0.0
13201,90.0,0.0,15.0,0.0,0.0
13202,78.0,0.0,90.0,1.0,0.0
13203,64.0,0.0,90.0,3.0,0.0
13204,78.0,0.0,90.0,2.0,0.0
13205,76.0,0.0,90.0,2.0,0.0
13206,88.0,0.0,60.0,7.0,0.0
13207,88.0,0.0,15.0,1.0,0.0
13208,78.0,0.0,30.0,2.0,0.0
13209,86.0,0.0,30.0,7.0,0.0
13210,76.0,0.0,30.0,2.0,0.0
13211,64.0,0.0,30.0,3.0,0.0
13212,74.0,0.0,30.0,8.0,0.0
13213,78.0,60.0,30.0,1.0,0.0
13214,66.0,0.0,15.0,3.0,0.0
13215,76.0,0.0,60.0,8.0,0.0
13216,64.0,60.0,60.0,3.0,0.0
13217,76.0,0.0,60.0,2.0,0.0
13218,78.0,0.0,60.0,2.0,0.0
13219,90.0,0.0,15.0,0.0,0.0
13220,78.0,0.0,60.0,1.0,0.0
13221,88.0,0.0,60.0,1.0,0.0
13222,88.0,0.0,60.0,7.0,0.0
13223,90.0,0.0,15.0,0.0,0.0
13224,90.0,0.0,810.0,7.0,0.0
13225,78.0,0.0,810.0,8.0,0.0
13226,78.0,0.0,90.0,2.0,0.0
13227,76.0,0.0,90.0,2.0,0.0
13228,88.0,0.0,90.0,1.0,0.0
13229,54.0,0.0,30.0,11.0,0.0
13230,90.0,0.0,15.0,0.0,0.0
13231,78.0,0.0,15.0,1.0,0.0
13232,58.0,0.0,30.0,10.0,0.0
13233,88.0,0.0,30.0,1.0,0.0
13234,64.0,30.0,15.0,3.0,0.0
13235,56.0,0.0,60.0,11.0,0.0
13236,66.0,0.0,15.0,3.0,0.0
13237,90.0,0.0,15.0,0.0,0.0
13238,64.0,0.0,15.0,3.0,0.0
13239,76.0,0.0,15.0,2.0,0.0
13240,78.0,60.0,15.0,2.0,0.0
13241,59.0,60.0,60.0,10.0,0.0
13242,76.0,0.0,15.0,2.0,0.0
13243,78.0,0.0,15.0,2.0,0.0
13244,61.0,30.0,60.0,10.0,0.0
13245,90.0,0.0,15.0,0.0,0.0
13246,78.0,0.0,15.0,1.0,0.0
13247,88.0,0.0,15.0,1.0,0.0
13248,58.0,0.0,60.0,11.0,0.0
13249,90.0,0.0,30.0,0.0,0.0
13250,88.0,0.0,30.0,1.0,0.0
13251,59.0,0.0,30.0,10.0,0.0
13252,56.0,60.0,30.0,11.0,0.0
13253,64.0,0.0,15.0,3.0,0.0
13254,78.0,30.0,15.0,2.0,0.0
13255,66.0,0.0,15.0,3.0,0.0
13256,66.0,0.0,15.0,3.0,0.0
13257,78.0,0.0,15.0,1.0,0.0
13258,64.0,0.0,15.0,3.0,0.0
13259,76.0,0.0,15.0,2.0,0.0
13260,61.0,0.0,60.0,10.0,0.0
13261,90.0,0.0,60.0,0.0,0.0
13262,58.0,0.0,60.0,11.0,0.0
13263,76.0,0.0,15.0,2.0,0.0
13264,59.0,30.0,60.0,11.0,0.0
13265,88.0,0.0,15.0,1.0,0.0
13266,78.0,0.0,90.0,1.0,0.0
13267,78.0,60.0,15.0,2.0,0.0
13268,90.0,0.0,90.0,0.0,0.0
13269,62.0,0.0,60.0,10.0,0.0
13270,90.0,0.0,30.0,0.0,0.0
13271,58.0,0.0,30.0,11.0,0.0
13272,64.0,0.0,15.0,3.0,0.0
13273,78.0,0.0,30.0,2.0,0.0
13274,76.0,30.0,15.0,2.0,0.0
13275,61.0,0.0,30.0,10.0,0.0
13276,78.0,0.0,15.0,1.0,0.0
13277,88.0,0.0,15.0,1.0,0.0
13278,62.0,0.0,60.0,10.0,0.0
13279,66.0,60.0,15.0,3.0,0.0
13280,64.0,0.0,15.0,3.0,0.0
13281,59.0,0.0,60.0,11.0,0.0
13282,78.0,60.0,15.0,1.0,0.0
13283,88.0,0.0,15.0,1.0,0.0
13284,66.0,0.0,15.0,3.0,0.0
13285,90.0,0.0,15.0,0.0,0.0
13286,64.0,0.0,60.0,10.0,0.0
13287,78.0,0.0,15.0,2.0,0.0
13288,76.0,0.0,15.0,2.0,0.0
13289,61.0,30.0,60.0,11.0,0.0
13290,64.0,0.0,90.0,3.0,0.0
13291,66.0,0.0,15.0,3.0,0.0
13292,64.0,0.0,30.0,3.0,0.0
13293,76.0,0.0,15.0,2.0,0.0
13294,78.0,0.0,15.0,2.0,0.0
13295,90.0,0.0,15.0,0.0,0.0
13296,88.0,0.0,15.0,1.0,0.0
13297,78.0,30.0,15.0,1.0,0.0
13298,62.0,0.0,30.0,10.0,0.0
13299,59.0,0.0,30.0,11.0,0.0
13300,61.0,0.0,60.0,11.0,0.0
13301,78.0,0.0,15.0,2.0,0.0
13302,76.0,0.0,60.0,2.0,0.0
13303,90.0,0.0,15.0,0.0,0.0
13304,64.0,0.0,60.0,3.0,0.0
13305,78.0,0.0,60.0,1.0,0.0
13306,88.0,0.0,60.0,1.0,0.0
13307,64.0,0.0,60.0,10.0,0.0
13308,66.0,0.0,60.0,3.0,0.0
13309,90.0,0.0,120.0,0.0,0.0
13310,78.0,0.0,120.0,1.0,0.0
13311,90.0,60.0,120.0,1.0,0.0
13312,66.0,30.0,90.0,10.0,0.0
13313,62.0,0.0,120.0,3.0,0.0
13314,78.0,90.0,15.0,2.0,0.0
13315,66.0,0.0,120.0,3.0,0.0
13316,62.0,0.0,15.0,11.0,0.0
13317,78.0,0.0,30.0,7.0,0.0
13318,71.0,0.0,30.0,10.0,0.0
13319,59.0,0.0,30.0,10.0,0.0
13320,66.0,0.0,30.0,8.0,0.0
13321,61.0,0.0,60.0,11.0,0.0
13322,77.0,60.0,60.0,7.0,0.0
13323,65.0,0.0,60.0,8.0,0.0
13324,59.0,0.0,15.0,10.0,0.0
13325,71.0,0.0,15.0,10.0,0.0
13326,62.0,0.0,60.0,3.0,0.0
13327,50.0,0.0,60.0,3.0,0.0
13328,78.0,0.0,60.0,2.0,0.0
13329,66.0,0.0,60.0,2.0,0.0
13330,62.0,0.0,120.0,11.0,0.0
13331,83.0,0.0,60.0,1.0,0.0
13332,83.0,0.0,60.0,0.0,0.0
13333,66.0,0.0,120.0,8.0,0.0
13334,78.0,0.0,120.0,7.0,0.0
13335,78.0,0.0,60.0,1.0,0.0
13336,90.0,0.0,60.0,0.0,0.0
13337,71.0,60.0,60.0,4.0,0.0
13338,78.0,0.0,30.0,1.0,0.0
13339,78.0,0.0,30.0,2.0,0.0
13340,66.0,0.0,30.0,2.0,0.0
13341,62.0,0.0,30.0,3.0,0.0
13342,90.0,0.0,30.0,0.0,0.0
13343,50.0,0.0,30.0,3.0,0.0
13344,71.0,0.0,30.0,4.0,0.0
13345,77.0,0.0,60.0,2.0,0.0
13346,83.0,0.0,15.0,1.0,0.0
13347,65.0,0.0,60.0,2.0,0.0
13348,77.0,60.0,60.0,1.0,0.0
13349,83.0,0.0,15.0,0.0,0.0
13350,89.0,0.0,60.0,0.0,0.0
13351,49.0,0.0,60.0,3.0,0.0
13352,61.0,0.0,60.0,3.0,0.0
13353,71.0,0.0,15.0,4.0,0.0
13354,66.0,0.0,60.0,8.0,0.0
13355,78.0,0.0,60.0,7.0,0.0
13356,90.0,0.0,120.0,0.0,0.0
13357,83.0,0.0,120.0,0.0,0.0
13358,78.0,0.0,120.0,2.0,0.0
13359,66.0,0.0,120.0,2.0,0.0
13360,63.0,60.0,120.0,3.0,0.0
13361,51.0,0.0,120.0,3.0,0.0
13362,71.0,0.0,60.0,10.0,0.0
13363,63.0,0.0,60.0,11.0,0.0
13364,83.0,0.0,120.0,1.0,0.0
13365,59.0,60.0,60.0,10.0,0.0
13366,78.0,0.0,120.0,1.0,0.0
13367,63.0,0.0,30.0,11.0,0.0
13368,78.0,0.0,30.0,7.0,0.0
13369,66.0,0.0,30.0,8.0,0.0
13370,71.0,0.0,30.0,10.0,0.0
13371,59.0,0.0,15.0,10.0,0.0
13372,77.0,0.0,60.0,7.0,0.0
13373,62.0,0.0,60.0,11.0,0.0
13374,65.0,60.0,60.0,8.0,0.0
13375,66.0,0.0,120.0,8.0,0.0
13376,90.0,0.0,60.0,0.0,0.0
13377,66.0,0.0,60.0,2.0,0.0
13378,63.0,0.0,60.0,3.0,0.0
13379,78.0,0.0,120.0,7.0,0.0
13380,51.0,0.0,60.0,3.0,0.0
13381,71.0,0.0,15.0,10.0,0.0
13382,59.0,0.0,15.0,10.0,0.0
13383,78.0,0.0,60.0,2.0,0.0
13384,78.0,0.0,60.0,1.0,0.0
13385,71.0,60.0,60.0,4.0,0.0
13386,83.0,0.0,60.0,1.0,0.0
13387,63.0,0.0,120.0,11.0,0.0
13388,83.0,0.0,60.0,0.0,0.0
13389,78.0,0.0,30.0,2.0,0.0
13390,78.0,0.0,30.0,1.0,0.0
13391,66.0,0.0,30.0,2.0,0.0
13392,83.0,0.0,30.0,0.0,0.0
13393,63.0,0.0,30.0,3.0,0.0
13394,83.0,0.0,30.0,1.0,0.0
13395,51.0,0.0,30.0,3.0,0.0
13396,90.0,60.0,30.0,0.0,0.0
13397,71.0,0.0,15.0,4.0,0.0
13398,67.0,0.0,60.0,2.0,0.0
13399,51.0,0.0,60.0,3.0,0.0
13400,79.0,0.0,60.0,1.0,0.0
13401,63.0,0.0,60.0,3.0,0.0
13402,83.0,0.0,60.0,0.0,0.0
13403,91.0,60.0,60.0,0.0,0.0
13404,79.0,0.0,60.0,2.0,0.0
13405,83.0,0.0,15.0,1.0,0.0
13406,71.0,0.0,60.0,10.0,0.0
13407,80.0,0.0,120.0,1.0,0.0
13408,68.0,0.0,120.0,2.0,0.0
13409,52.0,0.0,120.0,3.0,0.0
13410,59.0,0.0,60.0,10.0,0.0
13411,68.0,0.0,60.0,8.0,0.0
13412,64.0,0.0,60.0,11.0,0.0
13413,80.0,60.0,60.0,7.0,0.0
13414,92.0,0.0,120.0,0.0,0.0
13415,83.0,0.0,120.0,0.0,0.0
13416,71.0,0.0,120.0,4.0,0.0
13417,80.0,0.0,120.0,2.0,0.0
13418,64.0,0.0,120.0,3.0,0.0
13419,71.0,0.0,30.0,10.0,0.0
13420,59.0,0.0,30.0,10.0,0.0
13421,68.0,0.0,30.0,8.0,0.0
13422,80.0,0.0,30.0,7.0,0.0
13423,64.0,60.0,30.0,11.0,0.0
13424,67.0,0.0,60.0,8.0,0.0
13425,59.0,60.0,60.0,10.0,0.0
13426,79.0,0.0,60.0,7.0,0.0
13427,63.0,0.0,60.0,11.0,0.0
13428,71.0,0.0,60.0,10.0,0.0
13429,68.0,0.0,120.0,8.0,0.0
13430,80.0,0.0,120.0,7.0,0.0
13431,71.0,60.0,60.0,4.0,0.0
13432,80.0,0.0,60.0,2.0,0.0
13433,68.0,0.0,60.0,2.0,0.0
13434,83.0,0.0,60.0,0.0,0.0
13435,92.0,0.0,60.0,0.0,0.0
13436,83.0,0.0,60.0,1.0,0.0
13437,80.0,0.0,60.0,1.0,0.0
13438,64.0,0.0,120.0,11.0,0.0
13439,59.0,0.0,120.0,10.0,0.0
13440,71.0,0.0,120.0,10.0,0.0
13441,64.0,0.0,60.0,3.0,0.0
13442,52.0,0.0,60.0,3.0,0.0
13443,71.0,0.0,30.0,4.0,0.0
13444,80.0,0.0,30.0,2.0,0.0
13445,68.0,0.0,30.0,2.0,0.0
13446,52.0,0.0,30.0,3.0,0.0
13447,64.0,0.0,30.0,3.0,0.0
13448,83.0,0.0,30.0,0.0,0.0
13449,80.0,0.0,30.0,1.0,0.0
13450,92.0,0.0,30.0,0.0,0.0
13451,79.0,60.0,60.0,2.0,0.0
13452,67.0,0.0,60.0,2.0,0.0
13453,51.0,0.0,60.0,3.0,0.0
13454,71.0,0.0,60.0,4.0,0.0
13455,79.0,0.0,60.0,1.0,0.0
13456,83.0,60.0,15.0,1.0,0.0
13457,91.0,0.0,60.0,0.0,0.0
13458,63.0,0.0,60.0,3.0,0.0
13459,65.0,0.0,120.0,3.0,0.0
13460,53.0,0.0,120.0,3.0,0.0
13461,65.0,60.0,60.0,11.0,0.0
13462,80.0,0.0,120.0,1.0,0.0
13463,83.0,0.0,15.0,1.0,0.0
13464,73.0,0.0,60.0,10.0,0.0
13465,80.0,0.0,120.0,2.0,0.0
13466,71.0,0.0,120.0,4.0,0.0
13467,68.0,0.0,60.0,8.0,0.0
13468,68.0,0.0,120.0,2.0,0.0
13469,61.0,0.0,60.0,10.0,0.0
13470,80.0,0.0,60.0,7.0,0.0
13471,83.0,0.0,15.0,0.0,0.0
13472,92.0,0.0,120.0,0.0,0.0
13473,61.0,0.0,30.0,10.0,0.0
13474,68.0,0.0,30.0,8.0,0.0
13475,80.0,0.0,30.0,7.0,0.0
13476,65.0,0.0,30.0,11.0,0.0
13477,79.0,0.0,60.0,7.0,0.0
13478,64.0,0.0,60.0,11.0,0.0
13479,73.0,0.0,15.0,10.0,0.0
13480,67.0,0.0,60.0,8.0,0.0
13481,61.0,60.0,60.0,10.0,0.0
13482,65.0,0.0,120.0,11.0,0.0
13483,80.0,0.0,120.0,7.0,0.0
13484,92.0,0.0,60.0,0.0,0.0
13485,73.0,0.0,15.0,10.0,0.0
13486,65.0,0.0,60.0,3.0,0.0
13487,53.0,0.0,60.0,3.0,0.0
13488,73.0,0.0,60.0,4.0,0.0
13489,61.0,0.0,60.0,4.0,0.0
13490,68.0,0.0,60.0,2.0,0.0
13491,68.0,0.0,120.0,8.0,0.0
13492,80.0,60.0,60.0,1.0,0.0
13493,80.0,0.0,60.0,2.0,0.0
13494,61.0,0.0,120.0,10.0,0.0
13495,92.0,0.0,30.0,0.0,0.0
13496,68.0,0.0,30.0,2.0,0.0
13497,53.0,0.0,30.0,3.0,0.0
13498,61.0,0.0,30.0,4.0,0.0
13499,85.0,0.0,30.0,1.0,0.0
13500,80.0,0.0,30.0,2.0,0.0
13501,61.0,0.0,60.0,4.0,0.0
13502,73.0,0.0,15.0,4.0,0.0
13503,97.0,0.0,15.0,0.0,0.0
13504,85.0,0.0,60.0,1.0,0.0
13505,80.0,0.0,15.0,1.0,0.0
13506,92.0,0.0,60.0,0.0,0.0
13507,68.0,0.0,60.0,2.0,0.0
13508,80.0,60.0,60.0,2.0,0.0
13509,53.0,0.0,60.0,3.0,0.0
13510,65.0,60.0,15.0,3.0,0.0
13511,54.0,0.0,60.0,3.0,0.0
13512,73.0,0.0,15.0,4.0,0.0
13513,81.0,0.0,60.0,1.0,0.0
13514,66.0,0.0,60.0,3.0,0.0
13515,54.0,0.0,60.0,11.0,0.0
13516,61.0,0.0,60.0,5.0,0.0
13517,73.0,0.0,60.0,5.0,0.0
13518,85.0,0.0,60.0,1.0,0.0
13519,69.0,0.0,60.0,8.0,0.0
13520,61.0,0.0,60.0,4.0,0.0
13521,66.0,0.0,60.0,10.0,0.0
13522,81.0,0.0,60.0,2.0,0.0
13523,69.0,60.0,60.0,2.0,0.0
13524,49.0,0.0,60.0,6.0,0.0
13525,81.0,0.0,60.0,7.0,0.0
13526,97.0,0.0,60.0,0.0,0.0
13527,93.0,0.0,60.0,0.0,0.0
13528,61.0,0.0,30.0,5.0,0.0
13529,73.0,0.0,30.0,4.0,0.0
13530,61.0,0.0,30.0,4.0,0.0
13531,54.0,0.0,30.0,11.0,0.0
13532,49.0,0.0,30.0,6.0,0.0
13533,81.0,0.0,30.0,7.0,0.0
13534,66.0,0.0,30.0,10.0,0.0
13535,69.0,0.0,30.0,8.0,0.0
13536,54.0,60.0,30.0,3.0,0.0
13537,97.0,0.0,15.0,0.0,0.0
13538,73.0,0.0,15.0,2.0,0.0
13539,85.0,0.0,15.0,2.0,0.0
13540,80.0,0.0,60.0,7.0,0.0
13541,85.0,0.0,15.0,0.0,0.0
13542,53.0,0.0,60.0,3.0,0.0
13543,73.0,0.0,15.0,5.0,0.0
13544,53.0,0.0,60.0,11.0,0.0
13545,65.0,0.0,60.0,10.0,0.0
13546,73.0,0.0,15.0,1.0,0.0
13547,85.0,0.0,15.0,1.0,0.0
13548,68.0,0.0,60.0,8.0,0.0
13549,61.0,0.0,60.0,5.0,0.0
13550,54.0,0.0,60.0,3.0,0.0
13551,81.0,0.0,60.0,7.0,0.0
13552,85.0,0.0,15.0,0.0,0.0
13553,97.0,0.0,60.0,0.0,0.0
13554,49.0,0.0,15.0,6.0,0.0
13555,54.0,0.0,60.0,11.0,0.0
13556,69.0,0.0,60.0,8.0,0.0
13557,66.0,0.0,60.0,10.0,0.0
13558,61.0,0.0,60.0,5.0,0.0
13559,73.0,0.0,15.0,4.0,0.0
13560,85.0,0.0,60.0,1.0,0.0
13561,85.0,0.0,60.0,2.0,0.0
13562,61.0,0.0,15.0,4.0,0.0
13563,73.0,0.0,60.0,1.0,0.0
13564,73.0,0.0,60.0,5.0,0.0
13565,73.0,60.0,60.0,2.0,0.0
13566,54.0,0.0,30.0,11.0,0.0
13567,81.0,0.0,30.0,7.0,0.0
13568,66.0,0.0,30.0,10.0,0.0
13569,69.0,0.0,30.0,8.0,0.0
13570,85.0,0.0,30.0,2.0,0.0
13571,73.0,0.0,30.0,1.0,0.0
13572,54.0,0.0,30.0,3.0,0.0
13573,49.0,0.0,30.0,6.0,0.0
13574,73.0,0.0,30.0,4.0,0.0
13575,61.0,0.0,30.0,4.0,0.0
13576,85.0,0.0,30.0,0.0,0.0
13577,73.0,0.0,15.0,2.0,0.0
13578,73.0,0.0,15.0,5.0,0.0
13579,61.0,0.0,15.0,5.0,0.0
13580,65.0,60.0,60.0,10.0,0.0
13581,61.0,0.0,60.0,4.0,0.0
13582,53.0,0.0,60.0,3.0,0.0
13583,80.0,0.0,60.0,7.0,0.0
13584,73.0,0.0,60.0,4.0,0.0
13585,68.0,0.0,60.0,8.0,0.0
13586,53.0,0.0,60.0,11.0,0.0
13587,97.0,0.0,15.0,0.0,0.0
13588,85.0,60.0,15.0,1.0,0.0
13589,85.0,0.0,15.0,0.0,0.0
13590,61.0,0.0,60.0,4.0,0.0
13591,97.0,0.0,15.0,0.0,0.0
13592,69.0,0.0,60.0,8.0,0.0
13593,66.0,0.0,60.0,3.0,0.0
13594,54.0,0.0,60.0,3.0,0.0
13595,73.0,0.0,15.0,1.0,0.0
13596,81.0,0.0,60.0,7.0,0.0
13597,73.0,0.0,60.0,4.0,0.0
13598,85.0,0.0,15.0,2.0,0.0
13599,85.0,0.0,60.0,1.0,0.0
13600,73.0,0.0,15.0,2.0,0.0
13601,61.0,0.0,60.0,5.0,0.0
13602,73.0,0.0,60.0,5.0,0.0
13603,66.0,0.0,60.0,10.0,0.0
13604,49.0,0.0,15.0,6.0,0.0
13605,54.0,0.0,60.0,11.0,0.0
13606,54.0,0.0,30.0,3.0,0.0
13607,85.0,0.0,30.0,2.0,0.0
13608,73.0,0.0,30.0,2.0,0.0
13609,66.0,60.0,30.0,10.0,0.0
13610,85.0,0.0,30.0,0.0,0.0
13611,54.0,0.0,30.0,11.0,0.0
13612,81.0,0.0,30.0,7.0,0.0
13613,69.0,0.0,30.0,8.0,0.0
13614,49.0,0.0,15.0,6.0,0.0
13615,85.0,0.0,15.0,1.0,0.0
13616,97.0,0.0,15.0,0.0,0.0
13617,73.0,0.0,15.0,1.0,0.0
13618,73.0,0.0,15.0,4.0,0.0
13619,80.0,0.0,60.0,7.0,0.0
13620,61.0,0.0,15.0,4.0,0.0
13621,53.0,0.0,60.0,3.0,0.0
13622,65.0,0.0,60.0,10.0,0.0
13623,73.0,0.0,15.0,5.0,0.0
13624,61.0,0.0,15.0,5.0,0.0
13625,68.0,0.0,60.0,8.0,0.0
13626,85.0,0.0,60.0,2.0,0.0
13627,53.0,0.0,60.0,11.0,0.0
13628,85.0,0.0,15.0,1.0,0.0
13629,54.0,0.0,60.0,11.0,0.0
13630,81.0,0.0,60.0,7.0,0.0
13631,54.0,0.0,60.0,3.0,0.0
13632,73.0,0.0,15.0,5.0,0.0
13633,61.0,0.0,15.0,5.0,0.0
13634,85.0,0.0,15.0,0.0,0.0
13635,73.0,0.0,60.0,1.0,0.0
13636,97.0,0.0,60.0,0.0,0.0
13637,73.0,0.0,60.0,4.0,0.0
13638,61.0,0.0,15.0,4.0,0.0
13639,66.0,0.0,60.0,10.0,0.0
13640,49.0,60.0,60.0,6.0,0.0
13641,73.0,60.0,15.0,2.0,0.0
13642,69.0,0.0,60.0,8.0,0.0
13643,85.0,0.0,60.0,2.0,0.0
13644,73.0,0.0,30.0,1.0,0.0
13645,81.0,0.0,30.0,7.0,0.0
13646,54.0,0.0,30.0,11.0,0.0
13647,73.0,0.0,30.0,5.0,0.0
13648,61.0,0.0,30.0,5.0,0.0
13649,66.0,0.0,30.0,10.0,0.0
13650,97.0,0.0,30.0,0.0,0.0
13651,49.0,0.0,30.0,6.0,0.0
13652,54.0,60.0,30.0,3.0,0.0
13653,69.0,0.0,30.0,8.0,0.0
13654,73.0,0.0,15.0,4.0,0.0
13655,53.0,15.0,60.0,11.0,0.0
13656,85.0,0.0,15.0,2.0,0.0
13657,73.0,0.0,15.0,2.0,0.0
13658,68.0,0.0,60.0,8.0,0.0
13659,49.0,0.0,60.0,6.0,0.0
13660,61.0,0.0,15.0,4.0,0.0
13661,73.0,0.0,60.0,5.0,0.0
13662,80.0,0.0,60.0,7.0,0.0
13663,85.0,0.0,15.0,0.0,0.0
13664,85.0,0.0,15.0,1.0,0.0
13665,53.0,0.0,60.0,3.0,0.0
13666,65.0,0.0,60.0,10.0,0.0
13667,85.0,0.0,15.0,0.0,0.0
13668,81.0,15.0,90.0,7.0,0.0
13669,69.0,0.0,120.0,8.0,0.0
13670,97.0,0.0,15.0,0.0,0.0
13671,73.0,0.0,15.0,1.0,0.0
13672,85.0,0.0,60.0,1.0,0.0
13673,49.0,15.0,15.0,6.0,0.0
13674,54.0,0.0,60.0,3.0,0.0
13675,61.0,0.0,15.0,5.0,0.0
13676,66.0,0.0,120.0,10.0,0.0
13677,73.0,0.0,720.0,4.0,0.0
13678,73.0,0.0,60.0,2.0,0.0
13679,85.0,0.0,60.0,2.0,0.0
13680,49.0,15.0,15.0,6.0,0.0
13681,49.0,15.0,15.0,6.0,0.0
13682,49.0,0.0,15.0,6.0,0.0
13683,49.0,15.0,15.0,6.0,0.0
13684,81.0,0.0,30.0,1.0,0.0
13685,69.0,0.0,30.0,3.0,0.0
13686,69.0,15.0,30.0,1.0,0.0
13687,80.0,0.0,30.0,7.0,0.0
13688,69.0,0.0,30.0,2.0,0.0
13689,81.0,0.0,30.0,2.0,0.0
13690,81.0,0.0,30.0,0.0,0.0
13691,93.0,0.0,30.0,0.0,0.0
13692,49.0,15.0,15.0,6.0,0.0
13693,83.0,15.0,60.0,1.0,0.0
13694,71.0,0.0,60.0,3.0,0.0
13695,95.0,0.0,60.0,0.0,0.0
13696,83.0,0.0,60.0,0.0,0.0
13697,71.0,0.0,60.0,1.0,0.0
13698,49.0,15.0,15.0,6.0,0.0
13699,83.0,0.0,60.0,2.0,0.0
13700,71.0,0.0,60.0,2.0,0.0
13701,49.0,15.0,15.0,6.0,0.0
13702,49.0,15.0,15.0,6.0,0.0
13703,49.0,0.0,15.0,6.0,0.0
13704,85.0,0.0,60.0,2.0,0.0
13705,73.0,0.0,60.0,2.0,0.0
13706,69.0,15.0,90.0,8.0,0.0
13707,73.0,15.0,60.0,3.0,0.0
13708,78.0,0.0,15.0,7.0,0.0
13709,97.0,0.0,60.0,0.0,0.0
13710,85.0,0.0,60.0,0.0,0.0
13711,73.0,0.0,60.0,1.0,0.0
13712,85.0,0.0,60.0,1.0,0.0
13713,49.0,15.0,15.0,6.0,0.0
13714,49.0,15.0,15.0,6.0,0.0
13715,49.0,0.0,15.0,6.0,0.0
13716,49.0,0.0,15.0,6.0,0.0
13717,78.0,0.0,30.0,1.0,0.0
13718,66.0,0.0,30.0,1.0,0.0
13719,68.0,0.0,30.0,8.0,0.0
13720,78.0,0.0,30.0,2.0,0.0
13721,90.0,0.0,30.0,0.0,0.0
13722,66.0,15.0,30.0,3.0,0.0
13723,66.0,0.0,30.0,2.0,0.0
13724,49.0,15.0,15.0,6.0,0.0
13725,68.0,0.0,60.0,2.0,0.0
13726,68.0,0.0,60.0,1.0,0.0
13727,49.0,0.0,15.0,6.0,0.0
13728,80.0,0.0,60.0,1.0,0.0
13729,80.0,0.0,60.0,2.0,0.0
13730,66.0,0.0,60.0,8.0,0.0
13731,92.0,0.0,60.0,0.0,0.0
13732,68.0,0.0,60.0,3.0,0.0
13733,49.0,15.0,15.0,6.0,0.0
13734,49.0,15.0,15.0,6.0,0.0
13735,69.0,0.0,60.0,3.0,0.0
13736,57.0,15.0,90.0,10.0,0.0
13737,81.0,0.0,60.0,1.0,0.0
13738,69.0,0.0,60.0,1.0,0.0
13739,49.0,15.0,15.0,6.0,0.0
13740,93.0,15.0,60.0,0.0,0.0
13741,81.0,0.0,60.0,2.0,0.0
13742,69.0,0.0,60.0,2.0,0.0
13743,66.0,0.0,300.0,8.0,0.0
13744,49.0,15.0,15.0,6.0,0.0
13745,49.0,15.0,15.0,6.0,0.0
13746,49.0,15.0,15.0,6.0,0.0
13747,49.0,15.0,15.0,6.0,0.0
13748,69.0,0.0,30.0,1.0,0.0
13749,49.0,0.0,15.0,6.0,0.0
13750,57.0,0.0,30.0,3.0,0.0
13751,81.0,0.0,30.0,0.0,0.0
13752,69.0,15.0,30.0,2.0,0.0
13753,56.0,0.0,30.0,10.0,0.0
13754,49.0,15.0,15.0,6.0,0.0
13755,54.0,0.0,60.0,10.0,0.0
13756,49.0,0.0,15.0,6.0,0.0
13757,83.0,0.0,60.0,0.0,0.0
13758,71.0,15.0,60.0,1.0,0.0
13759,71.0,0.0,60.0,2.0,0.0
13760,59.0,0.0,60.0,3.0,0.0
13761,49.0,15.0,15.0,6.0,0.0
13762,49.0,15.0,15.0,6.0,0.0
13763,49.0,0.0,15.0,6.0,0.0
13764,49.0,15.0,15.0,6.0,0.0
13765,61.0,0.0,120.0,3.0,0.0
13766,54.0,0.0,15.0,11.0,0.0
13767,73.0,15.0,60.0,1.0,0.0
13768,54.0,0.0,180.0,10.0,0.0
13769,85.0,0.0,60.0,0.0,0.0
13770,73.0,0.0,60.0,2.0,0.0
13771,49.0,15.0,15.0,6.0,0.0
13772,49.0,0.0,15.0,6.0,0.0
13773,49.0,15.0,15.0,6.0,0.0
13774,52.0,0.0,30.0,11.0,0.0
13775,49.0,15.0,15.0,6.0,0.0
13776,85.0,0.0,30.0,1.0,0.0
13777,73.0,0.0,30.0,1.0,0.0
13778,49.0,0.0,15.0,6.0,0.0
13779,51.0,0.0,60.0,11.0,0.0
13780,85.0,15.0,15.0,0.0,0.0
13781,73.0,0.0,15.0,2.0,0.0
13782,85.0,0.0,15.0,2.0,0.0
13783,97.0,0.0,15.0,0.0,0.0
13784,49.0,15.0,15.0,6.0,0.0
13785,49.0,15.0,15.0,6.0,0.0
13786,49.0,15.0,15.0,6.0,0.0
13787,85.0,0.0,15.0,1.0,0.0
13788,64.0,0.0,60.0,10.0,0.0
13789,73.0,0.0,15.0,2.0,0.0
13790,85.0,0.0,60.0,2.0,0.0
13791,52.0,0.0,60.0,11.0,0.0
13792,73.0,0.0,15.0,1.0,0.0
13793,52.0,0.0,60.0,3.0,0.0
13794,49.0,0.0,15.0,6.0,0.0
13795,52.0,0.0,60.0,10.0,0.0
13796,80.0,60.0,60.0,7.0,0.0
13797,85.0,0.0,15.0,0.0,0.0
13798,97.0,0.0,15.0,0.0,0.0
13799,73.0,0.0,15.0,5.0,0.0
13800,61.0,0.0,15.0,5.0,0.0
13801,61.0,60.0,15.0,4.0,0.0
13802,68.0,0.0,60.0,8.0,0.0
13803,73.0,0.0,60.0,4.0,0.0
13804,97.0,0.0,30.0,0.0,0.0
13805,73.0,0.0,30.0,1.0,0.0
13806,85.0,0.0,30.0,1.0,0.0
13807,80.0,0.0,30.0,7.0,0.0
13808,61.0,0.0,30.0,4.0,0.0
13809,73.0,0.0,30.0,4.0,0.0
13810,68.0,0.0,30.0,8.0,0.0
13811,52.0,0.0,30.0,3.0,0.0
13812,64.0,0.0,30.0,10.0,0.0
13813,52.0,0.0,30.0,11.0,0.0
13814,63.0,0.0,60.0,10.0,0.0
13815,73.0,0.0,15.0,5.0,0.0
13816,61.0,0.0,15.0,5.0,0.0
13817,73.0,0.0,15.0,2.0,0.0
13818,85.0,0.0,15.0,2.0,0.0
13819,67.0,0.0,60.0,8.0,0.0
13820,49.0,0.0,15.0,6.0,0.0
13821,51.0,0.0,60.0,3.0,0.0
13822,51.0,0.0,60.0,11.0,0.0
13823,79.0,0.0,60.0,7.0,0.0
13824,97.0,0.0,60.0,0.0,0.0
13825,85.0,60.0,15.0,0.0,0.0
13826,73.0,0.0,60.0,1.0,0.0
13827,85.0,0.0,60.0,1.0,0.0
13828,68.0,0.0,60.0,8.0,0.0
13829,97.0,0.0,60.0,0.0,0.0
13830,85.0,0.0,15.0,0.0,0.0
13831,73.0,0.0,15.0,4.0,0.0
13832,61.0,0.0,15.0,4.0,0.0
13833,49.0,0.0,15.0,6.0,0.0
13834,64.0,60.0,60.0,10.0,0.0
13835,80.0,0.0,60.0,7.0,0.0
13836,52.0,0.0,60.0,3.0,0.0
13837,52.0,0.0,60.0,11.0,0.0
13838,73.0,60.0,15.0,5.0,0.0
13839,85.0,0.0,60.0,2.0,0.0
13840,73.0,0.0,60.0,2.0,0.0
13841,73.0,0.0,60.0,1.0,0.0
13842,61.0,0.0,15.0,5.0,0.0
13843,85.0,0.0,60.0,1.0,0.0
13844,64.0,0.0,30.0,10.0,0.0
13845,73.0,0.0,30.0,2.0,0.0
13846,61.0,0.0,30.0,5.0,0.0
13847,49.0,0.0,30.0,6.0,0.0
13848,80.0,60.0,30.0,7.0,0.0
13849,68.0,0.0,30.0,8.0,0.0
13850,52.0,0.0,30.0,11.0,0.0
13851,85.0,0.0,30.0,2.0,0.0
13852,73.0,0.0,30.0,4.0,0.0
13853,52.0,0.0,30.0,3.0,0.0
13854,61.0,0.0,30.0,4.0,0.0
13855,79.0,0.0,60.0,7.0,0.0
13856,73.0,0.0,15.0,5.0,0.0
13857,63.0,0.0,60.0,10.0,0.0
13858,67.0,0.0,60.0,8.0,0.0
13859,85.0,0.0,15.0,0.0,0.0
13860,97.0,0.0,15.0,0.0,0.0
13861,51.0,0.0,60.0,11.0,0.0
13862,61.0,0.0,60.0,5.0,0.0
13863,85.0,0.0,15.0,1.0,0.0
13864,73.0,0.0,15.0,1.0,0.0
13865,73.0,60.0,60.0,4.0,0.0
13866,51.0,0.0,60.0,3.0,0.0
13867,85.0,0.0,15.0,2.0,0.0
13868,85.0,0.0,15.0,0.0,0.0
13869,97.0,0.0,15.0,0.0,0.0
13870,80.0,0.0,60.0,7.0,0.0
13871,49.0,0.0,15.0,6.0,0.0
13872,73.0,0.0,15.0,2.0,0.0
13873,85.0,0.0,15.0,1.0,0.0
13874,52.0,0.0,60.0,3.0,0.0
13875,52.0,0.0,60.0,11.0,0.0
13876,73.0,0.0,60.0,1.0,0.0
13877,64.0,0.0,60.0,10.0,0.0
13878,68.0,0.0,60.0,8.0,0.0
13879,52.0,0.0,60.0,10.0,0.0
13880,73.0,0.0,15.0,5.0,0.0
13881,61.0,0.0,15.0,4.0,0.0
13882,73.0,0.0,60.0,4.0,0.0
13883,61.0,0.0,60.0,5.0,0.0
13884,73.0,0.0,30.0,2.0,0.0
13885,61.0,0.0,30.0,5.0,0.0
13886,73.0,0.0,30.0,5.0,0.0
13887,52.0,0.0,30.0,11.0,0.0
13888,61.0,0.0,30.0,4.0,0.0
13889,73.0,0.0,30.0,4.0,0.0
13890,97.0,0.0,30.0,0.0,0.0
13891,52.0,0.0,30.0,3.0,0.0
13892,64.0,0.0,30.0,10.0,0.0
13893,80.0,0.0,30.0,7.0,0.0
13894,68.0,0.0,30.0,8.0,0.0
13895,67.0,0.0,60.0,8.0,0.0
13896,79.0,0.0,60.0,7.0,0.0
13897,85.0,0.0,15.0,2.0,0.0
13898,51.0,0.0,60.0,3.0,0.0
13899,73.0,0.0,60.0,4.0,0.0
13900,63.0,0.0,60.0,10.0,0.0
13901,85.0,0.0,15.0,0.0,0.0
13902,97.0,0.0,60.0,0.0,0.0
13903,49.0,60.0,15.0,6.0,0.0
13904,61.0,0.0,60.0,5.0,0.0
13905,73.0,0.0,60.0,5.0,0.0
13906,85.0,0.0,15.0,1.0,0.0
13907,73.0,0.0,15.0,1.0,0.0
13908,51.0,0.0,60.0,11.0,0.0
13909,73.0,0.0,15.0,2.0,0.0
13910,85.0,0.0,15.0,2.0,0.0
13911,85.0,0.0,15.0,0.0,0.0
13912,97.0,0.0,60.0,0.0,0.0
13913,80.0,0.0,60.0,7.0,0.0
13914,85.0,0.0,15.0,1.0,0.0
13915,68.0,0.0,60.0,8.0,0.0
13916,52.0,60.0,60.0,3.0,0.0
13917,61.0,0.0,60.0,5.0,0.0
13918,73.0,0.0,60.0,5.0,0.0
13919,73.0,0.0,15.0,1.0,0.0
13920,61.0,60.0,15.0,4.0,0.0
13921,73.0,0.0,60.0,4.0,0.0
13922,49.0,0.0,15.0,6.0,0.0
13923,52.0,0.0,60.0,11.0,0.0
13924,64.0,0.0,60.0,10.0,0.0
13925,52.0,0.0,30.0,3.0,0.0
13926,97.0,0.0,30.0,0.0,0.0
13927,85.0,0.0,30.0,0.0,0.0
13928,80.0,0.0,30.0,7.0,0.0
13929,64.0,0.0,30.0,10.0,0.0
13930,73.0,0.0,30.0,2.0,0.0
13931,52.0,0.0,30.0,11.0,0.0
13932,68.0,0.0,30.0,8.0,0.0
13933,61.0,0.0,30.0,5.0,0.0
13934,73.0,0.0,30.0,5.0,0.0
13935,51.0,15.0,60.0,3.0,0.0
13936,73.0,0.0,15.0,4.0,0.0
13937,61.0,0.0,15.0,4.0,0.0
13938,73.0,0.0,60.0,5.0,0.0
13939,49.0,0.0,15.0,6.0,0.0
13940,97.0,0.0,60.0,0.0,0.0
13941,85.0,0.0,60.0,0.0,0.0
13942,51.0,0.0,60.0,11.0,0.0
13943,85.0,60.0,15.0,2.0,0.0
13944,63.0,0.0,60.0,10.0,0.0
13945,73.0,0.0,15.0,1.0,0.0
13946,85.0,0.0,15.0,1.0,0.0
13947,79.0,0.0,60.0,7.0,0.0
13948,67.0,0.0,60.0,8.0,0.0
13949,73.0,0.0,15.0,2.0,0.0
13950,85.0,0.0,15.0,2.0,0.0
13951,49.0,15.0,15.0,6.0,0.0
13952,61.0,0.0,15.0,5.0,0.0
13953,68.0,0.0,120.0,8.0,0.0
13954,80.0,0.0,90.0,7.0,0.0
13955,85.0,0.0,60.0,0.0,0.0
13956,97.0,0.0,60.0,0.0,0.0
13957,73.0,0.0,720.0,5.0,0.0
13958,52.0,0.0,120.0,10.0,0.0
13959,73.0,0.0,15.0,4.0,0.0
13960,52.0,0.0,540.0,11.0,0.0
13961,61.0,0.0,15.0,4.0,0.0
13962,52.0,0.0,60.0,3.0,0.0
13963,64.0,0.0,120.0,10.0,0.0
13964,85.0,0.0,60.0,1.0,0.0
13965,73.0,15.0,60.0,1.0,0.0
13966,49.0,15.0,15.0,6.0,0.0
13967,49.0,15.0,15.0,6.0,0.0
13968,49.0,15.0,15.0,6.0,0.0
13969,64.0,0.0,30.0,3.0,0.0
13970,76.0,0.0,30.0,1.0,0.0
13971,78.0,0.0,30.0,7.0,0.0
13972,49.0,15.0,15.0,6.0,0.0
13973,88.0,0.0,30.0,0.0,0.0
13974,76.0,0.0,30.0,2.0,0.0
13975,78.0,0.0,60.0,1.0,0.0
13976,76.0,0.0,60.0,7.0,0.0
13977,66.0,15.0,60.0,3.0,0.0
13978,49.0,15.0,15.0,6.0,0.0
13979,78.0,0.0,60.0,2.0,0.0
13980,90.0,0.0,60.0,0.0,0.0
13981,49.0,15.0,15.0,6.0,0.0
13982,49.0,15.0,15.0,6.0,0.0
13983,92.0,0.0,60.0,0.0,0.0
13984,80.0,0.0,60.0,1.0,0.0
13985,80.0,0.0,60.0,2.0,0.0
13986,68.0,15.0,60.0,3.0,0.0
13987,68.0,0.0,90.0,8.0,0.0
13988,76.0,0.0,300.0,7.0,0.0
13989,49.0,15.0,15.0,6.0,0.0
13990,49.0,15.0,15.0,6.0,0.0
13991,49.0,0.0,15.0,6.0,0.0
13992,49.0,15.0,15.0,6.0,0.0
13993,66.0,0.0,30.0,8.0,0.0
13994,73.0,0.0,30.0,2.0,0.0
13995,85.0,15.0,30.0,0.0,0.0
13996,61.0,0.0,30.0,3.0,0.0
13997,85.0,0.0,30.0,1.0,0.0
13998,73.0,0.0,30.0,1.0,0.0
13999,49.0,15.0,15.0,6.0,0.0
14000,49.0,15.0,15.0,6.0,0.0
14001,75.0,0.0,60.0,1.0,0.0
14002,64.0,0.0,60.0,8.0,0.0
14003,49.0,15.0,15.0,6.0,0.0
14004,87.0,0.0,60.0,1.0,0.0
14005,75.0,0.0,60.0,2.0,0.0
14006,87.0,15.0,60.0,0.0,0.0
14007,63.0,0.0,60.0,3.0,0.0
14008,49.0,15.0,15.0,6.0,0.0
14009,64.0,0.0,300.0,8.0,0.0
14010,88.0,0.0,60.0,1.0,0.0
14011,49.0,0.0,15.0,6.0,0.0
14012,56.0,15.0,90.0,10.0,0.0
14013,64.0,0.0,60.0,3.0,0.0
14014,76.0,0.0,60.0,1.0,0.0
14015,88.0,15.0,60.0,0.0,0.0
14016,76.0,0.0,60.0,2.0,0.0
14017,49.0,15.0,15.0,6.0,0.0
14018,49.0,15.0,15.0,6.0,0.0
14019,49.0,15.0,15.0,6.0,0.0
14020,49.0,0.0,15.0,6.0,0.0
14021,49.0,15.0,15.0,6.0,0.0
14022,64.0,0.0,30.0,3.0,0.0
14023,88.0,0.0,30.0,0.0,0.0
14024,76.0,0.0,30.0,2.0,0.0
14025,76.0,0.0,30.0,1.0,0.0
14026,54.0,15.0,30.0,10.0,0.0
14027,49.0,15.0,15.0,6.0,0.0
14028,66.0,0.0,60.0,3.0,0.0
14029,78.0,0.0,60.0,1.0,0.0
14030,90.0,15.0,60.0,0.0,0.0
14031,78.0,0.0,60.0,2.0,0.0
14032,49.0,15.0,15.0,6.0,0.0
14033,49.0,15.0,15.0,6.0,0.0
14034,49.0,15.0,15.0,6.0,0.0
14035,80.0,0.0,60.0,1.0,0.0
14036,52.0,0.0,90.0,11.0,0.0
14037,68.0,0.0,60.0,3.0,0.0
14038,80.0,0.0,60.0,2.0,0.0
14039,92.0,15.0,60.0,0.0,0.0
14040,49.0,0.0,15.0,6.0,0.0
14041,52.0,0.0,15.0,10.0,0.0
14042,49.0,15.0,15.0,6.0,0.0
14043,49.0,15.0,15.0,6.0,0.0
14044,49.0,0.0,15.0,6.0,0.0
14045,49.0,15.0,15.0,6.0,0.0
14046,51.0,0.0,30.0,11.0,0.0
14047,49.0,15.0,15.0,6.0,0.0
14048,49.0,0.0,15.0,6.0,0.0
14049,80.0,0.0,15.0,2.0,0.0
14050,49.0,0.0,60.0,11.0,0.0
14051,92.0,0.0,15.0,0.0,0.0
14052,80.0,15.0,15.0,1.0,0.0
14053,68.0,0.0,15.0,3.0,0.0
14054,49.0,15.0,15.0,6.0,0.0
14055,49.0,15.0,15.0,6.0,0.0
14056,49.0,60.0,15.0,6.0,0.0
14057,56.0,0.0,60.0,4.0,0.0
14058,66.0,0.0,60.0,8.0,0.0
14059,92.0,0.0,60.0,0.0,0.0
14060,78.0,0.0,60.0,7.0,0.0
14061,78.0,0.0,60.0,1.0,0.0
14062,51.0,0.0,60.0,3.0,0.0
14063,78.0,0.0,60.0,2.0,0.0
14064,63.0,0.0,60.0,10.0,0.0
14065,68.0,0.0,60.0,4.0,0.0
14066,51.0,0.0,60.0,11.0,0.0
14067,56.0,60.0,60.0,6.0,0.0
14068,78.0,0.0,30.0,1.0,0.0
14069,63.0,0.0,30.0,10.0,0.0
14070,78.0,0.0,30.0,2.0,0.0
14071,66.0,0.0,30.0,8.0,0.0
14072,56.0,0.0,30.0,6.0,0.0
14073,51.0,0.0,30.0,3.0,0.0
14074,51.0,0.0,30.0,11.0,0.0
14075,78.0,0.0,30.0,7.0,0.0
14076,92.0,60.0,30.0,0.0,0.0
14077,68.0,0.0,30.0,4.0,0.0
14078,56.0,0.0,15.0,4.0,0.0
14079,77.0,0.0,60.0,7.0,0.0
14080,77.0,0.0,60.0,1.0,0.0
14081,50.0,0.0,60.0,3.0,0.0
14082,68.0,0.0,60.0,4.0,0.0
14083,77.0,0.0,60.0,2.0,0.0
14084,65.0,0.0,60.0,8.0,0.0
14085,62.0,0.0,60.0,10.0,0.0
14086,50.0,0.0,60.0,11.0,0.0
14087,56.0,60.0,60.0,6.0,0.0
14088,51.0,0.0,60.0,3.0,0.0
14089,63.0,0.0,60.0,10.0,0.0
14090,92.0,0.0,15.0,0.0,0.0
14091,51.0,0.0,60.0,11.0,0.0
14092,66.0,0.0,60.0,8.0,0.0
14093,78.0,0.0,60.0,2.0,0.0
14094,78.0,0.0,60.0,7.0,0.0
14095,78.0,0.0,60.0,1.0,0.0
14096,56.0,0.0,60.0,4.0,0.0
14097,68.0,0.0,60.0,4.0,0.0
14098,56.0,60.0,60.0,6.0,0.0
14099,51.0,0.0,30.0,3.0,0.0
14100,68.0,0.0,30.0,4.0,0.0
14101,78.0,0.0,30.0,1.0,0.0
14102,92.0,0.0,30.0,0.0,0.0
14103,63.0,60.0,30.0,10.0,0.0
14104,51.0,0.0,30.0,11.0,0.0
14105,66.0,0.0,30.0,8.0,0.0
14106,78.0,0.0,30.0,2.0,0.0
14107,78.0,0.0,30.0,7.0,0.0
14108,50.0,0.0,60.0,3.0,0.0
14109,77.0,0.0,60.0,1.0,0.0
14110,50.0,0.0,60.0,11.0,0.0
14111,56.0,0.0,15.0,6.0,0.0
14112,56.0,0.0,15.0,4.0,0.0
14113,65.0,0.0,60.0,8.0,0.0
14114,77.0,0.0,60.0,7.0,0.0
14115,77.0,0.0,60.0,2.0,0.0
14116,62.0,0.0,60.0,10.0,0.0
14117,66.0,0.0,60.0,8.0,0.0
14118,92.0,0.0,15.0,0.0,0.0
14119,51.0,0.0,60.0,11.0,0.0
14120,63.0,0.0,60.0,10.0,0.0
14121,78.0,0.0,60.0,2.0,0.0
14122,78.0,0.0,60.0,7.0,0.0
14123,68.0,60.0,15.0,4.0,0.0
14124,51.0,0.0,60.0,3.0,0.0
14125,78.0,0.0,60.0,1.0,0.0
14126,56.0,60.0,60.0,4.0,0.0
14127,56.0,0.0,60.0,6.0,0.0
14128,78.0,0.0,30.0,7.0,0.0
14129,56.0,0.0,30.0,6.0,0.0
14130,78.0,0.0,30.0,2.0,0.0
14131,51.0,0.0,30.0,11.0,0.0
14132,51.0,0.0,30.0,3.0,0.0
14133,63.0,0.0,30.0,10.0,0.0
14134,66.0,0.0,30.0,8.0,0.0
14135,78.0,0.0,30.0,1.0,0.0
14136,50.0,0.0,60.0,3.0,0.0
14137,50.0,0.0,60.0,11.0,0.0
14138,77.0,0.0,60.0,7.0,0.0
14139,92.0,60.0,15.0,0.0,0.0
14140,77.0,0.0,60.0,2.0,0.0
14141,65.0,0.0,60.0,8.0,0.0
14142,56.0,0.0,60.0,6.0,0.0
14143,77.0,0.0,60.0,1.0,0.0
14144,68.0,0.0,15.0,4.0,0.0
14145,56.0,0.0,15.0,4.0,0.0
14146,62.0,60.0,60.0,10.0,0.0
14147,51.0,0.0,60.0,3.0,0.0
14148,51.0,0.0,60.0,11.0,0.0
14149,78.0,0.0,60.0,2.0,0.0
14150,92.0,0.0,15.0,0.0,0.0
14151,68.0,0.0,15.0,4.0,0.0
14152,56.0,0.0,15.0,4.0,0.0
14153,78.0,0.0,60.0,1.0,0.0
14154,66.0,60.0,60.0,8.0,0.0
14155,63.0,0.0,60.0,10.0,0.0
14156,78.0,0.0,60.0,7.0,0.0
14157,56.0,0.0,60.0,6.0,0.0
14158,63.0,0.0,30.0,10.0,0.0
14159,78.0,60.0,30.0,7.0,0.0
14160,51.0,0.0,30.0,11.0,0.0
14161,66.0,0.0,30.0,8.0,0.0
14162,56.0,0.0,30.0,4.0,0.0
14163,78.0,0.0,30.0,2.0,0.0
14164,68.0,0.0,30.0,4.0,0.0
14165,56.0,0.0,30.0,6.0,0.0
14166,78.0,0.0,30.0,1.0,0.0
14167,51.0,0.0,30.0,3.0,0.0
14168,50.0,0.0,60.0,3.0,0.0
14169,56.0,0.0,60.0,6.0,0.0
14170,92.0,0.0,15.0,0.0,0.0
14171,77.0,0.0,60.0,2.0,0.0
14172,77.0,0.0,60.0,1.0,0.0
14173,65.0,0.0,60.0,8.0,0.0
14174,62.0,60.0,60.0,10.0,0.0
14175,77.0,0.0,60.0,7.0,0.0
14176,50.0,0.0,60.0,11.0,0.0
14177,66.0,0.0,120.0,8.0,0.0
14178,51.0,60.0,120.0,11.0,0.0
14179,78.0,0.0,120.0,7.0,0.0
14180,51.0,0.0,60.0,3.0,0.0
14181,68.0,0.0,15.0,4.0,0.0
14182,56.0,0.0,15.0,4.0,0.0
14183,78.0,60.0,60.0,1.0,0.0
14184,56.0,0.0,120.0,6.0,0.0
14185,63.0,0.0,120.0,10.0,0.0
14186,78.0,0.0,60.0,2.0,0.0
14187,92.0,0.0,60.0,0.0,0.0
14188,66.0,0.0,30.0,2.0,0.0
14189,78.0,0.0,30.0,2.0,0.0
14190,92.0,0.0,30.0,0.0,0.0
14191,66.0,0.0,30.0,3.0,0.0
14192,78.0,0.0,30.0,1.0,0.0
14193,92.0,0.0,60.0,0.0,0.0
14194,68.0,0.0,60.0,2.0,0.0
14195,80.0,0.0,60.0,1.0,0.0
14196,80.0,120.0,60.0,2.0,0.0
14197,68.0,0.0,60.0,3.0,0.0
14198,93.0,0.0,120.0,0.0,0.0
14199,69.0,0.0,120.0,3.0,0.0
14200,69.0,0.0,120.0,2.0,0.0
14201,81.0,0.0,120.0,1.0,0.0
14202,81.0,60.0,120.0,2.0,0.0
14203,63.0,0.0,30.0,11.0,0.0
14204,75.0,0.0,30.0,10.0,0.0
14205,75.0,0.0,30.0,8.0,0.0
14206,87.0,0.0,30.0,7.0,0.0
14207,76.0,0.0,60.0,10.0,0.0
14208,88.0,0.0,60.0,7.0,0.0
14209,76.0,0.0,60.0,8.0,0.0
14210,64.0,120.0,60.0,11.0,0.0
14211,90.0,60.0,120.0,7.0,0.0
14212,78.0,0.0,120.0,10.0,0.0
14213,66.0,0.0,120.0,11.0,0.0
14214,78.0,0.0,120.0,8.0,0.0
14215,87.0,0.0,30.0,1.0,0.0
14216,87.0,0.0,30.0,0.0,0.0
14217,75.0,0.0,30.0,2.0,0.0
14218,75.0,0.0,30.0,1.0,0.0
14219,63.0,0.0,30.0,3.0,0.0
14220,76.0,120.0,60.0,1.0,0.0
14221,64.0,0.0,60.0,3.0,0.0
14222,88.0,0.0,60.0,1.0,0.0
14223,88.0,0.0,60.0,0.0,0.0
14224,76.0,0.0,60.0,2.0,0.0
14225,78.0,0.0,120.0,1.0,0.0
14226,90.0,0.0,120.0,1.0,0.0
14227,66.0,0.0,120.0,3.0,0.0
14228,90.0,0.0,120.0,0.0,0.0
14229,78.0,0.0,120.0,2.0,0.0
14230,72.0,0.0,30.0,10.0,0.0
14231,84.0,0.0,30.0,7.0,0.0
14232,60.0,0.0,30.0,11.0,0.0
14233,72.0,60.0,30.0,8.0,0.0
14234,73.0,0.0,60.0,10.0,0.0
14235,61.0,0.0,60.0,11.0,0.0
14236,73.0,120.0,60.0,8.0,0.0
14237,85.0,0.0,60.0,7.0,0.0
14238,87.0,0.0,120.0,7.0,0.0
14239,75.0,0.0,120.0,8.0,0.0
14240,75.0,60.0,120.0,10.0,0.0
14241,63.0,0.0,120.0,11.0,0.0
14242,72.0,0.0,30.0,1.0,0.0
14243,84.0,0.0,30.0,1.0,0.0
14244,84.0,0.0,30.0,0.0,0.0
14245,72.0,0.0,30.0,2.0,0.0
14246,60.0,0.0,30.0,3.0,0.0
14247,61.0,0.0,60.0,3.0,0.0
14248,85.0,0.0,60.0,1.0,0.0
14249,85.0,120.0,60.0,0.0,0.0
14250,73.0,0.0,60.0,1.0,0.0
14251,73.0,0.0,60.0,2.0,0.0
14252,63.0,0.0,120.0,3.0,0.0
14253,75.0,0.0,120.0,2.0,0.0
14254,75.0,0.0,120.0,1.0,0.0
14255,87.0,0.0,120.0,0.0,0.0
14256,87.0,0.0,120.0,1.0,0.0
14257,78.0,60.0,30.0,7.0,0.0
14258,54.0,0.0,30.0,11.0,0.0
14259,66.0,0.0,30.0,10.0,0.0
14260,66.0,0.0,30.0,8.0,0.0
14261,68.0,120.0,60.0,10.0,0.0
14262,68.0,0.0,60.0,8.0,0.0
14263,80.0,0.0,60.0,7.0,0.0
14264,56.0,0.0,60.0,11.0,0.0
14265,69.0,0.0,120.0,8.0,0.0
14266,69.0,0.0,120.0,10.0,0.0
14267,81.0,0.0,120.0,7.0,0.0
14268,57.0,0.0,120.0,11.0,0.0
14269,63.0,0.0,30.0,3.0,0.0
14270,75.0,0.0,30.0,2.0,0.0
14271,87.0,60.0,30.0,1.0,0.0
14272,87.0,0.0,30.0,0.0,0.0
14273,75.0,0.0,30.0,1.0,0.0
14274,76.0,0.0,60.0,2.0,0.0
14275,88.0,0.0,60.0,0.0,0.0
14276,88.0,120.0,60.0,1.0,0.0
14277,76.0,0.0,60.0,1.0,0.0
14278,64.0,0.0,60.0,3.0,0.0
14279,66.0,0.0,120.0,3.0,0.0
14280,78.0,0.0,120.0,2.0,0.0
14281,90.0,0.0,120.0,0.0,0.0
14282,78.0,0.0,120.0,1.0,0.0
14283,90.0,0.0,120.0,1.0,0.0
14284,48.0,0.0,30.0,11.0,0.0
14285,60.0,60.0,30.0,10.0,0.0
14286,72.0,0.0,30.0,7.0,0.0
14287,60.0,0.0,30.0,8.0,0.0
14288,61.0,60.0,60.0,8.0,0.0
14289,73.0,0.0,60.0,7.0,0.0
14290,49.0,0.0,60.0,11.0,0.0
14291,61.0,0.0,60.0,10.0,0.0
14292,63.0,0.0,60.0,10.0,0.0
14293,51.0,60.0,60.0,11.0,0.0
14294,75.0,0.0,60.0,7.0,0.0
14295,63.0,0.0,60.0,8.0,0.0
14296,48.0,60.0,30.0,11.0,0.0
14297,60.0,0.0,30.0,8.0,0.0
14298,60.0,0.0,30.0,10.0,0.0
14299,72.0,0.0,30.0,7.0,0.0
14300,61.0,0.0,60.0,10.0,0.0
14301,49.0,0.0,60.0,11.0,0.0
14302,61.0,0.0,60.0,8.0,0.0
14303,73.0,60.0,60.0,7.0,0.0
14304,51.0,0.0,60.0,11.0,0.0
14305,63.0,0.0,60.0,10.0,0.0
14306,63.0,60.0,60.0,8.0,0.0
14307,75.0,0.0,60.0,7.0,0.0
14308,61.0,60.0,30.0,10.0,0.0
14309,73.0,0.0,30.0,7.0,0.0
14310,61.0,0.0,30.0,8.0,0.0
14311,49.0,0.0,30.0,11.0,0.0
14312,51.0,0.0,60.0,11.0,0.0
14313,63.0,60.0,60.0,8.0,0.0
14314,75.0,0.0,60.0,7.0,0.0
14315,63.0,0.0,60.0,10.0,0.0
14316,64.0,0.0,60.0,8.0,0.0
14317,52.0,60.0,60.0,11.0,0.0
14318,64.0,0.0,60.0,10.0,0.0
14319,76.0,0.0,60.0,7.0,0.0
14320,61.0,60.0,30.0,10.0,0.0
14321,73.0,0.0,30.0,7.0,0.0
14322,61.0,0.0,30.0,8.0,0.0
14323,49.0,0.0,30.0,11.0,0.0
14324,63.0,0.0,60.0,10.0,0.0
14325,75.0,0.0,60.0,7.0,0.0
14326,63.0,0.0,60.0,8.0,0.0
14327,51.0,60.0,60.0,11.0,0.0
14328,52.0,0.0,60.0,11.0,0.0
14329,64.0,0.0,60.0,8.0,0.0
14330,64.0,60.0,60.0,10.0,0.0
14331,76.0,0.0,60.0,7.0,0.0
14332,75.0,0.0,30.0,7.0,0.0
14333,63.0,0.0,30.0,8.0,0.0
14334,63.0,60.0,30.0,10.0,0.0
14335,51.0,0.0,30.0,11.0,0.0
14336,65.0,0.0,60.0,8.0,0.0
14337,77.0,0.0,60.0,7.0,0.0
14338,53.0,0.0,60.0,11.0,0.0
14339,65.0,60.0,60.0,10.0,0.0
14340,54.0,0.0,60.0,11.0,0.0
14341,66.0,0.0,60.0,10.0,0.0
14342,66.0,60.0,60.0,8.0,0.0
14343,78.0,0.0,60.0,7.0,0.0
14344,75.0,0.0,30.0,7.0,0.0
14345,51.0,0.0,30.0,11.0,0.0
14346,63.0,0.0,30.0,10.0,0.0
14347,63.0,60.0,30.0,8.0,0.0
14348,53.0,60.0,60.0,11.0,0.0
14349,77.0,0.0,60.0,7.0,0.0
14350,65.0,0.0,60.0,8.0,0.0
14351,65.0,0.0,60.0,10.0,0.0
14352,66.0,0.0,60.0,10.0,0.0
14353,78.0,0.0,60.0,7.0,0.0
14354,66.0,0.0,60.0,8.0,0.0
14355,54.0,60.0,60.0,11.0,0.0
14356,53.0,0.0,30.0,11.0,0.0
14357,77.0,0.0,30.0,7.0,0.0
14358,65.0,60.0,30.0,8.0,0.0
14359,65.0,0.0,30.0,10.0,0.0
14360,67.0,0.0,60.0,10.0,0.0
14361,79.0,0.0,60.0,7.0,0.0
14362,55.0,0.0,60.0,11.0,0.0
14363,67.0,60.0,60.0,8.0,0.0
14364,56.0,0.0,60.0,11.0,0.0
14365,68.0,0.0,60.0,10.0,0.0
14366,68.0,0.0,60.0,8.0,0.0
14367,80.0,60.0,60.0,7.0,0.0
14368,65.0,0.0,30.0,10.0,0.0
14369,65.0,0.0,30.0,8.0,0.0
14370,53.0,60.0,30.0,11.0,0.0
14371,77.0,0.0,30.0,7.0,0.0
14372,67.0,0.0,60.0,10.0,0.0
14373,67.0,0.0,60.0,8.0,0.0
14374,79.0,0.0,60.0,7.0,0.0
14375,55.0,60.0,60.0,11.0,0.0
14376,56.0,0.0,60.0,11.0,0.0
14377,68.0,0.0,60.0,8.0,0.0
14378,68.0,0.0,60.0,10.0,0.0
14379,80.0,60.0,60.0,7.0,0.0
14380,65.0,0.0,30.0,8.0,0.0
14381,77.0,0.0,30.0,7.0,0.0
14382,53.0,60.0,30.0,11.0,0.0
14383,65.0,0.0,30.0,10.0,0.0
14384,67.0,0.0,60.0,8.0,0.0
14385,67.0,0.0,60.0,10.0,0.0
14386,79.0,0.0,60.0,7.0,0.0
14387,55.0,60.0,60.0,11.0,0.0
14388,68.0,0.0,60.0,8.0,0.0
14389,68.0,0.0,60.0,10.0,0.0
14390,80.0,60.0,60.0,7.0,0.0
14391,56.0,0.0,60.0,11.0,0.0
14392,77.0,0.0,30.0,2.0,0.0
14393,89.0,0.0,30.0,0.0,0.0
14394,65.0,0.0,30.0,8.0,0.0
14395,77.0,0.0,30.0,7.0,0.0
14396,53.0,0.0,30.0,11.0,0.0
14397,65.0,0.0,30.0,10.0,0.0
14398,66.0,0.0,60.0,8.0,0.0
14399,78.0,60.0,60.0,2.0,0.0
14400,56.0,0.0,15.0,4.0,0.0
14401,68.0,60.0,15.0,4.0,0.0
14402,78.0,0.0,60.0,7.0,0.0
14403,54.0,0.0,60.0,11.0,0.0
14404,90.0,0.0,60.0,0.0,0.0
14405,66.0,0.0,60.0,10.0,0.0
14406,68.0,0.0,15.0,4.0,0.0
14407,68.0,0.0,60.0,10.0,0.0
14408,56.0,0.0,60.0,4.0,0.0
14409,80.0,60.0,60.0,7.0,0.0
14410,56.0,0.0,60.0,11.0,0.0
14411,92.0,0.0,60.0,0.0,0.0
14412,68.0,0.0,60.0,8.0,0.0
14413,80.0,0.0,60.0,2.0,0.0
14414,65.0,0.0,30.0,8.0,0.0
14415,65.0,0.0,30.0,10.0,0.0
14416,77.0,0.0,30.0,2.0,0.0
14417,53.0,0.0,30.0,11.0,0.0
14418,89.0,0.0,30.0,0.0,0.0
14419,56.0,0.0,30.0,4.0,0.0
14420,68.0,0.0,30.0,4.0,0.0
14421,77.0,60.0,30.0,7.0,0.0
14422,78.0,0.0,60.0,2.0,0.0
14423,90.0,60.0,60.0,0.0,0.0
14424,54.0,0.0,60.0,11.0,0.0
14425,66.0,0.0,60.0,10.0,0.0
14426,78.0,0.0,60.0,7.0,0.0
14427,66.0,0.0,60.0,8.0,0.0
14428,56.0,0.0,15.0,4.0,0.0
14429,92.0,0.0,60.0,0.0,0.0
14430,80.0,60.0,60.0,2.0,0.0
14431,68.0,0.0,15.0,4.0,0.0
14432,80.0,0.0,60.0,7.0,0.0
14433,68.0,0.0,60.0,10.0,0.0
14434,68.0,0.0,60.0,8.0,0.0
14435,56.0,0.0,60.0,11.0,0.0
14436,89.0,0.0,30.0,0.0,0.0
14437,53.0,0.0,30.0,11.0,0.0
14438,65.0,60.0,30.0,8.0,0.0
14439,77.0,0.0,30.0,2.0,0.0
14440,56.0,0.0,30.0,4.0,0.0
14441,77.0,0.0,30.0,7.0,0.0
14442,65.0,0.0,30.0,10.0,0.0
14443,90.0,0.0,60.0,0.0,0.0
14444,66.0,0.0,60.0,10.0,0.0
14445,68.0,0.0,15.0,4.0,0.0
14446,54.0,0.0,60.0,11.0,0.0
14447,66.0,60.0,60.0,8.0,0.0
14448,78.0,0.0,60.0,2.0,0.0
14449,78.0,0.0,60.0,7.0,0.0
14450,56.0,0.0,60.0,4.0,0.0
14451,68.0,0.0,60.0,10.0,0.0
14452,56.0,0.0,60.0,11.0,0.0
14453,80.0,0.0,60.0,2.0,0.0
14454,92.0,0.0,60.0,0.0,0.0
14455,56.0,60.0,60.0,4.0,0.0
14456,68.0,0.0,60.0,4.0,0.0
14457,80.0,0.0,60.0,7.0,0.0
14458,68.0,0.0,60.0,8.0,0.0
14459,65.0,0.0,30.0,8.0,0.0
14460,77.0,0.0,30.0,2.0,0.0
14461,53.0,0.0,30.0,11.0,0.0
14462,77.0,0.0,30.0,7.0,0.0
14463,65.0,60.0,30.0,10.0,0.0
14464,68.0,0.0,30.0,4.0,0.0
14465,89.0,0.0,30.0,0.0,0.0
14466,78.0,0.0,60.0,2.0,0.0
14467,54.0,0.0,60.0,11.0,0.0
14468,78.0,90.0,60.0,7.0,0.0
14469,56.0,0.0,15.0,4.0,0.0
14470,66.0,0.0,60.0,8.0,0.0
14471,90.0,0.0,60.0,0.0,0.0
14472,66.0,0.0,60.0,10.0,0.0
14473,68.0,0.0,60.0,4.0,0.0
14474,68.0,0.0,90.0,2.0,0.0
14475,80.0,0.0,90.0,2.0,0.0
14476,56.0,0.0,120.0,11.0,0.0
14477,92.0,0.0,90.0,0.0,0.0
14478,68.0,60.0,120.0,10.0,0.0
14479,68.0,0.0,120.0,8.0,0.0
14480,68.0,30.0,90.0,4.0,0.0
14481,56.0,0.0,15.0,4.0,0.0
14482,80.0,0.0,120.0,7.0,0.0
14483,68.0,0.0,30.0,4.0,0.0
14484,56.0,0.0,30.0,4.0,0.0
14485,68.0,0.0,15.0,2.0,0.0
14486,80.0,0.0,15.0,2.0,0.0
14487,68.0,0.0,60.0,4.0,0.0
14488,92.0,0.0,15.0,0.0,0.0
14489,56.0,0.0,15.0,4.0,0.0
14490,92.0,0.0,15.0,0.0,0.0
14491,68.0,0.0,90.0,4.0,0.0
14492,68.0,90.0,15.0,2.0,0.0
14493,80.0,0.0,15.0,2.0,0.0
14494,68.0,0.0,30.0,4.0,0.0
14495,68.0,0.0,15.0,2.0,0.0
14496,92.0,0.0,30.0,0.0,0.0
14497,80.0,0.0,15.0,2.0,0.0
14498,92.0,90.0,60.0,0.0,0.0
14499,68.0,0.0,15.0,2.0,0.0
14500,56.0,60.0,15.0,4.0,0.0
14501,68.0,0.0,15.0,4.0,0.0
14502,56.0,30.0,90.0,4.0,0.0
14503,92.0,0.0,90.0,0.0,0.0
14504,80.0,0.0,90.0,2.0,0.0
14505,68.0,0.0,90.0,2.0,0.0
14506,92.0,0.0,15.0,0.0,0.0
14507,80.0,0.0,15.0,2.0,0.0
14508,68.0,0.0,15.0,4.0,0.0
14509,56.0,0.0,15.0,4.0,0.0
14510,68.0,60.0,15.0,2.0,0.0
14511,68.0,0.0,90.0,2.0,0.0
14512,68.0,0.0,30.0,7.0,0.0
14513,56.0,0.0,30.0,11.0,0.0
14514,56.0,30.0,30.0,10.0,0.0
14515,68.0,0.0,30.0,8.0,0.0
14516,92.0,30.0,15.0,0.0,0.0
14517,68.0,0.0,90.0,4.0,0.0
14518,70.0,30.0,30.0,8.0,0.0
14519,70.0,0.0,30.0,7.0,0.0
14520,58.0,0.0,30.0,11.0,0.0
14521,58.0,0.0,30.0,10.0,0.0
14522,72.0,0.0,30.0,7.0,0.0
14523,60.0,0.0,30.0,11.0,0.0
14524,60.0,0.0,30.0,10.0,0.0
14525,72.0,0.0,30.0,8.0,0.0
14526,80.0,0.0,15.0,2.0,0.0
14527,61.0,20.0,30.0,11.0,0.0
14528,73.0,0.0,30.0,8.0,0.0
14529,61.0,0.0,30.0,10.0,0.0
14530,73.0,0.0,30.0,7.0,0.0
14531,92.0,30.0,15.0,0.0,0.0
14532,56.0,0.0,15.0,4.0,0.0
14533,68.0,0.0,30.0,2.0,0.0
14534,68.0,0.0,15.0,4.0,0.0
14535,75.0,0.0,20.0,8.0,0.0
14536,63.0,0.0,20.0,10.0,0.0
14537,80.0,0.0,15.0,2.0,0.0
14538,63.0,20.0,20.0,11.0,0.0
14539,75.0,0.0,20.0,7.0,0.0
14540,92.0,90.0,60.0,0.0,0.0
14541,65.0,20.0,20.0,11.0,0.0
14542,65.0,0.0,20.0,10.0,0.0
14543,77.0,0.0,20.0,8.0,0.0
14544,77.0,0.0,20.0,7.0,0.0
14545,66.0,0.0,20.0,10.0,0.0
14546,66.0,0.0,20.0,11.0,0.0
14547,78.0,0.0,20.0,8.0,0.0
14548,78.0,0.0,20.0,7.0,0.0
14549,80.0,0.0,15.0,2.0,0.0
14550,68.0,0.0,15.0,2.0,0.0
14551,68.0,0.0,15.0,4.0,0.0
14552,56.0,0.0,15.0,4.0,0.0
14553,80.0,0.0,120.0,8.0,0.0
14554,65.0,0.0,90.0,3.0,0.0
14555,80.0,0.0,120.0,7.0,0.0
14556,68.0,0.0,120.0,11.0,0.0
14557,68.0,0.0,120.0,10.0,0.0
14558,92.0,0.0,90.0,0.0,0.0
14559,77.0,0.0,15.0,1.0,0.0
14560,68.0,30.0,15.0,2.0,0.0
14561,89.0,0.0,15.0,1.0,0.0
14562,56.0,0.0,15.0,4.0,0.0
14563,80.0,0.0,15.0,2.0,0.0
14564,53.0,0.0,15.0,3.0,0.0
14565,68.0,0.0,15.0,2.0,0.0
14566,92.0,0.0,15.0,0.0,0.0
14567,68.0,0.0,15.0,4.0,0.0
14568,56.0,0.0,15.0,4.0,0.0
14569,65.0,0.0,15.0,3.0,0.0
14570,77.0,60.0,15.0,1.0,0.0
14571,89.0,0.0,60.0,1.0,0.0
14572,68.0,0.0,15.0,2.0,0.0
14573,80.0,0.0,15.0,2.0,0.0
14574,65.0,90.0,15.0,3.0,0.0
14575,53.0,0.0,15.0,3.0,0.0
14576,68.0,0.0,15.0,4.0,0.0
14577,92.0,0.0,15.0,0.0,0.0
14578,77.0,0.0,15.0,1.0,0.0
14579,56.0,0.0,90.0,4.0,0.0
14580,80.0,0.0,30.0,2.0,0.0
14581,65.0,0.0,15.0,3.0,0.0
14582,53.0,0.0,30.0,3.0,0.0
14583,68.0,30.0,15.0,4.0,0.0
14584,89.0,0.0,15.0,1.0,0.0
14585,77.0,0.0,15.0,1.0,0.0
14586,92.0,0.0,30.0,0.0,0.0
14587,68.0,0.0,30.0,2.0,0.0
14588,65.0,0.0,60.0,3.0,0.0
14589,56.0,0.0,15.0,4.0,0.0
14590,68.0,0.0,60.0,2.0,0.0
14591,89.0,0.0,60.0,1.0,0.0
14592,77.0,60.0,15.0,1.0,0.0
14593,80.0,0.0,15.0,2.0,0.0
14594,49.0,0.0,90.0,5.0,0.0
14595,61.0,0.0,90.0,5.0,0.0
14596,92.0,0.0,15.0,0.0,0.0
14597,56.0,0.0,15.0,4.0,0.0
14598,68.0,90.0,15.0,4.0,0.0
14599,49.0,0.0,90.0,6.0,0.0
14600,53.0,0.0,15.0,3.0,0.0
14601,68.0,0.0,15.0,2.0,0.0
14602,80.0,0.0,30.0,2.0,0.0
14603,92.0,0.0,30.0,0.0,0.0
14604,53.0,0.0,15.0,3.0,0.0
14605,49.0,0.0,30.0,6.0,0.0
14606,65.0,0.0,15.0,3.0,0.0
14607,49.0,0.0,30.0,5.0,0.0
14608,61.0,0.0,30.0,5.0,0.0
14609,77.0,0.0,15.0,1.0,0.0
14610,89.0,30.0,15.0,1.0,0.0
14611,68.0,0.0,15.0,4.0,0.0
14612,56.0,0.0,15.0,4.0,0.0
14613,65.0,0.0,15.0,3.0,0.0
14614,49.0,0.0,60.0,6.0,0.0
14615,89.0,0.0,60.0,1.0,0.0
14616,49.0,0.0,60.0,5.0,0.0
14617,53.0,0.0,60.0,3.0,0.0
14618,80.0,0.0,60.0,2.0,0.0
14619,68.0,60.0,15.0,2.0,0.0
14620,56.0,30.0,30.0,11.0,0.0
14621,68.0,0.0,30.0,8.0,0.0
14622,61.0,0.0,15.0,5.0,0.0
14623,68.0,0.0,30.0,7.0,0.0
14624,92.0,0.0,15.0,0.0,0.0
14625,97.0,0.0,90.0,0.0,0.0
14626,80.0,30.0,90.0,2.0,0.0
14627,68.0,0.0,90.0,2.0,0.0
14628,56.0,0.0,30.0,10.0,0.0
14629,77.0,30.0,15.0,1.0,0.0
14630,89.0,0.0,90.0,1.0,0.0
14631,68.0,0.0,90.0,4.0,0.0
14632,56.0,0.0,90.0,4.0,0.0
14633,65.0,0.0,90.0,3.0,0.0
14634,58.0,0.0,30.0,10.0,0.0
14635,70.0,0.0,30.0,8.0,0.0
14636,58.0,0.0,30.0,11.0,0.0
14637,70.0,30.0,30.0,7.0,0.0
14638,60.0,0.0,30.0,10.0,0.0
14639,60.0,0.0,30.0,11.0,0.0
14640,72.0,0.0,30.0,7.0,0.0
14641,72.0,0.0,30.0,8.0,0.0
14642,73.0,0.0,30.0,7.0,0.0
14643,49.0,0.0,15.0,6.0,0.0
14644,61.0,0.0,30.0,10.0,0.0
14645,53.0,0.0,15.0,3.0,0.0
14646,65.0,0.0,30.0,3.0,0.0
14647,61.0,0.0,15.0,5.0,0.0
14648,49.0,0.0,15.0,5.0,0.0
14649,61.0,0.0,30.0,11.0,0.0
14650,73.0,0.0,30.0,8.0,0.0
14651,97.0,0.0,30.0,0.0,0.0
14652,68.0,0.0,30.0,2.0,0.0
14653,92.0,0.0,30.0,0.0,0.0
14654,49.0,0.0,15.0,5.0,0.0
14655,75.0,0.0,20.0,7.0,0.0
14656,61.0,0.0,15.0,5.0,0.0
14657,80.0,0.0,15.0,2.0,0.0
14658,75.0,20.0,20.0,8.0,0.0
14659,49.0,0.0,15.0,6.0,0.0
14660,63.0,0.0,20.0,10.0,0.0
14661,92.0,0.0,60.0,0.0,0.0
14662,77.0,0.0,15.0,1.0,0.0
14663,89.0,0.0,15.0,1.0,0.0
14664,63.0,0.0,20.0,11.0,0.0
14665,68.0,0.0,15.0,4.0,0.0
14666,56.0,20.0,15.0,4.0,0.0
14667,65.0,20.0,20.0,10.0,0.0
14668,65.0,0.0,20.0,11.0,0.0
14669,77.0,0.0,20.0,7.0,0.0
14670,77.0,0.0,20.0,8.0,0.0
14671,78.0,0.0,20.0,7.0,0.0
14672,66.0,0.0,20.0,10.0,0.0
14673,66.0,0.0,20.0,11.0,0.0
14674,78.0,0.0,20.0,8.0,0.0
14675,68.0,30.0,30.0,10.0,0.0
14676,97.0,0.0,15.0,0.0,0.0
14677,68.0,0.0,60.0,11.0,0.0
14678,80.0,0.0,15.0,2.0,0.0
14679,68.0,0.0,15.0,2.0,0.0
14680,68.0,0.0,15.0,4.0,0.0
14681,56.0,0.0,15.0,4.0,0.0
14682,92.0,0.0,120.0,0.0,0.0
14683,65.0,0.0,15.0,3.0,0.0
14684,53.0,0.0,15.0,3.0,0.0
14685,49.0,30.0,15.0,6.0,0.0
14686,77.0,0.0,120.0,1.0,0.0
14687,89.0,0.0,120.0,1.0,0.0
14688,80.0,0.0,270.0,7.0,0.0
14689,49.0,0.0,120.0,5.0,0.0
14690,80.0,0.0,30.0,8.0,0.0
14691,61.0,0.0,120.0,5.0,0.0
14692,56.0,30.0,30.0,10.0,0.0
14693,65.0,0.0,30.0,8.0,0.0
14694,65.0,0.0,30.0,8.0,0.0
14695,56.0,30.0,30.0,10.0,0.0
14696,65.0,0.0,15.0,8.0,0.0
14697,49.0,0.0,15.0,11.0,0.0
14698,56.0,0.0,15.0,10.0,0.0
14699,56.0,0.0,15.0,10.0,0.0
14700,65.0,30.0,15.0,8.0,0.0
14701,49.0,30.0,15.0,11.0,0.0
14702,56.0,0.0,15.0,10.0,0.0
14703,65.0,0.0,15.0,8.0,0.0
14704,56.0,0.0,15.0,10.0,0.0
14705,65.0,30.0,30.0,8.0,0.0
14706,54.0,0.0,30.0,10.0,0.0
14707,66.0,30.0,15.0,8.0,0.0
14708,78.0,30.0,30.0,7.0,0.0
14709,51.0,0.0,30.0,11.0,0.0
14710,54.0,0.0,30.0,10.0,0.0
14711,53.0,0.0,60.0,11.0,0.0
14712,56.0,0.0,30.0,10.0,0.0
14713,68.0,30.0,15.0,8.0,0.0
14714,56.0,0.0,30.0,10.0,0.0
14715,54.0,0.0,30.0,10.0,0.0
14716,51.0,30.0,60.0,11.0,0.0
14717,77.0,15.0,15.0,7.0,0.0
14718,78.0,0.0,240.0,7.0,0.0
14719,54.0,0.0,30.0,10.0,0.0
14720,66.0,30.0,15.0,8.0,0.0
14721,68.0,0.0,30.0,8.0,0.0
14722,56.0,30.0,15.0,10.0,0.0
14723,53.0,0.0,30.0,11.0,0.0
14724,68.0,0.0,30.0,8.0,0.0
14725,58.0,0.0,30.0,10.0,0.0
14726,54.0,0.0,60.0,11.0,0.0
14727,70.0,30.0,15.0,8.0,0.0
14728,58.0,0.0,30.0,10.0,0.0
14729,56.0,30.0,60.0,11.0,0.0
14730,56.0,30.0,30.0,10.0,0.0
14731,63.0,0.0,30.0,8.0,0.0
14732,75.0,0.0,30.0,8.0,0.0
14733,75.0,0.0,30.0,8.0,0.0
14734,63.0,0.0,15.0,10.0,0.0
14735,63.0,30.0,15.0,10.0,0.0
14736,75.0,0.0,30.0,8.0,0.0
14737,56.0,1.0,30.0,11.0,0.0
14738,70.0,29.0,30.0,7.0,0.0
14739,72.0,0.0,60.0,7.0,0.0
14740,54.0,0.0,60.0,11.0,0.0
14741,68.0,0.0,30.0,8.0,0.0
14742,68.0,0.0,30.0,8.0,0.0
14743,61.0,0.0,30.0,5.0,0.0
14744,56.0,30.0,15.0,10.0,0.0
14745,68.0,0.0,30.0,2.0,0.0
14746,68.0,0.0,30.0,4.0,0.0
14747,49.0,0.0,30.0,6.0,0.0
14748,61.0,0.0,120.0,5.0,0.0
14749,49.0,0.0,15.0,5.0,0.0
14750,65.0,0.0,15.0,3.0,0.0
14751,53.0,0.0,15.0,3.0,0.0
14752,92.0,0.0,15.0,0.0,0.0
14753,97.0,0.0,15.0,0.0,0.0
14754,56.0,0.0,15.0,4.0,0.0
14755,56.0,0.0,15.0,10.0,0.0
14756,77.0,0.0,15.0,1.0,0.0
14757,89.0,0.0,15.0,1.0,0.0
14758,53.0,0.0,60.0,11.0,0.0
14759,49.0,0.0,120.0,6.0,0.0
14760,80.0,30.0,15.0,2.0,0.0
14761,68.0,0.0,120.0,2.0,0.0
14762,68.0,30.0,120.0,4.0,0.0
14763,68.0,0.0,30.0,8.0,0.0
14764,68.0,30.0,30.0,8.0,0.0
14765,56.0,30.0,15.0,10.0,0.0
14766,68.0,0.0,30.0,10.0,0.0
14767,80.0,30.0,30.0,8.0,0.0
14768,56.0,0.0,30.0,11.0,0.0
14769,80.0,0.0,30.0,8.0,0.0
14770,68.0,0.0,30.0,10.0,0.0
14771,56.0,0.0,30.0,10.0,0.0
14772,68.0,30.0,30.0,8.0,0.0
14773,73.0,0.0,15.0,7.0,0.0
14774,54.0,0.0,60.0,11.0,0.0
14775,68.0,0.0,30.0,8.0,0.0
14776,56.0,30.0,30.0,10.0,0.0
14777,73.0,0.0,15.0,7.0,0.0
14778,68.0,0.0,30.0,8.0,0.0
14779,53.0,0.0,60.0,11.0,0.0
14780,56.0,30.0,30.0,10.0,0.0
14781,80.0,30.0,30.0,8.0,0.0
14782,68.0,0.0,30.0,10.0,0.0
14783,56.0,0.0,30.0,10.0,0.0
14784,75.0,0.0,30.0,7.0,0.0
14785,56.0,0.0,30.0,10.0,0.0
14786,68.0,0.0,15.0,8.0,0.0
14787,51.0,0.0,30.0,11.0,0.0
14788,49.0,30.0,60.0,11.0,0.0
14789,66.0,0.0,30.0,8.0,0.0
14790,54.0,30.0,15.0,10.0,0.0
14791,66.0,0.0,30.0,8.0,0.0
14792,56.0,30.0,30.0,10.0,0.0
14793,77.0,0.0,15.0,7.0,0.0
14794,68.0,0.0,30.0,8.0,0.0
14795,48.0,0.0,60.0,11.0,0.0
14796,68.0,30.0,30.0,8.0,0.0
14797,56.0,0.0,30.0,10.0,0.0
14798,68.0,0.0,30.0,10.0,0.0
14799,75.0,0.0,210.0,7.0,0.0
14800,46.0,30.0,30.0,11.0,0.0
14801,68.0,0.0,30.0,10.0,0.0
14802,80.0,30.0,15.0,8.0,0.0
14803,56.0,30.0,30.0,10.0,0.0
14804,68.0,0.0,30.0,8.0,0.0
14805,44.0,30.0,60.0,11.0,0.0
14806,56.0,0.0,30.0,10.0,0.0
14807,56.0,0.0,30.0,10.0,0.0
14808,68.0,0.0,15.0,8.0,0.0
14809,54.0,0.0,60.0,11.0,0.0
14810,68.0,0.0,30.0,10.0,0.0
14811,80.0,30.0,30.0,8.0,0.0
14812,56.0,0.0,30.0,10.0,0.0
14813,53.0,0.0,30.0,11.0,0.0
14814,68.0,30.0,15.0,8.0,0.0
14815,56.0,0.0,30.0,10.0,0.0
14816,77.0,0.0,30.0,7.0,0.0
14817,78.0,0.0,60.0,7.0,0.0
14818,51.0,0.0,60.0,11.0,0.0
14819,66.0,30.0,30.0,8.0,0.0
14820,49.0,0.0,30.0,5.0,0.0
14821,54.0,0.0,15.0,10.0,0.0
14822,68.0,0.0,30.0,4.0,0.0
14823,56.0,0.0,30.0,4.0,0.0
14824,65.0,0.0,30.0,3.0,0.0
14825,80.0,0.0,30.0,2.0,0.0
14826,66.0,0.0,30.0,8.0,0.0
14827,68.0,0.0,30.0,2.0,0.0
14828,53.0,0.0,30.0,3.0,0.0
14829,49.0,0.0,15.0,6.0,0.0
14830,68.0,0.0,120.0,2.0,0.0
14831,80.0,0.0,120.0,2.0,0.0
14832,61.0,0.0,15.0,5.0,0.0
14833,53.0,30.0,30.0,10.0,0.0
14834,49.0,30.0,60.0,11.0,0.0
14835,53.0,0.0,120.0,3.0,0.0
14836,65.0,0.0,120.0,3.0,0.0
14837,79.0,15.0,15.0,7.0,0.0
14838,92.0,0.0,15.0,0.0,0.0
14839,97.0,0.0,15.0,0.0,0.0
14840,49.0,30.0,120.0,5.0,0.0
14841,89.0,0.0,15.0,1.0,0.0
14842,77.0,15.0,15.0,1.0,0.0
14843,56.0,0.0,120.0,4.0,0.0
14844,68.0,0.0,120.0,4.0,0.0
14845,80.0,0.0,240.0,7.0,0.0
14846,65.0,0.0,15.0,8.0,0.0
14847,56.0,0.0,15.0,10.0,0.0
14848,49.0,0.0,30.0,11.0,0.0
14849,56.0,0.0,30.0,10.0,0.0
14850,65.0,30.0,15.0,8.0,0.0
14851,48.0,0.0,60.0,11.0,0.0
14852,54.0,0.0,30.0,10.0,0.0
14853,63.0,30.0,30.0,8.0,0.0
14854,54.0,30.0,30.0,10.0,0.0
14855,63.0,0.0,30.0,8.0,0.0
14856,65.0,30.0,30.0,8.0,0.0
14857,49.0,30.0,60.0,11.0,0.0
14858,53.0,0.0,15.0,10.0,0.0
14859,65.0,0.0,30.0,8.0,0.0
14860,54.0,0.0,30.0,10.0,0.0
14861,66.0,30.0,30.0,8.0,0.0
14862,51.0,0.0,30.0,11.0,0.0
14863,78.0,0.0,30.0,7.0,0.0
14864,54.0,30.0,30.0,10.0,0.0
14865,66.0,0.0,30.0,8.0,0.0
14866,53.0,0.0,60.0,11.0,0.0
14867,68.0,30.0,30.0,8.0,0.0
14868,56.0,0.0,30.0,10.0,0.0
14869,56.0,0.0,30.0,10.0,0.0
14870,68.0,15.0,30.0,8.0,0.0
14871,51.0,30.0,60.0,11.0,0.0
14872,77.0,0.0,15.0,7.0,0.0
14873,78.0,0.0,240.0,7.0,0.0
14874,66.0,0.0,15.0,8.0,0.0
14875,54.0,30.0,15.0,10.0,0.0
14876,56.0,30.0,30.0,10.0,0.0
14877,68.0,0.0,30.0,8.0,0.0
14878,68.0,0.0,30.0,8.0,0.0
14879,53.0,30.0,30.0,11.0,0.0
14880,56.0,0.0,30.0,10.0,0.0
14881,58.0,0.0,30.0,10.0,0.0
14882,54.0,30.0,60.0,11.0,0.0
14883,70.0,30.0,15.0,8.0,0.0
14884,58.0,0.0,30.0,10.0,0.0
14885,56.0,0.0,60.0,11.0,0.0
14886,56.0,0.0,30.0,10.0,0.0
14887,63.0,30.0,30.0,8.0,0.0
14888,56.0,0.0,30.0,10.0,0.0
14889,63.0,30.0,30.0,8.0,0.0
14890,70.0,0.0,30.0,7.0,0.0
14891,56.0,0.0,30.0,11.0,0.0
14892,63.0,0.0,15.0,10.0,0.0
14893,75.0,30.0,15.0,8.0,0.0
14894,54.0,0.0,60.0,11.0,0.0
14895,72.0,0.0,60.0,7.0,0.0
14896,68.0,0.0,15.0,8.0,0.0
14897,77.0,0.0,30.0,2.0,0.0
14898,97.0,0.0,30.0,0.0,0.0
14899,56.0,30.0,15.0,10.0,0.0
14900,61.0,0.0,30.0,5.0,0.0
14901,68.0,0.0,30.0,4.0,0.0
14902,56.0,0.0,30.0,4.0,0.0
14903,73.0,0.0,30.0,2.0,0.0
14904,77.0,0.0,15.0,1.0,0.0
14905,68.0,0.0,15.0,8.0,0.0
14906,49.0,0.0,15.0,6.0,0.0
14907,53.0,0.0,60.0,11.0,0.0
14908,85.0,0.0,15.0,1.0,0.0
14909,61.0,0.0,120.0,5.0,0.0
14910,49.0,0.0,15.0,5.0,0.0
14911,56.0,0.0,15.0,10.0,0.0
14912,68.0,0.0,120.0,4.0,0.0
14913,56.0,0.0,120.0,4.0,0.0
14914,65.0,0.0,15.0,3.0,0.0
14915,92.0,30.0,15.0,0.0,0.0
14916,97.0,0.0,120.0,0.0,0.0
14917,61.0,0.0,15.0,3.0,0.0
14918,73.0,0.0,120.0,2.0,0.0
14919,77.0,30.0,120.0,2.0,0.0
14920,68.0,0.0,15.0,8.0,0.0
14921,56.0,30.0,30.0,10.0,0.0
14922,66.0,30.0,30.0,8.0,0.0
14923,54.0,0.0,15.0,10.0,0.0
14924,51.0,0.0,30.0,11.0,0.0
14925,66.0,0.0,30.0,8.0,0.0
14926,73.0,0.0,15.0,7.0,0.0
14927,65.0,30.0,30.0,8.0,0.0
14928,49.0,0.0,60.0,11.0,0.0
14929,77.0,0.0,30.0,2.0,0.0
14930,53.0,0.0,15.0,10.0,0.0
14931,97.0,0.0,30.0,0.0,0.0
14932,61.0,0.0,30.0,3.0,0.0
14933,56.0,0.0,30.0,4.0,0.0
14934,65.0,0.0,30.0,8.0,0.0
14935,49.0,0.0,30.0,6.0,0.0
14936,49.0,0.0,30.0,5.0,0.0
14937,61.0,0.0,30.0,5.0,0.0
14938,73.0,30.0,60.0,7.0,0.0
14939,56.0,0.0,60.0,11.0,0.0
14940,68.0,0.0,120.0,5.0,0.0
14941,92.0,0.0,15.0,0.0,0.0
14942,73.0,0.0,15.0,2.0,0.0
14943,53.0,30.0,30.0,10.0,0.0
14944,65.0,0.0,15.0,3.0,0.0
14945,61.0,0.0,120.0,3.0,0.0
14946,56.0,0.0,120.0,6.0,0.0
14947,77.0,0.0,120.0,2.0,0.0
14948,97.0,0.0,120.0,0.0,0.0
14949,68.0,0.0,15.0,4.0,0.0
14950,85.0,30.0,15.0,1.0,0.0
14951,77.0,0.0,15.0,1.0,0.0
14952,65.0,0.0,30.0,8.0,0.0
14953,56.0,0.0,120.0,4.0,0.0
14954,65.0,0.0,30.0,8.0,0.0
14955,53.0,0.0,30.0,10.0,0.0
14956,56.0,0.0,30.0,10.0,0.0
14957,68.0,30.0,30.0,8.0,0.0
14958,77.0,0.0,60.0,7.0,0.0
14959,68.0,0.0,30.0,8.0,0.0
14960,44.0,0.0,30.0,11.0,0.0
14961,56.0,0.0,30.0,10.0,0.0
14962,75.0,0.0,60.0,7.0,0.0
14963,44.0,0.0,60.0,11.0,0.0
14964,84.0,0.0,30.0,1.0,0.0
14965,68.0,0.0,30.0,5.0,0.0
14966,68.0,0.0,30.0,4.0,0.0
14967,56.0,0.0,30.0,4.0,0.0
14968,75.0,0.0,30.0,2.0,0.0
14969,56.0,0.0,30.0,6.0,0.0
14970,63.0,30.0,30.0,3.0,0.0
14971,75.0,0.0,30.0,1.0,0.0
14972,54.0,0.0,15.0,10.0,0.0
14973,72.0,0.0,30.0,2.0,0.0
14974,66.0,30.0,15.0,8.0,0.0
14975,92.0,0.0,30.0,0.0,0.0
14976,96.0,0.0,30.0,0.0,0.0
14977,60.0,0.0,30.0,3.0,0.0
14978,73.0,0.0,120.0,2.0,0.0
14979,61.0,0.0,120.0,5.0,0.0
14980,61.0,0.0,120.0,4.0,0.0
14981,49.0,0.0,120.0,6.0,0.0
14982,73.0,30.0,120.0,7.0,0.0
14983,77.0,0.0,120.0,2.0,0.0
14984,65.0,0.0,120.0,3.0,0.0
14985,61.0,0.0,120.0,3.0,0.0
14986,97.0,0.0,120.0,0.0,0.0
14987,49.0,30.0,60.0,11.0,0.0
14988,92.0,0.0,120.0,0.0,0.0
14989,85.0,0.0,120.0,1.0,0.0
14990,77.0,0.0,120.0,1.0,0.0
14991,68.0,0.0,120.0,4.0,0.0
14992,53.0,30.0,15.0,10.0,0.0
14993,65.0,0.0,15.0,8.0,0.0
14994,68.0,30.0,30.0,8.0,0.0
14995,56.0,0.0,30.0,10.0,0.0
14996,56.0,0.0,30.0,10.0,0.0
14997,68.0,0.0,30.0,8.0,0.0
14998,53.0,0.0,30.0,11.0,0.0
14999,61.0,30.0,30.0,10.0,0.0
15000,56.0,30.0,60.0,11.0,0.0
15001,97.0,0.0,30.0,0.0,0.0
15002,82.0,0.0,30.0,1.0,0.0
15003,65.0,0.0,15.0,8.0,0.0
15004,94.0,0.0,30.0,0.0,0.0
15005,66.0,0.0,30.0,3.0,0.0
15006,61.0,0.0,30.0,4.0,0.0
15007,61.0,0.0,30.0,10.0,0.0
15008,66.0,0.0,15.0,5.0,0.0
15009,65.0,0.0,15.0,8.0,0.0
15010,54.0,0.0,15.0,5.0,0.0
15011,73.0,0.0,15.0,4.0,0.0
15012,97.0,0.0,120.0,0.0,0.0
15013,94.0,0.0,120.0,0.0,0.0
15014,61.0,0.0,120.0,4.0,0.0
15015,58.0,0.0,15.0,3.0,0.0
15016,82.0,0.0,15.0,2.0,0.0
15017,78.0,0.0,15.0,2.0,0.0
15018,49.0,0.0,15.0,6.0,0.0
15019,61.0,30.0,30.0,10.0,0.0
15020,90.0,0.0,15.0,1.0,0.0
15021,82.0,0.0,120.0,1.0,0.0
15022,66.0,0.0,120.0,3.0,0.0
15023,61.0,30.0,60.0,11.0,0.0
15024,61.0,0.0,30.0,10.0,0.0
15025,65.0,0.0,30.0,8.0,0.0
15026,65.0,0.0,30.0,10.0,0.0
15027,65.0,0.0,30.0,11.0,0.0
15028,65.0,0.0,30.0,10.0,0.0
15029,68.0,30.0,15.0,8.0,0.0
15030,68.0,0.0,60.0,11.0,0.0
15031,65.0,0.0,30.0,8.0,0.0
15032,61.0,30.0,15.0,10.0,0.0
15033,94.0,0.0,30.0,0.0,0.0
15034,97.0,30.0,30.0,0.0,0.0
15035,73.0,0.0,30.0,4.0,0.0
15036,61.0,0.0,30.0,4.0,0.0
15037,78.0,0.0,30.0,2.0,0.0
15038,82.0,0.0,30.0,2.0,0.0
15039,82.0,0.0,30.0,1.0,0.0
15040,90.0,0.0,30.0,1.0,0.0
15041,65.0,0.0,30.0,8.0,0.0
15042,73.0,0.0,15.0,7.0,0.0
15043,49.0,0.0,15.0,6.0,0.0
15044,61.0,0.0,120.0,4.0,0.0
15045,70.0,0.0,60.0,11.0,0.0
15046,66.0,0.0,30.0,8.0,0.0
15047,73.0,0.0,120.0,4.0,0.0
15048,66.0,0.0,15.0,5.0,0.0
15049,54.0,0.0,15.0,5.0,0.0
15050,58.0,0.0,15.0,3.0,0.0
15051,82.0,0.0,120.0,1.0,0.0
15052,90.0,0.0,120.0,1.0,0.0
15053,66.0,0.0,15.0,3.0,0.0
15054,82.0,0.0,120.0,2.0,0.0
15055,61.0,30.0,30.0,10.0,0.0
15056,97.0,0.0,120.0,0.0,0.0
15057,94.0,0.0,120.0,0.0,0.0
15058,78.0,0.0,120.0,2.0,0.0
15059,66.0,30.0,30.0,10.0,0.0
15060,70.0,0.0,15.0,8.0,0.0
15061,66.0,0.0,30.0,10.0,0.0
15062,66.0,0.0,30.0,11.0,0.0
15063,66.0,0.0,30.0,10.0,0.0
15064,70.0,0.0,30.0,8.0,0.0
15065,61.0,30.0,60.0,11.0,0.0
15066,73.0,0.0,60.0,7.0,0.0
15067,66.0,0.0,15.0,10.0,0.0
15068,70.0,30.0,15.0,8.0,0.0
15069,61.0,30.0,30.0,10.0,0.0
15070,66.0,0.0,30.0,8.0,0.0
15071,58.0,0.0,60.0,11.0,0.0
15072,73.0,0.0,90.0,7.0,0.0
15073,66.0,0.0,30.0,10.0,0.0
15074,70.0,30.0,15.0,8.0,0.0
15075,70.0,30.0,30.0,8.0,0.0
15076,78.0,0.0,30.0,7.0,0.0
15077,66.0,30.0,15.0,10.0,0.0
15078,54.0,0.0,30.0,11.0,0.0
15079,49.0,0.0,60.0,11.0,0.0
15080,70.0,30.0,30.0,8.0,0.0
15081,66.0,0.0,30.0,10.0,0.0
15082,66.0,0.0,30.0,10.0,0.0
15083,70.0,0.0,30.0,8.0,0.0
15084,61.0,0.0,30.0,10.0,0.0
15085,65.0,30.0,30.0,8.0,0.0
15086,49.0,0.0,60.0,11.0,0.0
15087,82.0,30.0,15.0,7.0,0.0
15088,68.0,0.0,30.0,8.0,0.0
15089,80.0,0.0,60.0,7.0,0.0
15090,65.0,30.0,15.0,10.0,0.0
15091,65.0,0.0,15.0,10.0,0.0
15092,68.0,30.0,15.0,8.0,0.0
15093,53.0,0.0,30.0,11.0,0.0
15094,68.0,30.0,15.0,8.0,0.0
15095,56.0,0.0,60.0,11.0,0.0
15096,65.0,0.0,15.0,10.0,0.0
15097,77.0,0.0,60.0,7.0,0.0
15098,68.0,0.0,15.0,8.0,0.0
15099,65.0,30.0,15.0,10.0,0.0
15100,61.0,30.0,30.0,10.0,0.0
15101,61.0,30.0,60.0,11.0,0.0
15102,73.0,0.0,120.0,7.0,0.0
15103,65.0,0.0,30.0,8.0,0.0
15104,68.0,0.0,15.0,8.0,0.0
15105,65.0,0.0,15.0,10.0,0.0
15106,68.0,30.0,15.0,8.0,0.0
15107,65.0,0.0,15.0,10.0,0.0
15108,65.0,30.0,30.0,11.0,0.0
15109,65.0,0.0,15.0,10.0,0.0
15110,80.0,0.0,60.0,0.0,0.0
15111,92.0,0.0,60.0,0.0,0.0
15112,56.0,0.0,60.0,3.0,0.0
15113,80.0,0.0,60.0,2.0,0.0
15114,68.0,0.0,60.0,3.0,0.0
15115,68.0,0.0,60.0,11.0,0.0
15116,80.0,0.0,60.0,1.0,0.0
15117,68.0,30.0,60.0,2.0,0.0
15118,65.0,30.0,15.0,10.0,0.0
15119,68.0,0.0,15.0,8.0,0.0
15120,58.0,0.0,60.0,3.0,0.0
15121,70.0,0.0,60.0,3.0,0.0
15122,82.0,0.0,60.0,2.0,0.0
15123,70.0,0.0,60.0,2.0,0.0
15124,94.0,30.0,60.0,0.0,0.0
15125,82.0,0.0,60.0,1.0,0.0
15126,61.0,30.0,30.0,10.0,0.0
15127,49.0,0.0,60.0,11.0,0.0
15128,65.0,0.0,30.0,8.0,0.0
15129,82.0,0.0,60.0,0.0,0.0
15130,68.0,0.0,30.0,8.0,0.0
15131,68.0,0.0,60.0,3.0,0.0
15132,68.0,0.0,60.0,2.0,0.0
15133,80.0,0.0,60.0,2.0,0.0
15134,56.0,0.0,60.0,3.0,0.0
15135,68.0,0.0,30.0,8.0,0.0
15136,65.0,0.0,15.0,10.0,0.0
15137,80.0,0.0,60.0,1.0,0.0
15138,80.0,0.0,60.0,0.0,0.0
15139,92.0,30.0,60.0,0.0,0.0
15140,56.0,0.0,30.0,11.0,0.0
15141,68.0,0.0,30.0,8.0,0.0
15142,65.0,0.0,30.0,10.0,0.0
15143,65.0,0.0,60.0,2.0,0.0
15144,77.0,0.0,60.0,1.0,0.0
15145,65.0,0.0,60.0,3.0,0.0
15146,77.0,0.0,60.0,2.0,0.0
15147,53.0,0.0,60.0,3.0,0.0
15148,59.0,0.0,60.0,11.0,0.0
15149,77.0,0.0,60.0,0.0,0.0
15150,89.0,0.0,60.0,0.0,0.0
15151,68.0,30.0,15.0,8.0,0.0
15152,65.0,0.0,15.0,10.0,0.0
15153,73.0,0.0,120.0,2.0,0.0
15154,61.0,0.0,120.0,2.0,0.0
15155,49.0,0.0,120.0,3.0,0.0
15156,65.0,0.0,30.0,8.0,0.0
15157,73.0,0.0,120.0,1.0,0.0
15158,85.0,0.0,120.0,0.0,0.0
15159,73.0,0.0,120.0,0.0,0.0
15160,65.0,30.0,60.0,11.0,0.0
15161,61.0,0.0,120.0,3.0,0.0
15162,61.0,30.0,30.0,10.0,0.0
15163,65.0,0.0,30.0,10.0,0.0
15164,68.0,0.0,30.0,8.0,0.0
15165,68.0,0.0,30.0,8.0,0.0
15166,65.0,30.0,15.0,10.0,0.0
15167,68.0,30.0,30.0,11.0,0.0
15168,68.0,0.0,30.0,8.0,0.0
15169,65.0,0.0,15.0,10.0,0.0
15170,73.0,0.0,60.0,7.0,0.0
15171,71.0,0.0,60.0,11.0,0.0
15172,73.0,0.0,30.0,4.0,0.0
15173,65.0,0.0,30.0,3.0,0.0
15174,56.0,30.0,30.0,3.0,0.0
15175,80.0,0.0,30.0,1.0,0.0
15176,89.0,0.0,30.0,1.0,0.0
15177,97.0,0.0,30.0,0.0,0.0
15178,68.0,0.0,15.0,8.0,0.0
15179,92.0,0.0,30.0,0.0,0.0
15180,65.0,30.0,15.0,10.0,0.0
15181,77.0,0.0,30.0,2.0,0.0
15182,80.0,0.0,30.0,2.0,0.0
15183,61.0,0.0,30.0,5.0,0.0
15184,61.0,0.0,30.0,10.0,0.0
15185,58.0,0.0,120.0,5.0,0.0
15186,66.0,30.0,30.0,8.0,0.0
15187,82.0,0.0,120.0,1.0,0.0
15188,90.0,0.0,120.0,1.0,0.0
15189,66.0,0.0,120.0,5.0,0.0
15190,73.0,0.0,90.0,7.0,0.0
15191,61.0,0.0,15.0,4.0,0.0
15192,49.0,0.0,15.0,6.0,0.0
15193,70.0,0.0,60.0,11.0,0.0
15194,78.0,0.0,120.0,2.0,0.0
15195,82.0,0.0,120.0,2.0,0.0
15196,73.0,0.0,120.0,4.0,0.0
15197,97.0,0.0,120.0,0.0,0.0
15198,58.0,0.0,120.0,3.0,0.0
15199,94.0,0.0,120.0,0.0,0.0
15200,66.0,0.0,120.0,3.0,0.0
15201,70.0,0.0,30.0,8.0,0.0
15202,66.0,30.0,15.0,10.0,0.0
15203,70.0,0.0,30.0,8.0,0.0
15204,66.0,0.0,30.0,11.0,0.0
15205,78.0,0.0,30.0,7.0,0.0
15206,66.0,30.0,15.0,10.0,0.0
15207,61.0,0.0,60.0,11.0,0.0
15208,70.0,0.0,15.0,8.0,0.0
15209,73.0,0.0,60.0,7.0,0.0
15210,66.0,30.0,15.0,10.0,0.0
15211,70.0,0.0,15.0,8.0,0.0
15212,66.0,30.0,30.0,10.0,0.0
15213,66.0,0.0,30.0,8.0,0.0
15214,58.0,30.0,60.0,11.0,0.0
15215,73.0,0.0,90.0,7.0,0.0
15216,61.0,30.0,30.0,10.0,0.0
15217,66.0,0.0,30.0,10.0,0.0
15218,70.0,0.0,15.0,8.0,0.0
15219,54.0,0.0,30.0,11.0,0.0
15220,66.0,30.0,15.0,10.0,0.0
15221,70.0,0.0,15.0,8.0,0.0
15222,78.0,0.0,30.0,7.0,0.0
15223,70.0,0.0,15.0,8.0,0.0
15224,82.0,0.0,60.0,7.0,0.0
15225,66.0,30.0,15.0,10.0,0.0
15226,70.0,0.0,15.0,8.0,0.0
15227,66.0,30.0,15.0,10.0,0.0
15228,49.0,0.0,15.0,11.0,0.0
15229,82.0,0.0,60.0,7.0,0.0
15230,65.0,30.0,30.0,8.0,0.0
15231,61.0,0.0,30.0,10.0,0.0
15232,68.0,0.0,30.0,8.0,0.0
15233,65.0,30.0,15.0,10.0,0.0
15234,80.0,0.0,60.0,7.0,0.0
15235,68.0,0.0,30.0,8.0,0.0
15236,53.0,30.0,30.0,11.0,0.0
15237,65.0,30.0,15.0,10.0,0.0
15238,68.0,0.0,30.0,8.0,0.0
15239,65.0,0.0,15.0,10.0,0.0
15240,56.0,0.0,60.0,11.0,0.0
15241,77.0,0.0,60.0,7.0,0.0
15242,68.0,30.0,30.0,8.0,0.0
15243,65.0,0.0,15.0,10.0,0.0
15244,68.0,0.0,30.0,8.0,0.0
15245,61.0,0.0,60.0,11.0,0.0
15246,73.0,30.0,120.0,7.0,0.0
15247,65.0,0.0,30.0,8.0,0.0
15248,61.0,30.0,30.0,10.0,0.0
15249,68.0,30.0,30.0,8.0,0.0
15250,65.0,0.0,30.0,10.0,0.0
15251,65.0,0.0,30.0,10.0,0.0
15252,65.0,0.0,30.0,11.0,0.0
15253,68.0,30.0,15.0,8.0,0.0
15254,68.0,0.0,15.0,8.0,0.0
15255,80.0,0.0,60.0,1.0,0.0
15256,56.0,0.0,60.0,3.0,0.0
15257,68.0,0.0,60.0,3.0,0.0
15258,65.0,0.0,15.0,10.0,0.0
15259,92.0,30.0,60.0,0.0,0.0
15260,68.0,0.0,60.0,2.0,0.0
15261,80.0,0.0,60.0,2.0,0.0
15262,68.0,0.0,60.0,11.0,0.0
15263,65.0,0.0,15.0,10.0,0.0
15264,68.0,30.0,15.0,8.0,0.0
15265,49.0,0.0,60.0,11.0,0.0
15266,70.0,0.0,60.0,2.0,0.0
15267,70.0,0.0,60.0,3.0,0.0
15268,94.0,0.0,60.0,0.0,0.0
15269,61.0,0.0,30.0,10.0,0.0
15270,65.0,30.0,30.0,8.0,0.0
15271,82.0,0.0,60.0,2.0,0.0
15272,82.0,0.0,60.0,1.0,0.0
15273,58.0,30.0,60.0,3.0,0.0
15274,68.0,0.0,30.0,8.0,0.0
15275,65.0,0.0,30.0,10.0,0.0
15276,80.0,0.0,60.0,1.0,0.0
15277,68.0,30.0,30.0,8.0,0.0
15278,80.0,0.0,60.0,2.0,0.0
15279,92.0,0.0,60.0,0.0,0.0
15280,56.0,0.0,60.0,3.0,0.0
15281,68.0,0.0,60.0,3.0,0.0
15282,68.0,0.0,60.0,2.0,0.0
15283,65.0,0.0,15.0,10.0,0.0
15284,53.0,0.0,30.0,11.0,0.0
15285,77.0,0.0,60.0,1.0,0.0
15286,77.0,0.0,60.0,2.0,0.0
15287,53.0,30.0,60.0,3.0,0.0
15288,65.0,0.0,60.0,3.0,0.0
15289,65.0,0.0,60.0,2.0,0.0
15290,89.0,0.0,60.0,0.0,0.0
15291,56.0,0.0,60.0,11.0,0.0
15292,65.0,0.0,15.0,10.0,0.0
15293,68.0,30.0,15.0,8.0,0.0
15294,68.0,30.0,15.0,8.0,0.0
15295,65.0,0.0,30.0,10.0,0.0
15296,61.0,0.0,120.0,2.0,0.0
15297,73.0,0.0,120.0,2.0,0.0
15298,73.0,0.0,120.0,1.0,0.0
15299,65.0,30.0,30.0,8.0,0.0
15300,61.0,30.0,60.0,11.0,0.0
15301,61.0,0.0,30.0,10.0,0.0
15302,85.0,30.0,120.0,0.0,0.0
15303,61.0,0.0,120.0,3.0,0.0
15304,49.0,0.0,120.0,3.0,0.0
15305,65.0,0.0,30.0,10.0,0.0
15306,68.0,0.0,30.0,8.0,0.0
15307,65.0,0.0,30.0,10.0,0.0
15308,65.0,0.0,30.0,10.0,0.0
15309,63.0,0.0,30.0,11.0,0.0
15310,68.0,30.0,15.0,8.0,0.0
15311,65.0,30.0,30.0,10.0,0.0
15312,68.0,0.0,30.0,8.0,0.0
15313,77.0,0.0,60.0,7.0,0.0
15314,65.0,0.0,60.0,11.0,0.0
15315,73.0,0.0,30.0,2.0,0.0
15316,56.0,0.0,30.0,6.0,0.0
15317,65.0,0.0,30.0,3.0,0.0
15318,56.0,0.0,30.0,4.0,0.0
15319,68.0,0.0,30.0,8.0,0.0
15320,61.0,30.0,30.0,3.0,0.0
15321,77.0,0.0,30.0,2.0,0.0
15322,89.0,0.0,30.0,0.0,0.0
15323,92.0,0.0,30.0,0.0,0.0
15324,65.0,0.0,30.0,10.0,0.0
15325,85.0,0.0,30.0,1.0,0.0
15326,87.0,0.0,120.0,0.0,0.0
15327,96.0,30.0,120.0,0.0,0.0
15328,68.0,0.0,15.0,4.0,0.0
15329,80.0,0.0,15.0,1.0,0.0
15330,75.0,0.0,120.0,7.0,0.0
15331,63.0,0.0,30.0,8.0,0.0
15332,63.0,0.0,120.0,3.0,0.0
15333,60.0,0.0,120.0,3.0,0.0
15334,68.0,0.0,15.0,5.0,0.0
15335,60.0,30.0,30.0,10.0,0.0
15336,72.0,0.0,120.0,2.0,0.0
15337,56.0,0.0,120.0,6.0,0.0
15338,75.0,0.0,120.0,2.0,0.0
15339,84.0,0.0,120.0,1.0,0.0
15340,66.0,0.0,60.0,11.0,0.0
15341,56.0,0.0,120.0,4.0,0.0
15342,68.0,30.0,30.0,8.0,0.0
15343,63.0,0.0,15.0,10.0,0.0
15344,68.0,0.0,30.0,8.0,0.0
15345,68.0,0.0,30.0,8.0,0.0
15346,63.0,0.0,30.0,10.0,0.0
15347,63.0,0.0,30.0,11.0,0.0
15348,63.0,0.0,30.0,10.0,0.0
15349,68.0,30.0,30.0,8.0,0.0
15350,60.0,30.0,60.0,11.0,0.0
15351,68.0,0.0,30.0,8.0,0.0
15352,63.0,0.0,30.0,10.0,0.0
15353,61.0,30.0,30.0,10.0,0.0
15354,68.0,0.0,15.0,7.0,0.0
15355,65.0,0.0,60.0,11.0,0.0
15356,65.0,0.0,30.0,8.0,0.0
15357,65.0,30.0,30.0,10.0,0.0
15358,68.0,0.0,15.0,8.0,0.0
15359,65.0,0.0,30.0,10.0,0.0
15360,77.0,0.0,30.0,7.0,0.0
15361,61.0,30.0,30.0,11.0,0.0
15362,68.0,0.0,30.0,8.0,0.0
15363,73.0,30.0,60.0,7.0,0.0
15364,65.0,0.0,15.0,10.0,0.0
15365,56.0,0.0,60.0,11.0,0.0
15366,65.0,30.0,15.0,10.0,0.0
15367,68.0,0.0,15.0,8.0,0.0
15368,65.0,0.0,30.0,3.0,0.0
15369,73.0,0.0,30.0,2.0,0.0
15370,77.0,0.0,30.0,2.0,0.0
15371,68.0,0.0,30.0,5.0,0.0
15372,89.0,0.0,30.0,0.0,0.0
15373,92.0,0.0,30.0,0.0,0.0
15374,80.0,0.0,30.0,1.0,0.0
15375,85.0,0.0,30.0,1.0,0.0
15376,61.0,0.0,30.0,3.0,0.0
15377,56.0,30.0,60.0,11.0,0.0
15378,68.0,30.0,30.0,8.0,0.0
15379,56.0,0.0,15.0,4.0,0.0
15380,72.0,0.0,120.0,2.0,0.0
15381,75.0,0.0,120.0,2.0,0.0
15382,80.0,0.0,120.0,1.0,0.0
15383,84.0,0.0,120.0,1.0,0.0
15384,56.0,0.0,30.0,10.0,0.0
15385,68.0,0.0,15.0,4.0,0.0
15386,60.0,0.0,120.0,3.0,0.0
15387,63.0,0.0,120.0,3.0,0.0
15388,56.0,0.0,15.0,6.0,0.0
15389,80.0,30.0,300.0,7.0,0.0
15390,87.0,0.0,120.0,0.0,0.0
15391,92.0,0.0,120.0,0.0,0.0
15392,68.0,0.0,120.0,5.0,0.0
15393,80.0,0.0,30.0,8.0,0.0
15394,68.0,0.0,15.0,10.0,0.0
15395,80.0,30.0,30.0,8.0,0.0
15396,60.0,0.0,30.0,11.0,0.0
15397,68.0,0.0,30.0,10.0,0.0
15398,63.0,0.0,60.0,11.0,0.0
15399,80.0,30.0,15.0,8.0,0.0
15400,68.0,30.0,15.0,10.0,0.0
15401,80.0,30.0,30.0,8.0,0.0
15402,68.0,0.0,30.0,10.0,0.0
15403,80.0,30.0,30.0,8.0,0.0
15404,56.0,0.0,60.0,11.0,0.0
15405,80.0,0.0,30.0,8.0,0.0
15406,68.0,30.0,15.0,10.0,0.0
15407,61.0,0.0,30.0,11.0,0.0
15408,80.0,30.0,15.0,8.0,0.0
15409,68.0,0.0,15.0,10.0,0.0
15410,77.0,0.0,60.0,7.0,0.0
15411,65.0,0.0,60.0,11.0,0.0
15412,68.0,0.0,30.0,10.0,0.0
15413,80.0,30.0,15.0,8.0,0.0
15414,77.0,0.0,30.0,2.0,0.0
15415,85.0,0.0,30.0,1.0,0.0
15416,65.0,0.0,30.0,3.0,0.0
15417,61.0,30.0,30.0,3.0,0.0
15418,92.0,0.0,30.0,0.0,0.0
15419,89.0,0.0,30.0,0.0,0.0
15420,56.0,0.0,30.0,6.0,0.0
15421,56.0,0.0,30.0,4.0,0.0
15422,73.0,0.0,30.0,2.0,0.0
15423,75.0,30.0,120.0,7.0,0.0
15424,60.0,30.0,30.0,10.0,0.0
15425,80.0,0.0,15.0,1.0,0.0
15426,72.0,0.0,120.0,2.0,0.0
15427,75.0,0.0,120.0,2.0,0.0
15428,66.0,0.0,60.0,11.0,0.0
15429,68.0,0.0,15.0,5.0,0.0
15430,84.0,0.0,120.0,1.0,0.0
15431,56.0,0.0,120.0,4.0,0.0
15432,68.0,0.0,15.0,4.0,0.0
15433,92.0,0.0,120.0,0.0,0.0
15434,87.0,0.0,120.0,0.0,0.0
15435,56.0,0.0,120.0,6.0,0.0
15436,63.0,0.0,120.0,3.0,0.0
15437,60.0,0.0,120.0,3.0,0.0
15438,63.0,0.0,30.0,8.0,0.0
15439,63.0,0.0,30.0,10.0,0.0
15440,63.0,30.0,30.0,10.0,0.0
15441,68.0,30.0,15.0,8.0,0.0
15442,68.0,0.0,15.0,8.0,0.0
15443,63.0,0.0,30.0,11.0,0.0
15444,63.0,0.0,30.0,10.0,0.0
15445,60.0,0.0,60.0,11.0,0.0
15446,68.0,0.0,15.0,8.0,0.0
15447,63.0,0.0,30.0,10.0,0.0
15448,68.0,30.0,15.0,8.0,0.0
15449,63.0,0.0,30.0,10.0,0.0
15450,61.0,30.0,30.0,10.0,0.0
15451,65.0,0.0,60.0,11.0,0.0
15452,68.0,30.0,15.0,7.0,0.0
15453,65.0,0.0,30.0,8.0,0.0
15454,68.0,0.0,30.0,8.0,0.0
15455,65.0,30.0,30.0,10.0,0.0
15456,65.0,0.0,30.0,10.0,0.0
15457,77.0,30.0,30.0,7.0,0.0
15458,61.0,0.0,30.0,11.0,0.0
15459,68.0,30.0,15.0,8.0,0.0
15460,65.0,0.0,15.0,10.0,0.0
15461,56.0,0.0,60.0,11.0,0.0
15462,68.0,0.0,15.0,8.0,0.0
15463,73.0,0.0,60.0,7.0,0.0
15464,68.0,0.0,15.0,8.0,0.0
15465,80.0,0.0,30.0,1.0,0.0
15466,85.0,0.0,30.0,1.0,0.0
15467,73.0,0.0,30.0,2.0,0.0
15468,77.0,0.0,30.0,2.0,0.0
15469,89.0,0.0,30.0,0.0,0.0
15470,65.0,30.0,15.0,10.0,0.0
15471,65.0,0.0,30.0,3.0,0.0
15472,61.0,0.0,30.0,3.0,0.0
15473,68.0,0.0,30.0,4.0,0.0
15474,56.0,0.0,15.0,4.0,0.0
15475,68.0,0.0,15.0,5.0,0.0
15476,60.0,0.0,120.0,3.0,0.0
15477,63.0,0.0,120.0,3.0,0.0
15478,87.0,0.0,120.0,0.0,0.0
15479,92.0,0.0,15.0,0.0,0.0
15480,72.0,0.0,120.0,2.0,0.0
15481,75.0,0.0,120.0,2.0,0.0
15482,80.0,0.0,120.0,1.0,0.0
15483,56.0,0.0,30.0,10.0,0.0
15484,56.0,30.0,60.0,11.0,0.0
15485,68.0,0.0,120.0,4.0,0.0
15486,84.0,0.0,120.0,1.0,0.0
15487,56.0,0.0,15.0,6.0,0.0
15488,80.0,0.0,270.0,7.0,0.0
15489,68.0,30.0,30.0,8.0,0.0
15490,68.0,0.0,30.0,10.0,0.0
15491,80.0,0.0,30.0,8.0,0.0
15492,68.0,30.0,30.0,10.0,0.0
15493,80.0,0.0,30.0,8.0,0.0
15494,60.0,0.0,30.0,11.0,0.0
15495,80.0,0.0,15.0,8.0,0.0
15496,63.0,0.0,60.0,11.0,0.0
15497,68.0,0.0,15.0,10.0,0.0
15498,68.0,30.0,15.0,10.0,0.0
15499,56.0,30.0,60.0,11.0,0.0
15500,80.0,0.0,15.0,8.0,0.0
15501,68.0,30.0,15.0,10.0,0.0
15502,68.0,0.0,15.0,10.0,0.0
15503,80.0,0.0,30.0,8.0,0.0
15504,68.0,0.0,15.0,10.0,0.0
15505,80.0,30.0,30.0,8.0,0.0
15506,77.0,0.0,30.0,7.0,0.0
15507,61.0,0.0,30.0,11.0,0.0
15508,68.0,0.0,30.0,10.0,0.0
15509,73.0,0.0,60.0,7.0,0.0
15510,65.0,0.0,60.0,11.0,0.0
15511,68.0,30.0,30.0,10.0,0.0
15512,80.0,30.0,15.0,8.0,0.0
15513,80.0,0.0,15.0,8.0,0.0
15514,65.0,0.0,30.0,3.0,0.0
15515,61.0,0.0,30.0,3.0,0.0
15516,77.0,0.0,30.0,2.0,0.0
15517,68.0,30.0,30.0,5.0,0.0
15518,85.0,0.0,30.0,1.0,0.0
15519,56.0,0.0,30.0,4.0,0.0
15520,68.0,0.0,30.0,10.0,0.0
15521,89.0,0.0,30.0,0.0,0.0
15522,61.0,0.0,120.0,3.0,0.0
15523,65.0,0.0,120.0,3.0,0.0
15524,56.0,0.0,60.0,11.0,0.0
15525,80.0,0.0,15.0,1.0,0.0
15526,68.0,30.0,30.0,8.0,0.0
15527,56.0,0.0,15.0,6.0,0.0
15528,73.0,0.0,15.0,2.0,0.0
15529,56.0,0.0,30.0,10.0,0.0
15530,92.0,0.0,15.0,0.0,0.0
15531,89.0,0.0,120.0,0.0,0.0
15532,85.0,0.0,120.0,1.0,0.0
15533,80.0,0.0,270.0,7.0,0.0
15534,56.0,0.0,120.0,4.0,0.0
15535,68.0,0.0,15.0,4.0,0.0
15536,77.0,0.0,120.0,2.0,0.0
15537,68.0,0.0,120.0,5.0,0.0
15538,80.0,30.0,30.0,8.0,0.0
15539,68.0,0.0,30.0,10.0,0.0
15540,68.0,0.0,30.0,10.0,0.0
15541,80.0,30.0,30.0,8.0,0.0
15542,80.0,0.0,30.0,8.0,0.0
15543,61.0,0.0,30.0,11.0,0.0
15544,68.0,0.0,15.0,10.0,0.0
15545,65.0,0.0,60.0,11.0,0.0
15546,80.0,0.0,30.0,8.0,0.0
15547,80.0,30.0,30.0,8.0,0.0
15548,68.0,0.0,15.0,10.0,0.0
15549,56.0,0.0,60.0,11.0,0.0
15550,80.0,0.0,30.0,8.0,0.0
15551,68.0,30.0,30.0,10.0,0.0
15552,80.0,0.0,15.0,8.0,0.0
15553,68.0,30.0,30.0,10.0,0.0
15554,80.0,0.0,15.0,8.0,0.0
15555,77.0,30.0,30.0,7.0,0.0
15556,62.0,0.0,30.0,11.0,0.0
15557,68.0,0.0,30.0,10.0,0.0
15558,80.0,0.0,15.0,8.0,0.0
15559,65.0,0.0,60.0,11.0,0.0
15560,74.0,0.0,60.0,7.0,0.0
15561,89.0,0.0,30.0,0.0,0.0
15562,74.0,0.0,30.0,2.0,0.0
15563,77.0,30.0,30.0,2.0,0.0
15564,68.0,30.0,15.0,10.0,0.0
15565,80.0,0.0,30.0,8.0,0.0
15566,68.0,0.0,30.0,5.0,0.0
15567,80.0,0.0,30.0,1.0,0.0
15568,86.0,0.0,30.0,1.0,0.0
15569,56.0,0.0,30.0,4.0,0.0
15570,62.0,0.0,30.0,3.0,0.0
15571,65.0,0.0,30.0,3.0,0.0
15572,66.0,0.0,120.0,3.0,0.0
15573,63.0,0.0,120.0,3.0,0.0
15574,68.0,0.0,120.0,5.0,0.0
15575,56.0,0.0,60.0,11.0,0.0
15576,92.0,0.0,15.0,0.0,0.0
15577,80.0,0.0,120.0,0.0,0.0
15578,68.0,30.0,30.0,8.0,0.0
15579,87.0,0.0,120.0,1.0,0.0
15580,56.0,0.0,15.0,6.0,0.0
15581,68.0,0.0,15.0,4.0,0.0
15582,56.0,0.0,120.0,4.0,0.0
15583,78.0,0.0,120.0,2.0,0.0
15584,75.0,0.0,120.0,2.0,0.0
15585,56.0,0.0,30.0,10.0,0.0
15586,80.0,0.0,60.0,7.0,0.0
15587,80.0,0.0,120.0,1.0,0.0
15588,72.0,0.0,15.0,8.0,0.0
15589,60.0,30.0,15.0,10.0,0.0
15590,63.0,30.0,30.0,11.0,0.0
15591,72.0,30.0,15.0,8.0,0.0
15592,78.0,0.0,30.0,7.0,0.0
15593,60.0,0.0,30.0,10.0,0.0
15594,75.0,0.0,60.0,7.0,0.0
15595,66.0,0.0,60.0,11.0,0.0
15596,60.0,0.0,30.0,10.0,0.0
15597,63.0,0.0,30.0,3.0,0.0
15598,72.0,30.0,15.0,8.0,0.0
15599,68.0,0.0,30.0,4.0,0.0
15600,75.0,0.0,30.0,2.0,0.0
15601,92.0,0.0,30.0,0.0,0.0
15602,87.0,0.0,30.0,1.0,0.0
15603,78.0,0.0,30.0,2.0,0.0
15604,80.0,0.0,30.0,1.0,0.0
15605,56.0,0.0,30.0,6.0,0.0
15606,90.0,0.0,30.0,0.0,0.0
15607,78.0,0.0,120.0,2.0,0.0
15608,75.0,0.0,120.0,2.0,0.0
15609,87.0,0.0,120.0,1.0,0.0
15610,80.0,0.0,120.0,1.0,0.0
15611,68.0,0.0,15.0,5.0,0.0
15612,56.0,0.0,15.0,4.0,0.0
15613,60.0,0.0,15.0,10.0,0.0
15614,84.0,30.0,60.0,7.0,0.0
15615,68.0,0.0,120.0,4.0,0.0
15616,63.0,0.0,120.0,3.0,0.0
15617,72.0,30.0,15.0,8.0,0.0
15618,66.0,0.0,15.0,3.0,0.0
15619,56.0,0.0,60.0,11.0,0.0
15620,90.0,0.0,120.0,0.0,0.0
15621,92.0,0.0,120.0,0.0,0.0
15622,56.0,0.0,120.0,6.0,0.0
15623,75.0,0.0,30.0,8.0,0.0
15624,63.0,0.0,30.0,10.0,0.0
15625,63.0,30.0,15.0,10.0,0.0
15626,75.0,0.0,15.0,8.0,0.0
15627,80.0,0.0,30.0,7.0,0.0
15628,60.0,0.0,30.0,11.0,0.0
15629,61.0,0.0,60.0,11.0,0.0
15630,75.0,0.0,15.0,8.0,0.0
15631,78.0,30.0,60.0,7.0,0.0
15632,63.0,30.0,15.0,10.0,0.0
15633,75.0,0.0,15.0,8.0,0.0
15634,92.0,0.0,30.0,0.0,0.0
15635,90.0,0.0,30.0,0.0,0.0
15636,87.0,0.0,15.0,1.0,0.0
15637,80.0,0.0,15.0,1.0,0.0
15638,75.0,0.0,15.0,8.0,0.0
15639,56.0,0.0,15.0,6.0,0.0
15640,92.0,0.0,120.0,0.0,0.0
15641,90.0,0.0,120.0,0.0,0.0
15642,51.0,30.0,60.0,11.0,0.0
15643,68.0,0.0,15.0,4.0,0.0
15644,56.0,0.0,15.0,4.0,0.0
15645,66.0,0.0,15.0,3.0,0.0
15646,63.0,0.0,15.0,3.0,0.0
15647,63.0,0.0,15.0,10.0,0.0
15648,68.0,0.0,15.0,5.0,0.0
15649,87.0,0.0,60.0,7.0,0.0
15650,78.0,0.0,15.0,2.0,0.0
15651,75.0,0.0,15.0,2.0,0.0
15652,78.0,0.0,30.0,8.0,0.0
15653,66.0,0.0,15.0,10.0,0.0
15654,56.0,0.0,30.0,11.0,0.0
15655,78.0,30.0,15.0,8.0,0.0
15656,84.0,0.0,30.0,7.0,0.0
15657,78.0,0.0,15.0,8.0,0.0
15658,80.0,0.0,60.0,7.0,0.0
15659,60.0,0.0,60.0,11.0,0.0
15660,75.0,0.0,15.0,10.0,0.0
15661,78.0,0.0,30.0,2.0,0.0
15662,66.0,0.0,30.0,3.0,0.0
15663,63.0,0.0,30.0,3.0,0.0
15664,56.0,0.0,30.0,6.0,0.0
15665,68.0,0.0,30.0,4.0,0.0
15666,92.0,0.0,30.0,0.0,0.0
15667,78.0,0.0,30.0,8.0,0.0
15668,80.0,0.0,30.0,1.0,0.0
15669,87.0,0.0,30.0,1.0,0.0
15670,75.0,0.0,30.0,10.0,0.0
15671,56.0,0.0,30.0,4.0,0.0
15672,90.0,0.0,30.0,0.0,0.0
15673,68.0,0.0,15.0,5.0,0.0
15674,68.0,0.0,120.0,4.0,0.0
15675,90.0,0.0,120.0,0.0,0.0
15676,92.0,0.0,120.0,0.0,0.0
15677,48.0,0.0,60.0,11.0,0.0
15678,56.0,0.0,120.0,6.0,0.0
15679,90.0,30.0,60.0,7.0,0.0
15680,80.0,0.0,120.0,1.0,0.0
15681,87.0,0.0,120.0,1.0,0.0
15682,75.0,0.0,30.0,10.0,0.0
15683,56.0,0.0,120.0,4.0,0.0
15684,75.0,30.0,15.0,2.0,0.0
15685,66.0,0.0,120.0,3.0,0.0
15686,78.0,0.0,120.0,2.0,0.0
15687,63.0,0.0,120.0,3.0,0.0
15688,75.0,0.0,30.0,10.0,0.0
15689,78.0,30.0,15.0,8.0,0.0
15690,78.0,0.0,15.0,8.0,0.0
15691,87.0,0.0,30.0,7.0,0.0
15692,75.0,0.0,15.0,10.0,0.0
15693,78.0,0.0,30.0,8.0,0.0
15694,51.0,0.0,30.0,11.0,0.0
15695,56.0,0.0,60.0,11.0,0.0
15696,84.0,0.0,60.0,7.0,0.0
15697,75.0,0.0,15.0,10.0,0.0
15698,78.0,0.0,15.0,8.0,0.0
15699,84.0,0.0,30.0,2.0,0.0
15700,90.0,0.0,30.0,1.0,0.0
15701,87.0,0.0,30.0,1.0,0.0
15702,87.0,0.0,30.0,0.0,0.0
15703,68.0,0.0,15.0,5.0,0.0
15704,75.0,0.0,15.0,2.0,0.0
15705,68.0,0.0,15.0,4.0,0.0
15706,87.0,0.0,180.0,0.0,0.0
15707,87.0,0.0,180.0,1.0,0.0
15708,66.0,0.0,15.0,3.0,0.0
15709,90.0,0.0,15.0,0.0,0.0
15710,56.0,0.0,15.0,6.0,0.0
15711,56.0,0.0,15.0,4.0,0.0
15712,63.0,0.0,15.0,3.0,0.0
15713,44.0,0.0,180.0,11.0,0.0
15714,84.0,0.0,180.0,2.0,0.0
15715,90.0,0.0,180.0,1.0,0.0
15716,90.0,0.0,180.0,7.0,0.0
15717,78.0,0.0,15.0,8.0,0.0
15718,75.0,180.0,15.0,10.0,0.0
15719,89.0,120.0,30.0,0.0,0.0
15720,68.0,0.0,30.0,3.0,0.0
15721,37.0,0.0,30.0,4.0,0.0
15722,71.0,0.0,15.0,2.0,0.0
15723,83.0,0.0,15.0,1.0,0.0
15724,80.0,0.0,15.0,1.0,0.0
15725,49.0,0.0,120.0,11.0,0.0
15726,68.0,0.0,180.0,3.0,0.0
15727,65.0,0.0,15.0,3.0,0.0
15728,77.0,0.0,15.0,2.0,0.0
15729,65.0,0.0,120.0,8.0,0.0
15730,49.0,0.0,15.0,4.0,0.0
15731,71.0,0.0,120.0,7.0,0.0
15732,89.0,0.0,180.0,0.0,0.0
15733,61.0,0.0,120.0,7.0,0.0
15734,68.0,0.0,120.0,8.0,0.0
15735,37.0,0.0,180.0,4.0,0.0
15736,61.0,60.0,120.0,10.0,0.0
15737,73.0,30.0,30.0,1.0,0.0
15738,75.0,30.0,30.0,1.0,0.0
15739,77.0,30.0,30.0,1.0,0.0
15740,78.0,20.0,30.0,1.0,0.0
15741,80.0,20.0,20.0,1.0,0.0
15742,82.0,20.0,20.0,1.0,0.0
15743,83.0,90.0,20.0,1.0,0.0
15744,85.0,0.0,270.0,1.0,0.0
15745,73.0,30.0,90.0,8.0,0.0
15746,58.0,0.0,360.0,10.0,0.0
15747,54.0,0.0,360.0,10.0,0.0
15748,61.0,0.0,2640.0,4.0,0.0
15749,73.0,0.0,2640.0,4.0,0.0
15750,49.0,0.0,2280.0,11.0,0.0
15751,42.0,0.0,2280.0,11.0,0.0
15752,85.0,0.0,15.0,7.0,0.0
15753,73.0,0.0,15.0,8.0,0.0
15754,85.0,60.0,15.0,7.0,0.0
15755,73.0,0.0,15.0,8.0,0.0
15756,85.0,90.0,15.0,7.0,0.0
15757,83.0,0.0,30.0,1.0,0.0
15758,85.0,0.0,15.0,7.0,0.0
15759,82.0,0.0,60.0,1.0,0.0
15760,73.0,60.0,15.0,8.0,0.0
15761,56.0,90.0,360.0,10.0,0.0
15762,59.0,0.0,360.0,10.0,0.0
15763,83.0,0.0,270.0,1.0,0.0
15764,85.0,0.0,90.0,7.0,0.0
15765,73.0,30.0,90.0,8.0,0.0
15766,85.0,0.0,30.0,7.0,0.0
15767,73.0,60.0,15.0,8.0,0.0
15768,85.0,0.0,60.0,7.0,0.0
15769,73.0,0.0,90.0,8.0,0.0
15770,85.0,30.0,15.0,7.0,0.0
15771,75.0,60.0,30.0,1.0,0.0
15772,73.0,0.0,15.0,8.0,0.0
15773,77.0,0.0,60.0,1.0,0.0
15774,85.0,0.0,15.0,7.0,0.0
15775,54.0,0.0,360.0,10.0,0.0
15776,58.0,0.0,360.0,10.0,0.0
15777,82.0,0.0,270.0,2.0,0.0
15778,73.0,0.0,90.0,8.0,0.0
15779,94.0,0.0,270.0,0.0,0.0
15780,70.0,30.0,270.0,3.0,0.0
15781,85.0,0.0,30.0,7.0,0.0
15782,73.0,60.0,15.0,8.0,0.0
15783,78.0,0.0,15.0,1.0,0.0
15784,85.0,0.0,60.0,7.0,0.0
15785,78.0,0.0,15.0,1.0,0.0
15786,73.0,90.0,15.0,8.0,0.0
15787,92.0,0.0,30.0,0.0,0.0
15788,85.0,0.0,15.0,7.0,0.0
15789,80.0,0.0,30.0,2.0,0.0
15790,68.0,0.0,30.0,3.0,0.0
15791,80.0,60.0,30.0,1.0,0.0
15792,73.0,0.0,15.0,8.0,0.0
15793,66.0,0.0,60.0,3.0,0.0
15794,82.0,60.0,60.0,1.0,0.0
15795,78.0,0.0,60.0,2.0,0.0
15796,85.0,0.0,15.0,7.0,0.0
15797,90.0,0.0,60.0,0.0,0.0
15798,85.0,0.0,15.0,7.0,0.0
15799,89.0,0.0,90.0,0.0,0.0
15800,65.0,0.0,90.0,3.0,0.0
15801,56.0,0.0,360.0,10.0,0.0
15802,59.0,0.0,360.0,10.0,0.0
15803,82.0,30.0,60.0,1.0,0.0
15804,77.0,0.0,90.0,2.0,0.0
15805,80.0,0.0,210.0,1.0,0.0
15806,73.0,0.0,15.0,8.0,0.0
15807,63.0,0.0,30.0,3.0,0.0
15808,85.0,30.0,15.0,7.0,0.0
15809,75.0,60.0,30.0,2.0,0.0
15810,87.0,0.0,30.0,0.0,0.0
15811,85.0,0.0,60.0,0.0,0.0
15812,73.0,0.0,60.0,8.0,0.0
15813,61.0,0.0,60.0,3.0,0.0
15814,85.0,0.0,15.0,7.0,0.0
15815,73.0,90.0,60.0,2.0,0.0
15816,59.0,30.0,90.0,3.0,0.0
15817,83.0,0.0,90.0,0.0,0.0
15818,71.0,0.0,90.0,2.0,0.0
15819,73.0,0.0,15.0,8.0,0.0
15820,82.0,60.0,30.0,0.0,0.0
15821,85.0,0.0,15.0,7.0,0.0
15822,58.0,0.0,30.0,3.0,0.0
15823,82.0,0.0,30.0,1.0,0.0
15824,70.0,0.0,30.0,2.0,0.0
15825,83.0,0.0,60.0,1.0,0.0
15826,73.0,0.0,15.0,8.0,0.0
15827,80.0,0.0,60.0,0.0,0.0
15828,68.0,0.0,60.0,2.0,0.0
15829,85.0,0.0,15.0,7.0,0.0
15830,56.0,0.0,60.0,3.0,0.0
15831,78.0,0.0,120.0,0.0,0.0
15832,66.0,0.0,120.0,2.0,0.0
15833,54.0,60.0,120.0,3.0,0.0
15834,85.0,30.0,270.0,1.0,0.0
15835,85.0,30.0,90.0,7.0,0.0
15836,57.0,0.0,360.0,10.0,0.0
15837,73.0,90.0,15.0,8.0,0.0
15838,54.0,0.0,360.0,10.0,0.0
15839,73.0,0.0,15.0,8.0,0.0
15840,85.0,0.0,15.0,7.0,0.0
15841,73.0,0.0,15.0,8.0,0.0
15842,85.0,90.0,15.0,7.0,0.0
15843,73.0,0.0,15.0,8.0,0.0
15844,85.0,0.0,30.0,7.0,0.0
15845,83.0,60.0,30.0,1.0,0.0
15846,81.0,0.0,60.0,1.0,0.0
15847,73.0,0.0,60.0,8.0,0.0
15848,73.0,30.0,90.0,8.0,0.0
15849,85.0,90.0,15.0,7.0,0.0
15850,59.0,90.0,360.0,10.0,0.0
15851,56.0,0.0,360.0,10.0,0.0
15852,83.0,0.0,270.0,1.0,0.0
15853,85.0,0.0,30.0,7.0,0.0
15854,73.0,60.0,30.0,8.0,0.0
15855,85.0,90.0,60.0,7.0,0.0
15856,73.0,0.0,60.0,8.0,0.0
15857,85.0,30.0,90.0,7.0,0.0
15858,73.0,0.0,15.0,8.0,0.0
15859,75.0,60.0,30.0,1.0,0.0
15860,85.0,0.0,30.0,7.0,0.0
15861,77.0,0.0,60.0,1.0,0.0
15862,85.0,0.0,15.0,7.0,0.0
15863,78.0,0.0,120.0,1.0,0.0
15864,81.0,30.0,270.0,2.0,0.0
15865,93.0,0.0,270.0,0.0,0.0
15866,54.0,0.0,300.0,10.0,0.0
15867,57.0,0.0,300.0,10.0,0.0
15868,69.0,0.0,270.0,3.0,0.0
15869,73.0,0.0,15.0,8.0,0.0
15870,73.0,0.0,15.0,8.0,0.0
15871,85.0,30.0,15.0,7.0,0.0
15872,73.0,0.0,60.0,8.0,0.0
15873,45.0,0.0,60.0,11.0,0.0
15874,78.0,60.0,15.0,1.0,0.0
15875,85.0,0.0,15.0,7.0,0.0
15876,73.0,0.0,90.0,8.0,0.0
15877,49.0,0.0,120.0,11.0,0.0
15878,81.0,0.0,60.0,1.0,0.0
15879,90.0,0.0,30.0,0.0,0.0
15880,85.0,0.0,15.0,7.0,0.0
15881,78.0,0.0,30.0,2.0,0.0
15882,66.0,0.0,30.0,3.0,0.0
15883,73.0,0.0,15.0,8.0,0.0
15884,65.0,0.0,60.0,3.0,0.0
15885,59.0,0.0,60.0,10.0,0.0
15886,56.0,0.0,60.0,10.0,0.0
15887,89.0,90.0,60.0,0.0,0.0
15888,77.0,0.0,60.0,2.0,0.0
15889,49.0,0.0,60.0,11.0,0.0
15890,85.0,0.0,60.0,7.0,0.0
15891,80.0,0.0,60.0,1.0,0.0
15892,54.0,0.0,90.0,10.0,0.0
15893,57.0,30.0,90.0,10.0,0.0
15894,90.0,0.0,90.0,0.0,0.0
15895,78.0,0.0,90.0,2.0,0.0
15896,73.0,0.0,15.0,8.0,0.0
15897,42.0,0.0,180.0,11.0,0.0
15898,78.0,0.0,120.0,1.0,0.0
15899,66.0,0.0,90.0,3.0,0.0
15900,85.0,0.0,30.0,0.0,0.0
15901,73.0,0.0,15.0,8.0,0.0
15902,73.0,60.0,30.0,2.0,0.0
15903,85.0,0.0,15.0,7.0,0.0
15904,56.0,0.0,30.0,10.0,0.0
15905,59.0,0.0,30.0,10.0,0.0
15906,61.0,0.0,30.0,3.0,0.0
15907,81.0,0.0,60.0,0.0,0.0
15908,61.0,0.0,60.0,10.0,0.0
15909,57.0,90.0,60.0,3.0,0.0
15910,69.0,0.0,60.0,2.0,0.0
15911,73.0,0.0,60.0,8.0,0.0
15912,85.0,0.0,15.0,7.0,0.0
15913,57.0,0.0,60.0,10.0,0.0
15914,54.0,0.0,120.0,3.0,0.0
15915,86.0,0.0,90.0,7.0,0.0
15916,62.0,0.0,90.0,10.0,0.0
15917,66.0,60.0,120.0,2.0,0.0
15918,74.0,30.0,90.0,8.0,0.0
15919,78.0,0.0,120.0,0.0,0.0
15920,59.0,0.0,15.0,10.0,0.0
15921,74.0,0.0,30.0,7.0,0.0
15922,62.0,0.0,30.0,10.0,0.0
15923,71.0,0.0,30.0,8.0,0.0
15924,59.0,0.0,15.0,10.0,0.0
15925,71.0,0.0,60.0,8.0,0.0
15926,62.0,0.0,60.0,10.0,0.0
15927,78.0,0.0,15.0,1.0,0.0
15928,47.0,0.0,15.0,11.0,0.0
15929,59.0,60.0,360.0,10.0,0.0
15930,62.0,0.0,360.0,10.0,0.0
15931,74.0,120.0,15.0,7.0,0.0
15932,71.0,0.0,360.0,8.0,0.0
15933,78.0,60.0,15.0,1.0,0.0
15934,78.0,30.0,90.0,1.0,0.0
15935,83.0,60.0,30.0,1.0,0.0
15936,73.0,0.0,360.0,7.0,0.0
15937,69.0,120.0,360.0,8.0,0.0
15938,86.0,0.0,15.0,1.0,0.0
15939,57.0,0.0,360.0,10.0,0.0
15940,61.0,0.0,360.0,10.0,0.0
15941,54.0,0.0,360.0,11.0,0.0
15942,85.0,60.0,60.0,1.0,0.0
15943,81.0,120.0,60.0,1.0,0.0
15944,78.0,60.0,120.0,1.0,0.0
15945,81.0,0.0,60.0,0.0,0.0
15946,78.0,0.0,360.0,7.0,0.0
15947,62.0,0.0,360.0,10.0,0.0
15948,66.0,60.0,360.0,10.0,0.0
15949,50.0,0.0,360.0,11.0,0.0
15950,81.0,60.0,120.0,0.0,0.0
15951,74.0,0.0,360.0,8.0,0.0
15952,81.0,90.0,15.0,0.0,0.0
15953,86.0,60.0,30.0,0.0,0.0
15954,90.0,0.0,60.0,0.0,0.0
15955,90.0,60.0,60.0,0.0,0.0
15956,73.0,120.0,360.0,8.0,0.0
15957,61.0,0.0,360.0,10.0,0.0
15958,57.0,0.0,360.0,11.0,0.0
15959,76.0,0.0,360.0,7.0,0.0
15960,64.0,0.0,360.0,10.0,0.0
15961,88.0,60.0,60.0,0.0,0.0
15962,85.0,120.0,60.0,0.0,0.0
15963,81.0,60.0,120.0,0.0,0.0
15964,54.0,60.0,360.0,11.0,0.0
15965,73.0,0.0,15.0,2.0,0.0
15966,66.0,0.0,360.0,10.0,0.0
15967,78.0,0.0,360.0,8.0,0.0
15968,69.0,0.0,360.0,10.0,0.0
15969,81.0,0.0,360.0,7.0,0.0
15970,73.0,90.0,60.0,2.0,0.0
15971,73.0,30.0,90.0,2.0,0.0
15972,78.0,60.0,30.0,2.0,0.0
15973,81.0,0.0,15.0,2.0,0.0
15974,80.0,0.0,720.0,7.0,0.0
15975,68.0,0.0,720.0,10.0,0.0
15976,76.0,0.0,720.0,8.0,0.0
15977,64.0,0.0,720.0,10.0,0.0
15978,80.0,60.0,60.0,2.0,0.0
15979,76.0,120.0,60.0,2.0,0.0
15980,73.0,60.0,120.0,2.0,0.0
15981,68.0,60.0,60.0,3.0,0.0
15982,69.0,30.0,60.0,3.0,0.0
15983,68.0,60.0,60.0,3.0,0.0
15984,49.0,30.0,15.0,6.0,0.0
15985,49.0,0.0,15.0,6.0,0.0
15986,64.0,0.0,60.0,3.0,0.0
15987,61.0,0.0,120.0,3.0,0.0
15988,49.0,30.0,15.0,6.0,0.0
15989,49.0,60.0,15.0,6.0,0.0
15990,80.0,60.0,60.0,2.0,0.0
15991,81.0,0.0,360.0,7.0,0.0
15992,49.0,0.0,15.0,6.0,0.0
15993,83.0,30.0,60.0,2.0,0.0
15994,78.0,60.0,360.0,8.0,0.0
15995,66.0,0.0,360.0,10.0,0.0
15996,81.0,0.0,60.0,2.0,0.0
15997,49.0,30.0,15.0,6.0,0.0
15998,78.0,90.0,60.0,2.0,0.0
15999,49.0,0.0,60.0,6.0,0.0
16000,49.0,30.0,90.0,6.0,0.0
16001,73.0,0.0,120.0,2.0,0.0
16002,49.0,60.0,30.0,6.0,0.0
16003,81.0,0.0,60.0,1.0,0.0
16004,69.0,0.0,15.0,10.0,0.0
16005,66.0,0.0,360.0,10.0,0.0
16006,84.0,60.0,360.0,7.0,0.0
16007,49.0,0.0,15.0,6.0,0.0
16008,85.0,30.0,60.0,1.0,0.0
16009,75.0,0.0,360.0,8.0,0.0
16010,84.0,0.0,60.0,1.0,0.0
16011,49.0,30.0,15.0,6.0,0.0
16012,78.0,90.0,60.0,1.0,0.0
16013,49.0,0.0,60.0,6.0,0.0
16014,75.0,0.0,120.0,1.0,0.0
16015,49.0,30.0,90.0,6.0,0.0
16016,49.0,60.0,15.0,6.0,0.0
16017,84.0,0.0,60.0,0.0,0.0
16018,87.0,30.0,60.0,0.0,0.0
16019,49.0,0.0,15.0,6.0,0.0
16020,85.0,0.0,300.0,7.0,0.0
16021,68.0,0.0,300.0,10.0,0.0
16022,85.0,60.0,60.0,0.0,0.0
16023,49.0,0.0,30.0,6.0,0.0
16024,80.0,0.0,60.0,0.0,0.0
16025,76.0,0.0,120.0,0.0,0.0
16026,49.0,90.0,15.0,6.0,0.0
16027,76.0,0.0,15.0,8.0,0.0
16028,64.0,0.0,15.0,10.0,0.0
16029,80.0,0.0,60.0,7.0,0.0
16030,49.0,0.0,15.0,6.0,0.0
16031,61.0,60.0,15.0,11.0,0.0
16032,68.0,0.0,60.0,10.0,0.0
16033,76.0,0.0,360.0,1.0,0.0
16034,80.0,0.0,360.0,1.0,0.0
16035,92.0,0.0,360.0,0.0,0.0
16036,88.0,0.0,360.0,0.0,0.0
16037,37.0,0.0,1440.0,4.0,0.0
16038,81.0,0.0,60.0,7.0,0.0
16039,49.0,0.0,60.0,11.0,0.0
16040,64.0,0.0,360.0,3.0,0.0
16041,68.0,0.0,360.0,3.0,0.0
16042,66.0,0.0,60.0,10.0,0.0
16043,49.0,0.0,1440.0,4.0,0.0
16044,78.0,30.0,60.0,8.0,0.0
16045,69.0,0.0,60.0,10.0,0.0
16046,49.0,30.0,15.0,6.0,0.0
16047,49.0,0.0,15.0,6.0,0.0
16048,80.0,30.0,60.0,7.0,0.0
16049,76.0,0.0,60.0,8.0,0.0
16050,68.0,0.0,60.0,10.0,0.0
16051,61.0,0.0,60.0,11.0,0.0
16052,49.0,0.0,30.0,6.0,0.0
16053,61.0,0.0,60.0,11.0,0.0
16054,49.0,30.0,30.0,6.0,0.0
16055,64.0,0.0,15.0,10.0,0.0
16056,76.0,30.0,60.0,7.0,0.0
16057,73.0,0.0,60.0,8.0,0.0
16058,61.0,0.0,60.0,10.0,0.0
16059,49.0,0.0,30.0,6.0,0.0
16060,49.0,0.0,60.0,11.0,0.0
16061,66.0,0.0,60.0,10.0,0.0
16062,69.0,30.0,60.0,10.0,0.0
16063,78.0,0.0,60.0,8.0,0.0
16064,81.0,0.0,60.0,7.0,0.0
16065,49.0,30.0,30.0,6.0,0.0
16066,80.0,30.0,60.0,7.0,0.0
16067,49.0,0.0,15.0,6.0,0.0
16068,64.0,0.0,60.0,10.0,0.0
16069,68.0,0.0,60.0,10.0,0.0
16070,76.0,0.0,60.0,8.0,0.0
16071,49.0,30.0,15.0,6.0,0.0
16072,61.0,0.0,60.0,10.0,0.0
16073,61.0,0.0,15.0,11.0,0.0
16074,73.0,0.0,60.0,8.0,0.0
16075,64.0,0.0,60.0,10.0,0.0
16076,76.0,30.0,60.0,7.0,0.0
16077,49.0,30.0,30.0,6.0,0.0
16078,49.0,0.0,15.0,6.0,0.0
16079,68.0,0.0,60.0,10.0,0.0
16080,71.0,0.0,60.0,10.0,0.0
16081,81.0,0.0,360.0,1.0,0.0
16082,78.0,30.0,360.0,1.0,0.0
16083,49.0,0.0,60.0,11.0,0.0
16084,66.0,0.0,360.0,3.0,0.0
16085,83.0,30.0,60.0,7.0,0.0
16086,90.0,0.0,360.0,0.0,0.0
16087,93.0,0.0,360.0,0.0,0.0
16088,80.0,0.0,60.0,8.0,0.0
16089,69.0,0.0,360.0,3.0,0.0
16090,49.0,30.0,15.0,6.0,0.0
16091,49.0,30.0,30.0,6.0,0.0
16092,61.0,0.0,60.0,11.0,0.0
16093,78.0,30.0,60.0,8.0,0.0
16094,81.0,0.0,60.0,7.0,0.0
16095,69.0,0.0,60.0,10.0,0.0
16096,49.0,0.0,30.0,6.0,0.0
16097,66.0,0.0,15.0,10.0,0.0
16098,61.0,0.0,60.0,10.0,0.0
16099,78.0,0.0,60.0,7.0,0.0
16100,61.0,30.0,60.0,11.0,0.0
16101,73.0,0.0,60.0,8.0,0.0
16102,49.0,30.0,15.0,6.0,0.0
16103,71.0,30.0,60.0,10.0,0.0
16104,80.0,0.0,60.0,8.0,0.0
16105,49.0,30.0,30.0,6.0,0.0
16106,49.0,0.0,60.0,11.0,0.0
16107,83.0,0.0,60.0,7.0,0.0
16108,68.0,0.0,60.0,10.0,0.0
16109,49.0,0.0,15.0,6.0,0.0
16110,78.0,0.0,60.0,8.0,0.0
16111,69.0,0.0,60.0,10.0,0.0
16112,81.0,0.0,60.0,7.0,0.0
16113,66.0,0.0,15.0,10.0,0.0
16114,61.0,0.0,60.0,10.0,0.0
16115,61.0,0.0,15.0,11.0,0.0
16116,73.0,0.0,60.0,8.0,0.0
16117,78.0,0.0,60.0,7.0,0.0
16118,49.0,30.0,15.0,6.0,0.0
16119,49.0,0.0,30.0,6.0,0.0
16120,49.0,30.0,30.0,6.0,0.0
16121,75.0,0.0,360.0,1.0,0.0
16122,49.0,0.0,60.0,11.0,0.0
16123,85.0,0.0,60.0,7.0,0.0
16124,66.0,0.0,15.0,10.0,0.0
16125,63.0,0.0,60.0,10.0,0.0
16126,84.0,0.0,360.0,1.0,0.0
16127,87.0,0.0,360.0,0.0,0.0
16128,63.0,0.0,360.0,3.0,0.0
16129,66.0,0.0,360.0,3.0,0.0
16130,75.0,0.0,360.0,2.0,0.0
16131,72.0,0.0,360.0,2.0,0.0
16132,73.0,30.0,60.0,8.0,0.0
16133,49.0,0.0,30.0,6.0,0.0
16134,49.0,30.0,30.0,6.0,0.0
16135,84.0,0.0,60.0,7.0,0.0
16136,68.0,30.0,60.0,10.0,0.0
16137,66.0,0.0,60.0,10.0,0.0
16138,72.0,0.0,60.0,8.0,0.0
16139,49.0,0.0,30.0,6.0,0.0
16140,61.0,0.0,15.0,11.0,0.0
16141,80.0,0.0,60.0,7.0,0.0
16142,68.0,0.0,60.0,10.0,0.0
16143,68.0,0.0,60.0,8.0,0.0
16144,49.0,30.0,15.0,6.0,0.0
16145,73.0,30.0,60.0,8.0,0.0
16146,49.0,30.0,30.0,6.0,0.0
16147,49.0,0.0,60.0,11.0,0.0
16148,85.0,0.0,60.0,7.0,0.0
16149,66.0,0.0,15.0,10.0,0.0
16150,63.0,0.0,60.0,10.0,0.0
16151,49.0,0.0,30.0,6.0,0.0
16152,61.0,0.0,60.0,11.0,0.0
16153,84.0,30.0,60.0,7.0,0.0
16154,66.0,0.0,60.0,10.0,0.0
16155,49.0,30.0,30.0,6.0,0.0
16156,72.0,0.0,60.0,8.0,0.0
16157,49.0,0.0,30.0,6.0,0.0
16158,65.0,0.0,15.0,10.0,0.0
16159,66.0,0.0,60.0,10.0,0.0
16160,80.0,0.0,60.0,7.0,0.0
16161,68.0,30.0,60.0,8.0,0.0
16162,61.0,0.0,60.0,11.0,0.0
16163,49.0,30.0,15.0,6.0,0.0
16164,64.0,0.0,60.0,10.0,0.0
16165,92.0,0.0,15.0,0.0,0.0
16166,61.0,30.0,60.0,10.0,0.0
16167,68.0,0.0,360.0,3.0,0.0
16168,73.0,0.0,360.0,2.0,0.0
16169,76.0,0.0,360.0,1.0,0.0
16170,85.0,0.0,360.0,1.0,0.0
16171,87.0,0.0,60.0,7.0,0.0
16172,49.0,0.0,60.0,11.0,0.0
16173,49.0,0.0,15.0,6.0,0.0
16174,75.0,0.0,60.0,8.0,0.0
16175,49.0,30.0,15.0,6.0,0.0
16176,85.0,0.0,60.0,7.0,0.0
16177,73.0,30.0,60.0,8.0,0.0
16178,49.0,30.0,15.0,6.0,0.0
16179,61.0,0.0,15.0,11.0,0.0
16180,49.0,30.0,30.0,6.0,0.0
16181,68.0,0.0,60.0,8.0,0.0
16182,68.0,0.0,15.0,10.0,0.0
16183,64.0,0.0,15.0,10.0,0.0
16184,80.0,30.0,60.0,7.0,0.0
16185,49.0,30.0,60.0,11.0,0.0
16186,64.0,0.0,15.0,10.0,0.0
16187,61.0,0.0,60.0,10.0,0.0
16188,49.0,0.0,15.0,6.0,0.0
16189,90.0,0.0,60.0,7.0,0.0
16190,78.0,0.0,60.0,8.0,0.0
16191,88.0,0.0,60.0,7.0,0.0
16192,49.0,0.0,15.0,6.0,0.0
16193,76.0,0.0,60.0,8.0,0.0
16194,64.0,0.0,60.0,10.0,0.0
16195,49.0,0.0,30.0,6.0,0.0
16196,49.0,30.0,30.0,6.0,0.0
16197,73.0,0.0,60.0,8.0,0.0
16198,85.0,0.0,60.0,7.0,0.0
16199,61.0,0.0,15.0,11.0,0.0
16200,68.0,30.0,15.0,10.0,0.0
16201,64.0,0.0,60.0,10.0,0.0
16202,91.0,0.0,360.0,0.0,0.0
16203,70.0,0.0,360.0,5.0,0.0
16204,64.0,0.0,15.0,3.0,0.0
16205,61.0,0.0,360.0,3.0,0.0
16206,61.0,0.0,360.0,4.0,0.0
16207,73.0,0.0,360.0,4.0,0.0
16208,58.0,0.0,360.0,5.0,0.0
16209,88.0,0.0,15.0,0.0,0.0
16210,88.0,0.0,270.0,7.0,0.0
16211,76.0,0.0,15.0,2.0,0.0
16212,67.0,0.0,360.0,2.0,0.0
16213,79.0,0.0,360.0,1.0,0.0
16214,49.0,0.0,30.0,11.0,0.0
16215,88.0,15.0,360.0,1.0,0.0
16216,49.0,15.0,15.0,6.0,0.0
16217,49.0,15.0,15.0,6.0,0.0
16218,70.0,0.0,15.0,10.0,0.0
16219,67.0,0.0,15.0,8.0,0.0
16220,76.0,0.0,15.0,8.0,0.0
16221,61.0,0.0,30.0,11.0,0.0
16222,49.0,15.0,15.0,6.0,0.0
16223,76.0,0.0,15.0,8.0,0.0
16224,67.0,0.0,15.0,8.0,0.0
16225,70.0,0.0,15.0,10.0,0.0
16226,49.0,15.0,15.0,6.0,0.0
16227,49.0,0.0,15.0,6.0,0.0
16228,67.0,0.0,30.0,8.0,0.0
16229,70.0,0.0,15.0,10.0,0.0
16230,61.0,15.0,15.0,11.0,0.0
16231,49.0,15.0,15.0,6.0,0.0
16232,76.0,0.0,15.0,8.0,0.0
16233,49.0,15.0,15.0,6.0,0.0
16234,67.0,0.0,30.0,8.0,0.0
16235,61.0,15.0,30.0,11.0,0.0
16236,70.0,0.0,30.0,10.0,0.0
16237,49.0,15.0,15.0,6.0,0.0
16238,70.0,0.0,30.0,10.0,0.0
16239,49.0,15.0,15.0,6.0,0.0
16240,67.0,15.0,30.0,8.0,0.0
16241,61.0,0.0,30.0,11.0,0.0
16242,49.0,0.0,15.0,6.0,0.0
16243,61.0,0.0,30.0,11.0,0.0
16244,76.0,0.0,15.0,8.0,0.0
16245,70.0,15.0,30.0,10.0,0.0
16246,67.0,0.0,30.0,8.0,0.0
16247,49.0,15.0,15.0,6.0,0.0
16248,49.0,15.0,15.0,6.0,0.0
16249,76.0,0.0,30.0,8.0,0.0
16250,67.0,0.0,30.0,8.0,0.0
16251,70.0,0.0,15.0,10.0,0.0
16252,61.0,0.0,15.0,11.0,0.0
16253,76.0,0.0,30.0,8.0,0.0
16254,67.0,0.0,30.0,8.0,0.0
16255,49.0,15.0,15.0,6.0,0.0
16256,49.0,15.0,15.0,6.0,0.0
16257,76.0,0.0,30.0,8.0,0.0
16258,49.0,0.0,15.0,6.0,0.0
16259,61.0,0.0,15.0,11.0,0.0
16260,87.0,0.0,30.0,7.0,0.0
16261,67.0,0.0,30.0,8.0,0.0
16262,70.0,15.0,15.0,10.0,0.0
16263,49.0,15.0,15.0,6.0,0.0
16264,85.0,0.0,60.0,7.0,0.0
16265,49.0,0.0,15.0,6.0,0.0
16266,67.0,0.0,30.0,8.0,0.0
16267,61.0,0.0,15.0,11.0,0.0
16268,76.0,0.0,30.0,8.0,0.0
16269,70.0,15.0,15.0,10.0,0.0
16270,49.0,15.0,15.0,6.0,0.0
16271,76.0,0.0,30.0,8.0,0.0
16272,67.0,0.0,30.0,8.0,0.0
16273,61.0,0.0,30.0,11.0,0.0
16274,70.0,0.0,30.0,10.0,0.0
16275,49.0,15.0,15.0,6.0,0.0
16276,49.0,0.0,15.0,6.0,0.0
16277,68.0,0.0,240.0,2.0,0.0
16278,56.0,0.0,15.0,6.0,0.0
16279,92.0,0.0,240.0,0.0,0.0
16280,75.0,0.0,30.0,8.0,0.0
16281,71.0,0.0,240.0,5.0,0.0
16282,80.0,0.0,240.0,4.0,0.0
16283,80.0,0.0,240.0,1.0,0.0
16284,87.0,0.0,240.0,1.0,0.0
16285,85.0,15.0,15.0,7.0,0.0
16286,68.0,0.0,240.0,4.0,0.0
16287,59.0,0.0,30.0,11.0,0.0
16288,87.0,0.0,240.0,7.0,0.0
16289,56.0,0.0,15.0,6.0,0.0
16290,56.0,15.0,15.0,6.0,0.0
16291,59.0,0.0,30.0,11.0,0.0
16292,68.0,0.0,15.0,8.0,0.0
16293,75.0,0.0,30.0,8.0,0.0
16294,71.0,15.0,15.0,10.0,0.0
16295,56.0,15.0,15.0,6.0,0.0
16296,71.0,0.0,15.0,10.0,0.0
16297,68.0,0.0,30.0,8.0,0.0
16298,75.0,15.0,30.0,8.0,0.0
16299,56.0,15.0,15.0,6.0,0.0
16300,71.0,0.0,15.0,10.0,0.0
16301,56.0,15.0,15.0,6.0,0.0
16302,59.0,0.0,15.0,11.0,0.0
16303,56.0,0.0,15.0,6.0,0.0
16304,71.0,15.0,15.0,10.0,0.0
16305,75.0,0.0,15.0,8.0,0.0
16306,68.0,0.0,15.0,8.0,0.0
16307,59.0,15.0,30.0,11.0,0.0
16308,56.0,15.0,15.0,6.0,0.0
16309,68.0,0.0,30.0,8.0,0.0
16310,75.0,0.0,30.0,8.0,0.0
16311,71.0,0.0,30.0,10.0,0.0
16312,56.0,15.0,15.0,6.0,0.0
16313,68.0,0.0,30.0,8.0,0.0
16314,75.0,15.0,30.0,8.0,0.0
16315,71.0,0.0,30.0,10.0,0.0
16316,59.0,15.0,15.0,11.0,0.0
16317,56.0,15.0,15.0,6.0,0.0
16318,56.0,0.0,15.0,6.0,0.0
16319,59.0,0.0,30.0,10.0,0.0
16320,63.0,0.0,30.0,8.0,0.0
16321,56.0,15.0,15.0,6.0,0.0
16322,56.0,30.0,15.0,6.0,0.0
16323,59.0,0.0,15.0,3.0,0.0
16324,69.0,0.0,60.0,7.0,0.0
16325,63.0,0.0,15.0,3.0,0.0
16326,59.0,0.0,15.0,11.0,0.0
16327,87.0,0.0,15.0,0.0,0.0
16328,59.0,0.0,30.0,10.0,0.0
16329,75.0,0.0,15.0,2.0,0.0
16330,80.0,0.0,60.0,1.0,0.0
16331,68.0,0.0,15.0,5.0,0.0
16332,56.0,0.0,60.0,6.0,0.0
16333,63.0,0.0,15.0,8.0,0.0
16334,59.0,0.0,30.0,10.0,0.0
16335,59.0,0.0,30.0,11.0,0.0
16336,75.0,0.0,15.0,2.0,0.0
16337,68.0,0.0,15.0,2.0,0.0
16338,80.0,0.0,60.0,1.0,0.0
16339,87.0,0.0,15.0,1.0,0.0
16340,56.0,0.0,60.0,6.0,0.0
16341,59.0,0.0,30.0,11.0,0.0
16342,92.0,0.0,15.0,0.0,0.0
16343,87.0,0.0,15.0,0.0,0.0
16344,68.0,0.0,15.0,4.0,0.0
16345,68.0,0.0,60.0,5.0,0.0
16346,56.0,0.0,15.0,4.0,0.0
16347,59.0,0.0,30.0,10.0,0.0
16348,63.0,0.0,15.0,8.0,0.0
16349,59.0,0.0,15.0,3.0,0.0
16350,63.0,30.0,15.0,3.0,0.0
16351,71.0,0.0,60.0,7.0,0.0
16352,59.0,0.0,30.0,10.0,0.0
16353,59.0,0.0,30.0,11.0,0.0
16354,63.0,0.0,30.0,8.0,0.0
16355,61.0,0.0,60.0,4.0,0.0
16356,85.0,0.0,60.0,1.0,0.0
16357,73.0,0.0,60.0,4.0,0.0
16358,49.0,0.0,60.0,6.0,0.0
16359,73.0,0.0,60.0,1.0,0.0
16360,97.0,0.0,60.0,0.0,0.0
16361,69.0,0.0,60.0,2.0,0.0
16362,73.0,0.0,60.0,2.0,0.0
16363,61.0,0.0,30.0,8.0,0.0
16364,85.0,0.0,60.0,0.0,0.0
16365,61.0,0.0,60.0,5.0,0.0
16366,57.0,0.0,30.0,10.0,0.0
16367,73.0,0.0,60.0,5.0,0.0
16368,57.0,0.0,60.0,3.0,0.0
16369,61.0,0.0,60.0,3.0,0.0
16370,66.0,0.0,30.0,8.0,0.0
16371,57.0,30.0,15.0,11.0,0.0
16372,61.0,0.0,30.0,10.0,0.0
16373,57.0,30.0,15.0,11.0,0.0
16374,66.0,30.0,30.0,8.0,0.0
16375,61.0,0.0,30.0,10.0,0.0
16376,66.0,0.0,60.0,3.0,0.0
16377,57.0,0.0,60.0,3.0,0.0
16378,61.0,0.0,60.0,5.0,0.0
16379,61.0,0.0,15.0,10.0,0.0
16380,73.0,0.0,60.0,4.0,0.0
16381,73.0,0.0,60.0,2.0,0.0
16382,66.0,0.0,15.0,8.0,0.0
16383,73.0,0.0,15.0,7.0,0.0
16384,78.0,0.0,60.0,2.0,0.0
16385,57.0,30.0,15.0,11.0,0.0
16386,85.0,0.0,60.0,0.0,0.0
16387,97.0,0.0,60.0,0.0,0.0
16388,61.0,0.0,60.0,4.0,0.0
16389,66.0,30.0,15.0,8.0,0.0
16390,57.0,0.0,30.0,11.0,0.0
16391,61.0,0.0,30.0,10.0,0.0
16392,61.0,0.0,60.0,4.0,0.0
16393,73.0,0.0,15.0,5.0,0.0
16394,49.0,0.0,15.0,6.0,0.0
16395,61.0,0.0,60.0,5.0,0.0
16396,73.0,0.0,60.0,4.0,0.0
16397,57.0,0.0,30.0,11.0,0.0
16398,73.0,0.0,15.0,7.0,0.0
16399,85.0,0.0,15.0,1.0,0.0
16400,90.0,0.0,15.0,1.0,0.0
16401,61.0,30.0,30.0,10.0,0.0
16402,97.0,0.0,60.0,0.0,0.0
16403,85.0,0.0,60.0,0.0,0.0
16404,73.0,0.0,60.0,2.0,0.0
16405,78.0,0.0,60.0,2.0,0.0
16406,66.0,0.0,30.0,8.0,0.0
16407,66.0,0.0,60.0,3.0,0.0
16408,57.0,0.0,60.0,3.0,0.0
16409,66.0,0.0,30.0,8.0,0.0
16410,57.0,0.0,30.0,11.0,0.0
16411,61.0,0.0,15.0,10.0,0.0
16412,66.0,0.0,30.0,8.0,0.0
16413,75.0,30.0,30.0,7.0,0.0
16414,57.0,30.0,15.0,11.0,0.0
16415,61.0,0.0,15.0,10.0,0.0
16416,66.0,0.0,15.0,8.0,0.0
16417,57.0,0.0,15.0,11.0,0.0
16418,61.0,0.0,15.0,10.0,0.0
16419,73.0,0.0,60.0,7.0,0.0
16420,85.0,0.0,60.0,1.0,0.0
16421,61.0,60.0,60.0,5.0,0.0
16422,73.0,0.0,60.0,4.0,0.0
16423,73.0,0.0,60.0,5.0,0.0
16424,78.0,0.0,60.0,1.0,0.0
16425,57.0,0.0,60.0,3.0,0.0
16426,49.0,0.0,60.0,6.0,0.0
16427,73.0,0.0,60.0,2.0,0.0
16428,78.0,0.0,60.0,2.0,0.0
16429,66.0,0.0,60.0,3.0,0.0
16430,90.0,0.0,60.0,0.0,0.0
16431,85.0,0.0,60.0,0.0,0.0
16432,61.0,0.0,60.0,4.0,0.0
16433,57.0,0.0,30.0,11.0,0.0
16434,61.0,30.0,15.0,10.0,0.0
16435,66.0,0.0,30.0,8.0,0.0
16436,68.0,0.0,60.0,8.0,0.0
16437,56.0,0.0,120.0,3.0,0.0
16438,63.0,0.0,120.0,3.0,0.0
16439,72.0,0.0,120.0,2.0,0.0
16440,72.0,0.0,120.0,7.0,0.0
16441,84.0,0.0,120.0,0.0,0.0
16442,84.0,60.0,120.0,1.0,0.0
16443,75.0,0.0,120.0,1.0,0.0
16444,63.0,0.0,60.0,10.0,0.0
16445,87.0,0.0,120.0,0.0,0.0
16446,68.0,0.0,60.0,4.0,0.0
16447,68.0,60.0,60.0,5.0,0.0
16448,56.0,0.0,120.0,11.0,0.0
16449,56.0,0.0,60.0,6.0,0.0
16450,75.0,0.0,120.0,2.0,0.0
16451,60.0,0.0,60.0,10.0,0.0
16452,68.0,0.0,60.0,8.0,0.0
16453,63.0,0.0,60.0,8.0,0.0
16454,56.0,0.0,60.0,10.0,0.0
16455,68.0,90.0,60.0,7.0,0.0
16456,68.0,30.0,90.0,7.0,0.0
16457,56.0,0.0,120.0,11.0,0.0
16458,72.0,60.0,30.0,7.0,0.0
16459,68.0,0.0,60.0,8.0,0.0
16460,63.0,0.0,60.0,8.0,0.0
16461,56.0,0.0,60.0,10.0,0.0
16462,75.0,0.0,60.0,7.0,0.0
16463,60.0,15.0,60.0,10.0,0.0
16464,73.0,105.0,15.0,7.0,0.0
16465,56.0,0.0,120.0,11.0,0.0
16466,56.0,90.0,60.0,10.0,0.0
16467,76.0,60.0,15.0,7.0,0.0
16468,64.0,0.0,60.0,8.0,0.0
16469,68.0,0.0,60.0,8.0,0.0
16470,61.0,0.0,60.0,10.0,0.0
16471,56.0,0.0,120.0,11.0,0.0
16472,76.0,30.0,90.0,7.0,0.0
16473,75.0,60.0,30.0,7.0,0.0
16474,68.0,0.0,60.0,8.0,0.0
16475,73.0,0.0,60.0,7.0,0.0
16476,61.0,0.0,60.0,10.0,0.0
16477,56.0,60.0,60.0,10.0,0.0
16478,64.0,0.0,60.0,8.0,0.0
16479,56.0,60.0,120.0,11.0,0.0
16480,72.0,60.0,60.0,7.0,0.0
16481,68.0,0.0,60.0,8.0,0.0
16482,80.0,0.0,60.0,0.0,0.0
16483,56.0,0.0,60.0,3.0,0.0
16484,63.0,0.0,60.0,8.0,0.0
16485,80.0,0.0,60.0,7.0,0.0
16486,60.0,0.0,60.0,10.0,0.0
16487,56.0,90.0,60.0,10.0,0.0
16488,56.0,0.0,90.0,3.0,0.0
16489,68.0,0.0,15.0,2.0,0.0
16490,56.0,0.0,120.0,11.0,0.0
16491,80.0,30.0,90.0,0.0,0.0
16492,72.0,0.0,30.0,2.0,0.0
16493,60.0,60.0,30.0,3.0,0.0
16494,84.0,0.0,30.0,0.0,0.0
16495,87.0,0.0,60.0,0.0,0.0
16496,75.0,0.0,60.0,2.0,0.0
16497,60.0,0.0,60.0,10.0,0.0
16498,56.0,0.0,60.0,10.0,0.0
16499,63.0,0.0,60.0,3.0,0.0
16500,63.0,15.0,60.0,8.0,0.0
16501,80.0,0.0,60.0,7.0,0.0
16502,68.0,0.0,60.0,8.0,0.0
16503,85.0,0.0,15.0,0.0,0.0
16504,61.0,105.0,15.0,3.0,0.0
16505,56.0,0.0,120.0,11.0,0.0
16506,73.0,0.0,15.0,2.0,0.0
16507,76.0,0.0,120.0,2.0,0.0
16508,88.0,0.0,120.0,0.0,0.0
16509,64.0,60.0,15.0,3.0,0.0
16510,80.0,90.0,60.0,7.0,0.0
16511,61.0,0.0,60.0,10.0,0.0
16512,64.0,0.0,60.0,8.0,0.0
16513,56.0,0.0,60.0,10.0,0.0
16514,76.0,0.0,60.0,2.0,0.0
16515,68.0,0.0,60.0,8.0,0.0
16516,88.0,0.0,60.0,0.0,0.0
16517,64.0,0.0,15.0,3.0,0.0
16518,76.0,30.0,90.0,2.0,0.0
16519,56.0,0.0,120.0,11.0,0.0
16520,88.0,0.0,90.0,0.0,0.0
16521,75.0,0.0,30.0,2.0,0.0
16522,87.0,0.0,30.0,0.0,0.0
16523,63.0,60.0,30.0,3.0,0.0
16524,73.0,120.0,60.0,2.0,0.0
16525,85.0,0.0,60.0,0.0,0.0
16526,61.0,0.0,60.0,10.0,0.0
16527,80.0,0.0,60.0,7.0,0.0
16528,68.0,0.0,60.0,8.0,0.0
16529,64.0,0.0,60.0,8.0,0.0
16530,61.0,0.0,60.0,3.0,0.0
16531,56.0,0.0,60.0,10.0,0.0
16532,84.0,0.0,120.0,0.0,0.0
16533,60.0,60.0,120.0,3.0,0.0
16534,72.0,0.0,120.0,2.0,0.0
16535,56.0,0.0,120.0,11.0,0.0
16536,92.0,0.0,60.0,0.0,0.0
16537,80.0,0.0,60.0,1.0,0.0
16538,80.0,0.0,60.0,7.0,0.0
16539,56.0,0.0,60.0,10.0,0.0
16540,60.0,0.0,60.0,10.0,0.0
16541,68.0,0.0,60.0,8.0,0.0
16542,63.0,0.0,60.0,8.0,0.0
16543,68.0,90.0,60.0,2.0,0.0
16544,80.0,0.0,60.0,2.0,0.0
16545,80.0,30.0,90.0,7.0,0.0
16546,56.0,0.0,15.0,3.0,0.0
16547,80.0,0.0,90.0,1.0,0.0
16548,56.0,60.0,120.0,11.0,0.0
16549,68.0,0.0,90.0,2.0,0.0
16550,80.0,0.0,120.0,2.0,0.0
16551,92.0,0.0,120.0,0.0,0.0
16552,60.0,0.0,30.0,3.0,0.0
16553,72.0,0.0,30.0,2.0,0.0
16554,84.0,0.0,30.0,7.0,0.0
16555,84.0,0.0,30.0,1.0,0.0
16556,63.0,0.0,60.0,3.0,0.0
16557,90.0,0.0,60.0,0.0,0.0
16558,78.0,0.0,60.0,2.0,0.0
16559,60.0,0.0,60.0,10.0,0.0
16560,68.0,0.0,60.0,8.0,0.0
16561,63.0,30.0,60.0,8.0,0.0
16562,87.0,0.0,60.0,7.0,0.0
16563,75.0,0.0,60.0,2.0,0.0
16564,87.0,0.0,60.0,1.0,0.0
16565,56.0,0.0,60.0,10.0,0.0
16566,61.0,0.0,120.0,5.0,0.0
16567,89.0,0.0,120.0,0.0,0.0
16568,56.0,0.0,120.0,4.0,0.0
16569,49.0,0.0,120.0,5.0,0.0
16570,89.0,0.0,120.0,7.0,0.0
16571,49.0,0.0,300.0,11.0,0.0
16572,49.0,0.0,120.0,6.0,0.0
16573,65.0,30.0,30.0,8.0,0.0
16574,61.0,0.0,120.0,3.0,0.0
16575,61.0,0.0,15.0,10.0,0.0
16576,65.0,0.0,30.0,8.0,0.0
16577,61.0,0.0,30.0,10.0,0.0
16578,65.0,30.0,30.0,8.0,0.0
16579,61.0,0.0,30.0,10.0,0.0
16580,65.0,0.0,30.0,8.0,0.0
16581,65.0,0.0,30.0,8.0,0.0
16582,89.0,30.0,60.0,0.0,0.0
16583,89.0,0.0,60.0,7.0,0.0
16584,77.0,0.0,15.0,2.0,0.0
16585,65.0,30.0,15.0,3.0,0.0
16586,89.0,0.0,15.0,1.0,0.0
16587,68.0,0.0,15.0,4.0,0.0
16588,65.0,0.0,30.0,8.0,0.0
16589,61.0,30.0,15.0,10.0,0.0
16590,65.0,0.0,30.0,8.0,0.0
16591,61.0,0.0,15.0,3.0,0.0
16592,65.0,0.0,15.0,3.0,0.0
16593,89.0,0.0,15.0,1.0,0.0
16594,80.0,0.0,15.0,1.0,0.0
16595,61.0,30.0,30.0,10.0,0.0
16596,68.0,0.0,15.0,4.0,0.0
16597,56.0,0.0,15.0,4.0,0.0
16598,65.0,30.0,30.0,8.0,0.0
16599,61.0,0.0,15.0,10.0,0.0
16600,65.0,0.0,30.0,8.0,0.0
16601,61.0,30.0,15.0,10.0,0.0
16602,65.0,0.0,30.0,8.0,0.0
16603,49.0,0.0,60.0,11.0,0.0
16604,89.0,0.0,15.0,1.0,0.0
16605,80.0,0.0,60.0,1.0,0.0
16606,77.0,0.0,15.0,2.0,0.0
16607,94.0,0.0,15.0,7.0,0.0
16608,94.0,0.0,15.0,0.0,0.0
16609,68.0,0.0,15.0,4.0,0.0
16610,56.0,0.0,15.0,4.0,0.0
16611,65.0,0.0,30.0,8.0,0.0
16612,65.0,0.0,15.0,3.0,0.0
16613,61.0,0.0,60.0,3.0,0.0
16614,61.0,30.0,15.0,10.0,0.0
16615,65.0,0.0,30.0,8.0,0.0
16616,94.0,0.0,60.0,0.0,0.0
16617,63.0,30.0,60.0,8.0,0.0
16618,56.0,0.0,120.0,6.0,0.0
16619,94.0,0.0,60.0,7.0,0.0
16620,48.0,30.0,120.0,11.0,0.0
16621,60.0,0.0,60.0,10.0,0.0
16622,56.0,0.0,360.0,4.0,0.0
16623,68.0,0.0,15.0,4.0,0.0
16624,68.0,0.0,120.0,5.0,0.0
16625,68.0,0.0,360.0,2.0,0.0
16626,75.0,0.0,360.0,2.0,0.0
16627,60.0,0.0,360.0,3.0,0.0
16628,63.0,0.0,360.0,3.0,0.0
16629,87.0,0.0,360.0,1.0,0.0
16630,92.0,0.0,300.0,7.0,0.0
16631,92.0,30.0,300.0,0.0,0.0
16632,75.0,30.0,30.0,10.0,0.0
16633,87.0,0.0,30.0,8.0,0.0
16634,85.0,0.0,30.0,8.0,0.0
16635,73.0,0.0,30.0,10.0,0.0
16636,84.0,30.0,30.0,8.0,0.0
16637,56.0,0.0,60.0,6.0,0.0
16638,72.0,0.0,30.0,10.0,0.0
16639,48.0,0.0,60.0,11.0,0.0
16640,70.0,30.0,30.0,10.0,0.0
16641,82.0,0.0,30.0,8.0,0.0
16642,68.0,0.0,15.0,5.0,0.0
16643,60.0,0.0,120.0,11.0,0.0
16644,80.0,30.0,30.0,8.0,0.0
16645,68.0,0.0,30.0,10.0,0.0
16646,67.0,30.0,30.0,10.0,0.0
16647,79.0,0.0,30.0,8.0,0.0
16648,80.0,30.0,30.0,8.0,0.0
16649,68.0,0.0,30.0,10.0,0.0
16650,66.0,0.0,30.0,10.0,0.0
16651,78.0,30.0,30.0,8.0,0.0
16652,77.0,30.0,30.0,8.0,0.0
16653,60.0,0.0,60.0,11.0,0.0
16654,68.0,0.0,15.0,5.0,0.0
16655,56.0,0.0,15.0,6.0,0.0
16656,65.0,0.0,30.0,10.0,0.0
16657,75.0,0.0,30.0,8.0,0.0
16658,63.0,0.0,30.0,10.0,0.0
16659,80.0,0.0,15.0,1.0,0.0
16660,73.0,30.0,30.0,8.0,0.0
16661,68.0,0.0,120.0,4.0,0.0
16662,85.0,0.0,120.0,1.0,0.0
16663,58.0,0.0,120.0,3.0,0.0
16664,85.0,0.0,120.0,7.0,0.0
16665,61.0,0.0,30.0,10.0,0.0
16666,85.0,0.0,120.0,0.0,0.0
16667,60.0,0.0,60.0,11.0,0.0
16668,56.0,0.0,120.0,6.0,0.0
16669,61.0,0.0,30.0,8.0,0.0
16670,58.0,30.0,15.0,10.0,0.0
16671,58.0,0.0,240.0,11.0,0.0
16672,61.0,30.0,15.0,8.0,0.0
16673,58.0,0.0,15.0,10.0,0.0
16674,56.0,0.0,15.0,4.0,0.0
16675,80.0,0.0,60.0,1.0,0.0
16676,61.0,0.0,15.0,3.0,0.0
16677,68.0,0.0,60.0,4.0,0.0
16678,68.0,30.0,15.0,2.0,0.0
16679,73.0,0.0,15.0,2.0,0.0
16680,58.0,0.0,30.0,10.0,0.0
16681,85.0,30.0,60.0,0.0,0.0
16682,85.0,0.0,60.0,7.0,0.0
16683,61.0,30.0,15.0,8.0,0.0
16684,58.0,0.0,30.0,10.0,0.0
16685,58.0,0.0,30.0,10.0,0.0
16686,61.0,0.0,15.0,8.0,0.0
16687,85.0,0.0,15.0,1.0,0.0
16688,58.0,0.0,15.0,3.0,0.0
16689,56.0,0.0,15.0,4.0,0.0
16690,90.0,0.0,120.0,7.0,0.0
16691,80.0,0.0,120.0,1.0,0.0
16692,58.0,30.0,30.0,10.0,0.0
16693,61.0,0.0,30.0,8.0,0.0
16694,61.0,0.0,15.0,8.0,0.0
16695,58.0,30.0,15.0,10.0,0.0
16696,61.0,0.0,15.0,3.0,0.0
16697,58.0,0.0,15.0,3.0,0.0
16698,90.0,0.0,15.0,0.0,0.0
16699,90.0,0.0,60.0,7.0,0.0
16700,46.0,0.0,60.0,11.0,0.0
16701,68.0,0.0,15.0,4.0,0.0
16702,56.0,0.0,15.0,4.0,0.0
16703,68.0,0.0,15.0,2.0,0.0
16704,73.0,30.0,15.0,2.0,0.0
16705,85.0,0.0,60.0,1.0,0.0
16706,58.0,0.0,30.0,10.0,0.0
16707,58.0,0.0,30.0,10.0,0.0
16708,61.0,30.0,15.0,8.0,0.0
16709,56.0,0.0,120.0,6.0,0.0
16710,90.0,0.0,60.0,7.0,0.0
16711,68.0,0.0,15.0,5.0,0.0
16712,56.0,0.0,360.0,4.0,0.0
16713,68.0,0.0,360.0,4.0,0.0
16714,56.0,0.0,360.0,3.0,0.0
16715,60.0,0.0,360.0,3.0,0.0
16716,80.0,0.0,15.0,1.0,0.0
16717,90.0,0.0,60.0,0.0,0.0
16718,56.0,0.0,60.0,10.0,0.0
16719,68.0,0.0,360.0,2.0,0.0
16720,84.0,0.0,360.0,1.0,0.0
16721,60.0,30.0,60.0,8.0,0.0
16722,72.0,0.0,360.0,2.0,0.0
16723,89.0,0.0,300.0,7.0,0.0
16724,72.0,0.0,30.0,10.0,0.0
16725,89.0,0.0,300.0,0.0,0.0
16726,84.0,30.0,30.0,8.0,0.0
16727,70.0,0.0,30.0,10.0,0.0
16728,82.0,30.0,30.0,8.0,0.0
16729,68.0,0.0,30.0,10.0,0.0
16730,44.0,0.0,15.0,11.0,0.0
16731,80.0,30.0,30.0,8.0,0.0
16732,78.0,0.0,30.0,8.0,0.0
16733,66.0,0.0,30.0,10.0,0.0
16734,77.0,30.0,30.0,8.0,0.0
16735,56.0,30.0,15.0,6.0,0.0
16736,68.0,0.0,15.0,5.0,0.0
16737,65.0,0.0,30.0,10.0,0.0
16738,64.0,30.0,30.0,10.0,0.0
16739,76.0,0.0,30.0,8.0,0.0
16740,65.0,30.0,30.0,10.0,0.0
16741,77.0,0.0,30.0,8.0,0.0
16742,63.0,0.0,30.0,10.0,0.0
16743,75.0,30.0,30.0,8.0,0.0
16744,61.0,30.0,30.0,10.0,0.0
16745,73.0,0.0,30.0,8.0,0.0
16746,56.0,0.0,15.0,11.0,0.0
16747,68.0,0.0,15.0,5.0,0.0
16748,56.0,0.0,15.0,6.0,0.0
16749,60.0,30.0,30.0,10.0,0.0
16750,72.0,0.0,30.0,8.0,0.0
16751,70.0,0.0,120.0,1.0,0.0
16752,70.0,0.0,120.0,5.0,0.0
16753,54.0,0.0,120.0,3.0,0.0
16754,56.0,0.0,60.0,11.0,0.0
16755,73.0,0.0,120.0,4.0,0.0
16756,61.0,0.0,120.0,4.0,0.0
16757,82.0,0.0,120.0,7.0,0.0
16758,49.0,0.0,120.0,6.0,0.0
16759,68.0,0.0,30.0,8.0,0.0
16760,68.0,30.0,30.0,8.0,0.0
16761,58.0,30.0,15.0,10.0,0.0
16762,58.0,0.0,15.0,10.0,0.0
16763,68.0,30.0,30.0,8.0,0.0
16764,58.0,0.0,30.0,10.0,0.0
16765,68.0,0.0,30.0,8.0,0.0
16766,70.0,0.0,15.0,2.0,0.0
16767,82.0,0.0,15.0,0.0,0.0
16768,54.0,0.0,60.0,3.0,0.0
16769,75.0,0.0,60.0,2.0,0.0
16770,58.0,0.0,15.0,3.0,0.0
16771,82.0,0.0,15.0,1.0,0.0
16772,49.0,0.0,60.0,6.0,0.0
16773,82.0,0.0,60.0,7.0,0.0
16774,58.0,0.0,30.0,10.0,0.0
16775,70.0,0.0,60.0,5.0,0.0
16776,58.0,0.0,15.0,5.0,0.0
16777,54.0,30.0,15.0,11.0,0.0
16778,68.0,30.0,15.0,8.0,0.0
16779,87.0,0.0,120.0,7.0,0.0
16780,58.0,0.0,15.0,10.0,0.0
16781,58.0,0.0,15.0,3.0,0.0
16782,55.0,0.0,120.0,3.0,0.0
16783,87.0,0.0,15.0,1.0,0.0
16784,87.0,0.0,120.0,0.0,0.0
16785,94.0,0.0,15.0,0.0,0.0
16786,70.0,0.0,15.0,2.0,0.0
16787,75.0,0.0,120.0,2.0,0.0
16788,68.0,0.0,30.0,8.0,0.0
16789,75.0,0.0,15.0,4.0,0.0
16790,73.0,0.0,30.0,8.0,0.0
16791,55.0,30.0,15.0,11.0,0.0
16792,63.0,0.0,15.0,10.0,0.0
16793,73.0,0.0,30.0,8.0,0.0
16794,63.0,30.0,15.0,10.0,0.0
16795,73.0,0.0,30.0,8.0,0.0
16796,82.0,0.0,15.0,1.0,0.0
16797,85.0,0.0,60.0,1.0,0.0
16798,70.0,30.0,15.0,5.0,0.0
16799,55.0,0.0,60.0,3.0,0.0
16800,58.0,0.0,60.0,3.0,0.0
16801,85.0,0.0,60.0,7.0,0.0
16802,49.0,0.0,15.0,6.0,0.0
16803,73.0,0.0,60.0,2.0,0.0
16804,70.0,0.0,60.0,2.0,0.0
16805,63.0,0.0,15.0,10.0,0.0
16806,55.0,0.0,15.0,11.0,0.0
16807,94.0,0.0,15.0,0.0,0.0
16808,87.0,0.0,60.0,0.0,0.0
16809,58.0,0.0,15.0,5.0,0.0
16810,73.0,0.0,15.0,8.0,0.0
16811,63.0,30.0,15.0,10.0,0.0
16812,72.0,0.0,60.0,2.0,0.0
16813,68.0,0.0,60.0,2.0,0.0
16814,68.0,0.0,60.0,5.0,0.0
16815,72.0,0.0,120.0,8.0,0.0
16816,56.0,0.0,60.0,3.0,0.0
16817,84.0,0.0,120.0,7.0,0.0
16818,87.0,0.0,60.0,0.0,0.0
16819,63.0,0.0,15.0,10.0,0.0
16820,75.0,0.0,120.0,7.0,0.0
16821,92.0,0.0,60.0,0.0,0.0
16822,80.0,0.0,60.0,1.0,0.0
16823,75.0,60.0,15.0,4.0,0.0
16824,56.0,0.0,120.0,11.0,0.0
16825,68.0,0.0,60.0,4.0,0.0
16826,84.0,0.0,15.0,1.0,0.0
16827,68.0,0.0,60.0,4.0,0.0
16828,68.0,0.0,60.0,5.0,0.0
16829,68.0,0.0,60.0,2.0,0.0
16830,72.0,0.0,60.0,2.0,0.0
16831,56.0,0.0,15.0,6.0,0.0
16832,87.0,0.0,60.0,0.0,0.0
16833,92.0,0.0,60.0,0.0,0.0
16834,56.0,0.0,60.0,3.0,0.0
16835,75.0,120.0,60.0,4.0,0.0
16836,80.0,0.0,60.0,1.0,0.0
16837,60.0,60.0,15.0,3.0,0.0
16838,75.0,0.0,120.0,10.0,0.0
16839,63.0,0.0,60.0,3.0,0.0
16840,75.0,0.0,60.0,2.0,0.0
16841,78.0,0.0,60.0,2.0,0.0
16842,68.0,0.0,120.0,10.0,0.0
16843,66.0,0.0,60.0,3.0,0.0
16844,78.0,120.0,120.0,8.0,0.0
16845,68.0,0.0,60.0,4.0,0.0
16846,68.0,0.0,120.0,8.0,0.0
16847,80.0,0.0,120.0,7.0,0.0
16848,90.0,0.0,120.0,7.0,0.0
16849,90.0,0.0,60.0,0.0,0.0
16850,56.0,0.0,120.0,11.0,0.0
16851,90.0,0.0,15.0,1.0,0.0
16852,87.0,0.0,15.0,1.0,0.0
16853,66.0,0.0,60.0,3.0,0.0
16854,63.0,0.0,60.0,3.0,0.0
16855,68.0,0.0,15.0,5.0,0.0
16856,75.0,0.0,60.0,2.0,0.0
16857,68.0,0.0,60.0,4.0,0.0
16858,75.0,0.0,15.0,4.0,0.0
16859,56.0,60.0,15.0,6.0,0.0
16860,87.0,0.0,15.0,0.0,0.0
16861,90.0,0.0,60.0,0.0,0.0
16862,78.0,0.0,60.0,2.0,0.0
16863,73.0,0.0,120.0,10.0,0.0
16864,68.0,0.0,120.0,10.0,0.0
16865,85.0,0.0,60.0,1.0,0.0
16866,73.0,0.0,60.0,2.0,0.0
16867,56.0,0.0,120.0,11.0,0.0
16868,61.0,0.0,60.0,3.0,0.0
16869,68.0,0.0,60.0,5.0,0.0
16870,80.0,0.0,120.0,7.0,0.0
16871,89.0,0.0,120.0,7.0,0.0
16872,77.0,0.0,120.0,8.0,0.0
16873,56.0,0.0,60.0,6.0,0.0
16874,68.0,0.0,120.0,8.0,0.0
16875,65.0,0.0,60.0,3.0,0.0
16876,85.0,60.0,15.0,0.0,0.0
16877,68.0,0.0,60.0,5.0,0.0
16878,89.0,0.0,15.0,0.0,0.0
16879,89.0,0.0,15.0,1.0,0.0
16880,77.0,0.0,15.0,2.0,0.0
16881,77.0,0.0,15.0,4.0,0.0
16882,61.0,0.0,60.0,3.0,0.0
16883,65.0,0.0,60.0,3.0,0.0
16884,73.0,0.0,15.0,4.0,0.0
16885,56.0,0.0,60.0,6.0,0.0
16886,73.0,120.0,60.0,2.0,0.0
16887,85.0,0.0,60.0,1.0,0.0
16888,89.0,0.0,60.0,0.0,0.0
16889,89.0,0.0,60.0,1.0,0.0
16890,77.0,0.0,60.0,2.0,0.0
16891,97.0,60.0,60.0,0.0,0.0
16892,68.0,0.0,120.0,10.0,0.0
16893,77.0,0.0,120.0,7.0,0.0
16894,85.0,0.0,120.0,7.0,0.0
16895,68.0,0.0,120.0,8.0,0.0
16896,77.0,0.0,120.0,8.0,0.0
16897,56.0,0.0,120.0,11.0,0.0
16898,77.0,0.0,60.0,4.0,0.0
16899,65.0,0.0,120.0,10.0,0.0
16900,73.0,0.0,15.0,4.0,0.0
16901,65.0,0.0,15.0,3.0,0.0
16902,56.0,0.0,15.0,6.0,0.0
16903,85.0,0.0,15.0,2.0,0.0
16904,85.0,0.0,15.0,1.0,0.0
16905,77.0,0.0,60.0,2.0,0.0
16906,61.0,0.0,15.0,3.0,0.0
16907,89.0,0.0,60.0,1.0,0.0
16908,77.0,0.0,60.0,4.0,0.0
16909,68.0,0.0,15.0,5.0,0.0
16910,97.0,0.0,60.0,0.0,0.0
16911,89.0,120.0,60.0,0.0,0.0
16912,68.0,0.0,120.0,8.0,0.0
16913,75.0,0.0,120.0,8.0,0.0
16914,56.0,0.0,120.0,11.0,0.0
16915,68.0,0.0,60.0,4.0,0.0
16916,75.0,0.0,60.0,4.0,0.0
16917,63.0,0.0,120.0,10.0,0.0
16918,68.0,0.0,60.0,5.0,0.0
16919,75.0,0.0,120.0,7.0,0.0
16920,68.0,0.0,120.0,10.0,0.0
16921,87.0,0.0,60.0,1.0,0.0
16922,60.0,0.0,60.0,3.0,0.0
16923,84.0,0.0,120.0,7.0,0.0
16924,63.0,0.0,60.0,3.0,0.0
16925,84.0,0.0,15.0,2.0,0.0
16926,75.0,0.0,15.0,2.0,0.0
16927,87.0,0.0,15.0,0.0,0.0
16928,68.0,0.0,60.0,5.0,0.0
16929,68.0,0.0,60.0,4.0,0.0
16930,96.0,0.0,15.0,0.0,0.0
16931,60.0,0.0,60.0,3.0,0.0
16932,63.0,0.0,60.0,3.0,0.0
16933,84.0,0.0,15.0,1.0,0.0
16934,75.0,0.0,60.0,4.0,0.0
16935,56.0,60.0,15.0,6.0,0.0
16936,87.0,120.0,60.0,1.0,0.0
16937,78.0,60.0,60.0,2.0,0.0
16938,80.0,0.0,120.0,7.0,0.0
16939,87.0,0.0,60.0,1.0,0.0
16940,90.0,0.0,60.0,1.0,0.0
16941,90.0,0.0,120.0,7.0,0.0
16942,75.0,0.0,60.0,2.0,0.0
16943,78.0,0.0,120.0,8.0,0.0
16944,68.0,0.0,60.0,5.0,0.0
16945,63.0,0.0,60.0,3.0,0.0
16946,56.0,0.0,120.0,11.0,0.0
16947,56.0,0.0,60.0,6.0,0.0
16948,68.0,0.0,120.0,10.0,0.0
16949,75.0,0.0,120.0,10.0,0.0
16950,68.0,120.0,120.0,8.0,0.0
16951,66.0,0.0,60.0,3.0,0.0
16952,90.0,0.0,60.0,0.0,0.0
16953,87.0,0.0,60.0,0.0,0.0
16954,66.0,0.0,60.0,3.0,0.0
16955,90.0,0.0,60.0,1.0,0.0
16956,63.0,0.0,60.0,3.0,0.0
16957,75.0,0.0,15.0,4.0,0.0
16958,68.0,0.0,15.0,4.0,0.0
16959,90.0,0.0,60.0,0.0,0.0
16960,87.0,0.0,60.0,0.0,0.0
16961,56.0,0.0,60.0,6.0,0.0
16962,78.0,0.0,60.0,2.0,0.0
16963,75.0,0.0,60.0,2.0,0.0
16964,68.0,0.0,60.0,5.0,0.0
16965,87.0,0.0,60.0,1.0,0.0
16966,68.0,0.0,60.0,5.0,0.0
16967,80.0,0.0,120.0,7.0,0.0
16968,89.0,0.0,120.0,7.0,0.0
16969,56.0,0.0,60.0,6.0,0.0
16970,85.0,0.0,60.0,0.0,0.0
16971,68.0,0.0,120.0,8.0,0.0
16972,77.0,0.0,120.0,8.0,0.0
16973,85.0,0.0,120.0,8.0,0.0
16974,73.0,0.0,60.0,2.0,0.0
16975,77.0,0.0,60.0,2.0,0.0
16976,56.0,0.0,120.0,11.0,0.0
16977,68.0,0.0,120.0,10.0,0.0
16978,73.0,0.0,120.0,10.0,0.0
16979,89.0,0.0,15.0,1.0,0.0
16980,85.0,0.0,15.0,1.0,0.0
16981,77.0,0.0,15.0,4.0,0.0
16982,73.0,0.0,15.0,4.0,0.0
16983,65.0,0.0,15.0,3.0,0.0
16984,61.0,0.0,15.0,3.0,0.0
16985,56.0,0.0,60.0,6.0,0.0
16986,89.0,60.0,15.0,0.0,0.0
16987,85.0,0.0,60.0,0.0,0.0
16988,68.0,0.0,60.0,5.0,0.0
16989,77.0,0.0,60.0,2.0,0.0
16990,73.0,0.0,60.0,2.0,0.0
16991,85.0,0.0,60.0,1.0,0.0
16992,77.0,0.0,120.0,7.0,0.0
16993,89.0,0.0,60.0,1.0,0.0
16994,56.0,0.0,120.0,11.0,0.0
16995,65.0,0.0,120.0,10.0,0.0
16996,77.0,0.0,120.0,8.0,0.0
16997,68.0,0.0,120.0,8.0,0.0
16998,68.0,0.0,120.0,10.0,0.0
16999,97.0,0.0,60.0,0.0,0.0
17000,61.0,0.0,60.0,3.0,0.0
17001,68.0,0.0,60.0,5.0,0.0
17002,73.0,0.0,60.0,4.0,0.0
17003,77.0,0.0,60.0,4.0,0.0
17004,85.0,0.0,120.0,7.0,0.0
17005,89.0,0.0,60.0,0.0,0.0
17006,77.0,0.0,60.0,4.0,0.0
17007,89.0,360.0,60.0,1.0,0.0
17008,85.0,0.0,60.0,1.0,0.0
17009,73.0,0.0,60.0,4.0,0.0
17010,65.0,0.0,15.0,3.0,0.0
17011,68.0,0.0,60.0,5.0,0.0
17012,97.0,0.0,60.0,0.0,0.0
17013,56.0,0.0,15.0,6.0,0.0
17014,89.0,0.0,60.0,0.0,0.0
17015,61.0,0.0,60.0,3.0,0.0
17016,77.0,0.0,15.0,2.0,0.0
17017,85.0,60.0,15.0,2.0,0.0
17018,58.0,0.0,300.0,10.0,0.0
17019,70.0,60.0,300.0,8.0,0.0
17020,70.0,0.0,300.0,7.0,0.0
17021,46.0,0.0,300.0,11.0,0.0
17022,45.0,300.0,60.0,11.0,0.0
17023,69.0,0.0,60.0,8.0,0.0
17024,57.0,0.0,60.0,10.0,0.0
17025,69.0,0.0,60.0,7.0,0.0
17026,56.0,0.0,300.0,10.0,0.0
17027,68.0,30.0,300.0,7.0,0.0
17028,68.0,0.0,300.0,8.0,0.0
17029,44.0,0.0,300.0,11.0,0.0
17030,92.0,0.0,300.0,0.0,0.0
17031,68.0,0.0,300.0,3.0,0.0
17032,80.0,0.0,300.0,2.0,0.0
17033,46.0,0.0,30.0,11.0,0.0
17034,70.0,0.0,30.0,8.0,0.0
17035,63.0,0.0,60.0,3.0,0.0
17036,75.0,120.0,60.0,2.0,0.0
17037,87.0,0.0,60.0,0.0,0.0
17038,58.0,30.0,30.0,10.0,0.0
17039,70.0,0.0,30.0,7.0,0.0
17040,72.0,0.0,30.0,8.0,0.0
17041,48.0,0.0,30.0,11.0,0.0
17042,60.0,0.0,30.0,10.0,0.0
17043,72.0,0.0,30.0,7.0,0.0
17044,61.0,0.0,780.0,4.0,0.0
17045,73.0,60.0,780.0,4.0,0.0
17046,49.0,0.0,120.0,11.0,0.0
17047,73.0,90.0,180.0,2.0,0.0
17048,73.0,0.0,120.0,8.0,0.0
17049,85.0,0.0,180.0,0.0,0.0
17050,73.0,60.0,120.0,7.0,0.0
17051,61.0,0.0,120.0,10.0,0.0
17052,61.0,0.0,180.0,3.0,0.0
17053,65.0,0.0,90.0,3.0,0.0
17054,89.0,30.0,90.0,0.0,0.0
17055,77.0,0.0,90.0,2.0,0.0
17056,73.0,0.0,15.0,2.0,0.0
17057,85.0,0.0,15.0,0.0,0.0
17058,61.0,0.0,15.0,3.0,0.0
17059,56.0,60.0,30.0,3.0,0.0
17060,68.0,0.0,30.0,2.0,0.0
17061,73.0,0.0,15.0,2.0,0.0
17062,80.0,0.0,15.0,0.0,0.0
17063,85.0,0.0,15.0,0.0,0.0
17064,68.0,0.0,60.0,2.0,0.0
17065,61.0,0.0,60.0,3.0,0.0
17066,56.0,0.0,60.0,3.0,0.0
17067,66.0,0.0,90.0,3.0,0.0
17068,87.0,0.0,90.0,0.0,0.0
17069,63.0,0.0,90.0,3.0,0.0
17070,78.0,0.0,90.0,2.0,0.0
17071,75.0,30.0,90.0,2.0,0.0
17072,90.0,0.0,90.0,0.0,0.0
17073,87.0,0.0,30.0,0.0,0.0
17074,63.0,0.0,30.0,3.0,0.0
17075,80.0,60.0,30.0,0.0,0.0
17076,68.0,0.0,30.0,2.0,0.0
17077,75.0,0.0,30.0,2.0,0.0
17078,68.0,0.0,60.0,2.0,0.0
17079,75.0,0.0,60.0,2.0,0.0
17080,63.0,0.0,60.0,3.0,0.0
17081,56.0,0.0,15.0,3.0,0.0
17082,80.0,0.0,60.0,0.0,0.0
17083,87.0,0.0,60.0,0.0,0.0
17084,65.0,0.0,360.0,3.0,0.0
17085,68.0,0.0,360.0,3.0,0.0
17086,77.0,0.0,360.0,2.0,0.0
17087,92.0,0.0,450.0,0.0,0.0
17088,73.0,0.0,180.0,7.0,0.0
17089,61.0,0.0,180.0,10.0,0.0
17090,61.0,0.0,180.0,8.0,0.0
17091,49.0,0.0,180.0,11.0,0.0
17092,65.0,60.0,60.0,4.0,0.0
17093,77.0,0.0,60.0,4.0,0.0
17094,65.0,60.0,60.0,4.0,0.0
17095,77.0,0.0,60.0,4.0,0.0
17096,80.0,0.0,15.0,2.0,0.0
17097,85.0,0.0,90.0,2.0,0.0
17098,65.0,0.0,180.0,8.0,0.0
17099,53.0,0.0,180.0,11.0,0.0
17100,65.0,0.0,180.0,10.0,0.0
17101,77.0,0.0,180.0,7.0,0.0
17102,68.0,0.0,90.0,3.0,0.0
17103,77.0,0.0,60.0,4.0,0.0
17104,65.0,30.0,60.0,4.0,0.0
17105,65.0,0.0,15.0,3.0,0.0
17106,89.0,30.0,15.0,0.0,0.0
17107,80.0,0.0,30.0,2.0,0.0
17108,68.0,0.0,30.0,3.0,0.0
17109,77.0,0.0,15.0,2.0,0.0
17110,65.0,60.0,15.0,3.0,0.0
17111,92.0,0.0,15.0,0.0,0.0
17112,89.0,0.0,15.0,0.0,0.0
17113,68.0,0.0,15.0,4.0,0.0
17114,80.0,0.0,15.0,4.0,0.0
17115,80.0,60.0,180.0,7.0,0.0
17116,80.0,30.0,60.0,4.0,0.0
17117,68.0,0.0,15.0,3.0,0.0
17118,56.0,0.0,180.0,11.0,0.0
17119,68.0,0.0,180.0,10.0,0.0
17120,65.0,0.0,90.0,3.0,0.0
17121,80.0,0.0,15.0,2.0,0.0
17122,89.0,60.0,15.0,0.0,0.0
17123,92.0,0.0,90.0,0.0,0.0
17124,68.0,0.0,15.0,4.0,0.0
17125,77.0,0.0,15.0,2.0,0.0
17126,73.0,0.0,30.0,2.0,0.0
17127,68.0,0.0,15.0,4.0,0.0
17128,56.0,0.0,15.0,4.0,0.0
17129,61.0,0.0,15.0,3.0,0.0
17130,65.0,60.0,15.0,3.0,0.0
17131,89.0,0.0,15.0,0.0,0.0
17132,85.0,0.0,15.0,0.0,0.0
17133,73.0,0.0,60.0,2.0,0.0
17134,77.0,0.0,60.0,2.0,0.0
17135,65.0,0.0,15.0,3.0,0.0
17136,61.0,0.0,60.0,3.0,0.0
17137,68.0,0.0,15.0,8.0,0.0
17138,73.0,0.0,60.0,2.0,0.0
17139,77.0,60.0,60.0,2.0,0.0
17140,44.0,0.0,180.0,11.0,0.0
17141,56.0,0.0,60.0,4.0,0.0
17142,68.0,0.0,60.0,4.0,0.0
17143,85.0,0.0,60.0,0.0,0.0
17144,56.0,0.0,180.0,10.0,0.0
17145,68.0,0.0,180.0,7.0,0.0
17146,89.0,0.0,60.0,0.0,0.0
17147,56.0,0.0,60.0,4.0,0.0
17148,68.0,0.0,60.0,4.0,0.0
17149,90.0,0.0,60.0,0.0,0.0
17150,66.0,60.0,60.0,3.0,0.0
17151,63.0,0.0,60.0,3.0,0.0
17152,78.0,0.0,60.0,2.0,0.0
17153,75.0,0.0,15.0,2.0,0.0
17154,68.0,0.0,60.0,4.0,0.0
17155,56.0,60.0,60.0,4.0,0.0
17156,72.0,0.0,60.0,2.0,0.0
17157,87.0,0.0,15.0,0.0,0.0
17158,84.0,0.0,60.0,0.0,0.0
17159,60.0,0.0,60.0,3.0,0.0
17160,63.0,0.0,60.0,3.0,0.0
17161,73.0,0.0,180.0,8.0,0.0
17162,85.0,0.0,180.0,8.0,0.0
17163,85.0,0.0,180.0,7.0,0.0
17164,73.0,60.0,60.0,2.0,0.0
17165,73.0,0.0,180.0,10.0,0.0
17166,73.0,0.0,60.0,1.0,0.0
17167,49.0,0.0,180.0,11.0,0.0
17168,49.0,0.0,120.0,6.0,0.0
17169,73.0,0.0,180.0,7.0,0.0
17170,73.0,0.0,120.0,4.0,0.0
17171,61.0,0.0,120.0,4.0,0.0
17172,85.0,0.0,15.0,1.0,0.0
17173,73.0,0.0,60.0,1.0,0.0
17174,85.0,0.0,15.0,0.0,0.0
17175,97.0,0.0,60.0,0.0,0.0
17176,61.0,0.0,15.0,3.0,0.0
17177,85.0,0.0,60.0,2.0,0.0
17178,73.0,0.0,60.0,2.0,0.0
17179,97.0,0.0,60.0,0.0,0.0
17180,73.0,0.0,60.0,2.0,0.0
17181,61.0,60.0,15.0,3.0,0.0
17182,61.0,0.0,15.0,3.0,0.0
17183,61.0,0.0,120.0,4.0,0.0
17184,73.0,0.0,60.0,2.0,0.0
17185,85.0,0.0,15.0,2.0,0.0
17186,89.0,0.0,90.0,7.0,0.0
17187,65.0,0.0,90.0,10.0,0.0
17188,61.0,0.0,15.0,5.0,0.0
17189,97.0,0.0,60.0,0.0,0.0
17190,85.0,60.0,15.0,0.0,0.0
17191,73.0,0.0,120.0,5.0,0.0
17192,73.0,0.0,15.0,1.0,0.0
17193,61.0,0.0,15.0,10.0,0.0
17194,77.0,30.0,90.0,8.0,0.0
17195,85.0,0.0,15.0,1.0,0.0
17196,73.0,0.0,120.0,4.0,0.0
17197,49.0,0.0,120.0,6.0,0.0
17198,73.0,30.0,15.0,1.0,0.0
17199,85.0,0.0,15.0,0.0,0.0
17200,61.0,0.0,15.0,3.0,0.0
17201,61.0,0.0,15.0,11.0,0.0
17202,61.0,0.0,15.0,10.0,0.0
17203,61.0,0.0,15.0,11.0,0.0
17204,85.0,0.0,15.0,0.0,0.0
17205,97.0,0.0,15.0,0.0,0.0
17206,61.0,0.0,60.0,3.0,0.0
17207,85.0,0.0,15.0,7.0,0.0
17208,73.0,0.0,15.0,1.0,0.0
17209,85.0,0.0,15.0,1.0,0.0
17210,73.0,0.0,15.0,8.0,0.0
17211,85.0,0.0,15.0,2.0,0.0
17212,73.0,0.0,15.0,2.0,0.0
17213,61.0,0.0,15.0,10.0,0.0
17214,56.0,60.0,15.0,10.0,0.0
17215,63.0,0.0,90.0,10.0,0.0
17216,66.0,0.0,90.0,10.0,0.0
17217,49.0,60.0,120.0,6.0,0.0
17218,73.0,0.0,120.0,5.0,0.0
17219,61.0,0.0,120.0,5.0,0.0
17220,73.0,0.0,120.0,4.0,0.0
17221,61.0,0.0,120.0,4.0,0.0
17222,78.0,0.0,90.0,8.0,0.0
17223,85.0,0.0,15.0,2.0,0.0
17224,73.0,0.0,15.0,2.0,0.0
17225,90.0,30.0,90.0,7.0,0.0
17226,61.0,60.0,15.0,11.0,0.0
17227,85.0,0.0,15.0,2.0,0.0
17228,61.0,0.0,15.0,3.0,0.0
17229,85.0,0.0,15.0,1.0,0.0
17230,97.0,0.0,15.0,0.0,0.0
17231,73.0,0.0,15.0,1.0,0.0
17232,85.0,30.0,15.0,0.0,0.0
17233,75.0,0.0,30.0,8.0,0.0
17234,87.0,0.0,30.0,7.0,0.0
17235,61.0,0.0,30.0,11.0,0.0
17236,63.0,0.0,30.0,10.0,0.0
17237,75.0,0.0,60.0,8.0,0.0
17238,61.0,0.0,60.0,11.0,0.0
17239,73.0,0.0,15.0,2.0,0.0
17240,85.0,0.0,15.0,2.0,0.0
17241,97.0,0.0,60.0,0.0,0.0
17242,85.0,0.0,60.0,0.0,0.0
17243,85.0,0.0,15.0,1.0,0.0
17244,87.0,60.0,60.0,7.0,0.0
17245,73.0,0.0,15.0,1.0,0.0
17246,56.0,0.0,15.0,10.0,0.0
17247,63.0,0.0,60.0,10.0,0.0
17248,61.0,0.0,90.0,11.0,0.0
17249,61.0,0.0,15.0,3.0,0.0
17250,76.0,0.0,90.0,8.0,0.0
17251,73.0,0.0,120.0,4.0,0.0
17252,92.0,0.0,60.0,0.0,0.0
17253,88.0,0.0,60.0,0.0,0.0
17254,61.0,0.0,120.0,4.0,0.0
17255,49.0,0.0,120.0,6.0,0.0
17256,80.0,0.0,60.0,1.0,0.0
17257,61.0,0.0,120.0,5.0,0.0
17258,73.0,0.0,120.0,5.0,0.0
17259,73.0,30.0,60.0,2.0,0.0
17260,85.0,0.0,60.0,2.0,0.0
17261,64.0,30.0,90.0,10.0,0.0
17262,68.0,0.0,90.0,10.0,0.0
17263,61.0,0.0,60.0,3.0,0.0
17264,88.0,0.0,60.0,1.0,0.0
17265,68.0,0.0,60.0,2.0,0.0
17266,80.0,0.0,60.0,2.0,0.0
17267,64.0,0.0,60.0,3.0,0.0
17268,76.0,0.0,30.0,8.0,0.0
17269,80.0,0.0,15.0,8.0,0.0
17270,92.0,0.0,15.0,7.0,0.0
17271,61.0,0.0,30.0,11.0,0.0
17272,52.0,0.0,30.0,10.0,0.0
17273,64.0,0.0,30.0,10.0,0.0
17274,52.0,0.0,60.0,10.0,0.0
17275,68.0,0.0,60.0,5.0,0.0
17276,76.0,0.0,15.0,1.0,0.0
17277,86.0,0.0,60.0,1.0,0.0
17278,59.0,0.0,60.0,11.0,0.0
17279,56.0,0.0,60.0,6.0,0.0
17280,68.0,0.0,60.0,4.0,0.0
17281,56.0,0.0,60.0,4.0,0.0
17282,59.0,0.0,60.0,3.0,0.0
17283,62.0,0.0,60.0,3.0,0.0
17284,80.0,0.0,60.0,2.0,0.0
17285,68.0,0.0,60.0,2.0,0.0
17286,64.0,0.0,60.0,10.0,0.0
17287,92.0,0.0,15.0,7.0,0.0
17288,92.0,0.0,15.0,0.0,0.0
17289,88.0,60.0,15.0,0.0,0.0
17290,74.0,90.0,60.0,8.0,0.0
17291,80.0,0.0,60.0,8.0,0.0
17292,88.0,0.0,15.0,0.0,0.0
17293,69.0,0.0,120.0,2.0,0.0
17294,81.0,0.0,120.0,2.0,0.0
17295,93.0,0.0,120.0,0.0,0.0
17296,61.0,0.0,90.0,10.0,0.0
17297,57.0,30.0,90.0,11.0,0.0
17298,73.0,0.0,120.0,5.0,0.0
17299,61.0,60.0,120.0,5.0,0.0
17300,69.0,0.0,90.0,10.0,0.0
17301,85.0,0.0,120.0,1.0,0.0
17302,76.0,0.0,120.0,1.0,0.0
17303,61.0,0.0,120.0,3.0,0.0
17304,57.0,0.0,120.0,3.0,0.0
17305,61.0,0.0,120.0,4.0,0.0
17306,73.0,0.0,120.0,4.0,0.0
17307,93.0,0.0,90.0,7.0,0.0
17308,49.0,0.0,120.0,6.0,0.0
17309,81.0,0.0,90.0,8.0,0.0
17310,73.0,0.0,90.0,8.0,0.0
17311,81.0,0.0,30.0,8.0,0.0
17312,69.0,0.0,30.0,11.0,0.0
17313,69.0,0.0,30.0,10.0,0.0
17314,93.0,0.0,30.0,7.0,0.0
17315,64.0,0.0,60.0,10.0,0.0
17316,64.0,0.0,60.0,11.0,0.0
17317,76.0,0.0,60.0,8.0,0.0
17318,88.0,90.0,60.0,7.0,0.0
17319,61.0,0.0,90.0,10.0,0.0
17320,73.0,0.0,90.0,8.0,0.0
17321,85.0,0.0,15.0,7.0,0.0
17322,85.0,0.0,30.0,8.0,0.0
17323,73.0,60.0,30.0,10.0,0.0
17324,61.0,30.0,15.0,11.0,0.0
17325,69.0,90.0,60.0,10.0,0.0
17326,81.0,0.0,60.0,8.0,0.0
17327,81.0,0.0,60.0,7.0,0.0
17328,57.0,0.0,60.0,11.0,0.0
17329,52.0,30.0,90.0,11.0,0.0
17330,64.0,0.0,90.0,10.0,0.0
17331,76.0,0.0,15.0,8.0,0.0
17332,64.0,60.0,30.0,10.0,0.0
17333,76.0,0.0,15.0,7.0,0.0
17334,52.0,0.0,30.0,11.0,0.0
17335,73.0,0.0,60.0,8.0,0.0
17336,73.0,90.0,60.0,7.0,0.0
17337,61.0,0.0,60.0,10.0,0.0
17338,49.0,0.0,60.0,11.0,0.0
17339,45.0,0.0,90.0,11.0,0.0
17340,57.0,0.0,90.0,10.0,0.0
17341,57.0,0.0,30.0,11.0,0.0
17342,69.0,30.0,15.0,8.0,0.0
17343,45.0,0.0,30.0,11.0,0.0
17344,69.0,0.0,15.0,7.0,0.0
17345,57.0,0.0,30.0,10.0,0.0
17346,52.0,0.0,60.0,11.0,0.0
17347,52.0,0.0,60.0,10.0,0.0
17348,64.0,120.0,60.0,8.0,0.0
17349,64.0,0.0,60.0,7.0,0.0
17350,57.0,0.0,120.0,11.0,0.0
17351,45.0,0.0,120.0,11.0,0.0
17352,69.0,180.0,120.0,7.0,0.0
17353,57.0,0.0,120.0,10.0,0.0
17354,69.0,0.0,120.0,8.0,0.0
17355,52.0,0.0,30.0,10.0,0.0
17356,52.0,0.0,30.0,11.0,0.0
17357,64.0,0.0,30.0,8.0,0.0
17358,64.0,0.0,15.0,7.0,0.0
17359,40.0,60.0,15.0,11.0,0.0
17360,52.0,0.0,60.0,11.0,0.0
17361,52.0,120.0,60.0,10.0,0.0
17362,64.0,0.0,60.0,8.0,0.0
17363,45.0,180.0,120.0,11.0,0.0
17364,57.0,0.0,120.0,11.0,0.0
17365,69.0,0.0,120.0,7.0,0.0
17366,69.0,0.0,120.0,8.0,0.0
17367,57.0,0.0,120.0,10.0,0.0
17368,52.0,0.0,30.0,11.0,0.0
17369,76.0,60.0,30.0,0.0,0.0
17370,64.0,0.0,30.0,7.0,0.0
17371,52.0,0.0,30.0,10.0,0.0
17372,64.0,0.0,30.0,3.0,0.0
17373,40.0,0.0,30.0,11.0,0.0
17374,64.0,0.0,30.0,8.0,0.0
17375,40.0,0.0,60.0,11.0,0.0
17376,64.0,0.0,60.0,3.0,0.0
17377,64.0,0.0,60.0,7.0,0.0
17378,52.0,0.0,60.0,10.0,0.0
17379,52.0,0.0,60.0,11.0,0.0
17380,76.0,0.0,60.0,0.0,0.0
17381,64.0,120.0,60.0,8.0,0.0
17382,69.0,0.0,120.0,8.0,0.0
17383,69.0,0.0,120.0,7.0,0.0
17384,69.0,0.0,120.0,3.0,0.0
17385,81.0,0.0,120.0,0.0,0.0
17386,57.0,0.0,120.0,11.0,0.0
17387,45.0,0.0,120.0,11.0,0.0
17388,57.0,360.0,120.0,10.0,0.0
17389,57.0,0.0,120.0,11.0,0.0
17390,57.0,0.0,120.0,10.0,0.0
17391,45.0,0.0,120.0,11.0,0.0
17392,69.0,270.0,120.0,3.0,0.0
17393,69.0,0.0,120.0,7.0,0.0
17394,69.0,0.0,120.0,8.0,0.0
17395,81.0,0.0,120.0,0.0,0.0
17396,78.0,0.0,270.0,7.0,0.0
17397,66.0,0.0,15.0,10.0,0.0
17398,63.0,30.0,15.0,10.0,0.0
17399,69.0,0.0,15.0,8.0,0.0
17400,60.0,0.0,15.0,8.0,0.0
17401,63.0,0.0,30.0,10.0,0.0
17402,69.0,0.0,15.0,8.0,0.0
17403,60.0,0.0,15.0,8.0,0.0
17404,66.0,30.0,15.0,10.0,0.0
17405,69.0,0.0,30.0,8.0,0.0
17406,66.0,0.0,15.0,10.0,0.0
17407,63.0,30.0,15.0,10.0,0.0
17408,60.0,30.0,15.0,8.0,0.0
17409,69.0,0.0,30.0,8.0,0.0
17410,48.0,0.0,30.0,11.0,0.0
17411,66.0,30.0,15.0,10.0,0.0
17412,63.0,0.0,15.0,10.0,0.0
17413,60.0,0.0,15.0,8.0,0.0
17414,49.0,30.0,30.0,11.0,0.0
17415,69.0,0.0,15.0,8.0,0.0
17416,60.0,0.0,30.0,8.0,0.0
17417,66.0,30.0,15.0,10.0,0.0
17418,63.0,0.0,15.0,10.0,0.0
17419,51.0,0.0,120.0,11.0,0.0
17420,66.0,0.0,15.0,10.0,0.0
17421,63.0,0.0,15.0,10.0,0.0
17422,69.0,0.0,15.0,8.0,0.0
17423,60.0,0.0,30.0,8.0,0.0
17424,66.0,0.0,15.0,10.0,0.0
17425,69.0,0.0,30.0,8.0,0.0
17426,63.0,30.0,15.0,10.0,0.0
17427,76.0,30.0,30.0,7.0,0.0
17428,60.0,0.0,15.0,8.0,0.0
17429,63.0,0.0,30.0,10.0,0.0
17430,75.0,0.0,60.0,7.0,0.0
17431,66.0,0.0,30.0,10.0,0.0
17432,69.0,30.0,15.0,8.0,0.0
17433,60.0,0.0,15.0,8.0,0.0
17434,63.0,0.0,30.0,10.0,0.0
17435,60.0,30.0,15.0,8.0,0.0
17436,66.0,0.0,15.0,10.0,0.0
17437,78.0,0.0,270.0,7.0,0.0
17438,63.0,0.0,15.0,10.0,0.0
17439,66.0,0.0,15.0,10.0,0.0
17440,69.0,30.0,15.0,8.0,0.0
17441,60.0,0.0,30.0,8.0,0.0
17442,66.0,0.0,15.0,10.0,0.0
17443,63.0,0.0,15.0,10.0,0.0
17444,69.0,30.0,15.0,8.0,0.0
17445,66.0,0.0,15.0,10.0,0.0
17446,63.0,0.0,15.0,10.0,0.0
17447,60.0,0.0,15.0,8.0,0.0
17448,69.0,0.0,15.0,8.0,0.0
17449,60.0,0.0,15.0,8.0,0.0
17450,63.0,0.0,30.0,10.0,0.0
17451,87.0,0.0,30.0,0.0,0.0
17452,66.0,0.0,15.0,10.0,0.0
17453,63.0,30.0,30.0,10.0,0.0
17454,69.0,0.0,30.0,8.0,0.0
17455,88.0,0.0,30.0,0.0,0.0
17456,60.0,0.0,15.0,8.0,0.0
17457,90.0,0.0,60.0,0.0,0.0
17458,66.0,0.0,30.0,10.0,0.0
17459,63.0,0.0,30.0,10.0,0.0
17460,69.0,0.0,30.0,8.0,0.0
17461,60.0,30.0,15.0,8.0,0.0
17462,63.0,0.0,15.0,10.0,0.0
17463,66.0,0.0,15.0,10.0,0.0
17464,60.0,0.0,15.0,8.0,0.0
17465,69.0,30.0,15.0,8.0,0.0
17466,76.0,0.0,30.0,7.0,0.0
17467,66.0,0.0,15.0,10.0,0.0
17468,69.0,0.0,15.0,8.0,0.0
17469,60.0,30.0,15.0,8.0,0.0
17470,63.0,0.0,30.0,10.0,0.0
17471,69.0,30.0,15.0,8.0,0.0
17472,60.0,0.0,15.0,8.0,0.0
17473,75.0,0.0,60.0,7.0,0.0
17474,66.0,0.0,15.0,10.0,0.0
17475,63.0,0.0,15.0,10.0,0.0
17476,60.0,0.0,30.0,8.0,0.0
17477,66.0,0.0,15.0,10.0,0.0
17478,63.0,0.0,15.0,10.0,0.0
17479,78.0,0.0,270.0,7.0,0.0
17480,69.0,30.0,15.0,8.0,0.0
17481,66.0,0.0,15.0,10.0,0.0
17482,63.0,0.0,15.0,10.0,0.0
17483,60.0,0.0,15.0,8.0,0.0
17484,69.0,0.0,30.0,8.0,0.0
17485,69.0,0.0,30.0,8.0,0.0
17486,63.0,0.0,30.0,10.0,0.0
17487,66.0,0.0,30.0,10.0,0.0
17488,60.0,30.0,30.0,8.0,0.0
17489,63.0,30.0,30.0,10.0,0.0
17490,66.0,0.0,30.0,10.0,0.0
17491,69.0,0.0,30.0,8.0,0.0
17492,60.0,0.0,30.0,8.0,0.0
17493,69.0,0.0,30.0,8.0,0.0
17494,48.0,0.0,30.0,11.0,0.0
17495,66.0,0.0,30.0,10.0,0.0
17496,63.0,30.0,30.0,10.0,0.0
17497,49.0,30.0,30.0,11.0,0.0
17498,60.0,0.0,15.0,8.0,0.0
17499,63.0,0.0,30.0,10.0,0.0
17500,66.0,0.0,30.0,10.0,0.0
17501,69.0,0.0,15.0,8.0,0.0
17502,60.0,0.0,15.0,8.0,0.0
17503,51.0,0.0,120.0,11.0,0.0
17504,66.0,0.0,30.0,10.0,0.0
17505,63.0,0.0,15.0,10.0,0.0
17506,66.0,0.0,30.0,10.0,0.0
17507,60.0,30.0,15.0,8.0,0.0
17508,69.0,0.0,30.0,8.0,0.0
17509,63.0,30.0,15.0,10.0,0.0
17510,69.0,0.0,30.0,8.0,0.0
17511,66.0,0.0,30.0,10.0,0.0
17512,63.0,0.0,30.0,10.0,0.0
17513,76.0,30.0,30.0,7.0,0.0
17514,60.0,30.0,15.0,8.0,0.0
17515,69.0,0.0,30.0,8.0,0.0
17516,66.0,0.0,15.0,10.0,0.0
17517,75.0,0.0,60.0,7.0,0.0
17518,69.0,0.0,30.0,8.0,0.0
17519,60.0,0.0,15.0,8.0,0.0
17520,63.0,30.0,15.0,10.0,0.0
17521,69.0,0.0,15.0,8.0,0.0
17522,60.0,0.0,15.0,8.0,0.0
17523,78.0,0.0,270.0,7.0,0.0
17524,66.0,30.0,15.0,10.0,0.0
17525,63.0,0.0,15.0,10.0,0.0
17526,66.0,0.0,15.0,10.0,0.0
17527,60.0,30.0,15.0,8.0,0.0
17528,69.0,0.0,15.0,8.0,0.0
17529,60.0,0.0,30.0,8.0,0.0
17530,66.0,0.0,15.0,10.0,0.0
17531,63.0,30.0,15.0,10.0,0.0
17532,66.0,30.0,15.0,10.0,0.0
17533,63.0,0.0,15.0,10.0,0.0
17534,63.0,0.0,15.0,10.0,0.0
17535,66.0,30.0,15.0,10.0,0.0
17536,87.0,30.0,30.0,0.0,0.0
17537,69.0,0.0,15.0,8.0,0.0
17538,60.0,0.0,15.0,8.0,0.0
17539,66.0,0.0,15.0,10.0,0.0
17540,63.0,0.0,15.0,10.0,0.0
17541,60.0,0.0,30.0,8.0,0.0
17542,69.0,0.0,30.0,8.0,0.0
17543,88.0,30.0,30.0,0.0,0.0
17544,66.0,0.0,15.0,10.0,0.0
17545,63.0,0.0,15.0,10.0,0.0
17546,90.0,0.0,120.0,0.0,0.0
17547,69.0,0.0,30.0,8.0,0.0
17548,60.0,30.0,30.0,8.0,0.0
17549,66.0,0.0,15.0,10.0,0.0
17550,63.0,0.0,15.0,10.0,0.0
17551,69.0,0.0,30.0,8.0,0.0
17552,60.0,0.0,30.0,8.0,0.0
17553,63.0,30.0,15.0,10.0,0.0
17554,69.0,0.0,30.0,8.0,0.0
17555,66.0,0.0,30.0,10.0,0.0
17556,69.0,0.0,30.0,8.0,0.0
17557,60.0,0.0,15.0,8.0,0.0
17558,76.0,30.0,30.0,7.0,0.0
17559,63.0,0.0,30.0,10.0,0.0
17560,66.0,0.0,30.0,10.0,0.0
17561,75.0,0.0,60.0,7.0,0.0
17562,60.0,0.0,30.0,8.0,0.0
17563,69.0,0.0,30.0,8.0,0.0
17564,66.0,0.0,30.0,10.0,0.0
17565,60.0,0.0,30.0,8.0,0.0
17566,69.0,30.0,30.0,8.0,0.0
17567,63.0,30.0,15.0,10.0,0.0
17568,66.0,0.0,30.0,10.0,0.0
17569,60.0,30.0,30.0,8.0,0.0
17570,78.0,0.0,270.0,7.0,0.0
17571,63.0,0.0,30.0,10.0,0.0
17572,66.0,0.0,30.0,10.0,0.0
17573,68.0,0.0,15.0,8.0,0.0
17574,66.0,30.0,30.0,10.0,0.0
17575,68.0,0.0,30.0,8.0,0.0
17576,68.0,30.0,30.0,8.0,0.0
17577,66.0,30.0,15.0,10.0,0.0
17578,63.0,0.0,30.0,10.0,0.0
17579,68.0,0.0,30.0,8.0,0.0
17580,87.0,0.0,30.0,0.0,0.0
17581,48.0,30.0,30.0,11.0,0.0
17582,89.0,0.0,30.0,0.0,0.0
17583,65.0,0.0,30.0,10.0,0.0
17584,49.0,0.0,30.0,11.0,0.0
17585,90.0,0.0,120.0,0.0,0.0
17586,51.0,30.0,60.0,11.0,0.0
17587,66.0,0.0,30.0,10.0,0.0
17588,68.0,30.0,15.0,8.0,0.0
17589,78.0,0.0,30.0,8.0,0.0
17590,66.0,0.0,15.0,10.0,0.0
17591,77.0,0.0,30.0,7.0,0.0
17592,78.0,30.0,15.0,8.0,0.0
17593,75.0,30.0,60.0,7.0,0.0
17594,66.0,30.0,15.0,10.0,0.0
17595,77.0,0.0,30.0,8.0,0.0
17596,49.0,30.0,30.0,11.0,0.0
17597,66.0,0.0,15.0,10.0,0.0
17598,78.0,0.0,30.0,8.0,0.0
17599,51.0,0.0,30.0,11.0,0.0
17600,66.0,0.0,15.0,10.0,0.0
17601,53.0,0.0,60.0,11.0,0.0
17602,80.0,30.0,30.0,8.0,0.0
17603,80.0,30.0,270.0,7.0,0.0
17604,68.0,0.0,30.0,8.0,0.0
17605,68.0,30.0,30.0,8.0,0.0
17606,65.0,30.0,15.0,10.0,0.0
17607,65.0,0.0,30.0,10.0,0.0
17608,68.0,30.0,30.0,8.0,0.0
17609,77.0,30.0,30.0,1.0,0.0
17610,66.0,0.0,30.0,10.0,0.0
17611,49.0,0.0,30.0,11.0,0.0
17612,68.0,0.0,30.0,8.0,0.0
17613,68.0,0.0,30.0,8.0,0.0
17614,78.0,30.0,30.0,1.0,0.0
17615,51.0,0.0,30.0,11.0,0.0
17616,68.0,0.0,30.0,10.0,0.0
17617,53.0,0.0,60.0,11.0,0.0
17618,68.0,0.0,30.0,8.0,0.0
17619,80.0,0.0,120.0,1.0,0.0
17620,68.0,30.0,15.0,10.0,0.0
17621,68.0,0.0,15.0,10.0,0.0
17622,80.0,30.0,15.0,8.0,0.0
17623,80.0,0.0,15.0,8.0,0.0
17624,68.0,0.0,15.0,10.0,0.0
17625,78.0,0.0,30.0,7.0,0.0
17626,68.0,30.0,15.0,10.0,0.0
17627,51.0,30.0,30.0,11.0,0.0
17628,78.0,0.0,30.0,8.0,0.0
17629,77.0,0.0,60.0,7.0,0.0
17630,80.0,0.0,30.0,8.0,0.0
17631,53.0,30.0,30.0,11.0,0.0
17632,68.0,0.0,15.0,10.0,0.0
17633,82.0,0.0,270.0,7.0,0.0
17634,82.0,0.0,30.0,8.0,0.0
17635,54.0,30.0,60.0,11.0,0.0
17636,66.0,0.0,30.0,10.0,0.0
17637,70.0,0.0,15.0,8.0,0.0
17638,70.0,0.0,15.0,8.0,0.0
17639,66.0,30.0,15.0,10.0,0.0
17640,51.0,30.0,30.0,11.0,0.0
17641,66.0,0.0,30.0,10.0,0.0
17642,66.0,0.0,30.0,3.0,0.0
17643,68.0,0.0,30.0,3.0,0.0
17644,70.0,0.0,15.0,8.0,0.0
17645,68.0,30.0,30.0,10.0,0.0
17646,53.0,0.0,30.0,11.0,0.0
17647,70.0,0.0,120.0,3.0,0.0
17648,54.0,0.0,60.0,11.0,0.0
17649,70.0,0.0,15.0,8.0,0.0
17650,70.0,30.0,15.0,10.0,0.0
17651,82.0,30.0,15.0,8.0,0.0
17652,70.0,30.0,30.0,10.0,0.0
17653,82.0,0.0,15.0,8.0,0.0
17654,80.0,0.0,30.0,7.0,0.0
17655,80.0,30.0,30.0,8.0,0.0
17656,70.0,30.0,15.0,10.0,0.0
17657,53.0,0.0,30.0,11.0,0.0
17658,78.0,30.0,60.0,7.0,0.0
17659,54.0,0.0,30.0,11.0,0.0
17660,70.0,0.0,30.0,10.0,0.0
17661,82.0,0.0,30.0,8.0,0.0
17662,84.0,0.0,270.0,7.0,0.0
17663,70.0,30.0,30.0,10.0,0.0
17664,56.0,0.0,60.0,11.0,0.0
17665,84.0,0.0,30.0,8.0,0.0
17666,68.0,0.0,30.0,10.0,0.0
17667,68.0,30.0,30.0,10.0,0.0
17668,72.0,30.0,15.0,8.0,0.0
17669,68.0,30.0,30.0,10.0,0.0
17670,53.0,0.0,30.0,11.0,0.0
17671,72.0,0.0,15.0,8.0,0.0
17672,80.0,30.0,30.0,2.0,0.0
17673,68.0,0.0,30.0,10.0,0.0
17674,70.0,30.0,30.0,10.0,0.0
17675,54.0,0.0,30.0,11.0,0.0
17676,72.0,0.0,30.0,8.0,0.0
17677,82.0,0.0,30.0,2.0,0.0
17678,84.0,0.0,120.0,2.0,0.0
17679,56.0,0.0,60.0,11.0,0.0
17680,72.0,30.0,30.0,8.0,0.0
17681,72.0,0.0,30.0,10.0,0.0
17682,84.0,0.0,30.0,8.0,0.0
17683,72.0,30.0,30.0,10.0,0.0
17684,84.0,30.0,30.0,8.0,0.0
17685,72.0,0.0,30.0,10.0,0.0
17686,82.0,0.0,30.0,7.0,0.0
17687,84.0,30.0,30.0,8.0,0.0
17688,72.0,0.0,15.0,10.0,0.0
17689,80.0,0.0,60.0,7.0,0.0
17690,54.0,0.0,30.0,11.0,0.0
17691,82.0,30.0,30.0,8.0,0.0
17692,56.0,0.0,30.0,11.0,0.0
17693,72.0,30.0,30.0,10.0,0.0
17694,84.0,0.0,30.0,8.0,0.0
17695,85.0,0.0,270.0,7.0,0.0
17696,58.0,0.0,60.0,11.0,0.0
17697,85.0,30.0,30.0,8.0,0.0
17698,72.0,0.0,30.0,10.0,0.0
17699,73.0,30.0,30.0,8.0,0.0
17700,70.0,0.0,15.0,10.0,0.0
17701,73.0,30.0,30.0,8.0,0.0
17702,82.0,0.0,30.0,1.0,0.0
17703,73.0,30.0,15.0,8.0,0.0
17704,54.0,0.0,30.0,11.0,0.0
17705,70.0,0.0,15.0,10.0,0.0
17706,73.0,30.0,15.0,8.0,0.0
17707,72.0,0.0,30.0,10.0,0.0
17708,84.0,0.0,30.0,1.0,0.0
17709,56.0,30.0,30.0,11.0,0.0
17710,85.0,0.0,120.0,1.0,0.0
17711,73.0,0.0,30.0,10.0,0.0
17712,73.0,0.0,15.0,8.0,0.0
17713,58.0,0.0,60.0,11.0,0.0
17714,85.0,30.0,15.0,8.0,0.0
17715,73.0,0.0,15.0,10.0,0.0
17716,73.0,30.0,15.0,10.0,0.0
17717,84.0,0.0,30.0,7.0,0.0
17718,85.0,0.0,30.0,8.0,0.0
17719,56.0,0.0,30.0,11.0,0.0
17720,84.0,30.0,30.0,8.0,0.0
17721,82.0,0.0,60.0,7.0,0.0
17722,73.0,30.0,15.0,10.0,0.0
17723,85.0,0.0,30.0,8.0,0.0
17724,73.0,0.0,30.0,10.0,0.0
17725,58.0,30.0,30.0,11.0,0.0
17726,87.0,0.0,270.0,7.0,0.0
17727,73.0,0.0,30.0,10.0,0.0
17728,60.0,0.0,60.0,11.0,0.0
17729,87.0,30.0,30.0,8.0,0.0
17730,75.0,0.0,30.0,8.0,0.0
17731,75.0,30.0,30.0,8.0,0.0
17732,72.0,30.0,15.0,10.0,0.0
17733,72.0,0.0,15.0,10.0,0.0
17734,75.0,0.0,15.0,8.0,0.0
17735,84.0,0.0,30.0,0.0,0.0
17736,56.0,0.0,30.0,11.0,0.0
17737,72.0,30.0,15.0,10.0,0.0
17738,85.0,0.0,30.0,0.0,0.0
17739,75.0,0.0,15.0,8.0,0.0
17740,58.0,30.0,30.0,11.0,0.0
17741,73.0,0.0,30.0,10.0,0.0
17742,75.0,0.0,30.0,10.0,0.0
17743,75.0,30.0,30.0,8.0,0.0
17744,87.0,30.0,60.0,0.0,0.0
17745,60.0,0.0,60.0,11.0,0.0
17746,75.0,0.0,30.0,10.0,0.0
17747,87.0,0.0,30.0,8.0,0.0
17748,75.0,30.0,30.0,10.0,0.0
17749,87.0,0.0,30.0,8.0,0.0
17750,85.0,30.0,30.0,7.0,0.0
17751,87.0,0.0,30.0,8.0,0.0
17752,75.0,0.0,15.0,10.0,0.0
17753,58.0,30.0,30.0,11.0,0.0
17754,58.0,0.0,30.0,3.0,0.0
17755,61.0,0.0,30.0,3.0,0.0
17756,85.0,0.0,30.0,0.0,0.0
17757,84.0,0.0,60.0,7.0,0.0
17758,73.0,0.0,30.0,2.0,0.0
17759,85.0,0.0,30.0,8.0,0.0
17760,60.0,0.0,30.0,3.0,0.0
17761,63.0,0.0,30.0,3.0,0.0
17762,87.0,30.0,30.0,0.0,0.0
17763,75.0,0.0,30.0,2.0,0.0
17764,87.0,0.0,30.0,8.0,0.0
17765,60.0,0.0,30.0,11.0,0.0
17766,75.0,0.0,30.0,10.0,0.0
17767,73.0,0.0,540.0,2.0,0.0
17768,61.0,0.0,540.0,4.0,0.0
17769,89.0,0.0,30.0,8.0,0.0
17770,80.0,0.0,540.0,1.0,0.0
17771,77.0,0.0,540.0,2.0,0.0
17772,85.0,0.0,540.0,1.0,0.0
17773,73.0,0.0,540.0,4.0,0.0
17774,61.0,30.0,90.0,11.0,0.0
17775,73.0,0.0,30.0,10.0,0.0
17776,89.0,30.0,30.0,7.0,0.0
17777,61.0,0.0,120.0,5.0,0.0
17778,49.0,0.0,120.0,6.0,0.0
17779,77.0,0.0,30.0,10.0,0.0
17780,85.0,0.0,15.0,8.0,0.0
17781,89.0,0.0,15.0,7.0,0.0
17782,73.0,0.0,15.0,10.0,0.0
17783,77.0,30.0,15.0,8.0,0.0
17784,89.0,0.0,15.0,7.0,0.0
17785,73.0,0.0,15.0,10.0,0.0
17786,77.0,0.0,15.0,10.0,0.0
17787,73.0,0.0,30.0,11.0,0.0
17788,68.0,0.0,60.0,11.0,0.0
17789,89.0,30.0,30.0,7.0,0.0
17790,77.0,0.0,15.0,10.0,0.0
17791,85.0,0.0,15.0,8.0,0.0
17792,77.0,30.0,15.0,8.0,0.0
17793,73.0,0.0,30.0,10.0,0.0
17794,77.0,0.0,15.0,8.0,0.0
17795,89.0,0.0,30.0,7.0,0.0
17796,77.0,0.0,30.0,10.0,0.0
17797,85.0,0.0,30.0,8.0,0.0
17798,77.0,0.0,30.0,8.0,0.0
17799,65.0,0.0,90.0,11.0,0.0
17800,73.0,30.0,15.0,10.0,0.0
17801,89.0,30.0,15.0,7.0,0.0
17802,77.0,0.0,15.0,10.0,0.0
17803,73.0,0.0,15.0,10.0,0.0
17804,85.0,0.0,15.0,8.0,0.0
17805,77.0,0.0,15.0,10.0,0.0
17806,77.0,0.0,15.0,8.0,0.0
17807,85.0,30.0,15.0,8.0,0.0
17808,77.0,0.0,15.0,8.0,0.0
17809,77.0,0.0,30.0,10.0,0.0
17810,65.0,0.0,30.0,11.0,0.0
17811,73.0,30.0,15.0,10.0,0.0
17812,89.0,0.0,15.0,7.0,0.0
17813,85.0,0.0,30.0,8.0,0.0
17814,73.0,0.0,15.0,10.0,0.0
17815,77.0,0.0,15.0,8.0,0.0
17816,61.0,30.0,60.0,11.0,0.0
17817,89.0,0.0,30.0,7.0,0.0
17818,77.0,0.0,30.0,10.0,0.0
17819,85.0,30.0,15.0,8.0,0.0
17820,89.0,0.0,30.0,7.0,0.0
17821,77.0,0.0,15.0,8.0,0.0
17822,77.0,0.0,30.0,10.0,0.0
17823,73.0,0.0,15.0,10.0,0.0
17824,77.0,0.0,15.0,8.0,0.0
17825,85.0,0.0,15.0,8.0,0.0
17826,89.0,0.0,30.0,7.0,0.0
17827,73.0,0.0,15.0,10.0,0.0
17828,77.0,0.0,15.0,10.0,0.0
17829,77.0,0.0,30.0,8.0,0.0
17830,89.0,0.0,30.0,7.0,0.0
17831,85.0,0.0,15.0,8.0,0.0
17832,89.0,0.0,30.0,7.0,0.0
17833,77.0,0.0,30.0,8.0,0.0
17834,77.0,0.0,30.0,10.0,0.0
17835,56.0,0.0,15.0,11.0,0.0
17836,77.0,0.0,30.0,10.0,0.0
17837,73.0,30.0,15.0,10.0,0.0
17838,77.0,30.0,30.0,8.0,0.0
17839,85.0,0.0,30.0,8.0,0.0
17840,89.0,0.0,15.0,7.0,0.0
17841,53.0,0.0,60.0,11.0,0.0
17842,77.0,30.0,30.0,10.0,0.0
17843,77.0,0.0,15.0,8.0,0.0
17844,85.0,0.0,15.0,8.0,0.0
17845,73.0,0.0,15.0,10.0,0.0
17846,89.0,30.0,30.0,7.0,0.0
17847,85.0,0.0,15.0,8.0,0.0
17848,73.0,0.0,15.0,10.0,0.0
17849,77.0,0.0,15.0,10.0,0.0
17850,49.0,30.0,120.0,11.0,0.0
17851,65.0,0.0,15.0,3.0,0.0
17852,61.0,0.0,15.0,3.0,0.0
17853,77.0,0.0,90.0,2.0,0.0
17854,49.0,0.0,90.0,6.0,0.0
17855,89.0,0.0,15.0,0.0,0.0
17856,61.0,0.0,90.0,5.0,0.0
17857,80.0,0.0,90.0,1.0,0.0
17858,89.0,0.0,30.0,7.0,0.0
17859,73.0,0.0,90.0,2.0,0.0
17860,89.0,0.0,30.0,7.0,0.0
17861,77.0,0.0,15.0,10.0,0.0
17862,73.0,0.0,30.0,10.0,0.0
17863,85.0,30.0,15.0,8.0,0.0
17864,77.0,0.0,15.0,8.0,0.0
17865,85.0,0.0,15.0,8.0,0.0
17866,73.0,0.0,30.0,10.0,0.0
17867,89.0,0.0,30.0,7.0,0.0
17868,77.0,0.0,30.0,8.0,0.0
17869,77.0,0.0,15.0,10.0,0.0
17870,85.0,0.0,15.0,8.0,0.0
17871,80.0,0.0,30.0,1.0,0.0
17872,85.0,0.0,15.0,1.0,0.0
17873,49.0,0.0,30.0,6.0,0.0
17874,61.0,0.0,15.0,4.0,0.0
17875,65.0,0.0,15.0,3.0,0.0
17876,61.0,0.0,15.0,3.0,0.0
17877,73.0,0.0,15.0,4.0,0.0
17878,92.0,0.0,15.0,0.0,0.0
17879,89.0,30.0,15.0,0.0,0.0
17880,77.0,0.0,30.0,2.0,0.0
17881,89.0,0.0,15.0,7.0,0.0
17882,77.0,0.0,30.0,10.0,0.0
17883,77.0,0.0,15.0,8.0,0.0
17884,85.0,0.0,15.0,8.0,0.0
17885,80.0,30.0,60.0,1.0,0.0
17886,77.0,0.0,60.0,2.0,0.0
17887,73.0,0.0,15.0,10.0,0.0
17888,73.0,0.0,15.0,2.0,0.0
17889,65.0,0.0,15.0,3.0,0.0
17890,73.0,0.0,15.0,4.0,0.0
17891,61.0,0.0,15.0,5.0,0.0
17892,89.0,0.0,60.0,0.0,0.0
17893,92.0,0.0,60.0,0.0,0.0
17894,61.0,0.0,15.0,4.0,0.0
17895,77.0,0.0,15.0,8.0,0.0
17896,73.0,0.0,30.0,10.0,0.0
17897,89.0,0.0,30.0,7.0,0.0
17898,85.0,0.0,30.0,8.0,0.0
17899,77.0,0.0,30.0,10.0,0.0
17900,85.0,0.0,30.0,8.0,0.0
17901,49.0,0.0,15.0,6.0,0.0
17902,75.0,0.0,30.0,8.0,0.0
17903,75.0,0.0,540.0,2.0,0.0
17904,63.0,0.0,540.0,3.0,0.0
17905,61.0,0.0,15.0,3.0,0.0
17906,82.0,0.0,540.0,1.0,0.0
17907,85.0,0.0,15.0,1.0,0.0
17908,58.0,0.0,540.0,5.0,0.0
17909,70.0,0.0,540.0,5.0,0.0
17910,42.0,0.0,90.0,11.0,0.0
17911,73.0,0.0,540.0,2.0,0.0
17912,70.0,0.0,30.0,10.0,0.0
17913,78.0,0.0,30.0,10.0,0.0
17914,73.0,0.0,30.0,10.0,0.0
17915,75.0,0.0,30.0,8.0,0.0
17916,87.0,30.0,15.0,7.0,0.0
17917,70.0,0.0,30.0,10.0,0.0
17918,85.0,30.0,15.0,8.0,0.0
17919,70.0,0.0,30.0,10.0,0.0
17920,87.0,0.0,15.0,7.0,0.0
17921,73.0,30.0,15.0,10.0,0.0
17922,66.0,0.0,30.0,11.0,0.0
17923,85.0,0.0,15.0,8.0,0.0
17924,75.0,0.0,15.0,8.0,0.0
17925,87.0,0.0,15.0,7.0,0.0
17926,61.0,0.0,60.0,11.0,0.0
17927,70.0,0.0,15.0,10.0,0.0
17928,73.0,30.0,15.0,10.0,0.0
17929,85.0,0.0,15.0,8.0,0.0
17930,85.0,0.0,15.0,8.0,0.0
17931,73.0,30.0,15.0,10.0,0.0
17932,75.0,0.0,15.0,8.0,0.0
17933,87.0,0.0,15.0,7.0,0.0
17934,70.0,0.0,15.0,10.0,0.0
17935,73.0,0.0,15.0,10.0,0.0
17936,58.0,0.0,90.0,11.0,0.0
17937,85.0,30.0,15.0,8.0,0.0
17938,75.0,0.0,15.0,8.0,0.0
17939,70.0,0.0,15.0,10.0,0.0
17940,87.0,0.0,15.0,7.0,0.0
17941,85.0,0.0,30.0,8.0,0.0
17942,75.0,0.0,30.0,8.0,0.0
17943,87.0,0.0,15.0,7.0,0.0
17944,73.0,0.0,15.0,10.0,0.0
17945,70.0,30.0,15.0,10.0,0.0
17946,87.0,0.0,15.0,7.0,0.0
17947,70.0,0.0,15.0,10.0,0.0
17948,58.0,0.0,30.0,11.0,0.0
17949,73.0,30.0,15.0,10.0,0.0
17950,75.0,0.0,15.0,8.0,0.0
17951,85.0,0.0,15.0,8.0,0.0
17952,54.0,0.0,60.0,11.0,0.0
17953,85.0,30.0,15.0,8.0,0.0
17954,75.0,0.0,15.0,8.0,0.0
17955,70.0,0.0,15.0,10.0,0.0
17956,87.0,0.0,15.0,7.0,0.0
17957,70.0,0.0,15.0,10.0,0.0
17958,73.0,0.0,15.0,10.0,0.0
17959,87.0,30.0,15.0,7.0,0.0
17960,75.0,0.0,30.0,8.0,0.0
17961,70.0,0.0,15.0,10.0,0.0
17962,73.0,0.0,15.0,10.0,0.0
17963,87.0,0.0,15.0,7.0,0.0
17964,85.0,30.0,15.0,8.0,0.0
17965,70.0,0.0,15.0,10.0,0.0
17966,73.0,30.0,15.0,10.0,0.0
17967,75.0,0.0,15.0,8.0,0.0
17968,85.0,0.0,15.0,8.0,0.0
17969,87.0,0.0,15.0,7.0,0.0
17970,70.0,30.0,15.0,10.0,0.0
17971,73.0,0.0,15.0,10.0,0.0
17972,75.0,0.0,30.0,8.0,0.0
17973,85.0,0.0,30.0,8.0,0.0
17974,87.0,0.0,30.0,7.0,0.0
17975,49.0,30.0,15.0,11.0,0.0
17976,85.0,0.0,30.0,8.0,0.0
17977,87.0,0.0,30.0,7.0,0.0
17978,46.0,0.0,60.0,11.0,0.0
17979,75.0,0.0,15.0,8.0,0.0
17980,85.0,0.0,30.0,8.0,0.0
17981,70.0,30.0,15.0,10.0,0.0
17982,73.0,0.0,15.0,10.0,0.0
17983,87.0,0.0,15.0,7.0,0.0
17984,70.0,0.0,15.0,10.0,0.0
17985,73.0,30.0,15.0,10.0,0.0
17986,75.0,0.0,30.0,8.0,0.0
17987,42.0,0.0,120.0,11.0,0.0
17988,73.0,0.0,15.0,10.0,0.0
17989,73.0,0.0,15.0,4.0,0.0
17990,94.0,0.0,15.0,0.0,0.0
17991,87.0,0.0,15.0,0.0,0.0
17992,70.0,0.0,30.0,10.0,0.0
17993,61.0,0.0,15.0,4.0,0.0
17994,73.0,0.0,90.0,2.0,0.0
17995,75.0,0.0,30.0,8.0,0.0
17996,85.0,30.0,15.0,8.0,0.0
17997,82.0,0.0,90.0,1.0,0.0
17998,61.0,0.0,90.0,3.0,0.0
17999,63.0,0.0,90.0,3.0,0.0
18000,85.0,0.0,15.0,1.0,0.0
18001,87.0,0.0,30.0,7.0,0.0
18002,73.0,0.0,30.0,10.0,0.0
18003,70.0,0.0,30.0,10.0,0.0
18004,87.0,0.0,30.0,7.0,0.0
18005,85.0,30.0,15.0,8.0,0.0
18006,75.0,0.0,15.0,8.0,0.0
18007,73.0,0.0,30.0,10.0,0.0
18008,70.0,0.0,30.0,10.0,0.0
18009,87.0,0.0,30.0,7.0,0.0
18010,75.0,0.0,30.0,8.0,0.0
18011,85.0,0.0,15.0,8.0,0.0
18012,87.0,0.0,30.0,7.0,0.0
18013,87.0,0.0,30.0,0.0,0.0
18014,49.0,0.0,15.0,6.0,0.0
18015,61.0,0.0,30.0,3.0,0.0
18016,63.0,0.0,30.0,3.0,0.0
18017,73.0,0.0,30.0,10.0,0.0
18018,70.0,0.0,15.0,5.0,0.0
18019,94.0,0.0,30.0,0.0,0.0
18020,75.0,0.0,15.0,2.0,0.0
18021,58.0,30.0,15.0,5.0,0.0
18022,70.0,0.0,15.0,10.0,0.0
18023,87.0,0.0,60.0,0.0,0.0
18024,94.0,0.0,60.0,0.0,0.0
18025,49.0,0.0,15.0,6.0,0.0
18026,73.0,0.0,15.0,4.0,0.0
18027,61.0,0.0,15.0,4.0,0.0
18028,63.0,0.0,60.0,3.0,0.0
18029,73.0,0.0,15.0,2.0,0.0
18030,75.0,0.0,60.0,2.0,0.0
18031,61.0,0.0,60.0,3.0,0.0
18032,82.0,0.0,15.0,1.0,0.0
18033,58.0,30.0,15.0,5.0,0.0
18034,70.0,0.0,60.0,5.0,0.0
18035,85.0,0.0,15.0,1.0,0.0
18036,75.0,0.0,30.0,8.0,0.0
18037,85.0,0.0,30.0,8.0,0.0
18038,87.0,0.0,15.0,7.0,0.0
18039,70.0,0.0,15.0,10.0,0.0
18040,73.0,30.0,15.0,10.0,0.0
18041,75.0,0.0,30.0,8.0,0.0
18042,85.0,0.0,30.0,8.0,0.0
18043,57.0,0.0,30.0,10.0,0.0
18044,86.0,0.0,180.0,1.0,0.0
18045,74.0,30.0,180.0,2.0,0.0
18046,62.0,30.0,30.0,7.0,0.0
18047,62.0,0.0,180.0,3.0,0.0
18048,42.0,0.0,30.0,11.0,0.0
18049,62.0,0.0,30.0,7.0,0.0
18050,57.0,30.0,30.0,10.0,0.0
18051,42.0,0.0,15.0,11.0,0.0
18052,62.0,0.0,30.0,7.0,0.0
18053,57.0,30.0,15.0,10.0,0.0
18054,42.0,0.0,15.0,11.0,0.0
18055,62.0,0.0,30.0,7.0,0.0
18056,57.0,30.0,15.0,10.0,0.0
18057,62.0,0.0,15.0,7.0,0.0
18058,57.0,0.0,30.0,10.0,0.0
18059,42.0,30.0,15.0,11.0,0.0
18060,93.0,0.0,180.0,0.0,0.0
18061,57.0,0.0,180.0,3.0,0.0
18062,62.0,0.0,30.0,7.0,0.0
18063,81.0,0.0,180.0,1.0,0.0
18064,69.0,0.0,180.0,2.0,0.0
18065,57.0,0.0,30.0,10.0,0.0
18066,57.0,0.0,30.0,10.0,0.0
18067,42.0,30.0,15.0,11.0,0.0
18068,62.0,30.0,15.0,7.0,0.0
18069,57.0,30.0,15.0,10.0,0.0
18070,62.0,0.0,30.0,7.0,0.0
18071,42.0,0.0,15.0,11.0,0.0
18072,42.0,0.0,15.0,11.0,0.0
18073,62.0,0.0,30.0,7.0,0.0
18074,57.0,30.0,15.0,10.0,0.0
18075,42.0,0.0,15.0,11.0,0.0
18076,62.0,30.0,30.0,7.0,0.0
18077,57.0,30.0,15.0,10.0,0.0
18078,72.0,30.0,180.0,2.0,0.0
18079,44.0,30.0,30.0,11.0,0.0
18080,60.0,0.0,180.0,3.0,0.0
18081,56.0,0.0,360.0,4.0,0.0
18082,68.0,0.0,360.0,4.0,0.0
18083,84.0,0.0,180.0,0.0,0.0
18084,60.0,0.0,30.0,7.0,0.0
18085,56.0,0.0,30.0,10.0,0.0
18086,68.0,30.0,30.0,7.0,0.0
18087,60.0,0.0,30.0,10.0,0.0
18088,44.0,0.0,30.0,11.0,0.0
18089,60.0,0.0,30.0,10.0,0.0
18090,80.0,0.0,30.0,7.0,0.0
18091,68.0,0.0,15.0,8.0,0.0
18092,44.0,30.0,15.0,11.0,0.0
18093,60.0,30.0,15.0,10.0,0.0
18094,68.0,0.0,30.0,8.0,0.0
18095,80.0,0.0,15.0,7.0,0.0
18096,44.0,30.0,15.0,11.0,0.0
18097,60.0,0.0,30.0,10.0,0.0
18098,80.0,0.0,15.0,7.0,0.0
18099,92.0,0.0,180.0,0.0,0.0
18100,68.0,0.0,15.0,8.0,0.0
18101,68.0,30.0,180.0,3.0,0.0
18102,80.0,0.0,180.0,2.0,0.0
18103,60.0,0.0,30.0,10.0,0.0
18104,44.0,30.0,30.0,11.0,0.0
18105,80.0,0.0,15.0,7.0,0.0
18106,68.0,30.0,30.0,8.0,0.0
18107,56.0,0.0,30.0,11.0,0.0
18108,60.0,0.0,30.0,10.0,0.0
18109,70.0,0.0,30.0,8.0,0.0
18110,56.0,0.0,30.0,11.0,0.0
18111,61.0,30.0,30.0,10.0,0.0
18112,82.0,0.0,30.0,7.0,0.0
18113,72.0,0.0,30.0,8.0,0.0
18114,84.0,0.0,30.0,7.0,0.0
18115,63.0,0.0,30.0,10.0,0.0
18116,54.0,30.0,30.0,11.0,0.0
18117,65.0,0.0,30.0,10.0,0.0
18118,85.0,30.0,30.0,7.0,0.0
18119,73.0,0.0,30.0,8.0,0.0
18120,53.0,0.0,30.0,11.0,0.0
18121,66.0,0.0,30.0,10.0,0.0
18122,75.0,0.0,30.0,8.0,0.0
18123,51.0,0.0,30.0,11.0,0.0
18124,87.0,0.0,30.0,7.0,0.0
18125,77.0,0.0,30.0,8.0,0.0
18126,49.0,0.0,90.0,11.0,0.0
18127,73.0,0.0,540.0,4.0,0.0
18128,61.0,0.0,540.0,4.0,0.0
18129,80.0,0.0,15.0,1.0,0.0
18130,49.0,0.0,120.0,6.0,0.0
18131,68.0,0.0,30.0,10.0,0.0
18132,85.0,0.0,540.0,1.0,0.0
18133,61.0,0.0,120.0,5.0,0.0
18134,85.0,0.0,30.0,8.0,0.0
18135,89.0,30.0,15.0,7.0,0.0
18136,89.0,0.0,15.0,7.0,0.0
18137,68.0,30.0,15.0,10.0,0.0
18138,73.0,0.0,15.0,10.0,0.0
18139,77.0,0.0,15.0,8.0,0.0
18140,85.0,0.0,15.0,8.0,0.0
18141,68.0,0.0,15.0,10.0,0.0
18142,73.0,0.0,15.0,10.0,0.0
18143,89.0,30.0,15.0,7.0,0.0
18144,73.0,0.0,30.0,11.0,0.0
18145,68.0,0.0,15.0,10.0,0.0
18146,73.0,0.0,15.0,10.0,0.0
18147,85.0,30.0,15.0,8.0,0.0
18148,77.0,0.0,15.0,8.0,0.0
18149,68.0,30.0,60.0,11.0,0.0
18150,77.0,0.0,15.0,8.0,0.0
18151,68.0,0.0,15.0,10.0,0.0
18152,73.0,0.0,15.0,10.0,0.0
18153,85.0,30.0,15.0,8.0,0.0
18154,89.0,0.0,15.0,7.0,0.0
18155,73.0,0.0,15.0,10.0,0.0
18156,68.0,0.0,15.0,10.0,0.0
18157,65.0,0.0,90.0,11.0,0.0
18158,89.0,0.0,30.0,7.0,0.0
18159,73.0,0.0,15.0,10.0,0.0
18160,77.0,30.0,15.0,8.0,0.0
18161,85.0,0.0,15.0,8.0,0.0
18162,89.0,0.0,30.0,7.0,0.0
18163,68.0,30.0,15.0,10.0,0.0
18164,73.0,0.0,15.0,10.0,0.0
18165,73.0,0.0,15.0,10.0,0.0
18166,89.0,0.0,15.0,7.0,0.0
18167,65.0,0.0,30.0,11.0,0.0
18168,77.0,30.0,15.0,8.0,0.0
18169,85.0,0.0,15.0,8.0,0.0
18170,77.0,0.0,15.0,8.0,0.0
18171,85.0,0.0,15.0,8.0,0.0
18172,61.0,30.0,60.0,11.0,0.0
18173,68.0,30.0,15.0,10.0,0.0
18174,89.0,0.0,30.0,7.0,0.0
18175,73.0,30.0,15.0,10.0,0.0
18176,77.0,0.0,30.0,8.0,0.0
18177,85.0,0.0,30.0,8.0,0.0
18178,73.0,0.0,15.0,10.0,0.0
18179,68.0,0.0,15.0,10.0,0.0
18180,89.0,0.0,15.0,7.0,0.0
18181,68.0,30.0,15.0,10.0,0.0
18182,77.0,0.0,15.0,8.0,0.0
18183,85.0,0.0,15.0,8.0,0.0
18184,73.0,0.0,15.0,10.0,0.0
18185,89.0,0.0,30.0,7.0,0.0
18186,89.0,0.0,30.0,7.0,0.0
18187,85.0,0.0,30.0,8.0,0.0
18188,77.0,0.0,30.0,8.0,0.0
18189,56.0,0.0,15.0,11.0,0.0
18190,89.0,0.0,30.0,7.0,0.0
18191,77.0,0.0,30.0,8.0,0.0
18192,68.0,30.0,15.0,10.0,0.0
18193,73.0,0.0,15.0,10.0,0.0
18194,85.0,0.0,15.0,8.0,0.0
18195,53.0,0.0,60.0,11.0,0.0
18196,68.0,30.0,15.0,10.0,0.0
18197,73.0,0.0,15.0,10.0,0.0
18198,89.0,0.0,30.0,7.0,0.0
18199,73.0,30.0,15.0,10.0,0.0
18200,77.0,0.0,15.0,8.0,0.0
18201,68.0,0.0,15.0,10.0,0.0
18202,85.0,0.0,30.0,8.0,0.0
18203,77.0,0.0,15.0,2.0,0.0
18204,73.0,0.0,15.0,2.0,0.0
18205,49.0,0.0,120.0,11.0,0.0
18206,61.0,0.0,90.0,4.0,0.0
18207,61.0,0.0,90.0,5.0,0.0
18208,73.0,0.0,30.0,10.0,0.0
18209,68.0,0.0,15.0,10.0,0.0
18210,89.0,0.0,15.0,7.0,0.0
18211,65.0,0.0,15.0,3.0,0.0
18212,61.0,0.0,15.0,3.0,0.0
18213,89.0,0.0,15.0,0.0,0.0
18214,92.0,0.0,90.0,0.0,0.0
18215,80.0,30.0,15.0,1.0,0.0
18216,77.0,0.0,15.0,8.0,0.0
18217,85.0,0.0,15.0,8.0,0.0
18218,89.0,30.0,15.0,7.0,0.0
18219,68.0,0.0,15.0,10.0,0.0
18220,73.0,0.0,15.0,10.0,0.0
18221,89.0,0.0,30.0,7.0,0.0
18222,85.0,0.0,15.0,8.0,0.0
18223,77.0,0.0,30.0,8.0,0.0
18224,49.0,0.0,15.0,6.0,0.0
18225,89.0,0.0,30.0,7.0,0.0
18226,65.0,0.0,15.0,3.0,0.0
18227,61.0,0.0,15.0,3.0,0.0
18228,85.0,0.0,15.0,1.0,0.0
18229,92.0,0.0,30.0,0.0,0.0
18230,89.0,0.0,30.0,0.0,0.0
18231,73.0,0.0,30.0,2.0,0.0
18232,77.0,0.0,30.0,2.0,0.0
18233,68.0,0.0,15.0,10.0,0.0
18234,73.0,0.0,15.0,10.0,0.0
18235,73.0,30.0,15.0,4.0,0.0
18236,61.0,0.0,30.0,5.0,0.0
18237,73.0,0.0,15.0,10.0,0.0
18238,89.0,0.0,30.0,7.0,0.0
18239,49.0,0.0,15.0,6.0,0.0
18240,61.0,0.0,15.0,3.0,0.0
18241,68.0,0.0,15.0,10.0,0.0
18242,80.0,0.0,15.0,1.0,0.0
18243,89.0,0.0,60.0,0.0,0.0
18244,92.0,0.0,60.0,0.0,0.0
18245,73.0,0.0,60.0,2.0,0.0
18246,77.0,0.0,60.0,2.0,0.0
18247,65.0,0.0,60.0,3.0,0.0
18248,77.0,0.0,15.0,8.0,0.0
18249,85.0,0.0,15.0,8.0,0.0
18250,61.0,0.0,60.0,5.0,0.0
18251,73.0,0.0,60.0,4.0,0.0
18252,61.0,30.0,15.0,4.0,0.0
18253,77.0,0.0,15.0,8.0,0.0
18254,85.0,0.0,30.0,8.0,0.0
18255,68.0,30.0,15.0,10.0,0.0
18256,89.0,0.0,30.0,7.0,0.0
18257,73.0,0.0,30.0,10.0,0.0
18258,73.0,0.0,540.0,2.0,0.0
18259,75.0,0.0,540.0,2.0,0.0
18260,87.0,0.0,540.0,0.0,0.0
18261,94.0,0.0,540.0,0.0,0.0
18262,49.0,0.0,15.0,6.0,0.0
18263,61.0,0.0,540.0,4.0,0.0
18264,73.0,0.0,540.0,4.0,0.0
18265,70.0,0.0,30.0,10.0,0.0
18266,85.0,0.0,15.0,1.0,0.0
18267,82.0,0.0,540.0,1.0,0.0
18268,63.0,0.0,540.0,3.0,0.0
18269,73.0,0.0,30.0,10.0,0.0
18270,75.0,30.0,30.0,8.0,0.0
18271,85.0,0.0,30.0,8.0,0.0
18272,87.0,0.0,15.0,7.0,0.0
18273,70.0,0.0,30.0,10.0,0.0
18274,73.0,0.0,30.0,10.0,0.0
18275,75.0,0.0,30.0,8.0,0.0
18276,85.0,30.0,30.0,8.0,0.0
18277,87.0,0.0,15.0,7.0,0.0
18278,75.0,0.0,30.0,8.0,0.0
18279,66.0,0.0,15.0,11.0,0.0
18280,73.0,0.0,15.0,10.0,0.0
18281,70.0,0.0,15.0,10.0,0.0
18282,85.0,0.0,15.0,8.0,0.0
18283,87.0,30.0,15.0,7.0,0.0
18284,75.0,0.0,30.0,8.0,0.0
18285,70.0,0.0,15.0,10.0,0.0
18286,73.0,0.0,15.0,10.0,0.0
18287,61.0,0.0,60.0,11.0,0.0
18288,87.0,30.0,15.0,7.0,0.0
18289,85.0,0.0,30.0,8.0,0.0
18290,75.0,0.0,30.0,8.0,0.0
18291,87.0,0.0,15.0,7.0,0.0
18292,85.0,0.0,30.0,8.0,0.0
18293,73.0,0.0,30.0,10.0,0.0
18294,70.0,30.0,30.0,10.0,0.0
18295,58.0,0.0,90.0,11.0,0.0
18296,87.0,0.0,30.0,7.0,0.0
18297,75.0,0.0,15.0,8.0,0.0
18298,73.0,0.0,30.0,10.0,0.0
18299,70.0,0.0,30.0,10.0,0.0
18300,85.0,30.0,15.0,8.0,0.0
18301,75.0,0.0,15.0,8.0,0.0
18302,70.0,0.0,30.0,10.0,0.0
18303,73.0,0.0,30.0,10.0,0.0
18304,75.0,0.0,30.0,8.0,0.0
18305,85.0,30.0,15.0,8.0,0.0
18306,87.0,0.0,15.0,7.0,0.0
18307,73.0,0.0,30.0,10.0,0.0
18308,70.0,0.0,30.0,10.0,0.0
18309,70.0,30.0,30.0,10.0,0.0
18310,73.0,0.0,30.0,10.0,0.0
18311,87.0,30.0,15.0,7.0,0.0
18312,75.0,0.0,30.0,8.0,0.0
18313,85.0,0.0,30.0,8.0,0.0
18314,58.0,0.0,30.0,11.0,0.0
18315,87.0,0.0,15.0,7.0,0.0
18316,54.0,30.0,60.0,11.0,0.0
18317,75.0,30.0,15.0,8.0,0.0
18318,85.0,0.0,15.0,8.0,0.0
18319,73.0,0.0,15.0,10.0,0.0
18320,70.0,0.0,15.0,10.0,0.0
18321,87.0,0.0,15.0,7.0,0.0
18322,87.0,0.0,15.0,7.0,0.0
18323,85.0,0.0,15.0,8.0,0.0
18324,75.0,0.0,15.0,8.0,0.0
18325,49.0,30.0,90.0,11.0,0.0
18326,73.0,0.0,15.0,10.0,0.0
18327,85.0,30.0,15.0,8.0,0.0
18328,70.0,0.0,15.0,10.0,0.0
18329,87.0,0.0,30.0,7.0,0.0
18330,73.0,0.0,15.0,10.0,0.0
18331,70.0,0.0,15.0,10.0,0.0
18332,87.0,0.0,30.0,7.0,0.0
18333,85.0,30.0,15.0,8.0,0.0
18334,75.0,0.0,15.0,8.0,0.0
18335,85.0,0.0,15.0,8.0,0.0
18336,73.0,0.0,30.0,10.0,0.0
18337,49.0,0.0,30.0,11.0,0.0
18338,46.0,0.0,60.0,11.0,0.0
18339,85.0,0.0,15.0,8.0,0.0
18340,70.0,0.0,15.0,10.0,0.0
18341,87.0,30.0,15.0,7.0,0.0
18342,75.0,0.0,15.0,8.0,0.0
18343,70.0,0.0,15.0,10.0,0.0
18344,73.0,0.0,15.0,10.0,0.0
18345,85.0,0.0,30.0,8.0,0.0
18346,75.0,30.0,15.0,8.0,0.0
18347,73.0,0.0,90.0,4.0,0.0
18348,58.0,0.0,15.0,5.0,0.0
18349,70.0,0.0,15.0,5.0,0.0
18350,61.0,0.0,90.0,4.0,0.0
18351,85.0,0.0,90.0,1.0,0.0
18352,87.0,0.0,15.0,7.0,0.0
18353,63.0,0.0,90.0,3.0,0.0
18354,61.0,0.0,15.0,3.0,0.0
18355,73.0,0.0,90.0,2.0,0.0
18356,75.0,0.0,90.0,2.0,0.0
18357,42.0,0.0,120.0,11.0,0.0
18358,70.0,0.0,30.0,10.0,0.0
18359,82.0,30.0,90.0,1.0,0.0
18360,75.0,0.0,30.0,8.0,0.0
18361,85.0,0.0,30.0,8.0,0.0
18362,87.0,0.0,15.0,7.0,0.0
18363,75.0,0.0,30.0,8.0,0.0
18364,85.0,0.0,30.0,8.0,0.0
18365,73.0,30.0,15.0,10.0,0.0
18366,73.0,0.0,15.0,10.0,0.0
18367,70.0,0.0,15.0,10.0,0.0
18368,75.0,0.0,30.0,8.0,0.0
18369,87.0,30.0,15.0,7.0,0.0
18370,87.0,0.0,15.0,0.0,0.0
18371,49.0,0.0,15.0,6.0,0.0
18372,94.0,0.0,15.0,0.0,0.0
18373,87.0,0.0,30.0,7.0,0.0
18374,70.0,0.0,15.0,10.0,0.0
18375,85.0,0.0,15.0,8.0,0.0
18376,73.0,0.0,15.0,10.0,0.0
18377,61.0,0.0,30.0,3.0,0.0
18378,63.0,0.0,30.0,3.0,0.0
18379,58.0,0.0,30.0,5.0,0.0
18380,70.0,0.0,30.0,5.0,0.0
18381,73.0,0.0,15.0,2.0,0.0
18382,75.0,0.0,15.0,2.0,0.0
18383,61.0,0.0,60.0,3.0,0.0
18384,63.0,0.0,60.0,3.0,0.0
18385,58.0,0.0,60.0,5.0,0.0
18386,73.0,0.0,15.0,4.0,0.0
18387,73.0,0.0,15.0,10.0,0.0
18388,70.0,0.0,15.0,10.0,0.0
18389,82.0,0.0,15.0,1.0,0.0
18390,70.0,0.0,60.0,5.0,0.0
18391,61.0,0.0,15.0,4.0,0.0
18392,87.0,30.0,30.0,7.0,0.0
18393,87.0,0.0,60.0,0.0,0.0
18394,94.0,0.0,60.0,0.0,0.0
18395,85.0,30.0,15.0,1.0,0.0
18396,75.0,0.0,15.0,8.0,0.0
18397,49.0,0.0,60.0,6.0,0.0
18398,85.0,0.0,30.0,8.0,0.0
18399,70.0,0.0,15.0,10.0,0.0
18400,75.0,0.0,30.0,8.0,0.0
18401,85.0,0.0,30.0,8.0,0.0
18402,73.0,0.0,15.0,10.0,0.0
18403,87.0,0.0,30.0,7.0,0.0
18404,42.0,0.0,360.0,11.0,0.0
18405,62.0,0.0,180.0,10.0,0.0
18406,74.0,180.0,180.0,8.0,0.0
18407,86.0,0.0,180.0,7.0,0.0
18408,81.0,180.0,180.0,7.0,0.0
18409,57.0,0.0,180.0,10.0,0.0
18410,69.0,0.0,180.0,8.0,0.0
18411,80.0,0.0,180.0,2.0,0.0
18412,60.0,0.0,180.0,8.0,0.0
18413,44.0,0.0,360.0,11.0,0.0
18414,60.0,0.0,300.0,10.0,0.0
18415,68.0,120.0,180.0,3.0,0.0
18416,72.0,0.0,180.0,7.0,0.0
18417,92.0,0.0,180.0,0.0,0.0
18418,68.0,0.0,120.0,8.0,0.0
18419,72.0,0.0,120.0,2.0,0.0
18420,84.0,0.0,120.0,0.0,0.0
18421,60.0,60.0,120.0,3.0,0.0
18422,80.0,0.0,120.0,7.0,0.0
18423,92.0,0.0,60.0,0.0,0.0
18424,80.0,0.0,60.0,8.0,0.0
18425,68.0,0.0,60.0,3.0,0.0
18426,49.0,30.0,120.0,6.0,0.0
18427,92.0,0.0,15.0,7.0,0.0
18428,68.0,0.0,360.0,4.0,0.0
18429,56.0,0.0,360.0,4.0,0.0
18430,92.0,0.0,270.0,0.0,0.0
18431,80.0,0.0,270.0,1.0,0.0
18432,80.0,0.0,60.0,8.0,0.0
18433,80.0,0.0,15.0,2.0,0.0
18434,49.0,0.0,120.0,11.0,0.0
18435,68.0,60.0,15.0,10.0,0.0
18436,49.0,0.0,120.0,5.0,0.0
18437,68.0,0.0,270.0,3.0,0.0
18438,61.0,0.0,120.0,5.0,0.0
18439,68.0,0.0,30.0,8.0,0.0
18440,56.0,0.0,15.0,10.0,0.0
18441,61.0,30.0,15.0,10.0,0.0
18442,65.0,0.0,15.0,8.0,0.0
18443,68.0,0.0,30.0,8.0,0.0
18444,61.0,0.0,15.0,10.0,0.0
18445,56.0,0.0,15.0,10.0,0.0
18446,65.0,0.0,30.0,8.0,0.0
18447,65.0,0.0,30.0,8.0,0.0
18448,68.0,30.0,15.0,8.0,0.0
18449,56.0,0.0,30.0,10.0,0.0
18450,49.0,0.0,120.0,6.0,0.0
18451,49.0,0.0,120.0,5.0,0.0
18452,61.0,0.0,120.0,5.0,0.0
18453,61.0,60.0,15.0,10.0,0.0
18454,53.0,0.0,120.0,11.0,0.0
18455,65.0,0.0,15.0,8.0,0.0
18456,61.0,30.0,15.0,10.0,0.0
18457,68.0,0.0,15.0,8.0,0.0
18458,56.0,0.0,15.0,10.0,0.0
18459,68.0,0.0,15.0,8.0,0.0
18460,65.0,0.0,15.0,8.0,0.0
18461,56.0,0.0,30.0,10.0,0.0
18462,61.0,0.0,15.0,10.0,0.0
18463,78.0,30.0,30.0,2.0,0.0
18464,90.0,0.0,30.0,7.0,0.0
18465,78.0,0.0,30.0,1.0,0.0
18466,66.0,0.0,30.0,3.0,0.0
18467,90.0,0.0,30.0,0.0,0.0
18468,68.0,0.0,30.0,8.0,0.0
18469,77.0,0.0,60.0,1.0,0.0
18470,89.0,0.0,60.0,0.0,0.0
18471,56.0,0.0,30.0,10.0,0.0
18472,61.0,30.0,30.0,10.0,0.0
18473,65.0,0.0,60.0,3.0,0.0
18474,65.0,0.0,30.0,8.0,0.0
18475,65.0,0.0,30.0,8.0,0.0
18476,68.0,0.0,30.0,8.0,0.0
18477,61.0,0.0,30.0,10.0,0.0
18478,77.0,0.0,15.0,2.0,0.0
18479,56.0,0.0,120.0,6.0,0.0
18480,56.0,0.0,270.0,4.0,0.0
18481,68.0,0.0,270.0,4.0,0.0
18482,77.0,45.0,15.0,1.0,0.0
18483,89.0,0.0,15.0,7.0,0.0
18484,68.0,0.0,120.0,5.0,0.0
18485,65.0,0.0,15.0,3.0,0.0
18486,56.0,30.0,120.0,11.0,0.0
18487,56.0,15.0,15.0,10.0,0.0
18488,66.0,0.0,60.0,8.0,0.0
18489,68.0,0.0,60.0,8.0,0.0
18490,63.0,30.0,60.0,10.0,0.0
18491,89.0,0.0,15.0,0.0,0.0
18492,78.0,0.0,240.0,2.0,0.0
18493,66.0,0.0,240.0,3.0,0.0
18494,90.0,30.0,240.0,7.0,0.0
18495,90.0,0.0,240.0,0.0,0.0
18496,78.0,0.0,240.0,1.0,0.0
18497,56.0,0.0,30.0,10.0,0.0
18498,63.0,0.0,15.0,10.0,0.0
18499,66.0,0.0,15.0,8.0,0.0
18500,68.0,30.0,15.0,8.0,0.0
18501,56.0,0.0,30.0,10.0,0.0
18502,66.0,0.0,15.0,8.0,0.0
18503,63.0,0.0,30.0,10.0,0.0
18504,68.0,0.0,30.0,8.0,0.0
18505,56.0,0.0,15.0,10.0,0.0
18506,68.0,0.0,30.0,8.0,0.0
18507,66.0,30.0,15.0,8.0,0.0
18508,56.0,0.0,15.0,10.0,0.0
18509,66.0,30.0,60.0,8.0,0.0
18510,63.0,60.0,15.0,10.0,0.0
18511,68.0,0.0,15.0,8.0,0.0
18512,56.0,0.0,15.0,10.0,0.0
18513,66.0,0.0,30.0,8.0,0.0
18514,94.0,0.0,30.0,0.0,0.0
18515,90.0,0.0,30.0,0.0,0.0
18516,63.0,0.0,15.0,10.0,0.0
18517,63.0,0.0,30.0,3.0,0.0
18518,56.0,30.0,30.0,10.0,0.0
18519,66.0,0.0,30.0,3.0,0.0
18520,82.0,0.0,30.0,1.0,0.0
18521,78.0,0.0,30.0,1.0,0.0
18522,68.0,0.0,30.0,8.0,0.0
18523,66.0,0.0,30.0,8.0,0.0
18524,56.0,0.0,30.0,11.0,0.0
18525,70.0,0.0,30.0,2.0,0.0
18526,68.0,0.0,30.0,4.0,0.0
18527,82.0,0.0,30.0,7.0,0.0
18528,63.0,0.0,60.0,3.0,0.0
18529,78.0,0.0,15.0,2.0,0.0
18530,78.0,0.0,60.0,1.0,0.0
18531,84.0,0.0,60.0,1.0,0.0
18532,84.0,0.0,60.0,7.0,0.0
18533,66.0,0.0,30.0,8.0,0.0
18534,66.0,60.0,60.0,3.0,0.0
18535,72.0,0.0,60.0,2.0,0.0
18536,56.0,0.0,15.0,4.0,0.0
18537,96.0,0.0,60.0,0.0,0.0
18538,56.0,0.0,30.0,10.0,0.0
18539,68.0,0.0,60.0,4.0,0.0
18540,63.0,30.0,30.0,10.0,0.0
18541,68.0,0.0,15.0,8.0,0.0
18542,66.0,0.0,30.0,8.0,0.0
18543,63.0,0.0,30.0,10.0,0.0
18544,92.0,0.0,15.0,0.0,0.0
18545,73.0,0.0,120.0,2.0,0.0
18546,77.0,0.0,120.0,2.0,0.0
18547,56.0,0.0,120.0,6.0,0.0
18548,68.0,0.0,15.0,8.0,0.0
18549,56.0,0.0,120.0,4.0,0.0
18550,68.0,0.0,120.0,4.0,0.0
18551,68.0,0.0,120.0,5.0,0.0
18552,56.0,0.0,15.0,11.0,0.0
18553,65.0,0.0,60.0,8.0,0.0
18554,56.0,0.0,15.0,10.0,0.0
18555,97.0,0.0,120.0,0.0,0.0
18556,61.0,0.0,120.0,3.0,0.0
18557,65.0,0.0,120.0,3.0,0.0
18558,73.0,0.0,120.0,7.0,0.0
18559,85.0,30.0,120.0,7.0,0.0
18560,85.0,0.0,120.0,1.0,0.0
18561,77.0,0.0,120.0,1.0,0.0
18562,61.0,0.0,15.0,10.0,0.0
18563,68.0,30.0,15.0,8.0,0.0
18564,61.0,0.0,15.0,10.0,0.0
18565,68.0,30.0,15.0,8.0,0.0
18566,65.0,0.0,15.0,8.0,0.0
18567,56.0,0.0,15.0,10.0,0.0
18568,56.0,0.0,30.0,10.0,0.0
18569,61.0,0.0,30.0,10.0,0.0
18570,68.0,0.0,15.0,8.0,0.0
18571,65.0,0.0,15.0,8.0,0.0
18572,68.0,0.0,30.0,8.0,0.0
18573,77.0,0.0,120.0,2.0,0.0
18574,77.0,0.0,120.0,1.0,0.0
18575,89.0,0.0,120.0,1.0,0.0
18576,89.0,0.0,120.0,0.0,0.0
18577,68.0,0.0,120.0,4.0,0.0
18578,73.0,0.0,120.0,7.0,0.0
18579,89.0,30.0,120.0,7.0,0.0
18580,68.0,0.0,120.0,5.0,0.0
18581,56.0,0.0,120.0,6.0,0.0
18582,68.0,0.0,60.0,8.0,0.0
18583,56.0,60.0,15.0,10.0,0.0
18584,61.0,0.0,15.0,10.0,0.0
18585,65.0,0.0,120.0,3.0,0.0
18586,56.0,0.0,120.0,4.0,0.0
18587,65.0,30.0,15.0,8.0,0.0
18588,56.0,0.0,30.0,10.0,0.0
18589,54.0,0.0,30.0,11.0,0.0
18590,68.0,0.0,15.0,8.0,0.0
18591,65.0,0.0,15.0,8.0,0.0
18592,61.0,30.0,15.0,10.0,0.0
18593,61.0,0.0,15.0,10.0,0.0
18594,65.0,30.0,30.0,8.0,0.0
18595,56.0,0.0,15.0,10.0,0.0
18596,53.0,0.0,60.0,11.0,0.0
18597,68.0,0.0,30.0,8.0,0.0
18598,56.0,0.0,30.0,10.0,0.0
18599,61.0,0.0,15.0,10.0,0.0
18600,65.0,15.0,30.0,8.0,0.0
18601,68.0,0.0,120.0,5.0,0.0
18602,68.0,30.0,120.0,4.0,0.0
18603,56.0,0.0,120.0,4.0,0.0
18604,56.0,0.0,120.0,6.0,0.0
18605,53.0,45.0,15.0,11.0,0.0
18606,80.0,0.0,120.0,2.0,0.0
18607,63.0,0.0,60.0,10.0,0.0
18608,92.0,0.0,120.0,7.0,0.0
18609,80.0,0.0,120.0,1.0,0.0
18610,68.0,0.0,15.0,8.0,0.0
18611,68.0,0.0,120.0,3.0,0.0
18612,92.0,0.0,120.0,0.0,0.0
18613,54.0,30.0,240.0,11.0,0.0
18614,66.0,0.0,15.0,8.0,0.0
18615,68.0,0.0,30.0,8.0,0.0
18616,63.0,30.0,30.0,10.0,0.0
18617,56.0,30.0,15.0,10.0,0.0
18618,56.0,0.0,15.0,10.0,0.0
18619,56.0,0.0,15.0,10.0,0.0
18620,63.0,0.0,15.0,10.0,0.0
18621,68.0,0.0,15.0,8.0,0.0
18622,66.0,0.0,15.0,8.0,0.0
18623,56.0,30.0,15.0,10.0,0.0
18624,63.0,0.0,15.0,10.0,0.0
18625,56.0,0.0,60.0,10.0,0.0
18626,68.0,0.0,15.0,8.0,0.0
18627,66.0,0.0,15.0,8.0,0.0
18628,63.0,60.0,15.0,10.0,0.0
18629,63.0,0.0,15.0,10.0,0.0
18630,56.0,0.0,30.0,10.0,0.0
18631,68.0,30.0,15.0,8.0,0.0
18632,66.0,0.0,15.0,8.0,0.0
18633,66.0,0.0,15.0,8.0,0.0
18634,68.0,0.0,15.0,8.0,0.0
18635,68.0,0.0,30.0,3.0,0.0
18636,80.0,0.0,30.0,2.0,0.0
18637,92.0,0.0,30.0,7.0,0.0
18638,63.0,0.0,15.0,10.0,0.0
18639,46.0,0.0,30.0,11.0,0.0
18640,56.0,0.0,30.0,4.0,0.0
18641,68.0,0.0,15.0,8.0,0.0
18642,68.0,0.0,15.0,4.0,0.0
18643,80.0,0.0,15.0,1.0,0.0
18644,68.0,0.0,60.0,3.0,0.0
18645,92.0,0.0,15.0,0.0,0.0
18646,56.0,0.0,15.0,10.0,0.0
18647,63.0,30.0,15.0,10.0,0.0
18648,48.0,0.0,60.0,11.0,0.0
18649,66.0,0.0,15.0,8.0,0.0
18650,56.0,30.0,15.0,10.0,0.0
18651,63.0,0.0,15.0,10.0,0.0
18652,68.0,0.0,15.0,8.0,0.0
18653,80.0,0.0,15.0,2.0,0.0
18654,68.0,0.0,15.0,4.0,0.0
18655,49.0,0.0,120.0,6.0,0.0
18656,56.0,0.0,15.0,4.0,0.0
18657,61.0,0.0,120.0,5.0,0.0
18658,49.0,0.0,120.0,5.0,0.0
18659,68.0,0.0,120.0,3.0,0.0
18660,49.0,0.0,120.0,11.0,0.0
18661,80.0,0.0,120.0,1.0,0.0
18662,92.0,0.0,15.0,0.0,0.0
18663,92.0,0.0,15.0,7.0,0.0
18664,56.0,0.0,60.0,10.0,0.0
18665,65.0,0.0,15.0,8.0,0.0
18666,56.0,0.0,30.0,10.0,0.0
18667,61.0,30.0,15.0,10.0,0.0
18668,61.0,30.0,15.0,10.0,0.0
18669,56.0,0.0,30.0,10.0,0.0
18670,68.0,0.0,15.0,8.0,0.0
18671,65.0,0.0,30.0,8.0,0.0
18672,89.0,0.0,60.0,7.0,0.0
18673,65.0,15.0,60.0,3.0,0.0
18674,77.0,0.0,60.0,2.0,0.0
18675,61.0,0.0,30.0,10.0,0.0
18676,65.0,0.0,30.0,8.0,0.0
18677,68.0,0.0,15.0,8.0,0.0
18678,56.0,30.0,15.0,10.0,0.0
18679,61.0,0.0,30.0,10.0,0.0
18680,65.0,0.0,30.0,8.0,0.0
18681,77.0,0.0,15.0,1.0,0.0
18682,89.0,0.0,15.0,0.0,0.0
18683,68.0,0.0,15.0,8.0,0.0
18684,66.0,30.0,60.0,8.0,0.0
18685,89.0,0.0,15.0,7.0,0.0
18686,77.0,45.0,15.0,2.0,0.0
18687,56.0,0.0,120.0,6.0,0.0
18688,68.0,0.0,120.0,5.0,0.0
18689,65.0,0.0,15.0,3.0,0.0
18690,78.0,0.0,60.0,1.0,0.0
18691,90.0,0.0,60.0,0.0,0.0
18692,66.0,0.0,60.0,3.0,0.0
18693,90.0,0.0,60.0,7.0,0.0
18694,68.0,0.0,15.0,8.0,0.0
18695,56.0,0.0,15.0,10.0,0.0
18696,63.0,0.0,15.0,10.0,0.0
18697,94.0,0.0,30.0,0.0,0.0
18698,82.0,0.0,30.0,7.0,0.0
18699,56.0,0.0,15.0,10.0,0.0
18700,63.0,0.0,30.0,10.0,0.0
18701,90.0,0.0,30.0,0.0,0.0
18702,66.0,0.0,15.0,8.0,0.0
18703,78.0,30.0,15.0,2.0,0.0
18704,70.0,0.0,30.0,2.0,0.0
18705,82.0,0.0,30.0,1.0,0.0
18706,78.0,0.0,30.0,1.0,0.0
18707,68.0,0.0,15.0,8.0,0.0
18708,92.0,0.0,60.0,0.0,0.0
18709,72.0,0.0,60.0,2.0,0.0
18710,78.0,0.0,60.0,2.0,0.0
18711,68.0,0.0,15.0,4.0,0.0
18712,56.0,0.0,15.0,4.0,0.0
18713,63.0,0.0,30.0,10.0,0.0
18714,84.0,0.0,60.0,7.0,0.0
18715,66.0,0.0,30.0,8.0,0.0
18716,56.0,30.0,30.0,10.0,0.0
18717,56.0,0.0,15.0,11.0,0.0
18718,96.0,60.0,60.0,0.0,0.0
18719,80.0,0.0,60.0,1.0,0.0
18720,66.0,0.0,15.0,3.0,0.0
18721,63.0,30.0,15.0,3.0,0.0
18722,84.0,0.0,60.0,1.0,0.0
18723,63.0,0.0,30.0,10.0,0.0
18724,66.0,0.0,30.0,8.0,0.0
18725,56.0,0.0,30.0,10.0,0.0
18726,68.0,0.0,15.0,8.0,0.0
18727,56.0,0.0,15.0,11.0,0.0
18728,61.0,0.0,60.0,10.0,0.0
18729,68.0,0.0,15.0,4.0,0.0
18730,56.0,0.0,270.0,4.0,0.0
18731,65.0,0.0,60.0,8.0,0.0
18732,68.0,0.0,120.0,5.0,0.0
18733,56.0,0.0,120.0,6.0,0.0
18734,77.0,0.0,120.0,1.0,0.0
18735,65.0,0.0,120.0,3.0,0.0
18736,73.0,0.0,120.0,2.0,0.0
18737,85.0,0.0,120.0,1.0,0.0
18738,77.0,0.0,120.0,2.0,0.0
18739,73.0,30.0,120.0,7.0,0.0
18740,97.0,0.0,120.0,0.0,0.0
18741,89.0,0.0,120.0,0.0,0.0
18742,85.0,0.0,120.0,7.0,0.0
18743,68.0,30.0,15.0,8.0,0.0
18744,56.0,0.0,15.0,10.0,0.0
18745,68.0,0.0,15.0,8.0,0.0
18746,65.0,0.0,15.0,8.0,0.0
18747,61.0,30.0,15.0,10.0,0.0
18748,56.0,0.0,30.0,10.0,0.0
18749,68.0,0.0,15.0,8.0,0.0
18750,65.0,0.0,15.0,8.0,0.0
18751,61.0,30.0,15.0,10.0,0.0
18752,56.0,0.0,15.0,10.0,0.0
18753,68.0,0.0,30.0,8.0,0.0
18754,65.0,0.0,15.0,8.0,0.0
18755,53.0,0.0,15.0,11.0,0.0
18756,63.0,0.0,60.0,10.0,0.0
18757,66.0,0.0,60.0,8.0,0.0
18758,68.0,0.0,60.0,8.0,0.0
18759,54.0,0.0,60.0,11.0,0.0
18760,56.0,30.0,15.0,10.0,0.0
18761,66.0,0.0,30.0,8.0,0.0
18762,68.0,0.0,30.0,8.0,0.0
18763,63.0,30.0,30.0,10.0,0.0
18764,92.0,0.0,30.0,7.0,0.0
18765,80.0,0.0,30.0,2.0,0.0
18766,68.0,30.0,30.0,3.0,0.0
18767,46.0,0.0,30.0,11.0,0.0
18768,68.0,0.0,30.0,4.0,0.0
18769,56.0,0.0,30.0,4.0,0.0
18770,56.0,0.0,15.0,10.0,0.0
18771,63.0,0.0,30.0,10.0,0.0
18772,48.0,0.0,60.0,11.0,0.0
18773,68.0,0.0,15.0,8.0,0.0
18774,80.0,0.0,15.0,1.0,0.0
18775,66.0,0.0,15.0,8.0,0.0
18776,63.0,0.0,30.0,10.0,0.0
18777,56.0,0.0,15.0,10.0,0.0
18778,92.0,0.0,15.0,0.0,0.0
18779,92.0,0.0,60.0,7.0,0.0
18780,56.0,0.0,60.0,4.0,0.0
18781,68.0,0.0,60.0,3.0,0.0
18782,63.0,0.0,30.0,10.0,0.0
18783,66.0,0.0,15.0,8.0,0.0
18784,68.0,0.0,30.0,8.0,0.0
18785,80.0,0.0,15.0,2.0,0.0
18786,56.0,0.0,270.0,4.0,0.0
18787,68.0,0.0,15.0,4.0,0.0
18788,56.0,0.0,15.0,10.0,0.0
18789,65.0,0.0,60.0,8.0,0.0
18790,61.0,0.0,120.0,5.0,0.0
18791,49.0,30.0,120.0,5.0,0.0
18792,80.0,60.0,15.0,1.0,0.0
18793,92.0,0.0,15.0,0.0,0.0
18794,49.0,0.0,120.0,6.0,0.0
18795,49.0,0.0,120.0,11.0,0.0
18796,92.0,0.0,120.0,7.0,0.0
18797,68.0,0.0,120.0,3.0,0.0
18798,61.0,0.0,15.0,10.0,0.0
18799,56.0,0.0,15.0,10.0,0.0
18800,68.0,30.0,15.0,8.0,0.0
18801,56.0,0.0,15.0,10.0,0.0
18802,61.0,0.0,15.0,10.0,0.0
18803,65.0,30.0,15.0,8.0,0.0
18804,68.0,0.0,30.0,8.0,0.0
18805,65.0,15.0,60.0,3.0,0.0
18806,65.0,0.0,15.0,8.0,0.0
18807,68.0,0.0,30.0,8.0,0.0
18808,61.0,0.0,15.0,10.0,0.0
18809,56.0,0.0,15.0,10.0,0.0
18810,77.0,0.0,60.0,2.0,0.0
18811,89.0,0.0,60.0,7.0,0.0
18812,77.0,0.0,60.0,1.0,0.0
18813,56.0,0.0,15.0,10.0,0.0
18814,61.0,0.0,30.0,10.0,0.0
18815,65.0,30.0,15.0,8.0,0.0
18816,56.0,0.0,120.0,6.0,0.0
18817,63.0,0.0,60.0,10.0,0.0
18818,89.0,0.0,15.0,7.0,0.0
18819,77.0,0.0,15.0,1.0,0.0
18820,56.0,0.0,60.0,10.0,0.0
18821,89.0,0.0,15.0,0.0,0.0
18822,68.0,0.0,15.0,8.0,0.0
18823,66.0,30.0,60.0,8.0,0.0
18824,77.0,0.0,15.0,2.0,0.0
18825,65.0,45.0,15.0,3.0,0.0
18826,68.0,0.0,120.0,5.0,0.0
18827,90.0,30.0,60.0,7.0,0.0
18828,66.0,0.0,60.0,3.0,0.0
18829,90.0,0.0,60.0,0.0,0.0
18830,78.0,0.0,60.0,2.0,0.0
18831,68.0,0.0,15.0,8.0,0.0
18832,66.0,0.0,15.0,8.0,0.0
18833,68.0,0.0,15.0,8.0,0.0
18834,78.0,0.0,15.0,1.0,0.0
18835,82.0,0.0,30.0,1.0,0.0
18836,63.0,0.0,15.0,10.0,0.0
18837,56.0,0.0,15.0,10.0,0.0
18838,78.0,0.0,30.0,2.0,0.0
18839,94.0,0.0,30.0,0.0,0.0
18840,90.0,30.0,30.0,0.0,0.0
18841,70.0,0.0,30.0,2.0,0.0
18842,82.0,0.0,30.0,7.0,0.0
18843,68.0,0.0,15.0,4.0,0.0
18844,56.0,0.0,30.0,11.0,0.0
18845,92.0,0.0,60.0,0.0,0.0
18846,66.0,0.0,15.0,3.0,0.0
18847,63.0,0.0,15.0,3.0,0.0
18848,96.0,0.0,60.0,0.0,0.0
18849,63.0,0.0,15.0,10.0,0.0
18850,56.0,0.0,60.0,11.0,0.0
18851,72.0,0.0,60.0,2.0,0.0
18852,78.0,0.0,60.0,2.0,0.0
18853,84.0,0.0,60.0,1.0,0.0
18854,66.0,0.0,30.0,8.0,0.0
18855,68.0,0.0,15.0,4.0,0.0
18856,80.0,15.0,60.0,1.0,0.0
18857,56.0,0.0,15.0,4.0,0.0
18858,56.0,0.0,15.0,10.0,0.0
18859,66.0,0.0,30.0,8.0,0.0
18860,68.0,30.0,15.0,8.0,0.0
18861,63.0,0.0,30.0,10.0,0.0
18862,61.0,0.0,60.0,3.0,0.0
18863,65.0,60.0,60.0,3.0,0.0
18864,49.0,0.0,60.0,5.0,0.0
18865,61.0,0.0,60.0,5.0,0.0
18866,77.0,0.0,60.0,2.0,0.0
18867,61.0,0.0,60.0,4.0,0.0
18868,48.0,0.0,15.0,11.0,0.0
18869,77.0,0.0,60.0,4.0,0.0
18870,60.0,45.0,15.0,10.0,0.0
18871,84.0,0.0,15.0,7.0,0.0
18872,89.0,0.0,60.0,0.0,0.0
18873,85.0,0.0,60.0,1.0,0.0
18874,49.0,0.0,60.0,6.0,0.0
18875,73.0,0.0,60.0,2.0,0.0
18876,72.0,0.0,15.0,8.0,0.0
18877,77.0,0.0,60.0,1.0,0.0
18878,97.0,0.0,60.0,0.0,0.0
18879,73.0,0.0,120.0,8.0,0.0
18880,49.0,0.0,120.0,11.0,0.0
18881,61.0,0.0,120.0,10.0,0.0
18882,85.0,60.0,120.0,7.0,0.0
18883,85.0,15.0,60.0,2.0,0.0
18884,85.0,0.0,60.0,1.0,0.0
18885,97.0,0.0,60.0,0.0,0.0
18886,61.0,0.0,60.0,5.0,0.0
18887,73.0,0.0,60.0,5.0,0.0
18888,73.0,0.0,60.0,2.0,0.0
18889,85.0,0.0,60.0,0.0,0.0
18890,77.0,0.0,60.0,4.0,0.0
18891,61.0,0.0,60.0,4.0,0.0
18892,49.0,0.0,60.0,6.0,0.0
18893,73.0,0.0,15.0,8.0,0.0
18894,61.0,0.0,15.0,10.0,0.0
18895,49.0,0.0,15.0,3.0,0.0
18896,49.0,105.0,15.0,11.0,0.0
18897,73.0,0.0,15.0,7.0,0.0
18898,63.0,0.0,120.0,10.0,0.0
18899,51.0,0.0,120.0,11.0,0.0
18900,51.0,60.0,120.0,3.0,0.0
18901,75.0,0.0,120.0,7.0,0.0
18902,75.0,0.0,120.0,8.0,0.0
18903,73.0,0.0,60.0,2.0,0.0
18904,85.0,0.0,60.0,2.0,0.0
18905,49.0,0.0,60.0,6.0,0.0
18906,97.0,0.0,60.0,0.0,0.0
18907,85.0,0.0,60.0,1.0,0.0
18908,73.0,0.0,60.0,5.0,0.0
18909,61.0,0.0,60.0,4.0,0.0
18910,77.0,0.0,60.0,4.0,0.0
18911,61.0,0.0,60.0,5.0,0.0
18912,85.0,15.0,60.0,0.0,0.0
18913,63.0,0.0,15.0,10.0,0.0
18914,75.0,105.0,15.0,7.0,0.0
18915,51.0,0.0,15.0,3.0,0.0
18916,75.0,0.0,15.0,8.0,0.0
18917,51.0,0.0,15.0,11.0,0.0
18918,77.0,60.0,120.0,8.0,0.0
18919,65.0,0.0,120.0,10.0,0.0
18920,77.0,0.0,120.0,7.0,0.0
18921,53.0,0.0,120.0,3.0,0.0
18922,53.0,0.0,120.0,11.0,0.0
18923,85.0,0.0,60.0,1.0,0.0
18924,97.0,0.0,60.0,0.0,0.0
18925,85.0,15.0,60.0,0.0,0.0
18926,49.0,0.0,60.0,6.0,0.0
18927,73.0,0.0,60.0,2.0,0.0
18928,61.0,0.0,60.0,4.0,0.0
18929,85.0,0.0,60.0,2.0,0.0
18930,61.0,0.0,60.0,5.0,0.0
18931,73.0,0.0,60.0,5.0,0.0
18932,77.0,0.0,60.0,4.0,0.0
18933,77.0,0.0,15.0,7.0,0.0
18934,53.0,0.0,15.0,11.0,0.0
18935,53.0,105.0,15.0,3.0,0.0
18936,77.0,0.0,15.0,8.0,0.0
18937,53.0,0.0,15.0,10.0,0.0
18938,54.0,60.0,120.0,11.0,0.0
18939,54.0,0.0,120.0,10.0,0.0
18940,78.0,0.0,120.0,7.0,0.0
18941,78.0,0.0,120.0,8.0,0.0
18942,54.0,0.0,120.0,3.0,0.0
18943,77.0,0.0,60.0,4.0,0.0
18944,61.0,0.0,60.0,4.0,0.0
18945,97.0,0.0,60.0,0.0,0.0
18946,85.0,0.0,60.0,0.0,0.0
18947,73.0,0.0,60.0,2.0,0.0
18948,85.0,0.0,60.0,2.0,0.0
18949,61.0,0.0,60.0,5.0,0.0
18950,85.0,0.0,60.0,1.0,0.0
18951,73.0,15.0,60.0,5.0,0.0
18952,49.0,0.0,60.0,6.0,0.0
18953,78.0,0.0,15.0,8.0,0.0
18954,54.0,0.0,15.0,11.0,0.0
18955,54.0,0.0,15.0,3.0,0.0
18956,54.0,0.0,15.0,10.0,0.0
18957,78.0,105.0,15.0,7.0,0.0
18958,56.0,60.0,120.0,11.0,0.0
18959,56.0,0.0,120.0,3.0,0.0
18960,80.0,0.0,120.0,8.0,0.0
18961,80.0,0.0,120.0,7.0,0.0
18962,56.0,0.0,120.0,10.0,0.0
18963,85.0,0.0,60.0,1.0,0.0
18964,85.0,0.0,60.0,2.0,0.0
18965,49.0,0.0,60.0,6.0,0.0
18966,73.0,0.0,60.0,2.0,0.0
18967,77.0,0.0,60.0,4.0,0.0
18968,97.0,0.0,60.0,0.0,0.0
18969,61.0,0.0,60.0,4.0,0.0
18970,85.0,0.0,60.0,0.0,0.0
18971,73.0,0.0,60.0,5.0,0.0
18972,61.0,15.0,60.0,5.0,0.0
18973,56.0,0.0,15.0,3.0,0.0
18974,56.0,0.0,15.0,11.0,0.0
18975,56.0,0.0,15.0,10.0,0.0
18976,80.0,105.0,15.0,7.0,0.0
18977,80.0,0.0,15.0,8.0,0.0
18978,58.0,0.0,120.0,11.0,0.0
18979,58.0,0.0,120.0,3.0,0.0
18980,82.0,0.0,120.0,8.0,0.0
18981,82.0,0.0,120.0,7.0,0.0
18982,58.0,60.0,120.0,10.0,0.0
18983,61.0,15.0,60.0,4.0,0.0
18984,77.0,0.0,60.0,4.0,0.0
18985,73.0,0.0,60.0,5.0,0.0
18986,61.0,0.0,60.0,5.0,0.0
18987,73.0,0.0,60.0,2.0,0.0
18988,85.0,0.0,60.0,1.0,0.0
18989,85.0,0.0,60.0,0.0,0.0
18990,85.0,0.0,60.0,2.0,0.0
18991,97.0,0.0,60.0,0.0,0.0
18992,49.0,0.0,60.0,6.0,0.0
18993,58.0,105.0,15.0,10.0,0.0
18994,82.0,0.0,15.0,7.0,0.0
18995,82.0,0.0,15.0,8.0,0.0
18996,58.0,0.0,15.0,3.0,0.0
18997,58.0,0.0,15.0,11.0,0.0
18998,60.0,0.0,120.0,3.0,0.0
18999,84.0,0.0,120.0,7.0,0.0
19000,84.0,0.0,120.0,8.0,0.0
19001,60.0,60.0,120.0,10.0,0.0
19002,60.0,0.0,120.0,11.0,0.0
19003,73.0,0.0,60.0,2.0,0.0
19004,61.0,0.0,60.0,5.0,0.0
19005,85.0,0.0,60.0,2.0,0.0
19006,85.0,0.0,60.0,0.0,0.0
19007,85.0,0.0,60.0,1.0,0.0
19008,73.0,0.0,60.0,5.0,0.0
19009,61.0,0.0,60.0,4.0,0.0
19010,77.0,0.0,60.0,4.0,0.0
19011,97.0,0.0,60.0,0.0,0.0
19012,49.0,15.0,60.0,6.0,0.0
19013,84.0,0.0,15.0,7.0,0.0
19014,60.0,0.0,15.0,10.0,0.0
19015,60.0,0.0,15.0,11.0,0.0
19016,84.0,105.0,15.0,8.0,0.0
19017,60.0,0.0,15.0,3.0,0.0
19018,61.0,60.0,120.0,11.0,0.0
19019,61.0,0.0,120.0,10.0,0.0
19020,85.0,0.0,120.0,7.0,0.0
19021,85.0,0.0,120.0,8.0,0.0
19022,61.0,0.0,120.0,3.0,0.0
19023,77.0,0.0,60.0,4.0,0.0
19024,61.0,0.0,60.0,4.0,0.0
19025,85.0,0.0,60.0,2.0,0.0
19026,73.0,0.0,60.0,2.0,0.0
19027,49.0,0.0,60.0,6.0,0.0
19028,97.0,735.0,60.0,0.0,0.0
19029,61.0,0.0,60.0,5.0,0.0
19030,73.0,0.0,60.0,5.0,0.0
19031,85.0,0.0,60.0,1.0,0.0
19032,85.0,0.0,60.0,0.0,0.0
19033,83.0,0.0,15.0,7.0,0.0
19034,59.0,105.0,15.0,10.0,0.0
19035,59.0,0.0,15.0,11.0,0.0
19036,71.0,0.0,15.0,8.0,0.0
19037,72.0,60.0,120.0,8.0,0.0
19038,60.0,0.0,120.0,10.0,0.0
19039,84.0,0.0,120.0,7.0,0.0
19040,60.0,0.0,120.0,11.0,0.0
19041,84.0,630.0,60.0,1.0,0.0
19042,73.0,0.0,60.0,2.0,0.0
19043,60.0,0.0,60.0,3.0,0.0
19044,84.0,0.0,60.0,0.0,0.0
19045,48.0,30.0,90.0,11.0,0.0
19046,48.0,60.0,15.0,11.0,0.0
19047,48.0,30.0,90.0,11.0,0.0
19048,48.0,60.0,15.0,11.0,0.0
19049,79.0,0.0,90.0,0.0,0.0
19050,48.0,0.0,90.0,11.0,0.0
19051,67.0,0.0,90.0,3.0,0.0
19052,76.0,0.0,15.0,0.0,0.0
19053,64.0,30.0,15.0,3.0,0.0
19054,76.0,0.0,15.0,0.0,0.0
19055,64.0,0.0,60.0,3.0,0.0
19056,48.0,0.0,15.0,11.0,0.0
19057,79.0,0.0,15.0,0.0,0.0
19058,67.0,60.0,15.0,3.0,0.0
19059,48.0,0.0,15.0,11.0,0.0
19060,79.0,0.0,90.0,0.0,0.0
19061,76.0,0.0,90.0,0.0,0.0
19062,64.0,0.0,15.0,3.0,0.0
19063,79.0,0.0,30.0,0.0,0.0
19064,67.0,30.0,15.0,3.0,0.0
19065,76.0,0.0,30.0,0.0,0.0
19066,48.0,0.0,15.0,11.0,0.0
19067,64.0,0.0,15.0,3.0,0.0
19068,67.0,0.0,60.0,3.0,0.0
19069,79.0,90.0,15.0,0.0,0.0
19070,76.0,0.0,15.0,0.0,0.0
19071,67.0,0.0,270.0,8.0,0.0
19072,67.0,0.0,720.0,3.0,0.0
19073,48.0,30.0,90.0,11.0,0.0
19074,48.0,60.0,30.0,11.0,0.0
19075,48.0,90.0,60.0,11.0,0.0
19076,48.0,30.0,15.0,11.0,0.0
19077,65.0,60.0,30.0,8.0,0.0
19078,64.0,90.0,60.0,8.0,0.0
19079,48.0,0.0,15.0,11.0,0.0
19080,79.0,30.0,270.0,7.0,0.0
19081,48.0,30.0,15.0,11.0,0.0
19082,48.0,60.0,15.0,11.0,0.0
19083,48.0,0.0,90.0,11.0,0.0
19084,77.0,0.0,30.0,7.0,0.0
19085,48.0,60.0,15.0,11.0,0.0
19086,76.0,0.0,60.0,7.0,0.0
19087,64.0,0.0,15.0,3.0,0.0
19088,68.0,30.0,270.0,8.0,0.0
19089,68.0,0.0,720.0,3.0,0.0
19090,47.0,30.0,90.0,11.0,0.0
19091,76.0,0.0,720.0,0.0,0.0
19092,80.0,0.0,720.0,0.0,0.0
19093,47.0,60.0,30.0,11.0,0.0
19094,47.0,90.0,15.0,11.0,0.0
19095,47.0,0.0,30.0,11.0,0.0
19096,66.0,60.0,30.0,8.0,0.0
19097,64.0,0.0,60.0,8.0,0.0
19098,47.0,90.0,60.0,11.0,0.0
19099,76.0,30.0,90.0,1.0,0.0
19100,80.0,0.0,90.0,1.0,0.0
19101,68.0,0.0,90.0,2.0,0.0
19102,64.0,0.0,90.0,2.0,0.0
19103,80.0,0.0,270.0,7.0,0.0
19104,47.0,0.0,15.0,11.0,0.0
19105,68.0,0.0,30.0,2.0,0.0
19106,64.0,0.0,30.0,2.0,0.0
19107,47.0,0.0,15.0,11.0,0.0
19108,76.0,60.0,15.0,1.0,0.0
19109,80.0,0.0,15.0,1.0,0.0
19110,68.0,90.0,60.0,2.0,0.0
19111,76.0,0.0,15.0,1.0,0.0
19112,47.0,0.0,15.0,11.0,0.0
19113,64.0,0.0,15.0,2.0,0.0
19114,68.0,0.0,90.0,2.0,0.0
19115,68.0,0.0,30.0,2.0,0.0
19116,78.0,0.0,30.0,7.0,0.0
19117,80.0,0.0,15.0,1.0,0.0
19118,47.0,0.0,15.0,11.0,0.0
19119,64.0,30.0,15.0,2.0,0.0
19120,76.0,0.0,15.0,1.0,0.0
19121,64.0,0.0,60.0,2.0,0.0
19122,76.0,0.0,60.0,7.0,0.0
19123,47.0,60.0,15.0,11.0,0.0
19124,80.0,0.0,60.0,1.0,0.0
19125,68.0,0.0,60.0,2.0,0.0
19126,85.0,0.0,720.0,1.0,0.0
19127,76.0,0.0,15.0,1.0,0.0
19128,73.0,0.0,720.0,2.0,0.0
19129,64.0,0.0,720.0,2.0,0.0
19130,45.0,30.0,90.0,11.0,0.0
19131,73.0,0.0,270.0,8.0,0.0
19132,45.0,60.0,15.0,11.0,0.0
19133,45.0,30.0,90.0,11.0,0.0
19134,71.0,60.0,30.0,8.0,0.0
19135,45.0,0.0,30.0,11.0,0.0
19136,45.0,90.0,60.0,11.0,0.0
19137,69.0,0.0,60.0,8.0,0.0
19138,45.0,30.0,90.0,11.0,0.0
19139,85.0,30.0,270.0,7.0,0.0
19140,45.0,60.0,15.0,11.0,0.0
19141,45.0,90.0,15.0,11.0,0.0
19142,83.0,0.0,30.0,7.0,0.0
19143,45.0,60.0,30.0,11.0,0.0
19144,81.0,90.0,60.0,7.0,0.0
19145,45.0,0.0,60.0,11.0,0.0
19146,77.0,0.0,270.0,4.0,0.0
19147,65.0,0.0,360.0,2.0,0.0
19148,44.0,30.0,90.0,11.0,0.0
19149,73.0,0.0,360.0,2.0,0.0
19150,73.0,30.0,270.0,4.0,0.0
19151,77.0,0.0,360.0,1.0,0.0
19152,44.0,60.0,15.0,11.0,0.0
19153,68.0,0.0,30.0,4.0,0.0
19154,44.0,0.0,15.0,11.0,0.0
19155,75.0,0.0,30.0,4.0,0.0
19156,65.0,0.0,60.0,4.0,0.0
19157,73.0,0.0,60.0,4.0,0.0
19158,44.0,0.0,15.0,11.0,0.0
19159,85.0,90.0,15.0,1.0,0.0
19160,89.0,0.0,270.0,0.0,0.0
19161,65.0,0.0,270.0,3.0,0.0
19162,77.0,30.0,270.0,2.0,0.0
19163,73.0,0.0,270.0,2.0,0.0
19164,61.0,0.0,270.0,3.0,0.0
19165,44.0,30.0,15.0,11.0,0.0
19166,44.0,60.0,15.0,11.0,0.0
19167,56.0,0.0,30.0,3.0,0.0
19168,63.0,0.0,30.0,3.0,0.0
19169,87.0,0.0,30.0,0.0,0.0
19170,75.0,0.0,30.0,2.0,0.0
19171,80.0,0.0,30.0,1.0,0.0
19172,44.0,0.0,15.0,11.0,0.0
19173,68.0,0.0,30.0,2.0,0.0
19174,77.0,0.0,60.0,1.0,0.0
19175,80.0,0.0,60.0,7.0,0.0
19176,73.0,0.0,60.0,2.0,0.0
19177,65.0,0.0,60.0,2.0,0.0
19178,85.0,0.0,60.0,0.0,0.0
19179,61.0,0.0,60.0,3.0,0.0
19180,53.0,0.0,60.0,3.0,0.0
19181,44.0,240.0,60.0,11.0,0.0
19182,68.0,0.0,3000.0,3.0,0.0
19183,56.0,0.0,3000.0,3.0,0.0
19184,68.0,0.0,15.0,8.0,0.0
19185,92.0,0.0,3000.0,0.0,0.0
19186,54.0,0.0,240.0,10.0,0.0
19187,80.0,0.0,540.0,7.0,0.0
19188,56.0,1.0,7920.0,4.0,0.0
19189,42.0,0.0,240.0,11.0,0.0
19190,54.0,60.0,240.0,11.0,0.0
19191,41.0,60.0,60.0,11.0,0.0
19192,53.0,0.0,60.0,11.0,0.0
19193,53.0,0.0,60.0,10.0,0.0
19194,40.0,60.0,60.0,11.0,0.0
19195,52.0,0.0,60.0,10.0,0.0
19196,52.0,0.0,15.0,11.0,0.0
19197,52.0,0.0,60.0,10.0,0.0
19198,40.0,0.0,60.0,11.0,0.0
19199,53.0,0.0,300.0,11.0,0.0
19200,41.0,240.0,300.0,11.0,0.0
19201,53.0,0.0,300.0,10.0,0.0
19202,85.0,0.0,120.0,7.0,0.0
19203,73.0,60.0,120.0,8.0,0.0
19204,68.0,0.0,60.0,8.0,0.0
19205,80.0,0.0,60.0,7.0,0.0
19206,54.0,60.0,240.0,10.0,0.0
19207,80.0,0.0,540.0,7.0,0.0
19208,54.0,0.0,240.0,11.0,0.0
19209,42.0,0.0,240.0,11.0,0.0
19210,68.0,120.0,540.0,8.0,0.0
19211,53.0,0.0,60.0,11.0,0.0
19212,41.0,60.0,60.0,11.0,0.0
19213,53.0,0.0,60.0,10.0,0.0
19214,52.0,0.0,60.0,10.0,0.0
19215,52.0,0.0,60.0,11.0,0.0
19216,40.0,60.0,15.0,11.0,0.0
19217,52.0,0.0,60.0,11.0,0.0
19218,52.0,0.0,60.0,10.0,0.0
19219,53.0,0.0,300.0,10.0,0.0
19220,41.0,0.0,300.0,11.0,0.0
19221,53.0,0.0,300.0,11.0,0.0
19222,77.0,0.0,120.0,8.0,0.0
19223,89.0,60.0,120.0,7.0,0.0
19224,73.0,240.0,60.0,8.0,0.0
19225,85.0,0.0,60.0,7.0,0.0
19226,42.0,0.0,240.0,11.0,0.0
19227,80.0,60.0,480.0,7.0,0.0
19228,54.0,60.0,240.0,10.0,0.0
19229,68.0,0.0,480.0,8.0,0.0
19230,54.0,0.0,240.0,11.0,0.0
19231,53.0,0.0,60.0,11.0,0.0
19232,41.0,0.0,60.0,11.0,0.0
19233,53.0,60.0,60.0,10.0,0.0
19234,52.0,0.0,60.0,10.0,0.0
19235,52.0,0.0,15.0,11.0,0.0
19236,40.0,60.0,15.0,11.0,0.0
19237,52.0,0.0,60.0,10.0,0.0
19238,53.0,0.0,300.0,10.0,0.0
19239,53.0,0.0,300.0,11.0,0.0
19240,41.0,240.0,300.0,11.0,0.0
19241,85.0,120.0,60.0,7.0,0.0
19242,73.0,0.0,60.0,8.0,0.0
19243,73.0,60.0,120.0,8.0,0.0
19244,85.0,0.0,120.0,7.0,0.0
19245,68.0,0.0,60.0,8.0,0.0
19246,68.0,60.0,480.0,8.0,0.0
19247,54.0,0.0,240.0,10.0,0.0
19248,54.0,60.0,240.0,11.0,0.0
19249,80.0,0.0,15.0,7.0,0.0
19250,42.0,0.0,240.0,11.0,0.0
19251,41.0,0.0,60.0,11.0,0.0
19252,53.0,0.0,60.0,11.0,0.0
19253,53.0,60.0,60.0,10.0,0.0
19254,52.0,60.0,60.0,10.0,0.0
19255,52.0,0.0,60.0,11.0,0.0
19256,40.0,0.0,60.0,11.0,0.0
19257,40.0,60.0,60.0,11.0,0.0
19258,52.0,0.0,60.0,11.0,0.0
19259,52.0,0.0,60.0,10.0,0.0
19260,53.0,0.0,300.0,10.0,0.0
19261,41.0,0.0,300.0,11.0,0.0
19262,53.0,0.0,300.0,11.0,0.0
19263,77.0,0.0,60.0,8.0,0.0
19264,89.0,60.0,15.0,7.0,0.0
19265,77.0,0.0,60.0,8.0,0.0
19266,75.0,60.0,60.0,8.0,0.0
19267,87.0,0.0,60.0,7.0,0.0
19268,85.0,0.0,60.0,7.0,0.0
19269,73.0,120.0,60.0,8.0,0.0
19270,42.0,60.0,240.0,11.0,0.0
19271,54.0,0.0,240.0,11.0,0.0
19272,54.0,0.0,240.0,10.0,0.0
19273,68.0,60.0,15.0,2.0,0.0
19274,80.0,0.0,15.0,2.0,0.0
19275,92.0,0.0,60.0,0.0,0.0
19276,80.0,60.0,60.0,7.0,0.0
19277,68.0,0.0,60.0,8.0,0.0
19278,68.0,0.0,15.0,3.0,0.0
19279,56.0,0.0,15.0,3.0,0.0
19280,68.0,0.0,120.0,4.0,0.0
19281,68.0,0.0,120.0,5.0,0.0
19282,56.0,0.0,120.0,6.0,0.0
19283,80.0,60.0,300.0,7.0,0.0
19284,68.0,0.0,300.0,8.0,0.0
19285,53.0,60.0,60.0,11.0,0.0
19286,41.0,0.0,60.0,11.0,0.0
19287,53.0,0.0,60.0,10.0,0.0
19288,52.0,60.0,60.0,11.0,0.0
19289,40.0,0.0,15.0,11.0,0.0
19290,52.0,0.0,15.0,10.0,0.0
19291,52.0,0.0,60.0,11.0,0.0
19292,53.0,120.0,300.0,10.0,0.0
19293,41.0,0.0,300.0,11.0,0.0
19294,53.0,0.0,300.0,11.0,0.0
19295,73.0,0.0,60.0,8.0,0.0
19296,85.0,180.0,60.0,7.0,0.0
19297,80.0,0.0,180.0,7.0,0.0
19298,68.0,0.0,180.0,8.0,0.0
19299,42.0,0.0,240.0,11.0,0.0
19300,54.0,0.0,240.0,10.0,0.0
19301,54.0,60.0,240.0,11.0,0.0
19302,68.0,60.0,15.0,2.0,0.0
19303,80.0,0.0,15.0,2.0,0.0
19304,92.0,0.0,15.0,0.0,0.0
19305,56.0,60.0,60.0,3.0,0.0
19306,68.0,0.0,15.0,3.0,0.0
19307,68.0,60.0,120.0,5.0,0.0
19308,80.0,0.0,15.0,7.0,0.0
19309,56.0,0.0,120.0,6.0,0.0
19310,68.0,0.0,15.0,8.0,0.0
19311,68.0,0.0,120.0,4.0,0.0
19312,92.0,0.0,15.0,0.0,0.0
19313,80.0,0.0,660.0,2.0,0.0
19314,68.0,0.0,660.0,2.0,0.0
19315,53.0,0.0,60.0,10.0,0.0
19316,41.0,0.0,60.0,11.0,0.0
19317,53.0,0.0,60.0,11.0,0.0
19318,52.0,0.0,60.0,10.0,0.0
19319,52.0,0.0,15.0,11.0,0.0
19320,40.0,60.0,15.0,11.0,0.0
19321,52.0,60.0,60.0,10.0,0.0
19322,53.0,0.0,300.0,11.0,0.0
19323,41.0,120.0,300.0,11.0,0.0
19324,53.0,0.0,300.0,10.0,0.0
19325,89.0,0.0,60.0,7.0,0.0
19326,77.0,180.0,60.0,8.0,0.0
19327,73.0,0.0,180.0,8.0,0.0
19328,85.0,0.0,180.0,7.0,0.0
19329,42.0,0.0,240.0,11.0,0.0
19330,54.0,0.0,240.0,11.0,0.0
19331,54.0,60.0,240.0,10.0,0.0
19332,92.0,0.0,60.0,0.0,0.0
19333,68.0,0.0,15.0,8.0,0.0
19334,68.0,0.0,15.0,3.0,0.0
19335,56.0,0.0,15.0,3.0,0.0
19336,80.0,60.0,15.0,7.0,0.0
19337,80.0,60.0,15.0,7.0,0.0
19338,80.0,0.0,15.0,2.0,0.0
19339,68.0,0.0,120.0,5.0,0.0
19340,68.0,0.0,15.0,2.0,0.0
19341,56.0,0.0,120.0,6.0,0.0
19342,68.0,0.0,120.0,4.0,0.0
19343,68.0,0.0,120.0,8.0,0.0
19344,56.0,0.0,120.0,3.0,0.0
19345,53.0,60.0,60.0,10.0,0.0
19346,53.0,0.0,60.0,11.0,0.0
19347,41.0,0.0,60.0,11.0,0.0
19348,56.0,0.0,60.0,3.0,0.0
19349,68.0,0.0,15.0,3.0,0.0
19350,68.0,0.0,60.0,8.0,0.0
19351,68.0,0.0,60.0,2.0,0.0
19352,92.0,0.0,15.0,0.0,0.0
19353,80.0,0.0,60.0,2.0,0.0
19354,52.0,0.0,60.0,10.0,0.0
19355,56.0,0.0,120.0,3.0,0.0
19356,80.0,60.0,15.0,7.0,0.0
19357,52.0,0.0,15.0,11.0,0.0
19358,40.0,0.0,15.0,11.0,0.0
19359,68.0,60.0,120.0,8.0,0.0
19360,52.0,0.0,60.0,10.0,0.0
19361,68.0,0.0,120.0,2.0,0.0
19362,68.0,0.0,120.0,3.0,0.0
19363,53.0,0.0,300.0,11.0,0.0
19364,41.0,0.0,300.0,11.0,0.0
19365,53.0,0.0,300.0,10.0,0.0
19366,85.0,120.0,60.0,7.0,0.0
19367,80.0,0.0,15.0,2.0,0.0
19368,92.0,0.0,15.0,0.0,0.0
19369,73.0,0.0,60.0,8.0,0.0
19370,80.0,0.0,15.0,2.0,0.0
19371,68.0,0.0,15.0,2.0,0.0
19372,68.0,0.0,120.0,8.0,0.0
19373,56.0,0.0,120.0,3.0,0.0
19374,92.0,0.0,120.0,0.0,0.0
19375,80.0,0.0,120.0,7.0,0.0
19376,80.0,0.0,15.0,2.0,0.0
19377,68.0,0.0,15.0,3.0,0.0
19378,68.0,60.0,15.0,2.0,0.0
19379,56.0,0.0,60.0,3.0,0.0
19380,92.0,0.0,60.0,0.0,0.0
19381,54.0,0.0,240.0,11.0,0.0
19382,68.0,0.0,15.0,8.0,0.0
19383,42.0,60.0,240.0,11.0,0.0
19384,80.0,120.0,15.0,7.0,0.0
19385,92.0,0.0,120.0,0.0,0.0
19386,54.0,0.0,240.0,10.0,0.0
19387,56.0,0.0,120.0,3.0,0.0
19388,68.0,0.0,120.0,3.0,0.0
19389,68.0,0.0,120.0,2.0,0.0
19390,80.0,0.0,120.0,2.0,0.0
19391,68.0,60.0,15.0,8.0,0.0
19392,68.0,0.0,15.0,2.0,0.0
19393,80.0,0.0,15.0,2.0,0.0
19394,68.0,0.0,15.0,8.0,0.0
19395,92.0,0.0,15.0,0.0,0.0
19396,68.0,60.0,120.0,5.0,0.0
19397,68.0,0.0,120.0,4.0,0.0
19398,80.0,60.0,15.0,7.0,0.0
19399,68.0,0.0,120.0,3.0,0.0
19400,56.0,0.0,120.0,6.0,0.0
19401,53.0,0.0,60.0,10.0,0.0
19402,41.0,0.0,60.0,11.0,0.0
19403,53.0,0.0,60.0,11.0,0.0
19404,56.0,0.0,15.0,3.0,0.0
19405,68.0,0.0,60.0,2.0,0.0
19406,52.0,0.0,60.0,10.0,0.0
19407,92.0,60.0,60.0,0.0,0.0
19408,80.0,0.0,60.0,2.0,0.0
19409,40.0,0.0,15.0,11.0,0.0
19410,52.0,0.0,15.0,11.0,0.0
19411,68.0,0.0,15.0,3.0,0.0
19412,80.0,0.0,15.0,7.0,0.0
19413,68.0,0.0,120.0,2.0,0.0
19414,80.0,0.0,120.0,2.0,0.0
19415,52.0,0.0,60.0,10.0,0.0
19416,56.0,0.0,120.0,3.0,0.0
19417,68.0,0.0,15.0,8.0,0.0
19418,92.0,0.0,120.0,0.0,0.0
19419,53.0,0.0,300.0,10.0,0.0
19420,41.0,0.0,300.0,11.0,0.0
19421,53.0,0.0,300.0,11.0,0.0
19422,92.0,0.0,60.0,0.0,0.0
19423,89.0,0.0,60.0,7.0,0.0
19424,77.0,0.0,60.0,8.0,0.0
19425,68.0,0.0,15.0,2.0,0.0
19426,80.0,120.0,15.0,2.0,0.0
19427,56.0,0.0,120.0,3.0,0.0
19428,68.0,0.0,120.0,3.0,0.0
19429,92.0,0.0,120.0,0.0,0.0
19430,85.0,0.0,15.0,7.0,0.0
19431,80.0,0.0,15.0,2.0,0.0
19432,68.0,0.0,15.0,2.0,0.0
19433,73.0,60.0,15.0,8.0,0.0
19434,54.0,0.0,240.0,11.0,0.0
19435,68.0,0.0,15.0,3.0,0.0
19436,92.0,0.0,15.0,0.0,0.0
19437,54.0,0.0,240.0,10.0,0.0
19438,56.0,0.0,15.0,3.0,0.0
19439,42.0,0.0,240.0,11.0,0.0
19440,68.0,60.0,60.0,2.0,0.0
19441,80.0,0.0,60.0,2.0,0.0
19442,68.0,0.0,15.0,3.0,0.0
19443,56.0,0.0,15.0,3.0,0.0
19444,80.0,0.0,15.0,7.0,0.0
19445,68.0,0.0,15.0,8.0,0.0
19446,92.0,0.0,60.0,0.0,0.0
19447,80.0,0.0,15.0,2.0,0.0
19448,68.0,0.0,15.0,2.0,0.0
19449,68.0,0.0,15.0,3.0,0.0
19450,56.0,0.0,15.0,3.0,0.0
19451,68.0,0.0,15.0,8.0,0.0
19452,80.0,0.0,60.0,7.0,0.0
19453,80.0,0.0,60.0,7.0,0.0
19454,68.0,0.0,120.0,4.0,0.0
19455,68.0,0.0,120.0,5.0,0.0
19456,56.0,0.0,120.0,6.0,0.0
19457,56.0,0.0,15.0,3.0,0.0
19458,68.0,0.0,15.0,8.0,0.0
19459,68.0,0.0,15.0,3.0,0.0
19460,92.0,0.0,15.0,0.0,0.0
19461,68.0,60.0,15.0,2.0,0.0
19462,41.0,60.0,60.0,11.0,0.0
19463,68.0,0.0,15.0,2.0,0.0
19464,53.0,0.0,60.0,10.0,0.0
19465,68.0,0.0,60.0,3.0,0.0
19466,53.0,0.0,60.0,11.0,0.0
19467,80.0,0.0,15.0,2.0,0.0
19468,92.0,0.0,60.0,0.0,0.0
19469,80.0,0.0,15.0,7.0,0.0
19470,56.0,0.0,15.0,3.0,0.0
19471,80.0,0.0,60.0,2.0,0.0
19472,68.0,0.0,60.0,2.0,0.0
19473,52.0,0.0,60.0,10.0,0.0
19474,68.0,0.0,15.0,8.0,0.0
19475,40.0,0.0,60.0,11.0,0.0
19476,52.0,0.0,60.0,11.0,0.0
19477,40.0,0.0,60.0,11.0,0.0
19478,56.0,0.0,15.0,3.0,0.0
19479,68.0,0.0,15.0,3.0,0.0
19480,92.0,60.0,15.0,0.0,0.0
19481,80.0,0.0,60.0,7.0,0.0
19482,68.0,0.0,15.0,8.0,0.0
19483,52.0,0.0,60.0,10.0,0.0
19484,52.0,0.0,60.0,11.0,0.0
19485,53.0,60.0,300.0,11.0,0.0
19486,41.0,0.0,300.0,11.0,0.0
19487,85.0,0.0,60.0,7.0,0.0
19488,68.0,0.0,15.0,3.0,0.0
19489,92.0,0.0,15.0,0.0,0.0
19490,53.0,0.0,300.0,10.0,0.0
19491,80.0,0.0,15.0,2.0,0.0
19492,68.0,60.0,15.0,2.0,0.0
19493,56.0,0.0,15.0,3.0,0.0
19494,80.0,0.0,15.0,2.0,0.0
19495,73.0,0.0,15.0,8.0,0.0
19496,85.0,0.0,60.0,7.0,0.0
19497,68.0,0.0,15.0,2.0,0.0
19498,92.0,0.0,15.0,0.0,0.0
19499,73.0,0.0,60.0,8.0,0.0
19500,85.0,0.0,60.0,7.0,0.0
19501,68.0,60.0,15.0,3.0,0.0
19502,56.0,0.0,15.0,3.0,0.0
19503,80.0,0.0,15.0,2.0,0.0
19504,92.0,0.0,15.0,0.0,0.0
19505,68.0,0.0,15.0,2.0,0.0
19506,80.0,0.0,60.0,7.0,0.0
19507,56.0,60.0,60.0,3.0,0.0
19508,68.0,60.0,15.0,3.0,0.0
19509,68.0,0.0,60.0,2.0,0.0
19510,80.0,0.0,60.0,7.0,0.0
19511,80.0,0.0,60.0,2.0,0.0
19512,68.0,0.0,15.0,8.0,0.0
19513,92.0,0.0,15.0,0.0,0.0
19514,56.0,0.0,15.0,3.0,0.0
19515,42.0,60.0,240.0,11.0,0.0
19516,54.0,0.0,240.0,11.0,0.0
19517,54.0,0.0,240.0,10.0,0.0
19518,80.0,60.0,60.0,7.0,0.0
19519,68.0,0.0,15.0,3.0,0.0
19520,92.0,0.0,15.0,0.0,0.0
19521,68.0,0.0,15.0,8.0,0.0
19522,68.0,0.0,15.0,2.0,0.0
19523,68.0,0.0,15.0,3.0,0.0
19524,56.0,0.0,15.0,3.0,0.0
19525,80.0,0.0,15.0,2.0,0.0
19526,68.0,0.0,15.0,8.0,0.0
19527,80.0,0.0,15.0,2.0,0.0
19528,80.0,60.0,15.0,7.0,0.0
19529,68.0,0.0,60.0,3.0,0.0
19530,68.0,0.0,15.0,2.0,0.0
19531,92.0,0.0,15.0,0.0,0.0
19532,56.0,0.0,60.0,3.0,0.0
19533,68.0,0.0,60.0,2.0,0.0
19534,80.0,0.0,60.0,2.0,0.0
19535,68.0,0.0,120.0,4.0,0.0
19536,68.0,0.0,120.0,5.0,0.0
19537,80.0,0.0,15.0,7.0,0.0
19538,92.0,60.0,15.0,0.0,0.0
19539,56.0,0.0,120.0,6.0,0.0
19540,68.0,0.0,60.0,8.0,0.0
19541,92.0,0.0,60.0,0.0,0.0
19542,53.0,0.0,60.0,10.0,0.0
19543,80.0,0.0,15.0,7.0,0.0
19544,68.0,0.0,15.0,3.0,0.0
19545,56.0,0.0,15.0,3.0,0.0
19546,41.0,0.0,60.0,11.0,0.0
19547,68.0,0.0,60.0,8.0,0.0
19548,80.0,0.0,60.0,2.0,0.0
19549,68.0,0.0,60.0,2.0,0.0
19550,53.0,0.0,60.0,11.0,0.0
19551,68.0,0.0,60.0,8.0,0.0
19552,92.0,0.0,60.0,0.0,0.0
19553,68.0,0.0,60.0,2.0,0.0
19554,52.0,60.0,60.0,11.0,0.0
19555,40.0,0.0,60.0,11.0,0.0
19556,56.0,60.0,15.0,3.0,0.0
19557,80.0,0.0,60.0,2.0,0.0
19558,68.0,0.0,60.0,3.0,0.0
19559,68.0,60.0,60.0,2.0,0.0
19560,80.0,0.0,60.0,2.0,0.0
19561,80.0,0.0,15.0,7.0,0.0
19562,68.0,0.0,60.0,8.0,0.0
19563,56.0,0.0,15.0,3.0,0.0
19564,52.0,0.0,15.0,10.0,0.0
19565,40.0,0.0,60.0,11.0,0.0
19566,52.0,0.0,60.0,11.0,0.0
19567,89.0,60.0,60.0,7.0,0.0
19568,68.0,0.0,15.0,3.0,0.0
19569,53.0,0.0,300.0,11.0,0.0
19570,92.0,0.0,15.0,0.0,0.0
19571,41.0,0.0,300.0,11.0,0.0
19572,53.0,0.0,300.0,10.0,0.0
19573,68.0,0.0,60.0,2.0,0.0
19574,80.0,0.0,60.0,2.0,0.0
19575,68.0,0.0,15.0,3.0,0.0
19576,92.0,0.0,15.0,0.0,0.0
19577,56.0,0.0,15.0,3.0,0.0
19578,77.0,0.0,15.0,8.0,0.0
19579,80.0,0.0,60.0,2.0,0.0
19580,68.0,0.0,15.0,3.0,0.0
19581,56.0,0.0,15.0,3.0,0.0
19582,77.0,0.0,15.0,8.0,0.0
19583,89.0,0.0,15.0,7.0,0.0
19584,68.0,0.0,15.0,2.0,0.0
19585,80.0,0.0,60.0,2.0,0.0
19586,92.0,60.0,15.0,0.0,0.0
19587,56.0,60.0,15.0,3.0,0.0
19588,73.0,0.0,60.0,8.0,0.0
19589,68.0,0.0,60.0,3.0,0.0
19590,92.0,0.0,15.0,0.0,0.0
19591,85.0,0.0,15.0,7.0,0.0
19592,80.0,60.0,15.0,2.0,0.0
19593,68.0,0.0,15.0,2.0,0.0
19594,73.0,30.0,60.0,8.0,0.0
19595,56.0,0.0,60.0,3.0,0.0
19596,68.0,0.0,60.0,3.0,0.0
19597,68.0,0.0,15.0,2.0,0.0
19598,92.0,0.0,15.0,0.0,0.0
19599,80.0,0.0,60.0,0.0,0.0
19600,80.0,0.0,15.0,2.0,0.0
19601,68.0,0.0,60.0,1.0,0.0
19602,54.0,0.0,240.0,11.0,0.0
19603,54.0,0.0,240.0,10.0,0.0
19604,80.0,0.0,60.0,1.0,0.0
19605,42.0,0.0,240.0,11.0,0.0
19606,68.0,0.0,30.0,8.0,0.0
19607,80.0,30.0,15.0,7.0,0.0
19608,68.0,0.0,30.0,8.0,0.0
19609,68.0,0.0,15.0,3.0,0.0
19610,56.0,0.0,15.0,3.0,0.0
19611,92.0,0.0,60.0,0.0,0.0
19612,68.0,30.0,15.0,2.0,0.0
19613,56.0,0.0,60.0,6.0,0.0
19614,68.0,0.0,60.0,1.0,0.0
19615,80.0,0.0,15.0,2.0,0.0
19616,68.0,0.0,60.0,5.0,0.0
19617,80.0,0.0,30.0,7.0,0.0
19618,80.0,0.0,60.0,1.0,0.0
19619,68.0,30.0,15.0,8.0,0.0
19620,80.0,0.0,30.0,7.0,0.0
19621,68.0,0.0,60.0,3.0,0.0
19622,80.0,0.0,15.0,2.0,0.0
19623,68.0,0.0,15.0,2.0,0.0
19624,68.0,30.0,60.0,5.0,0.0
19625,68.0,0.0,15.0,8.0,0.0
19626,56.0,0.0,15.0,3.0,0.0
19627,68.0,0.0,15.0,4.0,0.0
19628,68.0,0.0,60.0,1.0,0.0
19629,80.0,30.0,15.0,0.0,0.0
19630,80.0,30.0,15.0,7.0,0.0
19631,68.0,0.0,15.0,8.0,0.0
19632,80.0,0.0,15.0,2.0,0.0
19633,80.0,0.0,15.0,7.0,0.0
19634,56.0,0.0,15.0,6.0,0.0
19635,56.0,0.0,60.0,3.0,0.0
19636,68.0,0.0,60.0,4.0,0.0
19637,68.0,0.0,30.0,8.0,0.0
19638,68.0,0.0,60.0,3.0,0.0
19639,80.0,0.0,15.0,1.0,0.0
19640,92.0,0.0,15.0,0.0,0.0
19641,68.0,0.0,60.0,5.0,0.0
19642,92.0,30.0,30.0,7.0,0.0
19643,53.0,0.0,60.0,10.0,0.0
19644,80.0,0.0,15.0,2.0,0.0
19645,41.0,0.0,60.0,11.0,0.0
19646,68.0,0.0,15.0,2.0,0.0
19647,68.0,0.0,60.0,5.0,0.0
19648,80.0,0.0,15.0,8.0,0.0
19649,80.0,0.0,15.0,0.0,0.0
19650,53.0,0.0,60.0,11.0,0.0
19651,80.0,0.0,15.0,1.0,0.0
19652,68.0,0.0,60.0,4.0,0.0
19653,68.0,0.0,15.0,1.0,0.0
19654,56.0,0.0,60.0,3.0,0.0
19655,92.0,0.0,60.0,0.0,0.0
19656,68.0,0.0,60.0,3.0,0.0
19657,92.0,0.0,30.0,7.0,0.0
19658,92.0,0.0,30.0,7.0,0.0
19659,80.0,0.0,30.0,8.0,0.0
19660,68.0,0.0,60.0,1.0,0.0
19661,52.0,0.0,60.0,10.0,0.0
19662,68.0,0.0,60.0,4.0,0.0
19663,56.0,30.0,15.0,6.0,0.0
19664,80.0,0.0,60.0,1.0,0.0
19665,80.0,0.0,15.0,2.0,0.0
19666,68.0,0.0,15.0,2.0,0.0
19667,80.0,0.0,60.0,0.0,0.0
19668,52.0,0.0,60.0,11.0,0.0
19669,40.0,0.0,60.0,11.0,0.0
19670,92.0,0.0,60.0,0.0,0.0
19671,80.0,0.0,15.0,8.0,0.0
19672,92.0,30.0,15.0,7.0,0.0
19673,80.0,0.0,15.0,2.0,0.0
19674,80.0,0.0,60.0,0.0,0.0
19675,68.0,0.0,15.0,2.0,0.0
19676,68.0,0.0,15.0,5.0,0.0
19677,68.0,0.0,60.0,1.0,0.0
19678,68.0,0.0,15.0,3.0,0.0
19679,54.0,0.0,60.0,10.0,0.0
19680,42.0,0.0,60.0,11.0,0.0
19681,54.0,0.0,60.0,11.0,0.0
19682,56.0,30.0,15.0,3.0,0.0
19683,68.0,0.0,60.0,4.0,0.0
19684,92.0,0.0,15.0,7.0,0.0
19685,80.0,30.0,15.0,8.0,0.0
19686,80.0,0.0,15.0,8.0,0.0
19687,53.0,0.0,60.0,11.0,0.0
19688,41.0,0.0,60.0,11.0,0.0
19689,92.0,0.0,15.0,0.0,0.0
19690,80.0,0.0,15.0,1.0,0.0
19691,56.0,0.0,15.0,6.0,0.0
19692,92.0,0.0,15.0,7.0,0.0
19693,68.0,30.0,60.0,2.0,0.0
19694,68.0,30.0,15.0,5.0,0.0
19695,53.0,0.0,60.0,10.0,0.0
19696,80.0,0.0,60.0,2.0,0.0
19697,80.0,0.0,30.0,8.0,0.0
19698,92.0,0.0,30.0,7.0,0.0
19699,68.0,0.0,15.0,4.0,0.0
19700,92.0,0.0,15.0,0.0,0.0
19701,80.0,0.0,15.0,0.0,0.0
19702,52.0,0.0,60.0,10.0,0.0
19703,80.0,0.0,15.0,1.0,0.0
19704,68.0,0.0,15.0,1.0,0.0
19705,68.0,0.0,15.0,3.0,0.0
19706,56.0,0.0,15.0,3.0,0.0
19707,40.0,0.0,60.0,11.0,0.0
19708,52.0,0.0,60.0,11.0,0.0
19709,68.0,0.0,60.0,5.0,0.0
19710,80.0,0.0,30.0,8.0,0.0
19711,80.0,0.0,60.0,2.0,0.0
19712,92.0,30.0,15.0,7.0,0.0
19713,80.0,0.0,30.0,8.0,0.0
19714,92.0,0.0,15.0,7.0,0.0
19715,56.0,0.0,15.0,3.0,0.0
19716,68.0,0.0,60.0,3.0,0.0
19717,56.0,0.0,15.0,6.0,0.0
19718,54.0,30.0,60.0,10.0,0.0
19719,54.0,0.0,60.0,11.0,0.0
19720,80.0,0.0,60.0,0.0,0.0
19721,92.0,0.0,60.0,0.0,0.0
19722,42.0,0.0,60.0,11.0,0.0
19723,68.0,30.0,15.0,2.0,0.0
19724,80.0,0.0,60.0,2.0,0.0
19725,80.0,30.0,15.0,8.0,0.0
19726,92.0,0.0,30.0,7.0,0.0
19727,68.0,0.0,15.0,5.0,0.0
19728,53.0,0.0,60.0,11.0,0.0
19729,80.0,0.0,15.0,1.0,0.0
19730,68.0,0.0,15.0,1.0,0.0
19731,41.0,0.0,60.0,11.0,0.0
19732,80.0,0.0,60.0,2.0,0.0
19733,56.0,0.0,15.0,3.0,0.0
19734,68.0,0.0,60.0,2.0,0.0
19735,80.0,0.0,15.0,8.0,0.0
19736,56.0,0.0,15.0,6.0,0.0
19737,68.0,0.0,15.0,4.0,0.0
19738,53.0,0.0,60.0,10.0,0.0
19739,80.0,30.0,15.0,8.0,0.0
19740,92.0,0.0,15.0,7.0,0.0
19741,68.0,0.0,15.0,5.0,0.0
19742,56.0,0.0,15.0,6.0,0.0
19743,40.0,0.0,60.0,11.0,0.0
19744,92.0,0.0,30.0,7.0,0.0
19745,80.0,0.0,15.0,8.0,0.0
19746,52.0,0.0,60.0,11.0,0.0
19747,92.0,0.0,15.0,0.0,0.0
19748,80.0,0.0,15.0,0.0,0.0
19749,68.0,0.0,15.0,4.0,0.0
19750,68.0,0.0,60.0,1.0,0.0
19751,52.0,0.0,60.0,10.0,0.0
19752,68.0,90.0,60.0,2.0,0.0
19753,80.0,0.0,60.0,2.0,0.0
19754,68.0,30.0,15.0,3.0,0.0
19755,56.0,0.0,15.0,3.0,0.0
19756,80.0,0.0,15.0,1.0,0.0
19757,80.0,29.0,15.0,8.0,0.0
19758,41.0,0.0,90.0,11.0,0.0
19759,49.0,0.0,90.0,6.0,0.0
19760,80.0,0.0,15.0,8.0,0.0
19761,92.0,0.0,15.0,7.0,0.0
19762,53.0,0.0,90.0,10.0,0.0
19763,80.0,0.0,90.0,2.0,0.0
19764,77.0,0.0,90.0,2.0,0.0
19765,80.0,0.0,15.0,1.0,0.0
19766,92.0,0.0,90.0,0.0,0.0
19767,65.0,0.0,15.0,3.0,0.0
19768,68.0,0.0,15.0,3.0,0.0
19769,53.0,0.0,15.0,11.0,0.0
19770,85.0,0.0,15.0,1.0,0.0
19771,80.0,0.0,30.0,7.0,0.0
19772,49.0,0.0,30.0,6.0,0.0
19773,80.0,0.0,30.0,2.0,0.0
19774,80.0,0.0,30.0,1.0,0.0
19775,68.0,0.0,30.0,8.0,0.0
19776,65.0,0.0,30.0,10.0,0.0
19777,61.0,0.0,15.0,5.0,0.0
19778,61.0,0.0,15.0,4.0,0.0
19779,68.0,0.0,15.0,4.0,0.0
19780,92.0,0.0,30.0,0.0,0.0
19781,89.0,30.0,15.0,0.0,0.0
19782,53.0,0.0,60.0,11.0,0.0
19783,89.0,0.0,60.0,0.0,0.0
19784,92.0,0.0,60.0,0.0,0.0
19785,65.0,0.0,15.0,3.0,0.0
19786,80.0,0.0,60.0,7.0,0.0
19787,68.0,0.0,60.0,3.0,0.0
19788,61.0,0.0,60.0,4.0,0.0
19789,65.0,0.0,60.0,10.0,0.0
19790,68.0,0.0,60.0,4.0,0.0
19791,77.0,0.0,15.0,2.0,0.0
19792,68.0,0.0,60.0,8.0,0.0
19793,49.0,0.0,60.0,6.0,0.0
19794,85.0,0.0,60.0,1.0,0.0
19795,65.0,0.0,15.0,3.0,0.0
19796,73.0,0.0,90.0,8.0,0.0
19797,80.0,0.0,15.0,1.0,0.0
19798,85.0,0.0,90.0,1.0,0.0
19799,53.0,0.0,90.0,11.0,0.0
19800,68.0,0.0,90.0,3.0,0.0
19801,61.0,0.0,15.0,5.0,0.0
19802,77.0,90.0,15.0,2.0,0.0
19803,80.0,0.0,15.0,2.0,0.0
19804,68.0,0.0,90.0,4.0,0.0
19805,80.0,0.0,30.0,2.0,0.0
19806,73.0,0.0,30.0,8.0,0.0
19807,65.0,0.0,15.0,10.0,0.0
19808,80.0,0.0,30.0,1.0,0.0
19809,68.0,0.0,30.0,4.0,0.0
19810,61.0,0.0,15.0,4.0,0.0
19811,65.0,0.0,30.0,3.0,0.0
19812,92.0,0.0,15.0,0.0,0.0
19813,77.0,60.0,30.0,2.0,0.0
19814,89.0,0.0,15.0,0.0,0.0
19815,85.0,0.0,15.0,7.0,0.0
19816,68.0,0.0,30.0,3.0,0.0
19817,53.0,0.0,30.0,11.0,0.0
19818,49.0,30.0,15.0,6.0,0.0
19819,65.0,0.0,15.0,10.0,0.0
19820,61.0,0.0,15.0,4.0,0.0
19821,80.0,0.0,60.0,1.0,0.0
19822,85.0,0.0,15.0,1.0,0.0
19823,68.0,0.0,60.0,4.0,0.0
19824,53.0,0.0,60.0,11.0,0.0
19825,61.0,0.0,15.0,5.0,0.0
19826,85.0,0.0,60.0,7.0,0.0
19827,73.0,90.0,60.0,8.0,0.0
19828,80.0,0.0,60.0,2.0,0.0
19829,77.0,0.0,15.0,2.0,0.0
19830,80.0,0.0,90.0,2.0,0.0
19831,65.0,0.0,15.0,10.0,0.0
19832,92.0,0.0,15.0,0.0,0.0
19833,89.0,0.0,15.0,0.0,0.0
19834,68.0,0.0,15.0,3.0,0.0
19835,65.0,0.0,15.0,3.0,0.0
19836,77.0,0.0,90.0,8.0,0.0
19837,49.0,0.0,15.0,6.0,0.0
19838,61.0,0.0,90.0,5.0,0.0
19839,89.0,0.0,15.0,0.0,0.0
19840,92.0,0.0,30.0,0.0,0.0
19841,68.0,0.0,15.0,3.0,0.0
19842,61.0,0.0,30.0,5.0,0.0
19843,53.0,0.0,15.0,11.0,0.0
19844,80.0,0.0,30.0,2.0,0.0
19845,85.0,0.0,15.0,1.0,0.0
19846,80.0,0.0,15.0,1.0,0.0
19847,65.0,30.0,15.0,3.0,0.0
19848,89.0,0.0,15.0,7.0,0.0
19849,68.0,0.0,15.0,4.0,0.0
19850,61.0,0.0,15.0,4.0,0.0
19851,49.0,0.0,30.0,6.0,0.0
19852,89.0,0.0,15.0,0.0,0.0
19853,68.0,0.0,15.0,4.0,0.0
19854,61.0,0.0,15.0,4.0,0.0
19855,80.0,0.0,60.0,1.0,0.0
19856,77.0,0.0,15.0,2.0,0.0
19857,49.0,0.0,60.0,6.0,0.0
19858,65.0,60.0,15.0,3.0,0.0
19859,77.0,0.0,15.0,8.0,0.0
19860,89.0,0.0,60.0,7.0,0.0
19861,65.0,0.0,15.0,10.0,0.0
19862,68.0,0.0,15.0,3.0,0.0
19863,53.0,0.0,15.0,11.0,0.0
19864,61.0,0.0,15.0,5.0,0.0
19865,92.0,0.0,90.0,7.0,0.0
19866,49.0,0.0,90.0,6.0,0.0
19867,80.0,0.0,15.0,2.0,0.0
19868,73.0,0.0,90.0,2.0,0.0
19869,68.0,0.0,15.0,4.0,0.0
19870,61.0,0.0,15.0,4.0,0.0
19871,85.0,90.0,15.0,1.0,0.0
19872,68.0,0.0,15.0,3.0,0.0
19873,65.0,0.0,15.0,3.0,0.0
19874,92.0,0.0,15.0,0.0,0.0
19875,85.0,0.0,90.0,0.0,0.0
19876,80.0,0.0,15.0,2.0,0.0
19877,80.0,0.0,15.0,8.0,0.0
19878,73.0,0.0,30.0,2.0,0.0
19879,65.0,0.0,15.0,10.0,0.0
19880,53.0,0.0,15.0,11.0,0.0
19881,68.0,0.0,15.0,4.0,0.0
19882,92.0,0.0,30.0,0.0,0.0
19883,65.0,30.0,15.0,3.0,0.0
19884,85.0,0.0,15.0,1.0,0.0
19885,80.0,0.0,15.0,1.0,0.0
19886,49.0,0.0,15.0,6.0,0.0
19887,65.0,0.0,15.0,10.0,0.0
19888,85.0,0.0,15.0,1.0,0.0
19889,80.0,0.0,15.0,1.0,0.0
19890,53.0,0.0,15.0,11.0,0.0
19891,68.0,0.0,60.0,4.0,0.0
19892,68.0,0.0,15.0,3.0,0.0
19893,92.0,0.0,60.0,0.0,0.0
19894,85.0,0.0,15.0,0.0,0.0
19895,65.0,0.0,15.0,3.0,0.0
19896,61.0,0.0,15.0,4.0,0.0
19897,92.0,0.0,15.0,7.0,0.0
19898,80.0,0.0,60.0,2.0,0.0
19899,61.0,60.0,15.0,5.0,0.0
19900,80.0,0.0,15.0,8.0,0.0
19901,73.0,0.0,90.0,4.0,0.0
19902,66.0,0.0,90.0,3.0,0.0
19903,66.0,0.0,90.0,5.0,0.0
19904,42.0,0.0,90.0,11.0,0.0
19905,49.0,0.0,15.0,6.0,0.0
19906,54.0,0.0,90.0,5.0,0.0
19907,61.0,0.0,90.0,4.0,0.0
19908,54.0,0.0,90.0,10.0,0.0
19909,73.0,0.0,15.0,2.0,0.0
19910,82.0,0.0,90.0,2.0,0.0
19911,85.0,0.0,15.0,1.0,0.0
19912,85.0,90.0,15.0,0.0,0.0
19913,94.0,0.0,90.0,0.0,0.0
19914,82.0,0.0,15.0,7.0,0.0
19915,70.0,0.0,15.0,3.0,0.0
19916,70.0,0.0,15.0,8.0,0.0
19917,85.0,0.0,15.0,1.0,0.0
19918,82.0,0.0,15.0,1.0,0.0
19919,85.0,0.0,30.0,0.0,0.0
19920,94.0,0.0,30.0,0.0,0.0
19921,73.0,0.0,30.0,4.0,0.0
19922,61.0,0.0,30.0,4.0,0.0
19923,54.0,0.0,30.0,11.0,0.0
19924,66.0,0.0,30.0,10.0,0.0
19925,54.0,0.0,30.0,5.0,0.0
19926,49.0,0.0,30.0,6.0,0.0
19927,70.0,0.0,15.0,8.0,0.0
19928,85.0,0.0,60.0,0.0,0.0
19929,94.0,0.0,60.0,0.0,0.0
19930,82.0,90.0,60.0,1.0,0.0
19931,85.0,0.0,60.0,1.0,0.0
19932,73.0,0.0,60.0,4.0,0.0
19933,54.0,0.0,60.0,11.0,0.0
19934,66.0,0.0,15.0,5.0,0.0
19935,61.0,0.0,60.0,4.0,0.0
19936,82.0,0.0,60.0,7.0,0.0
19937,70.0,0.0,15.0,3.0,0.0
19938,49.0,0.0,60.0,6.0,0.0
19939,66.0,0.0,15.0,3.0,0.0
19940,82.0,60.0,15.0,2.0,0.0
19941,73.0,0.0,15.0,2.0,0.0
19942,54.0,0.0,90.0,11.0,0.0
19943,73.0,0.0,90.0,8.0,0.0
19944,54.0,0.0,15.0,5.0,0.0
19945,85.0,0.0,90.0,7.0,0.0
19946,90.0,0.0,90.0,0.0,0.0
19947,66.0,0.0,15.0,5.0,0.0
19948,66.0,0.0,15.0,10.0,0.0
19949,82.0,0.0,90.0,1.0,0.0
19950,94.0,0.0,90.0,0.0,0.0
19951,70.0,0.0,15.0,3.0,0.0
19952,66.0,0.0,15.0,3.0,0.0
19953,49.0,0.0,15.0,6.0,0.0
19954,82.0,0.0,15.0,2.0,0.0
19955,73.0,0.0,15.0,4.0,0.0
19956,61.0,0.0,15.0,4.0,0.0
19957,78.0,0.0,15.0,2.0,0.0
19958,85.0,30.0,15.0,1.0,0.0
19959,66.0,0.0,30.0,5.0,0.0
19960,54.0,0.0,30.0,5.0,0.0
19961,85.0,0.0,30.0,7.0,0.0
19962,82.0,0.0,15.0,1.0,0.0
19963,85.0,0.0,15.0,1.0,0.0
19964,66.0,0.0,60.0,3.0,0.0
19965,70.0,0.0,60.0,3.0,0.0
19966,73.0,0.0,15.0,8.0,0.0
19967,49.0,0.0,15.0,6.0,0.0
19968,66.0,0.0,15.0,10.0,0.0
19969,73.0,0.0,15.0,4.0,0.0
19970,54.0,60.0,15.0,11.0,0.0
19971,94.0,0.0,15.0,0.0,0.0
19972,90.0,0.0,15.0,0.0,0.0
19973,85.0,0.0,60.0,7.0,0.0
19974,54.0,0.0,15.0,11.0,0.0
19975,78.0,0.0,15.0,2.0,0.0
19976,82.0,0.0,15.0,2.0,0.0
19977,66.0,0.0,15.0,10.0,0.0
19978,49.0,0.0,15.0,6.0,0.0
19979,85.0,0.0,15.0,1.0,0.0
19980,94.0,0.0,15.0,0.0,0.0
19981,90.0,0.0,15.0,0.0,0.0
19982,66.0,0.0,15.0,5.0,0.0
19983,54.0,0.0,15.0,5.0,0.0
19984,61.0,90.0,15.0,4.0,0.0
19985,73.0,0.0,15.0,4.0,0.0
19986,66.0,0.0,90.0,3.0,0.0
19987,70.0,0.0,90.0,3.0,0.0
19988,94.0,0.0,15.0,0.0,0.0
19989,85.0,0.0,15.0,1.0,0.0
19990,82.0,0.0,15.0,1.0,0.0
19991,78.0,0.0,15.0,8.0,0.0
19992,61.0,0.0,15.0,4.0,0.0
19993,66.0,0.0,30.0,10.0,0.0
19994,90.0,0.0,15.0,7.0,0.0
19995,90.0,0.0,15.0,0.0,0.0
19996,66.0,0.0,15.0,5.0,0.0
19997,54.0,30.0,15.0,11.0,0.0
19998,54.0,0.0,15.0,5.0,0.0
19999,66.0,0.0,30.0,3.0,0.0
20000,73.0,0.0,15.0,4.0,0.0
20001,82.0,0.0,15.0,2.0,0.0
20002,78.0,0.0,15.0,2.0,0.0
20003,49.0,0.0,15.0,6.0,0.0
20004,66.0,0.0,60.0,10.0,0.0
20005,70.0,0.0,15.0,3.0,0.0
20006,78.0,0.0,60.0,8.0,0.0
20007,54.0,0.0,15.0,5.0,0.0
20008,82.0,0.0,15.0,2.0,0.0
20009,78.0,0.0,15.0,2.0,0.0
20010,73.0,0.0,15.0,4.0,0.0
20011,94.0,0.0,15.0,0.0,0.0
20012,90.0,0.0,60.0,0.0,0.0
20013,61.0,60.0,15.0,4.0,0.0
20014,90.0,0.0,15.0,7.0,0.0
20015,85.0,0.0,15.0,1.0,0.0
20016,82.0,0.0,15.0,1.0,0.0
20017,66.0,0.0,15.0,5.0,0.0
20018,54.0,0.0,15.0,11.0,0.0
20019,66.0,0.0,15.0,3.0,0.0
20020,70.0,0.0,90.0,3.0,0.0
20021,94.0,0.0,90.0,7.0,0.0
20022,66.0,0.0,90.0,10.0,0.0
20023,49.0,90.0,15.0,6.0,0.0
20024,61.0,0.0,90.0,4.0,0.0
20025,82.0,0.0,90.0,2.0,0.0
20026,54.0,0.0,15.0,5.0,0.0
20027,66.0,0.0,15.0,5.0,0.0
20028,66.0,0.0,30.0,3.0,0.0
20029,70.0,0.0,30.0,3.0,0.0
20030,66.0,0.0,30.0,10.0,0.0
20031,73.0,0.0,15.0,4.0,0.0
20032,85.0,0.0,15.0,1.0,0.0
20033,82.0,0.0,15.0,1.0,0.0
20034,78.0,0.0,15.0,2.0,0.0
20035,49.0,0.0,15.0,6.0,0.0
20036,82.0,0.0,15.0,8.0,0.0
20037,94.0,30.0,15.0,0.0,0.0
20038,90.0,0.0,15.0,0.0,0.0
20039,54.0,0.0,15.0,5.0,0.0
20040,66.0,0.0,15.0,5.0,0.0
20041,94.0,0.0,15.0,7.0,0.0
20042,66.0,0.0,60.0,10.0,0.0
20043,54.0,0.0,15.0,11.0,0.0
20044,82.0,0.0,15.0,2.0,0.0
20045,78.0,0.0,15.0,2.0,0.0
20046,49.0,0.0,60.0,6.0,0.0
20047,66.0,0.0,60.0,3.0,0.0
20048,70.0,0.0,60.0,3.0,0.0
20049,61.0,0.0,15.0,4.0,0.0
20050,73.0,0.0,15.0,4.0,0.0
20051,94.0,60.0,15.0,0.0,0.0
20052,90.0,90.0,60.0,0.0,0.0
20053,85.0,0.0,15.0,1.0,0.0
20054,82.0,0.0,15.0,1.0,0.0
20055,82.0,0.0,60.0,8.0,0.0
20056,56.0,0.0,360.0,4.0,0.0
20057,56.0,60.0,120.0,11.0,0.0
20058,80.0,30.0,90.0,8.0,0.0
20059,56.0,0.0,120.0,6.0,0.0
20060,65.0,0.0,360.0,3.0,0.0
20061,61.0,0.0,360.0,3.0,0.0
20062,92.0,0.0,90.0,7.0,0.0
20063,68.0,0.0,120.0,5.0,0.0
20064,85.0,0.0,360.0,1.0,0.0
20065,80.0,0.0,360.0,1.0,0.0
20066,68.0,0.0,120.0,10.0,0.0
20067,92.0,0.0,360.0,0.0,0.0
20068,89.0,0.0,360.0,0.0,0.0
20069,97.0,0.0,30.0,7.0,0.0
20070,85.0,0.0,30.0,8.0,0.0
20071,80.0,0.0,60.0,8.0,0.0
20072,80.0,30.0,270.0,8.0,0.0
20073,92.0,120.0,15.0,7.0,0.0
20074,73.0,0.0,30.0,10.0,0.0
20075,61.0,60.0,30.0,11.0,0.0
20076,56.0,0.0,60.0,11.0,0.0
20077,80.0,0.0,15.0,2.0,0.0
20078,56.0,0.0,120.0,6.0,0.0
20079,68.0,0.0,15.0,4.0,0.0
20080,68.0,0.0,15.0,10.0,0.0
20081,65.0,0.0,360.0,3.0,0.0
20082,61.0,0.0,360.0,3.0,0.0
20083,68.0,0.0,120.0,5.0,0.0
20084,56.0,0.0,120.0,11.0,0.0
20085,77.0,90.0,15.0,2.0,0.0
20086,80.0,0.0,30.0,8.0,0.0
20087,92.0,60.0,30.0,7.0,0.0
20088,77.0,120.0,60.0,8.0,0.0
20089,89.0,0.0,15.0,7.0,0.0
20090,68.0,0.0,30.0,11.0,0.0
20091,80.0,60.0,30.0,10.0,0.0
20092,65.0,0.0,60.0,11.0,0.0
20093,80.0,0.0,15.0,1.0,0.0
20094,77.0,0.0,15.0,2.0,0.0
20095,85.0,0.0,15.0,1.0,0.0
20096,65.0,0.0,120.0,11.0,0.0
20097,77.0,0.0,15.0,10.0,0.0
20098,65.0,0.0,360.0,3.0,0.0
20099,68.0,90.0,15.0,4.0,0.0
20100,56.0,0.0,15.0,4.0,0.0
20101,68.0,0.0,120.0,5.0,0.0
20102,61.0,0.0,360.0,3.0,0.0
20103,92.0,0.0,15.0,0.0,0.0
20104,56.0,60.0,120.0,6.0,0.0
20105,89.0,0.0,15.0,0.0,0.0
20106,77.0,0.0,15.0,8.0,0.0
20107,89.0,30.0,15.0,7.0,0.0
20108,73.0,0.0,30.0,10.0,0.0
20109,73.0,90.0,30.0,11.0,0.0
20110,68.0,0.0,120.0,10.0,0.0
20111,68.0,0.0,120.0,11.0,0.0
20112,73.0,30.0,15.0,8.0,0.0
20113,85.0,0.0,15.0,7.0,0.0
20114,80.0,0.0,150.0,7.0,0.0
20115,68.0,0.0,30.0,11.0,0.0
20116,68.0,0.0,30.0,10.0,0.0
20117,77.0,0.0,180.0,1.0,0.0
20118,80.0,0.0,15.0,2.0,0.0
20119,77.0,0.0,15.0,2.0,0.0
20120,65.0,0.0,120.0,10.0,0.0
20121,89.0,0.0,180.0,1.0,0.0
20122,49.0,60.0,120.0,6.0,0.0
20123,89.0,0.0,180.0,0.0,0.0
20124,61.0,0.0,120.0,5.0,0.0
20125,73.0,0.0,120.0,5.0,0.0
20126,65.0,0.0,120.0,11.0,0.0
20127,68.0,90.0,15.0,4.0,0.0
20128,65.0,0.0,180.0,3.0,0.0
20129,56.0,0.0,15.0,4.0,0.0
20130,68.0,30.0,15.0,8.0,0.0
20131,80.0,0.0,30.0,7.0,0.0
20132,65.0,0.0,150.0,8.0,0.0
20133,65.0,0.0,30.0,10.0,0.0
20134,65.0,0.0,30.0,11.0,0.0
20135,73.0,0.0,180.0,2.0,0.0
20136,61.0,60.0,120.0,11.0,0.0
20137,97.0,0.0,180.0,0.0,0.0
20138,85.0,0.0,180.0,0.0,0.0
20139,85.0,0.0,180.0,2.0,0.0
20140,73.0,0.0,180.0,3.0,0.0
20141,61.0,0.0,15.0,3.0,0.0
20142,73.0,0.0,120.0,5.0,0.0
20143,61.0,0.0,120.0,5.0,0.0
20144,61.0,0.0,120.0,10.0,0.0
20145,73.0,0.0,180.0,1.0,0.0
20146,85.0,0.0,180.0,1.0,0.0
20147,49.0,0.0,120.0,6.0,0.0
20148,77.0,30.0,15.0,7.0,0.0
20149,65.0,0.0,30.0,8.0,0.0
20150,73.0,0.0,150.0,7.0,0.0
20151,61.0,30.0,150.0,8.0,0.0
20152,61.0,0.0,30.0,10.0,0.0
20153,61.0,0.0,30.0,11.0,0.0
20154,58.0,0.0,120.0,11.0,0.0
20155,61.0,0.0,120.0,5.0,0.0
20156,61.0,90.0,15.0,4.0,0.0
20157,73.0,0.0,15.0,4.0,0.0
20158,70.0,0.0,180.0,2.0,0.0
20159,73.0,0.0,120.0,5.0,0.0
20160,58.0,0.0,180.0,3.0,0.0
20161,58.0,0.0,120.0,10.0,0.0
20162,49.0,60.0,120.0,6.0,0.0
20163,82.0,90.0,180.0,1.0,0.0
20164,82.0,0.0,180.0,0.0,0.0
20165,94.0,0.0,180.0,0.0,0.0
20166,82.0,0.0,180.0,2.0,0.0
20167,70.0,0.0,180.0,3.0,0.0
20168,73.0,0.0,30.0,8.0,0.0
20169,73.0,0.0,30.0,7.0,0.0
20170,70.0,0.0,150.0,7.0,0.0
20171,58.0,0.0,30.0,11.0,0.0
20172,58.0,0.0,30.0,10.0,0.0
20173,49.0,0.0,120.0,6.0,0.0
20174,56.0,0.0,120.0,11.0,0.0
20175,61.0,0.0,120.0,5.0,0.0
20176,56.0,0.0,120.0,10.0,0.0
20177,73.0,0.0,120.0,5.0,0.0
20178,92.0,0.0,180.0,0.0,0.0
20179,80.0,0.0,180.0,0.0,0.0
20180,68.0,0.0,180.0,3.0,0.0
20181,73.0,60.0,180.0,4.0,0.0
20182,61.0,0.0,15.0,4.0,0.0
20183,80.0,0.0,180.0,1.0,0.0
20184,56.0,0.0,180.0,3.0,0.0
20185,80.0,0.0,180.0,2.0,0.0
20186,68.0,0.0,180.0,2.0,0.0
20187,70.0,30.0,15.0,8.0,0.0
20188,70.0,0.0,30.0,7.0,0.0
20189,68.0,0.0,60.0,7.0,0.0
20190,68.0,0.0,60.0,8.0,0.0
20191,56.0,0.0,30.0,11.0,0.0
20192,44.0,0.0,30.0,11.0,0.0
20193,56.0,0.0,30.0,10.0,0.0
20194,55.0,0.0,120.0,11.0,0.0
20195,43.0,0.0,120.0,11.0,0.0
20196,91.0,0.0,60.0,0.0,0.0
20197,79.0,0.0,60.0,0.0,0.0
20198,73.0,0.0,120.0,5.0,0.0
20199,67.0,0.0,120.0,7.0,0.0
20200,79.0,0.0,60.0,1.0,0.0
20201,67.0,0.0,120.0,8.0,0.0
20202,55.0,0.0,120.0,10.0,0.0
20203,67.0,60.0,60.0,3.0,0.0
20204,61.0,0.0,120.0,5.0,0.0
20205,55.0,0.0,60.0,3.0,0.0
20206,67.0,0.0,60.0,2.0,0.0
20207,79.0,0.0,60.0,2.0,0.0
20208,61.0,0.0,60.0,4.0,0.0
20209,49.0,0.0,120.0,6.0,0.0
20210,73.0,0.0,60.0,4.0,0.0
20211,87.0,0.0,30.0,0.0,0.0
20212,94.0,0.0,30.0,0.0,0.0
20213,67.0,0.0,30.0,3.0,0.0
20214,82.0,60.0,30.0,1.0,0.0
20215,85.0,0.0,30.0,1.0,0.0
20216,82.0,0.0,30.0,2.0,0.0
20217,73.0,0.0,15.0,4.0,0.0
20218,75.0,0.0,15.0,4.0,0.0
20219,75.0,0.0,15.0,2.0,0.0
20220,94.0,0.0,60.0,0.0,0.0
20221,70.0,0.0,15.0,3.0,0.0
20222,82.0,0.0,60.0,2.0,0.0
20223,67.0,0.0,60.0,3.0,0.0
20224,85.0,0.0,60.0,1.0,0.0
20225,87.0,0.0,15.0,0.0,0.0
20226,82.0,120.0,15.0,1.0,0.0
20227,67.0,0.0,120.0,3.0,0.0
20228,73.0,0.0,15.0,4.0,0.0
20229,85.0,60.0,120.0,1.0,0.0
20230,70.0,0.0,120.0,3.0,0.0
20231,75.0,0.0,120.0,4.0,0.0
20232,94.0,0.0,120.0,0.0,0.0
20233,75.0,0.0,120.0,2.0,0.0
20234,82.0,0.0,120.0,2.0,0.0
20235,55.0,0.0,30.0,10.0,0.0
20236,43.0,0.0,15.0,11.0,0.0
20237,67.0,0.0,15.0,8.0,0.0
20238,55.0,0.0,15.0,11.0,0.0
20239,67.0,0.0,15.0,7.0,0.0
20240,55.0,0.0,60.0,10.0,0.0
20241,49.0,0.0,120.0,6.0,0.0
20242,55.0,0.0,120.0,10.0,0.0
20243,73.0,60.0,120.0,5.0,0.0
20244,67.0,0.0,120.0,8.0,0.0
20245,61.0,0.0,120.0,5.0,0.0
20246,43.0,120.0,15.0,11.0,0.0
20247,55.0,0.0,120.0,11.0,0.0
20248,67.0,0.0,120.0,7.0,0.0
20249,85.0,0.0,30.0,1.0,0.0
20250,73.0,0.0,30.0,4.0,0.0
20251,87.0,0.0,30.0,0.0,0.0
20252,94.0,0.0,30.0,0.0,0.0
20253,75.0,0.0,30.0,4.0,0.0
20254,70.0,0.0,15.0,3.0,0.0
20255,75.0,0.0,60.0,4.0,0.0
20256,75.0,0.0,15.0,2.0,0.0
20257,82.0,0.0,15.0,2.0,0.0
20258,67.0,0.0,15.0,3.0,0.0
20259,82.0,0.0,15.0,1.0,0.0
20260,67.0,0.0,15.0,3.0,0.0
20261,70.0,0.0,15.0,3.0,0.0
20262,82.0,0.0,15.0,1.0,0.0
20263,75.0,120.0,15.0,2.0,0.0
20264,82.0,0.0,120.0,2.0,0.0
20265,85.0,0.0,15.0,1.0,0.0
20266,73.0,0.0,15.0,4.0,0.0
20267,94.0,0.0,15.0,0.0,0.0
20268,87.0,0.0,15.0,0.0,0.0
20269,75.0,60.0,120.0,4.0,0.0
20270,43.0,0.0,30.0,11.0,0.0
20271,55.0,0.0,30.0,11.0,0.0
20272,67.0,0.0,30.0,7.0,0.0
20273,67.0,0.0,30.0,8.0,0.0
20274,55.0,120.0,60.0,11.0,0.0
20275,55.0,0.0,15.0,10.0,0.0
20276,67.0,0.0,60.0,8.0,0.0
20277,67.0,0.0,60.0,7.0,0.0
20278,43.0,0.0,60.0,11.0,0.0
20279,54.0,0.0,120.0,10.0,0.0
20280,68.0,0.0,120.0,5.0,0.0
20281,66.0,0.0,120.0,7.0,0.0
20282,56.0,0.0,120.0,6.0,0.0
20283,66.0,0.0,120.0,8.0,0.0
20284,42.0,0.0,120.0,11.0,0.0
20285,54.0,0.0,120.0,11.0,0.0
20286,80.0,0.0,30.0,1.0,0.0
20287,84.0,0.0,30.0,1.0,0.0
20288,68.0,0.0,30.0,4.0,0.0
20289,87.0,0.0,30.0,0.0,0.0
20290,80.0,0.0,30.0,2.0,0.0
20291,84.0,0.0,60.0,1.0,0.0
20292,68.0,0.0,15.0,3.0,0.0
20293,66.0,0.0,15.0,3.0,0.0
20294,68.0,0.0,60.0,4.0,0.0
20295,75.0,0.0,15.0,4.0,0.0
20296,92.0,0.0,15.0,0.0,0.0
20297,80.0,120.0,60.0,1.0,0.0
20298,75.0,60.0,15.0,2.0,0.0
20299,68.0,0.0,120.0,4.0,0.0
20300,75.0,0.0,15.0,4.0,0.0
20301,68.0,0.0,15.0,3.0,0.0
20302,75.0,0.0,120.0,2.0,0.0
20303,80.0,0.0,15.0,2.0,0.0
20304,66.0,0.0,120.0,3.0,0.0
20305,87.0,0.0,15.0,0.0,0.0
20306,84.0,0.0,120.0,1.0,0.0
20307,92.0,0.0,120.0,0.0,0.0
20308,80.0,60.0,120.0,1.0,0.0
20309,66.0,0.0,30.0,7.0,0.0
20310,54.0,0.0,30.0,10.0,0.0
20311,42.0,0.0,15.0,11.0,0.0
20312,66.0,0.0,15.0,8.0,0.0
20313,54.0,0.0,15.0,11.0,0.0
20314,54.0,0.0,60.0,10.0,0.0
20315,66.0,0.0,15.0,7.0,0.0
20316,66.0,0.0,120.0,8.0,0.0
20317,54.0,120.0,15.0,11.0,0.0
20318,68.0,0.0,120.0,5.0,0.0
20319,42.0,0.0,15.0,11.0,0.0
20320,56.0,0.0,120.0,6.0,0.0
20321,54.0,0.0,120.0,10.0,0.0
20322,80.0,0.0,30.0,1.0,0.0
20323,87.0,0.0,30.0,0.0,0.0
20324,75.0,0.0,30.0,4.0,0.0
20325,68.0,0.0,30.0,4.0,0.0
20326,92.0,0.0,30.0,0.0,0.0
20327,66.0,60.0,30.0,3.0,0.0
20328,80.0,0.0,15.0,2.0,0.0
20329,75.0,0.0,15.0,2.0,0.0
20330,84.0,0.0,15.0,1.0,0.0
20331,87.0,0.0,60.0,0.0,0.0
20332,68.0,0.0,60.0,4.0,0.0
20333,75.0,0.0,60.0,4.0,0.0
20334,68.0,0.0,15.0,3.0,0.0
20335,80.0,0.0,15.0,1.0,0.0
20336,92.0,0.0,15.0,0.0,0.0
20337,68.0,0.0,15.0,3.0,0.0
20338,66.0,0.0,15.0,3.0,0.0
20339,84.0,0.0,120.0,1.0,0.0
20340,68.0,0.0,120.0,4.0,0.0
20341,75.0,0.0,120.0,4.0,0.0
20342,75.0,120.0,15.0,2.0,0.0
20343,87.0,0.0,120.0,0.0,0.0
20344,80.0,0.0,120.0,2.0,0.0
20345,66.0,0.0,30.0,7.0,0.0
20346,54.0,0.0,15.0,10.0,0.0
20347,66.0,0.0,15.0,8.0,0.0
20348,66.0,0.0,60.0,7.0,0.0
20349,54.0,0.0,15.0,11.0,0.0
20350,42.0,0.0,15.0,11.0,0.0
20351,73.0,0.0,120.0,5.0,0.0
20352,61.0,0.0,120.0,5.0,0.0
20353,65.0,0.0,120.0,8.0,0.0
20354,65.0,0.0,120.0,7.0,0.0
20355,53.0,0.0,120.0,10.0,0.0
20356,41.0,0.0,120.0,11.0,0.0
20357,53.0,60.0,120.0,11.0,0.0
20358,49.0,0.0,120.0,6.0,0.0
20359,89.0,0.0,30.0,0.0,0.0
20360,80.0,0.0,30.0,1.0,0.0
20361,77.0,0.0,30.0,2.0,0.0
20362,80.0,0.0,15.0,2.0,0.0
20363,92.0,0.0,15.0,0.0,0.0
20364,73.0,0.0,15.0,4.0,0.0
20365,89.0,0.0,60.0,0.0,0.0
20366,68.0,0.0,15.0,3.0,0.0
20367,65.0,0.0,15.0,3.0,0.0
20368,73.0,0.0,60.0,2.0,0.0
20369,80.0,0.0,60.0,1.0,0.0
20370,85.0,0.0,15.0,1.0,0.0
20371,82.0,0.0,120.0,2.0,0.0
20372,73.0,0.0,120.0,2.0,0.0
20373,73.0,0.0,120.0,4.0,0.0
20374,94.0,60.0,120.0,0.0,0.0
20375,82.0,0.0,120.0,1.0,0.0
20376,78.0,0.0,120.0,1.0,0.0
20377,70.0,0.0,120.0,3.0,0.0
20378,85.0,0.0,120.0,0.0,0.0
20379,66.0,0.0,120.0,3.0,0.0
20380,54.0,0.0,30.0,11.0,0.0
20381,66.0,0.0,30.0,8.0,0.0
20382,42.0,0.0,15.0,11.0,0.0
20383,66.0,0.0,15.0,7.0,0.0
20384,54.0,0.0,60.0,11.0,0.0
20385,66.0,0.0,60.0,8.0,0.0
20386,54.0,0.0,15.0,10.0,0.0
20387,56.0,0.0,120.0,11.0,0.0
20388,56.0,60.0,120.0,6.0,0.0
20389,68.0,0.0,120.0,8.0,0.0
20390,68.0,0.0,120.0,7.0,0.0
20391,44.0,0.0,120.0,11.0,0.0
20392,68.0,0.0,120.0,5.0,0.0
20393,56.0,0.0,120.0,10.0,0.0
20394,92.0,0.0,30.0,0.0,0.0
20395,77.0,0.0,30.0,2.0,0.0
20396,80.0,0.0,30.0,1.0,0.0
20397,77.0,0.0,30.0,1.0,0.0
20398,68.0,0.0,30.0,4.0,0.0
20399,65.0,0.0,30.0,3.0,0.0
20400,68.0,0.0,30.0,3.0,0.0
20401,80.0,0.0,30.0,2.0,0.0
20402,89.0,0.0,15.0,0.0,0.0
20403,77.0,0.0,60.0,2.0,0.0
20404,68.0,0.0,60.0,4.0,0.0
20405,65.0,0.0,60.0,3.0,0.0
20406,68.0,0.0,60.0,3.0,0.0
20407,92.0,120.0,60.0,0.0,0.0
20408,80.0,0.0,60.0,2.0,0.0
20409,77.0,0.0,60.0,1.0,0.0
20410,80.0,0.0,60.0,1.0,0.0
20411,78.0,0.0,120.0,1.0,0.0
20412,75.0,0.0,120.0,1.0,0.0
20413,87.0,0.0,120.0,0.0,0.0
20414,75.0,0.0,120.0,4.0,0.0
20415,63.0,0.0,120.0,3.0,0.0
20416,90.0,0.0,120.0,0.0,0.0
20417,66.0,0.0,120.0,3.0,0.0
20418,78.0,0.0,120.0,2.0,0.0
20419,75.0,0.0,120.0,2.0,0.0
20420,69.0,0.0,30.0,7.0,0.0
20421,69.0,0.0,30.0,8.0,0.0
20422,57.0,0.0,30.0,11.0,0.0
20423,57.0,60.0,15.0,10.0,0.0
20424,45.0,0.0,15.0,11.0,0.0
20425,57.0,0.0,60.0,11.0,0.0
20426,69.0,0.0,60.0,7.0,0.0
20427,69.0,60.0,60.0,8.0,0.0
20428,73.0,0.0,60.0,2.0,0.0
20429,61.0,60.0,60.0,3.0,0.0
20430,65.0,0.0,60.0,3.0,0.0
20431,58.0,0.0,60.0,11.0,0.0
20432,77.0,0.0,60.0,2.0,0.0
20433,58.0,0.0,60.0,10.0,0.0
20434,70.0,0.0,60.0,7.0,0.0
20435,49.0,0.0,120.0,6.0,0.0
20436,70.0,0.0,60.0,8.0,0.0
20437,73.0,0.0,120.0,5.0,0.0
20438,61.0,0.0,120.0,5.0,0.0
20439,46.0,0.0,60.0,11.0,0.0
20440,73.0,0.0,60.0,4.0,0.0
20441,77.0,0.0,60.0,1.0,0.0
20442,85.0,0.0,60.0,1.0,0.0
20443,85.0,0.0,60.0,0.0,0.0
20444,89.0,0.0,60.0,0.0,0.0
20445,66.0,0.0,30.0,7.0,0.0
20446,73.0,0.0,30.0,4.0,0.0
20447,78.0,0.0,30.0,2.0,0.0
20448,82.0,0.0,30.0,2.0,0.0
20449,54.0,0.0,30.0,10.0,0.0
20450,66.0,0.0,30.0,3.0,0.0
20451,66.0,0.0,15.0,8.0,0.0
20452,90.0,0.0,15.0,1.0,0.0
20453,82.0,0.0,15.0,1.0,0.0
20454,70.0,0.0,15.0,3.0,0.0
20455,94.0,0.0,15.0,0.0,0.0
20456,54.0,0.0,15.0,11.0,0.0
20457,42.0,0.0,15.0,11.0,0.0
20458,90.0,60.0,15.0,0.0,0.0
20459,78.0,0.0,60.0,2.0,0.0
20460,66.0,0.0,60.0,3.0,0.0
20461,82.0,0.0,60.0,2.0,0.0
20462,54.0,60.0,120.0,5.0,0.0
20463,73.0,0.0,15.0,4.0,0.0
20464,94.0,0.0,15.0,0.0,0.0
20465,90.0,0.0,15.0,0.0,0.0
20466,66.0,0.0,60.0,8.0,0.0
20467,54.0,0.0,15.0,10.0,0.0
20468,66.0,0.0,120.0,5.0,0.0
20469,90.0,60.0,15.0,1.0,0.0
20470,66.0,0.0,15.0,7.0,0.0
20471,82.0,0.0,15.0,1.0,0.0
20472,49.0,0.0,120.0,6.0,0.0
20473,42.0,0.0,15.0,11.0,0.0
20474,54.0,0.0,60.0,11.0,0.0
20475,78.0,60.0,60.0,2.0,0.0
20476,82.0,0.0,60.0,2.0,0.0
20477,66.0,0.0,60.0,3.0,0.0
20478,70.0,0.0,60.0,3.0,0.0
20479,68.0,0.0,30.0,4.0,0.0
20480,89.0,0.0,30.0,1.0,0.0
20481,68.0,0.0,30.0,8.0,0.0
20482,56.0,0.0,30.0,10.0,0.0
20483,68.0,0.0,30.0,7.0,0.0
20484,80.0,0.0,15.0,1.0,0.0
20485,92.0,0.0,15.0,0.0,0.0
20486,89.0,0.0,15.0,0.0,0.0
20487,77.0,0.0,15.0,2.0,0.0
20488,68.0,0.0,60.0,7.0,0.0
20489,44.0,0.0,15.0,11.0,0.0
20490,68.0,60.0,60.0,4.0,0.0
20491,56.0,0.0,15.0,11.0,0.0
20492,80.0,0.0,15.0,2.0,0.0
20493,68.0,0.0,15.0,3.0,0.0
20494,56.0,0.0,60.0,10.0,0.0
20495,65.0,0.0,15.0,3.0,0.0
20496,68.0,0.0,15.0,8.0,0.0
20497,80.0,0.0,15.0,1.0,0.0
20498,56.0,60.0,60.0,11.0,0.0
20499,56.0,0.0,120.0,6.0,0.0
20500,44.0,0.0,60.0,11.0,0.0
20501,89.0,0.0,15.0,1.0,0.0
20502,68.0,0.0,120.0,5.0,0.0
20503,56.0,0.0,60.0,10.0,0.0
20504,68.0,0.0,60.0,7.0,0.0
20505,80.0,0.0,60.0,2.0,0.0
20506,77.0,0.0,60.0,2.0,0.0
20507,92.0,0.0,60.0,0.0,0.0
20508,89.0,0.0,60.0,0.0,0.0
20509,68.0,0.0,60.0,4.0,0.0
20510,68.0,0.0,60.0,3.0,0.0
20511,65.0,0.0,60.0,3.0,0.0
20512,87.0,0.0,30.0,0.0,0.0
20513,90.0,0.0,30.0,0.0,0.0
20514,75.0,0.0,30.0,2.0,0.0
20515,57.0,0.0,30.0,11.0,0.0
20516,78.0,0.0,30.0,2.0,0.0
20517,69.0,0.0,30.0,7.0,0.0
20518,66.0,0.0,30.0,3.0,0.0
20519,75.0,0.0,30.0,4.0,0.0
20520,57.0,0.0,30.0,10.0,0.0
20521,45.0,0.0,30.0,11.0,0.0
20522,69.0,0.0,15.0,8.0,0.0
20523,90.0,0.0,60.0,0.0,0.0
20524,75.0,0.0,60.0,2.0,0.0
20525,57.0,0.0,60.0,11.0,0.0
20526,78.0,0.0,60.0,2.0,0.0
20527,75.0,0.0,60.0,4.0,0.0
20528,87.0,60.0,15.0,1.0,0.0
20529,78.0,0.0,15.0,1.0,0.0
20530,57.0,0.0,60.0,10.0,0.0
20531,69.0,0.0,60.0,7.0,0.0
20532,63.0,0.0,15.0,3.0,0.0
20533,45.0,60.0,15.0,11.0,0.0
20534,69.0,0.0,15.0,8.0,0.0
20535,69.0,0.0,60.0,7.0,0.0
20536,75.0,0.0,60.0,4.0,0.0
20537,75.0,0.0,60.0,2.0,0.0
20538,87.0,0.0,15.0,0.0,0.0
20539,78.0,0.0,15.0,1.0,0.0
20540,87.0,0.0,15.0,1.0,0.0
20541,66.0,0.0,15.0,3.0,0.0
20542,63.0,0.0,15.0,3.0,0.0
20543,78.0,0.0,60.0,2.0,0.0
20544,73.0,0.0,120.0,5.0,0.0
20545,49.0,0.0,120.0,6.0,0.0
20546,57.0,0.0,60.0,10.0,0.0
20547,57.0,0.0,60.0,11.0,0.0
20548,61.0,0.0,120.0,5.0,0.0
20549,90.0,0.0,60.0,0.0,0.0
20550,89.0,0.0,30.0,0.0,0.0
20551,85.0,0.0,30.0,0.0,0.0
20552,77.0,0.0,30.0,1.0,0.0
20553,70.0,0.0,30.0,7.0,0.0
20554,58.0,0.0,30.0,11.0,0.0
20555,58.0,0.0,15.0,10.0,0.0
20556,46.0,0.0,15.0,11.0,0.0
20557,85.0,0.0,60.0,0.0,0.0
20558,89.0,0.0,60.0,0.0,0.0
20559,58.0,0.0,60.0,11.0,0.0
20560,85.0,0.0,15.0,1.0,0.0
20561,61.0,0.0,15.0,3.0,0.0
20562,73.0,0.0,15.0,4.0,0.0
20563,70.0,0.0,15.0,8.0,0.0
20564,65.0,0.0,15.0,3.0,0.0
20565,77.0,0.0,15.0,2.0,0.0
20566,73.0,60.0,15.0,2.0,0.0
20567,77.0,0.0,60.0,1.0,0.0
20568,70.0,0.0,60.0,7.0,0.0
20569,61.0,0.0,60.0,3.0,0.0
20570,85.0,0.0,60.0,0.0,0.0
20571,70.0,0.0,60.0,8.0,0.0
20572,46.0,0.0,60.0,11.0,0.0
20573,58.0,0.0,60.0,11.0,0.0
20574,73.0,0.0,60.0,4.0,0.0
20575,61.0,0.0,60.0,4.0,0.0
20576,58.0,0.0,60.0,10.0,0.0
20577,89.0,0.0,60.0,0.0,0.0
20578,65.0,0.0,60.0,3.0,0.0
20579,70.0,0.0,60.0,7.0,0.0
20580,73.0,60.0,60.0,5.0,0.0
20581,85.0,0.0,60.0,1.0,0.0
20582,73.0,0.0,60.0,2.0,0.0
20583,77.0,0.0,60.0,2.0,0.0
20584,61.0,0.0,60.0,5.0,0.0
20585,49.0,0.0,60.0,6.0,0.0
20586,77.0,0.0,60.0,1.0,0.0
20587,82.0,0.0,30.0,7.0,0.0
20588,61.0,0.0,30.0,5.0,0.0
20589,54.0,0.0,30.0,11.0,0.0
20590,42.0,0.0,30.0,11.0,0.0
20591,66.0,0.0,30.0,3.0,0.0
20592,70.0,0.0,30.0,3.0,0.0
20593,78.0,0.0,30.0,8.0,0.0
20594,94.0,0.0,30.0,0.0,0.0
20595,90.0,0.0,30.0,0.0,0.0
20596,54.0,0.0,15.0,10.0,0.0
20597,73.0,0.0,15.0,5.0,0.0
20598,42.0,0.0,60.0,11.0,0.0
20599,54.0,0.0,60.0,11.0,0.0
20600,73.0,0.0,15.0,4.0,0.0
20601,61.0,0.0,15.0,4.0,0.0
20602,61.0,0.0,60.0,5.0,0.0
20603,82.0,0.0,60.0,7.0,0.0
20604,82.0,60.0,15.0,2.0,0.0
20605,78.0,0.0,15.0,2.0,0.0
20606,94.0,0.0,60.0,0.0,0.0
20607,90.0,0.0,60.0,0.0,0.0
20608,90.0,0.0,15.0,1.0,0.0
20609,82.0,0.0,15.0,1.0,0.0
20610,49.0,0.0,15.0,6.0,0.0
20611,73.0,60.0,60.0,4.0,0.0
20612,82.0,0.0,60.0,7.0,0.0
20613,66.0,0.0,15.0,3.0,0.0
20614,70.0,0.0,15.0,3.0,0.0
20615,78.0,0.0,15.0,8.0,0.0
20616,61.0,0.0,60.0,4.0,0.0
20617,73.0,60.0,15.0,5.0,0.0
20618,90.0,0.0,60.0,1.0,0.0
20619,61.0,0.0,60.0,5.0,0.0
20620,78.0,0.0,15.0,2.0,0.0
20621,82.0,0.0,15.0,2.0,0.0
20622,82.0,0.0,60.0,1.0,0.0
20623,42.0,0.0,60.0,11.0,0.0
20624,54.0,0.0,15.0,10.0,0.0
20625,49.0,0.0,60.0,6.0,0.0
20626,94.0,0.0,60.0,0.0,0.0
20627,90.0,0.0,60.0,0.0,0.0
20628,54.0,0.0,60.0,11.0,0.0
20629,73.0,0.0,30.0,4.0,0.0
20630,77.0,0.0,30.0,4.0,0.0
20631,80.0,0.0,30.0,7.0,0.0
20632,56.0,0.0,30.0,10.0,0.0
20633,68.0,0.0,30.0,3.0,0.0
20634,80.0,0.0,30.0,1.0,0.0
20635,65.0,0.0,30.0,3.0,0.0
20636,89.0,0.0,30.0,0.0,0.0
20637,77.0,0.0,30.0,8.0,0.0
20638,89.0,0.0,30.0,1.0,0.0
20639,80.0,0.0,30.0,2.0,0.0
20640,92.0,0.0,15.0,0.0,0.0
20641,89.0,0.0,60.0,0.0,0.0
20642,56.0,0.0,15.0,6.0,0.0
20643,73.0,0.0,60.0,4.0,0.0
20644,77.0,0.0,15.0,2.0,0.0
20645,68.0,0.0,15.0,5.0,0.0
20646,80.0,0.0,60.0,2.0,0.0
20647,65.0,0.0,60.0,3.0,0.0
20648,44.0,0.0,15.0,11.0,0.0
20649,56.0,60.0,15.0,11.0,0.0
20650,80.0,0.0,60.0,7.0,0.0
20651,77.0,0.0,15.0,8.0,0.0
20652,44.0,0.0,15.0,11.0,0.0
20653,56.0,0.0,60.0,11.0,0.0
20654,77.0,0.0,60.0,2.0,0.0
20655,68.0,0.0,15.0,3.0,0.0
20656,56.0,0.0,15.0,10.0,0.0
20657,89.0,0.0,15.0,1.0,0.0
20658,80.0,0.0,15.0,1.0,0.0
20659,80.0,60.0,60.0,2.0,0.0
20660,68.0,0.0,60.0,5.0,0.0
20661,56.0,0.0,15.0,6.0,0.0
20662,89.0,0.0,60.0,0.0,0.0
20663,65.0,0.0,60.0,3.0,0.0
20664,92.0,0.0,15.0,0.0,0.0
20665,80.0,0.0,60.0,7.0,0.0
20666,77.0,60.0,15.0,4.0,0.0
20667,73.0,0.0,60.0,4.0,0.0
20668,75.0,0.0,30.0,4.0,0.0
20669,75.0,0.0,30.0,2.0,0.0
20670,72.0,60.0,30.0,2.0,0.0
20671,84.0,0.0,30.0,7.0,0.0
20672,68.0,0.0,30.0,4.0,0.0
20673,60.0,0.0,30.0,3.0,0.0
20674,56.0,0.0,30.0,11.0,0.0
20675,87.0,0.0,30.0,1.0,0.0
20676,75.0,0.0,30.0,8.0,0.0
20677,56.0,0.0,30.0,6.0,0.0
20678,92.0,0.0,30.0,0.0,0.0
20679,87.0,0.0,30.0,0.0,0.0
20680,84.0,0.0,30.0,1.0,0.0
20681,63.0,0.0,15.0,3.0,0.0
20682,75.0,0.0,60.0,4.0,0.0
20683,84.0,0.0,60.0,7.0,0.0
20684,68.0,0.0,15.0,10.0,0.0
20685,56.0,0.0,60.0,11.0,0.0
20686,68.0,0.0,15.0,5.0,0.0
20687,72.0,0.0,15.0,2.0,0.0
20688,68.0,0.0,15.0,4.0,0.0
20689,75.0,0.0,60.0,4.0,0.0
20690,84.0,0.0,15.0,1.0,0.0
20691,56.0,0.0,15.0,6.0,0.0
20692,87.0,0.0,15.0,0.0,0.0
20693,68.0,0.0,15.0,10.0,0.0
20694,87.0,0.0,15.0,1.0,0.0
20695,56.0,0.0,60.0,11.0,0.0
20696,84.0,60.0,60.0,7.0,0.0
20697,92.0,0.0,15.0,0.0,0.0
20698,75.0,60.0,15.0,8.0,0.0
20699,60.0,0.0,15.0,3.0,0.0
20700,63.0,0.0,15.0,3.0,0.0
20701,75.0,0.0,15.0,2.0,0.0
20702,68.0,0.0,60.0,5.0,0.0
20703,77.0,0.0,30.0,8.0,0.0
20704,92.0,0.0,30.0,0.0,0.0
20705,89.0,0.0,30.0,0.0,0.0
20706,85.0,0.0,30.0,1.0,0.0
20707,49.0,0.0,30.0,6.0,0.0
20708,85.0,0.0,30.0,7.0,0.0
20709,77.0,0.0,30.0,4.0,0.0
20710,80.0,60.0,30.0,4.0,0.0
20711,89.0,0.0,30.0,1.0,0.0
20712,49.0,0.0,30.0,11.0,0.0
20713,77.0,0.0,15.0,2.0,0.0
20714,73.0,0.0,15.0,2.0,0.0
20715,85.0,0.0,60.0,7.0,0.0
20716,49.0,0.0,15.0,5.0,0.0
20717,61.0,0.0,15.0,5.0,0.0
20718,85.0,0.0,60.0,1.0,0.0
20719,92.0,0.0,60.0,0.0,0.0
20720,89.0,0.0,60.0,0.0,0.0
20721,61.0,0.0,15.0,10.0,0.0
20722,49.0,0.0,60.0,6.0,0.0
20723,65.0,0.0,15.0,3.0,0.0
20724,61.0,0.0,15.0,3.0,0.0
20725,80.0,0.0,60.0,4.0,0.0
20726,77.0,0.0,60.0,4.0,0.0
20727,92.0,0.0,270.0,0.0,0.0
20728,77.0,0.0,270.0,2.0,0.0
20729,80.0,0.0,270.0,2.0,0.0
20730,61.0,0.0,15.0,10.0,0.0
20731,77.0,0.0,15.0,8.0,0.0
20732,85.0,60.0,60.0,7.0,0.0
20733,49.0,0.0,120.0,6.0,0.0
20734,49.0,0.0,15.0,11.0,0.0
20735,89.0,0.0,15.0,1.0,0.0
20736,68.0,0.0,270.0,3.0,0.0
20737,65.0,0.0,270.0,3.0,0.0
20738,61.0,60.0,15.0,5.0,0.0
20739,49.0,0.0,15.0,5.0,0.0
20740,77.0,30.0,270.0,4.0,0.0
20741,80.0,0.0,270.0,4.0,0.0
20742,92.0,0.0,30.0,7.0,0.0
20743,80.0,60.0,15.0,8.0,0.0
20744,92.0,60.0,60.0,7.0,0.0
20745,80.0,30.0,60.0,8.0,0.0
20746,92.0,0.0,60.0,7.0,0.0
20747,63.0,0.0,30.0,3.0,0.0
20748,66.0,0.0,30.0,3.0,0.0
20749,90.0,0.0,30.0,0.0,0.0
20750,92.0,0.0,30.0,7.0,0.0
20751,87.0,0.0,30.0,1.0,0.0
20752,75.0,0.0,30.0,2.0,0.0
20753,78.0,0.0,30.0,2.0,0.0
20754,75.0,0.0,30.0,4.0,0.0
20755,78.0,0.0,30.0,4.0,0.0
20756,73.0,0.0,60.0,2.0,0.0
20757,77.0,60.0,60.0,2.0,0.0
20758,61.0,0.0,60.0,3.0,0.0
20759,65.0,0.0,60.0,3.0,0.0
20760,85.0,0.0,60.0,1.0,0.0
20761,89.0,0.0,60.0,0.0,0.0
20762,77.0,0.0,60.0,4.0,0.0
20763,73.0,0.0,60.0,4.0,0.0
20764,80.0,60.0,15.0,8.0,0.0
20765,56.0,0.0,60.0,11.0,0.0
20766,56.0,60.0,60.0,6.0,0.0
20767,80.0,0.0,60.0,8.0,0.0
20768,75.0,0.0,60.0,2.0,0.0
20769,92.0,0.0,15.0,7.0,0.0
20770,75.0,0.0,60.0,4.0,0.0
20771,68.0,0.0,60.0,4.0,0.0
20772,84.0,0.0,60.0,1.0,0.0
20773,68.0,0.0,60.0,10.0,0.0
20774,72.0,0.0,60.0,2.0,0.0
20775,60.0,0.0,60.0,3.0,0.0
20776,87.0,0.0,60.0,0.0,0.0
20777,68.0,0.0,60.0,5.0,0.0
20778,63.0,0.0,60.0,3.0,0.0
20779,92.0,0.0,30.0,7.0,0.0
20780,75.0,0.0,30.0,2.0,0.0
20781,80.0,0.0,30.0,8.0,0.0
20782,84.0,0.0,30.0,1.0,0.0
20783,68.0,0.0,30.0,5.0,0.0
20784,60.0,0.0,30.0,3.0,0.0
20785,56.0,60.0,30.0,6.0,0.0
20786,72.0,0.0,15.0,2.0,0.0
20787,56.0,0.0,15.0,11.0,0.0
20788,84.0,0.0,60.0,1.0,0.0
20789,63.0,0.0,15.0,3.0,0.0
20790,80.0,0.0,60.0,8.0,0.0
20791,87.0,0.0,15.0,0.0,0.0
20792,60.0,0.0,60.0,3.0,0.0
20793,75.0,0.0,60.0,2.0,0.0
20794,68.0,0.0,15.0,10.0,0.0
20795,68.0,0.0,15.0,4.0,0.0
20796,75.0,0.0,15.0,4.0,0.0
20797,56.0,0.0,60.0,6.0,0.0
20798,92.0,0.0,15.0,7.0,0.0
20799,80.0,0.0,60.0,8.0,0.0
20800,68.0,0.0,15.0,5.0,0.0
20801,75.0,0.0,15.0,4.0,0.0
20802,60.0,0.0,60.0,3.0,0.0
20803,63.0,60.0,60.0,3.0,0.0
20804,87.0,0.0,60.0,0.0,0.0
20805,72.0,0.0,60.0,2.0,0.0
20806,75.0,0.0,60.0,2.0,0.0
20807,68.0,0.0,60.0,4.0,0.0
20808,56.0,0.0,60.0,6.0,0.0
20809,56.0,60.0,15.0,11.0,0.0
20810,68.0,0.0,60.0,10.0,0.0
20811,84.0,0.0,60.0,1.0,0.0
20812,65.0,0.0,30.0,3.0,0.0
20813,68.0,0.0,30.0,10.0,0.0
20814,77.0,0.0,30.0,2.0,0.0
20815,80.0,60.0,30.0,2.0,0.0
20816,89.0,0.0,30.0,1.0,0.0
20817,56.0,0.0,30.0,11.0,0.0
20818,68.0,0.0,30.0,5.0,0.0
20819,80.0,0.0,30.0,8.0,0.0
20820,77.0,0.0,15.0,4.0,0.0
20821,80.0,0.0,15.0,4.0,0.0
20822,56.0,0.0,15.0,6.0,0.0
20823,56.0,0.0,60.0,11.0,0.0
20824,92.0,0.0,15.0,7.0,0.0
20825,92.0,0.0,15.0,0.0,0.0
20826,68.0,0.0,15.0,3.0,0.0
20827,68.0,0.0,60.0,10.0,0.0
20828,77.0,0.0,60.0,2.0,0.0
20829,68.0,0.0,60.0,5.0,0.0
20830,65.0,0.0,15.0,3.0,0.0
20831,49.0,0.0,120.0,6.0,0.0
20832,68.0,0.0,15.0,3.0,0.0
20833,77.0,0.0,270.0,2.0,0.0
20834,80.0,0.0,15.0,2.0,0.0
20835,92.0,0.0,15.0,7.0,0.0
20836,92.0,0.0,15.0,0.0,0.0
20837,80.0,0.0,15.0,4.0,0.0
20838,80.0,60.0,15.0,8.0,0.0
20839,89.0,0.0,15.0,1.0,0.0
20840,49.0,0.0,120.0,5.0,0.0
20841,61.0,0.0,120.0,10.0,0.0
20842,49.0,0.0,120.0,11.0,0.0
20843,61.0,0.0,120.0,5.0,0.0
20844,77.0,0.0,270.0,4.0,0.0
20845,80.0,0.0,30.0,8.0,0.0
20846,92.0,60.0,30.0,7.0,0.0
20847,92.0,60.0,60.0,7.0,0.0
20848,80.0,0.0,15.0,8.0,0.0
20849,92.0,0.0,60.0,7.0,0.0
20850,80.0,0.0,30.0,8.0,0.0
20851,63.0,0.0,30.0,3.0,0.0
20852,90.0,0.0,30.0,0.0,0.0
20853,92.0,0.0,30.0,7.0,0.0
20854,78.0,0.0,30.0,4.0,0.0
20855,75.0,0.0,30.0,4.0,0.0
20856,87.0,60.0,30.0,1.0,0.0
20857,78.0,0.0,30.0,2.0,0.0
20858,75.0,0.0,30.0,2.0,0.0
20859,66.0,0.0,30.0,3.0,0.0
20860,80.0,0.0,60.0,8.0,0.0
20861,77.0,0.0,60.0,4.0,0.0
20862,92.0,0.0,60.0,7.0,0.0
20863,73.0,0.0,60.0,2.0,0.0
20864,85.0,0.0,60.0,1.0,0.0
20865,89.0,60.0,60.0,0.0,0.0
20866,77.0,0.0,60.0,2.0,0.0
20867,61.0,0.0,60.0,3.0,0.0
20868,65.0,0.0,60.0,3.0,0.0
20869,73.0,0.0,60.0,4.0,0.0
20870,75.0,0.0,60.0,2.0,0.0
20871,72.0,0.0,60.0,2.0,0.0
20872,68.0,0.0,60.0,5.0,0.0
20873,68.0,0.0,60.0,10.0,0.0
20874,80.0,0.0,60.0,8.0,0.0
20875,56.0,0.0,60.0,11.0,0.0
20876,68.0,0.0,60.0,4.0,0.0
20877,63.0,0.0,60.0,3.0,0.0
20878,75.0,60.0,60.0,4.0,0.0
20879,92.0,0.0,60.0,7.0,0.0
20880,56.0,0.0,60.0,6.0,0.0
20881,87.0,0.0,60.0,0.0,0.0
20882,60.0,0.0,60.0,3.0,0.0
20883,84.0,0.0,60.0,1.0,0.0
20884,92.0,0.0,30.0,7.0,0.0
20885,56.0,0.0,30.0,6.0,0.0
20886,87.0,0.0,30.0,0.0,0.0
20887,56.0,0.0,30.0,11.0,0.0
20888,60.0,0.0,30.0,3.0,0.0
20889,75.0,0.0,15.0,4.0,0.0
20890,63.0,0.0,15.0,3.0,0.0
20891,84.0,0.0,15.0,1.0,0.0
20892,68.0,0.0,15.0,10.0,0.0
20893,56.0,0.0,60.0,11.0,0.0
20894,68.0,0.0,15.0,5.0,0.0
20895,80.0,0.0,15.0,8.0,0.0
20896,68.0,0.0,15.0,4.0,0.0
20897,92.0,0.0,60.0,7.0,0.0
20898,75.0,60.0,15.0,2.0,0.0
20899,72.0,0.0,15.0,2.0,0.0
20900,87.0,0.0,60.0,0.0,0.0
20901,68.0,0.0,15.0,10.0,0.0
20902,72.0,0.0,60.0,2.0,0.0
20903,75.0,0.0,60.0,2.0,0.0
20904,87.0,60.0,60.0,0.0,0.0
20905,56.0,0.0,60.0,11.0,0.0
20906,56.0,0.0,15.0,6.0,0.0
20907,80.0,0.0,15.0,8.0,0.0
20908,84.0,0.0,60.0,1.0,0.0
20909,68.0,0.0,15.0,4.0,0.0
20910,60.0,0.0,15.0,3.0,0.0
20911,63.0,0.0,60.0,3.0,0.0
20912,92.0,0.0,60.0,7.0,0.0
20913,75.0,60.0,15.0,4.0,0.0
20914,68.0,0.0,60.0,5.0,0.0
20915,92.0,0.0,30.0,0.0,0.0
20916,80.0,0.0,30.0,8.0,0.0
20917,68.0,0.0,30.0,3.0,0.0
20918,77.0,0.0,30.0,4.0,0.0
20919,56.0,0.0,30.0,11.0,0.0
20920,80.0,0.0,30.0,4.0,0.0
20921,77.0,0.0,30.0,2.0,0.0
20922,65.0,0.0,30.0,3.0,0.0
20923,92.0,0.0,60.0,0.0,0.0
20924,68.0,0.0,60.0,3.0,0.0
20925,68.0,0.0,15.0,10.0,0.0
20926,80.0,0.0,60.0,8.0,0.0
20927,56.0,0.0,15.0,6.0,0.0
20928,65.0,0.0,60.0,3.0,0.0
20929,92.0,0.0,15.0,7.0,0.0
20930,80.0,0.0,60.0,4.0,0.0
20931,80.0,0.0,15.0,2.0,0.0
20932,89.0,0.0,15.0,1.0,0.0
20933,56.0,0.0,60.0,11.0,0.0
20934,68.0,60.0,15.0,5.0,0.0
20935,65.0,0.0,60.0,3.0,0.0
20936,49.0,0.0,60.0,6.0,0.0
20937,68.0,0.0,60.0,3.0,0.0
20938,92.0,0.0,60.0,7.0,0.0
20939,77.0,0.0,15.0,4.0,0.0
20940,49.0,0.0,60.0,11.0,0.0
20941,85.0,60.0,60.0,1.0,0.0
20942,80.0,0.0,60.0,4.0,0.0
20943,89.0,0.0,60.0,1.0,0.0
20944,92.0,0.0,60.0,0.0,0.0
20945,77.0,0.0,15.0,2.0,0.0
20946,61.0,0.0,60.0,5.0,0.0
20947,80.0,0.0,60.0,8.0,0.0
20948,61.0,0.0,60.0,10.0,0.0
20949,80.0,0.0,15.0,2.0,0.0
20950,68.0,0.0,60.0,5.0,0.0
20951,49.0,0.0,30.0,6.0,0.0
20952,61.0,0.0,30.0,3.0,0.0
20953,65.0,0.0,30.0,3.0,0.0
20954,77.0,0.0,30.0,4.0,0.0
20955,61.0,0.0,30.0,11.0,0.0
20956,85.0,0.0,15.0,2.0,0.0
20957,77.0,0.0,15.0,2.0,0.0
20958,61.0,0.0,15.0,5.0,0.0
20959,73.0,0.0,15.0,5.0,0.0
20960,85.0,0.0,15.0,1.0,0.0
20961,89.0,0.0,15.0,1.0,0.0
20962,49.0,0.0,60.0,6.0,0.0
20963,85.0,0.0,15.0,8.0,0.0
20964,73.0,0.0,15.0,10.0,0.0
20965,92.0,0.0,15.0,0.0,0.0
20966,97.0,0.0,15.0,0.0,0.0
20967,97.0,0.0,15.0,7.0,0.0
20968,73.0,60.0,15.0,4.0,0.0
20969,85.0,0.0,15.0,2.0,0.0
20970,61.0,0.0,60.0,5.0,0.0
20971,61.0,0.0,15.0,11.0,0.0
20972,73.0,0.0,15.0,10.0,0.0
20973,73.0,0.0,60.0,5.0,0.0
20974,77.0,0.0,15.0,4.0,0.0
20975,73.0,0.0,15.0,4.0,0.0
20976,49.0,0.0,60.0,6.0,0.0
20977,85.0,0.0,15.0,1.0,0.0
20978,97.0,0.0,15.0,7.0,0.0
20979,85.0,0.0,60.0,8.0,0.0
20980,89.0,0.0,60.0,1.0,0.0
20981,77.0,60.0,60.0,2.0,0.0
20982,65.0,0.0,15.0,3.0,0.0
20983,97.0,60.0,15.0,0.0,0.0
20984,61.0,0.0,15.0,3.0,0.0
20985,92.0,0.0,60.0,0.0,0.0
20986,61.0,0.0,30.0,3.0,0.0
20987,65.0,0.0,30.0,3.0,0.0
20988,73.0,0.0,30.0,5.0,0.0
20989,61.0,0.0,30.0,5.0,0.0
20990,97.0,0.0,30.0,0.0,0.0
20991,85.0,0.0,30.0,1.0,0.0
20992,89.0,0.0,30.0,1.0,0.0
20993,49.0,0.0,30.0,6.0,0.0
20994,85.0,0.0,15.0,8.0,0.0
20995,65.0,0.0,60.0,3.0,0.0
20996,92.0,0.0,15.0,0.0,0.0
20997,85.0,0.0,15.0,7.0,0.0
20998,77.0,0.0,15.0,2.0,0.0
20999,85.0,0.0,15.0,2.0,0.0
21000,85.0,0.0,60.0,1.0,0.0
21001,89.0,0.0,60.0,1.0,0.0
21002,61.0,60.0,15.0,10.0,0.0
21003,73.0,0.0,60.0,5.0,0.0
21004,68.0,0.0,15.0,4.0,0.0
21005,61.0,0.0,15.0,11.0,0.0
21006,73.0,0.0,15.0,4.0,0.0
21007,68.0,0.0,15.0,4.0,0.0
21008,49.0,60.0,15.0,6.0,0.0
21009,73.0,0.0,15.0,4.0,0.0
21010,85.0,0.0,60.0,1.0,0.0
21011,85.0,0.0,60.0,8.0,0.0
21012,97.0,0.0,15.0,0.0,0.0
21013,61.0,0.0,15.0,3.0,0.0
21014,89.0,0.0,60.0,1.0,0.0
21015,85.0,0.0,15.0,7.0,0.0
21016,61.0,0.0,15.0,11.0,0.0
21017,61.0,0.0,15.0,5.0,0.0
21018,73.0,0.0,60.0,5.0,0.0
21019,61.0,60.0,60.0,10.0,0.0
21020,77.0,0.0,60.0,2.0,0.0
21021,65.0,0.0,60.0,3.0,0.0
21022,92.0,0.0,60.0,0.0,0.0
21023,85.0,0.0,60.0,2.0,0.0
21024,73.0,0.0,30.0,7.0,0.0
21025,65.0,0.0,30.0,4.0,0.0
21026,89.0,0.0,30.0,1.0,0.0
21027,85.0,0.0,30.0,1.0,0.0
21028,97.0,0.0,30.0,0.0,0.0
21029,61.0,0.0,30.0,10.0,0.0
21030,92.0,0.0,30.0,0.0,0.0
21031,49.0,0.0,30.0,6.0,0.0
21032,73.0,0.0,30.0,5.0,0.0
21033,61.0,0.0,15.0,5.0,0.0
21034,68.0,0.0,15.0,4.0,0.0
21035,73.0,0.0,15.0,8.0,0.0
21036,49.0,0.0,60.0,6.0,0.0
21037,85.0,0.0,15.0,2.0,0.0
21038,77.0,0.0,15.0,2.0,0.0
21039,92.0,0.0,60.0,0.0,0.0
21040,65.0,60.0,15.0,3.0,0.0
21041,49.0,0.0,15.0,11.0,0.0
21042,61.0,0.0,15.0,3.0,0.0
21043,68.0,0.0,15.0,4.0,0.0
21044,65.0,0.0,15.0,4.0,0.0
21045,49.0,0.0,15.0,11.0,0.0
21046,73.0,0.0,15.0,7.0,0.0
21047,49.0,0.0,60.0,6.0,0.0
21048,85.0,0.0,15.0,1.0,0.0
21049,89.0,0.0,15.0,1.0,0.0
21050,85.0,0.0,15.0,2.0,0.0
21051,73.0,0.0,15.0,8.0,0.0
21052,77.0,0.0,60.0,2.0,0.0
21053,61.0,0.0,15.0,3.0,0.0
21054,61.0,0.0,15.0,5.0,0.0
21055,73.0,0.0,15.0,5.0,0.0
21056,61.0,0.0,15.0,10.0,0.0
21057,92.0,0.0,60.0,0.0,0.0
21058,97.0,0.0,15.0,0.0,0.0
21059,65.0,60.0,15.0,3.0,0.0
21060,61.0,0.0,30.0,3.0,0.0
21061,61.0,0.0,30.0,5.0,0.0
21062,97.0,0.0,30.0,0.0,0.0
21063,92.0,0.0,30.0,0.0,0.0
21064,61.0,0.0,30.0,4.0,0.0
21065,65.0,0.0,30.0,4.0,0.0
21066,73.0,0.0,30.0,5.0,0.0
21067,65.0,0.0,30.0,3.0,0.0
21068,61.0,0.0,30.0,7.0,0.0
21069,77.0,0.0,15.0,2.0,0.0
21070,61.0,0.0,15.0,10.0,0.0
21071,85.0,0.0,15.0,1.0,0.0
21072,89.0,0.0,15.0,1.0,0.0
21073,61.0,0.0,15.0,8.0,0.0
21074,73.0,0.0,60.0,5.0,0.0
21075,61.0,0.0,60.0,5.0,0.0
21076,49.0,0.0,15.0,11.0,0.0
21077,85.0,0.0,15.0,2.0,0.0
21078,65.0,0.0,60.0,4.0,0.0
21079,49.0,60.0,15.0,6.0,0.0
21080,65.0,0.0,60.0,3.0,0.0
21081,61.0,0.0,15.0,3.0,0.0
21082,73.0,0.0,120.0,5.0,0.0
21083,49.0,0.0,120.0,11.0,0.0
21084,61.0,0.0,15.0,8.0,0.0
21085,92.0,0.0,15.0,0.0,0.0
21086,61.0,0.0,15.0,4.0,0.0
21087,85.0,0.0,15.0,2.0,0.0
21088,97.0,0.0,15.0,0.0,0.0
21089,77.0,0.0,15.0,2.0,0.0
21090,65.0,0.0,120.0,4.0,0.0
21091,61.0,0.0,120.0,5.0,0.0
21092,65.0,0.0,120.0,3.0,0.0
21093,49.0,0.0,120.0,6.0,0.0
21094,89.0,0.0,15.0,1.0,0.0
21095,80.0,0.0,120.0,1.0,0.0
21096,61.0,120.0,15.0,7.0,0.0
21097,61.0,0.0,120.0,10.0,0.0
21098,68.0,0.0,120.0,10.0,0.0
21099,68.0,0.0,120.0,3.0,0.0
21100,80.0,0.0,120.0,10.0,0.0
21101,56.0,0.0,120.0,6.0,0.0
21102,80.0,0.0,120.0,7.0,0.0
21103,80.0,0.0,120.0,1.0,0.0
21104,68.0,0.0,120.0,5.0,0.0
21105,92.0,0.0,120.0,7.0,0.0
21106,80.0,360.0,120.0,2.0,0.0
21107,68.0,0.0,120.0,4.0,0.0
21108,80.0,0.0,120.0,4.0,0.0
21109,92.0,0.0,120.0,8.0,0.0
21110,80.0,0.0,120.0,8.0,0.0
21111,56.0,0.0,120.0,11.0,0.0
21112,92.0,0.0,120.0,0.0,0.0
21113,61.0,0.0,120.0,10.0,0.0
21114,68.0,0.0,120.0,10.0,0.0
21115,77.0,0.0,120.0,10.0,0.0
21116,77.0,0.0,120.0,4.0,0.0
21117,73.0,0.0,120.0,4.0,0.0
21118,89.0,0.0,120.0,7.0,0.0
21119,77.0,0.0,120.0,1.0,0.0
21120,49.0,0.0,120.0,11.0,0.0
21121,73.0,0.0,120.0,8.0,0.0
21122,80.0,0.0,120.0,8.0,0.0
21123,89.0,0.0,120.0,0.0,0.0
21124,80.0,0.0,120.0,7.0,0.0
21125,49.0,0.0,120.0,6.0,0.0
21126,65.0,0.0,120.0,3.0,0.0
21127,77.0,0.0,120.0,2.0,0.0
21128,61.0,0.0,120.0,5.0,0.0
