,note,step,duration,channel,velocity
0,83.0,240.0,240.0,0.0,0.0
1,71.0,0.0,240.0,1.0,0.0
2,66.0,0.0,240.0,2.0,0.0
3,75.0,240.0,240.0,1.0,0.0
4,63.0,0.0,15.0,2.0,0.0
5,59.0,192.0,15.0,3.0,0.0
6,87.0,48.0,180.0,0.0,0.0
7,66.0,192.0,240.0,2.0,0.0
8,59.0,0.0,15.0,3.0,0.0
9,83.0,48.0,180.0,0.0,0.0
10,71.0,240.0,240.0,1.0,0.0
11,66.0,480.0,240.0,2.0,0.0
12,78.0,0.0,960.0,1.0,0.0
13,63.0,0.0,15.0,2.0,0.0
14,90.0,240.0,960.0,0.0,0.0
15,66.0,0.0,240.0,2.0,0.0
16,63.0,0.0,15.0,2.0,0.0
17,59.0,480.0,15.0,3.0,0.0
18,66.0,0.0,240.0,2.0,0.0
19,63.0,0.0,15.0,2.0,0.0
20,88.0,240.0,240.0,0.0,0.0
21,66.0,0.0,240.0,2.0,0.0
22,87.0,240.0,240.0,0.0,0.0
23,63.0,0.0,15.0,2.0,0.0
24,59.0,0.0,15.0,3.0,0.0
25,85.0,240.0,240.0,0.0,0.0
26,83.0,240.0,240.0,0.0,0.0
27,66.0,0.0,240.0,2.0,0.0
28,59.0,0.0,15.0,3.0,0.0
29,63.0,0.0,480.0,2.0,0.0
30,82.0,240.0,240.0,0.0,0.0
31,66.0,0.0,240.0,2.0,0.0
32,83.0,0.0,240.0,0.0,0.0
33,63.0,480.0,480.0,2.0,0.0
34,59.0,0.0,480.0,3.0,0.0
35,87.0,240.0,240.0,0.0,0.0
36,83.0,0.0,240.0,0.0,0.0
37,66.0,0.0,240.0,2.0,0.0
38,64.0,0.0,480.0,2.0,0.0
39,82.0,360.0,480.0,0.0,0.0
40,68.0,0.0,240.0,2.0,0.0
41,64.0,0.0,480.0,2.0,0.0
42,59.0,0.0,15.0,3.0,0.0
43,80.0,120.0,360.0,0.0,0.0
44,68.0,240.0,240.0,2.0,0.0
45,78.0,240.0,240.0,0.0,0.0
46,64.0,0.0,480.0,2.0,0.0
47,68.0,0.0,240.0,2.0,0.0
48,76.0,0.0,240.0,0.0,0.0
49,64.0,0.0,480.0,2.0,0.0
50,59.0,240.0,15.0,3.0,0.0
51,75.0,240.0,240.0,0.0,0.0
52,73.0,0.0,240.0,0.0,0.0
53,68.0,240.0,240.0,2.0,0.0
54,64.0,240.0,480.0,2.0,0.0
55,59.0,0.0,15.0,3.0,0.0
56,72.0,240.0,240.0,0.0,0.0
57,73.0,0.0,240.0,0.0,0.0
58,68.0,0.0,240.0,2.0,0.0
59,76.0,240.0,240.0,0.0,0.0
60,59.0,0.0,480.0,3.0,0.0
61,64.0,0.0,480.0,2.0,0.0
62,73.0,0.0,240.0,0.0,0.0
63,68.0,480.0,240.0,2.0,0.0
64,70.0,0.0,960.0,0.0,0.0
65,64.0,480.0,480.0,2.0,0.0
66,61.0,0.0,480.0,2.0,0.0
67,66.0,0.0,240.0,2.0,0.0
68,59.0,0.0,15.0,3.0,0.0
69,64.0,0.0,480.0,2.0,0.0
70,61.0,0.0,480.0,2.0,0.0
71,66.0,240.0,240.0,2.0,0.0
72,59.0,0.0,15.0,3.0,0.0
73,73.0,240.0,240.0,0.0,0.0
74,64.0,0.0,480.0,2.0,0.0
75,66.0,0.0,240.0,2.0,0.0
76,61.0,0.0,15.0,2.0,0.0
77,59.0,192.0,15.0,3.0,0.0
78,76.0,288.0,180.0,0.0,0.0
79,64.0,192.0,480.0,2.0,0.0
80,66.0,0.0,240.0,2.0,0.0
81,73.0,288.0,180.0,0.0,0.0
82,59.0,192.0,480.0,3.0,0.0
83,64.0,0.0,480.0,2.0,0.0
84,61.0,0.0,480.0,2.0,0.0
85,66.0,0.0,240.0,2.0,0.0
86,70.0,288.0,180.0,0.0,0.0
87,64.0,240.0,480.0,2.0,0.0
88,59.0,0.0,480.0,3.0,0.0
89,61.0,0.0,480.0,2.0,0.0
90,66.0,0.0,240.0,2.0,0.0
91,63.0,0.0,1440.0,3.0,0.0
92,59.0,0.0,1440.0,3.0,0.0
93,71.0,240.0,240.0,0.0,0.0
94,66.0,240.0,240.0,0.0,0.0
95,65.0,240.0,240.0,0.0,0.0
96,66.0,240.0,240.0,0.0,0.0
97,70.0,240.0,240.0,0.0,0.0
98,71.0,240.0,240.0,0.0,0.0
99,54.0,0.0,1440.0,2.0,0.0
100,73.0,240.0,240.0,0.0,0.0
101,46.0,240.0,1440.0,3.0,0.0
102,58.0,0.0,1440.0,3.0,0.0
103,66.0,240.0,240.0,0.0,0.0
104,65.0,240.0,240.0,0.0,0.0
105,66.0,240.0,240.0,0.0,0.0
106,71.0,240.0,240.0,0.0,0.0
107,73.0,0.0,240.0,0.0,0.0
108,47.0,0.0,960.0,3.0,0.0
109,59.0,0.0,960.0,3.0,0.0
110,75.0,240.0,240.0,0.0,0.0
111,54.0,0.0,960.0,2.0,0.0
112,71.0,240.0,240.0,0.0,0.0
113,70.0,240.0,240.0,0.0,0.0
114,71.0,192.0,240.0,0.0,0.0
115,61.0,48.0,180.0,3.0,0.0
116,49.0,0.0,180.0,3.0,0.0
117,76.0,192.0,240.0,0.0,0.0
118,63.0,48.0,180.0,3.0,0.0
119,51.0,0.0,180.0,3.0,0.0
120,78.0,192.0,240.0,0.0,0.0
121,80.0,240.0,240.0,0.0,0.0
122,64.0,48.0,180.0,3.0,0.0
123,52.0,0.0,180.0,3.0,0.0
124,78.0,192.0,240.0,0.0,0.0
125,52.0,48.0,180.0,3.0,0.0
126,64.0,0.0,180.0,3.0,0.0
127,76.0,240.0,240.0,0.0,0.0
128,75.0,192.0,240.0,0.0,0.0
129,53.0,48.0,180.0,3.0,0.0
130,65.0,0.0,180.0,3.0,0.0
131,73.0,240.0,240.0,0.0,0.0
132,71.0,240.0,240.0,0.0,0.0
133,54.0,238.0,240.0,3.0,0.0
134,70.0,0.0,480.0,0.0,0.0
135,66.0,2.0,480.0,3.0,0.0
136,54.0,240.0,240.0,3.0,0.0
137,58.0,240.0,240.0,3.0,0.0
138,66.0,0.0,240.0,0.0,0.0
139,61.0,240.0,240.0,3.0,0.0
140,70.0,240.0,240.0,0.0,0.0
141,73.0,240.0,240.0,0.0,0.0
142,78.0,240.0,240.0,0.0,0.0
143,70.0,240.0,240.0,0.0,0.0
144,73.0,240.0,240.0,0.0,0.0
145,78.0,240.0,240.0,0.0,0.0
146,82.0,240.0,240.0,0.0,0.0
147,73.0,240.0,240.0,0.0,0.0
148,78.0,240.0,240.0,0.0,0.0
149,82.0,240.0,240.0,0.0,0.0
150,85.0,240.0,240.0,0.0,0.0
151,78.0,240.0,240.0,0.0,0.0
152,82.0,240.0,240.0,0.0,0.0
153,85.0,240.0,240.0,0.0,0.0
154,90.0,240.0,240.0,0.0,0.0
155,82.0,240.0,240.0,0.0,0.0
156,85.0,240.0,240.0,0.0,0.0
157,90.0,240.0,240.0,0.0,0.0
158,94.0,240.0,240.0,0.0,0.0
159,92.0,240.0,240.0,0.0,0.0
160,90.0,0.0,480.0,0.0,0.0
161,51.0,240.0,240.0,3.0,0.0
162,54.0,240.0,240.0,3.0,0.0
163,58.0,240.0,240.0,3.0,0.0
164,66.0,240.0,240.0,0.0,0.0
165,63.0,0.0,240.0,3.0,0.0
166,70.0,240.0,240.0,0.0,0.0
167,75.0,240.0,240.0,0.0,0.0
168,78.0,240.0,240.0,0.0,0.0
169,70.0,240.0,240.0,0.0,0.0
170,75.0,240.0,240.0,0.0,0.0
171,78.0,240.0,240.0,0.0,0.0
172,82.0,240.0,240.0,0.0,0.0
173,75.0,240.0,240.0,0.0,0.0
174,78.0,240.0,240.0,0.0,0.0
175,82.0,240.0,240.0,0.0,0.0
176,87.0,240.0,240.0,0.0,0.0
177,78.0,240.0,240.0,0.0,0.0
178,82.0,240.0,240.0,0.0,0.0
179,87.0,240.0,240.0,0.0,0.0
180,90.0,240.0,240.0,0.0,0.0
181,82.0,240.0,240.0,0.0,0.0
182,87.0,240.0,240.0,0.0,0.0
183,90.0,240.0,240.0,0.0,0.0
184,94.0,240.0,240.0,0.0,0.0
185,92.0,240.0,240.0,0.0,0.0
186,90.0,0.0,480.0,0.0,0.0
187,48.0,240.0,240.0,3.0,0.0
188,51.0,240.0,240.0,3.0,0.0
189,54.0,240.0,240.0,3.0,0.0
190,56.0,240.0,240.0,3.0,0.0
191,66.0,0.0,240.0,0.0,0.0
192,68.0,240.0,240.0,0.0,0.0
193,60.0,0.0,480.0,3.0,0.0
194,72.0,240.0,240.0,0.0,0.0
195,75.0,240.0,240.0,0.0,0.0
196,68.0,240.0,240.0,0.0,0.0
197,72.0,240.0,240.0,0.0,0.0
198,75.0,240.0,240.0,0.0,0.0
199,78.0,240.0,240.0,0.0,0.0
200,72.0,240.0,240.0,0.0,0.0
201,75.0,240.0,240.0,0.0,0.0
202,78.0,240.0,240.0,0.0,0.0
203,84.0,240.0,240.0,0.0,0.0
204,75.0,240.0,240.0,0.0,0.0
205,78.0,240.0,240.0,0.0,0.0
206,84.0,240.0,240.0,0.0,0.0
207,87.0,240.0,240.0,0.0,0.0
208,84.0,240.0,240.0,0.0,0.0
209,63.0,120.0,360.0,3.0,0.0
210,80.0,120.0,240.0,0.0,0.0
211,60.0,0.0,360.0,3.0,0.0
212,82.0,240.0,240.0,0.0,0.0
213,63.0,0.0,360.0,3.0,0.0
214,80.0,120.0,240.0,0.0,0.0
215,66.0,120.0,360.0,3.0,0.0
216,82.0,240.0,240.0,0.0,0.0
217,80.0,240.0,1440.0,0.0,0.0
218,77.0,0.0,1440.0,1.0,0.0
219,65.0,240.0,240.0,3.0,0.0
220,61.0,240.0,480.0,3.0,0.0
221,66.0,0.0,240.0,3.0,0.0
222,68.0,240.0,240.0,3.0,0.0
223,70.0,240.0,240.0,3.0,0.0
224,72.0,240.0,240.0,3.0,0.0
225,73.0,0.0,240.0,3.0,0.0
226,72.0,240.0,240.0,3.0,0.0
227,80.0,0.0,1440.0,0.0,0.0
228,78.0,0.0,1440.0,1.0,0.0
229,70.0,240.0,240.0,3.0,0.0
230,68.0,240.0,240.0,3.0,0.0
231,66.0,240.0,240.0,3.0,0.0
232,65.0,240.0,240.0,3.0,0.0
233,63.0,240.0,240.0,3.0,0.0
234,80.0,0.0,1440.0,1.0,0.0
235,83.0,0.0,1440.0,0.0,0.0
236,61.0,240.0,240.0,3.0,0.0
237,59.0,240.0,240.0,3.0,0.0
238,58.0,240.0,240.0,3.0,0.0
239,56.0,240.0,240.0,3.0,0.0
240,54.0,240.0,240.0,3.0,0.0
241,53.0,240.0,240.0,3.0,0.0
242,82.0,240.0,480.0,0.0,0.0
243,54.0,240.0,240.0,3.0,0.0
244,78.0,0.0,480.0,1.0,0.0
245,56.0,0.0,240.0,3.0,0.0
246,78.0,0.0,480.0,1.0,0.0
247,58.0,240.0,240.0,3.0,0.0
248,82.0,0.0,480.0,0.0,0.0
249,60.0,240.0,240.0,3.0,0.0
250,82.0,0.0,480.0,0.0,0.0
251,61.0,240.0,240.0,3.0,0.0
252,78.0,0.0,480.0,1.0,0.0
253,63.0,240.0,240.0,3.0,0.0
254,77.0,0.0,1440.0,1.0,0.0
255,65.0,240.0,240.0,3.0,0.0
256,61.0,0.0,480.0,3.0,0.0
257,66.0,240.0,240.0,3.0,0.0
258,68.0,240.0,240.0,3.0,0.0
259,70.0,240.0,240.0,3.0,0.0
260,72.0,240.0,240.0,3.0,0.0
261,73.0,0.0,240.0,3.0,0.0
262,72.0,240.0,240.0,3.0,0.0
263,78.0,0.0,1440.0,1.0,0.0
264,80.0,240.0,15.0,0.0,0.0
265,70.0,240.0,240.0,3.0,0.0
266,68.0,240.0,240.0,3.0,0.0
267,66.0,240.0,240.0,3.0,0.0
268,65.0,240.0,240.0,3.0,0.0
269,63.0,240.0,240.0,3.0,0.0
270,83.0,0.0,1440.0,0.0,0.0
271,80.0,0.0,1440.0,1.0,0.0
272,61.0,240.0,240.0,3.0,0.0
273,59.0,240.0,240.0,3.0,0.0
274,58.0,240.0,240.0,3.0,0.0
275,56.0,240.0,240.0,3.0,0.0
276,54.0,240.0,240.0,3.0,0.0
277,53.0,240.0,240.0,3.0,0.0
278,54.0,240.0,240.0,3.0,0.0
279,56.0,0.0,240.0,3.0,0.0
280,58.0,240.0,240.0,3.0,0.0
281,82.0,0.0,15.0,0.0,0.0
282,78.0,240.0,15.0,1.0,0.0
283,60.0,240.0,240.0,3.0,0.0
284,82.0,0.0,15.0,0.0,0.0
285,61.0,240.0,240.0,3.0,0.0
286,78.0,0.0,480.0,1.0,0.0
287,63.0,0.0,240.0,3.0,0.0
288,77.0,0.0,240.0,1.0,0.0
289,65.0,0.0,1440.0,3.0,0.0
290,68.0,0.0,1440.0,3.0,0.0
291,61.0,240.0,2880.0,3.0,0.0
292,80.0,240.0,240.0,0.0,0.0
293,78.0,240.0,240.0,0.0,0.0
294,80.0,240.0,240.0,0.0,0.0
295,82.0,240.0,240.0,0.0,0.0
296,84.0,240.0,240.0,0.0,0.0
297,85.0,240.0,240.0,0.0,0.0
298,63.0,0.0,1440.0,3.0,0.0
299,66.0,0.0,1440.0,3.0,0.0
300,84.0,240.0,240.0,0.0,0.0
301,82.0,240.0,240.0,0.0,0.0
302,80.0,240.0,240.0,0.0,0.0
303,78.0,240.0,240.0,0.0,0.0
304,77.0,240.0,240.0,0.0,0.0
305,75.0,0.0,240.0,0.0,0.0
306,78.0,240.0,240.0,0.0,0.0
307,61.0,0.0,2880.0,3.0,0.0
308,66.0,240.0,1440.0,3.0,0.0
309,72.0,0.0,1440.0,3.0,0.0
310,80.0,240.0,240.0,0.0,0.0
311,82.0,240.0,240.0,0.0,0.0
312,84.0,240.0,240.0,0.0,0.0
313,85.0,240.0,240.0,0.0,0.0
314,87.0,0.0,240.0,0.0,0.0
315,85.0,240.0,240.0,0.0,0.0
316,65.0,0.0,1440.0,3.0,0.0
317,83.0,240.0,240.0,0.0,0.0
318,82.0,240.0,240.0,0.0,0.0
319,80.0,240.0,240.0,0.0,0.0
320,78.0,240.0,240.0,0.0,0.0
321,77.0,0.0,240.0,0.0,0.0
322,65.0,0.0,1440.0,3.0,0.0
323,71.0,0.0,1440.0,3.0,0.0
324,68.0,240.0,15.0,3.0,0.0
325,61.0,0.0,1440.0,3.0,0.0
326,80.0,240.0,240.0,0.0,0.0
327,83.0,240.0,240.0,0.0,0.0
328,89.0,240.0,240.0,0.0,0.0
329,83.0,240.0,240.0,0.0,0.0
330,92.0,240.0,240.0,0.0,0.0
331,89.0,240.0,240.0,0.0,0.0
332,68.0,0.0,15.0,3.0,0.0
333,92.0,240.0,240.0,0.0,0.0
334,62.0,0.0,1440.0,3.0,0.0
335,71.0,0.0,1440.0,3.0,0.0
336,65.0,0.0,1440.0,3.0,0.0
337,89.0,240.0,240.0,0.0,0.0
338,92.0,240.0,240.0,0.0,0.0
339,89.0,240.0,240.0,0.0,0.0
340,92.0,240.0,240.0,0.0,0.0
341,89.0,0.0,240.0,0.0,0.0
342,71.0,0.0,960.0,3.0,0.0
343,68.0,240.0,15.0,3.0,0.0
344,61.0,0.0,960.0,3.0,0.0
345,92.0,240.0,240.0,0.0,0.0
346,89.0,240.0,240.0,0.0,0.0
347,85.0,240.0,240.0,0.0,0.0
348,87.0,240.0,240.0,0.0,0.0
349,59.0,0.0,480.0,3.0,0.0
350,68.0,0.0,15.0,3.0,0.0
351,65.0,0.0,15.0,3.0,0.0
352,89.0,240.0,240.0,0.0,0.0
353,85.0,240.0,240.0,0.0,0.0
354,66.0,0.0,960.0,3.0,0.0
355,61.0,0.0,960.0,3.0,0.0
356,58.0,0.0,960.0,3.0,0.0
357,90.0,240.0,240.0,0.0,0.0
358,85.0,240.0,240.0,0.0,0.0
359,90.0,240.0,240.0,0.0,0.0
360,85.0,240.0,240.0,0.0,0.0
361,54.0,240.0,480.0,3.0,0.0
362,82.0,240.0,240.0,0.0,0.0
363,66.0,0.0,480.0,3.0,0.0
364,78.0,0.0,240.0,0.0,0.0
365,61.0,0.0,15.0,3.0,0.0
366,65.0,0.0,1440.0,3.0,0.0
367,71.0,0.0,1440.0,3.0,0.0
368,68.0,0.0,1440.0,3.0,0.0
369,80.0,240.0,240.0,0.0,0.0
370,83.0,240.0,240.0,0.0,0.0
371,89.0,240.0,240.0,0.0,0.0
372,83.0,240.0,240.0,0.0,0.0
373,92.0,240.0,240.0,0.0,0.0
374,89.0,240.0,240.0,0.0,0.0
375,71.0,240.0,1440.0,3.0,0.0
376,65.0,0.0,1440.0,3.0,0.0
377,62.0,0.0,1440.0,3.0,0.0
378,92.0,240.0,240.0,0.0,0.0
379,89.0,240.0,240.0,0.0,0.0
380,92.0,240.0,240.0,0.0,0.0
381,89.0,240.0,240.0,0.0,0.0
382,92.0,240.0,240.0,0.0,0.0
383,89.0,0.0,240.0,0.0,0.0
384,92.0,240.0,240.0,0.0,0.0
385,68.0,0.0,15.0,3.0,0.0
386,71.0,240.0,960.0,3.0,0.0
387,61.0,0.0,960.0,3.0,0.0
388,89.0,240.0,240.0,0.0,0.0
389,85.0,240.0,240.0,0.0,0.0
390,87.0,0.0,240.0,0.0,0.0
391,65.0,0.0,15.0,3.0,0.0
392,89.0,240.0,240.0,0.0,0.0
393,59.0,240.0,480.0,3.0,0.0
394,68.0,0.0,480.0,3.0,0.0
395,85.0,0.0,240.0,0.0,0.0
396,90.0,240.0,240.0,0.0,0.0
397,58.0,240.0,960.0,3.0,0.0
398,85.0,240.0,240.0,0.0,0.0
399,90.0,240.0,240.0,0.0,0.0
400,85.0,0.0,240.0,0.0,0.0
401,61.0,0.0,15.0,3.0,0.0
402,54.0,0.0,480.0,3.0,0.0
403,66.0,0.0,15.0,3.0,0.0
404,82.0,240.0,240.0,0.0,0.0
405,78.0,0.0,240.0,0.0,0.0
406,59.0,0.0,480.0,3.0,0.0
407,63.0,240.0,480.0,3.0,0.0
408,66.0,0.0,15.0,3.0,0.0
409,87.0,240.0,240.0,0.0,0.0
410,83.0,0.0,240.0,0.0,0.0
411,87.0,240.0,240.0,0.0,0.0
412,83.0,240.0,240.0,0.0,0.0
413,63.0,0.0,480.0,3.0,0.0
414,59.0,0.0,480.0,3.0,0.0
415,78.0,240.0,240.0,0.0,0.0
416,68.0,480.0,480.0,3.0,0.0
417,75.0,0.0,240.0,0.0,0.0
418,70.0,480.0,480.0,3.0,0.0
419,73.0,60.0,960.0,0.0,0.0
420,66.0,0.0,480.0,3.0,0.0
421,61.0,0.0,480.0,3.0,0.0
422,65.0,0.0,480.0,3.0,0.0
423,61.0,0.0,480.0,3.0,0.0
424,80.0,60.0,60.0,0.0,0.0
425,71.0,0.0,480.0,3.0,0.0
426,82.0,60.0,60.0,0.0,0.0
427,80.0,60.0,60.0,0.0,0.0
428,82.0,40.0,60.0,0.0,0.0
429,80.0,40.0,30.0,0.0,0.0
430,82.0,40.0,30.0,0.0,0.0
431,80.0,60.0,30.0,0.0,0.0
432,78.0,60.0,60.0,0.0,0.0
433,80.0,240.0,60.0,0.0,0.0
434,54.0,0.0,450.0,3.0,0.0
435,78.0,200.0,240.0,0.0,0.0
436,58.0,40.0,450.0,2.0,0.0
437,61.0,192.0,240.0,2.0,0.0
438,85.0,48.0,180.0,0.0,0.0
439,73.0,200.0,240.0,1.0,0.0
440,54.0,0.0,450.0,3.0,0.0
441,58.0,40.0,450.0,2.0,0.0
442,61.0,192.0,240.0,2.0,0.0
443,54.0,0.0,450.0,3.0,0.0
444,66.0,200.0,240.0,1.0,0.0
445,58.0,40.0,450.0,2.0,0.0
446,78.0,48.0,180.0,0.0,0.0
447,61.0,440.0,240.0,2.0,0.0
448,56.0,0.0,450.0,2.0,0.0
449,59.0,0.0,450.0,2.0,0.0
450,54.0,40.0,450.0,3.0,0.0
451,61.0,192.0,240.0,2.0,0.0
452,56.0,0.0,450.0,2.0,0.0
453,71.0,200.0,240.0,1.0,0.0
454,83.0,48.0,180.0,0.0,0.0
455,59.0,40.0,450.0,2.0,0.0
456,54.0,0.0,450.0,3.0,0.0
457,61.0,192.0,240.0,2.0,0.0
458,59.0,40.0,450.0,2.0,0.0
459,65.0,200.0,240.0,1.0,0.0
460,54.0,0.0,450.0,3.0,0.0
461,77.0,48.0,180.0,0.0,0.0
462,56.0,0.0,450.0,2.0,0.0
463,61.0,672.0,240.0,2.0,0.0
464,78.0,0.0,180.0,0.0,0.0
465,66.0,432.0,240.0,1.0,0.0
466,54.0,48.0,180.0,3.0,0.0
467,75.0,48.0,180.0,0.0,0.0
468,63.0,912.0,240.0,1.0,0.0
469,51.0,0.0,180.0,3.0,0.0
470,76.0,48.0,180.0,0.0,0.0
471,64.0,432.0,240.0,1.0,0.0
472,52.0,0.0,180.0,3.0,0.0
473,61.0,912.0,240.0,1.0,0.0
474,73.0,0.0,180.0,0.0,0.0
475,49.0,48.0,180.0,3.0,0.0
476,51.0,0.0,180.0,3.0,0.0
477,75.0,432.0,240.0,1.0,0.0
478,87.0,0.0,180.0,0.0,0.0
479,63.0,48.0,180.0,3.0,0.0
480,84.0,0.0,180.0,0.0,0.0
481,48.0,48.0,180.0,3.0,0.0
482,72.0,912.0,240.0,1.0,0.0
483,60.0,0.0,180.0,3.0,0.0
484,61.0,48.0,180.0,3.0,0.0
485,49.0,0.0,180.0,3.0,0.0
486,73.0,432.0,240.0,1.0,0.0
487,85.0,0.0,180.0,0.0,0.0
488,82.0,0.0,180.0,0.0,0.0
489,46.0,0.0,180.0,3.0,0.0
490,70.0,432.0,240.0,1.0,0.0
491,58.0,48.0,180.0,3.0,0.0
492,60.0,192.0,480.0,2.0,0.0
493,80.0,48.0,180.0,0.0,0.0
494,68.0,240.0,240.0,1.0,0.0
495,63.0,0.0,240.0,2.0,0.0
496,56.0,0.0,15.0,3.0,0.0
497,84.0,48.0,180.0,0.0,0.0
498,72.0,240.0,240.0,1.0,0.0
499,63.0,192.0,240.0,2.0,0.0
500,68.0,240.0,240.0,1.0,0.0
501,80.0,48.0,180.0,0.0,0.0
502,60.0,0.0,15.0,2.0,0.0
503,63.0,0.0,240.0,2.0,0.0
504,56.0,480.0,15.0,3.0,0.0
505,87.0,0.0,960.0,0.0,0.0
506,60.0,0.0,15.0,2.0,0.0
507,75.0,240.0,960.0,1.0,0.0
508,63.0,0.0,240.0,2.0,0.0
509,56.0,480.0,15.0,3.0,0.0
510,63.0,0.0,240.0,2.0,0.0
511,85.0,240.0,240.0,0.0,0.0
512,56.0,0.0,480.0,3.0,0.0
513,60.0,0.0,15.0,2.0,0.0
514,84.0,240.0,240.0,0.0,0.0
515,63.0,0.0,240.0,2.0,0.0
516,82.0,240.0,240.0,0.0,0.0
517,63.0,0.0,240.0,2.0,0.0
518,80.0,0.0,240.0,0.0,0.0
519,60.0,0.0,15.0,2.0,0.0
520,56.0,240.0,15.0,3.0,0.0
521,79.0,240.0,240.0,0.0,0.0
522,80.0,240.0,240.0,0.0,0.0
523,63.0,0.0,240.0,2.0,0.0
524,60.0,480.0,480.0,2.0,0.0
525,56.0,0.0,15.0,3.0,0.0
526,84.0,240.0,240.0,0.0,0.0
527,80.0,0.0,240.0,0.0,0.0
528,63.0,0.0,240.0,2.0,0.0
529,56.0,0.0,15.0,3.0,0.0
530,79.0,0.0,480.0,0.0,0.0
531,65.0,0.0,240.0,2.0,0.0
532,77.0,120.0,360.0,0.0,0.0
533,61.0,360.0,15.0,2.0,0.0
534,65.0,0.0,240.0,2.0,0.0
535,75.0,240.0,240.0,0.0,0.0
536,56.0,240.0,15.0,3.0,0.0
537,73.0,240.0,240.0,0.0,0.0
538,65.0,0.0,240.0,2.0,0.0
539,61.0,0.0,15.0,2.0,0.0
540,56.0,0.0,15.0,3.0,0.0
541,72.0,240.0,240.0,0.0,0.0
542,70.0,0.0,240.0,0.0,0.0
543,65.0,0.0,240.0,2.0,0.0
544,56.0,240.0,15.0,3.0,0.0
545,69.0,240.0,240.0,0.0,0.0
546,65.0,0.0,240.0,2.0,0.0
547,70.0,240.0,240.0,0.0,0.0
548,61.0,0.0,15.0,2.0,0.0
549,73.0,240.0,240.0,0.0,0.0
550,56.0,0.0,480.0,3.0,0.0
551,65.0,0.0,240.0,2.0,0.0
552,70.0,0.0,240.0,0.0,0.0
553,67.0,0.0,960.0,0.0,0.0
554,58.0,0.0,480.0,2.0,0.0
555,63.0,0.0,240.0,2.0,0.0
556,61.0,480.0,15.0,2.0,0.0
557,56.0,0.0,15.0,3.0,0.0
558,63.0,0.0,240.0,2.0,0.0
559,56.0,0.0,15.0,3.0,0.0
560,61.0,0.0,15.0,2.0,0.0
561,70.0,240.0,240.0,0.0,0.0
562,58.0,240.0,15.0,2.0,0.0
563,63.0,192.0,240.0,2.0,0.0
564,73.0,288.0,180.0,0.0,0.0
565,58.0,192.0,480.0,2.0,0.0
566,61.0,0.0,480.0,2.0,0.0
567,63.0,0.0,240.0,2.0,0.0
568,56.0,0.0,15.0,3.0,0.0
569,70.0,288.0,180.0,0.0,0.0
570,63.0,0.0,240.0,2.0,0.0
571,61.0,0.0,15.0,2.0,0.0
572,56.0,0.0,15.0,3.0,0.0
573,67.0,288.0,180.0,0.0,0.0
574,58.0,192.0,15.0,2.0,0.0
575,63.0,192.0,240.0,2.0,0.0
576,56.0,0.0,15.0,3.0,0.0
577,68.0,240.0,180.0,0.0,0.0
578,63.0,240.0,180.0,1.0,0.0
579,72.0,0.0,180.0,0.0,0.0
580,75.0,240.0,180.0,2.0,0.0
581,63.0,240.0,180.0,1.0,0.0
582,68.0,240.0,180.0,0.0,0.0
583,72.0,0.0,180.0,2.0,0.0
584,63.0,48.0,180.0,1.0,0.0
585,56.0,192.0,15.0,3.0,0.0
586,68.0,240.0,180.0,0.0,0.0
587,63.0,240.0,180.0,1.0,0.0
588,72.0,0.0,180.0,0.0,0.0
589,75.0,240.0,180.0,2.0,0.0
590,63.0,240.0,180.0,1.0,0.0
591,72.0,240.0,180.0,2.0,0.0
592,68.0,0.0,180.0,0.0,0.0
593,63.0,48.0,180.0,1.0,0.0
594,56.0,192.0,1440.0,3.0,0.0
595,68.0,240.0,180.0,0.0,0.0
596,63.0,240.0,180.0,1.0,0.0
597,72.0,0.0,180.0,0.0,0.0
598,75.0,240.0,180.0,2.0,0.0
599,63.0,240.0,180.0,1.0,0.0
600,68.0,0.0,180.0,0.0,0.0
601,72.0,240.0,180.0,2.0,0.0
602,63.0,48.0,180.0,1.0,0.0
603,67.0,240.0,180.0,0.0,0.0
604,63.0,240.0,180.0,1.0,0.0
605,73.0,240.0,180.0,2.0,0.0
606,70.0,0.0,180.0,0.0,0.0
607,63.0,240.0,180.0,1.0,0.0
608,67.0,0.0,180.0,0.0,0.0
609,70.0,240.0,180.0,2.0,0.0
610,63.0,48.0,180.0,1.0,0.0
611,51.0,192.0,15.0,3.0,0.0
612,67.0,240.0,180.0,0.0,0.0
613,63.0,240.0,180.0,1.0,0.0
614,73.0,0.0,180.0,2.0,0.0
615,70.0,240.0,180.0,0.0,0.0
616,63.0,240.0,180.0,1.0,0.0
617,67.0,240.0,180.0,0.0,0.0
618,70.0,0.0,180.0,2.0,0.0
619,63.0,48.0,180.0,1.0,0.0
620,67.0,240.0,180.0,0.0,0.0
621,51.0,192.0,15.0,3.0,0.0
622,63.0,240.0,180.0,1.0,0.0
623,70.0,0.0,180.0,0.0,0.0
624,73.0,240.0,180.0,2.0,0.0
625,63.0,240.0,180.0,1.0,0.0
626,67.0,0.0,180.0,0.0,0.0
627,70.0,240.0,180.0,2.0,0.0
628,63.0,48.0,180.0,1.0,0.0
629,51.0,192.0,15.0,3.0,0.0
630,67.0,240.0,180.0,0.0,0.0
631,63.0,240.0,180.0,1.0,0.0
632,73.0,240.0,180.0,2.0,0.0
633,70.0,0.0,180.0,0.0,0.0
634,63.0,240.0,180.0,1.0,0.0
635,67.0,0.0,180.0,0.0,0.0
636,70.0,240.0,180.0,2.0,0.0
637,63.0,48.0,180.0,1.0,0.0
638,56.0,192.0,1440.0,3.0,0.0
639,68.0,240.0,180.0,0.0,0.0
640,63.0,240.0,180.0,1.0,0.0
641,71.0,240.0,180.0,2.0,0.0
642,68.0,0.0,180.0,0.0,0.0
643,63.0,240.0,180.0,1.0,0.0
644,68.0,0.0,180.0,0.0,0.0
645,71.0,240.0,180.0,2.0,0.0
646,63.0,48.0,180.0,1.0,0.0
647,64.0,240.0,180.0,0.0,0.0
648,52.0,192.0,1440.0,3.0,0.0
649,59.0,240.0,180.0,1.0,0.0
650,71.0,0.0,180.0,2.0,0.0
651,68.0,240.0,180.0,0.0,0.0
652,59.0,240.0,180.0,1.0,0.0
653,68.0,240.0,180.0,2.0,0.0
654,64.0,0.0,180.0,0.0,0.0
655,59.0,48.0,180.0,1.0,0.0
656,64.0,240.0,180.0,0.0,0.0
657,59.0,240.0,180.0,1.0,0.0
658,71.0,0.0,180.0,2.0,0.0
659,68.0,240.0,180.0,0.0,0.0
660,59.0,240.0,180.0,1.0,0.0
661,64.0,240.0,180.0,0.0,0.0
662,68.0,0.0,180.0,2.0,0.0
663,59.0,48.0,180.0,1.0,0.0
664,52.0,192.0,15.0,3.0,0.0
665,64.0,240.0,180.0,0.0,0.0
666,59.0,240.0,180.0,1.0,0.0
667,71.0,240.0,180.0,2.0,0.0
668,68.0,0.0,180.0,0.0,0.0
669,59.0,240.0,180.0,1.0,0.0
670,64.0,240.0,180.0,0.0,0.0
671,68.0,0.0,180.0,2.0,0.0
672,59.0,48.0,180.0,1.0,0.0
673,47.0,192.0,1440.0,3.0,0.0
674,63.0,240.0,180.0,0.0,0.0
675,59.0,240.0,180.0,1.0,0.0
676,66.0,240.0,180.0,0.0,0.0
677,69.0,0.0,180.0,2.0,0.0
678,59.0,240.0,180.0,1.0,0.0
679,66.0,240.0,180.0,2.0,0.0
680,63.0,0.0,180.0,0.0,0.0
681,59.0,48.0,180.0,1.0,0.0
682,63.0,240.0,180.0,0.0,0.0
683,59.0,240.0,180.0,1.0,0.0
684,66.0,0.0,180.0,0.0,0.0
685,69.0,240.0,180.0,2.0,0.0
686,59.0,240.0,180.0,1.0,0.0
687,63.0,0.0,180.0,0.0,0.0
688,66.0,240.0,180.0,2.0,0.0
689,59.0,48.0,180.0,1.0,0.0
690,63.0,240.0,180.0,0.0,0.0
691,47.0,192.0,15.0,3.0,0.0
692,59.0,240.0,180.0,1.0,0.0
693,69.0,0.0,180.0,2.0,0.0
694,66.0,240.0,180.0,0.0,0.0
695,59.0,240.0,180.0,1.0,0.0
696,63.0,240.0,180.0,0.0,0.0
697,66.0,0.0,180.0,2.0,0.0
698,59.0,48.0,180.0,1.0,0.0
699,63.0,240.0,180.0,0.0,0.0
700,47.0,192.0,15.0,3.0,0.0
701,59.0,240.0,180.0,1.0,0.0
702,66.0,240.0,180.0,0.0,0.0
703,69.0,0.0,180.0,2.0,0.0
704,59.0,240.0,180.0,1.0,0.0
705,63.0,0.0,180.0,0.0,0.0
706,66.0,240.0,180.0,2.0,0.0
707,59.0,48.0,180.0,1.0,0.0
708,64.0,240.0,180.0,0.0,0.0
709,59.0,240.0,180.0,1.0,0.0
710,68.0,0.0,180.0,2.0,0.0
711,64.0,240.0,180.0,0.0,0.0
712,59.0,240.0,180.0,1.0,0.0
713,64.0,240.0,180.0,0.0,0.0
714,68.0,0.0,180.0,2.0,0.0
715,59.0,48.0,180.0,1.0,0.0
716,52.0,240.0,15.0,3.0,0.0
717,40.0,240.0,1440.0,3.0,0.0
718,64.0,240.0,240.0,0.0,0.0
719,47.0,0.0,1440.0,2.0,0.0
720,59.0,240.0,240.0,0.0,0.0
721,58.0,240.0,240.0,0.0,0.0
722,59.0,240.0,240.0,0.0,0.0
723,63.0,240.0,240.0,0.0,0.0
724,64.0,0.0,240.0,0.0,0.0
725,39.0,0.0,1440.0,3.0,0.0
726,66.0,240.0,240.0,0.0,0.0
727,51.0,0.0,1440.0,3.0,0.0
728,59.0,240.0,240.0,0.0,0.0
729,58.0,240.0,240.0,0.0,0.0
730,59.0,240.0,240.0,0.0,0.0
731,64.0,240.0,240.0,0.0,0.0
732,66.0,0.0,240.0,0.0,0.0
733,52.0,0.0,960.0,3.0,0.0
734,40.0,0.0,960.0,3.0,0.0
735,47.0,240.0,15.0,2.0,0.0
736,68.0,240.0,240.0,0.0,0.0
737,64.0,240.0,240.0,0.0,0.0
738,63.0,240.0,240.0,0.0,0.0
739,64.0,240.0,240.0,0.0,0.0
740,49.0,240.0,240.0,3.0,0.0
741,69.0,0.0,240.0,0.0,0.0
742,71.0,192.0,240.0,0.0,0.0
743,44.0,0.0,240.0,3.0,0.0
744,45.0,48.0,180.0,3.0,0.0
745,73.0,240.0,240.0,0.0,0.0
746,71.0,192.0,240.0,0.0,0.0
747,69.0,240.0,240.0,0.0,0.0
748,45.0,48.0,180.0,3.0,0.0
749,68.0,192.0,240.0,0.0,0.0
750,66.0,240.0,240.0,0.0,0.0
751,46.0,48.0,180.0,3.0,0.0
752,64.0,480.0,240.0,0.0,0.0
753,63.0,0.0,480.0,0.0,0.0
754,47.0,720.0,480.0,3.0,0.0
755,69.0,0.0,240.0,3.0,0.0
756,81.0,240.0,240.0,0.0,0.0
757,71.0,240.0,240.0,3.0,0.0
758,83.0,0.0,240.0,0.0,0.0
759,73.0,240.0,240.0,3.0,0.0
760,85.0,0.0,240.0,0.0,0.0
761,83.0,240.0,240.0,0.0,0.0
762,71.0,0.0,240.0,3.0,0.0
763,81.0,240.0,240.0,0.0,0.0
764,69.0,0.0,240.0,3.0,0.0
765,68.0,240.0,240.0,3.0,0.0
766,80.0,0.0,240.0,0.0,0.0
767,78.0,0.0,240.0,0.0,0.0
768,66.0,240.0,240.0,3.0,0.0
769,76.0,480.0,240.0,0.0,0.0
770,64.0,0.0,240.0,3.0,0.0
771,63.0,0.0,480.0,3.0,0.0
772,75.0,720.0,480.0,0.0,0.0
773,69.0,240.0,240.0,0.0,0.0
774,57.0,0.0,240.0,3.0,0.0
775,59.0,0.0,240.0,3.0,0.0
776,71.0,240.0,240.0,0.0,0.0
777,72.0,240.0,240.0,0.0,0.0
778,60.0,0.0,240.0,3.0,0.0
779,59.0,240.0,240.0,3.0,0.0
780,71.0,0.0,240.0,0.0,0.0
781,69.0,0.0,240.0,0.0,0.0
782,57.0,240.0,240.0,3.0,0.0
783,55.0,0.0,240.0,3.0,0.0
784,67.0,240.0,240.0,0.0,0.0
785,66.0,0.0,240.0,0.0,0.0
786,54.0,240.0,240.0,3.0,0.0
787,71.0,0.0,240.0,0.0,0.0
788,59.0,192.0,240.0,3.0,0.0
789,64.0,240.0,180.0,0.0,0.0
790,59.0,240.0,180.0,1.0,0.0
791,71.0,240.0,180.0,2.0,0.0
792,67.0,0.0,180.0,0.0,0.0
793,59.0,240.0,180.0,1.0,0.0
794,67.0,0.0,180.0,2.0,0.0
795,64.0,240.0,180.0,0.0,0.0
796,59.0,48.0,180.0,1.0,0.0
797,52.0,192.0,15.0,3.0,0.0
798,64.0,240.0,180.0,0.0,0.0
799,59.0,240.0,180.0,1.0,0.0
800,67.0,240.0,180.0,0.0,0.0
801,71.0,0.0,180.0,2.0,0.0
802,59.0,240.0,180.0,1.0,0.0
803,67.0,240.0,180.0,2.0,0.0
804,64.0,0.0,180.0,0.0,0.0
805,59.0,48.0,180.0,1.0,0.0
806,64.0,240.0,180.0,0.0,0.0
807,52.0,192.0,1440.0,3.0,0.0
808,59.0,240.0,180.0,1.0,0.0
809,67.0,0.0,180.0,0.0,0.0
810,71.0,240.0,180.0,2.0,0.0
811,59.0,240.0,180.0,1.0,0.0
812,64.0,0.0,180.0,0.0,0.0
813,67.0,240.0,180.0,2.0,0.0
814,59.0,48.0,180.0,1.0,0.0
815,47.0,192.0,1440.0,3.0,0.0
816,63.0,240.0,180.0,0.0,0.0
817,59.0,240.0,180.0,1.0,0.0
818,66.0,0.0,180.0,0.0,0.0
819,69.0,240.0,180.0,2.0,0.0
820,59.0,240.0,180.0,1.0,0.0
821,66.0,0.0,180.0,2.0,0.0
822,63.0,240.0,180.0,0.0,0.0
823,59.0,48.0,180.0,1.0,0.0
824,63.0,240.0,180.0,0.0,0.0
825,47.0,192.0,1440.0,3.0,0.0
826,59.0,240.0,180.0,1.0,0.0
827,66.0,0.0,180.0,0.0,0.0
828,69.0,240.0,180.0,2.0,0.0
829,59.0,240.0,180.0,1.0,0.0
830,63.0,0.0,180.0,0.0,0.0
831,66.0,240.0,180.0,2.0,0.0
832,59.0,48.0,180.0,1.0,0.0
833,63.0,240.0,180.0,0.0,0.0
834,59.0,240.0,180.0,1.0,0.0
835,69.0,240.0,180.0,2.0,0.0
836,66.0,0.0,180.0,0.0,0.0
837,59.0,240.0,180.0,1.0,0.0
838,63.0,0.0,180.0,0.0,0.0
839,66.0,240.0,180.0,2.0,0.0
840,59.0,48.0,180.0,1.0,0.0
841,47.0,192.0,15.0,3.0,0.0
842,63.0,240.0,180.0,0.0,0.0
843,59.0,240.0,180.0,1.0,0.0
844,66.0,0.0,180.0,0.0,0.0
845,69.0,240.0,180.0,2.0,0.0
846,59.0,240.0,180.0,1.0,0.0
847,66.0,240.0,180.0,2.0,0.0
848,63.0,0.0,180.0,0.0,0.0
849,59.0,48.0,180.0,1.0,0.0
850,64.0,240.0,180.0,0.0,0.0
851,52.0,192.0,1440.0,3.0,0.0
852,59.0,49.0,180.0,1.0,0.0
853,67.0,239.0,15.0,2.0,0.0
854,64.0,192.0,240.0,0.0,0.0
855,59.0,240.0,180.0,1.0,0.0
856,66.0,192.0,240.0,0.0,0.0
857,69.0,48.0,180.0,2.0,0.0
858,62.0,48.0,180.0,1.0,0.0
859,55.0,192.0,1440.0,3.0,0.0
860,67.0,240.0,180.0,0.0,0.0
861,62.0,240.0,180.0,1.0,0.0
862,74.0,0.0,180.0,2.0,0.0
863,71.0,240.0,180.0,0.0,0.0
864,62.0,240.0,180.0,1.0,0.0
865,71.0,0.0,180.0,2.0,0.0
866,67.0,240.0,180.0,0.0,0.0
867,62.0,48.0,180.0,1.0,0.0
868,67.0,240.0,180.0,0.0,0.0
869,62.0,240.0,180.0,1.0,0.0
870,74.0,240.0,180.0,2.0,0.0
871,71.0,0.0,180.0,0.0,0.0
872,62.0,240.0,180.0,1.0,0.0
873,71.0,0.0,180.0,2.0,0.0
874,67.0,240.0,180.0,0.0,0.0
875,62.0,48.0,180.0,1.0,0.0
876,55.0,192.0,15.0,3.0,0.0
877,67.0,240.0,180.0,0.0,0.0
878,62.0,240.0,180.0,1.0,0.0
879,74.0,240.0,180.0,2.0,0.0
880,71.0,0.0,180.0,0.0,0.0
881,62.0,240.0,180.0,1.0,0.0
882,71.0,240.0,180.0,2.0,0.0
883,67.0,0.0,180.0,0.0,0.0
884,62.0,48.0,180.0,1.0,0.0
885,50.0,192.0,1440.0,3.0,0.0
886,66.0,240.0,180.0,0.0,0.0
887,62.0,240.0,180.0,1.0,0.0
888,69.0,0.0,180.0,0.0,0.0
889,72.0,240.0,180.0,2.0,0.0
890,62.0,240.0,180.0,1.0,0.0
891,66.0,0.0,180.0,0.0,0.0
892,69.0,240.0,180.0,2.0,0.0
893,62.0,48.0,180.0,1.0,0.0
894,66.0,240.0,180.0,0.0,0.0
895,62.0,240.0,180.0,1.0,0.0
896,69.0,240.0,180.0,0.0,0.0
897,72.0,0.0,180.0,2.0,0.0
898,62.0,240.0,180.0,1.0,0.0
899,69.0,0.0,180.0,2.0,0.0
900,66.0,240.0,180.0,0.0,0.0
901,62.0,48.0,180.0,1.0,0.0
902,66.0,240.0,180.0,0.0,0.0
903,50.0,192.0,15.0,3.0,0.0
904,62.0,240.0,180.0,1.0,0.0
905,69.0,240.0,180.0,0.0,0.0
906,72.0,0.0,180.0,2.0,0.0
907,62.0,240.0,180.0,1.0,0.0
908,69.0,0.0,180.0,2.0,0.0
909,66.0,240.0,180.0,0.0,0.0
910,62.0,48.0,180.0,1.0,0.0
911,50.0,192.0,15.0,3.0,0.0
912,66.0,240.0,180.0,0.0,0.0
913,62.0,240.0,180.0,1.0,0.0
914,72.0,240.0,180.0,2.0,0.0
915,69.0,0.0,180.0,0.0,0.0
916,62.0,240.0,180.0,1.0,0.0
917,69.0,0.0,180.0,2.0,0.0
918,66.0,240.0,180.0,0.0,0.0
919,62.0,48.0,180.0,1.0,0.0
920,55.0,240.0,1440.0,3.0,0.0
921,67.0,240.0,180.0,0.0,0.0
922,62.0,240.0,180.0,1.0,0.0
923,71.0,0.0,180.0,2.0,0.0
924,67.0,240.0,180.0,0.0,0.0
925,62.0,240.0,180.0,1.0,0.0
926,71.0,240.0,180.0,2.0,0.0
927,67.0,0.0,180.0,0.0,0.0
928,62.0,48.0,180.0,1.0,0.0
929,67.0,240.0,240.0,0.0,0.0
930,50.0,0.0,1440.0,2.0,0.0
931,55.0,0.0,1440.0,3.0,0.0
932,43.0,0.0,1440.0,3.0,0.0
933,62.0,240.0,240.0,0.0,0.0
934,61.0,240.0,240.0,0.0,0.0
935,62.0,240.0,240.0,0.0,0.0
936,66.0,240.0,240.0,0.0,0.0
937,67.0,240.0,240.0,0.0,0.0
938,54.0,0.0,1440.0,3.0,0.0
939,42.0,0.0,1440.0,3.0,0.0
940,69.0,240.0,240.0,0.0,0.0
941,50.0,0.0,1440.0,2.0,0.0
942,62.0,240.0,240.0,0.0,0.0
943,61.0,240.0,240.0,0.0,0.0
944,62.0,240.0,240.0,0.0,0.0
945,67.0,240.0,240.0,0.0,0.0
946,69.0,240.0,240.0,0.0,0.0
947,50.0,240.0,960.0,2.0,0.0
948,55.0,0.0,960.0,3.0,0.0
949,43.0,0.0,960.0,3.0,0.0
950,71.0,240.0,240.0,0.0,0.0
951,67.0,240.0,240.0,0.0,0.0
952,66.0,240.0,240.0,0.0,0.0
953,67.0,0.0,240.0,0.0,0.0
954,72.0,0.0,240.0,0.0,0.0
955,52.0,240.0,240.0,3.0,0.0
956,74.0,192.0,240.0,0.0,0.0
957,47.0,0.0,240.0,3.0,0.0
958,76.0,240.0,240.0,0.0,0.0
959,48.0,48.0,180.0,3.0,0.0
960,74.0,192.0,240.0,0.0,0.0
961,48.0,48.0,180.0,3.0,0.0
962,72.0,240.0,240.0,0.0,0.0
963,71.0,192.0,240.0,0.0,0.0
964,49.0,48.0,180.0,3.0,0.0
965,69.0,240.0,240.0,0.0,0.0
966,67.0,480.0,240.0,0.0,0.0
967,50.0,720.0,480.0,3.0,0.0
968,66.0,0.0,480.0,0.0,0.0
969,76.0,0.0,240.0,3.0,0.0
970,84.0,240.0,240.0,0.0,0.0
971,74.0,0.0,240.0,3.0,0.0
972,86.0,192.0,240.0,0.0,0.0
973,72.0,48.0,180.0,3.0,0.0
974,88.0,240.0,240.0,0.0,0.0
975,86.0,192.0,240.0,0.0,0.0
976,84.0,240.0,240.0,0.0,0.0
977,72.0,48.0,180.0,3.0,0.0
978,83.0,192.0,240.0,0.0,0.0
979,73.0,48.0,180.0,3.0,0.0
980,81.0,240.0,240.0,0.0,0.0
981,79.0,480.0,240.0,0.0,0.0
982,78.0,0.0,480.0,0.0,0.0
983,74.0,720.0,480.0,3.0,0.0
984,52.0,240.0,240.0,3.0,0.0
985,64.0,0.0,240.0,0.0,0.0
986,66.0,240.0,240.0,0.0,0.0
987,54.0,0.0,240.0,3.0,0.0
988,55.0,240.0,240.0,3.0,0.0
989,67.0,0.0,240.0,0.0,0.0
990,66.0,0.0,240.0,0.0,0.0
991,54.0,240.0,240.0,3.0,0.0
992,64.0,0.0,240.0,0.0,0.0
993,52.0,240.0,240.0,3.0,0.0
994,62.0,0.0,240.0,0.0,0.0
995,50.0,240.0,240.0,3.0,0.0
996,61.0,0.0,240.0,0.0,0.0
997,49.0,240.0,240.0,3.0,0.0
998,59.0,0.0,240.0,0.0,0.0
999,47.0,480.0,240.0,3.0,0.0
1000,58.0,0.0,480.0,0.0,0.0
1001,46.0,720.0,480.0,3.0,0.0
1002,76.0,240.0,240.0,3.0,0.0
1003,88.0,0.0,240.0,0.0,0.0
1004,90.0,0.0,240.0,0.0,0.0
1005,78.0,240.0,240.0,3.0,0.0
1006,91.0,0.0,240.0,0.0,0.0
1007,79.0,240.0,240.0,3.0,0.0
1008,90.0,0.0,240.0,0.0,0.0
1009,78.0,240.0,240.0,3.0,0.0
1010,88.0,240.0,240.0,0.0,0.0
1011,76.0,0.0,240.0,3.0,0.0
1012,86.0,0.0,240.0,0.0,0.0
1013,74.0,240.0,240.0,3.0,0.0
1014,85.0,240.0,240.0,0.0,0.0
1015,73.0,0.0,240.0,3.0,0.0
1016,71.0,240.0,240.0,3.0,0.0
1017,83.0,0.0,240.0,0.0,0.0
1018,82.0,0.0,240.0,0.0,0.0
1019,70.0,240.0,240.0,3.0,0.0
1020,67.0,240.0,240.0,3.0,0.0
1021,79.0,0.0,240.0,0.0,0.0
1022,78.0,240.0,240.0,0.0,0.0
1023,66.0,0.0,240.0,3.0,0.0
1024,64.0,240.0,240.0,3.0,0.0
1025,76.0,0.0,240.0,0.0,0.0
1026,74.0,0.0,240.0,0.0,0.0
1027,62.0,240.0,240.0,3.0,0.0
1028,61.0,192.0,240.0,3.0,0.0
1029,73.0,0.0,240.0,0.0,0.0
1030,59.0,48.0,180.0,3.0,0.0
1031,71.0,240.0,240.0,0.0,0.0
1032,70.0,192.0,240.0,0.0,0.0
1033,55.0,48.0,180.0,3.0,0.0
1034,71.0,240.0,240.0,0.0,0.0
1035,73.0,192.0,240.0,0.0,0.0
1036,53.0,48.0,180.0,3.0,0.0
1037,74.0,240.0,240.0,0.0,0.0
1038,71.0,480.0,240.0,0.0,0.0
1039,70.0,192.0,480.0,0.0,0.0
1040,54.0,192.0,1440.0,3.0,0.0
1041,73.0,0.0,180.0,2.0,0.0
1042,70.0,240.0,180.0,0.0,0.0
1043,61.0,240.0,180.0,1.0,0.0
1044,66.0,240.0,180.0,0.0,0.0
1045,70.0,0.0,180.0,2.0,0.0
1046,61.0,48.0,180.0,1.0,0.0
1047,54.0,192.0,1440.0,3.0,0.0
1048,66.0,240.0,180.0,0.0,0.0
1049,61.0,240.0,180.0,1.0,0.0
1050,73.0,0.0,180.0,2.0,0.0
1051,70.0,240.0,180.0,0.0,0.0
1052,61.0,240.0,180.0,1.0,0.0
1053,66.0,240.0,180.0,0.0,0.0
1054,70.0,0.0,180.0,2.0,0.0
1055,61.0,48.0,180.0,1.0,0.0
1056,66.0,240.0,180.0,0.0,0.0
1057,54.0,192.0,1440.0,3.0,0.0
1058,61.0,240.0,180.0,1.0,0.0
1059,70.0,0.0,180.0,0.0,0.0
1060,73.0,240.0,180.0,2.0,0.0
1061,61.0,240.0,180.0,1.0,0.0
1062,70.0,0.0,180.0,2.0,0.0
1063,66.0,240.0,180.0,0.0,0.0
1064,61.0,48.0,180.0,1.0,0.0
1065,65.0,240.0,180.0,0.0,0.0
1066,61.0,240.0,180.0,1.0,0.0
1067,71.0,240.0,180.0,2.0,0.0
1068,68.0,0.0,180.0,0.0,0.0
1069,61.0,240.0,180.0,1.0,0.0
1070,65.0,0.0,180.0,0.0,0.0
1071,68.0,240.0,180.0,2.0,0.0
1072,61.0,48.0,180.0,1.0,0.0
1073,49.0,192.0,15.0,3.0,0.0
1074,65.0,240.0,180.0,0.0,0.0
1075,61.0,240.0,180.0,1.0,0.0
1076,71.0,240.0,180.0,2.0,0.0
1077,68.0,0.0,180.0,0.0,0.0
1078,61.0,240.0,180.0,1.0,0.0
1079,68.0,240.0,180.0,2.0,0.0
1080,65.0,0.0,180.0,0.0,0.0
1081,61.0,48.0,180.0,1.0,0.0
1082,49.0,192.0,1440.0,3.0,0.0
1083,65.0,240.0,180.0,0.0,0.0
1084,61.0,240.0,180.0,1.0,0.0
1085,68.0,0.0,180.0,0.0,0.0
1086,71.0,240.0,180.0,2.0,0.0
1087,61.0,240.0,180.0,1.0,0.0
1088,65.0,240.0,180.0,0.0,0.0
1089,68.0,0.0,180.0,2.0,0.0
1090,61.0,48.0,180.0,1.0,0.0
1091,65.0,240.0,180.0,0.0,0.0
1092,49.0,192.0,1440.0,3.0,0.0
1093,61.0,240.0,180.0,1.0,0.0
1094,71.0,0.0,180.0,2.0,0.0
1095,68.0,240.0,180.0,0.0,0.0
1096,61.0,240.0,180.0,1.0,0.0
1097,65.0,0.0,180.0,0.0,0.0
1098,68.0,240.0,180.0,2.0,0.0
1099,61.0,48.0,180.0,1.0,0.0
1100,66.0,240.0,180.0,0.0,0.0
1101,54.0,192.0,1440.0,3.0,0.0
1102,61.0,240.0,180.0,1.0,0.0
1103,73.0,240.0,180.0,0.0,0.0
1104,70.0,0.0,180.0,2.0,0.0
1105,66.0,240.0,180.0,1.0,0.0
1106,73.0,0.0,180.0,0.0,0.0
1107,66.0,240.0,180.0,2.0,0.0
1108,70.0,48.0,180.0,1.0,0.0
1109,58.0,288.0,180.0,3.0,0.0
1110,73.0,0.0,480.0,1.0,0.0
1111,78.0,0.0,180.0,0.0,0.0
1112,66.0,192.0,240.0,1.0,0.0
1113,78.0,0.0,180.0,0.0,0.0
1114,73.0,192.0,480.0,1.0,0.0
1115,54.0,288.0,180.0,3.0,0.0
1116,66.0,0.0,240.0,1.0,0.0
1117,46.0,288.0,180.0,3.0,0.0
1118,78.0,0.0,180.0,0.0,0.0
1119,66.0,0.0,240.0,1.0,0.0
1120,78.0,288.0,180.0,0.0,0.0
1121,42.0,0.0,180.0,3.0,0.0
1122,73.0,192.0,15.0,1.0,0.0
1123,66.0,0.0,240.0,1.0,0.0
1124,58.0,0.0,180.0,3.0,0.0
1125,78.0,288.0,180.0,0.0,0.0
1126,73.0,192.0,15.0,1.0,0.0
1127,66.0,0.0,240.0,1.0,0.0
1128,78.0,0.0,180.0,0.0,0.0
1129,54.0,288.0,180.0,3.0,0.0
1130,66.0,192.0,240.0,1.0,0.0
1131,73.0,0.0,15.0,1.0,0.0
1132,46.0,0.0,180.0,3.0,0.0
1133,76.0,288.0,180.0,0.0,0.0
1134,66.0,0.0,240.0,1.0,0.0
1135,42.0,288.0,180.0,3.0,0.0
1136,76.0,0.0,180.0,0.0,0.0
1137,66.0,0.0,240.0,1.0,0.0
1138,76.0,288.0,180.0,0.0,0.0
1139,58.0,0.0,180.0,3.0,0.0
1140,73.0,192.0,15.0,1.0,0.0
1141,66.0,192.0,240.0,1.0,0.0
1142,54.0,0.0,180.0,3.0,0.0
1143,76.0,288.0,180.0,0.0,0.0
1144,66.0,0.0,240.0,1.0,0.0
1145,76.0,288.0,180.0,0.0,0.0
1146,73.0,192.0,15.0,1.0,0.0
1147,46.0,0.0,180.0,3.0,0.0
1148,66.0,0.0,240.0,1.0,0.0
1149,42.0,288.0,180.0,3.0,0.0
1150,73.0,0.0,480.0,1.0,0.0
1151,76.0,0.0,180.0,0.0,0.0
1152,66.0,240.0,240.0,1.0,0.0
1153,71.0,0.0,240.0,1.0,0.0
1154,83.0,432.0,240.0,0.0,0.0
1155,47.0,32.0,4290.0,3.0,0.0
1156,87.0,48.0,180.0,0.0,0.0
1157,75.0,240.0,240.0,1.0,0.0
1158,59.0,192.0,480.0,3.0,0.0
1159,63.0,0.0,480.0,2.0,0.0
1160,66.0,0.0,240.0,2.0,0.0
1161,83.0,48.0,180.0,0.0,0.0
1162,63.0,0.0,480.0,2.0,0.0
1163,59.0,480.0,480.0,3.0,0.0
1164,71.0,240.0,240.0,1.0,0.0
1165,66.0,0.0,240.0,2.0,0.0
1166,78.0,0.0,960.0,1.0,0.0
1167,90.0,240.0,960.0,0.0,0.0
1168,66.0,0.0,240.0,2.0,0.0
1169,63.0,480.0,15.0,2.0,0.0
1170,59.0,0.0,15.0,3.0,0.0
1171,66.0,0.0,240.0,2.0,0.0
1172,59.0,0.0,480.0,3.0,0.0
1173,88.0,240.0,240.0,0.0,0.0
1174,66.0,0.0,240.0,2.0,0.0
1175,87.0,240.0,240.0,0.0,0.0
1176,63.0,0.0,15.0,2.0,0.0
1177,85.0,240.0,240.0,0.0,0.0
1178,83.0,0.0,240.0,0.0,0.0
1179,66.0,0.0,240.0,2.0,0.0
1180,63.0,0.0,15.0,2.0,0.0
1181,59.0,240.0,15.0,3.0,0.0
1182,82.0,240.0,240.0,0.0,0.0
1183,66.0,240.0,240.0,2.0,0.0
1184,83.0,0.0,240.0,0.0,0.0
1185,87.0,208.0,240.0,0.0,0.0
1186,63.0,0.0,480.0,2.0,0.0
1187,59.0,0.0,480.0,3.0,0.0
1188,83.0,0.0,240.0,0.0,0.0
1189,66.0,480.0,240.0,2.0,0.0
1190,82.0,0.0,480.0,0.0,0.0
1191,64.0,360.0,480.0,2.0,0.0
1192,68.0,0.0,240.0,2.0,0.0
1193,59.0,0.0,15.0,3.0,0.0
1194,80.0,120.0,360.0,0.0,0.0
1195,64.0,0.0,480.0,2.0,0.0
1196,68.0,240.0,240.0,2.0,0.0
1197,64.0,240.0,480.0,2.0,0.0
1198,78.0,240.0,240.0,0.0,0.0
1199,59.0,0.0,480.0,3.0,0.0
1200,68.0,0.0,240.0,2.0,0.0
1201,76.0,0.0,240.0,0.0,0.0
1202,59.0,0.0,480.0,3.0,0.0
1203,75.0,240.0,240.0,0.0,0.0
1204,73.0,240.0,240.0,0.0,0.0
1205,68.0,0.0,240.0,2.0,0.0
1206,59.0,240.0,480.0,3.0,0.0
1207,64.0,0.0,15.0,2.0,0.0
1208,72.0,240.0,240.0,0.0,0.0
1209,68.0,0.0,240.0,2.0,0.0
1210,73.0,0.0,240.0,0.0,0.0
1211,76.0,240.0,240.0,0.0,0.0
1212,59.0,480.0,480.0,3.0,0.0
1213,73.0,0.0,240.0,0.0,0.0
1214,68.0,0.0,240.0,2.0,0.0
1215,61.0,0.0,480.0,2.0,0.0
1216,64.0,0.0,15.0,2.0,0.0
1217,70.0,50.0,750.0,0.0,0.0
1218,59.0,0.0,480.0,3.0,0.0
1219,66.0,270.0,240.0,2.0,0.0
1220,59.0,0.0,480.0,3.0,0.0
1221,61.0,0.0,480.0,2.0,0.0
1222,66.0,480.0,240.0,2.0,0.0
1223,75.0,80.0,90.0,0.0,0.0
1224,73.0,80.0,90.0,0.0,0.0
1225,72.0,0.0,90.0,0.0,0.0
1226,64.0,0.0,15.0,2.0,0.0
1227,73.0,0.0,480.0,0.0,0.0
1228,61.0,0.0,480.0,2.0,0.0
1229,66.0,0.0,240.0,2.0,0.0
1230,59.0,240.0,15.0,3.0,0.0
1231,61.0,0.0,480.0,2.0,0.0
1232,76.0,240.0,240.0,0.0,0.0
1233,66.0,0.0,240.0,2.0,0.0
1234,59.0,0.0,480.0,3.0,0.0
1235,73.0,288.0,180.0,0.0,0.0
1236,64.0,192.0,15.0,2.0,0.0
1237,66.0,192.0,240.0,2.0,0.0
1238,61.0,0.0,15.0,2.0,0.0
1239,64.0,0.0,480.0,2.0,0.0
1240,70.0,288.0,180.0,0.0,0.0
1241,66.0,240.0,240.0,2.0,0.0
1242,63.0,0.0,1440.0,3.0,0.0
1243,59.0,0.0,15.0,3.0,0.0
1244,71.0,240.0,240.0,0.0,0.0
1245,66.0,240.0,240.0,0.0,0.0
1246,65.0,240.0,240.0,0.0,0.0
1247,66.0,240.0,240.0,0.0,0.0
1248,70.0,240.0,240.0,0.0,0.0
1249,71.0,240.0,240.0,0.0,0.0
1250,73.0,240.0,240.0,0.0,0.0
1251,58.0,0.0,1440.0,3.0,0.0
1252,61.0,240.0,1440.0,3.0,0.0
1253,66.0,240.0,240.0,0.0,0.0
1254,65.0,240.0,240.0,0.0,0.0
1255,66.0,240.0,240.0,0.0,0.0
1256,71.0,240.0,240.0,0.0,0.0
1257,73.0,0.0,240.0,0.0,0.0
1258,75.0,240.0,240.0,0.0,0.0
1259,59.0,0.0,1440.0,3.0,0.0
1260,63.0,0.0,1440.0,3.0,0.0
1261,71.0,240.0,240.0,0.0,0.0
1262,70.0,240.0,240.0,0.0,0.0
1263,71.0,240.0,240.0,0.0,0.0
1264,73.0,240.0,240.0,0.0,0.0
1265,75.0,240.0,240.0,0.0,0.0
1266,76.0,240.0,240.0,0.0,0.0
1267,64.0,0.0,1440.0,3.0,0.0
1268,61.0,240.0,1440.0,3.0,0.0
1269,71.0,240.0,240.0,0.0,0.0
1270,70.0,240.0,240.0,0.0,0.0
1271,71.0,240.0,240.0,0.0,0.0
1272,75.0,240.0,240.0,0.0,0.0
1273,76.0,0.0,240.0,0.0,0.0
1274,78.0,240.0,480.0,0.0,0.0
1275,51.0,240.0,240.0,3.0,0.0
1276,54.0,0.0,240.0,3.0,0.0
1277,59.0,240.0,240.0,3.0,0.0
1278,63.0,240.0,240.0,3.0,0.0
1279,66.0,0.0,240.0,0.0,0.0
1280,71.0,240.0,240.0,0.0,0.0
1281,75.0,240.0,240.0,0.0,0.0
1282,78.0,240.0,240.0,0.0,0.0
1283,71.0,240.0,240.0,0.0,0.0
1284,75.0,240.0,240.0,0.0,0.0
1285,78.0,240.0,240.0,0.0,0.0
1286,83.0,240.0,240.0,0.0,0.0
1287,75.0,240.0,240.0,0.0,0.0
1288,78.0,240.0,240.0,0.0,0.0
1289,83.0,240.0,240.0,0.0,0.0
1290,87.0,240.0,240.0,0.0,0.0
1291,78.0,240.0,240.0,0.0,0.0
1292,83.0,240.0,240.0,0.0,0.0
1293,87.0,240.0,240.0,0.0,0.0
1294,90.0,240.0,240.0,0.0,0.0
1295,88.0,240.0,240.0,0.0,0.0
1296,87.0,240.0,240.0,0.0,0.0
1297,85.0,240.0,240.0,0.0,0.0
1298,83.0,240.0,240.0,0.0,0.0
1299,81.0,240.0,240.0,0.0,0.0
1300,80.0,0.0,480.0,0.0,0.0
1301,52.0,240.0,240.0,3.0,0.0
1302,56.0,240.0,240.0,3.0,0.0
1303,59.0,240.0,240.0,3.0,0.0
1304,68.0,240.0,240.0,0.0,0.0
1305,64.0,0.0,240.0,3.0,0.0
1306,71.0,240.0,240.0,0.0,0.0
1307,76.0,240.0,240.0,0.0,0.0
1308,80.0,240.0,240.0,0.0,0.0
1309,68.0,240.0,240.0,0.0,0.0
1310,71.0,240.0,240.0,0.0,0.0
1311,76.0,240.0,240.0,0.0,0.0
1312,80.0,240.0,240.0,0.0,0.0
1313,71.0,240.0,240.0,0.0,0.0
1314,76.0,240.0,240.0,0.0,0.0
1315,80.0,240.0,240.0,0.0,0.0
1316,83.0,240.0,240.0,0.0,0.0
1317,76.0,240.0,240.0,0.0,0.0
1318,80.0,240.0,240.0,0.0,0.0
1319,83.0,240.0,240.0,0.0,0.0
1320,88.0,240.0,240.0,0.0,0.0
1321,80.0,240.0,240.0,0.0,0.0
1322,83.0,240.0,240.0,0.0,0.0
1323,88.0,240.0,240.0,0.0,0.0
1324,92.0,240.0,240.0,0.0,0.0
1325,90.0,240.0,240.0,0.0,0.0
1326,77.0,240.0,480.0,0.0,0.0
1327,49.0,240.0,240.0,3.0,0.0
1328,53.0,0.0,240.0,3.0,0.0
1329,56.0,240.0,240.0,3.0,0.0
1330,59.0,0.0,240.0,3.0,0.0
1331,65.0,240.0,240.0,0.0,0.0
1332,68.0,240.0,240.0,0.0,0.0
1333,71.0,240.0,240.0,0.0,0.0
1334,77.0,240.0,240.0,0.0,0.0
1335,68.0,240.0,240.0,0.0,0.0
1336,71.0,240.0,240.0,0.0,0.0
1337,77.0,240.0,240.0,0.0,0.0
1338,80.0,240.0,240.0,0.0,0.0
1339,71.0,240.0,240.0,0.0,0.0
1340,77.0,240.0,240.0,0.0,0.0
1341,80.0,240.0,240.0,0.0,0.0
1342,83.0,240.0,240.0,0.0,0.0
1343,77.0,240.0,240.0,0.0,0.0
1344,80.0,240.0,240.0,0.0,0.0
1345,83.0,240.0,240.0,0.0,0.0
1346,89.0,240.0,240.0,0.0,0.0
1347,92.0,240.0,240.0,0.0,0.0
1348,68.0,0.0,360.0,3.0,0.0
1349,65.0,120.0,360.0,3.0,0.0
1350,85.0,120.0,240.0,0.0,0.0
1351,87.0,240.0,240.0,0.0,0.0
1352,85.0,120.0,240.0,0.0,0.0
1353,68.0,0.0,360.0,3.0,0.0
1354,71.0,120.0,360.0,3.0,0.0
1355,87.0,240.0,240.0,0.0,0.0
1356,85.0,240.0,1440.0,0.0,0.0
1357,66.0,240.0,480.0,3.0,0.0
1358,70.0,240.0,240.0,3.0,0.0
1359,82.0,0.0,1440.0,1.0,0.0
1360,71.0,0.0,240.0,3.0,0.0
1361,73.0,240.0,240.0,3.0,0.0
1362,75.0,240.0,240.0,3.0,0.0
1363,77.0,240.0,240.0,3.0,0.0
1364,78.0,0.0,240.0,3.0,0.0
1365,83.0,0.0,1440.0,1.0,0.0
1366,85.0,240.0,1440.0,0.0,0.0
1367,77.0,240.0,240.0,3.0,0.0
1368,75.0,240.0,240.0,3.0,0.0
1369,73.0,240.0,240.0,3.0,0.0
1370,71.0,240.0,240.0,3.0,0.0
1371,70.0,240.0,240.0,3.0,0.0
1372,68.0,0.0,240.0,3.0,0.0
1373,85.0,0.0,1440.0,1.0,0.0
1374,88.0,240.0,1440.0,0.0,0.0
1375,66.0,240.0,240.0,3.0,0.0
1376,64.0,240.0,240.0,3.0,0.0
1377,63.0,240.0,240.0,3.0,0.0
1378,61.0,240.0,240.0,3.0,0.0
1379,59.0,240.0,240.0,3.0,0.0
1380,58.0,0.0,240.0,3.0,0.0
1381,59.0,240.0,240.0,3.0,0.0
1382,83.0,0.0,480.0,1.0,0.0
1383,61.0,240.0,240.0,3.0,0.0
1384,87.0,0.0,15.0,0.0,0.0
1385,83.0,240.0,480.0,1.0,0.0
1386,63.0,240.0,240.0,3.0,0.0
1387,65.0,0.0,240.0,3.0,0.0
1388,87.0,0.0,15.0,0.0,0.0
1389,66.0,240.0,240.0,3.0,0.0
1390,83.0,0.0,480.0,1.0,0.0
1391,68.0,240.0,240.0,3.0,0.0
1392,82.0,0.0,1440.0,1.0,0.0
1393,66.0,240.0,480.0,3.0,0.0
1394,70.0,240.0,240.0,3.0,0.0
1395,71.0,0.0,240.0,3.0,0.0
1396,73.0,240.0,240.0,3.0,0.0
1397,75.0,240.0,240.0,3.0,0.0
1398,77.0,240.0,240.0,3.0,0.0
1399,78.0,240.0,240.0,3.0,0.0
1400,85.0,0.0,15.0,0.0,0.0
1401,83.0,0.0,1440.0,1.0,0.0
1402,77.0,240.0,240.0,3.0,0.0
1403,75.0,240.0,240.0,3.0,0.0
1404,73.0,240.0,240.0,3.0,0.0
1405,71.0,240.0,240.0,3.0,0.0
1406,70.0,240.0,240.0,3.0,0.0
1407,68.0,0.0,240.0,3.0,0.0
1408,85.0,0.0,1440.0,1.0,0.0
1409,88.0,240.0,1440.0,0.0,0.0
1410,66.0,240.0,240.0,3.0,0.0
1411,64.0,240.0,240.0,3.0,0.0
1412,63.0,240.0,240.0,3.0,0.0
1413,61.0,240.0,240.0,3.0,0.0
1414,59.0,240.0,240.0,3.0,0.0
1415,58.0,0.0,240.0,3.0,0.0
1416,59.0,240.0,240.0,3.0,0.0
1417,83.0,240.0,480.0,1.0,0.0
1418,87.0,0.0,480.0,0.0,0.0
1419,61.0,0.0,240.0,3.0,0.0
1420,63.0,240.0,240.0,3.0,0.0
1421,65.0,0.0,240.0,3.0,0.0
1422,87.0,0.0,15.0,0.0,0.0
1423,83.0,240.0,15.0,1.0,0.0
1424,66.0,240.0,240.0,3.0,0.0
1425,68.0,240.0,240.0,3.0,0.0
1426,73.0,240.0,1440.0,3.0,0.0
1427,70.0,0.0,1440.0,3.0,0.0
1428,85.0,240.0,240.0,0.0,0.0
1429,82.0,0.0,240.0,1.0,0.0
1430,83.0,240.0,240.0,0.0,0.0
1431,85.0,240.0,240.0,0.0,0.0
1432,87.0,240.0,240.0,0.0,0.0
1433,89.0,240.0,240.0,0.0,0.0
1434,90.0,0.0,240.0,0.0,0.0
1435,89.0,240.0,240.0,0.0,0.0
1436,68.0,240.0,1440.0,3.0,0.0
1437,87.0,240.0,240.0,0.0,0.0
1438,85.0,240.0,240.0,0.0,0.0
1439,83.0,240.0,240.0,0.0,0.0
1440,82.0,240.0,240.0,0.0,0.0
1441,80.0,0.0,240.0,0.0,0.0
1442,83.0,240.0,240.0,0.0,0.0
1443,66.0,0.0,15.0,3.0,0.0
1444,77.0,240.0,1440.0,3.0,0.0
1445,71.0,0.0,15.0,3.0,0.0
1446,85.0,240.0,240.0,0.0,0.0
1447,87.0,240.0,240.0,0.0,0.0
1448,89.0,240.0,240.0,0.0,0.0
1449,90.0,240.0,240.0,0.0,0.0
1450,92.0,0.0,240.0,0.0,0.0
1451,90.0,240.0,240.0,0.0,0.0
1452,70.0,0.0,1440.0,3.0,0.0
1453,73.0,0.0,1440.0,3.0,0.0
1454,88.0,240.0,240.0,0.0,0.0
1455,87.0,240.0,240.0,0.0,0.0
1456,85.0,240.0,240.0,0.0,0.0
1457,83.0,240.0,240.0,0.0,0.0
1458,82.0,0.0,240.0,0.0,0.0
1459,85.0,240.0,240.0,0.0,0.0
1460,66.0,240.0,15.0,3.0,0.0
1461,76.0,0.0,1440.0,3.0,0.0
1462,88.0,240.0,240.0,0.0,0.0
1463,94.0,240.0,240.0,0.0,0.0
1464,88.0,240.0,240.0,0.0,0.0
1465,97.0,240.0,240.0,0.0,0.0
1466,94.0,240.0,240.0,0.0,0.0
1467,70.0,0.0,15.0,3.0,0.0
1468,73.0,0.0,15.0,3.0,0.0
1469,67.0,240.0,1440.0,3.0,0.0
1470,97.0,240.0,240.0,0.0,0.0
1471,94.0,240.0,240.0,0.0,0.0
1472,97.0,240.0,240.0,0.0,0.0
1473,94.0,240.0,240.0,0.0,0.0
1474,97.0,240.0,240.0,0.0,0.0
1475,94.0,0.0,240.0,0.0,0.0
1476,97.0,240.0,240.0,0.0,0.0
1477,73.0,0.0,960.0,3.0,0.0
1478,70.0,0.0,15.0,3.0,0.0
1479,66.0,240.0,960.0,3.0,0.0
1480,76.0,0.0,15.0,3.0,0.0
1481,94.0,240.0,240.0,0.0,0.0
1482,90.0,240.0,240.0,0.0,0.0
1483,92.0,0.0,240.0,0.0,0.0
1484,94.0,240.0,240.0,0.0,0.0
1485,64.0,0.0,480.0,3.0,0.0
1486,73.0,0.0,480.0,3.0,0.0
1487,70.0,0.0,480.0,3.0,0.0
1488,90.0,240.0,240.0,0.0,0.0
1489,63.0,0.0,960.0,3.0,0.0
1490,95.0,240.0,240.0,0.0,0.0
1491,66.0,0.0,960.0,3.0,0.0
1492,90.0,240.0,240.0,0.0,0.0
1493,95.0,240.0,240.0,0.0,0.0
1494,90.0,0.0,240.0,0.0,0.0
1495,87.0,240.0,240.0,0.0,0.0
1496,66.0,0.0,480.0,3.0,0.0
1497,71.0,240.0,15.0,3.0,0.0
1498,59.0,0.0,480.0,3.0,0.0
1499,83.0,0.0,240.0,0.0,0.0
1500,85.0,240.0,240.0,0.0,0.0
1501,66.0,0.0,1440.0,3.0,0.0
1502,70.0,0.0,1440.0,3.0,0.0
1503,88.0,240.0,240.0,0.0,0.0
1504,94.0,240.0,240.0,0.0,0.0
1505,88.0,240.0,240.0,0.0,0.0
1506,97.0,240.0,240.0,0.0,0.0
1507,94.0,0.0,240.0,0.0,0.0
1508,97.0,240.0,240.0,0.0,0.0
1509,67.0,0.0,1440.0,3.0,0.0
1510,73.0,0.0,15.0,3.0,0.0
1511,76.0,240.0,15.0,3.0,0.0
1512,94.0,240.0,240.0,0.0,0.0
1513,97.0,240.0,240.0,0.0,0.0
1514,94.0,240.0,240.0,0.0,0.0
1515,97.0,240.0,240.0,0.0,0.0
1516,94.0,240.0,240.0,0.0,0.0
1517,73.0,0.0,15.0,3.0,0.0
1518,70.0,0.0,15.0,3.0,0.0
1519,66.0,240.0,960.0,3.0,0.0
1520,76.0,0.0,960.0,3.0,0.0
1521,97.0,240.0,240.0,0.0,0.0
1522,94.0,240.0,240.0,0.0,0.0
1523,90.0,240.0,240.0,0.0,0.0
1524,92.0,0.0,240.0,0.0,0.0
1525,94.0,240.0,240.0,0.0,0.0
1526,73.0,0.0,480.0,3.0,0.0
1527,70.0,0.0,480.0,3.0,0.0
1528,64.0,240.0,480.0,3.0,0.0
1529,90.0,0.0,240.0,0.0,0.0
1530,95.0,240.0,240.0,0.0,0.0
1531,66.0,240.0,960.0,3.0,0.0
1532,71.0,0.0,960.0,3.0,0.0
1533,63.0,0.0,960.0,3.0,0.0
1534,90.0,240.0,240.0,0.0,0.0
1535,95.0,240.0,240.0,0.0,0.0
1536,90.0,0.0,240.0,0.0,0.0
1537,71.0,0.0,480.0,3.0,0.0
1538,59.0,0.0,480.0,3.0,0.0
1539,66.0,0.0,480.0,3.0,0.0
1540,87.0,240.0,240.0,0.0,0.0
1541,83.0,240.0,240.0,0.0,0.0
1542,68.0,0.0,480.0,3.0,0.0
1543,71.0,0.0,480.0,3.0,0.0
1544,64.0,0.0,480.0,3.0,0.0
1545,92.0,240.0,240.0,0.0,0.0
1546,88.0,240.0,240.0,0.0,0.0
1547,92.0,240.0,240.0,0.0,0.0
1548,88.0,240.0,240.0,0.0,0.0
1549,83.0,240.0,240.0,0.0,0.0
1550,64.0,480.0,480.0,3.0,0.0
1551,73.0,0.0,480.0,3.0,0.0
1552,68.0,0.0,480.0,3.0,0.0
1553,80.0,0.0,240.0,0.0,0.0
1554,78.0,60.0,960.0,0.0,0.0
1555,66.0,0.0,480.0,3.0,0.0
1556,75.0,0.0,480.0,3.0,0.0
1557,71.0,480.0,480.0,3.0,0.0
1558,66.0,0.0,480.0,3.0,0.0
1559,70.0,0.0,480.0,3.0,0.0
1560,85.0,60.0,60.0,0.0,0.0
1561,76.0,0.0,480.0,3.0,0.0
1562,87.0,60.0,60.0,0.0,0.0
1563,85.0,60.0,60.0,0.0,0.0
1564,87.0,40.0,60.0,0.0,0.0
1565,85.0,40.0,30.0,0.0,0.0
1566,87.0,40.0,30.0,0.0,0.0
1567,85.0,60.0,30.0,0.0,0.0
1568,83.0,60.0,60.0,0.0,0.0
1569,85.0,240.0,60.0,0.0,0.0
1570,83.0,240.0,240.0,0.0,0.0
1571,66.0,0.0,240.0,2.0,0.0
1572,63.0,0.0,15.0,2.0,0.0
1573,59.0,192.0,15.0,3.0,0.0
1574,78.0,240.0,240.0,1.0,0.0
1575,90.0,48.0,180.0,0.0,0.0
1576,66.0,0.0,240.0,2.0,0.0
1577,63.0,0.0,480.0,2.0,0.0
1578,59.0,192.0,15.0,3.0,0.0
1579,71.0,240.0,240.0,1.0,0.0
1580,83.0,48.0,180.0,0.0,0.0
1581,66.0,0.0,240.0,2.0,0.0
1582,59.0,480.0,15.0,3.0,0.0
1583,66.0,0.0,240.0,2.0,0.0
1584,61.0,0.0,15.0,2.0,0.0
1585,64.0,192.0,15.0,2.0,0.0
1586,85.0,48.0,180.0,0.0,0.0
1587,73.0,240.0,240.0,1.0,0.0
1588,66.0,0.0,240.0,2.0,0.0
1589,59.0,192.0,15.0,3.0,0.0
1590,70.0,240.0,240.0,1.0,0.0
1591,64.0,0.0,480.0,2.0,0.0
1592,61.0,0.0,480.0,2.0,0.0
1593,82.0,48.0,180.0,0.0,0.0
1594,66.0,480.0,240.0,2.0,0.0
1595,51.0,0.0,480.0,3.0,0.0
1596,54.0,192.0,240.0,2.0,0.0
1597,66.0,240.0,240.0,1.0,0.0
1598,78.0,48.0,180.0,0.0,0.0
1599,54.0,0.0,240.0,2.0,0.0
1600,71.0,48.0,180.0,0.0,0.0
1601,51.0,192.0,15.0,3.0,0.0
1602,59.0,240.0,240.0,1.0,0.0
1603,54.0,480.0,240.0,2.0,0.0
1604,54.0,192.0,240.0,2.0,0.0
1605,76.0,48.0,180.0,0.0,0.0
1606,49.0,0.0,15.0,3.0,0.0
1607,64.0,240.0,240.0,1.0,0.0
1608,54.0,0.0,240.0,2.0,0.0
1609,70.0,48.0,180.0,0.0,0.0
1610,42.0,480.0,480.0,3.0,0.0
1611,58.0,240.0,240.0,1.0,0.0
1612,54.0,0.0,240.0,2.0,0.0
1613,66.0,192.0,240.0,2.0,0.0
1614,78.0,240.0,240.0,1.0,0.0
1615,63.0,0.0,15.0,2.0,0.0
1616,59.0,0.0,15.0,3.0,0.0
1617,90.0,48.0,180.0,0.0,0.0
1618,66.0,0.0,240.0,2.0,0.0
1619,83.0,48.0,180.0,0.0,0.0
1620,63.0,192.0,15.0,2.0,0.0
1621,71.0,240.0,240.0,1.0,0.0
1622,66.0,480.0,240.0,2.0,0.0
1623,59.0,0.0,15.0,3.0,0.0
1624,61.0,0.0,480.0,2.0,0.0
1625,66.0,192.0,240.0,2.0,0.0
1626,88.0,48.0,180.0,0.0,0.0
1627,61.0,0.0,480.0,2.0,0.0
1628,64.0,0.0,15.0,2.0,0.0
1629,76.0,240.0,240.0,1.0,0.0
1630,66.0,192.0,240.0,2.0,0.0
1631,82.0,48.0,180.0,0.0,0.0
1632,59.0,0.0,15.0,3.0,0.0
1633,61.0,480.0,480.0,2.0,0.0
1634,64.0,0.0,15.0,2.0,0.0
1635,70.0,240.0,240.0,1.0,0.0
1636,66.0,0.0,240.0,2.0,0.0
1637,54.0,0.0,240.0,2.0,0.0
1638,78.0,48.0,180.0,0.0,0.0
1639,66.0,240.0,240.0,1.0,0.0
1640,51.0,192.0,15.0,3.0,0.0
1641,54.0,0.0,240.0,2.0,0.0
1642,71.0,48.0,180.0,0.0,0.0
1643,51.0,0.0,480.0,3.0,0.0
1644,59.0,240.0,240.0,1.0,0.0
1645,54.0,480.0,240.0,2.0,0.0
1646,54.0,0.0,240.0,2.0,0.0
1647,49.0,192.0,15.0,3.0,0.0
1648,64.0,240.0,240.0,1.0,0.0
1649,76.0,48.0,180.0,0.0,0.0
1650,54.0,0.0,240.0,2.0,0.0
1651,42.0,240.0,480.0,3.0,0.0
1652,70.0,48.0,180.0,0.0,0.0
1653,58.0,240.0,240.0,1.0,0.0
1654,54.0,0.0,240.0,2.0,0.0
1655,75.0,0.0,240.0,0.0,0.0
1656,71.0,19.0,450.0,1.0,0.0
1657,47.0,221.0,240.0,3.0,0.0
1658,66.0,192.0,240.0,1.0,0.0
1659,71.0,19.0,450.0,1.0,0.0
1660,75.0,221.0,240.0,0.0,0.0
1661,51.0,48.0,180.0,3.0,0.0
1662,66.0,192.0,240.0,1.0,0.0
1663,71.0,19.0,450.0,1.0,0.0
1664,47.0,48.0,180.0,3.0,0.0
1665,75.0,221.0,240.0,0.0,0.0
1666,66.0,240.0,240.0,1.0,0.0
1667,54.0,0.0,960.0,3.0,0.0
1668,71.0,19.0,450.0,1.0,0.0
1669,75.0,221.0,240.0,0.0,0.0
1670,66.0,240.0,240.0,1.0,0.0
1671,71.0,19.0,450.0,1.0,0.0
1672,75.0,221.0,240.0,0.0,0.0
1673,66.0,240.0,240.0,1.0,0.0
1674,75.0,0.0,240.0,0.0,0.0
1675,52.0,221.0,240.0,3.0,0.0
1676,71.0,19.0,450.0,1.0,0.0
1677,66.0,0.0,240.0,1.0,0.0
1678,51.0,240.0,240.0,3.0,0.0
1679,71.0,19.0,450.0,1.0,0.0
1680,75.0,0.0,240.0,0.0,0.0
1681,49.0,221.0,240.0,3.0,0.0
1682,66.0,0.0,240.0,1.0,0.0
1683,47.0,240.0,240.0,3.0,0.0
1684,71.0,19.0,450.0,1.0,0.0
1685,46.0,0.0,240.0,3.0,0.0
1686,75.0,221.0,240.0,0.0,0.0
1687,47.0,0.0,240.0,3.0,0.0
1688,66.0,240.0,240.0,1.0,0.0
1689,75.0,0.0,240.0,0.0,0.0
1690,51.0,221.0,240.0,3.0,0.0
1691,71.0,19.0,450.0,1.0,0.0
1692,66.0,0.0,240.0,1.0,0.0
1693,47.0,240.0,240.0,3.0,0.0
1694,46.0,192.0,480.0,3.0,0.0
1695,76.0,221.0,240.0,0.0,0.0
1696,71.0,19.0,450.0,1.0,0.0
1697,64.0,0.0,240.0,1.0,0.0
1698,71.0,19.0,450.0,1.0,0.0
1699,44.0,48.0,180.0,3.0,0.0
1700,76.0,221.0,240.0,0.0,0.0
1701,64.0,192.0,240.0,1.0,0.0
1702,44.0,48.0,180.0,3.0,0.0
1703,71.0,19.0,450.0,1.0,0.0
1704,76.0,221.0,240.0,0.0,0.0
1705,64.0,240.0,240.0,1.0,0.0
1706,73.0,240.0,240.0,0.0,0.0
1707,61.0,0.0,240.0,2.0,0.0
1708,56.0,0.0,15.0,2.0,0.0
1709,52.0,192.0,15.0,3.0,0.0
1710,76.0,288.0,180.0,0.0,0.0
1711,61.0,0.0,240.0,2.0,0.0
1712,73.0,288.0,180.0,0.0,0.0
1713,56.0,0.0,480.0,2.0,0.0
1714,61.0,480.0,240.0,2.0,0.0
1715,52.0,0.0,15.0,3.0,0.0
1716,80.0,0.0,960.0,0.0,0.0
1717,56.0,480.0,480.0,2.0,0.0
1718,61.0,0.0,240.0,2.0,0.0
1719,52.0,0.0,15.0,3.0,0.0
1720,56.0,0.0,480.0,2.0,0.0
1721,61.0,0.0,240.0,2.0,0.0
1722,56.0,0.0,480.0,2.0,0.0
1723,52.0,240.0,15.0,3.0,0.0
1724,78.0,240.0,240.0,0.0,0.0
1725,76.0,0.0,240.0,0.0,0.0
1726,54.0,240.0,480.0,3.0,0.0
1727,61.0,240.0,15.0,2.0,0.0
1728,75.0,240.0,240.0,0.0,0.0
1729,73.0,0.0,240.0,0.0,0.0
1730,64.0,0.0,240.0,2.0,0.0
1731,76.0,240.0,240.0,0.0,0.0
1732,54.0,0.0,480.0,3.0,0.0
1733,64.0,240.0,240.0,2.0,0.0
1734,73.0,0.0,240.0,0.0,0.0
1735,70.0,240.0,240.0,0.0,0.0
1736,54.0,0.0,480.0,3.0,0.0
1737,61.0,0.0,15.0,2.0,0.0
1738,64.0,0.0,240.0,2.0,0.0
1739,73.0,0.0,15.0,0.0,0.0
1740,66.0,192.0,240.0,2.0,0.0
1741,63.0,0.0,15.0,2.0,0.0
1742,59.0,0.0,15.0,3.0,0.0
1743,71.0,288.0,180.0,0.0,0.0
1744,66.0,192.0,240.0,2.0,0.0
1745,71.0,288.0,180.0,0.0,0.0
1746,59.0,120.0,480.0,3.0,0.0
1747,63.0,0.0,15.0,2.0,0.0
1748,66.0,0.0,240.0,2.0,0.0
1749,75.0,36.0,450.0,1.0,0.0
1750,78.0,204.0,240.0,0.0,0.0
1751,58.0,60.0,120.0,3.0,0.0
1752,59.0,60.0,120.0,3.0,0.0
1753,71.0,120.0,240.0,1.0,0.0
1754,62.0,65.0,120.0,3.0,0.0
1755,78.0,204.0,240.0,0.0,0.0
1756,75.0,36.0,450.0,1.0,0.0
1757,63.0,55.0,120.0,3.0,0.0
1758,71.0,120.0,240.0,1.0,0.0
1759,58.0,55.0,120.0,3.0,0.0
1760,75.0,36.0,450.0,1.0,0.0
1761,78.0,204.0,240.0,0.0,0.0
1762,59.0,65.0,120.0,3.0,0.0
1763,71.0,120.0,240.0,1.0,0.0
1764,65.0,120.0,120.0,3.0,0.0
1765,75.0,36.0,450.0,1.0,0.0
1766,78.0,204.0,240.0,0.0,0.0
1767,66.0,225.0,900.0,3.0,0.0
1768,71.0,240.0,240.0,1.0,0.0
1769,78.0,204.0,240.0,0.0,0.0
1770,75.0,36.0,450.0,1.0,0.0
1771,71.0,15.0,240.0,1.0,0.0
1772,78.0,204.0,240.0,0.0,0.0
1773,75.0,36.0,450.0,1.0,0.0
1774,64.0,0.0,240.0,3.0,0.0
1775,71.0,240.0,240.0,1.0,0.0
1776,63.0,0.0,240.0,3.0,0.0
1777,61.0,0.0,240.0,3.0,0.0
1778,75.0,36.0,450.0,1.0,0.0
1779,78.0,204.0,240.0,0.0,0.0
1780,71.0,240.0,240.0,1.0,0.0
1781,59.0,0.0,240.0,3.0,0.0
1782,78.0,0.0,240.0,0.0,0.0
1783,58.0,204.0,240.0,3.0,0.0
1784,75.0,36.0,450.0,1.0,0.0
1785,71.0,240.0,240.0,1.0,0.0
1786,59.0,0.0,240.0,3.0,0.0
1787,78.0,204.0,240.0,0.0,0.0
1788,63.0,0.0,240.0,3.0,0.0
1789,75.0,36.0,450.0,1.0,0.0
1790,59.0,0.0,240.0,3.0,0.0
1791,71.0,240.0,240.0,1.0,0.0
1792,58.0,0.0,480.0,3.0,0.0
1793,83.0,204.0,240.0,0.0,0.0
1794,76.0,36.0,450.0,1.0,0.0
1795,71.0,192.0,240.0,1.0,0.0
1796,56.0,48.0,180.0,3.0,0.0
1797,83.0,204.0,240.0,0.0,0.0
1798,76.0,36.0,450.0,1.0,0.0
1799,71.0,192.0,240.0,1.0,0.0
1800,56.0,48.0,180.0,3.0,0.0
1801,76.0,36.0,450.0,1.0,0.0
1802,83.0,204.0,240.0,0.0,0.0
1803,71.0,127.0,240.0,1.0,0.0
1804,84.0,58.0,120.0,0.0,0.0
1805,85.0,295.0,120.0,0.0,0.0
1806,61.0,0.0,240.0,2.0,0.0
1807,56.0,0.0,15.0,2.0,0.0
1808,52.0,127.0,15.0,3.0,0.0
1809,87.0,58.0,120.0,0.0,0.0
1810,88.0,295.0,120.0,0.0,0.0
1811,61.0,0.0,240.0,2.0,0.0
1812,84.0,60.0,120.0,0.0,0.0
1813,56.0,0.0,480.0,2.0,0.0
1814,85.0,300.0,120.0,0.0,0.0
1815,61.0,127.0,240.0,2.0,0.0
1816,56.0,480.0,480.0,2.0,0.0
1817,52.0,0.0,15.0,3.0,0.0
1818,91.0,353.0,120.0,0.0,0.0
1819,92.0,240.0,900.0,0.0,0.0
1820,61.0,0.0,240.0,2.0,0.0
1821,52.0,0.0,15.0,3.0,0.0
1822,56.0,0.0,480.0,2.0,0.0
1823,61.0,0.0,240.0,2.0,0.0
1824,56.0,0.0,480.0,2.0,0.0
1825,90.0,240.0,240.0,0.0,0.0
1826,52.0,240.0,480.0,3.0,0.0
1827,88.0,0.0,240.0,0.0,0.0
1828,61.0,0.0,15.0,2.0,0.0
1829,87.0,240.0,240.0,0.0,0.0
1830,54.0,0.0,480.0,3.0,0.0
1831,85.0,0.0,240.0,0.0,0.0
1832,64.0,240.0,240.0,2.0,0.0
1833,88.0,240.0,240.0,0.0,0.0
1834,54.0,0.0,480.0,3.0,0.0
1835,64.0,0.0,240.0,2.0,0.0
1836,85.0,240.0,240.0,0.0,0.0
1837,82.0,240.0,240.0,0.0,0.0
1838,61.0,0.0,15.0,2.0,0.0
1839,54.0,0.0,480.0,3.0,0.0
1840,64.0,0.0,240.0,2.0,0.0
1841,85.0,240.0,240.0,0.0,0.0
1842,83.0,240.0,240.0,0.0,0.0
1843,78.0,240.0,240.0,0.0,0.0
1844,87.0,240.0,240.0,0.0,0.0
1845,63.0,0.0,480.0,2.0,0.0
1846,66.0,240.0,480.0,2.0,0.0
1847,83.0,0.0,240.0,0.0,0.0
1848,78.0,240.0,240.0,0.0,0.0
1849,59.0,0.0,480.0,2.0,0.0
1850,63.0,0.0,480.0,2.0,0.0
1851,75.0,240.0,240.0,0.0,0.0
1852,83.0,240.0,240.0,0.0,0.0
1853,47.0,0.0,15.0,3.0,0.0
1854,78.0,240.0,240.0,0.0,0.0
1855,66.0,0.0,480.0,2.0,0.0
1856,87.0,240.0,240.0,0.0,0.0
1857,83.0,0.0,240.0,0.0,0.0
1858,59.0,0.0,480.0,2.0,0.0
1859,63.0,240.0,15.0,2.0,0.0
1860,78.0,240.0,240.0,0.0,0.0
1861,75.0,0.0,240.0,0.0,0.0
1862,83.0,240.0,240.0,0.0,0.0
1863,47.0,240.0,15.0,3.0,0.0
1864,78.0,240.0,240.0,0.0,0.0
1865,87.0,240.0,240.0,0.0,0.0
1866,63.0,0.0,480.0,2.0,0.0
1867,66.0,0.0,480.0,2.0,0.0
1868,83.0,240.0,240.0,0.0,0.0
1869,78.0,240.0,240.0,0.0,0.0
1870,59.0,0.0,480.0,2.0,0.0
1871,63.0,0.0,480.0,2.0,0.0
1872,75.0,240.0,240.0,0.0,0.0
1873,54.0,240.0,1440.0,3.0,0.0
1874,82.0,240.0,240.0,0.0,0.0
1875,78.0,240.0,240.0,0.0,0.0
1876,64.0,240.0,480.0,2.0,0.0
1877,61.0,0.0,480.0,2.0,0.0
1878,85.0,240.0,240.0,0.0,0.0
1879,82.0,0.0,240.0,0.0,0.0
1880,78.0,240.0,240.0,0.0,0.0
1881,58.0,0.0,480.0,2.0,0.0
1882,61.0,0.0,480.0,2.0,0.0
1883,76.0,0.0,240.0,0.0,0.0
1884,78.0,240.0,240.0,0.0,0.0
1885,75.0,240.0,240.0,0.0,0.0
1886,66.0,0.0,480.0,2.0,0.0
1887,83.0,240.0,240.0,0.0,0.0
1888,78.0,240.0,240.0,0.0,0.0
1889,63.0,0.0,15.0,2.0,0.0
1890,59.0,0.0,480.0,2.0,0.0
1891,75.0,240.0,240.0,0.0,0.0
1892,71.0,0.0,240.0,0.0,0.0
1893,47.0,240.0,15.0,3.0,0.0
1894,78.0,240.0,240.0,0.0,0.0
1895,75.0,240.0,240.0,0.0,0.0
1896,83.0,240.0,240.0,0.0,0.0
1897,66.0,0.0,480.0,2.0,0.0
1898,78.0,0.0,240.0,0.0,0.0
1899,59.0,0.0,480.0,2.0,0.0
1900,75.0,240.0,240.0,0.0,0.0
1901,63.0,240.0,15.0,2.0,0.0
1902,71.0,0.0,240.0,0.0,0.0
1903,47.0,0.0,1440.0,3.0,0.0
1904,78.0,240.0,240.0,0.0,0.0
1905,75.0,240.0,240.0,0.0,0.0
1906,83.0,240.0,240.0,0.0,0.0
1907,66.0,0.0,480.0,2.0,0.0
1908,78.0,0.0,240.0,0.0,0.0
1909,75.0,240.0,240.0,0.0,0.0
1910,63.0,240.0,15.0,2.0,0.0
1911,59.0,240.0,480.0,2.0,0.0
1912,71.0,0.0,240.0,0.0,0.0
1913,76.0,240.0,240.0,0.0,0.0
1914,73.0,240.0,240.0,0.0,0.0
1915,64.0,240.0,480.0,2.0,0.0
1916,78.0,240.0,240.0,0.0,0.0
1917,76.0,0.0,240.0,0.0,0.0
1918,54.0,0.0,15.0,3.0,0.0
1919,61.0,0.0,15.0,2.0,0.0
1920,73.0,240.0,240.0,0.0,0.0
1921,70.0,240.0,240.0,0.0,0.0
1922,35.0,240.0,240.0,3.0,0.0
1923,71.0,240.0,480.0,0.0,0.0
1924,39.0,0.0,240.0,3.0,0.0
1925,42.0,240.0,240.0,3.0,0.0
1926,47.0,0.0,240.0,3.0,0.0
1927,59.0,240.0,240.0,0.0,0.0
1928,63.0,240.0,240.0,0.0,0.0
1929,51.0,0.0,240.0,3.0,0.0
1930,66.0,240.0,240.0,0.0,0.0
1931,54.0,0.0,240.0,3.0,0.0
1932,47.0,240.0,480.0,3.0,0.0
1933,71.0,240.0,240.0,0.0,0.0
1934,75.0,0.0,240.0,0.0,0.0
1935,78.0,240.0,240.0,0.0,0.0
1936,83.0,240.0,240.0,0.0,0.0
1937,87.0,240.0,240.0,0.0,0.0
1938,90.0,480.0,240.0,0.0,0.0
1939,95.0,3600.0,480.0,0.0,0.0
1940,71.0,480.0,720.0,0.0,0.0
1941,62.0,0.0,720.0,1.0,0.0
1942,54.0,240.0,240.0,2.0,0.0
1943,54.0,0.0,240.0,2.0,0.0
1944,47.0,0.0,15.0,3.0,0.0
1945,71.0,0.0,480.0,1.0,0.0
1946,74.0,0.0,480.0,0.0,0.0
1947,54.0,240.0,15.0,2.0,0.0
1948,73.0,0.0,240.0,1.0,0.0
1949,76.0,0.0,240.0,0.0,0.0
1950,74.0,0.0,480.0,1.0,0.0
1951,78.0,0.0,480.0,0.0,0.0
1952,54.0,240.0,240.0,2.0,0.0
1953,54.0,0.0,240.0,2.0,0.0
1954,74.0,0.0,15.0,1.0,0.0
1955,47.0,0.0,15.0,3.0,0.0
1956,78.0,480.0,15.0,0.0,0.0
1957,54.0,0.0,15.0,2.0,0.0
1958,71.0,0.0,240.0,1.0,0.0
1959,74.0,0.0,240.0,0.0,0.0
1960,47.0,480.0,15.0,3.0,0.0
1961,71.0,0.0,480.0,0.0,0.0
1962,62.0,0.0,480.0,1.0,0.0
1963,71.0,0.0,240.0,1.0,0.0
1964,74.0,0.0,240.0,0.0,0.0
1965,54.0,240.0,15.0,2.0,0.0
1966,73.0,0.0,720.0,0.0,0.0
1967,42.0,0.0,720.0,3.0,0.0
1968,70.0,473.0,720.0,1.0,0.0
1969,54.0,240.0,15.0,2.0,0.0
1970,71.0,0.0,720.0,0.0,0.0
1971,62.0,0.0,720.0,1.0,0.0
1972,54.0,240.0,240.0,2.0,0.0
1973,54.0,480.0,240.0,2.0,0.0
1974,74.0,0.0,480.0,0.0,0.0
1975,47.0,0.0,15.0,3.0,0.0
1976,71.0,0.0,480.0,1.0,0.0
1977,54.0,240.0,240.0,2.0,0.0
1978,76.0,480.0,240.0,0.0,0.0
1979,73.0,0.0,240.0,1.0,0.0
1980,54.0,0.0,240.0,2.0,0.0
1981,47.0,0.0,15.0,3.0,0.0
1982,78.0,0.0,480.0,0.0,0.0
1983,74.0,0.0,15.0,1.0,0.0
1984,54.0,240.0,15.0,2.0,0.0
1985,78.0,0.0,15.0,0.0,0.0
1986,45.0,0.0,720.0,3.0,0.0
1987,74.0,480.0,15.0,1.0,0.0
1988,57.0,0.0,240.0,2.0,0.0
1989,66.0,0.0,240.0,1.0,0.0
1990,74.0,240.0,240.0,0.0,0.0
1991,57.0,0.0,240.0,2.0,0.0
1992,67.0,240.0,240.0,1.0,0.0
1993,76.0,0.0,240.0,0.0,0.0
1994,45.0,0.0,720.0,3.0,0.0
1995,79.0,0.0,240.0,0.0,0.0
1996,71.0,240.0,240.0,1.0,0.0
1997,57.0,0.0,15.0,2.0,0.0
1998,73.0,0.0,240.0,0.0,0.0
1999,64.0,480.0,240.0,1.0,0.0
2000,74.0,0.0,720.0,0.0,0.0
2001,50.0,0.0,720.0,3.0,0.0
2002,66.0,0.0,720.0,1.0,0.0
2003,57.0,240.0,15.0,2.0,0.0
2004,74.0,240.0,480.0,1.0,0.0
2005,50.0,0.0,720.0,3.0,0.0
2006,78.0,0.0,480.0,0.0,0.0
2007,57.0,0.0,240.0,2.0,0.0
2008,66.0,0.0,240.0,1.0,0.0
2009,74.0,480.0,240.0,0.0,0.0
2010,57.0,0.0,240.0,2.0,0.0
2011,73.0,0.0,480.0,1.0,0.0
2012,45.0,0.0,720.0,3.0,0.0
2013,76.0,240.0,480.0,0.0,0.0
2014,57.0,0.0,240.0,2.0,0.0
2015,57.0,480.0,240.0,2.0,0.0
2016,78.0,0.0,240.0,0.0,0.0
2017,75.0,0.0,240.0,1.0,0.0
2018,79.0,0.0,480.0,0.0,0.0
2019,76.0,0.0,480.0,1.0,0.0
2020,52.0,240.0,240.0,2.0,0.0
2021,76.0,0.0,240.0,1.0,0.0
2022,52.0,480.0,240.0,2.0,0.0
2023,79.0,0.0,240.0,0.0,0.0
2024,79.0,0.0,480.0,0.0,0.0
2025,40.0,0.0,15.0,3.0,0.0
2026,76.0,0.0,480.0,1.0,0.0
2027,73.0,0.0,240.0,1.0,0.0
2028,76.0,240.0,240.0,0.0,0.0
2029,52.0,240.0,15.0,2.0,0.0
2030,70.0,240.0,240.0,1.0,0.0
2031,73.0,0.0,240.0,0.0,0.0
2032,73.0,0.0,240.0,1.0,0.0
2033,76.0,0.0,240.0,0.0,0.0
2034,54.0,240.0,240.0,2.0,0.0
2035,70.0,0.0,240.0,1.0,0.0
2036,42.0,0.0,15.0,3.0,0.0
2037,73.0,240.0,240.0,0.0,0.0
2038,71.0,0.0,240.0,1.0,0.0
2039,74.0,240.0,240.0,0.0,0.0
2040,59.0,0.0,240.0,2.0,0.0
2041,47.0,0.0,15.0,3.0,0.0
2042,71.0,240.0,240.0,1.0,0.0
2043,74.0,0.0,240.0,0.0,0.0
2044,57.0,0.0,240.0,2.0,0.0
2045,45.0,480.0,240.0,3.0,0.0
2046,76.0,0.0,240.0,0.0,0.0
2047,73.0,0.0,240.0,1.0,0.0
2048,74.0,0.0,480.0,1.0,0.0
2049,50.0,480.0,720.0,3.0,0.0
2050,78.0,240.0,480.0,0.0,0.0
2051,57.0,0.0,240.0,2.0,0.0
2052,66.0,0.0,240.0,1.0,0.0
2053,74.0,0.0,240.0,0.0,0.0
2054,57.0,0.0,240.0,2.0,0.0
2055,73.0,240.0,480.0,1.0,0.0
2056,76.0,0.0,480.0,0.0,0.0
2057,45.0,0.0,720.0,3.0,0.0
2058,57.0,0.0,240.0,2.0,0.0
2059,57.0,480.0,240.0,2.0,0.0
2060,78.0,0.0,240.0,0.0,0.0
2061,75.0,0.0,240.0,1.0,0.0
2062,40.0,480.0,720.0,3.0,0.0
2063,52.0,0.0,240.0,2.0,0.0
2064,76.0,0.0,15.0,1.0,0.0
2065,52.0,0.0,240.0,2.0,0.0
2066,79.0,240.0,15.0,0.0,0.0
2067,79.0,0.0,15.0,0.0,0.0
2068,76.0,240.0,480.0,1.0,0.0
2069,40.0,0.0,720.0,3.0,0.0
2070,52.0,0.0,15.0,2.0,0.0
2071,76.0,0.0,240.0,0.0,0.0
2072,73.0,240.0,240.0,1.0,0.0
2073,42.0,0.0,720.0,3.0,0.0
2074,73.0,0.0,240.0,0.0,0.0
2075,70.0,240.0,240.0,1.0,0.0
2076,73.0,240.0,240.0,1.0,0.0
2077,76.0,0.0,240.0,0.0,0.0
2078,54.0,0.0,15.0,2.0,0.0
2079,70.0,0.0,240.0,1.0,0.0
2080,73.0,480.0,240.0,0.0,0.0
2081,47.0,0.0,720.0,3.0,0.0
2082,62.0,720.0,720.0,1.0,0.0
2083,71.0,0.0,720.0,0.0,0.0
2084,59.0,240.0,240.0,2.0,0.0
2085,59.0,0.0,240.0,2.0,0.0
2086,62.0,720.0,720.0,0.0,0.0
2087,59.0,720.0,15.0,3.0,0.0
2088,60.0,0.0,720.0,1.0,0.0
2089,66.0,0.0,720.0,0.0,0.0
2090,50.0,137.0,720.0,3.0,0.0
2091,57.0,0.0,720.0,3.0,0.0
2092,67.0,0.0,480.0,0.0,0.0
2093,62.0,0.0,15.0,1.0,0.0
2094,59.0,120.0,480.0,1.0,0.0
2095,55.0,103.0,150.0,3.0,0.0
2096,59.0,120.0,120.0,3.0,0.0
2097,62.0,120.0,120.0,3.0,0.0
2098,59.0,0.0,120.0,3.0,0.0
2099,55.0,121.0,120.0,3.0,0.0
2100,50.0,119.0,120.0,3.0,0.0
2101,55.0,120.0,120.0,3.0,0.0
2102,59.0,120.0,120.0,3.0,0.0
2103,62.0,120.0,120.0,3.0,0.0
2104,59.0,120.0,120.0,3.0,0.0
2105,71.0,0.0,15.0,0.0,0.0
2106,55.0,120.0,120.0,3.0,0.0
2107,50.0,119.0,120.0,3.0,0.0
2108,55.0,120.0,120.0,3.0,0.0
2109,71.0,1.0,15.0,0.0,0.0
2110,59.0,0.0,120.0,3.0,0.0
2111,62.0,120.0,120.0,3.0,0.0
2112,59.0,120.0,120.0,3.0,0.0
2113,74.0,0.0,15.0,0.0,0.0
2114,55.0,60.0,120.0,3.0,0.0
2115,50.0,119.0,120.0,3.0,0.0
2116,74.0,1.0,60.0,0.0,0.0
2117,55.0,120.0,120.0,3.0,0.0
2118,79.0,0.0,240.0,0.0,0.0
2119,59.0,120.0,120.0,3.0,0.0
2120,78.0,0.0,240.0,0.0,0.0
2121,62.0,120.0,120.0,3.0,0.0
2122,59.0,120.0,120.0,3.0,0.0
2123,76.0,1.0,240.0,0.0,0.0
2124,55.0,120.0,120.0,3.0,0.0
2125,50.0,119.0,120.0,3.0,0.0
2126,74.0,0.0,240.0,0.0,0.0
2127,55.0,120.0,120.0,3.0,0.0
2128,59.0,120.0,120.0,3.0,0.0
2129,62.0,120.0,120.0,3.0,0.0
2130,72.0,0.0,240.0,0.0,0.0
2131,59.0,120.0,120.0,3.0,0.0
2132,71.0,1.0,240.0,0.0,0.0
2133,55.0,120.0,120.0,3.0,0.0
2134,50.0,119.0,120.0,3.0,0.0
2135,74.0,120.0,480.0,0.0,0.0
2136,57.0,120.0,120.0,3.0,0.0
2137,60.0,120.0,120.0,3.0,0.0
2138,62.0,120.0,120.0,3.0,0.0
2139,60.0,0.0,120.0,3.0,0.0
2140,57.0,65.0,120.0,3.0,0.0
2141,72.0,56.0,180.0,0.0,0.0
2142,50.0,59.0,120.0,3.0,0.0
2143,69.0,60.0,120.0,0.0,0.0
2144,81.0,0.0,240.0,0.0,0.0
2145,54.0,120.0,120.0,3.0,0.0
2146,57.0,120.0,120.0,3.0,0.0
2147,79.0,120.0,240.0,0.0,0.0
2148,62.0,120.0,120.0,3.0,0.0
2149,57.0,0.0,120.0,3.0,0.0
2150,54.0,120.0,120.0,3.0,0.0
2151,78.0,1.0,240.0,0.0,0.0
2152,50.0,119.0,120.0,3.0,0.0
2153,76.0,0.0,240.0,0.0,0.0
2154,54.0,120.0,120.0,3.0,0.0
2155,57.0,120.0,120.0,3.0,0.0
2156,74.0,0.0,240.0,0.0,0.0
2157,62.0,120.0,120.0,3.0,0.0
2158,57.0,120.0,120.0,3.0,0.0
2159,54.0,120.0,120.0,3.0,0.0
2160,72.0,1.0,240.0,0.0,0.0
2161,50.0,119.0,120.0,3.0,0.0
2162,55.0,120.0,120.0,3.0,0.0
2163,70.0,120.0,480.0,0.0,0.0
2164,59.0,120.0,120.0,3.0,0.0
2165,62.0,120.0,120.0,3.0,0.0
2166,59.0,0.0,120.0,3.0,0.0
2167,55.0,120.0,120.0,3.0,0.0
2168,71.0,0.0,240.0,0.0,0.0
2169,50.0,135.0,120.0,3.0,0.0
2170,69.0,0.0,480.0,0.0,0.0
2171,48.0,105.0,120.0,3.0,0.0
2172,50.0,120.0,120.0,3.0,0.0
2173,54.0,120.0,120.0,3.0,0.0
2174,57.0,120.0,120.0,3.0,0.0
2175,72.0,120.0,120.0,0.0,0.0
2176,54.0,0.0,120.0,3.0,0.0
2177,71.0,120.0,120.0,0.0,0.0
2178,50.0,0.0,120.0,3.0,0.0
2179,69.0,15.0,120.0,0.0,0.0
2180,48.0,105.0,120.0,3.0,0.0
2181,71.0,0.0,120.0,0.0,0.0
2182,50.0,120.0,120.0,3.0,0.0
2183,54.0,0.0,120.0,3.0,0.0
2184,72.0,120.0,120.0,0.0,0.0
2185,74.0,120.0,120.0,0.0,0.0
2186,57.0,0.0,120.0,3.0,0.0
2187,54.0,120.0,120.0,3.0,0.0
2188,76.0,0.0,120.0,0.0,0.0
2189,50.0,40.0,120.0,3.0,0.0
2190,74.0,0.0,120.0,0.0,0.0
2191,74.0,40.0,30.0,0.0,0.0
2192,47.0,45.0,120.0,3.0,0.0
2193,76.0,40.0,30.0,0.0,0.0
2194,74.0,15.0,30.0,0.0,0.0
2195,50.0,0.0,120.0,3.0,0.0
2196,73.0,60.0,60.0,0.0,0.0
2197,74.0,120.0,60.0,0.0,0.0
2198,55.0,120.0,120.0,3.0,0.0
2199,79.0,120.0,240.0,0.0,0.0
2200,59.0,0.0,120.0,3.0,0.0
2201,71.0,146.0,240.0,0.0,0.0
2202,62.0,120.0,120.0,3.0,0.0
2203,59.0,0.0,120.0,3.0,0.0
2204,60.0,94.0,150.0,3.0,0.0
2205,81.0,120.0,480.0,0.0,0.0
2206,62.0,120.0,120.0,3.0,0.0
2207,66.0,120.0,120.0,3.0,0.0
2208,69.0,0.0,120.0,3.0,0.0
2209,66.0,0.0,120.0,3.0,0.0
2210,84.0,120.0,120.0,0.0,0.0
2211,83.0,0.0,120.0,0.0,0.0
2212,62.0,120.0,120.0,3.0,0.0
2213,60.0,94.0,150.0,3.0,0.0
2214,81.0,26.0,120.0,0.0,0.0
2215,62.0,120.0,120.0,3.0,0.0
2216,83.0,0.0,120.0,0.0,0.0
2217,84.0,120.0,120.0,0.0,0.0
2218,66.0,0.0,120.0,3.0,0.0
2219,69.0,120.0,120.0,3.0,0.0
2220,86.0,0.0,120.0,0.0,0.0
2221,88.0,0.0,120.0,0.0,0.0
2222,66.0,120.0,120.0,3.0,0.0
2223,86.0,0.0,120.0,0.0,0.0
2224,62.0,40.0,120.0,3.0,0.0
2225,86.0,40.0,30.0,0.0,0.0
2226,59.0,34.0,150.0,3.0,0.0
2227,88.0,40.0,30.0,0.0,0.0
2228,86.0,26.0,30.0,0.0,0.0
2229,85.0,60.0,60.0,0.0,0.0
2230,62.0,0.0,120.0,3.0,0.0
2231,86.0,120.0,60.0,0.0,0.0
2232,67.0,120.0,120.0,3.0,0.0
2233,91.0,120.0,240.0,0.0,0.0
2234,71.0,0.0,120.0,3.0,0.0
2235,83.0,146.0,240.0,0.0,0.0
2236,67.0,120.0,120.0,3.0,0.0
2237,62.0,0.0,120.0,3.0,0.0
2238,60.0,94.0,150.0,3.0,0.0
2239,81.0,120.0,240.0,0.0,0.0
2240,64.0,0.0,120.0,3.0,0.0
2241,69.0,120.0,120.0,3.0,0.0
2242,84.0,120.0,240.0,0.0,0.0
2243,72.0,0.0,120.0,3.0,0.0
2244,69.0,120.0,120.0,3.0,0.0
2245,88.0,137.0,240.0,0.0,0.0
2246,64.0,0.0,120.0,3.0,0.0
2247,78.0,0.0,240.0,0.0,0.0
2248,62.0,103.0,150.0,3.0,0.0
2249,66.0,120.0,120.0,3.0,0.0
2250,81.0,120.0,240.0,0.0,0.0
2251,69.0,120.0,120.0,3.0,0.0
2252,72.0,0.0,120.0,3.0,0.0
2253,69.0,120.0,120.0,3.0,0.0
2254,86.0,0.0,240.0,0.0,0.0
2255,66.0,120.0,120.0,3.0,0.0
2256,84.0,0.0,480.0,0.0,0.0
2257,64.0,150.0,120.0,3.0,0.0
2258,63.0,90.0,150.0,3.0,0.0
2259,64.0,120.0,120.0,3.0,0.0
2260,66.0,120.0,120.0,3.0,0.0
2261,67.0,120.0,120.0,3.0,0.0
2262,83.0,149.0,240.0,0.0,0.0
2263,64.0,0.0,120.0,3.0,0.0
2264,48.0,91.0,150.0,3.0,0.0
2265,69.0,120.0,240.0,0.0,0.0
2266,52.0,0.0,120.0,3.0,0.0
2267,57.0,120.0,120.0,3.0,0.0
2268,72.0,120.0,240.0,0.0,0.0
2269,60.0,0.0,120.0,3.0,0.0
2270,64.0,120.0,120.0,3.0,0.0
2271,76.0,0.0,240.0,0.0,0.0
2272,60.0,149.0,120.0,3.0,0.0
2273,50.0,91.0,150.0,3.0,0.0
2274,67.0,120.0,240.0,0.0,0.0
2275,55.0,0.0,120.0,3.0,0.0
2276,59.0,120.0,120.0,3.0,0.0
2277,71.0,0.0,240.0,0.0,0.0
2278,62.0,120.0,120.0,3.0,0.0
2279,59.0,120.0,120.0,3.0,0.0
2280,74.0,0.0,240.0,0.0,0.0
2281,55.0,149.0,120.0,3.0,0.0
2282,50.0,91.0,150.0,3.0,0.0
2283,60.0,0.0,240.0,0.0,0.0
2284,54.0,120.0,120.0,3.0,0.0
2285,57.0,120.0,120.0,3.0,0.0
2286,62.0,120.0,240.0,0.0,0.0
2287,60.0,0.0,120.0,3.0,0.0
2288,66.0,0.0,240.0,0.0,0.0
2289,57.0,120.0,120.0,3.0,0.0
2290,60.0,240.0,120.0,3.0,0.0
2291,62.0,6.0,720.0,1.0,0.0
2292,59.0,0.0,720.0,1.0,0.0
2293,47.0,60.0,420.0,3.0,0.0
2294,67.0,0.0,720.0,0.0,0.0
2295,50.0,120.0,120.0,3.0,0.0
2296,55.0,60.0,120.0,3.0,0.0
2297,50.0,120.0,120.0,3.0,0.0
2298,47.0,120.0,120.0,3.0,0.0
2299,43.0,234.0,120.0,3.0,0.0
2300,48.0,20.0,450.0,3.0,0.0
2301,52.0,120.0,120.0,3.0,0.0
2302,55.0,100.0,120.0,3.0,0.0
2303,67.0,120.0,240.0,1.0,0.0
2304,76.0,0.0,240.0,1.0,0.0
2305,52.0,0.0,120.0,3.0,0.0
2306,48.0,120.0,120.0,3.0,0.0
2307,79.0,0.0,15.0,0.0,0.0
2308,76.0,0.0,240.0,1.0,0.0
2309,67.0,0.0,240.0,1.0,0.0
2310,43.0,234.0,120.0,3.0,0.0
2311,76.0,0.0,480.0,1.0,0.0
2312,79.0,6.0,15.0,0.0,0.0
2313,48.0,3.0,480.0,3.0,0.0
2314,52.0,120.0,120.0,3.0,0.0
2315,55.0,117.0,120.0,3.0,0.0
2316,52.0,0.0,120.0,3.0,0.0
2317,72.0,0.0,240.0,1.0,0.0
2318,48.0,120.0,120.0,3.0,0.0
2319,76.0,0.0,240.0,0.0,0.0
2320,43.0,234.0,120.0,3.0,0.0
2321,47.0,20.0,450.0,3.0,0.0
2322,74.0,6.0,720.0,0.0,0.0
2323,67.0,6.0,15.0,1.0,0.0
2324,50.0,120.0,120.0,3.0,0.0
2325,55.0,100.0,120.0,3.0,0.0
2326,50.0,120.0,120.0,3.0,0.0
2327,47.0,120.0,120.0,3.0,0.0
2328,43.0,234.0,120.0,3.0,0.0
2329,47.0,20.0,450.0,3.0,0.0
2330,62.0,0.0,720.0,1.0,0.0
2331,71.0,120.0,480.0,0.0,0.0
2332,67.0,6.0,720.0,1.0,0.0
2333,50.0,120.0,120.0,3.0,0.0
2334,55.0,100.0,120.0,3.0,0.0
2335,50.0,0.0,120.0,3.0,0.0
2336,47.0,120.0,120.0,3.0,0.0
2337,74.0,0.0,240.0,0.0,0.0
2338,43.0,234.0,120.0,3.0,0.0
2339,74.0,0.0,240.0,0.0,0.0
2340,45.0,20.0,450.0,3.0,0.0
2341,66.0,0.0,720.0,1.0,0.0
2342,48.0,120.0,120.0,3.0,0.0
2343,54.0,100.0,120.0,3.0,0.0
2344,72.0,0.0,240.0,0.0,0.0
2345,48.0,80.0,120.0,3.0,0.0
2346,45.0,40.0,120.0,3.0,0.0
2347,71.0,40.0,90.0,0.0,0.0
2348,74.0,80.0,90.0,0.0,0.0
2349,43.0,234.0,120.0,3.0,0.0
2350,72.0,6.0,90.0,0.0,0.0
2351,47.0,20.0,450.0,3.0,0.0
2352,62.0,6.0,720.0,1.0,0.0
2353,67.0,0.0,720.0,1.0,0.0
2354,71.0,0.0,720.0,0.0,0.0
2355,50.0,120.0,120.0,3.0,0.0
2356,55.0,100.0,120.0,3.0,0.0
2357,50.0,120.0,120.0,3.0,0.0
2358,47.0,120.0,120.0,3.0,0.0
2359,43.0,74.0,120.0,3.0,0.0
2360,48.0,20.0,450.0,3.0,0.0
2361,67.0,80.0,90.0,0.0,0.0
2362,69.0,80.0,90.0,0.0,0.0
2363,52.0,0.0,120.0,3.0,0.0
2364,67.0,60.0,90.0,0.0,0.0
2365,66.0,60.0,60.0,0.0,0.0
2366,55.0,0.0,120.0,3.0,0.0
2367,67.0,60.0,60.0,0.0,0.0
2368,52.0,40.0,120.0,3.0,0.0
2369,69.0,40.0,60.0,0.0,0.0
2370,71.0,0.0,60.0,0.0,0.0
2371,48.0,0.0,120.0,3.0,0.0
2372,72.0,40.0,30.0,0.0,0.0
2373,74.0,40.0,30.0,0.0,0.0
2374,76.0,60.0,30.0,0.0,0.0
2375,78.0,60.0,60.0,0.0,0.0
2376,43.0,114.0,120.0,3.0,0.0
2377,79.0,6.0,60.0,0.0,0.0
2378,81.0,120.0,120.0,0.0,0.0
2379,48.0,20.0,450.0,3.0,0.0
2380,52.0,0.0,120.0,3.0,0.0
2381,79.0,120.0,120.0,0.0,0.0
2382,78.0,100.0,120.0,0.0,0.0
2383,55.0,0.0,120.0,3.0,0.0
2384,52.0,0.0,120.0,3.0,0.0
2385,76.0,120.0,120.0,0.0,0.0
2386,79.0,120.0,120.0,0.0,0.0
2387,48.0,0.0,120.0,3.0,0.0
2388,76.0,0.0,120.0,0.0,0.0
2389,43.0,240.0,120.0,3.0,0.0
2390,74.0,120.0,720.0,0.0,0.0
2391,47.0,60.0,420.0,3.0,0.0
2392,50.0,120.0,120.0,3.0,0.0
2393,55.0,60.0,120.0,3.0,0.0
2394,50.0,120.0,120.0,3.0,0.0
2395,47.0,120.0,120.0,3.0,0.0
2396,43.0,50.0,660.0,3.0,0.0
2397,71.0,0.0,480.0,0.0,0.0
2398,47.0,120.0,120.0,3.0,0.0
2399,62.0,0.0,480.0,1.0,0.0
2400,50.0,120.0,120.0,3.0,0.0
2401,55.0,120.0,120.0,3.0,0.0
2402,50.0,70.0,120.0,3.0,0.0
2403,74.0,115.0,240.0,0.0,0.0
2404,47.0,120.0,120.0,3.0,0.0
2405,43.0,35.0,450.0,3.0,0.0
2406,65.0,5.0,15.0,1.0,0.0
2407,71.0,115.0,360.0,0.0,0.0
2408,47.0,120.0,120.0,3.0,0.0
2409,50.0,85.0,120.0,3.0,0.0
2410,55.0,5.0,120.0,3.0,0.0
2411,74.0,120.0,120.0,0.0,0.0
2412,43.0,0.0,120.0,3.0,0.0
2413,55.0,0.0,120.0,3.0,0.0
2414,65.0,0.0,240.0,1.0,0.0
2415,73.0,120.0,120.0,0.0,0.0
2416,43.0,480.0,120.0,3.0,0.0
2417,71.0,0.0,120.0,0.0,0.0
2418,70.0,0.0,720.0,0.0,0.0
2419,66.0,0.0,720.0,1.0,0.0
2420,42.0,0.0,720.0,3.0,0.0
2421,54.0,240.0,240.0,2.0,0.0
2422,54.0,480.0,240.0,2.0,0.0
2423,54.0,56.0,780.0,3.0,0.0
2424,70.0,0.0,480.0,1.0,0.0
2425,73.0,235.0,480.0,0.0,0.0
2426,66.0,5.0,15.0,2.0,0.0
2427,74.0,5.0,240.0,0.0,0.0
2428,71.0,59.0,240.0,1.0,0.0
2429,73.0,110.0,240.0,1.0,0.0
2430,76.0,120.0,120.0,0.0,0.0
2431,79.0,10.0,120.0,0.0,0.0
2432,78.0,120.0,120.0,0.0,0.0
2433,76.0,120.0,120.0,0.0,0.0
2434,74.0,120.0,120.0,0.0,0.0
2435,54.0,480.0,240.0,2.0,0.0
2436,73.0,0.0,120.0,0.0,0.0
2437,47.0,72.0,660.0,3.0,0.0
2438,62.0,480.0,720.0,1.0,0.0
2439,71.0,0.0,720.0,0.0,0.0
2440,54.0,168.0,15.0,2.0,0.0
2441,47.0,72.0,660.0,3.0,0.0
2442,74.0,168.0,480.0,0.0,0.0
2443,71.0,0.0,480.0,1.0,0.0
2444,54.0,0.0,240.0,2.0,0.0
2445,73.0,0.0,240.0,1.0,0.0
2446,54.0,0.0,240.0,2.0,0.0
2447,76.0,480.0,240.0,0.0,0.0
2448,47.0,72.0,660.0,3.0,0.0
2449,74.0,0.0,480.0,1.0,0.0
2450,78.0,168.0,480.0,0.0,0.0
2451,54.0,0.0,15.0,2.0,0.0
2452,74.0,0.0,240.0,1.0,0.0
2453,78.0,480.0,240.0,0.0,0.0
2454,47.0,72.0,660.0,3.0,0.0
2455,74.0,0.0,480.0,1.0,0.0
2456,78.0,0.0,480.0,0.0,0.0
2457,74.0,0.0,240.0,0.0,0.0
2458,54.0,168.0,15.0,2.0,0.0
2459,71.0,480.0,240.0,1.0,0.0
2460,47.0,72.0,660.0,3.0,0.0
2461,62.0,168.0,480.0,1.0,0.0
2462,71.0,0.0,480.0,0.0,0.0
2463,54.0,0.0,240.0,2.0,0.0
2464,71.0,0.0,240.0,1.0,0.0
2465,74.0,0.0,240.0,0.0,0.0
2466,54.0,480.0,240.0,2.0,0.0
2467,42.0,72.0,660.0,3.0,0.0
2468,73.0,480.0,720.0,0.0,0.0
2469,70.0,0.0,720.0,1.0,0.0
2470,54.0,168.0,240.0,2.0,0.0
2471,54.0,0.0,240.0,2.0,0.0
2472,47.0,72.0,660.0,3.0,0.0
2473,62.0,480.0,720.0,1.0,0.0
2474,71.0,0.0,720.0,0.0,0.0
2475,54.0,168.0,240.0,2.0,0.0
2476,54.0,0.0,240.0,2.0,0.0
2477,74.0,0.0,480.0,0.0,0.0
2478,47.0,72.0,660.0,3.0,0.0
2479,71.0,168.0,480.0,1.0,0.0
2480,54.0,0.0,240.0,2.0,0.0
2481,76.0,480.0,240.0,0.0,0.0
2482,73.0,0.0,240.0,1.0,0.0
2483,54.0,0.0,240.0,2.0,0.0
2484,47.0,72.0,660.0,3.0,0.0
2485,78.0,0.0,480.0,0.0,0.0
2486,74.0,0.0,15.0,1.0,0.0
2487,54.0,168.0,15.0,2.0,0.0
2488,45.0,72.0,660.0,3.0,0.0
2489,74.0,0.0,15.0,1.0,0.0
2490,78.0,480.0,15.0,0.0,0.0
2491,57.0,0.0,15.0,2.0,0.0
2492,74.0,0.0,240.0,0.0,0.0
2493,66.0,0.0,240.0,1.0,0.0
2494,76.0,0.0,240.0,0.0,0.0
2495,45.0,72.0,660.0,3.0,0.0
2496,67.0,240.0,240.0,1.0,0.0
2497,79.0,168.0,240.0,0.0,0.0
2498,71.0,0.0,240.0,1.0,0.0
2499,57.0,0.0,15.0,2.0,0.0
2500,64.0,480.0,240.0,1.0,0.0
2501,73.0,0.0,240.0,0.0,0.0
2502,74.0,480.0,720.0,0.0,0.0
2503,50.0,72.0,660.0,3.0,0.0
2504,66.0,0.0,720.0,1.0,0.0
2505,57.0,168.0,15.0,2.0,0.0
2506,50.0,72.0,660.0,3.0,0.0
2507,74.0,0.0,480.0,1.0,0.0
2508,78.0,168.0,480.0,0.0,0.0
2509,57.0,0.0,15.0,2.0,0.0
2510,66.0,0.0,240.0,1.0,0.0
2511,74.0,0.0,240.0,0.0,0.0
2512,45.0,72.0,660.0,3.0,0.0
2513,76.0,0.0,480.0,0.0,0.0
2514,73.0,0.0,480.0,1.0,0.0
2515,57.0,168.0,240.0,2.0,0.0
2516,78.0,0.0,240.0,0.0,0.0
2517,75.0,0.0,240.0,1.0,0.0
2518,57.0,480.0,240.0,2.0,0.0
2519,76.0,168.0,480.0,1.0,0.0
2520,40.0,72.0,660.0,3.0,0.0
2521,52.0,0.0,240.0,2.0,0.0
2522,52.0,480.0,240.0,2.0,0.0
2523,79.0,0.0,15.0,0.0,0.0
2524,40.0,72.0,660.0,3.0,0.0
2525,79.0,0.0,15.0,0.0,0.0
2526,76.0,0.0,15.0,1.0,0.0
2527,73.0,240.0,240.0,1.0,0.0
2528,52.0,0.0,15.0,2.0,0.0
2529,76.0,0.0,240.0,0.0,0.0
2530,42.0,0.0,480.0,3.0,0.0
2531,70.0,0.0,240.0,1.0,0.0
2532,73.0,240.0,240.0,0.0,0.0
2533,54.0,0.0,240.0,2.0,0.0
2534,76.0,0.0,240.0,0.0,0.0
2535,73.0,240.0,240.0,1.0,0.0
2536,73.0,0.0,240.0,0.0,0.0
2537,42.0,0.0,240.0,3.0,0.0
2538,70.0,240.0,240.0,1.0,0.0
2539,74.0,0.0,240.0,0.0,0.0
2540,47.0,0.0,240.0,3.0,0.0
2541,71.0,240.0,15.0,1.0,0.0
2542,47.0,0.0,240.0,3.0,0.0
2543,74.0,0.0,240.0,0.0,0.0
2544,59.0,0.0,240.0,2.0,0.0
2545,73.0,0.0,240.0,1.0,0.0
2546,76.0,0.0,240.0,0.0,0.0
2547,57.0,480.0,240.0,2.0,0.0
2548,45.0,0.0,240.0,3.0,0.0
2549,50.0,38.0,690.0,3.0,0.0
2550,78.0,0.0,480.0,0.0,0.0
2551,74.0,202.0,480.0,1.0,0.0
2552,57.0,0.0,240.0,2.0,0.0
2553,74.0,0.0,240.0,0.0,0.0
2554,66.0,480.0,240.0,1.0,0.0
2555,57.0,0.0,240.0,2.0,0.0
2556,76.0,0.0,480.0,0.0,0.0
2557,45.0,38.0,690.0,3.0,0.0
2558,73.0,202.0,480.0,1.0,0.0
2559,57.0,0.0,240.0,2.0,0.0
2560,57.0,0.0,240.0,2.0,0.0
2561,78.0,480.0,240.0,0.0,0.0
2562,75.0,0.0,240.0,1.0,0.0
2563,40.0,38.0,690.0,3.0,0.0
2564,79.0,0.0,480.0,0.0,0.0
2565,52.0,0.0,240.0,2.0,0.0
2566,76.0,202.0,15.0,1.0,0.0
2567,52.0,0.0,240.0,2.0,0.0
2568,40.0,38.0,690.0,3.0,0.0
2569,76.0,480.0,15.0,1.0,0.0
2570,79.0,0.0,15.0,0.0,0.0
2571,52.0,0.0,240.0,2.0,0.0
2572,76.0,0.0,240.0,0.0,0.0
2573,52.0,240.0,240.0,2.0,0.0
2574,73.0,0.0,240.0,1.0,0.0
2575,42.0,38.0,690.0,3.0,0.0
2576,73.0,240.0,240.0,0.0,0.0
2577,70.0,0.0,240.0,1.0,0.0
2578,73.0,0.0,240.0,1.0,0.0
2579,76.0,202.0,240.0,0.0,0.0
2580,54.0,0.0,240.0,2.0,0.0
2581,73.0,0.0,240.0,0.0,0.0
2582,70.0,240.0,240.0,1.0,0.0
2583,54.0,0.0,240.0,2.0,0.0
2584,71.0,0.0,720.0,0.0,0.0
2585,47.0,16.0,330.0,3.0,0.0
2586,62.0,0.0,720.0,1.0,0.0
2587,50.0,104.0,120.0,3.0,0.0
2588,54.0,240.0,120.0,3.0,0.0
2589,47.0,16.0,330.0,3.0,0.0
2590,50.0,104.0,120.0,3.0,0.0
2591,54.0,240.0,120.0,3.0,0.0
2592,59.0,24.0,450.0,3.0,0.0
2593,83.0,240.0,720.0,0.0,0.0
2594,71.0,0.0,720.0,1.0,0.0
2595,62.0,120.0,120.0,3.0,0.0
2596,66.0,96.0,120.0,3.0,0.0
2597,62.0,120.0,120.0,3.0,0.0
2598,59.0,120.0,120.0,3.0,0.0
2599,54.0,0.0,120.0,3.0,0.0
2600,59.0,24.0,450.0,3.0,0.0
2601,86.0,120.0,480.0,0.0,0.0
2602,74.0,0.0,480.0,1.0,0.0
2603,62.0,120.0,120.0,3.0,0.0
2604,66.0,96.0,120.0,3.0,0.0
2605,62.0,0.0,120.0,3.0,0.0
2606,76.0,0.0,240.0,1.0,0.0
2607,88.0,240.0,240.0,0.0,0.0
2608,59.0,120.0,120.0,3.0,0.0
2609,54.0,0.0,120.0,3.0,0.0
2610,78.0,0.0,480.0,1.0,0.0
2611,59.0,24.0,450.0,3.0,0.0
2612,62.0,120.0,120.0,3.0,0.0
2613,66.0,96.0,120.0,3.0,0.0
2614,62.0,120.0,120.0,3.0,0.0
2615,90.0,0.0,15.0,0.0,0.0
2616,59.0,120.0,120.0,3.0,0.0
2617,54.0,0.0,120.0,3.0,0.0
2618,59.0,24.0,450.0,3.0,0.0
2619,90.0,0.0,480.0,0.0,0.0
2620,78.0,240.0,15.0,1.0,0.0
2621,62.0,120.0,120.0,3.0,0.0
2622,66.0,96.0,120.0,3.0,0.0
2623,62.0,0.0,120.0,3.0,0.0
2624,59.0,120.0,120.0,3.0,0.0
2625,86.0,240.0,240.0,0.0,0.0
2626,74.0,0.0,240.0,1.0,0.0
2627,54.0,0.0,120.0,3.0,0.0
2628,71.0,0.0,480.0,1.0,0.0
2629,59.0,8.0,480.0,3.0,0.0
2630,83.0,0.0,480.0,0.0,0.0
2631,62.0,120.0,120.0,3.0,0.0
2632,66.0,112.0,120.0,3.0,0.0
2633,62.0,120.0,120.0,3.0,0.0
2634,74.0,0.0,240.0,1.0,0.0
2635,59.0,120.0,120.0,3.0,0.0
2636,86.0,240.0,240.0,0.0,0.0
2637,54.0,0.0,120.0,3.0,0.0
2638,58.0,24.0,450.0,3.0,0.0
2639,85.0,240.0,720.0,0.0,0.0
2640,73.0,0.0,720.0,1.0,0.0
2641,61.0,120.0,120.0,3.0,0.0
2642,66.0,96.0,120.0,3.0,0.0
2643,61.0,120.0,120.0,3.0,0.0
2644,58.0,120.0,120.0,3.0,0.0
2645,54.0,0.0,120.0,3.0,0.0
2646,58.0,24.0,450.0,3.0,0.0
2647,76.0,0.0,480.0,1.0,0.0
2648,88.0,120.0,480.0,0.0,0.0
2649,61.0,120.0,120.0,3.0,0.0
2650,66.0,96.0,120.0,3.0,0.0
2651,61.0,0.0,120.0,3.0,0.0
2652,58.0,120.0,120.0,3.0,0.0
2653,85.0,0.0,240.0,0.0,0.0
2654,73.0,0.0,240.0,1.0,0.0
2655,54.0,240.0,120.0,3.0,0.0
2656,70.0,120.0,480.0,1.0,0.0
2657,82.0,0.0,480.0,0.0,0.0
2658,58.0,40.0,450.0,3.0,0.0
2659,61.0,120.0,120.0,3.0,0.0
2660,66.0,80.0,120.0,3.0,0.0
2661,61.0,0.0,120.0,3.0,0.0
2662,85.0,0.0,240.0,0.0,0.0
2663,73.0,0.0,240.0,1.0,0.0
2664,58.0,120.0,120.0,3.0,0.0
2665,54.0,240.0,120.0,3.0,0.0
2666,71.0,0.0,720.0,1.0,0.0
2667,83.0,0.0,720.0,0.0,0.0
2668,55.0,24.0,450.0,3.0,0.0
2669,59.0,120.0,120.0,3.0,0.0
2670,62.0,96.0,120.0,3.0,0.0
2671,59.0,120.0,120.0,3.0,0.0
2672,55.0,120.0,120.0,3.0,0.0
2673,54.0,360.0,120.0,3.0,0.0
2674,67.0,312.0,360.0,1.0,0.0
2675,76.0,0.0,360.0,0.0,0.0
2676,61.0,0.0,360.0,2.0,0.0
2677,52.0,0.0,360.0,3.0,0.0
2678,67.0,0.0,180.0,1.0,0.0
2679,64.0,1128.0,180.0,2.0,0.0
2680,52.0,0.0,180.0,3.0,0.0
2681,73.0,0.0,180.0,0.0,0.0
2682,70.0,0.0,360.0,0.0,0.0
2683,64.0,312.0,360.0,1.0,0.0
2684,61.0,0.0,360.0,2.0,0.0
2685,54.0,0.0,360.0,3.0,0.0
2686,54.0,528.0,180.0,3.0,0.0
2687,73.0,0.0,180.0,0.0,0.0
2688,70.0,0.0,180.0,1.0,0.0
2689,64.0,0.0,180.0,2.0,0.0
2690,64.0,0.0,480.0,1.0,0.0
2691,66.0,0.0,480.0,1.0,0.0
2692,70.0,0.0,480.0,0.0,0.0
2693,54.0,0.0,480.0,3.0,0.0
2694,61.0,720.0,480.0,2.0,0.0
2695,71.0,2160.0,480.0,0.0,0.0
2696,47.0,0.0,480.0,3.0,0.0
2697,62.0,0.0,480.0,1.0,0.0
2698,66.0,0.0,480.0,1.0,0.0
2699,59.0,0.0,480.0,2.0,0.0
2700,75.0,120.0,240.0,0.0,0.0
2701,63.0,0.0,480.0,2.0,0.0
2702,59.0,240.0,480.0,3.0,0.0
2703,76.0,120.0,120.0,0.0,0.0
2704,75.0,0.0,120.0,0.0,0.0
2705,61.0,240.0,480.0,2.0,0.0
2706,78.0,120.0,240.0,0.0,0.0
2707,58.0,0.0,480.0,3.0,0.0
2708,80.0,120.0,120.0,0.0,0.0
2709,78.0,0.0,120.0,0.0,0.0
2710,59.0,480.0,480.0,2.0,0.0
2711,56.0,0.0,480.0,3.0,0.0
2712,71.0,120.0,240.0,0.0,0.0
2713,73.0,120.0,120.0,0.0,0.0
2714,71.0,0.0,120.0,0.0,0.0
2715,58.0,0.0,480.0,2.0,0.0
2716,75.0,240.0,480.0,0.0,0.0
2717,54.0,0.0,480.0,3.0,0.0
2718,68.0,120.0,240.0,0.0,0.0
2719,56.0,0.0,480.0,2.0,0.0
2720,52.0,240.0,480.0,3.0,0.0
2721,70.0,120.0,120.0,0.0,0.0
2722,68.0,0.0,120.0,0.0,0.0
2723,51.0,240.0,480.0,3.0,0.0
2724,71.0,120.0,240.0,0.0,0.0
2725,54.0,0.0,480.0,2.0,0.0
2726,73.0,120.0,120.0,0.0,0.0
2727,71.0,0.0,120.0,0.0,0.0
2728,73.0,120.0,240.0,0.0,0.0
2729,58.0,0.0,480.0,2.0,0.0
2730,54.0,0.0,480.0,3.0,0.0
2731,75.0,120.0,120.0,0.0,0.0
2732,73.0,480.0,120.0,0.0,0.0
2733,47.0,240.0,480.0,3.0,0.0
2734,59.0,0.0,480.0,2.0,0.0
2735,75.0,0.0,480.0,0.0,0.0
2736,75.0,120.0,240.0,0.0,0.0
2737,63.0,0.0,480.0,2.0,0.0
2738,59.0,0.0,480.0,3.0,0.0
2739,76.0,120.0,120.0,0.0,0.0
2740,75.0,240.0,120.0,0.0,0.0
2741,58.0,240.0,480.0,3.0,0.0
2742,61.0,0.0,480.0,2.0,0.0
2743,78.0,120.0,240.0,0.0,0.0
2744,80.0,120.0,120.0,0.0,0.0
2745,78.0,0.0,120.0,0.0,0.0
2746,65.0,480.0,480.0,2.0,0.0
2747,83.0,120.0,240.0,0.0,0.0
2748,56.0,0.0,480.0,3.0,0.0
2749,85.0,120.0,120.0,0.0,0.0
2750,83.0,0.0,120.0,0.0,0.0
2751,54.0,0.0,480.0,3.0,0.0
2752,82.0,0.0,480.0,0.0,0.0
2753,66.0,240.0,480.0,2.0,0.0
2754,80.0,120.0,240.0,0.0,0.0
2755,59.0,0.0,480.0,3.0,0.0
2756,63.0,0.0,480.0,2.0,0.0
2757,82.0,120.0,120.0,0.0,0.0
2758,80.0,60.0,120.0,0.0,0.0
2759,61.0,0.0,480.0,3.0,0.0
2760,68.0,0.0,480.0,2.0,0.0
2761,77.0,60.0,60.0,0.0,0.0
2762,78.0,112.0,60.0,0.0,0.0
2763,77.0,128.0,120.0,0.0,0.0
2764,75.0,120.0,120.0,0.0,0.0
2765,77.0,240.0,120.0,0.0,0.0
2766,66.0,960.0,240.0,2.0,0.0
2767,78.0,0.0,240.0,0.0,0.0
2768,54.0,0.0,240.0,3.0,0.0
2769,63.0,0.0,480.0,2.0,0.0
2770,75.0,120.0,240.0,0.0,0.0
2771,59.0,240.0,480.0,3.0,0.0
2772,76.0,120.0,120.0,0.0,0.0
2773,75.0,0.0,120.0,0.0,0.0
2774,61.0,240.0,480.0,2.0,0.0
2775,78.0,120.0,240.0,0.0,0.0
2776,58.0,0.0,480.0,3.0,0.0
2777,80.0,120.0,120.0,0.0,0.0
2778,78.0,0.0,120.0,0.0,0.0
2779,71.0,120.0,240.0,0.0,0.0
2780,56.0,0.0,480.0,3.0,0.0
2781,59.0,480.0,480.0,2.0,0.0
2782,73.0,120.0,120.0,0.0,0.0
2783,71.0,0.0,120.0,0.0,0.0
2784,54.0,0.0,480.0,3.0,0.0
2785,75.0,0.0,480.0,0.0,0.0
2786,58.0,240.0,480.0,2.0,0.0
2787,68.0,120.0,240.0,0.0,0.0
2788,52.0,0.0,480.0,3.0,0.0
2789,56.0,0.0,480.0,2.0,0.0
2790,70.0,120.0,120.0,0.0,0.0
2791,68.0,240.0,120.0,0.0,0.0
2792,51.0,0.0,480.0,3.0,0.0
2793,54.0,0.0,480.0,2.0,0.0
2794,71.0,120.0,240.0,0.0,0.0
2795,73.0,120.0,120.0,0.0,0.0
2796,71.0,240.0,120.0,0.0,0.0
2797,54.0,0.0,480.0,3.0,0.0
2798,58.0,0.0,480.0,2.0,0.0
2799,73.0,120.0,240.0,0.0,0.0
2800,75.0,120.0,120.0,0.0,0.0
2801,73.0,480.0,120.0,0.0,0.0
2802,59.0,0.0,480.0,2.0,0.0
2803,47.0,0.0,480.0,3.0,0.0
2804,59.0,0.0,480.0,3.0,0.0
2805,63.0,0.0,480.0,2.0,0.0
2806,75.0,240.0,15.0,0.0,0.0
2807,76.0,120.0,120.0,0.0,0.0
2808,75.0,240.0,120.0,0.0,0.0
2809,61.0,0.0,480.0,2.0,0.0
2810,58.0,0.0,480.0,3.0,0.0
2811,78.0,120.0,240.0,0.0,0.0
2812,80.0,120.0,120.0,0.0,0.0
2813,78.0,240.0,120.0,0.0,0.0
2814,56.0,0.0,480.0,3.0,0.0
2815,65.0,0.0,480.0,2.0,0.0
2816,83.0,120.0,240.0,0.0,0.0
2817,85.0,120.0,120.0,0.0,0.0
2818,83.0,480.0,120.0,0.0,0.0
2819,54.0,0.0,480.0,3.0,0.0
2820,82.0,0.0,480.0,0.0,0.0
2821,66.0,240.0,480.0,2.0,0.0
2822,80.0,120.0,240.0,0.0,0.0
2823,63.0,60.0,480.0,2.0,0.0
2824,59.0,0.0,480.0,3.0,0.0
2825,82.0,120.0,120.0,0.0,0.0
2826,80.0,0.0,120.0,0.0,0.0
2827,61.0,240.0,480.0,3.0,0.0
2828,77.0,60.0,60.0,0.0,0.0
2829,68.0,0.0,480.0,2.0,0.0
2830,78.0,112.0,60.0,0.0,0.0
2831,77.0,128.0,120.0,0.0,0.0
2832,75.0,120.0,120.0,0.0,0.0
2833,77.0,0.0,120.0,0.0,0.0
2834,66.0,960.0,240.0,2.0,0.0
2835,78.0,0.0,240.0,0.0,0.0
2836,54.0,0.0,240.0,3.0,0.0
2837,66.0,120.0,240.0,0.0,0.0
2838,54.0,0.0,240.0,3.0,0.0
2839,56.0,0.0,120.0,3.0,0.0
2840,68.0,120.0,120.0,0.0,0.0
2841,66.0,120.0,120.0,0.0,0.0
2842,54.0,0.0,120.0,3.0,0.0
2843,51.0,240.0,120.0,3.0,0.0
2844,63.0,0.0,120.0,0.0,0.0
2845,65.0,600.0,120.0,0.0,0.0
2846,53.0,0.0,120.0,3.0,0.0
2847,66.0,360.0,480.0,0.0,0.0
2848,54.0,0.0,480.0,3.0,0.0
2849,54.0,0.0,360.0,0.0,0.0
2850,42.0,120.0,360.0,3.0,0.0
2851,58.0,0.0,60.0,0.0,0.0
2852,46.0,120.0,60.0,3.0,0.0
2853,56.0,240.0,120.0,0.0,0.0
2854,44.0,0.0,120.0,3.0,0.0
2855,42.0,0.0,120.0,3.0,0.0
2856,54.0,240.0,120.0,0.0,0.0
2857,44.0,240.0,120.0,3.0,0.0
2858,56.0,0.0,120.0,0.0,0.0
2859,58.0,0.0,120.0,0.0,0.0
2860,46.0,600.0,120.0,3.0,0.0
2861,47.0,360.0,480.0,3.0,0.0
2862,59.0,0.0,480.0,0.0,0.0
2863,35.0,372.0,360.0,3.0,0.0
2864,47.0,0.0,360.0,0.0,0.0
2865,54.0,240.0,480.0,3.0,0.0
2866,78.0,108.0,240.0,0.0,0.0
2867,80.0,120.0,120.0,0.0,0.0
2868,78.0,0.0,120.0,0.0,0.0
2869,75.0,240.0,240.0,0.0,0.0
2870,49.0,480.0,480.0,3.0,0.0
2871,56.0,0.0,480.0,2.0,0.0
2872,71.0,0.0,480.0,1.0,0.0
2873,77.0,0.0,240.0,0.0,0.0
2874,70.0,0.0,480.0,1.0,0.0
2875,78.0,0.0,480.0,0.0,0.0
2876,54.0,480.0,480.0,3.0,0.0
2877,69.0,0.0,480.0,1.0,0.0
2878,54.0,240.0,480.0,2.0,0.0
2879,75.0,0.0,480.0,0.0,0.0
2880,47.0,0.0,480.0,3.0,0.0
2881,52.0,0.0,480.0,2.0,0.0
2882,68.0,156.0,480.0,1.0,0.0
2883,78.0,156.0,240.0,0.0,0.0
2884,40.0,0.0,480.0,3.0,0.0
2885,76.0,84.0,150.0,0.0,0.0
2886,54.0,240.0,480.0,2.0,0.0
2887,42.0,0.0,480.0,3.0,0.0
2888,64.0,0.0,480.0,1.0,0.0
2889,73.0,240.0,150.0,0.0,0.0
2890,70.0,84.0,150.0,0.0,0.0
2891,63.0,0.0,240.0,1.0,0.0
2892,71.0,0.0,240.0,0.0,0.0
2893,47.0,192.0,240.0,3.0,0.0
2894,59.0,240.0,180.0,3.0,0.0
2895,57.0,240.0,180.0,3.0,0.0
2896,56.0,288.0,180.0,3.0,0.0
2897,66.0,120.0,240.0,0.0,0.0
2898,54.0,0.0,240.0,3.0,0.0
2899,56.0,120.0,120.0,3.0,0.0
2900,68.0,0.0,120.0,0.0,0.0
2901,66.0,120.0,120.0,0.0,0.0
2902,54.0,0.0,120.0,3.0,0.0
2903,51.0,240.0,120.0,3.0,0.0
2904,63.0,0.0,120.0,0.0,0.0
2905,53.0,0.0,120.0,3.0,0.0
2906,65.0,600.0,120.0,0.0,0.0
2907,66.0,0.0,480.0,0.0,0.0
2908,54.0,360.0,480.0,3.0,0.0
2909,54.0,120.0,360.0,0.0,0.0
2910,42.0,0.0,360.0,3.0,0.0
2911,58.0,0.0,60.0,0.0,0.0
2912,46.0,120.0,60.0,3.0,0.0
2913,56.0,0.0,120.0,0.0,0.0
2914,44.0,240.0,120.0,3.0,0.0
2915,42.0,240.0,120.0,3.0,0.0
2916,54.0,0.0,120.0,0.0,0.0
2917,56.0,240.0,120.0,0.0,0.0
2918,44.0,0.0,120.0,3.0,0.0
2919,46.0,600.0,120.0,3.0,0.0
2920,58.0,0.0,120.0,0.0,0.0
2921,47.0,0.0,480.0,3.0,0.0
2922,59.0,360.0,480.0,0.0,0.0
2923,47.0,372.0,360.0,0.0,0.0
2924,35.0,0.0,360.0,3.0,0.0
2925,78.0,108.0,240.0,0.0,0.0
2926,54.0,240.0,480.0,3.0,0.0
2927,80.0,120.0,120.0,0.0,0.0
2928,78.0,0.0,120.0,0.0,0.0
2929,75.0,240.0,240.0,0.0,0.0
2930,71.0,0.0,480.0,1.0,0.0
2931,56.0,480.0,480.0,2.0,0.0
2932,49.0,0.0,480.0,3.0,0.0
2933,77.0,0.0,240.0,0.0,0.0
2934,54.0,480.0,480.0,3.0,0.0
2935,78.0,0.0,480.0,0.0,0.0
2936,70.0,0.0,480.0,1.0,0.0
2937,47.0,0.0,480.0,3.0,0.0
2938,69.0,240.0,480.0,1.0,0.0
2939,54.0,0.0,480.0,2.0,0.0
2940,75.0,0.0,480.0,0.0,0.0
2941,40.0,156.0,480.0,3.0,0.0
2942,78.0,156.0,240.0,0.0,0.0
2943,52.0,0.0,480.0,2.0,0.0
2944,68.0,0.0,480.0,1.0,0.0
2945,76.0,84.0,150.0,0.0,0.0
2946,73.0,240.0,150.0,0.0,0.0
2947,64.0,0.0,480.0,1.0,0.0
2948,42.0,0.0,480.0,3.0,0.0
2949,54.0,240.0,480.0,2.0,0.0
2950,70.0,84.0,150.0,0.0,0.0
2951,63.0,0.0,240.0,1.0,0.0
2952,71.0,480.0,240.0,0.0,0.0
2953,47.0,0.0,240.0,3.0,0.0
2954,59.0,120.0,240.0,0.0,0.0
2955,61.0,120.0,120.0,0.0,0.0
2956,59.0,240.0,120.0,0.0,0.0
2957,63.0,120.0,240.0,0.0,0.0
2958,64.0,120.0,120.0,0.0,0.0
2959,63.0,240.0,120.0,0.0,0.0
2960,75.0,120.0,240.0,0.0,0.0
2961,76.0,120.0,120.0,0.0,0.0
2962,75.0,224.0,120.0,0.0,0.0
2963,56.0,16.0,210.0,3.0,0.0
2964,59.0,0.0,210.0,2.0,0.0
2965,68.0,0.0,240.0,0.0,0.0
2966,63.0,120.0,120.0,2.0,0.0
2967,70.0,104.0,120.0,0.0,0.0
2968,56.0,16.0,210.0,3.0,0.0
2969,59.0,0.0,210.0,2.0,0.0
2970,68.0,224.0,120.0,0.0,0.0
2971,63.0,0.0,120.0,2.0,0.0
2972,83.0,0.0,480.0,0.0,0.0
2973,56.0,16.0,210.0,3.0,0.0
2974,59.0,0.0,210.0,2.0,0.0
2975,63.0,224.0,120.0,2.0,0.0
2976,59.0,0.0,210.0,2.0,0.0
2977,56.0,16.0,210.0,3.0,0.0
2978,63.0,224.0,120.0,2.0,0.0
2979,61.0,0.0,210.0,2.0,0.0
2980,82.0,0.0,240.0,0.0,0.0
2981,56.0,16.0,210.0,3.0,0.0
2982,58.0,0.0,210.0,2.0,0.0
2983,63.0,224.0,120.0,2.0,0.0
2984,58.0,0.0,210.0,2.0,0.0
2985,85.0,224.0,240.0,0.0,0.0
2986,61.0,0.0,210.0,2.0,0.0
2987,56.0,16.0,210.0,3.0,0.0
2988,63.0,0.0,120.0,2.0,0.0
2989,61.0,0.0,210.0,2.0,0.0
2990,56.0,16.0,210.0,3.0,0.0
2991,82.0,224.0,240.0,0.0,0.0
2992,58.0,0.0,210.0,2.0,0.0
2993,63.0,0.0,120.0,2.0,0.0
2994,61.0,0.0,210.0,2.0,0.0
2995,56.0,16.0,210.0,3.0,0.0
2996,79.0,224.0,240.0,0.0,0.0
2997,58.0,0.0,210.0,2.0,0.0
2998,63.0,0.0,120.0,2.0,0.0
2999,59.0,0.0,210.0,2.0,0.0
3000,80.0,0.0,480.0,0.0,0.0
3001,56.0,16.0,210.0,3.0,0.0
3002,63.0,224.0,120.0,2.0,0.0
3003,56.0,16.0,210.0,3.0,0.0
3004,59.0,0.0,210.0,2.0,0.0
3005,63.0,192.0,120.0,2.0,0.0
3006,75.0,32.0,180.0,0.0,0.0
3007,59.0,16.0,210.0,2.0,0.0
3008,56.0,0.0,210.0,3.0,0.0
3009,63.0,224.0,120.0,2.0,0.0
3010,59.0,0.0,210.0,2.0,0.0
3011,56.0,16.0,210.0,3.0,0.0
3012,75.0,0.0,240.0,0.0,0.0
3013,63.0,120.0,120.0,2.0,0.0
3014,64.0,120.0,120.0,3.0,0.0
3015,76.0,0.0,120.0,0.0,0.0
3016,75.0,0.0,120.0,0.0,0.0
3017,63.0,120.0,120.0,3.0,0.0
3018,73.0,0.0,120.0,0.0,0.0
3019,61.0,120.0,120.0,3.0,0.0
3020,71.0,0.0,120.0,0.0,0.0
3021,59.0,120.0,120.0,3.0,0.0
3022,58.0,0.0,120.0,3.0,0.0
3023,70.0,120.0,120.0,0.0,0.0
3024,59.0,0.0,120.0,3.0,0.0
3025,71.0,120.0,120.0,0.0,0.0
3026,58.0,0.0,120.0,3.0,0.0
3027,70.0,120.0,120.0,0.0,0.0
3028,68.0,0.0,120.0,0.0,0.0
3029,56.0,120.0,120.0,3.0,0.0
3030,55.0,120.0,120.0,3.0,0.0
3031,67.0,0.0,120.0,0.0,0.0
3032,56.0,0.0,120.0,3.0,0.0
3033,68.0,120.0,120.0,0.0,0.0
3034,58.0,120.0,120.0,3.0,0.0
3035,70.0,0.0,120.0,0.0,0.0
3036,67.0,120.0,120.0,0.0,0.0
3037,55.0,0.0,120.0,3.0,0.0
3038,63.0,240.0,120.0,0.0,0.0
3039,51.0,0.0,120.0,3.0,0.0
3040,51.0,0.0,120.0,3.0,0.0
3041,63.0,0.0,120.0,0.0,0.0
3042,67.0,0.0,120.0,0.0,0.0
3043,70.0,240.0,120.0,0.0,0.0
3044,51.0,0.0,120.0,3.0,0.0
3045,63.0,0.0,120.0,0.0,0.0
3046,68.0,0.0,120.0,0.0,0.0
3047,71.0,240.0,120.0,0.0,0.0
3048,51.0,0.0,120.0,3.0,0.0
3049,71.0,240.0,120.0,0.0,0.0
3050,68.0,0.0,120.0,0.0,0.0
3051,51.0,240.0,120.0,3.0,0.0
3052,71.0,0.0,120.0,0.0,0.0
3053,68.0,0.0,120.0,0.0,0.0
3054,71.0,0.0,120.0,0.0,0.0
3055,51.0,360.0,120.0,3.0,0.0
3056,63.0,0.0,120.0,0.0,0.0
3057,68.0,0.0,120.0,0.0,0.0
3058,51.0,480.0,240.0,3.0,0.0
3059,70.0,0.0,240.0,0.0,0.0
3060,67.0,0.0,240.0,0.0,0.0
3061,63.0,0.0,240.0,0.0,0.0
3062,63.0,120.0,240.0,0.0,0.0
3063,64.0,120.0,120.0,0.0,0.0
3064,63.0,240.0,120.0,0.0,0.0
3065,75.0,120.0,240.0,0.0,0.0
3066,76.0,120.0,120.0,0.0,0.0
3067,75.0,480.0,120.0,0.0,0.0
3068,87.0,720.0,480.0,0.0,0.0
3069,61.0,120.0,240.0,0.0,0.0
3070,63.0,120.0,120.0,0.0,0.0
3071,61.0,240.0,120.0,0.0,0.0
3072,76.0,120.0,240.0,0.0,0.0
3073,78.0,120.0,120.0,0.0,0.0
3074,76.0,480.0,120.0,0.0,0.0
3075,88.0,720.0,480.0,0.0,0.0
3076,58.0,120.0,240.0,0.0,0.0
3077,59.0,120.0,120.0,0.0,0.0
3078,58.0,240.0,120.0,0.0,0.0
3079,76.0,120.0,240.0,0.0,0.0
3080,78.0,120.0,120.0,0.0,0.0
3081,76.0,240.0,120.0,0.0,0.0
3082,85.0,120.0,240.0,0.0,0.0
3083,87.0,120.0,120.0,0.0,0.0
3084,85.0,240.0,120.0,0.0,0.0
3085,76.0,120.0,240.0,0.0,0.0
3086,78.0,120.0,120.0,0.0,0.0
3087,76.0,240.0,120.0,0.0,0.0
3088,85.0,120.0,240.0,0.0,0.0
3089,87.0,120.0,120.0,0.0,0.0
3090,85.0,240.0,120.0,0.0,0.0
3091,76.0,120.0,240.0,0.0,0.0
3092,78.0,120.0,120.0,0.0,0.0
3093,76.0,240.0,120.0,0.0,0.0
3094,82.0,120.0,240.0,0.0,0.0
3095,83.0,120.0,120.0,0.0,0.0
3096,82.0,240.0,120.0,0.0,0.0
3097,76.0,120.0,240.0,0.0,0.0
3098,78.0,120.0,120.0,0.0,0.0
3099,76.0,240.0,120.0,0.0,0.0
3100,82.0,120.0,240.0,0.0,0.0
3101,83.0,120.0,120.0,0.0,0.0
3102,82.0,240.0,120.0,0.0,0.0
3103,76.0,120.0,240.0,0.0,0.0
3104,78.0,120.0,120.0,0.0,0.0
3105,76.0,240.0,120.0,0.0,0.0
3106,78.0,120.0,240.0,0.0,0.0
3107,80.0,120.0,120.0,0.0,0.0
3108,78.0,240.0,120.0,0.0,0.0
3109,77.0,120.0,240.0,0.0,0.0
3110,78.0,120.0,120.0,0.0,0.0
3111,77.0,240.0,120.0,0.0,0.0
3112,78.0,120.0,240.0,0.0,0.0
3113,80.0,120.0,120.0,0.0,0.0
3114,78.0,240.0,120.0,0.0,0.0
3115,76.0,120.0,240.0,0.0,0.0
3116,78.0,120.0,120.0,0.0,0.0
3117,76.0,240.0,120.0,0.0,0.0
3118,78.0,120.0,240.0,0.0,0.0
3119,80.0,120.0,120.0,0.0,0.0
3120,78.0,240.0,120.0,0.0,0.0
3121,59.0,10.0,480.0,3.0,0.0
3122,75.0,80.0,240.0,0.0,0.0
3123,63.0,40.0,150.0,2.0,0.0
3124,76.0,110.0,120.0,0.0,0.0
3125,66.0,240.0,150.0,2.0,0.0
3126,75.0,0.0,120.0,0.0,0.0
3127,58.0,10.0,480.0,3.0,0.0
3128,78.0,80.0,240.0,0.0,0.0
3129,63.0,40.0,150.0,2.0,0.0
3130,80.0,110.0,120.0,0.0,0.0
3131,61.0,240.0,150.0,2.0,0.0
3132,78.0,0.0,120.0,0.0,0.0
3133,71.0,80.0,240.0,0.0,0.0
3134,56.0,10.0,480.0,3.0,0.0
3135,59.0,40.0,150.0,2.0,0.0
3136,73.0,110.0,120.0,0.0,0.0
3137,63.0,0.0,150.0,2.0,0.0
3138,71.0,320.0,120.0,0.0,0.0
3139,75.0,0.0,480.0,0.0,0.0
3140,54.0,20.0,450.0,3.0,0.0
3141,58.0,140.0,150.0,2.0,0.0
3142,63.0,240.0,150.0,2.0,0.0
3143,68.0,80.0,240.0,0.0,0.0
3144,52.0,20.0,450.0,3.0,0.0
3145,56.0,40.0,150.0,2.0,0.0
3146,70.0,100.0,120.0,0.0,0.0
3147,59.0,240.0,150.0,2.0,0.0
3148,68.0,0.0,120.0,0.0,0.0
3149,71.0,80.0,240.0,0.0,0.0
3150,51.0,20.0,450.0,3.0,0.0
3151,54.0,40.0,150.0,2.0,0.0
3152,73.0,100.0,120.0,0.0,0.0
3153,59.0,0.0,150.0,2.0,0.0
3154,71.0,240.0,120.0,0.0,0.0
3155,73.0,80.0,240.0,0.0,0.0
3156,49.0,10.0,480.0,3.0,0.0
3157,54.0,40.0,150.0,2.0,0.0
3158,75.0,110.0,120.0,0.0,0.0
3159,58.0,0.0,150.0,2.0,0.0
3160,73.0,320.0,120.0,0.0,0.0
3161,47.0,10.0,480.0,3.0,0.0
3162,54.0,150.0,150.0,2.0,0.0
3163,59.0,0.0,150.0,2.0,0.0
3164,75.0,240.0,15.0,0.0,0.0
3165,59.0,10.0,480.0,3.0,0.0
3166,63.0,40.0,150.0,2.0,0.0
3167,76.0,110.0,120.0,0.0,0.0
3168,66.0,0.0,150.0,2.0,0.0
3169,75.0,240.0,120.0,0.0,0.0
3170,58.0,10.0,480.0,3.0,0.0
3171,78.0,80.0,240.0,0.0,0.0
3172,61.0,40.0,150.0,2.0,0.0
3173,80.0,110.0,120.0,0.0,0.0
3174,66.0,0.0,150.0,2.0,0.0
3175,78.0,240.0,120.0,0.0,0.0
3176,83.0,80.0,240.0,0.0,0.0
3177,56.0,10.0,480.0,3.0,0.0
3178,61.0,40.0,150.0,2.0,0.0
3179,85.0,110.0,120.0,0.0,0.0
3180,65.0,0.0,150.0,2.0,0.0
3181,83.0,320.0,120.0,0.0,0.0
3182,82.0,0.0,480.0,0.0,0.0
3183,54.0,10.0,480.0,3.0,0.0
3184,61.0,150.0,150.0,2.0,0.0
3185,66.0,240.0,150.0,2.0,0.0
3186,80.0,80.0,240.0,0.0,0.0
3187,59.0,10.0,480.0,3.0,0.0
3188,63.0,40.0,150.0,2.0,0.0
3189,82.0,110.0,120.0,0.0,0.0
3190,68.0,0.0,150.0,2.0,0.0
3191,80.0,60.0,120.0,0.0,0.0
3192,77.0,60.0,60.0,0.0,0.0
3193,61.0,10.0,480.0,3.0,0.0
3194,78.0,112.0,60.0,0.0,0.0
3195,77.0,88.0,120.0,0.0,0.0
3196,68.0,40.0,150.0,2.0,0.0
3197,75.0,110.0,120.0,0.0,0.0
3198,71.0,0.0,150.0,2.0,0.0
3199,77.0,180.0,120.0,0.0,0.0
3200,66.0,60.0,180.0,3.0,0.0
3201,78.0,80.0,240.0,0.0,0.0
3202,73.0,160.0,150.0,3.0,0.0
3203,70.0,160.0,150.0,3.0,0.0
3204,66.0,160.0,150.0,3.0,0.0
3205,61.0,160.0,150.0,3.0,0.0
3206,58.0,240.0,150.0,3.0,0.0
3207,54.0,0.0,240.0,3.0,0.0
3208,66.0,120.0,240.0,0.0,0.0
3209,56.0,120.0,120.0,3.0,0.0
3210,68.0,0.0,120.0,0.0,0.0
3211,66.0,120.0,120.0,0.0,0.0
3212,54.0,0.0,120.0,3.0,0.0
3213,51.0,0.0,120.0,3.0,0.0
3214,63.0,240.0,120.0,0.0,0.0
3215,53.0,0.0,120.0,3.0,0.0
3216,65.0,600.0,120.0,0.0,0.0
3217,54.0,0.0,480.0,3.0,0.0
3218,66.0,360.0,480.0,0.0,0.0
3219,42.0,120.0,360.0,3.0,0.0
3220,54.0,0.0,360.0,0.0,0.0
3221,46.0,120.0,60.0,3.0,0.0
3222,58.0,0.0,60.0,0.0,0.0
3223,44.0,240.0,120.0,3.0,0.0
3224,56.0,0.0,120.0,0.0,0.0
3225,54.0,240.0,120.0,0.0,0.0
3226,42.0,0.0,120.0,3.0,0.0
3227,44.0,0.0,120.0,3.0,0.0
3228,56.0,240.0,120.0,0.0,0.0
3229,58.0,600.0,120.0,0.0,0.0
3230,46.0,0.0,120.0,3.0,0.0
3231,47.0,360.0,480.0,3.0,0.0
3232,59.0,0.0,480.0,0.0,0.0
3233,47.0,0.0,360.0,0.0,0.0
3234,35.0,360.0,360.0,3.0,0.0
3235,78.0,80.0,240.0,0.0,0.0
3236,54.0,10.0,480.0,3.0,0.0
3237,58.0,40.0,150.0,2.0,0.0
3238,80.0,110.0,120.0,0.0,0.0
3239,61.0,0.0,150.0,2.0,0.0
3240,78.0,120.0,120.0,0.0,0.0
3241,56.0,10.0,480.0,3.0,0.0
3242,75.0,200.0,120.0,0.0,0.0
3243,59.0,40.0,150.0,2.0,0.0
3244,77.0,110.0,120.0,0.0,0.0
3245,61.0,320.0,150.0,2.0,0.0
3246,78.0,0.0,480.0,0.0,0.0
3247,54.0,10.0,480.0,3.0,0.0
3248,58.0,150.0,150.0,2.0,0.0
3249,61.0,320.0,150.0,2.0,0.0
3250,47.0,10.0,480.0,3.0,0.0
3251,75.0,110.0,360.0,0.0,0.0
3252,57.0,40.0,150.0,2.0,0.0
3253,59.0,240.0,150.0,2.0,0.0
3254,78.0,80.0,240.0,0.0,0.0
3255,52.0,10.0,480.0,3.0,0.0
3256,56.0,76.0,150.0,2.0,0.0
3257,76.0,74.0,150.0,0.0,0.0
3258,61.0,156.0,150.0,2.0,0.0
3259,54.0,10.0,480.0,3.0,0.0
3260,73.0,164.0,150.0,0.0,0.0
3261,58.0,76.0,150.0,2.0,0.0
3262,70.0,74.0,150.0,0.0,0.0
3263,61.0,320.0,150.0,2.0,0.0
3264,47.0,10.0,480.0,3.0,0.0
3265,71.0,240.0,480.0,0.0,0.0
3266,54.0,150.0,150.0,2.0,0.0
3267,59.0,0.0,150.0,2.0,0.0
3268,59.0,120.0,120.0,0.0,0.0
3269,47.0,0.0,120.0,3.0,0.0
3270,61.0,120.0,120.0,0.0,0.0
3271,49.0,0.0,120.0,3.0,0.0
3272,51.0,0.0,120.0,3.0,0.0
3273,63.0,120.0,120.0,0.0,0.0
3274,52.0,0.0,120.0,3.0,0.0
3275,64.0,120.0,120.0,0.0,0.0
3276,59.0,120.0,120.0,0.0,0.0
3277,47.0,0.0,120.0,3.0,0.0
3278,61.0,0.0,120.0,0.0,0.0
3279,49.0,120.0,120.0,3.0,0.0
3280,63.0,120.0,120.0,0.0,0.0
3281,51.0,0.0,120.0,3.0,0.0
3282,52.0,0.0,120.0,3.0,0.0
3283,64.0,120.0,120.0,0.0,0.0
3284,54.0,0.0,120.0,3.0,0.0
3285,66.0,120.0,120.0,0.0,0.0
3286,56.0,120.0,120.0,3.0,0.0
3287,68.0,0.0,120.0,0.0,0.0
3288,69.0,0.0,120.0,0.0,0.0
3289,57.0,120.0,120.0,3.0,0.0
3290,71.0,240.0,120.0,0.0,0.0
3291,56.0,0.0,120.0,3.0,0.0
3292,59.0,0.0,120.0,3.0,0.0
3293,52.0,0.0,120.0,3.0,0.0
3294,68.0,0.0,120.0,0.0,0.0
3295,52.0,0.0,120.0,3.0,0.0
3296,56.0,240.0,120.0,3.0,0.0
3297,59.0,0.0,120.0,3.0,0.0
3298,52.0,0.0,120.0,3.0,0.0
3299,59.0,0.0,120.0,3.0,0.0
3300,56.0,0.0,120.0,3.0,0.0
3301,76.0,240.0,120.0,0.0,0.0
3302,56.0,0.0,120.0,3.0,0.0
3303,71.0,0.0,120.0,0.0,0.0
3304,52.0,240.0,120.0,3.0,0.0
3305,59.0,0.0,120.0,3.0,0.0
3306,64.0,0.0,120.0,3.0,0.0
3307,52.0,0.0,120.0,3.0,0.0
3308,59.0,0.0,120.0,3.0,0.0
3309,56.0,240.0,120.0,3.0,0.0
3310,80.0,0.0,120.0,0.0,0.0
3311,76.0,0.0,120.0,0.0,0.0
3312,56.0,0.0,120.0,3.0,0.0
3313,59.0,0.0,120.0,3.0,0.0
3314,52.0,240.0,120.0,3.0,0.0
3315,64.0,0.0,120.0,3.0,0.0
3316,52.0,240.0,120.0,3.0,0.0
3317,59.0,0.0,120.0,3.0,0.0
3318,83.0,0.0,120.0,0.0,0.0
3319,56.0,0.0,120.0,3.0,0.0
3320,64.0,0.0,120.0,3.0,0.0
3321,56.0,0.0,120.0,3.0,0.0
3322,59.0,0.0,120.0,3.0,0.0
3323,64.0,0.0,120.0,3.0,0.0
3324,80.0,0.0,120.0,0.0,0.0
3325,52.0,720.0,120.0,3.0,0.0
3326,57.0,0.0,600.0,3.0,0.0
3327,61.0,0.0,600.0,3.0,0.0
3328,64.0,0.0,600.0,3.0,0.0
3329,85.0,0.0,600.0,0.0,0.0
3330,73.0,120.0,600.0,1.0,0.0
3331,64.0,120.0,120.0,0.0,0.0
3332,52.0,0.0,120.0,3.0,0.0
3333,66.0,0.0,120.0,0.0,0.0
3334,54.0,120.0,120.0,3.0,0.0
3335,68.0,120.0,120.0,0.0,0.0
3336,56.0,0.0,120.0,3.0,0.0
3337,57.0,120.0,120.0,3.0,0.0
3338,69.0,0.0,120.0,0.0,0.0
3339,52.0,0.0,120.0,3.0,0.0
3340,64.0,120.0,120.0,0.0,0.0
3341,54.0,120.0,120.0,3.0,0.0
3342,66.0,0.0,120.0,0.0,0.0
3343,68.0,120.0,120.0,0.0,0.0
3344,56.0,0.0,120.0,3.0,0.0
3345,57.0,120.0,120.0,3.0,0.0
3346,69.0,0.0,120.0,0.0,0.0
3347,71.0,0.0,120.0,0.0,0.0
3348,59.0,120.0,120.0,3.0,0.0
3349,73.0,0.0,120.0,0.0,0.0
3350,61.0,120.0,120.0,3.0,0.0
3351,74.0,0.0,120.0,0.0,0.0
3352,62.0,120.0,120.0,3.0,0.0
3353,57.0,0.0,120.0,3.0,0.0
3354,76.0,240.0,120.0,0.0,0.0
3355,61.0,0.0,120.0,3.0,0.0
3356,64.0,0.0,120.0,3.0,0.0
3357,69.0,0.0,120.0,3.0,0.0
3358,57.0,240.0,120.0,3.0,0.0
3359,64.0,0.0,120.0,3.0,0.0
3360,73.0,0.0,120.0,0.0,0.0
3361,61.0,0.0,120.0,3.0,0.0
3362,69.0,0.0,120.0,3.0,0.0
3363,57.0,0.0,120.0,3.0,0.0
3364,64.0,0.0,120.0,3.0,0.0
3365,81.0,0.0,120.0,0.0,0.0
3366,61.0,240.0,120.0,3.0,0.0
3367,61.0,240.0,120.0,3.0,0.0
3368,69.0,0.0,120.0,3.0,0.0
3369,57.0,0.0,120.0,3.0,0.0
3370,76.0,0.0,120.0,0.0,0.0
3371,64.0,0.0,120.0,3.0,0.0
3372,61.0,0.0,120.0,3.0,0.0
3373,85.0,0.0,120.0,0.0,0.0
3374,64.0,0.0,120.0,3.0,0.0
3375,69.0,240.0,120.0,3.0,0.0
3376,57.0,0.0,120.0,3.0,0.0
3377,69.0,240.0,120.0,3.0,0.0
3378,64.0,0.0,120.0,3.0,0.0
3379,81.0,0.0,120.0,0.0,0.0
3380,57.0,0.0,120.0,3.0,0.0
3381,61.0,0.0,120.0,3.0,0.0
3382,93.0,0.0,120.0,0.0,0.0
3383,59.0,240.0,120.0,3.0,0.0
3384,66.0,0.0,120.0,3.0,0.0
3385,63.0,0.0,120.0,3.0,0.0
3386,59.0,0.0,120.0,3.0,0.0
3387,66.0,720.0,120.0,3.0,0.0
3388,63.0,0.0,120.0,3.0,0.0
3389,87.0,0.0,120.0,0.0,0.0
3390,52.0,120.0,600.0,3.0,0.0
3391,88.0,0.0,600.0,0.0,0.0
3392,64.0,0.0,600.0,3.0,0.0
3393,76.0,0.0,600.0,1.0,0.0
3394,59.0,120.0,120.0,0.0,0.0
3395,47.0,0.0,120.0,3.0,0.0
3396,49.0,0.0,120.0,3.0,0.0
3397,61.0,120.0,120.0,0.0,0.0
3398,63.0,0.0,120.0,0.0,0.0
3399,51.0,120.0,120.0,3.0,0.0
3400,52.0,0.0,120.0,3.0,0.0
3401,64.0,120.0,120.0,0.0,0.0
3402,47.0,0.0,120.0,3.0,0.0
3403,59.0,120.0,120.0,0.0,0.0
3404,49.0,0.0,120.0,3.0,0.0
3405,61.0,120.0,120.0,0.0,0.0
3406,51.0,0.0,120.0,3.0,0.0
3407,63.0,120.0,120.0,0.0,0.0
3408,64.0,0.0,120.0,0.0,0.0
3409,52.0,120.0,120.0,3.0,0.0
3410,66.0,0.0,120.0,0.0,0.0
3411,54.0,120.0,120.0,3.0,0.0
3412,56.0,0.0,120.0,3.0,0.0
3413,68.0,120.0,120.0,0.0,0.0
3414,57.0,120.0,120.0,3.0,0.0
3415,69.0,0.0,120.0,0.0,0.0
3416,71.0,0.0,120.0,0.0,0.0
3417,52.0,120.0,120.0,3.0,0.0
3418,56.0,0.0,120.0,3.0,0.0
3419,59.0,0.0,120.0,3.0,0.0
3420,68.0,120.0,120.0,0.0,0.0
3421,64.0,120.0,120.0,0.0,0.0
3422,52.0,0.0,120.0,3.0,0.0
3423,59.0,0.0,120.0,3.0,0.0
3424,56.0,0.0,120.0,3.0,0.0
3425,71.0,120.0,120.0,0.0,0.0
3426,56.0,0.0,120.0,3.0,0.0
3427,76.0,120.0,120.0,0.0,0.0
3428,52.0,0.0,120.0,3.0,0.0
3429,59.0,0.0,120.0,3.0,0.0
3430,71.0,120.0,120.0,0.0,0.0
3431,59.0,0.0,120.0,3.0,0.0
3432,52.0,0.0,120.0,3.0,0.0
3433,56.0,120.0,120.0,3.0,0.0
3434,68.0,0.0,120.0,0.0,0.0
3435,76.0,120.0,120.0,0.0,0.0
3436,56.0,0.0,120.0,3.0,0.0
3437,64.0,120.0,120.0,3.0,0.0
3438,59.0,0.0,120.0,3.0,0.0
3439,80.0,0.0,120.0,0.0,0.0
3440,52.0,0.0,120.0,3.0,0.0
3441,76.0,120.0,120.0,0.0,0.0
3442,52.0,0.0,120.0,3.0,0.0
3443,64.0,120.0,120.0,3.0,0.0
3444,56.0,0.0,120.0,3.0,0.0
3445,59.0,0.0,120.0,3.0,0.0
3446,71.0,0.0,120.0,0.0,0.0
3447,80.0,120.0,120.0,0.0,0.0
3448,56.0,0.0,120.0,3.0,0.0
3449,64.0,0.0,120.0,3.0,0.0
3450,52.0,120.0,120.0,3.0,0.0
3451,59.0,0.0,120.0,3.0,0.0
3452,83.0,0.0,120.0,0.0,0.0
3453,80.0,120.0,120.0,0.0,0.0
3454,52.0,0.0,120.0,3.0,0.0
3455,56.0,0.0,120.0,3.0,0.0
3456,76.0,120.0,120.0,0.0,0.0
3457,64.0,0.0,120.0,3.0,0.0
3458,59.0,0.0,120.0,3.0,0.0
3459,83.0,600.0,120.0,0.0,0.0
3460,85.0,0.0,600.0,0.0,0.0
3461,57.0,120.0,600.0,3.0,0.0
3462,64.0,0.0,600.0,3.0,0.0
3463,61.0,0.0,600.0,3.0,0.0
3464,73.0,0.0,600.0,1.0,0.0
3465,81.0,0.0,600.0,1.0,0.0
3466,76.0,0.0,600.0,1.0,0.0
3467,52.0,120.0,120.0,3.0,0.0
3468,64.0,0.0,120.0,0.0,0.0
3469,54.0,0.0,120.0,3.0,0.0
3470,66.0,120.0,120.0,0.0,0.0
3471,56.0,0.0,120.0,3.0,0.0
3472,68.0,120.0,120.0,0.0,0.0
3473,69.0,120.0,120.0,0.0,0.0
3474,57.0,0.0,120.0,3.0,0.0
3475,64.0,0.0,120.0,0.0,0.0
3476,52.0,120.0,120.0,3.0,0.0
3477,54.0,0.0,120.0,3.0,0.0
3478,66.0,120.0,120.0,0.0,0.0
3479,56.0,120.0,120.0,3.0,0.0
3480,68.0,0.0,120.0,0.0,0.0
3481,69.0,0.0,120.0,0.0,0.0
3482,57.0,120.0,120.0,3.0,0.0
3483,59.0,120.0,120.0,3.0,0.0
3484,71.0,0.0,120.0,0.0,0.0
3485,73.0,120.0,120.0,0.0,0.0
3486,61.0,0.0,120.0,3.0,0.0
3487,74.0,120.0,120.0,0.0,0.0
3488,62.0,0.0,120.0,3.0,0.0
3489,61.0,0.0,120.0,3.0,0.0
3490,64.0,120.0,120.0,3.0,0.0
3491,57.0,0.0,120.0,3.0,0.0
3492,76.0,0.0,120.0,0.0,0.0
3493,73.0,120.0,120.0,0.0,0.0
3494,61.0,0.0,120.0,3.0,0.0
3495,69.0,0.0,120.0,0.0,0.0
3496,69.0,0.0,120.0,3.0,0.0
3497,57.0,120.0,120.0,3.0,0.0
3498,64.0,0.0,120.0,3.0,0.0
3499,73.0,120.0,120.0,0.0,0.0
3500,57.0,0.0,120.0,3.0,0.0
3501,81.0,0.0,120.0,0.0,0.0
3502,61.0,120.0,120.0,3.0,0.0
3503,64.0,0.0,120.0,3.0,0.0
3504,69.0,0.0,120.0,3.0,0.0
3505,76.0,120.0,120.0,0.0,0.0
3506,61.0,0.0,120.0,3.0,0.0
3507,73.0,0.0,120.0,0.0,0.0
3508,69.0,120.0,120.0,3.0,0.0
3509,57.0,0.0,120.0,3.0,0.0
3510,64.0,0.0,120.0,3.0,0.0
3511,81.0,120.0,120.0,0.0,0.0
3512,57.0,0.0,120.0,3.0,0.0
3513,61.0,0.0,120.0,3.0,0.0
3514,69.0,120.0,120.0,3.0,0.0
3515,64.0,0.0,120.0,3.0,0.0
3516,85.0,0.0,120.0,0.0,0.0
3517,81.0,120.0,120.0,0.0,0.0
3518,76.0,0.0,120.0,0.0,0.0
3519,64.0,0.0,120.0,3.0,0.0
3520,69.0,0.0,120.0,3.0,0.0
3521,57.0,120.0,120.0,3.0,0.0
3522,61.0,0.0,120.0,3.0,0.0
3523,85.0,120.0,120.0,0.0,0.0
3524,81.0,120.0,120.0,0.0,0.0
3525,66.0,0.0,120.0,3.0,0.0
3526,63.0,0.0,120.0,3.0,0.0
3527,59.0,0.0,120.0,3.0,0.0
3528,93.0,120.0,120.0,0.0,0.0
3529,63.0,0.0,120.0,3.0,0.0
3530,66.0,0.0,120.0,3.0,0.0
3531,59.0,0.0,120.0,3.0,0.0
3532,90.0,120.0,120.0,0.0,0.0
3533,87.0,240.0,120.0,0.0,0.0
3534,88.0,1040.0,240.0,0.0,0.0
3535,52.0,0.0,240.0,3.0,0.0
3536,64.0,0.0,240.0,3.0,0.0
3537,64.0,320.0,480.0,3.0,0.0
3538,80.0,120.0,360.0,0.0,0.0
3539,68.0,40.0,150.0,2.0,0.0
3540,81.0,0.0,120.0,0.0,0.0
3541,71.0,0.0,150.0,2.0,0.0
3542,80.0,0.0,120.0,0.0,0.0
3543,63.0,0.0,480.0,3.0,0.0
3544,66.0,40.0,150.0,2.0,0.0
3545,85.0,0.0,120.0,0.0,0.0
3546,71.0,0.0,150.0,2.0,0.0
3547,83.0,120.0,15.0,0.0,0.0
3548,64.0,0.0,480.0,3.0,0.0
3549,80.0,120.0,360.0,0.0,0.0
3550,68.0,40.0,150.0,2.0,0.0
3551,81.0,0.0,120.0,0.0,0.0
3552,71.0,0.0,150.0,2.0,0.0
3553,80.0,320.0,120.0,0.0,0.0
3554,63.0,320.0,480.0,3.0,0.0
3555,66.0,40.0,150.0,2.0,0.0
3556,85.0,0.0,120.0,0.0,0.0
3557,71.0,0.0,150.0,2.0,0.0
3558,83.0,120.0,15.0,0.0,0.0
3559,61.0,0.0,480.0,3.0,0.0
3560,64.0,40.0,150.0,2.0,0.0
3561,78.0,120.0,120.0,0.0,0.0
3562,68.0,320.0,150.0,2.0,0.0
3563,76.0,0.0,15.0,0.0,0.0
3564,60.0,20.0,450.0,3.0,0.0
3565,63.0,40.0,150.0,2.0,0.0
3566,81.0,0.0,120.0,0.0,0.0
3567,68.0,240.0,150.0,2.0,0.0
3568,80.0,100.0,15.0,0.0,0.0
3569,61.0,20.0,450.0,3.0,0.0
3570,76.0,80.0,240.0,0.0,0.0
3571,64.0,40.0,150.0,2.0,0.0
3572,78.0,100.0,120.0,0.0,0.0
3573,68.0,0.0,150.0,2.0,0.0
3574,76.0,240.0,120.0,0.0,0.0
3575,60.0,20.0,450.0,3.0,0.0
3576,80.0,80.0,240.0,0.0,0.0
3577,63.0,40.0,150.0,2.0,0.0
3578,81.0,100.0,120.0,0.0,0.0
3579,68.0,0.0,150.0,2.0,0.0
3580,80.0,240.0,120.0,0.0,0.0
3581,76.0,80.0,240.0,0.0,0.0
3582,61.0,20.0,450.0,3.0,0.0
3583,64.0,40.0,150.0,2.0,0.0
3584,78.0,100.0,120.0,0.0,0.0
3585,68.0,0.0,150.0,2.0,0.0
3586,76.0,240.0,120.0,0.0,0.0
3587,78.0,80.0,240.0,0.0,0.0
3588,58.0,20.0,450.0,3.0,0.0
3589,61.0,40.0,150.0,2.0,0.0
3590,80.0,100.0,120.0,0.0,0.0
3591,66.0,0.0,150.0,2.0,0.0
3592,78.0,240.0,120.0,0.0,0.0
3593,75.0,0.0,240.0,0.0,0.0
3594,59.0,10.0,480.0,3.0,0.0
3595,63.0,120.0,120.0,2.0,0.0
3596,76.0,110.0,120.0,0.0,0.0
3597,66.0,0.0,120.0,2.0,0.0
3598,63.0,240.0,120.0,2.0,0.0
3599,75.0,0.0,120.0,0.0,0.0
3600,58.0,10.0,480.0,3.0,0.0
3601,78.0,0.0,240.0,0.0,0.0
3602,61.0,120.0,120.0,2.0,0.0
3603,80.0,0.0,120.0,0.0,0.0
3604,66.0,110.0,120.0,2.0,0.0
3605,61.0,0.0,120.0,2.0,0.0
3606,78.0,240.0,120.0,0.0,0.0
3607,71.0,0.0,240.0,0.0,0.0
3608,56.0,10.0,480.0,3.0,0.0
3609,59.0,120.0,120.0,2.0,0.0
3610,63.0,0.0,120.0,2.0,0.0
3611,73.0,110.0,120.0,0.0,0.0
3612,71.0,0.0,120.0,0.0,0.0
3613,59.0,240.0,120.0,2.0,0.0
3614,75.0,240.0,480.0,0.0,0.0
3615,54.0,20.0,450.0,3.0,0.0
3616,58.0,120.0,120.0,2.0,0.0
3617,63.0,100.0,120.0,2.0,0.0
3618,58.0,0.0,120.0,2.0,0.0
3619,68.0,120.0,240.0,0.0,0.0
3620,52.0,30.0,450.0,3.0,0.0
3621,56.0,0.0,120.0,2.0,0.0
3622,70.0,90.0,120.0,0.0,0.0
3623,59.0,0.0,120.0,2.0,0.0
3624,56.0,0.0,120.0,2.0,0.0
3625,68.0,240.0,120.0,0.0,0.0
3626,71.0,0.0,240.0,0.0,0.0
3627,51.0,30.0,450.0,3.0,0.0
3628,54.0,120.0,120.0,2.0,0.0
3629,73.0,0.0,120.0,0.0,0.0
3630,59.0,90.0,120.0,2.0,0.0
3631,54.0,0.0,120.0,2.0,0.0
3632,71.0,240.0,120.0,0.0,0.0
3633,49.0,30.0,450.0,3.0,0.0
3634,73.0,120.0,240.0,0.0,0.0
3635,54.0,0.0,120.0,2.0,0.0
3636,58.0,90.0,120.0,2.0,0.0
3637,75.0,0.0,120.0,0.0,0.0
3638,54.0,0.0,120.0,2.0,0.0
3639,73.0,240.0,120.0,0.0,0.0
3640,75.0,0.0,480.0,0.0,0.0
3641,47.0,30.0,450.0,3.0,0.0
3642,54.0,120.0,120.0,2.0,0.0
3643,59.0,90.0,120.0,2.0,0.0
3644,54.0,240.0,120.0,2.0,0.0
3645,59.0,30.0,450.0,3.0,0.0
3646,75.0,0.0,240.0,0.0,0.0
3647,63.0,120.0,120.0,2.0,0.0
3648,76.0,90.0,120.0,0.0,0.0
3649,66.0,0.0,120.0,2.0,0.0
3650,63.0,240.0,120.0,2.0,0.0
3651,75.0,0.0,120.0,0.0,0.0
3652,58.0,30.0,450.0,3.0,0.0
3653,78.0,120.0,240.0,0.0,0.0
3654,61.0,0.0,120.0,2.0,0.0
3655,80.0,90.0,120.0,0.0,0.0
3656,66.0,0.0,120.0,2.0,0.0
3657,61.0,0.0,120.0,2.0,0.0
3658,78.0,240.0,120.0,0.0,0.0
3659,83.0,0.0,240.0,0.0,0.0
3660,56.0,30.0,450.0,3.0,0.0
3661,61.0,120.0,120.0,2.0,0.0
3662,85.0,0.0,120.0,0.0,0.0
3663,65.0,90.0,120.0,2.0,0.0
3664,83.0,0.0,120.0,0.0,0.0
3665,61.0,240.0,120.0,2.0,0.0
3666,54.0,30.0,450.0,3.0,0.0
3667,82.0,240.0,480.0,0.0,0.0
3668,61.0,120.0,120.0,2.0,0.0
3669,66.0,90.0,120.0,2.0,0.0
3670,61.0,0.0,120.0,2.0,0.0
3671,80.0,120.0,240.0,0.0,0.0
3672,59.0,0.0,480.0,3.0,0.0
3673,63.0,0.0,120.0,2.0,0.0
3674,82.0,0.0,120.0,0.0,0.0
3675,66.0,82.0,120.0,2.0,0.0
3676,80.0,38.0,90.0,0.0,0.0
3677,63.0,240.0,120.0,2.0,0.0
3678,78.0,0.0,60.0,0.0,0.0
3679,77.0,120.0,240.0,0.0,0.0
3680,61.0,0.0,480.0,3.0,0.0
3681,68.0,0.0,120.0,2.0,0.0
3682,75.0,120.0,120.0,0.0,0.0
3683,71.0,0.0,120.0,2.0,0.0
3684,68.0,0.0,120.0,2.0,0.0
3685,77.0,240.0,120.0,0.0,0.0
3686,54.0,0.0,240.0,3.0,0.0
3687,78.0,120.0,240.0,0.0,0.0
3688,58.0,0.0,120.0,3.0,0.0
3689,61.0,120.0,120.0,3.0,0.0
3690,66.0,120.0,120.0,3.0,0.0
3691,65.0,120.0,120.0,3.0,0.0
3692,66.0,120.0,120.0,3.0,0.0
3693,64.0,120.0,120.0,3.0,0.0
3694,61.0,240.0,120.0,3.0,0.0
3695,59.0,10.0,480.0,3.0,0.0
3696,66.0,120.0,120.0,2.0,0.0
3697,75.0,6.0,300.0,0.0,0.0
3698,63.0,104.0,120.0,2.0,0.0
3699,87.0,0.0,150.0,0.0,0.0
3700,66.0,240.0,120.0,2.0,0.0
3701,58.0,10.0,480.0,3.0,0.0
3702,66.0,120.0,120.0,2.0,0.0
3703,78.0,6.0,300.0,0.0,0.0
3704,61.0,104.0,120.0,2.0,0.0
3705,90.0,240.0,150.0,0.0,0.0
3706,66.0,0.0,120.0,2.0,0.0
3707,56.0,10.0,480.0,3.0,0.0
3708,63.0,120.0,120.0,2.0,0.0
3709,71.0,6.0,300.0,0.0,0.0
3710,59.0,104.0,120.0,2.0,0.0
3711,83.0,240.0,150.0,0.0,0.0
3712,63.0,0.0,120.0,2.0,0.0
3713,54.0,14.0,450.0,3.0,0.0
3714,63.0,120.0,120.0,2.0,0.0
3715,75.0,16.0,300.0,0.0,0.0
3716,59.0,90.0,120.0,2.0,0.0
3717,87.0,240.0,150.0,0.0,0.0
3718,63.0,0.0,120.0,2.0,0.0
3719,52.0,14.0,450.0,3.0,0.0
3720,59.0,120.0,120.0,2.0,0.0
3721,68.0,16.0,300.0,0.0,0.0
3722,56.0,90.0,120.0,2.0,0.0
3723,80.0,240.0,150.0,0.0,0.0
3724,59.0,0.0,120.0,2.0,0.0
3725,51.0,14.0,450.0,3.0,0.0
3726,59.0,120.0,120.0,2.0,0.0
3727,71.0,16.0,300.0,0.0,0.0
3728,54.0,90.0,120.0,2.0,0.0
3729,83.0,0.0,150.0,0.0,0.0
3730,59.0,240.0,120.0,2.0,0.0
3731,49.0,4.0,450.0,3.0,0.0
3732,58.0,120.0,120.0,2.0,0.0
3733,73.0,16.0,300.0,0.0,0.0
3734,54.0,100.0,120.0,2.0,0.0
3735,85.0,240.0,150.0,0.0,0.0
3736,58.0,0.0,120.0,2.0,0.0
3737,47.0,4.0,450.0,3.0,0.0
3738,59.0,120.0,120.0,2.0,0.0
3739,75.0,16.0,300.0,0.0,0.0
3740,54.0,100.0,120.0,2.0,0.0
3741,87.0,0.0,150.0,0.0,0.0
3742,59.0,240.0,120.0,2.0,0.0
3743,59.0,0.0,480.0,3.0,0.0
3744,66.0,120.0,120.0,2.0,0.0
3745,75.0,16.0,300.0,0.0,0.0
3746,63.0,104.0,120.0,2.0,0.0
3747,87.0,240.0,150.0,0.0,0.0
3748,66.0,0.0,120.0,2.0,0.0
3749,58.0,240.0,480.0,3.0,0.0
3750,66.0,120.0,120.0,2.0,0.0
3751,78.0,16.0,300.0,0.0,0.0
3752,61.0,104.0,120.0,2.0,0.0
3753,90.0,0.0,150.0,0.0,0.0
3754,66.0,0.0,120.0,2.0,0.0
3755,56.0,0.0,480.0,3.0,0.0
3756,65.0,120.0,120.0,2.0,0.0
3757,83.0,232.0,330.0,0.0,0.0
3758,59.0,120.0,120.0,2.0,0.0
3759,95.0,0.0,150.0,0.0,0.0
3760,65.0,8.0,120.0,2.0,0.0
3761,54.0,10.0,480.0,3.0,0.0
3762,66.0,120.0,120.0,2.0,0.0
3763,82.0,232.0,330.0,0.0,0.0
3764,61.0,110.0,120.0,2.0,0.0
3765,94.0,0.0,150.0,0.0,0.0
3766,66.0,8.0,120.0,2.0,0.0
3767,59.0,10.0,480.0,3.0,0.0
3768,68.0,120.0,120.0,2.0,0.0
3769,80.0,232.0,330.0,0.0,0.0
3770,63.0,110.0,120.0,2.0,0.0
3771,92.0,8.0,150.0,0.0,0.0
3772,68.0,0.0,120.0,2.0,0.0
3773,61.0,10.0,480.0,3.0,0.0
3774,71.0,120.0,120.0,2.0,0.0
3775,77.0,6.0,300.0,0.0,0.0
3776,68.0,104.0,120.0,2.0,0.0
3777,89.0,0.0,150.0,0.0,0.0
3778,71.0,240.0,120.0,2.0,0.0
3779,54.0,110.0,240.0,3.0,0.0
3780,58.0,10.0,120.0,3.0,0.0
3781,78.0,16.0,300.0,0.0,0.0
3782,61.0,104.0,120.0,3.0,0.0
3783,90.0,0.0,150.0,0.0,0.0
3784,66.0,120.0,120.0,3.0,0.0
3785,65.0,120.0,120.0,3.0,0.0
3786,66.0,120.0,120.0,3.0,0.0
3787,61.0,120.0,120.0,3.0,0.0
3788,58.0,240.0,120.0,3.0,0.0
3789,66.0,0.0,240.0,0.0,0.0
3790,54.0,120.0,240.0,3.0,0.0
3791,56.0,0.0,120.0,3.0,0.0
3792,68.0,120.0,120.0,0.0,0.0
3793,54.0,120.0,120.0,3.0,0.0
3794,66.0,0.0,120.0,0.0,0.0
3795,63.0,240.0,120.0,0.0,0.0
3796,51.0,0.0,120.0,3.0,0.0
3797,53.0,600.0,120.0,3.0,0.0
3798,65.0,0.0,120.0,0.0,0.0
3799,66.0,0.0,480.0,0.0,0.0
3800,54.0,360.0,480.0,3.0,0.0
3801,42.0,0.0,360.0,3.0,0.0
3802,54.0,120.0,360.0,0.0,0.0
3803,58.0,120.0,60.0,0.0,0.0
3804,46.0,0.0,60.0,3.0,0.0
3805,44.0,0.0,120.0,3.0,0.0
3806,56.0,240.0,120.0,0.0,0.0
3807,54.0,0.0,120.0,0.0,0.0
3808,42.0,240.0,120.0,3.0,0.0
3809,56.0,0.0,120.0,0.0,0.0
3810,44.0,240.0,120.0,3.0,0.0
3811,46.0,600.0,120.0,3.0,0.0
3812,58.0,0.0,120.0,0.0,0.0
3813,47.0,360.0,480.0,3.0,0.0
3814,59.0,0.0,480.0,0.0,0.0
3815,35.0,0.0,360.0,3.0,0.0
3816,47.0,360.0,360.0,0.0,0.0
3817,54.0,4.0,450.0,3.0,0.0
3818,61.0,120.0,120.0,2.0,0.0
3819,75.0,16.0,300.0,0.0,0.0
3820,58.0,100.0,120.0,2.0,0.0
3821,87.0,0.0,150.0,0.0,0.0
3822,61.0,240.0,120.0,2.0,0.0
3823,56.0,240.0,480.0,3.0,0.0
3824,61.0,120.0,120.0,2.0,0.0
3825,77.0,16.0,300.0,0.0,0.0
3826,59.0,104.0,120.0,2.0,0.0
3827,89.0,0.0,150.0,0.0,0.0
3828,61.0,0.0,120.0,2.0,0.0
3829,54.0,4.0,450.0,3.0,0.0
3830,61.0,120.0,120.0,2.0,0.0
3831,78.0,16.0,300.0,0.0,0.0
3832,58.0,100.0,120.0,2.0,0.0
3833,90.0,240.0,150.0,0.0,0.0
3834,61.0,0.0,120.0,2.0,0.0
3835,47.0,4.0,450.0,3.0,0.0
3836,59.0,120.0,120.0,2.0,0.0
3837,75.0,16.0,300.0,0.0,0.0
3838,57.0,100.0,120.0,2.0,0.0
3839,87.0,240.0,150.0,0.0,0.0
3840,59.0,0.0,120.0,2.0,0.0
3841,52.0,4.0,450.0,3.0,0.0
3842,61.0,120.0,120.0,2.0,0.0
3843,76.0,16.0,300.0,0.0,0.0
3844,56.0,100.0,120.0,2.0,0.0
3845,88.0,0.0,150.0,0.0,0.0
3846,61.0,240.0,120.0,2.0,0.0
3847,54.0,4.0,450.0,3.0,0.0
3848,64.0,120.0,120.0,2.0,0.0
3849,70.0,16.0,300.0,0.0,0.0
3850,61.0,100.0,120.0,2.0,0.0
3851,82.0,220.0,150.0,0.0,0.0
3852,64.0,0.0,120.0,2.0,0.0
3853,59.0,0.0,240.0,3.0,0.0
3854,63.0,20.0,210.0,2.0,0.0
3855,71.0,0.0,480.0,0.0,0.0
3856,83.0,0.0,480.0,0.0,0.0
3857,66.0,120.0,120.0,3.0,0.0
3858,64.0,120.0,120.0,3.0,0.0
3859,63.0,120.0,120.0,3.0,0.0
3860,61.0,120.0,120.0,3.0,0.0
3861,59.0,120.0,120.0,3.0,0.0
3862,58.0,120.0,120.0,3.0,0.0
3863,56.0,240.0,120.0,3.0,0.0
3864,66.0,120.0,240.0,0.0,0.0
3865,54.0,0.0,240.0,3.0,0.0
3866,68.0,0.0,120.0,0.0,0.0
3867,56.0,120.0,120.0,3.0,0.0
3868,66.0,0.0,120.0,0.0,0.0
3869,54.0,120.0,120.0,3.0,0.0
3870,51.0,0.0,120.0,3.0,0.0
3871,63.0,240.0,120.0,0.0,0.0
3872,53.0,0.0,120.0,3.0,0.0
3873,65.0,600.0,120.0,0.0,0.0
3874,66.0,0.0,480.0,0.0,0.0
3875,54.0,360.0,480.0,3.0,0.0
3876,54.0,0.0,360.0,0.0,0.0
3877,42.0,360.0,360.0,3.0,0.0
3878,78.0,120.0,240.0,3.0,0.0
3879,90.0,0.0,240.0,0.0,0.0
3880,82.0,0.0,120.0,2.0,0.0
3881,92.0,120.0,120.0,0.0,0.0
3882,78.0,0.0,240.0,3.0,0.0
3883,90.0,120.0,120.0,0.0,0.0
3884,82.0,0.0,120.0,2.0,0.0
3885,87.0,120.0,120.0,0.0,0.0
3886,83.0,120.0,120.0,2.0,0.0
3887,80.0,0.0,15.0,3.0,0.0
3888,89.0,120.0,120.0,0.0,0.0
3889,83.0,240.0,120.0,2.0,0.0
3890,82.0,0.0,240.0,2.0,0.0
3891,90.0,0.0,240.0,0.0,0.0
3892,78.0,720.0,240.0,3.0,0.0
3893,58.0,120.0,60.0,0.0,0.0
3894,46.0,0.0,60.0,3.0,0.0
3895,44.0,240.0,120.0,3.0,0.0
3896,56.0,0.0,120.0,0.0,0.0
3897,42.0,0.0,120.0,3.0,0.0
3898,54.0,240.0,120.0,0.0,0.0
3899,56.0,240.0,120.0,0.0,0.0
3900,44.0,0.0,120.0,3.0,0.0
3901,46.0,0.0,120.0,3.0,0.0
3902,58.0,600.0,120.0,0.0,0.0
3903,47.0,360.0,480.0,3.0,0.0
3904,59.0,0.0,480.0,0.0,0.0
3905,35.0,0.0,360.0,3.0,0.0
3906,47.0,120.0,360.0,0.0,0.0
3907,94.0,120.0,60.0,0.0,0.0
3908,92.0,110.0,120.0,0.0,0.0
3909,76.0,10.0,240.0,3.0,0.0
3910,80.0,120.0,120.0,2.0,0.0
3911,75.0,10.0,240.0,3.0,0.0
3912,90.0,110.0,120.0,0.0,0.0
3913,78.0,120.0,120.0,2.0,0.0
3914,76.0,10.0,240.0,3.0,0.0
3915,92.0,110.0,120.0,0.0,0.0
3916,80.0,120.0,120.0,2.0,0.0
3917,73.0,10.0,240.0,3.0,0.0
3918,94.0,110.0,120.0,0.0,0.0
3919,76.0,240.0,120.0,2.0,0.0
3920,95.0,0.0,240.0,0.0,0.0
3921,75.0,0.0,240.0,3.0,0.0
3922,78.0,720.0,240.0,2.0,0.0
3923,82.0,120.0,60.0,0.0,0.0
3924,80.0,110.0,120.0,0.0,0.0
3925,64.0,10.0,240.0,3.0,0.0
3926,68.0,120.0,120.0,2.0,0.0
3927,63.0,10.0,240.0,3.0,0.0
3928,78.0,110.0,120.0,0.0,0.0
3929,66.0,120.0,120.0,2.0,0.0
3930,64.0,10.0,240.0,3.0,0.0
3931,80.0,110.0,120.0,0.0,0.0
3932,68.0,120.0,120.0,2.0,0.0
3933,82.0,110.0,120.0,0.0,0.0
3934,61.0,10.0,240.0,3.0,0.0
3935,64.0,230.0,120.0,2.0,0.0
3936,63.0,10.0,240.0,3.0,0.0
3937,83.0,0.0,240.0,0.0,0.0
3938,66.0,230.0,120.0,2.0,0.0
3939,63.0,10.0,240.0,3.0,0.0
3940,66.0,230.0,120.0,2.0,0.0
3941,78.0,120.0,240.0,0.0,0.0
3942,59.0,10.0,240.0,3.0,0.0
3943,69.0,0.0,120.0,2.0,0.0
3944,59.0,10.0,240.0,3.0,0.0
3945,80.0,110.0,120.0,0.0,0.0
3946,69.0,0.0,120.0,2.0,0.0
3947,78.0,220.0,120.0,0.0,0.0
3948,76.0,0.0,240.0,0.0,0.0
3949,64.0,20.0,210.0,3.0,0.0
3950,68.0,120.0,120.0,2.0,0.0
3951,78.0,100.0,120.0,0.0,0.0
3952,64.0,20.0,210.0,3.0,0.0
3953,68.0,220.0,120.0,2.0,0.0
3954,76.0,0.0,120.0,0.0,0.0
3955,73.0,120.0,240.0,0.0,0.0
3956,66.0,20.0,210.0,3.0,0.0
3957,70.0,0.0,120.0,2.0,0.0
3958,66.0,20.0,210.0,3.0,0.0
3959,75.0,100.0,120.0,0.0,0.0
3960,70.0,0.0,120.0,2.0,0.0
3961,73.0,220.0,120.0,0.0,0.0
3962,75.0,120.0,240.0,0.0,0.0
3963,59.0,20.0,210.0,3.0,0.0
3964,71.0,0.0,120.0,2.0,0.0
3965,59.0,20.0,210.0,3.0,0.0
3966,76.0,100.0,120.0,0.0,0.0
3967,71.0,0.0,120.0,2.0,0.0
3968,75.0,220.0,120.0,0.0,0.0
3969,63.0,20.0,210.0,3.0,0.0
3970,78.0,0.0,240.0,0.0,0.0
3971,69.0,120.0,120.0,2.0,0.0
3972,63.0,20.0,210.0,3.0,0.0
3973,80.0,100.0,120.0,0.0,0.0
3974,69.0,0.0,120.0,2.0,0.0
3975,78.0,220.0,120.0,0.0,0.0
3976,76.0,120.0,240.0,0.0,0.0
3977,64.0,20.0,210.0,3.0,0.0
3978,68.0,0.0,120.0,2.0,0.0
3979,64.0,20.0,210.0,3.0,0.0
3980,78.0,100.0,120.0,0.0,0.0
3981,68.0,220.0,120.0,2.0,0.0
3982,76.0,0.0,120.0,0.0,0.0
3983,73.0,120.0,240.0,0.0,0.0
3984,66.0,20.0,210.0,3.0,0.0
3985,70.0,0.0,120.0,2.0,0.0
3986,66.0,20.0,210.0,3.0,0.0
3987,75.0,100.0,120.0,0.0,0.0
3988,70.0,0.0,120.0,2.0,0.0
3989,73.0,220.0,120.0,0.0,0.0
3990,59.0,20.0,210.0,3.0,0.0
3991,75.0,0.0,240.0,0.0,0.0
3992,71.0,220.0,120.0,2.0,0.0
3993,59.0,20.0,210.0,3.0,0.0
3994,71.0,220.0,120.0,2.0,0.0
3995,63.0,20.0,210.0,3.0,0.0
3996,69.0,220.0,120.0,2.0,0.0
3997,78.0,16.0,300.0,0.0,0.0
3998,63.0,4.0,210.0,3.0,0.0
3999,90.0,220.0,150.0,0.0,0.0
4000,69.0,0.0,120.0,2.0,0.0
4001,64.0,20.0,210.0,3.0,0.0
4002,68.0,220.0,120.0,2.0,0.0
4003,76.0,16.0,300.0,0.0,0.0
4004,64.0,4.0,210.0,3.0,0.0
4005,88.0,0.0,150.0,0.0,0.0
4006,68.0,220.0,120.0,2.0,0.0
4007,66.0,20.0,210.0,3.0,0.0
4008,70.0,220.0,120.0,2.0,0.0
4009,73.0,16.0,300.0,0.0,0.0
4010,66.0,4.0,210.0,3.0,0.0
4011,85.0,220.0,150.0,0.0,0.0
4012,70.0,0.0,120.0,2.0,0.0
4013,59.0,20.0,210.0,3.0,0.0
4014,71.0,220.0,120.0,2.0,0.0
4015,75.0,16.0,300.0,0.0,0.0
4016,59.0,4.0,210.0,3.0,0.0
4017,87.0,0.0,150.0,0.0,0.0
4018,71.0,220.0,120.0,2.0,0.0
4019,63.0,20.0,210.0,3.0,0.0
4020,69.0,220.0,120.0,2.0,0.0
4021,78.0,16.0,300.0,0.0,0.0
4022,63.0,4.0,210.0,3.0,0.0
4023,90.0,220.0,150.0,0.0,0.0
4024,69.0,0.0,120.0,2.0,0.0
4025,64.0,20.0,210.0,3.0,0.0
4026,68.0,220.0,120.0,2.0,0.0
4027,76.0,16.0,300.0,0.0,0.0
4028,64.0,4.0,210.0,3.0,0.0
4029,88.0,230.0,150.0,0.0,0.0
4030,68.0,0.0,120.0,2.0,0.0
4031,66.0,10.0,240.0,3.0,0.0
4032,70.0,224.0,120.0,2.0,0.0
4033,73.0,6.0,300.0,0.0,0.0
4034,66.0,10.0,240.0,3.0,0.0
4035,85.0,240.0,150.0,0.0,0.0
4036,70.0,0.0,120.0,2.0,0.0
4037,75.0,120.0,240.0,0.0,0.0
4038,59.0,10.0,480.0,3.0,0.0
4039,63.0,0.0,120.0,2.0,0.0
4040,66.0,0.0,120.0,2.0,0.0
4041,76.0,110.0,120.0,0.0,0.0
4042,71.0,0.0,120.0,2.0,0.0
4043,75.0,240.0,120.0,0.0,0.0
4044,59.0,10.0,480.0,3.0,0.0
4045,78.0,120.0,240.0,0.0,0.0
4046,63.0,0.0,120.0,2.0,0.0
4047,80.0,0.0,120.0,0.0,0.0
4048,66.0,110.0,120.0,2.0,0.0
4049,71.0,240.0,120.0,2.0,0.0
4050,78.0,0.0,120.0,0.0,0.0
4051,75.0,0.0,240.0,0.0,0.0
4052,59.0,10.0,480.0,3.0,0.0
4053,63.0,120.0,120.0,2.0,0.0
4054,76.0,110.0,120.0,0.0,0.0
4055,66.0,0.0,120.0,2.0,0.0
4056,71.0,240.0,120.0,2.0,0.0
4057,75.0,0.0,120.0,0.0,0.0
4058,83.0,0.0,240.0,0.0,0.0
4059,59.0,10.0,480.0,3.0,0.0
4060,63.0,120.0,120.0,2.0,0.0
4061,66.0,110.0,120.0,2.0,0.0
4062,85.0,0.0,120.0,0.0,0.0
4063,71.0,240.0,120.0,2.0,0.0
4064,83.0,0.0,120.0,0.0,0.0
4065,59.0,10.0,480.0,3.0,0.0
4066,78.0,120.0,240.0,0.0,0.0
4067,63.0,0.0,120.0,2.0,0.0
4068,80.0,110.0,120.0,0.0,0.0
4069,66.0,0.0,120.0,2.0,0.0
4070,71.0,240.0,120.0,2.0,0.0
4071,78.0,0.0,120.0,0.0,0.0
4072,59.0,10.0,480.0,3.0,0.0
4073,87.0,0.0,240.0,0.0,0.0
4074,63.0,120.0,120.0,2.0,0.0
4075,88.0,0.0,120.0,0.0,0.0
4076,66.0,110.0,120.0,2.0,0.0
4077,87.0,240.0,120.0,0.0,0.0
4078,71.0,0.0,120.0,2.0,0.0
4079,59.0,10.0,480.0,3.0,0.0
4080,83.0,0.0,240.0,0.0,0.0
4081,63.0,120.0,120.0,2.0,0.0
4082,66.0,110.0,120.0,2.0,0.0
4083,71.0,240.0,120.0,2.0,0.0
4084,54.0,10.0,480.0,3.0,0.0
4085,78.0,0.0,240.0,1.0,0.0
4086,82.0,0.0,240.0,1.0,0.0
4087,85.0,120.0,240.0,1.0,0.0
4088,90.0,0.0,240.0,0.0,0.0
4089,58.0,0.0,120.0,2.0,0.0
4090,61.0,110.0,120.0,2.0,0.0
4091,66.0,240.0,120.0,2.0,0.0
4092,87.0,0.0,240.0,0.0,0.0
4093,47.0,0.0,240.0,3.0,0.0
4094,83.0,0.0,240.0,1.0,0.0
4095,75.0,0.0,240.0,1.0,0.0
