,note,step,duration,channel,velocity
0,39.0,120.0,15.0,1.0,0.0
1,39.0,120.0,15.0,1.0,0.0
2,39.0,120.0,15.0,1.0,0.0
3,32.0,240.0,120.0,1.0,0.0
4,63.0,120.0,120.0,1.0,0.0
5,59.0,0.0,15.0,1.0,0.0
6,68.0,0.0,15.0,0.0,0.0
7,63.0,0.0,120.0,1.0,0.0
8,70.0,0.0,15.0,0.0,0.0
9,68.0,60.0,15.0,0.0,0.0
10,59.0,0.0,120.0,1.0,0.0
11,63.0,0.0,120.0,1.0,0.0
12,67.0,120.0,60.0,0.0,0.0
13,59.0,0.0,120.0,1.0,0.0
14,68.0,60.0,120.0,0.0,0.0
15,61.0,0.0,120.0,1.0,0.0
16,63.0,0.0,15.0,1.0,0.0
17,71.0,60.0,60.0,0.0,0.0
18,67.0,120.0,120.0,0.0,0.0
19,70.0,0.0,60.0,0.0,0.0
20,59.0,120.0,120.0,1.0,0.0
21,63.0,0.0,15.0,1.0,0.0
22,68.0,0.0,120.0,0.0,0.0
23,44.0,120.0,15.0,1.0,0.0
24,44.0,120.0,15.0,1.0,0.0
25,44.0,120.0,120.0,1.0,0.0
26,37.0,240.0,120.0,1.0,0.0
27,73.0,0.0,120.0,0.0,0.0
28,68.0,120.0,15.0,1.0,0.0
29,64.0,0.0,15.0,1.0,0.0
30,73.0,0.0,120.0,0.0,0.0
31,75.0,0.0,15.0,0.0,0.0
32,68.0,0.0,15.0,1.0,0.0
33,64.0,0.0,120.0,1.0,0.0
34,73.0,60.0,60.0,0.0,0.0
35,72.0,120.0,60.0,0.0,0.0
36,68.0,0.0,15.0,1.0,0.0
37,73.0,60.0,120.0,0.0,0.0
38,64.0,0.0,120.0,1.0,0.0
39,66.0,120.0,120.0,1.0,0.0
40,76.0,60.0,60.0,0.0,0.0
41,72.0,0.0,120.0,0.0,0.0
42,68.0,0.0,120.0,1.0,0.0
43,75.0,0.0,60.0,0.0,0.0
44,73.0,120.0,120.0,0.0,0.0
45,64.0,0.0,120.0,1.0,0.0
46,68.0,0.0,120.0,1.0,0.0
47,76.0,0.0,120.0,0.0,0.0
48,64.0,120.0,120.0,1.0,0.0
49,61.0,0.0,120.0,1.0,0.0
50,68.0,120.0,120.0,0.0,0.0
51,59.0,0.0,120.0,1.0,0.0
52,63.0,0.0,120.0,1.0,0.0
53,61.0,120.0,120.0,1.0,0.0
54,58.0,0.0,120.0,1.0,0.0
55,67.0,0.0,120.0,0.0,0.0
56,73.0,120.0,120.0,0.0,0.0
57,56.0,0.0,120.0,1.0,0.0
58,64.0,0.0,120.0,0.0,0.0
59,59.0,120.0,120.0,1.0,0.0
60,58.0,0.0,120.0,1.0,0.0
61,63.0,120.0,120.0,0.0,0.0
62,55.0,0.0,120.0,1.0,0.0
63,70.0,120.0,120.0,0.0,0.0
64,58.0,0.0,120.0,0.0,0.0
65,55.0,0.0,120.0,1.0,0.0
66,61.0,120.0,120.0,0.0,0.0
67,56.0,120.0,120.0,0.0,0.0
68,56.0,0.0,120.0,1.0,0.0
69,59.0,0.0,15.0,0.0,0.0
70,50.0,120.0,120.0,1.0,0.0
71,68.0,0.0,120.0,0.0,0.0
72,56.0,0.0,120.0,0.0,0.0
73,59.0,0.0,15.0,0.0,0.0
74,51.0,120.0,120.0,1.0,0.0
75,39.0,120.0,120.0,1.0,0.0
76,55.0,0.0,120.0,0.0,0.0
77,58.0,0.0,120.0,0.0,0.0
78,75.0,120.0,15.0,0.0,0.0
79,75.0,120.0,15.0,0.0,0.0
80,75.0,120.0,15.0,0.0,0.0
81,68.0,120.0,120.0,0.0,0.0
82,64.0,0.0,15.0,0.0,0.0
83,73.0,0.0,120.0,0.0,0.0
84,64.0,120.0,15.0,0.0,0.0
85,58.0,0.0,120.0,0.0,0.0
86,73.0,120.0,15.0,0.0,0.0
87,73.0,0.0,120.0,0.0,0.0
88,66.0,0.0,120.0,0.0,0.0
89,63.0,120.0,15.0,0.0,0.0
90,63.0,120.0,120.0,0.0,0.0
91,71.0,120.0,120.0,0.0,0.0
92,63.0,0.0,120.0,0.0,0.0
93,56.0,120.0,120.0,0.0,0.0
94,71.0,0.0,15.0,0.0,0.0
95,71.0,120.0,120.0,0.0,0.0
96,61.0,0.0,120.0,0.0,0.0
97,61.0,120.0,120.0,0.0,0.0
98,64.0,0.0,120.0,0.0,0.0
99,70.0,120.0,120.0,0.0,0.0
100,54.0,0.0,120.0,1.0,0.0
101,63.0,120.0,120.0,0.0,0.0
102,59.0,0.0,120.0,1.0,0.0
103,68.0,0.0,120.0,0.0,0.0
104,52.0,120.0,120.0,1.0,0.0
105,58.0,120.0,120.0,1.0,0.0
106,61.0,0.0,120.0,0.0,0.0
107,51.0,120.0,120.0,1.0,0.0
108,66.0,0.0,120.0,0.0,0.0
109,59.0,120.0,120.0,0.0,0.0
110,56.0,0.0,120.0,1.0,0.0
111,49.0,0.0,120.0,1.0,0.0
112,64.0,120.0,120.0,0.0,0.0
113,54.0,0.0,120.0,1.0,0.0
114,58.0,120.0,120.0,0.0,0.0
115,47.0,120.0,120.0,1.0,0.0
116,63.0,0.0,120.0,0.0,0.0
117,58.0,0.0,120.0,0.0,0.0
118,49.0,120.0,120.0,1.0,0.0
119,59.0,0.0,120.0,0.0,0.0
120,51.0,120.0,120.0,1.0,0.0
121,56.0,0.0,120.0,0.0,0.0
122,41.0,120.0,120.0,1.0,0.0
123,54.0,120.0,120.0,0.0,0.0
124,42.0,0.0,120.0,1.0,0.0
125,44.0,0.0,120.0,1.0,0.0
126,53.0,120.0,120.0,0.0,0.0
127,51.0,0.0,240.0,1.0,0.0
128,42.0,0.0,360.0,1.0,0.0
129,54.0,120.0,120.0,0.0,0.0
130,59.0,120.0,120.0,0.0,0.0
131,58.0,0.0,120.0,0.0,0.0
132,49.0,60.0,120.0,1.0,0.0
133,51.0,0.0,120.0,1.0,0.0
134,47.0,60.0,60.0,1.0,0.0
135,59.0,60.0,120.0,0.0,0.0
136,54.0,0.0,60.0,1.0,0.0
137,52.0,60.0,60.0,1.0,0.0
138,51.0,60.0,60.0,1.0,0.0
139,49.0,60.0,60.0,1.0,0.0
140,47.0,60.0,60.0,1.0,0.0
141,46.0,60.0,60.0,1.0,0.0
142,78.0,0.0,15.0,0.0,0.0
143,70.0,0.0,120.0,0.0,0.0
144,66.0,0.0,120.0,0.0,0.0
145,44.0,60.0,60.0,1.0,0.0
146,68.0,0.0,120.0,0.0,0.0
147,71.0,0.0,120.0,0.0,0.0
148,42.0,60.0,60.0,1.0,0.0
149,78.0,0.0,120.0,0.0,0.0
150,40.0,60.0,60.0,1.0,0.0
151,39.0,60.0,60.0,1.0,0.0
152,78.0,0.0,120.0,0.0,0.0
153,73.0,60.0,120.0,0.0,0.0
154,70.0,0.0,120.0,0.0,0.0
155,37.0,0.0,60.0,1.0,0.0
156,35.0,60.0,60.0,1.0,0.0
157,83.0,60.0,120.0,0.0,0.0
158,37.0,0.0,60.0,1.0,0.0
159,39.0,60.0,60.0,1.0,0.0
160,40.0,60.0,60.0,1.0,0.0
161,78.0,0.0,120.0,0.0,0.0
162,42.0,60.0,60.0,1.0,0.0
163,41.0,0.0,60.0,1.0,0.0
164,42.0,60.0,60.0,1.0,0.0
165,66.0,60.0,15.0,0.0,0.0
166,44.0,60.0,60.0,1.0,0.0
167,66.0,0.0,15.0,0.0,0.0
168,78.0,0.0,15.0,0.0,0.0
169,46.0,60.0,60.0,1.0,0.0
170,47.0,0.0,60.0,1.0,0.0
171,49.0,60.0,60.0,1.0,0.0
172,78.0,60.0,15.0,0.0,0.0
173,66.0,0.0,15.0,0.0,0.0
174,46.0,0.0,60.0,1.0,0.0
175,59.0,0.0,120.0,0.0,0.0
176,71.0,0.0,120.0,0.0,0.0
177,47.0,60.0,60.0,1.0,0.0
178,54.0,60.0,60.0,1.0,0.0
179,52.0,60.0,60.0,1.0,0.0
180,51.0,60.0,60.0,1.0,0.0
181,66.0,60.0,120.0,0.0,0.0
182,78.0,0.0,120.0,0.0,0.0
183,49.0,60.0,60.0,1.0,0.0
184,47.0,0.0,60.0,1.0,0.0
185,46.0,60.0,60.0,1.0,0.0
186,66.0,0.0,120.0,0.0,0.0
187,70.0,0.0,120.0,0.0,0.0
188,44.0,0.0,60.0,1.0,0.0
189,42.0,60.0,60.0,1.0,0.0
190,68.0,0.0,120.0,0.0,0.0
191,71.0,0.0,120.0,0.0,0.0
192,78.0,60.0,15.0,0.0,0.0
193,40.0,60.0,60.0,1.0,0.0
194,78.0,0.0,15.0,0.0,0.0
195,73.0,0.0,120.0,0.0,0.0
196,70.0,60.0,120.0,0.0,0.0
197,39.0,60.0,60.0,1.0,0.0
198,37.0,0.0,60.0,1.0,0.0
199,83.0,0.0,120.0,0.0,0.0
200,35.0,60.0,60.0,1.0,0.0
201,37.0,60.0,60.0,1.0,0.0
202,39.0,60.0,60.0,1.0,0.0
203,40.0,60.0,60.0,1.0,0.0
204,42.0,60.0,60.0,1.0,0.0
205,41.0,0.0,60.0,1.0,0.0
206,42.0,60.0,60.0,1.0,0.0
207,78.0,60.0,15.0,0.0,0.0
208,44.0,60.0,60.0,1.0,0.0
209,46.0,60.0,60.0,1.0,0.0
210,47.0,60.0,60.0,1.0,0.0
211,49.0,60.0,60.0,1.0,0.0
212,78.0,0.0,15.0,0.0,0.0
213,46.0,120.0,60.0,1.0,0.0
214,47.0,0.0,120.0,1.0,0.0
215,71.0,240.0,120.0,0.0,0.0
216,39.0,120.0,120.0,1.0,0.0
217,39.0,120.0,15.0,1.0,0.0
218,39.0,120.0,15.0,1.0,0.0
219,32.0,240.0,120.0,1.0,0.0
220,68.0,120.0,120.0,0.0,0.0
221,59.0,0.0,120.0,1.0,0.0
222,63.0,0.0,120.0,1.0,0.0
223,63.0,0.0,120.0,1.0,0.0
224,70.0,60.0,15.0,0.0,0.0
225,59.0,0.0,15.0,1.0,0.0
226,68.0,0.0,15.0,0.0,0.0
227,63.0,120.0,120.0,1.0,0.0
228,67.0,0.0,60.0,0.0,0.0
229,59.0,0.0,15.0,1.0,0.0
230,68.0,0.0,120.0,0.0,0.0
231,63.0,60.0,15.0,1.0,0.0
232,61.0,0.0,120.0,1.0,0.0
233,71.0,60.0,60.0,0.0,0.0
234,67.0,120.0,120.0,0.0,0.0
235,70.0,0.0,60.0,0.0,0.0
236,59.0,120.0,120.0,1.0,0.0
237,68.0,0.0,120.0,0.0,0.0
238,63.0,0.0,120.0,1.0,0.0
239,44.0,120.0,120.0,1.0,0.0
240,44.0,120.0,120.0,1.0,0.0
241,44.0,120.0,120.0,1.0,0.0
242,44.0,120.0,120.0,1.0,0.0
243,37.0,240.0,120.0,1.0,0.0
244,73.0,0.0,120.0,0.0,0.0
245,64.0,120.0,15.0,1.0,0.0
246,68.0,0.0,15.0,1.0,0.0
247,75.0,60.0,15.0,0.0,0.0
248,73.0,0.0,15.0,0.0,0.0
249,64.0,0.0,120.0,1.0,0.0
250,68.0,0.0,120.0,1.0,0.0
251,72.0,120.0,60.0,0.0,0.0
252,68.0,0.0,120.0,1.0,0.0
253,64.0,60.0,120.0,1.0,0.0
254,73.0,0.0,120.0,0.0,0.0
255,66.0,0.0,120.0,1.0,0.0
256,76.0,60.0,60.0,0.0,0.0
257,72.0,0.0,120.0,0.0,0.0
258,75.0,120.0,60.0,0.0,0.0
259,68.0,0.0,15.0,1.0,0.0
260,73.0,0.0,120.0,0.0,0.0
261,61.0,120.0,120.0,1.0,0.0
262,64.0,120.0,15.0,1.0,0.0
263,76.0,0.0,120.0,0.0,0.0
264,59.0,120.0,120.0,1.0,0.0
265,63.0,0.0,120.0,1.0,0.0
266,68.0,0.0,120.0,0.0,0.0
267,67.0,120.0,120.0,0.0,0.0
268,58.0,0.0,120.0,1.0,0.0
269,61.0,0.0,120.0,1.0,0.0
270,73.0,120.0,120.0,0.0,0.0
271,56.0,0.0,120.0,1.0,0.0
272,59.0,120.0,120.0,1.0,0.0
273,64.0,0.0,120.0,0.0,0.0
274,55.0,0.0,120.0,1.0,0.0
275,63.0,0.0,120.0,0.0,0.0
276,58.0,120.0,120.0,1.0,0.0
277,70.0,120.0,120.0,0.0,0.0
278,55.0,0.0,120.0,1.0,0.0
279,58.0,120.0,120.0,0.0,0.0
280,61.0,0.0,120.0,0.0,0.0
281,56.0,120.0,120.0,1.0,0.0
282,56.0,0.0,120.0,0.0,0.0
283,59.0,0.0,15.0,0.0,0.0
284,68.0,120.0,120.0,0.0,0.0
285,50.0,0.0,120.0,1.0,0.0
286,51.0,0.0,120.0,1.0,0.0
287,56.0,120.0,120.0,0.0,0.0
288,59.0,0.0,120.0,0.0,0.0
289,39.0,0.0,120.0,1.0,0.0
290,58.0,0.0,120.0,0.0,0.0
291,55.0,120.0,120.0,0.0,0.0
292,75.0,120.0,120.0,0.0,0.0
293,75.0,120.0,15.0,0.0,0.0
294,75.0,120.0,15.0,0.0,0.0
295,68.0,120.0,120.0,0.0,0.0
296,64.0,0.0,15.0,0.0,0.0
297,64.0,0.0,15.0,0.0,0.0
298,73.0,0.0,120.0,0.0,0.0
299,64.0,120.0,120.0,0.0,0.0
300,58.0,120.0,120.0,0.0,0.0
301,73.0,0.0,15.0,0.0,0.0
302,63.0,120.0,120.0,0.0,0.0
303,73.0,0.0,120.0,0.0,0.0
304,63.0,120.0,120.0,0.0,0.0
305,66.0,0.0,120.0,0.0,0.0
306,63.0,120.0,120.0,0.0,0.0
307,71.0,120.0,120.0,0.0,0.0
308,63.0,0.0,120.0,0.0,0.0
309,56.0,0.0,120.0,0.0,0.0
310,71.0,120.0,120.0,0.0,0.0
311,71.0,120.0,120.0,0.0,0.0
312,71.0,120.0,120.0,0.0,0.0
313,61.0,0.0,120.0,0.0,0.0
314,64.0,0.0,120.0,0.0,0.0
315,61.0,120.0,120.0,0.0,0.0
316,54.0,120.0,120.0,1.0,0.0
317,70.0,0.0,120.0,0.0,0.0
318,63.0,120.0,120.0,0.0,0.0
319,59.0,0.0,120.0,1.0,0.0
320,52.0,0.0,120.0,1.0,0.0
321,68.0,120.0,120.0,0.0,0.0
322,61.0,120.0,120.0,0.0,0.0
323,58.0,0.0,120.0,1.0,0.0
324,51.0,120.0,120.0,1.0,0.0
325,66.0,0.0,120.0,0.0,0.0
326,59.0,120.0,120.0,0.0,0.0
327,56.0,0.0,120.0,1.0,0.0
328,64.0,0.0,120.0,0.0,0.0
329,49.0,120.0,120.0,1.0,0.0
330,58.0,120.0,120.0,0.0,0.0
331,54.0,0.0,120.0,1.0,0.0
332,47.0,0.0,120.0,1.0,0.0
333,63.0,120.0,120.0,0.0,0.0
334,58.0,0.0,120.0,0.0,0.0
335,49.0,120.0,120.0,1.0,0.0
336,59.0,120.0,120.0,0.0,0.0
337,51.0,0.0,120.0,1.0,0.0
338,56.0,120.0,120.0,0.0,0.0
339,41.0,0.0,120.0,1.0,0.0
340,42.0,0.0,120.0,1.0,0.0
341,54.0,120.0,120.0,0.0,0.0
342,44.0,120.0,120.0,1.0,0.0
343,53.0,0.0,120.0,0.0,0.0
344,42.0,60.0,360.0,1.0,0.0
345,51.0,0.0,240.0,1.0,0.0
346,54.0,120.0,120.0,0.0,0.0
347,59.0,120.0,120.0,0.0,0.0
348,49.0,0.0,120.0,1.0,0.0
349,58.0,0.0,120.0,0.0,0.0
350,59.0,60.0,120.0,0.0,0.0
351,47.0,60.0,60.0,1.0,0.0
352,51.0,0.0,120.0,1.0,0.0
353,54.0,0.0,60.0,1.0,0.0
354,52.0,60.0,60.0,1.0,0.0
355,51.0,60.0,60.0,1.0,0.0
356,49.0,60.0,60.0,1.0,0.0
357,47.0,60.0,60.0,1.0,0.0
358,78.0,0.0,15.0,0.0,0.0
359,70.0,0.0,120.0,0.0,0.0
360,66.0,60.0,120.0,0.0,0.0
361,46.0,60.0,60.0,1.0,0.0
362,44.0,0.0,60.0,1.0,0.0
363,78.0,0.0,120.0,0.0,0.0
364,71.0,0.0,120.0,0.0,0.0
365,68.0,0.0,120.0,0.0,0.0
366,42.0,60.0,60.0,1.0,0.0
367,40.0,60.0,60.0,1.0,0.0
368,70.0,0.0,120.0,0.0,0.0
369,78.0,0.0,120.0,0.0,0.0
370,39.0,60.0,60.0,1.0,0.0
371,73.0,0.0,120.0,0.0,0.0
372,37.0,60.0,60.0,1.0,0.0
373,83.0,60.0,120.0,0.0,0.0
374,35.0,60.0,60.0,1.0,0.0
375,37.0,0.0,60.0,1.0,0.0
376,39.0,60.0,60.0,1.0,0.0
377,40.0,60.0,60.0,1.0,0.0
378,78.0,0.0,120.0,0.0,0.0
379,42.0,60.0,60.0,1.0,0.0
380,41.0,0.0,60.0,1.0,0.0
381,42.0,60.0,60.0,1.0,0.0
382,66.0,60.0,15.0,0.0,0.0
383,78.0,60.0,120.0,0.0,0.0
384,44.0,0.0,60.0,1.0,0.0
385,46.0,60.0,60.0,1.0,0.0
386,66.0,0.0,15.0,0.0,0.0
387,47.0,0.0,60.0,1.0,0.0
388,78.0,60.0,15.0,0.0,0.0
389,66.0,0.0,15.0,0.0,0.0
390,49.0,60.0,60.0,1.0,0.0
391,46.0,0.0,60.0,1.0,0.0
392,47.0,60.0,60.0,1.0,0.0
393,71.0,60.0,120.0,0.0,0.0
394,59.0,0.0,120.0,0.0,0.0
395,54.0,0.0,60.0,1.0,0.0
396,52.0,60.0,60.0,1.0,0.0
397,51.0,60.0,60.0,1.0,0.0
398,66.0,0.0,120.0,0.0,0.0
399,78.0,0.0,120.0,0.0,0.0
400,49.0,60.0,60.0,1.0,0.0
401,47.0,60.0,60.0,1.0,0.0
402,66.0,60.0,120.0,0.0,0.0
403,70.0,0.0,120.0,0.0,0.0
404,78.0,0.0,120.0,0.0,0.0
405,46.0,60.0,60.0,1.0,0.0
406,44.0,0.0,60.0,1.0,0.0
407,68.0,0.0,120.0,0.0,0.0
408,71.0,0.0,120.0,0.0,0.0
409,78.0,0.0,120.0,0.0,0.0
410,42.0,60.0,60.0,1.0,0.0
411,40.0,60.0,60.0,1.0,0.0
412,70.0,0.0,120.0,0.0,0.0
413,78.0,0.0,120.0,0.0,0.0
414,39.0,60.0,60.0,1.0,0.0
415,73.0,0.0,120.0,0.0,0.0
416,37.0,60.0,60.0,1.0,0.0
417,35.0,60.0,60.0,1.0,0.0
418,83.0,0.0,120.0,0.0,0.0
419,37.0,60.0,60.0,1.0,0.0
420,39.0,60.0,60.0,1.0,0.0
421,40.0,60.0,60.0,1.0,0.0
422,42.0,60.0,60.0,1.0,0.0
423,78.0,60.0,120.0,0.0,0.0
424,41.0,0.0,60.0,1.0,0.0
425,78.0,0.0,120.0,0.0,0.0
426,42.0,60.0,60.0,1.0,0.0
427,44.0,60.0,60.0,1.0,0.0
428,78.0,60.0,120.0,0.0,0.0
429,46.0,60.0,60.0,1.0,0.0
430,47.0,0.0,60.0,1.0,0.0
431,49.0,60.0,60.0,1.0,0.0
432,78.0,120.0,120.0,0.0,0.0
433,46.0,0.0,60.0,1.0,0.0
434,71.0,0.0,120.0,0.0,0.0
435,47.0,240.0,120.0,1.0,0.0
436,75.0,120.0,120.0,0.0,0.0
437,75.0,120.0,120.0,0.0,0.0
438,75.0,120.0,15.0,0.0,0.0
439,71.0,0.0,120.0,0.0,0.0
440,71.0,120.0,120.0,0.0,0.0
441,68.0,0.0,120.0,0.0,0.0
442,71.0,120.0,120.0,0.0,0.0
443,73.0,120.0,120.0,0.0,0.0
444,71.0,0.0,120.0,0.0,0.0
445,65.0,120.0,120.0,0.0,0.0
446,73.0,0.0,120.0,0.0,0.0
447,73.0,120.0,120.0,0.0,0.0
448,70.0,120.0,120.0,0.0,0.0
449,73.0,0.0,120.0,0.0,0.0
450,70.0,120.0,120.0,0.0,0.0
451,66.0,0.0,120.0,0.0,0.0
452,70.0,120.0,120.0,0.0,0.0
453,71.0,0.0,120.0,0.0,0.0
454,70.0,120.0,120.0,0.0,0.0
455,63.0,120.0,120.0,0.0,0.0
456,71.0,0.0,120.0,0.0,0.0
457,71.0,120.0,15.0,0.0,0.0
458,68.0,120.0,120.0,0.0,0.0
459,68.0,120.0,120.0,0.0,0.0
460,65.0,0.0,120.0,0.0,0.0
461,62.0,0.0,120.0,0.0,0.0
462,70.0,120.0,120.0,0.0,0.0
463,63.0,120.0,120.0,0.0,0.0
464,66.0,0.0,120.0,0.0,0.0
465,68.0,120.0,120.0,0.0,0.0
466,60.0,0.0,120.0,0.0,0.0
467,65.0,120.0,120.0,0.0,0.0
468,62.0,0.0,120.0,0.0,0.0
469,58.0,120.0,120.0,0.0,0.0
470,66.0,0.0,120.0,0.0,0.0
471,65.0,0.0,120.0,0.0,0.0
472,56.0,120.0,120.0,1.0,0.0
473,63.0,120.0,120.0,0.0,0.0
474,58.0,0.0,120.0,1.0,0.0
475,46.0,120.0,120.0,1.0,0.0
476,62.0,0.0,120.0,0.0,0.0
477,54.0,60.0,120.0,1.0,0.0
478,58.0,0.0,120.0,1.0,0.0
479,63.0,0.0,120.0,0.0,0.0
480,65.0,0.0,15.0,0.0,0.0
481,53.0,0.0,120.0,1.0,0.0
482,56.0,0.0,120.0,1.0,0.0
483,63.0,60.0,60.0,0.0,0.0
484,62.0,120.0,60.0,0.0,0.0
485,54.0,0.0,120.0,1.0,0.0
486,51.0,120.0,120.0,1.0,0.0
487,63.0,0.0,120.0,0.0,0.0
488,53.0,0.0,120.0,1.0,0.0
489,50.0,0.0,120.0,1.0,0.0
490,72.0,0.0,15.0,0.0,0.0
491,48.0,120.0,120.0,1.0,0.0
492,51.0,0.0,120.0,1.0,0.0
493,70.0,60.0,15.0,0.0,0.0
494,69.0,0.0,60.0,0.0,0.0
495,70.0,120.0,120.0,0.0,0.0
496,50.0,0.0,120.0,1.0,0.0
497,46.0,0.0,120.0,1.0,0.0
498,42.0,60.0,120.0,1.0,0.0
499,46.0,0.0,120.0,1.0,0.0
500,77.0,0.0,15.0,0.0,0.0
501,75.0,0.0,15.0,0.0,0.0
502,44.0,0.0,120.0,1.0,0.0
503,41.0,0.0,120.0,1.0,0.0
504,74.0,120.0,60.0,0.0,0.0
505,42.0,0.0,120.0,1.0,0.0
506,39.0,0.0,120.0,1.0,0.0
507,75.0,0.0,120.0,0.0,0.0
508,70.0,120.0,15.0,0.0,0.0
509,82.0,0.0,480.0,0.0,0.0
510,41.0,0.0,120.0,1.0,0.0
511,38.0,120.0,120.0,1.0,0.0
512,39.0,0.0,120.0,1.0,0.0
513,36.0,120.0,120.0,1.0,0.0
514,34.0,120.0,120.0,1.0,0.0
515,38.0,0.0,120.0,1.0,0.0
516,42.0,60.0,120.0,1.0,0.0
517,39.0,0.0,120.0,1.0,0.0
518,41.0,60.0,120.0,1.0,0.0
519,44.0,0.0,120.0,1.0,0.0
520,82.0,60.0,60.0,0.0,0.0
521,80.0,0.0,15.0,0.0,0.0
522,46.0,0.0,120.0,1.0,0.0
523,42.0,0.0,120.0,1.0,0.0
524,78.0,60.0,15.0,0.0,0.0
525,44.0,60.0,120.0,1.0,0.0
526,77.0,0.0,60.0,0.0,0.0
527,46.0,0.0,120.0,1.0,0.0
528,77.0,60.0,60.0,0.0,0.0
529,75.0,60.0,60.0,0.0,0.0
530,34.0,120.0,120.0,1.0,0.0
531,75.0,60.0,60.0,0.0,0.0
532,74.0,0.0,60.0,0.0,0.0
533,75.0,0.0,120.0,0.0,0.0
534,63.0,0.0,120.0,0.0,0.0
535,54.0,0.0,120.0,1.0,0.0
536,58.0,40.0,120.0,1.0,0.0
537,56.0,0.0,120.0,1.0,0.0
538,53.0,0.0,120.0,1.0,0.0
539,65.0,40.0,40.0,0.0,0.0
540,63.0,40.0,40.0,0.0,0.0
541,62.0,120.0,40.0,0.0,0.0
542,54.0,120.0,120.0,1.0,0.0
543,51.0,0.0,120.0,1.0,0.0
544,63.0,0.0,120.0,0.0,0.0
545,70.0,0.0,120.0,0.0,0.0
546,50.0,0.0,120.0,1.0,0.0
547,53.0,40.0,120.0,1.0,0.0
548,51.0,120.0,120.0,1.0,0.0
549,72.0,40.0,40.0,0.0,0.0
550,48.0,0.0,120.0,1.0,0.0
551,70.0,40.0,40.0,0.0,0.0
552,69.0,0.0,40.0,0.0,0.0
553,70.0,0.0,120.0,0.0,0.0
554,50.0,120.0,120.0,1.0,0.0
555,75.0,0.0,120.0,0.0,0.0
556,42.0,40.0,120.0,1.0,0.0
557,46.0,0.0,15.0,1.0,0.0
558,77.0,40.0,40.0,0.0,0.0
559,44.0,120.0,120.0,1.0,0.0
560,41.0,0.0,120.0,1.0,0.0
561,75.0,40.0,40.0,0.0,0.0
562,74.0,0.0,40.0,0.0,0.0
563,75.0,0.0,120.0,0.0,0.0
564,42.0,120.0,120.0,1.0,0.0
565,39.0,0.0,120.0,1.0,0.0
566,38.0,0.0,120.0,1.0,0.0
567,82.0,0.0,360.0,0.0,0.0
568,41.0,120.0,120.0,1.0,0.0
569,70.0,0.0,360.0,0.0,0.0
570,36.0,0.0,120.0,1.0,0.0
571,39.0,120.0,120.0,1.0,0.0
572,38.0,120.0,120.0,1.0,0.0
573,34.0,0.0,120.0,1.0,0.0
574,54.0,0.0,120.0,1.0,0.0
575,51.0,40.0,120.0,1.0,0.0
576,71.0,0.0,120.0,0.0,0.0
577,73.0,40.0,40.0,0.0,0.0
578,52.0,0.0,120.0,1.0,0.0
579,49.0,0.0,120.0,1.0,0.0
580,71.0,40.0,40.0,0.0,0.0
581,70.0,120.0,40.0,0.0,0.0
582,51.0,0.0,120.0,1.0,0.0
583,47.0,0.0,120.0,1.0,0.0
584,71.0,120.0,120.0,0.0,0.0
585,46.0,120.0,120.0,1.0,0.0
586,49.0,0.0,120.0,1.0,0.0
587,78.0,120.0,360.0,0.0,0.0
588,66.0,0.0,360.0,0.0,0.0
589,44.0,120.0,120.0,1.0,0.0
590,47.0,0.0,120.0,1.0,0.0
591,42.0,0.0,120.0,1.0,0.0
592,46.0,0.0,120.0,1.0,0.0
593,68.0,0.0,120.0,0.0,0.0
594,51.0,40.0,120.0,1.0,0.0
595,47.0,0.0,120.0,1.0,0.0
596,70.0,40.0,40.0,0.0,0.0
597,46.0,0.0,120.0,1.0,0.0
598,49.0,120.0,120.0,1.0,0.0
599,68.0,40.0,40.0,0.0,0.0
600,67.0,0.0,40.0,0.0,0.0
601,68.0,0.0,120.0,0.0,0.0
602,47.0,120.0,120.0,1.0,0.0
603,44.0,0.0,120.0,1.0,0.0
604,63.0,0.0,480.0,0.0,0.0
605,46.0,120.0,120.0,1.0,0.0
606,43.0,0.0,120.0,1.0,0.0
607,75.0,0.0,480.0,0.0,0.0
608,44.0,120.0,120.0,1.0,0.0
609,41.0,0.0,120.0,1.0,0.0
610,43.0,120.0,120.0,1.0,0.0
611,39.0,0.0,120.0,1.0,0.0
612,44.0,0.0,120.0,1.0,0.0
613,40.0,120.0,120.0,1.0,0.0
614,73.0,0.0,120.0,0.0,0.0
615,61.0,240.0,120.0,0.0,0.0
616,59.0,0.0,240.0,0.0,0.0
617,71.0,120.0,240.0,0.0,0.0
618,44.0,0.0,120.0,1.0,0.0
619,40.0,0.0,120.0,1.0,0.0
620,50.0,0.0,120.0,1.0,0.0
621,58.0,120.0,120.0,0.0,0.0
622,70.0,0.0,120.0,0.0,0.0
623,56.0,0.0,120.0,0.0,0.0
624,68.0,120.0,120.0,0.0,0.0
625,55.0,60.0,120.0,0.0,0.0
626,67.0,0.0,120.0,0.0,0.0
627,39.0,0.0,120.0,1.0,0.0
628,51.0,0.0,120.0,1.0,0.0
629,58.0,60.0,60.0,0.0,0.0
630,55.0,60.0,60.0,0.0,0.0
631,63.0,0.0,120.0,0.0,0.0
632,58.0,60.0,60.0,0.0,0.0
633,51.0,0.0,120.0,1.0,0.0
634,55.0,60.0,60.0,0.0,0.0
635,56.0,60.0,60.0,1.0,0.0
636,62.0,0.0,120.0,0.0,0.0
637,59.0,0.0,120.0,0.0,0.0
638,53.0,60.0,60.0,1.0,0.0
639,59.0,0.0,120.0,0.0,0.0
640,51.0,0.0,15.0,1.0,0.0
641,56.0,60.0,60.0,1.0,0.0
642,53.0,0.0,60.0,1.0,0.0
643,51.0,0.0,15.0,1.0,0.0
644,59.0,0.0,120.0,0.0,0.0
645,62.0,60.0,15.0,0.0,0.0
646,56.0,60.0,60.0,1.0,0.0
647,53.0,0.0,60.0,1.0,0.0
648,55.0,60.0,60.0,1.0,0.0
649,51.0,0.0,120.0,1.0,0.0
650,58.0,60.0,60.0,0.0,0.0
651,63.0,60.0,60.0,0.0,0.0
652,67.0,60.0,60.0,0.0,0.0
653,70.0,60.0,60.0,0.0,0.0
654,75.0,0.0,120.0,0.0,0.0
655,67.0,60.0,60.0,0.0,0.0
656,74.0,60.0,120.0,0.0,0.0
657,71.0,0.0,120.0,0.0,0.0
658,63.0,0.0,120.0,0.0,0.0
659,68.0,60.0,60.0,0.0,0.0
660,65.0,0.0,60.0,0.0,0.0
661,68.0,60.0,60.0,0.0,0.0
662,63.0,60.0,120.0,0.0,0.0
663,71.0,0.0,120.0,0.0,0.0
664,74.0,0.0,120.0,0.0,0.0
665,65.0,0.0,60.0,0.0,0.0
666,74.0,0.0,120.0,0.0,0.0
667,71.0,0.0,120.0,0.0,0.0
668,68.0,60.0,60.0,0.0,0.0
669,65.0,60.0,60.0,0.0,0.0
670,75.0,60.0,120.0,0.0,0.0
671,70.0,0.0,120.0,0.0,0.0
672,63.0,0.0,15.0,0.0,0.0
673,67.0,60.0,60.0,0.0,0.0
674,63.0,0.0,60.0,0.0,0.0
675,58.0,60.0,60.0,0.0,0.0
676,55.0,60.0,60.0,0.0,0.0
677,63.0,0.0,120.0,0.0,0.0
678,58.0,60.0,60.0,0.0,0.0
679,51.0,60.0,120.0,1.0,0.0
680,55.0,0.0,60.0,0.0,0.0
681,56.0,60.0,60.0,1.0,0.0
682,53.0,0.0,60.0,1.0,0.0
683,62.0,60.0,15.0,0.0,0.0
684,59.0,0.0,15.0,0.0,0.0
685,51.0,0.0,15.0,1.0,0.0
686,56.0,60.0,60.0,1.0,0.0
687,53.0,0.0,60.0,1.0,0.0
688,62.0,0.0,120.0,0.0,0.0
689,51.0,60.0,15.0,1.0,0.0
690,56.0,60.0,60.0,1.0,0.0
691,59.0,0.0,120.0,0.0,0.0
692,53.0,0.0,60.0,1.0,0.0
693,55.0,60.0,60.0,1.0,0.0
694,51.0,60.0,15.0,1.0,0.0
695,58.0,0.0,60.0,0.0,0.0
696,63.0,60.0,60.0,0.0,0.0
697,67.0,60.0,60.0,0.0,0.0
698,70.0,60.0,60.0,0.0,0.0
699,75.0,60.0,120.0,0.0,0.0
700,67.0,0.0,60.0,0.0,0.0
701,63.0,0.0,120.0,0.0,0.0
702,68.0,60.0,60.0,0.0,0.0
703,74.0,0.0,120.0,0.0,0.0
704,65.0,0.0,60.0,0.0,0.0
705,68.0,60.0,60.0,0.0,0.0
706,71.0,60.0,15.0,0.0,0.0
707,65.0,60.0,60.0,0.0,0.0
708,68.0,60.0,60.0,0.0,0.0
709,71.0,0.0,15.0,0.0,0.0
710,74.0,0.0,15.0,0.0,0.0
711,63.0,0.0,15.0,0.0,0.0
712,65.0,0.0,60.0,0.0,0.0
713,63.0,0.0,15.0,0.0,0.0
714,75.0,0.0,120.0,0.0,0.0
715,70.0,60.0,60.0,0.0,0.0
716,67.0,0.0,60.0,0.0,0.0
717,68.0,60.0,60.0,0.0,0.0
718,73.0,60.0,120.0,0.0,0.0
719,64.0,0.0,60.0,0.0,0.0
720,66.0,60.0,60.0,0.0,0.0
721,71.0,0.0,120.0,0.0,0.0
722,39.0,0.0,120.0,1.0,0.0
723,63.0,60.0,60.0,0.0,0.0
724,64.0,60.0,60.0,0.0,0.0
725,70.0,0.0,120.0,0.0,0.0
726,61.0,60.0,60.0,0.0,0.0
727,39.0,0.0,15.0,1.0,0.0
728,68.0,0.0,120.0,0.0,0.0
729,63.0,60.0,60.0,0.0,0.0
730,59.0,60.0,60.0,0.0,0.0
731,61.0,60.0,60.0,0.0,0.0
732,67.0,0.0,120.0,0.0,0.0
733,39.0,0.0,15.0,1.0,0.0
734,58.0,0.0,60.0,0.0,0.0
735,59.0,0.0,60.0,0.0,0.0
736,68.0,60.0,60.0,0.0,0.0
737,32.0,60.0,120.0,1.0,0.0
738,56.0,0.0,60.0,0.0,0.0
739,59.0,60.0,60.0,0.0,0.0
740,63.0,110.0,60.0,0.0,0.0
741,56.0,120.0,120.0,0.0,0.0
742,59.0,0.0,120.0,0.0,0.0
743,68.0,0.0,120.0,0.0,0.0
744,70.0,10.0,15.0,0.0,0.0
745,59.0,0.0,15.0,0.0,0.0
746,63.0,60.0,15.0,0.0,0.0
747,68.0,0.0,15.0,0.0,0.0
748,67.0,0.0,60.0,0.0,0.0
749,59.0,120.0,15.0,0.0,0.0
750,68.0,0.0,120.0,0.0,0.0
751,67.0,60.0,60.0,0.0,0.0
752,63.0,60.0,15.0,0.0,0.0
753,61.0,120.0,120.0,0.0,0.0
754,71.0,0.0,60.0,0.0,0.0
755,70.0,0.0,60.0,0.0,0.0
756,59.0,0.0,120.0,0.0,0.0
757,63.0,0.0,15.0,0.0,0.0
758,68.0,0.0,120.0,0.0,0.0
759,76.0,60.0,60.0,0.0,0.0
760,68.0,0.0,60.0,0.0,0.0
761,32.0,60.0,15.0,1.0,0.0
762,44.0,0.0,15.0,1.0,0.0
763,75.0,60.0,60.0,0.0,0.0
764,66.0,0.0,60.0,0.0,0.0
765,73.0,60.0,60.0,0.0,0.0
766,44.0,60.0,120.0,1.0,0.0
767,32.0,0.0,120.0,1.0,0.0
768,64.0,0.0,60.0,0.0,0.0
769,72.0,60.0,60.0,0.0,0.0
770,32.0,0.0,120.0,1.0,0.0
771,44.0,0.0,120.0,1.0,0.0
772,63.0,60.0,60.0,0.0,0.0
773,37.0,0.0,120.0,1.0,0.0
774,73.0,60.0,60.0,0.0,0.0
775,25.0,0.0,120.0,1.0,0.0
776,61.0,60.0,60.0,0.0,0.0
777,64.0,60.0,60.0,0.0,0.0
778,68.0,112.0,60.0,0.0,0.0
779,73.0,0.0,120.0,0.0,0.0
780,75.0,8.0,15.0,0.0,0.0
781,64.0,120.0,15.0,0.0,0.0
782,73.0,60.0,120.0,0.0,0.0
783,68.0,0.0,15.0,0.0,0.0
784,73.0,60.0,60.0,0.0,0.0
785,68.0,120.0,120.0,0.0,0.0
786,64.0,0.0,120.0,0.0,0.0
787,72.0,0.0,60.0,0.0,0.0
788,68.0,0.0,120.0,0.0,0.0
789,64.0,0.0,120.0,0.0,0.0
790,73.0,60.0,120.0,0.0,0.0
791,66.0,0.0,120.0,0.0,0.0
792,68.0,120.0,120.0,0.0,0.0
793,72.0,60.0,60.0,0.0,0.0
794,76.0,0.0,60.0,0.0,0.0
795,75.0,0.0,60.0,0.0,0.0
796,68.0,120.0,120.0,0.0,0.0
797,64.0,0.0,120.0,0.0,0.0
798,73.0,0.0,120.0,0.0,0.0
799,68.0,120.0,120.0,0.0,0.0
800,80.0,0.0,120.0,0.0,0.0
801,68.0,120.0,15.0,0.0,0.0
802,80.0,0.0,15.0,0.0,0.0
803,80.0,0.0,15.0,0.0,0.0
804,68.0,120.0,15.0,0.0,0.0
805,61.0,120.0,120.0,0.0,0.0
806,52.0,120.0,15.0,1.0,0.0
807,40.0,0.0,15.0,1.0,0.0
808,73.0,0.0,120.0,0.0,0.0
809,52.0,0.0,15.0,1.0,0.0
810,40.0,0.0,15.0,1.0,0.0
811,73.0,0.0,120.0,0.0,0.0
812,40.0,0.0,120.0,1.0,0.0
813,52.0,0.0,120.0,1.0,0.0
814,46.0,0.0,120.0,1.0,0.0
815,34.0,0.0,120.0,1.0,0.0
816,85.0,120.0,15.0,0.0,0.0
817,73.0,120.0,120.0,0.0,0.0
818,73.0,0.0,120.0,0.0,0.0
819,85.0,120.0,120.0,0.0,0.0
820,64.0,0.0,120.0,1.0,0.0
821,85.0,0.0,120.0,0.0,0.0
822,73.0,120.0,120.0,0.0,0.0
823,52.0,0.0,120.0,1.0,0.0
824,52.0,0.0,120.0,1.0,0.0
825,64.0,120.0,120.0,1.0,0.0
826,67.0,0.0,240.0,0.0,0.0
827,63.0,0.0,120.0,1.0,0.0
828,51.0,120.0,120.0,1.0,0.0
829,79.0,0.0,15.0,0.0,0.0
830,49.0,120.0,120.0,1.0,0.0
831,61.0,0.0,120.0,1.0,0.0
832,67.0,0.0,120.0,0.0,0.0
833,59.0,0.0,120.0,1.0,0.0
834,47.0,0.0,120.0,1.0,0.0
835,80.0,60.0,120.0,0.0,0.0
836,68.0,0.0,120.0,0.0,0.0
837,58.0,60.0,120.0,1.0,0.0
838,46.0,0.0,120.0,1.0,0.0
839,76.0,60.0,60.0,0.0,0.0
840,73.0,0.0,60.0,0.0,0.0
841,75.0,60.0,60.0,0.0,0.0
842,59.0,0.0,120.0,1.0,0.0
843,47.0,60.0,120.0,1.0,0.0
844,71.0,0.0,60.0,0.0,0.0
845,61.0,0.0,120.0,1.0,0.0
846,73.0,60.0,60.0,0.0,0.0
847,49.0,60.0,120.0,1.0,0.0
848,70.0,0.0,60.0,0.0,0.0
849,71.0,60.0,60.0,0.0,0.0
850,63.0,60.0,120.0,1.0,0.0
851,51.0,0.0,120.0,1.0,0.0
852,68.0,0.0,60.0,0.0,0.0
853,70.0,60.0,60.0,0.0,0.0
854,51.0,0.0,120.0,1.0,0.0
855,39.0,60.0,120.0,1.0,0.0
856,67.0,0.0,60.0,0.0,0.0
857,68.0,60.0,120.0,0.0,0.0
858,44.0,60.0,60.0,1.0,0.0
859,51.0,0.0,60.0,1.0,0.0
860,49.0,60.0,60.0,1.0,0.0
861,47.0,60.0,60.0,1.0,0.0
862,63.0,0.0,120.0,0.0,0.0
863,67.0,0.0,120.0,0.0,0.0
864,46.0,60.0,60.0,1.0,0.0
865,75.0,0.0,120.0,0.0,0.0
866,44.0,0.0,60.0,1.0,0.0
867,73.0,0.0,15.0,0.0,0.0
868,63.0,0.0,120.0,0.0,0.0
869,67.0,0.0,120.0,0.0,0.0
870,70.0,60.0,15.0,0.0,0.0
871,75.0,0.0,120.0,0.0,0.0
872,43.0,60.0,60.0,1.0,0.0
873,40.0,0.0,60.0,1.0,0.0
874,39.0,60.0,60.0,1.0,0.0
875,70.0,0.0,15.0,0.0,0.0
876,73.0,60.0,15.0,0.0,0.0
877,63.0,0.0,120.0,0.0,0.0
878,75.0,0.0,120.0,0.0,0.0
879,67.0,0.0,120.0,0.0,0.0
880,37.0,0.0,60.0,1.0,0.0
881,63.0,0.0,120.0,0.0,0.0
882,67.0,0.0,120.0,0.0,0.0
883,70.0,60.0,15.0,0.0,0.0
884,73.0,0.0,120.0,0.0,0.0
885,35.0,60.0,60.0,1.0,0.0
886,34.0,0.0,60.0,1.0,0.0
887,68.0,0.0,120.0,0.0,0.0
888,71.0,0.0,120.0,0.0,0.0
889,75.0,0.0,15.0,0.0,0.0
890,80.0,0.0,120.0,0.0,0.0
891,32.0,60.0,60.0,1.0,0.0
892,34.0,0.0,60.0,1.0,0.0
893,35.0,60.0,60.0,1.0,0.0
894,37.0,60.0,60.0,1.0,0.0
895,39.0,60.0,60.0,1.0,0.0
896,55.0,0.0,120.0,0.0,0.0
897,58.0,0.0,120.0,0.0,0.0
898,63.0,0.0,120.0,0.0,0.0
899,38.0,60.0,60.0,1.0,0.0
900,55.0,0.0,120.0,0.0,0.0
901,58.0,0.0,120.0,0.0,0.0
902,61.0,0.0,15.0,0.0,0.0
903,63.0,0.0,120.0,0.0,0.0
904,39.0,60.0,60.0,1.0,0.0
905,41.0,60.0,60.0,1.0,0.0
906,61.0,0.0,120.0,0.0,0.0
907,43.0,60.0,60.0,1.0,0.0
908,55.0,0.0,120.0,0.0,0.0
909,58.0,0.0,120.0,0.0,0.0
910,44.0,0.0,60.0,1.0,0.0
911,46.0,60.0,60.0,1.0,0.0
912,55.0,0.0,120.0,0.0,0.0
913,58.0,60.0,120.0,0.0,0.0
914,61.0,0.0,120.0,0.0,0.0
915,63.0,60.0,15.0,0.0,0.0
916,43.0,0.0,60.0,1.0,0.0
917,44.0,60.0,60.0,1.0,0.0
918,56.0,60.0,120.0,0.0,0.0
919,49.0,0.0,60.0,1.0,0.0
920,49.0,60.0,60.0,1.0,0.0
921,47.0,60.0,60.0,1.0,0.0
922,67.0,0.0,120.0,0.0,0.0
923,73.0,60.0,120.0,0.0,0.0
924,46.0,60.0,60.0,1.0,0.0
925,70.0,0.0,120.0,0.0,0.0
926,44.0,0.0,60.0,1.0,0.0
927,63.0,0.0,15.0,0.0,0.0
928,75.0,0.0,15.0,0.0,0.0
929,43.0,60.0,60.0,1.0,0.0
930,73.0,0.0,120.0,0.0,0.0
931,67.0,0.0,120.0,0.0,0.0
932,70.0,0.0,120.0,0.0,0.0
933,40.0,60.0,60.0,1.0,0.0
934,39.0,60.0,60.0,1.0,0.0
935,70.0,0.0,120.0,0.0,0.0
936,37.0,0.0,60.0,1.0,0.0
937,35.0,60.0,60.0,1.0,0.0
938,75.0,60.0,15.0,0.0,0.0
939,73.0,0.0,15.0,0.0,0.0
940,67.0,0.0,15.0,0.0,0.0
941,63.0,0.0,15.0,0.0,0.0
942,70.0,0.0,120.0,0.0,0.0
943,34.0,0.0,60.0,1.0,0.0
944,32.0,60.0,60.0,1.0,0.0
945,80.0,0.0,120.0,0.0,0.0
946,75.0,60.0,15.0,0.0,0.0
947,71.0,60.0,120.0,0.0,0.0
948,68.0,0.0,120.0,0.0,0.0
949,34.0,0.0,60.0,1.0,0.0
950,35.0,60.0,60.0,1.0,0.0
951,37.0,60.0,60.0,1.0,0.0
952,39.0,60.0,60.0,1.0,0.0
953,63.0,0.0,120.0,0.0,0.0
954,58.0,0.0,120.0,0.0,0.0
955,55.0,0.0,120.0,0.0,0.0
956,61.0,60.0,120.0,0.0,0.0
957,38.0,0.0,60.0,1.0,0.0
958,39.0,60.0,60.0,1.0,0.0
959,58.0,0.0,120.0,0.0,0.0
960,63.0,0.0,120.0,0.0,0.0
961,41.0,0.0,60.0,1.0,0.0
962,55.0,0.0,15.0,0.0,0.0
963,61.0,60.0,15.0,0.0,0.0
964,63.0,0.0,120.0,0.0,0.0
965,43.0,60.0,60.0,1.0,0.0
966,58.0,60.0,120.0,0.0,0.0
967,44.0,0.0,60.0,1.0,0.0
968,46.0,60.0,60.0,1.0,0.0
969,55.0,0.0,15.0,0.0,0.0
970,58.0,0.0,120.0,0.0,0.0
971,61.0,120.0,120.0,0.0,0.0
972,63.0,0.0,120.0,0.0,0.0
973,43.0,0.0,60.0,1.0,0.0
974,56.0,0.0,120.0,0.0,0.0
975,44.0,240.0,120.0,1.0,0.0
976,75.0,120.0,120.0,0.0,0.0
977,75.0,120.0,120.0,0.0,0.0
978,75.0,120.0,120.0,0.0,0.0
979,75.0,120.0,120.0,0.0,0.0
980,68.0,0.0,120.0,0.0,0.0
981,71.0,0.0,15.0,0.0,0.0
982,71.0,120.0,15.0,0.0,0.0
983,73.0,120.0,120.0,0.0,0.0
984,65.0,120.0,120.0,0.0,0.0
985,73.0,0.0,120.0,0.0,0.0
986,73.0,120.0,120.0,0.0,0.0
987,70.0,0.0,120.0,0.0,0.0
988,73.0,120.0,120.0,0.0,0.0
989,66.0,120.0,120.0,0.0,0.0
990,70.0,0.0,120.0,0.0,0.0
991,70.0,120.0,15.0,0.0,0.0
992,63.0,0.0,120.0,0.0,0.0
993,71.0,120.0,15.0,0.0,0.0
994,71.0,120.0,120.0,0.0,0.0
995,68.0,120.0,120.0,0.0,0.0
996,71.0,0.0,120.0,0.0,0.0
997,68.0,120.0,120.0,0.0,0.0
998,65.0,0.0,120.0,0.0,0.0
999,70.0,120.0,120.0,0.0,0.0
1000,62.0,0.0,120.0,0.0,0.0
1001,63.0,120.0,120.0,0.0,0.0
1002,66.0,0.0,120.0,0.0,0.0
1003,68.0,0.0,120.0,0.0,0.0
1004,60.0,120.0,120.0,0.0,0.0
1005,62.0,120.0,120.0,0.0,0.0
1006,65.0,0.0,120.0,0.0,0.0
1007,66.0,0.0,120.0,0.0,0.0
1008,58.0,120.0,120.0,0.0,0.0
1009,65.0,0.0,120.0,0.0,0.0
1010,56.0,120.0,120.0,1.0,0.0
1011,58.0,0.0,120.0,1.0,0.0
1012,63.0,120.0,120.0,0.0,0.0
1013,62.0,120.0,120.0,0.0,0.0
1014,46.0,0.0,120.0,1.0,0.0
1015,63.0,60.0,120.0,0.0,0.0
1016,58.0,0.0,120.0,1.0,0.0
1017,54.0,0.0,120.0,1.0,0.0
1018,65.0,0.0,15.0,0.0,0.0
1019,56.0,0.0,120.0,1.0,0.0
1020,63.0,60.0,60.0,0.0,0.0
1021,53.0,0.0,120.0,1.0,0.0
1022,62.0,120.0,60.0,0.0,0.0
1023,51.0,0.0,120.0,1.0,0.0
1024,54.0,0.0,120.0,1.0,0.0
1025,63.0,120.0,120.0,0.0,0.0
1026,50.0,0.0,120.0,1.0,0.0
1027,53.0,0.0,120.0,1.0,0.0
1028,72.0,0.0,15.0,0.0,0.0
1029,51.0,0.0,120.0,1.0,0.0
1030,48.0,120.0,120.0,1.0,0.0
1031,70.0,60.0,15.0,0.0,0.0
1032,69.0,0.0,60.0,0.0,0.0
1033,70.0,0.0,120.0,0.0,0.0
1034,50.0,120.0,120.0,1.0,0.0
1035,46.0,0.0,15.0,1.0,0.0
1036,42.0,0.0,120.0,1.0,0.0
1037,77.0,60.0,15.0,0.0,0.0
1038,44.0,0.0,120.0,1.0,0.0
1039,41.0,0.0,120.0,1.0,0.0
1040,75.0,0.0,15.0,0.0,0.0
1041,74.0,120.0,60.0,0.0,0.0
1042,42.0,0.0,120.0,1.0,0.0
1043,39.0,0.0,120.0,1.0,0.0
1044,75.0,120.0,120.0,0.0,0.0
1045,70.0,0.0,15.0,0.0,0.0
1046,41.0,120.0,120.0,1.0,0.0
1047,82.0,60.0,480.0,0.0,0.0
1048,38.0,0.0,120.0,1.0,0.0
1049,39.0,0.0,120.0,1.0,0.0
1050,36.0,120.0,120.0,1.0,0.0
1051,34.0,0.0,120.0,1.0,0.0
1052,38.0,120.0,120.0,1.0,0.0
1053,42.0,0.0,120.0,1.0,0.0
1054,39.0,0.0,120.0,1.0,0.0
1055,41.0,60.0,120.0,1.0,0.0
1056,44.0,0.0,120.0,1.0,0.0
1057,82.0,60.0,60.0,0.0,0.0
1058,80.0,0.0,60.0,0.0,0.0
1059,46.0,0.0,120.0,1.0,0.0
1060,80.0,60.0,60.0,0.0,0.0
1061,42.0,60.0,120.0,1.0,0.0
1062,78.0,0.0,60.0,0.0,0.0
1063,44.0,60.0,120.0,1.0,0.0
1064,78.0,60.0,60.0,0.0,0.0
1065,77.0,0.0,60.0,0.0,0.0
1066,46.0,0.0,120.0,1.0,0.0
1067,77.0,60.0,60.0,0.0,0.0
1068,34.0,120.0,120.0,1.0,0.0
1069,75.0,60.0,15.0,0.0,0.0
1070,74.0,0.0,60.0,0.0,0.0
1071,63.0,0.0,120.0,0.0,0.0
1072,54.0,0.0,120.0,1.0,0.0
1073,58.0,40.0,120.0,1.0,0.0
1074,75.0,0.0,120.0,0.0,0.0
1075,56.0,120.0,120.0,1.0,0.0
1076,53.0,0.0,120.0,1.0,0.0
1077,65.0,40.0,40.0,0.0,0.0
1078,63.0,40.0,40.0,0.0,0.0
1079,62.0,0.0,40.0,0.0,0.0
1080,51.0,120.0,120.0,1.0,0.0
1081,54.0,0.0,120.0,1.0,0.0
1082,63.0,0.0,120.0,0.0,0.0
1083,70.0,0.0,120.0,0.0,0.0
1084,50.0,40.0,120.0,1.0,0.0
1085,53.0,0.0,120.0,1.0,0.0
1086,72.0,40.0,40.0,0.0,0.0
1087,51.0,0.0,120.0,1.0,0.0
1088,48.0,0.0,120.0,1.0,0.0
1089,70.0,40.0,40.0,0.0,0.0
1090,69.0,120.0,40.0,0.0,0.0
1091,70.0,120.0,120.0,0.0,0.0
1092,50.0,0.0,120.0,1.0,0.0
1093,46.0,0.0,15.0,1.0,0.0
1094,75.0,0.0,120.0,0.0,0.0
1095,42.0,40.0,120.0,1.0,0.0
1096,44.0,120.0,120.0,1.0,0.0
1097,41.0,0.0,120.0,1.0,0.0
1098,77.0,40.0,40.0,0.0,0.0
1099,75.0,40.0,40.0,0.0,0.0
1100,74.0,0.0,40.0,0.0,0.0
1101,39.0,0.0,120.0,1.0,0.0
1102,75.0,120.0,120.0,0.0,0.0
1103,42.0,0.0,120.0,1.0,0.0
1104,41.0,0.0,120.0,1.0,0.0
1105,38.0,120.0,120.0,1.0,0.0
1106,70.0,120.0,360.0,0.0,0.0
1107,82.0,0.0,360.0,0.0,0.0
1108,36.0,0.0,120.0,1.0,0.0
1109,39.0,120.0,120.0,1.0,0.0
1110,34.0,0.0,120.0,1.0,0.0
1111,38.0,0.0,120.0,1.0,0.0
1112,71.0,0.0,120.0,0.0,0.0
1113,51.0,40.0,120.0,1.0,0.0
1114,54.0,0.0,120.0,1.0,0.0
1115,49.0,120.0,120.0,1.0,0.0
1116,73.0,40.0,40.0,0.0,0.0
1117,52.0,0.0,120.0,1.0,0.0
1118,71.0,40.0,40.0,0.0,0.0
1119,70.0,0.0,40.0,0.0,0.0
1120,47.0,120.0,120.0,1.0,0.0
1121,51.0,0.0,120.0,1.0,0.0
1122,71.0,0.0,120.0,0.0,0.0
1123,78.0,0.0,360.0,0.0,0.0
1124,66.0,0.0,360.0,0.0,0.0
1125,46.0,0.0,120.0,1.0,0.0
1126,49.0,120.0,120.0,1.0,0.0
1127,47.0,120.0,120.0,1.0,0.0
1128,44.0,0.0,120.0,1.0,0.0
1129,46.0,0.0,120.0,1.0,0.0
1130,42.0,120.0,120.0,1.0,0.0
1131,47.0,0.0,120.0,1.0,0.0
1132,68.0,40.0,120.0,0.0,0.0
1133,51.0,0.0,120.0,1.0,0.0
1134,70.0,40.0,40.0,0.0,0.0
1135,46.0,120.0,120.0,1.0,0.0
1136,49.0,0.0,120.0,1.0,0.0
1137,68.0,40.0,40.0,0.0,0.0
1138,67.0,0.0,40.0,0.0,0.0
1139,68.0,0.0,120.0,0.0,0.0
1140,44.0,120.0,120.0,1.0,0.0
1141,47.0,0.0,120.0,1.0,0.0
1142,63.0,0.0,480.0,0.0,0.0
1143,75.0,0.0,480.0,0.0,0.0
1144,43.0,0.0,120.0,1.0,0.0
1145,46.0,120.0,120.0,1.0,0.0
1146,41.0,0.0,120.0,1.0,0.0
1147,44.0,120.0,120.0,1.0,0.0
1148,43.0,120.0,120.0,1.0,0.0
1149,39.0,0.0,120.0,1.0,0.0
1150,40.0,0.0,120.0,1.0,0.0
1151,44.0,120.0,120.0,1.0,0.0
1152,61.0,240.0,120.0,0.0,0.0
1153,73.0,0.0,120.0,0.0,0.0
1154,71.0,0.0,240.0,0.0,0.0
1155,59.0,0.0,240.0,0.0,0.0
1156,44.0,120.0,120.0,1.0,0.0
1157,50.0,0.0,120.0,1.0,0.0
1158,40.0,0.0,120.0,1.0,0.0
1159,70.0,0.0,120.0,0.0,0.0
1160,58.0,120.0,120.0,0.0,0.0
1161,56.0,120.0,120.0,0.0,0.0
1162,68.0,0.0,120.0,0.0,0.0
1163,67.0,0.0,120.0,0.0,0.0
1164,55.0,60.0,120.0,0.0,0.0
1165,51.0,0.0,120.0,1.0,0.0
1166,39.0,0.0,120.0,1.0,0.0
1167,58.0,60.0,60.0,0.0,0.0
1168,55.0,60.0,60.0,0.0,0.0
1169,58.0,60.0,60.0,0.0,0.0
1170,51.0,0.0,120.0,1.0,0.0
1171,63.0,0.0,120.0,0.0,0.0
1172,55.0,60.0,60.0,0.0,0.0
1173,62.0,0.0,120.0,0.0,0.0
1174,59.0,0.0,120.0,0.0,0.0
1175,56.0,60.0,60.0,1.0,0.0
1176,51.0,0.0,120.0,1.0,0.0
1177,53.0,60.0,60.0,1.0,0.0
1178,56.0,60.0,60.0,1.0,0.0
1179,59.0,60.0,120.0,0.0,0.0
1180,53.0,0.0,60.0,1.0,0.0
1181,51.0,0.0,15.0,1.0,0.0
1182,56.0,60.0,60.0,1.0,0.0
1183,62.0,0.0,15.0,0.0,0.0
1184,59.0,0.0,120.0,0.0,0.0
1185,53.0,0.0,60.0,1.0,0.0
1186,55.0,60.0,60.0,1.0,0.0
1187,51.0,60.0,120.0,1.0,0.0
1188,58.0,0.0,60.0,0.0,0.0
1189,63.0,60.0,60.0,0.0,0.0
1190,67.0,60.0,60.0,0.0,0.0
1191,75.0,0.0,120.0,0.0,0.0
1192,70.0,60.0,60.0,0.0,0.0
1193,67.0,60.0,60.0,0.0,0.0
1194,68.0,60.0,60.0,0.0,0.0
1195,63.0,0.0,120.0,0.0,0.0
1196,65.0,0.0,60.0,0.0,0.0
1197,71.0,0.0,15.0,0.0,0.0
1198,68.0,60.0,60.0,0.0,0.0
1199,74.0,60.0,15.0,0.0,0.0
1200,65.0,0.0,60.0,0.0,0.0
1201,71.0,0.0,15.0,0.0,0.0
1202,63.0,60.0,15.0,0.0,0.0
1203,68.0,60.0,60.0,0.0,0.0
1204,74.0,0.0,120.0,0.0,0.0
1205,65.0,0.0,60.0,0.0,0.0
1206,75.0,0.0,120.0,0.0,0.0
1207,70.0,0.0,120.0,0.0,0.0
1208,67.0,60.0,60.0,0.0,0.0
1209,63.0,0.0,60.0,0.0,0.0
1210,58.0,60.0,60.0,0.0,0.0
1211,55.0,60.0,60.0,0.0,0.0
1212,58.0,60.0,60.0,0.0,0.0
1213,63.0,0.0,120.0,0.0,0.0
1214,51.0,60.0,120.0,1.0,0.0
1215,55.0,0.0,60.0,0.0,0.0
1216,56.0,60.0,60.0,1.0,0.0
1217,51.0,0.0,120.0,1.0,0.0
1218,53.0,0.0,60.0,1.0,0.0
1219,59.0,0.0,15.0,0.0,0.0
1220,51.0,0.0,120.0,1.0,0.0
1221,62.0,60.0,15.0,0.0,0.0
1222,56.0,60.0,60.0,1.0,0.0
1223,53.0,0.0,60.0,1.0,0.0
1224,62.0,60.0,120.0,0.0,0.0
1225,59.0,60.0,15.0,0.0,0.0
1226,56.0,60.0,60.0,1.0,0.0
1227,51.0,0.0,120.0,1.0,0.0
1228,53.0,0.0,60.0,1.0,0.0
1229,55.0,60.0,60.0,1.0,0.0
1230,51.0,0.0,120.0,1.0,0.0
1231,58.0,60.0,60.0,0.0,0.0
1232,63.0,60.0,60.0,0.0,0.0
1233,67.0,60.0,60.0,0.0,0.0
1234,75.0,60.0,120.0,0.0,0.0
1235,70.0,60.0,60.0,0.0,0.0
1236,67.0,0.0,60.0,0.0,0.0
1237,71.0,0.0,120.0,0.0,0.0
1238,63.0,60.0,120.0,0.0,0.0
1239,68.0,60.0,60.0,0.0,0.0
1240,65.0,0.0,60.0,0.0,0.0
1241,68.0,60.0,60.0,0.0,0.0
1242,74.0,0.0,15.0,0.0,0.0
1243,71.0,0.0,120.0,0.0,0.0
1244,63.0,60.0,120.0,0.0,0.0
1245,65.0,0.0,60.0,0.0,0.0
1246,74.0,0.0,120.0,0.0,0.0
1247,68.0,60.0,60.0,0.0,0.0
1248,71.0,0.0,120.0,0.0,0.0
1249,65.0,60.0,60.0,0.0,0.0
1250,63.0,0.0,15.0,0.0,0.0
1251,75.0,0.0,120.0,0.0,0.0
1252,70.0,60.0,60.0,0.0,0.0
1253,67.0,60.0,60.0,0.0,0.0
1254,68.0,60.0,60.0,0.0,0.0
1255,73.0,0.0,120.0,0.0,0.0
1256,64.0,60.0,60.0,0.0,0.0
1257,66.0,60.0,60.0,0.0,0.0
1258,71.0,60.0,120.0,0.0,0.0
1259,39.0,0.0,120.0,1.0,0.0
1260,63.0,0.0,60.0,0.0,0.0
1261,64.0,60.0,60.0,0.0,0.0
1262,70.0,0.0,120.0,0.0,0.0
1263,39.0,60.0,120.0,1.0,0.0
1264,61.0,0.0,60.0,0.0,0.0
1265,63.0,60.0,60.0,0.0,0.0
1266,68.0,0.0,120.0,0.0,0.0
1267,59.0,0.0,60.0,0.0,0.0
1268,61.0,60.0,60.0,0.0,0.0
1269,67.0,0.0,120.0,0.0,0.0
1270,39.0,60.0,15.0,1.0,0.0
1271,58.0,60.0,60.0,0.0,0.0
1272,32.0,0.0,120.0,1.0,0.0
1273,59.0,60.0,60.0,0.0,0.0
1274,68.0,0.0,60.0,0.0,0.0
1275,56.0,60.0,60.0,0.0,0.0
1276,59.0,60.0,60.0,0.0,0.0
1277,63.0,110.0,60.0,0.0,0.0
1278,56.0,0.0,120.0,0.0,0.0
1279,70.0,10.0,15.0,0.0,0.0
1280,59.0,0.0,15.0,0.0,0.0
1281,68.0,120.0,15.0,0.0,0.0
1282,63.0,0.0,15.0,0.0,0.0
1283,68.0,60.0,60.0,0.0,0.0
1284,59.0,120.0,120.0,0.0,0.0
1285,67.0,0.0,60.0,0.0,0.0
1286,68.0,60.0,120.0,0.0,0.0
1287,59.0,0.0,120.0,0.0,0.0
1288,63.0,0.0,120.0,0.0,0.0
1289,67.0,60.0,60.0,0.0,0.0
1290,71.0,0.0,60.0,0.0,0.0
1291,63.0,0.0,120.0,0.0,0.0
1292,61.0,120.0,120.0,0.0,0.0
1293,70.0,0.0,60.0,0.0,0.0
1294,68.0,60.0,120.0,0.0,0.0
1295,59.0,0.0,120.0,0.0,0.0
1296,63.0,0.0,120.0,0.0,0.0
1297,32.0,0.0,120.0,1.0,0.0
1298,76.0,60.0,60.0,0.0,0.0
1299,68.0,60.0,60.0,0.0,0.0
1300,75.0,60.0,60.0,0.0,0.0
1301,44.0,0.0,15.0,1.0,0.0
1302,32.0,0.0,120.0,1.0,0.0
1303,66.0,60.0,60.0,0.0,0.0
1304,73.0,60.0,60.0,0.0,0.0
1305,64.0,60.0,60.0,0.0,0.0
1306,44.0,0.0,15.0,1.0,0.0
1307,32.0,0.0,15.0,1.0,0.0
1308,72.0,60.0,60.0,0.0,0.0
1309,63.0,60.0,60.0,0.0,0.0
1310,37.0,0.0,120.0,1.0,0.0
1311,25.0,60.0,120.0,1.0,0.0
1312,73.0,60.0,60.0,0.0,0.0
1313,61.0,0.0,60.0,0.0,0.0
1314,64.0,60.0,60.0,0.0,0.0
1315,68.0,112.0,60.0,0.0,0.0
1316,68.0,0.0,120.0,0.0,0.0
1317,64.0,0.0,120.0,0.0,0.0
1318,75.0,8.0,15.0,0.0,0.0
1319,73.0,120.0,15.0,0.0,0.0
1320,64.0,60.0,15.0,0.0,0.0
1321,68.0,0.0,15.0,0.0,0.0
1322,73.0,0.0,15.0,0.0,0.0
1323,72.0,0.0,60.0,0.0,0.0
1324,73.0,0.0,120.0,0.0,0.0
1325,64.0,60.0,120.0,0.0,0.0
1326,72.0,60.0,60.0,0.0,0.0
1327,68.0,0.0,15.0,0.0,0.0
1328,76.0,0.0,60.0,0.0,0.0
1329,66.0,120.0,120.0,0.0,0.0
1330,75.0,0.0,60.0,0.0,0.0
1331,64.0,0.0,120.0,0.0,0.0
1332,73.0,0.0,120.0,0.0,0.0
1333,80.0,0.0,120.0,0.0,0.0
1334,68.0,120.0,15.0,0.0,0.0
1335,68.0,120.0,120.0,0.0,0.0
1336,80.0,0.0,120.0,0.0,0.0
1337,80.0,0.0,120.0,0.0,0.0
1338,40.0,0.0,120.0,1.0,0.0
1339,52.0,0.0,120.0,1.0,0.0
1340,68.0,120.0,15.0,0.0,0.0
1341,80.0,0.0,120.0,0.0,0.0
1342,52.0,0.0,120.0,1.0,0.0
1343,61.0,0.0,120.0,0.0,0.0
1344,73.0,0.0,120.0,0.0,0.0
1345,40.0,120.0,15.0,1.0,0.0
1346,52.0,120.0,15.0,1.0,0.0
1347,40.0,0.0,15.0,1.0,0.0
1348,73.0,120.0,15.0,0.0,0.0
1349,85.0,0.0,15.0,0.0,0.0
1350,34.0,0.0,120.0,1.0,0.0
1351,46.0,0.0,120.0,1.0,0.0
1352,52.0,0.0,120.0,1.0,0.0
1353,73.0,120.0,15.0,0.0,0.0
1354,85.0,0.0,15.0,0.0,0.0
1355,64.0,120.0,120.0,1.0,0.0
1356,52.0,120.0,120.0,1.0,0.0
1357,64.0,0.0,120.0,1.0,0.0
1358,67.0,0.0,240.0,0.0,0.0
1359,63.0,0.0,120.0,1.0,0.0
1360,51.0,0.0,120.0,1.0,0.0
1361,79.0,120.0,15.0,0.0,0.0
1362,61.0,0.0,120.0,1.0,0.0
1363,49.0,0.0,120.0,1.0,0.0
1364,67.0,0.0,120.0,0.0,0.0
1365,59.0,0.0,120.0,1.0,0.0
1366,47.0,0.0,120.0,1.0,0.0
1367,80.0,0.0,120.0,0.0,0.0
1368,68.0,60.0,120.0,0.0,0.0
1369,58.0,60.0,120.0,1.0,0.0
1370,76.0,60.0,60.0,0.0,0.0
1371,46.0,0.0,120.0,1.0,0.0
1372,73.0,0.0,60.0,0.0,0.0
1373,75.0,60.0,60.0,0.0,0.0
1374,59.0,60.0,120.0,1.0,0.0
1375,47.0,0.0,120.0,1.0,0.0
1376,71.0,0.0,60.0,0.0,0.0
1377,73.0,60.0,60.0,0.0,0.0
1378,49.0,0.0,120.0,1.0,0.0
1379,61.0,60.0,120.0,1.0,0.0
1380,70.0,0.0,60.0,0.0,0.0
1381,63.0,0.0,120.0,1.0,0.0
1382,51.0,0.0,120.0,1.0,0.0
1383,71.0,60.0,60.0,0.0,0.0
1384,68.0,60.0,60.0,0.0,0.0
1385,39.0,0.0,120.0,1.0,0.0
1386,70.0,60.0,60.0,0.0,0.0
1387,51.0,0.0,120.0,1.0,0.0
1388,67.0,60.0,60.0,0.0,0.0
1389,68.0,0.0,120.0,0.0,0.0
1390,44.0,60.0,60.0,1.0,0.0
1391,51.0,60.0,60.0,1.0,0.0
1392,49.0,60.0,60.0,1.0,0.0
1393,47.0,60.0,60.0,1.0,0.0
1394,46.0,60.0,60.0,1.0,0.0
1395,67.0,0.0,120.0,0.0,0.0
1396,44.0,0.0,60.0,1.0,0.0
1397,43.0,60.0,60.0,1.0,0.0
1398,75.0,60.0,15.0,0.0,0.0
1399,73.0,0.0,15.0,0.0,0.0
1400,70.0,0.0,15.0,0.0,0.0
1401,63.0,0.0,15.0,0.0,0.0
1402,40.0,0.0,60.0,1.0,0.0
1403,70.0,0.0,15.0,0.0,0.0
1404,75.0,0.0,15.0,0.0,0.0
1405,67.0,0.0,15.0,0.0,0.0
1406,63.0,60.0,15.0,0.0,0.0
1407,39.0,60.0,60.0,1.0,0.0
1408,37.0,0.0,60.0,1.0,0.0
1409,70.0,0.0,15.0,0.0,0.0
1410,35.0,60.0,60.0,1.0,0.0
1411,75.0,60.0,15.0,0.0,0.0
1412,73.0,0.0,15.0,0.0,0.0
1413,67.0,0.0,15.0,0.0,0.0
1414,63.0,60.0,120.0,0.0,0.0
1415,34.0,0.0,60.0,1.0,0.0
1416,68.0,0.0,120.0,0.0,0.0
1417,71.0,0.0,120.0,0.0,0.0
1418,80.0,0.0,120.0,0.0,0.0
1419,32.0,60.0,60.0,1.0,0.0
1420,75.0,60.0,120.0,0.0,0.0
1421,34.0,0.0,60.0,1.0,0.0
1422,35.0,60.0,60.0,1.0,0.0
1423,37.0,60.0,60.0,1.0,0.0
1424,55.0,0.0,120.0,0.0,0.0
1425,39.0,60.0,60.0,1.0,0.0
1426,58.0,0.0,120.0,0.0,0.0
1427,61.0,0.0,120.0,0.0,0.0
1428,63.0,60.0,120.0,0.0,0.0
1429,38.0,0.0,60.0,1.0,0.0
1430,39.0,60.0,60.0,1.0,0.0
1431,55.0,0.0,120.0,0.0,0.0
1432,58.0,0.0,120.0,0.0,0.0
1433,63.0,0.0,120.0,0.0,0.0
1434,41.0,0.0,60.0,1.0,0.0
1435,58.0,0.0,120.0,0.0,0.0
1436,61.0,60.0,15.0,0.0,0.0
1437,63.0,0.0,120.0,0.0,0.0
1438,43.0,60.0,60.0,1.0,0.0
1439,44.0,0.0,60.0,1.0,0.0
1440,46.0,60.0,60.0,1.0,0.0
1441,55.0,0.0,15.0,0.0,0.0
1442,58.0,0.0,120.0,0.0,0.0
1443,61.0,60.0,120.0,0.0,0.0
1444,63.0,0.0,120.0,0.0,0.0
1445,43.0,0.0,60.0,1.0,0.0
1446,44.0,60.0,60.0,1.0,0.0
1447,56.0,60.0,120.0,0.0,0.0
1448,49.0,0.0,15.0,1.0,0.0
1449,47.0,60.0,60.0,1.0,0.0
1450,70.0,0.0,120.0,0.0,0.0
1451,46.0,60.0,60.0,1.0,0.0
1452,75.0,0.0,120.0,0.0,0.0
1453,73.0,60.0,120.0,0.0,0.0
1454,67.0,0.0,120.0,0.0,0.0
1455,44.0,0.0,60.0,1.0,0.0
1456,63.0,0.0,15.0,0.0,0.0
1457,43.0,60.0,60.0,1.0,0.0
1458,40.0,0.0,60.0,1.0,0.0
1459,75.0,60.0,15.0,0.0,0.0
1460,73.0,0.0,15.0,0.0,0.0
1461,70.0,0.0,15.0,0.0,0.0
1462,67.0,0.0,15.0,0.0,0.0
1463,63.0,0.0,15.0,0.0,0.0
1464,39.0,60.0,60.0,1.0,0.0
1465,37.0,0.0,60.0,1.0,0.0
1466,63.0,60.0,15.0,0.0,0.0
1467,67.0,0.0,120.0,0.0,0.0
1468,70.0,0.0,15.0,0.0,0.0
1469,35.0,60.0,60.0,1.0,0.0
1470,73.0,0.0,120.0,0.0,0.0
1471,34.0,0.0,60.0,1.0,0.0
1472,75.0,60.0,15.0,0.0,0.0
1473,32.0,60.0,60.0,1.0,0.0
1474,68.0,0.0,120.0,0.0,0.0
1475,71.0,0.0,120.0,0.0,0.0
1476,80.0,60.0,120.0,0.0,0.0
1477,34.0,0.0,60.0,1.0,0.0
1478,35.0,60.0,60.0,1.0,0.0
1479,37.0,60.0,60.0,1.0,0.0
1480,61.0,0.0,120.0,0.0,0.0
1481,39.0,60.0,60.0,1.0,0.0
1482,38.0,60.0,60.0,1.0,0.0
1483,63.0,0.0,15.0,0.0,0.0
1484,58.0,0.0,15.0,0.0,0.0
1485,55.0,0.0,15.0,0.0,0.0
1486,61.0,0.0,120.0,0.0,0.0
1487,39.0,60.0,60.0,1.0,0.0
1488,41.0,0.0,60.0,1.0,0.0
1489,55.0,60.0,15.0,0.0,0.0
1490,58.0,0.0,120.0,0.0,0.0
1491,43.0,60.0,60.0,1.0,0.0
1492,63.0,0.0,120.0,0.0,0.0
1493,61.0,0.0,120.0,0.0,0.0
1494,44.0,60.0,60.0,1.0,0.0
1495,55.0,0.0,120.0,0.0,0.0
1496,58.0,0.0,120.0,0.0,0.0
1497,46.0,60.0,60.0,1.0,0.0
1498,63.0,120.0,120.0,0.0,0.0
1499,61.0,0.0,120.0,0.0,0.0
1500,43.0,0.0,60.0,1.0,0.0
1501,56.0,240.0,120.0,0.0,0.0
1502,44.0,0.0,120.0,1.0,0.0
1503,68.0,120.0,120.0,0.0,0.0
1504,72.0,0.0,120.0,0.0,0.0
1505,67.0,120.0,120.0,0.0,0.0
1506,70.0,0.0,120.0,0.0,0.0
1507,65.0,0.0,120.0,0.0,0.0
1508,68.0,120.0,120.0,0.0,0.0
1509,63.0,0.0,120.0,0.0,0.0
1510,67.0,120.0,120.0,0.0,0.0
1511,61.0,0.0,120.0,0.0,0.0
1512,65.0,120.0,120.0,0.0,0.0
1513,63.0,120.0,120.0,0.0,0.0
1514,60.0,0.0,120.0,0.0,0.0
1515,61.0,240.0,120.0,0.0,0.0
1516,58.0,0.0,120.0,0.0,0.0
1517,56.0,60.0,240.0,0.0,0.0
1518,60.0,0.0,240.0,0.0,0.0
1519,44.0,0.0,120.0,1.0,0.0
1520,63.0,60.0,60.0,0.0,0.0
1521,58.0,0.0,60.0,0.0,0.0
1522,43.0,120.0,120.0,1.0,0.0
1523,61.0,0.0,60.0,0.0,0.0
1524,56.0,0.0,120.0,0.0,0.0
1525,60.0,0.0,120.0,0.0,0.0
1526,44.0,120.0,120.0,1.0,0.0
1527,32.0,120.0,120.0,1.0,0.0
1528,72.0,0.0,120.0,0.0,0.0
1529,75.0,120.0,120.0,0.0,0.0
1530,73.0,120.0,120.0,0.0,0.0
1531,70.0,0.0,120.0,0.0,0.0
1532,68.0,0.0,120.0,0.0,0.0
1533,72.0,120.0,120.0,0.0,0.0
1534,67.0,0.0,120.0,0.0,0.0
1535,70.0,120.0,120.0,0.0,0.0
1536,65.0,120.0,120.0,0.0,0.0
1537,68.0,0.0,120.0,0.0,0.0
1538,63.0,120.0,120.0,0.0,0.0
1539,67.0,0.0,120.0,0.0,0.0
1540,61.0,0.0,120.0,0.0,0.0
1541,65.0,240.0,120.0,0.0,0.0
1542,63.0,0.0,240.0,0.0,0.0
1543,60.0,0.0,240.0,0.0,0.0
1544,56.0,120.0,120.0,1.0,0.0
1545,67.0,0.0,15.0,0.0,0.0
1546,65.0,0.0,120.0,0.0,0.0
1547,55.0,0.0,120.0,1.0,0.0
1548,61.0,120.0,120.0,0.0,0.0
1549,63.0,0.0,120.0,0.0,0.0
1550,56.0,120.0,120.0,1.0,0.0
1551,60.0,0.0,120.0,0.0,0.0
1552,44.0,120.0,120.0,1.0,0.0
1553,68.0,120.0,120.0,0.0,0.0
1554,72.0,0.0,120.0,0.0,0.0
1555,67.0,120.0,120.0,1.0,0.0
1556,70.0,0.0,120.0,0.0,0.0
1557,73.0,0.0,120.0,0.0,0.0
1558,68.0,0.0,120.0,1.0,0.0
1559,72.0,0.0,120.0,0.0,0.0
1560,75.0,120.0,120.0,0.0,0.0
1561,65.0,0.0,120.0,1.0,0.0
1562,63.0,0.0,120.0,1.0,0.0
1563,67.0,120.0,120.0,1.0,0.0
1564,73.0,0.0,120.0,0.0,0.0
1565,77.0,0.0,120.0,0.0,0.0
1566,65.0,0.0,120.0,1.0,0.0
1567,61.0,0.0,120.0,1.0,0.0
1568,79.0,120.0,120.0,0.0,0.0
1569,75.0,0.0,120.0,0.0,0.0
1570,63.0,0.0,120.0,1.0,0.0
1571,80.0,120.0,120.0,0.0,0.0
1572,77.0,0.0,120.0,0.0,0.0
1573,60.0,0.0,120.0,1.0,0.0
1574,58.0,0.0,120.0,1.0,0.0
1575,61.0,0.0,120.0,1.0,0.0
1576,82.0,120.0,120.0,0.0,0.0
1577,79.0,0.0,120.0,0.0,0.0
1578,60.0,0.0,120.0,1.0,0.0
1579,56.0,0.0,120.0,1.0,0.0
1580,84.0,120.0,120.0,0.0,0.0
1581,80.0,0.0,120.0,0.0,0.0
1582,58.0,0.0,120.0,1.0,0.0
1583,61.0,0.0,120.0,1.0,0.0
1584,76.0,120.0,120.0,0.0,0.0
1585,79.0,0.0,120.0,0.0,0.0
1586,60.0,120.0,120.0,1.0,0.0
1587,56.0,0.0,120.0,1.0,0.0
1588,77.0,0.0,120.0,0.0,0.0
1589,80.0,0.0,120.0,0.0,0.0
1590,55.0,0.0,120.0,1.0,0.0
1591,58.0,120.0,120.0,1.0,0.0
1592,82.0,0.0,120.0,0.0,0.0
1593,79.0,0.0,120.0,0.0,0.0
1594,77.0,0.0,120.0,0.0,0.0
1595,59.0,0.0,120.0,1.0,0.0
1596,56.0,0.0,120.0,1.0,0.0
1597,74.0,120.0,120.0,0.0,0.0
1598,58.0,0.0,120.0,1.0,0.0
1599,55.0,0.0,120.0,1.0,0.0
1600,75.0,0.0,120.0,0.0,0.0
1601,79.0,120.0,120.0,0.0,0.0
1602,53.0,0.0,120.0,1.0,0.0
1603,56.0,0.0,120.0,1.0,0.0
1604,77.0,120.0,120.0,0.0,0.0
1605,80.0,0.0,120.0,0.0,0.0
1606,72.0,0.0,120.0,0.0,0.0
1607,75.0,120.0,120.0,0.0,0.0
1608,58.0,0.0,120.0,1.0,0.0
1609,55.0,0.0,120.0,1.0,0.0
1610,56.0,120.0,120.0,1.0,0.0
1611,53.0,0.0,120.0,1.0,0.0
1612,77.0,0.0,120.0,0.0,0.0
1613,74.0,0.0,120.0,0.0,0.0
1614,79.0,0.0,120.0,0.0,0.0
1615,75.0,120.0,120.0,0.0,0.0
1616,55.0,0.0,120.0,1.0,0.0
1617,51.0,0.0,120.0,1.0,0.0
1618,53.0,0.0,120.0,1.0,0.0
1619,56.0,120.0,120.0,1.0,0.0
1620,74.0,0.0,120.0,0.0,0.0
1621,68.0,0.0,120.0,0.0,0.0
1622,70.0,0.0,120.0,0.0,0.0
1623,58.0,0.0,120.0,1.0,0.0
1624,55.0,0.0,120.0,1.0,0.0
1625,75.0,120.0,120.0,0.0,0.0
1626,56.0,0.0,120.0,1.0,0.0
1627,68.0,120.0,120.0,0.0,0.0
1628,72.0,0.0,120.0,0.0,0.0
1629,58.0,0.0,120.0,1.0,0.0
1630,67.0,0.0,120.0,0.0,0.0
1631,70.0,120.0,120.0,0.0,0.0
1632,62.0,0.0,120.0,0.0,0.0
1633,68.0,120.0,120.0,0.0,0.0
1634,59.0,0.0,120.0,1.0,0.0
1635,67.0,0.0,120.0,0.0,0.0
1636,60.0,0.0,120.0,1.0,0.0
1637,63.0,120.0,120.0,0.0,0.0
1638,50.0,0.0,120.0,1.0,0.0
1639,56.0,0.0,120.0,0.0,0.0
1640,65.0,120.0,120.0,0.0,0.0
1641,51.0,120.0,120.0,1.0,0.0
1642,55.0,0.0,120.0,0.0,0.0
1643,63.0,0.0,120.0,0.0,0.0
1644,56.0,0.0,120.0,0.0,0.0
1645,60.0,0.0,120.0,0.0,0.0
1646,44.0,120.0,120.0,1.0,0.0
1647,58.0,0.0,120.0,0.0,0.0
1648,55.0,120.0,120.0,0.0,0.0
1649,46.0,0.0,120.0,1.0,0.0
1650,34.0,120.0,120.0,1.0,0.0
1651,50.0,0.0,120.0,1.0,0.0
1652,39.0,120.0,120.0,1.0,0.0
1653,51.0,0.0,120.0,1.0,0.0
1654,27.0,120.0,120.0,1.0,0.0
1655,68.0,120.0,120.0,0.0,0.0
1656,72.0,0.0,120.0,0.0,0.0
1657,73.0,0.0,120.0,0.0,0.0
1658,67.0,120.0,120.0,1.0,0.0
1659,70.0,0.0,120.0,0.0,0.0
1660,75.0,120.0,120.0,0.0,0.0
1661,72.0,0.0,120.0,0.0,0.0
1662,65.0,0.0,120.0,1.0,0.0
1663,68.0,0.0,120.0,1.0,0.0
1664,63.0,0.0,120.0,1.0,0.0
1665,67.0,0.0,120.0,1.0,0.0
1666,77.0,120.0,120.0,0.0,0.0
1667,73.0,0.0,120.0,0.0,0.0
1668,65.0,120.0,120.0,1.0,0.0
1669,61.0,0.0,120.0,1.0,0.0
1670,79.0,0.0,120.0,0.0,0.0
1671,75.0,0.0,120.0,0.0,0.0
1672,80.0,0.0,120.0,0.0,0.0
1673,63.0,120.0,120.0,1.0,0.0
1674,60.0,0.0,120.0,1.0,0.0
1675,77.0,0.0,120.0,0.0,0.0
1676,82.0,0.0,120.0,0.0,0.0
1677,79.0,0.0,120.0,0.0,0.0
1678,58.0,120.0,120.0,1.0,0.0
1679,61.0,0.0,120.0,1.0,0.0
1680,80.0,0.0,120.0,0.0,0.0
1681,84.0,0.0,120.0,0.0,0.0
1682,56.0,0.0,120.0,1.0,0.0
1683,60.0,120.0,120.0,1.0,0.0
1684,58.0,0.0,120.0,1.0,0.0
1685,61.0,0.0,120.0,1.0,0.0
1686,76.0,120.0,120.0,0.0,0.0
1687,79.0,0.0,120.0,0.0,0.0
1688,80.0,0.0,120.0,0.0,0.0
1689,77.0,120.0,120.0,0.0,0.0
1690,60.0,0.0,120.0,1.0,0.0
1691,56.0,0.0,120.0,1.0,0.0
1692,58.0,120.0,120.0,1.0,0.0
1693,55.0,0.0,120.0,1.0,0.0
1694,79.0,0.0,120.0,0.0,0.0
1695,82.0,0.0,120.0,0.0,0.0
1696,74.0,0.0,120.0,0.0,0.0
1697,77.0,0.0,120.0,0.0,0.0
1698,59.0,120.0,120.0,1.0,0.0
1699,56.0,0.0,120.0,1.0,0.0
1700,58.0,0.0,120.0,1.0,0.0
1701,55.0,120.0,120.0,1.0,0.0
1702,75.0,0.0,120.0,0.0,0.0
1703,79.0,0.0,120.0,0.0,0.0
1704,77.0,0.0,120.0,0.0,0.0
1705,80.0,120.0,120.0,0.0,0.0
1706,53.0,0.0,120.0,1.0,0.0
1707,56.0,0.0,120.0,1.0,0.0
1708,58.0,0.0,120.0,1.0,0.0
1709,55.0,120.0,120.0,1.0,0.0
1710,75.0,0.0,120.0,0.0,0.0
1711,72.0,0.0,120.0,0.0,0.0
1712,77.0,120.0,120.0,0.0,0.0
1713,74.0,0.0,120.0,0.0,0.0
1714,53.0,0.0,120.0,1.0,0.0
1715,56.0,0.0,120.0,1.0,0.0
1716,75.0,0.0,120.0,0.0,0.0
1717,79.0,0.0,120.0,0.0,0.0
1718,55.0,0.0,120.0,1.0,0.0
1719,51.0,120.0,120.0,1.0,0.0
1720,56.0,0.0,120.0,1.0,0.0
1721,53.0,0.0,120.0,1.0,0.0
1722,68.0,120.0,120.0,0.0,0.0
1723,74.0,0.0,120.0,0.0,0.0
1724,58.0,0.0,120.0,1.0,0.0
1725,70.0,0.0,120.0,0.0,0.0
1726,75.0,120.0,120.0,0.0,0.0
1727,55.0,0.0,120.0,1.0,0.0
1728,68.0,0.0,120.0,0.0,0.0
1729,72.0,120.0,120.0,0.0,0.0
1730,56.0,0.0,120.0,1.0,0.0
1731,67.0,0.0,120.0,0.0,0.0
1732,70.0,0.0,120.0,0.0,0.0
1733,58.0,120.0,120.0,1.0,0.0
1734,68.0,0.0,120.0,0.0,0.0
1735,62.0,0.0,120.0,0.0,0.0
1736,59.0,120.0,120.0,1.0,0.0
1737,67.0,120.0,120.0,0.0,0.0
1738,63.0,0.0,120.0,0.0,0.0
1739,60.0,0.0,120.0,1.0,0.0
1740,50.0,0.0,120.0,1.0,0.0
1741,56.0,0.0,120.0,0.0,0.0
1742,65.0,120.0,120.0,0.0,0.0
1743,55.0,120.0,120.0,0.0,0.0
1744,63.0,0.0,120.0,0.0,0.0
1745,51.0,0.0,120.0,1.0,0.0
1746,56.0,0.0,120.0,0.0,0.0
1747,60.0,0.0,120.0,0.0,0.0
1748,44.0,120.0,120.0,1.0,0.0
1749,55.0,0.0,120.0,0.0,0.0
1750,58.0,120.0,120.0,0.0,0.0
1751,46.0,0.0,120.0,1.0,0.0
1752,34.0,120.0,120.0,1.0,0.0
1753,50.0,0.0,120.0,1.0,0.0
1754,51.0,0.0,120.0,1.0,0.0
1755,39.0,120.0,120.0,1.0,0.0
1756,27.0,120.0,120.0,1.0,0.0
1757,75.0,120.0,120.0,0.0,0.0
1758,72.0,0.0,120.0,0.0,0.0
1759,73.0,120.0,120.0,0.0,0.0
1760,70.0,0.0,120.0,0.0,0.0
1761,72.0,0.0,120.0,0.0,0.0
1762,69.0,120.0,120.0,0.0,0.0
1763,66.0,120.0,120.0,0.0,0.0
1764,70.0,0.0,120.0,0.0,0.0
1765,65.0,120.0,120.0,0.0,0.0
1766,69.0,0.0,120.0,0.0,0.0
1767,63.0,120.0,120.0,0.0,0.0
1768,66.0,0.0,120.0,0.0,0.0
1769,61.0,120.0,120.0,0.0,0.0
1770,65.0,0.0,120.0,0.0,0.0
1771,60.0,120.0,120.0,0.0,0.0
1772,63.0,0.0,120.0,0.0,0.0
1773,65.0,0.0,120.0,0.0,0.0
1774,61.0,120.0,120.0,0.0,0.0
1775,57.0,0.0,120.0,0.0,0.0
1776,41.0,0.0,120.0,1.0,0.0
1777,60.0,120.0,120.0,0.0,0.0
1778,46.0,0.0,120.0,1.0,0.0
1779,61.0,120.0,120.0,0.0,0.0
1780,58.0,0.0,120.0,0.0,0.0
1781,34.0,120.0,120.0,1.0,0.0
1782,70.0,120.0,120.0,0.0,0.0
1783,73.0,0.0,120.0,0.0,0.0
1784,72.0,120.0,120.0,0.0,0.0
1785,68.0,0.0,120.0,0.0,0.0
1786,70.0,120.0,120.0,0.0,0.0
1787,67.0,0.0,120.0,0.0,0.0
1788,65.0,0.0,120.0,0.0,0.0
1789,68.0,120.0,120.0,0.0,0.0
1790,63.0,120.0,120.0,0.0,0.0
1791,67.0,0.0,120.0,0.0,0.0
1792,65.0,0.0,120.0,0.0,0.0
1793,61.0,120.0,120.0,0.0,0.0
1794,60.0,120.0,120.0,0.0,0.0
1795,63.0,0.0,120.0,0.0,0.0
1796,58.0,120.0,120.0,0.0,0.0
1797,61.0,0.0,120.0,0.0,0.0
1798,63.0,0.0,120.0,0.0,0.0
1799,60.0,120.0,120.0,0.0,0.0
1800,39.0,0.0,120.0,1.0,0.0
1801,58.0,0.0,120.0,0.0,0.0
1802,55.0,120.0,120.0,0.0,0.0
1803,56.0,0.0,120.0,0.0,0.0
1804,60.0,0.0,120.0,0.0,0.0
1805,44.0,120.0,120.0,1.0,0.0
1806,32.0,120.0,120.0,1.0,0.0
1807,60.0,120.0,120.0,0.0,0.0
1808,56.0,0.0,120.0,0.0,0.0
1809,61.0,120.0,120.0,0.0,0.0
1810,58.0,0.0,120.0,0.0,0.0
1811,44.0,0.0,120.0,1.0,0.0
1812,32.0,120.0,120.0,1.0,0.0
1813,61.0,120.0,120.0,0.0,0.0
1814,58.0,0.0,120.0,0.0,0.0
1815,63.0,0.0,120.0,0.0,0.0
1816,60.0,0.0,120.0,0.0,0.0
1817,44.0,120.0,120.0,1.0,0.0
1818,32.0,0.0,120.0,1.0,0.0
1819,51.0,120.0,15.0,1.0,0.0
1820,48.0,0.0,120.0,1.0,0.0
1821,68.0,0.0,120.0,0.0,0.0
1822,63.0,0.0,120.0,0.0,0.0
1823,67.0,120.0,120.0,0.0,0.0
1824,61.0,0.0,120.0,0.0,0.0
1825,46.0,0.0,120.0,1.0,0.0
1826,48.0,0.0,120.0,1.0,0.0
1827,63.0,120.0,120.0,0.0,0.0
1828,44.0,120.0,120.0,1.0,0.0
1829,68.0,0.0,15.0,0.0,0.0
1830,72.0,0.0,120.0,0.0,0.0
1831,70.0,0.0,120.0,0.0,0.0
1832,51.0,0.0,15.0,1.0,0.0
1833,67.0,120.0,120.0,0.0,0.0
1834,39.0,120.0,120.0,1.0,0.0
1835,75.0,0.0,120.0,0.0,0.0
1836,63.0,0.0,120.0,0.0,0.0
1837,80.0,120.0,120.0,0.0,0.0
1838,60.0,0.0,120.0,0.0,0.0
1839,63.0,0.0,240.0,0.0,0.0
1840,58.0,120.0,120.0,0.0,0.0
1841,79.0,0.0,120.0,0.0,0.0
1842,73.0,0.0,120.0,0.0,0.0
1843,75.0,0.0,120.0,0.0,0.0
1844,80.0,120.0,120.0,0.0,0.0
1845,60.0,0.0,120.0,0.0,0.0
1846,56.0,0.0,120.0,0.0,0.0
1847,84.0,0.0,120.0,0.0,0.0
1848,80.0,0.0,120.0,0.0,0.0
1849,63.0,120.0,15.0,0.0,0.0
1850,82.0,0.0,120.0,0.0,0.0
1851,79.0,120.0,120.0,0.0,0.0
1852,51.0,120.0,120.0,0.0,0.0
1853,80.0,0.0,120.0,0.0,0.0
1854,75.0,0.0,120.0,0.0,0.0
1855,59.0,0.0,120.0,0.0,0.0
1856,73.0,0.0,120.0,0.0,0.0
1857,79.0,0.0,120.0,0.0,0.0
1858,58.0,120.0,120.0,0.0,0.0
1859,63.0,120.0,15.0,0.0,0.0
1860,80.0,120.0,120.0,0.0,0.0
1861,75.0,0.0,120.0,0.0,0.0
1862,59.0,0.0,120.0,0.0,0.0
1863,56.0,0.0,120.0,0.0,0.0
1864,83.0,0.0,120.0,0.0,0.0
1865,80.0,0.0,120.0,0.0,0.0
1866,63.0,120.0,15.0,0.0,0.0
1867,79.0,0.0,120.0,0.0,0.0
1868,82.0,0.0,120.0,0.0,0.0
1869,51.0,120.0,120.0,0.0,0.0
1870,84.0,120.0,120.0,0.0,0.0
1871,80.0,0.0,120.0,0.0,0.0
1872,79.0,0.0,120.0,0.0,0.0
1873,82.0,60.0,120.0,0.0,0.0
1874,77.0,0.0,120.0,0.0,0.0
1875,80.0,60.0,120.0,0.0,0.0
1876,65.0,60.0,60.0,0.0,0.0
1877,56.0,0.0,60.0,0.0,0.0
1878,79.0,0.0,120.0,0.0,0.0
1879,58.0,60.0,60.0,0.0,0.0
1880,75.0,120.0,120.0,0.0,0.0
1881,60.0,0.0,60.0,0.0,0.0
1882,73.0,0.0,120.0,0.0,0.0
1883,77.0,0.0,120.0,0.0,0.0
1884,61.0,120.0,120.0,0.0,0.0
1885,63.0,60.0,120.0,0.0,0.0
1886,75.0,0.0,120.0,0.0,0.0
1887,72.0,0.0,120.0,0.0,0.0
1888,73.0,120.0,120.0,0.0,0.0
1889,70.0,0.0,120.0,0.0,0.0
1890,65.0,60.0,60.0,0.0,0.0
1891,67.0,0.0,60.0,0.0,0.0
1892,68.0,120.0,120.0,0.0,0.0
1893,72.0,60.0,240.0,0.0,0.0
1894,63.0,0.0,120.0,0.0,0.0
1895,67.0,120.0,120.0,0.0,0.0
1896,70.0,0.0,60.0,0.0,0.0
1897,75.0,60.0,60.0,0.0,0.0
1898,73.0,0.0,60.0,0.0,0.0
1899,68.0,0.0,120.0,0.0,0.0
1900,72.0,0.0,120.0,0.0,0.0
1901,56.0,120.0,120.0,0.0,0.0
1902,68.0,0.0,120.0,0.0,0.0
1903,72.0,120.0,120.0,0.0,0.0
1904,73.0,120.0,120.0,0.0,0.0
1905,67.0,0.0,120.0,0.0,0.0
1906,70.0,0.0,120.0,0.0,0.0
1907,65.0,120.0,120.0,0.0,0.0
1908,75.0,0.0,120.0,0.0,0.0
1909,72.0,0.0,120.0,0.0,0.0
1910,68.0,0.0,120.0,0.0,0.0
1911,67.0,0.0,120.0,0.0,0.0
1912,63.0,120.0,120.0,0.0,0.0
1913,73.0,0.0,120.0,0.0,0.0
1914,77.0,0.0,120.0,0.0,0.0
1915,65.0,0.0,120.0,0.0,0.0
1916,75.0,0.0,120.0,0.0,0.0
1917,61.0,120.0,120.0,0.0,0.0
1918,79.0,0.0,120.0,0.0,0.0
1919,63.0,0.0,120.0,0.0,0.0
1920,77.0,0.0,120.0,0.0,0.0
1921,60.0,120.0,120.0,0.0,0.0
1922,80.0,0.0,120.0,0.0,0.0
1923,82.0,0.0,120.0,0.0,0.0
1924,79.0,0.0,120.0,0.0,0.0
1925,58.0,120.0,120.0,0.0,0.0
1926,61.0,0.0,120.0,0.0,0.0
1927,80.0,0.0,120.0,0.0,0.0
1928,60.0,0.0,120.0,0.0,0.0
1929,84.0,120.0,120.0,0.0,0.0
1930,56.0,0.0,120.0,0.0,0.0
1931,64.0,0.0,120.0,0.0,0.0
1932,61.0,120.0,120.0,0.0,0.0
1933,82.0,0.0,120.0,0.0,0.0
1934,79.0,0.0,120.0,0.0,0.0
1935,80.0,0.0,120.0,0.0,0.0
1936,60.0,0.0,120.0,0.0,0.0
1937,63.0,0.0,120.0,0.0,0.0
1938,84.0,120.0,120.0,0.0,0.0
1939,58.0,0.0,120.0,0.0,0.0
1940,61.0,0.0,120.0,0.0,0.0
1941,85.0,120.0,120.0,0.0,0.0
1942,82.0,0.0,120.0,0.0,0.0
1943,77.0,0.0,120.0,0.0,0.0
1944,80.0,120.0,120.0,0.0,0.0
1945,60.0,0.0,120.0,0.0,0.0
1946,63.0,0.0,120.0,0.0,0.0
1947,61.0,0.0,120.0,0.0,0.0
1948,58.0,0.0,120.0,0.0,0.0
1949,82.0,120.0,120.0,0.0,0.0
1950,79.0,0.0,120.0,0.0,0.0
1951,60.0,120.0,120.0,0.0,0.0
1952,56.0,0.0,120.0,0.0,0.0
1953,80.0,0.0,120.0,0.0,0.0
1954,84.0,0.0,120.0,0.0,0.0
1955,79.0,0.0,120.0,0.0,0.0
1956,82.0,0.0,120.0,0.0,0.0
1957,52.0,120.0,120.0,1.0,0.0
1958,49.0,0.0,120.0,1.0,0.0
1959,48.0,0.0,120.0,1.0,0.0
1960,51.0,0.0,120.0,1.0,0.0
1961,84.0,120.0,120.0,0.0,0.0
1962,80.0,0.0,120.0,0.0,0.0
1963,46.0,0.0,120.0,1.0,0.0
1964,49.0,0.0,120.0,1.0,0.0
1965,85.0,0.0,120.0,0.0,0.0
1966,82.0,120.0,120.0,0.0,0.0
1967,48.0,120.0,120.0,1.0,0.0
1968,80.0,0.0,120.0,0.0,0.0
1969,77.0,0.0,120.0,0.0,0.0
1970,51.0,0.0,120.0,1.0,0.0
1971,82.0,0.0,120.0,0.0,0.0
1972,79.0,120.0,120.0,0.0,0.0
1973,46.0,0.0,120.0,1.0,0.0
1974,49.0,0.0,120.0,1.0,0.0
1975,84.0,0.0,120.0,0.0,0.0
1976,48.0,0.0,120.0,1.0,0.0
1977,80.0,120.0,120.0,0.0,0.0
1978,44.0,0.0,120.0,1.0,0.0
1979,49.0,0.0,120.0,1.0,0.0
1980,46.0,0.0,120.0,1.0,0.0
1981,73.0,0.0,120.0,0.0,0.0
1982,79.0,120.0,120.0,0.0,0.0
1983,51.0,0.0,120.0,1.0,0.0
1984,48.0,120.0,120.0,1.0,0.0
1985,75.0,0.0,120.0,0.0,0.0
1986,80.0,0.0,120.0,0.0,0.0
1987,77.0,0.0,120.0,0.0,0.0
1988,73.0,120.0,120.0,0.0,0.0
1989,49.0,0.0,120.0,1.0,0.0
1990,75.0,0.0,120.0,0.0,0.0
1991,51.0,120.0,120.0,1.0,0.0
1992,72.0,0.0,120.0,0.0,0.0
1993,67.0,0.0,120.0,0.0,0.0
1994,52.0,120.0,120.0,1.0,0.0
1995,73.0,0.0,120.0,0.0,0.0
1996,68.0,120.0,120.0,0.0,0.0
1997,53.0,0.0,120.0,1.0,0.0
1998,72.0,0.0,120.0,0.0,0.0
1999,55.0,120.0,120.0,1.0,0.0
2000,61.0,0.0,120.0,0.0,0.0
2001,70.0,0.0,120.0,0.0,0.0
2002,68.0,0.0,120.0,0.0,0.0
2003,60.0,120.0,120.0,0.0,0.0
2004,56.0,0.0,120.0,1.0,0.0
2005,61.0,120.0,120.0,0.0,0.0
2006,65.0,0.0,120.0,0.0,0.0
2007,49.0,0.0,120.0,1.0,0.0
2008,60.0,0.0,120.0,0.0,0.0
2009,51.0,120.0,120.0,1.0,0.0
2010,63.0,0.0,120.0,0.0,0.0
2011,55.0,120.0,120.0,0.0,0.0
2012,39.0,0.0,120.0,1.0,0.0
2013,44.0,0.0,120.0,1.0,0.0
2014,56.0,120.0,120.0,0.0,0.0
2015,32.0,115.0,120.0,1.0,0.0
2016,75.0,120.0,120.0,0.0,0.0
2017,72.0,0.0,120.0,0.0,0.0
2018,70.0,120.0,120.0,0.0,0.0
2019,73.0,0.0,120.0,0.0,0.0
2020,72.0,0.0,120.0,0.0,0.0
2021,69.0,120.0,120.0,0.0,0.0
2022,70.0,0.0,120.0,0.0,0.0
2023,66.0,120.0,120.0,0.0,0.0
2024,69.0,120.0,120.0,0.0,0.0
2025,65.0,0.0,120.0,0.0,0.0
2026,63.0,120.0,120.0,0.0,0.0
2027,66.0,0.0,120.0,0.0,0.0
2028,61.0,0.0,120.0,0.0,0.0
2029,65.0,120.0,120.0,0.0,0.0
2030,60.0,0.0,120.0,0.0,0.0
2031,63.0,120.0,120.0,0.0,0.0
2032,65.0,120.0,120.0,0.0,0.0
2033,61.0,0.0,120.0,0.0,0.0
2034,57.0,0.0,120.0,0.0,0.0
2035,60.0,120.0,120.0,0.0,0.0
2036,41.0,0.0,120.0,1.0,0.0
2037,46.0,120.0,120.0,1.0,0.0
2038,61.0,0.0,120.0,0.0,0.0
2039,58.0,0.0,120.0,0.0,0.0
2040,34.0,120.0,120.0,1.0,0.0
2041,70.0,0.0,120.0,0.0,0.0
2042,73.0,120.0,120.0,0.0,0.0
2043,72.0,120.0,120.0,0.0,0.0
2044,68.0,0.0,120.0,0.0,0.0
2045,70.0,120.0,120.0,0.0,0.0
2046,67.0,0.0,120.0,0.0,0.0
2047,65.0,0.0,120.0,0.0,0.0
2048,68.0,120.0,120.0,0.0,0.0
2049,63.0,120.0,120.0,0.0,0.0
2050,67.0,0.0,120.0,0.0,0.0
2051,61.0,0.0,120.0,0.0,0.0
2052,65.0,120.0,120.0,0.0,0.0
2053,60.0,120.0,120.0,0.0,0.0
2054,63.0,0.0,120.0,0.0,0.0
2055,58.0,120.0,120.0,0.0,0.0
2056,61.0,0.0,120.0,0.0,0.0
2057,60.0,0.0,120.0,0.0,0.0
2058,63.0,120.0,120.0,0.0,0.0
2059,55.0,0.0,120.0,0.0,0.0
2060,58.0,0.0,120.0,0.0,0.0
2061,39.0,120.0,120.0,1.0,0.0
2062,60.0,120.0,120.0,0.0,0.0
2063,56.0,0.0,120.0,0.0,0.0
2064,44.0,0.0,120.0,1.0,0.0
2065,32.0,120.0,120.0,1.0,0.0
2066,60.0,0.0,120.0,0.0,0.0
2067,56.0,120.0,120.0,0.0,0.0
2068,58.0,0.0,120.0,0.0,0.0
2069,44.0,120.0,120.0,1.0,0.0
2070,61.0,0.0,120.0,0.0,0.0
2071,32.0,120.0,120.0,1.0,0.0
2072,58.0,0.0,120.0,0.0,0.0
2073,61.0,120.0,120.0,0.0,0.0
2074,51.0,120.0,240.0,1.0,0.0
2075,44.0,0.0,120.0,1.0,0.0
2076,63.0,0.0,120.0,0.0,0.0
2077,60.0,120.0,120.0,0.0,0.0
2078,32.0,0.0,120.0,1.0,0.0
2079,68.0,0.0,120.0,0.0,0.0
2080,63.0,0.0,120.0,0.0,0.0
2081,51.0,120.0,120.0,1.0,0.0
2082,48.0,0.0,120.0,1.0,0.0
2083,61.0,0.0,120.0,0.0,0.0
2084,67.0,0.0,120.0,0.0,0.0
2085,46.0,120.0,120.0,1.0,0.0
2086,63.0,0.0,120.0,0.0,0.0
2087,48.0,120.0,120.0,1.0,0.0
2088,68.0,0.0,15.0,0.0,0.0
2089,72.0,120.0,120.0,0.0,0.0
2090,44.0,0.0,120.0,1.0,0.0
2091,67.0,0.0,120.0,0.0,0.0
2092,70.0,0.0,120.0,0.0,0.0
2093,51.0,0.0,15.0,1.0,0.0
2094,39.0,120.0,120.0,1.0,0.0
2095,75.0,120.0,120.0,0.0,0.0
2096,80.0,0.0,120.0,0.0,0.0
2097,60.0,0.0,120.0,0.0,0.0
2098,58.0,120.0,120.0,0.0,0.0
2099,73.0,0.0,120.0,0.0,0.0
2100,79.0,0.0,120.0,0.0,0.0
2101,63.0,0.0,15.0,0.0,0.0
2102,60.0,0.0,120.0,0.0,0.0
2103,75.0,0.0,120.0,0.0,0.0
2104,80.0,120.0,15.0,0.0,0.0
2105,84.0,0.0,120.0,0.0,0.0
2106,63.0,0.0,15.0,0.0,0.0
2107,56.0,0.0,120.0,0.0,0.0
2108,82.0,0.0,120.0,0.0,0.0
2109,79.0,0.0,120.0,0.0,0.0
2110,63.0,0.0,15.0,0.0,0.0
2111,51.0,120.0,120.0,0.0,0.0
2112,59.0,0.0,120.0,0.0,0.0
2113,63.0,120.0,120.0,0.0,0.0
2114,75.0,0.0,120.0,0.0,0.0
2115,80.0,0.0,120.0,0.0,0.0
2116,58.0,120.0,120.0,0.0,0.0
2117,79.0,0.0,120.0,0.0,0.0
2118,73.0,0.0,120.0,0.0,0.0
2119,59.0,120.0,120.0,0.0,0.0
2120,75.0,0.0,120.0,0.0,0.0
2121,83.0,120.0,120.0,0.0,0.0
2122,80.0,0.0,15.0,0.0,0.0
2123,56.0,0.0,120.0,0.0,0.0
2124,63.0,0.0,15.0,0.0,0.0
2125,63.0,0.0,15.0,0.0,0.0
2126,79.0,120.0,120.0,0.0,0.0
2127,82.0,0.0,120.0,0.0,0.0
2128,51.0,120.0,120.0,0.0,0.0
2129,84.0,120.0,120.0,0.0,0.0
2130,80.0,0.0,120.0,0.0,0.0
2131,82.0,60.0,120.0,0.0,0.0
2132,79.0,0.0,120.0,0.0,0.0
2133,77.0,0.0,120.0,0.0,0.0
2134,65.0,60.0,60.0,0.0,0.0
2135,80.0,60.0,120.0,0.0,0.0
2136,56.0,0.0,60.0,0.0,0.0
2137,75.0,0.0,120.0,0.0,0.0
2138,79.0,0.0,120.0,0.0,0.0
2139,58.0,60.0,60.0,0.0,0.0
2140,60.0,120.0,60.0,0.0,0.0
2141,61.0,120.0,120.0,0.0,0.0
2142,77.0,0.0,120.0,0.0,0.0
2143,73.0,0.0,120.0,0.0,0.0
2144,63.0,60.0,120.0,0.0,0.0
2145,75.0,0.0,120.0,0.0,0.0
2146,72.0,0.0,120.0,0.0,0.0
2147,65.0,60.0,60.0,0.0,0.0
2148,70.0,0.0,120.0,0.0,0.0
2149,73.0,120.0,120.0,0.0,0.0
2150,67.0,0.0,60.0,0.0,0.0
2151,72.0,0.0,240.0,0.0,0.0
2152,68.0,120.0,120.0,0.0,0.0
2153,63.0,60.0,120.0,0.0,0.0
2154,75.0,0.0,60.0,0.0,0.0
2155,70.0,60.0,60.0,0.0,0.0
2156,67.0,120.0,120.0,0.0,0.0
2157,73.0,0.0,60.0,0.0,0.0
2158,72.0,0.0,120.0,0.0,0.0
2159,68.0,0.0,120.0,0.0,0.0
2160,56.0,120.0,120.0,0.0,0.0
2161,72.0,120.0,120.0,0.0,0.0
2162,68.0,0.0,120.0,0.0,0.0
2163,73.0,120.0,120.0,0.0,0.0
2164,67.0,0.0,120.0,0.0,0.0
2165,70.0,0.0,120.0,0.0,0.0
2166,75.0,0.0,120.0,0.0,0.0
2167,72.0,0.0,120.0,0.0,0.0
2168,65.0,120.0,120.0,0.0,0.0
2169,68.0,0.0,120.0,0.0,0.0
2170,77.0,0.0,120.0,0.0,0.0
2171,73.0,0.0,120.0,0.0,0.0
2172,63.0,120.0,120.0,0.0,0.0
2173,67.0,0.0,120.0,0.0,0.0
2174,79.0,0.0,120.0,0.0,0.0
2175,75.0,0.0,120.0,0.0,0.0
2176,61.0,120.0,120.0,0.0,0.0
2177,65.0,0.0,120.0,0.0,0.0
2178,77.0,120.0,120.0,0.0,0.0
2179,63.0,0.0,120.0,0.0,0.0
2180,60.0,0.0,120.0,0.0,0.0
2181,80.0,0.0,120.0,0.0,0.0
2182,61.0,0.0,120.0,0.0,0.0
2183,82.0,0.0,120.0,0.0,0.0
2184,58.0,120.0,120.0,0.0,0.0
2185,79.0,0.0,120.0,0.0,0.0
2186,80.0,0.0,120.0,0.0,0.0
2187,60.0,0.0,120.0,0.0,0.0
2188,84.0,120.0,120.0,0.0,0.0
2189,56.0,0.0,120.0,0.0,0.0
2190,64.0,0.0,120.0,0.0,0.0
2191,61.0,0.0,120.0,0.0,0.0
2192,82.0,120.0,120.0,0.0,0.0
2193,79.0,0.0,120.0,0.0,0.0
2194,80.0,0.0,120.0,0.0,0.0
2195,63.0,0.0,120.0,0.0,0.0
2196,84.0,120.0,120.0,0.0,0.0
2197,60.0,0.0,120.0,0.0,0.0
2198,82.0,0.0,120.0,0.0,0.0
2199,61.0,0.0,120.0,0.0,0.0
2200,85.0,120.0,120.0,0.0,0.0
2201,58.0,0.0,120.0,0.0,0.0
2202,63.0,0.0,120.0,0.0,0.0
2203,60.0,120.0,120.0,0.0,0.0
2204,80.0,0.0,120.0,0.0,0.0
2205,77.0,0.0,120.0,0.0,0.0
2206,79.0,0.0,120.0,0.0,0.0
2207,82.0,120.0,120.0,0.0,0.0
2208,61.0,0.0,120.0,0.0,0.0
2209,58.0,0.0,120.0,0.0,0.0
2210,84.0,0.0,120.0,0.0,0.0
2211,56.0,120.0,120.0,0.0,0.0
2212,60.0,0.0,120.0,0.0,0.0
2213,80.0,0.0,120.0,0.0,0.0
2214,49.0,120.0,120.0,1.0,0.0
2215,52.0,0.0,120.0,1.0,0.0
2216,79.0,0.0,120.0,0.0,0.0
2217,82.0,0.0,120.0,0.0,0.0
2218,84.0,0.0,120.0,0.0,0.0
2219,80.0,0.0,120.0,0.0,0.0
2220,48.0,120.0,120.0,1.0,0.0
2221,51.0,0.0,120.0,1.0,0.0
2222,85.0,120.0,120.0,0.0,0.0
2223,46.0,0.0,120.0,1.0,0.0
2224,49.0,0.0,120.0,1.0,0.0
2225,82.0,0.0,120.0,0.0,0.0
2226,48.0,0.0,120.0,1.0,0.0
2227,51.0,120.0,120.0,1.0,0.0
2228,77.0,0.0,120.0,0.0,0.0
2229,80.0,0.0,120.0,0.0,0.0
2230,46.0,0.0,120.0,1.0,0.0
2231,79.0,0.0,120.0,0.0,0.0
2232,82.0,120.0,120.0,0.0,0.0
2233,49.0,0.0,120.0,1.0,0.0
2234,44.0,120.0,120.0,1.0,0.0
2235,48.0,0.0,120.0,1.0,0.0
2236,84.0,0.0,120.0,0.0,0.0
2237,80.0,0.0,120.0,0.0,0.0
2238,79.0,0.0,120.0,0.0,0.0
2239,73.0,120.0,120.0,0.0,0.0
2240,46.0,0.0,120.0,1.0,0.0
2241,49.0,0.0,120.0,1.0,0.0
2242,80.0,0.0,120.0,0.0,0.0
2243,48.0,0.0,120.0,1.0,0.0
2244,75.0,120.0,120.0,0.0,0.0
2245,51.0,0.0,120.0,1.0,0.0
2246,49.0,120.0,120.0,1.0,0.0
2247,77.0,0.0,120.0,0.0,0.0
2248,73.0,0.0,120.0,0.0,0.0
2249,72.0,0.0,120.0,0.0,0.0
2250,75.0,0.0,120.0,0.0,0.0
2251,51.0,120.0,120.0,1.0,0.0
2252,52.0,0.0,120.0,1.0,0.0
2253,67.0,120.0,120.0,0.0,0.0
2254,73.0,0.0,120.0,0.0,0.0
2255,53.0,120.0,120.0,1.0,0.0
2256,68.0,0.0,120.0,0.0,0.0
2257,72.0,0.0,120.0,0.0,0.0
2258,61.0,120.0,120.0,0.0,0.0
2259,70.0,0.0,120.0,0.0,0.0
2260,55.0,0.0,120.0,1.0,0.0
2261,68.0,120.0,120.0,0.0,0.0
2262,60.0,0.0,120.0,0.0,0.0
2263,56.0,0.0,120.0,1.0,0.0
2264,61.0,120.0,120.0,0.0,0.0
2265,65.0,0.0,120.0,0.0,0.0
2266,49.0,0.0,120.0,1.0,0.0
2267,63.0,0.0,120.0,0.0,0.0
2268,51.0,0.0,120.0,1.0,0.0
2269,60.0,120.0,120.0,0.0,0.0
2270,55.0,0.0,120.0,0.0,0.0
2271,39.0,120.0,120.0,1.0,0.0
2272,56.0,120.0,120.0,0.0,0.0
2273,44.0,0.0,120.0,1.0,0.0
2274,32.0,125.0,120.0,1.0,0.0
2275,39.0,120.0,15.0,1.0,0.0
2276,39.0,120.0,15.0,1.0,0.0
2277,32.0,240.0,120.0,1.0,0.0
2278,63.0,120.0,120.0,1.0,0.0
2279,68.0,0.0,120.0,0.0,0.0
2280,68.0,0.0,120.0,0.0,0.0
2281,59.0,0.0,15.0,1.0,0.0
2282,70.0,0.0,15.0,0.0,0.0
2283,68.0,60.0,60.0,0.0,0.0
2284,63.0,60.0,15.0,1.0,0.0
2285,67.0,120.0,60.0,0.0,0.0
2286,59.0,0.0,15.0,1.0,0.0
2287,63.0,0.0,15.0,1.0,0.0
2288,68.0,0.0,120.0,0.0,0.0
2289,67.0,120.0,120.0,0.0,0.0
2290,71.0,60.0,60.0,0.0,0.0
2291,61.0,0.0,120.0,1.0,0.0
2292,70.0,0.0,60.0,0.0,0.0
2293,68.0,0.0,120.0,0.0,0.0
2294,63.0,0.0,15.0,1.0,0.0
2295,59.0,120.0,120.0,1.0,0.0
2296,44.0,120.0,15.0,1.0,0.0
2297,44.0,120.0,15.0,1.0,0.0
2298,44.0,120.0,15.0,1.0,0.0
2299,37.0,240.0,120.0,1.0,0.0
2300,64.0,0.0,120.0,1.0,0.0
2301,73.0,120.0,120.0,0.0,0.0
2302,68.0,0.0,120.0,1.0,0.0
2303,64.0,0.0,120.0,1.0,0.0
2304,75.0,0.0,15.0,0.0,0.0
2305,73.0,60.0,15.0,0.0,0.0
2306,68.0,0.0,15.0,1.0,0.0
2307,72.0,0.0,60.0,0.0,0.0
2308,73.0,0.0,120.0,0.0,0.0
2309,64.0,120.0,15.0,1.0,0.0
2310,68.0,0.0,15.0,1.0,0.0
2311,76.0,60.0,60.0,0.0,0.0
2312,66.0,0.0,120.0,1.0,0.0
2313,68.0,0.0,15.0,1.0,0.0
2314,72.0,0.0,120.0,0.0,0.0
2315,75.0,0.0,60.0,0.0,0.0
2316,73.0,0.0,120.0,0.0,0.0
2317,68.0,0.0,120.0,1.0,0.0
2318,61.0,120.0,120.0,1.0,0.0
2319,64.0,120.0,15.0,1.0,0.0
2320,76.0,0.0,120.0,0.0,0.0
2321,63.0,0.0,120.0,1.0,0.0
2322,68.0,120.0,120.0,0.0,0.0
2323,59.0,0.0,120.0,1.0,0.0
2324,58.0,0.0,120.0,1.0,0.0
2325,61.0,0.0,120.0,1.0,0.0
2326,67.0,120.0,120.0,0.0,0.0
2327,73.0,120.0,120.0,0.0,0.0
2328,64.0,0.0,120.0,0.0,0.0
2329,56.0,120.0,120.0,1.0,0.0
2330,59.0,0.0,120.0,1.0,0.0
2331,63.0,0.0,120.0,0.0,0.0
2332,58.0,120.0,120.0,1.0,0.0
2333,55.0,0.0,120.0,1.0,0.0
2334,70.0,120.0,120.0,0.0,0.0
2335,55.0,0.0,120.0,1.0,0.0
2336,58.0,120.0,120.0,0.0,0.0
2337,61.0,0.0,120.0,0.0,0.0
2338,56.0,0.0,120.0,1.0,0.0
2339,59.0,0.0,120.0,0.0,0.0
2340,56.0,120.0,120.0,0.0,0.0
2341,50.0,0.0,120.0,1.0,0.0
2342,68.0,0.0,120.0,0.0,0.0
2343,59.0,120.0,15.0,0.0,0.0
2344,51.0,0.0,120.0,1.0,0.0
2345,56.0,120.0,120.0,0.0,0.0
2346,39.0,0.0,120.0,1.0,0.0
2347,55.0,0.0,120.0,0.0,0.0
2348,58.0,120.0,120.0,0.0,0.0
2349,75.0,120.0,120.0,0.0,0.0
2350,75.0,120.0,120.0,0.0,0.0
2351,75.0,120.0,120.0,0.0,0.0
2352,75.0,120.0,120.0,0.0,0.0
2353,68.0,0.0,120.0,0.0,0.0
2354,64.0,0.0,15.0,0.0,0.0
2355,64.0,120.0,120.0,0.0,0.0
2356,64.0,120.0,120.0,0.0,0.0
2357,73.0,0.0,120.0,0.0,0.0
2358,58.0,120.0,120.0,0.0,0.0
2359,73.0,0.0,15.0,0.0,0.0
2360,73.0,0.0,120.0,0.0,0.0
2361,63.0,120.0,15.0,0.0,0.0
2362,66.0,0.0,120.0,0.0,0.0
2363,63.0,120.0,120.0,0.0,0.0
2364,71.0,120.0,120.0,0.0,0.0
2365,63.0,0.0,120.0,0.0,0.0
2366,71.0,120.0,120.0,0.0,0.0
2367,56.0,0.0,120.0,0.0,0.0
2368,71.0,120.0,15.0,0.0,0.0
2369,61.0,0.0,120.0,0.0,0.0
2370,61.0,120.0,120.0,0.0,0.0
2371,64.0,0.0,120.0,0.0,0.0
2372,54.0,120.0,120.0,1.0,0.0
2373,70.0,0.0,120.0,0.0,0.0
2374,59.0,0.0,120.0,1.0,0.0
2375,63.0,120.0,120.0,0.0,0.0
2376,68.0,0.0,120.0,0.0,0.0
2377,52.0,120.0,120.0,1.0,0.0
2378,61.0,120.0,120.0,0.0,0.0
2379,58.0,0.0,120.0,1.0,0.0
2380,51.0,120.0,120.0,1.0,0.0
2381,66.0,0.0,120.0,0.0,0.0
2382,59.0,120.0,120.0,0.0,0.0
2383,56.0,0.0,120.0,1.0,0.0
2384,49.0,0.0,120.0,1.0,0.0
2385,64.0,120.0,120.0,0.0,0.0
2386,54.0,120.0,120.0,1.0,0.0
2387,58.0,0.0,120.0,0.0,0.0
2388,47.0,120.0,120.0,1.0,0.0
2389,63.0,0.0,120.0,0.0,0.0
2390,58.0,0.0,120.0,0.0,0.0
2391,49.0,120.0,120.0,1.0,0.0
2392,51.0,0.0,120.0,1.0,0.0
2393,59.0,120.0,120.0,0.0,0.0
2394,41.0,120.0,120.0,1.0,0.0
2395,56.0,0.0,120.0,0.0,0.0
2396,54.0,120.0,120.0,0.0,0.0
2397,42.0,0.0,120.0,1.0,0.0
2398,53.0,0.0,120.0,0.0,0.0
2399,44.0,120.0,120.0,1.0,0.0
2400,54.0,120.0,120.0,0.0,0.0
2401,51.0,0.0,240.0,1.0,0.0
2402,42.0,0.0,360.0,1.0,0.0
2403,59.0,120.0,120.0,0.0,0.0
2404,58.0,0.0,120.0,0.0,0.0
2405,49.0,60.0,120.0,1.0,0.0
2406,59.0,60.0,120.0,0.0,0.0
2407,47.0,60.0,60.0,1.0,0.0
2408,51.0,0.0,120.0,1.0,0.0
2409,54.0,0.0,60.0,1.0,0.0
2410,52.0,60.0,60.0,1.0,0.0
2411,51.0,60.0,60.0,1.0,0.0
2412,78.0,0.0,120.0,0.0,0.0
2413,49.0,60.0,60.0,1.0,0.0
2414,47.0,60.0,60.0,1.0,0.0
2415,66.0,60.0,120.0,0.0,0.0
2416,46.0,60.0,60.0,1.0,0.0
2417,78.0,0.0,120.0,0.0,0.0
2418,70.0,0.0,120.0,0.0,0.0
2419,44.0,0.0,60.0,1.0,0.0
2420,42.0,60.0,60.0,1.0,0.0
2421,71.0,60.0,120.0,0.0,0.0
2422,68.0,0.0,120.0,0.0,0.0
2423,40.0,0.0,60.0,1.0,0.0
2424,39.0,60.0,60.0,1.0,0.0
2425,78.0,0.0,15.0,0.0,0.0
2426,73.0,0.0,120.0,0.0,0.0
2427,70.0,0.0,120.0,0.0,0.0
2428,37.0,0.0,60.0,1.0,0.0
2429,35.0,60.0,60.0,1.0,0.0
2430,83.0,60.0,120.0,0.0,0.0
2431,37.0,0.0,60.0,1.0,0.0
2432,39.0,60.0,60.0,1.0,0.0
2433,40.0,60.0,60.0,1.0,0.0
2434,42.0,60.0,60.0,1.0,0.0
2435,41.0,0.0,60.0,1.0,0.0
2436,78.0,0.0,15.0,0.0,0.0
2437,66.0,60.0,15.0,0.0,0.0
2438,42.0,60.0,60.0,1.0,0.0
2439,44.0,0.0,60.0,1.0,0.0
2440,66.0,60.0,15.0,0.0,0.0
2441,78.0,0.0,120.0,0.0,0.0
2442,46.0,60.0,60.0,1.0,0.0
2443,47.0,60.0,60.0,1.0,0.0
2444,49.0,60.0,60.0,1.0,0.0
2445,66.0,0.0,120.0,0.0,0.0
2446,78.0,60.0,120.0,0.0,0.0
2447,46.0,0.0,60.0,1.0,0.0
2448,59.0,60.0,120.0,0.0,0.0
2449,71.0,0.0,120.0,0.0,0.0
2450,47.0,60.0,60.0,1.0,0.0
2451,54.0,0.0,60.0,1.0,0.0
2452,52.0,60.0,60.0,1.0,0.0
2453,51.0,60.0,60.0,1.0,0.0
2454,49.0,60.0,60.0,1.0,0.0
2455,66.0,0.0,120.0,0.0,0.0
2456,47.0,0.0,60.0,1.0,0.0
2457,46.0,60.0,60.0,1.0,0.0
2458,78.0,60.0,15.0,0.0,0.0
2459,70.0,0.0,120.0,0.0,0.0
2460,66.0,60.0,120.0,0.0,0.0
2461,44.0,0.0,60.0,1.0,0.0
2462,68.0,0.0,120.0,0.0,0.0
2463,42.0,60.0,60.0,1.0,0.0
2464,71.0,0.0,120.0,0.0,0.0
2465,40.0,0.0,60.0,1.0,0.0
2466,70.0,60.0,120.0,0.0,0.0
2467,73.0,0.0,120.0,0.0,0.0
2468,78.0,60.0,15.0,0.0,0.0
2469,39.0,60.0,60.0,1.0,0.0
2470,37.0,0.0,60.0,1.0,0.0
2471,83.0,60.0,120.0,0.0,0.0
2472,35.0,60.0,60.0,1.0,0.0
2473,37.0,0.0,60.0,1.0,0.0
2474,39.0,60.0,60.0,1.0,0.0
2475,40.0,60.0,60.0,1.0,0.0
2476,42.0,60.0,60.0,1.0,0.0
2477,78.0,60.0,120.0,0.0,0.0
2478,41.0,0.0,60.0,1.0,0.0
2479,42.0,60.0,60.0,1.0,0.0
2480,78.0,60.0,120.0,0.0,0.0
2481,44.0,0.0,60.0,1.0,0.0
2482,46.0,60.0,60.0,1.0,0.0
2483,78.0,0.0,120.0,0.0,0.0
2484,47.0,60.0,60.0,1.0,0.0
2485,49.0,60.0,60.0,1.0,0.0
2486,78.0,120.0,120.0,0.0,0.0
2487,46.0,0.0,60.0,1.0,0.0
2488,47.0,0.0,120.0,1.0,0.0
2489,71.0,240.0,120.0,0.0,0.0
2490,39.0,120.0,120.0,1.0,0.0
2491,39.0,120.0,120.0,1.0,0.0
2492,39.0,120.0,120.0,1.0,0.0
2493,39.0,120.0,120.0,1.0,0.0
2494,32.0,240.0,120.0,1.0,0.0
2495,63.0,0.0,120.0,1.0,0.0
2496,68.0,120.0,120.0,0.0,0.0
2497,59.0,0.0,15.0,1.0,0.0
2498,70.0,0.0,15.0,0.0,0.0
2499,68.0,0.0,15.0,0.0,0.0
2500,59.0,60.0,15.0,1.0,0.0
2501,63.0,0.0,15.0,1.0,0.0
2502,67.0,120.0,60.0,0.0,0.0
2503,68.0,0.0,120.0,0.0,0.0
2504,59.0,0.0,120.0,1.0,0.0
2505,63.0,60.0,15.0,1.0,0.0
2506,67.0,0.0,120.0,0.0,0.0
2507,71.0,60.0,60.0,0.0,0.0
2508,61.0,0.0,120.0,1.0,0.0
2509,70.0,120.0,60.0,0.0,0.0
2510,59.0,0.0,120.0,1.0,0.0
2511,68.0,120.0,120.0,0.0,0.0
2512,63.0,0.0,120.0,1.0,0.0
2513,44.0,120.0,15.0,1.0,0.0
2514,44.0,120.0,120.0,1.0,0.0
2515,44.0,120.0,120.0,1.0,0.0
2516,37.0,240.0,120.0,1.0,0.0
2517,64.0,0.0,120.0,1.0,0.0
2518,68.0,0.0,120.0,1.0,0.0
2519,68.0,0.0,120.0,1.0,0.0
2520,73.0,120.0,15.0,0.0,0.0
2521,75.0,0.0,15.0,0.0,0.0
2522,68.0,0.0,120.0,1.0,0.0
2523,64.0,0.0,15.0,1.0,0.0
2524,73.0,60.0,60.0,0.0,0.0
2525,72.0,0.0,60.0,0.0,0.0
2526,73.0,60.0,120.0,0.0,0.0
2527,64.0,120.0,15.0,1.0,0.0
2528,76.0,60.0,60.0,0.0,0.0
2529,72.0,120.0,120.0,0.0,0.0
2530,66.0,0.0,120.0,1.0,0.0
2531,68.0,0.0,15.0,1.0,0.0
2532,75.0,0.0,60.0,0.0,0.0
2533,64.0,0.0,120.0,1.0,0.0
2534,68.0,0.0,15.0,1.0,0.0
2535,73.0,0.0,120.0,0.0,0.0
2536,76.0,120.0,120.0,0.0,0.0
2537,61.0,0.0,120.0,1.0,0.0
2538,64.0,0.0,120.0,1.0,0.0
2539,59.0,120.0,120.0,1.0,0.0
2540,68.0,0.0,120.0,0.0,0.0
2541,63.0,0.0,120.0,1.0,0.0
2542,67.0,0.0,120.0,0.0,0.0
2543,61.0,0.0,120.0,1.0,0.0
2544,58.0,120.0,120.0,1.0,0.0
2545,73.0,120.0,120.0,0.0,0.0
2546,64.0,0.0,120.0,0.0,0.0
2547,59.0,120.0,120.0,1.0,0.0
2548,56.0,0.0,120.0,1.0,0.0
2549,63.0,120.0,120.0,0.0,0.0
2550,55.0,0.0,120.0,1.0,0.0
2551,58.0,0.0,120.0,1.0,0.0
2552,70.0,120.0,120.0,0.0,0.0
2553,55.0,120.0,120.0,1.0,0.0
2554,61.0,0.0,120.0,0.0,0.0
2555,58.0,0.0,120.0,0.0,0.0
2556,56.0,120.0,120.0,1.0,0.0
2557,56.0,0.0,120.0,0.0,0.0
2558,59.0,0.0,15.0,0.0,0.0
2559,68.0,0.0,120.0,0.0,0.0
2560,50.0,120.0,120.0,1.0,0.0
2561,51.0,0.0,120.0,1.0,0.0
2562,59.0,120.0,120.0,0.0,0.0
2563,56.0,0.0,120.0,0.0,0.0
2564,58.0,120.0,120.0,0.0,0.0
2565,39.0,0.0,120.0,1.0,0.0
2566,55.0,0.0,120.0,0.0,0.0
2567,75.0,120.0,120.0,0.0,0.0
2568,75.0,120.0,15.0,0.0,0.0
2569,64.0,120.0,120.0,0.0,0.0
2570,75.0,0.0,120.0,0.0,0.0
2571,68.0,120.0,120.0,0.0,0.0
2572,64.0,0.0,120.0,0.0,0.0
2573,64.0,120.0,15.0,0.0,0.0
2574,58.0,120.0,120.0,0.0,0.0
2575,73.0,120.0,15.0,0.0,0.0
2576,73.0,120.0,120.0,0.0,0.0
2577,63.0,120.0,120.0,0.0,0.0
2578,73.0,0.0,120.0,0.0,0.0
2579,63.0,0.0,120.0,0.0,0.0
2580,66.0,120.0,120.0,0.0,0.0
2581,63.0,120.0,15.0,0.0,0.0
2582,71.0,120.0,120.0,0.0,0.0
2583,71.0,120.0,120.0,0.0,0.0
2584,56.0,0.0,120.0,0.0,0.0
2585,71.0,120.0,15.0,0.0,0.0
2586,61.0,120.0,120.0,0.0,0.0
2587,64.0,120.0,120.0,0.0,0.0
2588,61.0,0.0,120.0,0.0,0.0
2589,54.0,120.0,120.0,1.0,0.0
2590,70.0,0.0,120.0,0.0,0.0
2591,63.0,0.0,120.0,0.0,0.0
2592,59.0,120.0,120.0,1.0,0.0
2593,52.0,120.0,120.0,1.0,0.0
2594,68.0,0.0,120.0,0.0,0.0
2595,61.0,120.0,120.0,0.0,0.0
2596,58.0,0.0,120.0,1.0,0.0
2597,51.0,0.0,120.0,1.0,0.0
2598,66.0,120.0,120.0,0.0,0.0
2599,56.0,0.0,120.0,1.0,0.0
2600,59.0,120.0,120.0,0.0,0.0
2601,49.0,0.0,120.0,1.0,0.0
2602,64.0,120.0,120.0,0.0,0.0
2603,54.0,0.0,120.0,1.0,0.0
2604,58.0,120.0,120.0,0.0,0.0
2605,63.0,0.0,120.0,0.0,0.0
2606,47.0,120.0,120.0,1.0,0.0
2607,58.0,0.0,120.0,0.0,0.0
2608,49.0,120.0,120.0,1.0,0.0
2609,59.0,0.0,120.0,0.0,0.0
2610,51.0,120.0,120.0,1.0,0.0
2611,56.0,0.0,120.0,0.0,0.0
2612,41.0,120.0,120.0,1.0,0.0
2613,42.0,120.0,120.0,1.0,0.0
2614,54.0,0.0,120.0,0.0,0.0
2615,53.0,120.0,120.0,0.0,0.0
2616,44.0,0.0,120.0,1.0,0.0
2617,42.0,0.0,360.0,1.0,0.0
2618,51.0,0.0,240.0,1.0,0.0
2619,54.0,120.0,120.0,0.0,0.0
2620,59.0,120.0,120.0,0.0,0.0
2621,49.0,0.0,120.0,1.0,0.0
2622,58.0,60.0,120.0,0.0,0.0
2623,47.0,60.0,60.0,1.0,0.0
2624,51.0,0.0,120.0,1.0,0.0
2625,59.0,0.0,120.0,0.0,0.0
2626,54.0,60.0,60.0,1.0,0.0
2627,52.0,60.0,60.0,1.0,0.0
2628,51.0,60.0,60.0,1.0,0.0
2629,49.0,60.0,60.0,1.0,0.0
2630,78.0,0.0,120.0,0.0,0.0
2631,47.0,60.0,60.0,1.0,0.0
2632,46.0,60.0,60.0,1.0,0.0
2633,70.0,0.0,120.0,0.0,0.0
2634,66.0,0.0,120.0,0.0,0.0
2635,44.0,0.0,60.0,1.0,0.0
2636,68.0,60.0,120.0,0.0,0.0
2637,71.0,0.0,120.0,0.0,0.0
2638,78.0,60.0,15.0,0.0,0.0
2639,42.0,60.0,60.0,1.0,0.0
2640,40.0,0.0,60.0,1.0,0.0
2641,78.0,0.0,15.0,0.0,0.0
2642,39.0,60.0,60.0,1.0,0.0
2643,70.0,0.0,120.0,0.0,0.0
2644,73.0,0.0,120.0,0.0,0.0
2645,37.0,0.0,60.0,1.0,0.0
2646,35.0,60.0,60.0,1.0,0.0
2647,83.0,0.0,120.0,0.0,0.0
2648,37.0,60.0,60.0,1.0,0.0
2649,39.0,60.0,60.0,1.0,0.0
2650,40.0,60.0,60.0,1.0,0.0
2651,42.0,60.0,60.0,1.0,0.0
2652,66.0,0.0,120.0,0.0,0.0
2653,78.0,60.0,120.0,0.0,0.0
2654,41.0,0.0,60.0,1.0,0.0
2655,42.0,60.0,60.0,1.0,0.0
2656,78.0,0.0,120.0,0.0,0.0
2657,44.0,60.0,60.0,1.0,0.0
2658,66.0,0.0,15.0,0.0,0.0
2659,46.0,60.0,60.0,1.0,0.0
2660,78.0,0.0,120.0,0.0,0.0
2661,47.0,60.0,60.0,1.0,0.0
2662,78.0,0.0,120.0,0.0,0.0
2663,66.0,60.0,120.0,0.0,0.0
2664,49.0,60.0,60.0,1.0,0.0
2665,46.0,0.0,60.0,1.0,0.0
2666,71.0,0.0,120.0,0.0,0.0
2667,59.0,0.0,120.0,0.0,0.0
2668,47.0,60.0,60.0,1.0,0.0
2669,54.0,60.0,60.0,1.0,0.0
2670,52.0,60.0,60.0,1.0,0.0
2671,51.0,60.0,60.0,1.0,0.0
2672,78.0,0.0,120.0,0.0,0.0
2673,49.0,60.0,60.0,1.0,0.0
2674,47.0,0.0,60.0,1.0,0.0
2675,66.0,60.0,15.0,0.0,0.0
2676,70.0,0.0,120.0,0.0,0.0
2677,46.0,60.0,60.0,1.0,0.0
2678,78.0,0.0,120.0,0.0,0.0
2679,44.0,0.0,60.0,1.0,0.0
2680,68.0,0.0,120.0,0.0,0.0
2681,71.0,0.0,120.0,0.0,0.0
2682,78.0,0.0,120.0,0.0,0.0
2683,42.0,60.0,60.0,1.0,0.0
2684,40.0,60.0,60.0,1.0,0.0
2685,70.0,0.0,120.0,0.0,0.0
2686,78.0,0.0,120.0,0.0,0.0
2687,73.0,0.0,120.0,0.0,0.0
2688,39.0,60.0,60.0,1.0,0.0
2689,37.0,60.0,60.0,1.0,0.0
2690,83.0,0.0,120.0,0.0,0.0
2691,35.0,60.0,60.0,1.0,0.0
2692,37.0,60.0,60.0,1.0,0.0
2693,39.0,60.0,60.0,1.0,0.0
2694,40.0,60.0,60.0,1.0,0.0
2695,42.0,60.0,60.0,1.0,0.0
2696,41.0,60.0,60.0,1.0,0.0
2697,78.0,0.0,15.0,0.0,0.0
2698,42.0,60.0,60.0,1.0,0.0
2699,44.0,0.0,60.0,1.0,0.0
2700,46.0,60.0,60.0,1.0,0.0
2701,78.0,60.0,120.0,0.0,0.0
2702,47.0,0.0,60.0,1.0,0.0
2703,49.0,60.0,60.0,1.0,0.0
2704,78.0,0.0,120.0,0.0,0.0
2705,46.0,120.0,60.0,1.0,0.0
2706,71.0,240.0,120.0,0.0,0.0
2707,47.0,0.0,120.0,1.0,0.0
2708,75.0,120.0,120.0,0.0,0.0
2709,75.0,120.0,120.0,0.0,0.0
2710,75.0,120.0,120.0,0.0,0.0
2711,71.0,0.0,120.0,0.0,0.0
2712,75.0,120.0,120.0,0.0,0.0
2713,68.0,0.0,120.0,0.0,0.0
2714,71.0,120.0,120.0,0.0,0.0
2715,71.0,120.0,120.0,0.0,0.0
2716,71.0,0.0,120.0,0.0,0.0
2717,65.0,0.0,120.0,0.0,0.0
2718,73.0,120.0,15.0,0.0,0.0
2719,73.0,120.0,15.0,0.0,0.0
2720,70.0,120.0,120.0,0.0,0.0
2721,73.0,0.0,120.0,0.0,0.0
2722,70.0,120.0,120.0,0.0,0.0
2723,66.0,0.0,120.0,0.0,0.0
2724,70.0,120.0,120.0,0.0,0.0
2725,70.0,0.0,120.0,0.0,0.0
2726,63.0,120.0,120.0,0.0,0.0
2727,71.0,120.0,15.0,0.0,0.0
2728,71.0,120.0,120.0,0.0,0.0
2729,68.0,0.0,120.0,0.0,0.0
2730,71.0,120.0,120.0,0.0,0.0
2731,65.0,0.0,120.0,0.0,0.0
2732,68.0,120.0,120.0,0.0,0.0
2733,62.0,120.0,120.0,0.0,0.0
2734,70.0,0.0,120.0,0.0,0.0
2735,66.0,120.0,120.0,0.0,0.0
2736,63.0,0.0,120.0,0.0,0.0
2737,68.0,120.0,120.0,0.0,0.0
2738,60.0,0.0,120.0,0.0,0.0
2739,62.0,120.0,120.0,0.0,0.0
2740,65.0,0.0,120.0,0.0,0.0
2741,58.0,120.0,120.0,0.0,0.0
2742,66.0,0.0,120.0,0.0,0.0
2743,56.0,0.0,120.0,1.0,0.0
2744,65.0,120.0,120.0,0.0,0.0
2745,58.0,0.0,120.0,1.0,0.0
2746,63.0,120.0,120.0,0.0,0.0
2747,46.0,120.0,120.0,1.0,0.0
2748,62.0,0.0,120.0,0.0,0.0
2749,58.0,0.0,120.0,1.0,0.0
2750,54.0,60.0,120.0,1.0,0.0
2751,65.0,0.0,15.0,0.0,0.0
2752,63.0,0.0,15.0,0.0,0.0
2753,56.0,0.0,120.0,1.0,0.0
2754,53.0,120.0,120.0,1.0,0.0
2755,62.0,0.0,60.0,0.0,0.0
2756,63.0,120.0,120.0,0.0,0.0
2757,51.0,0.0,120.0,1.0,0.0
2758,54.0,0.0,120.0,1.0,0.0
2759,50.0,60.0,120.0,1.0,0.0
2760,53.0,0.0,120.0,1.0,0.0
2761,72.0,0.0,15.0,0.0,0.0
2762,70.0,0.0,15.0,0.0,0.0
2763,51.0,120.0,120.0,1.0,0.0
2764,48.0,0.0,120.0,1.0,0.0
2765,69.0,0.0,60.0,0.0,0.0
2766,70.0,120.0,120.0,0.0,0.0
2767,50.0,0.0,120.0,1.0,0.0
2768,42.0,0.0,120.0,1.0,0.0
2769,46.0,0.0,15.0,1.0,0.0
2770,75.0,60.0,120.0,0.0,0.0
2771,77.0,0.0,15.0,0.0,0.0
2772,44.0,0.0,120.0,1.0,0.0
2773,41.0,120.0,120.0,1.0,0.0
2774,75.0,60.0,60.0,0.0,0.0
2775,74.0,0.0,60.0,0.0,0.0
2776,75.0,0.0,120.0,0.0,0.0
2777,42.0,0.0,120.0,1.0,0.0
2778,39.0,0.0,120.0,1.0,0.0
2779,70.0,120.0,15.0,0.0,0.0
2780,38.0,0.0,120.0,1.0,0.0
2781,41.0,120.0,120.0,1.0,0.0
2782,39.0,0.0,120.0,1.0,0.0
2783,36.0,120.0,120.0,1.0,0.0
2784,34.0,120.0,120.0,1.0,0.0
2785,38.0,0.0,120.0,1.0,0.0
2786,42.0,0.0,120.0,1.0,0.0
2787,39.0,0.0,120.0,1.0,0.0
2788,41.0,0.0,120.0,1.0,0.0
2789,44.0,60.0,120.0,1.0,0.0
2790,82.0,60.0,15.0,0.0,0.0
2791,80.0,0.0,60.0,0.0,0.0
2792,80.0,60.0,60.0,0.0,0.0
2793,46.0,60.0,120.0,1.0,0.0
2794,42.0,0.0,120.0,1.0,0.0
2795,44.0,0.0,120.0,1.0,0.0
2796,78.0,0.0,15.0,0.0,0.0
2797,77.0,60.0,15.0,0.0,0.0
2798,46.0,0.0,120.0,1.0,0.0
2799,75.0,60.0,60.0,0.0,0.0
2800,34.0,0.0,120.0,1.0,0.0
2801,75.0,60.0,60.0,0.0,0.0
2802,74.0,120.0,60.0,0.0,0.0
2803,63.0,0.0,120.0,0.0,0.0
2804,54.0,0.0,120.0,1.0,0.0
2805,58.0,40.0,120.0,1.0,0.0
2806,75.0,0.0,120.0,0.0,0.0
2807,53.0,0.0,120.0,1.0,0.0
2808,56.0,0.0,120.0,1.0,0.0
2809,65.0,40.0,40.0,0.0,0.0
2810,63.0,40.0,40.0,0.0,0.0
2811,62.0,120.0,40.0,0.0,0.0
2812,51.0,0.0,120.0,1.0,0.0
2813,54.0,0.0,120.0,1.0,0.0
2814,63.0,120.0,120.0,0.0,0.0
2815,53.0,40.0,120.0,1.0,0.0
2816,50.0,0.0,120.0,1.0,0.0
2817,70.0,0.0,120.0,0.0,0.0
2818,72.0,40.0,40.0,0.0,0.0
2819,51.0,0.0,120.0,1.0,0.0
2820,48.0,120.0,120.0,1.0,0.0
2821,70.0,40.0,40.0,0.0,0.0
2822,69.0,0.0,40.0,0.0,0.0
2823,70.0,0.0,120.0,0.0,0.0
2824,50.0,120.0,120.0,1.0,0.0
2825,42.0,0.0,120.0,1.0,0.0
2826,75.0,40.0,120.0,0.0,0.0
2827,46.0,0.0,15.0,1.0,0.0
2828,44.0,120.0,120.0,1.0,0.0
2829,41.0,0.0,120.0,1.0,0.0
2830,77.0,40.0,40.0,0.0,0.0
2831,75.0,40.0,40.0,0.0,0.0
2832,74.0,0.0,40.0,0.0,0.0
2833,75.0,120.0,120.0,0.0,0.0
2834,42.0,0.0,120.0,1.0,0.0
2835,39.0,0.0,120.0,1.0,0.0
2836,38.0,0.0,120.0,1.0,0.0
2837,41.0,120.0,120.0,1.0,0.0
2838,70.0,120.0,360.0,0.0,0.0
2839,82.0,0.0,360.0,0.0,0.0
2840,39.0,0.0,120.0,1.0,0.0
2841,36.0,120.0,120.0,1.0,0.0
2842,38.0,0.0,120.0,1.0,0.0
2843,34.0,0.0,120.0,1.0,0.0
2844,51.0,0.0,120.0,1.0,0.0
2845,71.0,0.0,120.0,0.0,0.0
2846,54.0,40.0,120.0,1.0,0.0
2847,73.0,40.0,40.0,0.0,0.0
2848,49.0,120.0,120.0,1.0,0.0
2849,52.0,0.0,120.0,1.0,0.0
2850,71.0,40.0,40.0,0.0,0.0
2851,70.0,0.0,40.0,0.0,0.0
2852,51.0,120.0,120.0,1.0,0.0
2853,71.0,0.0,120.0,0.0,0.0
2854,47.0,0.0,120.0,1.0,0.0
2855,46.0,120.0,120.0,1.0,0.0
2856,49.0,0.0,120.0,1.0,0.0
2857,66.0,120.0,360.0,0.0,0.0
2858,78.0,0.0,360.0,0.0,0.0
2859,44.0,0.0,120.0,1.0,0.0
2860,47.0,120.0,120.0,1.0,0.0
2861,42.0,0.0,120.0,1.0,0.0
2862,46.0,0.0,120.0,1.0,0.0
2863,47.0,0.0,120.0,1.0,0.0
2864,51.0,0.0,120.0,1.0,0.0
2865,68.0,40.0,120.0,0.0,0.0
2866,46.0,0.0,120.0,1.0,0.0
2867,49.0,120.0,120.0,1.0,0.0
2868,70.0,40.0,40.0,0.0,0.0
2869,68.0,40.0,40.0,0.0,0.0
2870,67.0,0.0,40.0,0.0,0.0
2871,68.0,0.0,120.0,0.0,0.0
2872,44.0,0.0,120.0,1.0,0.0
2873,47.0,120.0,120.0,1.0,0.0
2874,75.0,0.0,480.0,0.0,0.0
2875,63.0,0.0,480.0,0.0,0.0
2876,46.0,120.0,120.0,1.0,0.0
2877,43.0,0.0,120.0,1.0,0.0
2878,44.0,0.0,120.0,1.0,0.0
2879,41.0,120.0,120.0,1.0,0.0
2880,39.0,120.0,120.0,1.0,0.0
2881,43.0,0.0,120.0,1.0,0.0
2882,40.0,120.0,120.0,1.0,0.0
2883,44.0,0.0,120.0,1.0,0.0
2884,73.0,240.0,120.0,0.0,0.0
2885,61.0,0.0,120.0,0.0,0.0
2886,59.0,120.0,240.0,0.0,0.0
2887,71.0,0.0,240.0,0.0,0.0
2888,44.0,0.0,120.0,1.0,0.0
2889,40.0,0.0,120.0,1.0,0.0
2890,50.0,0.0,120.0,1.0,0.0
2891,58.0,0.0,120.0,0.0,0.0
2892,70.0,120.0,120.0,0.0,0.0
2893,68.0,120.0,120.0,0.0,0.0
2894,56.0,0.0,120.0,0.0,0.0
2895,55.0,0.0,120.0,0.0,0.0
2896,67.0,0.0,120.0,0.0,0.0
2897,51.0,60.0,120.0,1.0,0.0
2898,39.0,0.0,120.0,1.0,0.0
2899,58.0,60.0,60.0,0.0,0.0
2900,55.0,60.0,60.0,0.0,0.0
2901,58.0,60.0,60.0,0.0,0.0
2902,63.0,0.0,120.0,0.0,0.0
2903,51.0,0.0,120.0,1.0,0.0
2904,55.0,60.0,60.0,0.0,0.0
2905,56.0,60.0,60.0,1.0,0.0
2906,51.0,60.0,120.0,1.0,0.0
2907,62.0,0.0,120.0,0.0,0.0
2908,53.0,0.0,60.0,1.0,0.0
2909,59.0,0.0,15.0,0.0,0.0
2910,51.0,0.0,120.0,1.0,0.0
2911,56.0,60.0,60.0,1.0,0.0
2912,62.0,0.0,120.0,0.0,0.0
2913,53.0,0.0,60.0,1.0,0.0
2914,56.0,60.0,60.0,1.0,0.0
2915,59.0,60.0,15.0,0.0,0.0
2916,62.0,0.0,120.0,0.0,0.0
2917,53.0,0.0,60.0,1.0,0.0
2918,51.0,0.0,15.0,1.0,0.0
2919,55.0,60.0,60.0,1.0,0.0
2920,58.0,0.0,60.0,0.0,0.0
2921,63.0,60.0,60.0,0.0,0.0
2922,67.0,60.0,60.0,0.0,0.0
2923,70.0,60.0,60.0,0.0,0.0
2924,75.0,60.0,120.0,0.0,0.0
2925,67.0,0.0,60.0,0.0,0.0
2926,68.0,60.0,60.0,0.0,0.0
2927,63.0,60.0,120.0,0.0,0.0
2928,71.0,0.0,120.0,0.0,0.0
2929,74.0,0.0,120.0,0.0,0.0
2930,65.0,0.0,60.0,0.0,0.0
2931,68.0,60.0,60.0,0.0,0.0
2932,63.0,60.0,120.0,0.0,0.0
2933,71.0,0.0,120.0,0.0,0.0
2934,65.0,0.0,60.0,0.0,0.0
2935,74.0,0.0,15.0,0.0,0.0
2936,63.0,60.0,120.0,0.0,0.0
2937,71.0,0.0,120.0,0.0,0.0
2938,68.0,60.0,60.0,0.0,0.0
2939,65.0,0.0,60.0,0.0,0.0
2940,75.0,0.0,120.0,0.0,0.0
2941,67.0,60.0,60.0,0.0,0.0
2942,70.0,0.0,120.0,0.0,0.0
2943,63.0,0.0,60.0,0.0,0.0
2944,58.0,60.0,60.0,0.0,0.0
2945,55.0,60.0,60.0,0.0,0.0
2946,58.0,60.0,60.0,0.0,0.0
2947,63.0,0.0,120.0,0.0,0.0
2948,55.0,0.0,60.0,0.0,0.0
2949,62.0,60.0,120.0,0.0,0.0
2950,51.0,60.0,15.0,1.0,0.0
2951,56.0,60.0,60.0,1.0,0.0
2952,53.0,0.0,60.0,1.0,0.0
2953,59.0,0.0,15.0,0.0,0.0
2954,56.0,60.0,60.0,1.0,0.0
2955,51.0,60.0,120.0,1.0,0.0
2956,62.0,0.0,120.0,0.0,0.0
2957,53.0,0.0,60.0,1.0,0.0
2958,59.0,0.0,120.0,0.0,0.0
2959,56.0,60.0,60.0,1.0,0.0
2960,62.0,60.0,120.0,0.0,0.0
2961,51.0,0.0,120.0,1.0,0.0
2962,53.0,0.0,60.0,1.0,0.0
2963,55.0,60.0,60.0,1.0,0.0
2964,51.0,0.0,120.0,1.0,0.0
2965,58.0,60.0,60.0,0.0,0.0
2966,63.0,60.0,60.0,0.0,0.0
2967,67.0,60.0,60.0,0.0,0.0
2968,70.0,60.0,60.0,0.0,0.0
2969,75.0,60.0,120.0,0.0,0.0
2970,67.0,0.0,60.0,0.0,0.0
2971,68.0,60.0,60.0,0.0,0.0
2972,63.0,60.0,120.0,0.0,0.0
2973,71.0,0.0,120.0,0.0,0.0
2974,65.0,0.0,60.0,0.0,0.0
2975,74.0,0.0,15.0,0.0,0.0
2976,68.0,60.0,60.0,0.0,0.0
2977,63.0,0.0,120.0,0.0,0.0
2978,71.0,0.0,120.0,0.0,0.0
2979,65.0,60.0,60.0,0.0,0.0
2980,63.0,60.0,120.0,0.0,0.0
2981,74.0,0.0,120.0,0.0,0.0
2982,71.0,0.0,120.0,0.0,0.0
2983,68.0,60.0,60.0,0.0,0.0
2984,65.0,0.0,60.0,0.0,0.0
2985,75.0,60.0,120.0,0.0,0.0
2986,70.0,60.0,60.0,0.0,0.0
2987,63.0,0.0,120.0,0.0,0.0
2988,67.0,0.0,60.0,0.0,0.0
2989,68.0,60.0,60.0,0.0,0.0
2990,73.0,60.0,120.0,0.0,0.0
2991,64.0,0.0,60.0,0.0,0.0
2992,71.0,0.0,120.0,0.0,0.0
2993,66.0,60.0,60.0,0.0,0.0
2994,39.0,60.0,120.0,1.0,0.0
2995,63.0,0.0,60.0,0.0,0.0
2996,64.0,60.0,60.0,0.0,0.0
2997,70.0,60.0,120.0,0.0,0.0
2998,61.0,0.0,60.0,0.0,0.0
2999,39.0,0.0,15.0,1.0,0.0
3000,63.0,60.0,60.0,0.0,0.0
3001,68.0,0.0,120.0,0.0,0.0
3002,59.0,0.0,60.0,0.0,0.0
3003,61.0,60.0,60.0,0.0,0.0
3004,67.0,0.0,120.0,0.0,0.0
3005,39.0,0.0,120.0,1.0,0.0
3006,58.0,60.0,60.0,0.0,0.0
3007,59.0,60.0,60.0,0.0,0.0
3008,32.0,60.0,120.0,1.0,0.0
3009,68.0,0.0,60.0,0.0,0.0
3010,56.0,0.0,60.0,0.0,0.0
3011,59.0,60.0,60.0,0.0,0.0
3012,63.0,110.0,60.0,0.0,0.0
3013,56.0,120.0,120.0,0.0,0.0
3014,59.0,0.0,120.0,0.0,0.0
3015,70.0,10.0,15.0,0.0,0.0
3016,63.0,0.0,120.0,0.0,0.0
3017,68.0,0.0,15.0,0.0,0.0
3018,59.0,0.0,15.0,0.0,0.0
3019,68.0,60.0,60.0,0.0,0.0
3020,63.0,0.0,120.0,0.0,0.0
3021,67.0,0.0,60.0,0.0,0.0
3022,68.0,60.0,120.0,0.0,0.0
3023,59.0,0.0,120.0,0.0,0.0
3024,63.0,0.0,120.0,0.0,0.0
3025,61.0,0.0,120.0,0.0,0.0
3026,67.0,0.0,60.0,0.0,0.0
3027,71.0,60.0,60.0,0.0,0.0
3028,70.0,0.0,60.0,0.0,0.0
3029,68.0,60.0,120.0,0.0,0.0
3030,63.0,120.0,15.0,0.0,0.0
3031,59.0,0.0,120.0,0.0,0.0
3032,32.0,0.0,120.0,1.0,0.0
3033,76.0,60.0,60.0,0.0,0.0
3034,68.0,0.0,60.0,0.0,0.0
3035,44.0,60.0,15.0,1.0,0.0
3036,75.0,60.0,60.0,0.0,0.0
3037,66.0,0.0,60.0,0.0,0.0
3038,32.0,60.0,15.0,1.0,0.0
3039,44.0,0.0,15.0,1.0,0.0
3040,73.0,60.0,60.0,0.0,0.0
3041,64.0,0.0,60.0,0.0,0.0
3042,32.0,60.0,15.0,1.0,0.0
3043,44.0,0.0,15.0,1.0,0.0
3044,72.0,60.0,60.0,0.0,0.0
3045,63.0,0.0,60.0,0.0,0.0
3046,73.0,60.0,60.0,0.0,0.0
3047,25.0,0.0,120.0,1.0,0.0
3048,37.0,60.0,120.0,1.0,0.0
3049,61.0,0.0,60.0,0.0,0.0
3050,64.0,60.0,60.0,0.0,0.0
3051,68.0,112.0,60.0,0.0,0.0
3052,68.0,0.0,120.0,0.0,0.0
3053,64.0,0.0,120.0,0.0,0.0
3054,75.0,8.0,15.0,0.0,0.0
3055,73.0,120.0,15.0,0.0,0.0
3056,64.0,0.0,120.0,0.0,0.0
3057,64.0,0.0,120.0,0.0,0.0
3058,68.0,0.0,15.0,0.0,0.0
3059,73.0,60.0,60.0,0.0,0.0
3060,72.0,0.0,60.0,0.0,0.0
3061,73.0,0.0,120.0,0.0,0.0
3062,64.0,0.0,120.0,0.0,0.0
3063,76.0,0.0,60.0,0.0,0.0
3064,68.0,60.0,15.0,0.0,0.0
3065,72.0,60.0,60.0,0.0,0.0
3066,66.0,120.0,120.0,0.0,0.0
3067,75.0,0.0,60.0,0.0,0.0
3068,68.0,0.0,120.0,0.0,0.0
3069,64.0,0.0,120.0,0.0,0.0
3070,73.0,120.0,120.0,0.0,0.0
3071,80.0,0.0,120.0,0.0,0.0
3072,80.0,0.0,120.0,0.0,0.0
3073,68.0,120.0,15.0,0.0,0.0
3074,80.0,0.0,120.0,0.0,0.0
3075,68.0,120.0,15.0,0.0,0.0
3076,68.0,120.0,120.0,0.0,0.0
3077,80.0,0.0,120.0,0.0,0.0
3078,52.0,0.0,15.0,1.0,0.0
3079,40.0,0.0,15.0,1.0,0.0
3080,73.0,120.0,120.0,0.0,0.0
3081,61.0,0.0,120.0,0.0,0.0
3082,52.0,0.0,120.0,1.0,0.0
3083,40.0,120.0,15.0,1.0,0.0
3084,52.0,0.0,120.0,1.0,0.0
3085,85.0,120.0,120.0,0.0,0.0
3086,73.0,0.0,120.0,0.0,0.0
3087,34.0,0.0,120.0,1.0,0.0
3088,46.0,120.0,120.0,1.0,0.0
3089,85.0,0.0,15.0,0.0,0.0
3090,73.0,0.0,15.0,0.0,0.0
3091,85.0,0.0,120.0,0.0,0.0
3092,73.0,120.0,120.0,0.0,0.0
3093,52.0,0.0,120.0,1.0,0.0
3094,64.0,0.0,120.0,1.0,0.0
3095,52.0,120.0,120.0,1.0,0.0
3096,64.0,0.0,120.0,1.0,0.0
3097,67.0,0.0,240.0,0.0,0.0
3098,63.0,0.0,120.0,1.0,0.0
3099,51.0,120.0,120.0,1.0,0.0
3100,67.0,0.0,120.0,0.0,0.0
3101,79.0,0.0,15.0,0.0,0.0
3102,61.0,0.0,120.0,1.0,0.0
3103,49.0,0.0,120.0,1.0,0.0
3104,59.0,0.0,120.0,1.0,0.0
3105,47.0,60.0,120.0,1.0,0.0
3106,68.0,0.0,120.0,0.0,0.0
3107,80.0,0.0,120.0,0.0,0.0
3108,58.0,0.0,120.0,1.0,0.0
3109,76.0,60.0,60.0,0.0,0.0
3110,46.0,0.0,120.0,1.0,0.0
3111,73.0,60.0,60.0,0.0,0.0
3112,47.0,0.0,120.0,1.0,0.0
3113,59.0,0.0,120.0,1.0,0.0
3114,75.0,60.0,60.0,0.0,0.0
3115,71.0,60.0,60.0,0.0,0.0
3116,73.0,60.0,60.0,0.0,0.0
3117,49.0,0.0,120.0,1.0,0.0
3118,61.0,60.0,120.0,1.0,0.0
3119,70.0,0.0,60.0,0.0,0.0
3120,63.0,60.0,120.0,1.0,0.0
3121,71.0,60.0,60.0,0.0,0.0
3122,51.0,0.0,120.0,1.0,0.0
3123,68.0,0.0,60.0,0.0,0.0
3124,70.0,60.0,60.0,0.0,0.0
3125,39.0,60.0,120.0,1.0,0.0
3126,51.0,0.0,120.0,1.0,0.0
3127,67.0,0.0,60.0,0.0,0.0
3128,68.0,0.0,120.0,0.0,0.0
3129,44.0,60.0,60.0,1.0,0.0
3130,51.0,60.0,60.0,1.0,0.0
3131,49.0,60.0,60.0,1.0,0.0
3132,47.0,60.0,60.0,1.0,0.0
3133,46.0,60.0,60.0,1.0,0.0
3134,44.0,0.0,60.0,1.0,0.0
3135,70.0,60.0,15.0,0.0,0.0
3136,43.0,60.0,60.0,1.0,0.0
3137,73.0,0.0,15.0,0.0,0.0
3138,75.0,0.0,15.0,0.0,0.0
3139,67.0,0.0,15.0,0.0,0.0
3140,63.0,0.0,15.0,0.0,0.0
3141,40.0,0.0,60.0,1.0,0.0
3142,39.0,60.0,60.0,1.0,0.0
3143,63.0,60.0,15.0,0.0,0.0
3144,67.0,0.0,120.0,0.0,0.0
3145,70.0,0.0,120.0,0.0,0.0
3146,73.0,0.0,120.0,0.0,0.0
3147,37.0,0.0,60.0,1.0,0.0
3148,63.0,60.0,15.0,0.0,0.0
3149,67.0,0.0,120.0,0.0,0.0
3150,70.0,0.0,120.0,0.0,0.0
3151,73.0,60.0,120.0,0.0,0.0
3152,75.0,0.0,15.0,0.0,0.0
3153,35.0,60.0,60.0,1.0,0.0
3154,34.0,0.0,60.0,1.0,0.0
3155,32.0,60.0,60.0,1.0,0.0
3156,80.0,0.0,120.0,0.0,0.0
3157,71.0,0.0,120.0,0.0,0.0
3158,68.0,0.0,120.0,0.0,0.0
3159,75.0,60.0,120.0,0.0,0.0
3160,34.0,0.0,60.0,1.0,0.0
3161,35.0,60.0,60.0,1.0,0.0
3162,37.0,60.0,60.0,1.0,0.0
3163,63.0,0.0,120.0,0.0,0.0
3164,61.0,0.0,120.0,0.0,0.0
3165,58.0,0.0,120.0,0.0,0.0
3166,39.0,60.0,60.0,1.0,0.0
3167,38.0,0.0,60.0,1.0,0.0
3168,39.0,60.0,60.0,1.0,0.0
3169,55.0,60.0,15.0,0.0,0.0
3170,58.0,0.0,120.0,0.0,0.0
3171,61.0,0.0,120.0,0.0,0.0
3172,63.0,0.0,120.0,0.0,0.0
3173,41.0,60.0,60.0,1.0,0.0
3174,55.0,0.0,120.0,0.0,0.0
3175,58.0,0.0,120.0,0.0,0.0
3176,63.0,0.0,120.0,0.0,0.0
3177,43.0,60.0,60.0,1.0,0.0
3178,61.0,0.0,120.0,0.0,0.0
3179,44.0,60.0,60.0,1.0,0.0
3180,61.0,0.0,120.0,0.0,0.0
3181,58.0,60.0,120.0,0.0,0.0
3182,55.0,0.0,120.0,0.0,0.0
3183,63.0,0.0,120.0,0.0,0.0
3184,46.0,60.0,60.0,1.0,0.0
3185,43.0,0.0,60.0,1.0,0.0
3186,44.0,60.0,60.0,1.0,0.0
3187,56.0,0.0,120.0,0.0,0.0
3188,49.0,60.0,60.0,1.0,0.0
3189,49.0,60.0,60.0,1.0,0.0
3190,47.0,60.0,60.0,1.0,0.0
3191,46.0,60.0,60.0,1.0,0.0
3192,44.0,60.0,60.0,1.0,0.0
3193,75.0,0.0,15.0,0.0,0.0
3194,73.0,0.0,15.0,0.0,0.0
3195,70.0,0.0,15.0,0.0,0.0
3196,67.0,0.0,15.0,0.0,0.0
3197,63.0,0.0,15.0,0.0,0.0
3198,43.0,60.0,60.0,1.0,0.0
3199,40.0,0.0,60.0,1.0,0.0
3200,70.0,0.0,15.0,0.0,0.0
3201,67.0,0.0,120.0,0.0,0.0
3202,63.0,0.0,15.0,0.0,0.0
3203,73.0,0.0,120.0,0.0,0.0
3204,39.0,60.0,60.0,1.0,0.0
3205,75.0,60.0,15.0,0.0,0.0
3206,37.0,60.0,60.0,1.0,0.0
3207,63.0,60.0,120.0,0.0,0.0
3208,73.0,0.0,120.0,0.0,0.0
3209,70.0,0.0,120.0,0.0,0.0
3210,75.0,0.0,120.0,0.0,0.0
3211,35.0,60.0,60.0,1.0,0.0
3212,67.0,0.0,120.0,0.0,0.0
3213,34.0,0.0,60.0,1.0,0.0
3214,80.0,0.0,120.0,0.0,0.0
3215,32.0,60.0,60.0,1.0,0.0
3216,75.0,0.0,120.0,0.0,0.0
3217,68.0,0.0,120.0,0.0,0.0
3218,71.0,0.0,120.0,0.0,0.0
3219,34.0,60.0,60.0,1.0,0.0
3220,35.0,60.0,60.0,1.0,0.0
3221,37.0,60.0,60.0,1.0,0.0
3222,61.0,0.0,120.0,0.0,0.0
3223,55.0,0.0,120.0,0.0,0.0
3224,58.0,0.0,120.0,0.0,0.0
3225,39.0,60.0,60.0,1.0,0.0
3226,38.0,0.0,60.0,1.0,0.0
3227,58.0,0.0,120.0,0.0,0.0
3228,61.0,0.0,120.0,0.0,0.0
3229,63.0,60.0,15.0,0.0,0.0
3230,39.0,60.0,60.0,1.0,0.0
3231,41.0,0.0,60.0,1.0,0.0
3232,63.0,60.0,15.0,0.0,0.0
3233,55.0,0.0,15.0,0.0,0.0
3234,43.0,60.0,60.0,1.0,0.0
3235,44.0,0.0,60.0,1.0,0.0
3236,46.0,60.0,60.0,1.0,0.0
3237,55.0,0.0,15.0,0.0,0.0
3238,61.0,60.0,15.0,0.0,0.0
3239,58.0,0.0,15.0,0.0,0.0
3240,63.0,0.0,120.0,0.0,0.0
3241,43.0,120.0,60.0,1.0,0.0
3242,44.0,240.0,120.0,1.0,0.0
3243,56.0,0.0,120.0,0.0,0.0
3244,75.0,120.0,15.0,0.0,0.0
3245,75.0,120.0,15.0,0.0,0.0
3246,71.0,120.0,120.0,0.0,0.0
3247,75.0,120.0,15.0,0.0,0.0
3248,71.0,120.0,120.0,0.0,0.0
3249,68.0,0.0,120.0,0.0,0.0
3250,73.0,120.0,120.0,0.0,0.0
3251,71.0,120.0,15.0,0.0,0.0
3252,65.0,120.0,120.0,0.0,0.0
3253,73.0,0.0,120.0,0.0,0.0
3254,73.0,120.0,120.0,0.0,0.0
3255,70.0,120.0,120.0,0.0,0.0
3256,73.0,0.0,120.0,0.0,0.0
3257,66.0,120.0,120.0,0.0,0.0
3258,70.0,0.0,15.0,0.0,0.0
3259,70.0,0.0,120.0,0.0,0.0
3260,71.0,120.0,15.0,0.0,0.0
3261,63.0,0.0,120.0,0.0,0.0
3262,71.0,120.0,15.0,0.0,0.0
3263,68.0,0.0,120.0,0.0,0.0
3264,68.0,120.0,120.0,0.0,0.0
3265,65.0,0.0,120.0,0.0,0.0
3266,62.0,0.0,120.0,0.0,0.0
3267,70.0,120.0,120.0,0.0,0.0
3268,63.0,0.0,120.0,0.0,0.0
3269,66.0,120.0,120.0,0.0,0.0
3270,60.0,120.0,120.0,0.0,0.0
3271,68.0,0.0,120.0,0.0,0.0
3272,65.0,120.0,120.0,0.0,0.0
3273,62.0,0.0,120.0,0.0,0.0
3274,66.0,120.0,120.0,0.0,0.0
3275,58.0,0.0,120.0,0.0,0.0
3276,56.0,120.0,120.0,1.0,0.0
3277,65.0,0.0,120.0,0.0,0.0
3278,58.0,120.0,120.0,1.0,0.0
3279,63.0,0.0,120.0,0.0,0.0
3280,62.0,0.0,120.0,0.0,0.0
3281,46.0,120.0,120.0,1.0,0.0
3282,58.0,0.0,120.0,1.0,0.0
3283,54.0,60.0,120.0,1.0,0.0
3284,65.0,0.0,15.0,0.0,0.0
3285,53.0,0.0,120.0,1.0,0.0
3286,56.0,120.0,120.0,1.0,0.0
3287,63.0,0.0,15.0,0.0,0.0
3288,62.0,0.0,60.0,0.0,0.0
3289,63.0,0.0,120.0,0.0,0.0
3290,54.0,0.0,120.0,1.0,0.0
3291,51.0,120.0,120.0,1.0,0.0
3292,50.0,0.0,120.0,1.0,0.0
3293,53.0,0.0,120.0,1.0,0.0
3294,72.0,60.0,15.0,0.0,0.0
3295,48.0,0.0,120.0,1.0,0.0
3296,70.0,0.0,15.0,0.0,0.0
3297,51.0,120.0,120.0,1.0,0.0
3298,69.0,0.0,60.0,0.0,0.0
3299,70.0,0.0,120.0,0.0,0.0
3300,50.0,0.0,120.0,1.0,0.0
3301,75.0,0.0,120.0,0.0,0.0
3302,46.0,120.0,15.0,1.0,0.0
3303,42.0,0.0,120.0,1.0,0.0
3304,77.0,0.0,15.0,0.0,0.0
3305,75.0,60.0,60.0,0.0,0.0
3306,41.0,120.0,120.0,1.0,0.0
3307,44.0,0.0,120.0,1.0,0.0
3308,74.0,0.0,60.0,0.0,0.0
3309,39.0,0.0,120.0,1.0,0.0
3310,42.0,0.0,120.0,1.0,0.0
3311,75.0,120.0,120.0,0.0,0.0
3312,70.0,0.0,15.0,0.0,0.0
3313,41.0,120.0,120.0,1.0,0.0
3314,38.0,0.0,120.0,1.0,0.0
3315,39.0,120.0,120.0,1.0,0.0
3316,36.0,0.0,120.0,1.0,0.0
3317,38.0,120.0,120.0,1.0,0.0
3318,34.0,0.0,120.0,1.0,0.0
3319,39.0,60.0,120.0,1.0,0.0
3320,42.0,0.0,120.0,1.0,0.0
3321,41.0,60.0,120.0,1.0,0.0
3322,82.0,0.0,15.0,0.0,0.0
3323,44.0,0.0,120.0,1.0,0.0
3324,80.0,0.0,15.0,0.0,0.0
3325,42.0,0.0,120.0,1.0,0.0
3326,46.0,0.0,120.0,1.0,0.0
3327,44.0,0.0,120.0,1.0,0.0
3328,78.0,60.0,15.0,0.0,0.0
3329,77.0,60.0,15.0,0.0,0.0
3330,46.0,0.0,120.0,1.0,0.0
3331,34.0,120.0,120.0,1.0,0.0
3332,75.0,60.0,15.0,0.0,0.0
3333,74.0,0.0,60.0,0.0,0.0
3334,63.0,40.0,120.0,0.0,0.0
3335,75.0,0.0,120.0,0.0,0.0
3336,54.0,0.0,120.0,1.0,0.0
3337,58.0,0.0,120.0,1.0,0.0
3338,53.0,0.0,120.0,1.0,0.0
3339,56.0,0.0,120.0,1.0,0.0
3340,65.0,40.0,40.0,0.0,0.0
3341,63.0,40.0,40.0,0.0,0.0
3342,62.0,120.0,40.0,0.0,0.0
3343,54.0,0.0,120.0,1.0,0.0
3344,63.0,120.0,120.0,0.0,0.0
3345,51.0,0.0,120.0,1.0,0.0
3346,50.0,0.0,120.0,1.0,0.0
3347,53.0,0.0,120.0,1.0,0.0
3348,70.0,40.0,120.0,0.0,0.0
3349,48.0,0.0,120.0,1.0,0.0
3350,51.0,120.0,120.0,1.0,0.0
3351,72.0,40.0,40.0,0.0,0.0
3352,70.0,40.0,40.0,0.0,0.0
3353,69.0,0.0,40.0,0.0,0.0
3354,70.0,120.0,120.0,0.0,0.0
3355,46.0,0.0,120.0,1.0,0.0
3356,50.0,0.0,120.0,1.0,0.0
3357,75.0,40.0,120.0,0.0,0.0
3358,42.0,0.0,120.0,1.0,0.0
3359,46.0,0.0,120.0,1.0,0.0
3360,77.0,40.0,40.0,0.0,0.0
3361,41.0,0.0,120.0,1.0,0.0
3362,44.0,0.0,120.0,1.0,0.0
3363,75.0,40.0,40.0,0.0,0.0
3364,74.0,120.0,40.0,0.0,0.0
3365,39.0,0.0,120.0,1.0,0.0
3366,75.0,0.0,120.0,0.0,0.0
3367,42.0,120.0,120.0,1.0,0.0
3368,70.0,120.0,360.0,0.0,0.0
3369,38.0,0.0,120.0,1.0,0.0
3370,41.0,120.0,120.0,1.0,0.0
3371,82.0,0.0,360.0,0.0,0.0
3372,36.0,0.0,120.0,1.0,0.0
3373,39.0,120.0,120.0,1.0,0.0
3374,38.0,0.0,120.0,1.0,0.0
3375,34.0,0.0,120.0,1.0,0.0
3376,51.0,0.0,120.0,1.0,0.0
3377,54.0,40.0,120.0,1.0,0.0
3378,71.0,0.0,120.0,0.0,0.0
3379,73.0,40.0,40.0,0.0,0.0
3380,49.0,120.0,120.0,1.0,0.0
3381,52.0,0.0,120.0,1.0,0.0
3382,71.0,40.0,40.0,0.0,0.0
3383,70.0,0.0,40.0,0.0,0.0
3384,51.0,120.0,120.0,1.0,0.0
3385,47.0,0.0,120.0,1.0,0.0
3386,71.0,0.0,120.0,0.0,0.0
3387,46.0,120.0,120.0,1.0,0.0
3388,49.0,0.0,120.0,1.0,0.0
3389,66.0,120.0,360.0,0.0,0.0
3390,78.0,0.0,360.0,0.0,0.0
3391,44.0,0.0,120.0,1.0,0.0
3392,47.0,120.0,120.0,1.0,0.0
3393,42.0,0.0,120.0,1.0,0.0
3394,46.0,0.0,120.0,1.0,0.0
3395,51.0,0.0,120.0,1.0,0.0
3396,47.0,0.0,120.0,1.0,0.0
3397,68.0,40.0,120.0,0.0,0.0
3398,46.0,0.0,120.0,1.0,0.0
3399,49.0,120.0,120.0,1.0,0.0
3400,70.0,40.0,40.0,0.0,0.0
3401,68.0,40.0,40.0,0.0,0.0
3402,67.0,0.0,40.0,0.0,0.0
3403,68.0,0.0,120.0,0.0,0.0
3404,47.0,120.0,120.0,1.0,0.0
3405,44.0,0.0,120.0,1.0,0.0
3406,75.0,0.0,480.0,0.0,0.0
3407,46.0,0.0,120.0,1.0,0.0
3408,43.0,120.0,120.0,1.0,0.0
3409,63.0,0.0,480.0,0.0,0.0
3410,41.0,120.0,120.0,1.0,0.0
3411,44.0,0.0,120.0,1.0,0.0
3412,43.0,120.0,120.0,1.0,0.0
3413,39.0,0.0,120.0,1.0,0.0
3414,40.0,120.0,120.0,1.0,0.0
3415,44.0,0.0,120.0,1.0,0.0
3416,73.0,240.0,120.0,0.0,0.0
3417,61.0,0.0,120.0,0.0,0.0
3418,59.0,0.0,240.0,0.0,0.0
3419,71.0,0.0,240.0,0.0,0.0
3420,50.0,120.0,120.0,1.0,0.0
3421,44.0,0.0,120.0,1.0,0.0
3422,40.0,0.0,120.0,1.0,0.0
3423,70.0,0.0,120.0,0.0,0.0
3424,58.0,120.0,120.0,0.0,0.0
3425,56.0,120.0,120.0,0.0,0.0
3426,68.0,0.0,120.0,0.0,0.0
3427,67.0,0.0,120.0,0.0,0.0
3428,55.0,60.0,120.0,0.0,0.0
3429,51.0,0.0,120.0,1.0,0.0
3430,39.0,0.0,120.0,1.0,0.0
3431,58.0,60.0,60.0,0.0,0.0
3432,55.0,60.0,60.0,0.0,0.0
3433,58.0,60.0,60.0,0.0,0.0
3434,63.0,0.0,120.0,0.0,0.0
3435,55.0,60.0,60.0,0.0,0.0
3436,51.0,0.0,15.0,1.0,0.0
3437,56.0,60.0,60.0,1.0,0.0
3438,62.0,0.0,120.0,0.0,0.0
3439,53.0,60.0,60.0,1.0,0.0
3440,59.0,0.0,15.0,0.0,0.0
3441,56.0,60.0,60.0,1.0,0.0
3442,53.0,0.0,60.0,1.0,0.0
3443,62.0,0.0,15.0,0.0,0.0
3444,51.0,0.0,15.0,1.0,0.0
3445,56.0,60.0,60.0,1.0,0.0
3446,59.0,60.0,15.0,0.0,0.0
3447,53.0,0.0,60.0,1.0,0.0
3448,51.0,60.0,15.0,1.0,0.0
3449,55.0,60.0,60.0,1.0,0.0
3450,58.0,0.0,60.0,0.0,0.0
3451,63.0,60.0,60.0,0.0,0.0
3452,67.0,60.0,60.0,0.0,0.0
3453,70.0,60.0,60.0,0.0,0.0
3454,75.0,60.0,120.0,0.0,0.0
3455,67.0,0.0,60.0,0.0,0.0
3456,68.0,60.0,60.0,0.0,0.0
3457,65.0,0.0,60.0,0.0,0.0
3458,74.0,0.0,15.0,0.0,0.0
3459,71.0,0.0,15.0,0.0,0.0
3460,68.0,60.0,60.0,0.0,0.0
3461,63.0,60.0,15.0,0.0,0.0
3462,65.0,0.0,60.0,0.0,0.0
3463,74.0,0.0,15.0,0.0,0.0
3464,68.0,60.0,60.0,0.0,0.0
3465,63.0,60.0,15.0,0.0,0.0
3466,71.0,0.0,15.0,0.0,0.0
3467,65.0,60.0,60.0,0.0,0.0
3468,70.0,0.0,120.0,0.0,0.0
3469,63.0,0.0,15.0,0.0,0.0
3470,67.0,60.0,60.0,0.0,0.0
3471,75.0,0.0,120.0,0.0,0.0
3472,63.0,0.0,60.0,0.0,0.0
3473,58.0,60.0,60.0,0.0,0.0
3474,55.0,60.0,60.0,0.0,0.0
3475,63.0,0.0,120.0,0.0,0.0
3476,58.0,60.0,60.0,0.0,0.0
3477,55.0,0.0,60.0,0.0,0.0
3478,56.0,60.0,60.0,1.0,0.0
3479,62.0,0.0,120.0,0.0,0.0
3480,51.0,60.0,15.0,1.0,0.0
3481,53.0,0.0,60.0,1.0,0.0
3482,51.0,0.0,15.0,1.0,0.0
3483,56.0,60.0,60.0,1.0,0.0
3484,59.0,60.0,15.0,0.0,0.0
3485,53.0,60.0,60.0,1.0,0.0
3486,62.0,0.0,15.0,0.0,0.0
3487,59.0,0.0,15.0,0.0,0.0
3488,51.0,0.0,15.0,1.0,0.0
3489,56.0,60.0,60.0,1.0,0.0
3490,53.0,0.0,60.0,1.0,0.0
3491,55.0,60.0,60.0,1.0,0.0
3492,51.0,0.0,120.0,1.0,0.0
3493,58.0,60.0,60.0,0.0,0.0
3494,63.0,60.0,60.0,0.0,0.0
3495,67.0,60.0,60.0,0.0,0.0
3496,75.0,60.0,120.0,0.0,0.0
3497,70.0,60.0,60.0,0.0,0.0
3498,67.0,0.0,60.0,0.0,0.0
3499,71.0,0.0,120.0,0.0,0.0
3500,68.0,60.0,60.0,0.0,0.0
3501,63.0,60.0,120.0,0.0,0.0
3502,74.0,0.0,120.0,0.0,0.0
3503,65.0,0.0,60.0,0.0,0.0
3504,68.0,60.0,60.0,0.0,0.0
3505,71.0,0.0,120.0,0.0,0.0
3506,65.0,0.0,60.0,0.0,0.0
3507,74.0,60.0,15.0,0.0,0.0
3508,63.0,0.0,15.0,0.0,0.0
3509,71.0,0.0,120.0,0.0,0.0
3510,68.0,60.0,60.0,0.0,0.0
3511,65.0,0.0,60.0,0.0,0.0
3512,63.0,60.0,15.0,0.0,0.0
3513,75.0,0.0,120.0,0.0,0.0
3514,70.0,60.0,60.0,0.0,0.0
3515,67.0,0.0,60.0,0.0,0.0
3516,73.0,60.0,120.0,0.0,0.0
3517,68.0,60.0,60.0,0.0,0.0
3518,64.0,0.0,60.0,0.0,0.0
3519,66.0,60.0,60.0,0.0,0.0
3520,71.0,60.0,120.0,0.0,0.0
3521,63.0,0.0,60.0,0.0,0.0
3522,70.0,60.0,120.0,0.0,0.0
3523,39.0,0.0,15.0,1.0,0.0
3524,64.0,60.0,60.0,0.0,0.0
3525,61.0,0.0,60.0,0.0,0.0
3526,68.0,0.0,120.0,0.0,0.0
3527,63.0,60.0,60.0,0.0,0.0
3528,59.0,0.0,60.0,0.0,0.0
3529,39.0,60.0,15.0,1.0,0.0
3530,61.0,60.0,60.0,0.0,0.0
3531,67.0,0.0,120.0,0.0,0.0
3532,58.0,60.0,60.0,0.0,0.0
3533,59.0,60.0,60.0,0.0,0.0
3534,68.0,0.0,60.0,0.0,0.0
3535,32.0,0.0,120.0,1.0,0.0
3536,56.0,60.0,60.0,0.0,0.0
3537,59.0,60.0,60.0,0.0,0.0
3538,63.0,110.0,60.0,0.0,0.0
3539,56.0,120.0,120.0,0.0,0.0
3540,68.0,0.0,120.0,0.0,0.0
3541,70.0,10.0,15.0,0.0,0.0
3542,59.0,0.0,15.0,0.0,0.0
3543,63.0,0.0,120.0,0.0,0.0
3544,68.0,0.0,120.0,0.0,0.0
3545,68.0,60.0,60.0,0.0,0.0
3546,59.0,60.0,15.0,0.0,0.0
3547,63.0,0.0,120.0,0.0,0.0
3548,67.0,0.0,60.0,0.0,0.0
3549,68.0,60.0,120.0,0.0,0.0
3550,59.0,120.0,15.0,0.0,0.0
3551,63.0,0.0,120.0,0.0,0.0
3552,67.0,60.0,60.0,0.0,0.0
3553,71.0,0.0,60.0,0.0,0.0
3554,63.0,0.0,120.0,0.0,0.0
3555,61.0,120.0,120.0,0.0,0.0
3556,70.0,0.0,60.0,0.0,0.0
3557,68.0,60.0,120.0,0.0,0.0
3558,59.0,0.0,120.0,0.0,0.0
3559,63.0,0.0,120.0,0.0,0.0
3560,76.0,60.0,60.0,0.0,0.0
3561,44.0,0.0,120.0,1.0,0.0
3562,32.0,0.0,120.0,1.0,0.0
3563,68.0,60.0,60.0,0.0,0.0
3564,75.0,60.0,60.0,0.0,0.0
3565,66.0,60.0,60.0,0.0,0.0
3566,32.0,0.0,15.0,1.0,0.0
3567,44.0,0.0,15.0,1.0,0.0
3568,73.0,60.0,60.0,0.0,0.0
3569,64.0,60.0,60.0,0.0,0.0
3570,44.0,60.0,120.0,1.0,0.0
3571,32.0,0.0,120.0,1.0,0.0
3572,72.0,60.0,60.0,0.0,0.0
3573,63.0,0.0,60.0,0.0,0.0
3574,25.0,60.0,120.0,1.0,0.0
3575,73.0,60.0,60.0,0.0,0.0
3576,37.0,0.0,120.0,1.0,0.0
3577,61.0,0.0,60.0,0.0,0.0
3578,64.0,60.0,60.0,0.0,0.0
3579,68.0,112.0,60.0,0.0,0.0
3580,64.0,0.0,120.0,0.0,0.0
3581,68.0,0.0,120.0,0.0,0.0
3582,73.0,120.0,120.0,0.0,0.0
3583,75.0,8.0,15.0,0.0,0.0
3584,73.0,0.0,120.0,0.0,0.0
3585,73.0,60.0,60.0,0.0,0.0
3586,68.0,60.0,15.0,0.0,0.0
3587,64.0,0.0,15.0,0.0,0.0
3588,72.0,0.0,60.0,0.0,0.0
3589,73.0,60.0,120.0,0.0,0.0
3590,68.0,120.0,15.0,0.0,0.0
3591,64.0,0.0,15.0,0.0,0.0
3592,76.0,0.0,60.0,0.0,0.0
3593,72.0,60.0,60.0,0.0,0.0
3594,66.0,0.0,120.0,0.0,0.0
3595,75.0,120.0,60.0,0.0,0.0
3596,73.0,0.0,120.0,0.0,0.0
3597,64.0,0.0,120.0,0.0,0.0
3598,68.0,0.0,15.0,0.0,0.0
3599,68.0,0.0,15.0,0.0,0.0
3600,80.0,120.0,15.0,0.0,0.0
3601,80.0,0.0,15.0,0.0,0.0
3602,68.0,120.0,15.0,0.0,0.0
3603,61.0,120.0,120.0,0.0,0.0
3604,73.0,0.0,120.0,0.0,0.0
3605,52.0,0.0,15.0,1.0,0.0
3606,40.0,0.0,15.0,1.0,0.0
3607,52.0,0.0,15.0,1.0,0.0
3608,40.0,0.0,15.0,1.0,0.0
3609,40.0,0.0,15.0,1.0,0.0
3610,52.0,120.0,15.0,1.0,0.0
3611,73.0,0.0,15.0,0.0,0.0
3612,85.0,0.0,15.0,0.0,0.0
3613,34.0,0.0,120.0,1.0,0.0
3614,46.0,0.0,120.0,1.0,0.0
3615,73.0,120.0,15.0,0.0,0.0
3616,85.0,0.0,15.0,0.0,0.0
3617,52.0,0.0,120.0,1.0,0.0
3618,85.0,0.0,120.0,0.0,0.0
3619,73.0,120.0,120.0,0.0,0.0
3620,64.0,0.0,15.0,1.0,0.0
3621,52.0,120.0,120.0,1.0,0.0
3622,63.0,0.0,120.0,1.0,0.0
3623,51.0,0.0,120.0,1.0,0.0
3624,67.0,0.0,15.0,0.0,0.0
3625,79.0,120.0,15.0,0.0,0.0
3626,61.0,0.0,120.0,1.0,0.0
3627,49.0,0.0,120.0,1.0,0.0
3628,80.0,60.0,120.0,0.0,0.0
3629,68.0,0.0,120.0,0.0,0.0
3630,59.0,0.0,120.0,1.0,0.0
3631,47.0,0.0,120.0,1.0,0.0
3632,58.0,60.0,120.0,1.0,0.0
3633,76.0,60.0,60.0,0.0,0.0
3634,46.0,0.0,120.0,1.0,0.0
3635,73.0,0.0,60.0,0.0,0.0
3636,75.0,60.0,60.0,0.0,0.0
3637,59.0,60.0,120.0,1.0,0.0
3638,47.0,0.0,120.0,1.0,0.0
3639,71.0,0.0,60.0,0.0,0.0
3640,73.0,60.0,60.0,0.0,0.0
3641,49.0,60.0,120.0,1.0,0.0
3642,61.0,0.0,120.0,1.0,0.0
3643,70.0,0.0,60.0,0.0,0.0
3644,63.0,60.0,120.0,1.0,0.0
3645,51.0,0.0,120.0,1.0,0.0
3646,71.0,60.0,60.0,0.0,0.0
3647,68.0,0.0,60.0,0.0,0.0
3648,39.0,0.0,120.0,1.0,0.0
3649,51.0,60.0,120.0,1.0,0.0
3650,70.0,60.0,60.0,0.0,0.0
3651,67.0,0.0,60.0,0.0,0.0
3652,44.0,60.0,60.0,1.0,0.0
3653,68.0,0.0,120.0,0.0,0.0
3654,51.0,60.0,60.0,1.0,0.0
3655,49.0,60.0,60.0,1.0,0.0
3656,47.0,60.0,60.0,1.0,0.0
3657,63.0,0.0,120.0,0.0,0.0
3658,46.0,60.0,60.0,1.0,0.0
3659,70.0,0.0,120.0,0.0,0.0
3660,73.0,0.0,120.0,0.0,0.0
3661,75.0,0.0,120.0,0.0,0.0
3662,67.0,0.0,120.0,0.0,0.0
3663,44.0,60.0,60.0,1.0,0.0
3664,73.0,0.0,120.0,0.0,0.0
3665,63.0,60.0,120.0,0.0,0.0
3666,75.0,0.0,120.0,0.0,0.0
3667,43.0,60.0,60.0,1.0,0.0
3668,40.0,0.0,60.0,1.0,0.0
3669,70.0,0.0,15.0,0.0,0.0
3670,67.0,0.0,15.0,0.0,0.0
3671,73.0,60.0,120.0,0.0,0.0
3672,39.0,60.0,60.0,1.0,0.0
3673,63.0,0.0,120.0,0.0,0.0
3674,37.0,0.0,60.0,1.0,0.0
3675,67.0,0.0,15.0,0.0,0.0
3676,75.0,0.0,15.0,0.0,0.0
3677,35.0,60.0,60.0,1.0,0.0
3678,63.0,0.0,120.0,0.0,0.0
3679,73.0,0.0,120.0,0.0,0.0
3680,70.0,60.0,120.0,0.0,0.0
3681,34.0,0.0,60.0,1.0,0.0
3682,32.0,60.0,60.0,1.0,0.0
3683,68.0,0.0,120.0,0.0,0.0
3684,71.0,0.0,120.0,0.0,0.0
3685,75.0,60.0,120.0,0.0,0.0
3686,80.0,0.0,120.0,0.0,0.0
3687,34.0,0.0,60.0,1.0,0.0
3688,35.0,60.0,60.0,1.0,0.0
3689,37.0,60.0,60.0,1.0,0.0
3690,58.0,0.0,120.0,0.0,0.0
3691,61.0,0.0,120.0,0.0,0.0
3692,63.0,60.0,120.0,0.0,0.0
3693,39.0,60.0,60.0,1.0,0.0
3694,55.0,0.0,120.0,0.0,0.0
3695,38.0,0.0,60.0,1.0,0.0
3696,39.0,60.0,60.0,1.0,0.0
3697,55.0,0.0,120.0,0.0,0.0
3698,58.0,0.0,120.0,0.0,0.0
3699,63.0,0.0,120.0,0.0,0.0
3700,41.0,60.0,60.0,1.0,0.0
3701,61.0,0.0,15.0,0.0,0.0
3702,43.0,60.0,60.0,1.0,0.0
3703,44.0,60.0,60.0,1.0,0.0
3704,46.0,60.0,60.0,1.0,0.0
3705,63.0,0.0,15.0,0.0,0.0
3706,61.0,0.0,120.0,0.0,0.0
3707,58.0,0.0,15.0,0.0,0.0
3708,55.0,0.0,15.0,0.0,0.0
3709,43.0,0.0,60.0,1.0,0.0
3710,44.0,60.0,60.0,1.0,0.0
3711,56.0,60.0,120.0,0.0,0.0
3712,49.0,0.0,60.0,1.0,0.0
3713,49.0,60.0,60.0,1.0,0.0
3714,47.0,60.0,60.0,1.0,0.0
3715,73.0,0.0,120.0,0.0,0.0
3716,46.0,60.0,60.0,1.0,0.0
3717,44.0,0.0,60.0,1.0,0.0
3718,67.0,0.0,15.0,0.0,0.0
3719,73.0,0.0,120.0,0.0,0.0
3720,75.0,60.0,15.0,0.0,0.0
3721,63.0,0.0,15.0,0.0,0.0
3722,70.0,0.0,15.0,0.0,0.0
3723,43.0,60.0,60.0,1.0,0.0
3724,40.0,60.0,60.0,1.0,0.0
3725,70.0,60.0,120.0,0.0,0.0
3726,39.0,60.0,60.0,1.0,0.0
3727,63.0,0.0,120.0,0.0,0.0
3728,37.0,0.0,60.0,1.0,0.0
3729,73.0,0.0,15.0,0.0,0.0
3730,75.0,0.0,15.0,0.0,0.0
3731,67.0,0.0,15.0,0.0,0.0
3732,35.0,60.0,60.0,1.0,0.0
3733,63.0,0.0,120.0,0.0,0.0
3734,70.0,0.0,120.0,0.0,0.0
3735,34.0,0.0,60.0,1.0,0.0
3736,32.0,60.0,60.0,1.0,0.0
3737,80.0,0.0,120.0,0.0,0.0
3738,68.0,0.0,120.0,0.0,0.0
3739,71.0,0.0,120.0,0.0,0.0
3740,75.0,0.0,120.0,0.0,0.0
3741,34.0,60.0,60.0,1.0,0.0
3742,35.0,60.0,60.0,1.0,0.0
3743,37.0,60.0,60.0,1.0,0.0
3744,58.0,0.0,120.0,0.0,0.0
3745,55.0,0.0,120.0,0.0,0.0
3746,61.0,0.0,120.0,0.0,0.0
3747,39.0,60.0,60.0,1.0,0.0
3748,38.0,0.0,60.0,1.0,0.0
3749,39.0,60.0,60.0,1.0,0.0
3750,55.0,0.0,120.0,0.0,0.0
3751,63.0,60.0,15.0,0.0,0.0
3752,41.0,0.0,60.0,1.0,0.0
3753,43.0,60.0,60.0,1.0,0.0
3754,63.0,60.0,15.0,0.0,0.0
3755,58.0,0.0,15.0,0.0,0.0
3756,61.0,0.0,15.0,0.0,0.0
3757,55.0,0.0,120.0,0.0,0.0
3758,44.0,0.0,60.0,1.0,0.0
3759,55.0,0.0,120.0,0.0,0.0
3760,58.0,60.0,15.0,0.0,0.0
3761,61.0,120.0,120.0,0.0,0.0
3762,63.0,0.0,15.0,0.0,0.0
3763,46.0,60.0,60.0,1.0,0.0
3764,43.0,0.0,60.0,1.0,0.0
3765,56.0,0.0,120.0,0.0,0.0
3766,44.0,0.0,120.0,1.0,0.0
