,note,step,duration,channel,velocity
0,62.0,0.0,360.0,1.0,0.0
1,74.0,480.0,360.0,0.0,0.0
2,71.0,0.0,360.0,1.0,0.0
3,74.0,0.0,360.0,0.0,0.0
4,71.0,360.0,360.0,1.0,0.0
5,62.0,0.0,360.0,1.0,0.0
6,62.0,0.0,960.0,1.0,0.0
7,67.0,0.0,960.0,1.0,0.0
8,71.0,0.0,960.0,0.0,0.0
9,50.0,120.0,120.0,3.0,0.0
10,52.0,120.0,120.0,3.0,0.0
11,54.0,120.0,120.0,3.0,0.0
12,55.0,120.0,120.0,3.0,0.0
13,57.0,120.0,120.0,3.0,0.0
14,59.0,120.0,120.0,3.0,0.0
15,55.0,360.0,120.0,3.0,0.0
16,62.0,0.0,360.0,1.0,0.0
17,66.0,0.0,360.0,1.0,0.0
18,69.0,480.0,360.0,0.0,0.0
19,60.0,0.0,360.0,3.0,0.0
20,66.0,0.0,360.0,1.0,0.0
21,62.0,0.0,360.0,1.0,0.0
22,69.0,240.0,360.0,0.0,0.0
23,60.0,120.0,120.0,3.0,0.0
24,72.0,0.0,960.0,1.0,0.0
25,69.0,0.0,960.0,1.0,0.0
26,59.0,120.0,120.0,3.0,0.0
27,57.0,120.0,120.0,3.0,0.0
28,55.0,120.0,120.0,3.0,0.0
29,54.0,120.0,120.0,3.0,0.0
30,52.0,120.0,120.0,3.0,0.0
31,50.0,120.0,120.0,3.0,0.0
32,54.0,0.0,120.0,3.0,0.0
33,74.0,0.0,15.0,0.0,0.0
34,71.0,0.0,360.0,1.0,0.0
35,62.0,360.0,15.0,1.0,0.0
36,55.0,0.0,360.0,3.0,0.0
37,71.0,0.0,360.0,1.0,0.0
38,62.0,0.0,360.0,1.0,0.0
39,74.0,360.0,360.0,0.0,0.0
40,71.0,0.0,960.0,0.0,0.0
41,67.0,0.0,960.0,1.0,0.0
42,62.0,78.0,960.0,1.0,0.0
43,50.0,120.0,120.0,3.0,0.0
44,52.0,120.0,120.0,3.0,0.0
45,54.0,120.0,120.0,3.0,0.0
46,55.0,120.0,120.0,3.0,0.0
47,57.0,120.0,120.0,3.0,0.0
48,59.0,120.0,120.0,3.0,0.0
49,55.0,0.0,120.0,3.0,0.0
50,60.0,102.0,90.0,3.0,0.0
51,69.0,18.0,180.0,0.0,0.0
52,62.0,0.0,180.0,1.0,0.0
53,66.0,0.0,180.0,1.0,0.0
54,57.0,120.0,90.0,3.0,0.0
55,54.0,120.0,90.0,3.0,0.0
56,50.0,120.0,90.0,3.0,0.0
57,48.0,120.0,90.0,3.0,0.0
58,45.0,42.0,90.0,3.0,0.0
59,74.0,78.0,15.0,0.0,0.0
60,60.0,480.0,240.0,1.0,0.0
61,42.0,120.0,90.0,3.0,0.0
62,38.0,42.0,90.0,3.0,0.0
63,43.0,0.0,480.0,3.0,0.0
64,59.0,240.0,480.0,1.0,0.0
65,67.0,0.0,480.0,0.0,0.0
66,55.0,600.0,240.0,3.0,0.0
67,71.0,0.0,360.0,1.0,0.0
68,74.0,480.0,360.0,0.0,0.0
69,62.0,0.0,360.0,1.0,0.0
70,71.0,0.0,360.0,1.0,0.0
71,74.0,360.0,360.0,0.0,0.0
72,62.0,0.0,360.0,1.0,0.0
73,67.0,0.0,960.0,1.0,0.0
74,71.0,0.0,960.0,0.0,0.0
75,50.0,120.0,120.0,3.0,0.0
76,52.0,120.0,120.0,3.0,0.0
77,54.0,120.0,120.0,3.0,0.0
78,55.0,120.0,120.0,3.0,0.0
79,57.0,120.0,120.0,3.0,0.0
80,59.0,120.0,120.0,3.0,0.0
81,55.0,360.0,120.0,3.0,0.0
82,62.0,0.0,15.0,1.0,0.0
83,66.0,0.0,360.0,1.0,0.0
84,69.0,480.0,360.0,0.0,0.0
85,60.0,0.0,360.0,3.0,0.0
86,62.0,0.0,360.0,1.0,0.0
87,66.0,0.0,360.0,1.0,0.0
88,69.0,240.0,360.0,0.0,0.0
89,69.0,0.0,960.0,1.0,0.0
90,72.0,360.0,960.0,1.0,0.0
91,62.0,0.0,960.0,1.0,0.0
92,60.0,120.0,120.0,3.0,0.0
93,59.0,120.0,120.0,3.0,0.0
94,57.0,120.0,120.0,3.0,0.0
95,55.0,120.0,120.0,3.0,0.0
96,54.0,120.0,120.0,3.0,0.0
97,52.0,120.0,120.0,3.0,0.0
98,50.0,120.0,120.0,3.0,0.0
99,54.0,0.0,120.0,3.0,0.0
100,74.0,0.0,15.0,0.0,0.0
101,55.0,0.0,360.0,3.0,0.0
102,71.0,0.0,360.0,1.0,0.0
103,62.0,0.0,360.0,1.0,0.0
104,71.0,0.0,360.0,1.0,0.0
105,62.0,0.0,360.0,1.0,0.0
106,74.0,360.0,360.0,0.0,0.0
107,67.0,0.0,960.0,1.0,0.0
108,71.0,0.0,960.0,0.0,0.0
109,50.0,120.0,120.0,3.0,0.0
110,52.0,120.0,120.0,3.0,0.0
111,54.0,120.0,120.0,3.0,0.0
112,55.0,120.0,120.0,3.0,0.0
113,57.0,120.0,120.0,3.0,0.0
114,59.0,120.0,120.0,3.0,0.0
115,55.0,0.0,120.0,3.0,0.0
116,69.0,18.0,180.0,0.0,0.0
117,66.0,0.0,180.0,1.0,0.0
118,62.0,78.0,15.0,1.0,0.0
119,60.0,102.0,90.0,3.0,0.0
120,57.0,120.0,90.0,3.0,0.0
121,54.0,120.0,90.0,3.0,0.0
122,50.0,120.0,90.0,3.0,0.0
123,48.0,120.0,90.0,3.0,0.0
124,45.0,42.0,90.0,3.0,0.0
125,74.0,78.0,15.0,0.0,0.0
126,60.0,480.0,240.0,1.0,0.0
127,42.0,120.0,90.0,3.0,0.0
128,38.0,42.0,90.0,3.0,0.0
129,59.0,0.0,480.0,1.0,0.0
130,67.0,0.0,480.0,0.0,0.0
131,43.0,240.0,480.0,3.0,0.0
132,55.0,600.0,240.0,3.0,0.0
133,69.0,0.0,360.0,1.0,0.0
134,72.0,480.0,360.0,0.0,0.0
135,72.0,0.0,360.0,0.0,0.0
136,69.0,318.0,360.0,1.0,0.0
137,72.0,0.0,960.0,1.0,0.0
138,38.0,120.0,90.0,3.0,0.0
139,50.0,120.0,90.0,3.0,0.0
140,52.0,120.0,90.0,3.0,0.0
141,54.0,120.0,90.0,3.0,0.0
142,55.0,120.0,90.0,3.0,0.0
143,57.0,120.0,90.0,3.0,0.0
144,59.0,42.0,90.0,3.0,0.0
145,69.0,240.0,15.0,1.0,0.0
146,78.0,0.0,15.0,0.0,0.0
147,61.0,120.0,240.0,3.0,0.0
148,62.0,198.0,720.0,3.0,0.0
149,78.0,120.0,360.0,0.0,0.0
150,69.0,0.0,360.0,1.0,0.0
151,78.0,0.0,960.0,1.0,0.0
152,72.0,0.0,960.0,1.0,0.0
153,38.0,120.0,90.0,3.0,0.0
154,50.0,120.0,90.0,3.0,0.0
155,52.0,120.0,90.0,3.0,0.0
156,54.0,120.0,90.0,3.0,0.0
157,55.0,120.0,90.0,3.0,0.0
158,57.0,120.0,90.0,3.0,0.0
159,59.0,42.0,90.0,3.0,0.0
160,61.0,120.0,240.0,3.0,0.0
161,69.0,240.0,15.0,1.0,0.0
162,78.0,480.0,360.0,1.0,0.0
163,81.0,0.0,15.0,0.0,0.0
164,62.0,240.0,960.0,3.0,0.0
165,81.0,0.0,360.0,0.0,0.0
166,69.0,0.0,360.0,1.0,0.0
167,78.0,360.0,360.0,1.0,0.0
168,84.0,0.0,720.0,0.0,0.0
169,78.0,240.0,480.0,1.0,0.0
170,81.0,0.0,480.0,1.0,0.0
171,63.0,0.0,240.0,3.0,0.0
172,64.0,240.0,240.0,3.0,0.0
173,79.0,0.0,240.0,1.0,0.0
174,75.0,0.0,240.0,1.0,0.0
175,83.0,0.0,240.0,0.0,0.0
176,59.0,240.0,240.0,3.0,0.0
177,76.0,0.0,240.0,1.0,0.0
178,83.0,0.0,240.0,0.0,0.0
179,60.0,240.0,240.0,3.0,0.0
180,81.0,240.0,240.0,0.0,0.0
181,76.0,0.0,240.0,1.0,0.0
182,61.0,0.0,240.0,3.0,0.0
183,62.0,0.0,720.0,3.0,0.0
184,79.0,240.0,240.0,0.0,0.0
185,71.0,0.0,240.0,1.0,0.0
186,78.0,0.0,240.0,0.0,0.0
187,69.0,240.0,240.0,1.0,0.0
188,72.0,0.0,240.0,1.0,0.0
189,50.0,0.0,240.0,3.0,0.0
190,55.0,240.0,240.0,3.0,0.0
191,81.0,0.0,480.0,0.0,0.0
192,72.0,0.0,480.0,1.0,0.0
193,66.0,180.0,240.0,3.0,0.0
194,71.0,0.0,180.0,1.0,0.0
195,67.0,0.0,180.0,3.0,0.0
196,79.0,660.0,180.0,0.0,0.0
197,69.0,0.0,360.0,1.0,0.0
198,72.0,480.0,360.0,0.0,0.0
199,72.0,0.0,360.0,0.0,0.0
200,69.0,318.0,360.0,1.0,0.0
201,69.0,240.0,960.0,1.0,0.0
202,78.0,0.0,960.0,0.0,0.0
203,72.0,0.0,960.0,1.0,0.0
204,38.0,120.0,90.0,3.0,0.0
205,50.0,120.0,90.0,3.0,0.0
206,52.0,120.0,90.0,3.0,0.0
207,54.0,120.0,90.0,3.0,0.0
208,55.0,120.0,90.0,3.0,0.0
209,57.0,120.0,90.0,3.0,0.0
210,59.0,42.0,90.0,3.0,0.0
211,61.0,120.0,240.0,3.0,0.0
212,78.0,480.0,360.0,0.0,0.0
213,69.0,0.0,360.0,1.0,0.0
214,62.0,198.0,720.0,3.0,0.0
215,69.0,0.0,360.0,1.0,0.0
216,78.0,120.0,360.0,0.0,0.0
217,78.0,0.0,960.0,1.0,0.0
218,72.0,0.0,960.0,1.0,0.0
219,81.0,0.0,960.0,0.0,0.0
220,38.0,120.0,90.0,3.0,0.0
221,50.0,120.0,90.0,3.0,0.0
222,52.0,120.0,90.0,3.0,0.0
223,54.0,120.0,90.0,3.0,0.0
224,55.0,120.0,90.0,3.0,0.0
225,57.0,120.0,90.0,3.0,0.0
226,59.0,42.0,90.0,3.0,0.0
227,81.0,480.0,360.0,0.0,0.0
228,69.0,240.0,15.0,1.0,0.0
229,78.0,0.0,360.0,1.0,0.0
230,61.0,120.0,240.0,3.0,0.0
231,62.0,240.0,960.0,3.0,0.0
232,81.0,0.0,360.0,0.0,0.0
233,78.0,360.0,360.0,1.0,0.0
234,69.0,0.0,360.0,1.0,0.0
235,78.0,0.0,480.0,1.0,0.0
236,84.0,0.0,720.0,0.0,0.0
237,81.0,0.0,480.0,1.0,0.0
238,63.0,240.0,240.0,3.0,0.0
239,64.0,0.0,240.0,3.0,0.0
240,79.0,240.0,240.0,1.0,0.0
241,83.0,0.0,240.0,0.0,0.0
242,59.0,240.0,240.0,3.0,0.0
243,75.0,0.0,240.0,1.0,0.0
244,76.0,0.0,240.0,1.0,0.0
245,60.0,240.0,240.0,3.0,0.0
246,83.0,0.0,240.0,0.0,0.0
247,81.0,240.0,240.0,0.0,0.0
248,61.0,0.0,240.0,3.0,0.0
249,76.0,0.0,240.0,1.0,0.0
250,62.0,0.0,720.0,3.0,0.0
251,71.0,0.0,240.0,1.0,0.0
252,79.0,240.0,240.0,0.0,0.0
253,72.0,0.0,240.0,1.0,0.0
254,78.0,0.0,240.0,0.0,0.0
255,50.0,0.0,240.0,3.0,0.0
256,69.0,240.0,240.0,1.0,0.0
257,81.0,0.0,480.0,0.0,0.0
258,55.0,240.0,240.0,3.0,0.0
259,72.0,127.0,480.0,1.0,0.0
260,66.0,0.0,240.0,3.0,0.0
261,79.0,305.0,120.0,0.0,0.0
262,71.0,0.0,120.0,1.0,0.0
263,67.0,0.0,120.0,3.0,0.0
264,62.0,288.0,180.0,0.0,0.0
265,71.0,120.0,360.0,0.0,0.0
266,59.0,0.0,240.0,2.0,0.0
267,62.0,0.0,240.0,2.0,0.0
268,67.0,0.0,240.0,2.0,0.0
269,55.0,0.0,240.0,2.0,0.0
270,43.0,0.0,15.0,3.0,0.0
271,62.0,0.0,240.0,2.0,0.0
272,67.0,0.0,240.0,2.0,0.0
273,50.0,120.0,15.0,2.0,0.0
274,55.0,0.0,240.0,2.0,0.0
275,59.0,0.0,240.0,2.0,0.0
276,71.0,120.0,360.0,0.0,0.0
277,50.0,0.0,240.0,2.0,0.0
278,55.0,0.0,240.0,2.0,0.0
279,59.0,0.0,240.0,2.0,0.0
280,67.0,120.0,15.0,2.0,0.0
281,43.0,0.0,15.0,3.0,0.0
282,59.0,0.0,240.0,2.0,0.0
283,62.0,0.0,15.0,2.0,0.0
284,55.0,0.0,240.0,2.0,0.0
285,43.0,0.0,15.0,3.0,0.0
286,50.0,240.0,15.0,2.0,0.0
287,71.0,0.0,720.0,0.0,0.0
288,62.0,0.0,240.0,2.0,0.0
289,59.0,0.0,240.0,2.0,0.0
290,67.0,0.0,15.0,2.0,0.0
291,55.0,240.0,15.0,2.0,0.0
292,62.0,0.0,240.0,2.0,0.0
293,43.0,0.0,15.0,3.0,0.0
294,67.0,240.0,15.0,2.0,0.0
295,50.0,0.0,15.0,2.0,0.0
296,55.0,0.0,15.0,2.0,0.0
297,59.0,0.0,15.0,2.0,0.0
298,43.0,0.0,15.0,3.0,0.0
299,59.0,0.0,15.0,2.0,0.0
300,50.0,192.0,240.0,2.0,0.0
301,62.0,0.0,15.0,2.0,0.0
302,55.0,240.0,15.0,2.0,0.0
303,67.0,0.0,240.0,2.0,0.0
304,69.0,0.0,240.0,0.0,0.0
305,43.0,0.0,15.0,3.0,0.0
306,67.0,48.0,180.0,0.0,0.0
307,59.0,0.0,240.0,2.0,0.0
308,50.0,0.0,240.0,2.0,0.0
309,55.0,192.0,15.0,2.0,0.0
310,50.0,0.0,240.0,2.0,0.0
311,69.0,48.0,180.0,0.0,0.0
312,59.0,0.0,240.0,2.0,0.0
313,43.0,192.0,240.0,3.0,0.0
314,50.0,0.0,240.0,2.0,0.0
315,67.0,0.0,15.0,2.0,0.0
316,55.0,0.0,240.0,2.0,0.0
317,71.0,48.0,180.0,0.0,0.0
318,73.0,48.0,180.0,0.0,0.0
319,43.0,192.0,15.0,3.0,0.0
320,59.0,0.0,15.0,2.0,0.0
321,67.0,0.0,15.0,2.0,0.0
322,73.0,0.0,480.0,0.0,0.0
323,50.0,0.0,15.0,2.0,0.0
324,55.0,0.0,15.0,2.0,0.0
325,59.0,240.0,15.0,2.0,0.0
326,43.0,0.0,240.0,3.0,0.0
327,50.0,0.0,15.0,2.0,0.0
328,67.0,240.0,15.0,2.0,0.0
329,43.0,0.0,240.0,3.0,0.0
330,55.0,0.0,15.0,2.0,0.0
331,59.0,0.0,15.0,2.0,0.0
332,55.0,0.0,15.0,2.0,0.0
333,67.0,0.0,15.0,2.0,0.0
334,50.0,240.0,15.0,2.0,0.0
335,74.0,0.0,240.0,0.0,0.0
336,43.0,240.0,240.0,3.0,0.0
337,67.0,0.0,240.0,2.0,0.0
338,59.0,0.0,240.0,2.0,0.0
339,55.0,0.0,240.0,2.0,0.0
340,43.0,0.0,240.0,3.0,0.0
341,45.0,0.0,240.0,3.0,0.0
342,74.0,120.0,360.0,0.0,0.0
343,50.0,240.0,15.0,2.0,0.0
344,54.0,0.0,15.0,2.0,0.0
345,50.0,0.0,240.0,2.0,0.0
346,66.0,0.0,15.0,2.0,0.0
347,60.0,120.0,15.0,2.0,0.0
348,45.0,0.0,15.0,3.0,0.0
349,74.0,120.0,360.0,0.0,0.0
350,66.0,0.0,240.0,2.0,0.0
351,45.0,120.0,15.0,3.0,0.0
352,54.0,0.0,15.0,2.0,0.0
353,50.0,0.0,15.0,2.0,0.0
354,60.0,0.0,15.0,2.0,0.0
355,66.0,0.0,240.0,2.0,0.0
356,45.0,0.0,240.0,3.0,0.0
357,74.0,0.0,720.0,0.0,0.0
358,60.0,0.0,15.0,2.0,0.0
359,50.0,240.0,15.0,2.0,0.0
360,66.0,0.0,15.0,2.0,0.0
361,50.0,0.0,15.0,2.0,0.0
362,60.0,0.0,15.0,2.0,0.0
363,45.0,0.0,240.0,3.0,0.0
364,54.0,240.0,15.0,2.0,0.0
365,45.0,0.0,480.0,3.0,0.0
366,50.0,0.0,240.0,2.0,0.0
367,54.0,0.0,15.0,2.0,0.0
368,60.0,0.0,15.0,2.0,0.0
369,66.0,240.0,15.0,2.0,0.0
370,60.0,240.0,15.0,2.0,0.0
371,72.0,240.0,240.0,0.0,0.0
372,66.0,0.0,240.0,2.0,0.0
373,54.0,0.0,240.0,2.0,0.0
374,50.0,0.0,240.0,2.0,0.0
375,60.0,0.0,240.0,2.0,0.0
376,50.0,0.0,240.0,2.0,0.0
377,71.0,0.0,240.0,0.0,0.0
378,66.0,0.0,15.0,2.0,0.0
379,69.0,0.0,240.0,0.0,0.0
380,38.0,240.0,15.0,3.0,0.0
381,60.0,0.0,240.0,2.0,0.0
382,50.0,240.0,15.0,2.0,0.0
383,66.0,0.0,15.0,2.0,0.0
384,60.0,0.0,240.0,2.0,0.0
385,72.0,0.0,240.0,0.0,0.0
386,38.0,240.0,15.0,3.0,0.0
387,66.0,240.0,240.0,0.0,0.0
388,66.0,0.0,240.0,2.0,0.0
389,60.0,0.0,240.0,2.0,0.0
390,50.0,0.0,15.0,2.0,0.0
391,69.0,0.0,480.0,0.0,0.0
392,43.0,0.0,240.0,3.0,0.0
393,59.0,240.0,15.0,2.0,0.0
394,50.0,0.0,15.0,2.0,0.0
395,50.0,0.0,15.0,2.0,0.0
396,43.0,0.0,15.0,3.0,0.0
397,59.0,180.0,15.0,2.0,0.0
398,67.0,278.0,180.0,0.0,0.0
399,62.0,240.0,240.0,0.0,0.0
400,50.0,8.0,240.0,2.0,0.0
401,59.0,0.0,240.0,2.0,0.0
402,43.0,7.0,240.0,3.0,0.0
403,55.0,0.0,240.0,2.0,0.0
404,59.0,0.0,240.0,2.0,0.0
405,62.0,0.0,240.0,2.0,0.0
406,67.0,0.0,240.0,2.0,0.0
407,50.0,120.0,240.0,2.0,0.0
408,71.0,120.0,360.0,0.0,0.0
409,43.0,0.0,15.0,3.0,0.0
410,59.0,0.0,240.0,2.0,0.0
411,55.0,0.0,240.0,2.0,0.0
412,50.0,0.0,240.0,2.0,0.0
413,67.0,0.0,240.0,2.0,0.0
414,62.0,0.0,240.0,2.0,0.0
415,62.0,0.0,240.0,2.0,0.0
416,43.0,0.0,240.0,3.0,0.0
417,71.0,120.0,360.0,0.0,0.0
418,67.0,120.0,240.0,2.0,0.0
419,50.0,0.0,15.0,2.0,0.0
420,55.0,0.0,15.0,2.0,0.0
421,59.0,0.0,15.0,2.0,0.0
422,43.0,240.0,240.0,3.0,0.0
423,67.0,0.0,240.0,2.0,0.0
424,62.0,0.0,240.0,2.0,0.0
425,50.0,0.0,15.0,2.0,0.0
426,55.0,0.0,240.0,2.0,0.0
427,71.0,0.0,720.0,0.0,0.0
428,59.0,0.0,240.0,2.0,0.0
429,67.0,0.0,15.0,2.0,0.0
430,50.0,240.0,240.0,2.0,0.0
431,55.0,0.0,240.0,2.0,0.0
432,62.0,0.0,15.0,2.0,0.0
433,59.0,0.0,240.0,2.0,0.0
434,43.0,240.0,15.0,3.0,0.0
435,50.0,0.0,240.0,2.0,0.0
436,59.0,0.0,240.0,2.0,0.0
437,62.0,0.0,15.0,2.0,0.0
438,55.0,0.0,15.0,2.0,0.0
439,43.0,0.0,15.0,3.0,0.0
440,67.0,240.0,15.0,2.0,0.0
441,50.0,0.0,240.0,2.0,0.0
442,69.0,192.0,240.0,0.0,0.0
443,59.0,0.0,15.0,2.0,0.0
444,43.0,0.0,240.0,3.0,0.0
445,67.0,48.0,180.0,0.0,0.0
446,50.0,0.0,15.0,2.0,0.0
447,55.0,0.0,15.0,2.0,0.0
448,69.0,48.0,180.0,0.0,0.0
449,59.0,192.0,15.0,2.0,0.0
450,43.0,0.0,15.0,3.0,0.0
451,71.0,48.0,180.0,0.0,0.0
452,67.0,192.0,15.0,2.0,0.0
453,59.0,0.0,15.0,2.0,0.0
454,55.0,0.0,240.0,2.0,0.0
455,50.0,0.0,240.0,2.0,0.0
456,73.0,48.0,180.0,0.0,0.0
457,43.0,0.0,15.0,3.0,0.0
458,50.0,0.0,240.0,2.0,0.0
459,55.0,0.0,240.0,2.0,0.0
460,59.0,192.0,15.0,2.0,0.0
461,67.0,0.0,240.0,2.0,0.0
462,55.0,0.0,240.0,2.0,0.0
463,50.0,0.0,240.0,2.0,0.0
464,67.0,0.0,240.0,2.0,0.0
465,43.0,0.0,240.0,3.0,0.0
466,73.0,0.0,480.0,0.0,0.0
467,59.0,240.0,15.0,2.0,0.0
468,55.0,0.0,240.0,2.0,0.0
469,50.0,0.0,240.0,2.0,0.0
470,67.0,0.0,240.0,2.0,0.0
471,74.0,240.0,240.0,0.0,0.0
472,43.0,0.0,15.0,3.0,0.0
473,67.0,0.0,240.0,2.0,0.0
474,59.0,0.0,15.0,2.0,0.0
475,55.0,0.0,15.0,2.0,0.0
476,50.0,0.0,15.0,2.0,0.0
477,43.0,240.0,240.0,3.0,0.0
478,67.0,0.0,240.0,2.0,0.0
479,54.0,0.0,240.0,2.0,0.0
480,60.0,0.0,240.0,2.0,0.0
481,74.0,120.0,360.0,0.0,0.0
482,50.0,0.0,240.0,2.0,0.0
483,45.0,0.0,240.0,3.0,0.0
484,45.0,240.0,240.0,3.0,0.0
485,66.0,120.0,15.0,2.0,0.0
486,54.0,0.0,240.0,2.0,0.0
487,50.0,0.0,240.0,2.0,0.0
488,60.0,0.0,240.0,2.0,0.0
489,74.0,120.0,360.0,0.0,0.0
490,60.0,120.0,240.0,2.0,0.0
491,45.0,0.0,240.0,3.0,0.0
492,45.0,240.0,240.0,3.0,0.0
493,50.0,0.0,15.0,2.0,0.0
494,66.0,0.0,15.0,2.0,0.0
495,54.0,0.0,15.0,2.0,0.0
496,66.0,0.0,15.0,2.0,0.0
497,60.0,0.0,15.0,2.0,0.0
498,45.0,0.0,240.0,3.0,0.0
499,74.0,240.0,720.0,0.0,0.0
500,45.0,0.0,240.0,3.0,0.0
501,50.0,0.0,15.0,2.0,0.0
502,66.0,0.0,240.0,2.0,0.0
503,54.0,240.0,15.0,2.0,0.0
504,50.0,240.0,15.0,2.0,0.0
505,60.0,0.0,15.0,2.0,0.0
506,45.0,0.0,240.0,3.0,0.0
507,54.0,0.0,15.0,2.0,0.0
508,66.0,0.0,15.0,2.0,0.0
509,72.0,0.0,240.0,0.0,0.0
510,45.0,0.0,240.0,3.0,0.0
511,38.0,0.0,240.0,3.0,0.0
512,60.0,0.0,15.0,2.0,0.0
513,66.0,0.0,240.0,2.0,0.0
514,71.0,240.0,240.0,0.0,0.0
515,50.0,240.0,15.0,2.0,0.0
516,66.0,0.0,240.0,2.0,0.0
517,60.0,0.0,240.0,2.0,0.0
518,38.0,240.0,240.0,3.0,0.0
519,69.0,0.0,240.0,0.0,0.0
520,50.0,0.0,15.0,2.0,0.0
521,72.0,0.0,240.0,0.0,0.0
522,60.0,0.0,15.0,2.0,0.0
523,50.0,0.0,15.0,2.0,0.0
524,38.0,240.0,15.0,3.0,0.0
525,66.0,0.0,15.0,2.0,0.0
526,66.0,240.0,240.0,0.0,0.0
527,69.0,0.0,480.0,0.0,0.0
528,50.0,0.0,15.0,2.0,0.0
529,43.0,0.0,15.0,3.0,0.0
530,59.0,0.0,15.0,2.0,0.0
531,50.0,90.0,240.0,2.0,0.0
532,43.0,0.0,15.0,3.0,0.0
533,50.0,0.0,120.0,2.0,0.0
534,59.0,360.0,120.0,2.0,0.0
535,67.0,0.0,120.0,0.0,0.0
536,71.0,360.0,240.0,0.0,0.0
537,56.0,480.0,360.0,2.0,0.0
538,71.0,0.0,360.0,1.0,0.0
539,68.0,0.0,360.0,1.0,0.0
540,76.0,0.0,360.0,1.0,0.0
541,80.0,0.0,360.0,0.0,0.0
542,52.0,0.0,360.0,3.0,0.0
543,64.0,0.0,360.0,2.0,0.0
544,59.0,0.0,360.0,2.0,0.0
545,76.0,0.0,360.0,1.0,0.0
546,56.0,0.0,360.0,2.0,0.0
547,80.0,0.0,360.0,0.0,0.0
548,52.0,0.0,360.0,3.0,0.0
549,59.0,840.0,360.0,2.0,0.0
550,64.0,0.0,360.0,2.0,0.0
551,68.0,0.0,360.0,1.0,0.0
552,71.0,0.0,360.0,1.0,0.0
553,76.0,0.0,720.0,1.0,0.0
554,71.0,0.0,720.0,1.0,0.0
555,80.0,0.0,720.0,0.0,0.0
556,68.0,0.0,15.0,1.0,0.0
557,64.0,192.0,15.0,3.0,0.0
558,76.0,0.0,180.0,0.0,0.0
559,64.0,0.0,180.0,2.0,0.0
560,78.0,240.0,180.0,0.0,0.0
561,63.0,0.0,180.0,3.0,0.0
562,69.0,0.0,180.0,1.0,0.0
563,64.0,0.0,180.0,2.0,0.0
564,76.0,0.0,180.0,1.0,0.0
565,71.0,0.0,180.0,1.0,0.0
566,62.0,0.0,180.0,3.0,0.0
567,80.0,240.0,180.0,0.0,0.0
568,64.0,240.0,180.0,2.0,0.0
569,60.0,0.0,180.0,3.0,0.0
570,81.0,0.0,180.0,0.0,0.0
571,72.0,0.0,180.0,1.0,0.0
572,76.0,0.0,180.0,1.0,0.0
573,56.0,768.0,180.0,3.0,0.0
574,83.0,0.0,180.0,0.0,0.0
575,64.0,0.0,180.0,2.0,0.0
576,74.0,0.0,180.0,1.0,0.0
577,76.0,0.0,180.0,1.0,0.0
578,76.0,79.0,1230.0,1.0,0.0
579,72.0,0.0,1230.0,1.0,0.0
580,57.0,240.0,720.0,3.0,0.0
581,64.0,0.0,720.0,2.0,0.0
582,44.0,240.0,240.0,3.0,0.0
583,45.0,17.0,240.0,3.0,0.0
584,84.0,0.0,15.0,0.0,0.0
585,47.0,96.0,240.0,3.0,0.0
586,83.0,24.0,90.0,0.0,0.0
587,48.0,96.0,240.0,3.0,0.0
588,81.0,120.0,90.0,0.0,0.0
589,79.0,24.0,90.0,0.0,0.0
590,49.0,336.0,240.0,3.0,0.0
591,78.0,120.0,90.0,0.0,0.0
592,76.0,24.0,90.0,0.0,0.0
593,74.0,100.0,1230.0,0.0,0.0
594,72.0,120.0,90.0,1.0,0.0
595,71.0,120.0,90.0,1.0,0.0
596,69.0,120.0,90.0,1.0,0.0
597,67.0,120.0,90.0,1.0,0.0
598,66.0,120.0,90.0,1.0,0.0
599,64.0,24.0,90.0,1.0,0.0
600,50.0,240.0,15.0,3.0,0.0
601,62.0,42.0,450.0,1.0,0.0
602,52.0,20.0,120.0,2.0,0.0
603,54.0,78.0,120.0,2.0,0.0
604,73.0,120.0,240.0,0.0,0.0
605,55.0,0.0,120.0,2.0,0.0
606,72.0,0.0,240.0,0.0,0.0
607,57.0,120.0,120.0,2.0,0.0
608,50.0,0.0,480.0,3.0,0.0
609,59.0,120.0,120.0,2.0,0.0
610,69.0,480.0,240.0,0.0,0.0
611,60.0,120.0,120.0,2.0,0.0
612,57.0,0.0,120.0,2.0,0.0
613,55.0,0.0,480.0,3.0,0.0
614,67.0,0.0,480.0,0.0,0.0
615,59.0,156.0,480.0,2.0,0.0
616,43.0,276.0,150.0,3.0,0.0
617,71.0,408.0,180.0,0.0,0.0
618,76.0,0.0,360.0,1.0,0.0
619,68.0,0.0,360.0,1.0,0.0
620,71.0,0.0,360.0,1.0,0.0
621,52.0,0.0,360.0,3.0,0.0
622,56.0,0.0,360.0,2.0,0.0
623,64.0,0.0,360.0,2.0,0.0
624,80.0,0.0,360.0,0.0,0.0
625,59.0,480.0,360.0,2.0,0.0
626,56.0,0.0,360.0,2.0,0.0
627,59.0,0.0,360.0,2.0,0.0
628,76.0,0.0,360.0,1.0,0.0
629,68.0,0.0,360.0,1.0,0.0
630,80.0,0.0,360.0,0.0,0.0
631,64.0,0.0,360.0,2.0,0.0
632,71.0,0.0,360.0,1.0,0.0
633,52.0,840.0,360.0,3.0,0.0
634,68.0,0.0,720.0,1.0,0.0
635,71.0,0.0,720.0,1.0,0.0
636,76.0,0.0,720.0,1.0,0.0
637,80.0,40.0,720.0,0.0,0.0
638,64.0,0.0,15.0,3.0,0.0
639,76.0,40.0,30.0,0.0,0.0
640,78.0,40.0,30.0,0.0,0.0
641,76.0,60.0,30.0,0.0,0.0
642,75.0,12.0,60.0,0.0,0.0
643,76.0,192.0,60.0,0.0,0.0
644,78.0,0.0,180.0,0.0,0.0
645,64.0,88.0,180.0,2.0,0.0
646,63.0,0.0,180.0,3.0,0.0
647,80.0,40.0,30.0,0.0,0.0
648,62.0,0.0,180.0,3.0,0.0
649,64.0,48.0,180.0,2.0,0.0
650,81.0,40.0,30.0,0.0,0.0
651,80.0,60.0,30.0,0.0,0.0
652,78.0,12.0,60.0,0.0,0.0
653,80.0,192.0,60.0,0.0,0.0
654,64.0,0.0,180.0,2.0,0.0
655,60.0,0.0,180.0,3.0,0.0
656,81.0,88.0,180.0,0.0,0.0
657,56.0,48.0,180.0,3.0,0.0
658,64.0,0.0,180.0,2.0,0.0
659,83.0,40.0,30.0,0.0,0.0
660,84.0,40.0,30.0,0.0,0.0
661,83.0,60.0,30.0,0.0,0.0
662,81.0,12.0,60.0,0.0,0.0
663,83.0,720.0,60.0,0.0,0.0
664,64.0,240.0,720.0,2.0,0.0
665,57.0,0.0,720.0,3.0,0.0
666,44.0,240.0,240.0,3.0,0.0
667,45.0,0.0,240.0,3.0,0.0
668,84.0,96.0,15.0,0.0,0.0
669,47.0,96.0,240.0,3.0,0.0
670,83.0,24.0,90.0,0.0,0.0
671,48.0,96.0,240.0,3.0,0.0
672,81.0,120.0,90.0,0.0,0.0
673,79.0,24.0,90.0,0.0,0.0
674,78.0,120.0,90.0,0.0,0.0
675,49.0,336.0,240.0,3.0,0.0
676,76.0,24.0,90.0,0.0,0.0
677,50.0,191.0,960.0,3.0,0.0
678,74.0,49.0,1140.0,0.0,0.0
679,72.0,120.0,90.0,1.0,0.0
680,71.0,120.0,90.0,1.0,0.0
681,69.0,120.0,90.0,1.0,0.0
682,67.0,120.0,90.0,1.0,0.0
683,66.0,120.0,90.0,1.0,0.0
684,64.0,24.0,90.0,1.0,0.0
685,50.0,0.0,480.0,3.0,0.0
686,62.0,19.0,450.0,1.0,0.0
687,52.0,120.0,120.0,2.0,0.0
688,73.0,0.0,240.0,0.0,0.0
689,54.0,101.0,120.0,2.0,0.0
690,55.0,120.0,120.0,2.0,0.0
691,72.0,120.0,240.0,0.0,0.0
692,50.0,0.0,480.0,3.0,0.0
693,57.0,120.0,120.0,2.0,0.0
694,59.0,0.0,120.0,2.0,0.0
695,60.0,120.0,120.0,2.0,0.0
696,69.0,0.0,240.0,0.0,0.0
697,57.0,480.0,120.0,2.0,0.0
698,59.0,120.0,480.0,2.0,0.0
699,67.0,0.0,480.0,0.0,0.0
700,55.0,0.0,480.0,3.0,0.0
701,43.0,312.0,120.0,3.0,0.0
702,62.0,408.0,180.0,0.0,0.0
703,62.0,0.0,360.0,1.0,0.0
704,71.0,480.0,360.0,1.0,0.0
705,74.0,0.0,360.0,0.0,0.0
706,74.0,360.0,360.0,0.0,0.0
707,71.0,0.0,360.0,1.0,0.0
708,62.0,0.0,360.0,1.0,0.0
709,67.0,0.0,960.0,1.0,0.0
710,62.0,0.0,960.0,1.0,0.0
711,71.0,360.0,960.0,0.0,0.0
712,50.0,120.0,120.0,3.0,0.0
713,52.0,120.0,120.0,3.0,0.0
714,54.0,120.0,120.0,3.0,0.0
715,55.0,120.0,120.0,3.0,0.0
716,57.0,120.0,120.0,3.0,0.0
717,59.0,120.0,120.0,3.0,0.0
718,55.0,0.0,120.0,3.0,0.0
719,69.0,0.0,360.0,0.0,0.0
720,60.0,0.0,360.0,3.0,0.0
721,66.0,480.0,360.0,1.0,0.0
722,62.0,0.0,360.0,1.0,0.0
723,62.0,240.0,360.0,1.0,0.0
724,66.0,0.0,360.0,1.0,0.0
725,69.0,0.0,360.0,0.0,0.0
726,60.0,120.0,120.0,3.0,0.0
727,69.0,360.0,960.0,1.0,0.0
728,72.0,0.0,960.0,1.0,0.0
729,59.0,120.0,120.0,3.0,0.0
730,57.0,120.0,120.0,3.0,0.0
731,55.0,120.0,120.0,3.0,0.0
732,54.0,120.0,120.0,3.0,0.0
733,52.0,120.0,120.0,3.0,0.0
734,50.0,120.0,120.0,3.0,0.0
735,54.0,0.0,120.0,3.0,0.0
736,62.0,0.0,15.0,1.0,0.0
737,74.0,0.0,15.0,0.0,0.0
738,55.0,0.0,360.0,3.0,0.0
739,71.0,0.0,360.0,1.0,0.0
740,71.0,360.0,360.0,1.0,0.0
741,62.0,0.0,360.0,1.0,0.0
742,74.0,0.0,360.0,0.0,0.0
743,71.0,0.0,960.0,0.0,0.0
744,67.0,0.0,960.0,1.0,0.0
745,50.0,120.0,120.0,3.0,0.0
746,52.0,120.0,120.0,3.0,0.0
747,54.0,120.0,120.0,3.0,0.0
748,55.0,120.0,120.0,3.0,0.0
749,57.0,120.0,120.0,3.0,0.0
750,59.0,120.0,120.0,3.0,0.0
751,55.0,78.0,120.0,3.0,0.0
752,62.0,0.0,15.0,1.0,0.0
753,66.0,18.0,180.0,1.0,0.0
754,69.0,0.0,180.0,0.0,0.0
755,60.0,102.0,90.0,3.0,0.0
756,57.0,120.0,90.0,3.0,0.0
757,54.0,120.0,90.0,3.0,0.0
758,74.0,78.0,480.0,0.0,0.0
759,50.0,120.0,90.0,3.0,0.0
760,48.0,120.0,90.0,3.0,0.0
761,45.0,42.0,90.0,3.0,0.0
762,60.0,0.0,240.0,1.0,0.0
763,74.0,480.0,240.0,0.0,0.0
764,42.0,120.0,90.0,3.0,0.0
765,38.0,42.0,90.0,3.0,0.0
766,43.0,0.0,480.0,3.0,0.0
767,59.0,0.0,480.0,1.0,0.0
768,67.0,192.0,480.0,0.0,0.0
769,55.0,288.0,180.0,3.0,0.0
770,62.0,240.0,240.0,0.0,0.0
771,71.0,240.0,240.0,1.0,0.0
772,62.0,0.0,15.0,1.0,0.0
773,74.0,0.0,15.0,0.0,0.0
774,62.0,240.0,15.0,1.0,0.0
775,74.0,0.0,15.0,0.0,0.0
776,71.0,0.0,15.0,1.0,0.0
777,71.0,0.0,240.0,1.0,0.0
778,74.0,240.0,15.0,0.0,0.0
779,67.0,240.0,960.0,1.0,0.0
780,62.0,240.0,15.0,1.0,0.0
781,71.0,0.0,960.0,0.0,0.0
782,50.0,120.0,120.0,3.0,0.0
783,52.0,120.0,120.0,3.0,0.0
784,54.0,120.0,120.0,3.0,0.0
785,55.0,120.0,120.0,3.0,0.0
786,57.0,120.0,120.0,3.0,0.0
787,59.0,120.0,120.0,3.0,0.0
788,55.0,0.0,120.0,3.0,0.0
789,60.0,120.0,360.0,3.0,0.0
790,62.0,0.0,15.0,1.0,0.0
791,66.0,0.0,15.0,1.0,0.0
792,69.0,120.0,15.0,0.0,0.0
793,62.0,0.0,15.0,1.0,0.0
794,66.0,240.0,15.0,1.0,0.0
795,69.0,0.0,15.0,0.0,0.0
796,66.0,120.0,240.0,1.0,0.0
797,62.0,0.0,240.0,1.0,0.0
798,72.0,0.0,960.0,1.0,0.0
799,69.0,0.0,960.0,1.0,0.0
800,60.0,120.0,120.0,3.0,0.0
801,59.0,120.0,120.0,3.0,0.0
802,57.0,120.0,120.0,3.0,0.0
803,55.0,120.0,120.0,3.0,0.0
804,54.0,120.0,120.0,3.0,0.0
805,52.0,120.0,120.0,3.0,0.0
806,50.0,120.0,120.0,3.0,0.0
807,54.0,0.0,120.0,3.0,0.0
808,62.0,240.0,15.0,1.0,0.0
809,74.0,0.0,15.0,0.0,0.0
810,55.0,120.0,360.0,3.0,0.0
811,71.0,0.0,240.0,1.0,0.0
812,74.0,120.0,15.0,0.0,0.0
813,62.0,0.0,15.0,1.0,0.0
814,62.0,240.0,15.0,1.0,0.0
815,71.0,0.0,15.0,1.0,0.0
816,62.0,0.0,15.0,1.0,0.0
817,71.0,0.0,15.0,1.0,0.0
818,74.0,240.0,15.0,0.0,0.0
819,62.0,240.0,15.0,1.0,0.0
820,71.0,78.0,960.0,0.0,0.0
821,67.0,0.0,960.0,1.0,0.0
822,50.0,120.0,120.0,3.0,0.0
823,52.0,120.0,120.0,3.0,0.0
824,54.0,120.0,120.0,3.0,0.0
825,55.0,120.0,120.0,3.0,0.0
826,57.0,120.0,120.0,3.0,0.0
827,59.0,120.0,120.0,3.0,0.0
828,55.0,0.0,120.0,3.0,0.0
829,66.0,0.0,180.0,1.0,0.0
830,62.0,0.0,15.0,1.0,0.0
831,69.0,18.0,180.0,0.0,0.0
832,60.0,102.0,90.0,3.0,0.0
833,57.0,120.0,90.0,3.0,0.0
834,74.0,78.0,480.0,0.0,0.0
835,54.0,120.0,90.0,3.0,0.0
836,50.0,120.0,90.0,3.0,0.0
837,48.0,120.0,90.0,3.0,0.0
838,45.0,42.0,90.0,3.0,0.0
839,60.0,0.0,240.0,1.0,0.0
840,42.0,120.0,90.0,3.0,0.0
841,74.0,480.0,240.0,0.0,0.0
842,38.0,42.0,90.0,3.0,0.0
843,59.0,0.0,480.0,1.0,0.0
844,43.0,0.0,480.0,3.0,0.0
845,67.0,240.0,480.0,0.0,0.0
846,55.0,480.0,240.0,3.0,0.0
847,72.0,0.0,240.0,0.0,0.0
848,69.0,240.0,240.0,1.0,0.0
849,72.0,0.0,240.0,0.0,0.0
850,69.0,240.0,15.0,1.0,0.0
851,72.0,240.0,240.0,0.0,0.0
852,72.0,0.0,240.0,0.0,0.0
853,69.0,240.0,15.0,1.0,0.0
854,72.0,240.0,960.0,1.0,0.0
855,38.0,120.0,120.0,3.0,0.0
856,50.0,120.0,120.0,3.0,0.0
857,52.0,120.0,120.0,3.0,0.0
858,54.0,120.0,120.0,3.0,0.0
859,55.0,120.0,120.0,3.0,0.0
860,57.0,120.0,120.0,3.0,0.0
861,59.0,0.0,120.0,3.0,0.0
862,61.0,0.0,240.0,3.0,0.0
863,78.0,0.0,15.0,0.0,0.0
864,62.0,0.0,720.0,3.0,0.0
865,69.0,240.0,15.0,1.0,0.0
866,78.0,240.0,240.0,0.0,0.0
867,69.0,0.0,15.0,1.0,0.0
868,78.0,240.0,240.0,0.0,0.0
869,69.0,240.0,240.0,1.0,0.0
870,78.0,0.0,240.0,0.0,0.0
871,81.0,0.0,960.0,0.0,0.0
872,72.0,240.0,960.0,1.0,0.0
873,78.0,0.0,960.0,1.0,0.0
874,69.0,0.0,960.0,1.0,0.0
875,38.0,120.0,120.0,3.0,0.0
876,50.0,120.0,120.0,3.0,0.0
877,52.0,120.0,120.0,3.0,0.0
878,54.0,120.0,120.0,3.0,0.0
879,55.0,120.0,120.0,3.0,0.0
880,57.0,120.0,120.0,3.0,0.0
881,59.0,0.0,120.0,3.0,0.0
882,61.0,0.0,240.0,3.0,0.0
883,81.0,0.0,240.0,0.0,0.0
884,62.0,240.0,960.0,3.0,0.0
885,69.0,0.0,15.0,1.0,0.0
886,78.0,240.0,15.0,1.0,0.0
887,81.0,0.0,240.0,0.0,0.0
888,81.0,0.0,240.0,0.0,0.0
889,69.0,240.0,15.0,1.0,0.0
890,78.0,0.0,15.0,1.0,0.0
891,78.0,240.0,15.0,1.0,0.0
892,81.0,0.0,240.0,0.0,0.0
893,69.0,240.0,240.0,1.0,0.0
894,78.0,0.0,15.0,1.0,0.0
895,81.0,0.0,480.0,1.0,0.0
896,84.0,240.0,720.0,0.0,0.0
897,63.0,240.0,240.0,3.0,0.0
898,79.0,0.0,240.0,1.0,0.0
899,64.0,0.0,240.0,3.0,0.0
900,75.0,240.0,240.0,1.0,0.0
901,59.0,0.0,240.0,3.0,0.0
902,83.0,0.0,15.0,0.0,0.0
903,60.0,0.0,240.0,3.0,0.0
904,76.0,0.0,15.0,1.0,0.0
905,61.0,240.0,240.0,3.0,0.0
906,81.0,0.0,240.0,0.0,0.0
907,79.0,0.0,240.0,0.0,0.0
908,62.0,240.0,720.0,3.0,0.0
909,71.0,240.0,240.0,1.0,0.0
910,72.0,0.0,240.0,1.0,0.0
911,78.0,240.0,240.0,0.0,0.0
912,69.0,0.0,240.0,1.0,0.0
913,50.0,0.0,240.0,3.0,0.0
914,55.0,0.0,240.0,3.0,0.0
915,72.0,160.0,480.0,1.0,0.0
916,81.0,0.0,480.0,0.0,0.0
917,66.0,0.0,240.0,3.0,0.0
918,79.0,420.0,180.0,0.0,0.0
919,67.0,20.0,150.0,3.0,0.0
920,71.0,0.0,180.0,1.0,0.0
921,71.0,78.0,120.0,0.0,0.0
922,72.0,162.0,90.0,0.0,0.0
923,71.0,78.0,120.0,0.0,0.0
924,72.0,162.0,90.0,0.0,0.0
925,71.0,78.0,120.0,0.0,0.0
926,72.0,162.0,90.0,0.0,0.0
927,71.0,78.0,120.0,0.0,0.0
928,72.0,240.0,90.0,0.0,0.0
929,69.0,0.0,960.0,1.0,0.0
930,72.0,120.0,960.0,1.0,0.0
931,78.0,0.0,960.0,0.0,0.0
932,38.0,120.0,90.0,3.0,0.0
933,50.0,120.0,90.0,3.0,0.0
934,52.0,120.0,90.0,3.0,0.0
935,54.0,120.0,90.0,3.0,0.0
936,55.0,120.0,90.0,3.0,0.0
937,57.0,120.0,90.0,3.0,0.0
938,59.0,42.0,90.0,3.0,0.0
939,77.0,78.0,120.0,0.0,0.0
940,61.0,120.0,240.0,3.0,0.0
941,78.0,42.0,90.0,0.0,0.0
942,62.0,198.0,720.0,3.0,0.0
943,77.0,78.0,120.0,0.0,0.0
944,78.0,162.0,90.0,0.0,0.0
945,77.0,78.0,120.0,0.0,0.0
946,78.0,162.0,90.0,0.0,0.0
947,77.0,78.0,120.0,0.0,0.0
948,78.0,42.0,90.0,0.0,0.0
949,78.0,0.0,1050.0,1.0,0.0
950,72.0,0.0,960.0,1.0,0.0
951,69.0,92.0,960.0,1.0,0.0
952,81.0,106.0,1050.0,0.0,0.0
953,38.0,120.0,90.0,3.0,0.0
954,50.0,120.0,90.0,3.0,0.0
955,52.0,120.0,90.0,3.0,0.0
956,54.0,120.0,90.0,3.0,0.0
957,55.0,120.0,90.0,3.0,0.0
958,57.0,120.0,90.0,3.0,0.0
959,59.0,42.0,90.0,3.0,0.0
960,61.0,120.0,240.0,3.0,0.0
961,81.0,0.0,90.0,0.0,0.0
962,78.0,42.0,90.0,1.0,0.0
963,80.0,78.0,120.0,0.0,0.0
964,77.0,0.0,120.0,1.0,0.0
965,62.0,240.0,960.0,3.0,0.0
966,78.0,0.0,90.0,1.0,0.0
967,81.0,162.0,90.0,0.0,0.0
968,80.0,0.0,120.0,0.0,0.0
969,77.0,78.0,120.0,1.0,0.0
970,81.0,0.0,90.0,0.0,0.0
971,78.0,162.0,90.0,1.0,0.0
972,80.0,78.0,120.0,0.0,0.0
973,77.0,0.0,120.0,1.0,0.0
974,78.0,282.0,90.0,1.0,0.0
975,81.0,0.0,90.0,0.0,0.0
976,84.0,0.0,720.0,0.0,0.0
977,81.0,240.0,480.0,1.0,0.0
978,78.0,0.0,480.0,1.0,0.0
979,63.0,0.0,240.0,3.0,0.0
980,64.0,240.0,240.0,3.0,0.0
981,79.0,0.0,240.0,1.0,0.0
982,75.0,0.0,240.0,1.0,0.0
983,59.0,0.0,240.0,3.0,0.0
984,60.0,0.0,240.0,3.0,0.0
985,83.0,240.0,15.0,0.0,0.0
986,81.0,0.0,240.0,0.0,0.0
987,61.0,0.0,240.0,3.0,0.0
988,76.0,240.0,15.0,1.0,0.0
989,79.0,0.0,240.0,0.0,0.0
990,62.0,0.0,720.0,3.0,0.0
991,71.0,240.0,240.0,1.0,0.0
992,78.0,0.0,240.0,0.0,0.0
993,50.0,0.0,240.0,3.0,0.0
994,69.0,240.0,240.0,1.0,0.0
995,81.0,101.0,480.0,0.0,0.0
996,72.0,0.0,15.0,1.0,0.0
997,55.0,240.0,240.0,3.0,0.0
998,66.0,0.0,240.0,3.0,0.0
999,79.0,0.0,90.0,0.0,0.0
1000,71.0,79.0,90.0,1.0,0.0
1001,67.0,180.0,180.0,3.0,0.0
1002,59.0,120.0,120.0,0.0,0.0
1003,57.0,120.0,120.0,0.0,0.0
1004,56.0,120.0,120.0,0.0,0.0
1005,47.0,0.0,480.0,2.0,0.0
1006,44.0,0.0,480.0,2.0,0.0
1007,40.0,0.0,480.0,3.0,0.0
1008,52.0,0.0,480.0,2.0,0.0
1009,59.0,120.0,120.0,0.0,0.0
1010,64.0,120.0,120.0,0.0,0.0
1011,59.0,120.0,120.0,0.0,0.0
1012,68.0,120.0,120.0,0.0,0.0
1013,64.0,120.0,120.0,0.0,0.0
1014,71.0,120.0,120.0,0.0,0.0
1015,68.0,120.0,120.0,0.0,0.0
1016,76.0,120.0,120.0,0.0,0.0
1017,71.0,120.0,120.0,0.0,0.0
1018,80.0,120.0,120.0,0.0,0.0
1019,76.0,96.0,120.0,0.0,0.0
1020,64.0,240.0,90.0,3.0,0.0
1021,83.0,0.0,90.0,0.0,0.0
1022,68.0,0.0,90.0,2.0,0.0
1023,71.0,0.0,90.0,2.0,0.0
1024,64.0,0.0,90.0,3.0,0.0
1025,80.0,0.0,90.0,0.0,0.0
1026,68.0,240.0,90.0,2.0,0.0
1027,71.0,0.0,90.0,2.0,0.0
1028,76.0,145.0,90.0,0.0,0.0
1029,64.0,0.0,90.0,3.0,0.0
1030,71.0,0.0,90.0,2.0,0.0
1031,68.0,0.0,90.0,2.0,0.0
1032,71.0,0.0,360.0,2.0,0.0
1033,69.0,240.0,360.0,2.0,0.0
1034,66.0,0.0,360.0,3.0,0.0
1035,75.0,359.0,15.0,0.0,0.0
1036,66.0,120.0,120.0,0.0,0.0
1037,64.0,120.0,120.0,0.0,0.0
1038,51.0,120.0,480.0,2.0,0.0
1039,54.0,0.0,480.0,2.0,0.0
1040,59.0,0.0,480.0,2.0,0.0
1041,47.0,0.0,480.0,3.0,0.0
1042,63.0,120.0,120.0,0.0,0.0
1043,66.0,120.0,120.0,0.0,0.0
1044,71.0,120.0,120.0,0.0,0.0
1045,66.0,0.0,120.0,0.0,0.0
1046,75.0,120.0,120.0,0.0,0.0
1047,71.0,120.0,120.0,0.0,0.0
1048,78.0,120.0,120.0,0.0,0.0
1049,75.0,120.0,120.0,0.0,0.0
1050,83.0,120.0,120.0,0.0,0.0
1051,78.0,120.0,120.0,0.0,0.0
1052,87.0,120.0,120.0,0.0,0.0
1053,83.0,96.0,120.0,0.0,0.0
1054,71.0,0.0,90.0,2.0,0.0
1055,66.0,0.0,90.0,2.0,0.0
1056,63.0,0.0,90.0,3.0,0.0
1057,90.0,240.0,90.0,0.0,0.0
1058,87.0,240.0,90.0,0.0,0.0
1059,71.0,0.0,90.0,2.0,0.0
1060,63.0,0.0,90.0,3.0,0.0
1061,66.0,0.0,90.0,2.0,0.0
1062,71.0,0.0,90.0,2.0,0.0
1063,66.0,0.0,90.0,2.0,0.0
1064,81.0,0.0,90.0,0.0,0.0
1065,63.0,145.0,90.0,3.0,0.0
1066,64.0,240.0,360.0,3.0,0.0
1067,80.0,359.0,15.0,0.0,0.0
1068,71.0,0.0,360.0,2.0,0.0
1069,68.0,0.0,360.0,2.0,0.0
1070,83.0,120.0,120.0,0.0,0.0
1071,81.0,120.0,120.0,0.0,0.0
1072,80.0,120.0,120.0,0.0,0.0
1073,83.0,120.0,120.0,0.0,0.0
1074,80.0,0.0,120.0,0.0,0.0
1075,71.0,120.0,120.0,3.0,0.0
1076,78.0,0.0,120.0,0.0,0.0
1077,69.0,120.0,120.0,3.0,0.0
1078,76.0,0.0,120.0,0.0,0.0
1079,68.0,120.0,120.0,3.0,0.0
1080,71.0,120.0,120.0,3.0,0.0
1081,80.0,0.0,120.0,0.0,0.0
1082,76.0,0.0,120.0,0.0,0.0
1083,68.0,120.0,120.0,3.0,0.0
1084,66.0,0.0,120.0,3.0,0.0
1085,75.0,120.0,120.0,0.0,0.0
1086,64.0,0.0,120.0,3.0,0.0
1087,73.0,120.0,120.0,0.0,0.0
1088,76.0,120.0,120.0,0.0,0.0
1089,68.0,0.0,120.0,3.0,0.0
1090,73.0,120.0,120.0,0.0,0.0
1091,64.0,0.0,120.0,3.0,0.0
1092,63.0,120.0,120.0,3.0,0.0
1093,71.0,0.0,120.0,0.0,0.0
1094,61.0,120.0,120.0,3.0,0.0
1095,69.0,0.0,120.0,0.0,0.0
1096,73.0,120.0,120.0,0.0,0.0
1097,64.0,0.0,120.0,3.0,0.0
1098,61.0,120.0,120.0,3.0,0.0
1099,69.0,0.0,120.0,0.0,0.0
1100,68.0,0.0,120.0,0.0,0.0
1101,59.0,120.0,120.0,3.0,0.0
1102,66.0,0.0,120.0,0.0,0.0
1103,57.0,120.0,120.0,3.0,0.0
1104,69.0,0.0,120.0,0.0,0.0
1105,61.0,120.0,120.0,3.0,0.0
1106,57.0,0.0,120.0,3.0,0.0
1107,66.0,120.0,120.0,0.0,0.0
1108,56.0,0.0,120.0,3.0,0.0
1109,64.0,120.0,120.0,0.0,0.0
1110,54.0,0.0,120.0,3.0,0.0
1111,63.0,120.0,120.0,0.0,0.0
1112,57.0,120.0,120.0,3.0,0.0
1113,66.0,0.0,120.0,0.0,0.0
1114,63.0,120.0,120.0,0.0,0.0
1115,54.0,0.0,120.0,3.0,0.0
1116,52.0,120.0,120.0,3.0,0.0
1117,61.0,0.0,120.0,0.0,0.0
1118,51.0,120.0,240.0,3.0,0.0
1119,60.0,120.0,120.0,0.0,0.0
1120,63.0,0.0,120.0,0.0,0.0
1121,60.0,120.0,120.0,0.0,0.0
1122,57.0,0.0,120.0,0.0,0.0
1123,44.0,120.0,120.0,3.0,0.0
1124,56.0,0.0,120.0,0.0,0.0
1125,46.0,120.0,120.0,3.0,0.0
1126,54.0,0.0,120.0,0.0,0.0
1127,48.0,120.0,120.0,3.0,0.0
1128,52.0,120.0,120.0,0.0,0.0
1129,49.0,0.0,240.0,3.0,0.0
1130,68.0,120.0,120.0,0.0,0.0
1131,64.0,120.0,120.0,0.0,0.0
1132,37.0,120.0,120.0,3.0,0.0
1133,63.0,0.0,120.0,0.0,0.0
1134,61.0,120.0,120.0,0.0,0.0
1135,39.0,0.0,120.0,3.0,0.0
1136,40.0,120.0,120.0,3.0,0.0
1137,59.0,0.0,120.0,0.0,0.0
1138,58.0,120.0,120.0,0.0,0.0
1139,42.0,120.0,240.0,3.0,0.0
1140,56.0,0.0,120.0,0.0,0.0
1141,54.0,120.0,120.0,0.0,0.0
1142,52.0,0.0,120.0,0.0,0.0
1143,42.0,120.0,120.0,3.0,0.0
1144,44.0,120.0,120.0,3.0,0.0
1145,51.0,0.0,120.0,0.0,0.0
1146,49.0,360.0,120.0,0.0,0.0
1147,46.0,0.0,120.0,3.0,0.0
1148,35.0,240.0,360.0,3.0,0.0
1149,47.0,0.0,360.0,3.0,0.0
1150,59.0,120.0,120.0,0.0,0.0
1151,66.0,120.0,240.0,3.0,0.0
1152,57.0,0.0,120.0,0.0,0.0
1153,56.0,120.0,120.0,0.0,0.0
1154,40.0,0.0,480.0,3.0,0.0
1155,44.0,120.0,480.0,2.0,0.0
1156,47.0,0.0,480.0,2.0,0.0
1157,52.0,0.0,480.0,2.0,0.0
1158,59.0,120.0,120.0,0.0,0.0
1159,64.0,120.0,120.0,0.0,0.0
1160,59.0,0.0,120.0,0.0,0.0
1161,68.0,120.0,120.0,0.0,0.0
1162,64.0,120.0,120.0,0.0,0.0
1163,71.0,120.0,120.0,0.0,0.0
1164,68.0,120.0,120.0,0.0,0.0
1165,76.0,120.0,120.0,0.0,0.0
1166,71.0,120.0,120.0,0.0,0.0
1167,80.0,120.0,120.0,0.0,0.0
1168,76.0,96.0,120.0,0.0,0.0
1169,83.0,240.0,90.0,0.0,0.0
1170,68.0,0.0,90.0,2.0,0.0
1171,71.0,0.0,90.0,2.0,0.0
1172,64.0,0.0,90.0,3.0,0.0
1173,80.0,240.0,90.0,0.0,0.0
1174,68.0,0.0,90.0,2.0,0.0
1175,71.0,0.0,90.0,2.0,0.0
1176,64.0,0.0,90.0,3.0,0.0
1177,71.0,0.0,90.0,2.0,0.0
1178,68.0,0.0,90.0,2.0,0.0
1179,64.0,0.0,90.0,3.0,0.0
1180,76.0,145.0,90.0,0.0,0.0
1181,75.0,359.0,15.0,0.0,0.0
1182,69.0,0.0,360.0,2.0,0.0
1183,66.0,240.0,360.0,3.0,0.0
1184,71.0,0.0,360.0,2.0,0.0
1185,66.0,120.0,120.0,0.0,0.0
1186,64.0,120.0,120.0,0.0,0.0
1187,59.0,120.0,480.0,2.0,0.0
1188,54.0,0.0,480.0,2.0,0.0
1189,51.0,0.0,480.0,2.0,0.0
1190,63.0,120.0,120.0,0.0,0.0
1191,47.0,0.0,480.0,3.0,0.0
1192,66.0,120.0,120.0,0.0,0.0
1193,71.0,120.0,120.0,0.0,0.0
1194,66.0,0.0,120.0,0.0,0.0
1195,75.0,120.0,120.0,0.0,0.0
1196,71.0,120.0,120.0,0.0,0.0
1197,78.0,120.0,120.0,0.0,0.0
1198,75.0,120.0,120.0,0.0,0.0
1199,83.0,120.0,120.0,0.0,0.0
1200,78.0,120.0,120.0,0.0,0.0
1201,87.0,120.0,120.0,0.0,0.0
1202,83.0,96.0,120.0,0.0,0.0
1203,63.0,0.0,90.0,3.0,0.0
1204,90.0,0.0,90.0,0.0,0.0
1205,71.0,0.0,90.0,2.0,0.0
1206,66.0,240.0,90.0,2.0,0.0
1207,63.0,240.0,90.0,3.0,0.0
1208,87.0,0.0,90.0,0.0,0.0
1209,66.0,0.0,90.0,2.0,0.0
1210,71.0,0.0,90.0,2.0,0.0
1211,81.0,0.0,90.0,0.0,0.0
1212,71.0,0.0,90.0,2.0,0.0
1213,66.0,0.0,90.0,2.0,0.0
1214,63.0,145.0,90.0,3.0,0.0
1215,80.0,359.0,15.0,0.0,0.0
1216,68.0,0.0,360.0,2.0,0.0
1217,71.0,240.0,360.0,2.0,0.0
1218,64.0,0.0,360.0,3.0,0.0
1219,83.0,120.0,120.0,0.0,0.0
1220,81.0,120.0,120.0,0.0,0.0
1221,80.0,120.0,120.0,0.0,0.0
1222,83.0,120.0,120.0,0.0,0.0
1223,71.0,0.0,120.0,3.0,0.0
1224,80.0,120.0,120.0,0.0,0.0
1225,69.0,120.0,120.0,3.0,0.0
1226,78.0,0.0,120.0,0.0,0.0
1227,68.0,0.0,120.0,3.0,0.0
1228,76.0,120.0,120.0,0.0,0.0
1229,71.0,120.0,120.0,3.0,0.0
1230,80.0,0.0,120.0,0.0,0.0
1231,68.0,120.0,120.0,3.0,0.0
1232,76.0,0.0,120.0,0.0,0.0
1233,75.0,120.0,120.0,0.0,0.0
1234,66.0,0.0,120.0,3.0,0.0
1235,64.0,0.0,120.0,3.0,0.0
1236,73.0,120.0,120.0,0.0,0.0
1237,68.0,120.0,120.0,3.0,0.0
1238,76.0,0.0,120.0,0.0,0.0
1239,73.0,0.0,120.0,0.0,0.0
1240,64.0,120.0,120.0,3.0,0.0
1241,71.0,0.0,120.0,0.0,0.0
1242,63.0,120.0,120.0,3.0,0.0
1243,69.0,120.0,120.0,0.0,0.0
1244,61.0,0.0,120.0,3.0,0.0
1245,73.0,120.0,120.0,0.0,0.0
1246,64.0,0.0,120.0,3.0,0.0
1247,61.0,0.0,120.0,3.0,0.0
1248,69.0,120.0,120.0,0.0,0.0
1249,59.0,0.0,120.0,3.0,0.0
1250,68.0,120.0,120.0,0.0,0.0
1251,57.0,120.0,120.0,3.0,0.0
1252,66.0,0.0,120.0,0.0,0.0
1253,69.0,120.0,120.0,0.0,0.0
1254,61.0,0.0,120.0,3.0,0.0
1255,66.0,120.0,120.0,0.0,0.0
1256,57.0,0.0,120.0,3.0,0.0
1257,56.0,120.0,120.0,3.0,0.0
1258,64.0,0.0,120.0,0.0,0.0
1259,63.0,120.0,120.0,0.0,0.0
1260,54.0,0.0,120.0,3.0,0.0
1261,66.0,0.0,120.0,0.0,0.0
1262,57.0,120.0,120.0,3.0,0.0
1263,54.0,120.0,120.0,3.0,0.0
1264,63.0,0.0,120.0,0.0,0.0
1265,52.0,0.0,120.0,3.0,0.0
1266,61.0,120.0,120.0,0.0,0.0
1267,60.0,120.0,120.0,0.0,0.0
1268,51.0,120.0,240.0,3.0,0.0
1269,63.0,0.0,120.0,0.0,0.0
1270,60.0,120.0,120.0,0.0,0.0
1271,57.0,0.0,120.0,0.0,0.0
1272,44.0,120.0,120.0,3.0,0.0
1273,46.0,0.0,120.0,3.0,0.0
1274,56.0,120.0,120.0,0.0,0.0
1275,48.0,120.0,120.0,3.0,0.0
1276,54.0,0.0,120.0,0.0,0.0
1277,52.0,120.0,120.0,0.0,0.0
1278,49.0,0.0,240.0,3.0,0.0
1279,68.0,120.0,120.0,0.0,0.0
1280,64.0,120.0,120.0,0.0,0.0
1281,63.0,120.0,120.0,0.0,0.0
1282,37.0,0.0,120.0,3.0,0.0
1283,39.0,120.0,120.0,3.0,0.0
1284,61.0,0.0,120.0,0.0,0.0
1285,59.0,0.0,120.0,0.0,0.0
1286,40.0,120.0,120.0,3.0,0.0
1287,58.0,120.0,120.0,0.0,0.0
1288,42.0,120.0,240.0,3.0,0.0
1289,56.0,0.0,120.0,0.0,0.0
1290,54.0,120.0,120.0,0.0,0.0
1291,42.0,0.0,120.0,3.0,0.0
1292,52.0,120.0,120.0,0.0,0.0
1293,44.0,0.0,120.0,3.0,0.0
1294,51.0,120.0,120.0,0.0,0.0
1295,46.0,0.0,120.0,3.0,0.0
1296,49.0,360.0,120.0,0.0,0.0
1297,35.0,0.0,360.0,3.0,0.0
1298,47.0,240.0,360.0,3.0,0.0
1299,54.0,120.0,120.0,0.0,0.0
1300,52.0,120.0,120.0,0.0,0.0
1301,51.0,120.0,120.0,0.0,0.0
1302,54.0,120.0,120.0,0.0,0.0
1303,59.0,120.0,120.0,0.0,0.0
1304,54.0,120.0,120.0,0.0,0.0
1305,63.0,120.0,120.0,0.0,0.0
1306,59.0,120.0,120.0,0.0,0.0
1307,66.0,120.0,120.0,0.0,0.0
1308,63.0,120.0,120.0,0.0,0.0
1309,71.0,120.0,120.0,0.0,0.0
1310,66.0,120.0,120.0,0.0,0.0
1311,42.0,180.0,180.0,2.0,0.0
1312,39.0,0.0,180.0,2.0,0.0
1313,47.0,0.0,180.0,2.0,0.0
1314,35.0,0.0,180.0,3.0,0.0
1315,75.0,60.0,120.0,0.0,0.0
1316,54.0,120.0,120.0,0.0,0.0
1317,57.0,120.0,120.0,0.0,0.0
1318,63.0,120.0,120.0,0.0,0.0
1319,57.0,120.0,120.0,0.0,0.0
1320,66.0,120.0,120.0,0.0,0.0
1321,63.0,120.0,120.0,0.0,0.0
1322,69.0,120.0,120.0,0.0,0.0
1323,66.0,120.0,120.0,0.0,0.0
1324,75.0,120.0,120.0,0.0,0.0
1325,69.0,120.0,120.0,0.0,0.0
1326,78.0,60.0,120.0,0.0,0.0
1327,47.0,0.0,180.0,2.0,0.0
1328,39.0,180.0,180.0,2.0,0.0
1329,42.0,0.0,180.0,2.0,0.0
1330,35.0,0.0,180.0,3.0,0.0
1331,57.0,120.0,120.0,0.0,0.0
1332,63.0,120.0,120.0,0.0,0.0
1333,66.0,120.0,120.0,0.0,0.0
1334,63.0,120.0,120.0,0.0,0.0
1335,69.0,120.0,120.0,0.0,0.0
1336,66.0,120.0,120.0,0.0,0.0
1337,75.0,120.0,120.0,0.0,0.0
1338,69.0,120.0,120.0,0.0,0.0
1339,78.0,120.0,120.0,0.0,0.0
1340,75.0,120.0,120.0,0.0,0.0
1341,59.0,180.0,180.0,2.0,0.0
1342,47.0,0.0,180.0,3.0,0.0
1343,81.0,60.0,120.0,0.0,0.0
1344,54.0,0.0,180.0,2.0,0.0
1345,51.0,0.0,180.0,2.0,0.0
1346,75.0,120.0,120.0,0.0,0.0
1347,69.0,120.0,120.0,0.0,0.0
1348,78.0,120.0,120.0,0.0,0.0
1349,75.0,120.0,120.0,0.0,0.0
1350,54.0,0.0,180.0,2.0,0.0
1351,59.0,0.0,180.0,2.0,0.0
1352,81.0,60.0,120.0,0.0,0.0
1353,51.0,0.0,180.0,2.0,0.0
1354,47.0,180.0,180.0,3.0,0.0
1355,75.0,120.0,120.0,0.0,0.0
1356,69.0,120.0,120.0,0.0,0.0
1357,78.0,120.0,120.0,0.0,0.0
1358,75.0,120.0,120.0,0.0,0.0
1359,59.0,180.0,180.0,2.0,0.0
1360,47.0,0.0,180.0,3.0,0.0
1361,54.0,0.0,180.0,2.0,0.0
1362,81.0,60.0,120.0,0.0,0.0
1363,51.0,0.0,180.0,2.0,0.0
1364,80.0,120.0,120.0,0.0,0.0
1365,83.0,120.0,120.0,0.0,0.0
1366,71.0,0.0,120.0,3.0,0.0
1367,80.0,120.0,120.0,0.0,0.0
1368,69.0,0.0,120.0,3.0,0.0
1369,78.0,120.0,120.0,0.0,0.0
1370,76.0,120.0,120.0,0.0,0.0
1371,68.0,0.0,120.0,3.0,0.0
1372,80.0,0.0,120.0,0.0,0.0
1373,71.0,120.0,120.0,3.0,0.0
1374,76.0,0.0,120.0,0.0,0.0
1375,68.0,120.0,120.0,3.0,0.0
1376,75.0,120.0,120.0,0.0,0.0
1377,66.0,0.0,120.0,3.0,0.0
1378,73.0,0.0,120.0,0.0,0.0
1379,64.0,120.0,120.0,3.0,0.0
1380,76.0,0.0,120.0,0.0,0.0
1381,68.0,120.0,120.0,3.0,0.0
1382,64.0,120.0,120.0,3.0,0.0
1383,73.0,0.0,120.0,0.0,0.0
1384,63.0,120.0,120.0,3.0,0.0
1385,71.0,0.0,120.0,0.0,0.0
1386,69.0,120.0,120.0,0.0,0.0
1387,61.0,0.0,120.0,3.0,0.0
1388,73.0,120.0,120.0,0.0,0.0
1389,64.0,0.0,120.0,3.0,0.0
1390,61.0,120.0,120.0,3.0,0.0
1391,69.0,0.0,120.0,0.0,0.0
1392,68.0,120.0,120.0,0.0,0.0
1393,59.0,0.0,120.0,3.0,0.0
1394,57.0,120.0,120.0,3.0,0.0
1395,66.0,0.0,120.0,0.0,0.0
1396,61.0,0.0,120.0,3.0,0.0
1397,69.0,120.0,120.0,0.0,0.0
1398,57.0,0.0,120.0,3.0,0.0
1399,66.0,120.0,120.0,0.0,0.0
1400,64.0,0.0,120.0,0.0,0.0
1401,56.0,120.0,120.0,3.0,0.0
1402,63.0,120.0,120.0,0.0,0.0
1403,54.0,0.0,120.0,3.0,0.0
1404,52.0,0.0,120.0,3.0,0.0
1405,61.0,120.0,120.0,0.0,0.0
1406,51.0,0.0,120.0,3.0,0.0
1407,59.0,120.0,120.0,0.0,0.0
1408,54.0,0.0,120.0,3.0,0.0
1409,57.0,120.0,120.0,0.0,0.0
1410,56.0,120.0,120.0,0.0,0.0
1411,52.0,0.0,240.0,3.0,0.0
1412,71.0,120.0,120.0,0.0,0.0
1413,68.0,120.0,120.0,0.0,0.0
1414,40.0,120.0,120.0,3.0,0.0
1415,66.0,0.0,120.0,0.0,0.0
1416,42.0,0.0,120.0,3.0,0.0
1417,64.0,120.0,120.0,0.0,0.0
1418,44.0,120.0,120.0,3.0,0.0
1419,62.0,0.0,120.0,0.0,0.0
1420,61.0,120.0,120.0,0.0,0.0
1421,45.0,120.0,240.0,3.0,0.0
1422,73.0,0.0,120.0,0.0,0.0
1423,69.0,120.0,120.0,0.0,0.0
1424,42.0,0.0,120.0,3.0,0.0
1425,68.0,120.0,120.0,0.0,0.0
1426,44.0,0.0,120.0,3.0,0.0
1427,66.0,120.0,120.0,0.0,0.0
1428,45.0,120.0,120.0,3.0,0.0
1429,64.0,0.0,120.0,0.0,0.0
1430,63.0,120.0,120.0,0.0,0.0
1431,47.0,120.0,240.0,3.0,0.0
1432,61.0,0.0,120.0,0.0,0.0
1433,59.0,120.0,120.0,0.0,0.0
1434,57.0,0.0,120.0,0.0,0.0
1435,35.0,120.0,120.0,3.0,0.0
1436,37.0,120.0,120.0,3.0,0.0
1437,56.0,0.0,120.0,0.0,0.0
1438,54.0,360.0,120.0,0.0,0.0
1439,39.0,0.0,120.0,3.0,0.0
1440,52.0,0.0,360.0,0.0,0.0
1441,40.0,240.0,360.0,3.0,0.0
1442,54.0,120.0,120.0,0.0,0.0
1443,52.0,120.0,120.0,0.0,0.0
1444,51.0,120.0,120.0,0.0,0.0
1445,54.0,120.0,120.0,0.0,0.0
1446,59.0,120.0,120.0,0.0,0.0
1447,54.0,120.0,120.0,0.0,0.0
1448,63.0,120.0,120.0,0.0,0.0
1449,59.0,120.0,120.0,0.0,0.0
1450,66.0,120.0,120.0,0.0,0.0
1451,63.0,120.0,120.0,0.0,0.0
1452,71.0,120.0,120.0,0.0,0.0
1453,66.0,120.0,120.0,0.0,0.0
1454,35.0,180.0,180.0,3.0,0.0
1455,75.0,60.0,120.0,0.0,0.0
1456,42.0,0.0,180.0,2.0,0.0
1457,39.0,0.0,180.0,2.0,0.0
1458,47.0,0.0,180.0,2.0,0.0
1459,54.0,120.0,120.0,0.0,0.0
1460,57.0,120.0,120.0,0.0,0.0
1461,63.0,120.0,120.0,0.0,0.0
1462,57.0,120.0,120.0,0.0,0.0
1463,66.0,120.0,120.0,0.0,0.0
1464,63.0,120.0,120.0,0.0,0.0
1465,69.0,120.0,120.0,0.0,0.0
1466,66.0,120.0,120.0,0.0,0.0
1467,75.0,120.0,120.0,0.0,0.0
1468,69.0,120.0,120.0,0.0,0.0
1469,78.0,60.0,120.0,0.0,0.0
1470,35.0,0.0,180.0,3.0,0.0
1471,42.0,0.0,180.0,2.0,0.0
1472,39.0,180.0,180.0,2.0,0.0
1473,47.0,0.0,180.0,2.0,0.0
1474,57.0,120.0,120.0,0.0,0.0
1475,63.0,120.0,120.0,0.0,0.0
1476,66.0,120.0,120.0,0.0,0.0
1477,63.0,120.0,120.0,0.0,0.0
1478,69.0,120.0,120.0,0.0,0.0
1479,66.0,120.0,120.0,0.0,0.0
1480,75.0,120.0,120.0,0.0,0.0
1481,69.0,120.0,120.0,0.0,0.0
1482,78.0,120.0,120.0,0.0,0.0
1483,75.0,120.0,120.0,0.0,0.0
1484,81.0,60.0,120.0,0.0,0.0
1485,54.0,0.0,180.0,2.0,0.0
1486,47.0,180.0,180.0,3.0,0.0
1487,51.0,0.0,180.0,2.0,0.0
1488,59.0,0.0,180.0,2.0,0.0
1489,75.0,120.0,120.0,0.0,0.0
1490,69.0,120.0,120.0,0.0,0.0
1491,78.0,120.0,120.0,0.0,0.0
1492,75.0,120.0,120.0,0.0,0.0
1493,81.0,60.0,120.0,0.0,0.0
1494,51.0,0.0,180.0,2.0,0.0
1495,54.0,0.0,180.0,2.0,0.0
1496,59.0,0.0,180.0,2.0,0.0
1497,47.0,180.0,180.0,3.0,0.0
1498,75.0,120.0,120.0,0.0,0.0
1499,69.0,120.0,120.0,0.0,0.0
1500,78.0,120.0,120.0,0.0,0.0
1501,75.0,120.0,120.0,0.0,0.0
1502,47.0,0.0,180.0,3.0,0.0
1503,51.0,0.0,180.0,2.0,0.0
1504,54.0,0.0,180.0,2.0,0.0
1505,59.0,180.0,180.0,2.0,0.0
1506,81.0,60.0,120.0,0.0,0.0
1507,79.0,120.0,120.0,0.0,0.0
1508,83.0,120.0,120.0,0.0,0.0
1509,71.0,0.0,120.0,3.0,0.0
1510,79.0,120.0,120.0,0.0,0.0
1511,69.0,120.0,120.0,3.0,0.0
1512,78.0,0.0,120.0,0.0,0.0
1513,76.0,0.0,120.0,0.0,0.0
1514,67.0,120.0,120.0,3.0,0.0
1515,71.0,0.0,120.0,3.0,0.0
1516,79.0,120.0,120.0,0.0,0.0
1517,67.0,0.0,120.0,3.0,0.0
1518,76.0,120.0,120.0,0.0,0.0
1519,74.0,0.0,120.0,0.0,0.0
1520,66.0,120.0,120.0,3.0,0.0
1521,72.0,0.0,120.0,0.0,0.0
1522,64.0,120.0,120.0,3.0,0.0
1523,76.0,120.0,120.0,0.0,0.0
1524,67.0,0.0,120.0,3.0,0.0
1525,64.0,0.0,120.0,3.0,0.0
1526,72.0,120.0,120.0,0.0,0.0
1527,71.0,0.0,120.0,0.0,0.0
1528,62.0,120.0,120.0,3.0,0.0
1529,60.0,120.0,120.0,3.0,0.0
1530,69.0,0.0,120.0,0.0,0.0
1531,72.0,120.0,120.0,0.0,0.0
1532,64.0,0.0,120.0,3.0,0.0
1533,60.0,120.0,120.0,3.0,0.0
1534,69.0,0.0,120.0,0.0,0.0
1535,59.0,120.0,120.0,3.0,0.0
1536,67.0,0.0,120.0,0.0,0.0
1537,66.0,0.0,120.0,0.0,0.0
1538,57.0,120.0,120.0,3.0,0.0
1539,69.0,120.0,120.0,0.0,0.0
1540,60.0,0.0,120.0,3.0,0.0
1541,57.0,0.0,120.0,3.0,0.0
1542,66.0,120.0,120.0,0.0,0.0
1543,55.0,120.0,120.0,3.0,0.0
1544,64.0,0.0,120.0,0.0,0.0
1545,63.0,120.0,120.0,0.0,0.0
1546,54.0,0.0,120.0,3.0,0.0
1547,72.0,0.0,120.0,0.0,0.0
1548,57.0,120.0,120.0,3.0,0.0
1549,69.0,120.0,120.0,0.0,0.0
1550,54.0,0.0,120.0,3.0,0.0
1551,67.0,120.0,120.0,0.0,0.0
1552,52.0,0.0,120.0,3.0,0.0
1553,66.0,0.0,120.0,0.0,0.0
1554,50.0,120.0,120.0,3.0,0.0
1555,60.0,0.0,120.0,3.0,0.0
1556,69.0,120.0,120.0,0.0,0.0
1557,57.0,120.0,120.0,3.0,0.0
1558,66.0,0.0,120.0,0.0,0.0
1559,64.0,0.0,120.0,0.0,0.0
1560,55.0,120.0,120.0,3.0,0.0
1561,62.0,120.0,120.0,0.0,0.0
1562,54.0,0.0,120.0,3.0,0.0
1563,72.0,0.0,120.0,0.0,0.0
1564,57.0,120.0,120.0,3.0,0.0
1565,69.0,0.0,120.0,0.0,0.0
1566,54.0,120.0,120.0,3.0,0.0
1567,67.0,0.0,120.0,0.0,0.0
1568,52.0,120.0,120.0,3.0,0.0
1569,50.0,120.0,120.0,3.0,0.0
1570,66.0,0.0,120.0,0.0,0.0
1571,72.0,0.0,120.0,0.0,0.0
1572,57.0,120.0,120.0,3.0,0.0
1573,54.0,0.0,120.0,3.0,0.0
1574,69.0,120.0,120.0,0.0,0.0
1575,67.0,0.0,120.0,0.0,0.0
1576,52.0,120.0,120.0,3.0,0.0
1577,66.0,0.0,120.0,0.0,0.0
1578,50.0,120.0,120.0,3.0,0.0
1579,72.0,120.0,120.0,0.0,0.0
1580,57.0,0.0,120.0,3.0,0.0
1581,69.0,120.0,120.0,0.0,0.0
1582,54.0,0.0,120.0,3.0,0.0
1583,52.0,120.0,120.0,3.0,0.0
1584,67.0,0.0,120.0,0.0,0.0
1585,50.0,120.0,120.0,3.0,0.0
1586,66.0,0.0,120.0,0.0,0.0
1587,72.0,0.0,120.0,0.0,0.0
1588,57.0,120.0,120.0,3.0,0.0
1589,69.0,120.0,120.0,0.0,0.0
1590,54.0,0.0,120.0,3.0,0.0
1591,67.0,120.0,120.0,0.0,0.0
1592,52.0,0.0,120.0,3.0,0.0
1593,50.0,0.0,120.0,3.0,0.0
1594,66.0,120.0,120.0,0.0,0.0
1595,57.0,120.0,120.0,3.0,0.0
1596,72.0,0.0,120.0,0.0,0.0
1597,69.0,0.0,120.0,0.0,0.0
1598,54.0,120.0,120.0,3.0,0.0
1599,52.0,120.0,120.0,3.0,0.0
1600,67.0,0.0,120.0,0.0,0.0
1601,66.0,120.0,120.0,0.0,0.0
1602,50.0,0.0,120.0,3.0,0.0
1603,52.0,120.0,120.0,3.0,0.0
1604,67.0,0.0,120.0,0.0,0.0
1605,69.0,120.0,120.0,0.0,0.0
1606,54.0,0.0,120.0,3.0,0.0
1607,71.0,120.0,120.0,0.0,0.0
1608,55.0,0.0,120.0,3.0,0.0
1609,72.0,120.0,120.0,0.0,0.0
1610,57.0,0.0,120.0,3.0,0.0
1611,59.0,120.0,120.0,3.0,0.0
1612,74.0,0.0,120.0,0.0,0.0
1613,60.0,0.0,120.0,3.0,0.0
1614,76.0,120.0,120.0,0.0,0.0
1615,62.0,120.0,120.0,3.0,0.0
1616,78.0,0.0,120.0,0.0,0.0
1617,79.0,120.0,120.0,0.0,0.0
1618,64.0,0.0,120.0,3.0,0.0
1619,80.0,0.0,120.0,0.0,0.0
1620,65.0,120.0,120.0,3.0,0.0
1621,66.0,0.0,120.0,3.0,0.0
1622,81.0,120.0,120.0,0.0,0.0
1623,67.0,0.0,120.0,3.0,0.0
1624,83.0,1440.0,120.0,0.0,0.0
1625,62.0,0.0,1440.0,3.0,0.0
1626,69.0,7.0,1440.0,3.0,0.0
1627,78.0,353.0,1440.0,1.0,0.0
1628,84.0,0.0,1440.0,0.0,0.0
1629,71.0,0.0,360.0,1.0,0.0
1630,62.0,0.0,360.0,1.0,0.0
1631,74.0,480.0,360.0,0.0,0.0
1632,71.0,360.0,360.0,1.0,0.0
1633,62.0,0.0,360.0,1.0,0.0
1634,74.0,0.0,360.0,0.0,0.0
1635,71.0,0.0,960.0,0.0,0.0
1636,67.0,360.0,960.0,1.0,0.0
1637,50.0,120.0,120.0,3.0,0.0
1638,52.0,120.0,120.0,3.0,0.0
1639,54.0,120.0,120.0,3.0,0.0
1640,55.0,120.0,120.0,3.0,0.0
1641,57.0,120.0,120.0,3.0,0.0
1642,59.0,120.0,120.0,3.0,0.0
1643,55.0,0.0,120.0,3.0,0.0
1644,69.0,0.0,360.0,0.0,0.0
1645,60.0,0.0,360.0,3.0,0.0
1646,62.0,0.0,15.0,1.0,0.0
1647,66.0,0.0,360.0,1.0,0.0
1648,69.0,240.0,360.0,0.0,0.0
1649,66.0,0.0,360.0,1.0,0.0
1650,62.0,0.0,360.0,1.0,0.0
1651,60.0,120.0,120.0,3.0,0.0
1652,72.0,0.0,960.0,1.0,0.0
1653,69.0,0.0,960.0,1.0,0.0
1654,59.0,120.0,120.0,3.0,0.0
1655,57.0,120.0,120.0,3.0,0.0
1656,55.0,120.0,120.0,3.0,0.0
1657,54.0,120.0,120.0,3.0,0.0
1658,52.0,120.0,120.0,3.0,0.0
1659,50.0,120.0,120.0,3.0,0.0
1660,54.0,0.0,120.0,3.0,0.0
1661,55.0,0.0,360.0,3.0,0.0
1662,74.0,0.0,15.0,0.0,0.0
1663,62.0,360.0,15.0,1.0,0.0
1664,71.0,0.0,360.0,1.0,0.0
1665,62.0,360.0,360.0,1.0,0.0
1666,71.0,0.0,360.0,1.0,0.0
1667,74.0,0.0,360.0,0.0,0.0
1668,62.0,0.0,960.0,1.0,0.0
1669,71.0,0.0,960.0,0.0,0.0
1670,67.0,78.0,960.0,1.0,0.0
1671,50.0,120.0,120.0,3.0,0.0
1672,52.0,120.0,120.0,3.0,0.0
1673,54.0,120.0,120.0,3.0,0.0
1674,55.0,120.0,120.0,3.0,0.0
1675,57.0,120.0,120.0,3.0,0.0
1676,59.0,120.0,120.0,3.0,0.0
1677,55.0,0.0,120.0,3.0,0.0
1678,60.0,102.0,90.0,3.0,0.0
1679,62.0,0.0,180.0,1.0,0.0
1680,66.0,18.0,180.0,1.0,0.0
1681,69.0,0.0,180.0,0.0,0.0
1682,57.0,120.0,90.0,3.0,0.0
1683,74.0,78.0,480.0,0.0,0.0
1684,54.0,120.0,90.0,3.0,0.0
1685,50.0,120.0,90.0,3.0,0.0
1686,48.0,120.0,90.0,3.0,0.0
1687,45.0,42.0,90.0,3.0,0.0
1688,42.0,120.0,90.0,3.0,0.0
1689,60.0,480.0,240.0,1.0,0.0
1690,74.0,0.0,240.0,0.0,0.0
1691,38.0,42.0,90.0,3.0,0.0
1692,43.0,0.0,480.0,3.0,0.0
1693,67.0,0.0,480.0,0.0,0.0
1694,59.0,240.0,480.0,1.0,0.0
1695,55.0,600.0,240.0,3.0,0.0
1696,62.0,0.0,360.0,3.0,0.0
1697,50.0,0.0,360.0,2.0,0.0
1698,59.0,480.0,360.0,2.0,0.0
1699,59.0,0.0,360.0,2.0,0.0
1700,50.0,360.0,360.0,2.0,0.0
1701,62.0,0.0,360.0,3.0,0.0
1702,50.0,0.0,960.0,2.0,0.0
1703,59.0,0.0,960.0,3.0,0.0
1704,55.0,0.0,960.0,2.0,0.0
1705,74.0,120.0,120.0,0.0,0.0
1706,76.0,120.0,120.0,0.0,0.0
1707,78.0,120.0,120.0,0.0,0.0
1708,79.0,120.0,120.0,0.0,0.0
1709,81.0,120.0,120.0,0.0,0.0
1710,83.0,120.0,120.0,0.0,0.0
1711,79.0,360.0,120.0,0.0,0.0
1712,54.0,0.0,360.0,2.0,0.0
1713,50.0,0.0,360.0,2.0,0.0
1714,57.0,0.0,360.0,3.0,0.0
1715,84.0,480.0,360.0,0.0,0.0
1716,57.0,240.0,360.0,3.0,0.0
1717,54.0,0.0,360.0,2.0,0.0
1718,50.0,0.0,360.0,2.0,0.0
1719,62.0,0.0,960.0,3.0,0.0
1720,57.0,0.0,960.0,2.0,0.0
1721,84.0,120.0,120.0,0.0,0.0
1722,50.0,360.0,960.0,2.0,0.0
1723,60.0,0.0,960.0,2.0,0.0
1724,83.0,120.0,120.0,0.0,0.0
1725,81.0,120.0,120.0,0.0,0.0
1726,79.0,120.0,120.0,0.0,0.0
1727,78.0,120.0,120.0,0.0,0.0
1728,76.0,120.0,120.0,0.0,0.0
1729,74.0,120.0,120.0,0.0,0.0
1730,78.0,0.0,120.0,0.0,0.0
1731,79.0,480.0,360.0,0.0,0.0
1732,50.0,0.0,360.0,2.0,0.0
1733,59.0,0.0,360.0,2.0,0.0
1734,62.0,0.0,360.0,3.0,0.0
1735,62.0,0.0,360.0,3.0,0.0
1736,50.0,360.0,360.0,2.0,0.0
1737,59.0,0.0,360.0,2.0,0.0
1738,55.0,0.0,960.0,2.0,0.0
1739,59.0,0.0,960.0,3.0,0.0
1740,74.0,120.0,120.0,0.0,0.0
1741,76.0,120.0,120.0,0.0,0.0
1742,78.0,120.0,120.0,0.0,0.0
1743,79.0,120.0,120.0,0.0,0.0
1744,81.0,120.0,120.0,0.0,0.0
1745,83.0,120.0,120.0,0.0,0.0
1746,79.0,78.0,120.0,0.0,0.0
1747,84.0,102.0,90.0,0.0,0.0
1748,57.0,0.0,180.0,3.0,0.0
1749,50.0,0.0,15.0,2.0,0.0
1750,54.0,18.0,180.0,2.0,0.0
1751,81.0,120.0,90.0,0.0,0.0
1752,62.0,78.0,480.0,3.0,0.0
1753,78.0,120.0,90.0,0.0,0.0
1754,74.0,120.0,90.0,0.0,0.0
1755,72.0,120.0,90.0,0.0,0.0
1756,69.0,42.0,90.0,0.0,0.0
1757,62.0,480.0,240.0,3.0,0.0
1758,48.0,0.0,240.0,2.0,0.0
1759,66.0,120.0,90.0,0.0,0.0
1760,62.0,42.0,90.0,0.0,0.0
1761,55.0,840.0,480.0,3.0,0.0
1762,67.0,0.0,480.0,0.0,0.0
1763,47.0,0.0,480.0,2.0,0.0
1764,69.0,480.0,360.0,1.0,0.0
1765,72.0,0.0,360.0,0.0,0.0
1766,72.0,318.0,360.0,0.0,0.0
1767,69.0,0.0,360.0,1.0,0.0
1768,72.0,0.0,960.0,1.0,0.0
1769,38.0,120.0,90.0,3.0,0.0
1770,50.0,120.0,90.0,3.0,0.0
1771,52.0,120.0,90.0,3.0,0.0
1772,54.0,120.0,90.0,3.0,0.0
1773,55.0,120.0,90.0,3.0,0.0
1774,57.0,120.0,90.0,3.0,0.0
1775,59.0,42.0,90.0,3.0,0.0
1776,61.0,120.0,240.0,3.0,0.0
1777,78.0,240.0,15.0,0.0,0.0
1778,69.0,0.0,15.0,1.0,0.0
1779,62.0,198.0,720.0,3.0,0.0
1780,69.0,0.0,360.0,1.0,0.0
1781,78.0,120.0,360.0,0.0,0.0
1782,81.0,0.0,960.0,0.0,0.0
1783,72.0,0.0,960.0,1.0,0.0
1784,38.0,120.0,90.0,3.0,0.0
1785,50.0,120.0,90.0,3.0,0.0
1786,52.0,120.0,90.0,3.0,0.0
1787,54.0,120.0,90.0,3.0,0.0
1788,55.0,120.0,90.0,3.0,0.0
1789,57.0,120.0,90.0,3.0,0.0
1790,59.0,42.0,90.0,3.0,0.0
1791,78.0,240.0,15.0,1.0,0.0
1792,69.0,0.0,15.0,1.0,0.0
1793,61.0,120.0,240.0,3.0,0.0
1794,81.0,0.0,360.0,0.0,0.0
1795,62.0,240.0,960.0,3.0,0.0
1796,81.0,0.0,360.0,0.0,0.0
1797,69.0,0.0,360.0,1.0,0.0
1798,78.0,360.0,360.0,1.0,0.0
1799,84.0,0.0,720.0,0.0,0.0
1800,81.0,240.0,480.0,1.0,0.0
1801,78.0,0.0,480.0,1.0,0.0
1802,63.0,0.0,240.0,3.0,0.0
1803,79.0,240.0,240.0,1.0,0.0
1804,64.0,0.0,240.0,3.0,0.0
1805,83.0,240.0,240.0,0.0,0.0
1806,59.0,0.0,240.0,3.0,0.0
1807,75.0,0.0,240.0,1.0,0.0
1808,76.0,0.0,240.0,1.0,0.0
1809,83.0,240.0,240.0,0.0,0.0
1810,60.0,0.0,240.0,3.0,0.0
1811,81.0,0.0,240.0,0.0,0.0
1812,76.0,240.0,240.0,1.0,0.0
1813,61.0,0.0,240.0,3.0,0.0
1814,62.0,240.0,720.0,3.0,0.0
1815,79.0,240.0,240.0,0.0,0.0
1816,71.0,0.0,240.0,1.0,0.0
1817,72.0,0.0,240.0,1.0,0.0
1818,78.0,0.0,240.0,0.0,0.0
1819,69.0,240.0,240.0,1.0,0.0
1820,50.0,0.0,240.0,3.0,0.0
1821,55.0,0.0,240.0,3.0,0.0
1822,81.0,180.0,480.0,0.0,0.0
1823,72.0,0.0,480.0,1.0,0.0
1824,66.0,0.0,240.0,3.0,0.0
1825,79.0,660.0,180.0,0.0,0.0
1826,71.0,0.0,180.0,1.0,0.0
1827,67.0,0.0,180.0,3.0,0.0
1828,57.0,0.0,360.0,2.0,0.0
1829,60.0,480.0,360.0,3.0,0.0
1830,60.0,0.0,360.0,3.0,0.0
1831,57.0,318.0,360.0,2.0,0.0
1832,60.0,0.0,960.0,3.0,0.0
1833,66.0,240.0,960.0,3.0,0.0
1834,62.0,120.0,90.0,0.0,0.0
1835,74.0,120.0,90.0,0.0,0.0
1836,76.0,120.0,90.0,0.0,0.0
1837,78.0,120.0,90.0,0.0,0.0
1838,79.0,120.0,90.0,0.0,0.0
1839,81.0,120.0,90.0,0.0,0.0
1840,83.0,42.0,90.0,0.0,0.0
1841,57.0,0.0,15.0,2.0,0.0
1842,85.0,120.0,240.0,0.0,0.0
1843,66.0,480.0,360.0,3.0,0.0
1844,86.0,198.0,720.0,0.0,0.0
1845,57.0,120.0,360.0,2.0,0.0
1846,66.0,0.0,360.0,3.0,0.0
1847,60.0,0.0,960.0,2.0,0.0
1848,57.0,0.0,960.0,2.0,0.0
1849,62.0,120.0,90.0,0.0,0.0
1850,74.0,120.0,90.0,0.0,0.0
1851,76.0,120.0,90.0,0.0,0.0
1852,78.0,120.0,90.0,0.0,0.0
1853,79.0,120.0,90.0,0.0,0.0
1854,81.0,120.0,90.0,0.0,0.0
1855,83.0,42.0,90.0,0.0,0.0
1856,69.0,0.0,15.0,3.0,0.0
1857,66.0,240.0,15.0,2.0,0.0
1858,85.0,120.0,240.0,0.0,0.0
1859,86.0,240.0,960.0,0.0,0.0
1860,66.0,360.0,360.0,2.0,0.0
1861,69.0,0.0,360.0,3.0,0.0
1862,66.0,240.0,480.0,2.0,0.0
1863,72.0,0.0,720.0,3.0,0.0
1864,69.0,0.0,480.0,2.0,0.0
1865,87.0,0.0,240.0,0.0,0.0
1866,88.0,0.0,240.0,0.0,0.0
1867,67.0,240.0,240.0,2.0,0.0
1868,71.0,0.0,240.0,3.0,0.0
1869,90.0,0.0,240.0,0.0,0.0
1870,63.0,240.0,240.0,2.0,0.0
1871,71.0,0.0,240.0,3.0,0.0
1872,91.0,0.0,240.0,0.0,0.0
1873,64.0,240.0,240.0,2.0,0.0
1874,69.0,0.0,240.0,3.0,0.0
1875,88.0,0.0,240.0,0.0,0.0
1876,61.0,240.0,240.0,2.0,0.0
1877,83.0,233.0,240.0,0.0,0.0
1878,62.0,0.0,240.0,2.0,0.0
1879,67.0,7.0,240.0,3.0,0.0
1880,84.0,233.0,480.0,0.0,0.0
1881,62.0,0.0,240.0,2.0,0.0
1882,66.0,247.0,240.0,3.0,0.0
1883,69.0,0.0,480.0,3.0,0.0
1884,62.0,0.0,480.0,2.0,0.0
1885,78.0,96.0,240.0,0.0,0.0
1886,67.0,0.0,90.0,3.0,0.0
1887,55.0,384.0,90.0,2.0,0.0
1888,79.0,0.0,90.0,0.0,0.0
1889,68.0,360.0,240.0,0.0,0.0
1890,71.0,0.0,360.0,1.0,0.0
1891,74.0,0.0,360.0,1.0,0.0
1892,77.0,480.0,360.0,0.0,0.0
1893,77.0,0.0,360.0,0.0,0.0
1894,71.0,600.0,360.0,1.0,0.0
1895,74.0,0.0,360.0,1.0,0.0
1896,55.0,360.0,480.0,3.0,0.0
1897,43.0,480.0,360.0,3.0,0.0
1898,72.0,480.0,360.0,1.0,0.0
1899,67.0,0.0,360.0,1.0,0.0
1900,76.0,0.0,360.0,0.0,0.0
1901,76.0,0.0,360.0,0.0,0.0
1902,72.0,600.0,360.0,1.0,0.0
1903,67.0,0.0,360.0,1.0,0.0
1904,55.0,360.0,480.0,3.0,0.0
1905,43.0,480.0,360.0,3.0,0.0
1906,66.0,480.0,360.0,1.0,0.0
1907,72.0,0.0,360.0,0.0,0.0
1908,69.0,0.0,360.0,1.0,0.0
1909,72.0,0.0,360.0,0.0,0.0
1910,66.0,600.0,360.0,1.0,0.0
1911,69.0,0.0,360.0,1.0,0.0
1912,55.0,360.0,480.0,3.0,0.0
1913,43.0,480.0,360.0,3.0,0.0
1914,71.0,552.0,360.0,0.0,0.0
1915,64.0,0.0,360.0,1.0,0.0
1916,67.0,0.0,360.0,1.0,0.0
1917,55.0,360.0,480.0,3.0,0.0
1918,43.0,48.0,180.0,3.0,0.0
1919,72.0,0.0,360.0,0.0,0.0
1920,66.0,552.0,360.0,1.0,0.0
1921,69.0,0.0,360.0,1.0,0.0
1922,55.0,360.0,480.0,3.0,0.0
1923,43.0,48.0,180.0,3.0,0.0
1924,64.0,0.0,360.0,1.0,0.0
1925,67.0,360.0,360.0,1.0,0.0
1926,71.0,0.0,360.0,0.0,0.0
1927,55.0,192.0,240.0,3.0,0.0
1928,43.0,408.0,180.0,3.0,0.0
1929,72.0,0.0,360.0,0.0,0.0
1930,69.0,360.0,360.0,1.0,0.0
1931,66.0,0.0,360.0,1.0,0.0
1932,55.0,192.0,240.0,3.0,0.0
1933,43.0,408.0,180.0,3.0,0.0
1934,67.0,360.0,360.0,1.0,0.0
1935,62.0,0.0,360.0,1.0,0.0
1936,71.0,0.0,360.0,0.0,0.0
1937,55.0,192.0,240.0,3.0,0.0
1938,43.0,1368.0,180.0,3.0,0.0
1939,59.0,0.0,360.0,1.0,0.0
1940,62.0,360.0,360.0,1.0,0.0
1941,67.0,0.0,360.0,1.0,0.0
1942,71.0,0.0,360.0,0.0,0.0
1943,55.0,192.0,240.0,3.0,0.0
1944,43.0,2928.0,180.0,3.0,0.0
1945,86.0,1680.0,1920.0,1.0,0.0
1946,83.0,0.0,1920.0,1.0,0.0
1947,91.0,0.0,1920.0,0.0,0.0
1948,43.0,0.0,1440.0,3.0,0.0
1949,52.0,240.0,240.0,0.0,0.0
1950,40.0,0.0,240.0,3.0,0.0
1951,55.0,240.0,240.0,0.0,0.0
1952,43.0,0.0,240.0,3.0,0.0
1953,47.0,0.0,240.0,3.0,0.0
1954,59.0,240.0,240.0,0.0,0.0
1955,52.0,0.0,240.0,3.0,0.0
1956,64.0,240.0,240.0,0.0,0.0
1957,55.0,180.0,240.0,3.0,0.0
1958,67.0,0.0,240.0,0.0,0.0
1959,71.0,0.0,180.0,0.0,0.0
1960,59.0,540.0,180.0,3.0,0.0
1961,64.0,0.0,720.0,3.0,0.0
1962,79.0,240.0,240.0,2.0,0.0
1963,67.0,0.0,240.0,2.0,0.0
1964,71.0,480.0,240.0,2.0,0.0
1965,76.0,0.0,240.0,2.0,0.0
1966,83.0,0.0,15.0,0.0,0.0
1967,63.0,0.0,660.0,3.0,0.0
1968,66.0,180.0,240.0,2.0,0.0
1969,78.0,0.0,240.0,2.0,0.0
1970,71.0,12.0,180.0,2.0,0.0
1971,75.0,0.0,180.0,2.0,0.0
1972,51.0,10.0,720.0,3.0,0.0
1973,54.0,230.0,240.0,2.0,0.0
1974,66.0,0.0,240.0,2.0,0.0
1975,59.0,0.0,240.0,2.0,0.0
1976,63.0,480.0,240.0,2.0,0.0
1977,71.0,0.0,15.0,0.0,0.0
1978,50.0,30.0,690.0,3.0,0.0
1979,54.0,0.0,240.0,2.0,0.0
1980,66.0,180.0,240.0,2.0,0.0
1981,59.0,30.0,180.0,2.0,0.0
1982,62.0,0.0,180.0,2.0,0.0
1983,83.0,0.0,720.0,0.0,0.0
1984,62.0,0.0,720.0,3.0,0.0
1985,66.0,0.0,240.0,2.0,0.0
1986,78.0,240.0,240.0,2.0,0.0
1987,74.0,480.0,240.0,2.0,0.0
1988,71.0,0.0,240.0,2.0,0.0
1989,81.0,480.0,720.0,0.0,0.0
1990,61.0,40.0,690.0,3.0,0.0
1991,64.0,0.0,240.0,2.0,0.0
1992,76.0,180.0,240.0,2.0,0.0
1993,69.0,0.0,180.0,2.0,0.0
1994,73.0,20.0,180.0,2.0,0.0
1995,49.0,0.0,720.0,3.0,0.0
1996,52.0,0.0,240.0,2.0,0.0
1997,64.0,240.0,240.0,2.0,0.0
1998,61.0,480.0,240.0,2.0,0.0
1999,57.0,0.0,240.0,2.0,0.0
2000,48.0,45.0,660.0,3.0,0.0
2001,69.0,0.0,15.0,0.0,0.0
2002,52.0,0.0,240.0,2.0,0.0
2003,64.0,180.0,240.0,2.0,0.0
2004,60.0,0.0,180.0,2.0,0.0
2005,57.0,15.0,180.0,2.0,0.0
2006,60.0,470.0,720.0,3.0,0.0
2007,81.0,0.0,720.0,0.0,0.0
2008,76.0,240.0,240.0,2.0,0.0
2009,64.0,0.0,240.0,2.0,0.0
2010,69.0,0.0,240.0,2.0,0.0
2011,72.0,10.0,240.0,2.0,0.0
2012,59.0,60.0,660.0,3.0,0.0
2013,64.0,180.0,240.0,2.0,0.0
2014,76.0,0.0,240.0,2.0,0.0
2015,67.0,0.0,180.0,2.0,0.0
2016,71.0,0.0,180.0,2.0,0.0
2017,40.0,240.0,120.0,3.0,0.0
2018,79.0,120.0,15.0,0.0,0.0
2019,52.0,0.0,120.0,3.0,0.0
2020,67.0,0.0,120.0,0.0,0.0
2021,47.0,240.0,120.0,3.0,0.0
2022,73.0,0.0,120.0,0.0,0.0
2023,49.0,0.0,120.0,3.0,0.0
2024,71.0,240.0,120.0,0.0,0.0
2025,42.0,0.0,120.0,3.0,0.0
2026,54.0,0.0,120.0,3.0,0.0
2027,78.0,0.0,120.0,0.0,0.0
2028,66.0,240.0,120.0,0.0,0.0
2029,74.0,240.0,120.0,0.0,0.0
2030,47.0,0.0,120.0,3.0,0.0
2031,71.0,240.0,120.0,0.0,0.0
2032,50.0,0.0,120.0,3.0,0.0
2033,66.0,0.0,120.0,0.0,0.0
2034,78.0,240.0,120.0,0.0,0.0
2035,42.0,0.0,120.0,3.0,0.0
2036,54.0,0.0,120.0,3.0,0.0
2037,73.0,0.0,120.0,0.0,0.0
2038,46.0,240.0,120.0,3.0,0.0
2039,70.0,0.0,120.0,0.0,0.0
2040,49.0,300.0,120.0,3.0,0.0
2041,47.0,0.0,180.0,3.0,0.0
2042,35.0,300.0,180.0,3.0,0.0
2043,71.0,0.0,180.0,0.0,0.0
2044,43.0,240.0,240.0,3.0,0.0
2045,42.0,240.0,240.0,3.0,0.0
2046,40.0,240.0,240.0,3.0,0.0
2047,52.0,0.0,240.0,0.0,0.0
2048,55.0,240.0,240.0,0.0,0.0
2049,43.0,0.0,240.0,3.0,0.0
2050,47.0,240.0,240.0,3.0,0.0
2051,59.0,0.0,240.0,0.0,0.0
2052,64.0,240.0,240.0,0.0,0.0
2053,52.0,0.0,240.0,3.0,0.0
2054,55.0,180.0,240.0,3.0,0.0
2055,67.0,0.0,240.0,0.0,0.0
2056,59.0,0.0,180.0,3.0,0.0
2057,71.0,540.0,180.0,0.0,0.0
2058,64.0,0.0,720.0,3.0,0.0
2059,83.0,0.0,720.0,0.0,0.0
2060,67.0,0.0,240.0,2.0,0.0
2061,79.0,240.0,240.0,2.0,0.0
2062,76.0,0.0,240.0,2.0,0.0
2063,71.0,480.0,240.0,2.0,0.0
2064,83.0,528.0,660.0,0.0,0.0
2065,63.0,0.0,660.0,3.0,0.0
2066,78.0,0.0,240.0,2.0,0.0
2067,66.0,180.0,240.0,2.0,0.0
2068,71.0,0.0,180.0,2.0,0.0
2069,75.0,12.0,180.0,2.0,0.0
2070,71.0,480.0,720.0,0.0,0.0
2071,51.0,10.0,720.0,3.0,0.0
2072,54.0,230.0,240.0,2.0,0.0
2073,66.0,0.0,240.0,2.0,0.0
2074,63.0,0.0,240.0,2.0,0.0
2075,59.0,0.0,240.0,2.0,0.0
2076,50.0,30.0,690.0,3.0,0.0
2077,71.0,480.0,720.0,0.0,0.0
2078,54.0,180.0,240.0,2.0,0.0
2079,66.0,0.0,240.0,2.0,0.0
2080,62.0,30.0,180.0,2.0,0.0
2081,59.0,0.0,180.0,2.0,0.0
2082,62.0,0.0,720.0,3.0,0.0
2083,83.0,0.0,720.0,0.0,0.0
2084,78.0,240.0,240.0,2.0,0.0
2085,66.0,0.0,240.0,2.0,0.0
2086,74.0,480.0,240.0,2.0,0.0
2087,71.0,0.0,240.0,2.0,0.0
2088,61.0,40.0,690.0,3.0,0.0
2089,81.0,480.0,720.0,0.0,0.0
2090,76.0,180.0,240.0,2.0,0.0
2091,64.0,0.0,240.0,2.0,0.0
2092,73.0,0.0,180.0,2.0,0.0
2093,69.0,20.0,180.0,2.0,0.0
2094,49.0,0.0,720.0,3.0,0.0
2095,69.0,0.0,720.0,0.0,0.0
2096,52.0,0.0,240.0,2.0,0.0
2097,64.0,240.0,240.0,2.0,0.0
2098,57.0,0.0,240.0,2.0,0.0
2099,61.0,480.0,240.0,2.0,0.0
2100,48.0,45.0,660.0,3.0,0.0
2101,69.0,480.0,720.0,0.0,0.0
2102,64.0,180.0,240.0,2.0,0.0
2103,52.0,0.0,240.0,2.0,0.0
2104,60.0,0.0,180.0,2.0,0.0
2105,57.0,15.0,180.0,2.0,0.0
2106,60.0,470.0,720.0,3.0,0.0
2107,81.0,0.0,720.0,0.0,0.0
2108,76.0,240.0,240.0,2.0,0.0
2109,64.0,0.0,240.0,2.0,0.0
2110,69.0,0.0,240.0,2.0,0.0
2111,72.0,10.0,240.0,2.0,0.0
2112,59.0,0.0,660.0,3.0,0.0
2113,76.0,180.0,240.0,2.0,0.0
2114,64.0,0.0,240.0,2.0,0.0
2115,67.0,60.0,180.0,2.0,0.0
2116,71.0,0.0,180.0,2.0,0.0
2117,52.0,0.0,120.0,3.0,0.0
2118,67.0,0.0,120.0,0.0,0.0
2119,79.0,120.0,15.0,0.0,0.0
2120,40.0,240.0,120.0,3.0,0.0
2121,47.0,240.0,120.0,3.0,0.0
2122,73.0,0.0,120.0,0.0,0.0
2123,71.0,240.0,120.0,0.0,0.0
2124,49.0,0.0,120.0,3.0,0.0
2125,78.0,0.0,120.0,0.0,0.0
2126,66.0,0.0,120.0,0.0,0.0
2127,54.0,0.0,120.0,3.0,0.0
2128,42.0,240.0,120.0,3.0,0.0
2129,47.0,240.0,120.0,3.0,0.0
2130,74.0,0.0,120.0,0.0,0.0
2131,50.0,0.0,120.0,3.0,0.0
2132,71.0,240.0,120.0,0.0,0.0
2133,54.0,0.0,120.0,3.0,0.0
2134,66.0,240.0,120.0,0.0,0.0
2135,78.0,0.0,120.0,0.0,0.0
2136,42.0,0.0,120.0,3.0,0.0
2137,46.0,0.0,120.0,3.0,0.0
2138,73.0,240.0,120.0,0.0,0.0
2139,70.0,0.0,120.0,0.0,0.0
2140,49.0,300.0,120.0,3.0,0.0
2141,35.0,0.0,180.0,3.0,0.0
2142,47.0,300.0,180.0,3.0,0.0
2143,71.0,0.0,180.0,0.0,0.0
2144,45.0,240.0,240.0,3.0,0.0
2145,44.0,480.0,240.0,3.0,0.0
2146,41.0,20.0,690.0,3.0,0.0
2147,62.0,0.0,720.0,0.0,0.0
2148,57.0,220.0,240.0,2.0,0.0
2149,45.0,0.0,240.0,2.0,0.0
2150,50.0,0.0,240.0,2.0,0.0
2151,53.0,480.0,240.0,2.0,0.0
2152,62.0,480.0,720.0,0.0,0.0
2153,40.0,0.0,660.0,3.0,0.0
2154,56.0,0.0,240.0,2.0,0.0
2155,44.0,180.0,240.0,2.0,0.0
2156,52.0,60.0,180.0,2.0,0.0
2157,50.0,0.0,180.0,2.0,0.0
2158,44.0,20.0,690.0,3.0,0.0
2159,74.0,0.0,720.0,0.0,0.0
2160,71.0,220.0,240.0,2.0,0.0
2161,47.0,0.0,240.0,2.0,0.0
2162,52.0,0.0,240.0,2.0,0.0
2163,64.0,480.0,240.0,2.0,0.0
2164,72.0,480.0,720.0,0.0,0.0
2165,45.0,0.0,660.0,3.0,0.0
2166,69.0,180.0,240.0,2.0,0.0
2167,48.0,0.0,240.0,2.0,0.0
2168,52.0,0.0,180.0,2.0,0.0
2169,64.0,60.0,180.0,2.0,0.0
2170,60.0,0.0,720.0,0.0,0.0
2171,40.0,20.0,690.0,3.0,0.0
2172,55.0,0.0,240.0,2.0,0.0
2173,43.0,220.0,240.0,2.0,0.0
2174,48.0,0.0,240.0,2.0,0.0
2175,52.0,480.0,240.0,2.0,0.0
2176,59.0,480.0,720.0,0.0,0.0
2177,39.0,40.0,690.0,3.0,0.0
2178,54.0,0.0,240.0,2.0,0.0
2179,42.0,180.0,240.0,2.0,0.0
2180,47.0,20.0,180.0,2.0,0.0
2181,51.0,0.0,180.0,2.0,0.0
2182,81.0,10.0,720.0,0.0,0.0
2183,51.0,0.0,720.0,3.0,0.0
2184,78.0,230.0,240.0,2.0,0.0
2185,54.0,0.0,240.0,2.0,0.0
2186,59.0,0.0,240.0,2.0,0.0
2187,71.0,480.0,240.0,2.0,0.0
2188,79.0,250.0,720.0,0.0,0.0
2189,52.0,40.0,660.0,3.0,0.0
2190,76.0,0.0,240.0,2.0,0.0
2191,55.0,180.0,240.0,2.0,0.0
2192,59.0,0.0,180.0,2.0,0.0
2193,71.0,10.0,180.0,2.0,0.0
2194,40.0,0.0,240.0,3.0,0.0
2195,52.0,240.0,240.0,0.0,0.0
2196,43.0,240.0,240.0,3.0,0.0
2197,55.0,0.0,240.0,0.0,0.0
2198,59.0,0.0,240.0,0.0,0.0
2199,47.0,240.0,240.0,3.0,0.0
2200,64.0,0.0,240.0,0.0,0.0
2201,52.0,240.0,240.0,3.0,0.0
2202,55.0,0.0,240.0,3.0,0.0
2203,67.0,180.0,240.0,0.0,0.0
2204,59.0,540.0,180.0,3.0,0.0
2205,71.0,0.0,180.0,0.0,0.0
2206,84.0,10.0,720.0,0.0,0.0
2207,64.0,10.0,690.0,3.0,0.0
2208,79.0,0.0,240.0,2.0,0.0
2209,67.0,220.0,240.0,2.0,0.0
2210,76.0,0.0,240.0,2.0,0.0
2211,72.0,480.0,240.0,2.0,0.0
2212,63.0,1.0,660.0,3.0,0.0
2213,84.0,529.0,660.0,0.0,0.0
2214,78.0,180.0,240.0,2.0,0.0
2215,66.0,0.0,240.0,2.0,0.0
2216,75.0,0.0,180.0,2.0,0.0
2217,72.0,10.0,180.0,2.0,0.0
2218,51.0,10.0,720.0,3.0,0.0
2219,72.0,10.0,690.0,0.0,0.0
2220,54.0,220.0,240.0,2.0,0.0
2221,66.0,0.0,240.0,2.0,0.0
2222,63.0,0.0,240.0,2.0,0.0
2223,60.0,480.0,240.0,2.0,0.0
2224,71.0,500.0,690.0,0.0,0.0
2225,50.0,20.0,630.0,3.0,0.0
2226,54.0,160.0,240.0,2.0,0.0
2227,66.0,0.0,240.0,2.0,0.0
2228,59.0,0.0,180.0,2.0,0.0
2229,62.0,40.0,180.0,2.0,0.0
2230,83.0,4.0,690.0,0.0,0.0
2231,62.0,20.0,690.0,3.0,0.0
2232,66.0,0.0,240.0,2.0,0.0
2233,78.0,216.0,240.0,2.0,0.0
2234,71.0,480.0,240.0,2.0,0.0
2235,74.0,0.0,240.0,2.0,0.0
2236,83.0,2.0,660.0,0.0,0.0
2237,61.0,10.0,660.0,3.0,0.0
2238,64.0,168.0,240.0,2.0,0.0
2239,76.0,0.0,240.0,2.0,0.0
2240,73.0,0.0,180.0,2.0,0.0
2241,71.0,540.0,180.0,2.0,0.0
2242,71.0,472.0,720.0,0.0,0.0
2243,49.0,0.0,720.0,3.0,0.0
2244,52.0,240.0,240.0,2.0,0.0
2245,64.0,0.0,240.0,2.0,0.0
2246,61.0,8.0,240.0,2.0,0.0
2247,59.0,0.0,240.0,2.0,0.0
2248,48.0,2.0,660.0,3.0,0.0
2249,69.0,528.0,660.0,0.0,0.0
2250,52.0,180.0,240.0,2.0,0.0
2251,64.0,0.0,240.0,2.0,0.0
2252,57.0,10.0,180.0,2.0,0.0
2253,60.0,0.0,180.0,2.0,0.0
2254,60.0,10.0,720.0,3.0,0.0
2255,81.0,0.0,720.0,0.0,0.0
2256,64.0,0.0,240.0,2.0,0.0
2257,76.0,230.0,240.0,2.0,0.0
2258,69.0,0.0,240.0,2.0,0.0
2259,72.0,480.0,240.0,2.0,0.0
2260,79.0,168.0,660.0,0.0,0.0
2261,59.0,10.0,660.0,3.0,0.0
2262,76.0,170.0,240.0,2.0,0.0
2263,64.0,0.0,240.0,2.0,0.0
2264,71.0,0.0,180.0,2.0,0.0
2265,67.0,12.0,180.0,2.0,0.0
2266,64.0,0.0,120.0,0.0,0.0
2267,76.0,240.0,120.0,0.0,0.0
2268,58.0,0.0,120.0,3.0,0.0
2269,46.0,0.0,120.0,3.0,0.0
2270,52.0,0.0,120.0,3.0,0.0
2271,73.0,240.0,120.0,0.0,0.0
2272,67.0,0.0,120.0,0.0,0.0
2273,55.0,240.0,120.0,3.0,0.0
2274,59.0,0.0,120.0,3.0,0.0
2275,64.0,0.0,120.0,0.0,0.0
2276,76.0,0.0,120.0,0.0,0.0
2277,47.0,240.0,120.0,3.0,0.0
2278,71.0,0.0,120.0,0.0,0.0
2279,52.0,240.0,120.0,3.0,0.0
2280,67.0,0.0,120.0,0.0,0.0
2281,55.0,240.0,120.0,3.0,0.0
2282,75.0,0.0,120.0,0.0,0.0
2283,59.0,0.0,120.0,3.0,0.0
2284,47.0,0.0,120.0,3.0,0.0
2285,63.0,240.0,120.0,0.0,0.0
2286,51.0,240.0,120.0,3.0,0.0
2287,71.0,0.0,120.0,0.0,0.0
2288,66.0,300.0,120.0,0.0,0.0
2289,54.0,0.0,120.0,3.0,0.0
2290,67.0,300.0,180.0,0.0,0.0
2291,40.0,0.0,180.0,3.0,0.0
2292,52.0,0.0,180.0,3.0,0.0
2293,64.0,0.0,180.0,0.0,0.0
2294,76.0,0.0,180.0,0.0,0.0
2295,39.0,240.0,240.0,3.0,0.0
2296,40.0,480.0,240.0,3.0,0.0
2297,41.0,20.0,690.0,3.0,0.0
2298,45.0,0.0,240.0,2.0,0.0
2299,57.0,220.0,240.0,2.0,0.0
2300,53.0,0.0,240.0,2.0,0.0
2301,50.0,480.0,240.0,2.0,0.0
2302,62.0,0.0,15.0,0.0,0.0
2303,40.0,60.0,660.0,3.0,0.0
2304,56.0,0.0,240.0,2.0,0.0
2305,44.0,180.0,240.0,2.0,0.0
2306,50.0,0.0,180.0,2.0,0.0
2307,52.0,0.0,180.0,2.0,0.0
2308,44.0,20.0,690.0,3.0,0.0
2309,74.0,480.0,720.0,0.0,0.0
2310,47.0,0.0,240.0,2.0,0.0
2311,71.0,220.0,240.0,2.0,0.0
2312,64.0,0.0,240.0,2.0,0.0
2313,52.0,0.0,240.0,2.0,0.0
2314,45.0,60.0,660.0,3.0,0.0
2315,72.0,480.0,720.0,0.0,0.0
2316,69.0,0.0,240.0,2.0,0.0
2317,48.0,180.0,240.0,2.0,0.0
2318,52.0,0.0,180.0,2.0,0.0
2319,64.0,0.0,180.0,2.0,0.0
2320,60.0,480.0,720.0,0.0,0.0
2321,40.0,20.0,690.0,3.0,0.0
2322,55.0,220.0,240.0,2.0,0.0
2323,43.0,0.0,240.0,2.0,0.0
2324,48.0,0.0,240.0,2.0,0.0
2325,52.0,0.0,240.0,2.0,0.0
2326,39.0,40.0,690.0,3.0,0.0
2327,59.0,480.0,720.0,0.0,0.0
2328,54.0,180.0,240.0,2.0,0.0
2329,42.0,0.0,240.0,2.0,0.0
2330,51.0,0.0,180.0,2.0,0.0
2331,47.0,20.0,180.0,2.0,0.0
2332,51.0,10.0,720.0,3.0,0.0
2333,81.0,0.0,720.0,0.0,0.0
2334,78.0,0.0,240.0,2.0,0.0
2335,54.0,230.0,240.0,2.0,0.0
2336,71.0,480.0,240.0,2.0,0.0
2337,59.0,0.0,240.0,2.0,0.0
2338,52.0,40.0,660.0,3.0,0.0
2339,79.0,250.0,720.0,0.0,0.0
2340,76.0,180.0,240.0,2.0,0.0
2341,55.0,0.0,240.0,2.0,0.0
2342,71.0,10.0,180.0,2.0,0.0
2343,59.0,0.0,180.0,2.0,0.0
2344,40.0,240.0,240.0,3.0,0.0
2345,52.0,0.0,240.0,0.0,0.0
2346,43.0,0.0,240.0,3.0,0.0
2347,55.0,240.0,240.0,0.0,0.0
2348,47.0,240.0,240.0,3.0,0.0
2349,59.0,0.0,240.0,0.0,0.0
2350,52.0,0.0,240.0,3.0,0.0
2351,64.0,240.0,240.0,0.0,0.0
2352,55.0,0.0,240.0,3.0,0.0
2353,67.0,180.0,240.0,0.0,0.0
2354,59.0,0.0,180.0,3.0,0.0
2355,71.0,540.0,180.0,0.0,0.0
2356,64.0,10.0,690.0,3.0,0.0
2357,84.0,10.0,720.0,0.0,0.0
2358,67.0,220.0,240.0,2.0,0.0
2359,79.0,0.0,240.0,2.0,0.0
2360,72.0,0.0,240.0,2.0,0.0
2361,76.0,480.0,240.0,2.0,0.0
2362,84.0,529.0,660.0,0.0,0.0
2363,63.0,1.0,660.0,3.0,0.0
2364,66.0,180.0,240.0,2.0,0.0
2365,78.0,0.0,240.0,2.0,0.0
2366,72.0,10.0,180.0,2.0,0.0
2367,75.0,0.0,180.0,2.0,0.0
2368,51.0,10.0,720.0,3.0,0.0
2369,72.0,10.0,690.0,0.0,0.0
2370,66.0,220.0,240.0,2.0,0.0
2371,54.0,0.0,240.0,2.0,0.0
2372,63.0,480.0,240.0,2.0,0.0
2373,60.0,0.0,240.0,2.0,0.0
2374,71.0,500.0,690.0,0.0,0.0
2375,50.0,20.0,630.0,3.0,0.0
2376,54.0,0.0,240.0,2.0,0.0
2377,66.0,160.0,240.0,2.0,0.0
2378,62.0,40.0,180.0,2.0,0.0
2379,59.0,0.0,180.0,2.0,0.0
2380,83.0,4.0,690.0,0.0,0.0
2381,62.0,20.0,690.0,3.0,0.0
2382,78.0,0.0,240.0,2.0,0.0
2383,66.0,216.0,240.0,2.0,0.0
2384,71.0,0.0,240.0,2.0,0.0
2385,74.0,480.0,240.0,2.0,0.0
2386,83.0,2.0,660.0,0.0,0.0
2387,61.0,10.0,660.0,3.0,0.0
2388,76.0,168.0,240.0,2.0,0.0
2389,64.0,0.0,240.0,2.0,0.0
2390,71.0,0.0,180.0,2.0,0.0
2391,73.0,540.0,180.0,2.0,0.0
2392,71.0,472.0,720.0,0.0,0.0
2393,49.0,8.0,720.0,3.0,0.0
2394,64.0,0.0,240.0,2.0,0.0
2395,52.0,240.0,240.0,2.0,0.0
2396,59.0,0.0,240.0,2.0,0.0
2397,61.0,0.0,240.0,2.0,0.0
2398,69.0,528.0,660.0,0.0,0.0
2399,48.0,2.0,660.0,3.0,0.0
2400,52.0,0.0,240.0,2.0,0.0
2401,64.0,180.0,240.0,2.0,0.0
2402,57.0,0.0,180.0,2.0,0.0
2403,60.0,10.0,180.0,2.0,0.0
2404,81.0,0.0,720.0,0.0,0.0
2405,60.0,10.0,720.0,3.0,0.0
2406,76.0,230.0,240.0,2.0,0.0
2407,64.0,0.0,240.0,2.0,0.0
2408,69.0,0.0,240.0,2.0,0.0
2409,72.0,480.0,240.0,2.0,0.0
2410,59.0,10.0,660.0,3.0,0.0
2411,79.0,168.0,660.0,0.0,0.0
2412,64.0,0.0,240.0,2.0,0.0
2413,76.0,170.0,240.0,2.0,0.0
2414,71.0,0.0,180.0,2.0,0.0
2415,67.0,12.0,180.0,2.0,0.0
2416,76.0,0.0,120.0,0.0,0.0
2417,64.0,0.0,120.0,0.0,0.0
2418,58.0,240.0,120.0,3.0,0.0
2419,46.0,0.0,120.0,3.0,0.0
2420,52.0,0.0,120.0,3.0,0.0
2421,73.0,240.0,120.0,0.0,0.0
2422,55.0,0.0,120.0,3.0,0.0
2423,67.0,240.0,120.0,0.0,0.0
2424,59.0,0.0,120.0,3.0,0.0
2425,76.0,240.0,120.0,0.0,0.0
2426,64.0,0.0,120.0,0.0,0.0
2427,47.0,0.0,120.0,3.0,0.0
2428,52.0,240.0,120.0,3.0,0.0
2429,71.0,0.0,120.0,0.0,0.0
2430,67.0,240.0,120.0,0.0,0.0
2431,55.0,0.0,120.0,3.0,0.0
2432,47.0,0.0,120.0,3.0,0.0
2433,59.0,240.0,120.0,3.0,0.0
2434,63.0,0.0,120.0,0.0,0.0
2435,75.0,0.0,120.0,0.0,0.0
2436,51.0,0.0,120.0,3.0,0.0
2437,71.0,240.0,120.0,0.0,0.0
2438,54.0,0.0,120.0,3.0,0.0
2439,66.0,240.0,120.0,0.0,0.0
2440,52.0,0.0,120.0,3.0,0.0
2441,40.0,0.0,120.0,3.0,0.0
2442,76.0,240.0,120.0,0.0,0.0
2443,64.0,0.0,120.0,0.0,0.0
2444,43.0,0.0,120.0,3.0,0.0
2445,71.0,240.0,120.0,0.0,0.0
2446,67.0,0.0,120.0,0.0,0.0
2447,47.0,300.0,120.0,3.0,0.0
2448,52.0,420.0,180.0,3.0,0.0
2449,64.0,0.0,180.0,0.0,0.0
2450,55.0,0.0,120.0,0.0,0.0
2451,48.0,0.0,120.0,2.0,0.0
2452,52.0,240.0,120.0,2.0,0.0
2453,55.0,480.0,120.0,0.0,0.0
2454,48.0,0.0,120.0,2.0,0.0
2455,52.0,0.0,120.0,2.0,0.0
2456,55.0,240.0,120.0,0.0,0.0
2457,48.0,0.0,120.0,2.0,0.0
2458,52.0,0.0,120.0,2.0,0.0
2459,48.0,0.0,120.0,2.0,0.0
2460,52.0,0.0,120.0,2.0,0.0
2461,55.0,480.0,120.0,0.0,0.0
2462,55.0,240.0,120.0,0.0,0.0
2463,48.0,0.0,120.0,2.0,0.0
2464,52.0,0.0,120.0,2.0,0.0
2465,55.0,240.0,120.0,0.0,0.0
2466,52.0,0.0,120.0,2.0,0.0
2467,48.0,0.0,120.0,2.0,0.0
2468,60.0,240.0,120.0,0.0,0.0
2469,55.0,0.0,120.0,2.0,0.0
2470,52.0,240.0,120.0,2.0,0.0
2471,48.0,0.0,120.0,2.0,0.0
2472,48.0,0.0,120.0,2.0,0.0
2473,52.0,240.0,120.0,2.0,0.0
2474,55.0,0.0,120.0,2.0,0.0
2475,64.0,240.0,120.0,0.0,0.0
2476,52.0,0.0,120.0,2.0,0.0
2477,55.0,0.0,120.0,2.0,0.0
2478,48.0,240.0,120.0,2.0,0.0
2479,52.0,240.0,120.0,2.0,0.0
2480,55.0,0.0,120.0,2.0,0.0
2481,48.0,0.0,120.0,2.0,0.0
2482,67.0,240.0,120.0,0.0,0.0
2483,48.0,0.0,120.0,2.0,0.0
2484,52.0,0.0,120.0,2.0,0.0
2485,55.0,240.0,120.0,2.0,0.0
2486,52.0,240.0,120.0,2.0,0.0
2487,55.0,0.0,120.0,2.0,0.0
2488,48.0,0.0,120.0,2.0,0.0
2489,72.0,240.0,120.0,0.0,0.0
2490,52.0,240.0,120.0,2.0,0.0
2491,48.0,0.0,120.0,2.0,0.0
2492,55.0,0.0,120.0,2.0,0.0
2493,48.0,0.0,120.0,2.0,0.0
2494,55.0,240.0,120.0,2.0,0.0
2495,52.0,0.0,120.0,2.0,0.0
2496,76.0,240.0,120.0,0.0,0.0
2497,52.0,240.0,120.0,2.0,0.0
2498,55.0,0.0,120.0,2.0,0.0
2499,48.0,0.0,120.0,2.0,0.0
2500,55.0,0.0,120.0,2.0,0.0
2501,52.0,240.0,120.0,2.0,0.0
2502,48.0,0.0,120.0,2.0,0.0
2503,79.0,240.0,120.0,0.0,0.0
2504,52.0,0.0,120.0,2.0,0.0
2505,55.0,0.0,120.0,2.0,0.0
2506,48.0,232.0,120.0,2.0,0.0
2507,49.0,72.0,120.0,2.0,0.0
2508,82.0,8.0,120.0,0.0,0.0
2509,55.0,0.0,120.0,2.0,0.0
2510,52.0,0.0,120.0,2.0,0.0
2511,58.0,0.0,120.0,2.0,0.0
2512,84.0,80.0,120.0,0.0,0.0
2513,82.0,80.0,120.0,0.0,0.0
2514,84.0,80.0,120.0,0.0,0.0
2515,82.0,80.0,120.0,0.0,0.0
2516,84.0,80.0,120.0,0.0,0.0
2517,52.0,0.0,120.0,2.0,0.0
2518,49.0,0.0,120.0,2.0,0.0
2519,55.0,72.0,120.0,2.0,0.0
2520,58.0,0.0,120.0,2.0,0.0
2521,82.0,8.0,120.0,0.0,0.0
2522,84.0,80.0,120.0,0.0,0.0
2523,82.0,80.0,120.0,0.0,0.0
2524,84.0,8.0,120.0,0.0,0.0
2525,49.0,0.0,120.0,2.0,0.0
2526,58.0,72.0,120.0,2.0,0.0
2527,55.0,0.0,120.0,2.0,0.0
2528,52.0,0.0,120.0,2.0,0.0
2529,82.0,80.0,120.0,0.0,0.0
2530,84.0,80.0,120.0,0.0,0.0
2531,82.0,80.0,120.0,0.0,0.0
2532,84.0,80.0,120.0,0.0,0.0
2533,82.0,88.0,120.0,0.0,0.0
2534,58.0,0.0,120.0,2.0,0.0
2535,55.0,120.0,120.0,2.0,0.0
2536,52.0,0.0,120.0,2.0,0.0
2537,49.0,0.0,120.0,2.0,0.0
2538,81.0,0.0,120.0,0.0,0.0
2539,82.0,120.0,120.0,0.0,0.0
2540,50.0,240.0,120.0,2.0,0.0
2541,83.0,0.0,120.0,0.0,0.0
2542,55.0,0.0,120.0,2.0,0.0
2543,59.0,0.0,120.0,2.0,0.0
2544,79.0,240.0,120.0,0.0,0.0
2545,74.0,120.0,720.0,0.0,0.0
2546,59.0,240.0,120.0,2.0,0.0
2547,50.0,0.0,120.0,2.0,0.0
2548,55.0,0.0,120.0,2.0,0.0
2549,60.0,360.0,120.0,2.0,0.0
2550,50.0,0.0,120.0,2.0,0.0
2551,54.0,0.0,120.0,2.0,0.0
2552,60.0,0.0,120.0,2.0,0.0
2553,50.0,0.0,120.0,2.0,0.0
2554,54.0,0.0,120.0,2.0,0.0
2555,72.0,240.0,120.0,0.0,0.0
2556,55.0,0.0,120.0,2.0,0.0
2557,69.0,240.0,120.0,0.0,0.0
2558,43.0,0.0,120.0,2.0,0.0
2559,67.0,240.0,120.0,0.0,0.0
2560,62.0,240.0,120.0,0.0,0.0
2561,59.0,240.0,120.0,0.0,0.0
2562,55.0,240.0,120.0,0.0,0.0
2563,52.0,0.0,120.0,2.0,0.0
2564,55.0,0.0,120.0,0.0,0.0
2565,48.0,240.0,120.0,2.0,0.0
2566,48.0,0.0,120.0,2.0,0.0
2567,52.0,0.0,120.0,2.0,0.0
2568,55.0,480.0,120.0,0.0,0.0
2569,48.0,240.0,120.0,2.0,0.0
2570,52.0,0.0,120.0,2.0,0.0
2571,55.0,0.0,120.0,0.0,0.0
2572,55.0,480.0,120.0,0.0,0.0
2573,48.0,0.0,120.0,2.0,0.0
2574,52.0,0.0,120.0,2.0,0.0
2575,55.0,240.0,120.0,0.0,0.0
2576,48.0,0.0,120.0,2.0,0.0
2577,52.0,0.0,120.0,2.0,0.0
2578,55.0,0.0,120.0,0.0,0.0
2579,48.0,240.0,120.0,2.0,0.0
2580,52.0,0.0,120.0,2.0,0.0
2581,60.0,240.0,120.0,0.0,0.0
2582,52.0,0.0,120.0,2.0,0.0
2583,48.0,240.0,120.0,2.0,0.0
2584,55.0,0.0,120.0,2.0,0.0
2585,55.0,0.0,120.0,2.0,0.0
2586,48.0,240.0,120.0,2.0,0.0
2587,52.0,0.0,120.0,2.0,0.0
2588,64.0,240.0,120.0,0.0,0.0
2589,48.0,240.0,120.0,2.0,0.0
2590,55.0,0.0,120.0,2.0,0.0
2591,52.0,0.0,120.0,2.0,0.0
2592,48.0,0.0,120.0,2.0,0.0
2593,52.0,240.0,120.0,2.0,0.0
2594,55.0,0.0,120.0,2.0,0.0
2595,67.0,240.0,120.0,0.0,0.0
2596,52.0,0.0,120.0,2.0,0.0
2597,55.0,0.0,120.0,2.0,0.0
2598,48.0,240.0,120.0,2.0,0.0
2599,52.0,240.0,120.0,2.0,0.0
2600,48.0,0.0,120.0,2.0,0.0
2601,55.0,0.0,120.0,2.0,0.0
2602,72.0,240.0,120.0,0.0,0.0
2603,52.0,0.0,120.0,2.0,0.0
2604,55.0,240.0,120.0,2.0,0.0
2605,48.0,0.0,120.0,2.0,0.0
2606,55.0,240.0,120.0,2.0,0.0
2607,52.0,0.0,120.0,2.0,0.0
2608,48.0,0.0,120.0,2.0,0.0
2609,76.0,240.0,120.0,0.0,0.0
2610,52.0,240.0,120.0,2.0,0.0
2611,55.0,0.0,120.0,2.0,0.0
2612,48.0,0.0,120.0,2.0,0.0
2613,55.0,0.0,120.0,2.0,0.0
2614,52.0,0.0,120.0,2.0,0.0
2615,48.0,240.0,120.0,2.0,0.0
2616,79.0,240.0,120.0,0.0,0.0
2617,48.0,232.0,120.0,2.0,0.0
2618,55.0,0.0,120.0,2.0,0.0
2619,52.0,0.0,120.0,2.0,0.0
2620,49.0,0.0,120.0,2.0,0.0
2621,52.0,72.0,120.0,2.0,0.0
2622,55.0,0.0,120.0,2.0,0.0
2623,58.0,0.0,120.0,2.0,0.0
2624,82.0,8.0,120.0,0.0,0.0
2625,84.0,80.0,120.0,0.0,0.0
2626,82.0,80.0,120.0,0.0,0.0
2627,84.0,80.0,120.0,0.0,0.0
2628,82.0,80.0,120.0,0.0,0.0
2629,84.0,80.0,120.0,0.0,0.0
2630,52.0,0.0,120.0,2.0,0.0
2631,55.0,0.0,120.0,2.0,0.0
2632,58.0,0.0,120.0,2.0,0.0
2633,49.0,72.0,120.0,2.0,0.0
2634,82.0,8.0,120.0,0.0,0.0
2635,84.0,80.0,120.0,0.0,0.0
2636,82.0,80.0,120.0,0.0,0.0
2637,49.0,0.0,120.0,2.0,0.0
2638,55.0,72.0,120.0,2.0,0.0
2639,52.0,0.0,120.0,2.0,0.0
2640,58.0,0.0,120.0,2.0,0.0
2641,84.0,8.0,120.0,0.0,0.0
2642,82.0,80.0,120.0,0.0,0.0
2643,84.0,80.0,120.0,0.0,0.0
2644,82.0,80.0,120.0,0.0,0.0
2645,84.0,80.0,120.0,0.0,0.0
2646,82.0,88.0,120.0,0.0,0.0
2647,49.0,0.0,120.0,2.0,0.0
2648,52.0,120.0,120.0,2.0,0.0
2649,55.0,0.0,120.0,2.0,0.0
2650,58.0,0.0,120.0,2.0,0.0
2651,81.0,0.0,120.0,0.0,0.0
2652,82.0,120.0,120.0,0.0,0.0
2653,83.0,0.0,120.0,0.0,0.0
2654,55.0,240.0,120.0,2.0,0.0
2655,50.0,0.0,120.0,2.0,0.0
2656,59.0,0.0,120.0,2.0,0.0
2657,79.0,240.0,120.0,0.0,0.0
2658,55.0,0.0,120.0,2.0,0.0
2659,50.0,0.0,120.0,2.0,0.0
2660,59.0,240.0,120.0,2.0,0.0
2661,74.0,120.0,720.0,0.0,0.0
2662,50.0,0.0,120.0,2.0,0.0
2663,60.0,0.0,120.0,2.0,0.0
2664,54.0,360.0,120.0,2.0,0.0
2665,60.0,0.0,120.0,2.0,0.0
2666,50.0,0.0,120.0,2.0,0.0
2667,54.0,0.0,120.0,2.0,0.0
2668,72.0,240.0,120.0,0.0,0.0
2669,69.0,0.0,120.0,0.0,0.0
2670,55.0,240.0,120.0,2.0,0.0
2671,43.0,0.0,120.0,2.0,0.0
2672,67.0,240.0,120.0,0.0,0.0
2673,62.0,240.0,120.0,0.0,0.0
2674,59.0,240.0,120.0,0.0,0.0
2675,55.0,240.0,120.0,0.0,0.0
2676,65.0,0.0,120.0,2.0,0.0
2677,62.0,240.0,120.0,2.0,0.0
2678,55.0,0.0,120.0,2.0,0.0
2679,55.0,480.0,120.0,2.0,0.0
2680,65.0,0.0,120.0,2.0,0.0
2681,62.0,0.0,120.0,2.0,0.0
2682,65.0,240.0,120.0,2.0,0.0
2683,62.0,0.0,120.0,2.0,0.0
2684,55.0,0.0,120.0,2.0,0.0
2685,62.0,0.0,120.0,2.0,0.0
2686,65.0,0.0,120.0,2.0,0.0
2687,55.0,480.0,120.0,2.0,0.0
2688,55.0,0.0,120.0,2.0,0.0
2689,65.0,240.0,120.0,2.0,0.0
2690,62.0,0.0,120.0,2.0,0.0
2691,55.0,240.0,120.0,2.0,0.0
2692,62.0,0.0,120.0,2.0,0.0
2693,65.0,0.0,120.0,2.0,0.0
2694,81.0,240.0,120.0,0.0,0.0
2695,62.0,0.0,120.0,2.0,0.0
2696,79.0,0.0,120.0,0.0,0.0
2697,55.0,240.0,120.0,2.0,0.0
2698,65.0,0.0,120.0,2.0,0.0
2699,62.0,0.0,120.0,2.0,0.0
2700,55.0,240.0,120.0,2.0,0.0
2701,65.0,0.0,120.0,2.0,0.0
2702,77.0,240.0,120.0,0.0,0.0
2703,55.0,0.0,120.0,2.0,0.0
2704,62.0,0.0,120.0,2.0,0.0
2705,65.0,240.0,120.0,2.0,0.0
2706,76.0,0.0,120.0,0.0,0.0
2707,62.0,0.0,120.0,2.0,0.0
2708,55.0,240.0,120.0,2.0,0.0
2709,65.0,0.0,120.0,2.0,0.0
2710,74.0,240.0,120.0,0.0,0.0
2711,62.0,0.0,120.0,2.0,0.0
2712,72.0,0.0,120.0,0.0,0.0
2713,55.0,240.0,120.0,2.0,0.0
2714,65.0,0.0,120.0,2.0,0.0
2715,65.0,240.0,120.0,2.0,0.0
2716,62.0,0.0,120.0,2.0,0.0
2717,55.0,0.0,120.0,2.0,0.0
2718,71.0,240.0,120.0,0.0,0.0
2719,55.0,0.0,120.0,2.0,0.0
2720,62.0,0.0,120.0,2.0,0.0
2721,65.0,240.0,120.0,2.0,0.0
2722,72.0,0.0,120.0,0.0,0.0
2723,65.0,0.0,120.0,2.0,0.0
2724,55.0,0.0,120.0,2.0,0.0
2725,62.0,240.0,120.0,2.0,0.0
2726,74.0,240.0,120.0,0.0,0.0
2727,76.0,240.0,120.0,0.0,0.0
2728,65.0,0.0,120.0,2.0,0.0
2729,55.0,0.0,120.0,2.0,0.0
2730,62.0,0.0,120.0,2.0,0.0
2731,62.0,240.0,120.0,2.0,0.0
2732,55.0,0.0,120.0,2.0,0.0
2733,65.0,0.0,120.0,2.0,0.0
2734,77.0,240.0,120.0,0.0,0.0
2735,55.0,240.0,120.0,2.0,0.0
2736,79.0,0.0,120.0,0.0,0.0
2737,62.0,0.0,120.0,2.0,0.0
2738,65.0,0.0,120.0,2.0,0.0
2739,62.0,0.0,120.0,2.0,0.0
2740,65.0,240.0,120.0,2.0,0.0
2741,55.0,0.0,120.0,2.0,0.0
2742,81.0,240.0,120.0,0.0,0.0
2743,55.0,0.0,120.0,2.0,0.0
2744,62.0,0.0,120.0,2.0,0.0
2745,65.0,0.0,120.0,2.0,0.0
2746,79.0,240.0,120.0,0.0,0.0
2747,65.0,0.0,120.0,2.0,0.0
2748,55.0,240.0,120.0,2.0,0.0
2749,62.0,0.0,120.0,2.0,0.0
2750,77.0,240.0,120.0,0.0,0.0
2751,55.0,0.0,120.0,2.0,0.0
2752,62.0,240.0,120.0,2.0,0.0
2753,76.0,0.0,120.0,0.0,0.0
2754,65.0,0.0,120.0,2.0,0.0
2755,53.0,0.0,120.0,2.0,0.0
2756,50.0,240.0,120.0,2.0,0.0
2757,43.0,0.0,120.0,2.0,0.0
2758,74.0,240.0,120.0,0.0,0.0
2759,72.0,240.0,120.0,0.0,0.0
2760,50.0,0.0,120.0,2.0,0.0
2761,43.0,0.0,120.0,2.0,0.0
2762,53.0,0.0,120.0,2.0,0.0
2763,53.0,240.0,120.0,2.0,0.0
2764,50.0,0.0,120.0,2.0,0.0
2765,43.0,0.0,120.0,2.0,0.0
2766,71.0,240.0,120.0,0.0,0.0
2767,69.0,0.0,120.0,0.0,0.0
2768,53.0,0.0,120.0,2.0,0.0
2769,43.0,240.0,120.0,2.0,0.0
2770,50.0,0.0,120.0,2.0,0.0
2771,50.0,0.0,120.0,2.0,0.0
2772,43.0,240.0,120.0,2.0,0.0
2773,53.0,0.0,120.0,2.0,0.0
2774,67.0,240.0,120.0,0.0,0.0
2775,43.0,0.0,120.0,2.0,0.0
2776,53.0,0.0,120.0,2.0,0.0
2777,50.0,0.0,120.0,2.0,0.0
2778,65.0,240.0,120.0,0.0,0.0
2779,53.0,240.0,120.0,2.0,0.0
2780,50.0,0.0,120.0,2.0,0.0
2781,43.0,0.0,120.0,2.0,0.0
2782,64.0,240.0,120.0,0.0,0.0
2783,53.0,0.0,120.0,2.0,0.0
2784,63.0,0.0,120.0,0.0,0.0
2785,43.0,240.0,120.0,2.0,0.0
2786,50.0,0.0,120.0,2.0,0.0
2787,50.0,0.0,120.0,2.0,0.0
2788,53.0,240.0,120.0,2.0,0.0
2789,43.0,0.0,120.0,2.0,0.0
2790,62.0,240.0,120.0,0.0,0.0
2791,53.0,0.0,120.0,2.0,0.0
2792,64.0,0.0,120.0,0.0,0.0
2793,43.0,240.0,120.0,2.0,0.0
2794,50.0,0.0,120.0,2.0,0.0
2795,53.0,0.0,120.0,2.0,0.0
2796,43.0,0.0,120.0,2.0,0.0
2797,50.0,240.0,120.0,2.0,0.0
2798,65.0,240.0,120.0,0.0,0.0
2799,43.0,0.0,120.0,2.0,0.0
2800,50.0,0.0,120.0,2.0,0.0
2801,53.0,0.0,120.0,2.0,0.0
2802,59.0,840.0,120.0,0.0,0.0
2803,55.0,353.0,960.0,2.0,0.0
2804,59.0,7.0,720.0,1.0,0.0
2805,48.0,0.0,960.0,2.0,0.0
2806,53.0,0.0,720.0,2.0,0.0
2807,62.0,233.0,720.0,0.0,0.0
2808,60.0,0.0,240.0,0.0,0.0
2809,52.0,7.0,240.0,2.0,0.0
2810,65.0,240.0,120.0,2.0,0.0
2811,55.0,0.0,120.0,2.0,0.0
2812,62.0,0.0,120.0,2.0,0.0
2813,65.0,0.0,120.0,2.0,0.0
2814,62.0,480.0,120.0,2.0,0.0
2815,55.0,0.0,120.0,2.0,0.0
2816,65.0,240.0,120.0,2.0,0.0
2817,62.0,0.0,120.0,2.0,0.0
2818,55.0,0.0,120.0,2.0,0.0
2819,65.0,480.0,120.0,2.0,0.0
2820,62.0,0.0,120.0,2.0,0.0
2821,55.0,0.0,120.0,2.0,0.0
2822,65.0,0.0,120.0,2.0,0.0
2823,62.0,0.0,120.0,2.0,0.0
2824,55.0,240.0,120.0,2.0,0.0
2825,62.0,0.0,120.0,2.0,0.0
2826,55.0,240.0,120.0,2.0,0.0
2827,65.0,0.0,120.0,2.0,0.0
2828,81.0,240.0,120.0,0.0,0.0
2829,79.0,0.0,120.0,0.0,0.0
2830,65.0,240.0,120.0,2.0,0.0
2831,55.0,0.0,120.0,2.0,0.0
2832,62.0,0.0,120.0,2.0,0.0
2833,65.0,0.0,120.0,2.0,0.0
2834,55.0,0.0,120.0,2.0,0.0
2835,62.0,240.0,120.0,2.0,0.0
2836,77.0,240.0,120.0,0.0,0.0
2837,76.0,0.0,120.0,0.0,0.0
2838,65.0,240.0,120.0,2.0,0.0
2839,62.0,0.0,120.0,2.0,0.0
2840,55.0,0.0,120.0,2.0,0.0
2841,55.0,240.0,120.0,2.0,0.0
2842,65.0,0.0,120.0,2.0,0.0
2843,62.0,0.0,120.0,2.0,0.0
2844,74.0,240.0,120.0,0.0,0.0
2845,72.0,0.0,120.0,0.0,0.0
2846,65.0,0.0,120.0,2.0,0.0
2847,62.0,240.0,120.0,2.0,0.0
2848,55.0,0.0,120.0,2.0,0.0
2849,65.0,0.0,120.0,2.0,0.0
2850,62.0,0.0,120.0,2.0,0.0
2851,55.0,240.0,120.0,2.0,0.0
2852,71.0,240.0,120.0,0.0,0.0
2853,55.0,0.0,120.0,2.0,0.0
2854,65.0,0.0,120.0,2.0,0.0
2855,72.0,0.0,120.0,0.0,0.0
2856,62.0,240.0,120.0,2.0,0.0
2857,55.0,0.0,120.0,2.0,0.0
2858,65.0,240.0,120.0,2.0,0.0
2859,62.0,0.0,120.0,2.0,0.0
2860,74.0,240.0,120.0,0.0,0.0
2861,76.0,0.0,120.0,0.0,0.0
2862,65.0,0.0,120.0,2.0,0.0
2863,62.0,240.0,120.0,2.0,0.0
2864,55.0,0.0,120.0,2.0,0.0
2865,65.0,240.0,120.0,2.0,0.0
2866,55.0,0.0,120.0,2.0,0.0
2867,62.0,0.0,120.0,2.0,0.0
2868,77.0,240.0,120.0,0.0,0.0
2869,55.0,240.0,120.0,2.0,0.0
2870,62.0,0.0,120.0,2.0,0.0
2871,65.0,0.0,120.0,2.0,0.0
2872,79.0,0.0,120.0,0.0,0.0
2873,65.0,0.0,120.0,2.0,0.0
2874,62.0,240.0,120.0,2.0,0.0
2875,55.0,0.0,120.0,2.0,0.0
2876,81.0,240.0,120.0,0.0,0.0
2877,79.0,0.0,120.0,0.0,0.0
2878,62.0,0.0,120.0,2.0,0.0
2879,65.0,240.0,120.0,2.0,0.0
2880,55.0,0.0,120.0,2.0,0.0
2881,65.0,0.0,120.0,2.0,0.0
2882,62.0,0.0,120.0,2.0,0.0
2883,55.0,240.0,120.0,2.0,0.0
2884,77.0,240.0,120.0,0.0,0.0
2885,76.0,240.0,120.0,0.0,0.0
2886,62.0,0.0,120.0,2.0,0.0
2887,55.0,0.0,120.0,2.0,0.0
2888,65.0,0.0,120.0,2.0,0.0
2889,53.0,0.0,120.0,2.0,0.0
2890,50.0,240.0,120.0,2.0,0.0
2891,43.0,0.0,120.0,2.0,0.0
2892,74.0,240.0,120.0,0.0,0.0
2893,50.0,0.0,120.0,2.0,0.0
2894,72.0,240.0,120.0,0.0,0.0
2895,53.0,0.0,120.0,2.0,0.0
2896,43.0,0.0,120.0,2.0,0.0
2897,53.0,0.0,120.0,2.0,0.0
2898,50.0,240.0,120.0,2.0,0.0
2899,43.0,0.0,120.0,2.0,0.0
2900,71.0,240.0,120.0,0.0,0.0
2901,53.0,0.0,120.0,2.0,0.0
2902,50.0,0.0,120.0,2.0,0.0
2903,43.0,240.0,120.0,2.0,0.0
2904,69.0,0.0,120.0,0.0,0.0
2905,53.0,240.0,120.0,2.0,0.0
2906,50.0,0.0,120.0,2.0,0.0
2907,43.0,0.0,120.0,2.0,0.0
2908,67.0,240.0,120.0,0.0,0.0
2909,53.0,0.0,120.0,2.0,0.0
2910,50.0,240.0,120.0,2.0,0.0
2911,43.0,0.0,120.0,2.0,0.0
2912,65.0,0.0,120.0,0.0,0.0
2913,43.0,240.0,120.0,2.0,0.0
2914,53.0,0.0,120.0,2.0,0.0
2915,50.0,0.0,120.0,2.0,0.0
2916,64.0,240.0,120.0,0.0,0.0
2917,53.0,0.0,120.0,2.0,0.0
2918,50.0,0.0,120.0,2.0,0.0
2919,63.0,240.0,120.0,0.0,0.0
2920,43.0,0.0,120.0,2.0,0.0
2921,43.0,240.0,120.0,2.0,0.0
2922,50.0,0.0,120.0,2.0,0.0
2923,53.0,0.0,120.0,2.0,0.0
2924,62.0,240.0,120.0,0.0,0.0
2925,43.0,0.0,120.0,2.0,0.0
2926,50.0,0.0,120.0,2.0,0.0
2927,53.0,240.0,120.0,2.0,0.0
2928,64.0,0.0,120.0,0.0,0.0
2929,50.0,240.0,120.0,2.0,0.0
2930,43.0,0.0,120.0,2.0,0.0
2931,53.0,0.0,120.0,2.0,0.0
2932,65.0,240.0,120.0,0.0,0.0
2933,59.0,0.0,120.0,0.0,0.0
2934,53.0,276.0,120.0,2.0,0.0
2935,43.0,0.0,120.0,2.0,0.0
2936,50.0,0.0,120.0,2.0,0.0
2937,52.0,0.0,150.0,2.0,0.0
2938,48.0,324.0,150.0,2.0,0.0
2939,48.0,0.0,150.0,3.0,0.0
2940,60.0,0.0,150.0,0.0,0.0
2941,46.0,0.0,240.0,3.0,0.0
2942,58.0,240.0,240.0,0.0,0.0
2943,59.0,240.0,240.0,0.0,0.0
2944,47.0,0.0,240.0,3.0,0.0
2945,52.0,0.0,240.0,0.0,0.0
2946,40.0,240.0,240.0,3.0,0.0
2947,43.0,240.0,240.0,3.0,0.0
2948,55.0,0.0,240.0,0.0,0.0
2949,59.0,0.0,240.0,0.0,0.0
2950,47.0,240.0,240.0,3.0,0.0
2951,64.0,0.0,240.0,0.0,0.0
2952,52.0,240.0,240.0,3.0,0.0
2953,67.0,180.0,240.0,0.0,0.0
2954,55.0,0.0,240.0,3.0,0.0
2955,59.0,0.0,180.0,3.0,0.0
2956,71.0,540.0,180.0,0.0,0.0
2957,64.0,10.0,720.0,3.0,0.0
2958,79.0,230.0,240.0,2.0,0.0
2959,67.0,0.0,240.0,2.0,0.0
2960,76.0,0.0,240.0,2.0,0.0
2961,71.0,0.0,240.0,2.0,0.0
2962,63.0,530.0,660.0,3.0,0.0
2963,83.0,480.0,15.0,0.0,0.0
2964,78.0,180.0,240.0,2.0,0.0
2965,66.0,0.0,240.0,2.0,0.0
2966,75.0,0.0,180.0,2.0,0.0
2967,71.0,10.0,180.0,2.0,0.0
2968,71.0,20.0,690.0,0.0,0.0
2969,51.0,0.0,720.0,3.0,0.0
2970,54.0,220.0,240.0,2.0,0.0
2971,66.0,0.0,240.0,2.0,0.0
2972,63.0,0.0,240.0,2.0,0.0
2973,59.0,480.0,240.0,2.0,0.0
2974,71.0,530.0,660.0,0.0,0.0
2975,50.0,10.0,660.0,3.0,0.0
2976,66.0,180.0,240.0,2.0,0.0
2977,54.0,0.0,240.0,2.0,0.0
2978,62.0,0.0,180.0,2.0,0.0
2979,59.0,0.0,180.0,2.0,0.0
2980,62.0,0.0,720.0,3.0,0.0
2981,83.0,0.0,720.0,0.0,0.0
2982,66.0,0.0,240.0,2.0,0.0
2983,78.0,240.0,240.0,2.0,0.0
2984,71.0,480.0,240.0,2.0,0.0
2985,74.0,0.0,240.0,2.0,0.0
2986,81.0,0.0,660.0,0.0,0.0
2987,61.0,530.0,660.0,3.0,0.0
2988,76.0,180.0,240.0,2.0,0.0
2989,64.0,0.0,240.0,2.0,0.0
2990,69.0,0.0,180.0,2.0,0.0
2991,73.0,10.0,180.0,2.0,0.0
2992,49.0,480.0,720.0,3.0,0.0
2993,52.0,240.0,240.0,2.0,0.0
2994,64.0,0.0,240.0,2.0,0.0
2995,57.0,0.0,240.0,2.0,0.0
2996,61.0,0.0,240.0,2.0,0.0
2997,48.0,0.0,660.0,3.0,0.0
2998,69.0,0.0,15.0,0.0,0.0
2999,52.0,0.0,240.0,2.0,0.0
3000,64.0,180.0,240.0,2.0,0.0
3001,60.0,10.0,180.0,2.0,0.0
3002,57.0,0.0,180.0,2.0,0.0
3003,60.0,480.0,720.0,3.0,0.0
3004,81.0,20.0,690.0,0.0,0.0
3005,64.0,0.0,240.0,2.0,0.0
3006,76.0,220.0,240.0,2.0,0.0
3007,69.0,0.0,240.0,2.0,0.0
3008,72.0,0.0,240.0,2.0,0.0
3009,79.0,10.0,660.0,0.0,0.0
3010,59.0,10.0,630.0,3.0,0.0
3011,76.0,160.0,240.0,2.0,0.0
3012,64.0,0.0,240.0,2.0,0.0
3013,71.0,180.0,180.0,2.0,0.0
3014,67.0,0.0,180.0,2.0,0.0
3015,52.0,0.0,120.0,3.0,0.0
3016,40.0,0.0,120.0,3.0,0.0
3017,67.0,240.0,120.0,0.0,0.0
3018,79.0,0.0,120.0,0.0,0.0
3019,47.0,0.0,120.0,3.0,0.0
3020,73.0,240.0,120.0,0.0,0.0
3021,71.0,0.0,120.0,0.0,0.0
3022,49.0,240.0,120.0,3.0,0.0
3023,42.0,0.0,120.0,3.0,0.0
3024,78.0,0.0,120.0,0.0,0.0
3025,66.0,240.0,120.0,0.0,0.0
3026,54.0,0.0,120.0,3.0,0.0
3027,47.0,0.0,120.0,3.0,0.0
3028,74.0,240.0,120.0,0.0,0.0
3029,71.0,240.0,120.0,0.0,0.0
3030,50.0,0.0,120.0,3.0,0.0
3031,42.0,0.0,120.0,3.0,0.0
3032,78.0,0.0,120.0,0.0,0.0
3033,66.0,240.0,120.0,0.0,0.0
3034,54.0,0.0,120.0,3.0,0.0
3035,73.0,240.0,120.0,0.0,0.0
3036,46.0,0.0,120.0,3.0,0.0
3037,49.0,300.0,120.0,3.0,0.0
3038,70.0,0.0,120.0,0.0,0.0
3039,35.0,180.0,180.0,3.0,0.0
3040,71.0,120.0,360.0,0.0,0.0
3041,47.0,0.0,180.0,3.0,0.0
3042,43.0,240.0,240.0,3.0,0.0
3043,42.0,120.0,240.0,3.0,0.0
3044,40.0,240.0,120.0,3.0,0.0
3045,52.0,0.0,240.0,0.0,0.0
3046,43.0,240.0,120.0,3.0,0.0
3047,55.0,0.0,240.0,0.0,0.0
3048,47.0,112.0,120.0,3.0,0.0
3049,59.0,128.0,120.0,0.0,0.0
3050,52.0,240.0,120.0,3.0,0.0
3051,64.0,240.0,240.0,0.0,0.0
3052,55.0,0.0,120.0,3.0,0.0
3053,67.0,0.0,240.0,0.0,0.0
3054,59.0,105.0,120.0,3.0,0.0
3055,71.0,135.0,120.0,0.0,0.0
3056,64.0,240.0,120.0,3.0,0.0
3057,83.0,5.0,570.0,0.0,0.0
3058,67.0,240.0,120.0,2.0,0.0
3059,79.0,100.0,240.0,2.0,0.0
3060,71.0,0.0,120.0,2.0,0.0
3061,76.0,115.0,120.0,2.0,0.0
3062,63.0,260.0,90.0,3.0,0.0
3063,83.0,12.0,570.0,0.0,0.0
3064,66.0,240.0,120.0,2.0,0.0
3065,78.0,0.0,240.0,2.0,0.0
3066,71.0,100.0,120.0,2.0,0.0
3067,75.0,148.0,120.0,2.0,0.0
3068,51.0,220.0,150.0,3.0,0.0
3069,71.0,12.0,570.0,0.0,0.0
3070,54.0,240.0,120.0,2.0,0.0
3071,66.0,100.0,240.0,2.0,0.0
3072,59.0,0.0,120.0,2.0,0.0
3073,63.0,128.0,120.0,2.0,0.0
3074,50.0,240.0,120.0,3.0,0.0
3075,71.0,5.0,570.0,0.0,0.0
3076,54.0,240.0,120.0,2.0,0.0
3077,66.0,100.0,240.0,2.0,0.0
3078,59.0,0.0,120.0,2.0,0.0
3079,62.0,135.0,120.0,2.0,0.0
3080,62.0,240.0,120.0,3.0,0.0
3081,83.0,20.0,570.0,0.0,0.0
3082,66.0,240.0,120.0,2.0,0.0
3083,78.0,100.0,240.0,2.0,0.0
3084,71.0,0.0,120.0,2.0,0.0
3085,74.0,120.0,120.0,2.0,0.0
3086,61.0,240.0,120.0,3.0,0.0
3087,81.0,20.0,570.0,0.0,0.0
3088,64.0,240.0,120.0,2.0,0.0
3089,76.0,100.0,240.0,2.0,0.0
3090,69.0,0.0,120.0,2.0,0.0
3091,73.0,120.0,120.0,2.0,0.0
3092,49.0,240.0,120.0,3.0,0.0
3093,69.0,17.0,600.0,0.0,0.0
3094,52.0,240.0,120.0,2.0,0.0
3095,64.0,0.0,240.0,2.0,0.0
3096,57.0,110.0,120.0,2.0,0.0
3097,61.0,113.0,120.0,2.0,0.0
3098,48.0,240.0,120.0,3.0,0.0
3099,69.0,2.0,600.0,0.0,0.0
3100,52.0,240.0,120.0,2.0,0.0
3101,64.0,0.0,240.0,2.0,0.0
3102,57.0,110.0,120.0,2.0,0.0
3103,60.0,128.0,120.0,2.0,0.0
3104,60.0,240.0,120.0,3.0,0.0
3105,81.0,0.0,600.0,0.0,0.0
3106,64.0,240.0,120.0,2.0,0.0
3107,76.0,0.0,240.0,2.0,0.0
3108,69.0,120.0,120.0,2.0,0.0
3109,72.0,120.0,120.0,2.0,0.0
3110,59.0,240.0,120.0,3.0,0.0
3111,79.0,120.0,600.0,0.0,0.0
3112,64.0,240.0,120.0,2.0,0.0
3113,76.0,112.0,240.0,2.0,0.0
3114,67.0,0.0,120.0,2.0,0.0
3115,71.0,8.0,120.0,2.0,0.0
3116,52.0,0.0,120.0,3.0,0.0
3117,40.0,240.0,120.0,3.0,0.0
3118,67.0,240.0,240.0,2.0,0.0
3119,79.0,120.0,600.0,0.0,0.0
3120,47.0,0.0,120.0,3.0,0.0
3121,73.0,0.0,240.0,2.0,0.0
3122,49.0,96.0,120.0,3.0,0.0
3123,71.0,24.0,90.0,2.0,0.0
3124,42.0,0.0,120.0,3.0,0.0
3125,54.0,240.0,120.0,3.0,0.0
3126,78.0,120.0,600.0,0.0,0.0
3127,66.0,240.0,240.0,2.0,0.0
3128,47.0,0.0,120.0,3.0,0.0
3129,74.0,96.0,240.0,2.0,0.0
3130,50.0,0.0,120.0,3.0,0.0
3131,71.0,24.0,90.0,2.0,0.0
3132,54.0,0.0,120.0,3.0,0.0
3133,42.0,240.0,120.0,3.0,0.0
3134,78.0,143.0,570.0,0.0,0.0
3135,66.0,240.0,240.0,2.0,0.0
3136,46.0,0.0,120.0,3.0,0.0
3137,73.0,96.0,240.0,2.0,0.0
3138,49.0,0.0,120.0,3.0,0.0
3139,70.0,1.0,90.0,2.0,0.0
3140,71.0,300.0,180.0,0.0,0.0
3141,35.0,60.0,120.0,3.0,0.0
3142,47.0,0.0,120.0,3.0,0.0
3143,43.0,240.0,240.0,3.0,0.0
3144,42.0,120.0,240.0,3.0,0.0
3145,41.0,240.0,120.0,3.0,0.0
3146,83.0,27.0,570.0,0.0,0.0
3147,45.0,240.0,120.0,2.0,0.0
3148,77.0,100.0,240.0,2.0,0.0
3149,50.0,0.0,120.0,2.0,0.0
3150,74.0,113.0,120.0,2.0,0.0
3151,40.0,240.0,120.0,3.0,0.0
3152,83.0,12.0,570.0,0.0,0.0
3153,44.0,240.0,120.0,2.0,0.0
3154,76.0,0.0,240.0,2.0,0.0
3155,50.0,100.0,120.0,2.0,0.0
3156,72.0,128.0,120.0,2.0,0.0
3157,44.0,240.0,120.0,3.0,0.0
3158,74.0,12.0,570.0,0.0,0.0
3159,47.0,240.0,120.0,2.0,0.0
3160,71.0,100.0,240.0,2.0,0.0
3161,52.0,0.0,120.0,2.0,0.0
3162,64.0,128.0,120.0,2.0,0.0
3163,45.0,121.0,120.0,3.0,0.0
3164,72.0,12.0,570.0,0.0,0.0
3165,48.0,359.0,15.0,2.0,0.0
3166,69.0,0.0,240.0,2.0,0.0
3167,52.0,100.0,120.0,2.0,0.0
3168,64.0,128.0,120.0,2.0,0.0
3169,40.0,240.0,120.0,3.0,0.0
3170,60.0,10.0,600.0,0.0,0.0
3171,43.0,240.0,120.0,2.0,0.0
3172,55.0,110.0,240.0,2.0,0.0
3173,52.0,120.0,120.0,2.0,0.0
3174,39.0,240.0,120.0,3.0,0.0
3175,59.0,10.0,600.0,0.0,0.0
3176,42.0,240.0,120.0,2.0,0.0
3177,54.0,110.0,240.0,2.0,0.0
3178,47.0,0.0,120.0,2.0,0.0
3179,51.0,120.0,120.0,2.0,0.0
3180,51.0,240.0,120.0,3.0,0.0
3181,81.0,130.0,600.0,0.0,0.0
3182,54.0,240.0,120.0,2.0,0.0
3183,78.0,105.0,240.0,2.0,0.0
3184,59.0,0.0,120.0,2.0,0.0
3185,71.0,5.0,120.0,2.0,0.0
3186,52.0,121.0,120.0,3.0,0.0
3187,79.0,17.0,600.0,0.0,0.0
3188,55.0,359.0,15.0,2.0,0.0
3189,76.0,110.0,240.0,2.0,0.0
3190,59.0,0.0,120.0,2.0,0.0
3191,71.0,113.0,120.0,2.0,0.0
3192,40.0,240.0,120.0,3.0,0.0
3193,52.0,240.0,240.0,0.0,0.0
3194,43.0,0.0,120.0,3.0,0.0
3195,55.0,127.0,240.0,0.0,0.0
3196,47.0,0.0,120.0,3.0,0.0
3197,59.0,113.0,120.0,0.0,0.0
3198,52.0,240.0,120.0,3.0,0.0
3199,64.0,240.0,240.0,0.0,0.0
3200,55.0,0.0,120.0,3.0,0.0
3201,67.0,0.0,240.0,0.0,0.0
3202,59.0,120.0,120.0,3.0,0.0
3203,71.0,120.0,120.0,0.0,0.0
3204,64.0,240.0,120.0,3.0,0.0
3205,84.0,27.0,570.0,0.0,0.0
3206,67.0,240.0,120.0,2.0,0.0
3207,79.0,100.0,240.0,2.0,0.0
3208,72.0,0.0,120.0,2.0,0.0
3209,76.0,113.0,120.0,2.0,0.0
3210,63.0,240.0,120.0,3.0,0.0
3211,84.0,20.0,570.0,0.0,0.0
3212,66.0,240.0,120.0,2.0,0.0
3213,78.0,0.0,240.0,2.0,0.0
3214,72.0,100.0,120.0,2.0,0.0
3215,75.0,120.0,120.0,2.0,0.0
3216,51.0,240.0,120.0,3.0,0.0
3217,72.0,37.0,570.0,0.0,0.0
3218,54.0,240.0,120.0,2.0,0.0
3219,66.0,90.0,240.0,2.0,0.0
3220,60.0,0.0,120.0,2.0,0.0
3221,63.0,113.0,120.0,2.0,0.0
3222,50.0,240.0,120.0,3.0,0.0
3223,71.0,30.0,570.0,0.0,0.0
3224,54.0,240.0,120.0,2.0,0.0
3225,66.0,90.0,240.0,2.0,0.0
3226,59.0,0.0,120.0,2.0,0.0
3227,62.0,120.0,120.0,2.0,0.0
3228,62.0,240.0,120.0,3.0,0.0
3229,83.0,20.0,570.0,0.0,0.0
3230,66.0,240.0,120.0,2.0,0.0
3231,78.0,0.0,240.0,2.0,0.0
3232,71.0,100.0,120.0,2.0,0.0
3233,74.0,120.0,120.0,2.0,0.0
3234,61.0,240.0,120.0,3.0,0.0
3235,83.0,20.0,570.0,0.0,0.0
3236,64.0,240.0,120.0,2.0,0.0
3237,76.0,100.0,240.0,2.0,0.0
3238,71.0,0.0,120.0,2.0,0.0
3239,73.0,120.0,120.0,2.0,0.0
3240,49.0,240.0,120.0,3.0,0.0
3241,71.0,20.0,570.0,0.0,0.0
3242,52.0,240.0,120.0,2.0,0.0
3243,64.0,0.0,240.0,2.0,0.0
3244,59.0,100.0,120.0,2.0,0.0
3245,61.0,120.0,120.0,2.0,0.0
3246,48.0,240.0,120.0,3.0,0.0
3247,69.0,12.0,570.0,0.0,0.0
3248,52.0,240.0,120.0,2.0,0.0
3249,64.0,0.0,240.0,2.0,0.0
3250,57.0,100.0,120.0,2.0,0.0
3251,60.0,128.0,120.0,2.0,0.0
3252,60.0,240.0,120.0,3.0,0.0
3253,81.0,5.0,570.0,0.0,0.0
3254,64.0,240.0,120.0,2.0,0.0
3255,76.0,100.0,240.0,2.0,0.0
3256,69.0,0.0,120.0,2.0,0.0
3257,72.0,135.0,120.0,2.0,0.0
3258,59.0,240.0,120.0,3.0,0.0
3259,79.0,140.0,570.0,0.0,0.0
3260,64.0,240.0,120.0,2.0,0.0
3261,76.0,0.0,240.0,2.0,0.0
3262,67.0,97.0,120.0,2.0,0.0
3263,71.0,3.0,90.0,2.0,0.0
3264,58.0,0.0,120.0,3.0,0.0
3265,46.0,240.0,120.0,3.0,0.0
3266,76.0,32.0,540.0,0.0,0.0
3267,64.0,233.0,240.0,2.0,0.0
3268,52.0,7.0,120.0,3.0,0.0
3269,73.0,58.0,240.0,2.0,0.0
3270,55.0,7.0,120.0,3.0,0.0
3271,67.0,143.0,90.0,2.0,0.0
3272,59.0,240.0,120.0,3.0,0.0
3273,47.0,0.0,120.0,3.0,0.0
3274,76.0,32.0,540.0,0.0,0.0
3275,64.0,0.0,240.0,2.0,0.0
3276,52.0,240.0,120.0,3.0,0.0
3277,71.0,58.0,240.0,2.0,0.0
3278,55.0,7.0,120.0,3.0,0.0
3279,67.0,143.0,90.0,2.0,0.0
3280,59.0,240.0,120.0,3.0,0.0
3281,47.0,0.0,120.0,3.0,0.0
3282,63.0,233.0,240.0,2.0,0.0
3283,75.0,52.0,540.0,0.0,0.0
3284,51.0,7.0,120.0,3.0,0.0
3285,71.0,0.0,240.0,2.0,0.0
3286,54.0,60.0,120.0,3.0,0.0
3287,66.0,128.0,120.0,2.0,0.0
3288,52.0,0.0,120.0,3.0,0.0
3289,40.0,240.0,120.0,3.0,0.0
3290,64.0,233.0,240.0,2.0,0.0
3291,76.0,0.0,600.0,0.0,0.0
3292,44.0,7.0,120.0,3.0,0.0
3293,71.0,98.0,240.0,2.0,0.0
3294,47.0,7.0,120.0,3.0,0.0
3295,68.0,135.0,120.0,2.0,0.0
3296,52.0,0.0,120.0,3.0,0.0
3297,40.0,240.0,120.0,3.0,0.0
3298,76.0,140.0,570.0,0.0,0.0
3299,64.0,0.0,240.0,2.0,0.0
3300,45.0,240.0,120.0,3.0,0.0
3301,72.0,0.0,240.0,2.0,0.0
3302,48.0,96.0,120.0,3.0,0.0
3303,69.0,4.0,90.0,2.0,0.0
3304,40.0,240.0,120.0,3.0,0.0
3305,52.0,0.0,120.0,3.0,0.0
3306,64.0,0.0,240.0,2.0,0.0
3307,76.0,135.0,600.0,0.0,0.0
3308,47.0,240.0,120.0,3.0,0.0
3309,74.0,96.0,240.0,2.0,0.0
3310,50.0,0.0,120.0,3.0,0.0
3311,71.0,9.0,90.0,2.0,0.0
3312,52.0,0.0,120.0,3.0,0.0
3313,40.0,240.0,120.0,3.0,0.0
3314,76.0,1.0,570.0,0.0,0.0
3315,64.0,240.0,240.0,2.0,0.0
3316,45.0,0.0,120.0,3.0,0.0
3317,72.0,0.0,240.0,2.0,0.0
3318,48.0,95.0,120.0,3.0,0.0
3319,69.0,144.0,90.0,2.0,0.0
3320,71.0,0.0,120.0,3.0,0.0
3321,59.0,240.0,120.0,3.0,0.0
3322,88.0,11.0,570.0,0.0,0.0
3323,76.0,0.0,240.0,2.0,0.0
3324,56.0,0.0,120.0,3.0,0.0
3325,68.0,240.0,120.0,3.0,0.0
3326,80.0,0.0,240.0,2.0,0.0
3327,64.0,0.0,120.0,3.0,0.0
3328,52.0,85.0,120.0,3.0,0.0
3329,83.0,144.0,90.0,2.0,0.0
3330,72.0,240.0,120.0,3.0,0.0
3331,60.0,0.0,120.0,3.0,0.0
3332,76.0,0.0,240.0,2.0,0.0
3333,88.0,1.0,570.0,0.0,0.0
3334,69.0,0.0,120.0,3.0,0.0
3335,57.0,240.0,120.0,3.0,0.0
3336,81.0,0.0,240.0,2.0,0.0
3337,52.0,0.0,120.0,3.0,0.0
3338,64.0,95.0,120.0,3.0,0.0
3339,84.0,144.0,90.0,2.0,0.0
3340,71.0,240.0,120.0,3.0,0.0
3341,59.0,0.0,120.0,3.0,0.0
3342,88.0,6.0,570.0,0.0,0.0
3343,76.0,0.0,240.0,2.0,0.0
3344,55.0,0.0,120.0,3.0,0.0
3345,67.0,240.0,120.0,3.0,0.0
3346,83.0,90.0,240.0,2.0,0.0
3347,64.0,0.0,120.0,3.0,0.0
3348,52.0,0.0,120.0,3.0,0.0
3349,86.0,144.0,90.0,2.0,0.0
3350,60.0,240.0,120.0,3.0,0.0
3351,72.0,0.0,120.0,3.0,0.0
3352,88.0,6.0,570.0,0.0,0.0
3353,76.0,0.0,240.0,2.0,0.0
3354,69.0,240.0,120.0,3.0,0.0
3355,57.0,0.0,120.0,3.0,0.0
3356,81.0,90.0,240.0,2.0,0.0
3357,52.0,0.0,120.0,3.0,0.0
3358,64.0,0.0,120.0,3.0,0.0
3359,84.0,144.0,90.0,2.0,0.0
3360,52.0,240.0,120.0,3.0,0.0
3361,64.0,0.0,120.0,3.0,0.0
3362,76.0,0.0,240.0,2.0,0.0
3363,88.0,240.0,240.0,0.0,0.0
3364,71.0,0.0,120.0,3.0,0.0
3365,83.0,240.0,240.0,0.0,0.0
3366,68.0,0.0,120.0,3.0,0.0
3367,80.0,0.0,240.0,0.0,0.0
3368,64.0,240.0,120.0,3.0,0.0
3369,76.0,240.0,240.0,0.0,0.0
3370,59.0,0.0,120.0,3.0,0.0
3371,71.0,240.0,240.0,0.0,0.0
3372,56.0,0.0,120.0,3.0,0.0
3373,68.0,240.0,240.0,0.0,0.0
3374,52.0,0.0,120.0,3.0,0.0
3375,64.0,240.0,240.0,0.0,0.0
3376,47.0,0.0,120.0,3.0,0.0
3377,59.0,0.0,240.0,0.0,0.0
3378,44.0,240.0,120.0,3.0,0.0
3379,56.0,0.0,240.0,0.0,0.0
3380,40.0,240.0,120.0,3.0,0.0
3381,52.0,240.0,240.0,0.0,0.0
3382,47.0,0.0,120.0,3.0,0.0
3383,59.0,0.0,240.0,0.0,0.0
3384,44.0,360.0,120.0,3.0,0.0
3385,56.0,480.0,360.0,0.0,0.0
3386,40.0,3360.0,1440.0,3.0,0.0
3387,52.0,720.0,480.0,0.0,0.0
3388,60.0,0.0,1920.0,1.0,0.0
3389,55.0,0.0,1920.0,1.0,0.0
3390,48.0,0.0,15.0,2.0,0.0
3391,36.0,480.0,15.0,3.0,0.0
3392,48.0,480.0,480.0,2.0,0.0
3393,36.0,0.0,480.0,3.0,0.0
3394,48.0,0.0,15.0,2.0,0.0
3395,36.0,0.0,15.0,3.0,0.0
3396,64.0,240.0,15.0,0.0,0.0
3397,53.0,0.0,960.0,1.0,0.0
3398,59.0,0.0,960.0,1.0,0.0
3399,62.0,240.0,240.0,0.0,0.0
3400,36.0,0.0,480.0,3.0,0.0
3401,48.0,480.0,480.0,2.0,0.0
3402,60.0,120.0,240.0,0.0,0.0
3403,64.0,120.0,120.0,0.0,0.0
3404,62.0,0.0,120.0,0.0,0.0
3405,60.0,53.0,1380.0,0.0,0.0
3406,55.0,7.0,1380.0,1.0,0.0
3407,52.0,0.0,1380.0,1.0,0.0
3408,36.0,480.0,15.0,3.0,0.0
3409,48.0,0.0,15.0,2.0,0.0
3410,36.0,420.0,15.0,3.0,0.0
3411,48.0,0.0,480.0,2.0,0.0
3412,60.0,0.0,480.0,0.0,0.0
3413,55.0,0.0,480.0,1.0,0.0
3414,36.0,0.0,480.0,3.0,0.0
3415,52.0,480.0,480.0,1.0,0.0
3416,48.0,0.0,15.0,2.0,0.0
3417,36.0,0.0,480.0,3.0,0.0
3418,59.0,0.0,480.0,1.0,0.0
3419,62.0,480.0,480.0,0.0,0.0
3420,53.0,0.0,480.0,1.0,0.0
3421,36.0,0.0,480.0,3.0,0.0
3422,64.0,480.0,480.0,0.0,0.0
3423,55.0,0.0,480.0,1.0,0.0
3424,58.0,0.0,480.0,1.0,0.0
3425,48.0,0.0,480.0,2.0,0.0
3426,57.0,53.0,900.0,1.0,0.0
3427,60.0,7.0,900.0,1.0,0.0
3428,36.0,0.0,480.0,3.0,0.0
3429,65.0,0.0,900.0,0.0,0.0
3430,36.0,240.0,480.0,3.0,0.0
3431,48.0,420.0,15.0,2.0,0.0
3432,65.0,240.0,240.0,0.0,0.0
3433,48.0,0.0,480.0,3.0,0.0
3434,57.0,0.0,240.0,2.0,0.0
3435,60.0,240.0,480.0,1.0,0.0
3436,56.0,0.0,240.0,2.0,0.0
3437,64.0,0.0,240.0,0.0,0.0
3438,57.0,240.0,240.0,2.0,0.0
3439,65.0,0.0,240.0,0.0,0.0
3440,48.0,0.0,480.0,3.0,0.0
3441,60.0,0.0,480.0,1.0,0.0
3442,52.0,0.0,240.0,2.0,0.0
3443,67.0,240.0,240.0,0.0,0.0
3444,53.0,0.0,240.0,2.0,0.0
3445,60.0,240.0,480.0,1.0,0.0
3446,69.0,240.0,240.0,0.0,0.0
3447,71.0,0.0,240.0,0.0,0.0
3448,48.0,0.0,15.0,3.0,0.0
3449,57.0,0.0,240.0,2.0,0.0
3450,72.0,240.0,240.0,0.0,0.0
3451,53.0,480.0,240.0,2.0,0.0
3452,69.0,0.0,240.0,0.0,0.0
3453,66.0,120.0,720.0,0.0,0.0
3454,60.0,0.0,15.0,1.0,0.0
3455,48.0,0.0,15.0,3.0,0.0
3456,50.0,0.0,960.0,2.0,0.0
3457,48.0,240.0,15.0,3.0,0.0
3458,69.0,120.0,120.0,0.0,0.0
3459,67.0,0.0,15.0,0.0,0.0
3460,52.0,45.0,360.0,2.0,0.0
3461,52.0,533.0,420.0,1.0,0.0
3462,60.0,0.0,15.0,1.0,0.0
3463,48.0,367.0,15.0,3.0,0.0
3464,67.0,0.0,480.0,0.0,0.0
3465,52.0,0.0,480.0,3.0,0.0
3466,62.0,0.0,480.0,1.0,0.0
3467,67.0,480.0,480.0,0.0,0.0
3468,60.0,480.0,15.0,1.0,0.0
3469,50.0,0.0,480.0,3.0,0.0
3470,53.0,0.0,480.0,2.0,0.0
3471,64.0,0.0,480.0,1.0,0.0
3472,60.0,0.0,15.0,1.0,0.0
3473,48.0,0.0,480.0,3.0,0.0
3474,52.0,0.0,480.0,2.0,0.0
3475,67.0,480.0,480.0,0.0,0.0
3476,65.0,0.0,1440.0,1.0,0.0
3477,50.0,480.0,480.0,2.0,0.0
3478,77.0,0.0,1440.0,0.0,0.0
3479,47.0,0.0,15.0,3.0,0.0
3480,50.0,480.0,480.0,2.0,0.0
3481,47.0,0.0,15.0,3.0,0.0
3482,77.0,8.0,480.0,0.0,0.0
3483,65.0,7.0,480.0,1.0,0.0
3484,50.0,465.0,15.0,2.0,0.0
3485,47.0,240.0,480.0,3.0,0.0
3486,52.0,0.0,480.0,2.0,0.0
3487,65.0,0.0,240.0,1.0,0.0
3488,77.0,240.0,240.0,0.0,0.0
3489,76.0,240.0,240.0,0.0,0.0
3490,64.0,0.0,240.0,1.0,0.0
3491,62.0,240.0,240.0,1.0,0.0
3492,48.0,0.0,15.0,3.0,0.0
3493,52.0,0.0,480.0,2.0,0.0
3494,74.0,0.0,240.0,0.0,0.0
3495,60.0,0.0,240.0,1.0,0.0
3496,60.0,0.0,480.0,1.0,0.0
3497,72.0,480.0,15.0,0.0,0.0
3498,71.0,53.0,900.0,0.0,0.0
3499,59.0,0.0,900.0,1.0,0.0
3500,53.0,480.0,15.0,3.0,0.0
3501,53.0,480.0,15.0,3.0,0.0
3502,59.0,0.0,480.0,1.0,0.0
3503,71.0,0.0,480.0,0.0,0.0
3504,60.0,0.0,240.0,1.0,0.0
3505,72.0,40.0,240.0,0.0,0.0
3506,52.0,0.0,480.0,3.0,0.0
3507,60.0,240.0,240.0,1.0,0.0
3508,72.0,40.0,30.0,0.0,0.0
3509,74.0,40.0,30.0,0.0,0.0
3510,72.0,60.0,30.0,0.0,0.0
3511,71.0,60.0,60.0,0.0,0.0
3512,72.0,0.0,60.0,0.0,0.0
3513,74.0,0.0,240.0,0.0,0.0
3514,52.0,0.0,480.0,3.0,0.0
3515,62.0,240.0,240.0,1.0,0.0
3516,76.0,0.0,240.0,0.0,0.0
3517,64.0,480.0,240.0,1.0,0.0
3518,79.0,0.0,480.0,0.0,0.0
3519,67.0,0.0,480.0,1.0,0.0
3520,65.0,7.0,900.0,1.0,0.0
3521,47.0,480.0,15.0,3.0,0.0
3522,77.0,53.0,900.0,0.0,0.0
3523,47.0,420.0,15.0,3.0,0.0
3524,77.0,0.0,480.0,0.0,0.0
3525,74.0,0.0,480.0,1.0,0.0
3526,47.0,240.0,480.0,3.0,0.0
3527,74.0,240.0,240.0,1.0,0.0
3528,77.0,0.0,240.0,0.0,0.0
3529,72.0,0.0,240.0,1.0,0.0
3530,76.0,0.0,240.0,0.0,0.0
3531,71.0,0.0,240.0,1.0,0.0
3532,75.0,240.0,240.0,0.0,0.0
3533,48.0,240.0,15.0,3.0,0.0
3534,72.0,0.0,15.0,1.0,0.0
3535,43.0,7.0,1380.0,3.0,0.0
3536,76.0,960.0,15.0,0.0,0.0
3537,66.0,0.0,480.0,1.0,0.0
3538,67.0,0.0,480.0,1.0,0.0
3539,74.0,0.0,480.0,0.0,0.0
3540,55.0,53.0,420.0,3.0,0.0
3541,71.0,480.0,480.0,1.0,0.0
3542,62.0,480.0,480.0,3.0,0.0
3543,61.0,480.0,480.0,3.0,0.0
3544,60.0,480.0,480.0,3.0,0.0
3545,86.0,0.0,960.0,0.0,0.0
3546,74.0,0.0,960.0,1.0,0.0
3547,59.0,480.0,15.0,3.0,0.0
3548,62.0,0.0,15.0,2.0,0.0
3549,59.0,480.0,480.0,3.0,0.0
3550,62.0,0.0,15.0,2.0,0.0
3551,83.0,480.0,960.0,0.0,0.0
3552,59.0,480.0,480.0,3.0,0.0
3553,71.0,0.0,960.0,1.0,0.0
3554,62.0,0.0,15.0,2.0,0.0
3555,62.0,0.0,15.0,2.0,0.0
3556,59.0,0.0,15.0,3.0,0.0
3557,67.0,0.0,480.0,1.0,0.0
3558,57.0,480.0,480.0,3.0,0.0
3559,60.0,0.0,480.0,2.0,0.0
3560,67.0,0.0,960.0,1.0,0.0
3561,62.0,0.0,15.0,2.0,0.0
3562,79.0,0.0,15.0,0.0,0.0
3563,62.0,0.0,480.0,2.0,0.0
3564,60.0,0.0,480.0,2.0,0.0
3565,66.0,7.0,420.0,1.0,0.0
3566,57.0,420.0,15.0,3.0,0.0
3567,78.0,53.0,420.0,0.0,0.0
3568,60.0,0.0,480.0,2.0,0.0
3569,59.0,0.0,480.0,3.0,0.0
3570,80.0,0.0,480.0,0.0,0.0
3571,62.0,0.0,15.0,2.0,0.0
3572,68.0,0.0,480.0,1.0,0.0
3573,60.0,0.0,480.0,3.0,0.0
3574,81.0,0.0,480.0,0.0,0.0
3575,69.0,480.0,480.0,1.0,0.0
3576,64.0,0.0,480.0,2.0,0.0
3577,62.0,480.0,15.0,2.0,0.0
3578,67.0,0.0,480.0,1.0,0.0
3579,62.0,0.0,15.0,2.0,0.0
3580,79.0,0.0,480.0,0.0,0.0
3581,59.0,0.0,480.0,3.0,0.0
3582,79.0,0.0,960.0,0.0,0.0
3583,57.0,0.0,480.0,3.0,0.0
3584,67.0,420.0,960.0,1.0,0.0
3585,62.0,480.0,15.0,2.0,0.0
3586,62.0,480.0,15.0,2.0,0.0
3587,60.0,0.0,15.0,2.0,0.0
3588,57.0,0.0,480.0,3.0,0.0
3589,60.0,0.0,480.0,2.0,0.0
3590,57.0,0.0,480.0,3.0,0.0
3591,62.0,0.0,15.0,2.0,0.0
3592,78.0,7.0,420.0,0.0,0.0
3593,66.0,53.0,420.0,1.0,0.0
3594,76.0,0.0,480.0,0.0,0.0
3595,59.0,0.0,480.0,2.0,0.0
3596,55.0,0.0,480.0,3.0,0.0
3597,64.0,480.0,480.0,1.0,0.0
3598,57.0,0.0,480.0,2.0,0.0
3599,74.0,0.0,480.0,0.0,0.0
3600,69.0,480.0,480.0,1.0,0.0
3601,54.0,0.0,480.0,3.0,0.0
3602,52.0,0.0,480.0,3.0,0.0
3603,73.0,0.0,480.0,0.0,0.0
3604,61.0,480.0,480.0,1.0,0.0
3605,51.0,0.0,480.0,3.0,0.0
3606,66.0,0.0,1380.0,1.0,0.0
3607,72.0,53.0,1380.0,0.0,0.0
3608,57.0,480.0,15.0,2.0,0.0
3609,51.0,427.0,480.0,3.0,0.0
3610,57.0,0.0,480.0,2.0,0.0
3611,51.0,480.0,480.0,3.0,0.0
3612,39.0,0.0,480.0,3.0,0.0
3613,69.0,480.0,480.0,1.0,0.0
3614,60.0,0.0,960.0,1.0,0.0
3615,65.0,0.0,480.0,1.0,0.0
3616,51.0,0.0,480.0,2.0,0.0
3617,72.0,0.0,960.0,0.0,0.0
3618,52.0,480.0,480.0,2.0,0.0
3619,67.0,0.0,480.0,1.0,0.0
3620,59.0,0.0,480.0,1.0,0.0
3621,67.0,0.0,480.0,1.0,0.0
3622,40.0,0.0,15.0,3.0,0.0
3623,71.0,180.0,480.0,0.0,0.0
3624,52.0,0.0,480.0,2.0,0.0
3625,69.0,132.0,270.0,0.0,0.0
3626,36.0,304.0,420.0,3.0,0.0
3627,64.0,97.0,180.0,1.0,0.0
3628,57.0,7.0,180.0,1.0,0.0
3629,63.0,240.0,480.0,1.0,0.0
3630,75.0,0.0,480.0,0.0,0.0
3631,48.0,0.0,480.0,3.0,0.0
3632,64.0,0.0,480.0,1.0,0.0
3633,76.0,240.0,480.0,0.0,0.0
3634,52.0,0.0,15.0,2.0,0.0
3635,57.0,240.0,15.0,2.0,0.0
3636,48.0,0.0,480.0,3.0,0.0
3637,68.0,0.0,480.0,1.0,0.0
3638,80.0,240.0,480.0,0.0,0.0
3639,57.0,0.0,15.0,2.0,0.0
3640,48.0,240.0,480.0,3.0,0.0
3641,52.0,240.0,15.0,2.0,0.0
3642,69.0,0.0,480.0,1.0,0.0
3643,81.0,240.0,480.0,0.0,0.0
3644,48.0,0.0,480.0,3.0,0.0
3645,87.0,240.0,480.0,0.0,0.0
3646,75.0,0.0,480.0,1.0,0.0
3647,57.0,240.0,15.0,2.0,0.0
3648,48.0,0.0,480.0,3.0,0.0
3649,52.0,0.0,15.0,2.0,0.0
3650,88.0,0.0,480.0,0.0,0.0
3651,76.0,240.0,480.0,1.0,0.0
3652,49.0,0.0,480.0,3.0,0.0
3653,78.0,240.0,480.0,1.0,0.0
3654,90.0,0.0,480.0,0.0,0.0
3655,49.0,0.0,480.0,3.0,0.0
3656,57.0,240.0,15.0,2.0,0.0
3657,79.0,0.0,480.0,1.0,0.0
3658,91.0,240.0,480.0,0.0,0.0
3659,93.0,0.0,480.0,0.0,0.0
3660,81.0,240.0,480.0,1.0,0.0
3661,57.0,0.0,15.0,2.0,0.0
3662,52.0,240.0,15.0,2.0,0.0
3663,49.0,0.0,15.0,3.0,0.0
3664,91.0,0.0,480.0,0.0,0.0
3665,79.0,240.0,480.0,1.0,0.0
3666,57.0,0.0,15.0,2.0,0.0
3667,49.0,240.0,480.0,3.0,0.0
3668,78.0,0.0,480.0,1.0,0.0
3669,90.0,240.0,480.0,0.0,0.0
3670,57.0,240.0,480.0,2.0,0.0
3671,49.0,0.0,480.0,3.0,0.0
3672,88.0,240.0,480.0,0.0,0.0
3673,76.0,0.0,480.0,1.0,0.0
3674,59.0,240.0,480.0,2.0,0.0
3675,50.0,0.0,480.0,3.0,0.0
3676,75.0,240.0,480.0,1.0,0.0
3677,87.0,0.0,480.0,0.0,0.0
3678,86.0,240.0,480.0,0.0,0.0
3679,74.0,0.0,480.0,1.0,0.0
3680,50.0,240.0,15.0,3.0,0.0
3681,59.0,0.0,15.0,2.0,0.0
3682,85.0,0.0,480.0,0.0,0.0
3683,73.0,240.0,480.0,1.0,0.0
3684,50.0,0.0,480.0,3.0,0.0
3685,59.0,240.0,480.0,2.0,0.0
3686,86.0,0.0,480.0,0.0,0.0
3687,74.0,240.0,480.0,1.0,0.0
3688,60.0,0.0,480.0,2.0,0.0
3689,54.0,0.0,480.0,2.0,0.0
3690,50.0,240.0,480.0,3.0,0.0
3691,88.0,0.0,480.0,0.0,0.0
3692,76.0,240.0,480.0,1.0,0.0
3693,60.0,0.0,480.0,2.0,0.0
3694,50.0,240.0,480.0,3.0,0.0
3695,54.0,0.0,480.0,2.0,0.0
3696,74.0,0.0,480.0,1.0,0.0
3697,86.0,240.0,480.0,0.0,0.0
3698,55.0,0.0,480.0,3.0,0.0
3699,72.0,0.0,480.0,1.0,0.0
3700,84.0,240.0,480.0,0.0,0.0
3701,55.0,0.0,480.0,3.0,0.0
3702,59.0,240.0,15.0,2.0,0.0
3703,71.0,240.0,480.0,1.0,0.0
3704,83.0,0.0,480.0,0.0,0.0
3705,55.0,240.0,480.0,3.0,0.0
3706,59.0,240.0,15.0,2.0,0.0
3707,81.0,0.0,480.0,0.0,0.0
3708,69.0,240.0,480.0,1.0,0.0
3709,59.0,0.0,15.0,2.0,0.0
3710,67.0,240.0,480.0,1.0,0.0
3711,79.0,0.0,480.0,0.0,0.0
3712,55.0,240.0,15.0,3.0,0.0
3713,60.0,240.0,480.0,2.0,0.0
3714,57.0,0.0,480.0,2.0,0.0
3715,78.0,240.0,480.0,0.0,0.0
3716,66.0,0.0,480.0,1.0,0.0
3717,55.0,192.0,480.0,3.0,0.0
3718,59.0,0.0,480.0,2.0,0.0
3719,62.0,0.0,480.0,2.0,0.0
3720,77.0,0.0,240.0,0.0,0.0
3721,65.0,0.0,240.0,1.0,0.0
3722,64.0,240.0,180.0,1.0,0.0
3723,67.0,48.0,180.0,1.0,0.0
3724,48.0,192.0,15.0,3.0,0.0
3725,72.0,240.0,180.0,1.0,0.0
3726,60.0,0.0,15.0,2.0,0.0
3727,67.0,48.0,180.0,1.0,0.0
3728,64.0,240.0,180.0,1.0,0.0
3729,60.0,0.0,480.0,2.0,0.0
3730,48.0,192.0,15.0,3.0,0.0
3731,67.0,48.0,180.0,1.0,0.0
3732,72.0,240.0,180.0,1.0,0.0
3733,60.0,0.0,480.0,2.0,0.0
3734,48.0,192.0,15.0,3.0,0.0
3735,67.0,48.0,180.0,1.0,0.0
3736,76.0,0.0,15.0,0.0,0.0
3737,64.0,48.0,180.0,1.0,0.0
3738,53.0,0.0,480.0,2.0,0.0
3739,48.0,192.0,15.0,3.0,0.0
3740,74.0,192.0,240.0,0.0,0.0
3741,71.0,48.0,180.0,1.0,0.0
3742,59.0,0.0,15.0,2.0,0.0
3743,65.0,48.0,180.0,1.0,0.0
3744,53.0,0.0,480.0,2.0,0.0
3745,72.0,120.0,240.0,0.0,0.0
3746,71.0,48.0,180.0,1.0,0.0
3747,76.0,72.0,120.0,0.0,0.0
3748,74.0,0.0,120.0,0.0,0.0
3749,60.0,0.0,480.0,2.0,0.0
3750,72.0,5.0,1380.0,0.0,0.0
3751,48.0,0.0,15.0,3.0,0.0
3752,64.0,240.0,180.0,1.0,0.0
3753,67.0,48.0,180.0,1.0,0.0
3754,48.0,0.0,15.0,3.0,0.0
3755,64.0,240.0,180.0,1.0,0.0
3756,52.0,192.0,15.0,2.0,0.0
3757,67.0,48.0,180.0,1.0,0.0
3758,52.0,192.0,15.0,2.0,0.0
3759,60.0,0.0,15.0,2.0,0.0
3760,64.0,235.0,180.0,1.0,0.0
3761,48.0,0.0,15.0,3.0,0.0
3762,67.0,48.0,180.0,1.0,0.0
3763,60.0,0.0,480.0,2.0,0.0
3764,52.0,0.0,15.0,2.0,0.0
3765,64.0,8.0,180.0,1.0,0.0
3766,48.0,40.0,15.0,3.0,0.0
3767,72.0,40.0,30.0,0.0,0.0
3768,74.0,40.0,30.0,0.0,0.0
3769,72.0,40.0,30.0,0.0,0.0
3770,74.0,32.0,30.0,0.0,0.0
3771,72.0,40.0,30.0,0.0,0.0
3772,74.0,40.0,30.0,0.0,0.0
3773,72.0,40.0,30.0,0.0,0.0
3774,67.0,48.0,180.0,1.0,0.0
3775,74.0,40.0,30.0,0.0,0.0
3776,72.0,60.0,30.0,0.0,0.0
3777,71.0,12.0,60.0,0.0,0.0
3778,72.0,192.0,60.0,0.0,0.0
3779,59.0,0.0,480.0,2.0,0.0
3780,74.0,0.0,480.0,0.0,0.0
3781,65.0,240.0,180.0,1.0,0.0
3782,53.0,0.0,480.0,2.0,0.0
3783,71.0,48.0,180.0,1.0,0.0
3784,67.0,240.0,180.0,1.0,0.0
3785,76.0,0.0,480.0,0.0,0.0
3786,58.0,0.0,480.0,2.0,0.0
3787,48.0,192.0,15.0,3.0,0.0
3788,70.0,48.0,180.0,1.0,0.0
3789,69.0,240.0,180.0,1.0,0.0
3790,48.0,192.0,15.0,3.0,0.0
3791,53.0,0.0,480.0,2.0,0.0
3792,72.0,48.0,180.0,1.0,0.0
3793,57.0,192.0,15.0,2.0,0.0
3794,72.0,240.0,180.0,1.0,0.0
3795,72.0,48.0,180.0,1.0,0.0
3796,65.0,0.0,180.0,1.0,0.0
3797,60.0,0.0,15.0,2.0,0.0
3798,57.0,0.0,15.0,2.0,0.0
3799,72.0,48.0,180.0,1.0,0.0
3800,77.0,192.0,15.0,0.0,0.0
3801,48.0,0.0,15.0,3.0,0.0
3802,64.0,0.0,180.0,1.0,0.0
3803,72.0,48.0,180.0,1.0,0.0
3804,56.0,192.0,240.0,2.0,0.0
3805,60.0,0.0,240.0,2.0,0.0
3806,76.0,0.0,180.0,0.0,0.0
3807,72.0,48.0,180.0,1.0,0.0
3808,65.0,0.0,180.0,1.0,0.0
3809,48.0,0.0,15.0,3.0,0.0
3810,77.0,0.0,180.0,0.0,0.0
3811,57.0,0.0,240.0,2.0,0.0
3812,60.0,192.0,240.0,2.0,0.0
3813,67.0,48.0,180.0,1.0,0.0
3814,52.0,0.0,240.0,2.0,0.0
3815,60.0,0.0,240.0,2.0,0.0
3816,79.0,0.0,180.0,0.0,0.0
3817,72.0,0.0,180.0,1.0,0.0
3818,81.0,0.0,180.0,0.0,0.0
3819,48.0,192.0,15.0,3.0,0.0
3820,53.0,0.0,240.0,2.0,0.0
3821,72.0,48.0,180.0,1.0,0.0
3822,69.0,0.0,180.0,1.0,0.0
3823,72.0,48.0,180.0,1.0,0.0
3824,60.0,192.0,15.0,2.0,0.0
3825,83.0,0.0,180.0,0.0,0.0
3826,71.0,0.0,180.0,1.0,0.0
3827,57.0,0.0,240.0,2.0,0.0
3828,72.0,0.0,180.0,1.0,0.0
3829,84.0,48.0,180.0,0.0,0.0
3830,48.0,0.0,480.0,3.0,0.0
3831,72.0,48.0,180.0,1.0,0.0
3832,69.0,0.0,180.0,1.0,0.0
3833,53.0,0.0,240.0,2.0,0.0
3834,60.0,192.0,15.0,2.0,0.0
3835,81.0,0.0,180.0,0.0,0.0
3836,60.0,480.0,15.0,2.0,0.0
3837,48.0,0.0,480.0,3.0,0.0
3838,51.0,0.0,960.0,2.0,0.0
3839,78.0,120.0,720.0,0.0,0.0
3840,66.0,0.0,960.0,1.0,0.0
3841,60.0,240.0,15.0,2.0,0.0
3842,81.0,120.0,120.0,0.0,0.0
3843,67.0,0.0,420.0,1.0,0.0
3844,48.0,0.0,15.0,3.0,0.0
3845,72.0,0.0,15.0,1.0,0.0
3846,60.0,0.0,420.0,2.0,0.0
3847,52.0,533.0,420.0,2.0,0.0
3848,79.0,420.0,15.0,0.0,0.0
3849,72.0,0.0,480.0,1.0,0.0
3850,64.0,0.0,480.0,3.0,0.0
3851,67.0,0.0,480.0,2.0,0.0
3852,74.0,0.0,480.0,1.0,0.0
3853,71.0,0.0,480.0,1.0,0.0
3854,79.0,480.0,15.0,0.0,0.0
3855,62.0,0.0,480.0,3.0,0.0
3856,65.0,0.0,480.0,2.0,0.0
3857,72.0,0.0,480.0,1.0,0.0
3858,76.0,0.0,480.0,1.0,0.0
3859,64.0,0.0,480.0,2.0,0.0
3860,67.0,480.0,15.0,2.0,0.0
3861,79.0,0.0,15.0,0.0,0.0
3862,60.0,480.0,480.0,3.0,0.0
3863,62.0,0.0,15.0,2.0,0.0
3864,67.0,0.0,15.0,2.0,0.0
3865,59.0,480.0,15.0,3.0,0.0
3866,59.0,480.0,15.0,3.0,0.0
3867,67.0,0.0,15.0,2.0,0.0
3868,89.0,0.0,15.0,0.0,0.0
3869,77.0,0.0,15.0,1.0,0.0
3870,59.0,0.0,480.0,3.0,0.0
3871,62.0,480.0,15.0,2.0,0.0
3872,89.0,0.0,15.0,0.0,0.0
3873,77.0,0.0,240.0,1.0,0.0
3874,60.0,240.0,480.0,3.0,0.0
3875,76.0,0.0,240.0,1.0,0.0
3876,88.0,0.0,240.0,0.0,0.0
3877,67.0,0.0,15.0,2.0,0.0
3878,64.0,0.0,15.0,2.0,0.0
3879,60.0,0.0,480.0,3.0,0.0
3880,86.0,0.0,240.0,0.0,0.0
3881,74.0,240.0,240.0,1.0,0.0
3882,72.0,0.0,240.0,1.0,0.0
3883,84.0,0.0,15.0,0.0,0.0
3884,67.0,0.0,15.0,2.0,0.0
3885,72.0,0.0,480.0,1.0,0.0
3886,83.0,0.0,960.0,0.0,0.0
3887,65.0,480.0,15.0,3.0,0.0
3888,65.0,480.0,15.0,3.0,0.0
3889,67.0,0.0,15.0,2.0,0.0
3890,83.0,192.0,480.0,0.0,0.0
3891,71.0,0.0,15.0,1.0,0.0
3892,65.0,480.0,15.0,3.0,0.0
3893,67.0,0.0,480.0,2.0,0.0
3894,64.0,0.0,480.0,3.0,0.0
3895,84.0,88.0,180.0,0.0,0.0
3896,72.0,0.0,180.0,1.0,0.0
3897,67.0,0.0,480.0,2.0,0.0
3898,72.0,0.0,240.0,1.0,0.0
3899,84.0,40.0,30.0,0.0,0.0
3900,86.0,40.0,30.0,0.0,0.0
3901,84.0,60.0,30.0,0.0,0.0
3902,83.0,60.0,60.0,0.0,0.0
3903,84.0,240.0,60.0,0.0,0.0
3904,70.0,0.0,480.0,3.0,0.0
3905,74.0,0.0,240.0,1.0,0.0
3906,86.0,240.0,240.0,0.0,0.0
3907,76.0,0.0,240.0,1.0,0.0
3908,88.0,0.0,240.0,0.0,0.0
3909,77.0,0.0,180.0,1.0,0.0
3910,72.0,192.0,15.0,2.0,0.0
3911,69.0,0.0,480.0,3.0,0.0
3912,89.0,88.0,180.0,0.0,0.0
3913,77.0,240.0,240.0,1.0,0.0
3914,89.0,40.0,30.0,0.0,0.0
3915,91.0,40.0,30.0,0.0,0.0
3916,89.0,60.0,30.0,0.0,0.0
3917,88.0,60.0,60.0,0.0,0.0
3918,89.0,0.0,60.0,0.0,0.0
3919,65.0,240.0,480.0,3.0,0.0
3920,72.0,0.0,15.0,2.0,0.0
3921,77.0,0.0,480.0,2.0,0.0
3922,79.0,0.0,240.0,1.0,0.0
3923,91.0,192.0,240.0,0.0,0.0
3924,93.0,48.0,180.0,0.0,0.0
3925,81.0,0.0,180.0,1.0,0.0
3926,76.0,0.0,480.0,2.0,0.0
3927,67.0,0.0,480.0,3.0,0.0
3928,81.0,240.0,240.0,1.0,0.0
3929,93.0,0.0,240.0,0.0,0.0
3930,72.0,0.0,480.0,2.0,0.0
3931,79.0,0.0,240.0,1.0,0.0
3932,91.0,240.0,240.0,0.0,0.0
3933,64.0,240.0,480.0,2.0,0.0
3934,60.0,0.0,480.0,2.0,0.0
3935,78.0,240.0,240.0,1.0,0.0
3936,90.0,0.0,240.0,0.0,0.0
3937,91.0,0.0,480.0,0.0,0.0
3938,65.0,0.0,480.0,2.0,0.0
3939,55.0,0.0,15.0,3.0,0.0
3940,79.0,240.0,15.0,1.0,0.0
3941,91.0,240.0,240.0,0.0,0.0
3942,78.0,240.0,240.0,1.0,0.0
3943,59.0,0.0,15.0,2.0,0.0
3944,62.0,0.0,480.0,2.0,0.0
3945,90.0,0.0,240.0,0.0,0.0
3946,55.0,0.0,15.0,3.0,0.0
3947,65.0,0.0,480.0,2.0,0.0
3948,91.0,0.0,480.0,0.0,0.0
3949,79.0,240.0,480.0,1.0,0.0
3950,60.0,0.0,480.0,3.0,0.0
3951,64.0,480.0,480.0,2.0,0.0
3952,84.0,0.0,240.0,0.0,0.0
3953,72.0,0.0,240.0,1.0,0.0
3954,52.0,0.0,480.0,2.0,0.0
3955,48.0,480.0,15.0,3.0,0.0
3956,52.0,0.0,480.0,2.0,0.0
3957,47.0,0.0,1440.0,3.0,0.0
3958,50.0,120.0,1440.0,2.0,0.0
3959,45.0,95.0,960.0,3.0,0.0
3960,48.0,0.0,960.0,2.0,0.0
3961,50.0,60.0,60.0,0.0,0.0
3962,48.0,60.0,60.0,0.0,0.0
3963,47.0,60.0,60.0,0.0,0.0
3964,48.0,60.0,60.0,0.0,0.0
3965,50.0,60.0,60.0,0.0,0.0
3966,52.0,60.0,60.0,0.0,0.0
3967,54.0,60.0,60.0,0.0,0.0
3968,55.0,60.0,60.0,0.0,0.0
3969,57.0,60.0,60.0,0.0,0.0
3970,59.0,60.0,60.0,0.0,0.0
3971,60.0,60.0,60.0,0.0,0.0
3972,62.0,60.0,60.0,0.0,0.0
3973,64.0,60.0,60.0,0.0,0.0
3974,66.0,60.0,60.0,0.0,0.0
3975,67.0,0.0,60.0,0.0,0.0
3976,43.0,30.0,960.0,3.0,0.0
3977,52.0,0.0,960.0,2.0,0.0
3978,47.0,0.0,960.0,2.0,0.0
3979,69.0,75.0,90.0,0.0,0.0
3980,71.0,80.0,90.0,0.0,0.0
3981,72.0,80.0,90.0,0.0,0.0
3982,74.0,75.0,90.0,0.0,0.0
3983,76.0,85.0,90.0,0.0,0.0
3984,78.0,80.0,90.0,0.0,0.0
3985,79.0,75.0,90.0,0.0,0.0
3986,81.0,85.0,90.0,0.0,0.0
3987,83.0,100.0,90.0,0.0,0.0
3988,84.0,40.0,120.0,0.0,0.0
3989,83.0,90.0,60.0,0.0,0.0
3990,83.0,80.0,120.0,0.0,0.0
3991,45.0,30.0,1920.0,2.0,0.0
3992,84.0,95.0,120.0,0.0,0.0
3993,42.0,0.0,1920.0,3.0,0.0
3994,50.0,0.0,1920.0,2.0,0.0
3995,83.0,65.0,120.0,0.0,0.0
3996,84.0,80.0,120.0,0.0,0.0
3997,83.0,80.0,120.0,0.0,0.0
3998,84.0,80.0,120.0,0.0,0.0
3999,83.0,80.0,120.0,0.0,0.0
4000,84.0,80.0,120.0,0.0,0.0
4001,83.0,80.0,120.0,0.0,0.0
4002,84.0,95.0,120.0,0.0,0.0
4003,83.0,65.0,120.0,0.0,0.0
4004,84.0,80.0,120.0,0.0,0.0
4005,83.0,80.0,120.0,0.0,0.0
4006,84.0,80.0,120.0,0.0,0.0
4007,83.0,40.0,120.0,0.0,0.0
4008,84.0,80.0,120.0,0.0,0.0
4009,83.0,80.0,120.0,0.0,0.0
4010,84.0,80.0,120.0,0.0,0.0
4011,83.0,80.0,120.0,0.0,0.0
4012,84.0,135.0,120.0,0.0,0.0
4013,83.0,65.0,120.0,0.0,0.0
4014,84.0,80.0,120.0,0.0,0.0
4015,83.0,80.0,120.0,0.0,0.0
4016,84.0,50.0,120.0,0.0,0.0
4017,83.0,80.0,120.0,0.0,0.0
4018,84.0,80.0,120.0,0.0,0.0
4019,83.0,80.0,120.0,0.0,0.0
4020,84.0,95.0,120.0,0.0,0.0
4021,83.0,65.0,120.0,0.0,0.0
4022,84.0,80.0,120.0,0.0,0.0
4023,83.0,80.0,120.0,0.0,0.0
4024,84.0,80.0,120.0,0.0,0.0
4025,83.0,80.0,120.0,0.0,0.0
4026,84.0,80.0,120.0,0.0,0.0
4027,83.0,80.0,120.0,0.0,0.0
4028,84.0,55.0,120.0,0.0,0.0
4029,83.0,65.0,120.0,0.0,0.0
4030,84.0,80.0,120.0,0.0,0.0
4031,83.0,80.0,120.0,0.0,0.0
4032,84.0,80.0,120.0,0.0,0.0
4033,83.0,80.0,120.0,0.0,0.0
4034,84.0,80.0,120.0,0.0,0.0
4035,83.0,80.0,120.0,0.0,0.0
4036,84.0,55.0,120.0,0.0,0.0
4037,83.0,65.0,120.0,0.0,0.0
4038,84.0,80.0,120.0,0.0,0.0
4039,83.0,80.0,120.0,0.0,0.0
4040,84.0,80.0,120.0,0.0,0.0
4041,83.0,80.0,120.0,0.0,0.0
4042,84.0,80.0,120.0,0.0,0.0
4043,83.0,80.0,120.0,0.0,0.0
4044,84.0,55.0,120.0,0.0,0.0
4045,83.0,65.0,120.0,0.0,0.0
4046,84.0,80.0,120.0,0.0,0.0
4047,83.0,80.0,120.0,0.0,0.0
4048,84.0,80.0,120.0,0.0,0.0
4049,83.0,80.0,120.0,0.0,0.0
4050,84.0,80.0,120.0,0.0,0.0
4051,83.0,80.0,120.0,0.0,0.0
4052,84.0,55.0,120.0,0.0,0.0
4053,83.0,65.0,120.0,0.0,0.0
4054,84.0,80.0,120.0,0.0,0.0
4055,83.0,80.0,120.0,0.0,0.0
4056,84.0,80.0,120.0,0.0,0.0
4057,83.0,80.0,120.0,0.0,0.0
4058,54.0,30.0,1920.0,3.0,0.0
4059,57.0,0.0,1920.0,2.0,0.0
4060,62.0,0.0,1920.0,2.0,0.0
4061,84.0,80.0,120.0,0.0,0.0
4062,86.0,80.0,120.0,0.0,0.0
4063,84.0,80.0,120.0,0.0,0.0
4064,86.0,80.0,120.0,0.0,0.0
4065,84.0,80.0,120.0,0.0,0.0
4066,86.0,80.0,120.0,0.0,0.0
4067,84.0,80.0,120.0,0.0,0.0
4068,86.0,80.0,120.0,0.0,0.0
4069,84.0,80.0,120.0,0.0,0.0
4070,86.0,80.0,120.0,0.0,0.0
4071,84.0,80.0,120.0,0.0,0.0
4072,86.0,80.0,120.0,0.0,0.0
4073,84.0,80.0,120.0,0.0,0.0
4074,86.0,80.0,120.0,0.0,0.0
4075,84.0,80.0,120.0,0.0,0.0
4076,86.0,80.0,120.0,0.0,0.0
4077,84.0,80.0,120.0,0.0,0.0
4078,86.0,80.0,120.0,0.0,0.0
4079,84.0,80.0,120.0,0.0,0.0
4080,86.0,80.0,120.0,0.0,0.0
4081,84.0,80.0,120.0,0.0,0.0
4082,86.0,50.0,120.0,0.0,0.0
4083,84.0,80.0,120.0,0.0,0.0
4084,86.0,80.0,120.0,0.0,0.0
4085,84.0,80.0,120.0,0.0,0.0
4086,86.0,125.0,120.0,0.0,0.0
4087,84.0,245.0,150.0,0.0,0.0
4088,83.0,240.0,240.0,0.0,0.0
4089,84.0,240.0,240.0,0.0,0.0
4090,86.0,240.0,240.0,0.0,0.0
4091,84.0,240.0,240.0,0.0,0.0
4092,83.0,240.0,240.0,0.0,0.0
4093,81.0,240.0,240.0,0.0,0.0
4094,80.0,240.0,240.0,0.0,0.0
4095,81.0,240.0,240.0,0.0,0.0
4096,83.0,240.0,240.0,0.0,0.0
4097,81.0,240.0,240.0,0.0,0.0
4098,79.0,240.0,240.0,0.0,0.0
4099,78.0,240.0,240.0,0.0,0.0
4100,77.0,240.0,240.0,0.0,0.0
4101,78.0,240.0,240.0,0.0,0.0
4102,79.0,240.0,240.0,0.0,0.0
4103,78.0,240.0,240.0,0.0,0.0
4104,76.0,240.0,240.0,0.0,0.0
4105,74.0,240.0,240.0,0.0,0.0
4106,73.0,240.0,240.0,0.0,0.0
4107,74.0,240.0,240.0,0.0,0.0
4108,75.0,240.0,240.0,0.0,0.0
4109,76.0,240.0,240.0,0.0,0.0
4110,71.0,480.0,240.0,0.0,0.0
4111,74.0,480.0,480.0,0.0,0.0
4112,73.0,480.0,480.0,0.0,0.0
4113,72.0,2040.0,480.0,0.0,0.0
4114,50.0,360.0,120.0,0.0,0.0
4115,55.0,120.0,480.0,0.0,0.0
4116,43.0,120.0,120.0,3.0,0.0
4117,45.0,120.0,120.0,3.0,0.0
4118,47.0,0.0,120.0,3.0,0.0
4119,52.0,120.0,480.0,0.0,0.0
4120,48.0,120.0,120.0,3.0,0.0
4121,47.0,120.0,120.0,3.0,0.0
4122,45.0,120.0,120.0,3.0,0.0
4123,43.0,0.0,120.0,3.0,0.0
4124,42.0,120.0,120.0,3.0,0.0
4125,50.0,40.0,240.0,0.0,0.0
4126,40.0,19.0,180.0,3.0,0.0
4127,42.0,0.0,120.0,3.0,0.0
4128,48.0,21.0,30.0,0.0,0.0
4129,50.0,40.0,30.0,0.0,0.0
4130,48.0,60.0,30.0,0.0,0.0
4131,38.0,120.0,120.0,3.0,0.0
4132,47.0,60.0,60.0,0.0,0.0
4133,48.0,0.0,60.0,0.0,0.0
4134,47.0,0.0,480.0,0.0,0.0
4135,43.0,120.0,120.0,3.0,0.0
4136,42.0,120.0,120.0,3.0,0.0
4137,43.0,120.0,120.0,3.0,0.0
4138,44.0,120.0,120.0,3.0,0.0
4139,48.0,0.0,120.0,0.0,0.0
4140,45.0,120.0,120.0,3.0,0.0
4141,50.0,120.0,120.0,0.0,0.0
4142,47.0,0.0,120.0,3.0,0.0
4143,48.0,120.0,120.0,3.0,0.0
4144,52.0,0.0,120.0,0.0,0.0
4145,54.0,0.0,120.0,0.0,0.0
4146,50.0,120.0,120.0,3.0,0.0
4147,55.0,120.0,120.0,0.0,0.0
4148,52.0,0.0,120.0,3.0,0.0
4149,57.0,120.0,120.0,0.0,0.0
4150,54.0,0.0,120.0,3.0,0.0
4151,59.0,0.0,120.0,0.0,0.0
4152,55.0,120.0,120.0,3.0,0.0
4153,61.0,0.0,120.0,0.0,0.0
4154,52.0,120.0,120.0,3.0,0.0
4155,54.0,0.0,120.0,3.0,0.0
4156,62.0,120.0,120.0,0.0,0.0
4157,64.0,120.0,120.0,0.0,0.0
4158,55.0,0.0,120.0,3.0,0.0
4159,61.0,0.0,120.0,0.0,0.0
4160,57.0,120.0,120.0,3.0,0.0
4161,57.0,120.0,120.0,0.0,0.0
4162,55.0,0.0,120.0,3.0,0.0
4163,54.0,120.0,120.0,3.0,0.0
4164,62.0,0.0,120.0,0.0,0.0
4165,52.0,120.0,120.0,3.0,0.0
4166,62.0,120.0,120.0,0.0,0.0
4167,74.0,0.0,120.0,0.0,0.0
4168,62.0,0.0,120.0,1.0,0.0
4169,50.0,0.0,120.0,3.0,0.0
4170,48.0,120.0,120.0,3.0,0.0
4171,47.0,120.0,120.0,3.0,0.0
4172,79.0,0.0,480.0,0.0,0.0
4173,67.0,0.0,480.0,1.0,0.0
4174,55.0,120.0,120.0,3.0,0.0
4175,57.0,120.0,120.0,3.0,0.0
4176,59.0,120.0,120.0,3.0,0.0
4177,76.0,120.0,480.0,0.0,0.0
4178,60.0,120.0,120.0,3.0,0.0
4179,64.0,0.0,480.0,1.0,0.0
4180,59.0,120.0,120.0,3.0,0.0
4181,57.0,120.0,120.0,3.0,0.0
4182,55.0,0.0,120.0,3.0,0.0
4183,54.0,120.0,120.0,3.0,0.0
4184,74.0,40.0,240.0,0.0,0.0
4185,52.0,0.0,120.0,3.0,0.0
4186,72.0,40.0,30.0,0.0,0.0
4187,54.0,60.0,120.0,3.0,0.0
4188,74.0,40.0,30.0,0.0,0.0
4189,72.0,0.0,30.0,0.0,0.0
4190,50.0,120.0,120.0,3.0,0.0
4191,71.0,60.0,60.0,0.0,0.0
4192,72.0,0.0,60.0,0.0,0.0
4193,71.0,0.0,480.0,0.0,0.0
4194,55.0,120.0,120.0,3.0,0.0
4195,54.0,120.0,120.0,3.0,0.0
4196,55.0,120.0,120.0,3.0,0.0
4197,56.0,120.0,120.0,3.0,0.0
4198,72.0,0.0,120.0,0.0,0.0
4199,57.0,120.0,120.0,3.0,0.0
4200,59.0,0.0,120.0,3.0,0.0
4201,74.0,120.0,120.0,0.0,0.0
4202,76.0,0.0,120.0,0.0,0.0
4203,60.0,120.0,120.0,3.0,0.0
4204,78.0,0.0,120.0,0.0,0.0
4205,62.0,120.0,120.0,3.0,0.0
4206,64.0,120.0,120.0,3.0,0.0
4207,79.0,0.0,120.0,0.0,0.0
4208,66.0,0.0,120.0,3.0,0.0
4209,81.0,120.0,120.0,0.0,0.0
4210,83.0,0.0,120.0,0.0,0.0
4211,67.0,120.0,120.0,3.0,0.0
4212,84.0,120.0,120.0,0.0,0.0
4213,69.0,0.0,120.0,3.0,0.0
4214,62.0,0.0,480.0,3.0,0.0
4215,86.0,120.0,120.0,0.0,0.0
4216,71.0,0.0,120.0,3.0,0.0
4217,72.0,0.0,120.0,3.0,0.0
4218,88.0,120.0,120.0,0.0,0.0
4219,84.0,0.0,120.0,0.0,0.0
4220,69.0,120.0,120.0,3.0,0.0
4221,66.0,120.0,120.0,3.0,0.0
4222,81.0,0.0,120.0,0.0,0.0
4223,79.0,0.0,120.0,0.0,0.0
4224,55.0,0.0,120.0,3.0,0.0
4225,67.0,480.0,120.0,3.0,0.0
4226,54.0,132.0,210.0,3.0,0.0
4227,74.0,96.0,120.0,0.0,0.0
4228,62.0,12.0,240.0,2.0,0.0
4229,78.0,96.0,120.0,0.0,0.0
4230,66.0,0.0,120.0,1.0,0.0
4231,57.0,132.0,210.0,3.0,0.0
4232,62.0,108.0,240.0,2.0,0.0
4233,69.0,108.0,480.0,1.0,0.0
4234,81.0,0.0,480.0,0.0,0.0
4235,60.0,132.0,210.0,3.0,0.0
4236,62.0,108.0,240.0,2.0,0.0
4237,60.0,24.0,210.0,3.0,0.0
4238,62.0,12.0,240.0,2.0,0.0
4239,57.0,132.0,210.0,3.0,0.0
4240,66.0,0.0,120.0,1.0,0.0
4241,78.0,96.0,120.0,0.0,0.0
4242,62.0,12.0,240.0,2.0,0.0
4243,60.0,132.0,210.0,3.0,0.0
4244,69.0,96.0,120.0,1.0,0.0
4245,81.0,0.0,120.0,0.0,0.0
4246,62.0,108.0,240.0,2.0,0.0
4247,64.0,132.0,210.0,3.0,0.0
4248,84.0,0.0,720.0,0.0,0.0
4249,72.0,108.0,720.0,1.0,0.0
4250,62.0,108.0,240.0,2.0,0.0
4251,64.0,132.0,210.0,3.0,0.0
4252,62.0,108.0,240.0,2.0,0.0
4253,64.0,24.0,210.0,3.0,0.0
4254,62.0,12.0,240.0,2.0,0.0
4255,83.0,0.0,120.0,0.0,0.0
4256,64.0,132.0,210.0,3.0,0.0
4257,71.0,96.0,120.0,1.0,0.0
4258,62.0,12.0,240.0,2.0,0.0
4259,81.0,0.0,120.0,0.0,0.0
4260,60.0,132.0,210.0,3.0,0.0
4261,69.0,96.0,120.0,1.0,0.0
4262,62.0,12.0,240.0,2.0,0.0
4263,59.0,132.0,210.0,3.0,0.0
4264,79.0,0.0,120.0,0.0,0.0
4265,67.0,96.0,120.0,1.0,0.0
4266,62.0,12.0,240.0,2.0,0.0
4267,57.0,132.0,210.0,3.0,0.0
4268,78.0,0.0,120.0,0.0,0.0
4269,66.0,96.0,120.0,1.0,0.0
4270,62.0,12.0,240.0,2.0,0.0
4271,59.0,132.0,210.0,3.0,0.0
4272,79.0,96.0,120.0,0.0,0.0
4273,67.0,0.0,120.0,1.0,0.0
4274,62.0,12.0,240.0,2.0,0.0
4275,55.0,132.0,210.0,3.0,0.0
4276,64.0,96.0,120.0,1.0,0.0
4277,76.0,0.0,120.0,0.0,0.0
4278,62.0,12.0,240.0,2.0,0.0
4279,73.0,96.0,120.0,0.0,0.0
4280,52.0,132.0,210.0,3.0,0.0
4281,62.0,12.0,240.0,2.0,0.0
4282,74.0,96.0,120.0,0.0,0.0
4283,54.0,132.0,210.0,3.0,0.0
4284,62.0,12.0,240.0,2.0,0.0
4285,57.0,132.0,210.0,3.0,0.0
4286,66.0,0.0,120.0,1.0,0.0
4287,78.0,96.0,120.0,0.0,0.0
4288,62.0,108.0,240.0,2.0,0.0
4289,69.0,108.0,480.0,1.0,0.0
4290,60.0,132.0,210.0,3.0,0.0
4291,81.0,0.0,480.0,0.0,0.0
4292,62.0,108.0,240.0,2.0,0.0
4293,60.0,24.0,210.0,3.0,0.0
4294,62.0,12.0,240.0,2.0,0.0
4295,57.0,132.0,210.0,3.0,0.0
4296,66.0,0.0,120.0,1.0,0.0
4297,78.0,96.0,120.0,0.0,0.0
4298,62.0,12.0,240.0,2.0,0.0
4299,81.0,0.0,120.0,0.0,0.0
4300,60.0,132.0,210.0,3.0,0.0
4301,69.0,96.0,120.0,1.0,0.0
4302,62.0,108.0,240.0,2.0,0.0
4303,64.0,132.0,210.0,3.0,0.0
4304,84.0,108.0,720.0,0.0,0.0
4305,72.0,0.0,720.0,1.0,0.0
4306,62.0,108.0,240.0,2.0,0.0
4307,64.0,132.0,210.0,3.0,0.0
4308,62.0,108.0,240.0,2.0,0.0
4309,64.0,24.0,210.0,3.0,0.0
4310,62.0,12.0,240.0,2.0,0.0
4311,64.0,132.0,210.0,3.0,0.0
4312,71.0,0.0,120.0,1.0,0.0
4313,83.0,96.0,120.0,0.0,0.0
4314,62.0,12.0,240.0,2.0,0.0
4315,60.0,132.0,210.0,3.0,0.0
4316,69.0,0.0,120.0,1.0,0.0
4317,81.0,96.0,120.0,0.0,0.0
4318,62.0,12.0,240.0,2.0,0.0
4319,59.0,132.0,210.0,3.0,0.0
4320,67.0,96.0,120.0,1.0,0.0
4321,79.0,0.0,120.0,0.0,0.0
4322,62.0,12.0,240.0,2.0,0.0
4323,76.0,0.0,120.0,0.0,0.0
4324,50.0,0.0,210.0,3.0,0.0
4325,60.0,132.0,210.0,3.0,0.0
4326,64.0,96.0,120.0,1.0,0.0
4327,62.0,12.0,240.0,2.0,0.0
4328,78.0,96.0,120.0,0.0,0.0
4329,57.0,0.0,210.0,3.0,0.0
4330,50.0,24.0,210.0,3.0,0.0
4331,66.0,0.0,120.0,1.0,0.0
4332,62.0,120.0,120.0,2.0,0.0
4333,79.0,0.0,120.0,0.0,0.0
4334,67.0,120.0,120.0,1.0,0.0
4335,59.0,0.0,120.0,3.0,0.0
4336,55.0,120.0,240.0,3.0,0.0
4337,62.0,0.0,120.0,3.0,0.0
4338,59.0,120.0,120.0,3.0,0.0
4339,55.0,120.0,120.0,3.0,0.0
4340,54.0,120.0,210.0,3.0,0.0
4341,74.0,96.0,120.0,0.0,0.0
4342,62.0,24.0,210.0,2.0,0.0
4343,66.0,0.0,120.0,1.0,0.0
4344,78.0,96.0,120.0,0.0,0.0
4345,57.0,120.0,210.0,3.0,0.0
4346,62.0,120.0,210.0,2.0,0.0
4347,60.0,120.0,210.0,3.0,0.0
4348,69.0,0.0,480.0,1.0,0.0
4349,81.0,96.0,480.0,0.0,0.0
4350,62.0,120.0,210.0,2.0,0.0
4351,60.0,24.0,210.0,3.0,0.0
4352,62.0,24.0,210.0,2.0,0.0
4353,78.0,96.0,120.0,0.0,0.0
4354,57.0,120.0,210.0,3.0,0.0
4355,66.0,0.0,120.0,1.0,0.0
4356,62.0,24.0,210.0,2.0,0.0
4357,60.0,120.0,210.0,3.0,0.0
4358,69.0,0.0,120.0,1.0,0.0
4359,81.0,96.0,120.0,0.0,0.0
4360,62.0,120.0,210.0,2.0,0.0
4361,72.0,96.0,720.0,1.0,0.0
4362,64.0,120.0,210.0,3.0,0.0
4363,84.0,0.0,720.0,0.0,0.0
4364,62.0,120.0,210.0,2.0,0.0
4365,64.0,120.0,210.0,3.0,0.0
4366,62.0,120.0,210.0,2.0,0.0
4367,64.0,24.0,210.0,3.0,0.0
4368,62.0,24.0,210.0,2.0,0.0
4369,83.0,0.0,120.0,0.0,0.0
4370,64.0,120.0,210.0,3.0,0.0
4371,71.0,96.0,120.0,1.0,0.0
4372,62.0,24.0,210.0,2.0,0.0
4373,69.0,96.0,120.0,1.0,0.0
4374,81.0,0.0,120.0,0.0,0.0
4375,60.0,120.0,210.0,3.0,0.0
4376,62.0,24.0,210.0,2.0,0.0
4377,59.0,120.0,210.0,3.0,0.0
4378,79.0,0.0,120.0,0.0,0.0
4379,67.0,96.0,120.0,1.0,0.0
4380,62.0,24.0,210.0,2.0,0.0
4381,66.0,96.0,120.0,1.0,0.0
4382,78.0,0.0,120.0,0.0,0.0
4383,57.0,120.0,210.0,3.0,0.0
4384,62.0,24.0,210.0,2.0,0.0
4385,79.0,0.0,120.0,0.0,0.0
4386,67.0,96.0,120.0,1.0,0.0
4387,59.0,120.0,210.0,3.0,0.0
4388,62.0,24.0,210.0,2.0,0.0
4389,64.0,0.0,120.0,1.0,0.0
4390,55.0,120.0,210.0,3.0,0.0
4391,76.0,96.0,120.0,0.0,0.0
4392,62.0,24.0,210.0,2.0,0.0
4393,73.0,96.0,120.0,0.0,0.0
4394,52.0,120.0,210.0,3.0,0.0
4395,62.0,24.0,210.0,2.0,0.0
4396,74.0,96.0,120.0,0.0,0.0
4397,54.0,120.0,210.0,3.0,0.0
4398,62.0,24.0,210.0,2.0,0.0
4399,57.0,120.0,210.0,3.0,0.0
4400,66.0,0.0,120.0,1.0,0.0
4401,78.0,96.0,120.0,0.0,0.0
4402,62.0,120.0,210.0,2.0,0.0
4403,81.0,96.0,480.0,0.0,0.0
4404,69.0,0.0,480.0,1.0,0.0
4405,60.0,120.0,210.0,3.0,0.0
4406,62.0,120.0,210.0,2.0,0.0
4407,60.0,24.0,210.0,3.0,0.0
4408,62.0,24.0,210.0,2.0,0.0
4409,57.0,120.0,210.0,3.0,0.0
4410,78.0,0.0,120.0,0.0,0.0
4411,66.0,96.0,120.0,1.0,0.0
4412,62.0,24.0,210.0,2.0,0.0
4413,81.0,0.0,120.0,0.0,0.0
4414,60.0,120.0,210.0,3.0,0.0
4415,69.0,96.0,120.0,1.0,0.0
4416,62.0,120.0,210.0,2.0,0.0
4417,72.0,96.0,720.0,1.0,0.0
4418,84.0,0.0,720.0,0.0,0.0
4419,64.0,120.0,210.0,3.0,0.0
4420,62.0,120.0,210.0,2.0,0.0
4421,64.0,120.0,210.0,3.0,0.0
4422,62.0,120.0,210.0,2.0,0.0
4423,64.0,24.0,210.0,3.0,0.0
4424,62.0,24.0,210.0,2.0,0.0
4425,71.0,96.0,120.0,1.0,0.0
4426,64.0,120.0,210.0,3.0,0.0
4427,83.0,0.0,120.0,0.0,0.0
4428,62.0,24.0,210.0,2.0,0.0
4429,69.0,96.0,120.0,1.0,0.0
4430,60.0,120.0,210.0,3.0,0.0
4431,81.0,0.0,120.0,0.0,0.0
4432,62.0,24.0,210.0,2.0,0.0
4433,79.0,96.0,120.0,0.0,0.0
4434,59.0,120.0,210.0,3.0,0.0
4435,67.0,0.0,120.0,1.0,0.0
4436,62.0,24.0,210.0,2.0,0.0
4437,76.0,0.0,120.0,0.0,0.0
4438,64.0,96.0,120.0,1.0,0.0
4439,60.0,120.0,210.0,3.0,0.0
4440,50.0,0.0,210.0,3.0,0.0
4441,62.0,24.0,210.0,2.0,0.0
4442,78.0,0.0,120.0,0.0,0.0
4443,57.0,24.0,210.0,3.0,0.0
4444,50.0,0.0,210.0,3.0,0.0
4445,66.0,96.0,120.0,1.0,0.0
4446,62.0,120.0,120.0,2.0,0.0
4447,55.0,180.0,240.0,3.0,0.0
4448,67.0,108.0,120.0,1.0,0.0
4449,79.0,0.0,120.0,0.0,0.0
4450,59.0,12.0,240.0,3.0,0.0
4451,62.0,540.0,180.0,1.0,0.0
4452,62.0,0.0,180.0,0.0,0.0
4453,55.0,0.0,480.0,2.0,0.0
4454,67.0,480.0,480.0,0.0,0.0
4455,67.0,0.0,480.0,1.0,0.0
4456,59.0,0.0,480.0,1.0,0.0
4457,62.0,0.0,480.0,1.0,0.0
4458,43.0,0.0,480.0,3.0,0.0
4459,36.0,0.0,480.0,3.0,0.0
4460,64.0,0.0,480.0,1.0,0.0
4461,55.0,108.0,480.0,1.0,0.0
4462,48.0,0.0,480.0,2.0,0.0
4463,64.0,0.0,480.0,0.0,0.0
4464,60.0,0.0,480.0,1.0,0.0
4465,62.0,0.0,120.0,0.0,0.0
4466,54.0,0.0,120.0,1.0,0.0
4467,57.0,228.0,120.0,1.0,0.0
4468,50.0,0.0,120.0,2.0,0.0
4469,38.0,12.0,120.0,3.0,0.0
4470,60.0,12.0,120.0,0.0,0.0
4471,42.0,0.0,120.0,3.0,0.0
4472,50.0,0.0,120.0,2.0,0.0
4473,57.0,228.0,120.0,1.0,0.0
4474,50.0,0.0,120.0,2.0,0.0
4475,43.0,0.0,120.0,3.0,0.0
4476,55.0,240.0,120.0,1.0,0.0
4477,59.0,12.0,120.0,0.0,0.0
4478,60.0,0.0,120.0,3.0,0.0
4479,88.0,0.0,120.0,0.0,0.0
4480,79.0,240.0,120.0,1.0,0.0
4481,86.0,0.0,120.0,0.0,0.0
4482,62.0,0.0,120.0,3.0,0.0
4483,78.0,240.0,120.0,1.0,0.0
4484,66.0,240.0,120.0,3.0,0.0
4485,81.0,0.0,120.0,1.0,0.0
4486,84.0,0.0,120.0,0.0,0.0
4487,83.0,0.0,120.0,0.0,0.0
4488,74.0,0.0,120.0,1.0,0.0
4489,67.0,228.0,120.0,3.0,0.0
4490,64.0,240.0,120.0,1.0,0.0
4491,72.0,0.0,120.0,0.0,0.0
4492,45.0,0.0,120.0,3.0,0.0
4493,71.0,0.0,120.0,0.0,0.0
4494,63.0,240.0,120.0,1.0,0.0
4495,47.0,0.0,120.0,3.0,0.0
4496,69.0,240.0,120.0,0.0,0.0
4497,51.0,0.0,120.0,3.0,0.0
4498,66.0,0.0,120.0,1.0,0.0
4499,52.0,0.0,120.0,3.0,0.0
4500,67.0,252.0,120.0,0.0,0.0
4501,59.0,0.0,120.0,1.0,0.0
4502,57.0,0.0,120.0,3.0,0.0
4503,76.0,240.0,120.0,1.0,0.0
4504,84.0,0.0,120.0,0.0,0.0
4505,59.0,0.0,120.0,3.0,0.0
4506,83.0,240.0,120.0,0.0,0.0
4507,75.0,0.0,120.0,1.0,0.0
4508,78.0,0.0,120.0,1.0,0.0
4509,81.0,240.0,120.0,0.0,0.0
4510,63.0,0.0,120.0,3.0,0.0
4511,79.0,228.0,120.0,0.0,0.0
4512,71.0,0.0,120.0,1.0,0.0
4513,64.0,0.0,120.0,3.0,0.0
4514,66.0,0.0,120.0,1.0,0.0
4515,71.0,0.0,120.0,0.0,0.0
4516,50.0,240.0,120.0,3.0,0.0
4517,64.0,0.0,120.0,1.0,0.0
4518,69.0,0.0,120.0,0.0,0.0
4519,49.0,240.0,120.0,3.0,0.0
4520,45.0,240.0,120.0,3.0,0.0
4521,61.0,0.0,120.0,1.0,0.0
4522,67.0,0.0,120.0,0.0,0.0
4523,66.0,0.0,120.0,0.0,0.0
4524,50.0,252.0,120.0,3.0,0.0
4525,57.0,0.0,120.0,1.0,0.0
4526,83.0,0.0,120.0,0.0,0.0
4527,78.0,0.0,120.0,1.0,0.0
4528,62.0,240.0,120.0,3.0,0.0
4529,81.0,240.0,120.0,0.0,0.0
4530,76.0,0.0,120.0,1.0,0.0
4531,61.0,0.0,120.0,3.0,0.0
4532,57.0,0.0,120.0,3.0,0.0
4533,79.0,0.0,120.0,0.0,0.0
4534,73.0,240.0,120.0,1.0,0.0
4535,78.0,0.0,120.0,0.0,0.0
4536,69.0,0.0,120.0,1.0,0.0
4537,62.0,360.0,120.0,3.0,0.0
4538,62.0,0.0,240.0,1.0,0.0
4539,68.0,0.0,240.0,0.0,0.0
4540,47.0,120.0,240.0,3.0,0.0
4541,52.0,0.0,360.0,3.0,0.0
4542,61.0,0.0,120.0,1.0,0.0
4543,45.0,360.0,120.0,3.0,0.0
4544,69.0,0.0,120.0,0.0,0.0
4545,64.0,0.0,360.0,3.0,0.0
4546,59.0,0.0,240.0,3.0,0.0
4547,74.0,120.0,240.0,1.0,0.0
4548,80.0,0.0,240.0,0.0,0.0
4549,81.0,360.0,120.0,0.0,0.0
4550,73.0,0.0,120.0,1.0,0.0
4551,57.0,0.0,120.0,3.0,0.0
4552,52.0,0.0,360.0,3.0,0.0
4553,47.0,0.0,240.0,3.0,0.0
4554,62.0,0.0,240.0,1.0,0.0
4555,68.0,120.0,240.0,0.0,0.0
4556,61.0,360.0,120.0,1.0,0.0
4557,69.0,0.0,120.0,0.0,0.0
4558,45.0,0.0,120.0,3.0,0.0
4559,59.0,120.0,240.0,3.0,0.0
4560,80.0,0.0,240.0,1.0,0.0
4561,64.0,360.0,360.0,3.0,0.0
4562,86.0,0.0,240.0,0.0,0.0
4563,81.0,0.0,120.0,1.0,0.0
4564,85.0,0.0,120.0,0.0,0.0
4565,57.0,0.0,120.0,3.0,0.0
4566,47.0,0.0,240.0,3.0,0.0
4567,52.0,0.0,360.0,3.0,0.0
4568,62.0,120.0,240.0,1.0,0.0
4569,68.0,0.0,240.0,0.0,0.0
4570,45.0,0.0,120.0,3.0,0.0
4571,69.0,360.0,120.0,0.0,0.0
4572,61.0,0.0,120.0,1.0,0.0
4573,80.0,0.0,240.0,0.0,0.0
4574,74.0,0.0,240.0,1.0,0.0
4575,59.0,120.0,240.0,3.0,0.0
4576,64.0,0.0,360.0,3.0,0.0
4577,81.0,0.0,120.0,0.0,0.0
4578,73.0,360.0,120.0,1.0,0.0
4579,57.0,0.0,120.0,3.0,0.0
4580,92.0,0.0,240.0,0.0,0.0
4581,86.0,0.0,240.0,1.0,0.0
4582,71.0,120.0,240.0,3.0,0.0
4583,76.0,0.0,360.0,3.0,0.0
4584,85.0,0.0,120.0,1.0,0.0
4585,93.0,360.0,120.0,0.0,0.0
4586,69.0,0.0,120.0,3.0,0.0
4587,59.0,120.0,240.0,3.0,0.0
4588,64.0,0.0,360.0,3.0,0.0
4589,80.0,0.0,240.0,0.0,0.0
4590,74.0,0.0,240.0,1.0,0.0
4591,81.0,0.0,120.0,0.0,0.0
4592,73.0,240.0,120.0,1.0,0.0
4593,57.0,0.0,120.0,3.0,0.0
4594,69.0,96.0,120.0,3.0,0.0
4595,66.0,24.0,210.0,1.0,0.0
4596,75.0,120.0,120.0,0.0,0.0
4597,69.0,96.0,120.0,3.0,0.0
4598,67.0,24.0,210.0,1.0,0.0
4599,76.0,120.0,120.0,0.0,0.0
4600,69.0,96.0,120.0,3.0,0.0
4601,64.0,24.0,210.0,1.0,0.0
4602,73.0,120.0,120.0,0.0,0.0
4603,66.0,24.0,210.0,1.0,0.0
4604,69.0,96.0,120.0,3.0,0.0
4605,74.0,120.0,120.0,0.0,0.0
4606,66.0,24.0,210.0,1.0,0.0
4607,69.0,96.0,120.0,3.0,0.0
4608,75.0,120.0,120.0,0.0,0.0
4609,69.0,96.0,120.0,3.0,0.0
4610,67.0,24.0,210.0,1.0,0.0
4611,76.0,120.0,120.0,0.0,0.0
4612,69.0,96.0,120.0,3.0,0.0
4613,64.0,24.0,210.0,1.0,0.0
4614,73.0,120.0,120.0,0.0,0.0
4615,66.0,24.0,210.0,1.0,0.0
4616,69.0,96.0,120.0,3.0,0.0
4617,74.0,120.0,120.0,0.0,0.0
4618,66.0,24.0,210.0,1.0,0.0
4619,69.0,96.0,120.0,3.0,0.0
4620,75.0,120.0,120.0,0.0,0.0
4621,69.0,96.0,120.0,3.0,0.0
4622,67.0,24.0,210.0,1.0,0.0
4623,76.0,120.0,120.0,0.0,0.0
4624,69.0,96.0,120.0,3.0,0.0
4625,66.0,24.0,210.0,1.0,0.0
4626,75.0,120.0,120.0,0.0,0.0
4627,67.0,24.0,210.0,1.0,0.0
4628,69.0,96.0,120.0,3.0,0.0
4629,76.0,120.0,120.0,0.0,0.0
4630,66.0,24.0,210.0,1.0,0.0
4631,69.0,96.0,120.0,3.0,0.0
4632,75.0,120.0,120.0,0.0,0.0
4633,69.0,96.0,120.0,3.0,0.0
4634,67.0,24.0,210.0,1.0,0.0
4635,76.0,120.0,120.0,0.0,0.0
4636,66.0,24.0,210.0,1.0,0.0
4637,69.0,96.0,120.0,3.0,0.0
4638,75.0,120.0,120.0,0.0,0.0
4639,67.0,24.0,210.0,1.0,0.0
4640,69.0,96.0,120.0,3.0,0.0
4641,76.0,120.0,120.0,0.0,0.0
4642,69.0,96.0,120.0,3.0,0.0
4643,66.0,24.0,210.0,1.0,0.0
4644,75.0,120.0,120.0,0.0,0.0
4645,67.0,24.0,210.0,1.0,0.0
4646,69.0,96.0,120.0,3.0,0.0
4647,76.0,120.0,120.0,0.0,0.0
4648,64.0,24.0,210.0,1.0,0.0
4649,69.0,96.0,120.0,3.0,0.0
4650,73.0,120.0,120.0,0.0,0.0
4651,69.0,96.0,120.0,3.0,0.0
4652,66.0,24.0,210.0,1.0,0.0
4653,74.0,120.0,120.0,0.0,0.0
4654,66.0,24.0,210.0,1.0,0.0
4655,69.0,96.0,120.0,3.0,0.0
4656,75.0,120.0,120.0,0.0,0.0
4657,67.0,24.0,210.0,1.0,0.0
4658,69.0,96.0,120.0,3.0,0.0
4659,76.0,120.0,120.0,0.0,0.0
4660,69.0,96.0,120.0,3.0,0.0
4661,64.0,24.0,210.0,1.0,0.0
4662,73.0,120.0,120.0,0.0,0.0
4663,69.0,96.0,120.0,3.0,0.0
4664,66.0,24.0,210.0,1.0,0.0
4665,74.0,120.0,120.0,0.0,0.0
4666,66.0,24.0,210.0,1.0,0.0
4667,69.0,96.0,120.0,3.0,0.0
4668,75.0,120.0,120.0,0.0,0.0
4669,69.0,96.0,120.0,3.0,0.0
4670,67.0,24.0,210.0,1.0,0.0
4671,76.0,120.0,120.0,0.0,0.0
4672,69.0,96.0,120.0,3.0,0.0
4673,66.0,24.0,210.0,1.0,0.0
4674,75.0,120.0,120.0,0.0,0.0
4675,69.0,96.0,120.0,3.0,0.0
4676,67.0,24.0,210.0,1.0,0.0
4677,76.0,120.0,120.0,0.0,0.0
4678,69.0,96.0,120.0,3.0,0.0
4679,66.0,24.0,210.0,1.0,0.0
4680,75.0,120.0,120.0,0.0,0.0
4681,69.0,96.0,120.0,3.0,0.0
4682,67.0,24.0,210.0,1.0,0.0
4683,76.0,120.0,120.0,0.0,0.0
4684,66.0,24.0,210.0,1.0,0.0
4685,69.0,96.0,120.0,3.0,0.0
4686,75.0,120.0,120.0,0.0,0.0
4687,69.0,96.0,120.0,3.0,0.0
4688,67.0,24.0,210.0,1.0,0.0
4689,76.0,120.0,120.0,0.0,0.0
4690,69.0,96.0,120.0,3.0,0.0
4691,67.0,24.0,210.0,1.0,0.0
4692,76.0,120.0,120.0,0.0,0.0
4693,67.0,36.0,210.0,1.0,0.0
4694,70.0,84.0,120.0,3.0,0.0
4695,76.0,120.0,120.0,0.0,0.0
4696,67.0,36.0,210.0,1.0,0.0
4697,70.0,84.0,120.0,3.0,0.0
4698,75.0,120.0,120.0,0.0,0.0
4699,70.0,84.0,120.0,3.0,0.0
4700,67.0,36.0,210.0,1.0,0.0
4701,76.0,120.0,120.0,0.0,0.0
4702,70.0,84.0,120.0,3.0,0.0
4703,67.0,36.0,210.0,1.0,0.0
4704,75.0,120.0,120.0,0.0,0.0
4705,70.0,84.0,120.0,3.0,0.0
4706,67.0,36.0,210.0,1.0,0.0
4707,76.0,120.0,120.0,0.0,0.0
4708,67.0,36.0,210.0,1.0,0.0
4709,70.0,84.0,120.0,3.0,0.0
4710,75.0,120.0,120.0,0.0,0.0
4711,70.0,84.0,120.0,3.0,0.0
4712,67.0,36.0,210.0,1.0,0.0
4713,76.0,120.0,120.0,0.0,0.0
4714,70.0,84.0,120.0,3.0,0.0
4715,67.0,36.0,210.0,1.0,0.0
4716,76.0,120.0,120.0,0.0,0.0
4717,71.0,84.0,120.0,3.0,0.0
4718,67.0,36.0,210.0,1.0,0.0
4719,77.0,120.0,120.0,0.0,0.0
4720,71.0,84.0,120.0,3.0,0.0
4721,67.0,36.0,210.0,1.0,0.0
4722,76.0,120.0,120.0,0.0,0.0
4723,67.0,36.0,210.0,1.0,0.0
4724,71.0,84.0,120.0,3.0,0.0
4725,77.0,120.0,120.0,0.0,0.0
4726,67.0,36.0,210.0,1.0,0.0
4727,71.0,84.0,120.0,3.0,0.0
4728,76.0,120.0,120.0,0.0,0.0
4729,71.0,84.0,120.0,3.0,0.0
4730,67.0,36.0,210.0,1.0,0.0
4731,77.0,120.0,120.0,0.0,0.0
4732,67.0,36.0,210.0,1.0,0.0
4733,71.0,84.0,120.0,3.0,0.0
4734,76.0,120.0,120.0,0.0,0.0
4735,67.0,36.0,210.0,1.0,0.0
4736,71.0,84.0,120.0,3.0,0.0
4737,77.0,204.0,120.0,0.0,0.0
4738,71.0,120.0,240.0,3.0,0.0
4739,67.0,36.0,210.0,1.0,0.0
4740,77.0,0.0,120.0,0.0,0.0
4741,72.0,84.0,120.0,3.0,0.0
4742,67.0,36.0,210.0,1.0,0.0
4743,77.0,120.0,120.0,0.0,0.0
4744,60.0,84.0,120.0,3.0,0.0
4745,67.0,36.0,210.0,1.0,0.0
4746,76.0,204.0,120.0,0.0,0.0
4747,67.0,36.0,210.0,1.0,0.0
4748,77.0,204.0,120.0,0.0,0.0
4749,67.0,36.0,210.0,1.0,0.0
4750,71.0,0.0,240.0,3.0,0.0
4751,77.0,120.0,120.0,0.0,0.0
4752,67.0,36.0,210.0,1.0,0.0
4753,72.0,84.0,120.0,3.0,0.0
4754,77.0,120.0,120.0,0.0,0.0
4755,60.0,84.0,120.0,3.0,0.0
4756,67.0,36.0,210.0,1.0,0.0
4757,76.0,204.0,120.0,0.0,0.0
4758,67.0,36.0,210.0,1.0,0.0
4759,77.0,204.0,120.0,0.0,0.0
4760,67.0,36.0,210.0,1.0,0.0
4761,71.0,120.0,240.0,3.0,0.0
4762,77.0,0.0,120.0,0.0,0.0
4763,72.0,84.0,120.0,3.0,0.0
4764,67.0,36.0,210.0,1.0,0.0
4765,77.0,120.0,120.0,0.0,0.0
4766,60.0,84.0,120.0,3.0,0.0
4767,67.0,36.0,210.0,1.0,0.0
4768,76.0,120.0,120.0,0.0,0.0
4769,70.0,84.0,120.0,3.0,0.0
4770,67.0,36.0,210.0,1.0,0.0
4771,76.0,120.0,120.0,0.0,0.0
4772,67.0,36.0,210.0,1.0,0.0
4773,58.0,84.0,120.0,3.0,0.0
4774,76.0,120.0,120.0,0.0,0.0
4775,71.0,84.0,120.0,3.0,0.0
4776,66.0,36.0,210.0,1.0,0.0
4777,76.0,120.0,120.0,0.0,0.0
4778,66.0,36.0,210.0,1.0,0.0
4779,59.0,84.0,120.0,3.0,0.0
4780,75.0,120.0,120.0,0.0,0.0
4781,68.0,84.0,120.0,3.0,0.0
4782,65.0,36.0,210.0,1.0,0.0
4783,74.0,120.0,120.0,0.0,0.0
4784,56.0,84.0,120.0,3.0,0.0
4785,65.0,36.0,210.0,1.0,0.0
4786,74.0,120.0,120.0,0.0,0.0
4787,69.0,84.0,120.0,3.0,0.0
4788,64.0,36.0,210.0,1.0,0.0
4789,74.0,120.0,120.0,0.0,0.0
4790,64.0,36.0,210.0,1.0,0.0
4791,57.0,84.0,120.0,3.0,0.0
4792,73.0,120.0,120.0,0.0,0.0
4793,66.0,84.0,120.0,3.0,0.0
4794,63.0,36.0,210.0,1.0,0.0
4795,69.0,0.0,120.0,1.0,0.0
4796,72.0,120.0,120.0,0.0,0.0
4797,63.0,36.0,210.0,1.0,0.0
4798,54.0,84.0,120.0,3.0,0.0
4799,69.0,0.0,120.0,1.0,0.0
4800,72.0,120.0,120.0,0.0,0.0
4801,66.0,36.0,210.0,1.0,0.0
4802,63.0,84.0,120.0,3.0,0.0
4803,72.0,12.0,120.0,0.0,0.0
4804,69.0,108.0,120.0,1.0,0.0
4805,66.0,0.0,240.0,1.0,0.0
4806,51.0,120.0,120.0,3.0,0.0
4807,71.0,120.0,120.0,0.0,0.0
4808,69.0,0.0,120.0,1.0,0.0
4809,67.0,12.0,240.0,1.0,0.0
4810,64.0,108.0,120.0,3.0,0.0
4811,71.0,120.0,120.0,0.0,0.0
4812,67.0,12.0,240.0,1.0,0.0
4813,52.0,108.0,120.0,3.0,0.0
4814,70.0,120.0,120.0,0.0,0.0
4815,61.0,96.0,120.0,3.0,0.0
4816,64.0,24.0,210.0,1.0,0.0
4817,67.0,120.0,120.0,1.0,0.0
4818,70.0,0.0,120.0,0.0,0.0
4819,49.0,96.0,120.0,3.0,0.0
4820,64.0,24.0,210.0,1.0,0.0
4821,69.0,0.0,120.0,0.0,0.0
4822,67.0,120.0,120.0,1.0,0.0
4823,66.0,24.0,210.0,1.0,0.0
4824,62.0,96.0,120.0,3.0,0.0
4825,69.0,120.0,120.0,0.0,0.0
4826,62.0,0.0,210.0,1.0,0.0
4827,66.0,24.0,210.0,1.0,0.0
4828,50.0,96.0,120.0,3.0,0.0
4829,69.0,120.0,120.0,0.0,0.0
4830,64.0,0.0,210.0,1.0,0.0
4831,55.0,96.0,120.0,3.0,0.0
4832,59.0,24.0,210.0,1.0,0.0
4833,69.0,120.0,120.0,0.0,0.0
4834,43.0,96.0,120.0,3.0,0.0
4835,59.0,0.0,210.0,1.0,0.0
4836,64.0,24.0,210.0,1.0,0.0
4837,67.0,120.0,120.0,0.0,0.0
4838,55.0,0.0,210.0,1.0,0.0
4839,61.0,24.0,210.0,1.0,0.0
4840,33.0,96.0,120.0,3.0,0.0
4841,64.0,120.0,120.0,0.0,0.0
4842,55.0,0.0,210.0,1.0,0.0
4843,45.0,96.0,120.0,3.0,0.0
4844,61.0,24.0,210.0,1.0,0.0
4845,64.0,120.0,120.0,0.0,0.0
4846,54.0,120.0,120.0,1.0,0.0
4847,38.0,61.0,1860.0,3.0,0.0
4848,62.0,0.0,120.0,0.0,0.0
4849,50.0,120.0,120.0,2.0,0.0
4850,62.0,0.0,240.0,0.0,0.0
4851,54.0,120.0,120.0,2.0,0.0
4852,50.0,120.0,120.0,2.0,0.0
4853,54.0,120.0,120.0,2.0,0.0
4854,66.0,120.0,240.0,0.0,0.0
4855,50.0,0.0,120.0,2.0,0.0
4856,69.0,120.0,240.0,0.0,0.0
4857,54.0,120.0,120.0,2.0,0.0
4858,50.0,0.0,120.0,2.0,0.0
4859,54.0,120.0,120.0,2.0,0.0
4860,74.0,0.0,240.0,0.0,0.0
4861,50.0,120.0,120.0,2.0,0.0
4862,54.0,120.0,120.0,2.0,0.0
4863,69.0,0.0,240.0,0.0,0.0
4864,50.0,120.0,120.0,2.0,0.0
4865,54.0,120.0,120.0,2.0,0.0
4866,66.0,0.0,240.0,0.0,0.0
4867,50.0,120.0,120.0,2.0,0.0
4868,54.0,59.0,120.0,2.0,0.0
4869,62.0,0.0,240.0,0.0,0.0
4870,50.0,240.0,120.0,2.0,0.0
4871,38.0,61.0,1860.0,3.0,0.0
4872,50.0,120.0,120.0,2.0,0.0
4873,57.0,120.0,120.0,2.0,0.0
4874,54.0,0.0,120.0,2.0,0.0
4875,66.0,0.0,240.0,0.0,0.0
4876,50.0,120.0,120.0,2.0,0.0
4877,69.0,0.0,240.0,0.0,0.0
4878,54.0,0.0,120.0,2.0,0.0
4879,57.0,120.0,120.0,2.0,0.0
4880,50.0,120.0,120.0,2.0,0.0
4881,57.0,120.0,120.0,2.0,0.0
4882,74.0,0.0,240.0,0.0,0.0
4883,54.0,0.0,120.0,2.0,0.0
4884,50.0,120.0,120.0,2.0,0.0
4885,57.0,120.0,120.0,2.0,0.0
4886,54.0,0.0,120.0,2.0,0.0
4887,78.0,120.0,240.0,0.0,0.0
4888,50.0,0.0,120.0,2.0,0.0
4889,74.0,0.0,240.0,0.0,0.0
4890,54.0,0.0,120.0,2.0,0.0
4891,57.0,120.0,120.0,2.0,0.0
4892,50.0,120.0,120.0,2.0,0.0
4893,54.0,0.0,120.0,2.0,0.0
4894,69.0,0.0,240.0,0.0,0.0
4895,57.0,120.0,120.0,2.0,0.0
4896,50.0,120.0,120.0,2.0,0.0
4897,66.0,240.0,240.0,0.0,0.0
4898,57.0,59.0,120.0,2.0,0.0
4899,54.0,0.0,120.0,2.0,0.0
4900,50.0,0.0,120.0,2.0,0.0
4901,38.0,61.0,1860.0,3.0,0.0
4902,50.0,120.0,120.0,2.0,0.0
4903,54.0,0.0,120.0,2.0,0.0
4904,57.0,0.0,120.0,2.0,0.0
4905,69.0,120.0,120.0,1.0,0.0
4906,81.0,0.0,120.0,0.0,0.0
4907,50.0,120.0,120.0,2.0,0.0
4908,74.0,0.0,120.0,1.0,0.0
4909,86.0,0.0,120.0,0.0,0.0
4910,57.0,120.0,120.0,2.0,0.0
4911,54.0,0.0,120.0,2.0,0.0
4912,50.0,120.0,120.0,2.0,0.0
4913,78.0,0.0,120.0,1.0,0.0
4914,54.0,0.0,120.0,2.0,0.0
4915,57.0,0.0,120.0,2.0,0.0
4916,90.0,120.0,120.0,0.0,0.0
4917,50.0,120.0,120.0,2.0,0.0
4918,93.0,0.0,240.0,0.0,0.0
4919,54.0,0.0,120.0,2.0,0.0
4920,81.0,0.0,240.0,1.0,0.0
4921,57.0,120.0,120.0,2.0,0.0
4922,50.0,120.0,120.0,2.0,0.0
4923,78.0,0.0,120.0,1.0,0.0
4924,90.0,0.0,120.0,0.0,0.0
4925,54.0,0.0,120.0,2.0,0.0
4926,57.0,120.0,120.0,2.0,0.0
4927,50.0,120.0,120.0,2.0,0.0
4928,74.0,0.0,120.0,1.0,0.0
4929,86.0,120.0,120.0,0.0,0.0
4930,54.0,0.0,120.0,2.0,0.0
4931,57.0,0.0,120.0,2.0,0.0
4932,50.0,120.0,120.0,2.0,0.0
4933,81.0,0.0,120.0,0.0,0.0
4934,54.0,0.0,120.0,2.0,0.0
4935,57.0,59.0,120.0,2.0,0.0
4936,69.0,0.0,120.0,1.0,0.0
4937,50.0,120.0,120.0,2.0,0.0
4938,83.0,96.0,120.0,0.0,0.0
4939,55.0,24.0,210.0,3.0,0.0
4940,71.0,0.0,120.0,1.0,0.0
4941,50.0,120.0,120.0,2.0,0.0
4942,85.0,0.0,120.0,0.0,0.0
4943,52.0,24.0,210.0,3.0,0.0
4944,73.0,96.0,120.0,1.0,0.0
4945,50.0,120.0,120.0,2.0,0.0
4946,54.0,24.0,210.0,3.0,0.0
4947,86.0,96.0,120.0,0.0,0.0
4948,74.0,0.0,120.0,1.0,0.0
4949,50.0,120.0,120.0,2.0,0.0
4950,81.0,96.0,120.0,0.0,0.0
4951,54.0,24.0,210.0,3.0,0.0
4952,69.0,0.0,120.0,1.0,0.0
4953,50.0,120.0,120.0,2.0,0.0
4954,55.0,24.0,210.0,3.0,0.0
4955,71.0,0.0,120.0,1.0,0.0
4956,83.0,96.0,120.0,0.0,0.0
4957,50.0,120.0,120.0,2.0,0.0
4958,73.0,96.0,120.0,1.0,0.0
4959,85.0,0.0,120.0,0.0,0.0
4960,52.0,24.0,210.0,3.0,0.0
4961,50.0,180.0,120.0,2.0,0.0
4962,74.0,0.0,180.0,1.0,0.0
4963,86.0,36.0,180.0,0.0,0.0
4964,54.0,24.0,210.0,3.0,0.0
4965,50.0,216.0,120.0,2.0,0.0
4966,54.0,24.0,210.0,3.0,0.0
4967,50.0,240.0,120.0,2.0,0.0
4968,38.0,61.0,1860.0,3.0,0.0
4969,50.0,120.0,120.0,2.0,0.0
4970,81.0,0.0,120.0,0.0,0.0
4971,69.0,120.0,120.0,1.0,0.0
4972,57.0,0.0,120.0,2.0,0.0
4973,54.0,0.0,120.0,2.0,0.0
4974,50.0,120.0,120.0,2.0,0.0
4975,74.0,0.0,120.0,1.0,0.0
4976,54.0,120.0,120.0,2.0,0.0
4977,57.0,0.0,120.0,2.0,0.0
4978,86.0,0.0,120.0,0.0,0.0
4979,50.0,120.0,120.0,2.0,0.0
4980,57.0,0.0,120.0,2.0,0.0
4981,54.0,120.0,120.0,2.0,0.0
4982,90.0,0.0,120.0,0.0,0.0
4983,78.0,0.0,120.0,1.0,0.0
4984,50.0,120.0,120.0,2.0,0.0
4985,81.0,0.0,240.0,1.0,0.0
4986,93.0,120.0,240.0,0.0,0.0
4987,54.0,0.0,120.0,2.0,0.0
4988,57.0,120.0,120.0,2.0,0.0
4989,50.0,0.0,120.0,2.0,0.0
4990,57.0,120.0,120.0,2.0,0.0
4991,54.0,0.0,120.0,2.0,0.0
4992,90.0,0.0,120.0,0.0,0.0
4993,78.0,0.0,120.0,1.0,0.0
4994,50.0,120.0,120.0,2.0,0.0
4995,57.0,120.0,120.0,2.0,0.0
4996,54.0,0.0,120.0,2.0,0.0
4997,74.0,0.0,120.0,1.0,0.0
4998,86.0,0.0,120.0,0.0,0.0
4999,50.0,120.0,120.0,2.0,0.0
5000,69.0,0.0,120.0,1.0,0.0
5001,57.0,59.0,120.0,2.0,0.0
5002,81.0,0.0,120.0,0.0,0.0
5003,54.0,0.0,120.0,2.0,0.0
5004,50.0,120.0,120.0,2.0,0.0
5005,71.0,0.0,120.0,1.0,0.0
5006,83.0,96.0,120.0,0.0,0.0
5007,55.0,24.0,210.0,3.0,0.0
5008,50.0,120.0,120.0,2.0,0.0
5009,73.0,96.0,120.0,1.0,0.0
5010,52.0,24.0,210.0,3.0,0.0
5011,85.0,0.0,120.0,0.0,0.0
5012,50.0,120.0,120.0,2.0,0.0
5013,54.0,24.0,210.0,3.0,0.0
5014,74.0,96.0,120.0,1.0,0.0
5015,86.0,0.0,120.0,0.0,0.0
5016,50.0,120.0,120.0,2.0,0.0
5017,54.0,24.0,210.0,3.0,0.0
5018,69.0,0.0,120.0,1.0,0.0
5019,81.0,96.0,120.0,0.0,0.0
5020,50.0,120.0,120.0,2.0,0.0
5021,83.0,96.0,120.0,0.0,0.0
5022,55.0,24.0,210.0,3.0,0.0
5023,71.0,0.0,120.0,1.0,0.0
5024,50.0,120.0,120.0,2.0,0.0
5025,52.0,24.0,210.0,3.0,0.0
5026,85.0,96.0,120.0,0.0,0.0
5027,73.0,0.0,120.0,1.0,0.0
5028,50.0,120.0,120.0,2.0,0.0
5029,74.0,0.0,120.0,1.0,0.0
5030,54.0,24.0,210.0,3.0,0.0
5031,86.0,96.0,120.0,0.0,0.0
5032,50.0,120.0,120.0,2.0,0.0
5033,69.0,96.0,120.0,1.0,0.0
5034,81.0,0.0,120.0,0.0,0.0
5035,54.0,24.0,210.0,3.0,0.0
5036,50.0,120.0,120.0,2.0,0.0
5037,71.0,96.0,120.0,1.0,0.0
5038,55.0,24.0,210.0,3.0,0.0
5039,83.0,0.0,120.0,0.0,0.0
5040,50.0,120.0,120.0,2.0,0.0
5041,73.0,96.0,120.0,1.0,0.0
5042,85.0,0.0,120.0,0.0,0.0
5043,52.0,24.0,210.0,3.0,0.0
5044,50.0,120.0,120.0,2.0,0.0
5045,74.0,96.0,120.0,1.0,0.0
5046,54.0,24.0,210.0,3.0,0.0
5047,86.0,0.0,120.0,0.0,0.0
5048,50.0,120.0,120.0,2.0,0.0
5049,57.0,24.0,210.0,3.0,0.0
5050,90.0,0.0,120.0,0.0,0.0
5051,78.0,96.0,120.0,1.0,0.0
5052,50.0,120.0,120.0,2.0,0.0
5053,86.0,0.0,120.0,0.0,0.0
5054,74.0,96.0,120.0,1.0,0.0
5055,54.0,24.0,210.0,3.0,0.0
5056,50.0,120.0,120.0,2.0,0.0
5057,78.0,96.0,120.0,1.0,0.0
5058,90.0,0.0,120.0,0.0,0.0
5059,57.0,24.0,210.0,3.0,0.0
5060,50.0,120.0,120.0,2.0,0.0
5061,54.0,24.0,210.0,3.0,0.0
5062,86.0,96.0,120.0,0.0,0.0
5063,74.0,0.0,120.0,1.0,0.0
5064,50.0,120.0,120.0,2.0,0.0
5065,54.0,24.0,210.0,3.0,0.0
5066,69.0,0.0,120.0,1.0,0.0
5067,81.0,96.0,120.0,0.0,0.0
5068,50.0,120.0,120.0,2.0,0.0
5069,83.0,0.0,120.0,0.0,0.0
5070,55.0,24.0,210.0,3.0,0.0
5071,71.0,96.0,120.0,1.0,0.0
5072,50.0,120.0,120.0,2.0,0.0
5073,52.0,24.0,210.0,3.0,0.0
5074,73.0,96.0,120.0,1.0,0.0
5075,85.0,0.0,120.0,0.0,0.0
5076,50.0,120.0,120.0,2.0,0.0
5077,86.0,0.0,120.0,0.0,0.0
5078,54.0,24.0,210.0,3.0,0.0
5079,74.0,96.0,120.0,1.0,0.0
5080,50.0,120.0,120.0,2.0,0.0
5081,90.0,0.0,120.0,0.0,0.0
5082,78.0,96.0,120.0,1.0,0.0
5083,57.0,24.0,210.0,3.0,0.0
5084,50.0,120.0,120.0,2.0,0.0
5085,74.0,0.0,120.0,1.0,0.0
5086,86.0,96.0,120.0,0.0,0.0
5087,54.0,24.0,210.0,3.0,0.0
5088,50.0,120.0,120.0,2.0,0.0
5089,57.0,24.0,210.0,3.0,0.0
5090,78.0,0.0,120.0,1.0,0.0
5091,90.0,96.0,120.0,0.0,0.0
5092,50.0,120.0,120.0,2.0,0.0
5093,54.0,24.0,210.0,3.0,0.0
5094,74.0,96.0,120.0,1.0,0.0
5095,86.0,0.0,120.0,0.0,0.0
5096,50.0,120.0,120.0,2.0,0.0
5097,57.0,24.0,210.0,3.0,0.0
5098,78.0,0.0,120.0,1.0,0.0
5099,90.0,96.0,120.0,0.0,0.0
5100,50.0,120.0,120.0,2.0,0.0
5101,74.0,0.0,120.0,1.0,0.0
5102,86.0,96.0,120.0,0.0,0.0
5103,54.0,24.0,210.0,3.0,0.0
5104,50.0,120.0,120.0,2.0,0.0
5105,69.0,0.0,120.0,1.0,0.0
5106,81.0,96.0,120.0,0.0,0.0
5107,60.0,24.0,210.0,3.0,0.0
5108,50.0,120.0,120.0,2.0,0.0
5109,66.0,96.0,120.0,1.0,0.0
5110,78.0,0.0,120.0,0.0,0.0
5111,57.0,24.0,210.0,3.0,0.0
5112,50.0,120.0,120.0,2.0,0.0
5113,81.0,96.0,120.0,0.0,0.0
5114,60.0,24.0,210.0,3.0,0.0
5115,69.0,0.0,120.0,1.0,0.0
5116,50.0,120.0,120.0,2.0,0.0
5117,66.0,0.0,120.0,1.0,0.0
5118,78.0,96.0,120.0,0.0,0.0
5119,57.0,24.0,210.0,3.0,0.0
5120,50.0,120.0,120.0,2.0,0.0
5121,81.0,0.0,120.0,0.0,0.0
5122,60.0,24.0,210.0,3.0,0.0
5123,69.0,96.0,120.0,1.0,0.0
5124,50.0,120.0,120.0,2.0,0.0
5125,66.0,0.0,120.0,1.0,0.0
5126,57.0,24.0,210.0,3.0,0.0
5127,78.0,96.0,120.0,0.0,0.0
5128,50.0,120.0,120.0,2.0,0.0
5129,81.0,96.0,120.0,0.0,0.0
5130,69.0,0.0,120.0,1.0,0.0
5131,60.0,24.0,210.0,3.0,0.0
5132,50.0,120.0,120.0,2.0,0.0
5133,78.0,0.0,120.0,0.0,0.0
5134,66.0,96.0,120.0,1.0,0.0
5135,57.0,24.0,210.0,3.0,0.0
5136,50.0,120.0,120.0,2.0,0.0
5137,63.0,24.0,210.0,3.0,0.0
5138,72.0,96.0,120.0,1.0,0.0
5139,84.0,0.0,120.0,0.0,0.0
5140,50.0,120.0,120.0,2.0,0.0
5141,60.0,24.0,210.0,3.0,0.0
5142,69.0,0.0,120.0,1.0,0.0
5143,81.0,96.0,120.0,0.0,0.0
5144,50.0,120.0,120.0,2.0,0.0
5145,63.0,12.0,240.0,3.0,0.0
5146,72.0,0.0,120.0,1.0,0.0
5147,84.0,108.0,120.0,0.0,0.0
5148,50.0,120.0,120.0,2.0,0.0
5149,69.0,0.0,120.0,1.0,0.0
5150,81.0,108.0,120.0,0.0,0.0
5151,60.0,12.0,240.0,3.0,0.0
5152,50.0,120.0,120.0,2.0,0.0
5153,72.0,108.0,120.0,1.0,0.0
5154,63.0,12.0,240.0,3.0,0.0
5155,84.0,0.0,120.0,0.0,0.0
5156,50.0,120.0,120.0,2.0,0.0
5157,60.0,12.0,240.0,3.0,0.0
5158,69.0,108.0,120.0,1.0,0.0
5159,81.0,0.0,120.0,0.0,0.0
5160,50.0,120.0,120.0,2.0,0.0
5161,63.0,12.0,240.0,3.0,0.0
5162,84.0,108.0,120.0,0.0,0.0
5163,72.0,0.0,120.0,1.0,0.0
5164,50.0,120.0,120.0,2.0,0.0
5165,60.0,12.0,240.0,3.0,0.0
5166,81.0,108.0,120.0,0.0,0.0
5167,69.0,0.0,120.0,1.0,0.0
5168,50.0,120.0,120.0,2.0,0.0
5169,69.0,108.0,120.0,1.0,0.0
5170,60.0,12.0,240.0,3.0,0.0
5171,81.0,0.0,120.0,0.0,0.0
5172,50.0,120.0,120.0,2.0,0.0
5173,78.0,0.0,120.0,0.0,0.0
5174,57.0,12.0,240.0,3.0,0.0
5175,66.0,108.0,120.0,1.0,0.0
5176,50.0,120.0,120.0,2.0,0.0
5177,63.0,12.0,240.0,3.0,0.0
5178,84.0,108.0,120.0,0.0,0.0
5179,72.0,0.0,120.0,1.0,0.0
5180,50.0,120.0,120.0,2.0,0.0
5181,69.0,0.0,120.0,1.0,0.0
5182,60.0,12.0,240.0,3.0,0.0
5183,81.0,108.0,120.0,0.0,0.0
5184,50.0,120.0,120.0,2.0,0.0
5185,81.0,108.0,120.0,0.0,0.0
5186,60.0,12.0,240.0,3.0,0.0
5187,69.0,0.0,120.0,1.0,0.0
5188,50.0,120.0,120.0,2.0,0.0
5189,66.0,108.0,120.0,1.0,0.0
5190,57.0,12.0,240.0,3.0,0.0
5191,78.0,0.0,120.0,0.0,0.0
5192,50.0,120.0,120.0,2.0,0.0
5193,84.0,0.0,120.0,0.0,0.0
5194,72.0,108.0,120.0,1.0,0.0
5195,63.0,12.0,240.0,3.0,0.0
5196,50.0,120.0,120.0,2.0,0.0
5197,60.0,12.0,240.0,3.0,0.0
5198,69.0,0.0,120.0,1.0,0.0
5199,81.0,108.0,120.0,0.0,0.0
5200,50.0,120.0,120.0,2.0,0.0
5201,81.0,0.0,120.0,0.0,0.0
5202,69.0,108.0,120.0,1.0,0.0
5203,60.0,12.0,240.0,3.0,0.0
5204,50.0,120.0,120.0,2.0,0.0
5205,57.0,12.0,240.0,3.0,0.0
5206,78.0,108.0,120.0,0.0,0.0
5207,66.0,0.0,120.0,1.0,0.0
5208,50.0,120.0,120.0,2.0,0.0
5209,78.0,0.0,120.0,0.0,0.0
5210,57.0,12.0,240.0,3.0,0.0
5211,66.0,108.0,120.0,1.0,0.0
5212,50.0,120.0,120.0,2.0,0.0
5213,72.0,108.0,120.0,0.0,0.0
5214,60.0,0.0,120.0,1.0,0.0
5215,54.0,12.0,240.0,3.0,0.0
5216,50.0,120.0,120.0,2.0,0.0
5217,54.0,12.0,240.0,3.0,0.0
5218,72.0,108.0,120.0,0.0,0.0
5219,60.0,0.0,120.0,1.0,0.0
5220,50.0,120.0,120.0,2.0,0.0
5221,48.0,12.0,240.0,3.0,0.0
5222,57.0,108.0,120.0,1.0,0.0
5223,69.0,0.0,120.0,0.0,0.0
5224,50.0,120.0,120.0,2.0,0.0
5225,57.0,0.0,120.0,1.0,0.0
5226,48.0,12.0,240.0,3.0,0.0
5227,69.0,108.0,120.0,0.0,0.0
5228,50.0,480.0,120.0,2.0,0.0
5229,57.0,80.0,960.0,1.0,0.0
5230,66.0,0.0,960.0,0.0,0.0
5231,60.0,0.0,960.0,1.0,0.0
5232,38.0,240.0,15.0,3.0,0.0
5233,38.0,240.0,15.0,3.0,0.0
5234,38.0,0.0,15.0,3.0,0.0
5235,48.0,80.0,90.0,0.0,0.0
5236,50.0,80.0,90.0,0.0,0.0
5237,48.0,0.0,90.0,0.0,0.0
5238,38.0,80.0,240.0,3.0,0.0
5239,50.0,80.0,90.0,0.0,0.0
5240,48.0,80.0,90.0,0.0,0.0
5241,50.0,0.0,90.0,0.0,0.0
5242,48.0,80.0,90.0,0.0,0.0
5243,50.0,80.0,90.0,0.0,0.0
5244,48.0,0.0,90.0,0.0,0.0
5245,38.0,120.0,15.0,3.0,0.0
5246,47.0,120.0,120.0,0.0,0.0
5247,48.0,0.0,120.0,0.0,0.0
5248,55.0,120.0,480.0,0.0,0.0
5249,43.0,120.0,120.0,3.0,0.0
5250,45.0,120.0,120.0,3.0,0.0
5251,47.0,0.0,120.0,3.0,0.0
5252,52.0,0.0,480.0,0.0,0.0
5253,48.0,120.0,120.0,3.0,0.0
5254,47.0,120.0,120.0,3.0,0.0
5255,45.0,120.0,120.0,3.0,0.0
5256,43.0,120.0,120.0,3.0,0.0
5257,42.0,120.0,120.0,3.0,0.0
5258,50.0,40.0,240.0,0.0,0.0
5259,40.0,19.0,180.0,3.0,0.0
5260,42.0,0.0,120.0,3.0,0.0
5261,48.0,21.0,30.0,0.0,0.0
5262,50.0,40.0,30.0,0.0,0.0
5263,48.0,60.0,30.0,0.0,0.0
5264,47.0,60.0,60.0,0.0,0.0
5265,38.0,0.0,120.0,3.0,0.0
5266,48.0,120.0,60.0,0.0,0.0
5267,43.0,120.0,120.0,3.0,0.0
5268,47.0,0.0,480.0,0.0,0.0
5269,42.0,120.0,120.0,3.0,0.0
5270,43.0,120.0,120.0,3.0,0.0
5271,44.0,120.0,120.0,3.0,0.0
5272,45.0,120.0,120.0,3.0,0.0
5273,48.0,0.0,120.0,0.0,0.0
5274,50.0,120.0,120.0,0.0,0.0
5275,47.0,0.0,120.0,3.0,0.0
5276,52.0,0.0,120.0,0.0,0.0
5277,48.0,120.0,120.0,3.0,0.0
5278,50.0,120.0,120.0,3.0,0.0
5279,54.0,0.0,120.0,0.0,0.0
5280,52.0,120.0,120.0,3.0,0.0
5281,55.0,0.0,120.0,0.0,0.0
5282,54.0,120.0,120.0,3.0,0.0
5283,57.0,0.0,120.0,0.0,0.0
5284,55.0,120.0,120.0,3.0,0.0
5285,59.0,0.0,120.0,0.0,0.0
5286,61.0,0.0,120.0,0.0,0.0
5287,52.0,120.0,120.0,3.0,0.0
5288,54.0,0.0,120.0,3.0,0.0
5289,62.0,120.0,120.0,0.0,0.0
5290,55.0,120.0,120.0,3.0,0.0
5291,64.0,0.0,120.0,0.0,0.0
5292,61.0,120.0,120.0,0.0,0.0
5293,57.0,0.0,120.0,3.0,0.0
5294,57.0,120.0,120.0,0.0,0.0
5295,55.0,0.0,120.0,3.0,0.0
5296,62.0,120.0,120.0,0.0,0.0
5297,54.0,0.0,120.0,3.0,0.0
5298,52.0,120.0,120.0,3.0,0.0
5299,74.0,0.0,120.0,0.0,0.0
5300,50.0,0.0,120.0,3.0,0.0
5301,62.0,120.0,120.0,1.0,0.0
5302,48.0,120.0,120.0,3.0,0.0
5303,67.0,120.0,480.0,1.0,0.0
5304,47.0,120.0,120.0,3.0,0.0
5305,79.0,0.0,480.0,0.0,0.0
5306,55.0,120.0,120.0,3.0,0.0
5307,57.0,120.0,120.0,3.0,0.0
5308,59.0,0.0,120.0,3.0,0.0
5309,76.0,0.0,480.0,0.0,0.0
5310,64.0,0.0,480.0,1.0,0.0
5311,60.0,120.0,120.0,3.0,0.0
5312,59.0,120.0,120.0,3.0,0.0
5313,57.0,120.0,120.0,3.0,0.0
5314,55.0,120.0,120.0,3.0,0.0
5315,74.0,0.0,240.0,0.0,0.0
5316,54.0,120.0,120.0,3.0,0.0
5317,52.0,40.0,120.0,3.0,0.0
5318,54.0,0.0,120.0,3.0,0.0
5319,72.0,40.0,30.0,0.0,0.0
5320,74.0,40.0,30.0,0.0,0.0
5321,72.0,60.0,30.0,0.0,0.0
5322,50.0,120.0,120.0,3.0,0.0
5323,71.0,60.0,60.0,0.0,0.0
5324,72.0,0.0,60.0,0.0,0.0
5325,71.0,0.0,480.0,0.0,0.0
5326,55.0,120.0,120.0,3.0,0.0
5327,54.0,120.0,120.0,3.0,0.0
5328,55.0,120.0,120.0,3.0,0.0
5329,56.0,120.0,120.0,3.0,0.0
5330,72.0,120.0,120.0,0.0,0.0
5331,57.0,0.0,120.0,3.0,0.0
5332,74.0,120.0,120.0,0.0,0.0
5333,59.0,0.0,120.0,3.0,0.0
5334,60.0,0.0,120.0,3.0,0.0
5335,76.0,120.0,120.0,0.0,0.0
5336,62.0,0.0,120.0,3.0,0.0
5337,78.0,120.0,120.0,0.0,0.0
5338,64.0,120.0,120.0,3.0,0.0
5339,79.0,0.0,120.0,0.0,0.0
5340,81.0,120.0,120.0,0.0,0.0
5341,66.0,0.0,120.0,3.0,0.0
5342,67.0,120.0,120.0,3.0,0.0
5343,83.0,0.0,120.0,0.0,0.0
5344,84.0,120.0,120.0,0.0,0.0
5345,69.0,0.0,120.0,3.0,0.0
5346,71.0,120.0,120.0,3.0,0.0
5347,62.0,0.0,480.0,3.0,0.0
5348,86.0,0.0,120.0,0.0,0.0
5349,88.0,0.0,120.0,0.0,0.0
5350,72.0,120.0,120.0,3.0,0.0
5351,84.0,120.0,120.0,0.0,0.0
5352,69.0,0.0,120.0,3.0,0.0
5353,66.0,120.0,120.0,3.0,0.0
5354,81.0,0.0,120.0,0.0,0.0
5355,79.0,0.0,120.0,0.0,0.0
5356,67.0,480.0,120.0,3.0,0.0
5357,55.0,0.0,120.0,3.0,0.0
5358,54.0,120.0,210.0,3.0,0.0
5359,74.0,96.0,120.0,0.0,0.0
5360,62.0,24.0,210.0,2.0,0.0
5361,78.0,0.0,120.0,0.0,0.0
5362,66.0,96.0,120.0,1.0,0.0
5363,57.0,120.0,210.0,3.0,0.0
5364,62.0,120.0,210.0,2.0,0.0
5365,81.0,96.0,480.0,0.0,0.0
5366,60.0,120.0,210.0,3.0,0.0
5367,69.0,0.0,480.0,1.0,0.0
5368,62.0,120.0,210.0,2.0,0.0
5369,60.0,24.0,210.0,3.0,0.0
5370,62.0,24.0,210.0,2.0,0.0
5371,66.0,0.0,120.0,1.0,0.0
5372,57.0,120.0,210.0,3.0,0.0
5373,78.0,96.0,120.0,0.0,0.0
5374,62.0,24.0,210.0,2.0,0.0
5375,69.0,0.0,120.0,1.0,0.0
5376,60.0,120.0,210.0,3.0,0.0
5377,81.0,96.0,120.0,0.0,0.0
5378,62.0,120.0,210.0,2.0,0.0
5379,84.0,0.0,720.0,0.0,0.0
5380,72.0,96.0,720.0,1.0,0.0
5381,64.0,120.0,210.0,3.0,0.0
5382,62.0,120.0,210.0,2.0,0.0
5383,64.0,120.0,210.0,3.0,0.0
5384,62.0,120.0,210.0,2.0,0.0
5385,64.0,24.0,210.0,3.0,0.0
5386,62.0,24.0,210.0,2.0,0.0
5387,64.0,120.0,210.0,3.0,0.0
5388,71.0,0.0,120.0,1.0,0.0
5389,83.0,96.0,120.0,0.0,0.0
5390,62.0,24.0,210.0,2.0,0.0
5391,69.0,96.0,120.0,1.0,0.0
5392,60.0,120.0,210.0,3.0,0.0
5393,81.0,0.0,120.0,0.0,0.0
5394,62.0,24.0,210.0,2.0,0.0
5395,59.0,120.0,210.0,3.0,0.0
5396,79.0,0.0,120.0,0.0,0.0
5397,67.0,96.0,120.0,1.0,0.0
5398,62.0,24.0,210.0,2.0,0.0
5399,76.0,0.0,120.0,0.0,0.0
5400,50.0,120.0,210.0,3.0,0.0
5401,60.0,0.0,210.0,3.0,0.0
5402,64.0,96.0,120.0,1.0,0.0
5403,62.0,24.0,210.0,2.0,0.0
5404,57.0,0.0,210.0,3.0,0.0
5405,50.0,24.0,210.0,3.0,0.0
5406,66.0,96.0,120.0,1.0,0.0
5407,78.0,0.0,120.0,0.0,0.0
5408,62.0,120.0,120.0,2.0,0.0
5409,67.0,96.0,120.0,1.0,0.0
5410,79.0,0.0,120.0,0.0,0.0
5411,59.0,0.0,210.0,3.0,0.0
5412,55.0,24.0,210.0,3.0,0.0
5413,62.0,120.0,120.0,3.0,0.0
5414,59.0,120.0,120.0,3.0,0.0
5415,55.0,120.0,120.0,3.0,0.0
5416,74.0,108.0,120.0,0.0,0.0
5417,54.0,108.0,240.0,3.0,0.0
5418,62.0,24.0,210.0,2.0,0.0
5419,78.0,0.0,120.0,0.0,0.0
5420,66.0,108.0,120.0,1.0,0.0
5421,57.0,108.0,240.0,3.0,0.0
5422,62.0,132.0,210.0,2.0,0.0
5423,81.0,96.0,480.0,0.0,0.0
5424,69.0,0.0,480.0,1.0,0.0
5425,60.0,108.0,240.0,3.0,0.0
5426,62.0,132.0,210.0,2.0,0.0
5427,60.0,12.0,240.0,3.0,0.0
5428,62.0,24.0,210.0,2.0,0.0
5429,57.0,108.0,240.0,3.0,0.0
5430,78.0,0.0,120.0,0.0,0.0
5431,66.0,108.0,120.0,1.0,0.0
5432,62.0,24.0,210.0,2.0,0.0
5433,69.0,0.0,120.0,1.0,0.0
5434,60.0,108.0,240.0,3.0,0.0
5435,81.0,108.0,120.0,0.0,0.0
5436,62.0,132.0,210.0,2.0,0.0
5437,84.0,96.0,720.0,0.0,0.0
5438,72.0,0.0,720.0,1.0,0.0
5439,63.0,108.0,240.0,3.0,0.0
5440,62.0,132.0,210.0,2.0,0.0
5441,63.0,108.0,240.0,3.0,0.0
5442,62.0,132.0,210.0,2.0,0.0
5443,63.0,12.0,240.0,3.0,0.0
5444,62.0,31.0,210.0,2.0,0.0
5445,82.0,0.0,120.0,0.0,0.0
5446,70.0,101.0,120.0,1.0,0.0
5447,63.0,108.0,240.0,3.0,0.0
5448,62.0,24.0,210.0,2.0,0.0
5449,81.0,0.0,120.0,0.0,0.0
5450,69.0,108.0,120.0,1.0,0.0
5451,60.0,108.0,240.0,3.0,0.0
5452,62.0,24.0,210.0,2.0,0.0
5453,79.0,0.0,120.0,0.0,0.0
5454,67.0,108.0,120.0,1.0,0.0
5455,58.0,108.0,240.0,3.0,0.0
5456,62.0,24.0,210.0,2.0,0.0
5457,78.0,108.0,120.0,0.0,0.0
5458,66.0,0.0,120.0,1.0,0.0
5459,57.0,108.0,240.0,3.0,0.0
5460,62.0,24.0,210.0,2.0,0.0
5461,67.0,0.0,120.0,1.0,0.0
5462,58.0,108.0,240.0,3.0,0.0
5463,79.0,108.0,120.0,0.0,0.0
5464,62.0,24.0,210.0,2.0,0.0
5465,57.0,108.0,240.0,3.0,0.0
5466,63.0,101.0,120.0,1.0,0.0
5467,75.0,7.0,120.0,0.0,0.0
5468,62.0,24.0,210.0,2.0,0.0
5469,58.0,108.0,240.0,3.0,0.0
5470,73.0,108.0,120.0,0.0,0.0
5471,62.0,24.0,210.0,2.0,0.0
5472,74.0,108.0,120.0,0.0,0.0
5473,55.0,108.0,240.0,3.0,0.0
5474,62.0,24.0,210.0,2.0,0.0
5475,57.0,108.0,240.0,3.0,0.0
5476,66.0,0.0,120.0,1.0,0.0
5477,78.0,108.0,120.0,0.0,0.0
5478,62.0,132.0,210.0,2.0,0.0
5479,81.0,0.0,480.0,0.0,0.0
5480,69.0,96.0,480.0,1.0,0.0
5481,60.0,108.0,240.0,3.0,0.0
5482,62.0,132.0,210.0,2.0,0.0
5483,60.0,12.0,240.0,3.0,0.0
5484,62.0,24.0,210.0,2.0,0.0
5485,78.0,0.0,120.0,0.0,0.0
5486,66.0,84.0,120.0,1.0,0.0
5487,57.0,132.0,210.0,3.0,0.0
5488,62.0,24.0,210.0,2.0,0.0
5489,69.0,84.0,120.0,1.0,0.0
5490,81.0,0.0,120.0,0.0,0.0
5491,60.0,132.0,210.0,3.0,0.0
5492,62.0,108.0,210.0,2.0,0.0
5493,84.0,96.0,720.0,0.0,0.0
5494,63.0,132.0,210.0,3.0,0.0
5495,72.0,0.0,720.0,1.0,0.0
5496,62.0,108.0,210.0,2.0,0.0
5497,63.0,132.0,210.0,3.0,0.0
5498,62.0,108.0,210.0,2.0,0.0
5499,63.0,36.0,210.0,3.0,0.0
5500,53.0,23.0,1650.0,3.0,0.0
5501,62.0,24.0,210.0,2.0,0.0
5502,63.0,132.0,210.0,3.0,0.0
5503,70.0,77.0,120.0,1.0,0.0
5504,82.0,7.0,120.0,0.0,0.0
5505,62.0,24.0,210.0,2.0,0.0
5506,69.0,0.0,120.0,1.0,0.0
5507,81.0,84.0,120.0,0.0,0.0
5508,60.0,132.0,210.0,3.0,0.0
5509,62.0,24.0,210.0,2.0,0.0
5510,67.0,0.0,120.0,1.0,0.0
5511,58.0,132.0,210.0,3.0,0.0
5512,79.0,84.0,120.0,0.0,0.0
5513,62.0,24.0,210.0,2.0,0.0
5514,65.0,0.0,120.0,1.0,0.0
5515,77.0,84.0,120.0,0.0,0.0
5516,57.0,36.0,210.0,3.0,0.0
5517,62.0,24.0,210.0,2.0,0.0
5518,60.0,96.0,120.0,3.0,0.0
5519,58.0,48.0,180.0,3.0,0.0
5520,78.0,72.0,120.0,0.0,0.0
5521,66.0,0.0,120.0,1.0,0.0
5522,62.0,0.0,120.0,2.0,0.0
5523,62.0,120.0,120.0,3.0,0.0
5524,65.0,0.0,120.0,1.0,0.0
5525,77.0,72.0,120.0,0.0,0.0
5526,57.0,25.0,180.0,3.0,0.0
5527,60.0,120.0,120.0,3.0,0.0
5528,57.0,12.0,180.0,3.0,0.0
5529,75.0,0.0,120.0,0.0,0.0
5530,53.0,36.0,210.0,3.0,0.0
5531,63.0,72.0,120.0,1.0,0.0
5532,60.0,120.0,120.0,3.0,0.0
5533,46.0,120.0,240.0,3.0,0.0
5534,62.0,0.0,120.0,1.0,0.0
5535,74.0,120.0,120.0,0.0,0.0
5536,58.0,0.0,240.0,3.0,0.0
5537,58.0,0.0,120.0,0.0,0.0
5538,60.0,120.0,120.0,0.0,0.0
5539,62.0,120.0,120.0,0.0,0.0
5540,43.0,120.0,240.0,3.0,0.0
5541,55.0,0.0,240.0,3.0,0.0
5542,63.0,120.0,120.0,0.0,0.0
5543,62.0,0.0,120.0,0.0,0.0
5544,63.0,120.0,120.0,0.0,0.0
5545,64.0,120.0,120.0,0.0,0.0
5546,65.0,120.0,120.0,0.0,0.0
5547,41.0,0.0,720.0,3.0,0.0
5548,53.0,0.0,720.0,3.0,0.0
5549,64.0,120.0,120.0,0.0,0.0
5550,65.0,120.0,120.0,0.0,0.0
5551,67.0,120.0,120.0,0.0,0.0
5552,69.0,120.0,120.0,0.0,0.0
5553,65.0,120.0,120.0,0.0,0.0
5554,39.0,0.0,120.0,3.0,0.0
5555,51.0,0.0,120.0,3.0,0.0
5556,67.0,120.0,120.0,0.0,0.0
5557,69.0,120.0,120.0,0.0,0.0
5558,38.0,120.0,120.0,3.0,0.0
5559,50.0,0.0,120.0,3.0,0.0
5560,70.0,0.0,120.0,0.0,0.0
5561,68.0,120.0,120.0,0.0,0.0
5562,70.0,120.0,120.0,0.0,0.0
5563,34.0,0.0,120.0,3.0,0.0
5564,46.0,0.0,120.0,3.0,0.0
5565,69.0,120.0,120.0,0.0,0.0
5566,40.0,0.0,120.0,3.0,0.0
5567,70.0,120.0,120.0,0.0,0.0
5568,52.0,0.0,120.0,3.0,0.0
5569,74.0,120.0,120.0,0.0,0.0
5570,72.0,0.0,120.0,0.0,0.0
5571,36.0,120.0,120.0,3.0,0.0
5572,48.0,0.0,120.0,3.0,0.0
5573,70.0,120.0,120.0,0.0,0.0
5574,41.0,0.0,120.0,3.0,0.0
5575,53.0,120.0,120.0,3.0,0.0
5576,69.0,0.0,240.0,0.0,0.0
5577,77.0,120.0,240.0,0.0,0.0
5578,53.0,0.0,120.0,3.0,0.0
5579,55.0,120.0,120.0,3.0,0.0
5580,57.0,120.0,120.0,3.0,0.0
5581,74.0,120.0,240.0,0.0,0.0
5582,58.0,120.0,120.0,3.0,0.0
5583,57.0,0.0,120.0,3.0,0.0
5584,58.0,120.0,120.0,3.0,0.0
5585,59.0,120.0,120.0,3.0,0.0
5586,72.0,0.0,720.0,0.0,0.0
5587,60.0,120.0,120.0,3.0,0.0
5588,59.0,120.0,120.0,3.0,0.0
5589,60.0,120.0,120.0,3.0,0.0
5590,62.0,120.0,120.0,3.0,0.0
5591,64.0,120.0,120.0,3.0,0.0
5592,60.0,120.0,120.0,3.0,0.0
5593,70.0,0.0,240.0,0.0,0.0
5594,62.0,120.0,120.0,3.0,0.0
5595,64.0,120.0,120.0,3.0,0.0
5596,69.0,0.0,120.0,0.0,0.0
5597,65.0,120.0,120.0,3.0,0.0
5598,64.0,120.0,120.0,3.0,0.0
5599,70.0,120.0,120.0,0.0,0.0
5600,65.0,0.0,120.0,3.0,0.0
5601,67.0,120.0,120.0,3.0,0.0
5602,69.0,0.0,120.0,3.0,0.0
5603,72.0,120.0,120.0,0.0,0.0
5604,70.0,120.0,120.0,3.0,0.0
5605,72.0,120.0,120.0,3.0,0.0
5606,75.0,0.0,120.0,1.0,0.0
5607,77.0,0.0,120.0,0.0,0.0
5608,69.0,240.0,120.0,3.0,0.0
5609,74.0,0.0,240.0,1.0,0.0
5610,82.0,0.0,240.0,0.0,0.0
5611,70.0,120.0,240.0,1.0,0.0
5612,77.0,0.0,240.0,1.0,0.0
5613,34.0,0.0,120.0,3.0,0.0
5614,36.0,120.0,120.0,3.0,0.0
5615,38.0,120.0,120.0,3.0,0.0
5616,74.0,0.0,240.0,1.0,0.0
5617,67.0,0.0,240.0,1.0,0.0
5618,39.0,120.0,120.0,3.0,0.0
5619,72.0,0.0,240.0,1.0,0.0
5620,79.0,120.0,240.0,0.0,0.0
5621,38.0,0.0,120.0,3.0,0.0
5622,39.0,120.0,120.0,3.0,0.0
5623,40.0,120.0,120.0,3.0,0.0
5624,69.0,120.0,720.0,1.0,0.0
5625,41.0,120.0,120.0,3.0,0.0
5626,77.0,0.0,720.0,0.0,0.0
5627,72.0,0.0,720.0,1.0,0.0
5628,65.0,0.0,720.0,1.0,0.0
5629,40.0,120.0,120.0,3.0,0.0
5630,41.0,120.0,120.0,3.0,0.0
5631,43.0,120.0,120.0,3.0,0.0
5632,45.0,120.0,120.0,3.0,0.0
5633,41.0,0.0,120.0,3.0,0.0
5634,43.0,0.0,120.0,3.0,0.0
5635,75.0,0.0,120.0,0.0,0.0
5636,63.0,120.0,120.0,1.0,0.0
5637,45.0,120.0,120.0,3.0,0.0
5638,74.0,0.0,120.0,0.0,0.0
5639,62.0,120.0,120.0,1.0,0.0
5640,46.0,0.0,120.0,3.0,0.0
5641,45.0,120.0,120.0,3.0,0.0
5642,70.0,0.0,120.0,0.0,0.0
5643,58.0,120.0,120.0,1.0,0.0
5644,46.0,0.0,120.0,3.0,0.0
5645,50.0,120.0,120.0,3.0,0.0
5646,76.0,0.0,120.0,0.0,0.0
5647,48.0,0.0,120.0,3.0,0.0
5648,64.0,120.0,120.0,1.0,0.0
5649,46.0,120.0,120.0,3.0,0.0
5650,61.0,0.0,120.0,1.0,0.0
5651,45.0,0.0,120.0,3.0,0.0
5652,73.0,120.0,120.0,0.0,0.0
5653,43.0,120.0,120.0,3.0,0.0
5654,65.0,0.0,720.0,1.0,0.0
5655,77.0,120.0,720.0,0.0,0.0
5656,45.0,120.0,120.0,3.0,0.0
5657,44.0,120.0,120.0,3.0,0.0
5658,45.0,120.0,120.0,3.0,0.0
5659,41.0,120.0,120.0,3.0,0.0
5660,47.0,120.0,120.0,3.0,0.0
5661,46.0,0.0,120.0,3.0,0.0
5662,77.0,0.0,120.0,0.0,0.0
5663,65.0,0.0,120.0,1.0,0.0
5664,47.0,120.0,120.0,3.0,0.0
5665,43.0,120.0,120.0,3.0,0.0
5666,48.0,0.0,120.0,3.0,0.0
5667,75.0,120.0,120.0,0.0,0.0
5668,63.0,0.0,120.0,1.0,0.0
5669,47.0,120.0,120.0,3.0,0.0
5670,60.0,0.0,120.0,1.0,0.0
5671,72.0,120.0,120.0,0.0,0.0
5672,48.0,0.0,120.0,3.0,0.0
5673,51.0,120.0,120.0,3.0,0.0
5674,66.0,0.0,120.0,1.0,0.0
5675,78.0,0.0,120.0,0.0,0.0
5676,50.0,120.0,120.0,3.0,0.0
5677,48.0,120.0,120.0,3.0,0.0
5678,46.0,120.0,120.0,3.0,0.0
5679,62.0,0.0,120.0,1.0,0.0
5680,74.0,0.0,120.0,0.0,0.0
5681,45.0,120.0,120.0,3.0,0.0
5682,79.0,120.0,720.0,0.0,0.0
5683,47.0,120.0,120.0,3.0,0.0
5684,45.0,120.0,120.0,3.0,0.0
5685,47.0,120.0,120.0,3.0,0.0
5686,43.0,120.0,120.0,3.0,0.0
5687,49.0,120.0,120.0,3.0,0.0
5688,48.0,0.0,120.0,3.0,0.0
5689,67.0,0.0,15.0,1.0,0.0
5690,49.0,120.0,120.0,3.0,0.0
5691,79.0,0.0,120.0,0.0,0.0
5692,45.0,120.0,120.0,3.0,0.0
5693,62.0,0.0,240.0,3.0,0.0
5694,50.0,120.0,240.0,3.0,0.0
5695,77.0,120.0,120.0,0.0,0.0
5696,74.0,0.0,120.0,0.0,0.0
5697,76.0,120.0,120.0,0.0,0.0
5698,77.0,120.0,120.0,0.0,0.0
5699,46.0,120.0,240.0,3.0,0.0
5700,79.0,120.0,120.0,0.0,0.0
5701,58.0,0.0,240.0,3.0,0.0
5702,78.0,0.0,120.0,0.0,0.0
5703,79.0,120.0,120.0,0.0,0.0
5704,80.0,120.0,120.0,0.0,0.0
5705,57.0,120.0,720.0,3.0,0.0
5706,81.0,120.0,120.0,0.0,0.0
5707,45.0,0.0,720.0,3.0,0.0
5708,80.0,120.0,120.0,0.0,0.0
5709,81.0,120.0,120.0,0.0,0.0
5710,83.0,120.0,120.0,0.0,0.0
5711,85.0,120.0,120.0,0.0,0.0
5712,81.0,0.0,120.0,0.0,0.0
5713,55.0,0.0,120.0,3.0,0.0
5714,43.0,120.0,120.0,3.0,0.0
5715,83.0,0.0,120.0,0.0,0.0
5716,85.0,120.0,120.0,0.0,0.0
5717,86.0,0.0,120.0,0.0,0.0
5718,41.0,120.0,120.0,3.0,0.0
5719,53.0,0.0,120.0,3.0,0.0
5720,85.0,120.0,120.0,0.0,0.0
5721,38.0,0.0,120.0,3.0,0.0
5722,50.0,120.0,120.0,3.0,0.0
5723,86.0,0.0,120.0,0.0,0.0
5724,85.0,120.0,120.0,0.0,0.0
5725,44.0,0.0,120.0,3.0,0.0
5726,56.0,0.0,120.0,3.0,0.0
5727,86.0,120.0,120.0,0.0,0.0
5728,89.0,120.0,120.0,0.0,0.0
5729,88.0,0.0,120.0,0.0,0.0
5730,52.0,0.0,120.0,3.0,0.0
5731,40.0,120.0,120.0,3.0,0.0
5732,86.0,120.0,120.0,0.0,0.0
5733,57.0,0.0,360.0,3.0,0.0
5734,45.0,0.0,360.0,3.0,0.0
5735,72.0,240.0,120.0,1.0,0.0
5736,84.0,0.0,120.0,0.0,0.0
5737,81.0,0.0,120.0,0.0,0.0
5738,69.0,240.0,120.0,1.0,0.0
5739,54.0,240.0,120.0,3.0,0.0
5740,42.0,0.0,120.0,3.0,0.0
5741,74.0,0.0,360.0,1.0,0.0
5742,86.0,240.0,360.0,0.0,0.0
5743,38.0,0.0,120.0,3.0,0.0
5744,50.0,0.0,120.0,3.0,0.0
5745,43.0,0.0,360.0,3.0,0.0
5746,55.0,0.0,360.0,3.0,0.0
5747,82.0,0.0,120.0,0.0,0.0
5748,70.0,240.0,120.0,1.0,0.0
5749,67.0,0.0,120.0,1.0,0.0
5750,79.0,240.0,120.0,0.0,0.0
5751,84.0,0.0,360.0,0.0,0.0
5752,72.0,0.0,360.0,1.0,0.0
5753,40.0,240.0,120.0,3.0,0.0
5754,52.0,0.0,120.0,3.0,0.0
5755,48.0,0.0,120.0,3.0,0.0
5756,36.0,300.0,120.0,3.0,0.0
5757,81.0,0.0,180.0,0.0,0.0
5758,50.0,300.0,180.0,3.0,0.0
5759,69.0,0.0,180.0,1.0,0.0
5760,38.0,0.0,180.0,3.0,0.0
5761,77.0,0.0,240.0,0.0,0.0
5762,62.0,240.0,240.0,3.0,0.0
5763,82.0,240.0,240.0,0.0,0.0
5764,55.0,0.0,240.0,3.0,0.0
5765,58.0,0.0,240.0,3.0,0.0
5766,79.0,240.0,240.0,0.0,0.0
5767,60.0,240.0,240.0,3.0,0.0
5768,76.0,0.0,240.0,0.0,0.0
5769,53.0,0.0,240.0,3.0,0.0
5770,81.0,240.0,240.0,0.0,0.0
5771,57.0,0.0,240.0,3.0,0.0
5772,77.0,240.0,240.0,0.0,0.0
5773,58.0,240.0,240.0,3.0,0.0
5774,74.0,0.0,240.0,0.0,0.0
5775,79.0,0.0,240.0,0.0,0.0
5776,52.0,240.0,240.0,3.0,0.0
5777,76.0,0.0,240.0,0.0,0.0
5778,55.0,120.0,240.0,3.0,0.0
5779,57.0,60.0,120.0,3.0,0.0
5780,73.0,180.0,180.0,0.0,0.0
5781,89.0,0.0,120.0,0.0,0.0
5782,50.0,0.0,120.0,3.0,0.0
5783,62.0,240.0,120.0,3.0,0.0
5784,77.0,0.0,120.0,1.0,0.0
5785,53.0,0.0,120.0,3.0,0.0
5786,86.0,240.0,120.0,0.0,0.0
5787,65.0,0.0,120.0,3.0,0.0
5788,74.0,0.0,120.0,1.0,0.0
5789,70.0,240.0,120.0,1.0,0.0
5790,82.0,0.0,120.0,0.0,0.0
5791,55.0,0.0,120.0,3.0,0.0
5792,67.0,0.0,120.0,3.0,0.0
5793,48.0,0.0,120.0,3.0,0.0
5794,60.0,240.0,120.0,3.0,0.0
5795,75.0,0.0,120.0,1.0,0.0
5796,87.0,0.0,120.0,0.0,0.0
5797,72.0,0.0,120.0,1.0,0.0
5798,51.0,240.0,120.0,3.0,0.0
5799,63.0,0.0,120.0,3.0,0.0
5800,84.0,0.0,120.0,0.0,0.0
5801,65.0,240.0,120.0,3.0,0.0
5802,69.0,0.0,120.0,1.0,0.0
5803,53.0,0.0,120.0,3.0,0.0
5804,81.0,0.0,120.0,0.0,0.0
5805,58.0,0.0,120.0,3.0,0.0
5806,86.0,0.0,120.0,0.0,0.0
5807,74.0,0.0,120.0,1.0,0.0
5808,46.0,240.0,120.0,3.0,0.0
5809,70.0,0.0,120.0,1.0,0.0
5810,62.0,0.0,120.0,3.0,0.0
5811,50.0,0.0,120.0,3.0,0.0
5812,82.0,240.0,120.0,0.0,0.0
5813,51.0,0.0,120.0,3.0,0.0
5814,63.0,0.0,120.0,3.0,0.0
5815,67.0,0.0,120.0,1.0,0.0
5816,79.0,240.0,120.0,0.0,0.0
5817,45.0,0.0,120.0,3.0,0.0
5818,72.0,0.0,120.0,1.0,0.0
5819,57.0,0.0,120.0,3.0,0.0
5820,84.0,240.0,120.0,0.0,0.0
5821,48.0,240.0,120.0,3.0,0.0
5822,60.0,0.0,120.0,3.0,0.0
5823,81.0,0.0,120.0,0.0,0.0
5824,69.0,0.0,120.0,1.0,0.0
5825,50.0,240.0,120.0,3.0,0.0
5826,62.0,0.0,120.0,3.0,0.0
5827,66.0,0.0,120.0,1.0,0.0
5828,78.0,0.0,120.0,0.0,0.0
5829,79.0,0.0,120.0,0.0,0.0
5830,67.0,0.0,120.0,1.0,0.0
5831,46.0,0.0,120.0,3.0,0.0
5832,58.0,336.0,120.0,3.0,0.0
5833,68.0,8.0,240.0,1.0,0.0
5834,74.0,0.0,240.0,1.0,0.0
5835,77.0,0.0,240.0,1.0,0.0
5836,47.0,16.0,210.0,3.0,0.0
5837,59.0,0.0,120.0,3.0,0.0
5838,80.0,216.0,120.0,0.0,0.0
5839,74.0,0.0,240.0,1.0,0.0
5840,47.0,16.0,210.0,3.0,0.0
5841,68.0,0.0,240.0,1.0,0.0
5842,77.0,8.0,240.0,1.0,0.0
5843,80.0,216.0,120.0,0.0,0.0
5844,59.0,0.0,120.0,3.0,0.0
5845,46.0,16.0,210.0,3.0,0.0
5846,77.0,0.0,240.0,1.0,0.0
5847,74.0,8.0,240.0,1.0,0.0
5848,68.0,0.0,240.0,1.0,0.0
5849,80.0,216.0,120.0,0.0,0.0
5850,58.0,0.0,120.0,3.0,0.0
5851,77.0,0.0,240.0,1.0,0.0
5852,74.0,0.0,240.0,1.0,0.0
5853,68.0,8.0,240.0,1.0,0.0
5854,46.0,16.0,210.0,3.0,0.0
5855,58.0,0.0,120.0,3.0,0.0
5856,80.0,216.0,120.0,0.0,0.0
5857,45.0,16.0,210.0,3.0,0.0
5858,68.0,8.0,240.0,1.0,0.0
5859,74.0,0.0,240.0,1.0,0.0
5860,77.0,0.0,240.0,1.0,0.0
5861,80.0,0.0,120.0,0.0,0.0
5862,57.0,216.0,120.0,3.0,0.0
5863,77.0,0.0,240.0,1.0,0.0
5864,74.0,8.0,240.0,1.0,0.0
5865,45.0,16.0,210.0,3.0,0.0
5866,68.0,0.0,240.0,1.0,0.0
5867,57.0,228.0,120.0,3.0,0.0
5868,80.0,0.0,120.0,0.0,0.0
5869,67.0,8.0,240.0,1.0,0.0
5870,64.0,0.0,240.0,1.0,0.0
5871,33.0,4.0,240.0,3.0,0.0
5872,45.0,0.0,120.0,3.0,0.0
5873,73.0,228.0,120.0,0.0,0.0
5874,67.0,0.0,240.0,1.0,0.0
5875,33.0,4.0,240.0,3.0,0.0
5876,64.0,8.0,240.0,1.0,0.0
5877,73.0,0.0,120.0,0.0,0.0
5878,45.0,228.0,120.0,3.0,0.0
5879,74.0,228.0,240.0,0.0,0.0
5880,65.0,0.0,240.0,1.0,0.0
5881,62.0,0.0,240.0,1.0,0.0
5882,38.0,12.0,240.0,3.0,0.0
5883,50.0,0.0,120.0,3.0,0.0
5884,38.0,12.0,240.0,3.0,0.0
5885,50.0,228.0,120.0,3.0,0.0
5886,77.0,228.0,240.0,1.0,0.0
5887,68.0,0.0,240.0,1.0,0.0
5888,74.0,0.0,240.0,1.0,0.0
5889,80.0,0.0,240.0,0.0,0.0
5890,34.0,12.0,240.0,3.0,0.0
5891,46.0,0.0,120.0,3.0,0.0
5892,34.0,12.0,240.0,3.0,0.0
5893,46.0,228.0,120.0,3.0,0.0
5894,33.0,12.0,240.0,3.0,0.0
5895,81.0,0.0,720.0,0.0,0.0
5896,74.0,0.0,720.0,1.0,0.0
5897,69.0,0.0,720.0,1.0,0.0
5898,77.0,0.0,720.0,1.0,0.0
5899,45.0,228.0,120.0,3.0,0.0
5900,33.0,12.0,240.0,3.0,0.0
5901,45.0,228.0,120.0,3.0,0.0
5902,33.0,12.0,240.0,3.0,0.0
5903,45.0,120.0,120.0,3.0,0.0
5904,73.0,108.0,120.0,0.0,0.0
5905,33.0,12.0,240.0,3.0,0.0
5906,61.0,0.0,120.0,1.0,0.0
5907,45.0,228.0,120.0,3.0,0.0
5908,74.0,0.0,240.0,0.0,0.0
5909,62.0,228.0,240.0,1.0,0.0
5910,38.0,12.0,240.0,3.0,0.0
5911,50.0,0.0,120.0,3.0,0.0
5912,38.0,12.0,240.0,3.0,0.0
5913,50.0,228.0,120.0,3.0,0.0
5914,34.0,12.0,240.0,3.0,0.0
5915,89.0,0.0,240.0,1.0,0.0
5916,86.0,0.0,240.0,1.0,0.0
5917,80.0,0.0,240.0,1.0,0.0
5918,92.0,0.0,240.0,0.0,0.0
5919,46.0,228.0,120.0,3.0,0.0
5920,34.0,12.0,240.0,3.0,0.0
5921,46.0,228.0,120.0,3.0,0.0
5922,89.0,0.0,720.0,1.0,0.0
5923,81.0,0.0,720.0,1.0,0.0
5924,86.0,0.0,720.0,1.0,0.0
5925,93.0,0.0,720.0,0.0,0.0
5926,33.0,12.0,240.0,3.0,0.0
5927,45.0,228.0,120.0,3.0,0.0
5928,33.0,12.0,240.0,3.0,0.0
5929,45.0,228.0,120.0,3.0,0.0
5930,33.0,12.0,240.0,3.0,0.0
5931,45.0,120.0,120.0,3.0,0.0
5932,73.0,0.0,120.0,1.0,0.0
5933,85.0,96.0,120.0,0.0,0.0
5934,33.0,24.0,210.0,3.0,0.0
5935,45.0,120.0,120.0,3.0,0.0
5936,74.0,0.0,120.0,1.0,0.0
5937,86.0,96.0,120.0,0.0,0.0
5938,38.0,24.0,210.0,3.0,0.0
5939,50.0,216.0,120.0,3.0,0.0
5940,68.0,0.0,240.0,1.0,0.0
5941,80.0,120.0,240.0,0.0,0.0
5942,34.0,24.0,210.0,3.0,0.0
5943,46.0,0.0,120.0,3.0,0.0
5944,33.0,24.0,210.0,3.0,0.0
5945,69.0,0.0,120.0,1.0,0.0
5946,81.0,96.0,120.0,0.0,0.0
5947,45.0,120.0,120.0,3.0,0.0
5948,33.0,24.0,210.0,3.0,0.0
5949,61.0,96.0,120.0,1.0,0.0
5950,73.0,0.0,120.0,0.0,0.0
5951,45.0,120.0,120.0,3.0,0.0
5952,74.0,96.0,120.0,0.0,0.0
5953,38.0,24.0,210.0,3.0,0.0
5954,62.0,0.0,120.0,1.0,0.0
5955,50.0,216.0,120.0,3.0,0.0
5956,34.0,24.0,210.0,3.0,0.0
5957,92.0,0.0,240.0,0.0,0.0
5958,80.0,120.0,240.0,1.0,0.0
5959,46.0,0.0,120.0,3.0,0.0
5960,33.0,24.0,210.0,3.0,0.0
5961,93.0,96.0,120.0,0.0,0.0
5962,81.0,0.0,120.0,1.0,0.0
5963,45.0,120.0,120.0,3.0,0.0
5964,73.0,0.0,120.0,1.0,0.0
5965,85.0,96.0,120.0,0.0,0.0
5966,33.0,24.0,210.0,3.0,0.0
5967,45.0,120.0,120.0,3.0,0.0
5968,86.0,96.0,120.0,0.0,0.0
5969,74.0,0.0,120.0,1.0,0.0
5970,38.0,24.0,210.0,3.0,0.0
5971,50.0,216.0,120.0,3.0,0.0
5972,80.0,120.0,240.0,0.0,0.0
5973,34.0,24.0,210.0,3.0,0.0
5974,68.0,0.0,240.0,1.0,0.0
5975,46.0,0.0,120.0,3.0,0.0
5976,33.0,24.0,210.0,3.0,0.0
5977,69.0,0.0,120.0,1.0,0.0
5978,81.0,96.0,120.0,0.0,0.0
5979,45.0,120.0,120.0,3.0,0.0
5980,73.0,96.0,120.0,0.0,0.0
5981,61.0,0.0,120.0,1.0,0.0
5982,33.0,24.0,210.0,3.0,0.0
5983,45.0,120.0,120.0,3.0,0.0
5984,74.0,0.0,120.0,0.0,0.0
5985,62.0,96.0,120.0,1.0,0.0
5986,38.0,24.0,210.0,3.0,0.0
5987,50.0,216.0,120.0,3.0,0.0
5988,80.0,120.0,240.0,1.0,0.0
5989,92.0,0.0,240.0,0.0,0.0
5990,34.0,24.0,210.0,3.0,0.0
5991,46.0,0.0,120.0,3.0,0.0
5992,33.0,24.0,210.0,3.0,0.0
5993,93.0,0.0,120.0,0.0,0.0
5994,81.0,96.0,120.0,1.0,0.0
5995,45.0,120.0,120.0,3.0,0.0
5996,33.0,24.0,210.0,3.0,0.0
5997,85.0,96.0,120.0,0.0,0.0
5998,73.0,0.0,120.0,1.0,0.0
5999,45.0,120.0,120.0,3.0,0.0
6000,50.0,120.0,240.0,3.0,0.0
6001,86.0,120.0,120.0,0.0,0.0
6002,38.0,0.0,240.0,3.0,0.0
6003,74.0,0.0,120.0,1.0,0.0
6004,74.0,240.0,120.0,1.0,0.0
6005,86.0,0.0,120.0,0.0,0.0
6006,86.0,0.0,120.0,0.0,0.0
6007,74.0,240.0,120.0,1.0,0.0
6008,86.0,240.0,120.0,0.0,0.0
6009,74.0,0.0,120.0,1.0,0.0
6010,86.0,240.0,120.0,0.0,0.0
6011,74.0,0.0,120.0,1.0,0.0
6012,74.0,240.0,120.0,1.0,0.0
6013,86.0,0.0,120.0,0.0,0.0
6014,74.0,0.0,120.0,1.0,0.0
6015,86.0,240.0,120.0,0.0,0.0
6016,86.0,0.0,120.0,0.0,0.0
6017,67.0,120.0,240.0,3.0,0.0
6018,70.0,0.0,240.0,3.0,0.0
6019,74.0,120.0,120.0,1.0,0.0
6020,74.0,120.0,120.0,1.0,0.0
6021,72.0,120.0,240.0,3.0,0.0
6022,86.0,0.0,120.0,0.0,0.0
6023,74.0,120.0,120.0,1.0,0.0
6024,69.0,0.0,15.0,3.0,0.0
6025,86.0,0.0,120.0,0.0,0.0
6026,66.0,0.0,240.0,3.0,0.0
6027,74.0,0.0,120.0,1.0,0.0
6028,86.0,36.0,120.0,0.0,0.0
6029,67.0,204.0,150.0,3.0,0.0
6030,70.0,0.0,150.0,3.0,0.0
6031,74.0,120.0,120.0,1.0,0.0
6032,67.0,0.0,240.0,3.0,0.0
6033,86.0,0.0,120.0,0.0,0.0
6034,70.0,120.0,240.0,3.0,0.0
6035,74.0,120.0,120.0,1.0,0.0
6036,86.0,0.0,120.0,0.0,0.0
6037,72.0,0.0,240.0,3.0,0.0
6038,86.0,120.0,120.0,0.0,0.0
6039,69.0,120.0,15.0,3.0,0.0
6040,66.0,0.0,240.0,3.0,0.0
6041,74.0,0.0,120.0,1.0,0.0
6042,67.0,204.0,150.0,3.0,0.0
6043,70.0,0.0,150.0,3.0,0.0
6044,86.0,0.0,120.0,0.0,0.0
6045,74.0,36.0,120.0,1.0,0.0
6046,74.0,120.0,120.0,1.0,0.0
6047,86.0,0.0,120.0,0.0,0.0
6048,70.0,120.0,240.0,3.0,0.0
6049,67.0,0.0,240.0,3.0,0.0
6050,86.0,120.0,120.0,0.0,0.0
6051,72.0,0.0,240.0,3.0,0.0
6052,74.0,0.0,120.0,1.0,0.0
6053,74.0,0.0,120.0,1.0,0.0
6054,69.0,120.0,15.0,3.0,0.0
6055,66.0,0.0,240.0,3.0,0.0
6056,86.0,120.0,120.0,0.0,0.0
6057,67.0,204.0,150.0,3.0,0.0
6058,86.0,0.0,120.0,0.0,0.0
6059,70.0,0.0,150.0,3.0,0.0
6060,74.0,36.0,120.0,1.0,0.0
6061,70.0,0.0,120.0,1.0,0.0
6062,82.0,240.0,120.0,0.0,0.0
6063,82.0,0.0,120.0,0.0,0.0
6064,70.0,240.0,120.0,1.0,0.0
6065,70.0,0.0,120.0,1.0,0.0
6066,82.0,240.0,120.0,0.0,0.0
6067,82.0,240.0,120.0,0.0,0.0
6068,70.0,0.0,120.0,1.0,0.0
6069,63.0,120.0,240.0,3.0,0.0
6070,67.0,0.0,240.0,3.0,0.0
6071,70.0,120.0,120.0,1.0,0.0
6072,82.0,0.0,120.0,0.0,0.0
6073,82.0,0.0,120.0,0.0,0.0
6074,69.0,0.0,240.0,3.0,0.0
6075,70.0,120.0,120.0,1.0,0.0
6076,70.0,0.0,120.0,1.0,0.0
6077,62.0,120.0,240.0,3.0,0.0
6078,82.0,120.0,120.0,0.0,0.0
6079,65.0,120.0,15.0,3.0,0.0
6080,70.0,36.0,120.0,1.0,0.0
6081,67.0,0.0,150.0,3.0,0.0
6082,63.0,204.0,150.0,3.0,0.0
6083,82.0,0.0,120.0,0.0,0.0
6084,70.0,120.0,120.0,1.0,0.0
6085,67.0,120.0,240.0,3.0,0.0
6086,63.0,0.0,240.0,3.0,0.0
6087,82.0,0.0,120.0,0.0,0.0
6088,82.0,120.0,120.0,0.0,0.0
6089,70.0,0.0,120.0,1.0,0.0
6090,69.0,0.0,240.0,3.0,0.0
6091,82.0,120.0,120.0,0.0,0.0
6092,62.0,0.0,240.0,3.0,0.0
6093,65.0,120.0,15.0,3.0,0.0
6094,70.0,0.0,120.0,1.0,0.0
6095,67.0,0.0,150.0,3.0,0.0
6096,63.0,204.0,150.0,3.0,0.0
6097,82.0,0.0,120.0,0.0,0.0
6098,70.0,36.0,120.0,1.0,0.0
6099,63.0,0.0,240.0,3.0,0.0
6100,70.0,120.0,120.0,1.0,0.0
6101,82.0,0.0,120.0,0.0,0.0
6102,67.0,120.0,240.0,3.0,0.0
6103,82.0,120.0,120.0,0.0,0.0
6104,70.0,0.0,120.0,1.0,0.0
6105,69.0,120.0,240.0,3.0,0.0
6106,62.0,120.0,240.0,3.0,0.0
6107,65.0,0.0,15.0,3.0,0.0
6108,82.0,120.0,120.0,0.0,0.0
6109,70.0,0.0,120.0,1.0,0.0
6110,70.0,36.0,120.0,1.0,0.0
6111,82.0,0.0,120.0,0.0,0.0
6112,67.0,204.0,150.0,3.0,0.0
6113,63.0,0.0,150.0,3.0,0.0
6114,67.0,240.0,120.0,1.0,0.0
6115,79.0,0.0,120.0,0.0,0.0
6116,79.0,240.0,120.0,0.0,0.0
6117,67.0,0.0,120.0,1.0,0.0
6118,79.0,240.0,120.0,0.0,0.0
6119,67.0,0.0,120.0,1.0,0.0
6120,67.0,240.0,120.0,1.0,0.0
6121,79.0,0.0,120.0,0.0,0.0
6122,79.0,0.0,120.0,0.0,0.0
6123,63.0,120.0,240.0,3.0,0.0
6124,60.0,0.0,240.0,3.0,0.0
6125,67.0,120.0,120.0,1.0,0.0
6126,67.0,0.0,120.0,1.0,0.0
6127,65.0,120.0,240.0,3.0,0.0
6128,79.0,120.0,120.0,0.0,0.0
6129,62.0,0.0,15.0,3.0,0.0
6130,59.0,0.0,240.0,3.0,0.0
6131,79.0,0.0,120.0,0.0,0.0
6132,67.0,120.0,120.0,1.0,0.0
6133,60.0,204.0,150.0,3.0,0.0
6134,63.0,0.0,150.0,3.0,0.0
6135,79.0,0.0,120.0,0.0,0.0
6136,67.0,36.0,120.0,1.0,0.0
6137,79.0,0.0,120.0,0.0,0.0
6138,63.0,120.0,240.0,3.0,0.0
6139,60.0,0.0,240.0,3.0,0.0
6140,67.0,120.0,120.0,1.0,0.0
6141,67.0,120.0,120.0,1.0,0.0
6142,62.0,120.0,240.0,3.0,0.0
6143,65.0,0.0,240.0,3.0,0.0
6144,79.0,0.0,120.0,0.0,0.0
6145,62.0,120.0,240.0,3.0,0.0
6146,79.0,0.0,120.0,0.0,0.0
6147,59.0,0.0,240.0,3.0,0.0
6148,67.0,120.0,120.0,1.0,0.0
6149,63.0,0.0,150.0,3.0,0.0
6150,79.0,0.0,120.0,0.0,0.0
6151,67.0,36.0,120.0,1.0,0.0
6152,60.0,204.0,150.0,3.0,0.0
6153,60.0,120.0,240.0,3.0,0.0
6154,63.0,0.0,240.0,3.0,0.0
6155,79.0,120.0,120.0,0.0,0.0
6156,67.0,0.0,120.0,1.0,0.0
6157,65.0,0.0,240.0,3.0,0.0
6158,79.0,120.0,120.0,0.0,0.0
6159,67.0,0.0,120.0,1.0,0.0
6160,67.0,120.0,120.0,1.0,0.0
6161,79.0,0.0,120.0,0.0,0.0
6162,62.0,120.0,15.0,3.0,0.0
6163,59.0,0.0,240.0,3.0,0.0
6164,67.0,0.0,120.0,1.0,0.0
6165,60.0,204.0,150.0,3.0,0.0
6166,63.0,0.0,150.0,3.0,0.0
6167,79.0,36.0,120.0,0.0,0.0
6168,79.0,0.0,120.0,0.0,0.0
6169,67.0,240.0,120.0,1.0,0.0
6170,79.0,240.0,120.0,0.0,0.0
6171,67.0,0.0,120.0,1.0,0.0
6172,79.0,240.0,120.0,0.0,0.0
6173,67.0,0.0,120.0,1.0,0.0
6174,67.0,0.0,120.0,1.0,0.0
6175,79.0,240.0,120.0,0.0,0.0
6176,60.0,120.0,240.0,3.0,0.0
6177,79.0,0.0,120.0,0.0,0.0
6178,63.0,0.0,240.0,3.0,0.0
6179,67.0,120.0,120.0,1.0,0.0
6180,65.0,120.0,240.0,3.0,0.0
6181,79.0,0.0,120.0,0.0,0.0
6182,67.0,120.0,120.0,1.0,0.0
6183,62.0,0.0,15.0,3.0,0.0
6184,67.0,120.0,120.0,1.0,0.0
6185,59.0,0.0,240.0,3.0,0.0
6186,79.0,0.0,120.0,0.0,0.0
6187,63.0,204.0,150.0,3.0,0.0
6188,79.0,0.0,120.0,0.0,0.0
6189,67.0,36.0,120.0,1.0,0.0
6190,60.0,0.0,150.0,3.0,0.0
6191,79.0,0.0,120.0,0.0,0.0
6192,67.0,240.0,120.0,1.0,0.0
6193,79.0,0.0,120.0,0.0,0.0
6194,67.0,240.0,120.0,1.0,0.0
6195,67.0,240.0,120.0,1.0,0.0
6196,79.0,0.0,120.0,0.0,0.0
6197,67.0,240.0,120.0,1.0,0.0
6198,79.0,0.0,120.0,0.0,0.0
6199,79.0,120.0,120.0,0.0,0.0
6200,67.0,0.0,120.0,1.0,0.0
6201,63.0,0.0,240.0,3.0,0.0
6202,79.0,0.0,240.0,0.0,0.0
6203,57.0,0.0,150.0,3.0,0.0
6204,60.0,156.0,15.0,3.0,0.0
6205,67.0,120.0,240.0,1.0,0.0
6206,66.0,240.0,120.0,1.0,0.0
6207,78.0,0.0,120.0,0.0,0.0
6208,66.0,240.0,120.0,1.0,0.0
6209,78.0,0.0,120.0,0.0,0.0
6210,78.0,240.0,120.0,0.0,0.0
6211,66.0,0.0,120.0,1.0,0.0
6212,66.0,0.0,120.0,1.0,0.0
6213,78.0,240.0,120.0,0.0,0.0
6214,78.0,0.0,120.0,0.0,0.0
6215,66.0,240.0,120.0,1.0,0.0
6216,66.0,240.0,120.0,1.0,0.0
6217,78.0,0.0,120.0,0.0,0.0
6218,78.0,0.0,120.0,0.0,0.0
6219,60.0,0.0,240.0,3.0,0.0
6220,57.0,156.0,240.0,3.0,0.0
6221,66.0,120.0,120.0,1.0,0.0
6222,80.0,0.0,240.0,0.0,0.0
6223,68.0,120.0,240.0,1.0,0.0
6224,54.0,84.0,150.0,3.0,0.0
6225,57.0,0.0,150.0,3.0,0.0
6226,81.0,0.0,120.0,0.0,0.0
6227,69.0,240.0,120.0,1.0,0.0
6228,81.0,240.0,120.0,0.0,0.0
6229,69.0,0.0,120.0,1.0,0.0
6230,69.0,240.0,120.0,1.0,0.0
6231,81.0,0.0,120.0,0.0,0.0
6232,81.0,0.0,120.0,0.0,0.0
6233,69.0,240.0,120.0,1.0,0.0
6234,69.0,240.0,120.0,1.0,0.0
6235,81.0,0.0,120.0,0.0,0.0
6236,81.0,0.0,120.0,0.0,0.0
6237,69.0,240.0,120.0,1.0,0.0
6238,57.0,0.0,240.0,3.0,0.0
6239,54.0,156.0,240.0,3.0,0.0
6240,81.0,120.0,120.0,0.0,0.0
6241,69.0,0.0,120.0,1.0,0.0
6242,73.0,0.0,240.0,1.0,0.0
6243,85.0,120.0,240.0,0.0,0.0
6244,50.0,0.0,150.0,3.0,0.0
6245,54.0,84.0,150.0,3.0,0.0
6246,74.0,0.0,120.0,1.0,0.0
6247,86.0,240.0,120.0,0.0,0.0
6248,86.0,240.0,120.0,0.0,0.0
6249,74.0,0.0,120.0,1.0,0.0
6250,86.0,240.0,120.0,0.0,0.0
6251,74.0,0.0,120.0,1.0,0.0
6252,74.0,0.0,120.0,1.0,0.0
6253,86.0,240.0,120.0,0.0,0.0
6254,74.0,240.0,120.0,1.0,0.0
6255,86.0,0.0,120.0,0.0,0.0
6256,86.0,0.0,120.0,0.0,0.0
6257,74.0,240.0,120.0,1.0,0.0
6258,86.0,0.0,120.0,0.0,0.0
6259,57.0,0.0,240.0,3.0,0.0
6260,54.0,240.0,240.0,3.0,0.0
6261,74.0,120.0,120.0,1.0,0.0
6262,85.0,120.0,240.0,0.0,0.0
6263,73.0,0.0,240.0,1.0,0.0
6264,50.0,0.0,360.0,3.0,0.0
6265,54.0,0.0,360.0,3.0,0.0
6266,74.0,240.0,120.0,1.0,0.0
6267,86.0,0.0,120.0,0.0,0.0
6268,86.0,0.0,120.0,0.0,0.0
6269,74.0,240.0,120.0,1.0,0.0
6270,74.0,0.0,120.0,1.0,0.0
6271,86.0,120.0,120.0,0.0,0.0
6272,57.0,0.0,240.0,3.0,0.0
6273,85.0,0.0,240.0,0.0,0.0
6274,73.0,120.0,240.0,1.0,0.0
6275,54.0,240.0,15.0,3.0,0.0
6276,50.0,240.0,360.0,3.0,0.0
6277,86.0,0.0,120.0,0.0,0.0
6278,74.0,0.0,120.0,1.0,0.0
6279,74.0,0.0,120.0,1.0,0.0
6280,86.0,240.0,120.0,0.0,0.0
6281,86.0,0.0,120.0,0.0,0.0
6282,74.0,120.0,120.0,1.0,0.0
6283,54.0,240.0,240.0,3.0,0.0
6284,57.0,0.0,240.0,3.0,0.0
6285,73.0,120.0,240.0,1.0,0.0
6286,50.0,240.0,360.0,3.0,0.0
6287,85.0,0.0,240.0,0.0,0.0
6288,54.0,0.0,360.0,3.0,0.0
6289,86.0,0.0,120.0,0.0,0.0
6290,74.0,0.0,120.0,1.0,0.0
6291,86.0,240.0,120.0,0.0,0.0
6292,74.0,0.0,120.0,1.0,0.0
6293,74.0,0.0,120.0,1.0,0.0
6294,86.0,240.0,120.0,0.0,0.0
6295,74.0,0.0,120.0,1.0,0.0
6296,86.0,240.0,120.0,0.0,0.0
6297,74.0,240.0,120.0,1.0,0.0
6298,86.0,0.0,120.0,0.0,0.0
6299,74.0,0.0,120.0,1.0,0.0
6300,86.0,240.0,120.0,0.0,0.0
6301,74.0,0.0,120.0,1.0,0.0
6302,86.0,182.0,120.0,0.0,0.0
6303,86.0,26.0,120.0,0.0,0.0
6304,42.0,58.0,60.0,3.0,0.0
6305,74.0,0.0,120.0,1.0,0.0
6306,43.0,85.0,60.0,3.0,0.0
6307,42.0,84.0,60.0,3.0,0.0
6308,43.0,45.0,60.0,3.0,0.0
6309,86.0,0.0,120.0,0.0,0.0
6310,74.0,39.0,120.0,1.0,0.0
6311,42.0,84.0,90.0,3.0,0.0
6312,43.0,85.0,90.0,3.0,0.0
6313,86.0,52.0,120.0,0.0,0.0
6314,42.0,32.0,90.0,3.0,0.0
6315,74.0,0.0,120.0,1.0,0.0
6316,43.0,84.0,90.0,3.0,0.0
6317,42.0,84.0,90.0,3.0,0.0
6318,74.0,65.0,120.0,1.0,0.0
6319,86.0,0.0,120.0,0.0,0.0
6320,43.0,20.0,90.0,3.0,0.0
6321,42.0,84.0,120.0,3.0,0.0
6322,43.0,84.0,120.0,3.0,0.0
6323,74.0,0.0,120.0,1.0,0.0
6324,86.0,77.0,120.0,0.0,0.0
6325,42.0,7.0,120.0,3.0,0.0
6326,43.0,85.0,120.0,3.0,0.0
6327,42.0,78.0,120.0,3.0,0.0
6328,43.0,84.0,120.0,3.0,0.0
6329,74.0,0.0,120.0,1.0,0.0
6330,86.0,6.0,120.0,0.0,0.0
6331,42.0,84.0,120.0,3.0,0.0
6332,43.0,66.0,120.0,3.0,0.0
6333,86.0,19.0,120.0,0.0,0.0
6334,42.0,84.0,150.0,3.0,0.0
6335,74.0,0.0,120.0,1.0,0.0
6336,43.0,84.0,150.0,3.0,0.0
6337,42.0,53.0,150.0,3.0,0.0
6338,74.0,0.0,120.0,1.0,0.0
6339,86.0,54.0,120.0,0.0,0.0
6340,40.0,66.0,180.0,3.0,0.0
6341,42.0,240.0,120.0,3.0,0.0
6342,55.0,120.0,480.0,0.0,0.0
6343,43.0,120.0,240.0,3.0,0.0
6344,45.0,120.0,120.0,3.0,0.0
6345,47.0,0.0,120.0,3.0,0.0
6346,48.0,120.0,120.0,3.0,0.0
6347,52.0,0.0,480.0,0.0,0.0
6348,47.0,120.0,120.0,3.0,0.0
6349,45.0,120.0,120.0,3.0,0.0
6350,43.0,120.0,120.0,3.0,0.0
6351,50.0,40.0,240.0,0.0,0.0
6352,42.0,120.0,120.0,3.0,0.0
6353,40.0,19.0,180.0,3.0,0.0
6354,42.0,60.0,120.0,3.0,0.0
6355,48.0,21.0,30.0,0.0,0.0
6356,50.0,40.0,30.0,0.0,0.0
6357,48.0,0.0,30.0,0.0,0.0
6358,47.0,60.0,60.0,0.0,0.0
6359,38.0,0.0,120.0,3.0,0.0
6360,48.0,120.0,60.0,0.0,0.0
6361,43.0,120.0,120.0,3.0,0.0
6362,47.0,0.0,480.0,0.0,0.0
6363,42.0,120.0,120.0,3.0,0.0
6364,43.0,120.0,120.0,3.0,0.0
6365,44.0,120.0,120.0,3.0,0.0
6366,45.0,0.0,120.0,3.0,0.0
6367,48.0,120.0,120.0,0.0,0.0
6368,50.0,0.0,120.0,0.0,0.0
6369,47.0,120.0,120.0,3.0,0.0
6370,52.0,0.0,120.0,0.0,0.0
6371,48.0,120.0,120.0,3.0,0.0
6372,50.0,120.0,120.0,3.0,0.0
6373,54.0,0.0,120.0,0.0,0.0
6374,52.0,120.0,120.0,3.0,0.0
6375,55.0,0.0,120.0,0.0,0.0
6376,57.0,120.0,120.0,0.0,0.0
6377,54.0,0.0,120.0,3.0,0.0
6378,59.0,0.0,120.0,0.0,0.0
6379,55.0,120.0,120.0,3.0,0.0
6380,61.0,0.0,120.0,0.0,0.0
6381,52.0,120.0,120.0,3.0,0.0
6382,62.0,0.0,120.0,0.0,0.0
6383,54.0,120.0,120.0,3.0,0.0
6384,55.0,0.0,120.0,3.0,0.0
6385,64.0,120.0,120.0,0.0,0.0
6386,61.0,0.0,120.0,0.0,0.0
6387,57.0,120.0,120.0,3.0,0.0
6388,55.0,0.0,120.0,3.0,0.0
6389,57.0,120.0,120.0,0.0,0.0
6390,62.0,120.0,120.0,0.0,0.0
6391,54.0,0.0,120.0,3.0,0.0
6392,52.0,120.0,120.0,3.0,0.0
6393,62.0,0.0,120.0,1.0,0.0
6394,74.0,120.0,120.0,0.0,0.0
6395,50.0,0.0,120.0,3.0,0.0
6396,48.0,120.0,120.0,3.0,0.0
6397,47.0,120.0,120.0,3.0,0.0
6398,79.0,0.0,480.0,0.0,0.0
6399,67.0,120.0,480.0,1.0,0.0
6400,55.0,120.0,120.0,3.0,0.0
6401,57.0,120.0,120.0,3.0,0.0
6402,59.0,0.0,120.0,3.0,0.0
6403,60.0,120.0,120.0,3.0,0.0
6404,64.0,0.0,480.0,1.0,0.0
6405,76.0,0.0,480.0,0.0,0.0
6406,59.0,120.0,120.0,3.0,0.0
6407,57.0,120.0,120.0,3.0,0.0
6408,55.0,120.0,120.0,3.0,0.0
6409,54.0,120.0,120.0,3.0,0.0
6410,74.0,0.0,240.0,0.0,0.0
6411,52.0,40.0,120.0,3.0,0.0
6412,72.0,40.0,30.0,0.0,0.0
6413,54.0,0.0,120.0,3.0,0.0
6414,74.0,40.0,30.0,0.0,0.0
6415,72.0,60.0,30.0,0.0,0.0
6416,71.0,60.0,60.0,0.0,0.0
6417,50.0,0.0,120.0,3.0,0.0
6418,72.0,120.0,60.0,0.0,0.0
6419,71.0,120.0,480.0,0.0,0.0
6420,55.0,120.0,120.0,3.0,0.0
6421,54.0,120.0,120.0,3.0,0.0
6422,55.0,120.0,120.0,3.0,0.0
6423,56.0,0.0,120.0,3.0,0.0
6424,72.0,0.0,120.0,0.0,0.0
6425,57.0,120.0,120.0,3.0,0.0
6426,74.0,0.0,120.0,0.0,0.0
6427,59.0,120.0,120.0,3.0,0.0
6428,76.0,0.0,120.0,0.0,0.0
6429,60.0,120.0,120.0,3.0,0.0
6430,78.0,120.0,120.0,0.0,0.0
6431,62.0,0.0,120.0,3.0,0.0
6432,64.0,0.0,120.0,3.0,0.0
6433,79.0,120.0,120.0,0.0,0.0
6434,81.0,0.0,120.0,0.0,0.0
6435,66.0,120.0,120.0,3.0,0.0
6436,67.0,120.0,120.0,3.0,0.0
6437,83.0,0.0,120.0,0.0,0.0
6438,69.0,0.0,120.0,3.0,0.0
6439,84.0,120.0,120.0,0.0,0.0
6440,62.0,0.0,480.0,3.0,0.0
6441,86.0,0.0,120.0,0.0,0.0
6442,71.0,120.0,120.0,3.0,0.0
6443,88.0,0.0,120.0,0.0,0.0
6444,72.0,120.0,120.0,3.0,0.0
6445,84.0,120.0,120.0,0.0,0.0
6446,69.0,0.0,120.0,3.0,0.0
6447,66.0,180.0,120.0,3.0,0.0
6448,81.0,0.0,120.0,0.0,0.0
6449,55.0,420.0,180.0,3.0,0.0
6450,67.0,0.0,180.0,3.0,0.0
6451,79.0,0.0,180.0,0.0,0.0
6452,74.0,108.0,120.0,0.0,0.0
6453,54.0,120.0,240.0,3.0,0.0
6454,62.0,12.0,240.0,2.0,0.0
6455,78.0,108.0,120.0,0.0,0.0
6456,66.0,0.0,120.0,1.0,0.0
6457,57.0,120.0,240.0,3.0,0.0
6458,62.0,120.0,240.0,2.0,0.0
6459,60.0,120.0,240.0,3.0,0.0
6460,81.0,108.0,480.0,0.0,0.0
6461,69.0,0.0,480.0,1.0,0.0
6462,62.0,120.0,240.0,2.0,0.0
6463,60.0,12.0,240.0,3.0,0.0
6464,62.0,12.0,240.0,2.0,0.0
6465,78.0,0.0,120.0,0.0,0.0
6466,66.0,108.0,120.0,1.0,0.0
6467,57.0,120.0,240.0,3.0,0.0
6468,62.0,12.0,240.0,2.0,0.0
6469,69.0,0.0,120.0,1.0,0.0
6470,81.0,108.0,120.0,0.0,0.0
6471,60.0,120.0,240.0,3.0,0.0
6472,62.0,120.0,240.0,2.0,0.0
6473,84.0,108.0,720.0,0.0,0.0
6474,64.0,120.0,240.0,3.0,0.0
6475,72.0,0.0,720.0,1.0,0.0
6476,62.0,120.0,240.0,2.0,0.0
6477,64.0,120.0,240.0,3.0,0.0
6478,62.0,120.0,240.0,2.0,0.0
6479,64.0,12.0,240.0,3.0,0.0
6480,62.0,12.0,240.0,2.0,0.0
6481,71.0,0.0,120.0,1.0,0.0
6482,64.0,120.0,240.0,3.0,0.0
6483,83.0,108.0,120.0,0.0,0.0
6484,62.0,12.0,240.0,2.0,0.0
6485,69.0,0.0,120.0,1.0,0.0
6486,81.0,108.0,120.0,0.0,0.0
6487,60.0,120.0,240.0,3.0,0.0
6488,62.0,12.0,240.0,2.0,0.0
6489,67.0,0.0,120.0,1.0,0.0
6490,59.0,120.0,240.0,3.0,0.0
6491,79.0,108.0,120.0,0.0,0.0
6492,62.0,12.0,240.0,2.0,0.0
6493,57.0,120.0,240.0,3.0,0.0
6494,78.0,0.0,120.0,0.0,0.0
6495,66.0,108.0,120.0,1.0,0.0
6496,62.0,12.0,240.0,2.0,0.0
6497,79.0,0.0,120.0,0.0,0.0
6498,59.0,120.0,240.0,3.0,0.0
6499,67.0,108.0,120.0,1.0,0.0
6500,62.0,12.0,240.0,2.0,0.0
6501,64.0,108.0,120.0,1.0,0.0
6502,55.0,120.0,240.0,3.0,0.0
6503,76.0,0.0,120.0,0.0,0.0
6504,62.0,12.0,240.0,2.0,0.0
6505,52.0,120.0,240.0,3.0,0.0
6506,73.0,108.0,120.0,0.0,0.0
6507,62.0,12.0,240.0,2.0,0.0
6508,54.0,120.0,240.0,3.0,0.0
6509,74.0,108.0,120.0,0.0,0.0
6510,62.0,12.0,240.0,2.0,0.0
6511,78.0,0.0,120.0,0.0,0.0
6512,66.0,108.0,120.0,1.0,0.0
6513,57.0,120.0,240.0,3.0,0.0
6514,62.0,120.0,240.0,2.0,0.0
6515,81.0,0.0,480.0,0.0,0.0
6516,60.0,120.0,240.0,3.0,0.0
6517,69.0,108.0,480.0,1.0,0.0
6518,62.0,120.0,240.0,2.0,0.0
6519,60.0,12.0,240.0,3.0,0.0
6520,62.0,12.0,240.0,2.0,0.0
6521,78.0,108.0,120.0,0.0,0.0
6522,66.0,0.0,120.0,1.0,0.0
6523,57.0,120.0,240.0,3.0,0.0
6524,62.0,12.0,240.0,2.0,0.0
6525,69.0,108.0,120.0,1.0,0.0
6526,81.0,0.0,120.0,0.0,0.0
6527,60.0,120.0,240.0,3.0,0.0
6528,62.0,120.0,240.0,2.0,0.0
6529,72.0,108.0,720.0,1.0,0.0
6530,64.0,120.0,240.0,3.0,0.0
6531,84.0,0.0,720.0,0.0,0.0
6532,62.0,120.0,240.0,2.0,0.0
6533,64.0,120.0,240.0,3.0,0.0
6534,62.0,120.0,240.0,2.0,0.0
6535,64.0,12.0,240.0,3.0,0.0
6536,62.0,12.0,240.0,2.0,0.0
6537,83.0,108.0,120.0,0.0,0.0
6538,71.0,0.0,120.0,1.0,0.0
6539,64.0,120.0,240.0,3.0,0.0
6540,62.0,12.0,240.0,2.0,0.0
6541,60.0,120.0,240.0,3.0,0.0
6542,69.0,0.0,120.0,1.0,0.0
6543,81.0,108.0,120.0,0.0,0.0
6544,62.0,12.0,240.0,2.0,0.0
6545,67.0,0.0,120.0,1.0,0.0
6546,79.0,108.0,120.0,0.0,0.0
6547,59.0,120.0,240.0,3.0,0.0
6548,62.0,12.0,240.0,2.0,0.0
6549,64.0,0.0,120.0,1.0,0.0
6550,60.0,120.0,240.0,3.0,0.0
6551,50.0,0.0,240.0,3.0,0.0
6552,76.0,108.0,120.0,0.0,0.0
6553,62.0,12.0,240.0,2.0,0.0
6554,50.0,12.0,240.0,3.0,0.0
6555,66.0,108.0,120.0,1.0,0.0
6556,78.0,0.0,120.0,0.0,0.0
6557,57.0,0.0,240.0,3.0,0.0
6558,62.0,180.0,120.0,2.0,0.0
6559,59.0,12.0,240.0,3.0,0.0
6560,55.0,0.0,240.0,3.0,0.0
6561,79.0,48.0,180.0,0.0,0.0
6562,67.0,0.0,180.0,1.0,0.0
6563,62.0,120.0,120.0,3.0,0.0
6564,59.0,120.0,120.0,3.0,0.0
6565,55.0,120.0,120.0,3.0,0.0
6566,50.0,0.0,120.0,3.0,0.0
6567,62.0,228.0,120.0,3.0,0.0
6568,86.0,12.0,240.0,2.0,0.0
6569,66.0,0.0,120.0,3.0,0.0
6570,54.0,120.0,120.0,3.0,0.0
6571,85.0,108.0,240.0,0.0,0.0
6572,86.0,132.0,240.0,2.0,0.0
6573,57.0,0.0,480.0,3.0,0.0
6574,69.0,108.0,480.0,3.0,0.0
6575,85.0,108.0,240.0,0.0,0.0
6576,86.0,132.0,240.0,2.0,0.0
6577,84.0,0.0,240.0,0.0,0.0
6578,86.0,12.0,240.0,2.0,0.0
6579,54.0,120.0,120.0,3.0,0.0
6580,66.0,0.0,120.0,3.0,0.0
6581,81.0,108.0,240.0,0.0,0.0
6582,86.0,12.0,240.0,2.0,0.0
6583,57.0,120.0,120.0,3.0,0.0
6584,85.0,108.0,240.0,0.0,0.0
6585,69.0,0.0,120.0,3.0,0.0
6586,86.0,132.0,240.0,2.0,0.0
6587,81.0,108.0,240.0,0.0,0.0
6588,72.0,0.0,720.0,3.0,0.0
6589,60.0,0.0,720.0,3.0,0.0
6590,86.0,132.0,240.0,2.0,0.0
6591,78.0,108.0,240.0,0.0,0.0
6592,86.0,132.0,240.0,2.0,0.0
6593,86.0,12.0,240.0,2.0,0.0
6594,79.0,0.0,240.0,0.0,0.0
6595,74.0,108.0,15.0,0.0,0.0
6596,71.0,120.0,120.0,3.0,0.0
6597,59.0,0.0,120.0,3.0,0.0
6598,86.0,12.0,240.0,2.0,0.0
6599,57.0,0.0,120.0,3.0,0.0
6600,69.0,120.0,120.0,3.0,0.0
6601,81.0,0.0,240.0,0.0,0.0
6602,78.0,108.0,240.0,0.0,0.0
6603,86.0,12.0,240.0,2.0,0.0
6604,67.0,0.0,120.0,3.0,0.0
6605,55.0,120.0,120.0,3.0,0.0
6606,83.0,0.0,240.0,0.0,0.0
6607,79.0,108.0,240.0,0.0,0.0
6608,86.0,12.0,240.0,2.0,0.0
6609,54.0,0.0,120.0,3.0,0.0
6610,66.0,120.0,120.0,3.0,0.0
6611,84.0,0.0,240.0,0.0,0.0
6612,81.0,108.0,240.0,0.0,0.0
6613,86.0,12.0,240.0,2.0,0.0
6614,67.0,120.0,120.0,3.0,0.0
6615,83.0,0.0,240.0,0.0,0.0
6616,55.0,0.0,120.0,3.0,0.0
6617,86.0,12.0,240.0,2.0,0.0
6618,79.0,108.0,15.0,0.0,0.0
6619,52.0,120.0,120.0,3.0,0.0
6620,64.0,0.0,120.0,3.0,0.0
6621,83.0,0.0,240.0,0.0,0.0
6622,86.0,12.0,240.0,2.0,0.0
6623,79.0,108.0,240.0,0.0,0.0
6624,61.0,120.0,120.0,3.0,0.0
6625,49.0,0.0,120.0,3.0,0.0
6626,83.0,0.0,240.0,0.0,0.0
6627,86.0,12.0,240.0,2.0,0.0
6628,81.0,0.0,240.0,0.0,0.0
6629,78.0,108.0,240.0,0.0,0.0
6630,62.0,120.0,120.0,3.0,0.0
6631,50.0,0.0,120.0,3.0,0.0
6632,86.0,12.0,240.0,2.0,0.0
6633,66.0,0.0,120.0,3.0,0.0
6634,54.0,120.0,120.0,3.0,0.0
6635,86.0,132.0,240.0,2.0,0.0
6636,57.0,0.0,480.0,3.0,0.0
6637,85.0,108.0,15.0,0.0,0.0
6638,69.0,0.0,480.0,3.0,0.0
6639,86.0,132.0,240.0,2.0,0.0
6640,84.0,108.0,240.0,0.0,0.0
6641,86.0,12.0,240.0,2.0,0.0
6642,54.0,120.0,120.0,3.0,0.0
6643,81.0,108.0,240.0,0.0,0.0
6644,66.0,0.0,120.0,3.0,0.0
6645,86.0,12.0,240.0,2.0,0.0
6646,69.0,120.0,120.0,3.0,0.0
6647,57.0,0.0,120.0,3.0,0.0
6648,85.0,108.0,240.0,0.0,0.0
6649,86.0,132.0,240.0,2.0,0.0
6650,72.0,0.0,720.0,3.0,0.0
6651,81.0,108.0,240.0,0.0,0.0
6652,60.0,0.0,720.0,3.0,0.0
6653,86.0,132.0,240.0,2.0,0.0
6654,78.0,108.0,240.0,0.0,0.0
6655,86.0,132.0,240.0,2.0,0.0
6656,74.0,108.0,240.0,0.0,0.0
6657,86.0,12.0,240.0,2.0,0.0
6658,59.0,120.0,120.0,3.0,0.0
6659,71.0,0.0,120.0,3.0,0.0
6660,79.0,0.0,240.0,0.0,0.0
6661,74.0,108.0,240.0,0.0,0.0
6662,86.0,12.0,240.0,2.0,0.0
6663,81.0,0.0,240.0,0.0,0.0
6664,57.0,0.0,120.0,3.0,0.0
6665,78.0,108.0,240.0,0.0,0.0
6666,69.0,120.0,120.0,3.0,0.0
6667,86.0,12.0,240.0,2.0,0.0
6668,83.0,0.0,240.0,0.0,0.0
6669,67.0,0.0,120.0,3.0,0.0
6670,55.0,120.0,120.0,3.0,0.0
6671,86.0,12.0,240.0,2.0,0.0
6672,84.0,108.0,240.0,0.0,0.0
6673,64.0,0.0,120.0,3.0,0.0
6674,52.0,120.0,120.0,3.0,0.0
6675,79.0,108.0,15.0,0.0,0.0
6676,86.0,12.0,240.0,2.0,0.0
6677,54.0,120.0,120.0,3.0,0.0
6678,66.0,0.0,120.0,3.0,0.0
6679,81.0,0.0,240.0,0.0,0.0
6680,73.0,120.0,240.0,0.0,0.0
6681,86.0,0.0,120.0,2.0,0.0
6682,71.0,0.0,240.0,0.0,0.0
6683,67.0,120.0,120.0,3.0,0.0
6684,55.0,0.0,120.0,3.0,0.0
6685,79.0,120.0,240.0,0.0,0.0
6686,62.0,600.0,120.0,0.0,0.0
6687,55.0,0.0,480.0,2.0,0.0
6688,59.0,0.0,480.0,1.0,0.0
6689,62.0,480.0,480.0,1.0,0.0
6690,67.0,0.0,480.0,0.0,0.0
6691,43.0,0.0,480.0,3.0,0.0
6692,55.0,0.0,480.0,1.0,0.0
6693,64.0,108.0,480.0,0.0,0.0
6694,36.0,0.0,480.0,3.0,0.0
6695,48.0,0.0,480.0,2.0,0.0
6696,60.0,0.0,480.0,1.0,0.0
6697,38.0,0.0,120.0,3.0,0.0
6698,50.0,0.0,120.0,2.0,0.0
6699,62.0,240.0,120.0,0.0,0.0
6700,54.0,0.0,120.0,1.0,0.0
6701,57.0,0.0,120.0,1.0,0.0
6702,60.0,240.0,120.0,0.0,0.0
6703,42.0,0.0,120.0,3.0,0.0
6704,50.0,0.0,120.0,2.0,0.0
6705,57.0,0.0,120.0,1.0,0.0
6706,43.0,252.0,120.0,3.0,0.0
6707,55.0,0.0,120.0,1.0,0.0
6708,50.0,0.0,120.0,2.0,0.0
6709,59.0,0.0,120.0,0.0,0.0
6710,88.0,0.0,120.0,0.0,0.0
6711,60.0,0.0,120.0,3.0,0.0
6712,79.0,240.0,120.0,1.0,0.0
6713,86.0,0.0,120.0,0.0,0.0
6714,78.0,0.0,120.0,1.0,0.0
6715,62.0,240.0,120.0,3.0,0.0
6716,81.0,240.0,120.0,1.0,0.0
6717,84.0,0.0,120.0,0.0,0.0
6718,66.0,0.0,120.0,3.0,0.0
6719,83.0,0.0,120.0,0.0,0.0
6720,74.0,0.0,120.0,1.0,0.0
6721,67.0,228.0,120.0,3.0,0.0
6722,45.0,0.0,120.0,3.0,0.0
6723,64.0,240.0,120.0,1.0,0.0
6724,72.0,0.0,120.0,0.0,0.0
6725,71.0,0.0,120.0,0.0,0.0
6726,47.0,0.0,120.0,3.0,0.0
6727,63.0,240.0,120.0,1.0,0.0
6728,51.0,0.0,120.0,3.0,0.0
6729,66.0,0.0,120.0,1.0,0.0
6730,69.0,240.0,120.0,0.0,0.0
6731,59.0,0.0,120.0,1.0,0.0
6732,67.0,252.0,120.0,0.0,0.0
6733,52.0,0.0,120.0,3.0,0.0
6734,84.0,0.0,120.0,0.0,0.0
6735,57.0,0.0,120.0,3.0,0.0
6736,76.0,240.0,120.0,1.0,0.0
6737,59.0,240.0,120.0,3.0,0.0
6738,83.0,0.0,120.0,0.0,0.0
6739,75.0,0.0,120.0,1.0,0.0
6740,78.0,0.0,120.0,1.0,0.0
6741,81.0,0.0,120.0,0.0,0.0
6742,63.0,240.0,120.0,3.0,0.0
6743,71.0,228.0,120.0,1.0,0.0
6744,79.0,0.0,120.0,0.0,0.0
6745,64.0,0.0,120.0,3.0,0.0
6746,69.0,0.0,120.0,0.0,0.0
6747,41.0,0.0,120.0,3.0,0.0
6748,60.0,240.0,120.0,1.0,0.0
6749,59.0,0.0,120.0,1.0,0.0
6750,67.0,0.0,120.0,0.0,0.0
6751,43.0,240.0,120.0,3.0,0.0
6752,62.0,0.0,120.0,1.0,0.0
6753,65.0,240.0,120.0,0.0,0.0
6754,47.0,0.0,120.0,3.0,0.0
6755,55.0,12.0,120.0,1.0,0.0
6756,48.0,240.0,120.0,3.0,0.0
6757,64.0,0.0,120.0,0.0,0.0
6758,81.0,240.0,120.0,0.0,0.0
6759,53.0,0.0,120.0,3.0,0.0
6760,72.0,0.0,120.0,1.0,0.0
6761,55.0,0.0,120.0,3.0,0.0
6762,79.0,0.0,120.0,0.0,0.0
6763,71.0,240.0,120.0,1.0,0.0
6764,59.0,240.0,120.0,3.0,0.0
6765,77.0,0.0,120.0,0.0,0.0
6766,74.0,0.0,120.0,1.0,0.0
6767,67.0,0.0,120.0,1.0,0.0
6768,60.0,0.0,120.0,3.0,0.0
6769,76.0,360.0,120.0,0.0,0.0
6770,57.0,0.0,240.0,3.0,0.0
6771,65.0,120.0,240.0,0.0,0.0
6772,45.0,0.0,240.0,3.0,0.0
6773,60.0,0.0,240.0,1.0,0.0
6774,64.0,0.0,120.0,0.0,0.0
6775,59.0,0.0,120.0,1.0,0.0
6776,44.0,0.0,120.0,3.0,0.0
6777,56.0,360.0,120.0,3.0,0.0
6778,59.0,0.0,240.0,3.0,0.0
6779,56.0,0.0,240.0,3.0,0.0
6780,64.0,353.0,360.0,3.0,0.0
6781,74.0,0.0,240.0,1.0,0.0
6782,86.0,120.0,240.0,0.0,0.0
6783,57.0,0.0,120.0,3.0,0.0
6784,60.0,0.0,120.0,3.0,0.0
6785,72.0,7.0,120.0,1.0,0.0
6786,84.0,0.0,120.0,0.0,0.0
6787,55.0,0.0,240.0,3.0,0.0
6788,43.0,120.0,240.0,3.0,0.0
6789,63.0,0.0,240.0,0.0,0.0
6790,58.0,0.0,240.0,1.0,0.0
6791,62.0,360.0,120.0,0.0,0.0
6792,42.0,0.0,120.0,3.0,0.0
6793,57.0,0.0,120.0,1.0,0.0
6794,54.0,0.0,120.0,3.0,0.0
6795,72.0,0.0,240.0,1.0,0.0
6796,54.0,0.0,240.0,3.0,0.0
6797,57.0,120.0,240.0,3.0,0.0
6798,62.0,353.0,360.0,3.0,0.0
6799,84.0,0.0,240.0,0.0,0.0
6800,71.0,0.0,120.0,1.0,0.0
6801,83.0,0.0,120.0,0.0,0.0
6802,59.0,7.0,120.0,3.0,0.0
6803,55.0,0.0,120.0,3.0,0.0
6804,57.0,8.0,360.0,3.0,0.0
6805,67.0,0.0,240.0,0.0,0.0
6806,61.0,112.0,240.0,1.0,0.0
6807,52.0,0.0,240.0,3.0,0.0
6808,50.0,0.0,120.0,3.0,0.0
6809,66.0,360.0,120.0,0.0,0.0
6810,62.0,0.0,120.0,1.0,0.0
6811,73.0,0.0,240.0,1.0,0.0
6812,69.0,0.0,360.0,3.0,0.0
6813,64.0,120.0,240.0,3.0,0.0
6814,79.0,0.0,240.0,0.0,0.0
6815,74.0,0.0,120.0,1.0,0.0
6816,78.0,0.0,120.0,0.0,0.0
6817,62.0,360.0,120.0,3.0,0.0
6818,67.0,0.0,240.0,0.0,0.0
6819,57.0,0.0,360.0,3.0,0.0
6820,52.0,0.0,240.0,3.0,0.0
6821,61.0,120.0,240.0,1.0,0.0
6822,50.0,0.0,120.0,3.0,0.0
6823,66.0,0.0,120.0,0.0,0.0
6824,62.0,360.0,120.0,1.0,0.0
6825,79.0,97.0,240.0,1.0,0.0
6826,69.0,23.0,330.0,3.0,0.0
6827,64.0,0.0,240.0,3.0,0.0
6828,85.0,0.0,240.0,0.0,0.0
6829,86.0,0.0,120.0,0.0,0.0
6830,62.0,360.0,120.0,3.0,0.0
6831,78.0,0.0,120.0,1.0,0.0
6832,61.0,120.0,240.0,1.0,0.0
6833,57.0,353.0,360.0,3.0,0.0
6834,52.0,0.0,240.0,3.0,0.0
6835,67.0,0.0,240.0,0.0,0.0
6836,62.0,0.0,120.0,1.0,0.0
6837,50.0,7.0,120.0,3.0,0.0
6838,66.0,0.0,120.0,0.0,0.0
6839,79.0,0.0,240.0,0.0,0.0
6840,64.0,0.0,240.0,3.0,0.0
6841,69.0,0.0,360.0,3.0,0.0
6842,73.0,120.0,240.0,1.0,0.0
6843,78.0,0.0,120.0,0.0,0.0
6844,62.0,360.0,120.0,3.0,0.0
6845,74.0,0.0,120.0,1.0,0.0
6846,76.0,120.0,240.0,3.0,0.0
6847,79.0,0.0,240.0,1.0,0.0
6848,69.0,0.0,240.0,3.0,0.0
6849,85.0,0.0,240.0,0.0,0.0
6850,74.0,360.0,120.0,3.0,0.0
6851,86.0,0.0,120.0,0.0,0.0
6852,78.0,0.0,120.0,1.0,0.0
6853,73.0,7.0,240.0,0.0,0.0
6854,57.0,0.0,240.0,3.0,0.0
6855,64.0,113.0,240.0,3.0,0.0
6856,67.0,0.0,240.0,1.0,0.0
6857,66.0,0.0,120.0,1.0,0.0
6858,74.0,0.0,120.0,0.0,0.0
6859,50.0,240.0,120.0,3.0,0.0
6860,62.0,0.0,120.0,3.0,0.0
6861,74.0,108.0,120.0,3.0,0.0
6862,59.0,12.0,240.0,1.0,0.0
6863,68.0,120.0,120.0,0.0,0.0
6864,60.0,12.0,240.0,1.0,0.0
6865,74.0,108.0,120.0,3.0,0.0
6866,69.0,120.0,120.0,0.0,0.0
6867,74.0,108.0,120.0,3.0,0.0
6868,57.0,12.0,240.0,1.0,0.0
6869,66.0,120.0,120.0,0.0,0.0
6870,74.0,108.0,120.0,3.0,0.0
6871,59.0,12.0,240.0,1.0,0.0
6872,67.0,120.0,120.0,0.0,0.0
6873,74.0,108.0,120.0,3.0,0.0
6874,59.0,12.0,240.0,1.0,0.0
6875,68.0,120.0,120.0,0.0,0.0
6876,60.0,12.0,240.0,1.0,0.0
6877,74.0,108.0,120.0,3.0,0.0
6878,69.0,120.0,120.0,0.0,0.0
6879,57.0,12.0,240.0,1.0,0.0
6880,74.0,108.0,120.0,3.0,0.0
6881,66.0,120.0,120.0,0.0,0.0
6882,74.0,108.0,120.0,3.0,0.0
6883,59.0,12.0,240.0,1.0,0.0
6884,67.0,120.0,120.0,0.0,0.0
6885,59.0,12.0,240.0,1.0,0.0
6886,74.0,108.0,120.0,3.0,0.0
6887,68.0,120.0,120.0,0.0,0.0
6888,60.0,12.0,240.0,1.0,0.0
6889,74.0,108.0,120.0,3.0,0.0
6890,69.0,120.0,120.0,0.0,0.0
6891,74.0,108.0,120.0,3.0,0.0
6892,59.0,12.0,240.0,1.0,0.0
6893,68.0,120.0,120.0,0.0,0.0
6894,74.0,108.0,120.0,3.0,0.0
6895,60.0,12.0,240.0,1.0,0.0
6896,69.0,120.0,120.0,0.0,0.0
6897,74.0,108.0,120.0,3.0,0.0
6898,59.0,12.0,240.0,1.0,0.0
6899,68.0,120.0,120.0,0.0,0.0
6900,60.0,12.0,240.0,1.0,0.0
6901,74.0,108.0,120.0,3.0,0.0
6902,69.0,120.0,120.0,0.0,0.0
6903,74.0,108.0,120.0,3.0,0.0
6904,59.0,12.0,240.0,1.0,0.0
6905,68.0,120.0,120.0,0.0,0.0
6906,74.0,108.0,120.0,3.0,0.0
6907,60.0,12.0,240.0,1.0,0.0
6908,69.0,120.0,120.0,0.0,0.0
6909,74.0,96.0,120.0,3.0,0.0
6910,71.0,24.0,210.0,1.0,0.0
6911,80.0,120.0,120.0,0.0,0.0
6912,72.0,24.0,210.0,1.0,0.0
6913,74.0,96.0,120.0,3.0,0.0
6914,81.0,120.0,120.0,0.0,0.0
6915,74.0,96.0,120.0,3.0,0.0
6916,69.0,24.0,210.0,1.0,0.0
6917,78.0,120.0,120.0,0.0,0.0
6918,71.0,24.0,210.0,1.0,0.0
6919,74.0,96.0,120.0,3.0,0.0
6920,79.0,120.0,120.0,0.0,0.0
6921,71.0,24.0,210.0,1.0,0.0
6922,74.0,96.0,120.0,3.0,0.0
6923,80.0,120.0,120.0,0.0,0.0
6924,74.0,96.0,120.0,3.0,0.0
6925,72.0,24.0,210.0,1.0,0.0
6926,81.0,120.0,120.0,0.0,0.0
6927,74.0,96.0,120.0,3.0,0.0
6928,69.0,24.0,210.0,1.0,0.0
6929,78.0,120.0,120.0,0.0,0.0
6930,71.0,24.0,210.0,1.0,0.0
6931,74.0,96.0,120.0,3.0,0.0
6932,79.0,120.0,120.0,0.0,0.0
6933,74.0,96.0,120.0,3.0,0.0
6934,71.0,24.0,210.0,1.0,0.0
6935,80.0,120.0,120.0,0.0,0.0
6936,72.0,24.0,210.0,1.0,0.0
6937,74.0,96.0,120.0,3.0,0.0
6938,81.0,120.0,120.0,0.0,0.0
6939,74.0,96.0,120.0,3.0,0.0
6940,71.0,24.0,210.0,1.0,0.0
6941,80.0,120.0,120.0,0.0,0.0
6942,74.0,96.0,120.0,3.0,0.0
6943,72.0,24.0,210.0,1.0,0.0
6944,81.0,120.0,120.0,0.0,0.0
6945,71.0,24.0,210.0,1.0,0.0
6946,74.0,96.0,120.0,3.0,0.0
6947,80.0,120.0,120.0,0.0,0.0
6948,72.0,24.0,210.0,1.0,0.0
6949,74.0,96.0,120.0,3.0,0.0
6950,81.0,120.0,120.0,0.0,0.0
6951,71.0,24.0,210.0,1.0,0.0
6952,74.0,96.0,120.0,3.0,0.0
6953,80.0,120.0,120.0,0.0,0.0
6954,74.0,96.0,120.0,3.0,0.0
6955,72.0,24.0,210.0,1.0,0.0
6956,81.0,120.0,120.0,0.0,0.0
6957,72.0,24.0,210.0,1.0,0.0
6958,74.0,96.0,120.0,3.0,0.0
6959,81.0,120.0,120.0,0.0,0.0
6960,72.0,24.0,210.0,1.0,0.0
6961,75.0,96.0,120.0,3.0,0.0
6962,81.0,120.0,120.0,0.0,0.0
6963,72.0,24.0,210.0,1.0,0.0
6964,75.0,96.0,120.0,3.0,0.0
6965,80.0,120.0,120.0,0.0,0.0
6966,72.0,24.0,210.0,1.0,0.0
6967,75.0,96.0,120.0,3.0,0.0
6968,81.0,120.0,120.0,0.0,0.0
6969,72.0,24.0,210.0,1.0,0.0
6970,75.0,96.0,120.0,3.0,0.0
6971,80.0,120.0,120.0,0.0,0.0
6972,72.0,24.0,210.0,1.0,0.0
6973,75.0,96.0,120.0,3.0,0.0
6974,81.0,120.0,120.0,0.0,0.0
6975,72.0,24.0,210.0,1.0,0.0
6976,75.0,96.0,120.0,3.0,0.0
6977,80.0,120.0,120.0,0.0,0.0
6978,72.0,24.0,210.0,1.0,0.0
6979,75.0,96.0,120.0,3.0,0.0
6980,81.0,120.0,120.0,0.0,0.0
6981,75.0,96.0,120.0,3.0,0.0
6982,72.0,24.0,210.0,1.0,0.0
6983,81.0,120.0,120.0,0.0,0.0
6984,72.0,24.0,210.0,1.0,0.0
6985,76.0,96.0,120.0,3.0,0.0
6986,82.0,120.0,120.0,0.0,0.0
6987,72.0,24.0,210.0,1.0,0.0
6988,76.0,96.0,120.0,3.0,0.0
6989,81.0,120.0,120.0,0.0,0.0
6990,72.0,24.0,210.0,1.0,0.0
6991,76.0,96.0,120.0,3.0,0.0
6992,82.0,120.0,120.0,0.0,0.0
6993,76.0,96.0,120.0,3.0,0.0
6994,72.0,24.0,210.0,1.0,0.0
6995,81.0,120.0,120.0,0.0,0.0
6996,72.0,24.0,210.0,1.0,0.0
6997,76.0,96.0,120.0,3.0,0.0
6998,82.0,120.0,120.0,0.0,0.0
6999,72.0,24.0,210.0,1.0,0.0
7000,76.0,96.0,120.0,3.0,0.0
7001,81.0,120.0,120.0,0.0,0.0
7002,76.0,96.0,120.0,3.0,0.0
7003,72.0,24.0,210.0,1.0,0.0
7004,82.0,216.0,120.0,0.0,0.0
7005,72.0,24.0,210.0,1.0,0.0
7006,76.0,120.0,240.0,3.0,0.0
7007,82.0,0.0,120.0,0.0,0.0
7008,77.0,96.0,120.0,3.0,0.0
7009,72.0,24.0,210.0,1.0,0.0
7010,82.0,120.0,120.0,0.0,0.0
7011,65.0,96.0,120.0,3.0,0.0
7012,72.0,24.0,210.0,1.0,0.0
7013,81.0,228.0,120.0,0.0,0.0
7014,72.0,12.0,240.0,1.0,0.0
7015,82.0,228.0,120.0,0.0,0.0
7016,72.0,12.0,240.0,1.0,0.0
7017,76.0,120.0,240.0,3.0,0.0
7018,82.0,0.0,120.0,0.0,0.0
7019,72.0,12.0,240.0,1.0,0.0
7020,77.0,108.0,120.0,3.0,0.0
7021,82.0,120.0,120.0,0.0,0.0
7022,65.0,108.0,120.0,3.0,0.0
7023,72.0,12.0,240.0,1.0,0.0
7024,81.0,228.0,120.0,0.0,0.0
7025,72.0,12.0,240.0,1.0,0.0
7026,82.0,228.0,120.0,0.0,0.0
7027,72.0,12.0,240.0,1.0,0.0
7028,76.0,0.0,240.0,3.0,0.0
7029,82.0,120.0,120.0,0.0,0.0
7030,77.0,108.0,120.0,3.0,0.0
7031,72.0,12.0,240.0,1.0,0.0
7032,82.0,120.0,120.0,0.0,0.0
7033,72.0,12.0,240.0,1.0,0.0
7034,65.0,108.0,120.0,3.0,0.0
7035,81.0,120.0,120.0,0.0,0.0
7036,75.0,108.0,120.0,3.0,0.0
7037,72.0,12.0,240.0,1.0,0.0
7038,81.0,120.0,120.0,0.0,0.0
7039,63.0,108.0,120.0,3.0,0.0
7040,72.0,12.0,240.0,1.0,0.0
7041,81.0,120.0,120.0,0.0,0.0
7042,76.0,108.0,120.0,3.0,0.0
7043,71.0,12.0,240.0,1.0,0.0
7044,81.0,120.0,120.0,0.0,0.0
7045,64.0,108.0,120.0,3.0,0.0
7046,71.0,12.0,240.0,1.0,0.0
7047,80.0,120.0,120.0,0.0,0.0
7048,73.0,108.0,120.0,3.0,0.0
7049,70.0,12.0,240.0,1.0,0.0
7050,79.0,120.0,120.0,0.0,0.0
7051,70.0,12.0,240.0,1.0,0.0
7052,61.0,108.0,120.0,3.0,0.0
7053,79.0,120.0,120.0,0.0,0.0
7054,74.0,108.0,120.0,3.0,0.0
7055,69.0,12.0,240.0,1.0,0.0
7056,79.0,120.0,120.0,0.0,0.0
7057,62.0,108.0,120.0,3.0,0.0
7058,69.0,12.0,240.0,1.0,0.0
7059,78.0,120.0,120.0,0.0,0.0
7060,71.0,108.0,120.0,3.0,0.0
7061,68.0,12.0,240.0,1.0,0.0
7062,74.0,120.0,120.0,1.0,0.0
7063,77.0,0.0,120.0,0.0,0.0
7064,59.0,108.0,120.0,3.0,0.0
7065,68.0,12.0,240.0,1.0,0.0
7066,77.0,0.0,120.0,0.0,0.0
7067,74.0,120.0,120.0,1.0,0.0
7068,68.0,108.0,120.0,3.0,0.0
7069,71.0,12.0,240.0,1.0,0.0
7070,77.0,0.0,120.0,0.0,0.0
7071,74.0,120.0,120.0,1.0,0.0
7072,71.0,12.0,240.0,1.0,0.0
7073,56.0,108.0,120.0,3.0,0.0
7074,74.0,0.0,120.0,1.0,0.0
7075,76.0,120.0,120.0,0.0,0.0
7076,72.0,12.0,240.0,1.0,0.0
7077,69.0,108.0,120.0,3.0,0.0
7078,76.0,120.0,120.0,0.0,0.0
7079,57.0,108.0,120.0,3.0,0.0
7080,72.0,12.0,240.0,1.0,0.0
7081,75.0,120.0,120.0,0.0,0.0
7082,69.0,12.0,240.0,1.0,0.0
7083,66.0,108.0,120.0,3.0,0.0
7084,72.0,120.0,120.0,1.0,0.0
7085,75.0,0.0,120.0,0.0,0.0
7086,54.0,108.0,120.0,3.0,0.0
7087,69.0,12.0,240.0,1.0,0.0
7088,74.0,0.0,120.0,0.0,0.0
7089,72.0,120.0,120.0,1.0,0.0
7090,67.0,96.0,120.0,3.0,0.0
7091,71.0,24.0,210.0,1.0,0.0
7092,74.0,120.0,120.0,0.0,0.0
7093,71.0,12.0,210.0,1.0,0.0
7094,55.0,96.0,120.0,3.0,0.0
7095,67.0,12.0,240.0,1.0,0.0
7096,74.0,120.0,120.0,0.0,0.0
7097,60.0,0.0,120.0,3.0,0.0
7098,64.0,24.0,210.0,1.0,0.0
7099,69.0,96.0,120.0,1.0,0.0
7100,74.0,120.0,120.0,0.0,0.0
7101,48.0,0.0,120.0,3.0,0.0
7102,64.0,24.0,210.0,1.0,0.0
7103,69.0,96.0,120.0,1.0,0.0
7104,72.0,120.0,120.0,0.0,0.0
7105,38.0,0.0,120.0,3.0,0.0
7106,60.0,24.0,210.0,1.0,0.0
7107,66.0,96.0,120.0,1.0,0.0
7108,69.0,120.0,120.0,0.0,0.0
7109,66.0,96.0,120.0,1.0,0.0
7110,50.0,0.0,120.0,3.0,0.0
7111,60.0,24.0,210.0,1.0,0.0
7112,69.0,120.0,120.0,0.0,0.0
7113,43.0,61.0,1860.0,3.0,0.0
7114,59.0,0.0,120.0,1.0,0.0
7115,67.0,120.0,120.0,0.0,0.0
7116,55.0,120.0,120.0,2.0,0.0
7117,59.0,120.0,120.0,2.0,0.0
7118,67.0,120.0,240.0,0.0,0.0
7119,55.0,0.0,120.0,2.0,0.0
7120,59.0,120.0,120.0,2.0,0.0
7121,71.0,120.0,240.0,0.0,0.0
7122,55.0,0.0,120.0,2.0,0.0
7123,74.0,0.0,240.0,0.0,0.0
7124,59.0,120.0,120.0,2.0,0.0
7125,55.0,120.0,120.0,2.0,0.0
7126,79.0,120.0,240.0,0.0,0.0
7127,59.0,120.0,120.0,2.0,0.0
7128,55.0,0.0,120.0,2.0,0.0
7129,59.0,120.0,120.0,2.0,0.0
7130,74.0,120.0,240.0,0.0,0.0
7131,55.0,0.0,120.0,2.0,0.0
7132,71.0,0.0,240.0,0.0,0.0
7133,59.0,120.0,120.0,2.0,0.0
7134,55.0,120.0,120.0,2.0,0.0
7135,59.0,59.0,120.0,2.0,0.0
7136,67.0,240.0,240.0,0.0,0.0
7137,55.0,0.0,120.0,2.0,0.0
7138,43.0,61.0,1860.0,3.0,0.0
7139,55.0,120.0,120.0,2.0,0.0
7140,71.0,0.0,240.0,0.0,0.0
7141,59.0,120.0,120.0,2.0,0.0
7142,62.0,0.0,120.0,2.0,0.0
7143,55.0,120.0,120.0,2.0,0.0
7144,74.0,120.0,240.0,0.0,0.0
7145,59.0,120.0,120.0,2.0,0.0
7146,62.0,0.0,120.0,2.0,0.0
7147,55.0,0.0,120.0,2.0,0.0
7148,59.0,0.0,120.0,2.0,0.0
7149,62.0,120.0,120.0,2.0,0.0
7150,79.0,120.0,240.0,0.0,0.0
7151,55.0,0.0,120.0,2.0,0.0
7152,83.0,0.0,240.0,0.0,0.0
7153,62.0,120.0,120.0,2.0,0.0
7154,59.0,0.0,120.0,2.0,0.0
7155,55.0,120.0,120.0,2.0,0.0
7156,79.0,0.0,240.0,0.0,0.0
7157,59.0,0.0,120.0,2.0,0.0
7158,62.0,120.0,120.0,2.0,0.0
7159,55.0,120.0,120.0,2.0,0.0
7160,59.0,120.0,120.0,2.0,0.0
7161,62.0,0.0,120.0,2.0,0.0
7162,74.0,0.0,240.0,0.0,0.0
7163,55.0,120.0,120.0,2.0,0.0
7164,62.0,59.0,120.0,2.0,0.0
7165,59.0,0.0,120.0,2.0,0.0
7166,71.0,240.0,240.0,0.0,0.0
7167,55.0,0.0,120.0,2.0,0.0
7168,43.0,61.0,1860.0,3.0,0.0
7169,55.0,120.0,120.0,2.0,0.0
7170,59.0,0.0,120.0,2.0,0.0
7171,62.0,0.0,120.0,2.0,0.0
7172,74.0,0.0,120.0,0.0,0.0
7173,62.0,120.0,120.0,1.0,0.0
7174,55.0,120.0,120.0,2.0,0.0
7175,67.0,0.0,120.0,1.0,0.0
7176,79.0,0.0,120.0,0.0,0.0
7177,59.0,0.0,120.0,2.0,0.0
7178,62.0,120.0,120.0,2.0,0.0
7179,55.0,120.0,120.0,2.0,0.0
7180,83.0,120.0,120.0,0.0,0.0
7181,59.0,0.0,120.0,2.0,0.0
7182,62.0,0.0,120.0,2.0,0.0
7183,71.0,0.0,120.0,1.0,0.0
7184,55.0,120.0,120.0,2.0,0.0
7185,62.0,0.0,120.0,2.0,0.0
7186,74.0,0.0,240.0,1.0,0.0
7187,59.0,120.0,120.0,2.0,0.0
7188,86.0,0.0,240.0,0.0,0.0
7189,55.0,120.0,120.0,2.0,0.0
7190,71.0,0.0,120.0,1.0,0.0
7191,83.0,120.0,120.0,0.0,0.0
7192,62.0,0.0,120.0,2.0,0.0
7193,59.0,0.0,120.0,2.0,0.0
7194,55.0,120.0,120.0,2.0,0.0
7195,59.0,0.0,120.0,2.0,0.0
7196,67.0,0.0,120.0,1.0,0.0
7197,79.0,120.0,120.0,0.0,0.0
7198,62.0,0.0,120.0,2.0,0.0
7199,55.0,120.0,120.0,2.0,0.0
7200,74.0,0.0,120.0,0.0,0.0
7201,62.0,0.0,120.0,2.0,0.0
7202,59.0,0.0,120.0,2.0,0.0
7203,62.0,59.0,120.0,1.0,0.0
7204,55.0,120.0,120.0,2.0,0.0
7205,76.0,0.0,120.0,0.0,0.0
7206,64.0,96.0,120.0,1.0,0.0
7207,60.0,24.0,210.0,3.0,0.0
7208,55.0,120.0,120.0,2.0,0.0
7209,57.0,24.0,210.0,3.0,0.0
7210,66.0,96.0,120.0,1.0,0.0
7211,78.0,0.0,120.0,0.0,0.0
7212,55.0,120.0,120.0,2.0,0.0
7213,79.0,96.0,120.0,0.0,0.0
7214,59.0,24.0,210.0,3.0,0.0
7215,67.0,0.0,120.0,1.0,0.0
7216,55.0,120.0,120.0,2.0,0.0
7217,74.0,96.0,120.0,0.0,0.0
7218,62.0,0.0,120.0,1.0,0.0
7219,59.0,24.0,210.0,3.0,0.0
7220,55.0,120.0,120.0,2.0,0.0
7221,76.0,0.0,120.0,0.0,0.0
7222,60.0,24.0,210.0,3.0,0.0
7223,64.0,96.0,120.0,1.0,0.0
7224,55.0,120.0,120.0,2.0,0.0
7225,78.0,0.0,120.0,0.0,0.0
7226,57.0,24.0,210.0,3.0,0.0
7227,66.0,96.0,120.0,1.0,0.0
7228,55.0,180.0,120.0,2.0,0.0
7229,59.0,24.0,210.0,3.0,0.0
7230,67.0,36.0,180.0,1.0,0.0
7231,79.0,0.0,180.0,0.0,0.0
7232,55.0,216.0,120.0,2.0,0.0
7233,59.0,24.0,210.0,3.0,0.0
7234,55.0,240.0,120.0,2.0,0.0
7235,43.0,61.0,1860.0,3.0,0.0
7236,55.0,120.0,120.0,2.0,0.0
7237,62.0,120.0,120.0,1.0,0.0
7238,74.0,0.0,120.0,0.0,0.0
7239,62.0,0.0,120.0,2.0,0.0
7240,59.0,0.0,120.0,2.0,0.0
7241,55.0,120.0,120.0,2.0,0.0
7242,59.0,0.0,120.0,2.0,0.0
7243,79.0,120.0,120.0,0.0,0.0
7244,67.0,0.0,120.0,1.0,0.0
7245,62.0,0.0,120.0,2.0,0.0
7246,55.0,120.0,120.0,2.0,0.0
7247,83.0,0.0,120.0,0.0,0.0
7248,71.0,0.0,120.0,1.0,0.0
7249,59.0,120.0,120.0,2.0,0.0
7250,62.0,0.0,120.0,2.0,0.0
7251,55.0,120.0,120.0,2.0,0.0
7252,59.0,120.0,120.0,2.0,0.0
7253,62.0,0.0,120.0,2.0,0.0
7254,86.0,120.0,240.0,0.0,0.0
7255,74.0,0.0,240.0,1.0,0.0
7256,55.0,0.0,120.0,2.0,0.0
7257,83.0,0.0,120.0,0.0,0.0
7258,62.0,0.0,120.0,2.0,0.0
7259,59.0,0.0,120.0,2.0,0.0
7260,71.0,120.0,120.0,1.0,0.0
7261,55.0,120.0,120.0,2.0,0.0
7262,67.0,0.0,120.0,1.0,0.0
7263,59.0,120.0,120.0,2.0,0.0
7264,62.0,0.0,120.0,2.0,0.0
7265,79.0,0.0,120.0,0.0,0.0
7266,55.0,120.0,120.0,2.0,0.0
7267,62.0,0.0,120.0,2.0,0.0
7268,62.0,0.0,120.0,1.0,0.0
7269,74.0,0.0,120.0,0.0,0.0
7270,59.0,59.0,120.0,2.0,0.0
7271,55.0,120.0,120.0,2.0,0.0
7272,60.0,36.0,210.0,3.0,0.0
7273,76.0,0.0,120.0,0.0,0.0
7274,64.0,84.0,120.0,1.0,0.0
7275,55.0,120.0,120.0,2.0,0.0
7276,66.0,84.0,120.0,1.0,0.0
7277,78.0,0.0,120.0,0.0,0.0
7278,57.0,36.0,210.0,3.0,0.0
7279,55.0,120.0,120.0,2.0,0.0
7280,59.0,36.0,210.0,3.0,0.0
7281,79.0,0.0,120.0,0.0,0.0
7282,67.0,84.0,120.0,1.0,0.0
7283,55.0,120.0,120.0,2.0,0.0
7284,74.0,84.0,120.0,0.0,0.0
7285,62.0,0.0,120.0,1.0,0.0
7286,59.0,36.0,210.0,3.0,0.0
7287,55.0,120.0,120.0,2.0,0.0
7288,64.0,0.0,120.0,1.0,0.0
7289,60.0,36.0,210.0,3.0,0.0
7290,76.0,84.0,120.0,0.0,0.0
7291,55.0,120.0,120.0,2.0,0.0
7292,66.0,84.0,120.0,1.0,0.0
7293,57.0,36.0,210.0,3.0,0.0
7294,78.0,0.0,120.0,0.0,0.0
7295,55.0,120.0,120.0,2.0,0.0
7296,79.0,84.0,120.0,0.0,0.0
7297,59.0,36.0,210.0,3.0,0.0
7298,67.0,0.0,120.0,1.0,0.0
7299,55.0,120.0,120.0,2.0,0.0
7300,74.0,84.0,120.0,0.0,0.0
7301,62.0,0.0,120.0,1.0,0.0
7302,59.0,36.0,210.0,3.0,0.0
7303,55.0,120.0,120.0,2.0,0.0
7304,64.0,84.0,120.0,1.0,0.0
7305,60.0,36.0,210.0,3.0,0.0
7306,76.0,0.0,120.0,0.0,0.0
7307,55.0,120.0,120.0,2.0,0.0
7308,66.0,0.0,120.0,1.0,0.0
7309,57.0,36.0,210.0,3.0,0.0
7310,78.0,84.0,120.0,0.0,0.0
7311,55.0,120.0,120.0,2.0,0.0
7312,67.0,0.0,120.0,1.0,0.0
7313,59.0,36.0,210.0,3.0,0.0
7314,79.0,84.0,120.0,0.0,0.0
7315,55.0,120.0,120.0,2.0,0.0
7316,62.0,36.0,210.0,3.0,0.0
7317,83.0,0.0,120.0,0.0,0.0
7318,71.0,84.0,120.0,1.0,0.0
7319,55.0,120.0,120.0,2.0,0.0
7320,59.0,36.0,210.0,3.0,0.0
7321,79.0,0.0,120.0,0.0,0.0
7322,67.0,84.0,120.0,1.0,0.0
7323,55.0,120.0,120.0,2.0,0.0
7324,71.0,0.0,120.0,1.0,0.0
7325,62.0,36.0,210.0,3.0,0.0
7326,83.0,84.0,120.0,0.0,0.0
7327,55.0,120.0,120.0,2.0,0.0
7328,79.0,84.0,120.0,0.0,0.0
7329,67.0,0.0,120.0,1.0,0.0
7330,59.0,36.0,210.0,3.0,0.0
7331,55.0,120.0,120.0,2.0,0.0
7332,74.0,0.0,120.0,0.0,0.0
7333,62.0,84.0,120.0,1.0,0.0
7334,59.0,36.0,210.0,3.0,0.0
7335,55.0,120.0,120.0,2.0,0.0
7336,60.0,36.0,210.0,3.0,0.0
7337,76.0,84.0,120.0,0.0,0.0
7338,64.0,0.0,120.0,1.0,0.0
7339,55.0,120.0,120.0,2.0,0.0
7340,66.0,0.0,120.0,1.0,0.0
7341,78.0,84.0,120.0,0.0,0.0
7342,57.0,36.0,210.0,3.0,0.0
7343,55.0,120.0,120.0,2.0,0.0
7344,67.0,0.0,120.0,1.0,0.0
7345,59.0,36.0,210.0,3.0,0.0
7346,79.0,84.0,120.0,0.0,0.0
7347,55.0,120.0,120.0,2.0,0.0
7348,71.0,84.0,120.0,1.0,0.0
7349,62.0,36.0,210.0,3.0,0.0
7350,83.0,0.0,120.0,0.0,0.0
7351,55.0,120.0,120.0,2.0,0.0
7352,79.0,84.0,120.0,0.0,0.0
7353,59.0,36.0,210.0,3.0,0.0
7354,67.0,0.0,120.0,1.0,0.0
7355,55.0,120.0,120.0,2.0,0.0
7356,83.0,0.0,120.0,0.0,0.0
7357,62.0,36.0,210.0,3.0,0.0
7358,71.0,84.0,120.0,1.0,0.0
7359,55.0,120.0,120.0,2.0,0.0
7360,59.0,36.0,210.0,3.0,0.0
7361,67.0,0.0,120.0,1.0,0.0
7362,79.0,84.0,120.0,0.0,0.0
7363,55.0,120.0,120.0,2.0,0.0
7364,71.0,84.0,120.0,1.0,0.0
7365,83.0,0.0,120.0,0.0,0.0
7366,62.0,36.0,210.0,3.0,0.0
7367,55.0,120.0,120.0,2.0,0.0
7368,59.0,36.0,210.0,3.0,0.0
7369,79.0,0.0,120.0,0.0,0.0
7370,67.0,84.0,120.0,1.0,0.0
7371,55.0,120.0,120.0,2.0,0.0
7372,74.0,0.0,120.0,1.0,0.0
7373,86.0,84.0,120.0,0.0,0.0
7374,65.0,36.0,210.0,3.0,0.0
7375,55.0,120.0,120.0,2.0,0.0
7376,62.0,36.0,210.0,3.0,0.0
7377,83.0,0.0,120.0,0.0,0.0
7378,71.0,84.0,120.0,1.0,0.0
7379,55.0,120.0,120.0,2.0,0.0
7380,86.0,84.0,120.0,0.0,0.0
7381,65.0,36.0,210.0,3.0,0.0
7382,74.0,0.0,120.0,1.0,0.0
7383,55.0,120.0,120.0,2.0,0.0
7384,71.0,84.0,120.0,1.0,0.0
7385,62.0,36.0,210.0,3.0,0.0
7386,83.0,0.0,120.0,0.0,0.0
7387,55.0,120.0,120.0,2.0,0.0
7388,74.0,0.0,120.0,1.0,0.0
7389,65.0,36.0,210.0,3.0,0.0
7390,86.0,84.0,120.0,0.0,0.0
7391,55.0,120.0,120.0,2.0,0.0
7392,71.0,0.0,120.0,1.0,0.0
7393,83.0,84.0,120.0,0.0,0.0
7394,62.0,36.0,210.0,3.0,0.0
7395,55.0,120.0,120.0,2.0,0.0
7396,86.0,84.0,120.0,0.0,0.0
7397,74.0,0.0,120.0,1.0,0.0
7398,65.0,36.0,210.0,3.0,0.0
7399,55.0,120.0,120.0,2.0,0.0
7400,83.0,84.0,120.0,0.0,0.0
7401,71.0,0.0,120.0,1.0,0.0
7402,62.0,36.0,210.0,3.0,0.0
7403,56.0,120.0,120.0,2.0,0.0
7404,65.0,36.0,210.0,3.0,0.0
7405,74.0,84.0,120.0,1.0,0.0
7406,86.0,0.0,120.0,0.0,0.0
7407,56.0,120.0,120.0,2.0,0.0
7408,83.0,84.0,120.0,0.0,0.0
7409,71.0,0.0,120.0,1.0,0.0
7410,62.0,36.0,210.0,3.0,0.0
7411,56.0,120.0,120.0,2.0,0.0
7412,86.0,0.0,120.0,0.0,0.0
7413,65.0,36.0,210.0,3.0,0.0
7414,74.0,84.0,120.0,1.0,0.0
7415,56.0,120.0,120.0,2.0,0.0
7416,62.0,36.0,210.0,3.0,0.0
7417,83.0,0.0,120.0,0.0,0.0
7418,71.0,84.0,120.0,1.0,0.0
7419,57.0,120.0,120.0,2.0,0.0
7420,74.0,0.0,120.0,1.0,0.0
7421,65.0,0.0,240.0,3.0,0.0
7422,86.0,120.0,120.0,0.0,0.0
7423,57.0,120.0,120.0,2.0,0.0
7424,62.0,0.0,240.0,3.0,0.0
7425,83.0,120.0,120.0,0.0,0.0
7426,71.0,0.0,120.0,1.0,0.0
7427,57.0,120.0,120.0,2.0,0.0
7428,65.0,120.0,240.0,3.0,0.0
7429,74.0,0.0,120.0,1.0,0.0
7430,86.0,120.0,120.0,0.0,0.0
7431,57.0,0.0,120.0,2.0,0.0
7432,68.0,0.0,120.0,1.0,0.0
7433,62.0,0.0,240.0,3.0,0.0
7434,80.0,120.0,120.0,0.0,0.0
7435,58.0,120.0,120.0,2.0,0.0
7436,68.0,120.0,240.0,3.0,0.0
7437,74.0,120.0,120.0,1.0,0.0
7438,86.0,0.0,120.0,0.0,0.0
7439,58.0,0.0,120.0,2.0,0.0
7440,62.0,0.0,240.0,3.0,0.0
7441,68.0,120.0,120.0,1.0,0.0
7442,80.0,0.0,120.0,0.0,0.0
7443,58.0,120.0,120.0,2.0,0.0
7444,86.0,0.0,120.0,0.0,0.0
7445,68.0,0.0,240.0,3.0,0.0
7446,74.0,120.0,120.0,1.0,0.0
7447,58.0,120.0,120.0,2.0,0.0
7448,68.0,0.0,120.0,1.0,0.0
7449,80.0,120.0,120.0,0.0,0.0
7450,62.0,0.0,240.0,3.0,0.0
7451,59.0,120.0,120.0,2.0,0.0
7452,65.0,0.0,240.0,3.0,0.0
7453,74.0,120.0,120.0,1.0,0.0
7454,86.0,0.0,120.0,0.0,0.0
7455,59.0,120.0,120.0,2.0,0.0
7456,62.0,120.0,240.0,3.0,0.0
7457,68.0,120.0,120.0,1.0,0.0
7458,80.0,0.0,120.0,0.0,0.0
7459,59.0,0.0,120.0,2.0,0.0
7460,86.0,0.0,120.0,0.0,0.0
7461,74.0,120.0,120.0,1.0,0.0
7462,65.0,0.0,240.0,3.0,0.0
7463,59.0,120.0,120.0,2.0,0.0
7464,81.0,0.0,120.0,0.0,0.0
7465,69.0,120.0,120.0,1.0,0.0
7466,66.0,0.0,240.0,3.0,0.0
7467,62.0,120.0,120.0,2.0,0.0
7468,66.0,0.0,240.0,3.0,0.0
7469,86.0,0.0,120.0,0.0,0.0
7470,74.0,120.0,120.0,1.0,0.0
7471,62.0,120.0,120.0,2.0,0.0
7472,66.0,120.0,240.0,3.0,0.0
7473,69.0,120.0,120.0,1.0,0.0
7474,81.0,0.0,120.0,0.0,0.0
7475,62.0,0.0,120.0,2.0,0.0
7476,68.0,0.0,240.0,3.0,0.0
7477,83.0,0.0,120.0,0.0,0.0
7478,71.0,120.0,120.0,1.0,0.0
7479,62.0,120.0,120.0,2.0,0.0
7480,72.0,120.0,120.0,1.0,0.0
7481,69.0,0.0,240.0,3.0,0.0
7482,84.0,0.0,120.0,0.0,0.0
7483,62.0,120.0,120.0,2.0,0.0
7484,86.0,0.0,120.0,0.0,0.0
7485,74.0,120.0,120.0,1.0,0.0
7486,69.0,120.0,240.0,3.0,0.0
7487,62.0,0.0,120.0,2.0,0.0
7488,72.0,120.0,120.0,1.0,0.0
7489,69.0,0.0,240.0,3.0,0.0
7490,84.0,0.0,120.0,0.0,0.0
7491,62.0,120.0,120.0,2.0,0.0
7492,67.0,0.0,240.0,3.0,0.0
7493,83.0,120.0,120.0,0.0,0.0
7494,71.0,0.0,120.0,1.0,0.0
7495,62.0,120.0,120.0,2.0,0.0
7496,60.0,0.0,720.0,3.0,0.0
7497,66.0,0.0,240.0,3.0,0.0
7498,69.0,0.0,120.0,1.0,0.0
7499,81.0,120.0,120.0,0.0,0.0
7500,62.0,120.0,120.0,2.0,0.0
7501,74.0,120.0,120.0,1.0,0.0
7502,86.0,0.0,120.0,0.0,0.0
7503,66.0,0.0,240.0,3.0,0.0
7504,62.0,120.0,120.0,2.0,0.0
7505,69.0,120.0,120.0,1.0,0.0
7506,81.0,0.0,120.0,0.0,0.0
7507,66.0,0.0,240.0,3.0,0.0
7508,62.0,120.0,120.0,2.0,0.0
7509,68.0,0.0,240.0,3.0,0.0
7510,59.0,120.0,240.0,3.0,0.0
7511,71.0,120.0,120.0,1.0,0.0
7512,83.0,0.0,120.0,0.0,0.0
7513,62.0,0.0,120.0,2.0,0.0
7514,72.0,0.0,120.0,1.0,0.0
7515,57.0,0.0,720.0,3.0,0.0
7516,69.0,0.0,240.0,3.0,0.0
7517,84.0,120.0,120.0,0.0,0.0
7518,62.0,120.0,120.0,2.0,0.0
7519,74.0,0.0,120.0,1.0,0.0
7520,86.0,120.0,120.0,0.0,0.0
7521,62.0,0.0,120.0,2.0,0.0
7522,72.0,120.0,120.0,1.0,0.0
7523,84.0,0.0,120.0,0.0,0.0
7524,69.0,120.0,15.0,3.0,0.0
7525,62.0,120.0,120.0,2.0,0.0
7526,83.0,120.0,120.0,0.0,0.0
7527,59.0,0.0,240.0,3.0,0.0
7528,67.0,0.0,240.0,3.0,0.0
7529,71.0,0.0,120.0,1.0,0.0
7530,62.0,120.0,120.0,2.0,0.0
7531,60.0,0.0,720.0,3.0,0.0
7532,69.0,120.0,120.0,1.0,0.0
7533,81.0,0.0,120.0,0.0,0.0
7534,62.0,0.0,120.0,2.0,0.0
7535,74.0,1.0,240.0,1.0,0.0
7536,66.0,239.0,15.0,3.0,0.0
7537,86.0,0.0,120.0,0.0,0.0
7538,62.0,0.0,120.0,2.0,0.0
7539,74.0,1.0,240.0,1.0,0.0
7540,66.0,239.0,15.0,3.0,0.0
7541,62.0,239.0,120.0,2.0,0.0
7542,86.0,0.0,120.0,0.0,0.0
7543,67.0,239.0,240.0,3.0,0.0
7544,59.0,0.0,240.0,3.0,0.0
7545,76.0,1.0,240.0,1.0,0.0
7546,86.0,0.0,120.0,0.0,0.0
7547,62.0,0.0,120.0,2.0,0.0
7548,78.0,1.0,240.0,1.0,0.0
7549,57.0,0.0,720.0,3.0,0.0
7550,69.0,0.0,240.0,3.0,0.0
7551,74.0,0.0,240.0,1.0,0.0
7552,86.0,0.0,120.0,0.0,0.0
7553,62.0,239.0,120.0,2.0,0.0
7554,67.0,0.0,240.0,3.0,0.0
7555,76.0,1.0,240.0,1.0,0.0
7556,79.0,0.0,240.0,1.0,0.0
7557,86.0,0.0,120.0,0.0,0.0
7558,62.0,239.0,120.0,2.0,0.0
7559,66.0,0.0,240.0,3.0,0.0
7560,81.0,1.0,240.0,1.0,0.0
7561,78.0,0.0,240.0,1.0,0.0
7562,62.0,0.0,120.0,2.0,0.0
7563,86.0,239.0,120.0,0.0,0.0
7564,83.0,1.0,240.0,1.0,0.0
7565,64.0,228.0,240.0,3.0,0.0
7566,59.0,0.0,240.0,3.0,0.0
7567,79.0,0.0,240.0,1.0,0.0
7568,62.0,0.0,120.0,2.0,0.0
7569,86.0,0.0,120.0,0.0,0.0
7570,84.0,1.0,240.0,1.0,0.0
7571,81.0,0.0,240.0,1.0,0.0
7572,50.0,11.0,240.0,3.0,0.0
7573,62.0,0.0,120.0,3.0,0.0
7574,86.0,228.0,120.0,0.0,0.0
7575,49.0,11.0,240.0,3.0,0.0
7576,78.0,1.0,240.0,1.0,0.0
7577,74.0,0.0,240.0,1.0,0.0
7578,61.0,228.0,120.0,3.0,0.0
7579,86.0,0.0,120.0,0.0,0.0
7580,74.0,1.0,240.0,1.0,0.0
7581,78.0,0.0,240.0,1.0,0.0
7582,48.0,11.0,240.0,3.0,0.0
7583,86.0,0.0,120.0,0.0,0.0
7584,60.0,228.0,120.0,3.0,0.0
7585,47.0,11.0,240.0,3.0,0.0
7586,79.0,1.0,240.0,1.0,0.0
7587,76.0,0.0,240.0,1.0,0.0
7588,59.0,0.0,120.0,3.0,0.0
7589,88.0,228.0,120.0,0.0,0.0
7590,81.0,0.0,240.0,1.0,0.0
7591,78.0,1.0,240.0,1.0,0.0
7592,45.0,11.0,240.0,3.0,0.0
7593,57.0,0.0,120.0,3.0,0.0
7594,90.0,228.0,120.0,0.0,0.0
7595,79.0,0.0,240.0,1.0,0.0
7596,83.0,1.0,240.0,1.0,0.0
7597,43.0,11.0,240.0,3.0,0.0
7598,91.0,0.0,120.0,0.0,0.0
7599,55.0,228.0,120.0,3.0,0.0
7600,81.0,0.0,240.0,1.0,0.0
7601,84.0,1.0,240.0,1.0,0.0
7602,42.0,11.0,240.0,3.0,0.0
7603,54.0,228.0,120.0,3.0,0.0
7604,93.0,0.0,120.0,0.0,0.0
7605,40.0,11.0,240.0,3.0,0.0
7606,84.0,1.0,240.0,1.0,0.0
7607,81.0,0.0,240.0,1.0,0.0
7608,52.0,0.0,120.0,3.0,0.0
7609,93.0,1920.0,15.0,0.0,0.0
7610,50.0,0.0,1920.0,3.0,0.0
7611,38.0,0.0,1920.0,3.0,0.0
7612,84.0,0.0,1920.0,1.0,0.0
7613,81.0,0.0,1920.0,1.0,0.0
7614,43.0,480.0,480.0,3.0,0.0
7615,62.0,0.0,1920.0,1.0,0.0
7616,55.0,0.0,480.0,2.0,0.0
7617,71.0,0.0,1920.0,0.0,0.0
7618,67.0,240.0,1920.0,1.0,0.0
7619,55.0,0.0,480.0,2.0,0.0
7620,43.0,480.0,15.0,3.0,0.0
7621,55.0,480.0,480.0,2.0,0.0
7622,55.0,0.0,480.0,2.0,0.0
7623,43.0,0.0,480.0,3.0,0.0
7624,71.0,240.0,240.0,0.0,0.0
7625,60.0,0.0,960.0,1.0,0.0
7626,66.0,0.0,960.0,1.0,0.0
7627,69.0,0.0,240.0,0.0,0.0
7628,55.0,0.0,15.0,2.0,0.0
7629,67.0,120.0,240.0,0.0,0.0
7630,43.0,240.0,15.0,3.0,0.0
7631,71.0,120.0,120.0,0.0,0.0
7632,69.0,0.0,120.0,0.0,0.0
7633,59.0,0.0,1380.0,1.0,0.0
7634,62.0,7.0,1380.0,1.0,0.0
7635,67.0,53.0,1380.0,0.0,0.0
7636,55.0,0.0,15.0,2.0,0.0
7637,55.0,420.0,480.0,2.0,0.0
7638,43.0,480.0,15.0,3.0,0.0
7639,43.0,480.0,480.0,3.0,0.0
7640,55.0,0.0,480.0,2.0,0.0
7641,67.0,0.0,480.0,0.0,0.0
7642,55.0,480.0,480.0,2.0,0.0
7643,59.0,0.0,480.0,1.0,0.0
7644,62.0,0.0,480.0,1.0,0.0
7645,43.0,0.0,15.0,3.0,0.0
7646,60.0,0.0,480.0,1.0,0.0
7647,66.0,0.0,480.0,1.0,0.0
7648,69.0,0.0,480.0,0.0,0.0
7649,62.0,0.0,480.0,1.0,0.0
7650,71.0,480.0,480.0,0.0,0.0
7651,65.0,0.0,480.0,1.0,0.0
7652,55.0,480.0,15.0,2.0,0.0
7653,43.0,0.0,480.0,3.0,0.0
7654,72.0,0.0,900.0,0.0,0.0
7655,64.0,53.0,900.0,1.0,0.0
7656,55.0,0.0,15.0,2.0,0.0
7657,55.0,0.0,15.0,2.0,0.0
7658,43.0,427.0,15.0,3.0,0.0
7659,72.0,240.0,240.0,0.0,0.0
7660,64.0,0.0,240.0,2.0,0.0
7661,71.0,0.0,240.0,0.0,0.0
7662,63.0,0.0,240.0,2.0,0.0
7663,55.0,240.0,15.0,3.0,0.0
7664,72.0,240.0,240.0,0.0,0.0
7665,67.0,0.0,15.0,1.0,0.0
7666,64.0,0.0,240.0,2.0,0.0
7667,59.0,240.0,240.0,2.0,0.0
7668,74.0,0.0,240.0,0.0,0.0
7669,55.0,0.0,15.0,3.0,0.0
7670,76.0,0.0,240.0,0.0,0.0
7671,60.0,240.0,240.0,2.0,0.0
7672,62.0,120.0,240.0,2.0,0.0
7673,78.0,0.0,240.0,0.0,0.0
7674,81.0,0.0,120.0,0.0,0.0
7675,55.0,0.0,15.0,3.0,0.0
7676,67.0,0.0,15.0,1.0,0.0
7677,66.0,120.0,120.0,2.0,0.0
7678,64.0,0.0,120.0,2.0,0.0
7679,79.0,120.0,120.0,0.0,0.0
7680,78.0,0.0,120.0,0.0,0.0
7681,62.0,120.0,120.0,2.0,0.0
7682,76.0,0.0,120.0,0.0,0.0
7683,60.0,0.0,120.0,2.0,0.0
7684,73.0,120.0,720.0,0.0,0.0
7685,58.0,0.0,960.0,2.0,0.0
7686,67.0,0.0,15.0,1.0,0.0
7687,55.0,480.0,15.0,3.0,0.0
7688,55.0,240.0,15.0,3.0,0.0
7689,76.0,120.0,120.0,0.0,0.0
7690,74.0,0.0,15.0,0.0,0.0
7691,55.0,0.0,15.0,3.0,0.0
7692,59.0,45.0,360.0,2.0,0.0
7693,67.0,367.0,15.0,1.0,0.0
7694,74.0,0.0,480.0,0.0,0.0
7695,59.0,480.0,480.0,3.0,0.0
7696,62.0,0.0,480.0,2.0,0.0
7697,67.0,0.0,480.0,1.0,0.0
7698,74.0,480.0,480.0,0.0,0.0
7699,60.0,0.0,480.0,2.0,0.0
7700,57.0,0.0,480.0,3.0,0.0
7701,62.0,0.0,480.0,2.0,0.0
7702,69.0,0.0,480.0,1.0,0.0
7703,66.0,0.0,480.0,1.0,0.0
7704,59.0,0.0,480.0,2.0,0.0
7705,55.0,0.0,480.0,3.0,0.0
7706,74.0,0.0,480.0,0.0,0.0
7707,71.0,0.0,480.0,1.0,0.0
7708,67.0,480.0,480.0,1.0,0.0
7709,84.0,0.0,1440.0,0.0,0.0
7710,57.0,480.0,480.0,2.0,0.0
7711,62.0,0.0,15.0,2.0,0.0
7712,62.0,0.0,15.0,2.0,0.0
7713,54.0,0.0,15.0,3.0,0.0
7714,54.0,0.0,15.0,3.0,0.0
7715,57.0,0.0,15.0,2.0,0.0
7716,62.0,0.0,480.0,2.0,0.0
7717,57.0,0.0,480.0,2.0,0.0
7718,54.0,0.0,480.0,3.0,0.0
7719,84.0,8.0,480.0,0.0,0.0
7720,72.0,465.0,15.0,1.0,0.0
7721,72.0,0.0,240.0,1.0,0.0
7722,62.0,240.0,15.0,2.0,0.0
7723,84.0,240.0,240.0,0.0,0.0
7724,83.0,0.0,240.0,0.0,0.0
7725,71.0,0.0,240.0,1.0,0.0
7726,62.0,0.0,15.0,2.0,0.0
7727,59.0,0.0,15.0,2.0,0.0
7728,81.0,240.0,240.0,0.0,0.0
7729,55.0,240.0,15.0,3.0,0.0
7730,69.0,0.0,240.0,1.0,0.0
7731,67.0,0.0,240.0,1.0,0.0
7732,62.0,0.0,15.0,2.0,0.0
7733,60.0,0.0,480.0,2.0,0.0
7734,57.0,0.0,480.0,3.0,0.0
7735,79.0,0.0,15.0,0.0,0.0
7736,67.0,0.0,480.0,1.0,0.0
7737,60.0,427.0,480.0,2.0,0.0
7738,62.0,0.0,480.0,2.0,0.0
7739,78.0,0.0,900.0,0.0,0.0
7740,66.0,53.0,900.0,1.0,0.0
7741,57.0,0.0,15.0,3.0,0.0
7742,60.0,0.0,480.0,2.0,0.0
7743,62.0,480.0,15.0,2.0,0.0
7744,57.0,0.0,15.0,3.0,0.0
7745,78.0,240.0,480.0,0.0,0.0
7746,60.0,0.0,480.0,2.0,0.0
7747,66.0,0.0,480.0,1.0,0.0
7748,62.0,0.0,480.0,2.0,0.0
7749,59.0,0.0,480.0,3.0,0.0
7750,79.0,0.0,240.0,0.0,0.0
7751,67.0,40.0,15.0,1.0,0.0
7752,79.0,40.0,30.0,0.0,0.0
7753,81.0,40.0,30.0,0.0,0.0
7754,79.0,60.0,30.0,0.0,0.0
7755,78.0,60.0,60.0,0.0,0.0
7756,79.0,0.0,60.0,0.0,0.0
7757,65.0,0.0,480.0,3.0,0.0
7758,81.0,240.0,240.0,0.0,0.0
7759,67.0,192.0,480.0,2.0,0.0
7760,69.0,0.0,240.0,1.0,0.0
7761,71.0,0.0,240.0,1.0,0.0
7762,83.0,0.0,240.0,0.0,0.0
7763,72.0,0.0,180.0,1.0,0.0
7764,64.0,240.0,480.0,3.0,0.0
7765,67.0,0.0,480.0,2.0,0.0
7766,84.0,88.0,180.0,0.0,0.0
7767,72.0,0.0,240.0,1.0,0.0
7768,84.0,40.0,30.0,0.0,0.0
7769,86.0,40.0,30.0,0.0,0.0
7770,84.0,60.0,30.0,0.0,0.0
7771,83.0,60.0,60.0,0.0,0.0
7772,84.0,0.0,60.0,0.0,0.0
7773,67.0,0.0,480.0,2.0,0.0
7774,60.0,240.0,480.0,3.0,0.0
7775,86.0,192.0,240.0,0.0,0.0
7776,72.0,0.0,480.0,2.0,0.0
7777,74.0,0.0,240.0,1.0,0.0
7778,76.0,48.0,180.0,1.0,0.0
7779,88.0,0.0,180.0,0.0,0.0
7780,76.0,0.0,240.0,1.0,0.0
7781,88.0,240.0,240.0,0.0,0.0
7782,86.0,0.0,240.0,0.0,0.0
7783,74.0,0.0,240.0,1.0,0.0
7784,73.0,240.0,240.0,1.0,0.0
7785,62.0,0.0,15.0,3.0,0.0
7786,71.0,240.0,15.0,2.0,0.0
7787,67.0,0.0,15.0,2.0,0.0
7788,85.0,0.0,240.0,0.0,0.0
7789,62.0,0.0,480.0,3.0,0.0
7790,74.0,0.0,15.0,1.0,0.0
7791,86.0,240.0,15.0,0.0,0.0
7792,62.0,0.0,480.0,3.0,0.0
7793,72.0,0.0,15.0,2.0,0.0
7794,66.0,0.0,15.0,2.0,0.0
7795,85.0,0.0,240.0,0.0,0.0
7796,73.0,240.0,240.0,1.0,0.0
7797,86.0,0.0,240.0,0.0,0.0
7798,86.0,240.0,240.0,0.0,0.0
7799,71.0,1440.0,480.0,2.0,0.0
7800,55.0,0.0,480.0,3.0,0.0
7801,67.0,0.0,480.0,2.0,0.0
7802,74.0,240.0,15.0,1.0,0.0
7803,67.0,0.0,240.0,1.0,0.0
7804,79.0,0.0,240.0,0.0,0.0
7805,88.0,105.0,540.0,0.0,0.0
7806,52.0,0.0,480.0,3.0,0.0
7807,45.0,0.0,480.0,3.0,0.0
7808,42.0,55.0,480.0,3.0,0.0
7809,86.0,65.0,120.0,0.0,0.0
7810,85.0,62.0,120.0,0.0,0.0
7811,86.0,53.0,120.0,0.0,0.0
7812,85.0,60.0,120.0,0.0,0.0
7813,86.0,60.0,120.0,0.0,0.0
7814,85.0,15.0,120.0,0.0,0.0
7815,86.0,50.0,120.0,0.0,0.0
7816,85.0,65.0,120.0,0.0,0.0
7817,86.0,55.0,120.0,0.0,0.0
7818,85.0,65.0,120.0,0.0,0.0
7819,86.0,55.0,120.0,0.0,0.0
7820,85.0,65.0,120.0,0.0,0.0
7821,86.0,90.0,120.0,0.0,0.0
7822,85.0,77.0,150.0,0.0,0.0
7823,86.0,75.0,150.0,0.0,0.0
7824,88.0,68.0,120.0,0.0,0.0
7825,86.0,52.0,120.0,0.0,0.0
7826,88.0,68.0,120.0,0.0,0.0
7827,86.0,45.0,120.0,0.0,0.0
7828,88.0,67.0,120.0,0.0,0.0
7829,86.0,53.0,120.0,0.0,0.0
7830,88.0,67.0,120.0,0.0,0.0
7831,86.0,53.0,120.0,0.0,0.0
7832,88.0,67.0,120.0,0.0,0.0
7833,86.0,53.0,120.0,0.0,0.0
7834,88.0,67.0,120.0,0.0,0.0
7835,86.0,35.0,120.0,0.0,0.0
7836,88.0,71.0,90.0,0.0,0.0
7837,86.0,67.0,90.0,0.0,0.0
7838,85.0,105.0,120.0,0.0,0.0
7839,86.0,873.0,150.0,0.0,0.0
7840,79.0,57.0,900.0,0.0,0.0
7841,67.0,0.0,960.0,3.0,0.0
7842,71.0,1140.0,960.0,3.0,0.0
7843,54.0,240.0,480.0,3.0,0.0
7844,60.0,0.0,480.0,3.0,0.0
7845,76.0,240.0,15.0,0.0,0.0
7846,50.0,0.0,15.0,3.0,0.0
7847,54.0,240.0,480.0,3.0,0.0
7848,60.0,0.0,480.0,3.0,0.0
7849,76.0,240.0,15.0,0.0,0.0
7850,54.0,120.0,960.0,3.0,0.0
7851,60.0,0.0,960.0,3.0,0.0
7852,50.0,0.0,960.0,3.0,0.0
7853,75.0,120.0,120.0,0.0,0.0
7854,76.0,120.0,120.0,0.0,0.0
7855,78.0,120.0,120.0,0.0,0.0
7856,76.0,120.0,120.0,0.0,0.0
7857,74.0,120.0,120.0,0.0,0.0
7858,72.0,120.0,120.0,0.0,0.0
7859,71.0,120.0,120.0,0.0,0.0
7860,74.0,120.0,120.0,0.0,0.0
7861,72.0,120.0,120.0,0.0,0.0
7862,71.0,120.0,120.0,0.0,0.0
7863,74.0,120.0,120.0,0.0,0.0
7864,72.0,120.0,120.0,0.0,0.0
7865,71.0,120.0,120.0,0.0,0.0
7866,69.0,120.0,120.0,0.0,0.0
7867,68.0,120.0,120.0,0.0,0.0
7868,71.0,120.0,120.0,0.0,0.0
7869,69.0,120.0,120.0,0.0,0.0
7870,72.0,120.0,120.0,0.0,0.0
7871,71.0,120.0,120.0,0.0,0.0
7872,69.0,120.0,120.0,0.0,0.0
7873,67.0,120.0,120.0,0.0,0.0
7874,66.0,120.0,120.0,0.0,0.0
7875,69.0,120.0,120.0,0.0,0.0
7876,67.0,120.0,120.0,0.0,0.0
7877,66.0,120.0,120.0,0.0,0.0
7878,64.0,120.0,120.0,0.0,0.0
7879,62.0,120.0,120.0,0.0,0.0
7880,61.0,120.0,120.0,0.0,0.0
7881,64.0,120.0,120.0,0.0,0.0
7882,62.0,120.0,120.0,0.0,0.0
7883,60.0,120.0,120.0,0.0,0.0
7884,59.0,480.0,120.0,0.0,0.0
7885,62.0,480.0,480.0,0.0,0.0
7886,60.0,480.0,480.0,0.0,0.0
7887,57.0,480.0,480.0,0.0,0.0
7888,55.0,0.0,480.0,0.0,0.0
7889,43.0,480.0,240.0,3.0,0.0
7890,52.0,0.0,480.0,0.0,0.0
7891,48.0,480.0,240.0,3.0,0.0
7892,57.0,480.0,480.0,0.0,0.0
7893,45.0,0.0,240.0,3.0,0.0
7894,54.0,0.0,480.0,0.0,0.0
7895,50.0,480.0,240.0,3.0,0.0
7896,59.0,240.0,480.0,0.0,0.0
7897,45.0,0.0,240.0,3.0,0.0
7898,55.0,120.0,720.0,0.0,0.0
7899,52.0,240.0,240.0,3.0,0.0
7900,50.0,240.0,240.0,3.0,0.0
7901,48.0,0.0,240.0,3.0,0.0
7902,45.0,120.0,240.0,3.0,0.0
7903,60.0,120.0,120.0,0.0,0.0
7904,57.0,0.0,120.0,1.0,0.0
7905,50.0,120.0,240.0,3.0,0.0
7906,57.0,0.0,120.0,0.0,0.0
7907,54.0,120.0,120.0,1.0,0.0
7908,38.0,480.0,240.0,3.0,0.0
7909,57.0,120.0,120.0,0.0,0.0
7910,54.0,0.0,120.0,1.0,0.0
7911,67.0,0.0,480.0,1.0,0.0
7912,71.0,0.0,480.0,0.0,0.0
7913,55.0,480.0,240.0,3.0,0.0
7914,64.0,0.0,480.0,1.0,0.0
7915,67.0,480.0,480.0,0.0,0.0
7916,60.0,0.0,240.0,3.0,0.0
7917,69.0,0.0,480.0,1.0,0.0
7918,72.0,480.0,480.0,0.0,0.0
7919,57.0,0.0,240.0,3.0,0.0
7920,66.0,0.0,480.0,1.0,0.0
7921,69.0,0.0,480.0,0.0,0.0
7922,62.0,480.0,240.0,3.0,0.0
7923,71.0,0.0,480.0,1.0,0.0
7924,74.0,240.0,480.0,0.0,0.0
7925,59.0,0.0,240.0,3.0,0.0
7926,68.0,0.0,720.0,1.0,0.0
7927,64.0,240.0,240.0,3.0,0.0
7928,71.0,0.0,720.0,0.0,0.0
7929,62.0,240.0,240.0,3.0,0.0
7930,60.0,120.0,240.0,3.0,0.0
7931,57.0,120.0,240.0,3.0,0.0
7932,69.0,120.0,120.0,1.0,0.0
7933,72.0,0.0,120.0,0.0,0.0
7934,69.0,0.0,120.0,0.0,0.0
7935,66.0,120.0,120.0,1.0,0.0
7936,62.0,120.0,240.0,3.0,0.0
7937,50.0,480.0,240.0,3.0,0.0
7938,69.0,0.0,120.0,0.0,0.0
7939,66.0,120.0,120.0,1.0,0.0
7940,74.0,0.0,480.0,1.0,0.0
7941,83.0,240.0,480.0,0.0,0.0
7942,59.0,0.0,240.0,3.0,0.0
7943,64.0,240.0,240.0,3.0,0.0
7944,80.0,120.0,720.0,0.0,0.0
7945,71.0,0.0,15.0,1.0,0.0
7946,68.0,0.0,720.0,1.0,0.0
7947,62.0,240.0,240.0,3.0,0.0
7948,60.0,0.0,240.0,3.0,0.0
7949,72.0,0.0,120.0,1.0,0.0
7950,81.0,120.0,120.0,0.0,0.0
7951,57.0,120.0,240.0,3.0,0.0
7952,69.0,0.0,120.0,1.0,0.0
7953,66.0,120.0,120.0,1.0,0.0
7954,78.0,0.0,120.0,0.0,0.0
7955,62.0,120.0,240.0,3.0,0.0
7956,69.0,0.0,120.0,1.0,0.0
7957,50.0,480.0,240.0,3.0,0.0
7958,66.0,120.0,120.0,1.0,0.0
7959,69.0,0.0,120.0,1.0,0.0
7960,78.0,0.0,120.0,0.0,0.0
7961,74.0,0.0,480.0,1.0,0.0
7962,78.0,0.0,480.0,1.0,0.0
7963,86.0,240.0,480.0,0.0,0.0
7964,59.0,0.0,240.0,3.0,0.0
7965,71.0,0.0,720.0,1.0,0.0
7966,80.0,0.0,720.0,1.0,0.0
7967,64.0,240.0,240.0,3.0,0.0
7968,83.0,120.0,720.0,0.0,0.0
7969,62.0,240.0,240.0,3.0,0.0
7970,60.0,0.0,240.0,3.0,0.0
7971,57.0,120.0,240.0,3.0,0.0
7972,72.0,0.0,120.0,1.0,0.0
7973,81.0,0.0,120.0,1.0,0.0
7974,84.0,120.0,120.0,0.0,0.0
7975,78.0,120.0,120.0,1.0,0.0
7976,69.0,0.0,120.0,1.0,0.0
7977,62.0,120.0,240.0,3.0,0.0
7978,50.0,120.0,240.0,3.0,0.0
7979,69.0,120.0,120.0,1.0,0.0
7980,78.0,0.0,120.0,1.0,0.0
7981,81.0,0.0,120.0,0.0,0.0
7982,55.0,240.0,120.0,3.0,0.0
7983,43.0,0.0,120.0,3.0,0.0
7984,79.0,0.0,120.0,0.0,0.0
7985,67.0,0.0,120.0,1.0,0.0
7986,56.0,110.0,120.0,3.0,0.0
7987,83.0,110.0,240.0,1.0,0.0
7988,86.0,20.0,210.0,0.0,0.0
7989,57.0,110.0,120.0,3.0,0.0
7990,84.0,110.0,240.0,1.0,0.0
7991,86.0,20.0,210.0,0.0,0.0
7992,54.0,110.0,120.0,3.0,0.0
7993,81.0,110.0,240.0,1.0,0.0
7994,86.0,20.0,210.0,0.0,0.0
7995,55.0,110.0,120.0,3.0,0.0
7996,83.0,110.0,240.0,1.0,0.0
7997,86.0,20.0,210.0,0.0,0.0
7998,47.0,110.0,120.0,3.0,0.0
7999,79.0,110.0,240.0,1.0,0.0
8000,86.0,20.0,210.0,0.0,0.0
8001,48.0,110.0,120.0,3.0,0.0
8002,81.0,110.0,240.0,1.0,0.0
8003,86.0,20.0,210.0,0.0,0.0
8004,50.0,110.0,120.0,3.0,0.0
8005,78.0,110.0,240.0,1.0,0.0
8006,86.0,20.0,210.0,0.0,0.0
8007,55.0,110.0,120.0,3.0,0.0
8008,43.0,0.0,120.0,3.0,0.0
8009,79.0,110.0,240.0,1.0,0.0
8010,86.0,20.0,210.0,0.0,0.0
8011,83.0,110.0,240.0,1.0,0.0
8012,56.0,110.0,120.0,3.0,0.0
8013,86.0,20.0,210.0,0.0,0.0
8014,57.0,110.0,120.0,3.0,0.0
8015,84.0,110.0,240.0,1.0,0.0
8016,86.0,20.0,210.0,0.0,0.0
8017,54.0,110.0,120.0,3.0,0.0
8018,81.0,110.0,240.0,1.0,0.0
8019,86.0,20.0,210.0,0.0,0.0
8020,83.0,110.0,240.0,1.0,0.0
8021,55.0,110.0,120.0,3.0,0.0
8022,86.0,20.0,210.0,0.0,0.0
8023,47.0,110.0,120.0,3.0,0.0
8024,79.0,110.0,240.0,1.0,0.0
8025,86.0,20.0,210.0,0.0,0.0
8026,81.0,110.0,240.0,1.0,0.0
8027,48.0,110.0,120.0,3.0,0.0
8028,86.0,20.0,210.0,0.0,0.0
8029,78.0,110.0,240.0,1.0,0.0
8030,50.0,110.0,120.0,3.0,0.0
8031,86.0,20.0,210.0,0.0,0.0
8032,79.0,110.0,240.0,1.0,0.0
8033,43.0,110.0,120.0,3.0,0.0
8034,86.0,20.0,210.0,0.0,0.0
8035,83.0,110.0,240.0,1.0,0.0
8036,38.0,110.0,120.0,3.0,0.0
8037,86.0,20.0,210.0,0.0,0.0
8038,79.0,110.0,240.0,1.0,0.0
8039,43.0,110.0,120.0,3.0,0.0
8040,86.0,20.0,210.0,0.0,0.0
8041,38.0,110.0,120.0,3.0,0.0
8042,83.0,110.0,240.0,1.0,0.0
8043,86.0,20.0,210.0,0.0,0.0
8044,79.0,110.0,240.0,1.0,0.0
8045,43.0,110.0,120.0,3.0,0.0
8046,86.0,20.0,210.0,0.0,0.0
8047,38.0,110.0,120.0,3.0,0.0
8048,83.0,110.0,240.0,1.0,0.0
8049,86.0,20.0,210.0,0.0,0.0
8050,79.0,110.0,240.0,1.0,0.0
8051,43.0,110.0,120.0,3.0,0.0
8052,86.0,20.0,210.0,0.0,0.0
8053,83.0,10.0,240.0,1.0,0.0
8054,38.0,110.0,120.0,3.0,0.0
8055,86.0,415.0,120.0,0.0,0.0
8056,43.0,5.0,420.0,3.0,0.0
8057,79.0,475.0,420.0,0.0,0.0
8058,43.0,535.0,420.0,3.0,0.0
8059,47.0,0.0,420.0,3.0,0.0
8060,50.0,0.0,420.0,3.0,0.0
8061,55.0,0.0,420.0,3.0,0.0
8062,71.0,5.0,420.0,1.0,0.0
8063,74.0,0.0,420.0,1.0,0.0
8064,79.0,5.0,420.0,1.0,0.0
8065,83.0,0.0,420.0,0.0,0.0
8066,67.0,0.0,480.0,0.0,0.0
8067,59.0,0.0,480.0,1.0,0.0
8068,62.0,0.0,480.0,1.0,0.0
8069,55.0,0.0,480.0,3.0,0.0
8070,43.0,0.0,480.0,3.0,0.0
8071,50.0,0.0,480.0,3.0,0.0
8072,47.0,0.0,480.0,3.0,0.0
