,note,step,duration,channel,velocity
0,71.0,0.0,960.0,0.0,0.0
1,67.0,960.0,960.0,1.0,0.0
2,69.0,1380.0,960.0,0.0,0.0
3,62.0,0.0,960.0,1.0,0.0
4,59.0,7.0,1380.0,1.0,0.0
5,40.0,0.0,1380.0,2.0,0.0
6,52.0,413.0,1380.0,2.0,0.0
7,67.0,0.0,1380.0,0.0,0.0
8,55.0,0.0,480.0,2.0,0.0
9,67.0,120.0,360.0,0.0,0.0
10,52.0,427.0,480.0,2.0,0.0
11,72.0,0.0,120.0,0.0,0.0
12,50.0,0.0,420.0,2.0,0.0
13,56.0,0.0,420.0,2.0,0.0
14,71.0,413.0,420.0,0.0,0.0
15,56.0,0.0,480.0,2.0,0.0
16,71.0,120.0,360.0,0.0,0.0
17,50.0,420.0,480.0,2.0,0.0
18,77.0,0.0,120.0,0.0,0.0
19,76.0,140.0,480.0,0.0,0.0
20,49.0,38.0,420.0,2.0,0.0
21,57.0,7.0,420.0,2.0,0.0
22,76.0,45.0,120.0,0.0,0.0
23,58.0,0.0,480.0,2.0,0.0
24,48.0,0.0,480.0,2.0,0.0
25,78.0,40.0,60.0,0.0,0.0
26,76.0,45.0,60.0,0.0,0.0
27,75.0,110.0,60.0,0.0,0.0
28,76.0,115.0,120.0,0.0,0.0
29,78.0,480.0,120.0,0.0,0.0
30,59.0,0.0,480.0,2.0,0.0
31,47.0,0.0,1380.0,2.0,0.0
32,79.0,240.0,720.0,0.0,0.0
33,61.0,0.0,480.0,2.0,0.0
34,67.0,240.0,15.0,1.0,0.0
35,70.0,0.0,480.0,1.0,0.0
36,76.0,420.0,240.0,0.0,0.0
37,63.0,7.0,420.0,2.0,0.0
38,75.0,0.0,420.0,0.0,0.0
39,71.0,293.0,420.0,1.0,0.0
40,66.0,0.0,420.0,1.0,0.0
41,83.0,240.0,240.0,0.0,0.0
42,91.0,480.0,240.0,0.0,0.0
43,59.0,0.0,1380.0,2.0,0.0
44,71.0,240.0,480.0,2.0,0.0
45,91.0,240.0,720.0,0.0,0.0
46,79.0,0.0,15.0,1.0,0.0
47,73.0,0.0,480.0,2.0,0.0
48,82.0,0.0,480.0,1.0,0.0
49,88.0,0.0,240.0,0.0,0.0
50,87.0,7.0,420.0,0.0,0.0
51,83.0,0.0,420.0,1.0,0.0
52,78.0,0.0,420.0,1.0,0.0
53,75.0,473.0,420.0,2.0,0.0
54,71.0,0.0,480.0,2.0,0.0
55,86.0,60.0,420.0,0.0,0.0
56,83.0,480.0,480.0,1.0,0.0
57,69.0,0.0,480.0,2.0,0.0
58,78.0,0.0,15.0,1.0,0.0
59,72.0,0.0,480.0,2.0,0.0
60,74.0,0.0,15.0,2.0,0.0
61,86.0,0.0,1080.0,0.0,0.0
62,67.0,0.0,480.0,2.0,0.0
63,71.0,130.0,480.0,2.0,0.0
64,79.0,0.0,480.0,1.0,0.0
65,81.0,190.0,120.0,1.0,0.0
66,66.0,0.0,420.0,2.0,0.0
67,69.0,0.0,420.0,2.0,0.0
68,74.0,107.0,150.0,0.0,0.0
69,76.0,180.0,120.0,0.0,0.0
70,73.0,135.0,120.0,0.0,0.0
71,66.0,960.0,480.0,2.0,0.0
72,62.0,0.0,480.0,2.0,0.0
73,74.0,182.0,90.0,0.0,0.0
74,72.0,36.0,120.0,0.0,0.0
75,71.0,960.0,960.0,0.0,0.0
76,68.0,0.0,960.0,1.0,0.0
77,65.0,0.0,960.0,1.0,0.0
78,62.0,0.0,960.0,1.0,0.0
79,38.0,0.0,960.0,2.0,0.0
80,50.0,0.0,960.0,2.0,0.0
81,69.0,1380.0,960.0,0.0,0.0
82,66.0,0.0,960.0,1.0,0.0
83,60.0,0.0,960.0,1.0,0.0
84,51.0,413.0,1380.0,2.0,0.0
85,39.0,7.0,1380.0,2.0,0.0
86,58.0,0.0,1380.0,1.0,0.0
87,55.0,0.0,1380.0,1.0,0.0
88,67.0,0.0,1380.0,0.0,0.0
89,58.0,0.0,480.0,2.0,0.0
90,67.0,0.0,480.0,1.0,0.0
91,51.0,420.0,480.0,2.0,0.0
92,70.0,120.0,360.0,0.0,0.0
93,75.0,0.0,120.0,0.0,0.0
94,75.0,413.0,420.0,0.0,0.0
95,53.0,7.0,420.0,2.0,0.0
96,58.0,0.0,420.0,2.0,0.0
97,68.0,0.0,420.0,1.0,0.0
98,74.0,120.0,360.0,0.0,0.0
99,53.0,0.0,480.0,2.0,0.0
100,68.0,0.0,480.0,1.0,0.0
101,58.0,0.0,480.0,2.0,0.0
102,80.0,427.0,120.0,0.0,0.0
103,51.0,0.0,420.0,2.0,0.0
104,67.0,173.0,420.0,1.0,0.0
105,58.0,0.0,420.0,2.0,0.0
106,79.0,0.0,420.0,0.0,0.0
107,58.0,0.0,960.0,2.0,0.0
108,50.0,0.0,480.0,2.0,0.0
109,79.0,50.0,120.0,0.0,0.0
110,81.0,40.0,60.0,0.0,0.0
111,79.0,50.0,60.0,0.0,0.0
112,78.0,105.0,60.0,0.0,0.0
113,79.0,115.0,120.0,0.0,0.0
114,81.0,480.0,120.0,0.0,0.0
115,49.0,0.0,960.0,2.0,0.0
116,82.0,240.0,720.0,0.0,0.0
117,76.0,240.0,15.0,1.0,0.0
118,79.0,0.0,240.0,0.0,0.0
119,74.0,7.0,420.0,1.0,0.0
120,50.0,0.0,420.0,2.0,0.0
121,57.0,420.0,15.0,2.0,0.0
122,78.0,178.0,420.0,0.0,0.0
123,48.0,15.0,480.0,2.0,0.0
124,77.0,55.0,120.0,0.0,0.0
125,56.0,0.0,480.0,2.0,0.0
126,79.0,35.0,60.0,0.0,0.0
127,77.0,40.0,60.0,0.0,0.0
128,76.0,105.0,60.0,0.0,0.0
129,77.0,120.0,120.0,0.0,0.0
130,79.0,465.0,120.0,0.0,0.0
131,47.0,0.0,960.0,2.0,0.0
132,80.0,120.0,720.0,0.0,0.0
133,56.0,240.0,480.0,2.0,0.0
134,74.0,0.0,15.0,1.0,0.0
135,79.0,120.0,120.0,0.0,0.0
136,77.0,0.0,120.0,0.0,0.0
137,48.0,7.0,420.0,2.0,0.0
138,75.0,0.0,420.0,0.0,0.0
139,55.0,420.0,15.0,2.0,0.0
140,72.0,0.0,420.0,1.0,0.0
141,46.0,0.0,450.0,2.0,0.0
142,74.0,7.0,420.0,1.0,0.0
143,50.0,548.0,450.0,2.0,0.0
144,58.0,0.0,450.0,2.0,0.0
145,67.0,0.0,450.0,1.0,0.0
146,79.0,8.0,420.0,0.0,0.0
147,66.0,18.0,510.0,1.0,0.0
148,78.0,7.0,540.0,0.0,0.0
149,50.0,8.0,540.0,2.0,0.0
150,45.0,890.0,540.0,2.0,0.0
151,72.0,0.0,510.0,1.0,0.0
152,74.0,7.0,510.0,1.0,0.0
153,57.0,0.0,540.0,2.0,0.0
154,66.0,240.0,240.0,1.0,0.0
155,72.0,0.0,240.0,1.0,0.0
156,74.0,0.0,240.0,1.0,0.0
157,57.0,0.0,240.0,2.0,0.0
158,45.0,0.0,240.0,2.0,0.0
159,78.0,0.0,240.0,0.0,0.0
160,50.0,0.0,15.0,2.0,0.0
161,79.0,0.0,240.0,0.0,0.0
162,67.0,0.0,240.0,1.0,0.0
163,74.0,0.0,240.0,1.0,0.0
164,55.0,0.0,15.0,2.0,0.0
165,43.0,0.0,15.0,2.0,0.0
166,50.0,0.0,15.0,2.0,0.0
167,67.0,0.0,240.0,1.0,0.0
168,70.0,240.0,15.0,1.0,0.0
169,79.0,0.0,240.0,0.0,0.0
170,81.0,0.0,480.0,0.0,0.0
171,54.0,0.0,480.0,2.0,0.0
172,50.0,0.0,480.0,2.0,0.0
173,42.0,0.0,480.0,2.0,0.0
174,69.0,0.0,480.0,1.0,0.0
175,74.0,480.0,15.0,1.0,0.0
176,74.0,240.0,240.0,1.0,0.0
177,72.0,0.0,240.0,2.0,0.0
178,78.0,0.0,240.0,0.0,0.0
179,69.0,0.0,240.0,2.0,0.0
180,79.0,240.0,240.0,0.0,0.0
181,74.0,0.0,15.0,1.0,0.0
182,67.0,0.0,15.0,2.0,0.0
183,70.0,0.0,15.0,2.0,0.0
184,79.0,480.0,240.0,0.0,0.0
185,66.0,0.0,480.0,2.0,0.0
186,69.0,960.0,480.0,2.0,0.0
187,74.0,0.0,15.0,1.0,0.0
188,81.0,0.0,480.0,0.0,0.0
189,69.0,0.0,240.0,2.0,0.0
190,74.0,240.0,240.0,1.0,0.0
191,66.0,0.0,240.0,2.0,0.0
192,81.0,0.0,240.0,0.0,0.0
193,83.0,0.0,240.0,0.0,0.0
194,65.0,0.0,240.0,2.0,0.0
195,67.0,0.0,240.0,2.0,0.0
196,74.0,240.0,240.0,1.0,0.0
197,72.0,0.0,240.0,1.0,0.0
198,67.0,0.0,240.0,2.0,0.0
199,63.0,0.0,240.0,2.0,0.0
200,63.0,0.0,480.0,2.0,0.0
201,67.0,0.0,480.0,2.0,0.0
202,72.0,960.0,480.0,1.0,0.0
203,84.0,480.0,15.0,0.0,0.0
204,69.0,0.0,240.0,2.0,0.0
205,66.0,0.0,240.0,2.0,0.0
206,81.0,0.0,240.0,0.0,0.0
207,74.0,240.0,15.0,1.0,0.0
208,83.0,0.0,240.0,0.0,0.0
209,65.0,0.0,240.0,2.0,0.0
210,64.0,0.0,240.0,2.0,0.0
211,67.0,0.0,15.0,2.0,0.0
212,72.0,960.0,240.0,1.0,0.0
213,84.0,0.0,240.0,0.0,0.0
214,67.0,0.0,480.0,2.0,0.0
215,64.0,0.0,480.0,2.0,0.0
216,72.0,0.0,480.0,0.0,0.0
217,84.0,960.0,480.0,0.0,0.0
218,67.0,0.0,480.0,2.0,0.0
219,64.0,0.0,480.0,2.0,0.0
220,72.0,0.0,480.0,0.0,0.0
221,84.0,1440.0,480.0,0.0,0.0
222,72.0,240.0,1440.0,1.0,0.0
223,64.0,0.0,1440.0,2.0,0.0
224,67.0,0.0,1440.0,2.0,0.0
225,84.0,0.0,1440.0,0.0,0.0
226,66.0,240.0,240.0,2.0,0.0
227,63.0,0.0,240.0,2.0,0.0
228,78.0,0.0,240.0,0.0,0.0
229,83.0,0.0,15.0,0.0,0.0
230,71.0,360.0,15.0,1.0,0.0
231,62.0,0.0,15.0,2.0,0.0
232,65.0,0.0,15.0,2.0,0.0
233,76.0,0.0,240.0,0.0,0.0
234,69.0,360.0,480.0,1.0,0.0
235,61.0,0.0,240.0,2.0,0.0
236,64.0,240.0,240.0,2.0,0.0
237,81.0,0.0,240.0,0.0,0.0
238,60.0,0.0,240.0,2.0,0.0
239,63.0,0.0,15.0,2.0,0.0
240,69.0,0.0,480.0,1.0,0.0
241,81.0,240.0,480.0,0.0,0.0
242,60.0,0.0,360.0,2.0,0.0
243,67.0,960.0,480.0,1.0,0.0
244,74.0,240.0,240.0,0.0,0.0
245,59.0,0.0,240.0,2.0,0.0
246,62.0,0.0,240.0,2.0,0.0
247,61.0,0.0,240.0,2.0,0.0
248,79.0,0.0,240.0,0.0,0.0
249,58.0,0.0,240.0,2.0,0.0
250,57.0,0.0,1440.0,2.0,0.0
251,79.0,0.0,960.0,0.0,0.0
252,60.0,0.0,1440.0,2.0,0.0
253,74.0,0.0,1440.0,1.0,0.0
254,72.0,480.0,1440.0,1.0,0.0
255,67.0,480.0,960.0,1.0,0.0
256,78.0,0.0,480.0,0.0,0.0
257,66.0,0.0,480.0,1.0,0.0
258,55.0,0.0,480.0,2.0,0.0
259,74.0,480.0,480.0,1.0,0.0
260,67.0,0.0,480.0,1.0,0.0
261,59.0,0.0,480.0,2.0,0.0
262,79.0,0.0,480.0,0.0,0.0
263,81.0,0.0,480.0,0.0,0.0
264,57.0,480.0,480.0,2.0,0.0
265,74.0,0.0,480.0,1.0,0.0
266,69.0,0.0,480.0,1.0,0.0
267,54.0,0.0,480.0,2.0,0.0
268,71.0,480.0,480.0,1.0,0.0
269,74.0,0.0,480.0,1.0,0.0
270,83.0,0.0,480.0,0.0,0.0
271,52.0,0.0,480.0,2.0,0.0
272,55.0,0.0,480.0,2.0,0.0
273,84.0,480.0,480.0,0.0,0.0
274,54.0,0.0,480.0,2.0,0.0
275,74.0,0.0,480.0,1.0,0.0
276,72.0,0.0,480.0,1.0,0.0
277,54.0,0.0,480.0,2.0,0.0
278,57.0,0.0,480.0,2.0,0.0
279,50.0,0.0,15.0,2.0,0.0
280,74.0,0.0,480.0,1.0,0.0
281,86.0,240.0,480.0,0.0,0.0
282,43.0,240.0,420.0,2.0,0.0
283,71.0,0.0,240.0,1.0,0.0
284,74.0,0.0,240.0,1.0,0.0
285,83.0,168.0,240.0,0.0,0.0
286,50.0,240.0,420.0,2.0,0.0
287,59.0,240.0,420.0,2.0,0.0
288,50.0,72.0,420.0,2.0,0.0
289,43.0,240.0,420.0,2.0,0.0
290,74.0,168.0,240.0,1.0,0.0
291,86.0,0.0,240.0,0.0,0.0
292,50.0,240.0,420.0,2.0,0.0
293,59.0,72.0,420.0,2.0,0.0
294,50.0,408.0,240.0,2.0,0.0
295,86.0,168.0,1440.0,1.0,0.0
296,98.0,0.0,1440.0,0.0,0.0
297,45.0,240.0,420.0,2.0,0.0
298,50.0,240.0,420.0,2.0,0.0
299,60.0,240.0,420.0,2.0,0.0
300,50.0,240.0,420.0,2.0,0.0
301,45.0,72.0,420.0,2.0,0.0
302,50.0,240.0,420.0,2.0,0.0
303,86.0,0.0,1920.0,0.0,0.0
304,60.0,72.0,420.0,2.0,0.0
305,74.0,168.0,1920.0,1.0,0.0
306,50.0,464.0,240.0,2.0,0.0
307,47.0,184.0,450.0,2.0,0.0
308,50.0,240.0,420.0,2.0,0.0
309,62.0,240.0,420.0,2.0,0.0
310,50.0,240.0,420.0,2.0,0.0
311,47.0,72.0,420.0,2.0,0.0
312,50.0,240.0,420.0,2.0,0.0
313,62.0,72.0,420.0,2.0,0.0
314,83.0,436.0,480.0,0.0,0.0
315,71.0,0.0,480.0,1.0,0.0
316,50.0,0.0,240.0,2.0,0.0
317,48.0,44.0,450.0,2.0,0.0
318,81.0,0.0,480.0,0.0,0.0
319,69.0,196.0,480.0,1.0,0.0
320,50.0,240.0,450.0,2.0,0.0
321,66.0,196.0,480.0,1.0,0.0
322,78.0,0.0,480.0,0.0,0.0
323,60.0,44.0,450.0,2.0,0.0
324,50.0,240.0,450.0,2.0,0.0
325,38.0,44.0,450.0,2.0,0.0
326,63.0,0.0,480.0,1.0,0.0
327,75.0,196.0,480.0,0.0,0.0
328,50.0,240.0,450.0,2.0,0.0
329,57.0,44.0,450.0,2.0,0.0
330,74.0,240.0,480.0,0.0,0.0
331,62.0,0.0,480.0,1.0,0.0
332,50.0,0.0,240.0,2.0,0.0
333,62.0,0.0,240.0,1.0,0.0
334,43.0,212.0,450.0,2.0,0.0
335,74.0,196.0,240.0,0.0,0.0
336,50.0,240.0,420.0,2.0,0.0
337,59.0,240.0,420.0,2.0,0.0
338,50.0,72.0,420.0,2.0,0.0
339,74.0,0.0,240.0,1.0,0.0
340,43.0,240.0,420.0,2.0,0.0
341,86.0,168.0,240.0,0.0,0.0
342,50.0,240.0,420.0,2.0,0.0
343,59.0,72.0,420.0,2.0,0.0
344,50.0,436.0,240.0,2.0,0.0
345,86.0,168.0,1440.0,1.0,0.0
346,98.0,0.0,1440.0,0.0,0.0
347,45.0,212.0,450.0,2.0,0.0
348,50.0,240.0,420.0,2.0,0.0
349,60.0,240.0,420.0,2.0,0.0
350,50.0,240.0,420.0,2.0,0.0
351,45.0,72.0,420.0,2.0,0.0
352,50.0,240.0,420.0,2.0,0.0
353,74.0,168.0,1920.0,1.0,0.0
354,60.0,100.0,420.0,2.0,0.0
355,86.0,0.0,1920.0,0.0,0.0
356,50.0,408.0,270.0,2.0,0.0
357,47.0,212.0,450.0,2.0,0.0
358,55.0,240.0,420.0,2.0,0.0
359,62.0,240.0,420.0,2.0,0.0
360,55.0,240.0,420.0,2.0,0.0
361,47.0,72.0,420.0,2.0,0.0
362,55.0,240.0,420.0,2.0,0.0
363,71.0,0.0,480.0,1.0,0.0
364,62.0,72.0,420.0,2.0,0.0
365,83.0,0.0,480.0,0.0,0.0
366,55.0,480.0,240.0,2.0,0.0
367,68.0,12.0,480.0,1.0,0.0
368,80.0,0.0,480.0,0.0,0.0
369,48.0,128.0,480.0,2.0,0.0
370,55.0,240.0,390.0,2.0,0.0
371,69.0,0.0,480.0,1.0,0.0
372,81.0,140.0,480.0,0.0,0.0
373,64.0,100.0,390.0,2.0,0.0
374,55.0,240.0,390.0,2.0,0.0
375,76.0,0.0,480.0,0.0,0.0
376,49.0,100.0,390.0,2.0,0.0
377,64.0,140.0,480.0,1.0,0.0
378,57.0,240.0,390.0,2.0,0.0
379,64.0,100.0,390.0,2.0,0.0
380,79.0,240.0,480.0,0.0,0.0
381,67.0,0.0,480.0,1.0,0.0
382,57.0,0.0,240.0,2.0,0.0
383,66.0,120.0,240.0,1.0,0.0
384,78.0,0.0,240.0,0.0,0.0
385,50.0,120.0,360.0,2.0,0.0
386,62.0,0.0,360.0,2.0,0.0
387,74.0,240.0,240.0,0.0,0.0
388,73.0,0.0,240.0,0.0,0.0
389,67.0,240.0,240.0,2.0,0.0
390,74.0,240.0,240.0,0.0,0.0
391,66.0,0.0,240.0,2.0,0.0
392,64.0,0.0,240.0,2.0,0.0
393,76.0,240.0,240.0,0.0,0.0
394,73.0,0.0,240.0,1.0,0.0
395,78.0,0.0,240.0,0.0,0.0
396,74.0,0.0,240.0,1.0,0.0
397,62.0,240.0,240.0,2.0,0.0
398,79.0,240.0,240.0,0.0,0.0
399,76.0,0.0,240.0,1.0,0.0
400,61.0,0.0,240.0,2.0,0.0
401,78.0,0.0,240.0,1.0,0.0
402,60.0,240.0,240.0,2.0,0.0
403,81.0,0.0,240.0,0.0,0.0
404,59.0,240.0,240.0,2.0,0.0
405,79.0,0.0,960.0,1.0,0.0
406,83.0,240.0,960.0,0.0,0.0
407,57.0,240.0,240.0,2.0,0.0
408,55.0,240.0,240.0,2.0,0.0
409,54.0,0.0,240.0,2.0,0.0
410,84.0,240.0,240.0,1.0,0.0
411,55.0,0.0,240.0,2.0,0.0
412,88.0,0.0,240.0,0.0,0.0
413,86.0,240.0,240.0,0.0,0.0
414,83.0,0.0,240.0,1.0,0.0
415,57.0,0.0,240.0,2.0,0.0
416,84.0,240.0,240.0,0.0,0.0
417,81.0,0.0,240.0,1.0,0.0
418,59.0,0.0,240.0,2.0,0.0
419,60.0,0.0,240.0,2.0,0.0
420,79.0,480.0,240.0,1.0,0.0
421,83.0,0.0,240.0,0.0,0.0
422,81.0,0.0,480.0,0.0,0.0
423,62.0,0.0,480.0,2.0,0.0
424,78.0,240.0,480.0,1.0,0.0
425,64.0,240.0,240.0,2.0,0.0
426,66.0,240.0,240.0,2.0,0.0
427,100.0,240.0,240.0,0.0,0.0
428,67.0,0.0,240.0,2.0,0.0
429,96.0,0.0,240.0,1.0,0.0
430,69.0,0.0,240.0,2.0,0.0
431,95.0,0.0,240.0,1.0,0.0
432,98.0,240.0,240.0,0.0,0.0
433,93.0,0.0,240.0,1.0,0.0
434,71.0,0.0,240.0,2.0,0.0
435,96.0,240.0,240.0,0.0,0.0
436,72.0,480.0,240.0,2.0,0.0
437,91.0,0.0,240.0,1.0,0.0
438,95.0,0.0,240.0,0.0,0.0
439,93.0,0.0,480.0,0.0,0.0
440,74.0,0.0,480.0,2.0,0.0
441,88.0,0.0,480.0,1.0,0.0
442,90.0,240.0,480.0,1.0,0.0
443,88.0,240.0,240.0,0.0,0.0
444,72.0,0.0,240.0,2.0,0.0
445,78.0,0.0,240.0,1.0,0.0
446,86.0,0.0,240.0,0.0,0.0
447,79.0,0.0,240.0,1.0,0.0
448,71.0,240.0,240.0,2.0,0.0
449,75.0,0.0,240.0,1.0,0.0
450,84.0,155.0,240.0,0.0,0.0
451,69.0,0.0,240.0,2.0,0.0
452,67.0,0.0,150.0,2.0,0.0
453,76.0,240.0,150.0,1.0,0.0
454,83.0,0.0,150.0,0.0,0.0
455,71.0,0.0,150.0,1.0,0.0
456,81.0,0.0,150.0,0.0,0.0
457,66.0,240.0,150.0,2.0,0.0
458,79.0,0.0,150.0,1.0,0.0
459,82.0,240.0,150.0,0.0,0.0
460,64.0,0.0,150.0,2.0,0.0
461,78.0,240.0,150.0,1.0,0.0
462,83.0,0.0,150.0,0.0,0.0
463,63.0,0.0,150.0,2.0,0.0
464,78.0,240.0,150.0,1.0,0.0
465,82.0,0.0,150.0,1.0,0.0
466,85.0,0.0,150.0,0.0,0.0
467,61.0,0.0,150.0,2.0,0.0
468,78.0,0.0,150.0,1.0,0.0
469,83.0,240.0,150.0,1.0,0.0
470,59.0,0.0,150.0,2.0,0.0
471,87.0,0.0,150.0,0.0,0.0
472,78.0,0.0,150.0,1.0,0.0
473,83.0,0.0,150.0,1.0,0.0
474,57.0,0.0,150.0,2.0,0.0
475,87.0,240.0,150.0,0.0,0.0
476,55.0,0.0,150.0,2.0,0.0
477,79.0,0.0,150.0,1.0,0.0
478,83.0,0.0,150.0,1.0,0.0
479,88.0,240.0,150.0,0.0,0.0
480,87.0,0.0,150.0,1.0,0.0
481,54.0,240.0,150.0,2.0,0.0
482,90.0,0.0,150.0,0.0,0.0
483,81.0,0.0,150.0,1.0,0.0
484,52.0,0.0,150.0,2.0,0.0
485,83.0,0.0,150.0,1.0,0.0
486,91.0,240.0,150.0,0.0,0.0
487,88.0,0.0,150.0,1.0,0.0
488,92.0,0.0,150.0,0.0,0.0
489,52.0,0.0,150.0,2.0,0.0
490,50.0,0.0,150.0,2.0,0.0
491,88.0,445.0,150.0,1.0,0.0
492,83.0,0.0,150.0,1.0,0.0
493,50.0,960.0,360.0,2.0,0.0
494,52.0,0.0,360.0,2.0,0.0
495,92.0,0.0,360.0,0.0,0.0
496,83.0,0.0,360.0,1.0,0.0
497,88.0,0.0,360.0,1.0,0.0
498,93.0,2040.0,360.0,0.0,0.0
499,88.0,0.0,360.0,1.0,0.0
500,81.0,0.0,360.0,1.0,0.0
501,49.0,0.0,360.0,2.0,0.0
502,52.0,0.0,360.0,2.0,0.0
503,79.0,310.0,1440.0,0.0,0.0
504,74.0,240.0,2400.0,1.0,0.0
505,46.0,0.0,1440.0,2.0,0.0
506,45.0,575.0,390.0,2.0,0.0
507,81.0,75.0,300.0,0.0,0.0
508,82.0,190.0,1260.0,0.0,0.0
509,43.0,1440.0,1920.0,2.0,0.0
510,74.0,240.0,240.0,1.0,0.0
511,73.0,240.0,240.0,1.0,0.0
512,74.0,50.0,240.0,1.0,0.0
513,73.0,240.0,240.0,1.0,0.0
514,74.0,240.0,240.0,1.0,0.0
515,73.0,0.0,240.0,1.0,0.0
516,74.0,240.0,2400.0,1.0,0.0
517,79.0,310.0,1440.0,0.0,0.0
518,46.0,0.0,1440.0,2.0,0.0
519,52.0,0.0,15.0,2.0,0.0
520,45.0,575.0,390.0,2.0,0.0
521,81.0,75.0,300.0,0.0,0.0
522,44.0,0.0,1920.0,2.0,0.0
523,83.0,0.0,1920.0,0.0,0.0
524,74.0,240.0,240.0,1.0,0.0
525,73.0,240.0,240.0,1.0,0.0
526,74.0,240.0,240.0,1.0,0.0
527,73.0,240.0,240.0,1.0,0.0
528,74.0,240.0,240.0,1.0,0.0
529,73.0,0.0,240.0,1.0,0.0
530,82.0,353.0,360.0,0.0,0.0
531,52.0,360.0,15.0,2.0,0.0
532,45.0,0.0,360.0,2.0,0.0
533,74.0,240.0,240.0,1.0,0.0
534,73.0,240.0,240.0,1.0,0.0
535,74.0,240.0,240.0,1.0,0.0
536,73.0,240.0,240.0,1.0,0.0
537,74.0,240.0,240.0,1.0,0.0
538,73.0,360.0,240.0,1.0,0.0
539,54.0,0.0,360.0,2.0,0.0
540,81.0,360.0,360.0,0.0,0.0
541,45.0,0.0,360.0,2.0,0.0
542,76.0,240.0,240.0,1.0,0.0
543,75.0,240.0,240.0,1.0,0.0
544,76.0,240.0,240.0,1.0,0.0
545,75.0,240.0,240.0,1.0,0.0
546,76.0,240.0,240.0,1.0,0.0
547,75.0,360.0,240.0,1.0,0.0
548,81.0,0.0,360.0,0.0,0.0
549,45.0,360.0,360.0,2.0,0.0
550,55.0,0.0,360.0,2.0,0.0
551,78.0,240.0,240.0,1.0,0.0
552,76.0,360.0,240.0,1.0,0.0
553,81.0,360.0,360.0,0.0,0.0
554,54.0,0.0,360.0,2.0,0.0
555,45.0,0.0,360.0,2.0,0.0
556,76.0,240.0,240.0,1.0,0.0
557,74.0,360.0,240.0,1.0,0.0
558,52.0,0.0,360.0,2.0,0.0
559,45.0,0.0,360.0,2.0,0.0
560,81.0,360.0,360.0,0.0,0.0
561,74.0,240.0,240.0,1.0,0.0
562,73.0,360.0,240.0,1.0,0.0
563,45.0,0.0,360.0,2.0,0.0
564,81.0,360.0,360.0,0.0,0.0
565,54.0,0.0,360.0,2.0,0.0
566,76.0,240.0,240.0,1.0,0.0
567,74.0,360.0,240.0,1.0,0.0
568,52.0,0.0,360.0,2.0,0.0
569,45.0,0.0,360.0,2.0,0.0
570,82.0,360.0,360.0,0.0,0.0
571,74.0,240.0,240.0,1.0,0.0
572,73.0,240.0,240.0,1.0,0.0
573,74.0,240.0,240.0,1.0,0.0
574,73.0,240.0,240.0,1.0,0.0
575,74.0,240.0,240.0,1.0,0.0
576,73.0,360.0,240.0,1.0,0.0
577,45.0,0.0,360.0,2.0,0.0
578,54.0,0.0,360.0,2.0,0.0
579,81.0,360.0,360.0,0.0,0.0
580,76.0,240.0,240.0,1.0,0.0
581,75.0,240.0,240.0,1.0,0.0
582,76.0,240.0,240.0,1.0,0.0
583,75.0,240.0,240.0,1.0,0.0
584,76.0,240.0,240.0,1.0,0.0
585,75.0,360.0,240.0,1.0,0.0
586,55.0,0.0,360.0,2.0,0.0
587,45.0,360.0,360.0,2.0,0.0
588,81.0,0.0,360.0,0.0,0.0
589,78.0,240.0,240.0,1.0,0.0
590,76.0,360.0,240.0,1.0,0.0
591,54.0,0.0,360.0,2.0,0.0
592,81.0,360.0,360.0,0.0,0.0
593,45.0,0.0,360.0,2.0,0.0
594,76.0,240.0,240.0,1.0,0.0
595,75.0,360.0,240.0,1.0,0.0
596,81.0,360.0,360.0,0.0,0.0
597,55.0,0.0,360.0,2.0,0.0
598,45.0,0.0,360.0,2.0,0.0
599,78.0,240.0,240.0,1.0,0.0
600,76.0,480.0,240.0,1.0,0.0
601,57.0,0.0,480.0,2.0,0.0
602,81.0,240.0,480.0,0.0,0.0
603,59.0,240.0,240.0,2.0,0.0
604,79.0,0.0,960.0,0.0,0.0
605,76.0,0.0,960.0,1.0,0.0
606,61.0,240.0,240.0,2.0,0.0
607,62.0,240.0,240.0,2.0,0.0
608,69.0,0.0,960.0,1.0,0.0
609,64.0,240.0,240.0,2.0,0.0
610,78.0,0.0,480.0,0.0,0.0
611,66.0,240.0,240.0,2.0,0.0
612,74.0,0.0,480.0,1.0,0.0
613,67.0,385.0,240.0,2.0,0.0
614,76.0,0.0,390.0,0.0,0.0
615,69.0,240.0,480.0,2.0,0.0
616,73.0,95.0,390.0,1.0,0.0
617,91.0,0.0,960.0,0.0,0.0
618,88.0,0.0,960.0,1.0,0.0
619,71.0,240.0,240.0,2.0,0.0
620,73.0,240.0,240.0,2.0,0.0
621,74.0,240.0,240.0,2.0,0.0
622,81.0,0.0,960.0,1.0,0.0
623,76.0,240.0,240.0,2.0,0.0
624,86.0,385.0,480.0,1.0,0.0
625,78.0,240.0,240.0,2.0,0.0
626,90.0,0.0,480.0,0.0,0.0
627,79.0,0.0,240.0,2.0,0.0
628,88.0,0.0,390.0,0.0,0.0
629,85.0,0.0,390.0,1.0,0.0
630,81.0,575.0,390.0,2.0,0.0
631,79.0,0.0,480.0,2.0,0.0
632,84.0,385.0,480.0,1.0,0.0
633,88.0,0.0,480.0,1.0,0.0
634,95.0,0.0,960.0,0.0,0.0
635,86.0,385.0,480.0,1.0,0.0
636,78.0,95.0,390.0,2.0,0.0
637,81.0,0.0,480.0,1.0,0.0
638,77.0,95.0,390.0,2.0,0.0
639,93.0,0.0,960.0,0.0,0.0
640,81.0,385.0,480.0,1.0,0.0
641,76.0,95.0,390.0,2.0,0.0
642,86.0,0.0,15.0,1.0,0.0
643,83.0,385.0,480.0,1.0,0.0
644,69.0,95.0,390.0,2.0,0.0
645,91.0,0.0,480.0,0.0,0.0
646,85.0,0.0,480.0,1.0,0.0
647,88.0,480.0,480.0,1.0,0.0
648,90.0,480.0,1920.0,0.0,0.0
649,62.0,0.0,1920.0,2.0,0.0
650,81.0,240.0,240.0,1.0,0.0
651,68.0,240.0,960.0,2.0,0.0
652,65.0,0.0,960.0,2.0,0.0
653,83.0,240.0,240.0,1.0,0.0
654,81.0,240.0,240.0,1.0,0.0
655,83.0,240.0,240.0,1.0,0.0
656,81.0,0.0,240.0,1.0,0.0
657,69.0,0.0,480.0,2.0,0.0
658,83.0,240.0,240.0,1.0,0.0
659,66.0,0.0,480.0,2.0,0.0
660,81.0,0.0,240.0,1.0,0.0
661,88.0,240.0,1920.0,0.0,0.0
662,62.0,0.0,1920.0,2.0,0.0
663,79.0,240.0,240.0,1.0,0.0
664,81.0,240.0,240.0,1.0,0.0
665,73.0,0.0,1440.0,2.0,0.0
666,70.0,0.0,960.0,2.0,0.0
667,79.0,240.0,240.0,1.0,0.0
668,81.0,240.0,240.0,1.0,0.0
669,79.0,240.0,240.0,1.0,0.0
670,69.0,0.0,480.0,2.0,0.0
671,81.0,240.0,240.0,1.0,0.0
672,79.0,0.0,240.0,1.0,0.0
673,78.0,240.0,240.0,1.0,0.0
674,62.0,0.0,1920.0,2.0,0.0
675,86.0,0.0,960.0,0.0,0.0
676,74.0,240.0,240.0,1.0,0.0
677,76.0,240.0,240.0,1.0,0.0
678,66.0,0.0,480.0,2.0,0.0
679,69.0,480.0,480.0,2.0,0.0
680,74.0,0.0,240.0,1.0,0.0
681,83.0,0.0,480.0,0.0,0.0
682,67.0,0.0,480.0,2.0,0.0
683,71.0,480.0,480.0,2.0,0.0
684,74.0,0.0,240.0,1.0,0.0
685,69.0,0.0,480.0,2.0,0.0
686,74.0,0.0,240.0,1.0,0.0
687,57.0,0.0,1920.0,2.0,0.0
688,66.0,0.0,15.0,2.0,0.0
689,81.0,240.0,15.0,0.0,0.0
690,74.0,240.0,240.0,1.0,0.0
691,69.0,0.0,240.0,1.0,0.0
692,64.0,0.0,480.0,2.0,0.0
693,73.0,240.0,240.0,1.0,0.0
694,79.0,0.0,480.0,0.0,0.0
695,67.0,240.0,480.0,2.0,0.0
696,69.0,0.0,240.0,1.0,0.0
697,78.0,0.0,480.0,0.0,0.0
698,62.0,0.0,480.0,2.0,0.0
699,66.0,480.0,480.0,2.0,0.0
700,74.0,240.0,240.0,1.0,0.0
701,69.0,0.0,240.0,1.0,0.0
702,76.0,480.0,480.0,0.0,0.0
703,61.0,0.0,480.0,2.0,0.0
704,64.0,0.0,480.0,2.0,0.0
705,69.0,0.0,240.0,1.0,0.0
706,50.0,0.0,1920.0,2.0,0.0
707,78.0,0.0,1920.0,0.0,0.0
708,69.0,240.0,240.0,1.0,0.0
709,71.0,240.0,240.0,1.0,0.0
710,56.0,0.0,960.0,2.0,0.0
711,53.0,0.0,960.0,2.0,0.0
712,69.0,240.0,240.0,1.0,0.0
713,71.0,240.0,240.0,1.0,0.0
714,69.0,240.0,240.0,1.0,0.0
715,54.0,0.0,480.0,2.0,0.0
716,71.0,240.0,240.0,1.0,0.0
717,57.0,0.0,480.0,2.0,0.0
718,69.0,480.0,240.0,1.0,0.0
719,76.0,0.0,1920.0,0.0,0.0
720,67.0,240.0,240.0,1.0,0.0
721,61.0,0.0,1440.0,2.0,0.0
722,58.0,240.0,960.0,2.0,0.0
723,69.0,240.0,240.0,1.0,0.0
724,67.0,240.0,240.0,1.0,0.0
725,69.0,240.0,240.0,1.0,0.0
726,67.0,0.0,240.0,1.0,0.0
727,69.0,240.0,240.0,1.0,0.0
728,57.0,0.0,480.0,2.0,0.0
729,67.0,0.0,240.0,1.0,0.0
730,74.0,0.0,960.0,0.0,0.0
731,66.0,240.0,240.0,1.0,0.0
732,50.0,240.0,15.0,2.0,0.0
733,62.0,240.0,240.0,1.0,0.0
734,64.0,240.0,240.0,1.0,0.0
735,57.0,0.0,480.0,2.0,0.0
736,54.0,480.0,480.0,2.0,0.0
737,62.0,0.0,240.0,1.0,0.0
738,71.0,480.0,480.0,0.0,0.0
739,55.0,0.0,480.0,2.0,0.0
740,59.0,0.0,480.0,2.0,0.0
741,62.0,0.0,240.0,1.0,0.0
742,57.0,0.0,480.0,2.0,0.0
743,69.0,240.0,480.0,0.0,0.0
744,62.0,0.0,15.0,1.0,0.0
745,45.0,720.0,1920.0,2.0,0.0
746,54.0,0.0,15.0,2.0,0.0
747,69.0,240.0,480.0,0.0,0.0
748,57.0,0.0,240.0,1.0,0.0
749,52.0,0.0,480.0,2.0,0.0
750,55.0,0.0,480.0,2.0,0.0
751,61.0,240.0,240.0,1.0,0.0
752,67.0,240.0,480.0,0.0,0.0
753,57.0,0.0,240.0,1.0,0.0
754,62.0,240.0,240.0,1.0,0.0
755,54.0,480.0,480.0,2.0,0.0
756,50.0,0.0,480.0,2.0,0.0
757,66.0,0.0,480.0,0.0,0.0
758,57.0,0.0,240.0,1.0,0.0
759,52.0,0.0,480.0,2.0,0.0
760,49.0,0.0,480.0,2.0,0.0
761,64.0,0.0,480.0,0.0,0.0
762,55.0,0.0,240.0,1.0,0.0
763,50.0,240.0,720.0,2.0,0.0
764,38.0,0.0,720.0,2.0,0.0
765,62.0,240.0,1200.0,0.0,0.0
766,58.0,0.0,960.0,1.0,0.0
767,54.0,0.0,720.0,1.0,0.0
768,46.0,240.0,240.0,2.0,0.0
769,45.0,240.0,480.0,2.0,0.0
770,57.0,0.0,240.0,0.0,0.0
771,54.0,240.0,240.0,0.0,0.0
772,38.0,240.0,480.0,2.0,0.0
773,62.0,240.0,480.0,0.0,0.0
774,33.0,0.0,480.0,2.0,0.0
775,57.0,0.0,960.0,1.0,0.0
776,62.0,240.0,240.0,0.0,0.0
777,55.0,240.0,240.0,2.0,0.0
778,61.0,0.0,240.0,0.0,0.0
779,54.0,0.0,240.0,2.0,0.0
780,62.0,240.0,240.0,0.0,0.0
781,52.0,0.0,240.0,2.0,0.0
782,64.0,240.0,240.0,0.0,0.0
783,50.0,0.0,240.0,2.0,0.0
784,66.0,240.0,240.0,0.0,0.0
785,49.0,0.0,240.0,2.0,0.0
786,67.0,240.0,240.0,0.0,0.0
787,45.0,0.0,240.0,2.0,0.0
788,57.0,0.0,240.0,2.0,0.0
789,64.0,720.0,240.0,0.0,0.0
790,50.0,240.0,720.0,2.0,0.0
791,74.0,240.0,1200.0,0.0,0.0
792,70.0,0.0,960.0,1.0,0.0
793,66.0,0.0,720.0,1.0,0.0
794,58.0,240.0,240.0,2.0,0.0
795,57.0,0.0,480.0,2.0,0.0
796,69.0,240.0,240.0,0.0,0.0
797,50.0,240.0,480.0,2.0,0.0
798,66.0,240.0,240.0,0.0,0.0
799,74.0,240.0,480.0,0.0,0.0
800,69.0,0.0,960.0,1.0,0.0
801,45.0,240.0,480.0,2.0,0.0
802,74.0,0.0,240.0,0.0,0.0
803,73.0,240.0,240.0,0.0,0.0
804,67.0,0.0,240.0,2.0,0.0
805,66.0,0.0,240.0,2.0,0.0
806,74.0,240.0,240.0,0.0,0.0
807,64.0,0.0,240.0,2.0,0.0
808,76.0,240.0,240.0,0.0,0.0
809,62.0,0.0,240.0,2.0,0.0
810,78.0,240.0,240.0,0.0,0.0
811,57.0,0.0,480.0,2.0,0.0
812,61.0,240.0,240.0,2.0,0.0
813,79.0,0.0,240.0,0.0,0.0
814,76.0,0.0,240.0,0.0,0.0
815,64.0,240.0,240.0,2.0,0.0
816,66.0,0.0,720.0,2.0,0.0
817,62.0,240.0,720.0,2.0,0.0
818,78.0,240.0,240.0,0.0,0.0
819,76.0,240.0,240.0,0.0,0.0
820,74.0,240.0,720.0,0.0,0.0
821,64.0,240.0,240.0,2.0,0.0
822,62.0,240.0,720.0,2.0,0.0
823,71.0,240.0,240.0,0.0,0.0
824,69.0,240.0,720.0,0.0,0.0
825,59.0,240.0,240.0,2.0,0.0
826,57.0,240.0,720.0,2.0,0.0
827,67.0,240.0,240.0,0.0,0.0
828,66.0,240.0,720.0,0.0,0.0
829,55.0,240.0,240.0,2.0,0.0
830,54.0,240.0,720.0,2.0,0.0
831,64.0,240.0,240.0,0.0,0.0
832,62.0,240.0,720.0,0.0,0.0
833,52.0,240.0,240.0,2.0,0.0
834,50.0,240.0,720.0,2.0,0.0
835,59.0,240.0,240.0,0.0,0.0
836,57.0,240.0,720.0,0.0,0.0
837,47.0,240.0,240.0,2.0,0.0
838,45.0,240.0,720.0,2.0,0.0
839,55.0,240.0,240.0,0.0,0.0
840,54.0,240.0,720.0,0.0,0.0
841,43.0,240.0,240.0,2.0,0.0
842,42.0,240.0,720.0,2.0,0.0
843,52.0,240.0,240.0,0.0,0.0
844,50.0,240.0,720.0,0.0,0.0
845,40.0,240.0,240.0,2.0,0.0
846,38.0,240.0,720.0,2.0,0.0
847,52.0,240.0,240.0,0.0,0.0
848,50.0,1440.0,960.0,0.0,0.0
849,69.0,0.0,15.0,2.0,0.0
850,72.0,480.0,15.0,2.0,0.0
851,71.0,1920.0,1920.0,2.0,0.0
852,67.0,0.0,1920.0,2.0,0.0
853,81.0,0.0,1920.0,0.0,0.0
854,74.0,1920.0,1920.0,1.0,0.0
855,66.0,0.0,1920.0,2.0,0.0
856,69.0,0.0,1920.0,2.0,0.0
857,64.0,0.0,1920.0,2.0,0.0
858,67.0,1440.0,1920.0,2.0,0.0
859,84.0,0.0,1920.0,0.0,0.0
860,72.0,0.0,1920.0,1.0,0.0
861,71.0,240.0,1440.0,1.0,0.0
862,83.0,0.0,1440.0,0.0,0.0
863,66.0,0.0,1440.0,2.0,0.0
864,63.0,0.0,1440.0,2.0,0.0
865,78.0,145.0,240.0,0.0,0.0
866,62.0,95.0,390.0,2.0,0.0
867,66.0,0.0,390.0,2.0,0.0
868,83.0,360.0,240.0,0.0,0.0
869,61.0,335.0,390.0,2.0,0.0
870,71.0,0.0,360.0,1.0,0.0
871,64.0,0.0,390.0,2.0,0.0
872,83.0,25.0,360.0,0.0,0.0
873,76.0,240.0,240.0,0.0,0.0
874,81.0,360.0,240.0,0.0,0.0
875,60.0,0.0,390.0,2.0,0.0
876,69.0,0.0,360.0,1.0,0.0
877,64.0,335.0,390.0,2.0,0.0
878,81.0,25.0,360.0,0.0,0.0
879,76.0,240.0,240.0,0.0,0.0
880,64.0,335.0,390.0,2.0,0.0
881,59.0,0.0,390.0,2.0,0.0
882,67.0,0.0,360.0,1.0,0.0
883,79.0,360.0,15.0,0.0,0.0
884,73.0,145.0,240.0,0.0,0.0
885,64.0,95.0,390.0,2.0,0.0
886,58.0,0.0,390.0,2.0,0.0
887,78.0,360.0,15.0,0.0,0.0
888,57.0,335.0,390.0,2.0,0.0
889,59.0,0.0,390.0,2.0,0.0
890,66.0,0.0,360.0,1.0,0.0
891,71.0,25.0,360.0,1.0,0.0
892,63.0,0.0,390.0,2.0,0.0
893,76.0,1920.0,480.0,1.0,0.0
894,55.0,95.0,390.0,2.0,0.0
895,64.0,0.0,390.0,2.0,0.0
896,83.0,145.0,240.0,0.0,0.0
897,59.0,0.0,390.0,2.0,0.0
898,88.0,0.0,240.0,0.0,0.0
899,69.0,1920.0,1920.0,0.0,0.0
900,67.0,720.0,1920.0,0.0,0.0
901,79.0,0.0,3360.0,0.0,0.0
902,73.0,0.0,3360.0,1.0,0.0
903,70.0,360.0,3360.0,1.0,0.0
904,52.0,240.0,240.0,2.0,0.0
905,58.0,360.0,240.0,2.0,0.0
906,58.0,360.0,360.0,2.0,0.0
907,49.0,240.0,240.0,2.0,0.0
908,55.0,360.0,240.0,2.0,0.0
909,55.0,360.0,360.0,2.0,0.0
910,45.0,240.0,240.0,2.0,0.0
911,52.0,360.0,15.0,2.0,0.0
912,74.0,0.0,360.0,1.0,0.0
913,69.0,0.0,360.0,1.0,0.0
914,77.0,0.0,360.0,0.0,0.0
915,53.0,2040.0,360.0,2.0,0.0
916,77.0,1920.0,1920.0,0.0,0.0
917,76.0,720.0,1920.0,0.0,0.0
918,79.0,0.0,3840.0,1.0,0.0
919,82.0,0.0,3840.0,1.0,0.0
920,76.0,0.0,3840.0,1.0,0.0
921,85.0,0.0,3840.0,0.0,0.0
922,66.0,240.0,240.0,2.0,0.0
923,73.0,360.0,240.0,2.0,0.0
924,73.0,360.0,360.0,2.0,0.0
925,58.0,240.0,240.0,2.0,0.0
926,64.0,360.0,240.0,2.0,0.0
927,64.0,360.0,360.0,2.0,0.0
928,54.0,240.0,240.0,2.0,0.0
929,61.0,360.0,15.0,2.0,0.0
930,42.0,240.0,240.0,2.0,0.0
931,54.0,1920.0,240.0,2.0,0.0
932,76.0,1920.0,1920.0,0.0,0.0
933,75.0,720.0,1920.0,0.0,0.0
934,85.0,0.0,3840.0,0.0,0.0
935,82.0,0.0,3840.0,1.0,0.0
936,79.0,0.0,3840.0,1.0,0.0
937,75.0,0.0,3840.0,1.0,0.0
938,58.0,240.0,240.0,2.0,0.0
939,67.0,360.0,240.0,2.0,0.0
940,67.0,360.0,360.0,2.0,0.0
941,55.0,240.0,240.0,2.0,0.0
942,63.0,360.0,15.0,2.0,0.0
943,51.0,240.0,240.0,2.0,0.0
944,58.0,360.0,240.0,2.0,0.0
945,58.0,360.0,360.0,2.0,0.0
946,46.0,240.0,240.0,2.0,0.0
947,55.0,1920.0,240.0,2.0,0.0
948,75.0,1920.0,1920.0,0.0,0.0
949,74.0,720.0,1920.0,0.0,0.0
950,81.0,0.0,2280.0,1.0,0.0
951,78.0,360.0,2280.0,1.0,0.0
952,74.0,0.0,2280.0,1.0,0.0
953,84.0,0.0,2280.0,0.0,0.0
954,60.0,240.0,240.0,2.0,0.0
955,69.0,360.0,15.0,2.0,0.0
956,57.0,240.0,240.0,2.0,0.0
957,66.0,360.0,240.0,2.0,0.0
958,66.0,0.0,360.0,2.0,0.0
959,86.0,360.0,480.0,0.0,0.0
960,54.0,240.0,240.0,2.0,0.0
961,57.0,0.0,240.0,2.0,0.0
962,57.0,0.0,240.0,2.0,0.0
963,60.0,0.0,240.0,2.0,0.0
964,87.0,240.0,480.0,0.0,0.0
965,60.0,0.0,360.0,2.0,0.0
966,57.0,120.0,360.0,2.0,0.0
967,86.0,0.0,480.0,0.0,0.0
968,54.0,240.0,240.0,2.0,0.0
969,57.0,0.0,15.0,2.0,0.0
970,60.0,720.0,240.0,2.0,0.0
971,78.0,0.0,2280.0,1.0,0.0
972,74.0,0.0,2280.0,1.0,0.0
973,84.0,600.0,2280.0,0.0,0.0
974,81.0,0.0,2280.0,1.0,0.0
975,60.0,240.0,240.0,2.0,0.0
976,69.0,360.0,240.0,2.0,0.0
977,69.0,360.0,360.0,2.0,0.0
978,57.0,240.0,240.0,2.0,0.0
979,66.0,360.0,15.0,2.0,0.0
980,78.0,0.0,480.0,2.0,0.0
981,81.0,480.0,480.0,1.0,0.0
982,86.0,0.0,480.0,0.0,0.0
983,87.0,480.0,480.0,0.0,0.0
984,82.0,0.0,480.0,1.0,0.0
985,79.0,0.0,480.0,2.0,0.0
986,81.0,1440.0,480.0,1.0,0.0
987,86.0,0.0,480.0,0.0,0.0
988,78.0,0.0,480.0,2.0,0.0
989,65.0,0.0,1440.0,2.0,0.0
990,86.0,0.0,1440.0,1.0,0.0
991,79.0,0.0,1440.0,1.0,0.0
992,83.0,240.0,1440.0,1.0,0.0
993,71.0,0.0,1440.0,2.0,0.0
994,74.0,0.0,1440.0,2.0,0.0
995,91.0,0.0,1440.0,0.0,0.0
996,84.0,145.0,240.0,0.0,0.0
997,72.0,0.0,390.0,2.0,0.0
998,63.0,0.0,390.0,2.0,0.0
999,69.0,95.0,390.0,2.0,0.0
1000,81.0,0.0,480.0,1.0,0.0
1001,89.0,360.0,15.0,0.0,0.0
1002,82.0,0.0,360.0,1.0,0.0
1003,70.0,0.0,390.0,2.0,0.0
1004,62.0,0.0,390.0,2.0,0.0
1005,65.0,335.0,390.0,2.0,0.0
1006,81.0,145.0,240.0,0.0,0.0
1007,60.0,95.0,390.0,2.0,0.0
1008,65.0,0.0,390.0,2.0,0.0
1009,75.0,0.0,15.0,1.0,0.0
1010,84.0,0.0,480.0,1.0,0.0
1011,87.0,385.0,15.0,0.0,0.0
1012,65.0,95.0,390.0,2.0,0.0
1013,57.0,0.0,390.0,2.0,0.0
1014,65.0,0.0,390.0,2.0,0.0
1015,58.0,95.0,390.0,2.0,0.0
1016,74.0,0.0,480.0,1.0,0.0
1017,82.0,0.0,480.0,1.0,0.0
1018,86.0,385.0,480.0,0.0,0.0
1019,63.0,0.0,390.0,2.0,0.0
1020,67.0,95.0,390.0,2.0,0.0
1021,84.0,385.0,480.0,0.0,0.0
1022,72.0,0.0,480.0,1.0,0.0
1023,70.0,385.0,480.0,1.0,0.0
1024,82.0,0.0,480.0,0.0,0.0
1025,62.0,95.0,390.0,2.0,0.0
1026,65.0,0.0,390.0,2.0,0.0
1027,81.0,0.0,480.0,0.0,0.0
1028,69.0,385.0,480.0,1.0,0.0
1029,63.0,95.0,390.0,2.0,0.0
1030,60.0,0.0,390.0,2.0,0.0
1031,62.0,95.0,390.0,2.0,0.0
1032,70.0,0.0,480.0,1.0,0.0
1033,58.0,0.0,390.0,2.0,0.0
1034,82.0,720.0,480.0,0.0,0.0
1035,45.0,240.0,240.0,2.0,0.0
1036,53.0,360.0,15.0,2.0,0.0
1037,57.0,240.0,240.0,2.0,0.0
1038,65.0,0.0,240.0,2.0,0.0
1039,72.0,0.0,15.0,1.0,0.0
1040,75.0,0.0,15.0,1.0,0.0
1041,84.0,720.0,15.0,0.0,0.0
1042,45.0,240.0,240.0,2.0,0.0
1043,54.0,360.0,15.0,2.0,0.0
1044,57.0,240.0,240.0,2.0,0.0
1045,66.0,0.0,240.0,2.0,0.0
1046,83.0,0.0,1920.0,0.0,0.0
1047,76.0,720.0,1920.0,1.0,0.0
1048,43.0,240.0,240.0,2.0,0.0
1049,52.0,360.0,15.0,2.0,0.0
1050,55.0,240.0,240.0,2.0,0.0
1051,64.0,0.0,240.0,2.0,0.0
1052,71.0,0.0,15.0,1.0,0.0
1053,69.0,0.0,1920.0,1.0,0.0
1054,75.0,0.0,1920.0,1.0,0.0
1055,81.0,0.0,1920.0,0.0,0.0
1056,42.0,240.0,240.0,2.0,0.0
1057,51.0,360.0,15.0,2.0,0.0
1058,54.0,240.0,240.0,2.0,0.0
1059,63.0,0.0,240.0,2.0,0.0
1060,67.0,0.0,1920.0,1.0,0.0
1061,79.0,0.0,1920.0,0.0,0.0
1062,76.0,0.0,1920.0,1.0,0.0
1063,71.0,720.0,1920.0,1.0,0.0
1064,40.0,240.0,240.0,2.0,0.0
1065,52.0,360.0,15.0,2.0,0.0
1066,52.0,240.0,240.0,2.0,0.0
1067,64.0,0.0,240.0,2.0,0.0
1068,78.0,720.0,1920.0,0.0,0.0
1069,75.0,0.0,1920.0,1.0,0.0
1070,72.0,0.0,1920.0,1.0,0.0
1071,69.0,0.0,1920.0,1.0,0.0
1072,40.0,240.0,240.0,2.0,0.0
1073,52.0,360.0,15.0,2.0,0.0
1074,52.0,240.0,240.0,2.0,0.0
1075,64.0,0.0,240.0,2.0,0.0
1076,67.0,0.0,1920.0,1.0,0.0
1077,76.0,0.0,1920.0,0.0,0.0
1078,71.0,720.0,1920.0,1.0,0.0
1079,40.0,240.0,240.0,2.0,0.0
1080,52.0,360.0,240.0,2.0,0.0
1081,52.0,360.0,360.0,2.0,0.0
1082,52.0,240.0,240.0,2.0,0.0
1083,64.0,0.0,240.0,2.0,0.0
1084,69.0,0.0,1920.0,1.0,0.0
1085,72.0,0.0,1920.0,0.0,0.0
1086,66.0,720.0,1920.0,1.0,0.0
1087,40.0,240.0,240.0,2.0,0.0
1088,52.0,360.0,15.0,2.0,0.0
1089,52.0,240.0,240.0,2.0,0.0
1090,64.0,0.0,240.0,2.0,0.0
1091,71.0,0.0,1920.0,0.0,0.0
1092,64.0,0.0,1920.0,1.0,0.0
1093,67.0,720.0,1920.0,1.0,0.0
1094,40.0,240.0,240.0,2.0,0.0
1095,52.0,360.0,240.0,2.0,0.0
1096,52.0,360.0,360.0,2.0,0.0
1097,52.0,240.0,240.0,2.0,0.0
1098,64.0,0.0,240.0,2.0,0.0
1099,67.0,0.0,1920.0,1.0,0.0
1100,64.0,0.0,1920.0,1.0,0.0
1101,72.0,720.0,1920.0,0.0,0.0
1102,40.0,240.0,240.0,2.0,0.0
1103,52.0,360.0,240.0,2.0,0.0
1104,52.0,360.0,360.0,2.0,0.0
1105,52.0,240.0,240.0,2.0,0.0
1106,64.0,0.0,240.0,2.0,0.0
1107,67.0,720.0,1920.0,1.0,0.0
1108,72.0,0.0,1920.0,0.0,0.0
1109,52.0,240.0,240.0,2.0,0.0
1110,64.0,240.0,240.0,2.0,0.0
1111,52.0,240.0,240.0,2.0,0.0
1112,64.0,480.0,240.0,2.0,0.0
1113,66.0,0.0,1920.0,1.0,0.0
1114,51.0,240.0,240.0,2.0,0.0
1115,63.0,240.0,240.0,2.0,0.0
1116,51.0,240.0,240.0,2.0,0.0
1117,63.0,480.0,240.0,2.0,0.0
1118,72.0,720.0,15.0,0.0,0.0
1119,67.0,0.0,1920.0,1.0,0.0
1120,52.0,240.0,240.0,2.0,0.0
1121,64.0,240.0,240.0,2.0,0.0
1122,52.0,240.0,240.0,2.0,0.0
1123,64.0,480.0,240.0,2.0,0.0
1124,72.0,720.0,15.0,0.0,0.0
1125,67.0,720.0,1920.0,1.0,0.0
1126,52.0,240.0,240.0,2.0,0.0
1127,64.0,240.0,240.0,2.0,0.0
1128,52.0,240.0,240.0,2.0,0.0
1129,64.0,480.0,240.0,2.0,0.0
1130,67.0,240.0,1440.0,1.0,0.0
1131,72.0,0.0,1440.0,0.0,0.0
1132,52.0,240.0,240.0,2.0,0.0
1133,64.0,240.0,240.0,2.0,0.0
1134,52.0,240.0,240.0,2.0,0.0
1135,64.0,0.0,240.0,2.0,0.0
1136,52.0,0.0,240.0,2.0,0.0
1137,60.0,240.0,240.0,0.0,0.0
1138,64.0,0.0,240.0,2.0,0.0
1139,72.0,240.0,240.0,0.0,0.0
1140,52.0,0.0,240.0,2.0,0.0
1141,60.0,240.0,240.0,0.0,0.0
1142,72.0,240.0,15.0,0.0,0.0
1143,64.0,0.0,15.0,2.0,0.0
1144,84.0,240.0,240.0,0.0,0.0
1145,67.0,0.0,240.0,2.0,0.0
1146,64.0,0.0,240.0,2.0,0.0
1147,72.0,240.0,240.0,0.0,0.0
1148,84.0,0.0,240.0,0.0,0.0
1149,67.0,240.0,240.0,2.0,0.0
1150,72.0,240.0,240.0,0.0,0.0
1151,64.0,0.0,240.0,2.0,0.0
1152,84.0,0.0,15.0,0.0,0.0
1153,64.0,240.0,1440.0,2.0,0.0
1154,67.0,1440.0,15.0,2.0,0.0
1155,72.0,0.0,1440.0,1.0,0.0
1156,78.0,0.0,240.0,0.0,0.0
1157,71.0,0.0,480.0,1.0,0.0
1158,63.0,0.0,240.0,2.0,0.0
1159,66.0,240.0,240.0,2.0,0.0
1160,83.0,0.0,240.0,0.0,0.0
1161,83.0,240.0,480.0,0.0,0.0
1162,65.0,0.0,15.0,2.0,0.0
1163,71.0,0.0,480.0,1.0,0.0
1164,62.0,360.0,15.0,2.0,0.0
1165,64.0,240.0,240.0,2.0,0.0
1166,76.0,0.0,240.0,0.0,0.0
1167,61.0,0.0,240.0,2.0,0.0
1168,63.0,0.0,240.0,2.0,0.0
1169,81.0,0.0,240.0,0.0,0.0
1170,60.0,0.0,240.0,2.0,0.0
1171,60.0,0.0,360.0,2.0,0.0
1172,63.0,120.0,360.0,2.0,0.0
1173,81.0,0.0,480.0,0.0,0.0
1174,69.0,360.0,15.0,1.0,0.0
1175,74.0,0.0,240.0,1.0,0.0
1176,74.0,0.0,240.0,0.0,0.0
1177,67.0,0.0,480.0,1.0,0.0
1178,59.0,240.0,240.0,2.0,0.0
1179,62.0,0.0,240.0,2.0,0.0
1180,79.0,0.0,240.0,0.0,0.0
1181,58.0,960.0,240.0,2.0,0.0
1182,61.0,0.0,240.0,2.0,0.0
1183,67.0,480.0,960.0,1.0,0.0
1184,72.0,0.0,1440.0,1.0,0.0
1185,60.0,0.0,1440.0,2.0,0.0
1186,57.0,0.0,1440.0,2.0,0.0
1187,79.0,0.0,960.0,0.0,0.0
1188,78.0,480.0,480.0,0.0,0.0
1189,66.0,0.0,480.0,1.0,0.0
1190,67.0,480.0,480.0,1.0,0.0
1191,74.0,0.0,15.0,1.0,0.0
1192,59.0,0.0,480.0,2.0,0.0
1193,55.0,0.0,480.0,2.0,0.0
1194,79.0,0.0,480.0,0.0,0.0
1195,57.0,480.0,480.0,2.0,0.0
1196,81.0,0.0,480.0,0.0,0.0
1197,54.0,0.0,480.0,2.0,0.0
1198,69.0,0.0,480.0,1.0,0.0
1199,74.0,0.0,480.0,1.0,0.0
1200,52.0,480.0,480.0,2.0,0.0
1201,74.0,0.0,480.0,1.0,0.0
1202,83.0,0.0,480.0,0.0,0.0
1203,71.0,0.0,480.0,1.0,0.0
1204,55.0,0.0,480.0,2.0,0.0
1205,84.0,0.0,480.0,0.0,0.0
1206,72.0,0.0,480.0,1.0,0.0
1207,57.0,0.0,480.0,2.0,0.0
1208,50.0,0.0,15.0,2.0,0.0
1209,54.0,480.0,15.0,2.0,0.0
1210,74.0,0.0,15.0,1.0,0.0
1211,86.0,0.0,480.0,0.0,0.0
1212,74.0,240.0,15.0,1.0,0.0
1213,83.0,0.0,240.0,0.0,0.0
1214,71.0,0.0,240.0,1.0,0.0
1215,43.0,162.0,480.0,2.0,0.0
1216,50.0,240.0,390.0,2.0,0.0
1217,59.0,240.0,390.0,2.0,0.0
1218,50.0,84.0,390.0,2.0,0.0
1219,74.0,234.0,240.0,1.0,0.0
1220,86.0,0.0,240.0,0.0,0.0
1221,43.0,162.0,480.0,2.0,0.0
1222,50.0,240.0,390.0,2.0,0.0
1223,59.0,240.0,390.0,2.0,0.0
1224,50.0,318.0,390.0,2.0,0.0
1225,45.0,162.0,480.0,2.0,0.0
1226,98.0,156.0,1440.0,0.0,0.0
1227,86.0,0.0,1440.0,1.0,0.0
1228,50.0,240.0,390.0,2.0,0.0
1229,60.0,240.0,390.0,2.0,0.0
1230,50.0,318.0,390.0,2.0,0.0
1231,45.0,6.0,480.0,2.0,0.0
1232,50.0,240.0,390.0,2.0,0.0
1233,74.0,156.0,1920.0,1.0,0.0
1234,60.0,84.0,390.0,2.0,0.0
1235,86.0,0.0,1920.0,0.0,0.0
1236,50.0,474.0,240.0,2.0,0.0
1237,47.0,162.0,480.0,2.0,0.0
1238,50.0,240.0,390.0,2.0,0.0
1239,62.0,240.0,390.0,2.0,0.0
1240,50.0,318.0,390.0,2.0,0.0
1241,47.0,6.0,480.0,2.0,0.0
1242,50.0,240.0,390.0,2.0,0.0
1243,62.0,84.0,390.0,2.0,0.0
1244,71.0,156.0,480.0,1.0,0.0
1245,83.0,0.0,480.0,0.0,0.0
1246,50.0,318.0,390.0,2.0,0.0
1247,81.0,0.0,480.0,0.0,0.0
1248,48.0,6.0,480.0,2.0,0.0
1249,69.0,156.0,480.0,1.0,0.0
1250,50.0,240.0,390.0,2.0,0.0
1251,66.0,156.0,480.0,1.0,0.0
1252,60.0,84.0,390.0,2.0,0.0
1253,78.0,0.0,480.0,0.0,0.0
1254,50.0,324.0,390.0,2.0,0.0
1255,38.0,106.0,540.0,2.0,0.0
1256,63.0,0.0,480.0,1.0,0.0
1257,75.0,50.0,480.0,0.0,0.0
1258,50.0,240.0,390.0,2.0,0.0
1259,57.0,84.0,390.0,2.0,0.0
1260,50.0,240.0,240.0,2.0,0.0
1261,74.0,0.0,15.0,0.0,0.0
1262,43.0,201.0,480.0,2.0,0.0
1263,62.0,0.0,15.0,1.0,0.0
1264,50.0,240.0,420.0,2.0,0.0
1265,59.0,240.0,420.0,2.0,0.0
1266,50.0,45.0,420.0,2.0,0.0
1267,86.0,0.0,240.0,0.0,0.0
1268,74.0,234.0,240.0,1.0,0.0
1269,43.0,201.0,480.0,2.0,0.0
1270,50.0,240.0,420.0,2.0,0.0
1271,59.0,240.0,420.0,2.0,0.0
1272,50.0,279.0,420.0,2.0,0.0
1273,86.0,0.0,1440.0,1.0,0.0
1274,98.0,195.0,1440.0,0.0,0.0
1275,45.0,201.0,480.0,2.0,0.0
1276,50.0,240.0,420.0,2.0,0.0
1277,60.0,240.0,420.0,2.0,0.0
1278,50.0,279.0,420.0,2.0,0.0
1279,45.0,6.0,480.0,2.0,0.0
1280,50.0,240.0,420.0,2.0,0.0
1281,74.0,0.0,1920.0,1.0,0.0
1282,86.0,156.0,1920.0,0.0,0.0
1283,60.0,45.0,420.0,2.0,0.0
1284,50.0,474.0,240.0,2.0,0.0
1285,47.0,162.0,480.0,2.0,0.0
1286,55.0,240.0,390.0,2.0,0.0
1287,62.0,240.0,390.0,2.0,0.0
1288,55.0,318.0,390.0,2.0,0.0
1289,47.0,6.0,480.0,2.0,0.0
1290,55.0,240.0,390.0,2.0,0.0
1291,71.0,0.0,480.0,1.0,0.0
1292,62.0,84.0,390.0,2.0,0.0
1293,83.0,156.0,480.0,0.0,0.0
1294,55.0,318.0,390.0,2.0,0.0
1295,68.0,0.0,480.0,1.0,0.0
1296,80.0,156.0,480.0,0.0,0.0
1297,48.0,6.0,480.0,2.0,0.0
1298,55.0,240.0,390.0,2.0,0.0
1299,81.0,0.0,480.0,0.0,0.0
1300,64.0,84.0,390.0,2.0,0.0
1301,69.0,156.0,480.0,1.0,0.0
1302,55.0,318.0,390.0,2.0,0.0
1303,76.0,156.0,480.0,0.0,0.0
1304,64.0,0.0,480.0,1.0,0.0
1305,49.0,6.0,480.0,2.0,0.0
1306,57.0,240.0,390.0,2.0,0.0
1307,79.0,0.0,480.0,0.0,0.0
1308,67.0,240.0,480.0,1.0,0.0
1309,64.0,84.0,390.0,2.0,0.0
1310,57.0,0.0,240.0,2.0,0.0
1311,66.0,0.0,240.0,1.0,0.0
1312,50.0,120.0,360.0,2.0,0.0
1313,78.0,120.0,240.0,0.0,0.0
1314,62.0,0.0,360.0,2.0,0.0
1315,74.0,240.0,240.0,0.0,0.0
1316,67.0,0.0,240.0,2.0,0.0
1317,73.0,240.0,240.0,0.0,0.0
1318,66.0,240.0,240.0,2.0,0.0
1319,74.0,0.0,240.0,0.0,0.0
1320,76.0,0.0,240.0,0.0,0.0
1321,73.0,240.0,240.0,1.0,0.0
1322,64.0,0.0,240.0,2.0,0.0
1323,78.0,240.0,240.0,0.0,0.0
1324,74.0,0.0,240.0,1.0,0.0
1325,62.0,0.0,240.0,2.0,0.0
1326,61.0,240.0,240.0,2.0,0.0
1327,79.0,0.0,240.0,0.0,0.0
1328,76.0,0.0,240.0,1.0,0.0
1329,81.0,0.0,240.0,0.0,0.0
1330,78.0,240.0,240.0,1.0,0.0
1331,60.0,0.0,240.0,2.0,0.0
1332,79.0,0.0,960.0,1.0,0.0
1333,83.0,240.0,960.0,0.0,0.0
1334,59.0,240.0,240.0,2.0,0.0
1335,57.0,240.0,240.0,2.0,0.0
1336,55.0,240.0,240.0,2.0,0.0
1337,54.0,0.0,240.0,2.0,0.0
1338,55.0,240.0,240.0,2.0,0.0
1339,84.0,0.0,240.0,1.0,0.0
1340,88.0,0.0,240.0,0.0,0.0
1341,86.0,0.0,240.0,0.0,0.0
1342,57.0,240.0,240.0,2.0,0.0
1343,83.0,0.0,240.0,1.0,0.0
1344,84.0,0.0,240.0,0.0,0.0
1345,81.0,240.0,240.0,1.0,0.0
1346,59.0,0.0,240.0,2.0,0.0
1347,79.0,480.0,240.0,1.0,0.0
1348,60.0,0.0,240.0,2.0,0.0
1349,83.0,0.0,240.0,0.0,0.0
1350,62.0,0.0,480.0,2.0,0.0
1351,81.0,240.0,480.0,0.0,0.0
1352,78.0,0.0,480.0,1.0,0.0
1353,69.0,0.0,240.0,2.0,0.0
1354,75.0,0.0,240.0,1.0,0.0
1355,84.0,240.0,240.0,0.0,0.0
1356,67.0,0.0,240.0,2.0,0.0
1357,76.0,0.0,240.0,1.0,0.0
1358,83.0,155.0,240.0,0.0,0.0
1359,71.0,85.0,150.0,1.0,0.0
1360,81.0,0.0,150.0,0.0,0.0
1361,66.0,155.0,240.0,2.0,0.0
1362,79.0,240.0,150.0,1.0,0.0
1363,64.0,0.0,150.0,2.0,0.0
1364,82.0,0.0,150.0,0.0,0.0
1365,83.0,240.0,150.0,0.0,0.0
1366,63.0,0.0,150.0,2.0,0.0
1367,78.0,0.0,150.0,1.0,0.0
1368,82.0,0.0,150.0,1.0,0.0
1369,78.0,0.0,150.0,1.0,0.0
1370,61.0,240.0,150.0,2.0,0.0
1371,85.0,0.0,150.0,0.0,0.0
1372,87.0,0.0,150.0,0.0,0.0
1373,78.0,239.0,150.0,1.0,0.0
1374,83.0,0.0,150.0,1.0,0.0
1375,59.0,1.0,150.0,2.0,0.0
1376,78.0,0.0,150.0,1.0,0.0
1377,83.0,240.0,150.0,1.0,0.0
1378,57.0,0.0,150.0,2.0,0.0
1379,87.0,0.0,150.0,0.0,0.0
1380,55.0,240.0,150.0,2.0,0.0
1381,83.0,0.0,150.0,1.0,0.0
1382,79.0,0.0,150.0,1.0,0.0
1383,88.0,0.0,150.0,0.0,0.0
1384,81.0,0.0,150.0,1.0,0.0
1385,90.0,0.0,150.0,0.0,0.0
1386,54.0,0.0,150.0,2.0,0.0
1387,87.0,240.0,150.0,1.0,0.0
1388,88.0,0.0,150.0,0.0,0.0
1389,91.0,0.0,150.0,0.0,0.0
1390,52.0,0.0,150.0,2.0,0.0
1391,83.0,0.0,150.0,1.0,0.0
1392,88.0,240.0,150.0,1.0,0.0
1393,88.0,0.0,150.0,1.0,0.0
1394,83.0,240.0,150.0,1.0,0.0
1395,50.0,0.0,150.0,2.0,0.0
1396,92.0,0.0,150.0,0.0,0.0
1397,81.0,240.0,150.0,1.0,0.0
1398,88.0,0.0,150.0,1.0,0.0
1399,49.0,0.0,150.0,2.0,0.0
1400,52.0,0.0,150.0,2.0,0.0
1401,93.0,0.0,150.0,0.0,0.0
1402,52.0,0.0,150.0,2.0,0.0
1403,81.0,0.0,150.0,1.0,0.0
1404,49.0,0.0,150.0,2.0,0.0
1405,88.0,0.0,150.0,1.0,0.0
1406,93.0,445.0,150.0,0.0,0.0
1407,86.0,7.0,360.0,1.0,0.0
1408,90.0,0.0,360.0,0.0,0.0
1409,50.0,0.0,360.0,2.0,0.0
1410,48.0,0.0,360.0,2.0,0.0
1411,81.0,953.0,360.0,1.0,0.0
1412,91.0,0.0,360.0,0.0,0.0
1413,50.0,0.0,360.0,2.0,0.0
1414,47.0,2040.0,360.0,2.0,0.0
1415,79.0,0.0,360.0,1.0,0.0
1416,86.0,0.0,360.0,1.0,0.0
1417,57.0,0.0,3840.0,2.0,0.0
1418,72.0,0.0,1440.0,0.0,0.0
1419,51.0,310.0,1440.0,2.0,0.0
1420,74.0,75.0,300.0,0.0,0.0
1421,50.0,575.0,390.0,2.0,0.0
1422,75.0,190.0,1260.0,0.0,0.0
1423,48.0,1440.0,1920.0,2.0,0.0
1424,67.0,240.0,15.0,1.0,0.0
1425,66.0,240.0,240.0,1.0,0.0
1426,67.0,50.0,240.0,1.0,0.0
1427,66.0,240.0,240.0,1.0,0.0
1428,67.0,240.0,240.0,1.0,0.0
1429,66.0,0.0,240.0,1.0,0.0
1430,51.0,0.0,1440.0,2.0,0.0
1431,72.0,310.0,1440.0,0.0,0.0
1432,67.0,240.0,2400.0,1.0,0.0
1433,50.0,575.0,390.0,2.0,0.0
1434,74.0,75.0,300.0,0.0,0.0
1435,49.0,0.0,1920.0,2.0,0.0
1436,76.0,0.0,1920.0,0.0,0.0
1437,67.0,240.0,240.0,1.0,0.0
1438,66.0,240.0,240.0,1.0,0.0
1439,67.0,240.0,240.0,1.0,0.0
1440,66.0,240.0,240.0,1.0,0.0
1441,67.0,240.0,240.0,1.0,0.0
1442,66.0,360.0,240.0,1.0,0.0
1443,57.0,0.0,15.0,2.0,0.0
1444,75.0,0.0,360.0,0.0,0.0
1445,50.0,360.0,360.0,2.0,0.0
1446,67.0,240.0,240.0,1.0,0.0
1447,66.0,240.0,240.0,1.0,0.0
1448,67.0,240.0,240.0,1.0,0.0
1449,66.0,240.0,240.0,1.0,0.0
1450,67.0,240.0,240.0,1.0,0.0
1451,66.0,360.0,240.0,1.0,0.0
1452,59.0,0.0,360.0,2.0,0.0
1453,74.0,0.0,360.0,0.0,0.0
1454,50.0,360.0,360.0,2.0,0.0
1455,69.0,240.0,240.0,1.0,0.0
1456,68.0,240.0,240.0,1.0,0.0
1457,69.0,240.0,240.0,1.0,0.0
1458,68.0,240.0,240.0,1.0,0.0
1459,69.0,240.0,240.0,1.0,0.0
1460,68.0,360.0,240.0,1.0,0.0
1461,74.0,0.0,360.0,0.0,0.0
1462,50.0,360.0,360.0,2.0,0.0
1463,60.0,0.0,360.0,2.0,0.0
1464,71.0,240.0,240.0,1.0,0.0
1465,69.0,360.0,240.0,1.0,0.0
1466,50.0,360.0,360.0,2.0,0.0
1467,74.0,0.0,360.0,0.0,0.0
1468,59.0,0.0,360.0,2.0,0.0
1469,69.0,240.0,240.0,1.0,0.0
1470,67.0,360.0,240.0,1.0,0.0
1471,50.0,0.0,360.0,2.0,0.0
1472,74.0,360.0,360.0,0.0,0.0
1473,57.0,0.0,360.0,2.0,0.0
1474,67.0,240.0,240.0,1.0,0.0
1475,66.0,360.0,240.0,1.0,0.0
1476,59.0,0.0,360.0,2.0,0.0
1477,50.0,360.0,360.0,2.0,0.0
1478,74.0,0.0,360.0,0.0,0.0
1479,69.0,240.0,240.0,1.0,0.0
1480,67.0,360.0,240.0,1.0,0.0
1481,69.0,360.0,360.0,2.0,0.0
1482,87.0,0.0,360.0,0.0,0.0
1483,62.0,0.0,360.0,2.0,0.0
1484,79.0,240.0,240.0,1.0,0.0
1485,78.0,240.0,240.0,1.0,0.0
1486,79.0,240.0,240.0,1.0,0.0
1487,78.0,240.0,240.0,1.0,0.0
1488,79.0,240.0,240.0,1.0,0.0
1489,78.0,360.0,240.0,1.0,0.0
1490,71.0,0.0,360.0,2.0,0.0
1491,62.0,360.0,360.0,2.0,0.0
1492,86.0,0.0,360.0,0.0,0.0
1493,81.0,240.0,240.0,1.0,0.0
1494,80.0,240.0,240.0,1.0,0.0
1495,81.0,240.0,240.0,1.0,0.0
1496,80.0,240.0,240.0,1.0,0.0
1497,81.0,240.0,240.0,1.0,0.0
1498,80.0,360.0,240.0,1.0,0.0
1499,62.0,0.0,360.0,2.0,0.0
1500,86.0,360.0,360.0,0.0,0.0
1501,72.0,0.0,360.0,2.0,0.0
1502,83.0,240.0,240.0,1.0,0.0
1503,81.0,360.0,240.0,1.0,0.0
1504,86.0,0.0,360.0,0.0,0.0
1505,71.0,360.0,360.0,2.0,0.0
1506,62.0,0.0,360.0,2.0,0.0
1507,81.0,240.0,240.0,1.0,0.0
1508,80.0,360.0,240.0,1.0,0.0
1509,60.0,0.0,360.0,2.0,0.0
1510,86.0,0.0,360.0,0.0,0.0
1511,50.0,360.0,360.0,2.0,0.0
1512,83.0,240.0,240.0,1.0,0.0
1513,81.0,480.0,240.0,1.0,0.0
1514,86.0,0.0,480.0,0.0,0.0
1515,62.0,240.0,480.0,2.0,0.0
1516,64.0,240.0,240.0,2.0,0.0
1517,81.0,240.0,960.0,1.0,0.0
1518,84.0,0.0,960.0,0.0,0.0
1519,66.0,240.0,240.0,2.0,0.0
1520,74.0,0.0,960.0,1.0,0.0
1521,67.0,240.0,240.0,2.0,0.0
1522,69.0,0.0,240.0,2.0,0.0
1523,71.0,240.0,240.0,2.0,0.0
1524,79.0,385.0,480.0,1.0,0.0
1525,83.0,0.0,480.0,0.0,0.0
1526,72.0,0.0,240.0,2.0,0.0
1527,74.0,240.0,480.0,2.0,0.0
1528,81.0,95.0,390.0,0.0,0.0
1529,78.0,0.0,390.0,1.0,0.0
1530,96.0,240.0,960.0,0.0,0.0
1531,93.0,0.0,960.0,1.0,0.0
1532,76.0,240.0,240.0,2.0,0.0
1533,78.0,240.0,240.0,2.0,0.0
1534,86.0,0.0,960.0,1.0,0.0
1535,79.0,240.0,240.0,2.0,0.0
1536,81.0,0.0,240.0,2.0,0.0
1537,91.0,0.0,480.0,1.0,0.0
1538,83.0,240.0,240.0,2.0,0.0
1539,95.0,0.0,480.0,0.0,0.0
1540,84.0,385.0,240.0,2.0,0.0
1541,90.0,0.0,390.0,1.0,0.0
1542,86.0,575.0,390.0,2.0,0.0
1543,93.0,0.0,390.0,0.0,0.0
1544,84.0,0.0,480.0,2.0,0.0
1545,93.0,385.0,480.0,1.0,0.0
1546,89.0,0.0,480.0,1.0,0.0
1547,100.0,0.0,960.0,0.0,0.0
1548,83.0,95.0,390.0,2.0,0.0
1549,91.0,0.0,480.0,1.0,0.0
1550,86.0,385.0,15.0,1.0,0.0
1551,98.0,385.0,960.0,0.0,0.0
1552,82.0,95.0,390.0,2.0,0.0
1553,88.0,0.0,480.0,1.0,0.0
1554,91.0,0.0,15.0,1.0,0.0
1555,81.0,95.0,390.0,2.0,0.0
1556,96.0,480.0,480.0,0.0,0.0
1557,74.0,95.0,390.0,2.0,0.0
1558,93.0,0.0,480.0,1.0,0.0
1559,90.0,0.0,480.0,1.0,0.0
1560,83.0,0.0,1920.0,1.0,0.0
1561,95.0,0.0,1920.0,0.0,0.0
1562,86.0,240.0,240.0,1.0,0.0
1563,88.0,240.0,240.0,1.0,0.0
1564,70.0,0.0,960.0,2.0,0.0
1565,73.0,0.0,960.0,2.0,0.0
1566,86.0,240.0,240.0,1.0,0.0
1567,88.0,240.0,240.0,1.0,0.0
1568,86.0,240.0,240.0,1.0,0.0
1569,71.0,0.0,480.0,2.0,0.0
1570,88.0,240.0,240.0,1.0,0.0
1571,74.0,480.0,480.0,2.0,0.0
1572,86.0,0.0,240.0,1.0,0.0
1573,93.0,240.0,1920.0,0.0,0.0
1574,67.0,0.0,15.0,2.0,0.0
1575,81.0,0.0,1920.0,1.0,0.0
1576,84.0,240.0,240.0,1.0,0.0
1577,78.0,240.0,960.0,2.0,0.0
1578,86.0,240.0,240.0,1.0,0.0
1579,75.0,0.0,1440.0,2.0,0.0
1580,84.0,240.0,240.0,1.0,0.0
1581,86.0,240.0,240.0,1.0,0.0
1582,84.0,0.0,240.0,1.0,0.0
1583,74.0,0.0,480.0,2.0,0.0
1584,86.0,240.0,240.0,1.0,0.0
1585,84.0,0.0,240.0,1.0,0.0
1586,67.0,0.0,15.0,2.0,0.0
1587,83.0,240.0,240.0,1.0,0.0
1588,91.0,0.0,960.0,0.0,0.0
1589,79.0,240.0,240.0,1.0,0.0
1590,71.0,0.0,480.0,2.0,0.0
1591,81.0,240.0,240.0,1.0,0.0
1592,74.0,0.0,480.0,2.0,0.0
1593,79.0,480.0,240.0,1.0,0.0
1594,72.0,0.0,480.0,2.0,0.0
1595,76.0,0.0,480.0,2.0,0.0
1596,88.0,480.0,480.0,0.0,0.0
1597,79.0,0.0,240.0,1.0,0.0
1598,74.0,0.0,480.0,2.0,0.0
1599,79.0,0.0,240.0,1.0,0.0
1600,62.0,0.0,1920.0,2.0,0.0
1601,86.0,0.0,15.0,0.0,0.0
1602,71.0,480.0,15.0,2.0,0.0
1603,74.0,0.0,240.0,1.0,0.0
1604,78.0,240.0,240.0,1.0,0.0
1605,69.0,0.0,480.0,2.0,0.0
1606,72.0,0.0,480.0,2.0,0.0
1607,84.0,0.0,480.0,0.0,0.0
1608,72.0,240.0,240.0,1.0,0.0
1609,67.0,240.0,480.0,2.0,0.0
1610,71.0,0.0,480.0,2.0,0.0
1611,83.0,0.0,480.0,0.0,0.0
1612,79.0,240.0,240.0,1.0,0.0
1613,74.0,0.0,240.0,1.0,0.0
1614,72.0,240.0,240.0,1.0,0.0
1615,69.0,0.0,480.0,2.0,0.0
1616,81.0,0.0,480.0,0.0,0.0
1617,66.0,0.0,480.0,2.0,0.0
1618,74.0,480.0,240.0,1.0,0.0
1619,55.0,0.0,1920.0,2.0,0.0
1620,83.0,0.0,1920.0,0.0,0.0
1621,71.0,0.0,1920.0,1.0,0.0
1622,74.0,240.0,240.0,1.0,0.0
1623,76.0,240.0,240.0,1.0,0.0
1624,58.0,0.0,960.0,2.0,0.0
1625,61.0,240.0,960.0,2.0,0.0
1626,74.0,240.0,240.0,1.0,0.0
1627,76.0,240.0,240.0,1.0,0.0
1628,74.0,0.0,240.0,1.0,0.0
1629,76.0,240.0,240.0,1.0,0.0
1630,59.0,0.0,480.0,2.0,0.0
1631,62.0,0.0,480.0,2.0,0.0
1632,74.0,480.0,240.0,1.0,0.0
1633,81.0,0.0,1920.0,0.0,0.0
1634,69.0,240.0,1920.0,1.0,0.0
1635,55.0,0.0,1920.0,2.0,0.0
1636,72.0,240.0,240.0,1.0,0.0
1637,74.0,240.0,240.0,1.0,0.0
1638,63.0,0.0,1440.0,2.0,0.0
1639,66.0,0.0,960.0,2.0,0.0
1640,72.0,240.0,240.0,1.0,0.0
1641,74.0,240.0,240.0,1.0,0.0
1642,72.0,240.0,240.0,1.0,0.0
1643,74.0,240.0,240.0,1.0,0.0
1644,72.0,0.0,240.0,1.0,0.0
1645,55.0,240.0,960.0,2.0,0.0
1646,62.0,0.0,15.0,2.0,0.0
1647,79.0,0.0,960.0,0.0,0.0
1648,59.0,0.0,960.0,2.0,0.0
1649,71.0,240.0,240.0,1.0,0.0
1650,67.0,240.0,240.0,1.0,0.0
1651,69.0,240.0,240.0,1.0,0.0
1652,67.0,0.0,240.0,1.0,0.0
1653,60.0,95.0,390.0,2.0,0.0
1654,76.0,0.0,480.0,0.0,0.0
1655,48.0,0.0,390.0,2.0,0.0
1656,72.0,240.0,480.0,1.0,0.0
1657,64.0,145.0,240.0,1.0,0.0
1658,55.0,0.0,390.0,2.0,0.0
1659,67.0,0.0,240.0,1.0,0.0
1660,74.0,0.0,480.0,0.0,0.0
1661,43.0,0.0,390.0,2.0,0.0
1662,55.0,95.0,390.0,2.0,0.0
1663,62.0,145.0,240.0,1.0,0.0
1664,67.0,240.0,240.0,1.0,0.0
1665,38.0,95.0,390.0,2.0,0.0
1666,74.0,0.0,480.0,0.0,0.0
1667,71.0,0.0,15.0,1.0,0.0
1668,62.0,240.0,240.0,1.0,0.0
1669,72.0,0.0,480.0,0.0,0.0
1670,50.0,95.0,390.0,2.0,0.0
1671,69.0,145.0,240.0,1.0,0.0
1672,60.0,240.0,240.0,1.0,0.0
1673,71.0,0.0,480.0,0.0,0.0
1674,67.0,145.0,240.0,1.0,0.0
1675,38.0,95.0,390.0,2.0,0.0
1676,59.0,240.0,240.0,1.0,0.0
1677,69.0,720.0,480.0,0.0,0.0
1678,50.0,95.0,390.0,2.0,0.0
1679,66.0,145.0,240.0,1.0,0.0
1680,57.0,0.0,240.0,1.0,0.0
1681,67.0,0.0,1200.0,0.0,0.0
1682,43.0,240.0,720.0,2.0,0.0
1683,63.0,240.0,960.0,1.0,0.0
1684,59.0,0.0,720.0,1.0,0.0
1685,51.0,240.0,240.0,2.0,0.0
1686,50.0,0.0,480.0,2.0,0.0
1687,62.0,240.0,240.0,0.0,0.0
1688,43.0,240.0,480.0,2.0,0.0
1689,59.0,240.0,240.0,0.0,0.0
1690,38.0,0.0,480.0,2.0,0.0
1691,62.0,0.0,960.0,1.0,0.0
1692,67.0,240.0,15.0,0.0,0.0
1693,66.0,0.0,240.0,0.0,0.0
1694,60.0,240.0,240.0,2.0,0.0
1695,67.0,0.0,240.0,0.0,0.0
1696,59.0,240.0,240.0,2.0,0.0
1697,69.0,0.0,240.0,0.0,0.0
1698,57.0,240.0,240.0,2.0,0.0
1699,71.0,240.0,240.0,0.0,0.0
1700,55.0,0.0,240.0,2.0,0.0
1701,72.0,240.0,240.0,0.0,0.0
1702,54.0,0.0,240.0,2.0,0.0
1703,50.0,0.0,480.0,2.0,0.0
1704,62.0,0.0,240.0,2.0,0.0
1705,69.0,720.0,240.0,0.0,0.0
1706,55.0,240.0,720.0,2.0,0.0
1707,79.0,240.0,1200.0,0.0,0.0
1708,75.0,0.0,960.0,1.0,0.0
1709,71.0,0.0,720.0,1.0,0.0
1710,63.0,240.0,240.0,2.0,0.0
1711,62.0,0.0,480.0,2.0,0.0
1712,74.0,240.0,240.0,0.0,0.0
1713,71.0,240.0,240.0,0.0,0.0
1714,55.0,240.0,480.0,2.0,0.0
1715,79.0,240.0,480.0,0.0,0.0
1716,50.0,0.0,480.0,2.0,0.0
1717,74.0,0.0,960.0,1.0,0.0
1718,79.0,240.0,240.0,0.0,0.0
1719,78.0,240.0,240.0,0.0,0.0
1720,72.0,0.0,240.0,2.0,0.0
1721,79.0,240.0,240.0,0.0,0.0
1722,71.0,0.0,240.0,2.0,0.0
1723,81.0,0.0,240.0,0.0,0.0
1724,69.0,240.0,240.0,2.0,0.0
1725,83.0,0.0,240.0,0.0,0.0
1726,67.0,240.0,240.0,2.0,0.0
1727,66.0,0.0,240.0,2.0,0.0
1728,62.0,0.0,480.0,2.0,0.0
1729,84.0,240.0,240.0,0.0,0.0
1730,81.0,240.0,240.0,0.0,0.0
1731,69.0,0.0,240.0,2.0,0.0
1732,83.0,240.0,240.0,0.0,0.0
1733,71.0,240.0,720.0,2.0,0.0
1734,67.0,0.0,720.0,2.0,0.0
1735,81.0,240.0,240.0,0.0,0.0
1736,79.0,240.0,720.0,0.0,0.0
1737,66.0,240.0,240.0,2.0,0.0
1738,69.0,0.0,240.0,2.0,0.0
1739,67.0,240.0,720.0,2.0,0.0
1740,76.0,240.0,240.0,0.0,0.0
1741,74.0,240.0,720.0,0.0,0.0
1742,64.0,240.0,240.0,2.0,0.0
1743,62.0,240.0,720.0,2.0,0.0
1744,72.0,240.0,240.0,0.0,0.0
1745,71.0,240.0,720.0,0.0,0.0
1746,60.0,240.0,240.0,2.0,0.0
1747,59.0,240.0,720.0,2.0,0.0
1748,69.0,240.0,240.0,0.0,0.0
1749,67.0,240.0,720.0,0.0,0.0
1750,57.0,240.0,240.0,2.0,0.0
1751,55.0,240.0,720.0,2.0,0.0
1752,64.0,240.0,240.0,0.0,0.0
1753,62.0,240.0,720.0,0.0,0.0
1754,52.0,240.0,240.0,2.0,0.0
1755,50.0,240.0,720.0,2.0,0.0
1756,60.0,240.0,240.0,0.0,0.0
1757,59.0,240.0,720.0,0.0,0.0
1758,48.0,240.0,240.0,2.0,0.0
1759,47.0,240.0,720.0,2.0,0.0
1760,57.0,240.0,240.0,0.0,0.0
1761,55.0,240.0,720.0,0.0,0.0
1762,45.0,240.0,240.0,2.0,0.0
1763,43.0,240.0,720.0,2.0,0.0
1764,57.0,240.0,240.0,0.0,0.0
1765,55.0,1440.0,960.0,0.0,0.0
1766,74.0,480.0,15.0,2.0,0.0
1767,77.0,0.0,15.0,2.0,0.0
1768,76.0,0.0,1920.0,2.0,0.0
1769,72.0,1920.0,1920.0,2.0,0.0
1770,71.0,1920.0,1920.0,2.0,0.0
1771,79.0,0.0,1920.0,1.0,0.0
1772,86.0,0.0,1920.0,0.0,0.0
1773,74.0,0.0,1920.0,2.0,0.0
1774,72.0,0.0,1920.0,2.0,0.0
1775,89.0,0.0,1920.0,0.0,0.0
1776,77.0,0.0,1920.0,1.0,0.0
1777,69.0,1440.0,1920.0,2.0,0.0
1778,68.0,0.0,1440.0,2.0,0.0
1779,71.0,240.0,1440.0,2.0,0.0
1780,88.0,0.0,1440.0,0.0,0.0
1781,81.0,0.0,240.0,0.0,0.0
1782,76.0,0.0,15.0,1.0,0.0
1783,73.0,240.0,240.0,2.0,0.0
1784,67.0,0.0,240.0,2.0,0.0
1785,86.0,360.0,240.0,0.0,0.0
1786,77.0,0.0,240.0,1.0,0.0
1787,77.0,0.0,360.0,1.0,0.0
1788,65.0,0.0,15.0,2.0,0.0
1789,69.0,0.0,15.0,2.0,0.0
1790,86.0,0.0,360.0,0.0,0.0
1791,74.0,240.0,240.0,1.0,0.0
1792,79.0,0.0,240.0,0.0,0.0
1793,71.0,0.0,240.0,2.0,0.0
1794,65.0,0.0,240.0,2.0,0.0
1795,76.0,0.0,240.0,1.0,0.0
1796,64.0,360.0,240.0,2.0,0.0
1797,67.0,0.0,240.0,2.0,0.0
1798,84.0,0.0,240.0,0.0,0.0
1799,67.0,0.0,360.0,2.0,0.0
1800,76.0,0.0,360.0,1.0,0.0
1801,84.0,360.0,360.0,0.0,0.0
1802,64.0,0.0,360.0,2.0,0.0
1803,72.0,240.0,240.0,1.0,0.0
1804,69.0,0.0,240.0,2.0,0.0
1805,64.0,0.0,240.0,2.0,0.0
1806,77.0,0.0,240.0,0.0,0.0
1807,83.0,0.0,240.0,0.0,0.0
1808,62.0,0.0,15.0,2.0,0.0
1809,65.0,360.0,15.0,2.0,0.0
1810,74.0,0.0,15.0,1.0,0.0
1811,83.0,0.0,360.0,0.0,0.0
1812,76.0,0.0,240.0,0.0,0.0
1813,71.0,0.0,240.0,1.0,0.0
1814,62.0,0.0,240.0,2.0,0.0
1815,68.0,240.0,240.0,2.0,0.0
1816,72.0,0.0,240.0,1.0,0.0
1817,64.0,0.0,240.0,2.0,0.0
1818,60.0,0.0,240.0,2.0,0.0
1819,72.0,0.0,360.0,1.0,0.0
1820,81.0,360.0,15.0,0.0,0.0
1821,60.0,0.0,360.0,2.0,0.0
1822,64.0,0.0,360.0,2.0,0.0
1823,63.0,960.0,480.0,2.0,0.0
1824,60.0,0.0,480.0,2.0,0.0
1825,69.0,0.0,15.0,1.0,0.0
1826,81.0,0.0,15.0,0.0,0.0
1827,62.0,0.0,1440.0,2.0,0.0
1828,59.0,0.0,1440.0,2.0,0.0
1829,80.0,480.0,480.0,0.0,0.0
1830,68.0,0.0,480.0,1.0,0.0
1831,69.0,0.0,480.0,1.0,0.0
1832,81.0,0.0,480.0,0.0,0.0
1833,57.0,0.0,480.0,2.0,0.0
1834,60.0,480.0,480.0,2.0,0.0
1835,76.0,0.0,480.0,1.0,0.0
1836,59.0,480.0,480.0,2.0,0.0
1837,83.0,0.0,480.0,0.0,0.0
1838,56.0,0.0,480.0,2.0,0.0
1839,71.0,0.0,480.0,1.0,0.0
1840,76.0,0.0,480.0,1.0,0.0
1841,72.0,0.0,480.0,1.0,0.0
1842,76.0,0.0,480.0,1.0,0.0
1843,57.0,0.0,480.0,2.0,0.0
1844,84.0,0.0,480.0,0.0,0.0
1845,54.0,385.0,480.0,2.0,0.0
1846,52.0,0.0,390.0,2.0,0.0
1847,86.0,0.0,480.0,0.0,0.0
1848,56.0,95.0,390.0,2.0,0.0
1849,74.0,385.0,480.0,1.0,0.0
1850,83.0,360.0,480.0,0.0,0.0
1851,71.0,0.0,480.0,1.0,0.0
1852,80.0,0.0,480.0,1.0,0.0
1853,76.0,0.0,480.0,1.0,0.0
1854,56.0,0.0,390.0,2.0,0.0
1855,59.0,0.0,390.0,2.0,0.0
1856,52.0,0.0,390.0,2.0,0.0
1857,62.0,95.0,390.0,2.0,0.0
1858,45.0,195.0,480.0,2.0,0.0
1859,72.0,0.0,360.0,1.0,0.0
1860,76.0,0.0,360.0,1.0,0.0
1861,81.0,0.0,360.0,1.0,0.0
1862,84.0,120.0,360.0,0.0,0.0
1863,52.0,240.0,420.0,2.0,0.0
1864,60.0,240.0,420.0,2.0,0.0
1865,52.0,165.0,420.0,2.0,0.0
1866,88.0,0.0,360.0,0.0,0.0
1867,76.0,75.0,360.0,1.0,0.0
1868,45.0,240.0,420.0,2.0,0.0
1869,52.0,240.0,420.0,2.0,0.0
1870,60.0,240.0,420.0,2.0,0.0
1871,52.0,240.0,420.0,2.0,0.0
1872,47.0,240.0,420.0,2.0,0.0
1873,88.0,195.0,1440.0,1.0,0.0
1874,100.0,0.0,1440.0,0.0,0.0
1875,52.0,240.0,420.0,2.0,0.0
1876,62.0,240.0,420.0,2.0,0.0
1877,52.0,240.0,420.0,2.0,0.0
1878,47.0,45.0,420.0,2.0,0.0
1879,52.0,240.0,420.0,2.0,0.0
1880,88.0,195.0,1920.0,0.0,0.0
1881,62.0,240.0,420.0,2.0,0.0
1882,76.0,0.0,1920.0,1.0,0.0
1883,52.0,240.0,420.0,2.0,0.0
1884,48.0,240.0,420.0,2.0,0.0
1885,52.0,240.0,420.0,2.0,0.0
1886,64.0,240.0,420.0,2.0,0.0
1887,52.0,240.0,420.0,2.0,0.0
1888,48.0,45.0,420.0,2.0,0.0
1889,52.0,240.0,420.0,2.0,0.0
1890,64.0,45.0,420.0,2.0,0.0
1891,72.0,195.0,480.0,1.0,0.0
1892,84.0,0.0,480.0,0.0,0.0
1893,52.0,240.0,420.0,2.0,0.0
1894,83.0,195.0,480.0,0.0,0.0
1895,50.0,45.0,420.0,2.0,0.0
1896,71.0,0.0,480.0,1.0,0.0
1897,52.0,240.0,420.0,2.0,0.0
1898,68.0,0.0,480.0,1.0,0.0
1899,62.0,45.0,420.0,2.0,0.0
1900,80.0,195.0,480.0,0.0,0.0
1901,52.0,240.0,420.0,2.0,0.0
1902,65.0,0.0,480.0,1.0,0.0
1903,77.0,195.0,480.0,0.0,0.0
1904,40.0,45.0,420.0,2.0,0.0
1905,52.0,240.0,420.0,2.0,0.0
1906,59.0,45.0,420.0,2.0,0.0
1907,52.0,190.0,420.0,2.0,0.0
1908,76.0,195.0,15.0,0.0,0.0
1909,45.0,240.0,420.0,2.0,0.0
1910,64.0,0.0,15.0,1.0,0.0
1911,52.0,240.0,420.0,2.0,0.0
1912,60.0,240.0,420.0,2.0,0.0
1913,52.0,190.0,420.0,2.0,0.0
1914,45.0,240.0,420.0,2.0,0.0
1915,76.0,0.0,390.0,1.0,0.0
1916,88.0,50.0,390.0,0.0,0.0
1917,52.0,240.0,420.0,2.0,0.0
1918,60.0,240.0,420.0,2.0,0.0
1919,52.0,240.0,420.0,2.0,0.0
1920,88.0,5.0,1140.0,1.0,0.0
1921,100.0,0.0,1140.0,0.0,0.0
1922,47.0,240.0,420.0,2.0,0.0
1923,52.0,240.0,420.0,2.0,0.0
1924,62.0,235.0,420.0,2.0,0.0
1925,52.0,240.0,420.0,2.0,0.0
1926,47.0,240.0,420.0,2.0,0.0
1927,52.0,240.0,420.0,2.0,0.0
1928,62.0,240.0,420.0,2.0,0.0
1929,76.0,0.0,1530.0,1.0,0.0
1930,88.0,100.0,1530.0,0.0,0.0
1931,52.0,240.0,420.0,2.0,0.0
1932,48.0,240.0,420.0,2.0,0.0
1933,52.0,240.0,420.0,2.0,0.0
1934,64.0,140.0,420.0,2.0,0.0
1935,52.0,240.0,420.0,2.0,0.0
1936,45.0,240.0,420.0,2.0,0.0
1937,52.0,240.0,420.0,2.0,0.0
1938,72.0,0.0,480.0,1.0,0.0
1939,60.0,45.0,420.0,2.0,0.0
1940,84.0,195.0,480.0,0.0,0.0
1941,52.0,240.0,420.0,2.0,0.0
1942,42.0,45.0,420.0,2.0,0.0
1943,69.0,0.0,480.0,1.0,0.0
1944,81.0,195.0,480.0,0.0,0.0
1945,50.0,240.0,420.0,2.0,0.0
1946,78.0,0.0,480.0,0.0,0.0
1947,66.0,195.0,480.0,1.0,0.0
1948,57.0,45.0,420.0,2.0,0.0
1949,50.0,240.0,420.0,2.0,0.0
1950,42.0,45.0,420.0,2.0,0.0
1951,75.0,195.0,480.0,0.0,0.0
1952,63.0,0.0,480.0,1.0,0.0
1953,50.0,240.0,420.0,2.0,0.0
1954,57.0,45.0,420.0,2.0,0.0
1955,74.0,195.0,480.0,0.0,0.0
1956,50.0,165.0,420.0,2.0,0.0
1957,62.0,0.0,15.0,1.0,0.0
1958,43.0,240.0,420.0,2.0,0.0
1959,74.0,75.0,360.0,0.0,0.0
1960,50.0,240.0,420.0,2.0,0.0
1961,58.0,240.0,420.0,2.0,0.0
1962,50.0,165.0,420.0,2.0,0.0
1963,43.0,240.0,420.0,2.0,0.0
1964,74.0,0.0,360.0,1.0,0.0
1965,86.0,75.0,360.0,0.0,0.0
1966,50.0,240.0,420.0,2.0,0.0
1967,58.0,240.0,420.0,2.0,0.0
1968,50.0,240.0,420.0,2.0,0.0
1969,98.0,195.0,1440.0,0.0,0.0
1970,45.0,240.0,420.0,2.0,0.0
1971,86.0,0.0,1440.0,1.0,0.0
1972,50.0,240.0,420.0,2.0,0.0
1973,60.0,240.0,420.0,2.0,0.0
1974,50.0,240.0,420.0,2.0,0.0
1975,45.0,45.0,420.0,2.0,0.0
1976,50.0,240.0,420.0,2.0,0.0
1977,60.0,240.0,420.0,2.0,0.0
1978,74.0,0.0,1920.0,1.0,0.0
1979,86.0,195.0,1920.0,0.0,0.0
1980,50.0,240.0,420.0,2.0,0.0
1981,46.0,240.0,420.0,2.0,0.0
1982,50.0,240.0,420.0,2.0,0.0
1983,62.0,240.0,420.0,2.0,0.0
1984,50.0,240.0,420.0,2.0,0.0
1985,46.0,45.0,420.0,2.0,0.0
1986,50.0,240.0,420.0,2.0,0.0
1987,70.0,0.0,480.0,1.0,0.0
1988,82.0,195.0,480.0,0.0,0.0
1989,62.0,45.0,420.0,2.0,0.0
1990,50.0,240.0,420.0,2.0,0.0
1991,81.0,195.0,480.0,0.0,0.0
1992,48.0,45.0,420.0,2.0,0.0
1993,69.0,0.0,480.0,1.0,0.0
1994,50.0,240.0,420.0,2.0,0.0
1995,60.0,45.0,420.0,2.0,0.0
1996,66.0,195.0,480.0,1.0,0.0
1997,78.0,0.0,480.0,0.0,0.0
1998,50.0,240.0,420.0,2.0,0.0
1999,75.0,195.0,480.0,0.0,0.0
2000,63.0,0.0,480.0,1.0,0.0
2001,42.0,45.0,420.0,2.0,0.0
2002,50.0,240.0,420.0,2.0,0.0
2003,57.0,45.0,420.0,2.0,0.0
2004,50.0,165.0,420.0,2.0,0.0
2005,74.0,0.0,15.0,0.0,0.0
2006,62.0,195.0,15.0,1.0,0.0
2007,43.0,240.0,420.0,2.0,0.0
2008,50.0,240.0,420.0,2.0,0.0
2009,58.0,240.0,420.0,2.0,0.0
2010,50.0,165.0,420.0,2.0,0.0
2011,74.0,0.0,360.0,1.0,0.0
2012,45.0,240.0,420.0,2.0,0.0
2013,86.0,75.0,360.0,0.0,0.0
2014,50.0,240.0,420.0,2.0,0.0
2015,60.0,240.0,420.0,2.0,0.0
2016,50.0,165.0,420.0,2.0,0.0
2017,86.0,75.0,360.0,1.0,0.0
2018,47.0,240.0,420.0,2.0,0.0
2019,98.0,0.0,360.0,0.0,0.0
2020,55.0,240.0,420.0,2.0,0.0
2021,62.0,240.0,420.0,2.0,0.0
2022,55.0,165.0,420.0,2.0,0.0
2023,87.0,75.0,360.0,1.0,0.0
2024,48.0,240.0,420.0,2.0,0.0
2025,99.0,0.0,360.0,0.0,0.0
2026,55.0,240.0,420.0,2.0,0.0
2027,63.0,80.0,420.0,2.0,0.0
2028,55.0,1885.0,270.0,2.0,0.0
2029,75.0,1920.0,1920.0,0.0,0.0
2030,74.0,1440.0,1920.0,0.0,0.0
2031,63.0,1920.0,1920.0,2.0,0.0
2032,72.0,480.0,1440.0,0.0,0.0
2033,62.0,1440.0,1920.0,2.0,0.0
2034,76.0,1920.0,1920.0,0.0,0.0
2035,61.0,480.0,1440.0,2.0,0.0
2036,74.0,1440.0,1920.0,0.0,0.0
2037,73.0,480.0,1440.0,0.0,0.0
2038,64.0,1920.0,1920.0,2.0,0.0
2039,62.0,1440.0,1920.0,2.0,0.0
2040,60.0,480.0,1440.0,2.0,0.0
2041,81.0,1920.0,1920.0,0.0,0.0
2042,79.0,1440.0,1920.0,0.0,0.0
2043,78.0,480.0,1440.0,0.0,0.0
2044,72.0,0.0,1920.0,2.0,0.0
2045,69.0,1920.0,1920.0,2.0,0.0
2046,67.0,1920.0,1920.0,2.0,0.0
2047,71.0,0.0,1920.0,2.0,0.0
2048,74.0,0.0,1920.0,1.0,0.0
2049,86.0,0.0,1920.0,0.0,0.0
2050,66.0,0.0,1920.0,2.0,0.0
2051,69.0,1920.0,1920.0,2.0,0.0
2052,67.0,1920.0,1920.0,2.0,0.0
2053,72.0,0.0,1920.0,1.0,0.0
2054,84.0,0.0,1920.0,0.0,0.0
2055,64.0,0.0,1920.0,2.0,0.0
2056,83.0,0.0,2880.0,0.0,0.0
2057,63.0,960.0,1920.0,2.0,0.0
2058,66.0,0.0,1920.0,2.0,0.0
2059,71.0,0.0,2880.0,1.0,0.0
2060,62.0,0.0,1920.0,2.0,0.0
2061,67.0,480.0,960.0,2.0,0.0
2062,69.0,480.0,480.0,2.0,0.0
2063,72.0,0.0,480.0,1.0,0.0
2064,84.0,0.0,480.0,0.0,0.0
2065,66.0,480.0,480.0,2.0,0.0
2066,69.0,0.0,480.0,1.0,0.0
2067,81.0,0.0,480.0,0.0,0.0
2068,83.0,240.0,1920.0,0.0,0.0
2069,79.0,0.0,1920.0,1.0,0.0
2070,62.0,240.0,240.0,2.0,0.0
2071,64.0,240.0,240.0,2.0,0.0
2072,62.0,240.0,240.0,2.0,0.0
2073,61.0,240.0,240.0,2.0,0.0
2074,62.0,240.0,240.0,2.0,0.0
2075,59.0,240.0,240.0,2.0,0.0
2076,55.0,0.0,240.0,2.0,0.0
2077,60.0,240.0,240.0,2.0,0.0
2078,81.0,240.0,1920.0,0.0,0.0
2079,74.0,0.0,1920.0,1.0,0.0
2080,57.0,240.0,240.0,2.0,0.0
2081,54.0,240.0,240.0,2.0,0.0
2082,50.0,240.0,240.0,2.0,0.0
2083,48.0,240.0,240.0,2.0,0.0
2084,45.0,240.0,240.0,2.0,0.0
2085,42.0,240.0,240.0,2.0,0.0
2086,38.0,0.0,240.0,2.0,0.0
2087,71.0,240.0,960.0,1.0,0.0
2088,43.0,240.0,240.0,2.0,0.0
2089,79.0,0.0,960.0,0.0,0.0
2090,45.0,240.0,240.0,2.0,0.0
2091,47.0,240.0,240.0,2.0,0.0
2092,48.0,0.0,240.0,2.0,0.0
2093,76.0,0.0,480.0,0.0,0.0
2094,50.0,240.0,240.0,2.0,0.0
2095,72.0,0.0,480.0,1.0,0.0
2096,52.0,240.0,240.0,2.0,0.0
2097,71.0,0.0,480.0,1.0,0.0
2098,54.0,240.0,240.0,2.0,0.0
2099,55.0,0.0,240.0,2.0,0.0
2100,50.0,0.0,1920.0,2.0,0.0
2101,57.0,240.0,240.0,2.0,0.0
2102,71.0,0.0,480.0,1.0,0.0
2103,74.0,240.0,15.0,0.0,0.0
2104,59.0,0.0,240.0,2.0,0.0
2105,69.0,0.0,480.0,1.0,0.0
2106,72.0,0.0,480.0,0.0,0.0
2107,60.0,240.0,240.0,2.0,0.0
2108,61.0,480.0,240.0,2.0,0.0
2109,67.0,0.0,480.0,1.0,0.0
2110,71.0,480.0,480.0,0.0,0.0
2111,62.0,0.0,480.0,2.0,0.0
2112,60.0,0.0,480.0,2.0,0.0
2113,62.0,240.0,480.0,1.0,0.0
2114,69.0,0.0,480.0,0.0,0.0
2115,67.0,240.0,240.0,0.0,0.0
2116,55.0,0.0,1920.0,2.0,0.0
2117,59.0,0.0,1920.0,2.0,0.0
2118,62.0,240.0,240.0,0.0,0.0
2119,64.0,240.0,240.0,0.0,0.0
2120,62.0,240.0,240.0,0.0,0.0
2121,61.0,240.0,240.0,0.0,0.0
2122,62.0,240.0,240.0,0.0,0.0
2123,71.0,240.0,240.0,0.0,0.0
2124,67.0,240.0,240.0,0.0,0.0
2125,50.0,75.0,1380.0,2.0,0.0
2126,57.0,0.0,1380.0,2.0,0.0
2127,66.0,240.0,240.0,0.0,0.0
2128,67.0,240.0,240.0,0.0,0.0
2129,69.0,240.0,240.0,0.0,0.0
2130,71.0,240.0,240.0,0.0,0.0
2131,72.0,165.0,240.0,0.0,0.0
2132,73.0,240.0,240.0,0.0,0.0
2133,76.0,240.0,240.0,0.0,0.0
2134,74.0,240.0,240.0,0.0,0.0
2135,71.0,0.0,1920.0,2.0,0.0
2136,67.0,0.0,1920.0,2.0,0.0
2137,73.0,240.0,240.0,0.0,0.0
2138,74.0,240.0,240.0,0.0,0.0
2139,76.0,240.0,240.0,0.0,0.0
2140,74.0,240.0,240.0,0.0,0.0
2141,73.0,240.0,240.0,0.0,0.0
2142,74.0,240.0,240.0,0.0,0.0
2143,83.0,240.0,240.0,0.0,0.0
2144,79.0,240.0,240.0,0.0,0.0
2145,69.0,37.0,1500.0,2.0,0.0
2146,62.0,130.0,1560.0,2.0,0.0
2147,78.0,240.0,240.0,0.0,0.0
2148,79.0,240.0,240.0,0.0,0.0
2149,81.0,240.0,240.0,0.0,0.0
2150,83.0,240.0,240.0,0.0,0.0
2151,84.0,240.0,240.0,0.0,0.0
2152,85.0,73.0,240.0,0.0,0.0
2153,88.0,240.0,240.0,0.0,0.0
2154,86.0,240.0,240.0,0.0,0.0
2155,83.0,0.0,1920.0,2.0,0.0
2156,85.0,240.0,240.0,0.0,0.0
2157,79.0,0.0,1920.0,2.0,0.0
2158,86.0,240.0,240.0,0.0,0.0
2159,88.0,240.0,240.0,0.0,0.0
2160,86.0,240.0,240.0,0.0,0.0
2161,85.0,240.0,240.0,0.0,0.0
2162,86.0,240.0,240.0,0.0,0.0
2163,95.0,240.0,240.0,0.0,0.0
2164,91.0,240.0,240.0,0.0,0.0
2165,74.0,7.0,750.0,2.0,0.0
2166,81.0,201.0,750.0,2.0,0.0
2167,90.0,240.0,240.0,0.0,0.0
2168,91.0,240.0,240.0,0.0,0.0
2169,93.0,32.0,240.0,0.0,0.0
2170,95.0,240.0,240.0,0.0,0.0
2171,96.0,240.0,240.0,0.0,0.0
2172,72.0,0.0,960.0,2.0,0.0
2173,81.0,240.0,960.0,2.0,0.0
2174,78.0,0.0,960.0,2.0,0.0
2175,97.0,240.0,240.0,0.0,0.0
2176,100.0,240.0,240.0,0.0,0.0
2177,98.0,0.0,240.0,0.0,0.0
2178,71.0,171.0,780.0,2.0,0.0
2179,97.0,240.0,240.0,0.0,0.0
2180,74.0,0.0,15.0,2.0,0.0
2181,98.0,240.0,240.0,0.0,0.0
2182,96.0,69.0,240.0,0.0,0.0
2183,95.0,240.0,240.0,0.0,0.0
2184,71.0,240.0,960.0,2.0,0.0
2185,67.0,0.0,960.0,2.0,0.0
2186,93.0,240.0,240.0,0.0,0.0
2187,91.0,240.0,240.0,0.0,0.0
2188,90.0,240.0,240.0,0.0,0.0
2189,88.0,0.0,240.0,0.0,0.0
2190,86.0,240.0,240.0,0.0,0.0
2191,62.0,7.0,750.0,2.0,0.0
2192,69.0,0.0,750.0,2.0,0.0
2193,72.0,201.0,750.0,2.0,0.0
2194,84.0,240.0,240.0,0.0,0.0
2195,83.0,32.0,240.0,0.0,0.0
2196,81.0,240.0,240.0,0.0,0.0
2197,72.0,0.0,960.0,2.0,0.0
2198,79.0,240.0,240.0,0.0,0.0
2199,62.0,0.0,960.0,2.0,0.0
2200,69.0,0.0,960.0,2.0,0.0
2201,78.0,240.0,240.0,0.0,0.0
2202,81.0,240.0,240.0,0.0,0.0
2203,84.0,480.0,240.0,0.0,0.0
2204,79.0,0.0,1920.0,1.0,0.0
2205,83.0,0.0,1920.0,0.0,0.0
2206,62.0,240.0,240.0,2.0,0.0
2207,64.0,240.0,240.0,2.0,0.0
2208,62.0,240.0,240.0,2.0,0.0
2209,61.0,240.0,240.0,2.0,0.0
2210,62.0,240.0,240.0,2.0,0.0
2211,59.0,240.0,240.0,2.0,0.0
2212,55.0,240.0,240.0,2.0,0.0
2213,74.0,0.0,1920.0,1.0,0.0
2214,81.0,0.0,1920.0,0.0,0.0
2215,60.0,240.0,240.0,2.0,0.0
2216,57.0,240.0,240.0,2.0,0.0
2217,54.0,240.0,240.0,2.0,0.0
2218,50.0,240.0,240.0,2.0,0.0
2219,48.0,240.0,240.0,2.0,0.0
2220,45.0,240.0,240.0,2.0,0.0
2221,42.0,240.0,240.0,2.0,0.0
2222,38.0,240.0,240.0,2.0,0.0
2223,71.0,0.0,960.0,1.0,0.0
2224,79.0,0.0,960.0,0.0,0.0
2225,43.0,240.0,240.0,2.0,0.0
2226,45.0,240.0,240.0,2.0,0.0
2227,47.0,240.0,240.0,2.0,0.0
2228,48.0,240.0,240.0,2.0,0.0
2229,76.0,0.0,480.0,0.0,0.0
2230,50.0,240.0,240.0,2.0,0.0
2231,72.0,0.0,480.0,1.0,0.0
2232,52.0,240.0,240.0,2.0,0.0
2233,74.0,240.0,480.0,0.0,0.0
2234,71.0,0.0,480.0,1.0,0.0
2235,54.0,240.0,240.0,2.0,0.0
2236,55.0,0.0,240.0,2.0,0.0
2237,57.0,240.0,240.0,2.0,0.0
2238,50.0,0.0,1920.0,2.0,0.0
2239,74.0,0.0,480.0,0.0,0.0
2240,71.0,240.0,480.0,1.0,0.0
2241,59.0,0.0,240.0,2.0,0.0
2242,60.0,240.0,240.0,2.0,0.0
2243,72.0,0.0,480.0,0.0,0.0
2244,69.0,0.0,480.0,1.0,0.0
2245,61.0,480.0,240.0,2.0,0.0
2246,71.0,480.0,480.0,0.0,0.0
2247,62.0,0.0,480.0,2.0,0.0
2248,67.0,0.0,480.0,1.0,0.0
2249,69.0,0.0,480.0,0.0,0.0
2250,60.0,240.0,480.0,2.0,0.0
2251,62.0,0.0,480.0,1.0,0.0
2252,67.0,240.0,240.0,0.0,0.0
2253,55.0,240.0,1920.0,2.0,0.0
2254,59.0,0.0,1920.0,2.0,0.0
2255,62.0,240.0,240.0,0.0,0.0
2256,64.0,240.0,240.0,0.0,0.0
2257,62.0,240.0,240.0,0.0,0.0
2258,61.0,240.0,240.0,0.0,0.0
2259,62.0,240.0,240.0,0.0,0.0
2260,71.0,240.0,240.0,0.0,0.0
2261,67.0,0.0,240.0,0.0,0.0
2262,66.0,240.0,240.0,0.0,0.0
2263,50.0,0.0,1650.0,2.0,0.0
2264,57.0,19.0,1650.0,2.0,0.0
2265,67.0,240.0,240.0,0.0,0.0
2266,69.0,240.0,240.0,0.0,0.0
2267,71.0,240.0,240.0,0.0,0.0
2268,72.0,240.0,240.0,0.0,0.0
2269,73.0,221.0,240.0,0.0,0.0
2270,76.0,240.0,240.0,0.0,0.0
2271,74.0,240.0,240.0,0.0,0.0
2272,67.0,0.0,1920.0,2.0,0.0
2273,71.0,0.0,1920.0,2.0,0.0
2274,73.0,240.0,240.0,0.0,0.0
2275,74.0,240.0,240.0,0.0,0.0
2276,76.0,240.0,240.0,0.0,0.0
2277,74.0,240.0,240.0,0.0,0.0
2278,73.0,240.0,240.0,0.0,0.0
2279,74.0,240.0,240.0,0.0,0.0
2280,83.0,240.0,240.0,0.0,0.0
2281,79.0,240.0,240.0,0.0,0.0
2282,69.0,0.0,1620.0,2.0,0.0
2283,62.0,56.0,1620.0,2.0,0.0
2284,78.0,240.0,240.0,0.0,0.0
2285,79.0,240.0,240.0,0.0,0.0
2286,81.0,240.0,240.0,0.0,0.0
2287,83.0,240.0,240.0,0.0,0.0
2288,84.0,240.0,240.0,0.0,0.0
2289,85.0,184.0,240.0,0.0,0.0
2290,88.0,240.0,240.0,0.0,0.0
2291,86.0,240.0,240.0,0.0,0.0
2292,85.0,240.0,240.0,0.0,0.0
2293,79.0,0.0,1920.0,2.0,0.0
2294,83.0,0.0,1920.0,2.0,0.0
2295,86.0,240.0,240.0,0.0,0.0
2296,88.0,240.0,240.0,0.0,0.0
2297,86.0,240.0,240.0,0.0,0.0
2298,85.0,240.0,240.0,0.0,0.0
2299,86.0,240.0,240.0,0.0,0.0
2300,95.0,240.0,240.0,0.0,0.0
2301,91.0,240.0,240.0,0.0,0.0
2302,81.0,201.0,750.0,2.0,0.0
2303,90.0,240.0,240.0,0.0,0.0
2304,74.0,0.0,750.0,2.0,0.0
2305,91.0,240.0,240.0,0.0,0.0
2306,93.0,39.0,240.0,0.0,0.0
2307,95.0,240.0,240.0,0.0,0.0
2308,81.0,0.0,960.0,2.0,0.0
2309,72.0,240.0,960.0,2.0,0.0
2310,96.0,240.0,240.0,0.0,0.0
2311,97.0,240.0,240.0,0.0,0.0
2312,100.0,240.0,240.0,0.0,0.0
2313,74.0,0.0,15.0,2.0,0.0
2314,98.0,0.0,15.0,0.0,0.0
2315,71.0,7.0,420.0,2.0,0.0
2316,74.0,240.0,240.0,0.0,0.0
2317,67.0,238.0,720.0,2.0,0.0
2318,71.0,5.0,720.0,2.0,0.0
2319,76.0,240.0,240.0,0.0,0.0
2320,74.0,235.0,240.0,0.0,0.0
2321,73.0,2.0,240.0,0.0,0.0
2322,74.0,240.0,240.0,0.0,0.0
2323,83.0,240.0,240.0,0.0,0.0
2324,71.0,0.0,480.0,2.0,0.0
2325,67.0,0.0,480.0,2.0,0.0
2326,79.0,240.0,240.0,0.0,0.0
2327,78.0,240.0,240.0,0.0,0.0
2328,62.0,53.0,900.0,2.0,0.0
2329,69.0,0.0,900.0,2.0,0.0
2330,79.0,240.0,240.0,0.0,0.0
2331,81.0,187.0,240.0,0.0,0.0
2332,83.0,240.0,240.0,0.0,0.0
2333,84.0,240.0,240.0,0.0,0.0
2334,69.0,0.0,960.0,2.0,0.0
2335,60.0,0.0,960.0,2.0,0.0
2336,85.0,240.0,240.0,0.0,0.0
2337,88.0,240.0,240.0,0.0,0.0
2338,86.0,0.0,240.0,0.0,0.0
2339,59.0,53.0,420.0,2.0,0.0
2340,62.0,240.0,15.0,2.0,0.0
2341,86.0,187.0,240.0,0.0,0.0
2342,62.0,240.0,240.0,0.0,0.0
2343,59.0,60.0,900.0,2.0,0.0
2344,55.0,0.0,900.0,2.0,0.0
2345,64.0,240.0,240.0,0.0,0.0
2346,62.0,240.0,240.0,0.0,0.0
2347,61.0,180.0,240.0,0.0,0.0
2348,62.0,240.0,240.0,0.0,0.0
2349,71.0,240.0,240.0,0.0,0.0
2350,59.0,0.0,480.0,2.0,0.0
2351,55.0,0.0,480.0,2.0,0.0
2352,67.0,240.0,240.0,0.0,0.0
2353,50.0,148.0,810.0,2.0,0.0
2354,60.0,0.0,810.0,2.0,0.0
2355,57.0,0.0,810.0,2.0,0.0
2356,61.0,240.0,240.0,0.0,0.0
2357,62.0,240.0,240.0,0.0,0.0
2358,72.0,92.0,240.0,0.0,0.0
2359,69.0,240.0,240.0,0.0,0.0
2360,50.0,0.0,960.0,2.0,0.0
2361,60.0,1920.0,960.0,2.0,0.0
2362,57.0,0.0,960.0,2.0,0.0
2363,66.0,240.0,240.0,0.0,0.0
2364,76.0,240.0,240.0,0.0,0.0
2365,74.0,240.0,240.0,0.0,0.0
2366,66.0,0.0,240.0,0.0,0.0
2367,67.0,1920.0,1920.0,0.0,0.0
2368,62.0,1440.0,1920.0,0.0,0.0
2369,59.0,480.0,1440.0,0.0,0.0
2370,55.0,1920.0,1920.0,2.0,0.0
2371,50.0,960.0,1920.0,2.0,0.0
2372,67.0,0.0,1920.0,1.0,0.0
2373,47.0,960.0,960.0,2.0,0.0
2374,71.0,1920.0,1920.0,0.0,0.0
2375,62.0,0.0,1920.0,1.0,0.0
2376,69.0,1440.0,1920.0,0.0,0.0
2377,55.0,0.0,1920.0,2.0,0.0
2378,59.0,1920.0,1920.0,2.0,0.0
2379,59.0,480.0,1440.0,1.0,0.0
2380,67.0,0.0,1440.0,0.0,0.0
2381,57.0,0.0,1920.0,2.0,0.0
2382,50.0,0.0,1920.0,2.0,0.0
2383,67.0,960.0,480.0,1.0,0.0
2384,71.0,0.0,480.0,0.0,0.0
2385,69.0,480.0,1920.0,0.0,0.0
2386,55.0,960.0,960.0,2.0,0.0
2387,47.0,0.0,960.0,2.0,0.0
2388,62.0,0.0,1920.0,1.0,0.0
2389,59.0,0.0,480.0,2.0,0.0
2390,55.0,0.0,480.0,2.0,0.0
2391,59.0,1440.0,480.0,1.0,0.0
2392,67.0,0.0,480.0,0.0,0.0
2393,50.0,0.0,1920.0,2.0,0.0
2394,57.0,480.0,1920.0,2.0,0.0
2395,83.0,0.0,480.0,0.0,0.0
2396,79.0,0.0,480.0,1.0,0.0
2397,74.0,480.0,1920.0,1.0,0.0
2398,55.0,1440.0,480.0,2.0,0.0
2399,47.0,0.0,480.0,2.0,0.0
2400,81.0,0.0,1920.0,0.0,0.0
2401,67.0,0.0,480.0,2.0,0.0
2402,71.0,0.0,480.0,2.0,0.0
2403,69.0,0.0,1920.0,2.0,0.0
2404,62.0,0.0,1920.0,2.0,0.0
2405,79.0,1440.0,480.0,0.0,0.0
2406,71.0,0.0,480.0,1.0,0.0
2407,95.0,480.0,480.0,1.0,0.0
2408,95.0,0.0,480.0,0.0,0.0
2409,91.0,0.0,480.0,1.0,0.0
2410,59.0,0.0,480.0,2.0,0.0
2411,67.0,480.0,480.0,2.0,0.0
2412,91.0,480.0,480.0,1.0,0.0
2413,95.0,0.0,480.0,0.0,0.0
2414,93.0,0.0,480.0,0.0,0.0
2415,86.0,480.0,480.0,1.0,0.0
2416,91.0,0.0,480.0,0.0,0.0
2417,91.0,0.0,480.0,0.0,0.0
2418,83.0,480.0,15.0,1.0,0.0
2419,62.0,0.0,480.0,2.0,0.0
2420,59.0,480.0,480.0,2.0,0.0
2421,54.0,480.0,480.0,2.0,0.0
2422,60.0,0.0,480.0,2.0,0.0
2423,59.0,480.0,480.0,2.0,0.0
2424,50.0,0.0,15.0,2.0,0.0
2425,59.0,480.0,480.0,2.0,0.0
2426,71.0,480.0,480.0,0.0,0.0
2427,67.0,0.0,480.0,1.0,0.0
2428,69.0,0.0,480.0,0.0,0.0
2429,62.0,480.0,480.0,1.0,0.0
2430,67.0,0.0,480.0,0.0,0.0
2431,67.0,0.0,480.0,0.0,0.0
2432,59.0,480.0,15.0,1.0,0.0
2433,55.0,480.0,480.0,2.0,0.0
2434,59.0,0.0,480.0,2.0,0.0
2435,50.0,0.0,480.0,2.0,0.0
2436,57.0,480.0,480.0,2.0,0.0
2437,55.0,0.0,480.0,2.0,0.0
2438,47.0,840.0,480.0,2.0,0.0
2439,57.0,0.0,1440.0,1.0,0.0
2440,62.0,360.0,1440.0,0.0,0.0
2441,54.0,0.0,360.0,2.0,0.0
2442,50.0,480.0,360.0,2.0,0.0
2443,43.0,120.0,360.0,2.0,0.0
2444,59.0,0.0,360.0,0.0,0.0
2445,55.0,960.0,360.0,1.0,0.0
2446,62.0,360.0,1440.0,0.0,0.0
2447,57.0,0.0,1440.0,1.0,0.0
2448,54.0,0.0,360.0,2.0,0.0
2449,50.0,480.0,360.0,2.0,0.0
2450,43.0,120.0,360.0,2.0,0.0
2451,55.0,0.0,360.0,1.0,0.0
2452,59.0,960.0,360.0,0.0,0.0
2453,57.0,0.0,1440.0,1.0,0.0
2454,62.0,360.0,1440.0,0.0,0.0
2455,54.0,480.0,360.0,2.0,0.0
2456,50.0,0.0,360.0,2.0,0.0
2457,43.0,120.0,360.0,2.0,0.0
2458,59.0,0.0,360.0,0.0,0.0
2459,55.0,960.0,360.0,1.0,0.0
2460,54.0,0.0,1440.0,1.0,0.0
2461,62.0,360.0,1440.0,0.0,0.0
2462,50.0,480.0,360.0,2.0,0.0
2463,43.0,120.0,360.0,2.0,0.0
2464,57.0,0.0,15.0,1.0,0.0
2465,66.0,0.0,360.0,0.0,0.0
2466,50.0,0.0,360.0,2.0,0.0
2467,60.0,0.0,360.0,1.0,0.0
2468,59.0,0.0,480.0,1.0,0.0
2469,67.0,1440.0,480.0,0.0,0.0
2470,43.0,1920.0,1920.0,2.0,0.0
2471,43.0,240.0,1920.0,1.0,0.0
2472,42.0,0.0,1920.0,2.0,0.0
2473,40.0,240.0,1920.0,2.0,0.0
2474,43.0,0.0,1920.0,1.0,0.0
2475,67.0,240.0,240.0,0.0,0.0
2476,69.0,240.0,240.0,0.0,0.0
2477,67.0,240.0,240.0,0.0,0.0
2478,66.0,240.0,240.0,0.0,0.0
2479,67.0,240.0,240.0,0.0,0.0
2480,69.0,240.0,240.0,0.0,0.0
2481,71.0,240.0,240.0,0.0,0.0
2482,72.0,0.0,240.0,0.0,0.0
2483,43.0,0.0,1920.0,1.0,0.0
2484,74.0,240.0,240.0,0.0,0.0
2485,38.0,0.0,1920.0,2.0,0.0
2486,76.0,240.0,240.0,0.0,0.0
2487,78.0,240.0,240.0,0.0,0.0
2488,79.0,240.0,240.0,0.0,0.0
2489,81.0,240.0,240.0,0.0,0.0
2490,83.0,240.0,240.0,0.0,0.0
2491,84.0,240.0,240.0,0.0,0.0
2492,86.0,320.0,240.0,0.0,0.0
2493,88.0,320.0,330.0,0.0,0.0
2494,36.0,0.0,1920.0,2.0,0.0
2495,90.0,320.0,330.0,0.0,0.0
2496,91.0,240.0,330.0,0.0,0.0
2497,93.0,240.0,240.0,0.0,0.0
2498,95.0,240.0,240.0,0.0,0.0
2499,96.0,240.0,240.0,0.0,0.0
2500,98.0,0.0,240.0,0.0,0.0
2501,35.0,240.0,1920.0,2.0,0.0
2502,43.0,960.0,15.0,1.0,0.0
2503,100.0,480.0,960.0,0.0,0.0
2504,98.0,480.0,480.0,0.0,0.0
2505,91.0,240.0,240.0,0.0,0.0
2506,36.0,0.0,1920.0,2.0,0.0
2507,93.0,240.0,240.0,0.0,0.0
2508,91.0,240.0,240.0,0.0,0.0
2509,90.0,240.0,240.0,0.0,0.0
2510,91.0,240.0,240.0,0.0,0.0
2511,93.0,160.0,240.0,0.0,0.0
2512,95.0,160.0,150.0,0.0,0.0
2513,96.0,160.0,150.0,0.0,0.0
2514,98.0,960.0,150.0,0.0,0.0
2515,35.0,0.0,1920.0,2.0,0.0
2516,43.0,0.0,15.0,1.0,0.0
2517,100.0,480.0,960.0,0.0,0.0
2518,98.0,480.0,480.0,0.0,0.0
2519,91.0,240.0,240.0,0.0,0.0
2520,36.0,960.0,1920.0,2.0,0.0
2521,43.0,0.0,1920.0,1.0,0.0
2522,93.0,240.0,240.0,0.0,0.0
2523,91.0,240.0,240.0,0.0,0.0
2524,90.0,240.0,240.0,0.0,0.0
2525,91.0,240.0,240.0,0.0,0.0
2526,93.0,160.0,240.0,0.0,0.0
2527,95.0,160.0,150.0,0.0,0.0
2528,96.0,160.0,150.0,0.0,0.0
2529,98.0,0.0,150.0,0.0,0.0
2530,88.0,480.0,1920.0,0.0,0.0
2531,100.0,0.0,1920.0,0.0,0.0
2532,43.0,960.0,960.0,1.0,0.0
2533,35.0,0.0,960.0,2.0,0.0
2534,86.0,0.0,480.0,0.0,0.0
2535,98.0,1800.0,480.0,0.0,0.0
2536,38.0,0.0,480.0,2.0,0.0
2537,45.0,1800.0,480.0,2.0,0.0
2538,42.0,0.0,480.0,2.0,0.0
2539,50.0,0.0,480.0,2.0,0.0
2540,60.0,120.0,360.0,1.0,0.0
2541,62.0,0.0,360.0,1.0,0.0
2542,57.0,0.0,360.0,1.0,0.0
2543,66.0,0.0,360.0,0.0,0.0
2544,43.0,0.0,480.0,2.0,0.0
2545,55.0,3720.0,480.0,2.0,0.0
2546,50.0,0.0,480.0,2.0,0.0
2547,47.0,0.0,480.0,2.0,0.0
2548,62.0,120.0,360.0,1.0,0.0
2549,59.0,0.0,360.0,1.0,0.0
2550,67.0,0.0,360.0,0.0,0.0
2551,71.0,120.0,360.0,0.0,0.0
2552,70.0,480.0,120.0,0.0,0.0
2553,58.0,480.0,480.0,2.0,0.0
2554,73.0,0.0,1440.0,0.0,0.0
2555,61.0,480.0,480.0,2.0,0.0
2556,58.0,0.0,480.0,2.0,0.0
2557,52.0,360.0,15.0,2.0,0.0
2558,67.0,0.0,15.0,2.0,0.0
2559,71.0,120.0,360.0,0.0,0.0
2560,70.0,480.0,120.0,0.0,0.0
2561,73.0,360.0,960.0,0.0,0.0
2562,58.0,480.0,480.0,2.0,0.0
2563,61.0,0.0,480.0,2.0,0.0
2564,58.0,0.0,480.0,2.0,0.0
2565,73.0,120.0,360.0,0.0,0.0
2566,79.0,0.0,15.0,0.0,0.0
2567,66.0,480.0,480.0,2.0,0.0
2568,51.0,0.0,480.0,2.0,0.0
2569,59.0,0.0,480.0,2.0,0.0
2570,78.0,120.0,360.0,0.0,0.0
2571,71.0,0.0,120.0,0.0,0.0
2572,71.0,360.0,480.0,0.0,0.0
2573,70.0,120.0,360.0,0.0,0.0
2574,64.0,240.0,480.0,2.0,0.0
2575,54.0,0.0,480.0,2.0,0.0
2576,61.0,0.0,480.0,2.0,0.0
2577,73.0,0.0,15.0,0.0,0.0
2578,75.0,53.0,1020.0,0.0,0.0
2579,47.0,427.0,360.0,2.0,0.0
2580,59.0,0.0,360.0,2.0,0.0
2581,63.0,0.0,360.0,2.0,0.0
2582,66.0,0.0,360.0,2.0,0.0
2583,47.0,0.0,360.0,2.0,0.0
2584,59.0,60.0,360.0,2.0,0.0
2585,63.0,0.0,360.0,2.0,0.0
2586,66.0,0.0,360.0,2.0,0.0
2587,76.0,0.0,60.0,0.0,0.0
2588,75.0,60.0,60.0,0.0,0.0
2589,73.0,240.0,60.0,0.0,0.0
2590,75.0,240.0,240.0,0.0,0.0
2591,76.0,360.0,240.0,0.0,0.0
2592,57.0,7.0,1800.0,2.0,0.0
2593,72.0,53.0,1800.0,2.0,0.0
2594,79.0,120.0,360.0,0.0,0.0
2595,78.0,480.0,120.0,0.0,0.0
2596,81.0,15.0,1320.0,0.0,0.0
2597,63.0,480.0,480.0,2.0,0.0
2598,66.0,345.0,480.0,2.0,0.0
2599,63.0,0.0,360.0,2.0,0.0
2600,78.0,60.0,60.0,0.0,0.0
2601,81.0,360.0,60.0,0.0,0.0
2602,57.0,0.0,1920.0,2.0,0.0
2603,79.0,120.0,360.0,0.0,0.0
2604,72.0,0.0,1920.0,2.0,0.0
2605,78.0,480.0,120.0,0.0,0.0
2606,81.0,360.0,960.0,0.0,0.0
2607,63.0,480.0,480.0,2.0,0.0
2608,66.0,0.0,480.0,2.0,0.0
2609,63.0,0.0,480.0,2.0,0.0
2610,78.0,120.0,360.0,0.0,0.0
2611,84.0,480.0,120.0,0.0,0.0
2612,84.0,360.0,480.0,0.0,0.0
2613,55.0,480.0,480.0,2.0,0.0
2614,64.0,0.0,480.0,2.0,0.0
2615,71.0,0.0,480.0,2.0,0.0
2616,83.0,120.0,360.0,0.0,0.0
2617,76.0,0.0,120.0,0.0,0.0
2618,76.0,360.0,480.0,0.0,0.0
2619,75.0,120.0,360.0,0.0,0.0
2620,66.0,0.0,480.0,2.0,0.0
2621,69.0,0.0,480.0,2.0,0.0
2622,59.0,0.0,480.0,2.0,0.0
2623,78.0,240.0,15.0,0.0,0.0
2624,79.0,263.0,930.0,0.0,0.0
2625,64.0,0.0,330.0,2.0,0.0
2626,67.0,315.0,330.0,2.0,0.0
2627,52.0,0.0,330.0,2.0,0.0
2628,52.0,0.0,180.0,2.0,0.0
2629,64.0,0.0,180.0,2.0,0.0
2630,67.0,48.0,180.0,2.0,0.0
2631,67.0,0.0,240.0,2.0,0.0
2632,72.0,240.0,240.0,0.0,0.0
2633,64.0,0.0,240.0,2.0,0.0
2634,62.0,0.0,240.0,2.0,0.0
2635,65.0,0.0,240.0,2.0,0.0
2636,71.0,0.0,240.0,0.0,0.0
2637,72.0,0.0,240.0,0.0,0.0
2638,60.0,0.0,240.0,2.0,0.0
2639,64.0,240.0,240.0,2.0,0.0
2640,67.0,240.0,15.0,2.0,0.0
2641,76.0,60.0,240.0,0.0,0.0
2642,59.0,0.0,480.0,2.0,0.0
2643,62.0,0.0,480.0,2.0,0.0
2644,67.0,0.0,15.0,2.0,0.0
2645,74.0,60.0,60.0,0.0,0.0
2646,76.0,60.0,60.0,0.0,0.0
2647,74.0,60.0,60.0,0.0,0.0
2648,73.0,0.0,60.0,0.0,0.0
2649,74.0,120.0,360.0,0.0,0.0
2650,68.0,0.0,720.0,2.0,0.0
2651,62.0,0.0,720.0,2.0,0.0
2652,59.0,240.0,720.0,2.0,0.0
2653,76.0,240.0,120.0,0.0,0.0
2654,77.0,120.0,600.0,0.0,0.0
2655,57.0,0.0,240.0,2.0,0.0
2656,60.0,0.0,240.0,2.0,0.0
2657,65.0,120.0,240.0,2.0,0.0
2658,64.0,0.0,240.0,2.0,0.0
2659,59.0,0.0,240.0,2.0,0.0
2660,56.0,120.0,240.0,2.0,0.0
2661,76.0,0.0,120.0,0.0,0.0
2662,86.0,120.0,120.0,0.0,0.0
2663,83.0,480.0,120.0,0.0,0.0
2664,64.0,0.0,15.0,2.0,0.0
2665,56.0,0.0,15.0,2.0,0.0
2666,59.0,0.0,15.0,2.0,0.0
2667,83.0,120.0,720.0,0.0,0.0
2668,60.0,0.0,480.0,2.0,0.0
2669,64.0,0.0,15.0,2.0,0.0
2670,57.0,30.0,480.0,2.0,0.0
2671,86.0,120.0,120.0,0.0,0.0
2672,84.0,690.0,150.0,0.0,0.0
2673,72.0,240.0,240.0,0.0,0.0
2674,71.0,360.0,15.0,0.0,0.0
2675,55.0,0.0,480.0,2.0,0.0
2676,42.0,360.0,1440.0,2.0,0.0
2677,70.0,480.0,120.0,0.0,0.0
2678,46.0,480.0,480.0,2.0,0.0
2679,49.0,0.0,480.0,2.0,0.0
2680,73.0,0.0,15.0,0.0,0.0
2681,50.0,0.0,480.0,2.0,0.0
2682,62.0,360.0,480.0,2.0,0.0
2683,71.0,0.0,120.0,0.0,0.0
2684,61.0,0.0,480.0,2.0,0.0
2685,54.0,0.0,15.0,2.0,0.0
2686,71.0,120.0,360.0,0.0,0.0
2687,49.0,0.0,480.0,2.0,0.0
2688,70.0,360.0,120.0,0.0,0.0
2689,47.0,0.0,480.0,2.0,0.0
2690,59.0,0.0,480.0,2.0,0.0
2691,54.0,0.0,480.0,2.0,0.0
2692,73.0,120.0,360.0,0.0,0.0
2693,71.0,360.0,120.0,0.0,0.0
2694,46.0,0.0,480.0,2.0,0.0
2695,58.0,0.0,480.0,2.0,0.0
2696,54.0,0.0,480.0,2.0,0.0
2697,74.0,120.0,360.0,0.0,0.0
2698,73.0,120.0,120.0,0.0,0.0
2699,70.0,120.0,120.0,0.0,0.0
2700,73.0,120.0,120.0,0.0,0.0
2701,76.0,120.0,120.0,0.0,0.0
2702,79.0,120.0,120.0,0.0,0.0
2703,78.0,120.0,120.0,0.0,0.0
2704,76.0,120.0,120.0,0.0,0.0
2705,74.0,120.0,120.0,0.0,0.0
2706,73.0,120.0,120.0,0.0,0.0
2707,76.0,120.0,120.0,0.0,0.0
2708,82.0,120.0,120.0,0.0,0.0
2709,85.0,120.0,120.0,0.0,0.0
2710,88.0,120.0,120.0,0.0,0.0
2711,86.0,120.0,120.0,0.0,0.0
2712,85.0,120.0,120.0,0.0,0.0
2713,83.0,120.0,120.0,0.0,0.0
2714,82.0,120.0,120.0,0.0,0.0
2715,85.0,120.0,120.0,0.0,0.0
2716,88.0,120.0,120.0,0.0,0.0
2717,90.0,120.0,120.0,0.0,0.0
2718,91.0,120.0,120.0,0.0,0.0
2719,90.0,120.0,120.0,0.0,0.0
2720,88.0,120.0,120.0,0.0,0.0
2721,86.0,120.0,120.0,0.0,0.0
2722,85.0,120.0,120.0,0.0,0.0
2723,88.0,120.0,120.0,0.0,0.0
2724,85.0,120.0,120.0,0.0,0.0
2725,83.0,120.0,120.0,0.0,0.0
2726,82.0,120.0,120.0,0.0,0.0
2727,88.0,120.0,120.0,0.0,0.0
2728,85.0,120.0,120.0,0.0,0.0
2729,83.0,120.0,120.0,0.0,0.0
2730,82.0,78.0,120.0,0.0,0.0
2731,85.0,120.0,90.0,0.0,0.0
2732,82.0,120.0,90.0,0.0,0.0
2733,79.0,120.0,90.0,0.0,0.0
2734,78.0,276.0,90.0,0.0,0.0
2735,78.0,9.0,480.0,0.0,0.0
2736,58.0,0.0,240.0,2.0,0.0
2737,61.0,15.0,240.0,2.0,0.0
2738,66.0,225.0,120.0,2.0,0.0
2739,61.0,6.0,240.0,2.0,0.0
2740,58.0,0.0,240.0,2.0,0.0
2741,66.0,225.0,120.0,2.0,0.0
2742,58.0,0.0,240.0,2.0,0.0
2743,73.0,9.0,960.0,0.0,0.0
2744,61.0,15.0,240.0,2.0,0.0
2745,66.0,225.0,120.0,2.0,0.0
2746,61.0,0.0,240.0,2.0,0.0
2747,58.0,15.0,240.0,2.0,0.0
2748,66.0,225.0,120.0,2.0,0.0
2749,58.0,15.0,240.0,2.0,0.0
2750,61.0,0.0,240.0,2.0,0.0
2751,66.0,225.0,120.0,2.0,0.0
2752,61.0,0.0,240.0,2.0,0.0
2753,58.0,6.0,240.0,2.0,0.0
2754,66.0,225.0,120.0,2.0,0.0
2755,75.0,9.0,240.0,0.0,0.0
2756,59.0,6.0,240.0,2.0,0.0
2757,63.0,0.0,240.0,2.0,0.0
2758,66.0,225.0,120.0,2.0,0.0
2759,71.0,9.0,240.0,0.0,0.0
2760,63.0,6.0,240.0,2.0,0.0
2761,59.0,0.0,240.0,2.0,0.0
2762,66.0,225.0,120.0,2.0,0.0
2763,61.0,0.0,240.0,2.0,0.0
2764,71.0,9.0,240.0,0.0,0.0
2765,64.0,6.0,240.0,2.0,0.0
2766,66.0,51.0,120.0,2.0,0.0
2767,70.0,60.0,60.0,0.0,0.0
2768,61.0,0.0,240.0,2.0,0.0
2769,64.0,6.0,240.0,2.0,0.0
2770,71.0,60.0,60.0,0.0,0.0
2771,70.0,54.0,60.0,0.0,0.0
2772,66.0,225.0,120.0,2.0,0.0
2773,68.0,9.0,60.0,0.0,0.0
2774,61.0,6.0,240.0,2.0,0.0
2775,64.0,0.0,240.0,2.0,0.0
2776,70.0,9.0,240.0,0.0,0.0
2777,66.0,225.0,120.0,2.0,0.0
2778,71.0,9.0,240.0,0.0,0.0
2779,61.0,6.0,240.0,2.0,0.0
2780,64.0,0.0,240.0,2.0,0.0
2781,66.0,183.0,120.0,2.0,0.0
2782,61.0,15.0,240.0,2.0,0.0
2783,64.0,0.0,240.0,2.0,0.0
2784,73.0,42.0,180.0,0.0,0.0
2785,66.0,183.0,120.0,2.0,0.0
2786,63.0,15.0,240.0,2.0,0.0
2787,59.0,0.0,240.0,2.0,0.0
2788,75.0,42.0,180.0,0.0,0.0
2789,66.0,111.0,120.0,2.0,0.0
2790,76.0,96.0,120.0,0.0,0.0
2791,58.0,0.0,240.0,2.0,0.0
2792,61.0,15.0,240.0,2.0,0.0
2793,77.0,18.0,90.0,0.0,0.0
2794,66.0,111.0,120.0,2.0,0.0
2795,77.0,96.0,120.0,0.0,0.0
2796,58.0,15.0,240.0,2.0,0.0
2797,61.0,0.0,240.0,2.0,0.0
2798,66.0,111.0,120.0,2.0,0.0
2799,78.0,18.0,90.0,0.0,0.0
2800,61.0,0.0,240.0,2.0,0.0
2801,58.0,6.0,240.0,2.0,0.0
2802,77.0,114.0,120.0,0.0,0.0
2803,78.0,9.0,120.0,0.0,0.0
2804,66.0,111.0,120.0,2.0,0.0
2805,61.0,6.0,240.0,2.0,0.0
2806,80.0,114.0,120.0,0.0,0.0
2807,58.0,0.0,240.0,2.0,0.0
2808,78.0,9.0,120.0,0.0,0.0
2809,66.0,225.0,120.0,2.0,0.0
2810,58.0,0.0,240.0,2.0,0.0
2811,73.0,9.0,480.0,0.0,0.0
2812,61.0,15.0,240.0,2.0,0.0
2813,66.0,225.0,120.0,2.0,0.0
2814,58.0,6.0,240.0,2.0,0.0
2815,61.0,0.0,240.0,2.0,0.0
2816,66.0,171.0,120.0,2.0,0.0
2817,61.0,0.0,240.0,2.0,0.0
2818,58.0,6.0,240.0,2.0,0.0
2819,75.0,54.0,60.0,0.0,0.0
2820,66.0,51.0,120.0,2.0,0.0
2821,73.0,9.0,60.0,0.0,0.0
2822,61.0,15.0,240.0,2.0,0.0
2823,75.0,48.0,60.0,0.0,0.0
2824,58.0,0.0,240.0,2.0,0.0
2825,73.0,72.0,40.0,0.0,0.0
2826,76.0,48.0,60.0,0.0,0.0
2827,66.0,51.0,120.0,2.0,0.0
2828,75.0,6.0,40.0,0.0,0.0
2829,59.0,15.0,240.0,2.0,0.0
2830,63.0,0.0,240.0,2.0,0.0
2831,76.0,48.0,60.0,0.0,0.0
2832,75.0,72.0,40.0,0.0,0.0
2833,66.0,39.0,120.0,2.0,0.0
2834,78.0,48.0,60.0,0.0,0.0
2835,77.0,6.0,40.0,0.0,0.0
2836,59.0,6.0,240.0,2.0,0.0
2837,63.0,0.0,240.0,2.0,0.0
2838,78.0,30.0,40.0,0.0,0.0
2839,77.0,30.0,40.0,0.0,0.0
2840,80.0,30.0,40.0,0.0,0.0
2841,78.0,96.0,40.0,0.0,0.0
2842,71.0,9.0,120.0,0.0,0.0
2843,66.0,225.0,120.0,2.0,0.0
2844,61.0,0.0,240.0,2.0,0.0
2845,64.0,15.0,240.0,2.0,0.0
2846,71.0,9.0,480.0,0.0,0.0
2847,66.0,225.0,120.0,2.0,0.0
2848,64.0,6.0,240.0,2.0,0.0
2849,61.0,0.0,240.0,2.0,0.0
2850,66.0,31.0,120.0,2.0,0.0
2851,64.0,6.0,240.0,2.0,0.0
2852,61.0,0.0,240.0,2.0,0.0
2853,70.0,40.0,40.0,0.0,0.0
2854,71.0,40.0,40.0,0.0,0.0
2855,70.0,60.0,40.0,0.0,0.0
2856,68.0,54.0,60.0,0.0,0.0
2857,66.0,225.0,120.0,2.0,0.0
2858,70.0,9.0,60.0,0.0,0.0
2859,64.0,0.0,240.0,2.0,0.0
2860,61.0,6.0,240.0,2.0,0.0
2861,71.0,9.0,240.0,0.0,0.0
2862,66.0,225.0,120.0,2.0,0.0
2863,73.0,9.0,240.0,0.0,0.0
2864,64.0,6.0,240.0,2.0,0.0
2865,61.0,0.0,240.0,2.0,0.0
2866,66.0,225.0,120.0,2.0,0.0
2867,62.0,6.0,240.0,2.0,0.0
2868,74.0,9.0,240.0,0.0,0.0
2869,59.0,0.0,240.0,2.0,0.0
2870,66.0,111.0,120.0,2.0,0.0
2871,61.0,15.0,240.0,2.0,0.0
2872,58.0,0.0,240.0,2.0,0.0
2873,76.0,96.0,120.0,0.0,0.0
2874,66.0,111.0,120.0,2.0,0.0
2875,77.0,18.0,90.0,0.0,0.0
2876,58.0,0.0,240.0,2.0,0.0
2877,61.0,15.0,240.0,2.0,0.0
2878,77.0,96.0,120.0,0.0,0.0
2879,66.0,69.0,120.0,2.0,0.0
2880,78.0,18.0,90.0,0.0,0.0
2881,78.0,78.0,240.0,0.0,0.0
2882,62.0,0.0,90.0,2.0,0.0
2883,59.0,120.0,90.0,2.0,0.0
2884,66.0,42.0,90.0,2.0,0.0
2885,70.0,106.0,90.0,2.0,0.0
2886,78.0,78.0,240.0,1.0,0.0
2887,86.0,14.0,180.0,0.0,0.0
2888,71.0,42.0,90.0,2.0,0.0
2889,66.0,120.0,90.0,2.0,0.0
2890,62.0,120.0,90.0,2.0,0.0
2891,78.0,78.0,240.0,1.0,0.0
2892,61.0,106.0,90.0,2.0,0.0
2893,86.0,14.0,180.0,0.0,0.0
2894,59.0,42.0,90.0,2.0,0.0
2895,58.0,120.0,90.0,2.0,0.0
2896,54.0,0.0,90.0,2.0,0.0
2897,61.0,120.0,90.0,2.0,0.0
2898,76.0,78.0,240.0,1.0,0.0
2899,64.0,106.0,90.0,2.0,0.0
2900,85.0,14.0,180.0,0.0,0.0
2901,54.0,42.0,90.0,2.0,0.0
2902,55.0,120.0,90.0,2.0,0.0
2903,59.0,120.0,90.0,2.0,0.0
2904,83.0,14.0,180.0,0.0,0.0
2905,74.0,78.0,240.0,1.0,0.0
2906,62.0,106.0,90.0,2.0,0.0
2907,55.0,42.0,90.0,2.0,0.0
2908,59.0,0.0,90.0,2.0,0.0
2909,55.0,120.0,90.0,2.0,0.0
2910,62.0,120.0,90.0,2.0,0.0
2911,66.0,106.0,90.0,2.0,0.0
2912,74.0,78.0,240.0,1.0,0.0
2913,71.0,0.0,240.0,1.0,0.0
2914,83.0,14.0,180.0,0.0,0.0
2915,67.0,42.0,90.0,2.0,0.0
2916,62.0,120.0,90.0,2.0,0.0
2917,59.0,120.0,90.0,2.0,0.0
2918,83.0,14.0,180.0,0.0,0.0
2919,79.0,78.0,240.0,1.0,0.0
2920,71.0,0.0,240.0,1.0,0.0
2921,57.0,106.0,90.0,2.0,0.0
2922,55.0,42.0,90.0,2.0,0.0
2923,51.0,120.0,90.0,2.0,0.0
2924,47.0,0.0,90.0,2.0,0.0
2925,54.0,120.0,90.0,2.0,0.0
2926,81.0,14.0,180.0,0.0,0.0
2927,59.0,106.0,90.0,2.0,0.0
2928,78.0,78.0,240.0,1.0,0.0
2929,71.0,0.0,240.0,1.0,0.0
2930,51.0,42.0,90.0,2.0,0.0
2931,52.0,120.0,90.0,2.0,0.0
2932,55.0,120.0,90.0,2.0,0.0
2933,71.0,0.0,240.0,1.0,0.0
2934,76.0,360.0,240.0,1.0,0.0
2935,79.0,14.0,180.0,0.0,0.0
2936,59.0,106.0,90.0,2.0,0.0
2937,52.0,42.0,90.0,2.0,0.0
2938,81.0,120.0,360.0,0.0,0.0
2939,74.0,0.0,1920.0,2.0,0.0
2940,50.0,0.0,1920.0,2.0,0.0
2941,80.0,480.0,120.0,0.0,0.0
2942,83.0,0.0,1440.0,0.0,0.0
2943,56.0,480.0,480.0,2.0,0.0
2944,59.0,480.0,480.0,2.0,0.0
2945,56.0,0.0,480.0,2.0,0.0
2946,81.0,120.0,360.0,0.0,0.0
2947,71.0,0.0,15.0,2.0,0.0
2948,65.0,360.0,15.0,2.0,0.0
2949,50.0,0.0,1440.0,2.0,0.0
2950,77.0,0.0,15.0,2.0,0.0
2951,74.0,0.0,1440.0,2.0,0.0
2952,80.0,480.0,120.0,0.0,0.0
2953,56.0,480.0,480.0,2.0,0.0
2954,59.0,0.0,480.0,2.0,0.0
2955,56.0,0.0,480.0,2.0,0.0
2956,77.0,0.0,480.0,2.0,0.0
2957,50.0,0.0,480.0,2.0,0.0
2958,83.0,360.0,15.0,0.0,0.0
2959,89.0,480.0,15.0,0.0,0.0
2960,48.0,0.0,420.0,2.0,0.0
2961,76.0,66.0,420.0,2.0,0.0
2962,57.0,0.0,420.0,2.0,0.0
2963,52.0,0.0,420.0,2.0,0.0
2964,88.0,54.0,360.0,0.0,0.0
2965,81.0,480.0,120.0,0.0,0.0
2966,81.0,360.0,480.0,0.0,0.0
2967,68.0,0.0,420.0,2.0,0.0
2968,52.0,0.0,420.0,2.0,0.0
2969,80.0,54.0,360.0,0.0,0.0
2970,59.0,0.0,420.0,2.0,0.0
2971,74.0,66.0,420.0,2.0,0.0
2972,83.0,240.0,15.0,0.0,0.0
2973,84.0,263.0,930.0,0.0,0.0
2974,57.0,0.0,330.0,2.0,0.0
2975,69.0,341.0,330.0,2.0,0.0
2976,72.0,0.0,330.0,2.0,0.0
2977,72.0,25.0,180.0,2.0,0.0
2978,57.0,0.0,180.0,2.0,0.0
2979,69.0,0.0,180.0,2.0,0.0
2980,77.0,240.0,240.0,0.0,0.0
2981,69.0,0.0,240.0,2.0,0.0
2982,72.0,0.0,15.0,2.0,0.0
2983,70.0,0.0,240.0,2.0,0.0
2984,67.0,240.0,240.0,2.0,0.0
2985,76.0,0.0,240.0,0.0,0.0
2986,65.0,0.0,240.0,2.0,0.0
2987,69.0,0.0,240.0,2.0,0.0
2988,77.0,240.0,240.0,0.0,0.0
2989,72.0,0.0,15.0,2.0,0.0
2990,67.0,0.0,480.0,2.0,0.0
2991,64.0,0.0,480.0,2.0,0.0
2992,81.0,60.0,240.0,0.0,0.0
2993,79.0,60.0,60.0,0.0,0.0
2994,81.0,60.0,60.0,0.0,0.0
2995,79.0,60.0,60.0,0.0,0.0
2996,78.0,360.0,60.0,0.0,0.0
2997,79.0,120.0,360.0,0.0,0.0
2998,73.0,0.0,720.0,2.0,0.0
2999,64.0,0.0,720.0,2.0,0.0
3000,67.0,240.0,720.0,2.0,0.0
3001,81.0,240.0,120.0,0.0,0.0
3002,82.0,120.0,600.0,0.0,0.0
3003,62.0,120.0,240.0,2.0,0.0
3004,65.0,0.0,240.0,2.0,0.0
3005,70.0,0.0,240.0,2.0,0.0
3006,81.0,0.0,120.0,0.0,0.0
3007,91.0,120.0,120.0,0.0,0.0
3008,64.0,0.0,15.0,2.0,0.0
3009,61.0,120.0,15.0,2.0,0.0
3010,69.0,0.0,15.0,2.0,0.0
3011,88.0,0.0,15.0,0.0,0.0
3012,69.0,0.0,15.0,2.0,0.0
3013,64.0,480.0,15.0,2.0,0.0
3014,61.0,0.0,480.0,2.0,0.0
3015,69.0,0.0,15.0,2.0,0.0
3016,62.0,37.0,480.0,2.0,0.0
3017,65.0,0.0,480.0,2.0,0.0
3018,91.0,120.0,120.0,0.0,0.0
3019,89.0,683.0,150.0,0.0,0.0
3020,70.0,240.0,240.0,0.0,0.0
3021,69.0,360.0,15.0,0.0,0.0
3022,53.0,480.0,480.0,2.0,0.0
3023,68.0,0.0,120.0,0.0,0.0
3024,44.0,480.0,480.0,2.0,0.0
3025,47.0,0.0,480.0,2.0,0.0
3026,71.0,0.0,15.0,0.0,0.0
3027,48.0,0.0,480.0,2.0,0.0
3028,40.0,360.0,15.0,2.0,0.0
3029,64.0,0.0,480.0,2.0,0.0
3030,36.0,0.0,480.0,2.0,0.0
3031,60.0,0.0,480.0,2.0,0.0
3032,35.0,0.0,480.0,2.0,0.0
3033,69.0,360.0,15.0,0.0,0.0
3034,47.0,0.0,480.0,2.0,0.0
3035,62.0,0.0,480.0,2.0,0.0
3036,68.0,0.0,120.0,0.0,0.0
3037,71.0,120.0,360.0,0.0,0.0
3038,45.0,0.0,480.0,2.0,0.0
3039,40.0,0.0,15.0,2.0,0.0
3040,64.0,360.0,15.0,2.0,0.0
3041,33.0,0.0,480.0,2.0,0.0
3042,60.0,0.0,480.0,2.0,0.0
3043,69.0,360.0,120.0,0.0,0.0
3044,40.0,0.0,15.0,2.0,0.0
3045,32.0,0.0,480.0,2.0,0.0
3046,59.0,0.0,480.0,2.0,0.0
3047,64.0,0.0,480.0,2.0,0.0
3048,72.0,120.0,360.0,0.0,0.0
3049,44.0,0.0,480.0,2.0,0.0
3050,71.0,120.0,120.0,0.0,0.0
3051,68.0,120.0,120.0,0.0,0.0
3052,71.0,120.0,120.0,0.0,0.0
3053,74.0,120.0,120.0,0.0,0.0
3054,77.0,120.0,120.0,0.0,0.0
3055,76.0,120.0,120.0,0.0,0.0
3056,74.0,120.0,120.0,0.0,0.0
3057,72.0,120.0,120.0,0.0,0.0
3058,71.0,120.0,120.0,0.0,0.0
3059,74.0,120.0,120.0,0.0,0.0
3060,80.0,120.0,120.0,0.0,0.0
3061,83.0,120.0,120.0,0.0,0.0
3062,86.0,120.0,120.0,0.0,0.0
3063,84.0,120.0,120.0,0.0,0.0
3064,83.0,120.0,120.0,0.0,0.0
3065,81.0,120.0,120.0,0.0,0.0
3066,80.0,120.0,120.0,0.0,0.0
3067,83.0,120.0,120.0,0.0,0.0
3068,86.0,120.0,120.0,0.0,0.0
3069,88.0,120.0,120.0,0.0,0.0
3070,89.0,120.0,120.0,0.0,0.0
3071,88.0,120.0,120.0,0.0,0.0
3072,86.0,120.0,120.0,0.0,0.0
3073,84.0,120.0,120.0,0.0,0.0
3074,83.0,120.0,120.0,0.0,0.0
3075,86.0,120.0,120.0,0.0,0.0
3076,83.0,120.0,120.0,0.0,0.0
3077,81.0,120.0,120.0,0.0,0.0
3078,80.0,120.0,120.0,0.0,0.0
3079,86.0,120.0,120.0,0.0,0.0
3080,83.0,120.0,120.0,0.0,0.0
3081,81.0,120.0,120.0,0.0,0.0
3082,80.0,78.0,120.0,0.0,0.0
3083,83.0,120.0,90.0,1.0,0.0
3084,95.0,0.0,90.0,0.0,0.0
3085,80.0,120.0,90.0,1.0,0.0
3086,92.0,0.0,90.0,0.0,0.0
3087,77.0,120.0,90.0,1.0,0.0
3088,89.0,0.0,90.0,0.0,0.0
3089,88.0,0.0,90.0,0.0,0.0
3090,76.0,272.0,90.0,1.0,0.0
3091,88.0,0.0,480.0,0.0,0.0
3092,56.0,0.0,240.0,2.0,0.0
3093,59.0,10.0,240.0,2.0,0.0
3094,76.0,0.0,480.0,1.0,0.0
3095,64.0,230.0,120.0,2.0,0.0
3096,56.0,0.0,240.0,2.0,0.0
3097,59.0,10.0,240.0,2.0,0.0
3098,64.0,230.0,120.0,2.0,0.0
3099,59.0,0.0,240.0,2.0,0.0
3100,83.0,0.0,960.0,0.0,0.0
3101,71.0,0.0,960.0,1.0,0.0
3102,56.0,10.0,240.0,2.0,0.0
3103,64.0,230.0,120.0,2.0,0.0
3104,56.0,0.0,240.0,2.0,0.0
3105,59.0,10.0,240.0,2.0,0.0
3106,64.0,230.0,120.0,2.0,0.0
3107,59.0,0.0,240.0,2.0,0.0
3108,56.0,10.0,240.0,2.0,0.0
3109,64.0,230.0,120.0,2.0,0.0
3110,59.0,10.0,240.0,2.0,0.0
3111,56.0,0.0,240.0,2.0,0.0
3112,64.0,230.0,120.0,2.0,0.0
3113,73.0,230.0,240.0,1.0,0.0
3114,85.0,0.0,240.0,0.0,0.0
3115,57.0,10.0,240.0,2.0,0.0
3116,61.0,0.0,240.0,2.0,0.0
3117,64.0,0.0,120.0,2.0,0.0
3118,81.0,0.0,240.0,0.0,0.0
3119,57.0,0.0,240.0,2.0,0.0
3120,61.0,10.0,240.0,2.0,0.0
3121,64.0,230.0,120.0,2.0,0.0
3122,69.0,0.0,15.0,1.0,0.0
3123,81.0,0.0,240.0,0.0,0.0
3124,59.0,0.0,240.0,2.0,0.0
3125,62.0,10.0,240.0,2.0,0.0
3126,64.0,60.0,120.0,2.0,0.0
3127,59.0,10.0,240.0,2.0,0.0
3128,62.0,0.0,240.0,2.0,0.0
3129,80.0,60.0,60.0,0.0,0.0
3130,81.0,60.0,60.0,0.0,0.0
3131,64.0,230.0,120.0,2.0,0.0
3132,80.0,50.0,60.0,0.0,0.0
3133,78.0,0.0,60.0,0.0,0.0
3134,80.0,230.0,240.0,0.0,0.0
3135,68.0,0.0,240.0,1.0,0.0
3136,62.0,10.0,240.0,2.0,0.0
3137,59.0,0.0,240.0,2.0,0.0
3138,64.0,0.0,120.0,2.0,0.0
3139,69.0,0.0,240.0,1.0,0.0
3140,62.0,0.0,240.0,2.0,0.0
3141,59.0,10.0,240.0,2.0,0.0
3142,81.0,192.0,240.0,0.0,0.0
3143,64.0,0.0,120.0,2.0,0.0
3144,71.0,38.0,180.0,1.0,0.0
3145,59.0,10.0,240.0,2.0,0.0
3146,62.0,0.0,240.0,2.0,0.0
3147,83.0,0.0,180.0,0.0,0.0
3148,64.0,192.0,120.0,2.0,0.0
3149,85.0,38.0,180.0,0.0,0.0
3150,73.0,0.0,180.0,1.0,0.0
3151,61.0,0.0,240.0,2.0,0.0
3152,57.0,10.0,240.0,2.0,0.0
3153,64.0,120.0,120.0,2.0,0.0
3154,86.0,96.0,120.0,0.0,0.0
3155,56.0,10.0,240.0,2.0,0.0
3156,59.0,0.0,240.0,2.0,0.0
3157,74.0,0.0,120.0,1.0,0.0
3158,75.0,0.0,90.0,1.0,0.0
3159,87.0,14.0,90.0,0.0,0.0
3160,64.0,120.0,120.0,2.0,0.0
3161,87.0,0.0,120.0,0.0,0.0
3162,56.0,0.0,240.0,2.0,0.0
3163,59.0,10.0,240.0,2.0,0.0
3164,75.0,96.0,120.0,1.0,0.0
3165,88.0,0.0,90.0,0.0,0.0
3166,76.0,14.0,90.0,1.0,0.0
3167,64.0,96.0,120.0,2.0,0.0
3168,87.0,120.0,90.0,0.0,0.0
3169,75.0,0.0,90.0,1.0,0.0
3170,59.0,0.0,240.0,2.0,0.0
3171,56.0,10.0,240.0,2.0,0.0
3172,88.0,14.0,90.0,0.0,0.0
3173,64.0,96.0,120.0,2.0,0.0
3174,56.0,10.0,240.0,2.0,0.0
3175,59.0,0.0,240.0,2.0,0.0
3176,90.0,120.0,90.0,0.0,0.0
3177,88.0,14.0,90.0,0.0,0.0
3178,64.0,230.0,120.0,2.0,0.0
3179,83.0,41.0,600.0,0.0,0.0
3180,56.0,10.0,240.0,2.0,0.0
3181,59.0,0.0,240.0,2.0,0.0
3182,64.0,230.0,120.0,2.0,0.0
3183,59.0,10.0,240.0,2.0,0.0
3184,56.0,0.0,240.0,2.0,0.0
3185,64.0,127.0,120.0,2.0,0.0
3186,59.0,10.0,240.0,2.0,0.0
3187,56.0,0.0,240.0,2.0,0.0
3188,85.0,60.0,40.0,0.0,0.0
3189,64.0,48.0,120.0,2.0,0.0
3190,83.0,2.0,40.0,0.0,0.0
3191,56.0,10.0,240.0,2.0,0.0
3192,85.0,60.0,40.0,0.0,0.0
3193,59.0,0.0,240.0,2.0,0.0
3194,83.0,72.0,40.0,0.0,0.0
3195,64.0,60.0,120.0,2.0,0.0
3196,86.0,48.0,60.0,0.0,0.0
3197,85.0,2.0,40.0,0.0,0.0
3198,57.0,0.0,240.0,2.0,0.0
3199,61.0,10.0,240.0,2.0,0.0
3200,86.0,48.0,60.0,0.0,0.0
3201,85.0,72.0,40.0,0.0,0.0
3202,64.0,48.0,120.0,2.0,0.0
3203,88.0,48.0,60.0,0.0,0.0
3204,87.0,2.0,40.0,0.0,0.0
3205,88.0,30.0,40.0,0.0,0.0
3206,57.0,0.0,240.0,2.0,0.0
3207,61.0,0.0,240.0,2.0,0.0
3208,87.0,30.0,40.0,0.0,0.0
3209,90.0,32.0,40.0,0.0,0.0
3210,88.0,30.0,60.0,0.0,0.0
3211,93.0,60.0,60.0,0.0,0.0
3212,64.0,230.0,120.0,2.0,0.0
3213,81.0,10.0,60.0,0.0,0.0
3214,69.0,0.0,480.0,1.0,0.0
3215,81.0,0.0,240.0,0.0,0.0
3216,59.0,10.0,240.0,2.0,0.0
3217,62.0,0.0,240.0,2.0,0.0
3218,64.0,48.0,120.0,2.0,0.0
3219,59.0,10.0,240.0,2.0,0.0
3220,62.0,0.0,240.0,2.0,0.0
3221,80.0,60.0,40.0,0.0,0.0
3222,81.0,60.0,40.0,0.0,0.0
3223,64.0,230.0,120.0,2.0,0.0
3224,80.0,60.0,40.0,0.0,0.0
3225,78.0,2.0,40.0,0.0,0.0
3226,68.0,230.0,240.0,1.0,0.0
3227,62.0,10.0,240.0,2.0,0.0
3228,59.0,0.0,240.0,2.0,0.0
3229,80.0,0.0,240.0,0.0,0.0
3230,64.0,0.0,120.0,2.0,0.0
3231,62.0,10.0,240.0,2.0,0.0
3232,81.0,0.0,240.0,0.0,0.0
3233,59.0,0.0,240.0,2.0,0.0
3234,69.0,192.0,240.0,1.0,0.0
3235,64.0,0.0,120.0,2.0,0.0
3236,62.0,0.0,240.0,2.0,0.0
3237,59.0,10.0,240.0,2.0,0.0
3238,71.0,0.0,180.0,1.0,0.0
3239,83.0,38.0,180.0,0.0,0.0
3240,64.0,192.0,120.0,2.0,0.0
3241,57.0,10.0,240.0,2.0,0.0
3242,84.0,0.0,180.0,0.0,0.0
3243,60.0,0.0,240.0,2.0,0.0
3244,72.0,38.0,180.0,1.0,0.0
3245,64.0,120.0,120.0,2.0,0.0
3246,56.0,10.0,240.0,2.0,0.0
3247,86.0,96.0,120.0,0.0,0.0
3248,59.0,0.0,240.0,2.0,0.0
3249,74.0,0.0,120.0,1.0,0.0
3250,64.0,120.0,120.0,2.0,0.0
3251,75.0,0.0,90.0,1.0,0.0
3252,87.0,14.0,90.0,0.0,0.0
3253,56.0,10.0,240.0,2.0,0.0
3254,59.0,0.0,240.0,2.0,0.0
3255,87.0,0.0,120.0,0.0,0.0
3256,75.0,96.0,120.0,1.0,0.0
3257,88.0,0.0,90.0,0.0,0.0
3258,64.0,78.0,120.0,2.0,0.0
3259,76.0,14.0,90.0,1.0,0.0
3260,76.0,0.0,180.0,1.0,0.0
3261,88.0,0.0,180.0,0.0,0.0
3262,57.0,114.0,90.0,2.0,0.0
3263,60.0,0.0,90.0,2.0,0.0
3264,84.0,6.0,180.0,1.0,0.0
3265,64.0,120.0,90.0,2.0,0.0
3266,84.0,6.0,180.0,1.0,0.0
3267,88.0,0.0,180.0,1.0,0.0
3268,68.0,114.0,90.0,2.0,0.0
3269,96.0,0.0,180.0,0.0,0.0
3270,69.0,120.0,90.0,2.0,0.0
3271,64.0,120.0,90.0,2.0,0.0
3272,60.0,120.0,90.0,2.0,0.0
3273,59.0,114.0,90.0,2.0,0.0
3274,84.0,0.0,180.0,0.0,0.0
3275,76.0,6.0,180.0,1.0,0.0
3276,57.0,120.0,90.0,2.0,0.0
3277,52.0,0.0,90.0,2.0,0.0
3278,56.0,120.0,90.0,2.0,0.0
3279,59.0,120.0,90.0,2.0,0.0
3280,74.0,6.0,180.0,1.0,0.0
3281,62.0,114.0,90.0,2.0,0.0
3282,83.0,0.0,180.0,0.0,0.0
3283,52.0,120.0,90.0,2.0,0.0
3284,53.0,120.0,90.0,2.0,0.0
3285,57.0,120.0,90.0,2.0,0.0
3286,60.0,114.0,90.0,2.0,0.0
3287,81.0,6.0,180.0,0.0,0.0
3288,72.0,0.0,180.0,1.0,0.0
3289,53.0,120.0,90.0,2.0,0.0
3290,57.0,114.0,90.0,2.0,0.0
3291,53.0,0.0,90.0,2.0,0.0
3292,81.0,6.0,180.0,0.0,0.0
3293,72.0,0.0,180.0,1.0,0.0
3294,60.0,120.0,90.0,2.0,0.0
3295,64.0,114.0,90.0,2.0,0.0
3296,84.0,0.0,180.0,1.0,0.0
3297,81.0,0.0,180.0,1.0,0.0
3298,93.0,6.0,180.0,0.0,0.0
3299,65.0,120.0,90.0,2.0,0.0
3300,60.0,120.0,90.0,2.0,0.0
3301,57.0,120.0,90.0,2.0,0.0
3302,69.0,0.0,180.0,1.0,0.0
3303,55.0,114.0,90.0,2.0,0.0
3304,81.0,6.0,180.0,0.0,0.0
3305,72.0,0.0,180.0,1.0,0.0
3306,53.0,120.0,90.0,2.0,0.0
3307,45.0,120.0,90.0,2.0,0.0
3308,49.0,0.0,90.0,2.0,0.0
3309,52.0,120.0,90.0,2.0,0.0
3310,67.0,0.0,180.0,1.0,0.0
3311,76.0,0.0,180.0,1.0,0.0
3312,79.0,6.0,180.0,0.0,0.0
3313,57.0,114.0,90.0,2.0,0.0
3314,49.0,120.0,90.0,2.0,0.0
3315,50.0,120.0,90.0,2.0,0.0
3316,53.0,120.0,90.0,2.0,0.0
3317,77.0,0.0,180.0,0.0,0.0
3318,74.0,6.0,180.0,1.0,0.0
3319,69.0,0.0,180.0,1.0,0.0
3320,57.0,114.0,90.0,2.0,0.0
3321,50.0,330.0,90.0,2.0,0.0
3322,76.0,168.0,300.0,0.0,0.0
3323,47.0,0.0,1920.0,2.0,0.0
3324,60.0,480.0,480.0,2.0,0.0
3325,72.0,360.0,1920.0,2.0,0.0
3326,66.0,0.0,1920.0,2.0,0.0
3327,69.0,0.0,1920.0,2.0,0.0
3328,75.0,24.0,90.0,0.0,0.0
3329,78.0,0.0,1440.0,0.0,0.0
3330,51.0,480.0,480.0,2.0,0.0
3331,54.0,480.0,480.0,2.0,0.0
3332,51.0,0.0,480.0,2.0,0.0
3333,76.0,160.0,360.0,0.0,0.0
3334,75.0,248.0,150.0,0.0,0.0
3335,78.0,552.0,300.0,0.0,0.0
3336,78.0,180.0,360.0,0.0,0.0
3337,76.0,180.0,180.0,0.0,0.0
3338,79.0,600.0,240.0,0.0,0.0
3339,51.0,360.0,1980.0,2.0,0.0
3340,79.0,120.0,360.0,0.0,0.0
3341,66.0,480.0,480.0,2.0,0.0
3342,72.0,0.0,1920.0,2.0,0.0
3343,69.0,0.0,1920.0,2.0,0.0
3344,78.0,0.0,120.0,0.0,0.0
3345,57.0,480.0,480.0,2.0,0.0
3346,81.0,0.0,1440.0,0.0,0.0
3347,60.0,480.0,480.0,2.0,0.0
3348,57.0,0.0,480.0,2.0,0.0
3349,79.0,120.0,360.0,0.0,0.0
3350,78.0,240.0,120.0,0.0,0.0
3351,81.0,600.0,240.0,0.0,0.0
3352,81.0,120.0,360.0,0.0,0.0
3353,79.0,240.0,120.0,0.0,0.0
3354,83.0,600.0,240.0,0.0,0.0
3355,50.0,0.0,3480.0,2.0,0.0
3356,78.0,120.0,360.0,0.0,0.0
3357,83.0,0.0,360.0,0.0,0.0
3358,72.0,0.0,360.0,0.0,0.0
3359,66.0,0.0,480.0,2.0,0.0
3360,81.0,480.0,120.0,0.0,0.0
3361,54.0,360.0,480.0,2.0,0.0
3362,84.0,120.0,840.0,0.0,0.0
3363,66.0,0.0,480.0,2.0,0.0
3364,81.0,480.0,120.0,0.0,0.0
3365,60.0,360.0,480.0,2.0,0.0
3366,90.0,120.0,840.0,0.0,0.0
3367,69.0,0.0,480.0,2.0,0.0
3368,84.0,480.0,120.0,0.0,0.0
3369,66.0,360.0,480.0,2.0,0.0
3370,93.0,120.0,840.0,0.0,0.0
3371,72.0,0.0,480.0,2.0,0.0
3372,90.0,480.0,120.0,0.0,0.0
3373,96.0,0.0,480.0,0.0,0.0
3374,96.0,0.0,330.0,0.0,0.0
3375,90.0,0.0,330.0,0.0,0.0
3376,84.0,20.0,330.0,0.0,0.0
3377,66.0,0.0,360.0,2.0,0.0
3378,69.0,336.0,15.0,2.0,0.0
3379,72.0,0.0,360.0,2.0,0.0
3380,93.0,0.0,330.0,0.0,0.0
3381,62.0,0.0,360.0,2.0,0.0
3382,62.0,0.0,90.0,0.0,0.0
3383,50.0,4.0,90.0,2.0,0.0
3384,61.0,0.0,90.0,0.0,0.0
3385,54.0,120.0,90.0,2.0,0.0
3386,62.0,0.0,90.0,0.0,0.0
3387,50.0,120.0,90.0,2.0,0.0
3388,66.0,120.0,90.0,0.0,0.0
3389,54.0,0.0,90.0,2.0,0.0
3390,69.0,120.0,90.0,0.0,0.0
3391,54.0,0.0,90.0,2.0,0.0
3392,66.0,0.0,90.0,0.0,0.0
3393,57.0,120.0,90.0,2.0,0.0
3394,69.0,0.0,90.0,0.0,0.0
3395,54.0,120.0,90.0,2.0,0.0
3396,72.0,0.0,90.0,0.0,0.0
3397,57.0,120.0,90.0,2.0,0.0
3398,69.0,120.0,90.0,0.0,0.0
3399,54.0,0.0,90.0,2.0,0.0
3400,57.0,120.0,90.0,2.0,0.0
3401,66.0,0.0,90.0,0.0,0.0
3402,72.0,0.0,90.0,0.0,0.0
3403,57.0,120.0,90.0,2.0,0.0
3404,69.0,120.0,90.0,0.0,0.0
3405,60.0,0.0,90.0,2.0,0.0
3406,57.0,0.0,90.0,2.0,0.0
3407,72.0,120.0,90.0,0.0,0.0
3408,60.0,0.0,90.0,2.0,0.0
3409,74.0,120.0,90.0,0.0,0.0
3410,72.0,0.0,90.0,0.0,0.0
3411,57.0,120.0,90.0,2.0,0.0
3412,60.0,120.0,90.0,2.0,0.0
3413,69.0,0.0,90.0,0.0,0.0
3414,74.0,0.0,90.0,0.0,0.0
3415,62.0,120.0,90.0,2.0,0.0
3416,72.0,0.0,90.0,0.0,0.0
3417,66.0,120.0,90.0,2.0,0.0
3418,74.0,120.0,90.0,0.0,0.0
3419,62.0,0.0,90.0,2.0,0.0
3420,78.0,0.0,90.0,0.0,0.0
3421,66.0,120.0,90.0,2.0,0.0
3422,62.0,120.0,90.0,2.0,0.0
3423,74.0,0.0,90.0,0.0,0.0
3424,72.0,0.0,90.0,0.0,0.0
3425,66.0,120.0,90.0,2.0,0.0
3426,81.0,0.0,90.0,0.0,0.0
3427,66.0,120.0,90.0,2.0,0.0
3428,78.0,0.0,90.0,0.0,0.0
3429,69.0,120.0,90.0,2.0,0.0
3430,81.0,0.0,90.0,0.0,0.0
3431,66.0,120.0,90.0,2.0,0.0
3432,84.0,120.0,90.0,0.0,0.0
3433,69.0,0.0,90.0,2.0,0.0
3434,66.0,0.0,90.0,2.0,0.0
3435,81.0,120.0,90.0,0.0,0.0
3436,78.0,0.0,90.0,0.0,0.0
3437,69.0,120.0,90.0,2.0,0.0
3438,84.0,0.0,90.0,0.0,0.0
3439,69.0,120.0,90.0,2.0,0.0
3440,72.0,120.0,90.0,2.0,0.0
3441,81.0,0.0,90.0,0.0,0.0
3442,69.0,0.0,90.0,2.0,0.0
3443,84.0,120.0,90.0,0.0,0.0
3444,72.0,120.0,90.0,2.0,0.0
3445,86.0,0.0,90.0,0.0,0.0
3446,84.0,0.0,90.0,0.0,0.0
3447,69.0,120.0,90.0,2.0,0.0
3448,81.0,0.0,90.0,0.0,0.0
3449,72.0,120.0,90.0,2.0,0.0
3450,86.0,0.0,90.0,0.0,0.0
3451,78.0,120.0,90.0,2.0,0.0
3452,84.0,120.0,90.0,0.0,0.0
3453,81.0,0.0,90.0,2.0,0.0
3454,86.0,0.0,90.0,0.0,0.0
3455,78.0,120.0,90.0,2.0,0.0
3456,90.0,120.0,90.0,0.0,0.0
3457,81.0,0.0,90.0,2.0,0.0
3458,86.0,120.0,90.0,0.0,0.0
3459,78.0,0.0,90.0,2.0,0.0
3460,84.0,0.0,90.0,0.0,0.0
3461,81.0,120.0,90.0,2.0,0.0
3462,81.0,120.0,90.0,2.0,0.0
3463,90.0,0.0,90.0,0.0,0.0
3464,84.0,120.0,90.0,2.0,0.0
3465,86.0,0.0,90.0,0.0,0.0
3466,90.0,0.0,90.0,0.0,0.0
3467,81.0,120.0,90.0,2.0,0.0
3468,93.0,0.0,90.0,0.0,0.0
3469,84.0,120.0,90.0,2.0,0.0
3470,81.0,0.0,90.0,2.0,0.0
3471,90.0,120.0,90.0,0.0,0.0
3472,84.0,120.0,90.0,2.0,0.0
3473,86.0,0.0,90.0,0.0,0.0
3474,93.0,120.0,90.0,0.0,0.0
3475,90.0,120.0,90.0,0.0,0.0
3476,93.0,120.0,90.0,0.0,0.0
3477,96.0,120.0,90.0,0.0,0.0
3478,84.0,0.0,240.0,2.0,0.0
3479,81.0,96.0,240.0,2.0,0.0
3480,93.0,120.0,90.0,0.0,0.0
3481,90.0,24.0,90.0,0.0,0.0
3482,86.0,120.0,90.0,0.0,0.0
3483,78.0,96.0,480.0,2.0,0.0
3484,81.0,0.0,480.0,2.0,0.0
3485,85.0,120.0,90.0,0.0,0.0
3486,86.0,120.0,90.0,0.0,0.0
3487,90.0,24.0,90.0,0.0,0.0
3488,93.0,120.0,90.0,0.0,0.0
3489,90.0,120.0,90.0,0.0,0.0
3490,93.0,120.0,90.0,0.0,0.0
3491,90.0,120.0,90.0,0.0,0.0
3492,93.0,120.0,90.0,0.0,0.0
3493,96.0,120.0,90.0,0.0,0.0
3494,93.0,120.0,90.0,0.0,0.0
3495,84.0,0.0,240.0,2.0,0.0
3496,81.0,96.0,240.0,2.0,0.0
3497,90.0,24.0,90.0,0.0,0.0
3498,86.0,120.0,90.0,0.0,0.0
3499,78.0,96.0,480.0,2.0,0.0
3500,81.0,0.0,480.0,2.0,0.0
3501,85.0,120.0,90.0,0.0,0.0
3502,86.0,120.0,90.0,0.0,0.0
3503,90.0,24.0,90.0,0.0,0.0
3504,93.0,120.0,90.0,0.0,0.0
3505,90.0,120.0,90.0,0.0,0.0
3506,81.0,120.0,90.0,0.0,0.0
3507,78.0,120.0,90.0,0.0,0.0
3508,81.0,120.0,90.0,0.0,0.0
3509,84.0,120.0,90.0,0.0,0.0
3510,72.0,0.0,240.0,2.0,0.0
3511,81.0,120.0,90.0,0.0,0.0
3512,78.0,24.0,90.0,0.0,0.0
3513,74.0,120.0,90.0,0.0,0.0
3514,66.0,0.0,480.0,2.0,0.0
3515,69.0,96.0,15.0,2.0,0.0
3516,73.0,120.0,90.0,0.0,0.0
3517,74.0,120.0,90.0,0.0,0.0
3518,78.0,24.0,90.0,0.0,0.0
3519,81.0,120.0,90.0,0.0,0.0
3520,78.0,120.0,90.0,0.0,0.0
3521,81.0,120.0,90.0,0.0,0.0
3522,78.0,120.0,90.0,0.0,0.0
3523,81.0,120.0,90.0,0.0,0.0
3524,84.0,120.0,90.0,0.0,0.0
3525,72.0,0.0,240.0,2.0,0.0
3526,81.0,120.0,90.0,0.0,0.0
3527,78.0,24.0,90.0,0.0,0.0
3528,69.0,96.0,15.0,2.0,0.0
3529,66.0,96.0,480.0,2.0,0.0
3530,74.0,120.0,90.0,0.0,0.0
3531,73.0,120.0,90.0,0.0,0.0
3532,74.0,120.0,90.0,0.0,0.0
3533,78.0,24.0,90.0,0.0,0.0
3534,81.0,121.0,90.0,0.0,0.0
3535,78.0,248.0,90.0,0.0,0.0
3536,72.0,0.0,240.0,0.0,0.0
3537,50.0,7.0,240.0,2.0,0.0
3538,84.0,0.0,240.0,0.0,0.0
3539,60.0,0.0,240.0,2.0,0.0
3540,57.0,8.0,240.0,2.0,0.0
3541,54.0,0.0,240.0,2.0,0.0
3542,78.0,98.0,270.0,0.0,0.0
3543,81.0,22.0,240.0,0.0,0.0
3544,62.0,36.0,120.0,0.0,0.0
3545,50.0,60.0,150.0,2.0,0.0
3546,61.0,144.0,90.0,0.0,0.0
3547,50.0,60.0,150.0,2.0,0.0
3548,62.0,36.0,120.0,0.0,0.0
3549,61.0,144.0,90.0,0.0,0.0
3550,64.0,36.0,120.0,0.0,0.0
3551,54.0,60.0,150.0,2.0,0.0
3552,62.0,144.0,90.0,0.0,0.0
3553,67.0,36.0,120.0,0.0,0.0
3554,57.0,60.0,150.0,2.0,0.0
3555,66.0,144.0,90.0,0.0,0.0
3556,71.0,36.0,120.0,0.0,0.0
3557,62.0,60.0,150.0,2.0,0.0
3558,69.0,144.0,90.0,0.0,0.0
3559,66.0,60.0,150.0,2.0,0.0
3560,74.0,36.0,120.0,0.0,0.0
3561,73.0,144.0,90.0,0.0,0.0
3562,76.0,36.0,120.0,0.0,0.0
3563,69.0,60.0,150.0,2.0,0.0
3564,74.0,144.0,90.0,0.0,0.0
3565,79.0,36.0,120.0,0.0,0.0
3566,72.0,0.0,150.0,2.0,0.0
3567,74.0,60.0,150.0,2.0,0.0
3568,78.0,144.0,90.0,0.0,0.0
3569,72.0,60.0,150.0,2.0,0.0
3570,74.0,0.0,150.0,2.0,0.0
3571,83.0,36.0,120.0,0.0,0.0
3572,81.0,144.0,90.0,0.0,0.0
3573,74.0,60.0,150.0,2.0,0.0
3574,72.0,0.0,150.0,2.0,0.0
3575,86.0,36.0,120.0,0.0,0.0
3576,85.0,144.0,90.0,0.0,0.0
3577,88.0,36.0,120.0,0.0,0.0
3578,72.0,60.0,150.0,2.0,0.0
3579,74.0,0.0,150.0,2.0,0.0
3580,86.0,264.0,90.0,0.0,0.0
3581,71.0,240.0,480.0,2.0,0.0
3582,67.0,0.0,480.0,2.0,0.0
3583,74.0,0.0,480.0,2.0,0.0
3584,86.0,240.0,240.0,0.0,0.0
3585,83.0,0.0,240.0,0.0,0.0
3586,79.0,240.0,240.0,0.0,0.0
3587,78.0,240.0,240.0,0.0,0.0
3588,66.0,0.0,480.0,2.0,0.0
3589,74.0,0.0,480.0,2.0,0.0
3590,69.0,0.0,480.0,2.0,0.0
3591,72.0,240.0,480.0,2.0,0.0
3592,81.0,0.0,240.0,0.0,0.0
3593,74.0,0.0,480.0,2.0,0.0
3594,67.0,0.0,480.0,2.0,0.0
3595,71.0,0.0,480.0,2.0,0.0
3596,86.0,240.0,15.0,0.0,0.0
3597,83.0,240.0,240.0,0.0,0.0
3598,79.0,240.0,240.0,0.0,0.0
3599,79.0,240.0,240.0,0.0,0.0
3600,83.0,240.0,240.0,0.0,0.0
3601,74.0,0.0,240.0,2.0,0.0
3602,71.0,0.0,240.0,2.0,0.0
3603,68.0,0.0,240.0,2.0,0.0
3604,72.0,240.0,480.0,2.0,0.0
3605,76.0,0.0,15.0,2.0,0.0
3606,69.0,0.0,480.0,2.0,0.0
3607,88.0,240.0,15.0,0.0,0.0
3608,84.0,0.0,240.0,0.0,0.0
3609,81.0,240.0,240.0,0.0,0.0
3610,76.0,0.0,480.0,2.0,0.0
3611,71.0,0.0,480.0,2.0,0.0
3612,64.0,0.0,480.0,2.0,0.0
3613,80.0,240.0,240.0,0.0,0.0
3614,74.0,0.0,480.0,2.0,0.0
3615,83.0,240.0,240.0,0.0,0.0
3616,88.0,240.0,240.0,0.0,0.0
3617,69.0,0.0,480.0,2.0,0.0
3618,76.0,0.0,480.0,2.0,0.0
3619,72.0,0.0,480.0,2.0,0.0
3620,88.0,240.0,240.0,0.0,0.0
3621,84.0,240.0,240.0,0.0,0.0
3622,81.0,240.0,240.0,0.0,0.0
3623,78.0,240.0,240.0,0.0,0.0
3624,81.0,240.0,240.0,0.0,0.0
3625,69.0,0.0,240.0,2.0,0.0
3626,72.0,0.0,240.0,2.0,0.0
3627,74.0,0.0,240.0,2.0,0.0
3628,66.0,0.0,240.0,2.0,0.0
3629,71.0,0.0,480.0,2.0,0.0
3630,67.0,0.0,480.0,2.0,0.0
3631,74.0,0.0,480.0,2.0,0.0
3632,86.0,240.0,15.0,0.0,0.0
3633,83.0,240.0,240.0,0.0,0.0
3634,79.0,240.0,240.0,0.0,0.0
3635,69.0,0.0,480.0,2.0,0.0
3636,60.0,240.0,480.0,2.0,0.0
3637,64.0,0.0,480.0,2.0,0.0
3638,76.0,240.0,240.0,0.0,0.0
3639,81.0,0.0,240.0,0.0,0.0
3640,84.0,240.0,240.0,0.0,0.0
3641,74.0,240.0,240.0,0.0,0.0
3642,62.0,240.0,480.0,2.0,0.0
3643,67.0,0.0,480.0,2.0,0.0
3644,71.0,0.0,480.0,2.0,0.0
3645,79.0,0.0,240.0,0.0,0.0
3646,83.0,240.0,240.0,0.0,0.0
3647,66.0,0.0,480.0,2.0,0.0
3648,69.0,0.0,480.0,2.0,0.0
3649,74.0,240.0,240.0,0.0,0.0
3650,62.0,0.0,480.0,2.0,0.0
3651,78.0,240.0,240.0,0.0,0.0
3652,81.0,0.0,240.0,0.0,0.0
3653,72.0,240.0,240.0,0.0,0.0
3654,62.0,0.0,240.0,2.0,0.0
3655,79.0,0.0,240.0,0.0,0.0
3656,71.0,0.0,240.0,0.0,0.0
3657,62.0,240.0,240.0,2.0,0.0
3658,59.0,240.0,240.0,2.0,0.0
3659,83.0,120.0,240.0,0.0,0.0
3660,55.0,0.0,240.0,2.0,0.0
3661,54.0,0.0,240.0,2.0,0.0
3662,84.0,120.0,120.0,0.0,0.0
3663,83.0,120.0,120.0,0.0,0.0
3664,57.0,0.0,240.0,2.0,0.0
3665,84.0,120.0,120.0,0.0,0.0
3666,81.0,120.0,120.0,0.0,0.0
3667,86.0,120.0,120.0,0.0,0.0
3668,84.0,0.0,120.0,0.0,0.0
3669,62.0,180.0,15.0,2.0,0.0
3670,83.0,60.0,180.0,0.0,0.0
3671,98.0,60.0,180.0,0.0,0.0
3672,59.0,240.0,240.0,2.0,0.0
3673,55.0,240.0,240.0,2.0,0.0
3674,55.0,240.0,240.0,2.0,0.0
3675,59.0,240.0,240.0,2.0,0.0
3676,56.0,0.0,240.0,2.0,0.0
3677,71.0,240.0,240.0,0.0,0.0
3678,64.0,0.0,15.0,2.0,0.0
3679,57.0,0.0,240.0,2.0,0.0
3680,60.0,240.0,240.0,2.0,0.0
3681,72.0,120.0,240.0,0.0,0.0
3682,57.0,0.0,240.0,2.0,0.0
3683,74.0,120.0,120.0,0.0,0.0
3684,56.0,0.0,240.0,2.0,0.0
3685,72.0,120.0,120.0,0.0,0.0
3686,74.0,120.0,120.0,0.0,0.0
3687,59.0,120.0,240.0,2.0,0.0
3688,71.0,0.0,120.0,0.0,0.0
3689,76.0,120.0,120.0,0.0,0.0
3690,74.0,0.0,120.0,0.0,0.0
3691,72.0,60.0,180.0,0.0,0.0
3692,64.0,180.0,15.0,2.0,0.0
3693,88.0,60.0,180.0,0.0,0.0
3694,60.0,240.0,240.0,2.0,0.0
3695,57.0,240.0,240.0,2.0,0.0
3696,54.0,240.0,240.0,2.0,0.0
3697,57.0,240.0,240.0,2.0,0.0
3698,81.0,0.0,240.0,0.0,0.0
3699,62.0,0.0,240.0,2.0,0.0
3700,54.0,240.0,240.0,2.0,0.0
3701,55.0,240.0,240.0,2.0,0.0
3702,62.0,0.0,240.0,2.0,0.0
3703,59.0,240.0,240.0,2.0,0.0
3704,55.0,0.0,240.0,2.0,0.0
3705,83.0,120.0,240.0,0.0,0.0
3706,84.0,120.0,120.0,0.0,0.0
3707,52.0,0.0,240.0,2.0,0.0
3708,48.0,0.0,240.0,2.0,0.0
3709,83.0,120.0,120.0,0.0,0.0
3710,57.0,0.0,240.0,2.0,0.0
3711,84.0,120.0,120.0,0.0,0.0
3712,81.0,180.0,120.0,0.0,0.0
3713,60.0,240.0,240.0,2.0,0.0
3714,96.0,60.0,180.0,0.0,0.0
3715,50.0,240.0,240.0,2.0,0.0
3716,55.0,240.0,240.0,2.0,0.0
3717,79.0,0.0,240.0,0.0,0.0
3718,59.0,120.0,240.0,2.0,0.0
3719,81.0,120.0,120.0,0.0,0.0
3720,50.0,0.0,240.0,2.0,0.0
3721,79.0,120.0,120.0,0.0,0.0
3722,54.0,180.0,240.0,2.0,0.0
3723,81.0,120.0,120.0,0.0,0.0
3724,78.0,0.0,120.0,0.0,0.0
3725,50.0,0.0,240.0,2.0,0.0
3726,93.0,60.0,180.0,0.0,0.0
3727,62.0,218.0,240.0,2.0,0.0
3728,50.0,218.0,240.0,2.0,0.0
3729,71.0,22.0,210.0,0.0,0.0
3730,83.0,0.0,120.0,0.0,0.0
3731,71.0,22.0,210.0,0.0,0.0
3732,47.0,218.0,240.0,2.0,0.0
3733,83.0,0.0,120.0,0.0,0.0
3734,74.0,22.0,210.0,0.0,0.0
3735,43.0,218.0,240.0,2.0,0.0
3736,86.0,0.0,120.0,0.0,0.0
3737,42.0,0.0,240.0,2.0,0.0
3738,74.0,22.0,210.0,0.0,0.0
3739,86.0,218.0,120.0,0.0,0.0
3740,45.0,0.0,240.0,2.0,0.0
3741,74.0,22.0,210.0,0.0,0.0
3742,86.0,218.0,120.0,0.0,0.0
3743,72.0,22.0,210.0,0.0,0.0
3744,84.0,0.0,120.0,0.0,0.0
3745,50.0,218.0,15.0,2.0,0.0
3746,71.0,22.0,210.0,0.0,0.0
3747,83.0,0.0,120.0,0.0,0.0
3748,71.0,22.0,210.0,0.0,0.0
3749,47.0,218.0,240.0,2.0,0.0
3750,83.0,0.0,120.0,0.0,0.0
3751,74.0,22.0,210.0,0.0,0.0
3752,86.0,0.0,120.0,0.0,0.0
3753,74.0,22.0,210.0,0.0,0.0
3754,43.0,218.0,15.0,2.0,0.0
3755,86.0,218.0,120.0,0.0,0.0
3756,47.0,0.0,240.0,2.0,0.0
3757,74.0,22.0,210.0,0.0,0.0
3758,86.0,218.0,120.0,0.0,0.0
3759,44.0,218.0,240.0,2.0,0.0
3760,52.0,0.0,240.0,2.0,0.0
3761,71.0,22.0,210.0,0.0,0.0
3762,83.0,0.0,120.0,0.0,0.0
3763,45.0,0.0,240.0,2.0,0.0
3764,52.0,0.0,240.0,2.0,0.0
3765,72.0,22.0,210.0,0.0,0.0
3766,84.0,218.0,120.0,0.0,0.0
3767,72.0,22.0,210.0,0.0,0.0
3768,48.0,218.0,240.0,2.0,0.0
3769,84.0,0.0,120.0,0.0,0.0
3770,76.0,22.0,210.0,0.0,0.0
3771,45.0,218.0,240.0,2.0,0.0
3772,88.0,0.0,120.0,0.0,0.0
3773,44.0,218.0,240.0,2.0,0.0
3774,76.0,22.0,210.0,0.0,0.0
3775,88.0,0.0,120.0,0.0,0.0
3776,47.0,0.0,240.0,2.0,0.0
3777,76.0,22.0,210.0,0.0,0.0
3778,88.0,218.0,120.0,0.0,0.0
3779,52.0,0.0,240.0,2.0,0.0
3780,74.0,22.0,210.0,0.0,0.0
3781,86.0,218.0,120.0,0.0,0.0
3782,52.0,0.0,240.0,2.0,0.0
3783,72.0,22.0,210.0,0.0,0.0
3784,84.0,218.0,120.0,0.0,0.0
3785,72.0,22.0,210.0,0.0,0.0
3786,48.0,0.0,240.0,2.0,0.0
3787,84.0,218.0,120.0,0.0,0.0
3788,45.0,0.0,240.0,2.0,0.0
3789,76.0,22.0,210.0,0.0,0.0
3790,88.0,218.0,120.0,0.0,0.0
3791,42.0,0.0,240.0,2.0,0.0
3792,76.0,22.0,210.0,0.0,0.0
3793,88.0,218.0,120.0,0.0,0.0
3794,74.0,22.0,210.0,0.0,0.0
3795,45.0,218.0,240.0,2.0,0.0
3796,86.0,0.0,120.0,0.0,0.0
3797,42.0,0.0,240.0,2.0,0.0
3798,72.0,22.0,210.0,0.0,0.0
3799,84.0,0.0,120.0,0.0,0.0
3800,50.0,218.0,15.0,2.0,0.0
3801,71.0,22.0,210.0,0.0,0.0
3802,43.0,0.0,240.0,2.0,0.0
3803,83.0,218.0,120.0,0.0,0.0
3804,47.0,0.0,240.0,2.0,0.0
3805,74.0,22.0,210.0,0.0,0.0
3806,86.0,218.0,120.0,0.0,0.0
3807,43.0,0.0,240.0,2.0,0.0
3808,79.0,22.0,210.0,0.0,0.0
3809,91.0,218.0,120.0,0.0,0.0
3810,36.0,0.0,240.0,2.0,0.0
3811,40.0,218.0,240.0,2.0,0.0
3812,79.0,22.0,210.0,0.0,0.0
3813,91.0,0.0,120.0,0.0,0.0
3814,45.0,0.0,240.0,2.0,0.0
3815,76.0,22.0,210.0,0.0,0.0
3816,88.0,218.0,120.0,0.0,0.0
3817,48.0,218.0,240.0,2.0,0.0
3818,72.0,22.0,210.0,0.0,0.0
3819,84.0,0.0,120.0,0.0,0.0
3820,38.0,218.0,240.0,2.0,0.0
3821,79.0,22.0,210.0,0.0,0.0
3822,91.0,0.0,120.0,0.0,0.0
3823,43.0,218.0,240.0,2.0,0.0
3824,74.0,22.0,210.0,0.0,0.0
3825,86.0,0.0,120.0,0.0,0.0
3826,71.0,22.0,210.0,0.0,0.0
3827,47.0,218.0,240.0,2.0,0.0
3828,83.0,0.0,120.0,0.0,0.0
3829,74.0,22.0,210.0,0.0,0.0
3830,38.0,218.0,240.0,2.0,0.0
3831,86.0,0.0,120.0,0.0,0.0
3832,72.0,22.0,210.0,0.0,0.0
3833,45.0,218.0,240.0,2.0,0.0
3834,84.0,0.0,120.0,0.0,0.0
3835,50.0,0.0,240.0,2.0,0.0
3836,69.0,22.0,210.0,0.0,0.0
3837,81.0,218.0,120.0,0.0,0.0
3838,59.0,120.0,210.0,0.0,0.0
3839,43.0,80.0,5190.0,2.0,0.0
3840,67.0,120.0,210.0,0.0,0.0
3841,59.0,0.0,240.0,2.0,0.0
3842,55.0,98.0,240.0,2.0,0.0
3843,62.0,22.0,210.0,0.0,0.0
3844,71.0,120.0,210.0,0.0,0.0
3845,67.0,22.0,210.0,0.0,0.0
3846,74.0,120.0,210.0,0.0,0.0
3847,59.0,0.0,15.0,2.0,0.0
3848,62.0,0.0,15.0,2.0,0.0
3849,55.0,98.0,15.0,2.0,0.0
3850,71.0,22.0,210.0,0.0,0.0
3851,79.0,120.0,210.0,0.0,0.0
3852,67.0,0.0,15.0,2.0,0.0
3853,62.0,0.0,240.0,2.0,0.0
3854,55.0,0.0,240.0,2.0,0.0
3855,59.0,98.0,15.0,2.0,0.0
3856,74.0,22.0,210.0,0.0,0.0
3857,83.0,120.0,210.0,0.0,0.0
3858,59.0,0.0,240.0,2.0,0.0
3859,67.0,98.0,15.0,2.0,0.0
3860,79.0,22.0,210.0,0.0,0.0
3861,86.0,120.0,210.0,0.0,0.0
3862,67.0,0.0,15.0,2.0,0.0
3863,55.0,0.0,15.0,2.0,0.0
3864,62.0,98.0,15.0,2.0,0.0
3865,83.0,22.0,210.0,0.0,0.0
3866,59.0,0.0,240.0,2.0,0.0
3867,91.0,120.0,210.0,0.0,0.0
3868,62.0,98.0,15.0,2.0,0.0
3869,86.0,22.0,210.0,0.0,0.0
3870,95.0,120.0,210.0,0.0,0.0
3871,67.0,98.0,15.0,2.0,0.0
3872,62.0,0.0,15.0,2.0,0.0
3873,59.0,0.0,15.0,2.0,0.0
3874,55.0,0.0,15.0,2.0,0.0
3875,91.0,22.0,210.0,0.0,0.0
3876,98.0,108.0,120.0,0.0,0.0
3877,97.0,122.0,120.0,0.0,0.0
3878,98.0,120.0,120.0,0.0,0.0
3879,66.0,0.0,15.0,2.0,0.0
3880,55.0,0.0,15.0,2.0,0.0
3881,57.0,0.0,15.0,2.0,0.0
3882,62.0,0.0,15.0,2.0,0.0
3883,60.0,0.0,15.0,2.0,0.0
3884,97.0,120.0,120.0,0.0,0.0
3885,98.0,120.0,120.0,0.0,0.0
3886,62.0,0.0,15.0,2.0,0.0
3887,57.0,0.0,240.0,2.0,0.0
3888,55.0,0.0,240.0,2.0,0.0
3889,97.0,120.0,120.0,0.0,0.0
3890,60.0,0.0,240.0,2.0,0.0
3891,66.0,0.0,240.0,2.0,0.0
3892,98.0,120.0,120.0,0.0,0.0
3893,62.0,0.0,15.0,2.0,0.0
3894,100.0,120.0,120.0,0.0,0.0
3895,98.0,0.0,120.0,0.0,0.0
3896,67.0,0.0,15.0,2.0,0.0
3897,62.0,0.0,15.0,2.0,0.0
3898,59.0,120.0,15.0,2.0,0.0
3899,55.0,0.0,15.0,2.0,0.0
3900,96.0,120.0,120.0,0.0,0.0
3901,95.0,0.0,120.0,0.0,0.0
3902,93.0,120.0,120.0,0.0,0.0
3903,59.0,120.0,15.0,2.0,0.0
3904,91.0,0.0,120.0,0.0,0.0
3905,62.0,0.0,15.0,2.0,0.0
3906,59.0,120.0,15.0,2.0,0.0
3907,67.0,0.0,15.0,2.0,0.0
3908,55.0,0.0,15.0,2.0,0.0
3909,90.0,120.0,120.0,0.0,0.0
3910,88.0,0.0,120.0,0.0,0.0
3911,86.0,120.0,120.0,0.0,0.0
3912,55.0,0.0,15.0,2.0,0.0
3913,59.0,0.0,240.0,2.0,0.0
3914,62.0,120.0,15.0,2.0,0.0
3915,67.0,0.0,240.0,2.0,0.0
3916,84.0,0.0,120.0,0.0,0.0
3917,83.0,120.0,120.0,0.0,0.0
3918,67.0,0.0,240.0,2.0,0.0
3919,55.0,0.0,240.0,2.0,0.0
3920,81.0,0.0,120.0,0.0,0.0
3921,79.0,120.0,120.0,0.0,0.0
3922,62.0,120.0,15.0,2.0,0.0
3923,59.0,0.0,15.0,2.0,0.0
3924,67.0,0.0,240.0,2.0,0.0
3925,55.0,120.0,240.0,2.0,0.0
3926,78.0,0.0,120.0,0.0,0.0
3927,76.0,120.0,120.0,0.0,0.0
3928,67.0,0.0,240.0,2.0,0.0
3929,62.0,0.0,240.0,2.0,0.0
3930,59.0,0.0,240.0,2.0,0.0
3931,74.0,0.0,120.0,0.0,0.0
3932,72.0,120.0,120.0,0.0,0.0
3933,59.0,0.0,240.0,2.0,0.0
3934,62.0,0.0,240.0,2.0,0.0
3935,55.0,120.0,15.0,2.0,0.0
3936,67.0,120.0,240.0,2.0,0.0
3937,71.0,0.0,120.0,0.0,0.0
3938,55.0,0.0,240.0,2.0,0.0
3939,62.0,0.0,240.0,2.0,0.0
3940,57.0,0.0,240.0,2.0,0.0
3941,69.0,40.0,120.0,0.0,0.0
3942,60.0,0.0,240.0,2.0,0.0
3943,66.0,120.0,120.0,0.0,0.0
3944,57.0,0.0,240.0,2.0,0.0
3945,60.0,0.0,240.0,2.0,0.0
3946,62.0,120.0,120.0,0.0,0.0
3947,66.0,0.0,120.0,0.0,0.0
3948,72.0,120.0,120.0,0.0,0.0
3949,60.0,216.0,240.0,2.0,0.0
3950,57.0,0.0,240.0,2.0,0.0
3951,62.0,0.0,15.0,2.0,0.0
3952,55.0,120.0,15.0,2.0,0.0
3953,66.0,0.0,120.0,0.0,0.0
3954,43.0,80.0,5190.0,2.0,0.0
3955,59.0,120.0,210.0,0.0,0.0
3956,67.0,120.0,210.0,0.0,0.0
3957,62.0,24.0,210.0,0.0,0.0
3958,55.0,0.0,240.0,2.0,0.0
3959,71.0,120.0,210.0,0.0,0.0
3960,59.0,96.0,15.0,2.0,0.0
3961,62.0,0.0,240.0,2.0,0.0
3962,67.0,24.0,210.0,0.0,0.0
3963,74.0,120.0,210.0,0.0,0.0
3964,55.0,96.0,15.0,2.0,0.0
3965,71.0,24.0,210.0,0.0,0.0
3966,67.0,0.0,240.0,2.0,0.0
3967,79.0,120.0,210.0,0.0,0.0
3968,55.0,0.0,240.0,2.0,0.0
3969,59.0,0.0,15.0,2.0,0.0
3970,67.0,0.0,240.0,2.0,0.0
3971,62.0,96.0,15.0,2.0,0.0
3972,74.0,24.0,210.0,0.0,0.0
3973,83.0,120.0,210.0,0.0,0.0
3974,55.0,0.0,240.0,2.0,0.0
3975,59.0,0.0,240.0,2.0,0.0
3976,79.0,24.0,210.0,0.0,0.0
3977,86.0,120.0,210.0,0.0,0.0
3978,55.0,0.0,240.0,2.0,0.0
3979,67.0,96.0,15.0,2.0,0.0
3980,62.0,0.0,15.0,2.0,0.0
3981,83.0,24.0,210.0,0.0,0.0
3982,91.0,120.0,210.0,0.0,0.0
3983,55.0,0.0,240.0,2.0,0.0
3984,59.0,96.0,15.0,2.0,0.0
3985,86.0,24.0,210.0,0.0,0.0
3986,95.0,120.0,210.0,0.0,0.0
3987,91.0,24.0,210.0,0.0,0.0
3988,59.0,96.0,15.0,2.0,0.0
3989,62.0,0.0,15.0,2.0,0.0
3990,67.0,0.0,15.0,2.0,0.0
3991,98.0,120.0,120.0,0.0,0.0
3992,55.0,0.0,15.0,2.0,0.0
3993,97.0,120.0,120.0,0.0,0.0
3994,62.0,0.0,240.0,2.0,0.0
3995,98.0,0.0,120.0,0.0,0.0
3996,66.0,0.0,15.0,2.0,0.0
3997,60.0,120.0,15.0,2.0,0.0
3998,57.0,0.0,15.0,2.0,0.0
3999,55.0,0.0,15.0,2.0,0.0
4000,62.0,0.0,240.0,2.0,0.0
4001,97.0,120.0,120.0,0.0,0.0
4002,98.0,0.0,120.0,0.0,0.0
4003,97.0,120.0,120.0,0.0,0.0
4004,66.0,120.0,15.0,2.0,0.0
4005,55.0,0.0,240.0,2.0,0.0
4006,57.0,120.0,240.0,2.0,0.0
4007,60.0,0.0,15.0,2.0,0.0
4008,98.0,0.0,120.0,0.0,0.0
4009,100.0,120.0,120.0,0.0,0.0
4010,62.0,0.0,15.0,2.0,0.0
4011,98.0,0.0,120.0,0.0,0.0
4012,96.0,120.0,120.0,0.0,0.0
4013,59.0,0.0,15.0,2.0,0.0
4014,67.0,0.0,15.0,2.0,0.0
4015,55.0,120.0,15.0,2.0,0.0
4016,95.0,120.0,120.0,0.0,0.0
4017,62.0,0.0,15.0,2.0,0.0
4018,67.0,0.0,15.0,2.0,0.0
4019,59.0,0.0,240.0,2.0,0.0
4020,93.0,120.0,120.0,0.0,0.0
4021,55.0,0.0,240.0,2.0,0.0
4022,91.0,0.0,120.0,0.0,0.0
4023,55.0,0.0,240.0,2.0,0.0
4024,62.0,120.0,15.0,2.0,0.0
4025,90.0,120.0,120.0,0.0,0.0
4026,88.0,0.0,120.0,0.0,0.0
4027,59.0,0.0,15.0,2.0,0.0
4028,86.0,120.0,120.0,0.0,0.0
4029,62.0,0.0,15.0,2.0,0.0
4030,67.0,120.0,15.0,2.0,0.0
4031,84.0,0.0,120.0,0.0,0.0
4032,83.0,120.0,120.0,0.0,0.0
4033,59.0,120.0,15.0,2.0,0.0
4034,62.0,0.0,15.0,2.0,0.0
4035,55.0,0.0,15.0,2.0,0.0
4036,67.0,0.0,15.0,2.0,0.0
4037,81.0,80.0,120.0,0.0,0.0
4038,55.0,0.0,15.0,2.0,0.0
4039,62.0,0.0,15.0,2.0,0.0
4040,79.0,80.0,90.0,0.0,0.0
4041,78.0,80.0,90.0,0.0,0.0
4042,76.0,0.0,90.0,0.0,0.0
4043,74.0,80.0,90.0,0.0,0.0
4044,59.0,0.0,15.0,2.0,0.0
4045,62.0,0.0,15.0,2.0,0.0
4046,72.0,80.0,90.0,0.0,0.0
4047,71.0,80.0,90.0,0.0,0.0
4048,62.0,0.0,15.0,2.0,0.0
4049,55.0,0.0,15.0,2.0,0.0
4050,59.0,0.0,15.0,2.0,0.0
4051,69.0,80.0,90.0,0.0,0.0
4052,67.0,80.0,90.0,0.0,0.0
4053,66.0,0.0,90.0,0.0,0.0
4054,64.0,40.0,120.0,0.0,0.0
4055,57.0,0.0,240.0,2.0,0.0
4056,62.0,0.0,120.0,0.0,0.0
4057,61.0,120.0,120.0,0.0,0.0
4058,55.0,120.0,15.0,2.0,0.0
4059,57.0,0.0,240.0,2.0,0.0
4060,45.0,120.0,240.0,2.0,0.0
4061,64.0,0.0,120.0,0.0,0.0
4062,67.0,120.0,120.0,0.0,0.0
4063,55.0,0.0,240.0,2.0,0.0
4064,45.0,0.0,240.0,2.0,0.0
4065,57.0,0.0,240.0,2.0,0.0
4066,61.0,480.0,120.0,0.0,0.0
4067,38.0,0.0,480.0,2.0,0.0
4068,50.0,720.0,480.0,2.0,0.0
4069,62.0,0.0,480.0,0.0,0.0
4070,74.0,0.0,480.0,0.0,0.0
4071,62.0,720.0,480.0,2.0,0.0
4072,77.0,0.0,480.0,0.0,0.0
4073,65.0,720.0,480.0,2.0,0.0
4074,70.0,0.0,480.0,2.0,0.0
4075,82.0,720.0,480.0,0.0,0.0
4076,65.0,720.0,480.0,2.0,0.0
4077,77.0,0.0,480.0,0.0,0.0
4078,62.0,720.0,480.0,2.0,0.0
4079,74.0,0.0,480.0,0.0,0.0
4080,58.0,0.0,480.0,2.0,0.0
4081,70.0,720.0,480.0,0.0,0.0
4082,53.0,720.0,480.0,2.0,0.0
4083,65.0,0.0,480.0,0.0,0.0
4084,61.0,0.0,480.0,0.0,0.0
4085,49.0,0.0,480.0,2.0,0.0
4086,37.0,720.0,480.0,2.0,0.0
4087,61.0,720.0,480.0,2.0,0.0
4088,73.0,0.0,480.0,0.0,0.0
4089,76.0,720.0,480.0,0.0,0.0
4090,64.0,0.0,480.0,2.0,0.0
4091,69.0,720.0,480.0,2.0,0.0
4092,81.0,0.0,480.0,0.0,0.0
4093,64.0,720.0,480.0,2.0,0.0
4094,76.0,0.0,480.0,0.0,0.0
4095,73.0,0.0,480.0,0.0,0.0
4096,61.0,720.0,480.0,2.0,0.0
4097,69.0,0.0,480.0,0.0,0.0
4098,57.0,720.0,480.0,2.0,0.0
4099,64.0,0.0,480.0,0.0,0.0
4100,52.0,480.0,480.0,2.0,0.0
4101,77.0,240.0,240.0,0.0,0.0
4102,70.0,0.0,240.0,2.0,0.0
4103,65.0,0.0,240.0,2.0,0.0
4104,62.0,0.0,240.0,2.0,0.0
4105,88.0,0.0,60.0,0.0,0.0
4106,70.0,120.0,15.0,2.0,0.0
4107,62.0,0.0,15.0,2.0,0.0
4108,65.0,0.0,15.0,2.0,0.0
4109,86.0,120.0,120.0,0.0,0.0
4110,85.0,0.0,120.0,0.0,0.0
4111,86.0,60.0,180.0,0.0,0.0
4112,70.0,180.0,15.0,2.0,0.0
4113,62.0,0.0,15.0,2.0,0.0
4114,65.0,0.0,15.0,2.0,0.0
4115,62.0,0.0,240.0,2.0,0.0
4116,65.0,0.0,240.0,2.0,0.0
4117,70.0,120.0,240.0,2.0,0.0
4118,91.0,0.0,60.0,0.0,0.0
4119,89.0,120.0,120.0,0.0,0.0
4120,62.0,0.0,240.0,2.0,0.0
4121,70.0,0.0,240.0,2.0,0.0
4122,65.0,0.0,240.0,2.0,0.0
4123,88.0,180.0,120.0,0.0,0.0
4124,70.0,0.0,240.0,2.0,0.0
4125,89.0,60.0,180.0,0.0,0.0
4126,62.0,0.0,15.0,2.0,0.0
4127,70.0,0.0,240.0,2.0,0.0
4128,65.0,240.0,15.0,2.0,0.0
4129,96.0,0.0,60.0,0.0,0.0
4130,94.0,120.0,120.0,0.0,0.0
4131,62.0,120.0,15.0,2.0,0.0
4132,93.0,180.0,120.0,0.0,0.0
4133,70.0,0.0,15.0,2.0,0.0
4134,65.0,0.0,15.0,2.0,0.0
4135,62.0,0.0,240.0,2.0,0.0
4136,94.0,60.0,180.0,0.0,0.0
4137,65.0,240.0,15.0,2.0,0.0
4138,70.0,0.0,15.0,2.0,0.0
4139,91.0,0.0,60.0,0.0,0.0
4140,89.0,120.0,120.0,0.0,0.0
4141,65.0,0.0,15.0,2.0,0.0
4142,62.0,120.0,15.0,2.0,0.0
4143,70.0,0.0,240.0,2.0,0.0
4144,88.0,180.0,120.0,0.0,0.0
4145,62.0,240.0,240.0,2.0,0.0
4146,65.0,0.0,240.0,2.0,0.0
4147,70.0,0.0,240.0,2.0,0.0
4148,89.0,60.0,180.0,0.0,0.0
4149,88.0,0.0,60.0,0.0,0.0
4150,65.0,0.0,15.0,2.0,0.0
4151,70.0,0.0,15.0,2.0,0.0
4152,62.0,120.0,15.0,2.0,0.0
4153,86.0,120.0,120.0,0.0,0.0
4154,85.0,180.0,120.0,0.0,0.0
4155,62.0,0.0,240.0,2.0,0.0
4156,70.0,0.0,240.0,2.0,0.0
4157,86.0,60.0,180.0,0.0,0.0
4158,65.0,240.0,15.0,2.0,0.0
4159,70.0,0.0,240.0,2.0,0.0
4160,84.0,0.0,60.0,0.0,0.0
4161,82.0,120.0,120.0,0.0,0.0
4162,62.0,0.0,15.0,2.0,0.0
4163,70.0,0.0,240.0,2.0,0.0
4164,65.0,0.0,240.0,2.0,0.0
4165,81.0,0.0,120.0,0.0,0.0
4166,82.0,60.0,180.0,0.0,0.0
4167,62.0,0.0,240.0,2.0,0.0
4168,70.0,0.0,240.0,2.0,0.0
4169,70.0,0.0,240.0,2.0,0.0
4170,62.0,0.0,240.0,2.0,0.0
4171,65.0,240.0,15.0,2.0,0.0
4172,79.0,120.0,60.0,0.0,0.0
4173,77.0,120.0,120.0,0.0,0.0
4174,70.0,0.0,240.0,2.0,0.0
4175,65.0,0.0,240.0,2.0,0.0
4176,76.0,240.0,120.0,0.0,0.0
4177,62.0,0.0,15.0,2.0,0.0
4178,65.0,240.0,240.0,2.0,0.0
4179,77.0,0.0,480.0,0.0,0.0
4180,62.0,0.0,15.0,2.0,0.0
4181,70.0,0.0,15.0,2.0,0.0
4182,65.0,0.0,240.0,2.0,0.0
4183,65.0,0.0,240.0,2.0,0.0
4184,68.0,240.0,240.0,2.0,0.0
4185,62.0,0.0,240.0,2.0,0.0
4186,76.0,0.0,240.0,0.0,0.0
4187,69.0,240.0,15.0,2.0,0.0
4188,64.0,0.0,15.0,2.0,0.0
4189,61.0,0.0,15.0,2.0,0.0
4190,86.0,0.0,60.0,0.0,0.0
4191,85.0,120.0,120.0,0.0,0.0
4192,61.0,120.0,15.0,2.0,0.0
4193,83.0,180.0,120.0,0.0,0.0
4194,69.0,0.0,15.0,2.0,0.0
4195,64.0,0.0,15.0,2.0,0.0
4196,61.0,0.0,15.0,2.0,0.0
4197,85.0,60.0,180.0,0.0,0.0
4198,61.0,0.0,240.0,2.0,0.0
4199,69.0,0.0,240.0,2.0,0.0
4200,64.0,0.0,240.0,2.0,0.0
4201,89.0,120.0,60.0,0.0,0.0
4202,64.0,0.0,240.0,2.0,0.0
4203,88.0,120.0,120.0,0.0,0.0
4204,61.0,180.0,240.0,2.0,0.0
4205,87.0,0.0,120.0,0.0,0.0
4206,88.0,60.0,180.0,0.0,0.0
4207,69.0,0.0,15.0,2.0,0.0
4208,61.0,240.0,240.0,2.0,0.0
4209,64.0,0.0,240.0,2.0,0.0
4210,69.0,0.0,15.0,2.0,0.0
4211,64.0,0.0,240.0,2.0,0.0
4212,61.0,0.0,240.0,2.0,0.0
4213,94.0,0.0,60.0,0.0,0.0
4214,93.0,120.0,120.0,0.0,0.0
4215,69.0,120.0,15.0,2.0,0.0
4216,61.0,0.0,240.0,2.0,0.0
4217,92.0,0.0,120.0,0.0,0.0
4218,93.0,60.0,180.0,0.0,0.0
4219,69.0,180.0,15.0,2.0,0.0
4220,64.0,0.0,15.0,2.0,0.0
4221,61.0,240.0,240.0,2.0,0.0
4222,69.0,0.0,15.0,2.0,0.0
4223,61.0,0.0,240.0,2.0,0.0
4224,64.0,120.0,240.0,2.0,0.0
4225,89.0,0.0,60.0,0.0,0.0
4226,88.0,120.0,120.0,0.0,0.0
4227,64.0,180.0,240.0,2.0,0.0
4228,69.0,0.0,240.0,2.0,0.0
4229,87.0,0.0,120.0,0.0,0.0
4230,61.0,0.0,15.0,2.0,0.0
4231,88.0,60.0,180.0,0.0,0.0
4232,69.0,0.0,240.0,2.0,0.0
4233,64.0,0.0,240.0,2.0,0.0
4234,64.0,0.0,240.0,2.0,0.0
4235,69.0,0.0,240.0,2.0,0.0
4236,86.0,0.0,60.0,0.0,0.0
4237,61.0,120.0,15.0,2.0,0.0
4238,69.0,0.0,240.0,2.0,0.0
4239,85.0,120.0,120.0,0.0,0.0
4240,83.0,0.0,120.0,0.0,0.0
4241,64.0,0.0,15.0,2.0,0.0
4242,85.0,60.0,180.0,0.0,0.0
4243,61.0,180.0,15.0,2.0,0.0
4244,69.0,240.0,15.0,2.0,0.0
4245,64.0,0.0,15.0,2.0,0.0
4246,61.0,0.0,240.0,2.0,0.0
4247,82.0,120.0,60.0,0.0,0.0
4248,64.0,0.0,240.0,2.0,0.0
4249,69.0,0.0,15.0,2.0,0.0
4250,81.0,120.0,120.0,0.0,0.0
4251,80.0,0.0,120.0,0.0,0.0
4252,81.0,60.0,180.0,0.0,0.0
4253,61.0,180.0,15.0,2.0,0.0
4254,69.0,0.0,15.0,2.0,0.0
4255,64.0,0.0,15.0,2.0,0.0
4256,61.0,240.0,15.0,2.0,0.0
4257,77.0,0.0,60.0,0.0,0.0
4258,61.0,120.0,15.0,2.0,0.0
4259,69.0,0.0,15.0,2.0,0.0
4260,64.0,0.0,15.0,2.0,0.0
4261,76.0,120.0,120.0,0.0,0.0
4262,75.0,0.0,120.0,0.0,0.0
4263,64.0,0.0,15.0,2.0,0.0
4264,76.0,60.0,180.0,0.0,0.0
4265,61.0,0.0,240.0,2.0,0.0
4266,69.0,180.0,15.0,2.0,0.0
4267,57.0,240.0,240.0,2.0,0.0
4268,77.0,0.0,240.0,0.0,0.0
4269,55.0,120.0,240.0,2.0,0.0
4270,78.0,0.0,720.0,0.0,0.0
4271,69.0,120.0,120.0,1.0,0.0
4272,54.0,120.0,480.0,2.0,0.0
4273,50.0,0.0,1440.0,2.0,0.0
4274,71.0,120.0,120.0,1.0,0.0
4275,69.0,120.0,120.0,1.0,0.0
4276,71.0,0.0,120.0,1.0,0.0
4277,69.0,120.0,120.0,1.0,0.0
4278,59.0,120.0,240.0,2.0,0.0
4279,71.0,0.0,120.0,1.0,0.0
4280,57.0,0.0,480.0,2.0,0.0
4281,74.0,0.0,720.0,0.0,0.0
4282,69.0,120.0,120.0,1.0,0.0
4283,71.0,120.0,120.0,1.0,0.0
4284,69.0,120.0,120.0,1.0,0.0
4285,71.0,120.0,120.0,1.0,0.0
4286,54.0,0.0,240.0,2.0,0.0
4287,69.0,120.0,120.0,1.0,0.0
4288,71.0,120.0,120.0,1.0,0.0
4289,52.0,120.0,480.0,2.0,0.0
4290,69.0,120.0,120.0,1.0,0.0
4291,73.0,0.0,720.0,0.0,0.0
4292,45.0,0.0,1440.0,2.0,0.0
4293,71.0,120.0,120.0,1.0,0.0
4294,69.0,120.0,120.0,1.0,0.0
4295,71.0,0.0,120.0,1.0,0.0
4296,69.0,120.0,120.0,1.0,0.0
4297,59.0,120.0,240.0,2.0,0.0
4298,71.0,0.0,120.0,1.0,0.0
4299,69.0,120.0,120.0,1.0,0.0
4300,79.0,0.0,720.0,0.0,0.0
4301,57.0,0.0,480.0,2.0,0.0
4302,71.0,120.0,120.0,1.0,0.0
4303,69.0,120.0,120.0,1.0,0.0
4304,71.0,120.0,120.0,1.0,0.0
4305,52.0,0.0,240.0,2.0,0.0
4306,69.0,120.0,120.0,1.0,0.0
4307,71.0,120.0,120.0,1.0,0.0
4308,78.0,0.0,720.0,0.0,0.0
4309,50.0,0.0,1440.0,2.0,0.0
4310,69.0,120.0,120.0,1.0,0.0
4311,54.0,0.0,480.0,2.0,0.0
4312,71.0,120.0,120.0,1.0,0.0
4313,69.0,120.0,120.0,1.0,0.0
4314,71.0,120.0,120.0,1.0,0.0
4315,59.0,120.0,240.0,2.0,0.0
4316,69.0,120.0,120.0,1.0,0.0
4317,71.0,0.0,120.0,1.0,0.0
4318,74.0,0.0,720.0,0.0,0.0
4319,57.0,120.0,480.0,2.0,0.0
4320,69.0,120.0,120.0,1.0,0.0
4321,71.0,120.0,120.0,1.0,0.0
4322,69.0,120.0,120.0,1.0,0.0
4323,71.0,0.0,120.0,1.0,0.0
4324,69.0,120.0,120.0,1.0,0.0
4325,54.0,0.0,240.0,2.0,0.0
4326,71.0,120.0,120.0,1.0,0.0
4327,45.0,0.0,1440.0,2.0,0.0
4328,69.0,120.0,120.0,1.0,0.0
4329,73.0,0.0,720.0,0.0,0.0
4330,52.0,120.0,480.0,2.0,0.0
4331,71.0,120.0,120.0,1.0,0.0
4332,69.0,120.0,120.0,1.0,0.0
4333,71.0,0.0,120.0,1.0,0.0
4334,69.0,120.0,120.0,1.0,0.0
4335,59.0,120.0,240.0,2.0,0.0
4336,71.0,0.0,120.0,1.0,0.0
4337,69.0,120.0,120.0,1.0,0.0
4338,79.0,120.0,720.0,0.0,0.0
4339,57.0,0.0,480.0,2.0,0.0
4340,71.0,120.0,120.0,1.0,0.0
4341,69.0,120.0,120.0,1.0,0.0
4342,71.0,120.0,120.0,1.0,0.0
4343,69.0,120.0,120.0,1.0,0.0
4344,52.0,0.0,240.0,2.0,0.0
4345,71.0,0.0,120.0,1.0,0.0
4346,78.0,120.0,120.0,0.0,0.0
4347,50.0,0.0,240.0,2.0,0.0
4348,81.0,0.0,120.0,0.0,0.0
4349,54.0,80.0,15.0,2.0,0.0
4350,83.0,80.0,90.0,0.0,0.0
4351,57.0,0.0,240.0,2.0,0.0
4352,62.0,0.0,240.0,2.0,0.0
4353,85.0,80.0,90.0,0.0,0.0
4354,86.0,80.0,90.0,0.0,0.0
4355,88.0,80.0,90.0,0.0,0.0
4356,62.0,0.0,240.0,2.0,0.0
4357,90.0,80.0,90.0,0.0,0.0
4358,91.0,0.0,90.0,0.0,0.0
4359,57.0,120.0,15.0,2.0,0.0
4360,54.0,0.0,15.0,2.0,0.0
4361,93.0,120.0,120.0,0.0,0.0
4362,91.0,120.0,120.0,0.0,0.0
4363,57.0,0.0,15.0,2.0,0.0
4364,62.0,0.0,15.0,2.0,0.0
4365,90.0,120.0,120.0,0.0,0.0
4366,88.0,0.0,120.0,0.0,0.0
4367,54.0,0.0,15.0,2.0,0.0
4368,86.0,120.0,120.0,0.0,0.0
4369,57.0,120.0,240.0,2.0,0.0
4370,62.0,0.0,240.0,2.0,0.0
4371,85.0,0.0,120.0,0.0,0.0
4372,83.0,120.0,120.0,0.0,0.0
4373,85.0,120.0,120.0,0.0,0.0
4374,86.0,120.0,120.0,0.0,0.0
4375,88.0,0.0,120.0,0.0,0.0
4376,90.0,80.0,90.0,0.0,0.0
4377,59.0,80.0,15.0,2.0,0.0
4378,55.0,0.0,15.0,2.0,0.0
4379,62.0,0.0,15.0,2.0,0.0
4380,91.0,80.0,90.0,0.0,0.0
4381,93.0,0.0,90.0,0.0,0.0
4382,95.0,120.0,120.0,0.0,0.0
4383,62.0,0.0,240.0,2.0,0.0
4384,59.0,0.0,240.0,2.0,0.0
4385,93.0,0.0,120.0,0.0,0.0
4386,91.0,80.0,90.0,0.0,0.0
4387,59.0,0.0,240.0,2.0,0.0
4388,55.0,80.0,15.0,2.0,0.0
4389,62.0,0.0,240.0,2.0,0.0
4390,90.0,80.0,90.0,0.0,0.0
4391,88.0,80.0,90.0,0.0,0.0
4392,86.0,80.0,90.0,0.0,0.0
4393,55.0,120.0,240.0,2.0,0.0
4394,64.0,0.0,240.0,2.0,0.0
4395,59.0,0.0,240.0,2.0,0.0
4396,85.0,80.0,90.0,0.0,0.0
4397,83.0,0.0,90.0,0.0,0.0
4398,81.0,120.0,120.0,0.0,0.0
4399,90.0,120.0,120.0,0.0,0.0
4400,62.0,0.0,240.0,2.0,0.0
4401,86.0,120.0,120.0,0.0,0.0
4402,93.0,0.0,120.0,0.0,0.0
4403,66.0,0.0,15.0,2.0,0.0
4404,90.0,120.0,120.0,0.0,0.0
4405,57.0,120.0,15.0,2.0,0.0
4406,62.0,0.0,240.0,2.0,0.0
4407,98.0,80.0,120.0,0.0,0.0
4408,93.0,80.0,90.0,0.0,0.0
4409,57.0,0.0,15.0,2.0,0.0
4410,66.0,0.0,15.0,2.0,0.0
4411,62.0,0.0,240.0,2.0,0.0
4412,102.0,80.0,90.0,0.0,0.0
4413,98.0,80.0,90.0,0.0,0.0
4414,57.0,0.0,240.0,2.0,0.0
4415,105.0,80.0,90.0,0.0,0.0
4416,66.0,0.0,240.0,2.0,0.0
4417,62.0,0.0,240.0,2.0,0.0
4418,102.0,80.0,90.0,0.0,0.0
4419,98.0,80.0,90.0,0.0,0.0
4420,57.0,0.0,240.0,2.0,0.0
4421,93.0,80.0,90.0,0.0,0.0
4422,90.0,80.0,90.0,0.0,0.0
4423,86.0,0.0,90.0,0.0,0.0
4424,81.0,160.0,330.0,0.0,0.0
4425,62.0,240.0,15.0,2.0,0.0
4426,66.0,0.0,15.0,2.0,0.0
4427,57.0,0.0,240.0,2.0,0.0
4428,62.0,80.0,15.0,2.0,0.0
4429,66.0,0.0,15.0,2.0,0.0
4430,57.0,0.0,240.0,2.0,0.0
4431,66.0,240.0,15.0,2.0,0.0
4432,62.0,0.0,240.0,2.0,0.0
4433,88.0,83.0,150.0,0.0,0.0
4434,61.0,75.0,240.0,2.0,0.0
4435,57.0,142.0,15.0,2.0,0.0
4436,67.0,0.0,240.0,2.0,0.0
4437,90.0,15.0,150.0,0.0,0.0
4438,88.0,60.0,150.0,0.0,0.0
4439,90.0,82.0,120.0,0.0,0.0
4440,67.0,0.0,240.0,2.0,0.0
4441,57.0,0.0,240.0,2.0,0.0
4442,61.0,60.0,240.0,2.0,0.0
4443,88.0,23.0,150.0,0.0,0.0
4444,90.0,75.0,150.0,0.0,0.0
4445,88.0,82.0,120.0,0.0,0.0
4446,61.0,0.0,240.0,2.0,0.0
4447,57.0,120.0,240.0,2.0,0.0
4448,67.0,0.0,240.0,2.0,0.0
4449,86.0,23.0,150.0,0.0,0.0
4450,88.0,0.0,90.0,0.0,0.0
4451,66.0,0.0,480.0,2.0,0.0
4452,62.0,0.0,1440.0,2.0,0.0
4453,90.0,0.0,720.0,0.0,0.0
4454,81.0,120.0,120.0,1.0,0.0
4455,83.0,120.0,120.0,1.0,0.0
4456,81.0,120.0,120.0,1.0,0.0
4457,83.0,120.0,120.0,1.0,0.0
4458,71.0,120.0,240.0,2.0,0.0
4459,81.0,120.0,120.0,1.0,0.0
4460,83.0,0.0,120.0,1.0,0.0
4461,86.0,120.0,720.0,0.0,0.0
4462,81.0,120.0,120.0,1.0,0.0
4463,69.0,120.0,480.0,2.0,0.0
4464,83.0,120.0,120.0,1.0,0.0
4465,81.0,120.0,120.0,1.0,0.0
4466,83.0,0.0,120.0,1.0,0.0
4467,81.0,120.0,120.0,1.0,0.0
4468,66.0,0.0,240.0,2.0,0.0
4469,83.0,0.0,120.0,1.0,0.0
4470,81.0,120.0,120.0,1.0,0.0
4471,64.0,120.0,480.0,2.0,0.0
4472,57.0,120.0,1440.0,2.0,0.0
4473,85.0,0.0,720.0,0.0,0.0
4474,83.0,120.0,120.0,1.0,0.0
4475,81.0,120.0,120.0,1.0,0.0
4476,83.0,0.0,120.0,1.0,0.0
4477,81.0,120.0,120.0,1.0,0.0
4478,71.0,0.0,240.0,2.0,0.0
4479,83.0,120.0,120.0,1.0,0.0
4480,81.0,120.0,120.0,1.0,0.0
4481,91.0,0.0,720.0,0.0,0.0
4482,69.0,0.0,480.0,2.0,0.0
4483,83.0,120.0,120.0,1.0,0.0
4484,81.0,120.0,120.0,1.0,0.0
4485,83.0,120.0,120.0,1.0,0.0
4486,64.0,0.0,240.0,2.0,0.0
4487,81.0,120.0,120.0,1.0,0.0
4488,83.0,0.0,120.0,1.0,0.0
4489,90.0,120.0,720.0,0.0,0.0
4490,62.0,120.0,1440.0,2.0,0.0
4491,66.0,0.0,480.0,2.0,0.0
4492,81.0,120.0,120.0,1.0,0.0
4493,83.0,120.0,120.0,1.0,0.0
4494,81.0,120.0,120.0,1.0,0.0
4495,83.0,120.0,120.0,1.0,0.0
4496,71.0,0.0,240.0,2.0,0.0
4497,81.0,120.0,120.0,1.0,0.0
4498,83.0,0.0,120.0,1.0,0.0
4499,69.0,0.0,480.0,2.0,0.0
4500,81.0,120.0,120.0,1.0,0.0
4501,86.0,0.0,720.0,0.0,0.0
4502,83.0,120.0,120.0,1.0,0.0
4503,81.0,120.0,120.0,1.0,0.0
4504,83.0,120.0,120.0,1.0,0.0
4505,81.0,120.0,120.0,1.0,0.0
4506,66.0,0.0,240.0,2.0,0.0
4507,83.0,0.0,120.0,1.0,0.0
4508,81.0,120.0,120.0,1.0,0.0
4509,85.0,0.0,720.0,0.0,0.0
4510,57.0,0.0,1440.0,2.0,0.0
4511,64.0,0.0,480.0,2.0,0.0
4512,83.0,120.0,120.0,1.0,0.0
4513,81.0,120.0,120.0,1.0,0.0
4514,83.0,120.0,120.0,1.0,0.0
4515,71.0,120.0,240.0,2.0,0.0
4516,81.0,120.0,120.0,1.0,0.0
4517,83.0,0.0,120.0,1.0,0.0
4518,69.0,120.0,480.0,2.0,0.0
4519,81.0,120.0,120.0,1.0,0.0
4520,91.0,120.0,720.0,0.0,0.0
4521,83.0,120.0,120.0,1.0,0.0
4522,81.0,120.0,120.0,1.0,0.0
4523,83.0,0.0,120.0,1.0,0.0
4524,64.0,0.0,240.0,2.0,0.0
4525,81.0,120.0,120.0,1.0,0.0
4526,83.0,0.0,120.0,1.0,0.0
4527,69.0,120.0,120.0,2.0,0.0
4528,66.0,0.0,480.0,2.0,0.0
4529,71.0,120.0,120.0,2.0,0.0
4530,90.0,0.0,240.0,0.0,0.0
4531,86.0,80.0,240.0,0.0,0.0
4532,73.0,120.0,120.0,2.0,0.0
4533,74.0,0.0,120.0,2.0,0.0
4534,76.0,80.0,90.0,2.0,0.0
4535,86.0,120.0,240.0,0.0,0.0
4536,90.0,0.0,240.0,0.0,0.0
4537,78.0,80.0,90.0,2.0,0.0
4538,79.0,0.0,90.0,2.0,0.0
4539,81.0,120.0,120.0,2.0,0.0
4540,86.0,0.0,240.0,0.0,0.0
4541,90.0,0.0,240.0,0.0,0.0
4542,79.0,120.0,120.0,2.0,0.0
4543,86.0,0.0,240.0,0.0,0.0
4544,78.0,120.0,120.0,2.0,0.0
4545,90.0,120.0,240.0,0.0,0.0
4546,76.0,0.0,120.0,2.0,0.0
4547,74.0,120.0,120.0,2.0,0.0
4548,90.0,0.0,240.0,0.0,0.0
4549,86.0,0.0,240.0,0.0,0.0
4550,73.0,120.0,120.0,2.0,0.0
4551,67.0,73.0,480.0,2.0,0.0
4552,71.0,120.0,120.0,2.0,0.0
4553,73.0,120.0,120.0,2.0,0.0
4554,74.0,120.0,120.0,2.0,0.0
4555,86.0,0.0,240.0,0.0,0.0
4556,76.0,0.0,120.0,2.0,0.0
4557,78.0,80.0,90.0,2.0,0.0
4558,86.0,0.0,240.0,0.0,0.0
4559,88.0,7.0,15.0,0.0,0.0
4560,79.0,80.0,90.0,2.0,0.0
4561,81.0,120.0,90.0,2.0,0.0
4562,86.0,0.0,240.0,0.0,0.0
4563,88.0,0.0,240.0,0.0,0.0
4564,83.0,120.0,120.0,2.0,0.0
4565,81.0,80.0,120.0,2.0,0.0
4566,88.0,0.0,240.0,0.0,0.0
4567,79.0,80.0,90.0,2.0,0.0
4568,78.0,80.0,90.0,2.0,0.0
4569,76.0,0.0,90.0,2.0,0.0
4570,74.0,80.0,90.0,2.0,0.0
4571,86.0,80.0,15.0,0.0,0.0
4572,88.0,0.0,240.0,0.0,0.0
4573,73.0,80.0,90.0,2.0,0.0
4574,71.0,0.0,90.0,2.0,0.0
4575,69.0,120.0,120.0,2.0,0.0
4576,57.0,120.0,120.0,2.0,0.0
4577,86.0,120.0,240.0,0.0,0.0
4578,62.0,120.0,120.0,2.0,0.0
4579,90.0,0.0,240.0,0.0,0.0
4580,66.0,0.0,120.0,2.0,0.0
4581,86.0,0.0,240.0,0.0,0.0
4582,90.0,0.0,240.0,0.0,0.0
4583,69.0,120.0,120.0,2.0,0.0
4584,74.0,120.0,120.0,2.0,0.0
4585,78.0,120.0,120.0,2.0,0.0
4586,86.0,0.0,240.0,0.0,0.0
4587,74.0,0.0,120.0,2.0,0.0
4588,90.0,120.0,15.0,0.0,0.0
4589,86.0,0.0,240.0,0.0,0.0
4590,81.0,120.0,120.0,2.0,0.0
4591,78.0,0.0,120.0,2.0,0.0
4592,74.0,120.0,120.0,2.0,0.0
4593,93.0,0.0,240.0,0.0,0.0
4594,90.0,120.0,15.0,0.0,0.0
4595,86.0,0.0,240.0,0.0,0.0
4596,78.0,0.0,120.0,2.0,0.0
4597,69.0,23.0,1410.0,2.0,0.0
4598,76.0,90.0,120.0,2.0,0.0
4599,85.0,0.0,240.0,0.0,0.0
4600,91.0,0.0,240.0,0.0,0.0
4601,78.0,15.0,150.0,2.0,0.0
4602,76.0,68.0,150.0,2.0,0.0
4603,78.0,90.0,120.0,2.0,0.0
4604,85.0,67.0,240.0,0.0,0.0
4605,93.0,67.0,15.0,0.0,0.0
4606,91.0,0.0,240.0,0.0,0.0
4607,76.0,15.0,150.0,2.0,0.0
4608,78.0,83.0,150.0,2.0,0.0
4609,85.0,0.0,240.0,0.0,0.0
4610,91.0,67.0,240.0,0.0,0.0
4611,93.0,0.0,240.0,0.0,0.0
4612,76.0,75.0,150.0,2.0,0.0
4613,78.0,15.0,150.0,2.0,0.0
4614,76.0,75.0,150.0,2.0,0.0
4615,85.0,60.0,240.0,0.0,0.0
4616,93.0,0.0,240.0,0.0,0.0
4617,91.0,0.0,240.0,0.0,0.0
4618,78.0,90.0,150.0,2.0,0.0
4619,76.0,8.0,150.0,2.0,0.0
4620,78.0,90.0,150.0,2.0,0.0
4621,76.0,75.0,150.0,2.0,0.0
4622,85.0,0.0,240.0,0.0,0.0
4623,91.0,0.0,240.0,0.0,0.0
4624,78.0,15.0,150.0,2.0,0.0
4625,76.0,120.0,180.0,2.0,0.0
4626,74.0,7.0,210.0,2.0,0.0
4627,85.0,0.0,240.0,0.0,0.0
4628,91.0,0.0,240.0,0.0,0.0
4629,93.0,90.0,15.0,0.0,0.0
4630,76.0,240.0,120.0,2.0,0.0
4631,69.0,113.0,240.0,2.0,0.0
4632,75.0,7.0,120.0,2.0,0.0
4633,76.0,120.0,120.0,2.0,0.0
4634,78.0,120.0,120.0,2.0,0.0
4635,84.0,0.0,720.0,0.0,0.0
4636,76.0,120.0,120.0,2.0,0.0
4637,96.0,120.0,720.0,0.0,0.0
4638,75.0,240.0,120.0,2.0,0.0
4639,67.0,105.0,240.0,2.0,0.0
4640,76.0,15.0,120.0,2.0,0.0
4641,78.0,120.0,120.0,2.0,0.0
4642,79.0,0.0,120.0,2.0,0.0
4643,83.0,0.0,240.0,0.0,0.0
4644,95.0,0.0,240.0,0.0,0.0
4645,78.0,120.0,120.0,2.0,0.0
4646,76.0,240.0,120.0,2.0,0.0
4647,67.0,98.0,270.0,2.0,0.0
4648,73.0,22.0,120.0,2.0,0.0
4649,74.0,120.0,120.0,2.0,0.0
4650,76.0,120.0,120.0,2.0,0.0
4651,74.0,120.0,120.0,2.0,0.0
4652,82.0,120.0,720.0,0.0,0.0
4653,94.0,0.0,720.0,0.0,0.0
4654,73.0,240.0,120.0,2.0,0.0
4655,66.0,98.0,270.0,2.0,0.0
4656,74.0,22.0,120.0,2.0,0.0
4657,76.0,120.0,120.0,2.0,0.0
4658,78.0,0.0,120.0,2.0,0.0
4659,93.0,240.0,240.0,0.0,0.0
4660,76.0,120.0,120.0,2.0,0.0
4661,81.0,0.0,240.0,0.0,0.0
4662,74.0,0.0,120.0,2.0,0.0
4663,57.0,0.0,240.0,2.0,0.0
4664,63.0,120.0,120.0,2.0,0.0
4665,64.0,120.0,120.0,2.0,0.0
4666,66.0,120.0,120.0,2.0,0.0
4667,64.0,120.0,120.0,2.0,0.0
4668,72.0,120.0,720.0,0.0,0.0
4669,84.0,0.0,720.0,0.0,0.0
4670,63.0,240.0,120.0,2.0,0.0
4671,55.0,113.0,240.0,2.0,0.0
4672,64.0,7.0,120.0,2.0,0.0
4673,66.0,120.0,120.0,2.0,0.0
4674,67.0,0.0,120.0,2.0,0.0
4675,66.0,120.0,120.0,2.0,0.0
4676,71.0,0.0,240.0,0.0,0.0
4677,83.0,240.0,240.0,0.0,0.0
4678,64.0,0.0,120.0,2.0,0.0
4679,55.0,105.0,240.0,2.0,0.0
4680,61.0,15.0,120.0,2.0,0.0
4681,62.0,120.0,120.0,2.0,0.0
4682,64.0,120.0,120.0,2.0,0.0
4683,82.0,0.0,720.0,0.0,0.0
4684,70.0,0.0,720.0,0.0,0.0
4685,62.0,120.0,120.0,2.0,0.0
4686,61.0,240.0,120.0,2.0,0.0
4687,54.0,113.0,240.0,2.0,0.0
4688,62.0,7.0,120.0,2.0,0.0
4689,64.0,120.0,120.0,2.0,0.0
4690,66.0,120.0,120.0,2.0,0.0
4691,69.0,0.0,240.0,0.0,0.0
4692,81.0,240.0,240.0,0.0,0.0
4693,64.0,120.0,120.0,2.0,0.0
4694,62.0,0.0,120.0,2.0,0.0
4695,54.0,0.0,240.0,2.0,0.0
4696,57.0,120.0,120.0,2.0,0.0
4697,62.0,72.0,120.0,2.0,0.0
4698,81.0,0.0,180.0,0.0,0.0
4699,74.0,48.0,180.0,0.0,0.0
4700,69.0,0.0,180.0,0.0,0.0
4701,66.0,120.0,120.0,2.0,0.0
4702,69.0,48.0,180.0,0.0,0.0
4703,62.0,72.0,120.0,2.0,0.0
4704,74.0,0.0,180.0,0.0,0.0
4705,81.0,0.0,180.0,0.0,0.0
4706,57.0,240.0,120.0,2.0,0.0
4707,47.0,113.0,240.0,2.0,0.0
4708,50.0,7.0,120.0,2.0,0.0
4709,54.0,72.0,120.0,2.0,0.0
4710,71.0,0.0,180.0,0.0,0.0
4711,74.0,48.0,180.0,0.0,0.0
4712,79.0,0.0,180.0,0.0,0.0
4713,59.0,120.0,120.0,2.0,0.0
4714,74.0,0.0,180.0,0.0,0.0
4715,54.0,72.0,120.0,2.0,0.0
4716,78.0,48.0,180.0,0.0,0.0
4717,71.0,0.0,180.0,0.0,0.0
4718,50.0,240.0,120.0,2.0,0.0
4719,43.0,120.0,240.0,2.0,0.0
4720,47.0,0.0,120.0,2.0,0.0
4721,71.0,48.0,180.0,0.0,0.0
4722,78.0,0.0,180.0,0.0,0.0
4723,52.0,72.0,120.0,2.0,0.0
4724,67.0,0.0,180.0,0.0,0.0
4725,55.0,120.0,120.0,2.0,0.0
4726,52.0,72.0,120.0,2.0,0.0
4727,71.0,48.0,180.0,0.0,0.0
4728,67.0,0.0,180.0,0.0,0.0
4729,76.0,0.0,180.0,0.0,0.0
4730,47.0,240.0,120.0,2.0,0.0
4731,45.0,113.0,240.0,2.0,0.0
4732,52.0,7.0,120.0,2.0,0.0
4733,64.0,0.0,180.0,0.0,0.0
4734,74.0,0.0,180.0,0.0,0.0
4735,67.0,48.0,180.0,0.0,0.0
4736,55.0,72.0,120.0,2.0,0.0
4737,57.0,120.0,120.0,2.0,0.0
4738,67.0,0.0,180.0,0.0,0.0
4739,73.0,48.0,180.0,0.0,0.0
4740,64.0,0.0,180.0,0.0,0.0
4741,55.0,72.0,120.0,2.0,0.0
4742,52.0,240.0,120.0,2.0,0.0
4743,42.0,113.0,240.0,2.0,0.0
4744,45.0,7.0,120.0,2.0,0.0
4745,74.0,0.0,180.0,0.0,0.0
4746,69.0,0.0,180.0,0.0,0.0
4747,62.0,48.0,180.0,0.0,0.0
4748,50.0,72.0,120.0,2.0,0.0
4749,54.0,120.0,120.0,2.0,0.0
4750,69.0,48.0,180.0,0.0,0.0
4751,66.0,0.0,180.0,0.0,0.0
4752,62.0,0.0,180.0,0.0,0.0
4753,50.0,72.0,120.0,2.0,0.0
4754,45.0,240.0,120.0,2.0,0.0
4755,35.0,113.0,240.0,2.0,0.0
4756,38.0,7.0,120.0,2.0,0.0
4757,59.0,0.0,180.0,0.0,0.0
4758,67.0,0.0,180.0,0.0,0.0
4759,42.0,72.0,120.0,2.0,0.0
4760,62.0,48.0,180.0,0.0,0.0
4761,47.0,120.0,120.0,2.0,0.0
4762,62.0,0.0,180.0,0.0,0.0
4763,66.0,0.0,180.0,0.0,0.0
4764,42.0,72.0,120.0,2.0,0.0
4765,59.0,48.0,180.0,0.0,0.0
4766,38.0,232.0,120.0,2.0,0.0
4767,31.0,8.0,240.0,2.0,0.0
4768,35.0,120.0,120.0,2.0,0.0
4769,55.0,48.0,180.0,0.0,0.0
4770,59.0,0.0,180.0,0.0,0.0
4771,66.0,0.0,180.0,0.0,0.0
4772,40.0,72.0,120.0,2.0,0.0
4773,43.0,120.0,120.0,2.0,0.0
4774,64.0,0.0,180.0,0.0,0.0
4775,55.0,48.0,180.0,0.0,0.0
4776,59.0,0.0,180.0,0.0,0.0
4777,40.0,72.0,120.0,2.0,0.0
4778,35.0,240.0,120.0,2.0,0.0
4779,33.0,0.0,240.0,2.0,0.0
4780,40.0,120.0,120.0,2.0,0.0
4781,55.0,0.0,180.0,0.0,0.0
4782,62.0,48.0,180.0,0.0,0.0
4783,52.0,0.0,180.0,0.0,0.0
4784,43.0,72.0,120.0,2.0,0.0
4785,45.0,192.0,120.0,2.0,0.0
4786,52.0,0.0,180.0,0.0,0.0
4787,33.0,105.0,240.0,2.0,0.0
4788,55.0,48.0,180.0,0.0,0.0
4789,61.0,0.0,180.0,0.0,0.0
4790,45.0,15.0,120.0,2.0,0.0
4791,62.0,120.0,120.0,0.0,0.0
4792,38.0,0.0,240.0,2.0,0.0
4793,64.0,120.0,120.0,0.0,0.0
4794,66.0,120.0,120.0,0.0,0.0
4795,67.0,80.0,120.0,0.0,0.0
4796,50.0,0.0,15.0,2.0,0.0
4797,69.0,80.0,90.0,0.0,0.0
4798,71.0,80.0,90.0,0.0,0.0
4799,73.0,0.0,90.0,0.0,0.0
4800,50.0,0.0,15.0,2.0,0.0
4801,54.0,80.0,15.0,2.0,0.0
4802,74.0,80.0,90.0,0.0,0.0
4803,76.0,80.0,90.0,0.0,0.0
4804,78.0,80.0,90.0,0.0,0.0
4805,79.0,80.0,90.0,0.0,0.0
4806,81.0,80.0,90.0,0.0,0.0
4807,83.0,0.0,90.0,0.0,0.0
4808,45.0,120.0,240.0,2.0,0.0
4809,57.0,120.0,15.0,2.0,0.0
4810,52.0,0.0,240.0,2.0,0.0
4811,85.0,120.0,120.0,0.0,0.0
4812,73.0,0.0,120.0,0.0,0.0
4813,57.0,0.0,240.0,2.0,0.0
4814,54.0,0.0,240.0,2.0,0.0
4815,50.0,0.0,240.0,2.0,0.0
4816,74.0,120.0,120.0,0.0,0.0
4817,76.0,120.0,120.0,0.0,0.0
4818,50.0,0.0,240.0,2.0,0.0
4819,54.0,0.0,240.0,2.0,0.0
4820,78.0,120.0,120.0,0.0,0.0
4821,57.0,0.0,240.0,2.0,0.0
4822,79.0,80.0,120.0,0.0,0.0
4823,54.0,80.0,240.0,2.0,0.0
4824,57.0,0.0,240.0,2.0,0.0
4825,81.0,80.0,90.0,0.0,0.0
4826,50.0,0.0,240.0,2.0,0.0
4827,83.0,80.0,90.0,0.0,0.0
4828,85.0,0.0,90.0,0.0,0.0
4829,86.0,80.0,90.0,0.0,0.0
4830,54.0,0.0,480.0,2.0,0.0
4831,57.0,0.0,480.0,2.0,0.0
4832,50.0,120.0,480.0,2.0,0.0
4833,88.0,80.0,90.0,0.0,0.0
4834,90.0,80.0,90.0,0.0,0.0
4835,91.0,80.0,90.0,0.0,0.0
4836,93.0,80.0,90.0,0.0,0.0
4837,95.0,0.0,90.0,0.0,0.0
4838,97.0,120.0,120.0,0.0,0.0
4839,45.0,0.0,240.0,2.0,0.0
4840,52.0,120.0,240.0,2.0,0.0
4841,57.0,0.0,240.0,2.0,0.0
4842,85.0,0.0,120.0,0.0,0.0
4843,74.0,120.0,120.0,0.0,0.0
4844,76.0,0.0,120.0,0.0,0.0
4845,78.0,120.0,120.0,0.0,0.0
4846,54.0,0.0,15.0,2.0,0.0
4847,57.0,120.0,15.0,2.0,0.0
4848,50.0,0.0,15.0,2.0,0.0
4849,79.0,0.0,120.0,0.0,0.0
4850,57.0,0.0,15.0,2.0,0.0
4851,54.0,80.0,15.0,2.0,0.0
4852,50.0,0.0,15.0,2.0,0.0
4853,81.0,80.0,90.0,0.0,0.0
4854,83.0,80.0,90.0,0.0,0.0
4855,85.0,0.0,90.0,0.0,0.0
4856,57.0,120.0,15.0,2.0,0.0
4857,54.0,80.0,480.0,2.0,0.0
4858,86.0,120.0,120.0,0.0,0.0
4859,50.0,0.0,480.0,2.0,0.0
4860,88.0,80.0,120.0,0.0,0.0
4861,90.0,80.0,90.0,0.0,0.0
4862,91.0,80.0,90.0,0.0,0.0
4863,93.0,0.0,90.0,0.0,0.0
4864,45.0,0.0,240.0,2.0,0.0
4865,95.0,80.0,90.0,0.0,0.0
4866,57.0,0.0,15.0,2.0,0.0
4867,52.0,360.0,240.0,2.0,0.0
4868,97.0,80.0,90.0,0.0,0.0
4869,85.0,0.0,90.0,0.0,0.0
4870,86.0,0.0,360.0,0.0,0.0
4871,62.0,7.0,360.0,2.0,0.0
4872,57.0,0.0,15.0,2.0,0.0
4873,54.0,113.0,360.0,2.0,0.0
4874,50.0,0.0,360.0,2.0,0.0
4875,98.0,600.0,480.0,0.0,0.0
4876,54.0,0.0,360.0,2.0,0.0
4877,57.0,0.0,360.0,2.0,0.0
4878,62.0,713.0,360.0,2.0,0.0
4879,78.0,0.0,360.0,1.0,0.0
4880,81.0,0.0,360.0,1.0,0.0
4881,86.0,7.0,360.0,0.0,0.0
4882,50.0,0.0,360.0,2.0,0.0
4883,62.0,1010.0,390.0,2.0,0.0
4884,57.0,0.0,360.0,2.0,0.0
4885,54.0,0.0,360.0,2.0,0.0
4886,50.0,0.0,360.0,2.0,0.0
4887,74.0,7.0,360.0,0.0,0.0
4888,69.0,8.0,360.0,1.0,0.0
4889,66.0,7.0,360.0,1.0,0.0
4890,74.0,408.0,180.0,0.0,0.0
4891,74.0,72.0,360.0,0.0,0.0
4892,70.0,240.0,180.0,2.0,0.0
4893,67.0,408.0,180.0,2.0,0.0
4894,62.0,72.0,360.0,0.0,0.0
4895,58.0,240.0,180.0,2.0,0.0
4896,55.0,408.0,180.0,2.0,0.0
4897,50.0,72.0,360.0,0.0,0.0
4898,46.0,240.0,180.0,2.0,0.0
4899,43.0,720.0,180.0,2.0,0.0
4900,86.0,480.0,180.0,0.0,0.0
4901,74.0,0.0,180.0,0.0,0.0
4902,74.0,0.0,720.0,0.0,0.0
4903,86.0,192.0,720.0,0.0,0.0
4904,67.0,240.0,180.0,2.0,0.0
4905,70.0,0.0,180.0,2.0,0.0
4906,67.0,48.0,180.0,2.0,0.0
4907,70.0,0.0,180.0,2.0,0.0
4908,75.0,192.0,720.0,0.0,0.0
4909,87.0,0.0,720.0,0.0,0.0
4910,67.0,0.0,180.0,2.0,0.0
4911,70.0,240.0,180.0,2.0,0.0
4912,70.0,240.0,180.0,2.0,0.0
4913,67.0,0.0,180.0,2.0,0.0
4914,70.0,48.0,180.0,2.0,0.0
4915,67.0,0.0,180.0,2.0,0.0
4916,76.0,8.0,480.0,0.0,0.0
4917,88.0,177.0,480.0,0.0,0.0
4918,72.0,0.0,180.0,2.0,0.0
4919,67.0,0.0,180.0,2.0,0.0
4920,70.0,240.0,180.0,2.0,0.0
4921,72.0,55.0,180.0,2.0,0.0
4922,70.0,0.0,180.0,2.0,0.0
4923,67.0,0.0,180.0,2.0,0.0
4924,72.0,0.0,180.0,2.0,0.0
4925,89.0,192.0,480.0,0.0,0.0
4926,77.0,0.0,480.0,0.0,0.0
4927,70.0,240.0,180.0,2.0,0.0
4928,67.0,0.0,180.0,2.0,0.0
4929,65.0,0.0,180.0,2.0,0.0
4930,69.0,48.0,180.0,2.0,0.0
4931,72.0,0.0,180.0,2.0,0.0
4932,72.0,240.0,180.0,2.0,0.0
4933,69.0,0.0,180.0,2.0,0.0
4934,65.0,0.0,180.0,2.0,0.0
4935,77.0,408.0,180.0,0.0,0.0
4936,72.0,0.0,180.0,2.0,0.0
4937,65.0,0.0,180.0,2.0,0.0
4938,69.0,0.0,180.0,2.0,0.0
4939,77.0,72.0,360.0,0.0,0.0
4940,74.0,240.0,180.0,2.0,0.0
4941,70.0,408.0,180.0,2.0,0.0
4942,65.0,72.0,360.0,0.0,0.0
4943,62.0,240.0,180.0,2.0,0.0
4944,58.0,408.0,180.0,2.0,0.0
4945,53.0,72.0,360.0,0.0,0.0
4946,50.0,240.0,180.0,2.0,0.0
4947,46.0,720.0,180.0,2.0,0.0
4948,89.0,0.0,180.0,0.0,0.0
4949,77.0,480.0,180.0,0.0,0.0
4950,77.0,0.0,720.0,0.0,0.0
4951,89.0,192.0,720.0,0.0,0.0
4952,74.0,0.0,180.0,2.0,0.0
4953,70.0,240.0,180.0,2.0,0.0
4954,74.0,48.0,180.0,2.0,0.0
4955,70.0,0.0,180.0,2.0,0.0
4956,79.0,0.0,1440.0,0.0,0.0
4957,91.0,192.0,1440.0,0.0,0.0
4958,75.0,240.0,180.0,2.0,0.0
4959,70.0,0.0,180.0,2.0,0.0
4960,75.0,240.0,180.0,2.0,0.0
4961,70.0,0.0,180.0,2.0,0.0
4962,70.0,240.0,180.0,2.0,0.0
4963,75.0,0.0,180.0,2.0,0.0
4964,70.0,240.0,180.0,2.0,0.0
4965,76.0,0.0,180.0,2.0,0.0
4966,70.0,240.0,180.0,2.0,0.0
4967,76.0,0.0,180.0,2.0,0.0
4968,76.0,48.0,180.0,2.0,0.0
4969,70.0,0.0,180.0,2.0,0.0
4970,80.0,192.0,1440.0,0.0,0.0
4971,70.0,0.0,180.0,2.0,0.0
4972,77.0,240.0,180.0,2.0,0.0
4973,92.0,0.0,1440.0,0.0,0.0
4974,77.0,240.0,180.0,2.0,0.0
4975,70.0,0.0,180.0,2.0,0.0
4976,70.0,240.0,180.0,2.0,0.0
4977,77.0,0.0,180.0,2.0,0.0
4978,77.0,0.0,180.0,2.0,0.0
4979,70.0,240.0,180.0,2.0,0.0
4980,70.0,240.0,180.0,2.0,0.0
4981,77.0,0.0,180.0,2.0,0.0
4982,70.0,48.0,180.0,2.0,0.0
4983,77.0,0.0,180.0,2.0,0.0
4984,82.0,192.0,720.0,0.0,0.0
4985,94.0,0.0,720.0,0.0,0.0
4986,70.0,240.0,180.0,2.0,0.0
4987,79.0,0.0,180.0,2.0,0.0
4988,79.0,240.0,180.0,2.0,0.0
4989,70.0,0.0,180.0,2.0,0.0
4990,70.0,48.0,180.0,2.0,0.0
4991,79.0,0.0,180.0,2.0,0.0
4992,80.0,240.0,180.0,2.0,0.0
4993,83.0,0.0,720.0,0.0,0.0
4994,95.0,192.0,720.0,0.0,0.0
4995,70.0,0.0,180.0,2.0,0.0
4996,70.0,0.0,180.0,2.0,0.0
4997,80.0,240.0,180.0,2.0,0.0
4998,70.0,0.0,180.0,2.0,0.0
4999,80.0,48.0,180.0,2.0,0.0
5000,96.0,192.0,1440.0,0.0,0.0
5001,84.0,0.0,1440.0,0.0,0.0
5002,70.0,240.0,180.0,2.0,0.0
5003,80.0,0.0,180.0,2.0,0.0
5004,70.0,240.0,180.0,2.0,0.0
5005,80.0,0.0,180.0,2.0,0.0
5006,80.0,0.0,180.0,2.0,0.0
5007,70.0,240.0,180.0,2.0,0.0
5008,70.0,240.0,180.0,2.0,0.0
5009,80.0,0.0,180.0,2.0,0.0
5010,80.0,240.0,180.0,2.0,0.0
5011,70.0,0.0,180.0,2.0,0.0
5012,70.0,0.0,180.0,2.0,0.0
5013,80.0,48.0,180.0,2.0,0.0
5014,70.0,240.0,180.0,2.0,0.0
5015,79.0,0.0,180.0,2.0,0.0
5016,82.0,0.0,720.0,0.0,0.0
5017,94.0,192.0,720.0,0.0,0.0
5018,79.0,240.0,180.0,2.0,0.0
5019,70.0,0.0,180.0,2.0,0.0
5020,70.0,0.0,180.0,2.0,0.0
5021,79.0,48.0,180.0,2.0,0.0
5022,92.0,0.0,720.0,0.0,0.0
5023,80.0,192.0,720.0,0.0,0.0
5024,70.0,240.0,180.0,2.0,0.0
5025,77.0,0.0,180.0,2.0,0.0
5026,70.0,0.0,180.0,2.0,0.0
5027,77.0,240.0,180.0,2.0,0.0
5028,70.0,0.0,180.0,2.0,0.0
5029,77.0,48.0,180.0,2.0,0.0
5030,74.0,240.0,180.0,2.0,0.0
5031,68.0,0.0,180.0,2.0,0.0
5032,77.0,0.0,720.0,0.0,0.0
5033,89.0,120.0,720.0,0.0,0.0
5034,70.0,0.0,180.0,2.0,0.0
5035,74.0,240.0,180.0,2.0,0.0
5036,68.0,0.0,180.0,2.0,0.0
5037,70.0,0.0,180.0,2.0,0.0
5038,68.0,48.0,180.0,2.0,0.0
5039,74.0,0.0,180.0,2.0,0.0
5040,70.0,0.0,180.0,2.0,0.0
5041,70.0,120.0,120.0,1.0,0.0
5042,91.0,0.0,1440.0,0.0,0.0
5043,67.0,0.0,720.0,2.0,0.0
5044,79.0,0.0,480.0,0.0,0.0
5045,72.0,120.0,120.0,1.0,0.0
5046,70.0,120.0,120.0,1.0,0.0
5047,72.0,120.0,120.0,1.0,0.0
5048,70.0,120.0,120.0,1.0,0.0
5049,84.0,120.0,240.0,0.0,0.0
5050,72.0,0.0,120.0,1.0,0.0
5051,63.0,0.0,720.0,2.0,0.0
5052,70.0,120.0,120.0,1.0,0.0
5053,82.0,120.0,480.0,0.0,0.0
5054,72.0,120.0,120.0,1.0,0.0
5055,70.0,120.0,120.0,1.0,0.0
5056,72.0,0.0,120.0,1.0,0.0
5057,79.0,0.0,240.0,0.0,0.0
5058,70.0,120.0,120.0,1.0,0.0
5059,72.0,120.0,120.0,1.0,0.0
5060,77.0,120.0,480.0,0.0,0.0
5061,70.0,120.0,120.0,1.0,0.0
5062,62.0,0.0,720.0,2.0,0.0
5063,89.0,0.0,1440.0,0.0,0.0
5064,72.0,120.0,120.0,1.0,0.0
5065,70.0,120.0,120.0,1.0,0.0
5066,72.0,0.0,120.0,1.0,0.0
5067,84.0,0.0,240.0,0.0,0.0
5068,70.0,120.0,120.0,1.0,0.0
5069,72.0,120.0,120.0,1.0,0.0
5070,82.0,0.0,480.0,0.0,0.0
5071,70.0,120.0,120.0,1.0,0.0
5072,68.0,0.0,720.0,2.0,0.0
5073,72.0,120.0,120.0,1.0,0.0
5074,70.0,120.0,120.0,1.0,0.0
5075,72.0,120.0,120.0,1.0,0.0
5076,77.0,0.0,240.0,0.0,0.0
5077,70.0,120.0,120.0,1.0,0.0
5078,72.0,120.0,120.0,1.0,0.0
5079,82.0,120.0,120.0,1.0,0.0
5080,63.0,0.0,1440.0,2.0,0.0
5081,67.0,120.0,480.0,2.0,0.0
5082,91.0,120.0,720.0,0.0,0.0
5083,84.0,120.0,120.0,1.0,0.0
5084,82.0,120.0,120.0,1.0,0.0
5085,84.0,0.0,120.0,1.0,0.0
5086,82.0,120.0,120.0,1.0,0.0
5087,72.0,0.0,240.0,2.0,0.0
5088,84.0,0.0,120.0,1.0,0.0
5089,70.0,120.0,480.0,2.0,0.0
5090,82.0,120.0,120.0,1.0,0.0
5091,87.0,0.0,720.0,0.0,0.0
5092,84.0,120.0,120.0,1.0,0.0
5093,82.0,120.0,120.0,1.0,0.0
5094,84.0,0.0,120.0,1.0,0.0
5095,82.0,120.0,120.0,1.0,0.0
5096,67.0,0.0,240.0,2.0,0.0
5097,84.0,120.0,120.0,1.0,0.0
5098,86.0,0.0,720.0,0.0,0.0
5099,58.0,0.0,720.0,2.0,0.0
5100,65.0,120.0,480.0,2.0,0.0
5101,82.0,120.0,120.0,1.0,0.0
5102,84.0,120.0,120.0,1.0,0.0
5103,82.0,120.0,120.0,1.0,0.0
5104,84.0,0.0,120.0,1.0,0.0
5105,82.0,120.0,120.0,1.0,0.0
5106,72.0,120.0,240.0,2.0,0.0
5107,84.0,0.0,120.0,1.0,0.0
5108,56.0,0.0,720.0,2.0,0.0
5109,70.0,120.0,480.0,2.0,0.0
5110,94.0,0.0,720.0,0.0,0.0
5111,82.0,120.0,120.0,1.0,0.0
5112,84.0,120.0,120.0,1.0,0.0
5113,82.0,120.0,120.0,1.0,0.0
5114,84.0,0.0,120.0,1.0,0.0
5115,82.0,120.0,120.0,1.0,0.0
5116,65.0,210.0,240.0,2.0,0.0
5117,84.0,0.0,120.0,1.0,0.0
5118,94.0,0.0,720.0,0.0,0.0
5119,82.0,0.0,720.0,0.0,0.0
5120,55.0,30.0,210.0,2.0,0.0
5121,63.0,228.0,120.0,2.0,0.0
5122,55.0,12.0,240.0,2.0,0.0
5123,63.0,228.0,120.0,2.0,0.0
5124,55.0,12.0,240.0,2.0,0.0
5125,63.0,228.0,120.0,2.0,0.0
5126,70.0,228.0,720.0,0.0,0.0
5127,54.0,12.0,240.0,2.0,0.0
5128,64.0,228.0,120.0,2.0,0.0
5129,54.0,12.0,240.0,2.0,0.0
5130,64.0,228.0,120.0,2.0,0.0
5131,54.0,12.0,240.0,2.0,0.0
5132,64.0,0.0,120.0,2.0,0.0
5133,52.0,12.0,240.0,2.0,0.0
5134,82.0,0.0,15.0,0.0,0.0
5135,78.0,0.0,480.0,0.0,0.0
5136,70.0,0.0,480.0,0.0,0.0
5137,61.0,228.0,120.0,2.0,0.0
5138,52.0,12.0,240.0,2.0,0.0
5139,61.0,228.0,120.0,2.0,0.0
5140,52.0,12.0,240.0,2.0,0.0
5141,61.0,228.0,120.0,2.0,0.0
5142,51.0,12.0,240.0,2.0,0.0
5143,83.0,0.0,480.0,0.0,0.0
5144,78.0,228.0,480.0,0.0,0.0
5145,71.0,0.0,480.0,0.0,0.0
5146,59.0,228.0,120.0,2.0,0.0
5147,51.0,12.0,240.0,2.0,0.0
5148,59.0,0.0,120.0,2.0,0.0
5149,49.0,12.0,240.0,2.0,0.0
5150,85.0,240.0,240.0,0.0,0.0
5151,78.0,0.0,240.0,0.0,0.0
5152,73.0,0.0,240.0,0.0,0.0
5153,58.0,0.0,120.0,2.0,0.0
5154,47.0,219.0,240.0,2.0,0.0
5155,75.0,210.0,480.0,0.0,0.0
5156,78.0,0.0,480.0,0.0,0.0
5157,87.0,0.0,480.0,0.0,0.0
5158,63.0,21.0,210.0,2.0,0.0
5159,59.0,0.0,15.0,2.0,0.0
5160,66.0,0.0,120.0,2.0,0.0
5161,59.0,0.0,210.0,2.0,0.0
5162,80.0,210.0,240.0,0.0,0.0
5163,92.0,0.0,240.0,0.0,0.0
5164,63.0,30.0,210.0,2.0,0.0
5165,66.0,0.0,120.0,2.0,0.0
5166,63.0,0.0,210.0,2.0,0.0
5167,90.0,210.0,480.0,0.0,0.0
5168,78.0,0.0,480.0,0.0,0.0
5169,59.0,30.0,210.0,2.0,0.0
5170,66.0,210.0,120.0,2.0,0.0
5171,59.0,30.0,210.0,2.0,0.0
5172,63.0,0.0,210.0,2.0,0.0
5173,66.0,0.0,120.0,2.0,0.0
5174,75.0,0.0,240.0,0.0,0.0
5175,87.0,210.0,240.0,0.0,0.0
5176,63.0,0.0,210.0,2.0,0.0
5177,59.0,30.0,210.0,2.0,0.0
5178,66.0,0.0,120.0,2.0,0.0
5179,58.0,0.0,210.0,2.0,0.0
5180,64.0,30.0,210.0,2.0,0.0
5181,85.0,210.0,480.0,0.0,0.0
5182,73.0,0.0,480.0,0.0,0.0
5183,66.0,210.0,120.0,2.0,0.0
5184,64.0,0.0,210.0,2.0,0.0
5185,58.0,30.0,210.0,2.0,0.0
5186,66.0,0.0,120.0,2.0,0.0
5187,64.0,0.0,210.0,2.0,0.0
5188,80.0,210.0,240.0,0.0,0.0
5189,92.0,0.0,240.0,0.0,0.0
5190,58.0,30.0,210.0,2.0,0.0
5191,66.0,0.0,120.0,2.0,0.0
5192,64.0,30.0,210.0,2.0,0.0
5193,78.0,0.0,480.0,0.0,0.0
5194,90.0,210.0,480.0,0.0,0.0
5195,58.0,0.0,210.0,2.0,0.0
5196,66.0,210.0,120.0,2.0,0.0
5197,64.0,0.0,210.0,2.0,0.0
5198,58.0,30.0,210.0,2.0,0.0
5199,66.0,0.0,120.0,2.0,0.0
5200,64.0,0.0,210.0,2.0,0.0
5201,58.0,30.0,210.0,2.0,0.0
5202,73.0,120.0,240.0,0.0,0.0
5203,85.0,0.0,240.0,0.0,0.0
5204,66.0,0.0,120.0,2.0,0.0
5205,78.0,120.0,120.0,1.0,0.0
5206,63.0,0.0,480.0,2.0,0.0
5207,59.0,0.0,1440.0,2.0,0.0
5208,87.0,120.0,720.0,0.0,0.0
5209,80.0,120.0,120.0,1.0,0.0
5210,78.0,120.0,120.0,1.0,0.0
5211,80.0,120.0,120.0,1.0,0.0
5212,68.0,0.0,240.0,2.0,0.0
5213,78.0,120.0,120.0,1.0,0.0
5214,80.0,0.0,120.0,1.0,0.0
5215,83.0,0.0,720.0,0.0,0.0
5216,66.0,0.0,480.0,2.0,0.0
5217,78.0,120.0,120.0,1.0,0.0
5218,80.0,120.0,120.0,1.0,0.0
5219,78.0,120.0,120.0,1.0,0.0
5220,80.0,120.0,120.0,1.0,0.0
5221,78.0,120.0,120.0,1.0,0.0
5222,63.0,120.0,240.0,2.0,0.0
5223,80.0,0.0,120.0,1.0,0.0
5224,78.0,120.0,120.0,1.0,0.0
5225,54.0,240.0,1440.0,2.0,0.0
5226,82.0,0.0,720.0,0.0,0.0
5227,61.0,120.0,480.0,2.0,0.0
5228,80.0,120.0,120.0,1.0,0.0
5229,78.0,120.0,120.0,1.0,0.0
5230,80.0,0.0,120.0,1.0,0.0
5231,78.0,120.0,120.0,1.0,0.0
5232,68.0,0.0,240.0,2.0,0.0
5233,80.0,120.0,120.0,1.0,0.0
5234,66.0,0.0,480.0,2.0,0.0
5235,88.0,0.0,720.0,0.0,0.0
5236,78.0,120.0,120.0,1.0,0.0
5237,80.0,120.0,120.0,1.0,0.0
5238,78.0,120.0,120.0,1.0,0.0
5239,80.0,120.0,120.0,1.0,0.0
5240,61.0,0.0,240.0,2.0,0.0
5241,78.0,120.0,120.0,1.0,0.0
5242,80.0,0.0,120.0,1.0,0.0
5243,78.0,240.0,240.0,1.0,0.0
5244,87.0,0.0,240.0,0.0,0.0
5245,66.0,0.0,480.0,2.0,0.0
5246,63.0,0.0,480.0,2.0,0.0
5247,59.0,0.0,480.0,2.0,0.0
5248,75.0,240.0,240.0,1.0,0.0
5249,71.0,240.0,240.0,1.0,0.0
5250,90.0,0.0,15.0,0.0,0.0
5251,70.0,0.0,240.0,1.0,0.0
5252,71.0,0.0,240.0,1.0,0.0
5253,87.0,240.0,240.0,0.0,0.0
5254,66.0,240.0,240.0,2.0,0.0
5255,83.0,0.0,240.0,0.0,0.0
5256,75.0,0.0,240.0,1.0,0.0
5257,66.0,240.0,240.0,2.0,0.0
5258,63.0,0.0,240.0,2.0,0.0
5259,75.0,240.0,240.0,0.0,0.0
5260,59.0,240.0,240.0,2.0,0.0
5261,78.0,0.0,240.0,0.0,0.0
5262,57.0,240.0,240.0,2.0,0.0
5263,83.0,0.0,240.0,0.0,0.0
5264,54.0,240.0,240.0,2.0,0.0
5265,87.0,0.0,240.0,0.0,0.0
5266,90.0,0.0,240.0,0.0,0.0
5267,51.0,240.0,240.0,2.0,0.0
5268,52.0,240.0,480.0,2.0,0.0
5269,83.0,0.0,15.0,1.0,0.0
5270,92.0,0.0,240.0,0.0,0.0
5271,80.0,0.0,240.0,1.0,0.0
5272,76.0,240.0,240.0,1.0,0.0
5273,71.0,240.0,480.0,2.0,0.0
5274,75.0,0.0,240.0,1.0,0.0
5275,68.0,0.0,240.0,2.0,0.0
5276,76.0,240.0,240.0,1.0,0.0
5277,64.0,0.0,240.0,2.0,0.0
5278,80.0,240.0,240.0,1.0,0.0
5279,59.0,0.0,15.0,2.0,0.0
5280,83.0,0.0,240.0,0.0,0.0
5281,56.0,240.0,240.0,2.0,0.0
5282,88.0,240.0,240.0,0.0,0.0
5283,52.0,0.0,240.0,2.0,0.0
5284,47.0,240.0,240.0,2.0,0.0
5285,92.0,0.0,480.0,0.0,0.0
5286,80.0,240.0,480.0,0.0,0.0
5287,40.0,0.0,240.0,2.0,0.0
5288,91.0,0.0,240.0,0.0,0.0
5289,79.0,0.0,240.0,0.0,0.0
5290,91.0,72.0,240.0,0.0,0.0
5291,52.0,240.0,15.0,2.0,0.0
5292,55.0,70.0,180.0,2.0,0.0
5293,88.0,72.0,240.0,0.0,0.0
5294,60.0,48.0,180.0,2.0,0.0
5295,55.0,120.0,180.0,2.0,0.0
5296,84.0,18.0,240.0,0.0,0.0
5297,60.0,48.0,180.0,2.0,0.0
5298,55.0,222.0,150.0,2.0,0.0
5299,83.0,72.0,240.0,0.0,0.0
5300,53.0,42.0,390.0,2.0,0.0
5301,55.0,78.0,180.0,2.0,0.0
5302,86.0,72.0,240.0,0.0,0.0
5303,59.0,48.0,180.0,2.0,0.0
5304,62.0,120.0,180.0,2.0,0.0
5305,79.0,240.0,240.0,1.0,0.0
5306,91.0,0.0,240.0,0.0,0.0
5307,65.0,48.0,180.0,2.0,0.0
5308,59.0,0.0,120.0,2.0,0.0
5309,60.0,30.0,390.0,2.0,0.0
5310,79.0,72.0,240.0,1.0,0.0
5311,64.0,90.0,180.0,2.0,0.0
5312,67.0,48.0,180.0,2.0,0.0
5313,76.0,72.0,240.0,1.0,0.0
5314,64.0,120.0,180.0,2.0,0.0
5315,72.0,0.0,240.0,1.0,0.0
5316,67.0,48.0,180.0,2.0,0.0
5317,64.0,240.0,120.0,2.0,0.0
5318,59.0,34.0,390.0,2.0,0.0
5319,79.0,54.0,240.0,1.0,0.0
5320,62.0,86.0,180.0,2.0,0.0
5321,74.0,54.0,240.0,1.0,0.0
5322,67.0,66.0,180.0,2.0,0.0
5323,62.0,138.0,180.0,2.0,0.0
5324,74.0,36.0,180.0,0.0,0.0
5325,59.0,12.0,240.0,2.0,0.0
5326,86.0,0.0,180.0,0.0,0.0
5327,62.0,240.0,120.0,2.0,0.0
5328,86.0,0.0,240.0,0.0,0.0
5329,55.0,90.0,360.0,2.0,0.0
5330,74.0,90.0,240.0,0.0,0.0
5331,59.0,30.0,210.0,2.0,0.0
5332,71.0,0.0,240.0,0.0,0.0
5333,83.0,90.0,240.0,0.0,0.0
5334,62.0,30.0,210.0,2.0,0.0
5335,59.0,120.0,210.0,2.0,0.0
5336,62.0,30.0,210.0,2.0,0.0
5337,67.0,0.0,240.0,0.0,0.0
5338,79.0,240.0,240.0,0.0,0.0
5339,59.0,0.0,120.0,2.0,0.0
5340,50.0,72.0,360.0,2.0,0.0
5341,66.0,0.0,240.0,0.0,0.0
5342,78.0,72.0,240.0,0.0,0.0
5343,60.0,48.0,180.0,2.0,0.0
5344,81.0,18.0,180.0,0.0,0.0
5345,69.0,0.0,180.0,0.0,0.0
5346,62.0,120.0,210.0,2.0,0.0
5347,60.0,102.0,210.0,2.0,0.0
5348,86.0,18.0,180.0,0.0,0.0
5349,62.0,30.0,210.0,2.0,0.0
5350,74.0,0.0,180.0,0.0,0.0
5351,60.0,240.0,120.0,2.0,0.0
5352,55.0,81.0,360.0,2.0,0.0
5353,74.0,0.0,240.0,0.0,0.0
5354,86.0,81.0,240.0,0.0,0.0
5355,59.0,39.0,210.0,2.0,0.0
5356,71.0,0.0,240.0,0.0,0.0
5357,83.0,81.0,240.0,0.0,0.0
5358,62.0,39.0,210.0,2.0,0.0
5359,59.0,120.0,210.0,2.0,0.0
5360,62.0,39.0,210.0,2.0,0.0
5361,59.0,120.0,210.0,2.0,0.0
5362,67.0,0.0,15.0,0.0,0.0
5363,79.0,81.0,15.0,0.0,0.0
5364,62.0,39.0,210.0,2.0,0.0
5365,59.0,111.0,210.0,2.0,0.0
5366,62.0,111.0,210.0,2.0,0.0
5367,71.0,9.0,180.0,0.0,0.0
5368,83.0,0.0,180.0,0.0,0.0
5369,59.0,120.0,180.0,2.0,0.0
5370,56.0,8.0,240.0,2.0,0.0
5371,88.0,40.0,180.0,0.0,0.0
5372,76.0,0.0,180.0,0.0,0.0
5373,59.0,240.0,120.0,2.0,0.0
5374,57.0,114.0,360.0,2.0,0.0
5375,88.0,99.0,240.0,0.0,0.0
5376,76.0,0.0,240.0,0.0,0.0
5377,60.0,6.0,210.0,2.0,0.0
5378,64.0,21.0,210.0,2.0,0.0
5379,72.0,0.0,240.0,0.0,0.0
5380,84.0,99.0,240.0,0.0,0.0
5381,60.0,120.0,210.0,2.0,0.0
5382,64.0,21.0,210.0,2.0,0.0
5383,81.0,0.0,240.0,0.0,0.0
5384,69.0,0.0,240.0,0.0,0.0
5385,60.0,240.0,120.0,2.0,0.0
5386,52.0,80.0,360.0,2.0,0.0
5387,68.0,72.0,240.0,0.0,0.0
5388,80.0,0.0,240.0,0.0,0.0
5389,62.0,40.0,180.0,2.0,0.0
5390,71.0,120.0,180.0,0.0,0.0
5391,64.0,0.0,180.0,2.0,0.0
5392,83.0,0.0,180.0,0.0,0.0
5393,62.0,120.0,180.0,2.0,0.0
5394,88.0,0.0,180.0,0.0,0.0
5395,76.0,0.0,180.0,0.0,0.0
5396,64.0,48.0,180.0,2.0,0.0
5397,62.0,240.0,120.0,2.0,0.0
5398,76.0,0.0,240.0,0.0,0.0
5399,88.0,90.0,240.0,0.0,0.0
5400,57.0,90.0,360.0,2.0,0.0
5401,60.0,30.0,210.0,2.0,0.0
5402,64.0,30.0,210.0,2.0,0.0
5403,84.0,0.0,240.0,0.0,0.0
5404,72.0,90.0,240.0,0.0,0.0
5405,60.0,120.0,210.0,2.0,0.0
5406,64.0,30.0,210.0,2.0,0.0
5407,81.0,90.0,240.0,0.0,0.0
5408,69.0,0.0,240.0,0.0,0.0
5409,60.0,111.0,210.0,2.0,0.0
5410,62.0,39.0,210.0,2.0,0.0
5411,66.0,81.0,240.0,0.0,0.0
5412,78.0,0.0,240.0,0.0,0.0
5413,60.0,111.0,210.0,2.0,0.0
5414,81.0,0.0,180.0,0.0,0.0
5415,69.0,9.0,180.0,0.0,0.0
5416,62.0,120.0,210.0,2.0,0.0
5417,60.0,111.0,210.0,2.0,0.0
5418,54.0,240.0,240.0,2.0,0.0
5419,74.0,0.0,180.0,0.0,0.0
5420,86.0,48.0,180.0,0.0,0.0
5421,60.0,0.0,120.0,2.0,0.0
5422,86.0,90.0,240.0,0.0,0.0
5423,74.0,0.0,240.0,0.0,0.0
5424,55.0,90.0,360.0,2.0,0.0
5425,59.0,30.0,210.0,2.0,0.0
5426,83.0,90.0,240.0,0.0,0.0
5427,71.0,0.0,240.0,0.0,0.0
5428,62.0,30.0,210.0,2.0,0.0
5429,59.0,120.0,210.0,2.0,0.0
5430,62.0,30.0,210.0,2.0,0.0
5431,79.0,0.0,240.0,0.0,0.0
5432,67.0,0.0,240.0,0.0,0.0
5433,59.0,240.0,120.0,2.0,0.0
5434,76.0,0.0,240.0,0.0,0.0
5435,48.0,12.0,420.0,2.0,0.0
5436,64.0,90.0,240.0,0.0,0.0
5437,57.0,90.0,210.0,2.0,0.0
5438,81.0,0.0,180.0,0.0,0.0
5439,69.0,18.0,180.0,0.0,0.0
5440,60.0,120.0,210.0,2.0,0.0
5441,57.0,102.0,210.0,2.0,0.0
5442,60.0,30.0,210.0,2.0,0.0
5443,84.0,0.0,180.0,0.0,0.0
5444,72.0,18.0,180.0,0.0,0.0
5445,57.0,240.0,120.0,2.0,0.0
5446,50.0,57.0,360.0,2.0,0.0
5447,62.0,90.0,240.0,0.0,0.0
5448,74.0,0.0,240.0,0.0,0.0
5449,55.0,45.0,210.0,2.0,0.0
5450,59.0,120.0,210.0,2.0,0.0
5451,67.0,18.0,180.0,0.0,0.0
5452,79.0,0.0,180.0,0.0,0.0
5453,55.0,102.0,210.0,2.0,0.0
5454,59.0,57.0,210.0,2.0,0.0
5455,83.0,0.0,180.0,0.0,0.0
5456,71.0,18.0,180.0,0.0,0.0
5457,55.0,213.0,150.0,2.0,0.0
5458,62.0,0.0,240.0,0.0,0.0
5459,50.0,185.0,240.0,2.0,0.0
5460,74.0,7.0,240.0,0.0,0.0
5461,54.0,156.0,360.0,2.0,0.0
5462,66.0,0.0,180.0,0.0,0.0
5463,78.0,18.0,180.0,0.0,0.0
5464,57.0,30.0,210.0,2.0,0.0
5465,50.0,0.0,150.0,2.0,0.0
5466,62.0,84.0,150.0,2.0,0.0
5467,72.0,0.0,240.0,0.0,0.0
5468,81.0,156.0,120.0,0.0,0.0
5469,62.0,149.0,150.0,2.0,0.0
5470,50.0,0.0,150.0,2.0,0.0
5471,83.0,91.0,180.0,0.0,0.0
5472,47.0,0.0,150.0,2.0,0.0
5473,86.0,120.0,180.0,0.0,0.0
5474,59.0,29.0,150.0,2.0,0.0
5475,91.0,91.0,180.0,0.0,0.0
5476,55.0,0.0,150.0,2.0,0.0
5477,43.0,29.0,150.0,2.0,0.0
5478,95.0,120.0,180.0,0.0,0.0
5479,83.0,91.0,180.0,0.0,0.0
5480,42.0,149.0,150.0,2.0,0.0
5481,54.0,0.0,150.0,2.0,0.0
5482,84.0,91.0,180.0,0.0,0.0
5483,86.0,120.0,180.0,0.0,0.0
5484,45.0,29.0,150.0,2.0,0.0
5485,57.0,0.0,150.0,2.0,0.0
5486,93.0,91.0,180.0,0.0,0.0
5487,96.0,70.0,180.0,0.0,0.0
5488,62.0,29.0,150.0,2.0,0.0
5489,50.0,0.0,150.0,2.0,0.0
5490,84.0,141.0,120.0,0.0,0.0
5491,50.0,0.0,150.0,2.0,0.0
5492,62.0,149.0,150.0,2.0,0.0
5493,83.0,91.0,180.0,0.0,0.0
5494,47.0,29.0,150.0,2.0,0.0
5495,59.0,0.0,150.0,2.0,0.0
5496,86.0,120.0,180.0,0.0,0.0
5497,91.0,91.0,180.0,0.0,0.0
5498,43.0,0.0,150.0,2.0,0.0
5499,55.0,29.0,150.0,2.0,0.0
5500,95.0,120.0,180.0,0.0,0.0
5501,83.0,91.0,180.0,0.0,0.0
5502,55.0,0.0,150.0,2.0,0.0
5503,43.0,149.0,150.0,2.0,0.0
5504,83.0,91.0,180.0,0.0,0.0
5505,86.0,120.0,180.0,0.0,0.0
5506,47.0,0.0,150.0,2.0,0.0
5507,59.0,29.0,150.0,2.0,0.0
5508,91.0,91.0,180.0,0.0,0.0
5509,95.0,70.0,180.0,0.0,0.0
5510,64.0,29.0,150.0,2.0,0.0
5511,52.0,0.0,150.0,2.0,0.0
5512,92.0,141.0,120.0,0.0,0.0
5513,52.0,0.0,150.0,2.0,0.0
5514,64.0,149.0,150.0,2.0,0.0
5515,84.0,91.0,180.0,0.0,0.0
5516,88.0,120.0,180.0,0.0,0.0
5517,48.0,29.0,150.0,2.0,0.0
5518,60.0,0.0,150.0,2.0,0.0
5519,93.0,91.0,180.0,0.0,0.0
5520,57.0,29.0,150.0,2.0,0.0
5521,45.0,0.0,150.0,2.0,0.0
5522,96.0,120.0,180.0,0.0,0.0
5523,84.0,91.0,180.0,0.0,0.0
5524,44.0,149.0,150.0,2.0,0.0
5525,56.0,0.0,150.0,2.0,0.0
5526,86.0,91.0,180.0,0.0,0.0
5527,88.0,120.0,180.0,0.0,0.0
5528,47.0,0.0,150.0,2.0,0.0
5529,59.0,29.0,150.0,2.0,0.0
5530,95.0,91.0,180.0,0.0,0.0
5531,98.0,120.0,180.0,0.0,0.0
5532,64.0,29.0,150.0,2.0,0.0
5533,52.0,0.0,150.0,2.0,0.0
5534,86.0,91.0,180.0,0.0,0.0
5535,64.0,149.0,150.0,2.0,0.0
5536,52.0,0.0,150.0,2.0,0.0
5537,84.0,91.0,180.0,0.0,0.0
5538,48.0,0.0,150.0,2.0,0.0
5539,60.0,29.0,150.0,2.0,0.0
5540,88.0,120.0,180.0,0.0,0.0
5541,93.0,91.0,180.0,0.0,0.0
5542,96.0,120.0,180.0,0.0,0.0
5543,57.0,0.0,150.0,2.0,0.0
5544,45.0,29.0,150.0,2.0,0.0
5545,84.0,91.0,180.0,0.0,0.0
5546,54.0,149.0,150.0,2.0,0.0
5547,42.0,0.0,150.0,2.0,0.0
5548,84.0,91.0,180.0,0.0,0.0
5549,57.0,0.0,150.0,2.0,0.0
5550,45.0,29.0,150.0,2.0,0.0
5551,86.0,120.0,180.0,0.0,0.0
5552,93.0,91.0,180.0,0.0,0.0
5553,96.0,70.0,180.0,0.0,0.0
5554,50.0,29.0,150.0,2.0,0.0
5555,62.0,0.0,150.0,2.0,0.0
5556,84.0,141.0,120.0,0.0,0.0
5557,62.0,149.0,150.0,2.0,0.0
5558,50.0,0.0,150.0,2.0,0.0
5559,83.0,91.0,180.0,0.0,0.0
5560,47.0,0.0,150.0,2.0,0.0
5561,59.0,29.0,150.0,2.0,0.0
5562,86.0,120.0,180.0,0.0,0.0
5563,91.0,91.0,180.0,0.0,0.0
5564,43.0,0.0,150.0,2.0,0.0
5565,55.0,29.0,150.0,2.0,0.0
5566,95.0,120.0,180.0,0.0,0.0
5567,83.0,91.0,180.0,0.0,0.0
5568,40.0,0.0,150.0,2.0,0.0
5569,52.0,149.0,150.0,2.0,0.0
5570,96.0,91.0,180.0,0.0,0.0
5571,93.0,120.0,180.0,0.0,0.0
5572,57.0,0.0,150.0,2.0,0.0
5573,45.0,29.0,150.0,2.0,0.0
5574,88.0,91.0,180.0,0.0,0.0
5575,84.0,120.0,180.0,0.0,0.0
5576,48.0,29.0,150.0,2.0,0.0
5577,60.0,0.0,150.0,2.0,0.0
5578,96.0,91.0,180.0,0.0,0.0
5579,38.0,149.0,150.0,2.0,0.0
5580,50.0,0.0,150.0,2.0,0.0
5581,98.0,91.0,180.0,0.0,0.0
5582,95.0,120.0,180.0,0.0,0.0
5583,43.0,0.0,150.0,2.0,0.0
5584,55.0,29.0,150.0,2.0,0.0
5585,91.0,91.0,180.0,0.0,0.0
5586,59.0,29.0,150.0,2.0,0.0
5587,47.0,0.0,150.0,2.0,0.0
5588,86.0,120.0,180.0,0.0,0.0
5589,98.0,91.0,180.0,0.0,0.0
5590,38.0,0.0,150.0,2.0,0.0
5591,50.0,149.0,150.0,2.0,0.0
5592,98.0,91.0,180.0,0.0,0.0
5593,57.0,29.0,150.0,2.0,0.0
5594,93.0,120.0,180.0,0.0,0.0
5595,45.0,0.0,150.0,2.0,0.0
5596,90.0,91.0,180.0,0.0,0.0
5597,62.0,29.0,150.0,2.0,0.0
5598,86.0,55.0,180.0,0.0,0.0
5599,50.0,0.0,150.0,2.0,0.0
5600,98.0,336.0,120.0,0.0,0.0
5601,59.0,8.0,330.0,0.0,0.0
5602,43.0,60.0,5340.0,2.0,0.0
5603,67.0,120.0,210.0,0.0,0.0
5604,55.0,104.0,240.0,2.0,0.0
5605,59.0,0.0,240.0,2.0,0.0
5606,62.0,16.0,210.0,0.0,0.0
5607,71.0,120.0,210.0,0.0,0.0
5608,67.0,16.0,210.0,0.0,0.0
5609,62.0,0.0,240.0,2.0,0.0
5610,74.0,120.0,210.0,0.0,0.0
5611,71.0,16.0,210.0,0.0,0.0
5612,59.0,104.0,15.0,2.0,0.0
5613,67.0,0.0,240.0,2.0,0.0
5614,55.0,0.0,15.0,2.0,0.0
5615,62.0,0.0,240.0,2.0,0.0
5616,79.0,120.0,210.0,0.0,0.0
5617,74.0,16.0,210.0,0.0,0.0
5618,59.0,104.0,15.0,2.0,0.0
5619,83.0,120.0,210.0,0.0,0.0
5620,62.0,0.0,15.0,2.0,0.0
5621,59.0,104.0,15.0,2.0,0.0
5622,67.0,0.0,15.0,2.0,0.0
5623,55.0,0.0,15.0,2.0,0.0
5624,79.0,16.0,210.0,0.0,0.0
5625,86.0,120.0,210.0,0.0,0.0
5626,59.0,104.0,15.0,2.0,0.0
5627,67.0,0.0,15.0,2.0,0.0
5628,55.0,0.0,15.0,2.0,0.0
5629,83.0,16.0,210.0,0.0,0.0
5630,91.0,120.0,210.0,0.0,0.0
5631,55.0,0.0,15.0,2.0,0.0
5632,62.0,0.0,15.0,2.0,0.0
5633,59.0,0.0,15.0,2.0,0.0
5634,67.0,104.0,15.0,2.0,0.0
5635,86.0,16.0,210.0,0.0,0.0
5636,95.0,120.0,210.0,0.0,0.0
5637,67.0,0.0,240.0,2.0,0.0
5638,55.0,0.0,240.0,2.0,0.0
5639,59.0,120.0,240.0,2.0,0.0
5640,62.0,0.0,240.0,2.0,0.0
5641,91.0,16.0,210.0,0.0,0.0
5642,98.0,0.0,120.0,0.0,0.0
5643,60.0,0.0,240.0,2.0,0.0
5644,97.0,120.0,120.0,0.0,0.0
5645,62.0,0.0,240.0,2.0,0.0
5646,55.0,0.0,240.0,2.0,0.0
5647,57.0,0.0,240.0,2.0,0.0
5648,98.0,120.0,120.0,0.0,0.0
5649,66.0,0.0,15.0,2.0,0.0
5650,62.0,0.0,240.0,2.0,0.0
5651,55.0,0.0,240.0,2.0,0.0
5652,60.0,0.0,240.0,2.0,0.0
5653,97.0,120.0,120.0,0.0,0.0
5654,98.0,0.0,120.0,0.0,0.0
5655,57.0,0.0,15.0,2.0,0.0
5656,97.0,120.0,120.0,0.0,0.0
5657,66.0,120.0,15.0,2.0,0.0
5658,55.0,0.0,240.0,2.0,0.0
5659,60.0,0.0,240.0,2.0,0.0
5660,98.0,120.0,120.0,0.0,0.0
5661,62.0,0.0,15.0,2.0,0.0
5662,100.0,120.0,120.0,0.0,0.0
5663,98.0,120.0,120.0,0.0,0.0
5664,59.0,0.0,15.0,2.0,0.0
5665,67.0,0.0,15.0,2.0,0.0
5666,55.0,0.0,15.0,2.0,0.0
5667,96.0,120.0,120.0,0.0,0.0
5668,62.0,0.0,240.0,2.0,0.0
5669,95.0,120.0,120.0,0.0,0.0
5670,55.0,0.0,15.0,2.0,0.0
5671,93.0,120.0,120.0,0.0,0.0
5672,91.0,0.0,120.0,0.0,0.0
5673,59.0,0.0,15.0,2.0,0.0
5674,55.0,0.0,15.0,2.0,0.0
5675,62.0,0.0,15.0,2.0,0.0
5676,67.0,120.0,15.0,2.0,0.0
5677,90.0,120.0,120.0,0.0,0.0
5678,88.0,120.0,120.0,0.0,0.0
5679,59.0,0.0,15.0,2.0,0.0
5680,62.0,0.0,15.0,2.0,0.0
5681,67.0,0.0,15.0,2.0,0.0
5682,55.0,0.0,15.0,2.0,0.0
5683,86.0,120.0,120.0,0.0,0.0
5684,84.0,0.0,120.0,0.0,0.0
5685,62.0,0.0,240.0,2.0,0.0
5686,83.0,120.0,120.0,0.0,0.0
5687,67.0,0.0,15.0,2.0,0.0
5688,55.0,120.0,15.0,2.0,0.0
5689,81.0,0.0,120.0,0.0,0.0
5690,79.0,120.0,120.0,0.0,0.0
5691,59.0,120.0,15.0,2.0,0.0
5692,67.0,0.0,15.0,2.0,0.0
5693,55.0,0.0,15.0,2.0,0.0
5694,78.0,0.0,120.0,0.0,0.0
5695,55.0,0.0,15.0,2.0,0.0
5696,59.0,0.0,15.0,2.0,0.0
5697,62.0,0.0,15.0,2.0,0.0
5698,67.0,120.0,15.0,2.0,0.0
5699,76.0,120.0,120.0,0.0,0.0
5700,74.0,0.0,120.0,0.0,0.0
5701,55.0,0.0,15.0,2.0,0.0
5702,67.0,120.0,15.0,2.0,0.0
5703,62.0,0.0,15.0,2.0,0.0
5704,59.0,0.0,15.0,2.0,0.0
5705,72.0,120.0,120.0,0.0,0.0
5706,71.0,0.0,120.0,0.0,0.0
5707,55.0,120.0,15.0,2.0,0.0
5708,69.0,120.0,120.0,0.0,0.0
5709,62.0,0.0,240.0,2.0,0.0
5710,60.0,0.0,240.0,2.0,0.0
5711,67.0,60.0,120.0,0.0,0.0
5712,66.0,120.0,120.0,0.0,0.0
5713,57.0,0.0,15.0,2.0,0.0
5714,55.0,0.0,240.0,2.0,0.0
5715,62.0,0.0,240.0,2.0,0.0
5716,69.0,0.0,120.0,0.0,0.0
5717,72.0,120.0,120.0,0.0,0.0
5718,60.0,120.0,15.0,2.0,0.0
5719,57.0,0.0,15.0,2.0,0.0
5720,62.0,0.0,240.0,2.0,0.0
5721,55.0,0.0,240.0,2.0,0.0
5722,66.0,336.0,120.0,0.0,0.0
5723,59.0,8.0,330.0,0.0,0.0
5724,43.0,60.0,5340.0,2.0,0.0
5725,67.0,120.0,210.0,0.0,0.0
5726,62.0,16.0,210.0,0.0,0.0
5727,59.0,104.0,240.0,2.0,0.0
5728,71.0,120.0,210.0,0.0,0.0
5729,62.0,104.0,240.0,2.0,0.0
5730,55.0,0.0,15.0,2.0,0.0
5731,67.0,16.0,210.0,0.0,0.0
5732,59.0,0.0,240.0,2.0,0.0
5733,74.0,120.0,210.0,0.0,0.0
5734,67.0,104.0,240.0,2.0,0.0
5735,62.0,0.0,240.0,2.0,0.0
5736,55.0,0.0,240.0,2.0,0.0
5737,59.0,0.0,240.0,2.0,0.0
5738,71.0,16.0,210.0,0.0,0.0
5739,79.0,120.0,210.0,0.0,0.0
5740,67.0,104.0,240.0,2.0,0.0
5741,62.0,0.0,240.0,2.0,0.0
5742,55.0,0.0,240.0,2.0,0.0
5743,74.0,16.0,210.0,0.0,0.0
5744,59.0,0.0,240.0,2.0,0.0
5745,83.0,120.0,210.0,0.0,0.0
5746,59.0,0.0,240.0,2.0,0.0
5747,55.0,0.0,240.0,2.0,0.0
5748,79.0,16.0,210.0,0.0,0.0
5749,86.0,120.0,210.0,0.0,0.0
5750,59.0,0.0,240.0,2.0,0.0
5751,62.0,104.0,15.0,2.0,0.0
5752,55.0,0.0,240.0,2.0,0.0
5753,67.0,0.0,15.0,2.0,0.0
5754,83.0,16.0,210.0,0.0,0.0
5755,91.0,120.0,210.0,0.0,0.0
5756,86.0,16.0,210.0,0.0,0.0
5757,55.0,0.0,240.0,2.0,0.0
5758,67.0,104.0,240.0,2.0,0.0
5759,62.0,0.0,240.0,2.0,0.0
5760,59.0,0.0,240.0,2.0,0.0
5761,95.0,120.0,210.0,0.0,0.0
5762,91.0,16.0,210.0,0.0,0.0
5763,59.0,120.0,240.0,2.0,0.0
5764,62.0,0.0,240.0,2.0,0.0
5765,67.0,0.0,240.0,2.0,0.0
5766,98.0,0.0,120.0,0.0,0.0
5767,55.0,0.0,15.0,2.0,0.0
5768,97.0,120.0,120.0,0.0,0.0
5769,62.0,0.0,240.0,2.0,0.0
5770,98.0,0.0,120.0,0.0,0.0
5771,97.0,120.0,120.0,0.0,0.0
5772,55.0,120.0,15.0,2.0,0.0
5773,65.0,0.0,15.0,2.0,0.0
5774,59.0,0.0,15.0,2.0,0.0
5775,98.0,0.0,120.0,0.0,0.0
5776,59.0,0.0,15.0,2.0,0.0
5777,62.0,0.0,15.0,2.0,0.0
5778,65.0,0.0,15.0,2.0,0.0
5779,55.0,0.0,240.0,2.0,0.0
5780,97.0,120.0,120.0,0.0,0.0
5781,98.0,0.0,120.0,0.0,0.0
5782,55.0,0.0,240.0,2.0,0.0
5783,65.0,0.0,15.0,2.0,0.0
5784,62.0,120.0,15.0,2.0,0.0
5785,59.0,0.0,15.0,2.0,0.0
5786,100.0,120.0,120.0,0.0,0.0
5787,98.0,120.0,120.0,0.0,0.0
5788,65.0,0.0,15.0,2.0,0.0
5789,62.0,0.0,15.0,2.0,0.0
5790,59.0,0.0,15.0,2.0,0.0
5791,96.0,120.0,120.0,0.0,0.0
5792,95.0,120.0,120.0,0.0,0.0
5793,65.0,0.0,15.0,2.0,0.0
5794,55.0,0.0,15.0,2.0,0.0
5795,59.0,0.0,240.0,2.0,0.0
5796,93.0,120.0,120.0,0.0,0.0
5797,91.0,0.0,120.0,0.0,0.0
5798,90.0,120.0,120.0,0.0,0.0
5799,65.0,0.0,240.0,2.0,0.0
5800,55.0,0.0,240.0,2.0,0.0
5801,62.0,120.0,15.0,2.0,0.0
5802,59.0,0.0,240.0,2.0,0.0
5803,88.0,120.0,120.0,0.0,0.0
5804,62.0,0.0,240.0,2.0,0.0
5805,86.0,120.0,120.0,0.0,0.0
5806,84.0,0.0,120.0,0.0,0.0
5807,59.0,0.0,15.0,2.0,0.0
5808,83.0,120.0,120.0,0.0,0.0
5809,65.0,120.0,15.0,2.0,0.0
5810,55.0,0.0,15.0,2.0,0.0
5811,62.0,0.0,240.0,2.0,0.0
5812,81.0,120.0,120.0,0.0,0.0
5813,59.0,0.0,15.0,2.0,0.0
5814,62.0,0.0,240.0,2.0,0.0
5815,65.0,0.0,240.0,2.0,0.0
5816,79.0,120.0,120.0,0.0,0.0
5817,55.0,120.0,240.0,2.0,0.0
5818,78.0,0.0,120.0,0.0,0.0
5819,76.0,120.0,120.0,0.0,0.0
5820,65.0,0.0,240.0,2.0,0.0
5821,59.0,0.0,240.0,2.0,0.0
5822,62.0,0.0,240.0,2.0,0.0
5823,74.0,120.0,120.0,0.0,0.0
5824,64.0,0.0,240.0,2.0,0.0
5825,60.0,0.0,240.0,2.0,0.0
5826,55.0,120.0,240.0,2.0,0.0
5827,72.0,120.0,120.0,0.0,0.0
5828,71.0,0.0,120.0,0.0,0.0
5829,69.0,120.0,120.0,0.0,0.0
5830,67.0,0.0,120.0,0.0,0.0
5831,63.0,0.0,15.0,2.0,0.0
5832,60.0,0.0,15.0,2.0,0.0
5833,57.0,60.0,15.0,2.0,0.0
5834,55.0,0.0,15.0,2.0,0.0
5835,66.0,120.0,120.0,0.0,0.0
5836,69.0,0.0,120.0,0.0,0.0
5837,55.0,0.0,15.0,2.0,0.0
5838,60.0,720.0,240.0,2.0,0.0
5839,72.0,120.0,120.0,0.0,0.0
5840,57.0,0.0,240.0,2.0,0.0
5841,62.0,0.0,240.0,2.0,0.0
5842,66.0,0.0,120.0,0.0,0.0
5843,67.0,0.0,720.0,0.0,0.0
5844,55.0,0.0,15.0,2.0,0.0
5845,43.0,720.0,720.0,2.0,0.0
5846,67.0,0.0,720.0,2.0,0.0
5847,79.0,720.0,720.0,0.0,0.0
5848,70.0,720.0,720.0,2.0,0.0
5849,82.0,0.0,720.0,0.0,0.0
5850,87.0,720.0,720.0,0.0,0.0
5851,75.0,0.0,720.0,2.0,0.0
5852,82.0,0.0,720.0,0.0,0.0
5853,70.0,720.0,720.0,2.0,0.0
5854,67.0,0.0,720.0,2.0,0.0
5855,79.0,720.0,720.0,0.0,0.0
5856,63.0,0.0,720.0,2.0,0.0
5857,75.0,720.0,720.0,0.0,0.0
5858,58.0,0.0,720.0,2.0,0.0
5859,70.0,720.0,720.0,0.0,0.0
5860,66.0,0.0,720.0,0.0,0.0
5861,42.0,0.0,720.0,2.0,0.0
5862,54.0,720.0,720.0,2.0,0.0
5863,66.0,720.0,720.0,2.0,0.0
5864,78.0,0.0,720.0,0.0,0.0
5865,69.0,0.0,720.0,2.0,0.0
5866,81.0,720.0,720.0,0.0,0.0
5867,74.0,720.0,720.0,2.0,0.0
5868,86.0,0.0,720.0,0.0,0.0
5869,81.0,720.0,720.0,0.0,0.0
5870,69.0,0.0,720.0,2.0,0.0
5871,66.0,720.0,720.0,2.0,0.0
5872,78.0,0.0,720.0,0.0,0.0
5873,74.0,720.0,720.0,0.0,0.0
5874,62.0,0.0,720.0,2.0,0.0
5875,57.0,240.0,720.0,2.0,0.0
5876,69.0,0.0,720.0,0.0,0.0
5877,82.0,0.0,240.0,0.0,0.0
5878,75.0,0.0,15.0,2.0,0.0
5879,70.0,240.0,15.0,2.0,0.0
5880,67.0,0.0,15.0,2.0,0.0
5881,93.0,120.0,60.0,0.0,0.0
5882,75.0,0.0,15.0,2.0,0.0
5883,70.0,0.0,15.0,2.0,0.0
5884,67.0,0.0,15.0,2.0,0.0
5885,91.0,120.0,120.0,0.0,0.0
5886,90.0,120.0,120.0,0.0,0.0
5887,75.0,0.0,15.0,2.0,0.0
5888,91.0,120.0,120.0,0.0,0.0
5889,75.0,240.0,15.0,2.0,0.0
5890,70.0,0.0,15.0,2.0,0.0
5891,67.0,0.0,15.0,2.0,0.0
5892,96.0,0.0,60.0,0.0,0.0
5893,75.0,120.0,15.0,2.0,0.0
5894,70.0,0.0,240.0,2.0,0.0
5895,94.0,120.0,120.0,0.0,0.0
5896,93.0,120.0,120.0,0.0,0.0
5897,67.0,0.0,15.0,2.0,0.0
5898,75.0,0.0,15.0,2.0,0.0
5899,94.0,120.0,120.0,0.0,0.0
5900,70.0,0.0,240.0,2.0,0.0
5901,67.0,240.0,15.0,2.0,0.0
5902,70.0,0.0,240.0,2.0,0.0
5903,100.0,0.0,60.0,0.0,0.0
5904,67.0,0.0,15.0,2.0,0.0
5905,99.0,120.0,120.0,0.0,0.0
5906,75.0,120.0,15.0,2.0,0.0
5907,98.0,0.0,120.0,0.0,0.0
5908,67.0,0.0,15.0,2.0,0.0
5909,70.0,120.0,15.0,2.0,0.0
5910,75.0,0.0,15.0,2.0,0.0
5911,99.0,120.0,120.0,0.0,0.0
5912,75.0,240.0,15.0,2.0,0.0
5913,70.0,0.0,15.0,2.0,0.0
5914,67.0,0.0,15.0,2.0,0.0
5915,96.0,0.0,60.0,0.0,0.0
5916,70.0,0.0,15.0,2.0,0.0
5917,75.0,120.0,15.0,2.0,0.0
5918,67.0,0.0,15.0,2.0,0.0
5919,94.0,120.0,120.0,0.0,0.0
5920,93.0,120.0,120.0,0.0,0.0
5921,94.0,120.0,120.0,0.0,0.0
5922,70.0,0.0,15.0,2.0,0.0
5923,67.0,0.0,240.0,2.0,0.0
5924,75.0,240.0,15.0,2.0,0.0
5925,93.0,0.0,60.0,0.0,0.0
5926,70.0,0.0,15.0,2.0,0.0
5927,75.0,0.0,15.0,2.0,0.0
5928,91.0,120.0,120.0,0.0,0.0
5929,67.0,120.0,15.0,2.0,0.0
5930,90.0,120.0,120.0,0.0,0.0
5931,70.0,0.0,240.0,2.0,0.0
5932,91.0,120.0,120.0,0.0,0.0
5933,67.0,0.0,240.0,2.0,0.0
5934,67.0,0.0,240.0,2.0,0.0
5935,75.0,240.0,15.0,2.0,0.0
5936,89.0,120.0,60.0,0.0,0.0
5937,67.0,120.0,240.0,2.0,0.0
5938,70.0,0.0,15.0,2.0,0.0
5939,87.0,120.0,120.0,0.0,0.0
5940,86.0,0.0,120.0,0.0,0.0
5941,75.0,0.0,15.0,2.0,0.0
5942,87.0,120.0,120.0,0.0,0.0
5943,70.0,0.0,240.0,2.0,0.0
5944,67.0,240.0,15.0,2.0,0.0
5945,84.0,0.0,60.0,0.0,0.0
5946,70.0,120.0,15.0,2.0,0.0
5947,67.0,0.0,240.0,2.0,0.0
5948,75.0,0.0,15.0,2.0,0.0
5949,82.0,120.0,120.0,0.0,0.0
5950,81.0,0.0,120.0,0.0,0.0
5951,70.0,0.0,15.0,2.0,0.0
5952,75.0,240.0,15.0,2.0,0.0
5953,82.0,0.0,480.0,0.0,0.0
5954,70.0,0.0,15.0,2.0,0.0
5955,75.0,0.0,240.0,2.0,0.0
5956,67.0,240.0,15.0,2.0,0.0
5957,67.0,0.0,240.0,2.0,0.0
5958,70.0,240.0,240.0,2.0,0.0
5959,73.0,0.0,240.0,2.0,0.0
5960,81.0,240.0,240.0,0.0,0.0
5961,66.0,0.0,240.0,2.0,0.0
5962,74.0,0.0,15.0,2.0,0.0
5963,69.0,0.0,15.0,2.0,0.0
5964,66.0,0.0,240.0,2.0,0.0
5965,91.0,0.0,60.0,0.0,0.0
5966,74.0,120.0,15.0,2.0,0.0
5967,69.0,0.0,15.0,2.0,0.0
5968,90.0,120.0,120.0,0.0,0.0
5969,66.0,0.0,240.0,2.0,0.0
5970,88.0,0.0,120.0,0.0,0.0
5971,90.0,120.0,120.0,0.0,0.0
5972,74.0,120.0,15.0,2.0,0.0
5973,66.0,0.0,240.0,2.0,0.0
5974,69.0,240.0,15.0,2.0,0.0
5975,94.0,0.0,60.0,0.0,0.0
5976,66.0,0.0,15.0,2.0,0.0
5977,74.0,120.0,15.0,2.0,0.0
5978,93.0,120.0,120.0,0.0,0.0
5979,92.0,0.0,120.0,0.0,0.0
5980,69.0,120.0,15.0,2.0,0.0
5981,74.0,0.0,15.0,2.0,0.0
5982,66.0,0.0,240.0,2.0,0.0
5983,93.0,120.0,120.0,0.0,0.0
5984,74.0,120.0,240.0,2.0,0.0
5985,69.0,0.0,240.0,2.0,0.0
5986,66.0,0.0,240.0,2.0,0.0
5987,99.0,0.0,60.0,0.0,0.0
5988,66.0,0.0,240.0,2.0,0.0
5989,98.0,120.0,120.0,0.0,0.0
5990,97.0,0.0,120.0,0.0,0.0
5991,69.0,120.0,15.0,2.0,0.0
5992,74.0,0.0,15.0,2.0,0.0
5993,98.0,120.0,120.0,0.0,0.0
5994,69.0,240.0,15.0,2.0,0.0
5995,66.0,0.0,15.0,2.0,0.0
5996,74.0,0.0,240.0,2.0,0.0
5997,94.0,120.0,60.0,0.0,0.0
5998,66.0,0.0,15.0,2.0,0.0
5999,93.0,120.0,120.0,0.0,0.0
6000,92.0,0.0,120.0,0.0,0.0
6001,93.0,120.0,120.0,0.0,0.0
6002,69.0,120.0,15.0,2.0,0.0
6003,66.0,0.0,15.0,2.0,0.0
6004,74.0,0.0,15.0,2.0,0.0
6005,69.0,0.0,240.0,2.0,0.0
6006,74.0,0.0,240.0,2.0,0.0
6007,66.0,0.0,240.0,2.0,0.0
6008,91.0,120.0,60.0,0.0,0.0
6009,74.0,120.0,240.0,2.0,0.0
6010,69.0,0.0,240.0,2.0,0.0
6011,66.0,0.0,240.0,2.0,0.0
6012,90.0,120.0,120.0,0.0,0.0
6013,88.0,0.0,120.0,0.0,0.0
6014,90.0,120.0,120.0,0.0,0.0
6015,69.0,0.0,15.0,2.0,0.0
6016,66.0,0.0,15.0,2.0,0.0
6017,74.0,240.0,15.0,2.0,0.0
6018,87.0,120.0,60.0,0.0,0.0
6019,86.0,120.0,120.0,0.0,0.0
6020,85.0,0.0,120.0,0.0,0.0
6021,86.0,120.0,120.0,0.0,0.0
6022,69.0,120.0,15.0,2.0,0.0
6023,66.0,0.0,15.0,2.0,0.0
6024,74.0,0.0,15.0,2.0,0.0
6025,74.0,240.0,15.0,2.0,0.0
6026,66.0,0.0,15.0,2.0,0.0
6027,69.0,0.0,15.0,2.0,0.0
6028,82.0,120.0,60.0,0.0,0.0
6029,69.0,0.0,15.0,2.0,0.0
6030,66.0,0.0,15.0,2.0,0.0
6031,74.0,0.0,15.0,2.0,0.0
6032,81.0,120.0,120.0,0.0,0.0
6033,80.0,120.0,120.0,0.0,0.0
6034,81.0,120.0,120.0,0.0,0.0
6035,66.0,0.0,15.0,2.0,0.0
6036,69.0,0.0,15.0,2.0,0.0
6037,74.0,0.0,15.0,2.0,0.0
6038,62.0,240.0,240.0,2.0,0.0
6039,60.0,0.0,240.0,2.0,0.0
6040,82.0,120.0,240.0,0.0,0.0
6041,74.0,120.0,120.0,1.0,0.0
6042,83.0,0.0,720.0,0.0,0.0
6043,59.0,0.0,480.0,2.0,0.0
6044,55.0,120.0,1440.0,2.0,0.0
6045,76.0,120.0,120.0,1.0,0.0
6046,74.0,120.0,120.0,1.0,0.0
6047,76.0,120.0,120.0,1.0,0.0
6048,64.0,120.0,240.0,2.0,0.0
6049,74.0,120.0,120.0,1.0,0.0
6050,76.0,0.0,120.0,1.0,0.0
6051,79.0,0.0,720.0,0.0,0.0
6052,62.0,0.0,480.0,2.0,0.0
6053,74.0,120.0,120.0,1.0,0.0
6054,76.0,120.0,120.0,1.0,0.0
6055,74.0,120.0,120.0,1.0,0.0
6056,76.0,120.0,120.0,1.0,0.0
6057,59.0,0.0,240.0,2.0,0.0
6058,74.0,120.0,120.0,1.0,0.0
6059,76.0,0.0,120.0,1.0,0.0
6060,74.0,120.0,120.0,1.0,0.0
6061,50.0,0.0,1440.0,2.0,0.0
6062,57.0,0.0,480.0,2.0,0.0
6063,78.0,0.0,720.0,0.0,0.0
6064,76.0,120.0,120.0,1.0,0.0
6065,74.0,120.0,120.0,1.0,0.0
6066,76.0,120.0,120.0,1.0,0.0
6067,64.0,120.0,240.0,2.0,0.0
6068,74.0,120.0,120.0,1.0,0.0
6069,76.0,0.0,120.0,1.0,0.0
6070,74.0,120.0,120.0,1.0,0.0
6071,84.0,120.0,720.0,0.0,0.0
6072,62.0,0.0,480.0,2.0,0.0
6073,76.0,120.0,120.0,1.0,0.0
6074,74.0,120.0,120.0,1.0,0.0
6075,76.0,120.0,120.0,1.0,0.0
6076,74.0,120.0,120.0,1.0,0.0
6077,57.0,0.0,240.0,2.0,0.0
6078,76.0,0.0,120.0,1.0,0.0
6079,83.0,0.0,720.0,0.0,0.0
6080,55.0,0.0,1440.0,2.0,0.0
6081,59.0,120.0,480.0,2.0,0.0
6082,74.0,120.0,120.0,1.0,0.0
6083,76.0,120.0,120.0,1.0,0.0
6084,74.0,120.0,120.0,1.0,0.0
6085,76.0,0.0,120.0,1.0,0.0
6086,64.0,0.0,240.0,2.0,0.0
6087,74.0,120.0,120.0,1.0,0.0
6088,76.0,120.0,120.0,1.0,0.0
6089,79.0,0.0,720.0,0.0,0.0
6090,74.0,120.0,120.0,1.0,0.0
6091,62.0,0.0,480.0,2.0,0.0
6092,76.0,120.0,120.0,1.0,0.0
6093,74.0,120.0,120.0,1.0,0.0
6094,76.0,120.0,120.0,1.0,0.0
6095,74.0,120.0,120.0,1.0,0.0
6096,59.0,120.0,240.0,2.0,0.0
6097,76.0,0.0,120.0,1.0,0.0
6098,78.0,0.0,720.0,0.0,0.0
6099,57.0,0.0,480.0,2.0,0.0
6100,50.0,0.0,1440.0,2.0,0.0
6101,74.0,120.0,120.0,1.0,0.0
6102,76.0,120.0,120.0,1.0,0.0
6103,74.0,120.0,120.0,1.0,0.0
6104,76.0,120.0,120.0,1.0,0.0
6105,64.0,120.0,240.0,2.0,0.0
6106,74.0,120.0,120.0,1.0,0.0
6107,76.0,0.0,120.0,1.0,0.0
6108,84.0,0.0,720.0,0.0,0.0
6109,74.0,120.0,120.0,1.0,0.0
6110,62.0,120.0,480.0,2.0,0.0
6111,76.0,120.0,120.0,1.0,0.0
6112,74.0,120.0,120.0,1.0,0.0
6113,76.0,0.0,120.0,1.0,0.0
6114,74.0,120.0,120.0,1.0,0.0
6115,57.0,0.0,240.0,2.0,0.0
6116,76.0,120.0,120.0,1.0,0.0
6117,83.0,120.0,120.0,0.0,0.0
6118,74.0,0.0,120.0,0.0,0.0
6119,55.0,0.0,240.0,2.0,0.0
6120,76.0,0.0,120.0,0.0,0.0
6121,59.0,0.0,240.0,2.0,0.0
6122,78.0,120.0,120.0,0.0,0.0
6123,67.0,0.0,240.0,2.0,0.0
6124,62.0,120.0,15.0,2.0,0.0
6125,79.0,80.0,120.0,0.0,0.0
6126,67.0,120.0,240.0,2.0,0.0
6127,62.0,0.0,240.0,2.0,0.0
6128,59.0,0.0,240.0,2.0,0.0
6129,81.0,80.0,90.0,0.0,0.0
6130,83.0,80.0,90.0,0.0,0.0
6131,84.0,0.0,90.0,0.0,0.0
6132,86.0,120.0,120.0,0.0,0.0
6133,67.0,0.0,240.0,2.0,0.0
6134,62.0,0.0,240.0,2.0,0.0
6135,84.0,80.0,120.0,0.0,0.0
6136,59.0,0.0,15.0,2.0,0.0
6137,83.0,80.0,90.0,0.0,0.0
6138,67.0,0.0,240.0,2.0,0.0
6139,62.0,80.0,240.0,2.0,0.0
6140,81.0,80.0,90.0,0.0,0.0
6141,79.0,0.0,90.0,0.0,0.0
6142,59.0,0.0,15.0,2.0,0.0
6143,78.0,80.0,90.0,0.0,0.0
6144,63.0,120.0,240.0,2.0,0.0
6145,67.0,0.0,240.0,2.0,0.0
6146,76.0,80.0,90.0,0.0,0.0
6147,75.0,0.0,90.0,0.0,0.0
6148,76.0,120.0,120.0,0.0,0.0
6149,79.0,120.0,120.0,0.0,0.0
6150,64.0,0.0,240.0,2.0,0.0
6151,81.0,120.0,120.0,0.0,0.0
6152,60.0,0.0,240.0,2.0,0.0
6153,83.0,0.0,120.0,0.0,0.0
6154,67.0,120.0,15.0,2.0,0.0
6155,84.0,120.0,120.0,0.0,0.0
6156,86.0,0.0,120.0,0.0,0.0
6157,67.0,120.0,15.0,2.0,0.0
6158,60.0,0.0,15.0,2.0,0.0
6159,64.0,0.0,15.0,2.0,0.0
6160,88.0,120.0,120.0,0.0,0.0
6161,86.0,80.0,120.0,0.0,0.0
6162,67.0,0.0,15.0,2.0,0.0
6163,60.0,0.0,15.0,2.0,0.0
6164,64.0,0.0,15.0,2.0,0.0
6165,84.0,80.0,90.0,0.0,0.0
6166,83.0,80.0,90.0,0.0,0.0
6167,81.0,0.0,90.0,0.0,0.0
6168,67.0,80.0,15.0,2.0,0.0
6169,79.0,80.0,90.0,0.0,0.0
6170,69.0,120.0,240.0,2.0,0.0
6171,61.0,0.0,240.0,2.0,0.0
6172,78.0,80.0,90.0,0.0,0.0
6173,76.0,0.0,90.0,0.0,0.0
6174,74.0,120.0,120.0,0.0,0.0
6175,83.0,120.0,120.0,0.0,0.0
6176,79.0,120.0,120.0,0.0,0.0
6177,62.0,0.0,240.0,2.0,0.0
6178,67.0,0.0,240.0,2.0,0.0
6179,86.0,120.0,120.0,0.0,0.0
6180,71.0,0.0,15.0,2.0,0.0
6181,83.0,120.0,120.0,0.0,0.0
6182,91.0,0.0,120.0,0.0,0.0
6183,86.0,120.0,120.0,0.0,0.0
6184,62.0,0.0,15.0,2.0,0.0
6185,71.0,120.0,15.0,2.0,0.0
6186,67.0,0.0,15.0,2.0,0.0
6187,95.0,120.0,120.0,0.0,0.0
6188,62.0,0.0,15.0,2.0,0.0
6189,67.0,0.0,15.0,2.0,0.0
6190,71.0,0.0,240.0,2.0,0.0
6191,91.0,120.0,120.0,0.0,0.0
6192,98.0,120.0,120.0,0.0,0.0
6193,95.0,120.0,120.0,0.0,0.0
6194,67.0,0.0,240.0,2.0,0.0
6195,71.0,0.0,240.0,2.0,0.0
6196,91.0,240.0,120.0,0.0,0.0
6197,67.0,0.0,240.0,2.0,0.0
6198,62.0,0.0,15.0,2.0,0.0
6199,86.0,240.0,480.0,0.0,0.0
6200,67.0,0.0,240.0,2.0,0.0
6201,71.0,240.0,15.0,2.0,0.0
6202,62.0,0.0,240.0,2.0,0.0
6203,67.0,142.0,240.0,2.0,0.0
6204,71.0,0.0,240.0,2.0,0.0
6205,62.0,0.0,240.0,2.0,0.0
6206,93.0,75.0,150.0,0.0,0.0
6207,95.0,23.0,150.0,0.0,0.0
6208,93.0,68.0,150.0,0.0,0.0
6209,62.0,67.0,15.0,2.0,0.0
6210,66.0,0.0,15.0,2.0,0.0
6211,72.0,0.0,15.0,2.0,0.0
6212,95.0,97.0,120.0,0.0,0.0
6213,93.0,8.0,150.0,0.0,0.0
6214,95.0,68.0,150.0,0.0,0.0
6215,66.0,0.0,240.0,2.0,0.0
6216,62.0,67.0,15.0,2.0,0.0
6217,93.0,82.0,120.0,0.0,0.0
6218,72.0,120.0,240.0,2.0,0.0
6219,91.0,23.0,150.0,0.0,0.0
6220,93.0,0.0,90.0,0.0,0.0
6221,95.0,0.0,720.0,0.0,0.0
6222,86.0,120.0,120.0,1.0,0.0
6223,71.0,120.0,480.0,2.0,0.0
6224,67.0,0.0,1440.0,2.0,0.0
6225,88.0,120.0,120.0,1.0,0.0
6226,86.0,120.0,120.0,1.0,0.0
6227,88.0,0.0,120.0,1.0,0.0
6228,86.0,120.0,120.0,1.0,0.0
6229,76.0,0.0,240.0,2.0,0.0
6230,88.0,120.0,120.0,1.0,0.0
6231,74.0,120.0,480.0,2.0,0.0
6232,91.0,0.0,720.0,0.0,0.0
6233,86.0,120.0,120.0,1.0,0.0
6234,88.0,120.0,120.0,1.0,0.0
6235,86.0,120.0,120.0,1.0,0.0
6236,88.0,0.0,120.0,1.0,0.0
6237,71.0,0.0,240.0,2.0,0.0
6238,86.0,120.0,120.0,1.0,0.0
6239,88.0,120.0,120.0,1.0,0.0
6240,69.0,120.0,480.0,2.0,0.0
6241,86.0,120.0,120.0,1.0,0.0
6242,62.0,120.0,1440.0,2.0,0.0
6243,90.0,0.0,720.0,0.0,0.0
6244,88.0,120.0,120.0,1.0,0.0
6245,86.0,120.0,120.0,1.0,0.0
6246,88.0,0.0,120.0,1.0,0.0
6247,86.0,120.0,120.0,1.0,0.0
6248,76.0,120.0,240.0,2.0,0.0
6249,88.0,0.0,120.0,1.0,0.0
6250,86.0,120.0,120.0,1.0,0.0
6251,74.0,0.0,480.0,2.0,0.0
6252,96.0,0.0,720.0,0.0,0.0
6253,88.0,120.0,120.0,1.0,0.0
6254,86.0,120.0,120.0,1.0,0.0
6255,88.0,120.0,120.0,1.0,0.0
6256,69.0,0.0,240.0,2.0,0.0
6257,86.0,120.0,120.0,1.0,0.0
6258,88.0,0.0,120.0,1.0,0.0
6259,86.0,120.0,120.0,1.0,0.0
6260,95.0,0.0,720.0,0.0,0.0
6261,71.0,120.0,480.0,2.0,0.0
6262,67.0,0.0,1440.0,2.0,0.0
6263,88.0,120.0,120.0,1.0,0.0
6264,86.0,120.0,120.0,1.0,0.0
6265,88.0,0.0,120.0,1.0,0.0
6266,86.0,120.0,120.0,1.0,0.0
6267,76.0,120.0,240.0,2.0,0.0
6268,88.0,0.0,120.0,1.0,0.0
6269,91.0,0.0,720.0,0.0,0.0
6270,86.0,120.0,120.0,1.0,0.0
6271,74.0,0.0,480.0,2.0,0.0
6272,88.0,120.0,120.0,1.0,0.0
6273,86.0,120.0,120.0,1.0,0.0
6274,88.0,120.0,120.0,1.0,0.0
6275,71.0,0.0,240.0,2.0,0.0
6276,86.0,120.0,120.0,1.0,0.0
6277,88.0,120.0,120.0,1.0,0.0
6278,86.0,120.0,120.0,1.0,0.0
6279,90.0,0.0,720.0,0.0,0.0
6280,69.0,120.0,480.0,2.0,0.0
6281,62.0,0.0,1440.0,2.0,0.0
6282,88.0,120.0,120.0,1.0,0.0
6283,86.0,120.0,120.0,1.0,0.0
6284,88.0,0.0,120.0,1.0,0.0
6285,86.0,120.0,120.0,1.0,0.0
6286,76.0,0.0,240.0,2.0,0.0
6287,88.0,120.0,120.0,1.0,0.0
6288,74.0,120.0,480.0,2.0,0.0
6289,96.0,120.0,720.0,0.0,0.0
6290,86.0,120.0,120.0,1.0,0.0
6291,88.0,120.0,120.0,1.0,0.0
6292,86.0,120.0,120.0,1.0,0.0
6293,88.0,0.0,120.0,1.0,0.0
6294,86.0,120.0,120.0,1.0,0.0
6295,69.0,0.0,240.0,2.0,0.0
6296,88.0,0.0,120.0,1.0,0.0
6297,67.0,120.0,120.0,2.0,0.0
6298,71.0,120.0,120.0,2.0,0.0
6299,95.0,48.0,180.0,0.0,0.0
6300,91.0,0.0,180.0,0.0,0.0
6301,72.0,72.0,120.0,2.0,0.0
6302,74.0,120.0,120.0,2.0,0.0
6303,95.0,48.0,180.0,0.0,0.0
6304,76.0,72.0,120.0,2.0,0.0
6305,91.0,0.0,180.0,0.0,0.0
6306,78.0,120.0,120.0,2.0,0.0
6307,79.0,72.0,120.0,2.0,0.0
6308,91.0,0.0,180.0,0.0,0.0
6309,95.0,48.0,180.0,0.0,0.0
6310,78.0,120.0,120.0,2.0,0.0
6311,91.0,48.0,180.0,0.0,0.0
6312,95.0,0.0,180.0,0.0,0.0
6313,76.0,72.0,120.0,2.0,0.0
6314,74.0,120.0,120.0,2.0,0.0
6315,72.0,72.0,120.0,2.0,0.0
6316,91.0,0.0,180.0,0.0,0.0
6317,95.0,48.0,180.0,0.0,0.0
6318,71.0,120.0,120.0,2.0,0.0
6319,72.0,120.0,120.0,2.0,0.0
6320,76.0,120.0,120.0,2.0,0.0
6321,78.0,72.0,120.0,2.0,0.0
6322,93.0,48.0,180.0,0.0,0.0
6323,91.0,0.0,180.0,0.0,0.0
6324,79.0,120.0,120.0,2.0,0.0
6325,81.0,72.0,120.0,2.0,0.0
6326,91.0,48.0,180.0,0.0,0.0
6327,93.0,0.0,180.0,0.0,0.0
6328,83.0,120.0,120.0,2.0,0.0
6329,84.0,72.0,120.0,2.0,0.0
6330,91.0,0.0,180.0,0.0,0.0
6331,93.0,48.0,180.0,0.0,0.0
6332,83.0,120.0,120.0,2.0,0.0
6333,81.0,72.0,120.0,2.0,0.0
6334,91.0,0.0,180.0,0.0,0.0
6335,93.0,48.0,180.0,0.0,0.0
6336,79.0,120.0,120.0,2.0,0.0
6337,91.0,0.0,180.0,0.0,0.0
6338,78.0,72.0,120.0,2.0,0.0
6339,93.0,48.0,180.0,0.0,0.0
6340,76.0,120.0,120.0,2.0,0.0
6341,74.0,120.0,120.0,2.0,0.0
6342,62.0,120.0,120.0,2.0,0.0
6343,95.0,48.0,180.0,0.0,0.0
6344,91.0,0.0,180.0,0.0,0.0
6345,67.0,72.0,120.0,2.0,0.0
6346,71.0,120.0,120.0,2.0,0.0
6347,95.0,48.0,180.0,0.0,0.0
6348,91.0,0.0,180.0,0.0,0.0
6349,74.0,72.0,120.0,2.0,0.0
6350,79.0,120.0,120.0,2.0,0.0
6351,95.0,0.0,180.0,0.0,0.0
6352,83.0,72.0,120.0,2.0,0.0
6353,91.0,48.0,180.0,0.0,0.0
6354,79.0,120.0,120.0,2.0,0.0
6355,86.0,72.0,120.0,2.0,0.0
6356,91.0,0.0,180.0,0.0,0.0
6357,95.0,48.0,180.0,0.0,0.0
6358,83.0,120.0,120.0,2.0,0.0
6359,79.0,72.0,120.0,2.0,0.0
6360,91.0,48.0,180.0,0.0,0.0
6361,95.0,0.0,180.0,0.0,0.0
6362,74.0,135.0,120.0,2.0,0.0
6363,90.0,0.0,180.0,0.0,0.0
6364,93.0,40.0,180.0,0.0,0.0
6365,81.0,57.0,120.0,2.0,0.0
6366,74.0,23.0,1410.0,2.0,0.0
6367,83.0,68.0,150.0,2.0,0.0
6368,81.0,82.0,150.0,2.0,0.0
6369,83.0,50.0,150.0,2.0,0.0
6370,93.0,0.0,180.0,0.0,0.0
6371,90.0,40.0,180.0,0.0,0.0
6372,81.0,83.0,150.0,2.0,0.0
6373,83.0,67.0,150.0,2.0,0.0
6374,90.0,18.0,180.0,0.0,0.0
6375,81.0,50.0,150.0,2.0,0.0
6376,93.0,0.0,180.0,0.0,0.0
6377,83.0,97.0,120.0,2.0,0.0
6378,81.0,75.0,150.0,2.0,0.0
6379,90.0,0.0,180.0,0.0,0.0
6380,93.0,33.0,180.0,0.0,0.0
6381,83.0,50.0,150.0,2.0,0.0
6382,81.0,82.0,150.0,2.0,0.0
6383,83.0,68.0,150.0,2.0,0.0
6384,81.0,57.0,120.0,2.0,0.0
6385,93.0,0.0,180.0,0.0,0.0
6386,90.0,25.0,180.0,0.0,0.0
6387,83.0,113.0,150.0,2.0,0.0
6388,81.0,102.0,180.0,2.0,0.0
6389,90.0,10.0,180.0,0.0,0.0
6390,93.0,0.0,180.0,0.0,0.0
6391,79.0,15.0,210.0,2.0,0.0
6392,81.0,120.0,120.0,2.0,0.0
6393,74.0,120.0,120.0,2.0,0.0
6394,80.0,120.0,120.0,2.0,0.0
6395,81.0,120.0,120.0,2.0,0.0
6396,83.0,120.0,120.0,2.0,0.0
6397,89.0,120.0,720.0,0.0,0.0
6398,81.0,120.0,120.0,2.0,0.0
6399,101.0,0.0,720.0,0.0,0.0
6400,80.0,120.0,120.0,2.0,0.0
6401,72.0,120.0,120.0,2.0,0.0
6402,81.0,120.0,120.0,2.0,0.0
6403,83.0,120.0,120.0,2.0,0.0
6404,84.0,0.0,120.0,2.0,0.0
6405,83.0,120.0,120.0,2.0,0.0
6406,88.0,120.0,240.0,0.0,0.0
6407,100.0,0.0,240.0,0.0,0.0
6408,81.0,0.0,120.0,2.0,0.0
6409,60.0,120.0,120.0,2.0,0.0
6410,66.0,120.0,120.0,2.0,0.0
6411,67.0,120.0,120.0,2.0,0.0
6412,69.0,120.0,120.0,2.0,0.0
6413,87.0,0.0,720.0,0.0,0.0
6414,67.0,120.0,120.0,2.0,0.0
6415,99.0,120.0,720.0,0.0,0.0
6416,66.0,120.0,120.0,2.0,0.0
6417,59.0,120.0,120.0,2.0,0.0
6418,67.0,120.0,120.0,2.0,0.0
6419,69.0,120.0,120.0,2.0,0.0
6420,71.0,0.0,120.0,2.0,0.0
6421,98.0,0.0,240.0,0.0,0.0
6422,86.0,232.0,240.0,0.0,0.0
6423,69.0,120.0,120.0,2.0,0.0
6424,67.0,0.0,120.0,2.0,0.0
6425,50.0,8.0,240.0,2.0,0.0
6426,56.0,120.0,120.0,2.0,0.0
6427,57.0,120.0,120.0,2.0,0.0
6428,59.0,120.0,120.0,2.0,0.0
6429,65.0,0.0,720.0,0.0,0.0
6430,77.0,0.0,720.0,0.0,0.0
6431,57.0,120.0,120.0,2.0,0.0
6432,56.0,240.0,120.0,2.0,0.0
6433,48.0,113.0,240.0,2.0,0.0
6434,57.0,7.0,120.0,2.0,0.0
6435,59.0,120.0,120.0,2.0,0.0
6436,60.0,120.0,120.0,2.0,0.0
6437,59.0,120.0,120.0,2.0,0.0
6438,76.0,0.0,240.0,0.0,0.0
6439,64.0,0.0,240.0,0.0,0.0
6440,57.0,240.0,120.0,2.0,0.0
6441,36.0,113.0,240.0,2.0,0.0
6442,42.0,7.0,120.0,2.0,0.0
6443,43.0,120.0,120.0,2.0,0.0
6444,45.0,120.0,120.0,2.0,0.0
6445,51.0,0.0,720.0,0.0,0.0
6446,43.0,120.0,120.0,2.0,0.0
6447,63.0,120.0,720.0,0.0,0.0
6448,42.0,240.0,120.0,2.0,0.0
6449,35.0,98.0,270.0,2.0,0.0
6450,43.0,22.0,120.0,2.0,0.0
6451,45.0,120.0,120.0,2.0,0.0
6452,47.0,0.0,120.0,2.0,0.0
6453,45.0,120.0,120.0,2.0,0.0
6454,50.0,240.0,240.0,0.0,0.0
6455,62.0,0.0,240.0,0.0,0.0
6456,43.0,0.0,120.0,2.0,0.0
6457,35.0,105.0,240.0,2.0,0.0
6458,38.0,15.0,120.0,2.0,0.0
6459,74.0,0.0,180.0,0.0,0.0
6460,43.0,72.0,120.0,2.0,0.0
6461,62.0,48.0,180.0,0.0,0.0
6462,47.0,120.0,120.0,2.0,0.0
6463,43.0,72.0,120.0,2.0,0.0
6464,74.0,70.0,180.0,0.0,0.0
6465,62.0,0.0,180.0,0.0,0.0
6466,38.0,218.0,150.0,2.0,0.0
6467,40.0,113.0,240.0,2.0,0.0
6468,43.0,7.0,120.0,2.0,0.0
6469,60.0,0.0,180.0,0.0,0.0
6470,72.0,48.0,180.0,0.0,0.0
6471,47.0,72.0,120.0,2.0,0.0
6472,52.0,120.0,120.0,2.0,0.0
6473,71.0,0.0,180.0,0.0,0.0
6474,59.0,48.0,180.0,0.0,0.0
6475,47.0,72.0,120.0,2.0,0.0
6476,43.0,240.0,120.0,2.0,0.0
6477,36.0,0.0,240.0,2.0,0.0
6478,40.0,120.0,120.0,2.0,0.0
6479,45.0,72.0,120.0,2.0,0.0
6480,71.0,48.0,180.0,0.0,0.0
6481,59.0,0.0,180.0,0.0,0.0
6482,48.0,120.0,120.0,2.0,0.0
6483,45.0,72.0,120.0,2.0,0.0
6484,57.0,0.0,180.0,0.0,0.0
6485,69.0,48.0,180.0,0.0,0.0
6486,40.0,240.0,120.0,2.0,0.0
6487,38.0,120.0,240.0,2.0,0.0
6488,45.0,0.0,120.0,2.0,0.0
6489,55.0,0.0,180.0,0.0,0.0
6490,48.0,72.0,120.0,2.0,0.0
6491,67.0,48.0,180.0,0.0,0.0
6492,50.0,120.0,120.0,2.0,0.0
6493,48.0,72.0,120.0,2.0,0.0
6494,54.0,0.0,180.0,0.0,0.0
6495,66.0,48.0,180.0,0.0,0.0
6496,45.0,240.0,120.0,2.0,0.0
6497,47.0,113.0,240.0,2.0,0.0
6498,50.0,7.0,120.0,2.0,0.0
6499,55.0,72.0,120.0,2.0,0.0
6500,54.0,0.0,180.0,0.0,0.0
6501,66.0,48.0,180.0,0.0,0.0
6502,59.0,120.0,120.0,2.0,0.0
6503,66.0,48.0,180.0,0.0,0.0
6504,54.0,0.0,180.0,0.0,0.0
6505,55.0,72.0,120.0,2.0,0.0
6506,50.0,232.0,120.0,2.0,0.0
6507,52.0,8.0,240.0,2.0,0.0
6508,55.0,120.0,120.0,2.0,0.0
6509,64.0,48.0,180.0,0.0,0.0
6510,52.0,0.0,180.0,0.0,0.0
6511,59.0,72.0,120.0,2.0,0.0
6512,64.0,120.0,120.0,2.0,0.0
6513,50.0,48.0,180.0,0.0,0.0
6514,59.0,72.0,120.0,2.0,0.0
6515,62.0,0.0,180.0,0.0,0.0
6516,55.0,240.0,120.0,2.0,0.0
6517,48.0,0.0,240.0,2.0,0.0
6518,52.0,120.0,120.0,2.0,0.0
6519,62.0,0.0,180.0,0.0,0.0
6520,57.0,72.0,120.0,2.0,0.0
6521,50.0,48.0,180.0,0.0,0.0
6522,60.0,120.0,120.0,2.0,0.0
6523,60.0,48.0,180.0,0.0,0.0
6524,48.0,0.0,180.0,0.0,0.0
6525,57.0,72.0,120.0,2.0,0.0
6526,52.0,232.0,120.0,2.0,0.0
6527,38.0,8.0,240.0,2.0,0.0
6528,45.0,120.0,120.0,2.0,0.0
6529,48.0,72.0,120.0,2.0,0.0
6530,47.0,0.0,180.0,0.0,0.0
6531,59.0,48.0,180.0,0.0,0.0
6532,50.0,120.0,120.0,2.0,0.0
6533,48.0,72.0,120.0,2.0,0.0
6534,57.0,48.0,180.0,0.0,0.0
6535,45.0,0.0,180.0,0.0,0.0
6536,45.0,240.0,120.0,2.0,0.0
6537,35.0,113.0,240.0,2.0,0.0
6538,38.0,7.0,120.0,2.0,0.0
6539,79.0,0.0,180.0,0.0,0.0
6540,67.0,0.0,180.0,0.0,0.0
6541,43.0,72.0,120.0,2.0,0.0
6542,71.0,48.0,180.0,0.0,0.0
6543,47.0,120.0,120.0,2.0,0.0
6544,71.0,0.0,180.0,0.0,0.0
6545,67.0,48.0,180.0,0.0,0.0
6546,43.0,72.0,120.0,2.0,0.0
6547,74.0,0.0,180.0,0.0,0.0
6548,38.0,240.0,120.0,2.0,0.0
6549,40.0,105.0,240.0,2.0,0.0
6550,43.0,15.0,120.0,2.0,0.0
6551,72.0,0.0,180.0,0.0,0.0
6552,67.0,0.0,180.0,0.0,0.0
6553,64.0,48.0,180.0,0.0,0.0
6554,47.0,72.0,120.0,2.0,0.0
6555,52.0,120.0,120.0,2.0,0.0
6556,64.0,0.0,180.0,0.0,0.0
6557,67.0,48.0,180.0,0.0,0.0
6558,71.0,0.0,180.0,0.0,0.0
6559,47.0,72.0,120.0,2.0,0.0
6560,43.0,240.0,120.0,2.0,0.0
6561,36.0,105.0,240.0,2.0,0.0
6562,40.0,15.0,120.0,2.0,0.0
6563,45.0,72.0,120.0,2.0,0.0
6564,60.0,0.0,180.0,0.0,0.0
6565,71.0,48.0,180.0,0.0,0.0
6566,64.0,0.0,180.0,0.0,0.0
6567,48.0,120.0,120.0,2.0,0.0
6568,60.0,48.0,180.0,0.0,0.0
6569,69.0,0.0,180.0,0.0,0.0
6570,64.0,0.0,180.0,0.0,0.0
6571,45.0,72.0,120.0,2.0,0.0
6572,40.0,225.0,120.0,2.0,0.0
6573,38.0,15.0,240.0,2.0,0.0
6574,45.0,120.0,120.0,2.0,0.0
6575,57.0,0.0,180.0,0.0,0.0
6576,48.0,72.0,120.0,2.0,0.0
6577,60.0,48.0,180.0,0.0,0.0
6578,67.0,0.0,180.0,0.0,0.0
6579,50.0,192.0,120.0,2.0,0.0
6580,60.0,0.0,180.0,0.0,0.0
6581,38.0,15.0,240.0,2.0,0.0
6582,57.0,0.0,180.0,0.0,0.0
6583,66.0,33.0,180.0,0.0,0.0
6584,50.0,120.0,120.0,2.0,0.0
6585,43.0,0.0,240.0,2.0,0.0
6586,55.0,120.0,120.0,0.0,0.0
6587,57.0,120.0,120.0,0.0,0.0
6588,59.0,120.0,120.0,0.0,0.0
6589,55.0,0.0,240.0,2.0,0.0
6590,60.0,80.0,120.0,0.0,0.0
6591,62.0,80.0,90.0,0.0,0.0
6592,59.0,0.0,240.0,2.0,0.0
6593,64.0,80.0,90.0,0.0,0.0
6594,66.0,0.0,90.0,0.0,0.0
6595,67.0,80.0,90.0,0.0,0.0
6596,55.0,80.0,15.0,2.0,0.0
6597,62.0,0.0,480.0,2.0,0.0
6598,59.0,0.0,480.0,2.0,0.0
6599,69.0,80.0,90.0,0.0,0.0
6600,71.0,80.0,90.0,0.0,0.0
6601,72.0,80.0,90.0,0.0,0.0
6602,74.0,80.0,90.0,0.0,0.0
6603,76.0,0.0,90.0,0.0,0.0
6604,57.0,0.0,240.0,2.0,0.0
6605,78.0,120.0,120.0,0.0,0.0
6606,50.0,0.0,240.0,2.0,0.0
6607,62.0,120.0,240.0,2.0,0.0
6608,66.0,0.0,120.0,0.0,0.0
6609,67.0,120.0,120.0,0.0,0.0
6610,55.0,0.0,240.0,2.0,0.0
6611,59.0,120.0,240.0,2.0,0.0
6612,62.0,0.0,240.0,2.0,0.0
6613,69.0,0.0,120.0,0.0,0.0
6614,71.0,120.0,120.0,0.0,0.0
6615,62.0,0.0,240.0,2.0,0.0
6616,59.0,0.0,240.0,2.0,0.0
6617,72.0,0.0,120.0,0.0,0.0
6618,74.0,80.0,90.0,0.0,0.0
6619,55.0,80.0,15.0,2.0,0.0
6620,62.0,0.0,240.0,2.0,0.0
6621,76.0,80.0,90.0,0.0,0.0
6622,78.0,0.0,90.0,0.0,0.0
6623,79.0,80.0,90.0,0.0,0.0
6624,59.0,0.0,15.0,2.0,0.0
6625,55.0,0.0,480.0,2.0,0.0
6626,81.0,80.0,90.0,0.0,0.0
6627,83.0,80.0,90.0,0.0,0.0
6628,84.0,80.0,90.0,0.0,0.0
6629,86.0,80.0,90.0,0.0,0.0
6630,88.0,120.0,90.0,0.0,0.0
6631,90.0,120.0,120.0,0.0,0.0
6632,62.0,0.0,15.0,2.0,0.0
6633,57.0,0.0,240.0,2.0,0.0
6634,50.0,120.0,240.0,2.0,0.0
6635,78.0,0.0,120.0,0.0,0.0
6636,79.0,120.0,120.0,0.0,0.0
6637,55.0,0.0,240.0,2.0,0.0
6638,81.0,0.0,120.0,0.0,0.0
6639,59.0,120.0,15.0,2.0,0.0
6640,62.0,0.0,15.0,2.0,0.0
6641,83.0,120.0,120.0,0.0,0.0
6642,84.0,0.0,120.0,0.0,0.0
6643,86.0,80.0,90.0,0.0,0.0
6644,59.0,80.0,15.0,2.0,0.0
6645,55.0,0.0,15.0,2.0,0.0
6646,88.0,80.0,90.0,0.0,0.0
6647,90.0,0.0,90.0,0.0,0.0
6648,55.0,0.0,480.0,2.0,0.0
6649,62.0,120.0,15.0,2.0,0.0
6650,91.0,120.0,120.0,0.0,0.0
6651,59.0,0.0,15.0,2.0,0.0
6652,93.0,120.0,120.0,0.0,0.0
6653,95.0,120.0,120.0,0.0,0.0
6654,96.0,80.0,120.0,0.0,0.0
6655,50.0,0.0,240.0,2.0,0.0
6656,57.0,0.0,240.0,2.0,0.0
6657,62.0,0.0,15.0,2.0,0.0
6658,98.0,80.0,90.0,0.0,0.0
6659,100.0,80.0,90.0,0.0,0.0
6660,102.0,480.0,90.0,0.0,0.0
6661,62.0,0.0,15.0,2.0,0.0
6662,103.0,0.0,480.0,0.0,0.0
6663,55.0,0.0,480.0,2.0,0.0
6664,59.0,0.0,480.0,2.0,0.0
6665,71.0,0.0,480.0,1.0,0.0
6666,74.0,720.0,480.0,1.0,0.0
6667,55.0,0.0,480.0,2.0,0.0
6668,43.0,0.0,480.0,2.0,0.0
6669,79.0,0.0,480.0,0.0,0.0
6670,43.0,0.0,480.0,2.0,0.0
6671,55.0,0.0,480.0,2.0,0.0
6672,55.0,720.0,480.0,1.0,0.0
6673,59.0,0.0,480.0,1.0,0.0
6674,67.0,0.0,480.0,0.0,0.0
6675,62.0,0.0,480.0,1.0,0.0
6676,74.0,192.0,15.0,0.0,0.0
6677,74.0,120.0,240.0,0.0,0.0
6678,59.0,0.0,360.0,2.0,0.0
6679,62.0,0.0,360.0,2.0,0.0
6680,55.0,120.0,360.0,2.0,0.0
6681,71.0,240.0,240.0,0.0,0.0
6682,67.0,240.0,240.0,0.0,0.0
6683,60.0,0.0,360.0,2.0,0.0
6684,62.0,0.0,360.0,2.0,0.0
6685,57.0,0.0,360.0,2.0,0.0
6686,50.0,120.0,360.0,2.0,0.0
6687,66.0,120.0,240.0,0.0,0.0
6688,69.0,240.0,240.0,0.0,0.0
6689,74.0,240.0,240.0,0.0,0.0
6690,55.0,120.0,360.0,2.0,0.0
6691,74.0,120.0,240.0,0.0,0.0
6692,59.0,0.0,360.0,2.0,0.0
6693,62.0,0.0,360.0,2.0,0.0
6694,71.0,240.0,240.0,0.0,0.0
6695,67.0,156.0,240.0,0.0,0.0
6696,64.0,0.0,150.0,2.0,0.0
6697,59.0,84.0,150.0,2.0,0.0
6698,52.0,0.0,150.0,2.0,0.0
6699,68.0,240.0,240.0,0.0,0.0
6700,71.0,156.0,240.0,0.0,0.0
6701,56.0,84.0,150.0,2.0,0.0
6702,64.0,0.0,150.0,2.0,0.0
6703,62.0,0.0,150.0,2.0,0.0
6704,59.0,0.0,150.0,2.0,0.0
6705,64.0,0.0,360.0,2.0,0.0
6706,60.0,120.0,360.0,2.0,0.0
6707,57.0,0.0,360.0,2.0,0.0
6708,76.0,240.0,15.0,0.0,0.0
6709,72.0,240.0,240.0,0.0,0.0
6710,69.0,156.0,240.0,0.0,0.0
6711,70.0,240.0,240.0,0.0,0.0
6712,61.0,84.0,150.0,2.0,0.0
6713,54.0,0.0,150.0,2.0,0.0
6714,66.0,0.0,150.0,2.0,0.0
6715,73.0,156.0,240.0,0.0,0.0
6716,58.0,0.0,150.0,2.0,0.0
6717,61.0,84.0,150.0,2.0,0.0
6718,78.0,240.0,240.0,0.0,0.0
6719,66.0,0.0,150.0,2.0,0.0
6720,66.0,0.0,360.0,2.0,0.0
6721,59.0,0.0,360.0,2.0,0.0
6722,62.0,120.0,360.0,2.0,0.0
6723,78.0,120.0,240.0,0.0,0.0
6724,74.0,240.0,240.0,0.0,0.0
6725,71.0,240.0,240.0,0.0,0.0
6726,72.0,240.0,240.0,0.0,0.0
6727,74.0,240.0,240.0,0.0,0.0
6728,78.0,240.0,240.0,0.0,0.0
6729,67.0,0.0,480.0,2.0,0.0
6730,62.0,0.0,480.0,2.0,0.0
6731,59.0,0.0,480.0,2.0,0.0
6732,55.0,0.0,480.0,2.0,0.0
6733,79.0,240.0,240.0,0.0,0.0
6734,74.0,240.0,240.0,0.0,0.0
6735,71.0,240.0,15.0,0.0,0.0
6736,74.0,240.0,240.0,0.0,0.0
6737,79.0,240.0,240.0,0.0,0.0
6738,67.0,0.0,240.0,2.0,0.0
6739,83.0,240.0,240.0,0.0,0.0
6740,62.0,0.0,240.0,2.0,0.0
6741,79.0,240.0,240.0,0.0,0.0
6742,74.0,0.0,240.0,0.0,0.0
6743,59.0,240.0,15.0,2.0,0.0
6744,74.0,240.0,240.0,0.0,0.0
6745,62.0,240.0,240.0,2.0,0.0
6746,79.0,0.0,240.0,0.0,0.0
6747,67.0,240.0,240.0,2.0,0.0
6748,83.0,0.0,15.0,0.0,0.0
6749,86.0,0.0,240.0,0.0,0.0
6750,43.0,240.0,240.0,2.0,0.0
6751,47.0,0.0,240.0,2.0,0.0
6752,83.0,0.0,15.0,0.0,0.0
6753,47.0,0.0,240.0,2.0,0.0
6754,79.0,0.0,240.0,0.0,0.0
6755,55.0,240.0,240.0,2.0,0.0
6756,50.0,0.0,15.0,2.0,0.0
6757,74.0,0.0,240.0,0.0,0.0
6758,79.0,0.0,15.0,0.0,0.0
6759,83.0,0.0,240.0,0.0,0.0
6760,47.0,0.0,240.0,2.0,0.0
6761,50.0,0.0,15.0,2.0,0.0
6762,50.0,0.0,240.0,2.0,0.0
6763,79.0,240.0,240.0,0.0,0.0
6764,59.0,0.0,240.0,2.0,0.0
6765,55.0,0.0,15.0,2.0,0.0
6766,74.0,0.0,15.0,0.0,0.0
6767,71.0,0.0,240.0,0.0,0.0
6768,50.0,0.0,240.0,2.0,0.0
6769,74.0,0.0,15.0,0.0,0.0
6770,79.0,0.0,240.0,0.0,0.0
6771,55.0,240.0,15.0,2.0,0.0
6772,74.0,240.0,15.0,0.0,0.0
6773,71.0,0.0,240.0,0.0,0.0
6774,59.0,0.0,240.0,2.0,0.0
6775,55.0,240.0,240.0,2.0,0.0
6776,71.0,0.0,240.0,0.0,0.0
6777,67.0,0.0,240.0,0.0,0.0
6778,62.0,0.0,240.0,2.0,0.0
6779,59.0,240.0,240.0,2.0,0.0
6780,74.0,240.0,240.0,0.0,0.0
6781,50.0,0.0,240.0,2.0,0.0
6782,57.0,192.0,240.0,2.0,0.0
6783,64.0,0.0,240.0,0.0,0.0
6784,72.0,0.0,240.0,0.0,0.0
6785,66.0,0.0,180.0,0.0,0.0
6786,69.0,0.0,180.0,0.0,0.0
6787,50.0,168.0,180.0,2.0,0.0
6788,62.0,0.0,180.0,2.0,0.0
6789,62.0,0.0,480.0,2.0,0.0
6790,79.0,120.0,120.0,0.0,0.0
6791,55.0,0.0,480.0,2.0,0.0
6792,59.0,0.0,480.0,2.0,0.0
6793,78.0,120.0,120.0,0.0,0.0
6794,79.0,120.0,120.0,0.0,0.0
6795,74.0,180.0,120.0,0.0,0.0
6796,71.0,60.0,180.0,0.0,0.0
6797,72.0,120.0,60.0,0.0,0.0
6798,71.0,120.0,120.0,0.0,0.0
6799,70.0,120.0,120.0,0.0,0.0
6800,71.0,120.0,120.0,0.0,0.0
6801,74.0,180.0,120.0,0.0,0.0
6802,79.0,180.0,180.0,0.0,0.0
6803,83.0,0.0,120.0,0.0,0.0
6804,67.0,120.0,120.0,2.0,0.0
6805,55.0,38.0,630.0,2.0,0.0
6806,82.0,0.0,120.0,0.0,0.0
6807,66.0,120.0,120.0,2.0,0.0
6808,83.0,0.0,120.0,0.0,0.0
6809,67.0,120.0,120.0,2.0,0.0
6810,79.0,127.0,120.0,0.0,0.0
6811,62.0,0.0,120.0,2.0,0.0
6812,74.0,60.0,180.0,0.0,0.0
6813,59.0,15.0,120.0,2.0,0.0
6814,76.0,120.0,60.0,0.0,0.0
6815,60.0,0.0,60.0,2.0,0.0
6816,59.0,120.0,120.0,2.0,0.0
6817,74.0,0.0,120.0,0.0,0.0
6818,73.0,120.0,120.0,0.0,0.0
6819,58.0,0.0,120.0,2.0,0.0
6820,59.0,0.0,120.0,2.0,0.0
6821,74.0,120.0,120.0,0.0,0.0
6822,79.0,180.0,120.0,0.0,0.0
6823,62.0,0.0,120.0,2.0,0.0
6824,67.0,120.0,360.0,2.0,0.0
6825,83.0,180.0,180.0,0.0,0.0
6826,86.0,0.0,120.0,0.0,0.0
6827,43.0,0.0,120.0,2.0,0.0
6828,83.0,0.0,120.0,0.0,0.0
6829,88.0,120.0,120.0,0.0,0.0
6830,84.0,0.0,120.0,0.0,0.0
6831,42.0,0.0,120.0,2.0,0.0
6832,86.0,120.0,120.0,0.0,0.0
6833,83.0,0.0,120.0,0.0,0.0
6834,43.0,0.0,120.0,2.0,0.0
6835,47.0,180.0,120.0,2.0,0.0
6836,79.0,0.0,120.0,0.0,0.0
6837,83.0,0.0,120.0,0.0,0.0
6838,50.0,60.0,180.0,2.0,0.0
6839,79.0,0.0,240.0,0.0,0.0
6840,71.0,120.0,240.0,0.0,0.0
6841,47.0,120.0,120.0,2.0,0.0
6842,79.0,0.0,120.0,0.0,0.0
6843,83.0,0.0,120.0,0.0,0.0
6844,45.0,0.0,120.0,2.0,0.0
6845,84.0,120.0,120.0,0.0,0.0
6846,47.0,0.0,120.0,2.0,0.0
6847,83.0,0.0,120.0,0.0,0.0
6848,79.0,120.0,120.0,0.0,0.0
6849,50.0,0.0,120.0,2.0,0.0
6850,74.0,180.0,120.0,0.0,0.0
6851,79.0,0.0,120.0,0.0,0.0
6852,55.0,60.0,180.0,2.0,0.0
6853,71.0,120.0,240.0,0.0,0.0
6854,74.0,0.0,240.0,0.0,0.0
6855,71.0,0.0,120.0,0.0,0.0
6856,79.0,120.0,120.0,0.0,0.0
6857,50.0,0.0,120.0,2.0,0.0
6858,49.0,120.0,120.0,2.0,0.0
6859,81.0,0.0,120.0,0.0,0.0
6860,50.0,120.0,120.0,2.0,0.0
6861,79.0,0.0,120.0,0.0,0.0
6862,71.0,0.0,120.0,0.0,0.0
6863,71.0,0.0,120.0,0.0,0.0
6864,74.0,0.0,120.0,0.0,0.0
6865,55.0,180.0,120.0,2.0,0.0
6866,67.0,0.0,240.0,0.0,0.0
6867,71.0,240.0,240.0,0.0,0.0
6868,59.0,60.0,180.0,2.0,0.0
6869,74.0,240.0,240.0,0.0,0.0
6870,64.0,192.0,240.0,0.0,0.0
6871,72.0,0.0,240.0,0.0,0.0
6872,57.0,0.0,240.0,2.0,0.0
6873,66.0,0.0,180.0,0.0,0.0
6874,62.0,288.0,180.0,2.0,0.0
6875,50.0,0.0,15.0,2.0,0.0
6876,69.0,0.0,180.0,0.0,0.0
6877,47.0,0.0,240.0,2.0,0.0
6878,43.0,120.0,240.0,2.0,0.0
6879,86.0,120.0,240.0,0.0,0.0
6880,47.0,0.0,240.0,2.0,0.0
6881,50.0,120.0,240.0,2.0,0.0
6882,83.0,0.0,15.0,0.0,0.0
6883,79.0,120.0,240.0,0.0,0.0
6884,50.0,120.0,240.0,2.0,0.0
6885,55.0,0.0,240.0,2.0,0.0
6886,74.0,0.0,240.0,0.0,0.0
6887,79.0,120.0,240.0,0.0,0.0
6888,47.0,0.0,240.0,2.0,0.0
6889,83.0,120.0,240.0,0.0,0.0
6890,79.0,0.0,240.0,0.0,0.0
6891,50.0,120.0,15.0,2.0,0.0
6892,55.0,120.0,240.0,2.0,0.0
6893,74.0,120.0,240.0,0.0,0.0
6894,79.0,0.0,240.0,0.0,0.0
6895,59.0,0.0,240.0,2.0,0.0
6896,71.0,0.0,240.0,0.0,0.0
6897,55.0,120.0,15.0,2.0,0.0
6898,50.0,0.0,240.0,2.0,0.0
6899,74.0,120.0,15.0,0.0,0.0
6900,79.0,120.0,240.0,0.0,0.0
6901,55.0,120.0,15.0,2.0,0.0
6902,59.0,0.0,240.0,2.0,0.0
6903,74.0,0.0,15.0,0.0,0.0
6904,50.0,0.0,240.0,2.0,0.0
6905,62.0,0.0,240.0,2.0,0.0
6906,55.0,120.0,240.0,2.0,0.0
6907,71.0,0.0,15.0,0.0,0.0
6908,50.0,0.0,180.0,2.0,0.0
6909,57.0,0.0,180.0,2.0,0.0
6910,62.0,168.0,180.0,2.0,0.0
6911,74.0,72.0,240.0,0.0,0.0
6912,66.0,0.0,240.0,0.0,0.0
6913,50.0,0.0,180.0,2.0,0.0
6914,62.0,168.0,180.0,2.0,0.0
6915,57.0,0.0,180.0,2.0,0.0
6916,72.0,72.0,240.0,0.0,0.0
6917,66.0,0.0,240.0,0.0,0.0
6918,50.0,48.0,180.0,2.0,0.0
6919,62.0,0.0,180.0,2.0,0.0
6920,60.0,0.0,180.0,2.0,0.0
6921,66.0,636.0,120.0,0.0,0.0
6922,69.0,0.0,120.0,0.0,0.0
6923,74.0,64.0,150.0,2.0,0.0
6924,86.0,20.0,210.0,0.0,0.0
6925,98.0,156.0,120.0,0.0,0.0
6926,83.0,20.0,210.0,0.0,0.0
6927,71.0,64.0,150.0,2.0,0.0
6928,95.0,156.0,120.0,0.0,0.0
6929,79.0,20.0,210.0,0.0,0.0
6930,67.0,64.0,150.0,2.0,0.0
6931,91.0,156.0,120.0,0.0,0.0
6932,83.0,20.0,210.0,0.0,0.0
6933,71.0,64.0,150.0,2.0,0.0
6934,95.0,156.0,120.0,0.0,0.0
6935,79.0,20.0,210.0,0.0,0.0
6936,67.0,64.0,150.0,2.0,0.0
6937,91.0,156.0,120.0,0.0,0.0
6938,74.0,20.0,210.0,0.0,0.0
6939,62.0,64.0,150.0,2.0,0.0
6940,86.0,156.0,120.0,0.0,0.0
6941,79.0,20.0,210.0,0.0,0.0
6942,67.0,64.0,150.0,2.0,0.0
6943,91.0,156.0,120.0,0.0,0.0
6944,74.0,20.0,210.0,0.0,0.0
6945,62.0,64.0,150.0,2.0,0.0
6946,86.0,156.0,120.0,0.0,0.0
6947,71.0,20.0,210.0,0.0,0.0
6948,59.0,64.0,150.0,2.0,0.0
6949,83.0,220.0,120.0,0.0,0.0
6950,62.0,0.0,240.0,2.0,0.0
6951,74.0,20.0,210.0,0.0,0.0
6952,86.0,156.0,120.0,0.0,0.0
6953,72.0,20.0,210.0,0.0,0.0
6954,60.0,64.0,150.0,2.0,0.0
6955,84.0,156.0,120.0,0.0,0.0
6956,69.0,0.0,240.0,0.0,0.0
6957,57.0,0.0,150.0,2.0,0.0
6958,50.0,84.0,150.0,2.0,0.0
6959,81.0,240.0,120.0,0.0,0.0
6960,67.0,0.0,240.0,0.0,0.0
6961,43.0,240.0,240.0,2.0,0.0
6962,55.0,0.0,240.0,2.0,0.0
6963,79.0,0.0,120.0,0.0,0.0
6964,67.0,0.0,240.0,2.0,0.0
6965,55.0,0.0,240.0,2.0,0.0
6966,59.0,0.0,240.0,2.0,0.0
6967,83.0,0.0,120.0,0.0,0.0
6968,71.0,0.0,15.0,0.0,0.0
6969,55.0,0.0,240.0,2.0,0.0
6970,67.0,0.0,240.0,2.0,0.0
6971,62.0,240.0,15.0,2.0,0.0
6972,83.0,0.0,120.0,0.0,0.0
6973,62.0,240.0,15.0,2.0,0.0
6974,59.0,0.0,15.0,2.0,0.0
6975,67.0,0.0,240.0,2.0,0.0
6976,71.0,240.0,240.0,0.0,0.0
6977,83.0,0.0,120.0,0.0,0.0
6978,55.0,0.0,15.0,2.0,0.0
6979,67.0,0.0,240.0,2.0,0.0
6980,74.0,0.0,240.0,0.0,0.0
6981,59.0,0.0,240.0,2.0,0.0
6982,86.0,0.0,120.0,0.0,0.0
6983,67.0,0.0,240.0,2.0,0.0
6984,62.0,240.0,15.0,2.0,0.0
6985,55.0,0.0,15.0,2.0,0.0
6986,59.0,0.0,240.0,2.0,0.0
6987,86.0,240.0,120.0,0.0,0.0
6988,74.0,0.0,15.0,0.0,0.0
6989,55.0,0.0,240.0,2.0,0.0
6990,67.0,0.0,240.0,2.0,0.0
6991,86.0,0.0,120.0,0.0,0.0
6992,55.0,0.0,240.0,2.0,0.0
6993,67.0,0.0,240.0,2.0,0.0
6994,62.0,0.0,15.0,2.0,0.0
6995,59.0,240.0,15.0,2.0,0.0
6996,91.0,0.0,120.0,0.0,0.0
6997,79.0,0.0,15.0,0.0,0.0
6998,59.0,240.0,15.0,2.0,0.0
6999,67.0,0.0,240.0,2.0,0.0
7000,62.0,0.0,240.0,2.0,0.0
7001,91.0,0.0,120.0,0.0,0.0
7002,59.0,0.0,15.0,2.0,0.0
7003,55.0,240.0,15.0,2.0,0.0
7004,79.0,0.0,240.0,0.0,0.0
7005,91.0,0.0,120.0,0.0,0.0
7006,83.0,0.0,240.0,0.0,0.0
7007,62.0,0.0,15.0,2.0,0.0
7008,67.0,0.0,15.0,2.0,0.0
7009,55.0,0.0,15.0,2.0,0.0
7010,95.0,0.0,120.0,0.0,0.0
7011,55.0,0.0,15.0,2.0,0.0
7012,59.0,0.0,15.0,2.0,0.0
7013,67.0,240.0,15.0,2.0,0.0
7014,86.0,0.0,240.0,0.0,0.0
7015,98.0,480.0,120.0,0.0,0.0
7016,91.0,0.0,480.0,0.0,0.0
7017,103.0,0.0,480.0,0.0,0.0
7018,62.0,0.0,15.0,2.0,0.0
7019,59.0,0.0,15.0,2.0,0.0
7020,55.0,0.0,480.0,2.0,0.0
7021,67.0,720.0,480.0,2.0,0.0
7022,62.0,720.0,480.0,2.0,0.0
7023,50.0,0.0,480.0,2.0,0.0
7024,72.0,0.0,480.0,1.0,0.0
7025,69.0,0.0,480.0,1.0,0.0
7026,74.0,0.0,480.0,1.0,0.0
7027,78.0,0.0,480.0,0.0,0.0
7028,71.0,0.0,480.0,1.0,0.0
7029,74.0,0.0,480.0,1.0,0.0
7030,43.0,0.0,480.0,2.0,0.0
7031,79.0,0.0,480.0,0.0,0.0
7032,55.0,0.0,480.0,2.0,0.0
