,note,step,duration,channel,velocity
0,64.0,1.0,60.0,10.0,0.0
1,64.0,38.0,60.0,11.0,0.0
2,69.0,1.0,30.0,10.0,0.0
3,69.0,59.0,30.0,11.0,0.0
4,69.0,1.0,30.0,10.0,0.0
5,69.0,80.0,30.0,11.0,0.0
6,69.0,1.0,60.0,10.0,0.0
7,69.0,38.0,60.0,11.0,0.0
8,73.0,1.0,30.0,10.0,0.0
9,73.0,59.0,30.0,11.0,0.0
10,73.0,1.0,30.0,10.0,0.0
11,73.0,80.0,30.0,11.0,0.0
12,73.0,1.0,60.0,10.0,0.0
13,73.0,38.0,60.0,11.0,0.0
14,74.0,1.0,30.0,10.0,0.0
15,74.0,50.0,30.0,11.0,0.0
16,74.0,1.0,30.0,10.0,0.0
17,74.0,24.0,30.0,11.0,0.0
18,73.0,1.0,15.0,10.0,0.0
19,73.0,34.0,15.0,11.0,0.0
20,71.0,1.0,30.0,10.0,0.0
21,71.0,24.0,30.0,11.0,0.0
22,69.0,1.0,15.0,10.0,0.0
23,69.0,43.0,15.0,11.0,0.0
24,68.0,1.0,30.0,10.0,0.0
25,68.0,59.0,30.0,11.0,0.0
26,68.0,1.0,30.0,10.0,0.0
27,68.0,80.0,30.0,11.0,0.0
28,68.0,1.0,60.0,10.0,0.0
29,68.0,59.0,60.0,11.0,0.0
30,69.0,1.0,60.0,10.0,0.0
31,69.0,59.0,60.0,11.0,0.0
32,71.0,1.0,60.0,10.0,0.0
33,71.0,54.0,60.0,11.0,0.0
34,73.0,1.0,60.0,10.0,0.0
35,73.0,94.0,60.0,11.0,0.0
36,74.0,1.0,90.0,10.0,0.0
37,74.0,24.0,90.0,11.0,0.0
38,76.0,1.0,30.0,10.0,0.0
39,76.0,34.0,30.0,11.0,0.0
40,73.0,1.0,30.0,10.0,0.0
41,73.0,31.0,30.0,11.0,0.0
42,57.0,2.0,60.0,12.0,0.0
43,57.0,37.0,60.0,13.0,0.0
44,71.0,1.0,60.0,10.0,0.0
45,71.0,40.0,60.0,11.0,0.0
46,64.0,2.0,30.0,12.0,0.0
47,64.0,17.0,30.0,13.0,0.0
48,64.0,2.0,30.0,12.0,0.0
49,64.0,78.0,30.0,13.0,0.0
50,71.0,1.0,60.0,11.0,0.0
51,64.0,2.0,60.0,12.0,0.0
52,64.0,36.0,60.0,13.0,0.0
53,76.0,1.0,30.0,11.0,0.0
54,68.0,2.0,30.0,12.0,0.0
55,68.0,57.0,30.0,13.0,0.0
56,76.0,1.0,30.0,11.0,0.0
57,68.0,2.0,30.0,12.0,0.0
58,68.0,79.0,30.0,13.0,0.0
59,76.0,1.0,120.0,11.0,0.0
60,68.0,2.0,60.0,12.0,0.0
61,68.0,52.0,60.0,13.0,0.0
62,69.0,2.0,60.0,12.0,0.0
63,69.0,32.0,60.0,13.0,0.0
64,75.0,1.0,30.0,11.0,0.0
65,69.0,2.0,30.0,12.0,0.0
66,69.0,22.0,30.0,13.0,0.0
67,76.0,1.0,15.0,11.0,0.0
68,68.0,2.0,15.0,12.0,0.0
69,68.0,32.0,15.0,13.0,0.0
70,78.0,1.0,30.0,11.0,0.0
71,66.0,2.0,30.0,12.0,0.0
72,66.0,22.0,30.0,13.0,0.0
73,80.0,1.0,15.0,11.0,0.0
74,64.0,2.0,15.0,12.0,0.0
75,64.0,41.0,15.0,13.0,0.0
76,81.0,1.0,30.0,11.0,0.0
77,63.0,2.0,30.0,12.0,0.0
78,63.0,58.0,30.0,13.0,0.0
79,63.0,2.0,30.0,12.0,0.0
80,63.0,78.0,30.0,13.0,0.0
81,69.0,1.0,60.0,11.0,0.0
82,63.0,2.0,60.0,12.0,0.0
83,63.0,1.0,60.0,13.0,0.0
84,47.0,1.0,60.0,3.0,0.0
85,35.0,34.0,60.0,14.0,0.0
86,68.0,1.0,30.0,11.0,0.0
87,64.0,1.0,240.0,4.0,0.0
88,64.0,2.0,30.0,12.0,0.0
89,52.0,34.0,240.0,5.0,0.0
90,64.0,1.0,30.0,13.0,0.0
91,52.0,1.0,30.0,3.0,0.0
92,40.0,47.0,30.0,14.0,0.0
93,68.0,4.0,30.0,11.0,0.0
94,64.0,2.0,30.0,12.0,0.0
95,64.0,6.0,30.0,13.0,0.0
96,52.0,1.0,30.0,3.0,0.0
97,40.0,12.0,30.0,14.0,0.0
98,63.0,2.0,15.0,12.0,0.0
99,63.0,33.0,15.0,13.0,0.0
100,68.0,5.0,60.0,11.0,0.0
101,64.0,2.0,30.0,12.0,0.0
102,64.0,23.0,30.0,13.0,0.0
103,52.0,17.0,90.0,3.0,0.0
104,40.0,17.0,60.0,14.0,0.0
105,66.0,2.0,15.0,12.0,0.0
106,66.0,2.0,15.0,13.0,0.0
107,76.0,1.0,30.0,11.0,0.0
108,62.0,2.0,30.0,12.0,0.0
109,62.0,1.0,30.0,13.0,0.0
110,56.0,1.0,30.0,3.0,0.0
111,44.0,11.0,30.0,14.0,0.0
112,64.0,1.0,30.0,4.0,0.0
113,76.0,4.0,30.0,11.0,0.0
114,62.0,2.0,30.0,12.0,0.0
115,52.0,0.0,30.0,5.0,0.0
116,62.0,6.0,30.0,13.0,0.0
117,56.0,1.0,30.0,3.0,0.0
118,44.0,12.0,30.0,14.0,0.0
119,61.0,2.0,15.0,12.0,0.0
120,61.0,33.0,15.0,13.0,0.0
121,76.0,1.0,60.0,10.0,0.0
122,76.0,0.0,60.0,0.0,0.0
123,68.0,0.0,60.0,11.0,0.0
124,64.0,0.0,60.0,4.0,0.0
125,76.0,1.0,60.0,1.0,0.0
126,62.0,2.0,30.0,12.0,0.0
127,52.0,3.0,60.0,5.0,0.0
128,62.0,23.0,30.0,13.0,0.0
129,59.0,1.0,60.0,3.0,0.0
130,47.0,33.0,60.0,14.0,0.0
131,64.0,2.0,15.0,12.0,0.0
132,64.0,1.0,15.0,13.0,0.0
133,81.0,1.0,30.0,10.0,0.0
134,73.0,1.0,30.0,1.0,0.0
135,81.0,0.0,30.0,0.0,0.0
136,81.0,0.0,30.0,1.0,0.0
137,69.0,0.0,30.0,4.0,0.0
138,69.0,0.0,30.0,11.0,0.0
139,57.0,0.0,30.0,5.0,0.0
140,61.0,2.0,30.0,12.0,0.0
141,61.0,1.0,30.0,13.0,0.0
142,57.0,1.0,30.0,3.0,0.0
143,45.0,54.0,30.0,14.0,0.0
144,81.0,1.0,30.0,10.0,0.0
145,69.0,0.0,30.0,4.0,0.0
146,69.0,1.0,60.0,11.0,0.0
147,81.0,0.0,30.0,1.0,0.0
148,73.0,1.0,30.0,1.0,0.0
149,81.0,0.0,30.0,0.0,0.0
150,61.0,2.0,30.0,5.0,0.0
151,61.0,3.0,60.0,2.0,0.0
152,61.0,0.0,60.0,12.0,0.0
153,69.0,0.0,60.0,2.0,0.0
154,45.0,2.0,30.0,13.0,0.0
155,57.0,0.0,60.0,3.0,0.0
156,33.0,16.0,30.0,14.0,0.0
157,81.0,1.0,60.0,10.0,0.0
158,73.0,0.0,60.0,11.0,0.0
159,81.0,0.0,60.0,1.0,0.0
160,73.0,0.0,60.0,1.0,0.0
161,69.0,1.0,60.0,4.0,0.0
162,81.0,0.0,60.0,0.0,0.0
163,73.0,0.0,60.0,2.0,0.0
164,64.0,3.0,60.0,2.0,0.0
165,61.0,0.0,60.0,5.0,0.0
166,64.0,0.0,60.0,12.0,0.0
167,61.0,55.0,15.0,3.0,0.0
168,64.0,34.0,60.0,3.0,0.0
169,85.0,1.0,30.0,10.0,0.0
170,85.0,0.0,30.0,1.0,0.0
171,73.0,0.0,30.0,4.0,0.0
172,81.0,0.0,30.0,1.0,0.0
173,85.0,1.0,30.0,0.0,0.0
174,69.0,2.0,30.0,5.0,0.0
175,57.0,2.0,30.0,13.0,0.0
176,45.0,54.0,30.0,14.0,0.0
177,85.0,1.0,30.0,10.0,0.0
178,73.0,1.0,60.0,11.0,0.0
179,85.0,0.0,30.0,0.0,0.0
180,73.0,1.0,30.0,4.0,0.0
181,85.0,0.0,30.0,1.0,0.0
182,81.0,0.0,30.0,1.0,0.0
183,69.0,0.0,60.0,12.0,0.0
184,73.0,0.0,60.0,2.0,0.0
185,69.0,3.0,60.0,2.0,0.0
186,69.0,2.0,30.0,5.0,0.0
187,45.0,2.0,30.0,13.0,0.0
188,64.0,55.0,60.0,3.0,0.0
189,61.0,1.0,60.0,3.0,0.0
190,33.0,15.0,30.0,14.0,0.0
191,85.0,0.0,60.0,10.0,0.0
192,76.0,1.0,60.0,11.0,0.0
193,85.0,0.0,60.0,0.0,0.0
194,69.0,0.0,60.0,4.0,0.0
195,85.0,0.0,60.0,1.0,0.0
196,81.0,0.0,60.0,1.0,0.0
197,57.0,0.0,60.0,5.0,0.0
198,76.0,36.0,60.0,2.0,0.0
199,73.0,0.0,60.0,12.0,0.0
200,73.0,0.0,60.0,2.0,0.0
201,61.0,0.0,60.0,3.0,0.0
202,69.0,1.0,60.0,3.0,0.0
203,86.0,1.0,30.0,10.0,0.0
204,64.0,0.0,30.0,4.0,0.0
205,80.0,0.0,30.0,1.0,0.0
206,86.0,0.0,30.0,1.0,0.0
207,86.0,0.0,30.0,0.0,0.0
208,74.0,0.0,30.0,11.0,0.0
209,64.0,2.0,30.0,12.0,0.0
210,74.0,0.0,60.0,2.0,0.0
211,52.0,16.0,30.0,5.0,0.0
212,71.0,3.0,60.0,2.0,0.0
213,52.0,2.0,60.0,13.0,0.0
214,68.0,0.0,60.0,3.0,0.0
215,62.0,4.0,60.0,3.0,0.0
216,40.0,24.0,60.0,14.0,0.0
217,86.0,1.0,30.0,10.0,0.0
218,86.0,7.0,30.0,0.0,0.0
219,86.0,0.0,30.0,1.0,0.0
220,64.0,1.0,30.0,4.0,0.0
221,74.0,0.0,60.0,1.0,0.0
222,74.0,0.0,30.0,11.0,0.0
223,64.0,2.0,30.0,12.0,0.0
224,74.0,3.0,60.0,2.0,0.0
225,71.0,0.0,60.0,2.0,0.0
226,52.0,2.0,30.0,5.0,0.0
227,56.0,2.0,30.0,13.0,0.0
228,68.0,30.0,60.0,3.0,0.0
229,62.0,0.0,60.0,3.0,0.0
230,44.0,10.0,30.0,14.0,0.0
231,85.0,1.0,15.0,10.0,0.0
232,85.0,0.0,15.0,0.0,0.0
233,73.0,1.0,15.0,11.0,0.0
234,85.0,0.0,15.0,1.0,0.0
235,83.0,1.0,30.0,10.0,0.0
236,71.0,7.0,30.0,11.0,0.0
237,64.0,1.0,30.0,4.0,0.0
238,83.0,0.0,30.0,1.0,0.0
239,74.0,31.0,60.0,1.0,0.0
240,83.0,0.0,30.0,0.0,0.0
241,52.0,2.0,30.0,5.0,0.0
242,64.0,2.0,30.0,12.0,0.0
243,71.0,0.0,60.0,2.0,0.0
244,74.0,3.0,60.0,2.0,0.0
245,59.0,2.0,30.0,13.0,0.0
246,62.0,0.0,60.0,3.0,0.0
247,68.0,0.0,60.0,3.0,0.0
248,47.0,10.0,30.0,14.0,0.0
249,81.0,1.0,15.0,10.0,0.0
250,69.0,0.0,15.0,11.0,0.0
251,81.0,0.0,15.0,1.0,0.0
252,81.0,1.0,15.0,0.0,0.0
253,80.0,22.0,30.0,10.0,0.0
254,64.0,1.0,120.0,4.0,0.0
255,68.0,1.0,60.0,11.0,0.0
256,80.0,8.0,30.0,1.0,0.0
257,76.0,0.0,60.0,1.0,0.0
258,80.0,0.0,60.0,0.0,0.0
259,71.0,29.0,60.0,12.0,0.0
260,74.0,0.0,120.0,2.0,0.0
261,71.0,0.0,120.0,2.0,0.0
262,52.0,2.0,120.0,5.0,0.0
263,64.0,1.0,120.0,13.0,0.0
264,62.0,1.0,120.0,3.0,0.0
265,68.0,0.0,120.0,3.0,0.0
266,52.0,0.0,120.0,14.0,0.0
267,80.0,7.0,30.0,10.0,0.0
268,80.0,8.0,30.0,1.0,0.0
269,71.0,1.0,60.0,1.0,0.0
270,88.0,10.0,60.0,0.0,0.0
271,71.0,0.0,60.0,11.0,0.0
272,68.0,44.0,60.0,12.0,0.0
273,80.0,1.0,60.0,10.0,0.0
274,76.0,1.0,60.0,11.0,0.0
275,64.0,0.0,60.0,4.0,0.0
276,76.0,1.0,120.0,1.0,0.0
277,88.0,10.0,60.0,0.0,0.0
278,71.0,2.0,60.0,2.0,0.0
279,68.0,0.0,60.0,2.0,0.0
280,52.0,0.0,60.0,5.0,0.0
281,71.0,3.0,60.0,12.0,0.0
282,62.0,1.0,60.0,13.0,0.0
283,64.0,0.0,120.0,3.0,0.0
284,62.0,1.0,60.0,3.0,0.0
285,50.0,20.0,60.0,14.0,0.0
286,81.0,1.0,60.0,10.0,0.0
287,81.0,1.0,15.0,1.0,0.0
288,88.0,1.0,60.0,0.0,0.0
289,76.0,1.0,30.0,11.0,0.0
290,64.0,0.0,60.0,4.0,0.0
291,64.0,0.0,60.0,2.0,0.0
292,52.0,9.0,60.0,5.0,0.0
293,69.0,2.0,60.0,2.0,0.0
294,64.0,19.0,30.0,12.0,0.0
295,61.0,1.0,60.0,13.0,0.0
296,61.0,1.0,60.0,3.0,0.0
297,49.0,20.0,60.0,14.0,0.0
298,76.0,1.0,30.0,11.0,0.0
299,64.0,3.0,30.0,12.0,0.0
300,83.0,1.0,60.0,10.0,0.0
301,76.0,1.0,30.0,11.0,0.0
302,80.0,1.0,60.0,1.0,0.0
303,88.0,1.0,60.0,0.0,0.0
304,64.0,0.0,60.0,4.0,0.0
305,83.0,0.0,60.0,1.0,0.0
306,64.0,19.0,30.0,12.0,0.0
307,71.0,2.0,60.0,2.0,0.0
308,68.0,0.0,60.0,2.0,0.0
309,52.0,9.0,60.0,5.0,0.0
310,59.0,1.0,60.0,13.0,0.0
311,68.0,1.0,60.0,3.0,0.0
312,59.0,0.0,60.0,3.0,0.0
313,47.0,20.0,60.0,14.0,0.0
314,76.0,1.0,30.0,11.0,0.0
315,64.0,3.0,30.0,12.0,0.0
316,85.0,1.0,60.0,10.0,0.0
317,76.0,1.0,30.0,11.0,0.0
318,64.0,1.0,60.0,4.0,0.0
319,85.0,4.0,60.0,1.0,0.0
320,81.0,0.0,60.0,1.0,0.0
321,88.0,0.0,60.0,0.0,0.0
322,64.0,19.0,30.0,12.0,0.0
323,73.0,0.0,60.0,2.0,0.0
324,69.0,2.0,60.0,2.0,0.0
325,52.0,8.0,60.0,5.0,0.0
326,57.0,2.0,60.0,13.0,0.0
327,69.0,21.0,60.0,3.0,0.0
328,57.0,0.0,60.0,3.0,0.0
329,45.0,0.0,60.0,14.0,0.0
330,76.0,1.0,30.0,11.0,0.0
331,64.0,0.0,30.0,12.0,0.0
332,86.0,1.0,90.0,10.0,0.0
333,64.0,1.0,120.0,4.0,0.0
334,88.0,0.0,120.0,0.0,0.0
335,76.0,1.0,30.0,11.0,0.0
336,86.0,1.0,90.0,1.0,0.0
337,83.0,0.0,60.0,1.0,0.0
338,74.0,24.0,90.0,2.0,0.0
339,71.0,24.0,60.0,2.0,0.0
340,64.0,29.0,30.0,12.0,0.0
341,52.0,0.0,120.0,5.0,0.0
342,56.0,2.0,60.0,13.0,0.0
343,59.0,21.0,120.0,3.0,0.0
344,62.0,0.0,120.0,3.0,0.0
345,44.0,1.0,60.0,14.0,0.0
346,76.0,1.0,30.0,11.0,0.0
347,64.0,2.0,30.0,12.0,0.0
348,76.0,1.0,30.0,11.0,0.0
349,80.0,0.0,60.0,1.0,0.0
350,68.0,3.0,30.0,12.0,0.0
351,68.0,0.0,60.0,2.0,0.0
352,52.0,1.0,60.0,13.0,0.0
353,40.0,1.0,60.0,14.0,0.0
354,88.0,1.0,30.0,10.0,0.0
355,76.0,0.0,30.0,11.0,0.0
356,88.0,0.0,30.0,1.0,0.0
357,76.0,3.0,30.0,2.0,0.0
358,64.0,2.0,30.0,12.0,0.0
359,85.0,1.0,60.0,10.0,0.0
360,85.0,1.0,30.0,1.0,0.0
361,81.0,0.0,60.0,1.0,0.0
362,64.0,0.0,60.0,4.0,0.0
363,76.0,1.0,30.0,11.0,0.0
364,88.0,1.0,60.0,0.0,0.0
365,69.0,0.0,60.0,2.0,0.0
366,73.0,23.0,30.0,2.0,0.0
367,69.0,4.0,30.0,12.0,0.0
368,52.0,2.0,60.0,5.0,0.0
369,57.0,1.0,60.0,13.0,0.0
370,57.0,1.0,60.0,3.0,0.0
371,61.0,0.0,60.0,3.0,0.0
372,45.0,26.0,60.0,14.0,0.0
373,76.0,0.0,30.0,11.0,0.0
374,64.0,0.0,30.0,12.0,0.0
375,83.0,1.0,60.0,10.0,0.0
376,83.0,0.0,60.0,1.0,0.0
377,76.0,1.0,60.0,11.0,0.0
378,88.0,0.0,60.0,0.0,0.0
379,80.0,0.0,60.0,1.0,0.0
380,64.0,1.0,30.0,4.0,0.0
381,52.0,26.0,30.0,5.0,0.0
382,68.0,0.0,60.0,2.0,0.0
383,71.0,2.0,60.0,2.0,0.0
384,64.0,3.0,30.0,12.0,0.0
385,52.0,1.0,60.0,13.0,0.0
386,59.0,1.0,60.0,3.0,0.0
387,56.0,0.0,60.0,3.0,0.0
388,40.0,21.0,60.0,14.0,0.0
389,64.0,0.0,30.0,4.0,0.0
390,52.0,0.0,30.0,5.0,0.0
391,64.0,3.0,30.0,12.0,0.0
392,64.0,1.0,30.0,4.0,0.0
393,64.0,3.0,30.0,12.0,0.0
394,52.0,26.0,30.0,5.0,0.0
395,64.0,1.0,30.0,4.0,0.0
396,64.0,3.0,30.0,12.0,0.0
397,52.0,26.0,30.0,5.0,0.0
398,83.0,1.0,60.0,10.0,0.0
399,71.0,0.0,60.0,11.0,0.0
400,80.0,0.0,60.0,1.0,0.0
401,83.0,1.0,60.0,1.0,0.0
402,83.0,1.0,60.0,0.0,0.0
403,64.0,1.0,30.0,4.0,0.0
404,52.0,24.0,30.0,5.0,0.0
405,68.0,3.0,30.0,12.0,0.0
406,68.0,2.0,60.0,2.0,0.0
407,71.0,0.0,60.0,2.0,0.0
408,62.0,1.0,60.0,13.0,0.0
409,56.0,1.0,60.0,3.0,0.0
410,59.0,0.0,60.0,3.0,0.0
411,50.0,21.0,60.0,14.0,0.0
412,64.0,1.0,30.0,4.0,0.0
413,64.0,3.0,30.0,12.0,0.0
414,52.0,0.0,30.0,5.0,0.0
415,85.0,1.0,120.0,10.0,0.0
416,64.0,1.0,30.0,4.0,0.0
417,73.0,0.0,120.0,11.0,0.0
418,85.0,0.0,60.0,1.0,0.0
419,81.0,0.0,60.0,1.0,0.0
420,85.0,9.0,120.0,0.0,0.0
421,52.0,26.0,30.0,5.0,0.0
422,73.0,2.0,60.0,2.0,0.0
423,69.0,0.0,60.0,2.0,0.0
424,69.0,3.0,30.0,12.0,0.0
425,61.0,1.0,60.0,13.0,0.0
426,57.0,1.0,60.0,3.0,0.0
427,61.0,0.0,60.0,3.0,0.0
428,49.0,21.0,60.0,14.0,0.0
429,64.0,1.0,30.0,4.0,0.0
430,52.0,1.0,30.0,5.0,0.0
431,64.0,3.0,30.0,12.0,0.0
432,64.0,1.0,30.0,4.0,0.0
433,69.0,3.0,30.0,12.0,0.0
434,52.0,14.0,30.0,5.0,0.0
435,64.0,1.0,30.0,4.0,0.0
436,64.0,3.0,30.0,12.0,0.0
437,52.0,26.0,30.0,5.0,0.0
438,81.0,1.0,15.0,10.0,0.0
439,81.0,0.0,15.0,0.0,0.0
440,69.0,1.0,15.0,11.0,0.0
441,88.0,1.0,60.0,10.0,0.0
442,85.0,1.0,60.0,1.0,0.0
443,76.0,0.0,60.0,11.0,0.0
444,88.0,9.0,60.0,0.0,0.0
445,64.0,1.0,30.0,4.0,0.0
446,81.0,0.0,60.0,1.0,0.0
447,69.0,0.0,60.0,2.0,0.0
448,73.0,2.0,60.0,2.0,0.0
449,69.0,3.0,30.0,12.0,0.0
450,52.0,14.0,30.0,5.0,0.0
451,57.0,1.0,60.0,13.0,0.0
452,57.0,1.0,60.0,3.0,0.0
453,61.0,0.0,60.0,3.0,0.0
454,45.0,21.0,60.0,14.0,0.0
455,64.0,1.0,30.0,4.0,0.0
456,64.0,3.0,30.0,12.0,0.0
457,52.0,0.0,30.0,5.0,0.0
458,85.0,1.0,15.0,10.0,0.0
459,85.0,1.0,15.0,0.0,0.0
460,73.0,0.0,15.0,11.0,0.0
461,83.0,0.0,60.0,10.0,0.0
462,83.0,0.0,60.0,1.0,0.0
463,71.0,0.0,60.0,11.0,0.0
464,83.0,0.0,60.0,0.0,0.0
465,80.0,1.0,60.0,1.0,0.0
466,64.0,1.0,30.0,4.0,0.0
467,71.0,0.0,60.0,2.0,0.0
468,68.0,3.0,30.0,12.0,0.0
469,68.0,2.0,60.0,2.0,0.0
470,52.0,26.0,30.0,5.0,0.0
471,52.0,1.0,60.0,13.0,0.0
472,59.0,1.0,60.0,3.0,0.0
473,56.0,0.0,60.0,3.0,0.0
474,40.0,21.0,60.0,14.0,0.0
475,64.0,1.0,30.0,4.0,0.0
476,52.0,0.0,30.0,5.0,0.0
477,64.0,3.0,30.0,12.0,0.0
478,64.0,1.0,30.0,4.0,0.0
479,64.0,3.0,30.0,12.0,0.0
480,52.0,26.0,30.0,5.0,0.0
481,64.0,1.0,30.0,4.0,0.0
482,64.0,3.0,30.0,12.0,0.0
483,52.0,26.0,30.0,5.0,0.0
484,83.0,1.0,60.0,10.0,0.0
485,80.0,0.0,60.0,1.0,0.0
486,83.0,0.0,60.0,1.0,0.0
487,71.0,1.0,60.0,11.0,0.0
488,64.0,1.0,30.0,4.0,0.0
489,83.0,0.0,60.0,0.0,0.0
490,68.0,3.0,30.0,12.0,0.0
491,71.0,2.0,60.0,2.0,0.0
492,68.0,0.0,60.0,2.0,0.0
493,52.0,24.0,30.0,5.0,0.0
494,62.0,1.0,60.0,13.0,0.0
495,56.0,0.0,60.0,3.0,0.0
496,59.0,1.0,60.0,3.0,0.0
497,50.0,21.0,60.0,14.0,0.0
498,64.0,1.0,30.0,4.0,0.0
499,52.0,1.0,30.0,5.0,0.0
500,64.0,3.0,30.0,12.0,0.0
501,85.0,1.0,120.0,10.0,0.0
502,64.0,1.0,30.0,4.0,0.0
503,81.0,1.0,60.0,1.0,0.0
504,85.0,0.0,60.0,1.0,0.0
505,85.0,9.0,120.0,0.0,0.0
506,73.0,0.0,120.0,11.0,0.0
507,73.0,2.0,60.0,2.0,0.0
508,52.0,26.0,30.0,5.0,0.0
509,69.0,3.0,30.0,12.0,0.0
510,69.0,0.0,60.0,2.0,0.0
511,61.0,1.0,60.0,13.0,0.0
512,57.0,0.0,60.0,3.0,0.0
513,61.0,1.0,60.0,3.0,0.0
514,49.0,21.0,60.0,14.0,0.0
515,64.0,1.0,30.0,4.0,0.0
516,64.0,3.0,30.0,12.0,0.0
517,52.0,0.0,30.0,5.0,0.0
518,64.0,1.0,30.0,4.0,0.0
519,69.0,3.0,30.0,12.0,0.0
520,52.0,14.0,30.0,5.0,0.0
521,64.0,1.0,30.0,4.0,0.0
522,52.0,26.0,30.0,5.0,0.0
523,64.0,3.0,30.0,12.0,0.0
524,81.0,1.0,15.0,10.0,0.0
525,81.0,0.0,15.0,0.0,0.0
526,69.0,1.0,15.0,11.0,0.0
527,88.0,1.0,60.0,10.0,0.0
528,81.0,1.0,60.0,1.0,0.0
529,76.0,0.0,60.0,11.0,0.0
530,88.0,9.0,60.0,0.0,0.0
531,64.0,1.0,30.0,4.0,0.0
532,85.0,0.0,60.0,1.0,0.0
533,69.0,2.0,60.0,2.0,0.0
534,73.0,0.0,60.0,2.0,0.0
535,52.0,14.0,30.0,5.0,0.0
536,69.0,3.0,30.0,12.0,0.0
537,57.0,1.0,60.0,13.0,0.0
538,57.0,1.0,60.0,3.0,0.0
539,61.0,0.0,60.0,3.0,0.0
540,45.0,21.0,60.0,14.0,0.0
541,64.0,1.0,30.0,4.0,0.0
542,52.0,0.0,30.0,5.0,0.0
543,64.0,3.0,30.0,12.0,0.0
544,85.0,1.0,15.0,10.0,0.0
545,73.0,0.0,15.0,11.0,0.0
546,85.0,1.0,15.0,0.0,0.0
547,83.0,0.0,30.0,10.0,0.0
548,80.0,3.0,60.0,1.0,0.0
549,83.0,0.0,60.0,1.0,0.0
550,64.0,1.0,30.0,4.0,0.0
551,83.0,0.0,30.0,0.0,0.0
552,71.0,26.0,30.0,11.0,0.0
553,68.0,0.0,60.0,2.0,0.0
554,68.0,3.0,30.0,12.0,0.0
555,52.0,0.0,30.0,5.0,0.0
556,71.0,0.0,60.0,2.0,0.0
557,52.0,2.0,60.0,13.0,0.0
558,56.0,0.0,60.0,3.0,0.0
559,59.0,1.0,60.0,3.0,0.0
560,40.0,21.0,60.0,14.0,0.0
561,76.0,0.0,30.0,4.0,0.0
562,64.0,0.0,30.0,5.0,0.0
563,64.0,3.0,30.0,12.0,0.0
564,88.0,1.0,90.0,10.0,0.0
565,88.0,15.0,90.0,0.0,0.0
566,76.0,1.0,30.0,4.0,0.0
567,76.0,0.0,90.0,11.0,0.0
568,64.0,26.0,30.0,5.0,0.0
569,68.0,3.0,60.0,2.0,0.0
570,71.0,0.0,60.0,2.0,0.0
571,68.0,3.0,30.0,12.0,0.0
572,59.0,0.0,60.0,3.0,0.0
573,56.0,22.0,60.0,3.0,0.0
574,76.0,1.0,30.0,4.0,0.0
575,64.0,1.0,30.0,5.0,0.0
576,64.0,3.0,30.0,12.0,0.0
577,73.0,0.0,30.0,4.0,0.0
578,88.0,8.0,60.0,1.0,0.0
579,73.0,2.0,60.0,2.0,0.0
580,61.0,0.0,30.0,5.0,0.0
581,69.0,0.0,60.0,2.0,0.0
582,69.0,3.0,30.0,12.0,0.0
583,57.0,1.0,60.0,13.0,0.0
584,61.0,1.0,60.0,3.0,0.0
585,57.0,0.0,60.0,3.0,0.0
586,45.0,21.0,60.0,14.0,0.0
587,85.0,1.0,30.0,10.0,0.0
588,85.0,0.0,30.0,0.0,0.0
589,69.0,1.0,30.0,4.0,0.0
590,73.0,1.0,30.0,11.0,0.0
591,64.0,3.0,30.0,12.0,0.0
592,57.0,1.0,30.0,5.0,0.0
593,81.0,1.0,15.0,1.0,0.0
594,85.0,0.0,15.0,1.0,0.0
595,83.0,1.0,30.0,10.0,0.0
596,64.0,0.0,30.0,4.0,0.0
597,83.0,0.0,30.0,0.0,0.0
598,80.0,0.0,30.0,1.0,0.0
599,83.0,1.0,30.0,1.0,0.0
600,71.0,0.0,30.0,11.0,0.0
601,71.0,3.0,30.0,2.0,0.0
602,68.0,3.0,30.0,12.0,0.0
603,68.0,0.0,30.0,2.0,0.0
604,52.0,0.0,30.0,5.0,0.0
605,52.0,2.0,60.0,13.0,0.0
606,56.0,0.0,30.0,3.0,0.0
607,59.0,22.0,30.0,3.0,0.0
608,40.0,21.0,60.0,14.0,0.0
609,76.0,1.0,30.0,4.0,0.0
610,64.0,3.0,30.0,5.0,0.0
611,64.0,3.0,30.0,12.0,0.0
612,88.0,1.0,30.0,10.0,0.0
613,76.0,0.0,30.0,4.0,0.0
614,88.0,26.0,30.0,0.0,0.0
615,76.0,0.0,30.0,11.0,0.0
616,68.0,0.0,60.0,2.0,0.0
617,71.0,3.0,60.0,2.0,0.0
618,64.0,0.0,30.0,5.0,0.0
619,68.0,3.0,30.0,12.0,0.0
620,59.0,22.0,60.0,3.0,0.0
621,56.0,0.0,60.0,3.0,0.0
622,87.0,0.0,30.0,10.0,0.0
623,76.0,1.0,30.0,4.0,0.0
624,75.0,0.0,30.0,11.0,0.0
625,87.0,1.0,30.0,0.0,0.0
626,64.0,3.0,30.0,12.0,0.0
627,64.0,0.0,30.0,5.0,0.0
628,88.0,0.0,30.0,10.0,0.0
629,88.0,0.0,30.0,0.0,0.0
630,76.0,0.0,30.0,11.0,0.0
631,73.0,1.0,30.0,4.0,0.0
632,88.0,0.0,60.0,1.0,0.0
633,85.0,8.0,60.0,1.0,0.0
634,73.0,0.0,60.0,2.0,0.0
635,69.0,2.0,60.0,2.0,0.0
636,61.0,15.0,30.0,5.0,0.0
637,69.0,3.0,30.0,12.0,0.0
638,57.0,1.0,60.0,13.0,0.0
639,61.0,1.0,60.0,3.0,0.0
640,57.0,0.0,60.0,3.0,0.0
641,45.0,33.0,60.0,14.0,0.0
642,85.0,1.0,30.0,10.0,0.0
643,73.0,0.0,30.0,11.0,0.0
644,85.0,1.0,30.0,0.0,0.0
645,69.0,1.0,30.0,4.0,0.0
646,64.0,3.0,30.0,12.0,0.0
647,57.0,1.0,30.0,5.0,0.0
648,81.0,1.0,15.0,1.0,0.0
649,85.0,0.0,15.0,1.0,0.0
650,83.0,1.0,30.0,10.0,0.0
651,64.0,0.0,30.0,4.0,0.0
652,83.0,1.0,30.0,1.0,0.0
653,80.0,0.0,30.0,1.0,0.0
654,71.0,0.0,30.0,11.0,0.0
655,83.0,0.0,30.0,0.0,0.0
656,52.0,2.0,30.0,5.0,0.0
657,71.0,0.0,30.0,2.0,0.0
658,64.0,0.0,30.0,12.0,0.0
659,68.0,0.0,30.0,2.0,0.0
660,52.0,1.0,30.0,13.0,0.0
661,59.0,0.0,30.0,3.0,0.0
662,56.0,1.0,30.0,3.0,0.0
663,40.0,54.0,30.0,14.0,0.0
664,71.0,1.0,30.0,10.0,0.0
665,71.0,0.0,30.0,4.0,0.0
666,68.0,0.0,30.0,11.0,0.0
667,83.0,0.0,30.0,1.0,0.0
668,80.0,0.0,30.0,1.0,0.0
669,83.0,0.0,30.0,0.0,0.0
670,59.0,1.0,30.0,11.0,0.0
671,71.0,2.0,30.0,2.0,0.0
672,68.0,0.0,30.0,2.0,0.0
673,52.0,0.0,30.0,12.0,0.0
674,64.0,0.0,30.0,5.0,0.0
675,52.0,1.0,30.0,13.0,0.0
676,64.0,1.0,30.0,3.0,0.0
677,52.0,0.0,30.0,3.0,0.0
678,40.0,54.0,30.0,14.0,0.0
679,71.0,1.0,30.0,10.0,0.0
680,83.0,0.0,30.0,1.0,0.0
681,83.0,0.0,30.0,0.0,0.0
682,71.0,0.0,30.0,4.0,0.0
683,80.0,0.0,30.0,1.0,0.0
684,59.0,0.0,30.0,11.0,0.0
685,68.0,1.0,30.0,11.0,0.0
686,68.0,0.0,30.0,2.0,0.0
687,64.0,0.0,30.0,5.0,0.0
688,71.0,0.0,30.0,2.0,0.0
689,52.0,2.0,30.0,12.0,0.0
690,52.0,1.0,30.0,13.0,0.0
691,64.0,0.0,30.0,3.0,0.0
692,52.0,1.0,30.0,3.0,0.0
693,40.0,75.0,30.0,14.0,0.0
694,71.0,1.0,60.0,10.0,0.0
695,68.0,0.0,60.0,11.0,0.0
696,83.0,0.0,60.0,1.0,0.0
697,80.0,0.0,60.0,1.0,0.0
698,83.0,0.0,60.0,0.0,0.0
699,59.0,0.0,60.0,11.0,0.0
700,71.0,1.0,60.0,4.0,0.0
701,64.0,0.0,60.0,5.0,0.0
702,52.0,2.0,60.0,12.0,0.0
703,71.0,0.0,60.0,2.0,0.0
704,68.0,0.0,60.0,2.0,0.0
705,52.0,1.0,60.0,13.0,0.0
706,52.0,1.0,60.0,3.0,0.0
707,40.0,114.0,60.0,14.0,0.0
708,71.0,39.0,60.0,10.0,0.0
709,80.0,64.0,30.0,10.0,0.0
710,65.0,60.0,30.0,13.0,0.0
711,80.0,1.0,60.0,10.0,0.0
712,77.0,1.0,60.0,11.0,0.0
713,71.0,37.0,60.0,12.0,0.0
714,61.0,17.0,30.0,13.0,0.0
715,81.0,1.0,30.0,10.0,0.0
716,78.0,1.0,30.0,11.0,0.0
717,69.0,2.0,30.0,12.0,0.0
718,66.0,60.0,30.0,13.0,0.0
719,54.0,62.0,30.0,13.0,0.0
720,85.0,1.0,60.0,10.0,0.0
721,73.0,9.0,60.0,11.0,0.0
722,81.0,1.0,15.0,10.0,0.0
723,69.0,43.0,15.0,11.0,0.0
724,78.0,1.0,30.0,10.0,0.0
725,66.0,63.0,30.0,11.0,0.0
726,63.0,60.0,30.0,13.0,0.0
727,78.0,1.0,60.0,10.0,0.0
728,75.0,1.0,60.0,11.0,0.0
729,69.0,37.0,60.0,12.0,0.0
730,59.0,17.0,30.0,13.0,0.0
731,80.0,1.0,30.0,10.0,0.0
732,76.0,1.0,30.0,11.0,0.0
733,68.0,2.0,30.0,12.0,0.0
734,64.0,60.0,30.0,13.0,0.0
735,52.0,62.0,30.0,13.0,0.0
736,83.0,1.0,60.0,10.0,0.0
737,71.0,9.0,60.0,11.0,0.0
738,80.0,1.0,15.0,10.0,0.0
739,68.0,43.0,15.0,11.0,0.0
740,76.0,1.0,30.0,10.0,0.0
741,64.0,1.0,30.0,11.0,0.0
742,59.0,2.0,30.0,12.0,0.0
743,56.0,1.0,30.0,13.0,0.0
744,56.0,68.0,30.0,3.0,0.0
745,76.0,1.0,60.0,10.0,0.0
746,71.0,1.0,60.0,11.0,0.0
747,71.0,1.0,60.0,12.0,0.0
748,68.0,56.0,60.0,13.0,0.0
749,68.0,1.0,60.0,3.0,0.0
750,76.0,1.0,60.0,10.0,0.0
751,71.0,1.0,60.0,11.0,0.0
752,71.0,1.0,60.0,12.0,0.0
753,68.0,64.0,60.0,13.0,0.0
754,68.0,1.0,60.0,3.0,0.0
755,76.0,2.0,60.0,10.0,0.0
756,71.0,4.0,120.0,11.0,0.0
757,71.0,2.0,60.0,12.0,0.0
758,68.0,1.0,60.0,13.0,0.0
759,68.0,51.0,60.0,3.0,0.0
760,75.0,2.0,60.0,10.0,0.0
761,69.0,2.0,60.0,12.0,0.0
762,66.0,1.0,60.0,13.0,0.0
763,66.0,50.0,60.0,3.0,0.0
764,76.0,1.0,60.0,10.0,0.0
765,71.0,1.0,60.0,11.0,0.0
766,68.0,2.0,60.0,12.0,0.0
767,64.0,1.0,60.0,13.0,0.0
768,64.0,60.0,60.0,3.0,0.0
769,78.0,1.0,60.0,10.0,0.0
770,71.0,1.0,120.0,4.0,0.0
771,71.0,1.0,60.0,11.0,0.0
772,71.0,5.0,120.0,5.0,0.0
773,66.0,2.0,60.0,12.0,0.0
774,63.0,1.0,60.0,13.0,0.0
775,63.0,51.0,60.0,3.0,0.0
776,81.0,1.0,60.0,10.0,0.0
777,78.0,14.0,60.0,11.0,0.0
778,63.0,2.0,60.0,12.0,0.0
779,59.0,1.0,60.0,13.0,0.0
780,59.0,10.0,60.0,3.0,0.0
781,71.0,0.0,60.0,4.0,0.0
782,64.0,0.0,60.0,12.0,0.0
783,71.0,2.0,60.0,5.0,0.0
784,64.0,1.0,60.0,13.0,0.0
785,64.0,43.0,60.0,3.0,0.0
786,80.0,1.0,15.0,10.0,0.0
787,76.0,14.0,15.0,11.0,0.0
788,78.0,1.0,15.0,10.0,0.0
789,75.0,9.0,15.0,11.0,0.0
790,80.0,1.0,15.0,10.0,0.0
791,76.0,1.0,15.0,11.0,0.0
792,78.0,0.0,60.0,10.0,0.0
793,75.0,1.0,60.0,11.0,0.0
794,71.0,0.0,60.0,4.0,0.0
795,71.0,0.0,60.0,5.0,0.0
796,71.0,41.0,60.0,12.0,0.0
797,59.0,17.0,30.0,13.0,0.0
798,59.0,1.0,60.0,3.0,0.0
799,71.0,17.0,30.0,13.0,0.0
800,71.0,61.0,60.0,3.0,0.0
801,83.0,0.0,60.0,0.0,0.0
802,71.0,14.0,60.0,11.0,0.0
803,71.0,0.0,60.0,1.0,0.0
804,83.0,25.0,15.0,10.0,0.0
805,80.0,5.0,30.0,11.0,0.0
806,92.0,0.0,30.0,0.0,0.0
807,80.0,0.0,30.0,1.0,0.0
808,80.0,30.0,15.0,10.0,0.0
809,77.0,28.0,15.0,10.0,0.0
810,65.0,2.0,30.0,13.0,0.0
811,53.0,30.0,30.0,14.0,0.0
812,73.0,0.0,15.0,10.0,0.0
813,71.0,28.0,15.0,10.0,0.0
814,92.0,0.0,60.0,0.0,0.0
815,77.0,4.0,60.0,1.0,0.0
816,80.0,0.0,60.0,11.0,0.0
817,80.0,0.0,60.0,1.0,0.0
818,61.0,2.0,30.0,13.0,0.0
819,68.0,10.0,60.0,3.0,0.0
820,71.0,0.0,60.0,3.0,0.0
821,49.0,0.0,30.0,14.0,0.0
822,68.0,16.0,15.0,10.0,0.0
823,69.0,25.0,15.0,10.0,0.0
824,81.0,0.0,30.0,11.0,0.0
825,81.0,0.0,30.0,1.0,0.0
826,78.0,3.0,30.0,1.0,0.0
827,93.0,0.0,30.0,0.0,0.0
828,66.0,2.0,30.0,13.0,0.0
829,66.0,0.0,60.0,3.0,0.0
830,69.0,25.0,60.0,3.0,0.0
831,54.0,0.0,30.0,14.0,0.0
832,66.0,20.0,15.0,10.0,0.0
833,73.0,1.0,30.0,10.0,0.0
834,85.0,10.0,30.0,1.0,0.0
835,85.0,0.0,30.0,11.0,0.0
836,69.0,2.0,30.0,12.0,0.0
837,54.0,2.0,30.0,13.0,0.0
838,42.0,15.0,30.0,14.0,0.0
839,72.0,1.0,30.0,10.0,0.0
840,84.0,0.0,30.0,11.0,0.0
841,84.0,29.0,30.0,1.0,0.0
842,73.0,1.0,30.0,10.0,0.0
843,85.0,0.0,30.0,11.0,0.0
844,85.0,10.0,30.0,1.0,0.0
845,66.0,14.0,30.0,12.0,0.0
846,69.0,1.0,30.0,10.0,0.0
847,81.0,19.0,30.0,11.0,0.0
848,81.0,0.0,30.0,1.0,0.0
849,81.0,26.0,15.0,10.0,0.0
850,78.0,0.0,60.0,11.0,0.0
851,90.0,0.0,60.0,0.0,0.0
852,78.0,0.0,60.0,1.0,0.0
853,75.0,14.0,60.0,1.0,0.0
854,71.0,4.0,30.0,12.0,0.0
855,78.0,16.0,15.0,10.0,0.0
856,75.0,26.0,15.0,10.0,0.0
857,59.0,2.0,30.0,12.0,0.0
858,63.0,2.0,30.0,13.0,0.0
859,51.0,30.0,30.0,14.0,0.0
860,71.0,0.0,15.0,10.0,0.0
861,69.0,28.0,15.0,10.0,0.0
862,78.0,4.0,60.0,11.0,0.0
863,78.0,0.0,60.0,1.0,0.0
864,75.0,0.0,60.0,1.0,0.0
865,90.0,0.0,60.0,0.0,0.0
866,59.0,2.0,30.0,13.0,0.0
867,66.0,0.0,60.0,3.0,0.0
868,69.0,10.0,60.0,3.0,0.0
869,47.0,16.0,30.0,14.0,0.0
870,66.0,0.0,15.0,10.0,0.0
871,68.0,25.0,15.0,10.0,0.0
872,76.0,3.0,30.0,1.0,0.0
873,80.0,0.0,30.0,1.0,0.0
874,80.0,0.0,30.0,11.0,0.0
875,92.0,0.0,30.0,0.0,0.0
876,64.0,1.0,30.0,13.0,0.0
877,64.0,1.0,30.0,3.0,0.0
878,68.0,0.0,30.0,3.0,0.0
879,52.0,45.0,30.0,14.0,0.0
880,64.0,0.0,15.0,10.0,0.0
881,71.0,1.0,30.0,10.0,0.0
882,95.0,1.0,30.0,0.0,0.0
883,68.0,2.0,30.0,12.0,0.0
884,83.0,3.0,30.0,2.0,0.0
885,52.0,2.0,30.0,13.0,0.0
886,71.0,6.0,30.0,3.0,0.0
887,40.0,15.0,30.0,14.0,0.0
888,70.0,1.0,30.0,10.0,0.0
889,94.0,1.0,30.0,0.0,0.0
890,82.0,3.0,30.0,2.0,0.0
891,70.0,25.0,30.0,3.0,0.0
892,71.0,1.0,30.0,10.0,0.0
893,95.0,1.0,30.0,0.0,0.0
894,83.0,3.0,30.0,2.0,0.0
895,64.0,14.0,30.0,12.0,0.0
896,71.0,6.0,30.0,3.0,0.0
897,68.0,1.0,30.0,10.0,0.0
898,92.0,1.0,30.0,0.0,0.0
899,80.0,3.0,30.0,2.0,0.0
900,68.0,16.0,30.0,3.0,0.0
901,64.0,1.0,60.0,10.0,0.0
902,71.0,25.0,15.0,11.0,0.0
903,88.0,1.0,60.0,0.0,0.0
904,71.0,8.0,60.0,2.0,0.0
905,76.0,0.0,60.0,2.0,0.0
906,59.0,2.0,30.0,12.0,0.0
907,56.0,2.0,30.0,13.0,0.0
908,44.0,1.0,30.0,14.0,0.0
909,74.0,9.0,15.0,11.0,0.0
910,76.0,1.0,60.0,10.0,0.0
911,71.0,25.0,15.0,11.0,0.0
912,88.0,1.0,60.0,0.0,0.0
913,68.0,2.0,30.0,12.0,0.0
914,76.0,3.0,60.0,2.0,0.0
915,71.0,0.0,60.0,2.0,0.0
916,56.0,2.0,30.0,13.0,0.0
917,59.0,0.0,15.0,3.0,0.0
918,64.0,11.0,15.0,3.0,0.0
919,44.0,1.0,30.0,14.0,0.0
920,74.0,14.0,15.0,11.0,0.0
921,77.0,1.0,60.0,10.0,0.0
922,71.0,25.0,15.0,11.0,0.0
923,89.0,1.0,60.0,0.0,0.0
924,68.0,2.0,30.0,12.0,0.0
925,74.0,3.0,60.0,2.0,0.0
926,77.0,0.0,60.0,2.0,0.0
927,56.0,2.0,30.0,13.0,0.0
928,65.0,30.0,60.0,3.0,0.0
929,62.0,0.0,60.0,3.0,0.0
930,44.0,1.0,30.0,14.0,0.0
931,74.0,9.0,15.0,11.0,0.0
932,78.0,1.0,30.0,10.0,0.0
933,90.0,0.0,60.0,0.0,0.0
934,66.0,29.0,30.0,11.0,0.0
935,73.0,2.0,60.0,2.0,0.0
936,69.0,0.0,60.0,12.0,0.0
937,78.0,0.0,60.0,2.0,0.0
938,57.0,1.0,60.0,13.0,0.0
939,61.0,1.0,60.0,3.0,0.0
940,66.0,0.0,60.0,3.0,0.0
941,45.0,24.0,60.0,14.0,0.0
942,80.0,1.0,30.0,10.0,0.0
943,68.0,1.0,30.0,11.0,0.0
944,81.0,1.0,30.0,10.0,0.0
945,69.0,29.0,30.0,11.0,0.0
946,83.0,1.0,30.0,10.0,0.0
947,71.0,29.0,30.0,11.0,0.0
948,84.0,1.0,30.0,10.0,0.0
949,72.0,24.0,30.0,11.0,0.0
950,85.0,1.0,30.0,10.0,0.0
951,73.0,35.0,30.0,11.0,0.0
952,76.0,1.0,90.0,10.0,0.0
953,88.0,0.0,120.0,0.0,0.0
954,68.0,30.0,30.0,11.0,0.0
955,68.0,3.0,120.0,2.0,0.0
956,76.0,0.0,120.0,2.0,0.0
957,71.0,29.0,30.0,11.0,0.0
958,71.0,1.0,60.0,4.0,0.0
959,68.0,1.0,30.0,11.0,0.0
960,71.0,2.0,30.0,12.0,0.0
961,71.0,3.0,60.0,5.0,0.0
962,59.0,2.0,30.0,13.0,0.0
963,59.0,26.0,60.0,3.0,0.0
964,64.0,0.0,60.0,3.0,0.0
965,47.0,2.0,30.0,14.0,0.0
966,78.0,7.0,15.0,10.0,0.0
967,71.0,1.0,30.0,11.0,0.0
968,76.0,8.0,15.0,10.0,0.0
969,75.0,3.0,15.0,10.0,0.0
970,76.0,1.0,15.0,10.0,0.0
971,78.0,1.0,60.0,10.0,0.0
972,90.0,9.0,60.0,0.0,0.0
973,69.0,1.0,30.0,11.0,0.0
974,71.0,1.0,60.0,4.0,0.0
975,75.0,3.0,60.0,2.0,0.0
976,59.0,2.0,30.0,12.0,0.0
977,71.0,0.0,60.0,5.0,0.0
978,69.0,0.0,60.0,2.0,0.0
979,47.0,2.0,30.0,13.0,0.0
980,66.0,45.0,60.0,3.0,0.0
981,59.0,0.0,60.0,3.0,0.0
982,35.0,9.0,30.0,14.0,0.0
983,71.0,0.0,30.0,11.0,0.0
984,75.0,1.0,15.0,10.0,0.0
985,87.0,0.0,15.0,0.0,0.0
986,76.0,8.0,60.0,10.0,0.0
987,71.0,1.0,60.0,4.0,0.0
988,88.0,0.0,60.0,0.0,0.0
989,68.0,0.0,60.0,11.0,0.0
990,64.0,0.0,60.0,5.0,0.0
991,68.0,0.0,60.0,2.0,0.0
992,64.0,2.0,60.0,12.0,0.0
993,76.0,0.0,60.0,2.0,0.0
994,52.0,1.0,60.0,13.0,0.0
995,52.0,1.0,60.0,3.0,0.0
996,64.0,0.0,60.0,3.0,0.0
997,40.0,48.0,60.0,14.0,0.0
998,83.0,8.0,15.0,10.0,0.0
999,83.0,13.0,150.0,10.0,0.0
1000,78.0,1.0,15.0,11.0,0.0
1001,75.0,2.0,15.0,12.0,0.0
1002,69.0,27.0,15.0,13.0,0.0
1003,80.0,1.0,20.0,11.0,0.0
1004,76.0,2.0,20.0,12.0,0.0
1005,68.0,27.0,20.0,13.0,0.0
1006,81.0,1.0,15.0,11.0,0.0
1007,78.0,2.0,15.0,12.0,0.0
1008,63.0,34.0,15.0,13.0,0.0
1009,80.0,1.0,30.0,11.0,0.0
1010,76.0,2.0,30.0,12.0,0.0
1011,64.0,6.0,30.0,13.0,0.0
1012,80.0,61.0,15.0,10.0,0.0
1013,80.0,13.0,150.0,10.0,0.0
1014,75.0,1.0,15.0,11.0,0.0
1015,72.0,2.0,15.0,12.0,0.0
1016,66.0,27.0,15.0,13.0,0.0
1017,76.0,1.0,20.0,11.0,0.0
1018,73.0,2.0,20.0,12.0,0.0
1019,64.0,27.0,20.0,13.0,0.0
1020,78.0,1.0,15.0,11.0,0.0
1021,75.0,2.0,15.0,12.0,0.0
1022,60.0,34.0,15.0,13.0,0.0
1023,76.0,1.0,30.0,11.0,0.0
1024,73.0,2.0,30.0,12.0,0.0
1025,61.0,6.0,30.0,13.0,0.0
1026,76.0,61.0,15.0,10.0,0.0
1027,76.0,24.0,90.0,10.0,0.0
1028,71.0,1.0,15.0,11.0,0.0
1029,68.0,2.0,15.0,12.0,0.0
1030,62.0,27.0,15.0,13.0,0.0
1031,73.0,1.0,20.0,11.0,0.0
1032,69.0,2.0,20.0,12.0,0.0
1033,61.0,3.0,20.0,13.0,0.0
1034,77.0,2.0,30.0,10.0,0.0
1035,74.0,1.0,15.0,11.0,0.0
1036,71.0,0.0,15.0,12.0,0.0
1037,56.0,23.0,15.0,13.0,0.0
1038,78.0,4.0,20.0,10.0,0.0
1039,73.0,1.0,20.0,11.0,0.0
1040,69.0,2.0,20.0,12.0,0.0
1041,57.0,8.0,20.0,13.0,0.0
1042,81.0,19.0,15.0,10.0,0.0
1043,85.0,2.0,15.0,10.0,0.0
1044,69.0,1.0,15.0,11.0,0.0
1045,66.0,0.0,15.0,12.0,0.0
1046,54.0,42.0,15.0,13.0,0.0
1047,76.0,1.0,30.0,10.0,0.0
1048,68.0,1.0,30.0,11.0,0.0
1049,71.0,2.0,30.0,12.0,0.0
1050,59.0,23.0,30.0,13.0,0.0
1051,75.0,6.0,15.0,10.0,0.0
1052,69.0,1.0,30.0,11.0,0.0
1053,59.0,2.0,30.0,12.0,0.0
1054,47.0,2.0,30.0,13.0,0.0
1055,76.0,6.0,15.0,10.0,0.0
1056,75.0,6.0,15.0,10.0,0.0
1057,76.0,6.0,15.0,10.0,0.0
1058,75.0,1.0,15.0,10.0,0.0
1059,76.0,6.0,15.0,10.0,0.0
1060,75.0,6.0,15.0,10.0,0.0
1061,76.0,6.0,15.0,10.0,0.0
1062,75.0,37.0,15.0,10.0,0.0
1063,76.0,1.0,60.0,10.0,0.0
1064,68.0,1.0,60.0,11.0,0.0
1065,64.0,0.0,30.0,1.0,0.0
1066,76.0,4.0,30.0,1.0,0.0
1067,64.0,2.0,60.0,12.0,0.0
1068,52.0,49.0,60.0,13.0,0.0
1069,52.0,0.0,30.0,3.0,0.0
1070,64.0,19.0,30.0,3.0,0.0
1071,83.0,4.0,15.0,1.0,0.0
1072,71.0,0.0,15.0,1.0,0.0
1073,59.0,2.0,15.0,3.0,0.0
1074,71.0,0.0,15.0,3.0,0.0
1075,71.0,0.0,150.0,1.0,0.0
1076,83.0,4.0,150.0,1.0,0.0
1077,59.0,9.0,150.0,3.0,0.0
1078,71.0,0.0,150.0,3.0,0.0
1079,78.0,1.0,15.0,10.0,0.0
1080,75.0,1.0,15.0,11.0,0.0
1081,71.0,2.0,15.0,12.0,0.0
1082,57.0,2.0,15.0,13.0,0.0
1083,45.0,24.0,15.0,14.0,0.0
1084,80.0,1.0,20.0,10.0,0.0
1085,76.0,1.0,20.0,11.0,0.0
1086,71.0,2.0,20.0,12.0,0.0
1087,56.0,2.0,20.0,13.0,0.0
1088,44.0,24.0,20.0,14.0,0.0
1089,81.0,1.0,15.0,10.0,0.0
1090,78.0,1.0,15.0,11.0,0.0
1091,71.0,2.0,15.0,12.0,0.0
1092,51.0,2.0,15.0,13.0,0.0
1093,39.0,31.0,15.0,14.0,0.0
1094,80.0,1.0,30.0,10.0,0.0
1095,76.0,1.0,30.0,11.0,0.0
1096,71.0,2.0,30.0,12.0,0.0
1097,52.0,2.0,30.0,13.0,0.0
1098,40.0,5.0,30.0,14.0,0.0
1099,68.0,0.0,15.0,1.0,0.0
1100,80.0,4.0,15.0,1.0,0.0
1101,56.0,55.0,15.0,3.0,0.0
1102,68.0,0.0,15.0,3.0,0.0
1103,80.0,4.0,150.0,1.0,0.0
1104,68.0,0.0,150.0,1.0,0.0
1105,68.0,9.0,150.0,3.0,0.0
1106,56.0,0.0,150.0,3.0,0.0
1107,75.0,1.0,15.0,10.0,0.0
1108,72.0,1.0,15.0,11.0,0.0
1109,68.0,2.0,15.0,12.0,0.0
1110,66.0,2.0,15.0,13.0,0.0
1111,54.0,24.0,15.0,14.0,0.0
1112,76.0,1.0,20.0,10.0,0.0
1113,73.0,1.0,20.0,11.0,0.0
1114,68.0,2.0,20.0,12.0,0.0
1115,64.0,2.0,20.0,13.0,0.0
1116,52.0,24.0,20.0,14.0,0.0
1117,78.0,1.0,15.0,10.0,0.0
1118,75.0,1.0,15.0,11.0,0.0
1119,68.0,2.0,15.0,12.0,0.0
1120,60.0,2.0,15.0,13.0,0.0
1121,48.0,31.0,15.0,14.0,0.0
1122,76.0,1.0,30.0,10.0,0.0
1123,73.0,1.0,30.0,11.0,0.0
1124,68.0,2.0,30.0,12.0,0.0
1125,61.0,2.0,30.0,13.0,0.0
1126,49.0,5.0,30.0,14.0,0.0
1127,92.0,0.0,15.0,0.0,0.0
1128,80.0,0.0,15.0,1.0,0.0
1129,68.0,1.0,15.0,1.0,0.0
1130,68.0,3.0,15.0,2.0,0.0
1131,80.0,0.0,15.0,2.0,0.0
1132,68.0,55.0,15.0,3.0,0.0
1133,56.0,0.0,15.0,3.0,0.0
1134,92.0,1.0,180.0,0.0,0.0
1135,80.0,0.0,180.0,1.0,0.0
1136,68.0,0.0,180.0,1.0,0.0
1137,80.0,3.0,180.0,2.0,0.0
1138,68.0,0.0,180.0,2.0,0.0
1139,56.0,0.0,180.0,3.0,0.0
1140,68.0,120.0,180.0,3.0,0.0
1141,84.0,1.0,15.0,10.0,0.0
1142,75.0,1.0,15.0,11.0,0.0
1143,68.0,2.0,15.0,12.0,0.0
1144,66.0,2.0,15.0,13.0,0.0
1145,54.0,24.0,15.0,14.0,0.0
1146,85.0,1.0,20.0,10.0,0.0
1147,76.0,1.0,20.0,11.0,0.0
1148,68.0,2.0,20.0,12.0,0.0
1149,64.0,2.0,20.0,13.0,0.0
1150,52.0,24.0,20.0,14.0,0.0
1151,87.0,1.0,15.0,10.0,0.0
1152,78.0,1.0,15.0,11.0,0.0
1153,68.0,2.0,15.0,12.0,0.0
1154,60.0,2.0,15.0,13.0,0.0
1155,48.0,31.0,15.0,14.0,0.0
1156,85.0,1.0,30.0,10.0,0.0
1157,76.0,1.0,30.0,11.0,0.0
1158,68.0,2.0,30.0,12.0,0.0
1159,61.0,2.0,30.0,13.0,0.0
1160,49.0,20.0,30.0,14.0,0.0
1161,80.0,1.0,120.0,10.0,0.0
1162,74.0,1.0,120.0,11.0,0.0
1163,80.0,0.0,120.0,1.0,0.0
1164,92.0,0.0,120.0,0.0,0.0
1165,68.0,0.0,120.0,1.0,0.0
1166,64.0,0.0,150.0,12.0,0.0
1167,64.0,2.0,150.0,2.0,0.0
1168,74.0,2.0,120.0,2.0,0.0
1169,59.0,1.0,120.0,13.0,0.0
1170,64.0,1.0,150.0,3.0,0.0
1171,62.0,1.0,120.0,3.0,0.0
1172,47.0,24.0,120.0,14.0,0.0
1173,81.0,1.0,30.0,10.0,0.0
1174,73.0,1.0,30.0,11.0,0.0
1175,69.0,0.0,30.0,1.0,0.0
1176,81.0,0.0,30.0,1.0,0.0
1177,93.0,0.0,30.0,0.0,0.0
1178,73.0,0.0,30.0,2.0,0.0
1179,57.0,1.0,30.0,13.0,0.0
1180,61.0,0.0,30.0,3.0,0.0
1181,45.0,144.0,30.0,14.0,0.0
1182,82.0,1.0,120.0,10.0,0.0
1183,76.0,1.0,120.0,11.0,0.0
1184,94.0,0.0,120.0,0.0,0.0
1185,82.0,0.0,120.0,1.0,0.0
1186,70.0,0.0,120.0,1.0,0.0
1187,76.0,2.0,120.0,2.0,0.0
1188,73.0,0.0,120.0,2.0,0.0
1189,73.0,0.0,120.0,12.0,0.0
1190,54.0,1.0,120.0,13.0,0.0
1191,66.0,1.0,150.0,3.0,0.0
1192,64.0,1.0,120.0,3.0,0.0
1193,42.0,24.0,120.0,14.0,0.0
1194,83.0,1.0,30.0,10.0,0.0
1195,75.0,0.0,30.0,11.0,0.0
1196,83.0,0.0,30.0,1.0,0.0
1197,95.0,1.0,30.0,0.0,0.0
1198,71.0,0.0,30.0,1.0,0.0
1199,66.0,2.0,30.0,12.0,0.0
1200,71.0,0.0,30.0,2.0,0.0
1201,75.0,0.0,30.0,2.0,0.0
1202,59.0,1.0,30.0,13.0,0.0
1203,63.0,0.0,30.0,3.0,0.0
1204,47.0,144.0,30.0,14.0,0.0
1205,84.0,1.0,120.0,10.0,0.0
1206,78.0,1.0,150.0,11.0,0.0
1207,84.0,0.0,150.0,0.0,0.0
1208,72.0,1.0,120.0,1.0,0.0
1209,84.0,0.0,120.0,1.0,0.0
1210,75.0,0.0,120.0,2.0,0.0
1211,78.0,0.0,180.0,2.0,0.0
1212,75.0,2.0,120.0,12.0,0.0
1213,56.0,1.0,120.0,13.0,0.0
1214,63.0,1.0,120.0,3.0,0.0
1215,66.0,0.0,180.0,3.0,0.0
1216,44.0,14.0,120.0,14.0,0.0
1217,85.0,1.0,20.0,10.0,0.0
1218,73.0,0.0,60.0,1.0,0.0
1219,85.0,1.0,60.0,1.0,0.0
1220,73.0,12.0,20.0,12.0,0.0
1221,73.0,3.0,60.0,2.0,0.0
1222,57.0,1.0,30.0,13.0,0.0
1223,61.0,16.0,60.0,3.0,0.0
1224,45.0,0.0,30.0,14.0,0.0
1225,81.0,1.0,15.0,10.0,0.0
1226,93.0,0.0,15.0,0.0,0.0
1227,73.0,1.0,15.0,11.0,0.0
1228,69.0,13.0,15.0,12.0,0.0
1229,78.0,1.0,15.0,10.0,0.0
1230,69.0,0.0,15.0,11.0,0.0
1231,90.0,1.0,15.0,0.0,0.0
1232,73.0,4.0,15.0,12.0,0.0
1233,76.0,1.0,30.0,10.0,0.0
1234,88.0,14.0,15.0,0.0,0.0
1235,71.0,1.0,60.0,4.0,0.0
1236,76.0,0.0,60.0,1.0,0.0
1237,68.0,1.0,30.0,11.0,0.0
1238,68.0,3.0,60.0,2.0,0.0
1239,71.0,4.0,60.0,5.0,0.0
1240,71.0,0.0,60.0,2.0,0.0
1241,71.0,2.0,30.0,12.0,0.0
1242,59.0,2.0,30.0,13.0,0.0
1243,64.0,0.0,60.0,3.0,0.0
1244,47.0,20.0,30.0,14.0,0.0
1245,76.0,1.0,15.0,10.0,0.0
1246,69.0,1.0,30.0,11.0,0.0
1247,71.0,1.0,60.0,4.0,0.0
1248,75.0,0.0,60.0,1.0,0.0
1249,71.0,1.0,15.0,1.0,0.0
1250,88.0,5.0,15.0,0.0,0.0
1251,69.0,3.0,60.0,2.0,0.0
1252,71.0,0.0,60.0,5.0,0.0
1253,71.0,0.0,60.0,2.0,0.0
1254,66.0,2.0,30.0,12.0,0.0
1255,47.0,2.0,30.0,13.0,0.0
1256,66.0,0.0,60.0,3.0,0.0
1257,59.0,1.0,15.0,3.0,0.0
1258,35.0,1.0,30.0,14.0,0.0
1259,75.0,1.0,15.0,10.0,0.0
1260,87.0,5.0,15.0,0.0,0.0
1261,76.0,1.0,15.0,10.0,0.0
1262,88.0,5.0,15.0,0.0,0.0
1263,75.0,1.0,15.0,10.0,0.0
1264,87.0,5.0,15.0,0.0,0.0
1265,76.0,1.0,15.0,10.0,0.0
1266,88.0,0.0,15.0,0.0,0.0
1267,75.0,0.0,15.0,10.0,0.0
1268,87.0,7.0,15.0,0.0,0.0
1269,75.0,1.0,15.0,10.0,0.0
1270,87.0,7.0,15.0,0.0,0.0
1271,73.0,1.0,15.0,10.0,0.0
1272,85.0,3.0,15.0,0.0,0.0
1273,75.0,0.0,15.0,10.0,0.0
1274,87.0,48.0,15.0,0.0,0.0
1275,76.0,1.0,60.0,10.0,0.0
1276,71.0,0.0,60.0,1.0,0.0
1277,76.0,1.0,60.0,1.0,0.0
1278,88.0,0.0,60.0,0.0,0.0
1279,68.0,0.0,60.0,11.0,0.0
1280,71.0,1.0,60.0,4.0,0.0
1281,68.0,2.0,60.0,2.0,0.0
1282,71.0,0.0,60.0,2.0,0.0
1283,64.0,3.0,60.0,5.0,0.0
1284,64.0,0.0,60.0,12.0,0.0
1285,52.0,7.0,60.0,15.0,0.0
1286,52.0,0.0,60.0,13.0,0.0
1287,52.0,1.0,60.0,3.0,0.0
1288,64.0,0.0,60.0,3.0,0.0
1289,40.0,40.0,60.0,14.0,0.0
1290,47.0,1.0,15.0,15.0,0.0
1291,59.0,3.0,60.0,6.0,0.0
1292,71.0,0.0,60.0,6.0,0.0
1293,47.0,15.0,60.0,15.0,0.0
1294,71.0,3.0,60.0,6.0,0.0
1295,59.0,0.0,60.0,6.0,0.0
1296,47.0,42.0,15.0,15.0,0.0
1297,47.0,15.0,15.0,15.0,0.0
1298,81.0,20.0,15.0,10.0,0.0
1299,59.0,1.0,60.0,11.0,0.0
1300,69.0,0.0,60.0,11.0,0.0
1301,59.0,3.0,420.0,6.0,0.0
1302,71.0,0.0,420.0,6.0,0.0
1303,66.0,2.0,60.0,12.0,0.0
1304,59.0,0.0,60.0,13.0,0.0
1305,47.0,1.0,60.0,15.0,0.0
1306,47.0,4.0,60.0,14.0,0.0
1307,85.0,19.0,15.0,10.0,0.0
1308,83.0,11.0,15.0,10.0,0.0
1309,81.0,20.0,15.0,10.0,0.0
1310,78.0,1.0,60.0,1.0,0.0
1311,81.0,0.0,60.0,1.0,0.0
1312,71.0,0.0,60.0,4.0,0.0
1313,66.0,0.0,60.0,2.0,0.0
1314,69.0,0.0,60.0,2.0,0.0
1315,71.0,2.0,60.0,5.0,0.0
1316,47.0,2.0,15.0,15.0,0.0
1317,59.0,0.0,60.0,3.0,0.0
1318,63.0,5.0,60.0,3.0,0.0
1319,80.0,19.0,15.0,10.0,0.0
1320,78.0,11.0,15.0,10.0,0.0
1321,76.0,20.0,15.0,10.0,0.0
1322,59.0,1.0,60.0,11.0,0.0
1323,69.0,0.0,60.0,11.0,0.0
1324,66.0,2.0,60.0,12.0,0.0
1325,59.0,0.0,60.0,13.0,0.0
1326,47.0,1.0,15.0,15.0,0.0
1327,47.0,4.0,60.0,14.0,0.0
1328,75.0,19.0,15.0,10.0,0.0
1329,78.0,11.0,15.0,10.0,0.0
1330,47.0,1.0,15.0,15.0,0.0
1331,76.0,1.0,15.0,10.0,0.0
1332,76.0,1.0,60.0,1.0,0.0
1333,71.0,0.0,60.0,4.0,0.0
1334,80.0,0.0,60.0,1.0,0.0
1335,88.0,19.0,15.0,0.0,0.0
1336,71.0,0.0,60.0,5.0,0.0
1337,64.0,0.0,60.0,2.0,0.0
1338,68.0,2.0,60.0,2.0,0.0
1339,47.0,1.0,60.0,15.0,0.0
1340,59.0,5.0,60.0,3.0,0.0
1341,64.0,0.0,60.0,3.0,0.0
1342,80.0,1.0,15.0,10.0,0.0
1343,92.0,18.0,15.0,0.0,0.0
1344,78.0,1.0,15.0,10.0,0.0
1345,90.0,10.0,15.0,0.0,0.0
1346,76.0,1.0,15.0,10.0,0.0
1347,68.0,0.0,60.0,11.0,0.0
1348,88.0,19.0,15.0,0.0,0.0
1349,59.0,1.0,60.0,11.0,0.0
1350,64.0,2.0,60.0,12.0,0.0
1351,47.0,1.0,15.0,15.0,0.0
1352,59.0,0.0,60.0,13.0,0.0
1353,47.0,4.0,60.0,14.0,0.0
1354,75.0,1.0,15.0,10.0,0.0
1355,87.0,18.0,15.0,0.0,0.0
1356,73.0,1.0,15.0,10.0,0.0
1357,85.0,10.0,15.0,0.0,0.0
1358,47.0,1.0,15.0,15.0,0.0
1359,71.0,1.0,15.0,10.0,0.0
1360,71.0,1.0,60.0,4.0,0.0
1361,76.0,0.0,60.0,1.0,0.0
1362,80.0,0.0,60.0,1.0,0.0
1363,83.0,19.0,15.0,0.0,0.0
1364,64.0,0.0,60.0,2.0,0.0
1365,68.0,2.0,60.0,2.0,0.0
1366,71.0,0.0,60.0,5.0,0.0
1367,47.0,2.0,15.0,15.0,0.0
1368,59.0,5.0,60.0,3.0,0.0
1369,64.0,0.0,60.0,3.0,0.0
1370,70.0,1.0,15.0,10.0,0.0
1371,82.0,18.0,15.0,0.0,0.0
1372,73.0,1.0,15.0,10.0,0.0
1373,85.0,10.0,15.0,0.0,0.0
1374,71.0,1.0,15.0,10.0,0.0
1375,83.0,19.0,15.0,0.0,0.0
1376,66.0,0.0,60.0,11.0,0.0
1377,59.0,1.0,60.0,11.0,0.0
1378,63.0,2.0,60.0,12.0,0.0
1379,47.0,1.0,15.0,15.0,0.0
1380,59.0,0.0,60.0,13.0,0.0
1381,47.0,4.0,60.0,14.0,0.0
1382,70.0,1.0,15.0,10.0,0.0
1383,82.0,15.0,15.0,0.0,0.0
1384,73.0,1.0,15.0,10.0,0.0
1385,85.0,10.0,15.0,0.0,0.0
1386,47.0,1.0,15.0,15.0,0.0
1387,71.0,1.0,15.0,10.0,0.0
1388,83.0,19.0,15.0,0.0,0.0
1389,71.0,1.0,60.0,4.0,0.0
1390,81.0,0.0,60.0,1.0,0.0
1391,71.0,0.0,60.0,6.0,0.0
1392,87.0,0.0,60.0,1.0,0.0
1393,59.0,3.0,60.0,6.0,0.0
1394,71.0,0.0,60.0,5.0,0.0
1395,75.0,0.0,60.0,2.0,0.0
1396,69.0,2.0,60.0,2.0,0.0
1397,47.0,2.0,15.0,15.0,0.0
1398,66.0,5.0,60.0,3.0,0.0
1399,59.0,0.0,60.0,3.0,0.0
1400,73.0,1.0,15.0,10.0,0.0
1401,85.0,15.0,15.0,0.0,0.0
1402,71.0,1.0,15.0,10.0,0.0
1403,83.0,10.0,15.0,0.0,0.0
1404,47.0,1.0,15.0,15.0,0.0
1405,69.0,1.0,15.0,10.0,0.0
1406,81.0,19.0,15.0,0.0,0.0
1407,59.0,0.0,60.0,11.0,0.0
1408,59.0,0.0,60.0,6.0,0.0
1409,66.0,1.0,60.0,11.0,0.0
1410,71.0,3.0,60.0,6.0,0.0
1411,63.0,2.0,60.0,12.0,0.0
1412,59.0,2.0,60.0,13.0,0.0
1413,47.0,1.0,15.0,15.0,0.0
1414,47.0,4.0,60.0,14.0,0.0
1415,68.0,1.0,15.0,10.0,0.0
1416,80.0,15.0,15.0,0.0,0.0
1417,66.0,1.0,15.0,10.0,0.0
1418,78.0,10.0,15.0,0.0,0.0
1419,47.0,0.0,15.0,15.0,0.0
1420,64.0,1.0,15.0,10.0,0.0
1421,76.0,19.0,15.0,0.0,0.0
1422,71.0,1.0,60.0,4.0,0.0
1423,80.0,0.0,60.0,1.0,0.0
1424,88.0,0.0,60.0,1.0,0.0
1425,59.0,0.0,60.0,6.0,0.0
1426,71.0,3.0,60.0,6.0,0.0
1427,71.0,2.0,60.0,5.0,0.0
1428,68.0,0.0,60.0,2.0,0.0
1429,76.0,0.0,60.0,2.0,0.0
1430,47.0,1.0,60.0,15.0,0.0
1431,59.0,0.0,60.0,3.0,0.0
1432,64.0,5.0,60.0,3.0,0.0
1433,68.0,1.0,15.0,10.0,0.0
1434,80.0,15.0,15.0,0.0,0.0
1435,69.0,1.0,15.0,10.0,0.0
1436,81.0,10.0,15.0,0.0,0.0
1437,71.0,1.0,15.0,10.0,0.0
1438,83.0,19.0,15.0,0.0,0.0
1439,59.0,0.0,60.0,6.0,0.0
1440,71.0,3.0,60.0,6.0,0.0
1441,59.0,1.0,60.0,11.0,0.0
1442,68.0,0.0,60.0,11.0,0.0
1443,64.0,2.0,60.0,12.0,0.0
1444,59.0,0.0,60.0,13.0,0.0
1445,47.0,1.0,15.0,15.0,0.0
1446,47.0,4.0,60.0,14.0,0.0
1447,73.0,1.0,15.0,10.0,0.0
1448,85.0,15.0,15.0,0.0,0.0
1449,75.0,1.0,15.0,10.0,0.0
1450,87.0,10.0,15.0,0.0,0.0
1451,76.0,1.0,15.0,10.0,0.0
1452,88.0,19.0,15.0,0.0,0.0
1453,59.0,3.0,60.0,6.0,0.0
1454,76.0,0.0,60.0,1.0,0.0
1455,71.0,0.0,60.0,6.0,0.0
1456,71.0,0.0,60.0,4.0,0.0
1457,80.0,1.0,60.0,1.0,0.0
1458,76.0,2.0,60.0,2.0,0.0
1459,68.0,0.0,60.0,2.0,0.0
1460,71.0,0.0,60.0,5.0,0.0
1461,47.0,2.0,15.0,15.0,0.0
1462,64.0,0.0,60.0,3.0,0.0
1463,59.0,5.0,60.0,3.0,0.0
1464,78.0,1.0,15.0,10.0,0.0
1465,90.0,15.0,15.0,0.0,0.0
1466,80.0,1.0,15.0,10.0,0.0
1467,92.0,10.0,15.0,0.0,0.0
1468,81.0,1.0,15.0,10.0,0.0
1469,71.0,0.0,420.0,6.0,0.0
1470,93.0,19.0,15.0,0.0,0.0
1471,59.0,0.0,420.0,6.0,0.0
1472,69.0,0.0,60.0,11.0,0.0
1473,59.0,1.0,60.0,11.0,0.0
1474,66.0,2.0,60.0,12.0,0.0
1475,47.0,1.0,15.0,15.0,0.0
1476,59.0,0.0,60.0,13.0,0.0
1477,47.0,4.0,60.0,14.0,0.0
1478,81.0,1.0,15.0,10.0,0.0
1479,93.0,18.0,15.0,0.0,0.0
1480,81.0,1.0,15.0,10.0,0.0
1481,93.0,10.0,15.0,0.0,0.0
1482,47.0,1.0,15.0,15.0,0.0
1483,81.0,1.0,15.0,10.0,0.0
1484,93.0,19.0,15.0,0.0,0.0
1485,71.0,1.0,60.0,4.0,0.0
1486,75.0,0.0,60.0,1.0,0.0
1487,81.0,0.0,60.0,1.0,0.0
1488,71.0,2.0,60.0,5.0,0.0
1489,66.0,0.0,60.0,2.0,0.0
1490,69.0,0.0,60.0,2.0,0.0
1491,47.0,2.0,15.0,15.0,0.0
1492,59.0,5.0,60.0,3.0,0.0
1493,63.0,0.0,60.0,3.0,0.0
1494,80.0,1.0,15.0,10.0,0.0
1495,92.0,18.0,15.0,0.0,0.0
1496,78.0,1.0,15.0,10.0,0.0
1497,90.0,10.0,15.0,0.0,0.0
1498,47.0,1.0,15.0,15.0,0.0
1499,76.0,1.0,15.0,10.0,0.0
1500,69.0,1.0,60.0,11.0,0.0
1501,59.0,0.0,60.0,11.0,0.0
1502,88.0,19.0,15.0,0.0,0.0
1503,66.0,2.0,60.0,12.0,0.0
1504,47.0,1.0,15.0,15.0,0.0
1505,59.0,0.0,60.0,13.0,0.0
1506,47.0,4.0,60.0,14.0,0.0
1507,75.0,1.0,15.0,10.0,0.0
1508,87.0,18.0,15.0,0.0,0.0
1509,78.0,1.0,15.0,10.0,0.0
1510,90.0,10.0,15.0,0.0,0.0
1511,76.0,1.0,15.0,10.0,0.0
1512,71.0,1.0,60.0,4.0,0.0
1513,88.0,19.0,15.0,0.0,0.0
1514,76.0,0.0,60.0,1.0,0.0
1515,80.0,0.0,60.0,1.0,0.0
1516,71.0,2.0,60.0,5.0,0.0
1517,64.0,0.0,60.0,2.0,0.0
1518,68.0,0.0,60.0,2.0,0.0
1519,47.0,2.0,15.0,15.0,0.0
1520,64.0,5.0,60.0,3.0,0.0
1521,59.0,0.0,60.0,3.0,0.0
1522,76.0,1.0,15.0,10.0,0.0
1523,88.0,18.0,15.0,0.0,0.0
1524,76.0,1.0,15.0,10.0,0.0
1525,88.0,10.0,15.0,0.0,0.0
1526,76.0,1.0,15.0,10.0,0.0
1527,68.0,0.0,60.0,11.0,0.0
1528,88.0,19.0,15.0,0.0,0.0
1529,59.0,1.0,60.0,11.0,0.0
1530,64.0,2.0,60.0,12.0,0.0
1531,47.0,1.0,15.0,15.0,0.0
1532,59.0,2.0,60.0,13.0,0.0
1533,47.0,4.0,60.0,14.0,0.0
1534,75.0,1.0,15.0,10.0,0.0
1535,87.0,18.0,15.0,0.0,0.0
1536,73.0,1.0,15.0,10.0,0.0
1537,85.0,10.0,15.0,0.0,0.0
1538,47.0,1.0,15.0,15.0,0.0
1539,71.0,1.0,15.0,10.0,0.0
1540,83.0,19.0,15.0,0.0,0.0
1541,76.0,0.0,60.0,1.0,0.0
1542,71.0,0.0,60.0,4.0,0.0
1543,80.0,1.0,60.0,1.0,0.0
1544,64.0,0.0,60.0,2.0,0.0
1545,71.0,0.0,60.0,5.0,0.0
1546,68.0,2.0,60.0,2.0,0.0
1547,64.0,5.0,60.0,3.0,0.0
1548,59.0,0.0,60.0,3.0,0.0
1549,70.0,1.0,15.0,10.0,0.0
1550,82.0,18.0,15.0,0.0,0.0
1551,73.0,1.0,15.0,10.0,0.0
1552,85.0,10.0,15.0,0.0,0.0
1553,47.0,1.0,15.0,15.0,0.0
1554,71.0,1.0,15.0,10.0,0.0
1555,83.0,19.0,15.0,0.0,0.0
1556,69.0,1.0,60.0,11.0,0.0
1557,59.0,0.0,60.0,11.0,0.0
1558,66.0,2.0,60.0,12.0,0.0
1559,59.0,1.0,60.0,13.0,0.0
1560,47.0,13.0,60.0,14.0,0.0
1561,70.0,1.0,15.0,10.0,0.0
1562,82.0,15.0,15.0,0.0,0.0
1563,73.0,1.0,15.0,10.0,0.0
1564,85.0,0.0,15.0,0.0,0.0
1565,47.0,0.0,15.0,15.0,0.0
1566,71.0,1.0,15.0,10.0,0.0
1567,69.0,1.0,60.0,11.0,0.0
1568,59.0,0.0,60.0,11.0,0.0
1569,83.0,19.0,15.0,0.0,0.0
1570,71.0,0.0,60.0,6.0,0.0
1571,59.0,0.0,60.0,6.0,0.0
1572,66.0,2.0,60.0,12.0,0.0
1573,75.0,0.0,60.0,2.0,0.0
1574,69.0,0.0,60.0,2.0,0.0
1575,59.0,1.0,60.0,13.0,0.0
1576,47.0,6.0,15.0,15.0,0.0
1577,66.0,0.0,60.0,3.0,0.0
1578,47.0,10.0,60.0,14.0,0.0
1579,73.0,1.0,15.0,10.0,0.0
1580,85.0,15.0,15.0,0.0,0.0
1581,71.0,1.0,15.0,10.0,0.0
1582,83.0,0.0,15.0,0.0,0.0
1583,47.0,0.0,15.0,15.0,0.0
1584,69.0,1.0,15.0,10.0,0.0
1585,71.0,0.0,15.0,4.0,0.0
1586,71.0,0.0,60.0,6.0,0.0
1587,59.0,0.0,60.0,6.0,0.0
1588,81.0,1.0,15.0,1.0,0.0
1589,87.0,0.0,15.0,1.0,0.0
1590,59.0,1.0,60.0,11.0,0.0
1591,69.0,0.0,60.0,11.0,0.0
1592,81.0,19.0,15.0,0.0,0.0
1593,66.0,2.0,60.0,12.0,0.0
1594,75.0,0.0,60.0,2.0,0.0
1595,69.0,2.0,60.0,2.0,0.0
1596,71.0,2.0,15.0,5.0,0.0
1597,59.0,1.0,60.0,13.0,0.0
1598,47.0,1.0,15.0,15.0,0.0
1599,66.0,0.0,60.0,3.0,0.0
1600,59.0,5.0,15.0,3.0,0.0
1601,47.0,0.0,60.0,14.0,0.0
1602,68.0,1.0,15.0,10.0,0.0
1603,80.0,15.0,15.0,0.0,0.0
1604,66.0,1.0,15.0,10.0,0.0
1605,78.0,10.0,15.0,0.0,0.0
1606,47.0,1.0,15.0,15.0,0.0
1607,64.0,1.0,60.0,10.0,0.0
1608,71.0,0.0,15.0,4.0,0.0
1609,59.0,0.0,60.0,11.0,0.0
1610,68.0,0.0,60.0,11.0,0.0
1611,76.0,0.0,60.0,0.0,0.0
1612,59.0,1.0,60.0,6.0,0.0
1613,71.0,0.0,60.0,6.0,0.0
1614,88.0,0.0,60.0,1.0,0.0
1615,80.0,0.0,60.0,1.0,0.0
1616,76.0,0.0,60.0,2.0,0.0
1617,64.0,0.0,60.0,12.0,0.0
1618,68.0,2.0,60.0,2.0,0.0
1619,71.0,0.0,15.0,5.0,0.0
1620,52.0,1.0,60.0,15.0,0.0
1621,52.0,0.0,60.0,13.0,0.0
1622,64.0,0.0,60.0,3.0,0.0
1623,52.0,1.0,60.0,3.0,0.0
1624,40.0,114.0,60.0,14.0,0.0
1625,71.0,1.0,60.0,10.0,0.0
1626,83.0,38.0,60.0,0.0,0.0
1627,76.0,1.0,30.0,10.0,0.0
1628,88.0,140.0,30.0,0.0,0.0
1629,59.0,1.0,60.0,10.0,0.0
1630,59.0,0.0,60.0,11.0,0.0
1631,83.0,1.0,60.0,0.0,0.0
1632,71.0,0.0,60.0,1.0,0.0
1633,71.0,0.0,60.0,2.0,0.0
1634,59.0,2.0,60.0,12.0,0.0
1635,59.0,1.0,60.0,13.0,0.0
1636,59.0,0.0,60.0,3.0,0.0
1637,47.0,1.0,60.0,3.0,0.0
1638,47.0,24.0,60.0,14.0,0.0
1639,64.0,1.0,30.0,10.0,0.0
1640,88.0,0.0,30.0,0.0,0.0
1641,76.0,0.0,30.0,1.0,0.0
1642,64.0,1.0,30.0,11.0,0.0
1643,64.0,2.0,30.0,12.0,0.0
1644,76.0,0.0,30.0,2.0,0.0
1645,64.0,1.0,30.0,13.0,0.0
1646,64.0,0.0,30.0,3.0,0.0
1647,52.0,1.0,30.0,3.0,0.0
1648,52.0,54.0,30.0,14.0,0.0
1649,64.0,1.0,30.0,10.0,0.0
1650,59.0,0.0,30.0,11.0,0.0
1651,64.0,0.0,30.0,4.0,0.0
1652,59.0,0.0,30.0,6.0,0.0
1653,71.0,0.0,30.0,1.0,0.0
1654,71.0,0.0,30.0,6.0,0.0
1655,68.0,0.0,30.0,1.0,0.0
1656,76.0,1.0,30.0,0.0,0.0
1657,52.0,0.0,30.0,5.0,0.0
1658,71.0,0.0,30.0,2.0,0.0
1659,68.0,2.0,30.0,2.0,0.0
1660,56.0,0.0,30.0,12.0,0.0
1661,52.0,26.0,60.0,15.0,0.0
1662,52.0,1.0,30.0,13.0,0.0
1663,59.0,0.0,30.0,3.0,0.0
1664,56.0,1.0,30.0,3.0,0.0
1665,40.0,28.0,30.0,14.0,0.0
1666,64.0,1.0,30.0,10.0,0.0
1667,59.0,1.0,30.0,11.0,0.0
1668,71.0,0.0,30.0,6.0,0.0
1669,64.0,0.0,30.0,4.0,0.0
1670,68.0,0.0,30.0,1.0,0.0
1671,71.0,0.0,30.0,1.0,0.0
1672,76.0,0.0,30.0,0.0,0.0
1673,59.0,0.0,30.0,6.0,0.0
1674,71.0,0.0,30.0,2.0,0.0
1675,68.0,0.0,30.0,2.0,0.0
1676,52.0,0.0,30.0,5.0,0.0
1677,56.0,2.0,30.0,12.0,0.0
1678,52.0,1.0,30.0,13.0,0.0
1679,59.0,1.0,30.0,3.0,0.0
1680,56.0,0.0,30.0,3.0,0.0
1681,40.0,28.0,30.0,14.0,0.0
1682,64.0,1.0,60.0,10.0,0.0
1683,68.0,0.0,60.0,1.0,0.0
1684,71.0,0.0,60.0,1.0,0.0
1685,76.0,0.0,60.0,0.0,0.0
1686,64.0,1.0,60.0,4.0,0.0
1687,71.0,0.0,60.0,6.0,0.0
1688,59.0,0.0,60.0,6.0,0.0
1689,59.0,0.0,60.0,11.0,0.0
1690,56.0,0.0,60.0,12.0,0.0
1691,68.0,0.0,60.0,2.0,0.0
1692,52.0,0.0,60.0,5.0,0.0
1693,71.0,2.0,60.0,2.0,0.0
1694,52.0,56.0,15.0,15.0,0.0
1695,52.0,0.0,60.0,13.0,0.0
1696,56.0,1.0,60.0,3.0,0.0
1697,52.0,0.0,60.0,3.0,0.0
1698,40.0,114.0,60.0,14.0,0.0
1699,64.0,1.0,60.0,10.0,0.0
1700,64.0,38.0,60.0,11.0,0.0
1701,69.0,1.0,30.0,10.0,0.0
1702,69.0,59.0,30.0,11.0,0.0
1703,69.0,1.0,30.0,10.0,0.0
1704,69.0,80.0,30.0,11.0,0.0
1705,69.0,1.0,60.0,10.0,0.0
1706,69.0,38.0,60.0,11.0,0.0
1707,73.0,1.0,30.0,10.0,0.0
1708,73.0,59.0,30.0,11.0,0.0
1709,73.0,1.0,30.0,10.0,0.0
1710,73.0,80.0,30.0,11.0,0.0
1711,73.0,1.0,60.0,10.0,0.0
1712,73.0,38.0,60.0,11.0,0.0
1713,74.0,1.0,30.0,10.0,0.0
1714,74.0,50.0,30.0,11.0,0.0
1715,74.0,1.0,30.0,10.0,0.0
1716,74.0,24.0,30.0,11.0,0.0
1717,73.0,1.0,15.0,10.0,0.0
1718,73.0,34.0,15.0,11.0,0.0
1719,71.0,1.0,30.0,10.0,0.0
1720,71.0,24.0,30.0,11.0,0.0
1721,69.0,1.0,15.0,10.0,0.0
1722,69.0,43.0,15.0,11.0,0.0
1723,68.0,1.0,30.0,10.0,0.0
1724,68.0,59.0,30.0,11.0,0.0
1725,68.0,1.0,30.0,10.0,0.0
1726,68.0,80.0,30.0,11.0,0.0
1727,68.0,1.0,60.0,10.0,0.0
1728,68.0,59.0,60.0,11.0,0.0
1729,69.0,1.0,60.0,10.0,0.0
1730,69.0,59.0,60.0,11.0,0.0
1731,71.0,1.0,60.0,10.0,0.0
1732,71.0,54.0,60.0,11.0,0.0
1733,73.0,1.0,60.0,10.0,0.0
1734,73.0,94.0,60.0,11.0,0.0
1735,74.0,1.0,90.0,10.0,0.0
1736,74.0,24.0,90.0,11.0,0.0
1737,76.0,1.0,30.0,10.0,0.0
1738,76.0,34.0,30.0,11.0,0.0
1739,73.0,1.0,30.0,10.0,0.0
1740,73.0,31.0,30.0,11.0,0.0
1741,57.0,2.0,60.0,12.0,0.0
1742,57.0,37.0,60.0,13.0,0.0
1743,71.0,1.0,60.0,10.0,0.0
1744,71.0,40.0,60.0,11.0,0.0
1745,64.0,2.0,30.0,12.0,0.0
1746,64.0,17.0,30.0,13.0,0.0
1747,64.0,2.0,30.0,12.0,0.0
1748,64.0,78.0,30.0,13.0,0.0
1749,71.0,1.0,60.0,11.0,0.0
1750,64.0,2.0,60.0,12.0,0.0
1751,64.0,36.0,60.0,13.0,0.0
1752,76.0,1.0,30.0,11.0,0.0
1753,68.0,2.0,30.0,12.0,0.0
1754,68.0,57.0,30.0,13.0,0.0
1755,76.0,1.0,30.0,11.0,0.0
1756,68.0,2.0,30.0,12.0,0.0
1757,68.0,79.0,30.0,13.0,0.0
1758,76.0,1.0,120.0,11.0,0.0
1759,68.0,2.0,60.0,12.0,0.0
1760,68.0,52.0,60.0,13.0,0.0
1761,69.0,2.0,60.0,12.0,0.0
1762,69.0,32.0,60.0,13.0,0.0
1763,75.0,1.0,30.0,11.0,0.0
1764,69.0,2.0,30.0,12.0,0.0
1765,69.0,22.0,30.0,13.0,0.0
1766,76.0,1.0,15.0,11.0,0.0
1767,68.0,2.0,15.0,12.0,0.0
1768,68.0,32.0,15.0,13.0,0.0
1769,78.0,1.0,30.0,11.0,0.0
1770,66.0,2.0,30.0,12.0,0.0
1771,66.0,22.0,30.0,13.0,0.0
1772,80.0,1.0,15.0,11.0,0.0
1773,64.0,2.0,15.0,12.0,0.0
1774,64.0,41.0,15.0,13.0,0.0
1775,81.0,1.0,30.0,11.0,0.0
1776,63.0,2.0,30.0,12.0,0.0
1777,63.0,58.0,30.0,13.0,0.0
1778,63.0,2.0,30.0,12.0,0.0
1779,63.0,78.0,30.0,13.0,0.0
1780,69.0,1.0,60.0,11.0,0.0
1781,63.0,2.0,60.0,12.0,0.0
1782,63.0,1.0,60.0,13.0,0.0
1783,47.0,1.0,60.0,3.0,0.0
1784,35.0,34.0,60.0,14.0,0.0
1785,68.0,1.0,30.0,11.0,0.0
1786,64.0,1.0,240.0,4.0,0.0
1787,52.0,34.0,240.0,5.0,0.0
1788,64.0,2.0,30.0,12.0,0.0
1789,64.0,1.0,30.0,13.0,0.0
1790,52.0,1.0,30.0,3.0,0.0
1791,40.0,47.0,30.0,14.0,0.0
1792,68.0,4.0,30.0,11.0,0.0
1793,64.0,2.0,30.0,12.0,0.0
1794,64.0,6.0,30.0,13.0,0.0
1795,52.0,1.0,30.0,3.0,0.0
1796,40.0,12.0,30.0,14.0,0.0
1797,63.0,2.0,15.0,12.0,0.0
1798,63.0,33.0,15.0,13.0,0.0
1799,68.0,5.0,60.0,11.0,0.0
1800,64.0,2.0,30.0,12.0,0.0
1801,64.0,23.0,30.0,13.0,0.0
1802,52.0,17.0,90.0,3.0,0.0
1803,40.0,17.0,60.0,14.0,0.0
1804,66.0,2.0,15.0,12.0,0.0
1805,66.0,2.0,15.0,13.0,0.0
1806,76.0,1.0,30.0,11.0,0.0
1807,62.0,2.0,30.0,12.0,0.0
1808,62.0,1.0,30.0,13.0,0.0
1809,56.0,1.0,30.0,3.0,0.0
1810,44.0,11.0,30.0,14.0,0.0
1811,64.0,1.0,30.0,4.0,0.0
1812,76.0,4.0,30.0,11.0,0.0
1813,52.0,0.0,30.0,5.0,0.0
1814,62.0,2.0,30.0,12.0,0.0
1815,62.0,6.0,30.0,13.0,0.0
1816,56.0,1.0,30.0,3.0,0.0
1817,44.0,12.0,30.0,14.0,0.0
1818,61.0,2.0,15.0,12.0,0.0
1819,61.0,33.0,15.0,13.0,0.0
1820,76.0,1.0,60.0,10.0,0.0
1821,68.0,0.0,60.0,11.0,0.0
1822,76.0,0.0,60.0,0.0,0.0
1823,64.0,1.0,60.0,4.0,0.0
1824,76.0,0.0,60.0,1.0,0.0
1825,62.0,2.0,30.0,12.0,0.0
1826,52.0,3.0,60.0,5.0,0.0
1827,62.0,23.0,30.0,13.0,0.0
1828,59.0,1.0,60.0,3.0,0.0
1829,47.0,33.0,60.0,14.0,0.0
1830,64.0,2.0,15.0,12.0,0.0
1831,64.0,1.0,15.0,13.0,0.0
1832,81.0,1.0,30.0,10.0,0.0
1833,73.0,0.0,30.0,1.0,0.0
1834,81.0,0.0,30.0,1.0,0.0
1835,81.0,0.0,30.0,0.0,0.0
1836,69.0,1.0,30.0,4.0,0.0
1837,69.0,0.0,30.0,11.0,0.0
1838,57.0,0.0,30.0,5.0,0.0
1839,61.0,2.0,30.0,12.0,0.0
1840,61.0,1.0,30.0,13.0,0.0
1841,57.0,1.0,30.0,3.0,0.0
1842,45.0,54.0,30.0,14.0,0.0
1843,81.0,1.0,30.0,10.0,0.0
1844,69.0,0.0,30.0,4.0,0.0
1845,69.0,1.0,60.0,11.0,0.0
1846,81.0,1.0,30.0,1.0,0.0
1847,73.0,0.0,30.0,1.0,0.0
1848,81.0,0.0,30.0,0.0,0.0
1849,61.0,0.0,60.0,12.0,0.0
1850,61.0,0.0,60.0,2.0,0.0
1851,61.0,2.0,30.0,5.0,0.0
1852,69.0,3.0,60.0,2.0,0.0
1853,45.0,2.0,30.0,13.0,0.0
1854,57.0,0.0,60.0,3.0,0.0
1855,33.0,16.0,30.0,14.0,0.0
1856,81.0,1.0,60.0,10.0,0.0
1857,73.0,0.0,60.0,1.0,0.0
1858,73.0,0.0,60.0,11.0,0.0
1859,69.0,0.0,60.0,4.0,0.0
1860,81.0,1.0,60.0,0.0,0.0
1861,64.0,3.0,60.0,12.0,0.0
1862,73.0,0.0,60.0,2.0,0.0
1863,64.0,0.0,60.0,2.0,0.0
1864,61.0,0.0,60.0,5.0,0.0
1865,64.0,34.0,60.0,3.0,0.0
1866,61.0,55.0,15.0,3.0,0.0
1867,85.0,1.0,30.0,10.0,0.0
1868,81.0,0.0,15.0,1.0,0.0
1869,85.0,0.0,30.0,1.0,0.0
1870,73.0,1.0,30.0,4.0,0.0
1871,85.0,0.0,30.0,0.0,0.0
1872,69.0,2.0,30.0,5.0,0.0
1873,57.0,2.0,30.0,13.0,0.0
1874,45.0,54.0,30.0,14.0,0.0
1875,85.0,1.0,30.0,10.0,0.0
1876,73.0,1.0,60.0,11.0,0.0
1877,81.0,0.0,30.0,1.0,0.0
1878,85.0,0.0,30.0,1.0,0.0
1879,73.0,1.0,30.0,4.0,0.0
1880,85.0,0.0,30.0,0.0,0.0
1881,69.0,2.0,30.0,5.0,0.0
1882,69.0,3.0,60.0,2.0,0.0
1883,73.0,0.0,60.0,2.0,0.0
1884,69.0,0.0,60.0,12.0,0.0
1885,45.0,2.0,30.0,13.0,0.0
1886,64.0,55.0,60.0,3.0,0.0
1887,61.0,1.0,60.0,3.0,0.0
1888,33.0,15.0,30.0,14.0,0.0
1889,85.0,1.0,60.0,10.0,0.0
1890,81.0,0.0,60.0,1.0,0.0
1891,69.0,0.0,60.0,4.0,0.0
1892,85.0,0.0,60.0,0.0,0.0
1893,76.0,0.0,60.0,11.0,0.0
1894,85.0,1.0,60.0,1.0,0.0
1895,57.0,0.0,60.0,5.0,0.0
1896,73.0,0.0,60.0,12.0,0.0
1897,76.0,0.0,60.0,2.0,0.0
1898,73.0,36.0,60.0,2.0,0.0
1899,69.0,0.0,60.0,3.0,0.0
1900,61.0,0.0,60.0,3.0,0.0
1901,86.0,0.0,30.0,10.0,0.0
1902,64.0,0.0,30.0,4.0,0.0
1903,86.0,0.0,30.0,0.0,0.0
1904,80.0,0.0,30.0,1.0,0.0
1905,74.0,0.0,30.0,11.0,0.0
1906,86.0,1.0,30.0,1.0,0.0
1907,64.0,2.0,30.0,12.0,0.0
1908,52.0,16.0,30.0,5.0,0.0
1909,71.0,3.0,60.0,2.0,0.0
1910,74.0,0.0,60.0,2.0,0.0
1911,52.0,2.0,60.0,13.0,0.0
1912,68.0,0.0,60.0,3.0,0.0
1913,62.0,4.0,60.0,3.0,0.0
1914,40.0,24.0,60.0,14.0,0.0
1915,86.0,1.0,30.0,10.0,0.0
1916,64.0,1.0,30.0,4.0,0.0
1917,74.0,0.0,30.0,11.0,0.0
1918,74.0,30.0,60.0,1.0,0.0
1919,86.0,7.0,30.0,0.0,0.0
1920,86.0,0.0,30.0,1.0,0.0
1921,71.0,0.0,60.0,2.0,0.0
1922,52.0,2.0,30.0,5.0,0.0
1923,64.0,2.0,30.0,12.0,0.0
1924,74.0,3.0,60.0,2.0,0.0
1925,56.0,2.0,30.0,13.0,0.0
1926,68.0,0.0,60.0,3.0,0.0
1927,62.0,0.0,60.0,3.0,0.0
1928,44.0,10.0,30.0,14.0,0.0
1929,85.0,1.0,15.0,10.0,0.0
1930,73.0,0.0,15.0,11.0,0.0
1931,85.0,0.0,15.0,1.0,0.0
1932,85.0,1.0,15.0,0.0,0.0
1933,83.0,1.0,30.0,10.0,0.0
1934,83.0,0.0,30.0,1.0,0.0
1935,74.0,0.0,60.0,1.0,0.0
1936,83.0,0.0,30.0,0.0,0.0
1937,64.0,1.0,30.0,4.0,0.0
1938,71.0,7.0,30.0,11.0,0.0
1939,52.0,2.0,30.0,5.0,0.0
1940,64.0,2.0,30.0,12.0,0.0
1941,74.0,3.0,60.0,2.0,0.0
1942,71.0,0.0,60.0,2.0,0.0
1943,59.0,2.0,30.0,13.0,0.0
1944,62.0,31.0,60.0,3.0,0.0
1945,68.0,0.0,60.0,3.0,0.0
1946,47.0,10.0,30.0,14.0,0.0
1947,81.0,1.0,15.0,10.0,0.0
1948,81.0,0.0,15.0,1.0,0.0
1949,69.0,0.0,15.0,11.0,0.0
1950,81.0,1.0,15.0,0.0,0.0
1951,80.0,22.0,30.0,10.0,0.0
1952,80.0,1.0,60.0,0.0,0.0
1953,76.0,0.0,60.0,1.0,0.0
1954,80.0,8.0,30.0,1.0,0.0
1955,68.0,0.0,60.0,11.0,0.0
1956,64.0,1.0,120.0,4.0,0.0
1957,71.0,29.0,60.0,12.0,0.0
1958,74.0,0.0,120.0,2.0,0.0
1959,71.0,2.0,120.0,2.0,0.0
1960,52.0,0.0,120.0,5.0,0.0
1961,64.0,1.0,120.0,13.0,0.0
1962,68.0,0.0,120.0,3.0,0.0
1963,62.0,1.0,120.0,3.0,0.0
1964,52.0,0.0,120.0,14.0,0.0
1965,80.0,7.0,30.0,10.0,0.0
1966,71.0,1.0,60.0,11.0,0.0
1967,80.0,8.0,30.0,1.0,0.0
1968,71.0,0.0,60.0,1.0,0.0
1969,88.0,10.0,60.0,0.0,0.0
1970,68.0,44.0,60.0,12.0,0.0
1971,80.0,1.0,60.0,10.0,0.0
1972,88.0,10.0,60.0,0.0,0.0
1973,76.0,1.0,120.0,1.0,0.0
1974,64.0,0.0,60.0,4.0,0.0
1975,76.0,1.0,60.0,11.0,0.0
1976,68.0,0.0,60.0,2.0,0.0
1977,71.0,0.0,60.0,12.0,0.0
1978,52.0,3.0,60.0,5.0,0.0
1979,71.0,2.0,60.0,2.0,0.0
1980,62.0,1.0,60.0,13.0,0.0
1981,62.0,1.0,60.0,3.0,0.0
1982,64.0,0.0,120.0,3.0,0.0
1983,50.0,20.0,60.0,14.0,0.0
1984,81.0,1.0,60.0,10.0,0.0
1985,76.0,1.0,30.0,11.0,0.0
1986,88.0,1.0,60.0,0.0,0.0
1987,81.0,1.0,15.0,1.0,0.0
1988,64.0,0.0,60.0,4.0,0.0
1989,64.0,2.0,60.0,2.0,0.0
1990,69.0,0.0,60.0,2.0,0.0
1991,52.0,9.0,60.0,5.0,0.0
1992,64.0,19.0,30.0,12.0,0.0
1993,61.0,1.0,60.0,13.0,0.0
1994,61.0,1.0,60.0,3.0,0.0
1995,49.0,20.0,60.0,14.0,0.0
1996,76.0,1.0,30.0,11.0,0.0
1997,64.0,3.0,30.0,12.0,0.0
1998,83.0,1.0,60.0,10.0,0.0
1999,83.0,1.0,60.0,1.0,0.0
2000,80.0,0.0,60.0,1.0,0.0
2001,88.0,1.0,60.0,0.0,0.0
2002,64.0,0.0,60.0,4.0,0.0
2003,76.0,1.0,30.0,11.0,0.0
2004,64.0,19.0,30.0,12.0,0.0
2005,68.0,2.0,60.0,2.0,0.0
2006,71.0,0.0,60.0,2.0,0.0
2007,52.0,9.0,60.0,5.0,0.0
2008,59.0,1.0,60.0,13.0,0.0
2009,59.0,0.0,60.0,3.0,0.0
2010,68.0,1.0,60.0,3.0,0.0
2011,47.0,20.0,60.0,14.0,0.0
2012,76.0,1.0,30.0,11.0,0.0
2013,64.0,3.0,30.0,12.0,0.0
2014,85.0,1.0,60.0,10.0,0.0
2015,88.0,0.0,60.0,0.0,0.0
2016,76.0,1.0,30.0,11.0,0.0
2017,85.0,0.0,60.0,1.0,0.0
2018,81.0,4.0,60.0,1.0,0.0
2019,64.0,1.0,60.0,4.0,0.0
2020,52.0,8.0,60.0,5.0,0.0
2021,73.0,0.0,60.0,2.0,0.0
2022,64.0,19.0,30.0,12.0,0.0
2023,69.0,2.0,60.0,2.0,0.0
2024,57.0,2.0,60.0,13.0,0.0
2025,57.0,0.0,60.0,3.0,0.0
2026,69.0,21.0,60.0,3.0,0.0
2027,45.0,0.0,60.0,14.0,0.0
2028,76.0,1.0,30.0,11.0,0.0
2029,64.0,0.0,30.0,12.0,0.0
2030,86.0,1.0,90.0,10.0,0.0
2031,88.0,1.0,120.0,0.0,0.0
2032,64.0,0.0,120.0,4.0,0.0
2033,76.0,1.0,30.0,11.0,0.0
2034,83.0,0.0,60.0,1.0,0.0
2035,86.0,1.0,90.0,1.0,0.0
2036,64.0,29.0,30.0,12.0,0.0
2037,71.0,24.0,60.0,2.0,0.0
2038,52.0,0.0,120.0,5.0,0.0
2039,74.0,24.0,90.0,2.0,0.0
2040,56.0,2.0,60.0,13.0,0.0
2041,62.0,21.0,120.0,3.0,0.0
2042,59.0,0.0,120.0,3.0,0.0
2043,44.0,1.0,60.0,14.0,0.0
2044,76.0,1.0,30.0,11.0,0.0
2045,64.0,2.0,30.0,12.0,0.0
2046,80.0,0.0,60.0,1.0,0.0
2047,76.0,1.0,30.0,11.0,0.0
2048,68.0,3.0,60.0,2.0,0.0
2049,68.0,3.0,30.0,12.0,0.0
2050,52.0,1.0,60.0,13.0,0.0
2051,40.0,1.0,60.0,14.0,0.0
2052,88.0,1.0,30.0,10.0,0.0
2053,88.0,0.0,30.0,1.0,0.0
2054,76.0,0.0,30.0,11.0,0.0
2055,64.0,2.0,30.0,12.0,0.0
2056,76.0,0.0,30.0,2.0,0.0
2057,85.0,1.0,60.0,10.0,0.0
2058,76.0,1.0,30.0,11.0,0.0
2059,85.0,1.0,30.0,1.0,0.0
2060,88.0,1.0,60.0,0.0,0.0
2061,64.0,0.0,60.0,4.0,0.0
2062,81.0,0.0,60.0,1.0,0.0
2063,69.0,2.0,60.0,2.0,0.0
2064,73.0,23.0,30.0,2.0,0.0
2065,69.0,4.0,30.0,12.0,0.0
2066,52.0,0.0,60.0,5.0,0.0
2067,57.0,1.0,60.0,13.0,0.0
2068,61.0,0.0,60.0,3.0,0.0
2069,57.0,1.0,60.0,3.0,0.0
2070,45.0,26.0,60.0,14.0,0.0
2071,76.0,0.0,30.0,11.0,0.0
2072,64.0,0.0,30.0,12.0,0.0
2073,83.0,1.0,60.0,10.0,0.0
2074,64.0,1.0,30.0,4.0,0.0
2075,80.0,1.0,60.0,1.0,0.0
2076,76.0,0.0,60.0,11.0,0.0
2077,83.0,0.0,60.0,1.0,0.0
2078,88.0,0.0,60.0,0.0,0.0
2079,68.0,0.0,60.0,2.0,0.0
2080,64.0,3.0,30.0,12.0,0.0
2081,71.0,2.0,60.0,2.0,0.0
2082,52.0,26.0,30.0,5.0,0.0
2083,52.0,1.0,60.0,13.0,0.0
2084,59.0,0.0,60.0,3.0,0.0
2085,56.0,1.0,60.0,3.0,0.0
2086,40.0,21.0,60.0,14.0,0.0
2087,64.0,0.0,30.0,4.0,0.0
2088,64.0,3.0,30.0,12.0,0.0
2089,52.0,0.0,30.0,5.0,0.0
2090,64.0,1.0,30.0,4.0,0.0
2091,52.0,26.0,30.0,5.0,0.0
2092,64.0,3.0,30.0,12.0,0.0
2093,64.0,1.0,30.0,4.0,0.0
2094,64.0,3.0,30.0,12.0,0.0
2095,52.0,26.0,30.0,5.0,0.0
2096,83.0,1.0,60.0,10.0,0.0
2097,83.0,0.0,60.0,1.0,0.0
2098,83.0,0.0,60.0,0.0,0.0
2099,80.0,0.0,60.0,1.0,0.0
2100,64.0,1.0,30.0,4.0,0.0
2101,71.0,1.0,60.0,11.0,0.0
2102,68.0,3.0,30.0,12.0,0.0
2103,71.0,2.0,60.0,2.0,0.0
2104,52.0,24.0,30.0,5.0,0.0
2105,68.0,0.0,60.0,2.0,0.0
2106,62.0,1.0,60.0,13.0,0.0
2107,59.0,0.0,60.0,3.0,0.0
2108,56.0,1.0,60.0,3.0,0.0
2109,50.0,21.0,60.0,14.0,0.0
2110,64.0,1.0,30.0,4.0,0.0
2111,52.0,1.0,30.0,5.0,0.0
2112,64.0,3.0,30.0,12.0,0.0
2113,85.0,1.0,120.0,10.0,0.0
2114,73.0,0.0,120.0,11.0,0.0
2115,85.0,0.0,60.0,1.0,0.0
2116,64.0,1.0,30.0,4.0,0.0
2117,85.0,9.0,120.0,0.0,0.0
2118,81.0,0.0,60.0,1.0,0.0
2119,69.0,0.0,60.0,2.0,0.0
2120,69.0,3.0,30.0,12.0,0.0
2121,73.0,2.0,60.0,2.0,0.0
2122,52.0,26.0,30.0,5.0,0.0
2123,61.0,1.0,60.0,13.0,0.0
2124,57.0,0.0,60.0,3.0,0.0
2125,61.0,1.0,60.0,3.0,0.0
2126,49.0,21.0,60.0,14.0,0.0
2127,64.0,1.0,30.0,4.0,0.0
2128,52.0,1.0,30.0,5.0,0.0
2129,64.0,3.0,30.0,12.0,0.0
2130,64.0,1.0,30.0,4.0,0.0
2131,52.0,14.0,30.0,5.0,0.0
2132,69.0,3.0,30.0,12.0,0.0
2133,64.0,1.0,30.0,4.0,0.0
2134,52.0,26.0,30.0,5.0,0.0
2135,64.0,3.0,30.0,12.0,0.0
2136,81.0,1.0,15.0,10.0,0.0
2137,81.0,0.0,15.0,0.0,0.0
2138,69.0,1.0,15.0,11.0,0.0
2139,88.0,1.0,60.0,10.0,0.0
2140,85.0,1.0,60.0,1.0,0.0
2141,64.0,1.0,30.0,4.0,0.0
2142,88.0,9.0,60.0,0.0,0.0
2143,76.0,0.0,60.0,11.0,0.0
2144,81.0,0.0,60.0,1.0,0.0
2145,73.0,2.0,60.0,2.0,0.0
2146,52.0,14.0,30.0,5.0,0.0
2147,69.0,3.0,30.0,12.0,0.0
2148,69.0,0.0,60.0,2.0,0.0
2149,57.0,1.0,60.0,13.0,0.0
2150,57.0,1.0,60.0,3.0,0.0
2151,61.0,0.0,60.0,3.0,0.0
2152,45.0,21.0,60.0,14.0,0.0
2153,64.0,1.0,30.0,4.0,0.0
2154,64.0,3.0,30.0,12.0,0.0
2155,52.0,0.0,30.0,5.0,0.0
2156,85.0,1.0,15.0,10.0,0.0
2157,85.0,1.0,15.0,0.0,0.0
2158,73.0,0.0,15.0,11.0,0.0
2159,83.0,1.0,60.0,10.0,0.0
2160,64.0,1.0,30.0,4.0,0.0
2161,83.0,0.0,60.0,1.0,0.0
2162,83.0,0.0,60.0,0.0,0.0
2163,80.0,0.0,60.0,1.0,0.0
2164,71.0,0.0,60.0,11.0,0.0
2165,68.0,3.0,30.0,12.0,0.0
2166,68.0,2.0,60.0,2.0,0.0
2167,52.0,26.0,30.0,5.0,0.0
2168,71.0,0.0,60.0,2.0,0.0
2169,52.0,1.0,60.0,13.0,0.0
2170,59.0,0.0,60.0,3.0,0.0
2171,56.0,1.0,60.0,3.0,0.0
2172,40.0,21.0,60.0,14.0,0.0
2173,64.0,0.0,30.0,4.0,0.0
2174,52.0,1.0,30.0,5.0,0.0
2175,64.0,3.0,30.0,12.0,0.0
2176,64.0,1.0,30.0,4.0,0.0
2177,52.0,26.0,30.0,5.0,0.0
2178,64.0,3.0,30.0,12.0,0.0
2179,64.0,1.0,30.0,4.0,0.0
2180,52.0,26.0,30.0,5.0,0.0
2181,64.0,3.0,30.0,12.0,0.0
2182,83.0,1.0,60.0,10.0,0.0
2183,64.0,1.0,30.0,4.0,0.0
2184,83.0,1.0,60.0,0.0,0.0
2185,71.0,0.0,60.0,11.0,0.0
2186,80.0,1.0,60.0,1.0,0.0
2187,83.0,0.0,60.0,1.0,0.0
2188,52.0,24.0,30.0,5.0,0.0
2189,68.0,2.0,60.0,2.0,0.0
2190,71.0,0.0,60.0,2.0,0.0
2191,68.0,3.0,30.0,12.0,0.0
2192,62.0,1.0,60.0,13.0,0.0
2193,56.0,1.0,60.0,3.0,0.0
2194,59.0,0.0,60.0,3.0,0.0
2195,50.0,21.0,60.0,14.0,0.0
2196,64.0,1.0,30.0,4.0,0.0
2197,52.0,0.0,30.0,5.0,0.0
2198,64.0,3.0,30.0,12.0,0.0
2199,85.0,1.0,120.0,10.0,0.0
2200,64.0,1.0,30.0,4.0,0.0
2201,85.0,0.0,120.0,0.0,0.0
2202,85.0,0.0,60.0,1.0,0.0
2203,81.0,1.0,60.0,1.0,0.0
2204,73.0,9.0,120.0,11.0,0.0
2205,69.0,2.0,60.0,2.0,0.0
2206,52.0,26.0,30.0,5.0,0.0
2207,69.0,3.0,30.0,12.0,0.0
2208,73.0,0.0,60.0,2.0,0.0
2209,61.0,1.0,60.0,13.0,0.0
2210,57.0,0.0,60.0,3.0,0.0
2211,61.0,1.0,60.0,3.0,0.0
2212,49.0,21.0,60.0,14.0,0.0
2213,64.0,1.0,30.0,4.0,0.0
2214,64.0,3.0,30.0,12.0,0.0
2215,52.0,0.0,30.0,5.0,0.0
2216,64.0,1.0,30.0,4.0,0.0
2217,69.0,3.0,30.0,12.0,0.0
2218,52.0,14.0,30.0,5.0,0.0
2219,64.0,1.0,30.0,4.0,0.0
2220,64.0,3.0,30.0,12.0,0.0
2221,52.0,26.0,30.0,5.0,0.0
2222,81.0,1.0,15.0,10.0,0.0
2223,69.0,1.0,15.0,11.0,0.0
2224,81.0,0.0,15.0,0.0,0.0
2225,88.0,1.0,60.0,10.0,0.0
2226,81.0,1.0,60.0,1.0,0.0
2227,85.0,0.0,60.0,1.0,0.0
2228,88.0,0.0,60.0,0.0,0.0
2229,64.0,1.0,30.0,4.0,0.0
2230,76.0,9.0,60.0,11.0,0.0
2231,69.0,2.0,60.0,2.0,0.0
2232,52.0,14.0,30.0,5.0,0.0
2233,73.0,0.0,60.0,2.0,0.0
2234,69.0,3.0,30.0,12.0,0.0
2235,57.0,1.0,60.0,13.0,0.0
2236,61.0,1.0,60.0,3.0,0.0
2237,57.0,0.0,60.0,3.0,0.0
2238,45.0,21.0,60.0,14.0,0.0
2239,64.0,1.0,30.0,4.0,0.0
2240,52.0,0.0,30.0,5.0,0.0
2241,64.0,3.0,30.0,12.0,0.0
2242,85.0,1.0,15.0,10.0,0.0
2243,85.0,0.0,15.0,0.0,0.0
2244,73.0,1.0,15.0,11.0,0.0
2245,83.0,0.0,30.0,10.0,0.0
2246,71.0,0.0,30.0,11.0,0.0
2247,83.0,26.0,30.0,0.0,0.0
2248,80.0,0.0,60.0,1.0,0.0
2249,83.0,0.0,60.0,1.0,0.0
2250,64.0,1.0,30.0,4.0,0.0
2251,68.0,3.0,30.0,12.0,0.0
2252,68.0,3.0,60.0,2.0,0.0
2253,52.0,0.0,30.0,5.0,0.0
2254,71.0,0.0,60.0,2.0,0.0
2255,52.0,2.0,60.0,13.0,0.0
2256,56.0,1.0,60.0,3.0,0.0
2257,59.0,0.0,60.0,3.0,0.0
2258,40.0,21.0,60.0,14.0,0.0
2259,76.0,0.0,30.0,4.0,0.0
2260,64.0,0.0,30.0,12.0,0.0
2261,64.0,3.0,30.0,5.0,0.0
2262,88.0,0.0,90.0,10.0,0.0
2263,76.0,15.0,90.0,11.0,0.0
2264,88.0,0.0,90.0,0.0,0.0
2265,76.0,1.0,30.0,4.0,0.0
2266,71.0,0.0,60.0,2.0,0.0
2267,68.0,3.0,30.0,12.0,0.0
2268,64.0,26.0,30.0,5.0,0.0
2269,68.0,3.0,60.0,2.0,0.0
2270,59.0,0.0,60.0,3.0,0.0
2271,56.0,22.0,60.0,3.0,0.0
2272,76.0,1.0,30.0,4.0,0.0
2273,64.0,3.0,30.0,12.0,0.0
2274,64.0,1.0,30.0,5.0,0.0
2275,73.0,1.0,30.0,4.0,0.0
2276,85.0,8.0,60.0,1.0,0.0
2277,88.0,0.0,60.0,1.0,0.0
2278,69.0,3.0,30.0,12.0,0.0
2279,61.0,0.0,30.0,5.0,0.0
2280,69.0,0.0,60.0,2.0,0.0
2281,73.0,2.0,60.0,2.0,0.0
2282,57.0,1.0,60.0,13.0,0.0
2283,61.0,0.0,60.0,3.0,0.0
2284,57.0,1.0,60.0,3.0,0.0
2285,45.0,21.0,60.0,14.0,0.0
2286,85.0,1.0,30.0,10.0,0.0
2287,69.0,1.0,30.0,4.0,0.0
2288,85.0,1.0,30.0,0.0,0.0
2289,73.0,0.0,30.0,11.0,0.0
2290,64.0,3.0,30.0,12.0,0.0
2291,57.0,1.0,30.0,5.0,0.0
2292,81.0,1.0,15.0,1.0,0.0
2293,85.0,0.0,15.0,1.0,0.0
2294,83.0,0.0,30.0,10.0,0.0
2295,71.0,1.0,30.0,11.0,0.0
2296,64.0,1.0,30.0,4.0,0.0
2297,83.0,0.0,30.0,0.0,0.0
2298,80.0,0.0,30.0,1.0,0.0
2299,83.0,0.0,30.0,1.0,0.0
2300,68.0,3.0,30.0,12.0,0.0
2301,52.0,0.0,30.0,5.0,0.0
2302,68.0,0.0,30.0,2.0,0.0
2303,71.0,3.0,30.0,2.0,0.0
2304,52.0,2.0,60.0,13.0,0.0
2305,56.0,22.0,30.0,3.0,0.0
2306,59.0,0.0,30.0,3.0,0.0
2307,40.0,21.0,60.0,14.0,0.0
2308,76.0,1.0,30.0,4.0,0.0
2309,64.0,3.0,30.0,5.0,0.0
2310,64.0,3.0,30.0,12.0,0.0
2311,88.0,1.0,30.0,10.0,0.0
2312,76.0,0.0,30.0,11.0,0.0
2313,88.0,0.0,30.0,0.0,0.0
2314,76.0,0.0,30.0,4.0,0.0
2315,68.0,3.0,30.0,12.0,0.0
2316,64.0,26.0,30.0,5.0,0.0
2317,68.0,0.0,60.0,2.0,0.0
2318,71.0,3.0,60.0,2.0,0.0
2319,59.0,0.0,60.0,3.0,0.0
2320,56.0,22.0,60.0,3.0,0.0
2321,87.0,1.0,30.0,10.0,0.0
2322,87.0,0.0,30.0,0.0,0.0
2323,75.0,0.0,30.0,11.0,0.0
2324,76.0,0.0,30.0,4.0,0.0
2325,64.0,3.0,30.0,12.0,0.0
2326,64.0,1.0,30.0,5.0,0.0
2327,88.0,1.0,30.0,10.0,0.0
2328,88.0,8.0,60.0,1.0,0.0
2329,73.0,0.0,30.0,4.0,0.0
2330,88.0,0.0,30.0,0.0,0.0
2331,76.0,15.0,30.0,11.0,0.0
2332,73.0,0.0,60.0,2.0,0.0
2333,69.0,2.0,60.0,2.0,0.0
2334,69.0,3.0,30.0,12.0,0.0
2335,61.0,0.0,30.0,5.0,0.0
2336,57.0,1.0,60.0,13.0,0.0
2337,57.0,1.0,60.0,3.0,0.0
2338,61.0,0.0,60.0,3.0,0.0
2339,45.0,33.0,60.0,14.0,0.0
2340,85.0,1.0,30.0,10.0,0.0
2341,69.0,1.0,30.0,4.0,0.0
2342,73.0,1.0,30.0,11.0,0.0
2343,85.0,0.0,30.0,0.0,0.0
2344,57.0,1.0,30.0,5.0,0.0
2345,64.0,3.0,30.0,12.0,0.0
2346,85.0,0.0,15.0,1.0,0.0
2347,81.0,0.0,15.0,1.0,0.0
2348,83.0,1.0,30.0,10.0,0.0
2349,80.0,0.0,30.0,1.0,0.0
2350,83.0,0.0,30.0,1.0,0.0
2351,64.0,0.0,30.0,4.0,0.0
2352,71.0,1.0,30.0,11.0,0.0
2353,83.0,0.0,30.0,0.0,0.0
2354,64.0,0.0,30.0,12.0,0.0
2355,71.0,0.0,30.0,2.0,0.0
2356,52.0,2.0,30.0,5.0,0.0
2357,68.0,0.0,30.0,2.0,0.0
2358,52.0,1.0,30.0,13.0,0.0
2359,56.0,1.0,30.0,3.0,0.0
2360,59.0,0.0,30.0,3.0,0.0
2361,40.0,54.0,30.0,14.0,0.0
2362,71.0,1.0,30.0,10.0,0.0
2363,59.0,1.0,30.0,11.0,0.0
2364,83.0,0.0,30.0,0.0,0.0
2365,68.0,0.0,30.0,11.0,0.0
2366,71.0,0.0,30.0,4.0,0.0
2367,83.0,0.0,30.0,1.0,0.0
2368,80.0,0.0,30.0,1.0,0.0
2369,52.0,0.0,30.0,12.0,0.0
2370,68.0,0.0,30.0,2.0,0.0
2371,71.0,0.0,30.0,2.0,0.0
2372,64.0,2.0,30.0,5.0,0.0
2373,52.0,1.0,30.0,13.0,0.0
2374,64.0,1.0,30.0,3.0,0.0
2375,52.0,0.0,30.0,3.0,0.0
2376,40.0,54.0,30.0,14.0,0.0
2377,71.0,1.0,30.0,10.0,0.0
2378,83.0,0.0,30.0,1.0,0.0
2379,80.0,0.0,30.0,1.0,0.0
2380,59.0,1.0,30.0,11.0,0.0
2381,68.0,0.0,30.0,11.0,0.0
2382,71.0,0.0,30.0,4.0,0.0
2383,83.0,0.0,30.0,0.0,0.0
2384,68.0,0.0,30.0,2.0,0.0
2385,71.0,0.0,30.0,2.0,0.0
2386,64.0,0.0,30.0,5.0,0.0
2387,52.0,2.0,30.0,12.0,0.0
2388,52.0,1.0,30.0,13.0,0.0
2389,64.0,0.0,30.0,3.0,0.0
2390,52.0,1.0,30.0,3.0,0.0
2391,40.0,75.0,30.0,14.0,0.0
2392,71.0,1.0,60.0,10.0,0.0
2393,71.0,0.0,60.0,4.0,0.0
2394,80.0,1.0,60.0,1.0,0.0
2395,83.0,0.0,60.0,0.0,0.0
2396,83.0,0.0,60.0,1.0,0.0
2397,68.0,0.0,60.0,11.0,0.0
2398,59.0,0.0,60.0,11.0,0.0
2399,52.0,0.0,60.0,12.0,0.0
2400,68.0,0.0,60.0,2.0,0.0
2401,71.0,0.0,60.0,2.0,0.0
2402,64.0,2.0,60.0,5.0,0.0
2403,52.0,1.0,60.0,13.0,0.0
2404,52.0,1.0,60.0,3.0,0.0
2405,40.0,114.0,60.0,14.0,0.0
2406,71.0,39.0,60.0,10.0,0.0
2407,80.0,64.0,30.0,10.0,0.0
2408,65.0,60.0,30.0,13.0,0.0
2409,80.0,1.0,60.0,10.0,0.0
2410,77.0,1.0,60.0,11.0,0.0
2411,71.0,37.0,60.0,12.0,0.0
2412,61.0,17.0,30.0,13.0,0.0
2413,81.0,1.0,30.0,10.0,0.0
2414,78.0,1.0,30.0,11.0,0.0
2415,69.0,2.0,30.0,12.0,0.0
2416,66.0,60.0,30.0,13.0,0.0
2417,54.0,62.0,30.0,13.0,0.0
2418,85.0,1.0,60.0,10.0,0.0
2419,73.0,9.0,60.0,11.0,0.0
2420,81.0,1.0,15.0,10.0,0.0
2421,69.0,43.0,15.0,11.0,0.0
2422,78.0,1.0,30.0,10.0,0.0
2423,66.0,63.0,30.0,11.0,0.0
2424,63.0,60.0,30.0,13.0,0.0
2425,78.0,1.0,60.0,10.0,0.0
2426,75.0,1.0,60.0,11.0,0.0
2427,69.0,37.0,60.0,12.0,0.0
2428,59.0,17.0,30.0,13.0,0.0
2429,80.0,1.0,30.0,10.0,0.0
2430,76.0,1.0,30.0,11.0,0.0
2431,68.0,2.0,30.0,12.0,0.0
2432,64.0,60.0,30.0,13.0,0.0
2433,52.0,62.0,30.0,13.0,0.0
2434,83.0,1.0,60.0,10.0,0.0
2435,71.0,9.0,60.0,11.0,0.0
2436,80.0,1.0,15.0,10.0,0.0
2437,68.0,43.0,15.0,11.0,0.0
2438,76.0,1.0,30.0,10.0,0.0
2439,64.0,1.0,30.0,11.0,0.0
2440,59.0,2.0,30.0,12.0,0.0
2441,56.0,1.0,30.0,13.0,0.0
2442,56.0,68.0,30.0,3.0,0.0
2443,76.0,1.0,60.0,10.0,0.0
2444,71.0,1.0,60.0,11.0,0.0
2445,71.0,1.0,60.0,12.0,0.0
2446,68.0,56.0,60.0,13.0,0.0
2447,68.0,1.0,60.0,3.0,0.0
2448,76.0,1.0,60.0,10.0,0.0
2449,71.0,1.0,60.0,11.0,0.0
2450,71.0,1.0,60.0,12.0,0.0
2451,68.0,64.0,60.0,13.0,0.0
2452,68.0,1.0,60.0,3.0,0.0
2453,76.0,2.0,60.0,10.0,0.0
2454,71.0,4.0,120.0,11.0,0.0
2455,71.0,2.0,60.0,12.0,0.0
2456,68.0,1.0,60.0,13.0,0.0
2457,68.0,51.0,60.0,3.0,0.0
2458,75.0,2.0,60.0,10.0,0.0
2459,69.0,2.0,60.0,12.0,0.0
2460,66.0,1.0,60.0,13.0,0.0
2461,66.0,50.0,60.0,3.0,0.0
2462,76.0,1.0,60.0,10.0,0.0
2463,71.0,1.0,60.0,11.0,0.0
2464,68.0,2.0,60.0,12.0,0.0
2465,64.0,1.0,60.0,13.0,0.0
2466,64.0,60.0,60.0,3.0,0.0
2467,78.0,1.0,60.0,10.0,0.0
2468,71.0,1.0,60.0,11.0,0.0
2469,71.0,1.0,120.0,4.0,0.0
2470,66.0,2.0,60.0,12.0,0.0
2471,71.0,5.0,120.0,5.0,0.0
2472,63.0,1.0,60.0,13.0,0.0
2473,63.0,51.0,60.0,3.0,0.0
2474,81.0,1.0,60.0,10.0,0.0
2475,78.0,14.0,60.0,11.0,0.0
2476,63.0,2.0,60.0,12.0,0.0
2477,59.0,1.0,60.0,13.0,0.0
2478,59.0,10.0,60.0,3.0,0.0
2479,71.0,0.0,60.0,4.0,0.0
2480,64.0,2.0,60.0,12.0,0.0
2481,71.0,0.0,60.0,5.0,0.0
2482,64.0,1.0,60.0,13.0,0.0
2483,64.0,43.0,60.0,3.0,0.0
2484,80.0,1.0,15.0,10.0,0.0
2485,76.0,14.0,15.0,11.0,0.0
2486,78.0,1.0,15.0,10.0,0.0
2487,75.0,9.0,15.0,11.0,0.0
2488,80.0,1.0,15.0,10.0,0.0
2489,76.0,1.0,15.0,11.0,0.0
2490,78.0,0.0,60.0,10.0,0.0
2491,75.0,0.0,60.0,11.0,0.0
2492,71.0,1.0,60.0,4.0,0.0
2493,71.0,41.0,60.0,5.0,0.0
2494,71.0,0.0,60.0,12.0,0.0
2495,59.0,17.0,30.0,13.0,0.0
2496,59.0,1.0,60.0,3.0,0.0
2497,71.0,17.0,30.0,13.0,0.0
2498,71.0,61.0,60.0,3.0,0.0
2499,71.0,0.0,60.0,11.0,0.0
2500,83.0,0.0,60.0,0.0,0.0
2501,71.0,14.0,60.0,1.0,0.0
2502,83.0,25.0,15.0,10.0,0.0
2503,80.0,0.0,30.0,11.0,0.0
2504,80.0,0.0,30.0,1.0,0.0
2505,92.0,5.0,30.0,0.0,0.0
2506,80.0,30.0,15.0,10.0,0.0
2507,77.0,28.0,15.0,10.0,0.0
2508,65.0,2.0,30.0,13.0,0.0
2509,53.0,0.0,30.0,14.0,0.0
2510,73.0,30.0,15.0,10.0,0.0
2511,71.0,28.0,15.0,10.0,0.0
2512,77.0,4.0,60.0,1.0,0.0
2513,80.0,0.0,60.0,1.0,0.0
2514,92.0,0.0,60.0,0.0,0.0
2515,80.0,0.0,60.0,11.0,0.0
2516,61.0,2.0,30.0,13.0,0.0
2517,71.0,10.0,60.0,3.0,0.0
2518,68.0,0.0,60.0,3.0,0.0
2519,49.0,16.0,30.0,14.0,0.0
2520,68.0,0.0,15.0,10.0,0.0
2521,69.0,25.0,15.0,10.0,0.0
2522,78.0,0.0,30.0,1.0,0.0
2523,81.0,0.0,30.0,11.0,0.0
2524,81.0,3.0,30.0,1.0,0.0
2525,93.0,0.0,30.0,0.0,0.0
2526,66.0,2.0,30.0,13.0,0.0
2527,69.0,25.0,60.0,3.0,0.0
2528,66.0,0.0,60.0,3.0,0.0
2529,54.0,0.0,30.0,14.0,0.0
2530,66.0,20.0,15.0,10.0,0.0
2531,73.0,1.0,30.0,10.0,0.0
2532,85.0,0.0,30.0,1.0,0.0
2533,85.0,10.0,30.0,11.0,0.0
2534,69.0,2.0,30.0,12.0,0.0
2535,54.0,2.0,30.0,13.0,0.0
2536,42.0,15.0,30.0,14.0,0.0
2537,72.0,1.0,30.0,10.0,0.0
2538,84.0,29.0,30.0,1.0,0.0
2539,84.0,0.0,30.0,11.0,0.0
2540,73.0,1.0,30.0,10.0,0.0
2541,85.0,10.0,30.0,1.0,0.0
2542,85.0,0.0,30.0,11.0,0.0
2543,66.0,14.0,30.0,12.0,0.0
2544,69.0,1.0,30.0,10.0,0.0
2545,81.0,0.0,30.0,11.0,0.0
2546,81.0,19.0,30.0,1.0,0.0
2547,81.0,26.0,15.0,10.0,0.0
2548,78.0,0.0,60.0,1.0,0.0
2549,75.0,14.0,60.0,1.0,0.0
2550,90.0,0.0,60.0,0.0,0.0
2551,78.0,0.0,60.0,11.0,0.0
2552,71.0,4.0,30.0,12.0,0.0
2553,78.0,16.0,15.0,10.0,0.0
2554,75.0,26.0,15.0,10.0,0.0
2555,59.0,2.0,30.0,12.0,0.0
2556,63.0,2.0,30.0,13.0,0.0
2557,51.0,0.0,30.0,14.0,0.0
2558,71.0,30.0,15.0,10.0,0.0
2559,69.0,28.0,15.0,10.0,0.0
2560,78.0,0.0,60.0,11.0,0.0
2561,90.0,0.0,60.0,0.0,0.0
2562,75.0,0.0,60.0,1.0,0.0
2563,78.0,4.0,60.0,1.0,0.0
2564,59.0,2.0,30.0,13.0,0.0
2565,66.0,0.0,60.0,3.0,0.0
2566,69.0,10.0,60.0,3.0,0.0
2567,47.0,0.0,30.0,14.0,0.0
2568,66.0,16.0,15.0,10.0,0.0
2569,68.0,25.0,15.0,10.0,0.0
2570,76.0,3.0,30.0,1.0,0.0
2571,80.0,0.0,30.0,11.0,0.0
2572,80.0,0.0,30.0,1.0,0.0
2573,92.0,0.0,30.0,0.0,0.0
2574,64.0,1.0,30.0,13.0,0.0
2575,64.0,0.0,30.0,3.0,0.0
2576,68.0,1.0,30.0,3.0,0.0
2577,52.0,0.0,30.0,14.0,0.0
2578,64.0,45.0,15.0,10.0,0.0
2579,71.0,1.0,30.0,10.0,0.0
2580,95.0,1.0,30.0,0.0,0.0
2581,68.0,2.0,30.0,12.0,0.0
2582,83.0,3.0,30.0,2.0,0.0
2583,52.0,2.0,30.0,13.0,0.0
2584,71.0,6.0,30.0,3.0,0.0
2585,40.0,15.0,30.0,14.0,0.0
2586,70.0,1.0,30.0,10.0,0.0
2587,94.0,1.0,30.0,0.0,0.0
2588,82.0,3.0,30.0,2.0,0.0
2589,70.0,25.0,30.0,3.0,0.0
2590,71.0,1.0,30.0,10.0,0.0
2591,95.0,1.0,30.0,0.0,0.0
2592,83.0,3.0,30.0,2.0,0.0
2593,64.0,14.0,30.0,12.0,0.0
2594,71.0,6.0,30.0,3.0,0.0
2595,68.0,1.0,30.0,10.0,0.0
2596,92.0,1.0,30.0,0.0,0.0
2597,80.0,3.0,30.0,2.0,0.0
2598,68.0,16.0,30.0,3.0,0.0
2599,64.0,1.0,60.0,10.0,0.0
2600,88.0,1.0,60.0,0.0,0.0
2601,71.0,25.0,15.0,11.0,0.0
2602,59.0,2.0,30.0,12.0,0.0
2603,76.0,0.0,60.0,2.0,0.0
2604,71.0,8.0,60.0,2.0,0.0
2605,56.0,2.0,30.0,13.0,0.0
2606,64.0,11.0,60.0,3.0,0.0
2607,59.0,0.0,60.0,3.0,0.0
2608,44.0,1.0,30.0,14.0,0.0
2609,74.0,9.0,15.0,11.0,0.0
2610,76.0,1.0,60.0,10.0,0.0
2611,71.0,25.0,15.0,11.0,0.0
2612,88.0,1.0,60.0,0.0,0.0
2613,71.0,3.0,60.0,2.0,0.0
2614,76.0,0.0,60.0,2.0,0.0
2615,68.0,2.0,30.0,12.0,0.0
2616,56.0,2.0,30.0,13.0,0.0
2617,59.0,0.0,60.0,3.0,0.0
2618,64.0,11.0,60.0,3.0,0.0
2619,44.0,1.0,30.0,14.0,0.0
2620,74.0,14.0,15.0,11.0,0.0
2621,77.0,1.0,60.0,10.0,0.0
2622,71.0,25.0,15.0,11.0,0.0
2623,89.0,1.0,60.0,0.0,0.0
2624,68.0,2.0,30.0,12.0,0.0
2625,77.0,3.0,60.0,2.0,0.0
2626,74.0,0.0,60.0,2.0,0.0
2627,56.0,2.0,30.0,13.0,0.0
2628,62.0,0.0,60.0,3.0,0.0
2629,65.0,30.0,60.0,3.0,0.0
2630,44.0,1.0,30.0,14.0,0.0
2631,74.0,9.0,15.0,11.0,0.0
2632,78.0,1.0,30.0,10.0,0.0
2633,90.0,1.0,60.0,0.0,0.0
2634,66.0,29.0,30.0,11.0,0.0
2635,78.0,0.0,60.0,2.0,0.0
2636,73.0,0.0,60.0,2.0,0.0
2637,69.0,2.0,60.0,12.0,0.0
2638,57.0,1.0,60.0,13.0,0.0
2639,61.0,0.0,60.0,3.0,0.0
2640,66.0,1.0,60.0,3.0,0.0
2641,45.0,24.0,60.0,14.0,0.0
2642,80.0,1.0,30.0,10.0,0.0
2643,68.0,0.0,30.0,11.0,0.0
2644,81.0,1.0,30.0,10.0,0.0
2645,69.0,29.0,30.0,11.0,0.0
2646,83.0,1.0,30.0,10.0,0.0
2647,71.0,29.0,30.0,11.0,0.0
2648,84.0,1.0,30.0,10.0,0.0
2649,72.0,24.0,30.0,11.0,0.0
2650,85.0,1.0,30.0,10.0,0.0
2651,73.0,35.0,30.0,11.0,0.0
2652,76.0,1.0,90.0,10.0,0.0
2653,68.0,30.0,30.0,11.0,0.0
2654,88.0,0.0,120.0,0.0,0.0
2655,68.0,3.0,120.0,2.0,0.0
2656,76.0,0.0,120.0,2.0,0.0
2657,71.0,29.0,30.0,11.0,0.0
2658,68.0,1.0,30.0,11.0,0.0
2659,71.0,1.0,60.0,4.0,0.0
2660,71.0,3.0,60.0,5.0,0.0
2661,71.0,2.0,30.0,12.0,0.0
2662,59.0,2.0,30.0,13.0,0.0
2663,64.0,0.0,60.0,3.0,0.0
2664,47.0,2.0,30.0,14.0,0.0
2665,78.0,7.0,15.0,10.0,0.0
2666,71.0,1.0,30.0,11.0,0.0
2667,76.0,8.0,15.0,10.0,0.0
2668,75.0,3.0,15.0,10.0,0.0
2669,76.0,1.0,15.0,10.0,0.0
2670,78.0,1.0,60.0,10.0,0.0
2671,71.0,0.0,60.0,4.0,0.0
2672,90.0,9.0,60.0,0.0,0.0
2673,69.0,1.0,30.0,11.0,0.0
2674,59.0,2.0,30.0,12.0,0.0
2675,75.0,3.0,60.0,2.0,0.0
2676,71.0,0.0,60.0,5.0,0.0
2677,69.0,0.0,60.0,2.0,0.0
2678,47.0,2.0,30.0,13.0,0.0
2679,66.0,45.0,60.0,3.0,0.0
2680,59.0,26.0,15.0,3.0,0.0
2681,35.0,9.0,30.0,14.0,0.0
2682,71.0,1.0,30.0,11.0,0.0
2683,75.0,1.0,15.0,10.0,0.0
2684,87.0,0.0,15.0,0.0,0.0
2685,76.0,8.0,60.0,10.0,0.0
2686,88.0,0.0,60.0,0.0,0.0
2687,71.0,0.0,60.0,4.0,0.0
2688,68.0,1.0,60.0,11.0,0.0
2689,64.0,0.0,60.0,5.0,0.0
2690,64.0,0.0,60.0,12.0,0.0
2691,68.0,2.0,60.0,2.0,0.0
2692,76.0,0.0,60.0,2.0,0.0
2693,52.0,1.0,60.0,13.0,0.0
2694,52.0,0.0,60.0,3.0,0.0
2695,64.0,1.0,60.0,3.0,0.0
2696,40.0,48.0,60.0,14.0,0.0
2697,83.0,8.0,15.0,10.0,0.0
2698,83.0,13.0,150.0,10.0,0.0
2699,78.0,1.0,15.0,11.0,0.0
2700,75.0,2.0,15.0,12.0,0.0
2701,69.0,27.0,15.0,13.0,0.0
2702,80.0,1.0,20.0,11.0,0.0
2703,76.0,2.0,20.0,12.0,0.0
2704,68.0,27.0,20.0,13.0,0.0
2705,81.0,1.0,15.0,11.0,0.0
2706,78.0,2.0,15.0,12.0,0.0
2707,63.0,34.0,15.0,13.0,0.0
2708,80.0,1.0,30.0,11.0,0.0
2709,76.0,2.0,30.0,12.0,0.0
2710,64.0,6.0,30.0,13.0,0.0
2711,80.0,61.0,15.0,10.0,0.0
2712,80.0,13.0,150.0,10.0,0.0
2713,75.0,1.0,15.0,11.0,0.0
2714,72.0,2.0,15.0,12.0,0.0
2715,66.0,27.0,15.0,13.0,0.0
2716,76.0,1.0,20.0,11.0,0.0
2717,73.0,2.0,20.0,12.0,0.0
2718,64.0,27.0,20.0,13.0,0.0
2719,78.0,1.0,15.0,11.0,0.0
2720,75.0,2.0,15.0,12.0,0.0
2721,60.0,34.0,15.0,13.0,0.0
2722,76.0,1.0,30.0,11.0,0.0
2723,73.0,2.0,30.0,12.0,0.0
2724,61.0,6.0,30.0,13.0,0.0
2725,76.0,61.0,15.0,10.0,0.0
2726,76.0,24.0,90.0,10.0,0.0
2727,71.0,1.0,15.0,11.0,0.0
2728,68.0,2.0,15.0,12.0,0.0
2729,62.0,27.0,15.0,13.0,0.0
2730,73.0,1.0,20.0,11.0,0.0
2731,69.0,2.0,20.0,12.0,0.0
2732,61.0,3.0,20.0,13.0,0.0
2733,77.0,2.0,30.0,10.0,0.0
2734,74.0,1.0,15.0,11.0,0.0
2735,71.0,0.0,15.0,12.0,0.0
2736,56.0,23.0,15.0,13.0,0.0
2737,78.0,4.0,20.0,10.0,0.0
2738,73.0,1.0,20.0,11.0,0.0
2739,69.0,2.0,20.0,12.0,0.0
2740,57.0,8.0,20.0,13.0,0.0
2741,81.0,19.0,15.0,10.0,0.0
2742,85.0,0.0,15.0,10.0,0.0
2743,69.0,1.0,15.0,11.0,0.0
2744,66.0,2.0,15.0,12.0,0.0
2745,54.0,42.0,15.0,13.0,0.0
2746,76.0,1.0,30.0,10.0,0.0
2747,68.0,1.0,30.0,11.0,0.0
2748,71.0,2.0,30.0,12.0,0.0
2749,59.0,23.0,30.0,13.0,0.0
2750,75.0,6.0,15.0,10.0,0.0
2751,69.0,1.0,30.0,11.0,0.0
2752,59.0,2.0,30.0,12.0,0.0
2753,47.0,2.0,30.0,13.0,0.0
2754,76.0,6.0,15.0,10.0,0.0
2755,75.0,6.0,15.0,10.0,0.0
2756,76.0,6.0,15.0,10.0,0.0
2757,75.0,1.0,15.0,10.0,0.0
2758,76.0,6.0,15.0,10.0,0.0
2759,75.0,6.0,15.0,10.0,0.0
2760,76.0,6.0,15.0,10.0,0.0
2761,75.0,37.0,15.0,10.0,0.0
2762,76.0,1.0,60.0,10.0,0.0
2763,64.0,0.0,30.0,1.0,0.0
2764,68.0,1.0,60.0,11.0,0.0
2765,76.0,4.0,30.0,1.0,0.0
2766,64.0,2.0,60.0,12.0,0.0
2767,52.0,49.0,60.0,13.0,0.0
2768,64.0,0.0,30.0,3.0,0.0
2769,52.0,19.0,30.0,3.0,0.0
2770,71.0,0.0,15.0,1.0,0.0
2771,83.0,4.0,15.0,1.0,0.0
2772,59.0,0.0,15.0,3.0,0.0
2773,71.0,2.0,15.0,3.0,0.0
2774,83.0,0.0,150.0,1.0,0.0
2775,71.0,4.0,150.0,1.0,0.0
2776,59.0,0.0,150.0,3.0,0.0
2777,71.0,9.0,150.0,3.0,0.0
2778,78.0,1.0,15.0,10.0,0.0
2779,75.0,1.0,15.0,11.0,0.0
2780,71.0,2.0,15.0,12.0,0.0
2781,57.0,2.0,15.0,13.0,0.0
2782,45.0,24.0,15.0,14.0,0.0
2783,80.0,1.0,20.0,10.0,0.0
2784,76.0,1.0,20.0,11.0,0.0
2785,71.0,2.0,20.0,12.0,0.0
2786,56.0,2.0,20.0,13.0,0.0
2787,44.0,24.0,20.0,14.0,0.0
2788,81.0,1.0,15.0,10.0,0.0
2789,78.0,1.0,15.0,11.0,0.0
2790,71.0,2.0,15.0,12.0,0.0
2791,51.0,2.0,15.0,13.0,0.0
2792,39.0,31.0,15.0,14.0,0.0
2793,80.0,1.0,30.0,10.0,0.0
2794,76.0,1.0,30.0,11.0,0.0
2795,71.0,2.0,30.0,12.0,0.0
2796,52.0,2.0,30.0,13.0,0.0
2797,40.0,5.0,30.0,14.0,0.0
2798,80.0,4.0,15.0,1.0,0.0
2799,68.0,0.0,15.0,1.0,0.0
2800,68.0,0.0,15.0,3.0,0.0
2801,56.0,55.0,15.0,3.0,0.0
2802,80.0,4.0,150.0,1.0,0.0
2803,68.0,0.0,150.0,1.0,0.0
2804,56.0,0.0,150.0,3.0,0.0
2805,68.0,9.0,150.0,3.0,0.0
2806,75.0,1.0,15.0,10.0,0.0
2807,72.0,1.0,15.0,11.0,0.0
2808,68.0,2.0,15.0,12.0,0.0
2809,66.0,2.0,15.0,13.0,0.0
2810,54.0,24.0,15.0,14.0,0.0
2811,76.0,1.0,20.0,10.0,0.0
2812,73.0,1.0,20.0,11.0,0.0
2813,68.0,2.0,20.0,12.0,0.0
2814,64.0,2.0,20.0,13.0,0.0
2815,52.0,24.0,20.0,14.0,0.0
2816,78.0,1.0,15.0,10.0,0.0
2817,75.0,1.0,15.0,11.0,0.0
2818,68.0,2.0,15.0,12.0,0.0
2819,60.0,2.0,15.0,13.0,0.0
2820,48.0,31.0,15.0,14.0,0.0
2821,76.0,1.0,30.0,10.0,0.0
2822,73.0,1.0,30.0,11.0,0.0
2823,68.0,2.0,30.0,12.0,0.0
2824,61.0,2.0,30.0,13.0,0.0
2825,49.0,5.0,30.0,14.0,0.0
2826,80.0,0.0,15.0,1.0,0.0
2827,68.0,1.0,15.0,1.0,0.0
2828,92.0,0.0,15.0,0.0,0.0
2829,68.0,0.0,15.0,2.0,0.0
2830,80.0,3.0,15.0,2.0,0.0
2831,68.0,55.0,15.0,3.0,0.0
2832,56.0,0.0,15.0,3.0,0.0
2833,68.0,1.0,180.0,1.0,0.0
2834,80.0,0.0,180.0,1.0,0.0
2835,92.0,0.0,180.0,0.0,0.0
2836,80.0,0.0,180.0,2.0,0.0
2837,68.0,3.0,180.0,2.0,0.0
2838,68.0,0.0,180.0,3.0,0.0
2839,56.0,120.0,180.0,3.0,0.0
2840,84.0,1.0,15.0,10.0,0.0
2841,75.0,1.0,15.0,11.0,0.0
2842,68.0,2.0,15.0,12.0,0.0
2843,66.0,2.0,15.0,13.0,0.0
2844,54.0,24.0,15.0,14.0,0.0
2845,85.0,1.0,20.0,10.0,0.0
2846,76.0,1.0,20.0,11.0,0.0
2847,68.0,2.0,20.0,12.0,0.0
2848,64.0,2.0,20.0,13.0,0.0
2849,52.0,24.0,20.0,14.0,0.0
2850,87.0,1.0,15.0,10.0,0.0
2851,78.0,1.0,15.0,11.0,0.0
2852,68.0,2.0,15.0,12.0,0.0
2853,60.0,2.0,15.0,13.0,0.0
2854,48.0,31.0,15.0,14.0,0.0
2855,85.0,1.0,30.0,10.0,0.0
2856,76.0,1.0,30.0,11.0,0.0
2857,68.0,2.0,30.0,12.0,0.0
2858,61.0,2.0,30.0,13.0,0.0
2859,49.0,20.0,30.0,14.0,0.0
2860,80.0,1.0,120.0,10.0,0.0
2861,80.0,0.0,120.0,1.0,0.0
2862,92.0,0.0,120.0,0.0,0.0
2863,68.0,0.0,120.0,1.0,0.0
2864,74.0,1.0,120.0,11.0,0.0
2865,64.0,2.0,150.0,12.0,0.0
2866,74.0,2.0,120.0,2.0,0.0
2867,64.0,0.0,150.0,2.0,0.0
2868,59.0,1.0,120.0,13.0,0.0
2869,64.0,0.0,150.0,3.0,0.0
2870,62.0,1.0,120.0,3.0,0.0
2871,47.0,24.0,120.0,14.0,0.0
2872,81.0,1.0,30.0,10.0,0.0
2873,73.0,0.0,30.0,11.0,0.0
2874,81.0,0.0,30.0,1.0,0.0
2875,69.0,0.0,30.0,1.0,0.0
2876,93.0,1.0,30.0,0.0,0.0
2877,73.0,0.0,30.0,2.0,0.0
2878,57.0,1.0,30.0,13.0,0.0
2879,61.0,1.0,30.0,3.0,0.0
2880,45.0,144.0,30.0,14.0,0.0
2881,82.0,1.0,120.0,10.0,0.0
2882,82.0,0.0,120.0,1.0,0.0
2883,70.0,0.0,120.0,1.0,0.0
2884,76.0,1.0,120.0,11.0,0.0
2885,94.0,0.0,120.0,0.0,0.0
2886,76.0,0.0,120.0,2.0,0.0
2887,73.0,0.0,120.0,2.0,0.0
2888,73.0,2.0,120.0,12.0,0.0
2889,54.0,1.0,120.0,13.0,0.0
2890,66.0,0.0,150.0,3.0,0.0
2891,64.0,1.0,120.0,3.0,0.0
2892,42.0,24.0,120.0,14.0,0.0
2893,83.0,1.0,30.0,10.0,0.0
2894,95.0,0.0,30.0,0.0,0.0
2895,75.0,1.0,30.0,11.0,0.0
2896,83.0,0.0,30.0,1.0,0.0
2897,71.0,0.0,30.0,1.0,0.0
2898,71.0,0.0,30.0,2.0,0.0
2899,75.0,0.0,30.0,2.0,0.0
2900,66.0,2.0,30.0,12.0,0.0
2901,59.0,1.0,30.0,13.0,0.0
2902,63.0,1.0,30.0,3.0,0.0
2903,47.0,144.0,30.0,14.0,0.0
2904,84.0,1.0,120.0,10.0,0.0
2905,84.0,0.0,120.0,1.0,0.0
2906,72.0,1.0,120.0,1.0,0.0
2907,84.0,0.0,150.0,0.0,0.0
2908,78.0,1.0,150.0,11.0,0.0
2909,75.0,0.0,120.0,2.0,0.0
2910,75.0,2.0,120.0,12.0,0.0
2911,78.0,3.0,180.0,2.0,0.0
2912,56.0,1.0,120.0,13.0,0.0
2913,66.0,16.0,180.0,3.0,0.0
2914,63.0,1.0,120.0,3.0,0.0
2915,44.0,14.0,120.0,14.0,0.0
2916,85.0,1.0,20.0,10.0,0.0
2917,73.0,0.0,60.0,1.0,0.0
2918,85.0,1.0,60.0,1.0,0.0
2919,73.0,0.0,60.0,2.0,0.0
2920,73.0,12.0,20.0,12.0,0.0
2921,57.0,1.0,30.0,13.0,0.0
2922,61.0,0.0,60.0,3.0,0.0
2923,45.0,0.0,30.0,14.0,0.0
2924,81.0,1.0,15.0,10.0,0.0
2925,73.0,0.0,15.0,11.0,0.0
2926,93.0,1.0,15.0,0.0,0.0
2927,69.0,13.0,15.0,12.0,0.0
2928,78.0,1.0,15.0,10.0,0.0
2929,69.0,0.0,15.0,11.0,0.0
2930,90.0,1.0,15.0,0.0,0.0
2931,73.0,4.0,15.0,12.0,0.0
2932,76.0,1.0,30.0,10.0,0.0
2933,76.0,0.0,60.0,1.0,0.0
2934,71.0,1.0,60.0,1.0,0.0
2935,71.0,1.0,60.0,4.0,0.0
2936,68.0,1.0,30.0,11.0,0.0
2937,88.0,14.0,15.0,0.0,0.0
2938,71.0,0.0,60.0,2.0,0.0
2939,68.0,3.0,60.0,2.0,0.0
2940,71.0,4.0,60.0,5.0,0.0
2941,71.0,2.0,30.0,12.0,0.0
2942,59.0,2.0,30.0,13.0,0.0
2943,64.0,1.0,60.0,3.0,0.0
2944,47.0,20.0,30.0,14.0,0.0
2945,76.0,1.0,15.0,10.0,0.0
2946,71.0,0.0,60.0,4.0,0.0
2947,75.0,0.0,60.0,1.0,0.0
2948,88.0,5.0,15.0,0.0,0.0
2949,69.0,0.0,30.0,11.0,0.0
2950,71.0,1.0,60.0,1.0,0.0
2951,71.0,0.0,60.0,5.0,0.0
2952,66.0,2.0,30.0,12.0,0.0
2953,69.0,0.0,60.0,2.0,0.0
2954,71.0,3.0,60.0,2.0,0.0
2955,47.0,2.0,30.0,13.0,0.0
2956,59.0,0.0,15.0,3.0,0.0
2957,66.0,0.0,60.0,3.0,0.0
2958,35.0,1.0,30.0,14.0,0.0
2959,75.0,1.0,15.0,10.0,0.0
2960,87.0,5.0,15.0,0.0,0.0
2961,76.0,1.0,15.0,10.0,0.0
2962,88.0,5.0,15.0,0.0,0.0
2963,75.0,1.0,15.0,10.0,0.0
2964,87.0,5.0,15.0,0.0,0.0
2965,76.0,1.0,15.0,10.0,0.0
2966,88.0,1.0,15.0,0.0,0.0
2967,75.0,0.0,15.0,10.0,0.0
2968,87.0,7.0,15.0,0.0,0.0
2969,75.0,1.0,15.0,10.0,0.0
2970,87.0,7.0,15.0,0.0,0.0
2971,73.0,1.0,15.0,10.0,0.0
2972,85.0,3.0,15.0,0.0,0.0
2973,75.0,0.0,15.0,10.0,0.0
2974,87.0,48.0,15.0,0.0,0.0
2975,76.0,1.0,60.0,10.0,0.0
2976,76.0,0.0,60.0,1.0,0.0
2977,71.0,0.0,60.0,1.0,0.0
2978,88.0,0.0,60.0,0.0,0.0
2979,68.0,1.0,60.0,11.0,0.0
2980,71.0,1.0,60.0,4.0,0.0
2981,64.0,3.0,60.0,5.0,0.0
2982,71.0,0.0,60.0,2.0,0.0
2983,68.0,2.0,60.0,2.0,0.0
2984,64.0,0.0,60.0,12.0,0.0
2985,52.0,7.0,60.0,15.0,0.0
2986,52.0,1.0,60.0,13.0,0.0
2987,64.0,1.0,60.0,3.0,0.0
2988,52.0,0.0,60.0,3.0,0.0
2989,40.0,40.0,60.0,14.0,0.0
2990,59.0,0.0,60.0,6.0,0.0
2991,71.0,3.0,60.0,6.0,0.0
2992,47.0,0.0,15.0,15.0,0.0
2993,47.0,15.0,15.0,15.0,0.0
2994,71.0,3.0,60.0,6.0,0.0
2995,59.0,0.0,60.0,6.0,0.0
2996,47.0,42.0,15.0,15.0,0.0
2997,47.0,6.0,15.0,15.0,0.0
2998,81.0,20.0,15.0,10.0,0.0
2999,59.0,3.0,420.0,6.0,0.0
3000,59.0,1.0,60.0,11.0,0.0
3001,71.0,0.0,420.0,6.0,0.0
3002,69.0,0.0,60.0,11.0,0.0
3003,66.0,2.0,60.0,12.0,0.0
3004,59.0,0.0,60.0,13.0,0.0
3005,47.0,4.0,60.0,14.0,0.0
3006,85.0,19.0,15.0,10.0,0.0
3007,83.0,11.0,15.0,10.0,0.0
3008,47.0,1.0,15.0,15.0,0.0
3009,81.0,20.0,15.0,10.0,0.0
3010,71.0,0.0,60.0,4.0,0.0
3011,78.0,1.0,60.0,1.0,0.0
3012,81.0,0.0,60.0,1.0,0.0
3013,71.0,0.0,60.0,5.0,0.0
3014,66.0,2.0,60.0,2.0,0.0
3015,69.0,0.0,60.0,2.0,0.0
3016,63.0,5.0,60.0,3.0,0.0
3017,59.0,0.0,60.0,3.0,0.0
3018,80.0,19.0,15.0,10.0,0.0
3019,78.0,11.0,15.0,10.0,0.0
3020,47.0,1.0,15.0,15.0,0.0
3021,76.0,20.0,15.0,10.0,0.0
3022,69.0,1.0,60.0,11.0,0.0
3023,59.0,0.0,60.0,11.0,0.0
3024,66.0,2.0,60.0,12.0,0.0
3025,47.0,1.0,15.0,15.0,0.0
3026,59.0,0.0,60.0,13.0,0.0
3027,47.0,4.0,60.0,14.0,0.0
3028,75.0,19.0,15.0,10.0,0.0
3029,78.0,11.0,15.0,10.0,0.0
3030,47.0,1.0,15.0,15.0,0.0
3031,76.0,1.0,15.0,10.0,0.0
3032,80.0,0.0,60.0,1.0,0.0
3033,88.0,19.0,15.0,0.0,0.0
3034,71.0,1.0,60.0,4.0,0.0
3035,76.0,0.0,60.0,1.0,0.0
3036,64.0,2.0,60.0,2.0,0.0
3037,68.0,0.0,60.0,2.0,0.0
3038,71.0,0.0,60.0,5.0,0.0
3039,47.0,1.0,60.0,15.0,0.0
3040,59.0,0.0,60.0,3.0,0.0
3041,64.0,5.0,60.0,3.0,0.0
3042,80.0,1.0,15.0,10.0,0.0
3043,92.0,18.0,15.0,0.0,0.0
3044,78.0,1.0,15.0,10.0,0.0
3045,90.0,10.0,15.0,0.0,0.0
3046,47.0,1.0,15.0,15.0,0.0
3047,76.0,1.0,15.0,10.0,0.0
3048,59.0,0.0,60.0,11.0,0.0
3049,88.0,19.0,15.0,0.0,0.0
3050,68.0,1.0,60.0,11.0,0.0
3051,64.0,2.0,60.0,12.0,0.0
3052,59.0,0.0,60.0,13.0,0.0
3053,47.0,1.0,60.0,15.0,0.0
3054,47.0,4.0,60.0,14.0,0.0
3055,75.0,1.0,15.0,10.0,0.0
3056,87.0,18.0,15.0,0.0,0.0
3057,73.0,1.0,15.0,10.0,0.0
3058,85.0,10.0,15.0,0.0,0.0
3059,71.0,1.0,15.0,10.0,0.0
3060,76.0,1.0,60.0,1.0,0.0
3061,83.0,19.0,15.0,0.0,0.0
3062,71.0,0.0,60.0,4.0,0.0
3063,80.0,0.0,60.0,1.0,0.0
3064,64.0,0.0,60.0,2.0,0.0
3065,68.0,0.0,60.0,2.0,0.0
3066,71.0,2.0,60.0,5.0,0.0
3067,47.0,2.0,15.0,15.0,0.0
3068,64.0,0.0,60.0,3.0,0.0
3069,59.0,5.0,60.0,3.0,0.0
3070,70.0,1.0,15.0,10.0,0.0
3071,82.0,18.0,15.0,0.0,0.0
3072,73.0,1.0,15.0,10.0,0.0
3073,85.0,10.0,15.0,0.0,0.0
3074,47.0,1.0,15.0,15.0,0.0
3075,71.0,1.0,15.0,10.0,0.0
3076,66.0,0.0,60.0,11.0,0.0
3077,83.0,19.0,15.0,0.0,0.0
3078,59.0,1.0,60.0,11.0,0.0
3079,63.0,2.0,60.0,12.0,0.0
3080,47.0,1.0,60.0,15.0,0.0
3081,59.0,2.0,60.0,13.0,0.0
3082,47.0,4.0,60.0,14.0,0.0
3083,70.0,1.0,15.0,10.0,0.0
3084,82.0,15.0,15.0,0.0,0.0
3085,73.0,1.0,15.0,10.0,0.0
3086,85.0,10.0,15.0,0.0,0.0
3087,47.0,0.0,15.0,15.0,0.0
3088,71.0,1.0,15.0,10.0,0.0
3089,71.0,1.0,60.0,4.0,0.0
3090,87.0,0.0,60.0,1.0,0.0
3091,59.0,3.0,60.0,6.0,0.0
3092,71.0,0.0,60.0,6.0,0.0
3093,83.0,19.0,15.0,0.0,0.0
3094,81.0,0.0,60.0,1.0,0.0
3095,71.0,0.0,60.0,5.0,0.0
3096,75.0,2.0,60.0,2.0,0.0
3097,69.0,0.0,60.0,2.0,0.0
3098,47.0,1.0,60.0,15.0,0.0
3099,59.0,5.0,60.0,3.0,0.0
3100,66.0,0.0,60.0,3.0,0.0
3101,73.0,1.0,15.0,10.0,0.0
3102,85.0,15.0,15.0,0.0,0.0
3103,71.0,1.0,15.0,10.0,0.0
3104,83.0,10.0,15.0,0.0,0.0
3105,69.0,1.0,15.0,10.0,0.0
3106,66.0,1.0,60.0,11.0,0.0
3107,59.0,0.0,60.0,6.0,0.0
3108,71.0,3.0,60.0,6.0,0.0
3109,81.0,19.0,15.0,0.0,0.0
3110,59.0,0.0,60.0,11.0,0.0
3111,63.0,2.0,60.0,12.0,0.0
3112,47.0,1.0,15.0,15.0,0.0
3113,59.0,2.0,60.0,13.0,0.0
3114,47.0,4.0,60.0,14.0,0.0
3115,68.0,1.0,15.0,10.0,0.0
3116,80.0,15.0,15.0,0.0,0.0
3117,66.0,1.0,15.0,10.0,0.0
3118,78.0,10.0,15.0,0.0,0.0
3119,47.0,1.0,15.0,15.0,0.0
3120,64.0,1.0,15.0,10.0,0.0
3121,59.0,0.0,60.0,6.0,0.0
3122,76.0,19.0,15.0,0.0,0.0
3123,71.0,0.0,60.0,4.0,0.0
3124,88.0,0.0,60.0,1.0,0.0
3125,80.0,1.0,60.0,1.0,0.0
3126,71.0,3.0,60.0,6.0,0.0
3127,68.0,2.0,60.0,2.0,0.0
3128,76.0,0.0,60.0,2.0,0.0
3129,71.0,0.0,60.0,5.0,0.0
3130,64.0,5.0,60.0,3.0,0.0
3131,59.0,0.0,60.0,3.0,0.0
3132,68.0,1.0,15.0,10.0,0.0
3133,80.0,15.0,15.0,0.0,0.0
3134,69.0,1.0,15.0,10.0,0.0
3135,81.0,10.0,15.0,0.0,0.0
3136,47.0,1.0,15.0,15.0,0.0
3137,71.0,1.0,15.0,10.0,0.0
3138,68.0,0.0,60.0,11.0,0.0
3139,59.0,1.0,60.0,11.0,0.0
3140,83.0,19.0,15.0,0.0,0.0
3141,59.0,0.0,60.0,6.0,0.0
3142,71.0,3.0,60.0,6.0,0.0
3143,64.0,2.0,60.0,12.0,0.0
3144,47.0,1.0,15.0,15.0,0.0
3145,59.0,0.0,60.0,13.0,0.0
3146,47.0,4.0,60.0,14.0,0.0
3147,73.0,1.0,15.0,10.0,0.0
3148,85.0,15.0,15.0,0.0,0.0
3149,75.0,1.0,15.0,10.0,0.0
3150,87.0,10.0,15.0,0.0,0.0
3151,47.0,2.0,15.0,15.0,0.0
3152,76.0,1.0,15.0,10.0,0.0
3153,59.0,0.0,60.0,6.0,0.0
3154,71.0,3.0,60.0,6.0,0.0
3155,71.0,1.0,60.0,4.0,0.0
3156,76.0,0.0,60.0,1.0,0.0
3157,88.0,19.0,15.0,0.0,0.0
3158,80.0,0.0,60.0,1.0,0.0
3159,68.0,0.0,60.0,2.0,0.0
3160,71.0,2.0,60.0,5.0,0.0
3161,76.0,0.0,60.0,2.0,0.0
3162,64.0,0.0,60.0,3.0,0.0
3163,59.0,5.0,60.0,3.0,0.0
3164,78.0,1.0,15.0,10.0,0.0
3165,90.0,15.0,15.0,0.0,0.0
3166,80.0,1.0,15.0,10.0,0.0
3167,92.0,10.0,15.0,0.0,0.0
3168,47.0,1.0,15.0,15.0,0.0
3169,81.0,1.0,15.0,10.0,0.0
3170,93.0,19.0,15.0,0.0,0.0
3171,59.0,0.0,420.0,6.0,0.0
3172,71.0,0.0,420.0,6.0,0.0
3173,59.0,1.0,60.0,11.0,0.0
3174,69.0,0.0,60.0,11.0,0.0
3175,66.0,2.0,60.0,12.0,0.0
3176,47.0,1.0,60.0,15.0,0.0
3177,59.0,2.0,60.0,13.0,0.0
3178,47.0,4.0,60.0,14.0,0.0
3179,81.0,1.0,15.0,10.0,0.0
3180,93.0,18.0,15.0,0.0,0.0
3181,81.0,1.0,15.0,10.0,0.0
3182,93.0,10.0,15.0,0.0,0.0
3183,47.0,0.0,15.0,15.0,0.0
3184,81.0,1.0,15.0,10.0,0.0
3185,75.0,0.0,60.0,1.0,0.0
3186,81.0,0.0,60.0,1.0,0.0
3187,71.0,1.0,60.0,4.0,0.0
3188,93.0,19.0,15.0,0.0,0.0
3189,66.0,2.0,60.0,2.0,0.0
3190,69.0,0.0,60.0,2.0,0.0
3191,71.0,0.0,60.0,5.0,0.0
3192,63.0,5.0,60.0,3.0,0.0
3193,59.0,0.0,60.0,3.0,0.0
3194,80.0,1.0,15.0,10.0,0.0
3195,92.0,18.0,15.0,0.0,0.0
3196,78.0,1.0,15.0,10.0,0.0
3197,90.0,10.0,15.0,0.0,0.0
3198,47.0,1.0,15.0,15.0,0.0
3199,76.0,1.0,15.0,10.0,0.0
3200,69.0,1.0,60.0,11.0,0.0
3201,59.0,0.0,60.0,11.0,0.0
3202,88.0,19.0,15.0,0.0,0.0
3203,66.0,2.0,60.0,12.0,0.0
3204,59.0,0.0,60.0,13.0,0.0
3205,47.0,1.0,60.0,15.0,0.0
3206,47.0,4.0,60.0,14.0,0.0
3207,75.0,1.0,15.0,10.0,0.0
3208,87.0,18.0,15.0,0.0,0.0
3209,78.0,1.0,15.0,10.0,0.0
3210,90.0,10.0,15.0,0.0,0.0
3211,76.0,1.0,15.0,10.0,0.0
3212,80.0,0.0,60.0,1.0,0.0
3213,76.0,1.0,60.0,1.0,0.0
3214,88.0,19.0,15.0,0.0,0.0
3215,71.0,0.0,60.0,4.0,0.0
3216,64.0,0.0,60.0,2.0,0.0
3217,71.0,2.0,60.0,5.0,0.0
3218,68.0,0.0,60.0,2.0,0.0
3219,47.0,2.0,15.0,15.0,0.0
3220,59.0,0.0,60.0,3.0,0.0
3221,64.0,5.0,60.0,3.0,0.0
3222,76.0,1.0,15.0,10.0,0.0
3223,88.0,18.0,15.0,0.0,0.0
3224,76.0,1.0,15.0,10.0,0.0
3225,88.0,10.0,15.0,0.0,0.0
3226,47.0,1.0,15.0,15.0,0.0
3227,76.0,1.0,15.0,10.0,0.0
3228,88.0,19.0,15.0,0.0,0.0
3229,68.0,1.0,60.0,11.0,0.0
3230,59.0,0.0,60.0,11.0,0.0
3231,64.0,2.0,60.0,12.0,0.0
3232,59.0,0.0,60.0,13.0,0.0
3233,47.0,4.0,60.0,14.0,0.0
3234,75.0,1.0,15.0,10.0,0.0
3235,87.0,18.0,15.0,0.0,0.0
3236,73.0,1.0,15.0,10.0,0.0
3237,85.0,10.0,15.0,0.0,0.0
3238,47.0,1.0,15.0,15.0,0.0
3239,71.0,1.0,15.0,10.0,0.0
3240,83.0,19.0,15.0,0.0,0.0
3241,71.0,0.0,60.0,4.0,0.0
3242,80.0,0.0,60.0,1.0,0.0
3243,76.0,1.0,60.0,1.0,0.0
3244,71.0,0.0,60.0,5.0,0.0
3245,64.0,2.0,60.0,2.0,0.0
3246,68.0,0.0,60.0,2.0,0.0
3247,47.0,2.0,15.0,15.0,0.0
3248,59.0,5.0,60.0,3.0,0.0
3249,64.0,0.0,60.0,3.0,0.0
3250,70.0,1.0,15.0,10.0,0.0
3251,82.0,18.0,15.0,0.0,0.0
3252,73.0,1.0,15.0,10.0,0.0
3253,85.0,10.0,15.0,0.0,0.0
3254,47.0,1.0,15.0,15.0,0.0
3255,71.0,1.0,15.0,10.0,0.0
3256,69.0,1.0,60.0,11.0,0.0
3257,83.0,19.0,15.0,0.0,0.0
3258,59.0,0.0,60.0,11.0,0.0
3259,66.0,2.0,60.0,12.0,0.0
3260,47.0,1.0,60.0,15.0,0.0
3261,59.0,0.0,60.0,13.0,0.0
3262,47.0,0.0,60.0,14.0,0.0
3263,70.0,1.0,15.0,10.0,0.0
3264,82.0,15.0,15.0,0.0,0.0
3265,73.0,1.0,15.0,10.0,0.0
3266,85.0,13.0,15.0,0.0,0.0
3267,47.0,6.0,15.0,15.0,0.0
3268,71.0,1.0,15.0,10.0,0.0
3269,87.0,0.0,60.0,1.0,0.0
3270,69.0,1.0,60.0,11.0,0.0
3271,59.0,0.0,60.0,11.0,0.0
3272,83.0,19.0,15.0,0.0,0.0
3273,81.0,1.0,60.0,1.0,0.0
3274,71.0,0.0,60.0,4.0,0.0
3275,59.0,0.0,60.0,6.0,0.0
3276,71.0,0.0,60.0,6.0,0.0
3277,66.0,2.0,60.0,12.0,0.0
3278,59.0,0.0,60.0,13.0,0.0
3279,47.0,1.0,60.0,15.0,0.0
3280,59.0,0.0,60.0,3.0,0.0
3281,47.0,0.0,60.0,14.0,0.0
3282,73.0,1.0,15.0,10.0,0.0
3283,85.0,15.0,15.0,0.0,0.0
3284,71.0,1.0,15.0,10.0,0.0
3285,83.0,10.0,15.0,0.0,0.0
3286,47.0,1.0,15.0,15.0,0.0
3287,69.0,1.0,15.0,10.0,0.0
3288,59.0,0.0,60.0,6.0,0.0
3289,81.0,19.0,15.0,0.0,0.0
3290,69.0,0.0,60.0,11.0,0.0
3291,59.0,0.0,60.0,11.0,0.0
3292,71.0,1.0,60.0,6.0,0.0
3293,81.0,0.0,60.0,1.0,0.0
3294,87.0,0.0,60.0,1.0,0.0
3295,66.0,2.0,60.0,12.0,0.0
3296,71.0,0.0,15.0,5.0,0.0
3297,69.0,2.0,15.0,2.0,0.0
3298,75.0,0.0,15.0,2.0,0.0
3299,59.0,0.0,60.0,13.0,0.0
3300,66.0,5.0,15.0,3.0,0.0
3301,59.0,0.0,60.0,3.0,0.0
3302,47.0,0.0,60.0,14.0,0.0
3303,68.0,1.0,15.0,10.0,0.0
3304,80.0,15.0,15.0,0.0,0.0
3305,66.0,1.0,15.0,10.0,0.0
3306,78.0,10.0,15.0,0.0,0.0
3307,47.0,1.0,15.0,15.0,0.0
3308,64.0,1.0,60.0,10.0,0.0
3309,88.0,0.0,60.0,1.0,0.0
3310,80.0,1.0,60.0,1.0,0.0
3311,71.0,1.0,15.0,4.0,0.0
3312,59.0,0.0,60.0,11.0,0.0
3313,76.0,0.0,60.0,0.0,0.0
3314,59.0,0.0,60.0,6.0,0.0
3315,71.0,0.0,60.0,6.0,0.0
3316,68.0,0.0,60.0,11.0,0.0
3317,64.0,0.0,60.0,12.0,0.0
3318,76.0,2.0,60.0,2.0,0.0
3319,71.0,0.0,60.0,5.0,0.0
3320,68.0,0.0,60.0,2.0,0.0
3321,52.0,1.0,60.0,15.0,0.0
3322,52.0,0.0,60.0,13.0,0.0
3323,64.0,0.0,60.0,3.0,0.0
3324,52.0,1.0,60.0,3.0,0.0
3325,40.0,114.0,60.0,14.0,0.0
3326,71.0,1.0,60.0,10.0,0.0
3327,83.0,38.0,60.0,0.0,0.0
3328,76.0,1.0,30.0,10.0,0.0
3329,88.0,140.0,30.0,0.0,0.0
3330,59.0,1.0,60.0,10.0,0.0
3331,83.0,1.0,60.0,0.0,0.0
3332,59.0,0.0,60.0,11.0,0.0
3333,71.0,0.0,60.0,1.0,0.0
3334,71.0,2.0,60.0,2.0,0.0
3335,59.0,0.0,60.0,12.0,0.0
3336,59.0,1.0,60.0,13.0,0.0
3337,47.0,1.0,60.0,3.0,0.0
3338,59.0,0.0,60.0,3.0,0.0
3339,47.0,24.0,60.0,14.0,0.0
3340,64.0,1.0,30.0,10.0,0.0
3341,88.0,0.0,30.0,0.0,0.0
3342,76.0,1.0,30.0,1.0,0.0
3343,64.0,0.0,30.0,11.0,0.0
3344,76.0,2.0,30.0,2.0,0.0
3345,64.0,0.0,30.0,12.0,0.0
3346,64.0,1.0,30.0,13.0,0.0
3347,52.0,1.0,30.0,3.0,0.0
3348,64.0,0.0,30.0,3.0,0.0
3349,52.0,54.0,30.0,14.0,0.0
3350,64.0,1.0,30.0,10.0,0.0
3351,76.0,0.0,30.0,0.0,0.0
3352,64.0,0.0,30.0,4.0,0.0
3353,59.0,0.0,30.0,6.0,0.0
3354,59.0,0.0,30.0,11.0,0.0
3355,71.0,0.0,30.0,6.0,0.0
3356,71.0,0.0,30.0,1.0,0.0
3357,68.0,1.0,30.0,1.0,0.0
3358,52.0,0.0,30.0,5.0,0.0
3359,56.0,2.0,30.0,12.0,0.0
3360,68.0,0.0,30.0,2.0,0.0
3361,71.0,0.0,30.0,2.0,0.0
3362,52.0,1.0,30.0,13.0,0.0
3363,52.0,26.0,60.0,15.0,0.0
3364,56.0,1.0,30.0,3.0,0.0
3365,59.0,0.0,30.0,3.0,0.0
3366,40.0,28.0,30.0,14.0,0.0
3367,64.0,1.0,30.0,10.0,0.0
3368,71.0,0.0,30.0,1.0,0.0
3369,68.0,0.0,30.0,1.0,0.0
3370,59.0,0.0,30.0,6.0,0.0
3371,76.0,0.0,30.0,0.0,0.0
3372,71.0,0.0,30.0,6.0,0.0
3373,64.0,0.0,30.0,4.0,0.0
3374,59.0,1.0,30.0,11.0,0.0
3375,68.0,0.0,30.0,2.0,0.0
3376,71.0,0.0,30.0,2.0,0.0
3377,56.0,2.0,30.0,12.0,0.0
3378,52.0,0.0,30.0,5.0,0.0
3379,52.0,1.0,30.0,13.0,0.0
3380,56.0,0.0,30.0,3.0,0.0
3381,59.0,1.0,30.0,3.0,0.0
3382,40.0,28.0,30.0,14.0,0.0
3383,64.0,1.0,60.0,10.0,0.0
3384,64.0,0.0,60.0,4.0,0.0
3385,68.0,1.0,60.0,1.0,0.0
3386,71.0,0.0,60.0,6.0,0.0
3387,59.0,0.0,60.0,6.0,0.0
3388,76.0,0.0,60.0,0.0,0.0
3389,71.0,0.0,60.0,1.0,0.0
3390,59.0,0.0,60.0,11.0,0.0
3391,56.0,0.0,60.0,12.0,0.0
3392,71.0,2.0,60.0,2.0,0.0
3393,68.0,0.0,60.0,2.0,0.0
3394,52.0,0.0,60.0,5.0,0.0
3395,52.0,56.0,15.0,15.0,0.0
3396,52.0,1.0,60.0,13.0,0.0
3397,52.0,0.0,60.0,3.0,0.0
3398,56.0,1.0,60.0,3.0,0.0
3399,40.0,114.0,60.0,14.0,0.0
3400,64.0,60.0,60.0,10.0,0.0
3401,67.0,120.0,60.0,10.0,0.0
3402,76.0,2.0,360.0,1.0,0.0
3403,71.0,60.0,60.0,10.0,0.0
3404,76.0,118.0,60.0,10.0,0.0
3405,67.0,1.0,60.0,10.0,0.0
3406,64.0,59.0,60.0,11.0,0.0
3407,71.0,1.0,60.0,10.0,0.0
3408,67.0,119.0,60.0,11.0,0.0
3409,76.0,59.0,660.0,1.0,0.0
3410,79.0,1.0,360.0,1.0,0.0
3411,76.0,1.0,60.0,10.0,0.0
3412,71.0,59.0,60.0,11.0,0.0
3413,79.0,1.0,60.0,10.0,0.0
3414,76.0,119.0,60.0,11.0,0.0
3415,70.0,1.0,60.0,10.0,0.0
3416,67.0,0.0,60.0,11.0,0.0
3417,64.0,2.0,60.0,12.0,0.0
3418,60.0,2.0,60.0,13.0,0.0
3419,48.0,54.0,60.0,14.0,0.0
3420,76.0,1.0,60.0,10.0,0.0
3421,70.0,1.0,60.0,11.0,0.0
3422,82.0,4.0,300.0,1.0,0.0
3423,67.0,2.0,60.0,12.0,0.0
3424,55.0,2.0,60.0,13.0,0.0
3425,67.0,0.0,300.0,3.0,0.0
3426,64.0,1.0,300.0,3.0,0.0
3427,43.0,114.0,60.0,14.0,0.0
3428,79.0,1.0,60.0,10.0,0.0
3429,76.0,1.0,60.0,11.0,0.0
3430,70.0,2.0,60.0,12.0,0.0
3431,52.0,2.0,60.0,13.0,0.0
3432,40.0,54.0,60.0,14.0,0.0
3433,82.0,1.0,60.0,10.0,0.0
3434,79.0,1.0,60.0,11.0,0.0
3435,76.0,2.0,60.0,12.0,0.0
3436,48.0,2.0,60.0,13.0,0.0
3437,36.0,50.0,60.0,14.0,0.0
3438,64.0,1.0,60.0,10.0,0.0
3439,82.0,1.0,60.0,1.0,0.0
3440,76.0,0.0,60.0,1.0,0.0
3441,88.0,0.0,60.0,0.0,0.0
3442,64.0,0.0,60.0,11.0,0.0
3443,58.0,2.0,60.0,12.0,0.0
3444,48.0,1.0,60.0,13.0,0.0
3445,55.0,1.0,60.0,3.0,0.0
3446,58.0,0.0,60.0,3.0,0.0
3447,36.0,21.0,60.0,14.0,0.0
3448,65.0,1.0,30.0,10.0,0.0
3449,89.0,2.0,30.0,0.0,0.0
3450,81.0,0.0,30.0,1.0,0.0
3451,77.0,0.0,30.0,1.0,0.0
3452,65.0,1.0,30.0,11.0,0.0
3453,57.0,2.0,30.0,12.0,0.0
3454,53.0,0.0,30.0,13.0,0.0
3455,57.0,0.0,30.0,3.0,0.0
3456,53.0,19.0,30.0,3.0,0.0
3457,41.0,2.0,30.0,14.0,0.0
3458,69.0,1.0,15.0,10.0,0.0
3459,60.0,0.0,15.0,10.0,0.0
3460,65.0,1.0,15.0,11.0,0.0
3461,65.0,2.0,15.0,12.0,0.0
3462,53.0,2.0,15.0,13.0,0.0
3463,41.0,27.0,15.0,14.0,0.0
3464,69.0,1.0,30.0,10.0,0.0
3465,60.0,0.0,30.0,10.0,0.0
3466,65.0,1.0,30.0,11.0,0.0
3467,65.0,2.0,30.0,12.0,0.0
3468,53.0,2.0,30.0,13.0,0.0
3469,41.0,21.0,30.0,14.0,0.0
3470,69.0,0.0,15.0,10.0,0.0
3471,60.0,1.0,15.0,10.0,0.0
3472,65.0,1.0,15.0,11.0,0.0
3473,65.0,2.0,15.0,12.0,0.0
3474,53.0,2.0,15.0,13.0,0.0
3475,41.0,27.0,15.0,14.0,0.0
3476,69.0,0.0,30.0,10.0,0.0
3477,60.0,1.0,30.0,10.0,0.0
3478,65.0,1.0,30.0,11.0,0.0
3479,65.0,2.0,30.0,12.0,0.0
3480,53.0,2.0,30.0,13.0,0.0
3481,41.0,21.0,30.0,14.0,0.0
3482,60.0,0.0,15.0,10.0,0.0
3483,69.0,1.0,15.0,10.0,0.0
3484,65.0,1.0,15.0,11.0,0.0
3485,65.0,2.0,15.0,12.0,0.0
3486,53.0,2.0,15.0,13.0,0.0
3487,41.0,27.0,15.0,14.0,0.0
3488,60.0,1.0,30.0,10.0,0.0
3489,69.0,0.0,30.0,10.0,0.0
3490,65.0,1.0,30.0,11.0,0.0
3491,65.0,2.0,30.0,12.0,0.0
3492,53.0,1.0,30.0,13.0,0.0
3493,53.0,1.0,30.0,3.0,0.0
3494,41.0,21.0,30.0,14.0,0.0
3495,69.0,1.0,15.0,10.0,0.0
3496,60.0,0.0,15.0,10.0,0.0
3497,65.0,1.0,15.0,11.0,0.0
3498,65.0,2.0,15.0,12.0,0.0
3499,53.0,1.0,15.0,13.0,0.0
3500,53.0,1.0,15.0,3.0,0.0
3501,41.0,27.0,15.0,14.0,0.0
3502,69.0,1.0,30.0,10.0,0.0
3503,60.0,0.0,30.0,10.0,0.0
3504,65.0,1.0,30.0,11.0,0.0
3505,65.0,2.0,30.0,12.0,0.0
3506,53.0,1.0,30.0,13.0,0.0
3507,53.0,1.0,30.0,3.0,0.0
3508,41.0,21.0,30.0,14.0,0.0
3509,60.0,0.0,15.0,10.0,0.0
3510,69.0,1.0,15.0,10.0,0.0
3511,65.0,1.0,15.0,11.0,0.0
3512,65.0,2.0,15.0,12.0,0.0
3513,53.0,1.0,15.0,13.0,0.0
3514,53.0,1.0,15.0,3.0,0.0
3515,41.0,27.0,15.0,14.0,0.0
3516,60.0,1.0,30.0,10.0,0.0
3517,69.0,0.0,30.0,10.0,0.0
3518,72.0,4.0,60.0,1.0,0.0
3519,65.0,1.0,30.0,11.0,0.0
3520,65.0,2.0,30.0,12.0,0.0
3521,53.0,1.0,30.0,13.0,0.0
3522,60.0,22.0,60.0,3.0,0.0
3523,53.0,1.0,30.0,3.0,0.0
3524,41.0,21.0,30.0,14.0,0.0
3525,69.0,1.0,15.0,10.0,0.0
3526,60.0,0.0,15.0,10.0,0.0
3527,65.0,1.0,15.0,11.0,0.0
3528,65.0,2.0,15.0,12.0,0.0
3529,53.0,1.0,15.0,13.0,0.0
3530,53.0,1.0,15.0,3.0,0.0
3531,41.0,1.0,15.0,14.0,0.0
3532,70.0,1.0,30.0,10.0,0.0
3533,67.0,1.0,30.0,11.0,0.0
3534,82.0,4.0,180.0,1.0,0.0
3535,64.0,2.0,30.0,12.0,0.0
3536,52.0,1.0,30.0,13.0,0.0
3537,70.0,22.0,180.0,3.0,0.0
3538,52.0,1.0,30.0,3.0,0.0
3539,40.0,21.0,30.0,14.0,0.0
3540,70.0,1.0,15.0,10.0,0.0
3541,67.0,1.0,15.0,11.0,0.0
3542,64.0,2.0,15.0,12.0,0.0
3543,52.0,1.0,15.0,13.0,0.0
3544,52.0,1.0,15.0,3.0,0.0
3545,40.0,27.0,15.0,14.0,0.0
3546,70.0,1.0,30.0,10.0,0.0
3547,67.0,1.0,30.0,11.0,0.0
3548,64.0,2.0,30.0,12.0,0.0
3549,52.0,1.0,30.0,13.0,0.0
3550,52.0,1.0,30.0,3.0,0.0
3551,40.0,21.0,30.0,14.0,0.0
3552,70.0,1.0,15.0,10.0,0.0
3553,67.0,1.0,15.0,11.0,0.0
3554,64.0,2.0,15.0,12.0,0.0
3555,52.0,1.0,15.0,13.0,0.0
3556,52.0,1.0,15.0,3.0,0.0
3557,40.0,27.0,15.0,14.0,0.0
3558,70.0,1.0,30.0,10.0,0.0
3559,67.0,1.0,30.0,11.0,0.0
3560,84.0,0.0,60.0,0.0,0.0
3561,64.0,2.0,30.0,12.0,0.0
3562,52.0,1.0,30.0,13.0,0.0
3563,52.0,1.0,30.0,3.0,0.0
3564,40.0,21.0,30.0,14.0,0.0
3565,70.0,1.0,15.0,10.0,0.0
3566,67.0,1.0,15.0,11.0,0.0
3567,64.0,2.0,15.0,12.0,0.0
3568,52.0,1.0,15.0,13.0,0.0
3569,52.0,1.0,15.0,3.0,0.0
3570,40.0,1.0,15.0,14.0,0.0
3571,70.0,1.0,30.0,10.0,0.0
3572,94.0,0.0,180.0,0.0,0.0
3573,67.0,1.0,30.0,11.0,0.0
3574,64.0,2.0,30.0,12.0,0.0
3575,52.0,1.0,30.0,13.0,0.0
3576,52.0,1.0,30.0,3.0,0.0
3577,40.0,21.0,30.0,14.0,0.0
3578,70.0,1.0,15.0,10.0,0.0
3579,67.0,1.0,15.0,11.0,0.0
3580,64.0,2.0,15.0,12.0,0.0
3581,52.0,1.0,15.0,13.0,0.0
3582,52.0,1.0,15.0,3.0,0.0
3583,40.0,27.0,15.0,14.0,0.0
3584,70.0,1.0,30.0,10.0,0.0
3585,67.0,1.0,30.0,11.0,0.0
3586,64.0,2.0,30.0,12.0,0.0
3587,52.0,1.0,30.0,13.0,0.0
3588,52.0,1.0,30.0,3.0,0.0
3589,40.0,21.0,30.0,14.0,0.0
3590,70.0,1.0,15.0,10.0,0.0
3591,67.0,1.0,15.0,11.0,0.0
3592,64.0,2.0,15.0,12.0,0.0
3593,52.0,1.0,15.0,13.0,0.0
3594,52.0,1.0,15.0,3.0,0.0
3595,40.0,27.0,15.0,14.0,0.0
3596,70.0,1.0,30.0,10.0,0.0
3597,67.0,1.0,30.0,11.0,0.0
3598,72.0,4.0,60.0,1.0,0.0
3599,64.0,2.0,30.0,12.0,0.0
3600,52.0,1.0,30.0,13.0,0.0
3601,60.0,22.0,60.0,3.0,0.0
3602,52.0,1.0,30.0,3.0,0.0
3603,40.0,21.0,30.0,14.0,0.0
3604,70.0,1.0,15.0,10.0,0.0
3605,67.0,1.0,15.0,11.0,0.0
3606,64.0,2.0,15.0,12.0,0.0
3607,52.0,1.0,15.0,13.0,0.0
3608,52.0,1.0,15.0,3.0,0.0
3609,40.0,1.0,15.0,14.0,0.0
3610,60.0,1.0,30.0,10.0,0.0
3611,69.0,0.0,30.0,10.0,0.0
3612,81.0,1.0,180.0,1.0,0.0
3613,65.0,1.0,30.0,11.0,0.0
3614,69.0,0.0,180.0,4.0,0.0
3615,65.0,2.0,30.0,12.0,0.0
3616,57.0,3.0,180.0,5.0,0.0
3617,53.0,1.0,30.0,13.0,0.0
3618,53.0,1.0,30.0,3.0,0.0
3619,69.0,22.0,180.0,3.0,0.0
3620,41.0,21.0,30.0,14.0,0.0
3621,60.0,0.0,15.0,10.0,0.0
3622,69.0,1.0,15.0,10.0,0.0
3623,65.0,1.0,15.0,11.0,0.0
3624,65.0,2.0,15.0,12.0,0.0
3625,53.0,1.0,15.0,13.0,0.0
3626,53.0,1.0,15.0,3.0,0.0
3627,41.0,27.0,15.0,14.0,0.0
3628,60.0,0.0,30.0,10.0,0.0
3629,69.0,1.0,30.0,10.0,0.0
3630,65.0,1.0,30.0,11.0,0.0
3631,65.0,2.0,30.0,12.0,0.0
3632,53.0,1.0,30.0,13.0,0.0
3633,53.0,1.0,30.0,3.0,0.0
3634,41.0,21.0,30.0,14.0,0.0
3635,69.0,0.0,15.0,10.0,0.0
3636,60.0,1.0,15.0,10.0,0.0
3637,65.0,1.0,15.0,11.0,0.0
3638,65.0,2.0,15.0,12.0,0.0
3639,53.0,1.0,15.0,13.0,0.0
3640,53.0,1.0,15.0,3.0,0.0
3641,41.0,27.0,15.0,14.0,0.0
3642,60.0,0.0,30.0,10.0,0.0
3643,69.0,1.0,30.0,10.0,0.0
3644,65.0,1.0,30.0,11.0,0.0
3645,84.0,0.0,60.0,0.0,0.0
3646,65.0,2.0,30.0,12.0,0.0
3647,53.0,1.0,30.0,13.0,0.0
3648,53.0,1.0,30.0,3.0,0.0
3649,41.0,21.0,30.0,14.0,0.0
3650,60.0,0.0,15.0,10.0,0.0
3651,69.0,1.0,15.0,10.0,0.0
3652,65.0,1.0,15.0,11.0,0.0
3653,65.0,2.0,15.0,12.0,0.0
3654,53.0,1.0,15.0,13.0,0.0
3655,53.0,1.0,15.0,3.0,0.0
3656,41.0,1.0,15.0,14.0,0.0
3657,60.0,1.0,30.0,10.0,0.0
3658,69.0,0.0,30.0,10.0,0.0
3659,93.0,26.0,120.0,0.0,0.0
3660,65.0,1.0,30.0,11.0,0.0
3661,65.0,2.0,30.0,12.0,0.0
3662,53.0,1.0,30.0,13.0,0.0
3663,53.0,1.0,30.0,3.0,0.0
3664,41.0,21.0,30.0,14.0,0.0
3665,60.0,0.0,15.0,10.0,0.0
3666,69.0,1.0,15.0,10.0,0.0
3667,65.0,1.0,15.0,11.0,0.0
3668,65.0,2.0,15.0,12.0,0.0
3669,53.0,1.0,15.0,13.0,0.0
3670,53.0,1.0,15.0,3.0,0.0
3671,41.0,27.0,15.0,14.0,0.0
3672,69.0,1.0,30.0,10.0,0.0
3673,60.0,0.0,30.0,10.0,0.0
3674,65.0,1.0,30.0,11.0,0.0
3675,65.0,2.0,30.0,12.0,0.0
3676,53.0,1.0,30.0,13.0,0.0
3677,53.0,1.0,30.0,3.0,0.0
3678,41.0,21.0,30.0,14.0,0.0
3679,69.0,1.0,15.0,10.0,0.0
3680,60.0,0.0,15.0,10.0,0.0
3681,65.0,1.0,15.0,11.0,0.0
3682,65.0,2.0,15.0,12.0,0.0
3683,53.0,1.0,15.0,13.0,0.0
3684,53.0,1.0,15.0,3.0,0.0
3685,41.0,1.0,15.0,14.0,0.0
3686,60.0,0.0,30.0,10.0,0.0
3687,69.0,1.0,30.0,10.0,0.0
3688,69.0,4.0,60.0,1.0,0.0
3689,65.0,1.0,30.0,11.0,0.0
3690,65.0,2.0,30.0,12.0,0.0
3691,53.0,1.0,30.0,13.0,0.0
3692,53.0,1.0,30.0,3.0,0.0
3693,57.0,22.0,60.0,3.0,0.0
3694,41.0,21.0,30.0,14.0,0.0
3695,60.0,0.0,15.0,10.0,0.0
3696,69.0,1.0,15.0,10.0,0.0
3697,65.0,1.0,15.0,11.0,0.0
3698,65.0,2.0,15.0,12.0,0.0
3699,53.0,1.0,15.0,13.0,0.0
3700,53.0,1.0,15.0,3.0,0.0
3701,41.0,1.0,15.0,14.0,0.0
3702,61.0,0.0,30.0,10.0,0.0
3703,69.0,1.0,30.0,10.0,0.0
3704,67.0,1.0,30.0,11.0,0.0
3705,69.0,1.0,180.0,4.0,0.0
3706,79.0,0.0,180.0,1.0,0.0
3707,64.0,2.0,30.0,12.0,0.0
3708,57.0,3.0,180.0,5.0,0.0
3709,52.0,1.0,30.0,13.0,0.0
3710,52.0,1.0,30.0,3.0,0.0
3711,67.0,22.0,180.0,3.0,0.0
3712,40.0,21.0,30.0,14.0,0.0
3713,69.0,1.0,15.0,10.0,0.0
3714,61.0,0.0,15.0,10.0,0.0
3715,67.0,1.0,15.0,11.0,0.0
3716,64.0,2.0,15.0,12.0,0.0
3717,52.0,1.0,15.0,13.0,0.0
3718,52.0,1.0,15.0,3.0,0.0
3719,40.0,27.0,15.0,14.0,0.0
3720,61.0,0.0,30.0,10.0,0.0
3721,69.0,1.0,30.0,10.0,0.0
3722,67.0,1.0,30.0,11.0,0.0
3723,64.0,2.0,30.0,12.0,0.0
3724,52.0,1.0,30.0,13.0,0.0
3725,52.0,1.0,30.0,3.0,0.0
3726,40.0,21.0,30.0,14.0,0.0
3727,61.0,1.0,15.0,10.0,0.0
3728,69.0,0.0,15.0,10.0,0.0
3729,67.0,1.0,15.0,11.0,0.0
3730,64.0,2.0,15.0,12.0,0.0
3731,52.0,1.0,15.0,13.0,0.0
3732,52.0,1.0,15.0,3.0,0.0
3733,40.0,27.0,15.0,14.0,0.0
3734,69.0,1.0,30.0,10.0,0.0
3735,61.0,0.0,30.0,10.0,0.0
3736,67.0,1.0,30.0,11.0,0.0
3737,81.0,0.0,60.0,0.0,0.0
3738,64.0,2.0,30.0,12.0,0.0
3739,52.0,1.0,30.0,13.0,0.0
3740,52.0,1.0,30.0,3.0,0.0
3741,40.0,21.0,30.0,14.0,0.0
3742,61.0,1.0,15.0,10.0,0.0
3743,69.0,0.0,15.0,10.0,0.0
3744,67.0,1.0,15.0,11.0,0.0
3745,64.0,2.0,15.0,12.0,0.0
3746,52.0,1.0,15.0,13.0,0.0
3747,52.0,1.0,15.0,3.0,0.0
3748,40.0,1.0,15.0,14.0,0.0
3749,69.0,0.0,30.0,10.0,0.0
3750,61.0,1.0,30.0,10.0,0.0
3751,91.0,26.0,120.0,0.0,0.0
3752,67.0,1.0,30.0,11.0,0.0
3753,64.0,2.0,30.0,12.0,0.0
3754,52.0,2.0,30.0,13.0,0.0
3755,40.0,21.0,30.0,14.0,0.0
3756,69.0,1.0,15.0,10.0,0.0
3757,61.0,0.0,15.0,10.0,0.0
3758,67.0,1.0,15.0,11.0,0.0
3759,64.0,2.0,15.0,12.0,0.0
3760,52.0,2.0,15.0,13.0,0.0
3761,40.0,27.0,15.0,14.0,0.0
3762,61.0,0.0,30.0,10.0,0.0
3763,69.0,1.0,30.0,10.0,0.0
3764,67.0,1.0,30.0,11.0,0.0
3765,64.0,2.0,30.0,12.0,0.0
3766,52.0,2.0,30.0,13.0,0.0
3767,40.0,21.0,30.0,14.0,0.0
3768,69.0,1.0,15.0,10.0,0.0
3769,61.0,0.0,15.0,10.0,0.0
3770,67.0,1.0,15.0,11.0,0.0
3771,64.0,2.0,15.0,12.0,0.0
3772,52.0,2.0,15.0,13.0,0.0
3773,40.0,1.0,15.0,14.0,0.0
3774,69.0,1.0,30.0,10.0,0.0
3775,61.0,0.0,30.0,10.0,0.0
3776,81.0,4.0,60.0,0.0,0.0
3777,67.0,1.0,30.0,11.0,0.0
3778,69.0,0.0,60.0,1.0,0.0
3779,64.0,2.0,30.0,12.0,0.0
3780,52.0,2.0,30.0,13.0,0.0
3781,57.0,22.0,60.0,3.0,0.0
3782,40.0,21.0,30.0,14.0,0.0
3783,61.0,0.0,15.0,10.0,0.0
3784,69.0,1.0,15.0,10.0,0.0
3785,67.0,1.0,15.0,11.0,0.0
3786,64.0,2.0,15.0,12.0,0.0
3787,52.0,2.0,15.0,13.0,0.0
3788,40.0,1.0,15.0,14.0,0.0
3789,62.0,1.0,30.0,10.0,0.0
3790,69.0,0.0,30.0,10.0,0.0
3791,69.0,0.0,30.0,4.0,0.0
3792,89.0,1.0,30.0,0.0,0.0
3793,77.0,0.0,30.0,1.0,0.0
3794,65.0,1.0,30.0,11.0,0.0
3795,62.0,2.0,30.0,12.0,0.0
3796,57.0,1.0,30.0,5.0,0.0
3797,50.0,0.0,30.0,13.0,0.0
3798,62.0,19.0,30.0,3.0,0.0
3799,65.0,0.0,30.0,3.0,0.0
3800,38.0,2.0,30.0,14.0,0.0
3801,62.0,1.0,15.0,10.0,0.0
3802,69.0,0.0,15.0,10.0,0.0
3803,65.0,1.0,15.0,11.0,0.0
3804,62.0,2.0,15.0,12.0,0.0
3805,50.0,2.0,15.0,13.0,0.0
3806,38.0,27.0,15.0,14.0,0.0
3807,62.0,0.0,30.0,10.0,0.0
3808,69.0,1.0,30.0,10.0,0.0
3809,65.0,1.0,30.0,11.0,0.0
3810,69.0,1.0,180.0,4.0,0.0
3811,62.0,2.0,30.0,12.0,0.0
3812,81.0,0.0,180.0,2.0,0.0
3813,69.0,0.0,180.0,2.0,0.0
3814,50.0,2.0,30.0,13.0,0.0
3815,38.0,21.0,30.0,14.0,0.0
3816,69.0,0.0,15.0,10.0,0.0
3817,62.0,1.0,15.0,10.0,0.0
3818,65.0,1.0,15.0,11.0,0.0
3819,62.0,2.0,15.0,12.0,0.0
3820,50.0,2.0,15.0,13.0,0.0
3821,38.0,27.0,15.0,14.0,0.0
3822,69.0,0.0,30.0,10.0,0.0
3823,62.0,1.0,30.0,10.0,0.0
3824,65.0,1.0,30.0,11.0,0.0
3825,77.0,4.0,60.0,1.0,0.0
3826,62.0,2.0,30.0,12.0,0.0
3827,50.0,2.0,30.0,13.0,0.0
3828,65.0,22.0,60.0,3.0,0.0
3829,38.0,21.0,30.0,14.0,0.0
3830,62.0,0.0,15.0,10.0,0.0
3831,69.0,1.0,15.0,10.0,0.0
3832,65.0,1.0,15.0,11.0,0.0
3833,62.0,2.0,15.0,12.0,0.0
3834,50.0,2.0,15.0,13.0,0.0
3835,38.0,1.0,15.0,14.0,0.0
3836,69.0,1.0,30.0,10.0,0.0
3837,75.0,0.0,60.0,1.0,0.0
3838,63.0,1.0,30.0,11.0,0.0
3839,57.0,2.0,30.0,12.0,0.0
3840,53.0,2.0,30.0,13.0,0.0
3841,63.0,0.0,60.0,3.0,0.0
3842,41.0,21.0,30.0,14.0,0.0
3843,69.0,1.0,15.0,10.0,0.0
3844,63.0,1.0,15.0,11.0,0.0
3845,57.0,2.0,15.0,12.0,0.0
3846,53.0,2.0,15.0,13.0,0.0
3847,41.0,1.0,15.0,14.0,0.0
3848,69.0,1.0,30.0,10.0,0.0
3849,81.0,0.0,15.0,1.0,0.0
3850,93.0,0.0,15.0,0.0,0.0
3851,63.0,1.0,30.0,11.0,0.0
3852,69.0,1.0,120.0,4.0,0.0
3853,57.0,2.0,30.0,12.0,0.0
3854,81.0,0.0,120.0,2.0,0.0
3855,69.0,0.0,120.0,2.0,0.0
3856,57.0,3.0,15.0,5.0,0.0
3857,53.0,2.0,30.0,13.0,0.0
3858,69.0,22.0,15.0,3.0,0.0
3859,41.0,21.0,30.0,14.0,0.0
3860,69.0,1.0,15.0,10.0,0.0
3861,63.0,1.0,15.0,11.0,0.0
3862,57.0,2.0,15.0,12.0,0.0
3863,53.0,2.0,15.0,13.0,0.0
3864,41.0,27.0,15.0,14.0,0.0
3865,69.0,1.0,30.0,10.0,0.0
3866,87.0,0.0,60.0,1.0,0.0
3867,63.0,1.0,30.0,11.0,0.0
3868,57.0,2.0,30.0,12.0,0.0
3869,53.0,2.0,30.0,13.0,0.0
3870,63.0,0.0,60.0,3.0,0.0
3871,41.0,21.0,30.0,14.0,0.0
3872,69.0,1.0,15.0,10.0,0.0
3873,63.0,1.0,15.0,11.0,0.0
3874,57.0,2.0,15.0,12.0,0.0
3875,53.0,2.0,15.0,13.0,0.0
3876,41.0,1.0,15.0,14.0,0.0
3877,68.0,1.0,60.0,10.0,0.0
3878,88.0,0.0,30.0,1.0,0.0
3879,92.0,0.0,30.0,0.0,0.0
3880,80.0,0.0,30.0,1.0,0.0
3881,64.0,0.0,30.0,4.0,0.0
3882,64.0,1.0,60.0,11.0,0.0
3883,52.0,0.0,30.0,5.0,0.0
3884,68.0,26.0,30.0,2.0,0.0
3885,80.0,0.0,30.0,2.0,0.0
3886,59.0,2.0,60.0,12.0,0.0
3887,52.0,1.0,60.0,13.0,0.0
3888,52.0,1.0,30.0,15.0,0.0
3889,64.0,1.0,60.0,3.0,0.0
3890,68.0,0.0,60.0,3.0,0.0
3891,40.0,25.0,60.0,14.0,0.0
3892,52.0,2.0,15.0,15.0,0.0
3893,64.0,1.0,30.0,4.0,0.0
3894,52.0,26.0,30.0,5.0,0.0
3895,52.0,0.0,30.0,15.0,0.0
3896,52.0,33.0,15.0,15.0,0.0
3897,64.0,1.0,30.0,4.0,0.0
3898,71.0,0.0,60.0,2.0,0.0
3899,52.0,26.0,30.0,5.0,0.0
3900,68.0,3.0,60.0,2.0,0.0
3901,52.0,0.0,30.0,15.0,0.0
3902,56.0,26.0,60.0,3.0,0.0
3903,59.0,0.0,60.0,3.0,0.0
3904,52.0,4.0,15.0,15.0,0.0
3905,64.0,0.0,30.0,4.0,0.0
3906,52.0,3.0,30.0,5.0,0.0
3907,72.0,0.0,30.0,2.0,0.0
3908,69.0,0.0,30.0,2.0,0.0
3909,52.0,1.0,30.0,15.0,0.0
3910,57.0,0.0,30.0,3.0,0.0
3911,60.0,23.0,30.0,3.0,0.0
3912,52.0,33.0,15.0,15.0,0.0
3913,64.0,0.0,30.0,4.0,0.0
3914,72.0,0.0,30.0,2.0,0.0
3915,69.0,0.0,30.0,2.0,0.0
3916,52.0,3.0,30.0,5.0,0.0
3917,52.0,1.0,30.0,15.0,0.0
3918,60.0,0.0,30.0,3.0,0.0
3919,57.0,23.0,30.0,3.0,0.0
3920,52.0,33.0,15.0,15.0,0.0
3921,87.0,1.0,60.0,10.0,0.0
3922,78.0,0.0,60.0,1.0,0.0
3923,87.0,1.0,60.0,0.0,0.0
3924,84.0,0.0,60.0,1.0,0.0
3925,69.0,0.0,60.0,4.0,0.0
3926,76.0,0.0,90.0,6.0,0.0
3927,64.0,0.0,90.0,6.0,0.0
3928,75.0,0.0,60.0,11.0,0.0
3929,84.0,0.0,60.0,11.0,0.0
3930,69.0,0.0,60.0,12.0,0.0
3931,75.0,2.0,60.0,2.0,0.0
3932,57.0,0.0,60.0,5.0,0.0
3933,66.0,0.0,60.0,2.0,0.0
3934,52.0,27.0,30.0,15.0,0.0
3935,57.0,1.0,60.0,13.0,0.0
3936,57.0,0.0,60.0,3.0,0.0
3937,69.0,1.0,60.0,3.0,0.0
3938,45.0,24.0,60.0,14.0,0.0
3939,52.0,2.0,15.0,15.0,0.0
3940,88.0,1.0,30.0,10.0,0.0
3941,83.0,0.0,30.0,11.0,0.0
3942,76.0,0.0,30.0,11.0,0.0
3943,80.0,0.0,30.0,1.0,0.0
3944,83.0,0.0,30.0,1.0,0.0
3945,64.0,0.0,30.0,4.0,0.0
3946,88.0,0.0,30.0,0.0,0.0
3947,68.0,0.0,30.0,12.0,0.0
3948,76.0,0.0,30.0,2.0,0.0
3949,68.0,0.0,30.0,2.0,0.0
3950,52.0,2.0,30.0,5.0,0.0
3951,52.0,1.0,30.0,13.0,0.0
3952,52.0,1.0,30.0,15.0,0.0
3953,52.0,1.0,30.0,3.0,0.0
3954,64.0,0.0,30.0,3.0,0.0
3955,40.0,22.0,30.0,14.0,0.0
3956,52.0,32.0,15.0,15.0,0.0
3957,88.0,1.0,30.0,10.0,0.0
3958,64.0,0.0,30.0,6.0,0.0
3959,76.0,0.0,30.0,6.0,0.0
3960,88.0,0.0,30.0,0.0,0.0
3961,80.0,0.0,30.0,1.0,0.0
3962,76.0,1.0,30.0,11.0,0.0
3963,83.0,0.0,30.0,1.0,0.0
3964,83.0,0.0,30.0,11.0,0.0
3965,64.0,0.0,30.0,4.0,0.0
3966,68.0,0.0,30.0,2.0,0.0
3967,76.0,0.0,30.0,2.0,0.0
3968,68.0,0.0,30.0,12.0,0.0
3969,52.0,2.0,30.0,5.0,0.0
3970,52.0,1.0,30.0,13.0,0.0
3971,52.0,0.0,30.0,15.0,0.0
3972,64.0,0.0,30.0,3.0,0.0
3973,52.0,1.0,30.0,3.0,0.0
3974,40.0,22.0,30.0,14.0,0.0
3975,52.0,33.0,15.0,15.0,0.0
3976,64.0,0.0,30.0,4.0,0.0
3977,68.0,3.0,60.0,2.0,0.0
3978,71.0,0.0,60.0,2.0,0.0
3979,52.0,26.0,30.0,5.0,0.0
3980,52.0,1.0,30.0,15.0,0.0
3981,59.0,0.0,60.0,3.0,0.0
3982,56.0,26.0,60.0,3.0,0.0
3983,52.0,4.0,15.0,15.0,0.0
3984,64.0,1.0,30.0,4.0,0.0
3985,72.0,0.0,30.0,2.0,0.0
3986,52.0,3.0,30.0,5.0,0.0
3987,69.0,0.0,30.0,2.0,0.0
3988,52.0,0.0,30.0,15.0,0.0
3989,57.0,23.0,30.0,3.0,0.0
3990,60.0,0.0,30.0,3.0,0.0
3991,52.0,33.0,15.0,15.0,0.0
3992,64.0,0.0,30.0,4.0,0.0
3993,52.0,3.0,30.0,5.0,0.0
3994,69.0,0.0,30.0,2.0,0.0
3995,72.0,0.0,30.0,2.0,0.0
3996,52.0,1.0,30.0,15.0,0.0
3997,60.0,0.0,30.0,3.0,0.0
3998,57.0,23.0,30.0,3.0,0.0
3999,52.0,33.0,15.0,15.0,0.0
4000,87.0,1.0,60.0,10.0,0.0
4001,69.0,0.0,60.0,4.0,0.0
4002,84.0,0.0,60.0,1.0,0.0
4003,64.0,0.0,90.0,6.0,0.0
4004,76.0,1.0,90.0,6.0,0.0
4005,87.0,0.0,60.0,0.0,0.0
4006,78.0,0.0,60.0,1.0,0.0
4007,84.0,1.0,60.0,11.0,0.0
4008,75.0,0.0,60.0,11.0,0.0
4009,69.0,0.0,60.0,12.0,0.0
4010,75.0,0.0,60.0,2.0,0.0
4011,66.0,0.0,60.0,2.0,0.0
4012,57.0,2.0,60.0,5.0,0.0
4013,52.0,27.0,30.0,15.0,0.0
4014,57.0,1.0,60.0,13.0,0.0
4015,57.0,1.0,60.0,3.0,0.0
4016,69.0,0.0,60.0,3.0,0.0
4017,45.0,24.0,60.0,14.0,0.0
4018,52.0,2.0,15.0,15.0,0.0
4019,88.0,1.0,30.0,10.0,0.0
4020,83.0,0.0,30.0,1.0,0.0
4021,80.0,0.0,30.0,1.0,0.0
4022,83.0,0.0,30.0,11.0,0.0
4023,88.0,0.0,30.0,0.0,0.0
4024,76.0,0.0,30.0,11.0,0.0
4025,64.0,0.0,30.0,4.0,0.0
4026,52.0,2.0,30.0,5.0,0.0
4027,68.0,0.0,30.0,2.0,0.0
4028,76.0,0.0,30.0,2.0,0.0
4029,68.0,0.0,30.0,12.0,0.0
4030,52.0,0.0,30.0,15.0,0.0
4031,52.0,1.0,30.0,13.0,0.0
4032,52.0,0.0,30.0,3.0,0.0
4033,64.0,1.0,30.0,3.0,0.0
4034,40.0,22.0,30.0,14.0,0.0
4035,52.0,33.0,15.0,15.0,0.0
4036,85.0,1.0,60.0,10.0,0.0
4037,80.0,1.0,60.0,11.0,0.0
4038,76.0,29.0,60.0,12.0,0.0
4039,52.0,27.0,30.0,15.0,0.0
4040,52.0,2.0,15.0,15.0,0.0
4041,86.0,1.0,30.0,10.0,0.0
4042,81.0,1.0,30.0,11.0,0.0
4043,78.0,18.0,30.0,12.0,0.0
4044,52.0,7.0,30.0,15.0,0.0
4045,52.0,33.0,15.0,15.0,0.0
4046,93.0,0.0,60.0,0.0,0.0
4047,84.0,1.0,60.0,1.0,0.0
4048,52.0,0.0,60.0,5.0,0.0
4049,78.0,3.0,60.0,2.0,0.0
4050,75.0,0.0,60.0,2.0,0.0
4051,52.0,27.0,30.0,15.0,0.0
4052,66.0,0.0,60.0,3.0,0.0
4053,63.0,26.0,60.0,3.0,0.0
4054,52.0,3.0,15.0,15.0,0.0
4055,64.0,0.0,15.0,4.0,0.0
4056,85.0,0.0,30.0,1.0,0.0
4057,92.0,0.0,30.0,0.0,0.0
4058,76.0,3.0,30.0,2.0,0.0
4059,52.0,0.0,30.0,5.0,0.0
4060,80.0,0.0,30.0,2.0,0.0
4061,52.0,13.0,30.0,15.0,0.0
4062,64.0,2.0,60.0,13.0,0.0
4063,68.0,10.0,30.0,3.0,0.0
4064,64.0,0.0,30.0,3.0,0.0
4065,52.0,30.0,60.0,14.0,0.0
4066,52.0,1.0,15.0,15.0,0.0
4067,82.0,1.0,60.0,10.0,0.0
4068,76.0,0.0,60.0,11.0,0.0
4069,73.0,28.0,60.0,12.0,0.0
4070,52.0,27.0,30.0,15.0,0.0
4071,64.0,1.0,60.0,13.0,0.0
4072,52.0,1.0,60.0,14.0,0.0
4073,52.0,1.0,15.0,15.0,0.0
4074,83.0,1.0,30.0,10.0,0.0
4075,78.0,0.0,30.0,11.0,0.0
4076,74.0,26.0,30.0,12.0,0.0
4077,52.0,1.0,30.0,15.0,0.0
4078,52.0,2.0,60.0,13.0,0.0
4079,40.0,30.0,60.0,14.0,0.0
4080,52.0,1.0,15.0,15.0,0.0
4081,64.0,0.0,60.0,4.0,0.0
4082,80.0,1.0,60.0,1.0,0.0
4083,89.0,0.0,60.0,0.0,0.0
4084,71.0,0.0,60.0,2.0,0.0
4085,74.0,3.0,60.0,2.0,0.0
4086,52.0,0.0,60.0,5.0,0.0
4087,52.0,27.0,30.0,15.0,0.0
4088,62.0,26.0,60.0,3.0,0.0
4089,59.0,0.0,60.0,3.0,0.0
4090,52.0,3.0,15.0,15.0,0.0
4091,88.0,0.0,30.0,0.0,0.0
4092,64.0,0.0,30.0,4.0,0.0
4093,81.0,1.0,30.0,1.0,0.0
4094,73.0,0.0,30.0,2.0,0.0
4095,52.0,0.0,30.0,5.0,0.0
4096,76.0,3.0,30.0,2.0,0.0
4097,52.0,13.0,30.0,15.0,0.0
4098,61.0,10.0,30.0,3.0,0.0
4099,64.0,0.0,30.0,3.0,0.0
4100,52.0,33.0,15.0,15.0,0.0
4101,79.0,1.0,60.0,10.0,0.0
4102,73.0,1.0,60.0,11.0,0.0
4103,70.0,29.0,60.0,12.0,0.0
4104,52.0,27.0,30.0,15.0,0.0
4105,52.0,2.0,15.0,15.0,0.0
4106,80.0,1.0,30.0,10.0,0.0
4107,74.0,1.0,30.0,11.0,0.0
4108,71.0,18.0,30.0,12.0,0.0
4109,64.0,2.0,60.0,13.0,0.0
4110,52.0,7.0,30.0,15.0,0.0
4111,52.0,30.0,60.0,14.0,0.0
4112,52.0,1.0,15.0,15.0,0.0
4113,86.0,0.0,60.0,0.0,0.0
4114,77.0,1.0,60.0,1.0,0.0
4115,64.0,1.0,60.0,4.0,0.0
4116,52.0,6.0,60.0,5.0,0.0
4117,71.0,0.0,60.0,2.0,0.0
4118,68.0,3.0,60.0,2.0,0.0
4119,64.0,2.0,60.0,13.0,0.0
4120,52.0,20.0,30.0,15.0,0.0
4121,56.0,4.0,60.0,3.0,0.0
4122,59.0,0.0,60.0,3.0,0.0
4123,52.0,0.0,60.0,14.0,0.0
4124,52.0,1.0,15.0,15.0,0.0
4125,78.0,0.0,30.0,1.0,0.0
4126,85.0,1.0,30.0,0.0,0.0
4127,64.0,1.0,30.0,4.0,0.0
4128,73.0,0.0,30.0,2.0,0.0
4129,52.0,2.0,30.0,5.0,0.0
4130,69.0,2.0,30.0,2.0,0.0
4131,52.0,7.0,15.0,15.0,0.0
4132,52.0,2.0,60.0,13.0,0.0
4133,57.0,0.0,30.0,3.0,0.0
4134,61.0,8.0,30.0,3.0,0.0
4135,40.0,4.0,60.0,14.0,0.0
4136,52.0,9.0,15.0,15.0,0.0
4137,52.0,7.0,15.0,15.0,0.0
4138,52.0,7.0,15.0,15.0,0.0
4139,52.0,2.0,15.0,15.0,0.0
4140,52.0,5.0,15.0,15.0,0.0
4141,75.0,1.0,60.0,10.0,0.0
4142,78.0,0.0,60.0,1.0,0.0
4143,64.0,1.0,60.0,4.0,0.0
4144,69.0,0.0,60.0,11.0,0.0
4145,81.0,0.0,60.0,1.0,0.0
4146,87.0,1.0,60.0,0.0,0.0
4147,78.0,3.0,60.0,2.0,0.0
4148,75.0,0.0,60.0,2.0,0.0
4149,52.0,1.0,60.0,5.0,0.0
4150,66.0,0.0,60.0,12.0,0.0
4151,69.0,0.0,60.0,3.0,0.0
4152,72.0,5.0,60.0,3.0,0.0
4153,52.0,6.0,15.0,15.0,0.0
4154,52.0,4.0,15.0,15.0,0.0
4155,52.0,6.0,15.0,15.0,0.0
4156,52.0,7.0,15.0,15.0,0.0
4157,52.0,5.0,15.0,15.0,0.0
4158,52.0,0.0,15.0,15.0,0.0
4159,76.0,1.0,30.0,10.0,0.0
4160,88.0,1.0,30.0,0.0,0.0
4161,71.0,1.0,30.0,11.0,0.0
4162,76.0,0.0,30.0,1.0,0.0
4163,80.0,0.0,30.0,1.0,0.0
4164,64.0,0.0,30.0,4.0,0.0
4165,76.0,3.0,30.0,2.0,0.0
4166,68.0,1.0,30.0,12.0,0.0
4167,80.0,0.0,30.0,2.0,0.0
4168,52.0,2.0,30.0,5.0,0.0
4169,52.0,7.0,15.0,15.0,0.0
4170,68.0,0.0,30.0,3.0,0.0
4171,71.0,0.0,30.0,3.0,0.0
4172,52.0,10.0,15.0,15.0,0.0
4173,52.0,6.0,15.0,15.0,0.0
4174,52.0,4.0,15.0,15.0,0.0
4175,52.0,2.0,15.0,15.0,0.0
4176,52.0,7.0,15.0,15.0,0.0
4177,52.0,9.0,15.0,15.0,0.0
4178,73.0,1.0,60.0,10.0,0.0
4179,85.0,1.0,60.0,0.0,0.0
4180,67.0,0.0,60.0,11.0,0.0
4181,64.0,1.0,60.0,4.0,0.0
4182,79.0,0.0,60.0,1.0,0.0
4183,73.0,0.0,60.0,1.0,0.0
4184,52.0,1.0,60.0,5.0,0.0
4185,76.0,0.0,60.0,2.0,0.0
4186,73.0,0.0,60.0,2.0,0.0
4187,64.0,1.0,60.0,12.0,0.0
4188,52.0,7.0,15.0,15.0,0.0
4189,70.0,5.0,60.0,3.0,0.0
4190,67.0,0.0,60.0,3.0,0.0
4191,52.0,9.0,15.0,15.0,0.0
4192,52.0,6.0,15.0,15.0,0.0
4193,52.0,6.0,15.0,15.0,0.0
4194,52.0,8.0,15.0,15.0,0.0
4195,52.0,4.0,15.0,15.0,0.0
4196,52.0,2.0,15.0,15.0,0.0
4197,74.0,1.0,30.0,10.0,0.0
4198,78.0,1.0,30.0,1.0,0.0
4199,74.0,0.0,30.0,1.0,0.0
4200,69.0,0.0,30.0,11.0,0.0
4201,64.0,1.0,30.0,4.0,0.0
4202,86.0,0.0,30.0,0.0,0.0
4203,74.0,0.0,30.0,2.0,0.0
4204,66.0,0.0,30.0,12.0,0.0
4205,52.0,3.0,30.0,5.0,0.0
4206,78.0,3.0,30.0,2.0,0.0
4207,64.0,2.0,30.0,13.0,0.0
4208,52.0,7.0,15.0,15.0,0.0
4209,66.0,0.0,30.0,3.0,0.0
4210,69.0,1.0,30.0,3.0,0.0
4211,52.0,3.0,30.0,14.0,0.0
4212,52.0,9.0,15.0,15.0,0.0
4213,52.0,8.0,15.0,15.0,0.0
4214,52.0,0.0,15.0,15.0,0.0
4215,52.0,0.0,15.0,15.0,0.0
4216,52.0,6.0,15.0,15.0,0.0
4217,52.0,9.0,15.0,15.0,0.0
4218,52.0,7.0,15.0,15.0,0.0
4219,72.0,1.0,60.0,10.0,0.0
4220,64.0,1.0,60.0,4.0,0.0
4221,69.0,5.0,120.0,11.0,0.0
4222,84.0,1.0,60.0,0.0,0.0
4223,81.0,0.0,60.0,1.0,0.0
4224,84.0,0.0,60.0,1.0,0.0
4225,78.0,0.0,60.0,2.0,0.0
4226,75.0,0.0,60.0,2.0,0.0
4227,52.0,1.0,60.0,5.0,0.0
4228,63.0,0.0,60.0,12.0,0.0
4229,64.0,2.0,30.0,13.0,0.0
4230,69.0,1.0,90.0,3.0,0.0
4231,52.0,7.0,15.0,15.0,0.0
4232,66.0,6.0,60.0,3.0,0.0
4233,52.0,5.0,30.0,14.0,0.0
4234,52.0,8.0,15.0,15.0,0.0
4235,52.0,6.0,15.0,15.0,0.0
4236,52.0,2.0,15.0,15.0,0.0
4237,52.0,5.0,15.0,15.0,0.0
4238,52.0,9.0,15.0,15.0,0.0
4239,52.0,3.0,15.0,15.0,0.0
4240,73.0,1.0,30.0,10.0,0.0
4241,85.0,0.0,30.0,0.0,0.0
4242,85.0,0.0,30.0,1.0,0.0
4243,81.0,0.0,30.0,1.0,0.0
4244,64.0,1.0,30.0,4.0,0.0
4245,52.0,3.0,30.0,5.0,0.0
4246,76.0,0.0,30.0,2.0,0.0
4247,73.0,2.0,30.0,2.0,0.0
4248,64.0,0.0,30.0,12.0,0.0
4249,64.0,1.0,30.0,13.0,0.0
4250,52.0,7.0,15.0,15.0,0.0
4251,64.0,7.0,60.0,3.0,0.0
4252,52.0,6.0,30.0,14.0,0.0
4253,52.0,6.0,15.0,15.0,0.0
4254,52.0,1.0,15.0,15.0,0.0
4255,64.0,1.0,30.0,4.0,0.0
4256,52.0,5.0,30.0,5.0,0.0
4257,52.0,0.0,30.0,12.0,0.0
4258,64.0,0.0,30.0,12.0,0.0
4259,52.0,5.0,15.0,15.0,0.0
4260,52.0,0.0,15.0,15.0,0.0
4261,82.0,1.0,30.0,10.0,0.0
4262,70.0,0.0,30.0,1.0,0.0
4263,88.0,0.0,30.0,0.0,0.0
4264,70.0,0.0,30.0,11.0,0.0
4265,82.0,1.0,30.0,1.0,0.0
4266,76.0,0.0,30.0,6.0,0.0
4267,64.0,4.0,30.0,6.0,0.0
4268,64.0,1.0,30.0,4.0,0.0
4269,52.0,0.0,30.0,12.0,0.0
4270,64.0,0.0,30.0,12.0,0.0
4271,52.0,3.0,30.0,5.0,0.0
4272,70.0,0.0,30.0,2.0,0.0
4273,82.0,2.0,30.0,2.0,0.0
4274,61.0,1.0,30.0,13.0,0.0
4275,61.0,1.0,30.0,3.0,0.0
4276,49.0,6.0,30.0,14.0,0.0
4277,52.0,4.0,15.0,15.0,0.0
4278,52.0,0.0,15.0,15.0,0.0
4279,64.0,1.0,30.0,4.0,0.0
4280,52.0,0.0,30.0,5.0,0.0
4281,52.0,0.0,30.0,12.0,0.0
4282,64.0,0.0,30.0,12.0,0.0
4283,52.0,1.0,15.0,15.0,0.0
4284,64.0,5.0,15.0,6.0,0.0
4285,76.0,0.0,15.0,6.0,0.0
4286,52.0,1.0,15.0,15.0,0.0
4287,83.0,1.0,30.0,10.0,0.0
4288,71.0,0.0,30.0,11.0,0.0
4289,64.0,4.0,30.0,6.0,0.0
4290,76.0,0.0,30.0,6.0,0.0
4291,64.0,1.0,30.0,4.0,0.0
4292,88.0,0.0,30.0,0.0,0.0
4293,83.0,1.0,30.0,1.0,0.0
4294,71.0,0.0,30.0,1.0,0.0
4295,64.0,0.0,30.0,12.0,0.0
4296,52.0,3.0,30.0,5.0,0.0
4297,52.0,0.0,30.0,12.0,0.0
4298,83.0,0.0,30.0,2.0,0.0
4299,71.0,0.0,30.0,2.0,0.0
4300,52.0,10.0,15.0,15.0,0.0
4301,62.0,1.0,30.0,13.0,0.0
4302,62.0,1.0,30.0,3.0,0.0
4303,50.0,6.0,30.0,14.0,0.0
4304,52.0,7.0,15.0,15.0,0.0
4305,52.0,0.0,15.0,15.0,0.0
4306,52.0,2.0,15.0,15.0,0.0
4307,64.0,1.0,30.0,4.0,0.0
4308,52.0,0.0,30.0,5.0,0.0
4309,52.0,1.0,30.0,12.0,0.0
4310,64.0,0.0,30.0,12.0,0.0
4311,52.0,1.0,15.0,15.0,0.0
4312,64.0,6.0,15.0,6.0,0.0
4313,76.0,0.0,15.0,6.0,0.0
4314,52.0,1.0,15.0,15.0,0.0
4315,52.0,7.0,15.0,15.0,0.0
4316,80.0,1.0,30.0,10.0,0.0
4317,80.0,0.0,30.0,1.0,0.0
4318,64.0,1.0,30.0,4.0,0.0
4319,68.0,1.0,30.0,11.0,0.0
4320,88.0,0.0,30.0,0.0,0.0
4321,64.0,0.0,30.0,6.0,0.0
4322,76.0,5.0,30.0,6.0,0.0
4323,68.0,0.0,30.0,1.0,0.0
4324,80.0,2.0,30.0,2.0,0.0
4325,52.0,0.0,30.0,5.0,0.0
4326,68.0,0.0,30.0,2.0,0.0
4327,52.0,0.0,30.0,12.0,0.0
4328,64.0,3.0,30.0,12.0,0.0
4329,59.0,1.0,30.0,13.0,0.0
4330,59.0,1.0,30.0,3.0,0.0
4331,52.0,7.0,15.0,15.0,0.0
4332,47.0,6.0,30.0,14.0,0.0
4333,52.0,8.0,15.0,15.0,0.0
4334,52.0,0.0,15.0,15.0,0.0
4335,52.0,0.0,15.0,15.0,0.0
4336,64.0,1.0,30.0,4.0,0.0
4337,52.0,0.0,30.0,12.0,0.0
4338,64.0,1.0,30.0,12.0,0.0
4339,52.0,0.0,30.0,5.0,0.0
4340,52.0,1.0,15.0,15.0,0.0
4341,76.0,4.0,15.0,6.0,0.0
4342,64.0,0.0,15.0,6.0,0.0
4343,52.0,6.0,15.0,15.0,0.0
4344,52.0,9.0,15.0,15.0,0.0
4345,81.0,1.0,30.0,10.0,0.0
4346,69.0,1.0,30.0,11.0,0.0
4347,81.0,0.0,30.0,1.0,0.0
4348,69.0,0.0,30.0,1.0,0.0
4349,88.0,0.0,30.0,0.0,0.0
4350,64.0,0.0,30.0,6.0,0.0
4351,64.0,1.0,30.0,4.0,0.0
4352,76.0,3.0,30.0,6.0,0.0
4353,64.0,0.0,30.0,12.0,0.0
4354,52.0,3.0,30.0,5.0,0.0
4355,52.0,0.0,30.0,12.0,0.0
4356,69.0,2.0,30.0,2.0,0.0
4357,81.0,0.0,30.0,2.0,0.0
4358,60.0,1.0,30.0,13.0,0.0
4359,60.0,1.0,30.0,3.0,0.0
4360,52.0,8.0,15.0,15.0,0.0
4361,48.0,4.0,30.0,14.0,0.0
4362,52.0,6.0,15.0,15.0,0.0
4363,52.0,0.0,15.0,15.0,0.0
4364,64.0,1.0,30.0,4.0,0.0
4365,64.0,1.0,30.0,12.0,0.0
4366,52.0,0.0,30.0,5.0,0.0
4367,52.0,0.0,30.0,12.0,0.0
4368,52.0,3.0,15.0,15.0,0.0
4369,76.0,0.0,15.0,6.0,0.0
4370,64.0,4.0,15.0,6.0,0.0
4371,52.0,2.0,15.0,15.0,0.0
4372,52.0,9.0,15.0,15.0,0.0
4373,82.0,1.0,30.0,10.0,0.0
4374,64.0,1.0,30.0,4.0,0.0
4375,88.0,0.0,30.0,0.0,0.0
4376,70.0,1.0,30.0,11.0,0.0
4377,76.0,3.0,30.0,6.0,0.0
4378,64.0,0.0,30.0,6.0,0.0
4379,82.0,0.0,30.0,1.0,0.0
4380,70.0,0.0,30.0,1.0,0.0
4381,70.0,0.0,30.0,2.0,0.0
4382,82.0,2.0,30.0,2.0,0.0
4383,64.0,3.0,30.0,12.0,0.0
4384,52.0,0.0,30.0,12.0,0.0
4385,52.0,0.0,30.0,5.0,0.0
4386,61.0,1.0,30.0,13.0,0.0
4387,52.0,6.0,15.0,15.0,0.0
4388,61.0,1.0,30.0,3.0,0.0
4389,49.0,6.0,30.0,14.0,0.0
4390,52.0,7.0,15.0,15.0,0.0
4391,52.0,2.0,15.0,15.0,0.0
4392,52.0,0.0,15.0,15.0,0.0
4393,64.0,1.0,30.0,4.0,0.0
4394,64.0,1.0,30.0,12.0,0.0
4395,52.0,0.0,30.0,12.0,0.0
4396,52.0,0.0,30.0,5.0,0.0
4397,52.0,1.0,15.0,15.0,0.0
4398,76.0,0.0,15.0,6.0,0.0
4399,64.0,122.0,15.0,6.0,0.0
4400,52.0,0.0,15.0,15.0,0.0
4401,76.0,61.0,120.0,10.0,0.0
4402,68.0,0.0,120.0,10.0,0.0
4403,83.0,21.0,210.0,10.0,0.0
4404,76.0,0.0,180.0,11.0,0.0
4405,83.0,1.0,180.0,11.0,0.0
4406,68.0,0.0,180.0,11.0,0.0
4407,76.0,0.0,180.0,6.0,0.0
4408,88.0,0.0,180.0,0.0,0.0
4409,64.0,0.0,180.0,6.0,0.0
4410,83.0,0.0,180.0,1.0,0.0
4411,71.0,0.0,180.0,1.0,0.0
4412,64.0,0.0,180.0,4.0,0.0
4413,52.0,0.0,180.0,5.0,0.0
4414,64.0,0.0,180.0,12.0,0.0
4415,52.0,2.0,180.0,12.0,0.0
4416,83.0,0.0,180.0,2.0,0.0
4417,71.0,0.0,180.0,2.0,0.0
4418,62.0,0.0,180.0,13.0,0.0
4419,52.0,1.0,180.0,15.0,0.0
4420,62.0,1.0,180.0,3.0,0.0
4421,50.0,26.0,180.0,14.0,0.0
4422,82.0,30.0,15.0,10.0,0.0
4423,83.0,30.0,20.0,10.0,0.0
4424,82.0,30.0,15.0,10.0,0.0
4425,83.0,30.0,20.0,10.0,0.0
4426,85.0,127.0,15.0,10.0,0.0
4427,86.0,21.0,210.0,10.0,0.0
4428,76.0,0.0,120.0,10.0,0.0
4429,68.0,61.0,120.0,10.0,0.0
4430,86.0,0.0,180.0,1.0,0.0
4431,76.0,0.0,180.0,11.0,0.0
4432,64.0,0.0,180.0,6.0,0.0
4433,76.0,0.0,180.0,6.0,0.0
4434,68.0,0.0,180.0,11.0,0.0
4435,83.0,0.0,180.0,1.0,0.0
4436,86.0,0.0,180.0,0.0,0.0
4437,71.0,1.0,180.0,4.0,0.0
4438,86.0,0.0,180.0,11.0,0.0
4439,74.0,0.0,180.0,2.0,0.0
4440,83.0,0.0,180.0,2.0,0.0
4441,64.0,0.0,180.0,5.0,0.0
4442,68.0,0.0,180.0,12.0,0.0
4443,59.0,0.0,180.0,12.0,0.0
4444,52.0,2.0,180.0,12.0,0.0
4445,52.0,0.0,180.0,15.0,0.0
4446,52.0,1.0,180.0,13.0,0.0
4447,52.0,1.0,180.0,3.0,0.0
4448,40.0,26.0,180.0,14.0,0.0
4449,85.0,30.0,15.0,10.0,0.0
4450,83.0,30.0,20.0,10.0,0.0
4451,81.0,30.0,15.0,10.0,0.0
4452,80.0,30.0,20.0,10.0,0.0
4453,78.0,188.0,15.0,10.0,0.0
4454,76.0,20.0,210.0,10.0,0.0
4455,83.0,4.0,60.0,1.0,0.0
4456,68.0,26.0,60.0,3.0,0.0
4457,86.0,4.0,30.0,1.0,0.0
4458,71.0,5.0,30.0,3.0,0.0
4459,75.0,45.0,15.0,10.0,0.0
4460,76.0,15.0,60.0,10.0,0.0
4461,75.0,45.0,15.0,10.0,0.0
4462,76.0,10.0,60.0,10.0,0.0
4463,83.0,4.0,60.0,1.0,0.0
4464,68.0,26.0,60.0,3.0,0.0
4465,75.0,6.0,15.0,10.0,0.0
4466,76.0,55.0,120.0,10.0,0.0
4467,86.0,4.0,30.0,1.0,0.0
4468,71.0,85.0,30.0,3.0,0.0
4469,77.0,35.0,60.0,10.0,0.0
4470,80.0,25.0,30.0,10.0,0.0
4471,78.0,35.0,30.0,10.0,0.0
4472,76.0,25.0,30.0,10.0,0.0
4473,74.0,35.0,30.0,10.0,0.0
4474,73.0,25.0,30.0,10.0,0.0
4475,64.0,41.0,60.0,11.0,0.0
4476,71.0,6.0,30.0,10.0,0.0
4477,69.0,19.0,60.0,10.0,0.0
4478,69.0,13.0,30.0,11.0,0.0
4479,61.0,2.0,15.0,13.0,0.0
4480,62.0,3.0,15.0,13.0,0.0
4481,69.0,5.0,30.0,11.0,0.0
4482,64.0,25.0,15.0,13.0,0.0
4483,62.0,30.0,15.0,13.0,0.0
4484,69.0,18.0,60.0,11.0,0.0
4485,61.0,30.0,15.0,13.0,0.0
4486,59.0,12.0,15.0,13.0,0.0
4487,73.0,5.0,30.0,11.0,0.0
4488,57.0,25.0,15.0,13.0,0.0
4489,56.0,30.0,15.0,13.0,0.0
4490,73.0,5.0,30.0,11.0,0.0
4491,54.0,25.0,15.0,13.0,0.0
4492,52.0,30.0,15.0,13.0,0.0
4493,73.0,18.0,60.0,11.0,0.0
4494,50.0,30.0,15.0,13.0,0.0
4495,49.0,12.0,15.0,13.0,0.0
4496,74.0,5.0,30.0,11.0,0.0
4497,47.0,25.0,15.0,13.0,0.0
4498,46.0,30.0,15.0,13.0,0.0
4499,74.0,16.0,30.0,11.0,0.0
4500,47.0,14.0,15.0,13.0,0.0
4501,49.0,6.0,15.0,13.0,0.0
4502,73.0,24.0,15.0,11.0,0.0
4503,71.0,21.0,30.0,11.0,0.0
4504,50.0,9.0,15.0,13.0,0.0
4505,51.0,6.0,15.0,13.0,0.0
4506,69.0,24.0,15.0,11.0,0.0
4507,68.0,5.0,30.0,11.0,0.0
4508,52.0,25.0,15.0,13.0,0.0
4509,59.0,30.0,15.0,13.0,0.0
4510,68.0,5.0,30.0,11.0,0.0
4511,61.0,25.0,15.0,13.0,0.0
4512,63.0,30.0,15.0,13.0,0.0
4513,68.0,28.0,60.0,11.0,0.0
4514,64.0,30.0,15.0,13.0,0.0
4515,62.0,12.0,15.0,13.0,0.0
4516,69.0,28.0,60.0,11.0,0.0
4517,61.0,30.0,30.0,13.0,0.0
4518,64.0,24.0,300.0,3.0,0.0
4519,52.0,2.0,30.0,13.0,0.0
4520,71.0,28.0,60.0,11.0,0.0
4521,59.0,30.0,30.0,13.0,0.0
4522,52.0,2.0,30.0,13.0,0.0
4523,73.0,3.0,60.0,11.0,0.0
4524,57.0,27.0,30.0,13.0,0.0
4525,52.0,30.0,30.0,13.0,0.0
4526,74.0,25.0,90.0,11.0,0.0
4527,56.0,30.0,30.0,13.0,0.0
4528,52.0,30.0,30.0,13.0,0.0
4529,56.0,2.0,30.0,13.0,0.0
4530,76.0,3.0,30.0,11.0,0.0
4531,52.0,6.0,30.0,13.0,0.0
4532,73.0,22.0,30.0,11.0,0.0
4533,57.0,3.0,60.0,12.0,0.0
4534,57.0,8.0,30.0,13.0,0.0
4535,63.0,14.0,60.0,3.0,0.0
4536,52.0,3.0,30.0,13.0,0.0
4537,71.0,10.0,20.0,11.0,0.0
4538,64.0,1.0,30.0,12.0,0.0
4539,56.0,15.0,30.0,13.0,0.0
4540,64.0,1.0,30.0,3.0,0.0
4541,80.0,0.0,15.0,10.0,0.0
4542,76.0,9.0,15.0,11.0,0.0
4543,52.0,16.0,30.0,13.0,0.0
4544,81.0,1.0,15.0,10.0,0.0
4545,78.0,3.0,15.0,11.0,0.0
4546,83.0,1.0,15.0,10.0,0.0
4547,80.0,13.0,15.0,11.0,0.0
4548,64.0,1.0,30.0,12.0,0.0
4549,56.0,15.0,30.0,13.0,0.0
4550,64.0,1.0,30.0,3.0,0.0
4551,40.0,9.0,60.0,14.0,0.0
4552,81.0,0.0,15.0,10.0,0.0
4553,78.0,13.0,15.0,11.0,0.0
4554,59.0,7.0,30.0,13.0,0.0
4555,80.0,1.0,15.0,10.0,0.0
4556,76.0,29.0,15.0,11.0,0.0
4557,64.0,2.0,60.0,12.0,0.0
4558,64.0,1.0,60.0,13.0,0.0
4559,64.0,10.0,60.0,3.0,0.0
4560,78.0,1.0,15.0,10.0,0.0
4561,75.0,16.0,15.0,11.0,0.0
4562,76.0,1.0,15.0,10.0,0.0
4563,73.0,28.0,15.0,11.0,0.0
4564,68.0,0.0,30.0,12.0,0.0
4565,68.0,1.0,30.0,3.0,0.0
4566,75.0,1.0,15.0,10.0,0.0
4567,71.0,29.0,15.0,11.0,0.0
4568,73.0,1.0,15.0,10.0,0.0
4569,69.0,28.0,15.0,11.0,0.0
4570,68.0,0.0,30.0,12.0,0.0
4571,64.0,2.0,60.0,13.0,0.0
4572,68.0,1.0,30.0,3.0,0.0
4573,52.0,9.0,60.0,14.0,0.0
4574,71.0,1.0,15.0,10.0,0.0
4575,68.0,18.0,15.0,11.0,0.0
4576,69.0,1.0,15.0,10.0,0.0
4577,66.0,29.0,15.0,11.0,0.0
4578,68.0,3.0,60.0,12.0,0.0
4579,68.0,10.0,60.0,3.0,0.0
4580,68.0,1.0,15.0,10.0,0.0
4581,64.0,16.0,15.0,11.0,0.0
4582,66.0,1.0,15.0,10.0,0.0
4583,63.0,29.0,15.0,11.0,0.0
4584,69.0,0.0,30.0,12.0,0.0
4585,69.0,15.0,60.0,3.0,0.0
4586,75.0,1.0,15.0,10.0,0.0
4587,71.0,14.0,15.0,11.0,0.0
4588,75.0,1.0,15.0,10.0,0.0
4589,71.0,12.0,15.0,11.0,0.0
4590,69.0,16.0,30.0,12.0,0.0
4591,47.0,2.0,60.0,13.0,0.0
4592,69.0,1.0,20.0,3.0,0.0
4593,35.0,9.0,60.0,14.0,0.0
4594,76.0,1.0,15.0,10.0,0.0
4595,73.0,10.0,15.0,11.0,0.0
4596,68.0,2.0,15.0,12.0,0.0
4597,68.0,6.0,15.0,3.0,0.0
4598,78.0,1.0,15.0,10.0,0.0
4599,75.0,12.0,15.0,11.0,0.0
4600,66.0,16.0,30.0,12.0,0.0
4601,66.0,1.0,20.0,3.0,0.0
4602,80.0,1.0,15.0,10.0,0.0
4603,76.0,10.0,15.0,11.0,0.0
4604,64.0,2.0,15.0,12.0,0.0
4605,64.0,17.0,15.0,3.0,0.0
4606,81.0,1.0,15.0,10.0,0.0
4607,78.0,28.0,15.0,11.0,0.0
4608,63.0,0.0,30.0,12.0,0.0
4609,47.0,2.0,60.0,13.0,0.0
4610,63.0,1.0,30.0,3.0,0.0
4611,35.0,9.0,60.0,14.0,0.0
4612,80.0,1.0,15.0,10.0,0.0
4613,77.0,18.0,15.0,11.0,0.0
4614,81.0,1.0,15.0,10.0,0.0
4615,78.0,28.0,15.0,11.0,0.0
4616,63.0,0.0,30.0,12.0,0.0
4617,63.0,1.0,30.0,3.0,0.0
4618,80.0,1.0,15.0,10.0,0.0
4619,77.0,29.0,15.0,11.0,0.0
4620,81.0,1.0,15.0,10.0,0.0
4621,78.0,29.0,15.0,11.0,0.0
4622,63.0,2.0,60.0,12.0,0.0
4623,47.0,1.0,60.0,13.0,0.0
4624,63.0,0.0,60.0,3.0,0.0
4625,47.0,1.0,60.0,3.0,0.0
4626,35.0,9.0,60.0,14.0,0.0
4627,83.0,1.0,15.0,10.0,0.0
4628,80.0,16.0,15.0,11.0,0.0
4629,80.0,10.0,15.0,10.0,0.0
4630,83.0,14.0,240.0,1.0,0.0
4631,76.0,14.0,60.0,11.0,0.0
4632,64.0,0.0,30.0,12.0,0.0
4633,52.0,2.0,30.0,13.0,0.0
4634,52.0,1.0,30.0,3.0,0.0
4635,64.0,19.0,20.0,3.0,0.0
4636,40.0,6.0,30.0,14.0,0.0
4637,80.0,2.0,15.0,10.0,0.0
4638,81.0,6.0,15.0,10.0,0.0
4639,83.0,13.0,15.0,10.0,0.0
4640,64.0,10.0,30.0,12.0,0.0
4641,52.0,2.0,30.0,13.0,0.0
4642,52.0,1.0,30.0,3.0,0.0
4643,64.0,6.0,20.0,3.0,0.0
4644,40.0,7.0,30.0,14.0,0.0
4645,80.0,1.0,15.0,10.0,0.0
4646,68.0,1.0,15.0,11.0,0.0
4647,69.0,2.0,15.0,11.0,0.0
4648,63.0,0.0,15.0,12.0,0.0
4649,63.0,18.0,15.0,3.0,0.0
4650,76.0,4.0,60.0,10.0,0.0
4651,71.0,12.0,15.0,11.0,0.0
4652,64.0,17.0,30.0,12.0,0.0
4653,52.0,1.0,60.0,13.0,0.0
4654,52.0,1.0,60.0,3.0,0.0
4655,64.0,1.0,20.0,3.0,0.0
4656,40.0,29.0,60.0,14.0,0.0
4657,68.0,10.0,15.0,11.0,0.0
4658,66.0,2.0,15.0,12.0,0.0
4659,66.0,2.0,15.0,3.0,0.0
4660,64.0,0.0,60.0,11.0,0.0
4661,62.0,0.0,30.0,12.0,0.0
4662,56.0,2.0,30.0,13.0,0.0
4663,56.0,1.0,30.0,3.0,0.0
4664,62.0,9.0,30.0,3.0,0.0
4665,44.0,6.0,30.0,14.0,0.0
4666,83.0,2.0,15.0,10.0,0.0
4667,85.0,6.0,15.0,10.0,0.0
4668,86.0,13.0,15.0,10.0,0.0
4669,80.0,15.0,60.0,1.0,0.0
4670,62.0,7.0,30.0,12.0,0.0
4671,56.0,2.0,30.0,13.0,0.0
4672,56.0,1.0,30.0,3.0,0.0
4673,62.0,6.0,20.0,3.0,0.0
4674,44.0,7.0,30.0,14.0,0.0
4675,83.0,2.0,15.0,10.0,0.0
4676,64.0,3.0,15.0,11.0,0.0
4677,64.0,2.0,15.0,11.0,0.0
4678,61.0,0.0,15.0,12.0,0.0
4679,61.0,3.0,15.0,3.0,0.0
4680,80.0,1.0,60.0,10.0,0.0
4681,64.0,1.0,60.0,4.0,0.0
4682,76.0,0.0,60.0,1.0,0.0
4683,76.0,12.0,15.0,11.0,0.0
4684,62.0,17.0,30.0,12.0,0.0
4685,64.0,2.0,60.0,5.0,0.0
4686,59.0,1.0,60.0,13.0,0.0
4687,62.0,1.0,20.0,3.0,0.0
4688,56.0,1.0,60.0,3.0,0.0
4689,47.0,11.0,60.0,14.0,0.0
4690,64.0,10.0,15.0,11.0,0.0
4691,64.0,2.0,15.0,12.0,0.0
4692,64.0,2.0,15.0,3.0,0.0
4693,69.0,1.0,60.0,10.0,0.0
4694,81.0,0.0,30.0,1.0,0.0
4695,73.0,1.0,30.0,1.0,0.0
4696,69.0,0.0,30.0,4.0,0.0
4697,69.0,4.0,60.0,11.0,0.0
4698,61.0,6.0,30.0,5.0,0.0
4699,61.0,2.0,15.0,12.0,0.0
4700,57.0,2.0,15.0,13.0,0.0
4701,57.0,3.0,30.0,3.0,0.0
4702,45.0,11.0,15.0,14.0,0.0
4703,73.0,2.0,15.0,12.0,0.0
4704,61.0,1.0,15.0,13.0,0.0
4705,61.0,5.0,15.0,3.0,0.0
4706,49.0,1.0,15.0,14.0,0.0
4707,74.0,2.0,15.0,12.0,0.0
4708,62.0,2.0,15.0,13.0,0.0
4709,62.0,15.0,15.0,3.0,0.0
4710,50.0,1.0,15.0,14.0,0.0
4711,81.0,1.0,60.0,10.0,0.0
4712,73.0,0.0,30.0,1.0,0.0
4713,81.0,1.0,30.0,1.0,0.0
4714,73.0,0.0,60.0,11.0,0.0
4715,69.0,1.0,60.0,11.0,0.0
4716,69.0,0.0,30.0,4.0,0.0
4717,76.0,2.0,15.0,12.0,0.0
4718,61.0,4.0,30.0,5.0,0.0
4719,64.0,1.0,15.0,13.0,0.0
4720,64.0,1.0,15.0,3.0,0.0
4721,52.0,19.0,15.0,14.0,0.0
4722,74.0,2.0,15.0,12.0,0.0
4723,62.0,1.0,15.0,13.0,0.0
4724,62.0,1.0,15.0,3.0,0.0
4725,50.0,26.0,15.0,14.0,0.0
4726,88.0,1.0,60.0,0.0,0.0
4727,81.0,0.0,60.0,1.0,0.0
4728,73.0,0.0,60.0,1.0,0.0
4729,69.0,0.0,60.0,4.0,0.0
4730,61.0,0.0,60.0,5.0,0.0
4731,73.0,2.0,15.0,12.0,0.0
4732,69.0,15.0,60.0,2.0,0.0
4733,64.0,0.0,60.0,2.0,0.0
4734,61.0,1.0,15.0,13.0,0.0
4735,61.0,1.0,15.0,3.0,0.0
4736,49.0,26.0,15.0,14.0,0.0
4737,71.0,2.0,15.0,12.0,0.0
4738,59.0,1.0,15.0,13.0,0.0
4739,59.0,1.0,15.0,3.0,0.0
4740,47.0,10.0,15.0,14.0,0.0
4741,81.0,0.0,30.0,1.0,0.0
4742,73.0,0.0,30.0,4.0,0.0
4743,85.0,0.0,30.0,1.0,0.0
4744,93.0,1.0,30.0,0.0,0.0
4745,69.0,0.0,30.0,5.0,0.0
4746,73.0,0.0,30.0,2.0,0.0
4747,69.0,3.0,30.0,2.0,0.0
4748,69.0,2.0,15.0,12.0,0.0
4749,57.0,1.0,15.0,13.0,0.0
4750,57.0,1.0,15.0,3.0,0.0
4751,64.0,3.0,30.0,3.0,0.0
4752,45.0,19.0,15.0,14.0,0.0
4753,68.0,2.0,15.0,12.0,0.0
4754,56.0,1.0,15.0,13.0,0.0
4755,56.0,1.0,15.0,3.0,0.0
4756,44.0,26.0,15.0,14.0,0.0
4757,85.0,1.0,60.0,10.0,0.0
4758,93.0,0.0,30.0,0.0,0.0
4759,73.0,0.0,60.0,11.0,0.0
4760,81.0,1.0,60.0,11.0,0.0
4761,81.0,0.0,30.0,1.0,0.0
4762,85.0,0.0,30.0,1.0,0.0
4763,73.0,1.0,30.0,4.0,0.0
4764,66.0,2.0,15.0,12.0,0.0
4765,69.0,0.0,30.0,2.0,0.0
4766,69.0,0.0,30.0,5.0,0.0
4767,73.0,3.0,30.0,2.0,0.0
4768,54.0,1.0,15.0,13.0,0.0
4769,54.0,1.0,15.0,3.0,0.0
4770,64.0,1.0,30.0,3.0,0.0
4771,42.0,19.0,15.0,14.0,0.0
4772,64.0,2.0,15.0,12.0,0.0
4773,52.0,1.0,15.0,13.0,0.0
4774,52.0,1.0,15.0,3.0,0.0
4775,40.0,26.0,15.0,14.0,0.0
4776,93.0,1.0,60.0,0.0,0.0
4777,81.0,0.0,60.0,1.0,0.0
4778,85.0,0.0,60.0,1.0,0.0
4779,64.0,0.0,60.0,4.0,0.0
4780,73.0,0.0,60.0,2.0,0.0
4781,69.0,3.0,60.0,2.0,0.0
4782,62.0,2.0,15.0,12.0,0.0
4783,52.0,0.0,60.0,5.0,0.0
4784,50.0,1.0,15.0,13.0,0.0
4785,64.0,12.0,60.0,3.0,0.0
4786,50.0,1.0,15.0,3.0,0.0
4787,38.0,26.0,15.0,14.0,0.0
4788,61.0,2.0,15.0,12.0,0.0
4789,49.0,1.0,15.0,13.0,0.0
4790,49.0,1.0,15.0,3.0,0.0
4791,37.0,10.0,15.0,14.0,0.0
4792,92.0,9.0,30.0,0.0,0.0
4793,80.0,1.0,30.0,1.0,0.0
4794,86.0,0.0,30.0,1.0,0.0
4795,59.0,2.0,15.0,12.0,0.0
4796,68.0,3.0,30.0,2.0,0.0
4797,74.0,0.0,30.0,2.0,0.0
4798,52.0,15.0,180.0,5.0,0.0
4799,47.0,1.0,15.0,13.0,0.0
4800,62.0,3.0,30.0,3.0,0.0
4801,47.0,1.0,15.0,3.0,0.0
4802,35.0,10.0,15.0,14.0,0.0
4803,58.0,2.0,15.0,12.0,0.0
4804,46.0,1.0,15.0,13.0,0.0
4805,46.0,1.0,15.0,3.0,0.0
4806,34.0,26.0,15.0,14.0,0.0
4807,86.0,1.0,60.0,10.0,0.0
4808,86.0,0.0,20.0,0.0,0.0
4809,86.0,21.0,20.0,1.0,0.0
4810,74.0,1.0,60.0,11.0,0.0
4811,80.0,0.0,60.0,11.0,0.0
4812,74.0,0.0,60.0,1.0,0.0
4813,59.0,2.0,15.0,12.0,0.0
4814,68.0,0.0,60.0,2.0,0.0
4815,62.0,1.0,60.0,2.0,0.0
4816,47.0,1.0,15.0,13.0,0.0
4817,59.0,1.0,60.0,3.0,0.0
4818,47.0,1.0,15.0,3.0,0.0
4819,35.0,3.0,15.0,14.0,0.0
4820,61.0,2.0,15.0,12.0,0.0
4821,49.0,1.0,15.0,13.0,0.0
4822,49.0,0.0,15.0,3.0,0.0
4823,37.0,2.0,15.0,14.0,0.0
4824,85.0,0.0,15.0,1.0,0.0
4825,85.0,23.0,15.0,0.0,0.0
4826,83.0,0.0,20.0,0.0,0.0
4827,74.0,0.0,60.0,1.0,0.0
4828,83.0,23.0,20.0,1.0,0.0
4829,62.0,0.0,60.0,2.0,0.0
4830,68.0,0.0,60.0,2.0,0.0
4831,62.0,2.0,15.0,12.0,0.0
4832,50.0,1.0,15.0,13.0,0.0
4833,50.0,1.0,15.0,3.0,0.0
4834,59.0,1.0,60.0,3.0,0.0
4835,38.0,3.0,15.0,14.0,0.0
4836,63.0,2.0,15.0,12.0,0.0
4837,51.0,1.0,15.0,13.0,0.0
4838,51.0,1.0,15.0,3.0,0.0
4839,39.0,2.0,15.0,14.0,0.0
4840,81.0,0.0,15.0,1.0,0.0
4841,81.0,7.0,15.0,0.0,0.0
4842,80.0,0.0,30.0,0.0,0.0
4843,64.0,1.0,15.0,4.0,0.0
4844,80.0,7.0,30.0,1.0,0.0
4845,74.0,4.0,60.0,1.0,0.0
4846,62.0,2.0,60.0,2.0,0.0
4847,52.0,15.0,120.0,5.0,0.0
4848,64.0,2.0,15.0,12.0,0.0
4849,68.0,0.0,120.0,2.0,0.0
4850,52.0,1.0,15.0,13.0,0.0
4851,52.0,1.0,15.0,3.0,0.0
4852,40.0,19.0,15.0,14.0,0.0
4853,71.0,2.0,15.0,12.0,0.0
4854,59.0,1.0,15.0,13.0,0.0
4855,59.0,1.0,15.0,3.0,0.0
4856,47.0,8.0,15.0,14.0,0.0
4857,80.0,1.0,60.0,10.0,0.0
4858,71.0,0.0,60.0,10.0,0.0
4859,71.0,1.0,60.0,1.0,0.0
4860,68.0,0.0,60.0,11.0,0.0
4861,80.0,5.0,30.0,1.0,0.0
4862,76.0,1.0,60.0,11.0,0.0
4863,80.0,0.0,30.0,0.0,0.0
4864,59.0,2.0,60.0,2.0,0.0
4865,73.0,2.0,15.0,12.0,0.0
4866,61.0,1.0,15.0,13.0,0.0
4867,61.0,1.0,15.0,3.0,0.0
4868,49.0,19.0,15.0,14.0,0.0
4869,75.0,2.0,15.0,12.0,0.0
4870,63.0,1.0,15.0,13.0,0.0
4871,63.0,1.0,15.0,3.0,0.0
4872,51.0,7.0,15.0,14.0,0.0
4873,80.0,0.0,60.0,0.0,0.0
4874,80.0,1.0,60.0,1.0,0.0
4875,71.0,0.0,60.0,1.0,0.0
4876,64.0,0.0,60.0,4.0,0.0
4877,64.0,2.0,60.0,2.0,0.0
4878,68.0,0.0,60.0,2.0,0.0
4879,76.0,2.0,15.0,12.0,0.0
4880,64.0,2.0,15.0,13.0,0.0
4881,52.0,26.0,15.0,14.0,0.0
4882,74.0,2.0,15.0,12.0,0.0
4883,62.0,1.0,15.0,13.0,0.0
4884,62.0,1.0,15.0,3.0,0.0
4885,50.0,8.0,15.0,14.0,0.0
4886,76.0,0.0,60.0,1.0,0.0
4887,81.0,1.0,60.0,0.0,0.0
4888,81.0,0.0,60.0,1.0,0.0
4889,64.0,0.0,60.0,4.0,0.0
4890,69.0,0.0,60.0,2.0,0.0
4891,64.0,0.0,60.0,2.0,0.0
4892,52.0,3.0,15.0,5.0,0.0
4893,73.0,2.0,20.0,12.0,0.0
4894,61.0,2.0,20.0,13.0,0.0
4895,64.0,15.0,15.0,3.0,0.0
4896,61.0,4.0,15.0,3.0,0.0
4897,49.0,22.0,20.0,14.0,0.0
4898,88.0,1.0,20.0,10.0,0.0
4899,76.0,3.0,20.0,11.0,0.0
4900,64.0,2.0,20.0,12.0,0.0
4901,52.0,2.0,20.0,13.0,0.0
4902,52.0,0.0,15.0,3.0,0.0
4903,40.0,3.0,20.0,14.0,0.0
4904,88.0,0.0,20.0,10.0,0.0
4905,76.0,3.0,20.0,11.0,0.0
4906,80.0,1.0,60.0,1.0,0.0
4907,83.0,0.0,60.0,1.0,0.0
4908,64.0,0.0,60.0,4.0,0.0
4909,83.0,0.0,60.0,0.0,0.0
4910,71.0,0.0,60.0,2.0,0.0
4911,52.0,3.0,15.0,5.0,0.0
4912,71.0,2.0,20.0,12.0,0.0
4913,68.0,3.0,60.0,2.0,0.0
4914,59.0,2.0,20.0,13.0,0.0
4915,62.0,15.0,60.0,3.0,0.0
4916,59.0,1.0,15.0,3.0,0.0
4917,47.0,22.0,20.0,14.0,0.0
4918,88.0,0.0,20.0,10.0,0.0
4919,76.0,3.0,20.0,11.0,0.0
4920,64.0,2.0,20.0,12.0,0.0
4921,52.0,2.0,20.0,13.0,0.0
4922,52.0,1.0,15.0,3.0,0.0
4923,40.0,3.0,20.0,14.0,0.0
4924,88.0,1.0,20.0,10.0,0.0
4925,64.0,1.0,60.0,4.0,0.0
4926,85.0,1.0,60.0,1.0,0.0
4927,81.0,0.0,60.0,1.0,0.0
4928,76.0,3.0,20.0,11.0,0.0
4929,85.0,0.0,60.0,0.0,0.0
4930,52.0,0.0,15.0,5.0,0.0
4931,69.0,2.0,60.0,2.0,0.0
4932,73.0,0.0,60.0,2.0,0.0
4933,69.0,2.0,20.0,12.0,0.0
4934,57.0,2.0,20.0,13.0,0.0
4935,61.0,18.0,60.0,3.0,0.0
4936,57.0,0.0,15.0,3.0,0.0
4937,45.0,22.0,20.0,14.0,0.0
4938,88.0,1.0,20.0,10.0,0.0
4939,76.0,3.0,20.0,11.0,0.0
4940,64.0,2.0,20.0,12.0,0.0
4941,52.0,2.0,20.0,13.0,0.0
4942,52.0,0.0,15.0,3.0,0.0
4943,40.0,0.0,20.0,14.0,0.0
4944,88.0,1.0,20.0,10.0,0.0
4945,76.0,3.0,20.0,11.0,0.0
4946,86.0,1.0,90.0,0.0,0.0
4947,83.0,0.0,120.0,1.0,0.0
4948,86.0,0.0,90.0,1.0,0.0
4949,64.0,0.0,120.0,4.0,0.0
4950,52.0,0.0,120.0,5.0,0.0
4951,68.0,2.0,20.0,12.0,0.0
4952,74.0,18.0,90.0,2.0,0.0
4953,71.0,0.0,120.0,2.0,0.0
4954,56.0,2.0,20.0,13.0,0.0
4955,59.0,0.0,60.0,3.0,0.0
4956,44.0,22.0,20.0,14.0,0.0
4957,88.0,1.0,20.0,10.0,0.0
4958,76.0,3.0,20.0,11.0,0.0
4959,71.0,2.0,20.0,12.0,0.0
4960,59.0,2.0,20.0,13.0,0.0
4961,47.0,7.0,20.0,14.0,0.0
4962,88.0,1.0,20.0,10.0,0.0
4963,76.0,3.0,20.0,11.0,0.0
4964,68.0,2.0,20.0,12.0,0.0
4965,56.0,2.0,20.0,13.0,0.0
4966,62.0,15.0,15.0,3.0,0.0
4967,71.0,0.0,60.0,3.0,0.0
4968,44.0,3.0,20.0,14.0,0.0
4969,88.0,1.0,20.0,10.0,0.0
4970,76.0,3.0,20.0,11.0,0.0
4971,88.0,1.0,30.0,1.0,0.0
4972,88.0,0.0,30.0,0.0,0.0
4973,76.0,3.0,30.0,2.0,0.0
4974,64.0,2.0,20.0,12.0,0.0
4975,52.0,2.0,20.0,13.0,0.0
4976,40.0,3.0,20.0,14.0,0.0
4977,88.0,1.0,20.0,10.0,0.0
4978,85.0,0.0,30.0,0.0,0.0
4979,85.0,0.0,30.0,1.0,0.0
4980,81.0,1.0,30.0,1.0,0.0
4981,76.0,3.0,20.0,11.0,0.0
4982,73.0,0.0,30.0,2.0,0.0
4983,69.0,18.0,30.0,2.0,0.0
4984,69.0,2.0,20.0,12.0,0.0
4985,57.0,2.0,20.0,13.0,0.0
4986,69.0,0.0,60.0,3.0,0.0
4987,61.0,0.0,60.0,3.0,0.0
4988,45.0,3.0,20.0,14.0,0.0
4989,88.0,1.0,20.0,10.0,0.0
4990,76.0,3.0,20.0,11.0,0.0
4991,73.0,2.0,20.0,12.0,0.0
4992,61.0,2.0,20.0,13.0,0.0
4993,49.0,3.0,20.0,14.0,0.0
4994,88.0,1.0,60.0,10.0,0.0
4995,80.0,0.0,60.0,1.0,0.0
4996,83.0,0.0,60.0,1.0,0.0
4997,76.0,0.0,60.0,11.0,0.0
4998,64.0,1.0,15.0,4.0,0.0
4999,83.0,0.0,60.0,0.0,0.0
5000,64.0,2.0,20.0,12.0,0.0
5001,71.0,0.0,60.0,2.0,0.0
5002,52.0,22.0,15.0,5.0,0.0
5003,68.0,0.0,60.0,2.0,0.0
5004,52.0,2.0,20.0,13.0,0.0
5005,59.0,0.0,60.0,3.0,0.0
5006,68.0,22.0,60.0,3.0,0.0
5007,40.0,26.0,20.0,14.0,0.0
5008,64.0,2.0,20.0,12.0,0.0
5009,64.0,2.0,20.0,13.0,0.0
5010,52.0,2.0,20.0,14.0,0.0
5011,68.0,2.0,20.0,12.0,0.0
5012,64.0,3.0,60.0,2.0,0.0
5013,76.0,0.0,60.0,2.0,0.0
5014,64.0,2.0,20.0,13.0,0.0
5015,52.0,22.0,60.0,3.0,0.0
5016,64.0,0.0,60.0,3.0,0.0
5017,52.0,26.0,20.0,14.0,0.0
5018,64.0,2.0,20.0,12.0,0.0
5019,64.0,2.0,20.0,13.0,0.0
5020,52.0,1.0,20.0,14.0,0.0
5021,83.0,1.0,60.0,10.0,0.0
5022,71.0,0.0,60.0,11.0,0.0
5023,71.0,1.0,60.0,4.0,0.0
5024,83.0,0.0,60.0,0.0,0.0
5025,83.0,0.0,60.0,1.0,0.0
5026,80.0,0.0,60.0,1.0,0.0
5027,64.0,2.0,120.0,2.0,0.0
5028,64.0,22.0,60.0,5.0,0.0
5029,76.0,0.0,120.0,2.0,0.0
5030,68.0,2.0,20.0,12.0,0.0
5031,62.0,2.0,20.0,13.0,0.0
5032,64.0,22.0,120.0,3.0,0.0
5033,52.0,0.0,120.0,3.0,0.0
5034,50.0,26.0,20.0,14.0,0.0
5035,64.0,1.0,20.0,12.0,0.0
5036,64.0,2.0,20.0,13.0,0.0
5037,52.0,3.0,20.0,14.0,0.0
5038,85.0,1.0,120.0,10.0,0.0
5039,81.0,0.0,60.0,1.0,0.0
5040,85.0,0.0,60.0,1.0,0.0
5041,73.0,0.0,120.0,11.0,0.0
5042,85.0,8.0,120.0,0.0,0.0
5043,73.0,1.0,60.0,4.0,0.0
5044,69.0,0.0,60.0,5.0,0.0
5045,69.0,2.0,20.0,12.0,0.0
5046,61.0,2.0,20.0,13.0,0.0
5047,49.0,26.0,20.0,14.0,0.0
5048,64.0,2.0,20.0,12.0,0.0
5049,64.0,2.0,20.0,13.0,0.0
5050,52.0,1.0,20.0,14.0,0.0
5051,76.0,0.0,60.0,2.0,0.0
5052,64.0,3.0,60.0,2.0,0.0
5053,69.0,2.0,20.0,12.0,0.0
5054,64.0,2.0,20.0,13.0,0.0
5055,52.0,0.0,60.0,3.0,0.0
5056,64.0,22.0,60.0,3.0,0.0
5057,52.0,17.0,20.0,14.0,0.0
5058,64.0,1.0,20.0,12.0,0.0
5059,64.0,2.0,20.0,13.0,0.0
5060,52.0,1.0,20.0,14.0,0.0
5061,81.0,1.0,15.0,10.0,0.0
5062,69.0,0.0,15.0,11.0,0.0
5063,81.0,0.0,15.0,0.0,0.0
5064,88.0,1.0,60.0,10.0,0.0
5065,81.0,0.0,60.0,1.0,0.0
5066,85.0,1.0,60.0,1.0,0.0
5067,76.0,0.0,60.0,11.0,0.0
5068,73.0,0.0,60.0,4.0,0.0
5069,88.0,8.0,60.0,0.0,0.0
5070,69.0,22.0,60.0,5.0,0.0
5071,69.0,2.0,20.0,12.0,0.0
5072,76.0,0.0,120.0,2.0,0.0
5073,64.0,1.0,120.0,2.0,0.0
5074,61.0,2.0,20.0,13.0,0.0
5075,64.0,22.0,120.0,3.0,0.0
5076,52.0,0.0,120.0,3.0,0.0
5077,49.0,17.0,20.0,14.0,0.0
5078,64.0,1.0,20.0,12.0,0.0
5079,57.0,0.0,20.0,13.0,0.0
5080,45.0,3.0,20.0,14.0,0.0
5081,85.0,1.0,15.0,10.0,0.0
5082,73.0,0.0,15.0,11.0,0.0
5083,85.0,2.0,15.0,0.0,0.0
5084,83.0,1.0,60.0,10.0,0.0
5085,71.0,0.0,60.0,4.0,0.0
5086,83.0,0.0,60.0,0.0,0.0
5087,80.0,0.0,60.0,1.0,0.0
5088,71.0,0.0,60.0,11.0,0.0
5089,83.0,1.0,60.0,1.0,0.0
5090,64.0,0.0,60.0,5.0,0.0
5091,68.0,2.0,20.0,12.0,0.0
5092,52.0,2.0,20.0,13.0,0.0
5093,40.0,26.0,20.0,14.0,0.0
5094,64.0,2.0,20.0,12.0,0.0
5095,64.0,2.0,20.0,13.0,0.0
5096,52.0,1.0,20.0,14.0,0.0
5097,64.0,2.0,20.0,12.0,0.0
5098,64.0,0.0,60.0,2.0,0.0
5099,76.0,3.0,60.0,2.0,0.0
5100,64.0,2.0,20.0,13.0,0.0
5101,52.0,22.0,60.0,3.0,0.0
5102,64.0,0.0,60.0,3.0,0.0
5103,52.0,26.0,20.0,14.0,0.0
5104,64.0,2.0,20.0,12.0,0.0
5105,64.0,2.0,20.0,13.0,0.0
5106,52.0,1.0,20.0,14.0,0.0
5107,83.0,1.0,60.0,10.0,0.0
5108,83.0,0.0,60.0,0.0,0.0
5109,71.0,1.0,60.0,4.0,0.0
5110,80.0,0.0,60.0,1.0,0.0
5111,83.0,0.0,60.0,1.0,0.0
5112,71.0,2.0,60.0,11.0,0.0
5113,64.0,22.0,60.0,5.0,0.0
5114,68.0,2.0,20.0,12.0,0.0
5115,76.0,2.0,120.0,2.0,0.0
5116,64.0,0.0,120.0,2.0,0.0
5117,62.0,2.0,20.0,13.0,0.0
5118,52.0,0.0,120.0,3.0,0.0
5119,64.0,22.0,120.0,3.0,0.0
5120,50.0,26.0,20.0,14.0,0.0
5121,64.0,1.0,20.0,12.0,0.0
5122,64.0,0.0,20.0,13.0,0.0
5123,52.0,3.0,20.0,14.0,0.0
5124,85.0,1.0,120.0,10.0,0.0
5125,73.0,0.0,120.0,11.0,0.0
5126,73.0,1.0,60.0,4.0,0.0
5127,81.0,0.0,60.0,1.0,0.0
5128,85.0,0.0,60.0,1.0,0.0
5129,85.0,8.0,120.0,0.0,0.0
5130,69.0,0.0,60.0,5.0,0.0
5131,69.0,2.0,20.0,12.0,0.0
5132,61.0,2.0,20.0,13.0,0.0
5133,49.0,26.0,20.0,14.0,0.0
5134,64.0,2.0,20.0,12.0,0.0
5135,64.0,2.0,20.0,13.0,0.0
5136,52.0,1.0,20.0,14.0,0.0
5137,76.0,3.0,60.0,2.0,0.0
5138,64.0,0.0,60.0,2.0,0.0
5139,69.0,2.0,20.0,12.0,0.0
5140,64.0,2.0,20.0,13.0,0.0
5141,64.0,22.0,60.0,3.0,0.0
5142,52.0,0.0,60.0,3.0,0.0
5143,52.0,17.0,20.0,14.0,0.0
5144,64.0,1.0,20.0,12.0,0.0
5145,64.0,2.0,20.0,13.0,0.0
5146,52.0,1.0,20.0,14.0,0.0
5147,81.0,1.0,15.0,10.0,0.0
5148,81.0,0.0,15.0,0.0,0.0
5149,69.0,0.0,15.0,11.0,0.0
5150,88.0,1.0,60.0,10.0,0.0
5151,76.0,0.0,60.0,11.0,0.0
5152,88.0,8.0,60.0,0.0,0.0
5153,73.0,0.0,60.0,4.0,0.0
5154,85.0,1.0,60.0,1.0,0.0
5155,81.0,0.0,60.0,1.0,0.0
5156,76.0,0.0,120.0,2.0,0.0
5157,64.0,2.0,120.0,2.0,0.0
5158,69.0,22.0,60.0,5.0,0.0
5159,69.0,2.0,20.0,12.0,0.0
5160,61.0,2.0,20.0,13.0,0.0
5161,64.0,0.0,120.0,3.0,0.0
5162,52.0,0.0,120.0,3.0,0.0
5163,49.0,17.0,20.0,14.0,0.0
5164,64.0,1.0,20.0,12.0,0.0
5165,57.0,0.0,20.0,13.0,0.0
5166,45.0,3.0,20.0,14.0,0.0
5167,85.0,1.0,15.0,10.0,0.0
5168,73.0,0.0,15.0,11.0,0.0
5169,85.0,2.0,15.0,0.0,0.0
5170,83.0,1.0,30.0,10.0,0.0
5171,83.0,1.0,60.0,1.0,0.0
5172,80.0,0.0,60.0,1.0,0.0
5173,71.0,0.0,30.0,11.0,0.0
5174,83.0,23.0,30.0,0.0,0.0
5175,71.0,0.0,60.0,4.0,0.0
5176,68.0,2.0,20.0,12.0,0.0
5177,64.0,22.0,60.0,5.0,0.0
5178,52.0,2.0,20.0,13.0,0.0
5179,40.0,2.0,20.0,14.0,0.0
5180,64.0,2.0,20.0,12.0,0.0
5181,52.0,2.0,20.0,13.0,0.0
5182,40.0,1.0,20.0,14.0,0.0
5183,88.0,1.0,90.0,10.0,0.0
5184,76.0,0.0,90.0,11.0,0.0
5185,88.0,23.0,90.0,0.0,0.0
5186,68.0,2.0,20.0,12.0,0.0
5187,76.0,0.0,180.0,2.0,0.0
5188,64.0,2.0,180.0,2.0,0.0
5189,56.0,2.0,20.0,13.0,0.0
5190,64.0,0.0,180.0,3.0,0.0
5191,52.0,0.0,180.0,3.0,0.0
5192,44.0,26.0,20.0,14.0,0.0
5193,64.0,2.0,20.0,12.0,0.0
5194,52.0,2.0,20.0,13.0,0.0
5195,40.0,26.0,20.0,14.0,0.0
5196,73.0,0.0,60.0,4.0,0.0
5197,81.0,0.0,60.0,1.0,0.0
5198,85.0,1.0,60.0,1.0,0.0
5199,69.0,2.0,20.0,12.0,0.0
5200,69.0,22.0,60.0,5.0,0.0
5201,57.0,2.0,20.0,13.0,0.0
5202,45.0,2.0,20.0,14.0,0.0
5203,85.0,1.0,30.0,10.0,0.0
5204,73.0,0.0,30.0,11.0,0.0
5205,85.0,0.0,30.0,0.0,0.0
5206,73.0,1.0,20.0,12.0,0.0
5207,61.0,2.0,20.0,13.0,0.0
5208,49.0,3.0,20.0,14.0,0.0
5209,83.0,1.0,30.0,10.0,0.0
5210,83.0,0.0,60.0,1.0,0.0
5211,80.0,1.0,60.0,1.0,0.0
5212,71.0,0.0,60.0,4.0,0.0
5213,71.0,23.0,30.0,11.0,0.0
5214,83.0,0.0,30.0,0.0,0.0
5215,64.0,22.0,60.0,5.0,0.0
5216,76.0,2.0,20.0,12.0,0.0
5217,64.0,2.0,20.0,13.0,0.0
5218,52.0,2.0,20.0,14.0,0.0
5219,64.0,2.0,20.0,12.0,0.0
5220,52.0,2.0,20.0,13.0,0.0
5221,40.0,1.0,20.0,14.0,0.0
5222,78.0,1.0,30.0,10.0,0.0
5223,90.0,0.0,30.0,1.0,0.0
5224,86.0,0.0,30.0,1.0,0.0
5225,74.0,0.0,30.0,11.0,0.0
5226,90.0,1.0,30.0,0.0,0.0
5227,74.0,3.0,30.0,2.0,0.0
5228,78.0,0.0,30.0,2.0,0.0
5229,64.0,2.0,20.0,12.0,0.0
5230,52.0,2.0,20.0,13.0,0.0
5231,66.0,19.0,30.0,3.0,0.0
5232,62.0,0.0,30.0,3.0,0.0
5233,40.0,2.0,20.0,14.0,0.0
5234,76.0,1.0,30.0,10.0,0.0
5235,73.0,0.0,30.0,11.0,0.0
5236,88.0,0.0,30.0,0.0,0.0
5237,88.0,1.0,30.0,1.0,0.0
5238,85.0,0.0,30.0,1.0,0.0
5239,73.0,3.0,30.0,2.0,0.0
5240,76.0,0.0,30.0,2.0,0.0
5241,64.0,2.0,20.0,12.0,0.0
5242,52.0,2.0,20.0,13.0,0.0
5243,61.0,0.0,30.0,3.0,0.0
5244,64.0,19.0,30.0,3.0,0.0
5245,40.0,2.0,20.0,14.0,0.0
5246,74.0,1.0,30.0,10.0,0.0
5247,86.0,0.0,30.0,1.0,0.0
5248,86.0,0.0,30.0,0.0,0.0
5249,71.0,0.0,30.0,11.0,0.0
5250,73.0,1.0,60.0,4.0,0.0
5251,83.0,1.0,30.0,1.0,0.0
5252,71.0,3.0,30.0,2.0,0.0
5253,69.0,0.0,60.0,5.0,0.0
5254,69.0,2.0,20.0,12.0,0.0
5255,74.0,0.0,30.0,2.0,0.0
5256,57.0,2.0,20.0,13.0,0.0
5257,59.0,19.0,30.0,3.0,0.0
5258,62.0,0.0,30.0,3.0,0.0
5259,45.0,2.0,20.0,14.0,0.0
5260,73.0,1.0,30.0,10.0,0.0
5261,85.0,0.0,30.0,1.0,0.0
5262,69.0,2.0,30.0,11.0,0.0
5263,81.0,1.0,30.0,1.0,0.0
5264,85.0,0.0,30.0,0.0,0.0
5265,73.0,1.0,20.0,12.0,0.0
5266,69.0,0.0,30.0,2.0,0.0
5267,73.0,2.0,30.0,2.0,0.0
5268,61.0,0.0,20.0,13.0,0.0
5269,61.0,0.0,30.0,3.0,0.0
5270,57.0,28.0,30.0,3.0,0.0
5271,49.0,0.0,20.0,14.0,0.0
5272,71.0,1.0,30.0,10.0,0.0
5273,68.0,0.0,30.0,11.0,0.0
5274,80.0,0.0,30.0,1.0,0.0
5275,83.0,0.0,30.0,1.0,0.0
5276,83.0,1.0,30.0,0.0,0.0
5277,71.0,0.0,30.0,4.0,0.0
5278,64.0,0.0,30.0,5.0,0.0
5279,76.0,2.0,30.0,12.0,0.0
5280,71.0,0.0,30.0,2.0,0.0
5281,68.0,0.0,30.0,2.0,0.0
5282,64.0,1.0,30.0,13.0,0.0
5283,56.0,1.0,30.0,3.0,0.0
5284,59.0,0.0,30.0,3.0,0.0
5285,52.0,54.0,30.0,14.0,0.0
5286,71.0,1.0,30.0,10.0,0.0
5287,80.0,0.0,30.0,1.0,0.0
5288,83.0,1.0,30.0,1.0,0.0
5289,68.0,0.0,30.0,11.0,0.0
5290,83.0,0.0,30.0,0.0,0.0
5291,71.0,0.0,30.0,4.0,0.0
5292,68.0,2.0,30.0,2.0,0.0
5293,64.0,0.0,30.0,5.0,0.0
5294,71.0,0.0,30.0,2.0,0.0
5295,64.0,0.0,30.0,12.0,0.0
5296,52.0,1.0,30.0,13.0,0.0
5297,56.0,0.0,30.0,3.0,0.0
5298,59.0,1.0,30.0,3.0,0.0
5299,40.0,54.0,30.0,14.0,0.0
5300,71.0,1.0,30.0,10.0,0.0
5301,80.0,0.0,30.0,1.0,0.0
5302,71.0,0.0,30.0,4.0,0.0
5303,68.0,0.0,30.0,11.0,0.0
5304,83.0,0.0,30.0,1.0,0.0
5305,83.0,1.0,30.0,0.0,0.0
5306,64.0,0.0,30.0,12.0,0.0
5307,68.0,0.0,30.0,2.0,0.0
5308,71.0,0.0,30.0,2.0,0.0
5309,64.0,2.0,30.0,5.0,0.0
5310,52.0,1.0,30.0,13.0,0.0
5311,59.0,1.0,30.0,3.0,0.0
5312,56.0,0.0,30.0,3.0,0.0
5313,40.0,84.0,30.0,14.0,0.0
5314,71.0,1.0,60.0,10.0,0.0
5315,80.0,0.0,60.0,1.0,0.0
5316,83.0,0.0,60.0,1.0,0.0
5317,71.0,0.0,60.0,4.0,0.0
5318,83.0,1.0,60.0,0.0,0.0
5319,68.0,0.0,60.0,11.0,0.0
5320,64.0,0.0,60.0,5.0,0.0
5321,64.0,0.0,60.0,12.0,0.0
5322,68.0,2.0,60.0,2.0,0.0
5323,71.0,0.0,60.0,2.0,0.0
5324,52.0,1.0,60.0,13.0,0.0
5325,56.0,0.0,60.0,3.0,0.0
5326,59.0,1.0,60.0,3.0,0.0
5327,40.0,114.0,60.0,14.0,0.0
5328,76.0,30.0,60.0,10.0,0.0
5329,85.0,64.0,30.0,10.0,0.0
5330,70.0,60.0,30.0,13.0,0.0
5331,85.0,1.0,60.0,10.0,0.0
5332,82.0,1.0,60.0,11.0,0.0
5333,76.0,28.0,60.0,12.0,0.0
5334,66.0,26.0,30.0,13.0,0.0
5335,86.0,1.0,30.0,10.0,0.0
5336,83.0,1.0,30.0,11.0,0.0
5337,74.0,2.0,30.0,12.0,0.0
5338,71.0,60.0,30.0,13.0,0.0
5339,59.0,71.0,30.0,13.0,0.0
5340,78.0,1.0,60.0,10.0,0.0
5341,90.0,11.0,60.0,0.0,0.0
5342,74.0,1.0,15.0,10.0,0.0
5343,86.0,32.0,15.0,0.0,0.0
5344,71.0,1.0,30.0,10.0,0.0
5345,83.0,63.0,30.0,0.0,0.0
5346,68.0,60.0,30.0,13.0,0.0
5347,83.0,1.0,60.0,10.0,0.0
5348,80.0,1.0,60.0,11.0,0.0
5349,74.0,28.0,60.0,12.0,0.0
5350,64.0,26.0,30.0,13.0,0.0
5351,85.0,1.0,30.0,10.0,0.0
5352,81.0,1.0,30.0,11.0,0.0
5353,73.0,2.0,30.0,12.0,0.0
5354,69.0,60.0,30.0,13.0,0.0
5355,57.0,71.0,30.0,13.0,0.0
5356,76.0,1.0,60.0,10.0,0.0
5357,88.0,11.0,60.0,0.0,0.0
5358,73.0,1.0,15.0,10.0,0.0
5359,85.0,32.0,15.0,0.0,0.0
5360,69.0,1.0,30.0,10.0,0.0
5361,64.0,0.0,30.0,11.0,0.0
5362,81.0,1.0,30.0,0.0,0.0
5363,61.0,2.0,30.0,12.0,0.0
5364,61.0,71.0,30.0,13.0,0.0
5365,81.0,1.0,60.0,10.0,0.0
5366,76.0,1.0,60.0,11.0,0.0
5367,73.0,2.0,60.0,12.0,0.0
5368,73.0,56.0,60.0,13.0,0.0
5369,81.0,1.0,60.0,10.0,0.0
5370,76.0,1.0,60.0,11.0,0.0
5371,73.0,2.0,60.0,12.0,0.0
5372,73.0,71.0,60.0,13.0,0.0
5373,81.0,1.0,60.0,10.0,0.0
5374,76.0,1.0,60.0,11.0,0.0
5375,73.0,2.0,60.0,12.0,0.0
5376,73.0,56.0,60.0,13.0,0.0
5377,80.0,1.0,60.0,10.0,0.0
5378,74.0,1.0,60.0,11.0,0.0
5379,71.0,2.0,60.0,12.0,0.0
5380,71.0,53.0,60.0,13.0,0.0
5381,81.0,1.0,60.0,10.0,0.0
5382,73.0,1.0,60.0,11.0,0.0
5383,69.0,2.0,60.0,12.0,0.0
5384,69.0,59.0,60.0,13.0,0.0
5385,83.0,1.0,60.0,10.0,0.0
5386,76.0,1.0,60.0,11.0,0.0
5387,68.0,2.0,60.0,12.0,0.0
5388,68.0,58.0,60.0,13.0,0.0
5389,86.0,1.0,60.0,10.0,0.0
5390,83.0,14.0,60.0,11.0,0.0
5391,64.0,2.0,60.0,12.0,0.0
5392,64.0,11.0,60.0,13.0,0.0
5393,69.0,2.0,60.0,12.0,0.0
5394,69.0,31.0,60.0,13.0,0.0
5395,85.0,1.0,15.0,10.0,0.0
5396,81.0,14.0,15.0,11.0,0.0
5397,83.0,1.0,15.0,10.0,0.0
5398,80.0,11.0,15.0,11.0,0.0
5399,85.0,1.0,15.0,10.0,0.0
5400,81.0,1.0,15.0,11.0,0.0
5401,83.0,1.0,60.0,10.0,0.0
5402,80.0,31.0,60.0,11.0,0.0
5403,64.0,2.0,30.0,12.0,0.0
5404,64.0,26.0,30.0,13.0,0.0
5405,52.0,2.0,30.0,12.0,0.0
5406,52.0,87.0,30.0,13.0,0.0
5407,64.0,0.0,60.0,11.0,0.0
5408,76.0,14.0,60.0,0.0,0.0
5409,88.0,16.0,15.0,10.0,0.0
5410,73.0,0.0,30.0,11.0,0.0
5411,85.0,14.0,30.0,0.0,0.0
5412,85.0,30.0,15.0,10.0,0.0
5413,82.0,19.0,15.0,10.0,0.0
5414,58.0,2.0,30.0,13.0,0.0
5415,46.0,9.0,30.0,14.0,0.0
5416,78.0,30.0,15.0,10.0,0.0
5417,76.0,19.0,15.0,10.0,0.0
5418,85.0,0.0,60.0,0.0,0.0
5419,82.0,0.0,60.0,1.0,0.0
5420,73.0,4.0,60.0,11.0,0.0
5421,54.0,2.0,30.0,13.0,0.0
5422,64.0,10.0,60.0,3.0,0.0
5423,66.0,1.0,90.0,3.0,0.0
5424,42.0,9.0,30.0,14.0,0.0
5425,73.0,16.0,15.0,10.0,0.0
5426,74.0,16.0,15.0,10.0,0.0
5427,86.0,0.0,30.0,0.0,0.0
5428,83.0,0.0,30.0,1.0,0.0
5429,74.0,3.0,30.0,11.0,0.0
5430,59.0,1.0,30.0,13.0,0.0
5431,62.0,0.0,30.0,3.0,0.0
5432,47.0,9.0,30.0,14.0,0.0
5433,71.0,45.0,15.0,10.0,0.0
5434,78.0,1.0,30.0,10.0,0.0
5435,78.0,1.0,30.0,1.0,0.0
5436,90.0,0.0,30.0,0.0,0.0
5437,62.0,2.0,30.0,12.0,0.0
5438,47.0,2.0,30.0,13.0,0.0
5439,35.0,24.0,30.0,14.0,0.0
5440,77.0,1.0,30.0,10.0,0.0
5441,77.0,29.0,30.0,1.0,0.0
5442,89.0,0.0,30.0,0.0,0.0
5443,78.0,1.0,30.0,10.0,0.0
5444,90.0,0.0,30.0,0.0,0.0
5445,78.0,1.0,30.0,1.0,0.0
5446,59.0,25.0,30.0,12.0,0.0
5447,74.0,1.0,30.0,10.0,0.0
5448,86.0,17.0,30.0,0.0,0.0
5449,74.0,0.0,30.0,1.0,0.0
5450,86.0,16.0,15.0,10.0,0.0
5451,68.0,0.0,60.0,1.0,0.0
5452,71.0,1.0,60.0,4.0,0.0
5453,71.0,1.0,30.0,11.0,0.0
5454,71.0,0.0,60.0,1.0,0.0
5455,83.0,0.0,60.0,0.0,0.0
5456,68.0,13.0,60.0,2.0,0.0
5457,64.0,13.0,30.0,12.0,0.0
5458,71.0,0.0,60.0,2.0,0.0
5459,64.0,0.0,60.0,5.0,0.0
5460,83.0,16.0,15.0,10.0,0.0
5461,80.0,17.0,15.0,10.0,0.0
5462,52.0,2.0,30.0,12.0,0.0
5463,56.0,2.0,30.0,13.0,0.0
5464,44.0,9.0,30.0,14.0,0.0
5465,76.0,30.0,15.0,10.0,0.0
5466,74.0,19.0,15.0,10.0,0.0
5467,80.0,0.0,60.0,1.0,0.0
5468,71.0,0.0,60.0,11.0,0.0
5469,71.0,0.0,60.0,1.0,0.0
5470,83.0,1.0,60.0,0.0,0.0
5471,71.0,0.0,60.0,4.0,0.0
5472,68.0,0.0,60.0,2.0,0.0
5473,71.0,0.0,60.0,2.0,0.0
5474,64.0,3.0,60.0,5.0,0.0
5475,52.0,2.0,30.0,13.0,0.0
5476,64.0,0.0,90.0,3.0,0.0
5477,62.0,10.0,60.0,3.0,0.0
5478,40.0,9.0,30.0,14.0,0.0
5479,71.0,16.0,15.0,10.0,0.0
5480,73.0,16.0,15.0,10.0,0.0
5481,73.0,0.0,30.0,4.0,0.0
5482,81.0,0.0,30.0,1.0,0.0
5483,73.0,0.0,30.0,1.0,0.0
5484,73.0,1.0,30.0,11.0,0.0
5485,85.0,0.0,30.0,0.0,0.0
5486,69.0,2.0,30.0,2.0,0.0
5487,73.0,0.0,30.0,2.0,0.0
5488,69.0,0.0,30.0,5.0,0.0
5489,57.0,1.0,30.0,13.0,0.0
5490,61.0,1.0,30.0,3.0,0.0
5491,45.0,9.0,30.0,14.0,0.0
5492,69.0,45.0,15.0,10.0,0.0
5493,76.0,1.0,30.0,10.0,0.0
5494,88.0,1.0,30.0,0.0,0.0
5495,76.0,2.0,30.0,2.0,0.0
5496,69.0,0.0,30.0,12.0,0.0
5497,45.0,1.0,30.0,13.0,0.0
5498,64.0,1.0,30.0,3.0,0.0
5499,33.0,24.0,30.0,14.0,0.0
5500,75.0,1.0,30.0,10.0,0.0
5501,87.0,1.0,30.0,0.0,0.0
5502,75.0,3.0,30.0,2.0,0.0
5503,63.0,25.0,30.0,3.0,0.0
5504,76.0,1.0,30.0,10.0,0.0
5505,88.0,1.0,30.0,0.0,0.0
5506,76.0,3.0,30.0,2.0,0.0
5507,64.0,0.0,30.0,12.0,0.0
5508,64.0,22.0,30.0,3.0,0.0
5509,73.0,4.0,30.0,10.0,0.0
5510,85.0,1.0,30.0,0.0,0.0
5511,73.0,3.0,30.0,2.0,0.0
5512,61.0,11.0,30.0,3.0,0.0
5513,69.0,4.0,60.0,10.0,0.0
5514,64.0,16.0,15.0,11.0,0.0
5515,69.0,3.0,60.0,2.0,0.0
5516,61.0,2.0,30.0,12.0,0.0
5517,49.0,2.0,30.0,13.0,0.0
5518,57.0,11.0,60.0,3.0,0.0
5519,37.0,10.0,30.0,14.0,0.0
5520,67.0,11.0,15.0,11.0,0.0
5521,81.0,1.0,60.0,10.0,0.0
5522,64.0,16.0,15.0,11.0,0.0
5523,81.0,1.0,15.0,0.0,0.0
5524,76.0,3.0,60.0,2.0,0.0
5525,61.0,2.0,30.0,12.0,0.0
5526,61.0,2.0,30.0,13.0,0.0
5527,69.0,11.0,60.0,3.0,0.0
5528,49.0,10.0,30.0,14.0,0.0
5529,67.0,14.0,15.0,11.0,0.0
5530,82.0,4.0,60.0,10.0,0.0
5531,64.0,16.0,15.0,11.0,0.0
5532,82.0,1.0,60.0,0.0,0.0
5533,61.0,2.0,30.0,12.0,0.0
5534,79.0,3.0,60.0,2.0,0.0
5535,76.0,0.0,60.0,2.0,0.0
5536,61.0,2.0,30.0,13.0,0.0
5537,70.0,11.0,60.0,3.0,0.0
5538,64.0,0.0,60.0,3.0,0.0
5539,49.0,10.0,30.0,14.0,0.0
5540,67.0,11.0,15.0,11.0,0.0
5541,83.0,1.0,30.0,10.0,0.0
5542,66.0,14.0,15.0,11.0,0.0
5543,83.0,29.0,30.0,0.0,0.0
5544,74.0,0.0,60.0,2.0,0.0
5545,62.0,2.0,120.0,12.0,0.0
5546,78.0,3.0,60.0,2.0,0.0
5547,62.0,2.0,120.0,13.0,0.0
5548,71.0,0.0,60.0,3.0,0.0
5549,66.0,25.0,60.0,3.0,0.0
5550,50.0,24.0,120.0,14.0,0.0
5551,85.0,1.0,30.0,10.0,0.0
5552,85.0,1.0,30.0,0.0,0.0
5553,73.0,0.0,30.0,11.0,0.0
5554,86.0,1.0,30.0,10.0,0.0
5555,86.0,29.0,30.0,0.0,0.0
5556,74.0,0.0,30.0,11.0,0.0
5557,88.0,1.0,30.0,10.0,0.0
5558,76.0,1.0,30.0,11.0,0.0
5559,88.0,0.0,30.0,0.0,0.0
5560,89.0,1.0,30.0,10.0,0.0
5561,89.0,0.0,30.0,0.0,0.0
5562,77.0,26.0,30.0,11.0,0.0
5563,90.0,1.0,30.0,10.0,0.0
5564,90.0,30.0,30.0,0.0,0.0
5565,78.0,3.0,30.0,11.0,0.0
5566,81.0,1.0,90.0,10.0,0.0
5567,73.0,30.0,30.0,11.0,0.0
5568,81.0,0.0,90.0,0.0,0.0
5569,69.0,1.0,120.0,4.0,0.0
5570,61.0,0.0,120.0,5.0,0.0
5571,69.0,29.0,30.0,11.0,0.0
5572,64.0,1.0,30.0,11.0,0.0
5573,64.0,2.0,30.0,12.0,0.0
5574,73.0,3.0,60.0,2.0,0.0
5575,69.0,0.0,60.0,2.0,0.0
5576,64.0,2.0,30.0,13.0,0.0
5577,61.0,0.0,60.0,3.0,0.0
5578,52.0,2.0,30.0,14.0,0.0
5579,83.0,1.0,15.0,10.0,0.0
5580,83.0,6.0,15.0,0.0,0.0
5581,61.0,0.0,30.0,11.0,0.0
5582,81.0,1.0,15.0,10.0,0.0
5583,81.0,7.0,15.0,0.0,0.0
5584,80.0,1.0,15.0,10.0,0.0
5585,80.0,6.0,15.0,0.0,0.0
5586,81.0,1.0,15.0,10.0,0.0
5587,81.0,0.0,15.0,0.0,0.0
5588,83.0,1.0,60.0,10.0,0.0
5589,62.0,1.0,30.0,11.0,0.0
5590,83.0,6.0,60.0,0.0,0.0
5591,71.0,1.0,60.0,4.0,0.0
5592,68.0,0.0,60.0,2.0,0.0
5593,52.0,2.0,30.0,12.0,0.0
5594,64.0,3.0,60.0,5.0,0.0
5595,74.0,0.0,60.0,2.0,0.0
5596,52.0,2.0,30.0,13.0,0.0
5597,64.0,26.0,15.0,3.0,0.0
5598,62.0,0.0,60.0,3.0,0.0
5599,40.0,9.0,30.0,14.0,0.0
5600,64.0,3.0,30.0,11.0,0.0
5601,80.0,1.0,15.0,10.0,0.0
5602,80.0,5.0,15.0,0.0,0.0
5603,81.0,33.0,20.0,10.0,0.0
5604,69.0,1.0,60.0,4.0,0.0
5605,81.0,0.0,60.0,0.0,0.0
5606,61.0,0.0,60.0,11.0,0.0
5607,73.0,0.0,60.0,2.0,0.0
5608,61.0,2.0,60.0,5.0,0.0
5609,69.0,0.0,60.0,2.0,0.0
5610,57.0,0.0,60.0,12.0,0.0
5611,57.0,1.0,60.0,13.0,0.0
5612,61.0,0.0,60.0,3.0,0.0
5613,64.0,18.0,15.0,3.0,0.0
5614,45.0,48.0,60.0,14.0,0.0
5615,88.0,5.0,15.0,10.0,0.0
5616,88.0,6.0,150.0,10.0,0.0
5617,80.0,1.0,15.0,11.0,0.0
5618,71.0,2.0,15.0,12.0,0.0
5619,62.0,2.0,15.0,13.0,0.0
5620,50.0,25.0,15.0,14.0,0.0
5621,81.0,1.0,20.0,11.0,0.0
5622,73.0,2.0,20.0,12.0,0.0
5623,61.0,2.0,20.0,13.0,0.0
5624,49.0,25.0,20.0,14.0,0.0
5625,83.0,1.0,15.0,11.0,0.0
5626,74.0,2.0,15.0,12.0,0.0
5627,59.0,2.0,15.0,13.0,0.0
5628,47.0,26.0,15.0,14.0,0.0
5629,81.0,1.0,30.0,11.0,0.0
5630,73.0,2.0,30.0,12.0,0.0
5631,57.0,2.0,30.0,13.0,0.0
5632,45.0,20.0,30.0,14.0,0.0
5633,85.0,58.0,15.0,10.0,0.0
5634,85.0,6.0,150.0,10.0,0.0
5635,80.0,1.0,15.0,11.0,0.0
5636,77.0,2.0,15.0,12.0,0.0
5637,71.0,2.0,15.0,13.0,0.0
5638,59.0,25.0,15.0,14.0,0.0
5639,81.0,1.0,20.0,11.0,0.0
5640,78.0,2.0,20.0,12.0,0.0
5641,69.0,2.0,20.0,13.0,0.0
5642,57.0,25.0,20.0,14.0,0.0
5643,83.0,1.0,15.0,11.0,0.0
5644,80.0,2.0,15.0,12.0,0.0
5645,65.0,2.0,15.0,13.0,0.0
5646,53.0,26.0,15.0,14.0,0.0
5647,81.0,1.0,30.0,11.0,0.0
5648,78.0,2.0,30.0,12.0,0.0
5649,66.0,2.0,30.0,13.0,0.0
5650,54.0,20.0,30.0,14.0,0.0
5651,81.0,58.0,15.0,10.0,0.0
5652,81.0,24.0,90.0,10.0,0.0
5653,76.0,1.0,15.0,11.0,0.0
5654,73.0,2.0,15.0,12.0,0.0
5655,67.0,2.0,15.0,13.0,0.0
5656,55.0,25.0,15.0,14.0,0.0
5657,78.0,1.0,20.0,11.0,0.0
5658,74.0,2.0,20.0,12.0,0.0
5659,66.0,2.0,20.0,13.0,0.0
5660,54.0,1.0,20.0,14.0,0.0
5661,82.0,2.0,30.0,10.0,0.0
5662,79.0,1.0,15.0,11.0,0.0
5663,76.0,2.0,15.0,12.0,0.0
5664,61.0,0.0,15.0,13.0,0.0
5665,49.0,21.0,15.0,14.0,0.0
5666,83.0,4.0,20.0,10.0,0.0
5667,78.0,1.0,20.0,11.0,0.0
5668,74.0,2.0,20.0,12.0,0.0
5669,62.0,2.0,20.0,13.0,0.0
5670,50.0,8.0,20.0,14.0,0.0
5671,86.0,13.0,15.0,10.0,0.0
5672,90.0,4.0,15.0,10.0,0.0
5673,74.0,1.0,15.0,11.0,0.0
5674,71.0,2.0,15.0,12.0,0.0
5675,59.0,2.0,15.0,13.0,0.0
5676,47.0,31.0,15.0,14.0,0.0
5677,81.0,1.0,30.0,10.0,0.0
5678,73.0,1.0,30.0,11.0,0.0
5679,69.0,2.0,30.0,12.0,0.0
5680,64.0,2.0,30.0,13.0,0.0
5681,52.0,30.0,30.0,14.0,0.0
5682,80.0,6.0,15.0,10.0,0.0
5683,74.0,1.0,30.0,11.0,0.0
5684,71.0,2.0,30.0,12.0,0.0
5685,52.0,2.0,30.0,13.0,0.0
5686,40.0,6.0,30.0,14.0,0.0
5687,81.0,6.0,15.0,10.0,0.0
5688,80.0,6.0,15.0,10.0,0.0
5689,81.0,6.0,15.0,10.0,0.0
5690,80.0,1.0,15.0,10.0,0.0
5691,81.0,0.0,15.0,10.0,0.0
5692,80.0,6.0,15.0,10.0,0.0
5693,81.0,6.0,15.0,10.0,0.0
5694,80.0,52.0,15.0,10.0,0.0
5695,81.0,1.0,60.0,10.0,0.0
5696,81.0,0.0,60.0,1.0,0.0
5697,81.0,0.0,60.0,0.0,0.0
5698,69.0,0.0,60.0,1.0,0.0
5699,69.0,1.0,60.0,4.0,0.0
5700,73.0,0.0,60.0,11.0,0.0
5701,69.0,2.0,60.0,12.0,0.0
5702,69.0,3.0,60.0,2.0,0.0
5703,57.0,0.0,60.0,5.0,0.0
5704,57.0,2.0,60.0,13.0,0.0
5705,57.0,7.0,60.0,3.0,0.0
5706,45.0,47.0,60.0,14.0,0.0
5707,76.0,0.0,15.0,1.0,0.0
5708,88.0,0.0,15.0,1.0,0.0
5709,76.0,0.0,15.0,4.0,0.0
5710,88.0,1.0,15.0,0.0,0.0
5711,64.0,0.0,15.0,5.0,0.0
5712,76.0,0.0,15.0,2.0,0.0
5713,64.0,2.0,15.0,2.0,0.0
5714,64.0,0.0,15.0,3.0,0.0
5715,52.0,1.0,15.0,3.0,0.0
5716,76.0,0.0,180.0,1.0,0.0
5717,88.0,0.0,180.0,1.0,0.0
5718,76.0,1.0,180.0,4.0,0.0
5719,88.0,0.0,180.0,0.0,0.0
5720,64.0,3.0,180.0,2.0,0.0
5721,64.0,0.0,180.0,5.0,0.0
5722,76.0,0.0,180.0,2.0,0.0
5723,64.0,0.0,180.0,3.0,0.0
5724,52.0,7.0,180.0,3.0,0.0
5725,83.0,1.0,15.0,10.0,0.0
5726,68.0,1.0,15.0,11.0,0.0
5727,64.0,2.0,15.0,12.0,0.0
5728,52.0,0.0,15.0,12.0,0.0
5729,62.0,2.0,15.0,13.0,0.0
5730,50.0,24.0,15.0,14.0,0.0
5731,85.0,1.0,20.0,10.0,0.0
5732,69.0,1.0,20.0,11.0,0.0
5733,52.0,0.0,20.0,12.0,0.0
5734,64.0,2.0,20.0,12.0,0.0
5735,61.0,2.0,20.0,13.0,0.0
5736,49.0,24.0,20.0,14.0,0.0
5737,86.0,1.0,15.0,10.0,0.0
5738,71.0,1.0,15.0,11.0,0.0
5739,64.0,2.0,15.0,12.0,0.0
5740,52.0,0.0,15.0,12.0,0.0
5741,59.0,2.0,15.0,13.0,0.0
5742,47.0,31.0,15.0,14.0,0.0
5743,85.0,1.0,30.0,10.0,0.0
5744,69.0,1.0,30.0,11.0,0.0
5745,64.0,2.0,30.0,12.0,0.0
5746,52.0,0.0,30.0,12.0,0.0
5747,57.0,2.0,30.0,13.0,0.0
5748,45.0,10.0,30.0,14.0,0.0
5749,73.0,0.0,15.0,1.0,0.0
5750,85.0,0.0,15.0,1.0,0.0
5751,73.0,1.0,15.0,4.0,0.0
5752,85.0,0.0,15.0,0.0,0.0
5753,61.0,0.0,15.0,5.0,0.0
5754,61.0,3.0,15.0,2.0,0.0
5755,73.0,0.0,15.0,2.0,0.0
5756,49.0,0.0,15.0,3.0,0.0
5757,61.0,52.0,15.0,3.0,0.0
5758,85.0,1.0,180.0,0.0,0.0
5759,73.0,0.0,180.0,4.0,0.0
5760,73.0,3.0,180.0,2.0,0.0
5761,61.0,7.0,180.0,3.0,0.0
5762,49.0,0.0,180.0,3.0,0.0
5763,80.0,1.0,15.0,10.0,0.0
5764,65.0,1.0,15.0,11.0,0.0
5765,61.0,2.0,15.0,12.0,0.0
5766,59.0,2.0,15.0,13.0,0.0
5767,47.0,24.0,15.0,14.0,0.0
5768,81.0,1.0,20.0,10.0,0.0
5769,66.0,1.0,20.0,11.0,0.0
5770,61.0,2.0,20.0,12.0,0.0
5771,73.0,0.0,20.0,12.0,0.0
5772,57.0,2.0,20.0,13.0,0.0
5773,45.0,24.0,20.0,14.0,0.0
5774,83.0,1.0,15.0,10.0,0.0
5775,68.0,1.0,15.0,11.0,0.0
5776,61.0,0.0,15.0,12.0,0.0
5777,73.0,2.0,15.0,12.0,0.0
5778,53.0,2.0,15.0,13.0,0.0
5779,41.0,31.0,15.0,14.0,0.0
5780,81.0,1.0,30.0,10.0,0.0
5781,66.0,1.0,30.0,11.0,0.0
5782,61.0,2.0,30.0,12.0,0.0
5783,73.0,0.0,30.0,12.0,0.0
5784,54.0,2.0,30.0,13.0,0.0
5785,42.0,10.0,30.0,14.0,0.0
5786,85.0,0.0,15.0,1.0,0.0
5787,73.0,0.0,15.0,1.0,0.0
5788,73.0,1.0,15.0,4.0,0.0
5789,85.0,0.0,15.0,0.0,0.0
5790,61.0,0.0,15.0,5.0,0.0
5791,61.0,0.0,15.0,2.0,0.0
5792,73.0,0.0,15.0,2.0,0.0
5793,49.0,52.0,15.0,3.0,0.0
5794,61.0,0.0,15.0,3.0,0.0
5795,85.0,0.0,150.0,0.0,0.0
5796,73.0,1.0,150.0,4.0,0.0
5797,85.0,0.0,150.0,1.0,0.0
5798,73.0,0.0,150.0,1.0,0.0
5799,61.0,0.0,150.0,5.0,0.0
5800,61.0,2.0,150.0,2.0,0.0
5801,73.0,0.0,150.0,2.0,0.0
5802,49.0,1.0,150.0,3.0,0.0
5803,61.0,0.0,150.0,3.0,0.0
5804,80.0,1.0,15.0,10.0,0.0
5805,73.0,0.0,15.0,10.0,0.0
5806,77.0,1.0,15.0,11.0,0.0
5807,73.0,0.0,15.0,12.0,0.0
5808,61.0,2.0,15.0,12.0,0.0
5809,59.0,2.0,15.0,13.0,0.0
5810,47.0,24.0,15.0,14.0,0.0
5811,73.0,0.0,20.0,10.0,0.0
5812,81.0,1.0,20.0,10.0,0.0
5813,78.0,1.0,20.0,11.0,0.0
5814,61.0,2.0,20.0,12.0,0.0
5815,73.0,0.0,20.0,12.0,0.0
5816,57.0,2.0,20.0,13.0,0.0
5817,45.0,24.0,20.0,14.0,0.0
5818,83.0,0.0,15.0,10.0,0.0
5819,73.0,1.0,15.0,10.0,0.0
5820,80.0,1.0,15.0,11.0,0.0
5821,73.0,0.0,15.0,12.0,0.0
5822,61.0,2.0,15.0,12.0,0.0
5823,53.0,2.0,15.0,13.0,0.0
5824,41.0,31.0,15.0,14.0,0.0
5825,81.0,0.0,30.0,10.0,0.0
5826,73.0,1.0,30.0,10.0,0.0
5827,78.0,0.0,30.0,11.0,0.0
5828,61.0,0.0,30.0,12.0,0.0
5829,73.0,0.0,30.0,12.0,0.0
5830,54.0,1.0,30.0,13.0,0.0
5831,42.0,144.0,30.0,14.0,0.0
5832,85.0,1.0,120.0,10.0,0.0
5833,85.0,0.0,120.0,0.0,0.0
5834,73.0,1.0,120.0,1.0,0.0
5835,79.0,0.0,120.0,1.0,0.0
5836,69.0,1.0,150.0,4.0,0.0
5837,79.0,0.0,120.0,11.0,0.0
5838,69.0,0.0,150.0,12.0,0.0
5839,57.0,0.0,150.0,5.0,0.0
5840,73.0,0.0,120.0,2.0,0.0
5841,76.0,2.0,120.0,2.0,0.0
5842,64.0,1.0,120.0,13.0,0.0
5843,69.0,1.0,150.0,3.0,0.0
5844,67.0,1.0,120.0,3.0,0.0
5845,52.0,24.0,120.0,14.0,0.0
5846,86.0,1.0,30.0,10.0,0.0
5847,86.0,0.0,30.0,0.0,0.0
5848,78.0,0.0,30.0,1.0,0.0
5849,74.0,0.0,30.0,1.0,0.0
5850,78.0,0.0,30.0,11.0,0.0
5851,78.0,0.0,30.0,2.0,0.0
5852,74.0,2.0,30.0,2.0,0.0
5853,62.0,1.0,30.0,13.0,0.0
5854,50.0,144.0,30.0,14.0,0.0
5855,87.0,1.0,120.0,10.0,0.0
5856,81.0,0.0,120.0,1.0,0.0
5857,75.0,1.0,120.0,1.0,0.0
5858,81.0,0.0,120.0,11.0,0.0
5859,87.0,0.0,120.0,0.0,0.0
5860,75.0,2.0,120.0,2.0,0.0
5861,66.0,0.0,120.0,12.0,0.0
5862,78.0,0.0,120.0,12.0,0.0
5863,78.0,0.0,120.0,2.0,0.0
5864,59.0,1.0,120.0,13.0,0.0
5865,69.0,0.0,120.0,3.0,0.0
5866,59.0,1.0,120.0,3.0,0.0
5867,47.0,24.0,120.0,14.0,0.0
5868,88.0,1.0,30.0,10.0,0.0
5869,88.0,0.0,30.0,0.0,0.0
5870,80.0,0.0,30.0,1.0,0.0
5871,76.0,0.0,30.0,1.0,0.0
5872,80.0,1.0,30.0,11.0,0.0
5873,71.0,0.0,30.0,12.0,0.0
5874,76.0,0.0,30.0,2.0,0.0
5875,80.0,2.0,30.0,2.0,0.0
5876,64.0,1.0,30.0,13.0,0.0
5877,64.0,1.0,30.0,3.0,0.0
5878,68.0,0.0,30.0,3.0,0.0
5879,52.0,144.0,30.0,14.0,0.0
5880,89.0,1.0,120.0,10.0,0.0
5881,83.0,0.0,150.0,11.0,0.0
5882,77.0,0.0,120.0,1.0,0.0
5883,83.0,1.0,150.0,1.0,0.0
5884,89.0,1.0,120.0,0.0,0.0
5885,68.0,2.0,120.0,12.0,0.0
5886,80.0,0.0,120.0,2.0,0.0
5887,77.0,0.0,120.0,2.0,0.0
5888,61.0,1.0,120.0,13.0,0.0
5889,61.0,1.0,120.0,3.0,0.0
5890,71.0,1.0,150.0,3.0,0.0
5891,49.0,14.0,120.0,14.0,0.0
5892,90.0,1.0,20.0,10.0,0.0
5893,78.0,0.0,30.0,1.0,0.0
5894,90.0,1.0,20.0,0.0,0.0
5895,78.0,2.0,30.0,2.0,0.0
5896,66.0,9.0,20.0,12.0,0.0
5897,62.0,1.0,30.0,13.0,0.0
5898,62.0,0.0,30.0,3.0,0.0
5899,50.0,1.0,30.0,14.0,0.0
5900,86.0,1.0,15.0,10.0,0.0
5901,78.0,0.0,15.0,11.0,0.0
5902,86.0,1.0,15.0,0.0,0.0
5903,71.0,11.0,15.0,12.0,0.0
5904,83.0,1.0,15.0,10.0,0.0
5905,78.0,0.0,15.0,11.0,0.0
5906,83.0,1.0,15.0,0.0,0.0
5907,74.0,38.0,15.0,12.0,0.0
5908,81.0,1.0,30.0,10.0,0.0
5909,73.0,1.0,60.0,1.0,0.0
5910,76.0,1.0,120.0,1.0,0.0
5911,81.0,0.0,30.0,0.0,0.0
5912,69.0,0.0,60.0,4.0,0.0
5913,73.0,1.0,30.0,11.0,0.0
5914,69.0,0.0,60.0,2.0,0.0
5915,76.0,2.0,30.0,12.0,0.0
5916,73.0,0.0,60.0,2.0,0.0
5917,61.0,4.0,60.0,5.0,0.0
5918,64.0,2.0,30.0,13.0,0.0
5919,64.0,0.0,60.0,3.0,0.0
5920,52.0,25.0,30.0,14.0,0.0
5921,80.0,1.0,15.0,10.0,0.0
5922,80.0,5.0,15.0,0.0,0.0
5923,71.0,1.0,60.0,4.0,0.0
5924,74.0,0.0,60.0,1.0,0.0
5925,74.0,1.0,30.0,11.0,0.0
5926,74.0,2.0,60.0,2.0,0.0
5927,71.0,0.0,60.0,2.0,0.0
5928,64.0,2.0,30.0,12.0,0.0
5929,64.0,47.0,60.0,5.0,0.0
5930,52.0,2.0,30.0,13.0,0.0
5931,52.0,0.0,60.0,3.0,0.0
5932,81.0,1.0,15.0,10.0,0.0
5933,40.0,1.0,30.0,14.0,0.0
5934,81.0,5.0,15.0,0.0,0.0
5935,80.0,1.0,15.0,10.0,0.0
5936,80.0,5.0,15.0,0.0,0.0
5937,81.0,1.0,15.0,10.0,0.0
5938,81.0,5.0,15.0,0.0,0.0
5939,80.0,1.0,15.0,10.0,0.0
5940,80.0,0.0,15.0,0.0,0.0
5941,81.0,0.0,15.0,10.0,0.0
5942,81.0,5.0,15.0,0.0,0.0
5943,80.0,1.0,15.0,10.0,0.0
5944,80.0,5.0,15.0,0.0,0.0
5945,81.0,1.0,15.0,10.0,0.0
5946,81.0,5.0,15.0,0.0,0.0
5947,80.0,1.0,15.0,10.0,0.0
5948,80.0,3.0,15.0,0.0,0.0
5949,81.0,1.0,60.0,10.0,0.0
5950,81.0,0.0,60.0,0.0,0.0
5951,73.0,0.0,60.0,11.0,0.0
5952,76.0,1.0,60.0,1.0,0.0
5953,73.0,0.0,60.0,1.0,0.0
5954,69.0,0.0,60.0,4.0,0.0
5955,73.0,2.0,60.0,2.0,0.0
5956,64.0,0.0,60.0,12.0,0.0
5957,61.0,0.0,60.0,5.0,0.0
5958,69.0,0.0,60.0,2.0,0.0
5959,52.0,11.0,60.0,15.0,0.0
5960,57.0,0.0,60.0,13.0,0.0
5961,57.0,1.0,60.0,3.0,0.0
5962,45.0,40.0,60.0,14.0,0.0
5963,76.0,0.0,60.0,6.0,0.0
5964,64.0,0.0,60.0,4.0,0.0
5965,64.0,1.0,60.0,6.0,0.0
5966,52.0,2.0,60.0,5.0,0.0
5967,52.0,1.0,15.0,15.0,0.0
5968,52.0,15.0,15.0,15.0,0.0
5969,64.0,1.0,60.0,4.0,0.0
5970,64.0,0.0,60.0,6.0,0.0
5971,76.0,0.0,60.0,6.0,0.0
5972,52.0,2.0,60.0,5.0,0.0
5973,52.0,15.0,15.0,15.0,0.0
5974,86.0,20.0,15.0,10.0,0.0
5975,64.0,1.0,60.0,4.0,0.0
5976,59.0,1.0,60.0,11.0,0.0
5977,68.0,0.0,60.0,11.0,0.0
5978,62.0,2.0,60.0,12.0,0.0
5979,52.0,2.0,60.0,5.0,0.0
5980,52.0,0.0,60.0,13.0,0.0
5981,52.0,6.0,15.0,15.0,0.0
5982,40.0,4.0,60.0,14.0,0.0
5983,85.0,16.0,15.0,10.0,0.0
5984,88.0,11.0,15.0,10.0,0.0
5985,52.0,2.0,15.0,15.0,0.0
5986,86.0,20.0,15.0,10.0,0.0
5987,64.0,1.0,60.0,4.0,0.0
5988,86.0,0.0,60.0,1.0,0.0
5989,80.0,1.0,60.0,1.0,0.0
5990,80.0,0.0,60.0,2.0,0.0
5991,74.0,2.0,60.0,2.0,0.0
5992,52.0,2.0,60.0,5.0,0.0
5993,52.0,1.0,60.0,15.0,0.0
5994,71.0,0.0,60.0,3.0,0.0
5995,64.0,5.0,60.0,3.0,0.0
5996,85.0,16.0,15.0,10.0,0.0
5997,83.0,11.0,15.0,10.0,0.0
5998,52.0,1.0,15.0,15.0,0.0
5999,81.0,20.0,15.0,10.0,0.0
6000,59.0,1.0,60.0,11.0,0.0
6001,68.0,0.0,60.0,11.0,0.0
6002,62.0,2.0,60.0,12.0,0.0
6003,52.0,0.0,60.0,13.0,0.0
6004,40.0,4.0,60.0,14.0,0.0
6005,80.0,19.0,15.0,10.0,0.0
6006,83.0,11.0,15.0,10.0,0.0
6007,52.0,1.0,15.0,15.0,0.0
6008,81.0,20.0,15.0,10.0,0.0
6009,85.0,1.0,60.0,1.0,0.0
6010,81.0,0.0,60.0,1.0,0.0
6011,64.0,0.0,60.0,4.0,0.0
6012,73.0,2.0,60.0,2.0,0.0
6013,81.0,0.0,60.0,2.0,0.0
6014,52.0,0.0,60.0,5.0,0.0
6015,52.0,2.0,15.0,15.0,0.0
6016,69.0,0.0,60.0,3.0,0.0
6017,64.0,5.0,60.0,3.0,0.0
6018,85.0,19.0,15.0,10.0,0.0
6019,83.0,11.0,15.0,10.0,0.0
6020,81.0,1.0,15.0,10.0,0.0
6021,93.0,19.0,15.0,0.0,0.0
6022,61.0,0.0,60.0,11.0,0.0
6023,69.0,1.0,60.0,11.0,0.0
6024,64.0,2.0,60.0,12.0,0.0
6025,52.0,0.0,60.0,13.0,0.0
6026,52.0,1.0,15.0,15.0,0.0
6027,40.0,4.0,60.0,14.0,0.0
6028,80.0,1.0,15.0,10.0,0.0
6029,92.0,18.0,15.0,0.0,0.0
6030,78.0,1.0,15.0,10.0,0.0
6031,90.0,10.0,15.0,0.0,0.0
6032,76.0,1.0,15.0,10.0,0.0
6033,88.0,19.0,15.0,0.0,0.0
6034,81.0,0.0,60.0,1.0,0.0
6035,64.0,1.0,60.0,4.0,0.0
6036,85.0,0.0,60.0,1.0,0.0
6037,52.0,0.0,60.0,5.0,0.0
6038,73.0,0.0,60.0,2.0,0.0
6039,81.0,2.0,60.0,2.0,0.0
6040,52.0,2.0,15.0,15.0,0.0
6041,69.0,0.0,60.0,3.0,0.0
6042,64.0,5.0,60.0,3.0,0.0
6043,75.0,1.0,15.0,10.0,0.0
6044,87.0,18.0,15.0,0.0,0.0
6045,78.0,1.0,15.0,10.0,0.0
6046,90.0,10.0,15.0,0.0,0.0
6047,52.0,1.0,15.0,15.0,0.0
6048,76.0,1.0,15.0,10.0,0.0
6049,64.0,0.0,60.0,11.0,0.0
6050,88.0,19.0,15.0,0.0,0.0
6051,71.0,1.0,60.0,11.0,0.0
6052,68.0,2.0,60.0,12.0,0.0
6053,52.0,1.0,15.0,15.0,0.0
6054,52.0,2.0,60.0,13.0,0.0
6055,40.0,4.0,60.0,14.0,0.0
6056,75.0,1.0,15.0,10.0,0.0
6057,87.0,18.0,15.0,0.0,0.0
6058,78.0,1.0,15.0,10.0,0.0
6059,90.0,10.0,15.0,0.0,0.0
6060,52.0,0.0,15.0,15.0,0.0
6061,76.0,1.0,15.0,10.0,0.0
6062,64.0,0.0,60.0,4.0,0.0
6063,88.0,19.0,15.0,0.0,0.0
6064,74.0,0.0,60.0,1.0,0.0
6065,80.0,1.0,60.0,1.0,0.0
6066,76.0,2.0,60.0,2.0,0.0
6067,71.0,0.0,60.0,2.0,0.0
6068,52.0,0.0,60.0,5.0,0.0
6069,52.0,1.0,60.0,15.0,0.0
6070,68.0,5.0,60.0,3.0,0.0
6071,62.0,0.0,60.0,3.0,0.0
6072,78.0,1.0,15.0,10.0,0.0
6073,90.0,18.0,15.0,0.0,0.0
6074,76.0,1.0,15.0,10.0,0.0
6075,88.0,10.0,15.0,0.0,0.0
6076,74.0,1.0,15.0,10.0,0.0
6077,86.0,19.0,15.0,0.0,0.0
6078,64.0,1.0,60.0,11.0,0.0
6079,71.0,0.0,60.0,11.0,0.0
6080,68.0,2.0,60.0,12.0,0.0
6081,52.0,1.0,15.0,15.0,0.0
6082,52.0,2.0,60.0,13.0,0.0
6083,40.0,4.0,60.0,14.0,0.0
6084,73.0,1.0,15.0,10.0,0.0
6085,85.0,18.0,15.0,0.0,0.0
6086,71.0,1.0,15.0,10.0,0.0
6087,83.0,10.0,15.0,0.0,0.0
6088,52.0,1.0,15.0,15.0,0.0
6089,69.0,1.0,15.0,10.0,0.0
6090,81.0,19.0,15.0,0.0,0.0
6091,64.0,0.0,60.0,4.0,0.0
6092,73.0,0.0,60.0,1.0,0.0
6093,81.0,0.0,60.0,1.0,0.0
6094,52.0,2.0,60.0,5.0,0.0
6095,76.0,0.0,60.0,2.0,0.0
6096,69.0,0.0,60.0,2.0,0.0
6097,52.0,1.0,60.0,15.0,0.0
6098,61.0,0.0,60.0,3.0,0.0
6099,69.0,5.0,60.0,3.0,0.0
6100,73.0,1.0,15.0,10.0,0.0
6101,85.0,18.0,15.0,0.0,0.0
6102,74.0,1.0,15.0,10.0,0.0
6103,86.0,10.0,15.0,0.0,0.0
6104,52.0,1.0,15.0,15.0,0.0
6105,76.0,1.0,15.0,10.0,0.0
6106,88.0,19.0,15.0,0.0,0.0
6107,64.0,0.0,60.0,11.0,0.0
6108,73.0,1.0,60.0,11.0,0.0
6109,76.0,1.0,15.0,6.0,0.0
6110,64.0,0.0,15.0,6.0,0.0
6111,69.0,2.0,60.0,12.0,0.0
6112,52.0,2.0,60.0,13.0,0.0
6113,52.0,1.0,60.0,15.0,0.0
6114,40.0,4.0,60.0,14.0,0.0
6115,78.0,1.0,15.0,10.0,0.0
6116,90.0,18.0,15.0,0.0,0.0
6117,80.0,1.0,15.0,10.0,0.0
6118,92.0,10.0,15.0,0.0,0.0
6119,52.0,0.0,15.0,15.0,0.0
6120,81.0,20.0,15.0,10.0,0.0
6121,76.0,0.0,60.0,6.0,0.0
6122,64.0,0.0,60.0,4.0,0.0
6123,93.0,0.0,60.0,0.0,0.0
6124,81.0,1.0,60.0,1.0,0.0
6125,73.0,0.0,60.0,1.0,0.0
6126,76.0,0.0,60.0,2.0,0.0
6127,69.0,2.0,60.0,2.0,0.0
6128,52.0,0.0,60.0,5.0,0.0
6129,69.0,0.0,60.0,3.0,0.0
6130,61.0,5.0,60.0,3.0,0.0
6131,83.0,19.0,15.0,10.0,0.0
6132,85.0,11.0,15.0,10.0,0.0
6133,52.0,1.0,15.0,15.0,0.0
6134,86.0,20.0,15.0,10.0,0.0
6135,64.0,0.0,15.0,6.0,0.0
6136,59.0,0.0,60.0,11.0,0.0
6137,76.0,0.0,420.0,6.0,0.0
6138,68.0,1.0,60.0,11.0,0.0
6139,62.0,2.0,60.0,12.0,0.0
6140,52.0,1.0,15.0,15.0,0.0
6141,52.0,2.0,60.0,13.0,0.0
6142,40.0,4.0,60.0,14.0,0.0
6143,86.0,19.0,15.0,10.0,0.0
6144,86.0,11.0,15.0,10.0,0.0
6145,86.0,20.0,15.0,10.0,0.0
6146,86.0,0.0,60.0,1.0,0.0
6147,80.0,1.0,60.0,1.0,0.0
6148,64.0,0.0,60.0,4.0,0.0
6149,74.0,0.0,60.0,2.0,0.0
6150,80.0,2.0,60.0,2.0,0.0
6151,52.0,0.0,60.0,5.0,0.0
6152,52.0,0.0,15.0,15.0,0.0
6153,71.0,5.0,60.0,3.0,0.0
6154,64.0,0.0,60.0,3.0,0.0
6155,85.0,19.0,15.0,10.0,0.0
6156,83.0,11.0,15.0,10.0,0.0
6157,52.0,1.0,15.0,15.0,0.0
6158,81.0,20.0,15.0,10.0,0.0
6159,68.0,0.0,60.0,11.0,0.0
6160,59.0,1.0,60.0,11.0,0.0
6161,62.0,2.0,60.0,12.0,0.0
6162,52.0,1.0,15.0,15.0,0.0
6163,52.0,0.0,60.0,13.0,0.0
6164,40.0,4.0,60.0,14.0,0.0
6165,80.0,19.0,15.0,10.0,0.0
6166,83.0,11.0,15.0,10.0,0.0
6167,52.0,1.0,15.0,15.0,0.0
6168,81.0,1.0,15.0,10.0,0.0
6169,93.0,19.0,15.0,0.0,0.0
6170,64.0,0.0,60.0,4.0,0.0
6171,81.0,1.0,60.0,1.0,0.0
6172,85.0,0.0,60.0,1.0,0.0
6173,73.0,0.0,60.0,2.0,0.0
6174,81.0,2.0,60.0,2.0,0.0
6175,52.0,0.0,60.0,5.0,0.0
6176,52.0,2.0,15.0,15.0,0.0
6177,69.0,0.0,60.0,3.0,0.0
6178,64.0,5.0,60.0,3.0,0.0
6179,81.0,1.0,15.0,10.0,0.0
6180,93.0,18.0,15.0,0.0,0.0
6181,81.0,1.0,15.0,10.0,0.0
6182,93.0,10.0,15.0,0.0,0.0
6183,52.0,1.0,15.0,15.0,0.0
6184,81.0,1.0,15.0,10.0,0.0
6185,69.0,0.0,60.0,11.0,0.0
6186,93.0,19.0,15.0,0.0,0.0
6187,61.0,1.0,60.0,11.0,0.0
6188,64.0,2.0,60.0,12.0,0.0
6189,52.0,2.0,60.0,13.0,0.0
6190,52.0,1.0,60.0,15.0,0.0
6191,40.0,4.0,60.0,14.0,0.0
6192,80.0,1.0,15.0,10.0,0.0
6193,92.0,18.0,15.0,0.0,0.0
6194,78.0,1.0,15.0,10.0,0.0
6195,90.0,10.0,15.0,0.0,0.0
6196,76.0,1.0,15.0,10.0,0.0
6197,64.0,0.0,60.0,4.0,0.0
6198,81.0,0.0,60.0,1.0,0.0
6199,85.0,1.0,60.0,1.0,0.0
6200,88.0,19.0,15.0,0.0,0.0
6201,81.0,0.0,60.0,2.0,0.0
6202,52.0,2.0,60.0,5.0,0.0
6203,73.0,0.0,60.0,2.0,0.0
6204,52.0,0.0,15.0,15.0,0.0
6205,64.0,0.0,60.0,3.0,0.0
6206,69.0,5.0,60.0,3.0,0.0
6207,75.0,1.0,15.0,10.0,0.0
6208,87.0,18.0,15.0,0.0,0.0
6209,78.0,1.0,15.0,10.0,0.0
6210,90.0,10.0,15.0,0.0,0.0
6211,52.0,1.0,15.0,15.0,0.0
6212,76.0,1.0,15.0,10.0,0.0
6213,88.0,19.0,15.0,0.0,0.0
6214,71.0,0.0,60.0,11.0,0.0
6215,62.0,1.0,60.0,11.0,0.0
6216,68.0,2.0,60.0,12.0,0.0
6217,52.0,2.0,60.0,13.0,0.0
6218,52.0,1.0,60.0,15.0,0.0
6219,40.0,3.0,60.0,14.0,0.0
6220,75.0,1.0,15.0,10.0,0.0
6221,87.0,18.0,15.0,0.0,0.0
6222,78.0,1.0,15.0,10.0,0.0
6223,90.0,5.0,15.0,0.0,0.0
6224,52.0,6.0,15.0,15.0,0.0
6225,76.0,1.0,15.0,10.0,0.0
6226,68.0,0.0,60.0,11.0,0.0
6227,88.0,19.0,15.0,0.0,0.0
6228,64.0,0.0,60.0,6.0,0.0
6229,74.0,1.0,60.0,1.0,0.0
6230,80.0,0.0,60.0,1.0,0.0
6231,76.0,0.0,60.0,6.0,0.0
6232,71.0,2.0,60.0,2.0,0.0
6233,74.0,0.0,60.0,2.0,0.0
6234,62.0,0.0,60.0,12.0,0.0
6235,52.0,2.0,60.0,5.0,0.0
6236,52.0,1.0,60.0,13.0,0.0
6237,68.0,0.0,60.0,3.0,0.0
6238,62.0,1.0,60.0,3.0,0.0
6239,40.0,0.0,60.0,14.0,0.0
6240,78.0,1.0,15.0,10.0,0.0
6241,90.0,18.0,15.0,0.0,0.0
6242,76.0,1.0,15.0,10.0,0.0
6243,88.0,5.0,15.0,0.0,0.0
6244,52.0,1.0,15.0,15.0,0.0
6245,74.0,1.0,15.0,10.0,0.0
6246,64.0,1.0,15.0,4.0,0.0
6247,76.0,0.0,60.0,6.0,0.0
6248,86.0,19.0,15.0,0.0,0.0
6249,68.0,0.0,60.0,11.0,0.0
6250,74.0,1.0,60.0,1.0,0.0
6251,80.0,0.0,60.0,1.0,0.0
6252,62.0,0.0,60.0,12.0,0.0
6253,52.0,2.0,60.0,5.0,0.0
6254,74.0,0.0,60.0,2.0,0.0
6255,71.0,2.0,60.0,2.0,0.0
6256,52.0,1.0,60.0,13.0,0.0
6257,68.0,0.0,60.0,3.0,0.0
6258,62.0,1.0,60.0,3.0,0.0
6259,40.0,0.0,60.0,14.0,0.0
6260,73.0,1.0,15.0,10.0,0.0
6261,85.0,18.0,15.0,0.0,0.0
6262,71.0,1.0,15.0,10.0,0.0
6263,83.0,5.0,15.0,0.0,0.0
6264,52.0,1.0,15.0,15.0,0.0
6265,69.0,1.0,60.0,10.0,0.0
6266,64.0,0.0,15.0,4.0,0.0
6267,81.0,0.0,60.0,1.0,0.0
6268,73.0,0.0,60.0,1.0,0.0
6269,64.0,1.0,15.0,6.0,0.0
6270,81.0,0.0,60.0,0.0,0.0
6271,61.0,0.0,60.0,11.0,0.0
6272,76.0,0.0,60.0,6.0,0.0
6273,69.0,0.0,60.0,2.0,0.0
6274,57.0,0.0,60.0,5.0,0.0
6275,73.0,0.0,60.0,2.0,0.0
6276,61.0,2.0,60.0,12.0,0.0
6277,52.0,56.0,15.0,15.0,0.0
6278,57.0,0.0,60.0,13.0,0.0
6279,61.0,0.0,60.0,3.0,0.0
6280,69.0,1.0,60.0,3.0,0.0
6281,45.0,114.0,60.0,14.0,0.0
6282,76.0,1.0,60.0,10.0,0.0
6283,64.0,29.0,60.0,11.0,0.0
6284,81.0,1.0,30.0,10.0,0.0
6285,69.0,149.0,30.0,11.0,0.0
6286,64.0,5.0,60.0,10.0,0.0
6287,52.0,34.0,60.0,3.0,0.0
6288,69.0,5.0,30.0,10.0,0.0
6289,57.0,55.0,30.0,3.0,0.0
6290,69.0,5.0,30.0,10.0,0.0
6291,57.0,76.0,30.0,3.0,0.0
6292,69.0,1.0,60.0,10.0,0.0
6293,88.0,48.0,180.0,1.0,0.0
6294,64.0,1.0,60.0,4.0,0.0
6295,52.0,2.0,60.0,5.0,0.0
6296,64.0,0.0,60.0,12.0,0.0
6297,61.0,1.0,60.0,13.0,0.0
6298,57.0,1.0,60.0,3.0,0.0
6299,49.0,25.0,60.0,14.0,0.0
6300,73.0,5.0,30.0,10.0,0.0
6301,69.0,1.0,30.0,4.0,0.0
6302,61.0,2.0,30.0,12.0,0.0
6303,57.0,0.0,30.0,5.0,0.0
6304,57.0,2.0,30.0,13.0,0.0
6305,61.0,47.0,30.0,3.0,0.0
6306,45.0,3.0,30.0,14.0,0.0
6307,73.0,5.0,30.0,10.0,0.0
6308,69.0,1.0,30.0,4.0,0.0
6309,57.0,7.0,30.0,5.0,0.0
6310,61.0,14.0,30.0,3.0,0.0
6311,73.0,1.0,60.0,10.0,0.0
6312,73.0,1.0,60.0,4.0,0.0
6313,85.0,12.0,60.0,1.0,0.0
6314,69.0,0.0,60.0,11.0,0.0
6315,61.0,2.0,60.0,5.0,0.0
6316,64.0,2.0,90.0,12.0,0.0
6317,57.0,1.0,60.0,13.0,0.0
6318,57.0,1.0,60.0,3.0,0.0
6319,61.0,0.0,60.0,3.0,0.0
6320,45.0,24.0,60.0,14.0,0.0
6321,81.0,2.0,15.0,1.0,0.0
6322,74.0,1.0,30.0,10.0,0.0
6323,71.0,0.0,30.0,11.0,0.0
6324,76.0,1.0,30.0,4.0,0.0
6325,76.0,1.0,60.0,1.0,0.0
6326,80.0,0.0,60.0,1.0,0.0
6327,64.0,0.0,30.0,5.0,0.0
6328,52.0,2.0,30.0,13.0,0.0
6329,62.0,21.0,60.0,3.0,0.0
6330,59.0,0.0,60.0,3.0,0.0
6331,40.0,25.0,30.0,14.0,0.0
6332,74.0,1.0,20.0,10.0,0.0
6333,80.0,4.0,60.0,1.0,0.0
6334,64.0,1.0,30.0,4.0,0.0
6335,71.0,7.0,20.0,11.0,0.0
6336,76.0,0.0,60.0,1.0,0.0
6337,52.0,14.0,30.0,5.0,0.0
6338,62.0,3.0,60.0,3.0,0.0
6339,59.0,0.0,60.0,3.0,0.0
6340,73.0,1.0,15.0,10.0,0.0
6341,78.0,0.0,15.0,1.0,0.0
6342,69.0,7.0,15.0,11.0,0.0
6343,81.0,4.0,15.0,1.0,0.0
6344,57.0,18.0,15.0,3.0,0.0
6345,61.0,0.0,15.0,3.0,0.0
6346,71.0,1.0,20.0,10.0,0.0
6347,64.0,1.0,30.0,4.0,0.0
6348,80.0,4.0,60.0,1.0,0.0
6349,68.0,7.0,20.0,11.0,0.0
6350,83.0,0.0,60.0,1.0,0.0
6351,52.0,14.0,30.0,5.0,0.0
6352,64.0,2.0,90.0,12.0,0.0
6353,52.0,2.0,60.0,13.0,0.0
6354,59.0,3.0,60.0,3.0,0.0
6355,56.0,0.0,60.0,3.0,0.0
6356,40.0,9.0,60.0,14.0,0.0
6357,69.0,1.0,15.0,10.0,0.0
6358,85.0,4.0,15.0,1.0,0.0
6359,66.0,4.0,15.0,11.0,0.0
6360,81.0,0.0,15.0,1.0,0.0
6361,57.0,2.0,15.0,3.0,0.0
6362,54.0,0.0,15.0,3.0,0.0
6363,68.0,1.0,15.0,10.0,0.0
6364,83.0,0.0,120.0,1.0,0.0
6365,86.0,4.0,120.0,1.0,0.0
6366,64.0,16.0,15.0,11.0,0.0
6367,64.0,1.0,120.0,4.0,0.0
6368,52.0,13.0,120.0,5.0,0.0
6369,64.0,2.0,30.0,13.0,0.0
6370,52.0,1.0,120.0,3.0,0.0
6371,56.0,0.0,120.0,3.0,0.0
6372,52.0,9.0,30.0,14.0,0.0
6373,76.0,1.0,15.0,10.0,0.0
6374,64.0,29.0,15.0,11.0,0.0
6375,76.0,1.0,15.0,10.0,0.0
6376,64.0,29.0,15.0,11.0,0.0
6377,76.0,1.0,15.0,10.0,0.0
6378,64.0,10.0,15.0,11.0,0.0
6379,76.0,1.0,15.0,10.0,0.0
6380,71.0,0.0,60.0,4.0,0.0
6381,64.0,29.0,15.0,11.0,0.0
6382,76.0,1.0,120.0,1.0,0.0
6383,80.0,1.0,60.0,1.0,0.0
6384,74.0,0.0,60.0,12.0,0.0
6385,64.0,2.0,60.0,5.0,0.0
6386,62.0,2.0,60.0,13.0,0.0
6387,50.0,9.0,60.0,14.0,0.0
6388,76.0,1.0,15.0,10.0,0.0
6389,64.0,15.0,15.0,11.0,0.0
6390,76.0,1.0,15.0,10.0,0.0
6391,64.0,16.0,15.0,11.0,0.0
6392,81.0,0.0,60.0,1.0,0.0
6393,69.0,0.0,60.0,4.0,0.0
6394,73.0,2.0,30.0,12.0,0.0
6395,61.0,13.0,60.0,5.0,0.0
6396,61.0,2.0,30.0,13.0,0.0
6397,49.0,9.0,30.0,14.0,0.0
6398,76.0,1.0,15.0,10.0,0.0
6399,64.0,15.0,15.0,11.0,0.0
6400,76.0,1.0,15.0,10.0,0.0
6401,80.0,0.0,60.0,1.0,0.0
6402,83.0,0.0,60.0,1.0,0.0
6403,71.0,1.0,60.0,4.0,0.0
6404,64.0,16.0,15.0,11.0,0.0
6405,71.0,2.0,30.0,12.0,0.0
6406,64.0,13.0,60.0,5.0,0.0
6407,59.0,2.0,30.0,13.0,0.0
6408,47.0,9.0,30.0,14.0,0.0
6409,76.0,1.0,15.0,10.0,0.0
6410,64.0,15.0,15.0,11.0,0.0
6411,76.0,1.0,15.0,10.0,0.0
6412,85.0,3.0,60.0,1.0,0.0
6413,81.0,0.0,60.0,1.0,0.0
6414,73.0,1.0,60.0,4.0,0.0
6415,64.0,16.0,15.0,11.0,0.0
6416,69.0,13.0,60.0,5.0,0.0
6417,69.0,2.0,30.0,12.0,0.0
6418,57.0,2.0,30.0,13.0,0.0
6419,45.0,9.0,30.0,14.0,0.0
6420,76.0,1.0,15.0,10.0,0.0
6421,64.0,12.0,15.0,11.0,0.0
6422,76.0,1.0,15.0,10.0,0.0
6423,64.0,16.0,15.0,11.0,0.0
6424,74.0,1.0,120.0,4.0,0.0
6425,83.0,0.0,120.0,1.0,0.0
6426,86.0,1.0,90.0,1.0,0.0
6427,71.0,13.0,120.0,5.0,0.0
6428,68.0,2.0,30.0,12.0,0.0
6429,56.0,2.0,30.0,13.0,0.0
6430,44.0,9.0,30.0,14.0,0.0
6431,76.0,1.0,15.0,10.0,0.0
6432,64.0,29.0,15.0,11.0,0.0
6433,76.0,1.0,15.0,10.0,0.0
6434,64.0,15.0,15.0,11.0,0.0
6435,64.0,2.0,30.0,12.0,0.0
6436,52.0,2.0,30.0,13.0,0.0
6437,40.0,9.0,30.0,14.0,0.0
6438,76.0,1.0,15.0,10.0,0.0
6439,64.0,15.0,15.0,11.0,0.0
6440,88.0,0.0,30.0,1.0,0.0
6441,76.0,1.0,15.0,10.0,0.0
6442,64.0,15.0,15.0,11.0,0.0
6443,73.0,1.0,60.0,4.0,0.0
6444,81.0,0.0,30.0,1.0,0.0
6445,85.0,1.0,30.0,1.0,0.0
6446,69.0,2.0,30.0,12.0,0.0
6447,69.0,13.0,60.0,5.0,0.0
6448,57.0,2.0,30.0,13.0,0.0
6449,45.0,9.0,30.0,14.0,0.0
6450,76.0,1.0,15.0,10.0,0.0
6451,64.0,15.0,15.0,11.0,0.0
6452,76.0,1.0,15.0,10.0,0.0
6453,64.0,16.0,15.0,11.0,0.0
6454,80.0,15.0,60.0,1.0,0.0
6455,83.0,0.0,60.0,1.0,0.0
6456,64.0,2.0,30.0,12.0,0.0
6457,64.0,13.0,60.0,5.0,0.0
6458,52.0,2.0,30.0,13.0,0.0
6459,40.0,9.0,30.0,14.0,0.0
6460,76.0,1.0,15.0,10.0,0.0
6461,64.0,0.0,15.0,11.0,0.0
6462,76.0,1.0,15.0,10.0,0.0
6463,71.0,1.0,15.0,4.0,0.0
6464,64.0,16.0,15.0,11.0,0.0
6465,80.0,0.0,60.0,1.0,0.0
6466,83.0,0.0,60.0,1.0,0.0
6467,76.0,3.0,60.0,2.0,0.0
6468,68.0,0.0,30.0,12.0,0.0
6469,59.0,2.0,30.0,12.0,0.0
6470,52.0,2.0,30.0,13.0,0.0
6471,64.0,11.0,60.0,3.0,0.0
6472,40.0,9.0,30.0,14.0,0.0
6473,76.0,1.0,15.0,10.0,0.0
6474,64.0,1.0,15.0,11.0,0.0
6475,76.0,1.0,15.0,10.0,0.0
6476,64.0,16.0,15.0,11.0,0.0
6477,83.0,0.0,60.0,1.0,0.0
6478,80.0,1.0,60.0,1.0,0.0
6479,71.0,1.0,15.0,4.0,0.0
6480,59.0,2.0,30.0,12.0,0.0
6481,68.0,0.0,30.0,12.0,0.0
6482,76.0,3.0,60.0,2.0,0.0
6483,64.0,13.0,15.0,5.0,0.0
6484,52.0,2.0,30.0,13.0,0.0
6485,64.0,11.0,60.0,3.0,0.0
6486,40.0,9.0,30.0,14.0,0.0
6487,76.0,1.0,15.0,10.0,0.0
6488,64.0,0.0,15.0,11.0,0.0
6489,76.0,1.0,15.0,10.0,0.0
6490,64.0,29.0,15.0,11.0,0.0
6491,80.0,1.0,120.0,1.0,0.0
6492,83.0,0.0,120.0,1.0,0.0
6493,71.0,1.0,60.0,4.0,0.0
6494,59.0,2.0,120.0,12.0,0.0
6495,68.0,0.0,120.0,12.0,0.0
6496,64.0,13.0,60.0,5.0,0.0
6497,76.0,0.0,120.0,2.0,0.0
6498,52.0,1.0,120.0,13.0,0.0
6499,64.0,1.0,120.0,3.0,0.0
6500,40.0,9.0,120.0,14.0,0.0
6501,76.0,1.0,15.0,10.0,0.0
6502,64.0,15.0,15.0,11.0,0.0
6503,76.0,1.0,15.0,10.0,0.0
6504,64.0,29.0,15.0,11.0,0.0
6505,76.0,1.0,15.0,10.0,0.0
6506,64.0,15.0,15.0,11.0,0.0
6507,77.0,1.0,15.0,10.0,0.0
6508,65.0,29.0,15.0,11.0,0.0
6509,77.0,8.0,60.0,2.0,0.0
6510,65.0,10.0,60.0,3.0,0.0
6511,77.0,1.0,15.0,10.0,0.0
6512,65.0,11.0,15.0,11.0,0.0
6513,78.0,1.0,15.0,10.0,0.0
6514,78.0,1.0,60.0,1.0,0.0
6515,83.0,0.0,60.0,1.0,0.0
6516,66.0,16.0,15.0,11.0,0.0
6517,78.0,0.0,60.0,2.0,0.0
6518,74.0,2.0,30.0,12.0,0.0
6519,71.0,3.0,60.0,2.0,0.0
6520,62.0,2.0,30.0,13.0,0.0
6521,66.0,10.0,60.0,3.0,0.0
6522,50.0,9.0,30.0,14.0,0.0
6523,78.0,1.0,15.0,10.0,0.0
6524,66.0,15.0,15.0,11.0,0.0
6525,78.0,1.0,15.0,10.0,0.0
6526,66.0,16.0,15.0,11.0,0.0
6527,82.0,1.0,60.0,1.0,0.0
6528,85.0,0.0,60.0,1.0,0.0
6529,70.0,0.0,60.0,2.0,0.0
6530,73.0,13.0,60.0,2.0,0.0
6531,73.0,2.0,30.0,12.0,0.0
6532,61.0,2.0,30.0,13.0,0.0
6533,49.0,9.0,30.0,14.0,0.0
6534,78.0,1.0,15.0,10.0,0.0
6535,66.0,15.0,15.0,11.0,0.0
6536,78.0,1.0,15.0,10.0,0.0
6537,66.0,16.0,15.0,11.0,0.0
6538,86.0,0.0,60.0,1.0,0.0
6539,83.0,1.0,60.0,1.0,0.0
6540,71.0,2.0,30.0,12.0,0.0
6541,71.0,0.0,60.0,2.0,0.0
6542,74.0,18.0,60.0,2.0,0.0
6543,59.0,2.0,30.0,13.0,0.0
6544,47.0,9.0,30.0,14.0,0.0
6545,78.0,1.0,15.0,10.0,0.0
6546,66.0,10.0,15.0,11.0,0.0
6547,78.0,1.0,15.0,10.0,0.0
6548,66.0,16.0,15.0,11.0,0.0
6549,88.0,1.0,90.0,1.0,0.0
6550,85.0,0.0,120.0,1.0,0.0
6551,76.0,2.0,90.0,2.0,0.0
6552,73.0,13.0,120.0,2.0,0.0
6553,70.0,2.0,30.0,12.0,0.0
6554,58.0,2.0,30.0,13.0,0.0
6555,46.0,9.0,30.0,14.0,0.0
6556,78.0,1.0,15.0,10.0,0.0
6557,66.0,29.0,15.0,11.0,0.0
6558,78.0,1.0,15.0,10.0,0.0
6559,66.0,15.0,15.0,11.0,0.0
6560,66.0,0.0,30.0,12.0,0.0
6561,54.0,2.0,30.0,13.0,0.0
6562,42.0,9.0,30.0,14.0,0.0
6563,78.0,1.0,15.0,10.0,0.0
6564,90.0,1.0,30.0,1.0,0.0
6565,66.0,15.0,15.0,11.0,0.0
6566,78.0,0.0,30.0,2.0,0.0
6567,78.0,1.0,15.0,10.0,0.0
6568,66.0,15.0,15.0,11.0,0.0
6569,86.0,0.0,30.0,1.0,0.0
6570,83.0,1.0,30.0,1.0,0.0
6571,74.0,0.0,30.0,2.0,0.0
6572,71.0,0.0,30.0,12.0,0.0
6573,71.0,2.0,30.0,2.0,0.0
6574,59.0,2.0,30.0,13.0,0.0
6575,47.0,9.0,30.0,14.0,0.0
6576,78.0,1.0,15.0,10.0,0.0
6577,66.0,29.0,15.0,11.0,0.0
6578,78.0,1.0,15.0,10.0,0.0
6579,85.0,1.0,60.0,1.0,0.0
6580,82.0,0.0,60.0,1.0,0.0
6581,66.0,16.0,15.0,11.0,0.0
6582,66.0,2.0,30.0,12.0,0.0
6583,70.0,28.0,60.0,2.0,0.0
6584,73.0,0.0,60.0,2.0,0.0
6585,54.0,2.0,30.0,13.0,0.0
6586,42.0,9.0,30.0,14.0,0.0
6587,78.0,1.0,15.0,10.0,0.0
6588,66.0,0.0,15.0,11.0,0.0
6589,78.0,1.0,15.0,10.0,0.0
6590,85.0,1.0,60.0,1.0,0.0
6591,82.0,0.0,60.0,1.0,0.0
6592,66.0,16.0,15.0,11.0,0.0
6593,70.0,2.0,30.0,12.0,0.0
6594,78.0,3.0,60.0,2.0,0.0
6595,61.0,0.0,30.0,12.0,0.0
6596,54.0,2.0,30.0,13.0,0.0
6597,66.0,25.0,60.0,3.0,0.0
6598,42.0,9.0,30.0,14.0,0.0
6599,78.0,1.0,15.0,10.0,0.0
6600,66.0,0.0,15.0,11.0,0.0
6601,78.0,1.0,15.0,10.0,0.0
6602,82.0,0.0,60.0,1.0,0.0
6603,85.0,1.0,60.0,1.0,0.0
6604,66.0,16.0,15.0,11.0,0.0
6605,70.0,2.0,30.0,12.0,0.0
6606,61.0,0.0,30.0,12.0,0.0
6607,78.0,3.0,60.0,2.0,0.0
6608,54.0,2.0,30.0,13.0,0.0
6609,66.0,25.0,60.0,3.0,0.0
6610,42.0,9.0,30.0,14.0,0.0
6611,78.0,1.0,15.0,10.0,0.0
6612,66.0,0.0,15.0,11.0,0.0
6613,78.0,1.0,15.0,10.0,0.0
6614,85.0,0.0,60.0,1.0,0.0
6615,66.0,29.0,15.0,11.0,0.0
6616,82.0,1.0,60.0,1.0,0.0
6617,70.0,0.0,60.0,12.0,0.0
6618,61.0,2.0,60.0,12.0,0.0
6619,78.0,0.0,60.0,2.0,0.0
6620,54.0,1.0,60.0,13.0,0.0
6621,66.0,1.0,60.0,3.0,0.0
6622,42.0,9.0,60.0,14.0,0.0
6623,78.0,1.0,15.0,10.0,0.0
6624,66.0,15.0,15.0,11.0,0.0
6625,79.0,1.0,15.0,10.0,0.0
6626,67.0,29.0,15.0,11.0,0.0
6627,79.0,3.0,60.0,2.0,0.0
6628,67.0,10.0,60.0,3.0,0.0
6629,79.0,1.0,15.0,10.0,0.0
6630,67.0,16.0,15.0,11.0,0.0
6631,80.0,1.0,15.0,10.0,0.0
6632,68.0,29.0,15.0,11.0,0.0
6633,80.0,3.0,60.0,2.0,0.0
6634,68.0,15.0,60.0,3.0,0.0
6635,80.0,1.0,15.0,10.0,0.0
6636,68.0,11.0,15.0,11.0,0.0
6637,81.0,1.0,15.0,10.0,0.0
6638,69.0,1.0,60.0,1.0,0.0
6639,86.0,0.0,60.0,0.0,0.0
6640,69.0,29.0,15.0,11.0,0.0
6641,74.0,0.0,60.0,1.0,0.0
6642,57.0,0.0,60.0,5.0,0.0
6643,62.0,2.0,60.0,12.0,0.0
6644,74.0,0.0,60.0,2.0,0.0
6645,81.0,0.0,60.0,2.0,0.0
6646,66.0,1.0,60.0,13.0,0.0
6647,62.0,0.0,60.0,3.0,0.0
6648,54.0,9.0,60.0,14.0,0.0
6649,81.0,1.0,15.0,10.0,0.0
6650,69.0,15.0,15.0,11.0,0.0
6651,81.0,1.0,15.0,10.0,0.0
6652,88.0,0.0,60.0,0.0,0.0
6653,76.0,1.0,60.0,1.0,0.0
6654,73.0,0.0,60.0,1.0,0.0
6655,69.0,0.0,15.0,4.0,0.0
6656,69.0,29.0,15.0,11.0,0.0
6657,76.0,0.0,60.0,2.0,0.0
6658,64.0,2.0,60.0,12.0,0.0
6659,64.0,1.0,60.0,13.0,0.0
6660,64.0,0.0,60.0,3.0,0.0
6661,69.0,1.0,15.0,3.0,0.0
6662,52.0,9.0,60.0,14.0,0.0
6663,81.0,1.0,15.0,10.0,0.0
6664,69.0,15.0,15.0,11.0,0.0
6665,81.0,1.0,15.0,10.0,0.0
6666,69.0,29.0,15.0,11.0,0.0
6667,90.0,0.0,60.0,0.0,0.0
6668,78.0,0.0,60.0,1.0,0.0
6669,74.0,1.0,60.0,1.0,0.0
6670,81.0,0.0,15.0,2.0,0.0
6671,57.0,0.0,15.0,5.0,0.0
6672,66.0,2.0,60.0,12.0,0.0
6673,78.0,0.0,60.0,2.0,0.0
6674,62.0,1.0,60.0,13.0,0.0
6675,66.0,0.0,60.0,3.0,0.0
6676,69.0,1.0,60.0,3.0,0.0
6677,50.0,0.0,60.0,14.0,0.0
6678,81.0,1.0,15.0,10.0,0.0
6679,69.0,10.0,15.0,11.0,0.0
6680,81.0,1.0,15.0,10.0,0.0
6681,69.0,1.0,15.0,4.0,0.0
6682,79.0,0.0,90.0,1.0,0.0
6683,76.0,0.0,120.0,1.0,0.0
6684,69.0,29.0,15.0,11.0,0.0
6685,91.0,1.0,90.0,0.0,0.0
6686,76.0,2.0,120.0,2.0,0.0
6687,79.0,3.0,90.0,2.0,0.0
6688,64.0,2.0,60.0,12.0,0.0
6689,57.0,13.0,15.0,5.0,0.0
6690,61.0,2.0,60.0,13.0,0.0
6691,67.0,10.0,90.0,3.0,0.0
6692,64.0,1.0,120.0,3.0,0.0
6693,49.0,9.0,60.0,14.0,0.0
6694,81.0,1.0,15.0,10.0,0.0
6695,69.0,16.0,15.0,11.0,0.0
6696,81.0,1.0,15.0,10.0,0.0
6697,69.0,15.0,15.0,11.0,0.0
6698,61.0,0.0,60.0,12.0,0.0
6699,57.0,1.0,60.0,13.0,0.0
6700,45.0,9.0,60.0,14.0,0.0
6701,81.0,1.0,15.0,10.0,0.0
6702,69.0,15.0,15.0,11.0,0.0
6703,81.0,1.0,30.0,1.0,0.0
6704,93.0,0.0,30.0,0.0,0.0
6705,81.0,0.0,30.0,2.0,0.0
6706,69.0,0.0,30.0,3.0,0.0
6707,78.0,1.0,15.0,10.0,0.0
6708,90.0,1.0,30.0,0.0,0.0
6709,78.0,0.0,30.0,1.0,0.0
6710,66.0,15.0,15.0,11.0,0.0
6711,69.0,0.0,15.0,4.0,0.0
6712,57.0,0.0,15.0,5.0,0.0
6713,57.0,2.0,60.0,12.0,0.0
6714,78.0,3.0,30.0,2.0,0.0
6715,62.0,2.0,60.0,13.0,0.0
6716,66.0,10.0,30.0,3.0,0.0
6717,50.0,0.0,60.0,14.0,0.0
6718,78.0,1.0,15.0,10.0,0.0
6719,66.0,11.0,15.0,11.0,0.0
6720,78.0,1.0,15.0,10.0,0.0
6721,76.0,0.0,90.0,1.0,0.0
6722,88.0,1.0,90.0,0.0,0.0
6723,66.0,29.0,15.0,11.0,0.0
6724,73.0,1.0,120.0,1.0,0.0
6725,73.0,2.0,60.0,12.0,0.0
6726,73.0,0.0,120.0,2.0,0.0
6727,76.0,3.0,90.0,2.0,0.0
6728,58.0,2.0,60.0,13.0,0.0
6729,64.0,10.0,90.0,3.0,0.0
6730,61.0,1.0,120.0,3.0,0.0
6731,46.0,9.0,60.0,14.0,0.0
6732,78.0,1.0,15.0,10.0,0.0
6733,66.0,16.0,15.0,11.0,0.0
6734,78.0,1.0,15.0,10.0,0.0
6735,66.0,15.0,15.0,11.0,0.0
6736,70.0,0.0,60.0,12.0,0.0
6737,54.0,1.0,60.0,13.0,0.0
6738,42.0,9.0,60.0,14.0,0.0
6739,78.0,1.0,15.0,10.0,0.0
6740,66.0,15.0,15.0,11.0,0.0
6741,90.0,0.0,30.0,0.0,0.0
6742,78.0,0.0,30.0,1.0,0.0
6743,78.0,2.0,30.0,2.0,0.0
6744,66.0,0.0,30.0,3.0,0.0
6745,78.0,1.0,15.0,10.0,0.0
6746,87.0,0.0,30.0,0.0,0.0
6747,75.0,1.0,30.0,1.0,0.0
6748,71.0,0.0,30.0,1.0,0.0
6749,66.0,15.0,15.0,11.0,0.0
6750,71.0,3.0,30.0,2.0,0.0
6751,66.0,2.0,60.0,12.0,0.0
6752,75.0,0.0,30.0,2.0,0.0
6753,59.0,2.0,60.0,13.0,0.0
6754,63.0,0.0,30.0,3.0,0.0
6755,59.0,10.0,30.0,3.0,0.0
6756,47.0,14.0,60.0,14.0,0.0
6757,78.0,1.0,15.0,10.0,0.0
6758,66.0,11.0,15.0,11.0,0.0
6759,76.0,1.0,15.0,10.0,0.0
6760,64.0,0.0,120.0,4.0,0.0
6761,74.0,1.0,90.0,1.0,0.0
6762,71.0,0.0,120.0,1.0,0.0
6763,64.0,29.0,15.0,11.0,0.0
6764,86.0,0.0,90.0,0.0,0.0
6765,71.0,0.0,120.0,2.0,0.0
6766,71.0,2.0,60.0,12.0,0.0
6767,52.0,2.0,120.0,5.0,0.0
6768,74.0,3.0,90.0,2.0,0.0
6769,56.0,2.0,60.0,13.0,0.0
6770,62.0,10.0,90.0,3.0,0.0
6771,59.0,1.0,120.0,3.0,0.0
6772,44.0,9.0,60.0,14.0,0.0
6773,76.0,1.0,15.0,10.0,0.0
6774,64.0,16.0,15.0,11.0,0.0
6775,76.0,1.0,15.0,10.0,0.0
6776,64.0,15.0,15.0,11.0,0.0
6777,68.0,0.0,60.0,12.0,0.0
6778,52.0,1.0,60.0,13.0,0.0
6779,40.0,9.0,60.0,14.0,0.0
6780,76.0,1.0,15.0,10.0,0.0
6781,88.0,1.0,30.0,0.0,0.0
6782,76.0,0.0,30.0,1.0,0.0
6783,64.0,15.0,15.0,11.0,0.0
6784,76.0,0.0,30.0,2.0,0.0
6785,64.0,0.0,30.0,3.0,0.0
6786,76.0,1.0,15.0,10.0,0.0
6787,64.0,0.0,60.0,4.0,0.0
6788,73.0,0.0,30.0,1.0,0.0
6789,69.0,1.0,30.0,1.0,0.0
6790,64.0,15.0,15.0,11.0,0.0
6791,85.0,0.0,30.0,0.0,0.0
6792,69.0,0.0,30.0,2.0,0.0
6793,64.0,2.0,60.0,12.0,0.0
6794,73.0,3.0,30.0,2.0,0.0
6795,52.0,13.0,60.0,5.0,0.0
6796,57.0,2.0,60.0,13.0,0.0
6797,57.0,10.0,30.0,3.0,0.0
6798,61.0,0.0,30.0,3.0,0.0
6799,45.0,1.0,60.0,14.0,0.0
6800,76.0,1.0,15.0,10.0,0.0
6801,64.0,11.0,15.0,11.0,0.0
6802,78.0,1.0,15.0,10.0,0.0
6803,78.0,0.0,60.0,1.0,0.0
6804,64.0,1.0,15.0,11.0,0.0
6805,83.0,1.0,60.0,0.0,0.0
6806,83.0,0.0,60.0,1.0,0.0
6807,62.0,28.0,15.0,12.0,0.0
6808,71.0,2.0,60.0,2.0,0.0
6809,66.0,0.0,60.0,2.0,0.0
6810,62.0,1.0,60.0,13.0,0.0
6811,66.0,1.0,60.0,3.0,0.0
6812,62.0,0.0,60.0,3.0,0.0
6813,50.0,39.0,60.0,14.0,0.0
6814,83.0,1.0,15.0,10.0,0.0
6815,64.0,1.0,15.0,11.0,0.0
6816,62.0,14.0,15.0,12.0,0.0
6817,76.0,1.0,60.0,1.0,0.0
6818,85.0,0.0,60.0,0.0,0.0
6819,85.0,0.0,60.0,1.0,0.0
6820,73.0,0.0,60.0,2.0,0.0
6821,70.0,2.0,60.0,2.0,0.0
6822,61.0,1.0,60.0,13.0,0.0
6823,61.0,0.0,60.0,3.0,0.0
6824,64.0,1.0,60.0,3.0,0.0
6825,49.0,39.0,60.0,14.0,0.0
6826,85.0,1.0,15.0,10.0,0.0
6827,70.0,1.0,15.0,11.0,0.0
6828,64.0,14.0,15.0,12.0,0.0
6829,86.0,0.0,60.0,1.0,0.0
6830,74.0,0.0,60.0,1.0,0.0
6831,86.0,1.0,60.0,0.0,0.0
6832,71.0,2.0,60.0,2.0,0.0
6833,74.0,0.0,60.0,2.0,0.0
6834,59.0,1.0,60.0,13.0,0.0
6835,62.0,1.0,60.0,3.0,0.0
6836,59.0,0.0,60.0,3.0,0.0
6837,47.0,44.0,60.0,14.0,0.0
6838,86.0,1.0,15.0,10.0,0.0
6839,71.0,1.0,15.0,11.0,0.0
6840,66.0,9.0,15.0,12.0,0.0
6841,73.0,0.0,240.0,1.0,0.0
6842,73.0,0.0,240.0,4.0,0.0
6843,81.0,0.0,240.0,1.0,0.0
6844,81.0,1.0,240.0,0.0,0.0
6845,73.0,0.0,240.0,2.0,0.0
6846,69.0,2.0,240.0,5.0,0.0
6847,69.0,0.0,240.0,2.0,0.0
6848,64.0,0.0,60.0,13.0,0.0
6849,52.0,2.0,60.0,15.0,0.0
6850,61.0,52.0,240.0,3.0,0.0
6851,57.0,0.0,240.0,3.0,0.0
6852,52.0,9.0,60.0,14.0,0.0
6853,88.0,1.0,15.0,10.0,0.0
6854,76.0,1.0,15.0,11.0,0.0
6855,61.0,17.0,15.0,12.0,0.0
6856,85.0,1.0,15.0,10.0,0.0
6857,73.0,1.0,15.0,11.0,0.0
6858,64.0,28.0,15.0,12.0,0.0
6859,52.0,0.0,60.0,13.0,0.0
6860,81.0,1.0,15.0,10.0,0.0
6861,69.0,1.0,15.0,11.0,0.0
6862,61.0,17.0,15.0,12.0,0.0
6863,76.0,1.0,15.0,10.0,0.0
6864,64.0,1.0,15.0,11.0,0.0
6865,64.0,28.0,15.0,12.0,0.0
6866,52.0,2.0,15.0,15.0,0.0
6867,40.0,9.0,15.0,14.0,0.0
6868,73.0,1.0,15.0,10.0,0.0
6869,61.0,1.0,15.0,11.0,0.0
6870,61.0,17.0,15.0,12.0,0.0
6871,69.0,1.0,60.0,10.0,0.0
6872,61.0,0.0,60.0,11.0,0.0
6873,64.0,27.0,30.0,12.0,0.0
6874,52.0,0.0,15.0,13.0,0.0
6875,52.0,2.0,15.0,15.0,0.0
6876,40.0,0.0,60.0,14.0,0.0
6877,71.0,1.0,60.0,10.0,0.0
6878,83.0,0.0,60.0,1.0,0.0
6879,74.0,0.0,60.0,1.0,0.0
6880,74.0,1.0,60.0,4.0,0.0
6881,62.0,0.0,60.0,11.0,0.0
6882,83.0,0.0,60.0,0.0,0.0
6883,52.0,2.0,60.0,12.0,0.0
6884,71.0,0.0,60.0,5.0,0.0
6885,74.0,2.0,60.0,2.0,0.0
6886,52.0,1.0,60.0,15.0,0.0
6887,52.0,1.0,60.0,13.0,0.0
6888,59.0,0.0,60.0,3.0,0.0
6889,62.0,50.0,60.0,3.0,0.0
6890,40.0,0.0,60.0,14.0,0.0
6891,68.0,1.0,60.0,10.0,0.0
6892,71.0,0.0,60.0,1.0,0.0
6893,80.0,0.0,60.0,1.0,0.0
6894,59.0,1.0,60.0,11.0,0.0
6895,71.0,0.0,60.0,4.0,0.0
6896,80.0,0.0,60.0,0.0,0.0
6897,71.0,0.0,15.0,2.0,0.0
6898,68.0,2.0,60.0,2.0,0.0
6899,64.0,2.0,60.0,5.0,0.0
6900,52.0,0.0,60.0,12.0,0.0
6901,52.0,1.0,60.0,13.0,0.0
6902,52.0,27.0,60.0,15.0,0.0
6903,56.0,0.0,60.0,3.0,0.0
6904,59.0,1.0,60.0,3.0,0.0
6905,40.0,1.0,60.0,14.0,0.0
6906,69.0,1.0,60.0,10.0,0.0
6907,81.0,1.0,60.0,0.0,0.0
6908,61.0,1.0,30.0,11.0,0.0
6909,73.0,0.0,60.0,1.0,0.0
6910,81.0,0.0,60.0,1.0,0.0
6911,64.0,1.0,30.0,4.0,0.0
6912,69.0,2.0,60.0,2.0,0.0
6913,57.0,19.0,30.0,12.0,0.0
6914,73.0,0.0,60.0,2.0,0.0
6915,61.0,3.0,30.0,5.0,0.0
6916,52.0,2.0,60.0,15.0,0.0
6917,45.0,0.0,60.0,13.0,0.0
6918,61.0,0.0,120.0,3.0,0.0
6919,57.0,30.0,120.0,3.0,0.0
6920,33.0,25.0,60.0,14.0,0.0
6921,69.0,1.0,15.0,11.0,0.0
6922,61.0,0.0,15.0,11.0,0.0
6923,64.0,4.0,15.0,12.0,0.0
6924,61.0,0.0,30.0,11.0,0.0
6925,64.0,1.0,30.0,4.0,0.0
6926,69.0,1.0,30.0,11.0,0.0
6927,61.0,3.0,30.0,5.0,0.0
6928,64.0,19.0,30.0,12.0,0.0
6929,61.0,1.0,15.0,11.0,0.0
6930,69.0,0.0,15.0,11.0,0.0
6931,64.0,9.0,15.0,12.0,0.0
6932,73.0,0.0,60.0,1.0,0.0
6933,69.0,1.0,30.0,11.0,0.0
6934,61.0,0.0,30.0,11.0,0.0
6935,64.0,19.0,30.0,12.0,0.0
6936,64.0,2.0,60.0,13.0,0.0
6937,52.0,25.0,60.0,14.0,0.0
6938,69.0,0.0,15.0,11.0,0.0
6939,61.0,1.0,15.0,11.0,0.0
6940,64.0,5.0,15.0,12.0,0.0
6941,61.0,1.0,30.0,11.0,0.0
6942,69.0,0.0,30.0,11.0,0.0
6943,73.0,1.0,30.0,4.0,0.0
6944,81.0,3.0,15.0,1.0,0.0
6945,85.0,3.0,60.0,1.0,0.0
6946,69.0,3.0,30.0,5.0,0.0
6947,64.0,19.0,30.0,12.0,0.0
6948,61.0,2.0,60.0,13.0,0.0
6949,49.0,25.0,60.0,14.0,0.0
6950,61.0,0.0,15.0,11.0,0.0
6951,69.0,1.0,15.0,11.0,0.0
6952,64.0,5.0,15.0,12.0,0.0
6953,73.0,1.0,30.0,4.0,0.0
6954,61.0,0.0,30.0,11.0,0.0
6955,69.0,1.0,30.0,11.0,0.0
6956,69.0,3.0,30.0,5.0,0.0
6957,64.0,19.0,30.0,12.0,0.0
6958,61.0,1.0,15.0,11.0,0.0
6959,69.0,0.0,15.0,11.0,0.0
6960,64.0,39.0,15.0,12.0,0.0
6961,76.0,1.0,60.0,10.0,0.0
6962,69.0,1.0,30.0,11.0,0.0
6963,85.0,0.0,60.0,1.0,0.0
6964,81.0,3.0,60.0,1.0,0.0
6965,61.0,0.0,30.0,11.0,0.0
6966,64.0,19.0,30.0,12.0,0.0
6967,57.0,2.0,60.0,13.0,0.0
6968,45.0,25.0,60.0,14.0,0.0
6969,61.0,1.0,15.0,11.0,0.0
6970,69.0,0.0,15.0,11.0,0.0
6971,64.0,4.0,15.0,12.0,0.0
6972,86.0,1.0,90.0,10.0,0.0
6973,80.0,3.0,60.0,1.0,0.0
6974,86.0,0.0,60.0,1.0,0.0
6975,59.0,0.0,30.0,11.0,0.0
6976,68.0,1.0,30.0,11.0,0.0
6977,74.0,1.0,30.0,4.0,0.0
6978,71.0,3.0,30.0,5.0,0.0
6979,64.0,0.0,30.0,12.0,0.0
6980,62.0,19.0,30.0,12.0,0.0
6981,52.0,2.0,60.0,13.0,0.0
6982,52.0,1.0,240.0,3.0,0.0
6983,64.0,0.0,240.0,3.0,0.0
6984,40.0,24.0,60.0,14.0,0.0
6985,68.0,1.0,15.0,11.0,0.0
6986,59.0,0.0,15.0,11.0,0.0
6987,64.0,5.0,15.0,12.0,0.0
6988,62.0,0.0,15.0,12.0,0.0
6989,74.0,1.0,30.0,4.0,0.0
6990,59.0,0.0,30.0,11.0,0.0
6991,68.0,1.0,30.0,11.0,0.0
6992,71.0,3.0,30.0,5.0,0.0
6993,64.0,0.0,30.0,12.0,0.0
6994,62.0,19.0,30.0,12.0,0.0
6995,85.0,1.0,15.0,10.0,0.0
6996,68.0,0.0,15.0,11.0,0.0
6997,59.0,0.0,15.0,11.0,0.0
6998,64.0,34.0,15.0,12.0,0.0
6999,62.0,0.0,15.0,12.0,0.0
7000,83.0,5.0,30.0,10.0,0.0
7001,59.0,1.0,30.0,11.0,0.0
7002,68.0,0.0,30.0,11.0,0.0
7003,80.0,3.0,60.0,1.0,0.0
7004,86.0,0.0,60.0,1.0,0.0
7005,64.0,0.0,30.0,12.0,0.0
7006,62.0,19.0,30.0,12.0,0.0
7007,56.0,2.0,60.0,13.0,0.0
7008,44.0,24.0,60.0,14.0,0.0
7009,81.0,0.0,15.0,10.0,0.0
7010,59.0,1.0,15.0,11.0,0.0
7011,68.0,0.0,15.0,11.0,0.0
7012,64.0,0.0,15.0,12.0,0.0
7013,62.0,5.0,15.0,12.0,0.0
7014,80.0,1.0,30.0,10.0,0.0
7015,68.0,1.0,30.0,11.0,0.0
7016,80.0,0.0,60.0,1.0,0.0
7017,74.0,3.0,60.0,1.0,0.0
7018,71.0,1.0,30.0,4.0,0.0
7019,59.0,0.0,30.0,11.0,0.0
7020,64.0,19.0,30.0,12.0,0.0
7021,64.0,3.0,30.0,5.0,0.0
7022,62.0,0.0,30.0,12.0,0.0
7023,59.0,2.0,60.0,13.0,0.0
7024,47.0,24.0,60.0,14.0,0.0
7025,78.0,1.0,15.0,10.0,0.0
7026,59.0,0.0,15.0,11.0,0.0
7027,68.0,0.0,15.0,11.0,0.0
7028,62.0,4.0,15.0,12.0,0.0
7029,64.0,0.0,15.0,12.0,0.0
7030,76.0,1.0,30.0,10.0,0.0
7031,71.0,1.0,30.0,4.0,0.0
7032,68.0,0.0,30.0,11.0,0.0
7033,59.0,1.0,30.0,11.0,0.0
7034,74.0,9.0,30.0,2.0,0.0
7035,62.0,0.0,30.0,12.0,0.0
7036,64.0,5.0,30.0,12.0,0.0
7037,64.0,3.0,30.0,5.0,0.0
7038,71.0,0.0,30.0,2.0,0.0
7039,64.0,5.0,60.0,3.0,0.0
7040,52.0,0.0,60.0,3.0,0.0
7041,74.0,0.0,15.0,10.0,0.0
7042,59.0,0.0,15.0,11.0,0.0
7043,68.0,1.0,15.0,11.0,0.0
7044,62.0,0.0,15.0,12.0,0.0
7045,64.0,34.0,15.0,12.0,0.0
7046,73.0,5.0,30.0,10.0,0.0
7047,59.0,0.0,30.0,11.0,0.0
7048,68.0,1.0,30.0,11.0,0.0
7049,80.0,0.0,60.0,1.0,0.0
7050,74.0,1.0,60.0,1.0,0.0
7051,74.0,0.0,60.0,2.0,0.0
7052,64.0,14.0,30.0,12.0,0.0
7053,62.0,0.0,30.0,12.0,0.0
7054,71.0,2.0,60.0,2.0,0.0
7055,64.0,2.0,60.0,13.0,0.0
7056,64.0,0.0,60.0,3.0,0.0
7057,52.0,5.0,60.0,3.0,0.0
7058,52.0,25.0,60.0,14.0,0.0
7059,71.0,0.0,15.0,10.0,0.0
7060,59.0,1.0,15.0,11.0,0.0
7061,68.0,0.0,15.0,11.0,0.0
7062,64.0,0.0,15.0,12.0,0.0
7063,62.0,5.0,15.0,12.0,0.0
7064,69.0,1.0,60.0,10.0,0.0
7065,81.0,0.0,60.0,1.0,0.0
7066,73.0,1.0,60.0,1.0,0.0
7067,61.0,1.0,30.0,11.0,0.0
7068,69.0,0.0,30.0,11.0,0.0
7069,69.0,1.0,30.0,4.0,0.0
7070,61.0,0.0,30.0,12.0,0.0
7071,61.0,3.0,30.0,5.0,0.0
7072,69.0,2.0,60.0,2.0,0.0
7073,64.0,19.0,30.0,12.0,0.0
7074,73.0,0.0,60.0,2.0,0.0
7075,57.0,1.0,60.0,13.0,0.0
7076,64.0,1.0,60.0,3.0,0.0
7077,52.0,0.0,60.0,3.0,0.0
7078,45.0,25.0,60.0,14.0,0.0
7079,61.0,1.0,15.0,11.0,0.0
7080,69.0,0.0,15.0,11.0,0.0
7081,64.0,4.0,15.0,12.0,0.0
7082,69.0,0.0,30.0,11.0,0.0
7083,61.0,1.0,30.0,11.0,0.0
7084,69.0,1.0,30.0,4.0,0.0
7085,64.0,19.0,30.0,12.0,0.0
7086,61.0,3.0,30.0,5.0,0.0
7087,61.0,1.0,15.0,11.0,0.0
7088,69.0,0.0,15.0,11.0,0.0
7089,64.0,39.0,15.0,12.0,0.0
7090,73.0,3.0,60.0,1.0,0.0
7091,69.0,1.0,30.0,11.0,0.0
7092,61.0,0.0,30.0,11.0,0.0
7093,64.0,19.0,30.0,12.0,0.0
7094,64.0,2.0,60.0,13.0,0.0
7095,52.0,25.0,60.0,14.0,0.0
7096,61.0,1.0,15.0,11.0,0.0
7097,69.0,0.0,15.0,11.0,0.0
7098,64.0,5.0,15.0,12.0,0.0
7099,81.0,0.0,15.0,1.0,0.0
7100,85.0,3.0,60.0,1.0,0.0
7101,73.0,1.0,30.0,4.0,0.0
7102,69.0,0.0,30.0,11.0,0.0
7103,61.0,1.0,30.0,11.0,0.0
7104,64.0,19.0,30.0,12.0,0.0
7105,69.0,3.0,30.0,5.0,0.0
7106,61.0,2.0,60.0,13.0,0.0
7107,49.0,25.0,60.0,14.0,0.0
7108,61.0,0.0,15.0,11.0,0.0
7109,69.0,1.0,15.0,11.0,0.0
7110,64.0,5.0,15.0,12.0,0.0
7111,69.0,0.0,30.0,11.0,0.0
7112,73.0,1.0,30.0,4.0,0.0
7113,61.0,1.0,30.0,11.0,0.0
7114,69.0,3.0,30.0,5.0,0.0
7115,64.0,19.0,30.0,12.0,0.0
7116,69.0,1.0,15.0,11.0,0.0
7117,61.0,0.0,15.0,11.0,0.0
7118,64.0,39.0,15.0,12.0,0.0
7119,76.0,1.0,60.0,10.0,0.0
7120,81.0,3.0,60.0,1.0,0.0
7121,85.0,0.0,60.0,1.0,0.0
7122,69.0,1.0,30.0,11.0,0.0
7123,61.0,0.0,30.0,11.0,0.0
7124,64.0,19.0,30.0,12.0,0.0
7125,57.0,2.0,60.0,13.0,0.0
7126,45.0,25.0,60.0,14.0,0.0
7127,69.0,1.0,15.0,11.0,0.0
7128,61.0,0.0,15.0,11.0,0.0
7129,64.0,4.0,15.0,12.0,0.0
7130,86.0,8.0,120.0,10.0,0.0
7131,68.0,0.0,30.0,11.0,0.0
7132,59.0,1.0,30.0,11.0,0.0
7133,74.0,1.0,30.0,4.0,0.0
7134,80.0,0.0,60.0,1.0,0.0
7135,86.0,3.0,60.0,1.0,0.0
7136,76.0,0.0,240.0,2.0,0.0
7137,64.0,3.0,240.0,2.0,0.0
7138,64.0,19.0,30.0,12.0,0.0
7139,71.0,3.0,30.0,5.0,0.0
7140,62.0,0.0,30.0,12.0,0.0
7141,52.0,2.0,60.0,13.0,0.0
7142,64.0,1.0,240.0,3.0,0.0
7143,52.0,0.0,240.0,3.0,0.0
7144,40.0,18.0,60.0,14.0,0.0
7145,59.0,0.0,15.0,11.0,0.0
7146,68.0,1.0,15.0,11.0,0.0
7147,62.0,0.0,15.0,12.0,0.0
7148,64.0,5.0,15.0,12.0,0.0
7149,76.0,7.0,20.0,0.0,0.0
7150,68.0,1.0,30.0,11.0,0.0
7151,59.0,0.0,30.0,11.0,0.0
7152,74.0,1.0,30.0,4.0,0.0
7153,64.0,0.0,30.0,12.0,0.0
7154,71.0,3.0,30.0,5.0,0.0
7155,62.0,9.0,30.0,12.0,0.0
7156,85.0,1.0,15.0,10.0,0.0
7157,59.0,0.0,15.0,11.0,0.0
7158,68.0,1.0,15.0,11.0,0.0
7159,78.0,1.0,15.0,0.0,0.0
7160,62.0,0.0,15.0,12.0,0.0
7161,64.0,27.0,15.0,12.0,0.0
7162,83.0,1.0,20.0,10.0,0.0
7163,80.0,11.0,20.0,0.0,0.0
7164,68.0,0.0,30.0,11.0,0.0
7165,86.0,0.0,60.0,1.0,0.0
7166,59.0,1.0,30.0,11.0,0.0
7167,64.0,17.0,30.0,12.0,0.0
7168,62.0,0.0,30.0,12.0,0.0
7169,56.0,2.0,60.0,13.0,0.0
7170,44.0,17.0,60.0,14.0,0.0
7171,81.0,1.0,15.0,10.0,0.0
7172,68.0,0.0,15.0,11.0,0.0
7173,81.0,1.0,15.0,0.0,0.0
7174,59.0,1.0,15.0,11.0,0.0
7175,62.0,5.0,15.0,12.0,0.0
7176,64.0,0.0,15.0,12.0,0.0
7177,80.0,1.0,20.0,10.0,0.0
7178,71.0,1.0,30.0,4.0,0.0
7179,83.0,7.0,20.0,0.0,0.0
7180,59.0,1.0,30.0,11.0,0.0
7181,80.0,3.0,15.0,1.0,0.0
7182,74.0,0.0,60.0,1.0,0.0
7183,68.0,0.0,30.0,11.0,0.0
7184,64.0,3.0,30.0,5.0,0.0
7185,64.0,17.0,30.0,12.0,0.0
7186,62.0,0.0,30.0,12.0,0.0
7187,59.0,2.0,60.0,13.0,0.0
7188,47.0,17.0,60.0,14.0,0.0
7189,78.0,1.0,15.0,10.0,0.0
7190,68.0,1.0,15.0,11.0,0.0
7191,59.0,0.0,15.0,11.0,0.0
7192,85.0,1.0,15.0,0.0,0.0
7193,62.0,0.0,15.0,12.0,0.0
7194,64.0,1.0,15.0,12.0,0.0
7195,76.0,1.0,20.0,10.0,0.0
7196,68.0,1.0,30.0,11.0,0.0
7197,86.0,7.0,20.0,0.0,0.0
7198,71.0,1.0,30.0,4.0,0.0
7199,59.0,0.0,30.0,11.0,0.0
7200,64.0,5.0,30.0,12.0,0.0
7201,62.0,0.0,30.0,12.0,0.0
7202,71.0,9.0,30.0,2.0,0.0
7203,64.0,3.0,30.0,5.0,0.0
7204,74.0,0.0,30.0,2.0,0.0
7205,64.0,3.0,60.0,3.0,0.0
7206,52.0,0.0,60.0,3.0,0.0
7207,74.0,1.0,15.0,10.0,0.0
7208,68.0,0.0,15.0,11.0,0.0
7209,88.0,1.0,15.0,0.0,0.0
7210,59.0,1.0,15.0,11.0,0.0
7211,62.0,0.0,15.0,12.0,0.0
7212,64.0,27.0,15.0,12.0,0.0
7213,73.0,1.0,20.0,10.0,0.0
7214,68.0,1.0,30.0,11.0,0.0
7215,90.0,11.0,20.0,0.0,0.0
7216,59.0,0.0,30.0,11.0,0.0
7217,74.0,1.0,60.0,1.0,0.0
7218,80.0,0.0,60.0,1.0,0.0
7219,71.0,0.0,60.0,2.0,0.0
7220,74.0,2.0,60.0,2.0,0.0
7221,62.0,14.0,30.0,12.0,0.0
7222,64.0,0.0,30.0,12.0,0.0
7223,64.0,2.0,60.0,13.0,0.0
7224,64.0,3.0,60.0,3.0,0.0
7225,52.0,0.0,60.0,3.0,0.0
7226,52.0,29.0,60.0,14.0,0.0
7227,71.0,1.0,15.0,10.0,0.0
7228,92.0,1.0,15.0,0.0,0.0
7229,59.0,1.0,15.0,11.0,0.0
7230,68.0,0.0,15.0,11.0,0.0
7231,64.0,5.0,15.0,12.0,0.0
7232,62.0,0.0,15.0,12.0,0.0
7233,69.0,25.0,30.0,10.0,0.0
7234,69.0,0.0,60.0,4.0,0.0
7235,81.0,0.0,60.0,1.0,0.0
7236,73.0,0.0,60.0,1.0,0.0
7237,61.0,0.0,60.0,11.0,0.0
7238,69.0,0.0,60.0,11.0,0.0
7239,93.0,1.0,60.0,0.0,0.0
7240,73.0,0.0,60.0,2.0,0.0
7241,69.0,0.0,60.0,2.0,0.0
7242,61.0,2.0,60.0,5.0,0.0
7243,64.0,0.0,60.0,12.0,0.0
7244,61.0,0.0,60.0,12.0,0.0
7245,57.0,1.0,60.0,13.0,0.0
7246,64.0,1.0,60.0,3.0,0.0
7247,52.0,0.0,60.0,3.0,0.0
7248,45.0,24.0,60.0,14.0,0.0
7249,75.0,1.0,15.0,10.0,0.0
7250,76.0,91.0,30.0,10.0,0.0
7251,71.0,1.0,60.0,4.0,0.0
7252,64.0,29.0,60.0,5.0,0.0
7253,73.0,1.0,30.0,4.0,0.0
7254,69.0,28.0,30.0,5.0,0.0
7255,75.0,30.0,15.0,10.0,0.0
7256,76.0,91.0,30.0,10.0,0.0
7257,71.0,1.0,60.0,4.0,0.0
7258,64.0,29.0,60.0,5.0,0.0
7259,69.0,1.0,30.0,4.0,0.0
7260,61.0,29.0,30.0,5.0,0.0
7261,87.0,0.0,15.0,0.0,0.0
7262,75.0,30.0,15.0,11.0,0.0
7263,76.0,0.0,30.0,11.0,0.0
7264,88.0,90.0,30.0,0.0,0.0
7265,71.0,1.0,60.0,4.0,0.0
7266,80.0,0.0,60.0,1.0,0.0
7267,83.0,0.0,60.0,1.0,0.0
7268,64.0,29.0,60.0,5.0,0.0
7269,81.0,0.0,30.0,1.0,0.0
7270,85.0,0.0,30.0,1.0,0.0
7271,73.0,1.0,30.0,4.0,0.0
7272,69.0,29.0,30.0,5.0,0.0
7273,87.0,30.0,15.0,0.0,0.0
7274,75.0,0.0,15.0,11.0,0.0
7275,76.0,89.0,30.0,11.0,0.0
7276,88.0,0.0,30.0,0.0,0.0
7277,76.0,0.0,60.0,10.0,0.0
7278,86.0,1.0,60.0,10.0,0.0
7279,71.0,0.0,60.0,4.0,0.0
7280,86.0,0.0,60.0,1.0,0.0
7281,80.0,0.0,60.0,11.0,0.0
7282,92.0,0.0,60.0,0.0,0.0
7283,80.0,1.0,60.0,1.0,0.0
7284,64.0,2.0,60.0,5.0,0.0
7285,64.0,0.0,60.0,12.0,0.0
7286,80.0,0.0,60.0,2.0,0.0
7287,74.0,0.0,60.0,2.0,0.0
7288,52.0,1.0,60.0,13.0,0.0
7289,59.0,0.0,60.0,3.0,0.0
7290,62.0,1.0,60.0,3.0,0.0
7291,40.0,24.0,60.0,14.0,0.0
7292,85.0,1.0,30.0,10.0,0.0
7293,76.0,0.0,30.0,10.0,0.0
7294,81.0,0.0,30.0,11.0,0.0
7295,93.0,1.0,30.0,0.0,0.0
7296,69.0,0.0,30.0,4.0,0.0
7297,85.0,0.0,30.0,1.0,0.0
7298,81.0,0.0,30.0,1.0,0.0
7299,81.0,0.0,30.0,2.0,0.0
7300,69.0,0.0,30.0,12.0,0.0
7301,73.0,2.0,30.0,2.0,0.0
7302,61.0,0.0,30.0,5.0,0.0
7303,57.0,1.0,30.0,13.0,0.0
7304,61.0,0.0,30.0,3.0,0.0
7305,57.0,1.0,30.0,3.0,0.0
7306,45.0,54.0,30.0,14.0,0.0
7307,61.0,0.0,30.0,10.0,0.0
7308,69.0,1.0,30.0,10.0,0.0
7309,61.0,0.0,30.0,11.0,0.0
7310,73.0,0.0,30.0,1.0,0.0
7311,81.0,0.0,30.0,1.0,0.0
7312,69.0,0.0,30.0,11.0,0.0
7313,64.0,0.0,30.0,4.0,0.0
7314,81.0,1.0,30.0,0.0,0.0
7315,73.0,0.0,30.0,2.0,0.0
7316,64.0,0.0,30.0,2.0,0.0
7317,57.0,2.0,30.0,5.0,0.0
7318,57.0,0.0,30.0,12.0,0.0
7319,45.0,1.0,30.0,13.0,0.0
7320,61.0,0.0,30.0,3.0,0.0
7321,57.0,1.0,30.0,3.0,0.0
7322,33.0,54.0,30.0,14.0,0.0
7323,61.0,1.0,30.0,10.0,0.0
7324,69.0,0.0,30.0,10.0,0.0
7325,73.0,0.0,30.0,1.0,0.0
7326,81.0,0.0,30.0,1.0,0.0
7327,69.0,0.0,30.0,11.0,0.0
7328,64.0,1.0,30.0,4.0,0.0
7329,61.0,0.0,30.0,11.0,0.0
7330,81.0,0.0,30.0,0.0,0.0
7331,73.0,0.0,30.0,2.0,0.0
7332,64.0,2.0,30.0,2.0,0.0
7333,57.0,0.0,30.0,12.0,0.0
7334,57.0,0.0,30.0,5.0,0.0
7335,45.0,1.0,30.0,13.0,0.0
7336,61.0,1.0,30.0,3.0,0.0
7337,57.0,0.0,30.0,3.0,0.0
7338,33.0,144.0,30.0,14.0,0.0
7339,69.0,0.0,120.0,10.0,0.0
7340,61.0,1.0,120.0,10.0,0.0
7341,81.0,0.0,120.0,0.0,0.0
7342,61.0,0.0,120.0,11.0,0.0
7343,64.0,1.0,120.0,4.0,0.0
7344,73.0,0.0,120.0,1.0,0.0
7345,81.0,0.0,120.0,1.0,0.0
7346,69.0,0.0,120.0,11.0,0.0
7347,61.0,0.0,120.0,2.0,0.0
7348,57.0,2.0,120.0,12.0,0.0
7349,69.0,0.0,120.0,2.0,0.0
7350,57.0,0.0,120.0,5.0,0.0
7351,45.0,1.0,120.0,13.0,0.0
7352,57.0,0.0,120.0,3.0,0.0
7353,61.0,1.0,120.0,3.0,0.0
7354,33.0,240.0,120.0,14.0,0.0
