,note,step,duration,channel,velocity
0,71.0,320.0,150.0,1.0,0.0
1,40.0,0.0,300.0,4.0,0.0
2,76.0,96.0,300.0,1.0,0.0
3,68.0,0.0,300.0,3.0,0.0
4,71.0,0.0,300.0,2.0,0.0
5,44.0,0.0,90.0,4.0,0.0
6,64.0,0.0,90.0,3.0,0.0
7,68.0,0.0,90.0,2.0,0.0
8,71.0,96.0,90.0,1.0,0.0
9,64.0,94.0,90.0,2.0,0.0
10,59.0,0.0,90.0,3.0,0.0
11,47.0,0.0,90.0,4.0,0.0
12,68.0,0.0,90.0,1.0,0.0
13,52.0,0.0,90.0,4.0,0.0
14,59.0,0.0,90.0,2.0,0.0
15,64.0,194.0,90.0,1.0,0.0
16,56.0,0.0,90.0,3.0,0.0
17,57.0,0.0,390.0,3.0,0.0
18,59.0,48.0,330.0,2.0,0.0
19,54.0,160.0,390.0,4.0,0.0
20,64.0,144.0,180.0,1.0,0.0
21,63.0,0.0,180.0,1.0,0.0
22,64.0,0.0,150.0,1.0,0.0
23,59.0,56.0,150.0,2.0,0.0
24,56.0,0.0,150.0,3.0,0.0
25,52.0,0.0,150.0,4.0,0.0
26,66.0,24.0,20.0,1.0,0.0
27,59.0,96.0,90.0,3.0,0.0
28,64.0,0.0,180.0,2.0,0.0
29,47.0,30.0,270.0,4.0,0.0
30,64.0,24.0,20.0,1.0,0.0
31,63.0,22.0,20.0,1.0,0.0
32,64.0,2.0,20.0,1.0,0.0
33,68.0,64.0,90.0,1.0,0.0
34,58.0,0.0,90.0,3.0,0.0
35,59.0,288.0,90.0,3.0,0.0
36,63.0,0.0,90.0,2.0,0.0
37,66.0,0.0,90.0,1.0,0.0
38,69.0,258.0,90.0,1.0,0.0
39,47.0,32.0,270.0,4.0,0.0
40,81.0,94.0,300.0,1.0,0.0
41,63.0,0.0,270.0,3.0,0.0
42,66.0,0.0,270.0,2.0,0.0
43,69.0,2.0,90.0,2.0,0.0
44,59.0,0.0,90.0,4.0,0.0
45,78.0,96.0,90.0,1.0,0.0
46,63.0,0.0,90.0,3.0,0.0
47,66.0,0.0,90.0,3.0,0.0
48,69.0,0.0,90.0,2.0,0.0
49,75.0,94.0,90.0,1.0,0.0
50,60.0,0.0,90.0,4.0,0.0
51,64.0,0.0,90.0,3.0,0.0
52,68.0,0.0,90.0,2.0,0.0
53,76.0,162.0,90.0,1.0,0.0
54,61.0,0.0,90.0,4.0,0.0
55,66.0,56.0,150.0,1.0,0.0
56,57.0,0.0,150.0,4.0,0.0
57,61.0,46.0,390.0,2.0,0.0
58,66.0,24.0,20.0,1.0,0.0
59,42.0,0.0,180.0,4.0,0.0
60,57.0,32.0,150.0,3.0,0.0
61,69.0,112.0,20.0,1.0,0.0
62,73.0,26.0,180.0,1.0,0.0
63,63.0,0.0,150.0,2.0,0.0
64,47.0,8.0,150.0,4.0,0.0
65,57.0,0.0,150.0,3.0,0.0
66,71.0,24.0,20.0,1.0,0.0
67,69.0,24.0,20.0,1.0,0.0
68,68.0,24.0,20.0,1.0,0.0
69,66.0,16.0,20.0,1.0,0.0
70,64.0,22.0,20.0,1.0,0.0
71,63.0,146.0,20.0,1.0,0.0
72,63.0,0.0,180.0,2.0,0.0
73,66.0,64.0,180.0,1.0,0.0
74,40.0,30.0,270.0,4.0,0.0
75,57.0,24.0,150.0,3.0,0.0
76,59.0,22.0,20.0,3.0,0.0
77,57.0,2.0,20.0,3.0,0.0
78,59.0,0.0,90.0,2.0,0.0
79,64.0,146.0,90.0,1.0,0.0
80,56.0,0.0,90.0,3.0,0.0
81,64.0,48.0,40.0,1.0,0.0
82,68.0,48.0,40.0,1.0,0.0
83,71.0,46.0,40.0,1.0,0.0
84,76.0,218.0,40.0,1.0,0.0
85,80.0,24.0,210.0,1.0,0.0
86,64.0,0.0,270.0,3.0,0.0
87,68.0,0.0,270.0,2.0,0.0
88,59.0,0.0,270.0,2.0,0.0
89,52.0,8.0,270.0,4.0,0.0
90,78.0,16.0,20.0,1.0,0.0
91,76.0,24.0,20.0,1.0,0.0
92,75.0,24.0,20.0,1.0,0.0
93,76.0,24.0,20.0,1.0,0.0
94,78.0,24.0,20.0,1.0,0.0
95,80.0,22.0,20.0,1.0,0.0
96,81.0,26.0,20.0,1.0,0.0
97,83.0,24.0,20.0,1.0,0.0
98,82.0,24.0,20.0,1.0,0.0
99,85.0,24.0,20.0,1.0,0.0
100,83.0,24.0,20.0,1.0,0.0
101,81.0,24.0,20.0,1.0,0.0
102,80.0,24.0,20.0,1.0,0.0
103,78.0,22.0,20.0,1.0,0.0
104,76.0,98.0,20.0,1.0,0.0
105,59.0,96.0,90.0,3.0,0.0
106,80.0,0.0,180.0,1.0,0.0
107,52.0,0.0,90.0,4.0,0.0
108,68.0,0.0,90.0,2.0,0.0
109,71.0,0.0,90.0,2.0,0.0
110,56.0,0.0,90.0,4.0,0.0
111,64.0,94.0,90.0,3.0,0.0
112,66.0,146.0,90.0,2.0,0.0
113,78.0,0.0,90.0,1.0,0.0
114,63.0,0.0,90.0,3.0,0.0
115,59.0,0.0,90.0,4.0,0.0
116,64.0,48.0,40.0,1.0,0.0
117,68.0,48.0,40.0,1.0,0.0
118,71.0,46.0,40.0,1.0,0.0
119,76.0,218.0,40.0,1.0,0.0
120,52.0,8.0,270.0,4.0,0.0
121,80.0,24.0,210.0,1.0,0.0
122,64.0,0.0,270.0,3.0,0.0
123,68.0,0.0,270.0,2.0,0.0
124,59.0,0.0,270.0,2.0,0.0
125,76.0,16.0,20.0,1.0,0.0
126,83.0,22.0,20.0,1.0,0.0
127,82.0,26.0,20.0,1.0,0.0
128,83.0,24.0,20.0,1.0,0.0
129,80.0,24.0,20.0,1.0,0.0
130,88.0,22.0,20.0,1.0,0.0
131,87.0,26.0,20.0,1.0,0.0
132,88.0,22.0,20.0,1.0,0.0
133,83.0,26.0,20.0,1.0,0.0
134,92.0,24.0,20.0,1.0,0.0
135,88.0,24.0,20.0,1.0,0.0
136,83.0,24.0,20.0,1.0,0.0
137,80.0,24.0,20.0,1.0,0.0
138,78.0,22.0,20.0,1.0,0.0
139,76.0,96.0,20.0,1.0,0.0
140,59.0,0.0,90.0,3.0,0.0
141,52.0,8.0,90.0,4.0,0.0
142,68.0,0.0,90.0,2.0,0.0
143,80.0,2.0,90.0,1.0,0.0
144,81.0,8.0,15.0,1.0,0.0
145,71.0,94.0,90.0,2.0,0.0
146,56.0,0.0,90.0,4.0,0.0
147,64.0,0.0,90.0,3.0,0.0
148,80.0,8.0,15.0,1.0,0.0
149,78.0,12.0,15.0,1.0,0.0
150,80.0,12.0,15.0,1.0,0.0
151,81.0,24.0,15.0,1.0,0.0
152,82.0,22.0,20.0,1.0,0.0
153,83.0,2.0,20.0,1.0,0.0
154,59.0,0.0,90.0,4.0,0.0
155,66.0,0.0,90.0,2.0,0.0
156,63.0,98.0,90.0,3.0,0.0
157,78.0,0.0,90.0,1.0,0.0
158,66.0,22.0,90.0,3.0,0.0
159,63.0,22.0,90.0,3.0,0.0
160,77.0,72.0,20.0,1.0,0.0
161,78.0,2.0,60.0,1.0,0.0
162,77.0,72.0,20.0,1.0,0.0
163,59.0,98.0,90.0,3.0,0.0
164,78.0,0.0,60.0,1.0,0.0
165,70.0,0.0,90.0,2.0,0.0
166,52.0,64.0,180.0,4.0,0.0
167,78.0,30.0,270.0,1.0,0.0
168,61.0,72.0,90.0,3.0,0.0
169,73.0,22.0,60.0,2.0,0.0
170,58.0,0.0,60.0,3.0,0.0
171,54.0,0.0,20.0,3.0,0.0
172,70.0,2.0,20.0,2.0,0.0
173,59.0,0.0,90.0,3.0,0.0
174,75.0,0.0,90.0,2.0,0.0
175,51.0,74.0,90.0,4.0,0.0
176,80.0,22.0,60.0,1.0,0.0
177,78.0,74.0,20.0,1.0,0.0
178,83.0,22.0,60.0,1.0,0.0
179,78.0,74.0,20.0,1.0,0.0
180,87.0,22.0,60.0,1.0,0.0
181,78.0,98.0,20.0,1.0,0.0
182,70.0,72.0,90.0,2.0,0.0
183,52.0,64.0,180.0,4.0,0.0
184,78.0,30.0,270.0,1.0,0.0
185,61.0,0.0,90.0,3.0,0.0
186,58.0,22.0,60.0,3.0,0.0
187,73.0,0.0,60.0,2.0,0.0
188,70.0,0.0,20.0,2.0,0.0
189,54.0,2.0,20.0,3.0,0.0
190,75.0,0.0,90.0,2.0,0.0
191,59.0,66.0,90.0,3.0,0.0
192,51.0,8.0,150.0,4.0,0.0
193,59.0,8.0,150.0,3.0,0.0
194,66.0,64.0,180.0,2.0,0.0
195,80.0,22.0,60.0,1.0,0.0
196,78.0,66.0,20.0,1.0,0.0
197,51.0,8.0,150.0,4.0,0.0
198,83.0,22.0,60.0,1.0,0.0
199,78.0,2.0,20.0,1.0,0.0
200,67.0,26.0,90.0,2.0,0.0
201,87.0,22.0,60.0,1.0,0.0
202,59.0,0.0,90.0,3.0,0.0
203,79.0,0.0,20.0,1.0,0.0
204,68.0,0.0,150.0,2.0,0.0
205,59.0,24.0,40.0,3.0,0.0
206,82.0,24.0,20.0,1.0,0.0
207,52.0,16.0,150.0,4.0,0.0
208,80.0,0.0,20.0,1.0,0.0
209,78.0,24.0,20.0,1.0,0.0
210,60.0,0.0,40.0,3.0,0.0
211,76.0,24.0,20.0,1.0,0.0
212,75.0,22.0,20.0,1.0,0.0
213,61.0,0.0,40.0,3.0,0.0
214,73.0,2.0,20.0,1.0,0.0
215,62.0,0.0,40.0,3.0,0.0
216,71.0,0.0,40.0,2.0,0.0
217,53.0,96.0,40.0,4.0,0.0
218,80.0,24.0,15.0,1.0,0.0
219,80.0,6.0,15.0,1.0,0.0
220,80.0,64.0,90.0,1.0,0.0
221,63.0,0.0,90.0,3.0,0.0
222,71.0,2.0,90.0,2.0,0.0
223,54.0,32.0,150.0,4.0,0.0
224,71.0,10.0,180.0,1.0,0.0
225,63.0,70.0,90.0,3.0,0.0
226,66.0,0.0,90.0,2.0,0.0
227,61.0,0.0,90.0,3.0,0.0
228,42.0,30.0,150.0,4.0,0.0
229,64.0,2.0,90.0,2.0,0.0
230,73.0,8.0,15.0,1.0,0.0
231,71.0,6.0,15.0,1.0,0.0
232,70.0,8.0,15.0,1.0,0.0
233,71.0,8.0,15.0,1.0,0.0
234,61.0,0.0,90.0,3.0,0.0
235,64.0,0.0,90.0,2.0,0.0
236,73.0,8.0,15.0,1.0,0.0
237,75.0,8.0,15.0,1.0,0.0
238,76.0,8.0,15.0,1.0,0.0
239,78.0,18.0,15.0,1.0,0.0
240,80.0,6.0,20.0,1.0,0.0
241,70.0,146.0,20.0,1.0,0.0
242,64.0,24.0,150.0,2.0,0.0
243,47.0,30.0,270.0,4.0,0.0
244,73.0,0.0,180.0,1.0,0.0
245,58.0,64.0,90.0,3.0,0.0
246,66.0,22.0,20.0,2.0,0.0
247,64.0,2.0,20.0,2.0,0.0
248,63.0,0.0,90.0,2.0,0.0
249,71.0,98.0,90.0,1.0,0.0
250,59.0,0.0,90.0,3.0,0.0
251,59.0,68.0,90.0,4.0,0.0
252,63.0,32.0,90.0,4.0,0.0
253,71.0,28.0,60.0,1.0,0.0
254,71.0,62.0,30.0,1.0,0.0
255,66.0,258.0,90.0,4.0,0.0
256,71.0,0.0,300.0,4.0,0.0
257,66.0,32.0,270.0,3.0,0.0
258,71.0,0.0,270.0,2.0,0.0
259,75.0,94.0,300.0,1.0,0.0
260,68.0,94.0,90.0,4.0,0.0
261,64.0,0.0,90.0,3.0,0.0
262,76.0,0.0,90.0,1.0,0.0
263,71.0,2.0,90.0,2.0,0.0
264,78.0,0.0,90.0,1.0,0.0
265,69.0,2.0,90.0,3.0,0.0
266,71.0,0.0,90.0,2.0,0.0
267,63.0,70.0,90.0,4.0,0.0
268,68.0,0.0,60.0,3.0,0.0
269,80.0,0.0,60.0,1.0,0.0
270,64.0,22.0,60.0,4.0,0.0
271,71.0,2.0,60.0,2.0,0.0
272,71.0,0.0,20.0,3.0,0.0
273,76.0,0.0,20.0,1.0,0.0
274,68.0,96.0,20.0,4.0,0.0
275,71.0,2.0,90.0,3.0,0.0
276,80.0,94.0,180.0,1.0,0.0
277,76.0,0.0,180.0,2.0,0.0
278,70.0,48.0,40.0,4.0,0.0
279,59.0,2.0,90.0,3.0,0.0
280,71.0,46.0,40.0,4.0,0.0
281,70.0,0.0,40.0,4.0,0.0
282,78.0,0.0,90.0,1.0,0.0
283,59.0,98.0,90.0,3.0,0.0
284,71.0,0.0,90.0,4.0,0.0
285,75.0,0.0,90.0,2.0,0.0
286,47.0,68.0,90.0,4.0,0.0
287,59.0,0.0,90.0,3.0,0.0
288,83.0,28.0,60.0,1.0,0.0
289,63.0,32.0,90.0,3.0,0.0
290,71.0,0.0,60.0,2.0,0.0
291,51.0,0.0,90.0,4.0,0.0
292,54.0,258.0,90.0,4.0,0.0
293,83.0,0.0,30.0,1.0,0.0
294,66.0,0.0,90.0,3.0,0.0
295,71.0,62.0,30.0,2.0,0.0
296,87.0,126.0,270.0,1.0,0.0
297,75.0,0.0,270.0,2.0,0.0
298,71.0,0.0,270.0,3.0,0.0
299,59.0,0.0,270.0,3.0,0.0
300,57.0,0.0,270.0,4.0,0.0
301,56.0,0.0,90.0,4.0,0.0
302,76.0,94.0,90.0,2.0,0.0
303,71.0,0.0,90.0,3.0,0.0
304,88.0,0.0,90.0,1.0,0.0
305,59.0,2.0,90.0,3.0,0.0
306,69.0,2.0,90.0,3.0,0.0
307,51.0,0.0,90.0,4.0,0.0
308,90.0,72.0,90.0,1.0,0.0
309,78.0,0.0,90.0,2.0,0.0
310,59.0,0.0,90.0,3.0,0.0
311,59.0,0.0,90.0,3.0,0.0
312,92.0,22.0,60.0,1.0,0.0
313,68.0,0.0,90.0,3.0,0.0
314,52.0,0.0,90.0,4.0,0.0
315,80.0,0.0,60.0,2.0,0.0
316,88.0,0.0,20.0,1.0,0.0
317,76.0,240.0,20.0,2.0,0.0
318,47.0,32.0,270.0,4.0,0.0
319,66.0,0.0,270.0,3.0,0.0
320,59.0,0.0,270.0,3.0,0.0
321,93.0,0.0,240.0,1.0,0.0
322,81.0,18.0,240.0,2.0,0.0
323,90.0,48.0,40.0,1.0,0.0
324,78.0,0.0,40.0,2.0,0.0
325,75.0,0.0,40.0,2.0,0.0
326,87.0,48.0,40.0,1.0,0.0
327,83.0,48.0,40.0,1.0,0.0
328,71.0,0.0,40.0,2.0,0.0
329,72.0,48.0,40.0,2.0,0.0
330,84.0,0.0,40.0,1.0,0.0
331,73.0,48.0,40.0,2.0,0.0
332,85.0,0.0,40.0,1.0,0.0
333,86.0,0.0,40.0,1.0,0.0
334,74.0,46.0,40.0,2.0,0.0
335,87.0,0.0,40.0,1.0,0.0
336,75.0,96.0,40.0,2.0,0.0
337,88.0,68.0,300.0,1.0,0.0
338,76.0,162.0,90.0,2.0,0.0
339,52.0,0.0,270.0,4.0,0.0
340,64.0,32.0,270.0,3.0,0.0
341,59.0,0.0,150.0,2.0,0.0
342,68.0,0.0,150.0,2.0,0.0
343,59.0,0.0,60.0,2.0,0.0
344,68.0,0.0,60.0,2.0,0.0
345,83.0,68.0,90.0,1.0,0.0
346,64.0,0.0,60.0,3.0,0.0
347,52.0,28.0,60.0,4.0,0.0
348,80.0,32.0,90.0,1.0,0.0
349,68.0,0.0,60.0,2.0,0.0
350,59.0,0.0,60.0,2.0,0.0
351,64.0,0.0,60.0,3.0,0.0
352,52.0,28.0,60.0,4.0,0.0
353,59.0,0.0,30.0,2.0,0.0
354,68.0,0.0,30.0,2.0,0.0
355,64.0,0.0,30.0,3.0,0.0
356,52.0,62.0,30.0,4.0,0.0
357,76.0,258.0,90.0,1.0,0.0
358,52.0,0.0,270.0,3.0,0.0
359,64.0,32.0,270.0,3.0,0.0
360,88.0,68.0,300.0,1.0,0.0
361,50.0,0.0,270.0,4.0,0.0
362,59.0,0.0,150.0,2.0,0.0
363,68.0,0.0,150.0,2.0,0.0
364,52.0,28.0,60.0,3.0,0.0
365,83.0,68.0,90.0,1.0,0.0
366,59.0,0.0,60.0,2.0,0.0
367,50.0,0.0,60.0,4.0,0.0
368,64.0,0.0,60.0,3.0,0.0
369,68.0,0.0,60.0,2.0,0.0
370,52.0,0.0,60.0,3.0,0.0
371,64.0,28.0,60.0,3.0,0.0
372,59.0,0.0,60.0,2.0,0.0
373,80.0,32.0,90.0,1.0,0.0
374,68.0,0.0,60.0,2.0,0.0
375,50.0,0.0,60.0,4.0,0.0
376,59.0,0.0,30.0,2.0,0.0
377,68.0,0.0,30.0,2.0,0.0
378,52.0,0.0,30.0,3.0,0.0
379,50.0,62.0,30.0,4.0,0.0
380,64.0,0.0,30.0,3.0,0.0
381,76.0,162.0,90.0,1.0,0.0
382,52.0,0.0,150.0,3.0,0.0
383,64.0,0.0,150.0,3.0,0.0
384,69.0,0.0,150.0,2.0,0.0
385,49.0,0.0,150.0,4.0,0.0
386,88.0,192.0,150.0,1.0,0.0
387,90.0,0.0,150.0,1.0,0.0
388,69.0,192.0,150.0,2.0,0.0
389,49.0,0.0,150.0,4.0,0.0
390,64.0,0.0,150.0,3.0,0.0
391,52.0,0.0,150.0,3.0,0.0
392,64.0,126.0,150.0,3.0,0.0
393,48.0,0.0,150.0,4.0,0.0
394,70.0,0.0,150.0,2.0,0.0
395,79.0,0.0,150.0,1.0,0.0
396,91.0,0.0,150.0,1.0,0.0
397,52.0,0.0,150.0,3.0,0.0
398,59.0,66.0,90.0,2.0,0.0
399,71.0,0.0,90.0,2.0,0.0
400,47.0,0.0,330.0,4.0,0.0
401,80.0,32.0,150.0,1.0,0.0
402,92.0,26.0,210.0,1.0,0.0
403,52.0,0.0,90.0,3.0,0.0
404,64.0,0.0,90.0,3.0,0.0
405,59.0,0.0,90.0,2.0,0.0
406,56.0,22.0,90.0,3.0,0.0
407,59.0,0.0,90.0,3.0,0.0
408,64.0,24.0,90.0,2.0,0.0
409,91.0,24.0,20.0,1.0,0.0
410,93.0,24.0,20.0,1.0,0.0
411,92.0,0.0,20.0,1.0,0.0
412,90.0,24.0,20.0,1.0,0.0
413,64.0,0.0,90.0,3.0,0.0
414,68.0,24.0,90.0,2.0,0.0
415,88.0,24.0,20.0,1.0,0.0
416,87.0,22.0,20.0,1.0,0.0
417,85.0,2.0,20.0,1.0,0.0
418,69.0,0.0,90.0,2.0,0.0
419,83.0,24.0,20.0,1.0,0.0
420,47.0,8.0,150.0,4.0,0.0
421,63.0,0.0,90.0,3.0,0.0
422,84.0,24.0,20.0,1.0,0.0
423,87.0,24.0,20.0,1.0,0.0
424,85.0,24.0,20.0,1.0,0.0
425,83.0,24.0,20.0,1.0,0.0
426,57.0,0.0,90.0,3.0,0.0
427,63.0,96.0,90.0,2.0,0.0
428,81.0,16.0,20.0,1.0,0.0
429,80.0,22.0,20.0,1.0,0.0
430,78.0,0.0,20.0,1.0,0.0
431,52.0,0.0,90.0,4.0,0.0
432,76.0,0.0,90.0,1.0,0.0
433,56.0,324.0,90.0,3.0,0.0
434,64.0,0.0,90.0,2.0,0.0
435,57.0,0.0,30.0,4.0,0.0
436,59.0,0.0,30.0,3.0,0.0
437,75.0,0.0,30.0,1.0,0.0
438,66.0,48.0,30.0,2.0,0.0
439,57.0,0.0,30.0,4.0,0.0
440,66.0,48.0,30.0,2.0,0.0
441,59.0,0.0,30.0,3.0,0.0
442,75.0,0.0,30.0,1.0,0.0
443,59.0,0.0,30.0,3.0,0.0
444,73.0,0.0,30.0,1.0,0.0
445,57.0,0.0,30.0,4.0,0.0
446,64.0,46.0,30.0,2.0,0.0
447,71.0,0.0,30.0,1.0,0.0
448,57.0,0.0,30.0,4.0,0.0
449,59.0,0.0,30.0,3.0,0.0
450,63.0,110.0,30.0,2.0,0.0
451,56.0,0.0,90.0,4.0,0.0
452,76.0,0.0,90.0,1.0,0.0
453,59.0,0.0,90.0,3.0,0.0
454,64.0,324.0,90.0,2.0,0.0
455,69.0,48.0,30.0,2.0,0.0
456,71.0,0.0,30.0,1.0,0.0
457,66.0,0.0,30.0,3.0,0.0
458,59.0,0.0,30.0,2.0,0.0
459,51.0,0.0,30.0,4.0,0.0
460,69.0,48.0,30.0,2.0,0.0
461,51.0,0.0,30.0,4.0,0.0
462,66.0,0.0,30.0,3.0,0.0
463,71.0,0.0,30.0,1.0,0.0
464,59.0,0.0,30.0,2.0,0.0
465,71.0,46.0,30.0,1.0,0.0
466,49.0,0.0,30.0,4.0,0.0
467,59.0,0.0,30.0,2.0,0.0
468,69.0,0.0,30.0,2.0,0.0
469,64.0,0.0,30.0,3.0,0.0
470,71.0,0.0,30.0,1.0,0.0
471,59.0,0.0,30.0,2.0,0.0
472,69.0,0.0,30.0,2.0,0.0
473,47.0,0.0,30.0,4.0,0.0
474,63.0,110.0,30.0,3.0,0.0
475,71.0,0.0,90.0,1.0,0.0
476,52.0,0.0,90.0,4.0,0.0
477,59.0,0.0,90.0,2.0,0.0
478,68.0,0.0,90.0,2.0,0.0
479,64.0,384.0,90.0,3.0,0.0
480,40.0,192.0,90.0,4.0,0.0
481,64.0,0.0,90.0,2.0,0.0
482,68.0,0.0,90.0,1.0,0.0
483,59.0,0.0,90.0,3.0,0.0
484,56.0,322.0,90.0,3.0,0.0
485,59.0,0.0,90.0,2.0,0.0
486,40.0,0.0,90.0,4.0,0.0
487,64.0,0.0,90.0,1.0,0.0
488,76.0,48.0,30.0,1.0,0.0
489,76.0,48.0,30.0,1.0,0.0
490,74.0,48.0,30.0,1.0,0.0
491,73.0,110.0,30.0,1.0,0.0
492,78.0,144.0,90.0,1.0,0.0
493,74.0,48.0,40.0,1.0,0.0
494,74.0,48.0,40.0,1.0,0.0
495,73.0,48.0,40.0,1.0,0.0
496,71.0,96.0,40.0,1.0,0.0
497,76.0,130.0,90.0,1.0,0.0
498,76.0,64.0,30.0,1.0,0.0
499,76.0,48.0,40.0,1.0,0.0
500,74.0,46.0,40.0,1.0,0.0
501,73.0,34.0,40.0,1.0,0.0
502,73.0,62.0,30.0,1.0,0.0
503,57.0,2.0,90.0,4.0,0.0
504,64.0,0.0,480.0,2.0,0.0
505,73.0,0.0,40.0,1.0,0.0
506,64.0,48.0,40.0,3.0,0.0
507,71.0,46.0,40.0,1.0,0.0
508,62.0,0.0,40.0,3.0,0.0
509,61.0,0.0,40.0,3.0,0.0
510,69.0,34.0,40.0,1.0,0.0
511,57.0,2.0,90.0,4.0,0.0
512,61.0,0.0,30.0,3.0,0.0
513,69.0,62.0,30.0,1.0,0.0
514,69.0,0.0,40.0,1.0,0.0
515,61.0,46.0,40.0,3.0,0.0
516,59.0,32.0,40.0,3.0,0.0
517,68.0,2.0,40.0,1.0,0.0
518,69.0,14.0,30.0,1.0,0.0
519,57.0,50.0,40.0,3.0,0.0
520,56.0,34.0,90.0,3.0,0.0
521,70.0,46.0,40.0,1.0,0.0
522,52.0,0.0,90.0,4.0,0.0
523,71.0,0.0,40.0,1.0,0.0
524,71.0,48.0,30.0,1.0,0.0
525,71.0,48.0,30.0,1.0,0.0
526,78.0,64.0,30.0,1.0,0.0
527,78.0,48.0,40.0,1.0,0.0
528,76.0,46.0,40.0,1.0,0.0
529,74.0,34.0,40.0,1.0,0.0
530,74.0,62.0,30.0,1.0,0.0
531,66.0,0.0,30.0,3.0,0.0
532,64.0,0.0,480.0,2.0,0.0
533,40.0,2.0,90.0,4.0,0.0
534,66.0,48.0,40.0,3.0,0.0
535,74.0,0.0,40.0,1.0,0.0
536,73.0,46.0,40.0,1.0,0.0
537,64.0,0.0,40.0,3.0,0.0
538,62.0,34.0,40.0,3.0,0.0
539,71.0,0.0,40.0,1.0,0.0
540,52.0,2.0,90.0,4.0,0.0
541,71.0,0.0,30.0,1.0,0.0
542,62.0,62.0,30.0,3.0,0.0
543,62.0,0.0,40.0,3.0,0.0
544,71.0,46.0,40.0,1.0,0.0
545,61.0,32.0,40.0,3.0,0.0
546,70.0,2.0,40.0,1.0,0.0
547,59.0,50.0,40.0,3.0,0.0
548,71.0,14.0,30.0,1.0,0.0
549,45.0,34.0,90.0,4.0,0.0
550,57.0,0.0,90.0,3.0,0.0
551,72.0,46.0,40.0,1.0,0.0
552,73.0,0.0,40.0,1.0,0.0
553,73.0,48.0,30.0,1.0,0.0
554,73.0,48.0,30.0,1.0,0.0
555,64.0,0.0,300.0,3.0,0.0
556,73.0,0.0,30.0,2.0,0.0
557,81.0,64.0,30.0,1.0,0.0
558,57.0,32.0,180.0,4.0,0.0
559,73.0,0.0,40.0,2.0,0.0
560,81.0,48.0,40.0,1.0,0.0
561,83.0,46.0,40.0,1.0,0.0
562,71.0,0.0,40.0,2.0,0.0
563,69.0,0.0,40.0,2.0,0.0
564,85.0,2.0,40.0,1.0,0.0
565,52.0,2.0,90.0,4.0,0.0
566,83.0,62.0,30.0,1.0,0.0
567,68.0,0.0,30.0,2.0,0.0
568,83.0,48.0,40.0,1.0,0.0
569,68.0,0.0,40.0,2.0,0.0
570,69.0,0.0,40.0,2.0,0.0
571,81.0,46.0,40.0,1.0,0.0
572,71.0,0.0,40.0,2.0,0.0
573,80.0,34.0,40.0,1.0,0.0
574,69.0,64.0,30.0,2.0,0.0
575,63.0,32.0,180.0,3.0,0.0
576,78.0,0.0,30.0,1.0,0.0
577,47.0,0.0,180.0,4.0,0.0
578,78.0,0.0,40.0,1.0,0.0
579,69.0,48.0,40.0,2.0,0.0
580,80.0,46.0,40.0,1.0,0.0
581,68.0,0.0,40.0,2.0,0.0
582,66.0,2.0,40.0,2.0,0.0
583,81.0,0.0,40.0,1.0,0.0
584,52.0,2.0,90.0,4.0,0.0
585,80.0,62.0,30.0,1.0,0.0
586,64.0,0.0,90.0,3.0,0.0
587,80.0,0.0,40.0,1.0,0.0
588,64.0,48.0,40.0,2.0,0.0
589,78.0,0.0,40.0,1.0,0.0
590,66.0,46.0,40.0,2.0,0.0
591,76.0,0.0,40.0,1.0,0.0
592,68.0,34.0,40.0,2.0,0.0
593,57.0,0.0,30.0,4.0,0.0
594,66.0,0.0,30.0,2.0,0.0
595,81.0,64.0,30.0,1.0,0.0
596,61.0,0.0,30.0,3.0,0.0
597,61.0,48.0,40.0,3.0,0.0
598,81.0,0.0,40.0,1.0,0.0
599,66.0,0.0,40.0,2.0,0.0
600,57.0,0.0,40.0,4.0,0.0
601,68.0,0.0,40.0,2.0,0.0
602,56.0,0.0,40.0,4.0,0.0
603,83.0,0.0,40.0,1.0,0.0
604,59.0,46.0,40.0,3.0,0.0
605,54.0,34.0,40.0,4.0,0.0
606,69.0,0.0,40.0,2.0,0.0
607,85.0,0.0,40.0,1.0,0.0
608,57.0,0.0,40.0,3.0,0.0
609,68.0,0.0,30.0,2.0,0.0
610,83.0,0.0,30.0,1.0,0.0
611,64.0,62.0,30.0,3.0,0.0
612,59.0,2.0,90.0,4.0,0.0
613,64.0,46.0,40.0,3.0,0.0
614,83.0,0.0,40.0,1.0,0.0
615,68.0,0.0,40.0,2.0,0.0
616,81.0,0.0,40.0,1.0,0.0
617,66.0,46.0,40.0,2.0,0.0
618,63.0,2.0,40.0,3.0,0.0
619,64.0,34.0,40.0,2.0,0.0
620,80.0,0.0,40.0,1.0,0.0
621,78.0,14.0,30.0,1.0,0.0
622,51.0,0.0,30.0,4.0,0.0
623,69.0,0.0,40.0,2.0,0.0
624,59.0,48.0,40.0,3.0,0.0
625,69.0,0.0,40.0,2.0,0.0
626,78.0,0.0,40.0,1.0,0.0
627,59.0,2.0,40.0,3.0,0.0
628,51.0,46.0,40.0,4.0,0.0
629,83.0,0.0,40.0,1.0,0.0
630,69.0,2.0,40.0,2.0,0.0
631,59.0,0.0,40.0,3.0,0.0
632,49.0,46.0,40.0,4.0,0.0
633,59.0,0.0,40.0,3.0,0.0
634,69.0,2.0,40.0,2.0,0.0
635,75.0,0.0,40.0,1.0,0.0
636,47.0,160.0,40.0,4.0,0.0
637,68.0,64.0,150.0,2.0,0.0
638,52.0,0.0,150.0,4.0,0.0
639,59.0,0.0,150.0,3.0,0.0
640,76.0,0.0,150.0,1.0,0.0
641,76.0,64.0,30.0,1.0,0.0
642,76.0,48.0,40.0,1.0,0.0
643,74.0,46.0,40.0,1.0,0.0
644,73.0,34.0,40.0,1.0,0.0
645,57.0,2.0,90.0,4.0,0.0
646,64.0,34.0,480.0,2.0,0.0
647,73.0,62.0,30.0,1.0,0.0
648,64.0,48.0,40.0,3.0,0.0
649,73.0,0.0,40.0,1.0,0.0
650,71.0,0.0,40.0,1.0,0.0
651,62.0,46.0,40.0,3.0,0.0
652,69.0,0.0,40.0,1.0,0.0
653,61.0,34.0,40.0,3.0,0.0
654,61.0,62.0,30.0,3.0,0.0
655,57.0,2.0,90.0,4.0,0.0
656,69.0,0.0,30.0,1.0,0.0
657,69.0,0.0,40.0,1.0,0.0
658,61.0,46.0,40.0,3.0,0.0
659,68.0,2.0,40.0,1.0,0.0
660,59.0,32.0,40.0,3.0,0.0
661,69.0,14.0,30.0,1.0,0.0
662,57.0,50.0,40.0,3.0,0.0
663,52.0,0.0,90.0,4.0,0.0
664,70.0,46.0,40.0,1.0,0.0
665,56.0,0.0,90.0,3.0,0.0
666,71.0,0.0,40.0,1.0,0.0
667,71.0,48.0,30.0,1.0,0.0
668,71.0,48.0,30.0,1.0,0.0
669,78.0,64.0,30.0,1.0,0.0
670,78.0,48.0,40.0,1.0,0.0
671,76.0,46.0,40.0,1.0,0.0
672,74.0,34.0,40.0,1.0,0.0
673,66.0,0.0,30.0,3.0,0.0
674,74.0,62.0,30.0,1.0,0.0
675,40.0,2.0,90.0,4.0,0.0
676,64.0,0.0,480.0,2.0,0.0
677,66.0,48.0,40.0,3.0,0.0
678,74.0,0.0,40.0,1.0,0.0
679,73.0,0.0,40.0,1.0,0.0
680,64.0,46.0,40.0,3.0,0.0
681,71.0,34.0,40.0,1.0,0.0
682,62.0,0.0,40.0,3.0,0.0
683,71.0,62.0,30.0,1.0,0.0
684,52.0,2.0,90.0,4.0,0.0
685,62.0,0.0,30.0,3.0,0.0
686,62.0,0.0,40.0,3.0,0.0
687,71.0,46.0,40.0,1.0,0.0
688,61.0,32.0,40.0,3.0,0.0
689,70.0,2.0,40.0,1.0,0.0
690,71.0,14.0,30.0,1.0,0.0
691,59.0,50.0,40.0,3.0,0.0
692,57.0,34.0,90.0,3.0,0.0
693,72.0,46.0,40.0,1.0,0.0
694,45.0,0.0,90.0,4.0,0.0
695,73.0,0.0,40.0,1.0,0.0
696,73.0,48.0,30.0,1.0,0.0
697,73.0,48.0,30.0,1.0,0.0
698,81.0,0.0,30.0,1.0,0.0
699,64.0,0.0,300.0,3.0,0.0
700,57.0,32.0,180.0,4.0,0.0
701,73.0,64.0,30.0,2.0,0.0
702,73.0,0.0,40.0,2.0,0.0
703,81.0,48.0,40.0,1.0,0.0
704,71.0,46.0,40.0,2.0,0.0
705,83.0,0.0,40.0,1.0,0.0
706,85.0,2.0,40.0,1.0,0.0
707,69.0,0.0,40.0,2.0,0.0
708,52.0,2.0,90.0,4.0,0.0
709,68.0,0.0,30.0,2.0,0.0
710,83.0,62.0,30.0,1.0,0.0
711,68.0,0.0,40.0,2.0,0.0
712,83.0,48.0,40.0,1.0,0.0
713,69.0,46.0,40.0,2.0,0.0
714,81.0,0.0,40.0,1.0,0.0
715,80.0,0.0,40.0,1.0,0.0
716,71.0,34.0,40.0,2.0,0.0
717,63.0,0.0,180.0,3.0,0.0
718,69.0,64.0,30.0,2.0,0.0
719,78.0,0.0,30.0,1.0,0.0
720,47.0,32.0,180.0,4.0,0.0
721,78.0,0.0,40.0,1.0,0.0
722,69.0,48.0,40.0,2.0,0.0
723,80.0,46.0,40.0,1.0,0.0
724,68.0,0.0,40.0,2.0,0.0
725,81.0,0.0,40.0,1.0,0.0
726,66.0,2.0,40.0,2.0,0.0
727,80.0,62.0,30.0,1.0,0.0
728,64.0,0.0,90.0,3.0,0.0
729,52.0,2.0,90.0,4.0,0.0
730,64.0,0.0,40.0,2.0,0.0
731,80.0,48.0,40.0,1.0,0.0
732,66.0,46.0,40.0,2.0,0.0
733,78.0,0.0,40.0,1.0,0.0
734,76.0,34.0,40.0,1.0,0.0
735,68.0,0.0,40.0,2.0,0.0
736,57.0,0.0,30.0,4.0,0.0
737,81.0,0.0,30.0,1.0,0.0
738,61.0,0.0,30.0,3.0,0.0
739,66.0,64.0,30.0,2.0,0.0
740,61.0,0.0,40.0,3.0,0.0
741,57.0,0.0,40.0,4.0,0.0
742,81.0,0.0,40.0,1.0,0.0
743,66.0,48.0,40.0,2.0,0.0
744,68.0,46.0,40.0,2.0,0.0
745,59.0,0.0,40.0,3.0,0.0
746,56.0,0.0,40.0,4.0,0.0
747,83.0,0.0,40.0,1.0,0.0
748,57.0,0.0,40.0,3.0,0.0
749,54.0,0.0,40.0,4.0,0.0
750,85.0,34.0,40.0,1.0,0.0
751,69.0,0.0,40.0,2.0,0.0
752,64.0,62.0,30.0,3.0,0.0
753,59.0,2.0,90.0,4.0,0.0
754,68.0,0.0,30.0,2.0,0.0
755,83.0,0.0,30.0,1.0,0.0
756,83.0,0.0,40.0,1.0,0.0
757,68.0,46.0,40.0,2.0,0.0
758,64.0,0.0,40.0,3.0,0.0
759,63.0,2.0,40.0,3.0,0.0
760,66.0,46.0,40.0,2.0,0.0
761,81.0,0.0,40.0,1.0,0.0
762,64.0,34.0,40.0,2.0,0.0
763,80.0,0.0,40.0,1.0,0.0
764,78.0,14.0,30.0,1.0,0.0
765,59.0,0.0,40.0,3.0,0.0
766,51.0,0.0,30.0,4.0,0.0
767,69.0,48.0,40.0,2.0,0.0
768,78.0,46.0,40.0,1.0,0.0
769,59.0,0.0,40.0,3.0,0.0
770,69.0,2.0,40.0,2.0,0.0
771,51.0,0.0,40.0,4.0,0.0
772,59.0,2.0,40.0,3.0,0.0
773,83.0,0.0,40.0,1.0,0.0
774,69.0,0.0,40.0,2.0,0.0
775,49.0,46.0,40.0,4.0,0.0
776,69.0,0.0,40.0,2.0,0.0
777,75.0,160.0,40.0,1.0,0.0
778,47.0,0.0,40.0,4.0,0.0
779,59.0,2.0,40.0,3.0,0.0
780,59.0,0.0,150.0,3.0,0.0
781,52.0,0.0,150.0,4.0,0.0
782,76.0,0.0,150.0,1.0,0.0
783,68.0,64.0,150.0,2.0,0.0
784,79.0,64.0,30.0,2.0,0.0
785,79.0,48.0,40.0,2.0,0.0
786,78.0,46.0,40.0,2.0,0.0
787,76.0,34.0,40.0,2.0,0.0
788,76.0,64.0,30.0,2.0,0.0
789,73.0,0.0,30.0,3.0,0.0
790,76.0,0.0,40.0,2.0,0.0
791,73.0,48.0,40.0,3.0,0.0
792,74.0,0.0,40.0,2.0,0.0
793,71.0,46.0,40.0,3.0,0.0
794,70.0,0.0,40.0,3.0,0.0
795,73.0,34.0,40.0,2.0,0.0
796,67.0,0.0,30.0,4.0,0.0
797,81.0,0.0,30.0,1.0,0.0
798,73.0,64.0,30.0,2.0,0.0
799,81.0,48.0,40.0,1.0,0.0
800,73.0,0.0,40.0,2.0,0.0
801,67.0,0.0,40.0,4.0,0.0
802,83.0,0.0,40.0,1.0,0.0
803,66.0,46.0,40.0,4.0,0.0
804,74.0,0.0,40.0,2.0,0.0
805,85.0,0.0,40.0,1.0,0.0
806,73.0,0.0,40.0,3.0,0.0
807,64.0,34.0,40.0,4.0,0.0
808,76.0,0.0,40.0,2.0,0.0
809,78.0,2.0,90.0,2.0,0.0
810,86.0,0.0,30.0,1.0,0.0
811,66.0,0.0,30.0,3.0,0.0
812,62.0,62.0,30.0,4.0,0.0
813,66.0,0.0,40.0,3.0,0.0
814,86.0,48.0,40.0,1.0,0.0
815,62.0,0.0,40.0,4.0,0.0
816,61.0,46.0,40.0,4.0,0.0
817,64.0,0.0,40.0,3.0,0.0
818,88.0,0.0,40.0,1.0,0.0
819,59.0,0.0,40.0,4.0,0.0
820,90.0,0.0,40.0,1.0,0.0
821,62.0,34.0,40.0,3.0,0.0
822,78.0,64.0,30.0,2.0,0.0
823,78.0,48.0,40.0,2.0,0.0
824,76.0,46.0,40.0,2.0,0.0
825,74.0,34.0,40.0,2.0,0.0
826,71.0,64.0,30.0,3.0,0.0
827,74.0,0.0,30.0,2.0,0.0
828,71.0,0.0,40.0,3.0,0.0
829,74.0,48.0,40.0,2.0,0.0
830,69.0,0.0,40.0,3.0,0.0
831,73.0,46.0,40.0,2.0,0.0
832,68.0,0.0,40.0,3.0,0.0
833,71.0,34.0,40.0,2.0,0.0
834,65.0,0.0,30.0,4.0,0.0
835,71.0,0.0,30.0,2.0,0.0
836,80.0,64.0,30.0,1.0,0.0
837,65.0,0.0,40.0,4.0,0.0
838,80.0,0.0,40.0,1.0,0.0
839,71.0,48.0,40.0,2.0,0.0
840,73.0,0.0,40.0,2.0,0.0
841,81.0,0.0,40.0,1.0,0.0
842,64.0,46.0,40.0,4.0,0.0
843,74.0,0.0,40.0,2.0,0.0
844,62.0,34.0,40.0,4.0,0.0
845,83.0,0.0,40.0,1.0,0.0
846,71.0,0.0,40.0,3.0,0.0
847,76.0,2.0,90.0,2.0,0.0
848,61.0,62.0,30.0,4.0,0.0
849,85.0,0.0,30.0,1.0,0.0
850,64.0,0.0,30.0,3.0,0.0
851,64.0,0.0,40.0,3.0,0.0
852,85.0,0.0,40.0,1.0,0.0
853,61.0,48.0,40.0,4.0,0.0
854,62.0,0.0,40.0,3.0,0.0
855,86.0,46.0,40.0,1.0,0.0
856,59.0,0.0,40.0,4.0,0.0
857,61.0,0.0,40.0,3.0,0.0
858,57.0,0.0,40.0,4.0,0.0
859,88.0,34.0,40.0,1.0,0.0
860,73.0,0.0,30.0,2.0,0.0
861,52.0,2.0,90.0,4.0,0.0
862,85.0,62.0,30.0,1.0,0.0
863,57.0,0.0,30.0,3.0,0.0
864,85.0,48.0,40.0,1.0,0.0
865,57.0,0.0,40.0,3.0,0.0
866,73.0,0.0,40.0,2.0,0.0
867,83.0,46.0,40.0,1.0,0.0
868,64.0,34.0,90.0,4.0,0.0
869,59.0,0.0,40.0,3.0,0.0
870,71.0,0.0,40.0,2.0,0.0
871,81.0,0.0,40.0,1.0,0.0
872,61.0,0.0,40.0,3.0,0.0
873,69.0,0.0,40.0,2.0,0.0
874,86.0,62.0,30.0,1.0,0.0
875,52.0,2.0,90.0,4.0,0.0
876,74.0,0.0,30.0,2.0,0.0
877,56.0,0.0,30.0,3.0,0.0
878,74.0,48.0,40.0,2.0,0.0
879,56.0,0.0,40.0,3.0,0.0
880,86.0,0.0,40.0,1.0,0.0
881,85.0,46.0,40.0,1.0,0.0
882,57.0,0.0,40.0,3.0,0.0
883,73.0,0.0,40.0,2.0,0.0
884,64.0,0.0,90.0,4.0,0.0
885,71.0,0.0,40.0,2.0,0.0
886,59.0,0.0,40.0,3.0,0.0
887,83.0,34.0,40.0,1.0,0.0
888,52.0,2.0,90.0,4.0,0.0
889,85.0,0.0,30.0,1.0,0.0
890,57.0,62.0,30.0,3.0,0.0
891,73.0,0.0,30.0,2.0,0.0
892,85.0,0.0,40.0,1.0,0.0
893,73.0,48.0,40.0,2.0,0.0
894,57.0,0.0,40.0,3.0,0.0
895,83.0,0.0,40.0,1.0,0.0
896,71.0,46.0,40.0,2.0,0.0
897,64.0,0.0,90.0,4.0,0.0
898,59.0,0.0,40.0,3.0,0.0
899,61.0,0.0,40.0,3.0,0.0
900,69.0,34.0,40.0,2.0,0.0
901,81.0,0.0,40.0,1.0,0.0
902,52.0,2.0,90.0,4.0,0.0
903,62.0,30.0,150.0,3.0,0.0
904,80.0,62.0,30.0,1.0,0.0
905,68.0,0.0,30.0,2.0,0.0
906,68.0,48.0,40.0,2.0,0.0
907,80.0,0.0,40.0,1.0,0.0
908,66.0,16.0,40.0,2.0,0.0
909,64.0,0.0,90.0,4.0,0.0
910,78.0,0.0,40.0,1.0,0.0
911,76.0,34.0,40.0,1.0,0.0
912,64.0,0.0,40.0,2.0,0.0
913,73.0,0.0,30.0,2.0,0.0
914,52.0,2.0,90.0,3.0,0.0
915,85.0,0.0,30.0,1.0,0.0
916,45.0,62.0,30.0,4.0,0.0
917,85.0,48.0,40.0,1.0,0.0
918,73.0,0.0,40.0,2.0,0.0
919,45.0,0.0,40.0,4.0,0.0
920,71.0,0.0,40.0,2.0,0.0
921,47.0,46.0,40.0,4.0,0.0
922,64.0,0.0,90.0,3.0,0.0
923,83.0,0.0,40.0,1.0,0.0
924,49.0,0.0,40.0,4.0,0.0
925,81.0,0.0,40.0,1.0,0.0
926,69.0,34.0,40.0,2.0,0.0
927,74.0,62.0,30.0,2.0,0.0
928,86.0,0.0,30.0,1.0,0.0
929,52.0,2.0,90.0,3.0,0.0
930,44.0,0.0,30.0,4.0,0.0
931,86.0,0.0,40.0,1.0,0.0
932,44.0,0.0,40.0,4.0,0.0
933,74.0,48.0,40.0,2.0,0.0
934,73.0,0.0,40.0,2.0,0.0
935,64.0,0.0,90.0,3.0,0.0
936,85.0,0.0,40.0,1.0,0.0
937,45.0,46.0,40.0,4.0,0.0
938,47.0,0.0,40.0,4.0,0.0
939,83.0,34.0,40.0,1.0,0.0
940,71.0,0.0,40.0,2.0,0.0
941,85.0,0.0,30.0,1.0,0.0
942,73.0,62.0,30.0,2.0,0.0
943,45.0,0.0,30.0,4.0,0.0
944,52.0,2.0,90.0,3.0,0.0
945,85.0,0.0,40.0,1.0,0.0
946,73.0,0.0,40.0,2.0,0.0
947,45.0,48.0,40.0,4.0,0.0
948,83.0,0.0,40.0,1.0,0.0
949,64.0,0.0,90.0,3.0,0.0
950,71.0,46.0,40.0,2.0,0.0
951,44.0,0.0,40.0,4.0,0.0
952,45.0,96.0,40.0,4.0,0.0
953,81.0,0.0,40.0,1.0,0.0
954,69.0,0.0,40.0,2.0,0.0
955,40.0,66.0,90.0,4.0,0.0
956,88.0,16.0,930.0,1.0,0.0
957,52.0,0.0,90.0,3.0,0.0
958,76.0,64.0,150.0,2.0,0.0
959,76.0,64.0,30.0,2.0,0.0
960,64.0,0.0,1440.0,3.0,0.0
961,76.0,48.0,40.0,2.0,0.0
962,74.0,46.0,40.0,2.0,0.0
963,73.0,34.0,40.0,2.0,0.0
964,73.0,64.0,30.0,2.0,0.0
965,64.0,0.0,40.0,4.0,0.0
966,73.0,48.0,40.0,2.0,0.0
967,62.0,46.0,40.0,4.0,0.0
968,71.0,0.0,40.0,2.0,0.0
969,61.0,0.0,40.0,4.0,0.0
970,69.0,34.0,40.0,2.0,0.0
971,69.0,64.0,30.0,2.0,0.0
972,61.0,0.0,30.0,4.0,0.0
973,69.0,46.0,40.0,2.0,0.0
974,61.0,0.0,40.0,4.0,0.0
975,68.0,2.0,40.0,2.0,0.0
976,59.0,32.0,40.0,4.0,0.0
977,69.0,14.0,30.0,2.0,0.0
978,57.0,50.0,40.0,4.0,0.0
979,70.0,46.0,40.0,2.0,0.0
980,56.0,0.0,90.0,4.0,0.0
981,71.0,34.0,40.0,2.0,0.0
982,71.0,32.0,30.0,2.0,0.0
983,71.0,48.0,30.0,2.0,0.0
984,78.0,64.0,30.0,2.0,0.0
985,90.0,0.0,30.0,1.0,0.0
986,78.0,48.0,40.0,2.0,0.0
987,90.0,0.0,40.0,1.0,0.0
988,76.0,0.0,40.0,2.0,0.0
989,88.0,46.0,40.0,1.0,0.0
990,74.0,34.0,40.0,2.0,0.0
991,86.0,0.0,40.0,1.0,0.0
992,66.0,0.0,30.0,4.0,0.0
993,86.0,0.0,30.0,1.0,0.0
994,74.0,64.0,30.0,2.0,0.0
995,74.0,0.0,40.0,2.0,0.0
996,86.0,0.0,40.0,1.0,0.0
997,66.0,48.0,40.0,4.0,0.0
998,85.0,0.0,40.0,1.0,0.0
999,73.0,46.0,40.0,2.0,0.0
1000,64.0,0.0,40.0,4.0,0.0
1001,62.0,0.0,40.0,4.0,0.0
1002,83.0,34.0,40.0,1.0,0.0
1003,71.0,0.0,40.0,2.0,0.0
1004,71.0,64.0,30.0,2.0,0.0
1005,62.0,0.0,30.0,4.0,0.0
1006,83.0,0.0,30.0,1.0,0.0
1007,71.0,0.0,40.0,2.0,0.0
1008,83.0,46.0,40.0,1.0,0.0
1009,62.0,0.0,40.0,4.0,0.0
1010,81.0,0.0,40.0,1.0,0.0
1011,69.0,2.0,40.0,2.0,0.0
1012,61.0,32.0,40.0,4.0,0.0
1013,71.0,0.0,30.0,2.0,0.0
1014,83.0,14.0,30.0,1.0,0.0
1015,59.0,34.0,40.0,4.0,0.0
1016,57.0,2.0,90.0,4.0,0.0
1017,73.0,16.0,30.0,2.0,0.0
1018,84.0,46.0,40.0,1.0,0.0
1019,85.0,0.0,40.0,1.0,0.0
1020,69.0,32.0,40.0,2.0,0.0
1021,85.0,16.0,30.0,1.0,0.0
1022,68.0,32.0,40.0,2.0,0.0
1023,67.0,34.0,40.0,2.0,0.0
1024,85.0,14.0,30.0,1.0,0.0
1025,86.0,64.0,30.0,1.0,0.0
1026,66.0,0.0,30.0,2.0,0.0
1027,69.0,0.0,300.0,3.0,0.0
1028,62.0,32.0,180.0,4.0,0.0
1029,86.0,48.0,40.0,1.0,0.0
1030,78.0,0.0,40.0,2.0,0.0
1031,88.0,46.0,40.0,1.0,0.0
1032,76.0,0.0,40.0,2.0,0.0
1033,74.0,0.0,40.0,2.0,0.0
1034,90.0,2.0,40.0,1.0,0.0
1035,88.0,62.0,30.0,1.0,0.0
1036,57.0,2.0,90.0,4.0,0.0
1037,73.0,0.0,30.0,2.0,0.0
1038,73.0,0.0,40.0,2.0,0.0
1039,88.0,48.0,40.0,1.0,0.0
1040,74.0,0.0,40.0,2.0,0.0
1041,86.0,46.0,40.0,1.0,0.0
1042,76.0,0.0,40.0,2.0,0.0
1043,85.0,34.0,40.0,1.0,0.0
1044,68.0,30.0,150.0,3.0,0.0
1045,83.0,0.0,30.0,1.0,0.0
1046,74.0,64.0,30.0,2.0,0.0
1047,52.0,32.0,180.0,4.0,0.0
1048,83.0,0.0,40.0,1.0,0.0
1049,74.0,48.0,40.0,2.0,0.0
1050,73.0,0.0,40.0,2.0,0.0
1051,85.0,16.0,40.0,1.0,0.0
1052,86.0,2.0,40.0,1.0,0.0
1053,71.0,0.0,40.0,2.0,0.0
1054,85.0,0.0,30.0,1.0,0.0
1055,57.0,2.0,90.0,4.0,0.0
1056,69.0,62.0,30.0,2.0,0.0
1057,85.0,0.0,40.0,1.0,0.0
1058,69.0,48.0,40.0,2.0,0.0
1059,83.0,46.0,40.0,1.0,0.0
1060,68.0,0.0,40.0,3.0,0.0
1061,71.0,0.0,40.0,2.0,0.0
1062,67.0,0.0,40.0,3.0,0.0
1063,73.0,0.0,40.0,2.0,0.0
1064,81.0,34.0,40.0,1.0,0.0
1065,74.0,64.0,30.0,2.0,0.0
1066,66.0,0.0,30.0,3.0,0.0
1067,86.0,0.0,30.0,1.0,0.0
1068,50.0,0.0,30.0,4.0,0.0
1069,50.0,0.0,40.0,4.0,0.0
1070,66.0,0.0,40.0,3.0,0.0
1071,71.0,0.0,40.0,2.0,0.0
1072,86.0,48.0,40.0,1.0,0.0
1073,64.0,0.0,40.0,3.0,0.0
1074,49.0,0.0,40.0,4.0,0.0
1075,73.0,46.0,40.0,2.0,0.0
1076,88.0,0.0,40.0,1.0,0.0
1077,47.0,0.0,40.0,4.0,0.0
1078,62.0,34.0,40.0,3.0,0.0
1079,90.0,0.0,40.0,1.0,0.0
1080,74.0,0.0,40.0,2.0,0.0
1081,52.0,2.0,90.0,4.0,0.0
1082,73.0,0.0,30.0,2.0,0.0
1083,64.0,48.0,40.0,3.0,0.0
1084,88.0,14.0,30.0,1.0,0.0
1085,88.0,0.0,40.0,1.0,0.0
1086,73.0,46.0,40.0,2.0,0.0
1087,64.0,0.0,40.0,3.0,0.0
1088,64.0,2.0,40.0,3.0,0.0
1089,71.0,46.0,40.0,2.0,0.0
1090,86.0,0.0,40.0,1.0,0.0
1091,64.0,34.0,40.0,3.0,0.0
1092,85.0,0.0,40.0,1.0,0.0
1093,69.0,0.0,40.0,2.0,0.0
1094,74.0,0.0,40.0,2.0,0.0
1095,52.0,0.0,40.0,3.0,0.0
1096,64.0,48.0,40.0,3.0,0.0
1097,83.0,0.0,30.0,1.0,0.0
1098,44.0,14.0,30.0,4.0,0.0
1099,83.0,0.0,40.0,1.0,0.0
1100,44.0,46.0,40.0,4.0,0.0
1101,52.0,2.0,40.0,3.0,0.0
1102,74.0,0.0,40.0,2.0,0.0
1103,64.0,0.0,40.0,3.0,0.0
1104,74.0,2.0,40.0,2.0,0.0
1105,64.0,0.0,40.0,3.0,0.0
1106,52.0,0.0,40.0,3.0,0.0
1107,42.0,46.0,40.0,4.0,0.0
1108,88.0,0.0,40.0,1.0,0.0
1109,80.0,160.0,40.0,1.0,0.0
1110,40.0,0.0,40.0,4.0,0.0
1111,74.0,2.0,40.0,2.0,0.0
1112,52.0,0.0,40.0,3.0,0.0
1113,64.0,0.0,40.0,3.0,0.0
1114,45.0,0.0,150.0,4.0,0.0
1115,73.0,64.0,150.0,2.0,0.0
1116,57.0,0.0,150.0,3.0,0.0
1117,81.0,0.0,150.0,1.0,0.0
1118,79.0,64.0,30.0,2.0,0.0
1119,79.0,48.0,40.0,2.0,0.0
1120,78.0,46.0,40.0,2.0,0.0
1121,76.0,34.0,40.0,2.0,0.0
1122,73.0,64.0,30.0,3.0,0.0
1123,76.0,0.0,30.0,2.0,0.0
1124,76.0,48.0,40.0,2.0,0.0
1125,73.0,0.0,40.0,3.0,0.0
1126,71.0,0.0,40.0,3.0,0.0
1127,74.0,46.0,40.0,2.0,0.0
1128,70.0,34.0,40.0,3.0,0.0
1129,73.0,0.0,40.0,2.0,0.0
1130,67.0,0.0,30.0,4.0,0.0
1131,81.0,0.0,30.0,1.0,0.0
1132,73.0,64.0,30.0,2.0,0.0
1133,67.0,48.0,40.0,4.0,0.0
1134,81.0,0.0,40.0,1.0,0.0
1135,73.0,0.0,40.0,2.0,0.0
1136,83.0,46.0,40.0,1.0,0.0
1137,74.0,0.0,40.0,2.0,0.0
1138,66.0,0.0,40.0,4.0,0.0
1139,85.0,34.0,40.0,1.0,0.0
1140,64.0,0.0,40.0,4.0,0.0
1141,73.0,0.0,40.0,3.0,0.0
1142,76.0,0.0,40.0,2.0,0.0
1143,66.0,0.0,30.0,3.0,0.0
1144,86.0,0.0,30.0,1.0,0.0
1145,78.0,2.0,90.0,2.0,0.0
1146,62.0,62.0,30.0,4.0,0.0
1147,66.0,0.0,40.0,3.0,0.0
1148,62.0,48.0,40.0,4.0,0.0
1149,86.0,0.0,40.0,1.0,0.0
1150,88.0,0.0,40.0,1.0,0.0
1151,64.0,0.0,40.0,3.0,0.0
1152,61.0,46.0,40.0,4.0,0.0
1153,59.0,34.0,40.0,4.0,0.0
1154,62.0,0.0,40.0,3.0,0.0
1155,90.0,0.0,40.0,1.0,0.0
1156,78.0,64.0,30.0,2.0,0.0
1157,78.0,48.0,40.0,2.0,0.0
1158,76.0,46.0,40.0,2.0,0.0
1159,74.0,34.0,40.0,2.0,0.0
1160,74.0,64.0,30.0,2.0,0.0
1161,71.0,0.0,30.0,3.0,0.0
1162,71.0,48.0,40.0,3.0,0.0
1163,74.0,0.0,40.0,2.0,0.0
1164,73.0,0.0,40.0,2.0,0.0
1165,69.0,46.0,40.0,3.0,0.0
1166,71.0,34.0,40.0,2.0,0.0
1167,68.0,0.0,40.0,3.0,0.0
1168,65.0,0.0,30.0,4.0,0.0
1169,71.0,0.0,30.0,2.0,0.0
1170,80.0,64.0,30.0,1.0,0.0
1171,71.0,0.0,40.0,2.0,0.0
1172,80.0,48.0,40.0,1.0,0.0
1173,65.0,0.0,40.0,4.0,0.0
1174,73.0,0.0,40.0,2.0,0.0
1175,81.0,46.0,40.0,1.0,0.0
1176,64.0,0.0,40.0,4.0,0.0
1177,74.0,0.0,40.0,2.0,0.0
1178,71.0,0.0,40.0,3.0,0.0
1179,62.0,0.0,40.0,4.0,0.0
1180,83.0,34.0,40.0,1.0,0.0
1181,76.0,2.0,90.0,2.0,0.0
1182,64.0,62.0,30.0,3.0,0.0
1183,61.0,0.0,30.0,4.0,0.0
1184,85.0,0.0,30.0,1.0,0.0
1185,64.0,48.0,40.0,3.0,0.0
1186,85.0,0.0,40.0,1.0,0.0
1187,61.0,0.0,40.0,4.0,0.0
1188,62.0,0.0,40.0,3.0,0.0
1189,86.0,0.0,40.0,1.0,0.0
1190,59.0,46.0,40.0,4.0,0.0
1191,88.0,34.0,40.0,1.0,0.0
1192,57.0,0.0,40.0,4.0,0.0
1193,61.0,0.0,40.0,3.0,0.0
1194,52.0,2.0,90.0,4.0,0.0
1195,57.0,0.0,30.0,3.0,0.0
1196,85.0,62.0,30.0,1.0,0.0
1197,73.0,0.0,30.0,2.0,0.0
1198,57.0,0.0,40.0,3.0,0.0
1199,85.0,0.0,40.0,1.0,0.0
1200,73.0,48.0,40.0,2.0,0.0
1201,83.0,0.0,40.0,1.0,0.0
1202,71.0,46.0,40.0,2.0,0.0
1203,59.0,0.0,40.0,3.0,0.0
1204,64.0,0.0,90.0,4.0,0.0
1205,69.0,0.0,40.0,2.0,0.0
1206,61.0,0.0,40.0,3.0,0.0
1207,81.0,34.0,40.0,1.0,0.0
1208,74.0,0.0,30.0,2.0,0.0
1209,56.0,62.0,30.0,3.0,0.0
1210,86.0,0.0,30.0,1.0,0.0
1211,52.0,2.0,90.0,4.0,0.0
1212,86.0,0.0,40.0,1.0,0.0
1213,74.0,0.0,40.0,2.0,0.0
1214,56.0,48.0,40.0,3.0,0.0
1215,85.0,0.0,40.0,1.0,0.0
1216,57.0,0.0,40.0,3.0,0.0
1217,64.0,0.0,90.0,4.0,0.0
1218,73.0,46.0,40.0,2.0,0.0
1219,71.0,34.0,40.0,2.0,0.0
1220,83.0,0.0,40.0,1.0,0.0
1221,59.0,0.0,40.0,3.0,0.0
1222,52.0,2.0,90.0,4.0,0.0
1223,85.0,0.0,30.0,1.0,0.0
1224,57.0,62.0,30.0,3.0,0.0
1225,73.0,0.0,30.0,2.0,0.0
1226,73.0,0.0,40.0,2.0,0.0
1227,85.0,0.0,40.0,1.0,0.0
1228,57.0,48.0,40.0,3.0,0.0
1229,83.0,0.0,40.0,1.0,0.0
1230,59.0,0.0,40.0,3.0,0.0
1231,71.0,46.0,40.0,2.0,0.0
1232,64.0,0.0,90.0,4.0,0.0
1233,81.0,0.0,40.0,1.0,0.0
1234,61.0,0.0,40.0,3.0,0.0
1235,69.0,34.0,40.0,2.0,0.0
1236,80.0,62.0,30.0,1.0,0.0
1237,52.0,2.0,90.0,4.0,0.0
1238,68.0,0.0,30.0,2.0,0.0
1239,62.0,30.0,150.0,3.0,0.0
1240,80.0,48.0,40.0,1.0,0.0
1241,68.0,0.0,40.0,2.0,0.0
1242,66.0,0.0,40.0,2.0,0.0
1243,64.0,0.0,90.0,4.0,0.0
1244,78.0,16.0,40.0,1.0,0.0
1245,76.0,34.0,40.0,1.0,0.0
1246,64.0,0.0,40.0,2.0,0.0
1247,45.0,0.0,30.0,4.0,0.0
1248,85.0,0.0,30.0,1.0,0.0
1249,52.0,2.0,90.0,3.0,0.0
1250,73.0,62.0,30.0,2.0,0.0
1251,73.0,48.0,40.0,2.0,0.0
1252,85.0,0.0,40.0,1.0,0.0
1253,45.0,0.0,40.0,4.0,0.0
1254,47.0,46.0,40.0,4.0,0.0
1255,83.0,0.0,40.0,1.0,0.0
1256,64.0,0.0,90.0,3.0,0.0
1257,71.0,0.0,40.0,2.0,0.0
1258,69.0,34.0,40.0,2.0,0.0
1259,49.0,0.0,40.0,4.0,0.0
1260,81.0,0.0,40.0,1.0,0.0
1261,44.0,0.0,30.0,4.0,0.0
1262,52.0,2.0,90.0,3.0,0.0
1263,86.0,0.0,30.0,1.0,0.0
1264,74.0,62.0,30.0,2.0,0.0
1265,44.0,0.0,40.0,4.0,0.0
1266,86.0,0.0,40.0,1.0,0.0
1267,74.0,48.0,40.0,2.0,0.0
1268,64.0,0.0,90.0,3.0,0.0
1269,45.0,0.0,40.0,4.0,0.0
1270,73.0,0.0,40.0,2.0,0.0
1271,85.0,46.0,40.0,1.0,0.0
1272,83.0,0.0,40.0,1.0,0.0
1273,71.0,0.0,40.0,2.0,0.0
1274,47.0,34.0,40.0,4.0,0.0
1275,85.0,0.0,30.0,1.0,0.0
1276,52.0,2.0,90.0,3.0,0.0
1277,73.0,0.0,30.0,2.0,0.0
1278,45.0,62.0,30.0,4.0,0.0
1279,73.0,0.0,40.0,2.0,0.0
1280,85.0,0.0,40.0,1.0,0.0
1281,45.0,48.0,40.0,4.0,0.0
1282,83.0,0.0,40.0,1.0,0.0
1283,71.0,0.0,40.0,2.0,0.0
1284,44.0,46.0,40.0,4.0,0.0
1285,64.0,96.0,90.0,3.0,0.0
1286,81.0,0.0,40.0,1.0,0.0
1287,69.0,0.0,40.0,2.0,0.0
1288,45.0,0.0,40.0,4.0,0.0
1289,76.0,64.0,150.0,2.0,0.0
1290,40.0,0.0,90.0,4.0,0.0
1291,52.0,66.0,90.0,3.0,0.0
1292,88.0,16.0,930.0,1.0,0.0
1293,76.0,64.0,30.0,2.0,0.0
1294,64.0,0.0,1440.0,3.0,0.0
1295,76.0,48.0,40.0,2.0,0.0
1296,74.0,46.0,40.0,2.0,0.0
1297,73.0,34.0,40.0,2.0,0.0
1298,73.0,64.0,30.0,2.0,0.0
1299,64.0,0.0,40.0,4.0,0.0
1300,73.0,48.0,40.0,2.0,0.0
1301,62.0,46.0,40.0,4.0,0.0
1302,71.0,0.0,40.0,2.0,0.0
1303,61.0,0.0,40.0,4.0,0.0
1304,69.0,34.0,40.0,2.0,0.0
1305,61.0,0.0,30.0,4.0,0.0
1306,69.0,64.0,30.0,2.0,0.0
1307,69.0,46.0,40.0,2.0,0.0
1308,61.0,0.0,40.0,4.0,0.0
1309,68.0,2.0,40.0,2.0,0.0
1310,59.0,32.0,40.0,4.0,0.0
1311,57.0,50.0,40.0,4.0,0.0
1312,69.0,14.0,30.0,2.0,0.0
1313,70.0,46.0,40.0,2.0,0.0
1314,56.0,0.0,90.0,4.0,0.0
1315,71.0,34.0,40.0,2.0,0.0
1316,71.0,32.0,30.0,2.0,0.0
1317,71.0,48.0,30.0,2.0,0.0
1318,90.0,0.0,30.0,1.0,0.0
1319,78.0,64.0,30.0,2.0,0.0
1320,78.0,48.0,40.0,2.0,0.0
1321,90.0,0.0,40.0,1.0,0.0
1322,88.0,46.0,40.0,1.0,0.0
1323,76.0,0.0,40.0,2.0,0.0
1324,74.0,34.0,40.0,2.0,0.0
1325,86.0,0.0,40.0,1.0,0.0
1326,86.0,0.0,30.0,1.0,0.0
1327,66.0,64.0,30.0,4.0,0.0
1328,74.0,0.0,30.0,2.0,0.0
1329,74.0,0.0,40.0,2.0,0.0
1330,86.0,48.0,40.0,1.0,0.0
1331,66.0,0.0,40.0,4.0,0.0
1332,64.0,46.0,40.0,4.0,0.0
1333,73.0,0.0,40.0,2.0,0.0
1334,85.0,0.0,40.0,1.0,0.0
1335,62.0,0.0,40.0,4.0,0.0
1336,71.0,0.0,40.0,2.0,0.0
1337,83.0,34.0,40.0,1.0,0.0
1338,62.0,64.0,30.0,4.0,0.0
1339,71.0,0.0,30.0,2.0,0.0
1340,83.0,0.0,30.0,1.0,0.0
1341,83.0,0.0,40.0,1.0,0.0
1342,71.0,0.0,40.0,2.0,0.0
1343,62.0,46.0,40.0,4.0,0.0
1344,61.0,32.0,40.0,4.0,0.0
1345,69.0,2.0,40.0,2.0,0.0
1346,81.0,0.0,40.0,1.0,0.0
1347,71.0,14.0,30.0,2.0,0.0
1348,59.0,34.0,40.0,4.0,0.0
1349,83.0,0.0,30.0,1.0,0.0
1350,57.0,2.0,90.0,4.0,0.0
1351,84.0,46.0,40.0,1.0,0.0
1352,73.0,16.0,30.0,2.0,0.0
1353,85.0,0.0,40.0,1.0,0.0
1354,69.0,32.0,40.0,2.0,0.0
1355,68.0,32.0,40.0,2.0,0.0
1356,85.0,16.0,30.0,1.0,0.0
1357,67.0,34.0,40.0,2.0,0.0
1358,85.0,14.0,30.0,1.0,0.0
1359,66.0,64.0,30.0,2.0,0.0
1360,86.0,0.0,30.0,1.0,0.0
1361,62.0,32.0,180.0,4.0,0.0
1362,69.0,0.0,300.0,3.0,0.0
1363,86.0,0.0,40.0,1.0,0.0
1364,78.0,48.0,40.0,2.0,0.0
1365,88.0,46.0,40.0,1.0,0.0
1366,76.0,0.0,40.0,2.0,0.0
1367,74.0,0.0,40.0,2.0,0.0
1368,90.0,2.0,40.0,1.0,0.0
1369,73.0,0.0,30.0,2.0,0.0
1370,57.0,2.0,90.0,4.0,0.0
1371,88.0,62.0,30.0,1.0,0.0
1372,88.0,0.0,40.0,1.0,0.0
1373,73.0,48.0,40.0,2.0,0.0
1374,86.0,46.0,40.0,1.0,0.0
1375,74.0,0.0,40.0,2.0,0.0
1376,76.0,34.0,40.0,2.0,0.0
1377,85.0,0.0,40.0,1.0,0.0
1378,83.0,0.0,30.0,1.0,0.0
1379,52.0,32.0,180.0,4.0,0.0
1380,74.0,64.0,30.0,2.0,0.0
1381,68.0,30.0,150.0,3.0,0.0
1382,83.0,0.0,40.0,1.0,0.0
1383,74.0,48.0,40.0,2.0,0.0
1384,85.0,16.0,40.0,1.0,0.0
1385,73.0,0.0,40.0,2.0,0.0
1386,71.0,2.0,40.0,2.0,0.0
1387,86.0,0.0,40.0,1.0,0.0
1388,69.0,62.0,30.0,2.0,0.0
1389,85.0,0.0,30.0,1.0,0.0
1390,57.0,2.0,90.0,4.0,0.0
1391,69.0,48.0,40.0,2.0,0.0
1392,85.0,0.0,40.0,1.0,0.0
1393,83.0,0.0,40.0,1.0,0.0
1394,68.0,46.0,40.0,3.0,0.0
1395,71.0,0.0,40.0,2.0,0.0
1396,81.0,0.0,40.0,1.0,0.0
1397,73.0,0.0,40.0,2.0,0.0
1398,67.0,34.0,40.0,3.0,0.0
1399,86.0,0.0,30.0,1.0,0.0
1400,50.0,0.0,30.0,4.0,0.0
1401,74.0,0.0,30.0,2.0,0.0
1402,66.0,64.0,30.0,3.0,0.0
1403,71.0,0.0,40.0,2.0,0.0
1404,66.0,0.0,40.0,3.0,0.0
1405,50.0,48.0,40.0,4.0,0.0
1406,86.0,0.0,40.0,1.0,0.0
1407,73.0,0.0,40.0,2.0,0.0
1408,64.0,46.0,40.0,3.0,0.0
1409,88.0,0.0,40.0,1.0,0.0
1410,49.0,0.0,40.0,4.0,0.0
1411,62.0,0.0,40.0,3.0,0.0
1412,90.0,0.0,40.0,1.0,0.0
1413,47.0,34.0,40.0,4.0,0.0
1414,74.0,0.0,40.0,2.0,0.0
1415,73.0,14.0,30.0,2.0,0.0
1416,52.0,2.0,90.0,4.0,0.0
1417,88.0,0.0,30.0,1.0,0.0
1418,64.0,48.0,40.0,3.0,0.0
1419,73.0,0.0,40.0,2.0,0.0
1420,88.0,46.0,40.0,1.0,0.0
1421,64.0,0.0,40.0,3.0,0.0
1422,86.0,46.0,40.0,1.0,0.0
1423,64.0,2.0,40.0,3.0,0.0
1424,71.0,0.0,40.0,2.0,0.0
1425,69.0,0.0,40.0,2.0,0.0
1426,85.0,34.0,40.0,1.0,0.0
1427,64.0,0.0,40.0,3.0,0.0
1428,44.0,0.0,30.0,4.0,0.0
1429,74.0,48.0,40.0,2.0,0.0
1430,52.0,0.0,40.0,3.0,0.0
1431,83.0,14.0,30.0,1.0,0.0
1432,64.0,0.0,40.0,3.0,0.0
1433,74.0,0.0,40.0,2.0,0.0
1434,83.0,46.0,40.0,1.0,0.0
1435,44.0,0.0,40.0,4.0,0.0
1436,64.0,0.0,40.0,3.0,0.0
1437,52.0,2.0,40.0,3.0,0.0
1438,88.0,46.0,40.0,1.0,0.0
1439,74.0,0.0,40.0,2.0,0.0
1440,52.0,0.0,40.0,3.0,0.0
1441,42.0,0.0,40.0,4.0,0.0
1442,64.0,2.0,40.0,3.0,0.0
1443,52.0,0.0,40.0,3.0,0.0
1444,80.0,0.0,40.0,1.0,0.0
1445,40.0,160.0,40.0,4.0,0.0
1446,74.0,2.0,40.0,2.0,0.0
1447,64.0,0.0,40.0,3.0,0.0
1448,81.0,0.0,150.0,1.0,0.0
1449,45.0,0.0,150.0,4.0,0.0
1450,73.0,64.0,150.0,2.0,0.0
1451,57.0,0.0,150.0,3.0,0.0
1452,85.0,64.0,30.0,1.0,0.0
1453,85.0,48.0,40.0,1.0,0.0
1454,83.0,46.0,40.0,1.0,0.0
1455,81.0,34.0,40.0,1.0,0.0
1456,73.0,0.0,30.0,2.0,0.0
1457,81.0,64.0,30.0,1.0,0.0
1458,73.0,0.0,40.0,2.0,0.0
1459,81.0,48.0,40.0,1.0,0.0
1460,71.0,46.0,40.0,2.0,0.0
1461,80.0,0.0,40.0,1.0,0.0
1462,69.0,34.0,40.0,2.0,0.0
1463,78.0,0.0,40.0,1.0,0.0
1464,73.0,0.0,30.0,3.0,0.0
1465,78.0,0.0,30.0,1.0,0.0
1466,69.0,64.0,30.0,2.0,0.0
1467,73.0,0.0,40.0,3.0,0.0
1468,69.0,0.0,40.0,2.0,0.0
1469,78.0,48.0,40.0,1.0,0.0
1470,71.0,46.0,40.0,3.0,0.0
1471,68.0,0.0,40.0,2.0,0.0
1472,76.0,0.0,40.0,1.0,0.0
1473,66.0,0.0,40.0,2.0,0.0
1474,69.0,0.0,40.0,3.0,0.0
1475,75.0,34.0,40.0,1.0,0.0
1476,69.0,0.0,30.0,3.0,0.0
1477,66.0,0.0,30.0,2.0,0.0
1478,75.0,64.0,30.0,1.0,0.0
1479,75.0,48.0,40.0,1.0,0.0
1480,69.0,0.0,40.0,3.0,0.0
1481,66.0,0.0,40.0,2.0,0.0
1482,73.0,46.0,40.0,1.0,0.0
1483,68.0,0.0,40.0,3.0,0.0
1484,64.0,0.0,40.0,2.0,0.0
1485,63.0,0.0,40.0,2.0,0.0
1486,66.0,0.0,40.0,3.0,0.0
1487,71.0,34.0,40.0,1.0,0.0
1488,66.0,2.0,90.0,3.0,0.0
1489,63.0,0.0,90.0,2.0,0.0
1490,61.0,62.0,30.0,4.0,0.0
1491,71.0,0.0,90.0,1.0,0.0
1492,61.0,48.0,40.0,4.0,0.0
1493,59.0,46.0,40.0,4.0,0.0
1494,57.0,34.0,40.0,4.0,0.0
1495,57.0,62.0,30.0,4.0,0.0
1496,66.0,0.0,90.0,2.0,0.0
1497,75.0,0.0,90.0,1.0,0.0
1498,71.0,2.0,90.0,3.0,0.0
1499,57.0,48.0,40.0,4.0,0.0
1500,56.0,46.0,40.0,4.0,0.0
1501,54.0,34.0,40.0,4.0,0.0
1502,71.0,0.0,90.0,2.0,0.0
1503,78.0,0.0,90.0,1.0,0.0
1504,54.0,62.0,30.0,4.0,0.0
1505,75.0,2.0,90.0,3.0,0.0
1506,54.0,48.0,40.0,4.0,0.0
1507,52.0,46.0,40.0,4.0,0.0
1508,51.0,34.0,40.0,4.0,0.0
1509,71.0,0.0,90.0,3.0,0.0
1510,51.0,62.0,30.0,4.0,0.0
1511,78.0,0.0,90.0,2.0,0.0
1512,81.0,2.0,90.0,1.0,0.0
1513,51.0,48.0,40.0,4.0,0.0
1514,49.0,46.0,40.0,4.0,0.0
1515,47.0,34.0,40.0,4.0,0.0
1516,71.0,0.0,90.0,3.0,0.0
1517,51.0,62.0,30.0,4.0,0.0
1518,78.0,0.0,90.0,2.0,0.0
1519,87.0,2.0,90.0,1.0,0.0
1520,51.0,48.0,40.0,4.0,0.0
1521,49.0,46.0,40.0,4.0,0.0
1522,47.0,34.0,40.0,4.0,0.0
1523,81.0,0.0,90.0,2.0,0.0
1524,90.0,2.0,90.0,1.0,0.0
1525,71.0,0.0,90.0,3.0,0.0
1526,51.0,62.0,30.0,4.0,0.0
1527,51.0,48.0,40.0,4.0,0.0
1528,49.0,46.0,40.0,4.0,0.0
1529,47.0,34.0,40.0,4.0,0.0
1530,78.0,2.0,90.0,2.0,0.0
1531,93.0,0.0,90.0,1.0,0.0
1532,51.0,62.0,30.0,4.0,0.0
1533,71.0,0.0,90.0,3.0,0.0
1534,51.0,48.0,40.0,4.0,0.0
1535,49.0,46.0,40.0,4.0,0.0
1536,47.0,34.0,40.0,4.0,0.0
1537,66.0,0.0,900.0,2.0,0.0
1538,51.0,64.0,30.0,4.0,0.0
1539,63.0,208.0,900.0,3.0,0.0
1540,59.0,0.0,900.0,1.0,0.0
1541,69.0,0.0,900.0,1.0,0.0
1542,51.0,48.0,40.0,4.0,0.0
1543,49.0,768.0,40.0,4.0,0.0
1544,47.0,0.0,780.0,4.0,0.0
1545,59.0,224.0,150.0,4.0,0.0
1546,64.0,0.0,300.0,4.0,0.0
1547,64.0,96.0,90.0,2.0,0.0
1548,59.0,0.0,90.0,3.0,0.0
1549,68.0,0.0,90.0,1.0,0.0
1550,71.0,0.0,90.0,1.0,0.0
1551,64.0,0.0,90.0,3.0,0.0
1552,68.0,96.0,90.0,2.0,0.0
1553,71.0,0.0,90.0,2.0,0.0
1554,76.0,0.0,90.0,1.0,0.0
1555,68.0,0.0,90.0,3.0,0.0
1556,59.0,96.0,90.0,4.0,0.0
1557,80.0,0.0,90.0,1.0,0.0
1558,71.0,0.0,90.0,3.0,0.0
1559,56.0,0.0,90.0,4.0,0.0
1560,76.0,94.0,90.0,2.0,0.0
1561,76.0,194.0,90.0,3.0,0.0
1562,83.0,0.0,90.0,1.0,0.0
1563,52.0,0.0,90.0,4.0,0.0
1564,80.0,0.0,90.0,2.0,0.0
1565,78.0,0.0,330.0,3.0,0.0
1566,83.0,48.0,330.0,1.0,0.0
1567,81.0,0.0,330.0,2.0,0.0
1568,52.0,144.0,180.0,4.0,0.0
1569,51.0,160.0,180.0,4.0,0.0
1570,68.0,0.0,150.0,2.0,0.0
1571,64.0,0.0,150.0,3.0,0.0
1572,52.0,0.0,150.0,4.0,0.0
1573,71.0,56.0,150.0,1.0,0.0
1574,62.0,0.0,180.0,3.0,0.0
1575,65.0,64.0,180.0,2.0,0.0
1576,71.0,30.0,270.0,1.0,0.0
1577,54.0,24.0,20.0,4.0,0.0
1578,52.0,24.0,20.0,4.0,0.0
1579,51.0,22.0,20.0,4.0,0.0
1580,52.0,98.0,20.0,4.0,0.0
1581,56.0,0.0,90.0,4.0,0.0
1582,54.0,0.0,90.0,4.0,0.0
1583,63.0,98.0,90.0,3.0,0.0
1584,69.0,0.0,90.0,2.0,0.0
1585,59.0,96.0,90.0,3.0,0.0
1586,63.0,94.0,90.0,3.0,0.0
1587,54.0,0.0,90.0,4.0,0.0
1588,66.0,192.0,90.0,3.0,0.0
1589,57.0,0.0,300.0,4.0,0.0
1590,69.0,0.0,300.0,3.0,0.0
1591,75.0,98.0,90.0,1.0,0.0
1592,84.0,96.0,90.0,1.0,0.0
1593,54.0,96.0,90.0,4.0,0.0
1594,83.0,24.0,240.0,1.0,0.0
1595,69.0,0.0,180.0,2.0,0.0
1596,63.0,0.0,90.0,3.0,0.0
1597,66.0,0.0,90.0,3.0,0.0
1598,51.0,48.0,90.0,4.0,0.0
1599,68.0,0.0,90.0,2.0,0.0
1600,52.0,0.0,90.0,4.0,0.0
1601,64.0,98.0,90.0,3.0,0.0
1602,81.0,22.0,20.0,1.0,0.0
1603,80.0,0.0,20.0,1.0,0.0
1604,80.0,64.0,90.0,1.0,0.0
1605,73.0,0.0,180.0,2.0,0.0
1606,57.0,96.0,180.0,3.0,0.0
1607,45.0,32.0,150.0,4.0,0.0
1608,78.0,0.0,90.0,1.0,0.0
1609,69.0,32.0,150.0,2.0,0.0
1610,81.0,64.0,90.0,1.0,0.0
1611,54.0,48.0,180.0,3.0,0.0
1612,73.0,24.0,240.0,4.0,0.0
1613,85.0,2.0,180.0,1.0,0.0
1614,59.0,8.0,150.0,3.0,0.0
1615,63.0,0.0,90.0,2.0,0.0
1616,71.0,22.0,20.0,4.0,0.0
1617,69.0,24.0,20.0,4.0,0.0
1618,75.0,24.0,120.0,1.0,0.0
1619,68.0,24.0,20.0,4.0,0.0
1620,69.0,26.0,90.0,2.0,0.0
1621,66.0,16.0,20.0,4.0,0.0
1622,64.0,22.0,20.0,4.0,0.0
1623,63.0,0.0,20.0,4.0,0.0
1624,66.0,64.0,180.0,4.0,0.0
1625,69.0,0.0,180.0,2.0,0.0
1626,52.0,30.0,270.0,3.0,0.0
1627,76.0,24.0,20.0,1.0,0.0
1628,78.0,24.0,20.0,1.0,0.0
1629,80.0,24.0,20.0,1.0,0.0
1630,81.0,24.0,20.0,1.0,0.0
1631,71.0,24.0,20.0,1.0,0.0
1632,73.0,22.0,20.0,1.0,0.0
1633,75.0,2.0,20.0,1.0,0.0
1634,68.0,0.0,90.0,2.0,0.0
1635,76.0,0.0,90.0,1.0,0.0
1636,64.0,146.0,90.0,4.0,0.0
1637,64.0,48.0,40.0,1.0,0.0
1638,68.0,48.0,40.0,1.0,0.0
1639,71.0,46.0,40.0,1.0,0.0
1640,76.0,50.0,40.0,1.0,0.0
1641,68.0,0.0,270.0,2.0,0.0
1642,59.0,0.0,270.0,2.0,0.0
1643,64.0,8.0,270.0,3.0,0.0
1644,80.0,24.0,210.0,1.0,0.0
1645,40.0,48.0,40.0,4.0,0.0
1646,52.0,48.0,40.0,4.0,0.0
1647,56.0,46.0,40.0,4.0,0.0
1648,59.0,26.0,40.0,4.0,0.0
1649,64.0,2.0,90.0,4.0,0.0
1650,78.0,16.0,20.0,1.0,0.0
1651,76.0,22.0,20.0,1.0,0.0
1652,75.0,24.0,20.0,1.0,0.0
1653,76.0,24.0,20.0,1.0,0.0
1654,78.0,24.0,20.0,1.0,0.0
1655,80.0,22.0,20.0,1.0,0.0
1656,81.0,26.0,20.0,1.0,0.0
1657,83.0,24.0,20.0,1.0,0.0
1658,82.0,24.0,20.0,1.0,0.0
1659,85.0,24.0,20.0,1.0,0.0
1660,83.0,24.0,20.0,1.0,0.0
1661,81.0,24.0,20.0,1.0,0.0
1662,80.0,24.0,20.0,1.0,0.0
1663,78.0,22.0,20.0,1.0,0.0
1664,76.0,98.0,20.0,1.0,0.0
1665,80.0,24.0,150.0,1.0,0.0
1666,59.0,0.0,90.0,3.0,0.0
1667,68.0,48.0,90.0,2.0,0.0
1668,52.0,0.0,90.0,4.0,0.0
1669,64.0,0.0,90.0,3.0,0.0
1670,56.0,94.0,90.0,4.0,0.0
1671,71.0,0.0,90.0,2.0,0.0
1672,81.0,22.0,20.0,1.0,0.0
1673,80.0,2.0,20.0,1.0,0.0
1674,66.0,0.0,90.0,2.0,0.0
1675,63.0,122.0,90.0,3.0,0.0
1676,59.0,0.0,90.0,4.0,0.0
1677,78.0,0.0,90.0,1.0,0.0
1678,59.0,24.0,20.0,1.0,0.0
1679,64.0,24.0,20.0,1.0,0.0
1680,68.0,24.0,20.0,1.0,0.0
1681,64.0,24.0,20.0,1.0,0.0
1682,71.0,24.0,20.0,1.0,0.0
1683,68.0,24.0,20.0,1.0,0.0
1684,76.0,22.0,20.0,1.0,0.0
1685,71.0,26.0,20.0,1.0,0.0
1686,80.0,12.0,210.0,1.0,0.0
1687,40.0,24.0,20.0,4.0,0.0
1688,59.0,8.0,270.0,2.0,0.0
1689,64.0,0.0,270.0,3.0,0.0
1690,68.0,0.0,270.0,2.0,0.0
1691,47.0,24.0,20.0,4.0,0.0
1692,52.0,24.0,20.0,4.0,0.0
1693,47.0,24.0,20.0,4.0,0.0
1694,56.0,24.0,20.0,4.0,0.0
1695,52.0,24.0,20.0,4.0,0.0
1696,59.0,22.0,20.0,4.0,0.0
1697,56.0,14.0,20.0,4.0,0.0
1698,64.0,2.0,90.0,4.0,0.0
1699,78.0,12.0,15.0,1.0,0.0
1700,76.0,12.0,15.0,1.0,0.0
1701,75.0,12.0,15.0,1.0,0.0
1702,76.0,4.0,15.0,1.0,0.0
1703,78.0,12.0,15.0,1.0,0.0
1704,80.0,10.0,15.0,1.0,0.0
1705,81.0,12.0,15.0,1.0,0.0
1706,85.0,12.0,15.0,1.0,0.0
1707,83.0,12.0,15.0,1.0,0.0
1708,81.0,12.0,15.0,1.0,0.0
1709,80.0,12.0,15.0,1.0,0.0
1710,81.0,12.0,15.0,1.0,0.0
1711,83.0,12.0,15.0,1.0,0.0
1712,85.0,12.0,15.0,1.0,0.0
1713,87.0,12.0,15.0,1.0,0.0
1714,88.0,12.0,15.0,1.0,0.0
1715,87.0,12.0,15.0,1.0,0.0
1716,92.0,12.0,15.0,1.0,0.0
1717,90.0,12.0,15.0,1.0,0.0
1718,88.0,12.0,15.0,1.0,0.0
1719,87.0,12.0,15.0,1.0,0.0
1720,85.0,12.0,15.0,1.0,0.0
1721,83.0,12.0,15.0,1.0,0.0
1722,82.0,12.0,15.0,1.0,0.0
1723,83.0,12.0,15.0,1.0,0.0
1724,85.0,12.0,15.0,1.0,0.0
1725,83.0,12.0,15.0,1.0,0.0
1726,81.0,12.0,15.0,1.0,0.0
1727,80.0,12.0,15.0,1.0,0.0
1728,78.0,10.0,15.0,1.0,0.0
1729,76.0,96.0,15.0,1.0,0.0
1730,80.0,2.0,90.0,1.0,0.0
1731,68.0,8.0,90.0,2.0,0.0
1732,59.0,0.0,90.0,3.0,0.0
1733,52.0,0.0,90.0,4.0,0.0
1734,71.0,0.0,90.0,2.0,0.0
1735,64.0,0.0,90.0,3.0,0.0
1736,56.0,22.0,90.0,4.0,0.0
1737,81.0,8.0,15.0,1.0,0.0
1738,80.0,8.0,15.0,1.0,0.0
1739,78.0,12.0,15.0,1.0,0.0
1740,80.0,12.0,15.0,1.0,0.0
1741,81.0,24.0,15.0,1.0,0.0
1742,82.0,22.0,20.0,1.0,0.0
1743,83.0,2.0,20.0,1.0,0.0
1744,78.0,0.0,90.0,1.0,0.0
1745,66.0,2.0,90.0,2.0,0.0
1746,63.0,0.0,90.0,3.0,0.0
1747,59.0,26.0,20.0,4.0,0.0
1748,47.0,24.0,20.0,4.0,0.0
1749,51.0,22.0,20.0,4.0,0.0
1750,54.0,24.0,20.0,4.0,0.0
1751,59.0,24.0,20.0,4.0,0.0
1752,63.0,24.0,20.0,4.0,0.0
1753,66.0,24.0,20.0,4.0,0.0
1754,64.0,22.0,20.0,4.0,0.0
1755,63.0,24.0,20.0,4.0,0.0
1756,77.0,2.0,20.0,1.0,0.0
1757,61.0,24.0,20.0,4.0,0.0
1758,78.0,2.0,60.0,1.0,0.0
1759,59.0,22.0,20.0,4.0,0.0
1760,58.0,22.0,20.0,4.0,0.0
1761,59.0,24.0,20.0,4.0,0.0
1762,77.0,2.0,20.0,1.0,0.0
1763,78.0,0.0,60.0,1.0,0.0
1764,54.0,24.0,20.0,4.0,0.0
1765,51.0,22.0,20.0,4.0,0.0
1766,47.0,98.0,20.0,4.0,0.0
1767,78.0,30.0,270.0,1.0,0.0
1768,61.0,0.0,90.0,3.0,0.0
1769,52.0,8.0,150.0,4.0,0.0
1770,70.0,64.0,90.0,2.0,0.0
1771,58.0,0.0,60.0,3.0,0.0
1772,73.0,22.0,60.0,2.0,0.0
1773,54.0,0.0,20.0,3.0,0.0
1774,70.0,66.0,20.0,2.0,0.0
1775,75.0,0.0,90.0,2.0,0.0
1776,59.0,74.0,90.0,3.0,0.0
1777,51.0,24.0,210.0,4.0,0.0
1778,80.0,22.0,60.0,1.0,0.0
1779,78.0,26.0,20.0,1.0,0.0
1780,83.0,22.0,60.0,1.0,0.0
1781,54.0,24.0,20.0,4.0,0.0
1782,53.0,0.0,20.0,4.0,0.0
1783,78.0,2.0,20.0,1.0,0.0
1784,54.0,24.0,20.0,4.0,0.0
1785,87.0,22.0,60.0,1.0,0.0
1786,52.0,24.0,20.0,4.0,0.0
1787,51.0,24.0,20.0,4.0,0.0
1788,49.0,0.0,20.0,4.0,0.0
1789,78.0,0.0,20.0,1.0,0.0
1790,47.0,98.0,20.0,4.0,0.0
1791,78.0,18.0,210.0,1.0,0.0
1792,52.0,8.0,150.0,4.0,0.0
1793,70.0,0.0,90.0,2.0,0.0
1794,61.0,24.0,90.0,3.0,0.0
1795,73.0,24.0,20.0,2.0,0.0
1796,58.0,0.0,20.0,3.0,0.0
1797,54.0,16.0,20.0,3.0,0.0
1798,70.0,0.0,20.0,2.0,0.0
1799,73.0,0.0,20.0,2.0,0.0
1800,58.0,22.0,20.0,3.0,0.0
1801,70.0,0.0,20.0,2.0,0.0
1802,54.0,24.0,20.0,3.0,0.0
1803,75.0,26.0,90.0,2.0,0.0
1804,51.0,22.0,210.0,4.0,0.0
1805,59.0,0.0,90.0,3.0,0.0
1806,78.0,24.0,15.0,1.0,0.0
1807,78.0,24.0,15.0,1.0,0.0
1808,78.0,6.0,15.0,1.0,0.0
1809,66.0,24.0,180.0,2.0,0.0
1810,59.0,0.0,150.0,3.0,0.0
1811,80.0,22.0,20.0,1.0,0.0
1812,78.0,18.0,20.0,1.0,0.0
1813,78.0,24.0,15.0,1.0,0.0
1814,78.0,32.0,15.0,1.0,0.0
1815,83.0,0.0,20.0,1.0,0.0
1816,78.0,2.0,20.0,1.0,0.0
1817,54.0,16.0,20.0,4.0,0.0
1818,78.0,8.0,15.0,1.0,0.0
1819,53.0,16.0,20.0,4.0,0.0
1820,78.0,8.0,15.0,1.0,0.0
1821,54.0,0.0,20.0,4.0,0.0
1822,67.0,26.0,90.0,2.0,0.0
1823,87.0,22.0,20.0,1.0,0.0
1824,52.0,0.0,20.0,4.0,0.0
1825,59.0,0.0,90.0,3.0,0.0
1826,79.0,2.0,20.0,1.0,0.0
1827,51.0,16.0,20.0,4.0,0.0
1828,79.0,8.0,15.0,1.0,0.0
1829,49.0,16.0,20.0,4.0,0.0
1830,79.0,6.0,15.0,1.0,0.0
1831,47.0,0.0,20.0,4.0,0.0
1832,52.0,16.0,150.0,4.0,0.0
1833,82.0,24.0,20.0,1.0,0.0
1834,59.0,0.0,40.0,3.0,0.0
1835,68.0,0.0,150.0,2.0,0.0
1836,80.0,24.0,20.0,1.0,0.0
1837,78.0,24.0,20.0,1.0,0.0
1838,60.0,24.0,40.0,3.0,0.0
1839,76.0,0.0,20.0,1.0,0.0
1840,61.0,0.0,40.0,3.0,0.0
1841,75.0,22.0,20.0,1.0,0.0
1842,73.0,2.0,20.0,1.0,0.0
1843,62.0,0.0,40.0,3.0,0.0
1844,71.0,0.0,40.0,2.0,0.0
1845,53.0,96.0,40.0,4.0,0.0
1846,80.0,24.0,15.0,1.0,0.0
1847,80.0,6.0,15.0,1.0,0.0
1848,54.0,32.0,150.0,4.0,0.0
1849,63.0,2.0,90.0,3.0,0.0
1850,71.0,0.0,90.0,2.0,0.0
1851,80.0,64.0,90.0,1.0,0.0
1852,71.0,10.0,180.0,1.0,0.0
1853,66.0,0.0,90.0,2.0,0.0
1854,63.0,70.0,90.0,3.0,0.0
1855,64.0,2.0,90.0,2.0,0.0
1856,42.0,30.0,150.0,4.0,0.0
1857,61.0,0.0,90.0,3.0,0.0
1858,73.0,8.0,15.0,1.0,0.0
1859,71.0,6.0,15.0,1.0,0.0
1860,70.0,8.0,15.0,1.0,0.0
1861,61.0,0.0,90.0,3.0,0.0
1862,64.0,0.0,90.0,2.0,0.0
1863,71.0,8.0,15.0,1.0,0.0
1864,73.0,8.0,15.0,1.0,0.0
1865,75.0,8.0,15.0,1.0,0.0
1866,76.0,8.0,15.0,1.0,0.0
1867,78.0,18.0,15.0,1.0,0.0
1868,80.0,6.0,20.0,1.0,0.0
1869,70.0,50.0,20.0,1.0,0.0
1870,73.0,0.0,180.0,1.0,0.0
1871,64.0,24.0,20.0,2.0,0.0
1872,63.0,24.0,20.0,2.0,0.0
1873,64.0,24.0,20.0,2.0,0.0
1874,58.0,24.0,90.0,3.0,0.0
1875,63.0,24.0,20.0,2.0,0.0
1876,64.0,24.0,20.0,2.0,0.0
1877,66.0,22.0,20.0,2.0,0.0
1878,64.0,2.0,20.0,2.0,0.0
1879,71.0,0.0,90.0,1.0,0.0
1880,59.0,2.0,90.0,3.0,0.0
1881,63.0,0.0,90.0,2.0,0.0
1882,47.0,24.0,15.0,4.0,0.0
1883,51.0,22.0,20.0,4.0,0.0
1884,54.0,24.0,20.0,4.0,0.0
1885,59.0,24.0,20.0,4.0,0.0
1886,51.0,24.0,20.0,4.0,0.0
1887,54.0,24.0,20.0,4.0,0.0
1888,59.0,24.0,20.0,4.0,0.0
1889,63.0,24.0,20.0,4.0,0.0
1890,71.0,4.0,60.0,1.0,0.0
1891,54.0,20.0,20.0,4.0,0.0
1892,59.0,24.0,20.0,4.0,0.0
1893,63.0,24.0,20.0,4.0,0.0
1894,71.0,16.0,30.0,1.0,0.0
1895,66.0,8.0,20.0,4.0,0.0
1896,59.0,24.0,20.0,4.0,0.0
1897,63.0,22.0,20.0,4.0,0.0
1898,66.0,290.0,20.0,4.0,0.0
1899,66.0,0.0,300.0,3.0,0.0
1900,69.0,0.0,300.0,4.0,0.0
1901,75.0,96.0,300.0,1.0,0.0
1902,68.0,96.0,90.0,4.0,0.0
1903,76.0,0.0,90.0,1.0,0.0
1904,71.0,0.0,15.0,2.0,0.0
1905,64.0,0.0,90.0,3.0,0.0
1906,78.0,70.0,90.0,1.0,0.0
1907,69.0,0.0,90.0,3.0,0.0
1908,63.0,0.0,90.0,4.0,0.0
1909,64.0,0.0,60.0,4.0,0.0
1910,71.0,0.0,15.0,2.0,0.0
1911,68.0,22.0,60.0,3.0,0.0
1912,80.0,0.0,60.0,1.0,0.0
1913,76.0,0.0,20.0,1.0,0.0
1914,68.0,0.0,20.0,4.0,0.0
1915,71.0,122.0,20.0,3.0,0.0
1916,71.0,24.0,120.0,4.0,0.0
1917,76.0,22.0,180.0,2.0,0.0
1918,80.0,0.0,180.0,1.0,0.0
1919,59.0,2.0,90.0,3.0,0.0
1920,70.0,24.0,20.0,4.0,0.0
1921,71.0,22.0,20.0,4.0,0.0
1922,70.0,0.0,20.0,4.0,0.0
1923,71.0,26.0,20.0,4.0,0.0
1924,78.0,0.0,90.0,1.0,0.0
1925,75.0,2.0,90.0,2.0,0.0
1926,59.0,0.0,90.0,3.0,0.0
1927,47.0,24.0,20.0,4.0,0.0
1928,51.0,22.0,20.0,4.0,0.0
1929,54.0,24.0,20.0,4.0,0.0
1930,59.0,24.0,20.0,4.0,0.0
1931,51.0,24.0,20.0,4.0,0.0
1932,54.0,24.0,20.0,4.0,0.0
1933,59.0,24.0,20.0,4.0,0.0
1934,83.0,4.0,60.0,1.0,0.0
1935,63.0,24.0,20.0,4.0,0.0
1936,71.0,0.0,60.0,2.0,0.0
1937,54.0,20.0,20.0,4.0,0.0
1938,59.0,24.0,20.0,4.0,0.0
1939,63.0,24.0,20.0,4.0,0.0
1940,66.0,8.0,20.0,4.0,0.0
1941,71.0,0.0,30.0,2.0,0.0
1942,83.0,16.0,30.0,1.0,0.0
1943,59.0,24.0,20.0,4.0,0.0
1944,63.0,22.0,20.0,4.0,0.0
1945,66.0,258.0,20.0,4.0,0.0
1946,69.0,0.0,300.0,4.0,0.0
1947,78.0,0.0,300.0,2.0,0.0
1948,71.0,32.0,270.0,3.0,0.0
1949,87.0,94.0,300.0,1.0,0.0
1950,88.0,0.0,90.0,1.0,0.0
1951,71.0,2.0,90.0,3.0,0.0
1952,68.0,94.0,90.0,4.0,0.0
1953,76.0,0.0,90.0,2.0,0.0
1954,81.0,0.0,90.0,2.0,0.0
1955,90.0,0.0,90.0,1.0,0.0
1956,63.0,72.0,90.0,4.0,0.0
1957,71.0,2.0,90.0,3.0,0.0
1958,80.0,0.0,60.0,2.0,0.0
1959,92.0,0.0,60.0,1.0,0.0
1960,71.0,22.0,60.0,3.0,0.0
1961,64.0,0.0,90.0,4.0,0.0
1962,88.0,0.0,20.0,1.0,0.0
1963,68.0,0.0,20.0,3.0,0.0
1964,76.0,96.0,20.0,2.0,0.0
1965,93.0,46.0,240.0,1.0,0.0
1966,59.0,0.0,90.0,4.0,0.0
1967,81.0,0.0,240.0,2.0,0.0
1968,66.0,146.0,90.0,3.0,0.0
1969,47.0,24.0,210.0,4.0,0.0
1970,59.0,2.0,90.0,3.0,0.0
1971,78.0,0.0,40.0,2.0,0.0
1972,90.0,48.0,40.0,1.0,0.0
1973,75.0,0.0,40.0,2.0,0.0
1974,87.0,48.0,40.0,1.0,0.0
1975,71.0,24.0,40.0,2.0,0.0
1976,83.0,0.0,40.0,1.0,0.0
1977,84.0,24.0,40.0,1.0,0.0
1978,72.0,0.0,40.0,2.0,0.0
1979,46.0,0.0,20.0,4.0,0.0
1980,85.0,24.0,40.0,1.0,0.0
1981,73.0,0.0,40.0,2.0,0.0
1982,47.0,24.0,20.0,4.0,0.0
1983,46.0,0.0,20.0,4.0,0.0
1984,74.0,24.0,40.0,2.0,0.0
1985,47.0,24.0,20.0,4.0,0.0
1986,86.0,0.0,40.0,1.0,0.0
1987,45.0,0.0,20.0,4.0,0.0
1988,44.0,22.0,20.0,4.0,0.0
1989,87.0,2.0,40.0,1.0,0.0
1990,75.0,0.0,40.0,2.0,0.0
1991,42.0,16.0,20.0,4.0,0.0
1992,88.0,0.0,300.0,1.0,0.0
1993,40.0,32.0,15.0,4.0,0.0
1994,76.0,0.0,420.0,2.0,0.0
1995,68.0,26.0,420.0,2.0,0.0
1996,40.0,24.0,20.0,4.0,0.0
1997,44.0,24.0,20.0,4.0,0.0
1998,47.0,24.0,20.0,4.0,0.0
1999,52.0,24.0,20.0,4.0,0.0
2000,47.0,24.0,20.0,4.0,0.0
2001,44.0,22.0,20.0,4.0,0.0
2002,40.0,50.0,20.0,4.0,0.0
2003,52.0,16.0,390.0,4.0,0.0
2004,52.0,24.0,20.0,3.0,0.0
2005,56.0,24.0,20.0,3.0,0.0
2006,59.0,24.0,20.0,3.0,0.0
2007,83.0,22.0,90.0,1.0,0.0
2008,64.0,24.0,20.0,3.0,0.0
2009,59.0,24.0,20.0,3.0,0.0
2010,56.0,22.0,20.0,3.0,0.0
2011,52.0,2.0,20.0,3.0,0.0
2012,80.0,0.0,90.0,1.0,0.0
2013,64.0,26.0,420.0,3.0,0.0
2014,64.0,24.0,20.0,2.0,0.0
2015,68.0,24.0,20.0,2.0,0.0
2016,71.0,48.0,20.0,2.0,0.0
2017,76.0,2.0,90.0,1.0,0.0
2018,71.0,24.0,20.0,2.0,0.0
2019,68.0,22.0,20.0,2.0,0.0
2020,64.0,0.0,20.0,2.0,0.0
2021,50.0,32.0,15.0,4.0,0.0
2022,80.0,26.0,420.0,2.0,0.0
2023,88.0,0.0,300.0,1.0,0.0
2024,50.0,24.0,20.0,4.0,0.0
2025,56.0,24.0,20.0,4.0,0.0
2026,59.0,24.0,20.0,4.0,0.0
2027,62.0,24.0,20.0,4.0,0.0
2028,59.0,24.0,20.0,4.0,0.0
2029,56.0,22.0,20.0,4.0,0.0
2030,50.0,24.0,20.0,4.0,0.0
2031,62.0,8.0,150.0,4.0,0.0
2032,52.0,24.0,20.0,3.0,0.0
2033,56.0,24.0,20.0,3.0,0.0
2034,59.0,24.0,20.0,3.0,0.0
2035,83.0,22.0,90.0,1.0,0.0
2036,64.0,24.0,20.0,3.0,0.0
2037,59.0,16.0,20.0,3.0,0.0
2038,56.0,22.0,20.0,3.0,0.0
2039,52.0,2.0,20.0,3.0,0.0
2040,80.0,48.0,90.0,1.0,0.0
2041,64.0,2.0,300.0,3.0,0.0
2042,50.0,8.0,150.0,4.0,0.0
2043,64.0,24.0,20.0,2.0,0.0
2044,68.0,24.0,20.0,2.0,0.0
2045,71.0,0.0,20.0,2.0,0.0
2046,76.0,0.0,90.0,1.0,0.0
2047,71.0,16.0,20.0,2.0,0.0
2048,68.0,22.0,20.0,2.0,0.0
2049,64.0,50.0,20.0,2.0,0.0
2050,49.0,8.0,150.0,4.0,0.0
2051,88.0,0.0,150.0,1.0,0.0
2052,64.0,24.0,20.0,2.0,0.0
2053,69.0,22.0,20.0,2.0,0.0
2054,73.0,24.0,20.0,2.0,0.0
2055,76.0,24.0,20.0,2.0,0.0
2056,52.0,8.0,150.0,3.0,0.0
2057,64.0,0.0,150.0,3.0,0.0
2058,73.0,16.0,20.0,2.0,0.0
2059,69.0,22.0,20.0,2.0,0.0
2060,64.0,50.0,20.0,2.0,0.0
2061,49.0,0.0,150.0,4.0,0.0
2062,90.0,8.0,150.0,1.0,0.0
2063,64.0,16.0,20.0,2.0,0.0
2064,69.0,24.0,20.0,2.0,0.0
2065,73.0,24.0,20.0,2.0,0.0
2066,64.0,8.0,150.0,3.0,0.0
2067,76.0,24.0,20.0,2.0,0.0
2068,52.0,0.0,150.0,3.0,0.0
2069,73.0,16.0,20.0,2.0,0.0
2070,69.0,22.0,20.0,2.0,0.0
2071,64.0,50.0,20.0,2.0,0.0
2072,48.0,8.0,150.0,4.0,0.0
2073,91.0,0.0,150.0,1.0,0.0
2074,79.0,0.0,150.0,1.0,0.0
2075,64.0,16.0,20.0,2.0,0.0
2076,76.0,24.0,20.0,2.0,0.0
2077,64.0,24.0,20.0,2.0,0.0
2078,58.0,48.0,90.0,3.0,0.0
2079,76.0,24.0,20.0,2.0,0.0
2080,64.0,16.0,20.0,2.0,0.0
2081,76.0,22.0,20.0,2.0,0.0
2082,64.0,2.0,20.0,2.0,0.0
2083,80.0,8.0,150.0,1.0,0.0
2084,59.0,2.0,90.0,3.0,0.0
2085,92.0,24.0,210.0,1.0,0.0
2086,47.0,0.0,90.0,4.0,0.0
2087,64.0,24.0,20.0,2.0,0.0
2088,68.0,22.0,20.0,2.0,0.0
2089,71.0,24.0,20.0,2.0,0.0
2090,52.0,24.0,90.0,4.0,0.0
2091,76.0,24.0,20.0,2.0,0.0
2092,59.0,0.0,90.0,3.0,0.0
2093,71.0,16.0,20.0,2.0,0.0
2094,68.0,22.0,20.0,2.0,0.0
2095,64.0,2.0,20.0,2.0,0.0
2096,64.0,0.0,90.0,3.0,0.0
2097,56.0,0.0,90.0,4.0,0.0
2098,64.0,0.0,20.0,2.0,0.0
2099,91.0,24.0,20.0,1.0,0.0
2100,93.0,24.0,20.0,1.0,0.0
2101,68.0,0.0,20.0,2.0,0.0
2102,92.0,0.0,20.0,1.0,0.0
2103,71.0,24.0,20.0,2.0,0.0
2104,68.0,24.0,90.0,3.0,0.0
2105,59.0,0.0,90.0,4.0,0.0
2106,90.0,0.0,20.0,1.0,0.0
2107,76.0,24.0,20.0,2.0,0.0
2108,88.0,0.0,20.0,1.0,0.0
2109,71.0,24.0,20.0,2.0,0.0
2110,87.0,0.0,20.0,1.0,0.0
2111,68.0,22.0,20.0,2.0,0.0
2112,64.0,0.0,20.0,2.0,0.0
2113,85.0,2.0,20.0,1.0,0.0
2114,47.0,8.0,150.0,4.0,0.0
2115,69.0,24.0,90.0,3.0,0.0
2116,83.0,24.0,20.0,1.0,0.0
2117,63.0,24.0,20.0,2.0,0.0
2118,84.0,0.0,20.0,1.0,0.0
2119,66.0,0.0,20.0,2.0,0.0
2120,87.0,24.0,20.0,1.0,0.0
2121,63.0,0.0,20.0,2.0,0.0
2122,85.0,0.0,20.0,1.0,0.0
2123,83.0,0.0,20.0,1.0,0.0
2124,66.0,24.0,20.0,2.0,0.0
2125,57.0,0.0,90.0,3.0,0.0
2126,81.0,16.0,20.0,1.0,0.0
2127,63.0,0.0,20.0,2.0,0.0
2128,80.0,0.0,20.0,1.0,0.0
2129,66.0,22.0,20.0,2.0,0.0
2130,78.0,96.0,20.0,1.0,0.0
2131,63.0,0.0,20.0,2.0,0.0
2132,76.0,0.0,90.0,1.0,0.0
2133,56.0,324.0,90.0,3.0,0.0
2134,64.0,0.0,90.0,2.0,0.0
2135,52.0,0.0,90.0,4.0,0.0
2136,57.0,48.0,30.0,4.0,0.0
2137,75.0,0.0,30.0,1.0,0.0
2138,59.0,0.0,30.0,3.0,0.0
2139,66.0,0.0,30.0,2.0,0.0
2140,59.0,0.0,30.0,3.0,0.0
2141,57.0,0.0,30.0,4.0,0.0
2142,66.0,48.0,30.0,2.0,0.0
2143,75.0,0.0,30.0,1.0,0.0
2144,59.0,0.0,30.0,3.0,0.0
2145,73.0,0.0,30.0,1.0,0.0
2146,64.0,46.0,30.0,2.0,0.0
2147,57.0,0.0,30.0,4.0,0.0
2148,57.0,0.0,30.0,4.0,0.0
2149,71.0,0.0,30.0,1.0,0.0
2150,63.0,110.0,30.0,2.0,0.0
2151,59.0,0.0,30.0,3.0,0.0
2152,64.0,0.0,90.0,2.0,0.0
2153,76.0,0.0,90.0,1.0,0.0
2154,56.0,0.0,90.0,4.0,0.0
2155,59.0,324.0,90.0,3.0,0.0
2156,71.0,48.0,30.0,1.0,0.0
2157,66.0,0.0,30.0,3.0,0.0
2158,59.0,0.0,30.0,2.0,0.0
2159,51.0,0.0,30.0,4.0,0.0
2160,69.0,0.0,30.0,2.0,0.0
2161,69.0,0.0,30.0,2.0,0.0
2162,59.0,0.0,30.0,2.0,0.0
2163,66.0,0.0,30.0,3.0,0.0
2164,71.0,0.0,30.0,1.0,0.0
2165,51.0,48.0,30.0,4.0,0.0
2166,49.0,46.0,30.0,4.0,0.0
2167,59.0,0.0,30.0,2.0,0.0
2168,64.0,0.0,30.0,3.0,0.0
2169,71.0,0.0,30.0,1.0,0.0
2170,69.0,0.0,30.0,2.0,0.0
2171,63.0,0.0,30.0,3.0,0.0
2172,47.0,0.0,30.0,4.0,0.0
2173,69.0,0.0,30.0,2.0,0.0
2174,59.0,0.0,30.0,2.0,0.0
2175,71.0,110.0,30.0,1.0,0.0
2176,59.0,0.0,90.0,2.0,0.0
2177,68.0,0.0,90.0,2.0,0.0
2178,64.0,0.0,90.0,3.0,0.0
2179,52.0,0.0,90.0,4.0,0.0
2180,71.0,132.0,90.0,1.0,0.0
2181,64.0,48.0,30.0,3.0,0.0
2182,64.0,48.0,30.0,3.0,0.0
2183,62.0,46.0,30.0,3.0,0.0
2184,60.0,50.0,30.0,3.0,0.0
2185,69.0,0.0,30.0,1.0,0.0
2186,52.0,0.0,30.0,4.0,0.0
2187,64.0,0.0,30.0,2.0,0.0
2188,60.0,48.0,30.0,3.0,0.0
2189,69.0,0.0,30.0,1.0,0.0
2190,52.0,0.0,30.0,4.0,0.0
2191,60.0,0.0,30.0,3.0,0.0
2192,64.0,48.0,30.0,2.0,0.0
2193,68.0,0.0,30.0,2.0,0.0
2194,59.0,0.0,30.0,3.0,0.0
2195,52.0,0.0,30.0,4.0,0.0
2196,71.0,46.0,30.0,1.0,0.0
2197,57.0,0.0,30.0,3.0,0.0
2198,52.0,0.0,30.0,4.0,0.0
2199,72.0,0.0,30.0,1.0,0.0
2200,69.0,110.0,30.0,2.0,0.0
2201,68.0,132.0,90.0,2.0,0.0
2202,71.0,0.0,90.0,1.0,0.0
2203,64.0,0.0,90.0,3.0,0.0
2204,52.0,0.0,90.0,4.0,0.0
2205,52.0,48.0,30.0,4.0,0.0
2206,52.0,48.0,30.0,4.0,0.0
2207,50.0,46.0,30.0,4.0,0.0
2208,48.0,50.0,30.0,4.0,0.0
2209,64.0,0.0,30.0,1.0,0.0
2210,57.0,48.0,30.0,3.0,0.0
2211,48.0,0.0,30.0,4.0,0.0
2212,48.0,0.0,30.0,4.0,0.0
2213,64.0,0.0,30.0,1.0,0.0
2214,57.0,48.0,30.0,3.0,0.0
2215,64.0,0.0,30.0,1.0,0.0
2216,59.0,0.0,30.0,2.0,0.0
2217,47.0,0.0,30.0,4.0,0.0
2218,56.0,46.0,30.0,3.0,0.0
2219,57.0,110.0,30.0,3.0,0.0
2220,64.0,0.0,30.0,1.0,0.0
2221,45.0,0.0,30.0,4.0,0.0
2222,60.0,0.0,30.0,2.0,0.0
2223,59.0,0.0,90.0,2.0,0.0
2224,52.0,456.0,90.0,4.0,0.0
2225,56.0,0.0,90.0,3.0,0.0
2226,64.0,0.0,90.0,1.0,0.0
2227,56.0,0.0,180.0,3.0,0.0
2228,64.0,0.0,180.0,1.0,0.0
2229,40.0,0.0,180.0,4.0,0.0
2230,59.0,24.0,180.0,2.0,0.0
2231,59.0,0.0,20.0,2.0,0.0
2232,56.0,0.0,20.0,3.0,0.0
2233,64.0,722.0,20.0,1.0,0.0
2234,40.0,0.0,20.0,4.0,0.0
2235,40.0,768.0,720.0,4.0,0.0
2236,56.0,0.0,720.0,3.0,0.0
2237,59.0,0.0,720.0,2.0,0.0
2238,64.0,0.0,720.0,1.0,0.0
2239,75.0,0.0,720.0,1.0,0.0
