,note,step,duration,channel,velocity
0,32.0,240.0,180.0,0.0,0.0
1,39.0,240.0,180.0,0.0,0.0
2,32.0,0.0,180.0,0.0,0.0
3,44.0,0.0,180.0,0.0,0.0
4,48.0,0.0,180.0,0.0,0.0
5,48.0,240.0,180.0,0.0,0.0
6,39.0,0.0,180.0,0.0,0.0
7,44.0,0.0,180.0,0.0,0.0
8,32.0,0.0,180.0,0.0,0.0
9,44.0,240.0,180.0,0.0,0.0
10,48.0,0.0,180.0,0.0,0.0
11,39.0,0.0,180.0,0.0,0.0
12,32.0,0.0,180.0,0.0,0.0
13,39.0,0.0,180.0,0.0,0.0
14,32.0,240.0,180.0,0.0,0.0
15,48.0,0.0,180.0,0.0,0.0
16,44.0,0.0,180.0,0.0,0.0
17,32.0,0.0,180.0,0.0,0.0
18,39.0,240.0,180.0,0.0,0.0
19,48.0,0.0,180.0,0.0,0.0
20,44.0,0.0,180.0,0.0,0.0
21,32.0,0.0,180.0,0.0,0.0
22,48.0,0.0,180.0,0.0,0.0
23,44.0,0.0,180.0,0.0,0.0
24,39.0,240.0,180.0,0.0,0.0
25,44.0,0.0,180.0,0.0,0.0
26,48.0,0.0,180.0,0.0,0.0
27,32.0,240.0,180.0,0.0,0.0
28,39.0,0.0,180.0,0.0,0.0
29,44.0,0.0,180.0,0.0,0.0
30,48.0,0.0,180.0,0.0,0.0
31,39.0,0.0,180.0,0.0,0.0
32,32.0,240.0,180.0,0.0,0.0
33,48.0,0.0,180.0,0.0,0.0
34,44.0,0.0,180.0,0.0,0.0
35,32.0,240.0,180.0,0.0,0.0
36,39.0,0.0,180.0,0.0,0.0
37,32.0,0.0,180.0,0.0,0.0
38,39.0,0.0,180.0,0.0,0.0
39,44.0,240.0,180.0,0.0,0.0
40,48.0,0.0,180.0,0.0,0.0
41,32.0,0.0,180.0,0.0,0.0
42,39.0,240.0,180.0,0.0,0.0
43,44.0,0.0,180.0,0.0,0.0
44,48.0,0.0,180.0,0.0,0.0
45,44.0,0.0,180.0,0.0,0.0
46,48.0,240.0,180.0,0.0,0.0
47,39.0,0.0,180.0,0.0,0.0
48,32.0,0.0,180.0,0.0,0.0
49,48.0,240.0,180.0,0.0,0.0
50,44.0,0.0,180.0,0.0,0.0
51,32.0,0.0,180.0,0.0,0.0
52,39.0,0.0,180.0,0.0,0.0
53,46.0,0.0,180.0,0.0,0.0
54,32.0,240.0,180.0,0.0,0.0
55,41.0,0.0,180.0,0.0,0.0
56,50.0,0.0,180.0,0.0,0.0
57,41.0,0.0,180.0,0.0,0.0
58,32.0,240.0,180.0,0.0,0.0
59,46.0,0.0,180.0,0.0,0.0
60,50.0,0.0,180.0,0.0,0.0
61,51.0,120.0,720.0,0.0,0.0
62,31.0,240.0,180.0,0.0,0.0
63,39.0,0.0,180.0,0.0,0.0
64,46.0,0.0,720.0,0.0,0.0
65,31.0,240.0,180.0,0.0,0.0
66,39.0,0.0,180.0,0.0,0.0
67,31.0,60.0,180.0,0.0,0.0
68,39.0,0.0,180.0,0.0,0.0
69,55.0,60.0,120.0,0.0,0.0
70,39.0,0.0,180.0,0.0,0.0
71,31.0,60.0,180.0,0.0,0.0
72,53.0,120.0,120.0,0.0,0.0
73,31.0,0.0,180.0,0.0,0.0
74,39.0,240.0,180.0,0.0,0.0
75,51.0,60.0,120.0,0.0,0.0
76,39.0,240.0,180.0,0.0,0.0
77,31.0,0.0,180.0,0.0,0.0
78,31.0,240.0,180.0,0.0,0.0
79,39.0,0.0,180.0,0.0,0.0
80,39.0,0.0,180.0,0.0,0.0
81,31.0,60.0,180.0,0.0,0.0
82,81.0,180.0,60.0,0.0,0.0
83,82.0,60.0,600.0,0.0,0.0
84,39.0,0.0,180.0,0.0,0.0
85,31.0,240.0,180.0,0.0,0.0
86,31.0,180.0,180.0,0.0,0.0
87,39.0,0.0,180.0,0.0,0.0
88,31.0,0.0,180.0,0.0,0.0
89,39.0,60.0,180.0,0.0,0.0
90,80.0,120.0,120.0,0.0,0.0
91,31.0,60.0,180.0,0.0,0.0
92,79.0,60.0,120.0,0.0,0.0
93,39.0,0.0,180.0,0.0,0.0
94,77.0,180.0,120.0,0.0,0.0
95,31.0,60.0,180.0,0.0,0.0
96,75.0,180.0,240.0,0.0,0.0
97,39.0,0.0,180.0,0.0,0.0
98,39.0,0.0,180.0,0.0,0.0
99,31.0,240.0,180.0,0.0,0.0
100,31.0,0.0,180.0,0.0,0.0
101,39.0,240.0,180.0,0.0,0.0
102,31.0,240.0,180.0,0.0,0.0
103,39.0,0.0,180.0,0.0,0.0
104,42.0,0.0,180.0,0.0,0.0
105,46.0,0.0,180.0,0.0,0.0
106,30.0,0.0,180.0,0.0,0.0
107,37.0,240.0,180.0,0.0,0.0
108,42.0,0.0,180.0,0.0,0.0
109,30.0,0.0,180.0,0.0,0.0
110,37.0,240.0,180.0,0.0,0.0
111,46.0,0.0,180.0,0.0,0.0
112,37.0,0.0,180.0,0.0,0.0
113,30.0,240.0,180.0,0.0,0.0
114,46.0,0.0,180.0,0.0,0.0
115,42.0,0.0,180.0,0.0,0.0
116,30.0,240.0,180.0,0.0,0.0
117,37.0,0.0,180.0,0.0,0.0
118,46.0,0.0,180.0,0.0,0.0
119,42.0,0.0,180.0,0.0,0.0
120,30.0,0.0,180.0,0.0,0.0
121,46.0,240.0,180.0,0.0,0.0
122,42.0,0.0,180.0,0.0,0.0
123,37.0,0.0,180.0,0.0,0.0
124,30.0,0.0,180.0,0.0,0.0
125,37.0,0.0,180.0,0.0,0.0
126,42.0,0.0,180.0,0.0,0.0
127,46.0,240.0,180.0,0.0,0.0
128,42.0,240.0,180.0,0.0,0.0
129,30.0,0.0,180.0,0.0,0.0
130,46.0,0.0,180.0,0.0,0.0
131,37.0,0.0,180.0,0.0,0.0
132,37.0,0.0,180.0,0.0,0.0
133,30.0,0.0,180.0,0.0,0.0
134,46.0,0.0,180.0,0.0,0.0
135,42.0,240.0,180.0,0.0,0.0
136,42.0,0.0,180.0,0.0,0.0
137,46.0,240.0,180.0,0.0,0.0
138,30.0,0.0,180.0,0.0,0.0
139,37.0,0.0,180.0,0.0,0.0
140,30.0,0.0,180.0,0.0,0.0
141,42.0,0.0,180.0,0.0,0.0
142,46.0,0.0,180.0,0.0,0.0
143,37.0,240.0,180.0,0.0,0.0
144,30.0,240.0,180.0,0.0,0.0
145,42.0,0.0,180.0,0.0,0.0
146,46.0,0.0,180.0,0.0,0.0
147,37.0,0.0,180.0,0.0,0.0
148,30.0,0.0,180.0,0.0,0.0
149,37.0,0.0,180.0,0.0,0.0
150,42.0,240.0,180.0,0.0,0.0
151,46.0,0.0,180.0,0.0,0.0
152,42.0,0.0,180.0,0.0,0.0
153,46.0,0.0,180.0,0.0,0.0
154,30.0,240.0,180.0,0.0,0.0
155,37.0,0.0,180.0,0.0,0.0
156,46.0,0.0,180.0,0.0,0.0
157,30.0,240.0,180.0,0.0,0.0
158,37.0,0.0,180.0,0.0,0.0
159,42.0,0.0,180.0,0.0,0.0
160,30.0,0.0,180.0,0.0,0.0
161,39.0,240.0,180.0,0.0,0.0
162,48.0,0.0,180.0,0.0,0.0
163,44.0,0.0,180.0,0.0,0.0
164,44.0,0.0,180.0,0.0,0.0
165,48.0,0.0,180.0,0.0,0.0
166,30.0,0.0,180.0,0.0,0.0
167,39.0,240.0,180.0,0.0,0.0
168,49.0,0.0,720.0,0.0,0.0
169,44.0,120.0,720.0,0.0,0.0
170,29.0,0.0,180.0,0.0,0.0
171,37.0,240.0,180.0,0.0,0.0
172,29.0,240.0,180.0,0.0,0.0
173,37.0,0.0,180.0,0.0,0.0
174,29.0,60.0,180.0,0.0,0.0
175,37.0,0.0,180.0,0.0,0.0
176,29.0,0.0,180.0,0.0,0.0
177,37.0,60.0,180.0,0.0,0.0
178,53.0,60.0,120.0,0.0,0.0
179,51.0,120.0,120.0,0.0,0.0
180,49.0,60.0,120.0,0.0,0.0
181,29.0,240.0,180.0,0.0,0.0
182,37.0,0.0,180.0,0.0,0.0
183,37.0,240.0,180.0,0.0,0.0
184,29.0,0.0,180.0,0.0,0.0
185,37.0,0.0,180.0,0.0,0.0
186,29.0,240.0,180.0,0.0,0.0
187,29.0,60.0,180.0,0.0,0.0
188,37.0,0.0,180.0,0.0,0.0
189,79.0,180.0,60.0,0.0,0.0
190,80.0,60.0,600.0,0.0,0.0
191,28.0,240.0,180.0,0.0,0.0
192,37.0,0.0,180.0,0.0,0.0
193,28.0,180.0,180.0,0.0,0.0
194,37.0,0.0,180.0,0.0,0.0
195,37.0,0.0,180.0,0.0,0.0
196,28.0,60.0,180.0,0.0,0.0
197,78.0,120.0,120.0,0.0,0.0
198,37.0,0.0,180.0,0.0,0.0
199,76.0,60.0,120.0,0.0,0.0
200,28.0,60.0,180.0,0.0,0.0
201,75.0,180.0,120.0,0.0,0.0
202,37.0,60.0,180.0,0.0,0.0
203,28.0,0.0,180.0,0.0,0.0
204,73.0,180.0,240.0,0.0,0.0
205,28.0,0.0,180.0,0.0,0.0
206,37.0,240.0,180.0,0.0,0.0
207,37.0,240.0,180.0,0.0,0.0
208,28.0,0.0,180.0,0.0,0.0
209,37.0,0.0,180.0,0.0,0.0
210,28.0,60.0,180.0,0.0,0.0
211,84.0,180.0,60.0,0.0,0.0
212,27.0,0.0,180.0,0.0,0.0
213,37.0,240.0,180.0,0.0,0.0
214,37.0,240.0,180.0,0.0,0.0
215,27.0,0.0,180.0,0.0,0.0
216,27.0,0.0,180.0,0.0,0.0
217,37.0,240.0,180.0,0.0,0.0
218,37.0,240.0,180.0,0.0,0.0
219,27.0,0.0,180.0,0.0,0.0
220,37.0,0.0,180.0,0.0,0.0
221,27.0,240.0,180.0,0.0,0.0
222,37.0,0.0,180.0,0.0,0.0
223,27.0,60.0,180.0,0.0,0.0
224,28.0,60.0,180.0,0.0,0.0
225,37.0,0.0,180.0,0.0,0.0
226,85.0,120.0,15.0,0.0,0.0
227,83.0,120.0,120.0,0.0,0.0
228,28.0,60.0,180.0,0.0,0.0
229,37.0,0.0,180.0,0.0,0.0
230,82.0,60.0,120.0,0.0,0.0
231,80.0,120.0,120.0,0.0,0.0
232,79.0,60.0,120.0,0.0,0.0
233,37.0,0.0,180.0,0.0,0.0
234,27.0,60.0,180.0,0.0,0.0
235,80.0,120.0,120.0,0.0,0.0
236,37.0,0.0,180.0,0.0,0.0
237,82.0,60.0,120.0,0.0,0.0
238,27.0,60.0,180.0,0.0,0.0
239,83.0,120.0,120.0,0.0,0.0
240,85.0,60.0,120.0,0.0,0.0
241,37.0,0.0,180.0,0.0,0.0
242,28.0,60.0,180.0,0.0,0.0
243,83.0,120.0,120.0,0.0,0.0
244,82.0,60.0,120.0,0.0,0.0
245,37.0,0.0,180.0,0.0,0.0
246,28.0,60.0,180.0,0.0,0.0
247,80.0,120.0,120.0,0.0,0.0
248,27.0,0.0,180.0,0.0,0.0
249,79.0,60.0,120.0,0.0,0.0
250,37.0,60.0,180.0,0.0,0.0
251,80.0,120.0,120.0,0.0,0.0
252,27.0,60.0,180.0,0.0,0.0
253,82.0,60.0,120.0,0.0,0.0
254,37.0,0.0,180.0,0.0,0.0
255,83.0,120.0,120.0,0.0,0.0
256,37.0,0.0,180.0,0.0,0.0
257,85.0,60.0,120.0,0.0,0.0
258,28.0,60.0,180.0,0.0,0.0
259,83.0,120.0,120.0,0.0,0.0
260,28.0,60.0,180.0,0.0,0.0
261,37.0,0.0,180.0,0.0,0.0
262,82.0,60.0,120.0,0.0,0.0
263,80.0,120.0,120.0,0.0,0.0
264,79.0,120.0,120.0,0.0,0.0
265,37.0,0.0,480.0,0.0,0.0
266,27.0,0.0,480.0,0.0,0.0
267,80.0,120.0,120.0,0.0,0.0
268,82.0,120.0,120.0,0.0,0.0
269,83.0,120.0,120.0,0.0,0.0
270,51.0,0.0,1200.0,0.0,0.0
271,39.0,0.0,1200.0,0.0,0.0
272,85.0,120.0,120.0,0.0,0.0
273,83.0,120.0,120.0,0.0,0.0
274,82.0,120.0,120.0,0.0,0.0
275,80.0,120.0,120.0,0.0,0.0
276,79.0,120.0,120.0,0.0,0.0
277,76.0,120.0,120.0,0.0,0.0
278,75.0,120.0,120.0,0.0,0.0
279,73.0,120.0,120.0,0.0,0.0
280,71.0,120.0,120.0,0.0,0.0
281,70.0,120.0,120.0,0.0,0.0
282,68.0,120.0,120.0,0.0,0.0
283,53.0,0.0,120.0,0.0,0.0
284,55.0,0.0,120.0,0.0,0.0
285,67.0,180.0,120.0,0.0,0.0
286,56.0,480.0,180.0,0.0,0.0
287,68.0,0.0,180.0,0.0,0.0
288,63.0,0.0,180.0,0.0,0.0
289,39.0,480.0,180.0,0.0,0.0
290,51.0,0.0,180.0,0.0,0.0
291,59.0,0.0,180.0,0.0,0.0
292,35.0,480.0,180.0,0.0,0.0
293,47.0,0.0,180.0,0.0,0.0
294,32.0,0.0,180.0,0.0,0.0
295,56.0,0.0,180.0,0.0,0.0
296,44.0,2220.0,180.0,0.0,0.0
297,51.0,0.0,1920.0,0.0,0.0
298,39.0,180.0,1920.0,0.0,0.0
299,27.0,0.0,1920.0,0.0,0.0
300,60.0,60.0,180.0,0.0,0.0
301,32.0,0.0,1920.0,0.0,0.0
302,44.0,0.0,240.0,0.0,0.0
303,56.0,180.0,120.0,0.0,0.0
304,60.0,60.0,180.0,0.0,0.0
305,51.0,0.0,120.0,0.0,0.0
306,56.0,0.0,120.0,0.0,0.0
307,44.0,180.0,15.0,0.0,0.0
308,60.0,60.0,180.0,0.0,0.0
309,56.0,0.0,120.0,0.0,0.0
310,51.0,180.0,120.0,0.0,0.0
311,44.0,0.0,15.0,0.0,0.0
312,60.0,60.0,180.0,0.0,0.0
313,51.0,0.0,120.0,0.0,0.0
314,56.0,0.0,120.0,0.0,0.0
315,44.0,180.0,15.0,0.0,0.0
316,60.0,60.0,180.0,0.0,0.0
317,51.0,0.0,120.0,0.0,0.0
318,56.0,180.0,120.0,0.0,0.0
319,44.0,0.0,15.0,0.0,0.0
320,60.0,60.0,180.0,0.0,0.0
321,56.0,180.0,120.0,0.0,0.0
322,51.0,0.0,120.0,0.0,0.0
323,44.0,0.0,15.0,0.0,0.0
324,60.0,60.0,180.0,0.0,0.0
325,56.0,0.0,120.0,0.0,0.0
326,51.0,180.0,120.0,0.0,0.0
327,44.0,0.0,15.0,0.0,0.0
328,60.0,60.0,180.0,0.0,0.0
329,56.0,180.0,120.0,0.0,0.0
330,51.0,0.0,120.0,0.0,0.0
331,60.0,60.0,180.0,0.0,0.0
332,56.0,0.0,120.0,0.0,0.0
333,51.0,180.0,120.0,0.0,0.0
334,60.0,60.0,180.0,0.0,0.0
335,44.0,0.0,15.0,0.0,0.0
336,51.0,0.0,120.0,0.0,0.0
337,56.0,0.0,120.0,0.0,0.0
338,44.0,180.0,15.0,0.0,0.0
339,60.0,60.0,180.0,0.0,0.0
340,56.0,0.0,120.0,0.0,0.0
341,51.0,180.0,120.0,0.0,0.0
342,60.0,60.0,180.0,0.0,0.0
343,44.0,0.0,15.0,0.0,0.0
344,56.0,0.0,120.0,0.0,0.0
345,51.0,0.0,120.0,0.0,0.0
346,44.0,180.0,15.0,0.0,0.0
347,60.0,60.0,180.0,0.0,0.0
348,51.0,0.0,120.0,0.0,0.0
349,56.0,0.0,120.0,0.0,0.0
350,60.0,60.0,180.0,0.0,0.0
351,44.0,0.0,240.0,0.0,0.0
352,51.0,180.0,120.0,0.0,0.0
353,56.0,0.0,120.0,0.0,0.0
354,62.0,60.0,180.0,0.0,0.0
355,44.0,0.0,240.0,0.0,0.0
356,58.0,180.0,120.0,0.0,0.0
357,53.0,0.0,120.0,0.0,0.0
358,44.0,0.0,240.0,0.0,0.0
359,62.0,60.0,180.0,0.0,0.0
360,58.0,0.0,120.0,0.0,0.0
361,53.0,240.0,120.0,0.0,0.0
362,63.0,120.0,720.0,0.0,0.0
363,51.0,240.0,120.0,0.0,0.0
364,46.0,0.0,15.0,0.0,0.0
365,43.0,0.0,15.0,0.0,0.0
366,51.0,0.0,120.0,0.0,0.0
367,43.0,240.0,15.0,0.0,0.0
368,46.0,0.0,240.0,0.0,0.0
369,51.0,0.0,120.0,0.0,0.0
370,43.0,120.0,240.0,0.0,0.0
371,46.0,0.0,240.0,0.0,0.0
372,67.0,120.0,120.0,0.0,0.0
373,65.0,0.0,120.0,0.0,0.0
374,51.0,0.0,120.0,0.0,0.0
375,63.0,120.0,120.0,0.0,0.0
376,43.0,0.0,240.0,0.0,0.0
377,51.0,0.0,120.0,0.0,0.0
378,43.0,240.0,240.0,0.0,0.0
379,46.0,240.0,15.0,0.0,0.0
380,51.0,0.0,120.0,0.0,0.0
381,43.0,240.0,240.0,0.0,0.0
382,51.0,0.0,120.0,0.0,0.0
383,46.0,0.0,15.0,0.0,0.0
384,43.0,0.0,240.0,0.0,0.0
385,51.0,240.0,120.0,0.0,0.0
386,81.0,0.0,60.0,0.0,0.0
387,46.0,0.0,15.0,0.0,0.0
388,82.0,120.0,600.0,0.0,0.0
389,43.0,0.0,240.0,0.0,0.0
390,51.0,0.0,120.0,0.0,0.0
391,46.0,240.0,15.0,0.0,0.0
392,51.0,0.0,120.0,0.0,0.0
393,43.0,0.0,15.0,0.0,0.0
394,80.0,0.0,120.0,0.0,0.0
395,51.0,0.0,120.0,0.0,0.0
396,79.0,120.0,120.0,0.0,0.0
397,43.0,0.0,15.0,0.0,0.0
398,46.0,120.0,15.0,0.0,0.0
399,51.0,0.0,120.0,0.0,0.0
400,77.0,240.0,120.0,0.0,0.0
401,46.0,0.0,15.0,0.0,0.0
402,75.0,240.0,240.0,0.0,0.0
403,43.0,0.0,240.0,0.0,0.0
404,51.0,0.0,120.0,0.0,0.0
405,51.0,0.0,120.0,0.0,0.0
406,46.0,0.0,15.0,0.0,0.0
407,43.0,240.0,15.0,0.0,0.0
408,51.0,0.0,120.0,0.0,0.0
409,46.0,240.0,15.0,0.0,0.0
410,43.0,0.0,15.0,0.0,0.0
411,51.0,0.0,120.0,0.0,0.0
412,61.0,60.0,180.0,0.0,0.0
413,34.0,0.0,1920.0,0.0,0.0
414,58.0,0.0,120.0,0.0,0.0
415,61.0,60.0,180.0,0.0,0.0
416,46.0,180.0,15.0,0.0,0.0
417,53.0,180.0,120.0,0.0,0.0
418,58.0,0.0,120.0,0.0,0.0
419,61.0,60.0,180.0,0.0,0.0
420,53.0,180.0,120.0,0.0,0.0
421,58.0,0.0,120.0,0.0,0.0
422,46.0,0.0,15.0,0.0,0.0
423,61.0,60.0,180.0,0.0,0.0
424,58.0,180.0,120.0,0.0,0.0
425,53.0,0.0,120.0,0.0,0.0
426,46.0,180.0,240.0,0.0,0.0
427,61.0,60.0,180.0,0.0,0.0
428,58.0,0.0,120.0,0.0,0.0
429,53.0,0.0,120.0,0.0,0.0
430,61.0,60.0,180.0,0.0,0.0
431,58.0,180.0,120.0,0.0,0.0
432,53.0,0.0,120.0,0.0,0.0
433,46.0,0.0,15.0,0.0,0.0
434,61.0,60.0,180.0,0.0,0.0
435,58.0,0.0,120.0,0.0,0.0
436,53.0,180.0,120.0,0.0,0.0
437,61.0,60.0,180.0,0.0,0.0
438,58.0,180.0,120.0,0.0,0.0
439,53.0,0.0,120.0,0.0,0.0
440,46.0,0.0,15.0,0.0,0.0
441,61.0,60.0,180.0,0.0,0.0
442,53.0,0.0,120.0,0.0,0.0
443,58.0,0.0,120.0,0.0,0.0
444,61.0,60.0,180.0,0.0,0.0
445,46.0,0.0,240.0,0.0,0.0
446,58.0,180.0,120.0,0.0,0.0
447,53.0,0.0,120.0,0.0,0.0
448,61.0,60.0,180.0,0.0,0.0
449,46.0,0.0,240.0,0.0,0.0
450,58.0,0.0,120.0,0.0,0.0
451,53.0,180.0,120.0,0.0,0.0
452,61.0,60.0,180.0,0.0,0.0
453,53.0,0.0,120.0,0.0,0.0
454,58.0,0.0,120.0,0.0,0.0
455,61.0,60.0,180.0,0.0,0.0
456,46.0,180.0,15.0,0.0,0.0
457,53.0,180.0,120.0,0.0,0.0
458,58.0,0.0,120.0,0.0,0.0
459,61.0,60.0,180.0,0.0,0.0
460,46.0,0.0,15.0,0.0,0.0
461,58.0,0.0,120.0,0.0,0.0
462,53.0,0.0,120.0,0.0,0.0
463,64.0,60.0,180.0,0.0,0.0
464,46.0,180.0,15.0,0.0,0.0
465,60.0,180.0,120.0,0.0,0.0
466,55.0,0.0,120.0,0.0,0.0
467,46.0,0.0,15.0,0.0,0.0
468,64.0,60.0,180.0,0.0,0.0
469,60.0,240.0,120.0,0.0,0.0
470,55.0,0.0,120.0,0.0,0.0
471,65.0,120.0,720.0,0.0,0.0
472,53.0,240.0,120.0,0.0,0.0
473,48.0,0.0,15.0,0.0,0.0
474,44.0,0.0,15.0,0.0,0.0
475,53.0,0.0,120.0,0.0,0.0
476,53.0,0.0,120.0,0.0,0.0
477,48.0,0.0,15.0,0.0,0.0
478,44.0,0.0,15.0,0.0,0.0
479,68.0,120.0,120.0,0.0,0.0
480,67.0,0.0,120.0,0.0,0.0
481,53.0,0.0,120.0,0.0,0.0
482,44.0,120.0,15.0,0.0,0.0
483,48.0,0.0,15.0,0.0,0.0
484,65.0,120.0,120.0,0.0,0.0
485,53.0,0.0,120.0,0.0,0.0
486,44.0,0.0,15.0,0.0,0.0
487,48.0,240.0,15.0,0.0,0.0
488,53.0,0.0,120.0,0.0,0.0
489,48.0,0.0,15.0,0.0,0.0
490,44.0,240.0,15.0,0.0,0.0
491,53.0,240.0,120.0,0.0,0.0
492,48.0,0.0,240.0,0.0,0.0
493,53.0,0.0,120.0,0.0,0.0
494,83.0,0.0,60.0,0.0,0.0
495,44.0,240.0,15.0,0.0,0.0
496,84.0,120.0,600.0,0.0,0.0
497,53.0,0.0,120.0,0.0,0.0
498,48.0,240.0,15.0,0.0,0.0
499,44.0,120.0,240.0,0.0,0.0
500,53.0,0.0,120.0,0.0,0.0
501,53.0,0.0,120.0,0.0,0.0
502,82.0,0.0,120.0,0.0,0.0
503,80.0,120.0,120.0,0.0,0.0
504,48.0,0.0,15.0,0.0,0.0
505,44.0,120.0,15.0,0.0,0.0
506,79.0,0.0,120.0,0.0,0.0
507,53.0,240.0,120.0,0.0,0.0
508,77.0,240.0,240.0,0.0,0.0
509,48.0,0.0,15.0,0.0,0.0
510,53.0,0.0,120.0,0.0,0.0
511,48.0,0.0,15.0,0.0,0.0
512,44.0,0.0,15.0,0.0,0.0
513,53.0,240.0,120.0,0.0,0.0
514,48.0,0.0,240.0,0.0,0.0
515,53.0,0.0,120.0,0.0,0.0
516,44.0,240.0,15.0,0.0,0.0
517,48.0,240.0,240.0,0.0,0.0
518,53.0,0.0,120.0,0.0,0.0
519,83.0,0.0,60.0,0.0,0.0
520,84.0,120.0,600.0,0.0,0.0
521,44.0,240.0,240.0,0.0,0.0
522,48.0,0.0,240.0,0.0,0.0
523,54.0,0.0,120.0,0.0,0.0
524,48.0,0.0,240.0,0.0,0.0
525,44.0,0.0,240.0,0.0,0.0
526,54.0,120.0,120.0,0.0,0.0
527,44.0,0.0,240.0,0.0,0.0
528,54.0,0.0,120.0,0.0,0.0
529,82.0,0.0,120.0,0.0,0.0
530,80.0,120.0,120.0,0.0,0.0
531,48.0,120.0,15.0,0.0,0.0
532,79.0,0.0,120.0,0.0,0.0
533,54.0,240.0,120.0,0.0,0.0
534,78.0,0.0,240.0,0.0,0.0
535,48.0,0.0,15.0,0.0,0.0
536,44.0,0.0,15.0,0.0,0.0
537,54.0,0.0,120.0,0.0,0.0
538,48.0,240.0,15.0,0.0,0.0
539,44.0,0.0,15.0,0.0,0.0
540,54.0,240.0,120.0,0.0,0.0
541,44.0,0.0,15.0,0.0,0.0
542,54.0,240.0,120.0,0.0,0.0
543,44.0,0.0,15.0,0.0,0.0
544,48.0,0.0,15.0,0.0,0.0
545,54.0,140.0,120.0,0.0,0.0
546,43.0,120.0,150.0,0.0,0.0
547,79.0,0.0,630.0,0.0,0.0
548,47.0,120.0,150.0,0.0,0.0
549,50.0,100.0,150.0,0.0,0.0
550,55.0,140.0,120.0,0.0,0.0
551,43.0,120.0,150.0,0.0,0.0
552,77.0,0.0,150.0,0.0,0.0
553,47.0,120.0,150.0,0.0,0.0
554,50.0,0.0,150.0,0.0,0.0
555,75.0,100.0,150.0,0.0,0.0
556,74.0,120.0,150.0,0.0,0.0
557,55.0,20.0,120.0,0.0,0.0
558,43.0,0.0,150.0,0.0,0.0
559,75.0,120.0,150.0,0.0,0.0
560,48.0,0.0,150.0,0.0,0.0
561,74.0,120.0,150.0,0.0,0.0
562,51.0,0.0,150.0,0.0,0.0
563,72.0,100.0,150.0,0.0,0.0
564,55.0,20.0,120.0,0.0,0.0
565,71.0,120.0,150.0,0.0,0.0
566,43.0,0.0,150.0,0.0,0.0
567,72.0,120.0,150.0,0.0,0.0
568,75.0,0.0,150.0,0.0,0.0
569,48.0,120.0,150.0,0.0,0.0
570,51.0,100.0,150.0,0.0,0.0
571,74.0,0.0,150.0,0.0,0.0
572,55.0,20.0,120.0,0.0,0.0
573,72.0,120.0,150.0,0.0,0.0
574,43.0,0.0,150.0,0.0,0.0
575,71.0,120.0,150.0,0.0,0.0
576,69.0,120.0,150.0,0.0,0.0
577,50.0,0.0,150.0,0.0,0.0
578,67.0,100.0,150.0,0.0,0.0
579,53.0,0.0,150.0,0.0,0.0
580,55.0,20.0,120.0,0.0,0.0
581,66.0,120.0,150.0,0.0,0.0
582,43.0,0.0,150.0,0.0,0.0
583,67.0,120.0,150.0,0.0,0.0
584,50.0,120.0,150.0,0.0,0.0
585,69.0,0.0,150.0,0.0,0.0
586,70.0,100.0,150.0,0.0,0.0
587,53.0,0.0,150.0,0.0,0.0
588,55.0,20.0,120.0,0.0,0.0
589,71.0,120.0,150.0,0.0,0.0
590,43.0,120.0,150.0,0.0,0.0
591,72.0,0.0,150.0,0.0,0.0
592,71.0,120.0,150.0,0.0,0.0
593,48.0,0.0,150.0,0.0,0.0
594,72.0,100.0,150.0,0.0,0.0
595,51.0,0.0,150.0,0.0,0.0
596,74.0,120.0,150.0,0.0,0.0
597,55.0,20.0,120.0,0.0,0.0
598,43.0,0.0,150.0,0.0,0.0
599,75.0,120.0,150.0,0.0,0.0
600,76.0,0.0,150.0,0.0,0.0
601,48.0,120.0,150.0,0.0,0.0
602,77.0,100.0,150.0,0.0,0.0
603,51.0,0.0,150.0,0.0,0.0
604,78.0,120.0,150.0,0.0,0.0
605,55.0,20.0,120.0,0.0,0.0
606,43.0,120.0,150.0,0.0,0.0
607,79.0,0.0,150.0,0.0,0.0
608,78.0,120.0,150.0,0.0,0.0
609,47.0,0.0,150.0,0.0,0.0
610,50.0,0.0,150.0,0.0,0.0
611,79.0,100.0,150.0,0.0,0.0
612,55.0,20.0,120.0,0.0,0.0
613,78.0,120.0,150.0,0.0,0.0
614,43.0,0.0,150.0,0.0,0.0
615,79.0,120.0,150.0,0.0,0.0
616,77.0,120.0,150.0,0.0,0.0
617,47.0,0.0,150.0,0.0,0.0
618,75.0,100.0,150.0,0.0,0.0
619,50.0,0.0,150.0,0.0,0.0
620,55.0,20.0,120.0,0.0,0.0
621,74.0,120.0,150.0,0.0,0.0
622,75.0,120.0,150.0,0.0,0.0
623,43.0,0.0,150.0,0.0,0.0
624,74.0,0.0,150.0,0.0,0.0
625,48.0,120.0,150.0,0.0,0.0
626,72.0,100.0,150.0,0.0,0.0
627,51.0,0.0,150.0,0.0,0.0
628,55.0,20.0,120.0,0.0,0.0
629,71.0,120.0,150.0,0.0,0.0
630,43.0,120.0,150.0,0.0,0.0
631,72.0,0.0,150.0,0.0,0.0
632,48.0,120.0,150.0,0.0,0.0
633,75.0,0.0,150.0,0.0,0.0
634,51.0,100.0,150.0,0.0,0.0
635,74.0,0.0,150.0,0.0,0.0
636,55.0,20.0,120.0,0.0,0.0
637,72.0,120.0,150.0,0.0,0.0
638,71.0,120.0,150.0,0.0,0.0
639,43.0,0.0,150.0,0.0,0.0
640,69.0,120.0,150.0,0.0,0.0
641,50.0,0.0,150.0,0.0,0.0
642,53.0,0.0,150.0,0.0,0.0
643,67.0,100.0,150.0,0.0,0.0
644,66.0,120.0,150.0,0.0,0.0
645,55.0,20.0,120.0,0.0,0.0
646,67.0,0.0,150.0,0.0,0.0
647,43.0,120.0,150.0,0.0,0.0
648,69.0,0.0,150.0,0.0,0.0
649,50.0,120.0,150.0,0.0,0.0
650,53.0,0.0,150.0,0.0,0.0
651,70.0,100.0,150.0,0.0,0.0
652,55.0,20.0,120.0,0.0,0.0
653,71.0,120.0,150.0,0.0,0.0
654,43.0,120.0,150.0,0.0,0.0
655,72.0,0.0,150.0,0.0,0.0
656,71.0,0.0,150.0,0.0,0.0
657,48.0,120.0,150.0,0.0,0.0
658,72.0,0.0,150.0,0.0,0.0
659,51.0,100.0,150.0,0.0,0.0
660,74.0,120.0,150.0,0.0,0.0
661,55.0,20.0,120.0,0.0,0.0
662,43.0,0.0,150.0,0.0,0.0
663,75.0,120.0,150.0,0.0,0.0
664,48.0,0.0,150.0,0.0,0.0
665,76.0,120.0,150.0,0.0,0.0
666,51.0,0.0,150.0,0.0,0.0
667,77.0,100.0,150.0,0.0,0.0
668,55.0,20.0,120.0,0.0,0.0
669,78.0,100.0,150.0,0.0,0.0
670,43.0,120.0,120.0,0.0,0.0
671,79.0,0.0,120.0,0.0,0.0
672,47.0,0.0,120.0,0.0,0.0
673,74.0,120.0,120.0,0.0,0.0
674,50.0,120.0,120.0,0.0,0.0
675,71.0,0.0,120.0,0.0,0.0
676,67.0,0.0,120.0,0.0,0.0
677,55.0,120.0,120.0,0.0,0.0
678,66.0,120.0,120.0,0.0,0.0
679,54.0,0.0,120.0,0.0,0.0
680,55.0,120.0,120.0,0.0,0.0
681,67.0,0.0,120.0,0.0,0.0
682,51.0,120.0,120.0,0.0,0.0
683,72.0,0.0,120.0,0.0,0.0
684,48.0,0.0,120.0,0.0,0.0
685,75.0,120.0,120.0,0.0,0.0
686,43.0,0.0,120.0,0.0,0.0
687,79.0,120.0,120.0,0.0,0.0
688,47.0,0.0,120.0,0.0,0.0
689,74.0,120.0,120.0,0.0,0.0
690,71.0,0.0,120.0,0.0,0.0
691,50.0,120.0,120.0,0.0,0.0
692,67.0,0.0,120.0,0.0,0.0
693,55.0,120.0,120.0,0.0,0.0
694,54.0,0.0,120.0,0.0,0.0
695,66.0,120.0,120.0,0.0,0.0
696,55.0,120.0,120.0,0.0,0.0
697,67.0,0.0,120.0,0.0,0.0
698,51.0,120.0,120.0,0.0,0.0
699,72.0,0.0,120.0,0.0,0.0
700,75.0,0.0,120.0,0.0,0.0
701,48.0,120.0,120.0,0.0,0.0
702,43.0,0.0,120.0,0.0,0.0
703,79.0,120.0,120.0,0.0,0.0
704,47.0,0.0,120.0,0.0,0.0
705,74.0,120.0,120.0,0.0,0.0
706,50.0,0.0,120.0,0.0,0.0
707,71.0,120.0,120.0,0.0,0.0
708,67.0,0.0,120.0,0.0,0.0
709,55.0,120.0,120.0,0.0,0.0
710,79.0,120.0,120.0,0.0,0.0
711,43.0,0.0,120.0,0.0,0.0
712,75.0,0.0,120.0,0.0,0.0
713,48.0,120.0,120.0,0.0,0.0
714,51.0,0.0,120.0,0.0,0.0
715,72.0,120.0,120.0,0.0,0.0
716,55.0,0.0,120.0,0.0,0.0
717,67.0,120.0,120.0,0.0,0.0
718,43.0,120.0,120.0,0.0,0.0
719,79.0,0.0,120.0,0.0,0.0
720,47.0,0.0,120.0,0.0,0.0
721,74.0,120.0,120.0,0.0,0.0
722,71.0,0.0,120.0,0.0,0.0
723,50.0,120.0,120.0,0.0,0.0
724,67.0,0.0,120.0,0.0,0.0
725,55.0,120.0,120.0,0.0,0.0
726,79.0,120.0,120.0,0.0,0.0
727,43.0,0.0,120.0,0.0,0.0
728,48.0,0.0,120.0,0.0,0.0
729,75.0,120.0,120.0,0.0,0.0
730,51.0,120.0,120.0,0.0,0.0
731,72.0,0.0,120.0,0.0,0.0
732,67.0,0.0,120.0,0.0,0.0
733,43.0,120.0,480.0,0.0,0.0
734,47.0,0.0,480.0,0.0,0.0
735,79.0,120.0,120.0,0.0,0.0
736,50.0,0.0,480.0,0.0,0.0
737,55.0,120.0,15.0,0.0,0.0
738,74.0,120.0,120.0,0.0,0.0
739,71.0,120.0,120.0,0.0,0.0
740,67.0,0.0,120.0,0.0,0.0
741,74.0,120.0,120.0,0.0,0.0
742,71.0,120.0,120.0,0.0,0.0
743,67.0,120.0,120.0,0.0,0.0
744,62.0,120.0,120.0,0.0,0.0
745,71.0,120.0,120.0,0.0,0.0
746,67.0,120.0,120.0,0.0,0.0
747,62.0,120.0,120.0,0.0,0.0
748,59.0,120.0,120.0,0.0,0.0
749,67.0,120.0,120.0,0.0,0.0
750,62.0,120.0,120.0,0.0,0.0
751,59.0,120.0,120.0,0.0,0.0
752,55.0,120.0,120.0,0.0,0.0
753,62.0,120.0,120.0,0.0,0.0
754,59.0,120.0,120.0,0.0,0.0
755,55.0,120.0,120.0,0.0,0.0
756,50.0,120.0,120.0,0.0,0.0
757,59.0,120.0,120.0,0.0,0.0
758,55.0,120.0,120.0,0.0,0.0
759,50.0,120.0,120.0,0.0,0.0
760,47.0,120.0,120.0,0.0,0.0
761,55.0,120.0,120.0,0.0,0.0
762,50.0,120.0,120.0,0.0,0.0
763,47.0,120.0,120.0,0.0,0.0
764,43.0,120.0,120.0,0.0,0.0
765,31.0,120.0,120.0,0.0,0.0
766,35.0,120.0,120.0,0.0,0.0
767,38.0,120.0,120.0,0.0,0.0
768,43.0,120.0,120.0,0.0,0.0
769,31.0,240.0,120.0,0.0,0.0
770,43.0,240.0,120.0,0.0,0.0
771,33.0,240.0,120.0,0.0,0.0
772,45.0,240.0,120.0,0.0,0.0
773,35.0,0.0,120.0,0.0,0.0
774,67.0,240.0,120.0,0.0,0.0
775,47.0,240.0,120.0,0.0,0.0
776,55.0,0.0,120.0,0.0,0.0
777,69.0,240.0,120.0,0.0,0.0
778,57.0,240.0,120.0,0.0,0.0
779,71.0,240.0,120.0,0.0,0.0
780,35.0,0.0,120.0,0.0,0.0
781,59.0,0.0,120.0,0.0,0.0
782,47.0,240.0,120.0,0.0,0.0
783,36.0,240.0,120.0,0.0,0.0
784,48.0,240.0,120.0,0.0,0.0
785,38.0,0.0,120.0,0.0,0.0
786,71.0,240.0,120.0,0.0,0.0
787,50.0,240.0,120.0,0.0,0.0
788,59.0,0.0,120.0,0.0,0.0
789,72.0,240.0,120.0,0.0,0.0
790,60.0,240.0,120.0,0.0,0.0
791,74.0,240.0,120.0,0.0,0.0
792,62.0,240.0,120.0,0.0,0.0
793,76.0,240.0,120.0,0.0,0.0
794,64.0,240.0,120.0,0.0,0.0
795,77.0,240.0,120.0,0.0,0.0
796,38.0,0.0,120.0,0.0,0.0
797,65.0,240.0,120.0,0.0,0.0
798,50.0,0.0,120.0,0.0,0.0
799,77.0,240.0,120.0,0.0,0.0
800,40.0,0.0,120.0,0.0,0.0
801,67.0,240.0,120.0,0.0,0.0
802,52.0,0.0,120.0,0.0,0.0
803,41.0,0.0,120.0,0.0,0.0
804,77.0,240.0,120.0,0.0,0.0
805,53.0,240.0,120.0,0.0,0.0
806,69.0,0.0,120.0,0.0,0.0
807,77.0,240.0,120.0,0.0,0.0
808,43.0,0.0,120.0,0.0,0.0
809,55.0,240.0,120.0,0.0,0.0
810,71.0,0.0,120.0,0.0,0.0
811,45.0,240.0,120.0,0.0,0.0
812,77.0,0.0,120.0,0.0,0.0
813,57.0,0.0,120.0,0.0,0.0
814,72.0,240.0,120.0,0.0,0.0
815,47.0,0.0,120.0,0.0,0.0
816,77.0,240.0,120.0,0.0,0.0
817,74.0,0.0,120.0,0.0,0.0
818,59.0,1080.0,120.0,0.0,0.0
819,67.0,480.0,960.0,0.0,0.0
820,72.0,0.0,960.0,0.0,0.0
821,76.0,0.0,960.0,0.0,0.0
822,64.0,0.0,960.0,0.0,0.0
823,60.0,0.0,960.0,0.0,0.0
824,62.0,0.0,480.0,0.0,0.0
825,59.0,0.0,480.0,0.0,0.0
826,65.0,0.0,480.0,0.0,0.0
827,71.0,0.0,480.0,0.0,0.0
828,74.0,480.0,480.0,0.0,0.0
829,55.0,0.0,480.0,0.0,0.0
830,69.0,0.0,480.0,0.0,0.0
831,60.0,0.0,480.0,0.0,0.0
832,72.0,960.0,480.0,0.0,0.0
833,57.0,0.0,480.0,0.0,0.0
834,64.0,0.0,480.0,0.0,0.0
835,71.0,0.0,960.0,0.0,0.0
836,68.0,0.0,960.0,0.0,0.0
837,62.0,0.0,960.0,0.0,0.0
838,56.0,0.0,960.0,0.0,0.0
839,59.0,960.0,960.0,0.0,0.0
840,52.0,0.0,960.0,0.0,0.0
841,60.0,0.0,960.0,0.0,0.0
842,69.0,0.0,960.0,0.0,0.0
843,53.0,960.0,960.0,0.0,0.0
844,57.0,0.0,960.0,0.0,0.0
845,71.0,0.0,960.0,0.0,0.0
846,67.0,0.0,960.0,0.0,0.0
847,65.0,480.0,960.0,0.0,0.0
848,50.0,0.0,960.0,0.0,0.0
849,55.0,0.0,960.0,0.0,0.0
850,53.0,0.0,960.0,0.0,0.0
851,59.0,0.0,960.0,0.0,0.0
852,72.0,0.0,480.0,0.0,0.0
853,52.0,0.0,480.0,0.0,0.0
854,55.0,480.0,480.0,0.0,0.0
855,60.0,0.0,480.0,0.0,0.0
856,67.0,0.0,480.0,0.0,0.0
857,69.0,0.0,480.0,0.0,0.0
858,72.0,0.0,480.0,0.0,0.0
859,74.0,0.0,480.0,0.0,0.0
860,57.0,0.0,480.0,0.0,0.0
861,53.0,0.0,480.0,0.0,0.0
862,62.0,960.0,480.0,0.0,0.0
863,67.0,480.0,1440.0,0.0,0.0
864,76.0,0.0,960.0,0.0,0.0
865,55.0,0.0,1920.0,0.0,0.0
866,60.0,0.0,960.0,0.0,0.0
867,64.0,480.0,960.0,0.0,0.0
868,72.0,0.0,960.0,0.0,0.0
869,74.0,0.0,960.0,0.0,0.0
870,71.0,960.0,960.0,0.0,0.0
871,62.0,0.0,960.0,0.0,0.0
872,59.0,0.0,960.0,0.0,0.0
873,65.0,0.0,480.0,0.0,0.0
874,52.0,480.0,960.0,0.0,0.0
875,55.0,0.0,960.0,0.0,0.0
876,64.0,0.0,960.0,0.0,0.0
877,48.0,0.0,960.0,0.0,0.0
878,60.0,0.0,960.0,0.0,0.0
879,53.0,0.0,480.0,0.0,0.0
880,59.0,480.0,480.0,0.0,0.0
881,62.0,0.0,480.0,0.0,0.0
882,50.0,0.0,480.0,0.0,0.0
883,47.0,0.0,480.0,0.0,0.0
884,43.0,0.0,480.0,0.0,0.0
885,52.0,0.0,480.0,0.0,0.0
886,57.0,0.0,480.0,0.0,0.0
887,60.0,960.0,480.0,0.0,0.0
888,45.0,0.0,480.0,0.0,0.0
889,48.0,0.0,480.0,0.0,0.0
890,59.0,0.0,960.0,0.0,0.0
891,40.0,0.0,960.0,0.0,0.0
892,44.0,0.0,960.0,0.0,0.0
893,50.0,0.0,960.0,0.0,0.0
894,56.0,0.0,960.0,0.0,0.0
895,47.0,960.0,960.0,0.0,0.0
896,53.0,0.0,960.0,0.0,0.0
897,57.0,0.0,960.0,0.0,0.0
898,45.0,480.0,960.0,0.0,0.0
899,41.0,0.0,960.0,0.0,0.0
900,55.0,480.0,960.0,0.0,0.0
901,52.0,480.0,480.0,0.0,0.0
902,48.0,0.0,15.0,0.0,0.0
903,43.0,0.0,1920.0,0.0,0.0
904,31.0,0.0,1920.0,0.0,0.0
905,53.0,120.0,1440.0,0.0,0.0
906,50.0,0.0,1440.0,0.0,0.0
907,57.0,480.0,480.0,0.0,0.0
908,59.0,0.0,480.0,0.0,0.0
909,60.0,40.0,120.0,0.0,0.0
910,52.0,120.0,150.0,0.0,0.0
911,48.0,0.0,480.0,0.0,0.0
912,36.0,120.0,480.0,0.0,0.0
913,62.0,160.0,120.0,0.0,0.0
914,64.0,40.0,120.0,0.0,0.0
915,65.0,160.0,120.0,0.0,0.0
916,67.0,160.0,120.0,0.0,0.0
917,69.0,160.0,120.0,0.0,0.0
918,70.0,160.0,120.0,0.0,0.0
919,71.0,160.0,120.0,0.0,0.0
920,72.0,160.0,120.0,0.0,0.0
921,73.0,160.0,120.0,0.0,0.0
922,74.0,160.0,120.0,0.0,0.0
923,75.0,200.0,120.0,0.0,0.0
924,67.0,0.0,960.0,0.0,0.0
925,76.0,160.0,150.0,0.0,0.0
926,60.0,0.0,960.0,0.0,0.0
927,64.0,0.0,960.0,0.0,0.0
928,75.0,160.0,150.0,0.0,0.0
929,76.0,160.0,150.0,0.0,0.0
930,77.0,160.0,150.0,0.0,0.0
931,75.0,160.0,150.0,0.0,0.0
932,76.0,320.0,150.0,0.0,0.0
933,65.0,0.0,480.0,0.0,0.0
934,59.0,0.0,480.0,0.0,0.0
935,62.0,320.0,480.0,0.0,0.0
936,55.0,0.0,480.0,0.0,0.0
937,76.0,160.0,150.0,0.0,0.0
938,74.0,0.0,150.0,0.0,0.0
939,64.0,0.0,480.0,0.0,0.0
940,60.0,0.0,480.0,0.0,0.0
941,57.0,320.0,480.0,0.0,0.0
942,74.0,160.0,150.0,0.0,0.0
943,72.0,0.0,150.0,0.0,0.0
944,62.0,0.0,960.0,0.0,0.0
945,59.0,320.0,960.0,0.0,0.0
946,56.0,0.0,960.0,0.0,0.0
947,52.0,0.0,960.0,0.0,0.0
948,68.0,160.0,150.0,0.0,0.0
949,71.0,160.0,150.0,0.0,0.0
950,72.0,160.0,150.0,0.0,0.0
951,68.0,160.0,150.0,0.0,0.0
952,71.0,0.0,150.0,0.0,0.0
953,57.0,0.0,960.0,0.0,0.0
954,60.0,320.0,960.0,0.0,0.0
955,65.0,160.0,150.0,0.0,0.0
956,69.0,160.0,150.0,0.0,0.0
957,71.0,160.0,150.0,0.0,0.0
958,65.0,160.0,150.0,0.0,0.0
959,69.0,0.0,150.0,0.0,0.0
960,50.0,0.0,960.0,0.0,0.0
961,53.0,0.0,15.0,0.0,0.0
962,65.0,0.0,960.0,0.0,0.0
963,59.0,0.0,960.0,0.0,0.0
964,70.0,160.0,150.0,0.0,0.0
965,71.0,160.0,150.0,0.0,0.0
966,72.0,160.0,150.0,0.0,0.0
967,70.0,160.0,150.0,0.0,0.0
968,71.0,0.0,150.0,0.0,0.0
969,67.0,0.0,480.0,0.0,0.0
970,52.0,320.0,480.0,0.0,0.0
971,55.0,320.0,15.0,0.0,0.0
972,60.0,0.0,480.0,0.0,0.0
973,74.0,160.0,150.0,0.0,0.0
974,72.0,0.0,150.0,0.0,0.0
975,69.0,0.0,480.0,0.0,0.0
976,53.0,0.0,480.0,0.0,0.0
977,57.0,0.0,480.0,0.0,0.0
978,62.0,0.0,480.0,0.0,0.0
979,76.0,160.0,150.0,0.0,0.0
980,74.0,160.0,150.0,0.0,0.0
981,64.0,0.0,960.0,0.0,0.0
982,60.0,160.0,960.0,0.0,0.0
983,72.0,0.0,960.0,0.0,0.0
984,76.0,160.0,150.0,0.0,0.0
985,75.0,160.0,150.0,0.0,0.0
986,76.0,160.0,150.0,0.0,0.0
987,79.0,160.0,150.0,0.0,0.0
988,77.0,160.0,150.0,0.0,0.0
989,76.0,0.0,150.0,0.0,0.0
990,71.0,160.0,150.0,0.0,0.0
991,74.0,0.0,150.0,0.0,0.0
992,59.0,0.0,480.0,0.0,0.0
993,62.0,160.0,480.0,0.0,0.0
994,69.0,160.0,150.0,0.0,0.0
995,72.0,0.0,150.0,0.0,0.0
996,71.0,0.0,150.0,0.0,0.0
997,67.0,0.0,150.0,0.0,0.0
998,65.0,0.0,150.0,0.0,0.0
999,69.0,0.0,150.0,0.0,0.0
1000,43.0,160.0,150.0,0.0,0.0
1001,45.0,160.0,150.0,0.0,0.0
1002,64.0,0.0,150.0,0.0,0.0
1003,67.0,0.0,150.0,0.0,0.0
1004,47.0,0.0,150.0,0.0,0.0
1005,62.0,0.0,150.0,0.0,0.0
1006,65.0,160.0,150.0,0.0,0.0
1007,55.0,0.0,15.0,0.0,0.0
1008,52.0,0.0,960.0,0.0,0.0
1009,48.0,0.0,960.0,0.0,0.0
1010,64.0,160.0,150.0,0.0,0.0
1011,63.0,160.0,150.0,0.0,0.0
1012,64.0,160.0,150.0,0.0,0.0
1013,65.0,160.0,150.0,0.0,0.0
1014,63.0,160.0,150.0,0.0,0.0
1015,64.0,0.0,150.0,0.0,0.0
1016,50.0,320.0,480.0,0.0,0.0
1017,43.0,0.0,480.0,0.0,0.0
1018,53.0,0.0,480.0,0.0,0.0
1019,47.0,0.0,480.0,0.0,0.0
1020,64.0,160.0,150.0,0.0,0.0
1021,62.0,0.0,150.0,0.0,0.0
1022,52.0,0.0,480.0,0.0,0.0
1023,48.0,320.0,480.0,0.0,0.0
1024,45.0,0.0,480.0,0.0,0.0
1025,62.0,160.0,150.0,0.0,0.0
1026,60.0,0.0,150.0,0.0,0.0
1027,47.0,0.0,960.0,0.0,0.0
1028,50.0,320.0,960.0,0.0,0.0
1029,44.0,0.0,960.0,0.0,0.0
1030,40.0,0.0,960.0,0.0,0.0
1031,56.0,160.0,150.0,0.0,0.0
1032,59.0,160.0,150.0,0.0,0.0
1033,60.0,160.0,150.0,0.0,0.0
1034,56.0,160.0,150.0,0.0,0.0
1035,59.0,0.0,150.0,0.0,0.0
1036,41.0,0.0,960.0,0.0,0.0
1037,48.0,0.0,960.0,0.0,0.0
1038,45.0,0.0,960.0,0.0,0.0
1039,53.0,160.0,150.0,0.0,0.0
1040,57.0,160.0,150.0,0.0,0.0
1041,59.0,160.0,150.0,0.0,0.0
1042,53.0,160.0,150.0,0.0,0.0
1043,57.0,320.0,150.0,0.0,0.0
1044,31.0,0.0,1920.0,0.0,0.0
1045,43.0,160.0,1920.0,0.0,0.0
1046,48.0,320.0,480.0,0.0,0.0
1047,52.0,160.0,150.0,0.0,0.0
1048,55.0,0.0,150.0,0.0,0.0
1049,50.0,0.0,480.0,0.0,0.0
1050,53.0,160.0,150.0,0.0,0.0
1051,55.0,320.0,150.0,0.0,0.0
1052,53.0,160.0,150.0,0.0,0.0
1053,57.0,0.0,150.0,0.0,0.0
1054,50.0,320.0,15.0,0.0,0.0
1055,53.0,160.0,150.0,0.0,0.0
1056,59.0,0.0,150.0,0.0,0.0
1057,52.0,160.0,150.0,0.0,0.0
1058,60.0,0.0,150.0,0.0,0.0
1059,48.0,0.0,480.0,0.0,0.0
1060,36.0,0.0,480.0,0.0,0.0
1061,55.0,160.0,150.0,0.0,0.0
1062,52.0,160.0,150.0,0.0,0.0
1063,55.0,160.0,150.0,0.0,0.0
1064,60.0,160.0,150.0,0.0,0.0
1065,64.0,160.0,150.0,0.0,0.0
1066,62.0,160.0,150.0,0.0,0.0
1067,59.0,160.0,150.0,0.0,0.0
1068,55.0,160.0,150.0,0.0,0.0
1069,43.0,0.0,15.0,0.0,0.0
1070,59.0,160.0,150.0,0.0,0.0
1071,62.0,160.0,150.0,0.0,0.0
1072,65.0,160.0,150.0,0.0,0.0
1073,64.0,160.0,150.0,0.0,0.0
1074,60.0,160.0,150.0,0.0,0.0
1075,55.0,160.0,150.0,0.0,0.0
1076,60.0,160.0,150.0,0.0,0.0
1077,64.0,160.0,150.0,0.0,0.0
1078,67.0,160.0,150.0,0.0,0.0
1079,65.0,160.0,150.0,0.0,0.0
1080,62.0,160.0,150.0,0.0,0.0
1081,59.0,0.0,150.0,0.0,0.0
1082,71.0,160.0,150.0,0.0,0.0
1083,43.0,160.0,15.0,0.0,0.0
1084,65.0,160.0,150.0,0.0,0.0
1085,62.0,0.0,150.0,0.0,0.0
1086,72.0,0.0,480.0,0.0,0.0
1087,64.0,0.0,480.0,0.0,0.0
1088,48.0,160.0,150.0,0.0,0.0
1089,43.0,160.0,150.0,0.0,0.0
1090,40.0,160.0,150.0,0.0,0.0
1091,43.0,160.0,150.0,0.0,0.0
1092,48.0,160.0,150.0,0.0,0.0
1093,52.0,160.0,150.0,0.0,0.0
1094,50.0,160.0,150.0,0.0,0.0
1095,47.0,160.0,150.0,0.0,0.0
1096,43.0,160.0,150.0,0.0,0.0
1097,67.0,0.0,15.0,0.0,0.0
1098,47.0,160.0,150.0,0.0,0.0
1099,50.0,160.0,150.0,0.0,0.0
1100,53.0,160.0,150.0,0.0,0.0
1101,52.0,160.0,150.0,0.0,0.0
1102,48.0,160.0,150.0,0.0,0.0
1103,43.0,160.0,150.0,0.0,0.0
1104,48.0,160.0,150.0,0.0,0.0
1105,67.0,0.0,960.0,0.0,0.0
1106,52.0,160.0,150.0,0.0,0.0
1107,55.0,160.0,150.0,0.0,0.0
1108,53.0,160.0,150.0,0.0,0.0
1109,50.0,160.0,150.0,0.0,0.0
1110,47.0,160.0,150.0,0.0,0.0
1111,59.0,160.0,150.0,0.0,0.0
1112,67.0,0.0,480.0,0.0,0.0
1113,53.0,160.0,150.0,0.0,0.0
1114,50.0,160.0,150.0,0.0,0.0
1115,72.0,0.0,150.0,0.0,0.0
1116,52.0,160.0,150.0,0.0,0.0
1117,67.0,160.0,150.0,0.0,0.0
1118,55.0,0.0,150.0,0.0,0.0
1119,60.0,0.0,150.0,0.0,0.0
1120,64.0,160.0,150.0,0.0,0.0
1121,55.0,0.0,150.0,0.0,0.0
1122,67.0,160.0,150.0,0.0,0.0
1123,52.0,160.0,150.0,0.0,0.0
1124,72.0,0.0,150.0,0.0,0.0
1125,76.0,160.0,150.0,0.0,0.0
1126,48.0,0.0,150.0,0.0,0.0
1127,47.0,160.0,150.0,0.0,0.0
1128,74.0,0.0,150.0,0.0,0.0
1129,50.0,160.0,150.0,0.0,0.0
1130,71.0,0.0,150.0,0.0,0.0
1131,67.0,0.0,150.0,0.0,0.0
1132,53.0,160.0,150.0,0.0,0.0
1133,71.0,0.0,150.0,0.0,0.0
1134,50.0,160.0,150.0,0.0,0.0
1135,74.0,160.0,150.0,0.0,0.0
1136,47.0,0.0,150.0,0.0,0.0
1137,77.0,0.0,150.0,0.0,0.0
1138,43.0,160.0,150.0,0.0,0.0
1139,76.0,6.0,150.0,0.0,0.0
1140,48.0,154.0,150.0,0.0,0.0
1141,52.0,0.0,150.0,0.0,0.0
1142,72.0,160.0,150.0,0.0,0.0
1143,55.0,0.0,150.0,0.0,0.0
1144,67.0,160.0,150.0,0.0,0.0
1145,72.0,160.0,150.0,0.0,0.0
1146,52.0,0.0,150.0,0.0,0.0
1147,48.0,160.0,150.0,0.0,0.0
1148,76.0,0.0,150.0,0.0,0.0
1149,79.0,6.0,150.0,0.0,0.0
1150,43.0,154.0,150.0,0.0,0.0
1151,77.0,160.0,150.0,0.0,0.0
1152,47.0,0.0,150.0,0.0,0.0
1153,53.0,0.0,150.0,0.0,0.0
1154,74.0,160.0,150.0,0.0,0.0
1155,71.0,6.0,150.0,0.0,0.0
1156,55.0,154.0,150.0,0.0,0.0
1157,53.0,160.0,150.0,0.0,0.0
1158,83.0,0.0,150.0,0.0,0.0
1159,77.0,0.0,150.0,0.0,0.0
1160,55.0,160.0,150.0,0.0,0.0
1161,62.0,160.0,150.0,0.0,0.0
1162,74.0,0.0,150.0,0.0,0.0
1163,84.0,80.0,240.0,0.0,0.0
1164,52.0,80.0,150.0,0.0,0.0
1165,79.0,160.0,150.0,0.0,0.0
1166,55.0,0.0,150.0,0.0,0.0
1167,60.0,0.0,150.0,0.0,0.0
1168,76.0,160.0,150.0,0.0,0.0
1169,48.0,80.0,150.0,0.0,0.0
1170,79.0,80.0,240.0,0.0,0.0
1171,76.0,160.0,150.0,0.0,0.0
1172,52.0,0.0,150.0,0.0,0.0
1173,55.0,0.0,150.0,0.0,0.0
1174,72.0,160.0,150.0,0.0,0.0
1175,50.0,80.0,150.0,0.0,0.0
1176,77.0,80.0,240.0,0.0,0.0
1177,74.0,0.0,150.0,0.0,0.0
1178,53.0,160.0,150.0,0.0,0.0
1179,71.0,160.0,150.0,0.0,0.0
1180,55.0,0.0,150.0,0.0,0.0
1181,83.0,80.0,240.0,0.0,0.0
1182,53.0,80.0,150.0,0.0,0.0
1183,79.0,0.0,150.0,0.0,0.0
1184,55.0,160.0,150.0,0.0,0.0
1185,62.0,0.0,150.0,0.0,0.0
1186,74.0,160.0,150.0,0.0,0.0
1187,52.0,80.0,150.0,0.0,0.0
1188,84.0,80.0,240.0,0.0,0.0
1189,79.0,0.0,150.0,0.0,0.0
1190,55.0,160.0,150.0,0.0,0.0
1191,60.0,160.0,150.0,0.0,0.0
1192,76.0,0.0,150.0,0.0,0.0
1193,48.0,80.0,150.0,0.0,0.0
1194,79.0,80.0,240.0,0.0,0.0
1195,52.0,160.0,150.0,0.0,0.0
1196,76.0,0.0,150.0,0.0,0.0
1197,72.0,160.0,150.0,0.0,0.0
1198,55.0,0.0,150.0,0.0,0.0
1199,50.0,80.0,150.0,0.0,0.0
1200,77.0,80.0,240.0,0.0,0.0
1201,74.0,0.0,150.0,0.0,0.0
1202,53.0,160.0,150.0,0.0,0.0
1203,55.0,0.0,150.0,0.0,0.0
1204,71.0,160.0,150.0,0.0,0.0
1205,53.0,80.0,150.0,0.0,0.0
1206,83.0,80.0,240.0,0.0,0.0
1207,79.0,160.0,150.0,0.0,0.0
1208,55.0,0.0,150.0,0.0,0.0
1209,62.0,120.0,150.0,0.0,0.0
1210,74.0,0.0,150.0,0.0,0.0
1211,84.0,0.0,120.0,0.0,0.0
1212,52.0,120.0,120.0,0.0,0.0
1213,79.0,120.0,120.0,0.0,0.0
1214,55.0,0.0,120.0,0.0,0.0
1215,76.0,120.0,120.0,0.0,0.0
1216,48.0,0.0,120.0,0.0,0.0
1217,55.0,120.0,120.0,0.0,0.0
1218,72.0,0.0,120.0,0.0,0.0
1219,77.0,120.0,120.0,0.0,0.0
1220,50.0,0.0,120.0,0.0,0.0
1221,55.0,120.0,120.0,0.0,0.0
1222,74.0,0.0,120.0,0.0,0.0
1223,83.0,0.0,120.0,0.0,0.0
1224,53.0,120.0,120.0,0.0,0.0
1225,79.0,0.0,120.0,0.0,0.0
1226,55.0,120.0,120.0,0.0,0.0
1227,84.0,0.0,120.0,0.0,0.0
1228,52.0,120.0,120.0,0.0,0.0
1229,79.0,120.0,120.0,0.0,0.0
1230,55.0,0.0,120.0,0.0,0.0
1231,48.0,0.0,120.0,0.0,0.0
1232,76.0,120.0,120.0,0.0,0.0
1233,72.0,0.0,120.0,0.0,0.0
1234,55.0,120.0,120.0,0.0,0.0
1235,50.0,120.0,120.0,0.0,0.0
1236,77.0,0.0,120.0,0.0,0.0
1237,74.0,0.0,120.0,0.0,0.0
1238,55.0,120.0,120.0,0.0,0.0
1239,83.0,120.0,120.0,0.0,0.0
1240,53.0,0.0,120.0,0.0,0.0
1241,55.0,0.0,120.0,0.0,0.0
1242,79.0,120.0,120.0,0.0,0.0
1243,52.0,0.0,120.0,0.0,0.0
1244,84.0,120.0,120.0,0.0,0.0
1245,55.0,0.0,120.0,0.0,0.0
1246,79.0,120.0,120.0,0.0,0.0
1247,53.0,0.0,120.0,0.0,0.0
1248,83.0,120.0,120.0,0.0,0.0
1249,55.0,120.0,120.0,0.0,0.0
1250,79.0,0.0,120.0,0.0,0.0
1251,84.0,120.0,120.0,0.0,0.0
1252,52.0,0.0,120.0,0.0,0.0
1253,55.0,0.0,120.0,0.0,0.0
1254,79.0,120.0,120.0,0.0,0.0
1255,53.0,120.0,120.0,0.0,0.0
1256,83.0,0.0,120.0,0.0,0.0
1257,79.0,120.0,120.0,0.0,0.0
1258,55.0,0.0,120.0,0.0,0.0
1259,84.0,120.0,120.0,0.0,0.0
1260,52.0,0.0,120.0,0.0,0.0
1261,79.0,120.0,120.0,0.0,0.0
1262,55.0,0.0,120.0,0.0,0.0
1263,83.0,0.0,120.0,0.0,0.0
1264,53.0,120.0,120.0,0.0,0.0
1265,79.0,0.0,120.0,0.0,0.0
1266,55.0,120.0,120.0,0.0,0.0
1267,52.0,0.0,120.0,0.0,0.0
1268,84.0,120.0,120.0,0.0,0.0
1269,79.0,0.0,120.0,0.0,0.0
1270,55.0,120.0,120.0,0.0,0.0
1271,83.0,120.0,120.0,0.0,0.0
1272,53.0,0.0,120.0,0.0,0.0
1273,55.0,120.0,120.0,0.0,0.0
1274,79.0,0.0,120.0,0.0,0.0
1275,52.0,120.0,120.0,0.0,0.0
1276,84.0,0.0,120.0,0.0,0.0
1277,55.0,0.0,120.0,0.0,0.0
1278,79.0,120.0,120.0,0.0,0.0
1279,82.0,120.0,120.0,0.0,0.0
1280,40.0,0.0,120.0,0.0,0.0
1281,48.0,120.0,120.0,0.0,0.0
1282,79.0,0.0,120.0,0.0,0.0
1283,82.0,120.0,120.0,0.0,0.0
1284,40.0,0.0,120.0,0.0,0.0
1285,48.0,120.0,120.0,0.0,0.0
1286,79.0,0.0,120.0,0.0,0.0
1287,40.0,120.0,120.0,0.0,0.0
1288,82.0,0.0,120.0,0.0,0.0
1289,79.0,120.0,120.0,0.0,0.0
1290,48.0,0.0,120.0,0.0,0.0
1291,40.0,120.0,120.0,0.0,0.0
1292,82.0,0.0,120.0,0.0,0.0
1293,79.0,120.0,120.0,0.0,0.0
1294,48.0,0.0,120.0,0.0,0.0
1295,40.0,0.0,120.0,0.0,0.0
1296,82.0,120.0,120.0,0.0,0.0
1297,79.0,120.0,120.0,0.0,0.0
1298,48.0,0.0,120.0,0.0,0.0
1299,40.0,0.0,120.0,0.0,0.0
1300,82.0,120.0,120.0,0.0,0.0
1301,48.0,0.0,120.0,0.0,0.0
1302,79.0,120.0,120.0,0.0,0.0
1303,82.0,0.0,120.0,0.0,0.0
1304,40.0,120.0,120.0,0.0,0.0
1305,79.0,120.0,120.0,0.0,0.0
1306,48.0,0.0,120.0,0.0,0.0
1307,82.0,0.0,240.0,0.0,0.0
1308,40.0,120.0,120.0,0.0,0.0
1309,48.0,120.0,120.0,0.0,0.0
1310,40.0,120.0,120.0,0.0,0.0
1311,81.0,0.0,120.0,0.0,0.0
1312,79.0,120.0,120.0,0.0,0.0
1313,48.0,0.0,120.0,0.0,0.0
1314,40.0,120.0,120.0,0.0,0.0
1315,77.0,0.0,120.0,0.0,0.0
1316,76.0,120.0,120.0,0.0,0.0
1317,48.0,0.0,120.0,0.0,0.0
1318,40.0,120.0,120.0,0.0,0.0
1319,74.0,0.0,120.0,0.0,0.0
1320,72.0,0.0,120.0,0.0,0.0
1321,48.0,120.0,120.0,0.0,0.0
1322,70.0,0.0,120.0,0.0,0.0
1323,40.0,120.0,120.0,0.0,0.0
1324,48.0,0.0,120.0,0.0,0.0
1325,69.0,120.0,120.0,0.0,0.0
1326,40.0,0.0,120.0,0.0,0.0
1327,67.0,120.0,120.0,0.0,0.0
1328,48.0,120.0,120.0,0.0,0.0
1329,65.0,0.0,120.0,0.0,0.0
1330,40.0,120.0,120.0,0.0,0.0
1331,64.0,0.0,120.0,0.0,0.0
1332,48.0,120.0,120.0,0.0,0.0
1333,62.0,0.0,120.0,0.0,0.0
1334,60.0,120.0,120.0,0.0,0.0
1335,40.0,0.0,120.0,0.0,0.0
1336,48.0,0.0,120.0,0.0,0.0
1337,58.0,120.0,120.0,0.0,0.0
1338,57.0,60.0,120.0,0.0,0.0
1339,41.0,0.0,180.0,0.0,0.0
1340,45.0,0.0,180.0,0.0,0.0
1341,48.0,60.0,180.0,0.0,0.0
1342,59.0,120.0,120.0,0.0,0.0
1343,60.0,60.0,120.0,0.0,0.0
1344,45.0,0.0,180.0,0.0,0.0
1345,41.0,0.0,180.0,0.0,0.0
1346,48.0,60.0,180.0,0.0,0.0
1347,59.0,120.0,120.0,0.0,0.0
1348,60.0,120.0,120.0,0.0,0.0
1349,64.0,120.0,120.0,0.0,0.0
1350,41.0,0.0,180.0,0.0,0.0
1351,48.0,60.0,180.0,0.0,0.0
1352,65.0,60.0,120.0,0.0,0.0
1353,45.0,0.0,180.0,0.0,0.0
1354,64.0,120.0,120.0,0.0,0.0
1355,41.0,0.0,180.0,0.0,0.0
1356,45.0,0.0,180.0,0.0,0.0
1357,48.0,60.0,180.0,0.0,0.0
1358,65.0,60.0,120.0,0.0,0.0
1359,68.0,120.0,120.0,0.0,0.0
1360,48.0,60.0,180.0,0.0,0.0
1361,45.0,0.0,180.0,0.0,0.0
1362,41.0,0.0,180.0,0.0,0.0
1363,69.0,60.0,120.0,0.0,0.0
1364,68.0,120.0,120.0,0.0,0.0
1365,69.0,120.0,120.0,0.0,0.0
1366,71.0,120.0,120.0,0.0,0.0
1367,41.0,60.0,180.0,0.0,0.0
1368,45.0,0.0,180.0,0.0,0.0
1369,72.0,60.0,120.0,0.0,0.0
1370,48.0,0.0,180.0,0.0,0.0
1371,71.0,120.0,120.0,0.0,0.0
1372,41.0,60.0,180.0,0.0,0.0
1373,45.0,0.0,180.0,0.0,0.0
1374,48.0,0.0,180.0,0.0,0.0
1375,72.0,60.0,120.0,0.0,0.0
1376,76.0,120.0,120.0,0.0,0.0
1377,48.0,0.0,180.0,0.0,0.0
1378,77.0,60.0,120.0,0.0,0.0
1379,45.0,0.0,180.0,0.0,0.0
1380,41.0,60.0,180.0,0.0,0.0
1381,76.0,120.0,120.0,0.0,0.0
1382,77.0,120.0,120.0,0.0,0.0
1383,80.0,120.0,120.0,0.0,0.0
1384,45.0,0.0,180.0,0.0,0.0
1385,41.0,0.0,180.0,0.0,0.0
1386,48.0,60.0,180.0,0.0,0.0
1387,81.0,60.0,120.0,0.0,0.0
1388,80.0,120.0,120.0,0.0,0.0
1389,81.0,60.0,120.0,0.0,0.0
1390,41.0,60.0,180.0,0.0,0.0
1391,45.0,0.0,180.0,0.0,0.0
1392,48.0,0.0,180.0,0.0,0.0
1393,83.0,120.0,120.0,0.0,0.0
1394,48.0,0.0,180.0,0.0,0.0
1395,45.0,0.0,180.0,0.0,0.0
1396,41.0,60.0,180.0,0.0,0.0
1397,84.0,60.0,120.0,0.0,0.0
1398,83.0,120.0,120.0,0.0,0.0
1399,84.0,120.0,120.0,0.0,0.0
1400,83.0,120.0,120.0,0.0,0.0
1401,41.0,0.0,180.0,0.0,0.0
1402,45.0,0.0,180.0,0.0,0.0
1403,48.0,60.0,180.0,0.0,0.0
1404,81.0,60.0,120.0,0.0,0.0
1405,80.0,120.0,120.0,0.0,0.0
1406,81.0,60.0,120.0,0.0,0.0
1407,45.0,0.0,180.0,0.0,0.0
1408,42.0,0.0,180.0,0.0,0.0
1409,50.0,60.0,180.0,0.0,0.0
1410,48.0,0.0,180.0,0.0,0.0
1411,80.0,120.0,120.0,0.0,0.0
1412,48.0,0.0,180.0,0.0,0.0
1413,42.0,0.0,180.0,0.0,0.0
1414,50.0,0.0,180.0,0.0,0.0
1415,81.0,60.0,120.0,0.0,0.0
1416,45.0,60.0,180.0,0.0,0.0
1417,83.0,120.0,120.0,0.0,0.0
1418,84.0,120.0,120.0,0.0,0.0
1419,83.0,120.0,120.0,0.0,0.0
1420,81.0,60.0,120.0,0.0,0.0
1421,48.0,0.0,180.0,0.0,0.0
1422,50.0,0.0,180.0,0.0,0.0
1423,42.0,60.0,180.0,0.0,0.0
1424,45.0,0.0,180.0,0.0,0.0
1425,80.0,120.0,120.0,0.0,0.0
1426,45.0,0.0,180.0,0.0,0.0
1427,50.0,0.0,180.0,0.0,0.0
1428,81.0,60.0,120.0,0.0,0.0
1429,48.0,0.0,180.0,0.0,0.0
1430,42.0,60.0,180.0,0.0,0.0
1431,80.0,120.0,120.0,0.0,0.0
1432,48.0,0.0,180.0,0.0,0.0
1433,42.0,0.0,180.0,0.0,0.0
1434,45.0,0.0,180.0,0.0,0.0
1435,50.0,60.0,180.0,0.0,0.0
1436,81.0,60.0,120.0,0.0,0.0
1437,83.0,120.0,120.0,0.0,0.0
1438,84.0,120.0,120.0,0.0,0.0
1439,83.0,120.0,120.0,0.0,0.0
1440,42.0,0.0,180.0,0.0,0.0
1441,48.0,0.0,180.0,0.0,0.0
1442,45.0,0.0,180.0,0.0,0.0
1443,50.0,60.0,180.0,0.0,0.0
1444,81.0,60.0,120.0,0.0,0.0
1445,80.0,120.0,120.0,0.0,0.0
1446,50.0,60.0,180.0,0.0,0.0
1447,45.0,0.0,180.0,0.0,0.0
1448,42.0,0.0,180.0,0.0,0.0
1449,48.0,0.0,180.0,0.0,0.0
1450,81.0,60.0,120.0,0.0,0.0
1451,80.0,120.0,120.0,0.0,0.0
1452,81.0,60.0,120.0,0.0,0.0
1453,50.0,60.0,180.0,0.0,0.0
1454,45.0,0.0,180.0,0.0,0.0
1455,42.0,0.0,180.0,0.0,0.0
1456,48.0,0.0,180.0,0.0,0.0
1457,83.0,120.0,120.0,0.0,0.0
1458,84.0,120.0,120.0,0.0,0.0
1459,83.0,120.0,120.0,0.0,0.0
1460,81.0,60.0,120.0,0.0,0.0
1461,48.0,0.0,180.0,0.0,0.0
1462,42.0,60.0,180.0,0.0,0.0
1463,45.0,0.0,180.0,0.0,0.0
1464,50.0,0.0,180.0,0.0,0.0
1465,80.0,120.0,120.0,0.0,0.0
1466,48.0,0.0,180.0,0.0,0.0
1467,42.0,0.0,180.0,0.0,0.0
1468,50.0,60.0,180.0,0.0,0.0
1469,81.0,60.0,120.0,0.0,0.0
1470,45.0,0.0,180.0,0.0,0.0
1471,80.0,120.0,120.0,0.0,0.0
1472,50.0,0.0,180.0,0.0,0.0
1473,45.0,60.0,180.0,0.0,0.0
1474,42.0,0.0,180.0,0.0,0.0
1475,81.0,60.0,120.0,0.0,0.0
1476,48.0,0.0,180.0,0.0,0.0
1477,83.0,120.0,120.0,0.0,0.0
1478,84.0,120.0,120.0,0.0,0.0
1479,83.0,120.0,120.0,0.0,0.0
1480,48.0,0.0,180.0,0.0,0.0
1481,42.0,0.0,180.0,0.0,0.0
1482,84.0,60.0,120.0,0.0,0.0
1483,50.0,60.0,180.0,0.0,0.0
1484,45.0,0.0,180.0,0.0,0.0
1485,81.0,120.0,120.0,0.0,0.0
1486,67.0,120.0,120.0,0.0,0.0
1487,43.0,0.0,120.0,0.0,0.0
1488,79.0,0.0,120.0,0.0,0.0
1489,48.0,120.0,120.0,0.0,0.0
1490,52.0,0.0,120.0,0.0,0.0
1491,67.0,120.0,120.0,0.0,0.0
1492,79.0,0.0,120.0,0.0,0.0
1493,55.0,120.0,120.0,0.0,0.0
1494,43.0,0.0,120.0,0.0,0.0
1495,64.0,0.0,120.0,0.0,0.0
1496,76.0,120.0,120.0,0.0,0.0
1497,48.0,120.0,120.0,0.0,0.0
1498,52.0,0.0,120.0,0.0,0.0
1499,60.0,120.0,120.0,0.0,0.0
1500,72.0,0.0,120.0,0.0,0.0
1501,55.0,120.0,120.0,0.0,0.0
1502,43.0,0.0,120.0,0.0,0.0
1503,72.0,0.0,120.0,0.0,0.0
1504,84.0,120.0,120.0,0.0,0.0
1505,48.0,120.0,120.0,0.0,0.0
1506,72.0,0.0,120.0,0.0,0.0
1507,84.0,0.0,120.0,0.0,0.0
1508,52.0,120.0,120.0,0.0,0.0
1509,55.0,120.0,120.0,0.0,0.0
1510,67.0,0.0,120.0,0.0,0.0
1511,79.0,0.0,120.0,0.0,0.0
1512,43.0,120.0,120.0,0.0,0.0
1513,48.0,120.0,120.0,0.0,0.0
1514,52.0,0.0,120.0,0.0,0.0
1515,76.0,0.0,120.0,0.0,0.0
1516,64.0,120.0,120.0,0.0,0.0
1517,55.0,120.0,120.0,0.0,0.0
1518,79.0,0.0,120.0,0.0,0.0
1519,67.0,0.0,120.0,0.0,0.0
1520,43.0,120.0,120.0,0.0,0.0
1521,48.0,120.0,120.0,0.0,0.0
1522,52.0,120.0,120.0,0.0,0.0
1523,79.0,0.0,120.0,0.0,0.0
1524,67.0,0.0,120.0,0.0,0.0
1525,55.0,120.0,120.0,0.0,0.0
1526,76.0,120.0,120.0,0.0,0.0
1527,64.0,0.0,120.0,0.0,0.0
1528,43.0,0.0,120.0,0.0,0.0
1529,48.0,120.0,120.0,0.0,0.0
1530,60.0,0.0,120.0,0.0,0.0
1531,72.0,0.0,120.0,0.0,0.0
1532,52.0,120.0,120.0,0.0,0.0
1533,55.0,120.0,120.0,0.0,0.0
1534,52.0,0.0,120.0,0.0,0.0
1535,72.0,240.0,120.0,0.0,0.0
1536,84.0,0.0,120.0,0.0,0.0
1537,52.0,0.0,120.0,0.0,0.0
1538,84.0,0.0,120.0,0.0,0.0
1539,72.0,240.0,120.0,0.0,0.0
1540,48.0,0.0,120.0,0.0,0.0
1541,79.0,0.0,120.0,0.0,0.0
1542,67.0,240.0,120.0,0.0,0.0
1543,64.0,0.0,120.0,0.0,0.0
1544,43.0,240.0,120.0,0.0,0.0
1545,76.0,0.0,120.0,0.0,0.0
1546,55.0,120.0,120.0,0.0,0.0
1547,76.0,120.0,120.0,0.0,0.0
1548,52.0,120.0,120.0,0.0,0.0
1549,76.0,120.0,120.0,0.0,0.0
1550,79.0,0.0,15.0,0.0,0.0
1551,60.0,120.0,120.0,0.0,0.0
1552,76.0,0.0,120.0,0.0,0.0
1553,55.0,120.0,120.0,0.0,0.0
1554,79.0,120.0,240.0,0.0,0.0
1555,76.0,0.0,120.0,0.0,0.0
1556,79.0,0.0,240.0,0.0,0.0
1557,64.0,120.0,120.0,0.0,0.0
1558,76.0,120.0,120.0,0.0,0.0
1559,60.0,120.0,120.0,0.0,0.0
1560,79.0,0.0,240.0,0.0,0.0
1561,76.0,120.0,120.0,0.0,0.0
1562,79.0,0.0,240.0,0.0,0.0
1563,67.0,120.0,120.0,0.0,0.0
1564,76.0,120.0,120.0,0.0,0.0
1565,64.0,120.0,120.0,0.0,0.0
1566,76.0,0.0,120.0,0.0,0.0
1567,79.0,120.0,15.0,0.0,0.0
1568,72.0,120.0,120.0,0.0,0.0
1569,76.0,120.0,120.0,0.0,0.0
1570,79.0,120.0,240.0,0.0,0.0
1571,67.0,120.0,120.0,0.0,0.0
1572,76.0,0.0,120.0,0.0,0.0
1573,72.0,120.0,120.0,0.0,0.0
1574,79.0,0.0,240.0,0.0,0.0
1575,76.0,120.0,120.0,0.0,0.0
1576,67.0,120.0,120.0,0.0,0.0
1577,76.0,0.0,120.0,0.0,0.0
1578,72.0,120.0,120.0,0.0,0.0
1579,79.0,120.0,15.0,0.0,0.0
1580,76.0,0.0,120.0,0.0,0.0
1581,67.0,120.0,120.0,0.0,0.0
1582,79.0,120.0,240.0,0.0,0.0
1583,76.0,0.0,120.0,0.0,0.0
1584,72.0,120.0,120.0,0.0,0.0
1585,76.0,120.0,120.0,0.0,0.0
1586,67.0,120.0,120.0,0.0,0.0
1587,79.0,0.0,15.0,0.0,0.0
1588,76.0,0.0,120.0,0.0,0.0
1589,71.0,120.0,120.0,0.0,0.0
1590,77.0,120.0,120.0,0.0,0.0
1591,67.0,120.0,120.0,0.0,0.0
1592,79.0,120.0,240.0,0.0,0.0
1593,77.0,0.0,120.0,0.0,0.0
1594,80.0,120.0,240.0,0.0,0.0
1595,71.0,120.0,120.0,0.0,0.0
1596,77.0,0.0,120.0,0.0,0.0
1597,67.0,120.0,120.0,0.0,0.0
1598,79.0,120.0,240.0,0.0,0.0
1599,77.0,0.0,120.0,0.0,0.0
1600,80.0,0.0,240.0,0.0,0.0
1601,71.0,120.0,120.0,0.0,0.0
1602,77.0,120.0,120.0,0.0,0.0
1603,67.0,120.0,120.0,0.0,0.0
1604,79.0,0.0,240.0,0.0,0.0
1605,77.0,120.0,120.0,0.0,0.0
1606,80.0,0.0,240.0,0.0,0.0
1607,71.0,120.0,120.0,0.0,0.0
1608,77.0,120.0,120.0,0.0,0.0
1609,79.0,120.0,240.0,0.0,0.0
1610,67.0,120.0,120.0,0.0,0.0
1611,77.0,0.0,120.0,0.0,0.0
1612,80.0,0.0,240.0,0.0,0.0
1613,71.0,120.0,120.0,0.0,0.0
1614,77.0,120.0,120.0,0.0,0.0
1615,79.0,120.0,240.0,0.0,0.0
1616,67.0,120.0,120.0,0.0,0.0
1617,77.0,0.0,120.0,0.0,0.0
1618,71.0,120.0,120.0,0.0,0.0
1619,80.0,120.0,240.0,0.0,0.0
1620,77.0,0.0,120.0,0.0,0.0
1621,79.0,120.0,240.0,0.0,0.0
1622,67.0,120.0,120.0,0.0,0.0
1623,77.0,0.0,120.0,0.0,0.0
1624,80.0,120.0,240.0,0.0,0.0
1625,71.0,120.0,120.0,0.0,0.0
1626,77.0,0.0,120.0,0.0,0.0
1627,79.0,120.0,240.0,0.0,0.0
1628,67.0,120.0,120.0,0.0,0.0
1629,77.0,0.0,120.0,0.0,0.0
1630,71.0,120.0,120.0,0.0,0.0
1631,80.0,120.0,240.0,0.0,0.0
1632,77.0,0.0,120.0,0.0,0.0
1633,67.0,120.0,120.0,0.0,0.0
1634,79.0,0.0,240.0,0.0,0.0
1635,77.0,80.0,120.0,0.0,0.0
1636,71.0,80.0,90.0,0.0,0.0
1637,81.0,0.0,240.0,0.0,0.0
1638,72.0,80.0,90.0,0.0,0.0
1639,77.0,0.0,120.0,0.0,0.0
1640,71.0,80.0,90.0,0.0,0.0
1641,79.0,0.0,240.0,0.0,0.0
1642,72.0,80.0,90.0,0.0,0.0
1643,71.0,80.0,90.0,0.0,0.0
1644,77.0,0.0,120.0,0.0,0.0
1645,72.0,80.0,90.0,0.0,0.0
1646,81.0,0.0,240.0,0.0,0.0
1647,71.0,80.0,90.0,0.0,0.0
1648,72.0,80.0,90.0,0.0,0.0
1649,77.0,80.0,120.0,0.0,0.0
1650,71.0,0.0,90.0,0.0,0.0
1651,72.0,80.0,90.0,0.0,0.0
1652,79.0,0.0,240.0,0.0,0.0
1653,71.0,80.0,90.0,0.0,0.0
1654,77.0,80.0,120.0,0.0,0.0
1655,72.0,0.0,90.0,0.0,0.0
1656,71.0,80.0,90.0,0.0,0.0
1657,81.0,80.0,240.0,0.0,0.0
1658,72.0,80.0,90.0,0.0,0.0
1659,77.0,0.0,120.0,0.0,0.0
1660,71.0,0.0,90.0,0.0,0.0
1661,79.0,80.0,240.0,0.0,0.0
1662,72.0,80.0,90.0,0.0,0.0
1663,71.0,80.0,90.0,0.0,0.0
1664,77.0,0.0,120.0,0.0,0.0
1665,72.0,0.0,90.0,0.0,0.0
1666,71.0,80.0,90.0,0.0,0.0
1667,81.0,0.0,240.0,0.0,0.0
1668,72.0,80.0,90.0,0.0,0.0
1669,77.0,0.0,120.0,0.0,0.0
1670,71.0,80.0,90.0,0.0,0.0
1671,79.0,0.0,240.0,0.0,0.0
1672,72.0,80.0,90.0,0.0,0.0
1673,71.0,80.0,90.0,0.0,0.0
1674,77.0,0.0,120.0,0.0,0.0
1675,72.0,80.0,90.0,0.0,0.0
1676,71.0,80.0,90.0,0.0,0.0
1677,72.0,80.0,90.0,0.0,0.0
1678,79.0,0.0,120.0,0.0,0.0
1679,77.0,0.0,120.0,0.0,0.0
1680,71.0,0.0,90.0,0.0,0.0
1681,86.0,80.0,15.0,0.0,0.0
1682,72.0,80.0,90.0,0.0,0.0
1683,71.0,80.0,90.0,0.0,0.0
1684,79.0,0.0,120.0,0.0,0.0
1685,77.0,0.0,120.0,0.0,0.0
1686,72.0,0.0,90.0,0.0,0.0
1687,86.0,80.0,15.0,0.0,0.0
1688,71.0,80.0,90.0,0.0,0.0
1689,72.0,80.0,90.0,0.0,0.0
1690,79.0,0.0,120.0,0.0,0.0
1691,77.0,0.0,120.0,0.0,0.0
1692,71.0,80.0,90.0,0.0,0.0
1693,86.0,0.0,15.0,0.0,0.0
1694,72.0,80.0,90.0,0.0,0.0
1695,71.0,80.0,90.0,0.0,0.0
1696,79.0,0.0,120.0,0.0,0.0
1697,77.0,0.0,120.0,0.0,0.0
1698,72.0,80.0,90.0,0.0,0.0
1699,71.0,80.0,90.0,0.0,0.0
1700,86.0,80.0,240.0,0.0,0.0
1701,72.0,80.0,90.0,0.0,0.0
1702,79.0,0.0,120.0,0.0,0.0
1703,77.0,0.0,120.0,0.0,0.0
1704,71.0,0.0,90.0,0.0,0.0
1705,72.0,80.0,90.0,0.0,0.0
1706,71.0,80.0,90.0,0.0,0.0
1707,77.0,0.0,120.0,0.0,0.0
1708,79.0,0.0,120.0,0.0,0.0
1709,72.0,0.0,90.0,0.0,0.0
1710,71.0,120.0,120.0,0.0,0.0
1711,86.0,120.0,15.0,0.0,0.0
1712,79.0,0.0,120.0,0.0,0.0
1713,77.0,0.0,120.0,0.0,0.0
1714,72.0,0.0,120.0,0.0,0.0
1715,86.0,120.0,15.0,0.0,0.0
1716,69.0,120.0,120.0,0.0,0.0
1717,77.0,0.0,120.0,0.0,0.0
1718,79.0,0.0,120.0,0.0,0.0
1719,71.0,0.0,120.0,0.0,0.0
1720,84.0,0.0,1440.0,0.0,0.0
1721,79.0,0.0,1440.0,0.0,0.0
1722,60.0,0.0,3840.0,0.0,0.0
1723,72.0,480.0,960.0,0.0,0.0
1724,76.0,120.0,1440.0,0.0,0.0
1725,70.0,120.0,960.0,0.0,0.0
1726,64.0,0.0,960.0,0.0,0.0
1727,67.0,0.0,960.0,0.0,0.0
1728,84.0,120.0,120.0,0.0,0.0
1729,82.0,120.0,120.0,0.0,0.0
1730,80.0,120.0,120.0,0.0,0.0
1731,79.0,0.0,120.0,0.0,0.0
1732,68.0,0.0,960.0,0.0,0.0
1733,80.0,120.0,120.0,0.0,0.0
1734,65.0,0.0,960.0,0.0,0.0
1735,79.0,120.0,120.0,0.0,0.0
1736,77.0,120.0,120.0,0.0,0.0
1737,76.0,120.0,120.0,0.0,0.0
1738,77.0,120.0,120.0,0.0,0.0
1739,79.0,120.0,120.0,0.0,0.0
1740,80.0,120.0,120.0,0.0,0.0
1741,82.0,120.0,120.0,0.0,0.0
1742,64.0,0.0,960.0,0.0,0.0
1743,67.0,0.0,960.0,0.0,0.0
1744,70.0,120.0,960.0,0.0,0.0
1745,84.0,120.0,120.0,0.0,0.0
1746,85.0,120.0,120.0,0.0,0.0
1747,84.0,120.0,120.0,0.0,0.0
1748,83.0,120.0,120.0,0.0,0.0
1749,84.0,120.0,120.0,0.0,0.0
1750,82.0,120.0,120.0,0.0,0.0
1751,80.0,120.0,120.0,0.0,0.0
1752,79.0,0.0,120.0,0.0,0.0
1753,65.0,120.0,480.0,0.0,0.0
1754,68.0,0.0,480.0,0.0,0.0
1755,80.0,120.0,120.0,0.0,0.0
1756,82.0,120.0,120.0,0.0,0.0
1757,80.0,120.0,120.0,0.0,0.0
1758,79.0,0.0,120.0,0.0,0.0
1759,77.0,120.0,120.0,0.0,0.0
1760,76.0,120.0,120.0,0.0,0.0
1761,77.0,120.0,120.0,0.0,0.0
1762,79.0,480.0,120.0,0.0,0.0
1763,56.0,480.0,960.0,0.0,0.0
1764,53.0,0.0,960.0,0.0,0.0
1765,65.0,0.0,960.0,0.0,0.0
1766,80.0,240.0,480.0,0.0,0.0
1767,68.0,0.0,960.0,0.0,0.0
1768,62.0,0.0,960.0,0.0,0.0
1769,77.0,240.0,240.0,0.0,0.0
1770,74.0,0.0,240.0,0.0,0.0
1771,63.0,480.0,960.0,0.0,0.0
1772,55.0,0.0,960.0,0.0,0.0
1773,79.0,240.0,480.0,0.0,0.0
1774,67.0,0.0,960.0,0.0,0.0
1775,60.0,0.0,960.0,0.0,0.0
1776,75.0,240.0,240.0,0.0,0.0
1777,72.0,0.0,240.0,0.0,0.0
1778,77.0,240.0,480.0,0.0,0.0
1779,59.0,0.0,960.0,0.0,0.0
1780,65.0,960.0,960.0,0.0,0.0
1781,62.0,0.0,960.0,0.0,0.0
1782,55.0,0.0,960.0,0.0,0.0
1783,74.0,240.0,240.0,0.0,0.0
1784,71.0,0.0,240.0,0.0,0.0
1785,60.0,480.0,960.0,0.0,0.0
1786,48.0,0.0,3840.0,0.0,0.0
1787,55.0,0.0,960.0,0.0,0.0
1788,52.0,0.0,960.0,0.0,0.0
1789,58.0,120.0,960.0,0.0,0.0
1790,72.0,120.0,15.0,0.0,0.0
1791,70.0,120.0,120.0,0.0,0.0
1792,68.0,120.0,120.0,0.0,0.0
1793,67.0,0.0,120.0,0.0,0.0
1794,68.0,120.0,120.0,0.0,0.0
1795,56.0,0.0,960.0,0.0,0.0
1796,53.0,0.0,960.0,0.0,0.0
1797,67.0,120.0,120.0,0.0,0.0
1798,65.0,120.0,120.0,0.0,0.0
1799,64.0,120.0,120.0,0.0,0.0
1800,65.0,120.0,120.0,0.0,0.0
1801,67.0,120.0,120.0,0.0,0.0
1802,68.0,120.0,120.0,0.0,0.0
1803,70.0,120.0,120.0,0.0,0.0
1804,72.0,120.0,120.0,0.0,0.0
1805,52.0,0.0,960.0,0.0,0.0
1806,55.0,0.0,960.0,0.0,0.0
1807,58.0,0.0,960.0,0.0,0.0
1808,73.0,120.0,120.0,0.0,0.0
1809,72.0,120.0,120.0,0.0,0.0
1810,71.0,120.0,120.0,0.0,0.0
1811,72.0,120.0,120.0,0.0,0.0
1812,70.0,120.0,120.0,0.0,0.0
1813,68.0,120.0,120.0,0.0,0.0
1814,67.0,120.0,120.0,0.0,0.0
1815,68.0,120.0,120.0,0.0,0.0
1816,56.0,0.0,480.0,0.0,0.0
1817,53.0,120.0,480.0,0.0,0.0
1818,70.0,120.0,120.0,0.0,0.0
1819,68.0,120.0,120.0,0.0,0.0
1820,67.0,0.0,120.0,0.0,0.0
1821,65.0,120.0,120.0,0.0,0.0
1822,64.0,120.0,120.0,0.0,0.0
1823,65.0,120.0,120.0,0.0,0.0
1824,67.0,480.0,120.0,0.0,0.0
1825,50.0,0.0,960.0,0.0,0.0
1826,68.0,240.0,480.0,0.0,0.0
1827,56.0,0.0,960.0,0.0,0.0
1828,41.0,0.0,960.0,0.0,0.0
1829,44.0,0.0,960.0,0.0,0.0
1830,53.0,480.0,960.0,0.0,0.0
1831,65.0,240.0,240.0,0.0,0.0
1832,62.0,0.0,240.0,0.0,0.0
1833,55.0,480.0,960.0,0.0,0.0
1834,51.0,0.0,960.0,0.0,0.0
1835,48.0,0.0,960.0,0.0,0.0
1836,67.0,240.0,480.0,0.0,0.0
1837,63.0,240.0,240.0,0.0,0.0
1838,60.0,0.0,240.0,0.0,0.0
1839,43.0,0.0,15.0,0.0,0.0
1840,47.0,0.0,960.0,0.0,0.0
1841,50.0,240.0,960.0,0.0,0.0
1842,53.0,0.0,960.0,0.0,0.0
1843,65.0,240.0,480.0,0.0,0.0
1844,62.0,240.0,240.0,0.0,0.0
1845,59.0,0.0,240.0,0.0,0.0
1846,60.0,240.0,240.0,0.0,0.0
1847,51.0,240.0,480.0,0.0,0.0
1848,48.0,0.0,15.0,0.0,0.0
1849,39.0,240.0,480.0,0.0,0.0
1850,72.0,240.0,240.0,0.0,0.0
1851,70.0,0.0,240.0,0.0,0.0
1852,68.0,240.0,480.0,0.0,0.0
1853,41.0,0.0,960.0,0.0,0.0
1854,49.0,0.0,240.0,0.0,0.0
1855,51.0,0.0,240.0,0.0,0.0
1856,65.0,240.0,240.0,0.0,0.0
1857,61.0,480.0,240.0,0.0,0.0
1858,53.0,0.0,240.0,0.0,0.0
1859,51.0,480.0,960.0,0.0,0.0
1860,43.0,0.0,1920.0,0.0,0.0
1861,55.0,0.0,960.0,0.0,0.0
1862,67.0,240.0,480.0,0.0,0.0
1863,63.0,240.0,240.0,0.0,0.0
1864,60.0,0.0,240.0,0.0,0.0
1865,65.0,240.0,480.0,0.0,0.0
1866,53.0,240.0,960.0,0.0,0.0
1867,50.0,0.0,960.0,0.0,0.0
1868,62.0,240.0,240.0,0.0,0.0
1869,59.0,0.0,240.0,0.0,0.0
1870,60.0,240.0,240.0,0.0,0.0
1871,51.0,240.0,480.0,0.0,0.0
1872,48.0,0.0,480.0,0.0,0.0
1873,44.0,0.0,480.0,0.0,0.0
1874,68.0,240.0,240.0,0.0,0.0
1875,44.0,240.0,720.0,0.0,0.0
1876,36.0,240.0,480.0,0.0,0.0
1877,67.0,0.0,240.0,0.0,0.0
1878,65.0,240.0,480.0,0.0,0.0
1879,37.0,0.0,960.0,0.0,0.0
1880,46.0,0.0,240.0,0.0,0.0
1881,61.0,240.0,240.0,0.0,0.0
1882,48.0,0.0,240.0,0.0,0.0
1883,49.0,0.0,240.0,0.0,0.0
1884,58.0,480.0,240.0,0.0,0.0
1885,51.0,0.0,960.0,0.0,0.0
1886,48.0,480.0,960.0,0.0,0.0
1887,39.0,180.0,1920.0,0.0,0.0
1888,63.0,240.0,480.0,0.0,0.0
1889,60.0,240.0,240.0,0.0,0.0
1890,56.0,0.0,240.0,0.0,0.0
1891,46.0,0.0,960.0,0.0,0.0
1892,61.0,240.0,480.0,0.0,0.0
1893,49.0,0.0,960.0,0.0,0.0
1894,58.0,240.0,240.0,0.0,0.0
1895,55.0,0.0,240.0,0.0,0.0
1896,56.0,180.0,240.0,0.0,0.0
1897,44.0,60.0,180.0,0.0,0.0
1898,48.0,0.0,180.0,0.0,0.0
1899,32.0,0.0,180.0,0.0,0.0
1900,44.0,0.0,180.0,0.0,0.0
1901,48.0,240.0,180.0,0.0,0.0
1902,39.0,0.0,180.0,0.0,0.0
1903,32.0,0.0,180.0,0.0,0.0
1904,48.0,240.0,180.0,0.0,0.0
1905,32.0,0.0,180.0,0.0,0.0
1906,39.0,0.0,180.0,0.0,0.0
1907,44.0,0.0,180.0,0.0,0.0
1908,32.0,0.0,180.0,0.0,0.0
1909,39.0,0.0,180.0,0.0,0.0
1910,48.0,240.0,180.0,0.0,0.0
1911,44.0,0.0,180.0,0.0,0.0
1912,32.0,0.0,180.0,0.0,0.0
1913,39.0,240.0,180.0,0.0,0.0
1914,48.0,0.0,180.0,0.0,0.0
1915,44.0,0.0,180.0,0.0,0.0
1916,39.0,0.0,180.0,0.0,0.0
1917,44.0,0.0,180.0,0.0,0.0
1918,48.0,240.0,180.0,0.0,0.0
1919,32.0,0.0,180.0,0.0,0.0
1920,44.0,240.0,180.0,0.0,0.0
1921,39.0,0.0,180.0,0.0,0.0
1922,32.0,0.0,180.0,0.0,0.0
1923,48.0,0.0,180.0,0.0,0.0
1924,32.0,0.0,180.0,0.0,0.0
1925,39.0,0.0,180.0,0.0,0.0
1926,44.0,240.0,180.0,0.0,0.0
1927,48.0,0.0,180.0,0.0,0.0
1928,48.0,0.0,180.0,0.0,0.0
1929,44.0,0.0,180.0,0.0,0.0
1930,39.0,240.0,180.0,0.0,0.0
1931,32.0,0.0,180.0,0.0,0.0
1932,44.0,240.0,180.0,0.0,0.0
1933,48.0,0.0,180.0,0.0,0.0
1934,32.0,0.0,180.0,0.0,0.0
1935,39.0,0.0,180.0,0.0,0.0
1936,44.0,0.0,180.0,0.0,0.0
1937,48.0,0.0,180.0,0.0,0.0
1938,39.0,0.0,180.0,0.0,0.0
1939,32.0,240.0,180.0,0.0,0.0
1940,32.0,0.0,180.0,0.0,0.0
1941,39.0,240.0,180.0,0.0,0.0
1942,48.0,0.0,180.0,0.0,0.0
1943,44.0,0.0,180.0,0.0,0.0
1944,48.0,0.0,180.0,0.0,0.0
1945,44.0,0.0,180.0,0.0,0.0
1946,39.0,240.0,180.0,0.0,0.0
1947,32.0,0.0,180.0,0.0,0.0
1948,39.0,240.0,180.0,0.0,0.0
1949,44.0,0.0,180.0,0.0,0.0
1950,32.0,0.0,180.0,0.0,0.0
1951,48.0,0.0,180.0,0.0,0.0
1952,41.0,0.0,180.0,0.0,0.0
1953,46.0,0.0,180.0,0.0,0.0
1954,50.0,240.0,180.0,0.0,0.0
1955,32.0,0.0,180.0,0.0,0.0
1956,50.0,0.0,180.0,0.0,0.0
1957,32.0,240.0,180.0,0.0,0.0
1958,41.0,0.0,180.0,0.0,0.0
1959,46.0,0.0,180.0,0.0,0.0
1960,31.0,0.0,180.0,0.0,0.0
1961,39.0,240.0,180.0,0.0,0.0
1962,46.0,120.0,720.0,0.0,0.0
1963,51.0,0.0,720.0,0.0,0.0
1964,31.0,0.0,180.0,0.0,0.0
1965,39.0,240.0,180.0,0.0,0.0
1966,39.0,0.0,180.0,0.0,0.0
1967,31.0,60.0,180.0,0.0,0.0
1968,55.0,60.0,120.0,0.0,0.0
1969,31.0,60.0,180.0,0.0,0.0
1970,39.0,0.0,180.0,0.0,0.0
1971,53.0,120.0,120.0,0.0,0.0
1972,51.0,60.0,120.0,0.0,0.0
1973,39.0,240.0,180.0,0.0,0.0
1974,31.0,0.0,180.0,0.0,0.0
1975,31.0,240.0,180.0,0.0,0.0
1976,39.0,0.0,180.0,0.0,0.0
1977,31.0,240.0,180.0,0.0,0.0
1978,39.0,0.0,180.0,0.0,0.0
1979,31.0,0.0,180.0,0.0,0.0
1980,39.0,60.0,180.0,0.0,0.0
1981,81.0,180.0,60.0,0.0,0.0
1982,39.0,0.0,180.0,0.0,0.0
1983,31.0,240.0,180.0,0.0,0.0
1984,82.0,60.0,600.0,0.0,0.0
1985,31.0,180.0,180.0,0.0,0.0
1986,39.0,0.0,180.0,0.0,0.0
1987,39.0,60.0,180.0,0.0,0.0
1988,31.0,0.0,180.0,0.0,0.0
1989,80.0,120.0,120.0,0.0,0.0
1990,39.0,60.0,180.0,0.0,0.0
1991,31.0,0.0,180.0,0.0,0.0
1992,79.0,60.0,120.0,0.0,0.0
1993,77.0,180.0,120.0,0.0,0.0
1994,75.0,180.0,240.0,0.0,0.0
1995,31.0,60.0,180.0,0.0,0.0
1996,39.0,0.0,180.0,0.0,0.0
1997,31.0,240.0,180.0,0.0,0.0
1998,39.0,0.0,180.0,0.0,0.0
1999,39.0,240.0,180.0,0.0,0.0
2000,31.0,0.0,180.0,0.0,0.0
2001,39.0,240.0,180.0,0.0,0.0
2002,31.0,0.0,180.0,0.0,0.0
2003,46.0,0.0,180.0,0.0,0.0
2004,42.0,0.0,180.0,0.0,0.0
2005,30.0,240.0,180.0,0.0,0.0
2006,37.0,0.0,180.0,0.0,0.0
2007,30.0,0.0,180.0,0.0,0.0
2008,37.0,240.0,180.0,0.0,0.0
2009,46.0,0.0,180.0,0.0,0.0
2010,42.0,0.0,180.0,0.0,0.0
2011,42.0,0.0,180.0,0.0,0.0
2012,46.0,0.0,180.0,0.0,0.0
2013,37.0,0.0,180.0,0.0,0.0
2014,30.0,240.0,180.0,0.0,0.0
2015,42.0,240.0,180.0,0.0,0.0
2016,46.0,0.0,180.0,0.0,0.0
2017,37.0,0.0,180.0,0.0,0.0
2018,30.0,0.0,180.0,0.0,0.0
2019,30.0,0.0,180.0,0.0,0.0
2020,37.0,0.0,180.0,0.0,0.0
2021,42.0,240.0,180.0,0.0,0.0
2022,46.0,0.0,180.0,0.0,0.0
2023,37.0,0.0,180.0,0.0,0.0
2024,30.0,0.0,180.0,0.0,0.0
2025,42.0,240.0,180.0,0.0,0.0
2026,46.0,0.0,180.0,0.0,0.0
2027,30.0,0.0,180.0,0.0,0.0
2028,37.0,0.0,180.0,0.0,0.0
2029,42.0,240.0,180.0,0.0,0.0
2030,46.0,0.0,180.0,0.0,0.0
2031,42.0,0.0,180.0,0.0,0.0
2032,37.0,0.0,180.0,0.0,0.0
2033,30.0,240.0,180.0,0.0,0.0
2034,46.0,0.0,180.0,0.0,0.0
2035,30.0,0.0,180.0,0.0,0.0
2036,37.0,0.0,180.0,0.0,0.0
2037,46.0,240.0,180.0,0.0,0.0
2038,42.0,0.0,180.0,0.0,0.0
2039,46.0,0.0,180.0,0.0,0.0
2040,42.0,0.0,180.0,0.0,0.0
2041,37.0,240.0,180.0,0.0,0.0
2042,30.0,0.0,180.0,0.0,0.0
2043,46.0,240.0,180.0,0.0,0.0
2044,42.0,0.0,180.0,0.0,0.0
2045,37.0,0.0,180.0,0.0,0.0
2046,30.0,0.0,180.0,0.0,0.0
2047,46.0,0.0,180.0,0.0,0.0
2048,37.0,0.0,180.0,0.0,0.0
2049,42.0,240.0,180.0,0.0,0.0
2050,30.0,0.0,180.0,0.0,0.0
2051,30.0,0.0,180.0,0.0,0.0
2052,42.0,0.0,180.0,0.0,0.0
2053,46.0,240.0,180.0,0.0,0.0
2054,37.0,0.0,180.0,0.0,0.0
2055,30.0,0.0,180.0,0.0,0.0
2056,46.0,240.0,180.0,0.0,0.0
2057,42.0,0.0,180.0,0.0,0.0
2058,37.0,0.0,180.0,0.0,0.0
2059,30.0,240.0,180.0,0.0,0.0
2060,48.0,0.0,180.0,0.0,0.0
2061,39.0,0.0,180.0,0.0,0.0
2062,44.0,0.0,180.0,0.0,0.0
2063,48.0,0.0,180.0,0.0,0.0
2064,39.0,0.0,180.0,0.0,0.0
2065,44.0,240.0,180.0,0.0,0.0
2066,30.0,0.0,180.0,0.0,0.0
2067,49.0,120.0,720.0,0.0,0.0
2068,37.0,0.0,180.0,0.0,0.0
2069,44.0,0.0,720.0,0.0,0.0
2070,29.0,240.0,180.0,0.0,0.0
2071,29.0,240.0,180.0,0.0,0.0
2072,37.0,0.0,180.0,0.0,0.0
2073,37.0,60.0,180.0,0.0,0.0
2074,29.0,0.0,180.0,0.0,0.0
2075,37.0,60.0,180.0,0.0,0.0
2076,53.0,60.0,120.0,0.0,0.0
2077,29.0,0.0,180.0,0.0,0.0
2078,51.0,120.0,120.0,0.0,0.0
2079,49.0,60.0,120.0,0.0,0.0
2080,29.0,240.0,180.0,0.0,0.0
2081,37.0,0.0,180.0,0.0,0.0
2082,29.0,240.0,180.0,0.0,0.0
2083,37.0,0.0,180.0,0.0,0.0
2084,29.0,0.0,180.0,0.0,0.0
2085,37.0,240.0,180.0,0.0,0.0
2086,29.0,60.0,180.0,0.0,0.0
2087,37.0,0.0,180.0,0.0,0.0
2088,79.0,180.0,60.0,0.0,0.0
2089,28.0,240.0,180.0,0.0,0.0
2090,80.0,60.0,600.0,0.0,0.0
2091,37.0,0.0,180.0,0.0,0.0
2092,28.0,180.0,180.0,0.0,0.0
2093,37.0,0.0,180.0,0.0,0.0
2094,28.0,60.0,180.0,0.0,0.0
2095,37.0,0.0,180.0,0.0,0.0
2096,78.0,120.0,120.0,0.0,0.0
2097,76.0,60.0,120.0,0.0,0.0
2098,37.0,60.0,180.0,0.0,0.0
2099,28.0,0.0,180.0,0.0,0.0
2100,75.0,180.0,120.0,0.0,0.0
2101,37.0,0.0,180.0,0.0,0.0
2102,28.0,60.0,180.0,0.0,0.0
2103,73.0,180.0,240.0,0.0,0.0
2104,28.0,0.0,180.0,0.0,0.0
2105,37.0,240.0,180.0,0.0,0.0
2106,28.0,240.0,180.0,0.0,0.0
2107,37.0,0.0,180.0,0.0,0.0
2108,28.0,60.0,180.0,0.0,0.0
2109,37.0,0.0,180.0,0.0,0.0
2110,84.0,180.0,60.0,0.0,0.0
2111,27.0,0.0,180.0,0.0,0.0
2112,37.0,240.0,180.0,0.0,0.0
2113,85.0,120.0,1440.0,0.0,0.0
2114,27.0,240.0,180.0,0.0,0.0
2115,37.0,0.0,180.0,0.0,0.0
2116,27.0,240.0,180.0,0.0,0.0
2117,37.0,0.0,180.0,0.0,0.0
2118,27.0,0.0,180.0,0.0,0.0
2119,37.0,240.0,180.0,0.0,0.0
2120,37.0,0.0,180.0,0.0,0.0
2121,27.0,240.0,180.0,0.0,0.0
2122,27.0,60.0,180.0,0.0,0.0
2123,37.0,0.0,180.0,0.0,0.0
2124,37.0,0.0,180.0,0.0,0.0
2125,85.0,60.0,120.0,0.0,0.0
2126,28.0,60.0,180.0,0.0,0.0
2127,83.0,120.0,120.0,0.0,0.0
2128,82.0,60.0,120.0,0.0,0.0
2129,28.0,60.0,180.0,0.0,0.0
2130,37.0,0.0,180.0,0.0,0.0
2131,80.0,120.0,120.0,0.0,0.0
2132,27.0,60.0,180.0,0.0,0.0
2133,79.0,60.0,120.0,0.0,0.0
2134,37.0,0.0,180.0,0.0,0.0
2135,80.0,120.0,120.0,0.0,0.0
2136,82.0,60.0,120.0,0.0,0.0
2137,27.0,0.0,180.0,0.0,0.0
2138,37.0,60.0,180.0,0.0,0.0
2139,83.0,120.0,120.0,0.0,0.0
2140,37.0,0.0,180.0,0.0,0.0
2141,28.0,60.0,180.0,0.0,0.0
2142,85.0,60.0,120.0,0.0,0.0
2143,83.0,120.0,120.0,0.0,0.0
2144,82.0,60.0,120.0,0.0,0.0
2145,28.0,60.0,180.0,0.0,0.0
2146,37.0,0.0,180.0,0.0,0.0
2147,80.0,120.0,120.0,0.0,0.0
2148,37.0,60.0,180.0,0.0,0.0
2149,79.0,60.0,120.0,0.0,0.0
2150,27.0,0.0,180.0,0.0,0.0
2151,80.0,120.0,120.0,0.0,0.0
2152,37.0,60.0,180.0,0.0,0.0
2153,27.0,0.0,180.0,0.0,0.0
2154,82.0,60.0,120.0,0.0,0.0
2155,83.0,120.0,120.0,0.0,0.0
2156,85.0,60.0,120.0,0.0,0.0
2157,37.0,60.0,180.0,0.0,0.0
2158,28.0,0.0,180.0,0.0,0.0
2159,83.0,120.0,120.0,0.0,0.0
2160,28.0,0.0,180.0,0.0,0.0
2161,82.0,60.0,120.0,0.0,0.0
2162,37.0,60.0,180.0,0.0,0.0
2163,80.0,120.0,120.0,0.0,0.0
2164,27.0,0.0,480.0,0.0,0.0
2165,37.0,0.0,480.0,0.0,0.0
2166,79.0,120.0,120.0,0.0,0.0
2167,80.0,120.0,120.0,0.0,0.0
2168,82.0,120.0,120.0,0.0,0.0
2169,83.0,120.0,120.0,0.0,0.0
2170,51.0,0.0,1200.0,0.0,0.0
2171,39.0,0.0,1200.0,0.0,0.0
2172,85.0,120.0,120.0,0.0,0.0
2173,83.0,120.0,120.0,0.0,0.0
2174,82.0,120.0,120.0,0.0,0.0
2175,80.0,120.0,120.0,0.0,0.0
2176,79.0,120.0,120.0,0.0,0.0
2177,76.0,120.0,120.0,0.0,0.0
2178,75.0,120.0,120.0,0.0,0.0
2179,73.0,120.0,120.0,0.0,0.0
2180,71.0,120.0,120.0,0.0,0.0
2181,70.0,120.0,120.0,0.0,0.0
2182,53.0,120.0,120.0,0.0,0.0
2183,68.0,0.0,120.0,0.0,0.0
2184,55.0,180.0,120.0,0.0,0.0
2185,67.0,0.0,120.0,0.0,0.0
2186,56.0,480.0,180.0,0.0,0.0
2187,68.0,0.0,180.0,0.0,0.0
2188,63.0,480.0,180.0,0.0,0.0
2189,39.0,0.0,180.0,0.0,0.0
2190,51.0,0.0,180.0,0.0,0.0
2191,47.0,0.0,180.0,0.0,0.0
2192,59.0,0.0,180.0,0.0,0.0
2193,35.0,480.0,180.0,0.0,0.0
2194,32.0,0.0,180.0,0.0,0.0
2195,44.0,0.0,180.0,0.0,0.0
2196,56.0,2220.0,180.0,0.0,0.0
2197,51.0,180.0,1920.0,0.0,0.0
2198,27.0,0.0,1920.0,0.0,0.0
2199,39.0,0.0,1920.0,0.0,0.0
2200,60.0,60.0,180.0,0.0,0.0
2201,32.0,0.0,1920.0,0.0,0.0
2202,44.0,0.0,240.0,0.0,0.0
2203,56.0,180.0,120.0,0.0,0.0
2204,60.0,60.0,180.0,0.0,0.0
2205,44.0,0.0,240.0,0.0,0.0
2206,51.0,0.0,120.0,0.0,0.0
2207,56.0,180.0,120.0,0.0,0.0
2208,60.0,60.0,180.0,0.0,0.0
2209,51.0,180.0,120.0,0.0,0.0
2210,56.0,0.0,120.0,0.0,0.0
2211,44.0,0.0,15.0,0.0,0.0
2212,60.0,60.0,180.0,0.0,0.0
2213,56.0,0.0,120.0,0.0,0.0
2214,51.0,0.0,120.0,0.0,0.0
2215,44.0,180.0,15.0,0.0,0.0
2216,60.0,60.0,180.0,0.0,0.0
2217,51.0,0.0,120.0,0.0,0.0
2218,56.0,180.0,120.0,0.0,0.0
2219,44.0,0.0,15.0,0.0,0.0
2220,60.0,60.0,180.0,0.0,0.0
2221,51.0,0.0,120.0,0.0,0.0
2222,56.0,180.0,120.0,0.0,0.0
2223,44.0,0.0,15.0,0.0,0.0
2224,60.0,60.0,180.0,0.0,0.0
2225,56.0,0.0,120.0,0.0,0.0
2226,51.0,180.0,120.0,0.0,0.0
2227,60.0,60.0,180.0,0.0,0.0
2228,44.0,0.0,15.0,0.0,0.0
2229,51.0,0.0,120.0,0.0,0.0
2230,56.0,180.0,120.0,0.0,0.0
2231,44.0,0.0,15.0,0.0,0.0
2232,60.0,60.0,180.0,0.0,0.0
2233,51.0,0.0,120.0,0.0,0.0
2234,56.0,180.0,120.0,0.0,0.0
2235,44.0,0.0,15.0,0.0,0.0
2236,60.0,60.0,180.0,0.0,0.0
2237,56.0,0.0,120.0,0.0,0.0
2238,51.0,180.0,120.0,0.0,0.0
2239,44.0,0.0,15.0,0.0,0.0
2240,60.0,60.0,180.0,0.0,0.0
2241,56.0,0.0,120.0,0.0,0.0
2242,51.0,0.0,120.0,0.0,0.0
2243,44.0,180.0,15.0,0.0,0.0
2244,60.0,60.0,180.0,0.0,0.0
2245,56.0,180.0,120.0,0.0,0.0
2246,51.0,0.0,120.0,0.0,0.0
2247,44.0,180.0,240.0,0.0,0.0
2248,60.0,60.0,180.0,0.0,0.0
2249,56.0,0.0,120.0,0.0,0.0
2250,51.0,0.0,120.0,0.0,0.0
2251,60.0,60.0,180.0,0.0,0.0
2252,44.0,0.0,240.0,0.0,0.0
2253,56.0,180.0,120.0,0.0,0.0
2254,51.0,0.0,120.0,0.0,0.0
2255,62.0,60.0,180.0,0.0,0.0
2256,58.0,0.0,120.0,0.0,0.0
2257,53.0,0.0,120.0,0.0,0.0
2258,44.0,180.0,15.0,0.0,0.0
2259,62.0,60.0,180.0,0.0,0.0
2260,58.0,240.0,120.0,0.0,0.0
2261,53.0,0.0,120.0,0.0,0.0
2262,63.0,0.0,720.0,0.0,0.0
2263,43.0,0.0,240.0,0.0,0.0
2264,46.0,0.0,240.0,0.0,0.0
2265,51.0,240.0,120.0,0.0,0.0
2266,43.0,240.0,240.0,0.0,0.0
2267,46.0,0.0,240.0,0.0,0.0
2268,51.0,0.0,120.0,0.0,0.0
2269,46.0,0.0,240.0,0.0,0.0
2270,51.0,0.0,120.0,0.0,0.0
2271,67.0,120.0,120.0,0.0,0.0
2272,43.0,120.0,15.0,0.0,0.0
2273,51.0,0.0,120.0,0.0,0.0
2274,65.0,0.0,120.0,0.0,0.0
2275,46.0,0.0,15.0,0.0,0.0
2276,43.0,120.0,15.0,0.0,0.0
2277,63.0,120.0,120.0,0.0,0.0
2278,51.0,0.0,120.0,0.0,0.0
2279,46.0,0.0,240.0,0.0,0.0
2280,43.0,240.0,240.0,0.0,0.0
2281,51.0,0.0,120.0,0.0,0.0
2282,51.0,240.0,120.0,0.0,0.0
2283,43.0,0.0,15.0,0.0,0.0
2284,46.0,0.0,15.0,0.0,0.0
2285,51.0,240.0,120.0,0.0,0.0
2286,81.0,0.0,60.0,0.0,0.0
2287,46.0,0.0,15.0,0.0,0.0
2288,43.0,0.0,15.0,0.0,0.0
2289,82.0,120.0,600.0,0.0,0.0
2290,51.0,0.0,120.0,0.0,0.0
2291,46.0,0.0,240.0,0.0,0.0
2292,51.0,0.0,120.0,0.0,0.0
2293,43.0,120.0,15.0,0.0,0.0
2294,46.0,0.0,240.0,0.0,0.0
2295,51.0,120.0,120.0,0.0,0.0
2296,80.0,0.0,120.0,0.0,0.0
2297,79.0,120.0,120.0,0.0,0.0
2298,77.0,0.0,120.0,0.0,0.0
2299,51.0,240.0,120.0,0.0,0.0
2300,46.0,0.0,15.0,0.0,0.0
2301,43.0,0.0,15.0,0.0,0.0
2302,75.0,240.0,240.0,0.0,0.0
2303,51.0,0.0,120.0,0.0,0.0
2304,51.0,0.0,120.0,0.0,0.0
2305,46.0,240.0,15.0,0.0,0.0
2306,43.0,0.0,15.0,0.0,0.0
2307,51.0,240.0,120.0,0.0,0.0
2308,43.0,0.0,15.0,0.0,0.0
2309,46.0,0.0,15.0,0.0,0.0
2310,51.0,180.0,120.0,0.0,0.0
2311,46.0,180.0,240.0,0.0,0.0
2312,34.0,0.0,1920.0,0.0,0.0
2313,61.0,60.0,180.0,0.0,0.0
2314,58.0,0.0,120.0,0.0,0.0
2315,61.0,60.0,180.0,0.0,0.0
2316,53.0,0.0,120.0,0.0,0.0
2317,58.0,180.0,120.0,0.0,0.0
2318,46.0,0.0,15.0,0.0,0.0
2319,61.0,60.0,180.0,0.0,0.0
2320,58.0,0.0,120.0,0.0,0.0
2321,53.0,0.0,120.0,0.0,0.0
2322,61.0,60.0,180.0,0.0,0.0
2323,46.0,180.0,240.0,0.0,0.0
2324,58.0,0.0,120.0,0.0,0.0
2325,53.0,0.0,120.0,0.0,0.0
2326,61.0,60.0,180.0,0.0,0.0
2327,46.0,0.0,240.0,0.0,0.0
2328,53.0,0.0,120.0,0.0,0.0
2329,58.0,180.0,120.0,0.0,0.0
2330,46.0,0.0,240.0,0.0,0.0
2331,61.0,60.0,180.0,0.0,0.0
2332,58.0,180.0,120.0,0.0,0.0
2333,53.0,0.0,120.0,0.0,0.0
2334,46.0,180.0,240.0,0.0,0.0
2335,61.0,60.0,180.0,0.0,0.0
2336,53.0,0.0,120.0,0.0,0.0
2337,58.0,0.0,120.0,0.0,0.0
2338,61.0,60.0,180.0,0.0,0.0
2339,46.0,0.0,240.0,0.0,0.0
2340,58.0,0.0,120.0,0.0,0.0
2341,53.0,180.0,120.0,0.0,0.0
2342,61.0,60.0,180.0,0.0,0.0
2343,53.0,0.0,120.0,0.0,0.0
2344,58.0,180.0,120.0,0.0,0.0
2345,46.0,0.0,15.0,0.0,0.0
2346,61.0,60.0,180.0,0.0,0.0
2347,58.0,0.0,120.0,0.0,0.0
2348,53.0,180.0,120.0,0.0,0.0
2349,46.0,0.0,15.0,0.0,0.0
2350,61.0,60.0,180.0,0.0,0.0
2351,53.0,0.0,120.0,0.0,0.0
2352,58.0,0.0,120.0,0.0,0.0
2353,61.0,60.0,180.0,0.0,0.0
2354,46.0,180.0,15.0,0.0,0.0
2355,58.0,0.0,120.0,0.0,0.0
2356,53.0,180.0,120.0,0.0,0.0
2357,61.0,60.0,180.0,0.0,0.0
2358,53.0,0.0,120.0,0.0,0.0
2359,58.0,180.0,120.0,0.0,0.0
2360,46.0,0.0,15.0,0.0,0.0
2361,61.0,60.0,180.0,0.0,0.0
2362,53.0,180.0,120.0,0.0,0.0
2363,58.0,0.0,120.0,0.0,0.0
2364,64.0,60.0,180.0,0.0,0.0
2365,46.0,0.0,240.0,0.0,0.0
2366,55.0,0.0,120.0,0.0,0.0
2367,60.0,180.0,120.0,0.0,0.0
2368,46.0,240.0,240.0,0.0,0.0
2369,64.0,60.0,180.0,0.0,0.0
2370,55.0,0.0,120.0,0.0,0.0
2371,60.0,0.0,120.0,0.0,0.0
2372,65.0,0.0,720.0,0.0,0.0
2373,44.0,0.0,240.0,0.0,0.0
2374,53.0,0.0,120.0,0.0,0.0
2375,44.0,0.0,240.0,0.0,0.0
2376,48.0,240.0,15.0,0.0,0.0
2377,53.0,0.0,120.0,0.0,0.0
2378,48.0,0.0,240.0,0.0,0.0
2379,53.0,0.0,120.0,0.0,0.0
2380,68.0,120.0,120.0,0.0,0.0
2381,48.0,0.0,240.0,0.0,0.0
2382,44.0,120.0,15.0,0.0,0.0
2383,67.0,120.0,120.0,0.0,0.0
2384,53.0,0.0,120.0,0.0,0.0
2385,65.0,120.0,120.0,0.0,0.0
2386,53.0,0.0,120.0,0.0,0.0
2387,48.0,240.0,15.0,0.0,0.0
2388,44.0,0.0,15.0,0.0,0.0
2389,53.0,0.0,120.0,0.0,0.0
2390,48.0,0.0,240.0,0.0,0.0
2391,53.0,240.0,120.0,0.0,0.0
2392,44.0,0.0,15.0,0.0,0.0
2393,53.0,0.0,120.0,0.0,0.0
2394,83.0,240.0,60.0,0.0,0.0
2395,48.0,0.0,15.0,0.0,0.0
2396,44.0,0.0,240.0,0.0,0.0
2397,84.0,120.0,600.0,0.0,0.0
2398,53.0,0.0,120.0,0.0,0.0
2399,48.0,240.0,15.0,0.0,0.0
2400,53.0,0.0,120.0,0.0,0.0
2401,48.0,0.0,15.0,0.0,0.0
2402,44.0,120.0,15.0,0.0,0.0
2403,82.0,0.0,120.0,0.0,0.0
2404,53.0,0.0,120.0,0.0,0.0
2405,80.0,120.0,120.0,0.0,0.0
2406,48.0,0.0,15.0,0.0,0.0
2407,44.0,0.0,240.0,0.0,0.0
2408,53.0,0.0,120.0,0.0,0.0
2409,79.0,240.0,120.0,0.0,0.0
2410,44.0,0.0,240.0,0.0,0.0
2411,48.0,0.0,240.0,0.0,0.0
2412,77.0,240.0,240.0,0.0,0.0
2413,53.0,0.0,120.0,0.0,0.0
2414,53.0,240.0,120.0,0.0,0.0
2415,48.0,0.0,15.0,0.0,0.0
2416,44.0,0.0,15.0,0.0,0.0
2417,53.0,240.0,120.0,0.0,0.0
2418,48.0,0.0,15.0,0.0,0.0
2419,44.0,0.0,15.0,0.0,0.0
2420,53.0,0.0,120.0,0.0,0.0
2421,83.0,0.0,60.0,0.0,0.0
2422,48.0,240.0,15.0,0.0,0.0
2423,44.0,0.0,15.0,0.0,0.0
2424,84.0,120.0,600.0,0.0,0.0
2425,54.0,0.0,120.0,0.0,0.0
2426,48.0,240.0,15.0,0.0,0.0
2427,44.0,0.0,15.0,0.0,0.0
2428,54.0,120.0,120.0,0.0,0.0
2429,48.0,0.0,15.0,0.0,0.0
2430,44.0,120.0,240.0,0.0,0.0
2431,82.0,0.0,120.0,0.0,0.0
2432,54.0,0.0,120.0,0.0,0.0
2433,44.0,0.0,240.0,0.0,0.0
2434,48.0,0.0,240.0,0.0,0.0
2435,80.0,120.0,120.0,0.0,0.0
2436,79.0,0.0,120.0,0.0,0.0
2437,54.0,240.0,120.0,0.0,0.0
2438,48.0,240.0,240.0,0.0,0.0
2439,78.0,0.0,240.0,0.0,0.0
2440,54.0,0.0,120.0,0.0,0.0
2441,44.0,0.0,15.0,0.0,0.0
2442,54.0,0.0,120.0,0.0,0.0
2443,44.0,240.0,15.0,0.0,0.0
2444,48.0,0.0,15.0,0.0,0.0
2445,54.0,240.0,120.0,0.0,0.0
2446,44.0,0.0,240.0,0.0,0.0
2447,48.0,0.0,240.0,0.0,0.0
2448,54.0,140.0,120.0,0.0,0.0
2449,79.0,0.0,630.0,0.0,0.0
2450,43.0,120.0,150.0,0.0,0.0
2451,47.0,120.0,150.0,0.0,0.0
2452,50.0,100.0,150.0,0.0,0.0
2453,55.0,140.0,120.0,0.0,0.0
2454,43.0,120.0,150.0,0.0,0.0
2455,47.0,0.0,150.0,0.0,0.0
2456,77.0,120.0,150.0,0.0,0.0
2457,50.0,0.0,150.0,0.0,0.0
2458,75.0,100.0,150.0,0.0,0.0
2459,74.0,120.0,150.0,0.0,0.0
2460,55.0,20.0,120.0,0.0,0.0
2461,43.0,0.0,150.0,0.0,0.0
2462,75.0,120.0,150.0,0.0,0.0
2463,74.0,120.0,150.0,0.0,0.0
2464,48.0,0.0,150.0,0.0,0.0
2465,72.0,100.0,150.0,0.0,0.0
2466,51.0,0.0,150.0,0.0,0.0
2467,55.0,20.0,120.0,0.0,0.0
2468,71.0,120.0,150.0,0.0,0.0
2469,43.0,0.0,150.0,0.0,0.0
2470,72.0,120.0,150.0,0.0,0.0
2471,48.0,120.0,150.0,0.0,0.0
2472,75.0,0.0,150.0,0.0,0.0
2473,51.0,0.0,150.0,0.0,0.0
2474,74.0,100.0,150.0,0.0,0.0
2475,55.0,20.0,120.0,0.0,0.0
2476,72.0,120.0,150.0,0.0,0.0
2477,43.0,120.0,150.0,0.0,0.0
2478,71.0,0.0,150.0,0.0,0.0
2479,69.0,0.0,150.0,0.0,0.0
2480,50.0,120.0,150.0,0.0,0.0
2481,67.0,0.0,150.0,0.0,0.0
2482,53.0,100.0,150.0,0.0,0.0
2483,66.0,120.0,150.0,0.0,0.0
2484,55.0,20.0,120.0,0.0,0.0
2485,43.0,0.0,150.0,0.0,0.0
2486,67.0,120.0,150.0,0.0,0.0
2487,50.0,0.0,150.0,0.0,0.0
2488,69.0,120.0,150.0,0.0,0.0
2489,53.0,100.0,150.0,0.0,0.0
2490,70.0,0.0,150.0,0.0,0.0
2491,71.0,120.0,150.0,0.0,0.0
2492,55.0,20.0,120.0,0.0,0.0
2493,72.0,120.0,150.0,0.0,0.0
2494,43.0,0.0,150.0,0.0,0.0
2495,48.0,0.0,150.0,0.0,0.0
2496,71.0,120.0,150.0,0.0,0.0
2497,51.0,100.0,150.0,0.0,0.0
2498,72.0,0.0,150.0,0.0,0.0
2499,55.0,20.0,120.0,0.0,0.0
2500,74.0,120.0,150.0,0.0,0.0
2501,75.0,0.0,150.0,0.0,0.0
2502,43.0,120.0,150.0,0.0,0.0
2503,76.0,120.0,150.0,0.0,0.0
2504,48.0,0.0,150.0,0.0,0.0
2505,77.0,100.0,150.0,0.0,0.0
2506,51.0,0.0,150.0,0.0,0.0
2507,55.0,20.0,120.0,0.0,0.0
2508,78.0,120.0,150.0,0.0,0.0
2509,79.0,0.0,150.0,0.0,0.0
2510,43.0,120.0,150.0,0.0,0.0
2511,47.0,0.0,150.0,0.0,0.0
2512,78.0,120.0,150.0,0.0,0.0
2513,50.0,0.0,150.0,0.0,0.0
2514,79.0,100.0,150.0,0.0,0.0
2515,55.0,20.0,120.0,0.0,0.0
2516,78.0,120.0,150.0,0.0,0.0
2517,79.0,0.0,150.0,0.0,0.0
2518,43.0,120.0,150.0,0.0,0.0
2519,77.0,0.0,150.0,0.0,0.0
2520,47.0,120.0,150.0,0.0,0.0
2521,50.0,100.0,150.0,0.0,0.0
2522,75.0,0.0,150.0,0.0,0.0
2523,55.0,20.0,120.0,0.0,0.0
2524,74.0,120.0,150.0,0.0,0.0
2525,75.0,0.0,150.0,0.0,0.0
2526,43.0,120.0,150.0,0.0,0.0
2527,48.0,0.0,150.0,0.0,0.0
2528,74.0,120.0,150.0,0.0,0.0
2529,72.0,0.0,150.0,0.0,0.0
2530,51.0,100.0,150.0,0.0,0.0
2531,71.0,120.0,150.0,0.0,0.0
2532,55.0,20.0,120.0,0.0,0.0
2533,72.0,120.0,150.0,0.0,0.0
2534,43.0,0.0,150.0,0.0,0.0
2535,48.0,120.0,150.0,0.0,0.0
2536,75.0,0.0,150.0,0.0,0.0
2537,74.0,0.0,150.0,0.0,0.0
2538,51.0,100.0,150.0,0.0,0.0
2539,55.0,20.0,120.0,0.0,0.0
2540,72.0,120.0,150.0,0.0,0.0
2541,71.0,120.0,150.0,0.0,0.0
2542,43.0,0.0,150.0,0.0,0.0
2543,69.0,120.0,150.0,0.0,0.0
2544,50.0,0.0,150.0,0.0,0.0
2545,67.0,0.0,150.0,0.0,0.0
2546,53.0,100.0,150.0,0.0,0.0
2547,55.0,20.0,120.0,0.0,0.0
2548,66.0,120.0,150.0,0.0,0.0
2549,67.0,0.0,150.0,0.0,0.0
2550,43.0,120.0,150.0,0.0,0.0
2551,50.0,120.0,150.0,0.0,0.0
2552,69.0,0.0,150.0,0.0,0.0
2553,70.0,0.0,150.0,0.0,0.0
2554,53.0,100.0,150.0,0.0,0.0
2555,55.0,20.0,120.0,0.0,0.0
2556,71.0,120.0,150.0,0.0,0.0
2557,43.0,120.0,150.0,0.0,0.0
2558,72.0,0.0,150.0,0.0,0.0
2559,48.0,0.0,150.0,0.0,0.0
2560,71.0,120.0,150.0,0.0,0.0
2561,72.0,100.0,150.0,0.0,0.0
2562,51.0,0.0,150.0,0.0,0.0
2563,55.0,20.0,120.0,0.0,0.0
2564,74.0,120.0,150.0,0.0,0.0
2565,43.0,0.0,150.0,0.0,0.0
2566,75.0,120.0,150.0,0.0,0.0
2567,76.0,0.0,150.0,0.0,0.0
2568,48.0,120.0,150.0,0.0,0.0
2569,51.0,100.0,150.0,0.0,0.0
2570,77.0,0.0,150.0,0.0,0.0
2571,78.0,100.0,150.0,0.0,0.0
2572,55.0,20.0,120.0,0.0,0.0
2573,79.0,120.0,120.0,0.0,0.0
2574,43.0,0.0,120.0,0.0,0.0
2575,47.0,0.0,120.0,0.0,0.0
2576,74.0,120.0,120.0,0.0,0.0
2577,49.0,120.0,120.0,0.0,0.0
2578,71.0,0.0,120.0,0.0,0.0
2579,67.0,120.0,120.0,0.0,0.0
2580,55.0,0.0,120.0,0.0,0.0
2581,66.0,0.0,120.0,0.0,0.0
2582,54.0,120.0,120.0,0.0,0.0
2583,67.0,120.0,120.0,0.0,0.0
2584,55.0,0.0,120.0,0.0,0.0
2585,51.0,120.0,120.0,0.0,0.0
2586,72.0,0.0,120.0,0.0,0.0
2587,75.0,120.0,120.0,0.0,0.0
2588,48.0,0.0,120.0,0.0,0.0
2589,43.0,120.0,120.0,0.0,0.0
2590,79.0,0.0,120.0,0.0,0.0
2591,74.0,120.0,120.0,0.0,0.0
2592,47.0,0.0,120.0,0.0,0.0
2593,71.0,120.0,120.0,0.0,0.0
2594,50.0,0.0,120.0,0.0,0.0
2595,55.0,120.0,120.0,0.0,0.0
2596,67.0,0.0,120.0,0.0,0.0
2597,66.0,120.0,120.0,0.0,0.0
2598,54.0,0.0,120.0,0.0,0.0
2599,55.0,0.0,120.0,0.0,0.0
2600,67.0,120.0,120.0,0.0,0.0
2601,72.0,120.0,120.0,0.0,0.0
2602,51.0,0.0,120.0,0.0,0.0
2603,75.0,0.0,120.0,0.0,0.0
2604,48.0,120.0,120.0,0.0,0.0
2605,43.0,120.0,120.0,0.0,0.0
2606,79.0,0.0,120.0,0.0,0.0
2607,47.0,120.0,120.0,0.0,0.0
2608,74.0,0.0,120.0,0.0,0.0
2609,50.0,0.0,120.0,0.0,0.0
2610,71.0,120.0,120.0,0.0,0.0
2611,67.0,120.0,120.0,0.0,0.0
2612,55.0,0.0,120.0,0.0,0.0
2613,43.0,0.0,120.0,0.0,0.0
2614,79.0,120.0,120.0,0.0,0.0
2615,75.0,0.0,120.0,0.0,0.0
2616,48.0,120.0,120.0,0.0,0.0
2617,72.0,0.0,120.0,0.0,0.0
2618,51.0,120.0,120.0,0.0,0.0
2619,55.0,120.0,120.0,0.0,0.0
2620,67.0,0.0,120.0,0.0,0.0
2621,79.0,0.0,120.0,0.0,0.0
2622,43.0,120.0,120.0,0.0,0.0
2623,74.0,120.0,120.0,0.0,0.0
2624,47.0,0.0,120.0,0.0,0.0
2625,71.0,120.0,120.0,0.0,0.0
2626,50.0,0.0,120.0,0.0,0.0
2627,67.0,120.0,120.0,0.0,0.0
2628,55.0,0.0,120.0,0.0,0.0
2629,43.0,0.0,120.0,0.0,0.0
2630,79.0,120.0,120.0,0.0,0.0
2631,48.0,0.0,120.0,0.0,0.0
2632,75.0,120.0,120.0,0.0,0.0
2633,51.0,0.0,120.0,0.0,0.0
2634,72.0,120.0,120.0,0.0,0.0
2635,67.0,0.0,120.0,0.0,0.0
2636,43.0,0.0,480.0,0.0,0.0
2637,79.0,120.0,120.0,0.0,0.0
2638,50.0,0.0,480.0,0.0,0.0
2639,55.0,120.0,15.0,0.0,0.0
2640,47.0,0.0,480.0,0.0,0.0
2641,74.0,120.0,120.0,0.0,0.0
2642,71.0,120.0,120.0,0.0,0.0
2643,67.0,120.0,120.0,0.0,0.0
2644,74.0,120.0,120.0,0.0,0.0
2645,71.0,120.0,120.0,0.0,0.0
2646,67.0,120.0,120.0,0.0,0.0
2647,62.0,120.0,120.0,0.0,0.0
2648,71.0,120.0,120.0,0.0,0.0
2649,67.0,120.0,120.0,0.0,0.0
2650,62.0,120.0,120.0,0.0,0.0
2651,59.0,120.0,120.0,0.0,0.0
2652,67.0,120.0,120.0,0.0,0.0
2653,62.0,120.0,120.0,0.0,0.0
2654,59.0,120.0,120.0,0.0,0.0
2655,55.0,120.0,120.0,0.0,0.0
2656,62.0,120.0,120.0,0.0,0.0
2657,59.0,120.0,120.0,0.0,0.0
2658,55.0,120.0,120.0,0.0,0.0
2659,50.0,120.0,120.0,0.0,0.0
2660,59.0,120.0,120.0,0.0,0.0
2661,55.0,120.0,120.0,0.0,0.0
2662,50.0,120.0,120.0,0.0,0.0
2663,47.0,120.0,120.0,0.0,0.0
2664,55.0,120.0,120.0,0.0,0.0
2665,50.0,120.0,120.0,0.0,0.0
2666,47.0,120.0,120.0,0.0,0.0
2667,43.0,120.0,120.0,0.0,0.0
2668,31.0,120.0,120.0,0.0,0.0
2669,35.0,120.0,120.0,0.0,0.0
2670,38.0,120.0,120.0,0.0,0.0
2671,43.0,120.0,120.0,0.0,0.0
2672,31.0,240.0,120.0,0.0,0.0
2673,43.0,240.0,120.0,0.0,0.0
2674,33.0,240.0,120.0,0.0,0.0
2675,45.0,240.0,120.0,0.0,0.0
2676,67.0,0.0,120.0,0.0,0.0
2677,35.0,240.0,120.0,0.0,0.0
2678,47.0,240.0,120.0,0.0,0.0
2679,55.0,0.0,120.0,0.0,0.0
2680,69.0,240.0,120.0,0.0,0.0
2681,57.0,240.0,120.0,0.0,0.0
2682,71.0,0.0,120.0,0.0,0.0
2683,35.0,240.0,120.0,0.0,0.0
2684,47.0,240.0,120.0,0.0,0.0
2685,59.0,0.0,120.0,0.0,0.0
2686,36.0,240.0,120.0,0.0,0.0
2687,48.0,240.0,120.0,0.0,0.0
2688,71.0,240.0,120.0,0.0,0.0
2689,38.0,0.0,120.0,0.0,0.0
2690,50.0,0.0,120.0,0.0,0.0
2691,59.0,240.0,120.0,0.0,0.0
2692,72.0,240.0,120.0,0.0,0.0
2693,60.0,240.0,120.0,0.0,0.0
2694,74.0,240.0,120.0,0.0,0.0
2695,62.0,240.0,120.0,0.0,0.0
2696,76.0,240.0,120.0,0.0,0.0
2697,64.0,240.0,120.0,0.0,0.0
2698,38.0,0.0,120.0,0.0,0.0
2699,77.0,240.0,120.0,0.0,0.0
2700,65.0,0.0,120.0,0.0,0.0
2701,50.0,240.0,120.0,0.0,0.0
2702,77.0,240.0,120.0,0.0,0.0
2703,40.0,0.0,120.0,0.0,0.0
2704,52.0,240.0,120.0,0.0,0.0
2705,67.0,0.0,120.0,0.0,0.0
2706,41.0,0.0,120.0,0.0,0.0
2707,77.0,240.0,120.0,0.0,0.0
2708,69.0,240.0,120.0,0.0,0.0
2709,53.0,0.0,120.0,0.0,0.0
2710,43.0,240.0,120.0,0.0,0.0
2711,77.0,0.0,120.0,0.0,0.0
2712,71.0,240.0,120.0,0.0,0.0
2713,55.0,0.0,120.0,0.0,0.0
2714,45.0,240.0,120.0,0.0,0.0
2715,77.0,0.0,120.0,0.0,0.0
2716,72.0,0.0,120.0,0.0,0.0
2717,57.0,240.0,120.0,0.0,0.0
2718,47.0,0.0,120.0,0.0,0.0
2719,77.0,240.0,120.0,0.0,0.0
2720,74.0,0.0,120.0,0.0,0.0
2721,59.0,1080.0,120.0,0.0,0.0
2722,64.0,0.0,960.0,0.0,0.0
2723,76.0,480.0,960.0,0.0,0.0
2724,72.0,0.0,960.0,0.0,0.0
2725,60.0,0.0,960.0,0.0,0.0
2726,67.0,0.0,960.0,0.0,0.0
2727,65.0,0.0,480.0,0.0,0.0
2728,62.0,480.0,480.0,0.0,0.0
2729,59.0,0.0,480.0,0.0,0.0
2730,55.0,0.0,480.0,0.0,0.0
2731,71.0,0.0,480.0,0.0,0.0
2732,74.0,0.0,480.0,0.0,0.0
2733,64.0,0.0,480.0,0.0,0.0
2734,72.0,0.0,480.0,0.0,0.0
2735,69.0,0.0,480.0,0.0,0.0
2736,60.0,960.0,480.0,0.0,0.0
2737,57.0,0.0,480.0,0.0,0.0
2738,62.0,0.0,960.0,0.0,0.0
2739,68.0,0.0,960.0,0.0,0.0
2740,71.0,0.0,960.0,0.0,0.0
2741,56.0,0.0,960.0,0.0,0.0
2742,59.0,0.0,960.0,0.0,0.0
2743,52.0,960.0,960.0,0.0,0.0
2744,57.0,0.0,960.0,0.0,0.0
2745,60.0,960.0,960.0,0.0,0.0
2746,69.0,0.0,960.0,0.0,0.0
2747,53.0,0.0,15.0,0.0,0.0
2748,59.0,0.0,960.0,0.0,0.0
2749,55.0,0.0,960.0,0.0,0.0
2750,50.0,0.0,960.0,0.0,0.0
2751,65.0,480.0,960.0,0.0,0.0
2752,71.0,0.0,960.0,0.0,0.0
2753,67.0,0.0,15.0,0.0,0.0
2754,72.0,0.0,480.0,0.0,0.0
2755,52.0,480.0,480.0,0.0,0.0
2756,60.0,0.0,480.0,0.0,0.0
2757,55.0,0.0,480.0,0.0,0.0
2758,69.0,0.0,480.0,0.0,0.0
2759,74.0,960.0,480.0,0.0,0.0
2760,53.0,0.0,480.0,0.0,0.0
2761,62.0,0.0,480.0,0.0,0.0
2762,57.0,0.0,480.0,0.0,0.0
2763,76.0,0.0,960.0,0.0,0.0
2764,72.0,0.0,15.0,0.0,0.0
2765,64.0,0.0,960.0,0.0,0.0
2766,60.0,480.0,960.0,0.0,0.0
2767,67.0,480.0,1440.0,0.0,0.0
2768,74.0,0.0,960.0,0.0,0.0
2769,71.0,0.0,960.0,0.0,0.0
2770,59.0,0.0,960.0,0.0,0.0
2771,62.0,0.0,960.0,0.0,0.0
2772,65.0,0.0,480.0,0.0,0.0
2773,55.0,960.0,15.0,0.0,0.0
2774,60.0,0.0,960.0,0.0,0.0
2775,64.0,0.0,960.0,0.0,0.0
2776,48.0,480.0,960.0,0.0,0.0
2777,52.0,0.0,960.0,0.0,0.0
2778,43.0,0.0,480.0,0.0,0.0
2779,53.0,0.0,480.0,0.0,0.0
2780,59.0,0.0,480.0,0.0,0.0
2781,62.0,480.0,480.0,0.0,0.0
2782,50.0,0.0,480.0,0.0,0.0
2783,47.0,0.0,480.0,0.0,0.0
2784,52.0,0.0,480.0,0.0,0.0
2785,57.0,0.0,480.0,0.0,0.0
2786,48.0,960.0,480.0,0.0,0.0
2787,45.0,0.0,480.0,0.0,0.0
2788,60.0,0.0,480.0,0.0,0.0
2789,50.0,0.0,960.0,0.0,0.0
2790,56.0,0.0,960.0,0.0,0.0
2791,59.0,0.0,960.0,0.0,0.0
2792,47.0,960.0,960.0,0.0,0.0
2793,44.0,0.0,960.0,0.0,0.0
2794,40.0,0.0,960.0,0.0,0.0
2795,57.0,0.0,960.0,0.0,0.0
2796,53.0,0.0,960.0,0.0,0.0
2797,45.0,0.0,960.0,0.0,0.0
2798,41.0,0.0,960.0,0.0,0.0
2799,31.0,0.0,1920.0,0.0,0.0
2800,48.0,480.0,15.0,0.0,0.0
2801,52.0,0.0,480.0,0.0,0.0
2802,43.0,0.0,1920.0,0.0,0.0
2803,55.0,480.0,960.0,0.0,0.0
2804,50.0,120.0,1440.0,0.0,0.0
2805,53.0,0.0,1440.0,0.0,0.0
2806,57.0,480.0,480.0,0.0,0.0
2807,59.0,0.0,480.0,0.0,0.0
2808,48.0,120.0,480.0,0.0,0.0
2809,36.0,0.0,480.0,0.0,0.0
2810,52.0,120.0,150.0,0.0,0.0
2811,60.0,40.0,120.0,0.0,0.0
2812,62.0,160.0,120.0,0.0,0.0
2813,64.0,40.0,120.0,0.0,0.0
2814,65.0,160.0,120.0,0.0,0.0
2815,67.0,160.0,120.0,0.0,0.0
2816,69.0,160.0,120.0,0.0,0.0
2817,70.0,160.0,120.0,0.0,0.0
2818,71.0,160.0,120.0,0.0,0.0
2819,72.0,160.0,120.0,0.0,0.0
2820,73.0,160.0,120.0,0.0,0.0
2821,74.0,160.0,120.0,0.0,0.0
2822,75.0,200.0,120.0,0.0,0.0
2823,60.0,0.0,960.0,0.0,0.0
2824,64.0,320.0,960.0,0.0,0.0
2825,76.0,160.0,150.0,0.0,0.0
2826,67.0,0.0,960.0,0.0,0.0
2827,75.0,160.0,150.0,0.0,0.0
2828,76.0,160.0,150.0,0.0,0.0
2829,77.0,160.0,150.0,0.0,0.0
2830,75.0,160.0,150.0,0.0,0.0
2831,76.0,0.0,150.0,0.0,0.0
2832,65.0,320.0,480.0,0.0,0.0
2833,62.0,0.0,480.0,0.0,0.0
2834,59.0,0.0,480.0,0.0,0.0
2835,55.0,0.0,480.0,0.0,0.0
2836,76.0,160.0,150.0,0.0,0.0
2837,74.0,0.0,150.0,0.0,0.0
2838,60.0,320.0,480.0,0.0,0.0
2839,57.0,0.0,480.0,0.0,0.0
2840,64.0,0.0,480.0,0.0,0.0
2841,74.0,160.0,150.0,0.0,0.0
2842,72.0,0.0,150.0,0.0,0.0
2843,62.0,0.0,960.0,0.0,0.0
2844,52.0,320.0,960.0,0.0,0.0
2845,56.0,0.0,960.0,0.0,0.0
2846,59.0,0.0,960.0,0.0,0.0
2847,68.0,160.0,150.0,0.0,0.0
2848,71.0,160.0,150.0,0.0,0.0
2849,72.0,160.0,150.0,0.0,0.0
2850,68.0,160.0,150.0,0.0,0.0
2851,71.0,0.0,150.0,0.0,0.0
2852,57.0,0.0,960.0,0.0,0.0
2853,60.0,320.0,960.0,0.0,0.0
2854,65.0,160.0,150.0,0.0,0.0
2855,69.0,160.0,150.0,0.0,0.0
2856,71.0,160.0,150.0,0.0,0.0
2857,65.0,160.0,150.0,0.0,0.0
2858,69.0,0.0,150.0,0.0,0.0
2859,50.0,0.0,960.0,0.0,0.0
2860,53.0,0.0,15.0,0.0,0.0
2861,55.0,0.0,960.0,0.0,0.0
2862,59.0,0.0,960.0,0.0,0.0
2863,65.0,0.0,960.0,0.0,0.0
2864,70.0,160.0,150.0,0.0,0.0
2865,71.0,160.0,150.0,0.0,0.0
2866,72.0,160.0,150.0,0.0,0.0
2867,70.0,160.0,150.0,0.0,0.0
2868,71.0,320.0,150.0,0.0,0.0
2869,52.0,0.0,480.0,0.0,0.0
2870,67.0,320.0,480.0,0.0,0.0
2871,60.0,0.0,480.0,0.0,0.0
2872,55.0,0.0,480.0,0.0,0.0
2873,74.0,160.0,150.0,0.0,0.0
2874,72.0,0.0,150.0,0.0,0.0
2875,62.0,0.0,480.0,0.0,0.0
2876,69.0,0.0,480.0,0.0,0.0
2877,53.0,0.0,480.0,0.0,0.0
2878,57.0,0.0,480.0,0.0,0.0
2879,76.0,160.0,150.0,0.0,0.0
2880,74.0,160.0,150.0,0.0,0.0
2881,55.0,0.0,1920.0,0.0,0.0
2882,60.0,0.0,960.0,0.0,0.0
2883,64.0,0.0,960.0,0.0,0.0
2884,72.0,160.0,960.0,0.0,0.0
2885,76.0,160.0,150.0,0.0,0.0
2886,75.0,160.0,150.0,0.0,0.0
2887,76.0,160.0,150.0,0.0,0.0
2888,79.0,160.0,150.0,0.0,0.0
2889,77.0,160.0,150.0,0.0,0.0
2890,76.0,0.0,150.0,0.0,0.0
2891,74.0,0.0,150.0,0.0,0.0
2892,71.0,160.0,150.0,0.0,0.0
2893,59.0,0.0,480.0,0.0,0.0
2894,62.0,0.0,480.0,0.0,0.0
2895,69.0,160.0,150.0,0.0,0.0
2896,72.0,0.0,150.0,0.0,0.0
2897,71.0,160.0,150.0,0.0,0.0
2898,67.0,0.0,150.0,0.0,0.0
2899,43.0,0.0,150.0,0.0,0.0
2900,65.0,0.0,150.0,0.0,0.0
2901,69.0,160.0,150.0,0.0,0.0
2902,45.0,0.0,150.0,0.0,0.0
2903,67.0,0.0,150.0,0.0,0.0
2904,64.0,160.0,150.0,0.0,0.0
2905,62.0,160.0,150.0,0.0,0.0
2906,65.0,0.0,150.0,0.0,0.0
2907,47.0,0.0,150.0,0.0,0.0
2908,48.0,0.0,960.0,0.0,0.0
2909,52.0,0.0,960.0,0.0,0.0
2910,55.0,320.0,960.0,0.0,0.0
2911,64.0,160.0,150.0,0.0,0.0
2912,63.0,160.0,150.0,0.0,0.0
2913,64.0,160.0,150.0,0.0,0.0
2914,65.0,160.0,150.0,0.0,0.0
2915,63.0,160.0,150.0,0.0,0.0
2916,64.0,0.0,150.0,0.0,0.0
2917,43.0,0.0,480.0,0.0,0.0
2918,47.0,0.0,480.0,0.0,0.0
2919,50.0,0.0,480.0,0.0,0.0
2920,53.0,320.0,480.0,0.0,0.0
2921,64.0,160.0,150.0,0.0,0.0
2922,62.0,0.0,150.0,0.0,0.0
2923,45.0,0.0,480.0,0.0,0.0
2924,48.0,320.0,480.0,0.0,0.0
2925,52.0,0.0,480.0,0.0,0.0
2926,62.0,160.0,150.0,0.0,0.0
2927,60.0,0.0,150.0,0.0,0.0
2928,47.0,0.0,960.0,0.0,0.0
2929,50.0,0.0,960.0,0.0,0.0
2930,44.0,0.0,960.0,0.0,0.0
2931,40.0,0.0,960.0,0.0,0.0
2932,56.0,160.0,150.0,0.0,0.0
2933,59.0,160.0,150.0,0.0,0.0
2934,60.0,160.0,150.0,0.0,0.0
2935,56.0,160.0,150.0,0.0,0.0
2936,59.0,320.0,150.0,0.0,0.0
2937,45.0,0.0,960.0,0.0,0.0
2938,41.0,320.0,960.0,0.0,0.0
2939,53.0,160.0,150.0,0.0,0.0
2940,57.0,160.0,150.0,0.0,0.0
2941,59.0,160.0,150.0,0.0,0.0
2942,53.0,160.0,150.0,0.0,0.0
2943,57.0,0.0,150.0,0.0,0.0
2944,48.0,0.0,15.0,0.0,0.0
2945,31.0,0.0,1920.0,0.0,0.0
2946,43.0,0.0,1920.0,0.0,0.0
2947,52.0,160.0,150.0,0.0,0.0
2948,55.0,0.0,150.0,0.0,0.0
2949,50.0,0.0,480.0,0.0,0.0
2950,53.0,160.0,150.0,0.0,0.0
2951,55.0,320.0,150.0,0.0,0.0
2952,50.0,320.0,480.0,0.0,0.0
2953,53.0,160.0,150.0,0.0,0.0
2954,57.0,0.0,150.0,0.0,0.0
2955,50.0,0.0,480.0,0.0,0.0
2956,53.0,160.0,150.0,0.0,0.0
2957,59.0,160.0,150.0,0.0,0.0
2958,52.0,0.0,150.0,0.0,0.0
2959,48.0,0.0,480.0,0.0,0.0
2960,36.0,160.0,480.0,0.0,0.0
2961,60.0,160.0,150.0,0.0,0.0
2962,55.0,160.0,150.0,0.0,0.0
2963,52.0,0.0,150.0,0.0,0.0
2964,55.0,160.0,150.0,0.0,0.0
2965,43.0,160.0,960.0,0.0,0.0
2966,60.0,160.0,150.0,0.0,0.0
2967,64.0,160.0,150.0,0.0,0.0
2968,62.0,160.0,150.0,0.0,0.0
2969,59.0,160.0,150.0,0.0,0.0
2970,55.0,0.0,150.0,0.0,0.0
2971,59.0,160.0,150.0,0.0,0.0
2972,43.0,160.0,960.0,0.0,0.0
2973,62.0,160.0,150.0,0.0,0.0
2974,65.0,160.0,150.0,0.0,0.0
2975,64.0,160.0,150.0,0.0,0.0
2976,60.0,160.0,150.0,0.0,0.0
2977,55.0,0.0,150.0,0.0,0.0
2978,60.0,160.0,150.0,0.0,0.0
2979,64.0,160.0,150.0,0.0,0.0
2980,67.0,160.0,150.0,0.0,0.0
2981,65.0,160.0,150.0,0.0,0.0
2982,62.0,160.0,150.0,0.0,0.0
2983,59.0,160.0,150.0,0.0,0.0
2984,43.0,0.0,15.0,0.0,0.0
2985,71.0,160.0,150.0,0.0,0.0
2986,65.0,160.0,150.0,0.0,0.0
2987,62.0,160.0,150.0,0.0,0.0
2988,64.0,160.0,480.0,0.0,0.0
2989,72.0,0.0,480.0,0.0,0.0
2990,48.0,160.0,150.0,0.0,0.0
2991,43.0,160.0,150.0,0.0,0.0
2992,40.0,0.0,150.0,0.0,0.0
2993,43.0,160.0,150.0,0.0,0.0
2994,48.0,160.0,150.0,0.0,0.0
2995,52.0,160.0,150.0,0.0,0.0
2996,50.0,160.0,150.0,0.0,0.0
2997,47.0,160.0,150.0,0.0,0.0
2998,43.0,0.0,150.0,0.0,0.0
2999,67.0,160.0,15.0,0.0,0.0
3000,47.0,160.0,150.0,0.0,0.0
3001,50.0,160.0,150.0,0.0,0.0
3002,53.0,160.0,150.0,0.0,0.0
3003,52.0,160.0,150.0,0.0,0.0
3004,48.0,160.0,150.0,0.0,0.0
3005,43.0,160.0,150.0,0.0,0.0
3006,67.0,160.0,960.0,0.0,0.0
3007,48.0,160.0,150.0,0.0,0.0
3008,52.0,160.0,150.0,0.0,0.0
3009,55.0,160.0,150.0,0.0,0.0
3010,53.0,160.0,150.0,0.0,0.0
3011,50.0,160.0,150.0,0.0,0.0
3012,47.0,0.0,150.0,0.0,0.0
3013,59.0,160.0,150.0,0.0,0.0
3014,67.0,0.0,480.0,0.0,0.0
3015,53.0,160.0,150.0,0.0,0.0
3016,50.0,160.0,150.0,0.0,0.0
3017,72.0,0.0,150.0,0.0,0.0
3018,52.0,160.0,150.0,0.0,0.0
3019,67.0,160.0,150.0,0.0,0.0
3020,55.0,0.0,150.0,0.0,0.0
3021,60.0,0.0,150.0,0.0,0.0
3022,64.0,160.0,150.0,0.0,0.0
3023,55.0,0.0,150.0,0.0,0.0
3024,67.0,160.0,150.0,0.0,0.0
3025,52.0,0.0,150.0,0.0,0.0
3026,72.0,160.0,150.0,0.0,0.0
3027,76.0,160.0,150.0,0.0,0.0
3028,48.0,0.0,150.0,0.0,0.0
3029,47.0,0.0,150.0,0.0,0.0
3030,74.0,160.0,150.0,0.0,0.0
3031,71.0,160.0,150.0,0.0,0.0
3032,50.0,0.0,150.0,0.0,0.0
3033,67.0,0.0,150.0,0.0,0.0
3034,53.0,160.0,150.0,0.0,0.0
3035,50.0,0.0,150.0,0.0,0.0
3036,71.0,160.0,150.0,0.0,0.0
3037,47.0,160.0,150.0,0.0,0.0
3038,74.0,0.0,150.0,0.0,0.0
3039,43.0,160.0,150.0,0.0,0.0
3040,77.0,0.0,150.0,0.0,0.0
3041,76.0,6.0,150.0,0.0,0.0
3042,48.0,154.0,150.0,0.0,0.0
3043,72.0,0.0,150.0,0.0,0.0
3044,52.0,160.0,150.0,0.0,0.0
3045,67.0,0.0,150.0,0.0,0.0
3046,55.0,160.0,150.0,0.0,0.0
3047,72.0,0.0,150.0,0.0,0.0
3048,52.0,160.0,150.0,0.0,0.0
3049,76.0,0.0,150.0,0.0,0.0
3050,48.0,160.0,150.0,0.0,0.0
3051,79.0,6.0,150.0,0.0,0.0
3052,43.0,154.0,150.0,0.0,0.0
3053,77.0,160.0,150.0,0.0,0.0
3054,47.0,0.0,150.0,0.0,0.0
3055,53.0,0.0,150.0,0.0,0.0
3056,74.0,160.0,150.0,0.0,0.0
3057,71.0,6.0,150.0,0.0,0.0
3058,55.0,154.0,150.0,0.0,0.0
3059,53.0,160.0,150.0,0.0,0.0
3060,83.0,0.0,150.0,0.0,0.0
3061,77.0,0.0,150.0,0.0,0.0
3062,55.0,160.0,150.0,0.0,0.0
3063,74.0,0.0,150.0,0.0,0.0
3064,62.0,160.0,150.0,0.0,0.0
3065,52.0,80.0,150.0,0.0,0.0
3066,84.0,80.0,240.0,0.0,0.0
3067,79.0,0.0,150.0,0.0,0.0
3068,55.0,160.0,150.0,0.0,0.0
3069,76.0,160.0,150.0,0.0,0.0
3070,60.0,0.0,150.0,0.0,0.0
3071,48.0,80.0,150.0,0.0,0.0
3072,79.0,80.0,240.0,0.0,0.0
3073,52.0,160.0,150.0,0.0,0.0
3074,76.0,0.0,150.0,0.0,0.0
3075,72.0,160.0,150.0,0.0,0.0
3076,55.0,0.0,150.0,0.0,0.0
3077,50.0,80.0,150.0,0.0,0.0
3078,77.0,80.0,240.0,0.0,0.0
3079,53.0,160.0,150.0,0.0,0.0
3080,74.0,0.0,150.0,0.0,0.0
3081,55.0,160.0,150.0,0.0,0.0
3082,71.0,0.0,150.0,0.0,0.0
3083,53.0,80.0,150.0,0.0,0.0
3084,83.0,80.0,240.0,0.0,0.0
3085,55.0,0.0,150.0,0.0,0.0
3086,79.0,160.0,150.0,0.0,0.0
3087,62.0,0.0,150.0,0.0,0.0
3088,74.0,160.0,150.0,0.0,0.0
3089,52.0,80.0,150.0,0.0,0.0
3090,84.0,80.0,240.0,0.0,0.0
3091,55.0,160.0,150.0,0.0,0.0
3092,79.0,0.0,150.0,0.0,0.0
3093,76.0,0.0,150.0,0.0,0.0
3094,60.0,160.0,150.0,0.0,0.0
3095,79.0,80.0,240.0,0.0,0.0
3096,48.0,80.0,150.0,0.0,0.0
3097,52.0,160.0,150.0,0.0,0.0
3098,76.0,0.0,150.0,0.0,0.0
3099,72.0,160.0,150.0,0.0,0.0
3100,55.0,0.0,150.0,0.0,0.0
3101,50.0,80.0,150.0,0.0,0.0
3102,77.0,80.0,240.0,0.0,0.0
3103,53.0,160.0,150.0,0.0,0.0
3104,74.0,0.0,150.0,0.0,0.0
3105,71.0,160.0,150.0,0.0,0.0
3106,55.0,0.0,150.0,0.0,0.0
3107,83.0,80.0,240.0,0.0,0.0
3108,53.0,80.0,150.0,0.0,0.0
3109,55.0,0.0,150.0,0.0,0.0
3110,79.0,160.0,150.0,0.0,0.0
3111,62.0,120.0,150.0,0.0,0.0
3112,74.0,0.0,150.0,0.0,0.0
3113,52.0,0.0,120.0,0.0,0.0
3114,84.0,120.0,120.0,0.0,0.0
3115,55.0,0.0,120.0,0.0,0.0
3116,79.0,120.0,120.0,0.0,0.0
3117,48.0,0.0,120.0,0.0,0.0
3118,76.0,120.0,120.0,0.0,0.0
3119,72.0,120.0,120.0,0.0,0.0
3120,55.0,0.0,120.0,0.0,0.0
3121,50.0,0.0,120.0,0.0,0.0
3122,77.0,120.0,120.0,0.0,0.0
3123,55.0,0.0,120.0,0.0,0.0
3124,74.0,120.0,120.0,0.0,0.0
3125,53.0,0.0,120.0,0.0,0.0
3126,83.0,120.0,120.0,0.0,0.0
3127,79.0,120.0,120.0,0.0,0.0
3128,55.0,0.0,120.0,0.0,0.0
3129,52.0,0.0,120.0,0.0,0.0
3130,84.0,120.0,120.0,0.0,0.0
3131,55.0,0.0,120.0,0.0,0.0
3132,79.0,120.0,120.0,0.0,0.0
3133,48.0,120.0,120.0,0.0,0.0
3134,76.0,0.0,120.0,0.0,0.0
3135,55.0,0.0,120.0,0.0,0.0
3136,72.0,120.0,120.0,0.0,0.0
3137,77.0,120.0,120.0,0.0,0.0
3138,50.0,0.0,120.0,0.0,0.0
3139,55.0,120.0,120.0,0.0,0.0
3140,74.0,0.0,120.0,0.0,0.0
3141,83.0,0.0,120.0,0.0,0.0
3142,53.0,120.0,120.0,0.0,0.0
3143,79.0,0.0,120.0,0.0,0.0
3144,55.0,120.0,120.0,0.0,0.0
3145,84.0,120.0,120.0,0.0,0.0
3146,52.0,0.0,120.0,0.0,0.0
3147,55.0,0.0,120.0,0.0,0.0
3148,79.0,120.0,120.0,0.0,0.0
3149,53.0,0.0,120.0,0.0,0.0
3150,83.0,120.0,120.0,0.0,0.0
3151,55.0,120.0,120.0,0.0,0.0
3152,79.0,0.0,120.0,0.0,0.0
3153,84.0,0.0,120.0,0.0,0.0
3154,52.0,120.0,120.0,0.0,0.0
3155,79.0,120.0,120.0,0.0,0.0
3156,55.0,0.0,120.0,0.0,0.0
3157,53.0,0.0,120.0,0.0,0.0
3158,83.0,120.0,120.0,0.0,0.0
3159,55.0,0.0,120.0,0.0,0.0
3160,79.0,120.0,120.0,0.0,0.0
3161,52.0,0.0,120.0,0.0,0.0
3162,84.0,120.0,120.0,0.0,0.0
3163,55.0,0.0,120.0,0.0,0.0
3164,79.0,120.0,120.0,0.0,0.0
3165,53.0,0.0,120.0,0.0,0.0
3166,83.0,120.0,120.0,0.0,0.0
3167,55.0,0.0,120.0,0.0,0.0
3168,79.0,120.0,120.0,0.0,0.0
3169,52.0,120.0,120.0,0.0,0.0
3170,84.0,0.0,120.0,0.0,0.0
3171,55.0,120.0,120.0,0.0,0.0
3172,79.0,0.0,120.0,0.0,0.0
3173,83.0,0.0,120.0,0.0,0.0
3174,53.0,120.0,120.0,0.0,0.0
3175,79.0,0.0,120.0,0.0,0.0
3176,55.0,120.0,120.0,0.0,0.0
3177,84.0,0.0,120.0,0.0,0.0
3178,52.0,120.0,120.0,0.0,0.0
3179,55.0,120.0,120.0,0.0,0.0
3180,79.0,0.0,120.0,0.0,0.0
3181,82.0,120.0,120.0,0.0,0.0
3182,40.0,0.0,120.0,0.0,0.0
3183,48.0,120.0,120.0,0.0,0.0
3184,79.0,0.0,120.0,0.0,0.0
3185,40.0,0.0,120.0,0.0,0.0
3186,82.0,120.0,120.0,0.0,0.0
3187,48.0,0.0,120.0,0.0,0.0
3188,79.0,120.0,120.0,0.0,0.0
3189,40.0,120.0,120.0,0.0,0.0
3190,82.0,0.0,120.0,0.0,0.0
3191,48.0,120.0,120.0,0.0,0.0
3192,79.0,0.0,120.0,0.0,0.0
3193,82.0,0.0,120.0,0.0,0.0
3194,40.0,120.0,120.0,0.0,0.0
3195,48.0,120.0,120.0,0.0,0.0
3196,79.0,0.0,120.0,0.0,0.0
3197,82.0,120.0,120.0,0.0,0.0
3198,40.0,0.0,120.0,0.0,0.0
3199,48.0,120.0,120.0,0.0,0.0
3200,79.0,0.0,120.0,0.0,0.0
3201,82.0,0.0,120.0,0.0,0.0
3202,40.0,120.0,120.0,0.0,0.0
3203,79.0,120.0,120.0,0.0,0.0
3204,48.0,0.0,120.0,0.0,0.0
3205,82.0,0.0,120.0,0.0,0.0
3206,40.0,120.0,120.0,0.0,0.0
3207,79.0,120.0,120.0,0.0,0.0
3208,48.0,0.0,120.0,0.0,0.0
3209,40.0,120.0,120.0,0.0,0.0
3210,82.0,0.0,240.0,0.0,0.0
3211,48.0,120.0,120.0,0.0,0.0
3212,81.0,0.0,120.0,0.0,0.0
3213,40.0,120.0,120.0,0.0,0.0
3214,79.0,120.0,120.0,0.0,0.0
3215,48.0,0.0,120.0,0.0,0.0
3216,40.0,0.0,120.0,0.0,0.0
3217,77.0,120.0,120.0,0.0,0.0
3218,76.0,0.0,120.0,0.0,0.0
3219,48.0,120.0,120.0,0.0,0.0
3220,74.0,0.0,120.0,0.0,0.0
3221,40.0,120.0,120.0,0.0,0.0
3222,48.0,120.0,120.0,0.0,0.0
3223,72.0,0.0,120.0,0.0,0.0
3224,70.0,120.0,120.0,0.0,0.0
3225,40.0,0.0,120.0,0.0,0.0
3226,48.0,0.0,120.0,0.0,0.0
3227,69.0,120.0,120.0,0.0,0.0
3228,40.0,120.0,120.0,0.0,0.0
3229,67.0,0.0,120.0,0.0,0.0
3230,65.0,120.0,120.0,0.0,0.0
3231,48.0,0.0,120.0,0.0,0.0
3232,40.0,0.0,120.0,0.0,0.0
3233,64.0,120.0,120.0,0.0,0.0
3234,62.0,120.0,120.0,0.0,0.0
3235,48.0,0.0,120.0,0.0,0.0
3236,40.0,120.0,120.0,0.0,0.0
3237,60.0,0.0,120.0,0.0,0.0
3238,48.0,120.0,120.0,0.0,0.0
3239,58.0,0.0,120.0,0.0,0.0
3240,45.0,0.0,180.0,0.0,0.0
3241,57.0,60.0,120.0,0.0,0.0
3242,41.0,60.0,180.0,0.0,0.0
3243,48.0,0.0,180.0,0.0,0.0
3244,59.0,120.0,120.0,0.0,0.0
3245,60.0,60.0,120.0,0.0,0.0
3246,41.0,0.0,180.0,0.0,0.0
3247,45.0,0.0,180.0,0.0,0.0
3248,48.0,60.0,180.0,0.0,0.0
3249,59.0,120.0,120.0,0.0,0.0
3250,60.0,120.0,120.0,0.0,0.0
3251,64.0,120.0,120.0,0.0,0.0
3252,48.0,60.0,180.0,0.0,0.0
3253,41.0,0.0,180.0,0.0,0.0
3254,65.0,60.0,120.0,0.0,0.0
3255,45.0,0.0,180.0,0.0,0.0
3256,64.0,120.0,120.0,0.0,0.0
3257,48.0,60.0,180.0,0.0,0.0
3258,41.0,0.0,180.0,0.0,0.0
3259,65.0,60.0,120.0,0.0,0.0
3260,45.0,0.0,180.0,0.0,0.0
3261,68.0,120.0,120.0,0.0,0.0
3262,69.0,60.0,120.0,0.0,0.0
3263,45.0,60.0,180.0,0.0,0.0
3264,48.0,0.0,180.0,0.0,0.0
3265,41.0,0.0,180.0,0.0,0.0
3266,68.0,120.0,120.0,0.0,0.0
3267,69.0,120.0,120.0,0.0,0.0
3268,71.0,120.0,120.0,0.0,0.0
3269,41.0,60.0,180.0,0.0,0.0
3270,45.0,0.0,180.0,0.0,0.0
3271,72.0,60.0,120.0,0.0,0.0
3272,48.0,0.0,180.0,0.0,0.0
3273,71.0,120.0,120.0,0.0,0.0
3274,48.0,0.0,180.0,0.0,0.0
3275,45.0,0.0,180.0,0.0,0.0
3276,41.0,60.0,180.0,0.0,0.0
3277,72.0,60.0,120.0,0.0,0.0
3278,76.0,120.0,120.0,0.0,0.0
3279,41.0,0.0,180.0,0.0,0.0
3280,45.0,0.0,180.0,0.0,0.0
3281,48.0,60.0,180.0,0.0,0.0
3282,77.0,60.0,120.0,0.0,0.0
3283,76.0,120.0,120.0,0.0,0.0
3284,77.0,120.0,120.0,0.0,0.0
3285,80.0,120.0,120.0,0.0,0.0
3286,81.0,60.0,120.0,0.0,0.0
3287,48.0,60.0,180.0,0.0,0.0
3288,45.0,0.0,180.0,0.0,0.0
3289,41.0,0.0,180.0,0.0,0.0
3290,80.0,120.0,120.0,0.0,0.0
3291,45.0,0.0,180.0,0.0,0.0
3292,41.0,0.0,180.0,0.0,0.0
3293,81.0,60.0,120.0,0.0,0.0
3294,48.0,60.0,180.0,0.0,0.0
3295,83.0,120.0,120.0,0.0,0.0
3296,41.0,0.0,180.0,0.0,0.0
3297,45.0,0.0,180.0,0.0,0.0
3298,48.0,60.0,180.0,0.0,0.0
3299,84.0,60.0,120.0,0.0,0.0
3300,83.0,120.0,120.0,0.0,0.0
3301,84.0,120.0,120.0,0.0,0.0
3302,83.0,120.0,120.0,0.0,0.0
3303,41.0,0.0,180.0,0.0,0.0
3304,48.0,0.0,180.0,0.0,0.0
3305,81.0,60.0,120.0,0.0,0.0
3306,45.0,60.0,180.0,0.0,0.0
3307,80.0,120.0,120.0,0.0,0.0
3308,81.0,60.0,120.0,0.0,0.0
3309,50.0,0.0,180.0,0.0,0.0
3310,45.0,0.0,180.0,0.0,0.0
3311,42.0,0.0,180.0,0.0,0.0
3312,48.0,60.0,180.0,0.0,0.0
3313,80.0,120.0,120.0,0.0,0.0
3314,50.0,0.0,180.0,0.0,0.0
3315,45.0,60.0,180.0,0.0,0.0
3316,42.0,0.0,180.0,0.0,0.0
3317,48.0,0.0,180.0,0.0,0.0
3318,81.0,60.0,120.0,0.0,0.0
3319,83.0,120.0,120.0,0.0,0.0
3320,84.0,120.0,120.0,0.0,0.0
3321,83.0,120.0,120.0,0.0,0.0
3322,48.0,0.0,180.0,0.0,0.0
3323,50.0,0.0,180.0,0.0,0.0
3324,45.0,0.0,180.0,0.0,0.0
3325,42.0,60.0,180.0,0.0,0.0
3326,81.0,60.0,120.0,0.0,0.0
3327,80.0,120.0,120.0,0.0,0.0
3328,81.0,60.0,120.0,0.0,0.0
3329,50.0,60.0,180.0,0.0,0.0
3330,45.0,0.0,180.0,0.0,0.0
3331,42.0,0.0,180.0,0.0,0.0
3332,48.0,0.0,180.0,0.0,0.0
3333,80.0,120.0,120.0,0.0,0.0
3334,81.0,60.0,120.0,0.0,0.0
3335,48.0,0.0,180.0,0.0,0.0
3336,42.0,0.0,180.0,0.0,0.0
3337,45.0,0.0,180.0,0.0,0.0
3338,50.0,60.0,180.0,0.0,0.0
3339,83.0,120.0,120.0,0.0,0.0
3340,84.0,120.0,120.0,0.0,0.0
3341,83.0,120.0,120.0,0.0,0.0
3342,45.0,60.0,180.0,0.0,0.0
3343,81.0,60.0,120.0,0.0,0.0
3344,48.0,0.0,180.0,0.0,0.0
3345,42.0,0.0,180.0,0.0,0.0
3346,50.0,0.0,180.0,0.0,0.0
3347,80.0,120.0,120.0,0.0,0.0
3348,50.0,0.0,180.0,0.0,0.0
3349,81.0,60.0,120.0,0.0,0.0
3350,48.0,0.0,180.0,0.0,0.0
3351,45.0,60.0,180.0,0.0,0.0
3352,42.0,0.0,180.0,0.0,0.0
3353,80.0,120.0,120.0,0.0,0.0
3354,42.0,60.0,180.0,0.0,0.0
3355,45.0,0.0,180.0,0.0,0.0
3356,50.0,0.0,180.0,0.0,0.0
3357,48.0,0.0,180.0,0.0,0.0
3358,81.0,60.0,120.0,0.0,0.0
3359,83.0,120.0,120.0,0.0,0.0
3360,84.0,120.0,120.0,0.0,0.0
3361,83.0,120.0,120.0,0.0,0.0
3362,48.0,0.0,180.0,0.0,0.0
3363,42.0,0.0,180.0,0.0,0.0
3364,81.0,60.0,120.0,0.0,0.0
3365,45.0,60.0,180.0,0.0,0.0
3366,50.0,0.0,180.0,0.0,0.0
3367,80.0,120.0,120.0,0.0,0.0
3368,81.0,60.0,120.0,0.0,0.0
3369,42.0,0.0,180.0,0.0,0.0
3370,48.0,0.0,180.0,0.0,0.0
3371,50.0,0.0,180.0,0.0,0.0
3372,45.0,60.0,180.0,0.0,0.0
3373,80.0,120.0,120.0,0.0,0.0
3374,81.0,60.0,120.0,0.0,0.0
3375,48.0,0.0,180.0,0.0,0.0
3376,42.0,0.0,180.0,0.0,0.0
3377,45.0,60.0,180.0,0.0,0.0
3378,50.0,0.0,180.0,0.0,0.0
3379,83.0,120.0,120.0,0.0,0.0
3380,84.0,120.0,120.0,0.0,0.0
3381,83.0,120.0,120.0,0.0,0.0
3382,45.0,0.0,180.0,0.0,0.0
3383,50.0,60.0,180.0,0.0,0.0
3384,42.0,0.0,180.0,0.0,0.0
3385,48.0,0.0,180.0,0.0,0.0
3386,84.0,60.0,120.0,0.0,0.0
3387,81.0,120.0,120.0,0.0,0.0
3388,79.0,0.0,120.0,0.0,0.0
3389,67.0,0.0,120.0,0.0,0.0
3390,43.0,120.0,120.0,0.0,0.0
3391,48.0,120.0,120.0,0.0,0.0
3392,67.0,0.0,120.0,0.0,0.0
3393,79.0,120.0,120.0,0.0,0.0
3394,52.0,0.0,120.0,0.0,0.0
3395,55.0,120.0,120.0,0.0,0.0
3396,43.0,120.0,120.0,0.0,0.0
3397,64.0,0.0,120.0,0.0,0.0
3398,76.0,0.0,120.0,0.0,0.0
3399,48.0,120.0,120.0,0.0,0.0
3400,60.0,120.0,120.0,0.0,0.0
3401,52.0,0.0,120.0,0.0,0.0
3402,72.0,0.0,120.0,0.0,0.0
3403,55.0,120.0,120.0,0.0,0.0
3404,43.0,120.0,120.0,0.0,0.0
3405,72.0,0.0,120.0,0.0,0.0
3406,84.0,0.0,120.0,0.0,0.0
3407,48.0,120.0,120.0,0.0,0.0
3408,84.0,0.0,120.0,0.0,0.0
3409,52.0,0.0,120.0,0.0,0.0
3410,72.0,120.0,120.0,0.0,0.0
3411,55.0,120.0,120.0,0.0,0.0
3412,43.0,120.0,120.0,0.0,0.0
3413,79.0,0.0,120.0,0.0,0.0
3414,67.0,0.0,120.0,0.0,0.0
3415,48.0,120.0,120.0,0.0,0.0
3416,64.0,120.0,120.0,0.0,0.0
3417,76.0,0.0,120.0,0.0,0.0
3418,52.0,0.0,120.0,0.0,0.0
3419,55.0,120.0,120.0,0.0,0.0
3420,43.0,120.0,120.0,0.0,0.0
3421,67.0,0.0,120.0,0.0,0.0
3422,79.0,0.0,120.0,0.0,0.0
3423,48.0,120.0,120.0,0.0,0.0
3424,67.0,0.0,120.0,0.0,0.0
3425,79.0,0.0,120.0,0.0,0.0
3426,52.0,120.0,120.0,0.0,0.0
3427,55.0,120.0,120.0,0.0,0.0
3428,64.0,0.0,120.0,0.0,0.0
3429,76.0,0.0,120.0,0.0,0.0
3430,43.0,120.0,120.0,0.0,0.0
3431,48.0,120.0,120.0,0.0,0.0
3432,72.0,0.0,120.0,0.0,0.0
3433,60.0,120.0,120.0,0.0,0.0
3434,52.0,0.0,120.0,0.0,0.0
3435,55.0,120.0,120.0,0.0,0.0
3436,84.0,0.0,120.0,0.0,0.0
3437,72.0,240.0,120.0,0.0,0.0
3438,52.0,0.0,120.0,0.0,0.0
3439,72.0,0.0,120.0,0.0,0.0
3440,52.0,240.0,120.0,0.0,0.0
3441,84.0,0.0,120.0,0.0,0.0
3442,79.0,0.0,120.0,0.0,0.0
3443,67.0,0.0,120.0,0.0,0.0
3444,48.0,240.0,120.0,0.0,0.0
3445,76.0,0.0,120.0,0.0,0.0
3446,64.0,240.0,120.0,0.0,0.0
3447,43.0,0.0,120.0,0.0,0.0
3448,55.0,120.0,120.0,0.0,0.0
3449,76.0,120.0,120.0,0.0,0.0
3450,52.0,120.0,120.0,0.0,0.0
3451,79.0,120.0,240.0,0.0,0.0
3452,76.0,0.0,120.0,0.0,0.0
3453,60.0,120.0,120.0,0.0,0.0
3454,76.0,120.0,120.0,0.0,0.0
3455,79.0,0.0,15.0,0.0,0.0
3456,55.0,120.0,120.0,0.0,0.0
3457,76.0,120.0,120.0,0.0,0.0
3458,79.0,120.0,240.0,0.0,0.0
3459,64.0,120.0,120.0,0.0,0.0
3460,76.0,0.0,120.0,0.0,0.0
3461,79.0,120.0,240.0,0.0,0.0
3462,60.0,120.0,120.0,0.0,0.0
3463,76.0,0.0,120.0,0.0,0.0
3464,79.0,0.0,240.0,0.0,0.0
3465,67.0,120.0,120.0,0.0,0.0
3466,76.0,120.0,120.0,0.0,0.0
3467,79.0,120.0,240.0,0.0,0.0
3468,64.0,120.0,120.0,0.0,0.0
3469,76.0,0.0,120.0,0.0,0.0
3470,72.0,120.0,120.0,0.0,0.0
3471,76.0,120.0,120.0,0.0,0.0
3472,79.0,0.0,15.0,0.0,0.0
3473,67.0,120.0,120.0,0.0,0.0
3474,76.0,120.0,120.0,0.0,0.0
3475,72.0,120.0,120.0,0.0,0.0
3476,76.0,120.0,120.0,0.0,0.0
3477,67.0,120.0,120.0,0.0,0.0
3478,79.0,0.0,15.0,0.0,0.0
3479,76.0,120.0,120.0,0.0,0.0
3480,72.0,120.0,120.0,0.0,0.0
3481,79.0,0.0,240.0,0.0,0.0
3482,76.0,120.0,120.0,0.0,0.0
3483,67.0,120.0,120.0,0.0,0.0
3484,76.0,120.0,120.0,0.0,0.0
3485,72.0,120.0,120.0,0.0,0.0
3486,79.0,0.0,15.0,0.0,0.0
3487,76.0,120.0,120.0,0.0,0.0
3488,79.0,0.0,15.0,0.0,0.0
3489,67.0,120.0,120.0,0.0,0.0
3490,76.0,0.0,120.0,0.0,0.0
3491,71.0,120.0,120.0,0.0,0.0
3492,77.0,120.0,120.0,0.0,0.0
3493,79.0,120.0,240.0,0.0,0.0
3494,67.0,120.0,120.0,0.0,0.0
3495,77.0,0.0,120.0,0.0,0.0
3496,80.0,120.0,240.0,0.0,0.0
3497,71.0,120.0,120.0,0.0,0.0
3498,77.0,0.0,120.0,0.0,0.0
3499,79.0,120.0,240.0,0.0,0.0
3500,67.0,120.0,120.0,0.0,0.0
3501,77.0,0.0,120.0,0.0,0.0
3502,71.0,120.0,120.0,0.0,0.0
3503,80.0,120.0,240.0,0.0,0.0
3504,77.0,0.0,120.0,0.0,0.0
3505,67.0,120.0,120.0,0.0,0.0
3506,79.0,0.0,240.0,0.0,0.0
3507,77.0,120.0,120.0,0.0,0.0
3508,80.0,120.0,240.0,0.0,0.0
3509,71.0,120.0,120.0,0.0,0.0
3510,77.0,0.0,120.0,0.0,0.0
3511,67.0,120.0,120.0,0.0,0.0
3512,79.0,120.0,240.0,0.0,0.0
3513,77.0,0.0,120.0,0.0,0.0
3514,71.0,120.0,120.0,0.0,0.0
3515,80.0,0.0,240.0,0.0,0.0
3516,77.0,120.0,120.0,0.0,0.0
3517,67.0,120.0,120.0,0.0,0.0
3518,79.0,0.0,240.0,0.0,0.0
3519,77.0,120.0,120.0,0.0,0.0
3520,71.0,120.0,120.0,0.0,0.0
3521,80.0,0.0,240.0,0.0,0.0
3522,77.0,120.0,120.0,0.0,0.0
3523,79.0,0.0,240.0,0.0,0.0
3524,67.0,120.0,120.0,0.0,0.0
3525,77.0,120.0,120.0,0.0,0.0
3526,71.0,120.0,120.0,0.0,0.0
3527,80.0,120.0,240.0,0.0,0.0
3528,77.0,0.0,120.0,0.0,0.0
3529,79.0,0.0,240.0,0.0,0.0
3530,67.0,120.0,120.0,0.0,0.0
3531,77.0,120.0,120.0,0.0,0.0
3532,80.0,120.0,240.0,0.0,0.0
3533,71.0,120.0,120.0,0.0,0.0
3534,77.0,0.0,120.0,0.0,0.0
3535,67.0,120.0,120.0,0.0,0.0
3536,79.0,80.0,240.0,0.0,0.0
3537,77.0,0.0,120.0,0.0,0.0
3538,71.0,80.0,90.0,0.0,0.0
3539,81.0,0.0,240.0,0.0,0.0
3540,72.0,80.0,90.0,0.0,0.0
3541,77.0,80.0,120.0,0.0,0.0
3542,71.0,0.0,90.0,0.0,0.0
3543,72.0,80.0,90.0,0.0,0.0
3544,79.0,0.0,240.0,0.0,0.0
3545,71.0,80.0,90.0,0.0,0.0
3546,77.0,0.0,120.0,0.0,0.0
3547,72.0,80.0,90.0,0.0,0.0
3548,81.0,80.0,240.0,0.0,0.0
3549,71.0,80.0,90.0,0.0,0.0
3550,72.0,80.0,90.0,0.0,0.0
3551,77.0,0.0,120.0,0.0,0.0
3552,71.0,0.0,90.0,0.0,0.0
3553,72.0,80.0,90.0,0.0,0.0
3554,79.0,80.0,240.0,0.0,0.0
3555,71.0,80.0,90.0,0.0,0.0
3556,77.0,0.0,120.0,0.0,0.0
3557,72.0,0.0,90.0,0.0,0.0
3558,71.0,80.0,90.0,0.0,0.0
3559,81.0,0.0,240.0,0.0,0.0
3560,72.0,80.0,90.0,0.0,0.0
3561,77.0,0.0,120.0,0.0,0.0
3562,71.0,80.0,90.0,0.0,0.0
3563,79.0,0.0,240.0,0.0,0.0
3564,72.0,80.0,90.0,0.0,0.0
3565,71.0,80.0,90.0,0.0,0.0
3566,77.0,80.0,120.0,0.0,0.0
3567,72.0,0.0,90.0,0.0,0.0
3568,71.0,80.0,90.0,0.0,0.0
3569,81.0,0.0,240.0,0.0,0.0
3570,72.0,80.0,90.0,0.0,0.0
3571,77.0,0.0,120.0,0.0,0.0
3572,71.0,80.0,90.0,0.0,0.0
3573,72.0,80.0,90.0,0.0,0.0
3574,79.0,0.0,240.0,0.0,0.0
3575,71.0,80.0,90.0,0.0,0.0
3576,77.0,0.0,120.0,0.0,0.0
3577,72.0,80.0,90.0,0.0,0.0
3578,71.0,80.0,90.0,0.0,0.0
3579,72.0,80.0,90.0,0.0,0.0
3580,79.0,0.0,120.0,0.0,0.0
3581,77.0,0.0,120.0,0.0,0.0
3582,71.0,80.0,90.0,0.0,0.0
3583,86.0,0.0,15.0,0.0,0.0
3584,72.0,80.0,90.0,0.0,0.0
3585,71.0,80.0,90.0,0.0,0.0
3586,77.0,0.0,120.0,0.0,0.0
3587,79.0,0.0,120.0,0.0,0.0
3588,72.0,80.0,90.0,0.0,0.0
3589,86.0,0.0,15.0,0.0,0.0
3590,71.0,80.0,90.0,0.0,0.0
3591,72.0,80.0,90.0,0.0,0.0
3592,79.0,0.0,120.0,0.0,0.0
3593,77.0,0.0,120.0,0.0,0.0
3594,71.0,80.0,90.0,0.0,0.0
3595,86.0,0.0,240.0,0.0,0.0
3596,72.0,80.0,90.0,0.0,0.0
3597,71.0,80.0,90.0,0.0,0.0
3598,79.0,0.0,120.0,0.0,0.0
3599,77.0,80.0,120.0,0.0,0.0
3600,72.0,0.0,90.0,0.0,0.0
3601,71.0,80.0,90.0,0.0,0.0
3602,72.0,80.0,90.0,0.0,0.0
3603,77.0,0.0,120.0,0.0,0.0
3604,79.0,80.0,120.0,0.0,0.0
3605,71.0,0.0,90.0,0.0,0.0
3606,86.0,0.0,15.0,0.0,0.0
3607,72.0,80.0,90.0,0.0,0.0
3608,71.0,80.0,90.0,0.0,0.0
3609,77.0,0.0,120.0,0.0,0.0
3610,79.0,0.0,120.0,0.0,0.0
3611,72.0,120.0,90.0,0.0,0.0
3612,71.0,120.0,120.0,0.0,0.0
3613,86.0,120.0,240.0,0.0,0.0
3614,77.0,0.0,120.0,0.0,0.0
3615,79.0,0.0,120.0,0.0,0.0
3616,72.0,0.0,120.0,0.0,0.0
3617,69.0,120.0,120.0,0.0,0.0
3618,86.0,0.0,240.0,0.0,0.0
3619,77.0,0.0,120.0,0.0,0.0
3620,79.0,0.0,120.0,0.0,0.0
3621,71.0,960.0,120.0,0.0,0.0
3622,76.0,0.0,1440.0,0.0,0.0
3623,79.0,0.0,1440.0,0.0,0.0
3624,60.0,120.0,3840.0,0.0,0.0
3625,72.0,480.0,960.0,0.0,0.0
3626,64.0,0.0,960.0,0.0,0.0
3627,67.0,0.0,960.0,0.0,0.0
3628,70.0,0.0,960.0,0.0,0.0
3629,84.0,120.0,15.0,0.0,0.0
3630,82.0,120.0,120.0,0.0,0.0
3631,80.0,120.0,120.0,0.0,0.0
3632,79.0,120.0,120.0,0.0,0.0
3633,68.0,0.0,960.0,0.0,0.0
3634,80.0,120.0,120.0,0.0,0.0
3635,65.0,0.0,960.0,0.0,0.0
3636,79.0,120.0,120.0,0.0,0.0
3637,77.0,120.0,120.0,0.0,0.0
3638,76.0,120.0,120.0,0.0,0.0
3639,77.0,120.0,120.0,0.0,0.0
3640,79.0,120.0,120.0,0.0,0.0
3641,80.0,120.0,120.0,0.0,0.0
3642,82.0,120.0,120.0,0.0,0.0
3643,70.0,0.0,960.0,0.0,0.0
3644,67.0,0.0,960.0,0.0,0.0
3645,64.0,0.0,960.0,0.0,0.0
3646,84.0,120.0,120.0,0.0,0.0
3647,85.0,120.0,120.0,0.0,0.0
3648,84.0,120.0,120.0,0.0,0.0
3649,83.0,120.0,120.0,0.0,0.0
3650,84.0,120.0,120.0,0.0,0.0
3651,82.0,120.0,120.0,0.0,0.0
3652,80.0,120.0,120.0,0.0,0.0
3653,79.0,0.0,120.0,0.0,0.0
3654,80.0,120.0,120.0,0.0,0.0
3655,68.0,0.0,480.0,0.0,0.0
3656,65.0,0.0,480.0,0.0,0.0
3657,82.0,120.0,120.0,0.0,0.0
3658,80.0,120.0,120.0,0.0,0.0
3659,79.0,120.0,120.0,0.0,0.0
3660,77.0,120.0,120.0,0.0,0.0
3661,76.0,120.0,120.0,0.0,0.0
3662,77.0,120.0,120.0,0.0,0.0
3663,79.0,480.0,120.0,0.0,0.0
3664,80.0,240.0,480.0,0.0,0.0
3665,68.0,0.0,960.0,0.0,0.0
3666,56.0,0.0,960.0,0.0,0.0
3667,62.0,480.0,960.0,0.0,0.0
3668,65.0,0.0,960.0,0.0,0.0
3669,53.0,0.0,960.0,0.0,0.0
3670,77.0,240.0,240.0,0.0,0.0
3671,74.0,0.0,240.0,0.0,0.0
3672,67.0,0.0,960.0,0.0,0.0
3673,63.0,480.0,960.0,0.0,0.0
3674,79.0,240.0,480.0,0.0,0.0
3675,60.0,0.0,960.0,0.0,0.0
3676,75.0,240.0,240.0,0.0,0.0
3677,72.0,0.0,240.0,0.0,0.0
3678,55.0,0.0,15.0,0.0,0.0
3679,62.0,0.0,960.0,0.0,0.0
3680,59.0,0.0,960.0,0.0,0.0
3681,65.0,0.0,960.0,0.0,0.0
3682,77.0,240.0,480.0,0.0,0.0
3683,74.0,240.0,240.0,0.0,0.0
3684,71.0,960.0,240.0,0.0,0.0
3685,60.0,480.0,960.0,0.0,0.0
3686,48.0,0.0,3840.0,0.0,0.0
3687,58.0,120.0,960.0,0.0,0.0
3688,55.0,0.0,960.0,0.0,0.0
3689,52.0,0.0,960.0,0.0,0.0
3690,72.0,120.0,15.0,0.0,0.0
3691,70.0,120.0,120.0,0.0,0.0
3692,68.0,120.0,120.0,0.0,0.0
3693,67.0,0.0,120.0,0.0,0.0
3694,68.0,120.0,120.0,0.0,0.0
3695,53.0,120.0,960.0,0.0,0.0
3696,56.0,0.0,960.0,0.0,0.0
3697,67.0,120.0,120.0,0.0,0.0
3698,65.0,120.0,120.0,0.0,0.0
3699,64.0,120.0,120.0,0.0,0.0
3700,65.0,120.0,120.0,0.0,0.0
3701,67.0,120.0,120.0,0.0,0.0
3702,68.0,120.0,120.0,0.0,0.0
3703,70.0,0.0,120.0,0.0,0.0
3704,72.0,120.0,120.0,0.0,0.0
3705,58.0,0.0,960.0,0.0,0.0
3706,55.0,0.0,960.0,0.0,0.0
3707,52.0,120.0,960.0,0.0,0.0
3708,73.0,120.0,120.0,0.0,0.0
3709,72.0,120.0,120.0,0.0,0.0
3710,71.0,120.0,120.0,0.0,0.0
3711,72.0,120.0,120.0,0.0,0.0
3712,70.0,120.0,120.0,0.0,0.0
3713,68.0,120.0,120.0,0.0,0.0
3714,67.0,0.0,120.0,0.0,0.0
3715,56.0,0.0,480.0,0.0,0.0
3716,68.0,120.0,120.0,0.0,0.0
3717,53.0,120.0,480.0,0.0,0.0
3718,70.0,120.0,120.0,0.0,0.0
3719,68.0,120.0,120.0,0.0,0.0
3720,67.0,0.0,120.0,0.0,0.0
3721,65.0,120.0,120.0,0.0,0.0
3722,64.0,120.0,120.0,0.0,0.0
3723,65.0,120.0,120.0,0.0,0.0
3724,67.0,480.0,120.0,0.0,0.0
3725,44.0,0.0,960.0,0.0,0.0
3726,56.0,0.0,960.0,0.0,0.0
3727,68.0,240.0,480.0,0.0,0.0
3728,41.0,0.0,960.0,0.0,0.0
3729,50.0,0.0,960.0,0.0,0.0
3730,53.0,0.0,960.0,0.0,0.0
3731,65.0,240.0,240.0,0.0,0.0
3732,62.0,480.0,240.0,0.0,0.0
3733,48.0,0.0,960.0,0.0,0.0
3734,51.0,0.0,960.0,0.0,0.0
3735,55.0,0.0,960.0,0.0,0.0
3736,67.0,240.0,480.0,0.0,0.0
3737,63.0,240.0,240.0,0.0,0.0
3738,60.0,480.0,240.0,0.0,0.0
3739,43.0,0.0,15.0,0.0,0.0
3740,47.0,0.0,960.0,0.0,0.0
3741,50.0,0.0,960.0,0.0,0.0
3742,53.0,240.0,960.0,0.0,0.0
3743,65.0,240.0,480.0,0.0,0.0
3744,62.0,240.0,240.0,0.0,0.0
3745,59.0,0.0,240.0,0.0,0.0
3746,51.0,0.0,480.0,0.0,0.0
3747,60.0,240.0,240.0,0.0,0.0
3748,48.0,240.0,15.0,0.0,0.0
3749,39.0,0.0,480.0,0.0,0.0
3750,72.0,240.0,240.0,0.0,0.0
3751,70.0,240.0,240.0,0.0,0.0
3752,41.0,0.0,960.0,0.0,0.0
3753,68.0,240.0,480.0,0.0,0.0
3754,49.0,0.0,240.0,0.0,0.0
3755,51.0,0.0,240.0,0.0,0.0
3756,65.0,240.0,240.0,0.0,0.0
3757,53.0,0.0,240.0,0.0,0.0
3758,61.0,480.0,240.0,0.0,0.0
3759,51.0,0.0,960.0,0.0,0.0
3760,43.0,0.0,1920.0,0.0,0.0
3761,55.0,480.0,960.0,0.0,0.0
3762,67.0,240.0,480.0,0.0,0.0
3763,63.0,240.0,240.0,0.0,0.0
3764,60.0,0.0,240.0,0.0,0.0
3765,53.0,240.0,960.0,0.0,0.0
3766,65.0,240.0,480.0,0.0,0.0
3767,50.0,0.0,960.0,0.0,0.0
3768,62.0,240.0,240.0,0.0,0.0
3769,59.0,0.0,240.0,0.0,0.0
3770,51.0,240.0,480.0,0.0,0.0
3771,48.0,0.0,480.0,0.0,0.0
3772,44.0,0.0,480.0,0.0,0.0
3773,60.0,240.0,240.0,0.0,0.0
3774,68.0,240.0,240.0,0.0,0.0
3775,36.0,0.0,480.0,0.0,0.0
3776,44.0,240.0,720.0,0.0,0.0
3777,67.0,240.0,240.0,0.0,0.0
3778,37.0,0.0,960.0,0.0,0.0
3779,65.0,0.0,480.0,0.0,0.0
3780,46.0,240.0,240.0,0.0,0.0
3781,48.0,240.0,240.0,0.0,0.0
3782,61.0,0.0,240.0,0.0,0.0
3783,58.0,0.0,240.0,0.0,0.0
3784,49.0,480.0,240.0,0.0,0.0
3785,51.0,0.0,960.0,0.0,0.0
3786,63.0,240.0,480.0,0.0,0.0
3787,48.0,480.0,960.0,0.0,0.0
3788,39.0,0.0,1920.0,0.0,0.0
3789,60.0,240.0,240.0,0.0,0.0
3790,56.0,0.0,240.0,0.0,0.0
3791,49.0,480.0,960.0,0.0,0.0
3792,46.0,0.0,960.0,0.0,0.0
3793,61.0,240.0,480.0,0.0,0.0
3794,58.0,240.0,240.0,0.0,0.0
3795,55.0,0.0,240.0,0.0,0.0
3796,48.0,0.0,480.0,0.0,0.0
3797,44.0,0.0,480.0,0.0,0.0
3798,56.0,240.0,480.0,0.0,0.0
3799,41.0,240.0,480.0,0.0,0.0
3800,49.0,240.0,720.0,0.0,0.0
3801,73.0,240.0,240.0,0.0,0.0
3802,72.0,0.0,240.0,0.0,0.0
3803,70.0,0.0,480.0,0.0,0.0
3804,42.0,0.0,960.0,0.0,0.0
3805,51.0,240.0,240.0,0.0,0.0
3806,66.0,0.0,240.0,0.0,0.0
3807,53.0,240.0,240.0,0.0,0.0
3808,63.0,0.0,240.0,0.0,0.0
3809,54.0,480.0,240.0,0.0,0.0
3810,56.0,0.0,960.0,0.0,0.0
3811,44.0,0.0,1920.0,0.0,0.0
3812,53.0,0.0,960.0,0.0,0.0
3813,68.0,240.0,480.0,0.0,0.0
3814,65.0,240.0,240.0,0.0,0.0
3815,61.0,480.0,240.0,0.0,0.0
3816,51.0,240.0,960.0,0.0,0.0
3817,54.0,0.0,960.0,0.0,0.0
3818,66.0,240.0,480.0,0.0,0.0
3819,63.0,240.0,240.0,0.0,0.0
3820,60.0,0.0,240.0,0.0,0.0
3821,53.0,0.0,480.0,0.0,0.0
3822,49.0,0.0,480.0,0.0,0.0
3823,46.0,240.0,480.0,0.0,0.0
3824,61.0,240.0,240.0,0.0,0.0
3825,37.0,240.0,720.0,0.0,0.0
3826,29.0,240.0,480.0,0.0,0.0
3827,61.0,240.0,240.0,0.0,0.0
3828,60.0,0.0,240.0,0.0,0.0
3829,58.0,0.0,480.0,0.0,0.0
3830,30.0,480.0,960.0,0.0,0.0
3831,39.0,240.0,240.0,0.0,0.0
3832,41.0,0.0,240.0,0.0,0.0
3833,54.0,240.0,240.0,0.0,0.0
3834,51.0,0.0,240.0,0.0,0.0
3835,42.0,0.0,240.0,0.0,0.0
3836,56.0,240.0,480.0,0.0,0.0
3837,44.0,0.0,960.0,0.0,0.0
3838,41.0,480.0,960.0,0.0,0.0
3839,32.0,120.0,1920.0,0.0,0.0
3840,53.0,240.0,240.0,0.0,0.0
3841,49.0,0.0,240.0,0.0,0.0
3842,39.0,0.0,960.0,0.0,0.0
3843,42.0,0.0,960.0,0.0,0.0
3844,54.0,240.0,480.0,0.0,0.0
3845,51.0,240.0,240.0,0.0,0.0
3846,48.0,0.0,240.0,0.0,0.0
3847,49.0,120.0,240.0,0.0,0.0
3848,41.0,0.0,120.0,0.0,0.0
3849,37.0,120.0,120.0,0.0,0.0
3850,25.0,0.0,120.0,0.0,0.0
3851,41.0,0.0,120.0,0.0,0.0
3852,32.0,0.0,120.0,0.0,0.0
3853,25.0,240.0,120.0,0.0,0.0
3854,37.0,0.0,120.0,0.0,0.0
3855,32.0,0.0,120.0,0.0,0.0
3856,41.0,0.0,120.0,0.0,0.0
3857,37.0,240.0,120.0,0.0,0.0
3858,25.0,0.0,120.0,0.0,0.0
3859,25.0,0.0,120.0,0.0,0.0
3860,32.0,0.0,120.0,0.0,0.0
3861,41.0,240.0,120.0,0.0,0.0
3862,37.0,0.0,120.0,0.0,0.0
3863,37.0,240.0,120.0,0.0,0.0
3864,41.0,0.0,120.0,0.0,0.0
3865,25.0,0.0,120.0,0.0,0.0
3866,32.0,0.0,120.0,0.0,0.0
3867,25.0,0.0,120.0,0.0,0.0
3868,37.0,240.0,120.0,0.0,0.0
3869,41.0,0.0,120.0,0.0,0.0
3870,32.0,0.0,120.0,0.0,0.0
3871,37.0,0.0,120.0,0.0,0.0
3872,25.0,240.0,120.0,0.0,0.0
3873,41.0,0.0,120.0,0.0,0.0
3874,32.0,0.0,120.0,0.0,0.0
3875,41.0,0.0,120.0,0.0,0.0
3876,37.0,0.0,120.0,0.0,0.0
3877,25.0,240.0,120.0,0.0,0.0
3878,32.0,0.0,120.0,0.0,0.0
3879,37.0,0.0,120.0,0.0,0.0
3880,32.0,0.0,120.0,0.0,0.0
3881,25.0,240.0,120.0,0.0,0.0
3882,41.0,0.0,120.0,0.0,0.0
3883,41.0,0.0,120.0,0.0,0.0
3884,32.0,240.0,120.0,0.0,0.0
3885,37.0,0.0,120.0,0.0,0.0
3886,25.0,0.0,120.0,0.0,0.0
3887,41.0,0.0,120.0,0.0,0.0
3888,37.0,0.0,120.0,0.0,0.0
3889,25.0,0.0,120.0,0.0,0.0
3890,32.0,240.0,120.0,0.0,0.0
3891,37.0,0.0,120.0,0.0,0.0
3892,32.0,240.0,120.0,0.0,0.0
3893,25.0,0.0,120.0,0.0,0.0
3894,41.0,0.0,120.0,0.0,0.0
3895,25.0,240.0,120.0,0.0,0.0
3896,37.0,0.0,120.0,0.0,0.0
3897,41.0,0.0,120.0,0.0,0.0
3898,32.0,0.0,120.0,0.0,0.0
3899,32.0,0.0,120.0,0.0,0.0
3900,25.0,0.0,120.0,0.0,0.0
3901,37.0,0.0,120.0,0.0,0.0
3902,41.0,240.0,120.0,0.0,0.0
3903,34.0,0.0,120.0,0.0,0.0
3904,25.0,0.0,120.0,0.0,0.0
3905,43.0,240.0,120.0,0.0,0.0
3906,39.0,0.0,120.0,0.0,0.0
3907,39.0,0.0,120.0,0.0,0.0
3908,34.0,300.0,120.0,0.0,0.0
3909,25.0,0.0,120.0,0.0,0.0
3910,43.0,0.0,120.0,0.0,0.0
3911,44.0,120.0,720.0,0.0,0.0
3912,39.0,240.0,180.0,0.0,0.0
3913,36.0,0.0,180.0,0.0,0.0
3914,39.0,240.0,180.0,0.0,0.0
3915,36.0,0.0,180.0,0.0,0.0
3916,39.0,60.0,180.0,0.0,0.0
3917,36.0,0.0,180.0,0.0,0.0
3918,48.0,60.0,120.0,0.0,0.0
3919,36.0,60.0,180.0,0.0,0.0
3920,39.0,0.0,180.0,0.0,0.0
3921,46.0,120.0,120.0,0.0,0.0
3922,44.0,60.0,120.0,0.0,0.0
3923,36.0,0.0,180.0,0.0,0.0
3924,39.0,240.0,180.0,0.0,0.0
3925,39.0,0.0,180.0,0.0,0.0
3926,36.0,240.0,180.0,0.0,0.0
3927,36.0,240.0,180.0,0.0,0.0
3928,39.0,0.0,180.0,0.0,0.0
3929,36.0,60.0,180.0,0.0,0.0
3930,39.0,0.0,180.0,0.0,0.0
3931,74.0,180.0,60.0,0.0,0.0
3932,75.0,60.0,600.0,0.0,0.0
3933,39.0,0.0,180.0,0.0,0.0
3934,35.0,240.0,180.0,0.0,0.0
3935,35.0,180.0,180.0,0.0,0.0
3936,39.0,0.0,180.0,0.0,0.0
3937,35.0,0.0,180.0,0.0,0.0
3938,39.0,60.0,180.0,0.0,0.0
3939,73.0,120.0,120.0,0.0,0.0
3940,39.0,60.0,180.0,0.0,0.0
3941,71.0,60.0,120.0,0.0,0.0
3942,35.0,0.0,180.0,0.0,0.0
3943,70.0,180.0,120.0,0.0,0.0
3944,35.0,0.0,180.0,0.0,0.0
3945,39.0,60.0,180.0,0.0,0.0
3946,68.0,180.0,240.0,0.0,0.0
3947,39.0,240.0,180.0,0.0,0.0
3948,35.0,0.0,180.0,0.0,0.0
3949,39.0,0.0,180.0,0.0,0.0
3950,35.0,240.0,180.0,0.0,0.0
3951,39.0,0.0,180.0,0.0,0.0
3952,35.0,240.0,180.0,0.0,0.0
3953,34.0,240.0,180.0,0.0,0.0
3954,50.0,120.0,720.0,0.0,0.0
3955,41.0,0.0,180.0,0.0,0.0
3956,41.0,240.0,180.0,0.0,0.0
3957,34.0,0.0,180.0,0.0,0.0
3958,41.0,0.0,180.0,0.0,0.0
3959,34.0,60.0,180.0,0.0,0.0
3960,34.0,0.0,180.0,0.0,0.0
3961,53.0,60.0,120.0,0.0,0.0
3962,41.0,60.0,180.0,0.0,0.0
3963,51.0,120.0,120.0,0.0,0.0
3964,50.0,60.0,120.0,0.0,0.0
3965,41.0,240.0,180.0,0.0,0.0
3966,34.0,0.0,180.0,0.0,0.0
3967,34.0,240.0,180.0,0.0,0.0
3968,41.0,0.0,180.0,0.0,0.0
3969,34.0,240.0,180.0,0.0,0.0
3970,41.0,0.0,180.0,0.0,0.0
3971,34.0,0.0,180.0,0.0,0.0
3972,41.0,60.0,180.0,0.0,0.0
3973,82.0,180.0,60.0,0.0,0.0
3974,38.0,240.0,180.0,0.0,0.0
3975,83.0,60.0,600.0,0.0,0.0
3976,46.0,0.0,180.0,0.0,0.0
3977,38.0,0.0,180.0,0.0,0.0
3978,46.0,180.0,180.0,0.0,0.0
3979,46.0,0.0,180.0,0.0,0.0
3980,38.0,60.0,180.0,0.0,0.0
3981,82.0,120.0,120.0,0.0,0.0
3982,46.0,0.0,180.0,0.0,0.0
3983,38.0,60.0,180.0,0.0,0.0
3984,80.0,60.0,120.0,0.0,0.0
3985,78.0,180.0,120.0,0.0,0.0
3986,77.0,180.0,240.0,0.0,0.0
3987,38.0,60.0,180.0,0.0,0.0
3988,46.0,0.0,180.0,0.0,0.0
3989,38.0,240.0,180.0,0.0,0.0
3990,46.0,0.0,180.0,0.0,0.0
3991,38.0,240.0,180.0,0.0,0.0
3992,46.0,0.0,180.0,0.0,0.0
3993,38.0,0.0,180.0,0.0,0.0
3994,46.0,280.0,180.0,0.0,0.0
3995,39.0,20.0,210.0,0.0,0.0
3996,54.0,0.0,240.0,0.0,0.0
3997,46.0,120.0,120.0,0.0,0.0
3998,58.0,100.0,120.0,0.0,0.0
3999,39.0,20.0,210.0,0.0,0.0
4000,56.0,0.0,120.0,0.0,0.0
4001,46.0,220.0,120.0,0.0,0.0
4002,54.0,220.0,240.0,0.0,0.0
4003,39.0,20.0,210.0,0.0,0.0
4004,46.0,0.0,120.0,0.0,0.0
4005,39.0,20.0,210.0,0.0,0.0
4006,46.0,120.0,120.0,0.0,0.0
4007,80.0,100.0,120.0,0.0,0.0
4008,41.0,20.0,210.0,0.0,0.0
4009,78.0,0.0,120.0,0.0,0.0
4010,46.0,120.0,120.0,0.0,0.0
4011,77.0,100.0,120.0,0.0,0.0
4012,41.0,20.0,210.0,0.0,0.0
4013,75.0,220.0,120.0,0.0,0.0
4014,46.0,0.0,120.0,0.0,0.0
4015,41.0,20.0,210.0,0.0,0.0
4016,74.0,220.0,240.0,0.0,0.0
4017,46.0,0.0,120.0,0.0,0.0
4018,41.0,20.0,210.0,0.0,0.0
4019,46.0,220.0,120.0,0.0,0.0
4020,63.0,0.0,240.0,0.0,0.0
4021,42.0,20.0,210.0,0.0,0.0
4022,46.0,120.0,120.0,0.0,0.0
4023,42.0,20.0,210.0,0.0,0.0
4024,66.0,100.0,120.0,0.0,0.0
4025,65.0,0.0,120.0,0.0,0.0
4026,46.0,220.0,120.0,0.0,0.0
4027,42.0,20.0,210.0,0.0,0.0
4028,63.0,220.0,240.0,0.0,0.0
4029,46.0,0.0,120.0,0.0,0.0
4030,42.0,20.0,210.0,0.0,0.0
4031,46.0,120.0,120.0,0.0,0.0
4032,83.0,100.0,120.0,0.0,0.0
4033,38.0,20.0,210.0,0.0,0.0
4034,46.0,120.0,120.0,0.0,0.0
4035,82.0,0.0,120.0,0.0,0.0
4036,80.0,100.0,120.0,0.0,0.0
4037,38.0,20.0,210.0,0.0,0.0
4038,78.0,220.0,120.0,0.0,0.0
4039,46.0,0.0,120.0,0.0,0.0
4040,38.0,20.0,210.0,0.0,0.0
4041,77.0,220.0,240.0,0.0,0.0
4042,46.0,0.0,120.0,0.0,0.0
4043,38.0,20.0,210.0,0.0,0.0
4044,46.0,220.0,120.0,0.0,0.0
4045,39.0,20.0,210.0,0.0,0.0
4046,54.0,120.0,240.0,0.0,0.0
4047,46.0,0.0,120.0,0.0,0.0
4048,58.0,100.0,120.0,0.0,0.0
4049,39.0,20.0,210.0,0.0,0.0
4050,56.0,0.0,120.0,0.0,0.0
4051,46.0,220.0,120.0,0.0,0.0
4052,54.0,0.0,240.0,0.0,0.0
4053,39.0,20.0,210.0,0.0,0.0
4054,46.0,220.0,120.0,0.0,0.0
4055,39.0,20.0,210.0,0.0,0.0
4056,46.0,120.0,120.0,0.0,0.0
4057,80.0,100.0,120.0,0.0,0.0
4058,41.0,20.0,210.0,0.0,0.0
4059,46.0,120.0,120.0,0.0,0.0
4060,78.0,0.0,120.0,0.0,0.0
4061,41.0,20.0,210.0,0.0,0.0
4062,77.0,100.0,120.0,0.0,0.0
4063,75.0,0.0,120.0,0.0,0.0
4064,46.0,220.0,120.0,0.0,0.0
4065,74.0,0.0,240.0,0.0,0.0
4066,41.0,20.0,210.0,0.0,0.0
4067,46.0,220.0,120.0,0.0,0.0
4068,41.0,20.0,210.0,0.0,0.0
4069,46.0,120.0,120.0,0.0,0.0
4070,70.0,100.0,120.0,0.0,0.0
4071,42.0,20.0,210.0,0.0,0.0
4072,68.0,0.0,120.0,0.0,0.0
4073,46.0,120.0,120.0,0.0,0.0
4074,42.0,20.0,210.0,0.0,0.0
4075,66.0,100.0,120.0,0.0,0.0
4076,46.0,0.0,120.0,0.0,0.0
4077,65.0,220.0,120.0,0.0,0.0
4078,63.0,220.0,240.0,0.0,0.0
4079,42.0,20.0,210.0,0.0,0.0
4080,51.0,0.0,120.0,0.0,0.0
4081,42.0,20.0,210.0,0.0,0.0
4082,51.0,120.0,120.0,0.0,0.0
4083,43.0,20.0,210.0,0.0,0.0
4084,76.0,100.0,120.0,0.0,0.0
4085,75.0,120.0,120.0,0.0,0.0
4086,51.0,0.0,120.0,0.0,0.0
4087,73.0,100.0,120.0,0.0,0.0
4088,43.0,20.0,210.0,0.0,0.0
4089,71.0,220.0,120.0,0.0,0.0
4090,51.0,0.0,120.0,0.0,0.0
4091,70.0,0.0,240.0,0.0,0.0
4092,43.0,20.0,210.0,0.0,0.0
4093,51.0,220.0,120.0,0.0,0.0
4094,43.0,20.0,210.0,0.0,0.0
4095,51.0,220.0,120.0,0.0,0.0
4096,59.0,0.0,240.0,0.0,0.0
4097,44.0,20.0,210.0,0.0,0.0
4098,51.0,120.0,120.0,0.0,0.0
4099,44.0,20.0,210.0,0.0,0.0
4100,63.0,100.0,120.0,0.0,0.0
4101,51.0,0.0,120.0,0.0,0.0
4102,61.0,220.0,120.0,0.0,0.0
4103,44.0,20.0,210.0,0.0,0.0
4104,59.0,220.0,240.0,0.0,0.0
4105,51.0,0.0,120.0,0.0,0.0
4106,44.0,20.0,210.0,0.0,0.0
4107,51.0,120.0,120.0,0.0,0.0
4108,46.0,20.0,210.0,0.0,0.0
4109,73.0,100.0,120.0,0.0,0.0
4110,71.0,0.0,120.0,0.0,0.0
4111,51.0,120.0,120.0,0.0,0.0
4112,46.0,20.0,210.0,0.0,0.0
4113,70.0,100.0,120.0,0.0,0.0
4114,68.0,0.0,120.0,0.0,0.0
4115,51.0,220.0,120.0,0.0,0.0
4116,46.0,20.0,210.0,0.0,0.0
4117,67.0,0.0,240.0,0.0,0.0
4118,51.0,220.0,120.0,0.0,0.0
4119,46.0,20.0,210.0,0.0,0.0
4120,51.0,220.0,120.0,0.0,0.0
4121,56.0,0.0,240.0,0.0,0.0
4122,47.0,20.0,210.0,0.0,0.0
4123,51.0,120.0,120.0,0.0,0.0
4124,59.0,100.0,120.0,0.0,0.0
4125,47.0,20.0,210.0,0.0,0.0
4126,58.0,0.0,120.0,0.0,0.0
4127,51.0,220.0,120.0,0.0,0.0
4128,56.0,0.0,240.0,0.0,0.0
4129,47.0,20.0,210.0,0.0,0.0
4130,51.0,220.0,120.0,0.0,0.0
4131,47.0,20.0,210.0,0.0,0.0
4132,51.0,120.0,120.0,0.0,0.0
4133,43.0,20.0,210.0,0.0,0.0
4134,76.0,100.0,120.0,0.0,0.0
4135,51.0,120.0,120.0,0.0,0.0
4136,75.0,0.0,120.0,0.0,0.0
4137,43.0,20.0,210.0,0.0,0.0
4138,73.0,100.0,120.0,0.0,0.0
4139,71.0,0.0,120.0,0.0,0.0
4140,51.0,220.0,120.0,0.0,0.0
4141,43.0,20.0,210.0,0.0,0.0
4142,70.0,0.0,240.0,0.0,0.0
4143,51.0,220.0,120.0,0.0,0.0
4144,43.0,20.0,210.0,0.0,0.0
4145,51.0,220.0,120.0,0.0,0.0
4146,59.0,0.0,240.0,0.0,0.0
4147,44.0,20.0,210.0,0.0,0.0
4148,51.0,120.0,120.0,0.0,0.0
4149,63.0,100.0,120.0,0.0,0.0
4150,44.0,20.0,210.0,0.0,0.0
4151,61.0,0.0,120.0,0.0,0.0
4152,51.0,220.0,120.0,0.0,0.0
4153,44.0,20.0,210.0,0.0,0.0
4154,59.0,220.0,240.0,0.0,0.0
4155,51.0,0.0,120.0,0.0,0.0
4156,44.0,20.0,210.0,0.0,0.0
4157,51.0,120.0,120.0,0.0,0.0
4158,73.0,100.0,120.0,0.0,0.0
4159,46.0,20.0,210.0,0.0,0.0
4160,71.0,0.0,120.0,0.0,0.0
4161,51.0,120.0,120.0,0.0,0.0
4162,70.0,100.0,120.0,0.0,0.0
4163,46.0,20.0,210.0,0.0,0.0
4164,68.0,0.0,120.0,0.0,0.0
4165,51.0,220.0,120.0,0.0,0.0
4166,46.0,20.0,210.0,0.0,0.0
4167,67.0,220.0,240.0,0.0,0.0
4168,51.0,0.0,120.0,0.0,0.0
4169,46.0,20.0,210.0,0.0,0.0
4170,51.0,120.0,120.0,0.0,0.0
4171,75.0,100.0,120.0,0.0,0.0
4172,47.0,20.0,210.0,0.0,0.0
4173,73.0,120.0,120.0,0.0,0.0
4174,51.0,0.0,120.0,0.0,0.0
4175,71.0,100.0,120.0,0.0,0.0
4176,47.0,20.0,210.0,0.0,0.0
4177,70.0,220.0,120.0,0.0,0.0
4178,51.0,0.0,120.0,0.0,0.0
4179,47.0,20.0,210.0,0.0,0.0
4180,68.0,220.0,240.0,0.0,0.0
4181,56.0,0.0,120.0,0.0,0.0
4182,47.0,20.0,210.0,0.0,0.0
4183,56.0,120.0,120.0,0.0,0.0
4184,81.0,100.0,120.0,0.0,0.0
4185,48.0,20.0,210.0,0.0,0.0
4186,80.0,120.0,120.0,0.0,0.0
4187,56.0,0.0,120.0,0.0,0.0
4188,48.0,20.0,210.0,0.0,0.0
4189,78.0,100.0,120.0,0.0,0.0
4190,56.0,0.0,120.0,0.0,0.0
4191,76.0,220.0,120.0,0.0,0.0
4192,48.0,20.0,210.0,0.0,0.0
4193,75.0,0.0,240.0,0.0,0.0
4194,56.0,220.0,120.0,0.0,0.0
4195,48.0,20.0,210.0,0.0,0.0
4196,56.0,120.0,120.0,0.0,0.0
4197,76.0,120.0,240.0,0.0,0.0
4198,49.0,120.0,120.0,0.0,0.0
4199,52.0,0.0,120.0,0.0,0.0
4200,56.0,0.0,120.0,0.0,0.0
4201,80.0,120.0,120.0,0.0,0.0
4202,61.0,0.0,120.0,0.0,0.0
4203,78.0,120.0,120.0,0.0,0.0
4204,49.0,120.0,120.0,0.0,0.0
4205,76.0,0.0,240.0,0.0,0.0
4206,52.0,120.0,120.0,0.0,0.0
4207,56.0,120.0,120.0,0.0,0.0
4208,61.0,120.0,120.0,0.0,0.0
4209,81.0,0.0,240.0,0.0,0.0
4210,49.0,120.0,120.0,0.0,0.0
4211,54.0,120.0,120.0,0.0,0.0
4212,85.0,120.0,120.0,0.0,0.0
4213,57.0,0.0,120.0,0.0,0.0
4214,61.0,0.0,120.0,0.0,0.0
4215,83.0,120.0,120.0,0.0,0.0
4216,49.0,120.0,120.0,0.0,0.0
4217,81.0,120.0,240.0,0.0,0.0
4218,54.0,0.0,120.0,0.0,0.0
4219,57.0,120.0,120.0,0.0,0.0
4220,61.0,120.0,120.0,0.0,0.0
4221,62.0,120.0,240.0,0.0,0.0
4222,48.0,120.0,120.0,0.0,0.0
4223,50.0,0.0,120.0,0.0,0.0
4224,54.0,0.0,120.0,0.0,0.0
4225,66.0,120.0,120.0,0.0,0.0
4226,64.0,0.0,120.0,0.0,0.0
4227,57.0,120.0,120.0,0.0,0.0
4228,48.0,120.0,120.0,0.0,0.0
4229,62.0,0.0,240.0,0.0,0.0
4230,50.0,120.0,120.0,0.0,0.0
4231,54.0,120.0,120.0,0.0,0.0
4232,57.0,120.0,120.0,0.0,0.0
4233,47.0,120.0,120.0,0.0,0.0
4234,67.0,0.0,960.0,0.0,0.0
4235,50.0,120.0,120.0,0.0,0.0
4236,55.0,120.0,120.0,0.0,0.0
4237,59.0,120.0,120.0,0.0,0.0
4238,47.0,120.0,120.0,0.0,0.0
4239,50.0,120.0,120.0,0.0,0.0
4240,55.0,120.0,120.0,0.0,0.0
4241,59.0,120.0,120.0,0.0,0.0
4242,73.0,0.0,240.0,0.0,0.0
4243,47.0,120.0,120.0,0.0,0.0
4244,49.0,120.0,120.0,0.0,0.0
4245,77.0,120.0,120.0,0.0,0.0
4246,53.0,0.0,120.0,0.0,0.0
4247,56.0,0.0,120.0,0.0,0.0
4248,75.0,120.0,120.0,0.0,0.0
4249,47.0,120.0,120.0,0.0,0.0
4250,73.0,0.0,240.0,0.0,0.0
4251,49.0,120.0,120.0,0.0,0.0
4252,53.0,120.0,120.0,0.0,0.0
4253,56.0,120.0,120.0,0.0,0.0
4254,78.0,0.0,240.0,0.0,0.0
4255,45.0,120.0,120.0,0.0,0.0
4256,49.0,120.0,120.0,0.0,0.0
4257,54.0,0.0,120.0,0.0,0.0
4258,81.0,120.0,120.0,0.0,0.0
4259,57.0,0.0,120.0,0.0,0.0
4260,80.0,120.0,120.0,0.0,0.0
4261,45.0,120.0,120.0,0.0,0.0
4262,78.0,120.0,240.0,0.0,0.0
4263,49.0,0.0,120.0,0.0,0.0
4264,54.0,120.0,120.0,0.0,0.0
4265,57.0,120.0,120.0,0.0,0.0
4266,45.0,120.0,120.0,0.0,0.0
4267,59.0,0.0,240.0,0.0,0.0
4268,47.0,120.0,120.0,0.0,0.0
4269,63.0,120.0,120.0,0.0,0.0
4270,51.0,0.0,120.0,0.0,0.0
4271,54.0,0.0,120.0,0.0,0.0
4272,61.0,120.0,120.0,0.0,0.0
4273,45.0,120.0,120.0,0.0,0.0
4274,59.0,120.0,240.0,0.0,0.0
4275,47.0,0.0,120.0,0.0,0.0
4276,51.0,120.0,120.0,0.0,0.0
4277,54.0,120.0,120.0,0.0,0.0
4278,44.0,120.0,120.0,0.0,0.0
4279,64.0,0.0,960.0,0.0,0.0
4280,47.0,120.0,120.0,0.0,0.0
4281,52.0,120.0,120.0,0.0,0.0
4282,56.0,120.0,120.0,0.0,0.0
4283,44.0,120.0,120.0,0.0,0.0
4284,47.0,120.0,120.0,0.0,0.0
4285,52.0,120.0,120.0,0.0,0.0
4286,56.0,120.0,120.0,0.0,0.0
4287,43.0,120.0,120.0,0.0,0.0
4288,69.0,0.0,240.0,0.0,0.0
4289,45.0,120.0,120.0,0.0,0.0
4290,73.0,0.0,120.0,0.0,0.0
4291,49.0,120.0,120.0,0.0,0.0
4292,71.0,120.0,120.0,0.0,0.0
4293,52.0,0.0,120.0,0.0,0.0
4294,43.0,120.0,120.0,0.0,0.0
4295,69.0,120.0,240.0,0.0,0.0
4296,45.0,0.0,120.0,0.0,0.0
4297,49.0,120.0,120.0,0.0,0.0
4298,52.0,120.0,120.0,0.0,0.0
4299,42.0,120.0,120.0,0.0,0.0
4300,74.0,0.0,240.0,0.0,0.0
4301,45.0,120.0,120.0,0.0,0.0
4302,78.0,0.0,120.0,0.0,0.0
4303,50.0,120.0,120.0,0.0,0.0
4304,54.0,0.0,120.0,0.0,0.0
4305,76.0,120.0,120.0,0.0,0.0
4306,74.0,120.0,240.0,0.0,0.0
4307,42.0,120.0,120.0,0.0,0.0
4308,45.0,0.0,120.0,0.0,0.0
4309,50.0,120.0,120.0,0.0,0.0
4310,54.0,120.0,120.0,0.0,0.0
4311,42.0,120.0,120.0,0.0,0.0
4312,56.0,120.0,240.0,0.0,0.0
4313,44.0,0.0,120.0,0.0,0.0
4314,48.0,0.0,120.0,0.0,0.0
4315,60.0,120.0,120.0,0.0,0.0
4316,51.0,120.0,120.0,0.0,0.0
4317,58.0,0.0,120.0,0.0,0.0
4318,42.0,120.0,120.0,0.0,0.0
4319,56.0,120.0,240.0,0.0,0.0
4320,44.0,0.0,120.0,0.0,0.0
4321,48.0,120.0,120.0,0.0,0.0
4322,51.0,120.0,120.0,0.0,0.0
4323,40.0,120.0,120.0,0.0,0.0
4324,44.0,120.0,120.0,0.0,0.0
4325,49.0,120.0,120.0,0.0,0.0
4326,52.0,120.0,120.0,0.0,0.0
4327,40.0,120.0,120.0,0.0,0.0
4328,44.0,120.0,120.0,0.0,0.0
4329,49.0,120.0,120.0,0.0,0.0
4330,52.0,0.0,120.0,0.0,0.0
4331,39.0,120.0,120.0,0.0,0.0
4332,68.0,120.0,15.0,0.0,0.0
4333,42.0,120.0,120.0,0.0,0.0
4334,72.0,0.0,120.0,0.0,0.0
4335,48.0,120.0,120.0,0.0,0.0
4336,70.0,120.0,120.0,0.0,0.0
4337,51.0,0.0,120.0,0.0,0.0
4338,39.0,120.0,120.0,0.0,0.0
4339,68.0,120.0,240.0,0.0,0.0
4340,42.0,0.0,120.0,0.0,0.0
4341,48.0,120.0,120.0,0.0,0.0
4342,51.0,120.0,120.0,0.0,0.0
4343,37.0,120.0,120.0,0.0,0.0
4344,40.0,120.0,120.0,0.0,0.0
4345,44.0,120.0,120.0,0.0,0.0
4346,49.0,160.0,120.0,0.0,0.0
4347,37.0,160.0,150.0,0.0,0.0
4348,40.0,160.0,150.0,0.0,0.0
4349,49.0,0.0,150.0,0.0,0.0
4350,80.0,160.0,15.0,0.0,0.0
4351,36.0,80.0,150.0,0.0,0.0
4352,39.0,40.0,150.0,0.0,0.0
4353,84.0,120.0,120.0,0.0,0.0
4354,48.0,0.0,150.0,0.0,0.0
4355,82.0,120.0,120.0,0.0,0.0
4356,80.0,40.0,120.0,0.0,0.0
4357,35.0,160.0,150.0,0.0,0.0
4358,39.0,40.0,150.0,0.0,0.0
4359,80.0,120.0,120.0,0.0,0.0
4360,47.0,120.0,150.0,0.0,0.0
4361,34.0,160.0,150.0,0.0,0.0
4362,80.0,40.0,120.0,0.0,0.0
4363,37.0,160.0,150.0,0.0,0.0
4364,80.0,0.0,240.0,0.0,0.0
4365,46.0,160.0,150.0,0.0,0.0
4366,85.0,80.0,240.0,0.0,0.0
4367,33.0,80.0,150.0,0.0,0.0
4368,37.0,160.0,150.0,0.0,0.0
4369,79.0,0.0,240.0,0.0,0.0
4370,45.0,160.0,150.0,0.0,0.0
4371,44.0,0.0,150.0,0.0,0.0
4372,32.0,160.0,150.0,0.0,0.0
4373,80.0,0.0,480.0,0.0,0.0
4374,39.0,160.0,150.0,0.0,0.0
4375,36.0,160.0,150.0,0.0,0.0
4376,39.0,160.0,150.0,0.0,0.0
4377,44.0,160.0,150.0,0.0,0.0
4378,48.0,160.0,150.0,0.0,0.0
4379,46.0,160.0,150.0,0.0,0.0
4380,43.0,160.0,150.0,0.0,0.0
4381,39.0,0.0,150.0,0.0,0.0
4382,43.0,160.0,150.0,0.0,0.0
4383,63.0,160.0,15.0,0.0,0.0
4384,46.0,160.0,150.0,0.0,0.0
4385,49.0,160.0,150.0,0.0,0.0
4386,68.0,160.0,150.0,0.0,0.0
4387,48.0,0.0,150.0,0.0,0.0
4388,51.0,160.0,150.0,0.0,0.0
4389,63.0,0.0,150.0,0.0,0.0
4390,56.0,160.0,150.0,0.0,0.0
4391,60.0,0.0,150.0,0.0,0.0
4392,51.0,0.0,150.0,0.0,0.0
4393,63.0,160.0,150.0,0.0,0.0
4394,48.0,0.0,150.0,0.0,0.0
4395,68.0,160.0,150.0,0.0,0.0
4396,44.0,160.0,150.0,0.0,0.0
4397,72.0,0.0,150.0,0.0,0.0
4398,49.0,0.0,150.0,0.0,0.0
4399,70.0,160.0,150.0,0.0,0.0
4400,67.0,160.0,150.0,0.0,0.0
4401,52.0,0.0,150.0,0.0,0.0
4402,64.0,160.0,150.0,0.0,0.0
4403,56.0,0.0,150.0,0.0,0.0
4404,52.0,0.0,150.0,0.0,0.0
4405,67.0,160.0,150.0,0.0,0.0
4406,49.0,160.0,150.0,0.0,0.0
4407,70.0,0.0,150.0,0.0,0.0
4408,73.0,160.0,150.0,0.0,0.0
4409,44.0,0.0,150.0,0.0,0.0
4410,72.0,160.0,150.0,0.0,0.0
4411,69.0,160.0,150.0,0.0,0.0
4412,66.0,0.0,150.0,0.0,0.0
4413,56.0,0.0,3510.0,0.0,0.0
4414,69.0,0.0,150.0,0.0,0.0
4415,54.0,160.0,15.0,0.0,0.0
4416,51.0,160.0,15.0,0.0,0.0
4417,72.0,160.0,150.0,0.0,0.0
4418,75.0,160.0,150.0,0.0,0.0
4419,44.0,160.0,3030.0,0.0,0.0
4420,78.0,160.0,150.0,0.0,0.0
4421,72.0,160.0,150.0,0.0,0.0
4422,81.0,160.0,150.0,0.0,0.0
4423,72.0,160.0,150.0,0.0,0.0
4424,69.0,160.0,150.0,0.0,0.0
4425,78.0,160.0,150.0,0.0,0.0
4426,69.0,160.0,150.0,0.0,0.0
4427,66.0,160.0,150.0,0.0,0.0
4428,72.0,160.0,150.0,0.0,0.0
4429,66.0,160.0,150.0,0.0,0.0
4430,60.0,160.0,150.0,0.0,0.0
4431,69.0,160.0,150.0,0.0,0.0
4432,66.0,160.0,150.0,0.0,0.0
4433,60.0,160.0,150.0,0.0,0.0
4434,68.0,160.0,150.0,0.0,0.0
4435,66.0,160.0,150.0,0.0,0.0
4436,60.0,160.0,150.0,0.0,0.0
4437,68.0,0.0,150.0,0.0,0.0
4438,61.0,0.0,480.0,0.0,0.0
4439,65.0,0.0,480.0,0.0,0.0
4440,49.0,160.0,150.0,0.0,0.0
4441,37.0,0.0,150.0,0.0,0.0
4442,44.0,160.0,150.0,0.0,0.0
4443,41.0,160.0,150.0,0.0,0.0
4444,68.0,0.0,15.0,0.0,0.0
4445,44.0,160.0,150.0,0.0,0.0
4446,49.0,160.0,150.0,0.0,0.0
4447,53.0,160.0,150.0,0.0,0.0
4448,51.0,160.0,150.0,0.0,0.0
4449,48.0,160.0,150.0,0.0,0.0
4450,44.0,0.0,150.0,0.0,0.0
4451,68.0,160.0,15.0,0.0,0.0
4452,48.0,160.0,150.0,0.0,0.0
4453,51.0,160.0,150.0,0.0,0.0
4454,54.0,0.0,150.0,0.0,0.0
4455,53.0,0.0,150.0,0.0,0.0
4456,73.0,160.0,150.0,0.0,0.0
4457,56.0,0.0,150.0,0.0,0.0
4458,68.0,160.0,150.0,0.0,0.0
4459,61.0,0.0,150.0,0.0,0.0
4460,65.0,160.0,150.0,0.0,0.0
4461,56.0,0.0,150.0,0.0,0.0
4462,68.0,160.0,150.0,0.0,0.0
4463,53.0,0.0,150.0,0.0,0.0
4464,73.0,160.0,150.0,0.0,0.0
4465,77.0,160.0,150.0,0.0,0.0
4466,49.0,0.0,150.0,0.0,0.0
4467,75.0,160.0,150.0,0.0,0.0
4468,54.0,0.0,150.0,0.0,0.0
4469,57.0,160.0,150.0,0.0,0.0
4470,72.0,0.0,150.0,0.0,0.0
4471,61.0,0.0,150.0,0.0,0.0
4472,69.0,160.0,150.0,0.0,0.0
4473,72.0,160.0,150.0,0.0,0.0
4474,57.0,0.0,150.0,0.0,0.0
4475,75.0,0.0,150.0,0.0,0.0
4476,54.0,160.0,150.0,0.0,0.0
4477,78.0,0.0,150.0,0.0,0.0
4478,49.0,160.0,150.0,0.0,0.0
4479,77.0,160.0,150.0,0.0,0.0
4480,56.0,0.0,630.0,0.0,0.0
4481,59.0,0.0,330.0,0.0,0.0
4482,74.0,160.0,150.0,0.0,0.0
4483,71.0,160.0,150.0,0.0,0.0
4484,61.0,0.0,3510.0,0.0,0.0
4485,59.0,0.0,3360.0,0.0,0.0
4486,74.0,160.0,150.0,0.0,0.0
4487,56.0,160.0,3210.0,0.0,0.0
4488,77.0,160.0,150.0,0.0,0.0
4489,80.0,160.0,150.0,0.0,0.0
4490,49.0,0.0,3030.0,0.0,0.0
4491,83.0,160.0,150.0,0.0,0.0
4492,77.0,160.0,150.0,0.0,0.0
4493,86.0,160.0,150.0,0.0,0.0
4494,74.0,160.0,150.0,0.0,0.0
4495,71.0,160.0,150.0,0.0,0.0
4496,80.0,160.0,150.0,0.0,0.0
4497,71.0,160.0,150.0,0.0,0.0
4498,68.0,160.0,150.0,0.0,0.0
4499,77.0,160.0,150.0,0.0,0.0
4500,71.0,160.0,150.0,0.0,0.0
4501,65.0,160.0,150.0,0.0,0.0
4502,74.0,160.0,150.0,0.0,0.0
4503,71.0,160.0,150.0,0.0,0.0
4504,65.0,160.0,150.0,0.0,0.0
4505,73.0,160.0,150.0,0.0,0.0
4506,71.0,160.0,150.0,0.0,0.0
4507,65.0,160.0,150.0,0.0,0.0
4508,73.0,0.0,150.0,0.0,0.0
4509,66.0,0.0,480.0,0.0,0.0
4510,70.0,0.0,480.0,0.0,0.0
4511,73.0,160.0,480.0,0.0,0.0
4512,42.0,0.0,150.0,0.0,0.0
4513,30.0,160.0,150.0,0.0,0.0
4514,37.0,160.0,150.0,0.0,0.0
4515,34.0,0.0,150.0,0.0,0.0
4516,37.0,160.0,150.0,0.0,0.0
4517,42.0,160.0,150.0,0.0,0.0
4518,46.0,160.0,150.0,0.0,0.0
4519,44.0,160.0,150.0,0.0,0.0
4520,41.0,160.0,150.0,0.0,0.0
4521,37.0,0.0,150.0,0.0,0.0
4522,41.0,160.0,150.0,0.0,0.0
4523,61.0,160.0,15.0,0.0,0.0
4524,44.0,160.0,150.0,0.0,0.0
4525,47.0,0.0,150.0,0.0,0.0
4526,46.0,160.0,150.0,0.0,0.0
4527,66.0,0.0,150.0,0.0,0.0
4528,61.0,0.0,150.0,0.0,0.0
4529,49.0,160.0,150.0,0.0,0.0
4530,54.0,0.0,150.0,0.0,0.0
4531,58.0,160.0,150.0,0.0,0.0
4532,61.0,0.0,150.0,0.0,0.0
4533,49.0,160.0,150.0,0.0,0.0
4534,66.0,160.0,150.0,0.0,0.0
4535,46.0,0.0,150.0,0.0,0.0
4536,42.0,0.0,150.0,0.0,0.0
4537,70.0,160.0,150.0,0.0,0.0
4538,47.0,160.0,150.0,0.0,0.0
4539,68.0,0.0,150.0,0.0,0.0
4540,50.0,160.0,150.0,0.0,0.0
4541,65.0,0.0,150.0,0.0,0.0
4542,54.0,0.0,150.0,0.0,0.0
4543,62.0,160.0,150.0,0.0,0.0
4544,50.0,0.0,150.0,0.0,0.0
4545,65.0,160.0,150.0,0.0,0.0
4546,47.0,0.0,150.0,0.0,0.0
4547,68.0,160.0,150.0,0.0,0.0
4548,71.0,0.0,150.0,0.0,0.0
4549,42.0,160.0,150.0,0.0,0.0
4550,70.0,160.0,150.0,0.0,0.0
4551,67.0,160.0,150.0,0.0,0.0
4552,52.0,160.0,330.0,0.0,0.0
4553,54.0,0.0,3510.0,0.0,0.0
4554,64.0,0.0,150.0,0.0,0.0
4555,67.0,160.0,150.0,0.0,0.0
4556,52.0,0.0,3360.0,0.0,0.0
4557,49.0,0.0,15.0,0.0,0.0
4558,70.0,160.0,150.0,0.0,0.0
4559,42.0,0.0,3030.0,0.0,0.0
4560,73.0,160.0,150.0,0.0,0.0
4561,76.0,160.0,150.0,0.0,0.0
4562,70.0,160.0,150.0,0.0,0.0
4563,79.0,160.0,150.0,0.0,0.0
4564,70.0,160.0,150.0,0.0,0.0
4565,67.0,160.0,150.0,0.0,0.0
4566,76.0,160.0,150.0,0.0,0.0
4567,67.0,160.0,150.0,0.0,0.0
4568,64.0,160.0,150.0,0.0,0.0
4569,73.0,160.0,150.0,0.0,0.0
4570,64.0,160.0,150.0,0.0,0.0
4571,61.0,160.0,150.0,0.0,0.0
4572,70.0,160.0,150.0,0.0,0.0
4573,64.0,160.0,150.0,0.0,0.0
4574,58.0,160.0,150.0,0.0,0.0
4575,67.0,160.0,150.0,0.0,0.0
4576,64.0,160.0,150.0,0.0,0.0
4577,58.0,160.0,150.0,0.0,0.0
4578,66.0,160.0,150.0,0.0,0.0
4579,74.0,160.0,150.0,0.0,0.0
4580,71.0,160.0,150.0,0.0,0.0
4581,50.0,160.0,330.0,0.0,0.0
4582,66.0,0.0,150.0,0.0,0.0
4583,54.0,0.0,3510.0,0.0,0.0
4584,71.0,160.0,150.0,0.0,0.0
4585,50.0,0.0,3360.0,0.0,0.0
4586,47.0,0.0,15.0,0.0,0.0
4587,74.0,160.0,150.0,0.0,0.0
4588,78.0,160.0,150.0,0.0,0.0
4589,42.0,160.0,3030.0,0.0,0.0
4590,74.0,160.0,150.0,0.0,0.0
4591,71.0,160.0,150.0,0.0,0.0
4592,83.0,160.0,150.0,0.0,0.0
4593,71.0,160.0,150.0,0.0,0.0
4594,66.0,160.0,150.0,0.0,0.0
4595,78.0,160.0,150.0,0.0,0.0
4596,66.0,160.0,150.0,0.0,0.0
4597,62.0,160.0,150.0,0.0,0.0
4598,74.0,160.0,150.0,0.0,0.0
4599,62.0,160.0,150.0,0.0,0.0
4600,59.0,160.0,150.0,0.0,0.0
4601,71.0,160.0,150.0,0.0,0.0
4602,62.0,160.0,150.0,0.0,0.0
4603,59.0,160.0,150.0,0.0,0.0
4604,71.0,160.0,150.0,0.0,0.0
4605,62.0,160.0,150.0,0.0,0.0
4606,59.0,160.0,150.0,0.0,0.0
4607,71.0,0.0,150.0,0.0,0.0
4608,74.0,160.0,150.0,0.0,0.0
4609,45.0,0.0,630.0,0.0,0.0
4610,50.0,160.0,330.0,0.0,0.0
4611,72.0,160.0,150.0,0.0,0.0
4612,54.0,0.0,3510.0,0.0,0.0
4613,69.0,0.0,150.0,0.0,0.0
4614,72.0,160.0,150.0,0.0,0.0
4615,50.0,0.0,3360.0,0.0,0.0
4616,45.0,0.0,3210.0,0.0,0.0
4617,74.0,160.0,150.0,0.0,0.0
4618,42.0,160.0,3030.0,0.0,0.0
4619,81.0,160.0,150.0,0.0,0.0
4620,74.0,160.0,150.0,0.0,0.0
4621,72.0,160.0,150.0,0.0,0.0
4622,84.0,160.0,150.0,0.0,0.0
4623,72.0,160.0,150.0,0.0,0.0
4624,69.0,160.0,150.0,0.0,0.0
4625,81.0,160.0,150.0,0.0,0.0
4626,69.0,160.0,150.0,0.0,0.0
4627,62.0,160.0,150.0,0.0,0.0
4628,74.0,160.0,150.0,0.0,0.0
4629,62.0,160.0,150.0,0.0,0.0
4630,60.0,160.0,150.0,0.0,0.0
4631,72.0,160.0,150.0,0.0,0.0
4632,62.0,160.0,150.0,0.0,0.0
4633,60.0,160.0,150.0,0.0,0.0
4634,72.0,160.0,150.0,0.0,0.0
4635,62.0,160.0,150.0,0.0,0.0
4636,60.0,160.0,150.0,0.0,0.0
4637,72.0,0.0,150.0,0.0,0.0
4638,46.0,0.0,630.0,0.0,0.0
4639,74.0,160.0,150.0,0.0,0.0
4640,70.0,160.0,150.0,0.0,0.0
4641,67.0,160.0,150.0,0.0,0.0
4642,55.0,0.0,3510.0,0.0,0.0
4643,50.0,0.0,15.0,0.0,0.0
4644,70.0,160.0,150.0,0.0,0.0
4645,46.0,0.0,3210.0,0.0,0.0
4646,74.0,160.0,150.0,0.0,0.0
4647,79.0,160.0,150.0,0.0,0.0
4648,43.0,0.0,3030.0,0.0,0.0
4649,74.0,160.0,150.0,0.0,0.0
4650,70.0,160.0,150.0,0.0,0.0
4651,82.0,160.0,150.0,0.0,0.0
4652,70.0,160.0,150.0,0.0,0.0
4653,67.0,160.0,150.0,0.0,0.0
4654,79.0,160.0,150.0,0.0,0.0
4655,67.0,160.0,150.0,0.0,0.0
4656,62.0,160.0,150.0,0.0,0.0
4657,74.0,160.0,150.0,0.0,0.0
4658,62.0,160.0,150.0,0.0,0.0
4659,58.0,160.0,150.0,0.0,0.0
4660,70.0,160.0,150.0,0.0,0.0
4661,62.0,160.0,150.0,0.0,0.0
4662,58.0,160.0,150.0,0.0,0.0
4663,70.0,160.0,150.0,0.0,0.0
4664,62.0,160.0,150.0,0.0,0.0
4665,58.0,160.0,150.0,0.0,0.0
4666,70.0,160.0,150.0,0.0,0.0
4667,75.0,160.0,150.0,0.0,0.0
4668,46.0,160.0,630.0,0.0,0.0
4669,70.0,160.0,150.0,0.0,0.0
4670,51.0,0.0,330.0,0.0,0.0
4671,55.0,0.0,3510.0,0.0,0.0
4672,67.0,160.0,150.0,0.0,0.0
4673,51.0,0.0,3360.0,0.0,0.0
4674,70.0,0.0,150.0,0.0,0.0
4675,75.0,160.0,150.0,0.0,0.0
4676,46.0,0.0,3210.0,0.0,0.0
4677,79.0,160.0,150.0,0.0,0.0
4678,43.0,0.0,3030.0,0.0,0.0
4679,75.0,160.0,150.0,0.0,0.0
4680,70.0,160.0,150.0,0.0,0.0
4681,82.0,160.0,150.0,0.0,0.0
4682,70.0,160.0,150.0,0.0,0.0
4683,67.0,160.0,150.0,0.0,0.0
4684,79.0,160.0,150.0,0.0,0.0
4685,67.0,160.0,150.0,0.0,0.0
4686,63.0,160.0,150.0,0.0,0.0
4687,75.0,160.0,150.0,0.0,0.0
4688,63.0,160.0,150.0,0.0,0.0
4689,61.0,160.0,150.0,0.0,0.0
4690,73.0,160.0,150.0,0.0,0.0
4691,63.0,160.0,150.0,0.0,0.0
4692,58.0,160.0,150.0,0.0,0.0
4693,70.0,160.0,150.0,0.0,0.0
4694,63.0,160.0,150.0,0.0,0.0
4695,58.0,160.0,150.0,0.0,0.0
4696,70.0,160.0,150.0,0.0,0.0
4697,47.0,0.0,630.0,0.0,0.0
4698,80.0,160.0,150.0,0.0,0.0
4699,75.0,160.0,150.0,0.0,0.0
4700,51.0,0.0,330.0,0.0,0.0
4701,56.0,0.0,3510.0,0.0,0.0
4702,71.0,160.0,150.0,0.0,0.0
4703,75.0,160.0,150.0,0.0,0.0
4704,51.0,0.0,3360.0,0.0,0.0
4705,47.0,160.0,3210.0,0.0,0.0
4706,80.0,160.0,150.0,0.0,0.0
4707,44.0,0.0,3030.0,0.0,0.0
4708,83.0,160.0,150.0,0.0,0.0
4709,75.0,160.0,150.0,0.0,0.0
4710,71.0,160.0,150.0,0.0,0.0
4711,83.0,160.0,150.0,0.0,0.0
4712,71.0,160.0,150.0,0.0,0.0
4713,68.0,160.0,150.0,0.0,0.0
4714,80.0,160.0,150.0,0.0,0.0
4715,68.0,160.0,150.0,0.0,0.0
4716,63.0,160.0,150.0,0.0,0.0
4717,75.0,160.0,150.0,0.0,0.0
4718,63.0,160.0,150.0,0.0,0.0
4719,59.0,160.0,150.0,0.0,0.0
4720,71.0,160.0,150.0,0.0,0.0
4721,63.0,160.0,150.0,0.0,0.0
4722,59.0,160.0,150.0,0.0,0.0
4723,71.0,160.0,150.0,0.0,0.0
4724,63.0,160.0,150.0,0.0,0.0
4725,59.0,160.0,150.0,0.0,0.0
4726,71.0,0.0,150.0,0.0,0.0
4727,73.0,160.0,150.0,0.0,0.0
4728,52.0,0.0,630.0,0.0,0.0
4729,57.0,0.0,330.0,0.0,0.0
4730,69.0,160.0,150.0,0.0,0.0
4731,64.0,160.0,150.0,0.0,0.0
4732,61.0,0.0,1590.0,0.0,0.0
4733,57.0,0.0,1440.0,0.0,0.0
4734,69.0,160.0,150.0,0.0,0.0
4735,52.0,160.0,1290.0,0.0,0.0
4736,73.0,160.0,150.0,0.0,0.0
4737,49.0,0.0,1110.0,0.0,0.0
4738,76.0,160.0,150.0,0.0,0.0
4739,73.0,160.0,150.0,0.0,0.0
4740,69.0,160.0,150.0,0.0,0.0
4741,64.0,160.0,150.0,0.0,0.0
4742,73.0,160.0,150.0,0.0,0.0
4743,69.0,160.0,150.0,0.0,0.0
4744,64.0,0.0,150.0,0.0,0.0
4745,71.0,160.0,150.0,0.0,0.0
4746,68.0,160.0,150.0,0.0,0.0
4747,65.0,0.0,150.0,0.0,0.0
4748,62.0,0.0,1590.0,0.0,0.0
4749,59.0,160.0,15.0,0.0,0.0
4750,68.0,0.0,150.0,0.0,0.0
4751,56.0,160.0,15.0,0.0,0.0
4752,71.0,160.0,150.0,0.0,0.0
4753,77.0,0.0,150.0,0.0,0.0
4754,50.0,480.0,1110.0,0.0,0.0
4755,71.0,160.0,150.0,0.0,0.0
4756,68.0,160.0,150.0,0.0,0.0
4757,65.0,160.0,150.0,0.0,0.0
4758,71.0,160.0,150.0,0.0,0.0
4759,68.0,160.0,150.0,0.0,0.0
4760,65.0,0.0,150.0,0.0,0.0
4761,58.0,160.0,330.0,0.0,0.0
4762,67.0,0.0,150.0,0.0,0.0
4763,70.0,160.0,150.0,0.0,0.0
4764,55.0,160.0,15.0,0.0,0.0
4765,51.0,0.0,1590.0,0.0,0.0
4766,75.0,160.0,150.0,0.0,0.0
4767,70.0,160.0,150.0,0.0,0.0
4768,67.0,160.0,150.0,0.0,0.0
4769,63.0,0.0,150.0,0.0,0.0
4770,58.0,0.0,15.0,0.0,0.0
4771,73.0,160.0,150.0,0.0,0.0
4772,67.0,160.0,150.0,0.0,0.0
4773,63.0,160.0,150.0,0.0,0.0
4774,73.0,160.0,150.0,0.0,0.0
4775,55.0,160.0,480.0,0.0,0.0
4776,70.0,160.0,150.0,0.0,0.0
4777,63.0,0.0,150.0,0.0,0.0
4778,71.0,160.0,150.0,0.0,0.0
4779,51.0,480.0,1440.0,0.0,0.0
4780,70.0,160.0,150.0,0.0,0.0
4781,63.0,160.0,150.0,0.0,0.0
4782,56.0,0.0,480.0,0.0,0.0
4783,71.0,160.0,150.0,0.0,0.0
4784,68.0,160.0,150.0,0.0,0.0
4785,63.0,160.0,150.0,0.0,0.0
4786,62.0,0.0,480.0,0.0,0.0
4787,70.0,160.0,150.0,0.0,0.0
4788,68.0,160.0,150.0,0.0,0.0
4789,65.0,0.0,150.0,0.0,0.0
4790,43.0,0.0,630.0,0.0,0.0
4791,46.0,160.0,330.0,0.0,0.0
4792,46.0,0.0,960.0,0.0,0.0
4793,55.0,160.0,150.0,0.0,0.0
4794,58.0,160.0,150.0,0.0,0.0
4795,43.0,0.0,810.0,0.0,0.0
4796,63.0,160.0,150.0,0.0,0.0
4797,39.0,160.0,1590.0,0.0,0.0
4798,58.0,160.0,150.0,0.0,0.0
4799,55.0,160.0,150.0,0.0,0.0
4800,51.0,0.0,150.0,0.0,0.0
4801,46.0,160.0,480.0,0.0,0.0
4802,61.0,160.0,150.0,0.0,0.0
4803,55.0,160.0,150.0,0.0,0.0
4804,51.0,0.0,150.0,0.0,0.0
4805,43.0,0.0,480.0,0.0,0.0
4806,61.0,160.0,150.0,0.0,0.0
4807,58.0,160.0,150.0,0.0,0.0
4808,51.0,0.0,150.0,0.0,0.0
4809,59.0,160.0,150.0,0.0,0.0
4810,39.0,80.0,1680.0,0.0,0.0
4811,58.0,160.0,150.0,0.0,0.0
4812,51.0,160.0,150.0,0.0,0.0
4813,44.0,0.0,480.0,0.0,0.0
4814,59.0,160.0,150.0,0.0,0.0
4815,56.0,160.0,150.0,0.0,0.0
4816,51.0,160.0,150.0,0.0,0.0
4817,50.0,0.0,480.0,0.0,0.0
4818,58.0,160.0,150.0,0.0,0.0
4819,56.0,160.0,150.0,0.0,0.0
4820,53.0,160.0,150.0,0.0,0.0
4821,51.0,0.0,240.0,0.0,0.0
4822,58.0,80.0,150.0,0.0,0.0
4823,55.0,160.0,150.0,0.0,0.0
4824,51.0,160.0,150.0,0.0,0.0
4825,44.0,160.0,480.0,0.0,0.0
4826,56.0,160.0,150.0,0.0,0.0
4827,51.0,160.0,150.0,0.0,0.0
4828,47.0,0.0,150.0,0.0,0.0
4829,39.0,160.0,480.0,0.0,0.0
4830,55.0,160.0,150.0,0.0,0.0
4831,51.0,160.0,150.0,0.0,0.0
4832,46.0,0.0,150.0,0.0,0.0
4833,53.0,160.0,150.0,0.0,0.0
4834,32.0,160.0,480.0,0.0,0.0
4835,47.0,160.0,150.0,0.0,0.0
4836,44.0,0.0,150.0,0.0,0.0
4837,27.0,0.0,480.0,0.0,0.0
4838,51.0,160.0,150.0,0.0,0.0
4839,46.0,160.0,150.0,0.0,0.0
4840,43.0,160.0,150.0,0.0,0.0
4841,50.0,160.0,150.0,0.0,0.0
4842,32.0,160.0,480.0,0.0,0.0
4843,47.0,160.0,150.0,0.0,0.0
4844,41.0,0.0,150.0,0.0,0.0
4845,27.0,0.0,480.0,0.0,0.0
4846,51.0,160.0,150.0,0.0,0.0
4847,46.0,160.0,150.0,0.0,0.0
4848,43.0,160.0,150.0,0.0,0.0
4849,32.0,0.0,480.0,0.0,0.0
4850,50.0,160.0,150.0,0.0,0.0
4851,47.0,160.0,150.0,0.0,0.0
4852,41.0,120.0,150.0,0.0,0.0
4853,43.0,0.0,2040.0,0.0,0.0
4854,51.0,120.0,2040.0,0.0,0.0
4855,27.0,120.0,120.0,0.0,0.0
4856,32.0,120.0,120.0,0.0,0.0
4857,31.0,120.0,120.0,0.0,0.0
4858,29.0,120.0,120.0,0.0,0.0
4859,27.0,120.0,120.0,0.0,0.0
4860,32.0,120.0,120.0,0.0,0.0
4861,31.0,120.0,120.0,0.0,0.0
4862,29.0,120.0,120.0,0.0,0.0
4863,27.0,120.0,120.0,0.0,0.0
4864,32.0,120.0,120.0,0.0,0.0
4865,31.0,120.0,120.0,0.0,0.0
4866,29.0,120.0,120.0,0.0,0.0
4867,27.0,120.0,120.0,0.0,0.0
4868,32.0,120.0,120.0,0.0,0.0
4869,31.0,120.0,120.0,0.0,0.0
4870,29.0,120.0,120.0,0.0,0.0
4871,27.0,120.0,2040.0,0.0,0.0
4872,46.0,0.0,15.0,0.0,0.0
4873,48.0,120.0,120.0,0.0,0.0
4874,50.0,120.0,120.0,0.0,0.0
4875,51.0,120.0,120.0,0.0,0.0
4876,46.0,120.0,120.0,0.0,0.0
4877,48.0,120.0,120.0,0.0,0.0
4878,50.0,120.0,120.0,0.0,0.0
4879,51.0,120.0,120.0,0.0,0.0
4880,46.0,120.0,120.0,0.0,0.0
4881,48.0,120.0,120.0,0.0,0.0
4882,50.0,120.0,120.0,0.0,0.0
4883,51.0,120.0,120.0,0.0,0.0
4884,46.0,120.0,120.0,0.0,0.0
4885,48.0,120.0,120.0,0.0,0.0
4886,50.0,120.0,120.0,0.0,0.0
4887,51.0,120.0,2040.0,0.0,0.0
4888,32.0,120.0,120.0,0.0,0.0
4889,31.0,120.0,120.0,0.0,0.0
4890,29.0,120.0,120.0,0.0,0.0
4891,27.0,120.0,120.0,0.0,0.0
4892,32.0,120.0,120.0,0.0,0.0
4893,31.0,120.0,120.0,0.0,0.0
4894,29.0,120.0,120.0,0.0,0.0
4895,27.0,120.0,120.0,0.0,0.0
4896,32.0,120.0,120.0,0.0,0.0
4897,31.0,120.0,120.0,0.0,0.0
4898,29.0,120.0,120.0,0.0,0.0
4899,27.0,120.0,120.0,0.0,0.0
4900,32.0,120.0,120.0,0.0,0.0
4901,31.0,120.0,120.0,0.0,0.0
4902,29.0,120.0,120.0,0.0,0.0
4903,27.0,120.0,2040.0,0.0,0.0
4904,50.0,120.0,120.0,0.0,0.0
4905,51.0,120.0,120.0,0.0,0.0
4906,53.0,120.0,120.0,0.0,0.0
4907,55.0,120.0,120.0,0.0,0.0
4908,50.0,120.0,120.0,0.0,0.0
4909,51.0,120.0,120.0,0.0,0.0
4910,53.0,120.0,120.0,0.0,0.0
4911,55.0,120.0,120.0,0.0,0.0
4912,50.0,120.0,120.0,0.0,0.0
4913,51.0,120.0,120.0,0.0,0.0
4914,53.0,120.0,120.0,0.0,0.0
4915,55.0,120.0,120.0,0.0,0.0
4916,50.0,120.0,120.0,0.0,0.0
4917,51.0,120.0,120.0,0.0,0.0
4918,53.0,120.0,120.0,0.0,0.0
4919,55.0,120.0,240.0,0.0,0.0
4920,32.0,0.0,120.0,0.0,0.0
4921,31.0,120.0,120.0,0.0,0.0
4922,29.0,120.0,120.0,0.0,0.0
4923,27.0,120.0,120.0,0.0,0.0
4924,32.0,120.0,120.0,0.0,0.0
4925,31.0,0.0,120.0,0.0,0.0
4926,55.0,120.0,120.0,0.0,0.0
4927,29.0,120.0,120.0,0.0,0.0
4928,56.0,0.0,120.0,0.0,0.0
4929,58.0,0.0,120.0,0.0,0.0
4930,27.0,120.0,120.0,0.0,0.0
4931,32.0,120.0,120.0,0.0,0.0
4932,31.0,120.0,120.0,0.0,0.0
4933,29.0,120.0,120.0,0.0,0.0
4934,27.0,120.0,120.0,0.0,0.0
4935,32.0,80.0,120.0,0.0,0.0
4936,58.0,40.0,90.0,0.0,0.0
4937,31.0,40.0,120.0,0.0,0.0
4938,60.0,80.0,90.0,0.0,0.0
4939,29.0,0.0,120.0,0.0,0.0
4940,62.0,120.0,90.0,0.0,0.0
4941,27.0,120.0,120.0,0.0,0.0
4942,63.0,120.0,240.0,0.0,0.0
4943,32.0,0.0,120.0,0.0,0.0
4944,31.0,120.0,120.0,0.0,0.0
4945,29.0,120.0,120.0,0.0,0.0
4946,27.0,120.0,120.0,0.0,0.0
4947,32.0,120.0,120.0,0.0,0.0
4948,31.0,0.0,120.0,0.0,0.0
4949,63.0,120.0,120.0,0.0,0.0
4950,29.0,0.0,120.0,0.0,0.0
4951,65.0,120.0,120.0,0.0,0.0
4952,27.0,120.0,120.0,0.0,0.0
4953,67.0,0.0,120.0,0.0,0.0
4954,32.0,120.0,120.0,0.0,0.0
4955,67.0,0.0,120.0,0.0,0.0
4956,31.0,120.0,120.0,0.0,0.0
4957,29.0,0.0,120.0,0.0,0.0
4958,68.0,120.0,120.0,0.0,0.0
4959,27.0,0.0,120.0,0.0,0.0
4960,70.0,120.0,120.0,0.0,0.0
4961,32.0,80.0,120.0,0.0,0.0
4962,70.0,40.0,90.0,0.0,0.0
4963,31.0,40.0,120.0,0.0,0.0
4964,72.0,80.0,90.0,0.0,0.0
4965,29.0,120.0,120.0,0.0,0.0
4966,74.0,0.0,90.0,0.0,0.0
4967,27.0,120.0,120.0,0.0,0.0
4968,75.0,120.0,240.0,0.0,0.0
4969,32.0,0.0,120.0,0.0,0.0
4970,31.0,120.0,120.0,0.0,0.0
4971,29.0,120.0,120.0,0.0,0.0
4972,27.0,120.0,120.0,0.0,0.0
4973,32.0,80.0,120.0,0.0,0.0
4974,31.0,40.0,120.0,0.0,0.0
4975,58.0,40.0,90.0,0.0,0.0
4976,60.0,80.0,90.0,0.0,0.0
4977,29.0,0.0,120.0,0.0,0.0
4978,62.0,120.0,90.0,0.0,0.0
4979,27.0,120.0,120.0,0.0,0.0
4980,63.0,0.0,240.0,0.0,0.0
4981,32.0,120.0,120.0,0.0,0.0
4982,31.0,120.0,120.0,0.0,0.0
4983,29.0,120.0,120.0,0.0,0.0
4984,27.0,120.0,120.0,0.0,0.0
4985,32.0,120.0,120.0,0.0,0.0
4986,63.0,120.0,120.0,0.0,0.0
4987,31.0,0.0,120.0,0.0,0.0
4988,65.0,0.0,120.0,0.0,0.0
4989,29.0,120.0,120.0,0.0,0.0
4990,67.0,0.0,120.0,0.0,0.0
4991,27.0,120.0,120.0,0.0,0.0
4992,32.0,120.0,120.0,0.0,0.0
4993,31.0,120.0,120.0,0.0,0.0
4994,29.0,120.0,120.0,0.0,0.0
4995,27.0,120.0,120.0,0.0,0.0
4996,32.0,120.0,120.0,0.0,0.0
4997,67.0,0.0,120.0,0.0,0.0
4998,31.0,120.0,120.0,0.0,0.0
4999,68.0,0.0,120.0,0.0,0.0
5000,29.0,120.0,120.0,0.0,0.0
5001,27.0,0.0,120.0,0.0,0.0
5002,70.0,120.0,120.0,0.0,0.0
5003,32.0,80.0,120.0,0.0,0.0
5004,70.0,40.0,90.0,0.0,0.0
5005,31.0,40.0,120.0,0.0,0.0
5006,72.0,80.0,90.0,0.0,0.0
5007,29.0,120.0,120.0,0.0,0.0
5008,74.0,0.0,90.0,0.0,0.0
5009,27.0,120.0,120.0,0.0,0.0
5010,75.0,0.0,120.0,0.0,0.0
5011,32.0,120.0,120.0,0.0,0.0
5012,31.0,0.0,120.0,0.0,0.0
5013,75.0,120.0,120.0,0.0,0.0
5014,29.0,0.0,120.0,0.0,0.0
5015,77.0,120.0,120.0,0.0,0.0
5016,27.0,0.0,120.0,0.0,0.0
5017,79.0,120.0,120.0,0.0,0.0
5018,32.0,120.0,120.0,0.0,0.0
5019,31.0,120.0,120.0,0.0,0.0
5020,29.0,120.0,120.0,0.0,0.0
5021,27.0,120.0,120.0,0.0,0.0
5022,32.0,80.0,120.0,0.0,0.0
5023,31.0,40.0,120.0,0.0,0.0
5024,70.0,40.0,90.0,0.0,0.0
5025,72.0,80.0,90.0,0.0,0.0
5026,29.0,120.0,120.0,0.0,0.0
5027,74.0,0.0,90.0,0.0,0.0
5028,27.0,0.0,120.0,0.0,0.0
5029,75.0,120.0,120.0,0.0,0.0
5030,32.0,120.0,120.0,0.0,0.0
5031,31.0,120.0,120.0,0.0,0.0
5032,29.0,120.0,120.0,0.0,0.0
5033,27.0,120.0,120.0,0.0,0.0
5034,32.0,120.0,120.0,0.0,0.0
5035,75.0,120.0,120.0,0.0,0.0
5036,31.0,0.0,120.0,0.0,0.0
5037,29.0,0.0,120.0,0.0,0.0
5038,77.0,120.0,120.0,0.0,0.0
5039,27.0,120.0,120.0,0.0,0.0
5040,79.0,0.0,120.0,0.0,0.0
5041,32.0,120.0,120.0,0.0,0.0
5042,31.0,120.0,120.0,0.0,0.0
5043,29.0,120.0,120.0,0.0,0.0
5044,27.0,120.0,120.0,0.0,0.0
5045,32.0,120.0,120.0,0.0,0.0
5046,31.0,120.0,120.0,0.0,0.0
5047,75.0,0.0,120.0,0.0,0.0
5048,77.0,0.0,120.0,0.0,0.0
5049,29.0,120.0,120.0,0.0,0.0
5050,79.0,120.0,120.0,0.0,0.0
5051,27.0,0.0,120.0,0.0,0.0
5052,32.0,120.0,120.0,0.0,0.0
5053,31.0,0.0,120.0,0.0,0.0
5054,79.0,120.0,120.0,0.0,0.0
5055,80.0,0.0,120.0,0.0,0.0
5056,29.0,120.0,120.0,0.0,0.0
5057,82.0,0.0,120.0,0.0,0.0
5058,27.0,120.0,120.0,0.0,0.0
5059,32.0,120.0,120.0,0.0,0.0
5060,82.0,0.0,120.0,0.0,0.0
5061,31.0,120.0,120.0,0.0,0.0
5062,29.0,0.0,120.0,0.0,0.0
5063,84.0,120.0,120.0,0.0,0.0
5064,27.0,0.0,120.0,0.0,0.0
5065,85.0,120.0,120.0,0.0,0.0
5066,32.0,120.0,120.0,0.0,0.0
5067,31.0,120.0,120.0,0.0,0.0
5068,29.0,120.0,120.0,0.0,0.0
5069,27.0,120.0,120.0,0.0,0.0
5070,32.0,120.0,120.0,0.0,0.0
5071,31.0,0.0,120.0,0.0,0.0
5072,82.0,120.0,120.0,0.0,0.0
5073,29.0,0.0,120.0,0.0,0.0
5074,84.0,120.0,120.0,0.0,0.0
5075,27.0,120.0,120.0,0.0,0.0
5076,85.0,0.0,120.0,0.0,0.0
5077,33.0,120.0,120.0,0.0,0.0
5078,31.0,120.0,120.0,0.0,0.0
5079,29.0,120.0,120.0,0.0,0.0
5080,27.0,120.0,120.0,0.0,0.0
5081,33.0,120.0,120.0,0.0,0.0
5082,31.0,0.0,120.0,0.0,0.0
5083,82.0,120.0,120.0,0.0,0.0
5084,29.0,0.0,120.0,0.0,0.0
5085,84.0,120.0,120.0,0.0,0.0
5086,27.0,120.0,150.0,0.0,0.0
5087,85.0,20.0,120.0,0.0,0.0
5088,34.0,100.0,150.0,0.0,0.0
5089,31.0,100.0,150.0,0.0,0.0
5090,82.0,20.0,120.0,0.0,0.0
5091,84.0,20.0,120.0,0.0,0.0
5092,29.0,100.0,150.0,0.0,0.0
5093,27.0,120.0,150.0,0.0,0.0
5094,85.0,20.0,120.0,0.0,0.0
5095,34.0,100.0,150.0,0.0,0.0
5096,82.0,20.0,120.0,0.0,0.0
5097,31.0,100.0,150.0,0.0,0.0
5098,84.0,20.0,120.0,0.0,0.0
5099,29.0,100.0,150.0,0.0,0.0
5100,27.0,120.0,150.0,0.0,0.0
5101,85.0,20.0,120.0,0.0,0.0
5102,34.0,100.0,150.0,0.0,0.0
5103,31.0,100.0,150.0,0.0,0.0
5104,82.0,20.0,120.0,0.0,0.0
5105,84.0,20.0,120.0,0.0,0.0
5106,29.0,100.0,150.0,0.0,0.0
5107,27.0,120.0,150.0,0.0,0.0
5108,85.0,20.0,120.0,0.0,0.0
5109,34.0,100.0,150.0,0.0,0.0
5110,82.0,20.0,120.0,0.0,0.0
5111,31.0,100.0,150.0,0.0,0.0
5112,84.0,20.0,120.0,0.0,0.0
5113,29.0,120.0,150.0,0.0,0.0
5114,27.0,0.0,150.0,0.0,0.0
5115,85.0,120.0,150.0,0.0,0.0
5116,29.0,0.0,150.0,0.0,0.0
5117,84.0,120.0,150.0,0.0,0.0
5118,82.0,120.0,150.0,0.0,0.0
5119,31.0,0.0,150.0,0.0,0.0
5120,32.0,120.0,150.0,0.0,0.0
5121,80.0,0.0,150.0,0.0,0.0
5122,34.0,0.0,150.0,0.0,0.0
5123,79.0,120.0,150.0,0.0,0.0
5124,80.0,120.0,150.0,0.0,0.0
5125,32.0,0.0,150.0,0.0,0.0
5126,82.0,0.0,150.0,0.0,0.0
5127,31.0,120.0,150.0,0.0,0.0
5128,84.0,0.0,150.0,0.0,0.0
5129,29.0,120.0,150.0,0.0,0.0
5130,85.0,0.0,150.0,0.0,0.0
5131,27.0,120.0,150.0,0.0,0.0
5132,29.0,120.0,150.0,0.0,0.0
5133,84.0,0.0,150.0,0.0,0.0
5134,82.0,0.0,150.0,0.0,0.0
5135,31.0,120.0,150.0,0.0,0.0
5136,32.0,0.0,150.0,0.0,0.0
5137,80.0,120.0,150.0,0.0,0.0
5138,34.0,0.0,150.0,0.0,0.0
5139,79.0,120.0,150.0,0.0,0.0
5140,32.0,0.0,150.0,0.0,0.0
5141,80.0,120.0,150.0,0.0,0.0
5142,31.0,0.0,150.0,0.0,0.0
5143,82.0,120.0,150.0,0.0,0.0
5144,29.0,0.0,150.0,0.0,0.0
5145,84.0,240.0,150.0,0.0,0.0
5146,27.0,120.0,270.0,0.0,0.0
5147,85.0,0.0,270.0,0.0,0.0
5148,84.0,0.0,150.0,0.0,0.0
5149,29.0,120.0,150.0,0.0,0.0
5150,82.0,120.0,150.0,0.0,0.0
5151,31.0,0.0,150.0,0.0,0.0
5152,80.0,120.0,150.0,0.0,0.0
5153,32.0,0.0,150.0,0.0,0.0
5154,79.0,120.0,150.0,0.0,0.0
5155,34.0,0.0,150.0,0.0,0.0
5156,36.0,120.0,150.0,0.0,0.0
5157,77.0,0.0,150.0,0.0,0.0
5158,37.0,0.0,150.0,0.0,0.0
5159,75.0,120.0,150.0,0.0,0.0
5160,39.0,0.0,150.0,0.0,0.0
5161,73.0,120.0,150.0,0.0,0.0
5162,41.0,0.0,150.0,0.0,0.0
5163,72.0,120.0,150.0,0.0,0.0
5164,70.0,0.0,150.0,0.0,0.0
5165,43.0,120.0,150.0,0.0,0.0
5166,68.0,0.0,150.0,0.0,0.0
5167,44.0,120.0,150.0,0.0,0.0
5168,67.0,0.0,150.0,0.0,0.0
5169,46.0,120.0,150.0,0.0,0.0
5170,48.0,0.0,150.0,0.0,0.0
5171,65.0,120.0,150.0,0.0,0.0
5172,63.0,0.0,150.0,0.0,0.0
5173,49.0,120.0,150.0,0.0,0.0
5174,51.0,220.0,150.0,0.0,0.0
5175,61.0,0.0,150.0,0.0,0.0
5176,60.0,0.0,240.0,0.0,0.0
5177,44.0,180.0,240.0,0.0,0.0
5178,32.0,0.0,180.0,0.0,0.0
5179,48.0,0.0,180.0,0.0,0.0
5180,39.0,0.0,180.0,0.0,0.0
5181,44.0,240.0,180.0,0.0,0.0
5182,48.0,0.0,180.0,0.0,0.0
5183,44.0,0.0,180.0,0.0,0.0
5184,32.0,240.0,180.0,0.0,0.0
5185,39.0,0.0,180.0,0.0,0.0
5186,44.0,240.0,180.0,0.0,0.0
5187,48.0,0.0,180.0,0.0,0.0
5188,39.0,0.0,180.0,0.0,0.0
5189,32.0,0.0,180.0,0.0,0.0
5190,44.0,240.0,180.0,0.0,0.0
5191,48.0,0.0,180.0,0.0,0.0
5192,32.0,0.0,180.0,0.0,0.0
5193,39.0,0.0,180.0,0.0,0.0
5194,32.0,0.0,180.0,0.0,0.0
5195,39.0,240.0,180.0,0.0,0.0
5196,48.0,0.0,180.0,0.0,0.0
5197,44.0,0.0,180.0,0.0,0.0
5198,32.0,0.0,180.0,0.0,0.0
5199,44.0,240.0,180.0,0.0,0.0
5200,48.0,0.0,180.0,0.0,0.0
5201,39.0,0.0,180.0,0.0,0.0
5202,48.0,0.0,180.0,0.0,0.0
5203,44.0,0.0,180.0,0.0,0.0
5204,32.0,240.0,180.0,0.0,0.0
5205,39.0,0.0,180.0,0.0,0.0
5206,48.0,0.0,180.0,0.0,0.0
5207,44.0,0.0,180.0,0.0,0.0
5208,39.0,0.0,180.0,0.0,0.0
5209,32.0,240.0,180.0,0.0,0.0
5210,44.0,0.0,180.0,0.0,0.0
5211,32.0,0.0,180.0,0.0,0.0
5212,39.0,0.0,180.0,0.0,0.0
5213,48.0,240.0,180.0,0.0,0.0
5214,48.0,0.0,180.0,0.0,0.0
5215,44.0,0.0,180.0,0.0,0.0
5216,39.0,240.0,180.0,0.0,0.0
5217,32.0,0.0,180.0,0.0,0.0
5218,39.0,0.0,180.0,0.0,0.0
5219,44.0,240.0,180.0,0.0,0.0
5220,48.0,0.0,180.0,0.0,0.0
5221,32.0,0.0,180.0,0.0,0.0
5222,44.0,0.0,180.0,0.0,0.0
5223,32.0,0.0,180.0,0.0,0.0
5224,39.0,0.0,180.0,0.0,0.0
5225,48.0,240.0,180.0,0.0,0.0
5226,44.0,240.0,180.0,0.0,0.0
5227,48.0,0.0,180.0,0.0,0.0
5228,32.0,0.0,180.0,0.0,0.0
5229,39.0,0.0,180.0,0.0,0.0
5230,41.0,0.0,180.0,0.0,0.0
5231,32.0,240.0,180.0,0.0,0.0
5232,46.0,0.0,180.0,0.0,0.0
5233,50.0,0.0,180.0,0.0,0.0
5234,32.0,0.0,180.0,0.0,0.0
5235,50.0,240.0,180.0,0.0,0.0
5236,46.0,0.0,180.0,0.0,0.0
5237,41.0,0.0,180.0,0.0,0.0
5238,46.0,120.0,720.0,0.0,0.0
5239,39.0,240.0,180.0,0.0,0.0
5240,31.0,0.0,180.0,0.0,0.0
5241,51.0,0.0,720.0,0.0,0.0
5242,31.0,240.0,180.0,0.0,0.0
5243,39.0,0.0,180.0,0.0,0.0
5244,31.0,0.0,180.0,0.0,0.0
5245,39.0,60.0,180.0,0.0,0.0
5246,31.0,60.0,180.0,0.0,0.0
5247,39.0,0.0,180.0,0.0,0.0
5248,55.0,60.0,120.0,0.0,0.0
5249,53.0,120.0,120.0,0.0,0.0
5250,51.0,60.0,120.0,0.0,0.0
5251,31.0,240.0,180.0,0.0,0.0
5252,39.0,0.0,180.0,0.0,0.0
5253,31.0,240.0,180.0,0.0,0.0
5254,39.0,0.0,180.0,0.0,0.0
5255,31.0,240.0,180.0,0.0,0.0
5256,39.0,0.0,180.0,0.0,0.0
5257,31.0,60.0,180.0,0.0,0.0
5258,39.0,0.0,180.0,0.0,0.0
5259,81.0,180.0,60.0,0.0,0.0
5260,82.0,60.0,600.0,0.0,0.0
5261,31.0,0.0,180.0,0.0,0.0
5262,39.0,240.0,180.0,0.0,0.0
5263,39.0,0.0,180.0,0.0,0.0
5264,31.0,180.0,180.0,0.0,0.0
5265,31.0,60.0,180.0,0.0,0.0
5266,39.0,0.0,180.0,0.0,0.0
5267,80.0,120.0,120.0,0.0,0.0
5268,39.0,0.0,180.0,0.0,0.0
5269,79.0,60.0,120.0,0.0,0.0
5270,31.0,60.0,180.0,0.0,0.0
5271,77.0,180.0,120.0,0.0,0.0
5272,75.0,180.0,240.0,0.0,0.0
5273,31.0,0.0,180.0,0.0,0.0
5274,39.0,60.0,180.0,0.0,0.0
5275,31.0,240.0,180.0,0.0,0.0
5276,39.0,0.0,180.0,0.0,0.0
5277,31.0,240.0,180.0,0.0,0.0
5278,39.0,0.0,180.0,0.0,0.0
5279,39.0,240.0,180.0,0.0,0.0
5280,31.0,0.0,180.0,0.0,0.0
5281,46.0,0.0,180.0,0.0,0.0
5282,30.0,0.0,180.0,0.0,0.0
5283,42.0,0.0,180.0,0.0,0.0
5284,37.0,240.0,180.0,0.0,0.0
5285,46.0,0.0,180.0,0.0,0.0
5286,42.0,0.0,180.0,0.0,0.0
5287,30.0,240.0,180.0,0.0,0.0
5288,37.0,0.0,180.0,0.0,0.0
5289,46.0,240.0,180.0,0.0,0.0
5290,30.0,0.0,180.0,0.0,0.0
5291,42.0,0.0,180.0,0.0,0.0
5292,37.0,0.0,180.0,0.0,0.0
5293,37.0,240.0,180.0,0.0,0.0
5294,30.0,0.0,180.0,0.0,0.0
5295,46.0,0.0,180.0,0.0,0.0
5296,42.0,0.0,180.0,0.0,0.0
5297,42.0,0.0,180.0,0.0,0.0
5298,46.0,240.0,180.0,0.0,0.0
5299,37.0,0.0,180.0,0.0,0.0
5300,30.0,0.0,180.0,0.0,0.0
5301,42.0,0.0,180.0,0.0,0.0
5302,46.0,0.0,180.0,0.0,0.0
5303,30.0,0.0,180.0,0.0,0.0
5304,37.0,240.0,180.0,0.0,0.0
5305,37.0,0.0,180.0,0.0,0.0
5306,30.0,240.0,180.0,0.0,0.0
5307,46.0,0.0,180.0,0.0,0.0
5308,42.0,0.0,180.0,0.0,0.0
5309,42.0,0.0,180.0,0.0,0.0
5310,30.0,240.0,180.0,0.0,0.0
5311,37.0,0.0,180.0,0.0,0.0
5312,46.0,0.0,180.0,0.0,0.0
5313,37.0,0.0,180.0,0.0,0.0
5314,42.0,0.0,180.0,0.0,0.0
5315,46.0,0.0,180.0,0.0,0.0
5316,30.0,240.0,180.0,0.0,0.0
5317,46.0,0.0,180.0,0.0,0.0
5318,30.0,0.0,180.0,0.0,0.0
5319,42.0,240.0,180.0,0.0,0.0
5320,37.0,0.0,180.0,0.0,0.0
5321,42.0,240.0,180.0,0.0,0.0
5322,46.0,0.0,180.0,0.0,0.0
5323,30.0,0.0,180.0,0.0,0.0
5324,37.0,0.0,180.0,0.0,0.0
5325,30.0,0.0,180.0,0.0,0.0
5326,42.0,0.0,180.0,0.0,0.0
5327,37.0,0.0,180.0,0.0,0.0
5328,46.0,240.0,180.0,0.0,0.0
5329,42.0,240.0,180.0,0.0,0.0
5330,46.0,0.0,180.0,0.0,0.0
5331,37.0,0.0,180.0,0.0,0.0
5332,30.0,0.0,180.0,0.0,0.0
5333,46.0,0.0,180.0,0.0,0.0
5334,42.0,0.0,180.0,0.0,0.0
5335,30.0,240.0,180.0,0.0,0.0
5336,37.0,0.0,180.0,0.0,0.0
5337,48.0,0.0,180.0,0.0,0.0
5338,44.0,0.0,180.0,0.0,0.0
5339,30.0,0.0,180.0,0.0,0.0
5340,39.0,240.0,180.0,0.0,0.0
5341,44.0,0.0,180.0,0.0,0.0
5342,48.0,240.0,180.0,0.0,0.0
5343,30.0,0.0,180.0,0.0,0.0
5344,39.0,0.0,180.0,0.0,0.0
5345,37.0,240.0,180.0,0.0,0.0
5346,29.0,0.0,180.0,0.0,0.0
5347,49.0,120.0,720.0,0.0,0.0
5348,44.0,0.0,720.0,0.0,0.0
5349,37.0,240.0,180.0,0.0,0.0
5350,29.0,0.0,180.0,0.0,0.0
5351,29.0,0.0,180.0,0.0,0.0
5352,37.0,60.0,180.0,0.0,0.0
5353,29.0,60.0,180.0,0.0,0.0
5354,53.0,60.0,120.0,0.0,0.0
5355,37.0,0.0,180.0,0.0,0.0
5356,51.0,120.0,120.0,0.0,0.0
5357,49.0,60.0,120.0,0.0,0.0
5358,37.0,240.0,180.0,0.0,0.0
5359,29.0,0.0,180.0,0.0,0.0
5360,29.0,0.0,180.0,0.0,0.0
5361,37.0,240.0,180.0,0.0,0.0
5362,29.0,240.0,180.0,0.0,0.0
5363,37.0,0.0,180.0,0.0,0.0
5364,29.0,60.0,180.0,0.0,0.0
5365,37.0,0.0,180.0,0.0,0.0
5366,79.0,180.0,60.0,0.0,0.0
5367,37.0,0.0,180.0,0.0,0.0
5368,80.0,60.0,600.0,0.0,0.0
5369,28.0,240.0,180.0,0.0,0.0
5370,28.0,0.0,180.0,0.0,0.0
5371,37.0,180.0,180.0,0.0,0.0
5372,37.0,0.0,180.0,0.0,0.0
5373,28.0,60.0,180.0,0.0,0.0
5374,78.0,120.0,120.0,0.0,0.0
5375,28.0,0.0,180.0,0.0,0.0
5376,76.0,60.0,120.0,0.0,0.0
5377,37.0,60.0,180.0,0.0,0.0
5378,75.0,180.0,120.0,0.0,0.0
5379,28.0,0.0,180.0,0.0,0.0
5380,73.0,180.0,240.0,0.0,0.0
5381,37.0,60.0,180.0,0.0,0.0
5382,37.0,0.0,180.0,0.0,0.0
5383,28.0,240.0,180.0,0.0,0.0
5384,28.0,240.0,180.0,0.0,0.0
5385,37.0,0.0,180.0,0.0,0.0
5386,37.0,0.0,180.0,0.0,0.0
5387,28.0,60.0,180.0,0.0,0.0
5388,84.0,180.0,60.0,0.0,0.0
5389,37.0,0.0,180.0,0.0,0.0
5390,27.0,240.0,180.0,0.0,0.0
5391,27.0,240.0,180.0,0.0,0.0
5392,37.0,0.0,180.0,0.0,0.0
5393,27.0,240.0,180.0,0.0,0.0
5394,37.0,0.0,180.0,0.0,0.0
5395,27.0,240.0,180.0,0.0,0.0
5396,37.0,0.0,180.0,0.0,0.0
5397,37.0,0.0,180.0,0.0,0.0
5398,27.0,240.0,180.0,0.0,0.0
5399,37.0,0.0,180.0,0.0,0.0
5400,27.0,60.0,180.0,0.0,0.0
5401,28.0,60.0,180.0,0.0,0.0
5402,85.0,120.0,15.0,0.0,0.0
5403,37.0,0.0,180.0,0.0,0.0
5404,83.0,120.0,120.0,0.0,0.0
5405,82.0,60.0,120.0,0.0,0.0
5406,37.0,60.0,180.0,0.0,0.0
5407,28.0,0.0,180.0,0.0,0.0
5408,80.0,120.0,120.0,0.0,0.0
5409,37.0,0.0,180.0,0.0,0.0
5410,79.0,60.0,120.0,0.0,0.0
5411,27.0,60.0,180.0,0.0,0.0
5412,80.0,120.0,120.0,0.0,0.0
5413,27.0,60.0,180.0,0.0,0.0
5414,37.0,0.0,180.0,0.0,0.0
5415,82.0,60.0,120.0,0.0,0.0
5416,83.0,120.0,120.0,0.0,0.0
5417,85.0,60.0,120.0,0.0,0.0
5418,28.0,60.0,180.0,0.0,0.0
5419,37.0,0.0,180.0,0.0,0.0
5420,83.0,120.0,120.0,0.0,0.0
5421,82.0,60.0,120.0,0.0,0.0
5422,37.0,60.0,180.0,0.0,0.0
5423,28.0,0.0,180.0,0.0,0.0
5424,80.0,120.0,120.0,0.0,0.0
5425,27.0,0.0,180.0,0.0,0.0
5426,37.0,60.0,180.0,0.0,0.0
5427,79.0,60.0,120.0,0.0,0.0
5428,80.0,120.0,120.0,0.0,0.0
5429,82.0,60.0,120.0,0.0,0.0
5430,37.0,60.0,180.0,0.0,0.0
5431,27.0,0.0,180.0,0.0,0.0
5432,83.0,120.0,120.0,0.0,0.0
5433,85.0,60.0,120.0,0.0,0.0
5434,28.0,0.0,180.0,0.0,0.0
5435,37.0,60.0,180.0,0.0,0.0
5436,83.0,120.0,120.0,0.0,0.0
5437,37.0,60.0,180.0,0.0,0.0
5438,82.0,60.0,120.0,0.0,0.0
5439,28.0,0.0,180.0,0.0,0.0
5440,80.0,120.0,120.0,0.0,0.0
5441,79.0,120.0,120.0,0.0,0.0
5442,37.0,6.0,480.0,0.0,0.0
5443,27.0,114.0,480.0,0.0,0.0
5444,80.0,120.0,120.0,0.0,0.0
5445,82.0,120.0,120.0,0.0,0.0
5446,83.0,0.0,120.0,0.0,0.0
5447,85.0,120.0,120.0,0.0,0.0
5448,39.0,120.0,1200.0,0.0,0.0
5449,51.0,0.0,1200.0,0.0,0.0
5450,83.0,120.0,120.0,0.0,0.0
5451,82.0,120.0,120.0,0.0,0.0
5452,80.0,120.0,120.0,0.0,0.0
5453,79.0,120.0,120.0,0.0,0.0
5454,76.0,120.0,120.0,0.0,0.0
5455,75.0,120.0,120.0,0.0,0.0
5456,73.0,120.0,120.0,0.0,0.0
5457,71.0,120.0,120.0,0.0,0.0
5458,70.0,0.0,120.0,0.0,0.0
5459,68.0,120.0,120.0,0.0,0.0
5460,53.0,0.0,120.0,0.0,0.0
5461,55.0,180.0,120.0,0.0,0.0
5462,67.0,0.0,120.0,0.0,0.0
5463,68.0,0.0,180.0,0.0,0.0
5464,56.0,480.0,180.0,0.0,0.0
5465,63.0,480.0,180.0,0.0,0.0
5466,39.0,0.0,180.0,0.0,0.0
5467,51.0,0.0,180.0,0.0,0.0
5468,35.0,0.0,180.0,0.0,0.0
5469,59.0,480.0,180.0,0.0,0.0
5470,47.0,0.0,180.0,0.0,0.0
5471,44.0,0.0,180.0,0.0,0.0
5472,32.0,0.0,180.0,0.0,0.0
5473,56.0,2220.0,180.0,0.0,0.0
5474,28.0,0.0,1920.0,0.0,0.0
5475,40.0,0.0,1920.0,0.0,0.0
5476,52.0,180.0,1920.0,0.0,0.0
5477,69.0,0.0,180.0,0.0,0.0
5478,57.0,480.0,180.0,0.0,0.0
5479,52.0,0.0,180.0,0.0,0.0
5480,64.0,480.0,180.0,0.0,0.0
5481,49.0,480.0,180.0,0.0,0.0
5482,61.0,0.0,180.0,0.0,0.0
5483,45.0,2220.0,180.0,0.0,0.0
5484,57.0,0.0,180.0,0.0,0.0
5485,54.0,0.0,1920.0,0.0,0.0
5486,30.0,0.0,1920.0,0.0,0.0
5487,42.0,180.0,1920.0,0.0,0.0
5488,59.0,60.0,180.0,0.0,0.0
5489,63.0,120.0,120.0,0.0,0.0
5490,66.0,120.0,120.0,0.0,0.0
5491,71.0,180.0,120.0,0.0,0.0
5492,54.0,60.0,180.0,0.0,0.0
5493,63.0,120.0,120.0,0.0,0.0
5494,66.0,120.0,120.0,0.0,0.0
5495,71.0,180.0,120.0,0.0,0.0
5496,51.0,60.0,180.0,0.0,0.0
5497,63.0,120.0,120.0,0.0,0.0
5498,66.0,120.0,120.0,0.0,0.0
5499,71.0,180.0,120.0,0.0,0.0
5500,47.0,60.0,180.0,0.0,0.0
5501,63.0,120.0,120.0,0.0,0.0
5502,66.0,120.0,120.0,0.0,0.0
5503,71.0,180.0,120.0,0.0,0.0
5504,49.0,60.0,180.0,0.0,0.0
5505,61.0,120.0,120.0,0.0,0.0
5506,64.0,120.0,120.0,0.0,0.0
5507,71.0,180.0,120.0,0.0,0.0
5508,52.0,60.0,180.0,0.0,0.0
5509,61.0,120.0,120.0,0.0,0.0
5510,67.0,120.0,120.0,0.0,0.0
5511,70.0,180.0,120.0,0.0,0.0
5512,53.0,60.0,180.0,0.0,0.0
5513,59.0,120.0,120.0,0.0,0.0
5514,62.0,120.0,120.0,0.0,0.0
5515,70.0,180.0,120.0,0.0,0.0
5516,50.0,60.0,180.0,0.0,0.0
5517,59.0,120.0,120.0,0.0,0.0
5518,65.0,120.0,120.0,0.0,0.0
5519,68.0,180.0,120.0,0.0,0.0
5520,51.0,60.0,180.0,0.0,0.0
5521,58.0,120.0,120.0,0.0,0.0
5522,63.0,120.0,120.0,0.0,0.0
5523,68.0,180.0,120.0,0.0,0.0
5524,50.0,60.0,180.0,0.0,0.0
5525,58.0,120.0,120.0,0.0,0.0
5526,63.0,120.0,120.0,0.0,0.0
5527,68.0,180.0,120.0,0.0,0.0
5528,51.0,60.0,180.0,0.0,0.0
5529,58.0,120.0,120.0,0.0,0.0
5530,63.0,120.0,120.0,0.0,0.0
5531,67.0,180.0,120.0,0.0,0.0
5532,39.0,60.0,180.0,0.0,0.0
5533,58.0,120.0,120.0,0.0,0.0
5534,61.0,120.0,120.0,0.0,0.0
5535,67.0,240.0,120.0,0.0,0.0
5536,44.0,0.0,240.0,0.0,0.0
5537,32.0,0.0,1920.0,0.0,0.0
5538,60.0,0.0,240.0,0.0,0.0
5539,68.0,180.0,240.0,0.0,0.0
5540,60.0,60.0,180.0,0.0,0.0
5541,51.0,180.0,120.0,0.0,0.0
5542,56.0,0.0,120.0,0.0,0.0
5543,60.0,60.0,180.0,0.0,0.0
5544,44.0,0.0,15.0,0.0,0.0
5545,56.0,180.0,120.0,0.0,0.0
5546,51.0,0.0,120.0,0.0,0.0
5547,44.0,180.0,240.0,0.0,0.0
5548,60.0,60.0,180.0,0.0,0.0
5549,56.0,0.0,120.0,0.0,0.0
5550,51.0,0.0,120.0,0.0,0.0
5551,60.0,60.0,180.0,0.0,0.0
5552,51.0,180.0,120.0,0.0,0.0
5553,56.0,0.0,120.0,0.0,0.0
5554,44.0,0.0,15.0,0.0,0.0
5555,60.0,60.0,180.0,0.0,0.0
5556,56.0,180.0,120.0,0.0,0.0
5557,51.0,0.0,120.0,0.0,0.0
5558,44.0,0.0,240.0,0.0,0.0
5559,60.0,60.0,180.0,0.0,0.0
5560,51.0,0.0,120.0,0.0,0.0
5561,56.0,180.0,120.0,0.0,0.0
5562,60.0,60.0,180.0,0.0,0.0
5563,51.0,0.0,120.0,0.0,0.0
5564,56.0,180.0,120.0,0.0,0.0
5565,44.0,0.0,15.0,0.0,0.0
5566,60.0,60.0,180.0,0.0,0.0
5567,51.0,180.0,120.0,0.0,0.0
5568,56.0,0.0,120.0,0.0,0.0
5569,60.0,60.0,180.0,0.0,0.0
5570,44.0,0.0,240.0,0.0,0.0
5571,56.0,180.0,120.0,0.0,0.0
5572,51.0,0.0,120.0,0.0,0.0
5573,60.0,60.0,180.0,0.0,0.0
5574,56.0,0.0,120.0,0.0,0.0
5575,51.0,0.0,120.0,0.0,0.0
5576,60.0,60.0,180.0,0.0,0.0
5577,44.0,180.0,15.0,0.0,0.0
5578,56.0,0.0,120.0,0.0,0.0
5579,51.0,0.0,120.0,0.0,0.0
5580,60.0,60.0,180.0,0.0,0.0
5581,44.0,180.0,240.0,0.0,0.0
5582,56.0,0.0,120.0,0.0,0.0
5583,51.0,0.0,120.0,0.0,0.0
5584,60.0,60.0,180.0,0.0,0.0
5585,51.0,180.0,120.0,0.0,0.0
5586,56.0,0.0,120.0,0.0,0.0
5587,62.0,60.0,180.0,0.0,0.0
5588,44.0,0.0,15.0,0.0,0.0
5589,53.0,0.0,120.0,0.0,0.0
5590,58.0,0.0,120.0,0.0,0.0
5591,44.0,180.0,15.0,0.0,0.0
5592,62.0,60.0,180.0,0.0,0.0
5593,53.0,240.0,120.0,0.0,0.0
5594,58.0,0.0,120.0,0.0,0.0
5595,63.0,120.0,720.0,0.0,0.0
5596,46.0,0.0,240.0,0.0,0.0
5597,51.0,0.0,120.0,0.0,0.0
5598,43.0,240.0,15.0,0.0,0.0
5599,51.0,240.0,120.0,0.0,0.0
5600,46.0,0.0,15.0,0.0,0.0
5601,43.0,0.0,240.0,0.0,0.0
5602,51.0,0.0,120.0,0.0,0.0
5603,67.0,120.0,120.0,0.0,0.0
5604,46.0,0.0,240.0,0.0,0.0
5605,51.0,120.0,120.0,0.0,0.0
5606,65.0,0.0,120.0,0.0,0.0
5607,43.0,0.0,15.0,0.0,0.0
5608,63.0,120.0,120.0,0.0,0.0
5609,51.0,0.0,120.0,0.0,0.0
5610,46.0,0.0,15.0,0.0,0.0
5611,43.0,240.0,15.0,0.0,0.0
5612,51.0,0.0,120.0,0.0,0.0
5613,46.0,240.0,15.0,0.0,0.0
5614,43.0,0.0,15.0,0.0,0.0
5615,51.0,240.0,120.0,0.0,0.0
5616,46.0,0.0,15.0,0.0,0.0
5617,43.0,0.0,15.0,0.0,0.0
5618,51.0,0.0,120.0,0.0,0.0
5619,81.0,0.0,60.0,0.0,0.0
5620,82.0,120.0,600.0,0.0,0.0
5621,43.0,240.0,15.0,0.0,0.0
5622,46.0,0.0,240.0,0.0,0.0
5623,51.0,0.0,120.0,0.0,0.0
5624,43.0,240.0,15.0,0.0,0.0
5625,46.0,0.0,240.0,0.0,0.0
5626,51.0,120.0,120.0,0.0,0.0
5627,46.0,0.0,240.0,0.0,0.0
5628,51.0,0.0,120.0,0.0,0.0
5629,80.0,0.0,120.0,0.0,0.0
5630,79.0,120.0,120.0,0.0,0.0
5631,43.0,120.0,15.0,0.0,0.0
5632,77.0,0.0,120.0,0.0,0.0
5633,51.0,0.0,120.0,0.0,0.0
5634,46.0,0.0,15.0,0.0,0.0
5635,43.0,240.0,15.0,0.0,0.0
5636,75.0,0.0,240.0,0.0,0.0
5637,51.0,0.0,120.0,0.0,0.0
5638,43.0,240.0,240.0,0.0,0.0
5639,46.0,0.0,240.0,0.0,0.0
5640,51.0,0.0,120.0,0.0,0.0
5641,46.0,0.0,240.0,0.0,0.0
5642,43.0,0.0,240.0,0.0,0.0
5643,51.0,240.0,120.0,0.0,0.0
5644,43.0,0.0,240.0,0.0,0.0
5645,51.0,0.0,120.0,0.0,0.0
5646,46.0,180.0,15.0,0.0,0.0
5647,34.0,0.0,1920.0,0.0,0.0
5648,61.0,60.0,180.0,0.0,0.0
5649,58.0,0.0,120.0,0.0,0.0
5650,61.0,60.0,180.0,0.0,0.0
5651,58.0,0.0,120.0,0.0,0.0
5652,53.0,180.0,120.0,0.0,0.0
5653,61.0,60.0,180.0,0.0,0.0
5654,46.0,0.0,15.0,0.0,0.0
5655,53.0,0.0,120.0,0.0,0.0
5656,58.0,0.0,120.0,0.0,0.0
5657,61.0,60.0,180.0,0.0,0.0
5658,46.0,180.0,15.0,0.0,0.0
5659,53.0,0.0,120.0,0.0,0.0
5660,58.0,180.0,120.0,0.0,0.0
5661,46.0,0.0,15.0,0.0,0.0
5662,61.0,60.0,180.0,0.0,0.0
5663,58.0,0.0,120.0,0.0,0.0
5664,53.0,180.0,120.0,0.0,0.0
5665,61.0,60.0,180.0,0.0,0.0
5666,46.0,0.0,15.0,0.0,0.0
5667,58.0,0.0,120.0,0.0,0.0
5668,53.0,180.0,120.0,0.0,0.0
5669,61.0,60.0,180.0,0.0,0.0
5670,46.0,0.0,15.0,0.0,0.0
5671,53.0,180.0,120.0,0.0,0.0
5672,58.0,0.0,120.0,0.0,0.0
5673,61.0,60.0,180.0,0.0,0.0
5674,46.0,0.0,15.0,0.0,0.0
5675,58.0,180.0,120.0,0.0,0.0
5676,53.0,0.0,120.0,0.0,0.0
5677,46.0,0.0,240.0,0.0,0.0
5678,61.0,60.0,180.0,0.0,0.0
5679,58.0,0.0,120.0,0.0,0.0
5680,53.0,180.0,120.0,0.0,0.0
5681,46.0,180.0,240.0,0.0,0.0
5682,61.0,60.0,180.0,0.0,0.0
5683,58.0,0.0,120.0,0.0,0.0
5684,53.0,0.0,120.0,0.0,0.0
5685,61.0,60.0,180.0,0.0,0.0
5686,53.0,0.0,120.0,0.0,0.0
5687,58.0,180.0,120.0,0.0,0.0
5688,46.0,0.0,15.0,0.0,0.0
5689,61.0,60.0,180.0,0.0,0.0
5690,53.0,0.0,120.0,0.0,0.0
5691,58.0,180.0,120.0,0.0,0.0
5692,46.0,0.0,15.0,0.0,0.0
5693,61.0,60.0,180.0,0.0,0.0
5694,58.0,0.0,120.0,0.0,0.0
5695,53.0,180.0,120.0,0.0,0.0
5696,61.0,60.0,180.0,0.0,0.0
5697,46.0,180.0,240.0,0.0,0.0
5698,58.0,0.0,120.0,0.0,0.0
5699,53.0,0.0,120.0,0.0,0.0
5700,64.0,60.0,180.0,0.0,0.0
5701,60.0,180.0,120.0,0.0,0.0
5702,55.0,0.0,120.0,0.0,0.0
5703,46.0,0.0,15.0,0.0,0.0
5704,64.0,60.0,180.0,0.0,0.0
5705,55.0,240.0,120.0,0.0,0.0
5706,60.0,0.0,120.0,0.0,0.0
5707,44.0,240.0,240.0,0.0,0.0
5708,48.0,0.0,240.0,0.0,0.0
5709,65.0,120.0,720.0,0.0,0.0
5710,53.0,0.0,120.0,0.0,0.0
5711,53.0,240.0,120.0,0.0,0.0
5712,48.0,0.0,15.0,0.0,0.0
5713,44.0,0.0,15.0,0.0,0.0
5714,53.0,0.0,120.0,0.0,0.0
5715,44.0,0.0,15.0,0.0,0.0
5716,68.0,120.0,120.0,0.0,0.0
5717,67.0,120.0,120.0,0.0,0.0
5718,53.0,0.0,120.0,0.0,0.0
5719,48.0,0.0,15.0,0.0,0.0
5720,44.0,0.0,15.0,0.0,0.0
5721,65.0,120.0,120.0,0.0,0.0
5722,53.0,0.0,120.0,0.0,0.0
5723,53.0,240.0,120.0,0.0,0.0
5724,48.0,0.0,15.0,0.0,0.0
5725,44.0,0.0,15.0,0.0,0.0
5726,53.0,240.0,120.0,0.0,0.0
5727,48.0,0.0,240.0,0.0,0.0
5728,53.0,240.0,120.0,0.0,0.0
5729,83.0,0.0,60.0,0.0,0.0
5730,84.0,120.0,600.0,0.0,0.0
5731,44.0,0.0,15.0,0.0,0.0
5732,48.0,0.0,240.0,0.0,0.0
5733,53.0,240.0,120.0,0.0,0.0
5734,44.0,0.0,240.0,0.0,0.0
5735,53.0,0.0,120.0,0.0,0.0
5736,48.0,120.0,15.0,0.0,0.0
5737,53.0,0.0,120.0,0.0,0.0
5738,82.0,0.0,120.0,0.0,0.0
5739,44.0,120.0,15.0,0.0,0.0
5740,48.0,0.0,15.0,0.0,0.0
5741,80.0,120.0,120.0,0.0,0.0
5742,53.0,0.0,120.0,0.0,0.0
5743,79.0,0.0,120.0,0.0,0.0
5744,77.0,240.0,240.0,0.0,0.0
5745,48.0,0.0,15.0,0.0,0.0
5746,44.0,0.0,240.0,0.0,0.0
5747,53.0,0.0,120.0,0.0,0.0
5748,53.0,0.0,120.0,0.0,0.0
5749,48.0,0.0,15.0,0.0,0.0
5750,44.0,240.0,15.0,0.0,0.0
5751,53.0,0.0,120.0,0.0,0.0
5752,48.0,240.0,15.0,0.0,0.0
5753,44.0,0.0,240.0,0.0,0.0
5754,53.0,0.0,120.0,0.0,0.0
5755,79.0,240.0,60.0,0.0,0.0
5756,49.0,0.0,240.0,0.0,0.0
5757,80.0,120.0,600.0,0.0,0.0
5758,56.0,240.0,120.0,0.0,0.0
5759,53.0,0.0,15.0,0.0,0.0
5760,56.0,0.0,120.0,0.0,0.0
5761,49.0,120.0,15.0,0.0,0.0
5762,53.0,120.0,240.0,0.0,0.0
5763,56.0,0.0,120.0,0.0,0.0
5764,79.0,0.0,120.0,0.0,0.0
5765,77.0,120.0,120.0,0.0,0.0
5766,53.0,0.0,240.0,0.0,0.0
5767,76.0,240.0,120.0,0.0,0.0
5768,56.0,0.0,120.0,0.0,0.0
5769,49.0,0.0,15.0,0.0,0.0
5770,77.0,240.0,240.0,0.0,0.0
5771,58.0,0.0,120.0,0.0,0.0
5772,53.0,0.0,15.0,0.0,0.0
5773,58.0,0.0,120.0,0.0,0.0
5774,49.0,240.0,15.0,0.0,0.0
5775,58.0,0.0,120.0,0.0,0.0
5776,49.0,0.0,15.0,0.0,0.0
5777,53.0,240.0,15.0,0.0,0.0
5778,58.0,240.0,120.0,0.0,0.0
5779,79.0,0.0,60.0,0.0,0.0
5780,80.0,120.0,600.0,0.0,0.0
5781,53.0,0.0,240.0,0.0,0.0
5782,49.0,240.0,240.0,0.0,0.0
5783,59.0,0.0,120.0,0.0,0.0
5784,53.0,0.0,240.0,0.0,0.0
5785,59.0,0.0,120.0,0.0,0.0
5786,49.0,120.0,15.0,0.0,0.0
5787,53.0,0.0,240.0,0.0,0.0
5788,79.0,120.0,120.0,0.0,0.0
5789,59.0,0.0,120.0,0.0,0.0
5790,77.0,120.0,120.0,0.0,0.0
5791,76.0,0.0,120.0,0.0,0.0
5792,59.0,0.0,120.0,0.0,0.0
5793,49.0,120.0,15.0,0.0,0.0
5794,53.0,0.0,15.0,0.0,0.0
5795,77.0,120.0,120.0,0.0,0.0
5796,56.0,120.0,120.0,0.0,0.0
5797,76.0,0.0,120.0,0.0,0.0
5798,53.0,0.0,15.0,0.0,0.0
5799,49.0,0.0,15.0,0.0,0.0
5800,77.0,120.0,120.0,0.0,0.0
5801,79.0,0.0,120.0,0.0,0.0
5802,56.0,0.0,120.0,0.0,0.0
5803,80.0,120.0,120.0,0.0,0.0
5804,49.0,120.0,15.0,0.0,0.0
5805,81.0,120.0,120.0,0.0,0.0
5806,53.0,0.0,120.0,0.0,0.0
5807,82.0,120.0,120.0,0.0,0.0
5808,49.0,140.0,240.0,0.0,0.0
5809,53.0,0.0,120.0,0.0,0.0
5810,83.0,0.0,120.0,0.0,0.0
5811,84.0,0.0,630.0,0.0,0.0
5812,48.0,120.0,150.0,0.0,0.0
5813,52.0,120.0,150.0,0.0,0.0
5814,55.0,100.0,150.0,0.0,0.0
5815,60.0,140.0,120.0,0.0,0.0
5816,48.0,120.0,150.0,0.0,0.0
5817,52.0,0.0,150.0,0.0,0.0
5818,82.0,120.0,150.0,0.0,0.0
5819,55.0,0.0,150.0,0.0,0.0
5820,80.0,100.0,150.0,0.0,0.0
5821,60.0,20.0,120.0,0.0,0.0
5822,79.0,120.0,150.0,0.0,0.0
5823,80.0,0.0,150.0,0.0,0.0
5824,48.0,120.0,150.0,0.0,0.0
5825,79.0,120.0,150.0,0.0,0.0
5826,53.0,0.0,150.0,0.0,0.0
5827,56.0,100.0,150.0,0.0,0.0
5828,77.0,0.0,150.0,0.0,0.0
5829,60.0,20.0,120.0,0.0,0.0
5830,76.0,120.0,150.0,0.0,0.0
5831,48.0,120.0,150.0,0.0,0.0
5832,77.0,0.0,150.0,0.0,0.0
5833,53.0,120.0,150.0,0.0,0.0
5834,80.0,0.0,150.0,0.0,0.0
5835,79.0,100.0,150.0,0.0,0.0
5836,56.0,0.0,150.0,0.0,0.0
5837,77.0,120.0,150.0,0.0,0.0
5838,60.0,20.0,120.0,0.0,0.0
5839,76.0,120.0,150.0,0.0,0.0
5840,48.0,0.0,150.0,0.0,0.0
5841,55.0,120.0,150.0,0.0,0.0
5842,74.0,0.0,150.0,0.0,0.0
5843,72.0,100.0,150.0,0.0,0.0
5844,58.0,0.0,150.0,0.0,0.0
5845,60.0,20.0,120.0,0.0,0.0
5846,71.0,120.0,150.0,0.0,0.0
5847,48.0,120.0,150.0,0.0,0.0
5848,72.0,0.0,150.0,0.0,0.0
5849,55.0,0.0,150.0,0.0,0.0
5850,74.0,120.0,150.0,0.0,0.0
5851,75.0,0.0,150.0,0.0,0.0
5852,58.0,100.0,150.0,0.0,0.0
5853,60.0,20.0,120.0,0.0,0.0
5854,76.0,120.0,150.0,0.0,0.0
5855,77.0,120.0,150.0,0.0,0.0
5856,48.0,0.0,150.0,0.0,0.0
5857,76.0,120.0,150.0,0.0,0.0
5858,53.0,0.0,150.0,0.0,0.0
5859,77.0,0.0,150.0,0.0,0.0
5860,56.0,100.0,150.0,0.0,0.0
5861,60.0,20.0,120.0,0.0,0.0
5862,79.0,120.0,150.0,0.0,0.0
5863,80.0,0.0,150.0,0.0,0.0
5864,48.0,120.0,150.0,0.0,0.0
5865,53.0,0.0,150.0,0.0,0.0
5866,81.0,120.0,150.0,0.0,0.0
5867,56.0,0.0,150.0,0.0,0.0
5868,82.0,100.0,150.0,0.0,0.0
5869,60.0,20.0,120.0,0.0,0.0
5870,83.0,120.0,150.0,0.0,0.0
5871,48.0,120.0,150.0,0.0,0.0
5872,84.0,0.0,150.0,0.0,0.0
5873,52.0,120.0,150.0,0.0,0.0
5874,83.0,0.0,150.0,0.0,0.0
5875,84.0,0.0,150.0,0.0,0.0
5876,55.0,100.0,150.0,0.0,0.0
5877,83.0,120.0,150.0,0.0,0.0
5878,60.0,20.0,120.0,0.0,0.0
5879,84.0,0.0,150.0,0.0,0.0
5880,48.0,120.0,150.0,0.0,0.0
5881,82.0,0.0,150.0,0.0,0.0
5882,52.0,120.0,150.0,0.0,0.0
5883,55.0,0.0,150.0,0.0,0.0
5884,80.0,100.0,150.0,0.0,0.0
5885,60.0,20.0,120.0,0.0,0.0
5886,79.0,120.0,150.0,0.0,0.0
5887,48.0,0.0,150.0,0.0,0.0
5888,80.0,120.0,150.0,0.0,0.0
5889,79.0,0.0,150.0,0.0,0.0
5890,53.0,120.0,150.0,0.0,0.0
5891,56.0,0.0,150.0,0.0,0.0
5892,77.0,100.0,150.0,0.0,0.0
5893,76.0,120.0,150.0,0.0,0.0
5894,60.0,20.0,120.0,0.0,0.0
5895,77.0,0.0,150.0,0.0,0.0
5896,48.0,120.0,150.0,0.0,0.0
5897,80.0,120.0,150.0,0.0,0.0
5898,53.0,0.0,150.0,0.0,0.0
5899,79.0,100.0,150.0,0.0,0.0
5900,56.0,0.0,150.0,0.0,0.0
5901,60.0,20.0,120.0,0.0,0.0
5902,77.0,120.0,150.0,0.0,0.0
5903,48.0,120.0,150.0,0.0,0.0
5904,76.0,0.0,150.0,0.0,0.0
5905,74.0,0.0,150.0,0.0,0.0
5906,55.0,120.0,150.0,0.0,0.0
5907,72.0,0.0,150.0,0.0,0.0
5908,58.0,100.0,150.0,0.0,0.0
5909,71.0,120.0,150.0,0.0,0.0
5910,60.0,20.0,120.0,0.0,0.0
5911,48.0,120.0,150.0,0.0,0.0
5912,72.0,0.0,150.0,0.0,0.0
5913,74.0,0.0,150.0,0.0,0.0
5914,55.0,120.0,150.0,0.0,0.0
5915,75.0,100.0,150.0,0.0,0.0
5916,58.0,0.0,150.0,0.0,0.0
5917,60.0,20.0,120.0,0.0,0.0
5918,76.0,120.0,150.0,0.0,0.0
5919,77.0,120.0,150.0,0.0,0.0
5920,48.0,0.0,150.0,0.0,0.0
5921,76.0,120.0,150.0,0.0,0.0
5922,53.0,0.0,150.0,0.0,0.0
5923,56.0,100.0,150.0,0.0,0.0
5924,77.0,0.0,150.0,0.0,0.0
5925,60.0,20.0,120.0,0.0,0.0
5926,79.0,120.0,150.0,0.0,0.0
5927,80.0,120.0,150.0,0.0,0.0
5928,48.0,0.0,150.0,0.0,0.0
5929,53.0,120.0,150.0,0.0,0.0
5930,81.0,0.0,150.0,0.0,0.0
5931,56.0,100.0,150.0,0.0,0.0
5932,82.0,0.0,150.0,0.0,0.0
5933,83.0,100.0,150.0,0.0,0.0
5934,60.0,20.0,120.0,0.0,0.0
5935,48.0,0.0,120.0,0.0,0.0
5936,84.0,120.0,120.0,0.0,0.0
5937,52.0,120.0,120.0,0.0,0.0
5938,79.0,0.0,120.0,0.0,0.0
5939,76.0,0.0,120.0,0.0,0.0
5940,55.0,120.0,120.0,0.0,0.0
5941,72.0,0.0,120.0,0.0,0.0
5942,60.0,120.0,120.0,0.0,0.0
5943,71.0,0.0,120.0,0.0,0.0
5944,59.0,120.0,120.0,0.0,0.0
5945,60.0,120.0,120.0,0.0,0.0
5946,72.0,0.0,120.0,0.0,0.0
5947,56.0,0.0,120.0,0.0,0.0
5948,77.0,120.0,120.0,0.0,0.0
5949,53.0,120.0,120.0,0.0,0.0
5950,80.0,0.0,120.0,0.0,0.0
5951,48.0,120.0,120.0,0.0,0.0
5952,84.0,0.0,120.0,0.0,0.0
5953,79.0,0.0,120.0,0.0,0.0
5954,52.0,120.0,120.0,0.0,0.0
5955,76.0,0.0,120.0,0.0,0.0
5956,55.0,120.0,120.0,0.0,0.0
5957,60.0,120.0,120.0,0.0,0.0
5958,72.0,0.0,120.0,0.0,0.0
5959,59.0,0.0,120.0,0.0,0.0
5960,71.0,120.0,120.0,0.0,0.0
5961,60.0,120.0,120.0,0.0,0.0
5962,72.0,0.0,120.0,0.0,0.0
5963,77.0,0.0,120.0,0.0,0.0
5964,56.0,120.0,120.0,0.0,0.0
5965,80.0,120.0,120.0,0.0,0.0
5966,53.0,0.0,120.0,0.0,0.0
5967,84.0,120.0,120.0,0.0,0.0
5968,48.0,0.0,120.0,0.0,0.0
5969,52.0,0.0,120.0,0.0,0.0
5970,79.0,120.0,120.0,0.0,0.0
5971,55.0,120.0,120.0,0.0,0.0
5972,76.0,0.0,120.0,0.0,0.0
5973,60.0,120.0,120.0,0.0,0.0
5974,72.0,0.0,120.0,0.0,0.0
5975,84.0,120.0,120.0,0.0,0.0
5976,48.0,0.0,120.0,0.0,0.0
5977,53.0,0.0,120.0,0.0,0.0
5978,80.0,120.0,120.0,0.0,0.0
5979,56.0,0.0,120.0,0.0,0.0
5980,77.0,120.0,120.0,0.0,0.0
5981,60.0,0.0,120.0,0.0,0.0
5982,72.0,120.0,120.0,0.0,0.0
5983,48.0,0.0,120.0,0.0,0.0
5984,84.0,120.0,120.0,0.0,0.0
5985,79.0,0.0,120.0,0.0,0.0
5986,52.0,120.0,120.0,0.0,0.0
5987,76.0,120.0,120.0,0.0,0.0
5988,55.0,0.0,120.0,0.0,0.0
5989,60.0,0.0,120.0,0.0,0.0
5990,72.0,120.0,120.0,0.0,0.0
5991,84.0,120.0,120.0,0.0,0.0
5992,48.0,0.0,120.0,0.0,0.0
5993,53.0,0.0,120.0,0.0,0.0
5994,80.0,120.0,120.0,0.0,0.0
5995,56.0,0.0,120.0,0.0,0.0
5996,77.0,120.0,120.0,0.0,0.0
5997,72.0,0.0,120.0,0.0,0.0
5998,84.0,120.0,120.0,0.0,0.0
5999,60.0,120.0,15.0,0.0,0.0
6000,55.0,0.0,480.0,0.0,0.0
6001,52.0,0.0,480.0,0.0,0.0
6002,48.0,0.0,480.0,0.0,0.0
6003,79.0,120.0,120.0,0.0,0.0
6004,76.0,120.0,120.0,0.0,0.0
6005,72.0,120.0,120.0,0.0,0.0
6006,79.0,120.0,120.0,0.0,0.0
6007,76.0,120.0,120.0,0.0,0.0
6008,72.0,120.0,120.0,0.0,0.0
6009,67.0,120.0,120.0,0.0,0.0
6010,76.0,120.0,120.0,0.0,0.0
6011,72.0,120.0,120.0,0.0,0.0
6012,67.0,120.0,120.0,0.0,0.0
6013,64.0,120.0,120.0,0.0,0.0
6014,72.0,120.0,120.0,0.0,0.0
6015,67.0,120.0,120.0,0.0,0.0
6016,64.0,120.0,120.0,0.0,0.0
6017,60.0,120.0,120.0,0.0,0.0
6018,67.0,120.0,120.0,0.0,0.0
6019,64.0,120.0,120.0,0.0,0.0
6020,60.0,120.0,120.0,0.0,0.0
6021,55.0,120.0,120.0,0.0,0.0
6022,64.0,120.0,120.0,0.0,0.0
6023,60.0,120.0,120.0,0.0,0.0
6024,55.0,120.0,120.0,0.0,0.0
6025,52.0,120.0,120.0,0.0,0.0
6026,60.0,120.0,120.0,0.0,0.0
6027,55.0,120.0,120.0,0.0,0.0
6028,52.0,120.0,120.0,0.0,0.0
6029,48.0,120.0,120.0,0.0,0.0
6030,36.0,120.0,120.0,0.0,0.0
6031,40.0,120.0,120.0,0.0,0.0
6032,43.0,120.0,120.0,0.0,0.0
6033,48.0,120.0,120.0,0.0,0.0
6034,36.0,240.0,120.0,0.0,0.0
6035,48.0,240.0,120.0,0.0,0.0
6036,38.0,240.0,120.0,0.0,0.0
6037,50.0,240.0,120.0,0.0,0.0
6038,72.0,0.0,120.0,0.0,0.0
6039,40.0,240.0,120.0,0.0,0.0
6040,60.0,0.0,120.0,0.0,0.0
6041,52.0,240.0,120.0,0.0,0.0
6042,74.0,240.0,120.0,0.0,0.0
6043,62.0,240.0,120.0,0.0,0.0
6044,76.0,0.0,120.0,0.0,0.0
6045,40.0,240.0,120.0,0.0,0.0
6046,52.0,0.0,120.0,0.0,0.0
6047,64.0,240.0,120.0,0.0,0.0
6048,41.0,240.0,120.0,0.0,0.0
6049,53.0,240.0,120.0,0.0,0.0
6050,43.0,0.0,120.0,0.0,0.0
6051,76.0,240.0,120.0,0.0,0.0
6052,55.0,0.0,120.0,0.0,0.0
6053,64.0,240.0,120.0,0.0,0.0
6054,77.0,240.0,120.0,0.0,0.0
6055,65.0,240.0,120.0,0.0,0.0
6056,79.0,240.0,120.0,0.0,0.0
6057,67.0,240.0,120.0,0.0,0.0
6058,81.0,240.0,120.0,0.0,0.0
6059,69.0,240.0,120.0,0.0,0.0
6060,82.0,0.0,120.0,0.0,0.0
6061,43.0,240.0,120.0,0.0,0.0
6062,55.0,0.0,120.0,0.0,0.0
6063,70.0,240.0,120.0,0.0,0.0
6064,45.0,0.0,120.0,0.0,0.0
6065,82.0,240.0,120.0,0.0,0.0
6066,72.0,0.0,120.0,0.0,0.0
6067,57.0,240.0,120.0,0.0,0.0
6068,82.0,240.0,120.0,0.0,0.0
6069,46.0,0.0,120.0,0.0,0.0
6070,74.0,0.0,120.0,0.0,0.0
6071,58.0,240.0,120.0,0.0,0.0
6072,82.0,0.0,120.0,0.0,0.0
6073,48.0,240.0,120.0,0.0,0.0
6074,60.0,240.0,120.0,0.0,0.0
6075,76.0,0.0,120.0,0.0,0.0
6076,50.0,240.0,120.0,0.0,0.0
6077,82.0,0.0,120.0,0.0,0.0
6078,62.0,240.0,120.0,0.0,0.0
6079,77.0,0.0,120.0,0.0,0.0
6080,82.0,0.0,120.0,0.0,0.0
6081,52.0,240.0,120.0,0.0,0.0
6082,79.0,0.0,120.0,0.0,0.0
6083,64.0,1080.0,120.0,0.0,0.0
6084,53.0,0.0,960.0,0.0,0.0
6085,69.0,0.0,960.0,0.0,0.0
6086,81.0,480.0,960.0,0.0,0.0
6087,77.0,0.0,960.0,0.0,0.0
6088,60.0,0.0,960.0,0.0,0.0
6089,57.0,0.0,960.0,0.0,0.0
6090,65.0,0.0,960.0,0.0,0.0
6091,52.0,0.0,480.0,0.0,0.0
6092,48.0,0.0,480.0,0.0,0.0
6093,60.0,0.0,480.0,0.0,0.0
6094,79.0,480.0,480.0,0.0,0.0
6095,76.0,0.0,480.0,0.0,0.0
6096,72.0,0.0,15.0,0.0,0.0
6097,55.0,0.0,480.0,0.0,0.0
6098,67.0,0.0,480.0,0.0,0.0
6099,53.0,0.0,480.0,0.0,0.0
6100,57.0,0.0,480.0,0.0,0.0
6101,74.0,0.0,480.0,0.0,0.0
6102,69.0,0.0,480.0,0.0,0.0
6103,65.0,0.0,480.0,0.0,0.0
6104,62.0,960.0,480.0,0.0,0.0
6105,77.0,0.0,480.0,0.0,0.0
6106,50.0,0.0,480.0,0.0,0.0
6107,64.0,0.0,960.0,0.0,0.0
6108,76.0,0.0,960.0,0.0,0.0
6109,67.0,0.0,960.0,0.0,0.0
6110,45.0,0.0,960.0,0.0,0.0
6111,73.0,0.0,960.0,0.0,0.0
6112,52.0,0.0,960.0,0.0,0.0
6113,49.0,960.0,960.0,0.0,0.0
6114,57.0,0.0,960.0,0.0,0.0
6115,53.0,0.0,960.0,0.0,0.0
6116,58.0,0.0,960.0,0.0,0.0
6117,46.0,0.0,960.0,0.0,0.0
6118,50.0,960.0,960.0,0.0,0.0
6119,70.0,0.0,960.0,0.0,0.0
6120,65.0,0.0,960.0,0.0,0.0
6121,62.0,0.0,960.0,0.0,0.0
6122,74.0,0.0,960.0,0.0,0.0
6123,70.0,0.0,960.0,0.0,0.0
6124,76.0,0.0,960.0,0.0,0.0
6125,64.0,0.0,960.0,0.0,0.0
6126,43.0,0.0,960.0,0.0,0.0
6127,55.0,0.0,960.0,0.0,0.0
6128,52.0,480.0,960.0,0.0,0.0
6129,53.0,0.0,480.0,0.0,0.0
6130,77.0,0.0,480.0,0.0,0.0
6131,72.0,0.0,15.0,0.0,0.0
6132,65.0,0.0,480.0,0.0,0.0
6133,57.0,0.0,480.0,0.0,0.0
6134,48.0,0.0,15.0,0.0,0.0
6135,45.0,0.0,480.0,0.0,0.0
6136,67.0,0.0,480.0,0.0,0.0
6137,77.0,0.0,480.0,0.0,0.0
6138,79.0,960.0,480.0,0.0,0.0
6139,74.0,0.0,480.0,0.0,0.0
6140,55.0,0.0,480.0,0.0,0.0
6141,50.0,0.0,480.0,0.0,0.0
6142,46.0,0.0,480.0,0.0,0.0
6143,58.0,0.0,480.0,0.0,0.0
6144,53.0,0.0,960.0,0.0,0.0
6145,48.0,0.0,1920.0,0.0,0.0
6146,60.0,0.0,960.0,0.0,0.0
6147,57.0,0.0,960.0,0.0,0.0
6148,72.0,480.0,1440.0,0.0,0.0
6149,69.0,0.0,960.0,0.0,0.0
6150,77.0,0.0,960.0,0.0,0.0
6151,81.0,480.0,960.0,0.0,0.0
6152,55.0,0.0,960.0,0.0,0.0
6153,67.0,0.0,960.0,0.0,0.0
6154,76.0,0.0,960.0,0.0,0.0
6155,52.0,0.0,960.0,0.0,0.0
6156,79.0,0.0,960.0,0.0,0.0
6157,70.0,0.0,480.0,0.0,0.0
6158,65.0,480.0,960.0,0.0,0.0
6159,68.0,0.0,960.0,0.0,0.0
6160,60.0,960.0,15.0,0.0,0.0
6161,53.0,0.0,960.0,0.0,0.0
6162,56.0,0.0,960.0,0.0,0.0
6163,51.0,0.0,480.0,0.0,0.0
6164,48.0,0.0,480.0,0.0,0.0
6165,55.0,0.0,480.0,0.0,0.0
6166,60.0,0.0,480.0,0.0,0.0
6167,63.0,0.0,480.0,0.0,0.0
6168,67.0,480.0,480.0,0.0,0.0
6169,49.0,960.0,480.0,0.0,0.0
6170,53.0,0.0,480.0,0.0,0.0
6171,56.0,0.0,480.0,0.0,0.0
6172,61.0,0.0,480.0,0.0,0.0
6173,65.0,0.0,480.0,0.0,0.0
6174,56.0,0.0,960.0,0.0,0.0
6175,60.0,0.0,960.0,0.0,0.0
6176,63.0,0.0,960.0,0.0,0.0
6177,44.0,0.0,960.0,0.0,0.0
6178,48.0,0.0,960.0,0.0,0.0
6179,51.0,960.0,960.0,0.0,0.0
6180,61.0,0.0,960.0,0.0,0.0
6181,53.0,480.0,960.0,0.0,0.0
6182,58.0,0.0,960.0,0.0,0.0
6183,49.0,0.0,960.0,0.0,0.0
6184,46.0,0.0,960.0,0.0,0.0
6185,60.0,0.0,480.0,0.0,0.0
6186,63.0,480.0,960.0,0.0,0.0
6187,39.0,0.0,1920.0,0.0,0.0
6188,48.0,480.0,480.0,0.0,0.0
6189,44.0,0.0,480.0,0.0,0.0
6190,56.0,0.0,480.0,0.0,0.0
6191,58.0,0.0,1440.0,0.0,0.0
6192,61.0,120.0,1440.0,0.0,0.0
6193,49.0,0.0,1440.0,0.0,0.0
6194,46.0,0.0,1440.0,0.0,0.0
6195,65.0,480.0,480.0,0.0,0.0
6196,67.0,0.0,480.0,0.0,0.0
6197,44.0,0.0,480.0,0.0,0.0
6198,48.0,120.0,480.0,0.0,0.0
6199,56.0,0.0,150.0,0.0,0.0
6200,60.0,120.0,150.0,0.0,0.0
6201,68.0,40.0,120.0,0.0,0.0
6202,70.0,160.0,120.0,0.0,0.0
6203,72.0,40.0,120.0,0.0,0.0
6204,73.0,160.0,120.0,0.0,0.0
6205,75.0,160.0,120.0,0.0,0.0
6206,77.0,160.0,120.0,0.0,0.0
6207,78.0,160.0,120.0,0.0,0.0
6208,79.0,160.0,120.0,0.0,0.0
6209,80.0,160.0,120.0,0.0,0.0
6210,81.0,160.0,120.0,0.0,0.0
6211,82.0,160.0,120.0,0.0,0.0
6212,83.0,200.0,120.0,0.0,0.0
6213,80.0,0.0,960.0,0.0,0.0
6214,68.0,320.0,960.0,0.0,0.0
6215,72.0,0.0,960.0,0.0,0.0
6216,84.0,160.0,150.0,0.0,0.0
6217,83.0,160.0,150.0,0.0,0.0
6218,84.0,160.0,150.0,0.0,0.0
6219,85.0,160.0,150.0,0.0,0.0
6220,83.0,160.0,150.0,0.0,0.0
6221,84.0,0.0,150.0,0.0,0.0
6222,64.0,0.0,480.0,0.0,0.0
6223,67.0,320.0,480.0,0.0,0.0
6224,79.0,0.0,480.0,0.0,0.0
6225,73.0,0.0,480.0,0.0,0.0
6226,70.0,0.0,480.0,0.0,0.0
6227,84.0,160.0,150.0,0.0,0.0
6228,82.0,0.0,150.0,0.0,0.0
6229,72.0,0.0,480.0,0.0,0.0
6230,68.0,0.0,480.0,0.0,0.0
6231,65.0,320.0,480.0,0.0,0.0
6232,82.0,160.0,150.0,0.0,0.0
6233,80.0,0.0,150.0,0.0,0.0
6234,76.0,0.0,960.0,0.0,0.0
6235,60.0,320.0,960.0,0.0,0.0
6236,64.0,0.0,960.0,0.0,0.0
6237,67.0,0.0,960.0,0.0,0.0
6238,70.0,0.0,960.0,0.0,0.0
6239,78.0,160.0,150.0,0.0,0.0
6240,79.0,160.0,150.0,0.0,0.0
6241,80.0,160.0,150.0,0.0,0.0
6242,78.0,160.0,150.0,0.0,0.0
6243,79.0,0.0,150.0,0.0,0.0
6244,61.0,320.0,960.0,0.0,0.0
6245,68.0,0.0,960.0,0.0,0.0
6246,65.0,0.0,960.0,0.0,0.0
6247,73.0,0.0,960.0,0.0,0.0
6248,76.0,160.0,150.0,0.0,0.0
6249,77.0,160.0,150.0,0.0,0.0
6250,79.0,160.0,150.0,0.0,0.0
6251,76.0,160.0,150.0,0.0,0.0
6252,77.0,0.0,150.0,0.0,0.0
6253,73.0,320.0,960.0,0.0,0.0
6254,58.0,0.0,960.0,0.0,0.0
6255,67.0,0.0,960.0,0.0,0.0
6256,63.0,0.0,960.0,0.0,0.0
6257,61.0,0.0,960.0,0.0,0.0
6258,78.0,160.0,150.0,0.0,0.0
6259,79.0,160.0,150.0,0.0,0.0
6260,80.0,160.0,150.0,0.0,0.0
6261,78.0,160.0,150.0,0.0,0.0
6262,79.0,0.0,150.0,0.0,0.0
6263,60.0,0.0,480.0,0.0,0.0
6264,63.0,320.0,480.0,0.0,0.0
6265,75.0,0.0,480.0,0.0,0.0
6266,82.0,160.0,150.0,0.0,0.0
6267,80.0,0.0,150.0,0.0,0.0
6268,70.0,160.0,480.0,0.0,0.0
6269,68.0,0.0,15.0,0.0,0.0
6270,77.0,0.0,480.0,0.0,0.0
6271,61.0,0.0,480.0,0.0,0.0
6272,65.0,0.0,480.0,0.0,0.0
6273,84.0,160.0,150.0,0.0,0.0
6274,82.0,0.0,150.0,0.0,0.0
6275,84.0,160.0,150.0,0.0,0.0
6276,80.0,160.0,960.0,0.0,0.0
6277,72.0,0.0,960.0,0.0,0.0
6278,68.0,0.0,960.0,0.0,0.0
6279,63.0,0.0,1440.0,0.0,0.0
6280,83.0,160.0,150.0,0.0,0.0
6281,84.0,160.0,150.0,0.0,0.0
6282,87.0,160.0,150.0,0.0,0.0
6283,85.0,160.0,150.0,0.0,0.0
6284,84.0,0.0,150.0,0.0,0.0
6285,79.0,0.0,150.0,0.0,0.0
6286,67.0,0.0,480.0,0.0,0.0
6287,82.0,160.0,150.0,0.0,0.0
6288,70.0,160.0,480.0,0.0,0.0
6289,77.0,160.0,150.0,0.0,0.0
6290,80.0,0.0,150.0,0.0,0.0
6291,79.0,0.0,150.0,0.0,0.0
6292,75.0,0.0,150.0,0.0,0.0
6293,73.0,0.0,150.0,0.0,0.0
6294,77.0,0.0,150.0,0.0,0.0
6295,51.0,160.0,150.0,0.0,0.0
6296,72.0,0.0,150.0,0.0,0.0
6297,75.0,0.0,150.0,0.0,0.0
6298,53.0,160.0,150.0,0.0,0.0
6299,73.0,0.0,150.0,0.0,0.0
6300,70.0,160.0,150.0,0.0,0.0
6301,55.0,0.0,150.0,0.0,0.0
6302,60.0,320.0,960.0,0.0,0.0
6303,56.0,0.0,960.0,0.0,0.0
6304,72.0,160.0,150.0,0.0,0.0
6305,63.0,0.0,960.0,0.0,0.0
6306,71.0,160.0,150.0,0.0,0.0
6307,72.0,160.0,150.0,0.0,0.0
6308,73.0,160.0,150.0,0.0,0.0
6309,71.0,160.0,150.0,0.0,0.0
6310,72.0,0.0,150.0,0.0,0.0
6311,61.0,0.0,480.0,0.0,0.0
6312,55.0,0.0,480.0,0.0,0.0
6313,58.0,320.0,480.0,0.0,0.0
6314,52.0,0.0,480.0,0.0,0.0
6315,72.0,160.0,150.0,0.0,0.0
6316,70.0,0.0,150.0,0.0,0.0
6317,60.0,320.0,480.0,0.0,0.0
6318,56.0,0.0,480.0,0.0,0.0
6319,53.0,0.0,480.0,0.0,0.0
6320,70.0,160.0,150.0,0.0,0.0
6321,68.0,0.0,150.0,0.0,0.0
6322,55.0,0.0,960.0,0.0,0.0
6323,58.0,320.0,960.0,0.0,0.0
6324,52.0,0.0,960.0,0.0,0.0
6325,48.0,0.0,960.0,0.0,0.0
6326,66.0,160.0,150.0,0.0,0.0
6327,67.0,160.0,150.0,0.0,0.0
6328,68.0,160.0,150.0,0.0,0.0
6329,66.0,160.0,150.0,0.0,0.0
6330,67.0,0.0,150.0,0.0,0.0
6331,49.0,0.0,960.0,0.0,0.0
6332,53.0,160.0,960.0,0.0,0.0
6333,56.0,0.0,960.0,0.0,0.0
6334,61.0,160.0,150.0,0.0,0.0
6335,64.0,160.0,150.0,0.0,0.0
6336,65.0,160.0,150.0,0.0,0.0
6337,64.0,160.0,150.0,0.0,0.0
6338,65.0,0.0,150.0,0.0,0.0
6339,48.0,0.0,480.0,0.0,0.0
6340,39.0,0.0,1920.0,0.0,0.0
6341,56.0,160.0,150.0,0.0,0.0
6342,44.0,0.0,480.0,0.0,0.0
6343,60.0,160.0,150.0,0.0,0.0
6344,63.0,160.0,150.0,0.0,0.0
6345,46.0,160.0,1440.0,0.0,0.0
6346,49.0,0.0,1440.0,0.0,0.0
6347,58.0,160.0,150.0,0.0,0.0
6348,61.0,160.0,150.0,0.0,0.0
6349,63.0,160.0,150.0,0.0,0.0
6350,58.0,160.0,150.0,0.0,0.0
6351,61.0,160.0,150.0,0.0,0.0
6352,65.0,160.0,150.0,0.0,0.0
6353,58.0,160.0,150.0,0.0,0.0
6354,61.0,160.0,150.0,0.0,0.0
6355,67.0,0.0,150.0,0.0,0.0
6356,60.0,0.0,150.0,0.0,0.0
6357,68.0,160.0,150.0,0.0,0.0
6358,32.0,160.0,480.0,0.0,0.0
6359,44.0,0.0,480.0,0.0,0.0
6360,51.0,160.0,150.0,0.0,0.0
6361,48.0,0.0,150.0,0.0,0.0
6362,51.0,160.0,150.0,0.0,0.0
6363,56.0,160.0,150.0,0.0,0.0
6364,60.0,160.0,150.0,0.0,0.0
6365,58.0,160.0,150.0,0.0,0.0
6366,55.0,160.0,150.0,0.0,0.0
6367,51.0,0.0,150.0,0.0,0.0
6368,39.0,160.0,15.0,0.0,0.0
6369,55.0,160.0,150.0,0.0,0.0
6370,58.0,160.0,150.0,0.0,0.0
6371,61.0,160.0,150.0,0.0,0.0
6372,60.0,160.0,150.0,0.0,0.0
6373,56.0,160.0,150.0,0.0,0.0
6374,51.0,160.0,150.0,0.0,0.0
6375,56.0,160.0,150.0,0.0,0.0
6376,60.0,160.0,150.0,0.0,0.0
6377,63.0,160.0,150.0,0.0,0.0
6378,61.0,160.0,150.0,0.0,0.0
6379,58.0,160.0,150.0,0.0,0.0
6380,55.0,0.0,150.0,0.0,0.0
6381,67.0,160.0,150.0,0.0,0.0
6382,39.0,160.0,15.0,0.0,0.0
6383,61.0,160.0,150.0,0.0,0.0
6384,58.0,160.0,150.0,0.0,0.0
6385,68.0,160.0,480.0,0.0,0.0
6386,60.0,0.0,480.0,0.0,0.0
6387,44.0,160.0,150.0,0.0,0.0
6388,39.0,160.0,150.0,0.0,0.0
6389,36.0,0.0,150.0,0.0,0.0
6390,39.0,160.0,150.0,0.0,0.0
6391,44.0,160.0,150.0,0.0,0.0
6392,48.0,160.0,150.0,0.0,0.0
6393,46.0,160.0,150.0,0.0,0.0
6394,43.0,160.0,150.0,0.0,0.0
6395,39.0,0.0,150.0,0.0,0.0
6396,63.0,160.0,15.0,0.0,0.0
6397,43.0,160.0,150.0,0.0,0.0
6398,46.0,160.0,150.0,0.0,0.0
6399,49.0,160.0,150.0,0.0,0.0
6400,48.0,160.0,150.0,0.0,0.0
6401,44.0,160.0,150.0,0.0,0.0
6402,39.0,160.0,150.0,0.0,0.0
6403,63.0,0.0,15.0,0.0,0.0
6404,44.0,160.0,150.0,0.0,0.0
6405,48.0,160.0,150.0,0.0,0.0
6406,51.0,160.0,150.0,0.0,0.0
6407,49.0,160.0,150.0,0.0,0.0
6408,46.0,160.0,150.0,0.0,0.0
6409,43.0,160.0,150.0,0.0,0.0
6410,55.0,160.0,150.0,0.0,0.0
6411,63.0,160.0,480.0,0.0,0.0
6412,49.0,160.0,150.0,0.0,0.0
6413,46.0,0.0,150.0,0.0,0.0
6414,48.0,0.0,150.0,0.0,0.0
6415,68.0,160.0,150.0,0.0,0.0
6416,51.0,160.0,150.0,0.0,0.0
6417,63.0,0.0,150.0,0.0,0.0
6418,60.0,0.0,150.0,0.0,0.0
6419,56.0,160.0,150.0,0.0,0.0
6420,51.0,160.0,150.0,0.0,0.0
6421,63.0,0.0,150.0,0.0,0.0
6422,68.0,160.0,150.0,0.0,0.0
6423,48.0,0.0,150.0,0.0,0.0
6424,44.0,160.0,150.0,0.0,0.0
6425,72.0,0.0,150.0,0.0,0.0
6426,70.0,160.0,150.0,0.0,0.0
6427,43.0,0.0,150.0,0.0,0.0
6428,46.0,0.0,150.0,0.0,0.0
6429,67.0,160.0,150.0,0.0,0.0
6430,49.0,160.0,150.0,0.0,0.0
6431,63.0,0.0,150.0,0.0,0.0
6432,67.0,160.0,150.0,0.0,0.0
6433,46.0,0.0,150.0,0.0,0.0
6434,43.0,160.0,150.0,0.0,0.0
6435,70.0,0.0,150.0,0.0,0.0
6436,73.0,0.0,150.0,0.0,0.0
6437,39.0,160.0,150.0,0.0,0.0
6438,72.0,6.0,150.0,0.0,0.0
6439,44.0,154.0,150.0,0.0,0.0
6440,68.0,160.0,150.0,0.0,0.0
6441,48.0,0.0,150.0,0.0,0.0
6442,63.0,0.0,150.0,0.0,0.0
6443,51.0,160.0,150.0,0.0,0.0
6444,48.0,160.0,150.0,0.0,0.0
6445,68.0,0.0,150.0,0.0,0.0
6446,72.0,160.0,150.0,0.0,0.0
6447,44.0,0.0,150.0,0.0,0.0
6448,75.0,6.0,150.0,0.0,0.0
6449,39.0,154.0,150.0,0.0,0.0
6450,73.0,0.0,150.0,0.0,0.0
6451,43.0,160.0,150.0,0.0,0.0
6452,49.0,160.0,150.0,0.0,0.0
6453,70.0,0.0,150.0,0.0,0.0
6454,67.0,6.0,150.0,0.0,0.0
6455,51.0,154.0,150.0,0.0,0.0
6456,49.0,160.0,150.0,0.0,0.0
6457,79.0,0.0,150.0,0.0,0.0
6458,51.0,160.0,150.0,0.0,0.0
6459,73.0,0.0,150.0,0.0,0.0
6460,70.0,160.0,150.0,0.0,0.0
6461,58.0,0.0,150.0,0.0,0.0
6462,80.0,80.0,240.0,0.0,0.0
6463,48.0,80.0,150.0,0.0,0.0
6464,51.0,160.0,150.0,0.0,0.0
6465,75.0,0.0,150.0,0.0,0.0
6466,72.0,0.0,150.0,0.0,0.0
6467,56.0,160.0,150.0,0.0,0.0
6468,44.0,80.0,150.0,0.0,0.0
6469,75.0,80.0,240.0,0.0,0.0
6470,72.0,160.0,150.0,0.0,0.0
6471,48.0,0.0,150.0,0.0,0.0
6472,68.0,0.0,150.0,0.0,0.0
6473,51.0,160.0,150.0,0.0,0.0
6474,46.0,80.0,150.0,0.0,0.0
6475,73.0,80.0,240.0,0.0,0.0
6476,70.0,160.0,150.0,0.0,0.0
6477,49.0,0.0,150.0,0.0,0.0
6478,51.0,160.0,150.0,0.0,0.0
6479,67.0,0.0,150.0,0.0,0.0
6480,79.0,80.0,240.0,0.0,0.0
6481,49.0,80.0,150.0,0.0,0.0
6482,75.0,160.0,150.0,0.0,0.0
6483,51.0,0.0,150.0,0.0,0.0
6484,58.0,0.0,150.0,0.0,0.0
6485,70.0,160.0,150.0,0.0,0.0
6486,48.0,80.0,150.0,0.0,0.0
6487,80.0,80.0,240.0,0.0,0.0
6488,75.0,0.0,150.0,0.0,0.0
6489,51.0,160.0,150.0,0.0,0.0
6490,72.0,0.0,150.0,0.0,0.0
6491,56.0,160.0,150.0,0.0,0.0
6492,75.0,80.0,240.0,0.0,0.0
6493,44.0,80.0,150.0,0.0,0.0
6494,72.0,160.0,150.0,0.0,0.0
6495,48.0,0.0,150.0,0.0,0.0
6496,51.0,0.0,150.0,0.0,0.0
6497,68.0,160.0,150.0,0.0,0.0
6498,46.0,80.0,150.0,0.0,0.0
6499,73.0,80.0,240.0,0.0,0.0
6500,70.0,0.0,150.0,0.0,0.0
6501,49.0,160.0,150.0,0.0,0.0
6502,51.0,160.0,150.0,0.0,0.0
6503,67.0,0.0,150.0,0.0,0.0
6504,49.0,80.0,150.0,0.0,0.0
6505,79.0,80.0,240.0,0.0,0.0
6506,75.0,160.0,150.0,0.0,0.0
6507,51.0,0.0,150.0,0.0,0.0
6508,58.0,120.0,150.0,0.0,0.0
6509,70.0,0.0,150.0,0.0,0.0
6510,80.0,0.0,120.0,0.0,0.0
6511,48.0,120.0,120.0,0.0,0.0
6512,51.0,0.0,120.0,0.0,0.0
6513,75.0,120.0,120.0,0.0,0.0
6514,44.0,120.0,120.0,0.0,0.0
6515,72.0,0.0,120.0,0.0,0.0
6516,51.0,120.0,120.0,0.0,0.0
6517,68.0,0.0,120.0,0.0,0.0
6518,46.0,0.0,120.0,0.0,0.0
6519,73.0,120.0,120.0,0.0,0.0
6520,51.0,120.0,120.0,0.0,0.0
6521,70.0,0.0,120.0,0.0,0.0
6522,79.0,0.0,120.0,0.0,0.0
6523,49.0,120.0,120.0,0.0,0.0
6524,75.0,120.0,120.0,0.0,0.0
6525,51.0,0.0,120.0,0.0,0.0
6526,48.0,0.0,120.0,0.0,0.0
6527,80.0,120.0,120.0,0.0,0.0
6528,51.0,0.0,120.0,0.0,0.0
6529,75.0,120.0,120.0,0.0,0.0
6530,72.0,0.0,120.0,0.0,0.0
6531,44.0,120.0,120.0,0.0,0.0
6532,68.0,120.0,120.0,0.0,0.0
6533,51.0,0.0,120.0,0.0,0.0
6534,73.0,0.0,120.0,0.0,0.0
6535,46.0,120.0,120.0,0.0,0.0
6536,70.0,0.0,120.0,0.0,0.0
6537,51.0,120.0,120.0,0.0,0.0
6538,49.0,0.0,120.0,0.0,0.0
6539,79.0,120.0,120.0,0.0,0.0
6540,51.0,0.0,120.0,0.0,0.0
6541,75.0,120.0,120.0,0.0,0.0
6542,48.0,0.0,120.0,0.0,0.0
6543,80.0,120.0,120.0,0.0,0.0
6544,51.0,120.0,120.0,0.0,0.0
6545,75.0,0.0,120.0,0.0,0.0
6546,79.0,120.0,120.0,0.0,0.0
6547,49.0,0.0,120.0,0.0,0.0
6548,51.0,120.0,120.0,0.0,0.0
6549,75.0,0.0,120.0,0.0,0.0
6550,80.0,0.0,120.0,0.0,0.0
6551,48.0,120.0,120.0,0.0,0.0
6552,75.0,0.0,120.0,0.0,0.0
6553,51.0,120.0,120.0,0.0,0.0
6554,79.0,0.0,120.0,0.0,0.0
6555,49.0,120.0,120.0,0.0,0.0
6556,51.0,120.0,120.0,0.0,0.0
6557,75.0,0.0,120.0,0.0,0.0
6558,80.0,120.0,120.0,0.0,0.0
6559,48.0,0.0,120.0,0.0,0.0
6560,75.0,120.0,120.0,0.0,0.0
6561,51.0,0.0,120.0,0.0,0.0
6562,79.0,0.0,120.0,0.0,0.0
6563,49.0,120.0,120.0,0.0,0.0
6564,75.0,0.0,120.0,0.0,0.0
6565,51.0,120.0,120.0,0.0,0.0
6566,48.0,0.0,120.0,0.0,0.0
6567,80.0,120.0,120.0,0.0,0.0
6568,51.0,0.0,120.0,0.0,0.0
6569,75.0,120.0,120.0,0.0,0.0
6570,49.0,120.0,120.0,0.0,0.0
6571,79.0,0.0,120.0,0.0,0.0
6572,75.0,0.0,120.0,0.0,0.0
6573,51.0,120.0,120.0,0.0,0.0
6574,80.0,0.0,120.0,0.0,0.0
6575,48.0,120.0,120.0,0.0,0.0
6576,51.0,0.0,120.0,0.0,0.0
6577,75.0,120.0,120.0,0.0,0.0
6578,36.0,0.0,120.0,0.0,0.0
6579,78.0,120.0,120.0,0.0,0.0
6580,44.0,0.0,120.0,0.0,0.0
6581,75.0,120.0,120.0,0.0,0.0
6582,36.0,0.0,120.0,0.0,0.0
6583,78.0,120.0,120.0,0.0,0.0
6584,44.0,0.0,120.0,0.0,0.0
6585,75.0,120.0,120.0,0.0,0.0
6586,78.0,120.0,120.0,0.0,0.0
6587,36.0,0.0,120.0,0.0,0.0
6588,44.0,120.0,120.0,0.0,0.0
6589,75.0,0.0,120.0,0.0,0.0
6590,36.0,0.0,120.0,0.0,0.0
6591,78.0,120.0,120.0,0.0,0.0
6592,75.0,0.0,120.0,0.0,0.0
6593,44.0,120.0,120.0,0.0,0.0
6594,36.0,0.0,120.0,0.0,0.0
6595,78.0,120.0,120.0,0.0,0.0
6596,44.0,120.0,120.0,0.0,0.0
6597,75.0,0.0,120.0,0.0,0.0
6598,36.0,120.0,120.0,0.0,0.0
6599,78.0,0.0,120.0,0.0,0.0
6600,75.0,120.0,120.0,0.0,0.0
6601,44.0,0.0,120.0,0.0,0.0
6602,36.0,120.0,120.0,0.0,0.0
6603,78.0,0.0,120.0,0.0,0.0
6604,44.0,0.0,120.0,0.0,0.0
6605,75.0,120.0,120.0,0.0,0.0
6606,78.0,120.0,240.0,0.0,0.0
6607,36.0,120.0,120.0,0.0,0.0
6608,44.0,0.0,120.0,0.0,0.0
6609,36.0,120.0,120.0,0.0,0.0
6610,77.0,0.0,120.0,0.0,0.0
6611,75.0,120.0,120.0,0.0,0.0
6612,44.0,0.0,120.0,0.0,0.0
6613,36.0,120.0,120.0,0.0,0.0
6614,73.0,0.0,120.0,0.0,0.0
6615,72.0,120.0,120.0,0.0,0.0
6616,44.0,0.0,120.0,0.0,0.0
6617,70.0,0.0,120.0,0.0,0.0
6618,36.0,120.0,120.0,0.0,0.0
6619,68.0,0.0,120.0,0.0,0.0
6620,44.0,120.0,120.0,0.0,0.0
6621,66.0,120.0,120.0,0.0,0.0
6622,36.0,0.0,120.0,0.0,0.0
6623,44.0,0.0,120.0,0.0,0.0
6624,65.0,120.0,120.0,0.0,0.0
6625,36.0,120.0,120.0,0.0,0.0
6626,63.0,0.0,120.0,0.0,0.0
6627,44.0,120.0,120.0,0.0,0.0
6628,61.0,0.0,120.0,0.0,0.0
6629,60.0,120.0,120.0,0.0,0.0
6630,36.0,0.0,120.0,0.0,0.0
6631,44.0,0.0,120.0,0.0,0.0
6632,58.0,120.0,120.0,0.0,0.0
6633,36.0,0.0,120.0,0.0,0.0
6634,56.0,120.0,120.0,0.0,0.0
6635,44.0,0.0,120.0,0.0,0.0
6636,54.0,120.0,120.0,0.0,0.0
6637,44.0,60.0,180.0,0.0,0.0
6638,41.0,0.0,180.0,0.0,0.0
6639,37.0,0.0,180.0,0.0,0.0
6640,53.0,60.0,120.0,0.0,0.0
6641,55.0,120.0,120.0,0.0,0.0
6642,41.0,0.0,180.0,0.0,0.0
6643,44.0,60.0,180.0,0.0,0.0
6644,37.0,0.0,180.0,0.0,0.0
6645,56.0,60.0,120.0,0.0,0.0
6646,55.0,120.0,120.0,0.0,0.0
6647,56.0,120.0,120.0,0.0,0.0
6648,60.0,120.0,120.0,0.0,0.0
6649,37.0,0.0,180.0,0.0,0.0
6650,41.0,0.0,180.0,0.0,0.0
6651,44.0,60.0,180.0,0.0,0.0
6652,61.0,60.0,120.0,0.0,0.0
6653,60.0,120.0,120.0,0.0,0.0
6654,41.0,60.0,180.0,0.0,0.0
6655,44.0,0.0,180.0,0.0,0.0
6656,61.0,60.0,120.0,0.0,0.0
6657,37.0,0.0,180.0,0.0,0.0
6658,64.0,120.0,120.0,0.0,0.0
6659,41.0,0.0,180.0,0.0,0.0
6660,37.0,0.0,180.0,0.0,0.0
6661,44.0,60.0,180.0,0.0,0.0
6662,65.0,60.0,120.0,0.0,0.0
6663,64.0,120.0,120.0,0.0,0.0
6664,65.0,120.0,120.0,0.0,0.0
6665,67.0,120.0,120.0,0.0,0.0
6666,41.0,0.0,180.0,0.0,0.0
6667,37.0,0.0,180.0,0.0,0.0
6668,44.0,60.0,180.0,0.0,0.0
6669,68.0,60.0,120.0,0.0,0.0
6670,67.0,120.0,120.0,0.0,0.0
6671,68.0,60.0,120.0,0.0,0.0
6672,37.0,60.0,180.0,0.0,0.0
6673,41.0,0.0,180.0,0.0,0.0
6674,44.0,0.0,180.0,0.0,0.0
6675,72.0,120.0,120.0,0.0,0.0
6676,37.0,60.0,180.0,0.0,0.0
6677,41.0,0.0,180.0,0.0,0.0
6678,44.0,0.0,180.0,0.0,0.0
6679,73.0,60.0,120.0,0.0,0.0
6680,72.0,120.0,120.0,0.0,0.0
6681,73.0,120.0,120.0,0.0,0.0
6682,76.0,120.0,120.0,0.0,0.0
6683,41.0,0.0,180.0,0.0,0.0
6684,44.0,60.0,180.0,0.0,0.0
6685,77.0,60.0,120.0,0.0,0.0
6686,37.0,0.0,180.0,0.0,0.0
6687,76.0,120.0,120.0,0.0,0.0
6688,77.0,60.0,120.0,0.0,0.0
6689,44.0,0.0,180.0,0.0,0.0
6690,41.0,60.0,180.0,0.0,0.0
6691,37.0,0.0,180.0,0.0,0.0
6692,79.0,120.0,120.0,0.0,0.0
6693,41.0,0.0,180.0,0.0,0.0
6694,37.0,60.0,180.0,0.0,0.0
6695,80.0,60.0,120.0,0.0,0.0
6696,44.0,0.0,180.0,0.0,0.0
6697,79.0,120.0,120.0,0.0,0.0
6698,80.0,120.0,120.0,0.0,0.0
6699,79.0,120.0,120.0,0.0,0.0
6700,44.0,0.0,180.0,0.0,0.0
6701,41.0,0.0,180.0,0.0,0.0
6702,37.0,60.0,180.0,0.0,0.0
6703,77.0,60.0,120.0,0.0,0.0
6704,76.0,120.0,120.0,0.0,0.0
6705,44.0,0.0,180.0,0.0,0.0
6706,38.0,0.0,180.0,0.0,0.0
6707,41.0,60.0,180.0,0.0,0.0
6708,46.0,0.0,180.0,0.0,0.0
6709,77.0,60.0,120.0,0.0,0.0
6710,76.0,120.0,120.0,0.0,0.0
6711,38.0,60.0,180.0,0.0,0.0
6712,44.0,0.0,180.0,0.0,0.0
6713,41.0,0.0,180.0,0.0,0.0
6714,46.0,0.0,180.0,0.0,0.0
6715,77.0,60.0,120.0,0.0,0.0
6716,79.0,120.0,120.0,0.0,0.0
6717,80.0,120.0,120.0,0.0,0.0
6718,79.0,120.0,120.0,0.0,0.0
6719,77.0,60.0,120.0,0.0,0.0
6720,44.0,0.0,180.0,0.0,0.0
6721,41.0,60.0,180.0,0.0,0.0
6722,46.0,0.0,180.0,0.0,0.0
6723,38.0,0.0,180.0,0.0,0.0
6724,76.0,120.0,120.0,0.0,0.0
6725,77.0,60.0,120.0,0.0,0.0
6726,41.0,0.0,180.0,0.0,0.0
6727,44.0,0.0,180.0,0.0,0.0
6728,38.0,60.0,180.0,0.0,0.0
6729,46.0,0.0,180.0,0.0,0.0
6730,76.0,120.0,120.0,0.0,0.0
6731,77.0,60.0,120.0,0.0,0.0
6732,46.0,0.0,180.0,0.0,0.0
6733,41.0,60.0,180.0,0.0,0.0
6734,38.0,0.0,180.0,0.0,0.0
6735,44.0,0.0,180.0,0.0,0.0
6736,79.0,120.0,120.0,0.0,0.0
6737,80.0,120.0,120.0,0.0,0.0
6738,79.0,120.0,120.0,0.0,0.0
6739,77.0,60.0,120.0,0.0,0.0
6740,44.0,0.0,180.0,0.0,0.0
6741,38.0,0.0,180.0,0.0,0.0
6742,41.0,0.0,180.0,0.0,0.0
6743,46.0,60.0,180.0,0.0,0.0
6744,76.0,120.0,120.0,0.0,0.0
6745,44.0,0.0,180.0,0.0,0.0
6746,38.0,0.0,180.0,0.0,0.0
6747,46.0,60.0,180.0,0.0,0.0
6748,41.0,0.0,180.0,0.0,0.0
6749,77.0,60.0,120.0,0.0,0.0
6750,76.0,120.0,120.0,0.0,0.0
6751,77.0,60.0,120.0,0.0,0.0
6752,44.0,60.0,180.0,0.0,0.0
6753,38.0,0.0,180.0,0.0,0.0
6754,41.0,0.0,180.0,0.0,0.0
6755,46.0,0.0,180.0,0.0,0.0
6756,79.0,120.0,120.0,0.0,0.0
6757,80.0,120.0,120.0,0.0,0.0
6758,79.0,120.0,120.0,0.0,0.0
6759,44.0,0.0,180.0,0.0,0.0
6760,38.0,0.0,180.0,0.0,0.0
6761,41.0,60.0,180.0,0.0,0.0
6762,77.0,60.0,120.0,0.0,0.0
6763,46.0,0.0,180.0,0.0,0.0
6764,76.0,120.0,120.0,0.0,0.0
6765,77.0,60.0,120.0,0.0,0.0
6766,44.0,0.0,180.0,0.0,0.0
6767,38.0,0.0,180.0,0.0,0.0
6768,41.0,60.0,180.0,0.0,0.0
6769,46.0,0.0,180.0,0.0,0.0
6770,76.0,120.0,120.0,0.0,0.0
6771,44.0,0.0,180.0,0.0,0.0
6772,38.0,0.0,180.0,0.0,0.0
6773,41.0,60.0,180.0,0.0,0.0
6774,46.0,0.0,180.0,0.0,0.0
6775,77.0,60.0,120.0,0.0,0.0
6776,79.0,120.0,120.0,0.0,0.0
6777,80.0,120.0,120.0,0.0,0.0
6778,79.0,120.0,120.0,0.0,0.0
6779,46.0,0.0,180.0,0.0,0.0
6780,38.0,0.0,180.0,0.0,0.0
6781,44.0,60.0,180.0,0.0,0.0
6782,80.0,60.0,120.0,0.0,0.0
6783,41.0,0.0,180.0,0.0,0.0
6784,77.0,120.0,120.0,0.0,0.0
6785,63.0,0.0,120.0,0.0,0.0
6786,75.0,0.0,120.0,0.0,0.0
6787,39.0,120.0,120.0,0.0,0.0
6788,44.0,120.0,120.0,0.0,0.0
6789,48.0,120.0,120.0,0.0,0.0
6790,75.0,0.0,120.0,0.0,0.0
6791,63.0,0.0,120.0,0.0,0.0
6792,51.0,120.0,120.0,0.0,0.0
6793,72.0,0.0,120.0,0.0,0.0
6794,60.0,0.0,120.0,0.0,0.0
6795,39.0,120.0,120.0,0.0,0.0
6796,44.0,120.0,120.0,0.0,0.0
6797,56.0,0.0,120.0,0.0,0.0
6798,68.0,0.0,120.0,0.0,0.0
6799,48.0,120.0,120.0,0.0,0.0
6800,51.0,120.0,120.0,0.0,0.0
6801,39.0,120.0,120.0,0.0,0.0
6802,68.0,0.0,120.0,0.0,0.0
6803,80.0,0.0,120.0,0.0,0.0
6804,44.0,120.0,120.0,0.0,0.0
6805,68.0,120.0,120.0,0.0,0.0
6806,48.0,0.0,120.0,0.0,0.0
6807,80.0,0.0,120.0,0.0,0.0
6808,51.0,120.0,120.0,0.0,0.0
6809,63.0,120.0,120.0,0.0,0.0
6810,75.0,0.0,120.0,0.0,0.0
6811,39.0,0.0,120.0,0.0,0.0
6812,44.0,120.0,120.0,0.0,0.0
6813,48.0,120.0,120.0,0.0,0.0
6814,72.0,0.0,120.0,0.0,0.0
6815,60.0,0.0,120.0,0.0,0.0
6816,51.0,120.0,120.0,0.0,0.0
6817,63.0,0.0,120.0,0.0,0.0
6818,75.0,0.0,120.0,0.0,0.0
6819,39.0,120.0,120.0,0.0,0.0
6820,44.0,120.0,120.0,0.0,0.0
6821,48.0,120.0,120.0,0.0,0.0
6822,75.0,0.0,120.0,0.0,0.0
6823,63.0,0.0,120.0,0.0,0.0
6824,51.0,120.0,120.0,0.0,0.0
6825,60.0,0.0,120.0,0.0,0.0
6826,72.0,0.0,120.0,0.0,0.0
6827,39.0,120.0,120.0,0.0,0.0
6828,44.0,120.0,120.0,0.0,0.0
6829,48.0,0.0,120.0,0.0,0.0
6830,56.0,120.0,120.0,0.0,0.0
6831,68.0,0.0,120.0,0.0,0.0
6832,51.0,120.0,120.0,0.0,0.0
6833,48.0,0.0,120.0,0.0,0.0
6834,80.0,240.0,120.0,0.0,0.0
6835,68.0,0.0,120.0,0.0,0.0
6836,68.0,0.0,120.0,0.0,0.0
6837,80.0,0.0,120.0,0.0,0.0
6838,48.0,240.0,120.0,0.0,0.0
6839,63.0,240.0,120.0,0.0,0.0
6840,44.0,0.0,120.0,0.0,0.0
6841,75.0,0.0,120.0,0.0,0.0
6842,39.0,0.0,120.0,0.0,0.0
6843,60.0,240.0,120.0,0.0,0.0
6844,72.0,0.0,120.0,0.0,0.0
6845,51.0,120.0,120.0,0.0,0.0
6846,80.0,120.0,120.0,0.0,0.0
6847,48.0,120.0,120.0,0.0,0.0
6848,84.0,0.0,240.0,0.0,0.0
6849,80.0,120.0,120.0,0.0,0.0
6850,56.0,120.0,120.0,0.0,0.0
6851,84.0,120.0,120.0,0.0,0.0
6852,51.0,120.0,120.0,0.0,0.0
6853,87.0,0.0,15.0,0.0,0.0
6854,84.0,0.0,120.0,0.0,0.0
6855,60.0,120.0,120.0,0.0,0.0
6856,87.0,120.0,15.0,0.0,0.0
6857,84.0,120.0,120.0,0.0,0.0
6858,56.0,120.0,120.0,0.0,0.0
6859,87.0,120.0,240.0,0.0,0.0
6860,84.0,0.0,120.0,0.0,0.0
6861,63.0,120.0,120.0,0.0,0.0
6862,84.0,0.0,120.0,0.0,0.0
6863,60.0,120.0,120.0,0.0,0.0
6864,87.0,120.0,15.0,0.0,0.0
6865,84.0,0.0,120.0,0.0,0.0
6866,87.0,120.0,15.0,0.0,0.0
6867,68.0,120.0,120.0,0.0,0.0
6868,84.0,0.0,120.0,0.0,0.0
6869,63.0,120.0,120.0,0.0,0.0
6870,84.0,120.0,120.0,0.0,0.0
6871,87.0,0.0,15.0,0.0,0.0
6872,72.0,120.0,120.0,0.0,0.0
6873,84.0,0.0,120.0,0.0,0.0
6874,68.0,120.0,120.0,0.0,0.0
6875,84.0,0.0,120.0,0.0,0.0
6876,87.0,120.0,15.0,0.0,0.0
6877,75.0,120.0,120.0,0.0,0.0
6878,84.0,0.0,120.0,0.0,0.0
6879,72.0,120.0,120.0,0.0,0.0
6880,84.0,0.0,120.0,0.0,0.0
6881,80.0,120.0,120.0,0.0,0.0
6882,87.0,120.0,15.0,0.0,0.0
6883,84.0,0.0,120.0,0.0,0.0
6884,75.0,120.0,120.0,0.0,0.0
6885,87.0,120.0,240.0,0.0,0.0
6886,84.0,0.0,120.0,0.0,0.0
6887,79.0,120.0,120.0,0.0,0.0
6888,85.0,120.0,120.0,0.0,0.0
6889,87.0,120.0,240.0,0.0,0.0
6890,75.0,120.0,120.0,0.0,0.0
6891,85.0,0.0,120.0,0.0,0.0
6892,79.0,120.0,120.0,0.0,0.0
6893,88.0,120.0,240.0,0.0,0.0
6894,85.0,0.0,120.0,0.0,0.0
6895,87.0,0.0,240.0,0.0,0.0
6896,75.0,120.0,120.0,0.0,0.0
6897,85.0,120.0,120.0,0.0,0.0
6898,79.0,120.0,120.0,0.0,0.0
6899,88.0,120.0,240.0,0.0,0.0
6900,85.0,0.0,120.0,0.0,0.0
6901,75.0,120.0,120.0,0.0,0.0
6902,87.0,120.0,240.0,0.0,0.0
6903,85.0,0.0,120.0,0.0,0.0
6904,88.0,120.0,240.0,0.0,0.0
6905,79.0,120.0,120.0,0.0,0.0
6906,85.0,0.0,120.0,0.0,0.0
6907,75.0,120.0,120.0,0.0,0.0
6908,87.0,0.0,240.0,0.0,0.0
6909,85.0,120.0,120.0,0.0,0.0
6910,88.0,0.0,240.0,0.0,0.0
6911,79.0,120.0,120.0,0.0,0.0
6912,85.0,120.0,120.0,0.0,0.0
6913,87.0,120.0,240.0,0.0,0.0
6914,75.0,120.0,120.0,0.0,0.0
6915,85.0,0.0,120.0,0.0,0.0
6916,79.0,120.0,120.0,0.0,0.0
6917,88.0,0.0,240.0,0.0,0.0
6918,85.0,120.0,120.0,0.0,0.0
6919,87.0,0.0,240.0,0.0,0.0
6920,75.0,120.0,120.0,0.0,0.0
6921,85.0,120.0,120.0,0.0,0.0
6922,79.0,120.0,120.0,0.0,0.0
6923,88.0,0.0,240.0,0.0,0.0
6924,85.0,120.0,120.0,0.0,0.0
6925,87.0,0.0,240.0,0.0,0.0
6926,75.0,120.0,120.0,0.0,0.0
6927,85.0,120.0,120.0,0.0,0.0
6928,88.0,120.0,240.0,0.0,0.0
6929,79.0,120.0,120.0,0.0,0.0
6930,85.0,0.0,120.0,0.0,0.0
6931,75.0,120.0,120.0,0.0,0.0
6932,87.0,0.0,240.0,0.0,0.0
6933,85.0,80.0,120.0,0.0,0.0
6934,79.0,80.0,90.0,0.0,0.0
6935,89.0,0.0,240.0,0.0,0.0
6936,80.0,80.0,90.0,0.0,0.0
6937,85.0,80.0,120.0,0.0,0.0
6938,79.0,0.0,90.0,0.0,0.0
6939,87.0,80.0,240.0,0.0,0.0
6940,80.0,80.0,90.0,0.0,0.0
6941,79.0,80.0,90.0,0.0,0.0
6942,85.0,0.0,120.0,0.0,0.0
6943,80.0,0.0,90.0,0.0,0.0
6944,79.0,80.0,90.0,0.0,0.0
6945,89.0,80.0,240.0,0.0,0.0
6946,80.0,80.0,90.0,0.0,0.0
6947,85.0,0.0,120.0,0.0,0.0
6948,79.0,0.0,90.0,0.0,0.0
6949,87.0,80.0,240.0,0.0,0.0
6950,80.0,80.0,90.0,0.0,0.0
6951,79.0,80.0,90.0,0.0,0.0
6952,85.0,0.0,120.0,0.0,0.0
6953,80.0,0.0,90.0,0.0,0.0
6954,89.0,0.0,240.0,0.0,0.0
6955,79.0,80.0,90.0,0.0,0.0
6956,80.0,80.0,90.0,0.0,0.0
6957,85.0,80.0,120.0,0.0,0.0
6958,79.0,0.0,90.0,0.0,0.0
6959,87.0,0.0,240.0,0.0,0.0
6960,80.0,80.0,90.0,0.0,0.0
6961,79.0,80.0,90.0,0.0,0.0
6962,85.0,80.0,120.0,0.0,0.0
6963,80.0,0.0,90.0,0.0,0.0
6964,89.0,0.0,240.0,0.0,0.0
6965,79.0,80.0,90.0,0.0,0.0
6966,80.0,80.0,90.0,0.0,0.0
6967,85.0,0.0,120.0,0.0,0.0
6968,79.0,80.0,90.0,0.0,0.0
6969,80.0,80.0,90.0,0.0,0.0
6970,87.0,0.0,240.0,0.0,0.0
6971,79.0,80.0,90.0,0.0,0.0
6972,85.0,80.0,120.0,0.0,0.0
6973,80.0,0.0,90.0,0.0,0.0
6974,89.0,40.0,120.0,0.0,0.0
6975,79.0,40.0,90.0,0.0,0.0
6976,80.0,80.0,90.0,0.0,0.0
6977,79.0,80.0,90.0,0.0,0.0
6978,85.0,40.0,120.0,0.0,0.0
6979,87.0,0.0,120.0,0.0,0.0
6980,80.0,40.0,90.0,0.0,0.0
6981,79.0,80.0,90.0,0.0,0.0
6982,80.0,80.0,90.0,0.0,0.0
6983,87.0,40.0,120.0,0.0,0.0
6984,79.0,40.0,90.0,0.0,0.0
6985,85.0,0.0,120.0,0.0,0.0
6986,80.0,80.0,90.0,0.0,0.0
6987,79.0,80.0,90.0,0.0,0.0
6988,80.0,40.0,90.0,0.0,0.0
6989,85.0,40.0,120.0,0.0,0.0
6990,87.0,0.0,120.0,0.0,0.0
6991,79.0,80.0,90.0,0.0,0.0
6992,80.0,80.0,90.0,0.0,0.0
6993,85.0,0.0,120.0,0.0,0.0
6994,79.0,40.0,90.0,0.0,0.0
6995,87.0,40.0,120.0,0.0,0.0
6996,80.0,80.0,90.0,0.0,0.0
6997,79.0,80.0,90.0,0.0,0.0
6998,80.0,40.0,90.0,0.0,0.0
6999,85.0,40.0,120.0,0.0,0.0
7000,87.0,0.0,120.0,0.0,0.0
7001,79.0,80.0,90.0,0.0,0.0
7002,80.0,120.0,90.0,0.0,0.0
7003,87.0,0.0,120.0,0.0,0.0
7004,85.0,120.0,120.0,0.0,0.0
7005,79.0,0.0,120.0,0.0,0.0
7006,80.0,120.0,120.0,0.0,0.0
7007,85.0,0.0,120.0,0.0,0.0
7008,87.0,0.0,120.0,0.0,0.0
7009,77.0,120.0,120.0,0.0,0.0
7010,79.0,960.0,120.0,0.0,0.0
7011,56.0,120.0,3840.0,0.0,0.0
7012,68.0,480.0,960.0,0.0,0.0
7013,63.0,0.0,960.0,0.0,0.0
7014,66.0,0.0,960.0,0.0,0.0
7015,60.0,120.0,960.0,0.0,0.0
7016,80.0,120.0,15.0,0.0,0.0
7017,78.0,120.0,120.0,0.0,0.0
7018,76.0,120.0,120.0,0.0,0.0
7019,75.0,0.0,120.0,0.0,0.0
7020,64.0,0.0,960.0,0.0,0.0
7021,76.0,120.0,120.0,0.0,0.0
7022,61.0,0.0,960.0,0.0,0.0
7023,75.0,120.0,120.0,0.0,0.0
7024,73.0,120.0,120.0,0.0,0.0
7025,72.0,120.0,120.0,0.0,0.0
7026,73.0,120.0,120.0,0.0,0.0
7027,75.0,120.0,120.0,0.0,0.0
7028,76.0,120.0,120.0,0.0,0.0
7029,78.0,120.0,120.0,0.0,0.0
7030,60.0,0.0,960.0,0.0,0.0
7031,63.0,0.0,960.0,0.0,0.0
7032,80.0,120.0,120.0,0.0,0.0
7033,66.0,0.0,960.0,0.0,0.0
7034,81.0,120.0,120.0,0.0,0.0
7035,80.0,120.0,120.0,0.0,0.0
7036,79.0,120.0,120.0,0.0,0.0
7037,80.0,120.0,120.0,0.0,0.0
7038,78.0,120.0,120.0,0.0,0.0
7039,76.0,120.0,120.0,0.0,0.0
7040,75.0,0.0,120.0,0.0,0.0
7041,61.0,0.0,480.0,0.0,0.0
7042,76.0,120.0,120.0,0.0,0.0
7043,64.0,0.0,480.0,0.0,0.0
7044,78.0,120.0,120.0,0.0,0.0
7045,76.0,120.0,120.0,0.0,0.0
7046,75.0,120.0,120.0,0.0,0.0
7047,73.0,120.0,120.0,0.0,0.0
7048,72.0,120.0,120.0,0.0,0.0
7049,73.0,120.0,120.0,0.0,0.0
7050,75.0,480.0,120.0,0.0,0.0
7051,61.0,480.0,960.0,0.0,0.0
7052,49.0,0.0,960.0,0.0,0.0
7053,57.0,0.0,960.0,0.0,0.0
7054,52.0,0.0,960.0,0.0,0.0
7055,64.0,0.0,960.0,0.0,0.0
7056,76.0,240.0,480.0,0.0,0.0
7057,73.0,240.0,240.0,0.0,0.0
7058,69.0,0.0,240.0,0.0,0.0
7059,75.0,240.0,480.0,0.0,0.0
7060,63.0,0.0,960.0,0.0,0.0
7061,56.0,0.0,960.0,0.0,0.0
7062,59.0,480.0,960.0,0.0,0.0
7063,71.0,240.0,240.0,0.0,0.0
7064,68.0,0.0,240.0,0.0,0.0
7065,61.0,960.0,960.0,0.0,0.0
7066,73.0,240.0,480.0,0.0,0.0
7067,58.0,0.0,960.0,0.0,0.0
7068,55.0,0.0,960.0,0.0,0.0
7069,51.0,0.0,15.0,0.0,0.0
7070,70.0,240.0,240.0,0.0,0.0
7071,67.0,0.0,240.0,0.0,0.0
7072,56.0,480.0,960.0,0.0,0.0
7073,44.0,0.0,3840.0,0.0,0.0
7074,48.0,0.0,960.0,0.0,0.0
7075,54.0,0.0,960.0,0.0,0.0
7076,51.0,120.0,960.0,0.0,0.0
7077,68.0,120.0,15.0,0.0,0.0
7078,66.0,120.0,120.0,0.0,0.0
7079,65.0,120.0,120.0,0.0,0.0
7080,63.0,0.0,120.0,0.0,0.0
7081,65.0,120.0,120.0,0.0,0.0
7082,49.0,0.0,960.0,0.0,0.0
7083,53.0,0.0,960.0,0.0,0.0
7084,63.0,120.0,120.0,0.0,0.0
7085,61.0,120.0,120.0,0.0,0.0
7086,60.0,120.0,120.0,0.0,0.0
7087,61.0,120.0,120.0,0.0,0.0
7088,63.0,120.0,120.0,0.0,0.0
7089,65.0,120.0,120.0,0.0,0.0
7090,66.0,120.0,120.0,0.0,0.0
7091,68.0,120.0,120.0,0.0,0.0
7092,51.0,0.0,960.0,0.0,0.0
7093,54.0,120.0,960.0,0.0,0.0
7094,48.0,0.0,960.0,0.0,0.0
7095,70.0,120.0,120.0,0.0,0.0
7096,68.0,120.0,120.0,0.0,0.0
7097,67.0,120.0,120.0,0.0,0.0
7098,68.0,120.0,120.0,0.0,0.0
7099,66.0,120.0,120.0,0.0,0.0
7100,65.0,120.0,120.0,0.0,0.0
7101,63.0,0.0,120.0,0.0,0.0
7102,65.0,120.0,120.0,0.0,0.0
7103,49.0,120.0,480.0,0.0,0.0
7104,53.0,0.0,480.0,0.0,0.0
7105,66.0,120.0,120.0,0.0,0.0
7106,65.0,120.0,120.0,0.0,0.0
7107,63.0,0.0,120.0,0.0,0.0
7108,61.0,120.0,120.0,0.0,0.0
7109,60.0,120.0,120.0,0.0,0.0
7110,61.0,120.0,120.0,0.0,0.0
7111,63.0,480.0,120.0,0.0,0.0
7112,53.0,480.0,960.0,0.0,0.0
7113,65.0,240.0,480.0,0.0,0.0
7114,41.0,0.0,960.0,0.0,0.0
7115,46.0,0.0,960.0,0.0,0.0
7116,37.0,0.0,960.0,0.0,0.0
7117,61.0,240.0,240.0,0.0,0.0
7118,58.0,0.0,240.0,0.0,0.0
7119,63.0,240.0,480.0,0.0,0.0
7120,39.0,0.0,1920.0,0.0,0.0
7121,48.0,0.0,960.0,0.0,0.0
7122,44.0,480.0,960.0,0.0,0.0
7123,60.0,240.0,240.0,0.0,0.0
7124,56.0,0.0,240.0,0.0,0.0
7125,61.0,240.0,480.0,0.0,0.0
7126,46.0,0.0,960.0,0.0,0.0
7127,49.0,0.0,960.0,0.0,0.0
7128,58.0,240.0,240.0,0.0,0.0
7129,55.0,0.0,240.0,0.0,0.0
7130,48.0,0.0,480.0,0.0,0.0
7131,44.0,0.0,480.0,0.0,0.0
7132,56.0,240.0,480.0,0.0,0.0
7133,51.0,480.0,15.0,0.0,0.0
7134,44.0,240.0,720.0,0.0,0.0
7135,36.0,240.0,480.0,0.0,0.0
7136,68.0,240.0,240.0,0.0,0.0
7137,67.0,0.0,240.0,0.0,0.0
7138,65.0,240.0,480.0,0.0,0.0
7139,37.0,480.0,960.0,0.0,0.0
7140,46.0,0.0,240.0,0.0,0.0
7141,61.0,240.0,240.0,0.0,0.0
7142,48.0,0.0,240.0,0.0,0.0
7143,49.0,0.0,240.0,0.0,0.0
7144,58.0,0.0,240.0,0.0,0.0
7145,51.0,0.0,960.0,0.0,0.0
7146,63.0,240.0,480.0,0.0,0.0
7147,39.0,0.0,1920.0,0.0,0.0
7148,48.0,0.0,960.0,0.0,0.0
7149,60.0,240.0,240.0,0.0,0.0
7150,56.0,480.0,240.0,0.0,0.0
7151,49.0,0.0,960.0,0.0,0.0
7152,61.0,240.0,480.0,0.0,0.0
7153,46.0,480.0,960.0,0.0,0.0
7154,58.0,240.0,240.0,0.0,0.0
7155,55.0,0.0,240.0,0.0,0.0
7156,48.0,0.0,480.0,0.0,0.0
7157,44.0,0.0,480.0,0.0,0.0
7158,56.0,240.0,480.0,0.0,0.0
7159,73.0,240.0,240.0,0.0,0.0
7160,41.0,0.0,480.0,0.0,0.0
7161,49.0,240.0,720.0,0.0,0.0
7162,72.0,240.0,240.0,0.0,0.0
7163,70.0,240.0,480.0,0.0,0.0
7164,42.0,480.0,960.0,0.0,0.0
7165,51.0,0.0,240.0,0.0,0.0
7166,53.0,0.0,240.0,0.0,0.0
7167,66.0,240.0,240.0,0.0,0.0
7168,54.0,0.0,240.0,0.0,0.0
7169,63.0,0.0,240.0,0.0,0.0
7170,44.0,480.0,1920.0,0.0,0.0
7171,53.0,480.0,960.0,0.0,0.0
7172,56.0,0.0,960.0,0.0,0.0
7173,68.0,240.0,480.0,0.0,0.0
7174,65.0,240.0,240.0,0.0,0.0
7175,61.0,0.0,240.0,0.0,0.0
7176,54.0,0.0,960.0,0.0,0.0
7177,51.0,0.0,960.0,0.0,0.0
7178,66.0,240.0,480.0,0.0,0.0
7179,63.0,240.0,240.0,0.0,0.0
7180,60.0,0.0,240.0,0.0,0.0
7181,61.0,240.0,480.0,0.0,0.0
7182,52.0,0.0,480.0,0.0,0.0
7183,49.0,0.0,480.0,0.0,0.0
7184,40.0,240.0,480.0,0.0,0.0
7185,73.0,240.0,240.0,0.0,0.0
7186,49.0,240.0,720.0,0.0,0.0
7187,71.0,0.0,240.0,0.0,0.0
7188,69.0,240.0,480.0,0.0,0.0
7189,42.0,0.0,960.0,0.0,0.0
7190,51.0,0.0,240.0,0.0,0.0
7191,66.0,240.0,240.0,0.0,0.0
7192,52.0,0.0,240.0,0.0,0.0
7193,63.0,480.0,240.0,0.0,0.0
7194,54.0,0.0,240.0,0.0,0.0
7195,52.0,480.0,960.0,0.0,0.0
7196,44.0,0.0,1920.0,0.0,0.0
7197,56.0,0.0,960.0,0.0,0.0
7198,68.0,240.0,480.0,0.0,0.0
7199,64.0,240.0,240.0,0.0,0.0
7200,61.0,0.0,240.0,0.0,0.0
7201,54.0,0.0,960.0,0.0,0.0
7202,51.0,0.0,960.0,0.0,0.0
7203,66.0,240.0,480.0,0.0,0.0
7204,63.0,240.0,240.0,0.0,0.0
7205,60.0,120.0,240.0,0.0,0.0
7206,52.0,0.0,120.0,0.0,0.0
7207,49.0,0.0,120.0,0.0,0.0
7208,45.0,120.0,120.0,0.0,0.0
7209,61.0,120.0,240.0,0.0,0.0
7210,45.0,0.0,120.0,0.0,0.0
7211,49.0,0.0,120.0,0.0,0.0
7212,33.0,240.0,120.0,0.0,0.0
7213,40.0,0.0,120.0,0.0,0.0
7214,40.0,0.0,120.0,0.0,0.0
7215,49.0,0.0,120.0,0.0,0.0
7216,45.0,0.0,120.0,0.0,0.0
7217,33.0,240.0,120.0,0.0,0.0
7218,40.0,0.0,120.0,0.0,0.0
7219,45.0,0.0,120.0,0.0,0.0
7220,49.0,240.0,120.0,0.0,0.0
7221,33.0,0.0,120.0,0.0,0.0
7222,45.0,0.0,120.0,0.0,0.0
7223,33.0,0.0,120.0,0.0,0.0
7224,40.0,240.0,120.0,0.0,0.0
7225,49.0,0.0,120.0,0.0,0.0
7226,49.0,0.0,120.0,0.0,0.0
7227,33.0,0.0,120.0,0.0,0.0
7228,40.0,0.0,120.0,0.0,0.0
7229,45.0,240.0,120.0,0.0,0.0
7230,45.0,0.0,120.0,0.0,0.0
7231,49.0,0.0,120.0,0.0,0.0
7232,40.0,240.0,120.0,0.0,0.0
7233,33.0,0.0,120.0,0.0,0.0
7234,45.0,0.0,120.0,0.0,0.0
7235,40.0,0.0,120.0,0.0,0.0
7236,49.0,240.0,120.0,0.0,0.0
7237,33.0,0.0,120.0,0.0,0.0
7238,33.0,240.0,120.0,0.0,0.0
7239,49.0,0.0,120.0,0.0,0.0
7240,45.0,0.0,120.0,0.0,0.0
7241,40.0,0.0,120.0,0.0,0.0
7242,40.0,0.0,120.0,0.0,0.0
7243,33.0,240.0,120.0,0.0,0.0
7244,49.0,0.0,120.0,0.0,0.0
7245,45.0,0.0,120.0,0.0,0.0
7246,33.0,240.0,120.0,0.0,0.0
7247,49.0,0.0,120.0,0.0,0.0
7248,45.0,0.0,120.0,0.0,0.0
7249,40.0,0.0,120.0,0.0,0.0
7250,40.0,240.0,120.0,0.0,0.0
7251,45.0,0.0,120.0,0.0,0.0
7252,49.0,0.0,120.0,0.0,0.0
7253,33.0,0.0,120.0,0.0,0.0
7254,40.0,0.0,120.0,0.0,0.0
7255,33.0,0.0,120.0,0.0,0.0
7256,49.0,240.0,120.0,0.0,0.0
7257,45.0,0.0,120.0,0.0,0.0
7258,33.0,240.0,120.0,0.0,0.0
7259,40.0,0.0,120.0,0.0,0.0
7260,49.0,0.0,120.0,0.0,0.0
7261,45.0,0.0,120.0,0.0,0.0
7262,33.0,0.0,120.0,0.0,0.0
7263,42.0,0.0,120.0,0.0,0.0
7264,51.0,240.0,120.0,0.0,0.0
7265,47.0,0.0,120.0,0.0,0.0
7266,51.0,300.0,120.0,0.0,0.0
7267,47.0,0.0,120.0,0.0,0.0
7268,42.0,0.0,120.0,0.0,0.0
7269,33.0,0.0,120.0,0.0,0.0
7270,32.0,0.0,180.0,0.0,0.0
7271,52.0,120.0,720.0,0.0,0.0
7272,35.0,240.0,180.0,0.0,0.0
7273,40.0,0.0,180.0,0.0,0.0
7274,35.0,0.0,180.0,0.0,0.0
7275,40.0,0.0,180.0,0.0,0.0
7276,32.0,240.0,180.0,0.0,0.0
7277,35.0,0.0,180.0,0.0,0.0
7278,40.0,0.0,180.0,0.0,0.0
7279,32.0,60.0,180.0,0.0,0.0
7280,56.0,60.0,120.0,0.0,0.0
7281,32.0,60.0,180.0,0.0,0.0
7282,40.0,0.0,180.0,0.0,0.0
7283,35.0,0.0,180.0,0.0,0.0
7284,54.0,120.0,120.0,0.0,0.0
7285,52.0,60.0,120.0,0.0,0.0
7286,40.0,0.0,180.0,0.0,0.0
7287,35.0,0.0,180.0,0.0,0.0
7288,32.0,240.0,180.0,0.0,0.0
7289,35.0,240.0,180.0,0.0,0.0
7290,32.0,0.0,180.0,0.0,0.0
7291,40.0,0.0,180.0,0.0,0.0
7292,35.0,0.0,180.0,0.0,0.0
7293,40.0,0.0,180.0,0.0,0.0
7294,32.0,240.0,180.0,0.0,0.0
7295,40.0,60.0,180.0,0.0,0.0
7296,32.0,0.0,180.0,0.0,0.0
7297,35.0,0.0,180.0,0.0,0.0
7298,82.0,180.0,60.0,0.0,0.0
7299,41.0,0.0,180.0,0.0,0.0
7300,32.0,240.0,180.0,0.0,0.0
7301,35.0,0.0,180.0,0.0,0.0
7302,37.0,0.0,180.0,0.0,0.0
7303,83.0,60.0,600.0,0.0,0.0
7304,37.0,180.0,180.0,0.0,0.0
7305,41.0,0.0,180.0,0.0,0.0
7306,32.0,0.0,180.0,0.0,0.0
7307,35.0,0.0,180.0,0.0,0.0
7308,32.0,0.0,180.0,0.0,0.0
7309,35.0,0.0,180.0,0.0,0.0
7310,41.0,0.0,180.0,0.0,0.0
7311,37.0,60.0,180.0,0.0,0.0
7312,81.0,120.0,120.0,0.0,0.0
7313,41.0,0.0,180.0,0.0,0.0
7314,37.0,0.0,180.0,0.0,0.0
7315,32.0,0.0,180.0,0.0,0.0
7316,35.0,60.0,180.0,0.0,0.0
7317,80.0,60.0,120.0,0.0,0.0
7318,78.0,180.0,120.0,0.0,0.0
7319,35.0,0.0,180.0,0.0,0.0
7320,32.0,60.0,180.0,0.0,0.0
7321,37.0,0.0,180.0,0.0,0.0
7322,41.0,0.0,180.0,0.0,0.0
7323,77.0,180.0,240.0,0.0,0.0
7324,32.0,0.0,180.0,0.0,0.0
7325,35.0,0.0,180.0,0.0,0.0
7326,37.0,240.0,180.0,0.0,0.0
7327,41.0,0.0,180.0,0.0,0.0
7328,37.0,0.0,180.0,0.0,0.0
7329,35.0,0.0,180.0,0.0,0.0
7330,32.0,240.0,180.0,0.0,0.0
7331,41.0,0.0,180.0,0.0,0.0
7332,32.0,0.0,180.0,0.0,0.0
7333,37.0,0.0,180.0,0.0,0.0
7334,41.0,0.0,180.0,0.0,0.0
7335,35.0,240.0,180.0,0.0,0.0
7336,42.0,0.0,180.0,0.0,0.0
7337,33.0,0.0,180.0,0.0,0.0
7338,54.0,120.0,720.0,0.0,0.0
7339,37.0,240.0,180.0,0.0,0.0
7340,37.0,240.0,180.0,0.0,0.0
7341,33.0,0.0,180.0,0.0,0.0
7342,42.0,0.0,180.0,0.0,0.0
7343,37.0,0.0,180.0,0.0,0.0
7344,42.0,60.0,180.0,0.0,0.0
7345,33.0,0.0,180.0,0.0,0.0
7346,42.0,0.0,180.0,0.0,0.0
7347,37.0,60.0,180.0,0.0,0.0
7348,33.0,0.0,180.0,0.0,0.0
7349,57.0,60.0,120.0,0.0,0.0
7350,56.0,120.0,120.0,0.0,0.0
7351,37.0,0.0,180.0,0.0,0.0
7352,42.0,240.0,180.0,0.0,0.0
7353,54.0,60.0,120.0,0.0,0.0
7354,33.0,0.0,180.0,0.0,0.0
7355,33.0,240.0,180.0,0.0,0.0
7356,42.0,0.0,180.0,0.0,0.0
7357,37.0,0.0,180.0,0.0,0.0
7358,42.0,0.0,180.0,0.0,0.0
7359,37.0,0.0,180.0,0.0,0.0
7360,33.0,240.0,180.0,0.0,0.0
7361,33.0,60.0,180.0,0.0,0.0
7362,42.0,0.0,180.0,0.0,0.0
7363,37.0,0.0,180.0,0.0,0.0
7364,84.0,180.0,60.0,0.0,0.0
7365,43.0,0.0,180.0,0.0,0.0
7366,37.0,0.0,180.0,0.0,0.0
7367,34.0,240.0,180.0,0.0,0.0
7368,85.0,60.0,600.0,0.0,0.0
7369,43.0,0.0,180.0,0.0,0.0
7370,37.0,180.0,180.0,0.0,0.0
7371,34.0,0.0,180.0,0.0,0.0
7372,37.0,0.0,180.0,0.0,0.0
7373,34.0,0.0,180.0,0.0,0.0
7374,43.0,60.0,180.0,0.0,0.0
7375,83.0,120.0,120.0,0.0,0.0
7376,34.0,0.0,180.0,0.0,0.0
7377,37.0,60.0,180.0,0.0,0.0
7378,82.0,60.0,120.0,0.0,0.0
7379,43.0,0.0,180.0,0.0,0.0
7380,80.0,180.0,120.0,0.0,0.0
7381,37.0,60.0,180.0,0.0,0.0
7382,79.0,180.0,240.0,0.0,0.0
7383,34.0,0.0,180.0,0.0,0.0
7384,43.0,0.0,180.0,0.0,0.0
7385,43.0,0.0,180.0,0.0,0.0
7386,37.0,0.0,180.0,0.0,0.0
7387,34.0,240.0,180.0,0.0,0.0
7388,37.0,240.0,180.0,0.0,0.0
7389,43.0,0.0,180.0,0.0,0.0
7390,34.0,0.0,180.0,0.0,0.0
7391,34.0,0.0,180.0,0.0,0.0
7392,43.0,240.0,180.0,0.0,0.0
7393,37.0,0.0,180.0,0.0,0.0
7394,43.0,0.0,180.0,0.0,0.0
7395,56.0,120.0,240.0,0.0,0.0
7396,39.0,60.0,180.0,0.0,0.0
7397,35.0,0.0,180.0,0.0,0.0
7398,39.0,60.0,180.0,0.0,0.0
7399,59.0,60.0,120.0,0.0,0.0
7400,43.0,0.0,180.0,0.0,0.0
7401,35.0,0.0,180.0,0.0,0.0
7402,58.0,180.0,120.0,0.0,0.0
7403,39.0,60.0,180.0,0.0,0.0
7404,35.0,0.0,180.0,0.0,0.0
7405,44.0,0.0,180.0,0.0,0.0
7406,56.0,180.0,240.0,0.0,0.0
7407,39.0,180.0,180.0,0.0,0.0
7408,44.0,0.0,180.0,0.0,0.0
7409,35.0,0.0,180.0,0.0,0.0
7410,37.0,0.0,180.0,0.0,0.0
7411,44.0,60.0,180.0,0.0,0.0
7412,40.0,0.0,180.0,0.0,0.0
7413,76.0,60.0,120.0,0.0,0.0
7414,75.0,120.0,120.0,0.0,0.0
7415,73.0,60.0,120.0,0.0,0.0
7416,37.0,60.0,180.0,0.0,0.0
7417,44.0,0.0,180.0,0.0,0.0
7418,40.0,0.0,180.0,0.0,0.0
7419,71.0,180.0,120.0,0.0,0.0
7420,46.0,60.0,180.0,0.0,0.0
7421,70.0,180.0,240.0,0.0,0.0
7422,40.0,0.0,180.0,0.0,0.0
7423,37.0,0.0,180.0,0.0,0.0
7424,40.0,240.0,180.0,0.0,0.0
7425,37.0,0.0,180.0,0.0,0.0
7426,46.0,0.0,180.0,0.0,0.0
7427,60.0,120.0,240.0,0.0,0.0
7428,42.0,0.0,180.0,0.0,0.0
7429,39.0,60.0,180.0,0.0,0.0
7430,46.0,0.0,180.0,0.0,0.0
7431,39.0,60.0,180.0,0.0,0.0
7432,42.0,0.0,180.0,0.0,0.0
7433,46.0,0.0,180.0,0.0,0.0
7434,63.0,60.0,120.0,0.0,0.0
7435,61.0,180.0,120.0,0.0,0.0
7436,60.0,180.0,240.0,0.0,0.0
7437,48.0,0.0,180.0,0.0,0.0
7438,42.0,0.0,180.0,0.0,0.0
7439,39.0,60.0,180.0,0.0,0.0
7440,42.0,0.0,180.0,0.0,0.0
7441,39.0,180.0,180.0,0.0,0.0
7442,48.0,0.0,180.0,0.0,0.0
7443,40.0,0.0,180.0,0.0,0.0
7444,48.0,60.0,180.0,0.0,0.0
7445,80.0,60.0,120.0,0.0,0.0
7446,44.0,0.0,180.0,0.0,0.0
7447,78.0,120.0,120.0,0.0,0.0
7448,40.0,0.0,180.0,0.0,0.0
7449,48.0,0.0,180.0,0.0,0.0
7450,44.0,60.0,180.0,0.0,0.0
7451,76.0,60.0,120.0,0.0,0.0
7452,75.0,180.0,120.0,0.0,0.0
7453,44.0,0.0,180.0,0.0,0.0
7454,40.0,60.0,180.0,0.0,0.0
7455,73.0,180.0,240.0,0.0,0.0
7456,49.0,0.0,180.0,0.0,0.0
7457,49.0,0.0,180.0,0.0,0.0
7458,40.0,180.0,180.0,0.0,0.0
7459,44.0,0.0,180.0,0.0,0.0
7460,50.0,0.0,180.0,0.0,0.0
7461,83.0,60.0,120.0,0.0,0.0
7462,44.0,0.0,180.0,0.0,0.0
7463,41.0,60.0,180.0,0.0,0.0
7464,82.0,120.0,120.0,0.0,0.0
7465,44.0,0.0,180.0,0.0,0.0
7466,80.0,60.0,120.0,0.0,0.0
7467,41.0,60.0,180.0,0.0,0.0
7468,50.0,0.0,180.0,0.0,0.0
7469,79.0,180.0,120.0,0.0,0.0
7470,80.0,180.0,240.0,0.0,0.0
7471,44.0,0.0,180.0,0.0,0.0
7472,41.0,60.0,180.0,0.0,0.0
7473,50.0,0.0,180.0,0.0,0.0
7474,44.0,0.0,180.0,0.0,0.0
7475,41.0,0.0,180.0,0.0,0.0
7476,50.0,180.0,180.0,0.0,0.0
7477,41.0,0.0,180.0,0.0,0.0
7478,71.0,60.0,120.0,0.0,0.0
7479,44.0,60.0,180.0,0.0,0.0
7480,50.0,0.0,180.0,0.0,0.0
7481,70.0,120.0,120.0,0.0,0.0
7482,68.0,60.0,120.0,0.0,0.0
7483,50.0,0.0,180.0,0.0,0.0
7484,44.0,60.0,180.0,0.0,0.0
7485,41.0,0.0,180.0,0.0,0.0
7486,67.0,180.0,120.0,0.0,0.0
7487,68.0,180.0,240.0,0.0,0.0
7488,44.0,60.0,180.0,0.0,0.0
7489,41.0,0.0,180.0,0.0,0.0
7490,50.0,0.0,180.0,0.0,0.0
7491,44.0,0.0,180.0,0.0,0.0
7492,41.0,0.0,180.0,0.0,0.0
7493,50.0,180.0,180.0,0.0,0.0
7494,59.0,60.0,120.0,0.0,0.0
7495,44.0,60.0,180.0,0.0,0.0
7496,50.0,0.0,180.0,0.0,0.0
7497,40.0,0.0,180.0,0.0,0.0
7498,58.0,120.0,120.0,0.0,0.0
7499,56.0,60.0,120.0,0.0,0.0
7500,44.0,60.0,180.0,0.0,0.0
7501,50.0,0.0,180.0,0.0,0.0
7502,40.0,0.0,180.0,0.0,0.0
7503,55.0,180.0,120.0,0.0,0.0
7504,40.0,0.0,180.0,0.0,0.0
7505,56.0,180.0,240.0,0.0,0.0
7506,50.0,60.0,180.0,0.0,0.0
7507,44.0,0.0,180.0,0.0,0.0
7508,40.0,0.0,180.0,0.0,0.0
7509,44.0,0.0,180.0,0.0,0.0
7510,50.0,180.0,180.0,0.0,0.0
7511,71.0,60.0,120.0,0.0,0.0
7512,44.0,60.0,180.0,0.0,0.0
7513,40.0,0.0,180.0,0.0,0.0
7514,47.0,0.0,180.0,0.0,0.0
7515,70.0,120.0,120.0,0.0,0.0
7516,47.0,60.0,180.0,0.0,0.0
7517,44.0,0.0,180.0,0.0,0.0
7518,40.0,0.0,180.0,0.0,0.0
7519,68.0,60.0,120.0,0.0,0.0
7520,67.0,120.0,120.0,0.0,0.0
7521,68.0,60.0,120.0,0.0,0.0
7522,40.0,60.0,180.0,0.0,0.0
7523,44.0,0.0,180.0,0.0,0.0
7524,70.0,120.0,120.0,0.0,0.0
7525,44.0,0.0,180.0,0.0,0.0
7526,40.0,60.0,180.0,0.0,0.0
7527,71.0,60.0,120.0,0.0,0.0
7528,74.0,220.0,120.0,0.0,0.0
7529,43.0,0.0,210.0,0.0,0.0
7530,39.0,240.0,210.0,0.0,0.0
7531,75.0,0.0,210.0,0.0,0.0
7532,75.0,240.0,210.0,0.0,0.0
7533,63.0,0.0,210.0,0.0,0.0
7534,75.0,0.0,210.0,0.0,0.0
7535,63.0,240.0,210.0,0.0,0.0
7536,75.0,0.0,210.0,0.0,0.0
7537,63.0,240.0,210.0,0.0,0.0
7538,63.0,0.0,210.0,0.0,0.0
7539,75.0,240.0,210.0,0.0,0.0
7540,63.0,240.0,210.0,0.0,0.0
7541,75.0,0.0,210.0,0.0,0.0
7542,63.0,240.0,210.0,0.0,0.0
7543,75.0,0.0,210.0,0.0,0.0
7544,75.0,0.0,210.0,0.0,0.0
7545,63.0,240.0,210.0,0.0,0.0
7546,75.0,0.0,210.0,0.0,0.0
7547,69.0,0.0,210.0,0.0,0.0
7548,66.0,240.0,210.0,0.0,0.0
7549,63.0,0.0,210.0,0.0,0.0
7550,75.0,0.0,210.0,0.0,0.0
7551,69.0,240.0,210.0,0.0,0.0
7552,63.0,0.0,210.0,0.0,0.0
7553,66.0,0.0,210.0,0.0,0.0
7554,69.0,240.0,210.0,0.0,0.0
7555,63.0,0.0,210.0,0.0,0.0
7556,66.0,0.0,210.0,0.0,0.0
7557,75.0,0.0,210.0,0.0,0.0
7558,63.0,0.0,210.0,0.0,0.0
7559,66.0,240.0,210.0,0.0,0.0
7560,75.0,0.0,210.0,0.0,0.0
7561,69.0,0.0,210.0,0.0,0.0
7562,69.0,0.0,210.0,0.0,0.0
7563,63.0,240.0,210.0,0.0,0.0
7564,66.0,0.0,210.0,0.0,0.0
7565,75.0,0.0,210.0,0.0,0.0
7566,75.0,0.0,210.0,0.0,0.0
7567,69.0,240.0,210.0,0.0,0.0
7568,66.0,0.0,210.0,0.0,0.0
7569,63.0,0.0,210.0,0.0,0.0
7570,75.0,240.0,210.0,0.0,0.0
7571,69.0,0.0,210.0,0.0,0.0
7572,66.0,0.0,210.0,0.0,0.0
7573,63.0,0.0,210.0,0.0,0.0
7574,63.0,0.0,210.0,0.0,0.0
7575,75.0,200.0,210.0,0.0,0.0
7576,69.0,0.0,210.0,0.0,0.0
7577,66.0,0.0,210.0,0.0,0.0
7578,43.0,0.0,180.0,0.0,0.0
7579,46.0,60.0,180.0,0.0,0.0
7580,67.0,0.0,240.0,0.0,0.0
7581,63.0,0.0,240.0,0.0,0.0
7582,70.0,0.0,240.0,0.0,0.0
7583,43.0,0.0,180.0,0.0,0.0
7584,46.0,240.0,180.0,0.0,0.0
7585,75.0,180.0,15.0,0.0,0.0
7586,87.0,180.0,480.0,0.0,0.0
7587,43.0,0.0,180.0,0.0,0.0
7588,46.0,60.0,180.0,0.0,0.0
7589,43.0,240.0,180.0,0.0,0.0
7590,46.0,0.0,180.0,0.0,0.0
7591,85.0,180.0,480.0,0.0,0.0
7592,73.0,0.0,480.0,0.0,0.0
7593,43.0,60.0,180.0,0.0,0.0
7594,46.0,0.0,180.0,0.0,0.0
7595,46.0,240.0,180.0,0.0,0.0
7596,43.0,0.0,180.0,0.0,0.0
7597,72.0,0.0,480.0,0.0,0.0
7598,84.0,180.0,480.0,0.0,0.0
7599,43.0,0.0,180.0,0.0,0.0
7600,46.0,60.0,180.0,0.0,0.0
7601,46.0,0.0,180.0,0.0,0.0
7602,43.0,240.0,180.0,0.0,0.0
7603,70.0,180.0,480.0,0.0,0.0
7604,82.0,0.0,480.0,0.0,0.0
7605,43.0,60.0,180.0,0.0,0.0
7606,46.0,0.0,180.0,0.0,0.0
7607,46.0,240.0,180.0,0.0,0.0
7608,68.0,180.0,480.0,0.0,0.0
7609,43.0,0.0,180.0,0.0,0.0
7610,80.0,0.0,480.0,0.0,0.0
7611,46.0,0.0,180.0,0.0,0.0
7612,43.0,60.0,180.0,0.0,0.0
7613,43.0,0.0,180.0,0.0,0.0
7614,79.0,0.0,480.0,0.0,0.0
7615,67.0,180.0,480.0,0.0,0.0
7616,46.0,240.0,180.0,0.0,0.0
7617,46.0,60.0,180.0,0.0,0.0
7618,43.0,0.0,180.0,0.0,0.0
7619,46.0,0.0,180.0,0.0,0.0
7620,43.0,240.0,180.0,0.0,0.0
7621,65.0,0.0,480.0,0.0,0.0
7622,77.0,180.0,480.0,0.0,0.0
7623,48.0,60.0,180.0,0.0,0.0
7624,45.0,0.0,180.0,0.0,0.0
7625,45.0,60.0,180.0,0.0,0.0
7626,48.0,0.0,180.0,0.0,0.0
7627,75.0,0.0,240.0,0.0,0.0
7628,63.0,120.0,240.0,0.0,0.0
7629,61.0,0.0,120.0,0.0,0.0
7630,46.0,120.0,1200.0,0.0,0.0
7631,49.0,120.0,720.0,0.0,0.0
7632,73.0,120.0,120.0,0.0,0.0
7633,58.0,120.0,120.0,0.0,0.0
7634,60.0,120.0,120.0,0.0,0.0
7635,61.0,120.0,120.0,0.0,0.0
7636,63.0,120.0,120.0,0.0,0.0
7637,65.0,0.0,120.0,0.0,0.0
7638,67.0,0.0,120.0,0.0,0.0
7639,53.0,120.0,120.0,0.0,0.0
7640,51.0,0.0,120.0,0.0,0.0
7641,69.0,120.0,120.0,0.0,0.0
7642,70.0,120.0,120.0,0.0,0.0
7643,49.0,0.0,240.0,0.0,0.0
7644,61.0,0.0,120.0,0.0,0.0
7645,63.0,120.0,120.0,0.0,0.0
7646,65.0,120.0,120.0,0.0,0.0
7647,67.0,120.0,120.0,0.0,0.0
7648,69.0,120.0,120.0,0.0,0.0
7649,70.0,120.0,120.0,0.0,0.0
7650,72.0,120.0,120.0,0.0,0.0
7651,65.0,0.0,600.0,0.0,0.0
7652,73.0,120.0,120.0,0.0,0.0
7653,70.0,120.0,120.0,0.0,0.0
7654,72.0,120.0,120.0,0.0,0.0
7655,73.0,120.0,120.0,0.0,0.0
7656,75.0,120.0,120.0,0.0,0.0
7657,77.0,120.0,120.0,0.0,0.0
7658,63.0,0.0,120.0,0.0,0.0
7659,61.0,0.0,120.0,0.0,0.0
7660,79.0,120.0,120.0,0.0,0.0
7661,81.0,0.0,120.0,0.0,0.0
7662,60.0,120.0,120.0,0.0,0.0
7663,82.0,120.0,120.0,0.0,0.0
7664,58.0,120.0,240.0,0.0,0.0
7665,81.0,0.0,120.0,0.0,0.0
7666,82.0,120.0,120.0,0.0,0.0
7667,84.0,120.0,120.0,0.0,0.0
7668,85.0,120.0,120.0,0.0,0.0
7669,81.0,120.0,120.0,0.0,0.0
7670,82.0,120.0,120.0,0.0,0.0
7671,84.0,180.0,120.0,0.0,0.0
7672,44.0,0.0,180.0,0.0,0.0
7673,41.0,60.0,180.0,0.0,0.0
7674,41.0,240.0,180.0,0.0,0.0
7675,73.0,180.0,480.0,0.0,0.0
7676,85.0,180.0,15.0,0.0,0.0
7677,44.0,0.0,180.0,0.0,0.0
7678,41.0,0.0,180.0,0.0,0.0
7679,44.0,60.0,180.0,0.0,0.0
7680,84.0,180.0,480.0,0.0,0.0
7681,41.0,240.0,180.0,0.0,0.0
7682,44.0,0.0,180.0,0.0,0.0
7683,72.0,0.0,480.0,0.0,0.0
7684,41.0,60.0,180.0,0.0,0.0
7685,44.0,0.0,180.0,0.0,0.0
7686,82.0,0.0,480.0,0.0,0.0
7687,70.0,180.0,480.0,0.0,0.0
7688,41.0,0.0,180.0,0.0,0.0
7689,44.0,240.0,180.0,0.0,0.0
7690,44.0,60.0,180.0,0.0,0.0
7691,41.0,0.0,180.0,0.0,0.0
7692,80.0,180.0,480.0,0.0,0.0
7693,44.0,240.0,180.0,0.0,0.0
7694,41.0,0.0,180.0,0.0,0.0
7695,68.0,0.0,480.0,0.0,0.0
7696,41.0,0.0,180.0,0.0,0.0
7697,44.0,60.0,180.0,0.0,0.0
7698,79.0,180.0,480.0,0.0,0.0
7699,67.0,0.0,480.0,0.0,0.0
7700,41.0,0.0,180.0,0.0,0.0
7701,44.0,240.0,180.0,0.0,0.0
7702,44.0,0.0,180.0,0.0,0.0
7703,41.0,60.0,180.0,0.0,0.0
7704,44.0,240.0,180.0,0.0,0.0
7705,41.0,0.0,180.0,0.0,0.0
7706,77.0,0.0,480.0,0.0,0.0
7707,65.0,180.0,480.0,0.0,0.0
7708,41.0,60.0,180.0,0.0,0.0
7709,44.0,0.0,180.0,0.0,0.0
7710,75.0,180.0,480.0,0.0,0.0
7711,41.0,240.0,180.0,0.0,0.0
7712,63.0,0.0,480.0,0.0,0.0
7713,44.0,0.0,180.0,0.0,0.0
7714,43.0,60.0,180.0,0.0,0.0
7715,46.0,0.0,180.0,0.0,0.0
7716,61.0,120.0,240.0,0.0,0.0
7717,73.0,0.0,240.0,0.0,0.0
7718,43.0,0.0,180.0,0.0,0.0
7719,46.0,60.0,180.0,0.0,0.0
7720,44.0,120.0,1200.0,0.0,0.0
7721,48.0,0.0,720.0,0.0,0.0
7722,72.0,120.0,120.0,0.0,0.0
7723,60.0,0.0,15.0,0.0,0.0
7724,61.0,120.0,120.0,0.0,0.0
7725,63.0,120.0,120.0,0.0,0.0
7726,65.0,120.0,120.0,0.0,0.0
7727,67.0,120.0,120.0,0.0,0.0
7728,51.0,0.0,120.0,0.0,0.0
7729,68.0,120.0,120.0,0.0,0.0
7730,70.0,120.0,120.0,0.0,0.0
7731,49.0,0.0,120.0,0.0,0.0
7732,48.0,0.0,240.0,0.0,0.0
7733,72.0,120.0,120.0,0.0,0.0
7734,65.0,0.0,120.0,0.0,0.0
7735,67.0,120.0,120.0,0.0,0.0
7736,68.0,120.0,120.0,0.0,0.0
7737,70.0,120.0,120.0,0.0,0.0
7738,72.0,120.0,120.0,0.0,0.0
7739,74.0,120.0,120.0,0.0,0.0
7740,76.0,120.0,120.0,0.0,0.0
7741,44.0,0.0,60.0,0.0,0.0
7742,77.0,120.0,120.0,0.0,0.0
7743,60.0,120.0,600.0,0.0,0.0
7744,72.0,120.0,120.0,0.0,0.0
7745,74.0,120.0,120.0,0.0,0.0
7746,76.0,120.0,120.0,0.0,0.0
7747,77.0,0.0,120.0,0.0,0.0
7748,79.0,0.0,120.0,0.0,0.0
7749,58.0,120.0,120.0,0.0,0.0
7750,80.0,0.0,120.0,0.0,0.0
7751,56.0,120.0,120.0,0.0,0.0
7752,82.0,120.0,120.0,0.0,0.0
7753,55.0,0.0,120.0,0.0,0.0
7754,84.0,120.0,120.0,0.0,0.0
7755,53.0,0.0,240.0,0.0,0.0
7756,82.0,120.0,120.0,0.0,0.0
7757,80.0,120.0,120.0,0.0,0.0
7758,79.0,120.0,120.0,0.0,0.0
7759,77.0,120.0,120.0,0.0,0.0
7760,79.0,120.0,120.0,0.0,0.0
7761,80.0,120.0,120.0,0.0,0.0
7762,77.0,240.0,120.0,0.0,0.0
7763,46.0,120.0,1200.0,0.0,0.0
7764,49.0,0.0,720.0,0.0,0.0
7765,61.0,120.0,120.0,0.0,0.0
7766,63.0,120.0,120.0,0.0,0.0
7767,65.0,120.0,120.0,0.0,0.0
7768,67.0,120.0,120.0,0.0,0.0
7769,68.0,120.0,120.0,0.0,0.0
7770,70.0,120.0,120.0,0.0,0.0
7771,53.0,0.0,120.0,0.0,0.0
7772,51.0,120.0,120.0,0.0,0.0
7773,72.0,0.0,120.0,0.0,0.0
7774,73.0,120.0,120.0,0.0,0.0
7775,49.0,0.0,240.0,0.0,0.0
7776,67.0,0.0,120.0,0.0,0.0
7777,68.0,120.0,120.0,0.0,0.0
7778,70.0,120.0,120.0,0.0,0.0
7779,72.0,120.0,120.0,0.0,0.0
7780,73.0,120.0,120.0,0.0,0.0
7781,75.0,120.0,120.0,0.0,0.0
7782,77.0,0.0,120.0,0.0,0.0
7783,46.0,120.0,60.0,0.0,0.0
7784,79.0,120.0,120.0,0.0,0.0
7785,61.0,0.0,600.0,0.0,0.0
7786,73.0,120.0,120.0,0.0,0.0
7787,75.0,120.0,120.0,0.0,0.0
7788,77.0,120.0,120.0,0.0,0.0
7789,79.0,120.0,120.0,0.0,0.0
7790,60.0,0.0,120.0,0.0,0.0
7791,80.0,120.0,120.0,0.0,0.0
7792,58.0,120.0,120.0,0.0,0.0
7793,82.0,0.0,120.0,0.0,0.0
7794,56.0,0.0,120.0,0.0,0.0
7795,84.0,120.0,120.0,0.0,0.0
7796,85.0,120.0,120.0,0.0,0.0
7797,55.0,0.0,240.0,0.0,0.0
7798,84.0,120.0,120.0,0.0,0.0
7799,82.0,120.0,120.0,0.0,0.0
7800,80.0,120.0,120.0,0.0,0.0
7801,79.0,120.0,120.0,0.0,0.0
7802,80.0,120.0,120.0,0.0,0.0
7803,82.0,120.0,120.0,0.0,0.0
7804,79.0,0.0,120.0,0.0,0.0
7805,48.0,240.0,60.0,0.0,0.0
7806,63.0,120.0,600.0,0.0,0.0
7807,75.0,120.0,120.0,0.0,0.0
7808,77.0,120.0,120.0,0.0,0.0
7809,79.0,120.0,120.0,0.0,0.0
7810,80.0,0.0,120.0,0.0,0.0
7811,82.0,120.0,120.0,0.0,0.0
7812,61.0,0.0,120.0,0.0,0.0
7813,60.0,120.0,120.0,0.0,0.0
7814,84.0,0.0,120.0,0.0,0.0
7815,85.0,0.0,120.0,0.0,0.0
7816,58.0,120.0,120.0,0.0,0.0
7817,87.0,120.0,120.0,0.0,0.0
7818,57.0,0.0,240.0,0.0,0.0
7819,85.0,120.0,120.0,0.0,0.0
7820,84.0,120.0,120.0,0.0,0.0
7821,82.0,120.0,120.0,0.0,0.0
7822,81.0,120.0,120.0,0.0,0.0
7823,82.0,120.0,120.0,0.0,0.0
7824,84.0,120.0,120.0,0.0,0.0
7825,81.0,240.0,120.0,0.0,0.0
7826,49.0,0.0,60.0,0.0,0.0
7827,65.0,0.0,480.0,0.0,0.0
7828,69.0,120.0,120.0,0.0,0.0
7829,70.0,120.0,120.0,0.0,0.0
7830,72.0,120.0,120.0,0.0,0.0
7831,63.0,120.0,120.0,0.0,0.0
7832,73.0,0.0,120.0,0.0,0.0
7833,75.0,0.0,120.0,0.0,0.0
7834,61.0,120.0,120.0,0.0,0.0
7835,77.0,120.0,120.0,0.0,0.0
7836,60.0,0.0,120.0,0.0,0.0
7837,58.0,120.0,120.0,0.0,0.0
7838,73.0,120.0,240.0,0.0,0.0
7839,51.0,0.0,60.0,0.0,0.0
7840,67.0,120.0,480.0,0.0,0.0
7841,71.0,120.0,120.0,0.0,0.0
7842,72.0,120.0,120.0,0.0,0.0
7843,73.0,0.0,120.0,0.0,0.0
7844,75.0,120.0,120.0,0.0,0.0
7845,65.0,0.0,120.0,0.0,0.0
7846,63.0,120.0,120.0,0.0,0.0
7847,77.0,0.0,120.0,0.0,0.0
7848,61.0,0.0,120.0,0.0,0.0
7849,79.0,120.0,120.0,0.0,0.0
7850,60.0,0.0,120.0,0.0,0.0
7851,75.0,120.0,240.0,0.0,0.0
7852,53.0,120.0,60.0,0.0,0.0
7853,68.0,0.0,480.0,0.0,0.0
7854,72.0,120.0,120.0,0.0,0.0
7855,73.0,120.0,120.0,0.0,0.0
7856,75.0,120.0,120.0,0.0,0.0
7857,67.0,120.0,120.0,0.0,0.0
7858,77.0,0.0,120.0,0.0,0.0
7859,65.0,120.0,120.0,0.0,0.0
7860,79.0,0.0,120.0,0.0,0.0
7861,63.0,0.0,120.0,0.0,0.0
7862,80.0,120.0,120.0,0.0,0.0
7863,77.0,120.0,240.0,0.0,0.0
7864,61.0,0.0,120.0,0.0,0.0
7865,55.0,120.0,60.0,0.0,0.0
7866,70.0,120.0,480.0,0.0,0.0
7867,74.0,120.0,120.0,0.0,0.0
7868,75.0,120.0,120.0,0.0,0.0
7869,77.0,0.0,120.0,0.0,0.0
7870,68.0,120.0,120.0,0.0,0.0
7871,79.0,0.0,120.0,0.0,0.0
7872,67.0,0.0,120.0,0.0,0.0
7873,80.0,120.0,120.0,0.0,0.0
7874,82.0,120.0,120.0,0.0,0.0
7875,65.0,0.0,120.0,0.0,0.0
7876,79.0,120.0,240.0,0.0,0.0
7877,63.0,120.0,120.0,0.0,0.0
7878,56.0,0.0,60.0,0.0,0.0
7879,72.0,120.0,480.0,0.0,0.0
7880,76.0,120.0,120.0,0.0,0.0
7881,77.0,120.0,120.0,0.0,0.0
7882,79.0,0.0,120.0,0.0,0.0
7883,80.0,120.0,120.0,0.0,0.0
7884,70.0,0.0,120.0,0.0,0.0
7885,68.0,120.0,120.0,0.0,0.0
7886,82.0,0.0,120.0,0.0,0.0
7887,84.0,0.0,120.0,0.0,0.0
7888,67.0,120.0,120.0,0.0,0.0
7889,80.0,120.0,240.0,0.0,0.0
7890,65.0,0.0,120.0,0.0,0.0
7891,58.0,120.0,60.0,0.0,0.0
7892,73.0,120.0,480.0,0.0,0.0
7893,78.0,120.0,120.0,0.0,0.0
7894,79.0,120.0,120.0,0.0,0.0
7895,80.0,0.0,120.0,0.0,0.0
7896,82.0,120.0,120.0,0.0,0.0
7897,72.0,0.0,120.0,0.0,0.0
7898,84.0,120.0,120.0,0.0,0.0
7899,70.0,0.0,120.0,0.0,0.0
7900,85.0,0.0,120.0,0.0,0.0
7901,68.0,120.0,120.0,0.0,0.0
7902,82.0,80.0,120.0,0.0,0.0
7903,67.0,0.0,120.0,0.0,0.0
7904,60.0,80.0,90.0,0.0,0.0
7905,68.0,80.0,90.0,0.0,0.0
7906,72.0,80.0,90.0,0.0,0.0
7907,75.0,80.0,90.0,0.0,0.0
7908,80.0,80.0,90.0,0.0,0.0
7909,87.0,80.0,90.0,0.0,0.0
7910,60.0,80.0,90.0,0.0,0.0
7911,68.0,80.0,90.0,0.0,0.0
7912,72.0,80.0,90.0,0.0,0.0
7913,75.0,80.0,90.0,0.0,0.0
7914,80.0,80.0,90.0,0.0,0.0
7915,87.0,80.0,90.0,0.0,0.0
7916,60.0,80.0,90.0,0.0,0.0
7917,68.0,80.0,90.0,0.0,0.0
7918,72.0,80.0,90.0,0.0,0.0
7919,76.0,80.0,90.0,0.0,0.0
7920,80.0,80.0,90.0,0.0,0.0
7921,88.0,80.0,90.0,0.0,0.0
7922,60.0,80.0,90.0,0.0,0.0
7923,68.0,80.0,90.0,0.0,0.0
7924,72.0,80.0,90.0,0.0,0.0
7925,76.0,80.0,90.0,0.0,0.0
7926,80.0,80.0,90.0,0.0,0.0
7927,88.0,120.0,90.0,0.0,0.0
7928,61.0,0.0,480.0,0.0,0.0
7929,73.0,120.0,480.0,0.0,0.0
7930,68.0,0.0,480.0,0.0,0.0
7931,77.0,120.0,120.0,0.0,0.0
7932,89.0,120.0,120.0,0.0,0.0
7933,87.0,120.0,120.0,0.0,0.0
7934,85.0,0.0,120.0,0.0,0.0
7935,84.0,120.0,120.0,0.0,0.0
7936,82.0,120.0,120.0,0.0,0.0
7937,80.0,120.0,120.0,0.0,0.0
7938,79.0,120.0,120.0,0.0,0.0
7939,77.0,120.0,120.0,0.0,0.0
7940,75.0,120.0,120.0,0.0,0.0
7941,73.0,120.0,120.0,0.0,0.0
7942,72.0,120.0,120.0,0.0,0.0
7943,70.0,120.0,120.0,0.0,0.0
7944,68.0,120.0,120.0,0.0,0.0
7945,67.0,120.0,120.0,0.0,0.0
7946,65.0,120.0,120.0,0.0,0.0
7947,64.0,120.0,120.0,0.0,0.0
7948,65.0,120.0,120.0,0.0,0.0
7949,63.0,120.0,120.0,0.0,0.0
7950,61.0,120.0,120.0,0.0,0.0
7951,60.0,120.0,120.0,0.0,0.0
7952,25.0,0.0,600.0,0.0,0.0
7953,58.0,120.0,120.0,0.0,0.0
7954,56.0,120.0,120.0,0.0,0.0
7955,55.0,120.0,120.0,0.0,0.0
7956,53.0,120.0,120.0,0.0,0.0
7957,51.0,0.0,120.0,0.0,0.0
7958,27.0,120.0,120.0,0.0,0.0
7959,49.0,0.0,120.0,0.0,0.0
7960,29.0,120.0,120.0,0.0,0.0
7961,48.0,0.0,120.0,0.0,0.0
7962,31.0,120.0,120.0,0.0,0.0
7963,46.0,120.0,120.0,0.0,0.0
7964,32.0,0.0,120.0,0.0,0.0
7965,34.0,0.0,120.0,0.0,0.0
7966,44.0,120.0,120.0,0.0,0.0
7967,36.0,0.0,120.0,0.0,0.0
7968,43.0,120.0,120.0,0.0,0.0
7969,37.0,0.0,120.0,0.0,0.0
7970,41.0,120.0,120.0,0.0,0.0
7971,39.0,120.0,120.0,0.0,0.0
7972,36.0,0.0,480.0,0.0,0.0
7973,32.0,120.0,480.0,0.0,0.0
7974,27.0,0.0,480.0,0.0,0.0
7975,44.0,120.0,120.0,0.0,0.0
7976,43.0,120.0,120.0,0.0,0.0
7977,46.0,0.0,120.0,0.0,0.0
7978,44.0,120.0,120.0,0.0,0.0
7979,48.0,120.0,120.0,0.0,0.0
7980,47.0,120.0,120.0,0.0,0.0
7981,49.0,120.0,120.0,0.0,0.0
7982,48.0,120.0,120.0,0.0,0.0
7983,51.0,120.0,120.0,0.0,0.0
7984,50.0,120.0,120.0,0.0,0.0
7985,53.0,120.0,120.0,0.0,0.0
7986,51.0,120.0,120.0,0.0,0.0
7987,56.0,120.0,120.0,0.0,0.0
7988,55.0,120.0,120.0,0.0,0.0
7989,58.0,120.0,120.0,0.0,0.0
7990,56.0,120.0,120.0,0.0,0.0
7991,60.0,120.0,120.0,0.0,0.0
7992,59.0,120.0,120.0,0.0,0.0
7993,61.0,120.0,120.0,0.0,0.0
7994,60.0,120.0,120.0,0.0,0.0
7995,63.0,120.0,120.0,0.0,0.0
7996,62.0,120.0,120.0,0.0,0.0
7997,65.0,120.0,120.0,0.0,0.0
7998,63.0,120.0,120.0,0.0,0.0
7999,68.0,120.0,120.0,0.0,0.0
8000,67.0,120.0,120.0,0.0,0.0
8001,70.0,120.0,120.0,0.0,0.0
8002,68.0,120.0,120.0,0.0,0.0
8003,72.0,120.0,120.0,0.0,0.0
8004,71.0,120.0,120.0,0.0,0.0
8005,73.0,120.0,120.0,0.0,0.0
8006,72.0,120.0,120.0,0.0,0.0
8007,75.0,120.0,120.0,0.0,0.0
8008,74.0,120.0,120.0,0.0,0.0
8009,77.0,60.0,120.0,0.0,0.0
8010,75.0,180.0,60.0,0.0,0.0
8011,72.0,120.0,120.0,0.0,0.0
8012,80.0,0.0,120.0,0.0,0.0
8013,79.0,0.0,120.0,0.0,0.0
8014,71.0,120.0,120.0,0.0,0.0
8015,80.0,60.0,120.0,0.0,0.0
8016,72.0,0.0,120.0,0.0,0.0
8017,75.0,180.0,60.0,0.0,0.0
8018,63.0,0.0,60.0,0.0,0.0
8019,68.0,0.0,120.0,0.0,0.0
8020,84.0,120.0,120.0,0.0,0.0
8021,67.0,0.0,120.0,0.0,0.0
8022,83.0,120.0,120.0,0.0,0.0
8023,68.0,60.0,120.0,0.0,0.0
8024,84.0,0.0,120.0,0.0,0.0
8025,75.0,0.0,60.0,0.0,0.0
8026,63.0,180.0,60.0,0.0,0.0
8027,80.0,0.0,120.0,0.0,0.0
8028,72.0,120.0,120.0,0.0,0.0
8029,79.0,0.0,120.0,0.0,0.0
8030,71.0,120.0,120.0,0.0,0.0
8031,72.0,60.0,120.0,0.0,0.0
8032,80.0,0.0,120.0,0.0,0.0
8033,75.0,0.0,60.0,0.0,0.0
8034,63.0,180.0,60.0,0.0,0.0
8035,68.0,0.0,120.0,0.0,0.0
8036,84.0,120.0,120.0,0.0,0.0
8037,67.0,0.0,120.0,0.0,0.0
8038,83.0,120.0,120.0,0.0,0.0
8039,84.0,60.0,120.0,0.0,0.0
8040,68.0,0.0,120.0,0.0,0.0
8041,63.0,0.0,60.0,0.0,0.0
8042,75.0,180.0,60.0,0.0,0.0
8043,72.0,0.0,120.0,0.0,0.0
8044,80.0,120.0,120.0,0.0,0.0
8045,71.0,0.0,120.0,0.0,0.0
8046,79.0,120.0,120.0,0.0,0.0
8047,80.0,60.0,120.0,0.0,0.0
8048,72.0,0.0,120.0,0.0,0.0
8049,75.0,180.0,60.0,0.0,0.0
8050,63.0,0.0,60.0,0.0,0.0
8051,68.0,120.0,120.0,0.0,0.0
8052,84.0,0.0,120.0,0.0,0.0
8053,67.0,0.0,120.0,0.0,0.0
8054,83.0,120.0,120.0,0.0,0.0
8055,68.0,0.0,120.0,0.0,0.0
8056,84.0,60.0,120.0,0.0,0.0
8057,63.0,180.0,60.0,0.0,0.0
8058,75.0,0.0,60.0,0.0,0.0
8059,72.0,0.0,120.0,0.0,0.0
8060,80.0,120.0,120.0,0.0,0.0
8061,71.0,120.0,120.0,0.0,0.0
8062,79.0,0.0,120.0,0.0,0.0
8063,72.0,0.0,120.0,0.0,0.0
8064,80.0,1200.0,120.0,0.0,0.0
8065,63.0,0.0,1920.0,0.0,0.0
8066,79.0,60.0,1200.0,0.0,0.0
8067,85.0,0.0,15.0,0.0,0.0
8068,84.0,60.0,60.0,0.0,0.0
8069,82.0,60.0,60.0,0.0,0.0
8070,80.0,60.0,60.0,0.0,0.0
8071,79.0,60.0,60.0,0.0,0.0
8072,77.0,60.0,60.0,0.0,0.0
8073,75.0,60.0,60.0,0.0,0.0
8074,73.0,60.0,60.0,0.0,0.0
8075,72.0,60.0,60.0,0.0,0.0
8076,70.0,60.0,60.0,0.0,0.0
8077,68.0,60.0,60.0,0.0,0.0
8078,67.0,0.0,60.0,0.0,0.0
8079,58.0,960.0,1920.0,0.0,0.0
8080,73.0,1440.0,15.0,0.0,0.0
8081,51.0,0.0,1920.0,0.0,0.0
8082,67.0,60.0,1440.0,0.0,0.0
8083,73.0,60.0,60.0,0.0,0.0
8084,72.0,60.0,60.0,0.0,0.0
8085,70.0,60.0,60.0,0.0,0.0
8086,68.0,60.0,60.0,0.0,0.0
8087,67.0,60.0,60.0,0.0,0.0
8088,65.0,60.0,60.0,0.0,0.0
8089,63.0,60.0,60.0,0.0,0.0
8090,61.0,0.0,60.0,0.0,0.0
8091,44.0,480.0,960.0,0.0,0.0
8092,32.0,0.0,960.0,0.0,0.0
8093,51.0,0.0,960.0,0.0,0.0
8094,56.0,0.0,960.0,0.0,0.0
8095,60.0,0.0,960.0,0.0,0.0
8096,40.0,0.0,480.0,0.0,0.0
8097,49.0,480.0,480.0,0.0,0.0
8098,55.0,0.0,480.0,0.0,0.0
8099,58.0,0.0,480.0,0.0,0.0
8100,28.0,0.0,480.0,0.0,0.0
8101,29.0,0.0,480.0,0.0,0.0
8102,41.0,960.0,480.0,0.0,0.0
8103,48.0,0.0,480.0,0.0,0.0
8104,53.0,0.0,480.0,0.0,0.0
8105,56.0,0.0,480.0,0.0,0.0
8106,55.0,0.0,960.0,0.0,0.0
8107,36.0,960.0,960.0,0.0,0.0
8108,46.0,0.0,960.0,0.0,0.0
8109,52.0,0.0,960.0,0.0,0.0
8110,53.0,0.0,960.0,0.0,0.0
8111,44.0,0.0,960.0,0.0,0.0
8112,37.0,960.0,960.0,0.0,0.0
8113,49.0,0.0,960.0,0.0,0.0
8114,55.0,0.0,960.0,0.0,0.0
8115,51.0,0.0,960.0,0.0,0.0
8116,61.0,480.0,960.0,0.0,0.0
8117,67.0,0.0,960.0,0.0,0.0
8118,46.0,0.0,960.0,0.0,0.0
8119,63.0,0.0,960.0,0.0,0.0
8120,68.0,480.0,480.0,0.0,0.0
8121,48.0,0.0,480.0,0.0,0.0
8122,51.0,0.0,480.0,0.0,0.0
8123,63.0,0.0,480.0,0.0,0.0
8124,56.0,0.0,480.0,0.0,0.0
8125,58.0,0.0,480.0,0.0,0.0
8126,49.0,0.0,480.0,0.0,0.0
8127,56.0,0.0,480.0,0.0,0.0
8128,70.0,0.0,480.0,0.0,0.0
8129,65.0,960.0,480.0,0.0,0.0
8130,53.0,0.0,480.0,0.0,0.0
8131,68.0,0.0,480.0,0.0,0.0
8132,51.0,960.0,1920.0,0.0,0.0
8133,56.0,0.0,960.0,0.0,0.0
8134,60.0,480.0,960.0,0.0,0.0
8135,63.0,240.0,1440.0,0.0,0.0
8136,68.0,0.0,960.0,0.0,0.0
8137,72.0,0.0,960.0,0.0,0.0
8138,70.0,0.0,960.0,0.0,0.0
8139,55.0,0.0,960.0,0.0,0.0
8140,67.0,0.0,960.0,0.0,0.0
8141,58.0,0.0,960.0,0.0,0.0
8142,75.0,240.0,240.0,0.0,0.0
8143,73.0,0.0,240.0,0.0,0.0
8144,72.0,0.0,960.0,0.0,0.0
8145,68.0,480.0,960.0,0.0,0.0
8146,80.0,0.0,480.0,0.0,0.0
8147,84.0,0.0,480.0,0.0,0.0
8148,64.0,0.0,480.0,0.0,0.0
8149,70.0,480.0,480.0,0.0,0.0
8150,73.0,0.0,480.0,0.0,0.0
8151,79.0,0.0,480.0,0.0,0.0
8152,82.0,0.0,480.0,0.0,0.0
8153,67.0,0.0,480.0,0.0,0.0
8154,80.0,0.0,480.0,0.0,0.0
8155,68.0,0.0,480.0,0.0,0.0
8156,77.0,0.0,480.0,0.0,0.0
8157,72.0,0.0,480.0,0.0,0.0
8158,65.0,960.0,480.0,0.0,0.0
8159,70.0,0.0,960.0,0.0,0.0
8160,76.0,0.0,960.0,0.0,0.0
8161,79.0,0.0,960.0,0.0,0.0
8162,67.0,960.0,960.0,0.0,0.0
8163,64.0,0.0,960.0,0.0,0.0
8164,60.0,0.0,960.0,0.0,0.0
8165,61.0,0.0,960.0,0.0,0.0
8166,77.0,480.0,960.0,0.0,0.0
8167,68.0,0.0,960.0,0.0,0.0
8168,65.0,0.0,960.0,0.0,0.0
8169,60.0,0.0,480.0,0.0,0.0
8170,63.0,480.0,480.0,0.0,0.0
8171,68.0,0.0,480.0,0.0,0.0
8172,72.0,0.0,480.0,0.0,0.0
8173,75.0,480.0,960.0,0.0,0.0
8174,70.0,0.0,1440.0,0.0,0.0
8175,61.0,0.0,1440.0,0.0,0.0
8176,65.0,480.0,1440.0,0.0,0.0
8177,73.0,0.0,1440.0,0.0,0.0
8178,77.0,480.0,480.0,0.0,0.0
8179,79.0,0.0,480.0,0.0,0.0
8180,63.0,1920.0,960.0,0.0,0.0
8181,48.0,0.0,480.0,0.0,0.0
8182,51.0,0.0,15.0,0.0,0.0
8183,39.0,0.0,3840.0,0.0,0.0
8184,60.0,480.0,480.0,0.0,0.0
8185,56.0,0.0,480.0,0.0,0.0
8186,53.0,0.0,3360.0,0.0,0.0
8187,49.0,0.0,3360.0,0.0,0.0
8188,61.0,0.0,3360.0,0.0,0.0
8189,58.0,0.0,3360.0,0.0,0.0
8190,64.0,960.0,960.0,0.0,0.0
8191,67.0,480.0,960.0,0.0,0.0
8192,51.0,1920.0,960.0,0.0,0.0
8193,27.0,120.0,3840.0,0.0,0.0
8194,36.0,480.0,480.0,0.0,0.0
8195,39.0,0.0,480.0,0.0,0.0
8196,48.0,0.0,480.0,0.0,0.0
8197,44.0,0.0,480.0,0.0,0.0
8198,41.0,0.0,3360.0,0.0,0.0
8199,49.0,0.0,3360.0,0.0,0.0
8200,46.0,0.0,3360.0,0.0,0.0
8201,37.0,0.0,3360.0,0.0,0.0
8202,53.0,960.0,960.0,0.0,0.0
8203,55.0,0.0,960.0,0.0,0.0
8204,48.0,120.0,120.0,0.0,0.0
8205,56.0,120.0,240.0,0.0,0.0
8206,32.0,0.0,120.0,0.0,0.0
8207,44.0,0.0,120.0,0.0,0.0
8208,56.0,240.0,120.0,0.0,0.0
8209,60.0,0.0,120.0,0.0,0.0
8210,51.0,0.0,120.0,0.0,0.0
8211,44.0,0.0,120.0,0.0,0.0
8212,51.0,0.0,120.0,0.0,0.0
8213,56.0,0.0,120.0,0.0,0.0
8214,60.0,0.0,120.0,0.0,0.0
8215,44.0,240.0,120.0,0.0,0.0
8216,60.0,0.0,120.0,0.0,0.0
8217,56.0,0.0,120.0,0.0,0.0
8218,51.0,0.0,120.0,0.0,0.0
8219,44.0,240.0,120.0,0.0,0.0
8220,51.0,0.0,120.0,0.0,0.0
8221,44.0,240.0,120.0,0.0,0.0
8222,60.0,0.0,120.0,0.0,0.0
8223,56.0,0.0,120.0,0.0,0.0
8224,51.0,0.0,120.0,0.0,0.0
8225,44.0,0.0,120.0,0.0,0.0
8226,60.0,240.0,120.0,0.0,0.0
8227,56.0,0.0,120.0,0.0,0.0
8228,44.0,0.0,120.0,0.0,0.0
8229,51.0,0.0,120.0,0.0,0.0
8230,60.0,240.0,120.0,0.0,0.0
8231,56.0,0.0,120.0,0.0,0.0
8232,56.0,0.0,120.0,0.0,0.0
8233,51.0,0.0,120.0,0.0,0.0
8234,44.0,240.0,120.0,0.0,0.0
8235,60.0,0.0,120.0,0.0,0.0
8236,51.0,0.0,120.0,0.0,0.0
8237,44.0,240.0,120.0,0.0,0.0
8238,60.0,0.0,120.0,0.0,0.0
8239,56.0,0.0,120.0,0.0,0.0
8240,60.0,240.0,120.0,0.0,0.0
8241,56.0,0.0,120.0,0.0,0.0
8242,44.0,0.0,120.0,0.0,0.0
8243,51.0,0.0,120.0,0.0,0.0
8244,56.0,0.0,120.0,0.0,0.0
8245,51.0,240.0,120.0,0.0,0.0
8246,60.0,0.0,120.0,0.0,0.0
8247,44.0,0.0,120.0,0.0,0.0
8248,51.0,0.0,120.0,0.0,0.0
8249,44.0,0.0,120.0,0.0,0.0
8250,56.0,240.0,120.0,0.0,0.0
8251,60.0,0.0,120.0,0.0,0.0
8252,56.0,240.0,120.0,0.0,0.0
8253,60.0,0.0,120.0,0.0,0.0
8254,51.0,0.0,120.0,0.0,0.0
8255,44.0,0.0,120.0,0.0,0.0
8256,44.0,0.0,120.0,0.0,0.0
8257,51.0,0.0,120.0,0.0,0.0
8258,56.0,0.0,120.0,0.0,0.0
8259,60.0,240.0,120.0,0.0,0.0
8260,53.0,0.0,120.0,0.0,0.0
8261,58.0,0.0,120.0,0.0,0.0
8262,62.0,240.0,120.0,0.0,0.0
8263,44.0,0.0,120.0,0.0,0.0
8264,62.0,0.0,120.0,0.0,0.0
8265,58.0,300.0,120.0,0.0,0.0
8266,53.0,0.0,120.0,0.0,0.0
8267,44.0,0.0,120.0,0.0,0.0
8268,63.0,120.0,240.0,0.0,0.0
8269,43.0,0.0,180.0,0.0,0.0
8270,46.0,60.0,180.0,0.0,0.0
8271,51.0,0.0,180.0,0.0,0.0
8272,46.0,0.0,180.0,0.0,0.0
8273,51.0,60.0,180.0,0.0,0.0
8274,67.0,60.0,120.0,0.0,0.0
8275,43.0,0.0,180.0,0.0,0.0
8276,65.0,120.0,120.0,0.0,0.0
8277,43.0,240.0,180.0,0.0,0.0
8278,51.0,0.0,180.0,0.0,0.0
8279,63.0,60.0,120.0,0.0,0.0
8280,46.0,0.0,180.0,0.0,0.0
8281,51.0,0.0,180.0,0.0,0.0
8282,46.0,0.0,180.0,0.0,0.0
8283,43.0,240.0,180.0,0.0,0.0
8284,44.0,0.0,180.0,0.0,0.0
8285,51.0,60.0,180.0,0.0,0.0
8286,42.0,0.0,180.0,0.0,0.0
8287,68.0,120.0,240.0,0.0,0.0
8288,42.0,0.0,180.0,0.0,0.0
8289,51.0,60.0,180.0,0.0,0.0
8290,44.0,0.0,180.0,0.0,0.0
8291,72.0,60.0,120.0,0.0,0.0
8292,70.0,120.0,120.0,0.0,0.0
8293,44.0,0.0,180.0,0.0,0.0
8294,68.0,60.0,120.0,0.0,0.0
8295,51.0,0.0,180.0,0.0,0.0
8296,42.0,240.0,180.0,0.0,0.0
8297,44.0,240.0,180.0,0.0,0.0
8298,51.0,0.0,180.0,0.0,0.0
8299,42.0,0.0,180.0,0.0,0.0
8300,49.0,60.0,180.0,0.0,0.0
8301,41.0,0.0,180.0,0.0,0.0
8302,73.0,120.0,240.0,0.0,0.0
8303,44.0,0.0,180.0,0.0,0.0
8304,77.0,60.0,120.0,0.0,0.0
8305,41.0,0.0,180.0,0.0,0.0
8306,44.0,60.0,180.0,0.0,0.0
8307,49.0,0.0,180.0,0.0,0.0
8308,75.0,120.0,120.0,0.0,0.0
8309,49.0,240.0,180.0,0.0,0.0
8310,73.0,60.0,120.0,0.0,0.0
8311,41.0,0.0,180.0,0.0,0.0
8312,44.0,0.0,180.0,0.0,0.0
8313,44.0,180.0,180.0,0.0,0.0
8314,41.0,0.0,180.0,0.0,0.0
8315,49.0,0.0,180.0,0.0,0.0
8316,85.0,60.0,120.0,0.0,0.0
8317,40.0,60.0,180.0,0.0,0.0
8318,49.0,0.0,180.0,0.0,0.0
8319,44.0,0.0,180.0,0.0,0.0
8320,84.0,120.0,120.0,0.0,0.0
8321,28.0,0.0,180.0,0.0,0.0
8322,85.0,60.0,120.0,0.0,0.0
8323,40.0,60.0,180.0,0.0,0.0
8324,84.0,120.0,120.0,0.0,0.0
8325,28.0,60.0,180.0,0.0,0.0
8326,40.0,0.0,180.0,0.0,0.0
8327,85.0,60.0,120.0,0.0,0.0
8328,84.0,120.0,120.0,0.0,0.0
8329,28.0,0.0,180.0,0.0,0.0
8330,85.0,60.0,120.0,0.0,0.0
8331,40.0,60.0,180.0,0.0,0.0
8332,84.0,120.0,120.0,0.0,0.0
8333,27.0,0.0,120.0,0.0,0.0
8334,85.0,0.0,120.0,0.0,0.0
8335,39.0,120.0,120.0,0.0,0.0
8336,84.0,0.0,120.0,0.0,0.0
8337,29.0,120.0,120.0,0.0,0.0
8338,82.0,120.0,120.0,0.0,0.0
8339,31.0,0.0,120.0,0.0,0.0
8340,32.0,0.0,120.0,0.0,0.0
8341,80.0,120.0,120.0,0.0,0.0
8342,79.0,0.0,120.0,0.0,0.0
8343,34.0,120.0,120.0,0.0,0.0
8344,77.0,0.0,120.0,0.0,0.0
8345,36.0,120.0,120.0,0.0,0.0
8346,37.0,120.0,120.0,0.0,0.0
8347,75.0,0.0,120.0,0.0,0.0
8348,39.0,120.0,120.0,0.0,0.0
8349,73.0,0.0,120.0,0.0,0.0
8350,41.0,0.0,120.0,0.0,0.0
8351,72.0,120.0,120.0,0.0,0.0
8352,43.0,0.0,120.0,0.0,0.0
8353,70.0,120.0,120.0,0.0,0.0
8354,68.0,0.0,120.0,0.0,0.0
8355,44.0,120.0,120.0,0.0,0.0
8356,46.0,0.0,120.0,0.0,0.0
8357,67.0,120.0,120.0,0.0,0.0
8358,48.0,120.0,120.0,0.0,0.0
8359,65.0,0.0,120.0,0.0,0.0
8360,49.0,0.0,120.0,0.0,0.0
8361,63.0,120.0,120.0,0.0,0.0
8362,51.0,0.0,120.0,0.0,0.0
8363,61.0,120.0,120.0,0.0,0.0
8364,60.0,240.0,120.0,0.0,0.0
8365,53.0,0.0,120.0,0.0,0.0
8366,49.0,0.0,240.0,0.0,0.0
8367,37.0,480.0,240.0,0.0,0.0
8368,58.0,0.0,240.0,0.0,0.0
8369,67.0,0.0,240.0,0.0,0.0
8370,70.0,0.0,240.0,0.0,0.0
8371,75.0,0.0,240.0,0.0,0.0
8372,39.0,0.0,240.0,0.0,0.0
8373,43.0,0.0,240.0,0.0,0.0
8374,51.0,0.0,240.0,0.0,0.0
8375,63.0,1440.0,240.0,0.0,0.0
8376,46.0,0.0,240.0,0.0,0.0
8377,48.0,0.0,240.0,0.0,0.0
8378,44.0,0.0,240.0,0.0,0.0
8379,51.0,960.0,240.0,0.0,0.0
8380,72.0,0.0,240.0,0.0,0.0
8381,68.0,0.0,240.0,0.0,0.0
8382,63.0,0.0,240.0,0.0,0.0
8383,60.0,0.0,240.0,0.0,0.0
8384,56.0,0.0,240.0,0.0,0.0
8385,70.0,0.0,240.0,0.0,0.0
8386,51.0,0.0,240.0,0.0,0.0
8387,46.0,0.0,240.0,0.0,0.0
8388,39.0,0.0,240.0,0.0,0.0
8389,43.0,0.0,240.0,0.0,0.0
8390,75.0,960.0,240.0,0.0,0.0
8391,63.0,0.0,240.0,0.0,0.0
8392,67.0,0.0,240.0,0.0,0.0
8393,32.0,0.0,240.0,0.0,0.0
8394,44.0,0.0,240.0,0.0,0.0
8395,68.0,0.0,240.0,0.0,0.0
8396,72.0,3584.0,240.0,0.0,0.0
8397,75.0,0.0,240.0,0.0,0.0
8398,80.0,0.0,240.0,0.0,0.0
8399,36.0,0.0,240.0,0.0,0.0
8400,39.0,0.0,240.0,0.0,0.0
