,note,step,duration,channel,velocity
0,41.0,0.0,60.0,2.0,0.0
1,57.0,0.0,60.0,1.0,0.0
2,60.0,0.0,60.0,1.0,0.0
3,65.0,0.0,120.0,0.0,0.0
4,65.0,0.0,60.0,1.0,0.0
5,53.0,60.0,60.0,2.0,0.0
6,48.0,60.0,60.0,2.0,0.0
7,57.0,0.0,60.0,1.0,0.0
8,65.0,60.0,60.0,1.0,0.0
9,53.0,0.0,60.0,2.0,0.0
10,41.0,0.0,60.0,2.0,0.0
11,60.0,0.0,60.0,1.0,0.0
12,65.0,0.0,60.0,0.0,0.0
13,65.0,60.0,60.0,0.0,0.0
14,48.0,0.0,60.0,2.0,0.0
15,65.0,0.0,60.0,1.0,0.0
16,60.0,0.0,60.0,1.0,0.0
17,57.0,0.0,60.0,1.0,0.0
18,53.0,0.0,60.0,2.0,0.0
19,41.0,0.0,60.0,2.0,0.0
20,65.0,15.0,60.0,0.0,0.0
21,48.0,0.0,60.0,2.0,0.0
22,67.0,15.0,15.0,0.0,0.0
23,65.0,15.0,15.0,0.0,0.0
24,64.0,15.0,15.0,0.0,0.0
25,65.0,60.0,15.0,0.0,0.0
26,65.0,60.0,60.0,1.0,0.0
27,60.0,0.0,60.0,1.0,0.0
28,57.0,0.0,60.0,1.0,0.0
29,53.0,0.0,60.0,2.0,0.0
30,69.0,0.0,60.0,0.0,0.0
31,41.0,0.0,60.0,2.0,0.0
32,65.0,60.0,60.0,0.0,0.0
33,48.0,0.0,60.0,2.0,0.0
34,43.0,0.0,60.0,2.0,0.0
35,55.0,60.0,60.0,2.0,0.0
36,70.0,0.0,180.0,0.0,0.0
37,58.0,0.0,60.0,1.0,0.0
38,64.0,0.0,60.0,1.0,0.0
39,60.0,0.0,60.0,1.0,0.0
40,48.0,60.0,60.0,2.0,0.0
41,55.0,0.0,60.0,2.0,0.0
42,43.0,0.0,60.0,2.0,0.0
43,58.0,0.0,60.0,1.0,0.0
44,60.0,0.0,60.0,1.0,0.0
45,64.0,60.0,60.0,1.0,0.0
46,48.0,60.0,60.0,2.0,0.0
47,67.0,0.0,60.0,0.0,0.0
48,60.0,0.0,60.0,1.0,0.0
49,64.0,0.0,60.0,1.0,0.0
50,64.0,0.0,120.0,0.0,0.0
51,43.0,60.0,60.0,2.0,0.0
52,55.0,0.0,60.0,2.0,0.0
53,58.0,0.0,60.0,1.0,0.0
54,48.0,60.0,60.0,2.0,0.0
55,43.0,0.0,60.0,2.0,0.0
56,55.0,60.0,60.0,2.0,0.0
57,58.0,0.0,60.0,1.0,0.0
58,60.0,0.0,60.0,1.0,0.0
59,64.0,0.0,60.0,1.0,0.0
60,48.0,60.0,60.0,2.0,0.0
61,53.0,0.0,60.0,2.0,0.0
62,65.0,0.0,60.0,0.0,0.0
63,57.0,0.0,60.0,1.0,0.0
64,60.0,0.0,60.0,1.0,0.0
65,65.0,60.0,60.0,1.0,0.0
66,41.0,0.0,60.0,2.0,0.0
67,48.0,0.0,60.0,2.0,0.0
68,72.0,60.0,60.0,0.0,0.0
69,60.0,0.0,60.0,1.0,0.0
70,53.0,0.0,60.0,2.0,0.0
71,41.0,60.0,60.0,2.0,0.0
72,71.0,0.0,60.0,0.0,0.0
73,65.0,0.0,60.0,1.0,0.0
74,57.0,0.0,60.0,1.0,0.0
75,72.0,60.0,60.0,0.0,0.0
76,48.0,0.0,60.0,2.0,0.0
77,65.0,60.0,60.0,1.0,0.0
78,60.0,0.0,60.0,1.0,0.0
79,70.0,0.0,60.0,0.0,0.0
80,41.0,0.0,60.0,2.0,0.0
81,57.0,0.0,60.0,1.0,0.0
82,53.0,0.0,60.0,2.0,0.0
83,48.0,0.0,60.0,2.0,0.0
84,69.0,60.0,60.0,0.0,0.0
85,53.0,60.0,60.0,2.0,0.0
86,41.0,0.0,60.0,2.0,0.0
87,65.0,0.0,60.0,1.0,0.0
88,60.0,0.0,60.0,1.0,0.0
89,57.0,0.0,60.0,1.0,0.0
90,67.0,0.0,60.0,0.0,0.0
91,65.0,60.0,60.0,0.0,0.0
92,48.0,0.0,60.0,2.0,0.0
93,64.0,0.0,60.0,1.0,0.0
94,60.0,0.0,60.0,1.0,0.0
95,55.0,0.0,60.0,2.0,0.0
96,43.0,0.0,60.0,2.0,0.0
97,58.0,0.0,60.0,1.0,0.0
98,70.0,60.0,60.0,0.0,0.0
99,67.0,0.0,60.0,0.0,0.0
100,48.0,60.0,60.0,2.0,0.0
101,64.0,0.0,120.0,0.0,0.0
102,55.0,0.0,60.0,2.0,0.0
103,43.0,0.0,60.0,2.0,0.0
104,64.0,60.0,60.0,1.0,0.0
105,60.0,0.0,60.0,1.0,0.0
106,58.0,0.0,60.0,1.0,0.0
107,48.0,60.0,60.0,2.0,0.0
108,64.0,0.0,60.0,1.0,0.0
109,58.0,0.0,60.0,1.0,0.0
110,60.0,0.0,60.0,1.0,0.0
111,55.0,0.0,60.0,2.0,0.0
112,43.0,60.0,60.0,2.0,0.0
113,48.0,60.0,60.0,2.0,0.0
114,58.0,0.0,60.0,1.0,0.0
115,55.0,0.0,60.0,2.0,0.0
116,43.0,60.0,60.0,2.0,0.0
117,64.0,0.0,60.0,1.0,0.0
118,60.0,0.0,60.0,1.0,0.0
119,48.0,60.0,60.0,2.0,0.0
120,57.0,60.0,60.0,1.0,0.0
121,53.0,0.0,60.0,2.0,0.0
122,60.0,0.0,60.0,1.0,0.0
123,65.0,0.0,60.0,1.0,0.0
124,41.0,0.0,60.0,2.0,0.0
125,48.0,0.0,60.0,2.0,0.0
126,65.0,60.0,60.0,1.0,0.0
127,60.0,0.0,60.0,1.0,0.0
128,57.0,0.0,60.0,1.0,0.0
129,65.0,60.0,15.0,0.0,0.0
130,53.0,0.0,60.0,2.0,0.0
131,41.0,0.0,60.0,2.0,0.0
132,67.0,0.0,60.0,0.0,0.0
133,48.0,60.0,60.0,2.0,0.0
134,69.0,60.0,120.0,0.0,0.0
135,41.0,60.0,60.0,2.0,0.0
136,53.0,0.0,60.0,2.0,0.0
137,60.0,0.0,60.0,1.0,0.0
138,65.0,0.0,60.0,1.0,0.0
139,69.0,0.0,60.0,1.0,0.0
140,48.0,0.0,60.0,2.0,0.0
141,41.0,0.0,60.0,2.0,0.0
142,53.0,60.0,60.0,2.0,0.0
143,67.0,0.0,60.0,1.0,0.0
144,71.0,0.0,60.0,1.0,0.0
145,62.0,0.0,60.0,1.0,0.0
146,71.0,60.0,120.0,0.0,0.0
147,48.0,0.0,60.0,2.0,0.0
148,67.0,60.0,60.0,1.0,0.0
149,72.0,0.0,60.0,1.0,0.0
150,60.0,0.0,60.0,1.0,0.0
151,72.0,0.0,300.0,0.0,0.0
152,52.0,0.0,60.0,2.0,0.0
153,40.0,0.0,60.0,2.0,0.0
154,48.0,60.0,60.0,2.0,0.0
155,52.0,60.0,60.0,2.0,0.0
156,72.0,0.0,60.0,1.0,0.0
157,67.0,0.0,60.0,1.0,0.0
158,40.0,0.0,60.0,2.0,0.0
159,60.0,0.0,60.0,1.0,0.0
160,48.0,60.0,60.0,2.0,0.0
161,72.0,0.0,60.0,1.0,0.0
162,60.0,60.0,60.0,1.0,0.0
163,52.0,0.0,60.0,2.0,0.0
164,40.0,0.0,60.0,2.0,0.0
165,67.0,0.0,60.0,1.0,0.0
166,71.0,0.0,60.0,0.0,0.0
167,48.0,60.0,60.0,2.0,0.0
168,40.0,0.0,60.0,2.0,0.0
169,52.0,0.0,60.0,2.0,0.0
170,60.0,60.0,60.0,1.0,0.0
171,67.0,0.0,60.0,1.0,0.0
172,69.0,0.0,60.0,0.0,0.0
173,48.0,0.0,60.0,2.0,0.0
174,67.0,60.0,60.0,0.0,0.0
175,60.0,0.0,60.0,1.0,0.0
176,69.0,0.0,60.0,1.0,0.0
177,41.0,60.0,60.0,2.0,0.0
178,69.0,30.0,210.0,0.0,0.0
179,53.0,0.0,60.0,2.0,0.0
180,48.0,60.0,60.0,2.0,0.0
181,41.0,0.0,60.0,2.0,0.0
182,53.0,0.0,60.0,2.0,0.0
183,60.0,30.0,60.0,1.0,0.0
184,69.0,0.0,60.0,1.0,0.0
185,50.0,60.0,60.0,2.0,0.0
186,72.0,0.0,15.0,0.0,0.0
187,71.0,0.0,60.0,0.0,0.0
188,43.0,60.0,60.0,2.0,0.0
189,55.0,0.0,60.0,2.0,0.0
190,65.0,0.0,60.0,1.0,0.0
191,62.0,0.0,60.0,1.0,0.0
192,71.0,0.0,60.0,1.0,0.0
193,50.0,0.0,60.0,2.0,0.0
194,69.0,60.0,60.0,0.0,0.0
195,62.0,0.0,60.0,1.0,0.0
196,65.0,0.0,60.0,1.0,0.0
197,43.0,0.0,60.0,2.0,0.0
198,55.0,0.0,60.0,2.0,0.0
199,71.0,0.0,60.0,1.0,0.0
200,71.0,60.0,60.0,0.0,0.0
201,50.0,120.0,60.0,2.0,0.0
202,74.0,0.0,60.0,0.0,0.0
203,64.0,0.0,120.0,1.0,0.0
204,72.0,0.0,120.0,1.0,0.0
205,72.0,240.0,120.0,0.0,0.0
206,36.0,0.0,120.0,2.0,0.0
207,48.0,0.0,120.0,2.0,0.0
208,67.0,0.0,240.0,1.0,0.0
209,55.0,120.0,240.0,2.0,0.0
210,52.0,0.0,120.0,2.0,0.0
211,64.0,120.0,120.0,1.0,0.0
212,60.0,60.0,120.0,1.0,0.0
213,48.0,0.0,120.0,2.0,0.0
214,67.0,0.0,120.0,0.0,0.0
215,67.0,60.0,60.0,0.0,0.0
216,65.0,60.0,60.0,0.0,0.0
217,64.0,60.0,60.0,0.0,0.0
218,67.0,60.0,60.0,0.0,0.0
219,65.0,60.0,60.0,0.0,0.0
220,69.0,120.0,15.0,0.0,0.0
221,67.0,120.0,120.0,0.0,0.0
222,48.0,10.0,240.0,2.0,0.0
223,52.0,10.0,240.0,2.0,0.0
224,55.0,10.0,240.0,2.0,0.0
225,58.0,10.0,240.0,2.0,0.0
226,60.0,10.0,240.0,1.0,0.0
227,64.0,10.0,240.0,1.0,0.0
228,67.0,60.0,240.0,1.0,0.0
229,70.0,0.0,210.0,1.0,0.0
230,67.0,120.0,60.0,1.0,0.0
231,55.0,0.0,60.0,2.0,0.0
232,70.0,60.0,120.0,0.0,0.0
233,48.0,0.0,240.0,2.0,0.0
234,52.0,10.0,240.0,2.0,0.0
235,55.0,10.0,240.0,2.0,0.0
236,58.0,10.0,240.0,2.0,0.0
237,60.0,10.0,240.0,1.0,0.0
238,64.0,10.0,240.0,1.0,0.0
239,67.0,10.0,240.0,1.0,0.0
240,70.0,10.0,240.0,1.0,0.0
241,70.0,60.0,60.0,0.0,0.0
242,69.0,10.0,60.0,0.0,0.0
243,67.0,0.0,40.0,0.0,0.0
244,69.0,40.0,40.0,0.0,0.0
245,70.0,40.0,40.0,0.0,0.0
246,69.0,40.0,40.0,0.0,0.0
247,70.0,40.0,40.0,0.0,0.0
248,72.0,30.0,40.0,0.0,0.0
249,72.0,30.0,30.0,0.0,0.0
250,70.0,30.0,30.0,0.0,0.0
251,69.0,30.0,30.0,0.0,0.0
252,70.0,120.0,30.0,0.0,0.0
253,67.0,120.0,120.0,0.0,0.0
254,68.0,0.0,60.0,0.0,0.0
255,48.0,0.0,60.0,2.0,0.0
256,56.0,0.0,60.0,2.0,0.0
257,63.0,0.0,15.0,1.0,0.0
258,68.0,0.0,60.0,0.0,0.0
259,68.0,0.0,15.0,1.0,0.0
260,48.0,0.0,60.0,2.0,0.0
261,51.0,60.0,15.0,2.0,0.0
262,56.0,0.0,60.0,2.0,0.0
263,51.0,0.0,60.0,2.0,0.0
264,70.0,0.0,60.0,0.0,0.0
265,46.0,0.0,60.0,2.0,0.0
266,67.0,0.0,60.0,1.0,0.0
267,70.0,30.0,60.0,1.0,0.0
268,55.0,0.0,60.0,2.0,0.0
269,44.0,30.0,60.0,2.0,0.0
270,56.0,0.0,60.0,2.0,0.0
271,63.0,0.0,15.0,1.0,0.0
272,51.0,0.0,60.0,2.0,0.0
273,68.0,0.0,30.0,1.0,0.0
274,72.0,30.0,30.0,1.0,0.0
275,68.0,30.0,30.0,1.0,0.0
276,63.0,30.0,30.0,1.0,0.0
277,44.0,30.0,60.0,2.0,0.0
278,51.0,0.0,60.0,2.0,0.0
279,56.0,0.0,60.0,2.0,0.0
280,68.0,0.0,30.0,1.0,0.0
281,72.0,30.0,30.0,1.0,0.0
282,68.0,30.0,30.0,1.0,0.0
283,72.0,0.0,15.0,0.0,0.0
284,63.0,30.0,30.0,1.0,0.0
285,51.0,0.0,60.0,2.0,0.0
286,44.0,0.0,60.0,2.0,0.0
287,56.0,0.0,60.0,2.0,0.0
288,66.0,30.0,30.0,1.0,0.0
289,72.0,30.0,30.0,1.0,0.0
290,66.0,30.0,30.0,1.0,0.0
291,56.0,0.0,60.0,2.0,0.0
292,44.0,30.0,60.0,2.0,0.0
293,51.0,0.0,60.0,2.0,0.0
294,63.0,30.0,30.0,1.0,0.0
295,66.0,0.0,30.0,1.0,0.0
296,72.0,30.0,30.0,1.0,0.0
297,66.0,30.0,30.0,1.0,0.0
298,56.0,0.0,60.0,2.0,0.0
299,49.0,0.0,60.0,2.0,0.0
300,61.0,30.0,30.0,1.0,0.0
301,53.0,0.0,60.0,2.0,0.0
302,65.0,30.0,30.0,1.0,0.0
303,73.0,30.0,30.0,1.0,0.0
304,65.0,0.0,30.0,1.0,0.0
305,56.0,0.0,60.0,2.0,0.0
306,53.0,0.0,60.0,2.0,0.0
307,49.0,0.0,60.0,2.0,0.0
308,61.0,30.0,30.0,1.0,0.0
309,73.0,30.0,15.0,0.0,0.0
310,65.0,0.0,30.0,1.0,0.0
311,73.0,30.0,30.0,1.0,0.0
312,73.0,30.0,60.0,0.0,0.0
313,65.0,0.0,30.0,1.0,0.0
314,55.0,0.0,60.0,2.0,0.0
315,51.0,0.0,60.0,2.0,0.0
316,72.0,30.0,60.0,0.0,0.0
317,61.0,30.0,30.0,1.0,0.0
318,67.0,0.0,30.0,1.0,0.0
319,70.0,30.0,60.0,0.0,0.0
320,70.0,30.0,30.0,1.0,0.0
321,67.0,0.0,30.0,1.0,0.0
322,55.0,0.0,60.0,2.0,0.0
323,51.0,0.0,60.0,2.0,0.0
324,61.0,30.0,30.0,1.0,0.0
325,68.0,30.0,60.0,0.0,0.0
326,67.0,0.0,30.0,1.0,0.0
327,67.0,30.0,60.0,0.0,0.0
328,70.0,30.0,30.0,1.0,0.0
329,67.0,0.0,30.0,1.0,0.0
330,60.0,30.0,30.0,1.0,0.0
331,56.0,0.0,60.0,2.0,0.0
332,51.0,0.0,60.0,2.0,0.0
333,44.0,30.0,60.0,2.0,0.0
334,63.0,0.0,30.0,1.0,0.0
335,69.0,30.0,30.0,1.0,0.0
336,63.0,30.0,30.0,1.0,0.0
337,56.0,0.0,60.0,2.0,0.0
338,51.0,0.0,60.0,2.0,0.0
339,44.0,30.0,60.0,2.0,0.0
340,60.0,30.0,30.0,1.0,0.0
341,63.0,0.0,30.0,1.0,0.0
342,68.0,0.0,15.0,0.0,0.0
343,69.0,30.0,30.0,1.0,0.0
344,63.0,0.0,30.0,1.0,0.0
345,61.0,30.0,30.0,1.0,0.0
346,70.0,0.0,60.0,0.0,0.0
347,44.0,0.0,60.0,2.0,0.0
348,51.0,0.0,60.0,2.0,0.0
349,56.0,0.0,60.0,2.0,0.0
350,63.0,30.0,30.0,1.0,0.0
351,70.0,30.0,30.0,1.0,0.0
352,72.0,0.0,60.0,0.0,0.0
353,63.0,30.0,30.0,1.0,0.0
354,44.0,0.0,60.0,2.0,0.0
355,73.0,0.0,60.0,0.0,0.0
356,56.0,30.0,60.0,2.0,0.0
357,51.0,0.0,60.0,2.0,0.0
358,61.0,30.0,30.0,1.0,0.0
359,63.0,0.0,30.0,1.0,0.0
360,70.0,30.0,30.0,1.0,0.0
361,70.0,0.0,60.0,0.0,0.0
362,63.0,30.0,30.0,1.0,0.0
363,44.0,0.0,60.0,2.0,0.0
364,48.0,30.0,60.0,2.0,0.0
365,75.0,0.0,120.0,0.0,0.0
366,56.0,0.0,60.0,2.0,0.0
367,51.0,0.0,60.0,2.0,0.0
368,63.0,30.0,30.0,1.0,0.0
369,72.0,0.0,30.0,1.0,0.0
370,75.0,30.0,30.0,1.0,0.0
371,72.0,30.0,30.0,1.0,0.0
372,44.0,0.0,60.0,2.0,0.0
373,72.0,0.0,60.0,0.0,0.0
374,63.0,30.0,30.0,1.0,0.0
375,56.0,0.0,60.0,2.0,0.0
376,51.0,30.0,60.0,2.0,0.0
377,48.0,0.0,60.0,2.0,0.0
378,68.0,0.0,30.0,1.0,0.0
379,72.0,30.0,30.0,1.0,0.0
380,72.0,0.0,60.0,0.0,0.0
381,68.0,30.0,30.0,1.0,0.0
382,61.0,30.0,30.0,1.0,0.0
383,51.0,0.0,60.0,2.0,0.0
384,46.0,0.0,60.0,2.0,0.0
385,43.0,0.0,60.0,2.0,0.0
386,39.0,0.0,60.0,2.0,0.0
387,70.0,30.0,60.0,0.0,0.0
388,67.0,0.0,30.0,1.0,0.0
389,70.0,30.0,30.0,1.0,0.0
390,72.0,30.0,60.0,0.0,0.0
391,67.0,0.0,30.0,1.0,0.0
392,61.0,30.0,30.0,1.0,0.0
393,73.0,30.0,60.0,0.0,0.0
394,39.0,0.0,60.0,2.0,0.0
395,43.0,0.0,60.0,2.0,0.0
396,46.0,0.0,60.0,2.0,0.0
397,51.0,0.0,60.0,2.0,0.0
398,67.0,0.0,30.0,1.0,0.0
399,70.0,0.0,60.0,0.0,0.0
400,70.0,30.0,30.0,1.0,0.0
401,67.0,60.0,30.0,1.0,0.0
402,44.0,60.0,60.0,2.0,0.0
403,48.0,0.0,60.0,2.0,0.0
404,68.0,0.0,120.0,0.0,0.0
405,51.0,0.0,60.0,2.0,0.0
406,44.0,0.0,60.0,2.0,0.0
407,68.0,60.0,15.0,1.0,0.0
408,48.0,0.0,60.0,2.0,0.0
409,68.0,0.0,60.0,1.0,0.0
410,51.0,15.0,60.0,2.0,0.0
411,70.0,15.0,15.0,1.0,0.0
412,44.0,0.0,60.0,2.0,0.0
413,48.0,15.0,60.0,2.0,0.0
414,68.0,15.0,15.0,1.0,0.0
415,70.0,15.0,15.0,1.0,0.0
416,68.0,0.0,15.0,1.0,0.0
417,51.0,60.0,60.0,2.0,0.0
418,70.0,15.0,15.0,1.0,0.0
419,68.0,15.0,15.0,1.0,0.0
420,70.0,15.0,15.0,1.0,0.0
421,68.0,0.0,15.0,1.0,0.0
422,72.0,60.0,60.0,1.0,0.0
423,44.0,0.0,60.0,2.0,0.0
424,48.0,0.0,60.0,2.0,0.0
425,51.0,60.0,60.0,2.0,0.0
426,68.0,0.0,60.0,1.0,0.0
427,46.0,0.0,60.0,2.0,0.0
428,49.0,0.0,60.0,2.0,0.0
429,73.0,60.0,60.0,1.0,0.0
430,51.0,60.0,60.0,2.0,0.0
431,70.0,0.0,60.0,1.0,0.0
432,49.0,60.0,60.0,2.0,0.0
433,46.0,0.0,60.0,2.0,0.0
434,67.0,0.0,120.0,1.0,0.0
435,51.0,60.0,60.0,2.0,0.0
436,73.0,60.0,60.0,0.0,0.0
437,39.0,0.0,60.0,2.0,0.0
438,46.0,0.0,60.0,2.0,0.0
439,70.0,0.0,60.0,0.0,0.0
440,51.0,60.0,60.0,2.0,0.0
441,39.0,60.0,60.0,2.0,0.0
442,46.0,0.0,60.0,2.0,0.0
443,67.0,60.0,120.0,0.0,0.0
444,51.0,0.0,60.0,2.0,0.0
445,68.0,0.0,120.0,1.0,0.0
446,44.0,60.0,60.0,2.0,0.0
447,48.0,0.0,60.0,2.0,0.0
448,51.0,60.0,60.0,2.0,0.0
449,68.0,0.0,60.0,1.0,0.0
450,48.0,60.0,60.0,2.0,0.0
451,44.0,0.0,60.0,2.0,0.0
452,68.0,15.0,60.0,1.0,0.0
453,51.0,0.0,60.0,2.0,0.0
454,44.0,0.0,60.0,2.0,0.0
455,48.0,0.0,60.0,2.0,0.0
456,70.0,15.0,15.0,1.0,0.0
457,68.0,15.0,15.0,1.0,0.0
458,70.0,15.0,15.0,1.0,0.0
459,68.0,15.0,15.0,1.0,0.0
460,51.0,60.0,60.0,2.0,0.0
461,70.0,15.0,15.0,1.0,0.0
462,68.0,15.0,15.0,1.0,0.0
463,70.0,15.0,15.0,1.0,0.0
464,68.0,0.0,15.0,1.0,0.0
465,48.0,0.0,60.0,2.0,0.0
466,44.0,60.0,60.0,2.0,0.0
467,72.0,0.0,60.0,1.0,0.0
468,51.0,60.0,60.0,2.0,0.0
469,68.0,0.0,60.0,1.0,0.0
470,48.0,0.0,60.0,2.0,0.0
471,52.0,0.0,60.0,2.0,0.0
472,70.0,60.0,60.0,1.0,0.0
473,67.0,0.0,60.0,1.0,0.0
474,55.0,60.0,60.0,2.0,0.0
475,64.0,0.0,120.0,1.0,0.0
476,48.0,60.0,60.0,2.0,0.0
477,52.0,0.0,60.0,2.0,0.0
478,55.0,60.0,60.0,2.0,0.0
479,48.0,60.0,60.0,2.0,0.0
480,52.0,0.0,60.0,2.0,0.0
481,70.0,0.0,60.0,0.0,0.0
482,67.0,0.0,60.0,0.0,0.0
483,55.0,60.0,60.0,2.0,0.0
484,64.0,0.0,120.0,0.0,0.0
485,48.0,60.0,60.0,2.0,0.0
486,52.0,0.0,60.0,2.0,0.0
487,55.0,60.0,60.0,2.0,0.0
488,70.0,0.0,60.0,1.0,0.0
489,48.0,0.0,60.0,2.0,0.0
490,52.0,60.0,60.0,2.0,0.0
491,67.0,60.0,60.0,1.0,0.0
492,55.0,0.0,60.0,2.0,0.0
493,48.0,60.0,60.0,2.0,0.0
494,52.0,0.0,60.0,2.0,0.0
495,64.0,60.0,120.0,1.0,0.0
496,55.0,0.0,60.0,2.0,0.0
497,52.0,0.0,60.0,2.0,0.0
498,70.0,60.0,120.0,0.0,0.0
499,48.0,60.0,60.0,2.0,0.0
500,55.0,0.0,60.0,2.0,0.0
501,48.0,0.0,60.0,2.0,0.0
502,52.0,0.0,60.0,2.0,0.0
503,70.0,0.0,60.0,1.0,0.0
504,55.0,120.0,60.0,2.0,0.0
505,67.0,0.0,60.0,1.0,0.0
506,67.0,60.0,15.0,0.0,0.0
507,64.0,0.0,120.0,0.0,0.0
508,48.0,0.0,120.0,2.0,0.0
509,64.0,240.0,120.0,1.0,0.0
510,52.0,0.0,120.0,2.0,0.0
511,60.0,60.0,240.0,2.0,0.0
512,72.0,0.0,240.0,0.0,0.0
513,72.0,0.0,240.0,1.0,0.0
514,70.0,60.0,60.0,1.0,0.0
515,70.0,0.0,60.0,0.0,0.0
516,58.0,0.0,60.0,2.0,0.0
517,67.0,120.0,60.0,0.0,0.0
518,67.0,0.0,60.0,1.0,0.0
519,55.0,0.0,60.0,2.0,0.0
520,52.0,0.0,120.0,2.0,0.0
521,64.0,120.0,120.0,1.0,0.0
522,64.0,0.0,120.0,0.0,0.0
523,72.0,0.0,120.0,0.0,0.0
524,60.0,0.0,120.0,2.0,0.0
525,72.0,120.0,120.0,1.0,0.0
526,58.0,120.0,120.0,2.0,0.0
527,70.0,0.0,120.0,1.0,0.0
528,70.0,0.0,120.0,0.0,0.0
529,67.0,0.0,120.0,1.0,0.0
530,67.0,0.0,120.0,0.0,0.0
531,55.0,60.0,120.0,2.0,0.0
532,64.0,0.0,60.0,1.0,0.0
533,52.0,0.0,60.0,2.0,0.0
534,64.0,60.0,60.0,0.0,0.0
535,60.0,0.0,60.0,2.0,0.0
536,72.0,0.0,60.0,1.0,0.0
537,72.0,60.0,60.0,0.0,0.0
538,70.0,0.0,60.0,1.0,0.0
539,58.0,60.0,60.0,2.0,0.0
540,70.0,0.0,60.0,0.0,0.0
541,67.0,0.0,60.0,1.0,0.0
542,67.0,0.0,60.0,0.0,0.0
543,55.0,40.0,60.0,2.0,0.0
544,64.0,40.0,40.0,0.0,0.0
545,64.0,0.0,40.0,1.0,0.0
546,52.0,0.0,40.0,2.0,0.0
547,74.0,0.0,40.0,0.0,0.0
548,62.0,0.0,40.0,2.0,0.0
549,74.0,40.0,40.0,1.0,0.0
550,60.0,0.0,40.0,2.0,0.0
551,72.0,40.0,40.0,1.0,0.0
552,72.0,0.0,40.0,0.0,0.0
553,58.0,40.0,40.0,2.0,0.0
554,70.0,0.0,40.0,1.0,0.0
555,70.0,0.0,40.0,0.0,0.0
556,69.0,0.0,40.0,0.0,0.0
557,57.0,40.0,40.0,2.0,0.0
558,69.0,0.0,40.0,1.0,0.0
559,67.0,60.0,40.0,1.0,0.0
560,55.0,0.0,40.0,2.0,0.0
561,67.0,0.0,40.0,0.0,0.0
562,41.0,0.0,60.0,2.0,0.0
563,65.0,60.0,60.0,0.0,0.0
564,53.0,0.0,60.0,2.0,0.0
565,57.0,0.0,60.0,1.0,0.0
566,60.0,0.0,60.0,1.0,0.0
567,65.0,0.0,60.0,1.0,0.0
568,48.0,60.0,60.0,2.0,0.0
569,72.0,0.0,60.0,0.0,0.0
570,71.0,0.0,60.0,0.0,0.0
571,41.0,0.0,60.0,2.0,0.0
572,53.0,60.0,60.0,2.0,0.0
573,57.0,0.0,60.0,1.0,0.0
574,65.0,0.0,60.0,1.0,0.0
575,60.0,0.0,60.0,1.0,0.0
576,48.0,0.0,60.0,2.0,0.0
577,72.0,40.0,60.0,0.0,0.0
578,60.0,0.0,60.0,1.0,0.0
579,57.0,0.0,60.0,1.0,0.0
580,65.0,0.0,60.0,1.0,0.0
581,53.0,20.0,60.0,2.0,0.0
582,41.0,0.0,60.0,2.0,0.0
583,70.0,20.0,40.0,0.0,0.0
584,69.0,40.0,40.0,0.0,0.0
585,48.0,0.0,60.0,2.0,0.0
586,69.0,40.0,40.0,0.0,0.0
587,65.0,20.0,60.0,1.0,0.0
588,41.0,0.0,60.0,2.0,0.0
589,60.0,0.0,60.0,1.0,0.0
590,69.0,20.0,40.0,0.0,0.0
591,53.0,0.0,60.0,2.0,0.0
592,57.0,0.0,60.0,1.0,0.0
593,67.0,40.0,40.0,0.0,0.0
594,48.0,60.0,60.0,2.0,0.0
595,65.0,0.0,40.0,0.0,0.0
596,72.0,0.0,60.0,0.0,0.0
597,43.0,0.0,60.0,2.0,0.0
598,58.0,0.0,60.0,1.0,0.0
599,60.0,0.0,60.0,1.0,0.0
600,64.0,60.0,60.0,1.0,0.0
601,55.0,0.0,60.0,2.0,0.0
602,48.0,60.0,60.0,2.0,0.0
603,70.0,0.0,120.0,0.0,0.0
604,55.0,0.0,60.0,2.0,0.0
605,43.0,0.0,60.0,2.0,0.0
606,58.0,0.0,60.0,1.0,0.0
607,60.0,0.0,60.0,1.0,0.0
608,64.0,60.0,60.0,1.0,0.0
609,67.0,0.0,60.0,0.0,0.0
610,48.0,60.0,60.0,2.0,0.0
611,43.0,0.0,60.0,2.0,0.0
612,60.0,0.0,60.0,1.0,0.0
613,58.0,0.0,60.0,1.0,0.0
614,64.0,0.0,120.0,0.0,0.0
615,64.0,0.0,60.0,1.0,0.0
616,55.0,60.0,60.0,2.0,0.0
617,48.0,60.0,60.0,2.0,0.0
618,64.0,0.0,120.0,0.0,0.0
619,64.0,0.0,60.0,1.0,0.0
620,60.0,0.0,60.0,1.0,0.0
621,58.0,60.0,60.0,1.0,0.0
622,55.0,0.0,60.0,2.0,0.0
623,43.0,0.0,60.0,2.0,0.0
624,48.0,60.0,60.0,2.0,0.0
625,63.0,0.0,60.0,1.0,0.0
626,45.0,60.0,60.0,2.0,0.0
627,48.0,0.0,60.0,2.0,0.0
628,60.0,0.0,60.0,1.0,0.0
629,53.0,60.0,60.0,2.0,0.0
630,63.0,60.0,60.0,1.0,0.0
631,48.0,0.0,60.0,2.0,0.0
632,45.0,0.0,60.0,2.0,0.0
633,60.0,0.0,60.0,1.0,0.0
634,63.0,0.0,15.0,0.0,0.0
635,53.0,0.0,60.0,2.0,0.0
636,60.0,0.0,60.0,1.0,0.0
637,48.0,0.0,60.0,2.0,0.0
638,45.0,0.0,60.0,2.0,0.0
639,63.0,30.0,60.0,1.0,0.0
640,63.0,60.0,15.0,0.0,0.0
641,53.0,0.0,60.0,2.0,0.0
642,65.0,15.0,15.0,0.0,0.0
643,63.0,15.0,15.0,0.0,0.0
644,62.0,60.0,15.0,0.0,0.0
645,45.0,0.0,60.0,2.0,0.0
646,63.0,0.0,60.0,1.0,0.0
647,48.0,0.0,60.0,2.0,0.0
648,63.0,60.0,60.0,0.0,0.0
649,60.0,0.0,60.0,1.0,0.0
650,65.0,0.0,60.0,0.0,0.0
651,53.0,60.0,60.0,2.0,0.0
652,58.0,60.0,60.0,1.0,0.0
653,62.0,0.0,60.0,1.0,0.0
654,62.0,60.0,120.0,0.0,0.0
655,46.0,0.0,60.0,2.0,0.0
656,50.0,0.0,60.0,2.0,0.0
657,53.0,0.0,60.0,2.0,0.0
658,65.0,0.0,60.0,1.0,0.0
659,62.0,0.0,60.0,1.0,0.0
660,46.0,0.0,60.0,2.0,0.0
661,65.0,0.0,120.0,0.0,0.0
662,50.0,60.0,60.0,2.0,0.0
663,53.0,60.0,60.0,2.0,0.0
664,46.0,60.0,60.0,2.0,0.0
665,70.0,0.0,60.0,1.0,0.0
666,65.0,0.0,60.0,1.0,0.0
667,62.0,0.0,60.0,1.0,0.0
668,50.0,0.0,60.0,2.0,0.0
669,70.0,60.0,120.0,0.0,0.0
670,53.0,0.0,60.0,2.0,0.0
671,65.0,0.0,60.0,0.0,0.0
672,50.0,0.0,60.0,2.0,0.0
673,46.0,0.0,60.0,2.0,0.0
674,65.0,0.0,60.0,1.0,0.0
675,62.0,60.0,60.0,1.0,0.0
676,53.0,0.0,60.0,2.0,0.0
677,65.0,0.0,60.0,1.0,0.0
678,72.0,0.0,60.0,1.0,0.0
679,63.0,0.0,60.0,1.0,0.0
680,48.0,60.0,60.0,2.0,0.0
681,45.0,0.0,60.0,2.0,0.0
682,74.0,60.0,15.0,0.0,0.0
683,72.0,0.0,60.0,0.0,0.0
684,53.0,60.0,60.0,2.0,0.0
685,70.0,0.0,60.0,0.0,0.0
686,63.0,60.0,60.0,1.0,0.0
687,65.0,0.0,60.0,1.0,0.0
688,48.0,0.0,60.0,2.0,0.0
689,45.0,0.0,60.0,2.0,0.0
690,72.0,0.0,60.0,1.0,0.0
691,53.0,60.0,60.0,2.0,0.0
692,69.0,0.0,60.0,0.0,0.0
693,67.0,0.0,60.0,0.0,0.0
694,48.0,0.0,60.0,2.0,0.0
695,45.0,0.0,60.0,2.0,0.0
696,65.0,0.0,60.0,1.0,0.0
697,60.0,60.0,60.0,1.0,0.0
698,53.0,0.0,60.0,2.0,0.0
699,65.0,60.0,60.0,0.0,0.0
700,60.0,0.0,60.0,1.0,0.0
701,63.0,60.0,60.0,1.0,0.0
702,45.0,0.0,60.0,2.0,0.0
703,48.0,0.0,60.0,2.0,0.0
704,63.0,30.0,60.0,0.0,0.0
705,53.0,0.0,60.0,2.0,0.0
706,46.0,0.0,60.0,2.0,0.0
707,50.0,0.0,60.0,2.0,0.0
708,63.0,30.0,30.0,0.0,0.0
709,58.0,0.0,60.0,1.0,0.0
710,62.0,30.0,60.0,1.0,0.0
711,62.0,0.0,30.0,0.0,0.0
712,65.0,30.0,30.0,0.0,0.0
713,53.0,60.0,60.0,2.0,0.0
714,63.0,0.0,30.0,0.0,0.0
715,62.0,0.0,60.0,1.0,0.0
716,50.0,60.0,60.0,2.0,0.0
717,62.0,0.0,60.0,0.0,0.0
718,46.0,0.0,60.0,2.0,0.0
719,58.0,0.0,60.0,1.0,0.0
720,52.0,0.0,60.0,2.0,0.0
721,48.0,60.0,60.0,2.0,0.0
722,64.0,0.0,60.0,1.0,0.0
723,60.0,0.0,60.0,1.0,0.0
724,64.0,0.0,60.0,0.0,0.0
725,62.0,0.0,60.0,1.0,0.0
726,65.0,0.0,60.0,1.0,0.0
727,50.0,0.0,60.0,2.0,0.0
728,53.0,0.0,60.0,2.0,0.0
729,65.0,60.0,60.0,0.0,0.0
730,52.0,0.0,60.0,2.0,0.0
731,55.0,0.0,60.0,2.0,0.0
732,67.0,60.0,60.0,0.0,0.0
733,64.0,0.0,60.0,1.0,0.0
734,67.0,0.0,60.0,1.0,0.0
735,65.0,0.0,60.0,1.0,0.0
736,53.0,0.0,60.0,2.0,0.0
737,57.0,0.0,60.0,2.0,0.0
738,69.0,0.0,60.0,0.0,0.0
739,69.0,60.0,60.0,1.0,0.0
740,58.0,0.0,60.0,2.0,0.0
741,70.0,0.0,60.0,1.0,0.0
742,67.0,0.0,60.0,1.0,0.0
743,55.0,0.0,60.0,2.0,0.0
744,70.0,60.0,60.0,0.0,0.0
745,72.0,0.0,360.0,0.0,0.0
746,60.0,60.0,360.0,2.0,0.0
747,57.0,0.0,360.0,2.0,0.0
748,53.0,0.0,360.0,2.0,0.0
749,69.0,0.0,15.0,1.0,0.0
750,72.0,60.0,15.0,1.0,0.0
751,72.0,60.0,15.0,1.0,0.0
752,69.0,0.0,15.0,1.0,0.0
753,69.0,60.0,60.0,1.0,0.0
754,72.0,0.0,60.0,1.0,0.0
755,72.0,0.0,60.0,1.0,0.0
756,72.0,0.0,60.0,1.0,0.0
757,69.0,60.0,15.0,1.0,0.0
758,67.0,0.0,60.0,1.0,0.0
759,58.0,0.0,60.0,2.0,0.0
760,70.0,0.0,60.0,0.0,0.0
761,55.0,0.0,60.0,2.0,0.0
762,70.0,60.0,60.0,1.0,0.0
763,69.0,60.0,60.0,0.0,0.0
764,53.0,0.0,60.0,2.0,0.0
765,57.0,0.0,60.0,2.0,0.0
766,69.0,0.0,60.0,1.0,0.0
767,65.0,0.0,60.0,1.0,0.0
768,58.0,0.0,60.0,1.0,0.0
769,67.0,0.0,60.0,0.0,0.0
770,55.0,0.0,60.0,2.0,0.0
771,46.0,0.0,60.0,2.0,0.0
772,69.0,60.0,60.0,0.0,0.0
773,67.0,60.0,15.0,1.0,0.0
774,62.0,0.0,15.0,1.0,0.0
775,58.0,0.0,60.0,1.0,0.0
776,55.0,0.0,60.0,2.0,0.0
777,46.0,0.0,60.0,2.0,0.0
778,70.0,0.0,60.0,0.0,0.0
779,58.0,30.0,60.0,1.0,0.0
780,67.0,30.0,30.0,0.0,0.0
781,67.0,0.0,15.0,1.0,0.0
782,62.0,0.0,15.0,1.0,0.0
783,58.0,0.0,60.0,1.0,0.0
784,69.0,60.0,30.0,0.0,0.0
785,65.0,0.0,120.0,0.0,0.0
786,60.0,0.0,60.0,1.0,0.0
787,53.0,0.0,60.0,2.0,0.0
788,48.0,0.0,60.0,2.0,0.0
789,57.0,0.0,15.0,1.0,0.0
790,60.0,0.0,60.0,1.0,0.0
791,65.0,60.0,15.0,1.0,0.0
792,55.0,0.0,60.0,2.0,0.0
793,67.0,0.0,120.0,0.0,0.0
794,48.0,0.0,60.0,2.0,0.0
795,52.0,0.0,60.0,2.0,0.0
796,58.0,60.0,15.0,1.0,0.0
797,67.0,0.0,15.0,1.0,0.0
798,60.0,0.0,15.0,1.0,0.0
799,41.0,0.0,60.0,2.0,0.0
800,45.0,60.0,60.0,2.0,0.0
801,65.0,0.0,60.0,1.0,0.0
802,65.0,0.0,120.0,0.0,0.0
803,72.0,60.0,120.0,1.0,0.0
804,53.0,60.0,60.0,2.0,0.0
805,46.0,0.0,60.0,2.0,0.0
806,43.0,0.0,60.0,2.0,0.0
807,53.0,60.0,60.0,2.0,0.0
808,70.0,0.0,60.0,1.0,0.0
809,46.0,0.0,60.0,2.0,0.0
810,69.0,0.0,60.0,1.0,0.0
811,43.0,60.0,60.0,2.0,0.0
812,67.0,0.0,60.0,1.0,0.0
813,53.0,60.0,60.0,2.0,0.0
814,65.0,0.0,60.0,1.0,0.0
815,43.0,60.0,60.0,2.0,0.0
816,46.0,0.0,60.0,2.0,0.0
817,64.0,0.0,60.0,1.0,0.0
818,53.0,60.0,60.0,2.0,0.0
819,63.0,0.0,120.0,1.0,0.0
820,45.0,0.0,60.0,2.0,0.0
821,48.0,60.0,60.0,2.0,0.0
822,53.0,30.0,60.0,2.0,0.0
823,62.0,30.0,30.0,1.0,0.0
824,45.0,0.0,60.0,2.0,0.0
825,48.0,0.0,60.0,2.0,0.0
826,63.0,30.0,30.0,1.0,0.0
827,62.0,30.0,30.0,1.0,0.0
828,53.0,0.0,60.0,2.0,0.0
829,63.0,30.0,30.0,1.0,0.0
830,48.0,0.0,60.0,2.0,0.0
831,63.0,30.0,30.0,1.0,0.0
832,45.0,0.0,60.0,2.0,0.0
833,65.0,20.0,30.0,1.0,0.0
834,63.0,20.0,20.0,1.0,0.0
835,53.0,0.0,60.0,2.0,0.0
836,62.0,20.0,20.0,1.0,0.0
837,63.0,60.0,20.0,1.0,0.0
838,48.0,0.0,60.0,2.0,0.0
839,67.0,60.0,60.0,1.0,0.0
840,45.0,0.0,60.0,2.0,0.0
841,63.0,60.0,60.0,1.0,0.0
842,53.0,0.0,60.0,2.0,0.0
843,46.0,60.0,60.0,2.0,0.0
844,50.0,0.0,60.0,2.0,0.0
845,62.0,0.0,120.0,1.0,0.0
846,65.0,0.0,60.0,0.0,0.0
847,53.0,0.0,60.0,2.0,0.0
848,70.0,60.0,60.0,0.0,0.0
849,46.0,0.0,60.0,2.0,0.0
850,50.0,0.0,60.0,2.0,0.0
851,53.0,60.0,60.0,2.0,0.0
852,70.0,60.0,15.0,0.0,0.0
853,50.0,0.0,60.0,2.0,0.0
854,74.0,0.0,60.0,0.0,0.0
855,70.0,0.0,60.0,1.0,0.0
856,74.0,0.0,60.0,1.0,0.0
857,46.0,60.0,60.0,2.0,0.0
858,65.0,0.0,60.0,1.0,0.0
859,70.0,0.0,60.0,0.0,0.0
860,53.0,60.0,60.0,2.0,0.0
861,50.0,0.0,60.0,2.0,0.0
862,65.0,0.0,60.0,0.0,0.0
863,46.0,60.0,60.0,2.0,0.0
864,62.0,0.0,60.0,0.0,0.0
865,53.0,15.0,60.0,2.0,0.0
866,65.0,15.0,15.0,1.0,0.0
867,45.0,0.0,60.0,2.0,0.0
868,48.0,0.0,60.0,2.0,0.0
869,65.0,0.0,60.0,0.0,0.0
870,63.0,15.0,15.0,1.0,0.0
871,65.0,15.0,15.0,1.0,0.0
872,63.0,30.0,15.0,1.0,0.0
873,65.0,30.0,30.0,1.0,0.0
874,53.0,30.0,60.0,2.0,0.0
875,67.0,0.0,30.0,1.0,0.0
876,63.0,0.0,15.0,0.0,0.0
877,69.0,30.0,30.0,1.0,0.0
878,45.0,30.0,60.0,2.0,0.0
879,48.0,0.0,60.0,2.0,0.0
880,70.0,0.0,30.0,1.0,0.0
881,72.0,30.0,30.0,1.0,0.0
882,53.0,0.0,60.0,2.0,0.0
883,74.0,30.0,30.0,1.0,0.0
884,48.0,30.0,60.0,2.0,0.0
885,65.0,30.0,180.0,0.0,0.0
886,45.0,0.0,60.0,2.0,0.0
887,75.0,30.0,30.0,1.0,0.0
888,74.0,0.0,30.0,1.0,0.0
889,53.0,30.0,60.0,2.0,0.0
890,72.0,30.0,30.0,1.0,0.0
891,70.0,0.0,30.0,1.0,0.0
892,69.0,30.0,30.0,1.0,0.0
893,45.0,0.0,60.0,2.0,0.0
894,48.0,0.0,60.0,2.0,0.0
895,67.0,0.0,30.0,1.0,0.0
896,53.0,60.0,60.0,2.0,0.0
897,65.0,30.0,30.0,1.0,0.0
898,65.0,0.0,60.0,0.0,0.0
899,63.0,0.0,30.0,1.0,0.0
900,65.0,0.0,60.0,0.0,0.0
901,62.0,60.0,60.0,1.0,0.0
902,46.0,0.0,60.0,2.0,0.0
903,50.0,0.0,60.0,2.0,0.0
904,70.0,60.0,60.0,0.0,0.0
905,53.0,0.0,60.0,2.0,0.0
906,46.0,0.0,60.0,2.0,0.0
907,50.0,60.0,60.0,2.0,0.0
908,70.0,0.0,60.0,1.0,0.0
909,62.0,0.0,60.0,1.0,0.0
910,53.0,0.0,60.0,2.0,0.0
911,70.0,0.0,15.0,0.0,0.0
912,62.0,0.0,60.0,1.0,0.0
913,70.0,60.0,60.0,1.0,0.0
914,70.0,60.0,15.0,0.0,0.0
915,50.0,0.0,60.0,2.0,0.0
916,46.0,0.0,60.0,2.0,0.0
917,55.0,0.0,60.0,2.0,0.0
918,69.0,40.0,60.0,0.0,0.0
919,67.0,0.0,60.0,1.0,0.0
920,62.0,0.0,60.0,1.0,0.0
921,46.0,0.0,60.0,2.0,0.0
922,50.0,20.0,60.0,2.0,0.0
923,67.0,20.0,40.0,0.0,0.0
924,69.0,40.0,40.0,0.0,0.0
925,55.0,0.0,60.0,2.0,0.0
926,52.0,0.0,60.0,2.0,0.0
927,60.0,0.0,60.0,1.0,0.0
928,64.0,30.0,60.0,1.0,0.0
929,48.0,0.0,60.0,2.0,0.0
930,65.0,30.0,15.0,0.0,0.0
931,64.0,0.0,30.0,0.0,0.0
932,67.0,30.0,30.0,0.0,0.0
933,55.0,60.0,60.0,2.0,0.0
934,65.0,0.0,30.0,0.0,0.0
935,48.0,0.0,60.0,2.0,0.0
936,64.0,60.0,15.0,0.0,0.0
937,60.0,0.0,15.0,1.0,0.0
938,64.0,0.0,15.0,1.0,0.0
939,52.0,0.0,15.0,2.0,0.0
940,48.0,0.0,60.0,2.0,0.0
941,65.0,0.0,60.0,1.0,0.0
942,62.0,0.0,60.0,1.0,0.0
943,50.0,60.0,60.0,2.0,0.0
944,65.0,0.0,60.0,0.0,0.0
945,53.0,0.0,60.0,2.0,0.0
946,67.0,0.0,60.0,0.0,0.0
947,64.0,0.0,60.0,1.0,0.0
948,67.0,0.0,60.0,1.0,0.0
949,52.0,60.0,60.0,2.0,0.0
950,55.0,0.0,60.0,2.0,0.0
951,57.0,0.0,60.0,2.0,0.0
952,65.0,0.0,60.0,1.0,0.0
953,69.0,0.0,60.0,1.0,0.0
954,69.0,60.0,60.0,0.0,0.0
955,53.0,0.0,60.0,2.0,0.0
956,70.0,60.0,60.0,0.0,0.0
957,67.0,0.0,60.0,1.0,0.0
958,70.0,0.0,60.0,1.0,0.0
959,58.0,0.0,60.0,2.0,0.0
960,55.0,0.0,60.0,2.0,0.0
961,72.0,0.0,60.0,1.0,0.0
962,72.0,0.0,360.0,0.0,0.0
963,53.0,60.0,360.0,2.0,0.0
964,57.0,0.0,360.0,2.0,0.0
965,60.0,0.0,360.0,2.0,0.0
966,69.0,60.0,15.0,1.0,0.0
967,72.0,60.0,60.0,1.0,0.0
968,69.0,60.0,60.0,1.0,0.0
969,72.0,0.0,60.0,1.0,0.0
970,69.0,60.0,60.0,1.0,0.0
971,72.0,0.0,60.0,1.0,0.0
972,69.0,0.0,15.0,1.0,0.0
973,72.0,60.0,15.0,1.0,0.0
974,67.0,0.0,60.0,1.0,0.0
975,70.0,0.0,60.0,1.0,0.0
976,58.0,0.0,60.0,2.0,0.0
977,55.0,0.0,60.0,2.0,0.0
978,70.0,60.0,60.0,0.0,0.0
979,53.0,0.0,60.0,2.0,0.0
980,69.0,0.0,60.0,0.0,0.0
981,69.0,0.0,60.0,1.0,0.0
982,65.0,60.0,60.0,1.0,0.0
983,57.0,0.0,60.0,2.0,0.0
984,74.0,0.0,120.0,0.0,0.0
985,58.0,0.0,60.0,1.0,0.0
986,62.0,60.0,60.0,1.0,0.0
987,65.0,0.0,60.0,1.0,0.0
988,70.0,0.0,60.0,1.0,0.0
989,74.0,0.0,60.0,1.0,0.0
990,74.0,60.0,15.0,1.0,0.0
991,70.0,0.0,15.0,1.0,0.0
992,65.0,0.0,15.0,1.0,0.0
993,62.0,0.0,60.0,1.0,0.0
994,58.0,0.0,60.0,1.0,0.0
995,74.0,0.0,15.0,0.0,0.0
996,70.0,60.0,15.0,1.0,0.0
997,74.0,0.0,60.0,1.0,0.0
998,58.0,0.0,60.0,1.0,0.0
999,65.0,0.0,15.0,1.0,0.0
1000,70.0,60.0,15.0,1.0,0.0
1001,62.0,30.0,60.0,1.0,0.0
1002,74.0,28.0,90.0,0.0,0.0
1003,74.0,0.0,60.0,1.0,0.0
1004,65.0,0.0,15.0,1.0,0.0
1005,74.0,0.0,60.0,1.0,0.0
1006,70.0,0.0,15.0,1.0,0.0
1007,76.0,2.0,30.0,0.0,0.0
1008,62.0,0.0,60.0,1.0,0.0
1009,70.0,0.0,15.0,1.0,0.0
1010,74.0,0.0,60.0,1.0,0.0
1011,58.0,0.0,60.0,1.0,0.0
1012,74.0,0.0,60.0,0.0,0.0
1013,69.0,0.0,60.0,1.0,0.0
1014,72.0,0.0,60.0,1.0,0.0
1015,60.0,0.0,60.0,1.0,0.0
1016,72.0,60.0,15.0,0.0,0.0
1017,72.0,0.0,60.0,1.0,0.0
1018,53.0,0.0,60.0,1.0,0.0
1019,57.0,60.0,60.0,1.0,0.0
1020,69.0,0.0,15.0,1.0,0.0
1021,60.0,60.0,60.0,1.0,0.0
1022,72.0,60.0,240.0,0.0,0.0
1023,57.0,0.0,60.0,1.0,0.0
1024,53.0,0.0,60.0,1.0,0.0
1025,72.0,60.0,15.0,1.0,0.0
1026,69.0,0.0,15.0,1.0,0.0
1027,72.0,0.0,15.0,1.0,0.0
1028,69.0,0.0,15.0,1.0,0.0
1029,72.0,0.0,15.0,1.0,0.0
1030,69.0,60.0,15.0,1.0,0.0
1031,53.0,0.0,60.0,1.0,0.0
1032,57.0,60.0,60.0,1.0,0.0
1033,60.0,0.0,60.0,1.0,0.0
1034,69.0,0.0,60.0,1.0,0.0
1035,72.0,0.0,60.0,1.0,0.0
1036,67.0,0.0,60.0,1.0,0.0
1037,70.0,0.0,60.0,1.0,0.0
1038,70.0,60.0,60.0,0.0,0.0
1039,69.0,0.0,60.0,1.0,0.0
1040,65.0,60.0,60.0,1.0,0.0
1041,57.0,0.0,60.0,2.0,0.0
1042,53.0,0.0,60.0,2.0,0.0
1043,69.0,0.0,15.0,0.0,0.0
1044,55.0,0.0,60.0,2.0,0.0
1045,48.0,60.0,60.0,2.0,0.0
1046,64.0,0.0,60.0,1.0,0.0
1047,67.0,0.0,60.0,1.0,0.0
1048,58.0,0.0,15.0,1.0,0.0
1049,67.0,0.0,60.0,0.0,0.0
1050,67.0,0.0,15.0,1.0,0.0
1051,36.0,0.0,60.0,2.0,0.0
1052,64.0,60.0,15.0,1.0,0.0
1053,48.0,0.0,60.0,2.0,0.0
1054,67.0,0.0,60.0,0.0,0.0
1055,58.0,60.0,60.0,1.0,0.0
1056,67.0,0.0,60.0,0.0,0.0
1057,67.0,0.0,15.0,1.0,0.0
1058,64.0,0.0,60.0,1.0,0.0
1059,58.0,0.0,60.0,1.0,0.0
1060,48.0,0.0,60.0,2.0,0.0
1061,36.0,20.0,60.0,2.0,0.0
1062,58.0,0.0,60.0,1.0,0.0
1063,67.0,40.0,15.0,1.0,0.0
1064,64.0,0.0,60.0,1.0,0.0
1065,67.0,20.0,40.0,0.0,0.0
1066,72.0,40.0,40.0,0.0,0.0
1067,67.0,0.0,60.0,1.0,0.0
1068,70.0,0.0,40.0,0.0,0.0
1069,69.0,20.0,40.0,0.0,0.0
1070,58.0,0.0,15.0,1.0,0.0
1071,36.0,0.0,60.0,2.0,0.0
1072,48.0,0.0,60.0,2.0,0.0
1073,64.0,40.0,15.0,1.0,0.0
1074,70.0,40.0,40.0,0.0,0.0
1075,67.0,0.0,15.0,1.0,0.0
1076,64.0,20.0,15.0,1.0,0.0
1077,58.0,0.0,60.0,1.0,0.0
1078,67.0,60.0,40.0,0.0,0.0
1079,45.0,60.0,60.0,2.0,0.0
1080,41.0,0.0,60.0,2.0,0.0
1081,65.0,0.0,120.0,0.0,0.0
1082,65.0,60.0,120.0,1.0,0.0
1083,48.0,0.0,60.0,2.0,0.0
1084,45.0,0.0,60.0,2.0,0.0
1085,41.0,60.0,60.0,2.0,0.0
1086,65.0,0.0,60.0,1.0,0.0
1087,48.0,15.0,60.0,2.0,0.0
1088,65.0,0.0,60.0,1.0,0.0
1089,67.0,15.0,15.0,1.0,0.0
1090,41.0,0.0,60.0,2.0,0.0
1091,45.0,0.0,60.0,2.0,0.0
1092,65.0,15.0,15.0,1.0,0.0
1093,67.0,15.0,15.0,1.0,0.0
1094,65.0,15.0,15.0,1.0,0.0
1095,48.0,60.0,60.0,2.0,0.0
1096,67.0,15.0,15.0,1.0,0.0
1097,65.0,15.0,15.0,1.0,0.0
1098,67.0,15.0,15.0,1.0,0.0
1099,65.0,0.0,15.0,1.0,0.0
1100,45.0,0.0,60.0,2.0,0.0
1101,41.0,60.0,60.0,2.0,0.0
1102,69.0,0.0,60.0,1.0,0.0
1103,65.0,60.0,60.0,1.0,0.0
1104,48.0,0.0,60.0,2.0,0.0
1105,46.0,0.0,60.0,2.0,0.0
1106,70.0,0.0,180.0,1.0,0.0
1107,43.0,60.0,60.0,2.0,0.0
1108,48.0,60.0,60.0,2.0,0.0
1109,43.0,60.0,60.0,2.0,0.0
1110,46.0,0.0,60.0,2.0,0.0
1111,48.0,0.0,60.0,2.0,0.0
1112,65.0,15.0,60.0,1.0,0.0
1113,65.0,15.0,15.0,1.0,0.0
1114,36.0,30.0,60.0,2.0,0.0
1115,64.0,30.0,15.0,1.0,0.0
1116,65.0,0.0,30.0,1.0,0.0
1117,48.0,0.0,60.0,2.0,0.0
1118,67.0,30.0,30.0,1.0,0.0
1119,69.0,30.0,30.0,1.0,0.0
1120,34.0,30.0,60.0,2.0,0.0
1121,70.0,30.0,30.0,1.0,0.0
1122,72.0,0.0,30.0,1.0,0.0
1123,74.0,30.0,30.0,1.0,0.0
1124,46.0,30.0,60.0,2.0,0.0
1125,76.0,0.0,30.0,1.0,0.0
1126,45.0,0.0,120.0,2.0,0.0
1127,33.0,30.0,120.0,2.0,0.0
1128,77.0,30.0,30.0,1.0,0.0
1129,79.0,30.0,30.0,1.0,0.0
1130,81.0,30.0,30.0,1.0,0.0
1131,82.0,0.0,30.0,1.0,0.0
1132,84.0,30.0,30.0,1.0,0.0
1133,86.0,30.0,30.0,1.0,0.0
1134,88.0,30.0,30.0,1.0,0.0
1135,89.0,60.0,30.0,1.0,0.0
1136,36.0,0.0,60.0,2.0,0.0
1137,48.0,0.0,60.0,2.0,0.0
1138,84.0,120.0,60.0,1.0,0.0
1139,55.0,0.0,60.0,1.0,0.0
1140,60.0,0.0,60.0,1.0,0.0
1141,64.0,0.0,60.0,1.0,0.0
1142,48.0,0.0,60.0,2.0,0.0
1143,36.0,180.0,60.0,2.0,0.0
1144,58.0,0.0,60.0,1.0,0.0
1145,29.0,0.0,120.0,2.0,0.0
1146,41.0,0.0,120.0,2.0,0.0
1147,53.0,0.0,120.0,1.0,0.0
1148,57.0,0.0,120.0,1.0,0.0
1149,60.0,180.0,120.0,1.0,0.0
1150,65.0,0.0,120.0,1.0,0.0
