,note,step,duration,channel,velocity
0,60.0,60.0,60.0,0.0,0.0
1,60.0,60.0,60.0,0.0,0.0
2,65.0,60.0,60.0,0.0,0.0
3,57.0,0.0,60.0,0.0,0.0
4,41.0,0.0,120.0,1.0,0.0
5,53.0,0.0,120.0,1.0,0.0
6,60.0,60.0,60.0,0.0,0.0
7,64.0,0.0,60.0,0.0,0.0
8,58.0,60.0,60.0,0.0,0.0
9,62.0,0.0,60.0,0.0,0.0
10,53.0,0.0,60.0,1.0,0.0
11,57.0,60.0,60.0,0.0,0.0
12,60.0,0.0,60.0,0.0,0.0
13,53.0,0.0,60.0,1.0,0.0
14,58.0,60.0,60.0,0.0,0.0
15,62.0,0.0,60.0,0.0,0.0
16,53.0,0.0,60.0,1.0,0.0
17,57.0,60.0,60.0,0.0,0.0
18,60.0,0.0,60.0,0.0,0.0
19,53.0,0.0,60.0,1.0,0.0
20,60.0,60.0,60.0,0.0,0.0
21,60.0,60.0,60.0,0.0,0.0
22,65.0,30.0,60.0,0.0,0.0
23,60.0,0.0,60.0,0.0,0.0
24,57.0,0.0,60.0,1.0,0.0
25,67.0,30.0,30.0,0.0,0.0
26,53.0,60.0,60.0,1.0,0.0
27,69.0,0.0,30.0,0.0,0.0
28,60.0,0.0,60.0,0.0,0.0
29,67.0,0.0,60.0,0.0,0.0
30,70.0,60.0,60.0,0.0,0.0
31,52.0,0.0,60.0,1.0,0.0
32,69.0,0.0,60.0,0.0,0.0
33,65.0,0.0,60.0,0.0,0.0
34,60.0,60.0,60.0,0.0,0.0
35,53.0,0.0,60.0,1.0,0.0
36,60.0,0.0,60.0,0.0,0.0
37,65.0,0.0,60.0,0.0,0.0
38,69.0,60.0,60.0,0.0,0.0
39,48.0,0.0,60.0,1.0,0.0
40,67.0,0.0,60.0,0.0,0.0
41,64.0,0.0,60.0,0.0,0.0
42,60.0,60.0,60.0,0.0,0.0
43,36.0,0.0,60.0,1.0,0.0
44,60.0,60.0,60.0,0.0,0.0
45,60.0,60.0,60.0,0.0,0.0
46,65.0,60.0,60.0,0.0,0.0
47,57.0,0.0,60.0,0.0,0.0
48,41.0,0.0,120.0,1.0,0.0
49,53.0,0.0,120.0,1.0,0.0
50,60.0,60.0,60.0,0.0,0.0
51,64.0,0.0,60.0,0.0,0.0
52,58.0,60.0,60.0,0.0,0.0
53,62.0,0.0,60.0,0.0,0.0
54,53.0,0.0,60.0,1.0,0.0
55,57.0,60.0,60.0,0.0,0.0
56,60.0,0.0,60.0,0.0,0.0
57,53.0,0.0,60.0,1.0,0.0
58,58.0,60.0,60.0,0.0,0.0
59,62.0,0.0,60.0,0.0,0.0
60,53.0,0.0,60.0,1.0,0.0
61,57.0,60.0,60.0,0.0,0.0
62,60.0,0.0,60.0,0.0,0.0
63,53.0,0.0,60.0,1.0,0.0
64,65.0,60.0,60.0,0.0,0.0
65,65.0,60.0,60.0,0.0,0.0
66,62.0,30.0,90.0,0.0,0.0
67,70.0,0.0,90.0,0.0,0.0
68,46.0,30.0,60.0,1.0,0.0
69,48.0,60.0,60.0,1.0,0.0
70,69.0,0.0,30.0,0.0,0.0
71,67.0,60.0,60.0,0.0,0.0
72,64.0,0.0,60.0,0.0,0.0
73,48.0,0.0,60.0,1.0,0.0
74,69.0,120.0,60.0,0.0,0.0
75,48.0,0.0,60.0,1.0,0.0
76,65.0,30.0,120.0,0.0,0.0
77,41.0,0.0,120.0,1.0,0.0
78,72.0,30.0,30.0,0.0,0.0
79,69.0,30.0,30.0,0.0,0.0
80,65.0,30.0,30.0,0.0,0.0
81,60.0,60.0,30.0,0.0,0.0
82,55.0,60.0,120.0,0.0,0.0
83,58.0,0.0,120.0,0.0,0.0
84,52.0,60.0,60.0,1.0,0.0
85,48.0,0.0,60.0,1.0,0.0
86,58.0,30.0,90.0,0.0,0.0
87,55.0,30.0,120.0,0.0,0.0
88,52.0,30.0,60.0,1.0,0.0
89,48.0,0.0,60.0,1.0,0.0
90,60.0,0.0,30.0,0.0,0.0
91,53.0,30.0,30.0,0.0,0.0
92,57.0,0.0,30.0,0.0,0.0
93,53.0,30.0,120.0,1.0,0.0
94,60.0,30.0,30.0,0.0,0.0
95,65.0,30.0,30.0,0.0,0.0
96,69.0,0.0,30.0,0.0,0.0
97,72.0,30.0,30.0,0.0,0.0
98,69.0,30.0,30.0,0.0,0.0
99,65.0,30.0,30.0,0.0,0.0
100,60.0,60.0,30.0,0.0,0.0
101,55.0,60.0,120.0,0.0,0.0
102,58.0,0.0,120.0,0.0,0.0
103,52.0,60.0,60.0,1.0,0.0
104,48.0,0.0,60.0,1.0,0.0
105,55.0,30.0,90.0,0.0,0.0
106,58.0,0.0,90.0,0.0,0.0
107,52.0,30.0,60.0,1.0,0.0
108,48.0,30.0,60.0,1.0,0.0
109,60.0,0.0,30.0,0.0,0.0
110,57.0,30.0,30.0,0.0,0.0
111,53.0,30.0,120.0,1.0,0.0
112,53.0,30.0,30.0,0.0,0.0
113,57.0,30.0,30.0,0.0,0.0
114,60.0,0.0,30.0,0.0,0.0
115,65.0,30.0,30.0,0.0,0.0
116,45.0,30.0,120.0,1.0,0.0
117,60.0,30.0,30.0,0.0,0.0
118,65.0,30.0,30.0,0.0,0.0
119,63.0,0.0,30.0,0.0,0.0
120,63.0,30.0,30.0,0.0,0.0
121,46.0,30.0,120.0,1.0,0.0
122,62.0,30.0,30.0,0.0,0.0
123,60.0,30.0,30.0,0.0,0.0
124,58.0,0.0,30.0,0.0,0.0
125,67.0,30.0,30.0,0.0,0.0
126,47.0,30.0,120.0,1.0,0.0
127,62.0,30.0,30.0,0.0,0.0
128,67.0,30.0,30.0,0.0,0.0
129,65.0,0.0,30.0,0.0,0.0
130,65.0,30.0,30.0,0.0,0.0
131,48.0,60.0,120.0,1.0,0.0
132,64.0,30.0,30.0,0.0,0.0
133,62.0,30.0,30.0,0.0,0.0
134,60.0,0.0,30.0,0.0,0.0
135,72.0,60.0,60.0,0.0,0.0
136,64.0,0.0,60.0,0.0,0.0
137,72.0,60.0,60.0,0.0,0.0
138,64.0,0.0,60.0,0.0,0.0
139,64.0,30.0,60.0,0.0,0.0
140,72.0,0.0,60.0,0.0,0.0
141,43.0,0.0,60.0,1.0,0.0
142,62.0,30.0,30.0,0.0,0.0
143,71.0,0.0,30.0,0.0,0.0
144,55.0,60.0,60.0,1.0,0.0
145,64.0,0.0,30.0,0.0,0.0
146,72.0,0.0,30.0,0.0,0.0
147,74.0,60.0,60.0,0.0,0.0
148,65.0,0.0,60.0,0.0,0.0
149,55.0,0.0,60.0,1.0,0.0
150,65.0,15.0,60.0,0.0,0.0
151,62.0,0.0,60.0,0.0,0.0
152,55.0,0.0,60.0,1.0,0.0
153,67.0,15.0,15.0,0.0,0.0
154,64.0,0.0,15.0,0.0,0.0
155,48.0,60.0,60.0,1.0,0.0
156,62.0,15.0,15.0,0.0,0.0
157,65.0,0.0,15.0,0.0,0.0
158,64.0,15.0,15.0,0.0,0.0
159,67.0,0.0,15.0,0.0,0.0
160,62.0,0.0,15.0,0.0,0.0
161,65.0,0.0,15.0,0.0,0.0
162,60.0,60.0,60.0,0.0,0.0
163,64.0,0.0,60.0,0.0,0.0
164,60.0,0.0,60.0,1.0,0.0
165,64.0,60.0,60.0,0.0,0.0
166,72.0,0.0,60.0,0.0,0.0
167,64.0,30.0,60.0,0.0,0.0
168,72.0,0.0,60.0,0.0,0.0
169,65.0,30.0,30.0,0.0,0.0
170,72.0,0.0,30.0,0.0,0.0
171,55.0,30.0,120.0,1.0,0.0
172,71.0,30.0,30.0,0.0,0.0
173,74.0,30.0,30.0,0.0,0.0
174,72.0,0.0,30.0,0.0,0.0
175,71.0,30.0,30.0,0.0,0.0
176,43.0,30.0,120.0,1.0,0.0
177,69.0,30.0,30.0,0.0,0.0
178,67.0,30.0,30.0,0.0,0.0
179,65.0,0.0,30.0,0.0,0.0
180,64.0,30.0,30.0,0.0,0.0
181,48.0,60.0,120.0,1.0,0.0
182,72.0,30.0,30.0,0.0,0.0
183,71.0,30.0,30.0,0.0,0.0
184,72.0,0.0,30.0,0.0,0.0
185,53.0,60.0,120.0,1.0,0.0
186,69.0,30.0,30.0,0.0,0.0
187,68.0,30.0,30.0,0.0,0.0
188,69.0,0.0,30.0,0.0,0.0
189,55.0,30.0,120.0,1.0,0.0
190,64.0,30.0,30.0,0.0,0.0
191,67.0,0.0,30.0,0.0,0.0
192,63.0,30.0,30.0,0.0,0.0
193,66.0,0.0,30.0,0.0,0.0
194,67.0,0.0,30.0,0.0,0.0
195,64.0,0.0,30.0,0.0,0.0
196,67.0,30.0,30.0,0.0,0.0
197,64.0,0.0,30.0,0.0,0.0
198,43.0,60.0,120.0,1.0,0.0
199,62.0,30.0,30.0,0.0,0.0
200,65.0,0.0,30.0,0.0,0.0
201,60.0,30.0,30.0,0.0,0.0
202,64.0,0.0,30.0,0.0,0.0
203,59.0,0.0,30.0,0.0,0.0
204,62.0,0.0,30.0,0.0,0.0
205,48.0,30.0,120.0,1.0,0.0
206,60.0,30.0,30.0,0.0,0.0
207,59.0,30.0,30.0,0.0,0.0
208,60.0,0.0,30.0,0.0,0.0
209,62.0,30.0,30.0,0.0,0.0
210,60.0,30.0,30.0,0.0,0.0
211,62.0,30.0,30.0,0.0,0.0
212,64.0,60.0,30.0,0.0,0.0
213,65.0,60.0,60.0,0.0,0.0
214,57.0,0.0,60.0,0.0,0.0
215,41.0,0.0,120.0,1.0,0.0
216,53.0,0.0,120.0,1.0,0.0
217,60.0,60.0,60.0,0.0,0.0
218,64.0,0.0,60.0,0.0,0.0
219,58.0,60.0,60.0,0.0,0.0
220,62.0,0.0,60.0,0.0,0.0
221,53.0,0.0,60.0,1.0,0.0
222,57.0,15.0,60.0,0.0,0.0
223,60.0,0.0,60.0,0.0,0.0
224,53.0,0.0,60.0,1.0,0.0
225,60.0,15.0,15.0,0.0,0.0
226,64.0,0.0,15.0,0.0,0.0
227,53.0,60.0,60.0,1.0,0.0
228,58.0,15.0,15.0,0.0,0.0
229,62.0,0.0,15.0,0.0,0.0
230,60.0,15.0,15.0,0.0,0.0
231,64.0,0.0,15.0,0.0,0.0
232,58.0,0.0,15.0,0.0,0.0
233,62.0,0.0,15.0,0.0,0.0
234,57.0,60.0,60.0,0.0,0.0
235,60.0,0.0,60.0,0.0,0.0
236,53.0,0.0,60.0,1.0,0.0
237,60.0,60.0,60.0,0.0,0.0
238,60.0,60.0,60.0,0.0,0.0
239,65.0,15.0,90.0,0.0,0.0
240,60.0,0.0,90.0,0.0,0.0
241,57.0,30.0,60.0,1.0,0.0
242,53.0,60.0,60.0,1.0,0.0
243,67.0,15.0,15.0,0.0,0.0
244,69.0,0.0,15.0,0.0,0.0
245,60.0,0.0,60.0,0.0,0.0
246,67.0,0.0,60.0,0.0,0.0
247,70.0,60.0,60.0,0.0,0.0
248,52.0,0.0,60.0,1.0,0.0
249,60.0,0.0,60.0,0.0,0.0
250,65.0,0.0,60.0,0.0,0.0
251,69.0,60.0,60.0,0.0,0.0
252,53.0,0.0,60.0,1.0,0.0
253,69.0,0.0,60.0,0.0,0.0
254,65.0,0.0,60.0,0.0,0.0
255,60.0,60.0,60.0,0.0,0.0
256,48.0,0.0,60.0,1.0,0.0
257,67.0,0.0,60.0,0.0,0.0
258,64.0,0.0,60.0,0.0,0.0
259,60.0,60.0,60.0,0.0,0.0
260,36.0,0.0,60.0,1.0,0.0
261,60.0,60.0,60.0,0.0,0.0
262,60.0,60.0,60.0,0.0,0.0
263,57.0,60.0,60.0,0.0,0.0
264,65.0,0.0,60.0,0.0,0.0
265,41.0,0.0,120.0,1.0,0.0
266,53.0,0.0,120.0,1.0,0.0
267,64.0,60.0,60.0,0.0,0.0
268,60.0,0.0,60.0,0.0,0.0
269,58.0,60.0,60.0,0.0,0.0
270,62.0,0.0,60.0,0.0,0.0
271,53.0,0.0,60.0,1.0,0.0
272,57.0,15.0,60.0,0.0,0.0
273,60.0,0.0,60.0,0.0,0.0
274,53.0,0.0,60.0,1.0,0.0
275,60.0,15.0,15.0,0.0,0.0
276,64.0,0.0,15.0,0.0,0.0
277,53.0,60.0,60.0,1.0,0.0
278,58.0,15.0,15.0,0.0,0.0
279,62.0,0.0,15.0,0.0,0.0
280,60.0,15.0,15.0,0.0,0.0
281,64.0,0.0,15.0,0.0,0.0
282,58.0,0.0,15.0,0.0,0.0
283,62.0,0.0,15.0,0.0,0.0
284,57.0,60.0,60.0,0.0,0.0
285,60.0,0.0,60.0,0.0,0.0
286,53.0,0.0,60.0,1.0,0.0
287,65.0,60.0,60.0,0.0,0.0
288,65.0,60.0,60.0,0.0,0.0
289,62.0,30.0,90.0,0.0,0.0
290,70.0,0.0,90.0,0.0,0.0
291,46.0,30.0,60.0,1.0,0.0
292,46.0,60.0,60.0,1.0,0.0
293,69.0,0.0,30.0,0.0,0.0
294,67.0,60.0,60.0,0.0,0.0
295,64.0,0.0,60.0,0.0,0.0
296,48.0,0.0,60.0,1.0,0.0
297,69.0,120.0,60.0,0.0,0.0
298,48.0,0.0,60.0,1.0,0.0
299,65.0,30.0,120.0,0.0,0.0
300,57.0,0.0,120.0,0.0,0.0
301,41.0,0.0,120.0,1.0,0.0
302,60.0,30.0,30.0,0.0,0.0
303,68.0,30.0,30.0,0.0,0.0
304,72.0,30.0,30.0,0.0,0.0
305,70.0,60.0,30.0,0.0,0.0
306,60.0,60.0,120.0,0.0,0.0
307,68.0,0.0,120.0,0.0,0.0
308,53.0,30.0,30.0,1.0,0.0
309,52.0,30.0,30.0,1.0,0.0
310,53.0,0.0,30.0,1.0,0.0
311,41.0,60.0,120.0,1.0,0.0
312,60.0,30.0,30.0,0.0,0.0
313,68.0,30.0,30.0,0.0,0.0
314,65.0,0.0,30.0,0.0,0.0
315,64.0,30.0,120.0,0.0,0.0
316,48.0,30.0,30.0,1.0,0.0
317,47.0,30.0,30.0,1.0,0.0
318,48.0,0.0,30.0,1.0,0.0
319,60.0,30.0,30.0,0.0,0.0
320,36.0,60.0,120.0,1.0,0.0
321,67.0,30.0,30.0,0.0,0.0
322,70.0,30.0,30.0,0.0,0.0
323,68.0,0.0,30.0,0.0,0.0
324,67.0,30.0,150.0,0.0,0.0
325,48.0,30.0,30.0,1.0,0.0
326,47.0,30.0,30.0,1.0,0.0
327,48.0,30.0,30.0,1.0,0.0
328,36.0,60.0,120.0,1.0,0.0
329,64.0,30.0,30.0,0.0,0.0
330,60.0,30.0,30.0,0.0,0.0
331,58.0,0.0,30.0,0.0,0.0
332,56.0,30.0,180.0,0.0,0.0
333,41.0,30.0,30.0,1.0,0.0
334,53.0,30.0,30.0,1.0,0.0
335,52.0,60.0,30.0,1.0,0.0
336,53.0,0.0,60.0,1.0,0.0
337,57.0,30.0,60.0,0.0,0.0
338,51.0,30.0,30.0,1.0,0.0
339,53.0,0.0,30.0,1.0,0.0
340,58.0,30.0,60.0,0.0,0.0
341,49.0,30.0,30.0,1.0,0.0
342,53.0,0.0,30.0,1.0,0.0
343,60.0,30.0,60.0,0.0,0.0
344,48.0,30.0,30.0,1.0,0.0
345,53.0,0.0,30.0,1.0,0.0
346,61.0,30.0,60.0,0.0,0.0
347,46.0,30.0,30.0,1.0,0.0
348,53.0,0.0,30.0,1.0,0.0
349,63.0,30.0,60.0,0.0,0.0
350,45.0,30.0,30.0,1.0,0.0
351,53.0,0.0,30.0,1.0,0.0
352,61.0,30.0,60.0,0.0,0.0
353,46.0,30.0,30.0,1.0,0.0
354,53.0,0.0,30.0,1.0,0.0
355,60.0,30.0,60.0,0.0,0.0
356,48.0,30.0,30.0,1.0,0.0
357,53.0,0.0,30.0,1.0,0.0
358,58.0,30.0,60.0,0.0,0.0
359,49.0,30.0,30.0,1.0,0.0
360,53.0,0.0,30.0,1.0,0.0
361,57.0,30.0,60.0,0.0,0.0
362,51.0,30.0,30.0,1.0,0.0
363,53.0,0.0,30.0,1.0,0.0
364,58.0,30.0,30.0,0.0,0.0
365,49.0,30.0,120.0,1.0,0.0
366,60.0,30.0,30.0,0.0,0.0
367,61.0,30.0,30.0,0.0,0.0
368,60.0,0.0,30.0,0.0,0.0
369,58.0,30.0,30.0,0.0,0.0
370,46.0,30.0,60.0,1.0,0.0
371,56.0,0.0,30.0,0.0,0.0
372,55.0,30.0,30.0,0.0,0.0
373,47.0,30.0,60.0,1.0,0.0
374,53.0,0.0,30.0,0.0,0.0
375,52.0,30.0,30.0,1.0,0.0
376,48.0,120.0,120.0,1.0,0.0
377,60.0,30.0,30.0,1.0,0.0
378,55.0,30.0,30.0,1.0,0.0
379,52.0,0.0,30.0,1.0,0.0
380,48.0,30.0,120.0,1.0,0.0
381,36.0,0.0,60.0,1.0,0.0
382,51.0,30.0,30.0,0.0,0.0
383,44.0,30.0,120.0,1.0,0.0
384,56.0,30.0,30.0,0.0,0.0
385,60.0,30.0,30.0,0.0,0.0
386,63.0,0.0,30.0,0.0,0.0
387,61.0,30.0,30.0,0.0,0.0
388,32.0,30.0,120.0,1.0,0.0
389,60.0,30.0,30.0,0.0,0.0
390,58.0,30.0,30.0,0.0,0.0
391,56.0,0.0,30.0,0.0,0.0
392,55.0,30.0,30.0,0.0,0.0
393,34.0,30.0,120.0,1.0,0.0
394,56.0,30.0,30.0,0.0,0.0
395,58.0,30.0,30.0,0.0,0.0
396,60.0,0.0,30.0,0.0,0.0
397,61.0,30.0,30.0,0.0,0.0
398,60.0,30.0,30.0,0.0,0.0
399,58.0,30.0,30.0,0.0,0.0
400,56.0,30.0,30.0,0.0,0.0
401,55.0,30.0,30.0,0.0,0.0
402,39.0,30.0,120.0,1.0,0.0
403,56.0,30.0,30.0,0.0,0.0
404,58.0,30.0,30.0,0.0,0.0
405,56.0,0.0,30.0,0.0,0.0
406,55.0,30.0,30.0,0.0,0.0
407,53.0,30.0,30.0,0.0,0.0
408,51.0,30.0,30.0,0.0,0.0
409,49.0,30.0,30.0,0.0,0.0
410,48.0,30.0,30.0,0.0,0.0
411,32.0,30.0,120.0,1.0,0.0
412,51.0,30.0,30.0,0.0,0.0
413,56.0,30.0,30.0,0.0,0.0
414,60.0,0.0,30.0,0.0,0.0
415,63.0,30.0,30.0,0.0,0.0
416,36.0,30.0,120.0,1.0,0.0
417,60.0,30.0,30.0,0.0,0.0
418,58.0,30.0,30.0,0.0,0.0
419,56.0,0.0,30.0,0.0,0.0
420,65.0,30.0,30.0,0.0,0.0
421,37.0,30.0,120.0,1.0,0.0
422,61.0,30.0,30.0,0.0,0.0
423,60.0,30.0,30.0,0.0,0.0
424,58.0,0.0,30.0,0.0,0.0
425,57.0,30.0,30.0,0.0,0.0
426,58.0,30.0,30.0,0.0,0.0
427,60.0,30.0,30.0,0.0,0.0
428,58.0,30.0,30.0,0.0,0.0
429,63.0,30.0,30.0,0.0,0.0
430,39.0,30.0,120.0,1.0,0.0
431,60.0,30.0,30.0,0.0,0.0
432,58.0,30.0,30.0,0.0,0.0
433,56.0,0.0,30.0,0.0,0.0
434,61.0,30.0,30.0,0.0,0.0
435,39.0,60.0,120.0,1.0,0.0
436,58.0,30.0,30.0,0.0,0.0
437,56.0,30.0,30.0,0.0,0.0
438,55.0,0.0,30.0,0.0,0.0
439,56.0,30.0,120.0,0.0,0.0
440,32.0,30.0,30.0,1.0,0.0
441,44.0,30.0,30.0,1.0,0.0
442,46.0,0.0,30.0,1.0,0.0
443,48.0,30.0,30.0,1.0,0.0
444,46.0,30.0,30.0,1.0,0.0
445,44.0,30.0,30.0,1.0,0.0
446,43.0,30.0,30.0,1.0,0.0
447,60.0,60.0,120.0,0.0,0.0
448,41.0,30.0,30.0,1.0,0.0
449,53.0,30.0,30.0,1.0,0.0
450,52.0,30.0,30.0,1.0,0.0
451,53.0,0.0,30.0,1.0,0.0
452,41.0,60.0,120.0,1.0,0.0
453,60.0,30.0,30.0,0.0,0.0
454,68.0,30.0,30.0,0.0,0.0
455,65.0,0.0,30.0,0.0,0.0
456,64.0,30.0,120.0,0.0,0.0
457,48.0,30.0,30.0,1.0,0.0
458,47.0,30.0,30.0,1.0,0.0
459,48.0,0.0,30.0,1.0,0.0
460,60.0,30.0,30.0,0.0,0.0
461,36.0,60.0,120.0,1.0,0.0
462,67.0,30.0,30.0,0.0,0.0
463,70.0,30.0,30.0,0.0,0.0
464,68.0,0.0,30.0,0.0,0.0
465,67.0,30.0,150.0,0.0,0.0
466,48.0,30.0,30.0,1.0,0.0
467,47.0,30.0,30.0,1.0,0.0
468,48.0,30.0,30.0,1.0,0.0
469,36.0,60.0,120.0,1.0,0.0
470,64.0,30.0,30.0,0.0,0.0
471,60.0,30.0,30.0,0.0,0.0
472,58.0,0.0,30.0,0.0,0.0
473,56.0,30.0,60.0,0.0,0.0
474,41.0,0.0,30.0,1.0,0.0
475,56.0,30.0,120.0,0.0,0.0
476,68.0,0.0,120.0,0.0,0.0
477,53.0,30.0,30.0,1.0,0.0
478,52.0,60.0,30.0,1.0,0.0
479,53.0,0.0,60.0,1.0,0.0
480,57.0,30.0,60.0,0.0,0.0
481,69.0,0.0,60.0,0.0,0.0
482,51.0,30.0,30.0,1.0,0.0
483,53.0,0.0,30.0,1.0,0.0
484,70.0,30.0,60.0,0.0,0.0
485,58.0,0.0,60.0,0.0,0.0
486,49.0,30.0,30.0,1.0,0.0
487,53.0,0.0,30.0,1.0,0.0
488,72.0,30.0,60.0,0.0,0.0
489,60.0,0.0,60.0,0.0,0.0
490,48.0,30.0,30.0,1.0,0.0
491,53.0,0.0,30.0,1.0,0.0
492,73.0,30.0,60.0,0.0,0.0
493,61.0,0.0,60.0,0.0,0.0
494,46.0,30.0,30.0,1.0,0.0
495,53.0,0.0,30.0,1.0,0.0
496,75.0,30.0,60.0,0.0,0.0
497,63.0,0.0,60.0,0.0,0.0
498,45.0,30.0,30.0,1.0,0.0
499,53.0,0.0,30.0,1.0,0.0
500,61.0,30.0,60.0,0.0,0.0
501,73.0,0.0,60.0,0.0,0.0
502,46.0,30.0,30.0,1.0,0.0
503,53.0,0.0,30.0,1.0,0.0
504,60.0,30.0,60.0,0.0,0.0
505,72.0,0.0,60.0,0.0,0.0
506,48.0,30.0,30.0,1.0,0.0
507,53.0,0.0,30.0,1.0,0.0
508,58.0,30.0,60.0,0.0,0.0
509,70.0,0.0,60.0,0.0,0.0
510,49.0,30.0,30.0,1.0,0.0
511,53.0,0.0,30.0,1.0,0.0
512,57.0,60.0,60.0,0.0,0.0
513,69.0,0.0,60.0,0.0,0.0
514,51.0,30.0,30.0,1.0,0.0
515,53.0,0.0,30.0,1.0,0.0
516,58.0,60.0,60.0,0.0,0.0
517,70.0,0.0,60.0,0.0,0.0
518,49.0,30.0,120.0,1.0,0.0
519,70.0,30.0,90.0,0.0,0.0
520,46.0,30.0,120.0,1.0,0.0
521,73.0,30.0,30.0,0.0,0.0
522,72.0,30.0,30.0,0.0,0.0
523,70.0,0.0,30.0,0.0,0.0
524,68.0,30.0,30.0,0.0,0.0
525,48.0,30.0,120.0,1.0,0.0
526,72.0,30.0,30.0,0.0,0.0
527,70.0,30.0,30.0,0.0,0.0
528,67.0,0.0,30.0,0.0,0.0
529,65.0,30.0,30.0,0.0,0.0
530,36.0,120.0,120.0,1.0,0.0
531,68.0,30.0,30.0,0.0,0.0
532,67.0,30.0,30.0,0.0,0.0
533,64.0,0.0,30.0,0.0,0.0
534,65.0,60.0,120.0,0.0,0.0
535,41.0,0.0,120.0,1.0,0.0
536,60.0,60.0,60.0,0.0,0.0
537,60.0,60.0,60.0,0.0,0.0
538,57.0,60.0,60.0,0.0,0.0
539,65.0,0.0,60.0,0.0,0.0
540,41.0,0.0,120.0,1.0,0.0
541,53.0,0.0,120.0,1.0,0.0
542,64.0,60.0,60.0,0.0,0.0
543,60.0,0.0,60.0,0.0,0.0
544,58.0,0.0,60.0,0.0,0.0
545,62.0,0.0,60.0,0.0,0.0
546,41.0,60.0,60.0,1.0,0.0
547,53.0,0.0,60.0,1.0,0.0
548,60.0,0.0,60.0,0.0,0.0
549,57.0,0.0,60.0,0.0,0.0
550,41.0,15.0,60.0,1.0,0.0
551,53.0,0.0,60.0,1.0,0.0
552,60.0,15.0,15.0,0.0,0.0
553,64.0,0.0,15.0,0.0,0.0
554,53.0,60.0,60.0,1.0,0.0
555,58.0,15.0,15.0,0.0,0.0
556,62.0,0.0,15.0,0.0,0.0
557,60.0,15.0,15.0,0.0,0.0
558,64.0,0.0,15.0,0.0,0.0
559,58.0,0.0,15.0,0.0,0.0
560,62.0,0.0,15.0,0.0,0.0
561,57.0,60.0,60.0,0.0,0.0
562,60.0,0.0,60.0,0.0,0.0
563,53.0,0.0,60.0,1.0,0.0
564,60.0,60.0,60.0,0.0,0.0
565,60.0,60.0,60.0,0.0,0.0
566,65.0,30.0,60.0,0.0,0.0
567,60.0,0.0,60.0,0.0,0.0
568,57.0,0.0,60.0,1.0,0.0
569,67.0,30.0,30.0,0.0,0.0
570,53.0,60.0,60.0,1.0,0.0
571,69.0,0.0,30.0,0.0,0.0
572,60.0,0.0,60.0,0.0,0.0
573,70.0,0.0,60.0,0.0,0.0
574,67.0,60.0,60.0,0.0,0.0
575,52.0,0.0,60.0,1.0,0.0
576,69.0,0.0,60.0,0.0,0.0
577,60.0,0.0,60.0,0.0,0.0
578,65.0,60.0,60.0,0.0,0.0
579,53.0,0.0,60.0,1.0,0.0
580,60.0,0.0,60.0,0.0,0.0
581,65.0,0.0,60.0,0.0,0.0
582,69.0,60.0,60.0,0.0,0.0
583,48.0,0.0,60.0,1.0,0.0
584,60.0,0.0,60.0,0.0,0.0
585,67.0,0.0,60.0,0.0,0.0
586,64.0,60.0,60.0,0.0,0.0
587,36.0,0.0,60.0,1.0,0.0
588,60.0,60.0,60.0,0.0,0.0
589,60.0,60.0,60.0,0.0,0.0
590,57.0,60.0,60.0,0.0,0.0
591,65.0,0.0,60.0,0.0,0.0
592,41.0,0.0,120.0,1.0,0.0
593,53.0,0.0,120.0,1.0,0.0
594,60.0,60.0,60.0,0.0,0.0
595,64.0,0.0,60.0,0.0,0.0
596,58.0,0.0,60.0,0.0,0.0
597,62.0,0.0,60.0,0.0,0.0
598,41.0,60.0,60.0,1.0,0.0
599,53.0,0.0,60.0,1.0,0.0
600,60.0,0.0,60.0,0.0,0.0
601,57.0,0.0,60.0,0.0,0.0
602,41.0,15.0,60.0,1.0,0.0
603,53.0,0.0,60.0,1.0,0.0
604,60.0,15.0,15.0,0.0,0.0
605,64.0,0.0,15.0,0.0,0.0
606,53.0,60.0,60.0,1.0,0.0
607,58.0,15.0,15.0,0.0,0.0
608,62.0,0.0,15.0,0.0,0.0
609,60.0,15.0,15.0,0.0,0.0
610,64.0,0.0,15.0,0.0,0.0
611,58.0,0.0,15.0,0.0,0.0
612,62.0,0.0,15.0,0.0,0.0
613,57.0,60.0,60.0,0.0,0.0
614,60.0,0.0,60.0,0.0,0.0
615,53.0,0.0,60.0,1.0,0.0
616,65.0,60.0,60.0,0.0,0.0
617,65.0,60.0,60.0,0.0,0.0
618,62.0,30.0,90.0,0.0,0.0
619,70.0,0.0,90.0,0.0,0.0
620,46.0,30.0,60.0,1.0,0.0
621,48.0,60.0,60.0,1.0,0.0
622,69.0,0.0,30.0,0.0,0.0
623,67.0,60.0,60.0,0.0,0.0
624,64.0,0.0,60.0,0.0,0.0
625,48.0,0.0,60.0,1.0,0.0
626,69.0,120.0,60.0,0.0,0.0
627,48.0,0.0,60.0,1.0,0.0
628,57.0,0.0,120.0,0.0,0.0
629,65.0,0.0,120.0,0.0,0.0
630,53.0,120.0,120.0,1.0,0.0
631,41.0,0.0,120.0,1.0,0.0
632,65.0,20.0,120.0,0.0,0.0
633,62.0,0.0,120.0,0.0,0.0
634,62.0,20.0,20.0,0.0,0.0
635,65.0,0.0,20.0,0.0,0.0
636,46.0,20.0,120.0,1.0,0.0
637,63.0,20.0,20.0,0.0,0.0
638,67.0,0.0,20.0,0.0,0.0
639,65.0,20.0,20.0,0.0,0.0
640,62.0,0.0,20.0,0.0,0.0
641,67.0,20.0,20.0,0.0,0.0
642,70.0,0.0,20.0,0.0,0.0
643,69.0,20.0,20.0,0.0,0.0
644,65.0,0.0,20.0,0.0,0.0
645,63.0,0.0,20.0,0.0,0.0
646,67.0,0.0,20.0,0.0,0.0
647,62.0,20.0,20.0,0.0,0.0
648,65.0,0.0,20.0,0.0,0.0
649,34.0,30.0,120.0,1.0,0.0
650,67.0,20.0,20.0,0.0,0.0
651,63.0,0.0,20.0,0.0,0.0
652,65.0,20.0,20.0,0.0,0.0
653,62.0,0.0,20.0,0.0,0.0
654,62.0,20.0,20.0,0.0,0.0
655,65.0,0.0,20.0,0.0,0.0
656,60.0,20.0,20.0,0.0,0.0
657,63.0,0.0,20.0,0.0,0.0
658,62.0,0.0,20.0,0.0,0.0
659,58.0,0.0,20.0,0.0,0.0
660,57.0,30.0,30.0,0.0,0.0
661,60.0,0.0,30.0,0.0,0.0
662,41.0,30.0,120.0,1.0,0.0
663,65.0,30.0,30.0,0.0,0.0
664,69.0,30.0,30.0,0.0,0.0
665,70.0,0.0,30.0,0.0,0.0
666,72.0,30.0,30.0,0.0,0.0
667,69.0,30.0,30.0,0.0,0.0
668,65.0,30.0,30.0,0.0,0.0
669,63.0,20.0,30.0,0.0,0.0
670,62.0,20.0,20.0,0.0,0.0
671,46.0,20.0,180.0,1.0,0.0
672,63.0,20.0,20.0,0.0,0.0
673,62.0,20.0,20.0,0.0,0.0
674,74.0,20.0,20.0,0.0,0.0
675,72.0,20.0,20.0,0.0,0.0
676,70.0,20.0,20.0,0.0,0.0
677,69.0,20.0,20.0,0.0,0.0
678,70.0,20.0,20.0,0.0,0.0
679,69.0,0.0,20.0,0.0,0.0
680,67.0,20.0,20.0,0.0,0.0
681,47.0,20.0,60.0,1.0,0.0
682,69.0,20.0,20.0,0.0,0.0
683,65.0,0.0,20.0,0.0,0.0
684,64.0,20.0,20.0,0.0,0.0
685,48.0,20.0,120.0,1.0,0.0
686,67.0,20.0,20.0,0.0,0.0
687,65.0,20.0,20.0,0.0,0.0
688,64.0,20.0,20.0,0.0,0.0
689,62.0,20.0,20.0,0.0,0.0
690,60.0,0.0,20.0,0.0,0.0
691,69.0,20.0,20.0,0.0,0.0
692,72.0,0.0,20.0,0.0,0.0
693,36.0,20.0,120.0,1.0,0.0
694,60.0,0.0,20.0,0.0,0.0
695,69.0,20.0,20.0,0.0,0.0
696,72.0,0.0,20.0,0.0,0.0
697,69.0,20.0,20.0,0.0,0.0
698,72.0,0.0,20.0,0.0,0.0
699,67.0,20.0,20.0,0.0,0.0
700,70.0,0.0,20.0,0.0,0.0
701,69.0,0.0,20.0,0.0,0.0
702,65.0,0.0,20.0,0.0,0.0
703,67.0,20.0,20.0,0.0,0.0
704,70.0,0.0,20.0,0.0,0.0
705,48.0,20.0,60.0,1.0,0.0
706,70.0,0.0,20.0,0.0,0.0
707,67.0,0.0,20.0,0.0,0.0
708,64.0,20.0,20.0,0.0,0.0
709,36.0,20.0,60.0,1.0,0.0
710,62.0,20.0,20.0,0.0,0.0
711,60.0,0.0,20.0,0.0,0.0
712,67.0,20.0,20.0,0.0,0.0
713,70.0,0.0,20.0,0.0,0.0
714,48.0,20.0,120.0,1.0,0.0
715,60.0,0.0,20.0,0.0,0.0
716,67.0,20.0,20.0,0.0,0.0
717,70.0,0.0,20.0,0.0,0.0
718,70.0,20.0,20.0,0.0,0.0
719,67.0,0.0,20.0,0.0,0.0
720,65.0,20.0,20.0,0.0,0.0
721,69.0,0.0,20.0,0.0,0.0
722,67.0,0.0,20.0,0.0,0.0
723,64.0,0.0,20.0,0.0,0.0
724,69.0,20.0,20.0,0.0,0.0
725,41.0,20.0,60.0,1.0,0.0
726,65.0,20.0,20.0,0.0,0.0
727,69.0,0.0,20.0,0.0,0.0
728,70.0,20.0,20.0,0.0,0.0
729,43.0,20.0,60.0,1.0,0.0
730,65.0,20.0,20.0,0.0,0.0
731,70.0,0.0,20.0,0.0,0.0
732,72.0,20.0,20.0,0.0,0.0
733,45.0,20.0,60.0,1.0,0.0
734,65.0,20.0,20.0,0.0,0.0
735,72.0,0.0,20.0,0.0,0.0
736,74.0,20.0,20.0,0.0,0.0
737,46.0,20.0,60.0,1.0,0.0
738,65.0,20.0,20.0,0.0,0.0
739,74.0,0.0,20.0,0.0,0.0
740,76.0,20.0,20.0,0.0,0.0
741,48.0,20.0,60.0,1.0,0.0
742,65.0,20.0,20.0,0.0,0.0
743,76.0,0.0,20.0,0.0,0.0
744,77.0,20.0,20.0,0.0,0.0
745,50.0,20.0,60.0,1.0,0.0
746,65.0,20.0,20.0,0.0,0.0
747,77.0,0.0,20.0,0.0,0.0
748,76.0,20.0,20.0,0.0,0.0
749,48.0,20.0,60.0,1.0,0.0
750,65.0,20.0,20.0,0.0,0.0
751,76.0,0.0,20.0,0.0,0.0
752,74.0,20.0,20.0,0.0,0.0
753,46.0,20.0,60.0,1.0,0.0
754,65.0,20.0,20.0,0.0,0.0
755,74.0,0.0,20.0,0.0,0.0
756,72.0,20.0,20.0,0.0,0.0
757,45.0,20.0,60.0,1.0,0.0
758,77.0,20.0,20.0,0.0,0.0
759,76.0,0.0,20.0,0.0,0.0
760,74.0,20.0,20.0,0.0,0.0
761,46.0,20.0,60.0,1.0,0.0
762,72.0,20.0,20.0,0.0,0.0
763,70.0,0.0,20.0,0.0,0.0
764,69.0,20.0,20.0,0.0,0.0
765,72.0,0.0,20.0,0.0,0.0
766,48.0,20.0,60.0,1.0,0.0
767,70.0,20.0,20.0,0.0,0.0
768,74.0,0.0,20.0,0.0,0.0
769,69.0,0.0,20.0,0.0,0.0
770,72.0,0.0,20.0,0.0,0.0
771,67.0,20.0,20.0,0.0,0.0
772,70.0,0.0,20.0,0.0,0.0
773,36.0,20.0,60.0,1.0,0.0
774,65.0,20.0,20.0,0.0,0.0
775,69.0,0.0,20.0,0.0,0.0
776,67.0,0.0,20.0,0.0,0.0
777,64.0,0.0,20.0,0.0,0.0
778,65.0,20.0,60.0,0.0,0.0
779,41.0,20.0,20.0,1.0,0.0
780,45.0,20.0,20.0,1.0,0.0
781,48.0,0.0,20.0,1.0,0.0
782,53.0,20.0,20.0,1.0,0.0
783,54.0,20.0,20.0,1.0,0.0
784,55.0,20.0,20.0,1.0,0.0
785,56.0,20.0,20.0,1.0,0.0
786,55.0,20.0,20.0,1.0,0.0
787,53.0,20.0,20.0,1.0,0.0
788,51.0,20.0,20.0,1.0,0.0
789,50.0,20.0,20.0,1.0,0.0
790,48.0,40.0,20.0,1.0,0.0
791,47.0,20.0,60.0,1.0,0.0
792,67.0,20.0,20.0,0.0,0.0
793,71.0,0.0,20.0,0.0,0.0
794,74.0,20.0,20.0,0.0,0.0
795,75.0,20.0,20.0,0.0,0.0
796,76.0,20.0,20.0,0.0,0.0
797,77.0,20.0,20.0,0.0,0.0
798,43.0,20.0,120.0,1.0,0.0
799,74.0,20.0,20.0,0.0,0.0
800,71.0,20.0,20.0,0.0,0.0
801,67.0,20.0,20.0,0.0,0.0
802,68.0,20.0,20.0,0.0,0.0
803,65.0,0.0,20.0,0.0,0.0
804,63.0,20.0,60.0,0.0,0.0
805,36.0,20.0,20.0,1.0,0.0
806,39.0,20.0,20.0,1.0,0.0
807,43.0,0.0,20.0,1.0,0.0
808,48.0,20.0,20.0,1.0,0.0
809,51.0,20.0,20.0,1.0,0.0
810,53.0,20.0,20.0,1.0,0.0
811,55.0,20.0,20.0,1.0,0.0
812,53.0,20.0,20.0,1.0,0.0
813,51.0,20.0,20.0,1.0,0.0
814,50.0,20.0,20.0,1.0,0.0
815,48.0,20.0,20.0,1.0,0.0
816,46.0,40.0,20.0,1.0,0.0
817,45.0,20.0,120.0,1.0,0.0
818,65.0,20.0,20.0,0.0,0.0
819,69.0,20.0,20.0,0.0,0.0
820,72.0,20.0,20.0,0.0,0.0
821,75.0,20.0,20.0,0.0,0.0
822,72.0,0.0,20.0,0.0,0.0
823,69.0,20.0,20.0,0.0,0.0
824,41.0,20.0,120.0,1.0,0.0
825,72.0,20.0,20.0,0.0,0.0
826,69.0,20.0,20.0,0.0,0.0
827,65.0,20.0,20.0,0.0,0.0
828,69.0,20.0,20.0,0.0,0.0
829,63.0,0.0,20.0,0.0,0.0
830,61.0,20.0,60.0,0.0,0.0
831,58.0,20.0,120.0,0.0,0.0
832,46.0,20.0,20.0,1.0,0.0
833,48.0,20.0,20.0,1.0,0.0
834,46.0,0.0,20.0,1.0,0.0
835,62.0,0.0,60.0,0.0,0.0
836,44.0,20.0,20.0,1.0,0.0
837,46.0,20.0,20.0,1.0,0.0
838,44.0,0.0,20.0,1.0,0.0
839,63.0,20.0,60.0,0.0,0.0
840,58.0,60.0,120.0,0.0,0.0
841,42.0,20.0,20.0,1.0,0.0
842,44.0,20.0,20.0,1.0,0.0
843,42.0,0.0,20.0,1.0,0.0
844,65.0,0.0,60.0,0.0,0.0
845,41.0,20.0,20.0,1.0,0.0
846,42.0,20.0,20.0,1.0,0.0
847,41.0,0.0,20.0,1.0,0.0
848,66.0,30.0,90.0,0.0,0.0
849,51.0,30.0,60.0,1.0,0.0
850,39.0,20.0,120.0,1.0,0.0
851,65.0,20.0,30.0,0.0,0.0
852,63.0,20.0,20.0,0.0,0.0
853,65.0,20.0,20.0,0.0,0.0
854,61.0,0.0,20.0,0.0,0.0
855,60.0,20.0,20.0,0.0,0.0
856,40.0,20.0,60.0,1.0,0.0
857,61.0,20.0,20.0,0.0,0.0
858,58.0,0.0,20.0,0.0,0.0
859,57.0,20.0,20.0,0.0,0.0
860,41.0,20.0,120.0,1.0,0.0
861,58.0,20.0,20.0,0.0,0.0
862,60.0,20.0,20.0,0.0,0.0
863,58.0,20.0,20.0,0.0,0.0
864,57.0,20.0,20.0,0.0,0.0
865,55.0,0.0,20.0,0.0,0.0
866,53.0,20.0,20.0,1.0,0.0
867,55.0,20.0,20.0,1.0,0.0
868,53.0,20.0,20.0,1.0,0.0
869,51.0,20.0,20.0,1.0,0.0
870,50.0,20.0,20.0,1.0,0.0
871,48.0,20.0,20.0,1.0,0.0
872,62.0,20.0,20.0,0.0,0.0
873,65.0,0.0,20.0,0.0,0.0
874,46.0,20.0,120.0,1.0,0.0
875,63.0,20.0,20.0,0.0,0.0
876,67.0,0.0,20.0,0.0,0.0
877,65.0,20.0,20.0,0.0,0.0
878,62.0,0.0,20.0,0.0,0.0
879,67.0,20.0,20.0,0.0,0.0
880,70.0,0.0,20.0,0.0,0.0
881,69.0,20.0,20.0,0.0,0.0
882,65.0,0.0,20.0,0.0,0.0
883,63.0,0.0,20.0,0.0,0.0
884,67.0,0.0,20.0,0.0,0.0
885,62.0,20.0,20.0,0.0,0.0
886,65.0,0.0,20.0,0.0,0.0
887,34.0,30.0,120.0,1.0,0.0
888,67.0,20.0,20.0,0.0,0.0
889,63.0,0.0,20.0,0.0,0.0
890,65.0,20.0,20.0,0.0,0.0
891,62.0,0.0,20.0,0.0,0.0
892,62.0,20.0,20.0,0.0,0.0
893,65.0,0.0,20.0,0.0,0.0
894,60.0,20.0,20.0,0.0,0.0
895,63.0,0.0,20.0,0.0,0.0
896,62.0,0.0,20.0,0.0,0.0
897,58.0,0.0,20.0,0.0,0.0
898,57.0,30.0,30.0,0.0,0.0
899,60.0,0.0,30.0,0.0,0.0
900,41.0,30.0,120.0,1.0,0.0
901,65.0,30.0,30.0,0.0,0.0
902,69.0,30.0,30.0,0.0,0.0
903,70.0,0.0,30.0,0.0,0.0
904,72.0,30.0,30.0,0.0,0.0
905,69.0,30.0,30.0,0.0,0.0
906,65.0,30.0,30.0,0.0,0.0
907,63.0,20.0,30.0,0.0,0.0
908,62.0,20.0,20.0,0.0,0.0
909,65.0,0.0,20.0,0.0,0.0
910,46.0,20.0,120.0,1.0,0.0
911,63.0,20.0,20.0,0.0,0.0
912,67.0,0.0,20.0,0.0,0.0
913,65.0,20.0,20.0,0.0,0.0
914,62.0,0.0,20.0,0.0,0.0
915,67.0,20.0,20.0,0.0,0.0
916,70.0,0.0,20.0,0.0,0.0
917,69.0,20.0,20.0,0.0,0.0
918,65.0,0.0,20.0,0.0,0.0
919,63.0,0.0,20.0,0.0,0.0
920,67.0,0.0,20.0,0.0,0.0
921,62.0,20.0,20.0,0.0,0.0
922,65.0,0.0,20.0,0.0,0.0
923,34.0,30.0,120.0,1.0,0.0
924,67.0,20.0,20.0,0.0,0.0
925,63.0,0.0,20.0,0.0,0.0
926,65.0,20.0,20.0,0.0,0.0
927,62.0,0.0,20.0,0.0,0.0
928,62.0,20.0,20.0,0.0,0.0
929,65.0,0.0,20.0,0.0,0.0
930,60.0,20.0,20.0,0.0,0.0
931,63.0,0.0,20.0,0.0,0.0
932,62.0,0.0,20.0,0.0,0.0
933,58.0,0.0,20.0,0.0,0.0
934,57.0,30.0,30.0,0.0,0.0
935,60.0,0.0,30.0,0.0,0.0
936,41.0,30.0,120.0,1.0,0.0
937,65.0,30.0,30.0,0.0,0.0
938,69.0,30.0,30.0,0.0,0.0
939,70.0,0.0,30.0,0.0,0.0
940,72.0,30.0,30.0,0.0,0.0
941,69.0,30.0,30.0,0.0,0.0
942,65.0,30.0,30.0,0.0,0.0
943,63.0,20.0,30.0,0.0,0.0
944,62.0,20.0,20.0,0.0,0.0
945,46.0,20.0,60.0,1.0,0.0
946,70.0,20.0,20.0,0.0,0.0
947,62.0,0.0,20.0,0.0,0.0
948,63.0,20.0,20.0,0.0,0.0
949,48.0,20.0,60.0,1.0,0.0
950,70.0,20.0,20.0,0.0,0.0
951,63.0,0.0,20.0,0.0,0.0
952,65.0,20.0,20.0,0.0,0.0
953,50.0,20.0,60.0,1.0,0.0
954,70.0,20.0,20.0,0.0,0.0
955,65.0,0.0,20.0,0.0,0.0
956,67.0,20.0,20.0,0.0,0.0
957,51.0,20.0,60.0,1.0,0.0
958,70.0,20.0,20.0,0.0,0.0
959,67.0,0.0,20.0,0.0,0.0
960,65.0,20.0,20.0,0.0,0.0
961,50.0,20.0,60.0,1.0,0.0
962,70.0,20.0,20.0,0.0,0.0
963,65.0,0.0,20.0,0.0,0.0
964,63.0,20.0,20.0,0.0,0.0
965,48.0,20.0,60.0,1.0,0.0
966,70.0,20.0,20.0,0.0,0.0
967,63.0,0.0,20.0,0.0,0.0
968,62.0,20.0,20.0,0.0,0.0
969,46.0,20.0,60.0,1.0,0.0
970,70.0,20.0,20.0,0.0,0.0
971,62.0,0.0,20.0,0.0,0.0
972,63.0,20.0,20.0,0.0,0.0
973,48.0,20.0,60.0,1.0,0.0
974,70.0,20.0,20.0,0.0,0.0
975,63.0,0.0,20.0,0.0,0.0
976,65.0,20.0,20.0,0.0,0.0
977,50.0,20.0,60.0,1.0,0.0
978,70.0,20.0,20.0,0.0,0.0
979,69.0,0.0,20.0,0.0,0.0
980,67.0,20.0,20.0,0.0,0.0
981,51.0,20.0,60.0,1.0,0.0
982,65.0,20.0,20.0,0.0,0.0
983,63.0,0.0,20.0,0.0,0.0
984,65.0,20.0,20.0,0.0,0.0
985,62.0,0.0,20.0,0.0,0.0
986,53.0,20.0,60.0,1.0,0.0
987,67.0,20.0,20.0,0.0,0.0
988,63.0,0.0,20.0,0.0,0.0
989,65.0,0.0,20.0,0.0,0.0
990,62.0,0.0,20.0,0.0,0.0
991,60.0,20.0,20.0,0.0,0.0
992,63.0,0.0,20.0,0.0,0.0
993,41.0,60.0,60.0,1.0,0.0
994,58.0,20.0,20.0,0.0,0.0
995,62.0,0.0,20.0,0.0,0.0
996,57.0,0.0,20.0,0.0,0.0
997,60.0,0.0,20.0,0.0,0.0
998,58.0,30.0,90.0,0.0,0.0
999,46.0,30.0,60.0,1.0,0.0
1000,60.0,30.0,30.0,0.0,0.0
1001,61.0,30.0,30.0,0.0,0.0
1002,62.0,30.0,30.0,0.0,0.0
1003,63.0,30.0,30.0,0.0,0.0
1004,64.0,60.0,30.0,0.0,0.0
1005,65.0,60.0,60.0,0.0,0.0
1006,57.0,0.0,60.0,0.0,0.0
1007,53.0,60.0,120.0,1.0,0.0
1008,60.0,0.0,60.0,0.0,0.0
1009,64.0,0.0,60.0,0.0,0.0
1010,58.0,60.0,60.0,0.0,0.0
1011,62.0,0.0,60.0,0.0,0.0
1012,53.0,0.0,60.0,1.0,0.0
1013,57.0,60.0,60.0,0.0,0.0
1014,60.0,0.0,60.0,0.0,0.0
1015,53.0,0.0,60.0,1.0,0.0
1016,58.0,60.0,60.0,0.0,0.0
1017,62.0,0.0,60.0,0.0,0.0
1018,53.0,0.0,60.0,1.0,0.0
1019,57.0,60.0,60.0,0.0,0.0
1020,60.0,0.0,60.0,0.0,0.0
1021,53.0,0.0,60.0,1.0,0.0
1022,60.0,60.0,60.0,0.0,0.0
1023,60.0,60.0,60.0,0.0,0.0
1024,65.0,15.0,90.0,0.0,0.0
1025,60.0,60.0,120.0,0.0,0.0
1026,57.0,30.0,60.0,1.0,0.0
1027,53.0,0.0,60.0,1.0,0.0
1028,67.0,15.0,15.0,0.0,0.0
1029,69.0,0.0,15.0,0.0,0.0
1030,60.0,0.0,60.0,0.0,0.0
1031,67.0,0.0,60.0,0.0,0.0
1032,70.0,60.0,60.0,0.0,0.0
1033,52.0,0.0,60.0,1.0,0.0
1034,69.0,0.0,60.0,0.0,0.0
1035,65.0,0.0,60.0,0.0,0.0
1036,60.0,60.0,60.0,0.0,0.0
1037,53.0,0.0,60.0,1.0,0.0
1038,69.0,0.0,60.0,0.0,0.0
1039,65.0,0.0,60.0,0.0,0.0
1040,60.0,60.0,60.0,0.0,0.0
1041,60.0,0.0,60.0,1.0,0.0
1042,67.0,0.0,60.0,0.0,0.0
1043,64.0,0.0,60.0,0.0,0.0
1044,60.0,60.0,60.0,0.0,0.0
1045,48.0,0.0,60.0,1.0,0.0
1046,60.0,60.0,60.0,0.0,0.0
1047,60.0,60.0,60.0,0.0,0.0
1048,57.0,60.0,60.0,0.0,0.0
1049,65.0,0.0,60.0,0.0,0.0
1050,53.0,60.0,120.0,1.0,0.0
1051,64.0,0.0,60.0,0.0,0.0
1052,60.0,0.0,60.0,0.0,0.0
1053,58.0,60.0,60.0,0.0,0.0
1054,62.0,0.0,60.0,0.0,0.0
1055,53.0,0.0,60.0,1.0,0.0
1056,57.0,60.0,60.0,0.0,0.0
1057,60.0,0.0,60.0,0.0,0.0
1058,53.0,0.0,60.0,1.0,0.0
1059,58.0,60.0,60.0,0.0,0.0
1060,62.0,0.0,60.0,0.0,0.0
1061,53.0,0.0,60.0,1.0,0.0
1062,57.0,60.0,60.0,0.0,0.0
1063,60.0,0.0,60.0,0.0,0.0
1064,53.0,0.0,60.0,1.0,0.0
1065,65.0,60.0,60.0,0.0,0.0
1066,65.0,60.0,60.0,0.0,0.0
1067,62.0,30.0,90.0,0.0,0.0
1068,70.0,0.0,90.0,0.0,0.0
1069,46.0,30.0,60.0,1.0,0.0
1070,46.0,60.0,60.0,1.0,0.0
1071,69.0,0.0,30.0,0.0,0.0
1072,64.0,30.0,120.0,0.0,0.0
1073,67.0,60.0,60.0,0.0,0.0
1074,48.0,0.0,60.0,1.0,0.0
1075,69.0,0.0,60.0,0.0,0.0
1076,48.0,0.0,60.0,1.0,0.0
1077,65.0,30.0,30.0,0.0,0.0
1078,41.0,30.0,120.0,1.0,0.0
1079,69.0,30.0,30.0,0.0,0.0
1080,72.0,30.0,30.0,0.0,0.0
1081,77.0,0.0,30.0,0.0,0.0
1082,81.0,30.0,30.0,0.0,0.0
1083,77.0,30.0,30.0,0.0,0.0
1084,84.0,30.0,30.0,0.0,0.0
1085,81.0,30.0,30.0,0.0,0.0
1086,82.0,30.0,30.0,0.0,0.0
1087,48.0,30.0,120.0,1.0,0.0
1088,79.0,30.0,30.0,0.0,0.0
1089,76.0,30.0,30.0,0.0,0.0
1090,72.0,0.0,30.0,0.0,0.0
1091,70.0,30.0,30.0,0.0,0.0
1092,72.0,30.0,30.0,0.0,0.0
1093,67.0,30.0,30.0,0.0,0.0
1094,72.0,30.0,30.0,0.0,0.0
1095,65.0,30.0,30.0,0.0,0.0
1096,41.0,30.0,120.0,1.0,0.0
1097,69.0,30.0,30.0,0.0,0.0
1098,72.0,30.0,30.0,0.0,0.0
1099,77.0,0.0,30.0,0.0,0.0
1100,81.0,30.0,30.0,0.0,0.0
1101,77.0,30.0,30.0,0.0,0.0
1102,84.0,30.0,30.0,0.0,0.0
1103,81.0,30.0,30.0,0.0,0.0
1104,82.0,30.0,30.0,0.0,0.0
1105,48.0,30.0,120.0,1.0,0.0
1106,79.0,30.0,30.0,0.0,0.0
1107,76.0,30.0,30.0,0.0,0.0
1108,72.0,0.0,30.0,0.0,0.0
1109,70.0,30.0,30.0,0.0,0.0
1110,72.0,30.0,30.0,0.0,0.0
1111,67.0,30.0,30.0,0.0,0.0
1112,72.0,30.0,30.0,0.0,0.0
1113,65.0,30.0,30.0,0.0,0.0
1114,41.0,30.0,120.0,1.0,0.0
1115,77.0,30.0,30.0,0.0,0.0
1116,76.0,30.0,30.0,0.0,0.0
1117,77.0,0.0,30.0,0.0,0.0
1118,81.0,30.0,30.0,0.0,0.0
1119,53.0,60.0,120.0,1.0,0.0
1120,77.0,30.0,30.0,0.0,0.0
1121,81.0,30.0,30.0,0.0,0.0
1122,77.0,0.0,30.0,0.0,0.0
1123,46.0,30.0,120.0,1.0,0.0
1124,74.0,30.0,30.0,0.0,0.0
1125,70.0,0.0,30.0,0.0,0.0
1126,69.0,30.0,30.0,0.0,0.0
1127,73.0,0.0,30.0,0.0,0.0
1128,70.0,0.0,30.0,0.0,0.0
1129,74.0,0.0,30.0,0.0,0.0
1130,77.0,30.0,30.0,0.0,0.0
1131,74.0,0.0,30.0,0.0,0.0
1132,70.0,30.0,30.0,0.0,0.0
1133,74.0,0.0,30.0,0.0,0.0
1134,77.0,30.0,30.0,0.0,0.0
1135,74.0,0.0,30.0,0.0,0.0
1136,70.0,60.0,30.0,0.0,0.0
1137,74.0,0.0,30.0,0.0,0.0
1138,69.0,60.0,60.0,0.0,0.0
1139,72.0,0.0,60.0,0.0,0.0
1140,48.0,60.0,120.0,1.0,0.0
1141,65.0,0.0,60.0,0.0,0.0
1142,69.0,0.0,60.0,0.0,0.0
1143,67.0,60.0,60.0,0.0,0.0
1144,70.0,0.0,60.0,0.0,0.0
1145,36.0,120.0,120.0,1.0,0.0
1146,64.0,0.0,60.0,0.0,0.0
1147,67.0,0.0,60.0,0.0,0.0
1148,65.0,60.0,120.0,0.0,0.0
1149,41.0,0.0,120.0,1.0,0.0
1150,60.0,60.0,60.0,0.0,0.0
1151,60.0,60.0,60.0,0.0,0.0
1152,65.0,60.0,60.0,0.0,0.0
1153,57.0,0.0,60.0,0.0,0.0
1154,53.0,60.0,120.0,1.0,0.0
1155,60.0,0.0,60.0,0.0,0.0
1156,64.0,0.0,60.0,0.0,0.0
1157,58.0,60.0,60.0,0.0,0.0
1158,62.0,0.0,60.0,0.0,0.0
1159,53.0,0.0,60.0,1.0,0.0
1160,57.0,60.0,60.0,0.0,0.0
1161,60.0,0.0,60.0,0.0,0.0
1162,53.0,0.0,60.0,1.0,0.0
1163,58.0,60.0,60.0,0.0,0.0
1164,62.0,0.0,60.0,0.0,0.0
1165,53.0,0.0,60.0,1.0,0.0
1166,57.0,60.0,60.0,0.0,0.0
1167,60.0,0.0,60.0,0.0,0.0
1168,53.0,0.0,60.0,1.0,0.0
1169,65.0,60.0,60.0,0.0,0.0
1170,65.0,60.0,60.0,0.0,0.0
1171,70.0,30.0,90.0,0.0,0.0
1172,46.0,30.0,60.0,1.0,0.0
1173,48.0,60.0,60.0,1.0,0.0
1174,69.0,0.0,30.0,0.0,0.0
1175,67.0,60.0,60.0,0.0,0.0
1176,64.0,0.0,60.0,0.0,0.0
1177,48.0,0.0,60.0,1.0,0.0
1178,69.0,120.0,60.0,0.0,0.0
1179,48.0,0.0,60.0,1.0,0.0
1180,57.0,615.0,120.0,0.0,0.0
1181,65.0,0.0,120.0,0.0,0.0
1182,41.0,0.0,120.0,1.0,0.0
