,note,step,duration,channel,velocity
0,59.0,0.0,180.0,0.0,64.0
1,63.0,0.0,180.0,0.0,64.0
2,75.0,48.0,390.0,0.0,64.0
3,66.0,192.0,180.0,0.0,64.0
4,66.0,0.0,180.0,0.0,64.0
5,63.0,240.0,180.0,0.0,64.0
6,59.0,0.0,180.0,0.0,64.0
7,78.0,240.0,180.0,0.0,64.0
8,63.0,0.0,180.0,0.0,64.0
9,59.0,0.0,180.0,0.0,64.0
10,66.0,0.0,180.0,0.0,64.0
11,78.0,240.0,180.0,0.0,64.0
12,59.0,0.0,180.0,0.0,64.0
13,66.0,0.0,180.0,0.0,64.0
14,63.0,0.0,180.0,0.0,64.0
15,83.0,0.0,180.0,0.0,64.0
16,59.0,240.0,180.0,0.0,64.0
17,66.0,0.0,180.0,0.0,64.0
18,63.0,0.0,180.0,0.0,64.0
19,83.0,0.0,180.0,0.0,64.0
20,63.0,240.0,180.0,0.0,64.0
21,59.0,0.0,180.0,0.0,64.0
22,66.0,0.0,180.0,0.0,64.0
23,63.0,192.0,180.0,0.0,64.0
24,87.0,48.0,390.0,0.0,64.0
25,66.0,0.0,180.0,0.0,64.0
26,59.0,0.0,180.0,0.0,64.0
27,63.0,0.0,180.0,0.0,64.0
28,66.0,0.0,180.0,0.0,64.0
29,59.0,144.0,180.0,0.0,64.0
30,90.0,96.0,90.0,0.0,64.0
31,66.0,0.0,180.0,0.0,64.0
32,64.0,0.0,180.0,0.0,64.0
33,59.0,0.0,180.0,0.0,64.0
34,70.0,24.0,180.0,0.0,64.0
35,88.0,120.0,90.0,0.0,64.0
36,59.0,0.0,180.0,0.0,64.0
37,64.0,0.0,180.0,0.0,64.0
38,66.0,24.0,180.0,0.0,64.0
39,90.0,96.0,90.0,0.0,64.0
40,70.0,0.0,180.0,0.0,64.0
41,88.0,216.0,90.0,0.0,64.0
42,64.0,0.0,180.0,0.0,64.0
43,59.0,240.0,180.0,0.0,64.0
44,66.0,0.0,180.0,0.0,64.0
45,85.0,0.0,180.0,0.0,64.0
46,70.0,0.0,180.0,0.0,64.0
47,59.0,144.0,180.0,0.0,64.0
48,64.0,0.0,180.0,0.0,64.0
49,66.0,0.0,180.0,0.0,64.0
50,70.0,0.0,180.0,0.0,64.0
51,66.0,0.0,180.0,0.0,64.0
52,64.0,0.0,180.0,0.0,64.0
53,70.0,24.0,180.0,0.0,64.0
54,90.0,96.0,90.0,0.0,64.0
55,59.0,0.0,180.0,0.0,64.0
56,88.0,120.0,90.0,0.0,64.0
57,90.0,96.0,90.0,0.0,64.0
58,64.0,24.0,180.0,0.0,64.0
59,70.0,0.0,180.0,0.0,64.0
60,59.0,0.0,180.0,0.0,64.0
61,66.0,0.0,180.0,0.0,64.0
62,88.0,216.0,90.0,0.0,64.0
63,85.0,0.0,180.0,0.0,64.0
64,64.0,0.0,180.0,0.0,64.0
65,66.0,0.0,180.0,0.0,64.0
66,70.0,0.0,180.0,0.0,64.0
67,59.0,240.0,180.0,0.0,64.0
68,66.0,240.0,180.0,0.0,64.0
69,64.0,0.0,180.0,0.0,64.0
70,59.0,0.0,180.0,0.0,64.0
71,70.0,0.0,180.0,0.0,64.0
72,75.0,48.0,390.0,0.0,64.0
73,59.0,0.0,180.0,0.0,64.0
74,63.0,0.0,180.0,0.0,64.0
75,66.0,192.0,180.0,0.0,64.0
76,66.0,0.0,180.0,0.0,64.0
77,63.0,0.0,180.0,0.0,64.0
78,59.0,240.0,180.0,0.0,64.0
79,78.0,0.0,180.0,0.0,64.0
80,63.0,240.0,180.0,0.0,64.0
81,66.0,0.0,180.0,0.0,64.0
82,59.0,0.0,180.0,0.0,64.0
83,59.0,240.0,180.0,0.0,64.0
84,63.0,0.0,180.0,0.0,64.0
85,78.0,0.0,180.0,0.0,64.0
86,66.0,0.0,180.0,0.0,64.0
87,59.0,0.0,180.0,0.0,64.0
88,63.0,0.0,180.0,0.0,64.0
89,83.0,240.0,180.0,0.0,64.0
90,66.0,0.0,180.0,0.0,64.0
91,66.0,240.0,180.0,0.0,64.0
92,63.0,0.0,180.0,0.0,64.0
93,59.0,0.0,180.0,0.0,64.0
94,83.0,0.0,180.0,0.0,64.0
95,66.0,192.0,180.0,0.0,64.0
96,63.0,0.0,180.0,0.0,64.0
97,87.0,48.0,390.0,0.0,64.0
98,59.0,0.0,180.0,0.0,64.0
99,66.0,0.0,180.0,0.0,64.0
100,63.0,0.0,180.0,0.0,64.0
101,59.0,144.0,180.0,0.0,64.0
102,59.0,0.0,180.0,0.0,64.0
103,90.0,96.0,90.0,0.0,64.0
104,66.0,0.0,180.0,0.0,64.0
105,64.0,24.0,180.0,0.0,64.0
106,70.0,0.0,180.0,0.0,64.0
107,88.0,120.0,90.0,0.0,64.0
108,66.0,24.0,180.0,0.0,64.0
109,90.0,96.0,90.0,0.0,64.0
110,70.0,0.0,180.0,0.0,64.0
111,59.0,0.0,180.0,0.0,64.0
112,64.0,0.0,180.0,0.0,64.0
113,88.0,216.0,90.0,0.0,64.0
114,66.0,0.0,180.0,0.0,64.0
115,64.0,144.0,180.0,0.0,64.0
116,70.0,0.0,180.0,0.0,64.0
117,59.0,0.0,180.0,0.0,64.0
118,85.0,0.0,180.0,0.0,64.0
119,70.0,0.0,180.0,0.0,64.0
120,64.0,24.0,180.0,0.0,64.0
121,66.0,0.0,180.0,0.0,64.0
122,85.0,96.0,90.0,0.0,64.0
123,59.0,0.0,180.0,0.0,64.0
124,87.0,216.0,90.0,0.0,64.0
125,59.0,0.0,180.0,0.0,64.0
126,71.0,0.0,180.0,0.0,64.0
127,66.0,0.0,180.0,0.0,64.0
128,63.0,192.0,180.0,0.0,64.0
129,83.0,48.0,390.0,0.0,64.0
130,63.0,0.0,180.0,0.0,64.0
131,59.0,240.0,180.0,0.0,64.0
132,59.0,240.0,180.0,0.0,64.0
133,63.0,0.0,180.0,0.0,64.0
134,63.0,144.0,180.0,0.0,64.0
135,59.0,0.0,180.0,0.0,64.0
136,56.0,0.0,180.0,0.0,64.0
137,63.0,0.0,180.0,0.0,64.0
138,87.0,96.0,90.0,0.0,64.0
139,59.0,24.0,180.0,0.0,64.0
140,85.0,120.0,90.0,0.0,64.0
141,59.0,24.0,180.0,0.0,64.0
142,83.0,96.0,90.0,0.0,64.0
143,63.0,0.0,180.0,0.0,64.0
144,56.0,0.0,180.0,0.0,64.0
145,82.0,120.0,90.0,0.0,64.0
146,80.0,96.0,90.0,0.0,64.0
147,63.0,0.0,180.0,0.0,64.0
148,59.0,24.0,180.0,0.0,64.0
149,56.0,0.0,180.0,0.0,64.0
150,82.0,120.0,90.0,0.0,64.0
151,83.0,96.0,90.0,0.0,64.0
152,59.0,0.0,180.0,0.0,64.0
153,56.0,24.0,180.0,0.0,64.0
154,63.0,0.0,180.0,0.0,64.0
155,85.0,216.0,90.0,0.0,64.0
156,87.0,240.0,180.0,0.0,64.0
157,56.0,0.0,180.0,0.0,64.0
158,59.0,0.0,180.0,0.0,64.0
159,63.0,0.0,180.0,0.0,64.0
160,87.0,240.0,180.0,0.0,64.0
161,59.0,0.0,180.0,0.0,64.0
162,63.0,0.0,180.0,0.0,64.0
163,56.0,0.0,180.0,0.0,64.0
164,92.0,48.0,390.0,0.0,64.0
165,59.0,192.0,180.0,0.0,64.0
166,56.0,0.0,180.0,0.0,64.0
167,63.0,0.0,180.0,0.0,64.0
168,63.0,144.0,180.0,0.0,64.0
169,59.0,0.0,180.0,0.0,64.0
170,56.0,0.0,180.0,0.0,64.0
171,51.0,24.0,180.0,0.0,64.0
172,58.0,0.0,180.0,0.0,64.0
173,63.0,0.0,180.0,0.0,64.0
174,61.0,0.0,180.0,0.0,64.0
175,92.0,96.0,90.0,0.0,64.0
176,91.0,120.0,90.0,0.0,64.0
177,92.0,96.0,90.0,0.0,64.0
178,63.0,0.0,180.0,0.0,64.0
179,51.0,0.0,180.0,0.0,64.0
180,58.0,24.0,180.0,0.0,64.0
181,61.0,0.0,180.0,0.0,64.0
182,91.0,216.0,90.0,0.0,64.0
183,87.0,240.0,180.0,0.0,64.0
184,61.0,0.0,180.0,0.0,64.0
185,58.0,0.0,180.0,0.0,64.0
186,51.0,0.0,180.0,0.0,64.0
187,63.0,0.0,180.0,0.0,64.0
188,51.0,144.0,180.0,0.0,64.0
189,61.0,0.0,180.0,0.0,64.0
190,63.0,0.0,180.0,0.0,64.0
191,58.0,0.0,180.0,0.0,64.0
192,58.0,0.0,180.0,0.0,64.0
193,63.0,24.0,180.0,0.0,64.0
194,51.0,0.0,180.0,0.0,64.0
195,92.0,96.0,90.0,0.0,64.0
196,61.0,0.0,180.0,0.0,64.0
197,91.0,120.0,90.0,0.0,64.0
198,63.0,0.0,180.0,0.0,64.0
199,92.0,96.0,90.0,0.0,64.0
200,58.0,0.0,180.0,0.0,64.0
201,51.0,24.0,180.0,0.0,64.0
202,61.0,0.0,180.0,0.0,64.0
203,91.0,216.0,90.0,0.0,64.0
204,51.0,240.0,180.0,0.0,64.0
205,63.0,0.0,180.0,0.0,64.0
206,58.0,0.0,180.0,0.0,64.0
207,87.0,0.0,180.0,0.0,64.0
208,61.0,0.0,180.0,0.0,64.0
209,58.0,0.0,180.0,0.0,64.0
210,63.0,0.0,180.0,0.0,64.0
211,61.0,0.0,180.0,0.0,64.0
212,51.0,144.0,180.0,0.0,64.0
213,87.0,96.0,90.0,0.0,64.0
214,56.0,0.0,180.0,0.0,64.0
215,59.0,0.0,180.0,0.0,64.0
216,63.0,24.0,180.0,0.0,64.0
217,85.0,120.0,90.0,0.0,64.0
218,83.0,96.0,90.0,0.0,64.0
219,56.0,0.0,180.0,0.0,64.0
220,63.0,24.0,180.0,0.0,64.0
221,59.0,0.0,180.0,0.0,64.0
222,82.0,120.0,90.0,0.0,64.0
223,56.0,0.0,180.0,0.0,64.0
224,63.0,24.0,180.0,0.0,64.0
225,80.0,96.0,90.0,0.0,64.0
226,59.0,0.0,180.0,0.0,64.0
227,82.0,120.0,90.0,0.0,64.0
228,83.0,96.0,90.0,0.0,64.0
229,63.0,0.0,180.0,0.0,64.0
230,56.0,0.0,180.0,0.0,64.0
231,59.0,24.0,180.0,0.0,64.0
232,85.0,216.0,90.0,0.0,64.0
233,87.0,240.0,180.0,0.0,64.0
234,59.0,0.0,180.0,0.0,64.0
235,56.0,0.0,180.0,0.0,64.0
236,63.0,0.0,180.0,0.0,64.0
237,56.0,240.0,180.0,0.0,64.0
238,59.0,0.0,180.0,0.0,64.0
239,87.0,0.0,180.0,0.0,64.0
240,63.0,0.0,180.0,0.0,64.0
241,63.0,0.0,180.0,0.0,64.0
242,59.0,192.0,180.0,0.0,64.0
243,56.0,0.0,180.0,0.0,64.0
244,92.0,48.0,390.0,0.0,64.0
245,56.0,0.0,180.0,0.0,64.0
246,59.0,0.0,180.0,0.0,64.0
247,63.0,96.0,180.0,0.0,64.0
248,49.0,0.0,180.0,0.0,64.0
249,56.0,0.0,180.0,0.0,64.0
250,61.0,0.0,180.0,0.0,64.0
251,63.0,36.0,180.0,0.0,64.0
252,89.0,60.0,40.0,0.0,64.0
253,90.0,60.0,40.0,0.0,64.0
254,89.0,24.0,40.0,0.0,64.0
255,90.0,60.0,40.0,0.0,64.0
256,89.0,60.0,40.0,0.0,64.0
257,56.0,0.0,180.0,0.0,64.0
258,63.0,36.0,180.0,0.0,64.0
259,61.0,0.0,180.0,0.0,64.0
260,49.0,0.0,180.0,0.0,64.0
261,90.0,60.0,40.0,0.0,64.0
262,89.0,24.0,40.0,0.0,64.0
263,90.0,60.0,40.0,0.0,64.0
264,63.0,0.0,180.0,0.0,64.0
265,61.0,36.0,180.0,0.0,64.0
266,56.0,0.0,180.0,0.0,64.0
267,49.0,0.0,180.0,0.0,64.0
268,89.0,60.0,40.0,0.0,64.0
269,90.0,60.0,40.0,0.0,64.0
270,89.0,24.0,40.0,0.0,64.0
271,90.0,108.0,40.0,0.0,64.0
272,56.0,0.0,180.0,0.0,64.0
273,61.0,0.0,180.0,0.0,64.0
274,49.0,0.0,180.0,0.0,64.0
275,63.0,24.0,180.0,0.0,64.0
276,87.0,96.0,90.0,0.0,64.0
277,89.0,216.0,90.0,0.0,64.0
278,54.0,0.0,180.0,0.0,64.0
279,61.0,0.0,180.0,0.0,64.0
280,90.0,48.0,390.0,0.0,64.0
281,58.0,192.0,180.0,0.0,64.0
282,58.0,0.0,180.0,0.0,64.0
283,54.0,240.0,180.0,0.0,64.0
284,61.0,0.0,180.0,0.0,64.0
285,78.0,48.0,390.0,0.0,64.0
286,58.0,192.0,180.0,0.0,64.0
287,54.0,0.0,180.0,0.0,64.0
288,61.0,0.0,180.0,0.0,64.0
289,54.0,0.0,180.0,0.0,64.0
290,58.0,240.0,180.0,0.0,64.0
291,61.0,0.0,180.0,0.0,64.0
292,51.0,192.0,180.0,0.0,64.0
293,47.0,0.0,180.0,0.0,64.0
294,54.0,0.0,180.0,0.0,64.0
295,59.0,0.0,180.0,0.0,64.0
296,75.0,48.0,390.0,0.0,64.0
297,59.0,240.0,180.0,0.0,64.0
298,54.0,0.0,180.0,0.0,64.0
299,47.0,0.0,180.0,0.0,64.0
300,51.0,0.0,180.0,0.0,64.0
301,47.0,0.0,180.0,0.0,64.0
302,51.0,0.0,180.0,0.0,64.0
303,54.0,0.0,180.0,0.0,64.0
304,59.0,0.0,180.0,0.0,64.0
305,78.0,240.0,180.0,0.0,64.0
306,59.0,0.0,180.0,0.0,64.0
307,47.0,240.0,180.0,0.0,64.0
308,51.0,0.0,180.0,0.0,64.0
309,54.0,0.0,180.0,0.0,64.0
310,78.0,0.0,180.0,0.0,64.0
311,59.0,0.0,180.0,0.0,64.0
312,83.0,240.0,180.0,0.0,64.0
313,54.0,0.0,180.0,0.0,64.0
314,47.0,0.0,180.0,0.0,64.0
315,51.0,0.0,180.0,0.0,64.0
316,59.0,0.0,180.0,0.0,64.0
317,47.0,0.0,180.0,0.0,64.0
318,51.0,240.0,180.0,0.0,64.0
319,83.0,0.0,180.0,0.0,64.0
320,54.0,0.0,180.0,0.0,64.0
321,87.0,48.0,390.0,0.0,64.0
322,51.0,0.0,180.0,0.0,64.0
323,54.0,192.0,180.0,0.0,64.0
324,59.0,0.0,180.0,0.0,64.0
325,47.0,0.0,180.0,0.0,64.0
326,54.0,0.0,180.0,0.0,64.0
327,51.0,0.0,180.0,0.0,64.0
328,47.0,144.0,180.0,0.0,64.0
329,59.0,0.0,180.0,0.0,64.0
330,47.0,0.0,180.0,0.0,64.0
331,58.0,0.0,180.0,0.0,64.0
332,54.0,24.0,180.0,0.0,64.0
333,52.0,0.0,180.0,0.0,64.0
334,90.0,96.0,90.0,0.0,64.0
335,88.0,120.0,90.0,0.0,64.0
336,90.0,96.0,90.0,0.0,64.0
337,54.0,24.0,180.0,0.0,64.0
338,52.0,0.0,180.0,0.0,64.0
339,58.0,0.0,180.0,0.0,64.0
340,47.0,0.0,180.0,0.0,64.0
341,88.0,216.0,90.0,0.0,64.0
342,85.0,48.0,390.0,0.0,64.0
343,52.0,192.0,180.0,0.0,64.0
344,58.0,0.0,180.0,0.0,64.0
345,47.0,0.0,180.0,0.0,64.0
346,54.0,0.0,180.0,0.0,64.0
347,58.0,0.0,180.0,0.0,64.0
348,52.0,144.0,180.0,0.0,64.0
349,54.0,0.0,180.0,0.0,64.0
350,47.0,0.0,180.0,0.0,64.0
351,90.0,96.0,90.0,0.0,64.0
352,54.0,0.0,180.0,0.0,64.0
353,52.0,0.0,180.0,0.0,64.0
354,58.0,0.0,180.0,0.0,64.0
355,47.0,24.0,180.0,0.0,64.0
356,88.0,120.0,90.0,0.0,64.0
357,58.0,0.0,180.0,0.0,64.0
358,52.0,24.0,180.0,0.0,64.0
359,54.0,0.0,180.0,0.0,64.0
360,90.0,96.0,90.0,0.0,64.0
361,47.0,0.0,180.0,0.0,64.0
362,88.0,216.0,90.0,0.0,64.0
363,85.0,48.0,390.0,0.0,64.0
364,52.0,192.0,180.0,0.0,64.0
365,54.0,0.0,180.0,0.0,64.0
366,47.0,0.0,180.0,0.0,64.0
367,58.0,0.0,180.0,0.0,64.0
368,47.0,0.0,180.0,0.0,64.0
369,54.0,240.0,180.0,0.0,64.0
370,58.0,0.0,180.0,0.0,64.0
371,52.0,0.0,180.0,0.0,64.0
372,51.0,0.0,180.0,0.0,64.0
373,47.0,0.0,180.0,0.0,64.0
374,75.0,48.0,390.0,0.0,64.0
375,59.0,192.0,180.0,0.0,64.0
376,54.0,0.0,180.0,0.0,64.0
377,59.0,0.0,180.0,0.0,64.0
378,54.0,0.0,180.0,0.0,64.0
379,51.0,0.0,180.0,0.0,64.0
380,47.0,240.0,180.0,0.0,64.0
381,78.0,0.0,180.0,0.0,64.0
382,51.0,0.0,180.0,0.0,64.0
383,54.0,0.0,180.0,0.0,64.0
384,59.0,240.0,180.0,0.0,64.0
385,47.0,0.0,180.0,0.0,64.0
386,59.0,240.0,180.0,0.0,64.0
387,51.0,0.0,180.0,0.0,64.0
388,54.0,0.0,180.0,0.0,64.0
389,78.0,0.0,180.0,0.0,64.0
390,47.0,0.0,180.0,0.0,64.0
391,59.0,0.0,180.0,0.0,64.0
392,54.0,0.0,180.0,0.0,64.0
393,51.0,0.0,180.0,0.0,64.0
394,47.0,240.0,180.0,0.0,64.0
395,83.0,0.0,180.0,0.0,64.0
396,59.0,0.0,180.0,0.0,64.0
397,51.0,0.0,180.0,0.0,64.0
398,54.0,240.0,180.0,0.0,64.0
399,83.0,0.0,180.0,0.0,64.0
400,47.0,0.0,180.0,0.0,64.0
401,87.0,48.0,390.0,0.0,64.0
402,54.0,0.0,180.0,0.0,64.0
403,51.0,0.0,180.0,0.0,64.0
404,47.0,192.0,180.0,0.0,64.0
405,59.0,0.0,180.0,0.0,64.0
406,54.0,0.0,180.0,0.0,64.0
407,51.0,0.0,180.0,0.0,64.0
408,59.0,0.0,180.0,0.0,64.0
409,47.0,144.0,180.0,0.0,64.0
410,54.0,0.0,180.0,0.0,64.0
411,47.0,0.0,180.0,0.0,64.0
412,90.0,96.0,90.0,0.0,64.0
413,58.0,0.0,180.0,0.0,64.0
414,52.0,24.0,180.0,0.0,64.0
415,88.0,120.0,90.0,0.0,64.0
416,52.0,0.0,180.0,0.0,64.0
417,90.0,96.0,90.0,0.0,64.0
418,47.0,0.0,180.0,0.0,64.0
419,58.0,0.0,180.0,0.0,64.0
420,54.0,24.0,180.0,0.0,64.0
421,88.0,216.0,90.0,0.0,64.0
422,85.0,0.0,180.0,0.0,64.0
423,58.0,0.0,180.0,0.0,64.0
424,47.0,144.0,180.0,0.0,64.0
425,54.0,0.0,180.0,0.0,64.0
426,52.0,0.0,180.0,0.0,64.0
427,47.0,0.0,180.0,0.0,64.0
428,58.0,0.0,180.0,0.0,64.0
429,54.0,0.0,180.0,0.0,64.0
430,52.0,24.0,180.0,0.0,64.0
431,85.0,96.0,90.0,0.0,64.0
432,87.0,408.0,90.0,0.0,64.0
433,47.0,0.0,390.0,0.0,64.0
434,59.0,480.0,390.0,0.0,64.0
435,83.0,0.0,390.0,0.0,64.0
436,51.0,0.0,390.0,0.0,64.0
437,54.0,0.0,390.0,0.0,64.0
438,47.0,192.0,390.0,0.0,64.0
439,47.0,0.0,180.0,0.0,64.0
440,56.0,0.0,180.0,0.0,64.0
441,51.0,24.0,180.0,0.0,64.0
442,44.0,0.0,180.0,0.0,64.0
443,87.0,96.0,90.0,0.0,64.0
444,85.0,120.0,90.0,0.0,64.0
445,56.0,24.0,180.0,0.0,64.0
446,44.0,0.0,180.0,0.0,64.0
447,83.0,96.0,90.0,0.0,64.0
448,51.0,0.0,180.0,0.0,64.0
449,47.0,0.0,180.0,0.0,64.0
450,82.0,120.0,90.0,0.0,64.0
451,80.0,120.0,90.0,0.0,64.0
452,82.0,120.0,90.0,0.0,64.0
453,44.0,0.0,180.0,0.0,64.0
454,83.0,96.0,90.0,0.0,64.0
455,56.0,24.0,180.0,0.0,64.0
456,80.0,120.0,90.0,0.0,64.0
457,79.0,96.0,90.0,0.0,64.0
458,61.0,0.0,180.0,0.0,64.0
459,51.0,0.0,180.0,0.0,64.0
460,58.0,24.0,180.0,0.0,64.0
461,80.0,120.0,90.0,0.0,64.0
462,58.0,24.0,180.0,0.0,64.0
463,82.0,96.0,90.0,0.0,64.0
464,61.0,0.0,180.0,0.0,64.0
465,51.0,0.0,180.0,0.0,64.0
466,79.0,120.0,90.0,0.0,64.0
467,75.0,120.0,90.0,0.0,64.0
468,77.0,120.0,90.0,0.0,64.0
469,79.0,96.0,90.0,0.0,64.0
470,58.0,24.0,180.0,0.0,64.0
471,61.0,0.0,180.0,0.0,64.0
472,51.0,0.0,180.0,0.0,64.0
473,75.0,120.0,90.0,0.0,64.0
474,56.0,0.0,180.0,0.0,64.0
475,71.0,96.0,90.0,0.0,64.0
476,59.0,24.0,180.0,0.0,64.0
477,73.0,120.0,90.0,0.0,64.0
478,56.0,0.0,180.0,0.0,64.0
479,59.0,24.0,180.0,0.0,64.0
480,75.0,96.0,90.0,0.0,64.0
481,71.0,120.0,90.0,0.0,64.0
482,68.0,120.0,90.0,0.0,64.0
483,70.0,120.0,90.0,0.0,64.0
484,71.0,96.0,90.0,0.0,64.0
485,56.0,24.0,180.0,0.0,64.0
486,59.0,0.0,180.0,0.0,64.0
487,68.0,120.0,90.0,0.0,64.0
488,51.0,24.0,180.0,0.0,64.0
489,67.0,96.0,90.0,0.0,64.0
490,68.0,120.0,90.0,0.0,64.0
491,51.0,24.0,180.0,0.0,64.0
492,70.0,96.0,90.0,0.0,64.0
493,67.0,120.0,90.0,0.0,64.0
494,63.0,120.0,90.0,0.0,64.0
495,65.0,120.0,90.0,0.0,64.0
496,67.0,96.0,90.0,0.0,64.0
497,51.0,24.0,180.0,0.0,64.0
498,63.0,120.0,90.0,0.0,64.0
499,59.0,96.0,90.0,0.0,64.0
500,44.0,24.0,180.0,0.0,64.0
501,61.0,120.0,90.0,0.0,64.0
502,63.0,96.0,90.0,0.0,64.0
503,44.0,24.0,180.0,0.0,64.0
504,59.0,120.0,90.0,0.0,64.0
505,56.0,120.0,90.0,0.0,64.0
506,58.0,120.0,90.0,0.0,64.0
507,59.0,96.0,90.0,0.0,64.0
508,44.0,24.0,180.0,0.0,64.0
509,56.0,120.0,90.0,0.0,64.0
510,49.0,24.0,180.0,0.0,64.0
511,37.0,0.0,180.0,0.0,64.0
512,53.0,96.0,90.0,0.0,64.0
513,54.0,120.0,90.0,0.0,64.0
514,49.0,0.0,180.0,0.0,64.0
515,56.0,96.0,90.0,0.0,64.0
516,37.0,24.0,180.0,0.0,64.0
517,58.0,120.0,90.0,0.0,64.0
518,59.0,120.0,90.0,0.0,64.0
519,61.0,120.0,90.0,0.0,64.0
520,63.0,96.0,90.0,0.0,64.0
521,49.0,24.0,180.0,0.0,64.0
522,65.0,120.0,90.0,0.0,64.0
523,66.0,120.0,90.0,0.0,64.0
524,54.0,72.0,390.0,0.0,64.0
525,68.0,120.0,90.0,0.0,64.0
526,70.0,48.0,90.0,0.0,64.0
527,71.0,120.0,90.0,0.0,64.0
528,49.0,0.0,390.0,0.0,64.0
529,56.0,72.0,390.0,0.0,64.0
530,73.0,120.0,90.0,0.0,64.0
531,59.0,0.0,390.0,0.0,64.0
532,75.0,120.0,90.0,0.0,64.0
533,76.0,48.0,90.0,0.0,64.0
534,77.0,120.0,90.0,0.0,64.0
535,58.0,0.0,390.0,0.0,64.0
536,54.0,72.0,390.0,0.0,64.0
537,78.0,120.0,90.0,0.0,64.0
538,80.0,120.0,90.0,0.0,64.0
539,82.0,48.0,90.0,0.0,64.0
540,83.0,120.0,90.0,0.0,64.0
541,85.0,120.0,90.0,0.0,64.0
542,87.0,120.0,90.0,0.0,64.0
543,88.0,120.0,90.0,0.0,64.0
544,85.0,216.0,90.0,0.0,64.0
545,66.0,192.0,180.0,0.0,64.0
546,75.0,48.0,390.0,0.0,64.0
547,87.0,0.0,390.0,0.0,64.0
548,59.0,0.0,180.0,0.0,64.0
549,63.0,0.0,180.0,0.0,64.0
550,59.0,0.0,180.0,0.0,64.0
551,63.0,240.0,180.0,0.0,64.0
552,66.0,0.0,180.0,0.0,64.0
553,66.0,0.0,180.0,0.0,64.0
554,63.0,0.0,180.0,0.0,64.0
555,78.0,0.0,180.0,0.0,64.0
556,59.0,240.0,180.0,0.0,64.0
557,78.0,240.0,180.0,0.0,64.0
558,63.0,0.0,180.0,0.0,64.0
559,66.0,0.0,180.0,0.0,64.0
560,59.0,0.0,180.0,0.0,64.0
561,59.0,0.0,180.0,0.0,64.0
562,66.0,0.0,180.0,0.0,64.0
563,63.0,240.0,180.0,0.0,64.0
564,83.0,0.0,180.0,0.0,64.0
565,63.0,240.0,180.0,0.0,64.0
566,59.0,0.0,180.0,0.0,64.0
567,66.0,0.0,180.0,0.0,64.0
568,83.0,0.0,180.0,0.0,64.0
569,63.0,0.0,180.0,0.0,64.0
570,66.0,192.0,180.0,0.0,64.0
571,59.0,0.0,180.0,0.0,64.0
572,87.0,48.0,390.0,0.0,64.0
573,59.0,0.0,180.0,0.0,64.0
574,66.0,0.0,180.0,0.0,64.0
575,63.0,144.0,180.0,0.0,64.0
576,90.0,96.0,90.0,0.0,64.0
577,64.0,0.0,180.0,0.0,64.0
578,59.0,0.0,180.0,0.0,64.0
579,66.0,24.0,180.0,0.0,64.0
580,70.0,0.0,180.0,0.0,64.0
581,88.0,120.0,90.0,0.0,64.0
582,66.0,0.0,180.0,0.0,64.0
583,70.0,0.0,180.0,0.0,64.0
584,59.0,24.0,180.0,0.0,64.0
585,90.0,96.0,90.0,0.0,64.0
586,64.0,0.0,180.0,0.0,64.0
587,88.0,216.0,90.0,0.0,64.0
588,70.0,0.0,180.0,0.0,64.0
589,59.0,0.0,180.0,0.0,64.0
590,66.0,0.0,180.0,0.0,64.0
591,85.0,240.0,180.0,0.0,64.0
592,64.0,0.0,180.0,0.0,64.0
593,66.0,0.0,180.0,0.0,64.0
594,64.0,0.0,180.0,0.0,64.0
595,70.0,0.0,180.0,0.0,64.0
596,59.0,144.0,180.0,0.0,64.0
597,70.0,24.0,180.0,0.0,64.0
598,59.0,0.0,180.0,0.0,64.0
599,64.0,0.0,180.0,0.0,64.0
600,66.0,0.0,180.0,0.0,64.0
601,90.0,96.0,90.0,0.0,64.0
602,88.0,120.0,90.0,0.0,64.0
603,90.0,96.0,90.0,0.0,64.0
604,66.0,24.0,180.0,0.0,64.0
605,64.0,0.0,180.0,0.0,64.0
606,70.0,0.0,180.0,0.0,64.0
607,59.0,0.0,180.0,0.0,64.0
608,88.0,216.0,90.0,0.0,64.0
609,70.0,0.0,180.0,0.0,64.0
610,64.0,240.0,180.0,0.0,64.0
611,66.0,0.0,180.0,0.0,64.0
612,59.0,0.0,180.0,0.0,64.0
613,85.0,0.0,180.0,0.0,64.0
614,64.0,240.0,180.0,0.0,64.0
615,66.0,0.0,180.0,0.0,64.0
616,59.0,0.0,180.0,0.0,64.0
617,70.0,0.0,180.0,0.0,64.0
618,75.0,48.0,390.0,0.0,64.0
619,66.0,0.0,180.0,0.0,64.0
620,63.0,192.0,180.0,0.0,64.0
621,59.0,0.0,180.0,0.0,64.0
622,63.0,0.0,180.0,0.0,64.0
623,59.0,0.0,180.0,0.0,64.0
624,66.0,240.0,180.0,0.0,64.0
625,59.0,0.0,180.0,0.0,64.0
626,66.0,0.0,180.0,0.0,64.0
627,63.0,0.0,180.0,0.0,64.0
628,78.0,240.0,180.0,0.0,64.0
629,66.0,240.0,180.0,0.0,64.0
630,78.0,0.0,180.0,0.0,64.0
631,63.0,0.0,180.0,0.0,64.0
632,59.0,0.0,180.0,0.0,64.0
633,59.0,0.0,180.0,0.0,64.0
634,66.0,0.0,180.0,0.0,64.0
635,63.0,240.0,180.0,0.0,64.0
636,83.0,0.0,180.0,0.0,64.0
637,59.0,240.0,180.0,0.0,64.0
638,66.0,0.0,180.0,0.0,64.0
639,83.0,0.0,180.0,0.0,64.0
640,63.0,0.0,180.0,0.0,64.0
641,59.0,0.0,180.0,0.0,64.0
642,66.0,192.0,180.0,0.0,64.0
643,87.0,48.0,390.0,0.0,64.0
644,63.0,0.0,180.0,0.0,64.0
645,66.0,144.0,180.0,0.0,64.0
646,59.0,0.0,180.0,0.0,64.0
647,63.0,0.0,180.0,0.0,64.0
648,64.0,0.0,180.0,0.0,64.0
649,66.0,0.0,180.0,0.0,64.0
650,59.0,24.0,180.0,0.0,64.0
651,90.0,96.0,90.0,0.0,64.0
652,70.0,0.0,180.0,0.0,64.0
653,88.0,120.0,90.0,0.0,64.0
654,66.0,0.0,180.0,0.0,64.0
655,90.0,96.0,90.0,0.0,64.0
656,59.0,0.0,180.0,0.0,64.0
657,64.0,24.0,180.0,0.0,64.0
658,70.0,0.0,180.0,0.0,64.0
659,88.0,216.0,90.0,0.0,64.0
660,64.0,144.0,180.0,0.0,64.0
661,70.0,0.0,180.0,0.0,64.0
662,59.0,0.0,180.0,0.0,64.0
663,85.0,0.0,180.0,0.0,64.0
664,66.0,0.0,180.0,0.0,64.0
665,85.0,96.0,90.0,0.0,64.0
666,59.0,0.0,180.0,0.0,64.0
667,66.0,0.0,180.0,0.0,64.0
668,64.0,0.0,180.0,0.0,64.0
669,70.0,24.0,180.0,0.0,64.0
670,87.0,216.0,90.0,0.0,64.0
671,83.0,48.0,390.0,0.0,64.0
672,66.0,0.0,180.0,0.0,64.0
673,71.0,0.0,180.0,0.0,64.0
674,63.0,0.0,180.0,0.0,64.0
675,59.0,192.0,180.0,0.0,64.0
676,59.0,240.0,180.0,0.0,64.0
677,63.0,0.0,180.0,0.0,64.0
678,59.0,240.0,180.0,0.0,64.0
679,63.0,0.0,180.0,0.0,64.0
680,63.0,0.0,180.0,0.0,64.0
681,59.0,144.0,180.0,0.0,64.0
682,56.0,24.0,180.0,0.0,64.0
683,87.0,96.0,90.0,0.0,64.0
684,63.0,0.0,180.0,0.0,64.0
685,59.0,0.0,180.0,0.0,64.0
686,85.0,120.0,90.0,0.0,64.0
687,63.0,0.0,180.0,0.0,64.0
688,83.0,96.0,90.0,0.0,64.0
689,59.0,0.0,180.0,0.0,64.0
690,56.0,24.0,180.0,0.0,64.0
691,82.0,120.0,90.0,0.0,64.0
692,63.0,0.0,180.0,0.0,64.0
693,59.0,0.0,180.0,0.0,64.0
694,80.0,96.0,90.0,0.0,64.0
695,56.0,24.0,180.0,0.0,64.0
696,82.0,120.0,90.0,0.0,64.0
697,56.0,0.0,180.0,0.0,64.0
698,63.0,0.0,180.0,0.0,64.0
699,59.0,24.0,180.0,0.0,64.0
700,83.0,96.0,90.0,0.0,64.0
701,85.0,216.0,90.0,0.0,64.0
702,63.0,0.0,180.0,0.0,64.0
703,59.0,240.0,180.0,0.0,64.0
704,87.0,0.0,180.0,0.0,64.0
705,56.0,0.0,180.0,0.0,64.0
706,56.0,240.0,180.0,0.0,64.0
707,63.0,0.0,180.0,0.0,64.0
708,59.0,0.0,180.0,0.0,64.0
709,87.0,0.0,180.0,0.0,64.0
710,92.0,48.0,390.0,0.0,64.0
711,63.0,192.0,180.0,0.0,64.0
712,59.0,0.0,180.0,0.0,64.0
713,56.0,0.0,180.0,0.0,64.0
714,59.0,0.0,180.0,0.0,64.0
715,56.0,144.0,180.0,0.0,64.0
716,63.0,0.0,180.0,0.0,64.0
717,51.0,0.0,180.0,0.0,64.0
718,63.0,24.0,180.0,0.0,64.0
719,61.0,0.0,180.0,0.0,64.0
720,92.0,96.0,90.0,0.0,64.0
721,58.0,0.0,180.0,0.0,64.0
722,91.0,120.0,90.0,0.0,64.0
723,92.0,96.0,90.0,0.0,64.0
724,61.0,24.0,180.0,0.0,64.0
725,63.0,0.0,180.0,0.0,64.0
726,51.0,0.0,180.0,0.0,64.0
727,58.0,0.0,180.0,0.0,64.0
728,91.0,216.0,90.0,0.0,64.0
729,87.0,0.0,180.0,0.0,64.0
730,63.0,0.0,180.0,0.0,64.0
731,61.0,0.0,180.0,0.0,64.0
732,58.0,0.0,180.0,0.0,64.0
733,51.0,240.0,180.0,0.0,64.0
734,51.0,0.0,180.0,0.0,64.0
735,63.0,0.0,180.0,0.0,64.0
736,61.0,144.0,180.0,0.0,64.0
737,58.0,0.0,180.0,0.0,64.0
738,51.0,0.0,180.0,0.0,64.0
739,61.0,24.0,180.0,0.0,64.0
740,92.0,96.0,90.0,0.0,64.0
741,63.0,0.0,180.0,0.0,64.0
742,58.0,0.0,180.0,0.0,64.0
743,91.0,120.0,90.0,0.0,64.0
744,51.0,0.0,180.0,0.0,64.0
745,58.0,0.0,180.0,0.0,64.0
746,63.0,0.0,180.0,0.0,64.0
747,92.0,96.0,90.0,0.0,64.0
748,61.0,24.0,180.0,0.0,64.0
749,91.0,216.0,90.0,0.0,64.0
750,87.0,0.0,180.0,0.0,64.0
751,61.0,240.0,180.0,0.0,64.0
752,63.0,0.0,180.0,0.0,64.0
753,51.0,0.0,180.0,0.0,64.0
754,58.0,0.0,180.0,0.0,64.0
755,61.0,144.0,180.0,0.0,64.0
756,63.0,0.0,180.0,0.0,64.0
757,51.0,0.0,180.0,0.0,64.0
758,58.0,0.0,180.0,0.0,64.0
759,59.0,24.0,180.0,0.0,64.0
760,63.0,0.0,180.0,0.0,64.0
761,87.0,96.0,90.0,0.0,64.0
762,56.0,0.0,180.0,0.0,64.0
763,85.0,120.0,90.0,0.0,64.0
764,63.0,0.0,180.0,0.0,64.0
765,56.0,24.0,180.0,0.0,64.0
766,83.0,96.0,90.0,0.0,64.0
767,59.0,0.0,180.0,0.0,64.0
768,82.0,120.0,90.0,0.0,64.0
769,80.0,96.0,90.0,0.0,64.0
770,56.0,24.0,180.0,0.0,64.0
771,63.0,0.0,180.0,0.0,64.0
772,59.0,0.0,180.0,0.0,64.0
773,82.0,120.0,90.0,0.0,64.0
774,63.0,24.0,180.0,0.0,64.0
775,56.0,0.0,180.0,0.0,64.0
776,83.0,96.0,90.0,0.0,64.0
777,59.0,0.0,180.0,0.0,64.0
778,85.0,216.0,90.0,0.0,64.0
779,63.0,0.0,180.0,0.0,64.0
780,59.0,0.0,180.0,0.0,64.0
781,87.0,240.0,180.0,0.0,64.0
782,56.0,0.0,180.0,0.0,64.0
783,63.0,0.0,180.0,0.0,64.0
784,87.0,0.0,180.0,0.0,64.0
785,59.0,240.0,180.0,0.0,64.0
786,56.0,0.0,180.0,0.0,64.0
787,56.0,0.0,180.0,0.0,64.0
788,59.0,0.0,180.0,0.0,64.0
789,92.0,48.0,390.0,0.0,64.0
790,63.0,192.0,180.0,0.0,64.0
791,56.0,0.0,180.0,0.0,64.0
792,63.0,96.0,180.0,0.0,64.0
793,59.0,0.0,180.0,0.0,64.0
794,49.0,36.0,180.0,0.0,64.0
795,89.0,60.0,40.0,0.0,64.0
796,61.0,0.0,180.0,0.0,64.0
797,63.0,0.0,180.0,0.0,64.0
798,56.0,0.0,180.0,0.0,64.0
799,90.0,60.0,40.0,0.0,64.0
800,89.0,24.0,40.0,0.0,64.0
801,90.0,60.0,40.0,0.0,64.0
802,49.0,36.0,180.0,0.0,64.0
803,89.0,60.0,40.0,0.0,64.0
804,63.0,0.0,180.0,0.0,64.0
805,56.0,0.0,180.0,0.0,64.0
806,61.0,0.0,180.0,0.0,64.0
807,90.0,60.0,40.0,0.0,64.0
808,89.0,24.0,40.0,0.0,64.0
809,90.0,60.0,40.0,0.0,64.0
810,49.0,36.0,180.0,0.0,64.0
811,63.0,0.0,180.0,0.0,64.0
812,61.0,0.0,180.0,0.0,64.0
813,89.0,60.0,40.0,0.0,64.0
814,56.0,0.0,180.0,0.0,64.0
815,90.0,60.0,40.0,0.0,64.0
816,89.0,24.0,40.0,0.0,64.0
817,90.0,108.0,40.0,0.0,64.0
818,87.0,96.0,90.0,0.0,64.0
819,61.0,0.0,180.0,0.0,64.0
820,63.0,0.0,180.0,0.0,64.0
821,56.0,24.0,180.0,0.0,64.0
822,49.0,0.0,180.0,0.0,64.0
823,89.0,216.0,90.0,0.0,64.0
824,61.0,0.0,180.0,0.0,64.0
825,54.0,0.0,180.0,0.0,64.0
826,90.0,48.0,390.0,0.0,64.0
827,58.0,192.0,180.0,0.0,64.0
828,54.0,240.0,180.0,0.0,64.0
829,61.0,0.0,180.0,0.0,64.0
830,58.0,0.0,180.0,0.0,64.0
831,78.0,48.0,390.0,0.0,64.0
832,54.0,192.0,180.0,0.0,64.0
833,61.0,0.0,180.0,0.0,64.0
834,58.0,0.0,180.0,0.0,64.0
835,54.0,240.0,180.0,0.0,64.0
836,61.0,0.0,180.0,0.0,64.0
837,58.0,0.0,180.0,0.0,64.0
838,47.0,192.0,180.0,0.0,64.0
839,75.0,48.0,390.0,0.0,64.0
840,51.0,0.0,180.0,0.0,64.0
841,59.0,0.0,180.0,0.0,64.0
842,54.0,0.0,180.0,0.0,64.0
843,51.0,0.0,180.0,0.0,64.0
844,54.0,0.0,180.0,0.0,64.0
845,59.0,240.0,180.0,0.0,64.0
846,47.0,0.0,180.0,0.0,64.0
847,78.0,0.0,180.0,0.0,64.0
848,47.0,240.0,180.0,0.0,64.0
849,54.0,0.0,180.0,0.0,64.0
850,51.0,0.0,180.0,0.0,64.0
851,59.0,0.0,180.0,0.0,64.0
852,59.0,0.0,180.0,0.0,64.0
853,54.0,0.0,180.0,0.0,64.0
854,47.0,0.0,180.0,0.0,64.0
855,51.0,240.0,180.0,0.0,64.0
856,78.0,0.0,180.0,0.0,64.0
857,83.0,240.0,180.0,0.0,64.0
858,54.0,0.0,180.0,0.0,64.0
859,51.0,0.0,180.0,0.0,64.0
860,47.0,0.0,180.0,0.0,64.0
861,59.0,0.0,180.0,0.0,64.0
862,54.0,0.0,180.0,0.0,64.0
863,59.0,0.0,180.0,0.0,64.0
864,51.0,240.0,180.0,0.0,64.0
865,83.0,0.0,180.0,0.0,64.0
866,47.0,0.0,180.0,0.0,64.0
867,59.0,0.0,180.0,0.0,64.0
868,47.0,0.0,180.0,0.0,64.0
869,51.0,0.0,180.0,0.0,64.0
870,87.0,48.0,390.0,0.0,64.0
871,54.0,192.0,180.0,0.0,64.0
872,47.0,0.0,180.0,0.0,64.0
873,54.0,0.0,180.0,0.0,64.0
874,59.0,144.0,180.0,0.0,64.0
875,51.0,0.0,180.0,0.0,64.0
876,58.0,0.0,180.0,0.0,64.0
877,47.0,24.0,180.0,0.0,64.0
878,54.0,0.0,180.0,0.0,64.0
879,52.0,0.0,180.0,0.0,64.0
880,90.0,96.0,90.0,0.0,64.0
881,88.0,120.0,90.0,0.0,64.0
882,90.0,96.0,90.0,0.0,64.0
883,54.0,0.0,180.0,0.0,64.0
884,52.0,24.0,180.0,0.0,64.0
885,58.0,0.0,180.0,0.0,64.0
886,47.0,0.0,180.0,0.0,64.0
887,88.0,216.0,90.0,0.0,64.0
888,47.0,0.0,180.0,0.0,64.0
889,58.0,0.0,180.0,0.0,64.0
890,52.0,0.0,180.0,0.0,64.0
891,54.0,0.0,180.0,0.0,64.0
892,85.0,240.0,180.0,0.0,64.0
893,54.0,144.0,180.0,0.0,64.0
894,52.0,0.0,180.0,0.0,64.0
895,58.0,0.0,180.0,0.0,64.0
896,47.0,0.0,180.0,0.0,64.0
897,90.0,96.0,90.0,0.0,64.0
898,58.0,24.0,180.0,0.0,64.0
899,47.0,0.0,180.0,0.0,64.0
900,54.0,0.0,180.0,0.0,64.0
901,52.0,0.0,180.0,0.0,64.0
902,88.0,120.0,90.0,0.0,64.0
903,58.0,0.0,180.0,0.0,64.0
904,47.0,0.0,180.0,0.0,64.0
905,52.0,0.0,180.0,0.0,64.0
906,54.0,24.0,180.0,0.0,64.0
907,90.0,96.0,90.0,0.0,64.0
908,88.0,216.0,90.0,0.0,64.0
909,52.0,0.0,180.0,0.0,64.0
910,54.0,0.0,180.0,0.0,64.0
911,58.0,0.0,180.0,0.0,64.0
912,85.0,240.0,180.0,0.0,64.0
913,47.0,0.0,180.0,0.0,64.0
914,47.0,240.0,180.0,0.0,64.0
915,58.0,0.0,180.0,0.0,64.0
916,52.0,0.0,180.0,0.0,64.0
917,54.0,0.0,180.0,0.0,64.0
918,59.0,192.0,180.0,0.0,64.0
919,75.0,48.0,390.0,0.0,64.0
920,51.0,0.0,180.0,0.0,64.0
921,54.0,0.0,180.0,0.0,64.0
922,47.0,0.0,180.0,0.0,64.0
923,47.0,240.0,180.0,0.0,64.0
924,54.0,0.0,180.0,0.0,64.0
925,51.0,0.0,180.0,0.0,64.0
926,59.0,0.0,180.0,0.0,64.0
927,78.0,240.0,180.0,0.0,64.0
928,54.0,0.0,180.0,0.0,64.0
929,51.0,0.0,180.0,0.0,64.0
930,59.0,0.0,180.0,0.0,64.0
931,47.0,0.0,180.0,0.0,64.0
932,59.0,0.0,180.0,0.0,64.0
933,47.0,240.0,180.0,0.0,64.0
934,51.0,0.0,180.0,0.0,64.0
935,78.0,0.0,180.0,0.0,64.0
936,54.0,0.0,180.0,0.0,64.0
937,83.0,240.0,180.0,0.0,64.0
938,54.0,0.0,180.0,0.0,64.0
939,51.0,0.0,180.0,0.0,64.0
940,47.0,0.0,180.0,0.0,64.0
941,59.0,0.0,180.0,0.0,64.0
942,47.0,0.0,180.0,0.0,64.0
943,59.0,0.0,180.0,0.0,64.0
944,54.0,240.0,180.0,0.0,64.0
945,83.0,0.0,180.0,0.0,64.0
946,51.0,0.0,180.0,0.0,64.0
947,59.0,0.0,180.0,0.0,64.0
948,47.0,0.0,180.0,0.0,64.0
949,51.0,0.0,180.0,0.0,64.0
950,87.0,48.0,390.0,0.0,64.0
951,54.0,192.0,180.0,0.0,64.0
952,47.0,0.0,180.0,0.0,64.0
953,54.0,0.0,180.0,0.0,64.0
954,59.0,144.0,180.0,0.0,64.0
955,51.0,0.0,180.0,0.0,64.0
956,52.0,24.0,180.0,0.0,64.0
957,54.0,0.0,180.0,0.0,64.0
958,47.0,0.0,180.0,0.0,64.0
959,90.0,96.0,90.0,0.0,64.0
960,58.0,0.0,180.0,0.0,64.0
961,88.0,120.0,90.0,0.0,64.0
962,58.0,0.0,180.0,0.0,64.0
963,47.0,0.0,180.0,0.0,64.0
964,90.0,96.0,90.0,0.0,64.0
965,54.0,24.0,180.0,0.0,64.0
966,52.0,0.0,180.0,0.0,64.0
967,88.0,216.0,90.0,0.0,64.0
968,47.0,144.0,180.0,0.0,64.0
969,58.0,0.0,180.0,0.0,64.0
970,54.0,0.0,180.0,0.0,64.0
971,85.0,0.0,180.0,0.0,64.0
972,52.0,0.0,180.0,0.0,64.0
973,52.0,24.0,180.0,0.0,64.0
974,58.0,0.0,180.0,0.0,64.0
975,47.0,0.0,180.0,0.0,64.0
976,54.0,0.0,180.0,0.0,64.0
977,85.0,96.0,90.0,0.0,64.0
978,87.0,408.0,90.0,0.0,64.0
979,51.0,0.0,390.0,0.0,64.0
980,59.0,0.0,390.0,0.0,64.0
981,54.0,0.0,390.0,0.0,64.0
982,83.0,480.0,390.0,0.0,64.0
983,47.0,0.0,390.0,0.0,64.0
984,47.0,48.0,390.0,0.0,64.0
985,78.0,144.0,180.0,0.0,64.0
986,59.0,0.0,180.0,0.0,64.0
987,54.0,0.0,180.0,0.0,64.0
988,86.0,96.0,90.0,0.0,64.0
989,50.0,0.0,180.0,0.0,64.0
990,47.0,24.0,180.0,0.0,64.0
991,90.0,120.0,90.0,0.0,64.0
992,54.0,0.0,180.0,0.0,64.0
993,59.0,0.0,180.0,0.0,64.0
994,50.0,24.0,180.0,0.0,64.0
995,83.0,96.0,90.0,0.0,64.0
996,47.0,0.0,180.0,0.0,64.0
997,86.0,120.0,90.0,0.0,64.0
998,78.0,120.0,90.0,0.0,64.0
999,83.0,120.0,90.0,0.0,64.0
1000,74.0,96.0,90.0,0.0,64.0
1001,59.0,0.0,180.0,0.0,64.0
1002,47.0,0.0,180.0,0.0,64.0
1003,54.0,24.0,180.0,0.0,64.0
1004,50.0,0.0,180.0,0.0,64.0
1005,78.0,120.0,90.0,0.0,64.0
1006,55.0,0.0,180.0,0.0,64.0
1007,59.0,0.0,180.0,0.0,64.0
1008,79.0,96.0,90.0,0.0,64.0
1009,52.0,24.0,180.0,0.0,64.0
1010,83.0,120.0,90.0,0.0,64.0
1011,59.0,24.0,180.0,0.0,64.0
1012,76.0,96.0,90.0,0.0,64.0
1013,52.0,0.0,180.0,0.0,64.0
1014,55.0,0.0,180.0,0.0,64.0
1015,79.0,120.0,90.0,0.0,64.0
1016,71.0,120.0,90.0,0.0,64.0
1017,76.0,120.0,90.0,0.0,64.0
1018,67.0,96.0,90.0,0.0,64.0
1019,52.0,0.0,180.0,0.0,64.0
1020,55.0,0.0,180.0,0.0,64.0
1021,59.0,24.0,180.0,0.0,64.0
1022,71.0,120.0,90.0,0.0,64.0
1023,45.0,0.0,180.0,0.0,64.0
1024,52.0,0.0,180.0,0.0,64.0
1025,49.0,24.0,180.0,0.0,64.0
1026,57.0,0.0,180.0,0.0,64.0
1027,85.0,96.0,90.0,0.0,64.0
1028,88.0,120.0,90.0,0.0,64.0
1029,57.0,0.0,180.0,0.0,64.0
1030,49.0,24.0,180.0,0.0,64.0
1031,52.0,0.0,180.0,0.0,64.0
1032,81.0,96.0,90.0,0.0,64.0
1033,45.0,0.0,180.0,0.0,64.0
1034,85.0,120.0,90.0,0.0,64.0
1035,76.0,120.0,90.0,0.0,64.0
1036,81.0,120.0,90.0,0.0,64.0
1037,49.0,24.0,180.0,0.0,64.0
1038,45.0,0.0,180.0,0.0,64.0
1039,52.0,0.0,180.0,0.0,64.0
1040,73.0,96.0,90.0,0.0,64.0
1041,57.0,0.0,180.0,0.0,64.0
1042,76.0,120.0,90.0,0.0,64.0
1043,50.0,24.0,180.0,0.0,64.0
1044,57.0,0.0,180.0,0.0,64.0
1045,54.0,0.0,180.0,0.0,64.0
1046,78.0,96.0,90.0,0.0,64.0
1047,81.0,120.0,90.0,0.0,64.0
1048,57.0,0.0,180.0,0.0,64.0
1049,74.0,96.0,90.0,0.0,64.0
1050,54.0,0.0,180.0,0.0,64.0
1051,50.0,24.0,180.0,0.0,64.0
1052,78.0,120.0,90.0,0.0,64.0
1053,69.0,120.0,90.0,0.0,64.0
1054,74.0,120.0,90.0,0.0,64.0
1055,66.0,96.0,90.0,0.0,64.0
1056,50.0,24.0,180.0,0.0,64.0
1057,54.0,0.0,180.0,0.0,64.0
1058,57.0,0.0,180.0,0.0,64.0
1059,69.0,120.0,90.0,0.0,64.0
1060,93.0,96.0,90.0,0.0,64.0
1061,54.0,24.0,180.0,0.0,64.0
1062,42.0,0.0,180.0,0.0,64.0
1063,90.0,120.0,90.0,0.0,64.0
1064,54.0,0.0,180.0,0.0,64.0
1065,86.0,96.0,90.0,0.0,64.0
1066,42.0,24.0,180.0,0.0,64.0
1067,90.0,120.0,90.0,0.0,64.0
1068,81.0,120.0,90.0,0.0,64.0
1069,86.0,120.0,90.0,0.0,64.0
1070,78.0,96.0,90.0,0.0,64.0
1071,42.0,24.0,180.0,0.0,64.0
1072,54.0,0.0,180.0,0.0,64.0
1073,81.0,120.0,90.0,0.0,64.0
1074,43.0,0.0,180.0,0.0,64.0
1075,55.0,24.0,180.0,0.0,64.0
1076,76.0,96.0,90.0,0.0,64.0
1077,79.0,120.0,90.0,0.0,64.0
1078,55.0,24.0,180.0,0.0,64.0
1079,43.0,0.0,180.0,0.0,64.0
1080,71.0,96.0,90.0,0.0,64.0
1081,76.0,120.0,90.0,0.0,64.0
1082,67.0,120.0,90.0,0.0,64.0
1083,71.0,120.0,90.0,0.0,64.0
1084,55.0,0.0,180.0,0.0,64.0
1085,64.0,96.0,90.0,0.0,64.0
1086,43.0,24.0,180.0,0.0,64.0
1087,67.0,120.0,90.0,0.0,64.0
1088,45.0,24.0,180.0,0.0,64.0
1089,57.0,0.0,180.0,0.0,64.0
1090,66.0,96.0,90.0,0.0,64.0
1091,69.0,120.0,90.0,0.0,64.0
1092,62.0,120.0,90.0,0.0,64.0
1093,66.0,120.0,90.0,0.0,64.0
1094,45.0,24.0,180.0,0.0,64.0
1095,64.0,96.0,90.0,0.0,64.0
1096,67.0,120.0,90.0,0.0,64.0
1097,61.0,120.0,90.0,0.0,64.0
1098,64.0,240.0,90.0,0.0,64.0
1099,62.0,72.0,390.0,0.0,64.0
1100,50.0,120.0,90.0,0.0,64.0
1101,54.0,48.0,90.0,0.0,64.0
1102,52.0,120.0,90.0,0.0,64.0
1103,50.0,120.0,90.0,0.0,64.0
1104,52.0,120.0,90.0,0.0,64.0
1105,78.0,24.0,180.0,0.0,64.0
1106,50.0,96.0,90.0,0.0,64.0
1107,49.0,120.0,90.0,0.0,64.0
1108,59.0,24.0,180.0,0.0,64.0
1109,54.0,0.0,180.0,0.0,64.0
1110,86.0,96.0,90.0,0.0,64.0
1111,50.0,0.0,180.0,0.0,64.0
1112,47.0,0.0,180.0,0.0,64.0
1113,90.0,120.0,90.0,0.0,64.0
1114,59.0,0.0,180.0,0.0,64.0
1115,50.0,0.0,180.0,0.0,64.0
1116,47.0,0.0,180.0,0.0,64.0
1117,83.0,96.0,90.0,0.0,64.0
1118,54.0,24.0,180.0,0.0,64.0
1119,86.0,120.0,90.0,0.0,64.0
1120,78.0,120.0,90.0,0.0,64.0
1121,83.0,120.0,90.0,0.0,64.0
1122,50.0,0.0,180.0,0.0,64.0
1123,59.0,0.0,180.0,0.0,64.0
1124,54.0,24.0,180.0,0.0,64.0
1125,74.0,96.0,90.0,0.0,64.0
1126,47.0,0.0,180.0,0.0,64.0
1127,78.0,120.0,90.0,0.0,64.0
1128,52.0,0.0,180.0,0.0,64.0
1129,55.0,0.0,180.0,0.0,64.0
1130,59.0,24.0,180.0,0.0,64.0
1131,79.0,96.0,90.0,0.0,64.0
1132,83.0,120.0,90.0,0.0,64.0
1133,52.0,24.0,180.0,0.0,64.0
1134,55.0,0.0,180.0,0.0,64.0
1135,59.0,0.0,180.0,0.0,64.0
1136,76.0,96.0,90.0,0.0,64.0
1137,79.0,120.0,90.0,0.0,64.0
1138,71.0,120.0,90.0,0.0,64.0
1139,76.0,120.0,90.0,0.0,64.0
1140,67.0,96.0,90.0,0.0,64.0
1141,52.0,24.0,180.0,0.0,64.0
1142,55.0,0.0,180.0,0.0,64.0
1143,59.0,0.0,180.0,0.0,64.0
1144,71.0,120.0,90.0,0.0,64.0
1145,57.0,24.0,180.0,0.0,64.0
1146,49.0,0.0,180.0,0.0,64.0
1147,52.0,0.0,180.0,0.0,64.0
1148,45.0,0.0,180.0,0.0,64.0
1149,85.0,96.0,90.0,0.0,64.0
1150,88.0,120.0,90.0,0.0,64.0
1151,57.0,0.0,180.0,0.0,64.0
1152,81.0,96.0,90.0,0.0,64.0
1153,45.0,24.0,180.0,0.0,64.0
1154,52.0,0.0,180.0,0.0,64.0
1155,49.0,0.0,180.0,0.0,64.0
1156,85.0,120.0,90.0,0.0,64.0
1157,76.0,120.0,90.0,0.0,64.0
1158,81.0,120.0,90.0,0.0,64.0
1159,45.0,0.0,180.0,0.0,64.0
1160,57.0,24.0,180.0,0.0,64.0
1161,52.0,0.0,180.0,0.0,64.0
1162,73.0,96.0,90.0,0.0,64.0
1163,49.0,0.0,180.0,0.0,64.0
1164,76.0,120.0,90.0,0.0,64.0
1165,78.0,96.0,90.0,0.0,64.0
1166,54.0,0.0,180.0,0.0,64.0
1167,57.0,0.0,180.0,0.0,64.0
1168,50.0,24.0,180.0,0.0,64.0
1169,81.0,120.0,90.0,0.0,64.0
1170,57.0,24.0,180.0,0.0,64.0
1171,50.0,0.0,180.0,0.0,64.0
1172,74.0,96.0,90.0,0.0,64.0
1173,54.0,0.0,180.0,0.0,64.0
1174,78.0,120.0,90.0,0.0,64.0
1175,69.0,120.0,90.0,0.0,64.0
1176,74.0,120.0,90.0,0.0,64.0
1177,66.0,96.0,90.0,0.0,64.0
1178,50.0,24.0,180.0,0.0,64.0
1179,54.0,0.0,180.0,0.0,64.0
1180,57.0,0.0,180.0,0.0,64.0
1181,69.0,120.0,90.0,0.0,64.0
1182,93.0,96.0,90.0,0.0,64.0
1183,54.0,0.0,180.0,0.0,64.0
1184,42.0,24.0,180.0,0.0,64.0
1185,90.0,120.0,90.0,0.0,64.0
1186,86.0,96.0,90.0,0.0,64.0
1187,54.0,0.0,180.0,0.0,64.0
1188,42.0,24.0,180.0,0.0,64.0
1189,90.0,120.0,90.0,0.0,64.0
1190,81.0,120.0,90.0,0.0,64.0
1191,86.0,120.0,90.0,0.0,64.0
1192,78.0,96.0,90.0,0.0,64.0
1193,42.0,24.0,180.0,0.0,64.0
1194,54.0,0.0,180.0,0.0,64.0
1195,81.0,120.0,90.0,0.0,64.0
1196,43.0,0.0,180.0,0.0,64.0
1197,55.0,24.0,180.0,0.0,64.0
1198,76.0,96.0,90.0,0.0,64.0
1199,79.0,120.0,90.0,0.0,64.0
1200,55.0,24.0,180.0,0.0,64.0
1201,43.0,0.0,180.0,0.0,64.0
1202,71.0,96.0,90.0,0.0,64.0
1203,76.0,120.0,90.0,0.0,64.0
1204,67.0,120.0,90.0,0.0,64.0
1205,71.0,120.0,90.0,0.0,64.0
1206,64.0,96.0,90.0,0.0,64.0
1207,55.0,0.0,180.0,0.0,64.0
1208,43.0,24.0,180.0,0.0,64.0
1209,67.0,120.0,90.0,0.0,64.0
1210,66.0,96.0,90.0,0.0,64.0
1211,57.0,0.0,180.0,0.0,64.0
1212,45.0,24.0,180.0,0.0,64.0
1213,69.0,120.0,90.0,0.0,64.0
1214,62.0,120.0,90.0,0.0,64.0
1215,66.0,120.0,90.0,0.0,64.0
1216,64.0,96.0,90.0,0.0,64.0
1217,45.0,24.0,180.0,0.0,64.0
1218,67.0,120.0,90.0,0.0,64.0
1219,61.0,120.0,90.0,0.0,64.0
1220,64.0,240.0,90.0,0.0,64.0
1221,62.0,72.0,390.0,0.0,64.0
1222,50.0,120.0,90.0,0.0,64.0
1223,54.0,48.0,90.0,0.0,64.0
1224,57.0,216.0,90.0,0.0,64.0
1225,62.0,240.0,180.0,0.0,64.0
1226,81.0,144.0,180.0,0.0,64.0
1227,50.0,0.0,570.0,0.0,64.0
1228,93.0,120.0,90.0,0.0,64.0
1229,62.0,0.0,570.0,0.0,64.0
1230,90.0,120.0,90.0,0.0,64.0
1231,86.0,120.0,90.0,0.0,64.0
1232,90.0,120.0,90.0,0.0,64.0
1233,81.0,120.0,90.0,0.0,64.0
1234,86.0,120.0,90.0,0.0,64.0
1235,48.0,0.0,180.0,0.0,64.0
1236,60.0,24.0,180.0,0.0,64.0
1237,78.0,96.0,90.0,0.0,64.0
1238,81.0,120.0,90.0,0.0,64.0
1239,59.0,0.0,390.0,0.0,64.0
1240,75.0,120.0,90.0,0.0,64.0
1241,47.0,72.0,390.0,0.0,64.0
1242,78.0,120.0,90.0,0.0,64.0
1243,69.0,48.0,90.0,0.0,64.0
1244,75.0,120.0,90.0,0.0,64.0
1245,66.0,120.0,90.0,0.0,64.0
1246,69.0,120.0,90.0,0.0,64.0
1247,47.0,24.0,180.0,0.0,64.0
1248,59.0,0.0,180.0,0.0,64.0
1249,63.0,96.0,90.0,0.0,64.0
1250,66.0,120.0,90.0,0.0,64.0
1251,52.0,72.0,390.0,0.0,64.0
1252,91.0,120.0,90.0,0.0,64.0
1253,64.0,0.0,390.0,0.0,64.0
1254,88.0,120.0,90.0,0.0,64.0
1255,83.0,48.0,90.0,0.0,64.0
1256,88.0,120.0,90.0,0.0,64.0
1257,79.0,120.0,90.0,0.0,64.0
1258,83.0,120.0,90.0,0.0,64.0
1259,78.0,96.0,90.0,0.0,64.0
1260,62.0,0.0,180.0,0.0,64.0
1261,50.0,24.0,180.0,0.0,64.0
1262,83.0,120.0,90.0,0.0,64.0
1263,77.0,120.0,90.0,0.0,64.0
1264,49.0,0.0,390.0,0.0,64.0
1265,61.0,72.0,390.0,0.0,64.0
1266,80.0,120.0,90.0,0.0,64.0
1267,71.0,48.0,90.0,0.0,64.0
1268,77.0,120.0,90.0,0.0,64.0
1269,68.0,120.0,90.0,0.0,64.0
1270,71.0,120.0,90.0,0.0,64.0
1271,65.0,96.0,90.0,0.0,64.0
1272,49.0,24.0,180.0,0.0,64.0
1273,37.0,0.0,180.0,0.0,64.0
1274,68.0,120.0,90.0,0.0,64.0
1275,42.0,120.0,570.0,0.0,64.0
1276,66.0,120.0,90.0,0.0,64.0
1277,54.0,0.0,570.0,0.0,64.0
1278,70.0,120.0,90.0,0.0,64.0
1279,73.0,120.0,90.0,0.0,64.0
1280,70.0,120.0,90.0,0.0,64.0
1281,78.0,0.0,90.0,0.0,64.0
1282,73.0,120.0,90.0,0.0,64.0
1283,40.0,0.0,180.0,0.0,64.0
1284,52.0,24.0,180.0,0.0,64.0
1285,82.0,96.0,90.0,0.0,64.0
1286,78.0,120.0,90.0,0.0,64.0
1287,50.0,0.0,180.0,0.0,64.0
1288,38.0,24.0,180.0,0.0,64.0
1289,83.0,96.0,90.0,0.0,64.0
1290,78.0,120.0,90.0,0.0,64.0
1291,50.0,24.0,180.0,0.0,64.0
1292,74.0,96.0,90.0,0.0,64.0
1293,38.0,0.0,180.0,0.0,64.0
1294,78.0,120.0,90.0,0.0,64.0
1295,71.0,120.0,90.0,0.0,64.0
1296,74.0,120.0,90.0,0.0,64.0
1297,66.0,96.0,90.0,0.0,64.0
1298,50.0,0.0,180.0,0.0,64.0
1299,38.0,24.0,180.0,0.0,64.0
1300,71.0,120.0,90.0,0.0,64.0
1301,40.0,0.0,390.0,0.0,64.0
1302,67.0,120.0,90.0,0.0,64.0
1303,52.0,72.0,390.0,0.0,64.0
1304,71.0,120.0,90.0,0.0,64.0
1305,64.0,48.0,90.0,0.0,64.0
1306,67.0,120.0,90.0,0.0,64.0
1307,61.0,120.0,90.0,0.0,64.0
1308,42.0,0.0,390.0,0.0,64.0
1309,54.0,72.0,390.0,0.0,64.0
1310,64.0,120.0,90.0,0.0,64.0
1311,58.0,48.0,90.0,0.0,64.0
1312,61.0,240.0,90.0,0.0,64.0
1313,59.0,72.0,390.0,0.0,64.0
1314,35.0,120.0,90.0,0.0,64.0
1315,38.0,48.0,90.0,0.0,64.0
1316,42.0,216.0,90.0,0.0,64.0
1317,47.0,240.0,180.0,0.0,64.0
1318,81.0,144.0,180.0,0.0,64.0
1319,62.0,120.0,570.0,0.0,64.0
1320,93.0,120.0,90.0,0.0,64.0
1321,50.0,0.0,570.0,0.0,64.0
1322,90.0,120.0,90.0,0.0,64.0
1323,86.0,120.0,90.0,0.0,64.0
1324,90.0,120.0,90.0,0.0,64.0
1325,81.0,0.0,90.0,0.0,64.0
1326,86.0,120.0,90.0,0.0,64.0
1327,60.0,0.0,180.0,0.0,64.0
1328,48.0,24.0,180.0,0.0,64.0
1329,78.0,96.0,90.0,0.0,64.0
1330,81.0,120.0,90.0,0.0,64.0
1331,47.0,0.0,390.0,0.0,64.0
1332,75.0,120.0,90.0,0.0,64.0
1333,59.0,72.0,390.0,0.0,64.0
1334,78.0,120.0,90.0,0.0,64.0
1335,69.0,48.0,90.0,0.0,64.0
1336,75.0,120.0,90.0,0.0,64.0
1337,66.0,120.0,90.0,0.0,64.0
1338,69.0,120.0,90.0,0.0,64.0
1339,63.0,96.0,90.0,0.0,64.0
1340,59.0,24.0,180.0,0.0,64.0
1341,47.0,0.0,180.0,0.0,64.0
1342,66.0,120.0,90.0,0.0,64.0
1343,64.0,72.0,390.0,0.0,64.0
1344,91.0,120.0,90.0,0.0,64.0
1345,52.0,0.0,390.0,0.0,64.0
1346,88.0,120.0,90.0,0.0,64.0
1347,83.0,48.0,90.0,0.0,64.0
1348,88.0,120.0,90.0,0.0,64.0
1349,79.0,120.0,90.0,0.0,64.0
1350,83.0,120.0,90.0,0.0,64.0
1351,62.0,24.0,180.0,0.0,64.0
1352,78.0,96.0,90.0,0.0,64.0
1353,50.0,0.0,180.0,0.0,64.0
1354,83.0,120.0,90.0,0.0,64.0
1355,77.0,120.0,90.0,0.0,64.0
1356,61.0,72.0,390.0,0.0,64.0
1357,49.0,0.0,390.0,0.0,64.0
1358,80.0,120.0,90.0,0.0,64.0
1359,71.0,48.0,90.0,0.0,64.0
1360,77.0,120.0,90.0,0.0,64.0
1361,68.0,120.0,90.0,0.0,64.0
1362,71.0,120.0,90.0,0.0,64.0
1363,49.0,0.0,180.0,0.0,64.0
1364,37.0,24.0,180.0,0.0,64.0
1365,65.0,96.0,90.0,0.0,64.0
1366,68.0,120.0,90.0,0.0,64.0
1367,42.0,0.0,570.0,0.0,64.0
1368,66.0,120.0,90.0,0.0,64.0
1369,54.0,120.0,570.0,0.0,64.0
1370,70.0,120.0,90.0,0.0,64.0
1371,73.0,120.0,90.0,0.0,64.0
1372,70.0,120.0,90.0,0.0,64.0
1373,78.0,0.0,90.0,0.0,64.0
1374,73.0,120.0,90.0,0.0,64.0
1375,82.0,96.0,90.0,0.0,64.0
1376,52.0,24.0,180.0,0.0,64.0
1377,40.0,0.0,180.0,0.0,64.0
1378,78.0,120.0,90.0,0.0,64.0
1379,50.0,0.0,180.0,0.0,64.0
1380,83.0,96.0,90.0,0.0,64.0
1381,38.0,24.0,180.0,0.0,64.0
1382,78.0,120.0,90.0,0.0,64.0
1383,50.0,24.0,180.0,0.0,64.0
1384,38.0,0.0,180.0,0.0,64.0
1385,74.0,96.0,90.0,0.0,64.0
1386,78.0,120.0,90.0,0.0,64.0
1387,71.0,120.0,90.0,0.0,64.0
1388,74.0,120.0,90.0,0.0,64.0
1389,66.0,96.0,90.0,0.0,64.0
1390,50.0,24.0,180.0,0.0,64.0
1391,38.0,0.0,180.0,0.0,64.0
1392,71.0,120.0,90.0,0.0,64.0
1393,52.0,72.0,390.0,0.0,64.0
1394,67.0,120.0,90.0,0.0,64.0
1395,40.0,0.0,390.0,0.0,64.0
1396,71.0,120.0,90.0,0.0,64.0
1397,64.0,48.0,90.0,0.0,64.0
1398,67.0,120.0,90.0,0.0,64.0
1399,42.0,0.0,390.0,0.0,64.0
1400,54.0,72.0,390.0,0.0,64.0
1401,61.0,120.0,90.0,0.0,64.0
1402,64.0,120.0,90.0,0.0,64.0
1403,58.0,48.0,90.0,0.0,64.0
1404,61.0,120.0,90.0,0.0,64.0
1405,35.0,72.0,390.0,0.0,64.0
1406,59.0,120.0,90.0,0.0,64.0
1407,47.0,0.0,390.0,0.0,64.0
1408,66.0,120.0,90.0,0.0,64.0
1409,62.0,48.0,90.0,0.0,64.0
1410,66.0,216.0,90.0,0.0,64.0
1411,59.0,24.0,180.0,0.0,64.0
1412,38.0,120.0,90.0,0.0,64.0
1413,40.0,120.0,90.0,0.0,64.0
1414,42.0,216.0,90.0,0.0,64.0
1415,59.0,0.0,180.0,0.0,64.0
1416,43.0,48.0,390.0,0.0,64.0
1417,62.0,192.0,180.0,0.0,64.0
1418,59.0,240.0,180.0,0.0,64.0
1419,62.0,0.0,180.0,0.0,64.0
1420,59.0,240.0,180.0,0.0,64.0
1421,62.0,0.0,180.0,0.0,64.0
1422,47.0,0.0,180.0,0.0,64.0
1423,62.0,0.0,180.0,0.0,64.0
1424,59.0,240.0,180.0,0.0,64.0
1425,47.0,0.0,180.0,0.0,64.0
1426,50.0,0.0,180.0,0.0,64.0
1427,62.0,0.0,180.0,0.0,64.0
1428,59.0,240.0,180.0,0.0,64.0
1429,59.0,0.0,180.0,0.0,64.0
1430,50.0,0.0,180.0,0.0,64.0
1431,62.0,240.0,180.0,0.0,64.0
1432,55.0,48.0,390.0,0.0,64.0
1433,62.0,0.0,180.0,0.0,64.0
1434,59.0,192.0,180.0,0.0,64.0
1435,62.0,144.0,180.0,0.0,64.0
1436,59.0,0.0,180.0,0.0,64.0
1437,62.0,0.0,180.0,0.0,64.0
1438,60.0,24.0,180.0,0.0,64.0
1439,55.0,96.0,90.0,0.0,64.0
1440,54.0,120.0,90.0,0.0,64.0
1441,62.0,0.0,180.0,0.0,64.0
1442,55.0,96.0,90.0,0.0,64.0
1443,60.0,24.0,180.0,0.0,64.0
1444,54.0,216.0,90.0,0.0,64.0
1445,60.0,192.0,180.0,0.0,64.0
1446,62.0,0.0,180.0,0.0,64.0
1447,50.0,48.0,390.0,0.0,64.0
1448,62.0,144.0,180.0,0.0,64.0
1449,60.0,0.0,180.0,0.0,64.0
1450,62.0,0.0,180.0,0.0,64.0
1451,60.0,24.0,180.0,0.0,64.0
1452,55.0,96.0,90.0,0.0,64.0
1453,54.0,120.0,90.0,0.0,64.0
1454,62.0,24.0,180.0,0.0,64.0
1455,55.0,96.0,90.0,0.0,64.0
1456,60.0,0.0,180.0,0.0,64.0
1457,54.0,216.0,90.0,0.0,64.0
1458,60.0,192.0,180.0,0.0,64.0
1459,62.0,0.0,180.0,0.0,64.0
1460,50.0,48.0,390.0,0.0,64.0
1461,60.0,0.0,180.0,0.0,64.0
1462,62.0,240.0,180.0,0.0,64.0
1463,67.0,48.0,390.0,0.0,64.0
1464,59.0,192.0,180.0,0.0,64.0
1465,62.0,0.0,180.0,0.0,64.0
1466,55.0,0.0,180.0,0.0,64.0
1467,62.0,0.0,180.0,0.0,64.0
1468,55.0,240.0,180.0,0.0,64.0
1469,59.0,0.0,180.0,0.0,64.0
1470,71.0,0.0,180.0,0.0,64.0
1471,59.0,0.0,180.0,0.0,64.0
1472,62.0,240.0,180.0,0.0,64.0
1473,55.0,0.0,180.0,0.0,64.0
1474,59.0,0.0,180.0,0.0,64.0
1475,62.0,0.0,180.0,0.0,64.0
1476,55.0,240.0,180.0,0.0,64.0
1477,71.0,0.0,180.0,0.0,64.0
1478,59.0,0.0,180.0,0.0,64.0
1479,55.0,0.0,180.0,0.0,64.0
1480,74.0,240.0,180.0,0.0,64.0
1481,62.0,0.0,180.0,0.0,64.0
1482,62.0,240.0,180.0,0.0,64.0
1483,74.0,0.0,180.0,0.0,64.0
1484,59.0,0.0,180.0,0.0,64.0
1485,55.0,0.0,180.0,0.0,64.0
1486,55.0,0.0,180.0,0.0,64.0
1487,59.0,192.0,180.0,0.0,64.0
1488,62.0,0.0,180.0,0.0,64.0
1489,79.0,48.0,390.0,0.0,64.0
1490,59.0,0.0,180.0,0.0,64.0
1491,55.0,144.0,180.0,0.0,64.0
1492,62.0,0.0,180.0,0.0,64.0
1493,78.0,96.0,90.0,0.0,64.0
1494,59.0,0.0,180.0,0.0,64.0
1495,62.0,24.0,180.0,0.0,64.0
1496,56.0,0.0,180.0,0.0,64.0
1497,77.0,120.0,90.0,0.0,64.0
1498,78.0,96.0,90.0,0.0,64.0
1499,59.0,24.0,180.0,0.0,64.0
1500,56.0,0.0,180.0,0.0,64.0
1501,62.0,0.0,180.0,0.0,64.0
1502,77.0,216.0,90.0,0.0,64.0
1503,56.0,0.0,180.0,0.0,64.0
1504,83.0,48.0,390.0,0.0,64.0
1505,59.0,192.0,180.0,0.0,64.0
1506,62.0,0.0,180.0,0.0,64.0
1507,59.0,144.0,180.0,0.0,64.0
1508,62.0,0.0,180.0,0.0,64.0
1509,56.0,0.0,180.0,0.0,64.0
1510,66.0,0.0,180.0,0.0,64.0
1511,78.0,96.0,90.0,0.0,64.0
1512,58.0,24.0,180.0,0.0,64.0
1513,61.0,0.0,180.0,0.0,64.0
1514,76.0,120.0,90.0,0.0,64.0
1515,66.0,24.0,180.0,0.0,64.0
1516,58.0,0.0,180.0,0.0,64.0
1517,78.0,96.0,90.0,0.0,64.0
1518,61.0,0.0,180.0,0.0,64.0
1519,76.0,216.0,90.0,0.0,64.0
1520,58.0,0.0,180.0,0.0,64.0
1521,61.0,0.0,180.0,0.0,64.0
1522,85.0,48.0,390.0,0.0,64.0
1523,66.0,192.0,180.0,0.0,64.0
1524,66.0,240.0,180.0,0.0,64.0
1525,58.0,0.0,180.0,0.0,64.0
1526,61.0,0.0,180.0,0.0,64.0
1527,63.0,0.0,180.0,0.0,64.0
1528,75.0,48.0,390.0,0.0,64.0
1529,59.0,192.0,180.0,0.0,64.0
1530,66.0,0.0,180.0,0.0,64.0
1531,63.0,0.0,180.0,0.0,64.0
1532,66.0,0.0,180.0,0.0,64.0
1533,59.0,240.0,180.0,0.0,64.0
1534,78.0,0.0,180.0,0.0,64.0
1535,66.0,0.0,180.0,0.0,64.0
1536,59.0,0.0,180.0,0.0,64.0
1537,63.0,240.0,180.0,0.0,64.0
1538,59.0,0.0,180.0,0.0,64.0
1539,78.0,240.0,180.0,0.0,64.0
1540,63.0,0.0,180.0,0.0,64.0
1541,66.0,0.0,180.0,0.0,64.0
1542,59.0,0.0,180.0,0.0,64.0
1543,66.0,0.0,180.0,0.0,64.0
1544,83.0,0.0,180.0,0.0,64.0
1545,63.0,240.0,180.0,0.0,64.0
1546,83.0,240.0,180.0,0.0,64.0
1547,59.0,0.0,180.0,0.0,64.0
1548,66.0,0.0,180.0,0.0,64.0
1549,63.0,0.0,180.0,0.0,64.0
1550,63.0,192.0,180.0,0.0,64.0
1551,66.0,0.0,180.0,0.0,64.0
1552,87.0,48.0,390.0,0.0,64.0
1553,59.0,0.0,180.0,0.0,64.0
1554,59.0,144.0,180.0,0.0,64.0
1555,66.0,0.0,180.0,0.0,64.0
1556,63.0,0.0,180.0,0.0,64.0
1557,90.0,96.0,90.0,0.0,64.0
1558,70.0,0.0,180.0,0.0,64.0
1559,59.0,0.0,180.0,0.0,64.0
1560,64.0,24.0,180.0,0.0,64.0
1561,66.0,0.0,180.0,0.0,64.0
1562,88.0,120.0,90.0,0.0,64.0
1563,90.0,96.0,90.0,0.0,64.0
1564,59.0,24.0,180.0,0.0,64.0
1565,64.0,0.0,180.0,0.0,64.0
1566,70.0,0.0,180.0,0.0,64.0
1567,66.0,0.0,180.0,0.0,64.0
1568,88.0,216.0,90.0,0.0,64.0
1569,59.0,0.0,180.0,0.0,64.0
1570,70.0,0.0,180.0,0.0,64.0
1571,64.0,0.0,180.0,0.0,64.0
1572,66.0,240.0,180.0,0.0,64.0
1573,85.0,0.0,180.0,0.0,64.0
1574,64.0,144.0,180.0,0.0,64.0
1575,70.0,0.0,180.0,0.0,64.0
1576,59.0,0.0,180.0,0.0,64.0
1577,66.0,0.0,180.0,0.0,64.0
1578,59.0,24.0,180.0,0.0,64.0
1579,70.0,0.0,180.0,0.0,64.0
1580,64.0,0.0,180.0,0.0,64.0
1581,66.0,0.0,180.0,0.0,64.0
1582,90.0,96.0,90.0,0.0,64.0
1583,88.0,120.0,90.0,0.0,64.0
1584,90.0,96.0,90.0,0.0,64.0
1585,66.0,0.0,180.0,0.0,64.0
1586,64.0,24.0,180.0,0.0,64.0
1587,70.0,0.0,180.0,0.0,64.0
1588,59.0,0.0,180.0,0.0,64.0
1589,88.0,216.0,90.0,0.0,64.0
1590,59.0,0.0,180.0,0.0,64.0
1591,64.0,0.0,180.0,0.0,64.0
1592,66.0,0.0,180.0,0.0,64.0
1593,85.0,0.0,180.0,0.0,64.0
1594,70.0,240.0,180.0,0.0,64.0
1595,64.0,0.0,180.0,0.0,64.0
1596,70.0,0.0,180.0,0.0,64.0
1597,59.0,0.0,180.0,0.0,64.0
1598,66.0,36.0,180.0,0.0,64.0
1599,74.0,204.0,40.0,0.0,64.0
1600,75.0,96.0,330.0,0.0,64.0
1601,66.0,144.0,180.0,0.0,64.0
1602,63.0,0.0,180.0,0.0,64.0
1603,59.0,0.0,180.0,0.0,64.0
1604,63.0,36.0,180.0,0.0,64.0
1605,66.0,0.0,180.0,0.0,64.0
1606,59.0,0.0,180.0,0.0,64.0
1607,77.0,204.0,40.0,0.0,64.0
1608,59.0,0.0,180.0,0.0,64.0
1609,78.0,0.0,180.0,0.0,64.0
1610,63.0,0.0,180.0,0.0,64.0
1611,66.0,216.0,180.0,0.0,64.0
1612,78.0,24.0,180.0,0.0,64.0
1613,63.0,36.0,180.0,0.0,64.0
1614,59.0,0.0,180.0,0.0,64.0
1615,66.0,0.0,180.0,0.0,64.0
1616,82.0,204.0,40.0,0.0,64.0
1617,83.0,216.0,180.0,0.0,64.0
1618,63.0,0.0,180.0,0.0,64.0
1619,66.0,0.0,180.0,0.0,64.0
1620,59.0,0.0,180.0,0.0,64.0
1621,83.0,24.0,180.0,0.0,64.0
1622,63.0,36.0,180.0,0.0,64.0
1623,66.0,0.0,180.0,0.0,64.0
1624,59.0,0.0,180.0,0.0,64.0
1625,86.0,204.0,40.0,0.0,64.0
1626,59.0,0.0,180.0,0.0,64.0
1627,87.0,48.0,390.0,0.0,64.0
1628,63.0,0.0,180.0,0.0,64.0
1629,66.0,192.0,180.0,0.0,64.0
1630,63.0,144.0,180.0,0.0,64.0
1631,66.0,0.0,180.0,0.0,64.0
1632,59.0,0.0,180.0,0.0,64.0
1633,64.0,0.0,180.0,0.0,64.0
1634,70.0,24.0,180.0,0.0,64.0
1635,66.0,0.0,180.0,0.0,64.0
1636,59.0,0.0,180.0,0.0,64.0
1637,90.0,96.0,90.0,0.0,64.0
1638,88.0,120.0,90.0,0.0,64.0
1639,66.0,0.0,180.0,0.0,64.0
1640,90.0,96.0,90.0,0.0,64.0
1641,70.0,0.0,180.0,0.0,64.0
1642,59.0,0.0,180.0,0.0,64.0
1643,64.0,24.0,180.0,0.0,64.0
1644,88.0,216.0,90.0,0.0,64.0
1645,59.0,0.0,180.0,0.0,64.0
1646,85.0,0.0,180.0,0.0,64.0
1647,64.0,0.0,180.0,0.0,64.0
1648,66.0,144.0,180.0,0.0,64.0
1649,70.0,0.0,180.0,0.0,64.0
1650,85.0,96.0,90.0,0.0,64.0
1651,66.0,0.0,180.0,0.0,64.0
1652,59.0,0.0,180.0,0.0,64.0
1653,64.0,0.0,180.0,0.0,64.0
1654,70.0,24.0,180.0,0.0,64.0
1655,87.0,216.0,90.0,0.0,64.0
1656,83.0,48.0,390.0,0.0,64.0
1657,66.0,0.0,180.0,0.0,64.0
1658,63.0,192.0,180.0,0.0,64.0
1659,71.0,0.0,180.0,0.0,64.0
1660,59.0,0.0,180.0,0.0,64.0
1661,59.0,240.0,180.0,0.0,64.0
1662,63.0,0.0,180.0,0.0,64.0
1663,63.0,240.0,180.0,0.0,64.0
1664,59.0,0.0,180.0,0.0,64.0
1665,59.0,144.0,180.0,0.0,64.0
1666,63.0,0.0,180.0,0.0,64.0
1667,59.0,24.0,180.0,0.0,64.0
1668,56.0,0.0,180.0,0.0,64.0
1669,87.0,96.0,90.0,0.0,64.0
1670,63.0,0.0,180.0,0.0,64.0
1671,85.0,120.0,90.0,0.0,64.0
1672,56.0,0.0,180.0,0.0,64.0
1673,83.0,96.0,90.0,0.0,64.0
1674,63.0,0.0,180.0,0.0,64.0
1675,59.0,24.0,180.0,0.0,64.0
1676,82.0,120.0,90.0,0.0,64.0
1677,80.0,96.0,90.0,0.0,64.0
1678,56.0,24.0,180.0,0.0,64.0
1679,63.0,0.0,180.0,0.0,64.0
1680,59.0,0.0,180.0,0.0,64.0
1681,82.0,120.0,90.0,0.0,64.0
1682,56.0,0.0,180.0,0.0,64.0
1683,59.0,0.0,180.0,0.0,64.0
1684,83.0,96.0,90.0,0.0,64.0
1685,63.0,24.0,180.0,0.0,64.0
1686,85.0,216.0,90.0,0.0,64.0
1687,56.0,240.0,180.0,0.0,64.0
1688,59.0,0.0,180.0,0.0,64.0
1689,87.0,0.0,180.0,0.0,64.0
1690,63.0,0.0,180.0,0.0,64.0
1691,63.0,0.0,180.0,0.0,64.0
1692,56.0,240.0,180.0,0.0,64.0
1693,59.0,0.0,180.0,0.0,64.0
1694,87.0,0.0,180.0,0.0,64.0
1695,92.0,48.0,390.0,0.0,64.0
1696,59.0,192.0,180.0,0.0,64.0
1697,56.0,0.0,180.0,0.0,64.0
1698,63.0,0.0,180.0,0.0,64.0
1699,59.0,0.0,180.0,0.0,64.0
1700,56.0,144.0,180.0,0.0,64.0
1701,63.0,0.0,180.0,0.0,64.0
1702,92.0,96.0,90.0,0.0,64.0
1703,61.0,0.0,180.0,0.0,64.0
1704,63.0,0.0,180.0,0.0,64.0
1705,51.0,24.0,180.0,0.0,64.0
1706,58.0,0.0,180.0,0.0,64.0
1707,91.0,120.0,90.0,0.0,64.0
1708,58.0,24.0,180.0,0.0,64.0
1709,92.0,96.0,90.0,0.0,64.0
1710,61.0,0.0,180.0,0.0,64.0
1711,63.0,0.0,180.0,0.0,64.0
1712,51.0,0.0,180.0,0.0,64.0
1713,91.0,216.0,90.0,0.0,64.0
1714,51.0,0.0,180.0,0.0,64.0
1715,87.0,240.0,180.0,0.0,64.0
1716,58.0,0.0,180.0,0.0,64.0
1717,63.0,0.0,180.0,0.0,64.0
1718,61.0,0.0,180.0,0.0,64.0
1719,61.0,144.0,180.0,0.0,64.0
1720,63.0,0.0,180.0,0.0,64.0
1721,51.0,0.0,180.0,0.0,64.0
1722,58.0,0.0,180.0,0.0,64.0
1723,92.0,96.0,90.0,0.0,64.0
1724,58.0,0.0,180.0,0.0,64.0
1725,61.0,24.0,180.0,0.0,64.0
1726,51.0,0.0,180.0,0.0,64.0
1727,63.0,0.0,180.0,0.0,64.0
1728,91.0,120.0,90.0,0.0,64.0
1729,92.0,96.0,90.0,0.0,64.0
1730,51.0,0.0,180.0,0.0,64.0
1731,58.0,0.0,180.0,0.0,64.0
1732,61.0,0.0,180.0,0.0,64.0
1733,63.0,24.0,180.0,0.0,64.0
1734,91.0,216.0,90.0,0.0,64.0
1735,58.0,0.0,180.0,0.0,64.0
1736,87.0,240.0,180.0,0.0,64.0
1737,61.0,0.0,180.0,0.0,64.0
1738,63.0,0.0,180.0,0.0,64.0
1739,51.0,0.0,180.0,0.0,64.0
1740,58.0,144.0,180.0,0.0,64.0
1741,61.0,0.0,180.0,0.0,64.0
1742,63.0,0.0,180.0,0.0,64.0
1743,51.0,0.0,180.0,0.0,64.0
1744,56.0,24.0,180.0,0.0,64.0
1745,59.0,0.0,180.0,0.0,64.0
1746,63.0,0.0,180.0,0.0,64.0
1747,87.0,96.0,90.0,0.0,64.0
1748,85.0,120.0,90.0,0.0,64.0
1749,63.0,0.0,180.0,0.0,64.0
1750,83.0,96.0,90.0,0.0,64.0
1751,59.0,0.0,180.0,0.0,64.0
1752,56.0,24.0,180.0,0.0,64.0
1753,82.0,120.0,90.0,0.0,64.0
1754,63.0,24.0,180.0,0.0,64.0
1755,56.0,0.0,180.0,0.0,64.0
1756,80.0,96.0,90.0,0.0,64.0
1757,59.0,0.0,180.0,0.0,64.0
1758,82.0,120.0,90.0,0.0,64.0
1759,59.0,0.0,180.0,0.0,64.0
1760,56.0,0.0,180.0,0.0,64.0
1761,63.0,24.0,180.0,0.0,64.0
1762,83.0,96.0,90.0,0.0,64.0
1763,85.0,216.0,90.0,0.0,64.0
1764,63.0,0.0,180.0,0.0,64.0
1765,59.0,240.0,180.0,0.0,64.0
1766,87.0,0.0,180.0,0.0,64.0
1767,56.0,0.0,180.0,0.0,64.0
1768,56.0,0.0,180.0,0.0,64.0
1769,87.0,240.0,180.0,0.0,64.0
1770,59.0,0.0,180.0,0.0,64.0
1771,63.0,0.0,180.0,0.0,64.0
1772,56.0,0.0,180.0,0.0,64.0
1773,92.0,78.0,450.0,0.0,64.0
1774,59.0,0.0,180.0,0.0,64.0
1775,63.0,240.0,180.0,0.0,64.0
1776,59.0,18.0,180.0,0.0,64.0
1777,63.0,0.0,180.0,0.0,64.0
1778,56.0,0.0,180.0,0.0,64.0
1779,61.0,36.0,180.0,0.0,64.0
1780,63.0,0.0,180.0,0.0,64.0
1781,56.0,0.0,180.0,0.0,64.0
1782,49.0,0.0,180.0,0.0,64.0
1783,89.0,60.0,40.0,0.0,64.0
1784,90.0,60.0,40.0,0.0,64.0
1785,89.0,24.0,40.0,0.0,64.0
1786,90.0,60.0,40.0,0.0,64.0
1787,63.0,0.0,180.0,0.0,64.0
1788,89.0,60.0,40.0,0.0,64.0
1789,49.0,0.0,180.0,0.0,64.0
1790,56.0,36.0,180.0,0.0,64.0
1791,61.0,0.0,180.0,0.0,64.0
1792,90.0,60.0,40.0,0.0,64.0
1793,89.0,24.0,40.0,0.0,64.0
1794,90.0,60.0,40.0,0.0,64.0
1795,89.0,60.0,40.0,0.0,64.0
1796,61.0,0.0,180.0,0.0,64.0
1797,63.0,0.0,180.0,0.0,64.0
1798,49.0,0.0,180.0,0.0,64.0
1799,56.0,36.0,180.0,0.0,64.0
1800,90.0,60.0,40.0,0.0,64.0
1801,89.0,24.0,40.0,0.0,64.0
1802,90.0,108.0,40.0,0.0,64.0
1803,87.0,96.0,90.0,0.0,64.0
1804,61.0,0.0,180.0,0.0,64.0
1805,63.0,0.0,180.0,0.0,64.0
1806,56.0,24.0,180.0,0.0,64.0
1807,49.0,0.0,180.0,0.0,64.0
1808,89.0,216.0,90.0,0.0,64.0
1809,58.0,0.0,180.0,0.0,64.0
1810,90.0,48.0,390.0,0.0,64.0
1811,54.0,192.0,180.0,0.0,64.0
1812,61.0,0.0,180.0,0.0,64.0
1813,58.0,240.0,180.0,0.0,64.0
1814,61.0,0.0,180.0,0.0,64.0
1815,54.0,0.0,180.0,0.0,64.0
1816,58.0,192.0,180.0,0.0,64.0
1817,61.0,0.0,180.0,0.0,64.0
1818,54.0,0.0,180.0,0.0,64.0
1819,78.0,48.0,390.0,0.0,64.0
1820,58.0,144.0,180.0,0.0,64.0
1821,61.0,0.0,180.0,0.0,64.0
1822,54.0,0.0,180.0,0.0,64.0
1823,74.0,96.0,90.0,0.0,64.0
1824,54.0,0.0,180.0,0.0,64.0
1825,59.0,24.0,180.0,0.0,64.0
1826,47.0,0.0,180.0,0.0,64.0
1827,51.0,0.0,180.0,0.0,64.0
1828,75.0,120.0,90.0,0.0,64.0
1829,59.0,24.0,180.0,0.0,64.0
1830,54.0,0.0,180.0,0.0,64.0
1831,74.0,96.0,90.0,0.0,64.0
1832,47.0,0.0,180.0,0.0,64.0
1833,51.0,0.0,180.0,0.0,64.0
1834,75.0,120.0,90.0,0.0,64.0
1835,77.0,96.0,90.0,0.0,64.0
1836,54.0,0.0,180.0,0.0,64.0
1837,51.0,0.0,180.0,0.0,64.0
1838,59.0,24.0,180.0,0.0,64.0
1839,47.0,0.0,180.0,0.0,64.0
1840,78.0,120.0,90.0,0.0,64.0
1841,77.0,96.0,90.0,0.0,64.0
1842,54.0,0.0,180.0,0.0,64.0
1843,51.0,0.0,180.0,0.0,64.0
1844,47.0,24.0,180.0,0.0,64.0
1845,59.0,0.0,180.0,0.0,64.0
1846,78.0,120.0,90.0,0.0,64.0
1847,59.0,0.0,180.0,0.0,64.0
1848,47.0,0.0,180.0,0.0,64.0
1849,82.0,96.0,90.0,0.0,64.0
1850,54.0,0.0,180.0,0.0,64.0
1851,51.0,24.0,180.0,0.0,64.0
1852,83.0,120.0,90.0,0.0,64.0
1853,59.0,0.0,180.0,0.0,64.0
1854,82.0,96.0,90.0,0.0,64.0
1855,51.0,0.0,180.0,0.0,64.0
1856,47.0,0.0,180.0,0.0,64.0
1857,54.0,24.0,180.0,0.0,64.0
1858,83.0,120.0,90.0,0.0,64.0
1859,59.0,0.0,180.0,0.0,64.0
1860,47.0,0.0,180.0,0.0,64.0
1861,54.0,24.0,180.0,0.0,64.0
1862,86.0,96.0,90.0,0.0,64.0
1863,51.0,0.0,180.0,0.0,64.0
1864,87.0,120.0,90.0,0.0,64.0
1865,86.0,96.0,90.0,0.0,64.0
1866,54.0,24.0,180.0,0.0,64.0
1867,51.0,0.0,180.0,0.0,64.0
1868,59.0,0.0,180.0,0.0,64.0
1869,47.0,0.0,180.0,0.0,64.0
1870,87.0,120.0,90.0,0.0,64.0
1871,54.0,0.0,180.0,0.0,64.0
1872,52.0,0.0,180.0,0.0,64.0
1873,58.0,24.0,180.0,0.0,64.0
1874,90.0,96.0,90.0,0.0,64.0
1875,47.0,0.0,180.0,0.0,64.0
1876,89.0,120.0,90.0,0.0,64.0
1877,47.0,0.0,180.0,0.0,64.0
1878,58.0,24.0,180.0,0.0,64.0
1879,52.0,0.0,180.0,0.0,64.0
1880,88.0,96.0,90.0,0.0,64.0
1881,54.0,0.0,180.0,0.0,64.0
1882,87.0,216.0,90.0,0.0,64.0
1883,47.0,0.0,180.0,0.0,64.0
1884,58.0,0.0,180.0,0.0,64.0
1885,54.0,0.0,180.0,0.0,64.0
1886,52.0,0.0,180.0,0.0,64.0
1887,85.0,240.0,180.0,0.0,64.0
1888,52.0,0.0,180.0,0.0,64.0
1889,54.0,144.0,180.0,0.0,64.0
1890,58.0,0.0,180.0,0.0,64.0
1891,47.0,0.0,180.0,0.0,64.0
1892,90.0,96.0,90.0,0.0,64.0
1893,54.0,24.0,180.0,0.0,64.0
1894,52.0,0.0,180.0,0.0,64.0
1895,47.0,0.0,180.0,0.0,64.0
1896,58.0,0.0,180.0,0.0,64.0
1897,89.0,120.0,90.0,0.0,64.0
1898,88.0,96.0,90.0,0.0,64.0
1899,52.0,0.0,180.0,0.0,64.0
1900,58.0,0.0,180.0,0.0,64.0
1901,47.0,0.0,180.0,0.0,64.0
1902,54.0,24.0,180.0,0.0,64.0
1903,87.0,216.0,90.0,0.0,64.0
1904,85.0,0.0,180.0,0.0,64.0
1905,47.0,0.0,180.0,0.0,64.0
1906,54.0,0.0,180.0,0.0,64.0
1907,52.0,240.0,180.0,0.0,64.0
1908,58.0,0.0,180.0,0.0,64.0
1909,47.0,144.0,180.0,0.0,64.0
1910,58.0,0.0,180.0,0.0,64.0
1911,54.0,0.0,180.0,0.0,64.0
1912,52.0,0.0,180.0,0.0,64.0
1913,59.0,0.0,180.0,0.0,64.0
1914,51.0,24.0,180.0,0.0,64.0
1915,74.0,96.0,90.0,0.0,64.0
1916,47.0,0.0,180.0,0.0,64.0
1917,54.0,0.0,180.0,0.0,64.0
1918,75.0,216.0,90.0,0.0,64.0
1919,63.0,0.0,180.0,0.0,64.0
1920,54.0,0.0,180.0,0.0,64.0
1921,59.0,0.0,180.0,0.0,64.0
1922,47.0,144.0,180.0,0.0,64.0
1923,51.0,0.0,180.0,0.0,64.0
1924,47.0,0.0,180.0,0.0,64.0
1925,59.0,0.0,180.0,0.0,64.0
1926,51.0,0.0,180.0,0.0,64.0
1927,54.0,24.0,180.0,0.0,64.0
1928,77.0,96.0,90.0,0.0,64.0
1929,78.0,216.0,90.0,0.0,64.0
1930,47.0,0.0,180.0,0.0,64.0
1931,54.0,0.0,180.0,0.0,64.0
1932,51.0,0.0,180.0,0.0,64.0
1933,66.0,0.0,180.0,0.0,64.0
1934,59.0,144.0,180.0,0.0,64.0
1935,47.0,0.0,180.0,0.0,64.0
1936,82.0,96.0,90.0,0.0,64.0
1937,51.0,24.0,180.0,0.0,64.0
1938,54.0,0.0,180.0,0.0,64.0
1939,59.0,0.0,180.0,0.0,64.0
1940,83.0,216.0,90.0,0.0,64.0
1941,59.0,0.0,180.0,0.0,64.0
1942,47.0,0.0,180.0,0.0,64.0
1943,71.0,0.0,180.0,0.0,64.0
1944,51.0,144.0,180.0,0.0,64.0
1945,54.0,0.0,180.0,0.0,64.0
1946,47.0,24.0,180.0,0.0,64.0
1947,51.0,0.0,180.0,0.0,64.0
1948,86.0,96.0,90.0,0.0,64.0
1949,54.0,0.0,180.0,0.0,64.0
1950,59.0,0.0,180.0,0.0,64.0
1951,87.0,216.0,90.0,0.0,64.0
1952,54.0,0.0,180.0,0.0,64.0
1953,51.0,0.0,180.0,0.0,64.0
1954,75.0,144.0,180.0,0.0,64.0
1955,59.0,0.0,180.0,0.0,64.0
1956,47.0,0.0,180.0,0.0,64.0
1957,54.0,24.0,180.0,0.0,64.0
1958,52.0,0.0,180.0,0.0,64.0
1959,58.0,0.0,180.0,0.0,64.0
1960,47.0,0.0,180.0,0.0,64.0
1961,90.0,96.0,90.0,0.0,64.0
1962,89.0,120.0,90.0,0.0,64.0
1963,47.0,0.0,180.0,0.0,64.0
1964,88.0,96.0,90.0,0.0,64.0
1965,54.0,0.0,180.0,0.0,64.0
1966,58.0,24.0,180.0,0.0,64.0
1967,52.0,0.0,180.0,0.0,64.0
1968,87.0,120.0,90.0,0.0,64.0
1969,58.0,0.0,180.0,0.0,64.0
1970,54.0,0.0,180.0,0.0,64.0
1971,47.0,24.0,180.0,0.0,64.0
1972,85.0,96.0,90.0,0.0,64.0
1973,52.0,0.0,180.0,0.0,64.0
1974,87.0,120.0,90.0,0.0,64.0
1975,58.0,0.0,180.0,0.0,64.0
1976,54.0,24.0,180.0,0.0,64.0
1977,52.0,0.0,180.0,0.0,64.0
1978,47.0,0.0,180.0,0.0,64.0
1979,88.0,96.0,90.0,0.0,64.0
1980,85.0,408.0,90.0,0.0,64.0
1981,47.0,0.0,390.0,0.0,64.0
1982,59.0,0.0,390.0,0.0,64.0
1983,51.0,0.0,390.0,0.0,64.0
1984,54.0,480.0,390.0,0.0,64.0
1985,83.0,0.0,390.0,0.0,64.0
1986,47.0,480.0,390.0,0.0,64.0
1987,92.0,48.0,390.0,0.0,64.0
1988,87.0,0.0,390.0,0.0,64.0
1989,84.0,0.0,390.0,0.0,64.0
1990,80.0,0.0,390.0,0.0,64.0
1991,44.0,240.0,180.0,0.0,64.0
1992,75.0,48.0,390.0,0.0,64.0
1993,87.0,0.0,390.0,0.0,64.0
1994,80.0,0.0,390.0,0.0,64.0
1995,84.0,0.0,390.0,0.0,64.0
1996,48.0,192.0,180.0,0.0,64.0
1997,51.0,240.0,180.0,0.0,64.0
1998,75.0,0.0,390.0,0.0,64.0
1999,80.0,0.0,390.0,0.0,64.0
2000,84.0,48.0,390.0,0.0,64.0
2001,72.0,0.0,390.0,0.0,64.0
2002,56.0,192.0,180.0,0.0,64.0
2003,60.0,240.0,180.0,0.0,64.0
2004,63.0,240.0,180.0,0.0,64.0
2005,80.0,0.0,180.0,0.0,64.0
2006,75.0,0.0,180.0,0.0,64.0
2007,72.0,240.0,180.0,0.0,64.0
2008,68.0,0.0,180.0,0.0,64.0
2009,75.0,240.0,180.0,0.0,64.0
2010,73.0,0.0,180.0,0.0,64.0
2011,70.0,0.0,180.0,0.0,64.0
2012,79.0,0.0,180.0,0.0,64.0
2013,75.0,0.0,180.0,0.0,64.0
2014,80.0,240.0,180.0,0.0,64.0
2015,68.0,0.0,180.0,0.0,64.0
2016,72.0,0.0,180.0,0.0,64.0
2017,70.0,240.0,180.0,0.0,64.0
2018,75.0,0.0,180.0,0.0,64.0
2019,67.0,0.0,180.0,0.0,64.0
2020,82.0,0.0,180.0,0.0,64.0
2021,65.0,0.0,180.0,0.0,64.0
2022,84.0,0.0,180.0,0.0,64.0
2023,75.0,240.0,180.0,0.0,64.0
2024,68.0,0.0,180.0,0.0,64.0
2025,85.0,0.0,180.0,0.0,64.0
2026,75.0,240.0,180.0,0.0,64.0
2027,63.0,0.0,180.0,0.0,64.0
2028,67.0,0.0,180.0,0.0,64.0
2029,87.0,0.0,180.0,0.0,64.0
2030,75.0,0.0,180.0,0.0,64.0
2031,61.0,0.0,180.0,0.0,64.0
2032,65.0,240.0,180.0,0.0,64.0
2033,60.0,240.0,180.0,0.0,64.0
2034,89.0,0.0,180.0,0.0,64.0
2035,77.0,0.0,180.0,0.0,64.0
2036,63.0,0.0,180.0,0.0,64.0
2037,61.0,432.0,180.0,0.0,64.0
2038,58.0,0.0,180.0,0.0,64.0
2039,91.0,0.0,180.0,0.0,64.0
2040,79.0,0.0,180.0,0.0,64.0
2041,87.0,0.0,390.0,0.0,64.0
2042,84.0,0.0,390.0,0.0,64.0
2043,80.0,48.0,390.0,0.0,64.0
2044,92.0,0.0,390.0,0.0,64.0
2045,44.0,240.0,180.0,0.0,64.0
2046,75.0,0.0,390.0,0.0,64.0
2047,87.0,0.0,390.0,0.0,64.0
2048,48.0,192.0,180.0,0.0,64.0
2049,80.0,0.0,390.0,0.0,64.0
2050,84.0,48.0,390.0,0.0,64.0
2051,51.0,240.0,180.0,0.0,64.0
2052,84.0,48.0,390.0,0.0,64.0
2053,75.0,0.0,390.0,0.0,64.0
2054,72.0,0.0,390.0,0.0,64.0
2055,80.0,0.0,390.0,0.0,64.0
2056,56.0,192.0,180.0,0.0,64.0
2057,60.0,240.0,180.0,0.0,64.0
2058,63.0,240.0,180.0,0.0,64.0
2059,75.0,0.0,180.0,0.0,64.0
2060,72.0,0.0,180.0,0.0,64.0
2061,68.0,240.0,180.0,0.0,64.0
2062,67.0,0.0,180.0,0.0,64.0
2063,75.0,0.0,180.0,0.0,64.0
2064,70.0,240.0,180.0,0.0,64.0
2065,68.0,0.0,180.0,0.0,64.0
2066,72.0,0.0,180.0,0.0,64.0
2067,75.0,240.0,180.0,0.0,64.0
2068,70.0,0.0,180.0,0.0,64.0
2069,75.0,0.0,180.0,0.0,64.0
2070,67.0,240.0,180.0,0.0,64.0
2071,58.0,0.0,180.0,0.0,64.0
2072,65.0,0.0,180.0,0.0,64.0
2073,68.0,240.0,180.0,0.0,64.0
2074,74.0,0.0,180.0,0.0,64.0
2075,75.0,0.0,390.0,0.0,64.0
2076,67.0,48.0,390.0,0.0,64.0
2077,63.0,192.0,180.0,0.0,64.0
2078,51.0,0.0,180.0,0.0,64.0
2079,58.0,240.0,180.0,0.0,64.0
2080,51.0,432.0,180.0,0.0,64.0
2081,84.0,0.0,390.0,0.0,64.0
2082,87.0,48.0,390.0,0.0,64.0
2083,80.0,0.0,390.0,0.0,64.0
2084,92.0,0.0,390.0,0.0,64.0
2085,44.0,240.0,180.0,0.0,64.0
2086,87.0,0.0,390.0,0.0,64.0
2087,80.0,0.0,390.0,0.0,64.0
2088,84.0,0.0,390.0,0.0,64.0
2089,48.0,192.0,180.0,0.0,64.0
2090,75.0,48.0,390.0,0.0,64.0
2091,51.0,240.0,180.0,0.0,64.0
2092,80.0,48.0,390.0,0.0,64.0
2093,75.0,0.0,390.0,0.0,64.0
2094,84.0,0.0,390.0,0.0,64.0
2095,72.0,0.0,390.0,0.0,64.0
2096,56.0,192.0,180.0,0.0,64.0
2097,60.0,240.0,180.0,0.0,64.0
2098,63.0,240.0,180.0,0.0,64.0
2099,80.0,240.0,180.0,0.0,64.0
2100,75.0,0.0,180.0,0.0,64.0
2101,72.0,0.0,180.0,0.0,64.0
2102,68.0,0.0,180.0,0.0,64.0
2103,75.0,240.0,180.0,0.0,64.0
2104,79.0,0.0,180.0,0.0,64.0
2105,70.0,0.0,180.0,0.0,64.0
2106,73.0,0.0,180.0,0.0,64.0
2107,80.0,0.0,180.0,0.0,64.0
2108,75.0,240.0,180.0,0.0,64.0
2109,68.0,0.0,180.0,0.0,64.0
2110,72.0,0.0,180.0,0.0,64.0
2111,70.0,0.0,180.0,0.0,64.0
2112,75.0,0.0,180.0,0.0,64.0
2113,67.0,0.0,180.0,0.0,64.0
2114,82.0,240.0,180.0,0.0,64.0
2115,75.0,0.0,180.0,0.0,64.0
2116,68.0,0.0,180.0,0.0,64.0
2117,84.0,0.0,180.0,0.0,64.0
2118,65.0,240.0,180.0,0.0,64.0
2119,85.0,0.0,180.0,0.0,64.0
2120,63.0,0.0,180.0,0.0,64.0
2121,75.0,0.0,180.0,0.0,64.0
2122,67.0,240.0,180.0,0.0,64.0
2123,65.0,0.0,180.0,0.0,64.0
2124,75.0,0.0,180.0,0.0,64.0
2125,87.0,0.0,180.0,0.0,64.0
2126,61.0,240.0,180.0,0.0,64.0
2127,89.0,240.0,180.0,0.0,64.0
2128,77.0,0.0,180.0,0.0,64.0
2129,63.0,0.0,180.0,0.0,64.0
2130,60.0,0.0,180.0,0.0,64.0
2131,58.0,0.0,180.0,0.0,64.0
2132,79.0,0.0,180.0,0.0,64.0
2133,61.0,0.0,180.0,0.0,64.0
2134,91.0,432.0,180.0,0.0,64.0
2135,92.0,0.0,390.0,0.0,64.0
2136,80.0,48.0,390.0,0.0,64.0
2137,84.0,0.0,390.0,0.0,64.0
2138,87.0,0.0,390.0,0.0,64.0
2139,44.0,240.0,180.0,0.0,64.0
2140,75.0,0.0,390.0,0.0,64.0
2141,84.0,0.0,390.0,0.0,64.0
2142,87.0,0.0,390.0,0.0,64.0
2143,80.0,48.0,390.0,0.0,64.0
2144,48.0,192.0,180.0,0.0,64.0
2145,51.0,240.0,180.0,0.0,64.0
2146,56.0,192.0,180.0,0.0,64.0
2147,84.0,0.0,390.0,0.0,64.0
2148,75.0,0.0,390.0,0.0,64.0
2149,80.0,48.0,390.0,0.0,64.0
2150,72.0,0.0,390.0,0.0,64.0
2151,60.0,240.0,180.0,0.0,64.0
2152,63.0,240.0,180.0,0.0,64.0
2153,72.0,0.0,180.0,0.0,64.0
2154,75.0,240.0,180.0,0.0,64.0
2155,68.0,0.0,180.0,0.0,64.0
2156,67.0,240.0,180.0,0.0,64.0
2157,70.0,0.0,180.0,0.0,64.0
2158,75.0,0.0,180.0,0.0,64.0
2159,68.0,0.0,180.0,0.0,64.0
2160,72.0,0.0,180.0,0.0,64.0
2161,75.0,240.0,180.0,0.0,64.0
2162,70.0,240.0,180.0,0.0,64.0
2163,75.0,0.0,180.0,0.0,64.0
2164,67.0,0.0,180.0,0.0,64.0
2165,58.0,0.0,180.0,0.0,64.0
2166,68.0,240.0,180.0,0.0,64.0
2167,65.0,0.0,180.0,0.0,64.0
2168,74.0,0.0,180.0,0.0,64.0
2169,75.0,48.0,390.0,0.0,64.0
2170,67.0,0.0,390.0,0.0,64.0
2171,63.0,0.0,180.0,0.0,64.0
2172,51.0,192.0,180.0,0.0,64.0
2173,58.0,240.0,180.0,0.0,64.0
2174,51.0,240.0,180.0,0.0,64.0
2175,75.0,240.0,180.0,0.0,64.0
2176,75.0,240.0,180.0,0.0,64.0
2177,85.0,0.0,180.0,0.0,64.0
2178,84.0,0.0,180.0,0.0,64.0
2179,75.0,0.0,180.0,0.0,64.0
2180,75.0,0.0,180.0,0.0,64.0
2181,82.0,0.0,180.0,0.0,64.0
2182,73.0,240.0,180.0,0.0,64.0
2183,75.0,240.0,180.0,0.0,64.0
2184,80.0,0.0,180.0,0.0,64.0
2185,72.0,0.0,180.0,0.0,64.0
2186,79.0,0.0,180.0,0.0,64.0
2187,70.0,240.0,180.0,0.0,64.0
2188,75.0,0.0,180.0,0.0,64.0
2189,75.0,0.0,180.0,0.0,64.0
2190,68.0,0.0,180.0,0.0,64.0
2191,77.0,240.0,180.0,0.0,64.0
2192,75.0,240.0,180.0,0.0,64.0
2193,67.0,0.0,180.0,0.0,64.0
2194,63.0,240.0,180.0,0.0,64.0
2195,73.0,0.0,180.0,0.0,64.0
2196,75.0,0.0,180.0,0.0,64.0
2197,68.0,0.0,180.0,0.0,64.0
2198,75.0,240.0,180.0,0.0,64.0
2199,72.0,0.0,180.0,0.0,64.0
2200,61.0,240.0,180.0,0.0,64.0
2201,75.0,0.0,180.0,0.0,64.0
2202,70.0,0.0,180.0,0.0,64.0
2203,75.0,0.0,180.0,0.0,64.0
2204,60.0,240.0,180.0,0.0,64.0
2205,68.0,0.0,180.0,0.0,64.0
2206,67.0,0.0,180.0,0.0,64.0
2207,58.0,0.0,180.0,0.0,64.0
2208,75.0,240.0,180.0,0.0,64.0
2209,68.0,0.0,180.0,0.0,64.0
2210,75.0,240.0,180.0,0.0,64.0
2211,60.0,0.0,180.0,0.0,64.0
2212,61.0,0.0,180.0,0.0,64.0
2213,67.0,240.0,180.0,0.0,64.0
2214,75.0,0.0,180.0,0.0,64.0
2215,60.0,0.0,180.0,0.0,64.0
2216,68.0,240.0,180.0,0.0,64.0
2217,75.0,0.0,180.0,0.0,64.0
2218,72.0,240.0,180.0,0.0,64.0
2219,75.0,0.0,180.0,0.0,64.0
2220,56.0,0.0,180.0,0.0,64.0
2221,51.0,0.0,180.0,0.0,64.0
2222,75.0,0.0,180.0,0.0,64.0
2223,85.0,240.0,180.0,0.0,64.0
2224,84.0,240.0,180.0,0.0,64.0
2225,75.0,0.0,180.0,0.0,64.0
2226,75.0,240.0,180.0,0.0,64.0
2227,82.0,0.0,180.0,0.0,64.0
2228,73.0,0.0,180.0,0.0,64.0
2229,80.0,0.0,180.0,0.0,64.0
2230,75.0,0.0,180.0,0.0,64.0
2231,72.0,240.0,180.0,0.0,64.0
2232,75.0,0.0,180.0,0.0,64.0
2233,70.0,240.0,180.0,0.0,64.0
2234,79.0,0.0,180.0,0.0,64.0
2235,68.0,0.0,180.0,0.0,64.0
2236,77.0,0.0,180.0,0.0,64.0
2237,75.0,240.0,180.0,0.0,64.0
2238,75.0,240.0,180.0,0.0,64.0
2239,67.0,0.0,180.0,0.0,64.0
2240,63.0,0.0,180.0,0.0,64.0
2241,75.0,240.0,180.0,0.0,64.0
2242,73.0,0.0,180.0,0.0,64.0
2243,72.0,0.0,180.0,0.0,64.0
2244,75.0,0.0,180.0,0.0,64.0
2245,68.0,240.0,180.0,0.0,64.0
2246,73.0,0.0,180.0,0.0,64.0
2247,61.0,240.0,180.0,0.0,64.0
2248,70.0,0.0,180.0,0.0,64.0
2249,68.0,240.0,180.0,0.0,64.0
2250,72.0,0.0,180.0,0.0,64.0
2251,63.0,0.0,180.0,0.0,64.0
2252,51.0,240.0,180.0,0.0,64.0
2253,70.0,0.0,180.0,0.0,64.0
2254,67.0,0.0,180.0,0.0,64.0
2255,68.0,48.0,390.0,0.0,64.0
2256,56.0,192.0,180.0,0.0,64.0
2257,51.0,240.0,180.0,0.0,64.0
2258,44.0,240.0,180.0,0.0,64.0
2259,75.0,240.0,180.0,0.0,64.0
2260,75.0,0.0,180.0,0.0,64.0
2261,85.0,240.0,180.0,0.0,64.0
2262,75.0,0.0,180.0,0.0,64.0
2263,84.0,0.0,180.0,0.0,64.0
2264,73.0,0.0,180.0,0.0,64.0
2265,82.0,0.0,180.0,0.0,64.0
2266,75.0,240.0,180.0,0.0,64.0
2267,72.0,240.0,180.0,0.0,64.0
2268,75.0,0.0,180.0,0.0,64.0
2269,80.0,0.0,180.0,0.0,64.0
2270,70.0,0.0,180.0,0.0,64.0
2271,79.0,0.0,180.0,0.0,64.0
2272,75.0,240.0,180.0,0.0,64.0
2273,68.0,240.0,180.0,0.0,64.0
2274,75.0,0.0,180.0,0.0,64.0
2275,77.0,0.0,180.0,0.0,64.0
2276,67.0,240.0,180.0,0.0,64.0
2277,75.0,0.0,180.0,0.0,64.0
2278,63.0,0.0,180.0,0.0,64.0
2279,73.0,0.0,180.0,0.0,64.0
2280,75.0,240.0,180.0,0.0,64.0
2281,75.0,0.0,180.0,0.0,64.0
2282,68.0,240.0,180.0,0.0,64.0
2283,72.0,0.0,180.0,0.0,64.0
2284,61.0,0.0,180.0,0.0,64.0
2285,75.0,240.0,180.0,0.0,64.0
2286,70.0,0.0,180.0,0.0,64.0
2287,60.0,0.0,180.0,0.0,64.0
2288,68.0,0.0,180.0,0.0,64.0
2289,75.0,240.0,180.0,0.0,64.0
2290,67.0,0.0,180.0,0.0,64.0
2291,75.0,0.0,180.0,0.0,64.0
2292,58.0,240.0,180.0,0.0,64.0
2293,60.0,0.0,180.0,0.0,64.0
2294,75.0,240.0,180.0,0.0,64.0
2295,68.0,0.0,180.0,0.0,64.0
2296,75.0,0.0,180.0,0.0,64.0
2297,67.0,0.0,180.0,0.0,64.0
2298,61.0,240.0,180.0,0.0,64.0
2299,75.0,0.0,180.0,0.0,64.0
2300,60.0,240.0,180.0,0.0,64.0
2301,68.0,0.0,180.0,0.0,64.0
2302,72.0,0.0,180.0,0.0,64.0
2303,56.0,240.0,180.0,0.0,64.0
2304,75.0,0.0,180.0,0.0,64.0
2305,85.0,0.0,180.0,0.0,64.0
2306,75.0,240.0,180.0,0.0,64.0
2307,51.0,0.0,180.0,0.0,64.0
2308,84.0,240.0,180.0,0.0,64.0
2309,75.0,0.0,180.0,0.0,64.0
2310,73.0,0.0,180.0,0.0,64.0
2311,82.0,240.0,180.0,0.0,64.0
2312,75.0,0.0,180.0,0.0,64.0
2313,80.0,0.0,180.0,0.0,64.0
2314,75.0,0.0,180.0,0.0,64.0
2315,72.0,240.0,180.0,0.0,64.0
2316,70.0,240.0,180.0,0.0,64.0
2317,79.0,0.0,180.0,0.0,64.0
2318,75.0,0.0,180.0,0.0,64.0
2319,68.0,0.0,180.0,0.0,64.0
2320,77.0,240.0,180.0,0.0,64.0
2321,75.0,0.0,180.0,0.0,64.0
2322,75.0,0.0,180.0,0.0,64.0
2323,67.0,240.0,180.0,0.0,64.0
2324,63.0,0.0,180.0,0.0,64.0
2325,73.0,0.0,180.0,0.0,64.0
2326,75.0,240.0,180.0,0.0,64.0
2327,72.0,0.0,180.0,0.0,64.0
2328,68.0,240.0,180.0,0.0,64.0
2329,75.0,0.0,180.0,0.0,64.0
2330,61.0,240.0,180.0,0.0,64.0
2331,70.0,0.0,180.0,0.0,64.0
2332,73.0,0.0,180.0,0.0,64.0
2333,68.0,0.0,180.0,0.0,64.0
2334,63.0,0.0,180.0,0.0,64.0
2335,72.0,240.0,180.0,0.0,64.0
2336,51.0,0.0,180.0,0.0,64.0
2337,70.0,0.0,180.0,0.0,64.0
2338,67.0,240.0,180.0,0.0,64.0
2339,56.0,192.0,180.0,0.0,64.0
2340,68.0,48.0,390.0,0.0,64.0
2341,51.0,240.0,180.0,0.0,64.0
2342,44.0,240.0,180.0,0.0,64.0
2343,75.0,432.0,180.0,0.0,64.0
2344,87.0,0.0,390.0,0.0,64.0
2345,80.0,0.0,390.0,0.0,64.0
2346,84.0,0.0,390.0,0.0,64.0
2347,75.0,48.0,390.0,0.0,64.0
2348,44.0,240.0,180.0,0.0,64.0
2349,75.0,0.0,390.0,0.0,64.0
2350,72.0,0.0,390.0,0.0,64.0
2351,80.0,48.0,390.0,0.0,64.0
2352,48.0,192.0,180.0,0.0,64.0
2353,84.0,0.0,390.0,0.0,64.0
2354,51.0,240.0,180.0,0.0,64.0
2355,80.0,48.0,390.0,0.0,64.0
2356,56.0,192.0,180.0,0.0,64.0
2357,68.0,0.0,390.0,0.0,64.0
2358,72.0,0.0,390.0,0.0,64.0
2359,75.0,0.0,390.0,0.0,64.0
2360,60.0,240.0,180.0,0.0,64.0
2361,63.0,240.0,180.0,0.0,64.0
2362,66.0,0.0,180.0,0.0,64.0
2363,68.0,0.0,180.0,0.0,64.0
2364,72.0,240.0,180.0,0.0,64.0
2365,64.0,240.0,180.0,0.0,64.0
2366,68.0,0.0,180.0,0.0,64.0
2367,73.0,0.0,180.0,0.0,64.0
2368,66.0,0.0,180.0,0.0,64.0
2369,72.0,240.0,180.0,0.0,64.0
2370,68.0,0.0,180.0,0.0,64.0
2371,68.0,0.0,180.0,0.0,64.0
2372,73.0,0.0,180.0,0.0,64.0
2373,64.0,240.0,180.0,0.0,64.0
2374,60.0,240.0,180.0,0.0,64.0
2375,68.0,0.0,180.0,0.0,64.0
2376,75.0,0.0,180.0,0.0,64.0
2377,68.0,0.0,180.0,0.0,64.0
2378,76.0,0.0,180.0,0.0,64.0
2379,61.0,240.0,180.0,0.0,64.0
2380,60.0,240.0,180.0,0.0,64.0
2381,68.0,0.0,180.0,0.0,64.0
2382,75.0,0.0,180.0,0.0,64.0
2383,76.0,240.0,180.0,0.0,64.0
2384,61.0,0.0,180.0,0.0,64.0
2385,68.0,0.0,180.0,0.0,64.0
2386,64.0,240.0,180.0,0.0,64.0
2387,70.0,0.0,180.0,0.0,64.0
2388,66.0,0.0,180.0,0.0,64.0
2389,63.0,0.0,180.0,0.0,64.0
2390,71.0,0.0,180.0,0.0,64.0
2391,66.0,240.0,180.0,0.0,64.0
2392,64.0,240.0,180.0,0.0,64.0
2393,70.0,0.0,180.0,0.0,64.0
2394,66.0,0.0,180.0,0.0,64.0
2395,63.0,0.0,180.0,0.0,64.0
2396,66.0,240.0,180.0,0.0,64.0
2397,71.0,0.0,180.0,0.0,64.0
2398,73.0,0.0,180.0,0.0,64.0
2399,66.0,144.0,180.0,0.0,64.0
2400,58.0,0.0,180.0,0.0,64.0
2401,75.0,72.0,390.0,0.0,64.0
2402,47.0,120.0,90.0,0.0,64.0
2403,63.0,120.0,90.0,0.0,64.0
2404,54.0,48.0,90.0,0.0,64.0
2405,63.0,120.0,90.0,0.0,64.0
2406,78.0,24.0,180.0,0.0,64.0
2407,59.0,96.0,90.0,0.0,64.0
2408,63.0,120.0,90.0,0.0,64.0
2409,54.0,96.0,90.0,0.0,64.0
2410,78.0,24.0,180.0,0.0,64.0
2411,63.0,120.0,90.0,0.0,64.0
2412,47.0,96.0,90.0,0.0,64.0
2413,83.0,24.0,180.0,0.0,64.0
2414,63.0,120.0,90.0,0.0,64.0
2415,83.0,24.0,180.0,0.0,64.0
2416,54.0,96.0,90.0,0.0,64.0
2417,63.0,120.0,90.0,0.0,64.0
2418,59.0,120.0,90.0,0.0,64.0
2419,87.0,72.0,390.0,0.0,64.0
2420,63.0,120.0,90.0,0.0,64.0
2421,54.0,48.0,90.0,0.0,64.0
2422,63.0,120.0,90.0,0.0,64.0
2423,90.0,120.0,90.0,0.0,64.0
2424,47.0,0.0,90.0,0.0,64.0
2425,88.0,120.0,90.0,0.0,64.0
2426,64.0,0.0,90.0,0.0,64.0
2427,54.0,0.0,90.0,0.0,64.0
2428,90.0,120.0,90.0,0.0,64.0
2429,88.0,120.0,90.0,0.0,64.0
2430,64.0,0.0,90.0,0.0,64.0
2431,58.0,96.0,90.0,0.0,64.0
2432,85.0,24.0,180.0,0.0,64.0
2433,64.0,120.0,90.0,0.0,64.0
2434,54.0,120.0,90.0,0.0,64.0
2435,64.0,120.0,90.0,0.0,64.0
2436,90.0,120.0,90.0,0.0,64.0
2437,47.0,0.0,90.0,0.0,64.0
2438,88.0,120.0,90.0,0.0,64.0
2439,64.0,0.0,90.0,0.0,64.0
2440,90.0,0.0,90.0,0.0,64.0
2441,54.0,120.0,90.0,0.0,64.0
2442,88.0,120.0,90.0,0.0,64.0
2443,64.0,0.0,90.0,0.0,64.0
2444,58.0,96.0,90.0,0.0,64.0
2445,85.0,24.0,180.0,0.0,64.0
2446,64.0,120.0,90.0,0.0,64.0
2447,54.0,120.0,90.0,0.0,64.0
2448,64.0,120.0,90.0,0.0,64.0
2449,75.0,72.0,390.0,0.0,64.0
2450,47.0,120.0,90.0,0.0,64.0
2451,63.0,120.0,90.0,0.0,64.0
2452,54.0,48.0,90.0,0.0,64.0
2453,63.0,120.0,90.0,0.0,64.0
2454,78.0,24.0,180.0,0.0,64.0
2455,59.0,96.0,90.0,0.0,64.0
2456,63.0,120.0,90.0,0.0,64.0
2457,54.0,96.0,90.0,0.0,64.0
2458,78.0,24.0,180.0,0.0,64.0
2459,63.0,120.0,90.0,0.0,64.0
2460,83.0,24.0,180.0,0.0,64.0
2461,47.0,96.0,90.0,0.0,64.0
2462,63.0,120.0,90.0,0.0,64.0
2463,83.0,24.0,180.0,0.0,64.0
2464,54.0,96.0,90.0,0.0,64.0
2465,63.0,120.0,90.0,0.0,64.0
2466,59.0,120.0,90.0,0.0,64.0
2467,87.0,72.0,390.0,0.0,64.0
2468,63.0,120.0,90.0,0.0,64.0
2469,54.0,48.0,90.0,0.0,64.0
2470,63.0,120.0,90.0,0.0,64.0
2471,90.0,120.0,90.0,0.0,64.0
2472,47.0,0.0,90.0,0.0,64.0
2473,88.0,120.0,90.0,0.0,64.0
2474,64.0,0.0,90.0,0.0,64.0
2475,54.0,0.0,90.0,0.0,64.0
2476,90.0,120.0,90.0,0.0,64.0
2477,88.0,120.0,90.0,0.0,64.0
2478,64.0,0.0,90.0,0.0,64.0
2479,58.0,96.0,90.0,0.0,64.0
2480,85.0,24.0,180.0,0.0,64.0
2481,64.0,120.0,90.0,0.0,64.0
2482,54.0,0.0,90.0,0.0,64.0
2483,85.0,120.0,90.0,0.0,64.0
2484,64.0,120.0,90.0,0.0,64.0
2485,87.0,0.0,90.0,0.0,64.0
2486,47.0,120.0,90.0,0.0,64.0
2487,83.0,72.0,390.0,0.0,64.0
2488,63.0,120.0,90.0,0.0,64.0
2489,54.0,48.0,90.0,0.0,64.0
2490,63.0,216.0,90.0,0.0,64.0
2491,47.0,384.0,180.0,0.0,64.0
2492,87.0,120.0,90.0,0.0,64.0
2493,56.0,0.0,90.0,0.0,64.0
2494,85.0,120.0,90.0,0.0,64.0
2495,68.0,0.0,90.0,0.0,64.0
2496,63.0,0.0,90.0,0.0,64.0
2497,83.0,120.0,90.0,0.0,64.0
2498,82.0,120.0,90.0,0.0,64.0
2499,68.0,0.0,90.0,0.0,64.0
2500,58.0,120.0,90.0,0.0,64.0
2501,80.0,0.0,90.0,0.0,64.0
2502,68.0,120.0,90.0,0.0,64.0
2503,82.0,0.0,90.0,0.0,64.0
2504,83.0,0.0,90.0,0.0,64.0
2505,63.0,120.0,90.0,0.0,64.0
2506,68.0,120.0,90.0,0.0,64.0
2507,85.0,0.0,90.0,0.0,64.0
2508,87.0,24.0,180.0,0.0,64.0
2509,56.0,96.0,90.0,0.0,64.0
2510,68.0,120.0,90.0,0.0,64.0
2511,63.0,96.0,90.0,0.0,64.0
2512,87.0,24.0,180.0,0.0,64.0
2513,68.0,120.0,90.0,0.0,64.0
2514,51.0,120.0,90.0,0.0,64.0
2515,92.0,72.0,390.0,0.0,64.0
2516,63.0,120.0,90.0,0.0,64.0
2517,61.0,48.0,90.0,0.0,64.0
2518,63.0,120.0,90.0,0.0,64.0
2519,92.0,120.0,90.0,0.0,64.0
2520,55.0,0.0,90.0,0.0,64.0
2521,91.0,120.0,90.0,0.0,64.0
2522,63.0,0.0,90.0,0.0,64.0
2523,92.0,120.0,90.0,0.0,64.0
2524,61.0,0.0,90.0,0.0,64.0
2525,63.0,0.0,90.0,0.0,64.0
2526,91.0,120.0,90.0,0.0,64.0
2527,58.0,96.0,90.0,0.0,64.0
2528,87.0,24.0,180.0,0.0,64.0
2529,63.0,120.0,90.0,0.0,64.0
2530,61.0,120.0,90.0,0.0,64.0
2531,63.0,120.0,90.0,0.0,64.0
2532,55.0,0.0,90.0,0.0,64.0
2533,92.0,120.0,90.0,0.0,64.0
2534,91.0,120.0,90.0,0.0,64.0
2535,63.0,0.0,90.0,0.0,64.0
2536,92.0,120.0,90.0,0.0,64.0
2537,61.0,0.0,90.0,0.0,64.0
2538,63.0,120.0,90.0,0.0,64.0
2539,91.0,0.0,90.0,0.0,64.0
2540,56.0,96.0,90.0,0.0,64.0
2541,87.0,24.0,180.0,0.0,64.0
2542,68.0,120.0,90.0,0.0,64.0
2543,63.0,120.0,90.0,0.0,64.0
2544,68.0,120.0,90.0,0.0,64.0
2545,87.0,0.0,90.0,0.0,64.0
2546,56.0,120.0,90.0,0.0,64.0
2547,85.0,120.0,90.0,0.0,64.0
2548,68.0,0.0,90.0,0.0,64.0
2549,63.0,120.0,90.0,0.0,64.0
2550,83.0,0.0,90.0,0.0,64.0
2551,82.0,0.0,90.0,0.0,64.0
2552,68.0,120.0,90.0,0.0,64.0
2553,80.0,0.0,90.0,0.0,64.0
2554,58.0,120.0,90.0,0.0,64.0
2555,68.0,120.0,90.0,0.0,64.0
2556,82.0,0.0,90.0,0.0,64.0
2557,63.0,120.0,90.0,0.0,64.0
2558,83.0,0.0,90.0,0.0,64.0
2559,68.0,0.0,90.0,0.0,64.0
2560,85.0,120.0,90.0,0.0,64.0
2561,87.0,24.0,180.0,0.0,64.0
2562,59.0,96.0,90.0,0.0,64.0
2563,68.0,120.0,90.0,0.0,64.0
2564,87.0,24.0,180.0,0.0,64.0
2565,63.0,96.0,90.0,0.0,64.0
2566,68.0,120.0,90.0,0.0,64.0
2567,92.0,72.0,390.0,0.0,64.0
2568,56.0,120.0,90.0,0.0,64.0
2569,68.0,120.0,90.0,0.0,64.0
2570,63.0,48.0,90.0,0.0,64.0
2571,68.0,72.0,90.0,0.0,64.0
2572,89.0,48.0,40.0,0.0,64.0
2573,49.0,12.0,90.0,0.0,64.0
2574,90.0,60.0,40.0,0.0,64.0
2575,89.0,48.0,40.0,0.0,64.0
2576,61.0,12.0,90.0,0.0,64.0
2577,90.0,60.0,40.0,0.0,64.0
2578,56.0,12.0,90.0,0.0,64.0
2579,89.0,48.0,40.0,0.0,64.0
2580,90.0,60.0,40.0,0.0,64.0
2581,89.0,48.0,40.0,0.0,64.0
2582,61.0,12.0,90.0,0.0,64.0
2583,90.0,60.0,40.0,0.0,64.0
2584,59.0,12.0,90.0,0.0,64.0
2585,89.0,48.0,40.0,0.0,64.0
2586,90.0,60.0,40.0,0.0,64.0
2587,89.0,48.0,40.0,0.0,64.0
2588,61.0,12.0,90.0,0.0,64.0
2589,90.0,108.0,40.0,0.0,64.0
2590,56.0,120.0,90.0,0.0,64.0
2591,87.0,0.0,90.0,0.0,64.0
2592,61.0,120.0,90.0,0.0,64.0
2593,89.0,0.0,90.0,0.0,64.0
2594,54.0,120.0,90.0,0.0,64.0
2595,90.0,72.0,390.0,0.0,64.0
2596,56.0,120.0,90.0,0.0,64.0
2597,58.0,48.0,90.0,0.0,64.0
2598,59.0,120.0,90.0,0.0,64.0
2599,61.0,120.0,90.0,0.0,64.0
2600,78.0,72.0,390.0,0.0,64.0
2601,63.0,120.0,90.0,0.0,64.0
2602,64.0,48.0,90.0,0.0,64.0
2603,61.0,120.0,90.0,0.0,64.0
2604,75.0,72.0,390.0,0.0,64.0
2605,47.0,120.0,90.0,0.0,64.0
2606,63.0,120.0,90.0,0.0,64.0
2607,54.0,48.0,90.0,0.0,64.0
2608,63.0,120.0,90.0,0.0,64.0
2609,59.0,96.0,90.0,0.0,64.0
2610,78.0,24.0,180.0,0.0,64.0
2611,63.0,120.0,90.0,0.0,64.0
2612,54.0,96.0,90.0,0.0,64.0
2613,78.0,24.0,180.0,0.0,64.0
2614,63.0,120.0,90.0,0.0,64.0
2615,83.0,24.0,180.0,0.0,64.0
2616,47.0,96.0,90.0,0.0,64.0
2617,63.0,120.0,90.0,0.0,64.0
2618,83.0,24.0,180.0,0.0,64.0
2619,54.0,96.0,90.0,0.0,64.0
2620,63.0,120.0,90.0,0.0,64.0
2621,87.0,72.0,390.0,0.0,64.0
2622,59.0,120.0,90.0,0.0,64.0
2623,63.0,120.0,90.0,0.0,64.0
2624,54.0,48.0,90.0,0.0,64.0
2625,63.0,120.0,90.0,0.0,64.0
2626,90.0,120.0,90.0,0.0,64.0
2627,47.0,0.0,90.0,0.0,64.0
2628,88.0,0.0,90.0,0.0,64.0
2629,64.0,120.0,90.0,0.0,64.0
2630,90.0,120.0,90.0,0.0,64.0
2631,54.0,0.0,90.0,0.0,64.0
2632,88.0,120.0,90.0,0.0,64.0
2633,64.0,0.0,90.0,0.0,64.0
2634,58.0,96.0,90.0,0.0,64.0
2635,85.0,24.0,180.0,0.0,64.0
2636,64.0,120.0,90.0,0.0,64.0
2637,54.0,120.0,90.0,0.0,64.0
2638,64.0,120.0,90.0,0.0,64.0
2639,90.0,120.0,90.0,0.0,64.0
2640,47.0,0.0,90.0,0.0,64.0
2641,88.0,120.0,90.0,0.0,64.0
2642,64.0,0.0,90.0,0.0,64.0
2643,54.0,0.0,90.0,0.0,64.0
2644,90.0,120.0,90.0,0.0,64.0
2645,88.0,120.0,90.0,0.0,64.0
2646,64.0,0.0,90.0,0.0,64.0
2647,58.0,96.0,90.0,0.0,64.0
2648,85.0,24.0,180.0,0.0,64.0
2649,64.0,120.0,90.0,0.0,64.0
2650,54.0,120.0,90.0,0.0,64.0
2651,64.0,120.0,90.0,0.0,64.0
2652,75.0,72.0,390.0,0.0,64.0
2653,47.0,120.0,90.0,0.0,64.0
2654,63.0,120.0,90.0,0.0,64.0
2655,54.0,48.0,90.0,0.0,64.0
2656,63.0,120.0,90.0,0.0,64.0
2657,78.0,24.0,180.0,0.0,64.0
2658,59.0,96.0,90.0,0.0,64.0
2659,63.0,120.0,90.0,0.0,64.0
2660,54.0,96.0,90.0,0.0,64.0
2661,78.0,24.0,180.0,0.0,64.0
2662,63.0,120.0,90.0,0.0,64.0
2663,47.0,96.0,90.0,0.0,64.0
2664,83.0,24.0,180.0,0.0,64.0
2665,63.0,120.0,90.0,0.0,64.0
2666,83.0,24.0,180.0,0.0,64.0
2667,54.0,96.0,90.0,0.0,64.0
2668,63.0,120.0,90.0,0.0,64.0
2669,59.0,120.0,90.0,0.0,64.0
2670,87.0,72.0,390.0,0.0,64.0
2671,63.0,120.0,90.0,0.0,64.0
2672,54.0,48.0,90.0,0.0,64.0
2673,63.0,120.0,90.0,0.0,64.0
2674,90.0,120.0,90.0,0.0,64.0
2675,47.0,0.0,90.0,0.0,64.0
2676,88.0,120.0,90.0,0.0,64.0
2677,64.0,0.0,90.0,0.0,64.0
2678,90.0,0.0,90.0,0.0,64.0
2679,54.0,120.0,90.0,0.0,64.0
2680,88.0,120.0,90.0,0.0,64.0
2681,64.0,0.0,90.0,0.0,64.0
2682,58.0,96.0,90.0,0.0,64.0
2683,85.0,24.0,180.0,0.0,64.0
2684,64.0,120.0,90.0,0.0,64.0
2685,85.0,0.0,90.0,0.0,64.0
2686,54.0,120.0,90.0,0.0,64.0
2687,64.0,120.0,90.0,0.0,64.0
2688,87.0,0.0,90.0,0.0,64.0
2689,47.0,120.0,90.0,0.0,64.0
2690,83.0,72.0,390.0,0.0,64.0
2691,63.0,120.0,90.0,0.0,64.0
2692,54.0,48.0,90.0,0.0,64.0
2693,63.0,216.0,90.0,0.0,64.0
2694,47.0,240.0,180.0,0.0,64.0
2695,71.0,144.0,180.0,0.0,64.0
2696,78.0,120.0,90.0,0.0,64.0
2697,58.0,72.0,390.0,0.0,64.0
2698,76.0,120.0,90.0,0.0,64.0
2699,78.0,48.0,90.0,0.0,64.0
2700,76.0,120.0,90.0,0.0,64.0
2701,65.0,120.0,90.0,0.0,64.0
2702,73.0,72.0,390.0,0.0,64.0
2703,66.0,120.0,90.0,0.0,64.0
2704,65.0,48.0,90.0,0.0,64.0
2705,66.0,120.0,90.0,0.0,64.0
2706,59.0,72.0,390.0,0.0,64.0
2707,76.0,120.0,90.0,0.0,64.0
2708,75.0,120.0,90.0,0.0,64.0
2709,76.0,48.0,90.0,0.0,64.0
2710,75.0,120.0,90.0,0.0,64.0
2711,65.0,120.0,90.0,0.0,64.0
2712,71.0,72.0,390.0,0.0,64.0
2713,66.0,120.0,90.0,0.0,64.0
2714,65.0,48.0,90.0,0.0,64.0
2715,66.0,120.0,90.0,0.0,64.0
2716,75.0,120.0,90.0,0.0,64.0
2717,61.0,72.0,390.0,0.0,64.0
2718,73.0,120.0,90.0,0.0,64.0
2719,75.0,48.0,90.0,0.0,64.0
2720,73.0,120.0,90.0,0.0,64.0
2721,65.0,120.0,90.0,0.0,64.0
2722,70.0,72.0,390.0,0.0,64.0
2723,66.0,120.0,90.0,0.0,64.0
2724,65.0,48.0,90.0,0.0,64.0
2725,66.0,120.0,90.0,0.0,64.0
2726,73.0,120.0,90.0,0.0,64.0
2727,63.0,72.0,390.0,0.0,64.0
2728,71.0,120.0,90.0,0.0,64.0
2729,73.0,48.0,90.0,0.0,64.0
2730,71.0,120.0,90.0,0.0,64.0
2731,65.0,120.0,90.0,0.0,64.0
2732,78.0,72.0,390.0,0.0,64.0
2733,66.0,120.0,90.0,0.0,64.0
2734,65.0,48.0,90.0,0.0,64.0
2735,66.0,120.0,90.0,0.0,64.0
2736,78.0,120.0,90.0,0.0,64.0
2737,58.0,72.0,390.0,0.0,64.0
2738,76.0,120.0,90.0,0.0,64.0
2739,78.0,48.0,90.0,0.0,64.0
2740,76.0,120.0,90.0,0.0,64.0
2741,67.0,120.0,90.0,0.0,64.0
2742,73.0,72.0,390.0,0.0,64.0
2743,66.0,120.0,90.0,0.0,64.0
2744,67.0,48.0,90.0,0.0,64.0
2745,66.0,120.0,90.0,0.0,64.0
2746,76.0,120.0,90.0,0.0,64.0
2747,59.0,72.0,390.0,0.0,64.0
2748,74.0,120.0,90.0,0.0,64.0
2749,76.0,48.0,90.0,0.0,64.0
2750,74.0,120.0,90.0,0.0,64.0
2751,67.0,120.0,90.0,0.0,64.0
2752,71.0,72.0,390.0,0.0,64.0
2753,66.0,120.0,90.0,0.0,64.0
2754,67.0,48.0,90.0,0.0,64.0
2755,66.0,120.0,90.0,0.0,64.0
2756,83.0,120.0,90.0,0.0,64.0
2757,56.0,72.0,390.0,0.0,64.0
2758,77.0,120.0,90.0,0.0,64.0
2759,83.0,48.0,90.0,0.0,64.0
2760,77.0,120.0,90.0,0.0,64.0
2761,71.0,72.0,390.0,0.0,64.0
2762,59.0,120.0,90.0,0.0,64.0
2763,62.0,120.0,90.0,0.0,64.0
2764,59.0,48.0,90.0,0.0,64.0
2765,62.0,120.0,90.0,0.0,64.0
2766,83.0,120.0,90.0,0.0,64.0
2767,55.0,72.0,390.0,0.0,64.0
2768,77.0,120.0,90.0,0.0,64.0
2769,83.0,48.0,90.0,0.0,64.0
2770,77.0,120.0,90.0,0.0,64.0
2771,59.0,120.0,90.0,0.0,64.0
2772,71.0,72.0,390.0,0.0,64.0
2773,62.0,120.0,90.0,0.0,64.0
2774,59.0,48.0,90.0,0.0,64.0
2775,62.0,120.0,90.0,0.0,64.0
2776,82.0,120.0,90.0,0.0,64.0
2777,54.0,72.0,390.0,0.0,64.0
2778,78.0,120.0,90.0,0.0,64.0
2779,82.0,48.0,90.0,0.0,64.0
2780,78.0,120.0,90.0,0.0,64.0
2781,73.0,72.0,390.0,0.0,64.0
2782,61.0,120.0,90.0,0.0,64.0
2783,66.0,120.0,90.0,0.0,64.0
2784,61.0,48.0,90.0,0.0,64.0
2785,66.0,120.0,90.0,0.0,64.0
2786,82.0,120.0,90.0,0.0,64.0
2787,54.0,72.0,390.0,0.0,64.0
2788,78.0,120.0,90.0,0.0,64.0
2789,82.0,48.0,90.0,0.0,64.0
2790,78.0,120.0,90.0,0.0,64.0
2791,61.0,120.0,90.0,0.0,64.0
2792,73.0,72.0,390.0,0.0,64.0
2793,66.0,120.0,90.0,0.0,64.0
2794,61.0,48.0,90.0,0.0,64.0
2795,66.0,120.0,90.0,0.0,64.0
2796,83.0,120.0,90.0,0.0,64.0
2797,55.0,72.0,390.0,0.0,64.0
2798,77.0,120.0,90.0,0.0,64.0
2799,83.0,48.0,90.0,0.0,64.0
2800,77.0,120.0,90.0,0.0,64.0
2801,71.0,72.0,390.0,0.0,64.0
2802,59.0,120.0,90.0,0.0,64.0
2803,62.0,120.0,90.0,0.0,64.0
2804,59.0,48.0,90.0,0.0,64.0
2805,62.0,120.0,90.0,0.0,64.0
2806,55.0,72.0,390.0,0.0,64.0
2807,83.0,120.0,90.0,0.0,64.0
2808,77.0,120.0,90.0,0.0,64.0
2809,83.0,48.0,90.0,0.0,64.0
2810,77.0,120.0,90.0,0.0,64.0
2811,71.0,72.0,390.0,0.0,64.0
2812,59.0,120.0,90.0,0.0,64.0
2813,62.0,120.0,90.0,0.0,64.0
2814,59.0,48.0,90.0,0.0,64.0
2815,62.0,216.0,90.0,0.0,64.0
2816,76.0,48.0,390.0,0.0,64.0
2817,60.0,0.0,180.0,0.0,64.0
2818,64.0,192.0,180.0,0.0,64.0
2819,67.0,0.0,180.0,0.0,64.0
2820,60.0,0.0,180.0,0.0,64.0
2821,64.0,240.0,180.0,0.0,64.0
2822,64.0,0.0,180.0,0.0,64.0
2823,79.0,0.0,180.0,0.0,64.0
2824,67.0,240.0,180.0,0.0,64.0
2825,60.0,0.0,180.0,0.0,64.0
2826,67.0,0.0,180.0,0.0,64.0
2827,60.0,0.0,180.0,0.0,64.0
2828,64.0,0.0,180.0,0.0,64.0
2829,79.0,240.0,180.0,0.0,64.0
2830,67.0,240.0,180.0,0.0,64.0
2831,60.0,0.0,180.0,0.0,64.0
2832,64.0,0.0,180.0,0.0,64.0
2833,84.0,0.0,180.0,0.0,64.0
2834,84.0,0.0,180.0,0.0,64.0
2835,64.0,0.0,180.0,0.0,64.0
2836,67.0,0.0,180.0,0.0,64.0
2837,60.0,240.0,180.0,0.0,64.0
2838,60.0,0.0,180.0,0.0,64.0
2839,64.0,0.0,180.0,0.0,64.0
2840,67.0,192.0,180.0,0.0,64.0
2841,88.0,48.0,390.0,0.0,64.0
2842,64.0,0.0,180.0,0.0,64.0
2843,67.0,0.0,180.0,0.0,64.0
2844,60.0,144.0,180.0,0.0,64.0
2845,91.0,96.0,90.0,0.0,64.0
2846,65.0,0.0,180.0,0.0,64.0
2847,71.0,0.0,180.0,0.0,64.0
2848,60.0,24.0,180.0,0.0,64.0
2849,67.0,0.0,180.0,0.0,64.0
2850,89.0,120.0,90.0,0.0,64.0
2851,65.0,0.0,180.0,0.0,64.0
2852,91.0,96.0,90.0,0.0,64.0
2853,71.0,0.0,180.0,0.0,64.0
2854,67.0,0.0,180.0,0.0,64.0
2855,60.0,24.0,180.0,0.0,64.0
2856,89.0,216.0,90.0,0.0,64.0
2857,86.0,48.0,390.0,0.0,64.0
2858,60.0,0.0,180.0,0.0,64.0
2859,65.0,192.0,180.0,0.0,64.0
2860,67.0,0.0,180.0,0.0,64.0
2861,71.0,0.0,180.0,0.0,64.0
2862,67.0,0.0,180.0,0.0,64.0
2863,65.0,144.0,180.0,0.0,64.0
2864,71.0,0.0,180.0,0.0,64.0
2865,60.0,0.0,180.0,0.0,64.0
2866,67.0,0.0,180.0,0.0,64.0
2867,71.0,24.0,180.0,0.0,64.0
2868,60.0,0.0,180.0,0.0,64.0
2869,65.0,0.0,180.0,0.0,64.0
2870,91.0,96.0,90.0,0.0,64.0
2871,89.0,120.0,90.0,0.0,64.0
2872,91.0,96.0,90.0,0.0,64.0
2873,67.0,0.0,180.0,0.0,64.0
2874,65.0,0.0,180.0,0.0,64.0
2875,71.0,24.0,180.0,0.0,64.0
2876,60.0,0.0,180.0,0.0,64.0
2877,89.0,216.0,90.0,0.0,64.0
2878,86.0,48.0,390.0,0.0,64.0
2879,67.0,0.0,180.0,0.0,64.0
2880,65.0,192.0,180.0,0.0,64.0
2881,60.0,0.0,180.0,0.0,64.0
2882,71.0,0.0,180.0,0.0,64.0
2883,67.0,0.0,180.0,0.0,64.0
2884,65.0,240.0,180.0,0.0,64.0
2885,60.0,0.0,180.0,0.0,64.0
2886,71.0,0.0,180.0,0.0,64.0
2887,76.0,48.0,390.0,0.0,64.0
2888,60.0,0.0,180.0,0.0,64.0
2889,67.0,0.0,180.0,0.0,64.0
2890,64.0,192.0,180.0,0.0,64.0
2891,60.0,0.0,180.0,0.0,64.0
2892,67.0,0.0,180.0,0.0,64.0
2893,64.0,240.0,180.0,0.0,64.0
2894,64.0,0.0,180.0,0.0,64.0
2895,79.0,0.0,180.0,0.0,64.0
2896,67.0,0.0,180.0,0.0,64.0
2897,60.0,240.0,180.0,0.0,64.0
2898,60.0,0.0,180.0,0.0,64.0
2899,67.0,0.0,180.0,0.0,64.0
2900,64.0,0.0,180.0,0.0,64.0
2901,79.0,240.0,180.0,0.0,64.0
2902,60.0,0.0,180.0,0.0,64.0
2903,67.0,0.0,180.0,0.0,64.0
2904,64.0,240.0,180.0,0.0,64.0
2905,84.0,0.0,180.0,0.0,64.0
2906,60.0,0.0,180.0,0.0,64.0
2907,67.0,240.0,180.0,0.0,64.0
2908,64.0,0.0,180.0,0.0,64.0
2909,84.0,0.0,180.0,0.0,64.0
2910,64.0,0.0,180.0,0.0,64.0
2911,88.0,48.0,390.0,0.0,64.0
2912,60.0,192.0,180.0,0.0,64.0
2913,67.0,0.0,180.0,0.0,64.0
2914,60.0,144.0,180.0,0.0,64.0
2915,67.0,0.0,180.0,0.0,64.0
2916,64.0,0.0,180.0,0.0,64.0
2917,71.0,0.0,180.0,0.0,64.0
2918,67.0,0.0,180.0,0.0,64.0
2919,65.0,0.0,180.0,0.0,64.0
2920,91.0,96.0,90.0,0.0,64.0
2921,60.0,24.0,180.0,0.0,64.0
2922,89.0,120.0,90.0,0.0,64.0
2923,71.0,24.0,180.0,0.0,64.0
2924,65.0,0.0,180.0,0.0,64.0
2925,91.0,96.0,90.0,0.0,64.0
2926,67.0,0.0,180.0,0.0,64.0
2927,60.0,0.0,180.0,0.0,64.0
2928,89.0,216.0,90.0,0.0,64.0
2929,60.0,0.0,180.0,0.0,64.0
2930,67.0,0.0,180.0,0.0,64.0
2931,71.0,0.0,180.0,0.0,64.0
2932,65.0,144.0,180.0,0.0,64.0
2933,86.0,0.0,180.0,0.0,64.0
2934,60.0,0.0,180.0,0.0,64.0
2935,67.0,24.0,180.0,0.0,64.0
2936,71.0,0.0,180.0,0.0,64.0
2937,65.0,0.0,180.0,0.0,64.0
2938,86.0,96.0,90.0,0.0,64.0
2939,88.0,216.0,90.0,0.0,64.0
2940,60.0,0.0,180.0,0.0,64.0
2941,72.0,0.0,180.0,0.0,64.0
2942,67.0,0.0,180.0,0.0,64.0
2943,64.0,0.0,180.0,0.0,64.0
2944,84.0,240.0,180.0,0.0,64.0
2945,59.0,240.0,180.0,0.0,64.0
2946,60.0,240.0,180.0,0.0,64.0
2947,62.0,144.0,180.0,0.0,64.0
2948,72.0,0.0,180.0,0.0,64.0
2949,76.0,24.0,180.0,0.0,64.0
2950,64.0,96.0,90.0,0.0,64.0
2951,62.0,120.0,90.0,0.0,64.0
2952,60.0,96.0,90.0,0.0,64.0
2953,72.0,24.0,180.0,0.0,64.0
2954,76.0,0.0,180.0,0.0,64.0
2955,59.0,120.0,90.0,0.0,64.0
2956,57.0,96.0,90.0,0.0,64.0
2957,72.0,0.0,180.0,0.0,64.0
2958,76.0,24.0,180.0,0.0,64.0
2959,59.0,120.0,90.0,0.0,64.0
2960,60.0,96.0,90.0,0.0,64.0
2961,76.0,0.0,180.0,0.0,64.0
2962,72.0,24.0,180.0,0.0,64.0
2963,62.0,216.0,90.0,0.0,64.0
2964,72.0,240.0,180.0,0.0,64.0
2965,76.0,0.0,180.0,0.0,64.0
2966,64.0,0.0,180.0,0.0,64.0
2967,64.0,240.0,180.0,0.0,64.0
2968,72.0,0.0,180.0,0.0,64.0
2969,76.0,0.0,180.0,0.0,64.0
2970,72.0,192.0,180.0,0.0,64.0
2971,76.0,0.0,180.0,0.0,64.0
2972,69.0,48.0,390.0,0.0,64.0
2973,72.0,0.0,180.0,0.0,64.0
2974,76.0,144.0,180.0,0.0,64.0
2975,74.0,0.0,180.0,0.0,64.0
2976,69.0,96.0,90.0,0.0,64.0
2977,76.0,24.0,180.0,0.0,64.0
2978,68.0,120.0,90.0,0.0,64.0
2979,69.0,96.0,90.0,0.0,64.0
2980,74.0,24.0,180.0,0.0,64.0
2981,76.0,0.0,180.0,0.0,64.0
2982,68.0,216.0,90.0,0.0,64.0
2983,64.0,48.0,390.0,0.0,64.0
2984,74.0,192.0,180.0,0.0,64.0
2985,76.0,0.0,180.0,0.0,64.0
2986,74.0,144.0,180.0,0.0,64.0
2987,76.0,0.0,180.0,0.0,64.0
2988,69.0,96.0,90.0,0.0,64.0
2989,74.0,0.0,180.0,0.0,64.0
2990,76.0,24.0,180.0,0.0,64.0
2991,68.0,120.0,90.0,0.0,64.0
2992,76.0,24.0,180.0,0.0,64.0
2993,74.0,0.0,180.0,0.0,64.0
2994,69.0,96.0,90.0,0.0,64.0
2995,68.0,216.0,90.0,0.0,64.0
2996,64.0,48.0,390.0,0.0,64.0
2997,74.0,0.0,180.0,0.0,64.0
2998,76.0,192.0,180.0,0.0,64.0
2999,74.0,0.0,180.0,0.0,64.0
3000,76.0,144.0,180.0,0.0,64.0
3001,64.0,96.0,90.0,0.0,64.0
3002,72.0,0.0,180.0,0.0,64.0
3003,76.0,24.0,180.0,0.0,64.0
3004,62.0,120.0,90.0,0.0,64.0
3005,60.0,96.0,90.0,0.0,64.0
3006,72.0,0.0,180.0,0.0,64.0
3007,76.0,24.0,180.0,0.0,64.0
3008,59.0,120.0,90.0,0.0,64.0
3009,76.0,24.0,180.0,0.0,64.0
3010,72.0,0.0,180.0,0.0,64.0
3011,57.0,96.0,90.0,0.0,64.0
3012,59.0,120.0,90.0,0.0,64.0
3013,60.0,96.0,90.0,0.0,64.0
3014,72.0,0.0,180.0,0.0,64.0
3015,76.0,24.0,180.0,0.0,64.0
3016,62.0,216.0,90.0,0.0,64.0
3017,64.0,240.0,180.0,0.0,64.0
3018,72.0,0.0,180.0,0.0,64.0
3019,76.0,0.0,180.0,0.0,64.0
3020,76.0,0.0,180.0,0.0,64.0
3021,64.0,240.0,180.0,0.0,64.0
3022,72.0,0.0,180.0,0.0,64.0
3023,69.0,48.0,390.0,0.0,64.0
3024,72.0,0.0,180.0,0.0,64.0
3025,76.0,192.0,180.0,0.0,64.0
3026,76.0,96.0,180.0,0.0,64.0
3027,72.0,0.0,180.0,0.0,64.0
3028,74.0,36.0,180.0,0.0,64.0
3029,72.0,0.0,180.0,0.0,64.0
3030,66.0,60.0,40.0,0.0,64.0
3031,67.0,60.0,40.0,0.0,64.0
3032,66.0,24.0,40.0,0.0,64.0
3033,67.0,60.0,40.0,0.0,64.0
3034,74.0,36.0,180.0,0.0,64.0
3035,72.0,0.0,180.0,0.0,64.0
3036,66.0,60.0,40.0,0.0,64.0
3037,67.0,60.0,40.0,0.0,64.0
3038,66.0,24.0,40.0,0.0,64.0
3039,67.0,60.0,40.0,0.0,64.0
3040,66.0,60.0,40.0,0.0,64.0
3041,72.0,0.0,180.0,0.0,64.0
3042,74.0,36.0,180.0,0.0,64.0
3043,67.0,60.0,40.0,0.0,64.0
3044,66.0,24.0,40.0,0.0,64.0
3045,67.0,108.0,40.0,0.0,64.0
3046,64.0,96.0,90.0,0.0,64.0
3047,74.0,0.0,180.0,0.0,64.0
3048,72.0,24.0,180.0,0.0,64.0
3049,66.0,216.0,90.0,0.0,64.0
3050,67.0,48.0,390.0,0.0,64.0
3051,74.0,192.0,180.0,0.0,64.0
3052,71.0,0.0,180.0,0.0,64.0
3053,71.0,240.0,180.0,0.0,64.0
3054,74.0,0.0,180.0,0.0,64.0
3055,74.0,240.0,180.0,0.0,64.0
3056,71.0,0.0,180.0,0.0,64.0
3057,74.0,0.0,180.0,0.0,64.0
3058,71.0,240.0,180.0,0.0,64.0
3059,60.0,192.0,180.0,0.0,64.0
3060,67.0,0.0,180.0,0.0,64.0
3061,64.0,0.0,180.0,0.0,64.0
3062,76.0,48.0,390.0,0.0,64.0
3063,60.0,0.0,180.0,0.0,64.0
3064,64.0,0.0,180.0,0.0,64.0
3065,67.0,240.0,180.0,0.0,64.0
3066,67.0,0.0,180.0,0.0,64.0
3067,64.0,0.0,180.0,0.0,64.0
3068,60.0,240.0,180.0,0.0,64.0
3069,79.0,0.0,180.0,0.0,64.0
3070,60.0,240.0,180.0,0.0,64.0
3071,67.0,0.0,180.0,0.0,64.0
3072,64.0,0.0,180.0,0.0,64.0
3073,79.0,0.0,180.0,0.0,64.0
3074,84.0,0.0,180.0,0.0,64.0
3075,64.0,0.0,180.0,0.0,64.0
3076,67.0,0.0,180.0,0.0,64.0
3077,60.0,240.0,180.0,0.0,64.0
3078,60.0,0.0,180.0,0.0,64.0
3079,67.0,0.0,180.0,0.0,64.0
3080,64.0,0.0,180.0,0.0,64.0
3081,84.0,240.0,180.0,0.0,64.0
3082,67.0,192.0,180.0,0.0,64.0
3083,60.0,0.0,180.0,0.0,64.0
3084,64.0,0.0,180.0,0.0,64.0
3085,88.0,48.0,390.0,0.0,64.0
3086,67.0,144.0,180.0,0.0,64.0
3087,60.0,0.0,180.0,0.0,64.0
3088,64.0,0.0,180.0,0.0,64.0
3089,91.0,96.0,90.0,0.0,64.0
3090,65.0,0.0,180.0,0.0,64.0
3091,62.0,0.0,180.0,0.0,64.0
3092,59.0,0.0,180.0,0.0,64.0
3093,67.0,24.0,180.0,0.0,64.0
3094,89.0,120.0,90.0,0.0,64.0
3095,91.0,96.0,90.0,0.0,64.0
3096,65.0,0.0,180.0,0.0,64.0
3097,62.0,0.0,180.0,0.0,64.0
3098,67.0,0.0,180.0,0.0,64.0
3099,59.0,24.0,180.0,0.0,64.0
3100,89.0,216.0,90.0,0.0,64.0
3101,86.0,48.0,390.0,0.0,64.0
3102,59.0,0.0,180.0,0.0,64.0
3103,67.0,0.0,180.0,0.0,64.0
3104,65.0,192.0,180.0,0.0,64.0
3105,62.0,0.0,180.0,0.0,64.0
3106,65.0,144.0,180.0,0.0,64.0
3107,59.0,0.0,180.0,0.0,64.0
3108,62.0,0.0,180.0,0.0,64.0
3109,67.0,0.0,180.0,0.0,64.0
3110,62.0,0.0,180.0,0.0,64.0
3111,91.0,96.0,90.0,0.0,64.0
3112,65.0,0.0,180.0,0.0,64.0
3113,67.0,0.0,180.0,0.0,64.0
3114,59.0,24.0,180.0,0.0,64.0
3115,89.0,120.0,90.0,0.0,64.0
3116,91.0,96.0,90.0,0.0,64.0
3117,65.0,0.0,180.0,0.0,64.0
3118,67.0,0.0,180.0,0.0,64.0
3119,62.0,0.0,180.0,0.0,64.0
3120,59.0,24.0,180.0,0.0,64.0
3121,89.0,216.0,90.0,0.0,64.0
3122,86.0,48.0,390.0,0.0,64.0
3123,67.0,0.0,180.0,0.0,64.0
3124,65.0,0.0,180.0,0.0,64.0
3125,59.0,192.0,180.0,0.0,64.0
3126,62.0,0.0,180.0,0.0,64.0
3127,62.0,264.0,180.0,0.0,64.0
3128,65.0,0.0,180.0,0.0,64.0
3129,67.0,0.0,180.0,0.0,64.0
3130,59.0,0.0,180.0,0.0,64.0
3131,48.0,72.0,390.0,0.0,64.0
3132,88.0,120.0,90.0,0.0,64.0
3133,84.0,48.0,90.0,0.0,64.0
3134,79.0,120.0,90.0,0.0,64.0
3135,52.0,24.0,180.0,0.0,64.0
3136,76.0,96.0,90.0,0.0,64.0
3137,84.0,120.0,90.0,0.0,64.0
3138,79.0,96.0,90.0,0.0,64.0
3139,52.0,24.0,180.0,0.0,64.0
3140,76.0,120.0,90.0,0.0,64.0
3141,72.0,96.0,90.0,0.0,64.0
3142,55.0,24.0,180.0,0.0,64.0
3143,76.0,120.0,90.0,0.0,64.0
3144,55.0,24.0,180.0,0.0,64.0
3145,72.0,96.0,90.0,0.0,64.0
3146,67.0,120.0,90.0,0.0,64.0
3147,60.0,72.0,390.0,0.0,64.0
3148,64.0,120.0,90.0,0.0,64.0
3149,72.0,120.0,90.0,0.0,64.0
3150,67.0,48.0,90.0,0.0,64.0
3151,64.0,240.0,90.0,0.0,64.0
3152,62.0,72.0,390.0,0.0,64.0
3153,71.0,120.0,90.0,0.0,64.0
3154,76.0,48.0,90.0,0.0,64.0
3155,80.0,120.0,90.0,0.0,64.0
3156,83.0,96.0,90.0,0.0,64.0
3157,59.0,24.0,180.0,0.0,64.0
3158,76.0,120.0,90.0,0.0,64.0
3159,59.0,24.0,180.0,0.0,64.0
3160,80.0,96.0,90.0,0.0,64.0
3161,83.0,120.0,90.0,0.0,64.0
3162,56.0,24.0,180.0,0.0,64.0
3163,88.0,96.0,90.0,0.0,64.0
3164,80.0,120.0,90.0,0.0,64.0
3165,56.0,24.0,180.0,0.0,64.0
3166,83.0,96.0,90.0,0.0,64.0
3167,88.0,120.0,90.0,0.0,64.0
3168,50.0,72.0,390.0,0.0,64.0
3169,92.0,120.0,90.0,0.0,64.0
3170,83.0,120.0,90.0,0.0,64.0
3171,88.0,48.0,90.0,0.0,64.0
3172,92.0,240.0,90.0,0.0,64.0
3173,48.0,72.0,390.0,0.0,64.0
3174,93.0,120.0,90.0,0.0,64.0
3175,88.0,48.0,90.0,0.0,64.0
3176,84.0,120.0,90.0,0.0,64.0
3177,52.0,24.0,180.0,0.0,64.0
3178,81.0,96.0,90.0,0.0,64.0
3179,88.0,120.0,90.0,0.0,64.0
3180,52.0,24.0,180.0,0.0,64.0
3181,84.0,96.0,90.0,0.0,64.0
3182,81.0,120.0,90.0,0.0,64.0
3183,57.0,24.0,180.0,0.0,64.0
3184,76.0,96.0,90.0,0.0,64.0
3185,81.0,120.0,90.0,0.0,64.0
3186,57.0,24.0,180.0,0.0,64.0
3187,76.0,96.0,90.0,0.0,64.0
3188,72.0,120.0,90.0,0.0,64.0
3189,60.0,72.0,390.0,0.0,64.0
3190,69.0,120.0,90.0,0.0,64.0
3191,76.0,120.0,90.0,0.0,64.0
3192,72.0,48.0,90.0,0.0,64.0
3193,69.0,240.0,90.0,0.0,64.0
3194,58.0,72.0,390.0,0.0,64.0
3195,64.0,120.0,90.0,0.0,64.0
3196,67.0,48.0,90.0,0.0,64.0
3197,72.0,120.0,90.0,0.0,64.0
3198,55.0,24.0,180.0,0.0,64.0
3199,76.0,96.0,90.0,0.0,64.0
3200,67.0,120.0,90.0,0.0,64.0
3201,72.0,96.0,90.0,0.0,64.0
3202,55.0,24.0,180.0,0.0,64.0
3203,76.0,120.0,90.0,0.0,64.0
3204,79.0,96.0,90.0,0.0,64.0
3205,52.0,24.0,180.0,0.0,64.0
3206,72.0,120.0,90.0,0.0,64.0
3207,52.0,24.0,180.0,0.0,64.0
3208,76.0,96.0,90.0,0.0,64.0
3209,79.0,120.0,90.0,0.0,64.0
3210,46.0,72.0,390.0,0.0,64.0
3211,84.0,120.0,90.0,0.0,64.0
3212,76.0,120.0,90.0,0.0,64.0
3213,79.0,48.0,90.0,0.0,64.0
3214,84.0,240.0,90.0,0.0,64.0
3215,77.0,72.0,390.0,0.0,64.0
3216,65.0,0.0,390.0,0.0,64.0
3217,57.0,120.0,90.0,0.0,64.0
3218,53.0,48.0,90.0,0.0,64.0
3219,48.0,120.0,90.0,0.0,64.0
3220,45.0,96.0,90.0,0.0,64.0
3221,69.0,24.0,180.0,0.0,64.0
3222,81.0,0.0,180.0,0.0,64.0
3223,53.0,120.0,90.0,0.0,64.0
3224,48.0,96.0,90.0,0.0,64.0
3225,69.0,0.0,180.0,0.0,64.0
3226,81.0,24.0,180.0,0.0,64.0
3227,45.0,120.0,90.0,0.0,64.0
3228,84.0,24.0,180.0,0.0,64.0
3229,41.0,96.0,90.0,0.0,64.0
3230,72.0,0.0,180.0,0.0,64.0
3231,45.0,120.0,90.0,0.0,64.0
3232,41.0,96.0,90.0,0.0,64.0
3233,72.0,0.0,180.0,0.0,64.0
3234,84.0,24.0,180.0,0.0,64.0
3235,36.0,120.0,90.0,0.0,64.0
3236,33.0,120.0,90.0,0.0,64.0
3237,77.0,0.0,390.0,0.0,64.0
3238,89.0,72.0,390.0,0.0,64.0
3239,36.0,120.0,90.0,0.0,64.0
3240,41.0,48.0,90.0,0.0,64.0
3241,45.0,120.0,90.0,0.0,64.0
3242,91.0,72.0,390.0,0.0,64.0
3243,79.0,0.0,390.0,0.0,64.0
3244,33.0,120.0,90.0,0.0,64.0
3245,37.0,120.0,90.0,0.0,64.0
3246,40.0,48.0,90.0,0.0,64.0
3247,45.0,120.0,90.0,0.0,64.0
3248,37.0,96.0,90.0,0.0,64.0
3249,79.0,0.0,180.0,0.0,64.0
3250,76.0,0.0,180.0,0.0,64.0
3251,85.0,0.0,180.0,0.0,64.0
3252,88.0,24.0,180.0,0.0,64.0
3253,40.0,120.0,90.0,0.0,64.0
3254,88.0,24.0,180.0,0.0,64.0
3255,79.0,0.0,180.0,0.0,64.0
3256,85.0,0.0,180.0,0.0,64.0
3257,45.0,96.0,90.0,0.0,64.0
3258,76.0,0.0,180.0,0.0,64.0
3259,49.0,120.0,90.0,0.0,64.0
3260,73.0,24.0,180.0,0.0,64.0
3261,85.0,0.0,180.0,0.0,64.0
3262,40.0,96.0,90.0,0.0,64.0
3263,79.0,0.0,180.0,0.0,64.0
3264,76.0,0.0,180.0,0.0,64.0
3265,45.0,120.0,90.0,0.0,64.0
3266,79.0,0.0,180.0,0.0,64.0
3267,49.0,96.0,90.0,0.0,64.0
3268,85.0,24.0,180.0,0.0,64.0
3269,76.0,0.0,180.0,0.0,64.0
3270,73.0,0.0,180.0,0.0,64.0
3271,52.0,120.0,90.0,0.0,64.0
3272,79.0,72.0,390.0,0.0,64.0
3273,45.0,120.0,90.0,0.0,64.0
3274,67.0,0.0,390.0,0.0,64.0
3275,49.0,120.0,90.0,0.0,64.0
3276,52.0,48.0,90.0,0.0,64.0
3277,57.0,120.0,90.0,0.0,64.0
3278,77.0,72.0,390.0,0.0,64.0
3279,50.0,120.0,90.0,0.0,64.0
3280,57.0,120.0,90.0,0.0,64.0
3281,53.0,48.0,90.0,0.0,64.0
3282,50.0,120.0,90.0,0.0,64.0
3283,45.0,96.0,90.0,0.0,64.0
3284,81.0,24.0,180.0,0.0,64.0
3285,53.0,120.0,90.0,0.0,64.0
3286,50.0,96.0,90.0,0.0,64.0
3287,81.0,24.0,180.0,0.0,64.0
3288,45.0,120.0,90.0,0.0,64.0
3289,86.0,24.0,180.0,0.0,64.0
3290,41.0,96.0,90.0,0.0,64.0
3291,50.0,120.0,90.0,0.0,64.0
3292,86.0,24.0,180.0,0.0,64.0
3293,45.0,96.0,90.0,0.0,64.0
3294,41.0,120.0,90.0,0.0,64.0
3295,38.0,120.0,90.0,0.0,64.0
3296,89.0,72.0,390.0,0.0,64.0
3297,41.0,120.0,90.0,0.0,64.0
3298,45.0,48.0,90.0,0.0,64.0
3299,50.0,120.0,90.0,0.0,64.0
3300,87.0,72.0,390.0,0.0,64.0
3301,41.0,120.0,90.0,0.0,64.0
3302,45.0,120.0,90.0,0.0,64.0
3303,48.0,48.0,90.0,0.0,64.0
3304,53.0,120.0,90.0,0.0,64.0
3305,45.0,96.0,90.0,0.0,64.0
3306,84.0,24.0,180.0,0.0,64.0
3307,48.0,120.0,90.0,0.0,64.0
3308,84.0,24.0,180.0,0.0,64.0
3309,53.0,96.0,90.0,0.0,64.0
3310,57.0,120.0,90.0,0.0,64.0
3311,81.0,24.0,180.0,0.0,64.0
3312,48.0,96.0,90.0,0.0,64.0
3313,53.0,120.0,90.0,0.0,64.0
3314,57.0,96.0,90.0,0.0,64.0
3315,81.0,24.0,180.0,0.0,64.0
3316,60.0,120.0,90.0,0.0,64.0
3317,53.0,120.0,90.0,0.0,64.0
3318,75.0,72.0,390.0,0.0,64.0
3319,57.0,120.0,90.0,0.0,64.0
3320,60.0,48.0,90.0,0.0,64.0
3321,65.0,120.0,90.0,0.0,64.0
3322,74.0,72.0,390.0,0.0,64.0
3323,58.0,120.0,90.0,0.0,64.0
3324,65.0,120.0,90.0,0.0,64.0
3325,62.0,48.0,90.0,0.0,64.0
3326,58.0,120.0,90.0,0.0,64.0
3327,53.0,96.0,90.0,0.0,64.0
3328,77.0,24.0,180.0,0.0,64.0
3329,62.0,120.0,90.0,0.0,64.0
3330,58.0,96.0,90.0,0.0,64.0
3331,77.0,24.0,180.0,0.0,64.0
3332,53.0,120.0,90.0,0.0,64.0
3333,82.0,24.0,180.0,0.0,64.0
3334,50.0,96.0,90.0,0.0,64.0
3335,58.0,120.0,90.0,0.0,64.0
3336,82.0,24.0,180.0,0.0,64.0
3337,53.0,96.0,90.0,0.0,64.0
3338,50.0,120.0,90.0,0.0,64.0
3339,46.0,120.0,90.0,0.0,64.0
3340,86.0,72.0,390.0,0.0,64.0
3341,50.0,120.0,90.0,0.0,64.0
3342,53.0,48.0,90.0,0.0,64.0
3343,58.0,120.0,90.0,0.0,64.0
3344,89.0,72.0,390.0,0.0,64.0
3345,44.0,120.0,90.0,0.0,64.0
3346,47.0,120.0,90.0,0.0,64.0
3347,50.0,48.0,90.0,0.0,64.0
3348,53.0,120.0,90.0,0.0,64.0
3349,47.0,96.0,90.0,0.0,64.0
3350,86.0,24.0,180.0,0.0,64.0
3351,50.0,120.0,90.0,0.0,64.0
3352,53.0,96.0,90.0,0.0,64.0
3353,86.0,24.0,180.0,0.0,64.0
3354,56.0,120.0,90.0,0.0,64.0
3355,83.0,24.0,180.0,0.0,64.0
3356,47.0,96.0,90.0,0.0,64.0
3357,50.0,120.0,90.0,0.0,64.0
3358,83.0,24.0,180.0,0.0,64.0
3359,53.0,96.0,90.0,0.0,64.0
3360,56.0,120.0,90.0,0.0,64.0
3361,47.0,120.0,90.0,0.0,64.0
3362,80.0,72.0,390.0,0.0,64.0
3363,50.0,120.0,90.0,0.0,64.0
3364,53.0,48.0,90.0,0.0,64.0
3365,56.0,240.0,90.0,0.0,64.0
3366,91.0,72.0,390.0,0.0,64.0
3367,45.0,120.0,90.0,0.0,64.0
3368,49.0,48.0,90.0,0.0,64.0
3369,52.0,120.0,90.0,0.0,64.0
3370,88.0,24.0,180.0,0.0,64.0
3371,45.0,96.0,90.0,0.0,64.0
3372,49.0,120.0,90.0,0.0,64.0
3373,52.0,96.0,90.0,0.0,64.0
3374,88.0,24.0,180.0,0.0,64.0
3375,57.0,120.0,90.0,0.0,64.0
3376,85.0,24.0,180.0,0.0,64.0
3377,45.0,96.0,90.0,0.0,64.0
3378,49.0,120.0,90.0,0.0,64.0
3379,85.0,24.0,180.0,0.0,64.0
3380,52.0,96.0,90.0,0.0,64.0
3381,55.0,120.0,90.0,0.0,64.0
3382,45.0,96.0,90.0,0.0,64.0
3383,81.0,24.0,180.0,0.0,64.0
3384,49.0,120.0,90.0,0.0,64.0
3385,52.0,96.0,90.0,0.0,64.0
3386,81.0,24.0,180.0,0.0,64.0
3387,55.0,120.0,90.0,0.0,64.0
3388,45.0,72.0,390.0,0.0,64.0
3389,79.0,120.0,90.0,0.0,64.0
3390,61.0,120.0,90.0,0.0,64.0
3391,62.0,48.0,90.0,0.0,64.0
3392,64.0,120.0,90.0,0.0,64.0
3393,66.0,120.0,90.0,0.0,64.0
3394,67.0,120.0,90.0,0.0,64.0
3395,69.0,120.0,90.0,0.0,64.0
3396,71.0,120.0,90.0,0.0,64.0
3397,73.0,120.0,90.0,0.0,64.0
3398,74.0,120.0,90.0,0.0,64.0
3399,76.0,120.0,90.0,0.0,64.0
3400,78.0,120.0,90.0,0.0,64.0
3401,79.0,120.0,90.0,0.0,64.0
3402,81.0,120.0,90.0,0.0,64.0
3403,83.0,120.0,90.0,0.0,64.0
3404,85.0,120.0,90.0,0.0,64.0
3405,86.0,120.0,90.0,0.0,64.0
3406,88.0,120.0,90.0,0.0,64.0
3407,90.0,120.0,90.0,0.0,64.0
3408,91.0,120.0,90.0,0.0,64.0
3409,93.0,120.0,90.0,0.0,64.0
3410,91.0,120.0,90.0,0.0,64.0
3411,90.0,120.0,90.0,0.0,64.0
3412,88.0,120.0,90.0,0.0,64.0
3413,86.0,120.0,90.0,0.0,64.0
3414,85.0,120.0,90.0,0.0,64.0
3415,83.0,120.0,90.0,0.0,64.0
3416,81.0,120.0,90.0,0.0,64.0
3417,79.0,120.0,90.0,0.0,64.0
3418,78.0,120.0,90.0,0.0,64.0
3419,76.0,120.0,90.0,0.0,64.0
3420,74.0,120.0,90.0,0.0,64.0
3421,73.0,120.0,90.0,0.0,64.0
3422,71.0,120.0,90.0,0.0,64.0
3423,69.0,120.0,90.0,0.0,64.0
3424,67.0,120.0,90.0,0.0,64.0
3425,66.0,120.0,90.0,0.0,64.0
3426,64.0,120.0,90.0,0.0,64.0
3427,62.0,120.0,90.0,0.0,64.0
3428,61.0,120.0,90.0,0.0,64.0
3429,59.0,120.0,90.0,0.0,64.0
3430,57.0,120.0,90.0,0.0,64.0
3431,55.0,120.0,90.0,0.0,64.0
3432,54.0,120.0,90.0,0.0,64.0
3433,52.0,120.0,90.0,0.0,64.0
3434,50.0,120.0,90.0,0.0,64.0
3435,49.0,120.0,90.0,0.0,64.0
3436,47.0,120.0,90.0,0.0,64.0
3437,45.0,120.0,90.0,0.0,64.0
3438,47.0,120.0,90.0,0.0,64.0
3439,49.0,120.0,90.0,0.0,64.0
3440,50.0,120.0,90.0,0.0,64.0
3441,52.0,120.0,90.0,0.0,64.0
3442,54.0,120.0,90.0,0.0,64.0
3443,55.0,120.0,90.0,0.0,64.0
3444,57.0,120.0,90.0,0.0,64.0
3445,59.0,120.0,90.0,0.0,64.0
3446,61.0,120.0,90.0,0.0,64.0
3447,62.0,120.0,90.0,0.0,64.0
3448,64.0,120.0,90.0,0.0,64.0
3449,66.0,120.0,90.0,0.0,64.0
3450,67.0,120.0,90.0,0.0,64.0
3451,69.0,120.0,90.0,0.0,64.0
3452,71.0,120.0,90.0,0.0,64.0
3453,73.0,120.0,90.0,0.0,64.0
3454,74.0,120.0,90.0,0.0,64.0
3455,76.0,120.0,90.0,0.0,64.0
3456,78.0,120.0,90.0,0.0,64.0
3457,79.0,120.0,90.0,0.0,64.0
3458,81.0,120.0,90.0,0.0,64.0
3459,83.0,120.0,90.0,0.0,64.0
3460,81.0,120.0,90.0,0.0,64.0
3461,79.0,120.0,90.0,0.0,64.0
3462,78.0,120.0,90.0,0.0,64.0
3463,76.0,120.0,90.0,0.0,64.0
3464,74.0,120.0,90.0,0.0,64.0
3465,73.0,120.0,90.0,0.0,64.0
3466,72.0,120.0,90.0,0.0,64.0
3467,71.0,120.0,90.0,0.0,64.0
3468,70.0,216.0,90.0,0.0,64.0
3469,50.0,96.0,780.0,0.0,64.0
3470,68.0,240.0,180.0,0.0,64.0
3471,69.0,240.0,180.0,0.0,64.0
3472,56.0,96.0,180.0,0.0,64.0
3473,74.0,48.0,390.0,0.0,64.0
3474,57.0,240.0,180.0,0.0,64.0
3475,77.0,192.0,180.0,0.0,64.0
3476,62.0,48.0,390.0,0.0,64.0
3477,50.0,96.0,780.0,0.0,64.0
3478,78.0,240.0,180.0,0.0,64.0
3479,56.0,96.0,180.0,0.0,64.0
3480,81.0,48.0,390.0,0.0,64.0
3481,57.0,240.0,180.0,0.0,64.0
3482,81.0,192.0,180.0,0.0,64.0
3483,61.0,48.0,390.0,0.0,64.0
3484,50.0,96.0,780.0,0.0,64.0
3485,79.0,240.0,180.0,0.0,64.0
3486,76.0,48.0,390.0,0.0,64.0
3487,56.0,96.0,180.0,0.0,64.0
3488,57.0,240.0,180.0,0.0,64.0
3489,81.0,192.0,180.0,0.0,64.0
3490,61.0,48.0,390.0,0.0,64.0
3491,50.0,96.0,780.0,0.0,64.0
3492,79.0,240.0,180.0,0.0,64.0
3493,56.0,96.0,180.0,0.0,64.0
3494,76.0,48.0,390.0,0.0,64.0
3495,57.0,240.0,180.0,0.0,64.0
3496,50.0,96.0,780.0,0.0,64.0
3497,65.0,240.0,180.0,0.0,64.0
3498,66.0,240.0,180.0,0.0,64.0
3499,53.0,96.0,180.0,0.0,64.0
3500,69.0,48.0,390.0,0.0,64.0
3501,54.0,240.0,180.0,0.0,64.0
3502,73.0,192.0,180.0,0.0,64.0
3503,57.0,48.0,390.0,0.0,64.0
3504,50.0,96.0,780.0,0.0,64.0
3505,74.0,240.0,180.0,0.0,64.0
3506,56.0,96.0,180.0,0.0,64.0
3507,78.0,48.0,390.0,0.0,64.0
3508,57.0,240.0,180.0,0.0,64.0
3509,81.0,240.0,180.0,0.0,64.0
3510,50.0,96.0,780.0,0.0,64.0
3511,79.0,240.0,180.0,0.0,64.0
3512,67.0,0.0,390.0,0.0,64.0
3513,76.0,48.0,390.0,0.0,64.0
3514,60.0,96.0,180.0,0.0,64.0
3515,61.0,432.0,180.0,0.0,64.0
3516,74.0,0.0,390.0,0.0,64.0
3517,66.0,288.0,390.0,0.0,64.0
3518,50.0,144.0,780.0,0.0,64.0
3519,61.0,96.0,180.0,0.0,64.0
3520,62.0,240.0,180.0,0.0,64.0
3521,77.0,240.0,180.0,0.0,64.0
3522,65.0,0.0,180.0,0.0,64.0
3523,66.0,0.0,180.0,0.0,64.0
3524,78.0,240.0,180.0,0.0,64.0
3525,58.0,192.0,180.0,0.0,64.0
3526,61.0,0.0,180.0,0.0,64.0
3527,83.0,0.0,390.0,0.0,64.0
3528,71.0,48.0,390.0,0.0,64.0
3529,59.0,240.0,180.0,0.0,64.0
3530,62.0,0.0,180.0,0.0,64.0
3531,77.0,240.0,180.0,0.0,64.0
3532,65.0,0.0,180.0,0.0,64.0
3533,78.0,0.0,180.0,0.0,64.0
3534,66.0,240.0,180.0,0.0,64.0
3535,58.0,192.0,180.0,0.0,64.0
3536,61.0,0.0,180.0,0.0,64.0
3537,83.0,0.0,390.0,0.0,64.0
3538,71.0,48.0,390.0,0.0,64.0
3539,62.0,240.0,180.0,0.0,64.0
3540,59.0,0.0,180.0,0.0,64.0
3541,71.0,240.0,180.0,0.0,64.0
3542,83.0,0.0,180.0,0.0,64.0
3543,70.0,240.0,180.0,0.0,64.0
3544,82.0,0.0,180.0,0.0,64.0
3545,78.0,48.0,390.0,0.0,64.0
3546,66.0,0.0,390.0,0.0,64.0
3547,60.0,192.0,180.0,0.0,64.0
3548,63.0,0.0,180.0,0.0,64.0
3549,61.0,240.0,180.0,0.0,64.0
3550,64.0,0.0,180.0,0.0,64.0
3551,71.0,0.0,180.0,0.0,64.0
3552,83.0,240.0,180.0,0.0,64.0
3553,70.0,240.0,180.0,0.0,64.0
3554,82.0,0.0,180.0,0.0,64.0
3555,78.0,48.0,390.0,0.0,64.0
3556,66.0,0.0,390.0,0.0,64.0
3557,63.0,0.0,180.0,0.0,64.0
3558,60.0,192.0,180.0,0.0,64.0
3559,64.0,240.0,180.0,0.0,64.0
3560,61.0,0.0,180.0,0.0,64.0
3561,77.0,240.0,180.0,0.0,64.0
3562,65.0,0.0,180.0,0.0,64.0
3563,78.0,0.0,180.0,0.0,64.0
3564,66.0,240.0,180.0,0.0,64.0
3565,83.0,0.0,390.0,0.0,64.0
3566,71.0,48.0,390.0,0.0,64.0
3567,58.0,192.0,180.0,0.0,64.0
3568,61.0,0.0,180.0,0.0,64.0
3569,62.0,0.0,180.0,0.0,64.0
3570,59.0,240.0,180.0,0.0,64.0
3571,65.0,0.0,180.0,0.0,64.0
3572,77.0,240.0,180.0,0.0,64.0
3573,78.0,240.0,180.0,0.0,64.0
3574,66.0,0.0,180.0,0.0,64.0
3575,58.0,192.0,180.0,0.0,64.0
3576,61.0,0.0,180.0,0.0,64.0
3577,83.0,0.0,390.0,0.0,64.0
3578,71.0,48.0,390.0,0.0,64.0
3579,59.0,240.0,180.0,0.0,64.0
3580,62.0,0.0,180.0,0.0,64.0
3581,81.0,240.0,180.0,0.0,64.0
3582,69.0,0.0,180.0,0.0,64.0
3583,67.0,0.0,180.0,0.0,64.0
3584,79.0,240.0,180.0,0.0,64.0
3585,58.0,240.0,180.0,0.0,64.0
3586,61.0,0.0,180.0,0.0,64.0
3587,62.0,0.0,180.0,0.0,64.0
3588,59.0,240.0,180.0,0.0,64.0
3589,71.0,240.0,180.0,0.0,64.0
3590,83.0,0.0,180.0,0.0,64.0
3591,81.0,240.0,180.0,0.0,64.0
3592,69.0,0.0,180.0,0.0,64.0
3593,63.0,0.0,180.0,0.0,64.0
3594,60.0,240.0,180.0,0.0,64.0
3595,61.0,240.0,180.0,0.0,64.0
3596,64.0,0.0,180.0,0.0,64.0
3597,77.0,240.0,180.0,0.0,64.0
3598,65.0,0.0,180.0,0.0,64.0
3599,50.0,96.0,780.0,0.0,64.0
3600,78.0,0.0,180.0,0.0,64.0
3601,66.0,240.0,180.0,0.0,64.0
3602,53.0,96.0,180.0,0.0,64.0
3603,81.0,48.0,390.0,0.0,64.0
3604,69.0,0.0,390.0,0.0,64.0
3605,54.0,240.0,180.0,0.0,64.0
3606,85.0,192.0,180.0,0.0,64.0
3607,57.0,48.0,390.0,0.0,64.0
3608,73.0,0.0,180.0,0.0,64.0
3609,50.0,96.0,780.0,0.0,64.0
3610,74.0,240.0,180.0,0.0,64.0
3611,86.0,0.0,180.0,0.0,64.0
3612,61.0,96.0,180.0,0.0,64.0
3613,90.0,0.0,390.0,0.0,64.0
3614,78.0,48.0,390.0,0.0,64.0
3615,62.0,240.0,180.0,0.0,64.0
3616,93.0,240.0,180.0,0.0,64.0
3617,81.0,0.0,180.0,0.0,64.0
3618,50.0,96.0,780.0,0.0,64.0
3619,79.0,240.0,180.0,0.0,64.0
3620,91.0,0.0,180.0,0.0,64.0
3621,76.0,0.0,390.0,0.0,64.0
3622,60.0,96.0,180.0,0.0,64.0
3623,88.0,48.0,390.0,0.0,64.0
3624,61.0,240.0,180.0,0.0,64.0
3625,93.0,0.0,180.0,0.0,64.0
3626,81.0,240.0,180.0,0.0,64.0
3627,50.0,96.0,780.0,0.0,64.0
3628,79.0,240.0,180.0,0.0,64.0
3629,91.0,0.0,180.0,0.0,64.0
3630,60.0,96.0,180.0,0.0,64.0
3631,88.0,48.0,390.0,0.0,64.0
3632,76.0,0.0,390.0,0.0,64.0
3633,61.0,240.0,180.0,0.0,64.0
3634,77.0,240.0,180.0,0.0,64.0
3635,65.0,0.0,180.0,0.0,64.0
3636,50.0,96.0,780.0,0.0,64.0
3637,66.0,0.0,180.0,0.0,64.0
3638,78.0,240.0,180.0,0.0,64.0
3639,53.0,96.0,180.0,0.0,64.0
3640,81.0,0.0,390.0,0.0,64.0
3641,69.0,48.0,390.0,0.0,64.0
3642,54.0,240.0,180.0,0.0,64.0
3643,50.0,96.0,780.0,0.0,64.0
3644,73.0,0.0,180.0,0.0,64.0
3645,57.0,48.0,390.0,0.0,64.0
3646,85.0,192.0,180.0,0.0,64.0
3647,74.0,0.0,180.0,0.0,64.0
3648,86.0,240.0,180.0,0.0,64.0
3649,78.0,48.0,390.0,0.0,64.0
3650,90.0,0.0,390.0,0.0,64.0
3651,61.0,96.0,180.0,0.0,64.0
3652,62.0,240.0,180.0,0.0,64.0
3653,69.0,0.0,780.0,0.0,64.0
3654,81.0,240.0,180.0,0.0,64.0
3655,61.0,96.0,780.0,0.0,64.0
3656,79.0,240.0,180.0,0.0,64.0
3657,66.0,96.0,180.0,0.0,64.0
3658,76.0,48.0,390.0,0.0,64.0
3659,67.0,240.0,180.0,0.0,64.0
3660,69.0,0.0,780.0,0.0,64.0
3661,81.0,240.0,180.0,0.0,64.0
3662,62.0,96.0,780.0,0.0,64.0
3663,78.0,240.0,180.0,0.0,64.0
3664,65.0,96.0,180.0,0.0,64.0
3665,74.0,48.0,390.0,0.0,64.0
3666,66.0,240.0,180.0,0.0,64.0
3667,71.0,0.0,780.0,0.0,64.0
3668,83.0,240.0,180.0,0.0,64.0
3669,63.0,96.0,780.0,0.0,64.0
3670,81.0,240.0,180.0,0.0,64.0
3671,68.0,96.0,180.0,0.0,64.0
3672,78.0,48.0,390.0,0.0,64.0
3673,69.0,240.0,180.0,0.0,64.0
3674,71.0,0.0,780.0,0.0,64.0
3675,83.0,240.0,180.0,0.0,64.0
3676,64.0,96.0,780.0,0.0,64.0
3677,79.0,240.0,180.0,0.0,64.0
3678,76.0,48.0,390.0,0.0,64.0
3679,66.0,96.0,180.0,0.0,64.0
3680,67.0,240.0,180.0,0.0,64.0
3681,88.0,240.0,180.0,0.0,64.0
3682,61.0,96.0,780.0,0.0,64.0
3683,82.0,240.0,180.0,0.0,64.0
3684,63.0,96.0,180.0,0.0,64.0
3685,76.0,48.0,390.0,0.0,64.0
3686,64.0,240.0,180.0,0.0,64.0
3687,88.0,240.0,180.0,0.0,64.0
3688,59.0,96.0,780.0,0.0,64.0
3689,83.0,240.0,180.0,0.0,64.0
3690,63.0,96.0,180.0,0.0,64.0
3691,76.0,48.0,390.0,0.0,64.0
3692,64.0,240.0,180.0,0.0,64.0
3693,58.0,96.0,780.0,0.0,64.0
3694,88.0,240.0,180.0,0.0,64.0
3695,85.0,240.0,180.0,0.0,64.0
3696,63.0,96.0,180.0,0.0,64.0
3697,76.0,48.0,390.0,0.0,64.0
3698,64.0,240.0,180.0,0.0,64.0
3699,56.0,96.0,780.0,0.0,64.0
3700,88.0,240.0,180.0,0.0,64.0
3701,85.0,240.0,180.0,0.0,64.0
3702,63.0,96.0,180.0,0.0,64.0
3703,76.0,48.0,390.0,0.0,64.0
3704,64.0,264.0,180.0,0.0,64.0
3705,54.0,0.0,390.0,0.0,64.0
3706,58.0,72.0,390.0,0.0,64.0
3707,61.0,0.0,390.0,0.0,64.0
3708,66.0,0.0,390.0,0.0,64.0
3709,88.0,120.0,90.0,0.0,64.0
3710,92.0,48.0,90.0,0.0,64.0
3711,90.0,120.0,90.0,0.0,64.0
3712,88.0,120.0,90.0,0.0,64.0
3713,87.0,120.0,90.0,0.0,64.0
3714,85.0,120.0,90.0,0.0,64.0
3715,83.0,120.0,90.0,0.0,64.0
3716,82.0,120.0,90.0,0.0,64.0
3717,80.0,120.0,90.0,0.0,64.0
3718,78.0,120.0,90.0,0.0,64.0
3719,76.0,120.0,90.0,0.0,64.0
3720,75.0,120.0,90.0,0.0,64.0
3721,73.0,120.0,90.0,0.0,64.0
3722,71.0,120.0,90.0,0.0,64.0
3723,70.0,120.0,90.0,0.0,64.0
3724,68.0,120.0,90.0,0.0,64.0
3725,66.0,120.0,90.0,0.0,64.0
3726,64.0,120.0,90.0,0.0,64.0
3727,63.0,120.0,90.0,0.0,64.0
3728,61.0,120.0,90.0,0.0,64.0
3729,59.0,120.0,90.0,0.0,64.0
3730,58.0,120.0,90.0,0.0,64.0
3731,56.0,120.0,90.0,0.0,64.0
3732,54.0,120.0,90.0,0.0,64.0
3733,52.0,120.0,90.0,0.0,64.0
3734,51.0,120.0,90.0,0.0,64.0
3735,49.0,120.0,90.0,0.0,64.0
3736,47.0,120.0,90.0,0.0,64.0
3737,46.0,120.0,90.0,0.0,64.0
3738,44.0,120.0,90.0,0.0,64.0
3739,42.0,120.0,90.0,0.0,64.0
3740,41.0,120.0,90.0,0.0,64.0
3741,42.0,120.0,90.0,0.0,64.0
3742,44.0,120.0,90.0,0.0,64.0
3743,46.0,120.0,90.0,0.0,64.0
3744,47.0,120.0,90.0,0.0,64.0
3745,49.0,120.0,90.0,0.0,64.0
3746,51.0,120.0,90.0,0.0,64.0
3747,52.0,152.0,90.0,0.0,64.0
3748,54.0,160.0,120.0,0.0,64.0
3749,55.0,160.0,120.0,0.0,64.0
3750,56.0,160.0,120.0,0.0,64.0
3751,57.0,160.0,120.0,0.0,64.0
3752,58.0,160.0,120.0,0.0,64.0
3753,59.0,160.0,120.0,0.0,64.0
3754,60.0,160.0,120.0,0.0,64.0
3755,61.0,160.0,120.0,0.0,64.0
3756,62.0,160.0,120.0,0.0,64.0
3757,63.0,160.0,120.0,0.0,64.0
3758,64.0,160.0,120.0,0.0,64.0
3759,65.0,160.0,120.0,0.0,64.0
3760,66.0,160.0,120.0,0.0,64.0
3761,68.0,160.0,120.0,0.0,64.0
3762,70.0,160.0,120.0,0.0,64.0
3763,71.0,160.0,120.0,0.0,64.0
3764,73.0,160.0,120.0,0.0,64.0
3765,74.0,224.0,120.0,0.0,64.0
3766,74.0,240.0,180.0,0.0,64.0
3767,75.0,240.0,180.0,0.0,64.0
3768,58.0,192.0,180.0,0.0,64.0
3769,78.0,0.0,390.0,0.0,64.0
3770,66.0,0.0,390.0,0.0,64.0
3771,75.0,48.0,390.0,0.0,64.0
3772,59.0,240.0,180.0,0.0,64.0
3773,82.0,192.0,180.0,0.0,64.0
3774,54.0,48.0,390.0,0.0,64.0
3775,83.0,240.0,180.0,0.0,64.0
3776,58.0,192.0,180.0,0.0,64.0
3777,78.0,0.0,390.0,0.0,64.0
3778,87.0,0.0,390.0,0.0,64.0
3779,75.0,48.0,390.0,0.0,64.0
3780,59.0,240.0,180.0,0.0,64.0
3781,54.0,48.0,390.0,0.0,64.0
3782,90.0,192.0,180.0,0.0,64.0
3783,88.0,240.0,180.0,0.0,64.0
3784,64.0,192.0,180.0,0.0,64.0
3785,85.0,0.0,390.0,0.0,64.0
3786,58.0,0.0,390.0,0.0,64.0
3787,78.0,48.0,390.0,0.0,64.0
3788,66.0,240.0,180.0,0.0,64.0
3789,90.0,192.0,180.0,0.0,64.0
3790,54.0,48.0,390.0,0.0,64.0
3791,88.0,240.0,180.0,0.0,64.0
3792,85.0,48.0,390.0,0.0,64.0
3793,58.0,0.0,390.0,0.0,64.0
3794,78.0,0.0,390.0,0.0,64.0
3795,64.0,192.0,180.0,0.0,64.0
3796,66.0,240.0,180.0,0.0,64.0
3797,59.0,48.0,390.0,0.0,64.0
3798,74.0,192.0,180.0,0.0,64.0
3799,63.0,0.0,390.0,0.0,64.0
3800,75.0,240.0,180.0,0.0,64.0
3801,75.0,0.0,390.0,0.0,64.0
3802,78.0,48.0,390.0,0.0,64.0
3803,58.0,192.0,180.0,0.0,64.0
3804,66.0,0.0,390.0,0.0,64.0
3805,59.0,240.0,180.0,0.0,64.0
3806,82.0,192.0,180.0,0.0,64.0
3807,54.0,48.0,390.0,0.0,64.0
3808,83.0,240.0,180.0,0.0,64.0
3809,58.0,192.0,180.0,0.0,64.0
3810,87.0,0.0,390.0,0.0,64.0
3811,78.0,0.0,390.0,0.0,64.0
3812,75.0,48.0,390.0,0.0,64.0
3813,59.0,240.0,180.0,0.0,64.0
3814,90.0,192.0,180.0,0.0,64.0
3815,54.0,48.0,390.0,0.0,64.0
3816,88.0,240.0,180.0,0.0,64.0
3817,85.0,48.0,390.0,0.0,64.0
3818,78.0,0.0,390.0,0.0,64.0
3819,58.0,0.0,390.0,0.0,64.0
3820,64.0,192.0,180.0,0.0,64.0
3821,66.0,240.0,180.0,0.0,64.0
3822,63.0,0.0,180.0,0.0,64.0
3823,59.0,192.0,180.0,0.0,64.0
3824,83.0,0.0,390.0,0.0,64.0
3825,78.0,48.0,390.0,0.0,64.0
3826,54.0,240.0,180.0,0.0,64.0
3827,51.0,240.0,180.0,0.0,64.0
3828,47.0,240.0,180.0,0.0,64.0
3829,74.0,0.0,180.0,0.0,64.0
3830,86.0,240.0,180.0,0.0,64.0
3831,75.0,240.0,180.0,0.0,64.0
3832,87.0,0.0,180.0,0.0,64.0
3833,80.0,48.0,390.0,0.0,64.0
3834,92.0,0.0,390.0,0.0,64.0
3835,67.0,192.0,180.0,0.0,64.0
3836,70.0,0.0,180.0,0.0,64.0
3837,68.0,0.0,180.0,0.0,64.0
3838,71.0,240.0,180.0,0.0,64.0
3839,86.0,240.0,180.0,0.0,64.0
3840,74.0,0.0,180.0,0.0,64.0
3841,75.0,0.0,180.0,0.0,64.0
3842,87.0,240.0,180.0,0.0,64.0
3843,67.0,192.0,180.0,0.0,64.0
3844,70.0,0.0,180.0,0.0,64.0
3845,80.0,0.0,390.0,0.0,64.0
3846,92.0,48.0,390.0,0.0,64.0
3847,68.0,240.0,180.0,0.0,64.0
3848,71.0,0.0,180.0,0.0,64.0
3849,92.0,240.0,180.0,0.0,64.0
3850,80.0,0.0,180.0,0.0,64.0
3851,79.0,0.0,180.0,0.0,64.0
3852,91.0,240.0,180.0,0.0,64.0
3853,72.0,192.0,180.0,0.0,64.0
3854,69.0,0.0,180.0,0.0,64.0
3855,75.0,0.0,390.0,0.0,64.0
3856,87.0,48.0,390.0,0.0,64.0
3857,73.0,240.0,180.0,0.0,64.0
3858,70.0,0.0,180.0,0.0,64.0
3859,80.0,240.0,180.0,0.0,64.0
3860,92.0,0.0,180.0,0.0,64.0
3861,79.0,240.0,180.0,0.0,64.0
3862,91.0,0.0,180.0,0.0,64.0
3863,72.0,192.0,180.0,0.0,64.0
3864,69.0,0.0,180.0,0.0,64.0
3865,75.0,0.0,390.0,0.0,64.0
3866,87.0,48.0,390.0,0.0,64.0
3867,70.0,240.0,180.0,0.0,64.0
3868,73.0,0.0,180.0,0.0,64.0
3869,86.0,240.0,180.0,0.0,64.0
3870,74.0,0.0,180.0,0.0,64.0
3871,87.0,240.0,180.0,0.0,64.0
3872,75.0,0.0,180.0,0.0,64.0
3873,92.0,48.0,390.0,0.0,64.0
3874,80.0,0.0,390.0,0.0,64.0
3875,67.0,192.0,180.0,0.0,64.0
3876,70.0,0.0,180.0,0.0,64.0
3877,71.0,240.0,180.0,0.0,64.0
3878,68.0,0.0,180.0,0.0,64.0
3879,86.0,240.0,180.0,0.0,64.0
3880,74.0,0.0,180.0,0.0,64.0
3881,87.0,0.0,180.0,0.0,64.0
3882,75.0,240.0,180.0,0.0,64.0
3883,80.0,0.0,390.0,0.0,64.0
3884,92.0,48.0,390.0,0.0,64.0
3885,70.0,192.0,180.0,0.0,64.0
3886,67.0,0.0,180.0,0.0,64.0
3887,71.0,240.0,180.0,0.0,64.0
3888,68.0,0.0,180.0,0.0,64.0
3889,90.0,240.0,180.0,0.0,64.0
3890,78.0,0.0,180.0,0.0,64.0
3891,89.0,240.0,180.0,0.0,64.0
3892,77.0,0.0,180.0,0.0,64.0
3893,70.0,0.0,180.0,0.0,64.0
3894,67.0,240.0,180.0,0.0,64.0
3895,68.0,240.0,180.0,0.0,64.0
3896,71.0,0.0,180.0,0.0,64.0
3897,80.0,240.0,180.0,0.0,64.0
3898,92.0,0.0,180.0,0.0,64.0
3899,78.0,240.0,180.0,0.0,64.0
3900,90.0,0.0,180.0,0.0,64.0
3901,72.0,240.0,180.0,0.0,64.0
3902,69.0,0.0,180.0,0.0,64.0
3903,73.0,144.0,180.0,0.0,64.0
3904,70.0,0.0,180.0,0.0,64.0
3905,74.0,24.0,180.0,0.0,64.0
3906,59.0,96.0,90.0,0.0,64.0
3907,66.0,120.0,90.0,0.0,64.0
3908,75.0,24.0,180.0,0.0,64.0
3909,63.0,96.0,90.0,0.0,64.0
3910,59.0,120.0,90.0,0.0,64.0
3911,77.0,24.0,180.0,0.0,64.0
3912,54.0,96.0,90.0,0.0,64.0
3913,63.0,120.0,90.0,0.0,64.0
3914,59.0,96.0,90.0,0.0,64.0
3915,78.0,24.0,180.0,0.0,64.0
3916,54.0,120.0,90.0,0.0,64.0
3917,51.0,96.0,90.0,0.0,64.0
3918,82.0,24.0,180.0,0.0,64.0
3919,59.0,120.0,90.0,0.0,64.0
3920,83.0,24.0,180.0,0.0,64.0
3921,54.0,96.0,90.0,0.0,64.0
3922,51.0,120.0,90.0,0.0,64.0
3923,86.0,24.0,180.0,0.0,64.0
3924,47.0,96.0,90.0,0.0,64.0
3925,54.0,120.0,90.0,0.0,64.0
3926,51.0,96.0,90.0,0.0,64.0
3927,87.0,24.0,180.0,0.0,64.0
3928,47.0,120.0,90.0,0.0,64.0
3929,90.0,120.0,90.0,0.0,64.0
3930,46.0,0.0,90.0,0.0,64.0
3931,88.0,120.0,90.0,0.0,64.0
3932,49.0,0.0,90.0,0.0,64.0
3933,42.0,0.0,90.0,0.0,64.0
3934,90.0,120.0,90.0,0.0,64.0
3935,88.0,120.0,90.0,0.0,64.0
3936,46.0,0.0,90.0,0.0,64.0
3937,49.0,120.0,90.0,0.0,64.0
3938,85.0,72.0,390.0,0.0,64.0
3939,54.0,120.0,90.0,0.0,64.0
3940,58.0,48.0,90.0,0.0,64.0
3941,61.0,120.0,90.0,0.0,64.0
3942,90.0,120.0,90.0,0.0,64.0
3943,58.0,0.0,90.0,0.0,64.0
3944,61.0,0.0,90.0,0.0,64.0
3945,88.0,120.0,90.0,0.0,64.0
3946,90.0,120.0,90.0,0.0,64.0
3947,54.0,0.0,90.0,0.0,64.0
3948,88.0,120.0,90.0,0.0,64.0
3949,58.0,0.0,90.0,0.0,64.0
3950,85.0,72.0,390.0,0.0,64.0
3951,61.0,120.0,90.0,0.0,64.0
3952,66.0,120.0,90.0,0.0,64.0
3953,64.0,48.0,90.0,0.0,64.0
3954,61.0,120.0,90.0,0.0,64.0
3955,59.0,96.0,90.0,0.0,64.0
3956,74.0,24.0,180.0,0.0,64.0
3957,66.0,120.0,90.0,0.0,64.0
3958,75.0,24.0,180.0,0.0,64.0
3959,63.0,96.0,90.0,0.0,64.0
3960,59.0,120.0,90.0,0.0,64.0
3961,77.0,24.0,180.0,0.0,64.0
3962,54.0,96.0,90.0,0.0,64.0
3963,63.0,120.0,90.0,0.0,64.0
3964,59.0,96.0,90.0,0.0,64.0
3965,78.0,24.0,180.0,0.0,64.0
3966,54.0,120.0,90.0,0.0,64.0
3967,82.0,24.0,180.0,0.0,64.0
3968,51.0,96.0,90.0,0.0,64.0
3969,59.0,120.0,90.0,0.0,64.0
3970,83.0,24.0,180.0,0.0,64.0
3971,54.0,96.0,90.0,0.0,64.0
3972,51.0,120.0,90.0,0.0,64.0
3973,47.0,96.0,90.0,0.0,64.0
3974,86.0,24.0,180.0,0.0,64.0
3975,54.0,120.0,90.0,0.0,64.0
3976,51.0,96.0,90.0,0.0,64.0
3977,87.0,24.0,180.0,0.0,64.0
3978,47.0,120.0,90.0,0.0,64.0
3979,90.0,120.0,90.0,0.0,64.0
3980,42.0,0.0,90.0,0.0,64.0
3981,88.0,120.0,90.0,0.0,64.0
3982,54.0,0.0,90.0,0.0,64.0
3983,90.0,0.0,90.0,0.0,64.0
3984,58.0,120.0,90.0,0.0,64.0
3985,88.0,120.0,90.0,0.0,64.0
3986,61.0,0.0,90.0,0.0,64.0
3987,54.0,96.0,90.0,0.0,64.0
3988,85.0,24.0,180.0,0.0,64.0
3989,64.0,120.0,90.0,0.0,64.0
3990,58.0,120.0,90.0,0.0,64.0
3991,85.0,0.0,90.0,0.0,64.0
3992,64.0,120.0,90.0,0.0,64.0
3993,87.0,0.0,90.0,0.0,64.0
3994,83.0,72.0,390.0,0.0,64.0
3995,59.0,120.0,90.0,0.0,64.0
3996,63.0,120.0,90.0,0.0,64.0
3997,66.0,48.0,90.0,0.0,64.0
3998,63.0,216.0,90.0,0.0,64.0
3999,59.0,240.0,180.0,0.0,64.0
4000,78.0,144.0,180.0,0.0,64.0
4001,90.0,120.0,90.0,0.0,64.0
4002,88.0,120.0,90.0,0.0,64.0
4003,90.0,120.0,90.0,0.0,64.0
4004,88.0,120.0,90.0,0.0,64.0
4005,85.0,72.0,390.0,0.0,64.0
4006,83.0,120.0,90.0,0.0,64.0
4007,82.0,120.0,90.0,0.0,64.0
4008,83.0,48.0,90.0,0.0,64.0
4009,82.0,120.0,90.0,0.0,64.0
4010,88.0,120.0,90.0,0.0,64.0
4011,87.0,120.0,90.0,0.0,64.0
4012,88.0,120.0,90.0,0.0,64.0
4013,87.0,120.0,90.0,0.0,64.0
4014,79.0,120.0,90.0,0.0,64.0
4015,83.0,72.0,390.0,0.0,64.0
4016,80.0,120.0,90.0,0.0,64.0
4017,79.0,48.0,90.0,0.0,64.0
4018,80.0,120.0,90.0,0.0,64.0
4019,87.0,120.0,90.0,0.0,64.0
4020,85.0,120.0,90.0,0.0,64.0
4021,87.0,120.0,90.0,0.0,64.0
4022,85.0,120.0,90.0,0.0,64.0
4023,80.0,120.0,90.0,0.0,64.0
4024,82.0,72.0,390.0,0.0,64.0
4025,79.0,120.0,90.0,0.0,64.0
4026,80.0,48.0,90.0,0.0,64.0
4027,79.0,120.0,90.0,0.0,64.0
4028,85.0,120.0,90.0,0.0,64.0
4029,83.0,120.0,90.0,0.0,64.0
4030,85.0,120.0,90.0,0.0,64.0
4031,83.0,120.0,90.0,0.0,64.0
4032,80.0,72.0,390.0,0.0,64.0
4033,75.0,120.0,90.0,0.0,64.0
4034,76.0,120.0,90.0,0.0,64.0
4035,75.0,48.0,90.0,0.0,64.0
4036,76.0,120.0,90.0,0.0,64.0
4037,83.0,120.0,90.0,0.0,64.0
4038,81.0,120.0,90.0,0.0,64.0
4039,83.0,120.0,90.0,0.0,64.0
4040,81.0,120.0,90.0,0.0,64.0
4041,76.0,120.0,90.0,0.0,64.0
4042,78.0,72.0,390.0,0.0,64.0
4043,75.0,120.0,90.0,0.0,64.0
4044,76.0,48.0,90.0,0.0,64.0
4045,75.0,120.0,90.0,0.0,64.0
4046,81.0,120.0,90.0,0.0,64.0
4047,72.0,72.0,390.0,0.0,64.0
4048,80.0,120.0,90.0,0.0,64.0
4049,81.0,48.0,90.0,0.0,64.0
4050,80.0,120.0,90.0,0.0,64.0
4051,75.0,120.0,90.0,0.0,64.0
4052,76.0,72.0,390.0,0.0,64.0
4053,73.0,120.0,90.0,0.0,64.0
4054,75.0,48.0,90.0,0.0,64.0
4055,73.0,120.0,90.0,0.0,64.0
4056,80.0,120.0,90.0,0.0,64.0
4057,70.0,72.0,390.0,0.0,64.0
4058,78.0,120.0,90.0,0.0,64.0
4059,80.0,48.0,90.0,0.0,64.0
4060,78.0,120.0,90.0,0.0,64.0
4061,73.0,120.0,90.0,0.0,64.0
4062,75.0,72.0,390.0,0.0,64.0
4063,71.0,120.0,90.0,0.0,64.0
4064,73.0,48.0,90.0,0.0,64.0
4065,71.0,120.0,90.0,0.0,64.0
4066,78.0,120.0,90.0,0.0,64.0
4067,68.0,72.0,390.0,0.0,64.0
4068,76.0,120.0,90.0,0.0,64.0
4069,78.0,48.0,90.0,0.0,64.0
4070,76.0,120.0,90.0,0.0,64.0
4071,71.0,120.0,90.0,0.0,64.0
4072,73.0,72.0,390.0,0.0,64.0
4073,70.0,120.0,90.0,0.0,64.0
4074,71.0,48.0,90.0,0.0,64.0
4075,70.0,120.0,90.0,0.0,64.0
4076,67.0,24.0,180.0,0.0,64.0
4077,76.0,96.0,90.0,0.0,64.0
4078,75.0,120.0,90.0,0.0,64.0
4079,73.0,96.0,90.0,0.0,64.0
4080,68.0,24.0,180.0,0.0,64.0
4081,71.0,120.0,90.0,0.0,64.0
4082,65.0,24.0,180.0,0.0,64.0
4083,75.0,96.0,90.0,0.0,64.0
4084,73.0,120.0,90.0,0.0,64.0
4085,66.0,24.0,180.0,0.0,64.0
4086,71.0,96.0,90.0,0.0,64.0
4087,70.0,120.0,90.0,0.0,64.0
4088,63.0,24.0,180.0,0.0,64.0
4089,73.0,96.0,90.0,0.0,64.0
4090,71.0,120.0,90.0,0.0,64.0
4091,70.0,96.0,90.0,0.0,64.0
4092,64.0,24.0,180.0,0.0,64.0
4093,68.0,120.0,90.0,0.0,64.0
4094,61.0,24.0,180.0,0.0,64.0
4095,71.0,96.0,90.0,0.0,64.0
4096,70.0,120.0,90.0,0.0,64.0
4097,68.0,96.0,90.0,0.0,64.0
4098,63.0,24.0,180.0,0.0,64.0
4099,66.0,120.0,90.0,0.0,64.0
4100,59.0,24.0,180.0,0.0,64.0
4101,70.0,96.0,90.0,0.0,64.0
4102,68.0,120.0,90.0,0.0,64.0
4103,61.0,24.0,180.0,0.0,64.0
4104,66.0,96.0,90.0,0.0,64.0
4105,64.0,120.0,90.0,0.0,64.0
4106,58.0,24.0,180.0,0.0,64.0
4107,68.0,96.0,90.0,0.0,64.0
4108,66.0,120.0,90.0,0.0,64.0
4109,59.0,24.0,180.0,0.0,64.0
4110,64.0,96.0,90.0,0.0,64.0
4111,63.0,120.0,90.0,0.0,64.0
4112,56.0,24.0,180.0,0.0,64.0
4113,66.0,96.0,90.0,0.0,64.0
4114,64.0,120.0,90.0,0.0,64.0
4115,63.0,96.0,90.0,0.0,64.0
4116,58.0,24.0,180.0,0.0,64.0
4117,61.0,120.0,90.0,0.0,64.0
4118,55.0,24.0,180.0,0.0,64.0
4119,64.0,96.0,90.0,0.0,64.0
4120,63.0,120.0,90.0,0.0,64.0
4121,56.0,24.0,180.0,0.0,64.0
4122,61.0,96.0,90.0,0.0,64.0
4123,59.0,120.0,90.0,0.0,64.0
4124,49.0,0.0,780.0,0.0,64.0
4125,52.0,48.0,780.0,0.0,64.0
4126,55.0,120.0,90.0,0.0,64.0
4127,67.0,120.0,90.0,0.0,64.0
4128,58.0,120.0,90.0,0.0,64.0
4129,67.0,120.0,90.0,0.0,64.0
4130,64.0,120.0,90.0,0.0,64.0
4131,67.0,72.0,90.0,0.0,64.0
4132,55.0,120.0,90.0,0.0,64.0
4133,67.0,120.0,90.0,0.0,64.0
4134,56.0,120.0,90.0,0.0,64.0
4135,53.0,0.0,780.0,0.0,64.0
4136,50.0,48.0,780.0,0.0,64.0
4137,68.0,120.0,90.0,0.0,64.0
4138,59.0,120.0,90.0,0.0,64.0
4139,68.0,120.0,90.0,0.0,64.0
4140,65.0,120.0,90.0,0.0,64.0
4141,68.0,72.0,90.0,0.0,64.0
4142,56.0,120.0,90.0,0.0,64.0
4143,68.0,240.0,90.0,0.0,64.0
4144,51.0,72.0,390.0,0.0,64.0
4145,63.0,120.0,90.0,0.0,64.0
4146,65.0,48.0,90.0,0.0,64.0
4147,67.0,120.0,90.0,0.0,64.0
4148,68.0,120.0,90.0,0.0,64.0
4149,70.0,120.0,90.0,0.0,64.0
4150,72.0,120.0,90.0,0.0,64.0
4151,74.0,120.0,90.0,0.0,64.0
4152,75.0,120.0,90.0,0.0,64.0
4153,77.0,120.0,90.0,0.0,64.0
4154,79.0,120.0,90.0,0.0,64.0
4155,80.0,120.0,90.0,0.0,64.0
4156,82.0,120.0,90.0,0.0,64.0
4157,84.0,120.0,90.0,0.0,64.0
4158,86.0,120.0,90.0,0.0,64.0
4159,87.0,120.0,90.0,0.0,64.0
4160,60.0,120.0,90.0,0.0,64.0
4161,54.0,0.0,780.0,0.0,64.0
4162,57.0,48.0,780.0,0.0,64.0
4163,72.0,120.0,90.0,0.0,64.0
4164,63.0,120.0,90.0,0.0,64.0
4165,72.0,120.0,90.0,0.0,64.0
4166,69.0,120.0,90.0,0.0,64.0
4167,72.0,72.0,90.0,0.0,64.0
4168,60.0,120.0,90.0,0.0,64.0
4169,72.0,120.0,90.0,0.0,64.0
4170,61.0,120.0,90.0,0.0,64.0
4171,58.0,0.0,780.0,0.0,64.0
4172,55.0,48.0,780.0,0.0,64.0
4173,73.0,120.0,90.0,0.0,64.0
4174,64.0,120.0,90.0,0.0,64.0
4175,73.0,120.0,90.0,0.0,64.0
4176,70.0,120.0,90.0,0.0,64.0
4177,73.0,72.0,90.0,0.0,64.0
4178,61.0,120.0,90.0,0.0,64.0
4179,73.0,240.0,90.0,0.0,64.0
4180,60.0,72.0,390.0,0.0,64.0
4181,56.0,0.0,390.0,0.0,64.0
4182,68.0,120.0,90.0,0.0,64.0
4183,70.0,48.0,90.0,0.0,64.0
4184,72.0,120.0,90.0,0.0,64.0
4185,73.0,120.0,90.0,0.0,64.0
4186,75.0,120.0,90.0,0.0,64.0
4187,77.0,120.0,90.0,0.0,64.0
4188,79.0,120.0,90.0,0.0,64.0
4189,80.0,120.0,90.0,0.0,64.0
4190,82.0,120.0,90.0,0.0,64.0
4191,84.0,120.0,90.0,0.0,64.0
4192,85.0,120.0,90.0,0.0,64.0
4193,87.0,120.0,90.0,0.0,64.0
4194,89.0,120.0,90.0,0.0,64.0
4195,91.0,120.0,90.0,0.0,64.0
4196,92.0,120.0,90.0,0.0,64.0
4197,62.0,48.0,780.0,0.0,64.0
4198,65.0,120.0,90.0,0.0,64.0
4199,59.0,0.0,780.0,0.0,64.0
4200,77.0,120.0,90.0,0.0,64.0
4201,68.0,120.0,90.0,0.0,64.0
4202,77.0,120.0,90.0,0.0,64.0
4203,74.0,120.0,90.0,0.0,64.0
4204,77.0,72.0,90.0,0.0,64.0
4205,65.0,120.0,90.0,0.0,64.0
4206,77.0,120.0,90.0,0.0,64.0
4207,63.0,0.0,780.0,0.0,64.0
4208,60.0,48.0,780.0,0.0,64.0
4209,66.0,120.0,90.0,0.0,64.0
4210,78.0,120.0,90.0,0.0,64.0
4211,69.0,120.0,90.0,0.0,64.0
4212,78.0,120.0,90.0,0.0,64.0
4213,75.0,120.0,90.0,0.0,64.0
4214,78.0,72.0,90.0,0.0,64.0
4215,66.0,120.0,90.0,0.0,64.0
4216,78.0,120.0,90.0,0.0,64.0
4217,66.0,120.0,90.0,0.0,64.0
4218,63.0,48.0,780.0,0.0,64.0
4219,59.0,0.0,780.0,0.0,64.0
4220,78.0,120.0,90.0,0.0,64.0
4221,69.0,120.0,90.0,0.0,64.0
4222,78.0,120.0,90.0,0.0,64.0
4223,75.0,120.0,90.0,0.0,64.0
4224,78.0,72.0,90.0,0.0,64.0
4225,66.0,120.0,90.0,0.0,64.0
4226,78.0,120.0,90.0,0.0,64.0
4227,67.0,120.0,90.0,0.0,64.0
4228,52.0,0.0,780.0,0.0,64.0
4229,64.0,48.0,780.0,0.0,64.0
4230,79.0,120.0,90.0,0.0,64.0
4231,71.0,120.0,90.0,0.0,64.0
4232,79.0,120.0,90.0,0.0,64.0
4233,76.0,120.0,90.0,0.0,64.0
4234,79.0,72.0,90.0,0.0,64.0
4235,67.0,120.0,90.0,0.0,64.0
4236,79.0,120.0,90.0,0.0,64.0
4237,64.0,120.0,90.0,0.0,64.0
4238,61.0,0.0,780.0,0.0,64.0
4239,57.0,48.0,780.0,0.0,64.0
4240,76.0,120.0,90.0,0.0,64.0
4241,67.0,120.0,90.0,0.0,64.0
4242,76.0,120.0,90.0,0.0,64.0
4243,73.0,120.0,90.0,0.0,64.0
4244,76.0,72.0,90.0,0.0,64.0
4245,64.0,120.0,90.0,0.0,64.0
4246,76.0,120.0,90.0,0.0,64.0
4247,64.0,120.0,90.0,0.0,64.0
4248,61.0,0.0,780.0,0.0,64.0
4249,58.0,48.0,780.0,0.0,64.0
4250,76.0,120.0,90.0,0.0,64.0
4251,67.0,120.0,90.0,0.0,64.0
4252,76.0,120.0,90.0,0.0,64.0
4253,73.0,120.0,90.0,0.0,64.0
4254,76.0,72.0,90.0,0.0,64.0
4255,64.0,120.0,90.0,0.0,64.0
4256,76.0,120.0,90.0,0.0,64.0
4257,61.0,48.0,780.0,0.0,64.0
4258,57.0,0.0,780.0,0.0,64.0
4259,64.0,120.0,90.0,0.0,64.0
4260,76.0,120.0,90.0,0.0,64.0
4261,67.0,120.0,90.0,0.0,64.0
4262,76.0,120.0,90.0,0.0,64.0
4263,73.0,120.0,90.0,0.0,64.0
4264,76.0,72.0,90.0,0.0,64.0
4265,64.0,120.0,90.0,0.0,64.0
4266,76.0,120.0,90.0,0.0,64.0
4267,65.0,120.0,90.0,0.0,64.0
4268,50.0,0.0,780.0,0.0,64.0
4269,62.0,48.0,780.0,0.0,64.0
4270,77.0,120.0,90.0,0.0,64.0
4271,69.0,120.0,90.0,0.0,64.0
4272,77.0,120.0,90.0,0.0,64.0
4273,74.0,120.0,90.0,0.0,64.0
4274,77.0,72.0,90.0,0.0,64.0
4275,65.0,120.0,90.0,0.0,64.0
4276,77.0,120.0,90.0,0.0,64.0
4277,62.0,120.0,90.0,0.0,64.0
4278,55.0,48.0,780.0,0.0,64.0
4279,59.0,0.0,780.0,0.0,64.0
4280,74.0,120.0,90.0,0.0,64.0
4281,65.0,120.0,90.0,0.0,64.0
4282,74.0,120.0,90.0,0.0,64.0
4283,71.0,120.0,90.0,0.0,64.0
4284,74.0,72.0,90.0,0.0,64.0
4285,62.0,120.0,90.0,0.0,64.0
4286,74.0,120.0,90.0,0.0,64.0
4287,62.0,120.0,90.0,0.0,64.0
4288,56.0,48.0,780.0,0.0,64.0
4289,59.0,0.0,780.0,0.0,64.0
4290,74.0,120.0,90.0,0.0,64.0
4291,65.0,120.0,90.0,0.0,64.0
4292,74.0,120.0,90.0,0.0,64.0
4293,71.0,120.0,90.0,0.0,64.0
4294,74.0,72.0,90.0,0.0,64.0
4295,62.0,120.0,90.0,0.0,64.0
4296,74.0,240.0,90.0,0.0,64.0
4297,55.0,0.0,390.0,0.0,64.0
4298,59.0,72.0,390.0,0.0,64.0
4299,62.0,120.0,90.0,0.0,64.0
4300,64.0,48.0,90.0,0.0,64.0
4301,65.0,120.0,90.0,0.0,64.0
4302,43.0,72.0,390.0,0.0,64.0
4303,67.0,120.0,90.0,0.0,64.0
4304,69.0,120.0,90.0,0.0,64.0
4305,71.0,48.0,90.0,0.0,64.0
4306,72.0,120.0,90.0,0.0,64.0
4307,74.0,120.0,90.0,0.0,64.0
4308,76.0,120.0,90.0,0.0,64.0
4309,77.0,120.0,90.0,0.0,64.0
4310,79.0,120.0,90.0,0.0,64.0
4311,81.0,120.0,90.0,0.0,64.0
4312,83.0,120.0,90.0,0.0,64.0
4313,84.0,120.0,90.0,0.0,64.0
4314,86.0,120.0,90.0,0.0,64.0
4315,88.0,72.0,390.0,0.0,64.0
4316,36.0,120.0,90.0,0.0,64.0
4317,40.0,120.0,90.0,0.0,64.0
4318,43.0,48.0,90.0,0.0,64.0
4319,48.0,120.0,90.0,0.0,64.0
4320,40.0,96.0,90.0,0.0,64.0
4321,84.0,24.0,180.0,0.0,64.0
4322,43.0,120.0,90.0,0.0,64.0
4323,84.0,24.0,180.0,0.0,64.0
4324,48.0,96.0,90.0,0.0,64.0
4325,52.0,120.0,90.0,0.0,64.0
4326,79.0,24.0,180.0,0.0,64.0
4327,43.0,96.0,90.0,0.0,64.0
4328,48.0,120.0,90.0,0.0,64.0
4329,79.0,24.0,180.0,0.0,64.0
4330,52.0,96.0,90.0,0.0,64.0
4331,55.0,120.0,90.0,0.0,64.0
4332,48.0,120.0,90.0,0.0,64.0
4333,76.0,72.0,390.0,0.0,64.0
4334,52.0,120.0,90.0,0.0,64.0
4335,55.0,48.0,90.0,0.0,64.0
4336,60.0,120.0,90.0,0.0,64.0
4337,59.0,72.0,390.0,0.0,64.0
4338,62.0,120.0,90.0,0.0,64.0
4339,64.0,120.0,90.0,0.0,64.0
4340,68.0,48.0,90.0,0.0,64.0
4341,74.0,120.0,90.0,0.0,64.0
4342,56.0,24.0,180.0,0.0,64.0
4343,64.0,96.0,90.0,0.0,64.0
4344,68.0,120.0,90.0,0.0,64.0
4345,74.0,96.0,90.0,0.0,64.0
4346,56.0,24.0,180.0,0.0,64.0
4347,76.0,120.0,90.0,0.0,64.0
4348,68.0,96.0,90.0,0.0,64.0
4349,52.0,24.0,180.0,0.0,64.0
4350,74.0,120.0,90.0,0.0,64.0
4351,52.0,24.0,180.0,0.0,64.0
4352,76.0,96.0,90.0,0.0,64.0
4353,80.0,120.0,90.0,0.0,64.0
4354,47.0,72.0,390.0,0.0,64.0
4355,74.0,120.0,90.0,0.0,64.0
4356,76.0,120.0,90.0,0.0,64.0
4357,80.0,48.0,90.0,0.0,64.0
4358,86.0,120.0,90.0,0.0,64.0
4359,84.0,72.0,390.0,0.0,64.0
4360,33.0,120.0,90.0,0.0,64.0
4361,36.0,120.0,90.0,0.0,64.0
4362,40.0,48.0,90.0,0.0,64.0
4363,45.0,120.0,90.0,0.0,64.0
4364,36.0,96.0,90.0,0.0,64.0
4365,81.0,24.0,180.0,0.0,64.0
4366,40.0,120.0,90.0,0.0,64.0
4367,81.0,24.0,180.0,0.0,64.0
4368,45.0,96.0,90.0,0.0,64.0
4369,48.0,120.0,90.0,0.0,64.0
4370,76.0,24.0,180.0,0.0,64.0
4371,40.0,96.0,90.0,0.0,64.0
4372,45.0,120.0,90.0,0.0,64.0
4373,76.0,24.0,180.0,0.0,64.0
4374,48.0,96.0,90.0,0.0,64.0
4375,52.0,120.0,90.0,0.0,64.0
4376,45.0,120.0,90.0,0.0,64.0
4377,72.0,72.0,390.0,0.0,64.0
4378,48.0,120.0,90.0,0.0,64.0
4379,52.0,48.0,90.0,0.0,64.0
4380,57.0,120.0,90.0,0.0,64.0
4381,55.0,72.0,390.0,0.0,64.0
4382,59.0,120.0,90.0,0.0,64.0
4383,64.0,120.0,90.0,0.0,64.0
4384,67.0,48.0,90.0,0.0,64.0
4385,71.0,120.0,90.0,0.0,64.0
4386,52.0,24.0,180.0,0.0,64.0
4387,64.0,96.0,90.0,0.0,64.0
4388,67.0,120.0,90.0,0.0,64.0
4389,71.0,96.0,90.0,0.0,64.0
4390,52.0,24.0,180.0,0.0,64.0
4391,76.0,120.0,90.0,0.0,64.0
4392,67.0,96.0,90.0,0.0,64.0
4393,47.0,24.0,180.0,0.0,64.0
4394,71.0,120.0,90.0,0.0,64.0
4395,47.0,24.0,180.0,0.0,64.0
4396,76.0,96.0,90.0,0.0,64.0
4397,79.0,120.0,90.0,0.0,64.0
4398,43.0,72.0,390.0,0.0,64.0
4399,71.0,120.0,90.0,0.0,64.0
4400,76.0,120.0,90.0,0.0,64.0
4401,79.0,48.0,90.0,0.0,64.0
4402,83.0,240.0,90.0,0.0,64.0
4403,42.0,72.0,390.0,0.0,64.0
4404,88.0,120.0,90.0,0.0,64.0
4405,85.0,48.0,90.0,0.0,64.0
4406,82.0,120.0,90.0,0.0,64.0
4407,46.0,24.0,180.0,0.0,64.0
4408,76.0,96.0,90.0,0.0,64.0
4409,82.0,120.0,90.0,0.0,64.0
4410,76.0,96.0,90.0,0.0,64.0
4411,46.0,24.0,180.0,0.0,64.0
4412,73.0,120.0,90.0,0.0,64.0
4413,70.0,96.0,90.0,0.0,64.0
4414,49.0,24.0,180.0,0.0,64.0
4415,76.0,120.0,90.0,0.0,64.0
4416,49.0,24.0,180.0,0.0,64.0
4417,73.0,96.0,90.0,0.0,64.0
4418,70.0,120.0,90.0,0.0,64.0
4419,54.0,72.0,390.0,0.0,64.0
4420,64.0,120.0,90.0,0.0,64.0
4421,73.0,120.0,90.0,0.0,64.0
4422,70.0,48.0,90.0,0.0,64.0
4423,64.0,240.0,90.0,0.0,64.0
4424,42.0,72.0,390.0,0.0,64.0
4425,86.0,120.0,90.0,0.0,64.0
4426,83.0,48.0,90.0,0.0,64.0
4427,78.0,120.0,90.0,0.0,64.0
4428,74.0,96.0,90.0,0.0,64.0
4429,47.0,24.0,180.0,0.0,64.0
4430,83.0,120.0,90.0,0.0,64.0
4431,47.0,24.0,180.0,0.0,64.0
4432,78.0,96.0,90.0,0.0,64.0
4433,74.0,120.0,90.0,0.0,64.0
4434,71.0,96.0,90.0,0.0,64.0
4435,50.0,24.0,180.0,0.0,64.0
4436,74.0,120.0,90.0,0.0,64.0
4437,50.0,24.0,180.0,0.0,64.0
4438,71.0,96.0,90.0,0.0,64.0
4439,66.0,120.0,90.0,0.0,64.0
4440,54.0,72.0,390.0,0.0,64.0
4441,62.0,120.0,90.0,0.0,64.0
4442,71.0,120.0,90.0,0.0,64.0
4443,66.0,48.0,90.0,0.0,64.0
4444,62.0,240.0,90.0,0.0,64.0
4445,42.0,72.0,390.0,0.0,64.0
4446,83.0,120.0,90.0,0.0,64.0
4447,80.0,48.0,90.0,0.0,64.0
4448,77.0,120.0,90.0,0.0,64.0
4449,47.0,24.0,180.0,0.0,64.0
4450,71.0,96.0,90.0,0.0,64.0
4451,80.0,120.0,90.0,0.0,64.0
4452,47.0,24.0,180.0,0.0,64.0
4453,77.0,96.0,90.0,0.0,64.0
4454,71.0,120.0,90.0,0.0,64.0
4455,50.0,24.0,180.0,0.0,64.0
4456,68.0,96.0,90.0,0.0,64.0
4457,71.0,120.0,90.0,0.0,64.0
4458,50.0,24.0,180.0,0.0,64.0
4459,68.0,96.0,90.0,0.0,64.0
4460,65.0,120.0,90.0,0.0,64.0
4461,54.0,72.0,390.0,0.0,64.0
4462,59.0,120.0,90.0,0.0,64.0
4463,68.0,120.0,90.0,0.0,64.0
4464,65.0,48.0,90.0,0.0,64.0
4465,59.0,240.0,90.0,0.0,64.0
4466,42.0,72.0,390.0,0.0,64.0
4467,85.0,120.0,90.0,0.0,64.0
4468,82.0,48.0,90.0,0.0,64.0
4469,78.0,120.0,90.0,0.0,64.0
4470,73.0,120.0,90.0,0.0,64.0
4471,82.0,120.0,90.0,0.0,64.0
4472,78.0,120.0,90.0,0.0,64.0
4473,73.0,120.0,90.0,0.0,64.0
4474,70.0,120.0,90.0,0.0,64.0
4475,78.0,120.0,90.0,0.0,64.0
4476,73.0,120.0,90.0,0.0,64.0
4477,70.0,120.0,90.0,0.0,64.0
4478,66.0,120.0,90.0,0.0,64.0
4479,73.0,120.0,90.0,0.0,64.0
4480,70.0,120.0,90.0,0.0,64.0
4481,66.0,240.0,90.0,0.0,64.0
4482,42.0,72.0,390.0,0.0,64.0
4483,88.0,120.0,90.0,0.0,64.0
4484,85.0,48.0,90.0,0.0,64.0
4485,82.0,120.0,90.0,0.0,64.0
4486,46.0,24.0,180.0,0.0,64.0
4487,76.0,96.0,90.0,0.0,64.0
4488,82.0,120.0,90.0,0.0,64.0
4489,46.0,24.0,180.0,0.0,64.0
4490,76.0,96.0,90.0,0.0,64.0
4491,73.0,120.0,90.0,0.0,64.0
4492,70.0,96.0,90.0,0.0,64.0
4493,49.0,24.0,180.0,0.0,64.0
4494,76.0,120.0,90.0,0.0,64.0
4495,49.0,24.0,180.0,0.0,64.0
4496,73.0,96.0,90.0,0.0,64.0
4497,70.0,120.0,90.0,0.0,64.0
4498,54.0,72.0,390.0,0.0,64.0
4499,64.0,120.0,90.0,0.0,64.0
4500,73.0,120.0,90.0,0.0,64.0
4501,70.0,48.0,90.0,0.0,64.0
4502,64.0,240.0,90.0,0.0,64.0
4503,43.0,72.0,390.0,0.0,64.0
4504,88.0,120.0,90.0,0.0,64.0
4505,83.0,48.0,90.0,0.0,64.0
4506,79.0,120.0,90.0,0.0,64.0
4507,47.0,24.0,180.0,0.0,64.0
4508,76.0,96.0,90.0,0.0,64.0
4509,79.0,120.0,90.0,0.0,64.0
4510,47.0,24.0,180.0,0.0,64.0
4511,76.0,96.0,90.0,0.0,64.0
4512,71.0,120.0,90.0,0.0,64.0
4513,67.0,96.0,90.0,0.0,64.0
4514,52.0,24.0,180.0,0.0,64.0
4515,76.0,120.0,90.0,0.0,64.0
4516,52.0,24.0,180.0,0.0,64.0
4517,71.0,96.0,90.0,0.0,64.0
4518,67.0,120.0,90.0,0.0,64.0
4519,55.0,72.0,390.0,0.0,64.0
4520,64.0,120.0,90.0,0.0,64.0
4521,71.0,120.0,90.0,0.0,64.0
4522,67.0,48.0,90.0,0.0,64.0
4523,64.0,240.0,90.0,0.0,64.0
4524,44.0,72.0,390.0,0.0,64.0
4525,88.0,120.0,90.0,0.0,64.0
4526,83.0,48.0,90.0,0.0,64.0
4527,80.0,120.0,90.0,0.0,64.0
4528,47.0,24.0,180.0,0.0,64.0
4529,76.0,96.0,90.0,0.0,64.0
4530,80.0,120.0,90.0,0.0,64.0
4531,76.0,96.0,90.0,0.0,64.0
4532,47.0,24.0,180.0,0.0,64.0
4533,71.0,120.0,90.0,0.0,64.0
4534,68.0,96.0,90.0,0.0,64.0
4535,52.0,24.0,180.0,0.0,64.0
4536,71.0,120.0,90.0,0.0,64.0
4537,52.0,24.0,180.0,0.0,64.0
4538,68.0,96.0,90.0,0.0,64.0
4539,64.0,120.0,90.0,0.0,64.0
4540,56.0,72.0,390.0,0.0,64.0
4541,59.0,120.0,90.0,0.0,64.0
4542,68.0,120.0,90.0,0.0,64.0
4543,64.0,48.0,90.0,0.0,64.0
4544,59.0,240.0,90.0,0.0,64.0
4545,45.0,72.0,390.0,0.0,64.0
4546,88.0,120.0,90.0,0.0,64.0
4547,85.0,48.0,90.0,0.0,64.0
4548,81.0,120.0,90.0,0.0,64.0
4549,49.0,24.0,180.0,0.0,64.0
4550,76.0,96.0,90.0,0.0,64.0
4551,81.0,120.0,90.0,0.0,64.0
4552,49.0,24.0,180.0,0.0,64.0
4553,76.0,96.0,90.0,0.0,64.0
4554,73.0,120.0,90.0,0.0,64.0
4555,69.0,96.0,90.0,0.0,64.0
4556,52.0,24.0,180.0,0.0,64.0
4557,76.0,120.0,90.0,0.0,64.0
4558,73.0,96.0,90.0,0.0,64.0
4559,52.0,24.0,180.0,0.0,64.0
4560,69.0,120.0,90.0,0.0,64.0
4561,57.0,72.0,390.0,0.0,64.0
4562,64.0,120.0,90.0,0.0,64.0
4563,73.0,120.0,90.0,0.0,64.0
4564,69.0,48.0,90.0,0.0,64.0
4565,64.0,240.0,90.0,0.0,64.0
4566,54.0,72.0,390.0,0.0,64.0
4567,52.0,0.0,390.0,0.0,64.0
4568,49.0,0.0,390.0,0.0,64.0
4569,46.0,0.0,390.0,0.0,64.0
4570,88.0,120.0,90.0,0.0,64.0
4571,87.0,48.0,90.0,0.0,64.0
4572,85.0,120.0,90.0,0.0,64.0
4573,83.0,120.0,90.0,0.0,64.0
4574,82.0,120.0,90.0,0.0,64.0
4575,80.0,120.0,90.0,0.0,64.0
4576,78.0,120.0,90.0,0.0,64.0
4577,76.0,120.0,90.0,0.0,64.0
4578,75.0,120.0,90.0,0.0,64.0
4579,73.0,120.0,90.0,0.0,64.0
4580,71.0,120.0,90.0,0.0,64.0
4581,70.0,120.0,90.0,0.0,64.0
4582,68.0,120.0,90.0,0.0,64.0
4583,66.0,120.0,90.0,0.0,64.0
4584,64.0,120.0,90.0,0.0,64.0
4585,63.0,120.0,90.0,0.0,64.0
4586,61.0,120.0,90.0,0.0,64.0
4587,59.0,120.0,90.0,0.0,64.0
4588,58.0,120.0,90.0,0.0,64.0
4589,56.0,120.0,90.0,0.0,64.0
4590,54.0,120.0,90.0,0.0,64.0
4591,52.0,120.0,90.0,0.0,64.0
4592,51.0,120.0,90.0,0.0,64.0
4593,49.0,120.0,90.0,0.0,64.0
4594,47.0,120.0,90.0,0.0,64.0
4595,46.0,120.0,90.0,0.0,64.0
4596,44.0,120.0,90.0,0.0,64.0
4597,42.0,120.0,90.0,0.0,64.0
4598,41.0,120.0,90.0,0.0,64.0
4599,42.0,120.0,90.0,0.0,64.0
4600,41.0,408.0,90.0,0.0,64.0
4601,42.0,288.0,390.0,0.0,64.0
4602,46.0,240.0,180.0,0.0,64.0
4603,46.0,432.0,180.0,0.0,64.0
4604,49.0,288.0,390.0,0.0,64.0
4605,54.0,0.0,390.0,0.0,64.0
4606,58.0,240.0,180.0,0.0,64.0
4607,58.0,432.0,180.0,0.0,64.0
4608,61.0,288.0,390.0,0.0,64.0
4609,46.0,0.0,390.0,0.0,64.0
4610,49.0,240.0,180.0,0.0,64.0
4611,49.0,432.0,180.0,0.0,64.0
4612,58.0,0.0,390.0,0.0,64.0
4613,52.0,288.0,390.0,0.0,64.0
4614,61.0,240.0,180.0,0.0,64.0
4615,61.0,432.0,180.0,0.0,64.0
4616,64.0,288.0,390.0,0.0,64.0
4617,49.0,0.0,390.0,0.0,64.0
4618,52.0,240.0,180.0,0.0,64.0
4619,52.0,432.0,180.0,0.0,64.0
4620,55.0,288.0,390.0,0.0,64.0
4621,61.0,0.0,390.0,0.0,64.0
4622,64.0,240.0,180.0,0.0,64.0
4623,64.0,432.0,180.0,0.0,64.0
4624,64.0,288.0,390.0,0.0,64.0
4625,46.0,0.0,390.0,0.0,64.0
4626,67.0,0.0,390.0,0.0,64.0
4627,55.0,0.0,180.0,0.0,64.0
4628,52.0,192.0,180.0,0.0,64.0
4629,58.0,0.0,390.0,0.0,64.0
4630,61.0,48.0,390.0,0.0,64.0
4631,55.0,0.0,180.0,0.0,64.0
4632,52.0,432.0,180.0,0.0,64.0
4633,46.0,0.0,390.0,0.0,64.0
4634,67.0,0.0,390.0,0.0,64.0
4635,64.0,288.0,390.0,0.0,64.0
4636,55.0,192.0,180.0,0.0,64.0
4637,52.0,0.0,180.0,0.0,64.0
4638,58.0,0.0,390.0,0.0,64.0
4639,61.0,48.0,390.0,0.0,64.0
4640,52.0,432.0,180.0,0.0,64.0
4641,55.0,0.0,180.0,0.0,64.0
4642,68.0,0.0,390.0,0.0,64.0
4643,47.0,0.0,390.0,0.0,64.0
4644,64.0,288.0,390.0,0.0,64.0
4645,52.0,192.0,180.0,0.0,64.0
4646,56.0,0.0,180.0,0.0,64.0
4647,59.0,48.0,390.0,0.0,64.0
4648,56.0,432.0,180.0,0.0,64.0
4649,52.0,0.0,180.0,0.0,64.0
4650,47.0,0.0,390.0,0.0,64.0
4651,63.0,0.0,390.0,0.0,64.0
4652,69.0,288.0,390.0,0.0,64.0
4653,54.0,192.0,180.0,0.0,64.0
4654,57.0,0.0,180.0,0.0,64.0
4655,59.0,48.0,390.0,0.0,64.0
4656,54.0,432.0,180.0,0.0,64.0
4657,57.0,0.0,180.0,0.0,64.0
4658,66.0,288.0,390.0,0.0,64.0
4659,48.0,0.0,390.0,0.0,64.0
4660,69.0,0.0,390.0,0.0,64.0
4661,60.0,48.0,390.0,0.0,64.0
4662,63.0,0.0,390.0,0.0,64.0
4663,57.0,192.0,180.0,0.0,64.0
4664,54.0,0.0,180.0,0.0,64.0
4665,57.0,0.0,180.0,0.0,64.0
4666,54.0,432.0,180.0,0.0,64.0
4667,66.0,288.0,390.0,0.0,64.0
4668,48.0,0.0,390.0,0.0,64.0
4669,69.0,0.0,390.0,0.0,64.0
4670,54.0,192.0,180.0,0.0,64.0
4671,60.0,0.0,390.0,0.0,64.0
4672,57.0,0.0,180.0,0.0,64.0
4673,63.0,48.0,390.0,0.0,64.0
4674,54.0,432.0,180.0,0.0,64.0
4675,57.0,0.0,180.0,0.0,64.0
4676,66.0,0.0,390.0,0.0,64.0
4677,49.0,0.0,390.0,0.0,64.0
4678,70.0,288.0,390.0,0.0,64.0
4679,58.0,192.0,180.0,0.0,64.0
4680,54.0,0.0,180.0,0.0,64.0
4681,61.0,48.0,390.0,0.0,64.0
4682,58.0,432.0,180.0,0.0,64.0
4683,54.0,0.0,180.0,0.0,64.0
4684,71.0,288.0,390.0,0.0,64.0
4685,49.0,0.0,390.0,0.0,64.0
4686,65.0,0.0,390.0,0.0,64.0
4687,56.0,192.0,180.0,0.0,64.0
4688,59.0,0.0,180.0,0.0,64.0
4689,61.0,48.0,390.0,0.0,64.0
4690,56.0,0.0,180.0,0.0,64.0
4691,59.0,432.0,180.0,0.0,64.0
4692,50.0,0.0,390.0,0.0,64.0
4693,71.0,288.0,390.0,0.0,64.0
4694,68.0,0.0,390.0,0.0,64.0
4695,59.0,192.0,180.0,0.0,64.0
4696,56.0,0.0,180.0,0.0,64.0
4697,62.0,48.0,390.0,0.0,64.0
4698,65.0,0.0,390.0,0.0,64.0
4699,56.0,0.0,180.0,0.0,64.0
4700,59.0,432.0,180.0,0.0,64.0
4701,71.0,288.0,390.0,0.0,64.0
4702,50.0,0.0,390.0,0.0,64.0
4703,68.0,0.0,390.0,0.0,64.0
4704,65.0,48.0,390.0,0.0,64.0
4705,56.0,0.0,180.0,0.0,64.0
4706,59.0,192.0,180.0,0.0,64.0
4707,62.0,0.0,390.0,0.0,64.0
4708,59.0,432.0,180.0,0.0,64.0
4709,56.0,0.0,180.0,0.0,64.0
4710,68.0,288.0,390.0,0.0,64.0
4711,51.0,0.0,390.0,0.0,64.0
4712,72.0,0.0,390.0,0.0,64.0
4713,56.0,0.0,180.0,0.0,64.0
4714,60.0,192.0,180.0,0.0,64.0
4715,63.0,48.0,390.0,0.0,64.0
4716,56.0,0.0,180.0,0.0,64.0
4717,60.0,432.0,180.0,0.0,64.0
4718,73.0,288.0,390.0,0.0,64.0
4719,51.0,0.0,390.0,0.0,64.0
4720,67.0,0.0,390.0,0.0,64.0
4721,58.0,0.0,180.0,0.0,64.0
4722,61.0,192.0,180.0,0.0,64.0
4723,63.0,48.0,390.0,0.0,64.0
4724,58.0,0.0,180.0,0.0,64.0
4725,61.0,432.0,180.0,0.0,64.0
4726,75.0,0.0,390.0,0.0,64.0
4727,51.0,288.0,390.0,0.0,64.0
4728,68.0,0.0,390.0,0.0,64.0
4729,60.0,192.0,180.0,0.0,64.0
4730,63.0,48.0,390.0,0.0,64.0
4731,60.0,432.0,180.0,0.0,64.0
4732,67.0,0.0,390.0,0.0,64.0
4733,51.0,0.0,390.0,0.0,64.0
4734,73.0,288.0,390.0,0.0,64.0
4735,58.0,192.0,180.0,0.0,64.0
4736,61.0,0.0,180.0,0.0,64.0
4737,63.0,48.0,390.0,0.0,64.0
4738,58.0,0.0,180.0,0.0,64.0
4739,61.0,432.0,180.0,0.0,64.0
4740,68.0,288.0,390.0,0.0,64.0
4741,51.0,0.0,390.0,0.0,64.0
4742,72.0,0.0,390.0,0.0,64.0
4743,56.0,0.0,180.0,0.0,64.0
4744,63.0,48.0,390.0,0.0,64.0
4745,60.0,192.0,180.0,0.0,64.0
4746,60.0,0.0,180.0,0.0,64.0
4747,56.0,432.0,180.0,0.0,64.0
4748,67.0,0.0,390.0,0.0,64.0
4749,73.0,0.0,390.0,0.0,64.0
4750,51.0,288.0,390.0,0.0,64.0
4751,58.0,192.0,180.0,0.0,64.0
4752,61.0,0.0,180.0,0.0,64.0
4753,63.0,48.0,390.0,0.0,64.0
4754,61.0,432.0,180.0,0.0,64.0
4755,58.0,0.0,180.0,0.0,64.0
4756,74.0,288.0,390.0,0.0,64.0
4757,50.0,0.0,390.0,0.0,64.0
4758,67.0,0.0,390.0,0.0,64.0
4759,59.0,192.0,180.0,0.0,64.0
4760,55.0,0.0,180.0,0.0,64.0
4761,62.0,48.0,390.0,0.0,64.0
4762,59.0,0.0,180.0,0.0,64.0
4763,55.0,432.0,180.0,0.0,64.0
4764,66.0,0.0,390.0,0.0,64.0
4765,50.0,288.0,390.0,0.0,64.0
4766,72.0,0.0,390.0,0.0,64.0
4767,60.0,192.0,180.0,0.0,64.0
4768,57.0,0.0,180.0,0.0,64.0
4769,62.0,48.0,390.0,0.0,64.0
4770,57.0,0.0,180.0,0.0,64.0
4771,60.0,432.0,180.0,0.0,64.0
4772,67.0,288.0,390.0,0.0,64.0
4773,55.0,0.0,390.0,0.0,64.0
4774,71.0,0.0,390.0,0.0,64.0
4775,59.0,192.0,180.0,0.0,64.0
4776,62.0,48.0,390.0,0.0,64.0
4777,59.0,432.0,180.0,0.0,64.0
4778,71.0,288.0,390.0,0.0,64.0
4779,55.0,0.0,390.0,0.0,64.0
4780,76.0,0.0,390.0,0.0,64.0
4781,64.0,48.0,390.0,0.0,64.0
4782,59.0,192.0,180.0,0.0,64.0
4783,59.0,432.0,180.0,0.0,64.0
4784,71.0,288.0,390.0,0.0,64.0
4785,54.0,0.0,390.0,0.0,64.0
4786,78.0,0.0,390.0,0.0,64.0
4787,66.0,48.0,390.0,0.0,64.0
4788,59.0,0.0,180.0,0.0,64.0
4789,61.0,192.0,180.0,0.0,64.0
4790,61.0,0.0,180.0,0.0,64.0
4791,59.0,432.0,180.0,0.0,64.0
4792,54.0,0.0,390.0,0.0,64.0
4793,70.0,0.0,390.0,0.0,64.0
4794,76.0,288.0,390.0,0.0,64.0
4795,61.0,192.0,180.0,0.0,64.0
4796,58.0,0.0,180.0,0.0,64.0
4797,64.0,48.0,390.0,0.0,64.0
4798,61.0,432.0,180.0,0.0,64.0
4799,58.0,0.0,180.0,0.0,64.0
4800,71.0,288.0,390.0,0.0,64.0
4801,59.0,0.0,390.0,0.0,64.0
4802,74.0,0.0,390.0,0.0,64.0
4803,62.0,192.0,180.0,0.0,64.0
4804,66.0,48.0,390.0,0.0,64.0
4805,62.0,432.0,180.0,0.0,64.0
4806,71.0,288.0,390.0,0.0,64.0
4807,55.0,0.0,390.0,0.0,64.0
4808,76.0,0.0,390.0,0.0,64.0
4809,61.0,0.0,180.0,0.0,64.0
4810,59.0,192.0,180.0,0.0,64.0
4811,64.0,48.0,390.0,0.0,64.0
4812,59.0,0.0,180.0,0.0,64.0
4813,61.0,432.0,180.0,0.0,64.0
4814,71.0,0.0,390.0,0.0,64.0
4815,54.0,0.0,390.0,0.0,64.0
4816,78.0,288.0,390.0,0.0,64.0
4817,61.0,192.0,180.0,0.0,64.0
4818,59.0,0.0,180.0,0.0,64.0
4819,64.0,48.0,390.0,0.0,64.0
4820,59.0,432.0,180.0,0.0,64.0
4821,61.0,0.0,180.0,0.0,64.0
4822,70.0,288.0,390.0,0.0,64.0
4823,54.0,0.0,390.0,0.0,64.0
4824,78.0,0.0,390.0,0.0,64.0
4825,64.0,48.0,390.0,0.0,64.0
4826,58.0,0.0,180.0,0.0,64.0
4827,61.0,192.0,180.0,0.0,64.0
4828,58.0,0.0,180.0,0.0,64.0
4829,61.0,240.0,180.0,0.0,64.0
4830,66.0,0.0,180.0,0.0,64.0
4831,71.0,0.0,180.0,0.0,64.0
4832,63.0,240.0,180.0,0.0,64.0
4833,75.0,0.0,180.0,0.0,64.0
4834,47.0,0.0,180.0,0.0,64.0
4835,59.0,0.0,180.0,0.0,64.0
4836,51.0,0.0,180.0,0.0,64.0
4837,54.0,240.0,180.0,0.0,64.0
4838,78.0,240.0,180.0,0.0,64.0
4839,59.0,0.0,180.0,0.0,64.0
4840,47.0,0.0,180.0,0.0,64.0
4841,51.0,240.0,180.0,0.0,64.0
4842,54.0,0.0,180.0,0.0,64.0
4843,83.0,240.0,180.0,0.0,64.0
4844,47.0,0.0,180.0,0.0,64.0
4845,59.0,240.0,180.0,0.0,64.0
4846,54.0,0.0,180.0,0.0,64.0
4847,51.0,0.0,180.0,0.0,64.0
4848,87.0,240.0,180.0,0.0,64.0
4849,59.0,144.0,180.0,0.0,64.0
4850,47.0,0.0,180.0,0.0,64.0
4851,54.0,0.0,180.0,0.0,64.0
4852,51.0,0.0,180.0,0.0,64.0
4853,78.0,24.0,180.0,0.0,64.0
4854,88.0,96.0,90.0,0.0,64.0
4855,82.0,0.0,180.0,0.0,64.0
4856,90.0,120.0,90.0,0.0,64.0
4857,52.0,0.0,180.0,0.0,64.0
4858,47.0,0.0,180.0,0.0,64.0
4859,58.0,24.0,180.0,0.0,64.0
4860,54.0,0.0,180.0,0.0,64.0
4861,88.0,96.0,90.0,0.0,64.0
4862,87.0,120.0,90.0,0.0,64.0
4863,82.0,0.0,180.0,0.0,64.0
4864,78.0,24.0,180.0,0.0,64.0
4865,85.0,96.0,90.0,0.0,64.0
4866,87.0,120.0,90.0,0.0,64.0
4867,85.0,96.0,90.0,0.0,64.0
4868,47.0,24.0,180.0,0.0,64.0
4869,58.0,0.0,180.0,0.0,64.0
4870,52.0,0.0,180.0,0.0,64.0
4871,54.0,0.0,180.0,0.0,64.0
4872,83.0,120.0,90.0,0.0,64.0
4873,82.0,96.0,90.0,0.0,64.0
4874,76.0,24.0,180.0,0.0,64.0
4875,78.0,0.0,180.0,0.0,64.0
4876,83.0,120.0,90.0,0.0,64.0
4877,54.0,24.0,180.0,0.0,64.0
4878,82.0,96.0,90.0,0.0,64.0
4879,58.0,0.0,180.0,0.0,64.0
4880,52.0,0.0,180.0,0.0,64.0
4881,47.0,0.0,180.0,0.0,64.0
4882,80.0,120.0,90.0,0.0,64.0
4883,78.0,96.0,90.0,0.0,64.0
4884,73.0,24.0,180.0,0.0,64.0
4885,80.0,120.0,90.0,0.0,64.0
4886,78.0,96.0,90.0,0.0,64.0
4887,52.0,0.0,180.0,0.0,64.0
4888,47.0,24.0,180.0,0.0,64.0
4889,58.0,0.0,180.0,0.0,64.0
4890,54.0,0.0,180.0,0.0,64.0
4891,76.0,216.0,90.0,0.0,64.0
4892,66.0,0.0,180.0,0.0,64.0
4893,63.0,0.0,180.0,0.0,64.0
4894,71.0,0.0,180.0,0.0,64.0
4895,75.0,240.0,180.0,0.0,64.0
4896,47.0,0.0,180.0,0.0,64.0
4897,59.0,0.0,180.0,0.0,64.0
4898,51.0,240.0,180.0,0.0,64.0
4899,54.0,0.0,180.0,0.0,64.0
4900,71.0,240.0,180.0,0.0,64.0
4901,78.0,0.0,180.0,0.0,64.0
4902,75.0,0.0,180.0,0.0,64.0
4903,66.0,0.0,180.0,0.0,64.0
4904,54.0,0.0,180.0,0.0,64.0
4905,51.0,0.0,180.0,0.0,64.0
4906,47.0,240.0,180.0,0.0,64.0
4907,59.0,0.0,180.0,0.0,64.0
4908,83.0,0.0,180.0,0.0,64.0
4909,71.0,0.0,180.0,0.0,64.0
4910,75.0,0.0,180.0,0.0,64.0
4911,78.0,240.0,180.0,0.0,64.0
4912,47.0,0.0,180.0,0.0,64.0
4913,59.0,0.0,180.0,0.0,64.0
4914,51.0,0.0,180.0,0.0,64.0
4915,54.0,240.0,180.0,0.0,64.0
4916,75.0,240.0,180.0,0.0,64.0
4917,83.0,0.0,180.0,0.0,64.0
4918,87.0,0.0,180.0,0.0,64.0
4919,78.0,0.0,180.0,0.0,64.0
4920,54.0,0.0,180.0,0.0,64.0
4921,51.0,0.0,180.0,0.0,64.0
4922,59.0,144.0,180.0,0.0,64.0
4923,47.0,0.0,180.0,0.0,64.0
4924,82.0,0.0,180.0,0.0,64.0
4925,88.0,96.0,90.0,0.0,64.0
4926,78.0,24.0,180.0,0.0,64.0
4927,90.0,120.0,90.0,0.0,64.0
4928,47.0,0.0,180.0,0.0,64.0
4929,88.0,96.0,90.0,0.0,64.0
4930,58.0,0.0,180.0,0.0,64.0
4931,52.0,0.0,180.0,0.0,64.0
4932,54.0,24.0,180.0,0.0,64.0
4933,87.0,120.0,90.0,0.0,64.0
4934,85.0,96.0,90.0,0.0,64.0
4935,82.0,0.0,180.0,0.0,64.0
4936,78.0,24.0,180.0,0.0,64.0
4937,87.0,120.0,90.0,0.0,64.0
4938,52.0,24.0,180.0,0.0,64.0
4939,58.0,0.0,180.0,0.0,64.0
4940,54.0,0.0,180.0,0.0,64.0
4941,47.0,0.0,180.0,0.0,64.0
4942,88.0,96.0,90.0,0.0,64.0
4943,85.0,216.0,90.0,0.0,64.0
4944,71.0,0.0,180.0,0.0,64.0
4945,75.0,0.0,180.0,0.0,64.0
4946,78.0,240.0,180.0,0.0,64.0
4947,83.0,0.0,180.0,0.0,64.0
4948,59.0,0.0,180.0,0.0,64.0
4949,47.0,240.0,180.0,0.0,64.0
4950,51.0,0.0,180.0,0.0,64.0
4951,54.0,0.0,180.0,0.0,64.0
4952,63.0,0.0,180.0,0.0,64.0
4953,71.0,240.0,180.0,0.0,64.0
4954,66.0,0.0,180.0,0.0,64.0
4955,54.0,0.0,180.0,0.0,64.0
4956,47.0,0.0,180.0,0.0,64.0
4957,59.0,0.0,180.0,0.0,64.0
4958,51.0,240.0,180.0,0.0,64.0
4959,75.0,0.0,180.0,0.0,64.0
4960,80.0,0.0,180.0,0.0,64.0
4961,83.0,240.0,180.0,0.0,64.0
4962,87.0,0.0,180.0,0.0,64.0
4963,56.0,0.0,180.0,0.0,64.0
4964,63.0,240.0,180.0,0.0,64.0
4965,59.0,0.0,180.0,0.0,64.0
4966,68.0,0.0,180.0,0.0,64.0
4967,71.0,0.0,180.0,0.0,64.0
4968,68.0,0.0,180.0,0.0,64.0
4969,75.0,240.0,180.0,0.0,64.0
4970,80.0,0.0,180.0,0.0,64.0
4971,56.0,0.0,180.0,0.0,64.0
4972,68.0,0.0,180.0,0.0,64.0
4973,63.0,0.0,180.0,0.0,64.0
4974,59.0,240.0,180.0,0.0,64.0
4975,87.0,0.0,180.0,0.0,64.0
4976,80.0,240.0,180.0,0.0,64.0
4977,83.0,0.0,180.0,0.0,64.0
4978,75.0,0.0,180.0,0.0,64.0
4979,56.0,0.0,180.0,0.0,64.0
4980,63.0,0.0,180.0,0.0,64.0
4981,68.0,240.0,180.0,0.0,64.0
4982,59.0,0.0,180.0,0.0,64.0
4983,83.0,0.0,180.0,0.0,64.0
4984,92.0,0.0,180.0,0.0,64.0
4985,87.0,240.0,180.0,0.0,64.0
4986,80.0,0.0,180.0,0.0,64.0
4987,59.0,0.0,180.0,0.0,64.0
4988,56.0,0.0,180.0,0.0,64.0
4989,68.0,0.0,180.0,0.0,64.0
4990,63.0,144.0,180.0,0.0,64.0
4991,91.0,96.0,90.0,0.0,64.0
4992,85.0,0.0,180.0,0.0,64.0
4993,82.0,24.0,180.0,0.0,64.0
4994,92.0,120.0,90.0,0.0,64.0
4995,91.0,96.0,90.0,0.0,64.0
4996,61.0,0.0,180.0,0.0,64.0
4997,51.0,0.0,180.0,0.0,64.0
4998,58.0,24.0,180.0,0.0,64.0
4999,63.0,0.0,180.0,0.0,64.0
5000,88.0,216.0,90.0,0.0,64.0
5001,82.0,0.0,180.0,0.0,64.0
5002,85.0,0.0,180.0,0.0,64.0
5003,87.0,240.0,180.0,0.0,64.0
5004,51.0,0.0,180.0,0.0,64.0
5005,58.0,144.0,180.0,0.0,64.0
5006,63.0,0.0,180.0,0.0,64.0
5007,61.0,0.0,180.0,0.0,64.0
5008,91.0,96.0,90.0,0.0,64.0
5009,78.0,0.0,180.0,0.0,64.0
5010,82.0,24.0,180.0,0.0,64.0
5011,92.0,120.0,90.0,0.0,64.0
5012,61.0,0.0,180.0,0.0,64.0
5013,91.0,96.0,90.0,0.0,64.0
5014,58.0,0.0,180.0,0.0,64.0
5015,51.0,24.0,180.0,0.0,64.0
5016,63.0,0.0,180.0,0.0,64.0
5017,88.0,216.0,90.0,0.0,64.0
5018,82.0,0.0,180.0,0.0,64.0
5019,78.0,0.0,180.0,0.0,64.0
5020,87.0,240.0,180.0,0.0,64.0
5021,51.0,0.0,180.0,0.0,64.0
5022,58.0,0.0,180.0,0.0,64.0
5023,63.0,0.0,180.0,0.0,64.0
5024,61.0,240.0,180.0,0.0,64.0
5025,75.0,240.0,180.0,0.0,64.0
5026,87.0,0.0,180.0,0.0,64.0
5027,83.0,0.0,180.0,0.0,64.0
5028,80.0,0.0,180.0,0.0,64.0
5029,51.0,0.0,180.0,0.0,64.0
5030,47.0,0.0,180.0,0.0,64.0
5031,44.0,240.0,180.0,0.0,64.0
5032,56.0,0.0,180.0,0.0,64.0
5033,71.0,0.0,180.0,0.0,64.0
5034,68.0,0.0,180.0,0.0,64.0
5035,75.0,240.0,180.0,0.0,64.0
5036,80.0,0.0,180.0,0.0,64.0
5037,44.0,0.0,180.0,0.0,64.0
5038,56.0,240.0,180.0,0.0,64.0
5039,51.0,0.0,180.0,0.0,64.0
5040,47.0,0.0,180.0,0.0,64.0
5041,83.0,0.0,180.0,0.0,64.0
5042,80.0,0.0,180.0,0.0,64.0
5043,75.0,240.0,180.0,0.0,64.0
5044,87.0,0.0,180.0,0.0,64.0
5045,44.0,0.0,180.0,0.0,64.0
5046,51.0,0.0,180.0,0.0,64.0
5047,47.0,0.0,180.0,0.0,64.0
5048,56.0,240.0,180.0,0.0,64.0
5049,92.0,0.0,180.0,0.0,64.0
5050,83.0,0.0,180.0,0.0,64.0
5051,80.0,240.0,180.0,0.0,64.0
5052,87.0,0.0,180.0,0.0,64.0
5053,47.0,0.0,180.0,0.0,64.0
5054,44.0,0.0,180.0,0.0,64.0
5055,56.0,0.0,180.0,0.0,64.0
5056,51.0,144.0,180.0,0.0,64.0
5057,89.0,120.0,90.0,0.0,64.0
5058,90.0,120.0,90.0,0.0,64.0
5059,53.0,24.0,180.0,0.0,64.0
5060,59.0,0.0,180.0,0.0,64.0
5061,49.0,0.0,180.0,0.0,64.0
5062,76.0,0.0,180.0,0.0,64.0
5063,56.0,0.0,180.0,0.0,64.0
5064,89.0,96.0,90.0,0.0,64.0
5065,87.0,120.0,90.0,0.0,64.0
5066,85.0,120.0,90.0,0.0,64.0
5067,76.0,48.0,390.0,0.0,64.0
5068,83.0,120.0,90.0,0.0,64.0
5069,59.0,24.0,180.0,0.0,64.0
5070,49.0,0.0,180.0,0.0,64.0
5071,56.0,0.0,180.0,0.0,64.0
5072,53.0,0.0,180.0,0.0,64.0
5073,82.0,48.0,90.0,0.0,64.0
5074,80.0,120.0,90.0,0.0,64.0
5075,78.0,120.0,90.0,0.0,64.0
5076,80.0,120.0,90.0,0.0,64.0
5077,58.0,24.0,180.0,0.0,64.0
5078,54.0,0.0,180.0,0.0,64.0
5079,78.0,96.0,90.0,0.0,64.0
5080,77.0,216.0,90.0,0.0,64.0
5081,78.0,240.0,180.0,0.0,64.0
5082,66.0,0.0,180.0,0.0,64.0
5083,58.0,0.0,180.0,0.0,64.0
5084,61.0,264.0,180.0,0.0,64.0
5085,54.0,0.0,180.0,0.0,64.0
5086,75.0,72.0,390.0,0.0,64.0
5087,66.0,120.0,90.0,0.0,64.0
5088,63.0,48.0,90.0,0.0,64.0
5089,59.0,120.0,90.0,0.0,64.0
5090,54.0,96.0,90.0,0.0,64.0
5091,78.0,0.0,180.0,0.0,64.0
5092,66.0,24.0,180.0,0.0,64.0
5093,63.0,120.0,90.0,0.0,64.0
5094,78.0,24.0,180.0,0.0,64.0
5095,59.0,96.0,90.0,0.0,64.0
5096,66.0,0.0,180.0,0.0,64.0
5097,54.0,120.0,90.0,0.0,64.0
5098,71.0,0.0,180.0,0.0,64.0
5099,51.0,96.0,90.0,0.0,64.0
5100,83.0,24.0,180.0,0.0,64.0
5101,59.0,120.0,90.0,0.0,64.0
5102,54.0,96.0,90.0,0.0,64.0
5103,71.0,24.0,180.0,0.0,64.0
5104,83.0,0.0,180.0,0.0,64.0
5105,51.0,120.0,90.0,0.0,64.0
5106,47.0,120.0,90.0,0.0,64.0
5107,75.0,72.0,390.0,0.0,64.0
5108,87.0,0.0,390.0,0.0,64.0
5109,54.0,120.0,90.0,0.0,64.0
5110,51.0,48.0,90.0,0.0,64.0
5111,47.0,120.0,90.0,0.0,64.0
5112,90.0,120.0,90.0,0.0,64.0
5113,42.0,0.0,90.0,0.0,64.0
5114,88.0,120.0,90.0,0.0,64.0
5115,46.0,0.0,90.0,0.0,64.0
5116,49.0,0.0,90.0,0.0,64.0
5117,90.0,120.0,90.0,0.0,64.0
5118,88.0,120.0,90.0,0.0,64.0
5119,54.0,0.0,90.0,0.0,64.0
5120,46.0,96.0,90.0,0.0,64.0
5121,85.0,24.0,180.0,0.0,64.0
5122,49.0,120.0,90.0,0.0,64.0
5123,54.0,120.0,90.0,0.0,64.0
5124,58.0,120.0,90.0,0.0,64.0
5125,90.0,0.0,90.0,0.0,64.0
5126,49.0,120.0,90.0,0.0,64.0
5127,88.0,120.0,90.0,0.0,64.0
5128,54.0,0.0,90.0,0.0,64.0
5129,90.0,120.0,90.0,0.0,64.0
5130,58.0,0.0,90.0,0.0,64.0
5131,88.0,0.0,90.0,0.0,64.0
5132,61.0,120.0,90.0,0.0,64.0
5133,54.0,96.0,90.0,0.0,64.0
5134,85.0,24.0,180.0,0.0,64.0
5135,58.0,120.0,90.0,0.0,64.0
5136,61.0,120.0,90.0,0.0,64.0
5137,64.0,240.0,90.0,0.0,64.0
5138,75.0,0.0,390.0,0.0,64.0
5139,66.0,120.0,90.0,0.0,64.0
5140,63.0,48.0,90.0,0.0,64.0
5141,59.0,120.0,90.0,0.0,64.0
5142,66.0,24.0,180.0,0.0,64.0
5143,54.0,96.0,90.0,0.0,64.0
5144,78.0,0.0,180.0,0.0,64.0
5145,63.0,120.0,90.0,0.0,64.0
5146,78.0,24.0,180.0,0.0,64.0
5147,59.0,96.0,90.0,0.0,64.0
5148,66.0,0.0,180.0,0.0,64.0
5149,54.0,120.0,90.0,0.0,64.0
5150,51.0,96.0,90.0,0.0,64.0
5151,71.0,0.0,180.0,0.0,64.0
5152,83.0,24.0,180.0,0.0,64.0
5153,59.0,120.0,90.0,0.0,64.0
5154,54.0,96.0,90.0,0.0,64.0
5155,71.0,0.0,180.0,0.0,64.0
5156,83.0,24.0,180.0,0.0,64.0
5157,51.0,120.0,90.0,0.0,64.0
5158,75.0,0.0,390.0,0.0,64.0
5159,87.0,72.0,390.0,0.0,64.0
5160,47.0,120.0,90.0,0.0,64.0
5161,54.0,120.0,90.0,0.0,64.0
5162,51.0,48.0,90.0,0.0,64.0
5163,47.0,120.0,90.0,0.0,64.0
5164,42.0,0.0,90.0,0.0,64.0
5165,90.0,120.0,90.0,0.0,64.0
5166,88.0,120.0,90.0,0.0,64.0
5167,46.0,0.0,90.0,0.0,64.0
5168,49.0,0.0,90.0,0.0,64.0
5169,90.0,120.0,90.0,0.0,64.0
5170,88.0,120.0,90.0,0.0,64.0
5171,54.0,0.0,90.0,0.0,64.0
5172,42.0,96.0,90.0,0.0,64.0
5173,85.0,24.0,180.0,0.0,64.0
5174,46.0,120.0,90.0,0.0,64.0
5175,85.0,0.0,90.0,0.0,64.0
5176,49.0,120.0,90.0,0.0,64.0
5177,54.0,408.0,90.0,0.0,64.0
5178,87.0,0.0,90.0,0.0,64.0
5179,47.0,0.0,390.0,0.0,64.0
5180,83.0,192.0,390.0,0.0,64.0
5181,71.0,120.0,90.0,0.0,64.0
5182,73.0,120.0,90.0,0.0,64.0
5183,75.0,120.0,90.0,0.0,64.0
5184,76.0,120.0,90.0,0.0,64.0
5185,78.0,120.0,90.0,0.0,64.0
5186,76.0,120.0,90.0,0.0,64.0
5187,75.0,120.0,90.0,0.0,64.0
5188,73.0,120.0,90.0,0.0,64.0
5189,71.0,120.0,90.0,0.0,64.0
5190,73.0,120.0,90.0,0.0,64.0
5191,75.0,120.0,90.0,0.0,64.0
5192,76.0,216.0,90.0,0.0,64.0
5193,78.0,240.0,180.0,0.0,64.0
5194,78.0,432.0,180.0,0.0,64.0
5195,83.0,192.0,390.0,0.0,64.0
5196,61.0,120.0,90.0,0.0,64.0
5197,83.0,72.0,390.0,0.0,64.0
5198,59.0,120.0,90.0,0.0,64.0
5199,58.0,48.0,90.0,0.0,64.0
5200,56.0,120.0,90.0,0.0,64.0
5201,54.0,96.0,90.0,0.0,64.0
5202,82.0,24.0,180.0,0.0,64.0
5203,56.0,120.0,90.0,0.0,64.0
5204,58.0,120.0,90.0,0.0,64.0
5205,59.0,216.0,90.0,0.0,64.0
5206,61.0,240.0,180.0,0.0,64.0
5207,61.0,0.0,180.0,0.0,64.0
5208,81.0,240.0,180.0,0.0,64.0
5209,66.0,48.0,390.0,0.0,64.0
5210,81.0,192.0,180.0,0.0,64.0
5211,81.0,144.0,180.0,0.0,64.0
5212,80.0,120.0,90.0,0.0,64.0
5213,66.0,72.0,390.0,0.0,64.0
5214,78.0,120.0,90.0,0.0,64.0
5215,76.0,48.0,90.0,0.0,64.0
5216,75.0,120.0,90.0,0.0,64.0
5217,64.0,24.0,180.0,0.0,64.0
5218,73.0,96.0,90.0,0.0,64.0
5219,75.0,120.0,90.0,0.0,64.0
5220,76.0,120.0,90.0,0.0,64.0
5221,78.0,216.0,90.0,0.0,64.0
5222,80.0,240.0,180.0,0.0,64.0
5223,80.0,240.0,180.0,0.0,64.0
5224,64.0,0.0,180.0,0.0,64.0
5225,85.0,48.0,390.0,0.0,64.0
5226,64.0,192.0,180.0,0.0,64.0
5227,64.0,144.0,180.0,0.0,64.0
5228,85.0,72.0,390.0,0.0,64.0
5229,63.0,120.0,90.0,0.0,64.0
5230,61.0,120.0,90.0,0.0,64.0
5231,59.0,48.0,90.0,0.0,64.0
5232,58.0,120.0,90.0,0.0,64.0
5233,56.0,96.0,90.0,0.0,64.0
5234,83.0,24.0,180.0,0.0,64.0
5235,58.0,120.0,90.0,0.0,64.0
5236,59.0,120.0,90.0,0.0,64.0
5237,61.0,216.0,90.0,0.0,64.0
5238,63.0,240.0,180.0,0.0,64.0
5239,63.0,240.0,180.0,0.0,64.0
5240,83.0,0.0,180.0,0.0,64.0
5241,83.0,192.0,180.0,0.0,64.0
5242,68.0,48.0,390.0,0.0,64.0
5243,83.0,144.0,180.0,0.0,64.0
5244,82.0,120.0,90.0,0.0,64.0
5245,68.0,6.0,450.0,0.0,64.0
5246,80.0,120.0,90.0,0.0,64.0
5247,79.0,114.0,90.0,0.0,64.0
5248,77.0,120.0,90.0,0.0,64.0
5249,67.0,24.0,180.0,0.0,64.0
5250,75.0,96.0,90.0,0.0,64.0
5251,77.0,120.0,90.0,0.0,64.0
5252,79.0,120.0,90.0,0.0,64.0
5253,80.0,216.0,90.0,0.0,64.0
5254,75.0,96.0,780.0,0.0,64.0
5255,67.0,0.0,780.0,0.0,64.0
5256,70.0,0.0,780.0,0.0,64.0
5257,82.0,240.0,180.0,0.0,64.0
5258,82.0,336.0,180.0,0.0,64.0
5259,87.0,288.0,390.0,0.0,64.0
5260,75.0,0.0,780.0,0.0,64.0
5261,66.0,0.0,780.0,0.0,64.0
5262,68.0,0.0,780.0,0.0,64.0
5263,84.0,240.0,180.0,0.0,64.0
5264,80.0,96.0,780.0,0.0,64.0
5265,84.0,336.0,180.0,0.0,64.0
5266,92.0,288.0,390.0,0.0,64.0
5267,65.0,0.0,780.0,0.0,64.0
5268,80.0,240.0,180.0,0.0,64.0
5269,73.0,96.0,780.0,0.0,64.0
5270,71.0,0.0,780.0,0.0,64.0
5271,80.0,336.0,180.0,0.0,64.0
5272,85.0,288.0,390.0,0.0,64.0
5273,78.0,0.0,780.0,0.0,64.0
5274,82.0,240.0,180.0,0.0,64.0
5275,66.0,96.0,780.0,0.0,64.0
5276,73.0,0.0,780.0,0.0,64.0
5277,64.0,0.0,780.0,0.0,64.0
5278,82.0,336.0,180.0,0.0,64.0
5279,90.0,288.0,390.0,0.0,64.0
5280,71.0,0.0,780.0,0.0,64.0
5281,63.0,0.0,780.0,0.0,64.0
5282,66.0,96.0,780.0,0.0,64.0
5283,78.0,240.0,180.0,0.0,64.0
5284,78.0,336.0,180.0,0.0,64.0
5285,83.0,288.0,390.0,0.0,64.0
5286,64.0,0.0,780.0,0.0,64.0
5287,52.0,0.0,780.0,0.0,64.0
5288,59.0,0.0,780.0,0.0,64.0
5289,80.0,240.0,180.0,0.0,64.0
5290,76.0,96.0,780.0,0.0,64.0
5291,80.0,336.0,180.0,0.0,64.0
5292,88.0,288.0,390.0,0.0,64.0
5293,63.0,0.0,780.0,0.0,64.0
5294,54.0,0.0,780.0,0.0,64.0
5295,59.0,0.0,780.0,0.0,64.0
5296,78.0,240.0,180.0,0.0,64.0
5297,75.0,96.0,780.0,0.0,64.0
5298,78.0,336.0,180.0,0.0,64.0
5299,87.0,288.0,390.0,0.0,64.0
5300,73.0,96.0,780.0,0.0,64.0
5301,76.0,240.0,180.0,0.0,64.0
5302,59.0,0.0,780.0,0.0,64.0
5303,56.0,0.0,780.0,0.0,64.0
5304,64.0,0.0,780.0,0.0,64.0
5305,76.0,336.0,180.0,0.0,64.0
5306,85.0,288.0,390.0,0.0,64.0
5307,55.0,0.0,780.0,0.0,64.0
5308,65.0,0.0,780.0,0.0,64.0
5309,59.0,0.0,780.0,0.0,64.0
5310,77.0,240.0,180.0,0.0,64.0
5311,73.0,96.0,780.0,0.0,64.0
5312,77.0,336.0,180.0,0.0,64.0
5313,85.0,288.0,390.0,0.0,64.0
5314,87.0,0.0,180.0,0.0,64.0
5315,78.0,0.0,180.0,0.0,64.0
5316,54.0,0.0,180.0,0.0,64.0
5317,75.0,0.0,180.0,0.0,64.0
5318,59.0,0.0,180.0,0.0,64.0
5319,66.0,240.0,180.0,0.0,64.0
5320,63.0,0.0,180.0,0.0,64.0
5321,66.0,240.0,180.0,0.0,64.0
5322,71.0,240.0,180.0,0.0,64.0
5323,71.0,240.0,180.0,0.0,64.0
5324,75.0,240.0,180.0,0.0,64.0
5325,75.0,432.0,180.0,0.0,64.0
5326,78.0,192.0,390.0,0.0,64.0
5327,78.0,120.0,90.0,0.0,64.0
5328,54.0,72.0,390.0,0.0,64.0
5329,76.0,120.0,90.0,0.0,64.0
5330,78.0,48.0,90.0,0.0,64.0
5331,76.0,216.0,90.0,0.0,64.0
5332,58.0,240.0,180.0,0.0,64.0
5333,73.0,0.0,180.0,0.0,64.0
5334,58.0,144.0,180.0,0.0,64.0
5335,61.0,24.0,180.0,0.0,64.0
5336,78.0,96.0,90.0,0.0,64.0
5337,76.0,120.0,90.0,0.0,64.0
5338,61.0,24.0,180.0,0.0,64.0
5339,78.0,96.0,90.0,0.0,64.0
5340,76.0,216.0,90.0,0.0,64.0
5341,64.0,240.0,180.0,0.0,64.0
5342,73.0,0.0,180.0,0.0,64.0
5343,64.0,144.0,180.0,0.0,64.0
5344,71.0,72.0,390.0,0.0,64.0
5345,64.0,120.0,90.0,0.0,64.0
5346,63.0,120.0,90.0,0.0,64.0
5347,64.0,48.0,90.0,0.0,64.0
5348,63.0,216.0,90.0,0.0,64.0
5349,59.0,48.0,390.0,0.0,64.0
5350,75.0,192.0,180.0,0.0,64.0
5351,75.0,144.0,180.0,0.0,64.0
5352,64.0,96.0,90.0,0.0,64.0
5353,78.0,24.0,180.0,0.0,64.0
5354,63.0,120.0,90.0,0.0,64.0
5355,64.0,96.0,90.0,0.0,64.0
5356,78.0,24.0,180.0,0.0,64.0
5357,63.0,216.0,90.0,0.0,64.0
5358,59.0,48.0,390.0,0.0,64.0
5359,83.0,192.0,180.0,0.0,64.0
5360,83.0,144.0,180.0,0.0,64.0
5361,66.0,72.0,390.0,0.0,64.0
5362,83.0,120.0,90.0,0.0,64.0
5363,82.0,120.0,90.0,0.0,64.0
5364,83.0,48.0,90.0,0.0,64.0
5365,82.0,216.0,90.0,0.0,64.0
5366,78.0,48.0,390.0,0.0,64.0
5367,70.0,192.0,180.0,0.0,64.0
5368,70.0,144.0,180.0,0.0,64.0
5369,73.0,24.0,180.0,0.0,64.0
5370,83.0,96.0,90.0,0.0,64.0
5371,82.0,120.0,90.0,0.0,64.0
5372,83.0,96.0,90.0,0.0,64.0
5373,73.0,24.0,180.0,0.0,64.0
5374,82.0,216.0,90.0,0.0,64.0
5375,76.0,192.0,180.0,0.0,64.0
5376,78.0,48.0,390.0,0.0,64.0
5377,76.0,144.0,180.0,0.0,64.0
5378,78.0,72.0,390.0,0.0,64.0
5379,76.0,120.0,90.0,0.0,64.0
5380,75.0,120.0,90.0,0.0,64.0
5381,76.0,48.0,90.0,0.0,64.0
5382,75.0,216.0,90.0,0.0,64.0
5383,78.0,0.0,180.0,0.0,64.0
5384,71.0,48.0,390.0,0.0,64.0
5385,83.0,192.0,180.0,0.0,64.0
5386,83.0,0.0,180.0,0.0,64.0
5387,78.0,144.0,180.0,0.0,64.0
5388,87.0,0.0,180.0,0.0,64.0
5389,83.0,24.0,180.0,0.0,64.0
5390,76.0,96.0,90.0,0.0,64.0
5391,75.0,120.0,90.0,0.0,64.0
5392,83.0,0.0,180.0,0.0,64.0
5393,87.0,24.0,180.0,0.0,64.0
5394,76.0,96.0,90.0,0.0,64.0
5395,75.0,408.0,90.0,0.0,64.0
5396,71.0,192.0,390.0,0.0,64.0
5397,87.0,0.0,390.0,0.0,64.0
5398,90.0,0.0,390.0,0.0,64.0
5399,90.0,120.0,90.0,0.0,64.0
5400,66.0,72.0,390.0,0.0,64.0
5401,88.0,120.0,90.0,0.0,64.0
5402,90.0,48.0,90.0,0.0,64.0
5403,88.0,120.0,90.0,0.0,64.0
5404,79.0,96.0,90.0,0.0,64.0
5405,85.0,0.0,390.0,0.0,64.0
5406,82.0,48.0,390.0,0.0,64.0
5407,70.0,24.0,180.0,0.0,64.0
5408,78.0,120.0,90.0,0.0,64.0
5409,70.0,24.0,180.0,0.0,64.0
5410,79.0,48.0,90.0,0.0,64.0
5411,78.0,120.0,90.0,0.0,64.0
5412,73.0,24.0,180.0,0.0,64.0
5413,90.0,96.0,90.0,0.0,64.0
5414,88.0,120.0,90.0,0.0,64.0
5415,90.0,96.0,90.0,0.0,64.0
5416,73.0,24.0,180.0,0.0,64.0
5417,88.0,120.0,90.0,0.0,64.0
5418,76.0,72.0,390.0,0.0,64.0
5419,82.0,0.0,390.0,0.0,64.0
5420,85.0,0.0,390.0,0.0,64.0
5421,79.0,120.0,90.0,0.0,64.0
5422,78.0,120.0,90.0,0.0,64.0
5423,79.0,48.0,90.0,0.0,64.0
5424,78.0,120.0,90.0,0.0,64.0
5425,83.0,72.0,390.0,0.0,64.0
5426,87.0,0.0,390.0,0.0,64.0
5427,80.0,120.0,90.0,0.0,64.0
5428,59.0,48.0,780.0,0.0,64.0
5429,78.0,120.0,90.0,0.0,64.0
5430,80.0,48.0,90.0,0.0,64.0
5431,78.0,120.0,90.0,0.0,64.0
5432,70.0,120.0,90.0,0.0,64.0
5433,71.0,72.0,90.0,0.0,64.0
5434,70.0,120.0,90.0,0.0,64.0
5435,71.0,120.0,90.0,0.0,64.0
5436,88.0,72.0,390.0,0.0,64.0
5437,85.0,0.0,390.0,0.0,64.0
5438,79.0,120.0,90.0,0.0,64.0
5439,59.0,48.0,780.0,0.0,64.0
5440,78.0,120.0,90.0,0.0,64.0
5441,79.0,48.0,90.0,0.0,64.0
5442,78.0,120.0,90.0,0.0,64.0
5443,71.0,120.0,90.0,0.0,64.0
5444,70.0,72.0,90.0,0.0,64.0
5445,71.0,120.0,90.0,0.0,64.0
5446,70.0,120.0,90.0,0.0,64.0
5447,75.0,72.0,390.0,0.0,64.0
5448,71.0,0.0,390.0,0.0,64.0
5449,68.0,120.0,90.0,0.0,64.0
5450,47.0,48.0,780.0,0.0,64.0
5451,66.0,120.0,90.0,0.0,64.0
5452,68.0,48.0,90.0,0.0,64.0
5453,66.0,120.0,90.0,0.0,64.0
5454,58.0,120.0,90.0,0.0,64.0
5455,59.0,72.0,90.0,0.0,64.0
5456,58.0,120.0,90.0,0.0,64.0
5457,59.0,120.0,90.0,0.0,64.0
5458,76.0,72.0,390.0,0.0,64.0
5459,73.0,0.0,390.0,0.0,64.0
5460,67.0,120.0,90.0,0.0,64.0
5461,47.0,48.0,780.0,0.0,64.0
5462,66.0,120.0,90.0,0.0,64.0
5463,67.0,48.0,90.0,0.0,64.0
5464,66.0,120.0,90.0,0.0,64.0
5465,59.0,120.0,90.0,0.0,64.0
5466,58.0,72.0,90.0,0.0,64.0
5467,59.0,120.0,90.0,0.0,64.0
5468,58.0,120.0,90.0,0.0,64.0
5469,63.0,72.0,390.0,0.0,64.0
5470,59.0,0.0,390.0,0.0,64.0
5471,56.0,120.0,90.0,0.0,64.0
5472,35.0,48.0,780.0,0.0,64.0
5473,54.0,120.0,90.0,0.0,64.0
5474,56.0,48.0,90.0,0.0,64.0
5475,54.0,120.0,90.0,0.0,64.0
5476,46.0,120.0,90.0,0.0,64.0
5477,47.0,72.0,90.0,0.0,64.0
5478,46.0,120.0,90.0,0.0,64.0
5479,47.0,120.0,90.0,0.0,64.0
5480,61.0,72.0,390.0,0.0,64.0
5481,64.0,0.0,390.0,0.0,64.0
5482,55.0,120.0,90.0,0.0,64.0
5483,35.0,48.0,780.0,0.0,64.0
5484,54.0,120.0,90.0,0.0,64.0
5485,55.0,48.0,90.0,0.0,64.0
5486,54.0,120.0,90.0,0.0,64.0
5487,47.0,120.0,90.0,0.0,64.0
5488,46.0,72.0,90.0,0.0,64.0
5489,47.0,120.0,90.0,0.0,64.0
5490,46.0,120.0,90.0,0.0,64.0
5491,59.0,72.0,390.0,0.0,64.0
5492,63.0,0.0,390.0,0.0,64.0
5493,56.0,120.0,90.0,0.0,64.0
5494,35.0,48.0,780.0,0.0,64.0
5495,54.0,120.0,90.0,0.0,64.0
5496,56.0,48.0,90.0,0.0,64.0
5497,54.0,120.0,90.0,0.0,64.0
5498,46.0,120.0,90.0,0.0,64.0
5499,47.0,72.0,90.0,0.0,64.0
5500,46.0,120.0,90.0,0.0,64.0
5501,47.0,120.0,90.0,0.0,64.0
5502,61.0,72.0,390.0,0.0,64.0
5503,64.0,0.0,390.0,0.0,64.0
5504,55.0,120.0,90.0,0.0,64.0
5505,35.0,48.0,780.0,0.0,64.0
5506,54.0,120.0,90.0,0.0,64.0
5507,55.0,48.0,90.0,0.0,64.0
5508,54.0,120.0,90.0,0.0,64.0
5509,46.0,120.0,90.0,0.0,64.0
5510,47.0,72.0,90.0,0.0,64.0
5511,46.0,120.0,90.0,0.0,64.0
5512,47.0,120.0,90.0,0.0,64.0
5513,56.0,120.0,90.0,0.0,64.0
5514,35.0,48.0,780.0,0.0,64.0
5515,63.0,72.0,390.0,0.0,64.0
5516,59.0,0.0,390.0,0.0,64.0
5517,54.0,120.0,90.0,0.0,64.0
5518,56.0,48.0,90.0,0.0,64.0
5519,54.0,120.0,90.0,0.0,64.0
5520,46.0,120.0,90.0,0.0,64.0
5521,47.0,72.0,90.0,0.0,64.0
5522,46.0,120.0,90.0,0.0,64.0
5523,47.0,120.0,90.0,0.0,64.0
5524,70.0,120.0,90.0,0.0,64.0
5525,35.0,48.0,780.0,0.0,64.0
5526,71.0,120.0,90.0,0.0,64.0
5527,70.0,120.0,90.0,0.0,64.0
5528,71.0,120.0,90.0,0.0,64.0
5529,46.0,120.0,90.0,0.0,64.0
5530,47.0,72.0,90.0,0.0,64.0
5531,46.0,120.0,90.0,0.0,64.0
5532,47.0,120.0,90.0,0.0,64.0
5533,59.0,72.0,390.0,0.0,64.0
5534,63.0,0.0,390.0,0.0,64.0
5535,56.0,120.0,90.0,0.0,64.0
5536,35.0,48.0,780.0,0.0,64.0
5537,54.0,120.0,90.0,0.0,64.0
5538,56.0,48.0,90.0,0.0,64.0
5539,54.0,120.0,90.0,0.0,64.0
5540,46.0,120.0,90.0,0.0,64.0
5541,47.0,72.0,90.0,0.0,64.0
5542,46.0,120.0,90.0,0.0,64.0
5543,47.0,120.0,90.0,0.0,64.0
5544,77.0,120.0,90.0,0.0,64.0
5545,35.0,48.0,780.0,0.0,64.0
5546,78.0,120.0,90.0,0.0,64.0
5547,77.0,120.0,90.0,0.0,64.0
5548,78.0,120.0,90.0,0.0,64.0
5549,46.0,120.0,90.0,0.0,64.0
5550,47.0,72.0,90.0,0.0,64.0
5551,46.0,120.0,90.0,0.0,64.0
5552,47.0,120.0,90.0,0.0,64.0
5553,63.0,0.0,390.0,0.0,64.0
5554,59.0,72.0,390.0,0.0,64.0
5555,56.0,120.0,90.0,0.0,64.0
5556,35.0,48.0,780.0,0.0,64.0
5557,54.0,120.0,90.0,0.0,64.0
5558,56.0,48.0,90.0,0.0,64.0
5559,54.0,120.0,90.0,0.0,64.0
5560,46.0,120.0,90.0,0.0,64.0
5561,47.0,72.0,90.0,0.0,64.0
5562,46.0,120.0,90.0,0.0,64.0
5563,47.0,120.0,90.0,0.0,64.0
5564,82.0,120.0,90.0,0.0,64.0
5565,76.0,72.0,390.0,0.0,64.0
5566,35.0,48.0,780.0,0.0,64.0
5567,83.0,120.0,90.0,0.0,64.0
5568,82.0,48.0,90.0,0.0,64.0
5569,83.0,120.0,90.0,0.0,64.0
5570,46.0,120.0,90.0,0.0,64.0
5571,47.0,72.0,90.0,0.0,64.0
5572,46.0,120.0,90.0,0.0,64.0
5573,47.0,408.0,90.0,0.0,64.0
5574,35.0,960.0,390.0,0.0,64.0
5575,75.0,960.0,390.0,0.0,64.0
5576,78.0,0.0,390.0,0.0,64.0
5577,83.0,0.0,390.0,0.0,64.0
5578,71.0,0.0,390.0,0.0,64.0
5579,59.0,0.0,390.0,0.0,64.0
5580,51.0,0.0,390.0,0.0,64.0
5581,47.0,0.0,390.0,0.0,64.0
5582,54.0,0.0,390.0,0.0,64.0
5583,63.0,0.0,390.0,0.0,64.0
5584,59.0,0.0,390.0,0.0,64.0
5585,71.0,0.0,390.0,0.0,64.0
5586,66.0,0.0,390.0,0.0,64.0
5587,42.0,0.0,390.0,0.0,64.0
5588,35.0,0.0,390.0,0.0,64.0
5589,47.0,0.0,390.0,0.0,64.0
5590,39.0,0.0,390.0,0.0,64.0
