,note,step,duration,channel,velocity
0,49.0,30.0,30.0,1.0,0.0
1,53.0,30.0,30.0,1.0,0.0
2,56.0,30.0,30.0,1.0,0.0
3,53.0,6.0,30.0,1.0,0.0
4,49.0,30.0,30.0,1.0,0.0
5,73.0,24.0,15.0,0.0,0.0
6,53.0,30.0,30.0,1.0,0.0
7,56.0,30.0,30.0,1.0,0.0
8,73.0,30.0,60.0,0.0,0.0
9,53.0,0.0,30.0,1.0,0.0
10,49.0,28.0,120.0,1.0,0.0
11,73.0,30.0,30.0,0.0,0.0
12,72.0,30.0,30.0,0.0,0.0
13,70.0,30.0,30.0,0.0,0.0
14,68.0,2.0,30.0,0.0,0.0
15,66.0,30.0,30.0,0.0,0.0
16,65.0,30.0,30.0,0.0,0.0
17,63.0,30.0,30.0,0.0,0.0
18,61.0,30.0,30.0,0.0,0.0
19,60.0,30.0,60.0,0.0,0.0
20,54.0,30.0,30.0,1.0,0.0
21,56.0,0.0,30.0,1.0,0.0
22,53.0,30.0,30.0,1.0,0.0
23,61.0,30.0,60.0,0.0,0.0
24,56.0,0.0,30.0,1.0,0.0
25,63.0,0.0,60.0,0.0,0.0
26,51.0,30.0,30.0,1.0,0.0
27,56.0,30.0,30.0,1.0,0.0
28,65.0,125.0,60.0,0.0,0.0
29,49.0,30.0,30.0,1.0,0.0
30,56.0,0.0,30.0,1.0,0.0
31,68.0,56.0,120.0,0.0,0.0
32,48.0,3.0,180.0,1.0,0.0
33,66.0,86.0,60.0,0.0,0.0
34,48.0,30.0,30.0,1.0,0.0
35,54.0,30.0,30.0,1.0,0.0
36,56.0,30.0,30.0,1.0,0.0
37,53.0,4.0,30.0,1.0,0.0
38,48.0,30.0,30.0,1.0,0.0
39,75.0,26.0,15.0,0.0,0.0
40,54.0,30.0,30.0,1.0,0.0
41,75.0,30.0,60.0,0.0,0.0
42,56.0,30.0,30.0,1.0,0.0
43,54.0,0.0,30.0,1.0,0.0
44,75.0,30.0,30.0,0.0,0.0
45,48.0,25.0,120.0,1.0,0.0
46,73.0,30.0,30.0,0.0,0.0
47,72.0,30.0,30.0,0.0,0.0
48,70.0,5.0,30.0,0.0,0.0
49,68.0,30.0,30.0,0.0,0.0
50,66.0,30.0,30.0,0.0,0.0
51,65.0,30.0,30.0,0.0,0.0
52,63.0,30.0,30.0,0.0,0.0
53,61.0,30.0,60.0,0.0,0.0
54,53.0,30.0,30.0,1.0,0.0
55,56.0,0.0,30.0,1.0,0.0
56,51.0,30.0,30.0,1.0,0.0
57,60.0,0.0,60.0,0.0,0.0
58,56.0,30.0,30.0,1.0,0.0
59,53.0,30.0,30.0,1.0,0.0
60,61.0,0.0,60.0,0.0,0.0
61,56.0,30.0,30.0,1.0,0.0
62,63.0,0.0,60.0,0.0,0.0
63,48.0,30.0,30.0,1.0,0.0
64,56.0,114.0,30.0,1.0,0.0
65,65.0,36.0,120.0,0.0,0.0
66,49.0,0.0,120.0,1.0,0.0
67,68.0,30.0,30.0,0.0,0.0
68,65.0,30.0,30.0,0.0,0.0
69,68.0,30.0,30.0,0.0,0.0
70,65.0,30.0,30.0,0.0,0.0
71,61.0,30.0,60.0,0.0,0.0
72,53.0,30.0,30.0,1.0,0.0
73,56.0,0.0,30.0,1.0,0.0
74,53.0,30.0,30.0,1.0,0.0
75,56.0,1.0,30.0,1.0,0.0
76,65.0,29.0,15.0,0.0,0.0
77,54.0,30.0,30.0,1.0,0.0
78,63.0,29.0,60.0,0.0,0.0
79,56.0,1.0,30.0,1.0,0.0
80,53.0,30.0,30.0,1.0,0.0
81,61.0,1.0,60.0,0.0,0.0
82,56.0,0.0,30.0,1.0,0.0
83,65.0,29.0,15.0,0.0,0.0
84,63.0,29.0,60.0,0.0,0.0
85,54.0,30.0,30.0,1.0,0.0
86,56.0,1.0,30.0,1.0,0.0
87,53.0,30.0,30.0,1.0,0.0
88,61.0,0.0,60.0,0.0,0.0
89,56.0,30.0,30.0,1.0,0.0
90,73.0,30.0,30.0,0.0,0.0
91,68.0,30.0,30.0,0.0,0.0
92,73.0,30.0,30.0,0.0,0.0
93,68.0,30.0,30.0,0.0,0.0
94,49.0,30.0,30.0,1.0,0.0
95,65.0,0.0,60.0,0.0,0.0
96,56.0,30.0,30.0,1.0,0.0
97,49.0,30.0,30.0,1.0,0.0
98,56.0,1.0,30.0,1.0,0.0
99,68.0,29.0,15.0,0.0,0.0
100,66.0,29.0,60.0,0.0,0.0
101,51.0,30.0,30.0,1.0,0.0
102,56.0,1.0,30.0,1.0,0.0
103,49.0,30.0,30.0,1.0,0.0
104,65.0,0.0,60.0,0.0,0.0
105,56.0,1.0,30.0,1.0,0.0
106,68.0,29.0,15.0,0.0,0.0
107,51.0,30.0,30.0,1.0,0.0
108,66.0,29.0,60.0,0.0,0.0
109,56.0,1.0,30.0,1.0,0.0
110,65.0,30.0,60.0,0.0,0.0
111,49.0,30.0,30.0,1.0,0.0
112,56.0,0.0,30.0,1.0,0.0
113,77.0,30.0,30.0,0.0,0.0
114,73.0,30.0,30.0,0.0,0.0
115,77.0,30.0,30.0,0.0,0.0
116,73.0,60.0,30.0,0.0,0.0
117,49.0,2.0,240.0,1.0,0.0
118,55.0,0.0,240.0,1.0,0.0
119,70.0,60.0,60.0,0.0,0.0
120,70.0,30.0,60.0,0.0,0.0
121,69.0,30.0,30.0,0.0,0.0
122,70.0,30.0,30.0,0.0,0.0
123,72.0,28.0,30.0,0.0,0.0
124,73.0,60.0,30.0,0.0,0.0
125,75.0,60.0,60.0,0.0,0.0
126,56.0,2.0,240.0,1.0,0.0
127,48.0,0.0,240.0,1.0,0.0
128,75.0,30.0,60.0,0.0,0.0
129,77.0,30.0,30.0,0.0,0.0
130,75.0,30.0,30.0,0.0,0.0
131,73.0,28.0,30.0,0.0,0.0
132,72.0,30.0,30.0,0.0,0.0
133,49.0,0.0,240.0,1.0,0.0
134,55.0,2.0,240.0,1.0,0.0
135,69.0,30.0,30.0,0.0,0.0
136,70.0,30.0,30.0,0.0,0.0
137,69.0,30.0,30.0,0.0,0.0
138,70.0,30.0,30.0,0.0,0.0
139,69.0,30.0,30.0,0.0,0.0
140,70.0,30.0,30.0,0.0,0.0
141,72.0,28.0,30.0,0.0,0.0
142,73.0,30.0,30.0,0.0,0.0
143,56.0,0.0,240.0,1.0,0.0
144,48.0,2.0,240.0,1.0,0.0
145,77.0,30.0,30.0,0.0,0.0
146,75.0,30.0,30.0,0.0,0.0
147,77.0,30.0,30.0,0.0,0.0
148,75.0,30.0,30.0,0.0,0.0
149,77.0,30.0,30.0,0.0,0.0
150,75.0,30.0,30.0,0.0,0.0
151,73.0,28.0,30.0,0.0,0.0
152,72.0,60.0,30.0,0.0,0.0
153,70.0,30.0,60.0,0.0,0.0
154,72.0,30.0,30.0,0.0,0.0
155,49.0,0.0,60.0,1.0,0.0
156,73.0,60.0,30.0,0.0,0.0
157,68.0,60.0,60.0,0.0,0.0
158,51.0,0.0,60.0,1.0,0.0
159,67.0,0.0,60.0,0.0,0.0
160,39.0,60.0,60.0,1.0,0.0
161,68.0,30.0,60.0,0.0,0.0
162,44.0,29.0,120.0,1.0,0.0
163,67.0,30.0,30.0,0.0,0.0
164,68.0,1.0,30.0,0.0,0.0
165,69.0,30.0,30.0,0.0,0.0
166,70.0,30.0,30.0,0.0,0.0
167,71.0,30.0,30.0,0.0,0.0
168,72.0,30.0,30.0,0.0,0.0
169,49.0,30.0,30.0,1.0,0.0
170,53.0,30.0,30.0,1.0,0.0
171,56.0,30.0,30.0,1.0,0.0
172,53.0,6.0,30.0,1.0,0.0
173,73.0,24.0,15.0,0.0,0.0
174,49.0,30.0,30.0,1.0,0.0
175,53.0,30.0,30.0,1.0,0.0
176,73.0,30.0,60.0,0.0,0.0
177,56.0,30.0,30.0,1.0,0.0
178,53.0,0.0,30.0,1.0,0.0
179,49.0,28.0,120.0,1.0,0.0
180,73.0,30.0,30.0,0.0,0.0
181,72.0,30.0,30.0,0.0,0.0
182,70.0,30.0,30.0,0.0,0.0
183,68.0,2.0,30.0,0.0,0.0
184,66.0,30.0,30.0,0.0,0.0
185,65.0,30.0,30.0,0.0,0.0
186,63.0,30.0,30.0,0.0,0.0
187,61.0,30.0,30.0,0.0,0.0
188,54.0,30.0,30.0,1.0,0.0
189,60.0,30.0,60.0,0.0,0.0
190,56.0,0.0,30.0,1.0,0.0
191,53.0,30.0,30.0,1.0,0.0
192,61.0,0.0,60.0,0.0,0.0
193,56.0,30.0,30.0,1.0,0.0
194,51.0,30.0,30.0,1.0,0.0
195,63.0,0.0,60.0,0.0,0.0
196,56.0,30.0,30.0,1.0,0.0
197,65.0,125.0,60.0,0.0,0.0
198,49.0,30.0,30.0,1.0,0.0
199,56.0,0.0,30.0,1.0,0.0
200,48.0,3.0,180.0,1.0,0.0
201,68.0,56.0,120.0,0.0,0.0
202,66.0,86.0,60.0,0.0,0.0
203,48.0,30.0,30.0,1.0,0.0
204,54.0,30.0,30.0,1.0,0.0
205,56.0,30.0,30.0,1.0,0.0
206,53.0,4.0,30.0,1.0,0.0
207,75.0,26.0,15.0,0.0,0.0
208,48.0,30.0,30.0,1.0,0.0
209,54.0,30.0,30.0,1.0,0.0
210,56.0,30.0,30.0,1.0,0.0
211,75.0,0.0,60.0,0.0,0.0
212,54.0,30.0,30.0,1.0,0.0
213,48.0,25.0,120.0,1.0,0.0
214,75.0,30.0,30.0,0.0,0.0
215,73.0,30.0,30.0,0.0,0.0
216,72.0,30.0,30.0,0.0,0.0
217,70.0,5.0,30.0,0.0,0.0
218,68.0,30.0,30.0,0.0,0.0
219,66.0,30.0,30.0,0.0,0.0
220,65.0,30.0,30.0,0.0,0.0
221,63.0,30.0,30.0,0.0,0.0
222,53.0,30.0,30.0,1.0,0.0
223,61.0,0.0,60.0,0.0,0.0
224,56.0,30.0,30.0,1.0,0.0
225,51.0,30.0,30.0,1.0,0.0
226,60.0,0.0,60.0,0.0,0.0
227,56.0,30.0,30.0,1.0,0.0
228,53.0,30.0,30.0,1.0,0.0
229,61.0,30.0,60.0,0.0,0.0
230,56.0,0.0,30.0,1.0,0.0
231,48.0,30.0,30.0,1.0,0.0
232,63.0,0.0,60.0,0.0,0.0
233,56.0,114.0,30.0,1.0,0.0
234,49.0,0.0,120.0,1.0,0.0
235,65.0,36.0,120.0,0.0,0.0
236,68.0,30.0,30.0,0.0,0.0
237,65.0,30.0,30.0,0.0,0.0
238,68.0,30.0,30.0,0.0,0.0
239,65.0,30.0,30.0,0.0,0.0
240,53.0,30.0,30.0,1.0,0.0
241,61.0,30.0,60.0,0.0,0.0
242,56.0,0.0,30.0,1.0,0.0
243,53.0,30.0,30.0,1.0,0.0
244,56.0,1.0,30.0,1.0,0.0
245,65.0,29.0,15.0,0.0,0.0
246,63.0,29.0,60.0,0.0,0.0
247,54.0,30.0,30.0,1.0,0.0
248,56.0,1.0,30.0,1.0,0.0
249,61.0,0.0,60.0,0.0,0.0
250,53.0,30.0,30.0,1.0,0.0
251,56.0,1.0,30.0,1.0,0.0
252,65.0,29.0,15.0,0.0,0.0
253,54.0,30.0,30.0,1.0,0.0
254,63.0,29.0,60.0,0.0,0.0
255,56.0,1.0,30.0,1.0,0.0
256,61.0,0.0,60.0,0.0,0.0
257,53.0,30.0,30.0,1.0,0.0
258,56.0,30.0,30.0,1.0,0.0
259,73.0,30.0,30.0,0.0,0.0
260,68.0,30.0,30.0,0.0,0.0
261,73.0,30.0,30.0,0.0,0.0
262,68.0,30.0,30.0,0.0,0.0
263,65.0,0.0,60.0,0.0,0.0
264,49.0,30.0,30.0,1.0,0.0
265,56.0,30.0,30.0,1.0,0.0
266,49.0,30.0,30.0,1.0,0.0
267,56.0,1.0,30.0,1.0,0.0
268,68.0,29.0,15.0,0.0,0.0
269,51.0,30.0,30.0,1.0,0.0
270,66.0,29.0,60.0,0.0,0.0
271,56.0,1.0,30.0,1.0,0.0
272,65.0,1.0,60.0,0.0,0.0
273,49.0,30.0,30.0,1.0,0.0
274,56.0,0.0,30.0,1.0,0.0
275,68.0,29.0,15.0,0.0,0.0
276,66.0,29.0,60.0,0.0,0.0
277,51.0,30.0,30.0,1.0,0.0
278,56.0,1.0,30.0,1.0,0.0
279,65.0,0.0,60.0,0.0,0.0
280,49.0,30.0,30.0,1.0,0.0
281,56.0,30.0,30.0,1.0,0.0
282,77.0,30.0,30.0,0.0,0.0
283,73.0,30.0,30.0,0.0,0.0
284,77.0,30.0,30.0,0.0,0.0
285,73.0,60.0,30.0,0.0,0.0
286,55.0,0.0,240.0,1.0,0.0
287,49.0,2.0,240.0,1.0,0.0
288,70.0,60.0,60.0,0.0,0.0
289,70.0,30.0,60.0,0.0,0.0
290,69.0,30.0,30.0,0.0,0.0
291,70.0,30.0,30.0,0.0,0.0
292,72.0,28.0,30.0,0.0,0.0
293,73.0,60.0,30.0,0.0,0.0
294,75.0,60.0,60.0,0.0,0.0
295,56.0,2.0,240.0,1.0,0.0
296,48.0,0.0,240.0,1.0,0.0
297,75.0,30.0,60.0,0.0,0.0
298,77.0,30.0,30.0,0.0,0.0
299,75.0,30.0,30.0,0.0,0.0
300,73.0,28.0,30.0,0.0,0.0
301,72.0,30.0,30.0,0.0,0.0
302,69.0,30.0,30.0,0.0,0.0
303,55.0,2.0,240.0,1.0,0.0
304,49.0,0.0,240.0,1.0,0.0
305,70.0,30.0,30.0,0.0,0.0
306,69.0,30.0,30.0,0.0,0.0
307,70.0,30.0,30.0,0.0,0.0
308,69.0,30.0,30.0,0.0,0.0
309,70.0,30.0,30.0,0.0,0.0
310,72.0,28.0,30.0,0.0,0.0
311,73.0,30.0,30.0,0.0,0.0
312,48.0,2.0,240.0,1.0,0.0
313,56.0,0.0,240.0,1.0,0.0
314,77.0,30.0,30.0,0.0,0.0
315,75.0,30.0,30.0,0.0,0.0
316,77.0,30.0,30.0,0.0,0.0
317,75.0,30.0,30.0,0.0,0.0
318,77.0,30.0,30.0,0.0,0.0
319,75.0,30.0,30.0,0.0,0.0
320,73.0,28.0,30.0,0.0,0.0
321,72.0,60.0,30.0,0.0,0.0
322,70.0,30.0,60.0,0.0,0.0
323,72.0,30.0,30.0,0.0,0.0
324,49.0,60.0,60.0,1.0,0.0
325,73.0,0.0,30.0,0.0,0.0
326,51.0,60.0,60.0,1.0,0.0
327,68.0,0.0,60.0,0.0,0.0
328,39.0,0.0,60.0,1.0,0.0
329,67.0,60.0,60.0,0.0,0.0
330,44.0,29.0,120.0,1.0,0.0
331,68.0,30.0,60.0,0.0,0.0
332,67.0,30.0,30.0,0.0,0.0
333,68.0,1.0,30.0,0.0,0.0
334,69.0,30.0,30.0,0.0,0.0
335,70.0,30.0,30.0,0.0,0.0
336,71.0,30.0,30.0,0.0,0.0
337,72.0,30.0,30.0,0.0,0.0
338,49.0,30.0,30.0,1.0,0.0
339,53.0,30.0,30.0,1.0,0.0
340,56.0,30.0,30.0,1.0,0.0
341,53.0,5.0,30.0,1.0,0.0
342,49.0,30.0,30.0,1.0,0.0
343,73.0,25.0,15.0,0.0,0.0
344,53.0,30.0,30.0,1.0,0.0
345,73.0,0.0,60.0,0.0,0.0
346,56.0,30.0,30.0,1.0,0.0
347,53.0,30.0,30.0,1.0,0.0
348,49.0,24.0,120.0,1.0,0.0
349,73.0,30.0,30.0,0.0,0.0
350,72.0,30.0,30.0,0.0,0.0
351,70.0,30.0,30.0,0.0,0.0
352,68.0,6.0,30.0,0.0,0.0
353,66.0,30.0,30.0,0.0,0.0
354,65.0,30.0,30.0,0.0,0.0
355,63.0,30.0,30.0,0.0,0.0
356,61.0,30.0,30.0,0.0,0.0
357,44.0,30.0,30.0,1.0,0.0
358,59.0,0.0,60.0,0.0,0.0
359,49.0,30.0,30.0,1.0,0.0
360,58.0,30.0,30.0,0.0,0.0
361,43.0,0.0,30.0,1.0,0.0
362,61.0,0.0,30.0,0.0,0.0
363,49.0,30.0,30.0,1.0,0.0
364,59.0,0.0,60.0,0.0,0.0
365,44.0,30.0,30.0,1.0,0.0
366,49.0,30.0,30.0,1.0,0.0
367,43.0,0.0,30.0,1.0,0.0
368,58.0,30.0,30.0,0.0,0.0
369,61.0,114.0,30.0,0.0,0.0
370,49.0,0.0,30.0,1.0,0.0
371,59.0,156.0,120.0,0.0,0.0
372,44.0,0.0,120.0,1.0,0.0
373,49.0,30.0,30.0,1.0,0.0
374,53.0,30.0,30.0,1.0,0.0
375,56.0,30.0,30.0,1.0,0.0
376,53.0,4.0,30.0,1.0,0.0
377,49.0,30.0,30.0,1.0,0.0
378,71.0,26.0,15.0,0.0,0.0
379,53.0,0.0,30.0,1.0,0.0
380,56.0,30.0,30.0,1.0,0.0
381,71.0,0.0,60.0,0.0,0.0
382,53.0,30.0,30.0,1.0,0.0
383,71.0,30.0,30.0,0.0,0.0
384,70.0,30.0,30.0,0.0,0.0
385,68.0,30.0,30.0,0.0,0.0
386,66.0,30.0,30.0,0.0,0.0
387,65.0,30.0,30.0,0.0,0.0
388,63.0,30.0,30.0,0.0,0.0
389,61.0,30.0,30.0,0.0,0.0
390,59.0,30.0,30.0,0.0,0.0
391,42.0,30.0,30.0,1.0,0.0
392,58.0,30.0,60.0,0.0,0.0
393,49.0,0.0,30.0,1.0,0.0
394,41.0,0.0,30.0,1.0,0.0
395,56.0,30.0,30.0,0.0,0.0
396,59.0,0.0,30.0,0.0,0.0
397,49.0,30.0,30.0,1.0,0.0
398,42.0,30.0,30.0,1.0,0.0
399,58.0,30.0,60.0,0.0,0.0
400,49.0,0.0,30.0,1.0,0.0
401,41.0,30.0,30.0,1.0,0.0
402,56.0,0.0,30.0,0.0,0.0
403,49.0,0.0,30.0,1.0,0.0
404,59.0,114.0,30.0,0.0,0.0
405,42.0,0.0,120.0,1.0,0.0
406,58.0,186.0,120.0,0.0,0.0
407,70.0,30.0,60.0,0.0,0.0
408,50.0,57.0,480.0,1.0,0.0
409,71.0,30.0,30.0,0.0,0.0
410,69.0,60.0,30.0,0.0,0.0
411,70.0,30.0,60.0,0.0,0.0
412,71.0,30.0,30.0,0.0,0.0
413,69.0,60.0,30.0,0.0,0.0
414,70.0,60.0,60.0,0.0,0.0
415,77.0,60.0,60.0,0.0,0.0
416,74.0,60.0,60.0,0.0,0.0
417,68.0,3.0,60.0,0.0,0.0
418,66.0,1.0,60.0,0.0,0.0
419,51.0,29.0,60.0,1.0,0.0
420,50.0,59.0,60.0,1.0,0.0
421,65.0,30.0,30.0,0.0,0.0
422,68.0,1.0,30.0,0.0,0.0
423,66.0,1.0,60.0,0.0,0.0
424,51.0,29.0,60.0,1.0,0.0
425,50.0,59.0,60.0,1.0,0.0
426,65.0,30.0,30.0,0.0,0.0
427,68.0,1.0,30.0,0.0,0.0
428,66.0,54.0,120.0,0.0,0.0
429,51.0,60.0,60.0,1.0,0.0
430,58.0,6.0,60.0,1.0,0.0
431,54.0,60.0,60.0,1.0,0.0
432,49.0,60.0,60.0,1.0,0.0
433,48.0,59.0,480.0,1.0,0.0
434,68.0,30.0,60.0,0.0,0.0
435,67.0,30.0,30.0,0.0,0.0
436,70.0,60.0,30.0,0.0,0.0
437,68.0,30.0,60.0,0.0,0.0
438,67.0,30.0,30.0,0.0,0.0
439,70.0,60.0,30.0,0.0,0.0
440,68.0,60.0,60.0,0.0,0.0
441,75.0,60.0,60.0,0.0,0.0
442,72.0,60.0,60.0,0.0,0.0
443,66.0,1.0,60.0,0.0,0.0
444,65.0,0.0,60.0,0.0,0.0
445,49.0,30.0,60.0,1.0,0.0
446,63.0,30.0,30.0,0.0,0.0
447,48.0,60.0,60.0,1.0,0.0
448,66.0,0.0,30.0,0.0,0.0
449,49.0,0.0,60.0,1.0,0.0
450,65.0,30.0,60.0,0.0,0.0
451,48.0,60.0,60.0,1.0,0.0
452,63.0,30.0,30.0,0.0,0.0
453,66.0,0.0,30.0,0.0,0.0
454,65.0,2.0,240.0,0.0,0.0
455,49.0,60.0,60.0,1.0,0.0
456,56.0,60.0,60.0,1.0,0.0
457,53.0,58.0,60.0,1.0,0.0
458,48.0,60.0,60.0,1.0,0.0
459,46.0,5.0,240.0,1.0,0.0
460,66.0,60.0,60.0,0.0,0.0
461,73.0,60.0,60.0,0.0,0.0
462,70.0,55.0,60.0,0.0,0.0
463,65.0,60.0,60.0,0.0,0.0
464,48.0,60.0,60.0,1.0,0.0
465,63.0,59.0,240.0,0.0,0.0
466,54.0,60.0,60.0,1.0,0.0
467,51.0,60.0,60.0,1.0,0.0
468,46.0,1.0,60.0,1.0,0.0
469,65.0,60.0,60.0,0.0,0.0
470,45.0,59.0,240.0,1.0,0.0
471,72.0,60.0,60.0,0.0,0.0
472,69.0,60.0,60.0,0.0,0.0
473,63.0,1.0,60.0,0.0,0.0
474,46.0,60.0,60.0,1.0,0.0
475,61.0,119.0,240.0,0.0,0.0
476,53.0,60.0,60.0,1.0,0.0
477,49.0,60.0,60.0,1.0,0.0
478,44.0,1.0,60.0,1.0,0.0
479,43.0,57.0,240.0,1.0,0.0
480,61.0,60.0,60.0,0.0,0.0
481,70.0,60.0,60.0,0.0,0.0
482,67.0,3.0,60.0,0.0,0.0
483,73.0,60.0,60.0,0.0,0.0
484,70.0,60.0,60.0,0.0,0.0
485,79.0,60.0,60.0,0.0,0.0
486,73.0,60.0,60.0,0.0,0.0
487,82.0,60.0,60.0,0.0,0.0
488,79.0,60.0,60.0,0.0,0.0
489,85.0,60.0,60.0,0.0,0.0
490,82.0,60.0,60.0,0.0,0.0
491,61.0,0.0,120.0,1.0,0.0
492,80.0,54.0,60.0,0.0,0.0
493,51.0,6.0,120.0,1.0,0.0
494,79.0,60.0,60.0,0.0,0.0
495,77.0,60.0,60.0,0.0,0.0
496,79.0,60.0,60.0,0.0,0.0
497,60.0,0.0,60.0,1.0,0.0
498,80.0,0.0,60.0,0.0,0.0
499,56.0,60.0,60.0,1.0,0.0
500,63.0,30.0,60.0,1.0,0.0
501,75.0,30.0,30.0,0.0,0.0
502,56.0,0.0,60.0,1.0,0.0
503,60.0,30.0,60.0,1.0,0.0
504,72.0,0.0,30.0,0.0,0.0
505,63.0,60.0,60.0,1.0,0.0
506,75.0,30.0,30.0,0.0,0.0
507,72.0,0.0,30.0,0.0,0.0
508,68.0,0.0,60.0,0.0,0.0
509,56.0,0.0,60.0,1.0,0.0
510,60.0,60.0,60.0,1.0,0.0
511,63.0,30.0,60.0,1.0,0.0
512,80.0,30.0,30.0,0.0,0.0
513,60.0,0.0,60.0,1.0,0.0
514,56.0,30.0,60.0,1.0,0.0
515,75.0,0.0,30.0,0.0,0.0
516,63.0,60.0,60.0,1.0,0.0
517,80.0,30.0,30.0,0.0,0.0
518,75.0,0.0,30.0,0.0,0.0
519,56.0,0.0,60.0,1.0,0.0
520,72.0,0.0,60.0,0.0,0.0
521,60.0,60.0,60.0,1.0,0.0
522,63.0,30.0,60.0,1.0,0.0
523,84.0,30.0,30.0,0.0,0.0
524,56.0,0.0,60.0,1.0,0.0
525,60.0,30.0,60.0,1.0,0.0
526,80.0,0.0,30.0,0.0,0.0
527,63.0,60.0,60.0,1.0,0.0
528,84.0,30.0,30.0,0.0,0.0
529,80.0,0.0,30.0,0.0,0.0
530,61.0,0.0,60.0,1.0,0.0
531,79.0,0.0,60.0,0.0,0.0
532,58.0,60.0,60.0,1.0,0.0
533,82.0,60.0,60.0,0.0,0.0
534,63.0,0.0,60.0,1.0,0.0
535,85.0,60.0,60.0,0.0,0.0
536,61.0,0.0,60.0,1.0,0.0
537,58.0,0.0,60.0,1.0,0.0
538,63.0,0.0,60.0,1.0,0.0
539,79.0,60.0,60.0,0.0,0.0
540,56.0,0.0,60.0,1.0,0.0
541,60.0,0.0,60.0,1.0,0.0
542,80.0,90.0,60.0,0.0,0.0
543,82.0,30.0,30.0,0.0,0.0
544,78.0,30.0,30.0,0.0,0.0
545,82.0,30.0,30.0,0.0,0.0
546,78.0,60.0,30.0,0.0,0.0
547,60.0,0.0,60.0,1.0,0.0
548,56.0,90.0,60.0,1.0,0.0
549,75.0,0.0,60.0,0.0,0.0
550,78.0,30.0,30.0,0.0,0.0
551,75.0,30.0,30.0,0.0,0.0
552,78.0,30.0,30.0,0.0,0.0
553,75.0,60.0,30.0,0.0,0.0
554,72.0,90.0,60.0,0.0,0.0
555,56.0,0.0,60.0,1.0,0.0
556,63.0,0.0,60.0,1.0,0.0
557,75.0,30.0,30.0,0.0,0.0
558,72.0,30.0,30.0,0.0,0.0
559,75.0,30.0,30.0,0.0,0.0
560,72.0,60.0,30.0,0.0,0.0
561,60.0,0.0,60.0,1.0,0.0
562,66.0,0.0,60.0,1.0,0.0
563,63.0,0.0,60.0,1.0,0.0
564,68.0,90.0,60.0,0.0,0.0
565,68.0,30.0,30.0,0.0,0.0
566,65.0,30.0,30.0,0.0,0.0
567,68.0,30.0,30.0,0.0,0.0
568,65.0,30.0,30.0,0.0,0.0
569,53.0,30.0,30.0,1.0,0.0
570,61.0,0.0,60.0,0.0,0.0
571,56.0,30.0,30.0,1.0,0.0
572,53.0,30.0,30.0,1.0,0.0
573,56.0,1.0,30.0,1.0,0.0
574,65.0,29.0,15.0,0.0,0.0
575,54.0,30.0,30.0,1.0,0.0
576,63.0,29.0,60.0,0.0,0.0
577,56.0,1.0,30.0,1.0,0.0
578,61.0,0.0,60.0,0.0,0.0
579,53.0,30.0,30.0,1.0,0.0
580,56.0,1.0,30.0,1.0,0.0
581,65.0,29.0,15.0,0.0,0.0
582,63.0,29.0,60.0,0.0,0.0
583,54.0,30.0,30.0,1.0,0.0
584,56.0,1.0,30.0,1.0,0.0
585,61.0,30.0,60.0,0.0,0.0
586,53.0,30.0,30.0,1.0,0.0
587,56.0,0.0,30.0,1.0,0.0
588,73.0,30.0,30.0,0.0,0.0
589,68.0,30.0,30.0,0.0,0.0
590,73.0,30.0,30.0,0.0,0.0
591,68.0,30.0,30.0,0.0,0.0
592,49.0,30.0,30.0,1.0,0.0
593,65.0,30.0,60.0,0.0,0.0
594,56.0,0.0,30.0,1.0,0.0
595,49.0,30.0,30.0,1.0,0.0
596,56.0,1.0,30.0,1.0,0.0
597,68.0,29.0,15.0,0.0,0.0
598,51.0,30.0,30.0,1.0,0.0
599,66.0,0.0,60.0,0.0,0.0
600,56.0,30.0,30.0,1.0,0.0
601,49.0,30.0,30.0,1.0,0.0
602,65.0,1.0,60.0,0.0,0.0
603,56.0,0.0,30.0,1.0,0.0
604,68.0,29.0,15.0,0.0,0.0
605,51.0,30.0,30.0,1.0,0.0
606,66.0,30.0,60.0,0.0,0.0
607,56.0,0.0,30.0,1.0,0.0
608,49.0,30.0,30.0,1.0,0.0
609,65.0,0.0,60.0,0.0,0.0
610,56.0,30.0,30.0,1.0,0.0
611,77.0,30.0,30.0,0.0,0.0
612,73.0,30.0,30.0,0.0,0.0
613,77.0,30.0,30.0,0.0,0.0
614,73.0,60.0,30.0,0.0,0.0
615,70.0,60.0,60.0,0.0,0.0
616,49.0,0.0,240.0,1.0,0.0
617,55.0,2.0,240.0,1.0,0.0
618,70.0,30.0,60.0,0.0,0.0
619,69.0,30.0,30.0,0.0,0.0
620,70.0,30.0,30.0,0.0,0.0
621,72.0,28.0,30.0,0.0,0.0
622,73.0,60.0,30.0,0.0,0.0
623,75.0,54.0,60.0,0.0,0.0
624,60.0,6.0,120.0,1.0,0.0
625,48.0,0.0,120.0,1.0,0.0
626,75.0,30.0,60.0,0.0,0.0
627,82.0,30.0,30.0,0.0,0.0
628,78.0,30.0,30.0,0.0,0.0
629,82.0,30.0,30.0,0.0,0.0
630,78.0,30.0,30.0,0.0,0.0
631,60.0,0.0,240.0,1.0,0.0
632,77.0,30.0,30.0,0.0,0.0
633,54.0,2.0,240.0,1.0,0.0
634,75.0,30.0,30.0,0.0,0.0
635,77.0,30.0,30.0,0.0,0.0
636,75.0,30.0,30.0,0.0,0.0
637,74.0,30.0,30.0,0.0,0.0
638,75.0,30.0,30.0,0.0,0.0
639,77.0,28.0,30.0,0.0,0.0
640,78.0,30.0,30.0,0.0,0.0
641,82.0,30.0,30.0,0.0,0.0
642,61.0,6.0,120.0,1.0,0.0
643,53.0,0.0,120.0,1.0,0.0
644,80.0,30.0,30.0,0.0,0.0
645,82.0,24.0,30.0,0.0,0.0
646,80.0,30.0,30.0,0.0,0.0
647,78.0,30.0,30.0,0.0,0.0
648,77.0,30.0,30.0,0.0,0.0
649,75.0,30.0,30.0,0.0,0.0
650,73.0,60.0,30.0,0.0,0.0
651,75.0,30.0,60.0,0.0,0.0
652,54.0,0.0,60.0,1.0,0.0
653,77.0,30.0,30.0,0.0,0.0
654,78.0,60.0,30.0,0.0,0.0
655,56.0,60.0,60.0,1.0,0.0
656,73.0,0.0,60.0,0.0,0.0
657,72.0,0.0,60.0,0.0,0.0
658,44.0,60.0,60.0,1.0,0.0
659,73.0,54.0,60.0,0.0,0.0
660,49.0,6.0,120.0,1.0,0.0
661,77.0,60.0,60.0,0.0,0.0
662,73.0,60.0,60.0,0.0,0.0
663,70.0,120.0,60.0,0.0,0.0
664,68.0,54.0,300.0,0.0,0.0
665,60.0,60.0,60.0,1.0,0.0
666,63.0,60.0,60.0,1.0,0.0
667,66.0,60.0,60.0,1.0,0.0
668,65.0,6.0,120.0,1.0,0.0
669,61.0,0.0,120.0,1.0,0.0
670,77.0,60.0,60.0,0.0,0.0
671,73.0,60.0,60.0,0.0,0.0
672,70.0,120.0,60.0,0.0,0.0
673,68.0,54.0,300.0,0.0,0.0
674,60.0,60.0,60.0,1.0,0.0
675,63.0,60.0,60.0,1.0,0.0
676,66.0,60.0,60.0,1.0,0.0
677,61.0,6.0,120.0,1.0,0.0
678,65.0,0.0,120.0,1.0,0.0
679,77.0,30.0,60.0,0.0,0.0
680,75.0,30.0,30.0,0.0,0.0
681,73.0,30.0,30.0,0.0,0.0
682,72.0,30.0,30.0,0.0,0.0
683,70.0,30.0,30.0,0.0,0.0
684,68.0,30.0,30.0,0.0,0.0
685,70.0,30.0,30.0,0.0,0.0
686,60.0,0.0,60.0,1.0,0.0
687,68.0,30.0,30.0,0.0,0.0
688,70.0,30.0,30.0,0.0,0.0
689,63.0,0.0,60.0,1.0,0.0
690,68.0,30.0,30.0,0.0,0.0
691,70.0,30.0,30.0,0.0,0.0
692,66.0,30.0,60.0,1.0,0.0
693,68.0,30.0,30.0,0.0,0.0
694,70.0,0.0,30.0,0.0,0.0
695,68.0,30.0,30.0,0.0,0.0
696,63.0,0.0,60.0,1.0,0.0
697,70.0,30.0,30.0,0.0,0.0
698,68.0,30.0,30.0,0.0,0.0
699,60.0,30.0,60.0,1.0,0.0
700,70.0,0.0,30.0,0.0,0.0
701,63.0,0.0,60.0,1.0,0.0
702,68.0,30.0,30.0,0.0,0.0
703,70.0,30.0,30.0,0.0,0.0
704,66.0,0.0,60.0,1.0,0.0
705,68.0,30.0,30.0,0.0,0.0
706,70.0,30.0,30.0,0.0,0.0
707,65.0,0.0,120.0,1.0,0.0
708,61.0,6.0,120.0,1.0,0.0
709,68.0,30.0,30.0,0.0,0.0
710,70.0,30.0,30.0,0.0,0.0
711,68.0,24.0,30.0,0.0,0.0
712,70.0,30.0,30.0,0.0,0.0
713,68.0,30.0,30.0,0.0,0.0
714,77.0,30.0,30.0,0.0,0.0
715,75.0,30.0,30.0,0.0,0.0
716,73.0,30.0,30.0,0.0,0.0
717,72.0,30.0,30.0,0.0,0.0
718,56.0,6.0,120.0,1.0,0.0
719,63.0,0.0,120.0,1.0,0.0
720,73.0,30.0,30.0,0.0,0.0
721,72.0,24.0,30.0,0.0,0.0
722,73.0,30.0,30.0,0.0,0.0
723,72.0,30.0,30.0,0.0,0.0
724,78.0,30.0,30.0,0.0,0.0
725,77.0,30.0,30.0,0.0,0.0
726,75.0,114.0,30.0,0.0,0.0
727,73.0,0.0,120.0,0.0,0.0
728,53.0,240.0,120.0,1.0,0.0
729,61.0,0.0,120.0,1.0,0.0
730,56.0,0.0,120.0,1.0,0.0
731,84.0,0.0,120.0,0.0,0.0
732,75.0,0.0,120.0,0.0,0.0
733,44.0,240.0,120.0,1.0,0.0
734,78.0,0.0,120.0,0.0,0.0
735,77.0,0.0,120.0,0.0,0.0
736,49.0,0.0,120.0,1.0,0.0
737,37.0,0.0,120.0,1.0,0.0
738,85.0,156.0,120.0,0.0,0.0
739,49.0,30.0,30.0,1.0,0.0
740,53.0,30.0,30.0,1.0,0.0
741,56.0,30.0,30.0,1.0,0.0
742,53.0,5.0,30.0,1.0,0.0
743,73.0,25.0,15.0,0.0,0.0
744,49.0,30.0,30.0,1.0,0.0
745,53.0,30.0,30.0,1.0,0.0
746,73.0,30.0,60.0,0.0,0.0
747,56.0,30.0,30.0,1.0,0.0
748,53.0,0.0,30.0,1.0,0.0
749,49.0,24.0,120.0,1.0,0.0
750,73.0,30.0,30.0,0.0,0.0
751,72.0,30.0,30.0,0.0,0.0
752,70.0,30.0,30.0,0.0,0.0
753,68.0,6.0,30.0,0.0,0.0
754,66.0,30.0,30.0,0.0,0.0
755,65.0,30.0,30.0,0.0,0.0
756,63.0,30.0,30.0,0.0,0.0
757,61.0,30.0,30.0,0.0,0.0
758,59.0,0.0,60.0,0.0,0.0
759,44.0,30.0,30.0,1.0,0.0
760,49.0,30.0,30.0,1.0,0.0
761,43.0,30.0,30.0,1.0,0.0
762,58.0,0.0,30.0,0.0,0.0
763,61.0,30.0,30.0,0.0,0.0
764,49.0,0.0,30.0,1.0,0.0
765,44.0,30.0,30.0,1.0,0.0
766,59.0,0.0,60.0,0.0,0.0
767,49.0,30.0,30.0,1.0,0.0
768,43.0,0.0,30.0,1.0,0.0
769,58.0,30.0,30.0,0.0,0.0
770,49.0,0.0,30.0,1.0,0.0
771,61.0,114.0,30.0,0.0,0.0
772,44.0,156.0,120.0,1.0,0.0
773,59.0,0.0,120.0,0.0,0.0
774,49.0,30.0,30.0,1.0,0.0
775,53.0,30.0,30.0,1.0,0.0
776,56.0,30.0,30.0,1.0,0.0
777,53.0,4.0,30.0,1.0,0.0
778,71.0,26.0,15.0,0.0,0.0
779,49.0,30.0,30.0,1.0,0.0
780,53.0,0.0,30.0,1.0,0.0
781,71.0,0.0,60.0,0.0,0.0
782,56.0,30.0,30.0,1.0,0.0
783,53.0,30.0,30.0,1.0,0.0
784,71.0,30.0,30.0,0.0,0.0
785,70.0,30.0,30.0,0.0,0.0
786,68.0,30.0,30.0,0.0,0.0
787,66.0,30.0,30.0,0.0,0.0
788,65.0,30.0,30.0,0.0,0.0
789,63.0,30.0,30.0,0.0,0.0
790,61.0,30.0,30.0,0.0,0.0
791,59.0,30.0,30.0,0.0,0.0
792,58.0,30.0,60.0,0.0,0.0
793,42.0,30.0,30.0,1.0,0.0
794,49.0,0.0,30.0,1.0,0.0
795,56.0,0.0,30.0,0.0,0.0
796,41.0,30.0,30.0,1.0,0.0
797,59.0,30.0,30.0,0.0,0.0
798,49.0,0.0,30.0,1.0,0.0
799,42.0,30.0,30.0,1.0,0.0
800,58.0,30.0,60.0,0.0,0.0
801,49.0,0.0,30.0,1.0,0.0
802,41.0,30.0,30.0,1.0,0.0
803,56.0,0.0,30.0,0.0,0.0
804,49.0,0.0,30.0,1.0,0.0
805,59.0,114.0,30.0,0.0,0.0
806,42.0,0.0,120.0,1.0,0.0
807,58.0,186.0,120.0,0.0,0.0
808,50.0,57.0,480.0,1.0,0.0
809,70.0,30.0,60.0,0.0,0.0
810,71.0,30.0,30.0,0.0,0.0
811,69.0,60.0,30.0,0.0,0.0
812,70.0,30.0,60.0,0.0,0.0
813,71.0,30.0,30.0,0.0,0.0
814,69.0,60.0,30.0,0.0,0.0
815,70.0,60.0,60.0,0.0,0.0
816,77.0,60.0,60.0,0.0,0.0
817,74.0,60.0,60.0,0.0,0.0
818,68.0,3.0,60.0,0.0,0.0
819,66.0,1.0,60.0,0.0,0.0
820,51.0,29.0,60.0,1.0,0.0
821,50.0,59.0,60.0,1.0,0.0
822,65.0,30.0,30.0,0.0,0.0
823,68.0,1.0,30.0,0.0,0.0
824,51.0,29.0,60.0,1.0,0.0
825,66.0,1.0,60.0,0.0,0.0
826,65.0,30.0,30.0,0.0,0.0
827,50.0,59.0,60.0,1.0,0.0
828,68.0,1.0,30.0,0.0,0.0
829,66.0,54.0,120.0,0.0,0.0
830,51.0,60.0,60.0,1.0,0.0
831,58.0,6.0,60.0,1.0,0.0
832,54.0,60.0,60.0,1.0,0.0
833,49.0,60.0,60.0,1.0,0.0
834,68.0,30.0,60.0,0.0,0.0
835,48.0,59.0,480.0,1.0,0.0
836,67.0,30.0,30.0,0.0,0.0
837,70.0,60.0,30.0,0.0,0.0
838,68.0,30.0,60.0,0.0,0.0
839,67.0,30.0,30.0,0.0,0.0
840,70.0,60.0,30.0,0.0,0.0
841,68.0,60.0,60.0,0.0,0.0
842,75.0,60.0,60.0,0.0,0.0
843,72.0,60.0,60.0,0.0,0.0
844,66.0,1.0,60.0,0.0,0.0
845,65.0,0.0,60.0,0.0,0.0
846,49.0,30.0,60.0,1.0,0.0
847,63.0,30.0,30.0,0.0,0.0
848,48.0,60.0,60.0,1.0,0.0
849,66.0,0.0,30.0,0.0,0.0
850,65.0,30.0,60.0,0.0,0.0
851,49.0,0.0,60.0,1.0,0.0
852,63.0,30.0,30.0,0.0,0.0
853,48.0,60.0,60.0,1.0,0.0
854,66.0,0.0,30.0,0.0,0.0
855,65.0,2.0,240.0,0.0,0.0
856,49.0,60.0,60.0,1.0,0.0
857,56.0,60.0,60.0,1.0,0.0
858,53.0,58.0,60.0,1.0,0.0
859,48.0,60.0,60.0,1.0,0.0
860,66.0,60.0,60.0,0.0,0.0
861,46.0,5.0,240.0,1.0,0.0
862,73.0,60.0,60.0,0.0,0.0
863,70.0,55.0,60.0,0.0,0.0
864,65.0,60.0,60.0,0.0,0.0
865,48.0,60.0,60.0,1.0,0.0
866,63.0,59.0,240.0,0.0,0.0
867,54.0,60.0,60.0,1.0,0.0
868,51.0,60.0,60.0,1.0,0.0
869,46.0,1.0,60.0,1.0,0.0
870,65.0,60.0,60.0,0.0,0.0
871,45.0,59.0,240.0,1.0,0.0
872,72.0,60.0,60.0,0.0,0.0
873,69.0,60.0,60.0,0.0,0.0
874,63.0,1.0,60.0,0.0,0.0
875,46.0,60.0,60.0,1.0,0.0
876,61.0,119.0,240.0,0.0,0.0
877,53.0,60.0,60.0,1.0,0.0
878,49.0,60.0,60.0,1.0,0.0
879,44.0,1.0,60.0,1.0,0.0
880,43.0,57.0,240.0,1.0,0.0
881,61.0,60.0,60.0,0.0,0.0
882,70.0,60.0,60.0,0.0,0.0
883,67.0,3.0,60.0,0.0,0.0
884,73.0,60.0,60.0,0.0,0.0
885,70.0,60.0,60.0,0.0,0.0
886,79.0,60.0,60.0,0.0,0.0
887,73.0,60.0,60.0,0.0,0.0
888,82.0,60.0,60.0,0.0,0.0
889,79.0,60.0,60.0,0.0,0.0
890,85.0,60.0,60.0,0.0,0.0
891,82.0,60.0,60.0,0.0,0.0
892,80.0,54.0,60.0,0.0,0.0
893,51.0,6.0,120.0,1.0,0.0
894,61.0,0.0,120.0,1.0,0.0
895,79.0,60.0,60.0,0.0,0.0
896,77.0,60.0,60.0,0.0,0.0
897,79.0,60.0,60.0,0.0,0.0
898,80.0,60.0,60.0,0.0,0.0
899,60.0,0.0,60.0,1.0,0.0
900,56.0,0.0,60.0,1.0,0.0
901,63.0,30.0,60.0,1.0,0.0
902,56.0,0.0,60.0,1.0,0.0
903,75.0,30.0,30.0,0.0,0.0
904,60.0,0.0,60.0,1.0,0.0
905,72.0,30.0,30.0,0.0,0.0
906,63.0,0.0,60.0,1.0,0.0
907,75.0,30.0,30.0,0.0,0.0
908,72.0,60.0,30.0,0.0,0.0
909,60.0,60.0,60.0,1.0,0.0
910,68.0,0.0,60.0,0.0,0.0
911,56.0,0.0,60.0,1.0,0.0
912,63.0,30.0,60.0,1.0,0.0
913,56.0,0.0,60.0,1.0,0.0
914,80.0,30.0,30.0,0.0,0.0
915,60.0,0.0,60.0,1.0,0.0
916,75.0,30.0,30.0,0.0,0.0
917,63.0,60.0,60.0,1.0,0.0
918,80.0,30.0,30.0,0.0,0.0
919,75.0,0.0,30.0,0.0,0.0
920,60.0,60.0,60.0,1.0,0.0
921,72.0,0.0,60.0,0.0,0.0
922,56.0,0.0,60.0,1.0,0.0
923,63.0,30.0,60.0,1.0,0.0
924,60.0,0.0,60.0,1.0,0.0
925,56.0,30.0,60.0,1.0,0.0
926,84.0,30.0,30.0,0.0,0.0
927,80.0,0.0,30.0,0.0,0.0
928,84.0,30.0,30.0,0.0,0.0
929,63.0,0.0,60.0,1.0,0.0
930,80.0,60.0,30.0,0.0,0.0
931,58.0,0.0,60.0,1.0,0.0
932,61.0,0.0,60.0,1.0,0.0
933,79.0,60.0,60.0,0.0,0.0
934,82.0,60.0,60.0,0.0,0.0
935,63.0,0.0,60.0,1.0,0.0
936,85.0,60.0,60.0,0.0,0.0
937,58.0,0.0,60.0,1.0,0.0
938,61.0,0.0,60.0,1.0,0.0
939,79.0,0.0,60.0,0.0,0.0
940,63.0,60.0,60.0,1.0,0.0
941,80.0,90.0,60.0,0.0,0.0
942,60.0,0.0,60.0,1.0,0.0
943,56.0,0.0,60.0,1.0,0.0
944,82.0,30.0,30.0,0.0,0.0
945,78.0,30.0,30.0,0.0,0.0
946,82.0,30.0,30.0,0.0,0.0
947,78.0,60.0,30.0,0.0,0.0
948,75.0,0.0,60.0,0.0,0.0
949,56.0,90.0,60.0,1.0,0.0
950,60.0,0.0,60.0,1.0,0.0
951,78.0,30.0,30.0,0.0,0.0
952,75.0,30.0,30.0,0.0,0.0
953,78.0,30.0,30.0,0.0,0.0
954,75.0,60.0,30.0,0.0,0.0
955,56.0,0.0,60.0,1.0,0.0
956,63.0,0.0,60.0,1.0,0.0
957,72.0,90.0,60.0,0.0,0.0
958,75.0,30.0,30.0,0.0,0.0
959,72.0,30.0,30.0,0.0,0.0
960,75.0,30.0,30.0,0.0,0.0
961,72.0,60.0,30.0,0.0,0.0
962,68.0,0.0,60.0,0.0,0.0
963,60.0,90.0,60.0,1.0,0.0
964,66.0,0.0,60.0,1.0,0.0
965,63.0,0.0,60.0,1.0,0.0
966,68.0,30.0,30.0,0.0,0.0
967,65.0,30.0,30.0,0.0,0.0
968,68.0,30.0,30.0,0.0,0.0
969,65.0,30.0,30.0,0.0,0.0
970,53.0,30.0,30.0,1.0,0.0
971,61.0,30.0,60.0,0.0,0.0
972,56.0,0.0,30.0,1.0,0.0
973,53.0,30.0,30.0,1.0,0.0
974,56.0,1.0,30.0,1.0,0.0
975,65.0,29.0,15.0,0.0,0.0
976,54.0,30.0,30.0,1.0,0.0
977,63.0,29.0,60.0,0.0,0.0
978,56.0,1.0,30.0,1.0,0.0
979,61.0,0.0,60.0,0.0,0.0
980,53.0,30.0,30.0,1.0,0.0
981,56.0,1.0,30.0,1.0,0.0
982,65.0,29.0,15.0,0.0,0.0
983,63.0,29.0,60.0,0.0,0.0
984,54.0,30.0,30.0,1.0,0.0
985,56.0,1.0,30.0,1.0,0.0
986,53.0,30.0,30.0,1.0,0.0
987,61.0,0.0,60.0,0.0,0.0
988,56.0,30.0,30.0,1.0,0.0
989,73.0,30.0,30.0,0.0,0.0
990,68.0,30.0,30.0,0.0,0.0
991,73.0,30.0,30.0,0.0,0.0
992,68.0,30.0,30.0,0.0,0.0
993,49.0,30.0,30.0,1.0,0.0
994,65.0,0.0,60.0,0.0,0.0
995,56.0,30.0,30.0,1.0,0.0
996,49.0,30.0,30.0,1.0,0.0
997,56.0,1.0,30.0,1.0,0.0
998,68.0,29.0,15.0,0.0,0.0
999,66.0,0.0,60.0,0.0,0.0
1000,51.0,30.0,30.0,1.0,0.0
1001,56.0,30.0,30.0,1.0,0.0
1002,49.0,30.0,30.0,1.0,0.0
1003,65.0,1.0,60.0,0.0,0.0
1004,56.0,0.0,30.0,1.0,0.0
1005,68.0,29.0,15.0,0.0,0.0
1006,66.0,0.0,60.0,0.0,0.0
1007,51.0,30.0,30.0,1.0,0.0
1008,56.0,30.0,30.0,1.0,0.0
1009,65.0,30.0,60.0,0.0,0.0
1010,49.0,30.0,30.0,1.0,0.0
1011,56.0,0.0,30.0,1.0,0.0
1012,77.0,30.0,30.0,0.0,0.0
1013,73.0,30.0,30.0,0.0,0.0
1014,77.0,30.0,30.0,0.0,0.0
1015,73.0,60.0,30.0,0.0,0.0
1016,70.0,60.0,60.0,0.0,0.0
1017,49.0,2.0,240.0,1.0,0.0
1018,55.0,0.0,240.0,1.0,0.0
1019,70.0,30.0,60.0,0.0,0.0
1020,69.0,30.0,30.0,0.0,0.0
1021,70.0,30.0,30.0,0.0,0.0
1022,72.0,28.0,30.0,0.0,0.0
1023,73.0,60.0,30.0,0.0,0.0
1024,75.0,54.0,60.0,0.0,0.0
1025,48.0,6.0,120.0,1.0,0.0
1026,60.0,0.0,120.0,1.0,0.0
1027,75.0,30.0,60.0,0.0,0.0
1028,82.0,30.0,30.0,0.0,0.0
1029,78.0,30.0,30.0,0.0,0.0
1030,82.0,30.0,30.0,0.0,0.0
1031,78.0,30.0,30.0,0.0,0.0
1032,60.0,0.0,240.0,1.0,0.0
1033,77.0,30.0,30.0,0.0,0.0
1034,54.0,2.0,240.0,1.0,0.0
1035,75.0,30.0,30.0,0.0,0.0
1036,77.0,30.0,30.0,0.0,0.0
1037,75.0,30.0,30.0,0.0,0.0
1038,74.0,30.0,30.0,0.0,0.0
1039,75.0,30.0,30.0,0.0,0.0
1040,77.0,28.0,30.0,0.0,0.0
1041,78.0,30.0,30.0,0.0,0.0
1042,53.0,0.0,120.0,1.0,0.0
1043,61.0,6.0,120.0,1.0,0.0
1044,82.0,30.0,30.0,0.0,0.0
1045,80.0,30.0,30.0,0.0,0.0
1046,82.0,24.0,30.0,0.0,0.0
1047,80.0,30.0,30.0,0.0,0.0
1048,78.0,30.0,30.0,0.0,0.0
1049,77.0,30.0,30.0,0.0,0.0
1050,75.0,30.0,30.0,0.0,0.0
1051,73.0,60.0,30.0,0.0,0.0
1052,75.0,30.0,60.0,0.0,0.0
1053,77.0,30.0,30.0,0.0,0.0
1054,54.0,0.0,60.0,1.0,0.0
1055,78.0,60.0,30.0,0.0,0.0
1056,73.0,60.0,60.0,0.0,0.0
1057,56.0,0.0,60.0,1.0,0.0
1058,72.0,0.0,60.0,0.0,0.0
1059,44.0,60.0,60.0,1.0,0.0
1060,73.0,54.0,60.0,0.0,0.0
1061,49.0,6.0,120.0,1.0,0.0
1062,77.0,60.0,60.0,0.0,0.0
1063,73.0,60.0,60.0,0.0,0.0
1064,70.0,120.0,60.0,0.0,0.0
1065,68.0,54.0,300.0,0.0,0.0
1066,60.0,60.0,60.0,1.0,0.0
1067,63.0,60.0,60.0,1.0,0.0
1068,66.0,60.0,60.0,1.0,0.0
1069,65.0,6.0,120.0,1.0,0.0
1070,61.0,0.0,120.0,1.0,0.0
1071,77.0,60.0,60.0,0.0,0.0
1072,73.0,60.0,60.0,0.0,0.0
1073,70.0,120.0,60.0,0.0,0.0
1074,68.0,54.0,300.0,0.0,0.0
1075,60.0,60.0,60.0,1.0,0.0
1076,63.0,60.0,60.0,1.0,0.0
1077,66.0,60.0,60.0,1.0,0.0
1078,61.0,6.0,120.0,1.0,0.0
1079,65.0,0.0,120.0,1.0,0.0
1080,77.0,30.0,60.0,0.0,0.0
1081,75.0,30.0,30.0,0.0,0.0
1082,73.0,30.0,30.0,0.0,0.0
1083,72.0,30.0,30.0,0.0,0.0
1084,70.0,30.0,30.0,0.0,0.0
1085,68.0,30.0,30.0,0.0,0.0
1086,70.0,30.0,30.0,0.0,0.0
1087,68.0,30.0,30.0,0.0,0.0
1088,60.0,30.0,60.0,1.0,0.0
1089,70.0,0.0,30.0,0.0,0.0
1090,63.0,30.0,60.0,1.0,0.0
1091,68.0,30.0,30.0,0.0,0.0
1092,70.0,0.0,30.0,0.0,0.0
1093,68.0,30.0,30.0,0.0,0.0
1094,66.0,0.0,60.0,1.0,0.0
1095,70.0,30.0,30.0,0.0,0.0
1096,63.0,0.0,60.0,1.0,0.0
1097,68.0,30.0,30.0,0.0,0.0
1098,70.0,30.0,30.0,0.0,0.0
1099,68.0,30.0,30.0,0.0,0.0
1100,60.0,0.0,60.0,1.0,0.0
1101,70.0,30.0,30.0,0.0,0.0
1102,63.0,30.0,60.0,1.0,0.0
1103,68.0,30.0,30.0,0.0,0.0
1104,70.0,0.0,30.0,0.0,0.0
1105,68.0,30.0,30.0,0.0,0.0
1106,66.0,0.0,60.0,1.0,0.0
1107,70.0,30.0,30.0,0.0,0.0
1108,65.0,6.0,120.0,1.0,0.0
1109,68.0,30.0,30.0,0.0,0.0
1110,61.0,0.0,120.0,1.0,0.0
1111,70.0,30.0,30.0,0.0,0.0
1112,68.0,24.0,30.0,0.0,0.0
1113,70.0,30.0,30.0,0.0,0.0
1114,68.0,30.0,30.0,0.0,0.0
1115,77.0,30.0,30.0,0.0,0.0
1116,75.0,30.0,30.0,0.0,0.0
1117,73.0,30.0,30.0,0.0,0.0
1118,72.0,30.0,30.0,0.0,0.0
1119,63.0,6.0,120.0,1.0,0.0
1120,56.0,0.0,120.0,1.0,0.0
1121,73.0,30.0,30.0,0.0,0.0
1122,72.0,24.0,30.0,0.0,0.0
1123,73.0,30.0,30.0,0.0,0.0
1124,72.0,30.0,30.0,0.0,0.0
1125,78.0,30.0,30.0,0.0,0.0
1126,77.0,30.0,30.0,0.0,0.0
1127,75.0,114.0,30.0,0.0,0.0
1128,61.0,240.0,120.0,1.0,0.0
1129,53.0,0.0,120.0,1.0,0.0
1130,73.0,0.0,120.0,0.0,0.0
1131,78.0,240.0,120.0,0.0,0.0
1132,84.0,0.0,120.0,0.0,0.0
1133,75.0,0.0,120.0,0.0,0.0
1134,44.0,0.0,120.0,1.0,0.0
1135,56.0,0.0,120.0,1.0,0.0
1136,77.0,907.0,120.0,0.0,0.0
1137,85.0,0.0,120.0,0.0,0.0
1138,37.0,0.0,120.0,1.0,0.0
1139,49.0,0.0,120.0,1.0,0.0
1140,53.0,0.0,60.0,1.0,0.0
1141,68.0,60.0,60.0,0.0,0.0
1142,49.0,60.0,60.0,1.0,0.0
1143,73.0,0.0,60.0,0.0,0.0
1144,67.0,60.0,60.0,0.0,0.0
1145,52.0,0.0,60.0,1.0,0.0
1146,49.0,0.0,60.0,1.0,0.0
1147,73.0,56.0,60.0,0.0,0.0
1148,53.0,60.0,60.0,1.0,0.0
1149,68.0,57.0,180.0,0.0,0.0
1150,49.0,60.0,60.0,1.0,0.0
1151,53.0,3.0,60.0,1.0,0.0
1152,49.0,3.0,60.0,1.0,0.0
1153,69.0,57.0,60.0,0.0,0.0
1154,70.0,0.0,60.0,0.0,0.0
1155,54.0,60.0,60.0,1.0,0.0
1156,49.0,60.0,60.0,1.0,0.0
1157,73.0,0.0,60.0,0.0,0.0
1158,69.0,60.0,60.0,0.0,0.0
1159,53.0,0.0,60.0,1.0,0.0
1160,73.0,60.0,60.0,0.0,0.0
1161,49.0,0.0,60.0,1.0,0.0
1162,70.0,13.0,180.0,0.0,0.0
1163,54.0,60.0,60.0,1.0,0.0
1164,49.0,60.0,60.0,1.0,0.0
1165,54.0,5.0,60.0,1.0,0.0
1166,49.0,0.0,60.0,1.0,0.0
1167,75.0,15.0,15.0,0.0,0.0
1168,73.0,15.0,15.0,0.0,0.0
1169,72.0,15.0,15.0,0.0,0.0
1170,73.0,60.0,15.0,0.0,0.0
1171,72.0,0.0,60.0,0.0,0.0
1172,54.0,0.0,60.0,1.0,0.0
1173,51.0,60.0,60.0,1.0,0.0
1174,80.0,0.0,60.0,0.0,0.0
1175,44.0,57.0,60.0,1.0,0.0
1176,80.0,3.0,60.0,0.0,0.0
1177,51.0,57.0,60.0,1.0,0.0
1178,54.0,0.0,60.0,1.0,0.0
1179,44.0,60.0,60.0,1.0,0.0
1180,80.0,3.0,60.0,0.0,0.0
1181,80.0,29.0,120.0,0.0,0.0
1182,49.0,60.0,60.0,1.0,0.0
1183,53.0,0.0,60.0,1.0,0.0
1184,44.0,1.0,60.0,1.0,0.0
1185,53.0,0.0,60.0,1.0,0.0
1186,49.0,0.0,60.0,1.0,0.0
1187,77.0,30.0,30.0,0.0,0.0
1188,73.0,30.0,30.0,0.0,0.0
1189,44.0,0.0,60.0,1.0,0.0
1190,77.0,30.0,30.0,0.0,0.0
1191,80.0,60.0,30.0,0.0,0.0
1192,48.0,0.0,60.0,1.0,0.0
1193,78.0,30.0,60.0,0.0,0.0
1194,51.0,0.0,60.0,1.0,0.0
1195,44.0,60.0,60.0,1.0,0.0
1196,75.0,30.0,30.0,0.0,0.0
1197,78.0,0.0,30.0,0.0,0.0
1198,53.0,30.0,60.0,1.0,0.0
1199,77.0,0.0,60.0,0.0,0.0
1200,49.0,0.0,60.0,1.0,0.0
1201,73.0,30.0,30.0,0.0,0.0
1202,77.0,3.0,30.0,0.0,0.0
1203,44.0,57.0,15.0,1.0,0.0
1204,75.0,30.0,60.0,0.0,0.0
1205,56.0,0.0,120.0,1.0,0.0
1206,51.0,0.0,120.0,1.0,0.0
1207,48.0,29.0,120.0,1.0,0.0
1208,77.0,30.0,30.0,0.0,0.0
1209,75.0,1.0,30.0,0.0,0.0
1210,73.0,30.0,30.0,0.0,0.0
1211,72.0,30.0,30.0,0.0,0.0
1212,70.0,30.0,30.0,0.0,0.0
1213,68.0,57.0,30.0,0.0,0.0
1214,53.0,0.0,60.0,1.0,0.0
1215,68.0,60.0,60.0,0.0,0.0
1216,73.0,60.0,60.0,0.0,0.0
1217,49.0,0.0,60.0,1.0,0.0
1218,52.0,0.0,60.0,1.0,0.0
1219,67.0,60.0,60.0,0.0,0.0
1220,73.0,0.0,60.0,0.0,0.0
1221,49.0,60.0,60.0,1.0,0.0
1222,68.0,56.0,180.0,0.0,0.0
1223,53.0,60.0,60.0,1.0,0.0
1224,49.0,60.0,60.0,1.0,0.0
1225,53.0,4.0,60.0,1.0,0.0
1226,49.0,4.0,60.0,1.0,0.0
1227,69.0,56.0,60.0,0.0,0.0
1228,54.0,0.0,60.0,1.0,0.0
1229,70.0,60.0,60.0,0.0,0.0
1230,49.0,0.0,60.0,1.0,0.0
1231,73.0,60.0,60.0,0.0,0.0
1232,53.0,0.0,60.0,1.0,0.0
1233,69.0,60.0,60.0,0.0,0.0
1234,49.0,60.0,60.0,1.0,0.0
1235,73.0,0.0,60.0,0.0,0.0
1236,70.0,14.0,180.0,0.0,0.0
1237,54.0,60.0,60.0,1.0,0.0
1238,49.0,60.0,60.0,1.0,0.0
1239,54.0,4.0,60.0,1.0,0.0
1240,75.0,15.0,15.0,0.0,0.0
1241,49.0,60.0,60.0,1.0,0.0
1242,73.0,15.0,15.0,0.0,0.0
1243,72.0,15.0,15.0,0.0,0.0
1244,73.0,0.0,15.0,0.0,0.0
1245,72.0,0.0,60.0,0.0,0.0
1246,54.0,60.0,60.0,1.0,0.0
1247,51.0,0.0,60.0,1.0,0.0
1248,44.0,0.0,60.0,1.0,0.0
1249,80.0,57.0,60.0,0.0,0.0
1250,80.0,3.0,60.0,0.0,0.0
1251,54.0,57.0,60.0,1.0,0.0
1252,51.0,0.0,60.0,1.0,0.0
1253,44.0,122.0,60.0,1.0,0.0
1254,80.0,3.0,60.0,0.0,0.0
1255,49.0,24.0,120.0,1.0,0.0
1256,53.0,2.0,120.0,1.0,0.0
1257,80.0,2.0,120.0,0.0,0.0
1258,78.0,30.0,30.0,0.0,0.0
1259,77.0,30.0,30.0,0.0,0.0
1260,75.0,30.0,30.0,0.0,0.0
1261,73.0,60.0,30.0,0.0,0.0
1262,54.0,0.0,60.0,1.0,0.0
1263,75.0,30.0,60.0,0.0,0.0
1264,58.0,0.0,60.0,1.0,0.0
1265,75.0,30.0,30.0,0.0,0.0
1266,78.0,60.0,30.0,0.0,0.0
1267,44.0,0.0,60.0,1.0,0.0
1268,51.0,0.0,60.0,1.0,0.0
1269,72.0,30.0,60.0,0.0,0.0
1270,72.0,30.0,30.0,0.0,0.0
1271,54.0,60.0,60.0,1.0,0.0
1272,75.0,0.0,30.0,0.0,0.0
1273,53.0,60.0,60.0,1.0,0.0
1274,49.0,0.0,60.0,1.0,0.0
1275,73.0,58.0,120.0,0.0,0.0
1276,56.0,2.0,60.0,1.0,0.0
1277,53.0,0.0,60.0,1.0,0.0
1278,49.0,121.0,60.0,1.0,0.0
1279,68.0,60.0,60.0,0.0,0.0
1280,53.0,0.0,60.0,1.0,0.0
1281,49.0,60.0,60.0,1.0,0.0
1282,73.0,0.0,60.0,0.0,0.0
1283,67.0,0.0,60.0,0.0,0.0
1284,52.0,60.0,60.0,1.0,0.0
1285,73.0,0.0,60.0,0.0,0.0
1286,49.0,56.0,60.0,1.0,0.0
1287,68.0,57.0,180.0,0.0,0.0
1288,53.0,60.0,60.0,1.0,0.0
1289,49.0,60.0,60.0,1.0,0.0
1290,53.0,3.0,60.0,1.0,0.0
1291,49.0,3.0,60.0,1.0,0.0
1292,69.0,57.0,60.0,0.0,0.0
1293,54.0,0.0,60.0,1.0,0.0
1294,70.0,60.0,60.0,0.0,0.0
1295,49.0,60.0,60.0,1.0,0.0
1296,73.0,0.0,60.0,0.0,0.0
1297,53.0,60.0,60.0,1.0,0.0
1298,69.0,0.0,60.0,0.0,0.0
1299,73.0,60.0,60.0,0.0,0.0
1300,49.0,0.0,60.0,1.0,0.0
1301,54.0,60.0,60.0,1.0,0.0
1302,70.0,13.0,180.0,0.0,0.0
1303,49.0,60.0,60.0,1.0,0.0
1304,54.0,5.0,60.0,1.0,0.0
1305,49.0,60.0,60.0,1.0,0.0
1306,75.0,15.0,15.0,0.0,0.0
1307,73.0,15.0,15.0,0.0,0.0
1308,72.0,15.0,15.0,0.0,0.0
1309,73.0,0.0,15.0,0.0,0.0
1310,54.0,0.0,60.0,1.0,0.0
1311,51.0,0.0,60.0,1.0,0.0
1312,72.0,60.0,60.0,0.0,0.0
1313,44.0,0.0,60.0,1.0,0.0
1314,80.0,57.0,60.0,0.0,0.0
1315,80.0,3.0,60.0,0.0,0.0
1316,54.0,57.0,60.0,1.0,0.0
1317,51.0,0.0,60.0,1.0,0.0
1318,80.0,3.0,60.0,0.0,0.0
1319,44.0,60.0,60.0,1.0,0.0
1320,80.0,29.0,120.0,0.0,0.0
1321,49.0,60.0,60.0,1.0,0.0
1322,53.0,0.0,60.0,1.0,0.0
1323,44.0,1.0,60.0,1.0,0.0
1324,49.0,0.0,60.0,1.0,0.0
1325,53.0,0.0,60.0,1.0,0.0
1326,77.0,30.0,30.0,0.0,0.0
1327,73.0,30.0,30.0,0.0,0.0
1328,77.0,30.0,30.0,0.0,0.0
1329,44.0,60.0,60.0,1.0,0.0
1330,80.0,0.0,30.0,0.0,0.0
1331,78.0,0.0,60.0,0.0,0.0
1332,51.0,0.0,60.0,1.0,0.0
1333,48.0,30.0,60.0,1.0,0.0
1334,75.0,30.0,30.0,0.0,0.0
1335,44.0,0.0,60.0,1.0,0.0
1336,78.0,60.0,30.0,0.0,0.0
1337,49.0,0.0,60.0,1.0,0.0
1338,53.0,0.0,60.0,1.0,0.0
1339,77.0,30.0,60.0,0.0,0.0
1340,73.0,30.0,30.0,0.0,0.0
1341,77.0,3.0,30.0,0.0,0.0
1342,75.0,30.0,60.0,0.0,0.0
1343,56.0,0.0,120.0,1.0,0.0
1344,51.0,29.0,120.0,1.0,0.0
1345,48.0,0.0,120.0,1.0,0.0
1346,44.0,57.0,15.0,1.0,0.0
1347,77.0,30.0,30.0,0.0,0.0
1348,75.0,1.0,30.0,0.0,0.0
1349,73.0,30.0,30.0,0.0,0.0
1350,72.0,30.0,30.0,0.0,0.0
1351,70.0,30.0,30.0,0.0,0.0
1352,68.0,57.0,30.0,0.0,0.0
1353,53.0,0.0,60.0,1.0,0.0
1354,68.0,60.0,60.0,0.0,0.0
1355,73.0,0.0,60.0,0.0,0.0
1356,49.0,60.0,60.0,1.0,0.0
1357,67.0,0.0,60.0,0.0,0.0
1358,52.0,60.0,60.0,1.0,0.0
1359,73.0,0.0,60.0,0.0,0.0
1360,49.0,60.0,60.0,1.0,0.0
1361,68.0,56.0,180.0,0.0,0.0
1362,53.0,60.0,60.0,1.0,0.0
1363,49.0,60.0,60.0,1.0,0.0
1364,53.0,4.0,60.0,1.0,0.0
1365,69.0,56.0,60.0,0.0,0.0
1366,49.0,4.0,60.0,1.0,0.0
1367,70.0,0.0,60.0,0.0,0.0
1368,54.0,60.0,60.0,1.0,0.0
1369,49.0,60.0,60.0,1.0,0.0
1370,73.0,0.0,60.0,0.0,0.0
1371,53.0,60.0,60.0,1.0,0.0
1372,69.0,0.0,60.0,0.0,0.0
1373,49.0,0.0,60.0,1.0,0.0
1374,73.0,60.0,60.0,0.0,0.0
1375,70.0,14.0,180.0,0.0,0.0
1376,54.0,60.0,60.0,1.0,0.0
1377,49.0,60.0,60.0,1.0,0.0
1378,54.0,4.0,60.0,1.0,0.0
1379,75.0,15.0,15.0,0.0,0.0
1380,49.0,60.0,60.0,1.0,0.0
1381,73.0,15.0,15.0,0.0,0.0
1382,72.0,15.0,15.0,0.0,0.0
1383,73.0,0.0,15.0,0.0,0.0
1384,54.0,0.0,60.0,1.0,0.0
1385,51.0,60.0,60.0,1.0,0.0
1386,72.0,0.0,60.0,0.0,0.0
1387,44.0,57.0,60.0,1.0,0.0
1388,80.0,0.0,60.0,0.0,0.0
1389,51.0,57.0,60.0,1.0,0.0
1390,80.0,3.0,60.0,0.0,0.0
1391,54.0,0.0,60.0,1.0,0.0
1392,80.0,3.0,60.0,0.0,0.0
1393,44.0,122.0,60.0,1.0,0.0
1394,49.0,24.0,120.0,1.0,0.0
1395,53.0,2.0,120.0,1.0,0.0
1396,80.0,2.0,120.0,0.0,0.0
1397,78.0,30.0,30.0,0.0,0.0
1398,77.0,30.0,30.0,0.0,0.0
1399,75.0,30.0,30.0,0.0,0.0
1400,73.0,60.0,30.0,0.0,0.0
1401,54.0,0.0,60.0,1.0,0.0
1402,75.0,30.0,60.0,0.0,0.0
1403,58.0,60.0,60.0,1.0,0.0
1404,75.0,30.0,30.0,0.0,0.0
1405,78.0,0.0,30.0,0.0,0.0
1406,72.0,30.0,60.0,0.0,0.0
1407,44.0,0.0,60.0,1.0,0.0
1408,51.0,0.0,60.0,1.0,0.0
1409,72.0,30.0,30.0,0.0,0.0
1410,54.0,60.0,60.0,1.0,0.0
1411,75.0,0.0,30.0,0.0,0.0
1412,49.0,60.0,60.0,1.0,0.0
1413,53.0,0.0,60.0,1.0,0.0
1414,73.0,58.0,120.0,0.0,0.0
1415,56.0,2.0,60.0,1.0,0.0
1416,49.0,0.0,60.0,1.0,0.0
1417,53.0,117.0,60.0,1.0,0.0
1418,56.0,60.0,60.0,1.0,0.0
1419,60.0,0.0,60.0,1.0,0.0
1420,75.0,0.0,60.0,0.0,0.0
1421,56.0,0.0,60.0,1.0,0.0
1422,60.0,60.0,60.0,1.0,0.0
1423,75.0,0.0,60.0,0.0,0.0
1424,59.0,0.0,60.0,1.0,0.0
1425,56.0,60.0,60.0,1.0,0.0
1426,74.0,0.0,60.0,0.0,0.0
1427,74.0,0.0,60.0,0.0,0.0
1428,56.0,0.0,60.0,1.0,0.0
1429,59.0,63.0,60.0,1.0,0.0
1430,75.0,30.0,60.0,0.0,0.0
1431,60.0,0.0,120.0,1.0,0.0
1432,56.0,29.0,120.0,1.0,0.0
1433,77.0,30.0,30.0,0.0,0.0
1434,79.0,1.0,30.0,0.0,0.0
1435,80.0,30.0,30.0,0.0,0.0
1436,79.0,30.0,30.0,0.0,0.0
1437,77.0,30.0,30.0,0.0,0.0
1438,75.0,57.0,30.0,0.0,0.0
1439,51.0,0.0,60.0,1.0,0.0
1440,73.0,60.0,60.0,0.0,0.0
1441,58.0,0.0,60.0,1.0,0.0
1442,51.0,0.0,60.0,1.0,0.0
1443,58.0,60.0,60.0,1.0,0.0
1444,73.0,0.0,60.0,0.0,0.0
1445,51.0,0.0,60.0,1.0,0.0
1446,57.0,60.0,60.0,1.0,0.0
1447,72.0,0.0,60.0,0.0,0.0
1448,57.0,0.0,60.0,1.0,0.0
1449,51.0,0.0,60.0,1.0,0.0
1450,72.0,63.0,60.0,0.0,0.0
1451,51.0,28.0,120.0,1.0,0.0
1452,73.0,30.0,60.0,0.0,0.0
1453,58.0,2.0,120.0,1.0,0.0
1454,79.0,30.0,30.0,0.0,0.0
1455,80.0,0.0,30.0,0.0,0.0
1456,82.0,30.0,30.0,0.0,0.0
1457,79.0,30.0,30.0,0.0,0.0
1458,75.0,30.0,30.0,0.0,0.0
1459,73.0,30.0,30.0,0.0,0.0
1460,56.0,5.0,240.0,1.0,0.0
1461,72.0,30.0,30.0,0.0,0.0
1462,60.0,24.0,240.0,1.0,0.0
1463,75.0,30.0,30.0,0.0,0.0
1464,77.0,30.0,30.0,0.0,0.0
1465,75.0,30.0,30.0,0.0,0.0
1466,80.0,30.0,30.0,0.0,0.0
1467,79.0,30.0,30.0,0.0,0.0
1468,77.0,30.0,30.0,0.0,0.0
1469,75.0,1.0,30.0,0.0,0.0
1470,51.0,26.0,240.0,1.0,0.0
1471,58.0,0.0,240.0,1.0,0.0
1472,73.0,30.0,30.0,0.0,0.0
1473,79.0,30.0,30.0,0.0,0.0
1474,82.0,30.0,30.0,0.0,0.0
1475,80.0,30.0,30.0,0.0,0.0
1476,79.0,30.0,30.0,0.0,0.0
1477,77.0,30.0,30.0,0.0,0.0
1478,75.0,30.0,30.0,0.0,0.0
1479,73.0,4.0,30.0,0.0,0.0
1480,72.0,30.0,30.0,0.0,0.0
1481,60.0,26.0,240.0,1.0,0.0
1482,56.0,0.0,240.0,1.0,0.0
1483,75.0,30.0,30.0,0.0,0.0
1484,77.0,30.0,30.0,0.0,0.0
1485,75.0,30.0,30.0,0.0,0.0
1486,80.0,30.0,30.0,0.0,0.0
1487,79.0,30.0,30.0,0.0,0.0
1488,77.0,30.0,30.0,0.0,0.0
1489,75.0,4.0,30.0,0.0,0.0
1490,73.0,30.0,30.0,0.0,0.0
1491,58.0,26.0,240.0,1.0,0.0
1492,51.0,0.0,240.0,1.0,0.0
1493,79.0,30.0,30.0,0.0,0.0
1494,82.0,30.0,30.0,0.0,0.0
1495,80.0,30.0,30.0,0.0,0.0
1496,79.0,30.0,30.0,0.0,0.0
1497,77.0,30.0,30.0,0.0,0.0
1498,75.0,30.0,30.0,0.0,0.0
1499,73.0,4.0,30.0,0.0,0.0
1500,56.0,3.0,120.0,1.0,0.0
1501,72.0,30.0,30.0,0.0,0.0
1502,80.0,30.0,30.0,0.0,0.0
1503,75.0,27.0,30.0,0.0,0.0
1504,72.0,30.0,30.0,0.0,0.0
1505,61.0,3.0,120.0,1.0,0.0
1506,70.0,30.0,30.0,0.0,0.0
1507,77.0,30.0,30.0,0.0,0.0
1508,73.0,27.0,30.0,0.0,0.0
1509,70.0,30.0,30.0,0.0,0.0
1510,68.0,30.0,30.0,0.0,0.0
1511,63.0,3.0,120.0,1.0,0.0
1512,75.0,30.0,30.0,0.0,0.0
1513,72.0,27.0,30.0,0.0,0.0
1514,68.0,30.0,30.0,0.0,0.0
1515,51.0,3.0,120.0,1.0,0.0
1516,67.0,30.0,30.0,0.0,0.0
1517,73.0,30.0,30.0,0.0,0.0
1518,70.0,27.0,30.0,0.0,0.0
1519,67.0,60.0,30.0,0.0,0.0
1520,56.0,0.0,60.0,1.0,0.0
1521,68.0,30.0,60.0,0.0,0.0
1522,56.0,30.0,30.0,0.0,0.0
1523,57.0,30.0,30.0,0.0,0.0
1524,58.0,30.0,30.0,0.0,0.0
1525,59.0,30.0,30.0,0.0,0.0
1526,60.0,30.0,30.0,0.0,0.0
1527,61.0,30.0,30.0,0.0,0.0
1528,62.0,30.0,30.0,0.0,0.0
1529,63.0,30.0,30.0,0.0,0.0
1530,64.0,30.0,30.0,0.0,0.0
1531,65.0,30.0,30.0,0.0,0.0
1532,66.0,30.0,30.0,0.0,0.0
1533,67.0,30.0,30.0,0.0,0.0
1534,68.0,30.0,30.0,0.0,0.0
1535,67.0,57.0,30.0,0.0,0.0
1536,68.0,60.0,60.0,0.0,0.0
1537,53.0,0.0,60.0,1.0,0.0
1538,49.0,60.0,60.0,1.0,0.0
1539,73.0,0.0,60.0,0.0,0.0
1540,67.0,0.0,60.0,0.0,0.0
1541,52.0,60.0,60.0,1.0,0.0
1542,73.0,0.0,60.0,0.0,0.0
1543,49.0,60.0,60.0,1.0,0.0
1544,68.0,56.0,180.0,0.0,0.0
1545,53.0,60.0,60.0,1.0,0.0
1546,49.0,60.0,60.0,1.0,0.0
1547,53.0,4.0,60.0,1.0,0.0
1548,69.0,56.0,60.0,0.0,0.0
1549,49.0,4.0,60.0,1.0,0.0
1550,70.0,60.0,60.0,0.0,0.0
1551,54.0,0.0,60.0,1.0,0.0
1552,73.0,60.0,60.0,0.0,0.0
1553,49.0,0.0,60.0,1.0,0.0
1554,69.0,60.0,60.0,0.0,0.0
1555,53.0,0.0,60.0,1.0,0.0
1556,73.0,60.0,60.0,0.0,0.0
1557,49.0,0.0,60.0,1.0,0.0
1558,54.0,60.0,60.0,1.0,0.0
1559,70.0,11.0,180.0,0.0,0.0
1560,49.0,60.0,60.0,1.0,0.0
1561,54.0,7.0,60.0,1.0,0.0
1562,49.0,60.0,60.0,1.0,0.0
1563,75.0,15.0,15.0,0.0,0.0
1564,73.0,15.0,15.0,0.0,0.0
1565,72.0,15.0,15.0,0.0,0.0
1566,73.0,0.0,15.0,0.0,0.0
1567,51.0,0.0,60.0,1.0,0.0
1568,54.0,0.0,60.0,1.0,0.0
1569,72.0,60.0,60.0,0.0,0.0
1570,44.0,0.0,60.0,1.0,0.0
1571,80.0,57.0,60.0,0.0,0.0
1572,80.0,3.0,60.0,0.0,0.0
1573,54.0,57.0,60.0,1.0,0.0
1574,51.0,0.0,60.0,1.0,0.0
1575,44.0,126.0,60.0,1.0,0.0
1576,80.0,3.0,60.0,0.0,0.0
1577,49.0,24.0,120.0,1.0,0.0
1578,53.0,0.0,120.0,1.0,0.0
1579,80.0,0.0,120.0,0.0,0.0
1580,78.0,30.0,30.0,0.0,0.0
1581,77.0,30.0,30.0,0.0,0.0
1582,75.0,30.0,30.0,0.0,0.0
1583,73.0,60.0,30.0,0.0,0.0
1584,54.0,30.0,60.0,1.0,0.0
1585,75.0,0.0,60.0,0.0,0.0
1586,75.0,30.0,30.0,0.0,0.0
1587,58.0,0.0,60.0,1.0,0.0
1588,78.0,60.0,30.0,0.0,0.0
1589,72.0,0.0,60.0,0.0,0.0
1590,44.0,30.0,60.0,1.0,0.0
1591,51.0,0.0,60.0,1.0,0.0
1592,54.0,60.0,60.0,1.0,0.0
1593,72.0,30.0,30.0,0.0,0.0
1594,75.0,0.0,30.0,0.0,0.0
1595,73.0,55.0,120.0,0.0,0.0
1596,49.0,0.0,60.0,1.0,0.0
1597,53.0,60.0,60.0,1.0,0.0
1598,56.0,5.0,60.0,1.0,0.0
1599,49.0,117.0,60.0,1.0,0.0
1600,53.0,0.0,60.0,1.0,0.0
1601,56.0,60.0,60.0,1.0,0.0
1602,60.0,0.0,60.0,1.0,0.0
1603,75.0,0.0,60.0,0.0,0.0
1604,75.0,0.0,60.0,0.0,0.0
1605,60.0,0.0,60.0,1.0,0.0
1606,56.0,60.0,60.0,1.0,0.0
1607,59.0,60.0,60.0,1.0,0.0
1608,56.0,0.0,60.0,1.0,0.0
1609,74.0,0.0,60.0,0.0,0.0
1610,56.0,0.0,60.0,1.0,0.0
1611,74.0,63.0,60.0,0.0,0.0
1612,59.0,0.0,60.0,1.0,0.0
1613,75.0,30.0,60.0,0.0,0.0
1614,56.0,29.0,120.0,1.0,0.0
1615,60.0,0.0,120.0,1.0,0.0
1616,77.0,30.0,30.0,0.0,0.0
1617,79.0,1.0,30.0,0.0,0.0
1618,80.0,30.0,30.0,0.0,0.0
1619,79.0,30.0,30.0,0.0,0.0
1620,77.0,30.0,30.0,0.0,0.0
1621,75.0,57.0,30.0,0.0,0.0
1622,73.0,60.0,60.0,0.0,0.0
1623,51.0,0.0,60.0,1.0,0.0
1624,58.0,0.0,60.0,1.0,0.0
1625,58.0,60.0,60.0,1.0,0.0
1626,73.0,0.0,60.0,0.0,0.0
1627,51.0,0.0,60.0,1.0,0.0
1628,57.0,0.0,60.0,1.0,0.0
1629,72.0,60.0,60.0,0.0,0.0
1630,51.0,0.0,60.0,1.0,0.0
1631,57.0,0.0,60.0,1.0,0.0
1632,51.0,0.0,60.0,1.0,0.0
1633,72.0,63.0,60.0,0.0,0.0
1634,73.0,30.0,60.0,0.0,0.0
1635,51.0,28.0,120.0,1.0,0.0
1636,58.0,2.0,120.0,1.0,0.0
1637,79.0,30.0,30.0,0.0,0.0
1638,80.0,0.0,30.0,0.0,0.0
1639,82.0,30.0,30.0,0.0,0.0
1640,79.0,30.0,30.0,0.0,0.0
1641,75.0,30.0,30.0,0.0,0.0
1642,73.0,30.0,30.0,0.0,0.0
1643,56.0,5.0,240.0,1.0,0.0
1644,72.0,30.0,30.0,0.0,0.0
1645,60.0,24.0,240.0,1.0,0.0
1646,75.0,30.0,30.0,0.0,0.0
1647,77.0,30.0,30.0,0.0,0.0
1648,75.0,30.0,30.0,0.0,0.0
1649,80.0,30.0,30.0,0.0,0.0
1650,79.0,30.0,30.0,0.0,0.0
1651,77.0,30.0,30.0,0.0,0.0
1652,75.0,1.0,30.0,0.0,0.0
1653,51.0,0.0,240.0,1.0,0.0
1654,73.0,30.0,30.0,0.0,0.0
1655,58.0,26.0,240.0,1.0,0.0
1656,79.0,30.0,30.0,0.0,0.0
1657,82.0,30.0,30.0,0.0,0.0
1658,80.0,30.0,30.0,0.0,0.0
1659,79.0,30.0,30.0,0.0,0.0
1660,77.0,30.0,30.0,0.0,0.0
1661,75.0,30.0,30.0,0.0,0.0
1662,73.0,4.0,30.0,0.0,0.0
1663,72.0,30.0,30.0,0.0,0.0
1664,56.0,26.0,240.0,1.0,0.0
1665,60.0,0.0,240.0,1.0,0.0
1666,75.0,30.0,30.0,0.0,0.0
1667,77.0,30.0,30.0,0.0,0.0
1668,75.0,30.0,30.0,0.0,0.0
1669,80.0,30.0,30.0,0.0,0.0
1670,79.0,30.0,30.0,0.0,0.0
1671,77.0,30.0,30.0,0.0,0.0
1672,75.0,4.0,30.0,0.0,0.0
1673,73.0,30.0,30.0,0.0,0.0
1674,58.0,26.0,240.0,1.0,0.0
1675,51.0,0.0,240.0,1.0,0.0
1676,79.0,30.0,30.0,0.0,0.0
1677,82.0,30.0,30.0,0.0,0.0
1678,80.0,30.0,30.0,0.0,0.0
1679,79.0,30.0,30.0,0.0,0.0
1680,77.0,30.0,30.0,0.0,0.0
1681,75.0,30.0,30.0,0.0,0.0
1682,73.0,4.0,30.0,0.0,0.0
1683,72.0,30.0,30.0,0.0,0.0
1684,56.0,3.0,120.0,1.0,0.0
1685,80.0,30.0,30.0,0.0,0.0
1686,75.0,27.0,30.0,0.0,0.0
1687,72.0,30.0,30.0,0.0,0.0
1688,70.0,30.0,30.0,0.0,0.0
1689,61.0,3.0,120.0,1.0,0.0
1690,77.0,30.0,30.0,0.0,0.0
1691,73.0,27.0,30.0,0.0,0.0
1692,70.0,30.0,30.0,0.0,0.0
1693,63.0,3.0,120.0,1.0,0.0
1694,68.0,30.0,30.0,0.0,0.0
1695,75.0,30.0,30.0,0.0,0.0
1696,72.0,27.0,30.0,0.0,0.0
1697,68.0,30.0,30.0,0.0,0.0
1698,67.0,30.0,30.0,0.0,0.0
1699,51.0,3.0,120.0,1.0,0.0
1700,73.0,30.0,30.0,0.0,0.0
1701,70.0,27.0,30.0,0.0,0.0
1702,67.0,60.0,30.0,0.0,0.0
1703,68.0,30.0,60.0,0.0,0.0
1704,56.0,0.0,60.0,1.0,0.0
1705,56.0,30.0,30.0,0.0,0.0
1706,57.0,30.0,30.0,0.0,0.0
1707,58.0,30.0,30.0,0.0,0.0
1708,59.0,30.0,30.0,0.0,0.0
1709,60.0,30.0,30.0,0.0,0.0
1710,61.0,30.0,30.0,0.0,0.0
1711,62.0,30.0,30.0,0.0,0.0
1712,63.0,30.0,30.0,0.0,0.0
1713,64.0,30.0,30.0,0.0,0.0
1714,65.0,30.0,30.0,0.0,0.0
1715,66.0,30.0,30.0,0.0,0.0
1716,67.0,30.0,30.0,0.0,0.0
1717,68.0,30.0,30.0,0.0,0.0
1718,67.0,57.0,30.0,0.0,0.0
1719,68.0,0.0,60.0,0.0,0.0
1720,53.0,60.0,60.0,1.0,0.0
1721,73.0,0.0,60.0,0.0,0.0
1722,49.0,60.0,60.0,1.0,0.0
1723,67.0,0.0,60.0,0.0,0.0
1724,52.0,60.0,60.0,1.0,0.0
1725,49.0,60.0,60.0,1.0,0.0
1726,73.0,0.0,60.0,0.0,0.0
1727,53.0,60.0,60.0,1.0,0.0
1728,68.0,56.0,180.0,0.0,0.0
1729,49.0,60.0,60.0,1.0,0.0
1730,53.0,4.0,60.0,1.0,0.0
1731,49.0,4.0,60.0,1.0,0.0
1732,69.0,56.0,60.0,0.0,0.0
1733,70.0,0.0,60.0,0.0,0.0
1734,54.0,60.0,60.0,1.0,0.0
1735,73.0,0.0,60.0,0.0,0.0
1736,49.0,60.0,60.0,1.0,0.0
1737,53.0,0.0,60.0,1.0,0.0
1738,69.0,60.0,60.0,0.0,0.0
1739,73.0,0.0,60.0,0.0,0.0
1740,49.0,60.0,60.0,1.0,0.0
1741,70.0,11.0,180.0,0.0,0.0
1742,54.0,60.0,60.0,1.0,0.0
1743,49.0,60.0,60.0,1.0,0.0
1744,54.0,7.0,60.0,1.0,0.0
1745,49.0,0.0,60.0,1.0,0.0
1746,75.0,15.0,15.0,0.0,0.0
1747,73.0,15.0,15.0,0.0,0.0
1748,72.0,15.0,15.0,0.0,0.0
1749,73.0,60.0,15.0,0.0,0.0
1750,72.0,0.0,60.0,0.0,0.0
1751,51.0,60.0,60.0,1.0,0.0
1752,54.0,0.0,60.0,1.0,0.0
1753,80.0,57.0,60.0,0.0,0.0
1754,44.0,0.0,60.0,1.0,0.0
1755,80.0,3.0,60.0,0.0,0.0
1756,54.0,57.0,60.0,1.0,0.0
1757,51.0,0.0,60.0,1.0,0.0
1758,44.0,126.0,60.0,1.0,0.0
1759,80.0,3.0,60.0,0.0,0.0
1760,53.0,24.0,120.0,1.0,0.0
1761,49.0,0.0,120.0,1.0,0.0
1762,80.0,0.0,120.0,0.0,0.0
1763,78.0,30.0,30.0,0.0,0.0
1764,77.0,30.0,30.0,0.0,0.0
1765,75.0,30.0,30.0,0.0,0.0
1766,73.0,60.0,30.0,0.0,0.0
1767,75.0,0.0,60.0,0.0,0.0
1768,54.0,30.0,60.0,1.0,0.0
1769,58.0,60.0,60.0,1.0,0.0
1770,75.0,30.0,30.0,0.0,0.0
1771,78.0,0.0,30.0,0.0,0.0
1772,72.0,0.0,60.0,0.0,0.0
1773,51.0,0.0,60.0,1.0,0.0
1774,44.0,30.0,60.0,1.0,0.0
1775,72.0,30.0,30.0,0.0,0.0
1776,54.0,60.0,60.0,1.0,0.0
1777,75.0,0.0,30.0,0.0,0.0
1778,49.0,60.0,60.0,1.0,0.0
1779,53.0,0.0,60.0,1.0,0.0
1780,73.0,55.0,120.0,0.0,0.0
1781,56.0,5.0,60.0,1.0,0.0
1782,53.0,120.0,60.0,1.0,0.0
1783,49.0,0.0,60.0,1.0,0.0
1784,77.0,55.0,120.0,0.0,0.0
1785,58.0,60.0,60.0,1.0,0.0
1786,61.0,5.0,60.0,1.0,0.0
1787,78.0,60.0,60.0,0.0,0.0
1788,58.0,0.0,60.0,1.0,0.0
1789,77.0,0.0,60.0,0.0,0.0
1790,61.0,60.0,60.0,1.0,0.0
1791,60.0,60.0,60.0,1.0,0.0
1792,77.0,58.0,120.0,0.0,0.0
1793,63.0,2.0,60.0,1.0,0.0
1794,69.0,60.0,60.0,0.0,0.0
1795,60.0,0.0,60.0,1.0,0.0
1796,63.0,60.0,60.0,1.0,0.0
1797,70.0,0.0,60.0,0.0,0.0
1798,57.0,0.0,60.0,1.0,0.0
1799,72.0,60.0,60.0,0.0,0.0
1800,60.0,0.0,60.0,1.0,0.0
1801,69.0,60.0,60.0,0.0,0.0
1802,65.0,60.0,60.0,0.0,0.0
1803,57.0,0.0,60.0,1.0,0.0
1804,60.0,0.0,60.0,1.0,0.0
1805,77.0,60.0,60.0,0.0,0.0
1806,58.0,60.0,60.0,1.0,0.0
1807,75.0,0.0,120.0,0.0,0.0
1808,61.0,60.0,60.0,1.0,0.0
1809,58.0,60.0,60.0,1.0,0.0
1810,73.0,59.0,120.0,0.0,0.0
1811,61.0,1.0,60.0,1.0,0.0
1812,49.0,60.0,60.0,1.0,0.0
1813,77.0,0.0,60.0,0.0,0.0
1814,58.0,0.0,60.0,1.0,0.0
1815,73.0,60.0,60.0,0.0,0.0
1816,70.0,60.0,60.0,0.0,0.0
1817,53.0,0.0,60.0,1.0,0.0
1818,58.0,0.0,60.0,1.0,0.0
1819,82.0,60.0,60.0,0.0,0.0
1820,51.0,60.0,60.0,1.0,0.0
1821,78.0,56.0,240.0,0.0,0.0
1822,58.0,60.0,60.0,1.0,0.0
1823,54.0,60.0,60.0,1.0,0.0
1824,58.0,4.0,60.0,1.0,0.0
1825,49.0,0.0,60.0,1.0,0.0
1826,77.0,60.0,60.0,0.0,0.0
1827,58.0,60.0,60.0,1.0,0.0
1828,73.0,0.0,60.0,0.0,0.0
1829,70.0,0.0,60.0,0.0,0.0
1830,53.0,60.0,60.0,1.0,0.0
1831,58.0,60.0,60.0,1.0,0.0
1832,82.0,0.0,60.0,0.0,0.0
1833,78.0,59.0,240.0,0.0,0.0
1834,51.0,60.0,60.0,1.0,0.0
1835,58.0,60.0,60.0,1.0,0.0
1836,54.0,60.0,60.0,1.0,0.0
1837,58.0,1.0,60.0,1.0,0.0
1838,77.0,60.0,60.0,0.0,0.0
1839,49.0,0.0,60.0,1.0,0.0
1840,73.0,0.0,60.0,0.0,0.0
1841,58.0,60.0,60.0,1.0,0.0
1842,70.0,0.0,60.0,0.0,0.0
1843,53.0,60.0,60.0,1.0,0.0
1844,58.0,0.0,60.0,1.0,0.0
1845,82.0,60.0,60.0,0.0,0.0
1846,51.0,0.0,60.0,1.0,0.0
1847,80.0,60.0,60.0,0.0,0.0
1848,78.0,60.0,60.0,0.0,0.0
1849,58.0,0.0,60.0,1.0,0.0
1850,78.0,0.0,60.0,0.0,0.0
1851,49.0,60.0,60.0,1.0,0.0
1852,58.0,60.0,60.0,1.0,0.0
1853,77.0,0.0,60.0,0.0,0.0
1854,48.0,60.0,60.0,1.0,0.0
1855,77.0,0.0,60.0,0.0,0.0
1856,57.0,60.0,60.0,1.0,0.0
1857,75.0,0.0,60.0,0.0,0.0
1858,75.0,60.0,60.0,0.0,0.0
1859,46.0,0.0,60.0,1.0,0.0
1860,73.0,0.0,60.0,0.0,0.0
1861,58.0,120.0,60.0,1.0,0.0
1862,73.0,3.0,120.0,0.0,0.0
1863,58.0,57.0,120.0,1.0,0.0
1864,53.0,120.0,180.0,1.0,0.0
1865,72.0,0.0,60.0,0.0,0.0
1866,57.0,0.0,60.0,1.0,0.0
1867,77.0,55.0,120.0,0.0,0.0
1868,58.0,60.0,60.0,1.0,0.0
1869,61.0,5.0,60.0,1.0,0.0
1870,58.0,60.0,60.0,1.0,0.0
1871,78.0,0.0,60.0,0.0,0.0
1872,77.0,60.0,60.0,0.0,0.0
1873,61.0,0.0,60.0,1.0,0.0
1874,77.0,58.0,120.0,0.0,0.0
1875,60.0,60.0,60.0,1.0,0.0
1876,63.0,2.0,60.0,1.0,0.0
1877,60.0,60.0,60.0,1.0,0.0
1878,69.0,0.0,60.0,0.0,0.0
1879,70.0,60.0,60.0,0.0,0.0
1880,63.0,0.0,60.0,1.0,0.0
1881,57.0,60.0,60.0,1.0,0.0
1882,72.0,0.0,60.0,0.0,0.0
1883,60.0,60.0,60.0,1.0,0.0
1884,69.0,0.0,60.0,0.0,0.0
1885,57.0,60.0,60.0,1.0,0.0
1886,65.0,0.0,60.0,0.0,0.0
1887,60.0,60.0,60.0,1.0,0.0
1888,77.0,0.0,60.0,0.0,0.0
1889,75.0,60.0,120.0,0.0,0.0
1890,58.0,60.0,60.0,1.0,0.0
1891,61.0,0.0,60.0,1.0,0.0
1892,58.0,60.0,60.0,1.0,0.0
1893,73.0,59.0,120.0,0.0,0.0
1894,61.0,1.0,60.0,1.0,0.0
1895,77.0,0.0,60.0,0.0,0.0
1896,49.0,60.0,60.0,1.0,0.0
1897,73.0,60.0,60.0,0.0,0.0
1898,58.0,0.0,60.0,1.0,0.0
1899,70.0,0.0,60.0,0.0,0.0
1900,53.0,60.0,60.0,1.0,0.0
1901,82.0,0.0,60.0,0.0,0.0
1902,58.0,60.0,60.0,1.0,0.0
1903,51.0,60.0,60.0,1.0,0.0
1904,78.0,56.0,240.0,0.0,0.0
1905,58.0,60.0,60.0,1.0,0.0
1906,54.0,60.0,60.0,1.0,0.0
1907,58.0,4.0,60.0,1.0,0.0
1908,77.0,0.0,60.0,0.0,0.0
1909,49.0,60.0,60.0,1.0,0.0
1910,73.0,60.0,60.0,0.0,0.0
1911,58.0,0.0,60.0,1.0,0.0
1912,70.0,60.0,60.0,0.0,0.0
1913,53.0,0.0,60.0,1.0,0.0
1914,58.0,60.0,60.0,1.0,0.0
1915,82.0,0.0,60.0,0.0,0.0
1916,51.0,60.0,60.0,1.0,0.0
1917,78.0,59.0,240.0,0.0,0.0
1918,58.0,60.0,60.0,1.0,0.0
1919,54.0,60.0,60.0,1.0,0.0
1920,58.0,1.0,60.0,1.0,0.0
1921,49.0,60.0,60.0,1.0,0.0
1922,77.0,0.0,60.0,0.0,0.0
1923,73.0,0.0,60.0,0.0,0.0
1924,58.0,60.0,60.0,1.0,0.0
1925,53.0,0.0,60.0,1.0,0.0
1926,70.0,60.0,60.0,0.0,0.0
1927,58.0,60.0,60.0,1.0,0.0
1928,82.0,0.0,60.0,0.0,0.0
1929,80.0,0.0,60.0,0.0,0.0
1930,51.0,60.0,60.0,1.0,0.0
1931,78.0,0.0,60.0,0.0,0.0
1932,58.0,60.0,60.0,1.0,0.0
1933,78.0,0.0,60.0,0.0,0.0
1934,49.0,60.0,60.0,1.0,0.0
1935,77.0,0.0,60.0,0.0,0.0
1936,58.0,60.0,60.0,1.0,0.0
1937,77.0,60.0,60.0,0.0,0.0
1938,48.0,0.0,60.0,1.0,0.0
1939,75.0,60.0,60.0,0.0,0.0
1940,57.0,0.0,60.0,1.0,0.0
1941,75.0,60.0,60.0,0.0,0.0
1942,46.0,0.0,60.0,1.0,0.0
1943,73.0,120.0,60.0,0.0,0.0
1944,58.0,0.0,60.0,1.0,0.0
1945,58.0,57.0,120.0,1.0,0.0
1946,73.0,3.0,120.0,0.0,0.0
1947,53.0,0.0,180.0,1.0,0.0
1948,57.0,120.0,60.0,1.0,0.0
1949,72.0,0.0,60.0,0.0,0.0
1950,58.0,60.0,60.0,1.0,0.0
1951,77.0,56.0,120.0,0.0,0.0
1952,61.0,4.0,60.0,1.0,0.0
1953,58.0,60.0,60.0,1.0,0.0
1954,78.0,0.0,60.0,0.0,0.0
1955,77.0,60.0,60.0,0.0,0.0
1956,61.0,0.0,60.0,1.0,0.0
1957,80.0,55.0,240.0,0.0,0.0
1958,53.0,60.0,60.0,1.0,0.0
1959,60.0,60.0,60.0,1.0,0.0
1960,53.0,60.0,60.0,1.0,0.0
1961,60.0,5.0,60.0,1.0,0.0
1962,73.0,55.0,120.0,0.0,0.0
1963,54.0,60.0,60.0,1.0,0.0
1964,58.0,5.0,60.0,1.0,0.0
1965,54.0,0.0,60.0,1.0,0.0
1966,75.0,60.0,60.0,0.0,0.0
1967,73.0,0.0,60.0,0.0,0.0
1968,58.0,60.0,60.0,1.0,0.0
1969,77.0,59.0,240.0,0.0,0.0
1970,49.0,60.0,60.0,1.0,0.0
1971,56.0,60.0,60.0,1.0,0.0
1972,49.0,60.0,60.0,1.0,0.0
1973,56.0,1.0,60.0,1.0,0.0
1974,82.0,60.0,60.0,0.0,0.0
1975,54.0,56.0,120.0,1.0,0.0
1976,73.0,4.0,60.0,0.0,0.0
1977,58.0,0.0,60.0,1.0,0.0
1978,82.0,60.0,60.0,0.0,0.0
1979,61.0,0.0,60.0,1.0,0.0
1980,73.0,60.0,60.0,0.0,0.0
1981,53.0,59.0,240.0,1.0,0.0
1982,80.0,60.0,60.0,0.0,0.0
1983,73.0,60.0,60.0,0.0,0.0
1984,80.0,60.0,60.0,0.0,0.0
1985,73.0,1.0,60.0,0.0,0.0
1986,51.0,57.0,120.0,1.0,0.0
1987,78.0,60.0,60.0,0.0,0.0
1988,70.0,3.0,60.0,0.0,0.0
1989,78.0,0.0,60.0,0.0,0.0
1990,54.0,60.0,60.0,1.0,0.0
1991,58.0,60.0,60.0,1.0,0.0
1992,70.0,0.0,60.0,0.0,0.0
1993,77.0,60.0,60.0,0.0,0.0
1994,49.0,59.0,240.0,1.0,0.0
1995,70.0,60.0,60.0,0.0,0.0
1996,77.0,60.0,60.0,0.0,0.0
1997,70.0,1.0,60.0,0.0,0.0
1998,45.0,57.0,120.0,1.0,0.0
1999,75.0,60.0,60.0,0.0,0.0
2000,72.0,3.0,60.0,0.0,0.0
2001,73.0,60.0,60.0,0.0,0.0
2002,46.0,58.0,120.0,1.0,0.0
2003,70.0,2.0,60.0,0.0,0.0
2004,72.0,60.0,60.0,0.0,0.0
2005,41.0,59.0,120.0,1.0,0.0
2006,69.0,1.0,60.0,0.0,0.0
2007,65.0,60.0,60.0,0.0,0.0
2008,77.0,60.0,60.0,0.0,0.0
2009,77.0,59.0,120.0,0.0,0.0
2010,58.0,60.0,60.0,1.0,0.0
2011,61.0,1.0,60.0,1.0,0.0
2012,78.0,60.0,60.0,0.0,0.0
2013,58.0,0.0,60.0,1.0,0.0
2014,61.0,0.0,60.0,1.0,0.0
2015,77.0,60.0,60.0,0.0,0.0
2016,60.0,60.0,60.0,1.0,0.0
2017,77.0,59.0,120.0,0.0,0.0
2018,63.0,1.0,60.0,1.0,0.0
2019,69.0,0.0,60.0,0.0,0.0
2020,60.0,60.0,60.0,1.0,0.0
2021,63.0,0.0,60.0,1.0,0.0
2022,70.0,60.0,60.0,0.0,0.0
2023,57.0,60.0,60.0,1.0,0.0
2024,72.0,0.0,60.0,0.0,0.0
2025,69.0,60.0,60.0,0.0,0.0
2026,60.0,0.0,60.0,1.0,0.0
2027,57.0,0.0,60.0,1.0,0.0
2028,65.0,60.0,60.0,0.0,0.0
2029,60.0,0.0,60.0,1.0,0.0
2030,77.0,60.0,60.0,0.0,0.0
2031,58.0,56.0,60.0,1.0,0.0
2032,75.0,4.0,120.0,0.0,0.0
2033,61.0,60.0,60.0,1.0,0.0
2034,73.0,4.0,120.0,0.0,0.0
2035,58.0,56.0,60.0,1.0,0.0
2036,61.0,60.0,60.0,1.0,0.0
2037,49.0,56.0,60.0,1.0,0.0
2038,70.0,4.0,120.0,0.0,0.0
2039,58.0,60.0,60.0,1.0,0.0
2040,53.0,0.0,60.0,1.0,0.0
2041,82.0,60.0,60.0,0.0,0.0
2042,77.0,0.0,60.0,0.0,0.0
2043,58.0,60.0,60.0,1.0,0.0
2044,51.0,60.0,60.0,1.0,0.0
2045,78.0,57.0,120.0,0.0,0.0
2046,58.0,3.0,60.0,1.0,0.0
2047,54.0,0.0,60.0,1.0,0.0
2048,75.0,60.0,60.0,0.0,0.0
2049,60.0,60.0,60.0,1.0,0.0
2050,72.0,0.0,60.0,0.0,0.0
2051,73.0,0.0,60.0,0.0,0.0
2052,58.0,60.0,60.0,1.0,0.0
2053,77.0,0.0,60.0,0.0,0.0
2054,53.0,60.0,60.0,1.0,0.0
2055,75.0,0.0,60.0,0.0,0.0
2056,57.0,60.0,60.0,1.0,0.0
2057,53.0,60.0,60.0,1.0,0.0
2058,72.0,0.0,60.0,0.0,0.0
2059,58.0,60.0,60.0,1.0,0.0
2060,70.0,56.0,120.0,0.0,0.0
2061,53.0,4.0,60.0,1.0,0.0
2062,46.0,120.0,60.0,1.0,0.0
2063,77.0,56.0,120.0,0.0,0.0
2064,58.0,60.0,60.0,1.0,0.0
2065,61.0,4.0,60.0,1.0,0.0
2066,58.0,60.0,60.0,1.0,0.0
2067,78.0,0.0,60.0,0.0,0.0
2068,77.0,0.0,60.0,0.0,0.0
2069,61.0,60.0,60.0,1.0,0.0
2070,53.0,60.0,60.0,1.0,0.0
2071,80.0,55.0,240.0,0.0,0.0
2072,60.0,60.0,60.0,1.0,0.0
2073,53.0,60.0,60.0,1.0,0.0
2074,60.0,5.0,60.0,1.0,0.0
2075,54.0,60.0,60.0,1.0,0.0
2076,73.0,55.0,120.0,0.0,0.0
2077,58.0,5.0,60.0,1.0,0.0
2078,75.0,0.0,60.0,0.0,0.0
2079,54.0,60.0,60.0,1.0,0.0
2080,58.0,0.0,60.0,1.0,0.0
2081,73.0,60.0,60.0,0.0,0.0
2082,49.0,60.0,60.0,1.0,0.0
2083,77.0,59.0,240.0,0.0,0.0
2084,56.0,60.0,60.0,1.0,0.0
2085,49.0,60.0,60.0,1.0,0.0
2086,56.0,1.0,60.0,1.0,0.0
2087,54.0,56.0,120.0,1.0,0.0
2088,82.0,60.0,60.0,0.0,0.0
2089,73.0,4.0,60.0,0.0,0.0
2090,82.0,60.0,60.0,0.0,0.0
2091,58.0,0.0,60.0,1.0,0.0
2092,61.0,0.0,60.0,1.0,0.0
2093,73.0,60.0,60.0,0.0,0.0
2094,53.0,59.0,240.0,1.0,0.0
2095,80.0,60.0,60.0,0.0,0.0
2096,73.0,60.0,60.0,0.0,0.0
2097,80.0,60.0,60.0,0.0,0.0
2098,73.0,1.0,60.0,0.0,0.0
2099,78.0,60.0,60.0,0.0,0.0
2100,51.0,57.0,120.0,1.0,0.0
2101,70.0,3.0,60.0,0.0,0.0
2102,54.0,0.0,60.0,1.0,0.0
2103,78.0,60.0,60.0,0.0,0.0
2104,58.0,0.0,60.0,1.0,0.0
2105,70.0,60.0,60.0,0.0,0.0
2106,77.0,60.0,60.0,0.0,0.0
2107,49.0,59.0,240.0,1.0,0.0
2108,70.0,60.0,60.0,0.0,0.0
2109,77.0,60.0,60.0,0.0,0.0
2110,70.0,1.0,60.0,0.0,0.0
2111,45.0,57.0,120.0,1.0,0.0
2112,75.0,60.0,60.0,0.0,0.0
2113,72.0,3.0,60.0,0.0,0.0
2114,73.0,60.0,60.0,0.0,0.0
2115,46.0,58.0,120.0,1.0,0.0
2116,70.0,2.0,60.0,0.0,0.0
2117,72.0,60.0,60.0,0.0,0.0
2118,41.0,59.0,120.0,1.0,0.0
2119,69.0,1.0,60.0,0.0,0.0
2120,65.0,60.0,60.0,0.0,0.0
2121,77.0,60.0,60.0,0.0,0.0
2122,77.0,59.0,120.0,0.0,0.0
2123,58.0,60.0,60.0,1.0,0.0
2124,61.0,1.0,60.0,1.0,0.0
2125,58.0,0.0,60.0,1.0,0.0
2126,78.0,60.0,60.0,0.0,0.0
2127,61.0,0.0,60.0,1.0,0.0
2128,77.0,60.0,60.0,0.0,0.0
2129,60.0,60.0,60.0,1.0,0.0
2130,77.0,59.0,120.0,0.0,0.0
2131,63.0,1.0,60.0,1.0,0.0
2132,60.0,60.0,60.0,1.0,0.0
2133,69.0,0.0,60.0,0.0,0.0
2134,70.0,0.0,60.0,0.0,0.0
2135,63.0,60.0,60.0,1.0,0.0
2136,57.0,0.0,60.0,1.0,0.0
2137,72.0,60.0,60.0,0.0,0.0
2138,60.0,0.0,60.0,1.0,0.0
2139,69.0,60.0,60.0,0.0,0.0
2140,57.0,60.0,60.0,1.0,0.0
2141,65.0,0.0,60.0,0.0,0.0
2142,77.0,60.0,60.0,0.0,0.0
2143,60.0,0.0,60.0,1.0,0.0
2144,58.0,56.0,60.0,1.0,0.0
2145,75.0,4.0,120.0,0.0,0.0
2146,61.0,60.0,60.0,1.0,0.0
2147,73.0,4.0,120.0,0.0,0.0
2148,58.0,56.0,60.0,1.0,0.0
2149,61.0,60.0,60.0,1.0,0.0
2150,49.0,56.0,60.0,1.0,0.0
2151,70.0,4.0,120.0,0.0,0.0
2152,58.0,60.0,60.0,1.0,0.0
2153,82.0,60.0,60.0,0.0,0.0
2154,53.0,0.0,60.0,1.0,0.0
2155,58.0,60.0,60.0,1.0,0.0
2156,77.0,0.0,60.0,0.0,0.0
2157,51.0,60.0,60.0,1.0,0.0
2158,78.0,57.0,120.0,0.0,0.0
2159,58.0,3.0,60.0,1.0,0.0
2160,54.0,0.0,60.0,1.0,0.0
2161,75.0,60.0,60.0,0.0,0.0
2162,60.0,60.0,60.0,1.0,0.0
2163,72.0,0.0,60.0,0.0,0.0
2164,58.0,60.0,60.0,1.0,0.0
2165,73.0,0.0,60.0,0.0,0.0
2166,53.0,60.0,60.0,1.0,0.0
2167,77.0,0.0,60.0,0.0,0.0
2168,57.0,60.0,60.0,1.0,0.0
2169,75.0,0.0,60.0,0.0,0.0
2170,72.0,60.0,60.0,0.0,0.0
2171,53.0,0.0,60.0,1.0,0.0
2172,58.0,60.0,60.0,1.0,0.0
2173,70.0,56.0,120.0,0.0,0.0
2174,53.0,4.0,60.0,1.0,0.0
2175,46.0,120.0,60.0,1.0,0.0
2176,72.0,4.0,120.0,0.0,0.0
2177,54.0,56.0,60.0,1.0,0.0
2178,51.0,60.0,60.0,1.0,0.0
2179,44.0,120.0,60.0,1.0,0.0
2180,53.0,56.0,60.0,1.0,0.0
2181,73.0,4.0,120.0,0.0,0.0
2182,49.0,60.0,60.0,1.0,0.0
2183,44.0,120.0,60.0,1.0,0.0
2184,75.0,4.0,120.0,0.0,0.0
2185,51.0,56.0,60.0,1.0,0.0
2186,48.0,60.0,60.0,1.0,0.0
2187,44.0,120.0,60.0,1.0,0.0
2188,49.0,56.0,60.0,1.0,0.0
2189,77.0,4.0,120.0,0.0,0.0
2190,44.0,60.0,60.0,1.0,0.0
2191,37.0,183.0,60.0,1.0,0.0
2192,32.0,0.0,120.0,1.0,0.0
2193,36.0,0.0,120.0,1.0,0.0
2194,39.0,0.0,120.0,1.0,0.0
2195,44.0,0.0,120.0,1.0,0.0
2196,78.0,57.0,120.0,0.0,0.0
2197,77.0,60.0,60.0,0.0,0.0
2198,75.0,124.0,60.0,0.0,0.0
2199,82.0,56.0,120.0,0.0,0.0
2200,80.0,60.0,60.0,0.0,0.0
2201,78.0,60.0,60.0,0.0,0.0
2202,77.0,60.0,60.0,0.0,0.0
2203,75.0,60.0,60.0,0.0,0.0
2204,78.0,60.0,60.0,0.0,0.0
2205,77.0,1.0,15.0,0.0,0.0
2206,75.0,0.0,15.0,0.0,0.0
2207,73.0,0.0,15.0,0.0,0.0
2208,72.0,0.0,15.0,0.0,0.0
2209,70.0,56.0,60.0,0.0,0.0
2210,53.0,60.0,60.0,1.0,0.0
2211,68.0,0.0,60.0,0.0,0.0
2212,49.0,60.0,60.0,1.0,0.0
2213,73.0,0.0,60.0,0.0,0.0
2214,52.0,60.0,60.0,1.0,0.0
2215,67.0,0.0,60.0,0.0,0.0
2216,73.0,0.0,60.0,0.0,0.0
2217,49.0,60.0,60.0,1.0,0.0
2218,68.0,56.0,180.0,0.0,0.0
2219,53.0,60.0,60.0,1.0,0.0
2220,49.0,60.0,60.0,1.0,0.0
2221,53.0,4.0,60.0,1.0,0.0
2222,69.0,56.0,60.0,0.0,0.0
2223,49.0,4.0,60.0,1.0,0.0
2224,54.0,0.0,60.0,1.0,0.0
2225,70.0,60.0,60.0,0.0,0.0
2226,49.0,0.0,60.0,1.0,0.0
2227,73.0,60.0,60.0,0.0,0.0
2228,53.0,0.0,60.0,1.0,0.0
2229,69.0,60.0,60.0,0.0,0.0
2230,49.0,60.0,60.0,1.0,0.0
2231,73.0,0.0,60.0,0.0,0.0
2232,54.0,60.0,60.0,1.0,0.0
2233,70.0,14.0,180.0,0.0,0.0
2234,49.0,60.0,60.0,1.0,0.0
2235,54.0,4.0,60.0,1.0,0.0
2236,75.0,15.0,15.0,0.0,0.0
2237,49.0,0.0,60.0,1.0,0.0
2238,73.0,15.0,15.0,0.0,0.0
2239,72.0,15.0,15.0,0.0,0.0
2240,73.0,60.0,15.0,0.0,0.0
2241,72.0,60.0,60.0,0.0,0.0
2242,51.0,0.0,60.0,1.0,0.0
2243,54.0,0.0,60.0,1.0,0.0
2244,80.0,57.0,60.0,0.0,0.0
2245,44.0,0.0,60.0,1.0,0.0
2246,51.0,0.0,60.0,1.0,0.0
2247,54.0,57.0,60.0,1.0,0.0
2248,80.0,3.0,60.0,0.0,0.0
2249,44.0,60.0,60.0,1.0,0.0
2250,80.0,3.0,60.0,0.0,0.0
2251,80.0,29.0,120.0,0.0,0.0
2252,49.0,60.0,60.0,1.0,0.0
2253,53.0,0.0,60.0,1.0,0.0
2254,44.0,1.0,60.0,1.0,0.0
2255,53.0,0.0,60.0,1.0,0.0
2256,49.0,30.0,60.0,1.0,0.0
2257,77.0,30.0,30.0,0.0,0.0
2258,73.0,0.0,30.0,0.0,0.0
2259,44.0,60.0,60.0,1.0,0.0
2260,77.0,30.0,30.0,0.0,0.0
2261,80.0,0.0,30.0,0.0,0.0
2262,78.0,0.0,60.0,0.0,0.0
2263,51.0,0.0,60.0,1.0,0.0
2264,48.0,30.0,60.0,1.0,0.0
2265,44.0,0.0,60.0,1.0,0.0
2266,75.0,30.0,30.0,0.0,0.0
2267,78.0,60.0,30.0,0.0,0.0
2268,49.0,0.0,60.0,1.0,0.0
2269,77.0,30.0,60.0,0.0,0.0
2270,53.0,0.0,60.0,1.0,0.0
2271,73.0,30.0,30.0,0.0,0.0
2272,44.0,59.0,60.0,1.0,0.0
2273,77.0,1.0,30.0,0.0,0.0
2274,56.0,0.0,120.0,1.0,0.0
2275,75.0,30.0,60.0,0.0,0.0
2276,44.0,2.0,120.0,1.0,0.0
2277,48.0,1.0,120.0,1.0,0.0
2278,51.0,25.0,120.0,1.0,0.0
2279,77.0,30.0,30.0,0.0,0.0
2280,75.0,2.0,30.0,0.0,0.0
2281,73.0,30.0,30.0,0.0,0.0
2282,72.0,30.0,30.0,0.0,0.0
2283,70.0,30.0,30.0,0.0,0.0
2284,68.0,57.0,30.0,0.0,0.0
2285,68.0,0.0,60.0,0.0,0.0
2286,53.0,60.0,60.0,1.0,0.0
2287,73.0,0.0,60.0,0.0,0.0
2288,49.0,60.0,60.0,1.0,0.0
2289,67.0,0.0,60.0,0.0,0.0
2290,52.0,60.0,60.0,1.0,0.0
2291,73.0,0.0,60.0,0.0,0.0
2292,49.0,60.0,60.0,1.0,0.0
2293,68.0,56.0,180.0,0.0,0.0
2294,53.0,60.0,60.0,1.0,0.0
2295,49.0,60.0,60.0,1.0,0.0
2296,53.0,4.0,60.0,1.0,0.0
2297,49.0,3.0,60.0,1.0,0.0
2298,69.0,57.0,60.0,0.0,0.0
2299,54.0,0.0,60.0,1.0,0.0
2300,70.0,60.0,60.0,0.0,0.0
2301,49.0,60.0,60.0,1.0,0.0
2302,73.0,0.0,60.0,0.0,0.0
2303,69.0,0.0,60.0,0.0,0.0
2304,53.0,60.0,60.0,1.0,0.0
2305,73.0,0.0,60.0,0.0,0.0
2306,49.0,60.0,60.0,1.0,0.0
2307,54.0,60.0,60.0,1.0,0.0
2308,70.0,14.0,180.0,0.0,0.0
2309,49.0,60.0,60.0,1.0,0.0
2310,54.0,4.0,60.0,1.0,0.0
2311,75.0,15.0,15.0,0.0,0.0
2312,49.0,60.0,60.0,1.0,0.0
2313,73.0,15.0,15.0,0.0,0.0
2314,72.0,15.0,15.0,0.0,0.0
2315,73.0,0.0,15.0,0.0,0.0
2316,54.0,0.0,60.0,1.0,0.0
2317,51.0,60.0,60.0,1.0,0.0
2318,72.0,0.0,60.0,0.0,0.0
2319,44.0,57.0,60.0,1.0,0.0
2320,80.0,0.0,60.0,0.0,0.0
2321,80.0,3.0,60.0,0.0,0.0
2322,51.0,57.0,60.0,1.0,0.0
2323,54.0,0.0,60.0,1.0,0.0
2324,80.0,3.0,60.0,0.0,0.0
2325,44.0,121.0,60.0,1.0,0.0
2326,49.0,0.0,120.0,1.0,0.0
2327,53.0,3.0,120.0,1.0,0.0
2328,80.0,26.0,120.0,0.0,0.0
2329,78.0,30.0,30.0,0.0,0.0
2330,77.0,30.0,30.0,0.0,0.0
2331,75.0,30.0,30.0,0.0,0.0
2332,73.0,60.0,30.0,0.0,0.0
2333,75.0,30.0,60.0,0.0,0.0
2334,54.0,0.0,60.0,1.0,0.0
2335,58.0,0.0,60.0,1.0,0.0
2336,75.0,30.0,30.0,0.0,0.0
2337,78.0,60.0,30.0,0.0,0.0
2338,51.0,0.0,60.0,1.0,0.0
2339,44.0,0.0,60.0,1.0,0.0
2340,72.0,30.0,60.0,0.0,0.0
2341,72.0,30.0,30.0,0.0,0.0
2342,54.0,0.0,60.0,1.0,0.0
2343,75.0,60.0,30.0,0.0,0.0
2344,53.0,0.0,60.0,1.0,0.0
2345,49.0,60.0,60.0,1.0,0.0
2346,73.0,59.0,120.0,0.0,0.0
2347,56.0,1.0,60.0,1.0,0.0
2348,53.0,181.0,60.0,1.0,0.0
2349,49.0,0.0,60.0,1.0,0.0
2350,63.0,0.0,120.0,1.0,0.0
2351,56.0,0.0,120.0,1.0,0.0
2352,72.0,240.0,120.0,0.0,0.0
2353,80.0,0.0,120.0,0.0,0.0
2354,61.0,0.0,120.0,1.0,0.0
2355,65.0,0.0,120.0,1.0,0.0
2356,73.0,240.0,120.0,0.0,0.0
2357,77.0,0.0,120.0,0.0,0.0
2358,72.0,0.0,120.0,0.0,0.0
2359,66.0,0.0,120.0,0.0,0.0
2360,63.0,0.0,120.0,0.0,0.0
2361,44.0,0.0,15.0,1.0,0.0
2362,66.0,0.0,120.0,0.0,0.0
2363,63.0,0.0,120.0,0.0,0.0
2364,72.0,0.0,120.0,0.0,0.0
2365,56.0,120.0,15.0,1.0,0.0
2366,49.0,0.0,120.0,1.0,0.0
2367,73.0,0.0,120.0,0.0,0.0
2368,61.0,0.0,120.0,0.0,0.0
2369,65.0,0.0,120.0,0.0,0.0
2370,37.0,0.0,120.0,1.0,0.0
