,note,step,duration,channel,velocity
0,91.0,0.0,600.0,0.0,0.0
1,83.0,0.0,600.0,0.0,0.0
2,67.0,6.0,120.0,8.0,0.0
3,59.0,0.0,120.0,8.0,0.0
4,79.0,0.0,600.0,8.0,0.0
5,79.0,1.0,600.0,5.0,0.0
6,67.0,0.0,600.0,5.0,0.0
7,83.0,0.0,600.0,1.0,0.0
8,79.0,0.0,600.0,1.0,0.0
9,67.0,0.0,600.0,4.0,0.0
10,59.0,0.0,600.0,4.0,0.0
11,67.0,0.0,600.0,10.0,0.0
12,59.0,0.0,600.0,10.0,0.0
13,71.0,0.0,600.0,2.0,0.0
14,79.0,2.0,600.0,2.0,0.0
15,59.0,0.0,600.0,11.0,0.0
16,55.0,1.0,600.0,11.0,0.0
17,43.0,1.0,600.0,12.0,0.0
18,59.0,1.0,600.0,3.0,0.0
19,55.0,384.0,120.0,6.0,0.0
20,55.0,0.0,600.0,3.0,0.0
21,43.0,13.0,600.0,13.0,0.0
22,43.0,30.0,30.0,7.0,0.0
23,47.0,30.0,30.0,7.0,0.0
24,50.0,30.0,30.0,7.0,0.0
25,55.0,1.0,30.0,7.0,0.0
26,59.0,20.0,20.0,7.0,0.0
27,62.0,20.0,20.0,7.0,0.0
28,67.0,24.0,20.0,7.0,0.0
29,71.0,24.0,20.0,7.0,0.0
30,59.0,24.0,20.0,7.0,0.0
31,62.0,24.0,20.0,7.0,0.0
32,67.0,24.0,20.0,7.0,0.0
33,71.0,30.0,20.0,7.0,0.0
34,55.0,30.0,30.0,7.0,0.0
35,59.0,30.0,30.0,7.0,0.0
36,62.0,30.0,30.0,7.0,0.0
37,67.0,20.0,30.0,7.0,0.0
38,71.0,20.0,20.0,7.0,0.0
39,74.0,20.0,20.0,7.0,0.0
40,79.0,24.0,20.0,7.0,0.0
41,71.0,24.0,20.0,7.0,0.0
42,83.0,24.0,20.0,7.0,0.0
43,74.0,24.0,20.0,7.0,0.0
44,79.0,24.0,20.0,7.0,0.0
45,83.0,30.0,20.0,7.0,0.0
46,67.0,30.0,30.0,7.0,0.0
47,71.0,30.0,30.0,7.0,0.0
48,74.0,30.0,30.0,7.0,0.0
49,79.0,17.0,30.0,7.0,0.0
50,83.0,17.0,15.0,7.0,0.0
51,86.0,18.0,15.0,7.0,0.0
52,91.0,17.0,15.0,7.0,0.0
53,95.0,15.0,15.0,7.0,0.0
54,86.0,18.0,15.0,7.0,0.0
55,91.0,17.0,15.0,7.0,0.0
56,95.0,31.0,15.0,7.0,0.0
57,98.0,30.0,30.0,7.0,0.0
58,97.0,30.0,30.0,7.0,0.0
59,98.0,30.0,30.0,7.0,0.0
60,97.0,30.0,30.0,7.0,0.0
61,98.0,30.0,30.0,7.0,0.0
62,97.0,30.0,30.0,7.0,0.0
63,98.0,30.0,30.0,7.0,0.0
64,97.0,30.0,30.0,7.0,0.0
65,98.0,30.0,30.0,7.0,0.0
66,97.0,30.0,30.0,7.0,0.0
67,98.0,30.0,30.0,7.0,0.0
68,97.0,30.0,30.0,7.0,0.0
69,98.0,30.0,30.0,7.0,0.0
70,97.0,30.0,30.0,7.0,0.0
71,98.0,30.0,30.0,7.0,0.0
72,97.0,30.0,30.0,7.0,0.0
73,98.0,30.0,30.0,7.0,0.0
74,90.0,30.0,30.0,7.0,0.0
75,93.0,30.0,30.0,7.0,0.0
76,91.0,30.0,30.0,7.0,0.0
77,95.0,30.0,30.0,7.0,0.0
78,85.0,30.0,30.0,7.0,0.0
79,88.0,30.0,30.0,7.0,0.0
80,86.0,30.0,30.0,7.0,0.0
81,91.0,30.0,30.0,7.0,0.0
82,82.0,30.0,30.0,7.0,0.0
83,84.0,30.0,30.0,7.0,0.0
84,83.0,30.0,30.0,7.0,0.0
85,86.0,30.0,30.0,7.0,0.0
86,78.0,30.0,30.0,7.0,0.0
87,81.0,30.0,30.0,7.0,0.0
88,79.0,30.0,30.0,7.0,0.0
89,83.0,30.0,30.0,7.0,0.0
90,73.0,30.0,30.0,7.0,0.0
91,76.0,30.0,30.0,7.0,0.0
92,74.0,30.0,30.0,7.0,0.0
93,79.0,30.0,30.0,7.0,0.0
94,70.0,30.0,30.0,7.0,0.0
95,72.0,30.0,30.0,7.0,0.0
96,71.0,30.0,30.0,7.0,0.0
97,74.0,30.0,30.0,7.0,0.0
98,66.0,30.0,30.0,7.0,0.0
99,69.0,30.0,30.0,7.0,0.0
100,67.0,20.0,30.0,7.0,0.0
101,69.0,20.0,20.0,7.0,0.0
102,67.0,20.0,20.0,7.0,0.0
103,69.0,20.0,20.0,7.0,0.0
104,67.0,20.0,20.0,7.0,0.0
105,69.0,20.0,20.0,7.0,0.0
106,67.0,20.0,20.0,7.0,0.0
107,69.0,20.0,20.0,7.0,0.0
108,67.0,20.0,20.0,7.0,0.0
109,69.0,20.0,20.0,7.0,0.0
110,67.0,20.0,20.0,7.0,0.0
111,69.0,20.0,20.0,7.0,0.0
112,67.0,20.0,20.0,7.0,0.0
113,69.0,20.0,20.0,7.0,0.0
114,67.0,20.0,20.0,7.0,0.0
115,69.0,20.0,20.0,7.0,0.0
116,67.0,20.0,20.0,7.0,0.0
117,69.0,20.0,20.0,7.0,0.0
118,67.0,20.0,20.0,7.0,0.0
119,69.0,20.0,20.0,7.0,0.0
120,67.0,20.0,20.0,7.0,0.0
121,69.0,20.0,20.0,7.0,0.0
122,67.0,20.0,20.0,7.0,0.0
123,69.0,20.0,20.0,7.0,0.0
124,67.0,20.0,20.0,7.0,0.0
125,69.0,20.0,20.0,7.0,0.0
126,67.0,20.0,20.0,7.0,0.0
127,69.0,20.0,20.0,7.0,0.0
128,67.0,20.0,20.0,7.0,0.0
129,69.0,20.0,20.0,7.0,0.0
130,67.0,20.0,20.0,7.0,0.0
131,69.0,20.0,20.0,7.0,0.0
132,67.0,20.0,20.0,7.0,0.0
133,69.0,20.0,20.0,7.0,0.0
134,67.0,20.0,20.0,7.0,0.0
135,69.0,20.0,20.0,7.0,0.0
136,67.0,30.0,20.0,7.0,0.0
137,66.0,30.0,30.0,7.0,0.0
138,67.0,30.0,30.0,7.0,0.0
139,69.0,30.0,30.0,7.0,0.0
140,71.0,30.0,30.0,7.0,0.0
141,72.0,30.0,30.0,7.0,0.0
142,74.0,30.0,30.0,7.0,0.0
143,76.0,30.0,30.0,7.0,0.0
144,78.0,30.0,30.0,7.0,0.0
145,79.0,30.0,30.0,7.0,0.0
146,81.0,30.0,30.0,7.0,0.0
147,83.0,30.0,30.0,7.0,0.0
148,84.0,30.0,30.0,7.0,0.0
149,86.0,30.0,30.0,7.0,0.0
150,84.0,30.0,30.0,7.0,0.0
151,83.0,30.0,30.0,7.0,0.0
152,84.0,60.0,30.0,7.0,0.0
153,88.0,60.0,60.0,7.0,0.0
154,86.0,60.0,60.0,7.0,0.0
155,84.0,60.0,60.0,7.0,0.0
156,83.0,60.0,15.0,7.0,0.0
157,81.0,60.0,60.0,7.0,0.0
158,79.0,60.0,60.0,7.0,0.0
159,78.0,120.0,60.0,7.0,0.0
160,76.0,0.0,120.0,7.0,0.0
161,72.0,0.0,120.0,7.0,0.0
162,67.0,0.0,120.0,7.0,0.0
163,64.0,0.0,120.0,7.0,0.0
164,36.0,0.0,120.0,7.0,0.0
165,40.0,0.0,120.0,7.0,0.0
166,43.0,6.0,120.0,7.0,0.0
167,48.0,0.0,120.0,7.0,0.0
168,84.0,0.0,600.0,0.0,0.0
169,79.0,0.0,120.0,8.0,0.0
170,88.0,0.0,600.0,0.0,0.0
171,88.0,1.0,600.0,8.0,0.0
172,72.0,0.0,120.0,8.0,0.0
173,76.0,0.0,600.0,1.0,0.0
174,84.0,0.0,600.0,1.0,0.0
175,79.0,0.0,600.0,5.0,0.0
176,67.0,1.0,600.0,5.0,0.0
177,72.0,0.0,600.0,2.0,0.0
178,67.0,0.0,600.0,4.0,0.0
179,55.0,2.0,600.0,4.0,0.0
180,76.0,0.0,600.0,2.0,0.0
181,84.0,0.0,600.0,10.0,0.0
182,76.0,0.0,600.0,10.0,0.0
183,72.0,0.0,600.0,11.0,0.0
184,60.0,1.0,600.0,11.0,0.0
185,48.0,1.0,600.0,12.0,0.0
186,64.0,1.0,600.0,3.0,0.0
187,55.0,384.0,120.0,6.0,0.0
188,60.0,0.0,600.0,3.0,0.0
189,36.0,3.0,600.0,13.0,0.0
190,36.0,30.0,30.0,7.0,0.0
191,40.0,30.0,30.0,7.0,0.0
192,43.0,20.0,30.0,7.0,0.0
193,48.0,0.0,30.0,7.0,0.0
194,52.0,10.0,20.0,7.0,0.0
195,55.0,20.0,20.0,7.0,0.0
196,60.0,24.0,20.0,7.0,0.0
197,64.0,24.0,20.0,7.0,0.0
198,52.0,24.0,20.0,7.0,0.0
199,55.0,24.0,20.0,7.0,0.0
200,60.0,24.0,20.0,7.0,0.0
201,64.0,30.0,20.0,7.0,0.0
202,48.0,30.0,30.0,7.0,0.0
203,52.0,30.0,30.0,7.0,0.0
204,55.0,20.0,30.0,7.0,0.0
205,64.0,10.0,20.0,7.0,0.0
206,60.0,10.0,30.0,7.0,0.0
207,67.0,20.0,20.0,7.0,0.0
208,72.0,28.0,20.0,7.0,0.0
209,76.0,24.0,20.0,7.0,0.0
210,64.0,24.0,20.0,7.0,0.0
211,67.0,24.0,20.0,7.0,0.0
212,72.0,24.0,20.0,7.0,0.0
213,76.0,26.0,20.0,7.0,0.0
214,60.0,30.0,30.0,7.0,0.0
215,64.0,30.0,30.0,7.0,0.0
216,67.0,20.0,30.0,7.0,0.0
217,76.0,10.0,20.0,7.0,0.0
218,72.0,10.0,30.0,7.0,0.0
219,79.0,20.0,20.0,7.0,0.0
220,84.0,30.0,20.0,7.0,0.0
221,88.0,30.0,30.0,7.0,0.0
222,76.0,30.0,30.0,7.0,0.0
223,79.0,30.0,30.0,7.0,0.0
224,84.0,20.0,30.0,7.0,0.0
225,88.0,20.0,20.0,7.0,0.0
226,91.0,20.0,20.0,7.0,0.0
227,96.0,30.0,20.0,7.0,0.0
228,100.0,30.0,30.0,7.0,0.0
229,99.0,30.0,30.0,7.0,0.0
230,100.0,30.0,30.0,7.0,0.0
231,99.0,30.0,30.0,7.0,0.0
232,100.0,30.0,30.0,7.0,0.0
233,90.0,30.0,30.0,7.0,0.0
234,95.0,0.0,30.0,7.0,0.0
235,91.0,30.0,30.0,7.0,0.0
236,96.0,0.0,30.0,7.0,0.0
237,90.0,0.0,30.0,7.0,0.0
238,95.0,30.0,30.0,7.0,0.0
239,96.0,30.0,30.0,7.0,0.0
240,91.0,0.0,30.0,7.0,0.0
241,87.0,30.0,30.0,7.0,0.0
242,83.0,0.0,30.0,7.0,0.0
243,84.0,0.0,30.0,7.0,0.0
244,88.0,30.0,30.0,7.0,0.0
245,83.0,0.0,30.0,7.0,0.0
246,87.0,30.0,30.0,7.0,0.0
247,84.0,0.0,30.0,7.0,0.0
248,88.0,30.0,30.0,7.0,0.0
249,83.0,0.0,30.0,7.0,0.0
250,75.0,30.0,30.0,7.0,0.0
251,84.0,0.0,30.0,7.0,0.0
252,76.0,30.0,30.0,7.0,0.0
253,75.0,0.0,30.0,7.0,0.0
254,83.0,30.0,30.0,7.0,0.0
255,76.0,0.0,30.0,7.0,0.0
256,84.0,30.0,30.0,7.0,0.0
257,75.0,0.0,30.0,7.0,0.0
258,71.0,30.0,30.0,7.0,0.0
259,72.0,0.0,30.0,7.0,0.0
260,76.0,30.0,30.0,7.0,0.0
261,71.0,0.0,30.0,7.0,0.0
262,75.0,30.0,30.0,7.0,0.0
263,72.0,0.0,30.0,7.0,0.0
264,76.0,30.0,30.0,7.0,0.0
265,71.0,0.0,30.0,7.0,0.0
266,63.0,30.0,30.0,7.0,0.0
267,64.0,30.0,30.0,7.0,0.0
268,72.0,0.0,30.0,7.0,0.0
269,63.0,30.0,30.0,7.0,0.0
270,71.0,0.0,30.0,7.0,0.0
271,64.0,30.0,30.0,7.0,0.0
272,72.0,0.0,30.0,7.0,0.0
273,59.0,0.0,30.0,7.0,0.0
274,63.0,30.0,30.0,7.0,0.0
275,60.0,30.0,30.0,7.0,0.0
276,64.0,0.0,30.0,7.0,0.0
277,63.0,0.0,30.0,7.0,0.0
278,59.0,30.0,30.0,7.0,0.0
279,64.0,0.0,30.0,7.0,0.0
280,60.0,20.0,30.0,7.0,0.0
281,66.0,20.0,20.0,7.0,0.0
282,62.0,0.0,20.0,7.0,0.0
283,64.0,20.0,20.0,7.0,0.0
284,60.0,0.0,20.0,7.0,0.0
285,66.0,20.0,20.0,7.0,0.0
286,62.0,0.0,20.0,7.0,0.0
287,60.0,0.0,20.0,7.0,0.0
288,64.0,20.0,20.0,7.0,0.0
289,66.0,0.0,20.0,7.0,0.0
290,62.0,20.0,20.0,7.0,0.0
291,64.0,0.0,20.0,7.0,0.0
292,60.0,20.0,20.0,7.0,0.0
293,66.0,20.0,20.0,7.0,0.0
294,62.0,0.0,20.0,7.0,0.0
295,64.0,0.0,20.0,7.0,0.0
296,60.0,20.0,20.0,7.0,0.0
297,62.0,20.0,20.0,7.0,0.0
298,66.0,0.0,20.0,7.0,0.0
299,60.0,20.0,20.0,7.0,0.0
300,64.0,0.0,20.0,7.0,0.0
301,62.0,0.0,20.0,7.0,0.0
302,66.0,20.0,20.0,7.0,0.0
303,60.0,20.0,20.0,7.0,0.0
304,64.0,0.0,20.0,7.0,0.0
305,62.0,20.0,20.0,7.0,0.0
306,66.0,0.0,20.0,7.0,0.0
307,64.0,0.0,20.0,7.0,0.0
308,60.0,20.0,20.0,7.0,0.0
309,66.0,20.0,20.0,7.0,0.0
310,62.0,0.0,20.0,7.0,0.0
311,64.0,20.0,20.0,7.0,0.0
312,60.0,0.0,20.0,7.0,0.0
313,62.0,0.0,20.0,7.0,0.0
314,66.0,20.0,20.0,7.0,0.0
315,64.0,0.0,20.0,7.0,0.0
316,60.0,20.0,20.0,7.0,0.0
317,62.0,20.0,20.0,7.0,0.0
318,66.0,0.0,20.0,7.0,0.0
319,64.0,0.0,20.0,7.0,0.0
320,60.0,20.0,20.0,7.0,0.0
321,66.0,20.0,20.0,7.0,0.0
322,62.0,0.0,20.0,7.0,0.0
323,64.0,0.0,20.0,7.0,0.0
324,60.0,30.0,20.0,7.0,0.0
325,63.0,0.0,30.0,7.0,0.0
326,59.0,30.0,30.0,7.0,0.0
327,64.0,0.0,30.0,7.0,0.0
328,60.0,30.0,30.0,7.0,0.0
329,66.0,30.0,30.0,7.0,0.0
330,62.0,0.0,30.0,7.0,0.0
331,67.0,30.0,30.0,7.0,0.0
332,64.0,0.0,30.0,7.0,0.0
333,66.0,0.0,30.0,7.0,0.0
334,69.0,30.0,30.0,7.0,0.0
335,67.0,0.0,30.0,7.0,0.0
336,71.0,30.0,30.0,7.0,0.0
337,72.0,30.0,30.0,7.0,0.0
338,69.0,0.0,30.0,7.0,0.0
339,71.0,0.0,30.0,7.0,0.0
340,74.0,20.0,15.0,7.0,0.0
341,78.0,0.0,20.0,7.0,0.0
342,76.0,20.0,20.0,7.0,0.0
343,72.0,0.0,20.0,7.0,0.0
344,74.0,20.0,20.0,7.0,0.0
345,78.0,0.0,20.0,7.0,0.0
346,76.0,20.0,20.0,7.0,0.0
347,72.0,0.0,20.0,7.0,0.0
348,78.0,0.0,20.0,7.0,0.0
349,74.0,20.0,20.0,7.0,0.0
350,72.0,20.0,20.0,7.0,0.0
351,76.0,0.0,20.0,7.0,0.0
352,74.0,0.0,20.0,7.0,0.0
353,78.0,20.0,20.0,7.0,0.0
354,72.0,20.0,20.0,7.0,0.0
355,76.0,0.0,20.0,7.0,0.0
356,78.0,20.0,20.0,7.0,0.0
357,74.0,0.0,20.0,7.0,0.0
358,76.0,20.0,20.0,7.0,0.0
359,72.0,0.0,20.0,7.0,0.0
360,78.0,20.0,20.0,7.0,0.0
361,74.0,0.0,20.0,7.0,0.0
362,72.0,0.0,20.0,7.0,0.0
363,76.0,20.0,20.0,7.0,0.0
364,74.0,20.0,20.0,7.0,0.0
365,78.0,0.0,20.0,7.0,0.0
366,72.0,20.0,20.0,7.0,0.0
367,76.0,0.0,20.0,7.0,0.0
368,78.0,0.0,20.0,7.0,0.0
369,74.0,20.0,20.0,7.0,0.0
370,72.0,20.0,20.0,7.0,0.0
371,76.0,0.0,20.0,7.0,0.0
372,78.0,0.0,20.0,7.0,0.0
373,74.0,20.0,20.0,7.0,0.0
374,76.0,0.0,20.0,7.0,0.0
375,72.0,20.0,20.0,7.0,0.0
376,74.0,0.0,20.0,7.0,0.0
377,78.0,20.0,20.0,7.0,0.0
378,76.0,0.0,20.0,7.0,0.0
379,72.0,20.0,20.0,7.0,0.0
380,74.0,19.0,20.0,7.0,0.0
381,78.0,0.0,20.0,7.0,0.0
382,72.0,20.0,20.0,7.0,0.0
383,76.0,0.0,20.0,7.0,0.0
384,78.0,0.0,20.0,7.0,0.0
385,74.0,20.0,20.0,7.0,0.0
386,72.0,0.0,20.0,7.0,0.0
387,76.0,22.0,20.0,7.0,0.0
388,78.0,20.0,20.0,7.0,0.0
389,74.0,0.0,20.0,7.0,0.0
390,72.0,30.0,20.0,7.0,0.0
391,76.0,0.0,20.0,7.0,0.0
392,71.0,30.0,30.0,7.0,0.0
393,75.0,0.0,30.0,7.0,0.0
394,72.0,0.0,30.0,7.0,0.0
395,76.0,30.0,30.0,7.0,0.0
396,74.0,30.0,30.0,7.0,0.0
397,78.0,0.0,30.0,7.0,0.0
398,76.0,30.0,30.0,7.0,0.0
399,79.0,0.0,30.0,7.0,0.0
400,81.0,30.0,30.0,7.0,0.0
401,78.0,0.0,30.0,7.0,0.0
402,79.0,30.0,30.0,7.0,0.0
403,83.0,0.0,30.0,7.0,0.0
404,81.0,30.0,30.0,7.0,0.0
405,84.0,0.0,30.0,7.0,0.0
406,83.0,30.0,30.0,7.0,0.0
407,86.0,0.0,30.0,7.0,0.0
408,84.0,30.0,30.0,7.0,0.0
409,88.0,0.0,30.0,7.0,0.0
410,86.0,0.0,30.0,7.0,0.0
411,90.0,30.0,30.0,7.0,0.0
412,88.0,0.0,30.0,7.0,0.0
413,91.0,30.0,30.0,7.0,0.0
414,90.0,30.0,30.0,7.0,0.0
415,93.0,0.0,30.0,7.0,0.0
416,91.0,0.0,30.0,7.0,0.0
417,95.0,30.0,30.0,7.0,0.0
418,96.0,0.0,30.0,7.0,0.0
419,93.0,30.0,30.0,7.0,0.0
420,95.0,30.0,30.0,7.0,0.0
421,98.0,0.0,30.0,7.0,0.0
422,96.0,30.0,30.0,7.0,0.0
423,100.0,0.0,30.0,7.0,0.0
424,95.0,0.0,30.0,7.0,0.0
425,98.0,30.0,30.0,7.0,0.0
426,93.0,30.0,30.0,7.0,0.0
427,96.0,0.0,30.0,7.0,0.0
428,95.0,30.0,30.0,7.0,0.0
429,91.0,0.0,30.0,7.0,0.0
430,93.0,0.0,30.0,7.0,0.0
431,90.0,30.0,30.0,7.0,0.0
432,91.0,30.0,30.0,7.0,0.0
433,88.0,0.0,30.0,7.0,0.0
434,86.0,0.0,30.0,7.0,0.0
435,90.0,30.0,30.0,7.0,0.0
436,88.0,30.0,30.0,7.0,0.0
437,84.0,0.0,30.0,7.0,0.0
438,86.0,0.0,30.0,7.0,0.0
439,83.0,30.0,30.0,7.0,0.0
440,84.0,0.0,30.0,7.0,0.0
441,81.0,30.0,30.0,7.0,0.0
442,83.0,30.0,30.0,7.0,0.0
443,79.0,0.0,30.0,7.0,0.0
444,78.0,0.0,30.0,7.0,0.0
445,81.0,30.0,30.0,7.0,0.0
446,76.0,30.0,30.0,7.0,0.0
447,79.0,0.0,30.0,7.0,0.0
448,74.0,30.0,30.0,7.0,0.0
449,78.0,0.0,30.0,7.0,0.0
450,72.0,0.0,30.0,7.0,0.0
451,76.0,90.0,15.0,7.0,0.0
452,79.0,0.0,90.0,7.0,0.0
453,84.0,0.0,90.0,7.0,0.0
454,83.0,150.0,90.0,7.0,0.0
455,74.0,0.0,90.0,7.0,0.0
456,78.0,0.0,90.0,7.0,0.0
457,72.0,0.0,120.0,7.0,0.0
458,76.0,60.0,120.0,7.0,0.0
459,81.0,0.0,120.0,7.0,0.0
460,71.0,0.0,120.0,7.0,0.0
461,83.0,60.0,60.0,7.0,0.0
462,79.0,120.0,60.0,7.0,0.0
463,50.0,0.0,120.0,7.0,0.0
464,45.0,0.0,120.0,7.0,0.0
465,42.0,0.0,120.0,7.0,0.0
466,38.0,0.0,120.0,7.0,0.0
467,72.0,0.0,120.0,7.0,0.0
468,74.0,0.0,15.0,7.0,0.0
469,78.0,0.0,120.0,7.0,0.0
470,84.0,0.0,120.0,7.0,0.0
471,84.0,0.0,600.0,0.0,0.0
472,78.0,0.0,600.0,0.0,0.0
473,81.0,0.0,120.0,7.0,0.0
474,66.0,0.0,120.0,8.0,0.0
475,74.0,0.0,120.0,8.0,0.0
476,84.0,1.0,600.0,8.0,0.0
477,74.0,0.0,600.0,5.0,0.0
478,84.0,1.0,600.0,1.0,0.0
479,81.0,0.0,600.0,1.0,0.0
480,62.0,0.0,600.0,5.0,0.0
481,84.0,0.0,600.0,2.0,0.0
482,78.0,0.0,600.0,2.0,0.0
483,69.0,0.0,600.0,4.0,0.0
484,62.0,2.0,600.0,4.0,0.0
485,81.0,0.0,600.0,10.0,0.0
486,74.0,0.0,600.0,10.0,0.0
487,66.0,1.0,600.0,11.0,0.0
488,62.0,0.0,600.0,11.0,0.0
489,50.0,1.0,600.0,12.0,0.0
490,60.0,0.0,600.0,3.0,0.0
491,57.0,1.0,600.0,3.0,0.0
492,50.0,384.0,120.0,6.0,0.0
493,38.0,23.0,600.0,13.0,0.0
494,50.0,30.0,30.0,7.0,0.0
495,62.0,30.0,30.0,7.0,0.0
496,52.0,30.0,30.0,7.0,0.0
497,64.0,0.0,30.0,7.0,0.0
498,50.0,15.0,60.0,7.0,0.0
499,54.0,15.0,30.0,7.0,0.0
500,66.0,30.0,30.0,7.0,0.0
501,52.0,15.0,60.0,7.0,0.0
502,55.0,15.0,30.0,7.0,0.0
503,67.0,30.0,30.0,7.0,0.0
504,57.0,15.0,30.0,7.0,0.0
505,54.0,15.0,60.0,7.0,0.0
506,69.0,30.0,30.0,7.0,0.0
507,55.0,15.0,60.0,7.0,0.0
508,59.0,15.0,30.0,7.0,0.0
509,71.0,30.0,30.0,7.0,0.0
510,57.0,15.0,60.0,7.0,0.0
511,60.0,15.0,30.0,7.0,0.0
512,72.0,30.0,30.0,7.0,0.0
513,59.0,15.0,60.0,7.0,0.0
514,62.0,15.0,30.0,7.0,0.0
515,74.0,30.0,30.0,7.0,0.0
516,64.0,15.0,30.0,7.0,0.0
517,60.0,15.0,60.0,7.0,0.0
518,76.0,30.0,30.0,7.0,0.0
519,62.0,15.0,60.0,7.0,0.0
520,66.0,15.0,30.0,7.0,0.0
521,78.0,30.0,30.0,7.0,0.0
522,67.0,15.0,30.0,7.0,0.0
523,64.0,15.0,60.0,7.0,0.0
524,79.0,30.0,30.0,7.0,0.0
525,66.0,15.0,60.0,7.0,0.0
526,69.0,15.0,30.0,7.0,0.0
527,81.0,30.0,30.0,7.0,0.0
528,71.0,15.0,30.0,7.0,0.0
529,67.0,15.0,60.0,7.0,0.0
530,83.0,30.0,30.0,7.0,0.0
531,72.0,15.0,30.0,7.0,0.0
532,69.0,15.0,60.0,7.0,0.0
533,84.0,30.0,30.0,7.0,0.0
534,71.0,15.0,60.0,7.0,0.0
535,74.0,15.0,30.0,7.0,0.0
536,86.0,30.0,30.0,7.0,0.0
537,76.0,15.0,30.0,7.0,0.0
538,72.0,15.0,60.0,7.0,0.0
539,88.0,30.0,30.0,7.0,0.0
540,74.0,15.0,60.0,7.0,0.0
541,78.0,15.0,30.0,7.0,0.0
542,90.0,30.0,30.0,7.0,0.0
543,79.0,15.0,30.0,7.0,0.0
544,76.0,15.0,60.0,7.0,0.0
545,91.0,30.0,30.0,7.0,0.0
546,81.0,15.0,30.0,7.0,0.0
547,78.0,15.0,60.0,7.0,0.0
548,93.0,30.0,30.0,7.0,0.0
549,83.0,15.0,30.0,7.0,0.0
550,79.0,15.0,60.0,7.0,0.0
551,95.0,80.0,30.0,7.0,0.0
552,69.0,0.0,90.0,7.0,0.0
553,84.0,0.0,90.0,7.0,0.0
554,96.0,80.0,15.0,7.0,0.0
555,81.0,0.0,15.0,7.0,0.0
556,71.0,0.0,90.0,7.0,0.0
557,86.0,80.0,90.0,7.0,0.0
558,96.0,0.0,90.0,7.0,0.0
559,88.0,0.0,90.0,7.0,0.0
560,81.0,0.0,15.0,7.0,0.0
561,72.0,120.0,90.0,7.0,0.0
562,81.0,0.0,15.0,7.0,0.0
563,90.0,0.0,120.0,7.0,0.0
564,96.0,120.0,120.0,7.0,0.0
565,74.0,0.0,120.0,7.0,0.0
566,79.0,0.0,120.0,7.0,0.0
567,67.0,0.0,120.0,7.0,0.0
568,83.0,180.0,120.0,7.0,0.0
569,95.0,0.0,120.0,7.0,0.0
570,93.0,0.0,180.0,7.0,0.0
571,78.0,0.0,180.0,7.0,0.0
572,87.0,60.0,180.0,7.0,0.0
573,71.0,0.0,180.0,7.0,0.0
574,91.0,0.0,60.0,7.0,0.0
575,64.0,0.0,60.0,7.0,0.0
576,76.0,0.0,60.0,7.0,0.0
577,79.0,60.0,60.0,7.0,0.0
578,67.0,0.0,60.0,7.0,0.0
579,74.0,0.0,60.0,7.0,0.0
580,83.0,60.0,60.0,7.0,0.0
581,89.0,0.0,60.0,7.0,0.0
582,60.0,60.0,60.0,7.0,0.0
583,72.0,0.0,60.0,7.0,0.0
584,88.0,0.0,60.0,7.0,0.0
585,76.0,0.0,60.0,7.0,0.0
586,64.0,0.0,60.0,7.0,0.0
587,86.0,0.0,60.0,7.0,0.0
588,80.0,0.0,60.0,7.0,0.0
589,71.0,60.0,60.0,7.0,0.0
590,57.0,0.0,60.0,7.0,0.0
591,69.0,0.0,60.0,7.0,0.0
592,72.0,60.0,60.0,7.0,0.0
593,84.0,0.0,60.0,7.0,0.0
594,68.0,0.0,60.0,7.0,0.0
595,59.0,0.0,60.0,7.0,0.0
596,74.0,60.0,60.0,7.0,0.0
597,83.0,0.0,60.0,7.0,0.0
598,76.0,60.0,60.0,7.0,0.0
599,60.0,0.0,60.0,7.0,0.0
600,81.0,0.0,60.0,7.0,0.0
601,79.0,0.0,60.0,7.0,0.0
602,70.0,0.0,60.0,7.0,0.0
603,64.0,0.0,15.0,7.0,0.0
604,61.0,60.0,60.0,7.0,0.0
605,69.0,60.0,60.0,7.0,0.0
606,78.0,0.0,60.0,7.0,0.0
607,66.0,0.0,60.0,7.0,0.0
608,62.0,0.0,60.0,7.0,0.0
609,67.0,0.0,60.0,7.0,0.0
610,71.0,60.0,60.0,7.0,0.0
611,76.0,0.0,60.0,7.0,0.0
612,66.0,0.0,60.0,7.0,0.0
613,74.0,0.0,60.0,7.0,0.0
614,62.0,0.0,15.0,7.0,0.0
615,72.0,0.0,60.0,7.0,0.0
616,67.0,0.0,60.0,7.0,0.0
617,63.0,0.0,60.0,7.0,0.0
618,69.0,60.0,15.0,7.0,0.0
619,63.0,0.0,60.0,7.0,0.0
620,69.0,15.0,60.0,7.0,0.0
621,72.0,0.0,60.0,7.0,0.0
622,67.0,0.0,60.0,7.0,0.0
623,67.0,15.0,480.0,7.0,0.0
624,69.0,0.0,480.0,7.0,0.0
625,63.0,0.0,480.0,7.0,0.0
626,74.0,15.0,15.0,7.0,0.0
627,72.0,15.0,15.0,7.0,0.0
628,74.0,15.0,15.0,7.0,0.0
629,72.0,15.0,15.0,7.0,0.0
630,74.0,15.0,15.0,7.0,0.0
631,72.0,15.0,15.0,7.0,0.0
632,74.0,15.0,15.0,7.0,0.0
633,72.0,15.0,15.0,7.0,0.0
634,74.0,15.0,15.0,7.0,0.0
635,72.0,15.0,15.0,7.0,0.0
636,74.0,15.0,15.0,7.0,0.0
637,72.0,15.0,15.0,7.0,0.0
638,74.0,15.0,15.0,7.0,0.0
639,72.0,15.0,15.0,7.0,0.0
640,74.0,15.0,15.0,7.0,0.0
641,72.0,15.0,15.0,7.0,0.0
642,74.0,15.0,15.0,7.0,0.0
643,72.0,15.0,15.0,7.0,0.0
644,74.0,15.0,15.0,7.0,0.0
645,72.0,15.0,15.0,7.0,0.0
646,74.0,15.0,15.0,7.0,0.0
647,72.0,15.0,15.0,7.0,0.0
648,74.0,15.0,15.0,7.0,0.0
649,72.0,15.0,15.0,7.0,0.0
650,74.0,15.0,15.0,7.0,0.0
651,72.0,15.0,15.0,7.0,0.0
652,74.0,15.0,15.0,7.0,0.0
653,72.0,15.0,15.0,7.0,0.0
654,74.0,15.0,15.0,7.0,0.0
655,72.0,15.0,15.0,7.0,0.0
656,74.0,15.0,15.0,7.0,0.0
657,72.0,0.0,15.0,7.0,0.0
658,74.0,15.0,15.0,7.0,0.0
659,69.0,0.0,360.0,7.0,0.0
660,66.0,0.0,360.0,7.0,0.0
661,62.0,0.0,360.0,7.0,0.0
662,72.0,15.0,15.0,7.0,0.0
663,74.0,15.0,15.0,7.0,0.0
664,72.0,15.0,15.0,7.0,0.0
665,74.0,15.0,15.0,7.0,0.0
666,72.0,15.0,15.0,7.0,0.0
667,74.0,15.0,15.0,7.0,0.0
668,72.0,15.0,15.0,7.0,0.0
669,74.0,15.0,15.0,7.0,0.0
670,72.0,15.0,15.0,7.0,0.0
671,74.0,15.0,15.0,7.0,0.0
672,72.0,15.0,15.0,7.0,0.0
673,74.0,15.0,15.0,7.0,0.0
674,72.0,15.0,15.0,7.0,0.0
675,74.0,15.0,15.0,7.0,0.0
676,72.0,15.0,15.0,7.0,0.0
677,74.0,15.0,15.0,7.0,0.0
678,72.0,15.0,15.0,7.0,0.0
679,74.0,15.0,15.0,7.0,0.0
680,72.0,30.0,15.0,7.0,0.0
681,71.0,30.0,30.0,7.0,0.0
682,72.0,30.0,30.0,7.0,0.0
683,74.0,30.0,30.0,7.0,0.0
684,72.0,30.0,30.0,7.0,0.0
685,71.0,30.0,30.0,7.0,0.0
686,69.0,30.0,30.0,7.0,0.0
687,79.0,30.0,30.0,7.0,0.0
688,78.0,30.0,30.0,7.0,0.0
689,76.0,30.0,30.0,7.0,0.0
690,74.0,30.0,30.0,7.0,0.0
691,83.0,30.0,30.0,7.0,0.0
692,81.0,30.0,30.0,7.0,0.0
693,79.0,30.0,30.0,7.0,0.0
694,78.0,30.0,30.0,7.0,0.0
695,86.0,30.0,30.0,7.0,0.0
696,84.0,30.0,30.0,7.0,0.0
697,83.0,30.0,30.0,7.0,0.0
698,81.0,30.0,30.0,7.0,0.0
699,91.0,30.0,30.0,7.0,0.0
700,90.0,30.0,30.0,7.0,0.0
701,88.0,30.0,30.0,7.0,0.0
702,86.0,30.0,30.0,7.0,0.0
703,95.0,30.0,30.0,7.0,0.0
704,93.0,30.0,30.0,7.0,0.0
705,91.0,30.0,30.0,7.0,0.0
706,90.0,30.0,30.0,7.0,0.0
707,98.0,30.0,30.0,7.0,0.0
708,96.0,30.0,30.0,7.0,0.0
709,95.0,30.0,30.0,7.0,0.0
710,93.0,30.0,30.0,7.0,0.0
711,100.0,30.0,30.0,7.0,0.0
712,98.0,30.0,30.0,7.0,0.0
713,96.0,30.0,30.0,7.0,0.0
714,95.0,30.0,30.0,7.0,0.0
715,93.0,30.0,30.0,7.0,0.0
716,91.0,30.0,30.0,7.0,0.0
717,90.0,30.0,30.0,7.0,0.0
718,88.0,30.0,30.0,7.0,0.0
719,86.0,30.0,30.0,7.0,0.0
720,84.0,30.0,30.0,7.0,0.0
721,83.0,30.0,30.0,7.0,0.0
722,81.0,30.0,30.0,7.0,0.0
723,79.0,30.0,30.0,7.0,0.0
724,78.0,30.0,30.0,7.0,0.0
725,76.0,30.0,30.0,7.0,0.0
726,74.0,60.0,30.0,7.0,0.0
727,73.0,180.0,60.0,7.0,0.0
728,66.0,0.0,180.0,7.0,0.0
729,57.0,0.0,180.0,7.0,0.0
730,72.0,0.0,180.0,7.0,0.0
731,60.0,0.0,180.0,7.0,0.0
732,50.0,240.0,15.0,7.0,0.0
733,71.0,0.0,240.0,7.0,0.0
734,67.0,0.0,240.0,7.0,0.0
735,62.0,0.0,15.0,7.0,0.0
736,59.0,120.0,240.0,7.0,0.0
737,55.0,0.0,240.0,7.0,0.0
738,38.0,0.0,240.0,7.0,0.0
739,57.0,0.0,240.0,7.0,0.0
740,66.0,0.0,240.0,7.0,0.0
741,62.0,0.0,240.0,7.0,0.0
742,66.0,2.0,120.0,8.0,0.0
743,60.0,0.0,240.0,7.0,0.0
744,62.0,2.0,120.0,10.0,0.0
745,60.0,1.0,120.0,11.0,0.0
746,57.0,0.0,120.0,11.0,0.0
747,50.0,2.0,120.0,12.0,0.0
748,38.0,113.0,120.0,13.0,0.0
749,43.0,0.0,120.0,7.0,0.0
750,47.0,0.0,120.0,7.0,0.0
751,67.0,2.0,300.0,8.0,0.0
752,50.0,32.0,15.0,7.0,0.0
753,55.0,0.0,120.0,7.0,0.0
754,59.0,2.0,120.0,7.0,0.0
755,62.0,0.0,120.0,7.0,0.0
756,67.0,0.0,120.0,7.0,0.0
757,62.0,2.0,30.0,10.0,0.0
758,55.0,28.0,30.0,11.0,0.0
759,59.0,0.0,30.0,11.0,0.0
760,55.0,2.0,120.0,12.0,0.0
761,43.0,25.0,120.0,13.0,0.0
762,62.0,2.0,30.0,10.0,0.0
763,55.0,0.0,15.0,11.0,0.0
764,59.0,28.0,15.0,11.0,0.0
765,62.0,2.0,15.0,10.0,0.0
766,55.0,0.0,15.0,11.0,0.0
767,55.0,1.0,15.0,11.0,0.0
768,59.0,0.0,15.0,11.0,0.0
769,62.0,2.0,15.0,10.0,0.0
770,55.0,0.0,15.0,11.0,0.0
771,59.0,0.0,30.0,11.0,0.0
772,62.0,2.0,15.0,10.0,0.0
773,55.0,0.0,30.0,11.0,0.0
774,62.0,2.0,15.0,10.0,0.0
775,55.0,28.0,30.0,11.0,0.0
776,59.0,28.0,15.0,11.0,0.0
777,62.0,2.0,30.0,10.0,0.0
778,59.0,26.0,15.0,11.0,0.0
779,55.0,0.0,15.0,11.0,0.0
780,69.0,12.0,20.0,8.0,0.0
781,62.0,2.0,15.0,10.0,0.0
782,59.0,16.0,15.0,11.0,0.0
783,55.0,0.0,15.0,11.0,0.0
784,67.0,20.0,20.0,8.0,0.0
785,62.0,2.0,30.0,10.0,0.0
786,55.0,6.0,15.0,11.0,0.0
787,59.0,0.0,15.0,11.0,0.0
788,66.0,2.0,20.0,8.0,0.0
789,67.0,17.0,60.0,8.0,0.0
790,62.0,2.0,30.0,10.0,0.0
791,59.0,28.0,15.0,11.0,0.0
792,59.0,11.0,15.0,11.0,0.0
793,55.0,0.0,15.0,11.0,0.0
794,69.0,17.0,60.0,8.0,0.0
795,62.0,2.0,15.0,10.0,0.0
796,55.0,0.0,15.0,11.0,0.0
797,59.0,28.0,15.0,11.0,0.0
798,55.0,0.0,30.0,11.0,0.0
799,59.0,28.0,30.0,11.0,0.0
800,71.0,2.0,120.0,8.0,0.0
801,62.0,2.0,15.0,10.0,0.0
802,62.0,2.0,30.0,10.0,0.0
803,55.0,0.0,15.0,11.0,0.0
804,59.0,28.0,15.0,11.0,0.0
805,62.0,2.0,30.0,10.0,0.0
806,55.0,28.0,15.0,11.0,0.0
807,59.0,0.0,15.0,11.0,0.0
808,55.0,26.0,15.0,11.0,0.0
809,59.0,0.0,30.0,11.0,0.0
810,67.0,2.0,120.0,8.0,0.0
811,62.0,2.0,15.0,10.0,0.0
812,55.0,0.0,30.0,11.0,0.0
813,59.0,28.0,30.0,11.0,0.0
814,62.0,2.0,15.0,10.0,0.0
815,59.0,0.0,30.0,11.0,0.0
816,55.0,28.0,30.0,11.0,0.0
817,62.0,2.0,15.0,10.0,0.0
818,55.0,0.0,30.0,11.0,0.0
819,59.0,26.0,15.0,11.0,0.0
820,64.0,2.0,120.0,8.0,0.0
821,62.0,2.0,15.0,10.0,0.0
822,55.0,0.0,15.0,11.0,0.0
823,62.0,2.0,30.0,10.0,0.0
824,59.0,28.0,15.0,11.0,0.0
825,55.0,0.0,15.0,11.0,0.0
826,55.0,28.0,15.0,11.0,0.0
827,62.0,2.0,15.0,10.0,0.0
828,59.0,0.0,15.0,11.0,0.0
829,62.0,2.0,90.0,8.0,0.0
830,62.0,0.0,90.0,4.0,0.0
831,59.0,0.0,90.0,4.0,0.0
832,59.0,28.0,15.0,11.0,0.0
833,55.0,0.0,15.0,11.0,0.0
834,43.0,23.0,90.0,13.0,0.0
835,62.0,2.0,15.0,10.0,0.0
836,59.0,28.0,15.0,11.0,0.0
837,62.0,2.0,15.0,10.0,0.0
838,59.0,0.0,15.0,11.0,0.0
839,55.0,26.0,15.0,11.0,0.0
840,62.0,2.0,30.0,8.0,0.0
841,62.0,2.0,30.0,4.0,0.0
842,59.0,0.0,30.0,4.0,0.0
843,55.0,2.0,15.0,12.0,0.0
844,67.0,2.0,300.0,8.0,0.0
845,62.0,0.0,15.0,10.0,0.0
846,67.0,0.0,300.0,4.0,0.0
847,59.0,2.0,300.0,4.0,0.0
848,59.0,1.0,15.0,11.0,0.0
849,55.0,0.0,15.0,11.0,0.0
850,55.0,2.0,300.0,12.0,0.0
851,43.0,25.0,15.0,13.0,0.0
852,55.0,0.0,30.0,11.0,0.0
853,62.0,2.0,15.0,10.0,0.0
854,59.0,28.0,15.0,11.0,0.0
855,59.0,28.0,15.0,11.0,0.0
856,55.0,0.0,15.0,11.0,0.0
857,62.0,2.0,15.0,10.0,0.0
858,59.0,28.0,15.0,11.0,0.0
859,55.0,0.0,15.0,11.0,0.0
860,62.0,2.0,15.0,10.0,0.0
861,55.0,28.0,15.0,11.0,0.0
862,59.0,0.0,15.0,11.0,0.0
863,62.0,2.0,15.0,10.0,0.0
864,59.0,28.0,30.0,11.0,0.0
865,55.0,0.0,30.0,11.0,0.0
866,62.0,2.0,15.0,10.0,0.0
867,55.0,28.0,30.0,11.0,0.0
868,62.0,2.0,15.0,10.0,0.0
869,59.0,0.0,15.0,11.0,0.0
870,55.0,26.0,30.0,11.0,0.0
871,62.0,0.0,30.0,10.0,0.0
872,69.0,12.0,20.0,8.0,0.0
873,55.0,0.0,15.0,11.0,0.0
874,59.0,1.0,15.0,11.0,0.0
875,67.0,20.0,20.0,8.0,0.0
876,62.0,2.0,15.0,10.0,0.0
877,55.0,0.0,15.0,11.0,0.0
878,59.0,0.0,30.0,11.0,0.0
879,66.0,2.0,20.0,8.0,0.0
880,67.0,17.0,60.0,8.0,0.0
881,55.0,28.0,15.0,11.0,0.0
882,59.0,0.0,30.0,11.0,0.0
883,62.0,2.0,15.0,10.0,0.0
884,55.0,28.0,30.0,11.0,0.0
885,69.0,17.0,60.0,8.0,0.0
886,62.0,2.0,30.0,10.0,0.0
887,59.0,0.0,15.0,11.0,0.0
888,55.0,0.0,30.0,11.0,0.0
889,59.0,11.0,15.0,11.0,0.0
890,71.0,2.0,120.0,8.0,0.0
891,62.0,2.0,15.0,10.0,0.0
892,55.0,0.0,15.0,11.0,0.0
893,59.0,28.0,30.0,11.0,0.0
894,59.0,0.0,30.0,11.0,0.0
895,55.0,28.0,30.0,11.0,0.0
896,62.0,2.0,15.0,10.0,0.0
897,59.0,0.0,30.0,11.0,0.0
898,55.0,26.0,30.0,11.0,0.0
899,62.0,2.0,15.0,10.0,0.0
900,67.0,2.0,120.0,8.0,0.0
901,62.0,2.0,15.0,10.0,0.0
902,55.0,28.0,15.0,11.0,0.0
903,59.0,0.0,15.0,11.0,0.0
904,55.0,28.0,30.0,11.0,0.0
905,59.0,0.0,30.0,11.0,0.0
906,62.0,2.0,15.0,10.0,0.0
907,62.0,2.0,30.0,10.0,0.0
908,55.0,0.0,15.0,11.0,0.0
909,59.0,26.0,15.0,11.0,0.0
910,64.0,2.0,120.0,8.0,0.0
911,62.0,2.0,30.0,10.0,0.0
912,55.0,28.0,30.0,11.0,0.0
913,59.0,0.0,30.0,11.0,0.0
914,55.0,0.0,30.0,11.0,0.0
915,62.0,2.0,15.0,10.0,0.0
916,59.0,28.0,15.0,11.0,0.0
917,62.0,2.0,15.0,10.0,0.0
918,55.0,26.0,15.0,11.0,0.0
919,59.0,0.0,30.0,11.0,0.0
920,62.0,2.0,90.0,8.0,0.0
921,55.0,0.0,90.0,4.0,0.0
922,62.0,0.0,90.0,4.0,0.0
923,55.0,2.0,90.0,12.0,0.0
924,62.0,2.0,15.0,10.0,0.0
925,67.0,0.0,15.0,10.0,0.0
926,59.0,28.0,15.0,11.0,0.0
927,55.0,0.0,15.0,11.0,0.0
928,62.0,0.0,30.0,10.0,0.0
929,67.0,2.0,15.0,10.0,0.0
930,55.0,0.0,30.0,11.0,0.0
931,62.0,2.0,30.0,8.0,0.0
932,67.0,2.0,15.0,10.0,0.0
933,55.0,0.0,30.0,4.0,0.0
934,62.0,0.0,30.0,10.0,0.0
935,59.0,1.0,15.0,11.0,0.0
936,55.0,1.0,30.0,11.0,0.0
937,55.0,2.0,30.0,12.0,0.0
938,43.0,23.0,15.0,13.0,0.0
939,66.0,2.0,240.0,8.0,0.0
940,62.0,2.0,15.0,4.0,0.0
941,72.0,2.0,30.0,10.0,0.0
942,50.0,0.0,240.0,4.0,0.0
943,60.0,0.0,30.0,11.0,0.0
944,50.0,2.0,240.0,12.0,0.0
945,38.0,25.0,240.0,13.0,0.0
946,57.0,28.0,15.0,11.0,0.0
947,60.0,0.0,30.0,11.0,0.0
948,62.0,2.0,15.0,10.0,0.0
949,57.0,0.0,30.0,11.0,0.0
950,57.0,28.0,30.0,11.0,0.0
951,60.0,28.0,15.0,11.0,0.0
952,62.0,2.0,15.0,10.0,0.0
953,62.0,2.0,15.0,10.0,0.0
954,57.0,28.0,15.0,11.0,0.0
955,60.0,0.0,15.0,11.0,0.0
956,62.0,2.0,30.0,10.0,0.0
957,57.0,0.0,15.0,11.0,0.0
958,62.0,0.0,30.0,10.0,0.0
959,57.0,0.0,15.0,11.0,0.0
960,60.0,26.0,15.0,11.0,0.0
961,67.0,2.0,60.0,8.0,0.0
962,59.0,0.0,30.0,11.0,0.0
963,55.0,26.0,30.0,11.0,0.0
964,55.0,2.0,60.0,12.0,0.0
965,43.0,25.0,60.0,13.0,0.0
966,62.0,2.0,15.0,10.0,0.0
967,55.0,0.0,30.0,11.0,0.0
968,62.0,2.0,30.0,10.0,0.0
969,59.0,1.0,15.0,11.0,0.0
970,62.0,2.0,30.0,10.0,0.0
971,59.0,28.0,30.0,11.0,0.0
972,55.0,28.0,15.0,11.0,0.0
973,69.0,2.0,60.0,8.0,0.0
974,64.0,2.0,30.0,10.0,0.0
975,55.0,0.0,15.0,11.0,0.0
976,48.0,2.0,60.0,12.0,0.0
977,36.0,25.0,60.0,13.0,0.0
978,55.0,26.0,15.0,11.0,0.0
979,64.0,2.0,15.0,10.0,0.0
980,64.0,2.0,30.0,10.0,0.0
981,55.0,28.0,15.0,11.0,0.0
982,71.0,2.0,240.0,8.0,0.0
983,62.0,2.0,30.0,10.0,0.0
984,59.0,28.0,30.0,11.0,0.0
985,55.0,28.0,15.0,11.0,0.0
986,38.0,25.0,240.0,13.0,0.0
987,59.0,28.0,30.0,11.0,0.0
988,55.0,0.0,30.0,11.0,0.0
989,62.0,2.0,15.0,10.0,0.0
990,55.0,0.0,15.0,11.0,0.0
991,59.0,28.0,15.0,11.0,0.0
992,62.0,2.0,15.0,10.0,0.0
993,59.0,28.0,15.0,11.0,0.0
994,59.0,28.0,30.0,11.0,0.0
995,55.0,28.0,15.0,11.0,0.0
996,62.0,2.0,15.0,10.0,0.0
997,55.0,0.0,30.0,11.0,0.0
998,62.0,2.0,15.0,10.0,0.0
999,59.0,26.0,15.0,11.0,0.0
1000,55.0,0.0,30.0,11.0,0.0
1001,72.0,2.0,180.0,8.0,0.0
1002,62.0,2.0,15.0,10.0,0.0
1003,54.0,0.0,30.0,11.0,0.0
1004,50.0,2.0,15.0,12.0,0.0
1005,62.0,2.0,30.0,10.0,0.0
1006,57.0,28.0,15.0,11.0,0.0
1007,62.0,2.0,30.0,10.0,0.0
1008,54.0,0.0,15.0,11.0,0.0
1009,57.0,28.0,15.0,11.0,0.0
1010,57.0,28.0,15.0,11.0,0.0
1011,54.0,28.0,30.0,11.0,0.0
1012,62.0,2.0,15.0,10.0,0.0
1013,54.0,0.0,30.0,11.0,0.0
1014,62.0,2.0,30.0,10.0,0.0
1015,57.0,26.0,15.0,11.0,0.0
1016,69.0,2.0,60.0,8.0,0.0
1017,60.0,2.0,30.0,10.0,0.0
1018,62.0,26.0,30.0,11.0,0.0
1019,50.0,2.0,60.0,12.0,0.0
1020,38.0,25.0,15.0,13.0,0.0
1021,60.0,2.0,30.0,10.0,0.0
1022,67.0,2.0,120.0,8.0,0.0
1023,74.0,1.0,300.0,1.0,0.0
1024,71.0,0.0,300.0,1.0,0.0
1025,67.0,0.0,300.0,4.0,0.0
1026,59.0,2.0,120.0,10.0,0.0
1027,79.0,0.0,300.0,2.0,0.0
1028,62.0,1.0,15.0,11.0,0.0
1029,55.0,2.0,120.0,12.0,0.0
1030,62.0,0.0,300.0,3.0,0.0
1031,43.0,27.0,120.0,13.0,0.0
1032,55.0,0.0,30.0,11.0,0.0
1033,59.0,30.0,15.0,11.0,0.0
1034,62.0,26.0,30.0,11.0,0.0
1035,59.0,30.0,15.0,11.0,0.0
1036,55.0,1.0,30.0,11.0,0.0
1037,59.0,0.0,30.0,11.0,0.0
1038,62.0,30.0,30.0,11.0,0.0
1039,59.0,0.0,30.0,11.0,0.0
1040,59.0,30.0,30.0,11.0,0.0
1041,55.0,0.0,30.0,11.0,0.0
1042,62.0,0.0,30.0,11.0,0.0
1043,55.0,0.0,30.0,11.0,0.0
1044,59.0,30.0,15.0,11.0,0.0
1045,62.0,27.0,30.0,11.0,0.0
1046,59.0,30.0,15.0,11.0,0.0
1047,55.0,2.0,30.0,11.0,0.0
1048,59.0,0.0,30.0,11.0,0.0
1049,59.0,2.0,15.0,4.0,0.0
1050,81.0,12.0,20.0,2.0,0.0
1051,67.0,2.0,120.0,4.0,0.0
1052,62.0,8.0,30.0,11.0,0.0
1053,59.0,0.0,30.0,11.0,0.0
1054,62.0,0.0,120.0,3.0,0.0
1055,55.0,16.0,15.0,3.0,0.0
1056,79.0,20.0,20.0,2.0,0.0
1057,55.0,0.0,30.0,11.0,0.0
1058,78.0,2.0,20.0,2.0,0.0
1059,79.0,0.0,60.0,2.0,0.0
1060,59.0,30.0,15.0,11.0,0.0
1061,62.0,27.0,30.0,11.0,0.0
1062,55.0,0.0,30.0,11.0,0.0
1063,71.0,0.0,15.0,1.0,0.0
1064,74.0,1.0,15.0,1.0,0.0
1065,81.0,0.0,60.0,2.0,0.0
1066,59.0,0.0,60.0,4.0,0.0
1067,59.0,2.0,15.0,11.0,0.0
1068,62.0,27.0,30.0,11.0,0.0
1069,62.0,28.0,60.0,3.0,0.0
1070,55.0,0.0,60.0,3.0,0.0
1071,55.0,2.0,30.0,11.0,0.0
1072,67.0,2.0,15.0,4.0,0.0
1073,59.0,0.0,120.0,4.0,0.0
1074,83.0,0.0,120.0,2.0,0.0
1075,62.0,0.0,30.0,11.0,0.0
1076,59.0,0.0,15.0,11.0,0.0
1077,55.0,28.0,120.0,3.0,0.0
1078,62.0,0.0,120.0,3.0,0.0
1079,55.0,0.0,30.0,11.0,0.0
1080,59.0,30.0,15.0,11.0,0.0
1081,62.0,27.0,30.0,11.0,0.0
1082,59.0,30.0,15.0,11.0,0.0
1083,59.0,0.0,15.0,11.0,0.0
1084,55.0,0.0,30.0,11.0,0.0
1085,71.0,1.0,15.0,1.0,0.0
1086,74.0,0.0,15.0,1.0,0.0
1087,79.0,0.0,120.0,2.0,0.0
1088,59.0,0.0,120.0,4.0,0.0
1089,62.0,0.0,30.0,11.0,0.0
1090,59.0,30.0,15.0,11.0,0.0
1091,55.0,0.0,30.0,11.0,0.0
1092,59.0,30.0,15.0,11.0,0.0
1093,62.0,27.0,30.0,11.0,0.0
1094,55.0,2.0,30.0,11.0,0.0
1095,59.0,0.0,30.0,11.0,0.0
1096,74.0,0.0,120.0,1.0,0.0
1097,71.0,1.0,120.0,1.0,0.0
1098,76.0,0.0,120.0,2.0,0.0
1099,67.0,2.0,15.0,4.0,0.0
1100,59.0,0.0,30.0,11.0,0.0
1101,62.0,30.0,30.0,11.0,0.0
1102,55.0,28.0,15.0,3.0,0.0
1103,62.0,0.0,15.0,3.0,0.0
1104,55.0,0.0,30.0,11.0,0.0
1105,59.0,30.0,30.0,11.0,0.0
1106,62.0,0.0,30.0,11.0,0.0
1107,55.0,2.0,30.0,11.0,0.0
1108,59.0,27.0,15.0,11.0,0.0
1109,86.0,0.0,90.0,0.0,0.0
1110,62.0,1.0,90.0,5.0,0.0
1111,59.0,2.0,15.0,4.0,0.0
1112,62.0,0.0,90.0,2.0,0.0
1113,74.0,2.0,90.0,2.0,0.0
1114,74.0,0.0,90.0,10.0,0.0
1115,62.0,30.0,30.0,11.0,0.0
1116,62.0,28.0,15.0,3.0,0.0
1117,55.0,0.0,90.0,6.0,0.0
1118,59.0,0.0,15.0,11.0,0.0
1119,55.0,26.0,30.0,11.0,0.0
1120,59.0,0.0,30.0,11.0,0.0
1121,62.0,1.0,30.0,11.0,0.0
1122,74.0,0.0,15.0,8.0,0.0
1123,86.0,0.0,30.0,0.0,0.0
1124,83.0,1.0,15.0,0.0,0.0
1125,74.0,0.0,15.0,5.0,0.0
1126,74.0,0.0,15.0,1.0,0.0
1127,71.0,0.0,15.0,1.0,0.0
1128,62.0,0.0,30.0,5.0,0.0
1129,59.0,0.0,30.0,4.0,0.0
1130,62.0,0.0,15.0,4.0,0.0
1131,74.0,0.0,30.0,10.0,0.0
1132,74.0,2.0,30.0,2.0,0.0
1133,62.0,0.0,30.0,2.0,0.0
1134,55.0,0.0,30.0,11.0,0.0
1135,55.0,1.0,15.0,12.0,0.0
1136,55.0,1.0,15.0,3.0,0.0
1137,55.0,0.0,30.0,6.0,0.0
1138,43.0,23.0,15.0,13.0,0.0
1139,91.0,1.0,300.0,0.0,0.0
1140,59.0,2.0,120.0,8.0,0.0
1141,79.0,0.0,300.0,8.0,0.0
1142,67.0,0.0,120.0,8.0,0.0
1143,83.0,0.0,300.0,0.0,0.0
1144,79.0,0.0,300.0,5.0,0.0
1145,67.0,0.0,300.0,5.0,0.0
1146,74.0,0.0,15.0,1.0,0.0
1147,67.0,0.0,300.0,4.0,0.0
1148,79.0,0.0,300.0,10.0,0.0
1149,59.0,0.0,120.0,10.0,0.0
1150,71.0,2.0,300.0,2.0,0.0
1151,79.0,0.0,300.0,2.0,0.0
1152,67.0,2.0,120.0,10.0,0.0
1153,59.0,1.0,15.0,11.0,0.0
1154,62.0,30.0,30.0,11.0,0.0
1155,55.0,1.0,15.0,12.0,0.0
1156,62.0,0.0,15.0,3.0,0.0
1157,55.0,28.0,120.0,6.0,0.0
1158,43.0,15.0,300.0,13.0,0.0
1159,59.0,0.0,15.0,11.0,0.0
1160,55.0,0.0,30.0,11.0,0.0
1161,62.0,26.0,30.0,11.0,0.0
1162,59.0,0.0,30.0,11.0,0.0
1163,55.0,2.0,30.0,11.0,0.0
1164,59.0,0.0,30.0,11.0,0.0
1165,62.0,30.0,30.0,11.0,0.0
1166,59.0,0.0,30.0,11.0,0.0
1167,55.0,30.0,30.0,11.0,0.0
1168,59.0,0.0,30.0,11.0,0.0
1169,62.0,0.0,30.0,11.0,0.0
1170,59.0,30.0,15.0,11.0,0.0
1171,55.0,0.0,30.0,11.0,0.0
1172,59.0,30.0,15.0,11.0,0.0
1173,62.0,0.0,30.0,11.0,0.0
1174,55.0,0.0,30.0,11.0,0.0
1175,59.0,26.0,15.0,11.0,0.0
1176,74.0,0.0,120.0,1.0,0.0
1177,71.0,1.0,15.0,1.0,0.0
1178,81.0,12.0,20.0,2.0,0.0
1179,59.0,0.0,15.0,4.0,0.0
1180,59.0,0.0,30.0,11.0,0.0
1181,62.0,8.0,30.0,11.0,0.0
1182,62.0,0.0,15.0,3.0,0.0
1183,55.0,1.0,15.0,3.0,0.0
1184,79.0,20.0,20.0,2.0,0.0
1185,55.0,0.0,30.0,11.0,0.0
1186,78.0,2.0,20.0,2.0,0.0
1187,79.0,0.0,60.0,2.0,0.0
1188,59.0,30.0,15.0,11.0,0.0
1189,62.0,27.0,30.0,11.0,0.0
1190,55.0,0.0,30.0,11.0,0.0
1191,71.0,1.0,60.0,1.0,0.0
1192,74.0,0.0,60.0,1.0,0.0
1193,59.0,0.0,15.0,4.0,0.0
1194,67.0,2.0,15.0,4.0,0.0
1195,81.0,0.0,60.0,2.0,0.0
1196,59.0,2.0,15.0,11.0,0.0
1197,62.0,27.0,30.0,11.0,0.0
1198,55.0,0.0,30.0,11.0,0.0
1199,59.0,2.0,15.0,4.0,0.0
1200,67.0,0.0,120.0,4.0,0.0
1201,83.0,0.0,120.0,2.0,0.0
1202,62.0,0.0,30.0,11.0,0.0
1203,59.0,2.0,15.0,11.0,0.0
1204,62.0,28.0,15.0,3.0,0.0
1205,55.0,0.0,15.0,3.0,0.0
1206,55.0,30.0,30.0,11.0,0.0
1207,59.0,0.0,15.0,11.0,0.0
1208,62.0,0.0,30.0,11.0,0.0
1209,55.0,2.0,30.0,11.0,0.0
1210,59.0,27.0,15.0,11.0,0.0
1211,71.0,1.0,15.0,1.0,0.0
1212,74.0,0.0,15.0,1.0,0.0
1213,79.0,0.0,120.0,2.0,0.0
1214,59.0,2.0,120.0,4.0,0.0
1215,62.0,30.0,30.0,11.0,0.0
1216,59.0,0.0,30.0,11.0,0.0
1217,62.0,28.0,15.0,3.0,0.0
1218,55.0,0.0,15.0,3.0,0.0
1219,55.0,0.0,30.0,11.0,0.0
1220,59.0,30.0,30.0,11.0,0.0
1221,62.0,27.0,30.0,11.0,0.0
1222,59.0,0.0,15.0,11.0,0.0
1223,55.0,0.0,30.0,11.0,0.0
1224,71.0,1.0,15.0,1.0,0.0
1225,74.0,0.0,15.0,1.0,0.0
1226,76.0,0.0,120.0,2.0,0.0
1227,67.0,0.0,15.0,4.0,0.0
1228,62.0,0.0,30.0,11.0,0.0
1229,59.0,2.0,15.0,11.0,0.0
1230,62.0,0.0,15.0,3.0,0.0
1231,55.0,28.0,15.0,3.0,0.0
1232,55.0,30.0,30.0,11.0,0.0
1233,59.0,0.0,30.0,11.0,0.0
1234,62.0,0.0,30.0,11.0,0.0
1235,59.0,27.0,15.0,11.0,0.0
1236,55.0,2.0,30.0,11.0,0.0
1237,83.0,0.0,90.0,0.0,0.0
1238,86.0,0.0,90.0,0.0,0.0
1239,74.0,0.0,90.0,5.0,0.0
1240,74.0,1.0,15.0,1.0,0.0
1241,62.0,0.0,90.0,4.0,0.0
1242,59.0,2.0,15.0,4.0,0.0
1243,59.0,0.0,30.0,11.0,0.0
1244,62.0,30.0,30.0,11.0,0.0
1245,55.0,1.0,90.0,12.0,0.0
1246,55.0,0.0,90.0,6.0,0.0
1247,55.0,0.0,90.0,3.0,0.0
1248,62.0,28.0,15.0,3.0,0.0
1249,43.0,23.0,90.0,13.0,0.0
1250,55.0,0.0,30.0,11.0,0.0
1251,59.0,26.0,15.0,11.0,0.0
1252,62.0,1.0,30.0,11.0,0.0
1253,74.0,1.0,15.0,8.0,0.0
1254,86.0,0.0,30.0,0.0,0.0
1255,83.0,0.0,30.0,0.0,0.0
1256,62.0,0.0,15.0,5.0,0.0
1257,83.0,1.0,15.0,1.0,0.0
1258,74.0,0.0,15.0,1.0,0.0
1259,74.0,0.0,15.0,10.0,0.0
1260,62.0,0.0,15.0,2.0,0.0
1261,74.0,2.0,15.0,2.0,0.0
1262,62.0,0.0,30.0,4.0,0.0
1263,59.0,0.0,30.0,4.0,0.0
1264,59.0,0.0,15.0,11.0,0.0
1265,55.0,1.0,30.0,11.0,0.0
1266,55.0,1.0,30.0,12.0,0.0
1267,55.0,0.0,30.0,6.0,0.0
1268,55.0,1.0,30.0,3.0,0.0
1269,43.0,113.0,30.0,13.0,0.0
1270,62.0,0.0,120.0,8.0,0.0
1271,78.0,1.0,240.0,8.0,0.0
1272,81.0,0.0,240.0,0.0,0.0
1273,90.0,0.0,240.0,0.0,0.0
1274,69.0,2.0,120.0,8.0,0.0
1275,74.0,1.0,15.0,5.0,0.0
1276,62.0,0.0,15.0,5.0,0.0
1277,84.0,0.0,240.0,1.0,0.0
1278,81.0,0.0,240.0,1.0,0.0
1279,69.0,0.0,240.0,4.0,0.0
1280,62.0,2.0,240.0,4.0,0.0
1281,66.0,0.0,240.0,2.0,0.0
1282,78.0,0.0,240.0,2.0,0.0
1283,78.0,0.0,240.0,10.0,0.0
1284,62.0,4.0,120.0,10.0,0.0
1285,69.0,0.0,120.0,10.0,0.0
1286,62.0,1.0,240.0,11.0,0.0
1287,50.0,1.0,240.0,12.0,0.0
1288,50.0,114.0,120.0,6.0,0.0
1289,62.0,0.0,15.0,3.0,0.0
1290,50.0,1.0,240.0,3.0,0.0
1291,38.0,53.0,240.0,13.0,0.0
1292,67.0,0.0,60.0,8.0,0.0
1293,79.0,0.0,60.0,8.0,0.0
1294,83.0,0.0,60.0,0.0,0.0
1295,91.0,1.0,60.0,0.0,0.0
1296,59.0,0.0,60.0,8.0,0.0
1297,83.0,0.0,60.0,1.0,0.0
1298,79.0,0.0,60.0,1.0,0.0
1299,67.0,1.0,60.0,5.0,0.0
1300,67.0,0.0,60.0,2.0,0.0
1301,67.0,2.0,60.0,10.0,0.0
1302,79.0,0.0,60.0,2.0,0.0
1303,67.0,0.0,60.0,4.0,0.0
1304,59.0,0.0,60.0,4.0,0.0
1305,79.0,0.0,60.0,10.0,0.0
1306,59.0,0.0,60.0,10.0,0.0
1307,67.0,1.0,60.0,11.0,0.0
1308,55.0,1.0,60.0,12.0,0.0
1309,55.0,1.0,60.0,6.0,0.0
1310,55.0,0.0,60.0,3.0,0.0
1311,62.0,0.0,60.0,3.0,0.0
1312,43.0,113.0,60.0,13.0,0.0
1313,88.0,0.0,60.0,0.0,0.0
1314,93.0,0.0,60.0,0.0,0.0
1315,76.0,1.0,60.0,8.0,0.0
1316,69.0,0.0,60.0,8.0,0.0
1317,81.0,0.0,60.0,8.0,0.0
1318,79.0,1.0,60.0,1.0,0.0
1319,67.0,0.0,60.0,5.0,0.0
1320,81.0,0.0,60.0,1.0,0.0
1321,76.0,0.0,60.0,10.0,0.0
1322,81.0,0.0,60.0,10.0,0.0
1323,69.0,0.0,60.0,4.0,0.0
1324,79.0,2.0,60.0,2.0,0.0
1325,69.0,0.0,60.0,2.0,0.0
1326,67.0,0.0,60.0,4.0,0.0
1327,69.0,0.0,60.0,10.0,0.0
1328,60.0,1.0,60.0,11.0,0.0
1329,48.0,1.0,60.0,12.0,0.0
1330,55.0,0.0,60.0,6.0,0.0
1331,48.0,0.0,60.0,3.0,0.0
1332,64.0,1.0,60.0,3.0,0.0
1333,36.0,173.0,60.0,13.0,0.0
1334,74.0,1.0,120.0,8.0,0.0
1335,83.0,0.0,240.0,8.0,0.0
1336,95.0,1.0,240.0,0.0,0.0
1337,67.0,0.0,120.0,8.0,0.0
1338,91.0,0.0,240.0,0.0,0.0
1339,62.0,0.0,120.0,5.0,0.0
1340,74.0,1.0,120.0,5.0,0.0
1341,83.0,0.0,240.0,1.0,0.0
1342,79.0,1.0,240.0,1.0,0.0
1343,67.0,0.0,240.0,4.0,0.0
1344,79.0,0.0,240.0,2.0,0.0
1345,83.0,0.0,240.0,10.0,0.0
1346,74.0,4.0,120.0,10.0,0.0
1347,71.0,2.0,240.0,4.0,0.0
1348,71.0,0.0,240.0,2.0,0.0
1349,67.0,0.0,120.0,10.0,0.0
1350,62.0,1.0,240.0,11.0,0.0
1351,50.0,1.0,240.0,12.0,0.0
1352,59.0,1.0,240.0,3.0,0.0
1353,50.0,114.0,120.0,6.0,0.0
1354,55.0,0.0,240.0,3.0,0.0
1355,38.0,113.0,240.0,13.0,0.0
1356,84.0,0.0,180.0,8.0,0.0
1357,66.0,1.0,120.0,8.0,0.0
1358,74.0,0.0,120.0,8.0,0.0
1359,96.0,0.0,180.0,0.0,0.0
1360,84.0,1.0,180.0,1.0,0.0
1361,81.0,0.0,180.0,1.0,0.0
1362,62.0,1.0,120.0,5.0,0.0
1363,74.0,0.0,120.0,5.0,0.0
1364,69.0,2.0,180.0,4.0,0.0
1365,72.0,0.0,180.0,4.0,0.0
1366,81.0,0.0,180.0,2.0,0.0
1367,72.0,0.0,180.0,2.0,0.0
1368,74.0,0.0,120.0,10.0,0.0
1369,66.0,4.0,120.0,10.0,0.0
1370,81.0,0.0,180.0,10.0,0.0
1371,50.0,54.0,120.0,6.0,0.0
1372,38.0,53.0,180.0,13.0,0.0
1373,93.0,1.0,15.0,0.0,0.0
1374,90.0,0.0,60.0,0.0,0.0
1375,81.0,1.0,60.0,8.0,0.0
1376,81.0,0.0,60.0,1.0,0.0
1377,74.0,0.0,60.0,5.0,0.0
1378,62.0,0.0,60.0,5.0,0.0
1379,78.0,1.0,60.0,1.0,0.0
1380,69.0,0.0,60.0,2.0,0.0
1381,78.0,0.0,60.0,2.0,0.0
1382,66.0,0.0,60.0,10.0,0.0
1383,60.0,0.0,60.0,10.0,0.0
1384,62.0,0.0,60.0,4.0,0.0
1385,69.0,2.0,60.0,4.0,0.0
1386,62.0,1.0,15.0,11.0,0.0
1387,50.0,1.0,15.0,12.0,0.0
1388,50.0,0.0,15.0,3.0,0.0
1389,62.0,1.0,15.0,3.0,0.0
1390,50.0,0.0,60.0,6.0,0.0
1391,38.0,25.0,60.0,13.0,0.0
1392,59.0,1.0,120.0,8.0,0.0
1393,67.0,0.0,120.0,8.0,0.0
1394,83.0,0.0,480.0,0.0,0.0
1395,91.0,1.0,480.0,0.0,0.0
1396,79.0,0.0,120.0,5.0,0.0
1397,67.0,1.0,120.0,5.0,0.0
1398,83.0,0.0,480.0,1.0,0.0
1399,79.0,0.0,480.0,1.0,0.0
1400,67.0,0.0,120.0,4.0,0.0
1401,71.0,0.0,480.0,2.0,0.0
1402,59.0,2.0,30.0,10.0,0.0
1403,67.0,0.0,30.0,10.0,0.0
1404,55.0,1.0,480.0,12.0,0.0
1405,67.0,1.0,480.0,3.0,0.0
1406,55.0,0.0,480.0,3.0,0.0
1407,55.0,26.0,120.0,6.0,0.0
1408,43.0,25.0,480.0,13.0,0.0
1409,62.0,28.0,15.0,11.0,0.0
1410,55.0,0.0,15.0,11.0,0.0
1411,59.0,2.0,15.0,10.0,0.0
1412,67.0,0.0,15.0,10.0,0.0
1413,55.0,0.0,15.0,11.0,0.0
1414,67.0,2.0,15.0,10.0,0.0
1415,59.0,0.0,15.0,10.0,0.0
1416,62.0,26.0,15.0,11.0,0.0
1417,74.0,1.0,120.0,5.0,0.0
1418,62.0,0.0,120.0,4.0,0.0
1419,67.0,2.0,15.0,10.0,0.0
1420,59.0,0.0,15.0,10.0,0.0
1421,62.0,2.0,15.0,11.0,0.0
1422,55.0,0.0,15.0,11.0,0.0
1423,67.0,2.0,30.0,10.0,0.0
1424,59.0,2.0,15.0,10.0,0.0
1425,62.0,0.0,30.0,11.0,0.0
1426,55.0,28.0,15.0,11.0,0.0
1427,62.0,0.0,30.0,11.0,0.0
1428,67.0,2.0,15.0,10.0,0.0
1429,59.0,0.0,15.0,10.0,0.0
1430,55.0,28.0,30.0,11.0,0.0
1431,62.0,0.0,30.0,11.0,0.0
1432,71.0,1.0,120.0,5.0,0.0
1433,59.0,2.0,120.0,4.0,0.0
1434,59.0,0.0,30.0,10.0,0.0
1435,62.0,28.0,30.0,11.0,0.0
1436,67.0,2.0,15.0,10.0,0.0
1437,55.0,0.0,15.0,11.0,0.0
1438,62.0,28.0,30.0,11.0,0.0
1439,59.0,2.0,15.0,10.0,0.0
1440,62.0,0.0,30.0,11.0,0.0
1441,67.0,0.0,15.0,10.0,0.0
1442,55.0,26.0,15.0,11.0,0.0
1443,79.0,1.0,15.0,8.0,0.0
1444,67.0,1.0,120.0,5.0,0.0
1445,59.0,0.0,15.0,10.0,0.0
1446,62.0,28.0,15.0,11.0,0.0
1447,55.0,0.0,30.0,11.0,0.0
1448,67.0,2.0,15.0,10.0,0.0
1449,59.0,0.0,15.0,10.0,0.0
1450,62.0,26.0,15.0,11.0,0.0
1451,83.0,2.0,30.0,8.0,0.0
1452,59.0,2.0,30.0,10.0,0.0
1453,67.0,0.0,30.0,10.0,0.0
1454,62.0,0.0,30.0,11.0,0.0
1455,55.0,26.0,15.0,11.0,0.0
1456,86.0,0.0,30.0,8.0,0.0
1457,59.0,0.0,30.0,10.0,0.0
1458,62.0,0.0,30.0,11.0,0.0
1459,55.0,26.0,15.0,11.0,0.0
1460,91.0,2.0,120.0,8.0,0.0
1461,79.0,0.0,480.0,0.0,0.0
1462,91.0,0.0,480.0,0.0,0.0
1463,84.0,0.0,480.0,1.0,0.0
1464,67.0,1.0,480.0,5.0,0.0
1465,79.0,0.0,480.0,1.0,0.0
1466,55.0,0.0,15.0,4.0,0.0
1467,72.0,2.0,480.0,2.0,0.0
1468,79.0,2.0,15.0,2.0,0.0
1469,67.0,0.0,15.0,10.0,0.0
1470,55.0,1.0,15.0,11.0,0.0
1471,64.0,28.0,30.0,11.0,0.0
1472,52.0,1.0,480.0,12.0,0.0
1473,64.0,0.0,480.0,3.0,0.0
1474,52.0,0.0,480.0,3.0,0.0
1475,55.0,26.0,120.0,6.0,0.0
1476,40.0,25.0,480.0,13.0,0.0
1477,60.0,2.0,15.0,10.0,0.0
1478,67.0,0.0,15.0,10.0,0.0
1479,60.0,2.0,30.0,10.0,0.0
1480,64.0,0.0,15.0,11.0,0.0
1481,55.0,28.0,15.0,11.0,0.0
1482,67.0,0.0,30.0,10.0,0.0
1483,64.0,26.0,15.0,11.0,0.0
1484,55.0,2.0,30.0,11.0,0.0
1485,88.0,2.0,120.0,8.0,0.0
1486,60.0,2.0,15.0,10.0,0.0
1487,67.0,0.0,30.0,10.0,0.0
1488,64.0,0.0,15.0,11.0,0.0
1489,55.0,0.0,30.0,11.0,0.0
1490,60.0,0.0,30.0,10.0,0.0
1491,64.0,28.0,15.0,11.0,0.0
1492,67.0,2.0,15.0,10.0,0.0
1493,60.0,2.0,30.0,10.0,0.0
1494,55.0,28.0,15.0,11.0,0.0
1495,64.0,0.0,15.0,11.0,0.0
1496,67.0,2.0,30.0,10.0,0.0
1497,55.0,0.0,15.0,11.0,0.0
1498,64.0,26.0,15.0,11.0,0.0
1499,84.0,2.0,120.0,8.0,0.0
1500,60.0,0.0,15.0,10.0,0.0
1501,67.0,0.0,30.0,10.0,0.0
1502,64.0,28.0,15.0,11.0,0.0
1503,67.0,2.0,30.0,10.0,0.0
1504,60.0,2.0,15.0,10.0,0.0
1505,55.0,28.0,15.0,11.0,0.0
1506,64.0,0.0,15.0,11.0,0.0
1507,60.0,0.0,15.0,10.0,0.0
1508,64.0,0.0,15.0,11.0,0.0
1509,55.0,28.0,15.0,11.0,0.0
1510,60.0,0.0,15.0,10.0,0.0
1511,67.0,2.0,15.0,10.0,0.0
1512,55.0,26.0,15.0,11.0,0.0
1513,64.0,0.0,15.0,11.0,0.0
1514,79.0,1.0,120.0,8.0,0.0
1515,60.0,2.0,30.0,10.0,0.0
1516,67.0,0.0,30.0,10.0,0.0
1517,55.0,0.0,15.0,11.0,0.0
1518,64.0,28.0,15.0,11.0,0.0
1519,55.0,26.0,30.0,6.0,0.0
1520,60.0,2.0,30.0,10.0,0.0
1521,67.0,0.0,30.0,10.0,0.0
1522,64.0,2.0,30.0,11.0,0.0
1523,55.0,0.0,30.0,11.0,0.0
1524,67.0,0.0,30.0,10.0,0.0
1525,55.0,26.0,15.0,6.0,0.0
1526,60.0,2.0,15.0,10.0,0.0
1527,64.0,0.0,15.0,11.0,0.0
1528,55.0,2.0,15.0,11.0,0.0
1529,59.0,1.0,120.0,8.0,0.0
1530,67.0,0.0,120.0,8.0,0.0
1531,91.0,0.0,480.0,0.0,0.0
1532,79.0,1.0,120.0,5.0,0.0
1533,83.0,1.0,480.0,1.0,0.0
1534,67.0,0.0,15.0,10.0,0.0
1535,59.0,0.0,30.0,10.0,0.0
1536,67.0,2.0,120.0,4.0,0.0
1537,79.0,0.0,480.0,2.0,0.0
1538,71.0,0.0,480.0,2.0,0.0
1539,62.0,0.0,30.0,11.0,0.0
1540,50.0,1.0,480.0,12.0,0.0
1541,50.0,0.0,480.0,3.0,0.0
1542,62.0,1.0,480.0,3.0,0.0
1543,55.0,1.0,15.0,6.0,0.0
1544,38.0,25.0,480.0,13.0,0.0
1545,67.0,2.0,15.0,10.0,0.0
1546,59.0,2.0,30.0,10.0,0.0
1547,55.0,28.0,15.0,11.0,0.0
1548,59.0,0.0,30.0,10.0,0.0
1549,55.0,28.0,15.0,11.0,0.0
1550,62.0,0.0,15.0,11.0,0.0
1551,59.0,0.0,30.0,10.0,0.0
1552,67.0,2.0,15.0,10.0,0.0
1553,62.0,0.0,15.0,11.0,0.0
1554,55.0,0.0,30.0,11.0,0.0
1555,74.0,1.0,120.0,5.0,0.0
1556,59.0,2.0,30.0,10.0,0.0
1557,67.0,0.0,15.0,10.0,0.0
1558,62.0,2.0,120.0,4.0,0.0
1559,62.0,2.0,15.0,11.0,0.0
1560,55.0,0.0,30.0,11.0,0.0
1561,62.0,0.0,30.0,11.0,0.0
1562,55.0,28.0,30.0,11.0,0.0
1563,67.0,0.0,15.0,10.0,0.0
1564,59.0,2.0,15.0,10.0,0.0
1565,62.0,0.0,30.0,11.0,0.0
1566,59.0,0.0,30.0,10.0,0.0
1567,67.0,0.0,30.0,10.0,0.0
1568,55.0,27.0,15.0,11.0,0.0
1569,62.0,28.0,30.0,11.0,0.0
1570,71.0,1.0,120.0,5.0,0.0
1571,59.0,2.0,30.0,10.0,0.0
1572,67.0,0.0,30.0,10.0,0.0
1573,59.0,0.0,120.0,4.0,0.0
1574,62.0,28.0,30.0,11.0,0.0
1575,55.0,0.0,30.0,11.0,0.0
1576,67.0,2.0,30.0,10.0,0.0
1577,59.0,0.0,30.0,10.0,0.0
1578,62.0,28.0,30.0,11.0,0.0
1579,55.0,0.0,30.0,11.0,0.0
1580,67.0,0.0,30.0,10.0,0.0
1581,59.0,2.0,30.0,10.0,0.0
1582,62.0,0.0,30.0,11.0,0.0
1583,59.0,0.0,30.0,10.0,0.0
1584,55.0,26.0,15.0,11.0,0.0
1585,79.0,1.0,15.0,8.0,0.0
1586,59.0,0.0,30.0,10.0,0.0
1587,67.0,2.0,15.0,10.0,0.0
1588,62.0,28.0,15.0,11.0,0.0
1589,55.0,26.0,30.0,11.0,0.0
1590,67.0,2.0,15.0,10.0,0.0
1591,59.0,2.0,30.0,10.0,0.0
1592,62.0,0.0,15.0,11.0,0.0
1593,55.0,0.0,30.0,11.0,0.0
1594,83.0,2.0,30.0,8.0,0.0
1595,62.0,26.0,15.0,11.0,0.0
1596,55.0,26.0,30.0,11.0,0.0
1597,86.0,0.0,30.0,8.0,0.0
1598,59.0,0.0,15.0,10.0,0.0
1599,67.0,2.0,15.0,10.0,0.0
1600,55.0,0.0,30.0,11.0,0.0
1601,62.0,1.0,30.0,11.0,0.0
1602,91.0,2.0,120.0,8.0,0.0
1603,91.0,0.0,480.0,0.0,0.0
1604,79.0,1.0,15.0,0.0,0.0
1605,88.0,0.0,480.0,1.0,0.0
1606,79.0,0.0,15.0,1.0,0.0
1607,67.0,0.0,15.0,5.0,0.0
1608,64.0,0.0,30.0,10.0,0.0
1609,55.0,2.0,15.0,4.0,0.0
1610,76.0,0.0,480.0,2.0,0.0
1611,48.0,1.0,480.0,12.0,0.0
1612,55.0,26.0,120.0,6.0,0.0
1613,48.0,0.0,480.0,3.0,0.0
1614,60.0,1.0,480.0,3.0,0.0
1615,36.0,25.0,480.0,13.0,0.0
1616,67.0,2.0,15.0,10.0,0.0
1617,64.0,0.0,30.0,10.0,0.0
1618,55.0,0.0,15.0,11.0,0.0
1619,60.0,28.0,15.0,11.0,0.0
1620,55.0,28.0,15.0,11.0,0.0
1621,60.0,0.0,30.0,11.0,0.0
1622,67.0,2.0,15.0,10.0,0.0
1623,64.0,0.0,15.0,10.0,0.0
1624,55.0,26.0,15.0,11.0,0.0
1625,88.0,2.0,120.0,8.0,0.0
1626,60.0,2.0,15.0,11.0,0.0
1627,55.0,0.0,30.0,11.0,0.0
1628,64.0,0.0,15.0,10.0,0.0
1629,67.0,2.0,15.0,10.0,0.0
1630,67.0,2.0,15.0,10.0,0.0
1631,64.0,0.0,15.0,10.0,0.0
1632,55.0,28.0,15.0,11.0,0.0
1633,60.0,0.0,15.0,11.0,0.0
1634,64.0,0.0,15.0,10.0,0.0
1635,55.0,0.0,15.0,11.0,0.0
1636,60.0,26.0,15.0,11.0,0.0
1637,84.0,2.0,120.0,8.0,0.0
1638,64.0,0.0,15.0,10.0,0.0
1639,67.0,2.0,15.0,10.0,0.0
1640,64.0,0.0,30.0,10.0,0.0
1641,55.0,0.0,15.0,11.0,0.0
1642,60.0,28.0,15.0,11.0,0.0
1643,67.0,2.0,15.0,10.0,0.0
1644,64.0,2.0,30.0,10.0,0.0
1645,60.0,26.0,30.0,11.0,0.0
1646,67.0,2.0,30.0,10.0,0.0
1647,64.0,0.0,30.0,10.0,0.0
1648,55.0,0.0,15.0,11.0,0.0
1649,60.0,0.0,30.0,11.0,0.0
1650,79.0,1.0,120.0,8.0,0.0
1651,67.0,0.0,30.0,10.0,0.0
1652,55.0,2.0,30.0,11.0,0.0
1653,55.0,26.0,30.0,6.0,0.0
1654,64.0,2.0,15.0,10.0,0.0
1655,60.0,0.0,15.0,11.0,0.0
1656,67.0,2.0,15.0,10.0,0.0
1657,64.0,0.0,15.0,10.0,0.0
1658,55.0,2.0,15.0,11.0,0.0
1659,60.0,0.0,15.0,11.0,0.0
1660,55.0,26.0,15.0,6.0,0.0
1661,64.0,2.0,30.0,10.0,0.0
1662,60.0,2.0,15.0,11.0,0.0
1663,55.0,0.0,30.0,11.0,0.0
1664,55.0,0.0,30.0,6.0,0.0
1665,59.0,0.0,120.0,8.0,0.0
1666,67.0,1.0,120.0,8.0,0.0
1667,79.0,1.0,360.0,8.0,0.0
1668,79.0,1.0,15.0,1.0,0.0
1669,86.0,1.0,480.0,1.0,0.0
1670,79.0,1.0,120.0,5.0,0.0
1671,67.0,0.0,120.0,4.0,0.0
1672,67.0,0.0,15.0,2.0,0.0
1673,74.0,0.0,480.0,2.0,0.0
1674,67.0,0.0,15.0,10.0,0.0
1675,62.0,2.0,30.0,10.0,0.0
1676,47.0,1.0,360.0,12.0,0.0
1677,55.0,26.0,120.0,6.0,0.0
1678,59.0,0.0,360.0,3.0,0.0
1679,47.0,1.0,360.0,3.0,0.0
1680,35.0,25.0,360.0,13.0,0.0
1681,67.0,0.0,15.0,10.0,0.0
1682,55.0,0.0,15.0,11.0,0.0
1683,59.0,28.0,15.0,11.0,0.0
1684,67.0,2.0,15.0,10.0,0.0
1685,62.0,0.0,15.0,10.0,0.0
1686,55.0,28.0,15.0,11.0,0.0
1687,59.0,0.0,15.0,11.0,0.0
1688,62.0,0.0,30.0,10.0,0.0
1689,55.0,0.0,30.0,11.0,0.0
1690,59.0,2.0,30.0,11.0,0.0
1691,74.0,1.0,120.0,5.0,0.0
1692,67.0,2.0,15.0,10.0,0.0
1693,62.0,0.0,120.0,4.0,0.0
1694,62.0,2.0,15.0,10.0,0.0
1695,59.0,28.0,15.0,11.0,0.0
1696,55.0,0.0,15.0,11.0,0.0
1697,67.0,2.0,15.0,10.0,0.0
1698,62.0,0.0,30.0,10.0,0.0
1699,55.0,28.0,15.0,11.0,0.0
1700,59.0,0.0,15.0,11.0,0.0
1701,67.0,2.0,15.0,10.0,0.0
1702,59.0,27.0,15.0,11.0,0.0
1703,71.0,1.0,120.0,5.0,0.0
1704,62.0,0.0,15.0,10.0,0.0
1705,67.0,2.0,15.0,10.0,0.0
1706,59.0,2.0,120.0,4.0,0.0
1707,55.0,0.0,15.0,11.0,0.0
1708,59.0,28.0,15.0,11.0,0.0
1709,55.0,0.0,15.0,11.0,0.0
1710,67.0,2.0,15.0,10.0,0.0
1711,62.0,0.0,15.0,10.0,0.0
1712,59.0,26.0,30.0,11.0,0.0
1713,55.0,28.0,15.0,11.0,0.0
1714,67.0,2.0,15.0,10.0,0.0
1715,59.0,0.0,30.0,11.0,0.0
1716,55.0,1.0,30.0,11.0,0.0
1717,79.0,2.0,60.0,8.0,0.0
1718,62.0,0.0,15.0,10.0,0.0
1719,67.0,0.0,30.0,10.0,0.0
1720,55.0,0.0,30.0,11.0,0.0
1721,46.0,1.0,120.0,12.0,0.0
1722,58.0,0.0,120.0,3.0,0.0
1723,46.0,0.0,120.0,3.0,0.0
1724,55.0,24.0,30.0,6.0,0.0
1725,34.0,25.0,120.0,13.0,0.0
1726,62.0,2.0,15.0,10.0,0.0
1727,58.0,2.0,15.0,11.0,0.0
1728,82.0,2.0,30.0,8.0,0.0
1729,62.0,0.0,15.0,10.0,0.0
1730,67.0,2.0,15.0,10.0,0.0
1731,55.0,2.0,15.0,11.0,0.0
1732,58.0,0.0,15.0,11.0,0.0
1733,55.0,24.0,15.0,6.0,0.0
1734,86.0,0.0,30.0,8.0,0.0
1735,67.0,0.0,30.0,10.0,0.0
1736,62.0,0.0,30.0,10.0,0.0
1737,58.0,2.0,15.0,11.0,0.0
1738,55.0,0.0,30.0,11.0,0.0
1739,55.0,1.0,30.0,6.0,0.0
1740,79.0,1.0,15.0,0.0,0.0
1741,91.0,1.0,120.0,8.0,0.0
1742,91.0,0.0,15.0,0.0,0.0
1743,67.0,0.0,15.0,5.0,0.0
1744,88.0,1.0,360.0,1.0,0.0
1745,79.0,0.0,360.0,1.0,0.0
1746,79.0,0.0,120.0,5.0,0.0
1747,64.0,0.0,30.0,10.0,0.0
1748,67.0,0.0,15.0,2.0,0.0
1749,67.0,2.0,15.0,4.0,0.0
1750,55.0,0.0,15.0,4.0,0.0
1751,76.0,0.0,360.0,2.0,0.0
1752,45.0,1.0,120.0,12.0,0.0
1753,57.0,1.0,120.0,3.0,0.0
1754,55.0,0.0,120.0,6.0,0.0
1755,33.0,25.0,120.0,13.0,0.0
1756,67.0,2.0,15.0,10.0,0.0
1757,64.0,2.0,30.0,10.0,0.0
1758,61.0,0.0,15.0,11.0,0.0
1759,55.0,28.0,15.0,11.0,0.0
1760,67.0,0.0,30.0,10.0,0.0
1761,61.0,0.0,30.0,11.0,0.0
1762,55.0,28.0,15.0,11.0,0.0
1763,64.0,2.0,15.0,10.0,0.0
1764,61.0,0.0,30.0,11.0,0.0
1765,88.0,2.0,120.0,8.0,0.0
1766,64.0,0.0,15.0,10.0,0.0
1767,67.0,2.0,15.0,10.0,0.0
1768,55.0,1.0,15.0,11.0,0.0
1769,61.0,0.0,30.0,11.0,0.0
1770,49.0,1.0,120.0,12.0,0.0
1771,61.0,1.0,120.0,3.0,0.0
1772,49.0,0.0,120.0,3.0,0.0
1773,37.0,25.0,120.0,13.0,0.0
1774,67.0,2.0,30.0,10.0,0.0
1775,64.0,2.0,15.0,10.0,0.0
1776,55.0,28.0,15.0,11.0,0.0
1777,61.0,0.0,30.0,11.0,0.0
1778,64.0,1.0,30.0,10.0,0.0
1779,67.0,0.0,15.0,10.0,0.0
1780,64.0,0.0,30.0,10.0,0.0
1781,69.0,1.0,15.0,4.0,0.0
1782,55.0,26.0,15.0,11.0,0.0
1783,61.0,0.0,15.0,11.0,0.0
1784,85.0,0.0,120.0,8.0,0.0
1785,81.0,0.0,120.0,5.0,0.0
1786,69.0,0.0,15.0,4.0,0.0
1787,67.0,2.0,15.0,10.0,0.0
1788,64.0,28.0,30.0,11.0,0.0
1789,52.0,1.0,120.0,12.0,0.0
1790,52.0,1.0,120.0,3.0,0.0
1791,64.0,0.0,120.0,3.0,0.0
1792,55.0,0.0,120.0,6.0,0.0
1793,40.0,25.0,120.0,13.0,0.0
1794,67.0,2.0,15.0,10.0,0.0
1795,73.0,0.0,15.0,10.0,0.0
1796,73.0,2.0,30.0,10.0,0.0
1797,67.0,0.0,30.0,10.0,0.0
1798,64.0,28.0,15.0,11.0,0.0
1799,73.0,2.0,30.0,10.0,0.0
1800,64.0,1.0,30.0,11.0,0.0
1801,88.0,1.0,90.0,8.0,0.0
1802,79.0,0.0,90.0,0.0,0.0
1803,91.0,1.0,15.0,0.0,0.0
1804,76.0,1.0,90.0,1.0,0.0
1805,85.0,0.0,90.0,1.0,0.0
1806,67.0,0.0,15.0,10.0,0.0
1807,73.0,0.0,90.0,2.0,0.0
1808,64.0,1.0,90.0,2.0,0.0
1809,69.0,0.0,120.0,4.0,0.0
1810,57.0,1.0,120.0,12.0,0.0
1811,69.0,1.0,120.0,3.0,0.0
1812,57.0,0.0,120.0,3.0,0.0
1813,45.0,113.0,120.0,13.0,0.0
1814,67.0,2.0,15.0,10.0,0.0
1815,76.0,0.0,15.0,10.0,0.0
1816,57.0,28.0,15.0,11.0,0.0
1817,67.0,2.0,15.0,10.0,0.0
1818,76.0,0.0,15.0,10.0,0.0
1819,57.0,27.0,15.0,11.0,0.0
1820,78.0,0.0,30.0,0.0,0.0
1821,90.0,0.0,30.0,0.0,0.0
1822,86.0,0.0,30.0,1.0,0.0
1823,78.0,1.0,30.0,1.0,0.0
1824,76.0,0.0,15.0,10.0,0.0
1825,67.0,0.0,30.0,10.0,0.0
1826,74.0,0.0,30.0,2.0,0.0
1827,57.0,26.0,15.0,11.0,0.0
1828,78.0,1.0,120.0,0.0,0.0
1829,90.0,0.0,120.0,0.0,0.0
1830,86.0,1.0,15.0,8.0,0.0
1831,86.0,0.0,120.0,1.0,0.0
1832,74.0,1.0,120.0,5.0,0.0
1833,78.0,0.0,120.0,1.0,0.0
1834,62.0,0.0,120.0,5.0,0.0
1835,66.0,0.0,120.0,10.0,0.0
1836,74.0,0.0,120.0,10.0,0.0
1837,74.0,2.0,120.0,2.0,0.0
1838,66.0,2.0,15.0,2.0,0.0
1839,57.0,1.0,15.0,11.0,0.0
1840,50.0,1.0,120.0,12.0,0.0
1841,50.0,0.0,120.0,3.0,0.0
1842,62.0,1.0,120.0,3.0,0.0
1843,50.0,0.0,120.0,6.0,0.0
1844,38.0,235.0,120.0,13.0,0.0
1845,50.0,2.0,240.0,4.0,0.0
1846,62.0,0.0,15.0,4.0,0.0
1847,74.0,0.0,240.0,10.0,0.0
1848,62.0,43.0,240.0,11.0,0.0
1849,76.0,2.0,60.0,10.0,0.0
1850,64.0,58.0,60.0,11.0,0.0
1851,74.0,2.0,60.0,10.0,0.0
1852,62.0,58.0,60.0,11.0,0.0
1853,62.0,4.0,120.0,5.0,0.0
1854,74.0,0.0,120.0,5.0,0.0
1855,72.0,2.0,60.0,10.0,0.0
1856,60.0,58.0,60.0,11.0,0.0
1857,50.0,1.0,120.0,12.0,0.0
1858,50.0,1.0,120.0,6.0,0.0
1859,38.0,40.0,120.0,13.0,0.0
1860,71.0,2.0,60.0,10.0,0.0
1861,59.0,12.0,60.0,11.0,0.0
1862,84.0,1.0,240.0,8.0,0.0
1863,81.0,0.0,240.0,1.0,0.0
1864,84.0,1.0,240.0,1.0,0.0
1865,69.0,2.0,60.0,10.0,0.0
1866,50.0,4.0,240.0,4.0,0.0
1867,62.0,0.0,240.0,4.0,0.0
1868,57.0,58.0,60.0,11.0,0.0
1869,57.0,39.0,240.0,3.0,0.0
1870,60.0,0.0,240.0,3.0,0.0
1871,71.0,2.0,60.0,10.0,0.0
1872,59.0,58.0,60.0,11.0,0.0
1873,72.0,2.0,60.0,10.0,0.0
1874,60.0,58.0,60.0,11.0,0.0
1875,66.0,2.0,60.0,10.0,0.0
1876,54.0,11.0,60.0,11.0,0.0
1877,86.0,2.0,60.0,8.0,0.0
1878,67.0,2.0,60.0,10.0,0.0
1879,55.0,56.0,60.0,11.0,0.0
1880,84.0,2.0,60.0,8.0,0.0
1881,69.0,2.0,60.0,10.0,0.0
1882,57.0,58.0,60.0,11.0,0.0
1883,74.0,4.0,120.0,5.0,0.0
1884,62.0,0.0,120.0,5.0,0.0
1885,62.0,2.0,60.0,10.0,0.0
1886,59.0,58.0,60.0,11.0,0.0
1887,50.0,1.0,120.0,12.0,0.0
1888,50.0,1.0,120.0,6.0,0.0
1889,38.0,40.0,120.0,13.0,0.0
1890,67.0,2.0,60.0,10.0,0.0
1891,55.0,11.0,60.0,11.0,0.0
1892,95.0,1.0,240.0,0.0,0.0
1893,83.0,1.0,15.0,8.0,0.0
1894,91.0,0.0,240.0,0.0,0.0
1895,79.0,0.0,240.0,1.0,0.0
1896,83.0,1.0,240.0,1.0,0.0
1897,62.0,0.0,240.0,4.0,0.0
1898,71.0,2.0,60.0,10.0,0.0
1899,59.0,58.0,60.0,11.0,0.0
1900,55.0,1.0,240.0,3.0,0.0
1901,74.0,2.0,60.0,10.0,0.0
1902,62.0,58.0,60.0,11.0,0.0
1903,79.0,2.0,60.0,10.0,0.0
1904,67.0,58.0,60.0,11.0,0.0
1905,74.0,2.0,60.0,10.0,0.0
1906,62.0,11.0,60.0,11.0,0.0
1907,84.0,2.0,60.0,8.0,0.0
1908,83.0,0.0,60.0,1.0,0.0
1909,74.0,0.0,120.0,5.0,0.0
1910,62.0,1.0,120.0,5.0,0.0
1911,74.0,0.0,15.0,2.0,0.0
1912,79.0,2.0,60.0,10.0,0.0
1913,86.0,0.0,15.0,2.0,0.0
1914,50.0,3.0,15.0,4.0,0.0
1915,62.0,0.0,120.0,4.0,0.0
1916,67.0,11.0,60.0,11.0,0.0
1917,50.0,1.0,15.0,12.0,0.0
1918,50.0,1.0,120.0,6.0,0.0
1919,59.0,0.0,15.0,3.0,0.0
1920,38.0,38.0,15.0,13.0,0.0
1921,86.0,1.0,15.0,0.0,0.0
1922,95.0,0.0,15.0,0.0,0.0
1923,83.0,2.0,60.0,8.0,0.0
1924,74.0,1.0,15.0,1.0,0.0
1925,83.0,0.0,60.0,1.0,0.0
1926,74.0,0.0,60.0,2.0,0.0
1927,86.0,0.0,60.0,2.0,0.0
1928,74.0,2.0,60.0,10.0,0.0
1929,62.0,11.0,60.0,11.0,0.0
1930,50.0,1.0,15.0,12.0,0.0
1931,59.0,1.0,15.0,3.0,0.0
1932,55.0,0.0,15.0,3.0,0.0
1933,38.0,38.0,15.0,13.0,0.0
1934,81.0,5.0,120.0,8.0,0.0
1935,74.0,2.0,60.0,10.0,0.0
1936,62.0,58.0,60.0,11.0,0.0
1937,72.0,2.0,60.0,10.0,0.0
1938,60.0,11.0,60.0,11.0,0.0
1939,84.0,0.0,60.0,0.0,0.0
1940,93.0,0.0,60.0,0.0,0.0
1941,83.0,1.0,60.0,8.0,0.0
1942,81.0,1.0,60.0,1.0,0.0
1943,62.0,1.0,120.0,5.0,0.0
1944,72.0,0.0,60.0,1.0,0.0
1945,74.0,0.0,120.0,5.0,0.0
1946,74.0,2.0,60.0,10.0,0.0
1947,50.0,3.0,120.0,4.0,0.0
1948,62.0,0.0,120.0,4.0,0.0
1949,62.0,11.0,60.0,11.0,0.0
1950,54.0,2.0,15.0,12.0,0.0
1951,50.0,0.0,120.0,6.0,0.0
1952,60.0,1.0,60.0,3.0,0.0
1953,57.0,0.0,60.0,3.0,0.0
1954,42.0,40.0,15.0,13.0,0.0
1955,84.0,0.0,60.0,0.0,0.0
1956,93.0,0.0,60.0,0.0,0.0
1957,81.0,1.0,60.0,8.0,0.0
1958,72.0,0.0,60.0,1.0,0.0
1959,81.0,0.0,60.0,1.0,0.0
1960,74.0,3.0,15.0,2.0,0.0
1961,86.0,0.0,15.0,2.0,0.0
1962,72.0,2.0,60.0,10.0,0.0
1963,60.0,11.0,60.0,11.0,0.0
1964,54.0,1.0,60.0,12.0,0.0
1965,57.0,1.0,60.0,3.0,0.0
1966,60.0,0.0,60.0,3.0,0.0
1967,42.0,40.0,60.0,13.0,0.0
1968,79.0,5.0,120.0,8.0,0.0
1969,72.0,2.0,60.0,10.0,0.0
1970,60.0,58.0,60.0,11.0,0.0
1971,55.0,2.0,120.0,12.0,0.0
1972,43.0,40.0,120.0,13.0,0.0
1973,71.0,2.0,60.0,10.0,0.0
1974,59.0,11.0,60.0,11.0,0.0
1975,83.0,0.0,60.0,0.0,0.0
1976,81.0,1.0,60.0,8.0,0.0
1977,91.0,0.0,60.0,0.0,0.0
1978,62.0,0.0,120.0,5.0,0.0
1979,74.0,0.0,120.0,5.0,0.0
1980,74.0,0.0,60.0,2.0,0.0
1981,86.0,3.0,60.0,2.0,0.0
1982,72.0,2.0,60.0,10.0,0.0
1983,62.0,0.0,120.0,4.0,0.0
1984,50.0,0.0,120.0,4.0,0.0
1985,60.0,11.0,60.0,11.0,0.0
1986,59.0,1.0,60.0,12.0,0.0
1987,47.0,40.0,60.0,13.0,0.0
1988,83.0,0.0,60.0,0.0,0.0
1989,79.0,1.0,60.0,8.0,0.0
1990,91.0,0.0,60.0,0.0,0.0
1991,71.0,0.0,15.0,1.0,0.0
1992,79.0,1.0,15.0,1.0,0.0
1993,86.0,3.0,60.0,2.0,0.0
1994,71.0,2.0,60.0,10.0,0.0
1995,74.0,0.0,60.0,2.0,0.0
1996,59.0,11.0,60.0,11.0,0.0
1997,59.0,1.0,60.0,12.0,0.0
1998,55.0,0.0,15.0,3.0,0.0
1999,59.0,1.0,15.0,3.0,0.0
2000,47.0,25.0,60.0,13.0,0.0
2001,81.0,0.0,120.0,0.0,0.0
2002,78.0,1.0,120.0,8.0,0.0
2003,90.0,0.0,120.0,0.0,0.0
2004,78.0,0.0,120.0,1.0,0.0
2005,62.0,0.0,120.0,5.0,0.0
2006,74.0,1.0,120.0,5.0,0.0
2007,69.0,0.0,120.0,1.0,0.0
2008,69.0,2.0,30.0,10.0,0.0
2009,86.0,0.0,120.0,2.0,0.0
2010,74.0,0.0,120.0,2.0,0.0
2011,57.0,28.0,30.0,11.0,0.0
2012,62.0,1.0,120.0,12.0,0.0
2013,57.0,0.0,120.0,3.0,0.0
2014,54.0,1.0,120.0,3.0,0.0
2015,50.0,1.0,15.0,6.0,0.0
2016,50.0,25.0,120.0,13.0,0.0
2017,62.0,28.0,30.0,11.0,0.0
2018,74.0,2.0,15.0,10.0,0.0
2019,50.0,0.0,60.0,4.0,0.0
2020,74.0,2.0,15.0,10.0,0.0
2021,62.0,26.0,15.0,11.0,0.0
2022,62.0,2.0,15.0,4.0,0.0
2023,74.0,2.0,30.0,10.0,0.0
2024,62.0,1.0,15.0,11.0,0.0
2025,74.0,2.0,30.0,10.0,0.0
2026,50.0,0.0,15.0,4.0,0.0
2027,74.0,2.0,30.0,10.0,0.0
2028,62.0,28.0,15.0,11.0,0.0
2029,62.0,28.0,15.0,11.0,0.0
2030,62.0,0.0,15.0,4.0,0.0
2031,74.0,2.0,15.0,10.0,0.0
2032,62.0,28.0,15.0,11.0,0.0
2033,74.0,2.0,15.0,10.0,0.0
2034,62.0,28.0,15.0,11.0,0.0
2035,74.0,2.0,15.0,10.0,0.0
2036,62.0,0.0,15.0,4.0,0.0
2037,50.0,0.0,15.0,4.0,0.0
2038,62.0,28.0,30.0,11.0,0.0
2039,74.0,2.0,15.0,10.0,0.0
2040,62.0,28.0,30.0,11.0,0.0
2041,50.0,0.0,15.0,4.0,0.0
2042,62.0,0.0,60.0,4.0,0.0
2043,64.0,28.0,30.0,11.0,0.0
2044,76.0,2.0,15.0,10.0,0.0
2045,64.0,28.0,30.0,11.0,0.0
2046,50.0,0.0,60.0,4.0,0.0
2047,62.0,2.0,60.0,4.0,0.0
2048,62.0,28.0,30.0,11.0,0.0
2049,74.0,2.0,15.0,10.0,0.0
2050,62.0,28.0,30.0,11.0,0.0
2051,62.0,1.0,120.0,5.0,0.0
2052,74.0,0.0,120.0,5.0,0.0
2053,50.0,1.0,120.0,12.0,0.0
2054,50.0,1.0,120.0,6.0,0.0
2055,38.0,23.0,120.0,13.0,0.0
2056,72.0,2.0,15.0,10.0,0.0
2057,60.0,28.0,15.0,11.0,0.0
2058,71.0,2.0,30.0,10.0,0.0
2059,59.0,26.0,30.0,11.0,0.0
2060,60.0,0.0,60.0,3.0,0.0
2061,57.0,0.0,60.0,3.0,0.0
2062,84.0,2.0,15.0,8.0,0.0
2063,71.0,0.0,30.0,10.0,0.0
2064,59.0,1.0,30.0,11.0,0.0
2065,84.0,1.0,15.0,8.0,0.0
2066,62.0,2.0,15.0,4.0,0.0
2067,72.0,0.0,15.0,2.0,0.0
2068,69.0,0.0,15.0,2.0,0.0
2069,50.0,0.0,15.0,4.0,0.0
2070,69.0,2.0,30.0,10.0,0.0
2071,57.0,26.0,30.0,11.0,0.0
2072,60.0,24.0,60.0,3.0,0.0
2073,84.0,2.0,15.0,8.0,0.0
2074,69.0,0.0,30.0,10.0,0.0
2075,57.0,2.0,30.0,11.0,0.0
2076,71.0,2.0,30.0,10.0,0.0
2077,62.0,0.0,60.0,4.0,0.0
2078,50.0,2.0,15.0,4.0,0.0
2079,57.0,0.0,15.0,3.0,0.0
2080,60.0,24.0,60.0,3.0,0.0
2081,84.0,2.0,15.0,8.0,0.0
2082,71.0,0.0,30.0,10.0,0.0
2083,59.0,26.0,15.0,11.0,0.0
2084,72.0,2.0,30.0,10.0,0.0
2085,50.0,0.0,15.0,4.0,0.0
2086,72.0,2.0,15.0,2.0,0.0
2087,69.0,0.0,15.0,2.0,0.0
2088,57.0,24.0,60.0,3.0,0.0
2089,60.0,0.0,60.0,3.0,0.0
2090,84.0,2.0,15.0,8.0,0.0
2091,72.0,0.0,30.0,10.0,0.0
2092,60.0,26.0,15.0,11.0,0.0
2093,84.0,2.0,30.0,8.0,0.0
2094,62.0,0.0,15.0,4.0,0.0
2095,66.0,2.0,30.0,10.0,0.0
2096,50.0,0.0,15.0,4.0,0.0
2097,54.0,26.0,30.0,11.0,0.0
2098,57.0,0.0,60.0,3.0,0.0
2099,84.0,2.0,30.0,8.0,0.0
2100,66.0,0.0,30.0,10.0,0.0
2101,54.0,2.0,30.0,11.0,0.0
2102,86.0,2.0,30.0,8.0,0.0
2103,62.0,0.0,120.0,5.0,0.0
2104,62.0,0.0,15.0,4.0,0.0
2105,67.0,2.0,30.0,10.0,0.0
2106,72.0,2.0,15.0,2.0,0.0
2107,69.0,0.0,15.0,2.0,0.0
2108,60.0,24.0,15.0,3.0,0.0
2109,86.0,2.0,30.0,8.0,0.0
2110,67.0,0.0,30.0,10.0,0.0
2111,55.0,26.0,15.0,11.0,0.0
2112,69.0,0.0,15.0,2.0,0.0
2113,72.0,0.0,15.0,2.0,0.0
2114,50.0,2.0,15.0,4.0,0.0
2115,62.0,0.0,60.0,4.0,0.0
2116,60.0,24.0,15.0,3.0,0.0
2117,57.0,0.0,15.0,3.0,0.0
2118,84.0,2.0,15.0,8.0,0.0
2119,69.0,2.0,15.0,10.0,0.0
2120,57.0,26.0,15.0,11.0,0.0
2121,83.0,2.0,30.0,8.0,0.0
2122,74.0,1.0,15.0,5.0,0.0
2123,59.0,26.0,30.0,11.0,0.0
2124,50.0,1.0,60.0,12.0,0.0
2125,50.0,0.0,15.0,6.0,0.0
2126,38.0,23.0,60.0,13.0,0.0
2127,62.0,2.0,15.0,10.0,0.0
2128,59.0,1.0,30.0,11.0,0.0
2129,86.0,0.0,60.0,0.0,0.0
2130,83.0,1.0,15.0,8.0,0.0
2131,74.0,0.0,15.0,5.0,0.0
2132,62.0,1.0,15.0,5.0,0.0
2133,83.0,0.0,60.0,1.0,0.0
2134,67.0,2.0,30.0,10.0,0.0
2135,50.0,1.0,60.0,12.0,0.0
2136,59.0,0.0,60.0,3.0,0.0
2137,55.0,0.0,60.0,3.0,0.0
2138,38.0,23.0,60.0,13.0,0.0
2139,67.0,0.0,30.0,10.0,0.0
2140,55.0,26.0,15.0,11.0,0.0
2141,95.0,0.0,15.0,0.0,0.0
2142,83.0,1.0,15.0,8.0,0.0
2143,83.0,0.0,60.0,1.0,0.0
2144,74.0,0.0,15.0,1.0,0.0
2145,62.0,0.0,15.0,5.0,0.0
2146,74.0,1.0,15.0,5.0,0.0
2147,71.0,2.0,30.0,10.0,0.0
2148,62.0,0.0,15.0,4.0,0.0
2149,74.0,2.0,15.0,2.0,0.0
2150,86.0,0.0,15.0,2.0,0.0
2151,50.0,0.0,15.0,4.0,0.0
2152,50.0,1.0,60.0,12.0,0.0
2153,55.0,0.0,60.0,3.0,0.0
2154,50.0,1.0,15.0,6.0,0.0
2155,59.0,0.0,60.0,3.0,0.0
2156,38.0,23.0,60.0,13.0,0.0
2157,83.0,2.0,15.0,8.0,0.0
2158,71.0,0.0,30.0,10.0,0.0
2159,59.0,26.0,15.0,11.0,0.0
2160,86.0,1.0,15.0,0.0,0.0
2161,95.0,0.0,15.0,0.0,0.0
2162,74.0,0.0,60.0,5.0,0.0
2163,62.0,1.0,15.0,5.0,0.0
2164,86.0,0.0,15.0,2.0,0.0
2165,74.0,0.0,60.0,2.0,0.0
2166,74.0,2.0,30.0,10.0,0.0
2167,62.0,2.0,60.0,4.0,0.0
2168,50.0,0.0,60.0,4.0,0.0
2169,50.0,1.0,60.0,12.0,0.0
2170,59.0,0.0,60.0,3.0,0.0
2171,50.0,0.0,60.0,6.0,0.0
2172,38.0,23.0,60.0,13.0,0.0
2173,83.0,2.0,15.0,8.0,0.0
2174,74.0,0.0,30.0,10.0,0.0
2175,62.0,26.0,15.0,11.0,0.0
2176,83.0,2.0,30.0,8.0,0.0
2177,86.0,0.0,60.0,0.0,0.0
2178,74.0,0.0,15.0,1.0,0.0
2179,83.0,0.0,15.0,1.0,0.0
2180,62.0,1.0,15.0,5.0,0.0
2181,74.0,1.0,60.0,5.0,0.0
2182,86.0,0.0,15.0,2.0,0.0
2183,74.0,0.0,60.0,2.0,0.0
2184,50.0,2.0,60.0,4.0,0.0
2185,79.0,2.0,30.0,10.0,0.0
2186,62.0,0.0,60.0,4.0,0.0
2187,67.0,26.0,30.0,11.0,0.0
2188,55.0,1.0,15.0,3.0,0.0
2189,38.0,23.0,60.0,13.0,0.0
2190,83.0,0.0,30.0,8.0,0.0
2191,79.0,0.0,30.0,10.0,0.0
2192,67.0,1.0,30.0,11.0,0.0
2193,95.0,1.0,15.0,0.0,0.0
2194,86.0,0.0,60.0,0.0,0.0
2195,83.0,0.0,60.0,1.0,0.0
2196,74.0,0.0,60.0,1.0,0.0
2197,62.0,0.0,15.0,5.0,0.0
2198,74.0,0.0,60.0,5.0,0.0
2199,86.0,0.0,60.0,2.0,0.0
2200,50.0,1.0,15.0,12.0,0.0
2201,59.0,0.0,15.0,3.0,0.0
2202,62.0,0.0,60.0,3.0,0.0
2203,50.0,1.0,15.0,6.0,0.0
2204,38.0,23.0,60.0,13.0,0.0
2205,83.0,2.0,15.0,8.0,0.0
2206,74.0,2.0,15.0,10.0,0.0
2207,62.0,26.0,15.0,11.0,0.0
2208,88.0,0.0,60.0,0.0,0.0
2209,96.0,1.0,60.0,0.0,0.0
2210,62.0,1.0,15.0,5.0,0.0
2211,84.0,1.0,60.0,1.0,0.0
2212,76.0,0.0,60.0,1.0,0.0
2213,74.0,0.0,60.0,5.0,0.0
2214,74.0,0.0,15.0,2.0,0.0
2215,62.0,2.0,15.0,4.0,0.0
2216,50.0,0.0,15.0,4.0,0.0
2217,79.0,2.0,30.0,10.0,0.0
2218,50.0,1.0,15.0,12.0,0.0
2219,50.0,1.0,15.0,6.0,0.0
2220,60.0,0.0,60.0,3.0,0.0
2221,64.0,0.0,60.0,3.0,0.0
2222,84.0,2.0,15.0,8.0,0.0
2223,79.0,2.0,30.0,10.0,0.0
2224,67.0,26.0,15.0,11.0,0.0
2225,95.0,1.0,60.0,0.0,0.0
2226,86.0,0.0,60.0,0.0,0.0
2227,83.0,0.0,60.0,1.0,0.0
2228,74.0,0.0,60.0,1.0,0.0
2229,74.0,0.0,15.0,2.0,0.0
2230,86.0,0.0,15.0,2.0,0.0
2231,50.0,0.0,60.0,4.0,0.0
2232,62.0,0.0,60.0,4.0,0.0
2233,50.0,1.0,15.0,12.0,0.0
2234,50.0,1.0,15.0,6.0,0.0
2235,59.0,0.0,60.0,3.0,0.0
2236,62.0,0.0,60.0,3.0,0.0
2237,38.0,23.0,15.0,13.0,0.0
2238,83.0,2.0,15.0,8.0,0.0
2239,74.0,2.0,15.0,10.0,0.0
2240,62.0,26.0,15.0,11.0,0.0
2241,74.0,0.0,15.0,5.0,0.0
2242,62.0,1.0,15.0,5.0,0.0
2243,74.0,2.0,15.0,10.0,0.0
2244,62.0,26.0,30.0,11.0,0.0
2245,54.0,2.0,60.0,12.0,0.0
2246,50.0,1.0,15.0,6.0,0.0
2247,81.0,2.0,15.0,8.0,0.0
2248,74.0,2.0,15.0,10.0,0.0
2249,62.0,1.0,30.0,11.0,0.0
2250,84.0,1.0,60.0,0.0,0.0
2251,81.0,2.0,15.0,8.0,0.0
2252,93.0,0.0,60.0,0.0,0.0
2253,81.0,0.0,60.0,1.0,0.0
2254,72.0,0.0,60.0,1.0,0.0
2255,86.0,0.0,60.0,2.0,0.0
2256,60.0,1.0,60.0,3.0,0.0
2257,57.0,0.0,60.0,3.0,0.0
2258,42.0,23.0,15.0,13.0,0.0
2259,81.0,2.0,15.0,8.0,0.0
2260,72.0,2.0,15.0,10.0,0.0
2261,60.0,26.0,15.0,11.0,0.0
2262,86.0,0.0,60.0,0.0,0.0
2263,95.0,0.0,60.0,0.0,0.0
2264,83.0,0.0,60.0,1.0,0.0
2265,74.0,1.0,60.0,1.0,0.0
2266,74.0,0.0,15.0,2.0,0.0
2267,62.0,2.0,15.0,4.0,0.0
2268,50.0,0.0,15.0,4.0,0.0
2269,74.0,2.0,30.0,10.0,0.0
2270,86.0,2.0,60.0,2.0,0.0
2271,54.0,1.0,15.0,12.0,0.0
2272,62.0,0.0,60.0,3.0,0.0
2273,59.0,1.0,60.0,3.0,0.0
2274,42.0,23.0,15.0,13.0,0.0
2275,83.0,2.0,15.0,8.0,0.0
2276,74.0,0.0,30.0,10.0,0.0
2277,62.0,26.0,15.0,11.0,0.0
2278,93.0,0.0,60.0,0.0,0.0
2279,84.0,0.0,60.0,0.0,0.0
2280,81.0,2.0,30.0,8.0,0.0
2281,81.0,0.0,60.0,1.0,0.0
2282,72.0,1.0,60.0,1.0,0.0
2283,50.0,0.0,15.0,4.0,0.0
2284,62.0,0.0,60.0,4.0,0.0
2285,86.0,2.0,60.0,2.0,0.0
2286,74.0,0.0,60.0,2.0,0.0
2287,60.0,26.0,30.0,11.0,0.0
2288,54.0,1.0,15.0,12.0,0.0
2289,60.0,1.0,60.0,3.0,0.0
2290,57.0,0.0,60.0,3.0,0.0
2291,42.0,23.0,60.0,13.0,0.0
2292,81.0,1.0,30.0,8.0,0.0
2293,72.0,2.0,15.0,10.0,0.0
2294,79.0,2.0,30.0,8.0,0.0
2295,62.0,1.0,120.0,5.0,0.0
2296,74.0,0.0,120.0,5.0,0.0
2297,72.0,0.0,15.0,10.0,0.0
2298,60.0,1.0,15.0,11.0,0.0
2299,50.0,0.0,120.0,6.0,0.0
2300,79.0,2.0,30.0,8.0,0.0
2301,72.0,2.0,30.0,10.0,0.0
2302,60.0,1.0,30.0,11.0,0.0
2303,83.0,0.0,60.0,0.0,0.0
2304,91.0,1.0,60.0,0.0,0.0
2305,79.0,2.0,30.0,8.0,0.0
2306,71.0,0.0,60.0,1.0,0.0
2307,79.0,0.0,60.0,1.0,0.0
2308,50.0,0.0,60.0,4.0,0.0
2309,62.0,0.0,60.0,4.0,0.0
2310,59.0,26.0,30.0,11.0,0.0
2311,55.0,2.0,15.0,12.0,0.0
2312,59.0,0.0,60.0,3.0,0.0
2313,55.0,1.0,60.0,3.0,0.0
2314,43.0,23.0,15.0,13.0,0.0
2315,79.0,0.0,30.0,8.0,0.0
2316,71.0,2.0,15.0,10.0,0.0
2317,59.0,1.0,30.0,11.0,0.0
2318,93.0,0.0,60.0,0.0,0.0
2319,84.0,0.0,60.0,0.0,0.0
2320,81.0,2.0,30.0,8.0,0.0
2321,81.0,1.0,60.0,1.0,0.0
2322,72.0,0.0,60.0,1.0,0.0
2323,86.0,2.0,15.0,2.0,0.0
2324,74.0,0.0,15.0,2.0,0.0
2325,57.0,1.0,60.0,3.0,0.0
2326,60.0,0.0,60.0,3.0,0.0
2327,81.0,1.0,30.0,8.0,0.0
2328,72.0,2.0,15.0,10.0,0.0
2329,60.0,26.0,15.0,11.0,0.0
2330,83.0,0.0,60.0,0.0,0.0
2331,91.0,0.0,60.0,0.0,0.0
2332,79.0,0.0,60.0,1.0,0.0
2333,71.0,1.0,60.0,1.0,0.0
2334,86.0,0.0,15.0,2.0,0.0
2335,71.0,2.0,30.0,10.0,0.0
2336,62.0,2.0,15.0,4.0,0.0
2337,50.0,0.0,15.0,4.0,0.0
2338,59.0,1.0,15.0,12.0,0.0
2339,55.0,0.0,60.0,3.0,0.0
2340,59.0,1.0,60.0,3.0,0.0
2341,47.0,23.0,15.0,13.0,0.0
2342,79.0,2.0,15.0,8.0,0.0
2343,71.0,0.0,30.0,10.0,0.0
2344,59.0,26.0,15.0,11.0,0.0
2345,81.0,0.0,120.0,0.0,0.0
2346,90.0,1.0,120.0,0.0,0.0
2347,78.0,0.0,120.0,1.0,0.0
2348,74.0,1.0,120.0,5.0,0.0
2349,62.0,0.0,120.0,5.0,0.0
2350,69.0,0.0,120.0,1.0,0.0
2351,74.0,0.0,15.0,2.0,0.0
2352,69.0,0.0,120.0,10.0,0.0
2353,86.0,2.0,15.0,2.0,0.0
2354,50.0,0.0,120.0,4.0,0.0
2355,62.0,0.0,120.0,4.0,0.0
2356,57.0,1.0,120.0,11.0,0.0
2357,62.0,1.0,120.0,12.0,0.0
2358,57.0,0.0,120.0,3.0,0.0
2359,54.0,1.0,120.0,3.0,0.0
2360,50.0,0.0,120.0,6.0,0.0
2361,50.0,23.0,120.0,13.0,0.0
2362,78.0,30.0,15.0,8.0,0.0
2363,62.0,30.0,15.0,8.0,0.0
2364,63.0,30.0,30.0,8.0,0.0
2365,63.0,30.0,30.0,8.0,0.0
2366,62.0,30.0,30.0,8.0,0.0
2367,62.0,30.0,30.0,8.0,0.0
2368,67.0,30.0,30.0,8.0,0.0
2369,67.0,30.0,30.0,8.0,0.0
2370,66.0,30.0,30.0,8.0,0.0
2371,66.0,30.0,30.0,8.0,0.0
2372,74.0,0.0,60.0,0.0,0.0
2373,74.0,0.0,60.0,5.0,0.0
2374,86.0,0.0,60.0,1.0,0.0
2375,74.0,0.0,60.0,1.0,0.0
2376,70.0,2.0,30.0,10.0,0.0
2377,62.0,0.0,120.0,4.0,0.0
2378,82.0,0.0,60.0,2.0,0.0
2379,70.0,0.0,60.0,2.0,0.0
2380,58.0,26.0,30.0,11.0,0.0
2381,58.0,1.0,60.0,12.0,0.0
2382,58.0,1.0,60.0,3.0,0.0
2383,46.0,23.0,60.0,13.0,0.0
2384,70.0,2.0,15.0,8.0,0.0
2385,70.0,2.0,30.0,10.0,0.0
2386,58.0,1.0,30.0,11.0,0.0
2387,86.0,1.0,15.0,0.0,0.0
2388,62.0,1.0,15.0,5.0,0.0
2389,86.0,0.0,60.0,1.0,0.0
2390,74.0,0.0,60.0,5.0,0.0
2391,81.0,0.0,60.0,2.0,0.0
2392,69.0,2.0,60.0,2.0,0.0
2393,69.0,2.0,30.0,10.0,0.0
2394,57.0,1.0,60.0,12.0,0.0
2395,57.0,1.0,60.0,3.0,0.0
2396,50.0,0.0,15.0,6.0,0.0
2397,45.0,23.0,60.0,13.0,0.0
2398,69.0,2.0,15.0,8.0,0.0
2399,69.0,0.0,30.0,10.0,0.0
2400,57.0,26.0,15.0,11.0,0.0
2401,74.0,1.0,15.0,0.0,0.0
2402,86.0,0.0,15.0,0.0,0.0
2403,75.0,30.0,30.0,8.0,0.0
2404,62.0,0.0,15.0,5.0,0.0
2405,74.0,0.0,120.0,5.0,0.0
2406,74.0,1.0,15.0,1.0,0.0
2407,86.0,0.0,120.0,1.0,0.0
2408,50.0,0.0,15.0,4.0,0.0
2409,74.0,0.0,120.0,2.0,0.0
2410,74.0,0.0,120.0,10.0,0.0
2411,62.0,0.0,120.0,4.0,0.0
2412,86.0,0.0,120.0,2.0,0.0
2413,62.0,1.0,120.0,11.0,0.0
2414,62.0,1.0,120.0,12.0,0.0
2415,50.0,0.0,15.0,6.0,0.0
2416,62.0,1.0,120.0,3.0,0.0
2417,50.0,23.0,120.0,13.0,0.0
2418,75.0,30.0,30.0,8.0,0.0
2419,74.0,30.0,30.0,8.0,0.0
2420,74.0,1.0,30.0,8.0,0.0
2421,79.0,30.0,30.0,8.0,0.0
2422,79.0,30.0,30.0,8.0,0.0
2423,78.0,30.0,15.0,8.0,0.0
2424,82.0,30.0,30.0,8.0,0.0
2425,82.0,30.0,30.0,8.0,0.0
2426,81.0,30.0,30.0,8.0,0.0
2427,81.0,30.0,30.0,8.0,0.0
2428,87.0,2.0,30.0,8.0,0.0
2429,62.0,0.0,60.0,4.0,0.0
2430,87.0,2.0,30.0,8.0,0.0
2431,75.0,28.0,15.0,10.0,0.0
2432,69.0,0.0,15.0,4.0,0.0
2433,81.0,0.0,15.0,2.0,0.0
2434,78.0,0.0,15.0,2.0,0.0
2435,62.0,28.0,60.0,4.0,0.0
2436,74.0,28.0,30.0,10.0,0.0
2437,86.0,2.0,15.0,8.0,0.0
2438,74.0,0.0,30.0,10.0,0.0
2439,82.0,2.0,30.0,8.0,0.0
2440,82.0,2.0,30.0,8.0,0.0
2441,70.0,28.0,15.0,10.0,0.0
2442,81.0,2.0,30.0,8.0,0.0
2443,69.0,28.0,30.0,10.0,0.0
2444,81.0,2.0,30.0,8.0,0.0
2445,69.0,28.0,30.0,10.0,0.0
2446,87.0,2.0,30.0,8.0,0.0
2447,81.0,0.0,60.0,2.0,0.0
2448,87.0,2.0,30.0,8.0,0.0
2449,75.0,28.0,15.0,10.0,0.0
2450,86.0,2.0,30.0,8.0,0.0
2451,69.0,0.0,15.0,4.0,0.0
2452,74.0,28.0,30.0,10.0,0.0
2453,62.0,0.0,15.0,4.0,0.0
2454,78.0,28.0,15.0,2.0,0.0
2455,81.0,28.0,60.0,2.0,0.0
2456,86.0,2.0,30.0,8.0,0.0
2457,74.0,0.0,30.0,10.0,0.0
2458,70.0,28.0,30.0,10.0,0.0
2459,82.0,2.0,15.0,8.0,0.0
2460,70.0,28.0,30.0,10.0,0.0
2461,69.0,28.0,30.0,10.0,0.0
2462,81.0,2.0,15.0,8.0,0.0
2463,69.0,28.0,30.0,10.0,0.0
2464,69.0,0.0,60.0,4.0,0.0
2465,75.0,28.0,30.0,10.0,0.0
2466,62.0,0.0,60.0,4.0,0.0
2467,87.0,2.0,15.0,8.0,0.0
2468,75.0,0.0,30.0,10.0,0.0
2469,86.0,2.0,30.0,8.0,0.0
2470,78.0,0.0,15.0,2.0,0.0
2471,62.0,0.0,60.0,4.0,0.0
2472,69.0,0.0,60.0,4.0,0.0
2473,81.0,28.0,15.0,2.0,0.0
2474,86.0,2.0,30.0,8.0,0.0
2475,74.0,28.0,15.0,10.0,0.0
2476,82.0,2.0,30.0,8.0,0.0
2477,82.0,2.0,30.0,8.0,0.0
2478,70.0,28.0,15.0,10.0,0.0
2479,69.0,28.0,30.0,10.0,0.0
2480,81.0,2.0,15.0,8.0,0.0
2481,69.0,28.0,30.0,10.0,0.0
2482,86.0,2.0,30.0,8.0,0.0
2483,81.0,0.0,60.0,2.0,0.0
2484,86.0,2.0,30.0,8.0,0.0
2485,74.0,28.0,15.0,10.0,0.0
2486,84.0,2.0,30.0,8.0,0.0
2487,78.0,0.0,15.0,2.0,0.0
2488,69.0,28.0,15.0,4.0,0.0
2489,62.0,0.0,15.0,4.0,0.0
2490,72.0,28.0,30.0,10.0,0.0
2491,81.0,0.0,60.0,2.0,0.0
2492,84.0,2.0,30.0,8.0,0.0
2493,72.0,0.0,30.0,10.0,0.0
2494,82.0,2.0,15.0,8.0,0.0
2495,70.0,28.0,15.0,10.0,0.0
2496,81.0,2.0,30.0,8.0,0.0
2497,81.0,2.0,30.0,8.0,0.0
2498,69.0,28.0,15.0,10.0,0.0
2499,69.0,13.0,60.0,4.0,0.0
2500,62.0,0.0,60.0,4.0,0.0
2501,81.0,0.0,60.0,2.0,0.0
2502,86.0,2.0,15.0,8.0,0.0
2503,74.0,15.0,15.0,10.0,0.0
2504,72.0,15.0,30.0,10.0,0.0
2505,69.0,13.0,60.0,4.0,0.0
2506,81.0,0.0,60.0,2.0,0.0
2507,78.0,0.0,15.0,2.0,0.0
2508,62.0,0.0,60.0,4.0,0.0
2509,69.0,1.0,60.0,11.0,0.0
2510,62.0,1.0,60.0,12.0,0.0
2511,62.0,39.0,60.0,3.0,0.0
2512,84.0,2.0,15.0,8.0,0.0
2513,72.0,0.0,30.0,10.0,0.0
2514,82.0,2.0,60.0,8.0,0.0
2515,70.0,45.0,60.0,10.0,0.0
2516,67.0,2.0,90.0,4.0,0.0
2517,79.0,0.0,120.0,2.0,0.0
2518,82.0,43.0,120.0,2.0,0.0
2519,55.0,0.0,90.0,4.0,0.0
2520,70.0,1.0,90.0,11.0,0.0
2521,67.0,1.0,90.0,12.0,0.0
2522,67.0,26.0,90.0,3.0,0.0
2523,81.0,2.0,60.0,8.0,0.0
2524,78.0,75.0,60.0,10.0,0.0
2525,69.0,2.0,60.0,2.0,0.0
2526,69.0,1.0,60.0,11.0,0.0
2527,62.0,1.0,60.0,12.0,0.0
2528,62.0,39.0,60.0,3.0,0.0
2529,79.0,2.0,60.0,8.0,0.0
2530,79.0,45.0,60.0,10.0,0.0
2531,70.0,2.0,90.0,2.0,0.0
2532,70.0,1.0,90.0,11.0,0.0
2533,67.0,1.0,90.0,12.0,0.0
2534,67.0,69.0,90.0,3.0,0.0
2535,81.0,2.0,60.0,8.0,0.0
2536,78.0,75.0,60.0,10.0,0.0
2537,69.0,2.0,60.0,2.0,0.0
2538,69.0,1.0,60.0,11.0,0.0
2539,62.0,1.0,60.0,12.0,0.0
2540,62.0,39.0,60.0,3.0,0.0
2541,82.0,2.0,60.0,8.0,0.0
2542,70.0,2.0,90.0,2.0,0.0
2543,79.0,45.0,60.0,10.0,0.0
2544,70.0,1.0,90.0,11.0,0.0
2545,67.0,1.0,90.0,12.0,0.0
2546,67.0,69.0,90.0,3.0,0.0
2547,81.0,2.0,60.0,8.0,0.0
2548,78.0,75.0,60.0,10.0,0.0
2549,69.0,2.0,60.0,2.0,0.0
2550,69.0,1.0,60.0,11.0,0.0
2551,62.0,1.0,60.0,12.0,0.0
2552,62.0,39.0,60.0,3.0,0.0
2553,82.0,2.0,60.0,8.0,0.0
2554,79.0,45.0,60.0,10.0,0.0
2555,70.0,2.0,90.0,2.0,0.0
2556,70.0,1.0,90.0,11.0,0.0
2557,67.0,1.0,90.0,12.0,0.0
2558,67.0,69.0,90.0,3.0,0.0
2559,82.0,2.0,60.0,8.0,0.0
2560,79.0,58.0,60.0,10.0,0.0
2561,81.0,2.0,60.0,8.0,0.0
2562,78.0,15.0,60.0,10.0,0.0
2563,69.0,2.0,60.0,2.0,0.0
2564,69.0,1.0,60.0,11.0,0.0
2565,62.0,1.0,60.0,12.0,0.0
2566,62.0,39.0,60.0,3.0,0.0
2567,82.0,2.0,60.0,8.0,0.0
2568,79.0,45.0,60.0,10.0,0.0
2569,70.0,2.0,90.0,2.0,0.0
2570,70.0,1.0,90.0,11.0,0.0
2571,67.0,1.0,90.0,12.0,0.0
2572,67.0,69.0,90.0,3.0,0.0
2573,81.0,2.0,60.0,8.0,0.0
2574,78.0,75.0,60.0,10.0,0.0
2575,69.0,2.0,60.0,2.0,0.0
2576,69.0,1.0,60.0,11.0,0.0
2577,62.0,1.0,60.0,12.0,0.0
2578,62.0,39.0,60.0,3.0,0.0
2579,82.0,2.0,60.0,8.0,0.0
2580,70.0,2.0,90.0,2.0,0.0
2581,79.0,45.0,60.0,10.0,0.0
2582,70.0,1.0,90.0,11.0,0.0
2583,67.0,1.0,90.0,12.0,0.0
2584,67.0,69.0,90.0,3.0,0.0
2585,84.0,2.0,60.0,8.0,0.0
2586,81.0,78.0,60.0,10.0,0.0
2587,72.0,2.0,180.0,2.0,0.0
2588,72.0,1.0,180.0,11.0,0.0
2589,65.0,116.0,60.0,3.0,0.0
2590,84.0,2.0,240.0,8.0,0.0
2591,65.0,1.0,15.0,12.0,0.0
2592,65.0,114.0,120.0,3.0,0.0
2593,74.0,0.0,60.0,2.0,0.0
2594,74.0,1.0,60.0,11.0,0.0
2595,70.0,1.0,60.0,12.0,0.0
2596,70.0,86.0,60.0,3.0,0.0
2597,84.0,2.0,120.0,8.0,0.0
2598,81.0,2.0,15.0,10.0,0.0
2599,72.0,2.0,90.0,2.0,0.0
2600,72.0,1.0,90.0,11.0,0.0
2601,65.0,1.0,90.0,12.0,0.0
2602,65.0,24.0,90.0,3.0,0.0
2603,86.0,2.0,60.0,8.0,0.0
2604,82.0,58.0,60.0,10.0,0.0
2605,84.0,2.0,60.0,8.0,0.0
2606,81.0,15.0,60.0,10.0,0.0
2607,72.0,2.0,60.0,2.0,0.0
2608,72.0,1.0,60.0,11.0,0.0
2609,65.0,1.0,60.0,12.0,0.0
2610,65.0,39.0,60.0,3.0,0.0
2611,86.0,2.0,60.0,8.0,0.0
2612,74.0,2.0,90.0,2.0,0.0
2613,82.0,45.0,60.0,10.0,0.0
2614,74.0,1.0,90.0,11.0,0.0
2615,70.0,1.0,90.0,12.0,0.0
2616,70.0,69.0,90.0,3.0,0.0
2617,84.0,2.0,60.0,8.0,0.0
2618,81.0,75.0,60.0,10.0,0.0
2619,72.0,2.0,60.0,2.0,0.0
2620,72.0,1.0,60.0,11.0,0.0
2621,65.0,1.0,60.0,12.0,0.0
2622,65.0,39.0,60.0,3.0,0.0
2623,86.0,2.0,60.0,8.0,0.0
2624,82.0,45.0,60.0,10.0,0.0
2625,74.0,2.0,90.0,2.0,0.0
2626,74.0,1.0,90.0,11.0,0.0
2627,70.0,1.0,90.0,12.0,0.0
2628,70.0,69.0,90.0,3.0,0.0
2629,84.0,2.0,60.0,8.0,0.0
2630,81.0,58.0,60.0,10.0,0.0
2631,82.0,2.0,60.0,8.0,0.0
2632,70.0,2.0,60.0,2.0,0.0
2633,79.0,15.0,60.0,10.0,0.0
2634,70.0,1.0,60.0,11.0,0.0
2635,67.0,1.0,60.0,12.0,0.0
2636,67.0,39.0,60.0,3.0,0.0
2637,84.0,2.0,60.0,8.0,0.0
2638,81.0,45.0,60.0,10.0,0.0
2639,72.0,2.0,90.0,2.0,0.0
2640,72.0,1.0,90.0,11.0,0.0
2641,69.0,1.0,90.0,12.0,0.0
2642,69.0,69.0,90.0,3.0,0.0
2643,82.0,2.0,60.0,8.0,0.0
2644,79.0,75.0,60.0,10.0,0.0
2645,70.0,2.0,60.0,2.0,0.0
2646,70.0,1.0,60.0,11.0,0.0
2647,67.0,1.0,60.0,12.0,0.0
2648,67.0,39.0,60.0,3.0,0.0
2649,84.0,2.0,60.0,8.0,0.0
2650,72.0,2.0,90.0,2.0,0.0
2651,81.0,45.0,60.0,10.0,0.0
2652,72.0,1.0,90.0,11.0,0.0
2653,69.0,1.0,90.0,12.0,0.0
2654,69.0,69.0,90.0,3.0,0.0
2655,82.0,2.0,60.0,8.0,0.0
2656,79.0,58.0,60.0,10.0,0.0
2657,81.0,2.0,60.0,8.0,0.0
2658,78.0,15.0,60.0,10.0,0.0
2659,69.0,2.0,60.0,2.0,0.0
2660,69.0,1.0,60.0,11.0,0.0
2661,62.0,1.0,60.0,12.0,0.0
2662,62.0,39.0,60.0,3.0,0.0
2663,82.0,2.0,60.0,8.0,0.0
2664,70.0,2.0,90.0,2.0,0.0
2665,79.0,45.0,60.0,10.0,0.0
2666,70.0,1.0,90.0,11.0,0.0
2667,67.0,1.0,90.0,12.0,0.0
2668,67.0,69.0,90.0,3.0,0.0
2669,81.0,2.0,60.0,8.0,0.0
2670,78.0,75.0,60.0,10.0,0.0
2671,69.0,2.0,60.0,2.0,0.0
2672,69.0,1.0,60.0,11.0,0.0
2673,62.0,1.0,60.0,12.0,0.0
2674,62.0,39.0,60.0,3.0,0.0
2675,82.0,2.0,60.0,8.0,0.0
2676,70.0,2.0,90.0,2.0,0.0
2677,79.0,45.0,60.0,10.0,0.0
2678,70.0,1.0,90.0,11.0,0.0
2679,67.0,1.0,90.0,12.0,0.0
2680,67.0,69.0,90.0,3.0,0.0
2681,81.0,2.0,60.0,8.0,0.0
2682,78.0,75.0,60.0,10.0,0.0
2683,69.0,1.0,60.0,11.0,0.0
2684,62.0,1.0,60.0,12.0,0.0
2685,81.0,2.0,240.0,8.0,0.0
2686,69.0,2.0,15.0,2.0,0.0
2687,78.0,0.0,240.0,10.0,0.0
2688,69.0,1.0,120.0,11.0,0.0
2689,62.0,1.0,120.0,12.0,0.0
2690,62.0,116.0,15.0,3.0,0.0
2691,81.0,2.0,120.0,8.0,0.0
2692,69.0,2.0,15.0,2.0,0.0
2693,78.0,0.0,120.0,10.0,0.0
2694,69.0,1.0,15.0,11.0,0.0
2695,62.0,1.0,15.0,12.0,0.0
2696,62.0,114.0,15.0,3.0,0.0
2697,69.0,118.0,120.0,4.0,0.0
2698,62.0,0.0,120.0,4.0,0.0
2699,67.0,0.0,120.0,4.0,0.0
2700,71.0,0.0,120.0,4.0,0.0
2701,55.0,1.0,120.0,12.0,0.0
2702,55.0,1.0,120.0,6.0,0.0
2703,43.0,53.0,120.0,13.0,0.0
2704,74.0,2.0,60.0,8.0,0.0
2705,62.0,3.0,60.0,10.0,0.0
2706,83.0,2.0,60.0,8.0,0.0
2707,62.0,4.0,120.0,4.0,0.0
2708,69.0,0.0,120.0,4.0,0.0
2709,71.0,58.0,60.0,10.0,0.0
2710,81.0,2.0,60.0,8.0,0.0
2711,69.0,0.0,60.0,10.0,0.0
2712,50.0,54.0,60.0,6.0,0.0
2713,79.0,2.0,60.0,8.0,0.0
2714,67.0,58.0,60.0,10.0,0.0
2715,59.0,0.0,120.0,4.0,0.0
2716,67.0,0.0,120.0,4.0,0.0
2717,55.0,54.0,120.0,6.0,0.0
2718,74.0,2.0,60.0,8.0,0.0
2719,62.0,4.0,60.0,10.0,0.0
2720,79.0,2.0,60.0,8.0,0.0
2721,62.0,0.0,120.0,4.0,0.0
2722,69.0,0.0,120.0,4.0,0.0
2723,67.0,58.0,60.0,10.0,0.0
2724,81.0,2.0,60.0,8.0,0.0
2725,69.0,4.0,60.0,10.0,0.0
2726,50.0,114.0,60.0,6.0,0.0
2727,71.0,0.0,120.0,4.0,0.0
2728,67.0,0.0,120.0,4.0,0.0
2729,55.0,1.0,120.0,12.0,0.0
2730,55.0,1.0,120.0,6.0,0.0
2731,43.0,53.0,120.0,13.0,0.0
2732,74.0,2.0,60.0,8.0,0.0
2733,62.0,3.0,60.0,10.0,0.0
2734,83.0,2.0,60.0,8.0,0.0
2735,62.0,0.0,120.0,4.0,0.0
2736,69.0,4.0,120.0,4.0,0.0
2737,71.0,58.0,60.0,10.0,0.0
2738,81.0,2.0,60.0,8.0,0.0
2739,69.0,0.0,60.0,10.0,0.0
2740,50.0,54.0,60.0,6.0,0.0
2741,83.0,2.0,60.0,8.0,0.0
2742,71.0,58.0,60.0,10.0,0.0
2743,55.0,54.0,120.0,6.0,0.0
2744,74.0,2.0,60.0,8.0,0.0
2745,62.0,0.0,60.0,10.0,0.0
2746,83.0,2.0,60.0,8.0,0.0
2747,67.0,4.0,15.0,4.0,0.0
2748,71.0,0.0,15.0,4.0,0.0
2749,71.0,0.0,60.0,10.0,0.0
2750,81.0,2.0,60.0,8.0,0.0
2751,69.0,0.0,60.0,10.0,0.0
2752,69.0,4.0,60.0,4.0,0.0
2753,62.0,0.0,60.0,4.0,0.0
2754,50.0,114.0,60.0,6.0,0.0
2755,67.0,0.0,120.0,4.0,0.0
2756,71.0,3.0,120.0,4.0,0.0
2757,55.0,1.0,120.0,12.0,0.0
2758,55.0,1.0,120.0,6.0,0.0
2759,43.0,53.0,120.0,13.0,0.0
2760,74.0,2.0,60.0,8.0,0.0
2761,62.0,0.0,60.0,10.0,0.0
2762,83.0,2.0,60.0,8.0,0.0
2763,62.0,0.0,120.0,4.0,0.0
2764,69.0,0.0,120.0,4.0,0.0
2765,71.0,58.0,60.0,10.0,0.0
2766,81.0,2.0,60.0,8.0,0.0
2767,69.0,4.0,60.0,10.0,0.0
2768,50.0,54.0,60.0,6.0,0.0
2769,83.0,2.0,60.0,8.0,0.0
2770,71.0,58.0,60.0,10.0,0.0
2771,55.0,1.0,120.0,12.0,0.0
2772,55.0,1.0,120.0,6.0,0.0
2773,43.0,53.0,120.0,13.0,0.0
2774,74.0,2.0,60.0,8.0,0.0
2775,62.0,0.0,60.0,10.0,0.0
2776,83.0,2.0,60.0,8.0,0.0
2777,67.0,3.0,15.0,4.0,0.0
2778,71.0,0.0,60.0,10.0,0.0
2779,71.0,0.0,15.0,4.0,0.0
2780,84.0,2.0,60.0,8.0,0.0
2781,72.0,4.0,60.0,10.0,0.0
2782,69.0,0.0,60.0,4.0,0.0
2783,72.0,0.0,60.0,4.0,0.0
2784,69.0,0.0,240.0,4.0,0.0
2785,72.0,0.0,240.0,4.0,0.0
2786,50.0,1.0,120.0,12.0,0.0
2787,50.0,114.0,15.0,6.0,0.0
2788,38.0,53.0,120.0,13.0,0.0
2789,74.0,2.0,60.0,8.0,0.0
2790,62.0,3.0,60.0,10.0,0.0
2791,84.0,2.0,60.0,8.0,0.0
2792,72.0,58.0,60.0,10.0,0.0
2793,83.0,2.0,60.0,8.0,0.0
2794,71.0,4.0,60.0,10.0,0.0
2795,84.0,2.0,60.0,8.0,0.0
2796,69.0,4.0,120.0,4.0,0.0
2797,72.0,58.0,60.0,10.0,0.0
2798,72.0,0.0,120.0,4.0,0.0
2799,50.0,54.0,15.0,6.0,0.0
2800,74.0,2.0,60.0,8.0,0.0
2801,62.0,0.0,60.0,10.0,0.0
2802,86.0,2.0,60.0,8.0,0.0
2803,74.0,58.0,60.0,10.0,0.0
2804,71.0,0.0,60.0,4.0,0.0
2805,74.0,0.0,60.0,4.0,0.0
2806,84.0,2.0,60.0,8.0,0.0
2807,72.0,0.0,60.0,4.0,0.0
2808,72.0,4.0,60.0,10.0,0.0
2809,69.0,0.0,60.0,4.0,0.0
2810,50.0,114.0,60.0,6.0,0.0
2811,71.0,0.0,120.0,4.0,0.0
2812,74.0,3.0,120.0,4.0,0.0
2813,55.0,1.0,120.0,12.0,0.0
2814,55.0,1.0,120.0,6.0,0.0
2815,43.0,53.0,120.0,13.0,0.0
2816,74.0,2.0,60.0,8.0,0.0
2817,62.0,0.0,60.0,10.0,0.0
2818,86.0,2.0,60.0,8.0,0.0
2819,72.0,0.0,120.0,4.0,0.0
2820,69.0,4.0,120.0,4.0,0.0
2821,74.0,58.0,60.0,10.0,0.0
2822,84.0,2.0,60.0,8.0,0.0
2823,72.0,0.0,60.0,10.0,0.0
2824,50.0,54.0,60.0,6.0,0.0
2825,86.0,2.0,60.0,8.0,0.0
2826,74.0,58.0,60.0,10.0,0.0
2827,71.0,0.0,120.0,4.0,0.0
2828,74.0,0.0,120.0,4.0,0.0
2829,55.0,54.0,120.0,6.0,0.0
2830,74.0,2.0,60.0,8.0,0.0
2831,62.0,4.0,60.0,10.0,0.0
2832,84.0,2.0,60.0,8.0,0.0
2833,72.0,0.0,60.0,4.0,0.0
2834,69.0,58.0,60.0,4.0,0.0
2835,72.0,0.0,60.0,10.0,0.0
2836,55.0,1.0,120.0,12.0,0.0
2837,43.0,113.0,120.0,13.0,0.0
2838,83.0,2.0,60.0,8.0,0.0
2839,71.0,0.0,60.0,4.0,0.0
2840,71.0,3.0,60.0,10.0,0.0
2841,67.0,0.0,60.0,4.0,0.0
2842,55.0,1.0,60.0,6.0,0.0
2843,72.0,0.0,120.0,4.0,0.0
2844,69.0,3.0,120.0,4.0,0.0
2845,50.0,1.0,120.0,12.0,0.0
2846,50.0,1.0,120.0,6.0,0.0
2847,38.0,53.0,120.0,13.0,0.0
2848,74.0,2.0,60.0,8.0,0.0
2849,62.0,0.0,60.0,10.0,0.0
2850,84.0,2.0,60.0,8.0,0.0
2851,72.0,58.0,60.0,10.0,0.0
2852,67.0,0.0,120.0,4.0,0.0
2853,71.0,0.0,120.0,4.0,0.0
2854,83.0,2.0,60.0,8.0,0.0
2855,71.0,4.0,60.0,10.0,0.0
2856,55.0,54.0,60.0,6.0,0.0
2857,84.0,2.0,60.0,8.0,0.0
2858,72.0,0.0,120.0,4.0,0.0
2859,69.0,0.0,120.0,4.0,0.0
2860,72.0,58.0,60.0,10.0,0.0
2861,50.0,54.0,120.0,6.0,0.0
2862,74.0,2.0,60.0,8.0,0.0
2863,62.0,4.0,60.0,10.0,0.0
2864,83.0,2.0,60.0,8.0,0.0
2865,71.0,58.0,60.0,10.0,0.0
2866,71.0,0.0,60.0,4.0,0.0
2867,67.0,0.0,60.0,4.0,0.0
2868,50.0,1.0,120.0,12.0,0.0
2869,38.0,113.0,120.0,13.0,0.0
2870,81.0,2.0,60.0,8.0,0.0
2871,69.0,0.0,60.0,10.0,0.0
2872,62.0,0.0,60.0,4.0,0.0
2873,69.0,3.0,60.0,4.0,0.0
2874,50.0,1.0,60.0,6.0,0.0
2875,67.0,0.0,120.0,4.0,0.0
2876,71.0,0.0,120.0,4.0,0.0
2877,55.0,1.0,120.0,12.0,0.0
2878,55.0,1.0,120.0,6.0,0.0
2879,43.0,53.0,120.0,13.0,0.0
2880,74.0,2.0,60.0,8.0,0.0
2881,62.0,3.0,60.0,10.0,0.0
2882,83.0,2.0,60.0,8.0,0.0
2883,62.0,0.0,120.0,4.0,0.0
2884,69.0,0.0,120.0,4.0,0.0
2885,71.0,58.0,60.0,10.0,0.0
2886,81.0,2.0,60.0,8.0,0.0
2887,69.0,4.0,60.0,10.0,0.0
2888,50.0,54.0,60.0,6.0,0.0
2889,83.0,2.0,60.0,8.0,0.0
2890,71.0,58.0,60.0,10.0,0.0
2891,67.0,3.0,120.0,4.0,0.0
2892,71.0,0.0,120.0,4.0,0.0
2893,55.0,1.0,120.0,12.0,0.0
2894,55.0,1.0,120.0,6.0,0.0
2895,43.0,53.0,120.0,13.0,0.0
2896,74.0,2.0,60.0,8.0,0.0
2897,62.0,0.0,60.0,10.0,0.0
2898,83.0,2.0,60.0,8.0,0.0
2899,71.0,58.0,60.0,10.0,0.0
2900,69.0,0.0,120.0,4.0,0.0
2901,62.0,0.0,120.0,4.0,0.0
2902,81.0,2.0,60.0,8.0,0.0
2903,50.0,114.0,60.0,6.0,0.0
2904,81.0,2.0,120.0,8.0,0.0
2905,69.0,4.0,15.0,10.0,0.0
2906,50.0,1.0,120.0,12.0,0.0
2907,50.0,1.0,120.0,6.0,0.0
2908,38.0,115.0,120.0,13.0,0.0
2909,69.0,240.0,15.0,4.0,0.0
2910,62.0,0.0,15.0,4.0,0.0
2911,74.0,2.0,30.0,10.0,0.0
2912,62.0,28.0,30.0,11.0,0.0
2913,50.0,26.0,15.0,3.0,0.0
2914,62.0,0.0,15.0,3.0,0.0
2915,74.0,2.0,30.0,10.0,0.0
2916,62.0,16.0,30.0,11.0,0.0
2917,87.0,12.0,20.0,8.0,0.0
2918,62.0,6.0,30.0,11.0,0.0
2919,86.0,20.0,20.0,8.0,0.0
2920,74.0,2.0,15.0,10.0,0.0
2921,62.0,28.0,30.0,11.0,0.0
2922,85.0,2.0,20.0,8.0,0.0
2923,86.0,17.0,60.0,8.0,0.0
2924,74.0,2.0,15.0,10.0,0.0
2925,62.0,11.0,30.0,11.0,0.0
2926,74.0,2.0,15.0,10.0,0.0
2927,86.0,15.0,60.0,8.0,0.0
2928,74.0,2.0,15.0,10.0,0.0
2929,62.0,28.0,15.0,11.0,0.0
2930,62.0,11.0,15.0,11.0,0.0
2931,86.0,2.0,15.0,0.0,0.0
2932,86.0,17.0,60.0,8.0,0.0
2933,74.0,0.0,15.0,10.0,0.0
2934,74.0,2.0,15.0,2.0,0.0
2935,62.0,11.0,30.0,11.0,0.0
2936,62.0,0.0,240.0,3.0,0.0
2937,50.0,26.0,240.0,3.0,0.0
2938,74.0,2.0,15.0,10.0,0.0
2939,62.0,16.0,30.0,11.0,0.0
2940,87.0,12.0,20.0,8.0,0.0
2941,62.0,6.0,30.0,11.0,0.0
2942,86.0,20.0,20.0,8.0,0.0
2943,74.0,2.0,15.0,10.0,0.0
2944,62.0,28.0,30.0,11.0,0.0
2945,85.0,2.0,20.0,8.0,0.0
2946,86.0,17.0,60.0,8.0,0.0
2947,74.0,2.0,30.0,10.0,0.0
2948,74.0,2.0,30.0,10.0,0.0
2949,62.0,11.0,15.0,11.0,0.0
2950,86.0,15.0,60.0,8.0,0.0
2951,74.0,2.0,30.0,10.0,0.0
2952,62.0,11.0,30.0,11.0,0.0
2953,74.0,0.0,30.0,10.0,0.0
2954,62.0,2.0,30.0,11.0,0.0
2955,86.0,2.0,15.0,0.0,0.0
2956,86.0,2.0,120.0,8.0,0.0
2957,62.0,0.0,240.0,4.0,0.0
2958,50.0,2.0,240.0,4.0,0.0
2959,46.0,2.0,300.0,12.0,0.0
2960,34.0,18.0,300.0,13.0,0.0
2961,74.0,2.0,15.0,10.0,0.0
2962,62.0,28.0,15.0,11.0,0.0
2963,74.0,2.0,30.0,10.0,0.0
2964,62.0,28.0,15.0,11.0,0.0
2965,74.0,2.0,30.0,10.0,0.0
2966,62.0,28.0,30.0,11.0,0.0
2967,74.0,2.0,15.0,10.0,0.0
2968,62.0,28.0,15.0,11.0,0.0
2969,74.0,2.0,15.0,10.0,0.0
2970,62.0,28.0,15.0,11.0,0.0
2971,74.0,2.0,15.0,10.0,0.0
2972,62.0,28.0,15.0,11.0,0.0
2973,62.0,0.0,240.0,4.0,0.0
2974,74.0,2.0,30.0,10.0,0.0
2975,62.0,28.0,15.0,11.0,0.0
2976,74.0,2.0,15.0,10.0,0.0
2977,62.0,1.0,15.0,11.0,0.0
2978,48.0,2.0,20.0,12.0,0.0
2979,36.0,5.0,20.0,13.0,0.0
2980,46.0,2.0,20.0,12.0,0.0
2981,34.0,15.0,20.0,13.0,0.0
2982,74.0,2.0,30.0,10.0,0.0
2983,45.0,2.0,20.0,12.0,0.0
2984,33.0,25.0,20.0,13.0,0.0
2985,74.0,2.0,30.0,10.0,0.0
2986,62.0,1.0,15.0,11.0,0.0
2987,46.0,2.0,60.0,12.0,0.0
2988,34.0,25.0,60.0,13.0,0.0
2989,74.0,2.0,30.0,10.0,0.0
2990,62.0,1.0,15.0,11.0,0.0
2991,48.0,1.0,60.0,12.0,0.0
2992,36.0,25.0,60.0,13.0,0.0
2993,74.0,2.0,15.0,10.0,0.0
2994,62.0,1.0,30.0,11.0,0.0
2995,86.0,2.0,15.0,0.0,0.0
2996,50.0,0.0,15.0,4.0,0.0
2997,74.0,2.0,15.0,2.0,0.0
2998,62.0,28.0,30.0,11.0,0.0
2999,50.0,2.0,120.0,12.0,0.0
3000,62.0,1.0,15.0,3.0,0.0
3001,50.0,0.0,15.0,3.0,0.0
3002,38.0,25.0,120.0,13.0,0.0
3003,74.0,2.0,15.0,10.0,0.0
3004,62.0,16.0,30.0,11.0,0.0
3005,88.0,12.0,20.0,8.0,0.0
3006,74.0,2.0,15.0,10.0,0.0
3007,62.0,6.0,30.0,11.0,0.0
3008,86.0,20.0,20.0,8.0,0.0
3009,85.0,2.0,20.0,8.0,0.0
3010,86.0,17.0,60.0,8.0,0.0
3011,74.0,2.0,15.0,10.0,0.0
3012,62.0,1.0,15.0,11.0,0.0
3013,74.0,2.0,15.0,10.0,0.0
3014,62.0,28.0,30.0,11.0,0.0
3015,86.0,15.0,60.0,8.0,0.0
3016,74.0,2.0,15.0,10.0,0.0
3017,74.0,0.0,30.0,10.0,0.0
3018,62.0,11.0,15.0,11.0,0.0
3019,86.0,17.0,60.0,8.0,0.0
3020,74.0,0.0,240.0,2.0,0.0
3021,62.0,2.0,15.0,11.0,0.0
3022,62.0,26.0,15.0,3.0,0.0
3023,74.0,2.0,15.0,10.0,0.0
3024,88.0,12.0,20.0,8.0,0.0
3025,74.0,2.0,30.0,10.0,0.0
3026,62.0,16.0,15.0,11.0,0.0
3027,86.0,20.0,20.0,8.0,0.0
3028,62.0,6.0,15.0,11.0,0.0
3029,85.0,2.0,20.0,8.0,0.0
3030,86.0,17.0,60.0,8.0,0.0
3031,74.0,2.0,15.0,10.0,0.0
3032,74.0,2.0,15.0,10.0,0.0
3033,62.0,11.0,15.0,11.0,0.0
3034,86.0,15.0,60.0,8.0,0.0
3035,74.0,2.0,15.0,10.0,0.0
3036,62.0,11.0,30.0,11.0,0.0
3037,62.0,2.0,30.0,11.0,0.0
3038,86.0,2.0,15.0,0.0,0.0
3039,86.0,2.0,120.0,8.0,0.0
3040,74.0,0.0,15.0,10.0,0.0
3041,62.0,2.0,15.0,4.0,0.0
3042,50.0,0.0,15.0,4.0,0.0
3043,47.0,2.0,300.0,12.0,0.0
3044,62.0,0.0,15.0,3.0,0.0
3045,50.0,26.0,15.0,3.0,0.0
3046,35.0,18.0,300.0,13.0,0.0
3047,62.0,28.0,15.0,11.0,0.0
3048,74.0,2.0,15.0,10.0,0.0
3049,62.0,28.0,15.0,11.0,0.0
3050,62.0,26.0,15.0,11.0,0.0
3051,74.0,2.0,15.0,10.0,0.0
3052,62.0,28.0,15.0,11.0,0.0
3053,74.0,2.0,15.0,10.0,0.0
3054,74.0,2.0,15.0,10.0,0.0
3055,62.0,28.0,15.0,11.0,0.0
3056,74.0,0.0,30.0,10.0,0.0
3057,62.0,28.0,30.0,11.0,0.0
3058,50.0,0.0,240.0,4.0,0.0
3059,62.0,0.0,240.0,4.0,0.0
3060,62.0,28.0,30.0,11.0,0.0
3061,74.0,2.0,15.0,10.0,0.0
3062,74.0,2.0,15.0,10.0,0.0
3063,62.0,1.0,15.0,11.0,0.0
3064,48.0,2.0,20.0,12.0,0.0
3065,36.0,5.0,20.0,13.0,0.0
3066,47.0,2.0,20.0,12.0,0.0
3067,35.0,15.0,20.0,13.0,0.0
3068,74.0,2.0,30.0,10.0,0.0
3069,45.0,2.0,20.0,12.0,0.0
3070,33.0,25.0,20.0,13.0,0.0
3071,74.0,2.0,30.0,10.0,0.0
3072,62.0,1.0,15.0,11.0,0.0
3073,47.0,2.0,60.0,12.0,0.0
3074,35.0,10.0,60.0,13.0,0.0
3075,74.0,2.0,30.0,10.0,0.0
3076,62.0,16.0,15.0,11.0,0.0
3077,74.0,2.0,30.0,10.0,0.0
3078,62.0,16.0,30.0,11.0,0.0
3079,48.0,2.0,60.0,12.0,0.0
3080,36.0,8.0,60.0,13.0,0.0
3081,74.0,0.0,30.0,10.0,0.0
3082,62.0,2.0,30.0,11.0,0.0
3083,86.0,2.0,240.0,0.0,0.0
3084,74.0,2.0,60.0,10.0,0.0
3085,62.0,0.0,480.0,4.0,0.0
3086,74.0,2.0,15.0,2.0,0.0
3087,50.0,0.0,480.0,4.0,0.0
3088,62.0,16.0,30.0,11.0,0.0
3089,50.0,2.0,60.0,12.0,0.0
3090,62.0,28.0,15.0,3.0,0.0
3091,50.0,0.0,15.0,3.0,0.0
3092,38.0,10.0,60.0,13.0,0.0
3093,62.0,21.0,30.0,11.0,0.0
3094,52.0,2.0,20.0,12.0,0.0
3095,40.0,7.0,20.0,13.0,0.0
3096,50.0,2.0,20.0,12.0,0.0
3097,38.0,17.0,20.0,13.0,0.0
3098,62.0,11.0,15.0,11.0,0.0
3099,49.0,2.0,20.0,12.0,0.0
3100,37.0,27.0,20.0,13.0,0.0
3101,50.0,2.0,60.0,12.0,0.0
3102,38.0,8.0,60.0,13.0,0.0
3103,62.0,16.0,15.0,11.0,0.0
3104,86.0,2.0,15.0,8.0,0.0
3105,74.0,2.0,15.0,10.0,0.0
3106,62.0,30.0,15.0,11.0,0.0
3107,52.0,2.0,60.0,12.0,0.0
3108,40.0,8.0,60.0,13.0,0.0
3109,86.0,0.0,120.0,0.0,0.0
3110,81.0,0.0,120.0,2.0,0.0
3111,84.0,2.0,120.0,2.0,0.0
3112,62.0,2.0,15.0,11.0,0.0
3113,53.0,2.0,60.0,12.0,0.0
3114,50.0,28.0,15.0,3.0,0.0
3115,62.0,0.0,240.0,3.0,0.0
3116,41.0,8.0,60.0,13.0,0.0
3117,62.0,21.0,30.0,11.0,0.0
3118,86.0,2.0,15.0,8.0,0.0
3119,74.0,2.0,15.0,10.0,0.0
3120,55.0,2.0,20.0,12.0,0.0
3121,43.0,7.0,20.0,13.0,0.0
3122,53.0,2.0,20.0,12.0,0.0
3123,41.0,13.0,20.0,13.0,0.0
3124,62.0,11.0,15.0,11.0,0.0
3125,52.0,2.0,20.0,12.0,0.0
3126,40.0,23.0,20.0,13.0,0.0
3127,86.0,2.0,15.0,8.0,0.0
3128,93.0,0.0,120.0,0.0,0.0
3129,74.0,0.0,120.0,1.0,0.0
3130,74.0,2.0,30.0,10.0,0.0
3131,72.0,0.0,120.0,2.0,0.0
3132,81.0,2.0,120.0,2.0,0.0
3133,62.0,1.0,15.0,11.0,0.0
3134,53.0,2.0,60.0,12.0,0.0
3135,41.0,8.0,60.0,13.0,0.0
3136,84.0,2.0,30.0,8.0,0.0
3137,72.0,2.0,30.0,10.0,0.0
3138,62.0,26.0,30.0,11.0,0.0
3139,83.0,2.0,30.0,8.0,0.0
3140,71.0,2.0,30.0,10.0,0.0
3141,54.0,2.0,60.0,12.0,0.0
3142,42.0,8.0,60.0,13.0,0.0
3143,81.0,1.0,30.0,8.0,0.0
3144,69.0,0.0,30.0,10.0,0.0
3145,54.0,16.0,15.0,11.0,0.0
3146,91.0,0.0,600.0,0.0,0.0
3147,86.0,0.0,600.0,0.0,0.0
3148,67.0,2.0,120.0,8.0,0.0
3149,59.0,0.0,120.0,8.0,0.0
3150,79.0,2.0,300.0,8.0,0.0
3151,86.0,1.0,15.0,1.0,0.0
3152,67.0,0.0,30.0,10.0,0.0
3153,79.0,0.0,600.0,2.0,0.0
3154,71.0,0.0,600.0,2.0,0.0
3155,62.0,2.0,30.0,10.0,0.0
3156,59.0,0.0,30.0,11.0,0.0
3157,55.0,0.0,120.0,6.0,0.0
3158,43.0,25.0,60.0,13.0,0.0
3159,67.0,2.0,30.0,10.0,0.0
3160,62.0,0.0,30.0,10.0,0.0
3161,55.0,28.0,15.0,11.0,0.0
3162,55.0,1.0,15.0,11.0,0.0
3163,59.0,0.0,15.0,11.0,0.0
3164,55.0,1.0,15.0,12.0,0.0
3165,55.0,1.0,15.0,3.0,0.0
3166,43.0,25.0,60.0,13.0,0.0
3167,62.0,2.0,15.0,10.0,0.0
3168,67.0,0.0,15.0,10.0,0.0
3169,59.0,26.0,15.0,11.0,0.0
3170,67.0,0.0,30.0,10.0,0.0
3171,62.0,2.0,15.0,10.0,0.0
3172,59.0,0.0,15.0,11.0,0.0
3173,55.0,1.0,15.0,11.0,0.0
3174,55.0,1.0,15.0,12.0,0.0
3175,55.0,1.0,15.0,3.0,0.0
3176,43.0,25.0,60.0,13.0,0.0
3177,55.0,28.0,15.0,11.0,0.0
3178,59.0,0.0,15.0,11.0,0.0
3179,62.0,2.0,15.0,10.0,0.0
3180,67.0,0.0,15.0,10.0,0.0
3181,55.0,1.0,15.0,11.0,0.0
3182,59.0,28.0,30.0,11.0,0.0
3183,55.0,1.0,15.0,12.0,0.0
3184,55.0,1.0,60.0,3.0,0.0
3185,67.0,2.0,15.0,10.0,0.0
3186,62.0,0.0,15.0,10.0,0.0
3187,59.0,0.0,30.0,11.0,0.0
3188,62.0,2.0,15.0,10.0,0.0
3189,67.0,0.0,30.0,10.0,0.0
3190,55.0,1.0,15.0,11.0,0.0
3191,43.0,25.0,15.0,13.0,0.0
3192,67.0,0.0,30.0,10.0,0.0
3193,55.0,0.0,15.0,11.0,0.0
3194,59.0,26.0,15.0,11.0,0.0
3195,81.0,12.0,20.0,8.0,0.0
3196,67.0,2.0,30.0,10.0,0.0
3197,62.0,2.0,15.0,10.0,0.0
3198,59.0,1.0,15.0,11.0,0.0
3199,55.0,1.0,15.0,12.0,0.0
3200,55.0,1.0,15.0,3.0,0.0
3201,79.0,20.0,20.0,8.0,0.0
3202,62.0,0.0,15.0,10.0,0.0
3203,55.0,6.0,15.0,11.0,0.0
3204,59.0,0.0,15.0,11.0,0.0
3205,78.0,2.0,20.0,8.0,0.0
3206,79.0,17.0,60.0,8.0,0.0
3207,67.0,2.0,15.0,10.0,0.0
3208,62.0,0.0,15.0,10.0,0.0
3209,55.0,0.0,30.0,11.0,0.0
3210,59.0,1.0,15.0,11.0,0.0
3211,55.0,1.0,15.0,12.0,0.0
3212,43.0,25.0,15.0,13.0,0.0
3213,59.0,11.0,15.0,11.0,0.0
3214,81.0,17.0,60.0,8.0,0.0
3215,67.0,2.0,15.0,10.0,0.0
3216,62.0,0.0,15.0,10.0,0.0
3217,55.0,0.0,15.0,11.0,0.0
3218,59.0,1.0,15.0,11.0,0.0
3219,55.0,1.0,15.0,12.0,0.0
3220,55.0,1.0,15.0,3.0,0.0
3221,67.0,0.0,30.0,10.0,0.0
3222,83.0,1.0,120.0,8.0,0.0
3223,62.0,2.0,15.0,10.0,0.0
3224,55.0,1.0,15.0,11.0,0.0
3225,59.0,0.0,15.0,11.0,0.0
3226,55.0,1.0,15.0,12.0,0.0
3227,55.0,1.0,120.0,3.0,0.0
3228,55.0,0.0,120.0,6.0,0.0
3229,43.0,25.0,15.0,13.0,0.0
3230,67.0,2.0,15.0,10.0,0.0
3231,62.0,0.0,15.0,10.0,0.0
3232,55.0,28.0,15.0,11.0,0.0
3233,67.0,0.0,30.0,10.0,0.0
3234,62.0,2.0,30.0,10.0,0.0
3235,59.0,0.0,15.0,11.0,0.0
3236,55.0,0.0,30.0,11.0,0.0
3237,55.0,2.0,15.0,12.0,0.0
3238,67.0,0.0,30.0,10.0,0.0
3239,62.0,2.0,30.0,10.0,0.0
3240,55.0,0.0,30.0,11.0,0.0
3241,86.0,0.0,120.0,0.0,0.0
3242,79.0,1.0,120.0,8.0,0.0
3243,86.0,0.0,15.0,1.0,0.0
3244,83.0,0.0,15.0,1.0,0.0
3245,79.0,1.0,15.0,5.0,0.0
3246,67.0,0.0,15.0,5.0,0.0
3247,67.0,0.0,15.0,4.0,0.0
3248,55.0,0.0,15.0,4.0,0.0
3249,71.0,0.0,120.0,2.0,0.0
3250,74.0,0.0,120.0,2.0,0.0
3251,62.0,0.0,30.0,10.0,0.0
3252,59.0,1.0,15.0,11.0,0.0
3253,55.0,0.0,30.0,11.0,0.0
3254,59.0,0.0,120.0,3.0,0.0
3255,62.0,0.0,120.0,3.0,0.0
3256,55.0,1.0,120.0,6.0,0.0
3257,43.0,25.0,15.0,13.0,0.0
3258,67.0,2.0,15.0,10.0,0.0
3259,62.0,2.0,15.0,10.0,0.0
3260,67.0,0.0,15.0,10.0,0.0
3261,55.0,1.0,15.0,11.0,0.0
3262,59.0,0.0,15.0,11.0,0.0
3263,55.0,2.0,15.0,12.0,0.0
3264,43.0,25.0,60.0,13.0,0.0
3265,67.0,2.0,15.0,10.0,0.0
3266,62.0,0.0,15.0,10.0,0.0
3267,59.0,1.0,30.0,11.0,0.0
3268,55.0,0.0,30.0,11.0,0.0
3269,76.0,0.0,120.0,8.0,0.0
3270,91.0,0.0,15.0,0.0,0.0
3271,88.0,1.0,120.0,0.0,0.0
3272,88.0,1.0,120.0,1.0,0.0
3273,79.0,0.0,15.0,5.0,0.0
3274,84.0,0.0,120.0,1.0,0.0
3275,67.0,0.0,15.0,5.0,0.0
3276,55.0,0.0,120.0,4.0,0.0
3277,72.0,0.0,120.0,2.0,0.0
3278,76.0,2.0,120.0,2.0,0.0
3279,67.0,0.0,30.0,10.0,0.0
3280,64.0,2.0,30.0,10.0,0.0
3281,67.0,0.0,120.0,4.0,0.0
3282,60.0,2.0,60.0,12.0,0.0
3283,60.0,0.0,120.0,3.0,0.0
3284,64.0,0.0,120.0,3.0,0.0
3285,55.0,1.0,120.0,6.0,0.0
3286,48.0,25.0,60.0,13.0,0.0
3287,64.0,0.0,30.0,10.0,0.0
3288,55.0,0.0,15.0,11.0,0.0
3289,60.0,28.0,15.0,11.0,0.0
3290,67.0,2.0,15.0,10.0,0.0
3291,64.0,2.0,30.0,10.0,0.0
3292,55.0,26.0,30.0,11.0,0.0
3293,60.0,1.0,60.0,12.0,0.0
3294,48.0,25.0,60.0,13.0,0.0
3295,64.0,0.0,30.0,10.0,0.0
3296,67.0,0.0,30.0,10.0,0.0
3297,60.0,0.0,15.0,11.0,0.0
3298,55.0,0.0,30.0,11.0,0.0
3299,74.0,0.0,120.0,8.0,0.0
3300,91.0,0.0,15.0,0.0,0.0
3301,86.0,1.0,120.0,0.0,0.0
3302,67.0,0.0,15.0,5.0,0.0
3303,79.0,0.0,15.0,5.0,0.0
3304,86.0,0.0,120.0,1.0,0.0
3305,83.0,0.0,120.0,1.0,0.0
3306,62.0,2.0,30.0,10.0,0.0
3307,71.0,0.0,120.0,2.0,0.0
3308,74.0,2.0,120.0,2.0,0.0
3309,55.0,0.0,30.0,11.0,0.0
3310,59.0,28.0,30.0,11.0,0.0
3311,55.0,2.0,60.0,12.0,0.0
3312,62.0,0.0,120.0,3.0,0.0
3313,43.0,25.0,60.0,13.0,0.0
3314,67.0,0.0,15.0,10.0,0.0
3315,62.0,0.0,30.0,10.0,0.0
3316,67.0,2.0,15.0,10.0,0.0
3317,59.0,0.0,15.0,11.0,0.0
3318,55.0,1.0,15.0,11.0,0.0
3319,55.0,1.0,60.0,12.0,0.0
3320,43.0,14.0,60.0,13.0,0.0
3321,62.0,0.0,15.0,10.0,0.0
3322,67.0,0.0,30.0,10.0,0.0
3323,79.0,1.0,60.0,1.0,0.0
3324,79.0,1.0,15.0,5.0,0.0
3325,67.0,0.0,60.0,5.0,0.0
3326,79.0,2.0,60.0,2.0,0.0
3327,67.0,0.0,60.0,2.0,0.0
3328,62.0,0.0,15.0,10.0,0.0
3329,67.0,0.0,15.0,4.0,0.0
3330,55.0,0.0,15.0,4.0,0.0
3331,55.0,1.0,15.0,11.0,0.0
3332,59.0,0.0,15.0,11.0,0.0
3333,67.0,1.0,60.0,12.0,0.0
3334,55.0,1.0,15.0,6.0,0.0
3335,59.0,0.0,15.0,3.0,0.0
3336,62.0,1.0,60.0,3.0,0.0
3337,55.0,14.0,60.0,13.0,0.0
3338,54.0,15.0,15.0,6.0,0.0
3339,79.0,2.0,15.0,8.0,0.0
3340,67.0,0.0,15.0,8.0,0.0
3341,62.0,0.0,15.0,10.0,0.0
3342,67.0,2.0,15.0,10.0,0.0
3343,55.0,0.0,15.0,11.0,0.0
3344,59.0,1.0,30.0,11.0,0.0
3345,55.0,9.0,15.0,6.0,0.0
3346,54.0,0.0,15.0,6.0,0.0
3347,79.0,0.0,30.0,8.0,0.0
3348,79.0,1.0,15.0,0.0,0.0
3349,91.0,0.0,15.0,0.0,0.0
3350,79.0,0.0,120.0,1.0,0.0
3351,67.0,0.0,15.0,4.0,0.0
3352,55.0,0.0,15.0,4.0,0.0
3353,67.0,0.0,30.0,10.0,0.0
3354,79.0,0.0,120.0,2.0,0.0
3355,55.0,1.0,60.0,12.0,0.0
3356,55.0,9.0,15.0,6.0,0.0
3357,43.0,14.0,60.0,13.0,0.0
3358,54.0,15.0,15.0,6.0,0.0
3359,67.0,2.0,15.0,8.0,0.0
3360,62.0,2.0,15.0,10.0,0.0
3361,55.0,2.0,15.0,11.0,0.0
3362,59.0,0.0,15.0,11.0,0.0
3363,55.0,9.0,15.0,6.0,0.0
3364,54.0,1.0,15.0,6.0,0.0
3365,79.0,1.0,15.0,8.0,0.0
3366,67.0,0.0,30.0,8.0,0.0
3367,79.0,0.0,15.0,5.0,0.0
3368,67.0,1.0,15.0,5.0,0.0
3369,62.0,0.0,15.0,10.0,0.0
3370,67.0,2.0,15.0,10.0,0.0
3371,55.0,2.0,30.0,11.0,0.0
3372,59.0,0.0,30.0,11.0,0.0
3373,55.0,0.0,15.0,3.0,0.0
3374,55.0,9.0,15.0,6.0,0.0
3375,43.0,14.0,60.0,13.0,0.0
3376,54.0,15.0,15.0,6.0,0.0
3377,79.0,2.0,15.0,8.0,0.0
3378,67.0,2.0,15.0,10.0,0.0
3379,62.0,2.0,30.0,10.0,0.0
3380,59.0,0.0,30.0,11.0,0.0
3381,55.0,9.0,15.0,6.0,0.0
3382,54.0,0.0,15.0,6.0,0.0
3383,79.0,0.0,15.0,8.0,0.0
3384,67.0,1.0,15.0,8.0,0.0
3385,91.0,0.0,15.0,0.0,0.0
3386,67.0,0.0,60.0,5.0,0.0
3387,79.0,1.0,60.0,5.0,0.0
3388,67.0,0.0,15.0,2.0,0.0
3389,67.0,0.0,15.0,4.0,0.0
3390,55.0,0.0,15.0,4.0,0.0
3391,67.0,0.0,15.0,10.0,0.0
3392,62.0,0.0,30.0,10.0,0.0
3393,59.0,2.0,30.0,11.0,0.0
3394,55.0,1.0,15.0,11.0,0.0
3395,55.0,1.0,15.0,12.0,0.0
3396,67.0,1.0,15.0,3.0,0.0
3397,55.0,0.0,15.0,3.0,0.0
3398,55.0,9.0,15.0,6.0,0.0
3399,54.0,15.0,15.0,6.0,0.0
3400,79.0,0.0,15.0,8.0,0.0
3401,67.0,2.0,15.0,8.0,0.0
3402,67.0,2.0,15.0,10.0,0.0
3403,55.0,0.0,15.0,11.0,0.0
3404,59.0,1.0,30.0,11.0,0.0
3405,55.0,9.0,15.0,6.0,0.0
3406,54.0,0.0,15.0,6.0,0.0
3407,67.0,0.0,60.0,8.0,0.0
3408,79.0,0.0,60.0,8.0,0.0
3409,79.0,0.0,60.0,5.0,0.0
3410,67.0,0.0,60.0,5.0,0.0
3411,55.0,2.0,15.0,4.0,0.0
3412,67.0,0.0,15.0,4.0,0.0
3413,62.0,0.0,15.0,10.0,0.0
3414,55.0,0.0,30.0,11.0,0.0
3415,55.0,1.0,15.0,3.0,0.0
3416,55.0,11.0,15.0,6.0,0.0
3417,43.0,14.0,15.0,13.0,0.0
3418,54.0,15.0,15.0,6.0,0.0
3419,62.0,2.0,15.0,10.0,0.0
3420,67.0,0.0,15.0,10.0,0.0
3421,55.0,1.0,30.0,11.0,0.0
3422,59.0,2.0,15.0,11.0,0.0
3423,55.0,9.0,15.0,6.0,0.0
3424,54.0,1.0,15.0,6.0,0.0
3425,81.0,1.0,20.0,8.0,0.0
3426,79.0,1.0,15.0,0.0,0.0
3427,91.0,0.0,15.0,0.0,0.0
3428,79.0,1.0,15.0,1.0,0.0
3429,67.0,2.0,15.0,10.0,0.0
3430,79.0,0.0,15.0,2.0,0.0
3431,67.0,0.0,15.0,2.0,0.0
3432,62.0,0.0,15.0,10.0,0.0
3433,67.0,0.0,15.0,4.0,0.0
3434,55.0,0.0,15.0,4.0,0.0
3435,59.0,0.0,15.0,11.0,0.0
3436,55.0,1.0,15.0,12.0,0.0
3437,55.0,0.0,15.0,3.0,0.0
3438,55.0,11.0,15.0,6.0,0.0
3439,43.0,13.0,15.0,13.0,0.0
3440,79.0,11.0,20.0,8.0,0.0
3441,54.0,4.0,15.0,6.0,0.0
3442,62.0,0.0,15.0,10.0,0.0
3443,67.0,2.0,15.0,10.0,0.0
3444,55.0,2.0,15.0,11.0,0.0
3445,59.0,1.0,30.0,11.0,0.0
3446,55.0,9.0,15.0,6.0,0.0
3447,78.0,1.0,20.0,8.0,0.0
3448,54.0,0.0,15.0,6.0,0.0
3449,67.0,1.0,15.0,5.0,0.0
3450,79.0,0.0,15.0,5.0,0.0
3451,67.0,0.0,60.0,4.0,0.0
3452,62.0,2.0,30.0,10.0,0.0
3453,67.0,0.0,30.0,10.0,0.0
3454,55.0,0.0,15.0,11.0,0.0
3455,59.0,2.0,30.0,11.0,0.0
3456,55.0,9.0,15.0,6.0,0.0
3457,55.0,1.0,15.0,3.0,0.0
3458,43.0,14.0,15.0,13.0,0.0
3459,54.0,15.0,15.0,6.0,0.0
3460,79.0,2.0,15.0,8.0,0.0
3461,59.0,1.0,30.0,11.0,0.0
3462,55.0,9.0,15.0,6.0,0.0
3463,54.0,0.0,15.0,6.0,0.0
3464,93.0,0.0,60.0,0.0,0.0
3465,81.0,0.0,60.0,0.0,0.0
3466,81.0,1.0,60.0,1.0,0.0
3467,79.0,1.0,15.0,5.0,0.0
3468,67.0,0.0,15.0,5.0,0.0
3469,62.0,0.0,15.0,10.0,0.0
3470,67.0,0.0,15.0,10.0,0.0
3471,55.0,2.0,15.0,4.0,0.0
3472,81.0,0.0,60.0,2.0,0.0
3473,69.0,0.0,60.0,2.0,0.0
3474,55.0,0.0,15.0,11.0,0.0
3475,59.0,0.0,30.0,11.0,0.0
3476,55.0,1.0,15.0,12.0,0.0
3477,67.0,0.0,15.0,3.0,0.0
3478,55.0,9.0,15.0,6.0,0.0
3479,54.0,15.0,15.0,6.0,0.0
3480,81.0,2.0,15.0,8.0,0.0
3481,62.0,0.0,15.0,10.0,0.0
3482,67.0,2.0,30.0,10.0,0.0
3483,55.0,2.0,15.0,11.0,0.0
3484,55.0,9.0,15.0,6.0,0.0
3485,54.0,0.0,15.0,6.0,0.0
3486,95.0,1.0,60.0,0.0,0.0
3487,83.0,0.0,60.0,0.0,0.0
3488,83.0,2.0,30.0,8.0,0.0
3489,79.0,0.0,15.0,5.0,0.0
3490,55.0,0.0,15.0,4.0,0.0
3491,67.0,0.0,15.0,4.0,0.0
3492,71.0,0.0,60.0,2.0,0.0
3493,62.0,0.0,30.0,10.0,0.0
3494,55.0,1.0,15.0,11.0,0.0
3495,59.0,0.0,15.0,11.0,0.0
3496,55.0,0.0,120.0,6.0,0.0
3497,55.0,1.0,15.0,3.0,0.0
3498,43.0,23.0,15.0,13.0,0.0
3499,67.0,2.0,15.0,10.0,0.0
3500,59.0,0.0,30.0,11.0,0.0
3501,55.0,1.0,30.0,11.0,0.0
3502,83.0,0.0,15.0,8.0,0.0
3503,95.0,0.0,120.0,0.0,0.0
3504,83.0,1.0,120.0,0.0,0.0
3505,83.0,1.0,15.0,1.0,0.0
3506,55.0,0.0,15.0,4.0,0.0
3507,67.0,0.0,15.0,10.0,0.0
3508,83.0,0.0,15.0,2.0,0.0
3509,67.0,0.0,15.0,4.0,0.0
3510,71.0,0.0,120.0,2.0,0.0
3511,62.0,2.0,15.0,10.0,0.0
3512,55.0,0.0,30.0,11.0,0.0
3513,59.0,26.0,30.0,11.0,0.0
3514,55.0,1.0,15.0,12.0,0.0
3515,55.0,1.0,60.0,3.0,0.0
3516,71.0,1.0,15.0,3.0,0.0
3517,83.0,2.0,15.0,8.0,0.0
3518,62.0,2.0,15.0,10.0,0.0
3519,67.0,0.0,15.0,10.0,0.0
3520,67.0,1.0,15.0,5.0,0.0
3521,62.0,2.0,15.0,10.0,0.0
3522,67.0,0.0,15.0,10.0,0.0
3523,67.0,0.0,15.0,4.0,0.0
3524,55.0,0.0,15.0,4.0,0.0
3525,55.0,1.0,15.0,11.0,0.0
3526,59.0,0.0,15.0,11.0,0.0
3527,55.0,1.0,15.0,12.0,0.0
3528,43.0,23.0,15.0,13.0,0.0
3529,79.0,2.0,15.0,8.0,0.0
3530,62.0,2.0,15.0,10.0,0.0
3531,55.0,0.0,30.0,11.0,0.0
3532,59.0,26.0,15.0,11.0,0.0
3533,79.0,0.0,120.0,0.0,0.0
3534,91.0,1.0,120.0,0.0,0.0
3535,79.0,1.0,120.0,1.0,0.0
3536,55.0,0.0,15.0,4.0,0.0
3537,67.0,0.0,15.0,4.0,0.0
3538,62.0,0.0,15.0,10.0,0.0
3539,67.0,2.0,15.0,10.0,0.0
3540,79.0,0.0,120.0,2.0,0.0
3541,67.0,0.0,120.0,2.0,0.0
3542,59.0,0.0,30.0,11.0,0.0
3543,55.0,1.0,15.0,12.0,0.0
3544,55.0,0.0,15.0,3.0,0.0
3545,67.0,0.0,120.0,3.0,0.0
3546,43.0,23.0,15.0,13.0,0.0
3547,79.0,2.0,15.0,8.0,0.0
3548,67.0,2.0,15.0,10.0,0.0
3549,62.0,0.0,30.0,10.0,0.0
3550,55.0,26.0,15.0,11.0,0.0
3551,59.0,1.0,30.0,11.0,0.0
3552,76.0,2.0,30.0,8.0,0.0
3553,79.0,0.0,15.0,5.0,0.0
3554,67.0,1.0,15.0,5.0,0.0
3555,55.0,0.0,15.0,4.0,0.0
3556,67.0,0.0,15.0,4.0,0.0
3557,67.0,2.0,15.0,10.0,0.0
3558,64.0,2.0,30.0,10.0,0.0
3559,60.0,26.0,30.0,11.0,0.0
3560,55.0,0.0,30.0,11.0,0.0
3561,55.0,0.0,15.0,6.0,0.0
3562,48.0,1.0,60.0,3.0,0.0
3563,48.0,23.0,60.0,13.0,0.0
3564,64.0,2.0,30.0,10.0,0.0
3565,60.0,0.0,30.0,11.0,0.0
3566,55.0,1.0,30.0,11.0,0.0
3567,88.0,0.0,120.0,0.0,0.0
3568,76.0,0.0,15.0,8.0,0.0
3569,76.0,0.0,120.0,0.0,0.0
3570,88.0,1.0,120.0,1.0,0.0
3571,76.0,0.0,120.0,1.0,0.0
3572,64.0,0.0,120.0,2.0,0.0
3573,76.0,0.0,120.0,2.0,0.0
3574,55.0,0.0,15.0,4.0,0.0
3575,67.0,0.0,15.0,10.0,0.0
3576,60.0,0.0,30.0,11.0,0.0
3577,60.0,1.0,15.0,12.0,0.0
3578,48.0,0.0,60.0,3.0,0.0
3579,64.0,0.0,120.0,3.0,0.0
3580,48.0,23.0,60.0,13.0,0.0
3581,76.0,1.0,30.0,8.0,0.0
3582,67.0,0.0,30.0,10.0,0.0
3583,64.0,2.0,15.0,10.0,0.0
3584,60.0,1.0,30.0,11.0,0.0
3585,55.0,26.0,15.0,11.0,0.0
3586,67.0,0.0,120.0,5.0,0.0
3587,67.0,0.0,15.0,4.0,0.0
3588,59.0,0.0,30.0,11.0,0.0
3589,59.0,1.0,60.0,12.0,0.0
3590,55.0,1.0,15.0,6.0,0.0
3591,47.0,23.0,60.0,13.0,0.0
3592,75.0,2.0,15.0,8.0,0.0
3593,67.0,0.0,15.0,10.0,0.0
3594,63.0,2.0,15.0,10.0,0.0
3595,55.0,26.0,15.0,11.0,0.0
3596,59.0,0.0,30.0,11.0,0.0
3597,75.0,0.0,60.0,0.0,0.0
3598,75.0,1.0,15.0,8.0,0.0
3599,87.0,0.0,60.0,0.0,0.0
3600,75.0,1.0,60.0,1.0,0.0
3601,87.0,0.0,60.0,1.0,0.0
3602,63.0,0.0,60.0,2.0,0.0
3603,75.0,0.0,60.0,2.0,0.0
3604,55.0,0.0,15.0,4.0,0.0
3605,67.0,0.0,15.0,4.0,0.0
3606,67.0,2.0,30.0,10.0,0.0
3607,59.0,1.0,60.0,12.0,0.0
3608,47.0,1.0,15.0,3.0,0.0
3609,63.0,0.0,60.0,3.0,0.0
3610,47.0,14.0,60.0,13.0,0.0
3611,75.0,1.0,30.0,8.0,0.0
3612,63.0,0.0,15.0,10.0,0.0
3613,67.0,2.0,30.0,10.0,0.0
3614,55.0,26.0,15.0,11.0,0.0
3615,59.0,0.0,15.0,11.0,0.0
3616,76.0,1.0,60.0,0.0,0.0
3617,88.0,0.0,60.0,0.0,0.0
3618,76.0,1.0,300.0,8.0,0.0
3619,79.0,0.0,15.0,5.0,0.0
3620,67.0,0.0,300.0,5.0,0.0
3621,67.0,0.0,60.0,4.0,0.0
3622,55.0,0.0,60.0,4.0,0.0
3623,64.0,0.0,300.0,10.0,0.0
3624,55.0,2.0,30.0,11.0,0.0
3625,60.0,1.0,60.0,12.0,0.0
3626,55.0,13.0,15.0,6.0,0.0
3627,48.0,0.0,60.0,3.0,0.0
3628,48.0,14.0,60.0,13.0,0.0
3629,54.0,15.0,15.0,6.0,0.0
3630,55.0,1.0,30.0,11.0,0.0
3631,55.0,9.0,15.0,6.0,0.0
3632,54.0,1.0,15.0,6.0,0.0
3633,76.0,1.0,15.0,1.0,0.0
3634,88.0,0.0,15.0,1.0,0.0
3635,76.0,0.0,15.0,2.0,0.0
3636,64.0,2.0,15.0,2.0,0.0
3637,67.0,0.0,120.0,4.0,0.0
3638,67.0,2.0,30.0,11.0,0.0
3639,50.0,1.0,20.0,12.0,0.0
3640,50.0,1.0,20.0,3.0,0.0
3641,64.0,0.0,15.0,3.0,0.0
3642,55.0,4.0,15.0,6.0,0.0
3643,38.0,7.0,20.0,13.0,0.0
3644,54.0,9.0,15.0,6.0,0.0
3645,48.0,1.0,20.0,12.0,0.0
3646,48.0,1.0,20.0,3.0,0.0
3647,36.0,4.0,20.0,13.0,0.0
3648,67.0,1.0,30.0,11.0,0.0
3649,55.0,13.0,15.0,6.0,0.0
3650,47.0,1.0,20.0,12.0,0.0
3651,47.0,0.0,20.0,3.0,0.0
3652,35.0,14.0,20.0,13.0,0.0
3653,54.0,1.0,15.0,6.0,0.0
3654,52.0,2.0,30.0,11.0,0.0
3655,48.0,1.0,60.0,12.0,0.0
3656,48.0,1.0,60.0,3.0,0.0
3657,55.0,13.0,15.0,6.0,0.0
3658,36.0,8.0,60.0,13.0,0.0
3659,54.0,14.0,15.0,6.0,0.0
3660,52.0,2.0,30.0,11.0,0.0
3661,55.0,0.0,15.0,6.0,0.0
3662,54.0,0.0,15.0,6.0,0.0
3663,76.0,0.0,15.0,0.0,0.0
3664,88.0,1.0,15.0,0.0,0.0
3665,55.0,2.0,15.0,4.0,0.0
3666,64.0,2.0,30.0,11.0,0.0
3667,50.0,1.0,60.0,12.0,0.0
3668,50.0,0.0,60.0,3.0,0.0
3669,64.0,15.0,15.0,3.0,0.0
3670,55.0,13.0,15.0,6.0,0.0
3671,38.0,10.0,60.0,13.0,0.0
3672,54.0,14.0,15.0,6.0,0.0
3673,64.0,2.0,30.0,11.0,0.0
3674,55.0,1.0,15.0,6.0,0.0
3675,54.0,15.0,15.0,6.0,0.0
3676,67.0,2.0,15.0,4.0,0.0
3677,55.0,0.0,15.0,4.0,0.0
3678,52.0,1.0,300.0,12.0,0.0
3679,52.0,1.0,300.0,3.0,0.0
3680,55.0,13.0,15.0,6.0,0.0
3681,40.0,14.0,300.0,13.0,0.0
3682,54.0,15.0,15.0,6.0,0.0
3683,52.0,2.0,15.0,11.0,0.0
3684,55.0,9.0,15.0,6.0,0.0
3685,55.0,0.0,15.0,6.0,0.0
3686,88.0,1.0,120.0,0.0,0.0
3687,76.0,0.0,120.0,0.0,0.0
3688,78.0,2.0,20.0,8.0,0.0
3689,76.0,0.0,15.0,1.0,0.0
3690,88.0,1.0,15.0,1.0,0.0
3691,64.0,0.0,15.0,2.0,0.0
3692,66.0,12.0,20.0,10.0,0.0
3693,76.0,2.0,15.0,2.0,0.0
3694,64.0,6.0,30.0,11.0,0.0
3695,64.0,28.0,120.0,3.0,0.0
3696,76.0,2.0,20.0,8.0,0.0
3697,64.0,18.0,20.0,10.0,0.0
3698,64.0,30.0,30.0,11.0,0.0
3699,75.0,2.0,20.0,8.0,0.0
3700,63.0,2.0,20.0,10.0,0.0
3701,76.0,2.0,60.0,8.0,0.0
3702,64.0,13.0,60.0,10.0,0.0
3703,52.0,11.0,15.0,11.0,0.0
3704,78.0,1.0,60.0,0.0,0.0
3705,90.0,0.0,60.0,0.0,0.0
3706,78.0,2.0,60.0,8.0,0.0
3707,78.0,1.0,60.0,1.0,0.0
3708,66.0,13.0,60.0,10.0,0.0
3709,66.0,2.0,60.0,2.0,0.0
3710,78.0,0.0,60.0,2.0,0.0
3711,66.0,15.0,60.0,3.0,0.0
3712,64.0,11.0,15.0,11.0,0.0
3713,79.0,0.0,300.0,8.0,0.0
3714,79.0,0.0,60.0,0.0,0.0
3715,79.0,0.0,300.0,5.0,0.0
3716,67.0,1.0,300.0,5.0,0.0
3717,67.0,2.0,300.0,10.0,0.0
3718,79.0,2.0,60.0,2.0,0.0
3719,55.0,13.0,15.0,6.0,0.0
3720,54.0,15.0,15.0,6.0,0.0
3721,52.0,2.0,15.0,11.0,0.0
3722,55.0,9.0,15.0,6.0,0.0
3723,54.0,0.0,15.0,6.0,0.0
3724,91.0,1.0,15.0,0.0,0.0
3725,79.0,1.0,15.0,1.0,0.0
3726,67.0,0.0,15.0,2.0,0.0
3727,55.0,0.0,120.0,4.0,0.0
3728,79.0,0.0,120.0,2.0,0.0
3729,54.0,1.0,20.0,12.0,0.0
3730,67.0,0.0,15.0,3.0,0.0
3731,55.0,4.0,15.0,6.0,0.0
3732,54.0,1.0,20.0,3.0,0.0
3733,42.0,7.0,20.0,13.0,0.0
3734,54.0,9.0,15.0,6.0,0.0
3735,52.0,1.0,20.0,12.0,0.0
3736,52.0,1.0,20.0,3.0,0.0
3737,40.0,4.0,20.0,13.0,0.0
3738,64.0,2.0,15.0,11.0,0.0
3739,55.0,13.0,15.0,6.0,0.0
3740,51.0,1.0,20.0,12.0,0.0
3741,51.0,0.0,20.0,3.0,0.0
3742,39.0,14.0,20.0,13.0,0.0
3743,54.0,1.0,15.0,6.0,0.0
3744,52.0,2.0,30.0,11.0,0.0
3745,52.0,1.0,60.0,12.0,0.0
3746,55.0,13.0,15.0,6.0,0.0
3747,52.0,1.0,60.0,3.0,0.0
3748,40.0,8.0,60.0,13.0,0.0
3749,54.0,14.0,15.0,6.0,0.0
3750,52.0,2.0,30.0,11.0,0.0
3751,55.0,0.0,15.0,6.0,0.0
3752,54.0,0.0,15.0,6.0,0.0
3753,79.0,1.0,15.0,0.0,0.0
3754,91.0,0.0,15.0,0.0,0.0
3755,79.0,1.0,15.0,1.0,0.0
3756,67.0,0.0,15.0,4.0,0.0
3757,79.0,0.0,120.0,2.0,0.0
3758,55.0,0.0,60.0,4.0,0.0
3759,67.0,2.0,15.0,2.0,0.0
3760,64.0,2.0,30.0,11.0,0.0
3761,54.0,1.0,60.0,12.0,0.0
3762,54.0,0.0,60.0,3.0,0.0
3763,55.0,13.0,15.0,6.0,0.0
3764,42.0,10.0,60.0,13.0,0.0
3765,54.0,14.0,15.0,6.0,0.0
3766,64.0,2.0,30.0,11.0,0.0
3767,55.0,1.0,15.0,6.0,0.0
3768,54.0,15.0,15.0,6.0,0.0
3769,67.0,2.0,15.0,4.0,0.0
3770,55.0,0.0,120.0,4.0,0.0
3771,55.0,1.0,120.0,12.0,0.0
3772,55.0,13.0,15.0,6.0,0.0
3773,55.0,1.0,120.0,3.0,0.0
3774,43.0,27.0,120.0,13.0,0.0
3775,54.0,15.0,15.0,6.0,0.0
3776,52.0,2.0,15.0,11.0,0.0
3777,55.0,9.0,15.0,6.0,0.0
3778,55.0,14.0,15.0,6.0,0.0
3779,91.0,0.0,15.0,0.0,0.0
3780,81.0,2.0,20.0,8.0,0.0
3781,79.0,1.0,120.0,0.0,0.0
3782,79.0,1.0,120.0,1.0,0.0
3783,67.0,0.0,120.0,2.0,0.0
3784,79.0,2.0,120.0,2.0,0.0
3785,69.0,12.0,20.0,10.0,0.0
3786,67.0,0.0,15.0,3.0,0.0
3787,79.0,2.0,20.0,8.0,0.0
3788,67.0,18.0,20.0,10.0,0.0
3789,64.0,6.0,15.0,11.0,0.0
3790,78.0,2.0,20.0,8.0,0.0
3791,66.0,2.0,20.0,10.0,0.0
3792,79.0,2.0,60.0,8.0,0.0
3793,67.0,13.0,60.0,10.0,0.0
3794,49.0,1.0,120.0,12.0,0.0
3795,49.0,0.0,120.0,3.0,0.0
3796,37.0,14.0,120.0,13.0,0.0
3797,52.0,11.0,15.0,11.0,0.0
3798,81.0,1.0,60.0,0.0,0.0
3799,81.0,2.0,60.0,8.0,0.0
3800,93.0,0.0,60.0,0.0,0.0
3801,81.0,1.0,60.0,1.0,0.0
3802,81.0,0.0,60.0,2.0,0.0
3803,69.0,2.0,60.0,2.0,0.0
3804,69.0,13.0,60.0,10.0,0.0
3805,69.0,1.0,60.0,3.0,0.0
3806,64.0,11.0,15.0,11.0,0.0
3807,90.0,1.0,60.0,0.0,0.0
3808,78.0,0.0,300.0,8.0,0.0
3809,78.0,0.0,60.0,0.0,0.0
3810,62.0,0.0,300.0,5.0,0.0
3811,74.0,1.0,300.0,5.0,0.0
3812,66.0,0.0,300.0,10.0,0.0
3813,50.0,1.0,60.0,12.0,0.0
3814,50.0,0.0,60.0,3.0,0.0
3815,50.0,13.0,15.0,6.0,0.0
3816,38.0,8.0,60.0,13.0,0.0
3817,49.0,14.0,15.0,6.0,0.0
3818,54.0,2.0,15.0,11.0,0.0
3819,50.0,1.0,15.0,6.0,0.0
3820,49.0,15.0,15.0,6.0,0.0
3821,78.0,0.0,120.0,0.0,0.0
3822,78.0,1.0,15.0,1.0,0.0
3823,62.0,0.0,120.0,4.0,0.0
3824,78.0,0.0,15.0,2.0,0.0
3825,66.0,2.0,15.0,2.0,0.0
3826,66.0,2.0,30.0,11.0,0.0
3827,52.0,1.0,20.0,12.0,0.0
3828,52.0,1.0,20.0,3.0,0.0
3829,66.0,0.0,15.0,3.0,0.0
3830,50.0,4.0,15.0,6.0,0.0
3831,40.0,7.0,20.0,13.0,0.0
3832,49.0,9.0,15.0,6.0,0.0
3833,50.0,1.0,20.0,12.0,0.0
3834,50.0,1.0,20.0,3.0,0.0
3835,38.0,4.0,20.0,13.0,0.0
3836,66.0,1.0,30.0,11.0,0.0
3837,50.0,13.0,15.0,6.0,0.0
3838,49.0,1.0,20.0,12.0,0.0
3839,49.0,0.0,20.0,3.0,0.0
3840,37.0,14.0,20.0,13.0,0.0
3841,49.0,1.0,15.0,6.0,0.0
3842,54.0,2.0,30.0,11.0,0.0
3843,50.0,1.0,60.0,12.0,0.0
3844,50.0,1.0,60.0,3.0,0.0
3845,50.0,13.0,15.0,6.0,0.0
3846,38.0,8.0,60.0,13.0,0.0
3847,49.0,14.0,15.0,6.0,0.0
3848,54.0,2.0,30.0,11.0,0.0
3849,50.0,0.0,15.0,6.0,0.0
3850,49.0,0.0,15.0,6.0,0.0
3851,90.0,1.0,15.0,0.0,0.0
3852,78.0,0.0,120.0,0.0,0.0
3853,78.0,1.0,15.0,1.0,0.0
3854,50.0,0.0,15.0,4.0,0.0
3855,78.0,2.0,15.0,2.0,0.0
3856,66.0,0.0,15.0,2.0,0.0
3857,52.0,1.0,60.0,12.0,0.0
3858,50.0,13.0,15.0,6.0,0.0
3859,52.0,1.0,60.0,3.0,0.0
3860,40.0,10.0,60.0,13.0,0.0
3861,49.0,14.0,15.0,6.0,0.0
3862,66.0,2.0,15.0,11.0,0.0
3863,50.0,0.0,15.0,6.0,0.0
3864,49.0,15.0,15.0,6.0,0.0
3865,62.0,2.0,15.0,4.0,0.0
3866,50.0,0.0,120.0,4.0,0.0
3867,54.0,1.0,300.0,12.0,0.0
3868,50.0,13.0,15.0,6.0,0.0
3869,54.0,1.0,300.0,3.0,0.0
3870,42.0,14.0,300.0,13.0,0.0
3871,49.0,15.0,15.0,6.0,0.0
3872,54.0,2.0,15.0,11.0,0.0
3873,50.0,9.0,15.0,6.0,0.0
3874,79.0,2.0,20.0,8.0,0.0
3875,78.0,1.0,120.0,0.0,0.0
3876,90.0,1.0,15.0,0.0,0.0
3877,78.0,1.0,120.0,1.0,0.0
3878,66.0,0.0,15.0,2.0,0.0
3879,78.0,2.0,15.0,2.0,0.0
3880,67.0,12.0,20.0,10.0,0.0
3881,66.0,14.0,15.0,3.0,0.0
3882,78.0,2.0,20.0,8.0,0.0
3883,66.0,18.0,20.0,10.0,0.0
3884,66.0,6.0,15.0,11.0,0.0
3885,76.0,2.0,20.0,8.0,0.0
3886,64.0,0.0,20.0,10.0,0.0
3887,78.0,2.0,60.0,8.0,0.0
3888,66.0,13.0,60.0,10.0,0.0
3889,54.0,11.0,15.0,11.0,0.0
3890,91.0,1.0,60.0,0.0,0.0
3891,79.0,2.0,60.0,8.0,0.0
3892,79.0,0.0,60.0,0.0,0.0
3893,79.0,1.0,60.0,1.0,0.0
3894,67.0,13.0,60.0,10.0,0.0
3895,67.0,0.0,60.0,2.0,0.0
3896,79.0,2.0,60.0,2.0,0.0
3897,67.0,15.0,60.0,3.0,0.0
3898,66.0,11.0,15.0,11.0,0.0
3899,81.0,0.0,300.0,8.0,0.0
3900,62.0,1.0,300.0,5.0,0.0
3901,74.0,0.0,300.0,5.0,0.0
3902,69.0,2.0,60.0,2.0,0.0
3903,81.0,0.0,60.0,2.0,0.0
3904,69.0,2.0,300.0,10.0,0.0
3905,54.0,2.0,30.0,11.0,0.0
3906,69.0,0.0,60.0,3.0,0.0
3907,50.0,13.0,15.0,6.0,0.0
3908,49.0,15.0,15.0,6.0,0.0
3909,54.0,1.0,30.0,11.0,0.0
3910,50.0,9.0,15.0,6.0,0.0
3911,49.0,0.0,15.0,6.0,0.0
3912,81.0,0.0,15.0,0.0,0.0
3913,93.0,1.0,15.0,0.0,0.0
3914,81.0,1.0,15.0,1.0,0.0
3915,69.0,2.0,120.0,4.0,0.0
3916,69.0,0.0,120.0,2.0,0.0
3917,81.0,0.0,120.0,2.0,0.0
3918,55.0,1.0,20.0,12.0,0.0
3919,55.0,1.0,20.0,3.0,0.0
3920,50.0,4.0,15.0,6.0,0.0
3921,43.0,7.0,20.0,13.0,0.0
3922,49.0,9.0,15.0,6.0,0.0
3923,54.0,1.0,20.0,12.0,0.0
3924,54.0,1.0,20.0,3.0,0.0
3925,42.0,4.0,20.0,13.0,0.0
3926,66.0,2.0,15.0,11.0,0.0
3927,50.0,13.0,15.0,6.0,0.0
3928,52.0,1.0,20.0,12.0,0.0
3929,52.0,0.0,20.0,3.0,0.0
3930,40.0,14.0,20.0,13.0,0.0
3931,49.0,1.0,15.0,6.0,0.0
3932,54.0,2.0,30.0,11.0,0.0
3933,54.0,1.0,60.0,12.0,0.0
3934,50.0,13.0,15.0,6.0,0.0
3935,54.0,0.0,60.0,3.0,0.0
3936,42.0,8.0,60.0,13.0,0.0
3937,49.0,14.0,15.0,6.0,0.0
3938,54.0,2.0,30.0,11.0,0.0
3939,50.0,1.0,15.0,6.0,0.0
3940,49.0,0.0,15.0,6.0,0.0
3941,81.0,1.0,15.0,1.0,0.0
3942,81.0,0.0,120.0,2.0,0.0
3943,69.0,2.0,60.0,4.0,0.0
3944,55.0,1.0,60.0,12.0,0.0
3945,69.0,15.0,15.0,3.0,0.0
3946,55.0,0.0,60.0,3.0,0.0
3947,50.0,13.0,15.0,6.0,0.0
3948,43.0,10.0,60.0,13.0,0.0
3949,49.0,14.0,15.0,6.0,0.0
3950,66.0,2.0,15.0,11.0,0.0
3951,50.0,1.0,15.0,6.0,0.0
3952,49.0,15.0,15.0,6.0,0.0
3953,69.0,0.0,120.0,4.0,0.0
3954,54.0,2.0,30.0,11.0,0.0
3955,57.0,1.0,120.0,12.0,0.0
3956,50.0,13.0,15.0,6.0,0.0
3957,57.0,1.0,120.0,3.0,0.0
3958,45.0,27.0,120.0,13.0,0.0
3959,49.0,15.0,15.0,6.0,0.0
3960,54.0,2.0,30.0,11.0,0.0
3961,50.0,9.0,15.0,6.0,0.0
3962,81.0,1.0,15.0,0.0,0.0
3963,83.0,2.0,20.0,8.0,0.0
3964,93.0,0.0,15.0,0.0,0.0
3965,81.0,1.0,120.0,1.0,0.0
3966,69.0,0.0,15.0,2.0,0.0
3967,81.0,0.0,120.0,2.0,0.0
3968,71.0,12.0,20.0,10.0,0.0
3969,66.0,6.0,30.0,11.0,0.0
3970,69.0,28.0,120.0,3.0,0.0
3971,81.0,2.0,20.0,8.0,0.0
3972,69.0,18.0,20.0,10.0,0.0
3973,66.0,1.0,30.0,11.0,0.0
3974,80.0,2.0,20.0,8.0,0.0
3975,68.0,2.0,20.0,10.0,0.0
3976,81.0,2.0,60.0,8.0,0.0
3977,69.0,13.0,60.0,10.0,0.0
3978,51.0,1.0,120.0,12.0,0.0
3979,51.0,0.0,120.0,3.0,0.0
3980,39.0,27.0,120.0,13.0,0.0
3981,54.0,11.0,15.0,11.0,0.0
3982,83.0,2.0,60.0,8.0,0.0
3983,83.0,0.0,60.0,0.0,0.0
3984,95.0,1.0,60.0,0.0,0.0
3985,83.0,1.0,60.0,1.0,0.0
3986,71.0,13.0,60.0,10.0,0.0
3987,71.0,0.0,60.0,2.0,0.0
3988,83.0,2.0,60.0,2.0,0.0
3989,71.0,1.0,60.0,3.0,0.0
3990,66.0,11.0,15.0,11.0,0.0
3991,91.0,0.0,60.0,0.0,0.0
3992,79.0,2.0,60.0,8.0,0.0
3993,79.0,1.0,60.0,0.0,0.0
3994,79.0,1.0,60.0,1.0,0.0
3995,67.0,3.0,60.0,10.0,0.0
3996,52.0,1.0,60.0,12.0,0.0
3997,52.0,1.0,60.0,3.0,0.0
3998,40.0,8.0,60.0,13.0,0.0
3999,64.0,11.0,15.0,11.0,0.0
4000,81.0,2.0,20.0,8.0,0.0
4001,79.0,0.0,120.0,0.0,0.0
4002,91.0,1.0,120.0,0.0,0.0
4003,79.0,1.0,120.0,1.0,0.0
4004,79.0,2.0,15.0,2.0,0.0
4005,67.0,0.0,15.0,2.0,0.0
4006,69.0,12.0,20.0,10.0,0.0
4007,52.0,1.0,60.0,12.0,0.0
4008,67.0,14.0,15.0,3.0,0.0
4009,52.0,1.0,60.0,3.0,0.0
4010,40.0,8.0,60.0,13.0,0.0
4011,79.0,2.0,20.0,8.0,0.0
4012,67.0,8.0,20.0,10.0,0.0
4013,52.0,6.0,15.0,11.0,0.0
4014,78.0,2.0,20.0,8.0,0.0
4015,66.0,2.0,20.0,10.0,0.0
4016,79.0,2.0,60.0,8.0,0.0
4017,79.0,0.0,120.0,5.0,0.0
4018,67.0,0.0,120.0,5.0,0.0
4019,67.0,0.0,120.0,4.0,0.0
4020,67.0,13.0,60.0,10.0,0.0
4021,55.0,0.0,120.0,4.0,0.0
4022,54.0,1.0,180.0,12.0,0.0
4023,54.0,1.0,180.0,3.0,0.0
4024,55.0,0.0,120.0,6.0,0.0
4025,42.0,13.0,180.0,13.0,0.0
4026,64.0,11.0,15.0,11.0,0.0
4027,93.0,1.0,60.0,0.0,0.0
4028,81.0,0.0,60.0,0.0,0.0
4029,81.0,2.0,60.0,8.0,0.0
4030,81.0,1.0,60.0,1.0,0.0
4031,81.0,0.0,60.0,2.0,0.0
4032,69.0,2.0,60.0,2.0,0.0
4033,69.0,13.0,60.0,10.0,0.0
4034,66.0,11.0,30.0,11.0,0.0
4035,69.0,28.0,60.0,3.0,0.0
4036,66.0,2.0,30.0,11.0,0.0
4037,83.0,2.0,60.0,8.0,0.0
4038,71.0,17.0,60.0,10.0,0.0
4039,67.0,11.0,30.0,11.0,0.0
4040,67.0,1.0,30.0,11.0,0.0
4041,95.0,0.0,120.0,0.0,0.0
4042,83.0,1.0,120.0,0.0,0.0
4043,84.0,2.0,20.0,8.0,0.0
4044,83.0,1.0,120.0,1.0,0.0
4045,71.0,2.0,120.0,2.0,0.0
4046,83.0,0.0,120.0,2.0,0.0
4047,72.0,12.0,20.0,10.0,0.0
4048,55.0,6.0,30.0,11.0,0.0
4049,55.0,1.0,60.0,12.0,0.0
4050,55.0,1.0,60.0,3.0,0.0
4051,71.0,28.0,120.0,3.0,0.0
4052,43.0,8.0,60.0,13.0,0.0
4053,83.0,2.0,20.0,8.0,0.0
4054,71.0,8.0,20.0,10.0,0.0
4055,55.0,30.0,30.0,11.0,0.0
4056,81.0,2.0,20.0,8.0,0.0
4057,69.0,2.0,20.0,10.0,0.0
4058,83.0,2.0,60.0,8.0,0.0
4059,79.0,1.0,120.0,5.0,0.0
4060,67.0,0.0,120.0,5.0,0.0
4061,71.0,13.0,60.0,10.0,0.0
4062,55.0,2.0,120.0,4.0,0.0
4063,67.0,0.0,120.0,4.0,0.0
4064,67.0,11.0,30.0,11.0,0.0
4065,57.0,1.0,180.0,12.0,0.0
4066,55.0,28.0,120.0,6.0,0.0
4067,57.0,1.0,180.0,3.0,0.0
4068,45.0,13.0,180.0,13.0,0.0
4069,67.0,2.0,30.0,11.0,0.0
4070,84.0,1.0,60.0,0.0,0.0
4071,96.0,0.0,60.0,0.0,0.0
4072,84.0,2.0,60.0,8.0,0.0
4073,84.0,0.0,60.0,1.0,0.0
4074,72.0,0.0,60.0,2.0,0.0
4075,72.0,13.0,60.0,10.0,0.0
4076,84.0,0.0,60.0,2.0,0.0
4077,69.0,11.0,30.0,11.0,0.0
4078,72.0,0.0,60.0,3.0,0.0
4079,69.0,2.0,30.0,11.0,0.0
4080,81.0,2.0,60.0,8.0,0.0
4081,69.0,17.0,60.0,10.0,0.0
4082,66.0,11.0,30.0,11.0,0.0
4083,66.0,1.0,30.0,11.0,0.0
4084,81.0,1.0,120.0,0.0,0.0
4085,83.0,2.0,20.0,8.0,0.0
4086,93.0,0.0,120.0,0.0,0.0
4087,81.0,1.0,120.0,1.0,0.0
4088,69.0,2.0,120.0,2.0,0.0
4089,81.0,0.0,120.0,2.0,0.0
4090,71.0,12.0,20.0,10.0,0.0
4091,54.0,6.0,30.0,11.0,0.0
4092,54.0,1.0,60.0,12.0,0.0
4093,57.0,28.0,120.0,3.0,0.0
4094,54.0,1.0,60.0,3.0,0.0
4095,42.0,8.0,60.0,13.0,0.0
4096,81.0,2.0,20.0,8.0,0.0
4097,69.0,8.0,20.0,10.0,0.0
4098,54.0,30.0,30.0,11.0,0.0
4099,79.0,2.0,20.0,8.0,0.0
4100,67.0,2.0,20.0,10.0,0.0
4101,81.0,2.0,60.0,8.0,0.0
4102,62.0,0.0,120.0,5.0,0.0
4103,74.0,0.0,120.0,5.0,0.0
4104,69.0,13.0,60.0,10.0,0.0
4105,69.0,0.0,120.0,4.0,0.0
4106,66.0,11.0,30.0,11.0,0.0
4107,55.0,1.0,180.0,12.0,0.0
4108,55.0,1.0,180.0,3.0,0.0
4109,50.0,28.0,120.0,6.0,0.0
4110,43.0,13.0,180.0,13.0,0.0
4111,66.0,2.0,30.0,11.0,0.0
4112,95.0,0.0,60.0,0.0,0.0
4113,83.0,1.0,60.0,0.0,0.0
4114,83.0,2.0,60.0,8.0,0.0
4115,83.0,1.0,60.0,1.0,0.0
4116,71.0,0.0,60.0,2.0,0.0
4117,83.0,2.0,60.0,2.0,0.0
4118,71.0,13.0,60.0,10.0,0.0
4119,59.0,0.0,60.0,3.0,0.0
4120,67.0,11.0,15.0,11.0,0.0
4121,84.0,2.0,60.0,8.0,0.0
4122,72.0,17.0,60.0,10.0,0.0
4123,69.0,11.0,30.0,11.0,0.0
4124,69.0,1.0,30.0,11.0,0.0
4125,86.0,2.0,20.0,8.0,0.0
4126,72.0,0.0,120.0,1.0,0.0
4127,84.0,1.0,120.0,1.0,0.0
4128,74.0,12.0,20.0,10.0,0.0
4129,84.0,0.0,120.0,2.0,0.0
4130,72.0,2.0,120.0,2.0,0.0
4131,57.0,6.0,30.0,11.0,0.0
4132,57.0,1.0,60.0,12.0,0.0
4133,57.0,1.0,60.0,3.0,0.0
4134,60.0,28.0,120.0,3.0,0.0
4135,45.0,8.0,60.0,13.0,0.0
4136,84.0,2.0,20.0,8.0,0.0
4137,72.0,8.0,20.0,10.0,0.0
4138,57.0,30.0,30.0,11.0,0.0
4139,83.0,2.0,20.0,8.0,0.0
4140,71.0,2.0,20.0,10.0,0.0
4141,84.0,2.0,60.0,8.0,0.0
4142,74.0,0.0,120.0,5.0,0.0
4143,62.0,1.0,120.0,5.0,0.0
4144,72.0,14.0,60.0,10.0,0.0
4145,69.0,2.0,120.0,4.0,0.0
4146,69.0,11.0,30.0,11.0,0.0
4147,59.0,1.0,180.0,12.0,0.0
4148,59.0,0.0,180.0,3.0,0.0
4149,50.0,0.0,120.0,6.0,0.0
4150,47.0,13.0,180.0,13.0,0.0
4151,69.0,2.0,30.0,11.0,0.0
4152,86.0,2.0,60.0,8.0,0.0
4153,86.0,0.0,60.0,1.0,0.0
4154,74.0,0.0,60.0,1.0,0.0
4155,74.0,0.0,60.0,2.0,0.0
4156,86.0,0.0,60.0,2.0,0.0
4157,74.0,14.0,60.0,10.0,0.0
4158,62.0,28.0,60.0,3.0,0.0
4159,71.0,11.0,15.0,11.0,0.0
4160,88.0,2.0,60.0,8.0,0.0
4161,88.0,2.0,60.0,2.0,0.0
4162,76.0,14.0,60.0,10.0,0.0
4163,72.0,11.0,30.0,11.0,0.0
4164,72.0,1.0,30.0,11.0,0.0
4165,88.0,0.0,120.0,0.0,0.0
4166,90.0,2.0,20.0,8.0,0.0
4167,76.0,1.0,120.0,0.0,0.0
4168,76.0,0.0,15.0,1.0,0.0
4169,88.0,1.0,15.0,1.0,0.0
4170,76.0,0.0,15.0,2.0,0.0
4171,64.0,2.0,120.0,2.0,0.0
4172,78.0,12.0,20.0,10.0,0.0
4173,60.0,1.0,60.0,12.0,0.0
4174,60.0,1.0,60.0,3.0,0.0
4175,64.0,1.0,15.0,3.0,0.0
4176,48.0,8.0,60.0,13.0,0.0
4177,88.0,2.0,20.0,8.0,0.0
4178,76.0,8.0,20.0,10.0,0.0
4179,60.0,6.0,15.0,11.0,0.0
4180,87.0,2.0,20.0,8.0,0.0
4181,75.0,2.0,20.0,10.0,0.0
4182,88.0,2.0,60.0,8.0,0.0
4183,79.0,0.0,120.0,5.0,0.0
4184,67.0,0.0,120.0,5.0,0.0
4185,76.0,13.0,60.0,10.0,0.0
4186,55.0,28.0,120.0,6.0,0.0
4187,51.0,13.0,180.0,13.0,0.0
4188,72.0,11.0,15.0,11.0,0.0
4189,90.0,1.0,60.0,0.0,0.0
4190,90.0,2.0,60.0,8.0,0.0
4191,78.0,0.0,60.0,0.0,0.0
4192,90.0,1.0,60.0,1.0,0.0
4193,78.0,0.0,60.0,1.0,0.0
4194,67.0,0.0,15.0,4.0,0.0
4195,55.0,0.0,15.0,4.0,0.0
4196,78.0,13.0,60.0,10.0,0.0
4197,66.0,0.0,60.0,2.0,0.0
4198,78.0,0.0,60.0,2.0,0.0
4199,66.0,0.0,60.0,3.0,0.0
4200,75.0,11.0,15.0,11.0,0.0
4201,91.0,2.0,60.0,8.0,0.0
4202,78.0,1.0,60.0,1.0,0.0
4203,79.0,14.0,60.0,10.0,0.0
4204,76.0,11.0,30.0,11.0,0.0
4205,76.0,1.0,30.0,11.0,0.0
4206,93.0,2.0,20.0,8.0,0.0
4207,91.0,1.0,120.0,0.0,0.0
4208,79.0,0.0,120.0,0.0,0.0
4209,79.0,1.0,120.0,1.0,0.0
4210,81.0,12.0,20.0,10.0,0.0
4211,67.0,2.0,15.0,2.0,0.0
4212,79.0,0.0,15.0,2.0,0.0
4213,55.0,0.0,120.0,4.0,0.0
4214,63.0,1.0,15.0,12.0,0.0
4215,67.0,0.0,15.0,3.0,0.0
4216,63.0,1.0,15.0,3.0,0.0
4217,51.0,8.0,60.0,13.0,0.0
4218,91.0,2.0,20.0,8.0,0.0
4219,79.0,8.0,20.0,10.0,0.0
4220,52.0,6.0,15.0,11.0,0.0
4221,90.0,2.0,20.0,8.0,0.0
4222,78.0,2.0,20.0,10.0,0.0
4223,91.0,2.0,60.0,8.0,0.0
4224,79.0,0.0,120.0,5.0,0.0
4225,67.0,1.0,120.0,5.0,0.0
4226,79.0,13.0,60.0,10.0,0.0
4227,64.0,1.0,180.0,12.0,0.0
4228,55.0,28.0,120.0,6.0,0.0
4229,64.0,1.0,180.0,3.0,0.0
4230,52.0,13.0,180.0,13.0,0.0
4231,64.0,11.0,15.0,11.0,0.0
4232,78.0,1.0,60.0,0.0,0.0
4233,90.0,0.0,60.0,0.0,0.0
4234,90.0,2.0,60.0,8.0,0.0
4235,78.0,0.0,60.0,1.0,0.0
4236,66.0,0.0,60.0,2.0,0.0
4237,78.0,0.0,60.0,2.0,0.0
4238,55.0,2.0,60.0,4.0,0.0
4239,67.0,2.0,15.0,4.0,0.0
4240,78.0,13.0,60.0,10.0,0.0
4241,66.0,0.0,60.0,3.0,0.0
4242,63.0,11.0,15.0,11.0,0.0
4243,91.0,2.0,60.0,8.0,0.0
4244,79.0,1.0,60.0,1.0,0.0
4245,79.0,14.0,60.0,10.0,0.0
4246,67.0,0.0,60.0,2.0,0.0
4247,67.0,0.0,60.0,3.0,0.0
4248,64.0,11.0,15.0,11.0,0.0
4249,93.0,2.0,20.0,8.0,0.0
4250,91.0,1.0,120.0,0.0,0.0
4251,79.0,0.0,120.0,0.0,0.0
4252,79.0,1.0,120.0,1.0,0.0
4253,67.0,0.0,120.0,2.0,0.0
4254,79.0,2.0,15.0,2.0,0.0
4255,81.0,12.0,20.0,10.0,0.0
4256,52.0,6.0,30.0,11.0,0.0
4257,63.0,1.0,60.0,12.0,0.0
4258,67.0,28.0,120.0,3.0,0.0
4259,63.0,1.0,60.0,3.0,0.0
4260,51.0,8.0,60.0,13.0,0.0
4261,91.0,2.0,20.0,8.0,0.0
4262,79.0,8.0,20.0,10.0,0.0
4263,52.0,30.0,30.0,11.0,0.0
4264,90.0,2.0,20.0,8.0,0.0
4265,78.0,2.0,20.0,10.0,0.0
4266,91.0,2.0,60.0,8.0,0.0
4267,79.0,1.0,120.0,5.0,0.0
4268,67.0,0.0,120.0,5.0,0.0
4269,79.0,13.0,60.0,10.0,0.0
4270,64.0,11.0,30.0,11.0,0.0
4271,64.0,1.0,180.0,12.0,0.0
4272,64.0,0.0,180.0,3.0,0.0
4273,55.0,0.0,120.0,6.0,0.0
4274,52.0,13.0,180.0,13.0,0.0
4275,64.0,2.0,30.0,11.0,0.0
4276,90.0,0.0,60.0,0.0,0.0
4277,78.0,1.0,60.0,0.0,0.0
4278,90.0,2.0,60.0,8.0,0.0
4279,78.0,0.0,60.0,1.0,0.0
4280,78.0,2.0,60.0,2.0,0.0
4281,55.0,0.0,15.0,4.0,0.0
4282,67.0,2.0,15.0,4.0,0.0
4283,66.0,0.0,60.0,2.0,0.0
4284,78.0,13.0,60.0,10.0,0.0
4285,63.0,11.0,30.0,11.0,0.0
4286,66.0,28.0,60.0,3.0,0.0
4287,63.0,2.0,30.0,11.0,0.0
4288,91.0,2.0,60.0,8.0,0.0
4289,79.0,1.0,60.0,1.0,0.0
4290,79.0,0.0,60.0,2.0,0.0
4291,79.0,14.0,60.0,10.0,0.0
4292,64.0,11.0,30.0,11.0,0.0
4293,67.0,1.0,60.0,3.0,0.0
4294,64.0,1.0,30.0,11.0,0.0
4295,91.0,1.0,120.0,0.0,0.0
4296,79.0,0.0,120.0,0.0,0.0
4297,93.0,2.0,20.0,8.0,0.0
4298,79.0,1.0,120.0,1.0,0.0
4299,81.0,12.0,20.0,10.0,0.0
4300,79.0,0.0,120.0,2.0,0.0
4301,67.0,2.0,15.0,2.0,0.0
4302,52.0,6.0,30.0,11.0,0.0
4303,63.0,2.0,60.0,12.0,0.0
4304,63.0,9.0,60.0,3.0,0.0
4305,67.0,1.0,120.0,3.0,0.0
4306,51.0,27.0,60.0,13.0,0.0
4307,91.0,2.0,20.0,8.0,0.0
4308,79.0,9.0,20.0,10.0,0.0
4309,52.0,1.0,30.0,11.0,0.0
4310,90.0,2.0,20.0,8.0,0.0
4311,78.0,2.0,20.0,10.0,0.0
4312,91.0,2.0,60.0,8.0,0.0
4313,79.0,4.0,60.0,10.0,0.0
4314,64.0,11.0,30.0,11.0,0.0
4315,64.0,1.0,60.0,12.0,0.0
4316,64.0,9.0,60.0,3.0,0.0
4317,52.0,27.0,60.0,13.0,0.0
4318,64.0,1.0,30.0,11.0,0.0
4319,78.0,1.0,60.0,0.0,0.0
4320,90.0,0.0,60.0,0.0,0.0
4321,90.0,2.0,60.0,8.0,0.0
4322,78.0,0.0,60.0,1.0,0.0
4323,67.0,0.0,15.0,4.0,0.0
4324,55.0,2.0,15.0,4.0,0.0
4325,66.0,0.0,60.0,2.0,0.0
4326,78.0,4.0,60.0,10.0,0.0
4327,78.0,2.0,60.0,2.0,0.0
4328,62.0,11.0,30.0,11.0,0.0
4329,63.0,1.0,60.0,12.0,0.0
4330,63.0,9.0,60.0,3.0,0.0
4331,66.0,0.0,60.0,3.0,0.0
4332,51.0,23.0,60.0,13.0,0.0
4333,62.0,1.0,30.0,11.0,0.0
4334,79.0,1.0,60.0,0.0,0.0
4335,91.0,0.0,60.0,0.0,0.0
4336,79.0,0.0,15.0,5.0,0.0
4337,67.0,1.0,15.0,5.0,0.0
4338,79.0,0.0,60.0,2.0,0.0
4339,67.0,2.0,60.0,2.0,0.0
4340,79.0,2.0,30.0,10.0,0.0
4341,55.0,0.0,15.0,4.0,0.0
4342,67.0,0.0,120.0,4.0,0.0
4343,64.0,26.0,30.0,11.0,0.0
4344,64.0,1.0,120.0,12.0,0.0
4345,55.0,1.0,15.0,6.0,0.0
4346,67.0,24.0,60.0,3.0,0.0
4347,64.0,1.0,120.0,3.0,0.0
4348,52.0,23.0,120.0,13.0,0.0
4349,91.0,2.0,15.0,8.0,0.0
4350,79.0,0.0,30.0,10.0,0.0
4351,64.0,2.0,30.0,11.0,0.0
4352,79.0,1.0,15.0,1.0,0.0
4353,79.0,2.0,30.0,10.0,0.0
4354,52.0,26.0,30.0,11.0,0.0
4355,67.0,24.0,120.0,3.0,0.0
4356,91.0,2.0,15.0,8.0,0.0
4357,52.0,1.0,30.0,11.0,0.0
4358,91.0,1.0,15.0,8.0,0.0
4359,79.0,0.0,15.0,10.0,0.0
4360,66.0,1.0,120.0,12.0,0.0
4361,66.0,1.0,120.0,3.0,0.0
4362,54.0,23.0,120.0,13.0,0.0
4363,91.0,2.0,15.0,8.0,0.0
4364,79.0,2.0,15.0,10.0,0.0
4365,66.0,26.0,15.0,11.0,0.0
4366,91.0,1.0,15.0,0.0,0.0
4367,79.0,0.0,15.0,0.0,0.0
4368,79.0,2.0,30.0,10.0,0.0
4369,67.0,2.0,15.0,2.0,0.0
4370,79.0,0.0,15.0,2.0,0.0
4371,91.0,2.0,15.0,8.0,0.0
4372,54.0,26.0,15.0,11.0,0.0
4373,91.0,2.0,15.0,8.0,0.0
4374,79.0,2.0,15.0,10.0,0.0
4375,67.0,26.0,30.0,11.0,0.0
4376,67.0,1.0,120.0,12.0,0.0
4377,67.0,24.0,60.0,3.0,0.0
4378,55.0,23.0,120.0,13.0,0.0
4379,91.0,0.0,30.0,8.0,0.0
4380,67.0,2.0,30.0,11.0,0.0
4381,79.0,0.0,120.0,0.0,0.0
4382,79.0,1.0,15.0,1.0,0.0
4383,67.0,0.0,15.0,2.0,0.0
4384,79.0,2.0,15.0,10.0,0.0
4385,79.0,2.0,120.0,2.0,0.0
4386,55.0,26.0,30.0,11.0,0.0
4387,67.0,1.0,60.0,3.0,0.0
4388,91.0,2.0,15.0,8.0,0.0
4389,79.0,2.0,30.0,10.0,0.0
4390,55.0,1.0,30.0,11.0,0.0
4391,91.0,2.0,30.0,8.0,0.0
4392,79.0,2.0,30.0,10.0,0.0
4393,68.0,26.0,30.0,11.0,0.0
4394,68.0,1.0,120.0,12.0,0.0
4395,68.0,1.0,120.0,3.0,0.0
4396,56.0,23.0,120.0,13.0,0.0
4397,79.0,0.0,30.0,10.0,0.0
4398,68.0,2.0,30.0,11.0,0.0
4399,91.0,0.0,15.0,8.0,0.0
4400,91.0,1.0,15.0,0.0,0.0
4401,79.0,0.0,120.0,0.0,0.0
4402,79.0,1.0,120.0,1.0,0.0
4403,79.0,0.0,120.0,2.0,0.0
4404,67.0,0.0,120.0,2.0,0.0
4405,67.0,24.0,15.0,3.0,0.0
4406,91.0,2.0,15.0,8.0,0.0
4407,79.0,2.0,15.0,10.0,0.0
4408,56.0,26.0,15.0,11.0,0.0
4409,91.0,2.0,30.0,8.0,0.0
4410,79.0,2.0,15.0,10.0,0.0
4411,69.0,26.0,30.0,11.0,0.0
4412,69.0,1.0,120.0,12.0,0.0
4413,69.0,1.0,120.0,3.0,0.0
4414,57.0,23.0,120.0,13.0,0.0
4415,79.0,2.0,15.0,10.0,0.0
4416,69.0,2.0,30.0,11.0,0.0
4417,91.0,0.0,15.0,0.0,0.0
4418,79.0,0.0,120.0,0.0,0.0
4419,91.0,1.0,15.0,8.0,0.0
4420,79.0,1.0,120.0,1.0,0.0
4421,79.0,2.0,15.0,10.0,0.0
4422,79.0,2.0,120.0,2.0,0.0
4423,67.0,24.0,15.0,3.0,0.0
4424,91.0,2.0,15.0,8.0,0.0
4425,79.0,2.0,30.0,10.0,0.0
4426,57.0,26.0,15.0,11.0,0.0
4427,67.0,0.0,120.0,4.0,0.0
4428,76.0,2.0,30.0,10.0,0.0
4429,69.0,26.0,30.0,11.0,0.0
4430,57.0,1.0,60.0,12.0,0.0
4431,55.0,24.0,90.0,6.0,0.0
4432,57.0,1.0,60.0,3.0,0.0
4433,45.0,23.0,60.0,13.0,0.0
4434,88.0,2.0,15.0,8.0,0.0
4435,76.0,0.0,30.0,10.0,0.0
4436,69.0,1.0,30.0,11.0,0.0
4437,88.0,0.0,15.0,8.0,0.0
4438,88.0,0.0,120.0,0.0,0.0
4439,76.0,0.0,120.0,0.0,0.0
4440,76.0,0.0,120.0,1.0,0.0
4441,88.0,1.0,120.0,1.0,0.0
4442,76.0,2.0,30.0,10.0,0.0
4443,76.0,2.0,120.0,2.0,0.0
4444,71.0,2.0,30.0,11.0,0.0
4445,59.0,1.0,60.0,12.0,0.0
4446,59.0,0.0,60.0,3.0,0.0
4447,64.0,24.0,120.0,3.0,0.0
4448,47.0,23.0,60.0,13.0,0.0
4449,88.0,1.0,30.0,8.0,0.0
4450,76.0,0.0,30.0,10.0,0.0
4451,71.0,1.0,30.0,11.0,0.0
4452,55.0,1.0,30.0,6.0,0.0
4453,84.0,2.0,30.0,8.0,0.0
4454,79.0,1.0,15.0,5.0,0.0
4455,67.0,0.0,15.0,5.0,0.0
4456,69.0,2.0,15.0,4.0,0.0
4457,72.0,26.0,30.0,11.0,0.0
4458,60.0,1.0,120.0,12.0,0.0
4459,48.0,23.0,120.0,13.0,0.0
4460,72.0,2.0,15.0,10.0,0.0
4461,72.0,2.0,30.0,11.0,0.0
4462,84.0,1.0,15.0,8.0,0.0
4463,72.0,0.0,120.0,0.0,0.0
4464,84.0,0.0,120.0,0.0,0.0
4465,84.0,0.0,120.0,1.0,0.0
4466,72.0,1.0,120.0,1.0,0.0
4467,72.0,0.0,15.0,10.0,0.0
4468,72.0,2.0,120.0,2.0,0.0
4469,60.0,1.0,60.0,3.0,0.0
4470,84.0,2.0,15.0,8.0,0.0
4471,72.0,0.0,30.0,10.0,0.0
4472,60.0,26.0,15.0,11.0,0.0
4473,79.0,0.0,120.0,5.0,0.0
4474,67.0,0.0,15.0,4.0,0.0
4475,69.0,0.0,120.0,4.0,0.0
4476,69.0,2.0,30.0,10.0,0.0
4477,73.0,26.0,30.0,11.0,0.0
4478,61.0,1.0,120.0,12.0,0.0
4479,55.0,0.0,15.0,6.0,0.0
4480,61.0,0.0,120.0,3.0,0.0
4481,49.0,14.0,120.0,13.0,0.0
4482,81.0,2.0,15.0,8.0,0.0
4483,69.0,0.0,30.0,10.0,0.0
4484,73.0,2.0,30.0,11.0,0.0
4485,81.0,0.0,60.0,0.0,0.0
4486,93.0,1.0,60.0,0.0,0.0
4487,81.0,2.0,30.0,8.0,0.0
4488,69.0,0.0,60.0,1.0,0.0
4489,81.0,1.0,60.0,1.0,0.0
4490,69.0,2.0,60.0,2.0,0.0
4491,61.0,2.0,30.0,11.0,0.0
4492,57.0,0.0,60.0,3.0,0.0
4493,81.0,0.0,30.0,8.0,0.0
4494,69.0,2.0,15.0,10.0,0.0
4495,61.0,1.0,30.0,11.0,0.0
4496,55.0,1.0,30.0,6.0,0.0
4497,79.0,1.0,120.0,0.0,0.0
4498,91.0,0.0,120.0,0.0,0.0
4499,79.0,2.0,30.0,8.0,0.0
4500,67.0,0.0,120.0,1.0,0.0
4501,79.0,1.0,120.0,1.0,0.0
4502,79.0,0.0,120.0,5.0,0.0
4503,67.0,0.0,15.0,5.0,0.0
4504,67.0,0.0,15.0,4.0,0.0
4505,71.0,0.0,120.0,4.0,0.0
4506,74.0,0.0,120.0,2.0,0.0
4507,62.0,1.0,540.0,12.0,0.0
4508,62.0,1.0,540.0,3.0,0.0
4509,50.0,9.0,15.0,6.0,0.0
4510,50.0,53.0,540.0,13.0,0.0
4511,49.0,15.0,15.0,6.0,0.0
4512,79.0,2.0,30.0,8.0,0.0
4513,67.0,2.0,15.0,10.0,0.0
4514,74.0,2.0,15.0,11.0,0.0
4515,50.0,9.0,15.0,6.0,0.0
4516,49.0,15.0,15.0,6.0,0.0
4517,79.0,2.0,30.0,8.0,0.0
4518,67.0,2.0,15.0,10.0,0.0
4519,50.0,9.0,15.0,6.0,0.0
4520,49.0,15.0,15.0,6.0,0.0
4521,79.0,0.0,30.0,8.0,0.0
4522,67.0,2.0,15.0,10.0,0.0
4523,62.0,2.0,15.0,11.0,0.0
4524,50.0,9.0,15.0,6.0,0.0
4525,49.0,15.0,15.0,6.0,0.0
4526,74.0,0.0,120.0,0.0,0.0
4527,86.0,1.0,120.0,0.0,0.0
4528,74.0,1.0,120.0,5.0,0.0
4529,74.0,0.0,120.0,1.0,0.0
4530,86.0,0.0,120.0,1.0,0.0
4531,62.0,0.0,120.0,4.0,0.0
4532,74.0,0.0,120.0,4.0,0.0
4533,86.0,0.0,120.0,2.0,0.0
4534,74.0,2.0,120.0,2.0,0.0
4535,50.0,9.0,15.0,6.0,0.0
4536,49.0,15.0,15.0,6.0,0.0
4537,74.0,2.0,15.0,8.0,0.0
4538,74.0,2.0,15.0,10.0,0.0
4539,74.0,2.0,15.0,11.0,0.0
4540,50.0,9.0,15.0,6.0,0.0
4541,49.0,15.0,15.0,6.0,0.0
4542,74.0,2.0,15.0,8.0,0.0
4543,74.0,2.0,30.0,10.0,0.0
4544,62.0,2.0,30.0,11.0,0.0
4545,50.0,9.0,15.0,6.0,0.0
4546,49.0,15.0,15.0,6.0,0.0
4547,74.0,2.0,15.0,8.0,0.0
4548,74.0,0.0,30.0,10.0,0.0
4549,62.0,2.0,30.0,11.0,0.0
4550,50.0,9.0,15.0,6.0,0.0
4551,49.0,15.0,15.0,6.0,0.0
4552,95.0,0.0,120.0,0.0,0.0
4553,83.0,1.0,120.0,0.0,0.0
4554,71.0,0.0,120.0,5.0,0.0
4555,83.0,0.0,120.0,1.0,0.0
4556,71.0,1.0,120.0,1.0,0.0
4557,83.0,2.0,120.0,2.0,0.0
4558,71.0,0.0,120.0,4.0,0.0
4559,59.0,0.0,120.0,4.0,0.0
4560,71.0,0.0,120.0,2.0,0.0
4561,71.0,2.0,30.0,10.0,0.0
4562,50.0,9.0,15.0,6.0,0.0
4563,49.0,15.0,15.0,6.0,0.0
4564,71.0,2.0,15.0,8.0,0.0
4565,71.0,2.0,30.0,10.0,0.0
4566,71.0,2.0,15.0,11.0,0.0
4567,50.0,9.0,15.0,6.0,0.0
4568,49.0,15.0,15.0,6.0,0.0
4569,71.0,2.0,15.0,8.0,0.0
4570,50.0,9.0,15.0,6.0,0.0
4571,49.0,15.0,15.0,6.0,0.0
4572,71.0,2.0,15.0,8.0,0.0
4573,71.0,2.0,15.0,10.0,0.0
4574,59.0,2.0,15.0,11.0,0.0
4575,50.0,9.0,15.0,6.0,0.0
4576,49.0,15.0,15.0,6.0,0.0
4577,79.0,0.0,120.0,0.0,0.0
4578,91.0,0.0,120.0,0.0,0.0
4579,79.0,0.0,120.0,1.0,0.0
4580,67.0,0.0,120.0,5.0,0.0
4581,67.0,1.0,120.0,1.0,0.0
4582,79.0,0.0,120.0,2.0,0.0
4583,55.0,0.0,120.0,4.0,0.0
4584,67.0,2.0,120.0,4.0,0.0
4585,67.0,2.0,30.0,10.0,0.0
4586,67.0,0.0,120.0,2.0,0.0
4587,50.0,9.0,15.0,6.0,0.0
4588,49.0,15.0,15.0,6.0,0.0
4589,67.0,2.0,15.0,8.0,0.0
4590,67.0,2.0,30.0,10.0,0.0
4591,67.0,2.0,15.0,11.0,0.0
4592,50.0,9.0,15.0,6.0,0.0
4593,49.0,15.0,15.0,6.0,0.0
4594,67.0,2.0,15.0,8.0,0.0
4595,67.0,2.0,30.0,10.0,0.0
4596,50.0,9.0,15.0,6.0,0.0
4597,49.0,15.0,15.0,6.0,0.0
4598,67.0,2.0,15.0,8.0,0.0
4599,67.0,0.0,30.0,10.0,0.0
4600,55.0,2.0,15.0,11.0,0.0
4601,50.0,9.0,15.0,6.0,0.0
4602,49.0,59.0,15.0,6.0,0.0
4603,74.0,1.0,120.0,0.0,0.0
4604,86.0,0.0,120.0,0.0,0.0
4605,62.0,0.0,120.0,8.0,0.0
4606,74.0,0.0,120.0,5.0,0.0
4607,74.0,1.0,120.0,1.0,0.0
4608,62.0,0.0,120.0,5.0,0.0
4609,62.0,0.0,120.0,4.0,0.0
4610,50.0,0.0,120.0,4.0,0.0
4611,62.0,0.0,120.0,10.0,0.0
4612,74.0,0.0,120.0,2.0,0.0
4613,62.0,2.0,120.0,2.0,0.0
4614,62.0,1.0,120.0,11.0,0.0
4615,50.0,1.0,120.0,6.0,0.0
4616,60.0,1.0,60.0,12.0,0.0
4617,60.0,0.0,60.0,3.0,0.0
4618,48.0,43.0,60.0,13.0,0.0
4619,57.0,1.0,60.0,12.0,0.0
4620,57.0,1.0,60.0,3.0,0.0
4621,45.0,58.0,60.0,13.0,0.0
4622,55.0,1.0,60.0,12.0,0.0
4623,55.0,1.0,60.0,3.0,0.0
4624,43.0,58.0,60.0,13.0,0.0
4625,69.0,0.0,120.0,8.0,0.0
4626,74.0,0.0,120.0,8.0,0.0
4627,62.0,0.0,120.0,8.0,0.0
4628,86.0,1.0,120.0,0.0,0.0
4629,74.0,0.0,120.0,0.0,0.0
4630,81.0,0.0,120.0,1.0,0.0
4631,62.0,1.0,120.0,5.0,0.0
4632,78.0,0.0,120.0,1.0,0.0
4633,74.0,0.0,120.0,5.0,0.0
4634,62.0,0.0,120.0,4.0,0.0
4635,74.0,0.0,120.0,2.0,0.0
4636,74.0,0.0,120.0,10.0,0.0
4637,69.0,0.0,120.0,10.0,0.0
4638,62.0,0.0,120.0,10.0,0.0
4639,66.0,0.0,120.0,2.0,0.0
4640,69.0,2.0,120.0,4.0,0.0
4641,57.0,0.0,120.0,11.0,0.0
4642,66.0,0.0,120.0,11.0,0.0
4643,62.0,2.0,120.0,11.0,0.0
4644,54.0,1.0,60.0,12.0,0.0
4645,54.0,1.0,60.0,3.0,0.0
4646,50.0,44.0,120.0,6.0,0.0
4647,42.0,58.0,60.0,13.0,0.0
4648,52.0,1.0,60.0,12.0,0.0
4649,52.0,1.0,60.0,3.0,0.0
4650,40.0,8.0,60.0,13.0,0.0
4651,50.0,1.0,60.0,12.0,0.0
4652,50.0,1.0,60.0,3.0,0.0
4653,38.0,58.0,60.0,13.0,0.0
4654,48.0,1.0,60.0,12.0,0.0
4655,48.0,1.0,60.0,3.0,0.0
4656,36.0,69.0,60.0,13.0,0.0
4657,79.0,60.0,60.0,1.0,0.0
4658,62.0,0.0,720.0,10.0,0.0
4659,59.0,2.0,720.0,11.0,0.0
4660,47.0,1.0,120.0,12.0,0.0
4661,47.0,1.0,120.0,3.0,0.0
4662,35.0,54.0,120.0,13.0,0.0
4663,78.0,4.0,60.0,1.0,0.0
4664,76.0,60.0,60.0,1.0,0.0
4665,74.0,60.0,60.0,1.0,0.0
4666,84.0,1.0,60.0,1.0,0.0
4667,72.0,59.0,60.0,2.0,0.0
4668,83.0,1.0,60.0,1.0,0.0
4669,71.0,59.0,60.0,2.0,0.0
4670,81.0,1.0,60.0,1.0,0.0
4671,69.0,59.0,60.0,2.0,0.0
4672,79.0,1.0,60.0,1.0,0.0
4673,67.0,58.0,60.0,2.0,0.0
4674,88.0,1.0,60.0,0.0,0.0
4675,84.0,1.0,60.0,1.0,0.0
4676,72.0,0.0,60.0,2.0,0.0
4677,76.0,4.0,60.0,2.0,0.0
4678,60.0,54.0,60.0,3.0,0.0
4679,64.0,0.0,60.0,3.0,0.0
4680,86.0,1.0,60.0,0.0,0.0
4681,83.0,1.0,60.0,1.0,0.0
4682,71.0,4.0,60.0,2.0,0.0
4683,74.0,0.0,60.0,2.0,0.0
4684,62.0,0.0,60.0,3.0,0.0
4685,59.0,54.0,60.0,3.0,0.0
4686,84.0,1.0,60.0,0.0,0.0
4687,81.0,1.0,60.0,1.0,0.0
4688,72.0,4.0,60.0,2.0,0.0
4689,69.0,0.0,60.0,2.0,0.0
4690,57.0,0.0,60.0,3.0,0.0
4691,60.0,54.0,60.0,3.0,0.0
4692,83.0,1.0,60.0,0.0,0.0
4693,79.0,1.0,60.0,1.0,0.0
4694,71.0,0.0,60.0,2.0,0.0
4695,67.0,2.0,60.0,2.0,0.0
4696,55.0,0.0,60.0,3.0,0.0
4697,59.0,54.0,60.0,3.0,0.0
4698,93.0,1.0,60.0,0.0,0.0
4699,90.0,1.0,60.0,1.0,0.0
4700,64.0,0.0,240.0,10.0,0.0
4701,78.0,0.0,60.0,2.0,0.0
4702,81.0,4.0,60.0,2.0,0.0
4703,60.0,2.0,240.0,11.0,0.0
4704,66.0,0.0,60.0,3.0,0.0
4705,69.0,54.0,60.0,3.0,0.0
4706,91.0,1.0,60.0,0.0,0.0
4707,88.0,1.0,60.0,1.0,0.0
4708,79.0,4.0,60.0,2.0,0.0
4709,76.0,0.0,60.0,2.0,0.0
4710,67.0,54.0,60.0,3.0,0.0
4711,64.0,0.0,60.0,3.0,0.0
4712,90.0,1.0,60.0,0.0,0.0
4713,86.0,1.0,60.0,1.0,0.0
4714,78.0,0.0,60.0,2.0,0.0
4715,74.0,4.0,60.0,2.0,0.0
4716,66.0,54.0,60.0,3.0,0.0
4717,62.0,0.0,60.0,3.0,0.0
4718,88.0,1.0,60.0,0.0,0.0
4719,84.0,1.0,60.0,1.0,0.0
4720,76.0,2.0,60.0,2.0,0.0
4721,72.0,0.0,60.0,2.0,0.0
4722,60.0,99.0,60.0,3.0,0.0
4723,64.0,0.0,60.0,3.0,0.0
4724,86.0,1.0,360.0,0.0,0.0
4725,83.0,1.0,360.0,1.0,0.0
4726,74.0,2.0,120.0,2.0,0.0
4727,74.0,4.0,360.0,4.0,0.0
4728,71.0,0.0,120.0,2.0,0.0
4729,71.0,0.0,360.0,4.0,0.0
4730,67.0,0.0,120.0,10.0,0.0
4731,62.0,41.0,120.0,11.0,0.0
4732,50.0,1.0,720.0,12.0,0.0
4733,59.0,0.0,360.0,3.0,0.0
4734,62.0,39.0,360.0,3.0,0.0
4735,38.0,83.0,720.0,13.0,0.0
4736,62.0,17.0,60.0,8.0,0.0
4737,64.0,60.0,60.0,8.0,0.0
4738,66.0,60.0,60.0,8.0,0.0
4739,67.0,60.0,60.0,8.0,0.0
4740,62.0,15.0,60.0,8.0,0.0
4741,84.0,1.0,120.0,0.0,0.0
4742,69.0,60.0,60.0,8.0,0.0
4743,81.0,1.0,120.0,1.0,0.0
4744,72.0,4.0,120.0,4.0,0.0
4745,69.0,0.0,120.0,4.0,0.0
4746,60.0,39.0,120.0,3.0,0.0
4747,57.0,0.0,120.0,3.0,0.0
4748,62.0,15.0,60.0,8.0,0.0
4749,83.0,1.0,240.0,0.0,0.0
4750,71.0,60.0,60.0,8.0,0.0
4751,79.0,1.0,240.0,1.0,0.0
4752,67.0,0.0,240.0,4.0,0.0
4753,71.0,3.0,240.0,4.0,0.0
4754,55.0,1.0,240.0,3.0,0.0
4755,59.0,0.0,240.0,3.0,0.0
4756,62.0,60.0,60.0,8.0,0.0
4757,72.0,60.0,60.0,8.0,0.0
4758,62.0,15.0,60.0,8.0,0.0
4759,81.0,1.0,240.0,0.0,0.0
4760,74.0,120.0,90.0,8.0,0.0
4761,78.0,1.0,240.0,1.0,0.0
4762,62.0,0.0,240.0,4.0,0.0
4763,69.0,3.0,240.0,4.0,0.0
4764,48.0,1.0,240.0,12.0,0.0
4765,54.0,0.0,240.0,3.0,0.0
4766,57.0,1.0,240.0,3.0,0.0
4767,36.0,53.0,240.0,13.0,0.0
4768,74.0,30.0,90.0,8.0,0.0
4769,74.0,1.0,720.0,8.0,0.0
4770,79.0,2.0,60.0,0.0,0.0
4771,67.0,4.0,60.0,2.0,0.0
4772,62.0,2.0,720.0,10.0,0.0
4773,55.0,0.0,720.0,4.0,0.0
4774,67.0,0.0,720.0,4.0,0.0
4775,47.0,1.0,720.0,12.0,0.0
4776,55.0,54.0,60.0,3.0,0.0
4777,35.0,53.0,720.0,13.0,0.0
4778,78.0,2.0,60.0,0.0,0.0
4779,66.0,4.0,60.0,2.0,0.0
4780,54.0,54.0,60.0,3.0,0.0
4781,76.0,2.0,60.0,0.0,0.0
4782,64.0,4.0,60.0,2.0,0.0
4783,52.0,54.0,60.0,3.0,0.0
4784,74.0,2.0,60.0,0.0,0.0
4785,62.0,4.0,60.0,2.0,0.0
4786,50.0,54.0,60.0,3.0,0.0
4787,84.0,2.0,60.0,0.0,0.0
4788,72.0,4.0,60.0,2.0,0.0
4789,62.0,1.0,480.0,11.0,0.0
4790,60.0,54.0,60.0,3.0,0.0
4791,83.0,2.0,60.0,0.0,0.0
4792,71.0,4.0,60.0,2.0,0.0
4793,59.0,54.0,60.0,3.0,0.0
4794,81.0,2.0,60.0,0.0,0.0
4795,69.0,4.0,60.0,2.0,0.0
4796,57.0,54.0,60.0,3.0,0.0
4797,79.0,2.0,60.0,0.0,0.0
4798,67.0,4.0,60.0,2.0,0.0
4799,55.0,54.0,60.0,3.0,0.0
4800,88.0,1.0,60.0,0.0,0.0
4801,84.0,1.0,60.0,1.0,0.0
4802,72.0,0.0,60.0,2.0,0.0
4803,76.0,4.0,60.0,2.0,0.0
4804,60.0,0.0,60.0,3.0,0.0
4805,64.0,54.0,60.0,3.0,0.0
4806,86.0,1.0,60.0,0.0,0.0
4807,83.0,1.0,60.0,1.0,0.0
4808,74.0,0.0,60.0,2.0,0.0
4809,71.0,4.0,60.0,2.0,0.0
4810,62.0,54.0,60.0,3.0,0.0
4811,59.0,0.0,60.0,3.0,0.0
4812,84.0,1.0,60.0,0.0,0.0
4813,81.0,1.0,60.0,1.0,0.0
4814,69.0,4.0,60.0,2.0,0.0
4815,72.0,0.0,60.0,2.0,0.0
4816,60.0,0.0,60.0,3.0,0.0
4817,57.0,54.0,60.0,3.0,0.0
4818,83.0,0.0,60.0,0.0,0.0
4819,79.0,1.0,60.0,1.0,0.0
4820,71.0,0.0,60.0,2.0,0.0
4821,67.0,0.0,60.0,2.0,0.0
4822,55.0,1.0,60.0,3.0,0.0
4823,59.0,0.0,60.0,3.0,0.0
4824,76.0,0.0,240.0,8.0,0.0
4825,93.0,1.0,60.0,0.0,0.0
4826,90.0,1.0,60.0,1.0,0.0
4827,78.0,0.0,60.0,2.0,0.0
4828,81.0,4.0,60.0,2.0,0.0
4829,55.0,0.0,240.0,4.0,0.0
4830,67.0,0.0,240.0,4.0,0.0
4831,64.0,0.0,240.0,10.0,0.0
4832,60.0,1.0,240.0,11.0,0.0
4833,48.0,1.0,240.0,12.0,0.0
4834,69.0,0.0,60.0,3.0,0.0
4835,66.0,54.0,60.0,3.0,0.0
4836,36.0,43.0,240.0,13.0,0.0
4837,91.0,1.0,60.0,0.0,0.0
4838,88.0,1.0,60.0,1.0,0.0
4839,76.0,4.0,60.0,2.0,0.0
4840,79.0,0.0,60.0,2.0,0.0
4841,67.0,54.0,60.0,3.0,0.0
4842,64.0,0.0,60.0,3.0,0.0
4843,90.0,1.0,60.0,0.0,0.0
4844,86.0,1.0,60.0,1.0,0.0
4845,74.0,0.0,60.0,2.0,0.0
4846,78.0,4.0,60.0,2.0,0.0
4847,66.0,0.0,60.0,3.0,0.0
4848,62.0,54.0,60.0,3.0,0.0
4849,88.0,1.0,60.0,0.0,0.0
4850,84.0,1.0,60.0,1.0,0.0
4851,72.0,2.0,60.0,2.0,0.0
4852,76.0,0.0,60.0,2.0,0.0
4853,64.0,0.0,60.0,3.0,0.0
4854,60.0,1.0,60.0,3.0,0.0
4855,74.0,2.0,120.0,8.0,0.0
4856,86.0,1.0,360.0,0.0,0.0
4857,83.0,1.0,360.0,1.0,0.0
4858,74.0,4.0,360.0,4.0,0.0
4859,71.0,0.0,120.0,2.0,0.0
4860,74.0,2.0,120.0,2.0,0.0
4861,71.0,0.0,360.0,4.0,0.0
4862,71.0,0.0,120.0,10.0,0.0
4863,62.0,46.0,120.0,11.0,0.0
4864,50.0,2.0,60.0,12.0,0.0
4865,62.0,44.0,360.0,3.0,0.0
4866,59.0,0.0,360.0,3.0,0.0
4867,38.0,58.0,60.0,13.0,0.0
4868,50.0,2.0,60.0,12.0,0.0
4869,38.0,8.0,60.0,13.0,0.0
4870,52.0,2.0,60.0,12.0,0.0
4871,40.0,58.0,60.0,13.0,0.0
4872,54.0,2.0,60.0,12.0,0.0
4873,42.0,58.0,60.0,13.0,0.0
4874,55.0,2.0,60.0,12.0,0.0
4875,43.0,58.0,60.0,13.0,0.0
4876,50.0,2.0,60.0,12.0,0.0
4877,38.0,8.0,60.0,13.0,0.0
4878,84.0,1.0,120.0,0.0,0.0
4879,81.0,1.0,120.0,1.0,0.0
4880,72.0,0.0,120.0,4.0,0.0
4881,69.0,4.0,120.0,4.0,0.0
4882,57.0,2.0,60.0,12.0,0.0
4883,57.0,26.0,120.0,3.0,0.0
4884,60.0,0.0,120.0,3.0,0.0
4885,45.0,58.0,60.0,13.0,0.0
4886,50.0,2.0,60.0,12.0,0.0
4887,38.0,8.0,60.0,13.0,0.0
4888,83.0,1.0,240.0,0.0,0.0
4889,79.0,1.0,240.0,1.0,0.0
4890,67.0,0.0,240.0,4.0,0.0
4891,71.0,0.0,240.0,4.0,0.0
4892,59.0,2.0,60.0,12.0,0.0
4893,55.0,0.0,240.0,3.0,0.0
4894,59.0,24.0,240.0,3.0,0.0
4895,47.0,10.0,60.0,13.0,0.0
4896,74.0,2.0,15.0,10.0,0.0
4897,62.0,16.0,15.0,11.0,0.0
4898,74.0,2.0,30.0,10.0,0.0
4899,50.0,2.0,60.0,12.0,0.0
4900,38.0,10.0,60.0,13.0,0.0
4901,74.0,2.0,30.0,10.0,0.0
4902,62.0,16.0,15.0,11.0,0.0
4903,60.0,2.0,60.0,12.0,0.0
4904,48.0,10.0,60.0,13.0,0.0
4905,74.0,2.0,15.0,10.0,0.0
4906,62.0,16.0,15.0,11.0,0.0
4907,74.0,2.0,15.0,10.0,0.0
4908,62.0,16.0,30.0,11.0,0.0
4909,50.0,2.0,60.0,12.0,0.0
4910,38.0,8.0,60.0,13.0,0.0
4911,74.0,2.0,30.0,10.0,0.0
4912,62.0,2.0,30.0,11.0,0.0
4913,81.0,1.0,240.0,0.0,0.0
4914,86.0,2.0,30.0,8.0,0.0
4915,77.0,0.0,240.0,1.0,0.0
4916,74.0,1.0,240.0,1.0,0.0
4917,69.0,0.0,240.0,4.0,0.0
4918,86.0,0.0,240.0,2.0,0.0
4919,74.0,0.0,240.0,2.0,0.0
4920,62.0,2.0,120.0,12.0,0.0
4921,69.0,0.0,240.0,3.0,0.0
4922,65.0,1.0,240.0,3.0,0.0
4923,50.0,23.0,120.0,13.0,0.0
4924,74.0,2.0,15.0,10.0,0.0
4925,62.0,26.0,15.0,11.0,0.0
4926,86.0,2.0,15.0,8.0,0.0
4927,74.0,2.0,15.0,10.0,0.0
4928,86.0,2.0,15.0,8.0,0.0
4929,74.0,2.0,15.0,10.0,0.0
4930,62.0,26.0,15.0,11.0,0.0
4931,86.0,2.0,15.0,8.0,0.0
4932,93.0,0.0,120.0,0.0,0.0
4933,74.0,2.0,15.0,10.0,0.0
4934,60.0,1.0,120.0,12.0,0.0
4935,48.0,23.0,120.0,13.0,0.0
4936,86.0,2.0,15.0,8.0,0.0
4937,74.0,2.0,15.0,10.0,0.0
4938,60.0,26.0,15.0,11.0,0.0
4939,86.0,2.0,30.0,8.0,0.0
4940,74.0,2.0,30.0,10.0,0.0
4941,86.0,0.0,30.0,8.0,0.0
4942,74.0,0.0,30.0,10.0,0.0
4943,60.0,26.0,15.0,11.0,0.0
4944,80.0,1.0,60.0,0.0,0.0
4945,86.0,2.0,30.0,8.0,0.0
4946,92.0,0.0,60.0,0.0,0.0
4947,74.0,1.0,360.0,5.0,0.0
4948,77.0,5.0,60.0,1.0,0.0
4949,80.0,0.0,60.0,1.0,0.0
4950,62.0,2.0,15.0,4.0,0.0
4951,74.0,2.0,30.0,10.0,0.0
4952,86.0,0.0,360.0,2.0,0.0
4953,74.0,0.0,360.0,2.0,0.0
4954,50.0,2.0,360.0,4.0,0.0
4955,59.0,11.0,30.0,11.0,0.0
4956,59.0,1.0,360.0,12.0,0.0
4957,68.0,9.0,60.0,3.0,0.0
4958,50.0,0.0,120.0,6.0,0.0
4959,59.0,24.0,120.0,3.0,0.0
4960,47.0,23.0,360.0,13.0,0.0
4961,74.0,2.0,30.0,10.0,0.0
4962,59.0,26.0,30.0,11.0,0.0
4963,86.0,1.0,60.0,0.0,0.0
4964,74.0,0.0,60.0,0.0,0.0
4965,86.0,2.0,15.0,8.0,0.0
4966,74.0,5.0,60.0,1.0,0.0
4967,62.0,9.0,60.0,3.0,0.0
4968,86.0,2.0,30.0,8.0,0.0
4969,74.0,2.0,15.0,10.0,0.0
4970,71.0,11.0,15.0,11.0,0.0
4971,88.0,1.0,60.0,0.0,0.0
4972,76.0,0.0,60.0,0.0,0.0
4973,86.0,2.0,30.0,8.0,0.0
4974,76.0,5.0,60.0,1.0,0.0
4975,74.0,2.0,30.0,10.0,0.0
4976,64.0,9.0,60.0,3.0,0.0
4977,59.0,1.0,240.0,3.0,0.0
4978,86.0,2.0,30.0,8.0,0.0
4979,59.0,11.0,15.0,11.0,0.0
4980,89.0,1.0,60.0,0.0,0.0
4981,77.0,0.0,60.0,0.0,0.0
4982,77.0,5.0,60.0,1.0,0.0
4983,74.0,2.0,15.0,10.0,0.0
4984,65.0,9.0,60.0,3.0,0.0
4985,86.0,2.0,15.0,8.0,0.0
4986,71.0,11.0,15.0,11.0,0.0
4987,80.0,0.0,60.0,0.0,0.0
4988,92.0,1.0,60.0,0.0,0.0
4989,80.0,5.0,60.0,1.0,0.0
4990,74.0,2.0,15.0,10.0,0.0
4991,68.0,9.0,60.0,3.0,0.0
4992,86.0,2.0,15.0,8.0,0.0
4993,74.0,2.0,30.0,10.0,0.0
4994,59.0,11.0,15.0,11.0,0.0
4995,86.0,2.0,15.0,8.0,0.0
4996,74.0,0.0,60.0,0.0,0.0
4997,86.0,1.0,60.0,0.0,0.0
4998,74.0,5.0,60.0,1.0,0.0
4999,74.0,2.0,30.0,10.0,0.0
5000,62.0,9.0,60.0,3.0,0.0
5001,86.0,1.0,30.0,8.0,0.0
5002,74.0,0.0,30.0,10.0,0.0
5003,71.0,11.0,15.0,11.0,0.0
5004,93.0,1.0,60.0,0.0,0.0
5005,81.0,0.0,60.0,0.0,0.0
5006,84.0,2.0,30.0,8.0,0.0
5007,62.0,0.0,15.0,5.0,0.0
5008,81.0,5.0,60.0,1.0,0.0
5009,72.0,0.0,120.0,2.0,0.0
5010,84.0,0.0,120.0,2.0,0.0
5011,62.0,0.0,15.0,4.0,0.0
5012,50.0,0.0,120.0,4.0,0.0
5013,57.0,1.0,120.0,12.0,0.0
5014,50.0,0.0,120.0,6.0,0.0
5015,69.0,9.0,60.0,3.0,0.0
5016,57.0,1.0,120.0,3.0,0.0
5017,45.0,23.0,120.0,13.0,0.0
5018,84.0,2.0,30.0,8.0,0.0
5019,72.0,2.0,15.0,10.0,0.0
5020,57.0,11.0,15.0,11.0,0.0
5021,86.0,0.0,60.0,0.0,0.0
5022,74.0,1.0,60.0,0.0,0.0
5023,74.0,5.0,60.0,1.0,0.0
5024,72.0,2.0,15.0,10.0,0.0
5025,62.0,9.0,60.0,3.0,0.0
5026,84.0,2.0,15.0,8.0,0.0
5027,72.0,0.0,30.0,10.0,0.0
5028,69.0,11.0,15.0,11.0,0.0
5029,83.0,2.0,30.0,8.0,0.0
5030,95.0,1.0,60.0,0.0,0.0
5031,83.0,0.0,60.0,0.0,0.0
5032,83.0,5.0,60.0,1.0,0.0
5033,74.0,1.0,15.0,5.0,0.0
5034,62.0,0.0,120.0,5.0,0.0
5035,83.0,0.0,120.0,2.0,0.0
5036,71.0,0.0,120.0,2.0,0.0
5037,71.0,2.0,30.0,10.0,0.0
5038,50.0,0.0,120.0,4.0,0.0
5039,62.0,2.0,15.0,4.0,0.0
5040,56.0,11.0,30.0,11.0,0.0
5041,56.0,1.0,120.0,12.0,0.0
5042,56.0,1.0,120.0,3.0,0.0
5043,71.0,9.0,60.0,3.0,0.0
5044,50.0,0.0,120.0,6.0,0.0
5045,44.0,23.0,120.0,13.0,0.0
5046,83.0,2.0,30.0,8.0,0.0
5047,71.0,2.0,30.0,10.0,0.0
5048,56.0,26.0,30.0,11.0,0.0
5049,74.0,1.0,60.0,0.0,0.0
5050,86.0,0.0,60.0,0.0,0.0
5051,83.0,2.0,30.0,8.0,0.0
5052,74.0,5.0,60.0,1.0,0.0
5053,68.0,11.0,30.0,11.0,0.0
5054,62.0,9.0,60.0,3.0,0.0
5055,83.0,1.0,30.0,8.0,0.0
5056,71.0,2.0,15.0,10.0,0.0
5057,68.0,1.0,30.0,11.0,0.0
5058,95.0,1.0,60.0,0.0,0.0
5059,83.0,0.0,60.0,0.0,0.0
5060,83.0,5.0,60.0,1.0,0.0
5061,62.0,2.0,15.0,4.0,0.0
5062,81.0,0.0,120.0,2.0,0.0
5063,69.0,2.0,30.0,10.0,0.0
5064,69.0,0.0,120.0,2.0,0.0
5065,50.0,0.0,120.0,4.0,0.0
5066,53.0,1.0,120.0,12.0,0.0
5067,50.0,0.0,120.0,6.0,0.0
5068,53.0,1.0,120.0,3.0,0.0
5069,71.0,9.0,60.0,3.0,0.0
5070,41.0,23.0,120.0,13.0,0.0
5071,81.0,2.0,15.0,8.0,0.0
5072,53.0,11.0,15.0,11.0,0.0
5073,81.0,2.0,15.0,8.0,0.0
5074,93.0,0.0,60.0,0.0,0.0
5075,81.0,1.0,60.0,0.0,0.0
5076,81.0,5.0,60.0,1.0,0.0
5077,69.0,2.0,15.0,10.0,0.0
5078,65.0,11.0,30.0,11.0,0.0
5079,69.0,9.0,60.0,3.0,0.0
5080,81.0,2.0,15.0,8.0,0.0
5081,69.0,2.0,15.0,10.0,0.0
5082,65.0,1.0,30.0,11.0,0.0
5083,83.0,1.0,60.0,0.0,0.0
5084,80.0,2.0,30.0,8.0,0.0
5085,95.0,0.0,60.0,0.0,0.0
5086,74.0,1.0,15.0,5.0,0.0
5087,83.0,5.0,60.0,1.0,0.0
5088,62.0,0.0,15.0,5.0,0.0
5089,50.0,0.0,120.0,4.0,0.0
5090,62.0,0.0,120.0,4.0,0.0
5091,68.0,0.0,120.0,2.0,0.0
5092,80.0,2.0,120.0,2.0,0.0
5093,52.0,11.0,30.0,11.0,0.0
5094,52.0,1.0,120.0,12.0,0.0
5095,52.0,0.0,120.0,3.0,0.0
5096,71.0,9.0,60.0,3.0,0.0
5097,40.0,23.0,120.0,13.0,0.0
5098,80.0,2.0,30.0,8.0,0.0
5099,68.0,2.0,15.0,10.0,0.0
5100,52.0,26.0,30.0,11.0,0.0
5101,92.0,0.0,60.0,0.0,0.0
5102,80.0,1.0,60.0,0.0,0.0
5103,80.0,5.0,60.0,1.0,0.0
5104,68.0,2.0,30.0,10.0,0.0
5105,68.0,9.0,60.0,3.0,0.0
5106,80.0,2.0,15.0,8.0,0.0
5107,68.0,0.0,30.0,10.0,0.0
5108,64.0,11.0,15.0,11.0,0.0
5109,83.0,1.0,60.0,0.0,0.0
5110,95.0,0.0,60.0,0.0,0.0
5111,62.0,1.0,15.0,5.0,0.0
5112,74.0,0.0,15.0,5.0,0.0
5113,83.0,5.0,60.0,1.0,0.0
5114,50.0,0.0,120.0,4.0,0.0
5115,74.0,2.0,30.0,10.0,0.0
5116,83.0,0.0,120.0,2.0,0.0
5117,62.0,0.0,120.0,4.0,0.0
5118,59.0,11.0,30.0,11.0,0.0
5119,52.0,1.0,120.0,12.0,0.0
5120,71.0,9.0,60.0,3.0,0.0
5121,50.0,1.0,15.0,6.0,0.0
5122,40.0,23.0,120.0,13.0,0.0
5123,86.0,2.0,15.0,8.0,0.0
5124,59.0,26.0,30.0,11.0,0.0
5125,86.0,2.0,15.0,8.0,0.0
5126,92.0,1.0,60.0,0.0,0.0
5127,80.0,0.0,60.0,0.0,0.0
5128,80.0,5.0,60.0,1.0,0.0
5129,74.0,2.0,15.0,10.0,0.0
5130,71.0,11.0,30.0,11.0,0.0
5131,68.0,9.0,60.0,3.0,0.0
5132,86.0,1.0,30.0,8.0,0.0
5133,74.0,0.0,30.0,10.0,0.0
5134,71.0,1.0,30.0,11.0,0.0
5135,86.0,2.0,30.0,8.0,0.0
5136,62.0,1.0,15.0,5.0,0.0
5137,86.0,0.0,180.0,1.0,0.0
5138,83.0,1.0,180.0,1.0,0.0
5139,74.0,0.0,120.0,5.0,0.0
5140,71.0,0.0,180.0,4.0,0.0
5141,74.0,0.0,180.0,2.0,0.0
5142,71.0,2.0,15.0,2.0,0.0
5143,74.0,2.0,30.0,10.0,0.0
5144,52.0,1.0,60.0,12.0,0.0
5145,50.0,1.0,15.0,6.0,0.0
5146,52.0,0.0,15.0,3.0,0.0
5147,64.0,1.0,60.0,3.0,0.0
5148,40.0,8.0,60.0,13.0,0.0
5149,74.0,2.0,30.0,10.0,0.0
5150,71.0,16.0,15.0,11.0,0.0
5151,86.0,2.0,15.0,8.0,0.0
5152,74.0,2.0,30.0,10.0,0.0
5153,71.0,26.0,15.0,11.0,0.0
5154,52.0,1.0,60.0,12.0,0.0
5155,52.0,1.0,60.0,3.0,0.0
5156,64.0,0.0,60.0,3.0,0.0
5157,40.0,8.0,60.0,13.0,0.0
5158,86.0,2.0,15.0,8.0,0.0
5159,74.0,2.0,30.0,10.0,0.0
5160,71.0,2.0,30.0,11.0,0.0
5161,74.0,2.0,30.0,8.0,0.0
5162,56.0,1.0,60.0,12.0,0.0
5163,68.0,1.0,60.0,3.0,0.0
5164,56.0,0.0,60.0,3.0,0.0
5165,44.0,8.0,60.0,13.0,0.0
5166,74.0,1.0,30.0,8.0,0.0
5167,62.0,2.0,15.0,10.0,0.0
5168,59.0,16.0,15.0,11.0,0.0
5169,86.0,2.0,30.0,8.0,0.0
5170,88.0,0.0,15.0,0.0,0.0
5171,95.0,0.0,15.0,0.0,0.0
5172,83.0,0.0,60.0,1.0,0.0
5173,86.0,1.0,60.0,1.0,0.0
5174,71.0,0.0,60.0,2.0,0.0
5175,74.0,0.0,60.0,2.0,0.0
5176,71.0,2.0,60.0,4.0,0.0
5177,71.0,16.0,30.0,11.0,0.0
5178,52.0,1.0,60.0,12.0,0.0
5179,64.0,1.0,60.0,3.0,0.0
5180,52.0,0.0,60.0,3.0,0.0
5181,40.0,8.0,60.0,13.0,0.0
5182,86.0,0.0,30.0,8.0,0.0
5183,74.0,2.0,15.0,10.0,0.0
5184,71.0,26.0,30.0,11.0,0.0
5185,84.0,2.0,30.0,8.0,0.0
5186,88.0,0.0,180.0,0.0,0.0
5187,96.0,0.0,180.0,0.0,0.0
5188,81.0,1.0,120.0,5.0,0.0
5189,84.0,0.0,180.0,1.0,0.0
5190,69.0,16.0,30.0,11.0,0.0
5191,57.0,1.0,60.0,12.0,0.0
5192,57.0,1.0,60.0,3.0,0.0
5193,69.0,0.0,60.0,3.0,0.0
5194,45.0,8.0,60.0,13.0,0.0
5195,84.0,2.0,30.0,8.0,0.0
5196,72.0,2.0,15.0,10.0,0.0
5197,69.0,26.0,30.0,11.0,0.0
5198,72.0,2.0,30.0,10.0,0.0
5199,57.0,1.0,60.0,12.0,0.0
5200,57.0,1.0,60.0,3.0,0.0
5201,45.0,8.0,60.0,13.0,0.0
5202,84.0,2.0,15.0,8.0,0.0
5203,72.0,2.0,30.0,10.0,0.0
5204,69.0,16.0,15.0,11.0,0.0
5205,60.0,2.0,30.0,10.0,0.0
5206,57.0,16.0,30.0,11.0,0.0
5207,60.0,1.0,60.0,12.0,0.0
5208,60.0,1.0,60.0,3.0,0.0
5209,48.0,8.0,60.0,13.0,0.0
5210,72.0,2.0,15.0,8.0,0.0
5211,60.0,0.0,30.0,10.0,0.0
5212,57.0,26.0,30.0,11.0,0.0
5213,93.0,0.0,60.0,0.0,0.0
5214,84.0,2.0,30.0,8.0,0.0
5215,81.0,1.0,15.0,1.0,0.0
5216,84.0,1.0,60.0,1.0,0.0
5217,69.0,0.0,15.0,4.0,0.0
5218,72.0,2.0,15.0,2.0,0.0
5219,69.0,0.0,15.0,2.0,0.0
5220,69.0,16.0,30.0,11.0,0.0
5221,57.0,1.0,60.0,12.0,0.0
5222,57.0,1.0,60.0,3.0,0.0
5223,45.0,8.0,60.0,13.0,0.0
5224,72.0,2.0,15.0,10.0,0.0
5225,69.0,26.0,30.0,11.0,0.0
5226,96.0,0.0,15.0,0.0,0.0
5227,84.0,1.0,15.0,8.0,0.0
5228,93.0,1.0,120.0,0.0,0.0
5229,81.0,0.0,15.0,1.0,0.0
5230,74.0,0.0,120.0,5.0,0.0
5231,81.0,1.0,120.0,5.0,0.0
5232,84.0,0.0,120.0,1.0,0.0
5233,72.0,0.0,120.0,2.0,0.0
5234,69.0,0.0,120.0,2.0,0.0
5235,62.0,2.0,120.0,4.0,0.0
5236,72.0,2.0,30.0,10.0,0.0
5237,69.0,0.0,120.0,4.0,0.0
5238,54.0,1.0,60.0,12.0,0.0
5239,54.0,1.0,60.0,3.0,0.0
5240,50.0,24.0,120.0,6.0,0.0
5241,42.0,8.0,60.0,13.0,0.0
5242,84.0,2.0,30.0,8.0,0.0
5243,72.0,2.0,30.0,10.0,0.0
5244,69.0,16.0,15.0,11.0,0.0
5245,72.0,2.0,30.0,8.0,0.0
5246,60.0,2.0,30.0,10.0,0.0
5247,50.0,1.0,60.0,12.0,0.0
5248,50.0,1.0,60.0,3.0,0.0
5249,38.0,8.0,60.0,13.0,0.0
5250,72.0,0.0,30.0,8.0,0.0
5251,60.0,0.0,30.0,10.0,0.0
5252,57.0,16.0,15.0,11.0,0.0
5253,91.0,0.0,120.0,0.0,0.0
5254,95.0,0.0,120.0,0.0,0.0
5255,83.0,0.0,120.0,1.0,0.0
5256,79.0,0.0,120.0,1.0,0.0
5257,83.0,0.0,120.0,5.0,0.0
5258,79.0,1.0,120.0,5.0,0.0
5259,67.0,0.0,120.0,4.0,0.0
5260,71.0,0.0,120.0,2.0,0.0
5261,67.0,2.0,120.0,2.0,0.0
5262,71.0,2.0,30.0,10.0,0.0
5263,71.0,0.0,120.0,4.0,0.0
5264,55.0,1.0,60.0,12.0,0.0
5265,55.0,24.0,120.0,6.0,0.0
5266,55.0,1.0,60.0,3.0,0.0
5267,43.0,8.0,60.0,13.0,0.0
5268,83.0,2.0,15.0,8.0,0.0
5269,71.0,2.0,30.0,10.0,0.0
5270,67.0,16.0,15.0,11.0,0.0
5271,59.0,2.0,30.0,10.0,0.0
5272,55.0,16.0,30.0,11.0,0.0
5273,59.0,1.0,60.0,12.0,0.0
5274,59.0,1.0,60.0,3.0,0.0
5275,47.0,8.0,60.0,13.0,0.0
5276,71.0,2.0,15.0,8.0,0.0
5277,59.0,0.0,30.0,10.0,0.0
5278,55.0,2.0,30.0,11.0,0.0
5279,93.0,0.0,120.0,0.0,0.0
5280,81.0,2.0,30.0,8.0,0.0
5281,90.0,1.0,120.0,0.0,0.0
5282,81.0,0.0,120.0,1.0,0.0
5283,78.0,1.0,120.0,1.0,0.0
5284,74.0,0.0,120.0,5.0,0.0
5285,78.0,2.0,30.0,10.0,0.0
5286,66.0,0.0,120.0,2.0,0.0
5287,69.0,0.0,120.0,2.0,0.0
5288,62.0,0.0,120.0,4.0,0.0
5289,62.0,1.0,120.0,12.0,0.0
5290,62.0,0.0,120.0,3.0,0.0
5291,50.0,1.0,120.0,6.0,0.0
5292,50.0,23.0,120.0,13.0,0.0
5293,81.0,2.0,30.0,8.0,0.0
5294,78.0,2.0,30.0,10.0,0.0
5295,62.0,26.0,15.0,11.0,0.0
5296,69.0,2.0,30.0,8.0,0.0
5297,66.0,2.0,30.0,10.0,0.0
5298,74.0,26.0,30.0,11.0,0.0
5299,69.0,0.0,30.0,8.0,0.0
5300,66.0,0.0,30.0,10.0,0.0
5301,74.0,1.0,30.0,11.0,0.0
5302,90.0,2.0,30.0,8.0,0.0
5303,93.0,1.0,120.0,0.0,0.0
5304,90.0,0.0,120.0,0.0,0.0
5305,86.0,0.0,120.0,1.0,0.0
5306,81.0,0.0,120.0,1.0,0.0
5307,81.0,0.0,15.0,5.0,0.0
5308,74.0,0.0,120.0,5.0,0.0
5309,62.0,0.0,120.0,4.0,0.0
5310,69.0,2.0,15.0,4.0,0.0
5311,78.0,2.0,120.0,2.0,0.0
5312,69.0,0.0,120.0,2.0,0.0
5313,50.0,1.0,120.0,12.0,0.0
5314,50.0,0.0,120.0,3.0,0.0
5315,50.0,1.0,120.0,6.0,0.0
5316,38.0,14.0,120.0,13.0,0.0
5317,90.0,2.0,30.0,8.0,0.0
5318,81.0,2.0,15.0,10.0,0.0
5319,62.0,26.0,15.0,11.0,0.0
5320,78.0,2.0,15.0,8.0,0.0
5321,69.0,2.0,15.0,10.0,0.0
5322,74.0,26.0,15.0,11.0,0.0
5323,95.0,1.0,600.0,0.0,0.0
5324,91.0,0.0,600.0,0.0,0.0
5325,79.0,1.0,60.0,5.0,0.0
5326,83.0,1.0,600.0,1.0,0.0
5327,86.0,0.0,600.0,1.0,0.0
5328,67.0,0.0,60.0,5.0,0.0
5329,83.0,2.0,30.0,10.0,0.0
5330,74.0,0.0,30.0,10.0,0.0
5331,67.0,0.0,600.0,4.0,0.0
5332,71.0,0.0,600.0,4.0,0.0
5333,79.0,2.0,600.0,2.0,0.0
5334,71.0,0.0,600.0,2.0,0.0
5335,59.0,0.0,30.0,11.0,0.0
5336,43.0,1.0,60.0,12.0,0.0
5337,59.0,0.0,600.0,3.0,0.0
5338,55.0,9.0,15.0,6.0,0.0
5339,31.0,8.0,60.0,13.0,0.0
5340,54.0,14.0,15.0,6.0,0.0
5341,91.0,2.0,15.0,8.0,0.0
5342,79.0,0.0,15.0,8.0,0.0
5343,83.0,2.0,30.0,10.0,0.0
5344,55.0,2.0,15.0,11.0,0.0
5345,59.0,0.0,30.0,11.0,0.0
5346,55.0,1.0,15.0,6.0,0.0
5347,54.0,15.0,15.0,6.0,0.0
5348,79.0,1.0,15.0,8.0,0.0
5349,91.0,0.0,30.0,8.0,0.0
5350,79.0,1.0,60.0,5.0,0.0
5351,74.0,0.0,15.0,10.0,0.0
5352,59.0,2.0,30.0,11.0,0.0
5353,55.0,2.0,15.0,11.0,0.0
5354,43.0,1.0,60.0,12.0,0.0
5355,55.0,9.0,15.0,6.0,0.0
5356,31.0,8.0,60.0,13.0,0.0
5357,54.0,14.0,15.0,6.0,0.0
5358,74.0,2.0,15.0,10.0,0.0
5359,83.0,0.0,15.0,10.0,0.0
5360,55.0,0.0,15.0,11.0,0.0
5361,55.0,1.0,15.0,6.0,0.0
5362,54.0,15.0,15.0,6.0,0.0
5363,91.0,0.0,15.0,8.0,0.0
5364,79.0,1.0,15.0,8.0,0.0
5365,67.0,0.0,15.0,5.0,0.0
5366,83.0,2.0,30.0,10.0,0.0
5367,74.0,0.0,30.0,10.0,0.0
5368,55.0,0.0,30.0,11.0,0.0
5369,59.0,2.0,15.0,11.0,0.0
5370,47.0,1.0,60.0,12.0,0.0
5371,55.0,9.0,15.0,6.0,0.0
5372,35.0,8.0,60.0,13.0,0.0
5373,54.0,14.0,15.0,6.0,0.0
5374,59.0,0.0,30.0,11.0,0.0
5375,55.0,1.0,15.0,6.0,0.0
5376,54.0,15.0,15.0,6.0,0.0
5377,79.0,1.0,15.0,8.0,0.0
5378,91.0,0.0,15.0,8.0,0.0
5379,79.0,0.0,15.0,5.0,0.0
5380,67.0,1.0,60.0,5.0,0.0
5381,83.0,0.0,15.0,10.0,0.0
5382,74.0,2.0,15.0,10.0,0.0
5383,55.0,2.0,15.0,11.0,0.0
5384,50.0,1.0,60.0,12.0,0.0
5385,55.0,9.0,15.0,6.0,0.0
5386,38.0,8.0,60.0,13.0,0.0
5387,54.0,14.0,15.0,6.0,0.0
5388,91.0,2.0,15.0,8.0,0.0
5389,79.0,0.0,15.0,8.0,0.0
5390,74.0,2.0,15.0,10.0,0.0
5391,83.0,0.0,15.0,10.0,0.0
5392,59.0,2.0,15.0,11.0,0.0
5393,55.0,0.0,15.0,11.0,0.0
5394,55.0,1.0,15.0,6.0,0.0
5395,54.0,15.0,15.0,6.0,0.0
5396,79.0,1.0,60.0,5.0,0.0
5397,74.0,0.0,15.0,10.0,0.0
5398,83.0,2.0,15.0,10.0,0.0
5399,59.0,0.0,15.0,11.0,0.0
5400,55.0,2.0,15.0,11.0,0.0
5401,55.0,1.0,60.0,12.0,0.0
5402,55.0,9.0,15.0,6.0,0.0
5403,43.0,8.0,60.0,13.0,0.0
5404,54.0,14.0,15.0,6.0,0.0
5405,91.0,2.0,15.0,8.0,0.0
5406,79.0,0.0,15.0,8.0,0.0
5407,83.0,2.0,30.0,10.0,0.0
5408,74.0,0.0,30.0,10.0,0.0
5409,59.0,2.0,15.0,11.0,0.0
5410,55.0,0.0,15.0,11.0,0.0
5411,55.0,1.0,15.0,6.0,0.0
5412,54.0,15.0,15.0,6.0,0.0
5413,79.0,1.0,15.0,8.0,0.0
5414,67.0,0.0,15.0,5.0,0.0
5415,79.0,0.0,60.0,5.0,0.0
5416,74.0,2.0,30.0,10.0,0.0
5417,55.0,2.0,15.0,11.0,0.0
5418,59.0,1.0,60.0,12.0,0.0
5419,55.0,9.0,15.0,6.0,0.0
5420,47.0,8.0,60.0,13.0,0.0
5421,54.0,14.0,15.0,6.0,0.0
5422,91.0,2.0,15.0,8.0,0.0
5423,83.0,0.0,15.0,10.0,0.0
5424,55.0,0.0,15.0,11.0,0.0
5425,59.0,2.0,15.0,11.0,0.0
5426,55.0,1.0,15.0,6.0,0.0
5427,54.0,15.0,15.0,6.0,0.0
5428,79.0,0.0,15.0,8.0,0.0
5429,91.0,1.0,15.0,8.0,0.0
5430,67.0,0.0,60.0,5.0,0.0
5431,79.0,1.0,60.0,5.0,0.0
5432,74.0,2.0,15.0,10.0,0.0
5433,83.0,2.0,30.0,10.0,0.0
5434,59.0,2.0,15.0,11.0,0.0
5435,55.0,0.0,15.0,11.0,0.0
5436,62.0,1.0,60.0,12.0,0.0
5437,55.0,9.0,15.0,6.0,0.0
5438,50.0,8.0,60.0,13.0,0.0
5439,54.0,14.0,15.0,6.0,0.0
5440,91.0,0.0,15.0,8.0,0.0
5441,79.0,2.0,15.0,8.0,0.0
5442,55.0,0.0,15.0,11.0,0.0
5443,59.0,0.0,30.0,11.0,0.0
5444,55.0,1.0,15.0,6.0,0.0
5445,54.0,15.0,15.0,6.0,0.0
5446,79.0,1.0,15.0,8.0,0.0
5447,74.0,0.0,15.0,10.0,0.0
5448,83.0,2.0,15.0,10.0,0.0
5449,59.0,0.0,30.0,11.0,0.0
5450,55.0,2.0,30.0,11.0,0.0
5451,67.0,1.0,60.0,12.0,0.0
5452,55.0,9.0,15.0,6.0,0.0
5453,55.0,8.0,60.0,13.0,0.0
5454,54.0,14.0,15.0,6.0,0.0
5455,79.0,2.0,15.0,8.0,0.0
5456,91.0,0.0,15.0,8.0,0.0
5457,55.0,2.0,30.0,11.0,0.0
5458,59.0,0.0,30.0,11.0,0.0
5459,55.0,1.0,15.0,6.0,0.0
5460,54.0,24.0,15.0,6.0,0.0
5461,91.0,2.0,30.0,8.0,0.0
5462,79.0,1.0,15.0,5.0,0.0
5463,67.0,0.0,15.0,5.0,0.0
5464,83.0,0.0,15.0,10.0,0.0
5465,74.0,2.0,15.0,10.0,0.0
5466,55.0,0.0,30.0,11.0,0.0
5467,55.0,1.0,120.0,12.0,0.0
5468,55.0,0.0,120.0,6.0,0.0
5469,43.0,23.0,120.0,13.0,0.0
5470,91.0,2.0,30.0,8.0,0.0
5471,83.0,2.0,15.0,10.0,0.0
5472,74.0,0.0,15.0,10.0,0.0
5473,55.0,0.0,30.0,11.0,0.0
5474,59.0,26.0,15.0,11.0,0.0
5475,83.0,0.0,15.0,10.0,0.0
5476,74.0,2.0,15.0,10.0,0.0
5477,55.0,26.0,30.0,11.0,0.0
5478,59.0,26.0,15.0,11.0,0.0
5479,91.0,2.0,15.0,8.0,0.0
5480,83.0,0.0,30.0,10.0,0.0
5481,59.0,0.0,15.0,11.0,0.0
5482,55.0,1.0,30.0,11.0,0.0
5483,98.0,0.0,120.0,0.0,0.0
5484,86.0,0.0,120.0,0.0,0.0
5485,86.0,1.0,120.0,1.0,0.0
5486,74.0,0.0,15.0,10.0,0.0
5487,74.0,0.0,120.0,2.0,0.0
5488,67.0,2.0,120.0,4.0,0.0
5489,71.0,0.0,120.0,4.0,0.0
5490,55.0,26.0,30.0,11.0,0.0
5491,59.0,0.0,30.0,11.0,0.0
5492,55.0,1.0,15.0,3.0,0.0
5493,62.0,24.0,120.0,3.0,0.0
5494,86.0,2.0,15.0,8.0,0.0
5495,74.0,2.0,15.0,10.0,0.0
5496,59.0,0.0,30.0,11.0,0.0
5497,86.0,2.0,15.0,8.0,0.0
5498,74.0,2.0,30.0,10.0,0.0
5499,55.0,26.0,15.0,11.0,0.0
5500,59.0,26.0,30.0,11.0,0.0
5501,86.0,1.0,30.0,8.0,0.0
5502,74.0,0.0,30.0,10.0,0.0
5503,55.0,0.0,15.0,11.0,0.0
5504,59.0,0.0,30.0,11.0,0.0
5505,84.0,1.0,120.0,0.0,0.0
5506,96.0,0.0,120.0,0.0,0.0
5507,84.0,2.0,30.0,8.0,0.0
5508,84.0,1.0,120.0,1.0,0.0
5509,72.0,2.0,30.0,10.0,0.0
5510,71.0,0.0,120.0,4.0,0.0
5511,72.0,0.0,120.0,2.0,0.0
5512,55.0,2.0,15.0,11.0,0.0
5513,60.0,0.0,120.0,3.0,0.0
5514,55.0,24.0,120.0,3.0,0.0
5515,59.0,0.0,15.0,11.0,0.0
5516,55.0,26.0,15.0,11.0,0.0
5517,84.0,2.0,15.0,8.0,0.0
5518,72.0,2.0,15.0,10.0,0.0
5519,59.0,26.0,15.0,11.0,0.0
5520,55.0,0.0,15.0,11.0,0.0
5521,84.0,0.0,30.0,8.0,0.0
5522,72.0,2.0,15.0,10.0,0.0
5523,59.0,2.0,30.0,11.0,0.0
5524,55.0,26.0,15.0,11.0,0.0
5525,95.0,0.0,120.0,0.0,0.0
5526,83.0,0.0,120.0,0.0,0.0
5527,83.0,0.0,120.0,1.0,0.0
5528,67.0,2.0,15.0,4.0,0.0
5529,71.0,0.0,120.0,4.0,0.0
5530,71.0,2.0,120.0,2.0,0.0
5531,55.0,0.0,15.0,11.0,0.0
5532,59.0,15.0,120.0,3.0,0.0
5533,55.0,0.0,120.0,3.0,0.0
5534,83.0,2.0,15.0,8.0,0.0
5535,71.0,2.0,15.0,10.0,0.0
5536,55.0,26.0,30.0,11.0,0.0
5537,59.0,26.0,15.0,11.0,0.0
5538,83.0,2.0,15.0,8.0,0.0
5539,59.0,26.0,30.0,11.0,0.0
5540,83.0,1.0,30.0,8.0,0.0
5541,71.0,2.0,15.0,10.0,0.0
5542,55.0,0.0,15.0,11.0,0.0
5543,59.0,2.0,30.0,11.0,0.0
5544,93.0,0.0,600.0,0.0,0.0
5545,91.0,0.0,600.0,0.0,0.0
5546,79.0,1.0,15.0,5.0,0.0
5547,67.0,0.0,15.0,5.0,0.0
5548,84.0,0.0,480.0,1.0,0.0
5549,88.0,1.0,600.0,1.0,0.0
5550,67.0,0.0,600.0,4.0,0.0
5551,76.0,2.0,480.0,2.0,0.0
5552,76.0,0.0,30.0,10.0,0.0
5553,72.0,0.0,480.0,2.0,0.0
5554,69.0,0.0,600.0,4.0,0.0
5555,55.0,0.0,15.0,11.0,0.0
5556,57.0,0.0,30.0,11.0,0.0
5557,64.0,0.0,30.0,11.0,0.0
5558,48.0,1.0,60.0,12.0,0.0
5559,55.0,9.0,15.0,6.0,0.0
5560,60.0,24.0,480.0,3.0,0.0
5561,48.0,0.0,600.0,3.0,0.0
5562,36.0,8.0,60.0,13.0,0.0
5563,54.0,14.0,15.0,6.0,0.0
5564,88.0,2.0,15.0,8.0,0.0
5565,84.0,2.0,15.0,10.0,0.0
5566,55.0,2.0,15.0,11.0,0.0
5567,57.0,0.0,30.0,11.0,0.0
5568,64.0,0.0,30.0,11.0,0.0
5569,55.0,1.0,15.0,6.0,0.0
5570,54.0,15.0,15.0,6.0,0.0
5571,88.0,1.0,15.0,8.0,0.0
5572,67.0,1.0,15.0,5.0,0.0
5573,76.0,2.0,15.0,10.0,0.0
5574,84.0,0.0,15.0,10.0,0.0
5575,55.0,2.0,15.0,11.0,0.0
5576,48.0,1.0,60.0,12.0,0.0
5577,55.0,9.0,15.0,6.0,0.0
5578,36.0,8.0,60.0,13.0,0.0
5579,54.0,14.0,15.0,6.0,0.0
5580,88.0,2.0,15.0,8.0,0.0
5581,76.0,0.0,15.0,10.0,0.0
5582,64.0,0.0,15.0,11.0,0.0
5583,57.0,0.0,15.0,11.0,0.0
5584,55.0,2.0,15.0,11.0,0.0
5585,55.0,1.0,15.0,6.0,0.0
5586,54.0,15.0,15.0,6.0,0.0
5587,79.0,1.0,15.0,5.0,0.0
5588,84.0,0.0,15.0,10.0,0.0
5589,52.0,1.0,60.0,12.0,0.0
5590,55.0,9.0,15.0,6.0,0.0
5591,40.0,8.0,60.0,13.0,0.0
5592,54.0,14.0,15.0,6.0,0.0
5593,88.0,2.0,15.0,8.0,0.0
5594,76.0,2.0,15.0,10.0,0.0
5595,64.0,0.0,15.0,11.0,0.0
5596,55.0,0.0,15.0,11.0,0.0
5597,57.0,2.0,15.0,11.0,0.0
5598,55.0,1.0,15.0,6.0,0.0
5599,54.0,15.0,15.0,6.0,0.0
5600,88.0,1.0,15.0,8.0,0.0
5601,67.0,1.0,15.0,5.0,0.0
5602,76.0,2.0,15.0,10.0,0.0
5603,84.0,0.0,15.0,10.0,0.0
5604,55.0,2.0,15.0,11.0,0.0
5605,64.0,0.0,15.0,11.0,0.0
5606,57.0,0.0,30.0,11.0,0.0
5607,57.0,1.0,60.0,12.0,0.0
5608,55.0,9.0,15.0,6.0,0.0
5609,45.0,8.0,60.0,13.0,0.0
5610,54.0,14.0,15.0,6.0,0.0
5611,88.0,2.0,15.0,8.0,0.0
5612,76.0,2.0,15.0,10.0,0.0
5613,84.0,0.0,30.0,10.0,0.0
5614,64.0,2.0,30.0,11.0,0.0
5615,55.0,2.0,15.0,11.0,0.0
5616,57.0,0.0,30.0,11.0,0.0
5617,55.0,1.0,15.0,6.0,0.0
5618,54.0,15.0,15.0,6.0,0.0
5619,88.0,2.0,30.0,8.0,0.0
5620,79.0,1.0,15.0,5.0,0.0
5621,76.0,2.0,15.0,10.0,0.0
5622,64.0,0.0,30.0,11.0,0.0
5623,57.0,0.0,30.0,11.0,0.0
5624,60.0,1.0,60.0,12.0,0.0
5625,55.0,9.0,15.0,6.0,0.0
5626,48.0,8.0,60.0,13.0,0.0
5627,54.0,14.0,15.0,6.0,0.0
5628,88.0,1.0,30.0,8.0,0.0
5629,76.0,2.0,15.0,10.0,0.0
5630,84.0,0.0,15.0,10.0,0.0
5631,64.0,2.0,30.0,11.0,0.0
5632,55.0,2.0,15.0,11.0,0.0
5633,55.0,1.0,15.0,6.0,0.0
5634,54.0,15.0,15.0,6.0,0.0
5635,67.0,1.0,15.0,5.0,0.0
5636,76.0,0.0,30.0,10.0,0.0
5637,84.0,2.0,15.0,10.0,0.0
5638,55.0,0.0,15.0,11.0,0.0
5639,57.0,0.0,15.0,11.0,0.0
5640,64.0,1.0,60.0,12.0,0.0
5641,55.0,9.0,15.0,6.0,0.0
5642,52.0,8.0,60.0,13.0,0.0
5643,54.0,14.0,15.0,6.0,0.0
5644,88.0,2.0,15.0,8.0,0.0
5645,76.0,0.0,30.0,10.0,0.0
5646,64.0,2.0,15.0,11.0,0.0
5647,55.0,0.0,15.0,11.0,0.0
5648,55.0,1.0,15.0,6.0,0.0
5649,54.0,15.0,15.0,6.0,0.0
5650,88.0,2.0,30.0,8.0,0.0
5651,79.0,0.0,15.0,5.0,0.0
5652,67.0,1.0,15.0,5.0,0.0
5653,76.0,0.0,30.0,10.0,0.0
5654,84.0,2.0,15.0,10.0,0.0
5655,55.0,2.0,15.0,11.0,0.0
5656,57.0,0.0,15.0,11.0,0.0
5657,64.0,0.0,15.0,11.0,0.0
5658,69.0,1.0,60.0,12.0,0.0
5659,55.0,9.0,15.0,6.0,0.0
5660,57.0,8.0,60.0,13.0,0.0
5661,54.0,14.0,15.0,6.0,0.0
5662,84.0,0.0,30.0,10.0,0.0
5663,55.0,0.0,15.0,11.0,0.0
5664,64.0,0.0,30.0,11.0,0.0
5665,57.0,2.0,30.0,11.0,0.0
5666,55.0,1.0,15.0,6.0,0.0
5667,54.0,15.0,15.0,6.0,0.0
5668,88.0,1.0,15.0,8.0,0.0
5669,67.0,1.0,15.0,5.0,0.0
5670,76.0,2.0,15.0,10.0,0.0
5671,72.0,1.0,60.0,12.0,0.0
5672,55.0,9.0,15.0,6.0,0.0
5673,60.0,8.0,60.0,13.0,0.0
5674,54.0,14.0,15.0,6.0,0.0
5675,88.0,2.0,15.0,8.0,0.0
5676,84.0,0.0,15.0,10.0,0.0
5677,76.0,0.0,30.0,10.0,0.0
5678,55.0,0.0,15.0,11.0,0.0
5679,64.0,0.0,15.0,11.0,0.0
5680,57.0,2.0,15.0,11.0,0.0
5681,55.0,1.0,15.0,6.0,0.0
5682,54.0,0.0,15.0,6.0,0.0
5683,88.0,1.0,15.0,8.0,0.0
5684,67.0,0.0,480.0,5.0,0.0
5685,79.0,1.0,15.0,5.0,0.0
5686,84.0,0.0,15.0,10.0,0.0
5687,76.0,0.0,30.0,10.0,0.0
5688,76.0,0.0,120.0,2.0,0.0
5689,88.0,0.0,120.0,2.0,0.0
5690,64.0,0.0,15.0,11.0,0.0
5691,57.0,2.0,15.0,11.0,0.0
5692,60.0,1.0,120.0,12.0,0.0
5693,55.0,0.0,120.0,6.0,0.0
5694,66.0,1.0,120.0,3.0,0.0
5695,48.0,23.0,120.0,13.0,0.0
5696,84.0,2.0,15.0,10.0,0.0
5697,55.0,26.0,15.0,11.0,0.0
5698,88.0,2.0,15.0,8.0,0.0
5699,76.0,2.0,15.0,10.0,0.0
5700,57.0,26.0,15.0,11.0,0.0
5701,64.0,0.0,15.0,11.0,0.0
5702,88.0,1.0,30.0,8.0,0.0
5703,84.0,2.0,15.0,10.0,0.0
5704,76.0,0.0,15.0,10.0,0.0
5705,55.0,26.0,15.0,11.0,0.0
5706,57.0,0.0,30.0,11.0,0.0
5707,64.0,1.0,30.0,11.0,0.0
5708,96.0,0.0,120.0,0.0,0.0
5709,84.0,0.0,120.0,0.0,0.0
5710,84.0,1.0,120.0,1.0,0.0
5711,72.0,0.0,120.0,2.0,0.0
5712,67.0,0.0,120.0,4.0,0.0
5713,72.0,2.0,30.0,10.0,0.0
5714,64.0,0.0,30.0,11.0,0.0
5715,55.0,0.0,30.0,11.0,0.0
5716,60.0,0.0,120.0,3.0,0.0
5717,84.0,2.0,15.0,8.0,0.0
5718,72.0,2.0,30.0,10.0,0.0
5719,57.0,26.0,15.0,11.0,0.0
5720,84.0,2.0,15.0,8.0,0.0
5721,64.0,26.0,15.0,11.0,0.0
5722,55.0,0.0,15.0,11.0,0.0
5723,57.0,0.0,30.0,11.0,0.0
5724,84.0,2.0,15.0,8.0,0.0
5725,72.0,2.0,15.0,10.0,0.0
5726,64.0,26.0,15.0,11.0,0.0
5727,55.0,0.0,30.0,11.0,0.0
5728,95.0,1.0,120.0,0.0,0.0
5729,83.0,0.0,120.0,0.0,0.0
5730,83.0,1.0,120.0,1.0,0.0
5731,67.0,0.0,120.0,4.0,0.0
5732,69.0,2.0,15.0,4.0,0.0
5733,71.0,2.0,120.0,2.0,0.0
5734,71.0,2.0,30.0,10.0,0.0
5735,57.0,0.0,15.0,11.0,0.0
5736,64.0,26.0,30.0,11.0,0.0
5737,55.0,0.0,30.0,11.0,0.0
5738,59.0,24.0,120.0,3.0,0.0
5739,48.0,24.0,15.0,3.0,0.0
5740,83.0,2.0,15.0,8.0,0.0
5741,71.0,2.0,30.0,10.0,0.0
5742,64.0,26.0,30.0,11.0,0.0
5743,55.0,0.0,30.0,11.0,0.0
5744,57.0,0.0,30.0,11.0,0.0
5745,83.0,2.0,15.0,8.0,0.0
5746,64.0,26.0,30.0,11.0,0.0
5747,57.0,0.0,30.0,11.0,0.0
5748,55.0,0.0,30.0,11.0,0.0
5749,83.0,2.0,15.0,8.0,0.0
5750,71.0,2.0,15.0,10.0,0.0
5751,55.0,0.0,30.0,11.0,0.0
5752,81.0,1.0,120.0,0.0,0.0
5753,69.0,2.0,30.0,10.0,0.0
5754,69.0,0.0,120.0,4.0,0.0
5755,67.0,0.0,120.0,4.0,0.0
5756,57.0,0.0,15.0,11.0,0.0
5757,64.0,2.0,15.0,11.0,0.0
5758,57.0,0.0,120.0,3.0,0.0
5759,48.0,15.0,120.0,3.0,0.0
5760,81.0,2.0,15.0,8.0,0.0
5761,69.0,2.0,30.0,10.0,0.0
5762,64.0,0.0,30.0,11.0,0.0
5763,55.0,26.0,15.0,11.0,0.0
5764,69.0,2.0,30.0,10.0,0.0
5765,57.0,26.0,15.0,11.0,0.0
5766,55.0,0.0,30.0,11.0,0.0
5767,81.0,2.0,15.0,8.0,0.0
5768,69.0,2.0,30.0,10.0,0.0
5769,64.0,0.0,15.0,11.0,0.0
5770,57.0,26.0,15.0,11.0,0.0
5771,55.0,0.0,30.0,11.0,0.0
5772,93.0,0.0,15.0,0.0,0.0
5773,96.0,1.0,600.0,0.0,0.0
5774,62.0,0.0,60.0,5.0,0.0
5775,90.0,0.0,600.0,1.0,0.0
5776,81.0,1.0,15.0,1.0,0.0
5777,78.0,0.0,600.0,2.0,0.0
5778,69.0,0.0,15.0,2.0,0.0
5779,69.0,0.0,600.0,4.0,0.0
5780,62.0,0.0,600.0,4.0,0.0
5781,60.0,2.0,30.0,11.0,0.0
5782,57.0,0.0,30.0,11.0,0.0
5783,50.0,1.0,60.0,12.0,0.0
5784,50.0,9.0,15.0,6.0,0.0
5785,62.0,0.0,600.0,3.0,0.0
5786,50.0,0.0,600.0,3.0,0.0
5787,38.0,8.0,60.0,13.0,0.0
5788,49.0,14.0,15.0,6.0,0.0
5789,84.0,2.0,15.0,8.0,0.0
5790,62.0,2.0,15.0,10.0,0.0
5791,72.0,0.0,15.0,10.0,0.0
5792,60.0,2.0,30.0,11.0,0.0
5793,57.0,0.0,30.0,11.0,0.0
5794,50.0,1.0,15.0,6.0,0.0
5795,49.0,15.0,15.0,6.0,0.0
5796,84.0,2.0,30.0,8.0,0.0
5797,74.0,1.0,15.0,5.0,0.0
5798,72.0,2.0,15.0,10.0,0.0
5799,62.0,0.0,15.0,10.0,0.0
5800,60.0,2.0,30.0,11.0,0.0
5801,57.0,0.0,30.0,11.0,0.0
5802,50.0,1.0,60.0,12.0,0.0
5803,50.0,9.0,15.0,6.0,0.0
5804,38.0,8.0,60.0,13.0,0.0
5805,49.0,14.0,15.0,6.0,0.0
5806,84.0,1.0,30.0,8.0,0.0
5807,72.0,2.0,15.0,10.0,0.0
5808,57.0,0.0,30.0,11.0,0.0
5809,50.0,1.0,15.0,6.0,0.0
5810,49.0,15.0,15.0,6.0,0.0
5811,84.0,2.0,30.0,8.0,0.0
5812,74.0,1.0,15.0,5.0,0.0
5813,62.0,0.0,15.0,5.0,0.0
5814,62.0,0.0,15.0,10.0,0.0
5815,72.0,0.0,30.0,10.0,0.0
5816,60.0,2.0,15.0,11.0,0.0
5817,54.0,1.0,60.0,12.0,0.0
5818,50.0,9.0,15.0,6.0,0.0
5819,42.0,8.0,60.0,13.0,0.0
5820,49.0,14.0,15.0,6.0,0.0
5821,62.0,0.0,30.0,10.0,0.0
5822,60.0,2.0,15.0,11.0,0.0
5823,57.0,0.0,15.0,11.0,0.0
5824,50.0,1.0,15.0,6.0,0.0
5825,49.0,15.0,15.0,6.0,0.0
5826,84.0,1.0,15.0,8.0,0.0
5827,74.0,1.0,15.0,5.0,0.0
5828,62.0,0.0,15.0,5.0,0.0
5829,72.0,2.0,15.0,10.0,0.0
5830,57.0,2.0,15.0,11.0,0.0
5831,60.0,0.0,15.0,11.0,0.0
5832,57.0,1.0,60.0,12.0,0.0
5833,50.0,9.0,15.0,6.0,0.0
5834,45.0,8.0,60.0,13.0,0.0
5835,49.0,14.0,15.0,6.0,0.0
5836,84.0,2.0,15.0,8.0,0.0
5837,62.0,2.0,15.0,10.0,0.0
5838,57.0,0.0,15.0,11.0,0.0
5839,60.0,0.0,30.0,11.0,0.0
5840,50.0,1.0,15.0,6.0,0.0
5841,49.0,15.0,15.0,6.0,0.0
5842,62.0,0.0,15.0,5.0,0.0
5843,74.0,1.0,15.0,5.0,0.0
5844,72.0,0.0,15.0,10.0,0.0
5845,57.0,2.0,15.0,11.0,0.0
5846,60.0,0.0,30.0,11.0,0.0
5847,62.0,1.0,60.0,12.0,0.0
5848,50.0,9.0,15.0,6.0,0.0
5849,50.0,8.0,60.0,13.0,0.0
5850,49.0,14.0,15.0,6.0,0.0
5851,84.0,2.0,15.0,8.0,0.0
5852,72.0,2.0,15.0,10.0,0.0
5853,62.0,0.0,15.0,10.0,0.0
5854,57.0,2.0,30.0,11.0,0.0
5855,60.0,0.0,30.0,11.0,0.0
5856,50.0,1.0,15.0,6.0,0.0
5857,49.0,15.0,15.0,6.0,0.0
5858,84.0,2.0,30.0,8.0,0.0
5859,62.0,1.0,15.0,5.0,0.0
5860,57.0,0.0,30.0,11.0,0.0
5861,66.0,1.0,60.0,12.0,0.0
5862,50.0,9.0,15.0,6.0,0.0
5863,54.0,8.0,60.0,13.0,0.0
5864,49.0,14.0,15.0,6.0,0.0
5865,72.0,0.0,15.0,10.0,0.0
5866,62.0,2.0,15.0,10.0,0.0
5867,60.0,2.0,15.0,11.0,0.0
5868,50.0,1.0,15.0,6.0,0.0
5869,49.0,15.0,15.0,6.0,0.0
5870,84.0,1.0,15.0,8.0,0.0
5871,74.0,1.0,15.0,5.0,0.0
5872,62.0,0.0,15.0,5.0,0.0
5873,57.0,0.0,15.0,11.0,0.0
5874,69.0,1.0,60.0,12.0,0.0
5875,50.0,9.0,15.0,6.0,0.0
5876,57.0,8.0,60.0,13.0,0.0
5877,49.0,14.0,15.0,6.0,0.0
5878,84.0,2.0,15.0,8.0,0.0
5879,72.0,2.0,15.0,10.0,0.0
5880,62.0,0.0,15.0,10.0,0.0
5881,57.0,0.0,15.0,11.0,0.0
5882,60.0,2.0,15.0,11.0,0.0
5883,50.0,1.0,15.0,6.0,0.0
5884,49.0,15.0,15.0,6.0,0.0
5885,84.0,1.0,15.0,8.0,0.0
5886,72.0,2.0,15.0,10.0,0.0
5887,62.0,2.0,30.0,10.0,0.0
5888,60.0,2.0,30.0,11.0,0.0
5889,57.0,0.0,30.0,11.0,0.0
5890,72.0,1.0,60.0,12.0,0.0
5891,50.0,9.0,15.0,6.0,0.0
5892,60.0,8.0,60.0,13.0,0.0
5893,49.0,14.0,15.0,6.0,0.0
5894,62.0,2.0,30.0,10.0,0.0
5895,72.0,0.0,30.0,10.0,0.0
5896,57.0,2.0,30.0,11.0,0.0
5897,50.0,1.0,15.0,6.0,0.0
5898,49.0,28.0,15.0,6.0,0.0
5899,84.0,1.0,15.0,8.0,0.0
5900,74.0,1.0,15.0,5.0,0.0
5901,62.0,0.0,15.0,5.0,0.0
5902,62.0,0.0,120.0,10.0,0.0
5903,72.0,0.0,120.0,10.0,0.0
5904,60.0,0.0,15.0,11.0,0.0
5905,57.0,0.0,30.0,11.0,0.0
5906,50.0,1.0,120.0,12.0,0.0
5907,50.0,1.0,120.0,6.0,0.0
5908,38.0,27.0,120.0,13.0,0.0
5909,60.0,30.0,30.0,11.0,0.0
5910,57.0,0.0,30.0,11.0,0.0
5911,60.0,26.0,30.0,11.0,0.0
5912,57.0,0.0,15.0,11.0,0.0
5913,81.0,2.0,120.0,8.0,0.0
5914,69.0,2.0,120.0,10.0,0.0
5915,60.0,0.0,15.0,11.0,0.0
5916,57.0,0.0,30.0,11.0,0.0
5917,57.0,0.0,15.0,11.0,0.0
5918,60.0,30.0,15.0,11.0,0.0
5919,57.0,0.0,30.0,11.0,0.0
5920,60.0,30.0,30.0,11.0,0.0
5921,79.0,2.0,120.0,8.0,0.0
5922,67.0,2.0,120.0,10.0,0.0
5923,60.0,30.0,15.0,11.0,0.0
5924,57.0,0.0,15.0,11.0,0.0
5925,60.0,26.0,15.0,11.0,0.0
5926,57.0,0.0,15.0,11.0,0.0
5927,93.0,0.0,90.0,0.0,0.0
5928,96.0,1.0,90.0,0.0,0.0
5929,78.0,0.0,120.0,8.0,0.0
5930,72.0,0.0,90.0,2.0,0.0
5931,66.0,0.0,120.0,10.0,0.0
5932,57.0,0.0,15.0,11.0,0.0
5933,50.0,0.0,90.0,6.0,0.0
5934,50.0,0.0,90.0,3.0,0.0
5935,57.0,0.0,15.0,11.0,0.0
5936,60.0,30.0,15.0,11.0,0.0
5937,60.0,0.0,15.0,11.0,0.0
5938,57.0,0.0,30.0,11.0,0.0
5939,74.0,0.0,15.0,5.0,0.0
5940,62.0,1.0,15.0,5.0,0.0
5941,84.0,0.0,15.0,1.0,0.0
5942,81.0,0.0,15.0,1.0,0.0
5943,69.0,0.0,15.0,4.0,0.0
5944,62.0,0.0,15.0,4.0,0.0
5945,69.0,2.0,15.0,2.0,0.0
5946,60.0,1.0,15.0,11.0,0.0
5947,50.0,1.0,15.0,12.0,0.0
5948,62.0,1.0,15.0,3.0,0.0
5949,38.0,23.0,15.0,13.0,0.0
5950,93.0,0.0,15.0,0.0,0.0
5951,81.0,1.0,120.0,8.0,0.0
5952,96.0,1.0,15.0,0.0,0.0
5953,84.0,0.0,15.0,1.0,0.0
5954,81.0,0.0,15.0,1.0,0.0
5955,62.0,0.0,120.0,5.0,0.0
5956,74.0,1.0,120.0,5.0,0.0
5957,69.0,2.0,15.0,2.0,0.0
5958,62.0,0.0,15.0,4.0,0.0
5959,69.0,0.0,120.0,10.0,0.0
5960,72.0,0.0,15.0,2.0,0.0
5961,69.0,0.0,120.0,4.0,0.0
5962,57.0,0.0,15.0,11.0,0.0
5963,60.0,1.0,15.0,11.0,0.0
5964,50.0,1.0,120.0,12.0,0.0
5965,50.0,0.0,15.0,6.0,0.0
5966,62.0,1.0,120.0,3.0,0.0
5967,50.0,1.0,15.0,3.0,0.0
5968,38.0,27.0,15.0,13.0,0.0
5969,57.0,0.0,15.0,11.0,0.0
5970,57.0,30.0,15.0,11.0,0.0
5971,60.0,0.0,15.0,11.0,0.0
5972,57.0,26.0,15.0,11.0,0.0
5973,60.0,1.0,30.0,11.0,0.0
5974,78.0,2.0,120.0,8.0,0.0
5975,66.0,2.0,120.0,10.0,0.0
5976,60.0,30.0,30.0,11.0,0.0
5977,57.0,0.0,30.0,11.0,0.0
5978,60.0,0.0,30.0,11.0,0.0
5979,57.0,30.0,30.0,11.0,0.0
5980,57.0,0.0,15.0,11.0,0.0
5981,60.0,26.0,15.0,11.0,0.0
5982,76.0,2.0,120.0,8.0,0.0
5983,64.0,2.0,120.0,10.0,0.0
5984,60.0,30.0,30.0,11.0,0.0
5985,57.0,0.0,30.0,11.0,0.0
5986,57.0,30.0,15.0,11.0,0.0
5987,60.0,0.0,15.0,11.0,0.0
5988,57.0,26.0,15.0,11.0,0.0
5989,60.0,0.0,15.0,11.0,0.0
5990,74.0,0.0,120.0,8.0,0.0
5991,62.0,0.0,120.0,10.0,0.0
5992,69.0,0.0,90.0,2.0,0.0
5993,72.0,0.0,90.0,2.0,0.0
5994,57.0,30.0,15.0,11.0,0.0
5995,50.0,1.0,90.0,12.0,0.0
5996,50.0,0.0,90.0,6.0,0.0
5997,62.0,0.0,90.0,3.0,0.0
5998,60.0,0.0,15.0,11.0,0.0
5999,57.0,0.0,30.0,11.0,0.0
6000,60.0,1.0,30.0,11.0,0.0
6001,57.0,0.0,30.0,11.0,0.0
6002,96.0,0.0,15.0,0.0,0.0
6003,93.0,1.0,15.0,0.0,0.0
6004,62.0,0.0,15.0,5.0,0.0
6005,74.0,0.0,15.0,5.0,0.0
6006,81.0,1.0,15.0,1.0,0.0
6007,84.0,0.0,15.0,1.0,0.0
6008,69.0,0.0,15.0,4.0,0.0
6009,62.0,2.0,15.0,4.0,0.0
6010,72.0,0.0,30.0,2.0,0.0
6011,69.0,0.0,30.0,2.0,0.0
6012,57.0,1.0,30.0,11.0,0.0
6013,60.0,0.0,30.0,11.0,0.0
6014,50.0,1.0,30.0,12.0,0.0
6015,50.0,1.0,30.0,6.0,0.0
6016,50.0,1.0,15.0,3.0,0.0
6017,38.0,23.0,15.0,13.0,0.0
6018,76.0,0.0,120.0,8.0,0.0
6019,93.0,1.0,120.0,0.0,0.0
6020,96.0,1.0,15.0,0.0,0.0
6021,84.0,0.0,15.0,1.0,0.0
6022,81.0,0.0,120.0,1.0,0.0
6023,64.0,0.0,120.0,10.0,0.0
6024,62.0,2.0,15.0,4.0,0.0
6025,69.0,2.0,120.0,2.0,0.0
6026,69.0,0.0,120.0,4.0,0.0
6027,72.0,0.0,120.0,2.0,0.0
6028,54.0,40.0,30.0,11.0,0.0
6029,50.0,1.0,120.0,12.0,0.0
6030,62.0,0.0,15.0,3.0,0.0
6031,50.0,1.0,120.0,3.0,0.0
6032,38.0,37.0,15.0,13.0,0.0
6033,57.0,0.0,15.0,11.0,0.0
6034,62.0,0.0,15.0,11.0,0.0
6035,57.0,0.0,30.0,11.0,0.0
6036,72.0,2.0,120.0,8.0,0.0
6037,60.0,2.0,120.0,10.0,0.0
6038,54.0,40.0,30.0,11.0,0.0
6039,57.0,0.0,30.0,11.0,0.0
6040,62.0,36.0,30.0,11.0,0.0
6041,57.0,0.0,30.0,11.0,0.0
6042,57.0,40.0,30.0,11.0,0.0
6043,62.0,0.0,30.0,11.0,0.0
6044,71.0,2.0,120.0,8.0,0.0
6045,59.0,2.0,120.0,10.0,0.0
6046,54.0,40.0,30.0,11.0,0.0
6047,57.0,0.0,15.0,11.0,0.0
6048,57.0,0.0,15.0,11.0,0.0
6049,62.0,36.0,15.0,11.0,0.0
6050,69.0,2.0,120.0,8.0,0.0
6051,60.0,2.0,120.0,10.0,0.0
6052,54.0,40.0,30.0,11.0,0.0
6053,57.0,40.0,15.0,11.0,0.0
6054,50.0,2.0,90.0,12.0,0.0
6055,38.0,23.0,90.0,13.0,0.0
6056,57.0,0.0,15.0,11.0,0.0
6057,62.0,11.0,15.0,11.0,0.0
6058,50.0,2.0,30.0,12.0,0.0
6059,72.0,4.0,120.0,8.0,0.0
6060,57.0,0.0,15.0,11.0,0.0
6061,54.0,0.0,30.0,11.0,0.0
6062,50.0,2.0,120.0,12.0,0.0
6063,38.0,37.0,15.0,13.0,0.0
6064,57.0,40.0,15.0,11.0,0.0
6065,60.0,36.0,30.0,11.0,0.0
6066,60.0,1.0,30.0,11.0,0.0
6067,69.0,4.0,120.0,8.0,0.0
6068,57.0,0.0,15.0,11.0,0.0
6069,54.0,0.0,30.0,11.0,0.0
6070,57.0,40.0,15.0,11.0,0.0
6071,57.0,0.0,15.0,11.0,0.0
6072,60.0,36.0,15.0,11.0,0.0
6073,76.0,2.0,120.0,8.0,0.0
6074,72.0,0.0,120.0,10.0,0.0
6075,62.0,2.0,120.0,10.0,0.0
6076,57.0,40.0,30.0,11.0,0.0
6077,54.0,0.0,30.0,11.0,0.0
6078,50.0,2.0,120.0,12.0,0.0
6079,38.0,37.0,120.0,13.0,0.0
6080,57.0,0.0,30.0,11.0,0.0
6081,60.0,36.0,15.0,11.0,0.0
6082,74.0,2.0,120.0,2.0,0.0
6083,57.0,1.0,15.0,11.0,0.0
6084,54.0,0.0,30.0,11.0,0.0
6085,57.0,40.0,15.0,11.0,0.0
6086,60.0,0.0,15.0,11.0,0.0
6087,57.0,0.0,30.0,11.0,0.0
6088,86.0,2.0,15.0,0.0,0.0
6089,74.0,0.0,15.0,8.0,0.0
6090,83.0,1.0,360.0,1.0,0.0
6091,71.0,2.0,360.0,2.0,0.0
6092,74.0,0.0,360.0,2.0,0.0
6093,62.0,0.0,120.0,10.0,0.0
6094,71.0,2.0,120.0,10.0,0.0
6095,55.0,21.0,30.0,11.0,0.0
6096,59.0,0.0,30.0,11.0,0.0
6097,43.0,2.0,60.0,12.0,0.0
6098,62.0,38.0,15.0,3.0,0.0
6099,59.0,1.0,360.0,3.0,0.0
6100,43.0,17.0,60.0,13.0,0.0
6101,45.0,2.0,20.0,12.0,0.0
6102,45.0,18.0,20.0,13.0,0.0
6103,59.0,1.0,15.0,11.0,0.0
6104,62.0,0.0,15.0,11.0,0.0
6105,43.0,2.0,20.0,12.0,0.0
6106,43.0,15.0,20.0,13.0,0.0
6107,42.0,2.0,20.0,12.0,0.0
6108,42.0,37.0,20.0,13.0,0.0
6109,59.0,1.0,15.0,11.0,0.0
6110,55.0,6.0,30.0,11.0,0.0
6111,43.0,2.0,60.0,12.0,0.0
6112,43.0,32.0,60.0,13.0,0.0
6113,62.0,0.0,30.0,11.0,0.0
6114,59.0,26.0,30.0,11.0,0.0
6115,45.0,2.0,60.0,12.0,0.0
6116,45.0,12.0,60.0,13.0,0.0
6117,62.0,40.0,30.0,11.0,0.0
6118,59.0,0.0,15.0,11.0,0.0
6119,55.0,40.0,30.0,11.0,0.0
6120,43.0,1.0,120.0,12.0,0.0
6121,43.0,37.0,120.0,13.0,0.0
6122,59.0,0.0,15.0,11.0,0.0
6123,62.0,0.0,30.0,11.0,0.0
6124,62.0,0.0,30.0,11.0,0.0
6125,59.0,36.0,15.0,11.0,0.0
6126,71.0,4.0,120.0,8.0,0.0
6127,59.0,1.0,15.0,11.0,0.0
6128,55.0,40.0,30.0,11.0,0.0
6129,62.0,36.0,30.0,11.0,0.0
6130,59.0,0.0,30.0,11.0,0.0
6131,62.0,40.0,30.0,11.0,0.0
6132,59.0,0.0,30.0,11.0,0.0
6133,72.0,24.0,60.0,8.0,0.0
6134,54.0,16.0,30.0,11.0,0.0
6135,57.0,0.0,30.0,11.0,0.0
6136,50.0,2.0,120.0,12.0,0.0
6137,38.0,37.0,120.0,13.0,0.0
6138,69.0,4.0,60.0,8.0,0.0
6139,60.0,0.0,15.0,11.0,0.0
6140,57.0,36.0,15.0,11.0,0.0
6141,68.0,24.0,60.0,8.0,0.0
6142,54.0,16.0,30.0,11.0,0.0
6143,57.0,0.0,30.0,11.0,0.0
6144,60.0,36.0,30.0,11.0,0.0
6145,57.0,0.0,30.0,11.0,0.0
6146,69.0,4.0,60.0,8.0,0.0
6147,60.0,40.0,30.0,11.0,0.0
6148,57.0,0.0,30.0,11.0,0.0
6149,72.0,24.0,60.0,8.0,0.0
6150,72.0,2.0,120.0,10.0,0.0
6151,62.0,0.0,120.0,10.0,0.0
6152,54.0,16.0,30.0,11.0,0.0
6153,57.0,0.0,30.0,11.0,0.0
6154,50.0,2.0,120.0,12.0,0.0
6155,38.0,37.0,120.0,13.0,0.0
6156,60.0,36.0,30.0,11.0,0.0
6157,57.0,0.0,30.0,11.0,0.0
6158,69.0,2.0,60.0,8.0,0.0
6159,60.0,1.0,30.0,11.0,0.0
6160,57.0,0.0,30.0,11.0,0.0
6161,76.0,0.0,60.0,8.0,0.0
6162,88.0,2.0,60.0,0.0,0.0
6163,76.0,4.0,60.0,2.0,0.0
6164,57.0,16.0,30.0,11.0,0.0
6165,54.0,0.0,30.0,11.0,0.0
6166,64.0,18.0,60.0,3.0,0.0
6167,86.0,2.0,60.0,0.0,0.0
6168,74.0,2.0,60.0,2.0,0.0
6169,60.0,0.0,15.0,11.0,0.0
6170,57.0,36.0,15.0,11.0,0.0
6171,74.0,0.0,15.0,8.0,0.0
6172,86.0,1.0,360.0,0.0,0.0
6173,83.0,1.0,360.0,1.0,0.0
6174,71.0,2.0,360.0,2.0,0.0
6175,62.0,2.0,120.0,10.0,0.0
6176,71.0,0.0,120.0,10.0,0.0
6177,74.0,0.0,360.0,2.0,0.0
6178,55.0,21.0,30.0,11.0,0.0
6179,43.0,2.0,60.0,12.0,0.0
6180,59.0,1.0,360.0,3.0,0.0
6181,62.0,38.0,15.0,3.0,0.0
6182,43.0,17.0,60.0,13.0,0.0
6183,59.0,0.0,15.0,11.0,0.0
6184,45.0,2.0,20.0,12.0,0.0
6185,45.0,18.0,20.0,13.0,0.0
6186,62.0,1.0,15.0,11.0,0.0
6187,59.0,0.0,30.0,11.0,0.0
6188,43.0,2.0,20.0,12.0,0.0
6189,43.0,15.0,20.0,13.0,0.0
6190,42.0,2.0,20.0,12.0,0.0
6191,42.0,37.0,20.0,13.0,0.0
6192,59.0,0.0,30.0,11.0,0.0
6193,55.0,6.0,30.0,11.0,0.0
6194,43.0,2.0,60.0,12.0,0.0
6195,43.0,32.0,60.0,13.0,0.0
6196,62.0,0.0,30.0,11.0,0.0
6197,59.0,26.0,30.0,11.0,0.0
6198,45.0,2.0,60.0,12.0,0.0
6199,45.0,12.0,60.0,13.0,0.0
6200,62.0,40.0,30.0,11.0,0.0
6201,59.0,0.0,15.0,11.0,0.0
6202,55.0,40.0,30.0,11.0,0.0
6203,43.0,1.0,120.0,12.0,0.0
6204,43.0,37.0,120.0,13.0,0.0
6205,59.0,36.0,15.0,11.0,0.0
6206,62.0,0.0,15.0,11.0,0.0
6207,71.0,4.0,120.0,8.0,0.0
6208,55.0,0.0,30.0,11.0,0.0
6209,59.0,40.0,15.0,11.0,0.0
6210,62.0,0.0,30.0,11.0,0.0
6211,62.0,40.0,30.0,11.0,0.0
6212,59.0,36.0,15.0,11.0,0.0
6213,72.0,24.0,60.0,8.0,0.0
6214,54.0,16.0,30.0,11.0,0.0
6215,50.0,2.0,120.0,12.0,0.0
6216,38.0,37.0,120.0,13.0,0.0
6217,60.0,36.0,30.0,11.0,0.0
6218,57.0,0.0,15.0,11.0,0.0
6219,69.0,4.0,60.0,8.0,0.0
6220,60.0,0.0,30.0,11.0,0.0
6221,68.0,24.0,60.0,8.0,0.0
6222,57.0,1.0,15.0,11.0,0.0
6223,54.0,0.0,30.0,11.0,0.0
6224,60.0,36.0,30.0,11.0,0.0
6225,57.0,16.0,15.0,11.0,0.0
6226,69.0,4.0,60.0,8.0,0.0
6227,60.0,0.0,30.0,11.0,0.0
6228,72.0,24.0,60.0,8.0,0.0
6229,54.0,0.0,30.0,11.0,0.0
6230,57.0,40.0,15.0,11.0,0.0
6231,38.0,83.0,120.0,13.0,0.0
6232,60.0,36.0,30.0,11.0,0.0
6233,57.0,16.0,15.0,11.0,0.0
6234,69.0,4.0,60.0,8.0,0.0
6235,57.0,0.0,30.0,11.0,0.0
6236,81.0,0.0,90.0,0.0,0.0
6237,60.0,1.0,15.0,11.0,0.0
6238,50.0,2.0,15.0,12.0,0.0
6239,57.0,0.0,90.0,3.0,0.0
6240,60.0,0.0,90.0,3.0,0.0
6241,90.0,0.0,15.0,0.0,0.0
6242,81.0,0.0,30.0,0.0,0.0
6243,78.0,1.0,15.0,8.0,0.0
6244,78.0,0.0,15.0,1.0,0.0
6245,81.0,0.0,15.0,1.0,0.0
6246,74.0,1.0,15.0,5.0,0.0
6247,62.0,0.0,15.0,5.0,0.0
6248,78.0,0.0,15.0,2.0,0.0
6249,69.0,0.0,15.0,2.0,0.0
6250,69.0,0.0,15.0,10.0,0.0
6251,50.0,0.0,15.0,4.0,0.0
6252,62.0,2.0,15.0,4.0,0.0
6253,60.0,1.0,30.0,11.0,0.0
6254,52.0,1.0,30.0,12.0,0.0
6255,60.0,0.0,30.0,3.0,0.0
6256,50.0,1.0,15.0,6.0,0.0
6257,57.0,1.0,30.0,3.0,0.0
6258,38.0,23.0,15.0,13.0,0.0
6259,90.0,0.0,15.0,0.0,0.0
6260,78.0,0.0,120.0,8.0,0.0
6261,81.0,0.0,120.0,0.0,0.0
6262,74.0,0.0,15.0,5.0,0.0
6263,62.0,1.0,15.0,5.0,0.0
6264,81.0,0.0,120.0,1.0,0.0
6265,78.0,0.0,120.0,1.0,0.0
6266,50.0,0.0,15.0,4.0,0.0
6267,69.0,0.0,120.0,10.0,0.0
6268,62.0,2.0,15.0,4.0,0.0
6269,78.0,2.0,120.0,2.0,0.0
6270,69.0,0.0,120.0,2.0,0.0
6271,60.0,1.0,120.0,11.0,0.0
6272,50.0,1.0,120.0,12.0,0.0
6273,50.0,0.0,15.0,6.0,0.0
6274,57.0,0.0,120.0,3.0,0.0
6275,60.0,0.0,120.0,3.0,0.0
6276,38.0,323.0,120.0,13.0,0.0
6277,90.0,0.0,90.0,1.0,0.0
6278,81.0,0.0,90.0,1.0,0.0
6279,69.0,0.0,90.0,4.0,0.0
6280,66.0,1.0,90.0,11.0,0.0
6281,60.0,0.0,90.0,3.0,0.0
6282,57.0,0.0,90.0,3.0,0.0
6283,50.0,1.0,90.0,6.0,0.0
6284,93.0,0.0,15.0,0.0,0.0
6285,90.0,0.0,15.0,0.0,0.0
6286,81.0,1.0,15.0,8.0,0.0
6287,62.0,0.0,15.0,5.0,0.0
6288,74.0,1.0,15.0,5.0,0.0
6289,90.0,0.0,30.0,1.0,0.0
6290,81.0,0.0,15.0,2.0,0.0
6291,78.0,0.0,15.0,2.0,0.0
6292,72.0,0.0,15.0,10.0,0.0
6293,62.0,2.0,15.0,4.0,0.0
6294,69.0,0.0,30.0,4.0,0.0
6295,50.0,1.0,15.0,12.0,0.0
6296,57.0,0.0,30.0,3.0,0.0
6297,60.0,0.0,30.0,3.0,0.0
6298,38.0,23.0,15.0,13.0,0.0
6299,81.0,0.0,15.0,8.0,0.0
6300,90.0,0.0,120.0,0.0,0.0
6301,93.0,1.0,15.0,0.0,0.0
6302,81.0,1.0,15.0,1.0,0.0
6303,62.0,0.0,120.0,5.0,0.0
6304,90.0,1.0,120.0,1.0,0.0
6305,74.0,0.0,120.0,5.0,0.0
6306,81.0,2.0,15.0,2.0,0.0
6307,78.0,0.0,15.0,2.0,0.0
6308,72.0,0.0,15.0,10.0,0.0
6309,69.0,0.0,120.0,4.0,0.0
6310,62.0,0.0,120.0,4.0,0.0
6311,66.0,1.0,15.0,11.0,0.0
6312,50.0,1.0,15.0,12.0,0.0
6313,50.0,1.0,15.0,6.0,0.0
6314,57.0,0.0,120.0,3.0,0.0
6315,60.0,0.0,120.0,3.0,0.0
6316,38.0,324.0,120.0,13.0,0.0
6317,78.0,0.0,90.0,1.0,0.0
6318,69.0,29.0,90.0,4.0,0.0
6319,84.0,1.0,15.0,1.0,0.0
6320,78.0,1.0,30.0,1.0,0.0
6321,50.0,0.0,15.0,4.0,0.0
6322,78.0,1.0,120.0,1.0,0.0
6323,84.0,0.0,120.0,1.0,0.0
6324,69.0,119.0,15.0,4.0,0.0
6325,50.0,0.0,15.0,4.0,0.0
6326,78.0,0.0,90.0,1.0,0.0
6327,69.0,89.0,15.0,4.0,0.0
6328,50.0,0.0,15.0,4.0,0.0
6329,84.0,1.0,15.0,1.0,0.0
6330,78.0,0.0,30.0,1.0,0.0
6331,84.0,0.0,120.0,1.0,0.0
6332,50.0,0.0,15.0,4.0,0.0
6333,69.0,119.0,15.0,4.0,0.0
6334,78.0,1.0,15.0,1.0,0.0
6335,84.0,1.0,90.0,1.0,0.0
6336,50.0,89.0,15.0,4.0,0.0
6337,78.0,0.0,30.0,1.0,0.0
6338,84.0,1.0,30.0,1.0,0.0
6339,69.0,0.0,15.0,4.0,0.0
6340,50.0,4.0,15.0,4.0,0.0
6341,63.0,25.0,15.0,3.0,0.0
6342,50.0,4.0,15.0,4.0,0.0
6343,78.0,1.0,15.0,1.0,0.0
6344,84.0,0.0,15.0,1.0,0.0
6345,50.0,0.0,15.0,4.0,0.0
6346,69.0,4.0,15.0,4.0,0.0
6347,63.0,84.0,15.0,3.0,0.0
6348,60.0,24.0,90.0,3.0,0.0
6349,90.0,1.0,15.0,0.0,0.0
6350,78.0,0.0,15.0,1.0,0.0
6351,84.0,0.0,30.0,1.0,0.0
6352,50.0,4.0,15.0,4.0,0.0
6353,69.0,0.0,30.0,4.0,0.0
6354,63.0,0.0,30.0,3.0,0.0
6355,90.0,1.0,15.0,0.0,0.0
6356,78.0,1.0,15.0,1.0,0.0
6357,84.0,0.0,120.0,1.0,0.0
6358,50.0,0.0,120.0,4.0,0.0
6359,60.0,114.0,15.0,3.0,0.0
6360,78.0,0.0,90.0,1.0,0.0
6361,69.0,4.0,15.0,4.0,0.0
6362,50.0,0.0,90.0,4.0,0.0
6363,60.0,0.0,15.0,3.0,0.0
6364,63.0,84.0,15.0,3.0,0.0
6365,90.0,1.0,15.0,0.0,0.0
6366,84.0,1.0,15.0,1.0,0.0
6367,72.0,0.0,15.0,2.0,0.0
6368,75.0,4.0,15.0,2.0,0.0
6369,63.0,0.0,15.0,3.0,0.0
6370,60.0,24.0,15.0,3.0,0.0
6371,66.0,30.0,30.0,7.0,0.0
6372,72.0,0.0,120.0,8.0,0.0
6373,90.0,1.0,15.0,0.0,0.0
6374,78.0,0.0,15.0,1.0,0.0
6375,84.0,1.0,15.0,1.0,0.0
6376,72.0,4.0,15.0,2.0,0.0
6377,69.0,0.0,15.0,4.0,0.0
6378,50.0,0.0,15.0,4.0,0.0
6379,69.0,0.0,120.0,10.0,0.0
6380,75.0,0.0,60.0,2.0,0.0
6381,63.0,1.0,120.0,11.0,0.0
6382,50.0,1.0,120.0,12.0,0.0
6383,60.0,0.0,15.0,3.0,0.0
6384,63.0,24.0,15.0,3.0,0.0
6385,38.0,23.0,120.0,13.0,0.0
6386,67.0,0.0,30.0,7.0,0.0
6387,68.0,30.0,30.0,7.0,0.0
6388,90.0,1.0,15.0,0.0,0.0
6389,84.0,1.0,15.0,1.0,0.0
6390,78.0,0.0,15.0,1.0,0.0
6391,72.0,0.0,15.0,2.0,0.0
6392,69.0,0.0,15.0,4.0,0.0
6393,50.0,4.0,15.0,4.0,0.0
6394,63.0,1.0,60.0,3.0,0.0
6395,69.0,0.0,30.0,7.0,0.0
6396,90.0,1.0,15.0,0.0,0.0
6397,70.0,30.0,30.0,7.0,0.0
6398,75.0,0.0,15.0,2.0,0.0
6399,72.0,0.0,15.0,2.0,0.0
6400,69.0,2.0,15.0,4.0,0.0
6401,50.0,0.0,15.0,4.0,0.0
6402,60.0,0.0,15.0,3.0,0.0
6403,63.0,24.0,60.0,3.0,0.0
6404,71.0,1.0,30.0,7.0,0.0
6405,72.0,30.0,30.0,7.0,0.0
6406,90.0,0.0,15.0,0.0,0.0
6407,84.0,0.0,15.0,1.0,0.0
6408,78.0,1.0,15.0,1.0,0.0
6409,50.0,4.0,60.0,4.0,0.0
6410,69.0,0.0,60.0,4.0,0.0
6411,75.0,0.0,60.0,2.0,0.0
6412,72.0,0.0,60.0,2.0,0.0
6413,73.0,0.0,30.0,7.0,0.0
6414,74.0,30.0,30.0,7.0,0.0
6415,90.0,1.0,15.0,0.0,0.0
6416,84.0,1.0,15.0,1.0,0.0
6417,78.0,1.0,60.0,1.0,0.0
6418,72.0,0.0,60.0,2.0,0.0
6419,60.0,24.0,15.0,3.0,0.0
6420,63.0,0.0,15.0,3.0,0.0
6421,75.0,0.0,30.0,7.0,0.0
6422,90.0,1.0,15.0,0.0,0.0
6423,76.0,30.0,30.0,7.0,0.0
6424,69.0,0.0,15.0,4.0,0.0
6425,75.0,0.0,15.0,2.0,0.0
6426,72.0,0.0,60.0,2.0,0.0
6427,50.0,4.0,15.0,4.0,0.0
6428,60.0,0.0,60.0,3.0,0.0
6429,77.0,1.0,30.0,7.0,0.0
6430,78.0,30.0,30.0,7.0,0.0
6431,90.0,0.0,60.0,0.0,0.0
6432,84.0,0.0,15.0,1.0,0.0
6433,78.0,1.0,15.0,1.0,0.0
6434,50.0,0.0,15.0,4.0,0.0
6435,69.0,4.0,15.0,4.0,0.0
6436,75.0,0.0,60.0,2.0,0.0
6437,72.0,0.0,60.0,2.0,0.0
6438,63.0,24.0,15.0,3.0,0.0
6439,79.0,1.0,30.0,7.0,0.0
6440,80.0,30.0,30.0,7.0,0.0
6441,78.0,0.0,15.0,1.0,0.0
6442,84.0,1.0,15.0,1.0,0.0
6443,69.0,4.0,60.0,4.0,0.0
6444,50.0,4.0,15.0,4.0,0.0
6445,63.0,24.0,60.0,3.0,0.0
6446,60.0,24.0,15.0,3.0,0.0
6447,81.0,1.0,30.0,7.0,0.0
6448,90.0,0.0,15.0,0.0,0.0
6449,82.0,30.0,30.0,7.0,0.0
6450,75.0,0.0,15.0,2.0,0.0
6451,72.0,0.0,15.0,2.0,0.0
6452,69.0,0.0,60.0,4.0,0.0
6453,50.0,0.0,60.0,4.0,0.0
6454,83.0,1.0,30.0,7.0,0.0
6455,90.0,0.0,60.0,0.0,0.0
6456,84.0,30.0,30.0,7.0,0.0
6457,78.0,0.0,15.0,1.0,0.0
6458,84.0,1.0,15.0,1.0,0.0
6459,72.0,4.0,15.0,2.0,0.0
6460,75.0,0.0,60.0,2.0,0.0
6461,63.0,0.0,15.0,3.0,0.0
6462,60.0,24.0,15.0,3.0,0.0
6463,85.0,1.0,30.0,7.0,0.0
6464,86.0,30.0,30.0,7.0,0.0
6465,72.0,4.0,15.0,2.0,0.0
6466,69.0,0.0,15.0,4.0,0.0
6467,50.0,0.0,15.0,4.0,0.0
6468,87.0,0.0,30.0,7.0,0.0
6469,90.0,1.0,15.0,0.0,0.0
6470,88.0,30.0,30.0,7.0,0.0
6471,84.0,1.0,15.0,1.0,0.0
6472,78.0,0.0,15.0,1.0,0.0
6473,75.0,0.0,15.0,2.0,0.0
6474,69.0,4.0,15.0,4.0,0.0
6475,50.0,0.0,15.0,4.0,0.0
6476,72.0,0.0,60.0,2.0,0.0
6477,60.0,24.0,15.0,3.0,0.0
6478,63.0,0.0,15.0,3.0,0.0
6479,89.0,1.0,30.0,7.0,0.0
6480,90.0,30.0,30.0,7.0,0.0
6481,90.0,0.0,60.0,0.0,0.0
6482,72.0,1.0,120.0,8.0,0.0
6483,84.0,1.0,15.0,1.0,0.0
6484,78.0,0.0,15.0,1.0,0.0
6485,69.0,0.0,120.0,10.0,0.0
6486,69.0,0.0,15.0,4.0,0.0
6487,50.0,0.0,15.0,4.0,0.0
6488,75.0,4.0,15.0,2.0,0.0
6489,72.0,4.0,60.0,2.0,0.0
6490,62.0,1.0,120.0,11.0,0.0
6491,50.0,1.0,120.0,12.0,0.0
6492,60.0,0.0,60.0,3.0,0.0
6493,63.0,24.0,60.0,3.0,0.0
6494,38.0,23.0,120.0,13.0,0.0
6495,91.0,1.0,30.0,7.0,0.0
6496,92.0,30.0,30.0,7.0,0.0
6497,90.0,0.0,60.0,0.0,0.0
6498,84.0,1.0,15.0,1.0,0.0
6499,50.0,0.0,60.0,4.0,0.0
6500,72.0,0.0,60.0,2.0,0.0
6501,60.0,0.0,60.0,3.0,0.0
6502,63.0,1.0,60.0,3.0,0.0
6503,93.0,0.0,30.0,7.0,0.0
6504,94.0,30.0,30.0,7.0,0.0
6505,90.0,0.0,60.0,0.0,0.0
6506,78.0,1.0,15.0,1.0,0.0
6507,84.0,0.0,60.0,1.0,0.0
6508,50.0,0.0,60.0,4.0,0.0
6509,69.0,0.0,15.0,4.0,0.0
6510,75.0,2.0,15.0,2.0,0.0
6511,60.0,0.0,60.0,3.0,0.0
6512,95.0,1.0,30.0,7.0,0.0
6513,90.0,1.0,60.0,0.0,0.0
6514,96.0,30.0,30.0,7.0,0.0
6515,84.0,0.0,60.0,1.0,0.0
6516,78.0,1.0,60.0,1.0,0.0
6517,69.0,0.0,15.0,4.0,0.0
6518,50.0,0.0,60.0,4.0,0.0
6519,75.0,0.0,15.0,2.0,0.0
6520,72.0,4.0,15.0,2.0,0.0
6521,63.0,24.0,15.0,3.0,0.0
6522,60.0,0.0,60.0,3.0,0.0
6523,90.0,0.0,30.0,7.0,0.0
6524,93.0,20.0,20.0,7.0,0.0
6525,91.0,1.0,120.0,0.0,0.0
6526,83.0,0.0,120.0,1.0,0.0
6527,79.0,1.0,120.0,1.0,0.0
6528,74.0,0.0,120.0,2.0,0.0
6529,71.0,4.0,120.0,2.0,0.0
6530,67.0,0.0,120.0,4.0,0.0
6531,55.0,0.0,120.0,4.0,0.0
6532,59.0,0.0,120.0,3.0,0.0
6533,62.0,14.0,120.0,3.0,0.0
6534,91.0,20.0,20.0,7.0,0.0
6535,93.0,20.0,20.0,7.0,0.0
6536,91.0,20.0,20.0,7.0,0.0
6537,93.0,20.0,20.0,7.0,0.0
6538,91.0,0.0,20.0,7.0,0.0
6539,93.0,20.0,20.0,7.0,0.0
6540,91.0,20.0,20.0,7.0,0.0
6541,93.0,20.0,20.0,7.0,0.0
6542,91.0,20.0,20.0,7.0,0.0
6543,93.0,20.0,20.0,7.0,0.0
6544,91.0,20.0,20.0,7.0,0.0
6545,93.0,20.0,20.0,7.0,0.0
6546,91.0,0.0,120.0,0.0,0.0
6547,79.0,0.0,120.0,1.0,0.0
6548,83.0,1.0,120.0,1.0,0.0
6549,67.0,0.0,120.0,4.0,0.0
6550,71.0,0.0,120.0,2.0,0.0
6551,74.0,0.0,120.0,2.0,0.0
6552,59.0,4.0,120.0,4.0,0.0
6553,67.0,0.0,120.0,3.0,0.0
6554,55.0,14.0,120.0,3.0,0.0
6555,91.0,20.0,20.0,7.0,0.0
6556,93.0,20.0,20.0,7.0,0.0
6557,91.0,20.0,20.0,7.0,0.0
6558,93.0,20.0,20.0,7.0,0.0
6559,91.0,1.0,20.0,7.0,0.0
6560,93.0,20.0,20.0,7.0,0.0
6561,91.0,20.0,20.0,7.0,0.0
6562,93.0,20.0,20.0,7.0,0.0
6563,91.0,20.0,20.0,7.0,0.0
6564,93.0,20.0,20.0,7.0,0.0
6565,91.0,20.0,20.0,7.0,0.0
6566,93.0,20.0,20.0,7.0,0.0
6567,91.0,0.0,120.0,0.0,0.0
6568,79.0,0.0,120.0,1.0,0.0
6569,83.0,1.0,120.0,1.0,0.0
6570,74.0,0.0,120.0,2.0,0.0
6571,71.0,4.0,120.0,2.0,0.0
6572,50.0,0.0,120.0,3.0,0.0
6573,62.0,14.0,120.0,3.0,0.0
6574,91.0,20.0,20.0,7.0,0.0
6575,93.0,20.0,20.0,7.0,0.0
6576,91.0,20.0,20.0,7.0,0.0
6577,93.0,20.0,20.0,7.0,0.0
6578,91.0,1.0,20.0,7.0,0.0
6579,93.0,20.0,20.0,7.0,0.0
6580,91.0,20.0,20.0,7.0,0.0
6581,93.0,20.0,20.0,7.0,0.0
6582,91.0,20.0,20.0,7.0,0.0
6583,93.0,20.0,20.0,7.0,0.0
6584,91.0,20.0,20.0,7.0,0.0
6585,91.0,1.0,120.0,0.0,0.0
6586,71.0,0.0,120.0,8.0,0.0
6587,93.0,20.0,20.0,7.0,0.0
6588,83.0,0.0,120.0,1.0,0.0
6589,79.0,1.0,120.0,1.0,0.0
6590,74.0,0.0,120.0,2.0,0.0
6591,71.0,0.0,120.0,2.0,0.0
6592,59.0,0.0,120.0,4.0,0.0
6593,67.0,2.0,120.0,10.0,0.0
6594,67.0,0.0,120.0,4.0,0.0
6595,62.0,1.0,120.0,11.0,0.0
6596,43.0,1.0,120.0,12.0,0.0
6597,59.0,1.0,120.0,3.0,0.0
6598,47.0,0.0,120.0,3.0,0.0
6599,43.0,13.0,120.0,13.0,0.0
6600,91.0,20.0,20.0,7.0,0.0
6601,93.0,20.0,20.0,7.0,0.0
6602,91.0,20.0,20.0,7.0,0.0
6603,93.0,20.0,20.0,7.0,0.0
6604,91.0,0.0,20.0,7.0,0.0
6605,93.0,20.0,20.0,7.0,0.0
6606,91.0,20.0,20.0,7.0,0.0
6607,93.0,20.0,20.0,7.0,0.0
6608,91.0,40.0,20.0,7.0,0.0
6609,90.0,120.0,30.0,7.0,0.0
6610,86.0,0.0,300.0,7.0,0.0
6611,83.0,20.0,300.0,7.0,0.0
6612,79.0,0.0,300.0,7.0,0.0
6613,91.0,0.0,300.0,7.0,0.0
6614,91.0,1.0,120.0,0.0,0.0
6615,71.0,0.0,120.0,8.0,0.0
6616,79.0,0.0,120.0,1.0,0.0
6617,83.0,1.0,120.0,1.0,0.0
6618,71.0,0.0,120.0,2.0,0.0
6619,67.0,0.0,120.0,10.0,0.0
6620,74.0,2.0,120.0,2.0,0.0
6621,62.0,1.0,120.0,11.0,0.0
6622,43.0,1.0,120.0,12.0,0.0
6623,55.0,1.0,120.0,3.0,0.0
6624,43.0,0.0,120.0,3.0,0.0
6625,43.0,173.0,120.0,13.0,0.0
6626,93.0,20.0,20.0,7.0,0.0
6627,91.0,20.0,20.0,7.0,0.0
6628,90.0,60.0,20.0,7.0,0.0
6629,91.0,60.0,60.0,7.0,0.0
6630,93.0,120.0,60.0,7.0,0.0
6631,95.0,0.0,120.0,7.0,0.0
6632,83.0,0.0,15.0,7.0,0.0
6633,55.0,0.0,15.0,7.0,0.0
6634,59.0,0.0,15.0,7.0,0.0
6635,62.0,0.0,15.0,7.0,0.0
6636,67.0,0.0,15.0,7.0,0.0
6637,91.0,0.0,15.0,7.0,0.0
6638,86.0,120.0,15.0,7.0,0.0
6639,79.0,0.0,120.0,7.0,0.0
6640,88.0,0.0,120.0,7.0,0.0
6641,67.0,0.0,120.0,7.0,0.0
6642,72.0,0.0,120.0,7.0,0.0
6643,84.0,0.0,120.0,7.0,0.0
6644,64.0,0.0,120.0,7.0,0.0
6645,76.0,0.0,120.0,7.0,0.0
6646,60.0,0.0,120.0,7.0,0.0
6647,67.0,0.0,120.0,7.0,0.0
6648,59.0,0.0,120.0,7.0,0.0
6649,55.0,0.0,120.0,7.0,0.0
6650,83.0,0.0,120.0,7.0,0.0
6651,79.0,120.0,15.0,7.0,0.0
6652,54.0,0.0,240.0,7.0,0.0
6653,62.0,0.0,15.0,7.0,0.0
6654,74.0,0.0,15.0,7.0,0.0
6655,81.0,0.0,240.0,7.0,0.0
6656,86.0,240.0,15.0,7.0,0.0
6657,78.0,0.0,240.0,7.0,0.0
6658,50.0,0.0,240.0,7.0,0.0
6659,60.0,0.0,240.0,7.0,0.0
6660,51.0,0.0,240.0,7.0,0.0
6661,57.0,0.0,15.0,7.0,0.0
6662,72.0,0.0,240.0,7.0,0.0
6663,78.0,0.0,240.0,7.0,0.0
6664,84.0,0.0,120.0,7.0,0.0
6665,84.0,60.0,60.0,7.0,0.0
6666,79.0,60.0,240.0,7.0,0.0
6667,71.0,0.0,240.0,7.0,0.0
6668,59.0,0.0,240.0,7.0,0.0
6669,55.0,0.0,240.0,7.0,0.0
6670,64.0,0.0,240.0,7.0,0.0
6671,83.0,60.0,60.0,7.0,0.0
6672,82.0,60.0,60.0,7.0,0.0
6673,83.0,0.0,60.0,7.0,0.0
6674,76.0,0.0,120.0,7.0,0.0
6675,86.0,60.0,60.0,7.0,0.0
6676,48.0,0.0,120.0,7.0,0.0
6677,52.0,0.0,15.0,7.0,0.0
6678,60.0,0.0,120.0,7.0,0.0
6679,84.0,0.0,60.0,7.0,0.0
6680,52.0,60.0,15.0,7.0,0.0
6681,57.0,0.0,15.0,7.0,0.0
6682,61.0,0.0,120.0,7.0,0.0
6683,49.0,0.0,120.0,7.0,0.0
6684,88.0,60.0,60.0,7.0,0.0
6685,76.0,2.0,120.0,8.0,0.0
6686,64.0,2.0,120.0,10.0,0.0
6687,55.0,1.0,120.0,11.0,0.0
6688,49.0,2.0,120.0,12.0,0.0
6689,37.0,113.0,120.0,13.0,0.0
6690,76.0,0.0,60.0,7.0,0.0
6691,59.0,0.0,210.0,7.0,0.0
6692,67.0,2.0,120.0,8.0,0.0
6693,79.0,0.0,210.0,7.0,0.0
6694,67.0,0.0,210.0,7.0,0.0
6695,62.0,30.0,210.0,7.0,0.0
6696,50.0,0.0,210.0,7.0,0.0
6697,62.0,2.0,120.0,10.0,0.0
6698,59.0,1.0,120.0,11.0,0.0
6699,50.0,2.0,120.0,12.0,0.0
6700,38.0,83.0,120.0,13.0,0.0
6701,57.0,0.0,30.0,7.0,0.0
6702,78.0,90.0,30.0,7.0,0.0
6703,81.0,0.0,90.0,7.0,0.0
6704,69.0,0.0,90.0,7.0,0.0
6705,64.0,0.0,90.0,7.0,0.0
6706,60.0,0.0,15.0,7.0,0.0
6707,62.0,0.0,30.0,7.0,0.0
6708,79.0,0.0,30.0,7.0,0.0
6709,59.0,90.0,30.0,7.0,0.0
6710,66.0,0.0,90.0,7.0,0.0
6711,62.0,30.0,90.0,7.0,0.0
6712,71.0,0.0,90.0,7.0,0.0
6713,83.0,0.0,90.0,7.0,0.0
6714,60.0,0.0,30.0,7.0,0.0
6715,81.0,0.0,30.0,7.0,0.0
6716,67.0,0.0,90.0,7.0,0.0
6717,64.0,90.0,15.0,7.0,0.0
6718,72.0,0.0,90.0,7.0,0.0
6719,84.0,30.0,90.0,7.0,0.0
6720,66.0,0.0,30.0,7.0,0.0
6721,62.0,0.0,30.0,7.0,0.0
6722,83.0,90.0,30.0,7.0,0.0
6723,86.0,0.0,90.0,7.0,0.0
6724,74.0,0.0,90.0,7.0,0.0
6725,66.0,30.0,90.0,7.0,0.0
6726,69.0,0.0,90.0,7.0,0.0
6727,64.0,90.0,30.0,7.0,0.0
6728,67.0,0.0,30.0,7.0,0.0
6729,84.0,0.0,30.0,7.0,0.0
6730,71.0,0.0,90.0,7.0,0.0
6731,67.0,0.0,90.0,7.0,0.0
6732,76.0,30.0,90.0,7.0,0.0
6733,88.0,0.0,90.0,7.0,0.0
6734,86.0,0.0,30.0,7.0,0.0
6735,66.0,0.0,30.0,7.0,0.0
6736,72.0,0.0,90.0,7.0,0.0
6737,69.0,90.0,15.0,7.0,0.0
6738,78.0,30.0,90.0,7.0,0.0
6739,90.0,0.0,90.0,7.0,0.0
6740,67.0,0.0,30.0,7.0,0.0
6741,88.0,0.0,30.0,7.0,0.0
6742,79.0,0.0,30.0,7.0,0.0
6743,91.0,0.0,30.0,7.0,0.0
6744,71.0,30.0,15.0,7.0,0.0
6745,74.0,0.0,30.0,7.0,0.0
6746,90.0,40.0,30.0,7.0,0.0
6747,69.0,0.0,30.0,7.0,0.0
6748,72.0,0.0,30.0,7.0,0.0
6749,72.0,0.0,30.0,7.0,0.0
6750,76.0,0.0,30.0,7.0,0.0
6751,93.0,40.0,30.0,7.0,0.0
6752,74.0,40.0,30.0,7.0,0.0
6753,71.0,0.0,30.0,7.0,0.0
6754,91.0,0.0,30.0,7.0,0.0
6755,74.0,0.0,30.0,7.0,0.0
6756,78.0,40.0,30.0,7.0,0.0
6757,83.0,0.0,30.0,7.0,0.0
6758,95.0,0.0,30.0,7.0,0.0
6759,93.0,0.0,30.0,7.0,0.0
6760,76.0,0.0,30.0,7.0,0.0
6761,72.0,40.0,30.0,7.0,0.0
6762,96.0,0.0,30.0,7.0,0.0
6763,84.0,0.0,30.0,7.0,0.0
6764,79.0,40.0,30.0,7.0,0.0
6765,76.0,0.0,30.0,7.0,0.0
6766,95.0,0.0,30.0,7.0,0.0
6767,78.0,0.0,30.0,7.0,0.0
6768,74.0,40.0,30.0,7.0,0.0
6769,81.0,0.0,30.0,7.0,0.0
6770,98.0,40.0,30.0,7.0,0.0
6771,78.0,0.0,30.0,7.0,0.0
6772,96.0,0.0,30.0,7.0,0.0
6773,76.0,40.0,30.0,7.0,0.0
6774,79.0,0.0,30.0,7.0,0.0
6775,88.0,0.0,30.0,7.0,0.0
6776,100.0,40.0,30.0,7.0,0.0
6777,83.0,0.0,30.0,7.0,0.0
6778,79.0,0.0,30.0,7.0,0.0
6779,79.0,0.0,30.0,7.0,0.0
6780,83.0,0.0,30.0,7.0,0.0
6781,88.0,40.0,30.0,7.0,0.0
6782,100.0,0.0,30.0,7.0,0.0
6783,79.0,0.0,30.0,7.0,0.0
6784,83.0,40.0,30.0,7.0,0.0
6785,88.0,0.0,30.0,7.0,0.0
6786,100.0,0.0,30.0,7.0,0.0
6787,81.0,0.0,30.0,7.0,0.0
6788,78.0,0.0,30.0,7.0,0.0
6789,98.0,5.0,30.0,7.0,0.0
6790,86.0,30.0,30.0,7.0,0.0
6791,84.0,5.0,30.0,7.0,0.0
6792,96.0,40.0,30.0,7.0,0.0
6793,79.0,0.0,30.0,7.0,0.0
6794,76.0,0.0,30.0,7.0,0.0
6795,86.0,40.0,30.0,7.0,0.0
6796,95.0,0.0,30.0,7.0,0.0
6797,90.0,0.0,30.0,7.0,0.0
6798,93.0,0.0,30.0,7.0,0.0
6799,84.0,5.0,30.0,7.0,0.0
6800,88.0,30.0,30.0,7.0,0.0
6801,86.0,5.0,30.0,7.0,0.0
6802,91.0,0.0,30.0,7.0,0.0
6803,83.0,40.0,30.0,7.0,0.0
6804,84.0,0.0,30.0,7.0,0.0
6805,90.0,0.0,30.0,7.0,0.0
6806,81.0,40.0,30.0,7.0,0.0
6807,88.0,5.0,30.0,7.0,0.0
6808,79.0,0.0,30.0,7.0,0.0
6809,83.0,30.0,30.0,7.0,0.0
6810,81.0,5.0,30.0,7.0,0.0
6811,86.0,40.0,30.0,7.0,0.0
6812,78.0,0.0,30.0,7.0,0.0
6813,76.0,0.0,30.0,7.0,0.0
6814,84.0,40.0,30.0,7.0,0.0
6815,79.0,0.0,30.0,7.0,0.0
6816,83.0,0.0,30.0,7.0,0.0
6817,74.0,5.0,30.0,7.0,0.0
6818,78.0,30.0,30.0,7.0,0.0
6819,76.0,5.0,30.0,7.0,0.0
6820,72.0,0.0,30.0,7.0,0.0
6821,81.0,50.0,30.0,7.0,0.0
6822,79.0,0.0,30.0,7.0,0.0
6823,71.0,40.0,30.0,7.0,0.0
6824,74.0,0.0,30.0,7.0,0.0
6825,78.0,0.0,30.0,7.0,0.0
6826,69.0,5.0,30.0,7.0,0.0
6827,72.0,30.0,30.0,7.0,0.0
6828,71.0,5.0,30.0,7.0,0.0
6829,67.0,40.0,30.0,7.0,0.0
6830,76.0,0.0,30.0,7.0,0.0
6831,74.0,0.0,30.0,7.0,0.0
6832,69.0,0.0,30.0,7.0,0.0
6833,66.0,40.0,30.0,7.0,0.0
6834,72.0,0.0,30.0,7.0,0.0
6835,64.0,5.0,30.0,7.0,0.0
6836,67.0,30.0,30.0,7.0,0.0
6837,66.0,5.0,30.0,7.0,0.0
6838,71.0,0.0,30.0,7.0,0.0
6839,62.0,40.0,30.0,7.0,0.0
6840,60.0,0.0,30.0,7.0,0.0
6841,64.0,0.0,30.0,7.0,0.0
6842,69.0,40.0,30.0,7.0,0.0
6843,67.0,40.0,30.0,7.0,0.0
6844,59.0,0.0,30.0,7.0,0.0
6845,66.0,0.0,30.0,7.0,0.0
6846,57.0,40.0,30.0,7.0,0.0
6847,55.0,40.0,30.0,7.0,0.0
6848,59.0,0.0,30.0,7.0,0.0
6849,64.0,0.0,30.0,7.0,0.0
6850,57.0,35.0,30.0,7.0,0.0
6851,54.0,0.0,30.0,7.0,0.0
6852,62.0,0.0,30.0,7.0,0.0
6853,61.0,5.0,30.0,7.0,0.0
6854,55.0,0.0,30.0,7.0,0.0
6855,52.0,30.0,30.0,7.0,0.0
6856,51.0,0.0,120.0,7.0,0.0
6857,60.0,30.0,30.0,7.0,0.0
6858,62.0,30.0,30.0,7.0,0.0
6859,60.0,30.0,30.0,7.0,0.0
6860,59.0,30.0,30.0,7.0,0.0
6861,51.0,30.0,240.0,7.0,0.0
6862,60.0,30.0,30.0,7.0,0.0
6863,57.0,30.0,30.0,7.0,0.0
6864,66.0,30.0,30.0,7.0,0.0
6865,65.0,30.0,30.0,7.0,0.0
6866,72.0,2.0,480.0,8.0,0.0
6867,66.0,30.0,30.0,7.0,0.0
6868,60.0,3.0,480.0,10.0,0.0
6869,60.0,30.0,30.0,7.0,0.0
6870,69.0,30.0,30.0,7.0,0.0
6871,68.0,0.0,30.0,7.0,0.0
6872,69.0,30.0,30.0,7.0,0.0
6873,39.0,30.0,240.0,7.0,0.0
6874,66.0,30.0,30.0,7.0,0.0
6875,72.0,30.0,30.0,7.0,0.0
6876,71.0,30.0,30.0,7.0,0.0
6877,72.0,30.0,30.0,7.0,0.0
6878,50.0,2.0,240.0,12.0,0.0
6879,38.0,23.0,240.0,13.0,0.0
6880,69.0,30.0,30.0,7.0,0.0
6881,78.0,30.0,30.0,7.0,0.0
6882,77.0,0.0,30.0,7.0,0.0
6883,38.0,0.0,240.0,7.0,0.0
6884,78.0,30.0,30.0,7.0,0.0
6885,72.0,30.0,30.0,7.0,0.0
6886,81.0,30.0,30.0,7.0,0.0
6887,80.0,0.0,30.0,7.0,0.0
6888,81.0,30.0,30.0,7.0,0.0
6889,69.0,4.0,240.0,8.0,0.0
6890,62.0,18.0,600.0,10.0,0.0
6891,54.0,1.0,240.0,11.0,0.0
6892,48.0,2.0,240.0,12.0,0.0
6893,36.0,23.0,240.0,13.0,0.0
6894,78.0,30.0,30.0,7.0,0.0
6895,84.0,30.0,30.0,7.0,0.0
6896,83.0,30.0,30.0,7.0,0.0
6897,36.0,0.0,120.0,7.0,0.0
6898,84.0,30.0,30.0,7.0,0.0
6899,81.0,30.0,30.0,7.0,0.0
6900,83.0,30.0,30.0,7.0,0.0
6901,84.0,0.0,30.0,7.0,0.0
6902,86.0,30.0,30.0,7.0,0.0
6903,35.0,0.0,120.0,7.0,0.0
6904,74.0,2.0,360.0,8.0,0.0
6905,47.0,2.0,480.0,12.0,0.0
6906,35.0,23.0,480.0,13.0,0.0
6907,88.0,30.0,30.0,7.0,0.0
6908,86.0,30.0,30.0,7.0,0.0
6909,84.0,17.0,30.0,7.0,0.0
6910,62.0,20.0,300.0,7.0,0.0
6911,83.0,17.0,15.0,7.0,0.0
6912,84.0,18.0,15.0,7.0,0.0
6913,86.0,17.0,15.0,7.0,0.0
6914,88.0,17.0,15.0,7.0,0.0
6915,90.0,18.0,15.0,7.0,0.0
6916,91.0,17.0,15.0,7.0,0.0
6917,93.0,29.0,15.0,7.0,0.0
6918,95.0,30.0,30.0,7.0,0.0
6919,96.0,30.0,30.0,7.0,0.0
6920,98.0,30.0,30.0,7.0,0.0
6921,96.0,0.0,30.0,7.0,0.0
6922,95.0,20.0,20.0,7.0,0.0
6923,75.0,2.0,120.0,8.0,0.0
6924,63.0,2.0,120.0,10.0,0.0
6925,93.0,20.0,20.0,7.0,0.0
6926,91.0,0.0,20.0,7.0,0.0
6927,47.0,0.0,60.0,7.0,0.0
6928,90.0,20.0,20.0,7.0,0.0
6929,88.0,20.0,20.0,7.0,0.0
6930,87.0,0.0,20.0,7.0,0.0
6931,76.0,0.0,360.0,8.0,0.0
6932,88.0,30.0,30.0,7.0,0.0
6933,48.0,30.0,60.0,7.0,0.0
6934,55.0,1.0,15.0,11.0,0.0
6935,48.0,2.0,360.0,12.0,0.0
6936,36.0,17.0,360.0,13.0,0.0
6937,90.0,0.0,30.0,7.0,0.0
6938,88.0,30.0,30.0,7.0,0.0
6939,86.0,17.0,30.0,7.0,0.0
6940,76.0,12.0,300.0,7.0,0.0
6941,84.0,17.0,15.0,7.0,0.0
6942,86.0,18.0,15.0,7.0,0.0
6943,88.0,17.0,15.0,7.0,0.0
6944,90.0,18.0,15.0,7.0,0.0
6945,91.0,17.0,15.0,7.0,0.0
6946,93.0,17.0,15.0,7.0,0.0
6947,95.0,23.0,15.0,7.0,0.0
6948,96.0,24.0,20.0,7.0,0.0
6949,98.0,24.0,20.0,7.0,0.0
6950,100.0,24.0,20.0,7.0,0.0
6951,98.0,24.0,20.0,7.0,0.0
6952,96.0,2.0,20.0,7.0,0.0
6953,95.0,24.0,20.0,7.0,0.0
6954,64.0,2.0,15.0,10.0,0.0
6955,55.0,1.0,120.0,11.0,0.0
6956,49.0,2.0,120.0,12.0,0.0
6957,37.0,23.0,120.0,13.0,0.0
6958,93.0,12.0,20.0,7.0,0.0
6959,91.0,24.0,20.0,7.0,0.0
6960,61.0,0.0,60.0,7.0,0.0
6961,90.0,24.0,20.0,7.0,0.0
6962,88.0,0.0,20.0,7.0,0.0
6963,86.0,30.0,30.0,7.0,0.0
6964,62.0,0.0,60.0,7.0,0.0
6965,79.0,2.0,15.0,8.0,0.0
6966,79.0,43.0,720.0,2.0,0.0
6967,83.0,0.0,720.0,2.0,0.0
6968,71.0,2.0,120.0,10.0,0.0
6969,67.0,0.0,720.0,4.0,0.0
6970,71.0,0.0,720.0,4.0,0.0
6971,62.0,1.0,120.0,11.0,0.0
6972,50.0,2.0,120.0,12.0,0.0
6973,38.0,23.0,120.0,13.0,0.0
6974,85.0,30.0,30.0,7.0,0.0
6975,67.0,0.0,60.0,7.0,0.0
6976,71.0,2.0,60.0,7.0,0.0
6977,84.0,30.0,30.0,7.0,0.0
6978,83.0,0.0,30.0,7.0,0.0
6979,71.0,0.0,120.0,8.0,0.0
6980,62.0,30.0,60.0,7.0,0.0
6981,81.0,30.0,30.0,7.0,0.0
6982,67.0,18.0,120.0,10.0,0.0
6983,79.0,0.0,30.0,7.0,0.0
6984,71.0,0.0,60.0,7.0,0.0
6985,78.0,30.0,30.0,7.0,0.0
6986,67.0,2.0,60.0,7.0,0.0
6987,76.0,0.0,30.0,7.0,0.0
6988,62.0,0.0,60.0,7.0,0.0
6989,74.0,20.0,20.0,7.0,0.0
6990,76.0,20.0,20.0,7.0,0.0
6991,74.0,20.0,20.0,7.0,0.0
6992,71.0,0.0,60.0,7.0,0.0
6993,73.0,20.0,20.0,7.0,0.0
6994,67.0,20.0,60.0,7.0,0.0
6995,74.0,20.0,20.0,7.0,0.0
6996,75.0,0.0,20.0,7.0,0.0
6997,76.0,20.0,20.0,7.0,0.0
6998,62.0,20.0,60.0,7.0,0.0
6999,77.0,20.0,20.0,7.0,0.0
7000,78.0,0.0,20.0,7.0,0.0
7001,67.0,20.0,60.0,7.0,0.0
7002,79.0,20.0,20.0,7.0,0.0
7003,71.0,0.0,60.0,7.0,0.0
7004,81.0,20.0,20.0,7.0,0.0
7005,83.0,0.0,20.0,7.0,0.0
7006,84.0,20.0,20.0,7.0,0.0
7007,62.0,20.0,60.0,7.0,0.0
7008,85.0,20.0,20.0,7.0,0.0
7009,86.0,0.0,20.0,7.0,0.0
7010,71.0,20.0,60.0,7.0,0.0
7011,87.0,20.0,20.0,7.0,0.0
7012,67.0,0.0,60.0,7.0,0.0
7013,88.0,20.0,20.0,7.0,0.0
7014,89.0,0.0,20.0,7.0,0.0
7015,62.0,20.0,60.0,7.0,0.0
7016,90.0,20.0,20.0,7.0,0.0
7017,91.0,20.0,20.0,7.0,0.0
7018,92.0,0.0,20.0,7.0,0.0
7019,93.0,20.0,20.0,7.0,0.0
7020,67.0,0.0,60.0,7.0,0.0
7021,71.0,0.0,60.0,7.0,0.0
7022,94.0,20.0,20.0,7.0,0.0
7023,95.0,2.0,20.0,7.0,0.0
7024,78.0,2.0,120.0,8.0,0.0
7025,69.0,0.0,120.0,8.0,0.0
7026,69.0,0.0,60.0,7.0,0.0
7027,72.0,60.0,60.0,7.0,0.0
7028,62.0,0.0,60.0,7.0,0.0
7029,84.0,0.0,60.0,7.0,0.0
7030,62.0,0.0,120.0,8.0,0.0
7031,96.0,0.0,60.0,7.0,0.0
7032,72.0,0.0,120.0,10.0,0.0
7033,62.0,0.0,120.0,10.0,0.0
7034,62.0,2.0,120.0,4.0,0.0
7035,78.0,0.0,120.0,2.0,0.0
7036,81.0,0.0,120.0,2.0,0.0
7037,69.0,0.0,120.0,4.0,0.0
7038,62.0,1.0,120.0,11.0,0.0
7039,50.0,2.0,120.0,12.0,0.0
7040,38.0,38.0,120.0,13.0,0.0
7041,71.0,15.0,60.0,7.0,0.0
7042,68.0,0.0,60.0,7.0,0.0
7043,62.0,0.0,60.0,7.0,0.0
7044,95.0,0.0,60.0,7.0,0.0
7045,83.0,0.0,60.0,7.0,0.0
7046,96.0,0.0,60.0,7.0,0.0
7047,84.0,60.0,60.0,7.0,0.0
7048,62.0,0.0,60.0,7.0,0.0
7049,69.0,0.0,60.0,7.0,0.0
7050,72.0,0.0,60.0,7.0,0.0
7051,54.0,0.0,60.0,7.0,0.0
7052,86.0,0.0,60.0,7.0,0.0
7053,84.0,47.0,60.0,7.0,0.0
7054,78.0,0.0,60.0,7.0,0.0
7055,62.0,0.0,60.0,7.0,0.0
7056,57.0,0.0,60.0,7.0,0.0
7057,50.0,0.0,60.0,7.0,0.0
7058,90.0,0.0,60.0,7.0,0.0
7059,79.0,1.0,120.0,7.0,0.0
7060,83.0,0.0,120.0,7.0,0.0
7061,86.0,0.0,120.0,7.0,0.0
7062,67.0,0.0,120.0,8.0,0.0
7063,59.0,0.0,120.0,8.0,0.0
7064,43.0,0.0,120.0,7.0,0.0
7065,47.0,0.0,120.0,7.0,0.0
7066,50.0,0.0,120.0,7.0,0.0
7067,91.0,0.0,120.0,7.0,0.0
7068,55.0,0.0,120.0,7.0,0.0
7069,91.0,0.0,480.0,0.0,0.0
7070,83.0,0.0,480.0,0.0,0.0
7071,83.0,0.0,480.0,1.0,0.0
7072,79.0,1.0,120.0,5.0,0.0
7073,67.0,2.0,120.0,4.0,0.0
7074,71.0,0.0,480.0,2.0,0.0
7075,59.0,0.0,120.0,4.0,0.0
7076,59.0,0.0,30.0,10.0,0.0
7077,55.0,0.0,30.0,11.0,0.0
7078,55.0,1.0,480.0,12.0,0.0
7079,55.0,1.0,480.0,3.0,0.0
7080,43.0,0.0,480.0,3.0,0.0
7081,55.0,26.0,120.0,6.0,0.0
7082,43.0,25.0,480.0,13.0,0.0
7083,67.0,2.0,15.0,10.0,0.0
7084,59.0,2.0,30.0,10.0,0.0
7085,62.0,28.0,15.0,11.0,0.0
7086,59.0,0.0,30.0,10.0,0.0
7087,55.0,28.0,15.0,11.0,0.0
7088,67.0,2.0,15.0,10.0,0.0
7089,59.0,0.0,30.0,10.0,0.0
7090,62.0,0.0,15.0,11.0,0.0
7091,55.0,0.0,30.0,11.0,0.0
7092,74.0,1.0,120.0,5.0,0.0
7093,67.0,0.0,15.0,10.0,0.0
7094,59.0,2.0,30.0,10.0,0.0
7095,62.0,2.0,120.0,4.0,0.0
7096,62.0,2.0,15.0,11.0,0.0
7097,59.0,0.0,30.0,10.0,0.0
7098,62.0,0.0,15.0,11.0,0.0
7099,55.0,28.0,15.0,11.0,0.0
7100,67.0,2.0,15.0,10.0,0.0
7101,59.0,2.0,30.0,10.0,0.0
7102,55.0,27.0,30.0,11.0,0.0
7103,62.0,28.0,15.0,11.0,0.0
7104,62.0,0.0,15.0,11.0,0.0
7105,55.0,0.0,30.0,11.0,0.0
7106,71.0,1.0,120.0,5.0,0.0
7107,67.0,0.0,15.0,10.0,0.0
7108,59.0,0.0,15.0,10.0,0.0
7109,59.0,0.0,120.0,4.0,0.0
7110,62.0,0.0,30.0,11.0,0.0
7111,55.0,28.0,30.0,11.0,0.0
7112,59.0,0.0,30.0,10.0,0.0
7113,62.0,28.0,30.0,11.0,0.0
7114,55.0,0.0,30.0,11.0,0.0
7115,67.0,2.0,15.0,10.0,0.0
7116,62.0,0.0,30.0,11.0,0.0
7117,59.0,0.0,15.0,10.0,0.0
7118,67.0,2.0,15.0,10.0,0.0
7119,55.0,26.0,15.0,11.0,0.0
7120,62.0,28.0,30.0,11.0,0.0
7121,79.0,1.0,15.0,8.0,0.0
7122,67.0,0.0,120.0,5.0,0.0
7123,67.0,0.0,15.0,10.0,0.0
7124,59.0,2.0,15.0,10.0,0.0
7125,55.0,0.0,120.0,4.0,0.0
7126,67.0,2.0,15.0,10.0,0.0
7127,59.0,0.0,15.0,10.0,0.0
7128,55.0,0.0,15.0,11.0,0.0
7129,62.0,26.0,15.0,11.0,0.0
7130,83.0,2.0,30.0,8.0,0.0
7131,59.0,2.0,30.0,10.0,0.0
7132,67.0,2.0,15.0,10.0,0.0
7133,55.0,0.0,15.0,11.0,0.0
7134,62.0,0.0,30.0,11.0,0.0
7135,86.0,1.0,30.0,8.0,0.0
7136,59.0,2.0,30.0,10.0,0.0
7137,67.0,0.0,30.0,10.0,0.0
7138,62.0,0.0,30.0,11.0,0.0
7139,55.0,26.0,15.0,11.0,0.0
7140,84.0,0.0,480.0,0.0,0.0
7141,91.0,2.0,120.0,8.0,0.0
7142,67.0,1.0,480.0,5.0,0.0
7143,79.0,1.0,15.0,1.0,0.0
7144,84.0,0.0,480.0,1.0,0.0
7145,79.0,0.0,15.0,2.0,0.0
7146,72.0,0.0,480.0,2.0,0.0
7147,55.0,0.0,480.0,4.0,0.0
7148,60.0,0.0,30.0,10.0,0.0
7149,55.0,1.0,15.0,11.0,0.0
7150,52.0,1.0,480.0,12.0,0.0
7151,52.0,1.0,480.0,3.0,0.0
7152,40.0,0.0,480.0,3.0,0.0
7153,55.0,26.0,120.0,6.0,0.0
7154,40.0,25.0,480.0,13.0,0.0
7155,60.0,2.0,30.0,10.0,0.0
7156,67.0,2.0,15.0,10.0,0.0
7157,55.0,0.0,30.0,11.0,0.0
7158,64.0,28.0,15.0,11.0,0.0
7159,60.0,0.0,30.0,10.0,0.0
7160,64.0,0.0,30.0,11.0,0.0
7161,67.0,2.0,15.0,10.0,0.0
7162,60.0,0.0,30.0,10.0,0.0
7163,55.0,26.0,15.0,11.0,0.0
7164,64.0,0.0,30.0,11.0,0.0
7165,88.0,2.0,120.0,8.0,0.0
7166,60.0,2.0,30.0,10.0,0.0
7167,67.0,2.0,15.0,10.0,0.0
7168,64.0,28.0,30.0,11.0,0.0
7169,55.0,2.0,15.0,11.0,0.0
7170,64.0,28.0,30.0,11.0,0.0
7171,55.0,0.0,30.0,11.0,0.0
7172,67.0,2.0,15.0,10.0,0.0
7173,60.0,0.0,15.0,10.0,0.0
7174,60.0,2.0,15.0,10.0,0.0
7175,67.0,0.0,15.0,10.0,0.0
7176,55.0,0.0,15.0,11.0,0.0
7177,64.0,26.0,15.0,11.0,0.0
7178,84.0,2.0,120.0,8.0,0.0
7179,60.0,2.0,30.0,10.0,0.0
7180,67.0,0.0,30.0,10.0,0.0
7181,64.0,28.0,30.0,11.0,0.0
7182,60.0,2.0,30.0,10.0,0.0
7183,67.0,0.0,30.0,10.0,0.0
7184,55.0,0.0,15.0,11.0,0.0
7185,64.0,0.0,15.0,11.0,0.0
7186,67.0,2.0,15.0,10.0,0.0
7187,60.0,0.0,15.0,10.0,0.0
7188,55.0,26.0,15.0,11.0,0.0
7189,64.0,0.0,15.0,11.0,0.0
7190,79.0,1.0,120.0,8.0,0.0
7191,67.0,2.0,15.0,10.0,0.0
7192,60.0,0.0,30.0,10.0,0.0
7193,55.0,28.0,15.0,11.0,0.0
7194,55.0,26.0,30.0,6.0,0.0
7195,60.0,2.0,30.0,10.0,0.0
7196,64.0,2.0,15.0,11.0,0.0
7197,55.0,2.0,30.0,11.0,0.0
7198,55.0,26.0,30.0,6.0,0.0
7199,67.0,0.0,15.0,10.0,0.0
7200,60.0,2.0,30.0,10.0,0.0
7201,55.0,0.0,30.0,11.0,0.0
7202,64.0,2.0,30.0,11.0,0.0
7203,55.0,24.0,30.0,6.0,0.0
7204,60.0,2.0,30.0,10.0,0.0
7205,67.0,0.0,30.0,10.0,0.0
7206,64.0,1.0,30.0,11.0,0.0
7207,55.0,0.0,30.0,11.0,0.0
7208,55.0,0.0,30.0,6.0,0.0
7209,91.0,0.0,15.0,0.0,0.0
7210,86.0,0.0,480.0,0.0,0.0
7211,59.0,1.0,120.0,8.0,0.0
7212,67.0,0.0,120.0,8.0,0.0
7213,79.0,1.0,360.0,8.0,0.0
7214,79.0,0.0,15.0,1.0,0.0
7215,86.0,1.0,480.0,1.0,0.0
7216,79.0,1.0,120.0,5.0,0.0
7217,79.0,0.0,15.0,2.0,0.0
7218,67.0,0.0,120.0,4.0,0.0
7219,67.0,0.0,30.0,10.0,0.0
7220,74.0,2.0,480.0,2.0,0.0
7221,62.0,28.0,30.0,11.0,0.0
7222,50.0,1.0,480.0,12.0,0.0
7223,55.0,26.0,120.0,6.0,0.0
7224,50.0,0.0,480.0,3.0,0.0
7225,38.0,25.0,480.0,13.0,0.0
7226,59.0,2.0,15.0,10.0,0.0
7227,67.0,0.0,30.0,10.0,0.0
7228,55.0,0.0,15.0,11.0,0.0
7229,62.0,28.0,15.0,11.0,0.0
7230,55.0,0.0,15.0,11.0,0.0
7231,67.0,2.0,15.0,10.0,0.0
7232,59.0,0.0,15.0,10.0,0.0
7233,62.0,0.0,30.0,11.0,0.0
7234,74.0,1.0,120.0,5.0,0.0
7235,59.0,0.0,30.0,10.0,0.0
7236,67.0,2.0,15.0,10.0,0.0
7237,62.0,0.0,120.0,4.0,0.0
7238,55.0,2.0,15.0,11.0,0.0
7239,67.0,2.0,15.0,10.0,0.0
7240,59.0,2.0,30.0,10.0,0.0
7241,62.0,28.0,15.0,11.0,0.0
7242,55.0,0.0,30.0,11.0,0.0
7243,62.0,28.0,15.0,11.0,0.0
7244,67.0,0.0,15.0,10.0,0.0
7245,59.0,2.0,15.0,10.0,0.0
7246,55.0,27.0,15.0,11.0,0.0
7247,62.0,0.0,15.0,11.0,0.0
7248,71.0,1.0,120.0,5.0,0.0
7249,59.0,0.0,15.0,10.0,0.0
7250,67.0,2.0,15.0,10.0,0.0
7251,59.0,0.0,120.0,4.0,0.0
7252,55.0,28.0,15.0,11.0,0.0
7253,67.0,0.0,30.0,10.0,0.0
7254,55.0,28.0,15.0,11.0,0.0
7255,62.0,0.0,15.0,11.0,0.0
7256,59.0,2.0,15.0,10.0,0.0
7257,67.0,2.0,15.0,10.0,0.0
7258,59.0,0.0,15.0,10.0,0.0
7259,55.0,26.0,15.0,11.0,0.0
7260,62.0,0.0,15.0,11.0,0.0
7261,79.0,2.0,60.0,8.0,0.0
7262,67.0,2.0,15.0,10.0,0.0
7263,59.0,0.0,15.0,10.0,0.0
7264,55.0,0.0,120.0,4.0,0.0
7265,62.0,0.0,15.0,11.0,0.0
7266,55.0,28.0,15.0,11.0,0.0
7267,55.0,24.0,30.0,6.0,0.0
7268,59.0,2.0,15.0,10.0,0.0
7269,62.0,0.0,15.0,11.0,0.0
7270,55.0,2.0,15.0,11.0,0.0
7271,55.0,24.0,30.0,6.0,0.0
7272,83.0,2.0,30.0,8.0,0.0
7273,67.0,0.0,15.0,10.0,0.0
7274,62.0,0.0,30.0,11.0,0.0
7275,55.0,24.0,30.0,6.0,0.0
7276,86.0,1.0,30.0,8.0,0.0
7277,59.0,0.0,15.0,10.0,0.0
7278,67.0,2.0,15.0,10.0,0.0
7279,55.0,2.0,15.0,11.0,0.0
7280,62.0,1.0,30.0,11.0,0.0
7281,91.0,2.0,120.0,8.0,0.0
7282,91.0,0.0,480.0,0.0,0.0
7283,88.0,1.0,480.0,0.0,0.0
7284,79.0,0.0,15.0,1.0,0.0
7285,67.0,0.0,15.0,5.0,0.0
7286,88.0,0.0,480.0,1.0,0.0
7287,55.0,0.0,480.0,4.0,0.0
7288,79.0,0.0,15.0,2.0,0.0
7289,76.0,0.0,480.0,2.0,0.0
7290,55.0,0.0,15.0,11.0,0.0
7291,48.0,1.0,480.0,12.0,0.0
7292,55.0,1.0,15.0,6.0,0.0
7293,50.0,1.0,480.0,3.0,0.0
7294,36.0,113.0,480.0,13.0,0.0
7295,67.0,0.0,15.0,10.0,0.0
7296,64.0,2.0,15.0,10.0,0.0
7297,55.0,0.0,15.0,11.0,0.0
7298,60.0,28.0,15.0,11.0,0.0
7299,64.0,2.0,15.0,10.0,0.0
7300,67.0,0.0,15.0,10.0,0.0
7301,64.0,2.0,15.0,10.0,0.0
7302,60.0,0.0,15.0,11.0,0.0
7303,55.0,26.0,15.0,11.0,0.0
7304,88.0,2.0,120.0,8.0,0.0
7305,67.0,0.0,30.0,10.0,0.0
7306,64.0,2.0,15.0,10.0,0.0
7307,55.0,28.0,30.0,11.0,0.0
7308,67.0,0.0,30.0,10.0,0.0
7309,60.0,0.0,15.0,11.0,0.0
7310,64.0,2.0,15.0,10.0,0.0
7311,67.0,2.0,30.0,10.0,0.0
7312,60.0,0.0,30.0,11.0,0.0
7313,55.0,28.0,15.0,11.0,0.0
7314,64.0,0.0,15.0,10.0,0.0
7315,67.0,2.0,30.0,10.0,0.0
7316,55.0,26.0,15.0,11.0,0.0
7317,84.0,2.0,120.0,8.0,0.0
7318,64.0,2.0,30.0,10.0,0.0
7319,67.0,0.0,30.0,10.0,0.0
7320,60.0,0.0,15.0,11.0,0.0
7321,55.0,28.0,15.0,11.0,0.0
7322,64.0,0.0,30.0,10.0,0.0
7323,55.0,28.0,15.0,11.0,0.0
7324,60.0,28.0,30.0,11.0,0.0
7325,67.0,2.0,15.0,10.0,0.0
7326,67.0,0.0,15.0,10.0,0.0
7327,64.0,2.0,15.0,10.0,0.0
7328,55.0,26.0,15.0,11.0,0.0
7329,60.0,0.0,15.0,11.0,0.0
7330,79.0,0.0,120.0,8.0,0.0
7331,67.0,0.0,15.0,10.0,0.0
7332,64.0,2.0,15.0,10.0,0.0
7333,60.0,28.0,15.0,11.0,0.0
7334,67.0,2.0,15.0,10.0,0.0
7335,64.0,0.0,15.0,10.0,0.0
7336,60.0,28.0,15.0,11.0,0.0
7337,55.0,0.0,15.0,11.0,0.0
7338,67.0,2.0,15.0,10.0,0.0
7339,64.0,0.0,15.0,10.0,0.0
7340,55.0,0.0,15.0,11.0,0.0
7341,60.0,0.0,30.0,11.0,0.0
7342,67.0,2.0,30.0,10.0,0.0
7343,64.0,0.0,30.0,10.0,0.0
7344,55.0,26.0,15.0,11.0,0.0
7345,60.0,1.0,30.0,11.0,0.0
7346,46.0,60.0,120.0,7.0,0.0
7347,67.0,4.0,1920.0,8.0,0.0
7348,46.0,2.0,480.0,12.0,0.0
7349,34.0,53.0,480.0,13.0,0.0
7350,91.0,60.0,120.0,7.0,0.0
7351,50.0,60.0,120.0,7.0,0.0
7352,86.0,60.0,120.0,7.0,0.0
7353,55.0,60.0,120.0,7.0,0.0
7354,82.0,60.0,120.0,7.0,0.0
7355,58.0,5.0,120.0,7.0,0.0
7356,79.0,60.0,120.0,7.0,0.0
7357,51.0,60.0,120.0,7.0,0.0
7358,51.0,2.0,480.0,12.0,0.0
7359,39.0,53.0,480.0,13.0,0.0
7360,91.0,60.0,120.0,7.0,0.0
7361,55.0,60.0,120.0,7.0,0.0
7362,87.0,60.0,120.0,7.0,0.0
7363,60.0,60.0,120.0,7.0,0.0
7364,84.0,60.0,120.0,7.0,0.0
7365,63.0,4.0,120.0,7.0,0.0
7366,79.0,60.0,120.0,7.0,0.0
7367,50.0,60.0,120.0,7.0,0.0
7368,55.0,1.0,15.0,11.0,0.0
7369,50.0,2.0,480.0,12.0,0.0
7370,38.0,53.0,480.0,13.0,0.0
7371,91.0,60.0,120.0,7.0,0.0
7372,55.0,60.0,120.0,7.0,0.0
7373,86.0,60.0,120.0,7.0,0.0
7374,58.0,60.0,120.0,7.0,0.0
7375,82.0,60.0,120.0,7.0,0.0
7376,62.0,5.0,120.0,7.0,0.0
7377,79.0,60.0,120.0,7.0,0.0
7378,48.0,60.0,120.0,7.0,0.0
7379,63.0,2.0,1440.0,10.0,0.0
7380,48.0,2.0,1440.0,12.0,0.0
7381,36.0,23.0,1440.0,13.0,0.0
7382,91.0,60.0,120.0,7.0,0.0
7383,51.0,60.0,120.0,7.0,0.0
7384,87.0,60.0,120.0,7.0,0.0
7385,55.0,60.0,120.0,7.0,0.0
7386,84.0,60.0,120.0,7.0,0.0
7387,60.0,0.0,120.0,7.0,0.0
7388,79.0,0.0,60.0,7.0,0.0
7389,80.0,60.0,60.0,7.0,0.0
7390,48.0,60.0,120.0,7.0,0.0
7391,68.0,0.0,480.0,8.0,0.0
7392,56.0,56.0,480.0,11.0,0.0
7393,92.0,60.0,120.0,7.0,0.0
7394,51.0,60.0,120.0,7.0,0.0
7395,87.0,60.0,120.0,7.0,0.0
7396,56.0,60.0,120.0,7.0,0.0
7397,84.0,60.0,120.0,7.0,0.0
7398,60.0,0.0,120.0,7.0,0.0
7399,80.0,4.0,60.0,7.0,0.0
7400,81.0,60.0,60.0,7.0,0.0
7401,69.0,0.0,480.0,8.0,0.0
7402,48.0,60.0,120.0,7.0,0.0
7403,57.0,56.0,240.0,11.0,0.0
7404,93.0,60.0,120.0,7.0,0.0
7405,51.0,4.0,120.0,7.0,0.0
7406,87.0,60.0,120.0,7.0,0.0
7407,57.0,4.0,120.0,7.0,0.0
7408,53.0,56.0,120.0,11.0,0.0
7409,84.0,60.0,120.0,7.0,0.0
7410,60.0,0.0,120.0,7.0,0.0
7411,65.0,1.0,120.0,11.0,0.0
7412,81.0,2.0,60.0,7.0,0.0
7413,58.0,0.0,120.0,7.0,0.0
7414,46.0,0.0,120.0,7.0,0.0
7415,70.0,0.0,120.0,8.0,0.0
7416,82.0,30.0,30.0,7.0,0.0
7417,62.0,2.0,120.0,10.0,0.0
7418,58.0,1.0,120.0,11.0,0.0
7419,46.0,2.0,120.0,12.0,0.0
7420,34.0,83.0,120.0,13.0,0.0
7421,89.0,30.0,30.0,7.0,0.0
7422,86.0,0.0,30.0,7.0,0.0
7423,82.0,30.0,30.0,7.0,0.0
7424,86.0,0.0,30.0,7.0,0.0
7425,89.0,2.0,30.0,7.0,0.0
7426,94.0,30.0,150.0,7.0,0.0
7427,70.0,60.0,240.0,3.0,0.0
7428,74.0,30.0,30.0,7.0,0.0
7429,77.0,30.0,30.0,7.0,0.0
7430,70.0,30.0,60.0,7.0,0.0
7431,77.0,0.0,30.0,7.0,0.0
7432,74.0,0.0,30.0,7.0,0.0
7433,70.0,30.0,30.0,7.0,0.0
7434,74.0,6.0,30.0,7.0,0.0
7435,77.0,0.0,30.0,7.0,0.0
7436,82.0,21.0,150.0,7.0,0.0
7437,72.0,24.0,60.0,3.0,0.0
7438,62.0,30.0,30.0,7.0,0.0
7439,70.0,24.0,60.0,3.0,0.0
7440,65.0,6.0,30.0,7.0,0.0
7441,58.0,2.0,120.0,12.0,0.0
7442,68.0,9.0,60.0,3.0,0.0
7443,46.0,44.0,120.0,13.0,0.0
7444,62.0,30.0,30.0,7.0,0.0
7445,65.0,0.0,30.0,7.0,0.0
7446,58.0,0.0,15.0,7.0,0.0
7447,67.0,9.0,60.0,3.0,0.0
7448,62.0,5.0,30.0,7.0,0.0
7449,65.0,0.0,30.0,7.0,0.0
7450,70.0,21.0,150.0,7.0,0.0
7451,65.0,39.0,60.0,3.0,0.0
7452,50.0,21.0,30.0,7.0,0.0
7453,67.0,9.0,60.0,3.0,0.0
7454,53.0,30.0,30.0,7.0,0.0
7455,46.0,0.0,60.0,7.0,0.0
7456,68.0,9.0,60.0,3.0,0.0
7457,53.0,30.0,30.0,7.0,0.0
7458,50.0,0.0,30.0,7.0,0.0
7459,46.0,21.0,30.0,7.0,0.0
7460,62.0,9.0,60.0,3.0,0.0
7461,53.0,51.0,30.0,7.0,0.0
7462,50.0,0.0,30.0,7.0,0.0
7463,58.0,30.0,150.0,7.0,0.0
7464,63.0,39.0,60.0,3.0,0.0
7465,38.0,21.0,30.0,7.0,0.0
7466,65.0,9.0,60.0,3.0,0.0
7467,41.0,30.0,30.0,7.0,0.0
7468,34.0,30.0,60.0,7.0,0.0
7469,58.0,1.0,120.0,12.0,0.0
7470,58.0,1.0,120.0,3.0,0.0
7471,46.0,83.0,120.0,13.0,0.0
7472,55.0,0.0,30.0,7.0,0.0
7473,51.0,0.0,30.0,7.0,0.0
7474,46.0,30.0,30.0,7.0,0.0
7475,51.0,5.0,30.0,7.0,0.0
7476,55.0,0.0,30.0,7.0,0.0
7477,91.0,1.0,240.0,0.0,0.0
7478,58.0,30.0,150.0,7.0,0.0
7479,82.0,5.0,240.0,1.0,0.0
7480,39.0,30.0,30.0,7.0,0.0
7481,43.0,30.0,30.0,7.0,0.0
7482,46.0,0.0,60.0,7.0,0.0
7483,67.0,30.0,30.0,7.0,0.0
7484,63.0,0.0,30.0,7.0,0.0
7485,58.0,30.0,30.0,7.0,0.0
7486,63.0,0.0,30.0,7.0,0.0
7487,67.0,0.0,30.0,7.0,0.0
7488,70.0,30.0,150.0,7.0,0.0
7489,92.0,1.0,60.0,0.0,0.0
7490,84.0,29.0,60.0,1.0,0.0
7491,70.0,54.0,15.0,3.0,0.0
7492,91.0,0.0,60.0,0.0,0.0
7493,51.0,30.0,30.0,7.0,0.0
7494,82.0,5.0,60.0,1.0,0.0
7495,55.0,1.0,30.0,7.0,0.0
7496,70.0,4.0,120.0,8.0,0.0
7497,89.0,0.0,240.0,0.0,0.0
7498,58.0,30.0,60.0,7.0,0.0
7499,80.0,5.0,240.0,1.0,0.0
7500,58.0,1.0,120.0,11.0,0.0
7501,50.0,2.0,120.0,12.0,0.0
7502,70.0,24.0,240.0,3.0,0.0
7503,38.0,83.0,120.0,13.0,0.0
7504,80.0,0.0,30.0,7.0,0.0
7505,77.0,0.0,30.0,7.0,0.0
7506,70.0,30.0,30.0,7.0,0.0
7507,80.0,0.0,30.0,7.0,0.0
7508,77.0,0.0,30.0,7.0,0.0
7509,82.0,30.0,150.0,7.0,0.0
7510,65.0,30.0,30.0,7.0,0.0
7511,68.0,1.0,30.0,7.0,0.0
7512,70.0,30.0,60.0,7.0,0.0
7513,87.0,1.0,240.0,0.0,0.0
7514,70.0,4.0,120.0,8.0,0.0
7515,79.0,5.0,240.0,1.0,0.0
7516,58.0,1.0,120.0,11.0,0.0
7517,51.0,2.0,120.0,12.0,0.0
7518,70.0,45.0,240.0,3.0,0.0
7519,39.0,83.0,120.0,13.0,0.0
7520,87.0,0.0,30.0,7.0,0.0
7521,91.0,0.0,30.0,7.0,0.0
7522,82.0,30.0,30.0,7.0,0.0
7523,91.0,0.0,30.0,7.0,0.0
7524,87.0,0.0,30.0,7.0,0.0
7525,94.0,0.0,180.0,7.0,0.0
7526,75.0,30.0,30.0,7.0,0.0
7527,79.0,0.0,30.0,7.0,0.0
7528,82.0,30.0,60.0,7.0,0.0
7529,70.0,0.0,120.0,8.0,0.0
7530,86.0,1.0,120.0,0.0,0.0
7531,77.0,4.0,120.0,1.0,0.0
7532,46.0,2.0,120.0,12.0,0.0
7533,70.0,9.0,60.0,3.0,0.0
7534,34.0,23.0,120.0,13.0,0.0
7535,86.0,21.0,30.0,7.0,0.0
7536,89.0,0.0,30.0,7.0,0.0
7537,70.0,9.0,60.0,3.0,0.0
7538,94.0,0.0,30.0,7.0,0.0
7539,86.0,0.0,30.0,7.0,0.0
7540,89.0,21.0,30.0,7.0,0.0
7541,70.0,9.0,60.0,3.0,0.0
7542,94.0,30.0,30.0,7.0,0.0
7543,74.0,0.0,30.0,7.0,0.0
7544,77.0,21.0,30.0,7.0,0.0
7545,70.0,9.0,60.0,3.0,0.0
7546,82.0,30.0,30.0,7.0,0.0
7547,77.0,0.0,30.0,7.0,0.0
7548,74.0,21.0,30.0,7.0,0.0
7549,70.0,9.0,60.0,3.0,0.0
7550,82.0,30.0,30.0,7.0,0.0
7551,74.0,21.0,30.0,7.0,0.0
7552,77.0,0.0,30.0,7.0,0.0
7553,70.0,9.0,60.0,3.0,0.0
7554,82.0,30.0,30.0,7.0,0.0
7555,77.0,21.0,30.0,7.0,0.0
7556,74.0,0.0,30.0,7.0,0.0
7557,72.0,9.0,60.0,3.0,0.0
7558,82.0,30.0,30.0,7.0,0.0
7559,62.0,0.0,30.0,7.0,0.0
7560,65.0,21.0,30.0,7.0,0.0
7561,70.0,9.0,60.0,3.0,0.0
7562,70.0,30.0,30.0,7.0,0.0
7563,62.0,21.0,30.0,7.0,0.0
7564,65.0,0.0,30.0,7.0,0.0
7565,58.0,2.0,120.0,12.0,0.0
7566,68.0,9.0,60.0,3.0,0.0
7567,46.0,23.0,120.0,13.0,0.0
7568,70.0,30.0,30.0,7.0,0.0
7569,62.0,0.0,30.0,7.0,0.0
7570,65.0,16.0,30.0,7.0,0.0
7571,80.0,5.0,60.0,1.0,0.0
7572,67.0,9.0,60.0,3.0,0.0
7573,70.0,5.0,30.0,7.0,0.0
7574,62.0,0.0,30.0,7.0,0.0
7575,65.0,16.0,30.0,7.0,0.0
7576,80.0,5.0,60.0,1.0,0.0
7577,65.0,9.0,60.0,3.0,0.0
7578,70.0,30.0,30.0,7.0,0.0
7579,50.0,0.0,30.0,7.0,0.0
7580,53.0,16.0,30.0,7.0,0.0
7581,80.0,5.0,60.0,1.0,0.0
7582,67.0,9.0,60.0,3.0,0.0
7583,58.0,30.0,30.0,7.0,0.0
7584,50.0,16.0,30.0,7.0,0.0
7585,53.0,0.0,30.0,7.0,0.0
7586,80.0,5.0,60.0,1.0,0.0
7587,68.0,9.0,60.0,3.0,0.0
7588,58.0,30.0,30.0,7.0,0.0
7589,53.0,16.0,30.0,7.0,0.0
7590,50.0,0.0,30.0,7.0,0.0
7591,80.0,5.0,60.0,1.0,0.0
7592,62.0,9.0,60.0,3.0,0.0
7593,58.0,30.0,30.0,7.0,0.0
7594,50.0,0.0,30.0,7.0,0.0
7595,53.0,16.0,30.0,7.0,0.0
7596,82.0,5.0,60.0,1.0,0.0
7597,63.0,9.0,60.0,3.0,0.0
7598,58.0,30.0,30.0,7.0,0.0
7599,34.0,16.0,30.0,7.0,0.0
7600,80.0,5.0,60.0,1.0,0.0
7601,65.0,9.0,60.0,3.0,0.0
7602,46.0,30.0,30.0,7.0,0.0
7603,70.0,0.0,120.0,8.0,0.0
7604,34.0,16.0,30.0,7.0,0.0
7605,79.0,5.0,60.0,1.0,0.0
7606,58.0,1.0,120.0,11.0,0.0
7607,58.0,2.0,120.0,12.0,0.0
7608,58.0,9.0,60.0,3.0,0.0
7609,46.0,23.0,120.0,13.0,0.0
7610,91.0,1.0,60.0,0.0,0.0
7611,46.0,30.0,15.0,7.0,0.0
7612,82.0,5.0,60.0,1.0,0.0
7613,70.0,9.0,60.0,3.0,0.0
7614,58.0,4.0,30.0,7.0,0.0
7615,46.0,15.0,30.0,7.0,0.0
7616,91.0,1.0,60.0,0.0,0.0
7617,82.0,5.0,60.0,1.0,0.0
7618,70.0,9.0,60.0,3.0,0.0
7619,58.0,30.0,30.0,7.0,0.0
7620,34.0,15.0,30.0,7.0,0.0
7621,91.0,1.0,60.0,0.0,0.0
7622,82.0,5.0,60.0,1.0,0.0
7623,70.0,9.0,60.0,3.0,0.0
7624,46.0,30.0,30.0,7.0,0.0
7625,34.0,15.0,30.0,7.0,0.0
7626,91.0,1.0,60.0,0.0,0.0
7627,82.0,5.0,60.0,1.0,0.0
7628,70.0,9.0,60.0,3.0,0.0
7629,46.0,30.0,30.0,7.0,0.0
7630,58.0,15.0,30.0,7.0,0.0
7631,91.0,1.0,60.0,0.0,0.0
7632,82.0,5.0,60.0,1.0,0.0
7633,70.0,9.0,60.0,3.0,0.0
7634,70.0,30.0,30.0,7.0,0.0
7635,58.0,15.0,30.0,7.0,0.0
7636,92.0,1.0,60.0,0.0,0.0
7637,84.0,5.0,60.0,1.0,0.0
7638,70.0,9.0,60.0,3.0,0.0
7639,70.0,30.0,30.0,7.0,0.0
7640,46.0,15.0,30.0,7.0,0.0
7641,91.0,1.0,60.0,0.0,0.0
7642,82.0,5.0,60.0,1.0,0.0
7643,70.0,9.0,60.0,3.0,0.0
7644,58.0,30.0,30.0,7.0,0.0
7645,46.0,15.0,30.0,7.0,0.0
7646,70.0,0.0,120.0,8.0,0.0
7647,89.0,1.0,60.0,0.0,0.0
7648,80.0,5.0,60.0,1.0,0.0
7649,58.0,1.0,120.0,11.0,0.0
7650,50.0,2.0,120.0,12.0,0.0
7651,70.0,9.0,60.0,3.0,0.0
7652,38.0,23.0,120.0,13.0,0.0
7653,58.0,30.0,30.0,7.0,0.0
7654,70.0,15.0,30.0,7.0,0.0
7655,89.0,1.0,60.0,0.0,0.0
7656,80.0,5.0,60.0,1.0,0.0
7657,70.0,9.0,60.0,3.0,0.0
7658,82.0,4.0,30.0,7.0,0.0
7659,70.0,15.0,30.0,7.0,0.0
7660,91.0,1.0,60.0,0.0,0.0
7661,82.0,5.0,60.0,1.0,0.0
7662,70.0,9.0,60.0,3.0,0.0
7663,82.0,30.0,30.0,7.0,0.0
7664,89.0,1.0,60.0,0.0,0.0
7665,58.0,15.0,30.0,7.0,0.0
7666,80.0,5.0,60.0,1.0,0.0
7667,70.0,9.0,60.0,3.0,0.0
7668,70.0,30.0,30.0,7.0,0.0
7669,87.0,1.0,60.0,0.0,0.0
7670,70.0,4.0,120.0,8.0,0.0
7671,58.0,15.0,30.0,7.0,0.0
7672,79.0,5.0,60.0,1.0,0.0
7673,58.0,1.0,120.0,11.0,0.0
7674,51.0,2.0,120.0,12.0,0.0
7675,70.0,9.0,60.0,3.0,0.0
7676,39.0,23.0,120.0,13.0,0.0
7677,70.0,30.0,30.0,7.0,0.0
7678,82.0,15.0,30.0,7.0,0.0
7679,87.0,1.0,60.0,0.0,0.0
7680,79.0,5.0,60.0,1.0,0.0
7681,70.0,9.0,60.0,3.0,0.0
7682,94.0,0.0,30.0,7.0,0.0
7683,82.0,15.0,30.0,7.0,0.0
7684,89.0,1.0,60.0,0.0,0.0
7685,80.0,5.0,60.0,1.0,0.0
7686,70.0,9.0,60.0,3.0,0.0
7687,94.0,30.0,30.0,7.0,0.0
7688,87.0,1.0,60.0,0.0,0.0
7689,46.0,15.0,30.0,7.0,0.0
7690,79.0,5.0,60.0,1.0,0.0
7691,70.0,9.0,60.0,3.0,0.0
7692,58.0,45.0,30.0,7.0,0.0
7693,86.0,0.0,120.0,0.0,0.0
7694,46.0,0.0,60.0,7.0,0.0
7695,58.0,0.0,60.0,7.0,0.0
7696,94.0,0.0,60.0,7.0,0.0
7697,82.0,45.0,60.0,7.0,0.0
7698,70.0,0.0,120.0,8.0,0.0
7699,77.0,1.0,120.0,1.0,0.0
7700,58.0,1.0,120.0,11.0,0.0
7701,46.0,1.0,120.0,12.0,0.0
7702,70.0,1.0,120.0,3.0,0.0
7703,34.0,23.0,120.0,13.0,0.0
7704,59.0,2.0,30.0,7.0,0.0
7705,47.0,28.0,30.0,7.0,0.0
7706,58.0,1.0,30.0,7.0,0.0
7707,46.0,2.0,30.0,7.0,0.0
7708,59.0,2.0,30.0,7.0,0.0
7709,47.0,28.0,30.0,7.0,0.0
7710,58.0,2.0,30.0,7.0,0.0
7711,46.0,28.0,30.0,7.0,0.0
7712,59.0,2.0,30.0,7.0,0.0
7713,47.0,28.0,30.0,7.0,0.0
7714,58.0,2.0,30.0,7.0,0.0
7715,46.0,28.0,30.0,7.0,0.0
7716,63.0,2.0,30.0,7.0,0.0
7717,51.0,28.0,30.0,7.0,0.0
7718,62.0,2.0,30.0,7.0,0.0
7719,50.0,28.0,30.0,7.0,0.0
7720,63.0,2.0,30.0,7.0,0.0
7721,51.0,28.0,30.0,7.0,0.0
7722,62.0,2.0,30.0,7.0,0.0
7723,50.0,28.0,30.0,7.0,0.0
7724,66.0,2.0,30.0,7.0,0.0
7725,54.0,28.0,30.0,7.0,0.0
7726,65.0,2.0,30.0,7.0,0.0
7727,53.0,28.0,30.0,7.0,0.0
7728,66.0,2.0,30.0,7.0,0.0
7729,54.0,28.0,30.0,7.0,0.0
7730,65.0,2.0,30.0,7.0,0.0
7731,53.0,28.0,30.0,7.0,0.0
7732,71.0,2.0,30.0,7.0,0.0
7733,59.0,28.0,30.0,7.0,0.0
7734,70.0,2.0,30.0,7.0,0.0
7735,58.0,28.0,30.0,7.0,0.0
7736,71.0,2.0,30.0,7.0,0.0
7737,59.0,28.0,30.0,7.0,0.0
7738,70.0,2.0,30.0,7.0,0.0
7739,58.0,28.0,30.0,7.0,0.0
7740,75.0,2.0,30.0,7.0,0.0
7741,63.0,28.0,30.0,7.0,0.0
7742,74.0,2.0,30.0,7.0,0.0
7743,62.0,28.0,30.0,7.0,0.0
7744,75.0,2.0,30.0,7.0,0.0
7745,63.0,28.0,30.0,7.0,0.0
7746,74.0,2.0,30.0,7.0,0.0
7747,62.0,28.0,30.0,7.0,0.0
7748,78.0,2.0,30.0,7.0,0.0
7749,66.0,28.0,30.0,7.0,0.0
7750,77.0,2.0,30.0,7.0,0.0
7751,65.0,28.0,30.0,7.0,0.0
7752,78.0,2.0,30.0,7.0,0.0
7753,66.0,28.0,30.0,7.0,0.0
7754,77.0,2.0,30.0,7.0,0.0
7755,65.0,28.0,30.0,7.0,0.0
7756,83.0,2.0,30.0,7.0,0.0
7757,71.0,28.0,30.0,7.0,0.0
7758,82.0,2.0,30.0,7.0,0.0
7759,70.0,28.0,30.0,7.0,0.0
7760,83.0,2.0,30.0,7.0,0.0
7761,71.0,28.0,30.0,7.0,0.0
7762,82.0,2.0,30.0,7.0,0.0
7763,70.0,28.0,30.0,7.0,0.0
7764,87.0,2.0,30.0,7.0,0.0
7765,75.0,28.0,30.0,7.0,0.0
7766,86.0,2.0,30.0,7.0,0.0
7767,74.0,28.0,30.0,7.0,0.0
7768,87.0,2.0,30.0,7.0,0.0
7769,75.0,28.0,30.0,7.0,0.0
7770,86.0,2.0,30.0,7.0,0.0
7771,74.0,28.0,30.0,7.0,0.0
7772,90.0,2.0,30.0,7.0,0.0
7773,78.0,28.0,30.0,7.0,0.0
7774,89.0,2.0,30.0,7.0,0.0
7775,77.0,28.0,30.0,7.0,0.0
7776,90.0,2.0,30.0,7.0,0.0
7777,78.0,28.0,30.0,7.0,0.0
7778,89.0,2.0,30.0,7.0,0.0
7779,77.0,28.0,30.0,7.0,0.0
7780,95.0,2.0,30.0,7.0,0.0
7781,83.0,28.0,30.0,7.0,0.0
7782,94.0,2.0,30.0,7.0,0.0
7783,82.0,28.0,30.0,7.0,0.0
7784,95.0,2.0,30.0,7.0,0.0
7785,83.0,28.0,30.0,7.0,0.0
7786,94.0,2.0,30.0,7.0,0.0
7787,82.0,28.0,30.0,7.0,0.0
7788,90.0,2.0,30.0,7.0,0.0
7789,78.0,28.0,30.0,7.0,0.0
7790,89.0,2.0,30.0,7.0,0.0
7791,77.0,28.0,30.0,7.0,0.0
7792,90.0,2.0,30.0,7.0,0.0
7793,78.0,28.0,30.0,7.0,0.0
7794,89.0,2.0,30.0,7.0,0.0
7795,77.0,28.0,30.0,7.0,0.0
7796,95.0,2.0,30.0,7.0,0.0
7797,83.0,28.0,30.0,7.0,0.0
7798,94.0,2.0,30.0,7.0,0.0
7799,82.0,28.0,30.0,7.0,0.0
7800,95.0,2.0,30.0,7.0,0.0
7801,83.0,28.0,30.0,7.0,0.0
7802,94.0,2.0,30.0,7.0,0.0
7803,82.0,28.0,30.0,7.0,0.0
7804,90.0,2.0,30.0,7.0,0.0
7805,78.0,28.0,30.0,7.0,0.0
7806,89.0,2.0,30.0,7.0,0.0
7807,77.0,28.0,30.0,7.0,0.0
7808,90.0,2.0,30.0,7.0,0.0
7809,78.0,28.0,30.0,7.0,0.0
7810,89.0,2.0,30.0,7.0,0.0
7811,77.0,28.0,30.0,7.0,0.0
7812,95.0,2.0,30.0,7.0,0.0
7813,83.0,28.0,30.0,7.0,0.0
7814,94.0,2.0,30.0,7.0,0.0
7815,82.0,28.0,30.0,7.0,0.0
7816,95.0,2.0,30.0,7.0,0.0
7817,83.0,28.0,30.0,7.0,0.0
7818,94.0,2.0,30.0,7.0,0.0
7819,82.0,28.0,30.0,7.0,0.0
7820,90.0,2.0,30.0,7.0,0.0
7821,78.0,28.0,30.0,7.0,0.0
7822,89.0,2.0,30.0,7.0,0.0
7823,77.0,28.0,30.0,7.0,0.0
7824,90.0,2.0,30.0,7.0,0.0
7825,78.0,28.0,30.0,7.0,0.0
7826,89.0,2.0,30.0,7.0,0.0
7827,77.0,28.0,30.0,7.0,0.0
7828,94.0,2.0,30.0,7.0,0.0
7829,82.0,28.0,30.0,7.0,0.0
7830,92.0,2.0,30.0,7.0,0.0
7831,80.0,28.0,30.0,7.0,0.0
7832,94.0,2.0,30.0,7.0,0.0
7833,82.0,28.0,30.0,7.0,0.0
7834,92.0,2.0,30.0,7.0,0.0
7835,80.0,28.0,30.0,7.0,0.0
7836,90.0,2.0,30.0,7.0,0.0
7837,78.0,28.0,30.0,7.0,0.0
7838,89.0,2.0,30.0,7.0,0.0
7839,77.0,28.0,30.0,7.0,0.0
7840,90.0,2.0,30.0,7.0,0.0
7841,78.0,28.0,30.0,7.0,0.0
7842,89.0,2.0,30.0,7.0,0.0
7843,77.0,28.0,30.0,7.0,0.0
7844,94.0,2.0,30.0,7.0,0.0
7845,82.0,28.0,30.0,7.0,0.0
7846,92.0,2.0,30.0,7.0,0.0
7847,80.0,28.0,30.0,7.0,0.0
7848,94.0,2.0,30.0,7.0,0.0
7849,82.0,28.0,30.0,7.0,0.0
7850,92.0,2.0,30.0,7.0,0.0
7851,80.0,28.0,30.0,7.0,0.0
7852,90.0,2.0,30.0,7.0,0.0
7853,78.0,28.0,30.0,7.0,0.0
7854,89.0,2.0,30.0,7.0,0.0
7855,77.0,28.0,30.0,7.0,0.0
7856,90.0,2.0,30.0,7.0,0.0
7857,78.0,28.0,30.0,7.0,0.0
7858,89.0,2.0,30.0,7.0,0.0
7859,77.0,28.0,30.0,7.0,0.0
7860,94.0,2.0,30.0,7.0,0.0
7861,82.0,28.0,30.0,7.0,0.0
7862,92.0,2.0,30.0,7.0,0.0
7863,80.0,28.0,30.0,7.0,0.0
7864,90.0,2.0,30.0,7.0,0.0
7865,78.0,28.0,30.0,7.0,0.0
7866,89.0,2.0,30.0,7.0,0.0
7867,77.0,28.0,30.0,7.0,0.0
7868,94.0,2.0,30.0,7.0,0.0
7869,82.0,28.0,30.0,7.0,0.0
7870,92.0,2.0,30.0,7.0,0.0
7871,80.0,28.0,30.0,7.0,0.0
7872,90.0,2.0,30.0,7.0,0.0
7873,78.0,28.0,30.0,7.0,0.0
7874,89.0,2.0,30.0,7.0,0.0
7875,77.0,28.0,30.0,7.0,0.0
7876,94.0,2.0,30.0,7.0,0.0
7877,82.0,28.0,30.0,7.0,0.0
7878,92.0,2.0,30.0,7.0,0.0
7879,80.0,28.0,30.0,7.0,0.0
7880,90.0,2.0,30.0,7.0,0.0
7881,78.0,28.0,30.0,7.0,0.0
7882,89.0,2.0,30.0,7.0,0.0
7883,77.0,28.0,30.0,7.0,0.0
7884,94.0,2.0,30.0,7.0,0.0
7885,82.0,28.0,30.0,7.0,0.0
7886,92.0,2.0,30.0,7.0,0.0
7887,80.0,28.0,30.0,7.0,0.0
7888,90.0,2.0,30.0,7.0,0.0
7889,78.0,28.0,30.0,7.0,0.0
7890,89.0,2.0,30.0,7.0,0.0
7891,77.0,28.0,30.0,7.0,0.0
7892,94.0,2.0,30.0,7.0,0.0
7893,82.0,28.0,30.0,7.0,0.0
7894,92.0,2.0,30.0,7.0,0.0
7895,80.0,28.0,30.0,7.0,0.0
7896,90.0,2.0,30.0,7.0,0.0
7897,78.0,28.0,30.0,7.0,0.0
7898,89.0,2.0,30.0,7.0,0.0
7899,77.0,28.0,30.0,7.0,0.0
7900,94.0,2.0,30.0,7.0,0.0
7901,82.0,28.0,30.0,7.0,0.0
7902,92.0,2.0,30.0,7.0,0.0
7903,80.0,28.0,30.0,7.0,0.0
7904,90.0,2.0,30.0,7.0,0.0
7905,78.0,28.0,30.0,7.0,0.0
7906,89.0,2.0,30.0,7.0,0.0
7907,77.0,28.0,30.0,7.0,0.0
7908,94.0,2.0,30.0,7.0,0.0
7909,82.0,28.0,30.0,7.0,0.0
7910,92.0,2.0,30.0,7.0,0.0
7911,80.0,28.0,30.0,7.0,0.0
7912,90.0,2.0,30.0,7.0,0.0
7913,78.0,28.0,30.0,7.0,0.0
7914,89.0,2.0,30.0,7.0,0.0
7915,77.0,28.0,30.0,7.0,0.0
7916,82.0,30.0,60.0,7.0,0.0
7917,94.0,30.0,30.0,7.0,0.0
7918,65.0,0.0,120.0,8.0,0.0
7919,62.0,2.0,120.0,10.0,0.0
7920,58.0,36.0,120.0,11.0,0.0
7921,92.0,0.0,30.0,7.0,0.0
7922,70.0,2.0,60.0,7.0,0.0
7923,77.0,0.0,60.0,7.0,0.0
7924,90.0,30.0,30.0,7.0,0.0
7925,89.0,0.0,30.0,7.0,0.0
7926,87.0,40.0,30.0,7.0,0.0
7927,78.0,30.0,90.0,7.0,0.0
7928,75.0,0.0,90.0,7.0,0.0
7929,90.0,0.0,30.0,7.0,0.0
7930,82.0,10.0,30.0,7.0,0.0
7931,90.0,40.0,30.0,7.0,0.0
7932,87.0,0.0,30.0,7.0,0.0
7933,82.0,40.0,30.0,7.0,0.0
7934,66.0,2.0,120.0,8.0,0.0
7935,63.0,2.0,120.0,10.0,0.0
7936,63.0,36.0,120.0,11.0,0.0
7937,86.0,0.0,30.0,7.0,0.0
7938,89.0,40.0,30.0,7.0,0.0
7939,77.0,0.0,60.0,7.0,0.0
7940,70.0,0.0,60.0,7.0,0.0
7941,82.0,0.0,30.0,7.0,0.0
7942,87.0,40.0,30.0,7.0,0.0
7943,75.0,0.0,90.0,7.0,0.0
7944,78.0,30.0,90.0,7.0,0.0
7945,82.0,10.0,30.0,7.0,0.0
7946,87.0,40.0,30.0,7.0,0.0
7947,66.0,2.0,120.0,8.0,0.0
7948,82.0,40.0,30.0,7.0,0.0
7949,63.0,38.0,120.0,10.0,0.0
7950,89.0,0.0,30.0,7.0,0.0
7951,86.0,40.0,30.0,7.0,0.0
7952,77.0,0.0,60.0,7.0,0.0
7953,70.0,0.0,60.0,7.0,0.0
7954,82.0,0.0,30.0,7.0,0.0
7955,78.0,30.0,90.0,7.0,0.0
7956,75.0,0.0,90.0,7.0,0.0
7957,90.0,40.0,30.0,7.0,0.0
7958,87.0,0.0,30.0,7.0,0.0
7959,82.0,10.0,30.0,7.0,0.0
7960,87.0,40.0,30.0,7.0,0.0
7961,90.0,0.0,30.0,7.0,0.0
7962,82.0,40.0,30.0,7.0,0.0
7963,66.0,0.0,120.0,8.0,0.0
7964,63.0,38.0,120.0,10.0,0.0
7965,86.0,0.0,30.0,7.0,0.0
7966,89.0,40.0,30.0,7.0,0.0
7967,77.0,0.0,60.0,7.0,0.0
7968,70.0,2.0,60.0,7.0,0.0
7969,82.0,0.0,30.0,7.0,0.0
7970,78.0,0.0,90.0,7.0,0.0
7971,75.0,30.0,90.0,7.0,0.0
7972,90.0,40.0,30.0,7.0,0.0
7973,87.0,0.0,30.0,7.0,0.0
7974,82.0,10.0,30.0,7.0,0.0
7975,90.0,40.0,30.0,7.0,0.0
7976,87.0,0.0,30.0,7.0,0.0
7977,66.0,0.0,120.0,8.0,0.0
7978,82.0,40.0,30.0,7.0,0.0
7979,63.0,38.0,120.0,10.0,0.0
7980,87.0,40.0,30.0,7.0,0.0
7981,90.0,0.0,30.0,7.0,0.0
7982,77.0,2.0,60.0,7.0,0.0
7983,70.0,0.0,60.0,7.0,0.0
7984,89.0,0.0,30.0,7.0,0.0
7985,86.0,0.0,30.0,7.0,0.0
7986,78.0,30.0,90.0,7.0,0.0
7987,75.0,0.0,90.0,7.0,0.0
7988,90.0,40.0,30.0,7.0,0.0
7989,87.0,0.0,30.0,7.0,0.0
7990,82.0,10.0,30.0,7.0,0.0
7991,90.0,40.0,30.0,7.0,0.0
7992,87.0,0.0,30.0,7.0,0.0
7993,66.0,2.0,120.0,8.0,0.0
7994,82.0,40.0,30.0,7.0,0.0
7995,63.0,38.0,120.0,10.0,0.0
7996,86.0,0.0,30.0,7.0,0.0
7997,89.0,40.0,30.0,7.0,0.0
7998,77.0,0.0,60.0,7.0,0.0
7999,70.0,0.0,60.0,7.0,0.0
8000,82.0,0.0,30.0,7.0,0.0
8001,78.0,0.0,90.0,7.0,0.0
8002,75.0,30.0,90.0,7.0,0.0
8003,87.0,0.0,30.0,7.0,0.0
8004,90.0,40.0,30.0,7.0,0.0
8005,82.0,10.0,30.0,7.0,0.0
8006,87.0,40.0,30.0,7.0,0.0
8007,90.0,0.0,30.0,7.0,0.0
8008,68.0,0.0,120.0,8.0,0.0
8009,85.0,40.0,30.0,7.0,0.0
8010,65.0,2.0,120.0,10.0,0.0
8011,61.0,36.0,120.0,11.0,0.0
8012,92.0,40.0,30.0,7.0,0.0
8013,89.0,0.0,30.0,7.0,0.0
8014,73.0,0.0,60.0,7.0,0.0
8015,85.0,2.0,30.0,7.0,0.0
8016,80.0,0.0,15.0,7.0,0.0
8017,92.0,40.0,30.0,7.0,0.0
8018,89.0,0.0,30.0,7.0,0.0
8019,73.0,0.0,90.0,7.0,0.0
8020,85.0,10.0,30.0,7.0,0.0
8021,92.0,0.0,30.0,7.0,0.0
8022,89.0,40.0,30.0,7.0,0.0
8023,85.0,40.0,30.0,7.0,0.0
8024,68.0,0.0,120.0,8.0,0.0
8025,65.0,2.0,120.0,10.0,0.0
8026,61.0,36.0,120.0,11.0,0.0
8027,92.0,40.0,30.0,7.0,0.0
8028,89.0,0.0,30.0,7.0,0.0
8029,85.0,2.0,30.0,7.0,0.0
8030,92.0,0.0,30.0,7.0,0.0
8031,73.0,0.0,15.0,7.0,0.0
8032,80.0,0.0,15.0,7.0,0.0
8033,89.0,40.0,30.0,7.0,0.0
8034,85.0,10.0,30.0,7.0,0.0
8035,89.0,0.0,30.0,7.0,0.0
8036,92.0,40.0,30.0,7.0,0.0
8037,70.0,0.0,120.0,8.0,0.0
8038,85.0,40.0,30.0,7.0,0.0
8039,66.0,2.0,120.0,10.0,0.0
8040,54.0,36.0,120.0,11.0,0.0
8041,90.0,40.0,30.0,7.0,0.0
8042,94.0,0.0,30.0,7.0,0.0
8043,92.0,0.0,30.0,7.0,0.0
8044,89.0,0.0,30.0,7.0,0.0
8045,94.0,40.0,30.0,7.0,0.0
8046,82.0,2.0,15.0,7.0,0.0
8047,90.0,0.0,30.0,7.0,0.0
8048,78.0,0.0,15.0,7.0,0.0
8049,82.0,10.0,30.0,7.0,0.0
8050,94.0,0.0,30.0,7.0,0.0
8051,90.0,40.0,30.0,7.0,0.0
8052,82.0,40.0,30.0,7.0,0.0
8053,70.0,0.0,120.0,8.0,0.0
8054,66.0,2.0,120.0,10.0,0.0
8055,66.0,36.0,120.0,11.0,0.0
8056,89.0,0.0,30.0,7.0,0.0
8057,92.0,40.0,30.0,7.0,0.0
8058,80.0,0.0,60.0,7.0,0.0
8059,77.0,0.0,60.0,7.0,0.0
8060,94.0,40.0,30.0,7.0,0.0
8061,78.0,30.0,90.0,7.0,0.0
8062,90.0,0.0,30.0,7.0,0.0
8063,82.0,2.0,15.0,7.0,0.0
8064,82.0,10.0,30.0,7.0,0.0
8065,90.0,0.0,30.0,7.0,0.0
8066,94.0,40.0,30.0,7.0,0.0
8067,82.0,40.0,30.0,7.0,0.0
8068,70.0,0.0,120.0,8.0,0.0
8069,66.0,2.0,120.0,10.0,0.0
8070,63.0,36.0,120.0,11.0,0.0
8071,92.0,40.0,30.0,7.0,0.0
8072,89.0,0.0,30.0,7.0,0.0
8073,75.0,0.0,60.0,7.0,0.0
8074,78.0,0.0,60.0,7.0,0.0
8075,90.0,0.0,30.0,7.0,0.0
8076,87.0,2.0,30.0,7.0,0.0
8077,89.0,40.0,30.0,7.0,0.0
8078,77.0,0.0,90.0,7.0,0.0
8079,80.0,30.0,90.0,7.0,0.0
8080,92.0,0.0,30.0,7.0,0.0
8081,82.0,10.0,30.0,7.0,0.0
8082,92.0,40.0,30.0,7.0,0.0
8083,89.0,0.0,30.0,7.0,0.0
8084,68.0,2.0,120.0,8.0,0.0
8085,82.0,40.0,30.0,7.0,0.0
8086,65.0,2.0,120.0,10.0,0.0
8087,58.0,36.0,120.0,11.0,0.0
8088,90.0,0.0,30.0,7.0,0.0
8089,87.0,40.0,30.0,7.0,0.0
8090,78.0,0.0,60.0,7.0,0.0
8091,75.0,0.0,60.0,7.0,0.0
8092,82.0,0.0,30.0,7.0,0.0
8093,89.0,40.0,30.0,7.0,0.0
8094,92.0,0.0,30.0,7.0,0.0
8095,77.0,0.0,90.0,7.0,0.0
8096,80.0,30.0,90.0,7.0,0.0
8097,82.0,10.0,30.0,7.0,0.0
8098,92.0,40.0,30.0,7.0,0.0
8099,89.0,0.0,30.0,7.0,0.0
8100,68.0,2.0,120.0,8.0,0.0
8101,82.0,40.0,30.0,7.0,0.0
8102,65.0,2.0,120.0,10.0,0.0
8103,58.0,36.0,120.0,11.0,0.0
8104,90.0,40.0,30.0,7.0,0.0
8105,87.0,0.0,30.0,7.0,0.0
8106,77.0,0.0,60.0,7.0,0.0
8107,70.0,0.0,60.0,7.0,0.0
8108,86.0,0.0,30.0,7.0,0.0
8109,89.0,0.0,30.0,7.0,0.0
8110,78.0,0.0,90.0,7.0,0.0
8111,75.0,30.0,90.0,7.0,0.0
8112,90.0,40.0,30.0,7.0,0.0
8113,87.0,0.0,30.0,7.0,0.0
8114,82.0,10.0,30.0,7.0,0.0
8115,87.0,40.0,30.0,7.0,0.0
8116,90.0,0.0,30.0,7.0,0.0
8117,82.0,40.0,30.0,7.0,0.0
8118,66.0,2.0,120.0,8.0,0.0
8119,63.0,2.0,120.0,10.0,0.0
8120,63.0,36.0,120.0,11.0,0.0
8121,89.0,40.0,30.0,7.0,0.0
8122,86.0,0.0,30.0,7.0,0.0
8123,77.0,0.0,60.0,7.0,0.0
8124,70.0,0.0,60.0,7.0,0.0
8125,82.0,0.0,30.0,7.0,0.0
8126,78.0,30.0,90.0,7.0,0.0
8127,90.0,40.0,30.0,7.0,0.0
8128,75.0,0.0,90.0,7.0,0.0
8129,87.0,0.0,30.0,7.0,0.0
8130,82.0,10.0,30.0,7.0,0.0
8131,87.0,40.0,30.0,7.0,0.0
8132,90.0,0.0,30.0,7.0,0.0
8133,82.0,40.0,30.0,7.0,0.0
8134,65.0,2.0,120.0,8.0,0.0
8135,62.0,2.0,120.0,10.0,0.0
8136,58.0,56.0,120.0,11.0,0.0
8137,86.0,0.0,30.0,7.0,0.0
8138,89.0,40.0,30.0,7.0,0.0
8139,77.0,0.0,60.0,7.0,0.0
8140,70.0,0.0,60.0,7.0,0.0
8141,82.0,0.0,30.0,7.0,0.0
8142,77.0,0.0,120.0,7.0,0.0
8143,89.0,45.0,60.0,7.0,0.0
8144,70.0,45.0,120.0,7.0,0.0
8145,86.0,0.0,60.0,7.0,0.0
8146,77.0,4.0,480.0,2.0,0.0
8147,46.0,1.0,3840.0,12.0,0.0
8148,62.0,39.0,480.0,3.0,0.0
8149,82.0,15.0,60.0,7.0,0.0
8150,81.0,60.0,60.0,7.0,0.0
8151,82.0,60.0,60.0,7.0,0.0
8152,84.0,60.0,60.0,7.0,0.0
8153,86.0,60.0,60.0,7.0,0.0
8154,87.0,60.0,60.0,7.0,0.0
8155,89.0,17.0,60.0,7.0,0.0
8156,91.0,60.0,60.0,7.0,0.0
8157,39.0,7.0,120.0,7.0,0.0
8158,79.0,4.0,1440.0,2.0,0.0
8159,63.0,54.0,1440.0,3.0,0.0
8160,39.0,38.0,120.0,13.0,0.0
8161,87.0,15.0,60.0,7.0,0.0
8162,67.0,45.0,120.0,7.0,0.0
8163,82.0,60.0,60.0,7.0,0.0
8164,87.0,15.0,60.0,7.0,0.0
8165,79.0,60.0,60.0,7.0,0.0
8166,58.0,45.0,120.0,7.0,0.0
8167,87.0,15.0,60.0,7.0,0.0
8168,67.0,45.0,120.0,7.0,0.0
8169,82.0,60.0,60.0,7.0,0.0
8170,87.0,15.0,60.0,7.0,0.0
8171,91.0,60.0,60.0,7.0,0.0
8172,51.0,7.0,120.0,7.0,0.0
8173,39.0,38.0,120.0,13.0,0.0
8174,87.0,15.0,60.0,7.0,0.0
8175,82.0,60.0,60.0,7.0,0.0
8176,67.0,45.0,120.0,7.0,0.0
8177,87.0,15.0,60.0,7.0,0.0
8178,82.0,60.0,60.0,7.0,0.0
8179,58.0,45.0,120.0,7.0,0.0
8180,91.0,15.0,60.0,7.0,0.0
8181,87.0,60.0,60.0,7.0,0.0
8182,67.0,60.0,120.0,7.0,0.0
8183,91.0,15.0,60.0,7.0,0.0
8184,51.0,7.0,120.0,7.0,0.0
8185,94.0,60.0,60.0,7.0,0.0
8186,39.0,53.0,120.0,13.0,0.0
8187,91.0,0.0,60.0,7.0,0.0
8188,99.0,60.0,60.0,7.0,0.0
8189,67.0,60.0,120.0,7.0,0.0
8190,98.0,0.0,60.0,7.0,0.0
8191,58.0,0.0,120.0,7.0,0.0
8192,96.0,60.0,60.0,7.0,0.0
8193,94.0,60.0,60.0,7.0,0.0
8194,92.0,60.0,60.0,7.0,0.0
8195,67.0,2.0,120.0,7.0,0.0
8196,91.0,0.0,60.0,7.0,0.0
8197,46.0,7.0,120.0,7.0,0.0
8198,94.0,60.0,60.0,7.0,0.0
8199,80.0,4.0,480.0,2.0,0.0
8200,65.0,54.0,480.0,3.0,0.0
8201,34.0,53.0,120.0,13.0,0.0
8202,92.0,0.0,60.0,7.0,0.0
8203,91.0,60.0,60.0,7.0,0.0
8204,68.0,45.0,120.0,7.0,0.0
8205,92.0,0.0,60.0,7.0,0.0
8206,58.0,45.0,120.0,7.0,0.0
8207,92.0,60.0,60.0,7.0,0.0
8208,89.0,15.0,60.0,7.0,0.0
8209,68.0,2.0,120.0,7.0,0.0
8210,91.0,60.0,60.0,7.0,0.0
8211,92.0,15.0,60.0,7.0,0.0
8212,94.0,60.0,60.0,7.0,0.0
8213,46.0,7.0,120.0,7.0,0.0
8214,82.0,4.0,480.0,2.0,0.0
8215,67.0,54.0,480.0,3.0,0.0
8216,34.0,38.0,120.0,13.0,0.0
8217,99.0,0.0,60.0,7.0,0.0
8218,67.0,45.0,120.0,7.0,0.0
8219,103.0,60.0,60.0,7.0,0.0
8220,101.0,15.0,60.0,7.0,0.0
8221,99.0,60.0,60.0,7.0,0.0
8222,58.0,45.0,120.0,7.0,0.0
8223,98.0,15.0,60.0,7.0,0.0
8224,67.0,2.0,120.0,7.0,0.0
8225,96.0,60.0,60.0,7.0,0.0
8226,94.0,15.0,60.0,7.0,0.0
8227,46.0,0.0,120.0,7.0,0.0
8228,92.0,60.0,60.0,7.0,0.0
8229,80.0,4.0,480.0,2.0,0.0
8230,65.0,54.0,480.0,3.0,0.0
8231,34.0,38.0,120.0,13.0,0.0
8232,98.0,7.0,60.0,7.0,0.0
8233,65.0,45.0,120.0,7.0,0.0
8234,101.0,60.0,60.0,7.0,0.0
8235,99.0,15.0,60.0,7.0,0.0
8236,58.0,45.0,120.0,7.0,0.0
8237,98.0,60.0,60.0,7.0,0.0
8238,96.0,15.0,60.0,7.0,0.0
8239,94.0,60.0,60.0,7.0,0.0
8240,65.0,2.0,120.0,7.0,0.0
8241,92.0,15.0,60.0,7.0,0.0
8242,91.0,60.0,60.0,7.0,0.0
8243,46.0,7.0,120.0,7.0,0.0
8244,79.0,3.0,480.0,2.0,0.0
8245,63.0,39.0,480.0,3.0,0.0
8246,34.0,53.0,120.0,13.0,0.0
8247,99.0,0.0,60.0,7.0,0.0
8248,63.0,0.0,120.0,7.0,0.0
8249,94.0,60.0,60.0,7.0,0.0
8250,99.0,60.0,60.0,7.0,0.0
8251,103.0,45.0,60.0,7.0,0.0
8252,58.0,45.0,120.0,7.0,0.0
8253,99.0,15.0,60.0,7.0,0.0
8254,94.0,60.0,60.0,7.0,0.0
8255,63.0,2.0,120.0,7.0,0.0
8256,91.0,15.0,60.0,7.0,0.0
8257,46.0,7.0,120.0,7.0,0.0
8258,89.0,60.0,60.0,7.0,0.0
8259,77.0,0.0,360.0,2.0,0.0
8260,47.0,1.0,360.0,12.0,0.0
8261,65.0,0.0,360.0,3.0,0.0
8262,34.0,38.0,120.0,13.0,0.0
8263,82.0,15.0,60.0,7.0,0.0
8264,77.0,60.0,60.0,7.0,0.0
8265,70.0,60.0,60.0,7.0,0.0
8266,65.0,60.0,60.0,7.0,0.0
8267,58.0,17.0,60.0,7.0,0.0
8268,78.0,1.0,60.0,8.0,0.0
8269,69.0,0.0,60.0,8.0,0.0
8270,86.0,0.0,60.0,0.0,0.0
8271,90.0,0.0,60.0,0.0,0.0
8272,62.0,0.0,60.0,8.0,0.0
8273,86.0,0.0,60.0,1.0,0.0
8274,78.0,1.0,60.0,1.0,0.0
8275,78.0,0.0,60.0,2.0,0.0
8276,74.0,2.0,60.0,10.0,0.0
8277,66.0,0.0,60.0,10.0,0.0
8278,74.0,3.0,15.0,2.0,0.0
8279,69.0,1.0,60.0,11.0,0.0
8280,45.0,1.0,60.0,12.0,0.0
8281,66.0,1.0,60.0,3.0,0.0
8282,62.0,54.0,15.0,3.0,0.0
8283,33.0,113.0,60.0,13.0,0.0
8284,62.0,0.0,60.0,8.0,0.0
8285,69.0,0.0,60.0,8.0,0.0
8286,90.0,1.0,60.0,0.0,0.0
8287,86.0,0.0,60.0,0.0,0.0
8288,78.0,0.0,60.0,8.0,0.0
8289,78.0,0.0,60.0,1.0,0.0
8290,86.0,1.0,60.0,1.0,0.0
8291,69.0,0.0,60.0,4.0,0.0
8292,78.0,0.0,60.0,2.0,0.0
8293,74.0,0.0,60.0,2.0,0.0
8294,66.0,0.0,60.0,10.0,0.0
8295,74.0,2.0,60.0,10.0,0.0
8296,69.0,1.0,60.0,11.0,0.0
8297,45.0,1.0,60.0,12.0,0.0
8298,62.0,1.0,60.0,3.0,0.0
8299,66.0,0.0,60.0,3.0,0.0
8300,33.0,113.0,60.0,13.0,0.0
8301,85.0,1.0,60.0,0.0,0.0
8302,76.0,0.0,60.0,8.0,0.0
8303,88.0,0.0,60.0,0.0,0.0
8304,76.0,1.0,60.0,1.0,0.0
8305,85.0,0.0,60.0,1.0,0.0
8306,69.0,2.0,60.0,4.0,0.0
8307,69.0,0.0,60.0,10.0,0.0
8308,73.0,0.0,60.0,10.0,0.0
8309,73.0,0.0,60.0,2.0,0.0
8310,76.0,0.0,60.0,2.0,0.0
8311,57.0,1.0,60.0,11.0,0.0
8312,45.0,1.0,60.0,12.0,0.0
8313,64.0,0.0,60.0,3.0,0.0
8314,57.0,1.0,60.0,3.0,0.0
8315,33.0,113.0,60.0,13.0,0.0
8316,62.0,0.0,60.0,8.0,0.0
8317,69.0,0.0,60.0,8.0,0.0
8318,74.0,0.0,60.0,8.0,0.0
8319,86.0,1.0,60.0,0.0,0.0
8320,62.0,0.0,60.0,5.0,0.0
8321,86.0,0.0,60.0,1.0,0.0
8322,78.0,0.0,60.0,1.0,0.0
8323,74.0,1.0,60.0,5.0,0.0
8324,62.0,2.0,60.0,4.0,0.0
8325,74.0,0.0,60.0,10.0,0.0
8326,74.0,0.0,60.0,2.0,0.0
8327,66.0,0.0,60.0,10.0,0.0
8328,69.0,0.0,60.0,4.0,0.0
8329,69.0,1.0,60.0,11.0,0.0
8330,50.0,1.0,60.0,12.0,0.0
8331,62.0,0.0,60.0,3.0,0.0
8332,54.0,0.0,60.0,3.0,0.0
8333,50.0,1.0,60.0,6.0,0.0
8334,38.0,113.0,60.0,13.0,0.0
8335,85.0,0.0,60.0,0.0,0.0
8336,76.0,0.0,60.0,8.0,0.0
8337,88.0,1.0,60.0,0.0,0.0
8338,85.0,1.0,60.0,1.0,0.0
8339,76.0,0.0,60.0,1.0,0.0
8340,69.0,0.0,60.0,4.0,0.0
8341,76.0,0.0,60.0,2.0,0.0
8342,73.0,0.0,60.0,10.0,0.0
8343,73.0,0.0,60.0,2.0,0.0
8344,69.0,2.0,60.0,10.0,0.0
8345,57.0,1.0,60.0,11.0,0.0
8346,45.0,1.0,60.0,12.0,0.0
8347,64.0,1.0,60.0,3.0,0.0
8348,57.0,0.0,60.0,3.0,0.0
8349,33.0,113.0,60.0,13.0,0.0
8350,69.0,0.0,60.0,8.0,0.0
8351,90.0,0.0,60.0,0.0,0.0
8352,62.0,1.0,60.0,8.0,0.0
8353,78.0,0.0,60.0,8.0,0.0
8354,86.0,0.0,60.0,0.0,0.0
8355,78.0,1.0,60.0,1.0,0.0
8356,86.0,0.0,60.0,1.0,0.0
8357,69.0,0.0,60.0,4.0,0.0
8358,62.0,0.0,60.0,4.0,0.0
8359,78.0,0.0,60.0,2.0,0.0
8360,74.0,0.0,60.0,10.0,0.0
8361,74.0,2.0,60.0,2.0,0.0
8362,66.0,0.0,60.0,10.0,0.0
8363,69.0,1.0,60.0,11.0,0.0
8364,50.0,1.0,60.0,12.0,0.0
8365,62.0,0.0,60.0,3.0,0.0
8366,66.0,1.0,60.0,3.0,0.0
8367,38.0,113.0,60.0,13.0,0.0
8368,88.0,0.0,60.0,0.0,0.0
8369,76.0,1.0,60.0,8.0,0.0
8370,85.0,0.0,60.0,0.0,0.0
8371,85.0,0.0,60.0,1.0,0.0
8372,76.0,1.0,60.0,1.0,0.0
8373,76.0,2.0,60.0,2.0,0.0
8374,73.0,0.0,60.0,2.0,0.0
8375,69.0,0.0,60.0,10.0,0.0
8376,73.0,0.0,60.0,10.0,0.0
8377,69.0,0.0,60.0,4.0,0.0
8378,57.0,1.0,60.0,11.0,0.0
8379,45.0,1.0,60.0,12.0,0.0
8380,64.0,1.0,60.0,3.0,0.0
8381,57.0,0.0,60.0,3.0,0.0
8382,33.0,113.0,60.0,13.0,0.0
8383,78.0,0.0,60.0,8.0,0.0
8384,86.0,0.0,60.0,0.0,0.0
8385,69.0,0.0,60.0,8.0,0.0
8386,62.0,0.0,60.0,8.0,0.0
8387,90.0,1.0,60.0,0.0,0.0
8388,78.0,0.0,60.0,1.0,0.0
8389,62.0,0.0,60.0,5.0,0.0
8390,86.0,0.0,60.0,1.0,0.0
8391,74.0,1.0,60.0,5.0,0.0
8392,74.0,0.0,60.0,2.0,0.0
8393,69.0,0.0,60.0,4.0,0.0
8394,62.0,0.0,60.0,4.0,0.0
8395,66.0,0.0,60.0,10.0,0.0
8396,74.0,2.0,60.0,10.0,0.0
8397,78.0,0.0,60.0,2.0,0.0
8398,69.0,1.0,60.0,11.0,0.0
8399,50.0,1.0,60.0,12.0,0.0
8400,62.0,1.0,60.0,3.0,0.0
8401,50.0,0.0,60.0,6.0,0.0
8402,66.0,0.0,60.0,3.0,0.0
8403,38.0,113.0,60.0,13.0,0.0
8404,90.0,1.0,60.0,0.0,0.0
8405,86.0,0.0,60.0,0.0,0.0
8406,78.0,0.0,60.0,8.0,0.0
8407,78.0,0.0,60.0,1.0,0.0
8408,86.0,1.0,60.0,1.0,0.0
8409,78.0,2.0,60.0,2.0,0.0
8410,74.0,0.0,60.0,2.0,0.0
8411,62.0,0.0,60.0,4.0,0.0
8412,69.0,0.0,60.0,4.0,0.0
8413,74.0,0.0,60.0,10.0,0.0
8414,66.0,0.0,60.0,10.0,0.0
8415,69.0,1.0,60.0,11.0,0.0
8416,50.0,1.0,60.0,12.0,0.0
8417,62.0,1.0,60.0,3.0,0.0
8418,66.0,0.0,60.0,3.0,0.0
8419,38.0,53.0,60.0,13.0,0.0
8420,76.0,0.0,60.0,8.0,0.0
8421,88.0,0.0,60.0,0.0,0.0
8422,85.0,1.0,60.0,0.0,0.0
8423,85.0,0.0,60.0,1.0,0.0
8424,76.0,1.0,60.0,1.0,0.0
8425,69.0,0.0,60.0,4.0,0.0
8426,76.0,0.0,60.0,2.0,0.0
8427,73.0,0.0,60.0,10.0,0.0
8428,69.0,2.0,60.0,10.0,0.0
8429,73.0,0.0,60.0,2.0,0.0
8430,57.0,1.0,60.0,11.0,0.0
8431,45.0,1.0,60.0,12.0,0.0
8432,57.0,1.0,60.0,3.0,0.0
8433,64.0,0.0,60.0,3.0,0.0
8434,33.0,53.0,60.0,13.0,0.0
8435,86.0,0.0,60.0,0.0,0.0
8436,62.0,0.0,60.0,8.0,0.0
8437,90.0,0.0,60.0,0.0,0.0
8438,78.0,0.0,60.0,8.0,0.0
8439,69.0,1.0,60.0,8.0,0.0
8440,78.0,0.0,60.0,1.0,0.0
8441,62.0,1.0,60.0,5.0,0.0
8442,74.0,0.0,60.0,5.0,0.0
8443,86.0,0.0,60.0,1.0,0.0
8444,66.0,0.0,60.0,10.0,0.0
8445,74.0,0.0,60.0,10.0,0.0
8446,78.0,0.0,60.0,2.0,0.0
8447,62.0,2.0,60.0,4.0,0.0
8448,69.0,0.0,60.0,4.0,0.0
8449,74.0,0.0,60.0,2.0,0.0
8450,69.0,1.0,60.0,11.0,0.0
8451,50.0,1.0,60.0,12.0,0.0
8452,62.0,1.0,60.0,3.0,0.0
8453,66.0,0.0,60.0,3.0,0.0
8454,50.0,0.0,60.0,6.0,0.0
8455,38.0,113.0,60.0,13.0,0.0
8456,85.0,0.0,60.0,0.0,0.0
8457,76.0,1.0,60.0,8.0,0.0
8458,88.0,0.0,60.0,0.0,0.0
8459,85.0,0.0,60.0,1.0,0.0
8460,76.0,1.0,60.0,1.0,0.0
8461,69.0,0.0,60.0,4.0,0.0
8462,73.0,0.0,60.0,2.0,0.0
8463,76.0,0.0,60.0,2.0,0.0
8464,69.0,0.0,60.0,10.0,0.0
8465,73.0,2.0,60.0,10.0,0.0
8466,57.0,1.0,60.0,11.0,0.0
8467,45.0,1.0,60.0,12.0,0.0
8468,57.0,1.0,60.0,3.0,0.0
8469,64.0,0.0,60.0,3.0,0.0
8470,33.0,113.0,60.0,13.0,0.0
8471,62.0,0.0,60.0,8.0,0.0
8472,86.0,0.0,60.0,0.0,0.0
8473,78.0,0.0,60.0,8.0,0.0
8474,90.0,1.0,60.0,0.0,0.0
8475,69.0,0.0,60.0,8.0,0.0
8476,74.0,0.0,60.0,5.0,0.0
8477,62.0,0.0,60.0,5.0,0.0
8478,78.0,1.0,60.0,1.0,0.0
8479,86.0,0.0,60.0,1.0,0.0
8480,62.0,0.0,60.0,4.0,0.0
8481,78.0,0.0,60.0,2.0,0.0
8482,74.0,0.0,60.0,2.0,0.0
8483,69.0,0.0,60.0,4.0,0.0
8484,74.0,0.0,60.0,10.0,0.0
8485,66.0,2.0,60.0,10.0,0.0
8486,69.0,1.0,60.0,11.0,0.0
8487,50.0,1.0,60.0,12.0,0.0
8488,50.0,1.0,60.0,6.0,0.0
8489,62.0,0.0,60.0,3.0,0.0
8490,66.0,0.0,60.0,3.0,0.0
8491,38.0,113.0,60.0,13.0,0.0
8492,90.0,0.0,60.0,0.0,0.0
8493,86.0,1.0,60.0,0.0,0.0
8494,78.0,0.0,60.0,8.0,0.0
8495,62.0,0.0,60.0,5.0,0.0
8496,86.0,1.0,60.0,1.0,0.0
8497,74.0,0.0,60.0,5.0,0.0
8498,78.0,0.0,60.0,1.0,0.0
8499,74.0,2.0,60.0,2.0,0.0
8500,69.0,0.0,60.0,4.0,0.0
8501,78.0,0.0,60.0,2.0,0.0
8502,62.0,0.0,60.0,4.0,0.0
8503,62.0,0.0,60.0,10.0,0.0
8504,69.0,1.0,60.0,11.0,0.0
8505,50.0,1.0,60.0,12.0,0.0
8506,62.0,0.0,60.0,3.0,0.0
8507,66.0,0.0,60.0,3.0,0.0
8508,50.0,1.0,60.0,6.0,0.0
8509,38.0,53.0,60.0,13.0,0.0
8510,79.0,0.0,60.0,8.0,0.0
8511,88.0,0.0,60.0,0.0,0.0
8512,79.0,0.0,60.0,1.0,0.0
8513,69.0,0.0,60.0,4.0,0.0
8514,57.0,1.0,60.0,11.0,0.0
8515,45.0,1.0,60.0,12.0,0.0
8516,67.0,1.0,60.0,3.0,0.0
8517,64.0,0.0,60.0,3.0,0.0
8518,33.0,233.0,60.0,13.0,0.0
8519,91.0,1.0,15.0,0.0,0.0
8520,88.0,1.0,15.0,1.0,0.0
8521,79.0,0.0,240.0,1.0,0.0
8522,79.0,0.0,15.0,2.0,0.0
8523,76.0,0.0,15.0,2.0,0.0
8524,61.0,2.0,15.0,10.0,0.0
8525,57.0,1.0,240.0,11.0,0.0
8526,64.0,0.0,240.0,3.0,0.0
8527,33.0,53.0,240.0,13.0,0.0
8528,88.0,0.0,15.0,0.0,0.0
8529,79.0,1.0,15.0,8.0,0.0
8530,91.0,0.0,15.0,0.0,0.0
8531,88.0,1.0,60.0,1.0,0.0
8532,79.0,0.0,60.0,1.0,0.0
8533,79.0,0.0,15.0,2.0,0.0
8534,73.0,0.0,60.0,10.0,0.0
8535,76.0,0.0,15.0,2.0,0.0
8536,69.0,2.0,15.0,4.0,0.0
8537,57.0,1.0,60.0,11.0,0.0
8538,45.0,1.0,15.0,12.0,0.0
8539,67.0,1.0,15.0,3.0,0.0
8540,64.0,0.0,60.0,3.0,0.0
8541,33.0,55.0,60.0,13.0,0.0
8542,93.0,1.0,60.0,0.0,0.0
8543,81.0,0.0,60.0,8.0,0.0
8544,90.0,0.0,60.0,0.0,0.0
8545,74.0,0.0,60.0,5.0,0.0
8546,90.0,0.0,60.0,1.0,0.0
8547,62.0,1.0,60.0,5.0,0.0
8548,81.0,0.0,60.0,1.0,0.0
8549,78.0,2.0,60.0,10.0,0.0
8550,78.0,0.0,60.0,2.0,0.0
8551,81.0,0.0,60.0,2.0,0.0
8552,69.0,58.0,15.0,4.0,0.0
8553,66.0,0.0,60.0,10.0,0.0
8554,69.0,1.0,60.0,11.0,0.0
8555,50.0,1.0,60.0,12.0,0.0
8556,50.0,0.0,60.0,6.0,0.0
8557,66.0,0.0,60.0,3.0,0.0
8558,69.0,1.0,60.0,3.0,0.0
8559,38.0,53.0,60.0,13.0,0.0
8560,79.0,0.0,60.0,8.0,0.0
8561,88.0,0.0,60.0,0.0,0.0
8562,91.0,1.0,60.0,0.0,0.0
8563,88.0,0.0,60.0,1.0,0.0
8564,79.0,1.0,60.0,1.0,0.0
8565,76.0,0.0,60.0,2.0,0.0
8566,69.0,0.0,60.0,4.0,0.0
8567,79.0,2.0,60.0,2.0,0.0
8568,76.0,0.0,60.0,10.0,0.0
8569,57.0,1.0,60.0,11.0,0.0
8570,45.0,1.0,60.0,12.0,0.0
8571,67.0,0.0,60.0,3.0,0.0
8572,64.0,1.0,60.0,3.0,0.0
8573,33.0,53.0,60.0,13.0,0.0
8574,93.0,0.0,60.0,0.0,0.0
8575,90.0,1.0,60.0,0.0,0.0
8576,66.0,0.0,60.0,8.0,0.0
8577,74.0,0.0,60.0,8.0,0.0
8578,81.0,0.0,60.0,8.0,0.0
8579,90.0,0.0,60.0,1.0,0.0
8580,81.0,1.0,60.0,1.0,0.0
8581,74.0,0.0,60.0,5.0,0.0
8582,62.0,0.0,60.0,5.0,0.0
8583,69.0,2.0,60.0,4.0,0.0
8584,78.0,0.0,60.0,10.0,0.0
8585,81.0,0.0,60.0,2.0,0.0
8586,66.0,0.0,60.0,10.0,0.0
8587,78.0,0.0,60.0,2.0,0.0
8588,69.0,1.0,60.0,11.0,0.0
8589,50.0,1.0,60.0,12.0,0.0
8590,69.0,0.0,60.0,3.0,0.0
8591,66.0,0.0,60.0,3.0,0.0
8592,50.0,1.0,60.0,6.0,0.0
8593,38.0,113.0,60.0,13.0,0.0
8594,79.0,1.0,60.0,8.0,0.0
8595,88.0,0.0,60.0,0.0,0.0
8596,91.0,0.0,60.0,0.0,0.0
8597,88.0,1.0,60.0,1.0,0.0
8598,79.0,0.0,60.0,1.0,0.0
8599,76.0,0.0,60.0,2.0,0.0
8600,76.0,0.0,60.0,10.0,0.0
8601,79.0,2.0,60.0,2.0,0.0
8602,69.0,0.0,60.0,4.0,0.0
8603,57.0,1.0,60.0,11.0,0.0
8604,45.0,1.0,60.0,12.0,0.0
8605,64.0,1.0,60.0,3.0,0.0
8606,67.0,0.0,60.0,3.0,0.0
8607,33.0,68.0,60.0,13.0,0.0
8608,90.0,0.0,15.0,0.0,0.0
8609,93.0,0.0,15.0,0.0,0.0
8610,81.0,1.0,15.0,8.0,0.0
8611,74.0,1.0,120.0,5.0,0.0
8612,62.0,0.0,120.0,5.0,0.0
8613,90.0,0.0,120.0,1.0,0.0
8614,81.0,1.0,15.0,1.0,0.0
8615,78.0,0.0,15.0,10.0,0.0
8616,81.0,0.0,15.0,2.0,0.0
8617,69.0,0.0,120.0,4.0,0.0
8618,78.0,4.0,15.0,2.0,0.0
8619,69.0,1.0,120.0,11.0,0.0
8620,50.0,1.0,120.0,12.0,0.0
8621,69.0,9.0,15.0,3.0,0.0
8622,66.0,0.0,15.0,3.0,0.0
8623,50.0,1.0,120.0,6.0,0.0
8624,38.0,38.0,120.0,13.0,0.0
8625,95.0,0.0,15.0,0.0,0.0
8626,83.0,1.0,15.0,8.0,0.0
8627,91.0,0.0,15.0,0.0,0.0
8628,83.0,1.0,15.0,1.0,0.0
8629,79.0,0.0,15.0,10.0,0.0
8630,79.0,4.0,15.0,2.0,0.0
8631,83.0,0.0,15.0,2.0,0.0
8632,67.0,0.0,15.0,3.0,0.0
8633,71.0,84.0,15.0,3.0,0.0
8634,90.0,0.0,90.0,0.0,0.0
8635,93.0,0.0,90.0,0.0,0.0
8636,81.0,1.0,90.0,8.0,0.0
8637,81.0,0.0,90.0,1.0,0.0
8638,78.0,0.0,90.0,2.0,0.0
8639,81.0,2.0,90.0,2.0,0.0
8640,78.0,0.0,90.0,10.0,0.0
8641,66.0,0.0,90.0,3.0,0.0
8642,69.0,0.0,90.0,3.0,0.0
8643,91.0,0.0,60.0,0.0,0.0
8644,88.0,0.0,60.0,0.0,0.0
8645,79.0,1.0,60.0,8.0,0.0
8646,88.0,0.0,60.0,1.0,0.0
8647,79.0,1.0,60.0,1.0,0.0
8648,76.0,0.0,60.0,2.0,0.0
8649,76.0,0.0,60.0,10.0,0.0
8650,79.0,2.0,60.0,2.0,0.0
8651,57.0,1.0,60.0,11.0,0.0
8652,45.0,1.0,60.0,12.0,0.0
8653,67.0,1.0,60.0,3.0,0.0
8654,64.0,0.0,60.0,3.0,0.0
8655,33.0,10.0,60.0,13.0,0.0
8656,90.0,0.0,60.0,0.0,0.0
8657,86.0,0.0,60.0,0.0,0.0
8658,78.0,1.0,60.0,8.0,0.0
8659,86.0,1.0,60.0,1.0,0.0
8660,78.0,0.0,60.0,1.0,0.0
8661,69.0,43.0,15.0,4.0,0.0
8662,74.0,0.0,60.0,2.0,0.0
8663,78.0,3.0,60.0,2.0,0.0
8664,50.0,1.0,60.0,12.0,0.0
8665,66.0,1.0,60.0,3.0,0.0
8666,62.0,0.0,60.0,3.0,0.0
8667,38.0,10.0,60.0,13.0,0.0
8668,74.0,2.0,60.0,10.0,0.0
8669,69.0,42.0,60.0,11.0,0.0
8670,91.0,0.0,60.0,0.0,0.0
8671,69.0,2.0,60.0,8.0,0.0
8672,88.0,0.0,60.0,0.0,0.0
8673,61.0,0.0,60.0,8.0,0.0
8674,79.0,0.0,60.0,8.0,0.0
8675,79.0,0.0,60.0,1.0,0.0
8676,88.0,1.0,60.0,1.0,0.0
8677,69.0,0.0,15.0,4.0,0.0
8678,79.0,0.0,60.0,2.0,0.0
8679,76.0,0.0,60.0,10.0,0.0
8680,76.0,4.0,60.0,2.0,0.0
8681,69.0,2.0,60.0,10.0,0.0
8682,57.0,1.0,60.0,11.0,0.0
8683,45.0,2.0,60.0,12.0,0.0
8684,64.0,9.0,60.0,3.0,0.0
8685,67.0,0.0,60.0,3.0,0.0
8686,33.0,99.0,60.0,13.0,0.0
8687,90.0,0.0,60.0,0.0,0.0
8688,86.0,0.0,60.0,0.0,0.0
8689,78.0,2.0,60.0,8.0,0.0
8690,78.0,0.0,60.0,1.0,0.0
8691,86.0,1.0,60.0,1.0,0.0
8692,69.0,0.0,60.0,4.0,0.0
8693,74.0,2.0,60.0,10.0,0.0
8694,74.0,4.0,60.0,2.0,0.0
8695,78.0,0.0,60.0,2.0,0.0
8696,69.0,1.0,60.0,11.0,0.0
8697,50.0,2.0,60.0,12.0,0.0
8698,62.0,0.0,60.0,3.0,0.0
8699,66.0,9.0,60.0,3.0,0.0
8700,38.0,68.0,60.0,13.0,0.0
8701,88.0,0.0,15.0,0.0,0.0
8702,91.0,0.0,15.0,0.0,0.0
8703,79.0,1.0,15.0,8.0,0.0
8704,79.0,1.0,15.0,1.0,0.0
8705,62.0,5.0,60.0,5.0,0.0
8706,74.0,0.0,60.0,5.0,0.0
8707,88.0,0.0,15.0,1.0,0.0
8708,69.0,0.0,120.0,4.0,0.0
8709,76.0,0.0,15.0,10.0,0.0
8710,76.0,0.0,15.0,2.0,0.0
8711,79.0,4.0,15.0,2.0,0.0
8712,57.0,1.0,120.0,11.0,0.0
8713,45.0,1.0,120.0,12.0,0.0
8714,64.0,0.0,15.0,3.0,0.0
8715,67.0,9.0,15.0,3.0,0.0
8716,50.0,54.0,60.0,6.0,0.0
8717,33.0,53.0,120.0,13.0,0.0
8718,90.0,0.0,15.0,0.0,0.0
8719,93.0,0.0,15.0,0.0,0.0
8720,81.0,1.0,15.0,8.0,0.0
8721,90.0,0.0,15.0,1.0,0.0
8722,81.0,1.0,15.0,1.0,0.0
8723,81.0,4.0,15.0,2.0,0.0
8724,78.0,0.0,15.0,2.0,0.0
8725,78.0,0.0,15.0,10.0,0.0
8726,69.0,25.0,15.0,3.0,0.0
8727,66.0,0.0,15.0,3.0,0.0
8728,88.0,1.0,90.0,0.0,0.0
8729,91.0,0.0,90.0,0.0,0.0
8730,79.0,0.0,90.0,8.0,0.0
8731,79.0,0.0,90.0,1.0,0.0
8732,88.0,1.0,90.0,1.0,0.0
8733,76.0,2.0,90.0,10.0,0.0
8734,79.0,0.0,90.0,2.0,0.0
8735,76.0,0.0,90.0,2.0,0.0
8736,67.0,1.0,90.0,3.0,0.0
8737,64.0,0.0,90.0,3.0,0.0
8738,90.0,0.0,60.0,0.0,0.0
8739,78.0,0.0,60.0,8.0,0.0
8740,86.0,1.0,60.0,0.0,0.0
8741,81.0,0.0,120.0,5.0,0.0
8742,78.0,1.0,60.0,1.0,0.0
8743,86.0,0.0,60.0,1.0,0.0
8744,62.0,0.0,60.0,4.0,0.0
8745,74.0,0.0,60.0,2.0,0.0
8746,78.0,0.0,60.0,2.0,0.0
8747,74.0,2.0,60.0,10.0,0.0
8748,69.0,0.0,60.0,4.0,0.0
8749,69.0,1.0,60.0,11.0,0.0
8750,50.0,1.0,60.0,12.0,0.0
8751,62.0,0.0,60.0,3.0,0.0
8752,66.0,1.0,60.0,3.0,0.0
8753,38.0,53.0,60.0,13.0,0.0
8754,85.0,0.0,60.0,0.0,0.0
8755,88.0,0.0,60.0,0.0,0.0
8756,76.0,1.0,60.0,8.0,0.0
8757,85.0,1.0,60.0,1.0,0.0
8758,76.0,0.0,60.0,1.0,0.0
8759,76.0,2.0,60.0,2.0,0.0
8760,73.0,0.0,60.0,10.0,0.0
8761,73.0,0.0,60.0,2.0,0.0
8762,57.0,1.0,60.0,11.0,0.0
8763,45.0,1.0,60.0,12.0,0.0
8764,64.0,0.0,60.0,3.0,0.0
8765,57.0,1.0,60.0,3.0,0.0
8766,33.0,53.0,60.0,13.0,0.0
8767,69.0,0.0,60.0,8.0,0.0
8768,90.0,0.0,60.0,0.0,0.0
8769,86.0,0.0,60.0,0.0,0.0
8770,78.0,1.0,60.0,8.0,0.0
8771,62.0,0.0,60.0,8.0,0.0
8772,86.0,1.0,60.0,1.0,0.0
8773,78.0,0.0,60.0,1.0,0.0
8774,74.0,0.0,60.0,5.0,0.0
8775,62.0,0.0,60.0,5.0,0.0
8776,74.0,0.0,60.0,2.0,0.0
8777,69.0,0.0,15.0,4.0,0.0
8778,66.0,0.0,60.0,10.0,0.0
8779,74.0,0.0,60.0,10.0,0.0
8780,62.0,2.0,60.0,4.0,0.0
8781,78.0,0.0,60.0,2.0,0.0
8782,69.0,1.0,60.0,11.0,0.0
8783,50.0,1.0,60.0,12.0,0.0
8784,50.0,0.0,60.0,6.0,0.0
8785,66.0,0.0,60.0,3.0,0.0
8786,62.0,1.0,60.0,3.0,0.0
8787,38.0,113.0,60.0,13.0,0.0
8788,85.0,1.0,60.0,0.0,0.0
8789,76.0,0.0,60.0,8.0,0.0
8790,88.0,0.0,60.0,0.0,0.0
8791,76.0,1.0,60.0,1.0,0.0
8792,85.0,0.0,60.0,1.0,0.0
8793,73.0,2.0,60.0,10.0,0.0
8794,69.0,0.0,60.0,10.0,0.0
8795,73.0,0.0,60.0,2.0,0.0
8796,76.0,0.0,60.0,2.0,0.0
8797,69.0,0.0,60.0,4.0,0.0
8798,57.0,1.0,60.0,11.0,0.0
8799,45.0,1.0,60.0,12.0,0.0
8800,64.0,1.0,60.0,3.0,0.0
8801,57.0,0.0,60.0,3.0,0.0
8802,33.0,113.0,60.0,13.0,0.0
8803,90.0,1.0,60.0,0.0,0.0
8804,86.0,0.0,60.0,0.0,0.0
8805,62.0,0.0,60.0,8.0,0.0
8806,78.0,0.0,60.0,8.0,0.0
8807,69.0,0.0,60.0,8.0,0.0
8808,86.0,0.0,60.0,1.0,0.0
8809,78.0,0.0,60.0,1.0,0.0
8810,62.0,0.0,60.0,5.0,0.0
8811,74.0,1.0,60.0,5.0,0.0
8812,66.0,2.0,60.0,10.0,0.0
8813,74.0,0.0,60.0,10.0,0.0
8814,69.0,0.0,60.0,4.0,0.0
8815,62.0,0.0,60.0,4.0,0.0
8816,78.0,0.0,60.0,2.0,0.0
8817,74.0,0.0,60.0,2.0,0.0
8818,69.0,1.0,60.0,11.0,0.0
8819,50.0,1.0,60.0,12.0,0.0
8820,50.0,0.0,60.0,6.0,0.0
8821,62.0,1.0,60.0,3.0,0.0
8822,66.0,0.0,60.0,3.0,0.0
8823,38.0,113.0,60.0,13.0,0.0
8824,88.0,1.0,60.0,0.0,0.0
8825,76.0,0.0,60.0,8.0,0.0
8826,85.0,0.0,60.0,0.0,0.0
8827,85.0,1.0,60.0,1.0,0.0
8828,76.0,0.0,60.0,1.0,0.0
8829,73.0,0.0,60.0,10.0,0.0
8830,73.0,0.0,60.0,2.0,0.0
8831,69.0,2.0,60.0,4.0,0.0
8832,76.0,0.0,60.0,2.0,0.0
8833,69.0,0.0,60.0,10.0,0.0
8834,57.0,1.0,60.0,11.0,0.0
8835,45.0,1.0,60.0,12.0,0.0
8836,64.0,1.0,60.0,3.0,0.0
8837,57.0,0.0,60.0,3.0,0.0
8838,33.0,173.0,60.0,13.0,0.0
8839,85.0,0.0,120.0,0.0,0.0
8840,88.0,1.0,120.0,0.0,0.0
8841,76.0,0.0,120.0,1.0,0.0
8842,85.0,1.0,120.0,1.0,0.0
8843,76.0,4.0,120.0,2.0,0.0
8844,73.0,0.0,240.0,10.0,0.0
8845,69.0,2.0,240.0,10.0,0.0
8846,73.0,0.0,120.0,2.0,0.0
8847,57.0,1.0,240.0,11.0,0.0
8848,45.0,2.0,240.0,12.0,0.0
8849,64.0,0.0,120.0,3.0,0.0
8850,57.0,114.0,120.0,3.0,0.0
8851,33.0,83.0,240.0,13.0,0.0
8852,76.0,2.0,15.0,8.0,0.0
8853,69.0,2.0,240.0,10.0,0.0
8854,61.0,1.0,240.0,11.0,0.0
8855,57.0,2.0,240.0,12.0,0.0
8856,45.0,23.0,240.0,13.0,0.0
8857,61.0,30.0,30.0,7.0,0.0
8858,57.0,30.0,30.0,7.0,0.0
8859,64.0,30.0,30.0,7.0,0.0
8860,61.0,30.0,30.0,7.0,0.0
8861,69.0,30.0,30.0,7.0,0.0
8862,64.0,0.0,30.0,7.0,0.0
8863,73.0,30.0,30.0,7.0,0.0
8864,76.0,0.0,120.0,8.0,0.0
8865,76.0,1.0,240.0,1.0,0.0
8866,69.0,28.0,240.0,4.0,0.0
8867,73.0,0.0,240.0,2.0,0.0
8868,69.0,2.0,120.0,10.0,0.0
8869,61.0,1.0,120.0,11.0,0.0
8870,57.0,2.0,120.0,12.0,0.0
8871,45.0,23.0,120.0,13.0,0.0
8872,69.0,30.0,30.0,7.0,0.0
8873,76.0,30.0,30.0,7.0,0.0
8874,73.0,2.0,30.0,7.0,0.0
8875,81.0,30.0,30.0,7.0,0.0
8876,76.0,30.0,30.0,7.0,0.0
8877,85.0,30.0,30.0,7.0,0.0
8878,81.0,1.0,30.0,7.0,0.0
8879,88.0,30.0,30.0,7.0,0.0
8880,76.0,1.0,240.0,1.0,0.0
8881,69.0,38.0,240.0,4.0,0.0
8882,73.0,0.0,240.0,2.0,0.0
8883,85.0,30.0,30.0,7.0,0.0
8884,93.0,30.0,30.0,7.0,0.0
8885,88.0,30.0,30.0,7.0,0.0
8886,93.0,30.0,30.0,7.0,0.0
8887,88.0,30.0,30.0,7.0,0.0
8888,97.0,30.0,30.0,7.0,0.0
8889,93.0,1.0,30.0,7.0,0.0
8890,100.0,0.0,120.0,7.0,0.0
8891,55.0,40.0,30.0,7.0,0.0
8892,69.0,2.0,240.0,10.0,0.0
8893,55.0,2.0,240.0,12.0,0.0
8894,64.0,40.0,30.0,7.0,0.0
8895,61.0,40.0,30.0,7.0,0.0
8896,55.0,40.0,30.0,7.0,0.0
8897,52.0,40.0,30.0,7.0,0.0
8898,49.0,0.0,30.0,7.0,0.0
8899,76.0,2.0,15.0,8.0,0.0
8900,43.0,30.0,120.0,7.0,0.0
8901,61.0,1.0,15.0,11.0,0.0
8902,55.0,2.0,240.0,12.0,0.0
8903,43.0,83.0,15.0,13.0,0.0
8904,61.0,30.0,30.0,7.0,0.0
8905,57.0,0.0,30.0,7.0,0.0
8906,64.0,30.0,30.0,7.0,0.0
8907,61.0,30.0,30.0,7.0,0.0
8908,69.0,30.0,30.0,7.0,0.0
8909,64.0,2.0,30.0,7.0,0.0
8910,76.0,0.0,120.0,8.0,0.0
8911,73.0,30.0,30.0,7.0,0.0
8912,73.0,0.0,240.0,2.0,0.0
8913,69.0,2.0,15.0,10.0,0.0
8914,61.0,1.0,15.0,11.0,0.0
8915,55.0,2.0,120.0,12.0,0.0
8916,43.0,23.0,120.0,13.0,0.0
8917,69.0,30.0,30.0,7.0,0.0
8918,76.0,30.0,30.0,7.0,0.0
8919,73.0,2.0,30.0,7.0,0.0
8920,81.0,30.0,30.0,7.0,0.0
8921,76.0,30.0,30.0,7.0,0.0
8922,85.0,30.0,30.0,7.0,0.0
8923,81.0,1.0,30.0,7.0,0.0
8924,88.0,30.0,30.0,7.0,0.0
8925,76.0,1.0,15.0,1.0,0.0
8926,73.0,0.0,240.0,2.0,0.0
8927,69.0,4.0,15.0,4.0,0.0
8928,67.0,24.0,15.0,3.0,0.0
8929,85.0,30.0,30.0,7.0,0.0
8930,93.0,30.0,30.0,7.0,0.0
8931,88.0,30.0,30.0,7.0,0.0
8932,97.0,30.0,30.0,7.0,0.0
8933,93.0,30.0,30.0,7.0,0.0
8934,100.0,30.0,30.0,7.0,0.0
8935,97.0,1.0,30.0,7.0,0.0
8936,54.0,40.0,30.0,7.0,0.0
8937,102.0,40.0,120.0,7.0,0.0
8938,69.0,2.0,240.0,10.0,0.0
8939,42.0,83.0,240.0,13.0,0.0
8940,62.0,40.0,30.0,7.0,0.0
8941,57.0,0.0,30.0,7.0,0.0
8942,54.0,40.0,30.0,7.0,0.0
8943,50.0,40.0,30.0,7.0,0.0
8944,45.0,0.0,30.0,7.0,0.0
8945,42.0,30.0,120.0,7.0,0.0
8946,78.0,2.0,15.0,8.0,0.0
8947,62.0,1.0,15.0,11.0,0.0
8948,54.0,2.0,15.0,12.0,0.0
8949,42.0,23.0,240.0,13.0,0.0
8950,62.0,30.0,30.0,7.0,0.0
8951,57.0,0.0,30.0,7.0,0.0
8952,66.0,30.0,30.0,7.0,0.0
8953,62.0,30.0,30.0,7.0,0.0
8954,69.0,30.0,30.0,7.0,0.0
8955,66.0,2.0,30.0,7.0,0.0
8956,78.0,2.0,120.0,8.0,0.0
8957,74.0,30.0,30.0,7.0,0.0
8958,69.0,2.0,15.0,10.0,0.0
8959,62.0,1.0,120.0,11.0,0.0
8960,54.0,2.0,15.0,12.0,0.0
8961,42.0,23.0,120.0,13.0,0.0
8962,69.0,30.0,30.0,7.0,0.0
8963,78.0,30.0,30.0,7.0,0.0
8964,74.0,0.0,30.0,7.0,0.0
8965,81.0,30.0,30.0,7.0,0.0
8966,78.0,30.0,30.0,7.0,0.0
8967,86.0,30.0,30.0,7.0,0.0
8968,81.0,1.0,30.0,7.0,0.0
8969,90.0,30.0,30.0,7.0,0.0
8970,78.0,1.0,15.0,1.0,0.0
8971,69.0,0.0,15.0,4.0,0.0
8972,74.0,4.0,15.0,2.0,0.0
8973,66.0,24.0,15.0,3.0,0.0
8974,86.0,30.0,30.0,7.0,0.0
8975,93.0,30.0,30.0,7.0,0.0
8976,90.0,30.0,30.0,7.0,0.0
8977,98.0,30.0,30.0,7.0,0.0
8978,93.0,30.0,30.0,7.0,0.0
8979,102.0,30.0,30.0,7.0,0.0
8980,98.0,1.0,30.0,7.0,0.0
8981,67.0,0.0,30.0,7.0,0.0
8982,64.0,30.0,30.0,7.0,0.0
8983,91.0,0.0,120.0,7.0,0.0
8984,103.0,0.0,120.0,7.0,0.0
8985,79.0,2.0,120.0,8.0,0.0
8986,69.0,2.0,120.0,10.0,0.0
8987,61.0,1.0,120.0,11.0,0.0
8988,52.0,2.0,120.0,12.0,0.0
8989,40.0,23.0,120.0,13.0,0.0
8990,69.0,30.0,30.0,7.0,0.0
8991,64.0,0.0,30.0,7.0,0.0
8992,67.0,30.0,30.0,7.0,0.0
8993,69.0,0.0,30.0,7.0,0.0
8994,64.0,0.0,30.0,7.0,0.0
8995,79.0,30.0,240.0,7.0,0.0
8996,67.0,30.0,30.0,7.0,0.0
8997,91.0,0.0,240.0,7.0,0.0
8998,69.0,30.0,30.0,7.0,0.0
8999,67.0,30.0,30.0,7.0,0.0
9000,64.0,0.0,30.0,7.0,0.0
9001,69.0,30.0,30.0,7.0,0.0
9002,67.0,30.0,30.0,7.0,0.0
9003,64.0,0.0,30.0,7.0,0.0
9004,69.0,30.0,30.0,7.0,0.0
9005,67.0,30.0,30.0,7.0,0.0
9006,64.0,0.0,30.0,7.0,0.0
9007,69.0,0.0,30.0,7.0,0.0
9008,64.0,0.0,30.0,7.0,0.0
9009,78.0,0.0,60.0,7.0,0.0
9010,67.0,15.0,30.0,7.0,0.0
9011,90.0,15.0,60.0,7.0,0.0
9012,69.0,30.0,30.0,7.0,0.0
9013,88.0,15.0,60.0,7.0,0.0
9014,76.0,0.0,60.0,7.0,0.0
9015,64.0,0.0,30.0,7.0,0.0
9016,67.0,15.0,30.0,7.0,0.0
9017,69.0,30.0,30.0,7.0,0.0
9018,74.0,0.0,60.0,7.0,0.0
9019,67.0,0.0,30.0,7.0,0.0
9020,64.0,30.0,30.0,7.0,0.0
9021,86.0,0.0,60.0,7.0,0.0
9022,69.0,30.0,30.0,7.0,0.0
9023,67.0,0.0,30.0,7.0,0.0
9024,64.0,30.0,30.0,7.0,0.0
9025,73.0,0.0,60.0,7.0,0.0
9026,85.0,0.0,60.0,7.0,0.0
9027,69.0,30.0,30.0,7.0,0.0
9028,67.0,0.0,30.0,7.0,0.0
9029,64.0,15.0,30.0,7.0,0.0
9030,71.0,0.0,60.0,7.0,0.0
9031,83.0,15.0,60.0,7.0,0.0
9032,81.0,15.0,60.0,7.0,0.0
9033,64.0,0.0,30.0,7.0,0.0
9034,69.0,30.0,15.0,7.0,0.0
9035,67.0,15.0,30.0,7.0,0.0
9036,69.0,0.0,15.0,7.0,0.0
9037,81.0,30.0,60.0,8.0,0.0
9038,57.0,15.0,30.0,7.0,0.0
9039,81.0,15.0,60.0,7.0,0.0
9040,69.0,0.0,30.0,7.0,0.0
9041,56.0,15.0,30.0,7.0,0.0
9042,80.0,15.0,60.0,7.0,0.0
9043,80.0,0.0,60.0,8.0,0.0
9044,68.0,30.0,30.0,7.0,0.0
9045,79.0,15.0,60.0,7.0,0.0
9046,79.0,30.0,60.0,8.0,0.0
9047,55.0,15.0,30.0,7.0,0.0
9048,67.0,0.0,30.0,7.0,0.0
9049,78.0,0.0,60.0,8.0,0.0
9050,54.0,15.0,30.0,7.0,0.0
9051,78.0,15.0,60.0,7.0,0.0
9052,66.0,30.0,30.0,7.0,0.0
9053,52.0,15.0,30.0,7.0,0.0
9054,76.0,0.0,60.0,8.0,0.0
9055,76.0,15.0,60.0,7.0,0.0
9056,76.0,28.0,60.0,10.0,0.0
9057,64.0,2.0,30.0,7.0,0.0
9058,74.0,15.0,60.0,7.0,0.0
9059,50.0,15.0,30.0,7.0,0.0
9060,74.0,28.0,60.0,10.0,0.0
9061,62.0,2.0,30.0,7.0,0.0
9062,73.0,15.0,60.0,7.0,0.0
9063,49.0,15.0,30.0,7.0,0.0
9064,73.0,28.0,60.0,10.0,0.0
9065,61.0,2.0,30.0,7.0,0.0
9066,71.0,15.0,60.0,7.0,0.0
9067,47.0,15.0,30.0,7.0,0.0
9068,71.0,28.0,60.0,10.0,0.0
9069,59.0,2.0,30.0,7.0,0.0
9070,45.0,15.0,30.0,7.0,0.0
9071,69.0,15.0,60.0,7.0,0.0
9072,69.0,2.0,60.0,10.0,0.0
9073,69.0,26.0,60.0,11.0,0.0
9074,57.0,2.0,30.0,7.0,0.0
9075,44.0,15.0,30.0,7.0,0.0
9076,68.0,15.0,60.0,7.0,0.0
9077,68.0,26.0,60.0,11.0,0.0
9078,56.0,4.0,30.0,7.0,0.0
9079,67.0,15.0,60.0,7.0,0.0
9080,43.0,15.0,30.0,7.0,0.0
9081,67.0,26.0,60.0,11.0,0.0
9082,55.0,4.0,30.0,7.0,0.0
9083,66.0,15.0,60.0,7.0,0.0
9084,42.0,15.0,30.0,7.0,0.0
9085,66.0,26.0,60.0,11.0,0.0
9086,54.0,4.0,30.0,7.0,0.0
9087,40.0,0.0,30.0,7.0,0.0
9088,64.0,30.0,30.0,7.0,0.0
9089,64.0,1.0,60.0,11.0,0.0
9090,64.0,2.0,60.0,12.0,0.0
9091,52.0,23.0,60.0,13.0,0.0
9092,62.0,0.0,30.0,7.0,0.0
9093,52.0,4.0,30.0,7.0,0.0
9094,61.0,0.0,30.0,7.0,0.0
9095,38.0,30.0,30.0,7.0,0.0
9096,62.0,2.0,60.0,12.0,0.0
9097,50.0,23.0,60.0,13.0,0.0
9098,59.0,5.0,30.0,7.0,0.0
9099,50.0,0.0,30.0,7.0,0.0
9100,57.0,30.0,30.0,7.0,0.0
9101,37.0,0.0,30.0,7.0,0.0
9102,61.0,2.0,60.0,12.0,0.0
9103,49.0,23.0,60.0,13.0,0.0
9104,49.0,5.0,30.0,7.0,0.0
9105,59.0,0.0,30.0,7.0,0.0
9106,35.0,0.0,30.0,7.0,0.0
9107,57.0,30.0,30.0,7.0,0.0
9108,59.0,2.0,60.0,12.0,0.0
9109,47.0,17.0,60.0,13.0,0.0
9110,56.0,5.0,30.0,7.0,0.0
9111,47.0,0.0,30.0,7.0,0.0
9112,33.0,18.0,30.0,7.0,0.0
9113,57.0,6.0,20.0,7.0,0.0
9114,57.0,2.0,60.0,12.0,0.0
9115,45.0,5.0,60.0,13.0,0.0
9116,59.0,12.0,20.0,7.0,0.0
9117,45.0,5.0,30.0,7.0,0.0
9118,61.0,18.0,20.0,7.0,0.0
9119,69.0,5.0,60.0,8.0,0.0
9120,43.0,6.0,30.0,7.0,0.0
9121,55.0,2.0,60.0,12.0,0.0
9122,43.0,17.0,60.0,13.0,0.0
9123,62.0,24.0,20.0,7.0,0.0
9124,55.0,0.0,30.0,7.0,0.0
9125,64.0,0.0,20.0,7.0,0.0
9126,42.0,18.0,30.0,7.0,0.0
9127,71.0,0.0,60.0,8.0,0.0
9128,66.0,6.0,20.0,7.0,0.0
9129,54.0,2.0,60.0,12.0,0.0
9130,42.0,5.0,60.0,13.0,0.0
9131,67.0,12.0,20.0,7.0,0.0
9132,54.0,5.0,30.0,7.0,0.0
9133,69.0,18.0,20.0,7.0,0.0
9134,73.0,0.0,60.0,8.0,0.0
9135,40.0,6.0,30.0,7.0,0.0
9136,67.0,2.0,60.0,10.0,0.0
9137,57.0,1.0,60.0,11.0,0.0
9138,52.0,2.0,60.0,12.0,0.0
9139,40.0,23.0,60.0,13.0,0.0
9140,71.0,24.0,20.0,7.0,0.0
9141,52.0,2.0,30.0,7.0,0.0
9142,73.0,0.0,20.0,7.0,0.0
9143,74.0,0.0,120.0,8.0,0.0
9144,50.0,15.0,30.0,7.0,0.0
9145,38.0,0.0,30.0,7.0,0.0
9146,74.0,25.0,60.0,7.0,0.0
9147,66.0,2.0,120.0,10.0,0.0
9148,62.0,1.0,120.0,11.0,0.0
9149,50.0,2.0,120.0,12.0,0.0
9150,38.0,23.0,120.0,13.0,0.0
9151,62.0,10.0,30.0,7.0,0.0
9152,76.0,20.0,20.0,7.0,0.0
9153,61.0,10.0,30.0,7.0,0.0
9154,74.0,10.0,20.0,7.0,0.0
9155,73.0,2.0,20.0,7.0,0.0
9156,60.0,15.0,30.0,7.0,0.0
9157,74.0,25.0,60.0,7.0,0.0
9158,59.0,35.0,30.0,7.0,0.0
9159,73.0,0.0,60.0,7.0,0.0
9160,76.0,5.0,60.0,7.0,0.0
9161,58.0,40.0,30.0,7.0,0.0
9162,74.0,0.0,240.0,7.0,0.0
9163,78.0,0.0,240.0,7.0,0.0
9164,57.0,40.0,30.0,7.0,0.0
9165,56.0,40.0,30.0,7.0,0.0
9166,55.0,40.0,30.0,7.0,0.0
9167,74.0,2.0,60.0,8.0,0.0
9168,54.0,16.0,30.0,7.0,0.0
9169,74.0,1.0,60.0,1.0,0.0
9170,62.0,2.0,60.0,10.0,0.0
9171,74.0,4.0,60.0,2.0,0.0
9172,62.0,1.0,60.0,11.0,0.0
9173,62.0,2.0,60.0,12.0,0.0
9174,62.0,9.0,60.0,3.0,0.0
9175,54.0,0.0,60.0,3.0,0.0
9176,50.0,3.0,60.0,13.0,0.0
9177,53.0,36.0,30.0,7.0,0.0
9178,69.0,2.0,60.0,8.0,0.0
9179,76.0,1.0,60.0,1.0,0.0
9180,69.0,2.0,60.0,10.0,0.0
9181,73.0,3.0,60.0,2.0,0.0
9182,57.0,1.0,60.0,11.0,0.0
9183,57.0,2.0,60.0,12.0,0.0
9184,64.0,0.0,60.0,3.0,0.0
9185,57.0,9.0,60.0,3.0,0.0
9186,45.0,23.0,60.0,13.0,0.0
9187,52.0,1.0,30.0,7.0,0.0
9188,50.0,15.0,30.0,7.0,0.0
9189,74.0,0.0,120.0,8.0,0.0
9190,78.0,0.0,60.0,7.0,0.0
9191,74.0,1.0,60.0,7.0,0.0
9192,78.0,1.0,60.0,1.0,0.0
9193,74.0,4.0,60.0,2.0,0.0
9194,62.0,2.0,120.0,10.0,0.0
9195,62.0,1.0,120.0,11.0,0.0
9196,62.0,2.0,120.0,12.0,0.0
9197,62.0,0.0,60.0,3.0,0.0
9198,66.0,19.0,60.0,3.0,0.0
9199,50.0,23.0,120.0,13.0,0.0
9200,62.0,10.0,30.0,7.0,0.0
9201,79.0,0.0,20.0,7.0,0.0
9202,76.0,20.0,20.0,7.0,0.0
9203,61.0,10.0,30.0,7.0,0.0
9204,78.0,10.0,20.0,7.0,0.0
9205,74.0,0.0,20.0,7.0,0.0
9206,76.0,2.0,20.0,7.0,0.0
9207,73.0,0.0,20.0,7.0,0.0
9208,60.0,15.0,30.0,7.0,0.0
9209,74.0,0.0,60.0,7.0,0.0
9210,78.0,25.0,60.0,7.0,0.0
9211,59.0,35.0,30.0,7.0,0.0
9212,76.0,5.0,60.0,7.0,0.0
9213,79.0,0.0,60.0,7.0,0.0
9214,58.0,40.0,30.0,7.0,0.0
9215,78.0,2.0,240.0,7.0,0.0
9216,57.0,40.0,30.0,7.0,0.0
9217,81.0,0.0,240.0,7.0,0.0
9218,56.0,40.0,30.0,7.0,0.0
9219,55.0,40.0,30.0,7.0,0.0
9220,54.0,16.0,30.0,7.0,0.0
9221,74.0,2.0,60.0,8.0,0.0
9222,78.0,1.0,60.0,1.0,0.0
9223,62.0,2.0,60.0,10.0,0.0
9224,74.0,4.0,60.0,2.0,0.0
9225,62.0,1.0,60.0,11.0,0.0
9226,62.0,2.0,60.0,12.0,0.0
9227,62.0,9.0,60.0,3.0,0.0
9228,66.0,0.0,60.0,3.0,0.0
9229,50.0,3.0,60.0,13.0,0.0
9230,53.0,36.0,30.0,7.0,0.0
9231,62.0,0.0,60.0,8.0,0.0
9232,79.0,1.0,60.0,1.0,0.0
9233,76.0,3.0,60.0,2.0,0.0
9234,62.0,2.0,60.0,10.0,0.0
9235,62.0,1.0,60.0,11.0,0.0
9236,50.0,2.0,60.0,12.0,0.0
9237,67.0,0.0,60.0,3.0,0.0
9238,64.0,9.0,60.0,3.0,0.0
9239,38.0,23.0,60.0,13.0,0.0
9240,52.0,1.0,30.0,7.0,0.0
9241,74.0,0.0,120.0,8.0,0.0
9242,86.0,10.0,60.0,7.0,0.0
9243,50.0,16.0,30.0,7.0,0.0
9244,81.0,1.0,60.0,1.0,0.0
9245,62.0,2.0,120.0,10.0,0.0
9246,78.0,4.0,60.0,2.0,0.0
9247,62.0,1.0,120.0,11.0,0.0
9248,62.0,2.0,120.0,12.0,0.0
9249,69.0,9.0,60.0,3.0,0.0
9250,66.0,0.0,60.0,3.0,0.0
9251,50.0,23.0,120.0,13.0,0.0
9252,62.0,10.0,30.0,7.0,0.0
9253,88.0,20.0,20.0,7.0,0.0
9254,86.0,10.0,20.0,7.0,0.0
9255,61.0,10.0,30.0,7.0,0.0
9256,85.0,2.0,20.0,7.0,0.0
9257,86.0,25.0,60.0,7.0,0.0
9258,60.0,15.0,30.0,7.0,0.0
9259,59.0,35.0,30.0,7.0,0.0
9260,88.0,5.0,60.0,7.0,0.0
9261,58.0,40.0,30.0,7.0,0.0
9262,86.0,10.0,60.0,7.0,0.0
9263,57.0,30.0,30.0,7.0,0.0
9264,90.0,0.0,60.0,7.0,0.0
9265,56.0,10.0,30.0,7.0,0.0
9266,88.0,20.0,20.0,7.0,0.0
9267,91.0,0.0,20.0,7.0,0.0
9268,90.0,0.0,20.0,7.0,0.0
9269,86.0,10.0,20.0,7.0,0.0
9270,55.0,10.0,30.0,7.0,0.0
9271,88.0,30.0,20.0,7.0,0.0
9272,85.0,0.0,20.0,7.0,0.0
9273,86.0,25.0,60.0,7.0,0.0
9274,54.0,15.0,30.0,7.0,0.0
9275,90.0,0.0,60.0,7.0,0.0
9276,53.0,35.0,30.0,7.0,0.0
9277,91.0,5.0,60.0,7.0,0.0
9278,88.0,0.0,60.0,7.0,0.0
9279,52.0,40.0,30.0,7.0,0.0
9280,50.0,30.0,30.0,7.0,0.0
9281,95.0,0.0,60.0,7.0,0.0
9282,91.0,30.0,60.0,7.0,0.0
9283,54.0,0.0,30.0,7.0,0.0
9284,93.0,0.0,60.0,7.0,0.0
9285,90.0,30.0,60.0,7.0,0.0
9286,57.0,30.0,30.0,7.0,0.0
9287,62.0,0.0,30.0,7.0,0.0
9288,50.0,15.0,30.0,7.0,0.0
9289,91.0,0.0,60.0,7.0,0.0
9290,62.0,0.0,120.0,8.0,0.0
9291,88.0,15.0,60.0,7.0,0.0
9292,50.0,2.0,120.0,12.0,0.0
9293,38.0,23.0,120.0,13.0,0.0
9294,54.0,30.0,30.0,7.0,0.0
9295,90.0,0.0,60.0,7.0,0.0
9296,86.0,15.0,60.0,7.0,0.0
9297,57.0,15.0,30.0,7.0,0.0
9298,62.0,5.0,30.0,7.0,0.0
9299,64.0,0.0,120.0,8.0,0.0
9300,90.0,0.0,60.0,7.0,0.0
9301,52.0,30.0,30.0,7.0,0.0
9302,86.0,30.0,60.0,7.0,0.0
9303,52.0,2.0,120.0,12.0,0.0
9304,40.0,23.0,120.0,13.0,0.0
9305,55.0,0.0,30.0,7.0,0.0
9306,88.0,0.0,60.0,7.0,0.0
9307,84.0,5.0,60.0,7.0,0.0
9308,60.0,30.0,30.0,7.0,0.0
9309,64.0,0.0,30.0,7.0,0.0
9310,66.0,5.0,120.0,8.0,0.0
9311,86.0,0.0,60.0,7.0,0.0
9312,83.0,15.0,60.0,7.0,0.0
9313,54.0,15.0,30.0,7.0,0.0
9314,54.0,2.0,120.0,12.0,0.0
9315,42.0,23.0,120.0,13.0,0.0
9316,57.0,30.0,30.0,7.0,0.0
9317,81.0,15.0,60.0,7.0,0.0
9318,62.0,15.0,30.0,7.0,0.0
9319,84.0,0.0,60.0,7.0,0.0
9320,66.0,0.0,30.0,7.0,0.0
9321,67.0,0.0,120.0,8.0,0.0
9322,76.0,25.0,60.0,7.0,0.0
9323,79.0,0.0,60.0,7.0,0.0
9324,55.0,15.0,30.0,7.0,0.0
9325,43.0,0.0,30.0,7.0,0.0
9326,55.0,2.0,120.0,12.0,0.0
9327,43.0,23.0,120.0,13.0,0.0
9328,67.0,10.0,30.0,7.0,0.0
9329,81.0,20.0,20.0,7.0,0.0
9330,66.0,10.0,30.0,7.0,0.0
9331,79.0,10.0,20.0,7.0,0.0
9332,78.0,5.0,20.0,7.0,0.0
9333,71.0,0.0,60.0,7.0,0.0
9334,79.0,25.0,60.0,7.0,0.0
9335,65.0,15.0,30.0,7.0,0.0
9336,64.0,35.0,30.0,7.0,0.0
9337,74.0,5.0,60.0,7.0,0.0
9338,81.0,0.0,60.0,7.0,0.0
9339,63.0,40.0,30.0,7.0,0.0
9340,62.0,40.0,30.0,7.0,0.0
9341,79.0,0.0,240.0,7.0,0.0
9342,61.0,40.0,30.0,7.0,0.0
9343,60.0,40.0,30.0,7.0,0.0
9344,59.0,15.0,30.0,7.0,0.0
9345,79.0,2.0,60.0,8.0,0.0
9346,79.0,1.0,60.0,0.0,0.0
9347,71.0,1.0,60.0,1.0,0.0
9348,67.0,3.0,60.0,10.0,0.0
9349,67.0,0.0,60.0,4.0,0.0
9350,59.0,13.0,60.0,4.0,0.0
9351,67.0,2.0,60.0,12.0,0.0
9352,55.0,3.0,60.0,13.0,0.0
9353,58.0,35.0,30.0,7.0,0.0
9354,74.0,0.0,60.0,8.0,0.0
9355,81.0,1.0,60.0,0.0,0.0
9356,74.0,1.0,60.0,1.0,0.0
9357,69.0,0.0,60.0,4.0,0.0
9358,62.0,3.0,60.0,10.0,0.0
9359,62.0,3.0,60.0,4.0,0.0
9360,62.0,2.0,60.0,12.0,0.0
9361,50.0,23.0,60.0,13.0,0.0
9362,57.0,10.0,30.0,7.0,0.0
9363,55.0,15.0,30.0,7.0,0.0
9364,79.0,0.0,120.0,8.0,0.0
9365,83.0,2.0,15.0,7.0,0.0
9366,83.0,1.0,60.0,0.0,0.0
9367,79.0,0.0,60.0,7.0,0.0
9368,79.0,1.0,60.0,1.0,0.0
9369,67.0,3.0,120.0,10.0,0.0
9370,71.0,23.0,60.0,4.0,0.0
9371,67.0,0.0,60.0,4.0,0.0
9372,67.0,2.0,120.0,12.0,0.0
9373,55.0,23.0,120.0,13.0,0.0
9374,67.0,10.0,30.0,7.0,0.0
9375,81.0,20.0,20.0,7.0,0.0
9376,84.0,0.0,20.0,7.0,0.0
9377,66.0,10.0,30.0,7.0,0.0
9378,79.0,0.0,20.0,7.0,0.0
9379,83.0,10.0,20.0,7.0,0.0
9380,78.0,2.0,20.0,7.0,0.0
9381,81.0,0.0,20.0,7.0,0.0
9382,83.0,0.0,60.0,7.0,0.0
9383,79.0,25.0,60.0,7.0,0.0
9384,65.0,15.0,30.0,7.0,0.0
9385,64.0,35.0,30.0,7.0,0.0
9386,81.0,0.0,60.0,7.0,0.0
9387,84.0,5.0,60.0,7.0,0.0
9388,63.0,40.0,30.0,7.0,0.0
9389,83.0,0.0,240.0,7.0,0.0
9390,86.0,0.0,240.0,7.0,0.0
9391,62.0,40.0,30.0,7.0,0.0
9392,61.0,40.0,30.0,7.0,0.0
9393,60.0,40.0,30.0,7.0,0.0
9394,59.0,15.0,30.0,7.0,0.0
9395,83.0,1.0,60.0,0.0,0.0
9396,79.0,2.0,60.0,8.0,0.0
9397,79.0,1.0,60.0,1.0,0.0
9398,67.0,13.0,60.0,4.0,0.0
9399,67.0,3.0,60.0,10.0,0.0
9400,71.0,0.0,60.0,4.0,0.0
9401,67.0,2.0,60.0,12.0,0.0
9402,55.0,3.0,60.0,13.0,0.0
9403,58.0,35.0,30.0,7.0,0.0
9404,84.0,1.0,60.0,0.0,0.0
9405,67.0,2.0,60.0,8.0,0.0
9406,81.0,1.0,60.0,1.0,0.0
9407,72.0,3.0,60.0,4.0,0.0
9408,69.0,0.0,60.0,4.0,0.0
9409,55.0,2.0,60.0,12.0,0.0
9410,43.0,23.0,60.0,13.0,0.0
9411,57.0,10.0,30.0,7.0,0.0
9412,55.0,15.0,30.0,7.0,0.0
9413,86.0,1.0,60.0,0.0,0.0
9414,79.0,10.0,60.0,7.0,0.0
9415,79.0,0.0,120.0,8.0,0.0
9416,83.0,1.0,60.0,1.0,0.0
9417,74.0,13.0,60.0,4.0,0.0
9418,71.0,0.0,60.0,4.0,0.0
9419,67.0,3.0,15.0,10.0,0.0
9420,67.0,2.0,120.0,12.0,0.0
9421,55.0,23.0,120.0,13.0,0.0
9422,55.0,10.0,30.0,7.0,0.0
9423,81.0,20.0,20.0,7.0,0.0
9424,79.0,10.0,20.0,7.0,0.0
9425,54.0,10.0,30.0,7.0,0.0
9426,78.0,2.0,20.0,7.0,0.0
9427,53.0,15.0,30.0,7.0,0.0
9428,79.0,25.0,60.0,7.0,0.0
9429,52.0,35.0,30.0,7.0,0.0
9430,81.0,5.0,60.0,7.0,0.0
9431,51.0,40.0,30.0,7.0,0.0
9432,79.0,10.0,60.0,7.0,0.0
9433,83.0,0.0,60.0,7.0,0.0
9434,50.0,30.0,30.0,7.0,0.0
9435,49.0,10.0,30.0,7.0,0.0
9436,84.0,0.0,20.0,7.0,0.0
9437,81.0,20.0,20.0,7.0,0.0
9438,48.0,10.0,30.0,7.0,0.0
9439,83.0,10.0,20.0,7.0,0.0
9440,79.0,0.0,20.0,7.0,0.0
9441,81.0,30.0,20.0,7.0,0.0
9442,78.0,0.0,20.0,7.0,0.0
9443,79.0,0.0,60.0,7.0,0.0
9444,47.0,15.0,30.0,7.0,0.0
9445,83.0,25.0,60.0,7.0,0.0
9446,46.0,35.0,30.0,7.0,0.0
9447,84.0,0.0,60.0,7.0,0.0
9448,81.0,5.0,60.0,7.0,0.0
9449,45.0,40.0,30.0,7.0,0.0
9450,43.0,30.0,30.0,7.0,0.0
9451,86.0,20.0,60.0,7.0,0.0
9452,83.0,0.0,60.0,7.0,0.0
9453,47.0,0.0,30.0,7.0,0.0
9454,88.0,10.0,20.0,7.0,0.0
9455,84.0,0.0,20.0,7.0,0.0
9456,50.0,10.0,30.0,7.0,0.0
9457,83.0,20.0,20.0,7.0,0.0
9458,86.0,0.0,20.0,7.0,0.0
9459,55.0,30.0,30.0,7.0,0.0
9460,81.0,0.0,20.0,7.0,0.0
9461,84.0,0.0,20.0,7.0,0.0
9462,86.0,0.0,60.0,7.0,0.0
9463,47.0,15.0,30.0,7.0,0.0
9464,83.0,15.0,60.0,7.0,0.0
9465,50.0,30.0,30.0,7.0,0.0
9466,55.0,15.0,30.0,7.0,0.0
9467,81.0,15.0,60.0,7.0,0.0
9468,90.0,0.0,60.0,7.0,0.0
9469,59.0,30.0,30.0,7.0,0.0
9470,83.0,0.0,60.0,7.0,0.0
9471,50.0,15.0,30.0,7.0,0.0
9472,91.0,15.0,60.0,7.0,0.0
9473,55.0,30.0,30.0,7.0,0.0
9474,91.0,15.0,60.0,7.0,0.0
9475,83.0,0.0,60.0,7.0,0.0
9476,59.0,15.0,30.0,7.0,0.0
9477,62.0,30.0,30.0,7.0,0.0
9478,83.0,0.0,60.0,7.0,0.0
9479,55.0,15.0,30.0,7.0,0.0
9480,91.0,15.0,60.0,7.0,0.0
9481,59.0,30.0,30.0,7.0,0.0
9482,83.0,0.0,60.0,7.0,0.0
9483,62.0,15.0,30.0,7.0,0.0
9484,91.0,15.0,60.0,7.0,0.0
9485,67.0,30.0,30.0,7.0,0.0
9486,64.0,2.0,120.0,8.0,0.0
9487,91.0,25.0,60.0,7.0,0.0
9488,79.0,0.0,60.0,7.0,0.0
9489,52.0,15.0,30.0,7.0,0.0
9490,64.0,2.0,120.0,10.0,0.0
9491,52.0,1.0,120.0,11.0,0.0
9492,52.0,2.0,120.0,12.0,0.0
9493,40.0,23.0,120.0,13.0,0.0
9494,64.0,10.0,30.0,7.0,0.0
9495,90.0,20.0,20.0,7.0,0.0
9496,63.0,10.0,30.0,7.0,0.0
9497,88.0,10.0,20.0,7.0,0.0
9498,87.0,0.0,20.0,7.0,0.0
9499,88.0,25.0,60.0,7.0,0.0
9500,62.0,15.0,30.0,7.0,0.0
9501,79.0,0.0,60.0,7.0,0.0
9502,61.0,35.0,30.0,7.0,0.0
9503,87.0,5.0,60.0,7.0,0.0
9504,90.0,0.0,60.0,7.0,0.0
9505,60.0,40.0,30.0,7.0,0.0
9506,91.0,0.0,240.0,7.0,0.0
9507,88.0,1.0,240.0,7.0,0.0
9508,59.0,40.0,30.0,7.0,0.0
9509,58.0,40.0,30.0,7.0,0.0
9510,57.0,40.0,30.0,7.0,0.0
9511,76.0,1.0,60.0,8.0,0.0
9512,56.0,30.0,30.0,7.0,0.0
9513,76.0,1.0,60.0,1.0,0.0
9514,64.0,0.0,60.0,10.0,0.0
9515,76.0,2.0,60.0,2.0,0.0
9516,52.0,1.0,60.0,11.0,0.0
9517,64.0,1.0,60.0,12.0,0.0
9518,64.0,1.0,60.0,3.0,0.0
9519,52.0,3.0,60.0,13.0,0.0
9520,55.0,40.0,30.0,7.0,0.0
9521,71.0,0.0,60.0,8.0,0.0
9522,78.0,1.0,60.0,1.0,0.0
9523,59.0,0.0,60.0,10.0,0.0
9524,75.0,2.0,60.0,2.0,0.0
9525,59.0,1.0,60.0,11.0,0.0
9526,59.0,1.0,60.0,12.0,0.0
9527,66.0,1.0,60.0,3.0,0.0
9528,63.0,0.0,60.0,3.0,0.0
9529,47.0,23.0,60.0,13.0,0.0
9530,54.0,10.0,30.0,7.0,0.0
9531,76.0,0.0,120.0,8.0,0.0
9532,52.0,31.0,30.0,7.0,0.0
9533,79.0,1.0,60.0,1.0,0.0
9534,76.0,4.0,60.0,2.0,0.0
9535,64.0,2.0,120.0,10.0,0.0
9536,52.0,1.0,120.0,11.0,0.0
9537,64.0,2.0,120.0,12.0,0.0
9538,67.0,0.0,60.0,3.0,0.0
9539,64.0,4.0,60.0,3.0,0.0
9540,52.0,23.0,120.0,13.0,0.0
9541,64.0,10.0,30.0,7.0,0.0
9542,90.0,20.0,20.0,7.0,0.0
9543,88.0,10.0,20.0,7.0,0.0
9544,63.0,10.0,30.0,7.0,0.0
9545,87.0,2.0,20.0,7.0,0.0
9546,62.0,15.0,30.0,7.0,0.0
9547,88.0,25.0,60.0,7.0,0.0
9548,61.0,35.0,30.0,7.0,0.0
9549,90.0,0.0,60.0,7.0,0.0
9550,87.0,5.0,60.0,7.0,0.0
9551,60.0,40.0,30.0,7.0,0.0
9552,59.0,15.0,30.0,7.0,0.0
9553,88.0,0.0,60.0,7.0,0.0
9554,91.0,25.0,60.0,7.0,0.0
9555,57.0,10.0,30.0,7.0,0.0
9556,78.0,20.0,20.0,7.0,0.0
9557,55.0,10.0,30.0,7.0,0.0
9558,76.0,10.0,20.0,7.0,0.0
9559,75.0,30.0,20.0,7.0,0.0
9560,76.0,15.0,60.0,7.0,0.0
9561,54.0,15.0,30.0,7.0,0.0
9562,76.0,1.0,60.0,8.0,0.0
9563,79.0,1.0,60.0,1.0,0.0
9564,76.0,2.0,60.0,2.0,0.0
9565,64.0,0.0,60.0,10.0,0.0
9566,64.0,1.0,60.0,11.0,0.0
9567,64.0,1.0,60.0,12.0,0.0
9568,64.0,1.0,60.0,3.0,0.0
9569,67.0,0.0,60.0,3.0,0.0
9570,52.0,3.0,60.0,13.0,0.0
9571,52.0,35.0,30.0,7.0,0.0
9572,74.0,1.0,60.0,8.0,0.0
9573,78.0,5.0,60.0,7.0,0.0
9574,79.0,1.0,60.0,1.0,0.0
9575,62.0,2.0,60.0,10.0,0.0
9576,62.0,1.0,60.0,11.0,0.0
9577,62.0,1.0,60.0,12.0,0.0
9578,50.0,23.0,60.0,13.0,0.0
9579,50.0,10.0,30.0,7.0,0.0
9580,49.0,15.0,30.0,7.0,0.0
9581,73.0,0.0,120.0,8.0,0.0
9582,79.0,15.0,60.0,7.0,0.0
9583,79.0,1.0,120.0,1.0,0.0
9584,61.0,2.0,120.0,10.0,0.0
9585,76.0,0.0,15.0,2.0,0.0
9586,61.0,1.0,120.0,11.0,0.0
9587,61.0,1.0,120.0,12.0,0.0
9588,67.0,0.0,15.0,3.0,0.0
9589,64.0,1.0,15.0,3.0,0.0
9590,49.0,23.0,120.0,13.0,0.0
9591,52.0,20.0,30.0,7.0,0.0
9592,90.0,10.0,20.0,7.0,0.0
9593,55.0,10.0,30.0,7.0,0.0
9594,88.0,20.0,20.0,7.0,0.0
9595,61.0,0.0,30.0,7.0,0.0
9596,87.0,1.0,20.0,7.0,0.0
9597,47.0,15.0,30.0,7.0,0.0
9598,71.0,1.0,60.0,8.0,0.0
9599,76.0,15.0,60.0,7.0,0.0
9600,88.0,0.0,60.0,7.0,0.0
9601,71.0,0.0,60.0,10.0,0.0
9602,76.0,0.0,15.0,2.0,0.0
9603,59.0,1.0,60.0,12.0,0.0
9604,67.0,0.0,15.0,3.0,0.0
9605,64.0,1.0,15.0,3.0,0.0
9606,47.0,23.0,60.0,13.0,0.0
9607,52.0,0.0,30.0,7.0,0.0
9608,55.0,15.0,30.0,7.0,0.0
9609,90.0,15.0,60.0,7.0,0.0
9610,71.0,1.0,60.0,8.0,0.0
9611,78.0,0.0,60.0,7.0,0.0
9612,79.0,1.0,15.0,1.0,0.0
9613,76.0,0.0,60.0,2.0,0.0
9614,71.0,2.0,60.0,10.0,0.0
9615,59.0,1.0,15.0,11.0,0.0
9616,59.0,1.0,60.0,12.0,0.0
9617,67.0,1.0,15.0,3.0,0.0
9618,47.0,23.0,60.0,13.0,0.0
9619,59.0,0.0,30.0,7.0,0.0
9620,79.0,0.0,60.0,7.0,0.0
9621,69.0,1.0,120.0,8.0,0.0
9622,91.0,15.0,60.0,7.0,0.0
9623,45.0,15.0,30.0,7.0,0.0
9624,79.0,1.0,120.0,1.0,0.0
9625,69.0,0.0,120.0,10.0,0.0
9626,76.0,2.0,120.0,2.0,0.0
9627,57.0,1.0,120.0,11.0,0.0
9628,57.0,1.0,120.0,12.0,0.0
9629,64.0,0.0,15.0,3.0,0.0
9630,67.0,1.0,15.0,3.0,0.0
9631,45.0,23.0,120.0,13.0,0.0
9632,49.0,30.0,30.0,7.0,0.0
9633,81.0,0.0,60.0,7.0,0.0
9634,52.0,15.0,30.0,7.0,0.0
9635,93.0,15.0,60.0,7.0,0.0
9636,57.0,0.0,30.0,7.0,0.0
9637,83.0,15.0,60.0,7.0,0.0
9638,95.0,0.0,60.0,7.0,0.0
9639,70.0,1.0,60.0,8.0,0.0
9640,46.0,15.0,30.0,7.0,0.0
9641,76.0,2.0,60.0,2.0,0.0
9642,58.0,1.0,60.0,11.0,0.0
9643,67.0,1.0,15.0,3.0,0.0
9644,49.0,0.0,30.0,7.0,0.0
9645,52.0,15.0,30.0,7.0,0.0
9646,97.0,0.0,60.0,7.0,0.0
9647,85.0,15.0,60.0,7.0,0.0
9648,70.0,0.0,60.0,8.0,0.0
9649,79.0,1.0,15.0,1.0,0.0
9650,76.0,2.0,60.0,2.0,0.0
9651,58.0,1.0,60.0,11.0,0.0
9652,58.0,1.0,15.0,12.0,0.0
9653,67.0,1.0,15.0,3.0,0.0
9654,64.0,0.0,15.0,3.0,0.0
9655,46.0,23.0,15.0,13.0,0.0
9656,58.0,1.0,30.0,7.0,0.0
9657,71.0,0.0,120.0,8.0,0.0
9658,86.0,0.0,60.0,7.0,0.0
9659,98.0,0.0,60.0,7.0,0.0
9660,47.0,1.0,60.0,7.0,0.0
9661,78.0,1.0,60.0,1.0,0.0
9662,74.0,4.0,60.0,2.0,0.0
9663,59.0,1.0,120.0,11.0,0.0
9664,59.0,2.0,120.0,12.0,0.0
9665,66.0,24.0,60.0,3.0,0.0
9666,62.0,0.0,60.0,3.0,0.0
9667,47.0,23.0,120.0,13.0,0.0
9668,86.0,0.0,120.0,7.0,0.0
9669,98.0,30.0,120.0,7.0,0.0
9670,59.0,30.0,30.0,7.0,0.0
9671,58.0,4.0,30.0,7.0,0.0
9672,61.0,30.0,30.0,7.0,0.0
9673,59.0,0.0,30.0,7.0,0.0
9674,62.0,30.0,30.0,7.0,0.0
9675,97.0,0.0,120.0,7.0,0.0
9676,85.0,30.0,120.0,7.0,0.0
9677,61.0,30.0,30.0,7.0,0.0
9678,64.0,30.0,30.0,7.0,0.0
9679,62.0,0.0,30.0,7.0,0.0
9680,66.0,30.0,30.0,7.0,0.0
9681,96.0,0.0,120.0,7.0,0.0
9682,84.0,30.0,120.0,7.0,0.0
9683,65.0,30.0,30.0,7.0,0.0
9684,67.0,30.0,30.0,7.0,0.0
9685,66.0,0.0,30.0,7.0,0.0
9686,68.0,30.0,30.0,7.0,0.0
9687,95.0,30.0,120.0,7.0,0.0
9688,83.0,0.0,120.0,7.0,0.0
9689,67.0,30.0,30.0,7.0,0.0
9690,69.0,30.0,30.0,7.0,0.0
9691,68.0,0.0,30.0,7.0,0.0
9692,70.0,30.0,30.0,7.0,0.0
9693,82.0,0.0,120.0,7.0,0.0
9694,94.0,30.0,120.0,7.0,0.0
9695,69.0,30.0,30.0,7.0,0.0
9696,71.0,30.0,30.0,7.0,0.0
9697,70.0,0.0,30.0,7.0,0.0
9698,81.0,0.0,120.0,7.0,0.0
9699,93.0,30.0,120.0,7.0,0.0
9700,71.0,30.0,30.0,7.0,0.0
9701,70.0,30.0,30.0,7.0,0.0
9702,71.0,30.0,30.0,7.0,0.0
9703,70.0,0.0,30.0,7.0,0.0
9704,71.0,15.0,30.0,7.0,0.0
9705,92.0,0.0,60.0,7.0,0.0
9706,80.0,15.0,60.0,7.0,0.0
9707,70.0,30.0,30.0,7.0,0.0
9708,71.0,1.0,60.0,8.0,0.0
9709,71.0,15.0,30.0,7.0,0.0
9710,91.0,15.0,60.0,7.0,0.0
9711,79.0,0.0,60.0,7.0,0.0
9712,78.0,1.0,60.0,1.0,0.0
9713,59.0,0.0,60.0,10.0,0.0
9714,74.0,2.0,60.0,2.0,0.0
9715,59.0,1.0,60.0,12.0,0.0
9716,66.0,0.0,60.0,3.0,0.0
9717,62.0,1.0,60.0,3.0,0.0
9718,47.0,23.0,60.0,13.0,0.0
9719,66.0,0.0,30.0,7.0,0.0
9720,62.0,15.0,30.0,7.0,0.0
9721,90.0,15.0,60.0,7.0,0.0
9722,78.0,0.0,60.0,7.0,0.0
9723,59.0,1.0,60.0,8.0,0.0
9724,78.0,1.0,60.0,1.0,0.0
9725,74.0,0.0,60.0,2.0,0.0
9726,59.0,2.0,60.0,10.0,0.0
9727,59.0,1.0,15.0,11.0,0.0
9728,47.0,1.0,60.0,12.0,0.0
9729,62.0,1.0,60.0,3.0,0.0
9730,66.0,0.0,60.0,3.0,0.0
9731,35.0,53.0,60.0,13.0,0.0
9732,59.0,0.0,30.0,7.0,0.0
9733,67.0,0.0,120.0,8.0,0.0
9734,83.0,0.0,60.0,7.0,0.0
9735,95.0,0.0,60.0,7.0,0.0
9736,55.0,30.0,60.0,7.0,0.0
9737,83.0,1.0,120.0,1.0,0.0
9738,67.0,2.0,120.0,10.0,0.0
9739,74.0,0.0,120.0,2.0,0.0
9740,55.0,1.0,120.0,11.0,0.0
9741,55.0,1.0,120.0,12.0,0.0
9742,71.0,0.0,120.0,3.0,0.0
9743,67.0,1.0,120.0,3.0,0.0
9744,43.0,23.0,120.0,13.0,0.0
9745,67.0,30.0,30.0,7.0,0.0
9746,95.0,30.0,120.0,7.0,0.0
9747,83.0,0.0,120.0,7.0,0.0
9748,66.0,1.0,30.0,7.0,0.0
9749,69.0,30.0,30.0,7.0,0.0
9750,67.0,0.0,30.0,7.0,0.0
9751,82.0,30.0,120.0,7.0,0.0
9752,94.0,0.0,120.0,7.0,0.0
9753,71.0,30.0,30.0,7.0,0.0
9754,70.0,30.0,30.0,7.0,0.0
9755,73.0,30.0,30.0,7.0,0.0
9756,71.0,0.0,30.0,7.0,0.0
9757,81.0,30.0,120.0,7.0,0.0
9758,75.0,30.0,30.0,7.0,0.0
9759,93.0,0.0,120.0,7.0,0.0
9760,73.0,30.0,30.0,7.0,0.0
9761,76.0,30.0,30.0,7.0,0.0
9762,75.0,0.0,30.0,7.0,0.0
9763,77.0,30.0,30.0,7.0,0.0
9764,92.0,0.0,120.0,7.0,0.0
9765,80.0,0.0,120.0,7.0,0.0
9766,76.0,30.0,30.0,7.0,0.0
9767,78.0,30.0,30.0,7.0,0.0
9768,77.0,30.0,30.0,7.0,0.0
9769,91.0,0.0,120.0,7.0,0.0
9770,79.0,30.0,30.0,7.0,0.0
9771,78.0,30.0,30.0,7.0,0.0
9772,79.0,30.0,30.0,7.0,0.0
9773,78.0,30.0,30.0,7.0,0.0
9774,79.0,30.0,30.0,7.0,0.0
9775,90.0,30.0,60.0,7.0,0.0
9776,78.0,0.0,30.0,7.0,0.0
9777,79.0,30.0,30.0,7.0,0.0
9778,93.0,30.0,60.0,7.0,0.0
9779,78.0,0.0,30.0,7.0,0.0
9780,91.0,0.0,60.0,7.0,0.0
9781,79.0,30.0,30.0,7.0,0.0
9782,78.0,30.0,30.0,7.0,0.0
9783,79.0,1.0,60.0,8.0,0.0
9784,79.0,15.0,30.0,7.0,0.0
9785,90.0,15.0,60.0,7.0,0.0
9786,67.0,2.0,60.0,10.0,0.0
9787,74.0,0.0,60.0,2.0,0.0
9788,67.0,1.0,60.0,11.0,0.0
9789,67.0,1.0,60.0,12.0,0.0
9790,71.0,1.0,60.0,3.0,0.0
9791,67.0,0.0,60.0,3.0,0.0
9792,55.0,23.0,60.0,13.0,0.0
9793,76.0,0.0,30.0,7.0,0.0
9794,71.0,15.0,30.0,7.0,0.0
9795,67.0,1.0,60.0,8.0,0.0
9796,88.0,15.0,60.0,7.0,0.0
9797,83.0,1.0,15.0,1.0,0.0
9798,74.0,0.0,60.0,2.0,0.0
9799,67.0,2.0,60.0,10.0,0.0
9800,55.0,1.0,60.0,11.0,0.0
9801,55.0,1.0,60.0,12.0,0.0
9802,71.0,1.0,60.0,3.0,0.0
9803,67.0,0.0,60.0,3.0,0.0
9804,43.0,53.0,60.0,13.0,0.0
9805,67.0,0.0,30.0,7.0,0.0
9806,55.0,1.0,60.0,7.0,0.0
9807,69.0,2.0,120.0,8.0,0.0
9808,74.0,1.0,60.0,1.0,0.0
9809,69.0,2.0,120.0,10.0,0.0
9810,78.0,4.0,60.0,2.0,0.0
9811,57.0,1.0,120.0,11.0,0.0
9812,57.0,2.0,120.0,12.0,0.0
9813,66.0,24.0,60.0,3.0,0.0
9814,62.0,0.0,60.0,3.0,0.0
9815,45.0,23.0,120.0,13.0,0.0
9816,69.0,30.0,30.0,7.0,0.0
9817,93.0,0.0,30.0,7.0,0.0
9818,66.0,24.0,120.0,3.0,0.0
9819,90.0,0.0,30.0,7.0,0.0
9820,66.0,0.0,30.0,7.0,0.0
9821,93.0,30.0,30.0,7.0,0.0
9822,69.0,0.0,30.0,7.0,0.0
9823,90.0,2.0,30.0,7.0,0.0
9824,66.0,0.0,30.0,7.0,0.0
9825,86.0,30.0,30.0,7.0,0.0
9826,62.0,0.0,30.0,7.0,0.0
9827,81.0,4.0,15.0,2.0,0.0
9828,66.0,24.0,120.0,3.0,0.0
9829,90.0,30.0,30.0,7.0,0.0
9830,66.0,0.0,30.0,7.0,0.0
9831,62.0,30.0,30.0,7.0,0.0
9832,86.0,0.0,30.0,7.0,0.0
9833,66.0,2.0,30.0,7.0,0.0
9834,90.0,0.0,30.0,7.0,0.0
9835,81.0,30.0,30.0,7.0,0.0
9836,57.0,0.0,30.0,7.0,0.0
9837,79.0,4.0,120.0,2.0,0.0
9838,64.0,24.0,120.0,3.0,0.0
9839,62.0,30.0,30.0,7.0,0.0
9840,86.0,0.0,30.0,7.0,0.0
9841,81.0,30.0,30.0,7.0,0.0
9842,57.0,0.0,30.0,7.0,0.0
9843,86.0,2.0,30.0,7.0,0.0
9844,62.0,0.0,30.0,7.0,0.0
9845,78.0,0.0,30.0,7.0,0.0
9846,54.0,30.0,30.0,7.0,0.0
9847,78.0,4.0,60.0,2.0,0.0
9848,81.0,0.0,30.0,7.0,0.0
9849,57.0,2.0,30.0,7.0,0.0
9850,54.0,30.0,30.0,7.0,0.0
9851,78.0,0.0,30.0,7.0,0.0
9852,78.0,4.0,540.0,2.0,0.0
9853,62.0,24.0,15.0,3.0,0.0
9854,57.0,0.0,30.0,7.0,0.0
9855,81.0,30.0,30.0,7.0,0.0
9856,50.0,0.0,30.0,7.0,0.0
9857,74.0,30.0,30.0,7.0,0.0
9858,78.0,0.0,30.0,7.0,0.0
9859,54.0,30.0,30.0,7.0,0.0
9860,50.0,30.0,30.0,7.0,0.0
9861,74.0,0.0,30.0,7.0,0.0
9862,54.0,0.0,30.0,7.0,0.0
9863,78.0,30.0,30.0,7.0,0.0
9864,69.0,0.0,30.0,7.0,0.0
9865,45.0,30.0,30.0,7.0,0.0
9866,50.0,0.0,30.0,7.0,0.0
9867,74.0,30.0,30.0,7.0,0.0
9868,69.0,0.0,30.0,7.0,0.0
9869,45.0,30.0,30.0,7.0,0.0
9870,50.0,30.0,30.0,7.0,0.0
9871,74.0,0.0,30.0,7.0,0.0
9872,66.0,0.0,30.0,7.0,0.0
9873,42.0,30.0,30.0,7.0,0.0
9874,45.0,30.0,30.0,7.0,0.0
9875,69.0,0.0,30.0,7.0,0.0
9876,42.0,0.0,30.0,7.0,0.0
9877,66.0,30.0,30.0,7.0,0.0
9878,81.0,0.0,60.0,8.0,0.0
9879,69.0,1.0,60.0,11.0,0.0
9880,69.0,2.0,60.0,12.0,0.0
9881,57.0,23.0,60.0,13.0,0.0
9882,69.0,2.0,30.0,7.0,0.0
9883,45.0,0.0,30.0,7.0,0.0
9884,38.0,0.0,30.0,7.0,0.0
9885,62.0,30.0,30.0,7.0,0.0
9886,69.0,2.0,15.0,10.0,0.0
9887,57.0,1.0,60.0,11.0,0.0
9888,45.0,53.0,60.0,13.0,0.0
9889,42.0,0.0,30.0,7.0,0.0
9890,66.0,0.0,30.0,7.0,0.0
9891,69.0,2.0,15.0,8.0,0.0
9892,33.0,2.0,60.0,7.0,0.0
9893,69.0,2.0,15.0,10.0,0.0
9894,57.0,1.0,120.0,11.0,0.0
9895,57.0,2.0,15.0,12.0,0.0
9896,45.0,23.0,120.0,13.0,0.0
9897,93.0,30.0,30.0,7.0,0.0
9898,69.0,0.0,30.0,7.0,0.0
9899,65.0,2.0,30.0,7.0,0.0
9900,89.0,0.0,30.0,7.0,0.0
9901,93.0,0.0,30.0,7.0,0.0
9902,69.0,30.0,30.0,7.0,0.0
9903,89.0,2.0,30.0,7.0,0.0
9904,65.0,0.0,30.0,7.0,0.0
9905,62.0,30.0,30.0,7.0,0.0
9906,86.0,0.0,30.0,7.0,0.0
9907,81.0,4.0,15.0,2.0,0.0
9908,66.0,24.0,15.0,3.0,0.0
9909,89.0,30.0,30.0,7.0,0.0
9910,65.0,0.0,30.0,7.0,0.0
9911,62.0,30.0,30.0,7.0,0.0
9912,86.0,0.0,30.0,7.0,0.0
9913,65.0,0.0,30.0,7.0,0.0
9914,89.0,2.0,30.0,7.0,0.0
9915,57.0,30.0,30.0,7.0,0.0
9916,81.0,0.0,30.0,7.0,0.0
9917,79.0,4.0,120.0,2.0,0.0
9918,64.0,24.0,120.0,3.0,0.0
9919,86.0,0.0,30.0,7.0,0.0
9920,62.0,30.0,30.0,7.0,0.0
9921,81.0,0.0,30.0,7.0,0.0
9922,57.0,30.0,30.0,7.0,0.0
9923,62.0,2.0,30.0,7.0,0.0
9924,86.0,0.0,30.0,7.0,0.0
9925,53.0,0.0,30.0,7.0,0.0
9926,77.0,30.0,30.0,7.0,0.0
9927,62.0,24.0,60.0,3.0,0.0
9928,81.0,2.0,30.0,7.0,0.0
9929,57.0,0.0,30.0,7.0,0.0
9930,77.0,0.0,30.0,7.0,0.0
9931,53.0,30.0,30.0,7.0,0.0
9932,77.0,4.0,15.0,2.0,0.0
9933,62.0,1.0,600.0,3.0,0.0
9934,57.0,0.0,30.0,7.0,0.0
9935,81.0,30.0,30.0,7.0,0.0
9936,74.0,0.0,30.0,7.0,0.0
9937,50.0,30.0,30.0,7.0,0.0
9938,53.0,30.0,30.0,7.0,0.0
9939,77.0,0.0,30.0,7.0,0.0
9940,50.0,30.0,30.0,7.0,0.0
9941,74.0,0.0,30.0,7.0,0.0
9942,77.0,30.0,30.0,7.0,0.0
9943,53.0,0.0,30.0,7.0,0.0
9944,45.0,30.0,30.0,7.0,0.0
9945,69.0,0.0,30.0,7.0,0.0
9946,50.0,0.0,30.0,7.0,0.0
9947,74.0,30.0,30.0,7.0,0.0
9948,69.0,0.0,30.0,7.0,0.0
9949,45.0,30.0,30.0,7.0,0.0
9950,50.0,0.0,30.0,7.0,0.0
9951,74.0,30.0,30.0,7.0,0.0
9952,41.0,0.0,30.0,7.0,0.0
9953,65.0,30.0,30.0,7.0,0.0
9954,69.0,30.0,30.0,7.0,0.0
9955,45.0,0.0,30.0,7.0,0.0
9956,81.0,2.0,60.0,8.0,0.0
9957,41.0,30.0,30.0,7.0,0.0
9958,65.0,0.0,30.0,7.0,0.0
9959,69.0,2.0,60.0,10.0,0.0
9960,69.0,1.0,60.0,11.0,0.0
9961,69.0,2.0,60.0,12.0,0.0
9962,57.0,23.0,60.0,13.0,0.0
9963,69.0,0.0,30.0,7.0,0.0
9964,45.0,0.0,30.0,7.0,0.0
9965,69.0,0.0,60.0,8.0,0.0
9966,38.0,30.0,30.0,7.0,0.0
9967,62.0,0.0,30.0,7.0,0.0
9968,69.0,2.0,60.0,10.0,0.0
9969,57.0,1.0,60.0,11.0,0.0
9970,57.0,2.0,60.0,12.0,0.0
9971,45.0,23.0,60.0,13.0,0.0
9972,65.0,0.0,30.0,7.0,0.0
9973,41.0,2.0,30.0,7.0,0.0
9974,44.0,30.0,30.0,7.0,0.0
9975,58.0,0.0,30.0,7.0,0.0
9976,68.0,0.0,120.0,8.0,0.0
9977,68.0,2.0,120.0,10.0,0.0
9978,56.0,1.0,120.0,11.0,0.0
9979,56.0,1.0,120.0,12.0,0.0
9980,44.0,23.0,120.0,13.0,0.0
9981,53.0,0.0,30.0,7.0,0.0
9982,65.0,30.0,30.0,7.0,0.0
9983,50.0,0.0,30.0,7.0,0.0
9984,62.0,30.0,30.0,7.0,0.0
9985,56.0,0.0,30.0,7.0,0.0
9986,50.0,2.0,30.0,7.0,0.0
9987,53.0,0.0,30.0,7.0,0.0
9988,65.0,0.0,30.0,7.0,0.0
9989,56.0,0.0,30.0,7.0,0.0
9990,70.0,30.0,30.0,7.0,0.0
9991,53.0,0.0,30.0,7.0,0.0
9992,65.0,0.0,30.0,7.0,0.0
9993,50.0,30.0,30.0,7.0,0.0
9994,56.0,30.0,30.0,7.0,0.0
9995,62.0,0.0,30.0,7.0,0.0
9996,53.0,0.0,30.0,7.0,0.0
9997,50.0,0.0,30.0,7.0,0.0
9998,65.0,30.0,30.0,7.0,0.0
9999,41.0,30.0,30.0,7.0,0.0
10000,62.0,0.0,30.0,7.0,0.0
10001,65.0,0.0,120.0,8.0,0.0
10002,53.0,2.0,120.0,12.0,0.0
10003,41.0,23.0,120.0,13.0,0.0
10004,50.0,0.0,30.0,7.0,0.0
10005,53.0,30.0,30.0,7.0,0.0
10006,70.0,0.0,30.0,7.0,0.0
10007,65.0,0.0,30.0,7.0,0.0
10008,56.0,30.0,30.0,7.0,0.0
10009,50.0,0.0,30.0,7.0,0.0
10010,53.0,0.0,30.0,7.0,0.0
10011,70.0,5.0,30.0,7.0,0.0
10012,56.0,0.0,30.0,7.0,0.0
10013,74.0,30.0,30.0,7.0,0.0
10014,53.0,0.0,30.0,7.0,0.0
10015,50.0,0.0,30.0,7.0,0.0
10016,70.0,30.0,30.0,7.0,0.0
10017,65.0,0.0,30.0,7.0,0.0
10018,56.0,30.0,30.0,7.0,0.0
10019,53.0,30.0,30.0,7.0,0.0
10020,50.0,0.0,30.0,7.0,0.0
10021,70.0,0.0,30.0,7.0,0.0
10022,65.0,0.0,30.0,7.0,0.0
10023,38.0,30.0,30.0,7.0,0.0
10024,62.0,5.0,120.0,8.0,0.0
10025,50.0,2.0,120.0,12.0,0.0
10026,38.0,23.0,120.0,13.0,0.0
10027,53.0,0.0,30.0,7.0,0.0
10028,50.0,0.0,30.0,7.0,0.0
10029,74.0,30.0,30.0,7.0,0.0
10030,56.0,0.0,30.0,7.0,0.0
10031,70.0,30.0,30.0,7.0,0.0
10032,53.0,0.0,30.0,7.0,0.0
10033,50.0,0.0,30.0,7.0,0.0
10034,74.0,0.0,30.0,7.0,0.0
10035,56.0,0.0,30.0,7.0,0.0
10036,77.0,30.0,30.0,7.0,0.0
10037,74.0,0.0,30.0,7.0,0.0
10038,50.0,30.0,30.0,7.0,0.0
10039,53.0,0.0,30.0,7.0,0.0
10040,56.0,0.0,30.0,7.0,0.0
10041,70.0,30.0,30.0,7.0,0.0
10042,53.0,30.0,30.0,7.0,0.0
10043,74.0,0.0,30.0,7.0,0.0
10044,50.0,0.0,30.0,7.0,0.0
10045,70.0,0.0,480.0,8.0,0.0
10046,44.0,30.0,30.0,7.0,0.0
10047,70.0,0.0,30.0,7.0,0.0
10048,58.0,1.0,960.0,11.0,0.0
10049,56.0,2.0,120.0,12.0,0.0
10050,44.0,23.0,120.0,13.0,0.0
10051,53.0,0.0,30.0,7.0,0.0
10052,50.0,0.0,30.0,7.0,0.0
10053,77.0,30.0,30.0,7.0,0.0
10054,74.0,30.0,30.0,7.0,0.0
10055,56.0,0.0,30.0,7.0,0.0
10056,82.0,0.0,30.0,7.0,0.0
10057,50.0,0.0,30.0,7.0,0.0
10058,53.0,5.0,30.0,7.0,0.0
10059,74.0,30.0,30.0,7.0,0.0
10060,56.0,0.0,30.0,7.0,0.0
10061,82.0,0.0,30.0,7.0,0.0
10062,50.0,0.0,30.0,7.0,0.0
10063,53.0,30.0,30.0,7.0,0.0
10064,77.0,30.0,30.0,7.0,0.0
10065,56.0,0.0,30.0,7.0,0.0
10066,86.0,0.0,30.0,7.0,0.0
10067,50.0,0.0,30.0,7.0,0.0
10068,53.0,30.0,30.0,7.0,0.0
10069,43.0,0.0,30.0,7.0,0.0
10070,75.0,5.0,30.0,7.0,0.0
10071,55.0,25.0,30.0,12.0,0.0
10072,43.0,23.0,120.0,13.0,0.0
10073,46.0,5.0,30.0,7.0,0.0
10074,87.0,0.0,30.0,7.0,0.0
10075,55.0,25.0,30.0,12.0,0.0
10076,74.0,5.0,30.0,7.0,0.0
10077,51.0,0.0,30.0,7.0,0.0
10078,55.0,25.0,30.0,12.0,0.0
10079,86.0,0.0,30.0,7.0,0.0
10080,55.0,5.0,30.0,7.0,0.0
10081,72.0,5.0,30.0,7.0,0.0
10082,43.0,0.0,30.0,7.0,0.0
10083,55.0,2.0,15.0,12.0,0.0
10084,84.0,5.0,30.0,7.0,0.0
10085,46.0,0.0,30.0,7.0,0.0
10086,55.0,25.0,15.0,12.0,0.0
10087,70.0,5.0,30.0,7.0,0.0
10088,51.0,0.0,30.0,7.0,0.0
10089,55.0,25.0,15.0,12.0,0.0
10090,55.0,5.0,30.0,7.0,0.0
10091,82.0,0.0,30.0,7.0,0.0
10092,55.0,25.0,15.0,12.0,0.0
10093,68.0,0.0,240.0,8.0,0.0
10094,41.0,0.0,30.0,7.0,0.0
10095,80.0,5.0,30.0,7.0,0.0
10096,53.0,25.0,30.0,12.0,0.0
10097,92.0,0.0,30.0,7.0,0.0
10098,46.0,5.0,30.0,7.0,0.0
10099,79.0,5.0,30.0,7.0,0.0
10100,50.0,0.0,30.0,7.0,0.0
10101,53.0,25.0,15.0,12.0,0.0
10102,53.0,5.0,30.0,7.0,0.0
10103,91.0,0.0,30.0,7.0,0.0
10104,53.0,25.0,30.0,12.0,0.0
10105,41.0,5.0,30.0,7.0,0.0
10106,77.0,0.0,30.0,7.0,0.0
10107,53.0,25.0,30.0,12.0,0.0
10108,46.0,0.0,30.0,7.0,0.0
10109,89.0,5.0,30.0,7.0,0.0
10110,53.0,25.0,30.0,12.0,0.0
10111,75.0,0.0,30.0,7.0,0.0
10112,50.0,5.0,30.0,7.0,0.0
10113,53.0,0.0,30.0,7.0,0.0
10114,87.0,5.0,30.0,7.0,0.0
10115,53.0,25.0,15.0,12.0,0.0
10116,67.0,4.0,240.0,8.0,0.0
10117,39.0,5.0,30.0,7.0,0.0
10118,84.0,0.0,30.0,7.0,0.0
10119,51.0,25.0,30.0,12.0,0.0
10120,96.0,0.0,30.0,7.0,0.0
10121,43.0,5.0,30.0,7.0,0.0
10122,46.0,0.0,30.0,7.0,0.0
10123,82.0,5.0,30.0,7.0,0.0
10124,51.0,25.0,15.0,12.0,0.0
10125,94.0,0.0,30.0,7.0,0.0
10126,51.0,5.0,30.0,7.0,0.0
10127,51.0,25.0,15.0,12.0,0.0
10128,39.0,5.0,30.0,7.0,0.0
10129,80.0,0.0,30.0,7.0,0.0
10130,51.0,25.0,30.0,12.0,0.0
10131,92.0,0.0,30.0,7.0,0.0
10132,43.0,5.0,30.0,7.0,0.0
10133,46.0,5.0,30.0,7.0,0.0
10134,79.0,0.0,30.0,7.0,0.0
10135,51.0,25.0,15.0,12.0,0.0
10136,91.0,0.0,30.0,7.0,0.0
10137,51.0,0.0,30.0,7.0,0.0
10138,51.0,25.0,30.0,12.0,0.0
10139,44.0,5.0,30.0,7.0,0.0
10140,89.0,0.0,30.0,7.0,0.0
10141,72.0,0.0,240.0,8.0,0.0
10142,60.0,1.0,240.0,11.0,0.0
10143,44.0,25.0,30.0,12.0,0.0
10144,48.0,5.0,30.0,7.0,0.0
10145,101.0,0.0,30.0,7.0,0.0
10146,44.0,25.0,30.0,12.0,0.0
10147,51.0,5.0,30.0,7.0,0.0
10148,87.0,0.0,30.0,7.0,0.0
10149,99.0,0.0,30.0,7.0,0.0
10150,56.0,5.0,30.0,7.0,0.0
10151,44.0,25.0,15.0,12.0,0.0
10152,44.0,5.0,30.0,7.0,0.0
10153,86.0,0.0,30.0,7.0,0.0
10154,44.0,25.0,15.0,12.0,0.0
10155,98.0,0.0,30.0,7.0,0.0
10156,48.0,5.0,30.0,7.0,0.0
10157,51.0,0.0,30.0,7.0,0.0
10158,84.0,5.0,30.0,7.0,0.0
10159,44.0,25.0,15.0,12.0,0.0
10160,56.0,4.0,30.0,7.0,0.0
10161,96.0,0.0,30.0,7.0,0.0
10162,44.0,35.0,30.0,12.0,0.0
10163,71.0,1.0,720.0,8.0,0.0
10164,83.0,40.0,30.0,7.0,0.0
10165,95.0,0.0,720.0,0.0,0.0
10166,44.0,40.0,120.0,7.0,0.0
10167,83.0,3.0,720.0,1.0,0.0
10168,59.0,1.0,720.0,11.0,0.0
10169,44.0,19.0,720.0,12.0,0.0
10170,95.0,40.0,30.0,7.0,0.0
10171,92.0,0.0,30.0,7.0,0.0
10172,89.0,40.0,30.0,7.0,0.0
10173,86.0,40.0,30.0,7.0,0.0
10174,83.0,40.0,30.0,7.0,0.0
10175,80.0,40.0,30.0,7.0,0.0
10176,77.0,40.0,30.0,7.0,0.0
10177,74.0,40.0,30.0,7.0,0.0
10178,71.0,40.0,30.0,7.0,0.0
10179,68.0,40.0,30.0,7.0,0.0
10180,65.0,30.0,30.0,7.0,0.0
10181,62.0,30.0,30.0,7.0,0.0
10182,59.0,30.0,30.0,7.0,0.0
10183,56.0,30.0,30.0,7.0,0.0
10184,53.0,40.0,30.0,7.0,0.0
10185,50.0,40.0,30.0,7.0,0.0
10186,47.0,40.0,30.0,7.0,0.0
10187,44.0,0.0,30.0,7.0,0.0
10188,94.0,1.0,240.0,0.0,0.0
10189,70.0,0.0,240.0,8.0,0.0
10190,43.0,24.0,20.0,7.0,0.0
10191,82.0,3.0,240.0,1.0,0.0
10192,58.0,1.0,240.0,11.0,0.0
10193,43.0,1.0,240.0,12.0,0.0
10194,46.0,24.0,20.0,7.0,0.0
10195,49.0,24.0,20.0,7.0,0.0
10196,52.0,24.0,20.0,7.0,0.0
10197,55.0,24.0,20.0,7.0,0.0
10198,58.0,24.0,20.0,7.0,0.0
10199,61.0,24.0,20.0,7.0,0.0
10200,64.0,30.0,20.0,7.0,0.0
10201,67.0,18.0,20.0,7.0,0.0
10202,70.0,24.0,20.0,7.0,0.0
10203,93.0,1.0,600.0,0.0,0.0
10204,69.0,1.0,660.0,8.0,0.0
10205,42.0,5.0,30.0,7.0,0.0
10206,81.0,1.0,600.0,1.0,0.0
10207,74.0,3.0,60.0,2.0,0.0
10208,57.0,1.0,720.0,11.0,0.0
10209,42.0,25.0,30.0,12.0,0.0
10210,62.0,24.0,60.0,3.0,0.0
10211,45.0,2.0,30.0,7.0,0.0
10212,54.0,1.0,30.0,12.0,0.0
10213,50.0,5.0,30.0,7.0,0.0
10214,73.0,3.0,60.0,2.0,0.0
10215,61.0,24.0,60.0,3.0,0.0
10216,54.0,2.0,30.0,7.0,0.0
10217,54.0,25.0,15.0,12.0,0.0
10218,57.0,5.0,30.0,7.0,0.0
10219,71.0,3.0,60.0,2.0,0.0
10220,54.0,25.0,30.0,12.0,0.0
10221,59.0,24.0,60.0,3.0,0.0
10222,62.0,2.0,30.0,7.0,0.0
10223,66.0,5.0,30.0,7.0,0.0
10224,69.0,3.0,60.0,2.0,0.0
10225,54.0,1.0,15.0,12.0,0.0
10226,57.0,24.0,60.0,3.0,0.0
10227,69.0,2.0,30.0,7.0,0.0
10228,54.0,1.0,30.0,12.0,0.0
10229,40.0,5.0,30.0,7.0,0.0
10230,79.0,3.0,60.0,2.0,0.0
10231,67.0,3.0,240.0,10.0,0.0
10232,67.0,24.0,60.0,3.0,0.0
10233,45.0,2.0,30.0,7.0,0.0
10234,52.0,25.0,15.0,12.0,0.0
10235,49.0,5.0,30.0,7.0,0.0
10236,78.0,3.0,60.0,2.0,0.0
10237,52.0,1.0,15.0,12.0,0.0
10238,66.0,24.0,60.0,3.0,0.0
10239,52.0,2.0,30.0,7.0,0.0
10240,52.0,25.0,15.0,12.0,0.0
10241,57.0,5.0,30.0,7.0,0.0
10242,76.0,3.0,60.0,2.0,0.0
10243,52.0,25.0,30.0,12.0,0.0
10244,64.0,24.0,60.0,3.0,0.0
10245,61.0,2.0,30.0,7.0,0.0
10246,52.0,1.0,30.0,12.0,0.0
10247,67.0,5.0,30.0,7.0,0.0
10248,74.0,0.0,60.0,2.0,0.0
10249,52.0,25.0,30.0,12.0,0.0
10250,62.0,24.0,60.0,3.0,0.0
10251,69.0,2.0,30.0,7.0,0.0
10252,52.0,1.0,30.0,12.0,0.0
10253,38.0,5.0,30.0,7.0,0.0
10254,79.0,3.0,60.0,2.0,0.0
10255,83.0,0.0,60.0,2.0,0.0
10256,66.0,0.0,180.0,10.0,0.0
10257,67.0,24.0,60.0,3.0,0.0
10258,71.0,0.0,60.0,3.0,0.0
10259,42.0,2.0,30.0,7.0,0.0
10260,50.0,25.0,15.0,12.0,0.0
10261,45.0,5.0,30.0,7.0,0.0
10262,81.0,3.0,60.0,2.0,0.0
10263,78.0,0.0,60.0,2.0,0.0
10264,50.0,25.0,30.0,12.0,0.0
10265,66.0,0.0,60.0,3.0,0.0
10266,69.0,24.0,60.0,3.0,0.0
10267,50.0,0.0,30.0,7.0,0.0
10268,57.0,5.0,30.0,7.0,0.0
10269,91.0,0.0,60.0,0.0,0.0
10270,88.0,1.0,60.0,1.0,0.0
10271,79.0,3.0,60.0,2.0,0.0
10272,76.0,0.0,60.0,2.0,0.0
10273,50.0,1.0,15.0,12.0,0.0
10274,67.0,24.0,60.0,3.0,0.0
10275,64.0,0.0,60.0,3.0,0.0
10276,62.0,0.0,30.0,7.0,0.0
10277,50.0,25.0,15.0,12.0,0.0
10278,90.0,1.0,60.0,0.0,0.0
10279,66.0,5.0,30.0,7.0,0.0
10280,78.0,0.0,60.0,8.0,0.0
10281,86.0,1.0,60.0,1.0,0.0
10282,74.0,0.0,60.0,10.0,0.0
10283,78.0,2.0,60.0,2.0,0.0
10284,74.0,0.0,60.0,2.0,0.0
10285,50.0,1.0,15.0,12.0,0.0
10286,62.0,0.0,60.0,3.0,0.0
10287,66.0,24.0,60.0,3.0,0.0
10288,69.0,0.0,30.0,7.0,0.0
10289,50.0,1.0,30.0,12.0,0.0
10290,43.0,5.0,30.0,7.0,0.0
10291,76.0,1.0,60.0,8.0,0.0
10292,88.0,0.0,60.0,0.0,0.0
10293,85.0,1.0,60.0,1.0,0.0
10294,76.0,0.0,60.0,2.0,0.0
10295,73.0,3.0,60.0,10.0,0.0
10296,73.0,0.0,60.0,2.0,0.0
10297,59.0,1.0,120.0,11.0,0.0
10298,64.0,24.0,60.0,3.0,0.0
10299,61.0,0.0,60.0,3.0,0.0
10300,43.0,23.0,120.0,13.0,0.0
10301,47.0,0.0,30.0,7.0,0.0
10302,43.0,25.0,15.0,12.0,0.0
10303,86.0,0.0,60.0,0.0,0.0
10304,50.0,5.0,30.0,7.0,0.0
10305,74.0,1.0,60.0,8.0,0.0
10306,83.0,1.0,60.0,1.0,0.0
10307,71.0,0.0,60.0,10.0,0.0
10308,74.0,2.0,60.0,2.0,0.0
10309,71.0,0.0,60.0,2.0,0.0
10310,43.0,1.0,15.0,12.0,0.0
10311,62.0,0.0,60.0,3.0,0.0
10312,59.0,1.0,60.0,3.0,0.0
10313,55.0,0.0,30.0,7.0,0.0
10314,43.0,25.0,15.0,12.0,0.0
10315,59.0,5.0,30.0,7.0,0.0
10316,85.0,1.0,60.0,0.0,0.0
10317,73.0,0.0,60.0,8.0,0.0
10318,81.0,1.0,60.0,1.0,0.0
10319,69.0,0.0,60.0,10.0,0.0
10320,73.0,0.0,60.0,2.0,0.0
10321,69.0,2.0,60.0,2.0,0.0
10322,61.0,1.0,60.0,11.0,0.0
10323,43.0,25.0,30.0,12.0,0.0
10324,57.0,0.0,60.0,3.0,0.0
10325,61.0,24.0,60.0,3.0,0.0
10326,62.0,0.0,30.0,7.0,0.0
10327,83.0,0.0,60.0,0.0,0.0
10328,67.0,5.0,30.0,7.0,0.0
10329,71.0,0.0,60.0,8.0,0.0
10330,79.0,1.0,60.0,1.0,0.0
10331,67.0,2.0,60.0,10.0,0.0
10332,67.0,0.0,60.0,2.0,0.0
10333,71.0,0.0,60.0,2.0,0.0
10334,62.0,1.0,60.0,11.0,0.0
10335,43.0,1.0,15.0,12.0,0.0
10336,55.0,39.0,60.0,3.0,0.0
10337,59.0,0.0,60.0,3.0,0.0
10338,71.0,1.0,30.0,7.0,0.0
10339,43.0,1.0,30.0,12.0,0.0
10340,81.0,1.0,360.0,0.0,0.0
10341,57.0,60.0,60.0,7.0,0.0
10342,33.0,0.0,60.0,7.0,0.0
10343,69.0,2.0,120.0,8.0,0.0
10344,78.0,1.0,360.0,1.0,0.0
10345,66.0,43.0,360.0,2.0,0.0
10346,69.0,0.0,360.0,2.0,0.0
10347,66.0,2.0,120.0,10.0,0.0
10348,62.0,1.0,120.0,11.0,0.0
10349,45.0,1.0,120.0,12.0,0.0
10350,57.0,0.0,120.0,3.0,0.0
10351,54.0,1.0,120.0,3.0,0.0
10352,45.0,38.0,120.0,13.0,0.0
10353,33.0,15.0,60.0,7.0,0.0
10354,57.0,0.0,60.0,7.0,0.0
10355,35.0,0.0,60.0,7.0,0.0
10356,59.0,60.0,60.0,7.0,0.0
10357,37.0,60.0,60.0,7.0,0.0
10358,61.0,0.0,60.0,7.0,0.0
10359,38.0,60.0,60.0,7.0,0.0
10360,62.0,0.0,60.0,7.0,0.0
10361,57.0,15.0,60.0,7.0,0.0
10362,33.0,0.0,60.0,7.0,0.0
10363,64.0,60.0,60.0,7.0,0.0
10364,79.0,1.0,120.0,0.0,0.0
10365,40.0,0.0,60.0,7.0,0.0
10366,76.0,1.0,120.0,1.0,0.0
10367,64.0,0.0,120.0,2.0,0.0
10368,67.0,43.0,120.0,2.0,0.0
10369,57.0,15.0,60.0,7.0,0.0
10370,33.0,0.0,60.0,7.0,0.0
10371,66.0,0.0,60.0,7.0,0.0
10372,42.0,60.0,60.0,7.0,0.0
10373,78.0,1.0,240.0,0.0,0.0
10374,74.0,1.0,240.0,1.0,0.0
10375,66.0,0.0,240.0,2.0,0.0
10376,62.0,43.0,240.0,2.0,0.0
10377,57.0,60.0,60.0,7.0,0.0
10378,33.0,0.0,60.0,7.0,0.0
10379,67.0,60.0,60.0,7.0,0.0
10380,43.0,0.0,60.0,7.0,0.0
10381,57.0,15.0,60.0,7.0,0.0
10382,33.0,0.0,60.0,7.0,0.0
10383,45.0,0.0,60.0,7.0,0.0
10384,78.0,1.0,240.0,0.0,0.0
10385,69.0,60.0,60.0,7.0,0.0
10386,74.0,1.0,240.0,1.0,0.0
10387,66.0,43.0,240.0,2.0,0.0
10388,62.0,0.0,240.0,2.0,0.0
10389,57.0,0.0,60.0,7.0,0.0
10390,33.0,60.0,60.0,7.0,0.0
10391,71.0,0.0,60.0,7.0,0.0
10392,35.0,60.0,60.0,7.0,0.0
10393,47.0,15.0,60.0,7.0,0.0
10394,59.0,0.0,60.0,7.0,0.0
10395,37.0,0.0,60.0,7.0,0.0
10396,73.0,60.0,60.0,7.0,0.0
10397,78.0,0.0,360.0,2.0,0.0
10398,74.0,4.0,360.0,2.0,0.0
10399,66.0,0.0,360.0,3.0,0.0
10400,62.0,39.0,360.0,3.0,0.0
10401,61.0,60.0,60.0,7.0,0.0
10402,49.0,0.0,60.0,7.0,0.0
10403,38.0,60.0,60.0,7.0,0.0
10404,74.0,0.0,60.0,7.0,0.0
10405,50.0,60.0,60.0,7.0,0.0
10406,62.0,0.0,60.0,7.0,0.0
10407,40.0,60.0,60.0,7.0,0.0
10408,76.0,0.0,60.0,7.0,0.0
10409,64.0,17.0,60.0,7.0,0.0
10410,52.0,0.0,60.0,7.0,0.0
10411,78.0,0.0,60.0,7.0,0.0
10412,42.0,60.0,60.0,7.0,0.0
10413,69.0,4.0,120.0,2.0,0.0
10414,76.0,0.0,120.0,2.0,0.0
10415,64.0,0.0,120.0,3.0,0.0
10416,57.0,39.0,120.0,3.0,0.0
10417,54.0,0.0,60.0,7.0,0.0
10418,66.0,17.0,60.0,7.0,0.0
10419,43.0,60.0,60.0,7.0,0.0
10420,79.0,0.0,60.0,7.0,0.0
10421,74.0,0.0,240.0,2.0,0.0
10422,66.0,4.0,240.0,2.0,0.0
10423,55.0,60.0,60.0,7.0,0.0
10424,67.0,0.0,60.0,7.0,0.0
10425,45.0,0.0,60.0,7.0,0.0
10426,81.0,60.0,60.0,7.0,0.0
10427,69.0,0.0,60.0,7.0,0.0
10428,57.0,17.0,60.0,7.0,0.0
10429,47.0,60.0,60.0,7.0,0.0
10430,83.0,0.0,60.0,7.0,0.0
10431,74.0,0.0,240.0,2.0,0.0
10432,66.0,4.0,240.0,2.0,0.0
10433,54.0,39.0,15.0,3.0,0.0
10434,62.0,0.0,15.0,3.0,0.0
10435,71.0,60.0,60.0,7.0,0.0
10436,59.0,0.0,60.0,7.0,0.0
10437,85.0,60.0,60.0,7.0,0.0
10438,49.0,0.0,60.0,7.0,0.0
10439,73.0,17.0,60.0,7.0,0.0
10440,61.0,0.0,60.0,7.0,0.0
10441,86.0,0.0,30.0,7.0,0.0
10442,50.0,30.0,30.0,7.0,0.0
10443,86.0,2.0,360.0,8.0,0.0
10444,74.0,2.0,360.0,10.0,0.0
10445,62.0,1.0,360.0,11.0,0.0
10446,62.0,2.0,360.0,12.0,0.0
10447,50.0,23.0,360.0,13.0,0.0
10448,62.0,0.0,30.0,7.0,0.0
10449,74.0,30.0,30.0,7.0,0.0
10450,52.0,0.0,30.0,7.0,0.0
10451,88.0,30.0,30.0,7.0,0.0
10452,64.0,0.0,30.0,7.0,0.0
10453,76.0,30.0,30.0,7.0,0.0
10454,90.0,0.0,30.0,7.0,0.0
10455,54.0,30.0,30.0,7.0,0.0
10456,78.0,30.0,30.0,7.0,0.0
10457,66.0,0.0,30.0,7.0,0.0
10458,55.0,0.0,30.0,7.0,0.0
10459,91.0,30.0,30.0,7.0,0.0
10460,79.0,30.0,30.0,7.0,0.0
10461,67.0,0.0,30.0,7.0,0.0
10462,93.0,0.0,30.0,7.0,0.0
10463,57.0,30.0,30.0,7.0,0.0
10464,69.0,0.0,30.0,7.0,0.0
10465,81.0,30.0,30.0,7.0,0.0
10466,95.0,30.0,30.0,7.0,0.0
10467,59.0,0.0,30.0,7.0,0.0
10468,83.0,0.0,30.0,7.0,0.0
10469,71.0,0.0,30.0,7.0,0.0
10470,97.0,0.0,30.0,7.0,0.0
10471,61.0,30.0,30.0,7.0,0.0
10472,81.0,0.0,90.0,8.0,0.0
10473,69.0,2.0,90.0,10.0,0.0
10474,57.0,1.0,90.0,11.0,0.0
10475,57.0,2.0,90.0,12.0,0.0
10476,45.0,23.0,90.0,13.0,0.0
10477,73.0,0.0,30.0,7.0,0.0
10478,85.0,30.0,30.0,7.0,0.0
10479,98.0,2.0,30.0,7.0,0.0
10480,62.0,0.0,30.0,7.0,0.0
10481,74.0,0.0,30.0,7.0,0.0
10482,86.0,30.0,30.0,7.0,0.0
10483,100.0,30.0,30.0,7.0,0.0
10484,64.0,0.0,30.0,7.0,0.0
10485,78.0,2.0,90.0,8.0,0.0
10486,66.0,2.0,90.0,10.0,0.0
10487,54.0,1.0,90.0,11.0,0.0
10488,54.0,2.0,90.0,12.0,0.0
10489,42.0,23.0,90.0,13.0,0.0
10490,88.0,30.0,30.0,7.0,0.0
10491,76.0,0.0,30.0,7.0,0.0
10492,102.0,0.0,30.0,7.0,0.0
10493,66.0,0.0,30.0,7.0,0.0
10494,90.0,0.0,30.0,7.0,0.0
10495,78.0,30.0,30.0,7.0,0.0
10496,81.0,0.0,90.0,8.0,0.0
10497,103.0,0.0,30.0,7.0,0.0
10498,67.0,30.0,30.0,7.0,0.0
10499,69.0,2.0,90.0,10.0,0.0
10500,57.0,1.0,90.0,11.0,0.0
10501,57.0,2.0,90.0,12.0,0.0
10502,45.0,23.0,90.0,13.0,0.0
10503,91.0,30.0,30.0,7.0,0.0
10504,79.0,0.0,30.0,7.0,0.0
10505,68.0,2.0,30.0,7.0,0.0
10506,104.0,0.0,30.0,7.0,0.0
10507,92.0,30.0,30.0,7.0,0.0
10508,80.0,0.0,30.0,7.0,0.0
10509,105.0,30.0,30.0,7.0,0.0
10510,69.0,0.0,30.0,7.0,0.0
10511,78.0,2.0,90.0,8.0,0.0
10512,66.0,2.0,90.0,10.0,0.0
10513,54.0,1.0,90.0,11.0,0.0
10514,54.0,2.0,90.0,12.0,0.0
10515,42.0,23.0,90.0,13.0,0.0
10516,93.0,30.0,30.0,7.0,0.0
10517,81.0,0.0,30.0,7.0,0.0
10518,69.0,0.0,30.0,7.0,0.0
10519,105.0,0.0,30.0,7.0,0.0
10520,93.0,30.0,30.0,7.0,0.0
10521,81.0,0.0,30.0,7.0,0.0
10522,74.0,2.0,90.0,8.0,0.0
10523,66.0,0.0,30.0,7.0,0.0
10524,102.0,30.0,30.0,7.0,0.0
10525,62.0,2.0,90.0,10.0,0.0
10526,62.0,1.0,90.0,11.0,0.0
10527,50.0,2.0,90.0,12.0,0.0
10528,38.0,23.0,90.0,13.0,0.0
10529,90.0,0.0,30.0,7.0,0.0
10530,78.0,30.0,30.0,7.0,0.0
10531,98.0,0.0,30.0,7.0,0.0
10532,62.0,0.0,30.0,7.0,0.0
10533,86.0,0.0,30.0,7.0,0.0
10534,74.0,30.0,30.0,7.0,0.0
10535,67.0,30.0,30.0,7.0,0.0
10536,79.0,0.0,120.0,8.0,0.0
10537,67.0,2.0,120.0,10.0,0.0
10538,55.0,1.0,120.0,11.0,0.0
10539,55.0,2.0,120.0,12.0,0.0
10540,43.0,23.0,120.0,13.0,0.0
10541,79.0,30.0,30.0,7.0,0.0
10542,103.0,0.0,30.0,7.0,0.0
10543,102.0,30.0,30.0,7.0,0.0
10544,100.0,2.0,30.0,7.0,0.0
10545,98.0,30.0,30.0,7.0,0.0
10546,97.0,30.0,30.0,7.0,0.0
10547,95.0,30.0,30.0,7.0,0.0
10548,93.0,30.0,30.0,7.0,0.0
10549,91.0,30.0,30.0,7.0,0.0
10550,90.0,30.0,30.0,7.0,0.0
10551,88.0,30.0,30.0,7.0,0.0
10552,86.0,30.0,30.0,7.0,0.0
10553,85.0,30.0,30.0,7.0,0.0
10554,83.0,30.0,30.0,7.0,0.0
10555,81.0,30.0,30.0,7.0,0.0
10556,79.0,30.0,30.0,7.0,0.0
10557,64.0,30.0,30.0,7.0,0.0
10558,76.0,0.0,120.0,8.0,0.0
10559,76.0,2.0,120.0,10.0,0.0
10560,64.0,1.0,120.0,11.0,0.0
10561,64.0,2.0,120.0,12.0,0.0
10562,52.0,23.0,120.0,13.0,0.0
10563,100.0,30.0,30.0,7.0,0.0
10564,76.0,0.0,30.0,7.0,0.0
10565,98.0,30.0,30.0,7.0,0.0
10566,97.0,2.0,30.0,7.0,0.0
10567,95.0,30.0,30.0,7.0,0.0
10568,93.0,30.0,30.0,7.0,0.0
10569,91.0,30.0,30.0,7.0,0.0
10570,90.0,30.0,30.0,7.0,0.0
10571,88.0,30.0,30.0,7.0,0.0
10572,86.0,30.0,30.0,7.0,0.0
10573,85.0,30.0,30.0,7.0,0.0
10574,83.0,30.0,30.0,7.0,0.0
10575,81.0,30.0,30.0,7.0,0.0
10576,79.0,30.0,30.0,7.0,0.0
10577,78.0,30.0,30.0,7.0,0.0
10578,76.0,30.0,30.0,7.0,0.0
10579,61.0,30.0,30.0,7.0,0.0
10580,73.0,0.0,120.0,8.0,0.0
10581,73.0,2.0,120.0,10.0,0.0
10582,61.0,1.0,120.0,11.0,0.0
10583,61.0,2.0,120.0,12.0,0.0
10584,49.0,23.0,120.0,13.0,0.0
10585,97.0,30.0,30.0,7.0,0.0
10586,73.0,0.0,30.0,7.0,0.0
10587,95.0,30.0,30.0,7.0,0.0
10588,93.0,2.0,30.0,7.0,0.0
10589,91.0,30.0,30.0,7.0,0.0
10590,90.0,30.0,30.0,7.0,0.0
10591,88.0,30.0,30.0,7.0,0.0
10592,86.0,30.0,30.0,7.0,0.0
10593,85.0,30.0,30.0,7.0,0.0
10594,57.0,0.0,30.0,7.0,0.0
10595,69.0,2.0,120.0,8.0,0.0
10596,69.0,2.0,120.0,10.0,0.0
10597,57.0,1.0,120.0,11.0,0.0
10598,57.0,2.0,120.0,12.0,0.0
10599,45.0,23.0,120.0,13.0,0.0
10600,69.0,30.0,30.0,7.0,0.0
10601,83.0,0.0,30.0,7.0,0.0
10602,81.0,30.0,30.0,7.0,0.0
10603,79.0,0.0,30.0,7.0,0.0
10604,78.0,30.0,30.0,7.0,0.0
10605,76.0,30.0,30.0,7.0,0.0
10606,74.0,30.0,30.0,7.0,0.0
10607,73.0,30.0,30.0,7.0,0.0
10608,71.0,0.0,30.0,7.0,0.0
10609,67.0,0.0,120.0,8.0,0.0
10610,55.0,30.0,30.0,7.0,0.0
10611,67.0,2.0,120.0,10.0,0.0
10612,55.0,1.0,120.0,11.0,0.0
10613,55.0,2.0,120.0,12.0,0.0
10614,43.0,23.0,120.0,13.0,0.0
10615,69.0,0.0,30.0,7.0,0.0
10616,67.0,30.0,15.0,7.0,0.0
10617,66.0,2.0,30.0,7.0,0.0
10618,64.0,30.0,30.0,7.0,0.0
10619,62.0,30.0,30.0,7.0,0.0
10620,61.0,30.0,30.0,7.0,0.0
10621,59.0,30.0,30.0,7.0,0.0
10622,57.0,30.0,30.0,7.0,0.0
10623,40.0,30.0,60.0,7.0,0.0
10624,64.0,0.0,120.0,8.0,0.0
10625,64.0,2.0,120.0,10.0,0.0
10626,52.0,1.0,120.0,11.0,0.0
10627,52.0,2.0,120.0,12.0,0.0
10628,40.0,23.0,120.0,13.0,0.0
10629,55.0,0.0,30.0,7.0,0.0
10630,54.0,30.0,30.0,7.0,0.0
10631,52.0,2.0,30.0,7.0,0.0
10632,50.0,30.0,30.0,7.0,0.0
10633,37.0,30.0,60.0,7.0,0.0
10634,61.0,0.0,120.0,8.0,0.0
10635,61.0,2.0,120.0,10.0,0.0
10636,61.0,1.0,120.0,11.0,0.0
10637,49.0,2.0,120.0,12.0,0.0
10638,37.0,23.0,120.0,13.0,0.0
10639,49.0,0.0,30.0,7.0,0.0
10640,47.0,30.0,30.0,7.0,0.0
10641,45.0,2.0,30.0,7.0,0.0
10642,67.0,0.0,120.0,8.0,0.0
10643,46.0,0.0,30.0,7.0,0.0
10644,34.0,30.0,30.0,7.0,0.0
10645,67.0,2.0,120.0,10.0,0.0
10646,64.0,1.0,120.0,11.0,0.0
10647,45.0,2.0,120.0,12.0,0.0
10648,33.0,23.0,120.0,13.0,0.0
10649,46.0,30.0,30.0,7.0,0.0
10650,58.0,0.0,30.0,7.0,0.0
10651,49.0,0.0,30.0,7.0,0.0
10652,61.0,30.0,30.0,7.0,0.0
10653,82.0,1.0,120.0,1.0,0.0
10654,70.0,10.0,120.0,2.0,0.0
10655,64.0,2.0,30.0,7.0,0.0
10656,52.0,0.0,30.0,7.0,0.0
10657,55.0,19.0,30.0,7.0,0.0
10658,67.0,0.0,30.0,7.0,0.0
10659,49.0,0.0,30.0,7.0,0.0
10660,61.0,30.0,30.0,7.0,0.0
10661,52.0,0.0,30.0,7.0,0.0
10662,64.0,25.0,30.0,7.0,0.0
10663,82.0,1.0,60.0,1.0,0.0
10664,70.0,4.0,60.0,2.0,0.0
10665,67.0,0.0,30.0,7.0,0.0
10666,55.0,30.0,30.0,7.0,0.0
10667,58.0,30.0,30.0,7.0,0.0
10668,70.0,0.0,30.0,7.0,0.0
10669,82.0,1.0,720.0,1.0,0.0
10670,70.0,4.0,720.0,2.0,0.0
10671,52.0,30.0,30.0,7.0,0.0
10672,64.0,0.0,30.0,7.0,0.0
10673,55.0,30.0,30.0,7.0,0.0
10674,67.0,0.0,30.0,7.0,0.0
10675,64.0,6.0,120.0,3.0,0.0
10676,67.0,0.0,120.0,3.0,0.0
10677,70.0,30.0,30.0,7.0,0.0
10678,58.0,0.0,30.0,7.0,0.0
10679,61.0,0.0,30.0,7.0,0.0
10680,73.0,24.0,30.0,7.0,0.0
10681,55.0,30.0,30.0,7.0,0.0
10682,67.0,0.0,30.0,7.0,0.0
10683,58.0,0.0,30.0,7.0,0.0
10684,70.0,30.0,30.0,7.0,0.0
10685,67.0,30.0,60.0,3.0,0.0
10686,64.0,0.0,60.0,3.0,0.0
10687,73.0,0.0,30.0,7.0,0.0
10688,61.0,0.0,30.0,7.0,0.0
10689,64.0,0.0,30.0,7.0,0.0
10690,76.0,30.0,30.0,7.0,0.0
10691,64.0,24.0,480.0,3.0,0.0
10692,67.0,0.0,480.0,3.0,0.0
10693,70.0,30.0,30.0,7.0,0.0
10694,58.0,0.0,30.0,7.0,0.0
10695,61.0,30.0,30.0,7.0,0.0
10696,73.0,0.0,30.0,7.0,0.0
10697,76.0,30.0,30.0,7.0,0.0
10698,64.0,0.0,30.0,7.0,0.0
10699,79.0,30.0,30.0,7.0,0.0
10700,67.0,0.0,30.0,7.0,0.0
10701,61.0,30.0,30.0,7.0,0.0
10702,73.0,0.0,30.0,7.0,0.0
10703,76.0,0.0,30.0,7.0,0.0
10704,64.0,30.0,30.0,7.0,0.0
10705,67.0,30.0,30.0,7.0,0.0
10706,79.0,0.0,30.0,7.0,0.0
10707,70.0,30.0,30.0,7.0,0.0
10708,82.0,0.0,30.0,7.0,0.0
10709,76.0,0.0,30.0,7.0,0.0
10710,64.0,30.0,30.0,7.0,0.0
10711,67.0,30.0,30.0,7.0,0.0
10712,79.0,0.0,30.0,7.0,0.0
10713,70.0,30.0,30.0,7.0,0.0
10714,82.0,0.0,30.0,7.0,0.0
10715,85.0,0.0,30.0,7.0,0.0
10716,73.0,30.0,30.0,7.0,0.0
10717,67.0,30.0,30.0,7.0,0.0
10718,79.0,0.0,30.0,7.0,0.0
10719,70.0,30.0,30.0,7.0,0.0
10720,82.0,0.0,30.0,7.0,0.0
10721,85.0,0.0,30.0,7.0,0.0
10722,73.0,1.0,30.0,7.0,0.0
10723,73.0,2.0,120.0,8.0,0.0
10724,45.0,30.0,30.0,7.0,0.0
10725,64.0,2.0,120.0,10.0,0.0
10726,67.0,1.0,120.0,11.0,0.0
10727,57.0,2.0,120.0,12.0,0.0
10728,45.0,23.0,120.0,13.0,0.0
10729,64.0,30.0,30.0,7.0,0.0
10730,52.0,0.0,30.0,7.0,0.0
10731,55.0,0.0,30.0,7.0,0.0
10732,67.0,30.0,30.0,7.0,0.0
10733,85.0,1.0,120.0,1.0,0.0
10734,73.0,10.0,120.0,2.0,0.0
10735,70.0,0.0,30.0,7.0,0.0
10736,58.0,0.0,30.0,7.0,0.0
10737,73.0,19.0,30.0,7.0,0.0
10738,61.0,0.0,30.0,7.0,0.0
10739,67.0,0.0,30.0,7.0,0.0
10740,55.0,30.0,30.0,7.0,0.0
10741,58.0,0.0,30.0,7.0,0.0
10742,70.0,25.0,30.0,7.0,0.0
10743,85.0,1.0,60.0,1.0,0.0
10744,73.0,4.0,60.0,2.0,0.0
10745,61.0,0.0,30.0,7.0,0.0
10746,73.0,30.0,30.0,7.0,0.0
10747,64.0,0.0,30.0,7.0,0.0
10748,76.0,30.0,30.0,7.0,0.0
10749,85.0,1.0,720.0,1.0,0.0
10750,73.0,4.0,720.0,2.0,0.0
10751,70.0,30.0,30.0,7.0,0.0
10752,58.0,0.0,30.0,7.0,0.0
10753,61.0,30.0,30.0,7.0,0.0
10754,73.0,0.0,30.0,7.0,0.0
10755,67.0,0.0,120.0,3.0,0.0
10756,64.0,6.0,120.0,3.0,0.0
10757,76.0,30.0,30.0,7.0,0.0
10758,64.0,0.0,30.0,7.0,0.0
10759,79.0,24.0,30.0,7.0,0.0
10760,67.0,0.0,30.0,7.0,0.0
10761,61.0,30.0,30.0,7.0,0.0
10762,73.0,0.0,30.0,7.0,0.0
10763,64.0,0.0,30.0,7.0,0.0
10764,76.0,30.0,30.0,7.0,0.0
10765,64.0,0.0,60.0,3.0,0.0
10766,67.0,0.0,60.0,3.0,0.0
10767,79.0,30.0,30.0,7.0,0.0
10768,67.0,0.0,30.0,7.0,0.0
10769,70.0,30.0,30.0,7.0,0.0
10770,82.0,0.0,30.0,7.0,0.0
10771,64.0,24.0,480.0,3.0,0.0
10772,67.0,0.0,480.0,3.0,0.0
10773,76.0,30.0,30.0,7.0,0.0
10774,64.0,0.0,30.0,7.0,0.0
10775,79.0,30.0,30.0,7.0,0.0
10776,67.0,0.0,30.0,7.0,0.0
10777,82.0,30.0,30.0,7.0,0.0
10778,70.0,0.0,30.0,7.0,0.0
10779,85.0,30.0,30.0,7.0,0.0
10780,73.0,0.0,30.0,7.0,0.0
10781,79.0,30.0,30.0,7.0,0.0
10782,67.0,0.0,30.0,7.0,0.0
10783,82.0,30.0,30.0,7.0,0.0
10784,70.0,0.0,30.0,7.0,0.0
10785,85.0,30.0,30.0,7.0,0.0
10786,73.0,0.0,30.0,7.0,0.0
10787,76.0,0.0,30.0,7.0,0.0
10788,88.0,30.0,30.0,7.0,0.0
10789,70.0,0.0,30.0,7.0,0.0
10790,82.0,30.0,30.0,7.0,0.0
10791,85.0,30.0,30.0,7.0,0.0
10792,73.0,0.0,30.0,7.0,0.0
10793,88.0,30.0,30.0,7.0,0.0
10794,76.0,0.0,30.0,7.0,0.0
10795,91.0,30.0,30.0,7.0,0.0
10796,79.0,0.0,30.0,7.0,0.0
10797,85.0,30.0,30.0,7.0,0.0
10798,73.0,0.0,30.0,7.0,0.0
10799,88.0,30.0,30.0,7.0,0.0
10800,76.0,0.0,30.0,7.0,0.0
10801,79.0,0.0,30.0,7.0,0.0
10802,91.0,1.0,30.0,7.0,0.0
10803,73.0,10.0,30.0,7.0,0.0
10804,73.0,2.0,120.0,8.0,0.0
10805,71.0,20.0,30.0,7.0,0.0
10806,67.0,2.0,120.0,10.0,0.0
10807,64.0,1.0,120.0,11.0,0.0
10808,57.0,2.0,120.0,12.0,0.0
10809,45.0,23.0,120.0,13.0,0.0
10810,74.0,20.0,30.0,7.0,0.0
10811,69.0,10.0,30.0,7.0,0.0
10812,75.0,25.0,30.0,7.0,0.0
10813,85.0,1.0,120.0,1.0,0.0
10814,76.0,4.0,120.0,2.0,0.0
10815,67.0,0.0,120.0,3.0,0.0
10816,70.0,6.0,120.0,3.0,0.0
10817,68.0,5.0,30.0,7.0,0.0
10818,76.0,0.0,30.0,7.0,0.0
10819,77.0,10.0,30.0,7.0,0.0
10820,67.0,9.0,30.0,7.0,0.0
10821,78.0,20.0,30.0,7.0,0.0
10822,66.0,10.0,30.0,7.0,0.0
10823,79.0,25.0,30.0,7.0,0.0
10824,85.0,1.0,60.0,1.0,0.0
10825,76.0,4.0,60.0,2.0,0.0
10826,70.0,0.0,60.0,3.0,0.0
10827,67.0,0.0,60.0,3.0,0.0
10828,65.0,0.0,30.0,7.0,0.0
10829,80.0,30.0,30.0,7.0,0.0
10830,81.0,10.0,30.0,7.0,0.0
10831,64.0,20.0,30.0,7.0,0.0
10832,76.0,0.0,120.0,8.0,0.0
10833,73.0,2.0,120.0,10.0,0.0
10834,67.0,1.0,120.0,11.0,0.0
10835,57.0,2.0,120.0,12.0,0.0
10836,45.0,23.0,120.0,13.0,0.0
10837,82.0,20.0,30.0,7.0,0.0
10838,63.0,10.0,30.0,7.0,0.0
10839,83.0,25.0,30.0,7.0,0.0
10840,85.0,1.0,120.0,1.0,0.0
10841,76.0,4.0,120.0,2.0,0.0
10842,67.0,0.0,120.0,3.0,0.0
10843,70.0,6.0,120.0,3.0,0.0
10844,62.0,5.0,30.0,7.0,0.0
10845,84.0,2.0,30.0,7.0,0.0
10846,85.0,0.0,30.0,7.0,0.0
10847,61.0,19.0,30.0,7.0,0.0
10848,60.0,0.0,30.0,7.0,0.0
10849,86.0,30.0,30.0,7.0,0.0
10850,59.0,25.0,30.0,7.0,0.0
10851,87.0,0.0,30.0,7.0,0.0
10852,85.0,1.0,60.0,1.0,0.0
10853,76.0,4.0,60.0,2.0,0.0
10854,67.0,0.0,60.0,3.0,0.0
10855,70.0,30.0,60.0,3.0,0.0
10856,58.0,0.0,30.0,7.0,0.0
10857,88.0,0.0,30.0,7.0,0.0
10858,57.0,20.0,30.0,7.0,0.0
10859,89.0,10.0,30.0,7.0,0.0
10860,79.0,0.0,120.0,8.0,0.0
10861,76.0,2.0,120.0,10.0,0.0
10862,73.0,1.0,120.0,11.0,0.0
10863,57.0,2.0,120.0,12.0,0.0
10864,45.0,23.0,120.0,13.0,0.0
10865,90.0,20.0,30.0,7.0,0.0
10866,56.0,10.0,30.0,7.0,0.0
10867,91.0,30.0,30.0,7.0,0.0
10868,85.0,1.0,120.0,1.0,0.0
10869,76.0,4.0,120.0,2.0,0.0
10870,69.0,0.0,120.0,3.0,0.0
10871,67.0,6.0,120.0,3.0,0.0
10872,55.0,0.0,30.0,7.0,0.0
10873,92.0,2.0,30.0,7.0,0.0
10874,54.0,9.0,30.0,7.0,0.0
10875,93.0,10.0,30.0,7.0,0.0
10876,94.0,20.0,30.0,7.0,0.0
10877,53.0,10.0,30.0,7.0,0.0
10878,95.0,25.0,30.0,7.0,0.0
10879,85.0,1.0,60.0,1.0,0.0
10880,76.0,4.0,60.0,2.0,0.0
10881,69.0,0.0,60.0,3.0,0.0
10882,67.0,30.0,60.0,3.0,0.0
10883,52.0,0.0,30.0,7.0,0.0
10884,96.0,0.0,30.0,7.0,0.0
10885,85.0,2.0,120.0,8.0,0.0
10886,97.0,10.0,30.0,7.0,0.0
10887,51.0,20.0,30.0,7.0,0.0
10888,76.0,2.0,120.0,10.0,0.0
10889,69.0,1.0,120.0,11.0,0.0
10890,57.0,2.0,120.0,12.0,0.0
10891,45.0,23.0,120.0,13.0,0.0
10892,98.0,20.0,30.0,7.0,0.0
10893,50.0,10.0,30.0,7.0,0.0
10894,99.0,30.0,30.0,7.0,0.0
10895,88.0,0.0,120.0,0.0,0.0
10896,85.0,1.0,120.0,1.0,0.0
10897,76.0,4.0,120.0,2.0,0.0
10898,67.0,0.0,120.0,3.0,0.0
10899,69.0,6.0,120.0,3.0,0.0
10900,49.0,0.0,30.0,7.0,0.0
10901,100.0,0.0,30.0,7.0,0.0
10902,48.0,0.0,30.0,7.0,0.0
10903,101.0,19.0,30.0,7.0,0.0
10904,102.0,30.0,30.0,7.0,0.0
10905,47.0,0.0,30.0,7.0,0.0
10906,103.0,0.0,30.0,7.0,0.0
10907,46.0,25.0,30.0,7.0,0.0
10908,88.0,0.0,60.0,0.0,0.0
10909,85.0,1.0,60.0,1.0,0.0
10910,76.0,4.0,60.0,2.0,0.0
10911,67.0,0.0,60.0,3.0,0.0
10912,69.0,32.0,60.0,3.0,0.0
10913,105.0,0.0,30.0,7.0,0.0
10914,45.0,0.0,30.0,7.0,0.0
10915,98.0,0.0,120.0,7.0,0.0
10916,90.0,0.0,600.0,0.0,0.0
10917,50.0,0.0,120.0,7.0,0.0
10918,38.0,2.0,120.0,7.0,0.0
10919,86.0,2.0,300.0,8.0,0.0
10920,86.0,0.0,600.0,0.0,0.0
10921,62.0,0.0,600.0,5.0,0.0
10922,74.0,0.0,600.0,5.0,0.0
10923,69.0,0.0,30.0,10.0,0.0
10924,69.0,0.0,600.0,4.0,0.0
10925,62.0,0.0,600.0,4.0,0.0
10926,66.0,0.0,600.0,2.0,0.0
10927,74.0,0.0,600.0,2.0,0.0
10928,66.0,0.0,30.0,11.0,0.0
10929,50.0,2.0,60.0,12.0,0.0
10930,50.0,1.0,120.0,6.0,0.0
10931,74.0,2.0,15.0,10.0,0.0
10932,62.0,28.0,15.0,11.0,0.0
10933,66.0,1.0,30.0,11.0,0.0
10934,69.0,2.0,15.0,10.0,0.0
10935,66.0,0.0,30.0,11.0,0.0
10936,50.0,1.0,60.0,12.0,0.0
10937,38.0,25.0,15.0,13.0,0.0
10938,74.0,2.0,15.0,10.0,0.0
10939,69.0,0.0,30.0,10.0,0.0
10940,62.0,26.0,15.0,11.0,0.0
10941,74.0,0.0,30.0,10.0,0.0
10942,62.0,0.0,15.0,11.0,0.0
10943,66.0,1.0,15.0,11.0,0.0
10944,50.0,2.0,60.0,12.0,0.0
10945,38.0,25.0,15.0,13.0,0.0
10946,69.0,2.0,15.0,10.0,0.0
10947,69.0,0.0,15.0,10.0,0.0
10948,74.0,2.0,15.0,10.0,0.0
10949,62.0,0.0,15.0,11.0,0.0
10950,66.0,1.0,15.0,11.0,0.0
10951,69.0,0.0,30.0,10.0,0.0
10952,66.0,0.0,30.0,11.0,0.0
10953,62.0,1.0,30.0,11.0,0.0
10954,74.0,2.0,15.0,10.0,0.0
10955,69.0,2.0,30.0,10.0,0.0
10956,66.0,26.0,30.0,11.0,0.0
10957,62.0,0.0,30.0,11.0,0.0
10958,50.0,2.0,15.0,12.0,0.0
10959,38.0,25.0,15.0,13.0,0.0
10960,74.0,0.0,15.0,10.0,0.0
10961,69.0,2.0,30.0,10.0,0.0
10962,66.0,1.0,30.0,11.0,0.0
10963,62.0,0.0,30.0,11.0,0.0
10964,88.0,12.0,20.0,8.0,0.0
10965,74.0,0.0,15.0,10.0,0.0
10966,69.0,0.0,30.0,10.0,0.0
10967,66.0,6.0,30.0,11.0,0.0
10968,62.0,0.0,30.0,11.0,0.0
10969,50.0,2.0,60.0,12.0,0.0
10970,38.0,13.0,15.0,13.0,0.0
10971,86.0,20.0,20.0,8.0,0.0
10972,74.0,2.0,15.0,10.0,0.0
10973,69.0,0.0,30.0,10.0,0.0
10974,66.0,1.0,30.0,11.0,0.0
10975,62.0,0.0,30.0,11.0,0.0
10976,85.0,2.0,20.0,8.0,0.0
10977,86.0,17.0,60.0,8.0,0.0
10978,74.0,2.0,15.0,10.0,0.0
10979,69.0,2.0,30.0,10.0,0.0
10980,66.0,11.0,30.0,11.0,0.0
10981,62.0,0.0,30.0,11.0,0.0
10982,38.0,25.0,15.0,13.0,0.0
10983,88.0,17.0,60.0,8.0,0.0
10984,74.0,2.0,15.0,10.0,0.0
10985,69.0,0.0,15.0,10.0,0.0
10986,62.0,1.0,15.0,11.0,0.0
10987,66.0,0.0,15.0,11.0,0.0
10988,50.0,2.0,15.0,12.0,0.0
10989,38.0,25.0,15.0,13.0,0.0
10990,69.0,0.0,15.0,10.0,0.0
10991,74.0,2.0,15.0,10.0,0.0
10992,90.0,1.0,120.0,8.0,0.0
10993,74.0,0.0,30.0,10.0,0.0
10994,69.0,2.0,15.0,10.0,0.0
10995,62.0,1.0,15.0,11.0,0.0
10996,66.0,0.0,15.0,11.0,0.0
10997,50.0,2.0,15.0,12.0,0.0
10998,69.0,2.0,15.0,10.0,0.0
10999,74.0,0.0,30.0,10.0,0.0
11000,62.0,0.0,15.0,11.0,0.0
11001,66.0,28.0,15.0,11.0,0.0
11002,69.0,2.0,15.0,10.0,0.0
11003,62.0,0.0,15.0,11.0,0.0
11004,50.0,1.0,60.0,12.0,0.0
11005,38.0,25.0,15.0,13.0,0.0
11006,74.0,2.0,15.0,10.0,0.0
11007,62.0,26.0,15.0,11.0,0.0
11008,66.0,0.0,15.0,11.0,0.0
11009,90.0,0.0,120.0,0.0,0.0
11010,86.0,1.0,120.0,0.0,0.0
11011,86.0,0.0,120.0,8.0,0.0
11012,62.0,0.0,120.0,5.0,0.0
11013,74.0,0.0,120.0,5.0,0.0
11014,86.0,0.0,15.0,1.0,0.0
11015,78.0,1.0,15.0,1.0,0.0
11016,62.0,0.0,120.0,4.0,0.0
11017,69.0,0.0,120.0,4.0,0.0
11018,66.0,0.0,120.0,2.0,0.0
11019,69.0,2.0,15.0,10.0,0.0
11020,74.0,0.0,120.0,2.0,0.0
11021,62.0,0.0,15.0,11.0,0.0
11022,66.0,1.0,15.0,11.0,0.0
11023,50.0,2.0,60.0,12.0,0.0
11024,50.0,0.0,15.0,6.0,0.0
11025,50.0,1.0,15.0,3.0,0.0
11026,62.0,0.0,15.0,3.0,0.0
11027,38.0,25.0,60.0,13.0,0.0
11028,69.0,0.0,15.0,10.0,0.0
11029,74.0,2.0,15.0,10.0,0.0
11030,62.0,28.0,15.0,11.0,0.0
11031,66.0,0.0,15.0,11.0,0.0
11032,69.0,0.0,15.0,10.0,0.0
11033,74.0,2.0,15.0,10.0,0.0
11034,62.0,1.0,15.0,11.0,0.0
11035,66.0,0.0,30.0,11.0,0.0
11036,50.0,1.0,60.0,12.0,0.0
11037,38.0,25.0,60.0,13.0,0.0
11038,74.0,0.0,15.0,10.0,0.0
11039,69.0,2.0,30.0,10.0,0.0
11040,66.0,1.0,30.0,11.0,0.0
11041,62.0,26.0,15.0,11.0,0.0
11042,91.0,0.0,120.0,0.0,0.0
11043,95.0,0.0,120.0,0.0,0.0
11044,83.0,1.0,120.0,8.0,0.0
11045,83.0,0.0,120.0,1.0,0.0
11046,79.0,1.0,120.0,1.0,0.0
11047,71.0,0.0,120.0,4.0,0.0
11048,67.0,0.0,120.0,4.0,0.0
11049,74.0,0.0,15.0,10.0,0.0
11050,67.0,0.0,120.0,2.0,0.0
11051,71.0,2.0,120.0,2.0,0.0
11052,62.0,0.0,15.0,11.0,0.0
11053,55.0,2.0,60.0,12.0,0.0
11054,50.0,0.0,15.0,6.0,0.0
11055,67.0,1.0,120.0,3.0,0.0
11056,55.0,0.0,120.0,3.0,0.0
11057,43.0,25.0,60.0,13.0,0.0
11058,71.0,0.0,15.0,10.0,0.0
11059,74.0,0.0,30.0,10.0,0.0
11060,62.0,0.0,15.0,11.0,0.0
11061,67.0,28.0,15.0,11.0,0.0
11062,67.0,1.0,15.0,11.0,0.0
11063,62.0,0.0,15.0,11.0,0.0
11064,55.0,1.0,60.0,12.0,0.0
11065,43.0,25.0,60.0,13.0,0.0
11066,71.0,2.0,15.0,10.0,0.0
11067,74.0,0.0,15.0,10.0,0.0
11068,67.0,1.0,30.0,11.0,0.0
11069,62.0,26.0,15.0,11.0,0.0
11070,81.0,1.0,120.0,8.0,0.0
11071,93.0,0.0,120.0,0.0,0.0
11072,90.0,0.0,120.0,0.0,0.0
11073,74.0,0.0,15.0,5.0,0.0
11074,62.0,0.0,15.0,5.0,0.0
11075,81.0,1.0,120.0,1.0,0.0
11076,78.0,0.0,120.0,1.0,0.0
11077,69.0,0.0,120.0,2.0,0.0
11078,66.0,0.0,120.0,2.0,0.0
11079,69.0,2.0,120.0,4.0,0.0
11080,74.0,0.0,15.0,10.0,0.0
11081,66.0,28.0,30.0,11.0,0.0
11082,62.0,0.0,30.0,11.0,0.0
11083,50.0,2.0,60.0,12.0,0.0
11084,38.0,25.0,60.0,13.0,0.0
11085,74.0,0.0,30.0,10.0,0.0
11086,69.0,2.0,15.0,10.0,0.0
11087,62.0,0.0,30.0,11.0,0.0
11088,74.0,2.0,30.0,10.0,0.0
11089,69.0,2.0,15.0,10.0,0.0
11090,66.0,1.0,15.0,11.0,0.0
11091,69.0,0.0,30.0,10.0,0.0
11092,74.0,0.0,30.0,10.0,0.0
11093,62.0,0.0,15.0,11.0,0.0
11094,66.0,1.0,30.0,11.0,0.0
11095,86.0,0.0,60.0,0.0,0.0
11096,74.0,0.0,60.0,0.0,0.0
11097,74.0,2.0,30.0,8.0,0.0
11098,62.0,0.0,60.0,5.0,0.0
11099,86.0,0.0,60.0,1.0,0.0
11100,62.0,0.0,15.0,4.0,0.0
11101,74.0,2.0,30.0,10.0,0.0
11102,69.0,0.0,30.0,10.0,0.0
11103,62.0,0.0,30.0,11.0,0.0
11104,50.0,1.0,15.0,12.0,0.0
11105,50.0,0.0,15.0,3.0,0.0
11106,62.0,0.0,15.0,3.0,0.0
11107,50.0,1.0,15.0,6.0,0.0
11108,38.0,14.0,15.0,13.0,0.0
11109,49.0,15.0,15.0,6.0,0.0
11110,86.0,0.0,15.0,8.0,0.0
11111,66.0,2.0,15.0,11.0,0.0
11112,50.0,9.0,15.0,6.0,0.0
11113,49.0,0.0,15.0,6.0,0.0
11114,74.0,1.0,15.0,8.0,0.0
11115,74.0,0.0,120.0,0.0,0.0
11116,86.0,0.0,15.0,8.0,0.0
11117,86.0,0.0,120.0,0.0,0.0
11118,74.0,0.0,15.0,5.0,0.0
11119,62.0,1.0,60.0,5.0,0.0
11120,74.0,1.0,15.0,1.0,0.0
11121,50.0,0.0,15.0,4.0,0.0
11122,62.0,0.0,60.0,4.0,0.0
11123,74.0,2.0,15.0,2.0,0.0
11124,69.0,0.0,15.0,10.0,0.0
11125,74.0,0.0,15.0,10.0,0.0
11126,62.0,1.0,15.0,11.0,0.0
11127,66.0,2.0,30.0,11.0,0.0
11128,62.0,1.0,60.0,12.0,0.0
11129,50.0,0.0,15.0,3.0,0.0
11130,62.0,1.0,15.0,3.0,0.0
11131,50.0,9.0,15.0,6.0,0.0
11132,50.0,14.0,60.0,13.0,0.0
11133,49.0,15.0,15.0,6.0,0.0
11134,74.0,1.0,30.0,8.0,0.0
11135,86.0,0.0,30.0,8.0,0.0
11136,66.0,1.0,30.0,11.0,0.0
11137,62.0,0.0,30.0,11.0,0.0
11138,50.0,9.0,15.0,6.0,0.0
11139,49.0,1.0,15.0,6.0,0.0
11140,74.0,2.0,30.0,8.0,0.0
11141,86.0,0.0,30.0,8.0,0.0
11142,74.0,0.0,15.0,10.0,0.0
11143,62.0,0.0,60.0,4.0,0.0
11144,69.0,2.0,15.0,10.0,0.0
11145,66.0,2.0,30.0,11.0,0.0
11146,62.0,0.0,30.0,11.0,0.0
11147,50.0,9.0,15.0,6.0,0.0
11148,49.0,15.0,15.0,6.0,0.0
11149,69.0,2.0,15.0,10.0,0.0
11150,74.0,0.0,15.0,10.0,0.0
11151,62.0,0.0,30.0,11.0,0.0
11152,66.0,1.0,30.0,11.0,0.0
11153,50.0,9.0,15.0,6.0,0.0
11154,49.0,0.0,15.0,6.0,0.0
11155,74.0,0.0,15.0,8.0,0.0
11156,86.0,1.0,15.0,8.0,0.0
11157,74.0,1.0,15.0,5.0,0.0
11158,74.0,0.0,15.0,1.0,0.0
11159,86.0,0.0,15.0,1.0,0.0
11160,62.0,0.0,15.0,5.0,0.0
11161,69.0,0.0,15.0,10.0,0.0
11162,74.0,0.0,15.0,10.0,0.0
11163,74.0,0.0,120.0,2.0,0.0
11164,50.0,2.0,15.0,4.0,0.0
11165,62.0,0.0,60.0,4.0,0.0
11166,62.0,0.0,30.0,11.0,0.0
11167,50.0,1.0,15.0,12.0,0.0
11168,50.0,9.0,15.0,6.0,0.0
11169,50.0,0.0,15.0,3.0,0.0
11170,62.0,1.0,120.0,3.0,0.0
11171,38.0,14.0,15.0,13.0,0.0
11172,49.0,15.0,15.0,6.0,0.0
11173,74.0,0.0,15.0,8.0,0.0
11174,74.0,0.0,15.0,10.0,0.0
11175,66.0,2.0,15.0,11.0,0.0
11176,50.0,9.0,15.0,6.0,0.0
11177,49.0,1.0,15.0,6.0,0.0
11178,86.0,1.0,15.0,8.0,0.0
11179,74.0,0.0,60.0,8.0,0.0
11180,74.0,0.0,60.0,5.0,0.0
11181,50.0,0.0,60.0,4.0,0.0
11182,62.0,0.0,60.0,4.0,0.0
11183,69.0,2.0,15.0,10.0,0.0
11184,62.0,1.0,15.0,11.0,0.0
11185,50.0,1.0,15.0,12.0,0.0
11186,50.0,0.0,15.0,3.0,0.0
11187,50.0,11.0,15.0,6.0,0.0
11188,38.0,14.0,15.0,13.0,0.0
11189,49.0,9.0,15.0,6.0,0.0
11190,74.0,0.0,15.0,10.0,0.0
11191,69.0,2.0,30.0,10.0,0.0
11192,62.0,0.0,15.0,11.0,0.0
11193,66.0,2.0,15.0,11.0,0.0
11194,50.0,9.0,15.0,6.0,0.0
11195,49.0,0.0,15.0,6.0,0.0
11196,74.0,1.0,15.0,0.0,0.0
11197,86.0,0.0,15.0,0.0,0.0
11198,88.0,1.0,20.0,8.0,0.0
11199,62.0,1.0,15.0,5.0,0.0
11200,86.0,0.0,120.0,1.0,0.0
11201,74.0,1.0,60.0,5.0,0.0
11202,74.0,0.0,120.0,1.0,0.0
11203,74.0,0.0,120.0,2.0,0.0
11204,62.0,0.0,60.0,4.0,0.0
11205,69.0,0.0,30.0,10.0,0.0
11206,66.0,2.0,30.0,11.0,0.0
11207,62.0,0.0,30.0,11.0,0.0
11208,50.0,1.0,15.0,12.0,0.0
11209,62.0,1.0,120.0,3.0,0.0
11210,50.0,11.0,15.0,6.0,0.0
11211,38.0,14.0,60.0,13.0,0.0
11212,86.0,11.0,20.0,8.0,0.0
11213,49.0,4.0,15.0,6.0,0.0
11214,69.0,0.0,30.0,10.0,0.0
11215,74.0,2.0,15.0,10.0,0.0
11216,62.0,0.0,30.0,11.0,0.0
11217,50.0,9.0,15.0,6.0,0.0
11218,85.0,1.0,20.0,8.0,0.0
11219,49.0,1.0,15.0,6.0,0.0
11220,86.0,2.0,30.0,8.0,0.0
11221,62.0,0.0,15.0,5.0,0.0
11222,74.0,0.0,60.0,5.0,0.0
11223,50.0,2.0,15.0,4.0,0.0
11224,62.0,0.0,60.0,4.0,0.0
11225,66.0,1.0,15.0,11.0,0.0
11226,50.0,1.0,60.0,12.0,0.0
11227,50.0,0.0,15.0,3.0,0.0
11228,50.0,9.0,15.0,6.0,0.0
11229,49.0,15.0,15.0,6.0,0.0
11230,86.0,1.0,30.0,8.0,0.0
11231,69.0,2.0,15.0,10.0,0.0
11232,74.0,0.0,15.0,10.0,0.0
11233,66.0,0.0,30.0,11.0,0.0
11234,62.0,2.0,15.0,11.0,0.0
11235,50.0,9.0,15.0,6.0,0.0
11236,49.0,0.0,15.0,6.0,0.0
11237,88.0,2.0,30.0,8.0,0.0
11238,76.0,1.0,60.0,0.0,0.0
11239,88.0,0.0,60.0,0.0,0.0
11240,62.0,1.0,15.0,5.0,0.0
11241,74.0,0.0,60.0,5.0,0.0
11242,88.0,0.0,60.0,1.0,0.0
11243,76.0,1.0,60.0,1.0,0.0
11244,76.0,0.0,60.0,2.0,0.0
11245,69.0,0.0,15.0,10.0,0.0
11246,74.0,0.0,15.0,10.0,0.0
11247,50.0,0.0,60.0,4.0,0.0
11248,50.0,1.0,60.0,12.0,0.0
11249,50.0,9.0,15.0,6.0,0.0
11250,64.0,0.0,60.0,3.0,0.0
11251,38.0,14.0,15.0,13.0,0.0
11252,49.0,15.0,15.0,6.0,0.0
11253,88.0,0.0,30.0,8.0,0.0
11254,69.0,2.0,15.0,10.0,0.0
11255,74.0,0.0,30.0,10.0,0.0
11256,62.0,2.0,15.0,11.0,0.0
11257,66.0,0.0,15.0,11.0,0.0
11258,50.0,9.0,15.0,6.0,0.0
11259,49.0,0.0,15.0,6.0,0.0
11260,90.0,1.0,60.0,0.0,0.0
11261,62.0,0.0,15.0,5.0,0.0
11262,78.0,0.0,60.0,1.0,0.0
11263,90.0,1.0,60.0,1.0,0.0
11264,78.0,0.0,60.0,2.0,0.0
11265,74.0,2.0,30.0,10.0,0.0
11266,62.0,2.0,15.0,4.0,0.0
11267,50.0,0.0,60.0,4.0,0.0
11268,69.0,0.0,30.0,10.0,0.0
11269,66.0,0.0,15.0,11.0,0.0
11270,62.0,1.0,15.0,11.0,0.0
11271,50.0,1.0,60.0,12.0,0.0
11272,50.0,1.0,15.0,3.0,0.0
11273,50.0,0.0,120.0,6.0,0.0
11274,66.0,0.0,60.0,3.0,0.0
11275,38.0,23.0,15.0,13.0,0.0
11276,90.0,2.0,15.0,8.0,0.0
11277,74.0,0.0,30.0,10.0,0.0
11278,62.0,26.0,15.0,11.0,0.0
11279,66.0,0.0,15.0,11.0,0.0
11280,90.0,0.0,120.0,0.0,0.0
11281,78.0,0.0,120.0,1.0,0.0
11282,90.0,1.0,120.0,1.0,0.0
11283,78.0,2.0,120.0,2.0,0.0
11284,69.0,2.0,15.0,10.0,0.0
11285,74.0,2.0,30.0,10.0,0.0
11286,66.0,1.0,15.0,11.0,0.0
11287,62.0,0.0,15.0,11.0,0.0
11288,66.0,1.0,120.0,3.0,0.0
11289,90.0,2.0,15.0,8.0,0.0
11290,74.0,2.0,30.0,10.0,0.0
11291,69.0,0.0,30.0,10.0,0.0
11292,62.0,0.0,15.0,11.0,0.0
11293,66.0,26.0,15.0,11.0,0.0
11294,86.0,2.0,30.0,8.0,0.0
11295,74.0,1.0,15.0,5.0,0.0
11296,62.0,0.0,15.0,4.0,0.0
11297,50.0,0.0,15.0,4.0,0.0
11298,74.0,2.0,30.0,10.0,0.0
11299,62.0,0.0,30.0,11.0,0.0
11300,50.0,1.0,15.0,12.0,0.0
11301,50.0,1.0,15.0,3.0,0.0
11302,38.0,23.0,15.0,13.0,0.0
11303,86.0,1.0,30.0,8.0,0.0
11304,69.0,0.0,15.0,10.0,0.0
11305,66.0,26.0,15.0,11.0,0.0
11306,62.0,1.0,30.0,11.0,0.0
11307,74.0,1.0,120.0,1.0,0.0
11308,86.0,0.0,120.0,1.0,0.0
11309,69.0,0.0,15.0,10.0,0.0
11310,74.0,0.0,15.0,10.0,0.0
11311,50.0,0.0,60.0,4.0,0.0
11312,74.0,0.0,120.0,2.0,0.0
11313,66.0,0.0,15.0,11.0,0.0
11314,50.0,1.0,15.0,12.0,0.0
11315,62.0,0.0,120.0,3.0,0.0
11316,50.0,0.0,60.0,3.0,0.0
11317,38.0,23.0,60.0,13.0,0.0
11318,86.0,2.0,15.0,8.0,0.0
11319,69.0,2.0,15.0,10.0,0.0
11320,74.0,0.0,15.0,10.0,0.0
11321,66.0,0.0,15.0,11.0,0.0
11322,62.0,26.0,15.0,11.0,0.0
11323,86.0,1.0,15.0,0.0,0.0
11324,83.0,2.0,30.0,8.0,0.0
11325,62.0,1.0,15.0,5.0,0.0
11326,74.0,1.0,120.0,5.0,0.0
11327,50.0,0.0,60.0,4.0,0.0
11328,62.0,0.0,15.0,4.0,0.0
11329,71.0,2.0,30.0,10.0,0.0
11330,55.0,1.0,60.0,12.0,0.0
11331,50.0,1.0,15.0,6.0,0.0
11332,62.0,26.0,15.0,11.0,0.0
11333,83.0,1.0,15.0,8.0,0.0
11334,83.0,1.0,120.0,0.0,0.0
11335,83.0,1.0,120.0,1.0,0.0
11336,71.0,0.0,120.0,1.0,0.0
11337,50.0,0.0,60.0,4.0,0.0
11338,71.0,2.0,15.0,10.0,0.0
11339,71.0,2.0,120.0,2.0,0.0
11340,55.0,1.0,60.0,12.0,0.0
11341,55.0,1.0,15.0,3.0,0.0
11342,59.0,0.0,120.0,3.0,0.0
11343,43.0,23.0,15.0,13.0,0.0
11344,83.0,1.0,30.0,8.0,0.0
11345,71.0,2.0,30.0,10.0,0.0
11346,62.0,26.0,15.0,11.0,0.0
11347,86.0,1.0,120.0,0.0,0.0
11348,74.0,0.0,120.0,5.0,0.0
11349,62.0,0.0,15.0,4.0,0.0
11350,50.0,0.0,60.0,4.0,0.0
11351,62.0,1.0,15.0,11.0,0.0
11352,50.0,0.0,15.0,6.0,0.0
11353,54.0,1.0,60.0,3.0,0.0
11354,82.0,2.0,15.0,8.0,0.0
11355,70.0,2.0,15.0,10.0,0.0
11356,62.0,1.0,30.0,11.0,0.0
11357,82.0,0.0,15.0,8.0,0.0
11358,82.0,0.0,60.0,0.0,0.0
11359,82.0,0.0,60.0,1.0,0.0
11360,70.0,1.0,60.0,1.0,0.0
11361,70.0,0.0,15.0,10.0,0.0
11362,62.0,0.0,15.0,4.0,0.0
11363,50.0,0.0,60.0,4.0,0.0
11364,70.0,2.0,60.0,2.0,0.0
11365,54.0,1.0,15.0,12.0,0.0
11366,58.0,1.0,60.0,3.0,0.0
11367,54.0,0.0,60.0,3.0,0.0
11368,42.0,23.0,15.0,13.0,0.0
11369,82.0,2.0,15.0,8.0,0.0
11370,70.0,0.0,30.0,10.0,0.0
11371,62.0,26.0,15.0,11.0,0.0
11372,98.0,0.0,120.0,0.0,0.0
11373,86.0,2.0,120.0,0.0,0.0
11374,83.0,1.0,300.0,8.0,0.0
11375,62.0,0.0,15.0,5.0,0.0
11376,74.0,0.0,300.0,5.0,0.0
11377,71.0,2.0,300.0,10.0,0.0
11378,50.0,0.0,120.0,4.0,0.0
11379,62.0,2.0,120.0,4.0,0.0
11380,55.0,1.0,60.0,12.0,0.0
11381,55.0,0.0,60.0,3.0,0.0
11382,59.0,0.0,60.0,3.0,0.0
11383,50.0,13.0,15.0,6.0,0.0
11384,43.0,9.0,60.0,13.0,0.0
11385,49.0,14.0,15.0,6.0,0.0
11386,59.0,2.0,15.0,11.0,0.0
11387,50.0,1.0,15.0,6.0,0.0
11388,49.0,15.0,15.0,6.0,0.0
11389,83.0,0.0,15.0,1.0,0.0
11390,71.0,1.0,15.0,1.0,0.0
11391,71.0,2.0,15.0,2.0,0.0
11392,57.0,1.0,20.0,12.0,0.0
11393,50.0,4.0,15.0,6.0,0.0
11394,57.0,1.0,20.0,3.0,0.0
11395,45.0,7.0,20.0,13.0,0.0
11396,49.0,9.0,15.0,6.0,0.0
11397,55.0,1.0,20.0,12.0,0.0
11398,55.0,1.0,20.0,3.0,0.0
11399,43.0,4.0,20.0,13.0,0.0
11400,71.0,2.0,15.0,11.0,0.0
11401,50.0,9.0,15.0,6.0,0.0
11402,54.0,1.0,20.0,12.0,0.0
11403,54.0,0.0,20.0,3.0,0.0
11404,42.0,14.0,20.0,13.0,0.0
11405,49.0,1.0,15.0,6.0,0.0
11406,55.0,1.0,60.0,12.0,0.0
11407,55.0,0.0,60.0,3.0,0.0
11408,50.0,13.0,15.0,6.0,0.0
11409,43.0,9.0,60.0,13.0,0.0
11410,49.0,14.0,15.0,6.0,0.0
11411,59.0,2.0,15.0,11.0,0.0
11412,50.0,1.0,15.0,6.0,0.0
11413,49.0,15.0,15.0,6.0,0.0
11414,71.0,1.0,15.0,1.0,0.0
11415,83.0,0.0,15.0,1.0,0.0
11416,57.0,1.0,60.0,12.0,0.0
11417,57.0,0.0,60.0,3.0,0.0
11418,59.0,0.0,15.0,3.0,0.0
11419,50.0,13.0,15.0,6.0,0.0
11420,45.0,12.0,60.0,13.0,0.0
11421,49.0,14.0,15.0,6.0,0.0
11422,71.0,2.0,15.0,11.0,0.0
11423,50.0,1.0,15.0,6.0,0.0
11424,49.0,15.0,15.0,6.0,0.0
11425,59.0,2.0,30.0,11.0,0.0
11426,59.0,1.0,300.0,12.0,0.0
11427,50.0,13.0,15.0,6.0,0.0
11428,47.0,14.0,300.0,13.0,0.0
11429,49.0,15.0,15.0,6.0,0.0
11430,59.0,2.0,30.0,11.0,0.0
11431,50.0,9.0,15.0,6.0,0.0
11432,85.0,2.0,20.0,8.0,0.0
11433,71.0,1.0,120.0,1.0,0.0
11434,83.0,1.0,15.0,1.0,0.0
11435,71.0,0.0,15.0,2.0,0.0
11436,73.0,12.0,20.0,10.0,0.0
11437,71.0,6.0,30.0,11.0,0.0
11438,59.0,14.0,15.0,3.0,0.0
11439,83.0,2.0,20.0,8.0,0.0
11440,71.0,18.0,20.0,10.0,0.0
11441,71.0,30.0,30.0,11.0,0.0
11442,82.0,2.0,20.0,8.0,0.0
11443,70.0,2.0,20.0,10.0,0.0
11444,83.0,2.0,60.0,8.0,0.0
11445,71.0,14.0,60.0,10.0,0.0
11446,59.0,11.0,30.0,11.0,0.0
11447,59.0,2.0,30.0,11.0,0.0
11448,85.0,2.0,60.0,8.0,0.0
11449,85.0,0.0,60.0,1.0,0.0
11450,73.0,1.0,60.0,1.0,0.0
11451,73.0,14.0,60.0,10.0,0.0
11452,73.0,2.0,60.0,2.0,0.0
11453,61.0,15.0,60.0,3.0,0.0
11454,71.0,11.0,15.0,11.0,0.0
11455,86.0,0.0,300.0,8.0,0.0
11456,74.0,1.0,300.0,5.0,0.0
11457,86.0,1.0,60.0,1.0,0.0
11458,62.0,0.0,300.0,5.0,0.0
11459,62.0,0.0,120.0,4.0,0.0
11460,50.0,2.0,120.0,4.0,0.0
11461,74.0,0.0,300.0,10.0,0.0
11462,50.0,13.0,15.0,6.0,0.0
11463,49.0,15.0,15.0,6.0,0.0
11464,59.0,2.0,15.0,11.0,0.0
11465,50.0,9.0,15.0,6.0,0.0
11466,49.0,0.0,15.0,6.0,0.0
11467,86.0,1.0,15.0,0.0,0.0
11468,74.0,0.0,15.0,0.0,0.0
11469,74.0,0.0,15.0,1.0,0.0
11470,74.0,2.0,15.0,2.0,0.0
11471,71.0,2.0,30.0,11.0,0.0
11472,61.0,1.0,20.0,12.0,0.0
11473,61.0,1.0,20.0,3.0,0.0
11474,62.0,1.0,15.0,3.0,0.0
11475,50.0,4.0,15.0,6.0,0.0
11476,49.0,7.0,20.0,13.0,0.0
11477,49.0,9.0,15.0,6.0,0.0
11478,59.0,1.0,20.0,12.0,0.0
11479,59.0,1.0,20.0,3.0,0.0
11480,47.0,4.0,20.0,13.0,0.0
11481,71.0,1.0,30.0,11.0,0.0
11482,50.0,11.0,15.0,6.0,0.0
11483,58.0,1.0,20.0,12.0,0.0
11484,58.0,0.0,20.0,3.0,0.0
11485,46.0,14.0,20.0,13.0,0.0
11486,49.0,1.0,15.0,6.0,0.0
11487,59.0,1.0,60.0,12.0,0.0
11488,50.0,13.0,15.0,6.0,0.0
11489,59.0,0.0,60.0,3.0,0.0
11490,47.0,8.0,60.0,13.0,0.0
11491,49.0,14.0,15.0,6.0,0.0
11492,59.0,2.0,15.0,11.0,0.0
11493,50.0,1.0,15.0,6.0,0.0
11494,49.0,15.0,15.0,6.0,0.0
11495,86.0,0.0,120.0,0.0,0.0
11496,86.0,1.0,15.0,1.0,0.0
11497,74.0,2.0,15.0,2.0,0.0
11498,71.0,2.0,30.0,11.0,0.0
11499,61.0,1.0,60.0,12.0,0.0
11500,61.0,0.0,60.0,3.0,0.0
11501,50.0,13.0,15.0,6.0,0.0
11502,49.0,12.0,60.0,13.0,0.0
11503,49.0,14.0,15.0,6.0,0.0
11504,71.0,2.0,30.0,11.0,0.0
11505,50.0,1.0,15.0,6.0,0.0
11506,49.0,15.0,15.0,6.0,0.0
11507,62.0,1.0,120.0,12.0,0.0
11508,62.0,0.0,60.0,3.0,0.0
11509,50.0,13.0,15.0,6.0,0.0
11510,50.0,27.0,120.0,13.0,0.0
11511,49.0,15.0,15.0,6.0,0.0
11512,59.0,2.0,15.0,11.0,0.0
11513,50.0,9.0,15.0,6.0,0.0
11514,50.0,14.0,15.0,6.0,0.0
11515,74.0,1.0,15.0,0.0,0.0
11516,88.0,2.0,20.0,8.0,0.0
11517,86.0,0.0,120.0,0.0,0.0
11518,74.0,0.0,15.0,1.0,0.0
11519,86.0,0.0,15.0,1.0,0.0
11520,74.0,2.0,15.0,2.0,0.0
11521,76.0,12.0,20.0,10.0,0.0
11522,62.0,1.0,60.0,3.0,0.0
11523,86.0,2.0,20.0,8.0,0.0
11524,74.0,18.0,20.0,10.0,0.0
11525,71.0,6.0,15.0,11.0,0.0
11526,85.0,2.0,20.0,8.0,0.0
11527,73.0,2.0,20.0,10.0,0.0
11528,86.0,2.0,60.0,8.0,0.0
11529,74.0,13.0,60.0,10.0,0.0
11530,56.0,1.0,120.0,12.0,0.0
11531,56.0,0.0,120.0,3.0,0.0
11532,44.0,27.0,120.0,13.0,0.0
11533,59.0,11.0,15.0,11.0,0.0
11534,88.0,2.0,60.0,8.0,0.0
11535,76.0,1.0,60.0,0.0,0.0
11536,88.0,0.0,60.0,0.0,0.0
11537,76.0,1.0,60.0,1.0,0.0
11538,88.0,0.0,60.0,1.0,0.0
11539,76.0,2.0,60.0,2.0,0.0
11540,76.0,13.0,60.0,10.0,0.0
11541,71.0,11.0,30.0,11.0,0.0
11542,64.0,1.0,60.0,3.0,0.0
11543,71.0,1.0,30.0,11.0,0.0
11544,85.0,0.0,300.0,8.0,0.0
11545,73.0,1.0,60.0,0.0,0.0
11546,73.0,2.0,60.0,2.0,0.0
11547,73.0,2.0,300.0,10.0,0.0
11548,57.0,1.0,60.0,12.0,0.0
11549,57.0,1.0,60.0,3.0,0.0
11550,45.0,8.0,60.0,13.0,0.0
11551,61.0,16.0,15.0,11.0,0.0
11552,85.0,0.0,15.0,0.0,0.0
11553,73.0,1.0,15.0,1.0,0.0
11554,85.0,0.0,15.0,1.0,0.0
11555,73.0,2.0,120.0,2.0,0.0
11556,73.0,11.0,30.0,11.0,0.0
11557,59.0,1.0,20.0,12.0,0.0
11558,61.0,19.0,15.0,3.0,0.0
11559,59.0,1.0,20.0,3.0,0.0
11560,47.0,7.0,20.0,13.0,0.0
11561,57.0,1.0,20.0,12.0,0.0
11562,57.0,1.0,20.0,3.0,0.0
11563,45.0,17.0,20.0,13.0,0.0
11564,73.0,1.0,30.0,11.0,0.0
11565,56.0,1.0,20.0,12.0,0.0
11566,56.0,1.0,20.0,3.0,0.0
11567,44.0,27.0,20.0,13.0,0.0
11568,57.0,1.0,60.0,12.0,0.0
11569,57.0,1.0,60.0,3.0,0.0
11570,45.0,8.0,60.0,13.0,0.0
11571,61.0,16.0,15.0,11.0,0.0
11572,85.0,0.0,15.0,1.0,0.0
11573,73.0,1.0,15.0,1.0,0.0
11574,73.0,0.0,120.0,2.0,0.0
11575,73.0,16.0,30.0,11.0,0.0
11576,59.0,1.0,60.0,12.0,0.0
11577,61.0,28.0,15.0,3.0,0.0
11578,59.0,1.0,60.0,3.0,0.0
11579,47.0,12.0,60.0,13.0,0.0
11580,73.0,30.0,30.0,11.0,0.0
11581,61.0,26.0,30.0,11.0,0.0
11582,61.0,1.0,300.0,12.0,0.0
11583,61.0,14.0,60.0,3.0,0.0
11584,49.0,18.0,300.0,13.0,0.0
11585,61.0,2.0,30.0,11.0,0.0
11586,85.0,1.0,15.0,0.0,0.0
11587,86.0,2.0,20.0,8.0,0.0
11588,73.0,1.0,120.0,1.0,0.0
11589,85.0,1.0,15.0,1.0,0.0
11590,73.0,2.0,120.0,2.0,0.0
11591,74.0,12.0,20.0,10.0,0.0
11592,73.0,6.0,30.0,11.0,0.0
11593,61.0,28.0,120.0,3.0,0.0
11594,85.0,2.0,20.0,8.0,0.0
11595,73.0,18.0,20.0,10.0,0.0
11596,73.0,30.0,30.0,11.0,0.0
11597,83.0,2.0,20.0,8.0,0.0
11598,71.0,2.0,20.0,10.0,0.0
11599,85.0,2.0,60.0,8.0,0.0
11600,73.0,13.0,60.0,10.0,0.0
11601,61.0,11.0,30.0,11.0,0.0
11602,61.0,2.0,30.0,11.0,0.0
11603,86.0,2.0,60.0,8.0,0.0
11604,86.0,1.0,60.0,0.0,0.0
11605,74.0,0.0,60.0,1.0,0.0
11606,86.0,1.0,60.0,1.0,0.0
11607,74.0,13.0,60.0,10.0,0.0
11608,74.0,2.0,60.0,2.0,0.0
11609,62.0,28.0,60.0,3.0,0.0
11610,73.0,11.0,15.0,11.0,0.0
11611,88.0,0.0,300.0,8.0,0.0
11612,88.0,0.0,60.0,0.0,0.0
11613,76.0,2.0,300.0,10.0,0.0
11614,76.0,2.0,60.0,2.0,0.0
11615,64.0,0.0,60.0,3.0,0.0
11616,61.0,26.0,15.0,11.0,0.0
11617,88.0,0.0,120.0,0.0,0.0
11618,76.0,1.0,15.0,0.0,0.0
11619,76.0,0.0,15.0,1.0,0.0
11620,88.0,1.0,15.0,1.0,0.0
11621,62.0,1.0,20.0,12.0,0.0
11622,64.0,28.0,120.0,3.0,0.0
11623,62.0,1.0,20.0,3.0,0.0
11624,50.0,7.0,20.0,13.0,0.0
11625,61.0,1.0,20.0,12.0,0.0
11626,61.0,1.0,20.0,3.0,0.0
11627,49.0,17.0,20.0,13.0,0.0
11628,73.0,11.0,15.0,11.0,0.0
11629,59.0,1.0,20.0,12.0,0.0
11630,59.0,1.0,20.0,3.0,0.0
11631,47.0,27.0,20.0,13.0,0.0
11632,61.0,1.0,60.0,12.0,0.0
11633,61.0,1.0,60.0,3.0,0.0
11634,49.0,8.0,60.0,13.0,0.0
11635,61.0,16.0,15.0,11.0,0.0
11636,76.0,1.0,15.0,0.0,0.0
11637,76.0,0.0,120.0,1.0,0.0
11638,88.0,1.0,120.0,1.0,0.0
11639,76.0,2.0,15.0,2.0,0.0
11640,73.0,16.0,30.0,11.0,0.0
11641,62.0,1.0,60.0,12.0,0.0
11642,62.0,1.0,60.0,3.0,0.0
11643,50.0,12.0,60.0,13.0,0.0
11644,73.0,30.0,30.0,11.0,0.0
11645,61.0,26.0,30.0,11.0,0.0
11646,64.0,1.0,120.0,12.0,0.0
11647,52.0,27.0,120.0,13.0,0.0
11648,61.0,2.0,30.0,11.0,0.0
11649,88.0,0.0,15.0,0.0,0.0
11650,76.0,1.0,15.0,0.0,0.0
11651,90.0,2.0,20.0,8.0,0.0
11652,88.0,1.0,120.0,1.0,0.0
11653,76.0,0.0,120.0,1.0,0.0
11654,76.0,2.0,120.0,2.0,0.0
11655,78.0,12.0,20.0,10.0,0.0
11656,64.0,14.0,15.0,3.0,0.0
11657,88.0,2.0,20.0,8.0,0.0
11658,76.0,18.0,20.0,10.0,0.0
11659,73.0,6.0,15.0,11.0,0.0
11660,87.0,2.0,20.0,8.0,0.0
11661,75.0,2.0,20.0,10.0,0.0
11662,88.0,2.0,60.0,8.0,0.0
11663,76.0,13.0,60.0,10.0,0.0
11664,58.0,1.0,120.0,12.0,0.0
11665,58.0,1.0,120.0,3.0,0.0
11666,46.0,27.0,120.0,13.0,0.0
11667,61.0,11.0,15.0,11.0,0.0
11668,90.0,1.0,60.0,0.0,0.0
11669,90.0,2.0,60.0,8.0,0.0
11670,78.0,0.0,60.0,0.0,0.0
11671,78.0,1.0,60.0,1.0,0.0
11672,90.0,0.0,60.0,1.0,0.0
11673,78.0,2.0,60.0,2.0,0.0
11674,78.0,13.0,60.0,10.0,0.0
11675,73.0,11.0,30.0,11.0,0.0
11676,66.0,0.0,60.0,3.0,0.0
11677,73.0,1.0,30.0,11.0,0.0
11678,86.0,2.0,60.0,8.0,0.0
11679,86.0,0.0,60.0,0.0,0.0
11680,74.0,1.0,60.0,0.0,0.0
11681,86.0,1.0,60.0,1.0,0.0
11682,74.0,0.0,60.0,1.0,0.0
11683,74.0,2.0,60.0,2.0,0.0
11684,74.0,3.0,60.0,10.0,0.0
11685,71.0,11.0,30.0,11.0,0.0
11686,59.0,1.0,60.0,12.0,0.0
11687,59.0,1.0,60.0,3.0,0.0
11688,47.0,8.0,60.0,13.0,0.0
11689,71.0,2.0,30.0,11.0,0.0
11690,86.0,1.0,120.0,0.0,0.0
11691,88.0,2.0,20.0,8.0,0.0
11692,74.0,0.0,120.0,0.0,0.0
11693,86.0,1.0,120.0,1.0,0.0
11694,74.0,0.0,120.0,1.0,0.0
11695,62.0,0.0,120.0,4.0,0.0
11696,76.0,12.0,20.0,10.0,0.0
11697,74.0,2.0,120.0,2.0,0.0
11698,59.0,6.0,30.0,11.0,0.0
11699,47.0,1.0,60.0,12.0,0.0
11700,62.0,14.0,15.0,3.0,0.0
11701,47.0,1.0,60.0,3.0,0.0
11702,35.0,8.0,60.0,13.0,0.0
11703,86.0,2.0,20.0,8.0,0.0
11704,74.0,8.0,20.0,10.0,0.0
11705,59.0,30.0,30.0,11.0,0.0
11706,85.0,2.0,20.0,8.0,0.0
11707,73.0,2.0,20.0,10.0,0.0
11708,86.0,2.0,60.0,8.0,0.0
11709,74.0,0.0,120.0,5.0,0.0
11710,62.0,1.0,120.0,5.0,0.0
11711,74.0,13.0,60.0,10.0,0.0
11712,49.0,1.0,180.0,12.0,0.0
11713,50.0,0.0,120.0,6.0,0.0
11714,49.0,1.0,180.0,3.0,0.0
11715,37.0,13.0,180.0,13.0,0.0
11716,71.0,11.0,15.0,11.0,0.0
11717,88.0,0.0,60.0,0.0,0.0
11718,76.0,1.0,60.0,0.0,0.0
11719,88.0,2.0,60.0,8.0,0.0
11720,88.0,0.0,60.0,1.0,0.0
11721,76.0,0.0,60.0,1.0,0.0
11722,76.0,13.0,60.0,10.0,0.0
11723,50.0,0.0,15.0,4.0,0.0
11724,76.0,2.0,60.0,2.0,0.0
11725,62.0,0.0,60.0,4.0,0.0
11726,64.0,28.0,60.0,3.0,0.0
11727,73.0,11.0,15.0,11.0,0.0
11728,90.0,2.0,60.0,8.0,0.0
11729,78.0,17.0,60.0,10.0,0.0
11730,74.0,11.0,30.0,11.0,0.0
11731,74.0,1.0,30.0,11.0,0.0
11732,90.0,1.0,120.0,0.0,0.0
11733,79.0,2.0,20.0,8.0,0.0
11734,86.0,0.0,120.0,1.0,0.0
11735,62.0,0.0,120.0,4.0,0.0
11736,78.0,2.0,120.0,2.0,0.0
11737,50.0,0.0,120.0,4.0,0.0
11738,67.0,12.0,20.0,10.0,0.0
11739,62.0,6.0,30.0,11.0,0.0
11740,50.0,1.0,60.0,12.0,0.0
11741,50.0,1.0,60.0,3.0,0.0
11742,66.0,28.0,120.0,3.0,0.0
11743,38.0,8.0,60.0,13.0,0.0
11744,78.0,2.0,20.0,8.0,0.0
11745,66.0,8.0,20.0,10.0,0.0
11746,62.0,30.0,30.0,11.0,0.0
11747,76.0,2.0,20.0,8.0,0.0
11748,64.0,2.0,20.0,10.0,0.0
11749,78.0,2.0,60.0,8.0,0.0
11750,62.0,0.0,120.0,5.0,0.0
11751,74.0,0.0,120.0,5.0,0.0
11752,66.0,13.0,60.0,10.0,0.0
11753,52.0,1.0,180.0,12.0,0.0
11754,50.0,0.0,120.0,6.0,0.0
11755,52.0,1.0,180.0,3.0,0.0
11756,40.0,13.0,180.0,13.0,0.0
11757,74.0,11.0,15.0,11.0,0.0
11758,91.0,0.0,60.0,0.0,0.0
11759,86.0,0.0,15.0,0.0,0.0
11760,79.0,2.0,60.0,8.0,0.0
11761,74.0,1.0,15.0,1.0,0.0
11762,86.0,1.0,60.0,1.0,0.0
11763,79.0,2.0,60.0,2.0,0.0
11764,50.0,0.0,60.0,4.0,0.0
11765,62.0,0.0,60.0,4.0,0.0
11766,67.0,13.0,60.0,10.0,0.0
11767,76.0,11.0,30.0,11.0,0.0
11768,67.0,28.0,60.0,3.0,0.0
11769,76.0,2.0,30.0,11.0,0.0
11770,81.0,2.0,60.0,8.0,0.0
11771,69.0,17.0,60.0,10.0,0.0
11772,78.0,11.0,30.0,11.0,0.0
11773,78.0,1.0,30.0,11.0,0.0
11774,83.0,2.0,20.0,8.0,0.0
11775,93.0,0.0,120.0,0.0,0.0
11776,50.0,0.0,120.0,4.0,0.0
11777,62.0,0.0,120.0,4.0,0.0
11778,81.0,2.0,120.0,2.0,0.0
11779,71.0,12.0,20.0,10.0,0.0
11780,52.0,6.0,30.0,11.0,0.0
11781,52.0,1.0,60.0,12.0,0.0
11782,52.0,1.0,60.0,3.0,0.0
11783,69.0,28.0,120.0,3.0,0.0
11784,40.0,8.0,60.0,13.0,0.0
11785,81.0,2.0,20.0,8.0,0.0
11786,69.0,8.0,20.0,10.0,0.0
11787,52.0,30.0,30.0,11.0,0.0
11788,80.0,2.0,20.0,8.0,0.0
11789,68.0,2.0,20.0,10.0,0.0
11790,81.0,2.0,60.0,8.0,0.0
11791,74.0,0.0,120.0,5.0,0.0
11792,62.0,1.0,120.0,5.0,0.0
11793,69.0,13.0,60.0,10.0,0.0
11794,54.0,1.0,180.0,12.0,0.0
11795,54.0,1.0,180.0,3.0,0.0
11796,50.0,28.0,120.0,6.0,0.0
11797,42.0,13.0,180.0,13.0,0.0
11798,64.0,11.0,15.0,11.0,0.0
11799,82.0,2.0,60.0,8.0,0.0
11800,86.0,1.0,15.0,0.0,0.0
11801,94.0,0.0,60.0,0.0,0.0
11802,74.0,0.0,15.0,1.0,0.0
11803,86.0,1.0,15.0,1.0,0.0
11804,82.0,0.0,60.0,2.0,0.0
11805,70.0,13.0,60.0,10.0,0.0
11806,50.0,2.0,60.0,4.0,0.0
11807,62.0,0.0,60.0,4.0,0.0
11808,66.0,11.0,30.0,11.0,0.0
11809,70.0,0.0,60.0,3.0,0.0
11810,66.0,2.0,30.0,11.0,0.0
11811,83.0,2.0,60.0,8.0,0.0
11812,71.0,17.0,60.0,10.0,0.0
11813,67.0,11.0,15.0,11.0,0.0
11814,95.0,1.0,120.0,0.0,0.0
11815,85.0,2.0,20.0,8.0,0.0
11816,74.0,1.0,120.0,1.0,0.0
11817,86.0,0.0,120.0,1.0,0.0
11818,50.0,0.0,120.0,4.0,0.0
11819,83.0,0.0,120.0,2.0,0.0
11820,73.0,12.0,20.0,10.0,0.0
11821,62.0,2.0,120.0,4.0,0.0
11822,55.0,1.0,60.0,12.0,0.0
11823,71.0,28.0,120.0,3.0,0.0
11824,55.0,1.0,60.0,3.0,0.0
11825,43.0,8.0,60.0,13.0,0.0
11826,83.0,2.0,20.0,8.0,0.0
11827,71.0,8.0,20.0,10.0,0.0
11828,55.0,6.0,15.0,11.0,0.0
11829,82.0,2.0,20.0,8.0,0.0
11830,70.0,2.0,20.0,10.0,0.0
11831,83.0,2.0,60.0,8.0,0.0
11832,62.0,0.0,120.0,5.0,0.0
11833,74.0,0.0,120.0,5.0,0.0
11834,71.0,13.0,60.0,10.0,0.0
11835,57.0,1.0,180.0,12.0,0.0
11836,50.0,28.0,120.0,6.0,0.0
11837,57.0,1.0,180.0,3.0,0.0
11838,45.0,13.0,180.0,13.0,0.0
11839,67.0,11.0,15.0,11.0,0.0
11840,86.0,0.0,15.0,0.0,0.0
11841,85.0,2.0,60.0,8.0,0.0
11842,97.0,1.0,60.0,0.0,0.0
11843,86.0,0.0,60.0,1.0,0.0
11844,74.0,1.0,60.0,1.0,0.0
11845,50.0,0.0,60.0,4.0,0.0
11846,62.0,2.0,60.0,4.0,0.0
11847,73.0,13.0,60.0,10.0,0.0
11848,85.0,0.0,60.0,2.0,0.0
11849,61.0,0.0,60.0,3.0,0.0
11850,69.0,11.0,15.0,11.0,0.0
11851,86.0,0.0,60.0,8.0,0.0
11852,86.0,0.0,15.0,0.0,0.0
11853,74.0,17.0,60.0,10.0,0.0
11854,71.0,11.0,30.0,11.0,0.0
11855,71.0,1.0,30.0,11.0,0.0
11856,88.0,0.0,20.0,0.0,0.0
11857,88.0,2.0,20.0,8.0,0.0
11858,76.0,12.0,20.0,10.0,0.0
11859,62.0,0.0,120.0,4.0,0.0
11860,50.0,0.0,120.0,4.0,0.0
11861,74.0,2.0,120.0,2.0,0.0
11862,86.0,0.0,120.0,2.0,0.0
11863,59.0,6.0,30.0,11.0,0.0
11864,58.0,1.0,60.0,12.0,0.0
11865,62.0,28.0,120.0,3.0,0.0
11866,58.0,1.0,60.0,3.0,0.0
11867,46.0,8.0,60.0,13.0,0.0
11868,86.0,0.0,20.0,0.0,0.0
11869,86.0,2.0,20.0,8.0,0.0
11870,74.0,8.0,20.0,10.0,0.0
11871,59.0,30.0,30.0,11.0,0.0
11872,85.0,2.0,20.0,0.0,0.0
11873,85.0,0.0,20.0,8.0,0.0
11874,73.0,2.0,20.0,10.0,0.0
11875,86.0,0.0,60.0,0.0,0.0
11876,86.0,2.0,60.0,8.0,0.0
11877,62.0,0.0,120.0,5.0,0.0
11878,74.0,0.0,120.0,5.0,0.0
11879,74.0,14.0,60.0,10.0,0.0
11880,71.0,11.0,30.0,11.0,0.0
11881,59.0,1.0,180.0,12.0,0.0
11882,50.0,28.0,120.0,6.0,0.0
11883,59.0,1.0,180.0,3.0,0.0
11884,47.0,13.0,180.0,13.0,0.0
11885,71.0,2.0,30.0,11.0,0.0
11886,85.0,2.0,60.0,8.0,0.0
11887,85.0,0.0,60.0,0.0,0.0
11888,74.0,0.0,15.0,1.0,0.0
11889,86.0,1.0,15.0,1.0,0.0
11890,73.0,14.0,60.0,10.0,0.0
11891,73.0,2.0,60.0,2.0,0.0
11892,85.0,0.0,60.0,2.0,0.0
11893,62.0,0.0,60.0,4.0,0.0
11894,50.0,0.0,60.0,4.0,0.0
11895,70.0,11.0,30.0,11.0,0.0
11896,61.0,0.0,60.0,3.0,0.0
11897,70.0,2.0,30.0,11.0,0.0
11898,86.0,2.0,60.0,8.0,0.0
11899,86.0,0.0,60.0,0.0,0.0
11900,74.0,17.0,60.0,10.0,0.0
11901,71.0,11.0,15.0,11.0,0.0
11902,88.0,2.0,20.0,8.0,0.0
11903,88.0,0.0,20.0,0.0,0.0
11904,74.0,0.0,120.0,1.0,0.0
11905,74.0,0.0,120.0,2.0,0.0
11906,50.0,0.0,120.0,4.0,0.0
11907,86.0,2.0,120.0,2.0,0.0
11908,76.0,12.0,20.0,10.0,0.0
11909,62.0,0.0,120.0,4.0,0.0
11910,70.0,6.0,30.0,11.0,0.0
11911,58.0,1.0,60.0,12.0,0.0
11912,58.0,1.0,60.0,3.0,0.0
11913,62.0,28.0,120.0,3.0,0.0
11914,46.0,8.0,60.0,13.0,0.0
11915,86.0,0.0,20.0,0.0,0.0
11916,86.0,2.0,20.0,8.0,0.0
11917,74.0,8.0,20.0,10.0,0.0
11918,70.0,30.0,30.0,11.0,0.0
11919,85.0,2.0,20.0,0.0,0.0
11920,85.0,0.0,20.0,8.0,0.0
11921,73.0,2.0,20.0,10.0,0.0
11922,86.0,0.0,60.0,0.0,0.0
11923,86.0,2.0,60.0,8.0,0.0
11924,74.0,3.0,60.0,10.0,0.0
11925,71.0,11.0,30.0,11.0,0.0
11926,59.0,1.0,60.0,12.0,0.0
11927,59.0,1.0,60.0,3.0,0.0
11928,47.0,9.0,60.0,13.0,0.0
11929,71.0,2.0,30.0,11.0,0.0
11930,85.0,0.0,60.0,8.0,0.0
11931,85.0,2.0,60.0,0.0,0.0
11932,86.0,1.0,15.0,1.0,0.0
11933,74.0,0.0,60.0,1.0,0.0
11934,73.0,0.0,60.0,2.0,0.0
11935,85.0,2.0,60.0,2.0,0.0
11936,62.0,0.0,60.0,4.0,0.0
11937,73.0,3.0,60.0,10.0,0.0
11938,50.0,0.0,60.0,4.0,0.0
11939,58.0,1.0,60.0,12.0,0.0
11940,58.0,1.0,60.0,3.0,0.0
11941,61.0,0.0,60.0,3.0,0.0
11942,46.0,9.0,60.0,13.0,0.0
11943,70.0,11.0,15.0,11.0,0.0
11944,86.0,2.0,30.0,8.0,0.0
11945,74.0,0.0,540.0,0.0,0.0
11946,86.0,0.0,540.0,0.0,0.0
11947,74.0,1.0,15.0,5.0,0.0
11948,62.0,0.0,15.0,5.0,0.0
11949,86.0,0.0,60.0,1.0,0.0
11950,50.0,2.0,600.0,4.0,0.0
11951,86.0,0.0,60.0,2.0,0.0
11952,74.0,2.0,30.0,10.0,0.0
11953,74.0,0.0,60.0,2.0,0.0
11954,62.0,0.0,600.0,4.0,0.0
11955,59.0,1.0,120.0,12.0,0.0
11956,59.0,1.0,120.0,3.0,0.0
11957,50.0,15.0,15.0,6.0,0.0
11958,62.0,0.0,60.0,3.0,0.0
11959,47.0,14.0,120.0,13.0,0.0
11960,49.0,15.0,15.0,6.0,0.0
11961,86.0,1.0,30.0,8.0,0.0
11962,71.0,2.0,15.0,11.0,0.0
11963,50.0,9.0,15.0,6.0,0.0
11964,49.0,15.0,15.0,6.0,0.0
11965,86.0,2.0,30.0,8.0,0.0
11966,86.0,1.0,120.0,1.0,0.0
11967,74.0,1.0,15.0,1.0,0.0
11968,74.0,2.0,15.0,10.0,0.0
11969,50.0,9.0,15.0,6.0,0.0
11970,62.0,0.0,120.0,3.0,0.0
11971,49.0,15.0,15.0,6.0,0.0
11972,74.0,2.0,15.0,10.0,0.0
11973,59.0,2.0,15.0,11.0,0.0
11974,50.0,9.0,15.0,6.0,0.0
11975,49.0,0.0,15.0,6.0,0.0
11976,86.0,2.0,15.0,8.0,0.0
11977,74.0,2.0,30.0,10.0,0.0
11978,61.0,1.0,120.0,12.0,0.0
11979,50.0,9.0,15.0,6.0,0.0
11980,61.0,0.0,120.0,3.0,0.0
11981,49.0,14.0,120.0,13.0,0.0
11982,49.0,15.0,15.0,6.0,0.0
11983,86.0,1.0,30.0,8.0,0.0
11984,61.0,2.0,15.0,11.0,0.0
11985,50.0,9.0,15.0,6.0,0.0
11986,49.0,15.0,15.0,6.0,0.0
11987,86.0,2.0,30.0,8.0,0.0
11988,74.0,0.0,120.0,1.0,0.0
11989,86.0,0.0,15.0,2.0,0.0
11990,74.0,2.0,15.0,2.0,0.0
11991,74.0,0.0,15.0,10.0,0.0
11992,61.0,2.0,15.0,11.0,0.0
11993,50.0,9.0,15.0,6.0,0.0
11994,49.0,15.0,15.0,6.0,0.0
11995,61.0,1.0,30.0,11.0,0.0
11996,50.0,9.0,15.0,6.0,0.0
11997,49.0,1.0,15.0,6.0,0.0
11998,86.0,2.0,15.0,8.0,0.0
11999,74.0,2.0,15.0,10.0,0.0
12000,62.0,1.0,120.0,12.0,0.0
12001,50.0,9.0,15.0,6.0,0.0
12002,50.0,14.0,120.0,13.0,0.0
12003,49.0,15.0,15.0,6.0,0.0
12004,86.0,2.0,15.0,8.0,0.0
12005,62.0,2.0,15.0,11.0,0.0
12006,50.0,9.0,15.0,6.0,0.0
12007,49.0,0.0,15.0,6.0,0.0
12008,86.0,1.0,15.0,8.0,0.0
12009,74.0,1.0,120.0,1.0,0.0
12010,86.0,1.0,15.0,1.0,0.0
12011,74.0,0.0,15.0,10.0,0.0
12012,74.0,2.0,15.0,2.0,0.0
12013,86.0,0.0,15.0,2.0,0.0
12014,62.0,2.0,30.0,11.0,0.0
12015,50.0,9.0,15.0,6.0,0.0
12016,62.0,15.0,15.0,3.0,0.0
12017,49.0,15.0,15.0,6.0,0.0
12018,86.0,2.0,15.0,8.0,0.0
12019,74.0,2.0,15.0,10.0,0.0
12020,62.0,1.0,30.0,11.0,0.0
12021,50.0,9.0,15.0,6.0,0.0
12022,49.0,0.0,15.0,6.0,0.0
12023,86.0,2.0,30.0,8.0,0.0
12024,63.0,2.0,30.0,11.0,0.0
12025,63.0,1.0,120.0,12.0,0.0
12026,50.0,9.0,15.0,6.0,0.0
12027,63.0,0.0,120.0,3.0,0.0
12028,51.0,23.0,120.0,13.0,0.0
12029,49.0,15.0,15.0,6.0,0.0
12030,74.0,2.0,15.0,10.0,0.0
12031,50.0,9.0,15.0,6.0,0.0
12032,49.0,0.0,15.0,6.0,0.0
12033,86.0,1.0,15.0,8.0,0.0
12034,86.0,0.0,15.0,1.0,0.0
12035,74.0,0.0,120.0,1.0,0.0
12036,74.0,0.0,15.0,10.0,0.0
12037,86.0,0.0,120.0,2.0,0.0
12038,74.0,2.0,120.0,2.0,0.0
12039,63.0,2.0,15.0,11.0,0.0
12040,50.0,9.0,15.0,6.0,0.0
12041,62.0,24.0,120.0,3.0,0.0
12042,49.0,15.0,15.0,6.0,0.0
12043,63.0,2.0,15.0,11.0,0.0
12044,50.0,9.0,15.0,6.0,0.0
12045,49.0,1.0,15.0,6.0,0.0
12046,86.0,2.0,15.0,8.0,0.0
12047,74.0,2.0,15.0,10.0,0.0
12048,64.0,26.0,30.0,11.0,0.0
12049,64.0,1.0,120.0,12.0,0.0
12050,50.0,1.0,120.0,6.0,0.0
12051,64.0,0.0,120.0,3.0,0.0
12052,52.0,23.0,120.0,13.0,0.0
12053,64.0,2.0,30.0,11.0,0.0
12054,86.0,1.0,15.0,8.0,0.0
12055,86.0,1.0,120.0,0.0,0.0
12056,86.0,1.0,120.0,1.0,0.0
12057,74.0,0.0,120.0,1.0,0.0
12058,74.0,0.0,15.0,10.0,0.0
12059,74.0,0.0,120.0,2.0,0.0
12060,86.0,0.0,120.0,2.0,0.0
12061,64.0,26.0,30.0,11.0,0.0
12062,62.0,24.0,120.0,3.0,0.0
12063,86.0,2.0,15.0,8.0,0.0
12064,74.0,2.0,15.0,10.0,0.0
12065,64.0,1.0,30.0,11.0,0.0
12066,83.0,2.0,30.0,8.0,0.0
12067,74.0,1.0,15.0,5.0,0.0
12068,62.0,0.0,15.0,5.0,0.0
12069,50.0,2.0,120.0,4.0,0.0
12070,66.0,1.0,120.0,12.0,0.0
12071,66.0,0.0,120.0,3.0,0.0
12072,50.0,1.0,120.0,6.0,0.0
12073,54.0,23.0,120.0,13.0,0.0
12074,71.0,2.0,15.0,10.0,0.0
12075,66.0,26.0,15.0,11.0,0.0
12076,83.0,0.0,15.0,8.0,0.0
12077,95.0,1.0,120.0,0.0,0.0
12078,71.0,1.0,120.0,1.0,0.0
12079,83.0,0.0,120.0,1.0,0.0
12080,71.0,2.0,15.0,10.0,0.0
12081,83.0,0.0,120.0,2.0,0.0
12082,71.0,0.0,120.0,2.0,0.0
12083,66.0,2.0,15.0,11.0,0.0
12084,71.0,24.0,120.0,3.0,0.0
12085,83.0,1.0,30.0,8.0,0.0
12086,71.0,0.0,30.0,10.0,0.0
12087,66.0,1.0,30.0,11.0,0.0
12088,79.0,2.0,30.0,8.0,0.0
12089,62.0,1.0,120.0,5.0,0.0
12090,74.0,1.0,15.0,5.0,0.0
12091,62.0,0.0,15.0,4.0,0.0
12092,67.0,26.0,30.0,11.0,0.0
12093,67.0,1.0,120.0,12.0,0.0
12094,55.0,23.0,120.0,13.0,0.0
12095,79.0,0.0,30.0,8.0,0.0
12096,67.0,2.0,15.0,10.0,0.0
12097,79.0,2.0,30.0,8.0,0.0
12098,91.0,1.0,120.0,0.0,0.0
12099,79.0,1.0,120.0,1.0,0.0
12100,67.0,2.0,120.0,2.0,0.0
12101,79.0,0.0,120.0,2.0,0.0
12102,67.0,2.0,15.0,10.0,0.0
12103,67.0,2.0,15.0,11.0,0.0
12104,67.0,1.0,60.0,3.0,0.0
12105,79.0,1.0,30.0,8.0,0.0
12106,67.0,0.0,30.0,10.0,0.0
12107,67.0,1.0,30.0,11.0,0.0
12108,62.0,0.0,120.0,5.0,0.0
12109,74.0,0.0,120.0,5.0,0.0
12110,64.0,2.0,30.0,10.0,0.0
12111,50.0,0.0,15.0,4.0,0.0
12112,62.0,0.0,120.0,4.0,0.0
12113,68.0,1.0,120.0,12.0,0.0
12114,50.0,0.0,15.0,6.0,0.0
12115,68.0,0.0,120.0,3.0,0.0
12116,56.0,23.0,120.0,13.0,0.0
12117,76.0,2.0,15.0,8.0,0.0
12118,68.0,26.0,15.0,11.0,0.0
12119,88.0,1.0,60.0,0.0,0.0
12120,76.0,0.0,15.0,8.0,0.0
12121,76.0,1.0,60.0,1.0,0.0
12122,64.0,0.0,60.0,2.0,0.0
12123,64.0,0.0,15.0,10.0,0.0
12124,76.0,2.0,60.0,2.0,0.0
12125,68.0,26.0,30.0,11.0,0.0
12126,64.0,1.0,60.0,3.0,0.0
12127,76.0,0.0,30.0,8.0,0.0
12128,64.0,2.0,15.0,10.0,0.0
12129,68.0,1.0,30.0,11.0,0.0
12130,86.0,0.0,120.0,0.0,0.0
12131,74.0,1.0,120.0,0.0,0.0
12132,81.0,0.0,600.0,5.0,0.0
12133,74.0,1.0,120.0,1.0,0.0
12134,69.0,0.0,600.0,4.0,0.0
12135,62.0,0.0,120.0,2.0,0.0
12136,74.0,0.0,120.0,2.0,0.0
12137,69.0,26.0,30.0,11.0,0.0
12138,69.0,1.0,540.0,12.0,0.0
12139,69.0,0.0,540.0,3.0,0.0
12140,57.0,1.0,540.0,3.0,0.0
12141,57.0,53.0,540.0,13.0,0.0
12142,74.0,2.0,15.0,8.0,0.0
12143,62.0,2.0,15.0,10.0,0.0
12144,69.0,26.0,30.0,11.0,0.0
12145,62.0,2.0,15.0,10.0,0.0
12146,74.0,2.0,15.0,8.0,0.0
12147,62.0,2.0,30.0,10.0,0.0
12148,69.0,26.0,15.0,11.0,0.0
12149,81.0,1.0,120.0,0.0,0.0
12150,81.0,2.0,30.0,8.0,0.0
12151,93.0,0.0,120.0,0.0,0.0
12152,81.0,1.0,120.0,1.0,0.0
12153,69.0,0.0,120.0,2.0,0.0
12154,81.0,0.0,120.0,2.0,0.0
12155,81.0,2.0,30.0,10.0,0.0
12156,69.0,26.0,15.0,11.0,0.0
12157,81.0,2.0,30.0,8.0,0.0
12158,69.0,26.0,30.0,11.0,0.0
12159,81.0,2.0,30.0,8.0,0.0
12160,81.0,2.0,15.0,10.0,0.0
12161,69.0,26.0,30.0,11.0,0.0
12162,81.0,0.0,30.0,8.0,0.0
12163,81.0,2.0,15.0,10.0,0.0
12164,69.0,26.0,30.0,11.0,0.0
12165,78.0,2.0,30.0,8.0,0.0
12166,90.0,0.0,120.0,0.0,0.0
12167,78.0,1.0,120.0,0.0,0.0
12168,78.0,1.0,120.0,1.0,0.0
12169,66.0,2.0,120.0,2.0,0.0
12170,78.0,2.0,30.0,10.0,0.0
12171,78.0,0.0,120.0,2.0,0.0
12172,66.0,26.0,30.0,11.0,0.0
12173,66.0,26.0,30.0,11.0,0.0
12174,78.0,2.0,15.0,8.0,0.0
12175,78.0,2.0,15.0,10.0,0.0
12176,78.0,2.0,15.0,8.0,0.0
12177,78.0,0.0,30.0,10.0,0.0
12178,66.0,26.0,15.0,11.0,0.0
12179,86.0,0.0,120.0,0.0,0.0
12180,74.0,1.0,120.0,0.0,0.0
12181,74.0,1.0,120.0,1.0,0.0
12182,74.0,2.0,30.0,10.0,0.0
12183,62.0,2.0,120.0,2.0,0.0
12184,74.0,0.0,120.0,2.0,0.0
12185,62.0,26.0,30.0,11.0,0.0
12186,74.0,2.0,15.0,8.0,0.0
12187,62.0,26.0,30.0,11.0,0.0
12188,74.0,2.0,15.0,8.0,0.0
12189,74.0,2.0,15.0,10.0,0.0
12190,62.0,26.0,30.0,11.0,0.0
12191,74.0,2.0,15.0,8.0,0.0
12192,74.0,2.0,15.0,10.0,0.0
12193,62.0,61.0,30.0,11.0,0.0
12194,69.0,0.0,120.0,8.0,0.0
12195,81.0,1.0,120.0,0.0,0.0
12196,93.0,0.0,120.0,0.0,0.0
12197,69.0,0.0,120.0,1.0,0.0
12198,81.0,1.0,120.0,1.0,0.0
12199,69.0,2.0,120.0,10.0,0.0
12200,57.0,0.0,120.0,2.0,0.0
12201,69.0,0.0,120.0,2.0,0.0
12202,57.0,1.0,120.0,11.0,0.0
12203,67.0,1.0,60.0,12.0,0.0
12204,55.0,0.0,60.0,3.0,0.0
12205,67.0,1.0,60.0,3.0,0.0
12206,55.0,43.0,60.0,13.0,0.0
12207,64.0,1.0,60.0,12.0,0.0
12208,64.0,1.0,60.0,3.0,0.0
12209,52.0,0.0,60.0,3.0,0.0
12210,52.0,58.0,60.0,13.0,0.0
12211,62.0,1.0,60.0,12.0,0.0
12212,62.0,1.0,60.0,3.0,0.0
12213,50.0,0.0,60.0,3.0,0.0
12214,50.0,58.0,60.0,13.0,0.0
12215,69.0,0.0,120.0,8.0,0.0
12216,76.0,0.0,120.0,8.0,0.0
12217,85.0,0.0,120.0,8.0,0.0
12218,93.0,0.0,120.0,0.0,0.0
12219,88.0,1.0,120.0,0.0,0.0
12220,81.0,0.0,120.0,5.0,0.0
12221,85.0,0.0,120.0,1.0,0.0
12222,81.0,1.0,120.0,1.0,0.0
12223,76.0,0.0,120.0,2.0,0.0
12224,69.0,0.0,120.0,4.0,0.0
12225,69.0,0.0,120.0,10.0,0.0
12226,85.0,0.0,120.0,10.0,0.0
12227,76.0,0.0,120.0,10.0,0.0
12228,73.0,2.0,120.0,2.0,0.0
12229,64.0,0.0,120.0,11.0,0.0
12230,57.0,46.0,120.0,11.0,0.0
12231,61.0,1.0,60.0,12.0,0.0
12232,49.0,1.0,60.0,3.0,0.0
12233,61.0,0.0,60.0,3.0,0.0
12234,49.0,58.0,60.0,13.0,0.0
12235,59.0,1.0,60.0,12.0,0.0
12236,59.0,1.0,60.0,3.0,0.0
12237,47.0,0.0,60.0,3.0,0.0
12238,47.0,8.0,60.0,13.0,0.0
12239,57.0,1.0,60.0,12.0,0.0
12240,45.0,0.0,60.0,3.0,0.0
12241,57.0,1.0,60.0,3.0,0.0
12242,45.0,58.0,60.0,13.0,0.0
12243,55.0,1.0,60.0,12.0,0.0
12244,43.0,0.0,60.0,3.0,0.0
12245,55.0,1.0,60.0,3.0,0.0
12246,43.0,70.0,60.0,13.0,0.0
12247,69.0,0.0,720.0,8.0,0.0
12248,62.0,2.0,720.0,10.0,0.0
12249,74.0,4.0,60.0,2.0,0.0
12250,54.0,56.0,720.0,11.0,0.0
12251,54.0,1.0,120.0,12.0,0.0
12252,62.0,56.0,60.0,3.0,0.0
12253,42.0,55.0,120.0,13.0,0.0
12254,73.0,3.0,60.0,2.0,0.0
12255,61.0,1.0,60.0,3.0,0.0
12256,71.0,4.0,60.0,2.0,0.0
12257,59.0,56.0,60.0,3.0,0.0
12258,69.0,4.0,60.0,2.0,0.0
12259,57.0,55.0,60.0,3.0,0.0
12260,79.0,5.0,60.0,1.0,0.0
12261,67.0,55.0,60.0,3.0,0.0
12262,78.0,5.0,60.0,1.0,0.0
12263,66.0,55.0,60.0,3.0,0.0
12264,76.0,5.0,60.0,1.0,0.0
12265,64.0,55.0,60.0,3.0,0.0
12266,74.0,5.0,60.0,1.0,0.0
12267,62.0,54.0,60.0,3.0,0.0
12268,83.0,1.0,60.0,0.0,0.0
12269,79.0,1.0,60.0,1.0,0.0
12270,71.0,0.0,60.0,2.0,0.0
12271,67.0,58.0,60.0,2.0,0.0
12272,81.0,1.0,60.0,0.0,0.0
12273,78.0,1.0,60.0,1.0,0.0
12274,66.0,0.0,60.0,2.0,0.0
12275,69.0,58.0,60.0,2.0,0.0
12276,79.0,1.0,60.0,0.0,0.0
12277,76.0,1.0,60.0,1.0,0.0
12278,67.0,0.0,60.0,2.0,0.0
12279,64.0,58.0,60.0,2.0,0.0
12280,78.0,1.0,60.0,0.0,0.0
12281,74.0,1.0,60.0,1.0,0.0
12282,62.0,0.0,60.0,2.0,0.0
12283,66.0,0.0,60.0,2.0,0.0
12284,71.0,0.0,240.0,8.0,0.0
12285,88.0,1.0,60.0,0.0,0.0
12286,85.0,1.0,60.0,1.0,0.0
12287,62.0,0.0,240.0,10.0,0.0
12288,73.0,58.0,60.0,2.0,0.0
12289,76.0,0.0,60.0,2.0,0.0
12290,55.0,56.0,240.0,11.0,0.0
12291,86.0,1.0,60.0,0.0,0.0
12292,83.0,1.0,60.0,1.0,0.0
12293,71.0,58.0,60.0,2.0,0.0
12294,74.0,0.0,60.0,2.0,0.0
12295,85.0,1.0,60.0,0.0,0.0
12296,81.0,1.0,60.0,1.0,0.0
12297,69.0,58.0,60.0,2.0,0.0
12298,73.0,0.0,60.0,2.0,0.0
12299,83.0,1.0,60.0,0.0,0.0
12300,79.0,1.0,60.0,1.0,0.0
12301,67.0,2.0,60.0,2.0,0.0
12302,71.0,0.0,60.0,2.0,0.0
12303,81.0,1.0,360.0,0.0,0.0
12304,66.0,2.0,60.0,8.0,0.0
12305,78.0,5.0,360.0,1.0,0.0
12306,69.0,43.0,120.0,2.0,0.0
12307,62.0,2.0,60.0,10.0,0.0
12308,66.0,0.0,120.0,2.0,0.0
12309,57.0,1.0,720.0,12.0,0.0
12310,69.0,39.0,360.0,3.0,0.0
12311,66.0,0.0,360.0,3.0,0.0
12312,45.0,83.0,720.0,13.0,0.0
12313,69.0,4.0,60.0,8.0,0.0
12314,57.0,41.0,15.0,11.0,0.0
12315,71.0,4.0,60.0,8.0,0.0
12316,59.0,56.0,60.0,11.0,0.0
12317,73.0,4.0,60.0,8.0,0.0
12318,61.0,56.0,60.0,11.0,0.0
12319,74.0,4.0,60.0,8.0,0.0
12320,62.0,56.0,60.0,11.0,0.0
12321,69.0,4.0,60.0,8.0,0.0
12322,57.0,11.0,60.0,11.0,0.0
12323,76.0,4.0,60.0,8.0,0.0
12324,79.0,1.0,120.0,0.0,0.0
12325,76.0,5.0,120.0,1.0,0.0
12326,64.0,56.0,60.0,11.0,0.0
12327,64.0,0.0,120.0,3.0,0.0
12328,67.0,39.0,120.0,3.0,0.0
12329,69.0,4.0,60.0,8.0,0.0
12330,57.0,11.0,60.0,11.0,0.0
12331,78.0,4.0,60.0,8.0,0.0
12332,78.0,1.0,240.0,0.0,0.0
12333,74.0,4.0,240.0,1.0,0.0
12334,66.0,56.0,60.0,11.0,0.0
12335,66.0,1.0,240.0,3.0,0.0
12336,62.0,0.0,240.0,3.0,0.0
12337,69.0,4.0,60.0,8.0,0.0
12338,57.0,56.0,60.0,11.0,0.0
12339,79.0,4.0,60.0,8.0,0.0
12340,67.0,56.0,60.0,11.0,0.0
12341,69.0,4.0,60.0,8.0,0.0
12342,57.0,11.0,60.0,11.0,0.0
12343,81.0,4.0,90.0,8.0,0.0
12344,76.0,1.0,240.0,0.0,0.0
12345,73.0,4.0,240.0,1.0,0.0
12346,69.0,116.0,90.0,11.0,0.0
12347,55.0,1.0,240.0,12.0,0.0
12348,57.0,0.0,240.0,3.0,0.0
12349,64.0,1.0,240.0,3.0,0.0
12350,43.0,23.0,240.0,13.0,0.0
12351,81.0,4.0,90.0,8.0,0.0
12352,69.0,26.0,90.0,11.0,0.0
12353,86.0,0.0,60.0,0.0,0.0
12354,74.0,4.0,30.0,8.0,0.0
12355,74.0,2.0,60.0,2.0,0.0
12356,54.0,1.0,720.0,12.0,0.0
12357,62.0,24.0,60.0,3.0,0.0
12358,42.0,23.0,720.0,13.0,0.0
12359,74.0,2.0,30.0,8.0,0.0
12360,62.0,26.0,15.0,11.0,0.0
12361,85.0,0.0,60.0,0.0,0.0
12362,73.0,2.0,60.0,2.0,0.0
12363,61.0,26.0,30.0,11.0,0.0
12364,61.0,24.0,60.0,3.0,0.0
12365,73.0,4.0,15.0,8.0,0.0
12366,61.0,2.0,30.0,11.0,0.0
12367,83.0,2.0,60.0,0.0,0.0
12368,71.0,2.0,60.0,2.0,0.0
12369,59.0,26.0,30.0,11.0,0.0
12370,59.0,24.0,60.0,3.0,0.0
12371,71.0,4.0,15.0,8.0,0.0
12372,59.0,2.0,30.0,11.0,0.0
12373,81.0,0.0,60.0,0.0,0.0
12374,69.0,4.0,30.0,8.0,0.0
12375,69.0,2.0,60.0,2.0,0.0
12376,57.0,26.0,30.0,11.0,0.0
12377,57.0,24.0,60.0,3.0,0.0
12378,69.0,2.0,30.0,8.0,0.0
12379,57.0,2.0,30.0,11.0,0.0
12380,91.0,0.0,60.0,0.0,0.0
12381,79.0,2.0,60.0,2.0,0.0
12382,67.0,24.0,60.0,3.0,0.0
12383,79.0,4.0,15.0,8.0,0.0
12384,67.0,26.0,15.0,11.0,0.0
12385,90.0,2.0,60.0,0.0,0.0
12386,78.0,4.0,30.0,8.0,0.0
12387,78.0,2.0,60.0,2.0,0.0
12388,66.0,24.0,60.0,3.0,0.0
12389,78.0,0.0,30.0,8.0,0.0
12390,66.0,26.0,15.0,11.0,0.0
12391,88.0,2.0,60.0,0.0,0.0
12392,76.0,4.0,30.0,8.0,0.0
12393,76.0,2.0,60.0,2.0,0.0
12394,64.0,26.0,30.0,11.0,0.0
12395,64.0,24.0,60.0,3.0,0.0
12396,76.0,0.0,30.0,8.0,0.0
12397,64.0,2.0,30.0,11.0,0.0
12398,86.0,0.0,60.0,0.0,0.0
12399,74.0,2.0,60.0,2.0,0.0
12400,62.0,26.0,30.0,11.0,0.0
12401,62.0,24.0,60.0,3.0,0.0
12402,74.0,4.0,15.0,8.0,0.0
12403,62.0,2.0,30.0,11.0,0.0
12404,95.0,0.0,60.0,0.0,0.0
12405,91.0,1.0,60.0,0.0,0.0
12406,79.0,1.0,60.0,1.0,0.0
12407,83.0,0.0,60.0,1.0,0.0
12408,71.0,2.0,30.0,10.0,0.0
12409,79.0,2.0,60.0,2.0,0.0
12410,83.0,0.0,60.0,2.0,0.0
12411,71.0,24.0,60.0,3.0,0.0
12412,67.0,0.0,60.0,3.0,0.0
12413,83.0,2.0,15.0,8.0,0.0
12414,71.0,0.0,30.0,10.0,0.0
12415,67.0,26.0,15.0,11.0,0.0
12416,81.0,2.0,30.0,8.0,0.0
12417,90.0,0.0,60.0,0.0,0.0
12418,93.0,0.0,60.0,0.0,0.0
12419,78.0,0.0,60.0,1.0,0.0
12420,81.0,1.0,60.0,1.0,0.0
12421,69.0,2.0,30.0,10.0,0.0
12422,81.0,0.0,60.0,2.0,0.0
12423,78.0,2.0,60.0,2.0,0.0
12424,66.0,26.0,30.0,11.0,0.0
12425,69.0,24.0,60.0,3.0,0.0
12426,66.0,0.0,60.0,3.0,0.0
12427,81.0,1.0,30.0,8.0,0.0
12428,69.0,0.0,30.0,10.0,0.0
12429,66.0,2.0,30.0,11.0,0.0
12430,91.0,0.0,60.0,0.0,0.0
12431,79.0,2.0,30.0,8.0,0.0
12432,88.0,1.0,60.0,0.0,0.0
12433,79.0,0.0,60.0,1.0,0.0
12434,76.0,1.0,60.0,1.0,0.0
12435,79.0,0.0,60.0,2.0,0.0
12436,76.0,0.0,60.0,2.0,0.0
12437,67.0,2.0,30.0,10.0,0.0
12438,64.0,0.0,60.0,3.0,0.0
12439,67.0,24.0,60.0,3.0,0.0
12440,79.0,0.0,30.0,8.0,0.0
12441,67.0,2.0,30.0,10.0,0.0
12442,64.0,26.0,15.0,11.0,0.0
12443,86.0,0.0,60.0,0.0,0.0
12444,78.0,2.0,30.0,8.0,0.0
12445,90.0,0.0,60.0,0.0,0.0
12446,74.0,1.0,60.0,1.0,0.0
12447,78.0,0.0,60.0,1.0,0.0
12448,74.0,0.0,60.0,2.0,0.0
12449,78.0,0.0,60.0,2.0,0.0
12450,62.0,26.0,30.0,11.0,0.0
12451,66.0,1.0,60.0,3.0,0.0
12452,62.0,0.0,60.0,3.0,0.0
12453,78.0,1.0,30.0,8.0,0.0
12454,66.0,2.0,15.0,10.0,0.0
12455,62.0,1.0,30.0,11.0,0.0
12456,88.0,1.0,60.0,0.0,0.0
12457,85.0,0.0,60.0,0.0,0.0
12458,88.0,0.0,60.0,1.0,0.0
12459,85.0,1.0,60.0,1.0,0.0
12460,73.0,0.0,60.0,2.0,0.0
12461,76.0,2.0,60.0,2.0,0.0
12462,73.0,26.0,30.0,11.0,0.0
12463,55.0,1.0,240.0,12.0,0.0
12464,61.0,0.0,60.0,3.0,0.0
12465,64.0,24.0,60.0,3.0,0.0
12466,43.0,23.0,240.0,13.0,0.0
12467,88.0,2.0,15.0,8.0,0.0
12468,76.0,2.0,15.0,10.0,0.0
12469,73.0,2.0,30.0,11.0,0.0
12470,83.0,0.0,60.0,0.0,0.0
12471,86.0,0.0,60.0,0.0,0.0
12472,83.0,1.0,60.0,1.0,0.0
12473,86.0,0.0,60.0,1.0,0.0
12474,71.0,0.0,60.0,2.0,0.0
12475,74.0,0.0,60.0,2.0,0.0
12476,74.0,2.0,30.0,10.0,0.0
12477,71.0,26.0,30.0,11.0,0.0
12478,62.0,0.0,60.0,3.0,0.0
12479,59.0,24.0,60.0,3.0,0.0
12480,86.0,2.0,15.0,8.0,0.0
12481,74.0,2.0,30.0,10.0,0.0
12482,71.0,2.0,30.0,11.0,0.0
12483,85.0,0.0,60.0,0.0,0.0
12484,85.0,2.0,30.0,8.0,0.0
12485,81.0,0.0,60.0,0.0,0.0
12486,81.0,0.0,60.0,1.0,0.0
12487,85.0,1.0,60.0,1.0,0.0
12488,69.0,0.0,60.0,2.0,0.0
12489,73.0,2.0,60.0,2.0,0.0
12490,69.0,26.0,30.0,11.0,0.0
12491,57.0,0.0,60.0,3.0,0.0
12492,61.0,24.0,60.0,3.0,0.0
12493,85.0,1.0,30.0,8.0,0.0
12494,73.0,2.0,15.0,10.0,0.0
12495,69.0,2.0,30.0,11.0,0.0
12496,79.0,0.0,60.0,0.0,0.0
12497,83.0,1.0,60.0,0.0,0.0
12498,79.0,1.0,60.0,1.0,0.0
12499,83.0,0.0,60.0,1.0,0.0
12500,67.0,0.0,60.0,2.0,0.0
12501,71.0,0.0,60.0,2.0,0.0
12502,67.0,26.0,30.0,11.0,0.0
12503,55.0,0.0,60.0,3.0,0.0
12504,59.0,1.0,60.0,3.0,0.0
12505,83.0,2.0,15.0,8.0,0.0
12506,71.0,2.0,15.0,10.0,0.0
12507,67.0,1.0,30.0,11.0,0.0
12508,81.0,2.0,120.0,0.0,0.0
12509,78.0,0.0,120.0,0.0,0.0
12510,78.0,1.0,360.0,1.0,0.0
12511,81.0,0.0,360.0,1.0,0.0
12512,69.0,2.0,30.0,10.0,0.0
12513,66.0,0.0,120.0,2.0,0.0
12514,69.0,0.0,120.0,2.0,0.0
12515,66.0,16.0,30.0,11.0,0.0
12516,57.0,2.0,60.0,12.0,0.0
12517,54.0,0.0,120.0,3.0,0.0
12518,57.0,24.0,120.0,3.0,0.0
12519,45.0,8.0,60.0,13.0,0.0
12520,81.0,2.0,15.0,8.0,0.0
12521,69.0,2.0,15.0,10.0,0.0
12522,66.0,26.0,15.0,11.0,0.0
12523,57.0,2.0,60.0,12.0,0.0
12524,45.0,8.0,60.0,13.0,0.0
12525,81.0,2.0,15.0,8.0,0.0
12526,69.0,2.0,30.0,10.0,0.0
12527,66.0,16.0,15.0,11.0,0.0
12528,81.0,0.0,15.0,8.0,0.0
12529,59.0,2.0,60.0,12.0,0.0
12530,69.0,0.0,240.0,3.0,0.0
12531,66.0,24.0,240.0,3.0,0.0
12532,47.0,8.0,60.0,13.0,0.0
12533,81.0,2.0,15.0,8.0,0.0
12534,69.0,2.0,15.0,10.0,0.0
12535,66.0,16.0,15.0,11.0,0.0
12536,81.0,2.0,15.0,8.0,0.0
12537,69.0,2.0,15.0,10.0,0.0
12538,61.0,2.0,60.0,12.0,0.0
12539,49.0,8.0,60.0,13.0,0.0
12540,81.0,2.0,30.0,8.0,0.0
12541,66.0,16.0,15.0,11.0,0.0
12542,81.0,2.0,30.0,8.0,0.0
12543,69.0,2.0,15.0,10.0,0.0
12544,66.0,26.0,15.0,11.0,0.0
12545,62.0,2.0,60.0,12.0,0.0
12546,50.0,8.0,60.0,13.0,0.0
12547,69.0,2.0,30.0,10.0,0.0
12548,66.0,16.0,15.0,11.0,0.0
12549,81.0,2.0,15.0,8.0,0.0
12550,66.0,26.0,15.0,11.0,0.0
12551,57.0,2.0,60.0,12.0,0.0
12552,45.0,8.0,60.0,13.0,0.0
12553,81.0,2.0,15.0,8.0,0.0
12554,69.0,2.0,15.0,10.0,0.0
12555,66.0,2.0,30.0,11.0,0.0
12556,79.0,2.0,30.0,8.0,0.0
12557,76.0,1.0,120.0,1.0,0.0
12558,79.0,0.0,120.0,1.0,0.0
12559,64.0,16.0,30.0,11.0,0.0
12560,64.0,2.0,60.0,12.0,0.0
12561,64.0,24.0,120.0,3.0,0.0
12562,67.0,0.0,120.0,3.0,0.0
12563,52.0,8.0,60.0,13.0,0.0
12564,67.0,2.0,15.0,10.0,0.0
12565,64.0,26.0,30.0,11.0,0.0
12566,79.0,2.0,15.0,8.0,0.0
12567,57.0,2.0,60.0,12.0,0.0
12568,45.0,8.0,60.0,13.0,0.0
12569,79.0,1.0,30.0,8.0,0.0
12570,67.0,2.0,15.0,10.0,0.0
12571,64.0,16.0,15.0,11.0,0.0
12572,93.0,0.0,480.0,0.0,0.0
12573,78.0,2.0,30.0,8.0,0.0
12574,78.0,0.0,240.0,1.0,0.0
12575,74.0,1.0,240.0,1.0,0.0
12576,69.0,2.0,480.0,2.0,0.0
12577,81.0,0.0,480.0,2.0,0.0
12578,66.0,2.0,60.0,12.0,0.0
12579,66.0,0.0,240.0,3.0,0.0
12580,62.0,24.0,240.0,3.0,0.0
12581,54.0,8.0,60.0,13.0,0.0
12582,66.0,2.0,15.0,10.0,0.0
12583,62.0,16.0,15.0,11.0,0.0
12584,78.0,2.0,15.0,8.0,0.0
12585,62.0,26.0,15.0,11.0,0.0
12586,57.0,2.0,60.0,12.0,0.0
12587,45.0,8.0,60.0,13.0,0.0
12588,78.0,2.0,15.0,8.0,0.0
12589,66.0,2.0,15.0,10.0,0.0
12590,62.0,26.0,30.0,11.0,0.0
12591,66.0,2.0,15.0,10.0,0.0
12592,62.0,16.0,30.0,11.0,0.0
12593,67.0,2.0,60.0,12.0,0.0
12594,55.0,8.0,60.0,13.0,0.0
12595,78.0,2.0,15.0,8.0,0.0
12596,66.0,2.0,15.0,10.0,0.0
12597,62.0,26.0,30.0,11.0,0.0
12598,78.0,2.0,30.0,8.0,0.0
12599,62.0,16.0,30.0,11.0,0.0
12600,57.0,2.0,60.0,12.0,0.0
12601,45.0,8.0,60.0,13.0,0.0
12602,78.0,1.0,30.0,8.0,0.0
12603,66.0,2.0,15.0,10.0,0.0
12604,62.0,2.0,30.0,11.0,0.0
12605,76.0,2.0,30.0,8.0,0.0
12606,76.0,1.0,240.0,1.0,0.0
12607,64.0,2.0,30.0,10.0,0.0
12608,60.0,26.0,30.0,11.0,0.0
12609,69.0,2.0,120.0,12.0,0.0
12610,64.0,1.0,240.0,3.0,0.0
12611,57.0,23.0,120.0,13.0,0.0
12612,60.0,26.0,30.0,11.0,0.0
12613,76.0,2.0,15.0,8.0,0.0
12614,64.0,2.0,15.0,10.0,0.0
12615,76.0,2.0,15.0,8.0,0.0
12616,64.0,2.0,30.0,10.0,0.0
12617,60.0,26.0,15.0,11.0,0.0
12618,76.0,2.0,15.0,8.0,0.0
12619,64.0,2.0,30.0,10.0,0.0
12620,67.0,1.0,120.0,12.0,0.0
12621,55.0,23.0,120.0,13.0,0.0
12622,76.0,2.0,15.0,8.0,0.0
12623,64.0,2.0,30.0,10.0,0.0
12624,60.0,26.0,15.0,11.0,0.0
12625,76.0,2.0,15.0,8.0,0.0
12626,64.0,2.0,30.0,10.0,0.0
12627,60.0,26.0,15.0,11.0,0.0
12628,76.0,2.0,15.0,8.0,0.0
12629,64.0,0.0,30.0,10.0,0.0
12630,60.0,1.0,30.0,11.0,0.0
12631,93.0,1.0,360.0,0.0,0.0
12632,81.0,1.0,15.0,0.0,0.0
12633,72.0,0.0,15.0,1.0,0.0
12634,81.0,0.0,360.0,5.0,0.0
12635,69.0,0.0,360.0,2.0,0.0
12636,81.0,0.0,360.0,2.0,0.0
12637,69.0,2.0,360.0,4.0,0.0
12638,63.0,2.0,30.0,10.0,0.0
12639,66.0,1.0,360.0,12.0,0.0
12640,60.0,0.0,15.0,3.0,0.0
12641,63.0,24.0,120.0,3.0,0.0
12642,54.0,23.0,360.0,13.0,0.0
12643,75.0,2.0,15.0,8.0,0.0
12644,63.0,2.0,30.0,10.0,0.0
12645,57.0,26.0,15.0,11.0,0.0
12646,69.0,2.0,30.0,8.0,0.0
12647,57.0,26.0,30.0,11.0,0.0
12648,69.0,1.0,30.0,8.0,0.0
12649,69.0,2.0,15.0,10.0,0.0
12650,57.0,2.0,30.0,11.0,0.0
12651,75.0,0.0,15.0,1.0,0.0
12652,87.0,0.0,240.0,1.0,0.0
12653,71.0,2.0,30.0,10.0,0.0
12654,66.0,1.0,240.0,3.0,0.0
12655,69.0,0.0,240.0,3.0,0.0
12656,71.0,2.0,15.0,8.0,0.0
12657,71.0,2.0,30.0,10.0,0.0
12658,59.0,26.0,15.0,11.0,0.0
12659,72.0,2.0,30.0,10.0,0.0
12660,60.0,26.0,30.0,11.0,0.0
12661,72.0,2.0,15.0,8.0,0.0
12662,72.0,2.0,30.0,10.0,0.0
12663,60.0,26.0,30.0,11.0,0.0
12664,63.0,26.0,30.0,11.0,0.0
12665,75.0,2.0,15.0,8.0,0.0
12666,75.0,2.0,15.0,10.0,0.0
12667,63.0,26.0,30.0,11.0,0.0
12668,57.0,26.0,30.0,11.0,0.0
12669,69.0,2.0,15.0,8.0,0.0
12670,69.0,2.0,15.0,10.0,0.0
12671,57.0,1.0,30.0,11.0,0.0
12672,76.0,2.0,30.0,8.0,0.0
12673,91.0,0.0,120.0,0.0,0.0
12674,79.0,1.0,120.0,0.0,0.0
12675,76.0,1.0,120.0,1.0,0.0
12676,88.0,0.0,120.0,1.0,0.0
12677,79.0,0.0,120.0,2.0,0.0
12678,67.0,2.0,120.0,4.0,0.0
12679,67.0,0.0,120.0,2.0,0.0
12680,64.0,1.0,120.0,12.0,0.0
12681,64.0,0.0,120.0,3.0,0.0
12682,67.0,1.0,120.0,3.0,0.0
12683,52.0,23.0,120.0,13.0,0.0
12684,76.0,2.0,30.0,8.0,0.0
12685,76.0,2.0,15.0,10.0,0.0
12686,64.0,26.0,15.0,11.0,0.0
12687,69.0,2.0,30.0,10.0,0.0
12688,69.0,2.0,15.0,8.0,0.0
12689,69.0,0.0,30.0,10.0,0.0
12690,57.0,26.0,15.0,11.0,0.0
12691,78.0,2.0,30.0,8.0,0.0
12692,78.0,1.0,120.0,0.0,0.0
12693,90.0,0.0,120.0,0.0,0.0
12694,78.0,0.0,120.0,1.0,0.0
12695,90.0,1.0,120.0,1.0,0.0
12696,66.0,0.0,120.0,2.0,0.0
12697,78.0,0.0,120.0,2.0,0.0
12698,69.0,0.0,120.0,4.0,0.0
12699,66.0,26.0,30.0,11.0,0.0
12700,63.0,1.0,120.0,12.0,0.0
12701,63.0,0.0,120.0,3.0,0.0
12702,66.0,1.0,120.0,3.0,0.0
12703,51.0,23.0,120.0,13.0,0.0
12704,78.0,2.0,30.0,8.0,0.0
12705,78.0,2.0,15.0,10.0,0.0
12706,66.0,26.0,30.0,11.0,0.0
12707,69.0,2.0,30.0,10.0,0.0
12708,57.0,26.0,30.0,11.0,0.0
12709,69.0,2.0,15.0,8.0,0.0
12710,69.0,2.0,30.0,10.0,0.0
12711,57.0,1.0,30.0,11.0,0.0
12712,76.0,0.0,120.0,0.0,0.0
12713,88.0,1.0,120.0,0.0,0.0
12714,88.0,0.0,120.0,1.0,0.0
12715,76.0,1.0,120.0,1.0,0.0
12716,64.0,0.0,120.0,2.0,0.0
12717,76.0,2.0,120.0,2.0,0.0
12718,67.0,26.0,30.0,11.0,0.0
12719,60.0,1.0,120.0,12.0,0.0
12720,64.0,1.0,120.0,3.0,0.0
12721,60.0,0.0,120.0,3.0,0.0
12722,48.0,23.0,120.0,13.0,0.0
12723,79.0,2.0,15.0,8.0,0.0
12724,79.0,2.0,15.0,10.0,0.0
12725,67.0,26.0,30.0,11.0,0.0
12726,69.0,2.0,30.0,8.0,0.0
12727,57.0,26.0,30.0,11.0,0.0
12728,69.0,0.0,30.0,8.0,0.0
12729,69.0,2.0,15.0,10.0,0.0
12730,57.0,1.0,30.0,11.0,0.0
12731,75.0,0.0,120.0,0.0,0.0
12732,87.0,0.0,120.0,0.0,0.0
12733,63.0,0.0,120.0,2.0,0.0
12734,75.0,0.0,120.0,2.0,0.0
12735,81.0,2.0,30.0,10.0,0.0
12736,59.0,1.0,120.0,12.0,0.0
12737,47.0,23.0,120.0,13.0,0.0
12738,81.0,2.0,15.0,8.0,0.0
12739,81.0,2.0,30.0,10.0,0.0
12740,69.0,26.0,15.0,11.0,0.0
12741,57.0,26.0,30.0,11.0,0.0
12742,69.0,2.0,15.0,8.0,0.0
12743,69.0,2.0,15.0,10.0,0.0
12744,57.0,1.0,30.0,11.0,0.0
12745,81.0,2.0,30.0,8.0,0.0
12746,78.0,1.0,15.0,1.0,0.0
12747,90.0,0.0,15.0,1.0,0.0
12748,75.0,0.0,120.0,2.0,0.0
12749,63.0,0.0,120.0,2.0,0.0
12750,69.0,26.0,30.0,11.0,0.0
12751,47.0,1.0,120.0,12.0,0.0
12752,59.0,0.0,15.0,3.0,0.0
12753,63.0,1.0,15.0,3.0,0.0
12754,81.0,2.0,30.0,8.0,0.0
12755,81.0,2.0,15.0,10.0,0.0
12756,69.0,26.0,30.0,11.0,0.0
12757,69.0,2.0,30.0,8.0,0.0
12758,57.0,26.0,30.0,11.0,0.0
12759,69.0,0.0,30.0,8.0,0.0
12760,69.0,2.0,15.0,10.0,0.0
12761,57.0,1.0,30.0,11.0,0.0
12762,87.0,0.0,15.0,0.0,0.0
12763,75.0,1.0,15.0,0.0,0.0
12764,81.0,2.0,30.0,8.0,0.0
12765,87.0,0.0,60.0,1.0,0.0
12766,75.0,1.0,60.0,1.0,0.0
12767,81.0,1.0,360.0,5.0,0.0
12768,63.0,4.0,60.0,2.0,0.0
12769,69.0,2.0,15.0,4.0,0.0
12770,75.0,0.0,60.0,2.0,0.0
12771,66.0,11.0,30.0,11.0,0.0
12772,69.0,0.0,30.0,11.0,0.0
12773,63.0,0.0,15.0,3.0,0.0
12774,59.0,1.0,15.0,3.0,0.0
12775,35.0,23.0,15.0,13.0,0.0
12776,81.0,2.0,30.0,8.0,0.0
12777,78.0,2.0,15.0,10.0,0.0
12778,69.0,0.0,30.0,11.0,0.0
12779,81.0,2.0,30.0,8.0,0.0
12780,81.0,0.0,60.0,0.0,0.0
12781,69.0,1.0,60.0,0.0,0.0
12782,81.0,0.0,60.0,1.0,0.0
12783,69.0,1.0,60.0,1.0,0.0
12784,69.0,4.0,60.0,2.0,0.0
12785,78.0,2.0,15.0,10.0,0.0
12786,66.0,1.0,15.0,11.0,0.0
12787,47.0,1.0,15.0,12.0,0.0
12788,57.0,9.0,60.0,3.0,0.0
12789,35.0,23.0,60.0,13.0,0.0
12790,78.0,2.0,15.0,10.0,0.0
12791,69.0,11.0,15.0,11.0,0.0
12792,66.0,0.0,30.0,11.0,0.0
12793,83.0,1.0,60.0,0.0,0.0
12794,81.0,2.0,15.0,8.0,0.0
12795,71.0,0.0,60.0,0.0,0.0
12796,83.0,0.0,60.0,1.0,0.0
12797,71.0,1.0,60.0,1.0,0.0
12798,71.0,4.0,60.0,2.0,0.0
12799,78.0,2.0,15.0,10.0,0.0
12800,69.0,0.0,30.0,11.0,0.0
12801,47.0,1.0,15.0,3.0,0.0
12802,59.0,9.0,60.0,3.0,0.0
12803,81.0,2.0,15.0,8.0,0.0
12804,78.0,2.0,30.0,10.0,0.0
12805,66.0,11.0,15.0,11.0,0.0
12806,69.0,0.0,30.0,11.0,0.0
12807,84.0,1.0,60.0,0.0,0.0
12808,72.0,0.0,60.0,0.0,0.0
12809,81.0,2.0,15.0,8.0,0.0
12810,84.0,0.0,60.0,1.0,0.0
12811,72.0,1.0,60.0,1.0,0.0
12812,72.0,4.0,60.0,2.0,0.0
12813,69.0,11.0,30.0,11.0,0.0
12814,47.0,1.0,15.0,12.0,0.0
12815,60.0,9.0,60.0,3.0,0.0
12816,35.0,23.0,15.0,13.0,0.0
12817,81.0,2.0,15.0,8.0,0.0
12818,78.0,2.0,15.0,10.0,0.0
12819,66.0,0.0,15.0,11.0,0.0
12820,75.0,0.0,60.0,0.0,0.0
12821,87.0,1.0,60.0,0.0,0.0
12822,87.0,0.0,60.0,1.0,0.0
12823,75.0,1.0,60.0,1.0,0.0
12824,75.0,4.0,60.0,2.0,0.0
12825,78.0,2.0,30.0,10.0,0.0
12826,69.0,1.0,15.0,11.0,0.0
12827,66.0,11.0,30.0,11.0,0.0
12828,47.0,1.0,15.0,3.0,0.0
12829,63.0,9.0,60.0,3.0,0.0
12830,35.0,23.0,15.0,13.0,0.0
12831,81.0,2.0,15.0,8.0,0.0
12832,69.0,0.0,30.0,11.0,0.0
12833,81.0,1.0,60.0,0.0,0.0
12834,69.0,0.0,60.0,0.0,0.0
12835,81.0,1.0,60.0,1.0,0.0
12836,69.0,0.0,60.0,1.0,0.0
12837,78.0,2.0,15.0,10.0,0.0
12838,69.0,4.0,60.0,2.0,0.0
12839,66.0,1.0,15.0,11.0,0.0
12840,47.0,1.0,15.0,12.0,0.0
12841,57.0,9.0,60.0,3.0,0.0
12842,81.0,2.0,15.0,8.0,0.0
12843,78.0,2.0,30.0,10.0,0.0
12844,69.0,0.0,15.0,11.0,0.0
12845,66.0,0.0,30.0,11.0,0.0
12846,76.0,1.0,60.0,0.0,0.0
12847,88.0,0.0,60.0,0.0,0.0
12848,79.0,2.0,30.0,8.0,0.0
12849,71.0,1.0,90.0,5.0,0.0
12850,76.0,1.0,60.0,1.0,0.0
12851,88.0,0.0,60.0,1.0,0.0
12852,67.0,2.0,120.0,4.0,0.0
12853,76.0,4.0,60.0,2.0,0.0
12854,76.0,2.0,30.0,10.0,0.0
12855,67.0,0.0,30.0,11.0,0.0
12856,64.0,11.0,30.0,11.0,0.0
12857,47.0,1.0,15.0,12.0,0.0
12858,64.0,9.0,60.0,3.0,0.0
12859,47.0,1.0,15.0,3.0,0.0
12860,35.0,23.0,15.0,13.0,0.0
12861,79.0,2.0,30.0,8.0,0.0
12862,76.0,2.0,30.0,10.0,0.0
12863,64.0,0.0,30.0,11.0,0.0
12864,69.0,1.0,60.0,0.0,0.0
12865,79.0,1.0,30.0,8.0,0.0
12866,81.0,0.0,60.0,0.0,0.0
12867,69.0,1.0,60.0,1.0,0.0
12868,81.0,0.0,60.0,1.0,0.0
12869,69.0,4.0,60.0,2.0,0.0
12870,67.0,1.0,15.0,11.0,0.0
12871,47.0,1.0,15.0,12.0,0.0
12872,57.0,9.0,60.0,3.0,0.0
12873,47.0,1.0,60.0,3.0,0.0
12874,35.0,23.0,15.0,13.0,0.0
12875,79.0,1.0,30.0,8.0,0.0
12876,76.0,2.0,15.0,10.0,0.0
12877,64.0,0.0,15.0,11.0,0.0
12878,67.0,0.0,30.0,11.0,0.0
12879,90.0,0.0,60.0,0.0,0.0
12880,78.0,0.0,60.0,0.0,0.0
12881,71.0,1.0,15.0,5.0,0.0
12882,90.0,0.0,60.0,1.0,0.0
12883,78.0,1.0,60.0,1.0,0.0
12884,69.0,2.0,30.0,10.0,0.0
12885,69.0,0.0,120.0,4.0,0.0
12886,78.0,2.0,60.0,2.0,0.0
12887,66.0,0.0,30.0,11.0,0.0
12888,47.0,1.0,15.0,12.0,0.0
12889,66.0,1.0,60.0,3.0,0.0
12890,47.0,0.0,60.0,3.0,0.0
12891,35.0,23.0,15.0,13.0,0.0
12892,78.0,2.0,15.0,8.0,0.0
12893,57.0,26.0,15.0,11.0,0.0
12894,69.0,0.0,60.0,0.0,0.0
12895,81.0,1.0,60.0,0.0,0.0
12896,78.0,2.0,30.0,8.0,0.0
12897,69.0,0.0,60.0,1.0,0.0
12898,81.0,1.0,60.0,1.0,0.0
12899,69.0,0.0,15.0,10.0,0.0
12900,69.0,2.0,60.0,2.0,0.0
12901,66.0,1.0,15.0,11.0,0.0
12902,57.0,0.0,15.0,11.0,0.0
12903,47.0,1.0,15.0,12.0,0.0
12904,47.0,0.0,60.0,3.0,0.0
12905,57.0,1.0,60.0,3.0,0.0
12906,35.0,23.0,15.0,13.0,0.0
12907,78.0,0.0,30.0,8.0,0.0
12908,69.0,0.0,30.0,10.0,0.0
12909,66.0,0.0,15.0,11.0,0.0
12910,57.0,1.0,30.0,11.0,0.0
12911,76.0,2.0,30.0,8.0,0.0
12912,79.0,0.0,60.0,0.0,0.0
12913,91.0,1.0,60.0,0.0,0.0
12914,71.0,0.0,15.0,5.0,0.0
12915,79.0,1.0,60.0,1.0,0.0
12916,67.0,0.0,120.0,4.0,0.0
12917,79.0,0.0,60.0,2.0,0.0
12918,47.0,1.0,60.0,12.0,0.0
12919,47.0,1.0,60.0,3.0,0.0
12920,67.0,0.0,60.0,3.0,0.0
12921,35.0,23.0,15.0,13.0,0.0
12922,76.0,0.0,30.0,8.0,0.0
12923,67.0,2.0,15.0,10.0,0.0
12924,64.0,0.0,15.0,11.0,0.0
12925,55.0,26.0,15.0,11.0,0.0
12926,69.0,1.0,60.0,0.0,0.0
12927,76.0,1.0,30.0,8.0,0.0
12928,69.0,0.0,60.0,1.0,0.0
12929,81.0,0.0,60.0,1.0,0.0
12930,69.0,2.0,60.0,2.0,0.0
12931,67.0,2.0,15.0,10.0,0.0
12932,55.0,26.0,30.0,11.0,0.0
12933,64.0,0.0,30.0,11.0,0.0
12934,47.0,1.0,60.0,12.0,0.0
12935,57.0,1.0,60.0,3.0,0.0
12936,47.0,0.0,60.0,3.0,0.0
12937,76.0,0.0,30.0,8.0,0.0
12938,71.0,1.0,15.0,5.0,0.0
12939,67.0,0.0,30.0,10.0,0.0
12940,55.0,1.0,30.0,11.0,0.0
12941,64.0,0.0,30.0,11.0,0.0
12942,93.0,0.0,60.0,0.0,0.0
12943,81.0,0.0,15.0,0.0,0.0
12944,75.0,2.0,30.0,8.0,0.0
12945,81.0,1.0,60.0,1.0,0.0
12946,69.0,2.0,120.0,4.0,0.0
12947,81.0,2.0,60.0,2.0,0.0
12948,63.0,26.0,30.0,11.0,0.0
12949,54.0,0.0,30.0,11.0,0.0
12950,69.0,0.0,60.0,3.0,0.0
12951,35.0,23.0,15.0,13.0,0.0
12952,66.0,2.0,15.0,10.0,0.0
12953,54.0,0.0,30.0,11.0,0.0
12954,75.0,1.0,15.0,8.0,0.0
12955,69.0,0.0,60.0,0.0,0.0
12956,81.0,0.0,15.0,0.0,0.0
12957,69.0,0.0,60.0,1.0,0.0
12958,81.0,0.0,60.0,1.0,0.0
12959,69.0,0.0,60.0,2.0,0.0
12960,63.0,1.0,15.0,11.0,0.0
12961,54.0,0.0,30.0,11.0,0.0
12962,47.0,1.0,15.0,12.0,0.0
12963,47.0,1.0,15.0,3.0,0.0
12964,57.0,0.0,60.0,3.0,0.0
12965,35.0,23.0,15.0,13.0,0.0
12966,75.0,1.0,30.0,8.0,0.0
12967,66.0,2.0,15.0,10.0,0.0
12968,54.0,1.0,30.0,11.0,0.0
12969,63.0,0.0,30.0,11.0,0.0
12970,76.0,2.0,30.0,8.0,0.0
12971,71.0,1.0,15.0,5.0,0.0
12972,76.0,0.0,60.0,2.0,0.0
12973,79.0,0.0,60.0,2.0,0.0
12974,67.0,0.0,120.0,4.0,0.0
12975,67.0,2.0,30.0,10.0,0.0
12976,55.0,2.0,120.0,4.0,0.0
12977,55.0,0.0,30.0,11.0,0.0
12978,64.0,26.0,30.0,11.0,0.0
12979,47.0,1.0,15.0,12.0,0.0
12980,47.0,1.0,15.0,3.0,0.0
12981,70.0,1.0,60.0,3.0,0.0
12982,82.0,0.0,15.0,0.0,0.0
12983,94.0,0.0,15.0,0.0,0.0
12984,76.0,1.0,15.0,8.0,0.0
12985,82.0,1.0,15.0,1.0,0.0
12986,67.0,2.0,15.0,10.0,0.0
12987,76.0,0.0,60.0,2.0,0.0
12988,79.0,0.0,60.0,2.0,0.0
12989,64.0,1.0,15.0,11.0,0.0
12990,55.0,0.0,15.0,11.0,0.0
12991,47.0,0.0,60.0,3.0,0.0
12992,70.0,1.0,60.0,3.0,0.0
12993,35.0,23.0,15.0,13.0,0.0
12994,76.0,0.0,30.0,8.0,0.0
12995,71.0,1.0,30.0,5.0,0.0
12996,67.0,0.0,30.0,10.0,0.0
12997,55.0,0.0,15.0,11.0,0.0
12998,64.0,26.0,15.0,11.0,0.0
12999,66.0,1.0,120.0,8.0,0.0
13000,83.0,0.0,120.0,0.0,0.0
13001,95.0,0.0,120.0,0.0,0.0
13002,59.0,0.0,120.0,8.0,0.0
13003,75.0,0.0,120.0,8.0,0.0
13004,83.0,0.0,120.0,8.0,0.0
13005,83.0,0.0,120.0,1.0,0.0
13006,71.0,1.0,120.0,5.0,0.0
13007,75.0,2.0,120.0,2.0,0.0
13008,75.0,0.0,30.0,10.0,0.0
13009,78.0,0.0,120.0,2.0,0.0
13010,59.0,0.0,30.0,10.0,0.0
13011,71.0,0.0,120.0,4.0,0.0
13012,59.0,0.0,120.0,4.0,0.0
13013,54.0,21.0,30.0,11.0,0.0
13014,63.0,0.0,30.0,11.0,0.0
13015,47.0,1.0,15.0,12.0,0.0
13016,47.0,1.0,60.0,3.0,0.0
13017,71.0,1.0,120.0,3.0,0.0
13018,35.0,15.0,60.0,13.0,0.0
13019,66.0,2.0,15.0,10.0,0.0
13020,63.0,1.0,30.0,11.0,0.0
13021,49.0,1.0,20.0,12.0,0.0
13022,49.0,1.0,20.0,3.0,0.0
13023,37.0,18.0,20.0,13.0,0.0
13024,66.0,0.0,30.0,10.0,0.0
13025,63.0,1.0,30.0,11.0,0.0
13026,47.0,1.0,20.0,12.0,0.0
13027,47.0,1.0,20.0,3.0,0.0
13028,35.0,13.0,20.0,13.0,0.0
13029,46.0,1.0,20.0,12.0,0.0
13030,46.0,0.0,20.0,3.0,0.0
13031,34.0,35.0,20.0,13.0,0.0
13032,63.0,2.0,30.0,10.0,0.0
13033,59.0,6.0,30.0,11.0,0.0
13034,47.0,1.0,60.0,12.0,0.0
13035,47.0,1.0,60.0,3.0,0.0
13036,35.0,30.0,60.0,13.0,0.0
13037,66.0,2.0,30.0,10.0,0.0
13038,63.0,26.0,30.0,11.0,0.0
13039,49.0,1.0,60.0,12.0,0.0
13040,49.0,1.0,60.0,3.0,0.0
13041,37.0,10.0,60.0,13.0,0.0
13042,66.0,2.0,30.0,10.0,0.0
13043,63.0,38.0,30.0,11.0,0.0
13044,63.0,2.0,30.0,10.0,0.0
13045,59.0,38.0,30.0,11.0,0.0
13046,47.0,1.0,120.0,12.0,0.0
13047,47.0,1.0,120.0,3.0,0.0
13048,35.0,35.0,120.0,13.0,0.0
13049,63.0,38.0,30.0,11.0,0.0
13050,66.0,2.0,15.0,10.0,0.0
13051,63.0,1.0,30.0,11.0,0.0
13052,75.0,2.0,120.0,8.0,0.0
13053,63.0,2.0,30.0,10.0,0.0
13054,59.0,38.0,30.0,11.0,0.0
13055,66.0,2.0,15.0,10.0,0.0
13056,63.0,36.0,15.0,11.0,0.0
13057,76.0,2.0,120.0,8.0,0.0
13058,61.0,2.0,30.0,10.0,0.0
13059,58.0,38.0,30.0,11.0,0.0
13060,61.0,36.0,30.0,11.0,0.0
13061,64.0,2.0,15.0,10.0,0.0
13062,61.0,38.0,30.0,11.0,0.0
13063,73.0,2.0,120.0,8.0,0.0
13064,61.0,2.0,30.0,10.0,0.0
13065,58.0,38.0,30.0,11.0,0.0
13066,64.0,2.0,30.0,10.0,0.0
13067,61.0,36.0,30.0,11.0,0.0
13068,64.0,2.0,30.0,10.0,0.0
13069,61.0,38.0,30.0,11.0,0.0
13070,80.0,2.0,120.0,8.0,0.0
13071,61.0,2.0,30.0,10.0,0.0
13072,58.0,38.0,30.0,11.0,0.0
13073,64.0,2.0,15.0,10.0,0.0
13074,61.0,36.0,15.0,11.0,0.0
13075,90.0,1.0,120.0,0.0,0.0
13076,78.0,1.0,120.0,1.0,0.0
13077,61.0,2.0,30.0,10.0,0.0
13078,58.0,38.0,30.0,11.0,0.0
13079,66.0,1.0,120.0,3.0,0.0
13080,42.0,23.0,90.0,13.0,0.0
13081,64.0,2.0,30.0,10.0,0.0
13082,61.0,11.0,30.0,11.0,0.0
13083,64.0,2.0,30.0,10.0,0.0
13084,61.0,1.0,30.0,11.0,0.0
13085,54.0,2.0,15.0,12.0,0.0
13086,42.0,35.0,30.0,13.0,0.0
13087,78.0,0.0,15.0,8.0,0.0
13088,90.0,0.0,360.0,0.0,0.0
13089,78.0,1.0,360.0,1.0,0.0
13090,63.0,2.0,30.0,10.0,0.0
13091,59.0,21.0,30.0,11.0,0.0
13092,47.0,2.0,60.0,12.0,0.0
13093,66.0,1.0,360.0,3.0,0.0
13094,35.0,15.0,60.0,13.0,0.0
13095,66.0,2.0,30.0,10.0,0.0
13096,63.0,1.0,30.0,11.0,0.0
13097,49.0,2.0,20.0,12.0,0.0
13098,37.0,18.0,20.0,13.0,0.0
13099,66.0,2.0,30.0,10.0,0.0
13100,63.0,1.0,30.0,11.0,0.0
13101,47.0,2.0,20.0,12.0,0.0
13102,35.0,15.0,20.0,13.0,0.0
13103,46.0,2.0,20.0,12.0,0.0
13104,34.0,35.0,20.0,13.0,0.0
13105,63.0,2.0,30.0,10.0,0.0
13106,59.0,6.0,30.0,11.0,0.0
13107,47.0,2.0,60.0,12.0,0.0
13108,35.0,30.0,60.0,13.0,0.0
13109,49.0,2.0,60.0,12.0,0.0
13110,37.0,10.0,60.0,13.0,0.0
13111,66.0,2.0,15.0,10.0,0.0
13112,63.0,26.0,15.0,11.0,0.0
13113,63.0,2.0,30.0,10.0,0.0
13114,59.0,38.0,30.0,11.0,0.0
13115,47.0,1.0,120.0,12.0,0.0
13116,35.0,35.0,120.0,13.0,0.0
13117,66.0,2.0,30.0,10.0,0.0
13118,66.0,2.0,30.0,10.0,0.0
13119,63.0,36.0,15.0,11.0,0.0
13120,75.0,2.0,120.0,8.0,0.0
13121,63.0,2.0,30.0,10.0,0.0
13122,59.0,38.0,30.0,11.0,0.0
13123,63.0,36.0,30.0,11.0,0.0
13124,66.0,2.0,15.0,10.0,0.0
13125,63.0,38.0,30.0,11.0,0.0
13126,76.0,22.0,60.0,8.0,0.0
13127,61.0,2.0,30.0,10.0,0.0
13128,58.0,16.0,30.0,11.0,0.0
13129,64.0,2.0,30.0,10.0,0.0
13130,61.0,36.0,30.0,11.0,0.0
13131,73.0,2.0,60.0,8.0,0.0
13132,64.0,2.0,30.0,10.0,0.0
13133,61.0,38.0,30.0,11.0,0.0
13134,72.0,22.0,60.0,8.0,0.0
13135,61.0,2.0,30.0,10.0,0.0
13136,58.0,16.0,30.0,11.0,0.0
13137,64.0,2.0,30.0,10.0,0.0
13138,61.0,36.0,30.0,11.0,0.0
13139,73.0,2.0,60.0,8.0,0.0
13140,64.0,2.0,30.0,10.0,0.0
13141,61.0,38.0,30.0,11.0,0.0
13142,76.0,22.0,60.0,8.0,0.0
13143,61.0,2.0,30.0,10.0,0.0
13144,58.0,16.0,30.0,11.0,0.0
13145,73.0,2.0,60.0,8.0,0.0
13146,64.0,2.0,15.0,10.0,0.0
13147,61.0,36.0,15.0,11.0,0.0
13148,80.0,0.0,60.0,8.0,0.0
13149,92.0,1.0,60.0,0.0,0.0
13150,80.0,5.0,60.0,1.0,0.0
13151,61.0,2.0,30.0,10.0,0.0
13152,58.0,16.0,30.0,11.0,0.0
13153,54.0,2.0,90.0,12.0,0.0
13154,68.0,16.0,60.0,3.0,0.0
13155,42.0,23.0,90.0,13.0,0.0
13156,64.0,2.0,30.0,10.0,0.0
13157,61.0,11.0,30.0,11.0,0.0
13158,78.0,1.0,60.0,8.0,0.0
13159,78.0,1.0,60.0,1.0,0.0
13160,66.0,1.0,60.0,3.0,0.0
13161,64.0,2.0,30.0,10.0,0.0
13162,61.0,1.0,30.0,11.0,0.0
13163,54.0,1.0,30.0,12.0,0.0
13164,42.0,35.0,30.0,13.0,0.0
13165,90.0,0.0,15.0,0.0,0.0
13166,78.0,1.0,360.0,8.0,0.0
13167,78.0,1.0,360.0,1.0,0.0
13168,63.0,2.0,30.0,10.0,0.0
13169,59.0,21.0,30.0,11.0,0.0
13170,47.0,2.0,60.0,12.0,0.0
13171,66.0,1.0,360.0,3.0,0.0
13172,35.0,15.0,60.0,13.0,0.0
13173,49.0,2.0,20.0,12.0,0.0
13174,37.0,18.0,20.0,13.0,0.0
13175,66.0,2.0,15.0,10.0,0.0
13176,63.0,1.0,15.0,11.0,0.0
13177,47.0,2.0,20.0,12.0,0.0
13178,35.0,15.0,20.0,13.0,0.0
13179,46.0,2.0,20.0,12.0,0.0
13180,34.0,35.0,20.0,13.0,0.0
13181,63.0,2.0,30.0,10.0,0.0
13182,59.0,6.0,30.0,11.0,0.0
13183,47.0,2.0,60.0,12.0,0.0
13184,35.0,30.0,60.0,13.0,0.0
13185,49.0,2.0,60.0,12.0,0.0
13186,37.0,10.0,60.0,13.0,0.0
13187,66.0,2.0,15.0,10.0,0.0
13188,63.0,26.0,15.0,11.0,0.0
13189,63.0,2.0,30.0,10.0,0.0
13190,59.0,38.0,30.0,11.0,0.0
13191,47.0,1.0,120.0,12.0,0.0
13192,35.0,35.0,120.0,13.0,0.0
13193,66.0,2.0,15.0,10.0,0.0
13194,63.0,36.0,15.0,11.0,0.0
13195,75.0,2.0,120.0,8.0,0.0
13196,63.0,2.0,30.0,10.0,0.0
13197,59.0,38.0,30.0,11.0,0.0
13198,66.0,2.0,30.0,10.0,0.0
13199,63.0,36.0,30.0,11.0,0.0
13200,66.0,2.0,30.0,10.0,0.0
13201,63.0,38.0,30.0,11.0,0.0
13202,76.0,22.0,60.0,8.0,0.0
13203,61.0,2.0,30.0,10.0,0.0
13204,58.0,16.0,30.0,11.0,0.0
13205,61.0,36.0,30.0,11.0,0.0
13206,73.0,2.0,60.0,8.0,0.0
13207,64.0,2.0,15.0,10.0,0.0
13208,61.0,38.0,30.0,11.0,0.0
13209,72.0,22.0,60.0,8.0,0.0
13210,61.0,2.0,30.0,10.0,0.0
13211,58.0,16.0,30.0,11.0,0.0
13212,61.0,36.0,30.0,11.0,0.0
13213,73.0,2.0,60.0,8.0,0.0
13214,64.0,2.0,15.0,10.0,0.0
13215,61.0,38.0,30.0,11.0,0.0
13216,76.0,22.0,60.0,8.0,0.0
13217,61.0,2.0,30.0,10.0,0.0
13218,58.0,16.0,30.0,11.0,0.0
13219,64.0,2.0,30.0,10.0,0.0
13220,73.0,2.0,60.0,8.0,0.0
13221,64.0,2.0,30.0,10.0,0.0
13222,61.0,36.0,15.0,11.0,0.0
13223,76.0,0.0,90.0,0.0,0.0
13224,76.0,0.0,90.0,2.0,0.0
13225,64.0,1.0,90.0,3.0,0.0
13226,61.0,0.0,90.0,3.0,0.0
13227,42.0,23.0,90.0,13.0,0.0
13228,82.0,0.0,15.0,8.0,0.0
13229,88.0,1.0,15.0,0.0,0.0
13230,73.0,1.0,15.0,1.0,0.0
13231,82.0,0.0,15.0,1.0,0.0
13232,73.0,0.0,15.0,2.0,0.0
13233,64.0,2.0,15.0,10.0,0.0
13234,76.0,0.0,30.0,2.0,0.0
13235,61.0,1.0,15.0,11.0,0.0
13236,54.0,1.0,15.0,12.0,0.0
13237,61.0,1.0,30.0,3.0,0.0
13238,64.0,0.0,30.0,3.0,0.0
13239,88.0,0.0,15.0,0.0,0.0
13240,82.0,1.0,120.0,8.0,0.0
13241,76.0,1.0,15.0,0.0,0.0
13242,73.0,0.0,15.0,1.0,0.0
13243,82.0,1.0,120.0,1.0,0.0
13244,76.0,2.0,120.0,2.0,0.0
13245,73.0,2.0,15.0,2.0,0.0
13246,64.0,0.0,120.0,10.0,0.0
13247,61.0,1.0,15.0,11.0,0.0
13248,54.0,1.0,120.0,12.0,0.0
13249,64.0,0.0,120.0,3.0,0.0
13250,61.0,1.0,120.0,3.0,0.0
13251,42.0,113.0,15.0,13.0,0.0
13252,88.0,0.0,90.0,0.0,0.0
13253,85.0,0.0,90.0,0.0,0.0
13254,85.0,1.0,90.0,8.0,0.0
13255,82.0,0.0,90.0,1.0,0.0
13256,76.0,0.0,90.0,2.0,0.0
13257,70.0,0.0,90.0,10.0,0.0
13258,73.0,2.0,90.0,2.0,0.0
13259,64.0,1.0,90.0,11.0,0.0
13260,54.0,1.0,90.0,12.0,0.0
13261,88.0,0.0,30.0,0.0,0.0
13262,85.0,0.0,30.0,8.0,0.0
13263,73.0,1.0,15.0,1.0,0.0
13264,73.0,0.0,30.0,2.0,0.0
13265,64.0,1.0,30.0,11.0,0.0
13266,54.0,1.0,30.0,12.0,0.0
13267,64.0,1.0,15.0,3.0,0.0
13268,61.0,0.0,15.0,3.0,0.0
13269,42.0,23.0,15.0,13.0,0.0
13270,85.0,1.0,120.0,8.0,0.0
13271,85.0,1.0,15.0,0.0,0.0
13272,88.0,0.0,120.0,0.0,0.0
13273,82.0,1.0,15.0,1.0,0.0
13274,73.0,0.0,120.0,1.0,0.0
13275,76.0,0.0,15.0,2.0,0.0
13276,70.0,2.0,15.0,10.0,0.0
13277,73.0,0.0,120.0,2.0,0.0
13278,64.0,1.0,120.0,11.0,0.0
13279,54.0,1.0,120.0,12.0,0.0
13280,61.0,0.0,15.0,3.0,0.0
13281,64.0,1.0,15.0,3.0,0.0
13282,42.0,323.0,120.0,13.0,0.0
13283,61.0,0.0,90.0,3.0,0.0
13284,88.0,6.0,15.0,0.0,0.0
13285,82.0,0.0,15.0,0.0,0.0
13286,54.0,24.0,15.0,3.0,0.0
13287,88.0,6.0,15.0,0.0,0.0
13288,82.0,0.0,15.0,0.0,0.0
13289,54.0,114.0,15.0,3.0,0.0
13290,61.0,0.0,15.0,3.0,0.0
13291,82.0,6.0,15.0,0.0,0.0
13292,54.0,0.0,15.0,3.0,0.0
13293,61.0,24.0,90.0,3.0,0.0
13294,88.0,6.0,15.0,0.0,0.0
13295,82.0,6.0,30.0,0.0,0.0
13296,61.0,114.0,30.0,3.0,0.0
13297,54.0,0.0,30.0,3.0,0.0
13298,88.0,0.0,120.0,0.0,0.0
13299,61.0,0.0,120.0,3.0,0.0
13300,82.0,6.0,15.0,0.0,0.0
13301,73.0,0.0,90.0,1.0,0.0
13302,67.0,0.0,90.0,2.0,0.0
13303,54.0,84.0,15.0,3.0,0.0
13304,61.0,24.0,90.0,3.0,0.0
13305,88.0,1.0,15.0,0.0,0.0
13306,82.0,0.0,15.0,0.0,0.0
13307,76.0,1.0,15.0,1.0,0.0
13308,64.0,4.0,15.0,2.0,0.0
13309,67.0,0.0,30.0,2.0,0.0
13310,54.0,114.0,30.0,3.0,0.0
13311,82.0,1.0,15.0,0.0,0.0
13312,76.0,1.0,15.0,1.0,0.0
13313,73.0,0.0,15.0,1.0,0.0
13314,61.0,0.0,15.0,3.0,0.0
13315,54.0,84.0,120.0,3.0,0.0
13316,82.0,0.0,15.0,0.0,0.0
13317,88.0,1.0,15.0,0.0,0.0
13318,76.0,0.0,15.0,1.0,0.0
13319,73.0,1.0,15.0,1.0,0.0
13320,67.0,0.0,15.0,2.0,0.0
13321,64.0,4.0,15.0,2.0,0.0
13322,61.0,0.0,15.0,3.0,0.0
13323,88.0,0.0,15.0,0.0,0.0
13324,82.0,1.0,15.0,0.0,0.0
13325,64.0,0.0,15.0,2.0,0.0
13326,67.0,4.0,15.0,2.0,0.0
13327,54.0,24.0,15.0,3.0,0.0
13328,61.0,0.0,15.0,3.0,0.0
13329,88.0,0.0,15.0,0.0,0.0
13330,82.0,0.0,120.0,0.0,0.0
13331,76.0,0.0,15.0,1.0,0.0
13332,73.0,1.0,15.0,1.0,0.0
13333,64.0,4.0,15.0,2.0,0.0
13334,67.0,0.0,15.0,2.0,0.0
13335,61.0,84.0,120.0,3.0,0.0
13336,54.0,114.0,15.0,3.0,0.0
13337,88.0,1.0,15.0,0.0,0.0
13338,82.0,0.0,90.0,0.0,0.0
13339,73.0,0.0,90.0,1.0,0.0
13340,64.0,4.0,15.0,2.0,0.0
13341,54.0,0.0,90.0,3.0,0.0
13342,88.0,1.0,15.0,0.0,0.0
13343,82.0,0.0,30.0,0.0,0.0
13344,73.0,1.0,30.0,1.0,0.0
13345,76.0,1.0,15.0,1.0,0.0
13346,64.0,4.0,15.0,2.0,0.0
13347,67.0,0.0,15.0,2.0,0.0
13348,54.0,24.0,30.0,3.0,0.0
13349,61.0,24.0,15.0,3.0,0.0
13350,70.0,30.0,30.0,7.0,0.0
13351,58.0,0.0,30.0,7.0,0.0
13352,88.0,0.0,60.0,0.0,0.0
13353,82.0,0.0,60.0,0.0,0.0
13354,76.0,0.0,60.0,1.0,0.0
13355,67.0,0.0,15.0,2.0,0.0
13356,64.0,4.0,15.0,2.0,0.0
13357,54.0,0.0,60.0,3.0,0.0
13358,61.0,24.0,60.0,3.0,0.0
13359,71.0,0.0,30.0,7.0,0.0
13360,59.0,1.0,30.0,7.0,0.0
13361,72.0,0.0,30.0,7.0,0.0
13362,60.0,30.0,30.0,7.0,0.0
13363,73.0,1.0,15.0,1.0,0.0
13364,76.0,0.0,60.0,1.0,0.0
13365,67.0,0.0,15.0,2.0,0.0
13366,73.0,0.0,30.0,7.0,0.0
13367,61.0,0.0,30.0,7.0,0.0
13368,88.0,0.0,15.0,0.0,0.0
13369,74.0,30.0,30.0,7.0,0.0
13370,62.0,0.0,30.0,7.0,0.0
13371,82.0,1.0,15.0,0.0,0.0
13372,76.0,1.0,60.0,1.0,0.0
13373,64.0,0.0,15.0,2.0,0.0
13374,67.0,4.0,15.0,2.0,0.0
13375,61.0,0.0,15.0,3.0,0.0
13376,54.0,24.0,15.0,3.0,0.0
13377,75.0,1.0,30.0,7.0,0.0
13378,63.0,0.0,30.0,7.0,0.0
13379,82.0,0.0,15.0,0.0,0.0
13380,88.0,0.0,15.0,0.0,0.0
13381,76.0,0.0,30.0,7.0,0.0
13382,64.0,30.0,30.0,7.0,0.0
13383,73.0,0.0,15.0,1.0,0.0
13384,67.0,0.0,15.0,2.0,0.0
13385,64.0,4.0,15.0,2.0,0.0
13386,61.0,24.0,15.0,3.0,0.0
13387,77.0,1.0,30.0,7.0,0.0
13388,65.0,0.0,30.0,7.0,0.0
13389,88.0,0.0,15.0,0.0,0.0
13390,78.0,0.0,30.0,7.0,0.0
13391,66.0,30.0,30.0,7.0,0.0
13392,76.0,0.0,15.0,1.0,0.0
13393,73.0,1.0,15.0,1.0,0.0
13394,67.0,4.0,60.0,2.0,0.0
13395,64.0,0.0,60.0,2.0,0.0
13396,54.0,24.0,15.0,3.0,0.0
13397,79.0,0.0,30.0,7.0,0.0
13398,67.0,0.0,30.0,7.0,0.0
13399,88.0,1.0,15.0,0.0,0.0
13400,80.0,30.0,30.0,7.0,0.0
13401,82.0,0.0,15.0,0.0,0.0
13402,68.0,0.0,30.0,7.0,0.0
13403,73.0,0.0,15.0,1.0,0.0
13404,76.0,1.0,15.0,1.0,0.0
13405,54.0,0.0,15.0,3.0,0.0
13406,61.0,24.0,15.0,3.0,0.0
13407,81.0,0.0,30.0,7.0,0.0
13408,69.0,0.0,30.0,7.0,0.0
13409,82.0,0.0,15.0,0.0,0.0
13410,70.0,30.0,30.0,7.0,0.0
13411,82.0,0.0,30.0,7.0,0.0
13412,88.0,0.0,60.0,0.0,0.0
13413,73.0,1.0,60.0,1.0,0.0
13414,76.0,0.0,60.0,1.0,0.0
13415,64.0,4.0,15.0,2.0,0.0
13416,67.0,0.0,15.0,2.0,0.0
13417,61.0,0.0,15.0,3.0,0.0
13418,71.0,1.0,30.0,7.0,0.0
13419,83.0,0.0,30.0,7.0,0.0
13420,82.0,0.0,60.0,0.0,0.0
13421,72.0,30.0,30.0,7.0,0.0
13422,84.0,0.0,30.0,7.0,0.0
13423,64.0,0.0,60.0,2.0,0.0
13424,67.0,4.0,60.0,2.0,0.0
13425,61.0,24.0,15.0,3.0,0.0
13426,54.0,0.0,15.0,3.0,0.0
13427,85.0,1.0,30.0,7.0,0.0
13428,73.0,0.0,30.0,7.0,0.0
13429,88.0,0.0,15.0,0.0,0.0
13430,74.0,0.0,30.0,7.0,0.0
13431,86.0,30.0,30.0,7.0,0.0
13432,73.0,1.0,15.0,1.0,0.0
13433,76.0,0.0,15.0,1.0,0.0
13434,64.0,4.0,60.0,2.0,0.0
13435,61.0,0.0,60.0,3.0,0.0
13436,87.0,0.0,30.0,7.0,0.0
13437,75.0,0.0,30.0,7.0,0.0
13438,88.0,30.0,30.0,7.0,0.0
13439,76.0,0.0,30.0,7.0,0.0
13440,82.0,1.0,15.0,0.0,0.0
13441,73.0,0.0,60.0,1.0,0.0
13442,66.0,0.0,15.0,2.0,0.0
13443,54.0,24.0,15.0,3.0,0.0
13444,61.0,24.0,60.0,3.0,0.0
13445,77.0,0.0,30.0,7.0,0.0
13446,89.0,0.0,30.0,7.0,0.0
13447,88.0,0.0,15.0,0.0,0.0
13448,90.0,30.0,30.0,7.0,0.0
13449,78.0,0.0,30.0,7.0,0.0
13450,76.0,1.0,15.0,1.0,0.0
13451,64.0,0.0,15.0,2.0,0.0
13452,66.0,4.0,15.0,2.0,0.0
13453,61.0,24.0,60.0,3.0,0.0
13454,54.0,0.0,60.0,3.0,0.0
13455,79.0,0.0,30.0,7.0,0.0
13456,91.0,0.0,30.0,7.0,0.0
13457,82.0,0.0,15.0,0.0,0.0
13458,92.0,30.0,30.0,7.0,0.0
13459,80.0,0.0,30.0,7.0,0.0
13460,88.0,1.0,15.0,0.0,0.0
13461,73.0,1.0,15.0,1.0,0.0
13462,64.0,4.0,15.0,2.0,0.0
13463,66.0,0.0,15.0,2.0,0.0
13464,54.0,0.0,60.0,3.0,0.0
13465,93.0,0.0,30.0,7.0,0.0
13466,81.0,0.0,30.0,7.0,0.0
13467,82.0,1.0,15.0,0.0,0.0
13468,94.0,30.0,30.0,7.0,0.0
13469,82.0,0.0,30.0,7.0,0.0
13470,88.0,0.0,15.0,0.0,0.0
13471,76.0,1.0,15.0,1.0,0.0
13472,73.0,1.0,60.0,1.0,0.0
13473,66.0,0.0,60.0,2.0,0.0
13474,61.0,24.0,15.0,3.0,0.0
13475,54.0,0.0,60.0,3.0,0.0
13476,95.0,0.0,30.0,7.0,0.0
13477,83.0,0.0,30.0,7.0,0.0
13478,96.0,0.0,30.0,7.0,0.0
13479,84.0,30.0,30.0,7.0,0.0
13480,82.0,1.0,15.0,0.0,0.0
13481,88.0,0.0,15.0,0.0,0.0
13482,64.0,4.0,15.0,2.0,0.0
13483,85.0,0.0,30.0,7.0,0.0
13484,97.0,0.0,30.0,7.0,0.0
13485,82.0,0.0,15.0,0.0,0.0
13486,88.0,1.0,15.0,0.0,0.0
13487,86.0,30.0,30.0,7.0,0.0
13488,98.0,0.0,30.0,7.0,0.0
13489,76.0,0.0,15.0,1.0,0.0
13490,73.0,1.0,15.0,1.0,0.0
13491,64.0,0.0,15.0,2.0,0.0
13492,66.0,4.0,15.0,2.0,0.0
13493,54.0,24.0,15.0,3.0,0.0
13494,61.0,0.0,15.0,3.0,0.0
13495,87.0,0.0,30.0,7.0,0.0
13496,99.0,0.0,30.0,7.0,0.0
13497,100.0,30.0,30.0,7.0,0.0
13498,88.0,0.0,30.0,7.0,0.0
13499,88.0,0.0,60.0,0.0,0.0
13500,82.0,0.0,60.0,0.0,0.0
13501,76.0,1.0,15.0,1.0,0.0
13502,73.0,0.0,15.0,1.0,0.0
13503,64.0,4.0,15.0,2.0,0.0
13504,66.0,0.0,15.0,2.0,0.0
13505,54.0,0.0,15.0,3.0,0.0
13506,61.0,14.0,60.0,3.0,0.0
13507,94.0,1.0,30.0,7.0,0.0
13508,82.0,0.0,30.0,7.0,0.0
13509,83.0,1.0,120.0,0.0,0.0
13510,87.0,0.0,120.0,0.0,0.0
13511,97.0,20.0,20.0,7.0,0.0
13512,85.0,0.0,20.0,7.0,0.0
13513,71.0,1.0,120.0,1.0,0.0
13514,75.0,0.0,120.0,1.0,0.0
13515,66.0,0.0,120.0,2.0,0.0
13516,63.0,4.0,120.0,2.0,0.0
13517,59.0,14.0,120.0,3.0,0.0
13518,63.0,0.0,120.0,3.0,0.0
13519,95.0,0.0,20.0,7.0,0.0
13520,83.0,20.0,20.0,7.0,0.0
13521,97.0,20.0,20.0,7.0,0.0
13522,85.0,0.0,20.0,7.0,0.0
13523,95.0,20.0,20.0,7.0,0.0
13524,83.0,0.0,20.0,7.0,0.0
13525,85.0,20.0,20.0,7.0,0.0
13526,97.0,0.0,20.0,7.0,0.0
13527,83.0,0.0,20.0,7.0,0.0
13528,95.0,0.0,20.0,7.0,0.0
13529,85.0,20.0,20.0,7.0,0.0
13530,97.0,0.0,20.0,7.0,0.0
13531,83.0,0.0,20.0,7.0,0.0
13532,95.0,20.0,20.0,7.0,0.0
13533,85.0,0.0,20.0,7.0,0.0
13534,97.0,20.0,20.0,7.0,0.0
13535,95.0,0.0,20.0,7.0,0.0
13536,83.0,20.0,20.0,7.0,0.0
13537,85.0,20.0,20.0,7.0,0.0
13538,97.0,0.0,20.0,7.0,0.0
13539,95.0,0.0,20.0,7.0,0.0
13540,83.0,20.0,20.0,7.0,0.0
13541,83.0,0.0,120.0,0.0,0.0
13542,87.0,0.0,120.0,0.0,0.0
13543,85.0,0.0,20.0,7.0,0.0
13544,97.0,20.0,20.0,7.0,0.0
13545,78.0,5.0,120.0,1.0,0.0
13546,75.0,0.0,120.0,1.0,0.0
13547,59.0,14.0,120.0,3.0,0.0
13548,71.0,0.0,120.0,3.0,0.0
13549,83.0,20.0,20.0,7.0,0.0
13550,95.0,0.0,20.0,7.0,0.0
13551,97.0,0.0,20.0,7.0,0.0
13552,85.0,20.0,20.0,7.0,0.0
13553,83.0,0.0,20.0,7.0,0.0
13554,95.0,20.0,20.0,7.0,0.0
13555,85.0,0.0,20.0,7.0,0.0
13556,97.0,20.0,20.0,7.0,0.0
13557,95.0,1.0,20.0,7.0,0.0
13558,83.0,0.0,20.0,7.0,0.0
13559,85.0,0.0,20.0,7.0,0.0
13560,97.0,20.0,20.0,7.0,0.0
13561,83.0,20.0,20.0,7.0,0.0
13562,95.0,0.0,20.0,7.0,0.0
13563,85.0,20.0,20.0,7.0,0.0
13564,97.0,0.0,20.0,7.0,0.0
13565,83.0,20.0,20.0,7.0,0.0
13566,95.0,0.0,20.0,7.0,0.0
13567,85.0,20.0,20.0,7.0,0.0
13568,97.0,0.0,20.0,7.0,0.0
13569,83.0,20.0,20.0,7.0,0.0
13570,95.0,0.0,20.0,7.0,0.0
13571,83.0,0.0,120.0,0.0,0.0
13572,97.0,20.0,20.0,7.0,0.0
13573,85.0,0.0,20.0,7.0,0.0
13574,87.0,0.0,120.0,0.0,0.0
13575,78.0,0.0,120.0,1.0,0.0
13576,75.0,5.0,120.0,1.0,0.0
13577,66.0,0.0,120.0,3.0,0.0
13578,54.0,14.0,120.0,3.0,0.0
13579,95.0,0.0,20.0,7.0,0.0
13580,83.0,20.0,20.0,7.0,0.0
13581,97.0,20.0,20.0,7.0,0.0
13582,85.0,0.0,20.0,7.0,0.0
13583,95.0,0.0,20.0,7.0,0.0
13584,83.0,20.0,20.0,7.0,0.0
13585,85.0,20.0,20.0,7.0,0.0
13586,97.0,0.0,20.0,7.0,0.0
13587,83.0,0.0,20.0,7.0,0.0
13588,95.0,1.0,20.0,7.0,0.0
13589,97.0,20.0,20.0,7.0,0.0
13590,85.0,0.0,20.0,7.0,0.0
13591,95.0,0.0,20.0,7.0,0.0
13592,83.0,20.0,20.0,7.0,0.0
13593,97.0,0.0,20.0,7.0,0.0
13594,85.0,20.0,20.0,7.0,0.0
13595,83.0,0.0,20.0,7.0,0.0
13596,95.0,20.0,20.0,7.0,0.0
13597,97.0,20.0,20.0,7.0,0.0
13598,85.0,0.0,20.0,7.0,0.0
13599,83.0,0.0,20.0,7.0,0.0
13600,95.0,20.0,20.0,7.0,0.0
13601,97.0,0.0,20.0,7.0,0.0
13602,85.0,20.0,20.0,7.0,0.0
13603,83.0,0.0,120.0,0.0,0.0
13604,87.0,0.0,120.0,0.0,0.0
13605,78.0,0.0,120.0,1.0,0.0
13606,75.0,5.0,120.0,1.0,0.0
13607,63.0,14.0,120.0,3.0,0.0
13608,51.0,0.0,120.0,3.0,0.0
13609,95.0,0.0,20.0,7.0,0.0
13610,83.0,20.0,20.0,7.0,0.0
13611,85.0,20.0,20.0,7.0,0.0
13612,97.0,0.0,20.0,7.0,0.0
13613,95.0,20.0,20.0,7.0,0.0
13614,83.0,0.0,20.0,7.0,0.0
13615,85.0,20.0,20.0,7.0,0.0
13616,97.0,0.0,20.0,7.0,0.0
13617,83.0,1.0,20.0,7.0,0.0
13618,95.0,0.0,20.0,7.0,0.0
13619,97.0,0.0,20.0,7.0,0.0
13620,85.0,20.0,20.0,7.0,0.0
13621,83.0,0.0,20.0,7.0,0.0
13622,95.0,20.0,20.0,7.0,0.0
13623,85.0,20.0,20.0,7.0,0.0
13624,97.0,0.0,20.0,7.0,0.0
13625,95.0,0.0,20.0,7.0,0.0
13626,83.0,40.0,20.0,7.0,0.0
13627,94.0,0.0,30.0,7.0,0.0
13628,82.0,60.0,30.0,7.0,0.0
13629,95.0,0.0,60.0,7.0,0.0
13630,83.0,0.0,120.0,0.0,0.0
13631,87.0,0.0,120.0,0.0,0.0
13632,75.0,1.0,1080.0,8.0,0.0
13633,83.0,60.0,60.0,7.0,0.0
13634,78.0,0.0,120.0,1.0,0.0
13635,75.0,5.0,120.0,1.0,0.0
13636,66.0,2.0,1080.0,10.0,0.0
13637,59.0,1.0,1080.0,11.0,0.0
13638,59.0,2.0,960.0,12.0,0.0
13639,59.0,0.0,120.0,3.0,0.0
13640,47.0,54.0,120.0,3.0,0.0
13641,47.0,13.0,960.0,13.0,0.0
13642,78.0,0.0,60.0,7.0,0.0
13643,90.0,1.0,60.0,7.0,0.0
13644,75.0,60.0,60.0,7.0,0.0
13645,87.0,0.0,60.0,7.0,0.0
13646,90.0,0.0,60.0,7.0,0.0
13647,78.0,60.0,60.0,7.0,0.0
13648,71.0,60.0,60.0,7.0,0.0
13649,83.0,0.0,60.0,7.0,0.0
13650,75.0,0.0,60.0,7.0,0.0
13651,87.0,60.0,60.0,7.0,0.0
13652,78.0,60.0,60.0,7.0,0.0
13653,66.0,0.0,60.0,7.0,0.0
13654,83.0,0.0,60.0,7.0,0.0
13655,71.0,60.0,60.0,7.0,0.0
13656,63.0,60.0,60.0,7.0,0.0
13657,75.0,0.0,60.0,7.0,0.0
13658,78.0,0.0,60.0,7.0,0.0
13659,66.0,60.0,60.0,7.0,0.0
13660,59.0,0.0,60.0,7.0,0.0
13661,71.0,60.0,60.0,7.0,0.0
13662,75.0,0.0,60.0,7.0,0.0
13663,63.0,40.0,60.0,7.0,0.0
13664,78.0,0.0,30.0,7.0,0.0
13665,66.0,40.0,30.0,7.0,0.0
13666,71.0,40.0,30.0,7.0,0.0
13667,83.0,0.0,30.0,7.0,0.0
13668,87.0,0.0,30.0,7.0,0.0
13669,75.0,60.0,30.0,7.0,0.0
13670,78.0,60.0,60.0,7.0,0.0
13671,90.0,0.0,60.0,7.0,0.0
13672,95.0,0.0,60.0,7.0,0.0
13673,83.0,5.0,60.0,7.0,0.0
13674,88.0,0.0,20.0,7.0,0.0
13675,100.0,20.0,20.0,7.0,0.0
13676,87.0,0.0,120.0,0.0,0.0
13677,83.0,0.0,120.0,0.0,0.0
13678,78.0,1.0,120.0,1.0,0.0
13679,75.0,0.0,120.0,1.0,0.0
13680,57.0,1.0,120.0,12.0,0.0
13681,69.0,1.0,120.0,3.0,0.0
13682,57.0,0.0,120.0,3.0,0.0
13683,45.0,13.0,120.0,13.0,0.0
13684,99.0,20.0,20.0,7.0,0.0
13685,87.0,0.0,20.0,7.0,0.0
13686,88.0,0.0,20.0,7.0,0.0
13687,100.0,20.0,20.0,7.0,0.0
13688,99.0,20.0,20.0,7.0,0.0
13689,87.0,0.0,20.0,7.0,0.0
13690,100.0,20.0,20.0,7.0,0.0
13691,88.0,0.0,20.0,7.0,0.0
13692,99.0,0.0,20.0,7.0,0.0
13693,87.0,0.0,20.0,7.0,0.0
13694,100.0,0.0,20.0,7.0,0.0
13695,88.0,20.0,20.0,7.0,0.0
13696,99.0,0.0,20.0,7.0,0.0
13697,87.0,20.0,20.0,7.0,0.0
13698,100.0,20.0,20.0,7.0,0.0
13699,88.0,0.0,20.0,7.0,0.0
13700,87.0,0.0,20.0,7.0,0.0
13701,99.0,20.0,20.0,7.0,0.0
13702,88.0,20.0,20.0,7.0,0.0
13703,100.0,0.0,20.0,7.0,0.0
13704,99.0,20.0,20.0,7.0,0.0
13705,87.0,0.0,20.0,7.0,0.0
13706,100.0,20.0,20.0,7.0,0.0
13707,83.0,0.0,120.0,0.0,0.0
13708,87.0,0.0,120.0,0.0,0.0
13709,88.0,0.0,20.0,7.0,0.0
13710,78.0,5.0,120.0,1.0,0.0
13711,75.0,0.0,120.0,1.0,0.0
13712,69.0,0.0,120.0,3.0,0.0
13713,57.0,14.0,120.0,3.0,0.0
13714,99.0,20.0,20.0,7.0,0.0
13715,87.0,0.0,20.0,7.0,0.0
13716,100.0,20.0,20.0,7.0,0.0
13717,88.0,0.0,20.0,7.0,0.0
13718,87.0,20.0,20.0,7.0,0.0
13719,99.0,0.0,20.0,7.0,0.0
13720,88.0,20.0,20.0,7.0,0.0
13721,100.0,0.0,20.0,7.0,0.0
13722,99.0,1.0,20.0,7.0,0.0
13723,87.0,0.0,20.0,7.0,0.0
13724,88.0,20.0,20.0,7.0,0.0
13725,100.0,0.0,20.0,7.0,0.0
13726,87.0,20.0,20.0,7.0,0.0
13727,99.0,0.0,20.0,7.0,0.0
13728,88.0,20.0,20.0,7.0,0.0
13729,100.0,0.0,20.0,7.0,0.0
13730,87.0,0.0,20.0,7.0,0.0
13731,99.0,20.0,20.0,7.0,0.0
13732,88.0,20.0,20.0,7.0,0.0
13733,100.0,0.0,20.0,7.0,0.0
13734,99.0,0.0,20.0,7.0,0.0
13735,87.0,20.0,20.0,7.0,0.0
13736,83.0,0.0,120.0,0.0,0.0
13737,88.0,20.0,20.0,7.0,0.0
13738,100.0,0.0,20.0,7.0,0.0
13739,87.0,0.0,120.0,0.0,0.0
13740,78.0,5.0,120.0,1.0,0.0
13741,75.0,0.0,120.0,1.0,0.0
13742,66.0,0.0,120.0,3.0,0.0
13743,54.0,14.0,120.0,3.0,0.0
13744,99.0,20.0,20.0,7.0,0.0
13745,87.0,0.0,20.0,7.0,0.0
13746,88.0,20.0,20.0,7.0,0.0
13747,100.0,0.0,20.0,7.0,0.0
13748,99.0,20.0,20.0,7.0,0.0
13749,87.0,0.0,20.0,7.0,0.0
13750,88.0,20.0,20.0,7.0,0.0
13751,100.0,0.0,20.0,7.0,0.0
13752,99.0,1.0,20.0,7.0,0.0
13753,87.0,0.0,20.0,7.0,0.0
13754,100.0,0.0,20.0,7.0,0.0
13755,88.0,20.0,20.0,7.0,0.0
13756,87.0,20.0,20.0,7.0,0.0
13757,99.0,0.0,20.0,7.0,0.0
13758,100.0,20.0,20.0,7.0,0.0
13759,88.0,0.0,20.0,7.0,0.0
13760,99.0,20.0,20.0,7.0,0.0
13761,87.0,0.0,20.0,7.0,0.0
13762,100.0,0.0,20.0,7.0,0.0
13763,88.0,20.0,20.0,7.0,0.0
13764,87.0,20.0,20.0,7.0,0.0
13765,99.0,0.0,20.0,7.0,0.0
13766,87.0,0.0,120.0,0.0,0.0
13767,83.0,0.0,120.0,0.0,0.0
13768,100.0,20.0,20.0,7.0,0.0
13769,88.0,0.0,20.0,7.0,0.0
13770,75.0,0.0,120.0,1.0,0.0
13771,78.0,5.0,120.0,1.0,0.0
13772,51.0,0.0,120.0,3.0,0.0
13773,63.0,14.0,120.0,3.0,0.0
13774,87.0,0.0,20.0,7.0,0.0
13775,99.0,20.0,20.0,7.0,0.0
13776,100.0,0.0,20.0,7.0,0.0
13777,88.0,20.0,20.0,7.0,0.0
13778,99.0,0.0,20.0,7.0,0.0
13779,87.0,20.0,20.0,7.0,0.0
13780,88.0,20.0,20.0,7.0,0.0
13781,100.0,0.0,20.0,7.0,0.0
13782,99.0,1.0,20.0,7.0,0.0
13783,87.0,0.0,20.0,7.0,0.0
13784,100.0,20.0,20.0,7.0,0.0
13785,88.0,0.0,20.0,7.0,0.0
13786,87.0,20.0,20.0,7.0,0.0
13787,99.0,0.0,20.0,7.0,0.0
13788,100.0,20.0,20.0,7.0,0.0
13789,88.0,0.0,20.0,7.0,0.0
13790,99.0,0.0,20.0,7.0,0.0
13791,87.0,40.0,20.0,7.0,0.0
13792,97.0,60.0,30.0,7.0,0.0
13793,85.0,0.0,30.0,7.0,0.0
13794,75.0,0.0,960.0,8.0,0.0
13795,87.0,0.0,60.0,7.0,0.0
13796,99.0,60.0,60.0,7.0,0.0
13797,87.0,0.0,120.0,0.0,0.0
13798,83.0,0.0,120.0,0.0,0.0
13799,78.0,5.0,120.0,1.0,0.0
13800,75.0,0.0,120.0,1.0,0.0
13801,66.0,2.0,960.0,10.0,0.0
13802,57.0,2.0,960.0,12.0,0.0
13803,57.0,0.0,120.0,3.0,0.0
13804,45.0,54.0,120.0,3.0,0.0
13805,45.0,13.0,960.0,13.0,0.0
13806,83.0,1.0,60.0,7.0,0.0
13807,95.0,0.0,60.0,7.0,0.0
13808,90.0,0.0,60.0,7.0,0.0
13809,78.0,60.0,60.0,7.0,0.0
13810,95.0,0.0,60.0,7.0,0.0
13811,83.0,60.0,60.0,7.0,0.0
13812,87.0,60.0,60.0,7.0,0.0
13813,75.0,0.0,60.0,7.0,0.0
13814,78.0,60.0,60.0,7.0,0.0
13815,90.0,0.0,60.0,7.0,0.0
13816,71.0,0.0,60.0,7.0,0.0
13817,83.0,60.0,60.0,7.0,0.0
13818,87.0,0.0,60.0,7.0,0.0
13819,75.0,60.0,60.0,7.0,0.0
13820,66.0,0.0,60.0,7.0,0.0
13821,78.0,60.0,60.0,7.0,0.0
13822,71.0,0.0,60.0,7.0,0.0
13823,83.0,60.0,60.0,7.0,0.0
13824,75.0,60.0,60.0,7.0,0.0
13825,63.0,0.0,60.0,7.0,0.0
13826,66.0,40.0,60.0,7.0,0.0
13827,78.0,0.0,60.0,7.0,0.0
13828,71.0,40.0,30.0,7.0,0.0
13829,83.0,0.0,30.0,7.0,0.0
13830,75.0,0.0,30.0,7.0,0.0
13831,87.0,40.0,30.0,7.0,0.0
13832,90.0,0.0,30.0,7.0,0.0
13833,78.0,60.0,30.0,7.0,0.0
13834,95.0,60.0,60.0,7.0,0.0
13835,83.0,0.0,60.0,7.0,0.0
13836,99.0,0.0,60.0,7.0,0.0
13837,87.0,2.0,60.0,7.0,0.0
13838,76.0,0.0,120.0,8.0,0.0
13839,90.0,0.0,20.0,7.0,0.0
13840,102.0,20.0,20.0,7.0,0.0
13841,67.0,2.0,120.0,10.0,0.0
13842,59.0,1.0,15.0,11.0,0.0
13843,55.0,2.0,120.0,12.0,0.0
13844,43.0,13.0,120.0,13.0,0.0
13845,88.0,20.0,20.0,7.0,0.0
13846,100.0,0.0,20.0,7.0,0.0
13847,102.0,0.0,20.0,7.0,0.0
13848,90.0,20.0,20.0,7.0,0.0
13849,88.0,0.0,20.0,7.0,0.0
13850,100.0,20.0,20.0,7.0,0.0
13851,90.0,20.0,20.0,7.0,0.0
13852,102.0,0.0,20.0,7.0,0.0
13853,100.0,0.0,20.0,7.0,0.0
13854,88.0,2.0,20.0,7.0,0.0
13855,90.0,0.0,20.0,7.0,0.0
13856,102.0,20.0,20.0,7.0,0.0
13857,100.0,20.0,20.0,7.0,0.0
13858,88.0,0.0,20.0,7.0,0.0
13859,102.0,20.0,20.0,7.0,0.0
13860,90.0,0.0,20.0,7.0,0.0
13861,100.0,0.0,20.0,7.0,0.0
13862,88.0,20.0,20.0,7.0,0.0
13863,102.0,20.0,20.0,7.0,0.0
13864,90.0,0.0,20.0,7.0,0.0
13865,100.0,0.0,20.0,7.0,0.0
13866,88.0,20.0,20.0,7.0,0.0
13867,90.0,20.0,20.0,7.0,0.0
13868,76.0,2.0,120.0,8.0,0.0
13869,78.0,0.0,20.0,7.0,0.0
13870,76.0,2.0,120.0,10.0,0.0
13871,64.0,1.0,120.0,11.0,0.0
13872,64.0,2.0,120.0,12.0,0.0
13873,52.0,13.0,120.0,13.0,0.0
13874,88.0,20.0,20.0,7.0,0.0
13875,76.0,0.0,20.0,7.0,0.0
13876,78.0,20.0,20.0,7.0,0.0
13877,90.0,0.0,20.0,7.0,0.0
13878,88.0,20.0,20.0,7.0,0.0
13879,76.0,0.0,20.0,7.0,0.0
13880,90.0,0.0,20.0,7.0,0.0
13881,78.0,20.0,20.0,7.0,0.0
13882,76.0,0.0,20.0,7.0,0.0
13883,88.0,0.0,20.0,7.0,0.0
13884,90.0,0.0,20.0,7.0,0.0
13885,78.0,20.0,20.0,7.0,0.0
13886,88.0,20.0,20.0,7.0,0.0
13887,76.0,0.0,20.0,7.0,0.0
13888,90.0,20.0,20.0,7.0,0.0
13889,78.0,0.0,20.0,7.0,0.0
13890,76.0,20.0,20.0,7.0,0.0
13891,88.0,0.0,20.0,7.0,0.0
13892,78.0,20.0,20.0,7.0,0.0
13893,90.0,0.0,20.0,7.0,0.0
13894,76.0,0.0,20.0,7.0,0.0
13895,88.0,20.0,20.0,7.0,0.0
13896,78.0,20.0,20.0,7.0,0.0
13897,90.0,0.0,20.0,7.0,0.0
13898,71.0,0.0,120.0,8.0,0.0
13899,71.0,2.0,120.0,10.0,0.0
13900,59.0,1.0,120.0,11.0,0.0
13901,59.0,2.0,120.0,12.0,0.0
13902,47.0,13.0,120.0,13.0,0.0
13903,88.0,20.0,20.0,7.0,0.0
13904,76.0,0.0,20.0,7.0,0.0
13905,90.0,20.0,20.0,7.0,0.0
13906,78.0,0.0,20.0,7.0,0.0
13907,76.0,0.0,20.0,7.0,0.0
13908,88.0,20.0,20.0,7.0,0.0
13909,78.0,20.0,20.0,7.0,0.0
13910,90.0,0.0,20.0,7.0,0.0
13911,76.0,2.0,20.0,7.0,0.0
13912,88.0,0.0,20.0,7.0,0.0
13913,90.0,0.0,20.0,7.0,0.0
13914,78.0,20.0,20.0,7.0,0.0
13915,76.0,0.0,20.0,7.0,0.0
13916,88.0,20.0,20.0,7.0,0.0
13917,90.0,0.0,20.0,7.0,0.0
13918,78.0,20.0,20.0,7.0,0.0
13919,76.0,0.0,20.0,7.0,0.0
13920,88.0,20.0,20.0,7.0,0.0
13921,90.0,0.0,20.0,7.0,0.0
13922,78.0,20.0,20.0,7.0,0.0
13923,76.0,0.0,20.0,7.0,0.0
13924,88.0,20.0,20.0,7.0,0.0
13925,67.0,2.0,120.0,8.0,0.0
13926,78.0,0.0,20.0,7.0,0.0
13927,90.0,20.0,20.0,7.0,0.0
13928,67.0,2.0,120.0,10.0,0.0
13929,55.0,1.0,120.0,11.0,0.0
13930,55.0,2.0,120.0,12.0,0.0
13931,43.0,13.0,120.0,13.0,0.0
13932,88.0,20.0,20.0,7.0,0.0
13933,76.0,0.0,20.0,7.0,0.0
13934,90.0,20.0,20.0,7.0,0.0
13935,78.0,0.0,20.0,7.0,0.0
13936,88.0,20.0,20.0,7.0,0.0
13937,76.0,0.0,20.0,7.0,0.0
13938,78.0,20.0,20.0,7.0,0.0
13939,90.0,0.0,20.0,7.0,0.0
13940,88.0,0.0,20.0,7.0,0.0
13941,76.0,0.0,20.0,7.0,0.0
13942,78.0,0.0,20.0,7.0,0.0
13943,90.0,20.0,20.0,7.0,0.0
13944,76.0,0.0,20.0,7.0,0.0
13945,88.0,20.0,20.0,7.0,0.0
13946,78.0,0.0,20.0,7.0,0.0
13947,90.0,20.0,20.0,7.0,0.0
13948,76.0,0.0,20.0,7.0,0.0
13949,88.0,40.0,20.0,7.0,0.0
13950,87.0,0.0,30.0,7.0,0.0
13951,75.0,30.0,30.0,7.0,0.0
13952,64.0,2.0,120.0,8.0,0.0
13953,64.0,0.0,30.0,7.0,0.0
13954,88.0,30.0,30.0,7.0,0.0
13955,64.0,2.0,120.0,10.0,0.0
13956,76.0,2.0,300.0,2.0,0.0
13957,52.0,3.0,120.0,11.0,0.0
13958,52.0,25.0,60.0,12.0,0.0
13959,40.0,13.0,120.0,13.0,0.0
13960,67.0,5.0,30.0,7.0,0.0
13961,76.0,0.0,30.0,7.0,0.0
13962,71.0,30.0,30.0,7.0,0.0
13963,79.0,0.0,30.0,7.0,0.0
13964,83.0,0.0,30.0,7.0,0.0
13965,67.0,0.0,30.0,7.0,0.0
13966,88.0,5.0,60.0,7.0,0.0
13967,71.0,5.0,30.0,7.0,0.0
13968,54.0,10.0,15.0,12.0,0.0
13969,52.0,15.0,15.0,12.0,0.0
13970,67.0,0.0,30.0,7.0,0.0
13971,51.0,10.0,15.0,12.0,0.0
13972,52.0,25.0,15.0,12.0,0.0
13973,71.0,30.0,30.0,7.0,0.0
13974,67.0,19.0,30.0,7.0,0.0
13975,64.0,4.0,30.0,7.0,0.0
13976,66.0,11.0,15.0,11.0,0.0
13977,64.0,15.0,15.0,11.0,0.0
13978,67.0,0.0,30.0,7.0,0.0
13979,76.0,2.0,30.0,7.0,0.0
13980,63.0,11.0,15.0,11.0,0.0
13981,64.0,18.0,15.0,11.0,0.0
13982,71.0,0.0,30.0,7.0,0.0
13983,79.0,12.0,30.0,7.0,0.0
13984,78.0,8.0,20.0,2.0,0.0
13985,76.0,18.0,20.0,2.0,0.0
13986,67.0,0.0,30.0,7.0,0.0
13987,83.0,2.0,30.0,7.0,0.0
13988,75.0,15.0,20.0,2.0,0.0
13989,88.0,2.0,60.0,7.0,0.0
13990,71.0,2.0,30.0,7.0,0.0
13991,78.0,13.0,15.0,10.0,0.0
13992,76.0,28.0,60.0,2.0,0.0
13993,76.0,15.0,15.0,10.0,0.0
13994,67.0,0.0,30.0,7.0,0.0
13995,75.0,13.0,15.0,10.0,0.0
13996,76.0,0.0,15.0,10.0,0.0
13997,71.0,30.0,30.0,7.0,0.0
13998,78.0,13.0,60.0,2.0,0.0
13999,67.0,2.0,30.0,7.0,0.0
14000,64.0,15.0,30.0,7.0,0.0
14001,90.0,15.0,15.0,8.0,0.0
14002,79.0,28.0,120.0,2.0,0.0
14003,88.0,0.0,15.0,8.0,0.0
14004,87.0,15.0,15.0,8.0,0.0
14005,79.0,30.0,30.0,7.0,0.0
14006,67.0,0.0,30.0,7.0,0.0
14007,88.0,0.0,15.0,8.0,0.0
14008,71.0,0.0,30.0,7.0,0.0
14009,83.0,30.0,30.0,7.0,0.0
14010,67.0,0.0,30.0,7.0,0.0
14011,88.0,2.0,30.0,7.0,0.0
14012,91.0,30.0,60.0,7.0,0.0
14013,71.0,30.0,30.0,7.0,0.0
14014,76.0,28.0,120.0,2.0,0.0
14015,67.0,0.0,30.0,7.0,0.0
14016,71.0,30.0,30.0,7.0,0.0
14017,67.0,2.0,30.0,7.0,0.0
14018,64.0,30.0,30.0,7.0,0.0
14019,72.0,28.0,120.0,2.0,0.0
14020,79.0,30.0,30.0,7.0,0.0
14021,67.0,0.0,30.0,7.0,0.0
14022,83.0,30.0,30.0,7.0,0.0
14023,71.0,0.0,30.0,7.0,0.0
14024,67.0,0.0,30.0,7.0,0.0
14025,88.0,2.0,30.0,7.0,0.0
14026,91.0,0.0,60.0,7.0,0.0
14027,71.0,30.0,30.0,7.0,0.0
14028,71.0,24.0,120.0,3.0,0.0
14029,67.0,30.0,30.0,7.0,0.0
14030,71.0,30.0,30.0,7.0,0.0
14031,67.0,6.0,30.0,7.0,0.0
14032,54.0,30.0,30.0,7.0,0.0
14033,70.0,24.0,120.0,3.0,0.0
14034,66.0,30.0,30.0,7.0,0.0
14035,81.0,0.0,30.0,7.0,0.0
14036,54.0,0.0,30.0,7.0,0.0
14037,87.0,30.0,30.0,7.0,0.0
14038,90.0,0.0,30.0,7.0,0.0
14039,66.0,6.0,30.0,7.0,0.0
14040,59.0,30.0,30.0,7.0,0.0
14041,93.0,30.0,60.0,7.0,0.0
14042,69.0,24.0,120.0,3.0,0.0
14043,66.0,0.0,30.0,7.0,0.0
14044,63.0,0.0,30.0,7.0,0.0
14045,69.0,30.0,30.0,7.0,0.0
14046,66.0,6.0,30.0,7.0,0.0
14047,63.0,0.0,30.0,7.0,0.0
14048,59.0,30.0,30.0,7.0,0.0
14049,66.0,24.0,120.0,3.0,0.0
14050,81.0,30.0,30.0,7.0,0.0
14051,66.0,0.0,30.0,7.0,0.0
14052,63.0,0.0,30.0,7.0,0.0
14053,87.0,30.0,30.0,7.0,0.0
14054,69.0,0.0,30.0,7.0,0.0
14055,90.0,0.0,30.0,7.0,0.0
14056,63.0,0.0,30.0,7.0,0.0
14057,66.0,6.0,30.0,7.0,0.0
14058,93.0,30.0,60.0,7.0,0.0
14059,69.0,30.0,30.0,7.0,0.0
14060,75.0,4.0,120.0,2.0,0.0
14061,63.0,24.0,120.0,3.0,0.0
14062,63.0,0.0,30.0,7.0,0.0
14063,66.0,0.0,30.0,7.0,0.0
14064,69.0,30.0,30.0,7.0,0.0
14065,63.0,0.0,30.0,7.0,0.0
14066,66.0,2.0,30.0,7.0,0.0
14067,59.0,30.0,30.0,7.0,0.0
14068,72.0,4.0,120.0,2.0,0.0
14069,60.0,24.0,120.0,3.0,0.0
14070,87.0,0.0,30.0,7.0,0.0
14071,66.0,30.0,30.0,7.0,0.0
14072,63.0,0.0,30.0,7.0,0.0
14073,69.0,30.0,30.0,7.0,0.0
14074,90.0,0.0,30.0,7.0,0.0
14075,66.0,2.0,30.0,7.0,0.0
14076,93.0,0.0,30.0,7.0,0.0
14077,63.0,0.0,30.0,7.0,0.0
14078,99.0,0.0,60.0,7.0,0.0
14079,69.0,30.0,30.0,7.0,0.0
14080,71.0,4.0,120.0,2.0,0.0
14081,59.0,24.0,120.0,3.0,0.0
14082,66.0,30.0,30.0,7.0,0.0
14083,63.0,0.0,30.0,7.0,0.0
14084,69.0,30.0,30.0,7.0,0.0
14085,63.0,2.0,30.0,7.0,0.0
14086,66.0,0.0,30.0,7.0,0.0
14087,59.0,30.0,30.0,7.0,0.0
14088,69.0,4.0,120.0,2.0,0.0
14089,57.0,24.0,120.0,3.0,0.0
14090,66.0,30.0,30.0,7.0,0.0
14091,63.0,0.0,30.0,7.0,0.0
14092,87.0,0.0,30.0,7.0,0.0
14093,90.0,0.0,30.0,7.0,0.0
14094,69.0,30.0,30.0,7.0,0.0
14095,93.0,0.0,30.0,7.0,0.0
14096,63.0,2.0,30.0,7.0,0.0
14097,66.0,0.0,30.0,7.0,0.0
14098,69.0,30.0,30.0,7.0,0.0
14099,99.0,0.0,60.0,7.0,0.0
14100,66.0,3.0,120.0,2.0,0.0
14101,47.0,1.0,120.0,12.0,0.0
14102,54.0,1.0,120.0,3.0,0.0
14103,35.0,33.0,120.0,13.0,0.0
14104,66.0,0.0,30.0,7.0,0.0
14105,63.0,30.0,30.0,7.0,0.0
14106,69.0,30.0,30.0,7.0,0.0
14107,66.0,0.0,30.0,7.0,0.0
14108,63.0,2.0,30.0,7.0,0.0
14109,52.0,40.0,30.0,7.0,0.0
14110,88.0,4.0,300.0,0.0,0.0
14111,40.0,0.0,30.0,7.0,0.0
14112,40.0,13.0,120.0,13.0,0.0
14113,43.0,40.0,30.0,7.0,0.0
14114,55.0,0.0,30.0,7.0,0.0
14115,59.0,0.0,30.0,7.0,0.0
14116,47.0,7.0,30.0,7.0,0.0
14117,52.0,10.0,30.0,7.0,0.0
14118,64.0,0.0,30.0,7.0,0.0
14119,54.0,15.0,15.0,12.0,0.0
14120,52.0,5.0,15.0,12.0,0.0
14121,51.0,15.0,15.0,12.0,0.0
14122,55.0,40.0,30.0,7.0,0.0
14123,67.0,0.0,30.0,7.0,0.0
14124,52.0,15.0,15.0,12.0,0.0
14125,59.0,0.0,30.0,7.0,0.0
14126,71.0,19.0,30.0,7.0,0.0
14127,52.0,0.0,30.0,7.0,0.0
14128,64.0,9.0,30.0,7.0,0.0
14129,66.0,15.0,15.0,11.0,0.0
14130,64.0,6.0,15.0,11.0,0.0
14131,63.0,11.0,15.0,11.0,0.0
14132,67.0,0.0,30.0,7.0,0.0
14133,55.0,0.0,30.0,7.0,0.0
14134,64.0,16.0,15.0,11.0,0.0
14135,90.0,20.0,20.0,0.0,0.0
14136,59.0,0.0,30.0,7.0,0.0
14137,71.0,17.0,30.0,7.0,0.0
14138,88.0,20.0,20.0,0.0,0.0
14139,87.0,0.0,20.0,0.0,0.0
14140,88.0,0.0,60.0,0.0,0.0
14141,76.0,0.0,30.0,7.0,0.0
14142,64.0,2.0,30.0,7.0,0.0
14143,78.0,13.0,15.0,10.0,0.0
14144,76.0,15.0,15.0,10.0,0.0
14145,79.0,0.0,30.0,7.0,0.0
14146,67.0,2.0,30.0,7.0,0.0
14147,75.0,13.0,15.0,10.0,0.0
14148,76.0,28.0,15.0,10.0,0.0
14149,90.0,15.0,60.0,0.0,0.0
14150,71.0,30.0,30.0,7.0,0.0
14151,83.0,0.0,30.0,7.0,0.0
14152,76.0,0.0,30.0,7.0,0.0
14153,88.0,0.0,30.0,7.0,0.0
14154,91.0,0.0,120.0,0.0,0.0
14155,55.0,15.0,30.0,7.0,0.0
14156,91.0,0.0,30.0,7.0,0.0
14157,90.0,15.0,15.0,8.0,0.0
14158,88.0,0.0,15.0,8.0,0.0
14159,87.0,15.0,15.0,8.0,0.0
14160,67.0,0.0,30.0,7.0,0.0
14161,79.0,0.0,30.0,7.0,0.0
14162,88.0,30.0,15.0,8.0,0.0
14163,55.0,30.0,30.0,7.0,0.0
14164,91.0,0.0,30.0,7.0,0.0
14165,79.0,0.0,30.0,7.0,0.0
14166,67.0,30.0,30.0,7.0,0.0
14167,88.0,30.0,120.0,0.0,0.0
14168,52.0,30.0,30.0,7.0,0.0
14169,88.0,0.0,30.0,7.0,0.0
14170,76.0,0.0,30.0,7.0,0.0
14171,64.0,30.0,30.0,7.0,0.0
14172,52.0,0.0,30.0,7.0,0.0
14173,88.0,30.0,30.0,7.0,0.0
14174,64.0,0.0,30.0,7.0,0.0
14175,76.0,0.0,30.0,7.0,0.0
14176,97.0,0.0,30.0,7.0,0.0
14177,85.0,30.0,120.0,0.0,0.0
14178,61.0,30.0,30.0,7.0,0.0
14179,73.0,0.0,30.0,7.0,0.0
14180,85.0,30.0,30.0,7.0,0.0
14181,97.0,0.0,30.0,7.0,0.0
14182,61.0,30.0,30.0,7.0,0.0
14183,85.0,0.0,30.0,7.0,0.0
14184,73.0,0.0,30.0,7.0,0.0
14185,59.0,30.0,30.0,7.0,0.0
14186,95.0,0.0,30.0,7.0,0.0
14187,83.0,4.0,120.0,2.0,0.0
14188,71.0,24.0,120.0,3.0,0.0
14189,83.0,0.0,30.0,7.0,0.0
14190,71.0,30.0,30.0,7.0,0.0
14191,59.0,0.0,30.0,7.0,0.0
14192,95.0,30.0,30.0,7.0,0.0
14193,71.0,2.0,30.0,7.0,0.0
14194,83.0,0.0,30.0,7.0,0.0
14195,58.0,0.0,30.0,7.0,0.0
14196,94.0,30.0,30.0,7.0,0.0
14197,82.0,4.0,120.0,2.0,0.0
14198,70.0,24.0,120.0,3.0,0.0
14199,82.0,0.0,30.0,7.0,0.0
14200,70.0,30.0,30.0,7.0,0.0
14201,58.0,30.0,30.0,7.0,0.0
14202,94.0,0.0,30.0,7.0,0.0
14203,70.0,0.0,30.0,7.0,0.0
14204,82.0,2.0,30.0,7.0,0.0
14205,91.0,30.0,30.0,7.0,0.0
14206,55.0,0.0,30.0,7.0,0.0
14207,79.0,4.0,120.0,2.0,0.0
14208,67.0,24.0,120.0,3.0,0.0
14209,79.0,0.0,30.0,7.0,0.0
14210,67.0,30.0,30.0,7.0,0.0
14211,55.0,30.0,30.0,7.0,0.0
14212,91.0,0.0,30.0,7.0,0.0
14213,67.0,2.0,30.0,7.0,0.0
14214,79.0,0.0,30.0,7.0,0.0
14215,54.0,0.0,30.0,7.0,0.0
14216,90.0,30.0,30.0,7.0,0.0
14217,78.0,4.0,120.0,2.0,0.0
14218,66.0,24.0,120.0,3.0,0.0
14219,78.0,30.0,30.0,7.0,0.0
14220,66.0,0.0,30.0,7.0,0.0
14221,90.0,30.0,30.0,7.0,0.0
14222,54.0,0.0,30.0,7.0,0.0
14223,66.0,2.0,30.0,7.0,0.0
14224,78.0,0.0,30.0,7.0,0.0
14225,53.0,30.0,30.0,7.0,0.0
14226,89.0,0.0,30.0,7.0,0.0
14227,89.0,2.0,120.0,0.0,0.0
14228,77.0,4.0,120.0,2.0,0.0
14229,65.0,24.0,120.0,3.0,0.0
14230,65.0,30.0,30.0,7.0,0.0
14231,77.0,0.0,30.0,7.0,0.0
14232,89.0,0.0,30.0,7.0,0.0
14233,53.0,30.0,30.0,7.0,0.0
14234,65.0,0.0,30.0,7.0,0.0
14235,77.0,0.0,30.0,7.0,0.0
14236,52.0,30.0,30.0,7.0,0.0
14237,88.0,0.0,30.0,7.0,0.0
14238,88.0,2.0,120.0,0.0,0.0
14239,76.0,4.0,120.0,2.0,0.0
14240,64.0,24.0,120.0,3.0,0.0
14241,64.0,30.0,30.0,7.0,0.0
14242,76.0,0.0,30.0,7.0,0.0
14243,88.0,0.0,30.0,7.0,0.0
14244,52.0,30.0,30.0,7.0,0.0
14245,76.0,0.0,30.0,7.0,0.0
14246,64.0,0.0,30.0,7.0,0.0
14247,85.0,2.0,120.0,0.0,0.0
14248,49.0,0.0,30.0,7.0,0.0
14249,85.0,30.0,30.0,7.0,0.0
14250,73.0,4.0,120.0,2.0,0.0
14251,61.0,24.0,120.0,3.0,0.0
14252,73.0,30.0,30.0,7.0,0.0
14253,61.0,0.0,30.0,7.0,0.0
14254,85.0,0.0,30.0,7.0,0.0
14255,49.0,30.0,30.0,7.0,0.0
14256,73.0,0.0,30.0,7.0,0.0
14257,61.0,0.0,30.0,7.0,0.0
14258,46.0,30.0,30.0,7.0,0.0
14259,82.0,0.0,30.0,7.0,0.0
14260,82.0,0.0,120.0,0.0,0.0
14261,70.0,4.0,120.0,2.0,0.0
14262,58.0,24.0,120.0,3.0,0.0
14263,70.0,0.0,30.0,7.0,0.0
14264,58.0,30.0,30.0,7.0,0.0
14265,46.0,30.0,30.0,7.0,0.0
14266,82.0,0.0,30.0,7.0,0.0
14267,58.0,2.0,30.0,7.0,0.0
14268,70.0,0.0,30.0,7.0,0.0
14269,78.0,0.0,120.0,0.0,0.0
14270,78.0,0.0,30.0,7.0,0.0
14271,42.0,30.0,30.0,7.0,0.0
14272,66.0,3.0,120.0,2.0,0.0
14273,54.0,1.0,120.0,12.0,0.0
14274,54.0,1.0,120.0,3.0,0.0
14275,42.0,23.0,120.0,13.0,0.0
14276,66.0,30.0,30.0,7.0,0.0
14277,54.0,0.0,30.0,7.0,0.0
14278,42.0,30.0,30.0,7.0,0.0
14279,78.0,0.0,30.0,7.0,0.0
14280,66.0,2.0,30.0,7.0,0.0
14281,54.0,0.0,30.0,7.0,0.0
14282,86.0,0.0,120.0,0.0,0.0
14283,59.0,30.0,30.0,7.0,0.0
14284,83.0,3.0,300.0,1.0,0.0
14285,71.0,4.0,120.0,2.0,0.0
14286,59.0,1.0,120.0,3.0,0.0
14287,35.0,13.0,120.0,13.0,0.0
14288,71.0,30.0,30.0,7.0,0.0
14289,62.0,0.0,30.0,7.0,0.0
14290,74.0,0.0,30.0,7.0,0.0
14291,66.0,30.0,30.0,7.0,0.0
14292,78.0,2.0,30.0,7.0,0.0
14293,62.0,0.0,30.0,7.0,0.0
14294,83.0,5.0,60.0,7.0,0.0
14295,66.0,5.0,30.0,7.0,0.0
14296,49.0,10.0,15.0,12.0,0.0
14297,47.0,15.0,15.0,12.0,0.0
14298,62.0,0.0,30.0,7.0,0.0
14299,46.0,10.0,15.0,12.0,0.0
14300,47.0,25.0,15.0,12.0,0.0
14301,66.0,30.0,30.0,7.0,0.0
14302,62.0,19.0,30.0,7.0,0.0
14303,59.0,4.0,30.0,7.0,0.0
14304,61.0,11.0,15.0,11.0,0.0
14305,59.0,15.0,15.0,11.0,0.0
14306,71.0,1.0,30.0,7.0,0.0
14307,62.0,0.0,30.0,7.0,0.0
14308,58.0,11.0,15.0,11.0,0.0
14309,59.0,17.0,15.0,11.0,0.0
14310,66.0,11.0,30.0,7.0,0.0
14311,74.0,0.0,30.0,7.0,0.0
14312,85.0,9.0,20.0,1.0,0.0
14313,83.0,19.0,20.0,1.0,0.0
14314,62.0,0.0,30.0,7.0,0.0
14315,78.0,1.0,30.0,7.0,0.0
14316,82.0,16.0,20.0,1.0,0.0
14317,66.0,2.0,30.0,7.0,0.0
14318,83.0,1.0,60.0,7.0,0.0
14319,83.0,1.0,60.0,1.0,0.0
14320,73.0,13.0,15.0,10.0,0.0
14321,71.0,15.0,15.0,10.0,0.0
14322,62.0,0.0,30.0,7.0,0.0
14323,70.0,13.0,15.0,10.0,0.0
14324,71.0,28.0,15.0,10.0,0.0
14325,66.0,30.0,30.0,7.0,0.0
14326,85.0,14.0,60.0,1.0,0.0
14327,62.0,1.0,30.0,7.0,0.0
14328,59.0,15.0,30.0,7.0,0.0
14329,85.0,15.0,15.0,8.0,0.0
14330,86.0,29.0,120.0,1.0,0.0
14331,83.0,0.0,15.0,8.0,0.0
14332,62.0,0.0,30.0,7.0,0.0
14333,74.0,0.0,30.0,7.0,0.0
14334,82.0,15.0,15.0,8.0,0.0
14335,83.0,30.0,15.0,8.0,0.0
14336,78.0,30.0,30.0,7.0,0.0
14337,66.0,0.0,30.0,7.0,0.0
14338,83.0,0.0,30.0,7.0,0.0
14339,62.0,1.0,30.0,7.0,0.0
14340,66.0,30.0,30.0,7.0,0.0
14341,86.0,30.0,60.0,7.0,0.0
14342,83.0,29.0,120.0,1.0,0.0
14343,62.0,0.0,30.0,7.0,0.0
14344,66.0,30.0,30.0,7.0,0.0
14345,62.0,1.0,30.0,7.0,0.0
14346,59.0,30.0,30.0,7.0,0.0
14347,79.0,29.0,120.0,1.0,0.0
14348,74.0,30.0,30.0,7.0,0.0
14349,62.0,0.0,30.0,7.0,0.0
14350,66.0,0.0,30.0,7.0,0.0
14351,78.0,30.0,30.0,7.0,0.0
14352,83.0,1.0,30.0,7.0,0.0
14353,62.0,0.0,30.0,7.0,0.0
14354,86.0,0.0,60.0,7.0,0.0
14355,66.0,30.0,30.0,7.0,0.0
14356,78.0,28.0,120.0,2.0,0.0
14357,62.0,30.0,30.0,7.0,0.0
14358,66.0,30.0,30.0,7.0,0.0
14359,62.0,2.0,30.0,7.0,0.0
14360,49.0,30.0,30.0,7.0,0.0
14361,77.0,28.0,120.0,2.0,0.0
14362,61.0,0.0,30.0,7.0,0.0
14363,76.0,30.0,30.0,7.0,0.0
14364,82.0,30.0,30.0,7.0,0.0
14365,49.0,0.0,30.0,7.0,0.0
14366,85.0,0.0,30.0,7.0,0.0
14367,61.0,2.0,30.0,7.0,0.0
14368,88.0,0.0,60.0,7.0,0.0
14369,54.0,30.0,30.0,7.0,0.0
14370,76.0,28.0,120.0,2.0,0.0
14371,61.0,30.0,30.0,7.0,0.0
14372,58.0,0.0,30.0,7.0,0.0
14373,64.0,30.0,30.0,7.0,0.0
14374,61.0,0.0,30.0,7.0,0.0
14375,58.0,2.0,30.0,7.0,0.0
14376,54.0,30.0,30.0,7.0,0.0
14377,73.0,28.0,120.0,2.0,0.0
14378,58.0,0.0,30.0,7.0,0.0
14379,76.0,30.0,30.0,7.0,0.0
14380,61.0,0.0,30.0,7.0,0.0
14381,82.0,30.0,30.0,7.0,0.0
14382,64.0,0.0,30.0,7.0,0.0
14383,61.0,0.0,30.0,7.0,0.0
14384,58.0,0.0,30.0,7.0,0.0
14385,85.0,2.0,30.0,7.0,0.0
14386,88.0,30.0,60.0,7.0,0.0
14387,64.0,30.0,30.0,7.0,0.0
14388,70.0,24.0,120.0,3.0,0.0
14389,61.0,0.0,30.0,7.0,0.0
14390,58.0,0.0,30.0,7.0,0.0
14391,64.0,30.0,30.0,7.0,0.0
14392,58.0,0.0,30.0,7.0,0.0
14393,61.0,6.0,30.0,7.0,0.0
14394,54.0,30.0,30.0,7.0,0.0
14395,67.0,24.0,120.0,3.0,0.0
14396,61.0,0.0,30.0,7.0,0.0
14397,58.0,0.0,30.0,7.0,0.0
14398,82.0,30.0,30.0,7.0,0.0
14399,64.0,30.0,30.0,7.0,0.0
14400,85.0,0.0,30.0,7.0,0.0
14401,88.0,6.0,30.0,7.0,0.0
14402,61.0,0.0,30.0,7.0,0.0
14403,58.0,0.0,30.0,7.0,0.0
14404,94.0,30.0,60.0,7.0,0.0
14405,64.0,30.0,30.0,7.0,0.0
14406,66.0,24.0,120.0,3.0,0.0
14407,58.0,0.0,30.0,7.0,0.0
14408,61.0,0.0,30.0,7.0,0.0
14409,64.0,30.0,30.0,7.0,0.0
14410,61.0,6.0,30.0,7.0,0.0
14411,58.0,0.0,30.0,7.0,0.0
14412,54.0,30.0,30.0,7.0,0.0
14413,64.0,24.0,120.0,3.0,0.0
14414,61.0,30.0,30.0,7.0,0.0
14415,82.0,0.0,30.0,7.0,0.0
14416,58.0,0.0,30.0,7.0,0.0
14417,85.0,30.0,30.0,7.0,0.0
14418,64.0,0.0,30.0,7.0,0.0
14419,61.0,0.0,30.0,7.0,0.0
14420,88.0,6.0,30.0,7.0,0.0
14421,58.0,0.0,30.0,7.0,0.0
14422,64.0,30.0,30.0,7.0,0.0
14423,94.0,0.0,60.0,7.0,0.0
14424,54.0,1.0,120.0,12.0,0.0
14425,61.0,1.0,120.0,3.0,0.0
14426,42.0,33.0,120.0,13.0,0.0
14427,61.0,0.0,30.0,7.0,0.0
14428,58.0,30.0,30.0,7.0,0.0
14429,64.0,30.0,30.0,7.0,0.0
14430,61.0,0.0,30.0,7.0,0.0
14431,58.0,5.0,30.0,7.0,0.0
14432,47.0,0.0,30.0,7.0,0.0
14433,35.0,40.0,30.0,7.0,0.0
14434,59.0,14.0,300.0,3.0,0.0
14435,35.0,13.0,120.0,13.0,0.0
14436,50.0,0.0,30.0,7.0,0.0
14437,38.0,40.0,30.0,7.0,0.0
14438,54.0,0.0,30.0,7.0,0.0
14439,42.0,7.0,30.0,7.0,0.0
14440,47.0,0.0,30.0,7.0,0.0
14441,59.0,10.0,30.0,7.0,0.0
14442,49.0,15.0,15.0,12.0,0.0
14443,47.0,5.0,15.0,12.0,0.0
14444,46.0,15.0,15.0,12.0,0.0
14445,62.0,0.0,30.0,7.0,0.0
14446,50.0,40.0,30.0,7.0,0.0
14447,47.0,15.0,15.0,12.0,0.0
14448,66.0,19.0,30.0,7.0,0.0
14449,54.0,0.0,30.0,7.0,0.0
14450,59.0,0.0,30.0,7.0,0.0
14451,47.0,9.0,30.0,7.0,0.0
14452,61.0,15.0,15.0,11.0,0.0
14453,59.0,6.0,15.0,11.0,0.0
14454,58.0,15.0,15.0,11.0,0.0
14455,50.0,0.0,30.0,7.0,0.0
14456,62.0,6.0,30.0,7.0,0.0
14457,59.0,2.0,15.0,11.0,0.0
14458,61.0,20.0,20.0,3.0,0.0
14459,54.0,0.0,30.0,7.0,0.0
14460,66.0,6.0,30.0,7.0,0.0
14461,59.0,14.0,20.0,3.0,0.0
14462,58.0,11.0,20.0,3.0,0.0
14463,71.0,0.0,30.0,7.0,0.0
14464,59.0,2.0,30.0,7.0,0.0
14465,73.0,13.0,15.0,10.0,0.0
14466,59.0,24.0,60.0,3.0,0.0
14467,71.0,15.0,15.0,10.0,0.0
14468,62.0,0.0,30.0,7.0,0.0
14469,74.0,2.0,30.0,7.0,0.0
14470,70.0,13.0,15.0,10.0,0.0
14471,71.0,4.0,15.0,10.0,0.0
14472,66.0,30.0,30.0,7.0,0.0
14473,78.0,0.0,30.0,7.0,0.0
14474,61.0,9.0,60.0,3.0,0.0
14475,71.0,6.0,30.0,7.0,0.0
14476,83.0,0.0,30.0,7.0,0.0
14477,85.0,15.0,15.0,8.0,0.0
14478,50.0,0.0,30.0,7.0,0.0
14479,86.0,0.0,30.0,7.0,0.0
14480,62.0,24.0,120.0,3.0,0.0
14481,83.0,15.0,15.0,8.0,0.0
14482,62.0,0.0,30.0,7.0,0.0
14483,74.0,30.0,30.0,7.0,0.0
14484,82.0,15.0,15.0,8.0,0.0
14485,83.0,0.0,15.0,8.0,0.0
14486,86.0,30.0,30.0,7.0,0.0
14487,50.0,0.0,30.0,7.0,0.0
14488,62.0,6.0,30.0,7.0,0.0
14489,74.0,0.0,30.0,7.0,0.0
14490,83.0,0.0,30.0,7.0,0.0
14491,47.0,30.0,30.0,7.0,0.0
14492,59.0,24.0,120.0,3.0,0.0
14493,71.0,0.0,30.0,7.0,0.0
14494,59.0,30.0,30.0,7.0,0.0
14495,47.0,30.0,30.0,7.0,0.0
14496,83.0,0.0,30.0,7.0,0.0
14497,59.0,6.0,30.0,7.0,0.0
14498,71.0,0.0,30.0,7.0,0.0
14499,56.0,30.0,30.0,7.0,0.0
14500,92.0,0.0,30.0,7.0,0.0
14501,56.0,24.0,120.0,3.0,0.0
14502,68.0,30.0,30.0,7.0,0.0
14503,80.0,0.0,30.0,7.0,0.0
14504,56.0,30.0,30.0,7.0,0.0
14505,92.0,0.0,30.0,7.0,0.0
14506,68.0,6.0,30.0,7.0,0.0
14507,80.0,0.0,30.0,7.0,0.0
14508,53.0,0.0,30.0,7.0,0.0
14509,89.0,30.0,30.0,7.0,0.0
14510,89.0,2.0,120.0,0.0,0.0
14511,77.0,28.0,120.0,2.0,0.0
14512,65.0,30.0,30.0,7.0,0.0
14513,77.0,0.0,30.0,7.0,0.0
14514,89.0,30.0,30.0,7.0,0.0
14515,53.0,0.0,30.0,7.0,0.0
14516,65.0,0.0,30.0,7.0,0.0
14517,77.0,0.0,30.0,7.0,0.0
14518,52.0,0.0,30.0,7.0,0.0
14519,88.0,30.0,30.0,7.0,0.0
14520,88.0,0.0,120.0,0.0,0.0
14521,76.0,28.0,120.0,2.0,0.0
14522,64.0,0.0,30.0,7.0,0.0
14523,76.0,30.0,30.0,7.0,0.0
14524,88.0,30.0,30.0,7.0,0.0
14525,52.0,0.0,30.0,7.0,0.0
14526,76.0,2.0,30.0,7.0,0.0
14527,64.0,0.0,30.0,7.0,0.0
14528,51.0,30.0,30.0,7.0,0.0
14529,87.0,0.0,30.0,7.0,0.0
14530,87.0,0.0,120.0,0.0,0.0
14531,75.0,28.0,120.0,2.0,0.0
14532,63.0,0.0,30.0,7.0,0.0
14533,75.0,30.0,30.0,7.0,0.0
14534,87.0,30.0,30.0,7.0,0.0
14535,51.0,0.0,30.0,7.0,0.0
14536,75.0,2.0,30.0,7.0,0.0
14537,63.0,0.0,30.0,7.0,0.0
14538,86.0,30.0,30.0,7.0,0.0
14539,50.0,0.0,30.0,7.0,0.0
14540,86.0,2.0,120.0,0.0,0.0
14541,74.0,28.0,120.0,2.0,0.0
14542,62.0,0.0,30.0,7.0,0.0
14543,74.0,30.0,30.0,7.0,0.0
14544,50.0,30.0,30.0,7.0,0.0
14545,86.0,0.0,30.0,7.0,0.0
14546,62.0,0.0,30.0,7.0,0.0
14547,74.0,0.0,30.0,7.0,0.0
14548,47.0,0.0,30.0,7.0,0.0
14549,83.0,30.0,30.0,7.0,0.0
14550,83.0,5.0,120.0,1.0,0.0
14551,71.0,24.0,120.0,3.0,0.0
14552,71.0,30.0,30.0,7.0,0.0
14553,59.0,0.0,30.0,7.0,0.0
14554,47.0,30.0,30.0,7.0,0.0
14555,83.0,0.0,30.0,7.0,0.0
14556,59.0,0.0,30.0,7.0,0.0
14557,71.0,1.0,30.0,7.0,0.0
14558,80.0,30.0,30.0,7.0,0.0
14559,44.0,0.0,30.0,7.0,0.0
14560,80.0,5.0,120.0,1.0,0.0
14561,68.0,24.0,120.0,3.0,0.0
14562,56.0,30.0,30.0,7.0,0.0
14563,68.0,0.0,30.0,7.0,0.0
14564,44.0,30.0,30.0,7.0,0.0
14565,80.0,0.0,30.0,7.0,0.0
14566,68.0,0.0,30.0,7.0,0.0
14567,56.0,1.0,30.0,7.0,0.0
14568,76.0,30.0,30.0,7.0,0.0
14569,40.0,0.0,30.0,7.0,0.0
14570,76.0,5.0,120.0,1.0,0.0
14571,64.0,24.0,120.0,3.0,0.0
14572,64.0,0.0,30.0,7.0,0.0
14573,52.0,30.0,30.0,7.0,0.0
14574,40.0,0.0,30.0,7.0,0.0
14575,76.0,30.0,30.0,7.0,0.0
14576,52.0,1.0,30.0,7.0,0.0
14577,64.0,0.0,30.0,7.0,0.0
14578,38.0,0.0,30.0,7.0,0.0
14579,74.0,30.0,30.0,7.0,0.0
14580,74.0,5.0,120.0,1.0,0.0
14581,62.0,24.0,120.0,3.0,0.0
14582,62.0,30.0,30.0,7.0,0.0
14583,50.0,0.0,30.0,7.0,0.0
14584,74.0,30.0,30.0,7.0,0.0
14585,38.0,0.0,30.0,7.0,0.0
14586,62.0,0.0,30.0,7.0,0.0
14587,50.0,1.0,30.0,7.0,0.0
14588,62.0,0.0,120.0,8.0,0.0
14589,35.0,0.0,30.0,7.0,0.0
14590,71.0,30.0,30.0,7.0,0.0
14591,71.0,1.0,120.0,1.0,0.0
14592,64.0,2.0,120.0,10.0,0.0
14593,52.0,1.0,120.0,11.0,0.0
14594,52.0,1.0,120.0,12.0,0.0
14595,67.0,1.0,120.0,3.0,0.0
14596,40.0,23.0,120.0,13.0,0.0
14597,47.0,0.0,30.0,7.0,0.0
14598,59.0,30.0,30.0,7.0,0.0
14599,35.0,0.0,30.0,7.0,0.0
14600,71.0,30.0,30.0,7.0,0.0
14601,47.0,1.0,30.0,7.0,0.0
14602,59.0,0.0,30.0,7.0,0.0
14603,60.0,0.0,810.0,8.0,0.0
14604,57.0,30.0,30.0,7.0,0.0
14605,45.0,0.0,30.0,7.0,0.0
14606,64.0,2.0,810.0,10.0,0.0
14607,57.0,1.0,810.0,11.0,0.0
14608,45.0,2.0,810.0,12.0,0.0
14609,69.0,24.0,120.0,3.0,0.0
14610,33.0,23.0,810.0,13.0,0.0
14611,52.0,0.0,30.0,7.0,0.0
14612,64.0,30.0,30.0,7.0,0.0
14613,60.0,30.0,30.0,7.0,0.0
14614,48.0,0.0,30.0,7.0,0.0
14615,52.0,0.0,30.0,7.0,0.0
14616,64.0,6.0,30.0,7.0,0.0
14617,57.0,0.0,30.0,7.0,0.0
14618,69.0,30.0,30.0,7.0,0.0
14619,64.0,24.0,120.0,3.0,0.0
14620,64.0,30.0,30.0,7.0,0.0
14621,52.0,0.0,30.0,7.0,0.0
14622,60.0,30.0,30.0,7.0,0.0
14623,48.0,0.0,30.0,7.0,0.0
14624,64.0,6.0,30.0,7.0,0.0
14625,52.0,0.0,30.0,7.0,0.0
14626,48.0,0.0,30.0,7.0,0.0
14627,60.0,30.0,30.0,7.0,0.0
14628,60.0,24.0,120.0,3.0,0.0
14629,69.0,30.0,30.0,7.0,0.0
14630,57.0,0.0,30.0,7.0,0.0
14631,64.0,30.0,30.0,7.0,0.0
14632,52.0,0.0,30.0,7.0,0.0
14633,69.0,6.0,30.0,7.0,0.0
14634,57.0,0.0,30.0,7.0,0.0
14635,60.0,0.0,30.0,7.0,0.0
14636,72.0,30.0,30.0,7.0,0.0
14637,57.0,24.0,120.0,3.0,0.0
14638,69.0,30.0,30.0,7.0,0.0
14639,57.0,0.0,30.0,7.0,0.0
14640,64.0,0.0,30.0,7.0,0.0
14641,52.0,30.0,30.0,7.0,0.0
14642,57.0,6.0,30.0,7.0,0.0
14643,69.0,0.0,30.0,7.0,0.0
14644,52.0,30.0,30.0,7.0,0.0
14645,64.0,0.0,30.0,7.0,0.0
14646,84.0,1.0,120.0,1.0,0.0
14647,81.0,28.0,120.0,2.0,0.0
14648,60.0,30.0,30.0,7.0,0.0
14649,72.0,0.0,30.0,7.0,0.0
14650,69.0,30.0,30.0,7.0,0.0
14651,57.0,0.0,30.0,7.0,0.0
14652,72.0,0.0,30.0,7.0,0.0
14653,60.0,1.0,30.0,7.0,0.0
14654,64.0,30.0,30.0,7.0,0.0
14655,76.0,0.0,30.0,7.0,0.0
14656,81.0,1.0,120.0,1.0,0.0
14657,76.0,28.0,120.0,2.0,0.0
14658,60.0,30.0,30.0,7.0,0.0
14659,72.0,0.0,30.0,7.0,0.0
14660,69.0,30.0,30.0,7.0,0.0
14661,57.0,0.0,30.0,7.0,0.0
14662,72.0,1.0,30.0,7.0,0.0
14663,60.0,0.0,30.0,7.0,0.0
14664,57.0,30.0,30.0,7.0,0.0
14665,69.0,0.0,30.0,7.0,0.0
14666,76.0,1.0,120.0,1.0,0.0
14667,72.0,13.0,120.0,2.0,0.0
14668,64.0,30.0,30.0,7.0,0.0
14669,76.0,0.0,30.0,7.0,0.0
14670,60.0,2.0,30.0,7.0,0.0
14671,72.0,0.0,30.0,7.0,0.0
14672,64.0,0.0,30.0,7.0,0.0
14673,76.0,1.0,30.0,7.0,0.0
14674,69.0,0.0,30.0,7.0,0.0
14675,81.0,0.0,30.0,7.0,0.0
14676,62.0,15.0,15.0,8.0,0.0
14677,72.0,1.0,120.0,1.0,0.0
14678,69.0,2.0,120.0,2.0,0.0
14679,57.0,1.0,90.0,11.0,0.0
14680,33.0,23.0,90.0,13.0,0.0
14681,60.0,15.0,15.0,8.0,0.0
14682,59.0,15.0,15.0,8.0,0.0
14683,64.0,0.0,30.0,7.0,0.0
14684,76.0,30.0,30.0,7.0,0.0
14685,72.0,0.0,30.0,7.0,0.0
14686,60.0,0.0,30.0,7.0,0.0
14687,60.0,2.0,15.0,8.0,0.0
14688,64.0,0.0,30.0,7.0,0.0
14689,76.0,1.0,30.0,7.0,0.0
14690,64.0,2.0,15.0,10.0,0.0
14691,45.0,2.0,15.0,12.0,0.0
14692,60.0,0.0,810.0,8.0,0.0
14693,57.0,0.0,30.0,7.0,0.0
14694,45.0,30.0,30.0,7.0,0.0
14695,64.0,2.0,810.0,10.0,0.0
14696,57.0,1.0,15.0,11.0,0.0
14697,45.0,2.0,15.0,12.0,0.0
14698,69.0,24.0,120.0,3.0,0.0
14699,33.0,23.0,15.0,13.0,0.0
14700,52.0,0.0,30.0,7.0,0.0
14701,64.0,30.0,30.0,7.0,0.0
14702,48.0,0.0,30.0,7.0,0.0
14703,60.0,30.0,30.0,7.0,0.0
14704,52.0,0.0,30.0,7.0,0.0
14705,64.0,6.0,30.0,7.0,0.0
14706,57.0,30.0,30.0,7.0,0.0
14707,69.0,0.0,30.0,7.0,0.0
14708,64.0,24.0,120.0,3.0,0.0
14709,52.0,30.0,30.0,7.0,0.0
14710,64.0,0.0,30.0,7.0,0.0
14711,60.0,0.0,30.0,7.0,0.0
14712,48.0,30.0,30.0,7.0,0.0
14713,64.0,6.0,30.0,7.0,0.0
14714,52.0,0.0,30.0,7.0,0.0
14715,60.0,30.0,30.0,7.0,0.0
14716,48.0,0.0,30.0,7.0,0.0
14717,60.0,24.0,120.0,3.0,0.0
14718,57.0,0.0,30.0,7.0,0.0
14719,69.0,30.0,30.0,7.0,0.0
14720,64.0,30.0,30.0,7.0,0.0
14721,52.0,0.0,30.0,7.0,0.0
14722,57.0,0.0,30.0,7.0,0.0
14723,69.0,6.0,30.0,7.0,0.0
14724,72.0,0.0,30.0,7.0,0.0
14725,60.0,30.0,30.0,7.0,0.0
14726,57.0,24.0,120.0,3.0,0.0
14727,57.0,0.0,30.0,7.0,0.0
14728,69.0,30.0,30.0,7.0,0.0
14729,64.0,0.0,30.0,7.0,0.0
14730,52.0,30.0,30.0,7.0,0.0
14731,69.0,6.0,30.0,7.0,0.0
14732,57.0,0.0,30.0,7.0,0.0
14733,52.0,0.0,30.0,7.0,0.0
14734,64.0,30.0,30.0,7.0,0.0
14735,84.0,1.0,120.0,1.0,0.0
14736,81.0,28.0,120.0,2.0,0.0
14737,72.0,30.0,30.0,7.0,0.0
14738,60.0,0.0,30.0,7.0,0.0
14739,69.0,30.0,30.0,7.0,0.0
14740,57.0,0.0,30.0,7.0,0.0
14741,72.0,1.0,30.0,7.0,0.0
14742,60.0,0.0,30.0,7.0,0.0
14743,76.0,30.0,30.0,7.0,0.0
14744,64.0,0.0,30.0,7.0,0.0
14745,81.0,1.0,120.0,1.0,0.0
14746,76.0,28.0,120.0,2.0,0.0
14747,72.0,0.0,30.0,7.0,0.0
14748,60.0,30.0,30.0,7.0,0.0
14749,57.0,0.0,30.0,7.0,0.0
14750,69.0,30.0,30.0,7.0,0.0
14751,60.0,0.0,30.0,7.0,0.0
14752,72.0,1.0,30.0,7.0,0.0
14753,57.0,0.0,30.0,7.0,0.0
14754,69.0,30.0,30.0,7.0,0.0
14755,76.0,1.0,120.0,1.0,0.0
14756,72.0,13.0,120.0,2.0,0.0
14757,64.0,0.0,30.0,7.0,0.0
14758,76.0,30.0,30.0,7.0,0.0
14759,72.0,0.0,30.0,7.0,0.0
14760,60.0,2.0,30.0,7.0,0.0
14761,64.0,1.0,30.0,7.0,0.0
14762,76.0,0.0,30.0,7.0,0.0
14763,69.0,0.0,30.0,7.0,0.0
14764,81.0,0.0,30.0,7.0,0.0
14765,62.0,15.0,15.0,8.0,0.0
14766,72.0,1.0,120.0,1.0,0.0
14767,69.0,0.0,120.0,2.0,0.0
14768,45.0,2.0,90.0,12.0,0.0
14769,33.0,23.0,90.0,13.0,0.0
14770,60.0,15.0,15.0,8.0,0.0
14771,64.0,30.0,30.0,7.0,0.0
14772,59.0,15.0,15.0,8.0,0.0
14773,76.0,0.0,30.0,7.0,0.0
14774,72.0,0.0,30.0,7.0,0.0
14775,60.0,0.0,30.0,7.0,0.0
14776,60.0,2.0,15.0,8.0,0.0
14777,64.0,1.0,30.0,7.0,0.0
14778,76.0,0.0,30.0,7.0,0.0
14779,64.0,2.0,15.0,10.0,0.0
14780,57.0,1.0,15.0,11.0,0.0
14781,45.0,2.0,30.0,12.0,0.0
14782,33.0,23.0,30.0,13.0,0.0
14783,63.0,0.0,30.0,7.0,0.0
14784,51.0,30.0,30.0,7.0,0.0
14785,63.0,0.0,810.0,8.0,0.0
14786,69.0,2.0,810.0,10.0,0.0
14787,54.0,1.0,810.0,11.0,0.0
14788,47.0,2.0,810.0,12.0,0.0
14789,63.0,24.0,120.0,3.0,0.0
14790,35.0,23.0,810.0,13.0,0.0
14791,69.0,0.0,30.0,7.0,0.0
14792,57.0,30.0,30.0,7.0,0.0
14793,66.0,0.0,30.0,7.0,0.0
14794,54.0,30.0,30.0,7.0,0.0
14795,69.0,0.0,30.0,7.0,0.0
14796,57.0,6.0,30.0,7.0,0.0
14797,63.0,0.0,30.0,7.0,0.0
14798,75.0,30.0,30.0,7.0,0.0
14799,57.0,24.0,120.0,3.0,0.0
14800,69.0,0.0,30.0,7.0,0.0
14801,57.0,30.0,30.0,7.0,0.0
14802,66.0,0.0,30.0,7.0,0.0
14803,54.0,30.0,30.0,7.0,0.0
14804,57.0,6.0,30.0,7.0,0.0
14805,69.0,0.0,30.0,7.0,0.0
14806,66.0,0.0,30.0,7.0,0.0
14807,54.0,30.0,30.0,7.0,0.0
14808,54.0,24.0,120.0,3.0,0.0
14809,63.0,0.0,30.0,7.0,0.0
14810,75.0,30.0,30.0,7.0,0.0
14811,69.0,30.0,30.0,7.0,0.0
14812,57.0,0.0,30.0,7.0,0.0
14813,75.0,6.0,30.0,7.0,0.0
14814,63.0,0.0,30.0,7.0,0.0
14815,78.0,30.0,30.0,7.0,0.0
14816,66.0,0.0,30.0,7.0,0.0
14817,51.0,24.0,120.0,3.0,0.0
14818,63.0,30.0,30.0,7.0,0.0
14819,75.0,0.0,30.0,7.0,0.0
14820,69.0,30.0,30.0,7.0,0.0
14821,57.0,0.0,30.0,7.0,0.0
14822,75.0,0.0,30.0,7.0,0.0
14823,63.0,6.0,30.0,7.0,0.0
14824,69.0,30.0,30.0,7.0,0.0
14825,57.0,0.0,30.0,7.0,0.0
14826,87.0,1.0,120.0,1.0,0.0
14827,81.0,28.0,120.0,2.0,0.0
14828,78.0,30.0,30.0,7.0,0.0
14829,66.0,0.0,30.0,7.0,0.0
14830,75.0,30.0,30.0,7.0,0.0
14831,63.0,0.0,30.0,7.0,0.0
14832,78.0,1.0,30.0,7.0,0.0
14833,66.0,0.0,30.0,7.0,0.0
14834,81.0,0.0,30.0,7.0,0.0
14835,69.0,30.0,30.0,7.0,0.0
14836,81.0,1.0,120.0,1.0,0.0
14837,78.0,28.0,120.0,2.0,0.0
14838,78.0,0.0,30.0,7.0,0.0
14839,66.0,30.0,30.0,7.0,0.0
14840,63.0,30.0,30.0,7.0,0.0
14841,75.0,0.0,30.0,7.0,0.0
14842,78.0,1.0,30.0,7.0,0.0
14843,66.0,0.0,30.0,7.0,0.0
14844,63.0,30.0,30.0,7.0,0.0
14845,75.0,0.0,30.0,7.0,0.0
14846,78.0,1.0,120.0,1.0,0.0
14847,75.0,13.0,120.0,2.0,0.0
14848,81.0,0.0,30.0,7.0,0.0
14849,69.0,30.0,30.0,7.0,0.0
14850,78.0,0.0,30.0,7.0,0.0
14851,66.0,2.0,30.0,7.0,0.0
14852,81.0,1.0,30.0,7.0,0.0
14853,69.0,0.0,30.0,7.0,0.0
14854,75.0,15.0,30.0,7.0,0.0
14855,87.0,0.0,30.0,7.0,0.0
14856,64.0,15.0,15.0,8.0,0.0
14857,75.0,1.0,120.0,1.0,0.0
14858,69.0,2.0,120.0,2.0,0.0
14859,63.0,0.0,15.0,8.0,0.0
14860,69.0,0.0,30.0,7.0,0.0
14861,81.0,30.0,30.0,7.0,0.0
14862,61.0,15.0,15.0,8.0,0.0
14863,63.0,0.0,60.0,8.0,0.0
14864,78.0,2.0,30.0,7.0,0.0
14865,66.0,0.0,30.0,7.0,0.0
14866,81.0,0.0,30.0,7.0,0.0
14867,69.0,1.0,30.0,7.0,0.0
14868,69.0,2.0,15.0,10.0,0.0
14869,54.0,1.0,15.0,11.0,0.0
14870,47.0,2.0,15.0,12.0,0.0
14871,35.0,23.0,15.0,13.0,0.0
14872,63.0,0.0,15.0,8.0,0.0
14873,51.0,0.0,30.0,7.0,0.0
14874,63.0,30.0,30.0,7.0,0.0
14875,69.0,0.0,15.0,10.0,0.0
14876,54.0,1.0,15.0,11.0,0.0
14877,47.0,2.0,810.0,12.0,0.0
14878,63.0,24.0,120.0,3.0,0.0
14879,35.0,23.0,15.0,13.0,0.0
14880,69.0,0.0,30.0,7.0,0.0
14881,57.0,30.0,30.0,7.0,0.0
14882,66.0,30.0,30.0,7.0,0.0
14883,54.0,0.0,30.0,7.0,0.0
14884,69.0,0.0,30.0,7.0,0.0
14885,57.0,6.0,30.0,7.0,0.0
14886,75.0,0.0,30.0,7.0,0.0
14887,63.0,30.0,30.0,7.0,0.0
14888,57.0,24.0,120.0,3.0,0.0
14889,57.0,30.0,30.0,7.0,0.0
14890,69.0,0.0,30.0,7.0,0.0
14891,66.0,0.0,30.0,7.0,0.0
14892,54.0,30.0,30.0,7.0,0.0
14893,57.0,0.0,30.0,7.0,0.0
14894,69.0,6.0,30.0,7.0,0.0
14895,54.0,30.0,30.0,7.0,0.0
14896,66.0,0.0,30.0,7.0,0.0
14897,54.0,24.0,120.0,3.0,0.0
14898,75.0,30.0,30.0,7.0,0.0
14899,63.0,0.0,30.0,7.0,0.0
14900,57.0,30.0,30.0,7.0,0.0
14901,69.0,0.0,30.0,7.0,0.0
14902,63.0,6.0,30.0,7.0,0.0
14903,75.0,0.0,30.0,7.0,0.0
14904,78.0,0.0,30.0,7.0,0.0
14905,66.0,30.0,30.0,7.0,0.0
14906,51.0,24.0,120.0,3.0,0.0
14907,63.0,0.0,30.0,7.0,0.0
14908,75.0,30.0,30.0,7.0,0.0
14909,57.0,0.0,30.0,7.0,0.0
14910,69.0,30.0,30.0,7.0,0.0
14911,75.0,0.0,30.0,7.0,0.0
14912,63.0,6.0,30.0,7.0,0.0
14913,69.0,0.0,30.0,7.0,0.0
14914,57.0,30.0,30.0,7.0,0.0
14915,87.0,1.0,120.0,1.0,0.0
14916,81.0,28.0,120.0,2.0,0.0
14917,66.0,0.0,30.0,7.0,0.0
14918,78.0,30.0,30.0,7.0,0.0
14919,75.0,0.0,30.0,7.0,0.0
14920,63.0,30.0,30.0,7.0,0.0
14921,78.0,0.0,30.0,7.0,0.0
14922,66.0,1.0,30.0,7.0,0.0
14923,81.0,0.0,30.0,7.0,0.0
14924,69.0,30.0,30.0,7.0,0.0
14925,81.0,1.0,120.0,1.0,0.0
14926,78.0,28.0,120.0,2.0,0.0
14927,78.0,30.0,30.0,7.0,0.0
14928,66.0,0.0,30.0,7.0,0.0
14929,75.0,30.0,30.0,7.0,0.0
14930,63.0,0.0,30.0,7.0,0.0
14931,78.0,0.0,30.0,7.0,0.0
14932,66.0,1.0,30.0,7.0,0.0
14933,63.0,30.0,30.0,7.0,0.0
14934,75.0,0.0,30.0,7.0,0.0
14935,78.0,1.0,120.0,1.0,0.0
14936,75.0,13.0,120.0,2.0,0.0
14937,81.0,30.0,30.0,7.0,0.0
14938,69.0,0.0,30.0,7.0,0.0
14939,78.0,2.0,30.0,7.0,0.0
14940,66.0,0.0,30.0,7.0,0.0
14941,81.0,1.0,30.0,7.0,0.0
14942,69.0,0.0,30.0,7.0,0.0
14943,75.0,0.0,30.0,7.0,0.0
14944,64.0,15.0,15.0,8.0,0.0
14945,87.0,15.0,30.0,7.0,0.0
14946,75.0,1.0,120.0,1.0,0.0
14947,69.0,2.0,90.0,10.0,0.0
14948,69.0,0.0,120.0,2.0,0.0
14949,54.0,1.0,90.0,11.0,0.0
14950,47.0,2.0,90.0,12.0,0.0
14951,35.0,23.0,90.0,13.0,0.0
14952,63.0,0.0,15.0,8.0,0.0
14953,61.0,15.0,15.0,8.0,0.0
14954,69.0,30.0,30.0,7.0,0.0
14955,81.0,0.0,30.0,7.0,0.0
14956,63.0,0.0,60.0,8.0,0.0
14957,78.0,2.0,30.0,7.0,0.0
14958,66.0,0.0,30.0,7.0,0.0
14959,69.0,0.0,30.0,7.0,0.0
14960,81.0,1.0,30.0,7.0,0.0
14961,63.0,0.0,30.0,8.0,0.0
14962,69.0,2.0,30.0,10.0,0.0
14963,54.0,1.0,30.0,11.0,0.0
14964,47.0,2.0,30.0,12.0,0.0
14965,35.0,23.0,30.0,13.0,0.0
14966,64.0,0.0,330.0,8.0,0.0
14967,64.0,30.0,30.0,7.0,0.0
14968,52.0,0.0,30.0,7.0,0.0
14969,67.0,2.0,330.0,10.0,0.0
14970,52.0,1.0,330.0,11.0,0.0
14971,48.0,2.0,330.0,12.0,0.0
14972,64.0,24.0,120.0,3.0,0.0
14973,36.0,23.0,330.0,13.0,0.0
14974,72.0,30.0,30.0,7.0,0.0
14975,60.0,0.0,30.0,7.0,0.0
14976,55.0,30.0,30.0,7.0,0.0
14977,67.0,0.0,30.0,7.0,0.0
14978,60.0,0.0,30.0,7.0,0.0
14979,72.0,6.0,30.0,7.0,0.0
14980,64.0,30.0,30.0,7.0,0.0
14981,76.0,0.0,30.0,7.0,0.0
14982,60.0,24.0,120.0,3.0,0.0
14983,60.0,30.0,30.0,7.0,0.0
14984,72.0,0.0,30.0,7.0,0.0
14985,67.0,30.0,30.0,7.0,0.0
14986,55.0,0.0,30.0,7.0,0.0
14987,72.0,6.0,30.0,7.0,0.0
14988,60.0,0.0,30.0,7.0,0.0
14989,67.0,30.0,30.0,7.0,0.0
14990,88.0,0.0,120.0,0.0,0.0
14991,55.0,0.0,30.0,7.0,0.0
14992,76.0,4.0,120.0,2.0,0.0
14993,55.0,9.0,120.0,3.0,0.0
14994,64.0,0.0,30.0,7.0,0.0
14995,76.0,30.0,30.0,7.0,0.0
14996,60.0,0.0,30.0,7.0,0.0
14997,72.0,2.0,30.0,7.0,0.0
14998,64.0,2.0,30.0,7.0,0.0
14999,76.0,0.0,30.0,7.0,0.0
15000,79.0,15.0,30.0,7.0,0.0
15001,67.0,0.0,30.0,7.0,0.0
15002,84.0,2.0,120.0,0.0,0.0
15003,66.0,15.0,15.0,8.0,0.0
15004,67.0,2.0,90.0,10.0,0.0
15005,72.0,0.0,120.0,2.0,0.0
15006,52.0,1.0,120.0,3.0,0.0
15007,36.0,23.0,90.0,13.0,0.0
15008,64.0,0.0,15.0,8.0,0.0
15009,76.0,0.0,30.0,7.0,0.0
15010,63.0,15.0,15.0,8.0,0.0
15011,64.0,30.0,30.0,7.0,0.0
15012,64.0,0.0,60.0,8.0,0.0
15013,72.0,0.0,30.0,7.0,0.0
15014,60.0,2.0,30.0,7.0,0.0
15015,64.0,0.0,30.0,7.0,0.0
15016,76.0,0.0,30.0,7.0,0.0
15017,52.0,1.0,15.0,11.0,0.0
15018,48.0,2.0,15.0,12.0,0.0
15019,36.0,23.0,30.0,13.0,0.0
15020,64.0,0.0,15.0,8.0,0.0
15021,67.0,0.0,30.0,7.0,0.0
15022,55.0,30.0,30.0,7.0,0.0
15023,79.0,2.0,120.0,0.0,0.0
15024,67.0,2.0,15.0,10.0,0.0
15025,67.0,4.0,120.0,2.0,0.0
15026,58.0,1.0,330.0,11.0,0.0
15027,49.0,2.0,330.0,12.0,0.0
15028,67.0,24.0,120.0,3.0,0.0
15029,37.0,23.0,330.0,13.0,0.0
15030,64.0,30.0,30.0,7.0,0.0
15031,76.0,0.0,30.0,7.0,0.0
15032,70.0,0.0,30.0,7.0,0.0
15033,58.0,30.0,30.0,7.0,0.0
15034,76.0,0.0,30.0,7.0,0.0
15035,64.0,0.0,30.0,7.0,0.0
15036,79.0,0.0,30.0,7.0,0.0
15037,67.0,30.0,30.0,7.0,0.0
15038,76.0,2.0,120.0,0.0,0.0
15039,64.0,4.0,120.0,2.0,0.0
15040,64.0,24.0,120.0,3.0,0.0
15041,64.0,0.0,30.0,7.0,0.0
15042,76.0,30.0,30.0,7.0,0.0
15043,70.0,0.0,30.0,7.0,0.0
15044,58.0,30.0,30.0,7.0,0.0
15045,76.0,0.0,30.0,7.0,0.0
15046,64.0,0.0,30.0,7.0,0.0
15047,70.0,30.0,30.0,7.0,0.0
15048,58.0,0.0,30.0,7.0,0.0
15049,91.0,2.0,120.0,0.0,0.0
15050,79.0,4.0,120.0,2.0,0.0
15051,58.0,9.0,120.0,3.0,0.0
15052,79.0,30.0,30.0,7.0,0.0
15053,67.0,0.0,30.0,7.0,0.0
15054,76.0,2.0,30.0,7.0,0.0
15055,64.0,0.0,30.0,7.0,0.0
15056,79.0,0.0,30.0,7.0,0.0
15057,67.0,0.0,30.0,7.0,0.0
15058,82.0,15.0,30.0,7.0,0.0
15059,66.0,15.0,15.0,8.0,0.0
15060,88.0,0.0,120.0,0.0,0.0
15061,70.0,0.0,30.0,7.0,0.0
15062,76.0,2.0,120.0,2.0,0.0
15063,55.0,1.0,120.0,3.0,0.0
15064,64.0,0.0,15.0,8.0,0.0
15065,63.0,15.0,15.0,8.0,0.0
15066,79.0,30.0,30.0,7.0,0.0
15067,67.0,0.0,30.0,7.0,0.0
15068,64.0,0.0,60.0,8.0,0.0
15069,76.0,2.0,30.0,7.0,0.0
15070,64.0,0.0,30.0,7.0,0.0
15071,64.0,0.0,30.0,8.0,0.0
15072,79.0,2.0,30.0,7.0,0.0
15073,67.0,0.0,30.0,7.0,0.0
15074,67.0,2.0,15.0,10.0,0.0
15075,58.0,1.0,15.0,11.0,0.0
15076,49.0,2.0,15.0,12.0,0.0
15077,37.0,23.0,15.0,13.0,0.0
15078,62.0,0.0,330.0,8.0,0.0
15079,83.0,2.0,120.0,0.0,0.0
15080,71.0,30.0,30.0,7.0,0.0
15081,59.0,0.0,30.0,7.0,0.0
15082,71.0,28.0,120.0,2.0,0.0
15083,67.0,2.0,330.0,10.0,0.0
15084,67.0,0.0,120.0,4.0,0.0
15085,79.0,0.0,120.0,4.0,0.0
15086,59.0,1.0,330.0,11.0,0.0
15087,50.0,2.0,330.0,12.0,0.0
15088,38.0,23.0,330.0,13.0,0.0
15089,79.0,30.0,30.0,7.0,0.0
15090,67.0,0.0,30.0,7.0,0.0
15091,62.0,0.0,30.0,7.0,0.0
15092,74.0,30.0,30.0,7.0,0.0
15093,67.0,0.0,30.0,7.0,0.0
15094,79.0,0.0,30.0,7.0,0.0
15095,83.0,0.0,30.0,7.0,0.0
15096,71.0,30.0,30.0,7.0,0.0
15097,79.0,2.0,120.0,0.0,0.0
15098,62.0,0.0,120.0,4.0,0.0
15099,67.0,0.0,120.0,2.0,0.0
15100,74.0,28.0,120.0,4.0,0.0
15101,67.0,30.0,30.0,7.0,0.0
15102,79.0,0.0,30.0,7.0,0.0
15103,74.0,30.0,30.0,7.0,0.0
15104,62.0,0.0,30.0,7.0,0.0
15105,79.0,0.0,30.0,7.0,0.0
15106,67.0,0.0,30.0,7.0,0.0
15107,62.0,30.0,30.0,7.0,0.0
15108,74.0,0.0,30.0,7.0,0.0
15109,59.0,4.0,120.0,4.0,0.0
15110,71.0,0.0,120.0,4.0,0.0
15111,67.0,9.0,120.0,3.0,0.0
15112,83.0,30.0,30.0,7.0,0.0
15113,71.0,0.0,30.0,7.0,0.0
15114,79.0,0.0,30.0,7.0,0.0
15115,67.0,2.0,30.0,7.0,0.0
15116,71.0,2.0,30.0,7.0,0.0
15117,83.0,0.0,30.0,7.0,0.0
15118,74.0,0.0,30.0,7.0,0.0
15119,86.0,15.0,30.0,7.0,0.0
15120,64.0,15.0,15.0,8.0,0.0
15121,67.0,2.0,90.0,10.0,0.0
15122,55.0,0.0,120.0,4.0,0.0
15123,67.0,2.0,120.0,4.0,0.0
15124,62.0,1.0,120.0,3.0,0.0
15125,38.0,23.0,90.0,13.0,0.0
15126,62.0,0.0,15.0,8.0,0.0
15127,61.0,15.0,15.0,8.0,0.0
15128,71.0,30.0,30.0,7.0,0.0
15129,83.0,0.0,30.0,7.0,0.0
15130,62.0,2.0,60.0,8.0,0.0
15131,79.0,0.0,30.0,7.0,0.0
15132,67.0,0.0,30.0,7.0,0.0
15133,83.0,0.0,30.0,7.0,0.0
15134,71.0,0.0,30.0,7.0,0.0
15135,62.0,2.0,30.0,8.0,0.0
15136,67.0,0.0,30.0,10.0,0.0
15137,59.0,1.0,15.0,11.0,0.0
15138,50.0,2.0,15.0,12.0,0.0
15139,38.0,23.0,30.0,13.0,0.0
15140,79.0,30.0,30.0,7.0,0.0
15141,91.0,0.0,120.0,0.0,0.0
15142,62.0,1.0,330.0,8.0,0.0
15143,67.0,0.0,30.0,7.0,0.0
15144,79.0,4.0,120.0,2.0,0.0
15145,67.0,2.0,330.0,10.0,0.0
15146,58.0,1.0,330.0,11.0,0.0
15147,50.0,2.0,330.0,12.0,0.0
15148,58.0,24.0,120.0,3.0,0.0
15149,38.0,23.0,330.0,13.0,0.0
15150,86.0,30.0,30.0,7.0,0.0
15151,74.0,0.0,30.0,7.0,0.0
15152,82.0,30.0,30.0,7.0,0.0
15153,70.0,0.0,30.0,7.0,0.0
15154,74.0,2.0,30.0,7.0,0.0
15155,86.0,0.0,30.0,7.0,0.0
15156,91.0,0.0,30.0,7.0,0.0
15157,79.0,30.0,30.0,7.0,0.0
15158,86.0,2.0,120.0,0.0,0.0
15159,74.0,4.0,120.0,2.0,0.0
15160,55.0,24.0,120.0,3.0,0.0
15161,74.0,30.0,30.0,7.0,0.0
15162,86.0,0.0,30.0,7.0,0.0
15163,82.0,30.0,30.0,7.0,0.0
15164,70.0,0.0,30.0,7.0,0.0
15165,86.0,0.0,30.0,7.0,0.0
15166,74.0,0.0,30.0,7.0,0.0
15167,79.0,30.0,30.0,7.0,0.0
15168,91.0,0.0,30.0,7.0,0.0
15169,82.0,2.0,120.0,0.0,0.0
15170,67.0,1.0,90.0,5.0,0.0
15171,70.0,4.0,120.0,2.0,0.0
15172,55.0,9.0,120.0,6.0,0.0
15173,98.0,0.0,30.0,7.0,0.0
15174,86.0,30.0,30.0,7.0,0.0
15175,82.0,0.0,30.0,7.0,0.0
15176,94.0,0.0,30.0,7.0,0.0
15177,98.0,0.0,30.0,7.0,0.0
15178,86.0,0.0,30.0,7.0,0.0
15179,64.0,15.0,15.0,8.0,0.0
15180,91.0,15.0,30.0,7.0,0.0
15181,103.0,0.0,30.0,7.0,0.0
15182,62.0,0.0,90.0,5.0,0.0
15183,74.0,1.0,90.0,5.0,0.0
15184,67.0,2.0,90.0,10.0,0.0
15185,58.0,1.0,90.0,11.0,0.0
15186,50.0,1.0,120.0,6.0,0.0
15187,62.0,0.0,15.0,8.0,0.0
15188,98.0,0.0,30.0,7.0,0.0
15189,86.0,30.0,30.0,7.0,0.0
15190,61.0,15.0,15.0,8.0,0.0
15191,62.0,1.0,60.0,8.0,0.0
15192,82.0,0.0,30.0,7.0,0.0
15193,94.0,0.0,30.0,7.0,0.0
15194,98.0,2.0,30.0,7.0,0.0
15195,62.0,0.0,30.0,8.0,0.0
15196,86.0,0.0,30.0,7.0,0.0
15197,67.0,2.0,30.0,10.0,0.0
15198,59.0,1.0,30.0,11.0,0.0
15199,50.0,2.0,15.0,12.0,0.0
15200,38.0,23.0,15.0,13.0,0.0
15201,91.0,0.0,120.0,7.0,0.0
15202,103.0,2.0,120.0,7.0,0.0
15203,79.0,0.0,15.0,0.0,0.0
15204,91.0,1.0,360.0,0.0,0.0
15205,67.0,0.0,120.0,8.0,0.0
15206,79.0,0.0,360.0,1.0,0.0
15207,82.0,1.0,360.0,1.0,0.0
15208,79.0,0.0,360.0,5.0,0.0
15209,67.0,0.0,360.0,5.0,0.0
15210,67.0,0.0,15.0,2.0,0.0
15211,70.0,0.0,360.0,2.0,0.0
15212,63.0,2.0,120.0,10.0,0.0
15213,67.0,4.0,360.0,4.0,0.0
15214,55.0,1.0,120.0,11.0,0.0
15215,51.0,1.0,120.0,12.0,0.0
15216,55.0,1.0,120.0,6.0,0.0
15217,51.0,0.0,360.0,3.0,0.0
15218,39.0,233.0,120.0,13.0,0.0
15219,91.0,1.0,90.0,0.0,0.0
15220,79.0,0.0,90.0,0.0,0.0
15221,79.0,0.0,90.0,5.0,0.0
15222,79.0,0.0,90.0,1.0,0.0
15223,82.0,0.0,90.0,1.0,0.0
15224,55.0,0.0,15.0,4.0,0.0
15225,67.0,0.0,90.0,4.0,0.0
15226,63.0,84.0,15.0,3.0,0.0
15227,51.0,0.0,90.0,3.0,0.0
15228,55.0,24.0,90.0,6.0,0.0
15229,79.0,1.0,30.0,0.0,0.0
15230,91.0,0.0,30.0,0.0,0.0
15231,67.0,1.0,15.0,5.0,0.0
15232,67.0,0.0,30.0,4.0,0.0
15233,70.0,0.0,15.0,2.0,0.0
15234,67.0,4.0,15.0,2.0,0.0
15235,63.0,0.0,30.0,3.0,0.0
15236,55.0,0.0,30.0,6.0,0.0
15237,79.0,1.0,120.0,0.0,0.0
15238,91.0,0.0,120.0,0.0,0.0
15239,79.0,0.0,15.0,1.0,0.0
15240,82.0,0.0,15.0,1.0,0.0
15241,79.0,1.0,15.0,5.0,0.0
15242,67.0,0.0,15.0,2.0,0.0
15243,67.0,0.0,120.0,4.0,0.0
15244,55.0,4.0,15.0,4.0,0.0
15245,51.0,114.0,15.0,3.0,0.0
15246,63.0,0.0,120.0,3.0,0.0
15247,55.0,84.0,120.0,6.0,0.0
15248,91.0,0.0,90.0,0.0,0.0
15249,67.0,0.0,15.0,5.0,0.0
15250,79.0,0.0,15.0,5.0,0.0
15251,82.0,0.0,90.0,1.0,0.0
15252,79.0,1.0,15.0,1.0,0.0
15253,70.0,4.0,15.0,2.0,0.0
15254,79.0,1.0,15.0,0.0,0.0
15255,79.0,0.0,15.0,1.0,0.0
15256,82.0,1.0,30.0,1.0,0.0
15257,67.0,0.0,15.0,5.0,0.0
15258,79.0,1.0,15.0,5.0,0.0
15259,67.0,0.0,15.0,4.0,0.0
15260,55.0,0.0,15.0,4.0,0.0
15261,67.0,4.0,15.0,2.0,0.0
15262,63.0,0.0,15.0,3.0,0.0
15263,51.0,0.0,15.0,3.0,0.0
15264,55.0,24.0,15.0,6.0,0.0
15265,79.0,0.0,15.0,0.0,0.0
15266,91.0,1.0,15.0,0.0,0.0
15267,67.0,0.0,15.0,5.0,0.0
15268,79.0,0.0,15.0,5.0,0.0
15269,79.0,0.0,120.0,1.0,0.0
15270,55.0,0.0,15.0,4.0,0.0
15271,67.0,0.0,15.0,4.0,0.0
15272,67.0,4.0,15.0,2.0,0.0
15273,70.0,0.0,15.0,2.0,0.0
15274,63.0,0.0,120.0,3.0,0.0
15275,51.0,0.0,120.0,3.0,0.0
15276,55.0,114.0,15.0,6.0,0.0
15277,79.0,1.0,15.0,0.0,0.0
15278,91.0,1.0,90.0,0.0,0.0
15279,82.0,1.0,15.0,1.0,0.0
15280,67.0,0.0,15.0,4.0,0.0
15281,70.0,0.0,15.0,2.0,0.0
15282,55.0,4.0,15.0,4.0,0.0
15283,55.0,84.0,15.0,6.0,0.0
15284,63.0,0.0,90.0,3.0,0.0
15285,79.0,0.0,15.0,1.0,0.0
15286,67.0,1.0,15.0,5.0,0.0
15287,79.0,0.0,15.0,5.0,0.0
15288,67.0,0.0,15.0,2.0,0.0
15289,70.0,0.0,15.0,2.0,0.0
15290,67.0,4.0,15.0,4.0,0.0
15291,55.0,0.0,15.0,4.0,0.0
15292,55.0,114.0,30.0,6.0,0.0
15293,63.0,0.0,30.0,3.0,0.0
15294,51.0,24.0,15.0,3.0,0.0
15295,79.0,1.0,15.0,0.0,0.0
15296,91.0,0.0,15.0,0.0,0.0
15297,67.0,1.0,120.0,8.0,0.0
15298,79.0,0.0,15.0,1.0,0.0
15299,82.0,1.0,15.0,1.0,0.0
15300,79.0,0.0,15.0,5.0,0.0
15301,67.0,0.0,120.0,5.0,0.0
15302,67.0,0.0,120.0,2.0,0.0
15303,70.0,0.0,120.0,2.0,0.0
15304,67.0,4.0,15.0,4.0,0.0
15305,63.0,2.0,120.0,10.0,0.0
15306,55.0,0.0,120.0,4.0,0.0
15307,55.0,1.0,120.0,11.0,0.0
15308,51.0,1.0,120.0,12.0,0.0
15309,51.0,0.0,120.0,3.0,0.0
15310,63.0,1.0,120.0,3.0,0.0
15311,55.0,0.0,120.0,6.0,0.0
15312,39.0,83.0,120.0,13.0,0.0
15313,79.0,0.0,90.0,7.0,0.0
15314,51.0,30.0,90.0,7.0,0.0
15315,82.0,0.0,90.0,7.0,0.0
15316,91.0,0.0,90.0,7.0,0.0
15317,87.0,0.0,90.0,7.0,0.0
15318,47.0,0.0,90.0,7.0,0.0
15319,39.0,0.0,90.0,7.0,0.0
15320,43.0,0.0,90.0,7.0,0.0
15321,82.0,0.0,30.0,7.0,0.0
15322,39.0,0.0,30.0,7.0,0.0
15323,47.0,0.0,30.0,7.0,0.0
15324,51.0,0.0,30.0,7.0,0.0
15325,87.0,0.0,30.0,7.0,0.0
15326,91.0,0.0,30.0,7.0,0.0
15327,43.0,0.0,30.0,7.0,0.0
15328,91.0,0.0,120.0,7.0,0.0
15329,79.0,120.0,15.0,7.0,0.0
15330,51.0,0.0,120.0,7.0,0.0
15331,47.0,0.0,120.0,7.0,0.0
15332,43.0,0.0,120.0,7.0,0.0
15333,39.0,0.0,120.0,7.0,0.0
15334,82.0,0.0,120.0,7.0,0.0
15335,87.0,0.0,120.0,7.0,0.0
15336,79.0,0.0,90.0,5.0,0.0
15337,67.0,0.0,90.0,2.0,0.0
15338,51.0,0.0,90.0,3.0,0.0
15339,91.0,0.0,15.0,0.0,0.0
15340,79.0,1.0,15.0,0.0,0.0
15341,67.0,0.0,15.0,5.0,0.0
15342,79.0,1.0,15.0,1.0,0.0
15343,82.0,0.0,15.0,1.0,0.0
15344,79.0,0.0,30.0,5.0,0.0
15345,70.0,4.0,15.0,2.0,0.0
15346,67.0,0.0,30.0,2.0,0.0
15347,67.0,0.0,15.0,4.0,0.0
15348,55.0,0.0,15.0,4.0,0.0
15349,63.0,0.0,15.0,3.0,0.0
15350,55.0,24.0,15.0,6.0,0.0
15351,91.0,1.0,15.0,0.0,0.0
15352,79.0,0.0,15.0,0.0,0.0
15353,79.0,0.0,15.0,1.0,0.0
15354,67.0,0.0,15.0,5.0,0.0
15355,79.0,0.0,120.0,5.0,0.0
15356,82.0,0.0,120.0,1.0,0.0
15357,67.0,0.0,120.0,2.0,0.0
15358,67.0,0.0,120.0,4.0,0.0
15359,55.0,0.0,120.0,4.0,0.0
15360,51.0,0.0,15.0,3.0,0.0
15361,55.0,114.0,15.0,6.0,0.0
15362,63.0,0.0,120.0,3.0,0.0
15363,79.0,0.0,15.0,0.0,0.0
15364,91.0,1.0,15.0,0.0,0.0
15365,67.0,1.0,15.0,5.0,0.0
15366,79.0,0.0,15.0,1.0,0.0
15367,70.0,4.0,15.0,2.0,0.0
15368,55.0,0.0,90.0,4.0,0.0
15369,67.0,0.0,90.0,4.0,0.0
15370,55.0,84.0,15.0,6.0,0.0
15371,91.0,0.0,15.0,0.0,0.0
15372,79.0,1.0,15.0,0.0,0.0
15373,79.0,1.0,15.0,1.0,0.0
15374,82.0,0.0,15.0,1.0,0.0
15375,79.0,0.0,15.0,5.0,0.0
15376,67.0,0.0,15.0,5.0,0.0
15377,67.0,4.0,15.0,2.0,0.0
15378,70.0,0.0,15.0,2.0,0.0
15379,67.0,4.0,30.0,4.0,0.0
15380,51.0,0.0,15.0,3.0,0.0
15381,63.0,0.0,15.0,3.0,0.0
15382,55.0,0.0,30.0,6.0,0.0
15383,79.0,1.0,15.0,0.0,0.0
15384,91.0,1.0,120.0,0.0,0.0
15385,82.0,0.0,15.0,1.0,0.0
15386,79.0,0.0,15.0,1.0,0.0
15387,67.0,0.0,15.0,5.0,0.0
15388,79.0,1.0,15.0,5.0,0.0
15389,70.0,0.0,120.0,2.0,0.0
15390,67.0,0.0,120.0,2.0,0.0
15391,55.0,0.0,15.0,4.0,0.0
15392,67.0,0.0,120.0,4.0,0.0
15393,51.0,114.0,15.0,3.0,0.0
15394,63.0,0.0,15.0,3.0,0.0
15395,79.0,0.0,15.0,0.0,0.0
15396,79.0,0.0,15.0,5.0,0.0
15397,67.0,0.0,90.0,5.0,0.0
15398,79.0,0.0,90.0,1.0,0.0
15399,82.0,1.0,90.0,1.0,0.0
15400,55.0,4.0,15.0,4.0,0.0
15401,70.0,0.0,90.0,2.0,0.0
15402,67.0,0.0,90.0,4.0,0.0
15403,55.0,84.0,15.0,6.0,0.0
15404,91.0,0.0,15.0,0.0,0.0
15405,79.0,1.0,15.0,0.0,0.0
15406,79.0,0.0,15.0,5.0,0.0
15407,67.0,0.0,30.0,5.0,0.0
15408,82.0,0.0,30.0,1.0,0.0
15409,67.0,4.0,15.0,2.0,0.0
15410,70.0,0.0,30.0,2.0,0.0
15411,55.0,0.0,15.0,6.0,0.0
15412,51.0,24.0,15.0,3.0,0.0
15413,63.0,0.0,15.0,3.0,0.0
15414,79.0,0.0,120.0,0.0,0.0
15415,91.0,0.0,120.0,0.0,0.0
15416,67.0,1.0,120.0,8.0,0.0
15417,82.0,0.0,120.0,1.0,0.0
15418,79.0,1.0,15.0,1.0,0.0
15419,79.0,1.0,120.0,5.0,0.0
15420,67.0,0.0,120.0,5.0,0.0
15421,67.0,0.0,15.0,4.0,0.0
15422,55.0,4.0,15.0,4.0,0.0
15423,63.0,0.0,120.0,10.0,0.0
15424,67.0,0.0,120.0,2.0,0.0
15425,70.0,2.0,120.0,2.0,0.0
15426,55.0,1.0,120.0,11.0,0.0
15427,51.0,1.0,120.0,12.0,0.0
15428,55.0,114.0,15.0,6.0,0.0
15429,63.0,1.0,120.0,3.0,0.0
15430,51.0,0.0,120.0,3.0,0.0
15431,39.0,83.0,120.0,13.0,0.0
15432,51.0,0.0,90.0,7.0,0.0
15433,91.0,0.0,90.0,7.0,0.0
15434,87.0,0.0,90.0,7.0,0.0
15435,43.0,0.0,90.0,7.0,0.0
15436,87.0,0.0,30.0,7.0,0.0
15437,79.0,0.0,15.0,7.0,0.0
15438,82.0,0.0,15.0,7.0,0.0
15439,91.0,120.0,30.0,7.0,0.0
15440,47.0,0.0,15.0,7.0,0.0
15441,43.0,0.0,30.0,7.0,0.0
15442,39.0,30.0,15.0,7.0,0.0
15443,51.0,0.0,30.0,7.0,0.0
15444,82.0,0.0,120.0,7.0,0.0
15445,91.0,0.0,120.0,7.0,0.0
15446,43.0,90.0,120.0,7.0,0.0
15447,47.0,0.0,120.0,7.0,0.0
15448,51.0,0.0,120.0,7.0,0.0
15449,79.0,0.0,120.0,7.0,0.0
15450,87.0,0.0,120.0,7.0,0.0
15451,39.0,0.0,120.0,7.0,0.0
15452,79.0,0.0,90.0,5.0,0.0
15453,82.0,1.0,90.0,1.0,0.0
15454,70.0,0.0,90.0,2.0,0.0
15455,67.0,0.0,90.0,4.0,0.0
15456,55.0,0.0,90.0,4.0,0.0
15457,55.0,0.0,90.0,6.0,0.0
15458,91.0,0.0,15.0,0.0,0.0
15459,79.0,1.0,15.0,0.0,0.0
15460,79.0,0.0,15.0,1.0,0.0
15461,67.0,0.0,15.0,5.0,0.0
15462,67.0,0.0,30.0,4.0,0.0
15463,55.0,0.0,30.0,4.0,0.0
15464,67.0,4.0,15.0,2.0,0.0
15465,70.0,0.0,30.0,2.0,0.0
15466,63.0,0.0,15.0,3.0,0.0
15467,51.0,24.0,15.0,3.0,0.0
15468,55.0,0.0,30.0,6.0,0.0
15469,67.0,0.0,120.0,8.0,0.0
15470,91.0,1.0,15.0,0.0,0.0
15471,79.0,0.0,120.0,0.0,0.0
15472,79.0,0.0,15.0,5.0,0.0
15473,67.0,0.0,15.0,5.0,0.0
15474,82.0,1.0,15.0,1.0,0.0
15475,79.0,0.0,120.0,1.0,0.0
15476,67.0,0.0,120.0,4.0,0.0
15477,62.0,2.0,120.0,10.0,0.0
15478,70.0,0.0,120.0,2.0,0.0
15479,67.0,4.0,15.0,2.0,0.0
15480,55.0,0.0,120.0,4.0,0.0
15481,55.0,1.0,120.0,11.0,0.0
15482,50.0,1.0,120.0,12.0,0.0
15483,55.0,1.0,120.0,6.0,0.0
15484,62.0,0.0,120.0,3.0,0.0
15485,50.0,0.0,120.0,3.0,0.0
15486,38.0,83.0,120.0,13.0,0.0
15487,46.0,0.0,90.0,7.0,0.0
15488,86.0,0.0,90.0,7.0,0.0
15489,50.0,0.0,90.0,7.0,0.0
15490,91.0,0.0,90.0,7.0,0.0
15491,43.0,0.0,90.0,7.0,0.0
15492,38.0,0.0,90.0,7.0,0.0
15493,79.0,30.0,15.0,7.0,0.0
15494,43.0,0.0,30.0,7.0,0.0
15495,82.0,0.0,15.0,7.0,0.0
15496,38.0,0.0,30.0,7.0,0.0
15497,50.0,0.0,30.0,7.0,0.0
15498,86.0,0.0,15.0,7.0,0.0
15499,50.0,0.0,120.0,7.0,0.0
15500,46.0,0.0,15.0,7.0,0.0
15501,82.0,0.0,120.0,7.0,0.0
15502,43.0,0.0,120.0,7.0,0.0
15503,79.0,0.0,120.0,7.0,0.0
15504,91.0,120.0,15.0,7.0,0.0
15505,38.0,0.0,120.0,7.0,0.0
15506,79.0,0.0,90.0,1.0,0.0
15507,67.0,0.0,90.0,5.0,0.0
15508,70.0,0.0,90.0,2.0,0.0
15509,50.0,0.0,90.0,3.0,0.0
15510,55.0,24.0,90.0,6.0,0.0
15511,91.0,1.0,15.0,0.0,0.0
15512,79.0,0.0,15.0,0.0,0.0
15513,82.0,0.0,15.0,1.0,0.0
15514,79.0,1.0,15.0,5.0,0.0
15515,79.0,0.0,30.0,1.0,0.0
15516,67.0,0.0,15.0,2.0,0.0
15517,55.0,0.0,15.0,4.0,0.0
15518,67.0,4.0,15.0,4.0,0.0
15519,50.0,0.0,30.0,3.0,0.0
15520,62.0,0.0,15.0,3.0,0.0
15521,79.0,0.0,120.0,0.0,0.0
15522,91.0,1.0,120.0,0.0,0.0
15523,67.0,0.0,120.0,8.0,0.0
15524,67.0,0.0,15.0,5.0,0.0
15525,82.0,1.0,15.0,1.0,0.0
15526,79.0,0.0,120.0,5.0,0.0
15527,79.0,0.0,120.0,1.0,0.0
15528,67.0,0.0,15.0,4.0,0.0
15529,55.0,4.0,15.0,4.0,0.0
15530,70.0,0.0,15.0,2.0,0.0
15531,67.0,0.0,15.0,2.0,0.0
15532,64.0,0.0,120.0,10.0,0.0
15533,55.0,1.0,120.0,11.0,0.0
15534,49.0,1.0,120.0,12.0,0.0
15535,61.0,0.0,120.0,3.0,0.0
15536,49.0,0.0,120.0,3.0,0.0
15537,55.0,114.0,15.0,6.0,0.0
15538,37.0,83.0,120.0,13.0,0.0
15539,85.0,0.0,90.0,7.0,0.0
15540,91.0,0.0,90.0,7.0,0.0
15541,88.0,0.0,90.0,7.0,0.0
15542,46.0,0.0,90.0,7.0,0.0
15543,37.0,0.0,90.0,7.0,0.0
15544,82.0,0.0,90.0,7.0,0.0
15545,49.0,0.0,90.0,7.0,0.0
15546,88.0,0.0,30.0,7.0,0.0
15547,85.0,0.0,30.0,7.0,0.0
15548,49.0,0.0,30.0,7.0,0.0
15549,37.0,0.0,30.0,7.0,0.0
15550,91.0,0.0,30.0,7.0,0.0
15551,79.0,30.0,15.0,7.0,0.0
15552,43.0,0.0,15.0,7.0,0.0
15553,82.0,0.0,30.0,7.0,0.0
15554,46.0,0.0,30.0,7.0,0.0
15555,88.0,0.0,120.0,7.0,0.0
15556,85.0,0.0,120.0,7.0,0.0
15557,49.0,0.0,120.0,7.0,0.0
15558,40.0,0.0,15.0,7.0,0.0
15559,37.0,0.0,120.0,7.0,0.0
15560,82.0,0.0,120.0,7.0,0.0
15561,43.0,0.0,120.0,7.0,0.0
15562,79.0,0.0,120.0,7.0,0.0
15563,91.0,0.0,120.0,7.0,0.0
15564,46.0,90.0,120.0,7.0,0.0
15565,67.0,0.0,90.0,7.0,0.0
15566,55.0,0.0,90.0,7.0,0.0
15567,43.0,30.0,15.0,7.0,0.0
15568,79.0,0.0,15.0,7.0,0.0
15569,67.0,0.0,30.0,7.0,0.0
15570,55.0,180.0,30.0,7.0,0.0
15571,46.0,45.0,180.0,7.0,0.0
15572,58.0,0.0,180.0,7.0,0.0
15573,70.0,0.0,180.0,7.0,0.0
15574,82.0,0.0,180.0,7.0,0.0
15575,81.0,0.0,60.0,7.0,0.0
15576,69.0,0.0,60.0,7.0,0.0
15577,57.0,0.0,60.0,7.0,0.0
15578,45.0,60.0,60.0,7.0,0.0
15579,79.0,0.0,60.0,7.0,0.0
15580,67.0,0.0,60.0,7.0,0.0
15581,55.0,0.0,60.0,7.0,0.0
15582,43.0,60.0,60.0,7.0,0.0
15583,41.0,0.0,60.0,7.0,0.0
15584,53.0,0.0,60.0,7.0,0.0
15585,65.0,60.0,60.0,7.0,0.0
15586,77.0,0.0,60.0,7.0,0.0
15587,76.0,60.0,60.0,7.0,0.0
15588,64.0,0.0,60.0,7.0,0.0
15589,52.0,0.0,60.0,7.0,0.0
15590,40.0,0.0,60.0,7.0,0.0
15591,50.0,0.0,60.0,7.0,0.0
15592,38.0,0.0,60.0,7.0,0.0
15593,74.0,60.0,60.0,7.0,0.0
15594,62.0,0.0,60.0,7.0,0.0
15595,61.0,60.0,60.0,7.0,0.0
15596,49.0,0.0,60.0,7.0,0.0
15597,37.0,0.0,60.0,7.0,0.0
15598,73.0,0.0,60.0,7.0,0.0
15599,70.0,0.0,60.0,7.0,0.0
15600,58.0,0.0,60.0,7.0,0.0
15601,46.0,60.0,60.0,7.0,0.0
15602,45.0,0.0,60.0,7.0,0.0
15603,57.0,60.0,60.0,7.0,0.0
15604,69.0,0.0,60.0,7.0,0.0
15605,67.0,0.0,60.0,7.0,0.0
15606,55.0,0.0,60.0,7.0,0.0
15607,43.0,60.0,60.0,7.0,0.0
15608,41.0,60.0,60.0,7.0,0.0
15609,53.0,0.0,60.0,7.0,0.0
15610,65.0,0.0,60.0,7.0,0.0
15611,64.0,0.0,60.0,7.0,0.0
15612,40.0,0.0,60.0,7.0,0.0
15613,52.0,60.0,60.0,7.0,0.0
15614,81.0,2.0,90.0,8.0,0.0
15615,62.0,45.0,60.0,7.0,0.0
15616,38.0,0.0,60.0,7.0,0.0
15617,50.0,0.0,60.0,7.0,0.0
15618,37.0,15.0,60.0,7.0,0.0
15619,49.0,0.0,60.0,7.0,0.0
15620,61.0,0.0,60.0,7.0,0.0
15621,81.0,2.0,30.0,8.0,0.0
15622,69.0,13.0,15.0,10.0,0.0
15623,62.0,0.0,60.0,7.0,0.0
15624,38.0,60.0,60.0,7.0,0.0
15625,86.0,2.0,120.0,8.0,0.0
15626,50.0,0.0,60.0,7.0,0.0
15627,74.0,43.0,120.0,10.0,0.0
15628,52.0,0.0,60.0,7.0,0.0
15629,64.0,15.0,60.0,7.0,0.0
15630,40.0,0.0,60.0,7.0,0.0
15631,54.0,0.0,60.0,7.0,0.0
15632,42.0,0.0,60.0,7.0,0.0
15633,66.0,0.0,60.0,7.0,0.0
15634,85.0,2.0,60.0,8.0,0.0
15635,73.0,58.0,60.0,10.0,0.0
15636,83.0,0.0,60.0,8.0,0.0
15637,43.0,2.0,60.0,7.0,0.0
15638,55.0,0.0,60.0,7.0,0.0
15639,67.0,0.0,60.0,7.0,0.0
15640,71.0,58.0,60.0,10.0,0.0
15641,45.0,0.0,60.0,7.0,0.0
15642,57.0,2.0,60.0,7.0,0.0
15643,69.0,0.0,60.0,7.0,0.0
15644,81.0,0.0,60.0,8.0,0.0
15645,69.0,58.0,60.0,10.0,0.0
15646,79.0,2.0,60.0,8.0,0.0
15647,59.0,0.0,60.0,7.0,0.0
15648,47.0,0.0,60.0,7.0,0.0
15649,71.0,0.0,60.0,7.0,0.0
15650,67.0,58.0,60.0,10.0,0.0
15651,48.0,0.0,60.0,7.0,0.0
15652,60.0,2.0,60.0,7.0,0.0
15653,72.0,0.0,60.0,7.0,0.0
15654,78.0,0.0,60.0,8.0,0.0
15655,66.0,3.0,60.0,10.0,0.0
15656,66.0,2.0,60.0,12.0,0.0
15657,54.0,53.0,60.0,13.0,0.0
15658,61.0,0.0,60.0,7.0,0.0
15659,73.0,0.0,60.0,7.0,0.0
15660,49.0,0.0,60.0,7.0,0.0
15661,76.0,2.0,60.0,8.0,0.0
15662,64.0,3.0,60.0,10.0,0.0
15663,64.0,2.0,60.0,12.0,0.0
15664,52.0,53.0,60.0,13.0,0.0
15665,50.0,5.0,60.0,7.0,0.0
15666,62.0,0.0,60.0,7.0,0.0
15667,74.0,0.0,60.0,7.0,0.0
15668,74.0,0.0,60.0,8.0,0.0
15669,62.0,43.0,120.0,10.0,0.0
15670,62.0,2.0,60.0,12.0,0.0
15671,50.0,53.0,60.0,13.0,0.0
15672,64.0,0.0,60.0,7.0,0.0
15673,76.0,0.0,60.0,7.0,0.0
15674,73.0,0.0,60.0,8.0,0.0
15675,52.0,5.0,60.0,7.0,0.0
15676,61.0,2.0,60.0,12.0,0.0
15677,49.0,10.0,60.0,13.0,0.0
15678,71.0,5.0,60.0,8.0,0.0
15679,53.0,0.0,60.0,7.0,0.0
15680,65.0,0.0,60.0,7.0,0.0
15681,77.0,0.0,60.0,7.0,0.0
15682,59.0,2.0,60.0,12.0,0.0
15683,47.0,53.0,60.0,13.0,0.0
15684,66.0,0.0,60.0,7.0,0.0
15685,69.0,5.0,60.0,8.0,0.0
15686,78.0,0.0,60.0,7.0,0.0
15687,54.0,0.0,60.0,7.0,0.0
15688,57.0,2.0,60.0,12.0,0.0
15689,45.0,53.0,60.0,13.0,0.0
15690,67.0,0.0,60.0,7.0,0.0
15691,79.0,0.0,60.0,7.0,0.0
15692,55.0,0.0,60.0,7.0,0.0
15693,67.0,5.0,60.0,8.0,0.0
15694,55.0,2.0,60.0,12.0,0.0
15695,43.0,53.0,60.0,13.0,0.0
15696,66.0,5.0,60.0,8.0,0.0
15697,80.0,0.0,60.0,7.0,0.0
15698,68.0,0.0,60.0,7.0,0.0
15699,56.0,0.0,60.0,7.0,0.0
15700,54.0,2.0,60.0,12.0,0.0
15701,42.0,14.0,60.0,13.0,0.0
15702,57.0,5.0,60.0,7.0,0.0
15703,69.0,0.0,60.0,7.0,0.0
15704,81.0,0.0,60.0,7.0,0.0
15705,64.0,0.0,60.0,8.0,0.0
15706,52.0,2.0,60.0,12.0,0.0
15707,50.0,39.0,15.0,3.0,0.0
15708,40.0,44.0,60.0,13.0,0.0
15709,62.0,0.0,60.0,8.0,0.0
15710,83.0,5.0,60.0,7.0,0.0
15711,59.0,0.0,60.0,7.0,0.0
15712,71.0,0.0,60.0,7.0,0.0
15713,50.0,2.0,60.0,12.0,0.0
15714,38.0,14.0,60.0,13.0,0.0
15715,50.0,114.0,30.0,3.0,0.0
15716,63.0,5.0,120.0,8.0,0.0
15717,60.0,0.0,180.0,7.0,0.0
15718,72.0,0.0,180.0,7.0,0.0
15719,84.0,45.0,180.0,7.0,0.0
15720,51.0,2.0,120.0,12.0,0.0
15721,51.0,39.0,840.0,3.0,0.0
15722,39.0,53.0,120.0,13.0,0.0
15723,83.0,0.0,60.0,7.0,0.0
15724,71.0,0.0,60.0,7.0,0.0
15725,59.0,60.0,60.0,7.0,0.0
15726,57.0,0.0,60.0,7.0,0.0
15727,69.0,0.0,60.0,7.0,0.0
15728,81.0,60.0,60.0,7.0,0.0
15729,55.0,0.0,60.0,7.0,0.0
15730,79.0,60.0,60.0,7.0,0.0
15731,67.0,0.0,60.0,7.0,0.0
15732,78.0,60.0,60.0,7.0,0.0
15733,54.0,0.0,60.0,7.0,0.0
15734,66.0,0.0,60.0,7.0,0.0
15735,52.0,0.0,60.0,7.0,0.0
15736,76.0,60.0,60.0,7.0,0.0
15737,64.0,0.0,60.0,7.0,0.0
15738,51.0,0.0,60.0,7.0,0.0
15739,63.0,60.0,60.0,7.0,0.0
15740,75.0,0.0,60.0,7.0,0.0
15741,48.0,60.0,60.0,7.0,0.0
15742,60.0,0.0,60.0,7.0,0.0
15743,72.0,0.0,60.0,7.0,0.0
15744,71.0,0.0,60.0,7.0,0.0
15745,47.0,0.0,60.0,7.0,0.0
15746,59.0,60.0,60.0,7.0,0.0
15747,45.0,60.0,60.0,7.0,0.0
15748,57.0,0.0,60.0,7.0,0.0
15749,69.0,0.0,60.0,7.0,0.0
15750,55.0,0.0,60.0,7.0,0.0
15751,43.0,0.0,60.0,7.0,0.0
15752,67.0,60.0,60.0,7.0,0.0
15753,42.0,0.0,60.0,7.0,0.0
15754,54.0,0.0,60.0,7.0,0.0
15755,66.0,21.0,60.0,7.0,0.0
15756,64.0,45.0,60.0,7.0,0.0
15757,52.0,0.0,60.0,7.0,0.0
15758,40.0,0.0,60.0,7.0,0.0
15759,39.0,0.0,60.0,7.0,0.0
15760,51.0,0.0,60.0,7.0,0.0
15761,63.0,15.0,60.0,7.0,0.0
15762,83.0,2.0,15.0,8.0,0.0
15763,71.0,4.0,15.0,10.0,0.0
15764,51.0,9.0,15.0,3.0,0.0
15765,40.0,60.0,60.0,7.0,0.0
15766,52.0,0.0,60.0,7.0,0.0
15767,64.0,0.0,60.0,7.0,0.0
15768,88.0,2.0,120.0,8.0,0.0
15769,76.0,43.0,120.0,10.0,0.0
15770,66.0,15.0,60.0,7.0,0.0
15771,54.0,0.0,60.0,7.0,0.0
15772,42.0,0.0,60.0,7.0,0.0
15773,68.0,2.0,60.0,7.0,0.0
15774,56.0,0.0,60.0,7.0,0.0
15775,44.0,0.0,60.0,7.0,0.0
15776,87.0,0.0,60.0,8.0,0.0
15777,75.0,58.0,60.0,10.0,0.0
15778,85.0,0.0,60.0,8.0,0.0
15779,69.0,2.0,60.0,7.0,0.0
15780,57.0,0.0,60.0,7.0,0.0
15781,45.0,0.0,60.0,7.0,0.0
15782,73.0,58.0,60.0,10.0,0.0
15783,83.0,0.0,60.0,8.0,0.0
15784,47.0,0.0,60.0,7.0,0.0
15785,71.0,2.0,60.0,7.0,0.0
15786,59.0,0.0,60.0,7.0,0.0
15787,71.0,58.0,60.0,10.0,0.0
15788,49.0,2.0,60.0,7.0,0.0
15789,61.0,0.0,60.0,7.0,0.0
15790,73.0,0.0,60.0,7.0,0.0
15791,81.0,0.0,60.0,8.0,0.0
15792,69.0,58.0,60.0,10.0,0.0
15793,75.0,0.0,60.0,7.0,0.0
15794,80.0,2.0,60.0,8.0,0.0
15795,51.0,0.0,60.0,7.0,0.0
15796,63.0,0.0,60.0,7.0,0.0
15797,68.0,3.0,60.0,10.0,0.0
15798,68.0,2.0,60.0,12.0,0.0
15799,56.0,53.0,60.0,13.0,0.0
15800,78.0,0.0,60.0,8.0,0.0
15801,76.0,0.0,60.0,7.0,0.0
15802,64.0,0.0,60.0,7.0,0.0
15803,52.0,2.0,60.0,7.0,0.0
15804,66.0,3.0,60.0,10.0,0.0
15805,66.0,2.0,60.0,12.0,0.0
15806,54.0,53.0,60.0,13.0,0.0
15807,78.0,0.0,60.0,7.0,0.0
15808,76.0,5.0,60.0,8.0,0.0
15809,54.0,0.0,60.0,7.0,0.0
15810,66.0,0.0,60.0,7.0,0.0
15811,64.0,43.0,120.0,10.0,0.0
15812,64.0,2.0,60.0,12.0,0.0
15813,52.0,53.0,60.0,13.0,0.0
15814,75.0,0.0,60.0,8.0,0.0
15815,56.0,5.0,60.0,7.0,0.0
15816,68.0,0.0,60.0,7.0,0.0
15817,80.0,0.0,60.0,7.0,0.0
15818,63.0,2.0,60.0,12.0,0.0
15819,51.0,10.0,60.0,13.0,0.0
15820,73.0,5.0,60.0,8.0,0.0
15821,69.0,0.0,60.0,7.0,0.0
15822,81.0,0.0,60.0,7.0,0.0
15823,57.0,0.0,60.0,7.0,0.0
15824,61.0,2.0,60.0,12.0,0.0
15825,49.0,53.0,60.0,13.0,0.0
15826,71.0,0.0,60.0,8.0,0.0
15827,58.0,0.0,60.0,7.0,0.0
15828,70.0,5.0,60.0,7.0,0.0
15829,82.0,0.0,60.0,7.0,0.0
15830,59.0,2.0,60.0,12.0,0.0
15831,47.0,53.0,60.0,13.0,0.0
15832,59.0,0.0,60.0,7.0,0.0
15833,71.0,0.0,60.0,7.0,0.0
15834,69.0,5.0,60.0,8.0,0.0
15835,83.0,0.0,60.0,7.0,0.0
15836,57.0,2.0,60.0,12.0,0.0
15837,45.0,53.0,60.0,13.0,0.0
15838,68.0,0.0,60.0,8.0,0.0
15839,85.0,5.0,60.0,7.0,0.0
15840,73.0,0.0,60.0,7.0,0.0
15841,61.0,0.0,60.0,7.0,0.0
15842,56.0,2.0,60.0,12.0,0.0
15843,44.0,14.0,60.0,13.0,0.0
15844,86.0,0.0,60.0,7.0,0.0
15845,62.0,5.0,60.0,7.0,0.0
15846,74.0,0.0,60.0,7.0,0.0
15847,66.0,0.0,60.0,8.0,0.0
15848,54.0,2.0,60.0,12.0,0.0
15849,52.0,39.0,15.0,3.0,0.0
15850,42.0,44.0,60.0,13.0,0.0
15851,62.0,0.0,60.0,7.0,0.0
15852,74.0,0.0,60.0,7.0,0.0
15853,86.0,5.0,60.0,7.0,0.0
15854,64.0,0.0,60.0,8.0,0.0
15855,52.0,2.0,60.0,12.0,0.0
15856,40.0,14.0,60.0,13.0,0.0
15857,52.0,114.0,30.0,3.0,0.0
15858,65.0,5.0,120.0,8.0,0.0
15859,86.0,0.0,180.0,7.0,0.0
15860,74.0,0.0,180.0,7.0,0.0
15861,62.0,45.0,180.0,7.0,0.0
15862,53.0,2.0,120.0,12.0,0.0
15863,41.0,53.0,120.0,13.0,0.0
15864,61.0,60.0,60.0,7.0,0.0
15865,73.0,0.0,60.0,7.0,0.0
15866,85.0,0.0,60.0,7.0,0.0
15867,83.0,60.0,60.0,7.0,0.0
15868,71.0,0.0,60.0,7.0,0.0
15869,59.0,0.0,60.0,7.0,0.0
15870,57.0,0.0,60.0,7.0,0.0
15871,69.0,0.0,60.0,7.0,0.0
15872,81.0,60.0,60.0,7.0,0.0
15873,68.0,60.0,60.0,7.0,0.0
15874,56.0,0.0,60.0,7.0,0.0
15875,80.0,0.0,60.0,7.0,0.0
15876,78.0,0.0,60.0,7.0,0.0
15877,66.0,60.0,60.0,7.0,0.0
15878,54.0,0.0,60.0,7.0,0.0
15879,77.0,0.0,60.0,7.0,0.0
15880,65.0,60.0,60.0,7.0,0.0
15881,53.0,0.0,60.0,7.0,0.0
15882,50.0,0.0,60.0,7.0,0.0
15883,62.0,0.0,60.0,7.0,0.0
15884,74.0,60.0,60.0,7.0,0.0
15885,73.0,0.0,60.0,7.0,0.0
15886,61.0,60.0,60.0,7.0,0.0
15887,49.0,0.0,60.0,7.0,0.0
15888,47.0,0.0,60.0,7.0,0.0
15889,71.0,0.0,60.0,7.0,0.0
15890,59.0,60.0,60.0,7.0,0.0
15891,45.0,0.0,60.0,7.0,0.0
15892,57.0,0.0,60.0,7.0,0.0
15893,69.0,60.0,60.0,7.0,0.0
15894,68.0,0.0,60.0,7.0,0.0
15895,44.0,0.0,60.0,7.0,0.0
15896,56.0,21.0,60.0,7.0,0.0
15897,66.0,0.0,60.0,7.0,0.0
15898,54.0,45.0,60.0,7.0,0.0
15899,42.0,0.0,60.0,7.0,0.0
15900,85.0,2.0,90.0,8.0,0.0
15901,73.0,4.0,90.0,10.0,0.0
15902,53.0,39.0,15.0,3.0,0.0
15903,65.0,15.0,60.0,7.0,0.0
15904,53.0,0.0,60.0,7.0,0.0
15905,41.0,0.0,60.0,7.0,0.0
15906,85.0,2.0,30.0,8.0,0.0
15907,73.0,4.0,30.0,10.0,0.0
15908,53.0,9.0,15.0,3.0,0.0
15909,42.0,0.0,60.0,7.0,0.0
15910,54.0,60.0,60.0,7.0,0.0
15911,66.0,0.0,60.0,7.0,0.0
15912,90.0,2.0,120.0,8.0,0.0
15913,78.0,43.0,120.0,10.0,0.0
15914,44.0,0.0,60.0,7.0,0.0
15915,56.0,0.0,60.0,7.0,0.0
15916,68.0,15.0,60.0,7.0,0.0
15917,88.0,0.0,60.0,8.0,0.0
15918,45.0,2.0,60.0,7.0,0.0
15919,57.0,0.0,60.0,7.0,0.0
15920,69.0,0.0,60.0,7.0,0.0
15921,76.0,58.0,60.0,10.0,0.0
15922,47.0,0.0,60.0,7.0,0.0
15923,59.0,0.0,60.0,7.0,0.0
15924,71.0,0.0,60.0,7.0,0.0
15925,86.0,2.0,60.0,8.0,0.0
15926,74.0,58.0,60.0,10.0,0.0
15927,73.0,0.0,60.0,7.0,0.0
15928,49.0,0.0,60.0,7.0,0.0
15929,85.0,2.0,60.0,8.0,0.0
15930,61.0,0.0,60.0,7.0,0.0
15931,73.0,58.0,60.0,10.0,0.0
15932,63.0,0.0,60.0,7.0,0.0
15933,83.0,2.0,60.0,8.0,0.0
15934,51.0,0.0,60.0,7.0,0.0
15935,75.0,0.0,60.0,7.0,0.0
15936,71.0,19.0,60.0,10.0,0.0
15937,52.0,0.0,60.0,7.0,0.0
15938,64.0,0.0,60.0,7.0,0.0
15939,76.0,0.0,60.0,7.0,0.0
15940,81.0,2.0,60.0,8.0,0.0
15941,69.0,3.0,60.0,10.0,0.0
15942,69.0,2.0,60.0,12.0,0.0
15943,54.0,39.0,15.0,3.0,0.0
15944,57.0,44.0,60.0,13.0,0.0
15945,80.0,2.0,60.0,8.0,0.0
15946,53.0,0.0,60.0,7.0,0.0
15947,65.0,0.0,60.0,7.0,0.0
15948,77.0,0.0,60.0,7.0,0.0
15949,68.0,3.0,60.0,10.0,0.0
15950,68.0,2.0,60.0,12.0,0.0
15951,56.0,14.0,60.0,13.0,0.0
15952,54.0,9.0,15.0,3.0,0.0
15953,78.0,0.0,60.0,7.0,0.0
15954,54.0,0.0,60.0,7.0,0.0
15955,78.0,5.0,60.0,8.0,0.0
15956,66.0,0.0,60.0,7.0,0.0
15957,66.0,4.0,120.0,10.0,0.0
15958,66.0,2.0,60.0,12.0,0.0
15959,54.0,39.0,15.0,3.0,0.0
15960,54.0,53.0,60.0,13.0,0.0
15961,56.0,0.0,60.0,7.0,0.0
15962,80.0,0.0,60.0,7.0,0.0
15963,76.0,5.0,60.0,8.0,0.0
15964,68.0,0.0,60.0,7.0,0.0
15965,64.0,2.0,60.0,12.0,0.0
15966,52.0,10.0,60.0,13.0,0.0
15967,81.0,0.0,60.0,7.0,0.0
15968,69.0,0.0,60.0,7.0,0.0
15969,57.0,0.0,60.0,7.0,0.0
15970,74.0,5.0,60.0,8.0,0.0
15971,62.0,2.0,60.0,12.0,0.0
15972,50.0,44.0,60.0,13.0,0.0
15973,83.0,0.0,60.0,7.0,0.0
15974,71.0,0.0,60.0,7.0,0.0
15975,59.0,0.0,60.0,7.0,0.0
15976,73.0,5.0,60.0,8.0,0.0
15977,61.0,2.0,60.0,12.0,0.0
15978,49.0,14.0,60.0,13.0,0.0
15979,54.0,9.0,15.0,3.0,0.0
15980,73.0,0.0,60.0,7.0,0.0
15981,85.0,5.0,60.0,7.0,0.0
15982,71.0,0.0,60.0,8.0,0.0
15983,61.0,0.0,60.0,7.0,0.0
15984,59.0,2.0,60.0,12.0,0.0
15985,54.0,39.0,15.0,3.0,0.0
15986,47.0,53.0,60.0,13.0,0.0
15987,87.0,5.0,60.0,7.0,0.0
15988,63.0,0.0,60.0,7.0,0.0
15989,75.0,0.0,60.0,7.0,0.0
15990,69.0,0.0,60.0,8.0,0.0
15991,57.0,2.0,60.0,12.0,0.0
15992,45.0,14.0,60.0,13.0,0.0
15993,68.0,5.0,60.0,8.0,0.0
15994,76.0,0.0,60.0,7.0,0.0
15995,64.0,0.0,60.0,7.0,0.0
15996,88.0,0.0,60.0,7.0,0.0
15997,56.0,2.0,60.0,12.0,0.0
15998,54.0,39.0,15.0,3.0,0.0
15999,44.0,44.0,60.0,13.0,0.0
16000,65.0,0.0,60.0,7.0,0.0
16001,66.0,0.0,60.0,8.0,0.0
16002,89.0,0.0,60.0,7.0,0.0
16003,77.0,5.0,60.0,7.0,0.0
16004,54.0,2.0,60.0,12.0,0.0
16005,42.0,14.0,60.0,13.0,0.0
16006,54.0,9.0,15.0,3.0,0.0
16007,66.0,60.0,60.0,7.0,0.0
16008,90.0,0.0,60.0,7.0,0.0
16009,78.0,0.0,60.0,7.0,0.0
16010,64.0,5.0,120.0,8.0,0.0
16011,52.0,2.0,120.0,12.0,0.0
16012,40.0,38.0,120.0,13.0,0.0
16013,64.0,15.0,60.0,7.0,0.0
16014,76.0,0.0,60.0,7.0,0.0
16015,88.0,0.0,60.0,7.0,0.0
16016,62.0,60.0,60.0,7.0,0.0
16017,86.0,0.0,60.0,7.0,0.0
16018,74.0,0.0,60.0,7.0,0.0
16019,85.0,0.0,60.0,7.0,0.0
16020,73.0,0.0,60.0,7.0,0.0
16021,61.0,60.0,60.0,7.0,0.0
16022,59.0,60.0,60.0,7.0,0.0
16023,71.0,0.0,60.0,7.0,0.0
16024,83.0,0.0,60.0,7.0,0.0
16025,70.0,0.0,60.0,7.0,0.0
16026,58.0,0.0,60.0,7.0,0.0
16027,82.0,21.0,60.0,7.0,0.0
16028,55.0,0.0,60.0,7.0,0.0
16029,67.0,0.0,60.0,7.0,0.0
16030,79.0,51.0,60.0,7.0,0.0
16031,52.0,39.0,15.0,3.0,0.0
16032,66.0,0.0,60.0,7.0,0.0
16033,78.0,0.0,60.0,7.0,0.0
16034,54.0,21.0,60.0,7.0,0.0
16035,52.0,39.0,30.0,3.0,0.0
16036,52.0,0.0,60.0,7.0,0.0
16037,64.0,60.0,60.0,7.0,0.0
16038,76.0,0.0,60.0,7.0,0.0
16039,74.0,0.0,60.0,7.0,0.0
16040,62.0,0.0,60.0,7.0,0.0
16041,50.0,21.0,60.0,7.0,0.0
16042,61.0,0.0,60.0,7.0,0.0
16043,73.0,0.0,60.0,7.0,0.0
16044,49.0,51.0,60.0,7.0,0.0
16045,52.0,39.0,15.0,3.0,0.0
16046,59.0,0.0,60.0,7.0,0.0
16047,71.0,21.0,60.0,7.0,0.0
16048,47.0,0.0,60.0,7.0,0.0
16049,46.0,60.0,60.0,7.0,0.0
16050,70.0,0.0,60.0,7.0,0.0
16051,58.0,0.0,60.0,7.0,0.0
16052,52.0,39.0,15.0,3.0,0.0
16053,43.0,21.0,60.0,7.0,0.0
16054,55.0,0.0,60.0,7.0,0.0
16055,67.0,0.0,60.0,7.0,0.0
16056,66.0,0.0,60.0,7.0,0.0
16057,54.0,0.0,60.0,7.0,0.0
16058,42.0,51.0,60.0,7.0,0.0
16059,52.0,9.0,90.0,3.0,0.0
16060,53.0,0.0,60.0,7.0,0.0
16061,65.0,21.0,60.0,7.0,0.0
16062,41.0,0.0,60.0,7.0,0.0
16063,52.0,39.0,30.0,3.0,0.0
16064,64.0,60.0,60.0,7.0,0.0
16065,52.0,0.0,60.0,7.0,0.0
16066,40.0,0.0,60.0,7.0,0.0
16067,86.0,2.0,120.0,8.0,0.0
16068,74.0,43.0,120.0,10.0,0.0
16069,50.0,39.0,360.0,3.0,0.0
16070,62.0,0.0,60.0,7.0,0.0
16071,38.0,15.0,60.0,7.0,0.0
16072,50.0,0.0,60.0,7.0,0.0
16073,40.0,0.0,60.0,7.0,0.0
16074,52.0,2.0,60.0,7.0,0.0
16075,64.0,0.0,60.0,7.0,0.0
16076,85.0,0.0,60.0,8.0,0.0
16077,73.0,58.0,60.0,10.0,0.0
16078,42.0,0.0,60.0,7.0,0.0
16079,83.0,0.0,60.0,8.0,0.0
16080,54.0,0.0,60.0,7.0,0.0
16081,66.0,2.0,60.0,7.0,0.0
16082,71.0,58.0,60.0,10.0,0.0
16083,56.0,0.0,60.0,7.0,0.0
16084,68.0,0.0,60.0,7.0,0.0
16085,82.0,2.0,60.0,8.0,0.0
16086,44.0,0.0,60.0,7.0,0.0
16087,70.0,58.0,60.0,10.0,0.0
16088,79.0,2.0,60.0,8.0,0.0
16089,46.0,0.0,60.0,7.0,0.0
16090,70.0,0.0,60.0,7.0,0.0
16091,58.0,0.0,60.0,7.0,0.0
16092,67.0,19.0,60.0,10.0,0.0
16093,59.0,0.0,60.0,7.0,0.0
16094,47.0,2.0,60.0,7.0,0.0
16095,71.0,0.0,60.0,7.0,0.0
16096,78.0,0.0,60.0,8.0,0.0
16097,66.0,3.0,60.0,10.0,0.0
16098,66.0,2.0,60.0,12.0,0.0
16099,54.0,44.0,60.0,13.0,0.0
16100,76.0,2.0,60.0,8.0,0.0
16101,73.0,0.0,60.0,7.0,0.0
16102,49.0,0.0,60.0,7.0,0.0
16103,61.0,0.0,60.0,7.0,0.0
16104,64.0,3.0,60.0,10.0,0.0
16105,64.0,2.0,60.0,12.0,0.0
16106,52.0,14.0,60.0,13.0,0.0
16107,50.0,9.0,15.0,3.0,0.0
16108,50.0,0.0,60.0,7.0,0.0
16109,62.0,0.0,60.0,7.0,0.0
16110,74.0,0.0,60.0,7.0,0.0
16111,74.0,5.0,60.0,8.0,0.0
16112,62.0,4.0,120.0,10.0,0.0
16113,62.0,2.0,60.0,12.0,0.0
16114,50.0,39.0,15.0,3.0,0.0
16115,50.0,53.0,60.0,13.0,0.0
16116,52.0,0.0,60.0,7.0,0.0
16117,64.0,0.0,60.0,7.0,0.0
16118,76.0,0.0,60.0,7.0,0.0
16119,73.0,5.0,60.0,8.0,0.0
16120,61.0,2.0,60.0,12.0,0.0
16121,49.0,10.0,60.0,13.0,0.0
16122,66.0,0.0,60.0,7.0,0.0
16123,71.0,0.0,60.0,8.0,0.0
16124,54.0,5.0,60.0,7.0,0.0
16125,78.0,0.0,60.0,7.0,0.0
16126,59.0,2.0,60.0,12.0,0.0
16127,50.0,39.0,15.0,3.0,0.0
16128,47.0,44.0,60.0,13.0,0.0
16129,67.0,0.0,60.0,7.0,0.0
16130,79.0,5.0,60.0,7.0,0.0
16131,70.0,0.0,60.0,8.0,0.0
16132,55.0,0.0,60.0,7.0,0.0
16133,58.0,2.0,60.0,12.0,0.0
16134,46.0,14.0,60.0,13.0,0.0
16135,50.0,39.0,30.0,3.0,0.0
16136,82.0,0.0,60.0,7.0,0.0
16137,70.0,5.0,60.0,7.0,0.0
16138,58.0,0.0,60.0,7.0,0.0
16139,67.0,0.0,60.0,8.0,0.0
16140,55.0,2.0,60.0,12.0,0.0
16141,43.0,53.0,60.0,13.0,0.0
16142,83.0,0.0,60.0,7.0,0.0
16143,59.0,5.0,60.0,7.0,0.0
16144,71.0,0.0,60.0,7.0,0.0
16145,66.0,0.0,60.0,8.0,0.0
16146,54.0,2.0,60.0,12.0,0.0
16147,42.0,14.0,60.0,13.0,0.0
16148,84.0,0.0,60.0,7.0,0.0
16149,72.0,5.0,60.0,7.0,0.0
16150,64.0,0.0,60.0,8.0,0.0
16151,60.0,0.0,60.0,7.0,0.0
16152,52.0,2.0,60.0,12.0,0.0
16153,50.0,39.0,15.0,3.0,0.0
16154,40.0,44.0,60.0,13.0,0.0
16155,61.0,0.0,60.0,7.0,0.0
16156,62.0,5.0,60.0,8.0,0.0
16157,73.0,0.0,60.0,7.0,0.0
16158,85.0,0.0,60.0,7.0,0.0
16159,50.0,2.0,60.0,12.0,0.0
16160,38.0,14.0,60.0,13.0,0.0
16161,50.0,9.0,15.0,3.0,0.0
16162,62.0,60.0,60.0,7.0,0.0
16163,74.0,0.0,60.0,7.0,0.0
16164,86.0,0.0,60.0,7.0,0.0
16165,61.0,5.0,120.0,8.0,0.0
16166,49.0,2.0,120.0,12.0,0.0
16167,37.0,38.0,120.0,13.0,0.0
16168,85.0,15.0,60.0,7.0,0.0
16169,61.0,0.0,60.0,7.0,0.0
16170,73.0,0.0,60.0,7.0,0.0
16171,59.0,0.0,60.0,7.0,0.0
16172,71.0,0.0,60.0,7.0,0.0
16173,83.0,60.0,60.0,7.0,0.0
16174,58.0,0.0,60.0,7.0,0.0
16175,82.0,60.0,60.0,7.0,0.0
16176,70.0,0.0,60.0,7.0,0.0
16177,67.0,0.0,60.0,7.0,0.0
16178,55.0,0.0,60.0,7.0,0.0
16179,79.0,60.0,60.0,7.0,0.0
16180,78.0,21.0,60.0,7.0,0.0
16181,66.0,0.0,60.0,7.0,0.0
16182,54.0,0.0,60.0,7.0,0.0
16183,76.0,51.0,60.0,7.0,0.0
16184,64.0,0.0,60.0,7.0,0.0
16185,52.0,0.0,60.0,7.0,0.0
16186,49.0,39.0,15.0,3.0,0.0
16187,74.0,0.0,60.0,7.0,0.0
16188,62.0,0.0,60.0,7.0,0.0
16189,50.0,21.0,60.0,7.0,0.0
16190,49.0,0.0,60.0,7.0,0.0
16191,61.0,0.0,60.0,7.0,0.0
16192,73.0,60.0,60.0,7.0,0.0
16193,49.0,39.0,15.0,3.0,0.0
16194,47.0,21.0,60.0,7.0,0.0
16195,59.0,0.0,60.0,7.0,0.0
16196,71.0,0.0,60.0,7.0,0.0
16197,70.0,51.0,60.0,7.0,0.0
16198,58.0,0.0,60.0,7.0,0.0
16199,46.0,0.0,60.0,7.0,0.0
16200,49.0,9.0,90.0,3.0,0.0
16201,67.0,0.0,60.0,7.0,0.0
16202,55.0,0.0,60.0,7.0,0.0
16203,43.0,21.0,60.0,7.0,0.0
16204,66.0,60.0,60.0,7.0,0.0
16205,42.0,0.0,60.0,7.0,0.0
16206,54.0,0.0,60.0,7.0,0.0
16207,49.0,39.0,15.0,3.0,0.0
16208,64.0,0.0,60.0,7.0,0.0
16209,52.0,0.0,60.0,7.0,0.0
16210,40.0,21.0,60.0,7.0,0.0
16211,62.0,51.0,60.0,7.0,0.0
16212,50.0,0.0,60.0,7.0,0.0
16213,38.0,0.0,60.0,7.0,0.0
16214,49.0,0.0,60.0,7.0,0.0
16215,61.0,0.0,60.0,7.0,0.0
16216,37.0,21.0,60.0,7.0,0.0
16217,49.0,9.0,15.0,3.0,0.0
16218,83.0,45.0,120.0,8.0,0.0
16219,35.0,0.0,60.0,7.0,0.0
16220,47.0,0.0,60.0,7.0,0.0
16221,59.0,60.0,60.0,7.0,0.0
16222,49.0,0.0,60.0,7.0,0.0
16223,37.0,15.0,60.0,7.0,0.0
16224,61.0,0.0,60.0,7.0,0.0
16225,39.0,0.0,60.0,7.0,0.0
16226,51.0,60.0,60.0,7.0,0.0
16227,63.0,0.0,60.0,7.0,0.0
16228,81.0,0.0,60.0,8.0,0.0
16229,52.0,0.0,60.0,7.0,0.0
16230,79.0,0.0,60.0,8.0,0.0
16231,40.0,0.0,60.0,7.0,0.0
16232,64.0,60.0,60.0,7.0,0.0
16233,78.0,0.0,60.0,8.0,0.0
16234,42.0,0.0,60.0,7.0,0.0
16235,54.0,0.0,60.0,7.0,0.0
16236,66.0,60.0,60.0,7.0,0.0
16237,67.0,0.0,60.0,7.0,0.0
16238,55.0,0.0,60.0,7.0,0.0
16239,43.0,60.0,60.0,7.0,0.0
16240,76.0,0.0,60.0,8.0,0.0
16241,69.0,60.0,60.0,7.0,0.0
16242,75.0,0.0,60.0,8.0,0.0
16243,45.0,0.0,60.0,7.0,0.0
16244,57.0,0.0,60.0,7.0,0.0
16245,70.0,0.0,60.0,7.0,0.0
16246,73.0,60.0,60.0,8.0,0.0
16247,58.0,0.0,60.0,7.0,0.0
16248,46.0,0.0,60.0,7.0,0.0
16249,71.0,0.0,60.0,7.0,0.0
16250,59.0,0.0,60.0,7.0,0.0
16251,47.0,60.0,60.0,7.0,0.0
16252,71.0,2.0,120.0,8.0,0.0
16253,71.0,43.0,120.0,10.0,0.0
16254,49.0,0.0,60.0,7.0,0.0
16255,61.0,15.0,60.0,7.0,0.0
16256,73.0,0.0,60.0,7.0,0.0
16257,51.0,0.0,60.0,7.0,0.0
16258,75.0,2.0,60.0,7.0,0.0
16259,63.0,0.0,60.0,7.0,0.0
16260,69.0,58.0,60.0,10.0,0.0
16261,52.0,2.0,60.0,7.0,0.0
16262,76.0,0.0,60.0,7.0,0.0
16263,64.0,0.0,60.0,7.0,0.0
16264,67.0,58.0,60.0,10.0,0.0
16265,54.0,0.0,60.0,7.0,0.0
16266,78.0,0.0,60.0,7.0,0.0
16267,66.0,2.0,60.0,7.0,0.0
16268,66.0,58.0,60.0,10.0,0.0
16269,79.0,0.0,60.0,7.0,0.0
16270,67.0,2.0,60.0,7.0,0.0
16271,55.0,0.0,60.0,7.0,0.0
16272,64.0,58.0,60.0,10.0,0.0
16273,81.0,0.0,60.0,7.0,0.0
16274,57.0,0.0,60.0,7.0,0.0
16275,69.0,2.0,60.0,7.0,0.0
16276,63.0,58.0,60.0,10.0,0.0
16277,82.0,0.0,60.0,7.0,0.0
16278,70.0,2.0,60.0,7.0,0.0
16279,58.0,0.0,60.0,7.0,0.0
16280,61.0,58.0,60.0,10.0,0.0
16281,59.0,0.0,60.0,7.0,0.0
16282,71.0,0.0,60.0,7.0,0.0
16283,83.0,60.0,60.0,7.0,0.0
16284,59.0,3.0,120.0,10.0,0.0
16285,59.0,2.0,120.0,12.0,0.0
16286,47.0,38.0,120.0,13.0,0.0
16287,73.0,17.0,60.0,7.0,0.0
16288,61.0,0.0,60.0,7.0,0.0
16289,85.0,0.0,60.0,7.0,0.0
16290,63.0,0.0,60.0,7.0,0.0
16291,75.0,0.0,60.0,7.0,0.0
16292,87.0,5.0,60.0,7.0,0.0
16293,57.0,2.0,60.0,12.0,0.0
16294,45.0,53.0,60.0,13.0,0.0
16295,64.0,0.0,60.0,7.0,0.0
16296,76.0,0.0,60.0,7.0,0.0
16297,88.0,5.0,60.0,7.0,0.0
16298,55.0,2.0,60.0,12.0,0.0
16299,43.0,53.0,60.0,13.0,0.0
16300,78.0,5.0,60.0,7.0,0.0
16301,66.0,0.0,60.0,7.0,0.0
16302,90.0,0.0,60.0,7.0,0.0
16303,54.0,2.0,60.0,12.0,0.0
16304,42.0,53.0,60.0,13.0,0.0
16305,67.0,0.0,60.0,7.0,0.0
16306,91.0,5.0,60.0,7.0,0.0
16307,79.0,0.0,60.0,7.0,0.0
16308,52.0,2.0,60.0,12.0,0.0
16309,40.0,53.0,60.0,13.0,0.0
16310,93.0,0.0,60.0,7.0,0.0
16311,81.0,0.0,60.0,7.0,0.0
16312,69.0,5.0,60.0,7.0,0.0
16313,51.0,2.0,60.0,12.0,0.0
16314,39.0,53.0,60.0,13.0,0.0
16315,82.0,5.0,60.0,7.0,0.0
16316,94.0,0.0,60.0,7.0,0.0
16317,70.0,0.0,60.0,7.0,0.0
16318,49.0,2.0,60.0,12.0,0.0
16319,37.0,53.0,60.0,13.0,0.0
16320,95.0,60.0,60.0,7.0,0.0
16321,83.0,0.0,60.0,7.0,0.0
16322,71.0,0.0,60.0,7.0,0.0
16323,47.0,1.0,120.0,12.0,0.0
16324,35.0,38.0,120.0,13.0,0.0
16325,97.0,0.0,60.0,7.0,0.0
16326,85.0,0.0,60.0,7.0,0.0
16327,73.0,20.0,60.0,7.0,0.0
16328,69.0,2.0,120.0,8.0,0.0
16329,75.0,0.0,60.0,7.0,0.0
16330,87.0,0.0,60.0,7.0,0.0
16331,99.0,51.0,60.0,7.0,0.0
16332,66.0,2.0,120.0,10.0,0.0
16333,47.0,1.0,15.0,3.0,0.0
16334,35.0,38.0,120.0,13.0,0.0
16335,88.0,0.0,60.0,7.0,0.0
16336,76.0,0.0,60.0,7.0,0.0
16337,100.0,15.0,60.0,7.0,0.0
16338,47.0,9.0,15.0,3.0,0.0
16339,102.0,60.0,60.0,7.0,0.0
16340,90.0,0.0,60.0,7.0,0.0
16341,78.0,0.0,60.0,7.0,0.0
16342,67.0,2.0,120.0,8.0,0.0
16343,64.0,2.0,120.0,10.0,0.0
16344,59.0,1.0,15.0,11.0,0.0
16345,47.0,1.0,15.0,12.0,0.0
16346,47.0,1.0,15.0,3.0,0.0
16347,35.0,38.0,120.0,13.0,0.0
16348,103.0,0.0,60.0,7.0,0.0
16349,91.0,15.0,60.0,7.0,0.0
16350,79.0,0.0,60.0,7.0,0.0
16351,93.0,15.0,60.0,7.0,0.0
16352,105.0,0.0,60.0,7.0,0.0
16353,81.0,0.0,60.0,7.0,0.0
16354,66.0,2.0,60.0,8.0,0.0
16355,64.0,2.0,60.0,10.0,0.0
16356,59.0,1.0,15.0,11.0,0.0
16357,47.0,1.0,15.0,3.0,0.0
16358,94.0,15.0,60.0,7.0,0.0
16359,82.0,0.0,60.0,7.0,0.0
16360,76.0,2.0,60.0,8.0,0.0
16361,73.0,2.0,60.0,10.0,0.0
16362,71.0,1.0,60.0,11.0,0.0
16363,47.0,9.0,15.0,3.0,0.0
16364,95.0,0.0,360.0,7.0,0.0
16365,71.0,40.0,30.0,7.0,0.0
16366,83.0,0.0,480.0,7.0,0.0
16367,71.0,2.0,2040.0,10.0,0.0
16368,71.0,36.0,360.0,11.0,0.0
16369,47.0,1.0,15.0,12.0,0.0
16370,47.0,1.0,15.0,3.0,0.0
16371,35.0,33.0,15.0,13.0,0.0
16372,75.0,40.0,30.0,7.0,0.0
16373,78.0,5.0,30.0,7.0,0.0
16374,71.0,40.0,30.0,7.0,0.0
16375,75.0,40.0,30.0,7.0,0.0
16376,78.0,40.0,30.0,7.0,0.0
16377,71.0,40.0,30.0,7.0,0.0
16378,75.0,40.0,30.0,7.0,0.0
16379,78.0,4.0,30.0,7.0,0.0
16380,75.0,0.0,15.0,8.0,0.0
16381,87.0,0.0,120.0,7.0,0.0
16382,71.0,40.0,30.0,7.0,0.0
16383,71.0,36.0,120.0,11.0,0.0
16384,75.0,40.0,30.0,7.0,0.0
16385,78.0,0.0,30.0,7.0,0.0
16386,76.0,0.0,480.0,8.0,0.0
16387,88.0,40.0,120.0,7.0,0.0
16388,82.0,0.0,480.0,7.0,0.0
16389,71.0,40.0,30.0,7.0,0.0
16390,73.0,36.0,480.0,11.0,0.0
16391,73.0,40.0,30.0,7.0,0.0
16392,76.0,0.0,30.0,7.0,0.0
16393,85.0,40.0,120.0,7.0,0.0
16394,71.0,40.0,30.0,7.0,0.0
16395,73.0,40.0,30.0,7.0,0.0
16396,76.0,0.0,30.0,7.0,0.0
16397,92.0,0.0,120.0,7.0,0.0
16398,71.0,40.0,30.0,7.0,0.0
16399,73.0,40.0,30.0,7.0,0.0
16400,76.0,40.0,30.0,7.0,0.0
16401,71.0,40.0,30.0,7.0,0.0
16402,73.0,40.0,30.0,7.0,0.0
16403,76.0,4.0,30.0,7.0,0.0
16404,71.0,40.0,30.0,7.0,0.0
16405,83.0,0.0,480.0,7.0,0.0
16406,90.0,0.0,15.0,7.0,0.0
16407,75.0,0.0,480.0,8.0,0.0
16408,71.0,36.0,480.0,11.0,0.0
16409,75.0,40.0,30.0,7.0,0.0
16410,78.0,40.0,30.0,7.0,0.0
16411,71.0,40.0,30.0,7.0,0.0
16412,75.0,40.0,30.0,7.0,0.0
16413,78.0,40.0,30.0,7.0,0.0
16414,71.0,40.0,30.0,7.0,0.0
16415,75.0,40.0,30.0,7.0,0.0
16416,78.0,0.0,30.0,7.0,0.0
16417,88.0,15.0,15.0,7.0,0.0
16418,71.0,5.0,30.0,7.0,0.0
16419,87.0,10.0,15.0,7.0,0.0
16420,88.0,15.0,15.0,7.0,0.0
16421,75.0,10.0,30.0,7.0,0.0
16422,87.0,15.0,15.0,7.0,0.0
16423,88.0,5.0,15.0,7.0,0.0
16424,87.0,15.0,15.0,7.0,0.0
16425,78.0,0.0,30.0,7.0,0.0
16426,88.0,15.0,15.0,7.0,0.0
16427,87.0,4.0,15.0,7.0,0.0
16428,88.0,20.0,60.0,7.0,0.0
16429,76.0,0.0,480.0,8.0,0.0
16430,82.0,0.0,480.0,7.0,0.0
16431,71.0,20.0,30.0,7.0,0.0
16432,73.0,60.0,480.0,11.0,0.0
16433,73.0,40.0,30.0,7.0,0.0
16434,85.0,40.0,60.0,7.0,0.0
16435,76.0,0.0,30.0,7.0,0.0
16436,84.0,20.0,60.0,7.0,0.0
16437,71.0,20.0,30.0,7.0,0.0
16438,73.0,40.0,30.0,7.0,0.0
16439,85.0,40.0,60.0,7.0,0.0
16440,76.0,0.0,30.0,7.0,0.0
16441,88.0,20.0,60.0,7.0,0.0
16442,71.0,20.0,30.0,7.0,0.0
16443,73.0,40.0,30.0,7.0,0.0
16444,85.0,40.0,60.0,7.0,0.0
16445,76.0,0.0,30.0,7.0,0.0
16446,71.0,20.0,30.0,7.0,0.0
16447,92.0,20.0,60.0,7.0,0.0
16448,73.0,40.0,30.0,7.0,0.0
16449,90.0,0.0,60.0,7.0,0.0
16450,76.0,4.0,30.0,7.0,0.0
16451,71.0,0.0,120.0,7.0,0.0
16452,75.0,0.0,120.0,7.0,0.0
16453,83.0,0.0,120.0,7.0,0.0
16454,75.0,0.0,120.0,8.0,0.0
16455,90.0,2.0,120.0,7.0,0.0
16456,71.0,1.0,60.0,11.0,0.0
16457,47.0,19.0,60.0,12.0,0.0
16458,61.0,1.0,20.0,11.0,0.0
16459,49.0,19.0,20.0,12.0,0.0
16460,59.0,1.0,20.0,11.0,0.0
16461,47.0,15.0,20.0,12.0,0.0
16462,58.0,1.0,20.0,11.0,0.0
16463,46.0,59.0,20.0,12.0,0.0
16464,59.0,1.0,60.0,11.0,0.0
16465,47.0,59.0,60.0,12.0,0.0
16466,61.0,1.0,60.0,11.0,0.0
16467,49.0,59.0,60.0,12.0,0.0
16468,59.0,1.0,60.0,11.0,0.0
16469,47.0,19.0,60.0,12.0,0.0
16470,62.0,1.0,20.0,11.0,0.0
16471,50.0,19.0,20.0,12.0,0.0
16472,60.0,1.0,20.0,11.0,0.0
16473,49.0,19.0,20.0,12.0,0.0
16474,59.0,1.0,20.0,11.0,0.0
16475,47.0,59.0,20.0,12.0,0.0
16476,60.0,1.0,60.0,11.0,0.0
16477,48.0,59.0,60.0,12.0,0.0
16478,62.0,1.0,60.0,11.0,0.0
16479,50.0,477.0,60.0,12.0,0.0
16480,60.0,1.0,1980.0,11.0,0.0
16481,48.0,19.0,1980.0,12.0,0.0
16482,81.0,0.0,120.0,2.0,0.0
16483,77.0,4.0,120.0,2.0,0.0
16484,69.0,116.0,120.0,3.0,0.0
16485,65.0,0.0,120.0,3.0,0.0
16486,76.0,0.0,480.0,2.0,0.0
16487,82.0,120.0,120.0,2.0,0.0
16488,67.0,0.0,480.0,3.0,0.0
16489,70.0,34.0,480.0,3.0,0.0
16490,79.0,120.0,120.0,2.0,0.0
16491,86.0,120.0,120.0,2.0,0.0
16492,60.0,40.0,30.0,7.0,0.0
16493,84.0,4.0,15.0,2.0,0.0
16494,77.0,0.0,300.0,2.0,0.0
16495,69.0,0.0,300.0,3.0,0.0
16496,65.0,14.0,300.0,3.0,0.0
16497,65.0,40.0,30.0,7.0,0.0
16498,69.0,40.0,30.0,7.0,0.0
16499,60.0,40.0,30.0,7.0,0.0
16500,65.0,40.0,30.0,7.0,0.0
16501,69.0,40.0,30.0,7.0,0.0
16502,60.0,22.0,30.0,7.0,0.0
16503,65.0,40.0,30.0,7.0,0.0
16504,69.0,15.0,30.0,7.0,0.0
16505,82.0,15.0,15.0,7.0,0.0
16506,77.0,0.0,120.0,7.0,0.0
16507,60.0,5.0,30.0,7.0,0.0
16508,69.0,0.0,120.0,8.0,0.0
16509,65.0,38.0,120.0,10.0,0.0
16510,81.0,10.0,15.0,7.0,0.0
16511,82.0,15.0,15.0,7.0,0.0
16512,65.0,10.0,30.0,7.0,0.0
16513,81.0,15.0,15.0,7.0,0.0
16514,82.0,5.0,15.0,7.0,0.0
16515,81.0,15.0,15.0,7.0,0.0
16516,69.0,0.0,30.0,7.0,0.0
16517,82.0,15.0,15.0,7.0,0.0
16518,81.0,2.0,15.0,7.0,0.0
16519,82.0,20.0,60.0,7.0,0.0
16520,60.0,20.0,30.0,7.0,0.0
16521,76.0,0.0,480.0,7.0,0.0
16522,70.0,2.0,480.0,8.0,0.0
16523,67.0,0.0,480.0,10.0,0.0
16524,64.0,62.0,480.0,10.0,0.0
16525,67.0,40.0,30.0,7.0,0.0
16526,79.0,40.0,60.0,7.0,0.0
16527,70.0,0.0,30.0,7.0,0.0
16528,78.0,20.0,60.0,7.0,0.0
16529,60.0,20.0,30.0,7.0,0.0
16530,67.0,40.0,30.0,7.0,0.0
16531,79.0,40.0,60.0,7.0,0.0
16532,70.0,0.0,30.0,7.0,0.0
16533,60.0,20.0,30.0,7.0,0.0
16534,82.0,20.0,60.0,7.0,0.0
16535,67.0,40.0,30.0,7.0,0.0
16536,79.0,40.0,60.0,7.0,0.0
16537,70.0,0.0,30.0,7.0,0.0
16538,86.0,20.0,60.0,7.0,0.0
16539,60.0,20.0,30.0,7.0,0.0
16540,67.0,40.0,30.0,7.0,0.0
16541,84.0,0.0,60.0,7.0,0.0
16542,70.0,0.0,30.0,7.0,0.0
16543,60.0,0.0,120.0,7.0,0.0
16544,69.0,0.0,120.0,7.0,0.0
16545,77.0,2.0,120.0,7.0,0.0
16546,69.0,0.0,120.0,8.0,0.0
16547,84.0,0.0,120.0,7.0,0.0
16548,65.0,2.0,120.0,10.0,0.0
16549,62.0,1.0,20.0,11.0,0.0
16550,50.0,19.0,20.0,12.0,0.0
16551,60.0,1.0,20.0,11.0,0.0
16552,48.0,15.0,20.0,12.0,0.0
16553,59.0,1.0,20.0,11.0,0.0
16554,47.0,59.0,20.0,12.0,0.0
16555,60.0,1.0,60.0,11.0,0.0
16556,48.0,59.0,60.0,12.0,0.0
16557,62.0,1.0,60.0,11.0,0.0
16558,50.0,59.0,60.0,12.0,0.0
16559,61.0,1.0,60.0,11.0,0.0
16560,49.0,19.0,60.0,12.0,0.0
16561,64.0,1.0,20.0,11.0,0.0
16562,52.0,19.0,20.0,12.0,0.0
16563,62.0,1.0,20.0,11.0,0.0
16564,50.0,19.0,20.0,12.0,0.0
16565,61.0,1.0,20.0,11.0,0.0
16566,49.0,59.0,20.0,12.0,0.0
16567,62.0,1.0,60.0,11.0,0.0
16568,50.0,59.0,60.0,12.0,0.0
16569,64.0,1.0,60.0,11.0,0.0
16570,52.0,476.0,60.0,12.0,0.0
16571,62.0,1.0,3240.0,11.0,0.0
16572,50.0,25.0,3240.0,12.0,0.0
16573,83.0,1.0,120.0,1.0,0.0
16574,67.0,0.0,120.0,4.0,0.0
16575,71.0,0.0,120.0,4.0,0.0
16576,71.0,0.0,120.0,2.0,0.0
16577,79.0,119.0,120.0,2.0,0.0
16578,84.0,120.0,120.0,1.0,0.0
16579,62.0,0.0,480.0,4.0,0.0
16580,69.0,38.0,480.0,4.0,0.0
16581,72.0,0.0,480.0,2.0,0.0
16582,78.0,0.0,480.0,2.0,0.0
16583,81.0,120.0,120.0,1.0,0.0
16584,88.0,120.0,120.0,1.0,0.0
16585,86.0,1.0,120.0,1.0,0.0
16586,62.0,40.0,30.0,7.0,0.0
16587,86.0,1.0,300.0,1.0,0.0
16588,79.0,0.0,300.0,2.0,0.0
16589,67.0,0.0,300.0,4.0,0.0
16590,71.0,0.0,300.0,4.0,0.0
16591,71.0,18.0,300.0,2.0,0.0
16592,67.0,40.0,30.0,7.0,0.0
16593,71.0,40.0,30.0,7.0,0.0
16594,62.0,40.0,30.0,7.0,0.0
16595,67.0,40.0,30.0,7.0,0.0
16596,71.0,40.0,30.0,7.0,0.0
16597,62.0,21.0,30.0,7.0,0.0
16598,67.0,40.0,30.0,7.0,0.0
16599,71.0,15.0,30.0,7.0,0.0
16600,62.0,5.0,30.0,7.0,0.0
16601,84.0,15.0,15.0,7.0,0.0
16602,79.0,2.0,120.0,7.0,0.0
16603,71.0,0.0,120.0,8.0,0.0
16604,67.0,38.0,120.0,10.0,0.0
16605,83.0,10.0,15.0,7.0,0.0
16606,84.0,15.0,15.0,7.0,0.0
16607,67.0,10.0,30.0,7.0,0.0
16608,83.0,15.0,15.0,7.0,0.0
16609,84.0,5.0,15.0,7.0,0.0
16610,83.0,15.0,15.0,7.0,0.0
16611,71.0,0.0,30.0,7.0,0.0
16612,84.0,15.0,15.0,7.0,0.0
16613,83.0,0.0,15.0,7.0,0.0
16614,72.0,0.0,360.0,8.0,0.0
16615,84.0,20.0,60.0,7.0,0.0
16616,62.0,20.0,30.0,7.0,0.0
16617,69.0,40.0,30.0,7.0,0.0
16618,81.0,0.0,60.0,7.0,0.0
16619,72.0,40.0,30.0,7.0,0.0
16620,62.0,20.0,30.0,7.0,0.0
16621,80.0,20.0,60.0,7.0,0.0
16622,69.0,40.0,30.0,7.0,0.0
16623,81.0,40.0,60.0,7.0,0.0
16624,72.0,0.0,30.0,7.0,0.0
16625,84.0,20.0,60.0,7.0,0.0
16626,69.0,20.0,30.0,7.0,0.0
16627,72.0,40.0,30.0,7.0,0.0
16628,81.0,2.0,60.0,7.0,0.0
16629,74.0,0.0,30.0,7.0,0.0
16630,88.0,20.0,60.0,7.0,0.0
16631,69.0,20.0,30.0,7.0,0.0
16632,72.0,2.0,120.0,8.0,0.0
16633,69.0,38.0,15.0,10.0,0.0
16634,72.0,40.0,30.0,7.0,0.0
16635,86.0,0.0,60.0,7.0,0.0
16636,74.0,0.0,30.0,7.0,0.0
16637,86.0,20.0,60.0,7.0,0.0
16638,80.0,0.0,480.0,7.0,0.0
16639,74.0,2.0,360.0,8.0,0.0
16640,71.0,20.0,30.0,7.0,0.0
16641,71.0,38.0,360.0,10.0,0.0
16642,74.0,40.0,30.0,7.0,0.0
16643,83.0,0.0,60.0,7.0,0.0
16644,77.0,40.0,30.0,7.0,0.0
16645,82.0,20.0,60.0,7.0,0.0
16646,71.0,20.0,30.0,7.0,0.0
16647,74.0,40.0,30.0,7.0,0.0
16648,83.0,40.0,60.0,7.0,0.0
16649,77.0,0.0,30.0,7.0,0.0
16650,86.0,20.0,60.0,7.0,0.0
16651,71.0,20.0,30.0,7.0,0.0
16652,74.0,40.0,30.0,7.0,0.0
16653,83.0,0.0,60.0,7.0,0.0
16654,77.0,0.0,30.0,7.0,0.0
16655,89.0,20.0,60.0,7.0,0.0
16656,71.0,20.0,30.0,7.0,0.0
16657,62.0,0.0,120.0,8.0,0.0
16658,59.0,38.0,120.0,10.0,0.0
16659,74.0,40.0,30.0,7.0,0.0
16660,77.0,2.0,30.0,7.0,0.0
16661,73.0,20.0,30.0,7.0,0.0
16662,64.0,0.0,120.0,8.0,0.0
16663,88.0,0.0,15.0,7.0,0.0
16664,61.0,38.0,120.0,10.0,0.0
16665,76.0,40.0,30.0,7.0,0.0
16666,85.0,0.0,60.0,7.0,0.0
16667,79.0,2.0,30.0,7.0,0.0
16668,73.0,20.0,30.0,7.0,0.0
16669,91.0,20.0,60.0,7.0,0.0
16670,76.0,40.0,30.0,7.0,0.0
16671,79.0,40.0,30.0,7.0,0.0
16672,90.0,0.0,15.0,7.0,0.0
16673,75.0,20.0,30.0,7.0,0.0
16674,66.0,2.0,120.0,8.0,0.0
16675,63.0,38.0,120.0,10.0,0.0
16676,78.0,40.0,30.0,7.0,0.0
16677,84.0,0.0,60.0,7.0,0.0
16678,81.0,0.0,30.0,7.0,0.0
16679,93.0,20.0,60.0,7.0,0.0
16680,75.0,20.0,30.0,7.0,0.0
16681,78.0,40.0,30.0,7.0,0.0
16682,92.0,40.0,60.0,7.0,0.0
16683,81.0,0.0,30.0,7.0,0.0
16684,92.0,20.0,60.0,7.0,0.0
16685,77.0,20.0,30.0,7.0,0.0
16686,68.0,0.0,120.0,8.0,0.0
16687,65.0,38.0,120.0,10.0,0.0
16688,80.0,40.0,30.0,7.0,0.0
16689,86.0,0.0,60.0,7.0,0.0
16690,83.0,2.0,30.0,7.0,0.0
16691,78.0,20.0,30.0,7.0,0.0
16692,95.0,20.0,60.0,7.0,0.0
16693,81.0,40.0,30.0,7.0,0.0
16694,84.0,40.0,30.0,7.0,0.0
16695,69.0,2.0,120.0,8.0,0.0
16696,93.0,0.0,15.0,7.0,0.0
16697,78.0,20.0,30.0,7.0,0.0
16698,66.0,2.0,120.0,10.0,0.0
16699,81.0,40.0,30.0,7.0,0.0
16700,87.0,0.0,60.0,7.0,0.0
16701,84.0,0.0,30.0,7.0,0.0
16702,75.0,30.0,30.0,7.0,0.0
16703,95.0,0.0,60.0,7.0,0.0
16704,63.0,1.0,720.0,11.0,0.0
16705,51.0,25.0,720.0,12.0,0.0
16706,78.0,30.0,30.0,7.0,0.0
16707,81.0,30.0,30.0,7.0,0.0
16708,96.0,0.0,60.0,7.0,0.0
16709,84.0,30.0,30.0,7.0,0.0
16710,75.0,0.0,15.0,8.0,0.0
16711,75.0,0.0,30.0,7.0,0.0
16712,87.0,30.0,30.0,7.0,0.0
16713,63.0,28.0,120.0,10.0,0.0
16714,78.0,0.0,30.0,7.0,0.0
16715,90.0,30.0,30.0,7.0,0.0
16716,81.0,30.0,30.0,7.0,0.0
16717,93.0,0.0,30.0,7.0,0.0
16718,84.0,2.0,30.0,7.0,0.0
16719,96.0,0.0,30.0,7.0,0.0
16720,75.0,0.0,30.0,7.0,0.0
16721,87.0,30.0,30.0,7.0,0.0
16722,78.0,30.0,30.0,7.0,0.0
16723,90.0,0.0,30.0,7.0,0.0
16724,81.0,30.0,30.0,7.0,0.0
16725,93.0,0.0,30.0,7.0,0.0
16726,84.0,30.0,30.0,7.0,0.0
16727,96.0,0.0,30.0,7.0,0.0
16728,75.0,30.0,30.0,7.0,0.0
16729,87.0,0.0,30.0,7.0,0.0
16730,78.0,0.0,30.0,7.0,0.0
16731,90.0,30.0,30.0,7.0,0.0
16732,93.0,30.0,30.0,7.0,0.0
16733,81.0,0.0,30.0,7.0,0.0
16734,84.0,30.0,30.0,7.0,0.0
16735,96.0,0.0,30.0,7.0,0.0
16736,75.0,0.0,30.0,7.0,0.0
16737,87.0,30.0,30.0,7.0,0.0
16738,78.0,30.0,30.0,7.0,0.0
16739,90.0,0.0,30.0,7.0,0.0
16740,93.0,30.0,30.0,7.0,0.0
16741,81.0,0.0,30.0,7.0,0.0
16742,84.0,30.0,30.0,7.0,0.0
16743,96.0,0.0,30.0,7.0,0.0
16744,87.0,0.0,30.0,7.0,0.0
16745,75.0,30.0,30.0,7.0,0.0
16746,78.0,30.0,30.0,7.0,0.0
16747,90.0,0.0,30.0,7.0,0.0
16748,93.0,30.0,30.0,7.0,0.0
16749,81.0,0.0,30.0,7.0,0.0
16750,96.0,4.0,30.0,7.0,0.0
16751,84.0,0.0,30.0,7.0,0.0
16752,90.0,30.0,30.0,7.0,0.0
16753,78.0,0.0,30.0,7.0,0.0
16754,54.0,20.0,900.0,11.0,0.0
16755,42.0,25.0,960.0,12.0,0.0
16756,93.0,30.0,30.0,7.0,0.0
16757,81.0,0.0,30.0,7.0,0.0
16758,84.0,0.0,30.0,7.0,0.0
16759,96.0,30.0,30.0,7.0,0.0
16760,87.0,0.0,30.0,7.0,0.0
16761,99.0,30.0,30.0,7.0,0.0
16762,90.0,0.0,30.0,7.0,0.0
16763,78.0,30.0,30.0,7.0,0.0
16764,93.0,30.0,30.0,7.0,0.0
16765,81.0,0.0,30.0,7.0,0.0
16766,96.0,0.0,30.0,7.0,0.0
16767,84.0,30.0,30.0,7.0,0.0
16768,87.0,30.0,30.0,7.0,0.0
16769,99.0,0.0,30.0,7.0,0.0
16770,90.0,0.0,30.0,7.0,0.0
16771,78.0,30.0,30.0,7.0,0.0
16772,81.0,30.0,30.0,7.0,0.0
16773,93.0,0.0,30.0,7.0,0.0
16774,84.0,0.0,30.0,7.0,0.0
16775,96.0,30.0,30.0,7.0,0.0
16776,87.0,0.0,30.0,7.0,0.0
16777,99.0,30.0,30.0,7.0,0.0
16778,90.0,30.0,30.0,7.0,0.0
16779,78.0,0.0,30.0,7.0,0.0
16780,81.0,0.0,30.0,7.0,0.0
16781,93.0,30.0,30.0,7.0,0.0
16782,96.0,0.0,30.0,7.0,0.0
16783,84.0,30.0,30.0,7.0,0.0
16784,87.0,30.0,30.0,7.0,0.0
16785,99.0,0.0,30.0,7.0,0.0
16786,78.0,30.0,30.0,7.0,0.0
16787,90.0,0.0,30.0,7.0,0.0
16788,93.0,0.0,30.0,7.0,0.0
16789,81.0,30.0,30.0,7.0,0.0
16790,96.0,30.0,30.0,7.0,0.0
16791,84.0,0.0,30.0,7.0,0.0
16792,99.0,30.0,30.0,7.0,0.0
16793,87.0,0.0,30.0,7.0,0.0
16794,78.0,0.0,30.0,7.0,0.0
16795,90.0,30.0,30.0,7.0,0.0
16796,93.0,30.0,30.0,7.0,0.0
16797,81.0,0.0,30.0,7.0,0.0
16798,84.0,0.0,30.0,7.0,0.0
16799,96.0,30.0,30.0,7.0,0.0
16800,99.0,30.0,30.0,7.0,0.0
16801,87.0,0.0,30.0,7.0,0.0
16802,90.0,30.0,30.0,7.0,0.0
16803,78.0,0.0,30.0,7.0,0.0
16804,93.0,0.0,30.0,7.0,0.0
16805,81.0,30.0,30.0,7.0,0.0
16806,84.0,0.0,30.0,7.0,0.0
16807,96.0,30.0,30.0,7.0,0.0
16808,99.0,30.0,30.0,7.0,0.0
16809,87.0,0.0,30.0,7.0,0.0
16810,90.0,30.0,30.0,7.0,0.0
16811,78.0,0.0,30.0,7.0,0.0
16812,93.0,4.0,30.0,7.0,0.0
16813,81.0,0.0,30.0,7.0,0.0
16814,84.0,0.0,30.0,7.0,0.0
16815,96.0,14.0,30.0,7.0,0.0
16816,55.0,6.0,20.0,11.0,0.0
16817,54.0,16.0,20.0,11.0,0.0
16818,87.0,0.0,30.0,7.0,0.0
16819,99.0,4.0,30.0,7.0,0.0
16820,53.0,1.0,20.0,11.0,0.0
16821,93.0,19.0,30.0,7.0,0.0
16822,81.0,0.0,30.0,7.0,0.0
16823,54.0,11.0,60.0,11.0,0.0
16824,96.0,30.0,30.0,7.0,0.0
16825,84.0,0.0,30.0,7.0,0.0
16826,99.0,19.0,30.0,7.0,0.0
16827,87.0,0.0,30.0,7.0,0.0
16828,55.0,11.0,60.0,11.0,0.0
16829,102.0,30.0,30.0,7.0,0.0
16830,90.0,0.0,30.0,7.0,0.0
16831,81.0,30.0,30.0,7.0,0.0
16832,93.0,0.0,30.0,7.0,0.0
16833,54.0,26.0,90.0,11.0,0.0
16834,96.0,0.0,30.0,7.0,0.0
16835,84.0,30.0,30.0,7.0,0.0
16836,99.0,4.0,30.0,7.0,0.0
16837,87.0,0.0,30.0,7.0,0.0
16838,102.0,30.0,30.0,7.0,0.0
16839,90.0,0.0,30.0,7.0,0.0
16840,93.0,30.0,30.0,7.0,0.0
16841,81.0,0.0,30.0,7.0,0.0
16842,84.0,30.0,30.0,7.0,0.0
16843,96.0,0.0,30.0,7.0,0.0
16844,87.0,30.0,30.0,7.0,0.0
16845,99.0,0.0,30.0,7.0,0.0
16846,102.0,0.0,30.0,7.0,0.0
16847,90.0,30.0,30.0,7.0,0.0
16848,93.0,0.0,30.0,7.0,0.0
16849,81.0,30.0,30.0,7.0,0.0
16850,84.0,0.0,30.0,7.0,0.0
16851,96.0,24.0,30.0,7.0,0.0
16852,99.0,14.0,30.0,7.0,0.0
16853,87.0,0.0,30.0,7.0,0.0
16854,55.0,6.0,20.0,11.0,0.0
16855,54.0,16.0,20.0,11.0,0.0
16856,90.0,0.0,30.0,7.0,0.0
16857,102.0,4.0,30.0,7.0,0.0
16858,53.0,26.0,20.0,11.0,0.0
16859,96.0,0.0,30.0,7.0,0.0
16860,84.0,19.0,30.0,7.0,0.0
16861,54.0,11.0,60.0,11.0,0.0
16862,87.0,0.0,30.0,7.0,0.0
16863,99.0,30.0,30.0,7.0,0.0
16864,102.0,0.0,30.0,7.0,0.0
16865,90.0,19.0,30.0,7.0,0.0
16866,55.0,11.0,60.0,11.0,0.0
16867,105.0,30.0,30.0,7.0,0.0
16868,93.0,0.0,30.0,7.0,0.0
16869,96.0,30.0,30.0,7.0,0.0
16870,84.0,0.0,30.0,7.0,0.0
16871,54.0,26.0,90.0,11.0,0.0
16872,99.0,30.0,30.0,7.0,0.0
16873,87.0,0.0,30.0,7.0,0.0
16874,90.0,0.0,30.0,7.0,0.0
16875,102.0,4.0,30.0,7.0,0.0
16876,93.0,0.0,30.0,7.0,0.0
16877,105.0,30.0,30.0,7.0,0.0
16878,96.0,30.0,30.0,7.0,0.0
16879,84.0,0.0,30.0,7.0,0.0
16880,99.0,30.0,30.0,7.0,0.0
16881,87.0,0.0,30.0,7.0,0.0
16882,102.0,30.0,30.0,7.0,0.0
16883,90.0,0.0,30.0,7.0,0.0
16884,93.0,0.0,30.0,7.0,0.0
16885,105.0,30.0,30.0,7.0,0.0
16886,96.0,30.0,30.0,7.0,0.0
16887,84.0,0.0,30.0,7.0,0.0
16888,99.0,0.0,30.0,7.0,0.0
16889,87.0,24.0,30.0,7.0,0.0
16890,90.0,14.0,30.0,7.0,0.0
16891,102.0,0.0,30.0,7.0,0.0
16892,55.0,6.0,20.0,11.0,0.0
16893,54.0,16.0,20.0,11.0,0.0
16894,93.0,0.0,30.0,7.0,0.0
16895,105.0,4.0,30.0,7.0,0.0
16896,53.0,26.0,20.0,11.0,0.0
16897,84.0,0.0,30.0,7.0,0.0
16898,96.0,19.0,30.0,7.0,0.0
16899,54.0,11.0,60.0,11.0,0.0
16900,99.0,30.0,30.0,7.0,0.0
16901,87.0,0.0,30.0,7.0,0.0
16902,90.0,0.0,30.0,7.0,0.0
16903,102.0,19.0,30.0,7.0,0.0
16904,55.0,11.0,60.0,11.0,0.0
16905,105.0,0.0,30.0,7.0,0.0
16906,93.0,30.0,30.0,7.0,0.0
16907,84.0,0.0,30.0,7.0,0.0
16908,96.0,30.0,30.0,7.0,0.0
16909,54.0,26.0,90.0,11.0,0.0
16910,99.0,30.0,30.0,7.0,0.0
16911,87.0,0.0,30.0,7.0,0.0
16912,90.0,0.0,30.0,7.0,0.0
16913,102.0,4.0,30.0,7.0,0.0
16914,105.0,40.0,30.0,7.0,0.0
16915,93.0,0.0,30.0,7.0,0.0
16916,96.0,0.0,30.0,7.0,0.0
16917,84.0,40.0,30.0,7.0,0.0
16918,87.0,0.0,30.0,7.0,0.0
16919,99.0,40.0,30.0,7.0,0.0
16920,102.0,84.0,30.0,7.0,0.0
16921,90.0,0.0,30.0,7.0,0.0
16922,105.0,4.0,120.0,7.0,0.0
16923,93.0,0.0,120.0,7.0,0.0
16924,55.0,20.0,20.0,11.0,0.0
16925,54.0,16.0,20.0,11.0,0.0
16926,53.0,45.0,20.0,11.0,0.0
16927,54.0,60.0,60.0,11.0,0.0
16928,55.0,60.0,60.0,11.0,0.0
16929,54.0,35.0,60.0,11.0,0.0
16930,55.0,20.0,20.0,11.0,0.0
16931,54.0,20.0,20.0,11.0,0.0
16932,53.0,45.0,20.0,11.0,0.0
16933,54.0,60.0,60.0,11.0,0.0
16934,55.0,60.0,60.0,11.0,0.0
16935,54.0,35.0,60.0,11.0,0.0
16936,55.0,20.0,20.0,11.0,0.0
16937,54.0,20.0,20.0,11.0,0.0
16938,53.0,45.0,20.0,11.0,0.0
16939,54.0,60.0,60.0,11.0,0.0
16940,55.0,60.0,60.0,11.0,0.0
16941,54.0,33.0,60.0,11.0,0.0
16942,64.0,2.0,20.0,10.0,0.0
16943,55.0,18.0,20.0,11.0,0.0
16944,62.0,2.0,20.0,10.0,0.0
16945,54.0,18.0,20.0,11.0,0.0
16946,61.0,2.0,20.0,10.0,0.0
16947,53.0,43.0,20.0,11.0,0.0
16948,62.0,2.0,60.0,10.0,0.0
16949,54.0,58.0,60.0,11.0,0.0
16950,64.0,2.0,60.0,10.0,0.0
16951,55.0,58.0,60.0,11.0,0.0
16952,62.0,2.0,60.0,10.0,0.0
16953,54.0,33.0,60.0,11.0,0.0
16954,64.0,2.0,20.0,10.0,0.0
16955,55.0,18.0,20.0,11.0,0.0
16956,62.0,2.0,20.0,10.0,0.0
16957,54.0,18.0,20.0,11.0,0.0
16958,61.0,2.0,20.0,10.0,0.0
16959,53.0,43.0,20.0,11.0,0.0
16960,62.0,2.0,60.0,10.0,0.0
16961,54.0,58.0,60.0,11.0,0.0
16962,64.0,2.0,60.0,10.0,0.0
16963,55.0,58.0,60.0,11.0,0.0
16964,62.0,2.0,60.0,10.0,0.0
16965,54.0,33.0,60.0,11.0,0.0
16966,64.0,2.0,20.0,10.0,0.0
16967,55.0,18.0,20.0,11.0,0.0
16968,62.0,2.0,20.0,10.0,0.0
16969,54.0,18.0,20.0,11.0,0.0
16970,61.0,2.0,20.0,10.0,0.0
16971,53.0,43.0,20.0,11.0,0.0
16972,62.0,2.0,60.0,10.0,0.0
16973,54.0,58.0,60.0,11.0,0.0
16974,64.0,2.0,60.0,10.0,0.0
16975,55.0,58.0,60.0,11.0,0.0
16976,62.0,2.0,60.0,10.0,0.0
16977,54.0,33.0,60.0,11.0,0.0
16978,64.0,2.0,20.0,10.0,0.0
16979,55.0,18.0,20.0,11.0,0.0
16980,62.0,2.0,20.0,10.0,0.0
16981,54.0,18.0,20.0,11.0,0.0
16982,61.0,2.0,20.0,10.0,0.0
16983,53.0,43.0,20.0,11.0,0.0
16984,62.0,2.0,60.0,10.0,0.0
16985,54.0,58.0,60.0,11.0,0.0
16986,64.0,2.0,60.0,10.0,0.0
16987,55.0,58.0,60.0,11.0,0.0
16988,62.0,2.0,60.0,10.0,0.0
16989,54.0,31.0,60.0,11.0,0.0
16990,76.0,2.0,20.0,0.0,0.0
16991,88.0,0.0,20.0,8.0,0.0
16992,88.0,0.0,20.0,0.0,0.0
16993,62.0,1.0,60.0,5.0,0.0
16994,76.0,2.0,20.0,10.0,0.0
16995,86.0,0.0,120.0,2.0,0.0
16996,64.0,1.0,20.0,11.0,0.0
16997,52.0,2.0,20.0,12.0,0.0
16998,40.0,13.0,20.0,13.0,0.0
16999,74.0,2.0,20.0,0.0,0.0
17000,86.0,0.0,20.0,8.0,0.0
17001,86.0,0.0,20.0,0.0,0.0
17002,74.0,2.0,20.0,10.0,0.0
17003,62.0,1.0,20.0,11.0,0.0
17004,50.0,2.0,20.0,12.0,0.0
17005,38.0,13.0,20.0,13.0,0.0
17006,85.0,0.0,20.0,8.0,0.0
17007,85.0,0.0,20.0,0.0,0.0
17008,73.0,1.0,20.0,0.0,0.0
17009,73.0,0.0,20.0,10.0,0.0
17010,61.0,1.0,20.0,11.0,0.0
17011,49.0,1.0,20.0,12.0,0.0
17012,37.0,38.0,20.0,13.0,0.0
17013,74.0,0.0,60.0,0.0,0.0
17014,86.0,0.0,60.0,8.0,0.0
17015,86.0,2.0,60.0,0.0,0.0
17016,74.0,0.0,15.0,5.0,0.0
17017,74.0,2.0,60.0,10.0,0.0
17018,62.0,0.0,15.0,4.0,0.0
17019,50.0,2.0,15.0,4.0,0.0
17020,62.0,1.0,60.0,11.0,0.0
17021,50.0,2.0,60.0,12.0,0.0
17022,50.0,1.0,15.0,6.0,0.0
17023,38.0,9.0,60.0,13.0,0.0
17024,88.0,0.0,60.0,0.0,0.0
17025,88.0,2.0,60.0,8.0,0.0
17026,76.0,0.0,60.0,0.0,0.0
17027,86.0,0.0,15.0,1.0,0.0
17028,74.0,0.0,60.0,5.0,0.0
17029,62.0,0.0,15.0,5.0,0.0
17030,74.0,1.0,15.0,1.0,0.0
17031,74.0,0.0,15.0,2.0,0.0
17032,76.0,2.0,60.0,10.0,0.0
17033,62.0,4.0,15.0,4.0,0.0
17034,50.0,0.0,15.0,4.0,0.0
17035,64.0,1.0,60.0,11.0,0.0
17036,52.0,2.0,60.0,12.0,0.0
17037,62.0,0.0,15.0,3.0,0.0
17038,50.0,0.0,15.0,3.0,0.0
17039,50.0,39.0,15.0,6.0,0.0
17040,40.0,9.0,60.0,13.0,0.0
17041,86.0,0.0,60.0,8.0,0.0
17042,74.0,2.0,60.0,0.0,0.0
17043,86.0,0.0,60.0,0.0,0.0
17044,86.0,0.0,60.0,1.0,0.0
17045,62.0,0.0,120.0,5.0,0.0
17046,74.0,1.0,120.0,5.0,0.0
17047,74.0,2.0,60.0,10.0,0.0
17048,86.0,0.0,15.0,2.0,0.0
17049,62.0,4.0,15.0,4.0,0.0
17050,50.0,0.0,120.0,4.0,0.0
17051,62.0,1.0,60.0,11.0,0.0
17052,50.0,2.0,60.0,12.0,0.0
17053,62.0,0.0,15.0,3.0,0.0
17054,50.0,0.0,15.0,6.0,0.0
17055,38.0,9.0,60.0,13.0,0.0
17056,88.0,0.0,20.0,0.0,0.0
17057,88.0,0.0,20.0,8.0,0.0
17058,76.0,2.0,20.0,0.0,0.0
17059,86.0,1.0,120.0,1.0,0.0
17060,74.0,1.0,15.0,1.0,0.0
17061,76.0,2.0,20.0,10.0,0.0
17062,74.0,4.0,15.0,2.0,0.0
17063,86.0,0.0,15.0,2.0,0.0
17064,64.0,1.0,20.0,11.0,0.0
17065,52.0,2.0,20.0,12.0,0.0
17066,50.0,14.0,15.0,3.0,0.0
17067,62.0,0.0,120.0,3.0,0.0
17068,40.0,13.0,20.0,13.0,0.0
17069,86.0,0.0,20.0,0.0,0.0
17070,74.0,2.0,20.0,0.0,0.0
17071,86.0,0.0,20.0,8.0,0.0
17072,74.0,2.0,20.0,10.0,0.0
17073,62.0,1.0,20.0,11.0,0.0
17074,50.0,2.0,20.0,12.0,0.0
17075,38.0,13.0,20.0,13.0,0.0
17076,85.0,0.0,20.0,0.0,0.0
17077,85.0,1.0,20.0,8.0,0.0
17078,73.0,0.0,20.0,0.0,0.0
17079,73.0,0.0,20.0,10.0,0.0
17080,61.0,1.0,20.0,11.0,0.0
17081,49.0,1.0,20.0,12.0,0.0
17082,37.0,38.0,20.0,13.0,0.0
17083,74.0,0.0,60.0,0.0,0.0
17084,86.0,2.0,60.0,8.0,0.0
17085,86.0,0.0,60.0,0.0,0.0
17086,74.0,2.0,60.0,10.0,0.0
17087,62.0,1.0,60.0,11.0,0.0
17088,50.0,2.0,60.0,12.0,0.0
17089,38.0,9.0,60.0,13.0,0.0
17090,88.0,2.0,60.0,8.0,0.0
17091,76.0,0.0,60.0,0.0,0.0
17092,88.0,0.0,60.0,0.0,0.0
17093,74.0,0.0,60.0,5.0,0.0
17094,76.0,2.0,60.0,10.0,0.0
17095,50.0,0.0,60.0,4.0,0.0
17096,86.0,0.0,15.0,2.0,0.0
17097,74.0,4.0,15.0,2.0,0.0
17098,64.0,1.0,60.0,11.0,0.0
17099,52.0,2.0,60.0,12.0,0.0
17100,50.0,39.0,15.0,3.0,0.0
17101,50.0,39.0,60.0,6.0,0.0
17102,62.0,0.0,60.0,3.0,0.0
17103,40.0,9.0,60.0,13.0,0.0
17104,86.0,2.0,60.0,8.0,0.0
17105,74.0,0.0,60.0,0.0,0.0
17106,86.0,0.0,60.0,0.0,0.0
17107,86.0,0.0,15.0,1.0,0.0
17108,62.0,1.0,15.0,5.0,0.0
17109,74.0,0.0,15.0,1.0,0.0
17110,74.0,0.0,120.0,5.0,0.0
17111,74.0,2.0,60.0,10.0,0.0
17112,86.0,4.0,15.0,2.0,0.0
17113,74.0,0.0,15.0,2.0,0.0
17114,62.0,0.0,15.0,4.0,0.0
17115,50.0,0.0,120.0,4.0,0.0
17116,62.0,1.0,60.0,11.0,0.0
17117,50.0,2.0,60.0,12.0,0.0
17118,50.0,0.0,15.0,3.0,0.0
17119,50.0,1.0,120.0,6.0,0.0
17120,38.0,9.0,60.0,13.0,0.0
17121,76.0,2.0,20.0,0.0,0.0
17122,88.0,0.0,20.0,0.0,0.0
17123,88.0,0.0,20.0,8.0,0.0
17124,74.0,1.0,120.0,1.0,0.0
17125,86.0,0.0,120.0,1.0,0.0
17126,74.0,4.0,15.0,2.0,0.0
17127,76.0,2.0,20.0,10.0,0.0
17128,86.0,0.0,120.0,2.0,0.0
17129,64.0,1.0,20.0,11.0,0.0
17130,52.0,2.0,20.0,12.0,0.0
17131,62.0,0.0,15.0,3.0,0.0
17132,50.0,39.0,120.0,3.0,0.0
17133,40.0,13.0,20.0,13.0,0.0
17134,86.0,0.0,20.0,8.0,0.0
17135,74.0,0.0,20.0,0.0,0.0
17136,86.0,2.0,20.0,0.0,0.0
17137,74.0,2.0,20.0,10.0,0.0
17138,62.0,1.0,20.0,11.0,0.0
17139,50.0,2.0,20.0,12.0,0.0
17140,38.0,13.0,20.0,13.0,0.0
17141,85.0,0.0,20.0,0.0,0.0
17142,73.0,0.0,20.0,0.0,0.0
17143,85.0,1.0,20.0,8.0,0.0
17144,73.0,2.0,20.0,10.0,0.0
17145,61.0,1.0,20.0,11.0,0.0
17146,49.0,1.0,20.0,12.0,0.0
17147,37.0,38.0,20.0,13.0,0.0
17148,86.0,2.0,60.0,0.0,0.0
17149,74.0,0.0,60.0,0.0,0.0
17150,86.0,0.0,60.0,8.0,0.0
17151,74.0,2.0,60.0,10.0,0.0
17152,62.0,1.0,60.0,11.0,0.0
17153,50.0,2.0,60.0,12.0,0.0
17154,38.0,9.0,60.0,13.0,0.0
17155,88.0,0.0,60.0,8.0,0.0
17156,88.0,2.0,60.0,0.0,0.0
17157,76.0,0.0,60.0,0.0,0.0
17158,86.0,0.0,60.0,1.0,0.0
17159,62.0,0.0,60.0,5.0,0.0
17160,74.0,0.0,60.0,1.0,0.0
17161,50.0,0.0,60.0,4.0,0.0
17162,62.0,4.0,60.0,4.0,0.0
17163,76.0,2.0,60.0,10.0,0.0
17164,64.0,1.0,60.0,11.0,0.0
17165,52.0,2.0,60.0,12.0,0.0
17166,40.0,9.0,60.0,13.0,0.0
17167,86.0,2.0,60.0,8.0,0.0
17168,74.0,0.0,60.0,0.0,0.0
17169,86.0,0.0,60.0,0.0,0.0
17170,74.0,1.0,15.0,5.0,0.0
17171,62.0,0.0,120.0,5.0,0.0
17172,74.0,0.0,15.0,2.0,0.0
17173,86.0,0.0,15.0,2.0,0.0
17174,74.0,2.0,60.0,10.0,0.0
17175,50.0,2.0,120.0,4.0,0.0
17176,62.0,0.0,120.0,4.0,0.0
17177,62.0,1.0,60.0,11.0,0.0
17178,50.0,2.0,60.0,12.0,0.0
17179,50.0,0.0,15.0,6.0,0.0
17180,50.0,0.0,15.0,3.0,0.0
17181,62.0,39.0,15.0,3.0,0.0
17182,38.0,9.0,60.0,13.0,0.0
17183,76.0,2.0,20.0,0.0,0.0
17184,88.0,0.0,20.0,8.0,0.0
17185,88.0,0.0,20.0,0.0,0.0
17186,86.0,1.0,15.0,1.0,0.0
17187,74.0,0.0,15.0,1.0,0.0
17188,86.0,4.0,15.0,2.0,0.0
17189,76.0,2.0,20.0,10.0,0.0
17190,74.0,0.0,15.0,2.0,0.0
17191,64.0,1.0,20.0,11.0,0.0
17192,52.0,2.0,20.0,12.0,0.0
17193,50.0,14.0,15.0,3.0,0.0
17194,62.0,0.0,120.0,3.0,0.0
17195,40.0,13.0,20.0,13.0,0.0
17196,74.0,2.0,20.0,0.0,0.0
17197,86.0,0.0,20.0,8.0,0.0
17198,86.0,0.0,20.0,0.0,0.0
17199,74.0,2.0,20.0,10.0,0.0
17200,62.0,1.0,20.0,11.0,0.0
17201,50.0,2.0,20.0,12.0,0.0
17202,38.0,13.0,20.0,13.0,0.0
17203,85.0,0.0,20.0,0.0,0.0
17204,73.0,0.0,20.0,0.0,0.0
17205,85.0,1.0,20.0,8.0,0.0
17206,73.0,0.0,20.0,10.0,0.0
17207,61.0,1.0,20.0,11.0,0.0
17208,49.0,1.0,20.0,12.0,0.0
17209,37.0,38.0,20.0,13.0,0.0
17210,74.0,2.0,60.0,0.0,0.0
17211,86.0,0.0,60.0,0.0,0.0
17212,86.0,0.0,60.0,8.0,0.0
17213,74.0,2.0,60.0,10.0,0.0
17214,62.0,1.0,60.0,11.0,0.0
17215,50.0,2.0,60.0,12.0,0.0
17216,38.0,9.0,60.0,13.0,0.0
17217,76.0,0.0,60.0,0.0,0.0
17218,88.0,0.0,60.0,8.0,0.0
17219,88.0,2.0,60.0,0.0,0.0
17220,86.0,1.0,15.0,1.0,0.0
17221,74.0,0.0,60.0,5.0,0.0
17222,62.0,0.0,60.0,4.0,0.0
17223,86.0,0.0,15.0,2.0,0.0
17224,74.0,0.0,60.0,2.0,0.0
17225,76.0,2.0,60.0,10.0,0.0
17226,64.0,1.0,60.0,11.0,0.0
17227,52.0,2.0,60.0,12.0,0.0
17228,50.0,39.0,15.0,3.0,0.0
17229,62.0,0.0,60.0,3.0,0.0
17230,40.0,9.0,60.0,13.0,0.0
17231,86.0,0.0,60.0,8.0,0.0
17232,74.0,0.0,60.0,0.0,0.0
17233,86.0,2.0,60.0,0.0,0.0
17234,86.0,1.0,15.0,1.0,0.0
17235,74.0,0.0,15.0,1.0,0.0
17236,62.0,0.0,15.0,5.0,0.0
17237,74.0,0.0,60.0,5.0,0.0
17238,74.0,2.0,60.0,10.0,0.0
17239,50.0,4.0,15.0,4.0,0.0
17240,62.0,1.0,60.0,11.0,0.0
17241,50.0,2.0,60.0,12.0,0.0
17242,50.0,0.0,15.0,3.0,0.0
17243,50.0,39.0,15.0,6.0,0.0
17244,38.0,9.0,60.0,13.0,0.0
17245,76.0,2.0,20.0,0.0,0.0
17246,88.0,0.0,20.0,0.0,0.0
17247,88.0,0.0,20.0,8.0,0.0
17248,74.0,0.0,60.0,5.0,0.0
17249,86.0,1.0,15.0,1.0,0.0
17250,74.0,0.0,15.0,1.0,0.0
17251,62.0,0.0,15.0,4.0,0.0
17252,74.0,0.0,15.0,2.0,0.0
17253,86.0,4.0,15.0,2.0,0.0
17254,76.0,2.0,20.0,10.0,0.0
17255,64.0,1.0,20.0,11.0,0.0
17256,52.0,2.0,20.0,12.0,0.0
17257,62.0,0.0,15.0,3.0,0.0
17258,50.0,0.0,120.0,3.0,0.0
17259,50.0,1.0,60.0,6.0,0.0
17260,40.0,13.0,20.0,13.0,0.0
17261,86.0,0.0,20.0,0.0,0.0
17262,74.0,2.0,20.0,0.0,0.0
17263,86.0,0.0,20.0,8.0,0.0
17264,74.0,2.0,20.0,10.0,0.0
17265,62.0,1.0,20.0,11.0,0.0
17266,50.0,2.0,20.0,12.0,0.0
17267,38.0,13.0,20.0,13.0,0.0
17268,73.0,1.0,20.0,0.0,0.0
17269,85.0,0.0,20.0,8.0,0.0
17270,85.0,0.0,20.0,0.0,0.0
17271,73.0,2.0,20.0,10.0,0.0
17272,61.0,1.0,20.0,11.0,0.0
17273,49.0,1.0,20.0,12.0,0.0
17274,37.0,38.0,20.0,13.0,0.0
17275,86.0,0.0,60.0,8.0,0.0
17276,86.0,2.0,60.0,0.0,0.0
17277,74.0,0.0,60.0,0.0,0.0
17278,62.0,1.0,15.0,5.0,0.0
17279,74.0,0.0,60.0,5.0,0.0
17280,62.0,0.0,15.0,4.0,0.0
17281,50.0,0.0,15.0,4.0,0.0
17282,74.0,2.0,60.0,10.0,0.0
17283,62.0,1.0,60.0,11.0,0.0
17284,50.0,2.0,60.0,12.0,0.0
17285,38.0,9.0,60.0,13.0,0.0
17286,86.0,2.0,60.0,8.0,0.0
17287,86.0,0.0,60.0,0.0,0.0
17288,74.0,0.0,60.0,0.0,0.0
17289,74.0,0.0,60.0,5.0,0.0
17290,74.0,0.0,60.0,1.0,0.0
17291,86.0,1.0,15.0,1.0,0.0
17292,62.0,1.0,60.0,5.0,0.0
17293,50.0,0.0,60.0,4.0,0.0
17294,74.0,2.0,60.0,10.0,0.0
17295,74.0,0.0,15.0,2.0,0.0
17296,86.0,4.0,15.0,2.0,0.0
17297,62.0,4.0,60.0,4.0,0.0
17298,62.0,1.0,60.0,11.0,0.0
17299,50.0,2.0,60.0,12.0,0.0
17300,50.0,39.0,15.0,6.0,0.0
17301,62.0,0.0,15.0,3.0,0.0
17302,50.0,114.0,60.0,3.0,0.0
17303,38.0,9.0,60.0,13.0,0.0
17304,79.0,0.0,600.0,0.0,0.0
17305,67.0,0.0,600.0,0.0,0.0
17306,59.0,2.0,120.0,8.0,0.0
17307,67.0,0.0,120.0,8.0,0.0
17308,79.0,0.0,600.0,8.0,0.0
17309,83.0,1.0,600.0,1.0,0.0
17310,79.0,0.0,600.0,1.0,0.0
17311,67.0,0.0,600.0,5.0,0.0
17312,79.0,0.0,600.0,5.0,0.0
17313,79.0,2.0,600.0,10.0,0.0
17314,79.0,0.0,1920.0,2.0,0.0
17315,71.0,0.0,1920.0,2.0,0.0
17316,59.0,118.0,1920.0,4.0,0.0
17317,67.0,0.0,1920.0,4.0,0.0
17318,59.0,0.0,120.0,10.0,0.0
17319,67.0,4.0,120.0,10.0,0.0
17320,59.0,1.0,600.0,11.0,0.0
17321,55.0,0.0,600.0,11.0,0.0
17322,55.0,1.0,600.0,12.0,0.0
17323,55.0,369.0,120.0,6.0,0.0
17324,55.0,1.0,600.0,3.0,0.0
17325,59.0,0.0,600.0,3.0,0.0
17326,43.0,8.0,600.0,13.0,0.0
17327,43.0,15.0,15.0,7.0,0.0
17328,47.0,15.0,15.0,7.0,0.0
17329,50.0,15.0,15.0,7.0,0.0
17330,55.0,15.0,15.0,7.0,0.0
17331,59.0,15.0,15.0,7.0,0.0
17332,62.0,15.0,15.0,7.0,0.0
17333,67.0,15.0,15.0,7.0,0.0
17334,71.0,1.0,15.0,7.0,0.0
17335,55.0,15.0,15.0,7.0,0.0
17336,59.0,15.0,15.0,7.0,0.0
17337,62.0,15.0,15.0,7.0,0.0
17338,67.0,15.0,15.0,7.0,0.0
17339,71.0,15.0,15.0,7.0,0.0
17340,74.0,15.0,15.0,7.0,0.0
17341,79.0,15.0,15.0,7.0,0.0
17342,83.0,15.0,15.0,7.0,0.0
17343,67.0,15.0,15.0,7.0,0.0
17344,71.0,15.0,15.0,7.0,0.0
17345,74.0,15.0,15.0,7.0,0.0
17346,79.0,15.0,15.0,7.0,0.0
17347,83.0,15.0,15.0,7.0,0.0
17348,86.0,15.0,15.0,7.0,0.0
17349,91.0,15.0,15.0,7.0,0.0
17350,95.0,15.0,15.0,7.0,0.0
17351,71.0,15.0,15.0,7.0,0.0
17352,74.0,15.0,15.0,7.0,0.0
17353,79.0,15.0,15.0,7.0,0.0
17354,83.0,15.0,15.0,7.0,0.0
17355,86.0,15.0,15.0,7.0,0.0
17356,91.0,15.0,15.0,7.0,0.0
17357,95.0,15.0,15.0,7.0,0.0
17358,98.0,30.0,15.0,7.0,0.0
17359,71.0,30.0,30.0,7.0,0.0
17360,83.0,0.0,30.0,7.0,0.0
17361,98.0,0.0,30.0,7.0,0.0
17362,86.0,30.0,30.0,7.0,0.0
17363,79.0,0.0,30.0,7.0,0.0
17364,67.0,30.0,30.0,7.0,0.0
17365,95.0,0.0,30.0,7.0,0.0
17366,83.0,30.0,30.0,7.0,0.0
17367,67.0,0.0,30.0,7.0,0.0
17368,79.0,30.0,30.0,7.0,0.0
17369,83.0,30.0,30.0,7.0,0.0
17370,95.0,0.0,30.0,7.0,0.0
17371,74.0,30.0,30.0,7.0,0.0
17372,62.0,0.0,30.0,7.0,0.0
17373,91.0,30.0,30.0,7.0,0.0
17374,79.0,0.0,30.0,7.0,0.0
17375,62.0,0.0,30.0,7.0,0.0
17376,74.0,30.0,30.0,7.0,0.0
17377,91.0,0.0,30.0,7.0,0.0
17378,79.0,30.0,30.0,7.0,0.0
17379,59.0,0.0,30.0,7.0,0.0
17380,71.0,30.0,30.0,7.0,0.0
17381,86.0,30.0,30.0,7.0,0.0
17382,74.0,0.0,30.0,7.0,0.0
17383,59.0,0.0,30.0,7.0,0.0
17384,71.0,30.0,30.0,7.0,0.0
17385,74.0,30.0,30.0,7.0,0.0
17386,86.0,0.0,30.0,7.0,0.0
17387,55.0,30.0,30.0,7.0,0.0
17388,67.0,0.0,30.0,7.0,0.0
17389,71.0,30.0,30.0,7.0,0.0
17390,83.0,0.0,30.0,7.0,0.0
17391,55.0,0.0,30.0,7.0,0.0
17392,67.0,30.0,30.0,7.0,0.0
17393,83.0,30.0,30.0,7.0,0.0
17394,71.0,0.0,30.0,7.0,0.0
17395,50.0,30.0,30.0,7.0,0.0
17396,62.0,0.0,30.0,7.0,0.0
17397,67.0,30.0,30.0,7.0,0.0
17398,79.0,0.0,30.0,7.0,0.0
17399,62.0,0.0,30.0,7.0,0.0
17400,50.0,30.0,30.0,7.0,0.0
17401,79.0,30.0,30.0,7.0,0.0
17402,67.0,0.0,30.0,7.0,0.0
17403,47.0,0.0,30.0,7.0,0.0
17404,59.0,30.0,30.0,7.0,0.0
17405,74.0,0.0,30.0,7.0,0.0
17406,62.0,30.0,30.0,7.0,0.0
17407,47.0,30.0,30.0,7.0,0.0
17408,59.0,0.0,30.0,7.0,0.0
17409,74.0,0.0,30.0,7.0,0.0
17410,62.0,30.0,30.0,7.0,0.0
17411,43.0,30.0,30.0,7.0,0.0
17412,55.0,0.0,30.0,7.0,0.0
17413,59.0,30.0,30.0,7.0,0.0
17414,71.0,0.0,30.0,7.0,0.0
17415,55.0,0.0,30.0,7.0,0.0
17416,43.0,30.0,30.0,7.0,0.0
17417,59.0,30.0,30.0,7.0,0.0
17418,71.0,0.0,30.0,7.0,0.0
17419,43.0,0.0,30.0,7.0,0.0
17420,55.0,30.0,15.0,7.0,0.0
17421,67.0,0.0,30.0,7.0,0.0
17422,36.0,0.0,120.0,7.0,0.0
17423,76.0,0.0,120.0,7.0,0.0
17424,72.0,6.0,120.0,7.0,0.0
17425,67.0,0.0,120.0,7.0,0.0
17426,64.0,0.0,120.0,7.0,0.0
17427,88.0,0.0,600.0,0.0,0.0
17428,84.0,0.0,600.0,0.0,0.0
17429,48.0,0.0,120.0,7.0,0.0
17430,72.0,0.0,120.0,8.0,0.0
17431,79.0,0.0,120.0,8.0,0.0
17432,40.0,0.0,120.0,7.0,0.0
17433,43.0,0.0,120.0,7.0,0.0
17434,88.0,0.0,600.0,8.0,0.0
17435,67.0,0.0,600.0,5.0,0.0
17436,79.0,0.0,600.0,5.0,0.0
17437,76.0,0.0,600.0,1.0,0.0
17438,84.0,1.0,600.0,1.0,0.0
17439,84.0,0.0,600.0,10.0,0.0
17440,76.0,2.0,600.0,10.0,0.0
17441,76.0,0.0,1920.0,2.0,0.0
17442,55.0,118.0,1920.0,4.0,0.0
17443,67.0,0.0,1920.0,4.0,0.0
17444,60.0,1.0,600.0,11.0,0.0
17445,72.0,0.0,600.0,11.0,0.0
17446,48.0,1.0,600.0,12.0,0.0
17447,55.0,369.0,120.0,6.0,0.0
17448,64.0,1.0,600.0,3.0,0.0
17449,60.0,0.0,600.0,3.0,0.0
17450,36.0,8.0,600.0,13.0,0.0
17451,36.0,15.0,15.0,7.0,0.0
17452,40.0,15.0,15.0,7.0,0.0
17453,43.0,15.0,15.0,7.0,0.0
17454,48.0,15.0,15.0,7.0,0.0
17455,52.0,15.0,15.0,7.0,0.0
17456,55.0,15.0,15.0,7.0,0.0
17457,60.0,15.0,15.0,7.0,0.0
17458,64.0,1.0,15.0,7.0,0.0
17459,48.0,15.0,15.0,7.0,0.0
17460,52.0,15.0,15.0,7.0,0.0
17461,55.0,15.0,15.0,7.0,0.0
17462,60.0,15.0,15.0,7.0,0.0
17463,64.0,15.0,15.0,7.0,0.0
17464,67.0,15.0,15.0,7.0,0.0
17465,72.0,15.0,15.0,7.0,0.0
17466,76.0,15.0,15.0,7.0,0.0
17467,60.0,15.0,15.0,7.0,0.0
17468,64.0,15.0,15.0,7.0,0.0
17469,67.0,15.0,15.0,7.0,0.0
17470,72.0,15.0,15.0,7.0,0.0
17471,76.0,15.0,15.0,7.0,0.0
17472,79.0,15.0,15.0,7.0,0.0
17473,84.0,15.0,15.0,7.0,0.0
17474,88.0,15.0,15.0,7.0,0.0
17475,72.0,15.0,15.0,7.0,0.0
17476,76.0,15.0,15.0,7.0,0.0
17477,79.0,15.0,15.0,7.0,0.0
17478,84.0,15.0,15.0,7.0,0.0
17479,88.0,15.0,15.0,7.0,0.0
17480,91.0,15.0,15.0,7.0,0.0
17481,96.0,15.0,15.0,7.0,0.0
17482,100.0,30.0,15.0,7.0,0.0
17483,72.0,0.0,30.0,7.0,0.0
17484,84.0,30.0,30.0,7.0,0.0
17485,88.0,30.0,30.0,7.0,0.0
17486,100.0,0.0,30.0,7.0,0.0
17487,79.0,30.0,30.0,7.0,0.0
17488,67.0,0.0,30.0,7.0,0.0
17489,96.0,30.0,30.0,7.0,0.0
17490,84.0,0.0,30.0,7.0,0.0
17491,79.0,30.0,30.0,7.0,0.0
17492,67.0,0.0,30.0,7.0,0.0
17493,96.0,30.0,30.0,7.0,0.0
17494,84.0,0.0,30.0,7.0,0.0
17495,76.0,30.0,30.0,7.0,0.0
17496,64.0,0.0,30.0,7.0,0.0
17497,91.0,30.0,30.0,7.0,0.0
17498,79.0,0.0,30.0,7.0,0.0
17499,64.0,0.0,30.0,7.0,0.0
17500,76.0,30.0,30.0,7.0,0.0
17501,91.0,30.0,30.0,7.0,0.0
17502,79.0,0.0,30.0,7.0,0.0
17503,60.0,0.0,30.0,7.0,0.0
17504,72.0,30.0,30.0,7.0,0.0
17505,88.0,30.0,30.0,7.0,0.0
17506,76.0,0.0,30.0,7.0,0.0
17507,72.0,0.0,30.0,7.0,0.0
17508,60.0,30.0,30.0,7.0,0.0
17509,88.0,30.0,30.0,7.0,0.0
17510,76.0,0.0,30.0,7.0,0.0
17511,67.0,0.0,30.0,7.0,0.0
17512,55.0,30.0,30.0,7.0,0.0
17513,72.0,0.0,30.0,7.0,0.0
17514,84.0,30.0,30.0,7.0,0.0
17515,67.0,30.0,30.0,7.0,0.0
17516,55.0,0.0,30.0,7.0,0.0
17517,84.0,30.0,30.0,7.0,0.0
17518,72.0,0.0,30.0,7.0,0.0
17519,64.0,30.0,30.0,7.0,0.0
17520,52.0,0.0,30.0,7.0,0.0
17521,79.0,30.0,30.0,7.0,0.0
17522,67.0,0.0,30.0,7.0,0.0
17523,64.0,0.0,30.0,7.0,0.0
17524,52.0,30.0,30.0,7.0,0.0
17525,67.0,0.0,30.0,7.0,0.0
17526,79.0,30.0,30.0,7.0,0.0
17527,60.0,0.0,30.0,7.0,0.0
17528,48.0,30.0,30.0,7.0,0.0
17529,64.0,0.0,30.0,7.0,0.0
17530,76.0,30.0,30.0,7.0,0.0
17531,60.0,0.0,30.0,7.0,0.0
17532,48.0,30.0,30.0,7.0,0.0
17533,64.0,0.0,30.0,7.0,0.0
17534,76.0,30.0,30.0,7.0,0.0
17535,55.0,30.0,30.0,7.0,0.0
17536,43.0,0.0,30.0,7.0,0.0
17537,72.0,0.0,30.0,7.0,0.0
17538,60.0,30.0,30.0,7.0,0.0
17539,43.0,30.0,30.0,7.0,0.0
17540,55.0,0.0,15.0,7.0,0.0
17541,67.0,30.0,30.0,7.0,0.0
17542,52.0,30.0,30.0,7.0,0.0
17543,40.0,0.0,30.0,7.0,0.0
17544,52.0,2.0,30.0,7.0,0.0
17545,64.0,0.0,30.0,7.0,0.0
17546,45.0,2.0,120.0,7.0,0.0
17547,78.0,0.0,120.0,7.0,0.0
17548,74.0,0.0,120.0,7.0,0.0
17549,72.0,0.0,120.0,7.0,0.0
17550,50.0,0.0,120.0,7.0,0.0
17551,38.0,0.0,120.0,7.0,0.0
17552,42.0,0.0,120.0,7.0,0.0
17553,84.0,0.0,120.0,7.0,0.0
17554,93.0,0.0,600.0,0.0,0.0
17555,84.0,0.0,600.0,0.0,0.0
17556,84.0,1.0,600.0,8.0,0.0
17557,66.0,0.0,120.0,8.0,0.0
17558,74.0,0.0,120.0,8.0,0.0
17559,81.0,0.0,120.0,7.0,0.0
17560,84.0,0.0,600.0,1.0,0.0
17561,81.0,0.0,600.0,1.0,0.0
17562,62.0,1.0,600.0,5.0,0.0
17563,74.0,0.0,600.0,5.0,0.0
17564,81.0,0.0,600.0,2.0,0.0
17565,72.0,0.0,15.0,2.0,0.0
17566,50.0,0.0,120.0,4.0,0.0
17567,81.0,0.0,600.0,10.0,0.0
17568,74.0,0.0,600.0,10.0,0.0
17569,66.0,0.0,600.0,11.0,0.0
17570,62.0,1.0,600.0,11.0,0.0
17571,50.0,1.0,600.0,12.0,0.0
17572,60.0,1.0,600.0,3.0,0.0
17573,57.0,0.0,600.0,3.0,0.0
17574,50.0,376.0,120.0,6.0,0.0
17575,38.0,15.0,600.0,13.0,0.0
17576,62.0,4.0,15.0,4.0,0.0
17577,74.0,2.0,480.0,4.0,0.0
17578,50.0,30.0,20.0,7.0,0.0
17579,62.0,0.0,20.0,7.0,0.0
17580,52.0,30.0,20.0,7.0,0.0
17581,64.0,0.0,20.0,7.0,0.0
17582,66.0,0.0,20.0,7.0,0.0
17583,50.0,0.0,20.0,7.0,0.0
17584,54.0,30.0,20.0,7.0,0.0
17585,67.0,8.0,20.0,7.0,0.0
17586,55.0,0.0,20.0,7.0,0.0
17587,52.0,0.0,20.0,7.0,0.0
17588,69.0,30.0,20.0,7.0,0.0
17589,57.0,0.0,20.0,7.0,0.0
17590,54.0,0.0,20.0,7.0,0.0
17591,55.0,0.0,20.0,7.0,0.0
17592,59.0,0.0,20.0,7.0,0.0
17593,71.0,30.0,20.0,7.0,0.0
17594,72.0,0.0,20.0,7.0,0.0
17595,60.0,30.0,20.0,7.0,0.0
17596,57.0,0.0,20.0,7.0,0.0
17597,62.0,30.0,20.0,7.0,0.0
17598,74.0,0.0,20.0,7.0,0.0
17599,59.0,0.0,20.0,7.0,0.0
17600,60.0,0.0,20.0,7.0,0.0
17601,76.0,30.0,20.0,7.0,0.0
17602,64.0,0.0,20.0,7.0,0.0
17603,78.0,30.0,20.0,7.0,0.0
17604,66.0,0.0,20.0,7.0,0.0
17605,62.0,0.0,20.0,7.0,0.0
17606,67.0,0.0,20.0,7.0,0.0
17607,79.0,0.0,20.0,7.0,0.0
17608,64.0,30.0,20.0,7.0,0.0
17609,69.0,0.0,20.0,7.0,0.0
17610,81.0,30.0,20.0,7.0,0.0
17611,66.0,0.0,20.0,7.0,0.0
17612,71.0,0.0,20.0,7.0,0.0
17613,67.0,0.0,20.0,7.0,0.0
17614,83.0,30.0,20.0,7.0,0.0
17615,84.0,0.0,20.0,7.0,0.0
17616,72.0,30.0,20.0,7.0,0.0
17617,69.0,0.0,20.0,7.0,0.0
17618,71.0,0.0,20.0,7.0,0.0
17619,86.0,0.0,20.0,7.0,0.0
17620,74.0,30.0,20.0,7.0,0.0
17621,88.0,0.0,20.0,7.0,0.0
17622,76.0,0.0,20.0,7.0,0.0
17623,72.0,30.0,20.0,7.0,0.0
17624,62.0,0.0,20.0,7.0,0.0
17625,78.0,30.0,20.0,7.0,0.0
17626,90.0,0.0,20.0,7.0,0.0
17627,74.0,0.0,20.0,7.0,0.0
17628,91.0,0.0,20.0,7.0,0.0
17629,79.0,0.0,20.0,7.0,0.0
17630,64.0,0.0,20.0,7.0,0.0
17631,76.0,30.0,20.0,7.0,0.0
17632,66.0,0.0,20.0,7.0,0.0
17633,78.0,0.0,20.0,7.0,0.0
17634,81.0,30.0,20.0,7.0,0.0
17635,93.0,0.0,20.0,7.0,0.0
17636,95.0,0.0,20.0,7.0,0.0
17637,67.0,0.0,20.0,7.0,0.0
17638,79.0,0.0,20.0,7.0,0.0
17639,83.0,48.0,20.0,7.0,0.0
17640,96.0,0.0,30.0,7.0,0.0
17641,81.0,40.0,30.0,7.0,0.0
17642,69.0,0.0,30.0,7.0,0.0
17643,84.0,0.0,30.0,7.0,0.0
17644,71.0,0.0,30.0,7.0,0.0
17645,96.0,0.0,30.0,7.0,0.0
17646,86.0,0.0,30.0,7.0,0.0
17647,81.0,40.0,30.0,7.0,0.0
17648,72.0,0.0,30.0,7.0,0.0
17649,96.0,60.0,30.0,7.0,0.0
17650,81.0,0.0,30.0,7.0,0.0
17651,88.0,0.0,30.0,7.0,0.0
17652,90.0,0.0,60.0,7.0,0.0
17653,74.0,0.0,60.0,7.0,0.0
17654,81.0,0.0,60.0,7.0,0.0
17655,96.0,120.0,60.0,7.0,0.0
17656,79.0,60.0,120.0,7.0,0.0
17657,67.0,0.0,120.0,7.0,0.0
17658,95.0,0.0,120.0,7.0,0.0
17659,83.0,0.0,120.0,7.0,0.0
17660,78.0,0.0,15.0,7.0,0.0
17661,87.0,0.0,15.0,7.0,0.0
17662,93.0,0.0,15.0,7.0,0.0
17663,71.0,60.0,15.0,7.0,0.0
17664,64.0,60.0,120.0,7.0,0.0
17665,91.0,0.0,120.0,7.0,0.0
17666,79.0,0.0,120.0,7.0,0.0
17667,76.0,0.0,120.0,7.0,0.0
17668,67.0,0.0,60.0,7.0,0.0
17669,89.0,60.0,15.0,7.0,0.0
17670,83.0,0.0,15.0,7.0,0.0
17671,74.0,0.0,15.0,7.0,0.0
17672,67.0,0.0,60.0,7.0,0.0
17673,88.0,60.0,60.0,7.0,0.0
17674,60.0,0.0,60.0,7.0,0.0
17675,76.0,0.0,60.0,7.0,0.0
17676,72.0,0.0,60.0,7.0,0.0
17677,64.0,60.0,60.0,7.0,0.0
17678,71.0,0.0,60.0,7.0,0.0
17679,80.0,0.0,60.0,7.0,0.0
17680,86.0,0.0,60.0,7.0,0.0
17681,72.0,60.0,60.0,7.0,0.0
17682,69.0,0.0,60.0,7.0,0.0
17683,57.0,0.0,60.0,7.0,0.0
17684,84.0,0.0,60.0,7.0,0.0
17685,83.0,60.0,60.0,7.0,0.0
17686,74.0,0.0,60.0,7.0,0.0
17687,68.0,0.0,60.0,7.0,0.0
17688,59.0,0.0,60.0,7.0,0.0
17689,60.0,0.0,60.0,7.0,0.0
17690,64.0,0.0,60.0,7.0,0.0
17691,76.0,60.0,60.0,7.0,0.0
17692,81.0,0.0,60.0,7.0,0.0
17693,79.0,60.0,60.0,7.0,0.0
17694,61.0,0.0,60.0,7.0,0.0
17695,64.0,0.0,60.0,7.0,0.0
17696,70.0,0.0,60.0,7.0,0.0
17697,69.0,0.0,60.0,7.0,0.0
17698,66.0,0.0,60.0,7.0,0.0
17699,78.0,60.0,60.0,7.0,0.0
17700,76.0,0.0,60.0,7.0,0.0
17701,71.0,0.0,60.0,7.0,0.0
17702,67.0,60.0,60.0,7.0,0.0
17703,62.0,0.0,15.0,7.0,0.0
17704,62.0,60.0,60.0,7.0,0.0
17705,66.0,0.0,60.0,7.0,0.0
17706,74.0,0.0,60.0,7.0,0.0
17707,69.0,0.0,15.0,7.0,0.0
17708,72.0,0.0,60.0,7.0,0.0
17709,63.0,60.0,15.0,7.0,0.0
17710,69.0,0.0,15.0,7.0,0.0
17711,72.0,0.0,60.0,7.0,0.0
17712,67.0,0.0,15.0,7.0,0.0
17713,71.0,20.0,20.0,7.0,0.0
17714,63.0,0.0,15.0,7.0,0.0
17715,69.0,0.0,480.0,7.0,0.0
17716,67.0,0.0,480.0,7.0,0.0
17717,74.0,20.0,20.0,7.0,0.0
17718,72.0,20.0,20.0,7.0,0.0
17719,74.0,20.0,20.0,7.0,0.0
17720,72.0,20.0,20.0,7.0,0.0
17721,74.0,20.0,20.0,7.0,0.0
17722,72.0,20.0,20.0,7.0,0.0
17723,74.0,20.0,20.0,7.0,0.0
17724,72.0,20.0,20.0,7.0,0.0
17725,74.0,20.0,20.0,7.0,0.0
17726,72.0,20.0,20.0,7.0,0.0
17727,74.0,20.0,20.0,7.0,0.0
17728,72.0,20.0,20.0,7.0,0.0
17729,74.0,20.0,20.0,7.0,0.0
17730,72.0,20.0,20.0,7.0,0.0
17731,74.0,20.0,20.0,7.0,0.0
17732,72.0,20.0,20.0,7.0,0.0
17733,74.0,20.0,20.0,7.0,0.0
17734,72.0,20.0,20.0,7.0,0.0
17735,74.0,20.0,20.0,7.0,0.0
17736,72.0,20.0,20.0,7.0,0.0
17737,74.0,20.0,20.0,7.0,0.0
17738,72.0,20.0,20.0,7.0,0.0
17739,74.0,0.0,20.0,7.0,0.0
17740,66.0,0.0,240.0,7.0,0.0
17741,72.0,20.0,20.0,7.0,0.0
17742,62.0,0.0,240.0,7.0,0.0
17743,69.0,0.0,240.0,7.0,0.0
17744,74.0,20.0,20.0,7.0,0.0
17745,72.0,20.0,20.0,7.0,0.0
17746,74.0,20.0,20.0,7.0,0.0
17747,72.0,20.0,20.0,7.0,0.0
17748,74.0,15.0,20.0,7.0,0.0
17749,72.0,15.0,15.0,7.0,0.0
17750,74.0,15.0,15.0,7.0,0.0
17751,72.0,15.0,15.0,7.0,0.0
17752,74.0,30.0,15.0,7.0,0.0
17753,71.0,30.0,30.0,7.0,0.0
17754,72.0,30.0,30.0,7.0,0.0
17755,74.0,30.0,30.0,7.0,0.0
17756,72.0,30.0,30.0,7.0,0.0
17757,71.0,30.0,30.0,7.0,0.0
17758,69.0,30.0,30.0,7.0,0.0
17759,79.0,30.0,30.0,7.0,0.0
17760,78.0,30.0,30.0,7.0,0.0
17761,76.0,30.0,30.0,7.0,0.0
17762,74.0,30.0,30.0,7.0,0.0
17763,83.0,30.0,30.0,7.0,0.0
17764,81.0,30.0,30.0,7.0,0.0
17765,79.0,30.0,30.0,7.0,0.0
17766,78.0,30.0,30.0,7.0,0.0
17767,86.0,30.0,30.0,7.0,0.0
17768,84.0,30.0,30.0,7.0,0.0
17769,83.0,30.0,30.0,7.0,0.0
17770,81.0,30.0,30.0,7.0,0.0
17771,91.0,30.0,30.0,7.0,0.0
17772,90.0,30.0,30.0,7.0,0.0
17773,88.0,30.0,30.0,7.0,0.0
17774,86.0,30.0,30.0,7.0,0.0
17775,95.0,30.0,30.0,7.0,0.0
17776,93.0,30.0,30.0,7.0,0.0
17777,91.0,30.0,30.0,7.0,0.0
17778,90.0,30.0,30.0,7.0,0.0
17779,98.0,30.0,30.0,7.0,0.0
17780,96.0,30.0,30.0,7.0,0.0
17781,95.0,30.0,30.0,7.0,0.0
17782,93.0,30.0,30.0,7.0,0.0
17783,100.0,30.0,30.0,7.0,0.0
17784,98.0,30.0,30.0,7.0,0.0
17785,96.0,30.0,30.0,7.0,0.0
17786,95.0,30.0,30.0,7.0,0.0
17787,93.0,30.0,30.0,7.0,0.0
17788,91.0,30.0,30.0,7.0,0.0
17789,90.0,30.0,30.0,7.0,0.0
17790,88.0,30.0,30.0,7.0,0.0
17791,86.0,30.0,30.0,7.0,0.0
17792,84.0,30.0,30.0,7.0,0.0
17793,83.0,30.0,30.0,7.0,0.0
17794,81.0,30.0,30.0,7.0,0.0
17795,79.0,30.0,30.0,7.0,0.0
17796,78.0,30.0,30.0,7.0,0.0
17797,76.0,30.0,30.0,7.0,0.0
17798,74.0,30.0,30.0,7.0,0.0
17799,72.0,30.0,30.0,7.0,0.0
17800,71.0,30.0,30.0,7.0,0.0
17801,69.0,30.0,30.0,7.0,0.0
17802,67.0,30.0,30.0,7.0,0.0
17803,66.0,30.0,30.0,7.0,0.0
17804,64.0,30.0,30.0,7.0,0.0
17805,62.0,30.0,30.0,7.0,0.0
17806,60.0,30.0,30.0,7.0,0.0
17807,59.0,30.0,30.0,7.0,0.0
17808,57.0,30.0,30.0,7.0,0.0
17809,55.0,30.0,30.0,7.0,0.0
17810,54.0,30.0,30.0,7.0,0.0
17811,52.0,30.0,30.0,7.0,0.0
17812,50.0,30.0,30.0,7.0,0.0
17813,49.0,30.0,30.0,7.0,0.0
17814,50.0,30.0,30.0,7.0,0.0
17815,51.0,30.0,30.0,7.0,0.0
17816,52.0,30.0,30.0,7.0,0.0
17817,53.0,30.0,30.0,7.0,0.0
17818,54.0,30.0,30.0,7.0,0.0
17819,55.0,30.0,30.0,7.0,0.0
17820,56.0,30.0,30.0,7.0,0.0
17821,57.0,30.0,30.0,7.0,0.0
17822,58.0,30.0,30.0,7.0,0.0
17823,59.0,30.0,30.0,7.0,0.0
17824,60.0,30.0,30.0,7.0,0.0
17825,61.0,30.0,30.0,7.0,0.0
17826,62.0,30.0,30.0,7.0,0.0
17827,63.0,30.0,30.0,7.0,0.0
17828,64.0,30.0,30.0,7.0,0.0
17829,65.0,30.0,30.0,7.0,0.0
17830,66.0,30.0,30.0,7.0,0.0
17831,67.0,30.0,30.0,7.0,0.0
17832,68.0,30.0,30.0,7.0,0.0
17833,69.0,30.0,30.0,7.0,0.0
17834,70.0,30.0,30.0,7.0,0.0
17835,71.0,30.0,30.0,7.0,0.0
17836,72.0,30.0,30.0,7.0,0.0
17837,73.0,30.0,30.0,7.0,0.0
17838,74.0,30.0,30.0,7.0,0.0
17839,75.0,30.0,30.0,7.0,0.0
17840,76.0,30.0,30.0,7.0,0.0
17841,77.0,30.0,30.0,7.0,0.0
17842,78.0,32.0,30.0,7.0,0.0
17843,79.0,2.0,120.0,7.0,0.0
17844,67.0,0.0,300.0,8.0,0.0
17845,83.0,1.0,300.0,0.0,0.0
17846,91.0,0.0,300.0,0.0,0.0
17847,79.0,0.0,300.0,1.0,0.0
17848,71.0,1.0,300.0,1.0,0.0
17849,79.0,0.0,300.0,5.0,0.0
17850,67.0,0.0,300.0,5.0,0.0
17851,67.0,0.0,300.0,4.0,0.0
17852,71.0,0.0,300.0,2.0,0.0
17853,55.0,0.0,300.0,4.0,0.0
17854,79.0,0.0,300.0,2.0,0.0
17855,59.0,28.0,30.0,11.0,0.0
17856,55.0,1.0,120.0,12.0,0.0
17857,55.0,14.0,300.0,3.0,0.0
17858,59.0,0.0,300.0,3.0,0.0
17859,55.0,1.0,120.0,6.0,0.0
17860,43.0,25.0,120.0,13.0,0.0
17861,62.0,2.0,15.0,10.0,0.0
17862,55.0,0.0,15.0,11.0,0.0
17863,62.0,2.0,30.0,10.0,0.0
17864,59.0,28.0,15.0,11.0,0.0
17865,55.0,0.0,15.0,11.0,0.0
17866,62.0,2.0,30.0,10.0,0.0
17867,55.0,1.0,30.0,11.0,0.0
17868,59.0,26.0,15.0,11.0,0.0
17869,62.0,2.0,30.0,10.0,0.0
17870,55.0,0.0,15.0,11.0,0.0
17871,59.0,28.0,15.0,11.0,0.0
17872,62.0,2.0,15.0,10.0,0.0
17873,59.0,28.0,15.0,11.0,0.0
17874,55.0,0.0,15.0,11.0,0.0
17875,62.0,2.0,15.0,10.0,0.0
17876,55.0,28.0,15.0,11.0,0.0
17877,55.0,0.0,15.0,11.0,0.0
17878,59.0,28.0,15.0,11.0,0.0
17879,62.0,2.0,15.0,10.0,0.0
17880,55.0,0.0,15.0,11.0,0.0
17881,59.0,26.0,15.0,11.0,0.0
17882,69.0,12.0,20.0,8.0,0.0
17883,62.0,2.0,15.0,10.0,0.0
17884,59.0,2.0,15.0,11.0,0.0
17885,55.0,0.0,15.0,11.0,0.0
17886,67.0,20.0,20.0,8.0,0.0
17887,62.0,2.0,15.0,10.0,0.0
17888,59.0,6.0,15.0,11.0,0.0
17889,55.0,0.0,15.0,11.0,0.0
17890,66.0,2.0,20.0,8.0,0.0
17891,67.0,17.0,60.0,8.0,0.0
17892,62.0,2.0,30.0,10.0,0.0
17893,59.0,0.0,15.0,11.0,0.0
17894,55.0,11.0,30.0,11.0,0.0
17895,55.0,28.0,30.0,11.0,0.0
17896,69.0,17.0,60.0,8.0,0.0
17897,62.0,2.0,15.0,10.0,0.0
17898,59.0,0.0,15.0,11.0,0.0
17899,62.0,2.0,15.0,10.0,0.0
17900,55.0,0.0,15.0,11.0,0.0
17901,59.0,11.0,15.0,11.0,0.0
17902,71.0,2.0,120.0,8.0,0.0
17903,62.0,2.0,15.0,10.0,0.0
17904,55.0,28.0,15.0,11.0,0.0
17905,59.0,0.0,30.0,11.0,0.0
17906,62.0,2.0,15.0,10.0,0.0
17907,55.0,28.0,30.0,11.0,0.0
17908,59.0,0.0,30.0,11.0,0.0
17909,62.0,2.0,15.0,10.0,0.0
17910,55.0,26.0,30.0,11.0,0.0
17911,59.0,0.0,30.0,11.0,0.0
17912,62.0,2.0,15.0,10.0,0.0
17913,59.0,0.0,30.0,11.0,0.0
17914,55.0,28.0,30.0,11.0,0.0
17915,67.0,2.0,120.0,8.0,0.0
17916,59.0,0.0,30.0,11.0,0.0
17917,55.0,28.0,30.0,11.0,0.0
17918,62.0,2.0,15.0,10.0,0.0
17919,55.0,0.0,30.0,11.0,0.0
17920,62.0,2.0,15.0,10.0,0.0
17921,59.0,28.0,15.0,11.0,0.0
17922,62.0,2.0,15.0,10.0,0.0
17923,59.0,0.0,30.0,11.0,0.0
17924,55.0,26.0,15.0,11.0,0.0
17925,64.0,2.0,120.0,8.0,0.0
17926,62.0,2.0,15.0,10.0,0.0
17927,55.0,0.0,30.0,11.0,0.0
17928,59.0,28.0,30.0,11.0,0.0
17929,62.0,2.0,30.0,10.0,0.0
17930,55.0,28.0,30.0,11.0,0.0
17931,59.0,0.0,30.0,11.0,0.0
17932,59.0,26.0,30.0,11.0,0.0
17933,55.0,0.0,30.0,11.0,0.0
17934,62.0,2.0,15.0,10.0,0.0
17935,86.0,0.0,90.0,0.0,0.0
17936,62.0,0.0,90.0,8.0,0.0
17937,71.0,0.0,90.0,2.0,0.0
17938,62.0,2.0,30.0,10.0,0.0
17939,59.0,28.0,15.0,11.0,0.0
17940,55.0,0.0,15.0,11.0,0.0
17941,55.0,1.0,90.0,12.0,0.0
17942,59.0,1.0,90.0,3.0,0.0
17943,43.0,23.0,90.0,13.0,0.0
17944,62.0,2.0,30.0,10.0,0.0
17945,55.0,28.0,15.0,11.0,0.0
17946,59.0,0.0,30.0,11.0,0.0
17947,55.0,26.0,15.0,11.0,0.0
17948,59.0,0.0,30.0,11.0,0.0
17949,83.0,1.0,15.0,0.0,0.0
17950,62.0,0.0,30.0,8.0,0.0
17951,86.0,0.0,30.0,0.0,0.0
17952,74.0,0.0,15.0,5.0,0.0
17953,62.0,0.0,15.0,5.0,0.0
17954,74.0,1.0,15.0,1.0,0.0
17955,71.0,0.0,15.0,1.0,0.0
17956,62.0,0.0,15.0,10.0,0.0
17957,74.0,2.0,15.0,2.0,0.0
17958,62.0,0.0,15.0,4.0,0.0
17959,59.0,0.0,15.0,4.0,0.0
17960,71.0,0.0,30.0,2.0,0.0
17961,59.0,1.0,30.0,11.0,0.0
17962,55.0,0.0,15.0,6.0,0.0
17963,55.0,0.0,15.0,3.0,0.0
17964,59.0,0.0,30.0,3.0,0.0
17965,83.0,1.0,15.0,0.0,0.0
17966,91.0,0.0,300.0,0.0,0.0
17967,67.0,0.0,300.0,8.0,0.0
17968,79.0,0.0,300.0,5.0,0.0
17969,67.0,1.0,300.0,5.0,0.0
17970,71.0,0.0,300.0,1.0,0.0
17971,79.0,0.0,300.0,1.0,0.0
17972,79.0,2.0,300.0,2.0,0.0
17973,71.0,0.0,300.0,2.0,0.0
17974,62.0,2.0,30.0,10.0,0.0
17975,67.0,0.0,300.0,4.0,0.0
17976,59.0,0.0,300.0,4.0,0.0
17977,55.0,0.0,15.0,11.0,0.0
17978,59.0,0.0,30.0,11.0,0.0
17979,55.0,1.0,15.0,12.0,0.0
17980,55.0,0.0,15.0,3.0,0.0
17981,59.0,1.0,300.0,3.0,0.0
17982,55.0,1.0,15.0,6.0,0.0
17983,43.0,25.0,15.0,13.0,0.0
17984,59.0,28.0,30.0,11.0,0.0
17985,55.0,0.0,30.0,11.0,0.0
17986,62.0,2.0,15.0,10.0,0.0
17987,62.0,2.0,15.0,10.0,0.0
17988,55.0,0.0,15.0,11.0,0.0
17989,59.0,28.0,15.0,11.0,0.0
17990,62.0,2.0,15.0,10.0,0.0
17991,59.0,0.0,30.0,11.0,0.0
17992,55.0,2.0,15.0,11.0,0.0
17993,62.0,2.0,30.0,10.0,0.0
17994,62.0,2.0,30.0,10.0,0.0
17995,55.0,0.0,15.0,11.0,0.0
17996,59.0,28.0,15.0,11.0,0.0
17997,62.0,2.0,30.0,10.0,0.0
17998,55.0,0.0,15.0,11.0,0.0
17999,59.0,28.0,15.0,11.0,0.0
18000,62.0,2.0,30.0,10.0,0.0
18001,55.0,0.0,15.0,11.0,0.0
18002,59.0,28.0,15.0,11.0,0.0
18003,62.0,0.0,30.0,10.0,0.0
18004,69.0,12.0,20.0,8.0,0.0
18005,62.0,2.0,30.0,10.0,0.0
18006,59.0,1.0,15.0,11.0,0.0
18007,55.0,0.0,15.0,11.0,0.0
18008,67.0,20.0,20.0,8.0,0.0
18009,62.0,2.0,30.0,10.0,0.0
18010,55.0,6.0,15.0,11.0,0.0
18011,66.0,2.0,20.0,8.0,0.0
18012,67.0,17.0,60.0,8.0,0.0
18013,59.0,0.0,15.0,11.0,0.0
18014,62.0,2.0,15.0,10.0,0.0
18015,59.0,11.0,15.0,11.0,0.0
18016,55.0,0.0,15.0,11.0,0.0
18017,69.0,17.0,60.0,8.0,0.0
18018,62.0,2.0,15.0,10.0,0.0
18019,55.0,11.0,30.0,11.0,0.0
18020,59.0,0.0,30.0,11.0,0.0
18021,59.0,28.0,30.0,11.0,0.0
18022,55.0,0.0,30.0,11.0,0.0
18023,71.0,2.0,120.0,8.0,0.0
18024,62.0,2.0,15.0,10.0,0.0
18025,55.0,0.0,30.0,11.0,0.0
18026,59.0,28.0,30.0,11.0,0.0
18027,62.0,2.0,15.0,10.0,0.0
18028,55.0,0.0,15.0,11.0,0.0
18029,59.0,28.0,15.0,11.0,0.0
18030,62.0,2.0,15.0,10.0,0.0
18031,55.0,26.0,15.0,11.0,0.0
18032,59.0,0.0,30.0,11.0,0.0
18033,67.0,2.0,120.0,8.0,0.0
18034,59.0,0.0,30.0,11.0,0.0
18035,55.0,28.0,15.0,11.0,0.0
18036,62.0,2.0,15.0,10.0,0.0
18037,59.0,0.0,30.0,11.0,0.0
18038,62.0,2.0,15.0,10.0,0.0
18039,55.0,28.0,15.0,11.0,0.0
18040,59.0,26.0,30.0,11.0,0.0
18041,64.0,2.0,120.0,8.0,0.0
18042,62.0,2.0,15.0,10.0,0.0
18043,59.0,28.0,15.0,11.0,0.0
18044,55.0,0.0,15.0,11.0,0.0
18045,62.0,2.0,15.0,10.0,0.0
18046,59.0,0.0,15.0,11.0,0.0
18047,55.0,28.0,15.0,11.0,0.0
18048,62.0,2.0,30.0,10.0,0.0
18049,59.0,28.0,15.0,11.0,0.0
18050,55.0,0.0,15.0,11.0,0.0
18051,59.0,0.0,15.0,11.0,0.0
18052,55.0,0.0,30.0,11.0,0.0
18053,86.0,0.0,90.0,0.0,0.0
18054,62.0,0.0,90.0,8.0,0.0
18055,74.0,0.0,90.0,5.0,0.0
18056,71.0,0.0,90.0,1.0,0.0
18057,62.0,2.0,15.0,10.0,0.0
18058,59.0,0.0,90.0,4.0,0.0
18059,74.0,0.0,90.0,2.0,0.0
18060,71.0,0.0,90.0,2.0,0.0
18061,59.0,28.0,15.0,11.0,0.0
18062,55.0,1.0,90.0,12.0,0.0
18063,59.0,0.0,90.0,3.0,0.0
18064,43.0,23.0,90.0,13.0,0.0
18065,67.0,0.0,15.0,10.0,0.0
18066,62.0,2.0,15.0,10.0,0.0
18067,55.0,0.0,15.0,11.0,0.0
18068,67.0,0.0,30.0,10.0,0.0
18069,62.0,0.0,30.0,10.0,0.0
18070,59.0,26.0,15.0,11.0,0.0
18071,55.0,0.0,15.0,11.0,0.0
18072,83.0,1.0,15.0,0.0,0.0
18073,74.0,0.0,30.0,8.0,0.0
18074,86.0,0.0,30.0,0.0,0.0
18075,74.0,0.0,15.0,1.0,0.0
18076,62.0,1.0,15.0,5.0,0.0
18077,71.0,1.0,30.0,1.0,0.0
18078,67.0,0.0,30.0,10.0,0.0
18079,62.0,2.0,15.0,4.0,0.0
18080,74.0,0.0,30.0,2.0,0.0
18081,71.0,0.0,30.0,2.0,0.0
18082,59.0,0.0,30.0,4.0,0.0
18083,55.0,0.0,30.0,11.0,0.0
18084,59.0,1.0,30.0,11.0,0.0
18085,55.0,1.0,30.0,12.0,0.0
18086,55.0,0.0,15.0,3.0,0.0
18087,59.0,0.0,30.0,3.0,0.0
18088,55.0,1.0,15.0,6.0,0.0
18089,43.0,59.0,30.0,13.0,0.0
18090,78.0,0.0,240.0,8.0,0.0
18091,69.0,2.0,120.0,8.0,0.0
18092,62.0,0.0,120.0,8.0,0.0
18093,90.0,0.0,240.0,0.0,0.0
18094,81.0,1.0,240.0,0.0,0.0
18095,62.0,0.0,15.0,5.0,0.0
18096,74.0,0.0,15.0,5.0,0.0
18097,69.0,1.0,240.0,1.0,0.0
18098,78.0,0.0,240.0,1.0,0.0
18099,62.0,0.0,15.0,10.0,0.0
18100,69.0,0.0,240.0,2.0,0.0
18101,69.0,118.0,120.0,10.0,0.0
18102,78.0,0.0,240.0,10.0,0.0
18103,50.0,2.0,240.0,4.0,0.0
18104,62.0,2.0,15.0,4.0,0.0
18105,62.0,1.0,240.0,11.0,0.0
18106,50.0,1.0,240.0,12.0,0.0
18107,57.0,0.0,240.0,3.0,0.0
18108,50.0,54.0,60.0,6.0,0.0
18109,50.0,1.0,240.0,3.0,0.0
18110,38.0,53.0,240.0,13.0,0.0
18111,59.0,0.0,60.0,8.0,0.0
18112,79.0,1.0,60.0,8.0,0.0
18113,67.0,0.0,60.0,8.0,0.0
18114,83.0,0.0,60.0,0.0,0.0
18115,91.0,0.0,60.0,0.0,0.0
18116,79.0,0.0,60.0,1.0,0.0
18117,71.0,1.0,60.0,1.0,0.0
18118,67.0,0.0,60.0,5.0,0.0
18119,55.0,0.0,60.0,4.0,0.0
18120,67.0,0.0,60.0,4.0,0.0
18121,74.0,0.0,15.0,2.0,0.0
18122,71.0,0.0,60.0,2.0,0.0
18123,79.0,0.0,60.0,10.0,0.0
18124,59.0,0.0,60.0,10.0,0.0
18125,67.0,0.0,60.0,10.0,0.0
18126,67.0,1.0,60.0,11.0,0.0
18127,55.0,1.0,60.0,12.0,0.0
18128,55.0,0.0,60.0,3.0,0.0
18129,55.0,0.0,60.0,6.0,0.0
18130,59.0,1.0,60.0,3.0,0.0
18131,43.0,113.0,60.0,13.0,0.0
18132,88.0,0.0,60.0,0.0,0.0
18133,81.0,1.0,60.0,8.0,0.0
18134,93.0,0.0,60.0,0.0,0.0
18135,76.0,0.0,60.0,1.0,0.0
18136,67.0,0.0,60.0,5.0,0.0
18137,79.0,0.0,60.0,5.0,0.0
18138,81.0,1.0,60.0,1.0,0.0
18139,76.0,2.0,60.0,2.0,0.0
18140,69.0,0.0,60.0,10.0,0.0
18141,67.0,0.0,60.0,2.0,0.0
18142,79.0,0.0,60.0,10.0,0.0
18143,64.0,1.0,60.0,11.0,0.0
18144,48.0,1.0,60.0,12.0,0.0
18145,57.0,0.0,60.0,3.0,0.0
18146,48.0,0.0,60.0,3.0,0.0
18147,55.0,1.0,60.0,6.0,0.0
18148,36.0,114.0,60.0,13.0,0.0
18149,74.0,0.0,120.0,8.0,0.0
18150,95.0,0.0,240.0,0.0,0.0
18151,67.0,2.0,120.0,8.0,0.0
18152,83.0,0.0,240.0,8.0,0.0
18153,91.0,1.0,240.0,0.0,0.0
18154,79.0,0.0,240.0,1.0,0.0
18155,74.0,5.0,60.0,5.0,0.0
18156,62.0,0.0,60.0,5.0,0.0
18157,83.0,1.0,240.0,1.0,0.0
18158,71.0,118.0,120.0,10.0,0.0
18159,62.0,0.0,120.0,10.0,0.0
18160,71.0,2.0,240.0,2.0,0.0
18161,79.0,0.0,240.0,10.0,0.0
18162,67.0,0.0,240.0,2.0,0.0
18163,67.0,1.0,240.0,11.0,0.0
18164,71.0,0.0,240.0,11.0,0.0
18165,50.0,1.0,240.0,12.0,0.0
18166,50.0,54.0,60.0,6.0,0.0
18167,50.0,1.0,240.0,3.0,0.0
18168,93.0,0.0,180.0,0.0,0.0
18169,96.0,0.0,180.0,0.0,0.0
18170,66.0,1.0,180.0,8.0,0.0
18171,74.0,0.0,180.0,8.0,0.0
18172,84.0,0.0,180.0,8.0,0.0
18173,84.0,0.0,180.0,1.0,0.0
18174,74.0,5.0,60.0,5.0,0.0
18175,62.0,0.0,60.0,5.0,0.0
18176,72.0,0.0,180.0,2.0,0.0
18177,81.0,2.0,180.0,10.0,0.0
18178,72.0,0.0,180.0,11.0,0.0
18179,69.0,1.0,180.0,11.0,0.0
18180,62.0,0.0,15.0,3.0,0.0
18181,50.0,114.0,60.0,6.0,0.0
18182,50.0,1.0,180.0,3.0,0.0
18183,38.0,54.0,15.0,13.0,0.0
18184,93.0,0.0,60.0,0.0,0.0
18185,90.0,1.0,60.0,0.0,0.0
18186,81.0,0.0,60.0,8.0,0.0
18187,81.0,1.0,15.0,1.0,0.0
18188,78.0,1.0,60.0,1.0,0.0
18189,78.0,0.0,60.0,10.0,0.0
18190,69.0,0.0,15.0,2.0,0.0
18191,66.0,2.0,60.0,2.0,0.0
18192,66.0,1.0,60.0,11.0,0.0
18193,69.0,0.0,60.0,11.0,0.0
18194,50.0,1.0,15.0,12.0,0.0
18195,50.0,0.0,60.0,3.0,0.0
18196,38.0,235.0,60.0,13.0,0.0
18197,72.0,4.0,240.0,2.0,0.0
18198,78.0,0.0,240.0,2.0,0.0
18199,62.0,1.0,15.0,3.0,0.0
18200,69.0,0.0,240.0,3.0,0.0
18201,71.0,0.0,120.0,2.0,0.0
18202,79.0,4.0,120.0,2.0,0.0
18203,67.0,116.0,120.0,3.0,0.0
18204,67.0,0.0,120.0,4.0,0.0
18205,69.0,4.0,120.0,4.0,0.0
18206,81.0,0.0,120.0,2.0,0.0
18207,69.0,0.0,120.0,2.0,0.0
18208,60.0,120.0,120.0,3.0,0.0
18209,64.0,0.0,120.0,3.0,0.0
18210,67.0,124.0,240.0,4.0,0.0
18211,71.0,0.0,240.0,4.0,0.0
18212,79.0,0.0,240.0,2.0,0.0
18213,83.0,0.0,240.0,2.0,0.0
18214,62.0,116.0,120.0,3.0,0.0
18215,84.0,0.0,180.0,2.0,0.0
18216,69.0,60.0,180.0,4.0,0.0
18217,72.0,0.0,180.0,4.0,0.0
18218,81.0,0.0,180.0,2.0,0.0
18219,50.0,56.0,120.0,3.0,0.0
18220,81.0,0.0,60.0,2.0,0.0
18221,62.0,0.0,60.0,4.0,0.0
18222,69.0,18.0,60.0,4.0,0.0
18223,78.0,0.0,60.0,2.0,0.0
18224,62.0,0.0,240.0,7.0,0.0
18225,69.0,0.0,240.0,7.0,0.0
18226,72.0,0.0,240.0,7.0,0.0
18227,79.0,20.0,20.0,7.0,0.0
18228,78.0,20.0,20.0,7.0,0.0
18229,79.0,20.0,20.0,7.0,0.0
18230,78.0,20.0,20.0,7.0,0.0
18231,79.0,20.0,20.0,7.0,0.0
18232,78.0,20.0,20.0,7.0,0.0
18233,79.0,20.0,20.0,7.0,0.0
18234,78.0,20.0,20.0,7.0,0.0
18235,79.0,20.0,20.0,7.0,0.0
18236,78.0,20.0,20.0,7.0,0.0
18237,79.0,20.0,20.0,7.0,0.0
18238,78.0,20.0,20.0,7.0,0.0
18239,81.0,20.0,20.0,7.0,0.0
18240,71.0,0.0,120.0,7.0,0.0
18241,67.0,0.0,120.0,7.0,0.0
18242,79.0,20.0,20.0,7.0,0.0
18243,81.0,20.0,20.0,7.0,0.0
18244,79.0,20.0,20.0,7.0,0.0
18245,81.0,20.0,20.0,7.0,0.0
18246,79.0,20.0,20.0,7.0,0.0
18247,83.0,20.0,20.0,7.0,0.0
18248,69.0,20.0,120.0,7.0,0.0
18249,67.0,0.0,60.0,7.0,0.0
18250,64.0,0.0,60.0,7.0,0.0
18251,61.0,0.0,60.0,7.0,0.0
18252,81.0,20.0,20.0,7.0,0.0
18253,83.0,20.0,20.0,7.0,0.0
18254,60.0,0.0,60.0,7.0,0.0
18255,81.0,20.0,20.0,7.0,0.0
18256,66.0,0.0,60.0,7.0,0.0
18257,83.0,20.0,20.0,7.0,0.0
18258,81.0,0.0,20.0,7.0,0.0
18259,71.0,60.0,240.0,7.0,0.0
18260,59.0,0.0,120.0,7.0,0.0
18261,62.0,0.0,15.0,7.0,0.0
18262,67.0,0.0,120.0,7.0,0.0
18263,84.0,20.0,20.0,7.0,0.0
18264,83.0,20.0,20.0,7.0,0.0
18265,84.0,20.0,20.0,7.0,0.0
18266,83.0,20.0,20.0,7.0,0.0
18267,84.0,20.0,20.0,7.0,0.0
18268,83.0,0.0,20.0,7.0,0.0
18269,64.0,0.0,120.0,7.0,0.0
18270,67.0,0.0,120.0,7.0,0.0
18271,84.0,20.0,20.0,7.0,0.0
18272,83.0,20.0,20.0,7.0,0.0
18273,84.0,20.0,20.0,7.0,0.0
18274,83.0,20.0,20.0,7.0,0.0
18275,84.0,20.0,20.0,7.0,0.0
18276,83.0,0.0,20.0,7.0,0.0
18277,86.0,60.0,60.0,7.0,0.0
18278,64.0,45.0,120.0,7.0,0.0
18279,69.0,0.0,120.0,7.0,0.0
18280,60.0,0.0,120.0,7.0,0.0
18281,84.0,0.0,60.0,7.0,0.0
18282,83.0,60.0,60.0,7.0,0.0
18283,78.0,0.0,120.0,7.0,0.0
18284,72.0,0.0,120.0,7.0,0.0
18285,62.0,0.0,120.0,7.0,0.0
18286,50.0,0.0,120.0,7.0,0.0
18287,69.0,2.0,120.0,8.0,0.0
18288,60.0,2.0,120.0,10.0,0.0
18289,62.0,1.0,120.0,11.0,0.0
18290,50.0,2.0,120.0,12.0,0.0
18291,38.0,23.0,120.0,13.0,0.0
18292,81.0,15.0,60.0,7.0,0.0
18293,79.0,20.0,300.0,7.0,0.0
18294,55.0,30.0,30.0,7.0,0.0
18295,59.0,2.0,960.0,10.0,0.0
18296,55.0,1.0,1920.0,12.0,0.0
18297,43.0,17.0,1920.0,13.0,0.0
18298,59.0,30.0,30.0,7.0,0.0
18299,62.0,30.0,30.0,7.0,0.0
18300,67.0,30.0,30.0,7.0,0.0
18301,55.0,30.0,30.0,7.0,0.0
18302,59.0,30.0,30.0,7.0,0.0
18303,62.0,30.0,30.0,7.0,0.0
18304,67.0,30.0,30.0,7.0,0.0
18305,55.0,30.0,30.0,7.0,0.0
18306,59.0,0.0,30.0,7.0,0.0
18307,81.0,10.0,20.0,7.0,0.0
18308,62.0,10.0,30.0,7.0,0.0
18309,79.0,20.0,20.0,7.0,0.0
18310,67.0,0.0,30.0,7.0,0.0
18311,78.0,30.0,20.0,7.0,0.0
18312,55.0,30.0,30.0,7.0,0.0
18313,79.0,30.0,60.0,7.0,0.0
18314,59.0,0.0,30.0,7.0,0.0
18315,62.0,30.0,30.0,7.0,0.0
18316,81.0,30.0,60.0,7.0,0.0
18317,67.0,0.0,30.0,7.0,0.0
18318,82.0,0.0,60.0,7.0,0.0
18319,55.0,30.0,30.0,7.0,0.0
18320,59.0,30.0,30.0,7.0,0.0
18321,83.0,30.0,60.0,7.0,0.0
18322,62.0,30.0,30.0,7.0,0.0
18323,67.0,0.0,30.0,7.0,0.0
18324,55.0,30.0,30.0,7.0,0.0
18325,78.0,30.0,60.0,7.0,0.0
18326,59.0,0.0,30.0,7.0,0.0
18327,62.0,30.0,30.0,7.0,0.0
18328,79.0,0.0,60.0,7.0,0.0
18329,67.0,30.0,30.0,7.0,0.0
18330,75.0,0.0,60.0,7.0,0.0
18331,55.0,30.0,30.0,7.0,0.0
18332,59.0,30.0,30.0,7.0,0.0
18333,76.0,30.0,60.0,7.0,0.0
18334,62.0,30.0,30.0,7.0,0.0
18335,67.0,0.0,30.0,7.0,0.0
18336,55.0,30.0,30.0,7.0,0.0
18337,71.0,0.0,90.0,2.0,0.0
18338,59.0,30.0,30.0,7.0,0.0
18339,62.0,2.0,30.0,7.0,0.0
18340,67.0,2.0,30.0,7.0,0.0
18341,74.0,4.0,15.0,2.0,0.0
18342,59.0,0.0,15.0,3.0,0.0
18343,62.0,24.0,15.0,3.0,0.0
18344,67.0,0.0,15.0,8.0,0.0
18345,91.0,2.0,300.0,7.0,0.0
18346,55.0,30.0,30.0,7.0,0.0
18347,71.0,0.0,15.0,2.0,0.0
18348,59.0,0.0,960.0,10.0,0.0
18349,74.0,4.0,240.0,2.0,0.0
18350,62.0,2.0,15.0,11.0,0.0
18351,62.0,24.0,15.0,3.0,0.0
18352,59.0,30.0,30.0,7.0,0.0
18353,62.0,30.0,30.0,7.0,0.0
18354,67.0,30.0,30.0,7.0,0.0
18355,55.0,30.0,30.0,7.0,0.0
18356,59.0,30.0,30.0,7.0,0.0
18357,62.0,30.0,30.0,7.0,0.0
18358,67.0,2.0,30.0,7.0,0.0
18359,55.0,30.0,30.0,7.0,0.0
18360,67.0,0.0,60.0,2.0,0.0
18361,71.0,4.0,60.0,2.0,0.0
18362,59.0,0.0,15.0,3.0,0.0
18363,55.0,0.0,60.0,3.0,0.0
18364,59.0,0.0,30.0,7.0,0.0
18365,93.0,10.0,20.0,7.0,0.0
18366,62.0,10.0,30.0,7.0,0.0
18367,91.0,20.0,20.0,7.0,0.0
18368,67.0,30.0,30.0,7.0,0.0
18369,90.0,0.0,20.0,7.0,0.0
18370,55.0,30.0,30.0,7.0,0.0
18371,91.0,0.0,60.0,7.0,0.0
18372,59.0,30.0,30.0,7.0,0.0
18373,62.0,30.0,30.0,7.0,0.0
18374,93.0,0.0,60.0,7.0,0.0
18375,67.0,30.0,30.0,7.0,0.0
18376,94.0,0.0,60.0,7.0,0.0
18377,55.0,30.0,30.0,7.0,0.0
18378,59.0,30.0,30.0,7.0,0.0
18379,95.0,30.0,60.0,7.0,0.0
18380,62.0,30.0,30.0,7.0,0.0
18381,67.0,0.0,30.0,7.0,0.0
18382,90.0,0.0,60.0,7.0,0.0
18383,55.0,30.0,30.0,7.0,0.0
18384,59.0,30.0,30.0,7.0,0.0
18385,62.0,30.0,30.0,7.0,0.0
18386,91.0,30.0,60.0,7.0,0.0
18387,67.0,0.0,30.0,7.0,0.0
18388,87.0,30.0,60.0,7.0,0.0
18389,55.0,30.0,30.0,7.0,0.0
18390,59.0,0.0,30.0,7.0,0.0
18391,62.0,30.0,30.0,7.0,0.0
18392,88.0,30.0,60.0,7.0,0.0
18393,67.0,0.0,30.0,7.0,0.0
18394,55.0,30.0,30.0,7.0,0.0
18395,59.0,30.0,30.0,7.0,0.0
18396,62.0,2.0,30.0,7.0,0.0
18397,67.0,2.0,30.0,7.0,0.0
18398,71.0,0.0,15.0,2.0,0.0
18399,79.0,4.0,15.0,2.0,0.0
18400,59.0,0.0,15.0,3.0,0.0
18401,67.0,24.0,15.0,3.0,0.0
18402,95.0,2.0,300.0,7.0,0.0
18403,67.0,0.0,15.0,8.0,0.0
18404,53.0,24.0,20.0,7.0,0.0
18405,79.0,4.0,240.0,2.0,0.0
18406,71.0,0.0,300.0,2.0,0.0
18407,59.0,0.0,960.0,11.0,0.0
18408,55.0,1.0,960.0,11.0,0.0
18409,53.0,1.0,960.0,12.0,0.0
18410,59.0,6.0,300.0,3.0,0.0
18411,67.0,18.0,240.0,3.0,0.0
18412,41.0,17.0,960.0,13.0,0.0
18413,55.0,24.0,20.0,7.0,0.0
18414,59.0,24.0,20.0,7.0,0.0
18415,62.0,24.0,20.0,7.0,0.0
18416,67.0,24.0,20.0,7.0,0.0
18417,53.0,24.0,20.0,7.0,0.0
18418,55.0,24.0,20.0,7.0,0.0
18419,59.0,24.0,20.0,7.0,0.0
18420,62.0,24.0,20.0,7.0,0.0
18421,67.0,2.0,20.0,7.0,0.0
18422,53.0,24.0,20.0,7.0,0.0
18423,74.0,4.0,60.0,2.0,0.0
18424,62.0,0.0,60.0,3.0,0.0
18425,55.0,12.0,20.0,7.0,0.0
18426,59.0,8.0,20.0,7.0,0.0
18427,96.0,16.0,20.0,7.0,0.0
18428,62.0,4.0,20.0,7.0,0.0
18429,95.0,20.0,20.0,7.0,0.0
18430,67.0,24.0,20.0,7.0,0.0
18431,94.0,0.0,20.0,7.0,0.0
18432,95.0,12.0,60.0,7.0,0.0
18433,53.0,24.0,20.0,7.0,0.0
18434,55.0,12.0,20.0,7.0,0.0
18435,59.0,24.0,20.0,7.0,0.0
18436,96.0,0.0,60.0,7.0,0.0
18437,62.0,24.0,20.0,7.0,0.0
18438,67.0,24.0,20.0,7.0,0.0
18439,97.0,12.0,60.0,7.0,0.0
18440,53.0,24.0,20.0,7.0,0.0
18441,55.0,12.0,20.0,7.0,0.0
18442,59.0,24.0,20.0,7.0,0.0
18443,98.0,0.0,60.0,7.0,0.0
18444,62.0,24.0,20.0,7.0,0.0
18445,67.0,24.0,20.0,7.0,0.0
18446,53.0,24.0,20.0,7.0,0.0
18447,94.0,12.0,60.0,7.0,0.0
18448,55.0,12.0,20.0,7.0,0.0
18449,59.0,24.0,20.0,7.0,0.0
18450,95.0,24.0,60.0,7.0,0.0
18451,62.0,24.0,20.0,7.0,0.0
18452,67.0,0.0,20.0,7.0,0.0
18453,90.0,12.0,60.0,7.0,0.0
18454,53.0,24.0,20.0,7.0,0.0
18455,55.0,12.0,20.0,7.0,0.0
18456,59.0,24.0,20.0,7.0,0.0
18457,91.0,24.0,60.0,7.0,0.0
18458,62.0,24.0,20.0,7.0,0.0
18459,67.0,0.0,20.0,7.0,0.0
18460,53.0,24.0,20.0,7.0,0.0
18461,59.0,0.0,90.0,3.0,0.0
18462,55.0,24.0,20.0,7.0,0.0
18463,59.0,20.0,20.0,7.0,0.0
18464,62.0,0.0,20.0,7.0,0.0
18465,79.0,4.0,15.0,2.0,0.0
18466,71.0,0.0,15.0,2.0,0.0
18467,67.0,24.0,15.0,3.0,0.0
18468,59.0,0.0,30.0,3.0,0.0
18469,67.0,0.0,20.0,7.0,0.0
18470,53.0,24.0,20.0,7.0,0.0
18471,97.0,12.0,60.0,7.0,0.0
18472,67.0,2.0,15.0,8.0,0.0
18473,79.0,0.0,15.0,2.0,0.0
18474,71.0,0.0,15.0,2.0,0.0
18475,62.0,2.0,15.0,10.0,0.0
18476,59.0,1.0,480.0,11.0,0.0
18477,53.0,1.0,480.0,12.0,0.0
18478,59.0,18.0,120.0,3.0,0.0
18479,67.0,0.0,120.0,3.0,0.0
18480,41.0,23.0,480.0,13.0,0.0
18481,55.0,12.0,20.0,7.0,0.0
18482,59.0,24.0,20.0,7.0,0.0
18483,98.0,0.0,60.0,7.0,0.0
18484,62.0,24.0,20.0,7.0,0.0
18485,67.0,2.0,20.0,7.0,0.0
18486,53.0,24.0,20.0,7.0,0.0
18487,94.0,12.0,60.0,7.0,0.0
18488,55.0,12.0,20.0,7.0,0.0
18489,59.0,24.0,20.0,7.0,0.0
18490,95.0,24.0,60.0,7.0,0.0
18491,62.0,24.0,20.0,7.0,0.0
18492,67.0,0.0,20.0,7.0,0.0
18493,53.0,24.0,20.0,7.0,0.0
18494,90.0,12.0,60.0,7.0,0.0
18495,55.0,12.0,20.0,7.0,0.0
18496,59.0,24.0,20.0,7.0,0.0
18497,91.0,24.0,60.0,7.0,0.0
18498,62.0,24.0,20.0,7.0,0.0
18499,67.0,0.0,20.0,7.0,0.0
18500,53.0,24.0,20.0,7.0,0.0
18501,55.0,24.0,20.0,7.0,0.0
18502,59.0,20.0,20.0,7.0,0.0
18503,62.0,24.0,20.0,7.0,0.0
18504,71.0,0.0,15.0,2.0,0.0
18505,79.0,4.0,15.0,2.0,0.0
18506,67.0,0.0,20.0,7.0,0.0
18507,59.0,0.0,15.0,3.0,0.0
18508,67.0,0.0,15.0,3.0,0.0
18509,99.0,0.0,60.0,7.0,0.0
18510,52.0,30.0,30.0,7.0,0.0
18511,64.0,2.0,480.0,10.0,0.0
18512,72.0,0.0,120.0,2.0,0.0
18513,79.0,4.0,120.0,2.0,0.0
18514,55.0,0.0,15.0,11.0,0.0
18515,52.0,1.0,480.0,12.0,0.0
18516,67.0,1.0,15.0,3.0,0.0
18517,60.0,24.0,120.0,3.0,0.0
18518,55.0,30.0,30.0,7.0,0.0
18519,100.0,0.0,60.0,7.0,0.0
18520,60.0,30.0,30.0,7.0,0.0
18521,67.0,2.0,30.0,7.0,0.0
18522,52.0,30.0,30.0,7.0,0.0
18523,95.0,30.0,60.0,7.0,0.0
18524,55.0,0.0,30.0,7.0,0.0
18525,60.0,30.0,30.0,7.0,0.0
18526,96.0,0.0,60.0,7.0,0.0
18527,67.0,30.0,30.0,7.0,0.0
18528,52.0,30.0,30.0,7.0,0.0
18529,90.0,30.0,60.0,7.0,0.0
18530,55.0,0.0,30.0,7.0,0.0
18531,60.0,30.0,30.0,7.0,0.0
18532,91.0,30.0,60.0,7.0,0.0
18533,67.0,0.0,30.0,7.0,0.0
18534,52.0,30.0,30.0,7.0,0.0
18535,67.0,0.0,90.0,3.0,0.0
18536,60.0,24.0,90.0,3.0,0.0
18537,55.0,30.0,30.0,7.0,0.0
18538,60.0,2.0,30.0,7.0,0.0
18539,67.0,0.0,30.0,7.0,0.0
18540,79.0,4.0,15.0,2.0,0.0
18541,72.0,0.0,15.0,2.0,0.0
18542,60.0,1.0,30.0,3.0,0.0
18543,67.0,0.0,30.0,3.0,0.0
18544,99.0,30.0,60.0,7.0,0.0
18545,67.0,2.0,15.0,8.0,0.0
18546,52.0,30.0,30.0,7.0,0.0
18547,64.0,0.0,480.0,10.0,0.0
18548,72.0,0.0,120.0,2.0,0.0
18549,79.0,4.0,120.0,2.0,0.0
18550,60.0,1.0,15.0,11.0,0.0
18551,55.0,1.0,480.0,11.0,0.0
18552,52.0,1.0,480.0,12.0,0.0
18553,67.0,24.0,120.0,3.0,0.0
18554,60.0,0.0,120.0,3.0,0.0
18555,40.0,23.0,15.0,13.0,0.0
18556,55.0,0.0,30.0,7.0,0.0
18557,100.0,2.0,60.0,7.0,0.0
18558,60.0,30.0,30.0,7.0,0.0
18559,67.0,0.0,30.0,7.0,0.0
18560,52.0,30.0,30.0,7.0,0.0
18561,95.0,30.0,60.0,7.0,0.0
18562,55.0,0.0,30.0,7.0,0.0
18563,60.0,30.0,30.0,7.0,0.0
18564,96.0,30.0,60.0,7.0,0.0
18565,67.0,0.0,30.0,7.0,0.0
18566,52.0,30.0,30.0,7.0,0.0
18567,90.0,0.0,60.0,7.0,0.0
18568,55.0,30.0,30.0,7.0,0.0
18569,91.0,0.0,60.0,7.0,0.0
18570,60.0,30.0,30.0,7.0,0.0
18571,67.0,30.0,30.0,7.0,0.0
18572,52.0,30.0,30.0,7.0,0.0
18573,79.0,0.0,90.0,2.0,0.0
18574,60.0,24.0,90.0,3.0,0.0
18575,67.0,0.0,90.0,3.0,0.0
18576,55.0,30.0,30.0,7.0,0.0
18577,60.0,2.0,30.0,7.0,0.0
18578,67.0,0.0,30.0,7.0,0.0
18579,72.0,4.0,15.0,2.0,0.0
18580,79.0,2.0,30.0,2.0,0.0
18581,60.0,1.0,30.0,3.0,0.0
18582,67.0,0.0,30.0,3.0,0.0
18583,100.0,0.0,60.0,7.0,0.0
18584,50.0,30.0,30.0,7.0,0.0
18585,67.0,0.0,480.0,8.0,0.0
18586,65.0,2.0,480.0,10.0,0.0
18587,55.0,1.0,480.0,11.0,0.0
18588,59.0,0.0,480.0,11.0,0.0
18589,50.0,1.0,480.0,12.0,0.0
18590,38.0,23.0,480.0,13.0,0.0
18591,55.0,30.0,30.0,7.0,0.0
18592,101.0,0.0,60.0,7.0,0.0
18593,59.0,30.0,30.0,7.0,0.0
18594,65.0,30.0,30.0,7.0,0.0
18595,97.0,30.0,60.0,7.0,0.0
18596,50.0,30.0,30.0,7.0,0.0
18597,71.0,0.0,90.0,2.0,0.0
18598,55.0,0.0,30.0,7.0,0.0
18599,59.0,2.0,30.0,7.0,0.0
18600,98.0,2.0,60.0,7.0,0.0
18601,65.0,0.0,30.0,7.0,0.0
18602,71.0,0.0,30.0,2.0,0.0
18603,79.0,4.0,15.0,2.0,0.0
18604,67.0,0.0,15.0,3.0,0.0
18605,59.0,24.0,15.0,3.0,0.0
18606,94.0,0.0,60.0,7.0,0.0
18607,50.0,30.0,30.0,7.0,0.0
18608,55.0,30.0,30.0,7.0,0.0
18609,95.0,30.0,60.0,7.0,0.0
18610,59.0,30.0,30.0,7.0,0.0
18611,65.0,0.0,30.0,7.0,0.0
18612,90.0,30.0,60.0,7.0,0.0
18613,50.0,30.0,30.0,7.0,0.0
18614,79.0,4.0,90.0,2.0,0.0
18615,71.0,0.0,90.0,2.0,0.0
18616,67.0,0.0,90.0,3.0,0.0
18617,55.0,0.0,30.0,7.0,0.0
18618,59.0,2.0,30.0,7.0,0.0
18619,91.0,2.0,60.0,7.0,0.0
18620,65.0,0.0,30.0,7.0,0.0
18621,71.0,0.0,30.0,2.0,0.0
18622,79.0,0.0,30.0,2.0,0.0
18623,67.0,1.0,30.0,3.0,0.0
18624,59.0,24.0,15.0,3.0,0.0
18625,88.0,30.0,60.0,7.0,0.0
18626,55.0,30.0,30.0,7.0,0.0
18627,71.0,0.0,480.0,8.0,0.0
18628,65.0,2.0,480.0,10.0,0.0
18629,62.0,1.0,480.0,11.0,0.0
18630,55.0,0.0,480.0,11.0,0.0
18631,55.0,1.0,480.0,12.0,0.0
18632,43.0,23.0,480.0,13.0,0.0
18633,59.0,0.0,30.0,7.0,0.0
18634,62.0,30.0,30.0,7.0,0.0
18635,89.0,0.0,60.0,7.0,0.0
18636,65.0,30.0,30.0,7.0,0.0
18637,55.0,30.0,30.0,7.0,0.0
18638,85.0,0.0,60.0,7.0,0.0
18639,77.0,0.0,90.0,2.0,0.0
18640,67.0,0.0,90.0,4.0,0.0
18641,65.0,0.0,90.0,3.0,0.0
18642,59.0,30.0,30.0,7.0,0.0
18643,86.0,0.0,60.0,7.0,0.0
18644,62.0,2.0,30.0,7.0,0.0
18645,65.0,2.0,30.0,7.0,0.0
18646,74.0,4.0,15.0,2.0,0.0
18647,55.0,0.0,15.0,4.0,0.0
18648,67.0,0.0,30.0,4.0,0.0
18649,77.0,0.0,30.0,2.0,0.0
18650,62.0,24.0,15.0,3.0,0.0
18651,65.0,24.0,30.0,3.0,0.0
18652,82.0,30.0,60.0,7.0,0.0
18653,55.0,30.0,30.0,7.0,0.0
18654,59.0,0.0,30.0,7.0,0.0
18655,62.0,30.0,30.0,7.0,0.0
18656,83.0,30.0,60.0,7.0,0.0
18657,65.0,0.0,30.0,7.0,0.0
18658,76.0,30.0,60.0,7.0,0.0
18659,55.0,30.0,30.0,7.0,0.0
18660,77.0,0.0,90.0,2.0,0.0
18661,74.0,0.0,90.0,2.0,0.0
18662,67.0,0.0,90.0,4.0,0.0
18663,65.0,0.0,90.0,3.0,0.0
18664,59.0,0.0,30.0,7.0,0.0
18665,77.0,0.0,60.0,7.0,0.0
18666,62.0,2.0,30.0,7.0,0.0
18667,65.0,2.0,30.0,7.0,0.0
18668,77.0,0.0,30.0,2.0,0.0
18669,74.0,0.0,30.0,2.0,0.0
18670,67.0,0.0,30.0,4.0,0.0
18671,55.0,4.0,15.0,4.0,0.0
18672,62.0,24.0,15.0,3.0,0.0
18673,65.0,1.0,30.0,3.0,0.0
18674,48.0,0.0,120.0,7.0,0.0
18675,76.0,30.0,30.0,7.0,0.0
18676,72.0,2.0,120.0,8.0,0.0
18677,72.0,2.0,120.0,4.0,0.0
18678,64.0,0.0,120.0,10.0,0.0
18679,60.0,1.0,120.0,11.0,0.0
18680,48.0,2.0,120.0,12.0,0.0
18681,36.0,83.0,120.0,13.0,0.0
18682,91.0,30.0,30.0,7.0,0.0
18683,88.0,0.0,30.0,7.0,0.0
18684,84.0,30.0,30.0,7.0,0.0
18685,91.0,0.0,30.0,7.0,0.0
18686,88.0,0.0,30.0,7.0,0.0
18687,96.0,30.0,150.0,7.0,0.0
18688,72.0,60.0,240.0,4.0,0.0
18689,76.0,30.0,30.0,7.0,0.0
18690,79.0,30.0,30.0,7.0,0.0
18691,76.0,30.0,30.0,7.0,0.0
18692,79.0,0.0,30.0,7.0,0.0
18693,72.0,30.0,30.0,7.0,0.0
18694,79.0,0.0,30.0,7.0,0.0
18695,76.0,2.0,30.0,7.0,0.0
18696,84.0,17.0,150.0,7.0,0.0
18697,74.0,28.0,60.0,4.0,0.0
18698,64.0,30.0,30.0,7.0,0.0
18699,72.0,28.0,60.0,4.0,0.0
18700,67.0,2.0,30.0,7.0,0.0
18701,72.0,2.0,120.0,8.0,0.0
18702,67.0,2.0,120.0,10.0,0.0
18703,70.0,13.0,60.0,4.0,0.0
18704,60.0,1.0,120.0,11.0,0.0
18705,48.0,2.0,120.0,12.0,0.0
18706,36.0,40.0,120.0,13.0,0.0
18707,67.0,0.0,30.0,7.0,0.0
18708,64.0,30.0,30.0,7.0,0.0
18709,60.0,17.0,30.0,7.0,0.0
18710,69.0,13.0,60.0,4.0,0.0
18711,64.0,0.0,30.0,7.0,0.0
18712,67.0,0.0,30.0,7.0,0.0
18713,72.0,17.0,150.0,7.0,0.0
18714,67.0,43.0,60.0,4.0,0.0
18715,52.0,17.0,30.0,7.0,0.0
18716,69.0,13.0,60.0,4.0,0.0
18717,55.0,30.0,30.0,7.0,0.0
18718,70.0,13.0,60.0,4.0,0.0
18719,52.0,30.0,30.0,7.0,0.0
18720,55.0,0.0,30.0,7.0,0.0
18721,48.0,17.0,30.0,7.0,0.0
18722,67.0,13.0,60.0,4.0,0.0
18723,55.0,0.0,30.0,7.0,0.0
18724,52.0,0.0,30.0,7.0,0.0
18725,60.0,30.0,150.0,7.0,0.0
18726,69.0,43.0,60.0,4.0,0.0
18727,40.0,17.0,30.0,7.0,0.0
18728,70.0,13.0,60.0,4.0,0.0
18729,43.0,30.0,30.0,7.0,0.0
18730,36.0,0.0,120.0,7.0,0.0
18731,72.0,0.0,120.0,8.0,0.0
18732,65.0,2.0,120.0,10.0,0.0
18733,69.0,0.0,120.0,4.0,0.0
18734,60.0,1.0,120.0,11.0,0.0
18735,48.0,2.0,120.0,12.0,0.0
18736,36.0,83.0,120.0,13.0,0.0
18737,53.0,30.0,30.0,7.0,0.0
18738,57.0,0.0,30.0,7.0,0.0
18739,48.0,30.0,30.0,7.0,0.0
18740,57.0,0.0,30.0,7.0,0.0
18741,53.0,2.0,30.0,7.0,0.0
18742,60.0,30.0,150.0,7.0,0.0
18743,81.0,0.0,240.0,2.0,0.0
18744,60.0,84.0,240.0,3.0,0.0
18745,41.0,30.0,30.0,7.0,0.0
18746,45.0,30.0,30.0,7.0,0.0
18747,48.0,2.0,120.0,7.0,0.0
18748,69.0,30.0,30.0,7.0,0.0
18749,65.0,0.0,30.0,7.0,0.0
18750,57.0,30.0,30.0,7.0,0.0
18751,65.0,0.0,30.0,7.0,0.0
18752,69.0,0.0,30.0,7.0,0.0
18753,72.0,30.0,150.0,7.0,0.0
18754,81.0,4.0,120.0,2.0,0.0
18755,72.0,4.0,15.0,2.0,0.0
18756,60.0,24.0,120.0,3.0,0.0
18757,53.0,30.0,30.0,7.0,0.0
18758,57.0,2.0,30.0,7.0,0.0
18759,60.0,0.0,120.0,7.0,0.0
18760,72.0,2.0,120.0,8.0,0.0
18761,79.0,0.0,240.0,2.0,0.0
18762,70.0,4.0,240.0,2.0,0.0
18763,60.0,2.0,120.0,10.0,0.0
18764,60.0,1.0,120.0,11.0,0.0
18765,48.0,2.0,120.0,12.0,0.0
18766,64.0,24.0,240.0,3.0,0.0
18767,36.0,83.0,120.0,13.0,0.0
18768,82.0,30.0,30.0,7.0,0.0
18769,79.0,0.0,30.0,7.0,0.0
18770,72.0,30.0,30.0,7.0,0.0
18771,82.0,0.0,30.0,7.0,0.0
18772,79.0,0.0,30.0,7.0,0.0
18773,84.0,30.0,150.0,7.0,0.0
18774,67.0,30.0,30.0,7.0,0.0
18775,70.0,2.0,30.0,7.0,0.0
18776,72.0,2.0,120.0,8.0,0.0
18777,72.0,0.0,120.0,7.0,0.0
18778,69.0,4.0,240.0,2.0,0.0
18779,77.0,0.0,240.0,2.0,0.0
18780,60.0,2.0,120.0,10.0,0.0
18781,60.0,1.0,120.0,11.0,0.0
18782,48.0,2.0,120.0,12.0,0.0
18783,65.0,54.0,240.0,3.0,0.0
18784,36.0,83.0,120.0,13.0,0.0
18785,93.0,30.0,30.0,7.0,0.0
18786,89.0,0.0,30.0,7.0,0.0
18787,84.0,30.0,30.0,7.0,0.0
18788,89.0,0.0,30.0,7.0,0.0
18789,93.0,0.0,30.0,7.0,0.0
18790,96.0,0.0,180.0,7.0,0.0
18791,77.0,30.0,30.0,7.0,0.0
18792,81.0,2.0,30.0,7.0,0.0
18793,84.0,30.0,60.0,7.0,0.0
18794,72.0,0.0,120.0,8.0,0.0
18795,60.0,2.0,120.0,10.0,0.0
18796,67.0,0.0,120.0,2.0,0.0
18797,76.0,0.0,120.0,2.0,0.0
18798,60.0,1.0,120.0,11.0,0.0
18799,48.0,1.0,120.0,12.0,0.0
18800,60.0,1.0,120.0,3.0,0.0
18801,36.0,23.0,120.0,13.0,0.0
18802,88.0,30.0,30.0,7.0,0.0
18803,91.0,0.0,30.0,7.0,0.0
18804,72.0,0.0,60.0,4.0,0.0
18805,96.0,2.0,30.0,7.0,0.0
18806,91.0,30.0,30.0,7.0,0.0
18807,88.0,0.0,30.0,7.0,0.0
18808,96.0,2.0,30.0,7.0,0.0
18809,76.0,30.0,30.0,7.0,0.0
18810,79.0,0.0,30.0,7.0,0.0
18811,72.0,28.0,15.0,4.0,0.0
18812,84.0,2.0,30.0,7.0,0.0
18813,76.0,0.0,30.0,7.0,0.0
18814,79.0,30.0,30.0,7.0,0.0
18815,72.0,28.0,60.0,4.0,0.0
18816,84.0,2.0,30.0,7.0,0.0
18817,79.0,30.0,30.0,7.0,0.0
18818,76.0,0.0,30.0,7.0,0.0
18819,72.0,28.0,60.0,4.0,0.0
18820,84.0,2.0,30.0,7.0,0.0
18821,79.0,30.0,30.0,7.0,0.0
18822,76.0,0.0,30.0,7.0,0.0
18823,74.0,28.0,60.0,4.0,0.0
18824,84.0,2.0,30.0,7.0,0.0
18825,67.0,0.0,30.0,7.0,0.0
18826,64.0,30.0,30.0,7.0,0.0
18827,72.0,28.0,60.0,4.0,0.0
18828,72.0,2.0,30.0,7.0,0.0
18829,64.0,0.0,30.0,7.0,0.0
18830,67.0,30.0,30.0,7.0,0.0
18831,72.0,2.0,120.0,8.0,0.0
18832,70.0,28.0,60.0,4.0,0.0
18833,67.0,2.0,120.0,10.0,0.0
18834,60.0,1.0,120.0,11.0,0.0
18835,48.0,2.0,120.0,12.0,0.0
18836,36.0,23.0,120.0,13.0,0.0
18837,72.0,2.0,30.0,7.0,0.0
18838,64.0,30.0,30.0,7.0,0.0
18839,67.0,0.0,30.0,7.0,0.0
18840,69.0,0.0,60.0,4.0,0.0
18841,72.0,0.0,30.0,7.0,0.0
18842,64.0,0.0,30.0,7.0,0.0
18843,67.0,30.0,30.0,7.0,0.0
18844,67.0,28.0,60.0,4.0,0.0
18845,72.0,2.0,30.0,7.0,0.0
18846,52.0,0.0,30.0,7.0,0.0
18847,55.0,30.0,30.0,7.0,0.0
18848,69.0,28.0,60.0,4.0,0.0
18849,60.0,2.0,30.0,7.0,0.0
18850,52.0,0.0,30.0,7.0,0.0
18851,55.0,30.0,30.0,7.0,0.0
18852,70.0,28.0,60.0,4.0,0.0
18853,60.0,2.0,30.0,7.0,0.0
18854,52.0,0.0,30.0,7.0,0.0
18855,55.0,30.0,30.0,7.0,0.0
18856,67.0,28.0,60.0,4.0,0.0
18857,60.0,2.0,30.0,7.0,0.0
18858,55.0,0.0,30.0,7.0,0.0
18859,52.0,30.0,30.0,7.0,0.0
18860,69.0,28.0,60.0,4.0,0.0
18861,60.0,2.0,30.0,7.0,0.0
18862,36.0,30.0,30.0,7.0,0.0
18863,70.0,28.0,60.0,4.0,0.0
18864,48.0,2.0,30.0,7.0,0.0
18865,72.0,2.0,120.0,8.0,0.0
18866,36.0,30.0,30.0,7.0,0.0
18867,65.0,0.0,120.0,10.0,0.0
18868,69.0,2.0,120.0,4.0,0.0
18869,60.0,1.0,120.0,11.0,0.0
18870,48.0,1.0,120.0,12.0,0.0
18871,36.0,23.0,120.0,13.0,0.0
18872,48.0,30.0,30.0,7.0,0.0
18873,48.0,30.0,30.0,7.0,0.0
18874,60.0,0.0,30.0,7.0,0.0
18875,48.0,30.0,30.0,7.0,0.0
18876,81.0,0.0,15.0,2.0,0.0
18877,72.0,0.0,15.0,2.0,0.0
18878,60.0,1.0,15.0,3.0,0.0
18879,60.0,2.0,30.0,7.0,0.0
18880,36.0,30.0,30.0,7.0,0.0
18881,81.0,0.0,15.0,2.0,0.0
18882,72.0,4.0,15.0,2.0,0.0
18883,60.0,24.0,60.0,3.0,0.0
18884,48.0,2.0,30.0,7.0,0.0
18885,36.0,30.0,30.0,7.0,0.0
18886,72.0,4.0,15.0,2.0,0.0
18887,81.0,0.0,15.0,2.0,0.0
18888,48.0,2.0,30.0,7.0,0.0
18889,60.0,17.0,30.0,7.0,0.0
18890,81.0,13.0,60.0,2.0,0.0
18891,72.0,0.0,60.0,2.0,0.0
18892,60.0,24.0,15.0,3.0,0.0
18893,72.0,6.0,30.0,7.0,0.0
18894,60.0,30.0,30.0,7.0,0.0
18895,82.0,4.0,60.0,2.0,0.0
18896,74.0,0.0,60.0,2.0,0.0
18897,60.0,24.0,15.0,3.0,0.0
18898,72.0,2.0,30.0,7.0,0.0
18899,48.0,30.0,30.0,7.0,0.0
18900,72.0,0.0,60.0,2.0,0.0
18901,81.0,4.0,60.0,2.0,0.0
18902,60.0,24.0,60.0,3.0,0.0
18903,60.0,2.0,30.0,7.0,0.0
18904,48.0,17.0,30.0,7.0,0.0
18905,72.0,0.0,120.0,8.0,0.0
18906,60.0,0.0,120.0,10.0,0.0
18907,79.0,13.0,60.0,2.0,0.0
18908,70.0,0.0,60.0,2.0,0.0
18909,60.0,1.0,120.0,11.0,0.0
18910,48.0,2.0,120.0,12.0,0.0
18911,36.0,23.0,120.0,13.0,0.0
18912,60.0,30.0,30.0,7.0,0.0
18913,72.0,17.0,30.0,7.0,0.0
18914,70.0,13.0,60.0,2.0,0.0
18915,79.0,0.0,60.0,2.0,0.0
18916,84.0,2.0,30.0,7.0,0.0
18917,72.0,17.0,30.0,7.0,0.0
18918,72.0,2.0,15.0,4.0,0.0
18919,81.0,0.0,60.0,2.0,0.0
18920,72.0,13.0,60.0,2.0,0.0
18921,84.0,2.0,30.0,7.0,0.0
18922,60.0,17.0,30.0,7.0,0.0
18923,79.0,13.0,60.0,2.0,0.0
18924,70.0,0.0,60.0,2.0,0.0
18925,72.0,4.0,15.0,4.0,0.0
18926,64.0,24.0,15.0,3.0,0.0
18927,72.0,2.0,30.0,7.0,0.0
18928,60.0,17.0,30.0,7.0,0.0
18929,72.0,0.0,120.0,8.0,0.0
18930,77.0,0.0,60.0,2.0,0.0
18931,69.0,13.0,60.0,2.0,0.0
18932,60.0,0.0,120.0,10.0,0.0
18933,60.0,1.0,120.0,11.0,0.0
18934,48.0,2.0,120.0,12.0,0.0
18935,36.0,23.0,120.0,13.0,0.0
18936,72.0,30.0,30.0,7.0,0.0
18937,84.0,17.0,30.0,7.0,0.0
18938,69.0,13.0,60.0,2.0,0.0
18939,77.0,0.0,60.0,2.0,0.0
18940,96.0,2.0,30.0,7.0,0.0
18941,84.0,17.0,30.0,7.0,0.0
18942,79.0,0.0,60.0,2.0,0.0
18943,70.0,13.0,60.0,2.0,0.0
18944,72.0,2.0,15.0,4.0,0.0
18945,96.0,2.0,30.0,7.0,0.0
18946,48.0,17.0,30.0,7.0,0.0
18947,69.0,0.0,60.0,2.0,0.0
18948,77.0,13.0,60.0,2.0,0.0
18949,65.0,24.0,15.0,3.0,0.0
18950,60.0,0.0,15.0,7.0,0.0
18951,72.0,2.0,120.0,8.0,0.0
18952,96.0,0.0,15.0,7.0,0.0
18953,84.0,2.0,15.0,7.0,0.0
18954,48.0,0.0,60.0,7.0,0.0
18955,72.0,4.0,15.0,4.0,0.0
18956,67.0,0.0,120.0,2.0,0.0
18957,76.0,0.0,120.0,2.0,0.0
18958,60.0,0.0,120.0,10.0,0.0
18959,60.0,1.0,120.0,11.0,0.0
18960,48.0,1.0,120.0,12.0,0.0
18961,60.0,1.0,120.0,3.0,0.0
18962,36.0,23.0,120.0,13.0,0.0
18963,61.0,2.0,30.0,7.0,0.0
18964,49.0,28.0,30.0,7.0,0.0
18965,60.0,0.0,30.0,7.0,0.0
18966,48.0,0.0,30.0,7.0,0.0
18967,61.0,2.0,30.0,7.0,0.0
18968,49.0,28.0,30.0,7.0,0.0
18969,60.0,2.0,30.0,7.0,0.0
18970,48.0,28.0,30.0,7.0,0.0
18971,61.0,2.0,30.0,7.0,0.0
18972,49.0,28.0,30.0,7.0,0.0
18973,60.0,2.0,30.0,7.0,0.0
18974,48.0,28.0,30.0,7.0,0.0
18975,65.0,2.0,30.0,7.0,0.0
18976,53.0,28.0,30.0,7.0,0.0
18977,64.0,2.0,30.0,7.0,0.0
18978,52.0,28.0,30.0,7.0,0.0
18979,65.0,2.0,30.0,7.0,0.0
18980,53.0,28.0,30.0,7.0,0.0
18981,64.0,2.0,30.0,7.0,0.0
18982,52.0,28.0,30.0,7.0,0.0
18983,68.0,2.0,30.0,7.0,0.0
18984,56.0,28.0,30.0,7.0,0.0
18985,67.0,2.0,30.0,7.0,0.0
18986,55.0,28.0,30.0,7.0,0.0
18987,68.0,2.0,30.0,7.0,0.0
18988,56.0,28.0,30.0,7.0,0.0
18989,67.0,2.0,30.0,7.0,0.0
18990,55.0,28.0,30.0,7.0,0.0
18991,73.0,2.0,30.0,7.0,0.0
18992,61.0,28.0,30.0,7.0,0.0
18993,72.0,2.0,30.0,7.0,0.0
18994,60.0,28.0,30.0,7.0,0.0
18995,73.0,2.0,30.0,7.0,0.0
18996,61.0,28.0,30.0,7.0,0.0
18997,72.0,2.0,30.0,7.0,0.0
18998,60.0,28.0,30.0,7.0,0.0
18999,77.0,2.0,30.0,7.0,0.0
19000,65.0,28.0,30.0,7.0,0.0
19001,76.0,2.0,30.0,7.0,0.0
19002,64.0,28.0,30.0,7.0,0.0
19003,77.0,2.0,30.0,7.0,0.0
19004,65.0,28.0,30.0,7.0,0.0
19005,76.0,2.0,30.0,7.0,0.0
19006,64.0,28.0,30.0,7.0,0.0
19007,80.0,2.0,30.0,7.0,0.0
19008,68.0,28.0,30.0,7.0,0.0
19009,79.0,2.0,30.0,7.0,0.0
19010,67.0,28.0,30.0,7.0,0.0
19011,80.0,2.0,30.0,7.0,0.0
19012,68.0,28.0,30.0,7.0,0.0
19013,79.0,2.0,30.0,7.0,0.0
19014,67.0,28.0,30.0,7.0,0.0
19015,85.0,2.0,30.0,7.0,0.0
19016,73.0,28.0,30.0,7.0,0.0
19017,84.0,2.0,30.0,7.0,0.0
19018,72.0,28.0,30.0,7.0,0.0
19019,85.0,2.0,30.0,7.0,0.0
19020,73.0,28.0,30.0,7.0,0.0
19021,84.0,2.0,30.0,7.0,0.0
19022,72.0,28.0,30.0,7.0,0.0
19023,89.0,2.0,30.0,7.0,0.0
19024,77.0,28.0,30.0,7.0,0.0
19025,88.0,2.0,30.0,7.0,0.0
19026,76.0,28.0,30.0,7.0,0.0
19027,89.0,2.0,30.0,7.0,0.0
19028,77.0,28.0,30.0,7.0,0.0
19029,88.0,2.0,30.0,7.0,0.0
19030,76.0,28.0,30.0,7.0,0.0
19031,92.0,2.0,30.0,7.0,0.0
19032,80.0,28.0,30.0,7.0,0.0
19033,91.0,2.0,30.0,7.0,0.0
19034,79.0,28.0,30.0,7.0,0.0
19035,92.0,2.0,30.0,7.0,0.0
19036,80.0,28.0,30.0,7.0,0.0
19037,91.0,2.0,30.0,7.0,0.0
19038,79.0,28.0,30.0,7.0,0.0
19039,97.0,2.0,30.0,7.0,0.0
19040,85.0,28.0,30.0,7.0,0.0
19041,96.0,2.0,30.0,7.0,0.0
19042,84.0,28.0,30.0,7.0,0.0
19043,97.0,2.0,30.0,7.0,0.0
19044,85.0,28.0,30.0,7.0,0.0
19045,96.0,2.0,30.0,7.0,0.0
19046,84.0,28.0,30.0,7.0,0.0
19047,92.0,2.0,30.0,7.0,0.0
19048,80.0,28.0,30.0,7.0,0.0
19049,91.0,2.0,30.0,7.0,0.0
19050,79.0,28.0,30.0,7.0,0.0
19051,92.0,2.0,30.0,7.0,0.0
19052,80.0,28.0,30.0,7.0,0.0
19053,91.0,2.0,30.0,7.0,0.0
19054,79.0,28.0,30.0,7.0,0.0
19055,97.0,2.0,30.0,7.0,0.0
19056,85.0,28.0,30.0,7.0,0.0
19057,96.0,2.0,30.0,7.0,0.0
19058,84.0,28.0,30.0,7.0,0.0
19059,97.0,2.0,30.0,7.0,0.0
19060,85.0,28.0,30.0,7.0,0.0
19061,96.0,2.0,30.0,7.0,0.0
19062,84.0,28.0,30.0,7.0,0.0
19063,92.0,2.0,30.0,7.0,0.0
19064,80.0,28.0,30.0,7.0,0.0
19065,91.0,2.0,30.0,7.0,0.0
19066,79.0,28.0,30.0,7.0,0.0
19067,92.0,2.0,30.0,7.0,0.0
19068,80.0,28.0,30.0,7.0,0.0
19069,91.0,2.0,30.0,7.0,0.0
19070,79.0,28.0,30.0,7.0,0.0
19071,97.0,2.0,30.0,7.0,0.0
19072,85.0,28.0,30.0,7.0,0.0
19073,96.0,2.0,30.0,7.0,0.0
19074,84.0,28.0,30.0,7.0,0.0
19075,97.0,2.0,30.0,7.0,0.0
19076,85.0,28.0,30.0,7.0,0.0
19077,96.0,2.0,30.0,7.0,0.0
19078,84.0,28.0,30.0,7.0,0.0
19079,92.0,2.0,30.0,7.0,0.0
19080,80.0,28.0,30.0,7.0,0.0
19081,91.0,2.0,30.0,7.0,0.0
19082,79.0,28.0,30.0,7.0,0.0
19083,92.0,2.0,30.0,7.0,0.0
19084,80.0,28.0,30.0,7.0,0.0
19085,91.0,2.0,30.0,7.0,0.0
19086,79.0,28.0,30.0,7.0,0.0
19087,96.0,2.0,30.0,7.0,0.0
19088,84.0,28.0,30.0,7.0,0.0
19089,94.0,2.0,30.0,7.0,0.0
19090,82.0,28.0,30.0,7.0,0.0
19091,96.0,2.0,30.0,7.0,0.0
19092,84.0,28.0,30.0,7.0,0.0
19093,94.0,2.0,30.0,7.0,0.0
19094,82.0,28.0,30.0,7.0,0.0
19095,92.0,2.0,30.0,7.0,0.0
19096,80.0,28.0,30.0,7.0,0.0
19097,91.0,2.0,30.0,7.0,0.0
19098,79.0,28.0,30.0,7.0,0.0
19099,92.0,2.0,30.0,7.0,0.0
19100,80.0,28.0,30.0,7.0,0.0
19101,91.0,2.0,30.0,7.0,0.0
19102,79.0,28.0,30.0,7.0,0.0
19103,96.0,2.0,30.0,7.0,0.0
19104,84.0,28.0,30.0,7.0,0.0
19105,94.0,2.0,30.0,7.0,0.0
19106,82.0,28.0,30.0,7.0,0.0
19107,96.0,2.0,30.0,7.0,0.0
19108,84.0,28.0,30.0,7.0,0.0
19109,94.0,2.0,30.0,7.0,0.0
19110,82.0,28.0,30.0,7.0,0.0
19111,92.0,2.0,30.0,7.0,0.0
19112,80.0,28.0,30.0,7.0,0.0
19113,91.0,2.0,30.0,7.0,0.0
19114,79.0,28.0,30.0,7.0,0.0
19115,92.0,2.0,30.0,7.0,0.0
19116,80.0,28.0,30.0,7.0,0.0
19117,91.0,2.0,30.0,7.0,0.0
19118,79.0,28.0,30.0,7.0,0.0
19119,96.0,2.0,30.0,7.0,0.0
19120,84.0,28.0,30.0,7.0,0.0
19121,94.0,2.0,30.0,7.0,0.0
19122,82.0,28.0,30.0,7.0,0.0
19123,92.0,2.0,30.0,7.0,0.0
19124,80.0,28.0,30.0,7.0,0.0
19125,91.0,2.0,30.0,7.0,0.0
19126,79.0,28.0,30.0,7.0,0.0
19127,96.0,2.0,30.0,7.0,0.0
19128,84.0,28.0,30.0,7.0,0.0
19129,94.0,2.0,30.0,7.0,0.0
19130,82.0,28.0,30.0,7.0,0.0
19131,92.0,2.0,30.0,7.0,0.0
19132,80.0,28.0,30.0,7.0,0.0
19133,91.0,2.0,30.0,7.0,0.0
19134,79.0,28.0,30.0,7.0,0.0
19135,96.0,2.0,30.0,7.0,0.0
19136,84.0,28.0,30.0,7.0,0.0
19137,94.0,2.0,30.0,7.0,0.0
19138,82.0,28.0,30.0,7.0,0.0
19139,92.0,2.0,30.0,7.0,0.0
19140,80.0,28.0,30.0,7.0,0.0
19141,91.0,2.0,30.0,7.0,0.0
19142,79.0,28.0,30.0,7.0,0.0
19143,96.0,2.0,30.0,7.0,0.0
19144,84.0,28.0,30.0,7.0,0.0
19145,94.0,2.0,30.0,7.0,0.0
19146,82.0,28.0,30.0,7.0,0.0
19147,92.0,2.0,30.0,7.0,0.0
19148,80.0,28.0,30.0,7.0,0.0
19149,91.0,2.0,30.0,7.0,0.0
19150,79.0,28.0,30.0,7.0,0.0
19151,96.0,2.0,30.0,7.0,0.0
19152,84.0,28.0,30.0,7.0,0.0
19153,94.0,2.0,30.0,7.0,0.0
19154,82.0,28.0,30.0,7.0,0.0
19155,92.0,2.0,30.0,7.0,0.0
19156,80.0,28.0,30.0,7.0,0.0
19157,91.0,2.0,30.0,7.0,0.0
19158,79.0,28.0,30.0,7.0,0.0
19159,96.0,2.0,30.0,7.0,0.0
19160,84.0,28.0,30.0,7.0,0.0
19161,94.0,2.0,30.0,7.0,0.0
19162,82.0,28.0,30.0,7.0,0.0
19163,92.0,2.0,30.0,7.0,0.0
19164,80.0,28.0,30.0,7.0,0.0
19165,91.0,2.0,30.0,7.0,0.0
19166,79.0,28.0,30.0,7.0,0.0
19167,96.0,2.0,30.0,7.0,0.0
19168,84.0,28.0,30.0,7.0,0.0
19169,94.0,2.0,30.0,7.0,0.0
19170,82.0,28.0,30.0,7.0,0.0
19171,92.0,2.0,30.0,7.0,0.0
19172,80.0,28.0,30.0,7.0,0.0
19173,91.0,2.0,30.0,7.0,0.0
19174,79.0,28.0,30.0,7.0,0.0
19175,96.0,30.0,30.0,7.0,0.0
19176,84.0,30.0,60.0,7.0,0.0
19177,67.0,2.0,120.0,8.0,0.0
19178,64.0,2.0,120.0,10.0,0.0
19179,60.0,36.0,120.0,11.0,0.0
19180,94.0,0.0,30.0,7.0,0.0
19181,72.0,0.0,60.0,7.0,0.0
19182,79.0,0.0,60.0,7.0,0.0
19183,92.0,30.0,30.0,7.0,0.0
19184,91.0,0.0,30.0,7.0,0.0
19185,89.0,0.0,30.0,7.0,0.0
19186,92.0,40.0,30.0,7.0,0.0
19187,77.0,0.0,90.0,7.0,0.0
19188,80.0,30.0,90.0,7.0,0.0
19189,84.0,10.0,30.0,7.0,0.0
19190,92.0,0.0,30.0,7.0,0.0
19191,89.0,40.0,30.0,7.0,0.0
19192,84.0,40.0,30.0,7.0,0.0
19193,68.0,0.0,120.0,8.0,0.0
19194,65.0,38.0,120.0,10.0,0.0
19195,88.0,0.0,30.0,7.0,0.0
19196,91.0,40.0,30.0,7.0,0.0
19197,79.0,0.0,60.0,7.0,0.0
19198,72.0,0.0,60.0,7.0,0.0
19199,84.0,2.0,30.0,7.0,0.0
19200,89.0,40.0,30.0,7.0,0.0
19201,77.0,30.0,90.0,7.0,0.0
19202,84.0,10.0,30.0,7.0,0.0
19203,89.0,40.0,30.0,7.0,0.0
19204,68.0,2.0,120.0,8.0,0.0
19205,84.0,40.0,30.0,7.0,0.0
19206,65.0,38.0,120.0,10.0,0.0
19207,91.0,0.0,30.0,7.0,0.0
19208,88.0,40.0,30.0,7.0,0.0
19209,79.0,0.0,60.0,7.0,0.0
19210,72.0,0.0,60.0,7.0,0.0
19211,84.0,0.0,30.0,7.0,0.0
19212,80.0,30.0,90.0,7.0,0.0
19213,77.0,0.0,90.0,7.0,0.0
19214,92.0,0.0,30.0,7.0,0.0
19215,89.0,40.0,30.0,7.0,0.0
19216,84.0,10.0,30.0,7.0,0.0
19217,92.0,0.0,30.0,7.0,0.0
19218,89.0,40.0,30.0,7.0,0.0
19219,68.0,0.0,120.0,8.0,0.0
19220,84.0,40.0,30.0,7.0,0.0
19221,65.0,38.0,120.0,10.0,0.0
19222,91.0,40.0,30.0,7.0,0.0
19223,88.0,0.0,30.0,7.0,0.0
19224,79.0,0.0,60.0,7.0,0.0
19225,72.0,2.0,60.0,7.0,0.0
19226,84.0,0.0,30.0,7.0,0.0
19227,80.0,30.0,90.0,7.0,0.0
19228,77.0,0.0,90.0,7.0,0.0
19229,89.0,40.0,30.0,7.0,0.0
19230,92.0,0.0,30.0,7.0,0.0
19231,84.0,10.0,30.0,7.0,0.0
19232,92.0,0.0,30.0,7.0,0.0
19233,89.0,40.0,30.0,7.0,0.0
19234,68.0,0.0,120.0,8.0,0.0
19235,84.0,40.0,30.0,7.0,0.0
19236,65.0,38.0,120.0,10.0,0.0
19237,89.0,0.0,30.0,7.0,0.0
19238,92.0,40.0,30.0,7.0,0.0
19239,79.0,0.0,60.0,7.0,0.0
19240,72.0,0.0,60.0,7.0,0.0
19241,88.0,2.0,30.0,7.0,0.0
19242,91.0,0.0,30.0,7.0,0.0
19243,92.0,40.0,30.0,7.0,0.0
19244,77.0,30.0,90.0,7.0,0.0
19245,89.0,0.0,30.0,7.0,0.0
19246,80.0,0.0,90.0,7.0,0.0
19247,84.0,10.0,30.0,7.0,0.0
19248,89.0,0.0,30.0,7.0,0.0
19249,92.0,40.0,30.0,7.0,0.0
19250,84.0,40.0,30.0,7.0,0.0
19251,68.0,0.0,120.0,8.0,0.0
19252,65.0,2.0,120.0,10.0,0.0
19253,65.0,36.0,120.0,11.0,0.0
19254,91.0,0.0,30.0,7.0,0.0
19255,88.0,40.0,30.0,7.0,0.0
19256,72.0,2.0,60.0,7.0,0.0
19257,79.0,0.0,60.0,7.0,0.0
19258,84.0,0.0,30.0,7.0,0.0
19259,89.0,0.0,30.0,7.0,0.0
19260,92.0,40.0,30.0,7.0,0.0
19261,77.0,0.0,90.0,7.0,0.0
19262,80.0,30.0,90.0,7.0,0.0
19263,84.0,10.0,30.0,7.0,0.0
19264,92.0,0.0,30.0,7.0,0.0
19265,89.0,40.0,30.0,7.0,0.0
19266,87.0,40.0,30.0,7.0,0.0
19267,70.0,2.0,120.0,8.0,0.0
19268,67.0,2.0,120.0,10.0,0.0
19269,63.0,36.0,120.0,11.0,0.0
19270,91.0,40.0,30.0,7.0,0.0
19271,94.0,0.0,30.0,7.0,0.0
19272,75.0,0.0,60.0,7.0,0.0
19273,87.0,0.0,30.0,7.0,0.0
19274,82.0,0.0,15.0,7.0,0.0
19275,91.0,0.0,30.0,7.0,0.0
19276,75.0,0.0,90.0,7.0,0.0
19277,94.0,40.0,30.0,7.0,0.0
19278,87.0,10.0,30.0,7.0,0.0
19279,94.0,0.0,30.0,7.0,0.0
19280,91.0,40.0,30.0,7.0,0.0
19281,87.0,40.0,30.0,7.0,0.0
19282,70.0,0.0,120.0,8.0,0.0
19283,67.0,2.0,120.0,10.0,0.0
19284,63.0,36.0,120.0,11.0,0.0
19285,94.0,40.0,30.0,7.0,0.0
19286,91.0,0.0,30.0,7.0,0.0
19287,82.0,0.0,60.0,7.0,0.0
19288,87.0,0.0,30.0,7.0,0.0
19289,82.0,30.0,90.0,7.0,0.0
19290,75.0,2.0,15.0,7.0,0.0
19291,91.0,40.0,30.0,7.0,0.0
19292,94.0,0.0,30.0,7.0,0.0
19293,87.0,10.0,30.0,7.0,0.0
19294,94.0,0.0,30.0,7.0,0.0
19295,91.0,40.0,30.0,7.0,0.0
19296,87.0,40.0,30.0,7.0,0.0
19297,70.0,0.0,120.0,8.0,0.0
19298,67.0,2.0,120.0,10.0,0.0
19299,63.0,36.0,120.0,11.0,0.0
19300,96.0,0.0,30.0,7.0,0.0
19301,92.0,40.0,30.0,7.0,0.0
19302,84.0,0.0,60.0,7.0,0.0
19303,91.0,2.0,30.0,7.0,0.0
19304,94.0,0.0,30.0,7.0,0.0
19305,96.0,0.0,30.0,7.0,0.0
19306,80.0,0.0,15.0,7.0,0.0
19307,92.0,40.0,30.0,7.0,0.0
19308,84.0,10.0,30.0,7.0,0.0
19309,96.0,0.0,30.0,7.0,0.0
19310,92.0,40.0,30.0,7.0,0.0
19311,72.0,0.0,120.0,8.0,0.0
19312,84.0,40.0,30.0,7.0,0.0
19313,68.0,2.0,120.0,10.0,0.0
19314,57.0,36.0,120.0,11.0,0.0
19315,94.0,40.0,30.0,7.0,0.0
19316,91.0,0.0,30.0,7.0,0.0
19317,82.0,0.0,60.0,7.0,0.0
19318,79.0,2.0,60.0,7.0,0.0
19319,92.0,0.0,30.0,7.0,0.0
19320,80.0,30.0,90.0,7.0,0.0
19321,84.0,0.0,15.0,7.0,0.0
19322,96.0,40.0,30.0,7.0,0.0
19323,84.0,10.0,30.0,7.0,0.0
19324,96.0,0.0,30.0,7.0,0.0
19325,92.0,40.0,30.0,7.0,0.0
19326,84.0,40.0,30.0,7.0,0.0
19327,72.0,0.0,120.0,8.0,0.0
19328,68.0,2.0,120.0,10.0,0.0
19329,65.0,36.0,120.0,11.0,0.0
19330,91.0,40.0,30.0,7.0,0.0
19331,94.0,0.0,30.0,7.0,0.0
19332,77.0,0.0,60.0,7.0,0.0
19333,80.0,0.0,60.0,7.0,0.0
19334,92.0,2.0,30.0,7.0,0.0
19335,89.0,0.0,30.0,7.0,0.0
19336,94.0,0.0,30.0,7.0,0.0
19337,79.0,30.0,90.0,7.0,0.0
19338,82.0,0.0,90.0,7.0,0.0
19339,91.0,40.0,30.0,7.0,0.0
19340,84.0,10.0,30.0,7.0,0.0
19341,94.0,40.0,30.0,7.0,0.0
19342,91.0,0.0,30.0,7.0,0.0
19343,84.0,40.0,30.0,7.0,0.0
19344,70.0,0.0,120.0,8.0,0.0
19345,67.0,2.0,120.0,10.0,0.0
19346,60.0,36.0,120.0,11.0,0.0
19347,92.0,40.0,30.0,7.0,0.0
19348,89.0,0.0,30.0,7.0,0.0
19349,80.0,2.0,60.0,7.0,0.0
19350,77.0,0.0,60.0,7.0,0.0
19351,84.0,0.0,30.0,7.0,0.0
19352,82.0,30.0,90.0,7.0,0.0
19353,79.0,0.0,90.0,7.0,0.0
19354,94.0,40.0,30.0,7.0,0.0
19355,91.0,0.0,30.0,7.0,0.0
19356,84.0,10.0,30.0,7.0,0.0
19357,91.0,0.0,30.0,7.0,0.0
19358,94.0,40.0,30.0,7.0,0.0
19359,84.0,40.0,30.0,7.0,0.0
19360,70.0,2.0,120.0,8.0,0.0
19361,67.0,2.0,120.0,10.0,0.0
19362,60.0,36.0,120.0,11.0,0.0
19363,92.0,0.0,30.0,7.0,0.0
19364,89.0,40.0,30.0,7.0,0.0
19365,79.0,0.0,60.0,7.0,0.0
19366,72.0,0.0,60.0,7.0,0.0
19367,91.0,0.0,30.0,7.0,0.0
19368,88.0,0.0,30.0,7.0,0.0
19369,80.0,30.0,90.0,7.0,0.0
19370,77.0,0.0,90.0,7.0,0.0
19371,92.0,40.0,30.0,7.0,0.0
19372,89.0,0.0,30.0,7.0,0.0
19373,84.0,10.0,30.0,7.0,0.0
19374,89.0,40.0,30.0,7.0,0.0
19375,92.0,0.0,30.0,7.0,0.0
19376,84.0,40.0,30.0,7.0,0.0
19377,68.0,0.0,120.0,8.0,0.0
19378,65.0,2.0,120.0,10.0,0.0
19379,53.0,36.0,120.0,11.0,0.0
19380,91.0,0.0,30.0,7.0,0.0
19381,88.0,40.0,30.0,7.0,0.0
19382,72.0,2.0,60.0,7.0,0.0
19383,79.0,0.0,60.0,7.0,0.0
19384,84.0,0.0,30.0,7.0,0.0
19385,89.0,40.0,30.0,7.0,0.0
19386,92.0,0.0,30.0,7.0,0.0
19387,77.0,30.0,90.0,7.0,0.0
19388,80.0,0.0,90.0,7.0,0.0
19389,84.0,10.0,30.0,7.0,0.0
19390,89.0,40.0,30.0,7.0,0.0
19391,92.0,0.0,30.0,7.0,0.0
19392,84.0,40.0,30.0,7.0,0.0
19393,67.0,0.0,120.0,8.0,0.0
19394,64.0,2.0,120.0,10.0,0.0
19395,60.0,56.0,120.0,11.0,0.0
19396,88.0,0.0,30.0,7.0,0.0
19397,91.0,40.0,30.0,7.0,0.0
19398,79.0,0.0,60.0,7.0,0.0
19399,72.0,0.0,60.0,7.0,0.0
19400,84.0,2.0,30.0,7.0,0.0
19401,91.0,45.0,60.0,7.0,0.0
19402,88.0,0.0,60.0,7.0,0.0
19403,72.0,45.0,120.0,7.0,0.0
19404,79.0,0.0,120.0,7.0,0.0
19405,79.0,4.0,480.0,2.0,0.0
19406,48.0,40.0,4080.0,12.0,0.0
19407,64.0,39.0,480.0,3.0,0.0
19408,84.0,15.0,60.0,7.0,0.0
19409,83.0,60.0,60.0,7.0,0.0
19410,84.0,60.0,60.0,7.0,0.0
19411,86.0,60.0,60.0,7.0,0.0
19412,88.0,60.0,60.0,7.0,0.0
19413,89.0,60.0,60.0,7.0,0.0
19414,91.0,17.0,60.0,7.0,0.0
19415,41.0,7.0,120.0,7.0,0.0
19416,93.0,60.0,60.0,7.0,0.0
19417,81.0,4.0,1440.0,2.0,0.0
19418,65.0,54.0,1440.0,3.0,0.0
19419,41.0,38.0,120.0,13.0,0.0
19420,89.0,15.0,60.0,7.0,0.0
19421,84.0,60.0,60.0,7.0,0.0
19422,69.0,45.0,120.0,7.0,0.0
19423,89.0,15.0,60.0,7.0,0.0
19424,81.0,60.0,60.0,7.0,0.0
19425,60.0,45.0,120.0,7.0,0.0
19426,89.0,15.0,60.0,7.0,0.0
19427,84.0,60.0,60.0,7.0,0.0
19428,69.0,45.0,120.0,7.0,0.0
19429,89.0,15.0,60.0,7.0,0.0
19430,93.0,60.0,60.0,7.0,0.0
19431,53.0,7.0,120.0,7.0,0.0
19432,41.0,38.0,120.0,13.0,0.0
19433,89.0,15.0,60.0,7.0,0.0
19434,69.0,45.0,120.0,7.0,0.0
19435,84.0,60.0,60.0,7.0,0.0
19436,89.0,15.0,60.0,7.0,0.0
19437,60.0,45.0,120.0,7.0,0.0
19438,84.0,60.0,60.0,7.0,0.0
19439,93.0,15.0,60.0,7.0,0.0
19440,89.0,60.0,60.0,7.0,0.0
19441,69.0,60.0,120.0,7.0,0.0
19442,93.0,15.0,60.0,7.0,0.0
19443,53.0,7.0,120.0,7.0,0.0
19444,96.0,60.0,60.0,7.0,0.0
19445,41.0,53.0,120.0,13.0,0.0
19446,93.0,0.0,60.0,7.0,0.0
19447,69.0,0.0,120.0,7.0,0.0
19448,101.0,60.0,60.0,7.0,0.0
19449,100.0,60.0,60.0,7.0,0.0
19450,60.0,60.0,120.0,7.0,0.0
19451,98.0,60.0,60.0,7.0,0.0
19452,96.0,0.0,60.0,7.0,0.0
19453,69.0,0.0,120.0,7.0,0.0
19454,94.0,60.0,60.0,7.0,0.0
19455,93.0,2.0,60.0,7.0,0.0
19456,96.0,60.0,60.0,7.0,0.0
19457,48.0,7.0,120.0,7.0,0.0
19458,82.0,4.0,480.0,2.0,0.0
19459,67.0,54.0,480.0,3.0,0.0
19460,36.0,53.0,120.0,13.0,0.0
19461,94.0,0.0,60.0,7.0,0.0
19462,70.0,0.0,120.0,7.0,0.0
19463,93.0,60.0,60.0,7.0,0.0
19464,94.0,45.0,60.0,7.0,0.0
19465,60.0,45.0,120.0,7.0,0.0
19466,94.0,60.0,60.0,7.0,0.0
19467,91.0,15.0,60.0,7.0,0.0
19468,93.0,60.0,60.0,7.0,0.0
19469,70.0,2.0,120.0,7.0,0.0
19470,94.0,15.0,60.0,7.0,0.0
19471,48.0,0.0,120.0,7.0,0.0
19472,96.0,60.0,60.0,7.0,0.0
19473,84.0,4.0,480.0,2.0,0.0
19474,69.0,54.0,480.0,3.0,0.0
19475,36.0,38.0,120.0,13.0,0.0
19476,101.0,7.0,60.0,7.0,0.0
19477,105.0,60.0,60.0,7.0,0.0
19478,69.0,45.0,120.0,7.0,0.0
19479,103.0,15.0,60.0,7.0,0.0
19480,60.0,45.0,120.0,7.0,0.0
19481,101.0,60.0,60.0,7.0,0.0
19482,100.0,15.0,60.0,7.0,0.0
19483,69.0,2.0,120.0,7.0,0.0
19484,98.0,60.0,60.0,7.0,0.0
19485,96.0,15.0,60.0,7.0,0.0
19486,48.0,45.0,120.0,7.0,0.0
19487,94.0,60.0,60.0,7.0,0.0
19488,82.0,4.0,480.0,2.0,0.0
19489,67.0,54.0,480.0,3.0,0.0
19490,100.0,0.0,60.0,7.0,0.0
19491,103.0,60.0,60.0,7.0,0.0
19492,67.0,45.0,120.0,7.0,0.0
19493,101.0,15.0,60.0,7.0,0.0
19494,100.0,60.0,60.0,7.0,0.0
19495,60.0,45.0,120.0,7.0,0.0
19496,98.0,15.0,60.0,7.0,0.0
19497,67.0,2.0,120.0,7.0,0.0
19498,96.0,60.0,60.0,7.0,0.0
19499,94.0,15.0,60.0,7.0,0.0
19500,93.0,60.0,60.0,7.0,0.0
19501,48.0,60.0,120.0,7.0,0.0
19502,81.0,4.0,480.0,2.0,0.0
19503,65.0,39.0,480.0,3.0,0.0
19504,101.0,0.0,60.0,7.0,0.0
19505,96.0,60.0,60.0,7.0,0.0
19506,65.0,0.0,120.0,7.0,0.0
19507,101.0,60.0,60.0,7.0,0.0
19508,60.0,45.0,120.0,7.0,0.0
19509,105.0,45.0,60.0,7.0,0.0
19510,101.0,15.0,60.0,7.0,0.0
19511,96.0,60.0,60.0,7.0,0.0
19512,65.0,2.0,120.0,7.0,0.0
19513,93.0,15.0,60.0,7.0,0.0
19514,91.0,15.0,60.0,7.0,0.0
19515,48.0,45.0,60.0,7.0,0.0
19516,64.0,54.0,360.0,3.0,0.0
19517,84.0,60.0,60.0,7.0,0.0
19518,79.0,60.0,60.0,7.0,0.0
19519,72.0,20.0,60.0,7.0,0.0
19520,49.0,45.0,60.0,7.0,0.0
19521,67.0,15.0,60.0,7.0,0.0
19522,64.0,17.0,60.0,7.0,0.0
19523,83.0,0.0,60.0,8.0,0.0
19524,74.0,0.0,60.0,8.0,0.0
19525,67.0,0.0,60.0,8.0,0.0
19526,95.0,0.0,60.0,0.0,0.0
19527,91.0,1.0,60.0,0.0,0.0
19528,62.0,0.0,60.0,5.0,0.0
19529,74.0,0.0,60.0,5.0,0.0
19530,79.0,1.0,60.0,1.0,0.0
19531,83.0,0.0,60.0,1.0,0.0
19532,62.0,2.0,60.0,10.0,0.0
19533,71.0,0.0,60.0,10.0,0.0
19534,79.0,4.0,15.0,2.0,0.0
19535,83.0,0.0,60.0,2.0,0.0
19536,71.0,0.0,60.0,4.0,0.0
19537,67.0,0.0,60.0,4.0,0.0
19538,79.0,0.0,60.0,10.0,0.0
19539,62.0,1.0,60.0,11.0,0.0
19540,50.0,1.0,60.0,12.0,0.0
19541,50.0,0.0,60.0,6.0,0.0
19542,55.0,0.0,60.0,3.0,0.0
19543,59.0,1.0,60.0,3.0,0.0
19544,38.0,113.0,60.0,13.0,0.0
19545,74.0,0.0,60.0,8.0,0.0
19546,83.0,1.0,60.0,8.0,0.0
19547,67.0,0.0,60.0,8.0,0.0
19548,95.0,0.0,60.0,0.0,0.0
19549,91.0,0.0,60.0,0.0,0.0
19550,74.0,0.0,60.0,5.0,0.0
19551,83.0,1.0,60.0,1.0,0.0
19552,62.0,0.0,60.0,5.0,0.0
19553,79.0,0.0,60.0,1.0,0.0
19554,79.0,0.0,60.0,10.0,0.0
19555,71.0,0.0,60.0,10.0,0.0
19556,67.0,0.0,60.0,4.0,0.0
19557,79.0,0.0,60.0,2.0,0.0
19558,62.0,0.0,60.0,10.0,0.0
19559,83.0,2.0,60.0,2.0,0.0
19560,71.0,0.0,60.0,4.0,0.0
19561,62.0,1.0,60.0,11.0,0.0
19562,50.0,1.0,60.0,12.0,0.0
19563,55.0,0.0,60.0,3.0,0.0
19564,50.0,1.0,60.0,6.0,0.0
19565,59.0,0.0,60.0,3.0,0.0
19566,38.0,113.0,60.0,13.0,0.0
19567,90.0,0.0,60.0,0.0,0.0
19568,93.0,1.0,60.0,0.0,0.0
19569,74.0,0.0,60.0,8.0,0.0
19570,66.0,0.0,60.0,8.0,0.0
19571,81.0,0.0,60.0,8.0,0.0
19572,74.0,1.0,60.0,5.0,0.0
19573,78.0,0.0,60.0,1.0,0.0
19574,62.0,0.0,60.0,5.0,0.0
19575,81.0,0.0,60.0,1.0,0.0
19576,74.0,0.0,60.0,2.0,0.0
19577,69.0,0.0,60.0,10.0,0.0
19578,62.0,0.0,60.0,10.0,0.0
19579,69.0,2.0,60.0,4.0,0.0
19580,78.0,0.0,60.0,10.0,0.0
19581,81.0,0.0,60.0,2.0,0.0
19582,62.0,0.0,60.0,4.0,0.0
19583,62.0,1.0,60.0,11.0,0.0
19584,50.0,1.0,60.0,12.0,0.0
19585,50.0,0.0,60.0,3.0,0.0
19586,57.0,0.0,60.0,3.0,0.0
19587,50.0,1.0,60.0,6.0,0.0
19588,38.0,113.0,60.0,13.0,0.0
19589,67.0,1.0,60.0,8.0,0.0
19590,91.0,0.0,60.0,0.0,0.0
19591,79.0,0.0,60.0,8.0,0.0
19592,67.0,1.0,60.0,5.0,0.0
19593,79.0,0.0,60.0,1.0,0.0
19594,79.0,0.0,60.0,5.0,0.0
19595,62.0,0.0,60.0,10.0,0.0
19596,79.0,0.0,60.0,10.0,0.0
19597,71.0,2.0,60.0,10.0,0.0
19598,71.0,0.0,60.0,2.0,0.0
19599,79.0,0.0,60.0,2.0,0.0
19600,67.0,0.0,60.0,4.0,0.0
19601,59.0,0.0,60.0,4.0,0.0
19602,67.0,1.0,60.0,11.0,0.0
19603,55.0,1.0,60.0,12.0,0.0
19604,55.0,1.0,60.0,3.0,0.0
19605,47.0,0.0,60.0,3.0,0.0
19606,55.0,0.0,60.0,6.0,0.0
19607,43.0,113.0,60.0,13.0,0.0
19608,90.0,1.0,60.0,0.0,0.0
19609,93.0,0.0,60.0,0.0,0.0
19610,81.0,0.0,60.0,8.0,0.0
19611,66.0,0.0,60.0,8.0,0.0
19612,74.0,0.0,60.0,8.0,0.0
19613,81.0,0.0,60.0,1.0,0.0
19614,62.0,1.0,60.0,5.0,0.0
19615,78.0,0.0,60.0,1.0,0.0
19616,74.0,0.0,60.0,5.0,0.0
19617,69.0,2.0,60.0,4.0,0.0
19618,78.0,0.0,60.0,10.0,0.0
19619,62.0,0.0,60.0,4.0,0.0
19620,81.0,0.0,60.0,2.0,0.0
19621,69.0,0.0,60.0,10.0,0.0
19622,62.0,0.0,60.0,10.0,0.0
19623,74.0,0.0,60.0,2.0,0.0
19624,62.0,1.0,60.0,11.0,0.0
19625,50.0,1.0,60.0,12.0,0.0
19626,57.0,0.0,60.0,3.0,0.0
19627,50.0,1.0,60.0,3.0,0.0
19628,50.0,0.0,60.0,6.0,0.0
19629,38.0,113.0,60.0,13.0,0.0
19630,67.0,0.0,60.0,8.0,0.0
19631,74.0,0.0,60.0,8.0,0.0
19632,83.0,0.0,60.0,8.0,0.0
19633,91.0,1.0,60.0,0.0,0.0
19634,95.0,0.0,60.0,0.0,0.0
19635,79.0,0.0,60.0,5.0,0.0
19636,67.0,0.0,60.0,5.0,0.0
19637,79.0,0.0,60.0,1.0,0.0
19638,83.0,1.0,60.0,1.0,0.0
19639,79.0,0.0,60.0,10.0,0.0
19640,71.0,0.0,60.0,10.0,0.0
19641,62.0,2.0,60.0,10.0,0.0
19642,83.0,0.0,60.0,2.0,0.0
19643,71.0,0.0,60.0,4.0,0.0
19644,67.0,0.0,60.0,4.0,0.0
19645,79.0,0.0,60.0,2.0,0.0
19646,67.0,1.0,60.0,11.0,0.0
19647,55.0,1.0,60.0,12.0,0.0
19648,59.0,0.0,60.0,3.0,0.0
19649,55.0,1.0,60.0,6.0,0.0
19650,55.0,0.0,60.0,3.0,0.0
19651,43.0,113.0,60.0,13.0,0.0
19652,74.0,0.0,60.0,8.0,0.0
19653,66.0,0.0,60.0,8.0,0.0
19654,90.0,1.0,60.0,0.0,0.0
19655,93.0,0.0,60.0,0.0,0.0
19656,81.0,0.0,60.0,8.0,0.0
19657,81.0,0.0,60.0,1.0,0.0
19658,78.0,0.0,60.0,1.0,0.0
19659,74.0,0.0,60.0,5.0,0.0
19660,62.0,1.0,60.0,5.0,0.0
19661,62.0,2.0,60.0,10.0,0.0
19662,81.0,0.0,60.0,2.0,0.0
19663,74.0,0.0,60.0,2.0,0.0
19664,69.0,0.0,60.0,10.0,0.0
19665,78.0,0.0,60.0,10.0,0.0
19666,62.0,0.0,60.0,4.0,0.0
19667,69.0,0.0,60.0,4.0,0.0
19668,62.0,1.0,60.0,11.0,0.0
19669,50.0,1.0,60.0,12.0,0.0
19670,50.0,0.0,60.0,3.0,0.0
19671,57.0,0.0,60.0,3.0,0.0
19672,50.0,1.0,60.0,6.0,0.0
19673,38.0,113.0,60.0,13.0,0.0
19674,91.0,0.0,60.0,0.0,0.0
19675,83.0,1.0,60.0,8.0,0.0
19676,74.0,0.0,60.0,8.0,0.0
19677,67.0,0.0,60.0,8.0,0.0
19678,95.0,0.0,60.0,0.0,0.0
19679,79.0,0.0,60.0,5.0,0.0
19680,83.0,1.0,60.0,1.0,0.0
19681,79.0,0.0,60.0,1.0,0.0
19682,67.0,0.0,60.0,5.0,0.0
19683,83.0,0.0,60.0,2.0,0.0
19684,62.0,0.0,60.0,10.0,0.0
19685,71.0,0.0,60.0,4.0,0.0
19686,71.0,2.0,60.0,10.0,0.0
19687,67.0,0.0,60.0,4.0,0.0
19688,79.0,0.0,60.0,10.0,0.0
19689,79.0,0.0,60.0,2.0,0.0
19690,67.0,1.0,60.0,11.0,0.0
19691,55.0,1.0,60.0,12.0,0.0
19692,59.0,1.0,60.0,3.0,0.0
19693,55.0,0.0,60.0,3.0,0.0
19694,55.0,0.0,60.0,6.0,0.0
19695,43.0,113.0,60.0,13.0,0.0
19696,91.0,0.0,60.0,0.0,0.0
19697,95.0,0.0,60.0,0.0,0.0
19698,83.0,1.0,60.0,8.0,0.0
19699,83.0,0.0,60.0,1.0,0.0
19700,79.0,1.0,60.0,5.0,0.0
19701,67.0,0.0,60.0,5.0,0.0
19702,79.0,0.0,60.0,1.0,0.0
19703,67.0,0.0,60.0,4.0,0.0
19704,79.0,0.0,60.0,2.0,0.0
19705,83.0,0.0,60.0,2.0,0.0
19706,79.0,0.0,60.0,10.0,0.0
19707,71.0,2.0,60.0,4.0,0.0
19708,67.0,1.0,60.0,11.0,0.0
19709,55.0,1.0,60.0,12.0,0.0
19710,55.0,0.0,60.0,6.0,0.0
19711,55.0,0.0,60.0,3.0,0.0
19712,59.0,1.0,60.0,3.0,0.0
19713,43.0,53.0,60.0,13.0,0.0
19714,81.0,0.0,60.0,8.0,0.0
19715,90.0,1.0,60.0,0.0,0.0
19716,93.0,0.0,60.0,0.0,0.0
19717,81.0,0.0,60.0,1.0,0.0
19718,78.0,0.0,60.0,1.0,0.0
19719,74.0,0.0,60.0,5.0,0.0
19720,62.0,1.0,60.0,5.0,0.0
19721,62.0,0.0,60.0,4.0,0.0
19722,74.0,0.0,60.0,2.0,0.0
19723,69.0,0.0,60.0,4.0,0.0
19724,81.0,2.0,60.0,2.0,0.0
19725,78.0,0.0,60.0,10.0,0.0
19726,62.0,1.0,60.0,11.0,0.0
19727,50.0,1.0,60.0,12.0,0.0
19728,50.0,0.0,60.0,3.0,0.0
19729,57.0,0.0,60.0,3.0,0.0
19730,50.0,1.0,60.0,6.0,0.0
19731,38.0,53.0,60.0,13.0,0.0
19732,67.0,0.0,60.0,8.0,0.0
19733,83.0,1.0,60.0,8.0,0.0
19734,91.0,0.0,60.0,0.0,0.0
19735,95.0,0.0,60.0,0.0,0.0
19736,74.0,0.0,60.0,8.0,0.0
19737,79.0,0.0,60.0,1.0,0.0
19738,83.0,1.0,60.0,1.0,0.0
19739,79.0,0.0,60.0,5.0,0.0
19740,67.0,0.0,60.0,5.0,0.0
19741,79.0,0.0,60.0,2.0,0.0
19742,83.0,0.0,60.0,2.0,0.0
19743,62.0,0.0,60.0,10.0,0.0
19744,71.0,0.0,60.0,10.0,0.0
19745,79.0,2.0,60.0,10.0,0.0
19746,67.0,0.0,60.0,4.0,0.0
19747,71.0,0.0,60.0,4.0,0.0
19748,67.0,1.0,60.0,11.0,0.0
19749,55.0,1.0,60.0,12.0,0.0
19750,55.0,0.0,60.0,6.0,0.0
19751,59.0,0.0,60.0,3.0,0.0
19752,55.0,1.0,60.0,3.0,0.0
19753,43.0,113.0,60.0,13.0,0.0
19754,93.0,1.0,60.0,0.0,0.0
19755,81.0,0.0,60.0,8.0,0.0
19756,90.0,0.0,60.0,0.0,0.0
19757,78.0,0.0,60.0,1.0,0.0
19758,81.0,0.0,60.0,1.0,0.0
19759,74.0,0.0,60.0,5.0,0.0
19760,62.0,1.0,60.0,5.0,0.0
19761,81.0,0.0,60.0,2.0,0.0
19762,62.0,0.0,60.0,4.0,0.0
19763,69.0,0.0,60.0,4.0,0.0
19764,78.0,0.0,60.0,10.0,0.0
19765,69.0,2.0,60.0,10.0,0.0
19766,62.0,0.0,60.0,10.0,0.0
19767,78.0,0.0,60.0,2.0,0.0
19768,62.0,1.0,60.0,11.0,0.0
19769,50.0,1.0,60.0,12.0,0.0
19770,57.0,0.0,60.0,3.0,0.0
19771,50.0,0.0,60.0,3.0,0.0
19772,50.0,1.0,60.0,6.0,0.0
19773,38.0,113.0,60.0,13.0,0.0
19774,83.0,0.0,60.0,8.0,0.0
19775,91.0,0.0,60.0,0.0,0.0
19776,95.0,1.0,60.0,0.0,0.0
19777,67.0,0.0,60.0,8.0,0.0
19778,74.0,0.0,60.0,8.0,0.0
19779,83.0,1.0,60.0,1.0,0.0
19780,79.0,0.0,60.0,5.0,0.0
19781,67.0,0.0,60.0,5.0,0.0
19782,79.0,0.0,60.0,1.0,0.0
19783,71.0,0.0,60.0,10.0,0.0
19784,79.0,0.0,60.0,10.0,0.0
19785,62.0,0.0,60.0,10.0,0.0
19786,79.0,0.0,60.0,2.0,0.0
19787,67.0,0.0,60.0,4.0,0.0
19788,83.0,2.0,60.0,2.0,0.0
19789,71.0,0.0,60.0,4.0,0.0
19790,67.0,1.0,60.0,11.0,0.0
19791,55.0,1.0,60.0,12.0,0.0
19792,55.0,0.0,60.0,3.0,0.0
19793,59.0,0.0,60.0,3.0,0.0
19794,55.0,1.0,60.0,6.0,0.0
19795,43.0,113.0,60.0,13.0,0.0
19796,91.0,0.0,60.0,0.0,0.0
19797,95.0,0.0,60.0,0.0,0.0
19798,83.0,1.0,60.0,8.0,0.0
19799,67.0,0.0,60.0,5.0,0.0
19800,83.0,0.0,60.0,1.0,0.0
19801,79.0,0.0,60.0,1.0,0.0
19802,79.0,1.0,60.0,5.0,0.0
19803,67.0,0.0,60.0,4.0,0.0
19804,79.0,0.0,60.0,2.0,0.0
19805,83.0,0.0,60.0,2.0,0.0
19806,71.0,2.0,60.0,4.0,0.0
19807,79.0,0.0,60.0,10.0,0.0
19808,67.0,1.0,60.0,11.0,0.0
19809,55.0,1.0,60.0,12.0,0.0
19810,55.0,0.0,60.0,6.0,0.0
19811,55.0,1.0,60.0,3.0,0.0
19812,59.0,0.0,60.0,3.0,0.0
19813,43.0,53.0,60.0,13.0,0.0
19814,96.0,0.0,60.0,0.0,0.0
19815,93.0,0.0,60.0,0.0,0.0
19816,84.0,1.0,60.0,8.0,0.0
19817,84.0,0.0,60.0,1.0,0.0
19818,74.0,0.0,60.0,5.0,0.0
19819,69.0,0.0,60.0,4.0,0.0
19820,84.0,0.0,60.0,2.0,0.0
19821,81.0,0.0,60.0,2.0,0.0
19822,50.0,1.0,60.0,12.0,0.0
19823,50.0,0.0,60.0,6.0,0.0
19824,84.0,1.0,240.0,8.0,0.0
19825,81.0,0.0,15.0,1.0,0.0
19826,62.0,1.0,15.0,5.0,0.0
19827,74.0,0.0,240.0,5.0,0.0
19828,72.0,2.0,15.0,4.0,0.0
19829,69.0,0.0,240.0,4.0,0.0
19830,81.0,0.0,15.0,10.0,0.0
19831,81.0,2.0,240.0,2.0,0.0
19832,84.0,0.0,240.0,2.0,0.0
19833,62.0,1.0,15.0,11.0,0.0
19834,57.0,0.0,15.0,3.0,0.0
19835,50.0,114.0,120.0,6.0,0.0
19836,60.0,1.0,15.0,3.0,0.0
19837,38.0,119.0,15.0,13.0,0.0
19838,93.0,0.0,15.0,0.0,0.0
19839,96.0,0.0,15.0,0.0,0.0
19840,84.0,0.0,120.0,8.0,0.0
19841,81.0,0.0,15.0,1.0,0.0
19842,84.0,1.0,15.0,1.0,0.0
19843,81.0,0.0,15.0,10.0,0.0
19844,72.0,2.0,120.0,4.0,0.0
19845,69.0,0.0,120.0,4.0,0.0
19846,81.0,0.0,120.0,2.0,0.0
19847,84.0,0.0,120.0,2.0,0.0
19848,62.0,1.0,15.0,11.0,0.0
19849,50.0,1.0,15.0,12.0,0.0
19850,60.0,0.0,120.0,3.0,0.0
19851,57.0,1.0,120.0,3.0,0.0
19852,50.0,0.0,120.0,6.0,0.0
19853,38.0,113.0,15.0,13.0,0.0
19854,86.0,1.0,60.0,8.0,0.0
19855,83.0,0.0,60.0,1.0,0.0
19856,62.0,0.0,15.0,5.0,0.0
19857,86.0,0.0,60.0,1.0,0.0
19858,74.0,1.0,15.0,5.0,0.0
19859,74.0,0.0,60.0,4.0,0.0
19860,86.0,0.0,60.0,2.0,0.0
19861,83.0,2.0,60.0,10.0,0.0
19862,71.0,0.0,60.0,4.0,0.0
19863,83.0,0.0,60.0,2.0,0.0
19864,67.0,1.0,60.0,11.0,0.0
19865,55.0,1.0,60.0,12.0,0.0
19866,62.0,0.0,60.0,3.0,0.0
19867,59.0,0.0,60.0,3.0,0.0
19868,55.0,1.0,60.0,6.0,0.0
19869,43.0,53.0,60.0,13.0,0.0
19870,84.0,1.0,60.0,8.0,0.0
19871,81.0,0.0,60.0,1.0,0.0
19872,84.0,0.0,60.0,1.0,0.0
19873,62.0,1.0,15.0,5.0,0.0
19874,81.0,0.0,60.0,2.0,0.0
19875,84.0,2.0,60.0,2.0,0.0
19876,81.0,0.0,60.0,10.0,0.0
19877,69.0,0.0,60.0,4.0,0.0
19878,72.0,0.0,60.0,4.0,0.0
19879,62.0,1.0,60.0,11.0,0.0
19880,50.0,1.0,60.0,12.0,0.0
19881,57.0,1.0,60.0,3.0,0.0
19882,50.0,0.0,60.0,6.0,0.0
19883,60.0,0.0,60.0,3.0,0.0
19884,38.0,53.0,60.0,13.0,0.0
19885,86.0,0.0,60.0,8.0,0.0
19886,74.0,1.0,60.0,8.0,0.0
19887,67.0,0.0,60.0,8.0,0.0
19888,83.0,0.0,60.0,1.0,0.0
19889,86.0,0.0,60.0,1.0,0.0
19890,74.0,1.0,15.0,5.0,0.0
19891,62.0,0.0,60.0,5.0,0.0
19892,67.0,2.0,60.0,10.0,0.0
19893,74.0,0.0,60.0,10.0,0.0
19894,83.0,0.0,60.0,10.0,0.0
19895,71.0,0.0,60.0,4.0,0.0
19896,74.0,0.0,60.0,4.0,0.0
19897,83.0,0.0,60.0,2.0,0.0
19898,86.0,0.0,60.0,2.0,0.0
19899,67.0,1.0,60.0,11.0,0.0
19900,55.0,1.0,60.0,12.0,0.0
19901,55.0,1.0,60.0,6.0,0.0
19902,59.0,0.0,60.0,3.0,0.0
19903,62.0,0.0,60.0,3.0,0.0
19904,43.0,113.0,60.0,13.0,0.0
19905,84.0,1.0,60.0,8.0,0.0
19906,74.0,0.0,60.0,5.0,0.0
19907,62.0,0.0,60.0,5.0,0.0
19908,81.0,0.0,60.0,1.0,0.0
19909,84.0,1.0,60.0,1.0,0.0
19910,72.0,0.0,60.0,4.0,0.0
19911,84.0,0.0,60.0,2.0,0.0
19912,81.0,2.0,60.0,2.0,0.0
19913,81.0,0.0,60.0,10.0,0.0
19914,69.0,0.0,60.0,4.0,0.0
19915,62.0,1.0,60.0,11.0,0.0
19916,50.0,1.0,60.0,12.0,0.0
19917,57.0,1.0,60.0,3.0,0.0
19918,60.0,0.0,60.0,3.0,0.0
19919,50.0,0.0,60.0,6.0,0.0
19920,38.0,68.0,60.0,13.0,0.0
19921,86.0,1.0,15.0,8.0,0.0
19922,86.0,0.0,15.0,1.0,0.0
19923,83.0,1.0,15.0,1.0,0.0
19924,74.0,0.0,120.0,4.0,0.0
19925,83.0,0.0,15.0,2.0,0.0
19926,86.0,0.0,15.0,2.0,0.0
19927,83.0,4.0,15.0,10.0,0.0
19928,71.0,0.0,120.0,4.0,0.0
19929,67.0,1.0,120.0,11.0,0.0
19930,55.0,1.0,120.0,12.0,0.0
19931,59.0,0.0,15.0,3.0,0.0
19932,62.0,0.0,15.0,3.0,0.0
19933,55.0,9.0,15.0,6.0,0.0
19934,43.0,39.0,120.0,13.0,0.0
19935,88.0,1.0,15.0,8.0,0.0
19936,84.0,0.0,15.0,1.0,0.0
19937,88.0,1.0,15.0,1.0,0.0
19938,84.0,4.0,15.0,10.0,0.0
19939,84.0,0.0,15.0,2.0,0.0
19940,88.0,0.0,15.0,2.0,0.0
19941,64.0,15.0,15.0,3.0,0.0
19942,54.0,0.0,15.0,6.0,0.0
19943,60.0,0.0,15.0,3.0,0.0
19944,86.0,1.0,90.0,8.0,0.0
19945,83.0,0.0,90.0,1.0,0.0
19946,86.0,0.0,90.0,1.0,0.0
19947,83.0,0.0,90.0,10.0,0.0
19948,83.0,0.0,90.0,2.0,0.0
19949,86.0,2.0,90.0,2.0,0.0
19950,55.0,15.0,15.0,6.0,0.0
19951,62.0,1.0,90.0,3.0,0.0
19952,59.0,0.0,90.0,3.0,0.0
19953,54.0,15.0,15.0,6.0,0.0
19954,55.0,15.0,15.0,6.0,0.0
19955,54.0,15.0,15.0,6.0,0.0
19956,55.0,9.0,15.0,6.0,0.0
19957,54.0,0.0,15.0,6.0,0.0
19958,93.0,0.0,60.0,0.0,0.0
19959,84.0,0.0,60.0,8.0,0.0
19960,96.0,1.0,60.0,0.0,0.0
19961,81.0,1.0,60.0,1.0,0.0
19962,74.0,0.0,15.0,5.0,0.0
19963,62.0,1.0,15.0,5.0,0.0
19964,84.0,0.0,60.0,1.0,0.0
19965,69.0,0.0,60.0,4.0,0.0
19966,72.0,0.0,60.0,4.0,0.0
19967,81.0,0.0,60.0,10.0,0.0
19968,84.0,2.0,60.0,2.0,0.0
19969,81.0,0.0,60.0,2.0,0.0
19970,62.0,2.0,60.0,11.0,0.0
19971,50.0,1.0,60.0,12.0,0.0
19972,50.0,1.0,60.0,6.0,0.0
19973,60.0,40.0,60.0,3.0,0.0
19974,57.0,0.0,60.0,3.0,0.0
19975,38.0,8.0,60.0,13.0,0.0
19976,95.0,1.0,60.0,0.0,0.0
19977,83.0,0.0,60.0,8.0,0.0
19978,91.0,0.0,60.0,0.0,0.0
19979,83.0,0.0,60.0,1.0,0.0
19980,79.0,1.0,60.0,1.0,0.0
19981,74.0,4.0,60.0,5.0,0.0
19982,62.0,0.0,60.0,5.0,0.0
19983,79.0,0.0,60.0,2.0,0.0
19984,71.0,0.0,60.0,4.0,0.0
19985,79.0,2.0,60.0,10.0,0.0
19986,67.0,0.0,60.0,4.0,0.0
19987,83.0,0.0,60.0,2.0,0.0
19988,67.0,2.0,60.0,11.0,0.0
19989,55.0,1.0,60.0,12.0,0.0
19990,55.0,1.0,60.0,6.0,0.0
19991,59.0,0.0,60.0,3.0,0.0
19992,55.0,54.0,60.0,3.0,0.0
19993,43.0,8.0,60.0,13.0,0.0
19994,93.0,0.0,60.0,0.0,0.0
19995,96.0,0.0,60.0,0.0,0.0
19996,84.0,1.0,60.0,8.0,0.0
19997,62.0,0.0,60.0,5.0,0.0
19998,84.0,0.0,60.0,1.0,0.0
19999,81.0,1.0,60.0,1.0,0.0
20000,74.0,0.0,60.0,5.0,0.0
20001,69.0,0.0,60.0,4.0,0.0
20002,81.0,0.0,60.0,10.0,0.0
20003,72.0,0.0,60.0,4.0,0.0
20004,81.0,0.0,60.0,2.0,0.0
20005,84.0,2.0,60.0,2.0,0.0
20006,62.0,1.0,60.0,11.0,0.0
20007,50.0,1.0,60.0,12.0,0.0
20008,50.0,0.0,60.0,6.0,0.0
20009,57.0,1.0,60.0,3.0,0.0
20010,60.0,0.0,60.0,3.0,0.0
20011,38.0,113.0,60.0,13.0,0.0
20012,83.0,1.0,60.0,8.0,0.0
20013,91.0,0.0,60.0,0.0,0.0
20014,95.0,0.0,60.0,0.0,0.0
20015,62.0,0.0,60.0,5.0,0.0
20016,79.0,1.0,60.0,1.0,0.0
20017,83.0,0.0,60.0,1.0,0.0
20018,74.0,0.0,60.0,5.0,0.0
20019,79.0,0.0,60.0,10.0,0.0
20020,67.0,2.0,60.0,4.0,0.0
20021,71.0,0.0,60.0,4.0,0.0
20022,79.0,0.0,60.0,2.0,0.0
20023,83.0,0.0,60.0,2.0,0.0
20024,67.0,1.0,60.0,11.0,0.0
20025,55.0,1.0,60.0,12.0,0.0
20026,55.0,0.0,60.0,3.0,0.0
20027,55.0,1.0,60.0,6.0,0.0
20028,59.0,0.0,60.0,3.0,0.0
20029,43.0,68.0,60.0,13.0,0.0
20030,96.0,0.0,120.0,0.0,0.0
20031,93.0,1.0,120.0,0.0,0.0
20032,84.0,1.0,15.0,8.0,0.0
20033,84.0,0.0,15.0,1.0,0.0
20034,81.0,1.0,15.0,1.0,0.0
20035,74.0,1.0,120.0,5.0,0.0
20036,81.0,0.0,15.0,10.0,0.0
20037,84.0,0.0,15.0,2.0,0.0
20038,69.0,0.0,120.0,4.0,0.0
20039,81.0,4.0,15.0,2.0,0.0
20040,72.0,0.0,120.0,4.0,0.0
20041,62.0,1.0,120.0,11.0,0.0
20042,50.0,1.0,120.0,12.0,0.0
20043,50.0,9.0,15.0,6.0,0.0
20044,60.0,0.0,120.0,3.0,0.0
20045,57.0,0.0,120.0,3.0,0.0
20046,38.0,39.0,120.0,13.0,0.0
20047,86.0,1.0,15.0,8.0,0.0
20048,83.0,0.0,15.0,1.0,0.0
20049,86.0,1.0,15.0,1.0,0.0
20050,83.0,0.0,15.0,10.0,0.0
20051,83.0,4.0,15.0,2.0,0.0
20052,86.0,0.0,15.0,2.0,0.0
20053,49.0,15.0,15.0,6.0,0.0
20054,84.0,0.0,90.0,8.0,0.0
20055,84.0,0.0,90.0,1.0,0.0
20056,81.0,0.0,90.0,1.0,0.0
20057,84.0,0.0,90.0,2.0,0.0
20058,81.0,2.0,90.0,2.0,0.0
20059,81.0,0.0,90.0,10.0,0.0
20060,50.0,15.0,15.0,6.0,0.0
20061,49.0,15.0,15.0,6.0,0.0
20062,50.0,15.0,15.0,6.0,0.0
20063,49.0,15.0,15.0,6.0,0.0
20064,50.0,9.0,15.0,6.0,0.0
20065,49.0,1.0,15.0,6.0,0.0
20066,83.0,0.0,60.0,8.0,0.0
20067,95.0,0.0,60.0,0.0,0.0
20068,91.0,1.0,60.0,0.0,0.0
20069,79.0,0.0,60.0,1.0,0.0
20070,62.0,0.0,15.0,5.0,0.0
20071,83.0,1.0,60.0,1.0,0.0
20072,74.0,4.0,60.0,5.0,0.0
20073,79.0,0.0,60.0,2.0,0.0
20074,83.0,2.0,60.0,2.0,0.0
20075,71.0,0.0,60.0,4.0,0.0
20076,67.0,0.0,60.0,4.0,0.0
20077,79.0,0.0,60.0,10.0,0.0
20078,67.0,2.0,60.0,11.0,0.0
20079,55.0,1.0,60.0,12.0,0.0
20080,55.0,0.0,60.0,3.0,0.0
20081,59.0,40.0,60.0,3.0,0.0
20082,55.0,1.0,60.0,6.0,0.0
20083,43.0,8.0,60.0,13.0,0.0
20084,93.0,0.0,60.0,0.0,0.0
20085,81.0,1.0,60.0,8.0,0.0
20086,90.0,0.0,60.0,0.0,0.0
20087,81.0,1.0,60.0,1.0,0.0
20088,62.0,4.0,60.0,5.0,0.0
20089,74.0,0.0,60.0,5.0,0.0
20090,78.0,0.0,60.0,1.0,0.0
20091,69.0,0.0,60.0,4.0,0.0
20092,62.0,2.0,60.0,4.0,0.0
20093,78.0,0.0,60.0,10.0,0.0
20094,81.0,0.0,60.0,2.0,0.0
20095,78.0,0.0,60.0,2.0,0.0
20096,62.0,2.0,60.0,11.0,0.0
20097,50.0,1.0,60.0,12.0,0.0
20098,50.0,1.0,60.0,6.0,0.0
20099,57.0,54.0,60.0,3.0,0.0
20100,50.0,0.0,60.0,3.0,0.0
20101,38.0,8.0,60.0,13.0,0.0
20102,95.0,0.0,60.0,0.0,0.0
20103,91.0,0.0,60.0,0.0,0.0
20104,74.0,0.0,60.0,8.0,0.0
20105,83.0,1.0,60.0,8.0,0.0
20106,67.0,0.0,60.0,8.0,0.0
20107,79.0,0.0,60.0,1.0,0.0
20108,67.0,1.0,60.0,5.0,0.0
20109,83.0,0.0,60.0,1.0,0.0
20110,79.0,0.0,60.0,5.0,0.0
20111,83.0,0.0,60.0,2.0,0.0
20112,67.0,0.0,60.0,4.0,0.0
20113,62.0,0.0,60.0,10.0,0.0
20114,71.0,0.0,60.0,10.0,0.0
20115,79.0,2.0,60.0,2.0,0.0
20116,79.0,0.0,60.0,10.0,0.0
20117,71.0,0.0,60.0,4.0,0.0
20118,67.0,1.0,60.0,11.0,0.0
20119,55.0,1.0,60.0,12.0,0.0
20120,59.0,1.0,60.0,3.0,0.0
20121,55.0,0.0,60.0,6.0,0.0
20122,55.0,0.0,60.0,3.0,0.0
20123,43.0,113.0,60.0,13.0,0.0
20124,81.0,1.0,60.0,8.0,0.0
20125,90.0,0.0,60.0,0.0,0.0
20126,93.0,0.0,60.0,0.0,0.0
20127,74.0,0.0,60.0,8.0,0.0
20128,66.0,0.0,60.0,8.0,0.0
20129,74.0,0.0,60.0,5.0,0.0
20130,62.0,1.0,60.0,5.0,0.0
20131,78.0,0.0,60.0,1.0,0.0
20132,81.0,0.0,60.0,1.0,0.0
20133,62.0,0.0,60.0,10.0,0.0
20134,78.0,0.0,60.0,2.0,0.0
20135,81.0,0.0,60.0,2.0,0.0
20136,62.0,0.0,60.0,4.0,0.0
20137,69.0,0.0,60.0,4.0,0.0
20138,69.0,0.0,60.0,10.0,0.0
20139,78.0,2.0,60.0,10.0,0.0
20140,62.0,1.0,60.0,11.0,0.0
20141,50.0,1.0,60.0,12.0,0.0
20142,50.0,1.0,60.0,3.0,0.0
20143,57.0,0.0,60.0,3.0,0.0
20144,50.0,0.0,60.0,6.0,0.0
20145,38.0,113.0,60.0,13.0,0.0
20146,95.0,1.0,60.0,0.0,0.0
20147,91.0,0.0,60.0,0.0,0.0
20148,67.0,0.0,60.0,8.0,0.0
20149,74.0,0.0,60.0,8.0,0.0
20150,83.0,0.0,60.0,8.0,0.0
20151,79.0,1.0,60.0,5.0,0.0
20152,67.0,0.0,60.0,5.0,0.0
20153,83.0,0.0,60.0,1.0,0.0
20154,79.0,0.0,60.0,1.0,0.0
20155,79.0,0.0,60.0,2.0,0.0
20156,62.0,0.0,60.0,10.0,0.0
20157,71.0,0.0,60.0,4.0,0.0
20158,67.0,0.0,60.0,4.0,0.0
20159,79.0,0.0,60.0,10.0,0.0
20160,71.0,0.0,60.0,10.0,0.0
20161,83.0,2.0,60.0,2.0,0.0
20162,67.0,1.0,60.0,11.0,0.0
20163,55.0,1.0,60.0,12.0,0.0
20164,55.0,1.0,60.0,6.0,0.0
20165,55.0,0.0,60.0,3.0,0.0
20166,59.0,0.0,60.0,3.0,0.0
20167,43.0,113.0,60.0,13.0,0.0
20168,93.0,0.0,60.0,0.0,0.0
20169,66.0,0.0,60.0,8.0,0.0
20170,81.0,0.0,60.0,8.0,0.0
20171,90.0,0.0,60.0,0.0,0.0
20172,74.0,1.0,60.0,8.0,0.0
20173,74.0,0.0,60.0,5.0,0.0
20174,78.0,0.0,60.0,1.0,0.0
20175,62.0,1.0,60.0,5.0,0.0
20176,81.0,0.0,60.0,1.0,0.0
20177,69.0,0.0,60.0,4.0,0.0
20178,78.0,0.0,60.0,10.0,0.0
20179,69.0,2.0,60.0,10.0,0.0
20180,62.0,0.0,60.0,10.0,0.0
20181,81.0,0.0,60.0,2.0,0.0
20182,78.0,0.0,60.0,2.0,0.0
20183,62.0,0.0,60.0,4.0,0.0
20184,62.0,1.0,60.0,11.0,0.0
20185,50.0,1.0,60.0,12.0,0.0
20186,57.0,0.0,60.0,3.0,0.0
20187,50.0,0.0,60.0,6.0,0.0
20188,50.0,1.0,60.0,3.0,0.0
20189,38.0,173.0,60.0,13.0,0.0
20190,90.0,0.0,120.0,0.0,0.0
20191,93.0,0.0,120.0,0.0,0.0
20192,66.0,1.0,120.0,8.0,0.0
20193,74.0,0.0,120.0,8.0,0.0
20194,81.0,2.0,240.0,8.0,0.0
20195,81.0,0.0,120.0,1.0,0.0
20196,78.0,1.0,120.0,1.0,0.0
20197,74.0,0.0,120.0,5.0,0.0
20198,62.0,0.0,120.0,5.0,0.0
20199,69.0,0.0,120.0,4.0,0.0
20200,62.0,0.0,120.0,4.0,0.0
20201,78.0,0.0,120.0,2.0,0.0
20202,81.0,4.0,120.0,2.0,0.0
20203,66.0,2.0,240.0,10.0,0.0
20204,78.0,0.0,240.0,10.0,0.0
20205,50.0,0.0,120.0,6.0,0.0
20206,50.0,114.0,120.0,3.0,0.0
20207,57.0,0.0,120.0,3.0,0.0
20208,38.0,83.0,240.0,13.0,0.0
20209,69.0,2.0,240.0,8.0,0.0
20210,62.0,1.0,15.0,11.0,0.0
20211,50.0,2.0,15.0,12.0,0.0
20212,38.0,23.0,240.0,13.0,0.0
20213,62.0,30.0,30.0,7.0,0.0
20214,57.0,30.0,30.0,7.0,0.0
20215,66.0,30.0,30.0,7.0,0.0
20216,62.0,30.0,30.0,7.0,0.0
20217,69.0,30.0,30.0,7.0,0.0
20218,66.0,0.0,30.0,7.0,0.0
20219,74.0,30.0,30.0,7.0,0.0
20220,72.0,0.0,120.0,8.0,0.0
20221,81.0,1.0,240.0,1.0,0.0
20222,66.0,2.0,15.0,10.0,0.0
20223,78.0,0.0,240.0,2.0,0.0
20224,62.0,1.0,120.0,11.0,0.0
20225,50.0,2.0,15.0,12.0,0.0
20226,38.0,23.0,120.0,13.0,0.0
20227,69.0,30.0,30.0,7.0,0.0
20228,78.0,30.0,30.0,7.0,0.0
20229,74.0,2.0,30.0,7.0,0.0
20230,81.0,30.0,30.0,7.0,0.0
20231,78.0,30.0,30.0,7.0,0.0
20232,86.0,30.0,30.0,7.0,0.0
20233,81.0,1.0,30.0,7.0,0.0
20234,90.0,30.0,30.0,7.0,0.0
20235,81.0,1.0,240.0,1.0,0.0
20236,78.0,0.0,240.0,2.0,0.0
20237,62.0,28.0,15.0,4.0,0.0
20238,86.0,30.0,30.0,7.0,0.0
20239,93.0,30.0,30.0,7.0,0.0
20240,90.0,60.0,30.0,7.0,0.0
20241,98.0,60.0,15.0,7.0,0.0
20242,69.0,40.0,30.0,7.0,0.0
20243,98.0,30.0,120.0,7.0,0.0
20244,62.0,1.0,240.0,11.0,0.0
20245,48.0,83.0,240.0,13.0,0.0
20246,66.0,40.0,30.0,7.0,0.0
20247,62.0,0.0,30.0,7.0,0.0
20248,60.0,30.0,30.0,7.0,0.0
20249,57.0,30.0,30.0,7.0,0.0
20250,54.0,30.0,30.0,7.0,0.0
20251,50.0,0.0,30.0,7.0,0.0
20252,48.0,30.0,120.0,7.0,0.0
20253,69.0,2.0,15.0,8.0,0.0
20254,66.0,2.0,15.0,10.0,0.0
20255,60.0,2.0,15.0,12.0,0.0
20256,62.0,30.0,30.0,7.0,0.0
20257,57.0,0.0,30.0,7.0,0.0
20258,66.0,30.0,30.0,7.0,0.0
20259,62.0,30.0,30.0,7.0,0.0
20260,69.0,30.0,30.0,7.0,0.0
20261,66.0,0.0,30.0,7.0,0.0
20262,74.0,30.0,30.0,7.0,0.0
20263,69.0,2.0,120.0,8.0,0.0
20264,81.0,1.0,240.0,1.0,0.0
20265,66.0,2.0,120.0,10.0,0.0
20266,78.0,4.0,240.0,2.0,0.0
20267,62.0,0.0,240.0,4.0,0.0
20268,62.0,1.0,15.0,11.0,0.0
20269,60.0,2.0,15.0,12.0,0.0
20270,48.0,23.0,15.0,13.0,0.0
20271,69.0,30.0,30.0,7.0,0.0
20272,78.0,30.0,30.0,7.0,0.0
20273,74.0,0.0,30.0,7.0,0.0
20274,81.0,30.0,30.0,7.0,0.0
20275,78.0,30.0,30.0,7.0,0.0
20276,86.0,30.0,30.0,7.0,0.0
20277,81.0,1.0,30.0,7.0,0.0
20278,90.0,30.0,30.0,7.0,0.0
20279,81.0,1.0,240.0,1.0,0.0
20280,62.0,0.0,240.0,4.0,0.0
20281,78.0,4.0,240.0,2.0,0.0
20282,60.0,24.0,15.0,3.0,0.0
20283,86.0,30.0,30.0,7.0,0.0
20284,93.0,30.0,30.0,7.0,0.0
20285,90.0,30.0,30.0,7.0,0.0
20286,98.0,30.0,30.0,7.0,0.0
20287,93.0,30.0,30.0,7.0,0.0
20288,102.0,30.0,30.0,7.0,0.0
20289,98.0,1.0,30.0,7.0,0.0
20290,71.0,0.0,240.0,8.0,0.0
20291,71.0,40.0,30.0,7.0,0.0
20292,103.0,40.0,120.0,7.0,0.0
20293,67.0,2.0,240.0,10.0,0.0
20294,62.0,1.0,240.0,11.0,0.0
20295,47.0,83.0,240.0,13.0,0.0
20296,67.0,40.0,30.0,7.0,0.0
20297,62.0,0.0,30.0,7.0,0.0
20298,59.0,40.0,30.0,7.0,0.0
20299,55.0,40.0,30.0,7.0,0.0
20300,50.0,2.0,30.0,7.0,0.0
20301,71.0,0.0,240.0,8.0,0.0
20302,47.0,0.0,120.0,7.0,0.0
20303,67.0,2.0,240.0,10.0,0.0
20304,62.0,1.0,240.0,11.0,0.0
20305,59.0,2.0,15.0,12.0,0.0
20306,62.0,30.0,30.0,7.0,0.0
20307,59.0,30.0,30.0,7.0,0.0
20308,67.0,30.0,30.0,7.0,0.0
20309,62.0,30.0,30.0,7.0,0.0
20310,71.0,30.0,30.0,7.0,0.0
20311,67.0,2.0,30.0,7.0,0.0
20312,71.0,0.0,120.0,8.0,0.0
20313,74.0,30.0,30.0,7.0,0.0
20314,83.0,1.0,240.0,1.0,0.0
20315,67.0,2.0,120.0,10.0,0.0
20316,62.0,1.0,120.0,11.0,0.0
20317,59.0,2.0,15.0,12.0,0.0
20318,59.0,24.0,240.0,3.0,0.0
20319,47.0,23.0,15.0,13.0,0.0
20320,71.0,30.0,30.0,7.0,0.0
20321,79.0,30.0,30.0,7.0,0.0
20322,74.0,2.0,30.0,7.0,0.0
20323,83.0,30.0,30.0,7.0,0.0
20324,79.0,30.0,30.0,7.0,0.0
20325,86.0,30.0,30.0,7.0,0.0
20326,83.0,1.0,30.0,7.0,0.0
20327,91.0,30.0,30.0,7.0,0.0
20328,83.0,1.0,240.0,1.0,0.0
20329,62.0,0.0,15.0,4.0,0.0
20330,79.0,4.0,15.0,2.0,0.0
20331,59.0,24.0,240.0,3.0,0.0
20332,86.0,30.0,30.0,7.0,0.0
20333,95.0,30.0,30.0,7.0,0.0
20334,91.0,30.0,30.0,7.0,0.0
20335,98.0,30.0,30.0,7.0,0.0
20336,95.0,30.0,30.0,7.0,0.0
20337,103.0,30.0,30.0,7.0,0.0
20338,95.0,1.0,30.0,7.0,0.0
20339,57.0,30.0,30.0,7.0,0.0
20340,72.0,2.0,120.0,8.0,0.0
20341,66.0,2.0,120.0,10.0,0.0
20342,62.0,1.0,120.0,11.0,0.0
20343,57.0,2.0,120.0,12.0,0.0
20344,45.0,23.0,120.0,13.0,0.0
20345,60.0,30.0,30.0,7.0,0.0
20346,62.0,30.0,30.0,7.0,0.0
20347,66.0,0.0,30.0,7.0,0.0
20348,96.0,0.0,15.0,7.0,0.0
20349,84.0,0.0,240.0,7.0,0.0
20350,57.0,30.0,30.0,7.0,0.0
20351,60.0,30.0,30.0,7.0,0.0
20352,62.0,30.0,30.0,7.0,0.0
20353,66.0,30.0,30.0,7.0,0.0
20354,57.0,30.0,30.0,7.0,0.0
20355,60.0,30.0,30.0,7.0,0.0
20356,62.0,30.0,30.0,7.0,0.0
20357,66.0,30.0,30.0,7.0,0.0
20358,57.0,15.0,30.0,7.0,0.0
20359,95.0,15.0,60.0,7.0,0.0
20360,83.0,0.0,60.0,7.0,0.0
20361,60.0,30.0,30.0,7.0,0.0
20362,81.0,0.0,60.0,7.0,0.0
20363,93.0,15.0,60.0,7.0,0.0
20364,62.0,15.0,30.0,7.0,0.0
20365,66.0,30.0,30.0,7.0,0.0
20366,93.0,15.0,60.0,7.0,0.0
20367,81.0,0.0,60.0,7.0,0.0
20368,57.0,15.0,30.0,7.0,0.0
20369,60.0,30.0,30.0,7.0,0.0
20370,79.0,0.0,60.0,7.0,0.0
20371,62.0,15.0,30.0,7.0,0.0
20372,91.0,15.0,60.0,7.0,0.0
20373,66.0,30.0,30.0,7.0,0.0
20374,78.0,15.0,60.0,7.0,0.0
20375,90.0,0.0,60.0,7.0,0.0
20376,57.0,15.0,30.0,7.0,0.0
20377,60.0,30.0,30.0,7.0,0.0
20378,62.0,15.0,30.0,7.0,0.0
20379,88.0,15.0,60.0,7.0,0.0
20380,76.0,0.0,60.0,7.0,0.0
20381,66.0,30.0,30.0,7.0,0.0
20382,74.0,0.0,60.0,8.0,0.0
20383,86.0,15.0,60.0,7.0,0.0
20384,62.0,15.0,30.0,7.0,0.0
20385,74.0,30.0,30.0,7.0,0.0
20386,73.0,30.0,60.0,8.0,0.0
20387,85.0,15.0,60.0,7.0,0.0
20388,61.0,15.0,30.0,7.0,0.0
20389,73.0,0.0,30.0,7.0,0.0
20390,84.0,15.0,60.0,7.0,0.0
20391,60.0,15.0,30.0,7.0,0.0
20392,72.0,0.0,60.0,8.0,0.0
20393,72.0,30.0,30.0,7.0,0.0
20394,83.0,15.0,60.0,7.0,0.0
20395,59.0,15.0,30.0,7.0,0.0
20396,71.0,0.0,60.0,8.0,0.0
20397,71.0,30.0,30.0,7.0,0.0
20398,69.0,2.0,60.0,8.0,0.0
20399,57.0,15.0,30.0,7.0,0.0
20400,81.0,15.0,60.0,7.0,0.0
20401,69.0,28.0,60.0,10.0,0.0
20402,69.0,0.0,30.0,7.0,0.0
20403,79.0,15.0,60.0,7.0,0.0
20404,55.0,15.0,30.0,7.0,0.0
20405,67.0,28.0,60.0,10.0,0.0
20406,67.0,2.0,30.0,7.0,0.0
20407,54.0,15.0,30.0,7.0,0.0
20408,78.0,15.0,60.0,7.0,0.0
20409,66.0,28.0,60.0,10.0,0.0
20410,66.0,2.0,30.0,7.0,0.0
20411,52.0,15.0,30.0,7.0,0.0
20412,76.0,15.0,60.0,7.0,0.0
20413,64.0,28.0,60.0,10.0,0.0
20414,64.0,2.0,30.0,7.0,0.0
20415,50.0,15.0,30.0,7.0,0.0
20416,74.0,15.0,60.0,7.0,0.0
20417,62.0,2.0,60.0,10.0,0.0
20418,62.0,26.0,60.0,11.0,0.0
20419,62.0,2.0,30.0,7.0,0.0
20420,73.0,15.0,60.0,7.0,0.0
20421,49.0,15.0,30.0,7.0,0.0
20422,61.0,26.0,60.0,11.0,0.0
20423,61.0,4.0,30.0,7.0,0.0
20424,72.0,15.0,60.0,7.0,0.0
20425,48.0,15.0,30.0,7.0,0.0
20426,60.0,26.0,60.0,11.0,0.0
20427,60.0,4.0,30.0,7.0,0.0
20428,71.0,15.0,60.0,7.0,0.0
20429,47.0,15.0,30.0,7.0,0.0
20430,59.0,26.0,60.0,11.0,0.0
20431,59.0,4.0,30.0,7.0,0.0
20432,69.0,30.0,30.0,7.0,0.0
20433,45.0,0.0,30.0,7.0,0.0
20434,57.0,1.0,60.0,11.0,0.0
20435,57.0,25.0,60.0,12.0,0.0
20436,67.0,0.0,30.0,7.0,0.0
20437,57.0,4.0,30.0,7.0,0.0
20438,66.0,0.0,30.0,7.0,0.0
20439,43.0,30.0,30.0,7.0,0.0
20440,55.0,25.0,60.0,12.0,0.0
20441,64.0,0.0,30.0,7.0,0.0
20442,55.0,5.0,30.0,7.0,0.0
20443,42.0,0.0,30.0,7.0,0.0
20444,62.0,30.0,30.0,7.0,0.0
20445,54.0,25.0,60.0,12.0,0.0
20446,64.0,5.0,30.0,7.0,0.0
20447,54.0,0.0,30.0,7.0,0.0
20448,62.0,0.0,30.0,7.0,0.0
20449,40.0,30.0,30.0,7.0,0.0
20450,52.0,25.0,60.0,12.0,0.0
20451,61.0,0.0,30.0,7.0,0.0
20452,52.0,5.0,30.0,7.0,0.0
20453,38.0,30.0,30.0,7.0,0.0
20454,62.0,0.0,30.0,7.0,0.0
20455,74.0,2.0,60.0,8.0,0.0
20456,62.0,3.0,60.0,10.0,0.0
20457,50.0,2.0,60.0,12.0,0.0
20458,50.0,23.0,60.0,13.0,0.0
20459,50.0,0.0,30.0,7.0,0.0
20460,64.0,0.0,30.0,7.0,0.0
20461,66.0,30.0,30.0,7.0,0.0
20462,48.0,0.0,30.0,7.0,0.0
20463,72.0,2.0,60.0,8.0,0.0
20464,60.0,3.0,60.0,10.0,0.0
20465,60.0,2.0,60.0,12.0,0.0
20466,48.0,13.0,60.0,13.0,0.0
20467,67.0,0.0,30.0,7.0,0.0
20468,60.0,0.0,30.0,7.0,0.0
20469,71.0,2.0,60.0,8.0,0.0
20470,69.0,10.0,20.0,7.0,0.0
20471,47.0,10.0,30.0,7.0,0.0
20472,59.0,3.0,60.0,10.0,0.0
20473,59.0,2.0,60.0,12.0,0.0
20474,47.0,13.0,60.0,13.0,0.0
20475,71.0,20.0,20.0,7.0,0.0
20476,59.0,0.0,30.0,7.0,0.0
20477,72.0,0.0,20.0,7.0,0.0
20478,74.0,10.0,20.0,7.0,0.0
20479,45.0,10.0,30.0,7.0,0.0
20480,69.0,0.0,60.0,8.0,0.0
20481,69.0,3.0,60.0,10.0,0.0
20482,57.0,2.0,60.0,12.0,0.0
20483,45.0,23.0,60.0,13.0,0.0
20484,76.0,20.0,20.0,7.0,0.0
20485,57.0,0.0,30.0,7.0,0.0
20486,78.0,2.0,20.0,7.0,0.0
20487,55.0,15.0,30.0,7.0,0.0
20488,43.0,0.0,30.0,7.0,0.0
20489,71.0,25.0,60.0,7.0,0.0
20490,67.0,0.0,120.0,8.0,0.0
20491,79.0,0.0,60.0,7.0,0.0
20492,67.0,2.0,120.0,10.0,0.0
20493,55.0,1.0,120.0,11.0,0.0
20494,55.0,2.0,120.0,12.0,0.0
20495,43.0,23.0,120.0,13.0,0.0
20496,67.0,10.0,30.0,7.0,0.0
20497,81.0,20.0,20.0,7.0,0.0
20498,66.0,10.0,30.0,7.0,0.0
20499,79.0,10.0,20.0,7.0,0.0
20500,78.0,2.0,20.0,7.0,0.0
20501,65.0,15.0,30.0,7.0,0.0
20502,79.0,25.0,60.0,7.0,0.0
20503,64.0,35.0,30.0,7.0,0.0
20504,81.0,5.0,60.0,7.0,0.0
20505,78.0,0.0,60.0,7.0,0.0
20506,63.0,40.0,30.0,7.0,0.0
20507,62.0,40.0,30.0,7.0,0.0
20508,79.0,0.0,240.0,7.0,0.0
20509,61.0,40.0,30.0,7.0,0.0
20510,60.0,40.0,30.0,7.0,0.0
20511,59.0,16.0,30.0,7.0,0.0
20512,79.0,2.0,60.0,8.0,0.0
20513,79.0,1.0,60.0,1.0,0.0
20514,74.0,0.0,60.0,2.0,0.0
20515,59.0,0.0,60.0,4.0,0.0
20516,67.0,2.0,60.0,10.0,0.0
20517,67.0,13.0,60.0,4.0,0.0
20518,55.0,1.0,60.0,11.0,0.0
20519,67.0,2.0,60.0,12.0,0.0
20520,55.0,3.0,60.0,13.0,0.0
20521,58.0,36.0,30.0,7.0,0.0
20522,74.0,0.0,60.0,8.0,0.0
20523,81.0,1.0,60.0,1.0,0.0
20524,69.0,3.0,60.0,4.0,0.0
20525,62.0,0.0,60.0,4.0,0.0
20526,78.0,0.0,60.0,2.0,0.0
20527,62.0,2.0,60.0,10.0,0.0
20528,62.0,1.0,60.0,11.0,0.0
20529,62.0,2.0,60.0,12.0,0.0
20530,50.0,23.0,60.0,13.0,0.0
20531,57.0,10.0,30.0,7.0,0.0
20532,55.0,15.0,30.0,7.0,0.0
20533,83.0,2.0,15.0,7.0,0.0
20534,79.0,25.0,60.0,7.0,0.0
20535,79.0,1.0,120.0,8.0,0.0
20536,83.0,1.0,120.0,1.0,0.0
20537,67.0,0.0,120.0,4.0,0.0
20538,71.0,0.0,120.0,4.0,0.0
20539,67.0,0.0,120.0,10.0,0.0
20540,79.0,2.0,120.0,2.0,0.0
20541,55.0,1.0,120.0,11.0,0.0
20542,67.0,2.0,120.0,12.0,0.0
20543,55.0,23.0,120.0,13.0,0.0
20544,67.0,10.0,30.0,7.0,0.0
20545,81.0,0.0,20.0,7.0,0.0
20546,84.0,20.0,20.0,7.0,0.0
20547,66.0,10.0,30.0,7.0,0.0
20548,83.0,10.0,20.0,7.0,0.0
20549,79.0,0.0,20.0,7.0,0.0
20550,81.0,0.0,20.0,7.0,0.0
20551,78.0,0.0,20.0,7.0,0.0
20552,65.0,15.0,30.0,7.0,0.0
20553,79.0,25.0,60.0,7.0,0.0
20554,83.0,0.0,60.0,7.0,0.0
20555,64.0,35.0,30.0,7.0,0.0
20556,84.0,5.0,60.0,7.0,0.0
20557,81.0,0.0,60.0,7.0,0.0
20558,63.0,40.0,30.0,7.0,0.0
20559,62.0,40.0,30.0,7.0,0.0
20560,83.0,0.0,240.0,7.0,0.0
20561,86.0,0.0,240.0,7.0,0.0
20562,61.0,40.0,30.0,7.0,0.0
20563,60.0,40.0,30.0,7.0,0.0
20564,79.0,2.0,60.0,8.0,0.0
20565,59.0,16.0,30.0,7.0,0.0
20566,83.0,1.0,60.0,1.0,0.0
20567,79.0,13.0,60.0,2.0,0.0
20568,71.0,0.0,60.0,4.0,0.0
20569,67.0,0.0,60.0,4.0,0.0
20570,67.0,2.0,60.0,10.0,0.0
20571,55.0,1.0,60.0,11.0,0.0
20572,67.0,2.0,60.0,12.0,0.0
20573,55.0,3.0,60.0,13.0,0.0
20574,58.0,36.0,30.0,7.0,0.0
20575,67.0,2.0,60.0,8.0,0.0
20576,84.0,1.0,60.0,1.0,0.0
20577,72.0,0.0,60.0,4.0,0.0
20578,69.0,0.0,60.0,4.0,0.0
20579,67.0,2.0,60.0,10.0,0.0
20580,81.0,3.0,60.0,2.0,0.0
20581,67.0,1.0,60.0,11.0,0.0
20582,55.0,2.0,60.0,12.0,0.0
20583,43.0,23.0,60.0,13.0,0.0
20584,57.0,10.0,30.0,7.0,0.0
20585,91.0,0.0,60.0,7.0,0.0
20586,79.0,25.0,60.0,7.0,0.0
20587,79.0,1.0,120.0,8.0,0.0
20588,55.0,15.0,30.0,7.0,0.0
20589,86.0,1.0,120.0,1.0,0.0
20590,83.0,0.0,120.0,2.0,0.0
20591,71.0,2.0,120.0,4.0,0.0
20592,74.0,0.0,120.0,4.0,0.0
20593,67.0,0.0,120.0,10.0,0.0
20594,55.0,1.0,120.0,11.0,0.0
20595,67.0,2.0,120.0,12.0,0.0
20596,55.0,23.0,120.0,13.0,0.0
20597,67.0,10.0,30.0,7.0,0.0
20598,93.0,20.0,20.0,7.0,0.0
20599,66.0,10.0,30.0,7.0,0.0
20600,91.0,10.0,20.0,7.0,0.0
20601,90.0,0.0,20.0,7.0,0.0
20602,91.0,25.0,60.0,7.0,0.0
20603,65.0,15.0,30.0,7.0,0.0
20604,64.0,35.0,30.0,7.0,0.0
20605,93.0,5.0,60.0,7.0,0.0
20606,63.0,40.0,30.0,7.0,0.0
20607,91.0,0.0,60.0,7.0,0.0
20608,95.0,10.0,60.0,7.0,0.0
20609,62.0,30.0,30.0,7.0,0.0
20610,61.0,10.0,30.0,7.0,0.0
20611,96.0,0.0,20.0,7.0,0.0
20612,93.0,20.0,20.0,7.0,0.0
20613,60.0,10.0,30.0,7.0,0.0
20614,91.0,0.0,20.0,7.0,0.0
20615,95.0,10.0,20.0,7.0,0.0
20616,93.0,0.0,20.0,7.0,0.0
20617,90.0,30.0,20.0,7.0,0.0
20618,59.0,15.0,30.0,7.0,0.0
20619,95.0,25.0,60.0,7.0,0.0
20620,91.0,0.0,60.0,7.0,0.0
20621,58.0,35.0,30.0,7.0,0.0
20622,93.0,5.0,60.0,7.0,0.0
20623,96.0,0.0,60.0,7.0,0.0
20624,57.0,40.0,30.0,7.0,0.0
20625,96.0,0.0,60.0,7.0,0.0
20626,55.0,30.0,30.0,7.0,0.0
20627,100.0,0.0,60.0,7.0,0.0
20628,59.0,30.0,30.0,7.0,0.0
20629,62.0,30.0,30.0,7.0,0.0
20630,95.0,30.0,60.0,7.0,0.0
20631,98.0,0.0,60.0,7.0,0.0
20632,67.0,0.0,30.0,7.0,0.0
20633,93.0,15.0,60.0,7.0,0.0
20634,55.0,15.0,30.0,7.0,0.0
20635,96.0,0.0,60.0,7.0,0.0
20636,67.0,0.0,120.0,8.0,0.0
20637,55.0,1.0,120.0,11.0,0.0
20638,55.0,2.0,120.0,12.0,0.0
20639,43.0,23.0,120.0,13.0,0.0
20640,59.0,30.0,30.0,7.0,0.0
20641,62.0,15.0,30.0,7.0,0.0
20642,91.0,0.0,60.0,7.0,0.0
20643,95.0,15.0,60.0,7.0,0.0
20644,67.0,4.0,30.0,7.0,0.0
20645,95.0,0.0,60.0,7.0,0.0
20646,57.0,30.0,30.0,7.0,0.0
20647,91.0,0.0,60.0,7.0,0.0
20648,69.0,0.0,120.0,8.0,0.0
20649,57.0,1.0,120.0,11.0,0.0
20650,57.0,2.0,120.0,12.0,0.0
20651,45.0,23.0,120.0,13.0,0.0
20652,60.0,30.0,30.0,7.0,0.0
20653,89.0,0.0,60.0,7.0,0.0
20654,93.0,0.0,60.0,7.0,0.0
20655,65.0,30.0,30.0,7.0,0.0
20656,69.0,4.0,30.0,7.0,0.0
20657,91.0,15.0,60.0,7.0,0.0
20658,88.0,0.0,60.0,7.0,0.0
20659,59.0,15.0,30.0,7.0,0.0
20660,71.0,0.0,120.0,8.0,0.0
20661,59.0,2.0,120.0,10.0,0.0
20662,59.0,1.0,120.0,11.0,0.0
20663,59.0,2.0,120.0,12.0,0.0
20664,47.0,23.0,120.0,13.0,0.0
20665,62.0,30.0,30.0,7.0,0.0
20666,67.0,15.0,30.0,7.0,0.0
20667,86.0,15.0,60.0,7.0,0.0
20668,89.0,0.0,60.0,7.0,0.0
20669,71.0,2.0,30.0,7.0,0.0
20670,84.0,25.0,60.0,7.0,0.0
20671,81.0,0.0,60.0,7.0,0.0
20672,60.0,15.0,30.0,7.0,0.0
20673,72.0,2.0,120.0,8.0,0.0
20674,60.0,2.0,120.0,10.0,0.0
20675,60.0,1.0,120.0,11.0,0.0
20676,60.0,2.0,120.0,12.0,0.0
20677,48.0,23.0,120.0,13.0,0.0
20678,72.0,10.0,30.0,7.0,0.0
20679,86.0,20.0,20.0,7.0,0.0
20680,71.0,10.0,30.0,7.0,0.0
20681,84.0,10.0,20.0,7.0,0.0
20682,83.0,0.0,20.0,7.0,0.0
20683,84.0,0.0,60.0,7.0,0.0
20684,70.0,15.0,30.0,7.0,0.0
20685,76.0,25.0,60.0,7.0,0.0
20686,69.0,35.0,30.0,7.0,0.0
20687,79.0,5.0,60.0,7.0,0.0
20688,86.0,0.0,60.0,7.0,0.0
20689,68.0,40.0,30.0,7.0,0.0
20690,67.0,40.0,30.0,7.0,0.0
20691,88.0,0.0,240.0,7.0,0.0
20692,66.0,40.0,30.0,7.0,0.0
20693,65.0,40.0,30.0,7.0,0.0
20694,72.0,2.0,60.0,8.0,0.0
20695,64.0,17.0,30.0,7.0,0.0
20696,60.0,2.0,60.0,10.0,0.0
20697,72.0,4.0,60.0,2.0,0.0
20698,60.0,1.0,60.0,11.0,0.0
20699,60.0,2.0,60.0,12.0,0.0
20700,60.0,9.0,60.0,3.0,0.0
20701,48.0,3.0,60.0,13.0,0.0
20702,63.0,37.0,30.0,7.0,0.0
20703,67.0,2.0,60.0,8.0,0.0
20704,74.0,0.0,60.0,2.0,0.0
20705,67.0,2.0,60.0,10.0,0.0
20706,71.0,3.0,60.0,2.0,0.0
20707,55.0,1.0,60.0,11.0,0.0
20708,55.0,2.0,60.0,12.0,0.0
20709,55.0,9.0,60.0,3.0,0.0
20710,62.0,0.0,60.0,3.0,0.0
20711,43.0,23.0,60.0,13.0,0.0
20712,62.0,1.0,30.0,7.0,0.0
20713,84.0,0.0,15.0,7.0,0.0
20714,88.0,0.0,60.0,7.0,0.0
20715,72.0,0.0,120.0,8.0,0.0
20716,60.0,15.0,30.0,7.0,0.0
20717,72.0,0.0,120.0,2.0,0.0
20718,60.0,0.0,120.0,10.0,0.0
20719,76.0,2.0,120.0,2.0,0.0
20720,60.0,1.0,120.0,11.0,0.0
20721,60.0,1.0,120.0,12.0,0.0
20722,64.0,0.0,120.0,3.0,0.0
20723,60.0,1.0,120.0,3.0,0.0
20724,48.0,23.0,120.0,13.0,0.0
20725,72.0,10.0,30.0,7.0,0.0
20726,89.0,20.0,20.0,7.0,0.0
20727,86.0,0.0,20.0,7.0,0.0
20728,71.0,10.0,30.0,7.0,0.0
20729,84.0,0.0,20.0,7.0,0.0
20730,88.0,10.0,20.0,7.0,0.0
20731,83.0,0.0,20.0,7.0,0.0
20732,86.0,2.0,20.0,7.0,0.0
20733,84.0,25.0,60.0,7.0,0.0
20734,88.0,0.0,60.0,7.0,0.0
20735,70.0,15.0,30.0,7.0,0.0
20736,69.0,35.0,30.0,7.0,0.0
20737,89.0,5.0,60.0,7.0,0.0
20738,86.0,0.0,60.0,7.0,0.0
20739,68.0,40.0,30.0,7.0,0.0
20740,88.0,2.0,240.0,7.0,0.0
20741,67.0,40.0,30.0,7.0,0.0
20742,91.0,0.0,240.0,7.0,0.0
20743,66.0,40.0,30.0,7.0,0.0
20744,65.0,40.0,30.0,7.0,0.0
20745,64.0,17.0,30.0,7.0,0.0
20746,72.0,2.0,60.0,8.0,0.0
20747,76.0,0.0,60.0,2.0,0.0
20748,60.0,2.0,60.0,10.0,0.0
20749,72.0,4.0,60.0,2.0,0.0
20750,72.0,1.0,60.0,11.0,0.0
20751,60.0,2.0,60.0,12.0,0.0
20752,60.0,0.0,60.0,3.0,0.0
20753,64.0,9.0,60.0,3.0,0.0
20754,48.0,3.0,60.0,13.0,0.0
20755,63.0,37.0,30.0,7.0,0.0
20756,60.0,0.0,60.0,8.0,0.0
20757,77.0,0.0,60.0,2.0,0.0
20758,74.0,3.0,60.0,2.0,0.0
20759,60.0,2.0,60.0,10.0,0.0
20760,60.0,1.0,60.0,11.0,0.0
20761,48.0,2.0,60.0,12.0,0.0
20762,62.0,0.0,60.0,3.0,0.0
20763,65.0,9.0,60.0,3.0,0.0
20764,36.0,23.0,60.0,13.0,0.0
20765,62.0,1.0,30.0,7.0,0.0
20766,72.0,2.0,120.0,8.0,0.0
20767,60.0,15.0,30.0,7.0,0.0
20768,84.0,25.0,60.0,7.0,0.0
20769,76.0,0.0,60.0,7.0,0.0
20770,79.0,0.0,120.0,2.0,0.0
20771,60.0,2.0,120.0,10.0,0.0
20772,76.0,0.0,120.0,2.0,0.0
20773,72.0,1.0,120.0,11.0,0.0
20774,60.0,1.0,120.0,12.0,0.0
20775,64.0,1.0,120.0,3.0,0.0
20776,67.0,0.0,120.0,3.0,0.0
20777,48.0,23.0,120.0,13.0,0.0
20778,60.0,10.0,30.0,7.0,0.0
20779,86.0,20.0,20.0,7.0,0.0
20780,59.0,10.0,30.0,7.0,0.0
20781,84.0,10.0,20.0,7.0,0.0
20782,83.0,0.0,20.0,7.0,0.0
20783,58.0,15.0,30.0,7.0,0.0
20784,84.0,25.0,60.0,7.0,0.0
20785,57.0,35.0,30.0,7.0,0.0
20786,86.0,5.0,60.0,7.0,0.0
20787,56.0,40.0,30.0,7.0,0.0
20788,84.0,10.0,60.0,7.0,0.0
20789,55.0,30.0,30.0,7.0,0.0
20790,88.0,0.0,60.0,7.0,0.0
20791,54.0,10.0,30.0,7.0,0.0
20792,86.0,20.0,20.0,7.0,0.0
20793,89.0,0.0,20.0,7.0,0.0
20794,88.0,0.0,20.0,7.0,0.0
20795,84.0,10.0,20.0,7.0,0.0
20796,53.0,10.0,30.0,7.0,0.0
20797,86.0,30.0,20.0,7.0,0.0
20798,83.0,0.0,20.0,7.0,0.0
20799,84.0,0.0,60.0,7.0,0.0
20800,88.0,25.0,60.0,7.0,0.0
20801,52.0,15.0,30.0,7.0,0.0
20802,51.0,35.0,30.0,7.0,0.0
20803,89.0,0.0,60.0,7.0,0.0
20804,86.0,5.0,60.0,7.0,0.0
20805,50.0,40.0,30.0,7.0,0.0
20806,91.0,0.0,60.0,7.0,0.0
20807,88.0,0.0,60.0,7.0,0.0
20808,48.0,30.0,30.0,7.0,0.0
20809,52.0,20.0,30.0,7.0,0.0
20810,93.0,10.0,20.0,7.0,0.0
20811,55.0,10.0,30.0,7.0,0.0
20812,91.0,20.0,20.0,7.0,0.0
20813,60.0,30.0,30.0,7.0,0.0
20814,90.0,0.0,20.0,7.0,0.0
20815,91.0,15.0,60.0,7.0,0.0
20816,52.0,15.0,30.0,7.0,0.0
20817,55.0,30.0,30.0,7.0,0.0
20818,86.0,15.0,60.0,7.0,0.0
20819,95.0,0.0,60.0,7.0,0.0
20820,60.0,15.0,30.0,7.0,0.0
20821,64.0,30.0,30.0,7.0,0.0
20822,88.0,15.0,60.0,7.0,0.0
20823,96.0,0.0,60.0,7.0,0.0
20824,55.0,15.0,30.0,7.0,0.0
20825,60.0,30.0,30.0,7.0,0.0
20826,95.0,0.0,60.0,7.0,0.0
20827,98.0,15.0,60.0,7.0,0.0
20828,64.0,15.0,30.0,7.0,0.0
20829,67.0,30.0,30.0,7.0,0.0
20830,100.0,0.0,60.0,7.0,0.0
20831,96.0,15.0,60.0,7.0,0.0
20832,60.0,15.0,30.0,7.0,0.0
20833,64.0,30.0,30.0,7.0,0.0
20834,96.0,15.0,60.0,7.0,0.0
20835,100.0,0.0,60.0,7.0,0.0
20836,67.0,15.0,30.0,7.0,0.0
20837,72.0,30.0,30.0,7.0,0.0
20838,69.0,0.0,120.0,8.0,0.0
20839,57.0,15.0,30.0,7.0,0.0
20840,100.0,0.0,60.0,7.0,0.0
20841,96.0,25.0,60.0,7.0,0.0
20842,64.0,2.0,120.0,10.0,0.0
20843,57.0,1.0,120.0,11.0,0.0
20844,57.0,2.0,120.0,12.0,0.0
20845,45.0,23.0,120.0,13.0,0.0
20846,69.0,10.0,30.0,7.0,0.0
20847,86.0,20.0,20.0,7.0,0.0
20848,68.0,10.0,30.0,7.0,0.0
20849,84.0,10.0,20.0,7.0,0.0
20850,83.0,2.0,20.0,7.0,0.0
20851,67.0,15.0,30.0,7.0,0.0
20852,84.0,25.0,60.0,7.0,0.0
20853,66.0,35.0,30.0,7.0,0.0
20854,86.0,0.0,60.0,7.0,0.0
20855,83.0,5.0,60.0,7.0,0.0
20856,65.0,40.0,30.0,7.0,0.0
20857,88.0,1.0,240.0,7.0,0.0
20858,84.0,0.0,240.0,7.0,0.0
20859,64.0,40.0,30.0,7.0,0.0
20860,63.0,40.0,30.0,7.0,0.0
20861,62.0,40.0,30.0,7.0,0.0
20862,61.0,30.0,30.0,7.0,0.0
20863,69.0,1.0,60.0,8.0,0.0
20864,81.0,1.0,60.0,1.0,0.0
20865,69.0,0.0,60.0,2.0,0.0
20866,57.0,1.0,60.0,11.0,0.0
20867,57.0,1.0,60.0,12.0,0.0
20868,57.0,1.0,60.0,3.0,0.0
20869,45.0,3.0,60.0,13.0,0.0
20870,60.0,40.0,30.0,7.0,0.0
20871,64.0,0.0,60.0,8.0,0.0
20872,83.0,1.0,60.0,1.0,0.0
20873,64.0,2.0,15.0,10.0,0.0
20874,71.0,2.0,60.0,2.0,0.0
20875,64.0,1.0,60.0,11.0,0.0
20876,52.0,1.0,60.0,12.0,0.0
20877,59.0,1.0,60.0,3.0,0.0
20878,40.0,23.0,60.0,13.0,0.0
20879,59.0,10.0,30.0,7.0,0.0
20880,84.0,25.0,60.0,7.0,0.0
20881,57.0,15.0,30.0,7.0,0.0
20882,69.0,0.0,120.0,8.0,0.0
20883,84.0,1.0,120.0,1.0,0.0
20884,64.0,0.0,15.0,10.0,0.0
20885,72.0,2.0,120.0,2.0,0.0
20886,57.0,1.0,120.0,11.0,0.0
20887,57.0,1.0,120.0,12.0,0.0
20888,60.0,1.0,120.0,3.0,0.0
20889,45.0,23.0,120.0,13.0,0.0
20890,69.0,10.0,30.0,7.0,0.0
20891,95.0,20.0,20.0,7.0,0.0
20892,68.0,10.0,30.0,7.0,0.0
20893,93.0,10.0,20.0,7.0,0.0
20894,92.0,1.0,20.0,7.0,0.0
20895,93.0,25.0,60.0,7.0,0.0
20896,67.0,15.0,30.0,7.0,0.0
20897,66.0,35.0,30.0,7.0,0.0
20898,95.0,5.0,60.0,7.0,0.0
20899,65.0,40.0,30.0,7.0,0.0
20900,96.0,25.0,60.0,7.0,0.0
20901,64.0,15.0,30.0,7.0,0.0
20902,62.0,10.0,30.0,7.0,0.0
20903,83.0,20.0,20.0,7.0,0.0
20904,81.0,10.0,20.0,7.0,0.0
20905,60.0,10.0,30.0,7.0,0.0
20906,80.0,30.0,20.0,7.0,0.0
20907,69.0,1.0,60.0,8.0,0.0
20908,81.0,15.0,60.0,7.0,0.0
20909,59.0,15.0,30.0,7.0,0.0
20910,81.0,1.0,60.0,1.0,0.0
20911,69.0,2.0,60.0,2.0,0.0
20912,57.0,1.0,60.0,11.0,0.0
20913,57.0,1.0,60.0,12.0,0.0
20914,57.0,1.0,60.0,3.0,0.0
20915,45.0,3.0,60.0,13.0,0.0
20916,57.0,35.0,30.0,7.0,0.0
20917,67.0,1.0,60.0,8.0,0.0
20918,83.0,5.0,60.0,7.0,0.0
20919,83.0,1.0,60.0,1.0,0.0
20920,71.0,2.0,60.0,2.0,0.0
20921,55.0,1.0,60.0,11.0,0.0
20922,55.0,1.0,60.0,12.0,0.0
20923,59.0,1.0,60.0,3.0,0.0
20924,43.0,23.0,60.0,13.0,0.0
20925,55.0,10.0,30.0,7.0,0.0
20926,54.0,15.0,30.0,7.0,0.0
20927,66.0,1.0,120.0,8.0,0.0
20928,84.0,15.0,60.0,7.0,0.0
20929,72.0,2.0,120.0,2.0,0.0
20930,54.0,1.0,120.0,11.0,0.0
20931,54.0,1.0,120.0,12.0,0.0
20932,42.0,23.0,120.0,13.0,0.0
20933,57.0,20.0,30.0,7.0,0.0
20934,83.0,10.0,20.0,7.0,0.0
20935,60.0,10.0,30.0,7.0,0.0
20936,81.0,20.0,20.0,7.0,0.0
20937,66.0,0.0,30.0,7.0,0.0
20938,80.0,0.0,20.0,7.0,0.0
20939,69.0,15.0,60.0,7.0,0.0
20940,52.0,15.0,30.0,7.0,0.0
20941,64.0,0.0,60.0,8.0,0.0
20942,81.0,0.0,60.0,7.0,0.0
20943,84.0,1.0,15.0,1.0,0.0
20944,72.0,3.0,60.0,2.0,0.0
20945,60.0,1.0,15.0,3.0,0.0
20946,40.0,23.0,60.0,13.0,0.0
20947,57.0,1.0,30.0,7.0,0.0
20948,64.0,1.0,60.0,8.0,0.0
20949,71.0,15.0,60.0,7.0,0.0
20950,83.0,0.0,60.0,7.0,0.0
20951,60.0,15.0,30.0,7.0,0.0
20952,84.0,1.0,60.0,1.0,0.0
20953,52.0,1.0,15.0,12.0,0.0
20954,60.0,1.0,15.0,3.0,0.0
20955,40.0,23.0,60.0,13.0,0.0
20956,64.0,0.0,30.0,7.0,0.0
20957,62.0,1.0,120.0,8.0,0.0
20958,84.0,0.0,60.0,7.0,0.0
20959,50.0,15.0,30.0,7.0,0.0
20960,72.0,15.0,60.0,7.0,0.0
20961,84.0,1.0,120.0,1.0,0.0
20962,72.0,3.0,15.0,2.0,0.0
20963,50.0,1.0,120.0,12.0,0.0
20964,38.0,23.0,120.0,13.0,0.0
20965,54.0,30.0,30.0,7.0,0.0
20966,74.0,15.0,60.0,7.0,0.0
20967,86.0,0.0,60.0,7.0,0.0
20968,57.0,15.0,30.0,7.0,0.0
20969,62.0,0.0,30.0,7.0,0.0
20970,51.0,15.0,30.0,7.0,0.0
20971,88.0,0.0,60.0,7.0,0.0
20972,76.0,15.0,60.0,7.0,0.0
20973,72.0,3.0,15.0,2.0,0.0
20974,63.0,1.0,60.0,11.0,0.0
20975,60.0,1.0,15.0,3.0,0.0
20976,39.0,23.0,60.0,13.0,0.0
20977,54.0,1.0,30.0,7.0,0.0
20978,63.0,0.0,15.0,8.0,0.0
20979,57.0,15.0,30.0,7.0,0.0
20980,78.0,15.0,60.0,7.0,0.0
20981,90.0,0.0,60.0,7.0,0.0
20982,84.0,1.0,15.0,1.0,0.0
20983,72.0,0.0,15.0,2.0,0.0
20984,63.0,2.0,15.0,10.0,0.0
20985,63.0,1.0,60.0,11.0,0.0
20986,51.0,1.0,15.0,12.0,0.0
20987,60.0,1.0,60.0,3.0,0.0
20988,39.0,53.0,60.0,13.0,0.0
20989,63.0,0.0,30.0,7.0,0.0
20990,52.0,0.0,60.0,7.0,0.0
20991,79.0,0.0,60.0,7.0,0.0
20992,91.0,30.0,60.0,7.0,0.0
20993,64.0,0.0,120.0,8.0,0.0
20994,83.0,1.0,120.0,1.0,0.0
20995,64.0,2.0,120.0,10.0,0.0
20996,71.0,0.0,120.0,2.0,0.0
20997,64.0,1.0,120.0,11.0,0.0
20998,52.0,1.0,120.0,12.0,0.0
20999,59.0,1.0,120.0,3.0,0.0
21000,40.0,23.0,120.0,13.0,0.0
21001,103.0,0.0,120.0,7.0,0.0
21002,64.0,30.0,30.0,7.0,0.0
21003,91.0,30.0,120.0,7.0,0.0
21004,63.0,1.0,30.0,7.0,0.0
21005,66.0,30.0,30.0,7.0,0.0
21006,64.0,0.0,30.0,7.0,0.0
21007,67.0,30.0,30.0,7.0,0.0
21008,102.0,30.0,120.0,7.0,0.0
21009,90.0,0.0,120.0,7.0,0.0
21010,66.0,30.0,30.0,7.0,0.0
21011,69.0,30.0,30.0,7.0,0.0
21012,67.0,0.0,30.0,7.0,0.0
21013,101.0,0.0,120.0,7.0,0.0
21014,89.0,0.0,120.0,7.0,0.0
21015,71.0,30.0,30.0,7.0,0.0
21016,70.0,30.0,30.0,7.0,0.0
21017,72.0,30.0,30.0,7.0,0.0
21018,71.0,30.0,30.0,7.0,0.0
21019,88.0,0.0,120.0,7.0,0.0
21020,73.0,30.0,30.0,7.0,0.0
21021,100.0,0.0,120.0,7.0,0.0
21022,72.0,30.0,30.0,7.0,0.0
21023,74.0,30.0,30.0,7.0,0.0
21024,73.0,30.0,30.0,7.0,0.0
21025,99.0,0.0,120.0,7.0,0.0
21026,75.0,30.0,30.0,7.0,0.0
21027,87.0,30.0,120.0,7.0,0.0
21028,74.0,30.0,30.0,7.0,0.0
21029,76.0,30.0,30.0,7.0,0.0
21030,75.0,0.0,30.0,7.0,0.0
21031,76.0,30.0,30.0,7.0,0.0
21032,86.0,0.0,120.0,7.0,0.0
21033,98.0,30.0,120.0,7.0,0.0
21034,75.0,30.0,30.0,7.0,0.0
21035,76.0,30.0,30.0,7.0,0.0
21036,75.0,0.0,30.0,7.0,0.0
21037,85.0,0.0,60.0,7.0,0.0
21038,76.0,15.0,30.0,7.0,0.0
21039,97.0,15.0,60.0,7.0,0.0
21040,75.0,30.0,30.0,7.0,0.0
21041,84.0,0.0,60.0,7.0,0.0
21042,76.0,0.0,60.0,8.0,0.0
21043,96.0,15.0,60.0,7.0,0.0
21044,76.0,15.0,30.0,7.0,0.0
21045,71.0,0.0,60.0,4.0,0.0
21046,79.0,0.0,60.0,2.0,0.0
21047,64.0,1.0,60.0,11.0,0.0
21048,64.0,2.0,60.0,12.0,0.0
21049,52.0,23.0,60.0,13.0,0.0
21050,71.0,1.0,30.0,7.0,0.0
21051,67.0,15.0,30.0,7.0,0.0
21052,95.0,0.0,60.0,7.0,0.0
21053,83.0,15.0,60.0,7.0,0.0
21054,64.0,1.0,60.0,8.0,0.0
21055,83.0,1.0,15.0,1.0,0.0
21056,67.0,0.0,15.0,4.0,0.0
21057,71.0,0.0,60.0,4.0,0.0
21058,64.0,2.0,15.0,10.0,0.0
21059,52.0,1.0,60.0,11.0,0.0
21060,52.0,2.0,60.0,12.0,0.0
21061,40.0,53.0,60.0,13.0,0.0
21062,64.0,0.0,30.0,7.0,0.0
21063,60.0,0.0,60.0,7.0,0.0
21064,72.0,1.0,120.0,8.0,0.0
21065,100.0,30.0,60.0,7.0,0.0
21066,88.0,1.0,120.0,1.0,0.0
21067,64.0,0.0,15.0,10.0,0.0
21068,67.0,0.0,15.0,4.0,0.0
21069,69.0,0.0,120.0,4.0,0.0
21070,79.0,2.0,15.0,2.0,0.0
21071,60.0,1.0,120.0,11.0,0.0
21072,60.0,2.0,120.0,12.0,0.0
21073,48.0,23.0,120.0,13.0,0.0
21074,88.0,0.0,15.0,7.0,0.0
21075,100.0,0.0,120.0,7.0,0.0
21076,72.0,30.0,30.0,7.0,0.0
21077,71.0,0.0,30.0,7.0,0.0
21078,74.0,30.0,30.0,7.0,0.0
21079,72.0,0.0,30.0,7.0,0.0
21080,87.0,0.0,120.0,7.0,0.0
21081,99.0,30.0,120.0,7.0,0.0
21082,76.0,30.0,30.0,7.0,0.0
21083,75.0,30.0,30.0,7.0,0.0
21084,78.0,30.0,30.0,7.0,0.0
21085,76.0,0.0,30.0,7.0,0.0
21086,86.0,0.0,120.0,7.0,0.0
21087,98.0,0.0,120.0,7.0,0.0
21088,80.0,30.0,30.0,7.0,0.0
21089,78.0,30.0,30.0,7.0,0.0
21090,81.0,30.0,30.0,7.0,0.0
21091,80.0,30.0,30.0,7.0,0.0
21092,85.0,30.0,120.0,7.0,0.0
21093,97.0,0.0,120.0,7.0,0.0
21094,82.0,30.0,30.0,7.0,0.0
21095,81.0,30.0,30.0,7.0,0.0
21096,83.0,30.0,30.0,7.0,0.0
21097,82.0,0.0,30.0,7.0,0.0
21098,84.0,30.0,30.0,7.0,0.0
21099,96.0,0.0,120.0,7.0,0.0
21100,83.0,30.0,30.0,7.0,0.0
21101,84.0,30.0,30.0,7.0,0.0
21102,83.0,30.0,30.0,7.0,0.0
21103,95.0,30.0,60.0,7.0,0.0
21104,84.0,30.0,30.0,7.0,0.0
21105,83.0,0.0,30.0,7.0,0.0
21106,84.0,30.0,30.0,7.0,0.0
21107,98.0,0.0,60.0,7.0,0.0
21108,81.0,30.0,30.0,7.0,0.0
21109,76.0,30.0,30.0,7.0,0.0
21110,96.0,0.0,60.0,7.0,0.0
21111,72.0,30.0,30.0,7.0,0.0
21112,72.0,1.0,60.0,8.0,0.0
21113,95.0,15.0,60.0,7.0,0.0
21114,84.0,15.0,30.0,7.0,0.0
21115,72.0,2.0,60.0,10.0,0.0
21116,60.0,2.0,60.0,12.0,0.0
21117,48.0,23.0,60.0,13.0,0.0
21118,81.0,0.0,30.0,7.0,0.0
21119,76.0,15.0,30.0,7.0,0.0
21120,60.0,1.0,60.0,8.0,0.0
21121,93.0,15.0,60.0,7.0,0.0
21122,88.0,1.0,15.0,1.0,0.0
21123,67.0,0.0,15.0,4.0,0.0
21124,69.0,0.0,15.0,4.0,0.0
21125,79.0,0.0,15.0,2.0,0.0
21126,60.0,0.0,60.0,10.0,0.0
21127,60.0,1.0,15.0,11.0,0.0
21128,48.0,2.0,60.0,12.0,0.0
21129,36.0,53.0,60.0,13.0,0.0
21130,72.0,0.0,30.0,7.0,0.0
21131,62.0,0.0,120.0,8.0,0.0
21132,74.0,1.0,60.0,7.0,0.0
21133,83.0,29.0,60.0,1.0,0.0
21134,62.0,0.0,120.0,10.0,0.0
21135,79.0,0.0,120.0,2.0,0.0
21136,67.0,0.0,120.0,4.0,0.0
21137,71.0,2.0,120.0,4.0,0.0
21138,62.0,1.0,120.0,11.0,0.0
21139,50.0,2.0,120.0,12.0,0.0
21140,38.0,23.0,120.0,13.0,0.0
21141,98.0,30.0,30.0,7.0,0.0
21142,86.0,0.0,30.0,7.0,0.0
21143,86.0,5.0,120.0,1.0,0.0
21144,71.0,24.0,120.0,3.0,0.0
21145,95.0,0.0,30.0,7.0,0.0
21146,83.0,2.0,30.0,7.0,0.0
21147,86.0,30.0,30.0,7.0,0.0
21148,98.0,0.0,30.0,7.0,0.0
21149,95.0,1.0,30.0,7.0,0.0
21150,83.0,0.0,30.0,7.0,0.0
21151,79.0,0.0,30.0,7.0,0.0
21152,91.0,30.0,30.0,7.0,0.0
21153,86.0,5.0,120.0,1.0,0.0
21154,71.0,24.0,120.0,3.0,0.0
21155,95.0,30.0,30.0,7.0,0.0
21156,83.0,0.0,30.0,7.0,0.0
21157,91.0,30.0,30.0,7.0,0.0
21158,79.0,0.0,30.0,7.0,0.0
21159,95.0,1.0,30.0,7.0,0.0
21160,83.0,0.0,30.0,7.0,0.0
21161,86.0,30.0,30.0,7.0,0.0
21162,74.0,0.0,30.0,7.0,0.0
21163,84.0,5.0,120.0,1.0,0.0
21164,69.0,24.0,120.0,3.0,0.0
21165,91.0,30.0,30.0,7.0,0.0
21166,79.0,0.0,30.0,7.0,0.0
21167,74.0,0.0,30.0,7.0,0.0
21168,86.0,30.0,30.0,7.0,0.0
21169,91.0,0.0,30.0,7.0,0.0
21170,79.0,1.0,30.0,7.0,0.0
21171,71.0,30.0,30.0,7.0,0.0
21172,83.0,0.0,30.0,7.0,0.0
21173,67.0,24.0,60.0,3.0,0.0
21174,74.0,0.0,30.0,7.0,0.0
21175,86.0,1.0,30.0,7.0,0.0
21176,83.0,30.0,30.0,7.0,0.0
21177,71.0,0.0,30.0,7.0,0.0
21178,83.0,5.0,15.0,1.0,0.0
21179,67.0,24.0,540.0,3.0,0.0
21180,86.0,30.0,30.0,7.0,0.0
21181,74.0,0.0,30.0,7.0,0.0
21182,67.0,0.0,30.0,7.0,0.0
21183,79.0,30.0,30.0,7.0,0.0
21184,71.0,30.0,30.0,7.0,0.0
21185,83.0,0.0,30.0,7.0,0.0
21186,67.0,30.0,30.0,7.0,0.0
21187,79.0,0.0,30.0,7.0,0.0
21188,71.0,0.0,30.0,7.0,0.0
21189,83.0,30.0,30.0,7.0,0.0
21190,62.0,0.0,30.0,7.0,0.0
21191,74.0,30.0,30.0,7.0,0.0
21192,79.0,30.0,30.0,7.0,0.0
21193,67.0,0.0,30.0,7.0,0.0
21194,62.0,0.0,30.0,7.0,0.0
21195,74.0,30.0,30.0,7.0,0.0
21196,67.0,30.0,30.0,7.0,0.0
21197,79.0,0.0,30.0,7.0,0.0
21198,59.0,30.0,30.0,7.0,0.0
21199,71.0,0.0,30.0,7.0,0.0
21200,62.0,30.0,30.0,7.0,0.0
21201,74.0,0.0,30.0,7.0,0.0
21202,74.0,2.0,60.0,8.0,0.0
21203,71.0,30.0,30.0,7.0,0.0
21204,59.0,0.0,30.0,7.0,0.0
21205,74.0,2.0,60.0,10.0,0.0
21206,62.0,1.0,60.0,11.0,0.0
21207,62.0,2.0,60.0,12.0,0.0
21208,50.0,23.0,60.0,13.0,0.0
21209,62.0,0.0,30.0,7.0,0.0
21210,74.0,0.0,30.0,7.0,0.0
21211,55.0,30.0,30.0,7.0,0.0
21212,62.0,0.0,60.0,8.0,0.0
21213,67.0,0.0,30.0,7.0,0.0
21214,62.0,1.0,60.0,11.0,0.0
21215,50.0,2.0,60.0,12.0,0.0
21216,38.0,53.0,60.0,13.0,0.0
21217,71.0,0.0,30.0,7.0,0.0
21218,59.0,2.0,30.0,7.0,0.0
21219,50.0,1.0,60.0,7.0,0.0
21220,62.0,0.0,120.0,8.0,0.0
21221,62.0,2.0,15.0,10.0,0.0
21222,62.0,1.0,120.0,11.0,0.0
21223,50.0,2.0,120.0,12.0,0.0
21224,38.0,23.0,120.0,13.0,0.0
21225,74.0,30.0,30.0,7.0,0.0
21226,86.0,0.0,30.0,7.0,0.0
21227,86.0,5.0,120.0,1.0,0.0
21228,82.0,2.0,30.0,7.0,0.0
21229,70.0,0.0,30.0,7.0,0.0
21230,74.0,30.0,30.0,7.0,0.0
21231,86.0,0.0,30.0,7.0,0.0
21232,70.0,0.0,30.0,7.0,0.0
21233,82.0,1.0,30.0,7.0,0.0
21234,79.0,0.0,30.0,7.0,0.0
21235,67.0,30.0,30.0,7.0,0.0
21236,86.0,5.0,120.0,1.0,0.0
21237,70.0,24.0,15.0,3.0,0.0
21238,70.0,0.0,30.0,7.0,0.0
21239,82.0,30.0,30.0,7.0,0.0
21240,79.0,0.0,30.0,7.0,0.0
21241,67.0,30.0,30.0,7.0,0.0
21242,70.0,0.0,30.0,7.0,0.0
21243,82.0,1.0,30.0,7.0,0.0
21244,62.0,0.0,30.0,7.0,0.0
21245,74.0,30.0,30.0,7.0,0.0
21246,84.0,5.0,120.0,1.0,0.0
21247,69.0,24.0,120.0,3.0,0.0
21248,67.0,0.0,30.0,7.0,0.0
21249,79.0,30.0,30.0,7.0,0.0
21250,74.0,0.0,30.0,7.0,0.0
21251,62.0,30.0,30.0,7.0,0.0
21252,67.0,0.0,30.0,7.0,0.0
21253,79.0,1.0,30.0,7.0,0.0
21254,70.0,0.0,30.0,7.0,0.0
21255,58.0,30.0,30.0,7.0,0.0
21256,82.0,5.0,60.0,1.0,0.0
21257,62.0,1.0,30.0,7.0,0.0
21258,74.0,0.0,30.0,7.0,0.0
21259,70.0,30.0,30.0,7.0,0.0
21260,58.0,0.0,30.0,7.0,0.0
21261,82.0,1.0,600.0,1.0,0.0
21262,67.0,24.0,15.0,3.0,0.0
21263,74.0,0.0,30.0,7.0,0.0
21264,62.0,30.0,30.0,7.0,0.0
21265,55.0,30.0,30.0,7.0,0.0
21266,67.0,0.0,30.0,7.0,0.0
21267,70.0,30.0,30.0,7.0,0.0
21268,58.0,0.0,30.0,7.0,0.0
21269,55.0,0.0,30.0,7.0,0.0
21270,67.0,30.0,30.0,7.0,0.0
21271,70.0,30.0,30.0,7.0,0.0
21272,58.0,0.0,30.0,7.0,0.0
21273,50.0,0.0,30.0,7.0,0.0
21274,62.0,30.0,30.0,7.0,0.0
21275,67.0,30.0,30.0,7.0,0.0
21276,55.0,0.0,30.0,7.0,0.0
21277,62.0,30.0,30.0,7.0,0.0
21278,50.0,0.0,30.0,7.0,0.0
21279,55.0,30.0,30.0,7.0,0.0
21280,67.0,0.0,30.0,7.0,0.0
21281,58.0,0.0,30.0,7.0,0.0
21282,46.0,30.0,30.0,7.0,0.0
21283,62.0,30.0,30.0,7.0,0.0
21284,50.0,0.0,30.0,7.0,0.0
21285,58.0,0.0,30.0,7.0,0.0
21286,46.0,30.0,30.0,7.0,0.0
21287,74.0,0.0,60.0,8.0,0.0
21288,74.0,2.0,60.0,10.0,0.0
21289,62.0,1.0,60.0,11.0,0.0
21290,62.0,2.0,60.0,12.0,0.0
21291,50.0,23.0,60.0,13.0,0.0
21292,50.0,0.0,30.0,7.0,0.0
21293,62.0,2.0,30.0,7.0,0.0
21294,62.0,0.0,60.0,8.0,0.0
21295,55.0,30.0,30.0,7.0,0.0
21296,43.0,0.0,30.0,7.0,0.0
21297,62.0,2.0,60.0,10.0,0.0
21298,62.0,1.0,60.0,11.0,0.0
21299,50.0,2.0,60.0,12.0,0.0
21300,38.0,23.0,60.0,13.0,0.0
21301,58.0,2.0,30.0,7.0,0.0
21302,46.0,0.0,30.0,7.0,0.0
21303,61.0,1.0,120.0,8.0,0.0
21304,51.0,30.0,30.0,7.0,0.0
21305,37.0,0.0,30.0,7.0,0.0
21306,61.0,2.0,120.0,10.0,0.0
21307,61.0,1.0,120.0,11.0,0.0
21308,49.0,1.0,120.0,12.0,0.0
21309,37.0,23.0,120.0,13.0,0.0
21310,46.0,30.0,30.0,7.0,0.0
21311,58.0,0.0,30.0,7.0,0.0
21312,43.0,0.0,30.0,7.0,0.0
21313,55.0,0.0,30.0,7.0,0.0
21314,48.0,30.0,30.0,7.0,0.0
21315,46.0,0.0,30.0,7.0,0.0
21316,43.0,0.0,30.0,7.0,0.0
21317,58.0,0.0,30.0,7.0,0.0
21318,48.0,0.0,30.0,7.0,0.0
21319,63.0,30.0,30.0,7.0,0.0
21320,46.0,0.0,30.0,7.0,0.0
21321,43.0,0.0,30.0,7.0,0.0
21322,58.0,30.0,30.0,7.0,0.0
21323,48.0,0.0,30.0,7.0,0.0
21324,55.0,30.0,30.0,7.0,0.0
21325,58.0,30.0,30.0,7.0,0.0
21326,43.0,0.0,30.0,7.0,0.0
21327,46.0,0.0,30.0,7.0,0.0
21328,55.0,0.0,30.0,7.0,0.0
21329,34.0,0.0,30.0,7.0,0.0
21330,63.0,30.0,30.0,7.0,0.0
21331,70.0,0.0,120.0,8.0,0.0
21332,70.0,2.0,120.0,10.0,0.0
21333,58.0,1.0,120.0,11.0,0.0
21334,58.0,2.0,120.0,12.0,0.0
21335,46.0,23.0,120.0,13.0,0.0
21336,43.0,0.0,30.0,7.0,0.0
21337,46.0,0.0,30.0,7.0,0.0
21338,58.0,30.0,30.0,7.0,0.0
21339,48.0,0.0,30.0,7.0,0.0
21340,63.0,30.0,30.0,7.0,0.0
21341,46.0,2.0,30.0,7.0,0.0
21342,43.0,0.0,30.0,7.0,0.0
21343,48.0,30.0,30.0,7.0,0.0
21344,67.0,0.0,30.0,7.0,0.0
21345,46.0,0.0,30.0,7.0,0.0
21346,43.0,30.0,30.0,7.0,0.0
21347,63.0,0.0,30.0,7.0,0.0
21348,58.0,30.0,30.0,7.0,0.0
21349,48.0,0.0,30.0,7.0,0.0
21350,46.0,0.0,30.0,7.0,0.0
21351,43.0,30.0,30.0,7.0,0.0
21352,63.0,0.0,30.0,7.0,0.0
21353,58.0,30.0,30.0,7.0,0.0
21354,37.0,0.0,30.0,7.0,0.0
21355,67.0,0.0,120.0,8.0,0.0
21356,67.0,2.0,120.0,10.0,0.0
21357,55.0,1.0,120.0,11.0,0.0
21358,55.0,2.0,120.0,12.0,0.0
21359,43.0,23.0,120.0,13.0,0.0
21360,67.0,30.0,30.0,7.0,0.0
21361,43.0,0.0,30.0,7.0,0.0
21362,46.0,0.0,30.0,7.0,0.0
21363,63.0,30.0,30.0,7.0,0.0
21364,48.0,0.0,30.0,7.0,0.0
21365,67.0,2.0,30.0,7.0,0.0
21366,46.0,0.0,30.0,7.0,0.0
21367,43.0,0.0,30.0,7.0,0.0
21368,70.0,0.0,30.0,7.0,0.0
21369,48.0,30.0,30.0,7.0,0.0
21370,67.0,0.0,30.0,7.0,0.0
21371,46.0,30.0,30.0,7.0,0.0
21372,43.0,0.0,30.0,7.0,0.0
21373,48.0,30.0,30.0,7.0,0.0
21374,63.0,0.0,30.0,7.0,0.0
21375,46.0,30.0,30.0,7.0,0.0
21376,43.0,0.0,30.0,7.0,0.0
21377,67.0,0.0,30.0,7.0,0.0
21378,37.0,0.0,30.0,7.0,0.0
21379,63.0,30.0,30.0,7.0,0.0
21380,75.0,5.0,480.0,8.0,0.0
21381,63.0,1.0,960.0,11.0,0.0
21382,49.0,2.0,120.0,12.0,0.0
21383,37.0,23.0,120.0,13.0,0.0
21384,67.0,0.0,30.0,7.0,0.0
21385,42.0,30.0,30.0,7.0,0.0
21386,70.0,30.0,30.0,7.0,0.0
21387,45.0,0.0,30.0,7.0,0.0
21388,75.0,5.0,30.0,7.0,0.0
21389,48.0,0.0,30.0,7.0,0.0
21390,37.0,0.0,30.0,7.0,0.0
21391,67.0,30.0,30.0,7.0,0.0
21392,70.0,30.0,30.0,7.0,0.0
21393,42.0,0.0,30.0,7.0,0.0
21394,75.0,0.0,30.0,7.0,0.0
21395,45.0,30.0,30.0,7.0,0.0
21396,79.0,0.0,30.0,7.0,0.0
21397,48.0,30.0,30.0,7.0,0.0
21398,68.0,5.0,30.0,7.0,0.0
21399,36.0,0.0,30.0,7.0,0.0
21400,36.0,23.0,120.0,13.0,0.0
21401,80.0,5.0,30.0,7.0,0.0
21402,39.0,0.0,30.0,7.0,0.0
21403,48.0,25.0,15.0,12.0,0.0
21404,67.0,5.0,30.0,7.0,0.0
21405,44.0,0.0,30.0,7.0,0.0
21406,48.0,25.0,15.0,12.0,0.0
21407,48.0,0.0,30.0,7.0,0.0
21408,79.0,5.0,30.0,7.0,0.0
21409,48.0,25.0,15.0,12.0,0.0
21410,36.0,0.0,30.0,7.0,0.0
21411,65.0,5.0,30.0,7.0,0.0
21412,48.0,2.0,15.0,12.0,0.0
21413,39.0,5.0,30.0,7.0,0.0
21414,77.0,0.0,30.0,7.0,0.0
21415,48.0,25.0,15.0,12.0,0.0
21416,44.0,5.0,30.0,7.0,0.0
21417,63.0,0.0,30.0,7.0,0.0
21418,48.0,25.0,15.0,12.0,0.0
21419,48.0,0.0,30.0,7.0,0.0
21420,75.0,0.0,30.0,7.0,0.0
21421,48.0,25.0,30.0,12.0,0.0
21422,73.0,0.0,30.0,7.0,0.0
21423,73.0,0.0,240.0,8.0,0.0
21424,34.0,5.0,30.0,7.0,0.0
21425,85.0,0.0,30.0,7.0,0.0
21426,37.0,5.0,30.0,7.0,0.0
21427,46.0,25.0,15.0,12.0,0.0
21428,72.0,0.0,30.0,7.0,0.0
21429,43.0,5.0,30.0,7.0,0.0
21430,84.0,5.0,30.0,7.0,0.0
21431,46.0,0.0,30.0,7.0,0.0
21432,46.0,25.0,15.0,12.0,0.0
21433,70.0,5.0,30.0,7.0,0.0
21434,34.0,0.0,30.0,7.0,0.0
21435,46.0,25.0,15.0,12.0,0.0
21436,37.0,5.0,30.0,7.0,0.0
21437,82.0,0.0,30.0,7.0,0.0
21438,46.0,25.0,30.0,12.0,0.0
21439,68.0,0.0,30.0,7.0,0.0
21440,43.0,5.0,30.0,7.0,0.0
21441,46.0,25.0,30.0,12.0,0.0
21442,46.0,0.0,30.0,7.0,0.0
21443,80.0,5.0,30.0,7.0,0.0
21444,46.0,25.0,30.0,12.0,0.0
21445,77.0,0.0,30.0,7.0,0.0
21446,72.0,0.0,240.0,8.0,0.0
21447,44.0,5.0,30.0,7.0,0.0
21448,44.0,25.0,30.0,12.0,0.0
21449,48.0,5.0,30.0,7.0,0.0
21450,89.0,0.0,30.0,7.0,0.0
21451,51.0,0.0,30.0,7.0,0.0
21452,75.0,5.0,30.0,7.0,0.0
21453,44.0,25.0,15.0,12.0,0.0
21454,87.0,0.0,30.0,7.0,0.0
21455,56.0,5.0,30.0,7.0,0.0
21456,44.0,25.0,15.0,12.0,0.0
21457,73.0,0.0,30.0,7.0,0.0
21458,44.0,5.0,30.0,7.0,0.0
21459,44.0,25.0,15.0,12.0,0.0
21460,85.0,5.0,30.0,7.0,0.0
21461,48.0,0.0,30.0,7.0,0.0
21462,44.0,25.0,30.0,12.0,0.0
21463,51.0,5.0,30.0,7.0,0.0
21464,72.0,0.0,30.0,7.0,0.0
21465,44.0,25.0,30.0,12.0,0.0
21466,84.0,0.0,30.0,7.0,0.0
21467,56.0,4.0,30.0,7.0,0.0
21468,44.0,25.0,30.0,12.0,0.0
21469,77.0,2.0,240.0,8.0,0.0
21470,37.0,5.0,30.0,7.0,0.0
21471,82.0,0.0,30.0,7.0,0.0
21472,65.0,3.0,240.0,10.0,0.0
21473,94.0,0.0,30.0,7.0,0.0
21474,41.0,5.0,30.0,7.0,0.0
21475,49.0,25.0,15.0,12.0,0.0
21476,44.0,0.0,30.0,7.0,0.0
21477,80.0,5.0,30.0,7.0,0.0
21478,49.0,25.0,30.0,12.0,0.0
21479,92.0,0.0,30.0,7.0,0.0
21480,49.0,5.0,30.0,7.0,0.0
21481,49.0,25.0,30.0,12.0,0.0
21482,37.0,0.0,30.0,7.0,0.0
21483,79.0,5.0,30.0,7.0,0.0
21484,41.0,0.0,30.0,7.0,0.0
21485,91.0,5.0,30.0,7.0,0.0
21486,49.0,25.0,15.0,12.0,0.0
21487,44.0,5.0,30.0,7.0,0.0
21488,77.0,0.0,30.0,7.0,0.0
21489,89.0,0.0,30.0,7.0,0.0
21490,49.0,0.0,30.0,7.0,0.0
21491,49.0,25.0,15.0,12.0,0.0
21492,76.0,40.0,30.0,7.0,0.0
21493,49.0,0.0,120.0,7.0,0.0
21494,76.0,1.0,720.0,8.0,0.0
21495,88.0,1.0,720.0,1.0,0.0
21496,64.0,2.0,720.0,10.0,0.0
21497,61.0,1.0,720.0,11.0,0.0
21498,49.0,19.0,720.0,12.0,0.0
21499,88.0,40.0,30.0,7.0,0.0
21500,85.0,40.0,30.0,7.0,0.0
21501,82.0,40.0,30.0,7.0,0.0
21502,79.0,40.0,30.0,7.0,0.0
21503,76.0,40.0,30.0,7.0,0.0
21504,73.0,40.0,30.0,7.0,0.0
21505,70.0,40.0,30.0,7.0,0.0
21506,67.0,40.0,30.0,7.0,0.0
21507,64.0,40.0,30.0,7.0,0.0
21508,61.0,35.0,30.0,7.0,0.0
21509,58.0,45.0,30.0,7.0,0.0
21510,55.0,40.0,30.0,7.0,0.0
21511,52.0,40.0,30.0,7.0,0.0
21512,49.0,30.0,30.0,7.0,0.0
21513,46.0,30.0,30.0,7.0,0.0
21514,43.0,30.0,30.0,7.0,0.0
21515,40.0,30.0,30.0,7.0,0.0
21516,37.0,0.0,30.0,7.0,0.0
21517,36.0,24.0,20.0,7.0,0.0
21518,75.0,1.0,240.0,8.0,0.0
21519,87.0,1.0,240.0,1.0,0.0
21520,63.0,2.0,240.0,10.0,0.0
21521,60.0,1.0,240.0,11.0,0.0
21522,48.0,25.0,240.0,12.0,0.0
21523,39.0,24.0,20.0,7.0,0.0
21524,42.0,24.0,20.0,7.0,0.0
21525,45.0,24.0,20.0,7.0,0.0
21526,48.0,24.0,20.0,7.0,0.0
21527,51.0,24.0,20.0,7.0,0.0
21528,54.0,24.0,20.0,7.0,0.0
21529,57.0,24.0,20.0,7.0,0.0
21530,60.0,24.0,20.0,7.0,0.0
21531,63.0,0.0,20.0,7.0,0.0
21532,35.0,5.0,30.0,7.0,0.0
21533,79.0,0.0,60.0,0.0,0.0
21534,74.0,0.0,240.0,8.0,0.0
21535,74.0,1.0,720.0,1.0,0.0
21536,86.0,0.0,720.0,1.0,0.0
21537,62.0,0.0,240.0,10.0,0.0
21538,67.0,3.0,60.0,2.0,0.0
21539,59.0,1.0,240.0,11.0,0.0
21540,47.0,25.0,30.0,12.0,0.0
21541,55.0,14.0,60.0,3.0,0.0
21542,35.0,23.0,120.0,13.0,0.0
21543,38.0,2.0,30.0,7.0,0.0
21544,47.0,1.0,30.0,12.0,0.0
21545,78.0,2.0,60.0,0.0,0.0
21546,43.0,5.0,30.0,7.0,0.0
21547,50.0,10.0,20.0,7.0,0.0
21548,66.0,3.0,60.0,2.0,0.0
21549,47.0,5.0,30.0,12.0,0.0
21550,54.0,1.0,60.0,3.0,0.0
21551,55.0,20.0,20.0,7.0,0.0
21552,47.0,0.0,30.0,7.0,0.0
21553,59.0,0.0,20.0,7.0,0.0
21554,76.0,0.0,60.0,0.0,0.0
21555,62.0,5.0,30.0,7.0,0.0
21556,64.0,3.0,60.0,2.0,0.0
21557,47.0,1.0,15.0,12.0,0.0
21558,52.0,24.0,60.0,3.0,0.0
21559,59.0,2.0,30.0,7.0,0.0
21560,47.0,1.0,30.0,12.0,0.0
21561,74.0,2.0,60.0,0.0,0.0
21562,55.0,5.0,30.0,7.0,0.0
21563,62.0,2.0,60.0,2.0,0.0
21564,50.0,18.0,60.0,3.0,0.0
21565,50.0,0.0,30.0,7.0,0.0
21566,47.0,25.0,15.0,12.0,0.0
21567,84.0,2.0,60.0,0.0,0.0
21568,72.0,0.0,240.0,8.0,0.0
21569,33.0,11.0,20.0,7.0,0.0
21570,60.0,3.0,240.0,10.0,0.0
21571,72.0,3.0,60.0,2.0,0.0
21572,62.0,1.0,480.0,11.0,0.0
21573,45.0,13.0,30.0,12.0,0.0
21574,60.0,6.0,60.0,3.0,0.0
21575,36.0,12.0,20.0,7.0,0.0
21576,38.0,8.0,20.0,7.0,0.0
21577,54.0,15.0,20.0,7.0,0.0
21578,83.0,0.0,60.0,0.0,0.0
21579,71.0,3.0,60.0,2.0,0.0
21580,45.0,1.0,15.0,12.0,0.0
21581,59.0,24.0,60.0,3.0,0.0
21582,42.0,4.0,20.0,7.0,0.0
21583,60.0,20.0,20.0,7.0,0.0
21584,45.0,1.0,30.0,12.0,0.0
21585,45.0,0.0,20.0,7.0,0.0
21586,62.0,2.0,20.0,7.0,0.0
21587,81.0,2.0,60.0,0.0,0.0
21588,66.0,5.0,30.0,7.0,0.0
21589,69.0,3.0,60.0,2.0,0.0
21590,57.0,24.0,60.0,3.0,0.0
21591,62.0,0.0,30.0,7.0,0.0
21592,45.0,25.0,15.0,12.0,0.0
21593,79.0,0.0,60.0,0.0,0.0
21594,60.0,5.0,30.0,7.0,0.0
21595,67.0,0.0,60.0,2.0,0.0
21596,45.0,1.0,15.0,12.0,0.0
21597,55.0,24.0,60.0,3.0,0.0
21598,54.0,2.0,30.0,7.0,0.0
21599,45.0,1.0,30.0,12.0,0.0
21600,43.0,5.0,30.0,7.0,0.0
21601,88.0,0.0,60.0,0.0,0.0
21602,71.0,0.0,240.0,8.0,0.0
21603,84.0,0.0,60.0,0.0,0.0
21604,76.0,3.0,60.0,2.0,0.0
21605,72.0,0.0,60.0,2.0,0.0
21606,59.0,0.0,240.0,10.0,0.0
21607,43.0,25.0,30.0,12.0,0.0
21608,64.0,0.0,60.0,3.0,0.0
21609,60.0,14.0,60.0,3.0,0.0
21610,47.0,2.0,30.0,7.0,0.0
21611,43.0,1.0,30.0,12.0,0.0
21612,83.0,0.0,60.0,0.0,0.0
21613,86.0,0.0,60.0,0.0,0.0
21614,59.0,10.0,20.0,7.0,0.0
21615,50.0,5.0,30.0,7.0,0.0
21616,74.0,0.0,60.0,2.0,0.0
21617,71.0,3.0,60.0,2.0,0.0
21618,43.0,5.0,30.0,12.0,0.0
21619,59.0,0.0,60.0,3.0,0.0
21620,62.0,24.0,60.0,3.0,0.0
21621,62.0,20.0,20.0,7.0,0.0
21622,55.0,0.0,30.0,7.0,0.0
21623,67.0,2.0,20.0,7.0,0.0
21624,84.0,0.0,60.0,0.0,0.0
21625,81.0,0.0,60.0,0.0,0.0
21626,71.0,5.0,30.0,7.0,0.0
21627,72.0,0.0,60.0,2.0,0.0
21628,69.0,3.0,60.0,2.0,0.0
21629,43.0,1.0,15.0,12.0,0.0
21630,60.0,24.0,60.0,3.0,0.0
21631,57.0,0.0,60.0,3.0,0.0
21632,67.0,2.0,30.0,7.0,0.0
21633,43.0,25.0,15.0,12.0,0.0
21634,83.0,0.0,60.0,0.0,0.0
21635,79.0,0.0,60.0,0.0,0.0
21636,62.0,5.0,30.0,7.0,0.0
21637,71.0,2.0,60.0,2.0,0.0
21638,67.0,0.0,60.0,2.0,0.0
21639,43.0,25.0,30.0,12.0,0.0
21640,59.0,24.0,60.0,3.0,0.0
21641,55.0,0.0,60.0,3.0,0.0
21642,59.0,1.0,30.0,7.0,0.0
21643,43.0,1.0,30.0,12.0,0.0
21644,76.0,0.0,240.0,8.0,0.0
21645,90.0,0.0,60.0,0.0,0.0
21646,36.0,5.0,30.0,7.0,0.0
21647,93.0,0.0,60.0,0.0,0.0
21648,88.0,0.0,240.0,1.0,0.0
21649,76.0,1.0,240.0,1.0,0.0
21650,78.0,0.0,60.0,2.0,0.0
21651,81.0,3.0,60.0,2.0,0.0
21652,64.0,2.0,240.0,10.0,0.0
21653,55.0,1.0,120.0,11.0,0.0
21654,69.0,14.0,60.0,3.0,0.0
21655,66.0,0.0,60.0,3.0,0.0
21656,36.0,23.0,120.0,13.0,0.0
21657,40.0,2.0,30.0,7.0,0.0
21658,48.0,25.0,15.0,12.0,0.0
21659,91.0,0.0,60.0,0.0,0.0
21660,88.0,0.0,60.0,0.0,0.0
21661,43.0,5.0,30.0,7.0,0.0
21662,52.0,10.0,20.0,7.0,0.0
21663,76.0,0.0,60.0,2.0,0.0
21664,79.0,2.0,60.0,2.0,0.0
21665,48.0,5.0,30.0,12.0,0.0
21666,67.0,0.0,60.0,3.0,0.0
21667,64.0,1.0,60.0,3.0,0.0
21668,55.0,20.0,20.0,7.0,0.0
21669,48.0,0.0,30.0,7.0,0.0
21670,48.0,1.0,30.0,12.0,0.0
21671,60.0,2.0,20.0,7.0,0.0
21672,86.0,0.0,60.0,0.0,0.0
21673,90.0,0.0,60.0,0.0,0.0
21674,64.0,5.0,30.0,7.0,0.0
21675,67.0,0.0,120.0,4.0,0.0
21676,78.0,3.0,60.0,2.0,0.0
21677,74.0,0.0,60.0,2.0,0.0
21678,55.0,0.0,120.0,4.0,0.0
21679,66.0,24.0,60.0,3.0,0.0
21680,62.0,0.0,60.0,3.0,0.0
21681,60.0,2.0,30.0,7.0,0.0
21682,48.0,25.0,15.0,12.0,0.0
21683,55.0,5.0,30.0,7.0,0.0
21684,84.0,1.0,60.0,0.0,0.0
21685,88.0,0.0,60.0,0.0,0.0
21686,72.0,0.0,60.0,2.0,0.0
21687,76.0,0.0,60.0,2.0,0.0
21688,48.0,25.0,30.0,12.0,0.0
21689,60.0,39.0,60.0,3.0,0.0
21690,64.0,0.0,60.0,3.0,0.0
21691,52.0,0.0,30.0,7.0,0.0
21692,48.0,1.0,30.0,12.0,0.0
21693,71.0,0.0,120.0,8.0,0.0
21694,86.0,0.0,120.0,0.0,0.0
21695,83.0,1.0,120.0,0.0,0.0
21696,38.0,0.0,60.0,7.0,0.0
21697,50.0,60.0,60.0,7.0,0.0
21698,86.0,1.0,360.0,1.0,0.0
21699,74.0,1.0,120.0,1.0,0.0
21700,74.0,2.0,120.0,2.0,0.0
21701,71.0,0.0,360.0,4.0,0.0
21702,74.0,0.0,360.0,4.0,0.0
21703,62.0,0.0,120.0,10.0,0.0
21704,71.0,0.0,120.0,2.0,0.0
21705,67.0,1.0,15.0,11.0,0.0
21706,50.0,1.0,120.0,12.0,0.0
21707,59.0,0.0,120.0,3.0,0.0
21708,62.0,1.0,120.0,3.0,0.0
21709,38.0,38.0,120.0,13.0,0.0
21710,50.0,15.0,60.0,7.0,0.0
21711,38.0,0.0,60.0,7.0,0.0
21712,52.0,60.0,60.0,7.0,0.0
21713,40.0,0.0,60.0,7.0,0.0
21714,83.0,43.0,240.0,2.0,0.0
21715,42.0,0.0,60.0,7.0,0.0
21716,54.0,60.0,60.0,7.0,0.0
21717,55.0,0.0,60.0,7.0,0.0
21718,43.0,60.0,60.0,7.0,0.0
21719,38.0,16.0,60.0,7.0,0.0
21720,50.0,0.0,60.0,7.0,0.0
21721,45.0,0.0,60.0,7.0,0.0
21722,57.0,60.0,60.0,7.0,0.0
21723,84.0,1.0,120.0,1.0,0.0
21724,81.0,0.0,120.0,2.0,0.0
21725,69.0,0.0,120.0,4.0,0.0
21726,72.0,58.0,120.0,4.0,0.0
21727,38.0,16.0,60.0,7.0,0.0
21728,50.0,0.0,60.0,7.0,0.0
21729,59.0,0.0,60.0,7.0,0.0
21730,47.0,60.0,60.0,7.0,0.0
21731,71.0,0.0,240.0,4.0,0.0
21732,67.0,58.0,240.0,4.0,0.0
21733,38.0,60.0,60.0,7.0,0.0
21734,50.0,0.0,60.0,7.0,0.0
21735,60.0,60.0,60.0,7.0,0.0
21736,48.0,0.0,60.0,7.0,0.0
21737,50.0,0.0,60.0,7.0,0.0
21738,38.0,1.0,60.0,7.0,0.0
21739,62.0,60.0,60.0,7.0,0.0
21740,50.0,0.0,60.0,7.0,0.0
21741,83.0,1.0,15.0,1.0,0.0
21742,71.0,0.0,240.0,4.0,0.0
21743,79.0,0.0,15.0,2.0,0.0
21744,50.0,0.0,60.0,7.0,0.0
21745,38.0,60.0,60.0,7.0,0.0
21746,52.0,0.0,60.0,7.0,0.0
21747,64.0,60.0,60.0,7.0,0.0
21748,52.0,0.0,60.0,7.0,0.0
21749,40.0,1.0,60.0,7.0,0.0
21750,66.0,60.0,60.0,7.0,0.0
21751,83.0,1.0,360.0,1.0,0.0
21752,67.0,58.0,15.0,4.0,0.0
21753,71.0,0.0,360.0,4.0,0.0
21754,79.0,58.0,360.0,2.0,0.0
21755,54.0,0.0,15.0,7.0,0.0
21756,42.0,0.0,60.0,7.0,0.0
21757,67.0,0.0,60.0,7.0,0.0
21758,55.0,60.0,15.0,7.0,0.0
21759,43.0,0.0,60.0,7.0,0.0
21760,69.0,60.0,60.0,7.0,0.0
21761,33.0,0.0,60.0,7.0,0.0
21762,57.0,0.0,60.0,7.0,0.0
21763,45.0,1.0,60.0,7.0,0.0
21764,35.0,0.0,60.0,7.0,0.0
21765,71.0,60.0,60.0,7.0,0.0
21766,81.0,1.0,120.0,1.0,0.0
21767,62.0,0.0,120.0,4.0,0.0
21768,69.0,58.0,120.0,4.0,0.0
21769,74.0,0.0,120.0,2.0,0.0
21770,59.0,1.0,60.0,7.0,0.0
21771,72.0,60.0,60.0,7.0,0.0
21772,36.0,0.0,60.0,7.0,0.0
21773,67.0,0.0,240.0,4.0,0.0
21774,48.0,60.0,60.0,7.0,0.0
21775,60.0,0.0,60.0,7.0,0.0
21776,74.0,0.0,60.0,7.0,0.0
21777,38.0,60.0,60.0,7.0,0.0
21778,62.0,1.0,60.0,7.0,0.0
21779,50.0,0.0,60.0,7.0,0.0
21780,76.0,0.0,60.0,7.0,0.0
21781,40.0,60.0,60.0,7.0,0.0
21782,79.0,1.0,15.0,1.0,0.0
21783,59.0,0.0,15.0,4.0,0.0
21784,71.0,58.0,15.0,2.0,0.0
21785,67.0,28.0,240.0,4.0,0.0
21786,52.0,60.0,60.0,7.0,0.0
21787,64.0,0.0,60.0,7.0,0.0
21788,78.0,60.0,60.0,7.0,0.0
21789,42.0,0.0,60.0,7.0,0.0
21790,66.0,0.0,60.0,7.0,0.0
21791,54.0,1.0,60.0,7.0,0.0
21792,79.0,2.0,360.0,8.0,0.0
21793,43.0,30.0,30.0,7.0,0.0
21794,79.0,0.0,30.0,7.0,0.0
21795,67.0,2.0,360.0,10.0,0.0
21796,55.0,1.0,360.0,11.0,0.0
21797,67.0,2.0,360.0,12.0,0.0
21798,55.0,23.0,360.0,13.0,0.0
21799,55.0,30.0,30.0,7.0,0.0
21800,67.0,0.0,30.0,7.0,0.0
21801,81.0,0.0,30.0,7.0,0.0
21802,45.0,30.0,30.0,7.0,0.0
21803,69.0,30.0,30.0,7.0,0.0
21804,57.0,0.0,30.0,7.0,0.0
21805,47.0,0.0,30.0,7.0,0.0
21806,83.0,30.0,30.0,7.0,0.0
21807,71.0,0.0,30.0,7.0,0.0
21808,59.0,30.0,30.0,7.0,0.0
21809,84.0,0.0,30.0,7.0,0.0
21810,48.0,30.0,30.0,7.0,0.0
21811,60.0,30.0,30.0,7.0,0.0
21812,72.0,0.0,30.0,7.0,0.0
21813,50.0,30.0,30.0,7.0,0.0
21814,86.0,0.0,30.0,7.0,0.0
21815,74.0,30.0,30.0,7.0,0.0
21816,62.0,0.0,30.0,7.0,0.0
21817,88.0,30.0,30.0,7.0,0.0
21818,52.0,0.0,30.0,7.0,0.0
21819,76.0,0.0,30.0,7.0,0.0
21820,64.0,0.0,30.0,7.0,0.0
21821,54.0,0.0,30.0,7.0,0.0
21822,90.0,30.0,30.0,7.0,0.0
21823,74.0,2.0,90.0,8.0,0.0
21824,62.0,2.0,90.0,10.0,0.0
21825,62.0,1.0,90.0,11.0,0.0
21826,62.0,2.0,90.0,12.0,0.0
21827,50.0,23.0,90.0,13.0,0.0
21828,78.0,0.0,30.0,7.0,0.0
21829,66.0,30.0,30.0,7.0,0.0
21830,91.0,0.0,30.0,7.0,0.0
21831,55.0,0.0,30.0,7.0,0.0
21832,79.0,30.0,30.0,7.0,0.0
21833,71.0,0.0,90.0,8.0,0.0
21834,93.0,0.0,30.0,7.0,0.0
21835,57.0,30.0,30.0,7.0,0.0
21836,59.0,2.0,90.0,10.0,0.0
21837,59.0,1.0,90.0,11.0,0.0
21838,59.0,2.0,90.0,12.0,0.0
21839,47.0,23.0,90.0,13.0,0.0
21840,81.0,0.0,30.0,7.0,0.0
21841,69.0,30.0,30.0,7.0,0.0
21842,59.0,0.0,30.0,7.0,0.0
21843,95.0,2.0,30.0,7.0,0.0
21844,71.0,30.0,30.0,7.0,0.0
21845,83.0,0.0,30.0,7.0,0.0
21846,74.0,0.0,90.0,8.0,0.0
21847,96.0,30.0,30.0,7.0,0.0
21848,60.0,0.0,30.0,7.0,0.0
21849,74.0,2.0,90.0,10.0,0.0
21850,62.0,1.0,90.0,11.0,0.0
21851,62.0,2.0,90.0,12.0,0.0
21852,50.0,23.0,90.0,13.0,0.0
21853,84.0,0.0,30.0,7.0,0.0
21854,72.0,30.0,30.0,7.0,0.0
21855,97.0,0.0,30.0,7.0,0.0
21856,61.0,2.0,30.0,7.0,0.0
21857,73.0,30.0,30.0,7.0,0.0
21858,85.0,0.0,30.0,7.0,0.0
21859,71.0,0.0,90.0,8.0,0.0
21860,62.0,30.0,30.0,7.0,0.0
21861,98.0,0.0,30.0,7.0,0.0
21862,71.0,2.0,90.0,10.0,0.0
21863,59.0,1.0,90.0,11.0,0.0
21864,59.0,2.0,90.0,12.0,0.0
21865,47.0,23.0,90.0,13.0,0.0
21866,74.0,30.0,30.0,7.0,0.0
21867,86.0,0.0,30.0,7.0,0.0
21868,62.0,0.0,30.0,7.0,0.0
21869,98.0,2.0,30.0,7.0,0.0
21870,74.0,30.0,30.0,7.0,0.0
21871,86.0,0.0,30.0,7.0,0.0
21872,67.0,2.0,90.0,8.0,0.0
21873,59.0,0.0,30.0,7.0,0.0
21874,95.0,30.0,30.0,7.0,0.0
21875,67.0,2.0,90.0,10.0,0.0
21876,55.0,1.0,90.0,11.0,0.0
21877,55.0,2.0,90.0,12.0,0.0
21878,43.0,23.0,90.0,13.0,0.0
21879,71.0,30.0,30.0,7.0,0.0
21880,83.0,0.0,30.0,7.0,0.0
21881,91.0,0.0,30.0,7.0,0.0
21882,55.0,0.0,30.0,7.0,0.0
21883,67.0,0.0,30.0,7.0,0.0
21884,79.0,30.0,30.0,7.0,0.0
21885,60.0,30.0,30.0,7.0,0.0
21886,72.0,0.0,120.0,8.0,0.0
21887,72.0,2.0,120.0,10.0,0.0
21888,60.0,1.0,120.0,11.0,0.0
21889,60.0,2.0,120.0,12.0,0.0
21890,48.0,23.0,120.0,13.0,0.0
21891,72.0,30.0,30.0,7.0,0.0
21892,96.0,0.0,30.0,7.0,0.0
21893,95.0,30.0,30.0,7.0,0.0
21894,93.0,2.0,30.0,7.0,0.0
21895,91.0,30.0,30.0,7.0,0.0
21896,90.0,30.0,30.0,7.0,0.0
21897,88.0,30.0,30.0,7.0,0.0
21898,86.0,30.0,30.0,7.0,0.0
21899,84.0,30.0,30.0,7.0,0.0
21900,83.0,30.0,30.0,7.0,0.0
21901,81.0,30.0,30.0,7.0,0.0
21902,79.0,30.0,30.0,7.0,0.0
21903,78.0,30.0,30.0,7.0,0.0
21904,76.0,30.0,30.0,7.0,0.0
21905,74.0,30.0,30.0,7.0,0.0
21906,72.0,30.0,30.0,7.0,0.0
21907,69.0,2.0,120.0,8.0,0.0
21908,57.0,30.0,30.0,7.0,0.0
21909,69.0,2.0,120.0,10.0,0.0
21910,57.0,1.0,120.0,11.0,0.0
21911,57.0,2.0,120.0,12.0,0.0
21912,45.0,23.0,120.0,13.0,0.0
21913,93.0,30.0,30.0,7.0,0.0
21914,69.0,0.0,30.0,7.0,0.0
21915,91.0,30.0,30.0,7.0,0.0
21916,90.0,0.0,30.0,7.0,0.0
21917,88.0,30.0,30.0,7.0,0.0
21918,86.0,30.0,30.0,7.0,0.0
21919,84.0,30.0,30.0,7.0,0.0
21920,83.0,30.0,30.0,7.0,0.0
21921,81.0,30.0,30.0,7.0,0.0
21922,79.0,30.0,30.0,7.0,0.0
21923,78.0,30.0,30.0,7.0,0.0
21924,76.0,30.0,30.0,7.0,0.0
21925,74.0,30.0,30.0,7.0,0.0
21926,72.0,30.0,30.0,7.0,0.0
21927,71.0,30.0,30.0,7.0,0.0
21928,69.0,30.0,30.0,7.0,0.0
21929,54.0,30.0,30.0,7.0,0.0
21930,66.0,2.0,120.0,8.0,0.0
21931,66.0,2.0,120.0,10.0,0.0
21932,54.0,1.0,120.0,11.0,0.0
21933,54.0,2.0,120.0,12.0,0.0
21934,42.0,23.0,120.0,13.0,0.0
21935,66.0,30.0,30.0,7.0,0.0
21936,90.0,0.0,30.0,7.0,0.0
21937,88.0,30.0,30.0,7.0,0.0
21938,86.0,0.0,30.0,7.0,0.0
21939,84.0,30.0,30.0,7.0,0.0
21940,83.0,30.0,30.0,7.0,0.0
21941,81.0,30.0,30.0,7.0,0.0
21942,79.0,30.0,30.0,7.0,0.0
21943,50.0,30.0,30.0,7.0,0.0
21944,74.0,0.0,120.0,8.0,0.0
21945,78.0,0.0,30.0,7.0,0.0
21946,74.0,2.0,120.0,10.0,0.0
21947,62.0,1.0,120.0,11.0,0.0
21948,62.0,2.0,120.0,12.0,0.0
21949,50.0,23.0,120.0,13.0,0.0
21950,62.0,30.0,30.0,7.0,0.0
21951,76.0,0.0,30.0,7.0,0.0
21952,74.0,30.0,30.0,7.0,0.0
21953,72.0,2.0,30.0,7.0,0.0
21954,71.0,30.0,30.0,7.0,0.0
21955,69.0,30.0,30.0,7.0,0.0
21956,67.0,30.0,30.0,7.0,0.0
21957,66.0,30.0,30.0,7.0,0.0
21958,72.0,2.0,120.0,8.0,0.0
21959,64.0,0.0,30.0,7.0,0.0
21960,48.0,30.0,30.0,7.0,0.0
21961,72.0,2.0,120.0,10.0,0.0
21962,60.0,1.0,120.0,11.0,0.0
21963,60.0,2.0,120.0,12.0,0.0
21964,48.0,23.0,120.0,13.0,0.0
21965,60.0,0.0,30.0,7.0,0.0
21966,62.0,30.0,30.0,7.0,0.0
21967,60.0,30.0,30.0,7.0,0.0
21968,59.0,0.0,30.0,7.0,0.0
21969,57.0,30.0,30.0,7.0,0.0
21970,55.0,30.0,30.0,7.0,0.0
21971,54.0,30.0,30.0,7.0,0.0
21972,52.0,30.0,30.0,7.0,0.0
21973,69.0,2.0,120.0,8.0,0.0
21974,50.0,30.0,30.0,7.0,0.0
21975,69.0,2.0,120.0,10.0,0.0
21976,57.0,1.0,120.0,11.0,0.0
21977,57.0,2.0,120.0,12.0,0.0
21978,45.0,33.0,120.0,13.0,0.0
21979,48.0,30.0,30.0,7.0,0.0
21980,47.0,30.0,30.0,7.0,0.0
21981,45.0,0.0,30.0,7.0,0.0
21982,66.0,2.0,120.0,8.0,0.0
21983,43.0,40.0,30.0,7.0,0.0
21984,66.0,2.0,120.0,10.0,0.0
21985,54.0,1.0,120.0,11.0,0.0
21986,54.0,2.0,120.0,12.0,0.0
21987,42.0,53.0,120.0,13.0,0.0
21988,42.0,40.0,30.0,7.0,0.0
21989,40.0,0.0,30.0,7.0,0.0
21990,60.0,2.0,120.0,8.0,0.0
21991,38.0,0.0,120.0,7.0,0.0
21992,69.0,2.0,120.0,10.0,0.0
21993,66.0,1.0,120.0,11.0,0.0
21994,50.0,2.0,120.0,12.0,0.0
21995,38.0,23.0,120.0,13.0,0.0
21996,51.0,30.0,30.0,7.0,0.0
21997,54.0,30.0,30.0,7.0,0.0
21998,87.0,1.0,120.0,0.0,0.0
21999,75.0,29.0,120.0,1.0,0.0
22000,57.0,0.0,30.0,7.0,0.0
22001,60.0,30.0,30.0,7.0,0.0
22002,42.0,0.0,30.0,7.0,0.0
22003,54.0,0.0,30.0,7.0,0.0
22004,45.0,30.0,30.0,7.0,0.0
22005,57.0,0.0,30.0,7.0,0.0
22006,60.0,1.0,30.0,7.0,0.0
22007,48.0,0.0,30.0,7.0,0.0
22008,87.0,0.0,15.0,0.0,0.0
22009,51.0,30.0,30.0,7.0,0.0
22010,63.0,0.0,30.0,7.0,0.0
22011,75.0,29.0,15.0,1.0,0.0
22012,45.0,30.0,30.0,7.0,0.0
22013,57.0,0.0,30.0,7.0,0.0
22014,48.0,0.0,30.0,7.0,0.0
22015,60.0,30.0,30.0,7.0,0.0
22016,63.0,30.0,30.0,7.0,0.0
22017,51.0,0.0,30.0,7.0,0.0
22018,66.0,30.0,30.0,7.0,0.0
22019,54.0,0.0,30.0,7.0,0.0
22020,60.0,2.0,30.0,7.0,0.0
22021,48.0,0.0,30.0,7.0,0.0
22022,51.0,30.0,30.0,7.0,0.0
22023,63.0,0.0,30.0,7.0,0.0
22024,72.0,28.0,15.0,2.0,0.0
22025,69.0,0.0,15.0,2.0,0.0
22026,66.0,0.0,30.0,7.0,0.0
22027,54.0,2.0,30.0,7.0,0.0
22028,57.0,30.0,30.0,7.0,0.0
22029,69.0,0.0,30.0,7.0,0.0
22030,69.0,0.0,15.0,2.0,0.0
22031,72.0,28.0,15.0,2.0,0.0
22032,51.0,30.0,30.0,7.0,0.0
22033,63.0,0.0,30.0,7.0,0.0
22034,66.0,30.0,30.0,7.0,0.0
22035,54.0,0.0,30.0,7.0,0.0
22036,69.0,0.0,30.0,7.0,0.0
22037,57.0,30.0,30.0,7.0,0.0
22038,72.0,30.0,30.0,7.0,0.0
22039,60.0,0.0,30.0,7.0,0.0
22040,66.0,30.0,30.0,7.0,0.0
22041,54.0,0.0,30.0,7.0,0.0
22042,69.0,0.0,30.0,7.0,0.0
22043,57.0,30.0,30.0,7.0,0.0
22044,72.0,0.0,30.0,7.0,0.0
22045,60.0,30.0,30.0,7.0,0.0
22046,75.0,30.0,30.0,7.0,0.0
22047,63.0,0.0,30.0,7.0,0.0
22048,57.0,0.0,30.0,7.0,0.0
22049,69.0,30.0,30.0,7.0,0.0
22050,72.0,30.0,30.0,7.0,0.0
22051,60.0,0.0,30.0,7.0,0.0
22052,75.0,0.0,30.0,7.0,0.0
22053,63.0,30.0,30.0,7.0,0.0
22054,78.0,0.0,30.0,7.0,0.0
22055,66.0,30.0,30.0,7.0,0.0
22056,60.0,30.0,30.0,7.0,0.0
22057,72.0,0.0,30.0,7.0,0.0
22058,63.0,0.0,30.0,7.0,0.0
22059,75.0,30.0,30.0,7.0,0.0
22060,66.0,1.0,30.0,7.0,0.0
22061,78.0,0.0,30.0,7.0,0.0
22062,66.0,2.0,120.0,8.0,0.0
22063,38.0,0.0,120.0,7.0,0.0
22064,60.0,2.0,120.0,10.0,0.0
22065,57.0,1.0,120.0,11.0,0.0
22066,50.0,2.0,120.0,12.0,0.0
22067,38.0,23.0,120.0,13.0,0.0
22068,57.0,30.0,30.0,7.0,0.0
22069,60.0,30.0,30.0,7.0,0.0
22070,63.0,0.0,30.0,7.0,0.0
22071,66.0,30.0,30.0,7.0,0.0
22072,48.0,1.0,30.0,7.0,0.0
22073,60.0,0.0,30.0,7.0,0.0
22074,63.0,0.0,30.0,7.0,0.0
22075,51.0,30.0,30.0,7.0,0.0
22076,90.0,0.0,15.0,0.0,0.0
22077,78.0,29.0,15.0,1.0,0.0
22078,54.0,1.0,30.0,7.0,0.0
22079,66.0,0.0,30.0,7.0,0.0
22080,90.0,0.0,15.0,0.0,0.0
22081,57.0,0.0,30.0,7.0,0.0
22082,69.0,30.0,30.0,7.0,0.0
22083,78.0,29.0,15.0,1.0,0.0
22084,63.0,0.0,30.0,7.0,0.0
22085,51.0,30.0,30.0,7.0,0.0
22086,54.0,0.0,30.0,7.0,0.0
22087,66.0,30.0,30.0,7.0,0.0
22088,69.0,30.0,30.0,7.0,0.0
22089,57.0,0.0,30.0,7.0,0.0
22090,72.0,30.0,30.0,7.0,0.0
22091,60.0,0.0,30.0,7.0,0.0
22092,66.0,0.0,30.0,7.0,0.0
22093,54.0,2.0,30.0,7.0,0.0
22094,57.0,30.0,30.0,7.0,0.0
22095,69.0,0.0,30.0,7.0,0.0
22096,72.0,28.0,15.0,2.0,0.0
22097,69.0,0.0,15.0,2.0,0.0
22098,60.0,2.0,30.0,7.0,0.0
22099,72.0,0.0,30.0,7.0,0.0
22100,63.0,30.0,30.0,7.0,0.0
22101,75.0,0.0,30.0,7.0,0.0
22102,69.0,0.0,15.0,2.0,0.0
22103,72.0,28.0,15.0,2.0,0.0
22104,57.0,30.0,30.0,7.0,0.0
22105,69.0,0.0,30.0,7.0,0.0
22106,60.0,30.0,30.0,7.0,0.0
22107,72.0,0.0,30.0,7.0,0.0
22108,63.0,30.0,30.0,7.0,0.0
22109,75.0,0.0,30.0,7.0,0.0
22110,66.0,0.0,30.0,7.0,0.0
22111,78.0,30.0,30.0,7.0,0.0
22112,60.0,30.0,30.0,7.0,0.0
22113,72.0,0.0,30.0,7.0,0.0
22114,63.0,30.0,30.0,7.0,0.0
22115,75.0,0.0,30.0,7.0,0.0
22116,78.0,0.0,30.0,7.0,0.0
22117,66.0,30.0,30.0,7.0,0.0
22118,69.0,30.0,30.0,7.0,0.0
22119,81.0,0.0,30.0,7.0,0.0
22120,63.0,30.0,30.0,7.0,0.0
22121,75.0,0.0,30.0,7.0,0.0
22122,66.0,30.0,30.0,7.0,0.0
22123,78.0,0.0,30.0,7.0,0.0
22124,81.0,30.0,30.0,7.0,0.0
22125,69.0,0.0,30.0,7.0,0.0
22126,72.0,30.0,30.0,7.0,0.0
22127,84.0,0.0,30.0,7.0,0.0
22128,66.0,0.0,30.0,7.0,0.0
22129,78.0,30.0,30.0,7.0,0.0
22130,81.0,0.0,30.0,7.0,0.0
22131,69.0,30.0,30.0,7.0,0.0
22132,72.0,0.0,30.0,7.0,0.0
22133,84.0,1.0,30.0,7.0,0.0
22134,50.0,30.0,30.0,7.0,0.0
22135,66.0,0.0,120.0,8.0,0.0
22136,60.0,2.0,120.0,10.0,0.0
22137,57.0,1.0,120.0,11.0,0.0
22138,50.0,2.0,120.0,12.0,0.0
22139,38.0,23.0,120.0,13.0,0.0
22140,62.0,30.0,30.0,7.0,0.0
22141,66.0,0.0,30.0,7.0,0.0
22142,61.0,0.0,30.0,7.0,0.0
22143,67.0,30.0,30.0,7.0,0.0
22144,84.0,1.0,120.0,1.0,0.0
22145,78.0,18.0,120.0,2.0,0.0
22146,62.0,0.0,120.0,4.0,0.0
22147,60.0,2.0,30.0,7.0,0.0
22148,68.0,0.0,30.0,7.0,0.0
22149,59.0,20.0,30.0,7.0,0.0
22150,69.0,10.0,30.0,7.0,0.0
22151,70.0,1.0,30.0,7.0,0.0
22152,58.0,10.0,30.0,7.0,0.0
22153,71.0,30.0,30.0,7.0,0.0
22154,84.0,1.0,60.0,1.0,0.0
22155,69.0,0.0,15.0,4.0,0.0
22156,62.0,0.0,60.0,4.0,0.0
22157,78.0,0.0,60.0,2.0,0.0
22158,57.0,0.0,30.0,7.0,0.0
22159,72.0,1.0,30.0,7.0,0.0
22160,56.0,20.0,30.0,7.0,0.0
22161,69.0,0.0,120.0,8.0,0.0
22162,73.0,10.0,30.0,7.0,0.0
22163,66.0,2.0,120.0,10.0,0.0
22164,60.0,1.0,120.0,11.0,0.0
22165,50.0,2.0,120.0,12.0,0.0
22166,38.0,23.0,120.0,13.0,0.0
22167,74.0,20.0,30.0,7.0,0.0
22168,55.0,10.0,30.0,7.0,0.0
22169,75.0,30.0,30.0,7.0,0.0
22170,84.0,1.0,120.0,1.0,0.0
22171,69.0,18.0,120.0,4.0,0.0
22172,62.0,0.0,120.0,4.0,0.0
22173,78.0,0.0,120.0,2.0,0.0
22174,54.0,2.0,30.0,7.0,0.0
22175,76.0,0.0,30.0,7.0,0.0
22176,53.0,20.0,30.0,7.0,0.0
22177,77.0,10.0,30.0,7.0,0.0
22178,78.0,1.0,30.0,7.0,0.0
22179,52.0,10.0,30.0,7.0,0.0
22180,79.0,30.0,30.0,7.0,0.0
22181,84.0,1.0,60.0,1.0,0.0
22182,78.0,0.0,60.0,2.0,0.0
22183,69.0,0.0,60.0,4.0,0.0
22184,62.0,18.0,60.0,4.0,0.0
22185,51.0,0.0,30.0,7.0,0.0
22186,80.0,1.0,30.0,7.0,0.0
22187,81.0,20.0,20.0,7.0,0.0
22188,50.0,0.0,30.0,7.0,0.0
22189,72.0,2.0,120.0,8.0,0.0
22190,69.0,2.0,120.0,10.0,0.0
22191,66.0,1.0,120.0,11.0,0.0
22192,50.0,2.0,120.0,12.0,0.0
22193,38.0,13.0,120.0,13.0,0.0
22194,82.0,20.0,20.0,7.0,0.0
22195,83.0,20.0,20.0,7.0,0.0
22196,49.0,0.0,30.0,7.0,0.0
22197,84.0,20.0,20.0,7.0,0.0
22198,85.0,20.0,20.0,7.0,0.0
22199,48.0,0.0,30.0,7.0,0.0
22200,86.0,0.0,20.0,7.0,0.0
22201,47.0,0.0,30.0,7.0,0.0
22202,87.0,20.0,20.0,7.0,0.0
22203,88.0,20.0,20.0,7.0,0.0
22204,46.0,0.0,30.0,7.0,0.0
22205,89.0,1.0,20.0,7.0,0.0
22206,90.0,20.0,20.0,7.0,0.0
22207,84.0,1.0,15.0,1.0,0.0
22208,78.0,0.0,15.0,2.0,0.0
22209,62.0,0.0,15.0,4.0,0.0
22210,69.0,18.0,15.0,4.0,0.0
22211,45.0,1.0,30.0,7.0,0.0
22212,91.0,20.0,20.0,7.0,0.0
22213,92.0,0.0,20.0,7.0,0.0
22214,78.0,2.0,120.0,8.0,0.0
22215,93.0,20.0,20.0,7.0,0.0
22216,44.0,0.0,30.0,7.0,0.0
22217,72.0,2.0,120.0,10.0,0.0
22218,69.0,1.0,120.0,11.0,0.0
22219,50.0,2.0,120.0,12.0,0.0
22220,38.0,23.0,120.0,13.0,0.0
22221,94.0,20.0,20.0,7.0,0.0
22222,43.0,20.0,30.0,7.0,0.0
22223,95.0,20.0,20.0,7.0,0.0
22224,96.0,0.0,20.0,7.0,0.0
22225,84.0,1.0,120.0,1.0,0.0
22226,69.0,0.0,120.0,4.0,0.0
22227,78.0,0.0,120.0,2.0,0.0
22228,62.0,18.0,120.0,4.0,0.0
22229,97.0,20.0,20.0,7.0,0.0
22230,42.0,0.0,30.0,7.0,0.0
22231,98.0,0.0,20.0,7.0,0.0
22232,40.0,20.0,30.0,7.0,0.0
22233,99.0,10.0,30.0,7.0,0.0
22234,100.0,1.0,30.0,7.0,0.0
22235,39.0,10.0,30.0,7.0,0.0
22236,101.0,30.0,30.0,7.0,0.0
22237,84.0,1.0,60.0,1.0,0.0
22238,69.0,0.0,60.0,4.0,0.0
22239,78.0,30.0,60.0,2.0,0.0
22240,62.0,0.0,60.0,4.0,0.0
22241,38.0,1.0,30.0,7.0,0.0
22242,102.0,0.0,30.0,7.0,0.0
22243,79.0,0.0,300.0,0.0,0.0
22244,91.0,0.0,300.0,0.0,0.0
22245,91.0,0.0,120.0,7.0,0.0
22246,67.0,2.0,120.0,8.0,0.0
22247,59.0,0.0,120.0,8.0,0.0
22248,103.0,0.0,120.0,7.0,0.0
22249,98.0,0.0,120.0,7.0,0.0
22250,79.0,2.0,300.0,8.0,0.0
22251,95.0,0.0,120.0,7.0,0.0
22252,43.0,0.0,120.0,7.0,0.0
22253,79.0,0.0,600.0,1.0,0.0
22254,83.0,0.0,600.0,1.0,0.0
22255,79.0,1.0,600.0,5.0,0.0
22256,67.0,0.0,600.0,5.0,0.0
22257,71.0,0.0,600.0,2.0,0.0
22258,79.0,0.0,600.0,2.0,0.0
22259,67.0,0.0,600.0,4.0,0.0
22260,55.0,28.0,30.0,11.0,0.0
22261,55.0,26.0,120.0,6.0,0.0
22262,67.0,2.0,15.0,10.0,0.0
22263,59.0,0.0,15.0,10.0,0.0
22264,62.0,0.0,15.0,11.0,0.0
22265,55.0,0.0,30.0,11.0,0.0
22266,67.0,2.0,30.0,10.0,0.0
22267,62.0,26.0,30.0,11.0,0.0
22268,59.0,0.0,15.0,10.0,0.0
22269,67.0,2.0,30.0,10.0,0.0
22270,55.0,0.0,15.0,11.0,0.0
22271,59.0,2.0,30.0,10.0,0.0
22272,67.0,0.0,30.0,10.0,0.0
22273,62.0,0.0,15.0,11.0,0.0
22274,55.0,0.0,30.0,11.0,0.0
22275,59.0,2.0,30.0,10.0,0.0
22276,67.0,0.0,30.0,10.0,0.0
22277,62.0,28.0,15.0,11.0,0.0
22278,59.0,2.0,30.0,10.0,0.0
22279,67.0,0.0,30.0,10.0,0.0
22280,55.0,28.0,15.0,11.0,0.0
22281,62.0,0.0,15.0,11.0,0.0
22282,59.0,0.0,30.0,10.0,0.0
22283,67.0,2.0,30.0,10.0,0.0
22284,55.0,28.0,15.0,11.0,0.0
22285,62.0,0.0,30.0,11.0,0.0
22286,59.0,0.0,30.0,10.0,0.0
22287,55.0,28.0,15.0,11.0,0.0
22288,62.0,0.0,30.0,11.0,0.0
22289,67.0,2.0,15.0,10.0,0.0
22290,59.0,0.0,30.0,10.0,0.0
22291,55.0,26.0,15.0,11.0,0.0
22292,81.0,0.0,20.0,8.0,0.0
22293,81.0,0.0,20.0,0.0,0.0
22294,93.0,12.0,20.0,0.0,0.0
22295,67.0,2.0,15.0,10.0,0.0
22296,55.0,16.0,15.0,11.0,0.0
22297,62.0,0.0,15.0,11.0,0.0
22298,79.0,0.0,20.0,8.0,0.0
22299,79.0,20.0,20.0,0.0,0.0
22300,91.0,0.0,20.0,0.0,0.0
22301,59.0,2.0,15.0,10.0,0.0
22302,67.0,0.0,30.0,10.0,0.0
22303,62.0,0.0,30.0,11.0,0.0
22304,55.0,6.0,15.0,11.0,0.0
22305,90.0,0.0,20.0,0.0,0.0
22306,78.0,2.0,20.0,8.0,0.0
22307,78.0,0.0,20.0,0.0,0.0
22308,79.0,0.0,60.0,0.0,0.0
22309,91.0,17.0,60.0,0.0,0.0
22310,79.0,0.0,60.0,8.0,0.0
22311,67.0,2.0,30.0,10.0,0.0
22312,59.0,2.0,15.0,10.0,0.0
22313,55.0,11.0,15.0,11.0,0.0
22314,62.0,0.0,15.0,11.0,0.0
22315,93.0,0.0,60.0,0.0,0.0
22316,81.0,0.0,60.0,8.0,0.0
22317,81.0,17.0,60.0,0.0,0.0
22318,67.0,2.0,15.0,10.0,0.0
22319,59.0,0.0,15.0,10.0,0.0
22320,55.0,28.0,15.0,11.0,0.0
22321,62.0,11.0,30.0,11.0,0.0
22322,67.0,2.0,15.0,10.0,0.0
22323,62.0,0.0,30.0,11.0,0.0
22324,55.0,28.0,30.0,11.0,0.0
22325,83.0,1.0,120.0,8.0,0.0
22326,83.0,0.0,120.0,0.0,0.0
22327,95.0,0.0,120.0,0.0,0.0
22328,59.0,0.0,15.0,10.0,0.0
22329,67.0,2.0,15.0,10.0,0.0
22330,59.0,0.0,30.0,10.0,0.0
22331,67.0,2.0,15.0,10.0,0.0
22332,62.0,0.0,15.0,11.0,0.0
22333,55.0,28.0,15.0,11.0,0.0
22334,55.0,28.0,15.0,11.0,0.0
22335,62.0,0.0,15.0,11.0,0.0
22336,59.0,2.0,15.0,10.0,0.0
22337,67.0,0.0,15.0,10.0,0.0
22338,55.0,0.0,30.0,11.0,0.0
22339,91.0,1.0,120.0,0.0,0.0
22340,79.0,0.0,120.0,8.0,0.0
22341,79.0,0.0,120.0,0.0,0.0
22342,83.0,0.0,120.0,1.0,0.0
22343,79.0,0.0,120.0,1.0,0.0
22344,79.0,1.0,120.0,5.0,0.0
22345,67.0,0.0,120.0,5.0,0.0
22346,67.0,0.0,15.0,10.0,0.0
22347,71.0,0.0,120.0,2.0,0.0
22348,79.0,0.0,120.0,2.0,0.0
22349,55.0,2.0,15.0,4.0,0.0
22350,67.0,0.0,120.0,4.0,0.0
22351,59.0,2.0,30.0,10.0,0.0
22352,62.0,1.0,15.0,11.0,0.0
22353,55.0,1.0,15.0,12.0,0.0
22354,55.0,0.0,15.0,6.0,0.0
22355,55.0,1.0,15.0,3.0,0.0
22356,43.0,25.0,15.0,13.0,0.0
22357,67.0,2.0,30.0,10.0,0.0
22358,59.0,0.0,30.0,10.0,0.0
22359,55.0,28.0,15.0,11.0,0.0
22360,62.0,0.0,30.0,11.0,0.0
22361,59.0,0.0,30.0,10.0,0.0
22362,62.0,26.0,30.0,11.0,0.0
22363,55.0,28.0,15.0,11.0,0.0
22364,59.0,0.0,30.0,10.0,0.0
22365,67.0,2.0,15.0,10.0,0.0
22366,62.0,1.0,30.0,11.0,0.0
22367,76.0,0.0,120.0,0.0,0.0
22368,76.0,1.0,120.0,8.0,0.0
22369,88.0,0.0,120.0,0.0,0.0
22370,88.0,0.0,120.0,1.0,0.0
22371,84.0,0.0,120.0,1.0,0.0
22372,76.0,0.0,120.0,2.0,0.0
22373,72.0,0.0,120.0,2.0,0.0
22374,67.0,2.0,120.0,4.0,0.0
22375,55.0,0.0,120.0,4.0,0.0
22376,60.0,0.0,30.0,10.0,0.0
22377,55.0,0.0,15.0,11.0,0.0
22378,64.0,28.0,30.0,11.0,0.0
22379,60.0,1.0,120.0,12.0,0.0
22380,55.0,1.0,120.0,6.0,0.0
22381,59.0,0.0,120.0,3.0,0.0
22382,48.0,25.0,120.0,13.0,0.0
22383,60.0,0.0,30.0,10.0,0.0
22384,67.0,2.0,15.0,10.0,0.0
22385,55.0,28.0,30.0,11.0,0.0
22386,60.0,0.0,30.0,10.0,0.0
22387,64.0,0.0,15.0,11.0,0.0
22388,55.0,0.0,30.0,11.0,0.0
22389,67.0,2.0,15.0,10.0,0.0
22390,60.0,0.0,30.0,10.0,0.0
22391,64.0,1.0,30.0,11.0,0.0
22392,74.0,0.0,90.0,8.0,0.0
22393,67.0,1.0,15.0,5.0,0.0
22394,79.0,0.0,15.0,5.0,0.0
22395,86.0,0.0,120.0,1.0,0.0
22396,83.0,0.0,120.0,1.0,0.0
22397,74.0,0.0,120.0,2.0,0.0
22398,59.0,0.0,30.0,10.0,0.0
22399,67.0,0.0,15.0,10.0,0.0
22400,71.0,0.0,120.0,2.0,0.0
22401,55.0,0.0,15.0,11.0,0.0
22402,43.0,14.0,120.0,13.0,0.0
22403,55.0,0.0,15.0,11.0,0.0
22404,62.0,28.0,15.0,11.0,0.0
22405,59.0,2.0,15.0,10.0,0.0
22406,67.0,0.0,15.0,10.0,0.0
22407,55.0,0.0,15.0,11.0,0.0
22408,86.0,0.0,15.0,0.0,0.0
22409,74.0,2.0,15.0,0.0,0.0
22410,74.0,1.0,30.0,8.0,0.0
22411,67.0,0.0,15.0,10.0,0.0
22412,55.0,26.0,15.0,11.0,0.0
22413,62.0,0.0,15.0,11.0,0.0
22414,79.0,0.0,60.0,0.0,0.0
22415,91.0,0.0,60.0,0.0,0.0
22416,67.0,0.0,30.0,8.0,0.0
22417,79.0,1.0,15.0,5.0,0.0
22418,79.0,2.0,60.0,2.0,0.0
22419,67.0,0.0,60.0,2.0,0.0
22420,67.0,0.0,15.0,4.0,0.0
22421,55.0,0.0,15.0,4.0,0.0
22422,59.0,2.0,15.0,10.0,0.0
22423,55.0,1.0,15.0,11.0,0.0
22424,62.0,2.0,30.0,11.0,0.0
22425,55.0,1.0,15.0,12.0,0.0
22426,55.0,0.0,15.0,6.0,0.0
22427,55.0,1.0,15.0,3.0,0.0
22428,67.0,1.0,60.0,3.0,0.0
22429,54.0,15.0,15.0,6.0,0.0
22430,79.0,2.0,15.0,8.0,0.0
22431,67.0,0.0,15.0,10.0,0.0
22432,62.0,1.0,30.0,11.0,0.0
22433,55.0,0.0,30.0,11.0,0.0
22434,55.0,9.0,15.0,6.0,0.0
22435,54.0,0.0,15.0,6.0,0.0
22436,67.0,0.0,15.0,8.0,0.0
22437,79.0,1.0,15.0,8.0,0.0
22438,91.0,0.0,120.0,0.0,0.0
22439,79.0,0.0,120.0,0.0,0.0
22440,79.0,0.0,15.0,1.0,0.0
22441,67.0,0.0,15.0,5.0,0.0
22442,79.0,1.0,15.0,5.0,0.0
22443,67.0,0.0,15.0,4.0,0.0
22444,59.0,0.0,15.0,10.0,0.0
22445,67.0,0.0,15.0,10.0,0.0
22446,55.0,0.0,60.0,4.0,0.0
22447,67.0,0.0,120.0,2.0,0.0
22448,55.0,1.0,15.0,12.0,0.0
22449,55.0,9.0,15.0,6.0,0.0
22450,55.0,1.0,60.0,3.0,0.0
22451,43.0,14.0,15.0,13.0,0.0
22452,54.0,15.0,15.0,6.0,0.0
22453,79.0,2.0,15.0,8.0,0.0
22454,67.0,0.0,30.0,8.0,0.0
22455,67.0,0.0,30.0,10.0,0.0
22456,55.0,2.0,15.0,11.0,0.0
22457,62.0,0.0,15.0,11.0,0.0
22458,55.0,9.0,15.0,6.0,0.0
22459,54.0,0.0,15.0,6.0,0.0
22460,79.0,2.0,30.0,8.0,0.0
22461,67.0,0.0,30.0,8.0,0.0
22462,55.0,0.0,60.0,4.0,0.0
22463,59.0,2.0,15.0,10.0,0.0
22464,55.0,1.0,15.0,11.0,0.0
22465,55.0,9.0,15.0,6.0,0.0
22466,54.0,15.0,15.0,6.0,0.0
22467,79.0,0.0,30.0,8.0,0.0
22468,67.0,1.0,30.0,8.0,0.0
22469,67.0,0.0,15.0,10.0,0.0
22470,59.0,0.0,30.0,10.0,0.0
22471,62.0,2.0,15.0,11.0,0.0
22472,55.0,0.0,15.0,11.0,0.0
22473,55.0,9.0,15.0,6.0,0.0
22474,54.0,0.0,15.0,6.0,0.0
22475,79.0,0.0,30.0,8.0,0.0
22476,67.0,0.0,15.0,5.0,0.0
22477,79.0,1.0,15.0,5.0,0.0
22478,67.0,0.0,15.0,10.0,0.0
22479,79.0,2.0,15.0,2.0,0.0
22480,55.0,0.0,60.0,4.0,0.0
22481,67.0,0.0,15.0,4.0,0.0
22482,59.0,2.0,30.0,10.0,0.0
22483,67.0,0.0,120.0,2.0,0.0
22484,55.0,1.0,15.0,11.0,0.0
22485,62.0,0.0,15.0,11.0,0.0
22486,55.0,1.0,15.0,12.0,0.0
22487,55.0,9.0,15.0,6.0,0.0
22488,67.0,1.0,15.0,3.0,0.0
22489,55.0,0.0,15.0,3.0,0.0
22490,43.0,14.0,15.0,13.0,0.0
22491,54.0,15.0,15.0,6.0,0.0
22492,79.0,0.0,30.0,8.0,0.0
22493,67.0,2.0,15.0,8.0,0.0
22494,67.0,0.0,15.0,10.0,0.0
22495,55.0,2.0,15.0,11.0,0.0
22496,55.0,9.0,15.0,6.0,0.0
22497,54.0,0.0,15.0,6.0,0.0
22498,67.0,0.0,60.0,8.0,0.0
22499,79.0,6.0,60.0,8.0,0.0
22500,79.0,0.0,60.0,5.0,0.0
22501,55.0,0.0,60.0,4.0,0.0
22502,67.0,0.0,15.0,4.0,0.0
22503,59.0,2.0,15.0,10.0,0.0
22504,67.0,0.0,15.0,10.0,0.0
22505,55.0,0.0,30.0,11.0,0.0
22506,62.0,1.0,15.0,11.0,0.0
22507,55.0,1.0,15.0,12.0,0.0
22508,55.0,1.0,15.0,3.0,0.0
22509,55.0,11.0,15.0,6.0,0.0
22510,54.0,9.0,15.0,6.0,0.0
22511,67.0,0.0,30.0,10.0,0.0
22512,59.0,0.0,30.0,10.0,0.0
22513,62.0,2.0,15.0,11.0,0.0
22514,55.0,0.0,30.0,11.0,0.0
22515,55.0,9.0,15.0,6.0,0.0
22516,54.0,0.0,15.0,6.0,0.0
22517,91.0,0.0,15.0,0.0,0.0
22518,81.0,1.0,20.0,8.0,0.0
22519,79.0,1.0,15.0,0.0,0.0
22520,67.0,1.0,15.0,5.0,0.0
22521,79.0,0.0,15.0,1.0,0.0
22522,67.0,2.0,30.0,10.0,0.0
22523,55.0,0.0,60.0,4.0,0.0
22524,67.0,0.0,120.0,2.0,0.0
22525,79.0,2.0,15.0,2.0,0.0
22526,59.0,0.0,30.0,10.0,0.0
22527,67.0,0.0,60.0,4.0,0.0
22528,62.0,1.0,15.0,11.0,0.0
22529,55.0,0.0,30.0,11.0,0.0
22530,55.0,1.0,15.0,12.0,0.0
22531,55.0,11.0,15.0,6.0,0.0
22532,55.0,1.0,15.0,3.0,0.0
22533,67.0,0.0,15.0,3.0,0.0
22534,43.0,13.0,15.0,13.0,0.0
22535,79.0,11.0,20.0,8.0,0.0
22536,54.0,4.0,15.0,6.0,0.0
22537,59.0,0.0,30.0,10.0,0.0
22538,55.0,1.0,30.0,11.0,0.0
22539,62.0,2.0,15.0,11.0,0.0
22540,55.0,9.0,15.0,6.0,0.0
22541,78.0,1.0,20.0,8.0,0.0
22542,54.0,1.0,15.0,6.0,0.0
22543,79.0,2.0,30.0,8.0,0.0
22544,79.0,1.0,15.0,5.0,0.0
22545,67.0,2.0,15.0,10.0,0.0
22546,67.0,0.0,60.0,4.0,0.0
22547,62.0,0.0,15.0,11.0,0.0
22548,55.0,0.0,15.0,3.0,0.0
22549,55.0,9.0,15.0,6.0,0.0
22550,43.0,14.0,60.0,13.0,0.0
22551,54.0,15.0,15.0,6.0,0.0
22552,79.0,1.0,30.0,8.0,0.0
22553,59.0,2.0,15.0,10.0,0.0
22554,55.0,2.0,15.0,11.0,0.0
22555,62.0,0.0,15.0,11.0,0.0
22556,55.0,9.0,15.0,6.0,0.0
22557,54.0,0.0,15.0,6.0,0.0
22558,81.0,0.0,60.0,0.0,0.0
22559,93.0,1.0,60.0,0.0,0.0
22560,81.0,2.0,30.0,8.0,0.0
22561,67.0,0.0,15.0,5.0,0.0
22562,81.0,0.0,60.0,1.0,0.0
22563,81.0,0.0,60.0,2.0,0.0
22564,69.0,0.0,60.0,2.0,0.0
22565,55.0,0.0,15.0,4.0,0.0
22566,67.0,2.0,15.0,10.0,0.0
22567,59.0,0.0,30.0,10.0,0.0
22568,55.0,2.0,30.0,11.0,0.0
22569,62.0,0.0,30.0,11.0,0.0
22570,55.0,1.0,15.0,12.0,0.0
22571,69.0,0.0,60.0,3.0,0.0
22572,55.0,9.0,15.0,6.0,0.0
22573,55.0,0.0,60.0,3.0,0.0
22574,43.0,23.0,60.0,13.0,0.0
22575,54.0,15.0,15.0,6.0,0.0
22576,81.0,0.0,30.0,8.0,0.0
22577,59.0,2.0,30.0,10.0,0.0
22578,67.0,0.0,30.0,10.0,0.0
22579,55.0,9.0,15.0,6.0,0.0
22580,54.0,1.0,15.0,6.0,0.0
22581,83.0,2.0,30.0,8.0,0.0
22582,95.0,0.0,60.0,0.0,0.0
22583,79.0,0.0,15.0,5.0,0.0
22584,67.0,1.0,15.0,5.0,0.0
22585,83.0,1.0,60.0,1.0,0.0
22586,67.0,0.0,15.0,4.0,0.0
22587,71.0,2.0,60.0,2.0,0.0
22588,83.0,0.0,60.0,2.0,0.0
22589,71.0,2.0,30.0,10.0,0.0
22590,62.0,0.0,15.0,11.0,0.0
22591,55.0,1.0,15.0,11.0,0.0
22592,55.0,1.0,15.0,12.0,0.0
22593,55.0,1.0,120.0,6.0,0.0
22594,55.0,0.0,60.0,3.0,0.0
22595,83.0,0.0,30.0,8.0,0.0
22596,55.0,0.0,30.0,11.0,0.0
22597,83.0,1.0,15.0,0.0,0.0
22598,95.0,0.0,120.0,0.0,0.0
22599,83.0,1.0,120.0,1.0,0.0
22600,71.0,0.0,15.0,10.0,0.0
22601,71.0,0.0,120.0,2.0,0.0
22602,83.0,0.0,120.0,2.0,0.0
22603,62.0,1.0,15.0,11.0,0.0
22604,55.0,0.0,30.0,11.0,0.0
22605,55.0,1.0,15.0,12.0,0.0
22606,71.0,1.0,15.0,3.0,0.0
22607,43.0,23.0,15.0,13.0,0.0
22608,83.0,2.0,15.0,8.0,0.0
22609,71.0,0.0,30.0,10.0,0.0
22610,62.0,26.0,15.0,11.0,0.0
22611,79.0,2.0,30.0,8.0,0.0
22612,67.0,1.0,15.0,5.0,0.0
22613,79.0,0.0,120.0,5.0,0.0
22614,67.0,2.0,15.0,4.0,0.0
22615,55.0,0.0,15.0,4.0,0.0
22616,67.0,2.0,30.0,10.0,0.0
22617,55.0,1.0,15.0,11.0,0.0
22618,55.0,0.0,15.0,3.0,0.0
22619,55.0,0.0,120.0,6.0,0.0
22620,43.0,23.0,60.0,13.0,0.0
22621,59.0,26.0,15.0,11.0,0.0
22622,55.0,0.0,30.0,11.0,0.0
22623,79.0,0.0,15.0,8.0,0.0
22624,79.0,0.0,120.0,0.0,0.0
22625,91.0,1.0,120.0,0.0,0.0
22626,79.0,1.0,120.0,1.0,0.0
22627,79.0,0.0,120.0,2.0,0.0
22628,67.0,0.0,120.0,2.0,0.0
22629,67.0,2.0,15.0,10.0,0.0
22630,59.0,26.0,30.0,11.0,0.0
22631,55.0,0.0,30.0,11.0,0.0
22632,55.0,1.0,15.0,12.0,0.0
22633,67.0,1.0,120.0,3.0,0.0
22634,55.0,1.0,60.0,3.0,0.0
22635,43.0,23.0,60.0,13.0,0.0
22636,79.0,2.0,15.0,8.0,0.0
22637,67.0,2.0,15.0,10.0,0.0
22638,59.0,0.0,30.0,11.0,0.0
22639,67.0,0.0,120.0,5.0,0.0
22640,55.0,2.0,15.0,4.0,0.0
22641,67.0,0.0,15.0,4.0,0.0
22642,55.0,1.0,15.0,11.0,0.0
22643,55.0,0.0,120.0,6.0,0.0
22644,48.0,23.0,60.0,13.0,0.0
22645,76.0,2.0,15.0,8.0,0.0
22646,64.0,2.0,15.0,10.0,0.0
22647,55.0,26.0,15.0,11.0,0.0
22648,60.0,0.0,15.0,11.0,0.0
22649,88.0,1.0,120.0,0.0,0.0
22650,76.0,0.0,120.0,0.0,0.0
22651,76.0,2.0,30.0,8.0,0.0
22652,76.0,1.0,120.0,1.0,0.0
22653,76.0,0.0,120.0,2.0,0.0
22654,64.0,2.0,120.0,2.0,0.0
22655,55.0,1.0,15.0,11.0,0.0
22656,60.0,0.0,15.0,11.0,0.0
22657,60.0,1.0,15.0,12.0,0.0
22658,60.0,0.0,15.0,3.0,0.0
22659,64.0,1.0,120.0,3.0,0.0
22660,48.0,23.0,60.0,13.0,0.0
22661,76.0,1.0,30.0,8.0,0.0
22662,64.0,2.0,15.0,10.0,0.0
22663,60.0,1.0,30.0,11.0,0.0
22664,67.0,1.0,120.0,5.0,0.0
22665,79.0,1.0,15.0,5.0,0.0
22666,63.0,2.0,30.0,10.0,0.0
22667,55.0,0.0,15.0,11.0,0.0
22668,59.0,1.0,60.0,12.0,0.0
22669,59.0,0.0,60.0,3.0,0.0
22670,75.0,2.0,15.0,8.0,0.0
22671,59.0,0.0,15.0,11.0,0.0
22672,55.0,26.0,15.0,11.0,0.0
22673,75.0,0.0,15.0,8.0,0.0
22674,75.0,0.0,60.0,0.0,0.0
22675,87.0,1.0,60.0,0.0,0.0
22676,75.0,0.0,60.0,1.0,0.0
22677,63.0,0.0,15.0,10.0,0.0
22678,63.0,0.0,60.0,2.0,0.0
22679,75.0,2.0,60.0,2.0,0.0
22680,55.0,0.0,15.0,11.0,0.0
22681,59.0,1.0,60.0,12.0,0.0
22682,63.0,0.0,60.0,3.0,0.0
22683,59.0,1.0,60.0,3.0,0.0
22684,47.0,23.0,15.0,13.0,0.0
22685,75.0,0.0,30.0,8.0,0.0
22686,63.0,0.0,30.0,10.0,0.0
22687,59.0,0.0,15.0,11.0,0.0
22688,55.0,26.0,15.0,11.0,0.0
22689,76.0,1.0,360.0,8.0,0.0
22690,79.0,0.0,15.0,5.0,0.0
22691,76.0,0.0,360.0,1.0,0.0
22692,67.0,0.0,15.0,4.0,0.0
22693,55.0,0.0,15.0,4.0,0.0
22694,64.0,0.0,360.0,10.0,0.0
22695,60.0,1.0,360.0,12.0,0.0
22696,60.0,0.0,360.0,3.0,0.0
22697,55.0,0.0,15.0,6.0,0.0
22698,48.0,72.0,360.0,13.0,0.0
22699,76.0,0.0,15.0,0.0,0.0
22700,88.0,0.0,15.0,0.0,0.0
22701,88.0,1.0,90.0,8.0,0.0
22702,79.0,0.0,15.0,5.0,0.0
22703,67.0,1.0,15.0,5.0,0.0
22704,88.0,0.0,90.0,1.0,0.0
22705,76.0,0.0,90.0,1.0,0.0
22706,67.0,0.0,90.0,10.0,0.0
22707,76.0,0.0,15.0,2.0,0.0
22708,64.0,0.0,15.0,2.0,0.0
22709,76.0,0.0,90.0,10.0,0.0
22710,55.0,0.0,90.0,4.0,0.0
22711,67.0,0.0,90.0,4.0,0.0
22712,60.0,1.0,15.0,11.0,0.0
22713,48.0,1.0,90.0,12.0,0.0
22714,64.0,1.0,15.0,3.0,0.0
22715,55.0,0.0,90.0,6.0,0.0
22716,60.0,0.0,90.0,3.0,0.0
22717,36.0,28.0,90.0,13.0,0.0
22718,76.0,0.0,20.0,0.0,0.0
22719,88.0,0.0,20.0,0.0,0.0
22720,88.0,1.0,20.0,8.0,0.0
22721,79.0,1.0,20.0,5.0,0.0
22722,67.0,0.0,20.0,5.0,0.0
22723,88.0,0.0,20.0,1.0,0.0
22724,76.0,0.0,20.0,1.0,0.0
22725,67.0,0.0,20.0,4.0,0.0
22726,67.0,0.0,20.0,10.0,0.0
22727,55.0,0.0,20.0,4.0,0.0
22728,76.0,0.0,20.0,2.0,0.0
22729,64.0,2.0,20.0,2.0,0.0
22730,76.0,0.0,20.0,10.0,0.0
22731,60.0,1.0,20.0,11.0,0.0
22732,48.0,1.0,20.0,12.0,0.0
22733,55.0,1.0,20.0,6.0,0.0
22734,60.0,0.0,20.0,3.0,0.0
22735,64.0,0.0,20.0,3.0,0.0
22736,36.0,119.0,20.0,13.0,0.0
22737,76.0,0.0,120.0,0.0,0.0
22738,79.0,0.0,120.0,1.0,0.0
22739,88.0,0.0,120.0,1.0,0.0
22740,67.0,0.0,120.0,5.0,0.0
22741,76.0,0.0,120.0,10.0,0.0
22742,55.0,0.0,120.0,4.0,0.0
22743,48.0,1.0,120.0,12.0,0.0
22744,88.0,0.0,15.0,8.0,0.0
22745,88.0,1.0,15.0,0.0,0.0
22746,76.0,0.0,90.0,0.0,0.0
22747,79.0,1.0,15.0,5.0,0.0
22748,67.0,0.0,90.0,5.0,0.0
22749,79.0,1.0,90.0,1.0,0.0
22750,88.0,0.0,90.0,1.0,0.0
22751,76.0,0.0,90.0,10.0,0.0
22752,67.0,0.0,15.0,10.0,0.0
22753,76.0,2.0,15.0,2.0,0.0
22754,64.0,0.0,15.0,2.0,0.0
22755,67.0,0.0,15.0,4.0,0.0
22756,55.0,0.0,90.0,4.0,0.0
22757,60.0,1.0,15.0,11.0,0.0
22758,48.0,1.0,90.0,12.0,0.0
22759,60.0,0.0,15.0,3.0,0.0
22760,64.0,0.0,15.0,3.0,0.0
22761,55.0,1.0,15.0,6.0,0.0
22762,36.0,72.0,15.0,13.0,0.0
22763,88.0,0.0,20.0,0.0,0.0
22764,76.0,1.0,20.0,0.0,0.0
22765,88.0,0.0,20.0,8.0,0.0
22766,67.0,0.0,20.0,5.0,0.0
22767,88.0,1.0,20.0,1.0,0.0
22768,79.0,0.0,20.0,5.0,0.0
22769,79.0,0.0,20.0,1.0,0.0
22770,55.0,2.0,20.0,4.0,0.0
22771,76.0,0.0,20.0,2.0,0.0
22772,76.0,0.0,20.0,10.0,0.0
22773,67.0,0.0,20.0,4.0,0.0
22774,64.0,0.0,20.0,2.0,0.0
22775,67.0,0.0,20.0,10.0,0.0
22776,60.0,1.0,20.0,11.0,0.0
22777,48.0,1.0,20.0,12.0,0.0
22778,60.0,1.0,20.0,3.0,0.0
22779,64.0,0.0,20.0,3.0,0.0
22780,55.0,0.0,20.0,6.0,0.0
22781,36.0,119.0,20.0,13.0,0.0
22782,88.0,0.0,120.0,0.0,0.0
22783,79.0,0.0,120.0,5.0,0.0
22784,67.0,0.0,120.0,5.0,0.0
22785,88.0,0.0,120.0,1.0,0.0
22786,76.0,0.0,120.0,2.0,0.0
22787,67.0,0.0,120.0,4.0,0.0
22788,67.0,0.0,120.0,10.0,0.0
22789,48.0,1.0,120.0,12.0,0.0
22790,64.0,0.0,120.0,3.0,0.0
22791,55.0,0.0,120.0,6.0,0.0
22792,36.0,72.0,120.0,13.0,0.0
22793,88.0,0.0,15.0,8.0,0.0
22794,88.0,0.0,90.0,0.0,0.0
22795,76.0,1.0,15.0,0.0,0.0
22796,67.0,0.0,90.0,5.0,0.0
22797,79.0,1.0,90.0,5.0,0.0
22798,79.0,1.0,15.0,1.0,0.0
22799,88.0,0.0,90.0,1.0,0.0
22800,76.0,0.0,15.0,10.0,0.0
22801,55.0,0.0,15.0,4.0,0.0
22802,67.0,0.0,90.0,4.0,0.0
22803,67.0,0.0,90.0,10.0,0.0
22804,64.0,2.0,15.0,2.0,0.0
22805,76.0,0.0,90.0,2.0,0.0
22806,60.0,1.0,15.0,11.0,0.0
22807,48.0,1.0,90.0,12.0,0.0
22808,60.0,1.0,15.0,3.0,0.0
22809,55.0,1.0,90.0,6.0,0.0
22810,64.0,0.0,90.0,3.0,0.0
22811,36.0,28.0,90.0,13.0,0.0
22812,76.0,1.0,20.0,0.0,0.0
22813,88.0,0.0,20.0,0.0,0.0
22814,88.0,0.0,20.0,8.0,0.0
22815,67.0,0.0,20.0,5.0,0.0
22816,88.0,1.0,20.0,1.0,0.0
22817,79.0,0.0,20.0,1.0,0.0
22818,79.0,0.0,20.0,5.0,0.0
22819,67.0,0.0,20.0,10.0,0.0
22820,55.0,0.0,20.0,4.0,0.0
22821,76.0,0.0,20.0,10.0,0.0
22822,67.0,0.0,20.0,4.0,0.0
22823,64.0,2.0,20.0,2.0,0.0
22824,76.0,0.0,20.0,2.0,0.0
22825,60.0,1.0,20.0,11.0,0.0
22826,48.0,1.0,20.0,12.0,0.0
22827,55.0,1.0,20.0,6.0,0.0
22828,64.0,0.0,20.0,3.0,0.0
22829,60.0,0.0,20.0,3.0,0.0
22830,36.0,74.0,20.0,13.0,0.0
22831,88.0,0.0,360.0,0.0,0.0
22832,76.0,1.0,360.0,0.0,0.0
22833,72.0,6.0,120.0,8.0,0.0
22834,79.0,0.0,120.0,8.0,0.0
22835,88.0,0.0,360.0,8.0,0.0
22836,88.0,1.0,360.0,1.0,0.0
22837,79.0,0.0,360.0,1.0,0.0
22838,67.0,0.0,360.0,5.0,0.0
22839,79.0,0.0,360.0,5.0,0.0
22840,67.0,0.0,360.0,4.0,0.0
22841,55.0,0.0,360.0,4.0,0.0
22842,67.0,0.0,360.0,10.0,0.0
22843,76.0,2.0,360.0,2.0,0.0
22844,76.0,0.0,360.0,10.0,0.0
22845,64.0,0.0,360.0,2.0,0.0
22846,60.0,1.0,360.0,11.0,0.0
22847,48.0,1.0,360.0,12.0,0.0
22848,64.0,0.0,360.0,3.0,0.0
22849,55.0,9.0,120.0,6.0,0.0
22850,60.0,1.0,360.0,3.0,0.0
22851,36.0,8.0,360.0,13.0,0.0
22852,36.0,15.0,15.0,7.0,0.0
22853,40.0,15.0,15.0,7.0,0.0
22854,43.0,15.0,15.0,7.0,0.0
22855,48.0,0.0,15.0,7.0,0.0
22856,52.0,15.0,15.0,7.0,0.0
22857,55.0,15.0,15.0,7.0,0.0
22858,60.0,15.0,15.0,7.0,0.0
22859,64.0,15.0,15.0,7.0,0.0
22860,67.0,15.0,15.0,7.0,0.0
22861,72.0,15.0,15.0,7.0,0.0
22862,76.0,15.0,15.0,7.0,0.0
22863,79.0,15.0,15.0,7.0,0.0
22864,84.0,15.0,15.0,7.0,0.0
22865,88.0,15.0,15.0,7.0,0.0
22866,91.0,15.0,15.0,7.0,0.0
22867,96.0,45.0,15.0,7.0,0.0
22868,100.0,15.0,60.0,7.0,0.0
22869,90.0,2.0,15.0,8.0,0.0
22870,90.0,0.0,15.0,0.0,0.0
22871,67.0,1.0,90.0,5.0,0.0
22872,79.0,0.0,90.0,5.0,0.0
22873,66.0,0.0,15.0,2.0,0.0
22874,78.0,0.0,15.0,10.0,0.0
22875,67.0,0.0,90.0,4.0,0.0
22876,78.0,4.0,15.0,2.0,0.0
22877,55.0,2.0,90.0,4.0,0.0
22878,60.0,0.0,90.0,11.0,0.0
22879,48.0,1.0,90.0,12.0,0.0
22880,55.0,1.0,90.0,6.0,0.0
22881,66.0,9.0,15.0,3.0,0.0
22882,36.0,1.0,90.0,13.0,0.0
22883,88.0,2.0,15.0,0.0,0.0
22884,88.0,0.0,15.0,8.0,0.0
22885,76.0,0.0,15.0,10.0,0.0
22886,64.0,0.0,15.0,2.0,0.0
22887,76.0,4.0,15.0,2.0,0.0
22888,64.0,9.0,15.0,3.0,0.0
22889,87.0,2.0,15.0,8.0,0.0
22890,87.0,0.0,15.0,0.0,0.0
22891,75.0,0.0,15.0,10.0,0.0
22892,75.0,4.0,15.0,2.0,0.0
22893,63.0,0.0,15.0,2.0,0.0
22894,63.0,29.0,15.0,3.0,0.0
22895,88.0,0.0,30.0,0.0,0.0
22896,88.0,0.0,30.0,8.0,0.0
22897,64.0,1.0,30.0,2.0,0.0
22898,76.0,0.0,30.0,2.0,0.0
22899,76.0,0.0,30.0,10.0,0.0
22900,64.0,27.0,30.0,3.0,0.0
22901,90.0,0.0,20.0,0.0,0.0
22902,90.0,1.0,20.0,8.0,0.0
22903,79.0,0.0,20.0,5.0,0.0
22904,67.0,1.0,20.0,5.0,0.0
22905,66.0,0.0,20.0,2.0,0.0
22906,78.0,0.0,20.0,10.0,0.0
22907,55.0,0.0,20.0,4.0,0.0
22908,67.0,2.0,20.0,4.0,0.0
22909,78.0,0.0,20.0,2.0,0.0
22910,60.0,1.0,20.0,11.0,0.0
22911,48.0,1.0,20.0,12.0,0.0
22912,66.0,0.0,20.0,3.0,0.0
22913,55.0,1.0,20.0,6.0,0.0
22914,36.0,125.0,20.0,13.0,0.0
22915,91.0,0.0,330.0,8.0,0.0
22916,88.0,0.0,330.0,0.0,0.0
22917,91.0,1.0,330.0,0.0,0.0
22918,79.0,0.0,330.0,5.0,0.0
22919,67.0,0.0,330.0,5.0,0.0
22920,79.0,0.0,330.0,1.0,0.0
22921,88.0,1.0,330.0,1.0,0.0
22922,64.0,2.0,330.0,2.0,0.0
22923,76.0,0.0,330.0,2.0,0.0
22924,79.0,0.0,330.0,10.0,0.0
22925,69.0,0.0,330.0,10.0,0.0
22926,55.0,0.0,330.0,4.0,0.0
22927,67.0,0.0,330.0,4.0,0.0
22928,61.0,1.0,330.0,11.0,0.0
22929,49.0,1.0,330.0,12.0,0.0
22930,55.0,204.0,120.0,6.0,0.0
22931,64.0,0.0,330.0,3.0,0.0
22932,61.0,1.0,330.0,3.0,0.0
22933,37.0,102.0,330.0,13.0,0.0
22934,88.0,0.0,90.0,0.0,0.0
22935,91.0,0.0,90.0,0.0,0.0
22936,91.0,1.0,90.0,8.0,0.0
22937,88.0,0.0,90.0,1.0,0.0
22938,79.0,0.0,90.0,1.0,0.0
22939,67.0,0.0,90.0,5.0,0.0
22940,79.0,1.0,90.0,5.0,0.0
22941,64.0,0.0,90.0,2.0,0.0
22942,79.0,2.0,90.0,10.0,0.0
22943,76.0,0.0,90.0,2.0,0.0
22944,88.0,0.0,90.0,10.0,0.0
22945,67.0,0.0,90.0,4.0,0.0
22946,55.0,0.0,90.0,4.0,0.0
22947,61.0,0.0,90.0,11.0,0.0
22948,69.0,1.0,90.0,11.0,0.0
22949,49.0,1.0,90.0,12.0,0.0
22950,55.0,0.0,90.0,6.0,0.0
22951,61.0,0.0,90.0,3.0,0.0
22952,64.0,1.0,90.0,3.0,0.0
22953,37.0,28.0,90.0,13.0,0.0
22954,91.0,1.0,20.0,0.0,0.0
22955,91.0,0.0,20.0,8.0,0.0
22956,88.0,0.0,20.0,0.0,0.0
22957,79.0,1.0,20.0,5.0,0.0
22958,88.0,0.0,20.0,1.0,0.0
22959,79.0,0.0,20.0,1.0,0.0
22960,67.0,0.0,20.0,5.0,0.0
22961,79.0,0.0,20.0,10.0,0.0
22962,64.0,0.0,20.0,2.0,0.0
22963,76.0,2.0,20.0,2.0,0.0
22964,67.0,0.0,20.0,4.0,0.0
22965,88.0,0.0,20.0,10.0,0.0
22966,55.0,0.0,20.0,4.0,0.0
22967,61.0,1.0,20.0,11.0,0.0
22968,69.0,0.0,20.0,11.0,0.0
22969,49.0,1.0,20.0,12.0,0.0
22970,61.0,1.0,20.0,3.0,0.0
22971,64.0,0.0,20.0,3.0,0.0
22972,55.0,0.0,20.0,6.0,0.0
22973,37.0,119.0,20.0,13.0,0.0
22974,91.0,0.0,120.0,0.0,0.0
22975,91.0,0.0,120.0,8.0,0.0
22976,79.0,0.0,120.0,5.0,0.0
22977,88.0,0.0,120.0,1.0,0.0
22978,79.0,0.0,120.0,1.0,0.0
22979,76.0,0.0,120.0,2.0,0.0
22980,64.0,0.0,120.0,2.0,0.0
22981,79.0,0.0,120.0,10.0,0.0
22982,61.0,0.0,120.0,11.0,0.0
22983,69.0,1.0,120.0,11.0,0.0
22984,49.0,1.0,120.0,12.0,0.0
22985,64.0,0.0,120.0,3.0,0.0
22986,91.0,0.0,90.0,0.0,0.0
22987,88.0,1.0,15.0,0.0,0.0
22988,91.0,0.0,90.0,8.0,0.0
22989,88.0,0.0,90.0,1.0,0.0
22990,79.0,1.0,90.0,1.0,0.0
22991,67.0,1.0,15.0,5.0,0.0
22992,79.0,0.0,90.0,5.0,0.0
22993,76.0,2.0,90.0,2.0,0.0
22994,67.0,0.0,15.0,4.0,0.0
22995,64.0,0.0,90.0,2.0,0.0
22996,88.0,2.0,15.0,10.0,0.0
22997,55.0,0.0,15.0,4.0,0.0
22998,79.0,0.0,90.0,10.0,0.0
22999,61.0,0.0,90.0,11.0,0.0
23000,69.0,1.0,90.0,11.0,0.0
23001,49.0,1.0,90.0,12.0,0.0
23002,61.0,0.0,15.0,3.0,0.0
23003,64.0,1.0,90.0,3.0,0.0
23004,55.0,1.0,15.0,6.0,0.0
23005,37.0,72.0,15.0,13.0,0.0
23006,91.0,0.0,20.0,8.0,0.0
23007,91.0,1.0,20.0,0.0,0.0
23008,88.0,0.0,20.0,0.0,0.0
23009,79.0,1.0,20.0,1.0,0.0
23010,88.0,0.0,20.0,1.0,0.0
23011,79.0,0.0,20.0,5.0,0.0
23012,67.0,0.0,20.0,5.0,0.0
23013,55.0,0.0,20.0,4.0,0.0
23014,79.0,0.0,20.0,10.0,0.0
23015,88.0,0.0,20.0,10.0,0.0
23016,76.0,2.0,20.0,2.0,0.0
23017,67.0,0.0,20.0,4.0,0.0
23018,64.0,0.0,20.0,2.0,0.0
23019,61.0,0.0,20.0,11.0,0.0
23020,69.0,1.0,20.0,11.0,0.0
23021,49.0,1.0,20.0,12.0,0.0
23022,61.0,0.0,20.0,3.0,0.0
23023,64.0,0.0,20.0,3.0,0.0
23024,55.0,1.0,20.0,6.0,0.0
23025,37.0,119.0,20.0,13.0,0.0
23026,91.0,1.0,120.0,8.0,0.0
23027,88.0,0.0,120.0,0.0,0.0
23028,91.0,0.0,120.0,0.0,0.0
23029,88.0,0.0,120.0,1.0,0.0
23030,79.0,0.0,120.0,1.0,0.0
23031,79.0,0.0,120.0,5.0,0.0
23032,79.0,0.0,120.0,10.0,0.0
23033,55.0,0.0,120.0,4.0,0.0
23034,61.0,1.0,120.0,11.0,0.0
23035,49.0,1.0,120.0,12.0,0.0
23036,64.0,0.0,120.0,3.0,0.0
23037,37.0,72.0,120.0,13.0,0.0
23038,91.0,0.0,90.0,0.0,0.0
23039,88.0,1.0,90.0,0.0,0.0
23040,91.0,0.0,90.0,8.0,0.0
23041,67.0,1.0,15.0,5.0,0.0
23042,79.0,1.0,90.0,1.0,0.0
23043,79.0,0.0,90.0,5.0,0.0
23044,88.0,0.0,90.0,1.0,0.0
23045,64.0,2.0,15.0,2.0,0.0
23046,76.0,0.0,15.0,2.0,0.0
23047,88.0,0.0,15.0,10.0,0.0
23048,67.0,0.0,15.0,4.0,0.0
23049,79.0,2.0,90.0,10.0,0.0
23050,55.0,0.0,90.0,4.0,0.0
23051,69.0,0.0,15.0,11.0,0.0
23052,61.0,0.0,90.0,11.0,0.0
23053,49.0,1.0,90.0,12.0,0.0
23054,55.0,0.0,15.0,6.0,0.0
23055,64.0,0.0,90.0,3.0,0.0
23056,61.0,1.0,15.0,3.0,0.0
23057,37.0,28.0,90.0,13.0,0.0
23058,91.0,0.0,20.0,0.0,0.0
23059,91.0,0.0,20.0,8.0,0.0
23060,88.0,1.0,20.0,0.0,0.0
23061,79.0,0.0,20.0,1.0,0.0
23062,88.0,0.0,20.0,1.0,0.0
23063,67.0,0.0,20.0,5.0,0.0
23064,79.0,1.0,20.0,5.0,0.0
23065,67.0,0.0,20.0,4.0,0.0
23066,55.0,2.0,20.0,4.0,0.0
23067,64.0,0.0,20.0,2.0,0.0
23068,79.0,0.0,20.0,10.0,0.0
23069,88.0,0.0,20.0,10.0,0.0
23070,76.0,0.0,20.0,2.0,0.0
23071,61.0,1.0,20.0,11.0,0.0
23072,69.0,0.0,20.0,11.0,0.0
23073,49.0,1.0,20.0,12.0,0.0
23074,55.0,1.0,20.0,6.0,0.0
23075,61.0,0.0,20.0,3.0,0.0
23076,64.0,0.0,20.0,3.0,0.0
23077,37.0,74.0,20.0,13.0,0.0
23078,91.0,0.0,360.0,0.0,0.0
23079,88.0,0.0,360.0,0.0,0.0
23080,91.0,1.0,360.0,8.0,0.0
23081,79.0,0.0,360.0,5.0,0.0
23082,67.0,0.0,360.0,5.0,0.0
23083,79.0,1.0,360.0,1.0,0.0
23084,88.0,0.0,360.0,1.0,0.0
23085,88.0,0.0,360.0,10.0,0.0
23086,79.0,0.0,360.0,10.0,0.0
23087,76.0,2.0,360.0,2.0,0.0
23088,55.0,0.0,360.0,4.0,0.0
23089,67.0,0.0,360.0,4.0,0.0
23090,64.0,0.0,360.0,2.0,0.0
23091,61.0,1.0,360.0,11.0,0.0
23092,69.0,0.0,360.0,11.0,0.0
23093,49.0,1.0,360.0,12.0,0.0
23094,55.0,9.0,120.0,6.0,0.0
23095,64.0,1.0,360.0,3.0,0.0
23096,61.0,0.0,360.0,3.0,0.0
23097,37.0,23.0,360.0,13.0,0.0
23098,37.0,10.0,15.0,7.0,0.0
23099,40.0,10.0,15.0,7.0,0.0
23100,43.0,10.0,15.0,7.0,0.0
23101,45.0,10.0,15.0,7.0,0.0
23102,49.0,10.0,15.0,7.0,0.0
23103,52.0,1.0,15.0,7.0,0.0
23104,55.0,10.0,15.0,7.0,0.0
23105,57.0,10.0,15.0,7.0,0.0
23106,61.0,10.0,15.0,7.0,0.0
23107,64.0,10.0,15.0,7.0,0.0
23108,67.0,10.0,15.0,7.0,0.0
23109,69.0,10.0,15.0,7.0,0.0
23110,73.0,10.0,15.0,7.0,0.0
23111,76.0,10.0,15.0,7.0,0.0
23112,79.0,10.0,15.0,7.0,0.0
23113,81.0,10.0,15.0,7.0,0.0
23114,85.0,10.0,15.0,7.0,0.0
23115,88.0,10.0,15.0,7.0,0.0
23116,91.0,10.0,15.0,7.0,0.0
23117,93.0,10.0,15.0,7.0,0.0
23118,97.0,10.0,15.0,7.0,0.0
23119,100.0,60.0,15.0,7.0,0.0
23120,103.0,0.0,60.0,7.0,0.0
23121,81.0,0.0,15.0,8.0,0.0
23122,93.0,2.0,15.0,0.0,0.0
23123,81.0,0.0,15.0,0.0,0.0
23124,76.0,1.0,90.0,1.0,0.0
23125,88.0,0.0,90.0,1.0,0.0
23126,67.0,0.0,90.0,5.0,0.0
23127,79.0,0.0,90.0,5.0,0.0
23128,79.0,0.0,90.0,10.0,0.0
23129,81.0,0.0,15.0,2.0,0.0
23130,69.0,13.0,15.0,2.0,0.0
23131,69.0,0.0,90.0,10.0,0.0
23132,67.0,0.0,90.0,4.0,0.0
23133,55.0,0.0,90.0,4.0,0.0
23134,61.0,1.0,90.0,11.0,0.0
23135,49.0,1.0,90.0,12.0,0.0
23136,61.0,0.0,90.0,3.0,0.0
23137,64.0,0.0,90.0,3.0,0.0
23138,55.0,1.0,90.0,6.0,0.0
23139,37.0,28.0,90.0,13.0,0.0
23140,79.0,2.0,15.0,0.0,0.0
23141,79.0,0.0,15.0,8.0,0.0
23142,91.0,0.0,15.0,0.0,0.0
23143,79.0,0.0,15.0,2.0,0.0
23144,67.0,13.0,15.0,2.0,0.0
23145,78.0,0.0,15.0,8.0,0.0
23146,78.0,2.0,15.0,0.0,0.0
23147,90.0,0.0,15.0,0.0,0.0
23148,66.0,0.0,15.0,2.0,0.0
23149,78.0,33.0,15.0,2.0,0.0
23150,79.0,0.0,30.0,0.0,0.0
23151,91.0,0.0,30.0,0.0,0.0
23152,79.0,2.0,30.0,8.0,0.0
23153,79.0,0.0,30.0,2.0,0.0
23154,67.0,0.0,30.0,2.0,0.0
23155,81.0,0.0,20.0,0.0,0.0
23156,93.0,0.0,20.0,0.0,0.0
23157,81.0,1.0,20.0,8.0,0.0
23158,79.0,0.0,20.0,5.0,0.0
23159,76.0,0.0,20.0,1.0,0.0
23160,88.0,1.0,20.0,1.0,0.0
23161,67.0,0.0,20.0,5.0,0.0
23162,69.0,0.0,20.0,10.0,0.0
23163,79.0,2.0,20.0,10.0,0.0
23164,81.0,0.0,20.0,2.0,0.0
23165,69.0,0.0,20.0,2.0,0.0
23166,67.0,0.0,20.0,4.0,0.0
23167,55.0,0.0,20.0,4.0,0.0
23168,61.0,1.0,20.0,11.0,0.0
23169,49.0,1.0,20.0,12.0,0.0
23170,64.0,1.0,20.0,3.0,0.0
23171,61.0,0.0,20.0,3.0,0.0
23172,55.0,0.0,20.0,6.0,0.0
23173,37.0,119.0,20.0,13.0,0.0
23174,91.0,1.0,330.0,0.0,0.0
23175,67.0,0.0,120.0,8.0,0.0
23176,95.0,0.0,330.0,0.0,0.0
23177,59.0,6.0,120.0,8.0,0.0
23178,74.0,0.0,120.0,8.0,0.0
23179,83.0,0.0,330.0,8.0,0.0
23180,86.0,1.0,330.0,1.0,0.0
23181,79.0,0.0,330.0,1.0,0.0
23182,67.0,0.0,330.0,5.0,0.0
23183,79.0,0.0,330.0,5.0,0.0
23184,55.0,0.0,330.0,4.0,0.0
23185,67.0,0.0,330.0,4.0,0.0
23186,71.0,2.0,330.0,2.0,0.0
23187,71.0,0.0,330.0,10.0,0.0
23188,79.0,0.0,330.0,2.0,0.0
23189,79.0,0.0,330.0,10.0,0.0
23190,62.0,1.0,330.0,11.0,0.0
23191,50.0,1.0,330.0,12.0,0.0
23192,62.0,0.0,330.0,3.0,0.0
23193,67.0,1.0,330.0,3.0,0.0
23194,55.0,204.0,120.0,6.0,0.0
23195,38.0,102.0,330.0,13.0,0.0
23196,83.0,0.0,90.0,8.0,0.0
23197,95.0,1.0,90.0,0.0,0.0
23198,91.0,0.0,90.0,0.0,0.0
23199,86.0,0.0,90.0,1.0,0.0
23200,83.0,0.0,90.0,1.0,0.0
23201,67.0,0.0,90.0,5.0,0.0
23202,79.0,1.0,90.0,5.0,0.0
23203,71.0,2.0,90.0,10.0,0.0
23204,55.0,0.0,90.0,4.0,0.0
23205,67.0,0.0,90.0,4.0,0.0
23206,79.0,0.0,90.0,2.0,0.0
23207,71.0,0.0,90.0,2.0,0.0
23208,79.0,0.0,90.0,10.0,0.0
23209,62.0,1.0,90.0,11.0,0.0
23210,50.0,1.0,90.0,12.0,0.0
23211,55.0,0.0,90.0,6.0,0.0
23212,50.0,1.0,90.0,3.0,0.0
23213,62.0,0.0,90.0,3.0,0.0
23214,38.0,28.0,90.0,13.0,0.0
23215,91.0,1.0,20.0,0.0,0.0
23216,95.0,0.0,20.0,0.0,0.0
23217,83.0,0.0,20.0,8.0,0.0
23218,67.0,1.0,20.0,5.0,0.0
23219,86.0,0.0,20.0,1.0,0.0
23220,83.0,0.0,20.0,1.0,0.0
23221,79.0,0.0,20.0,5.0,0.0
23222,67.0,0.0,20.0,4.0,0.0
23223,71.0,2.0,20.0,10.0,0.0
23224,79.0,0.0,20.0,10.0,0.0
23225,71.0,0.0,20.0,2.0,0.0
23226,55.0,0.0,20.0,4.0,0.0
23227,79.0,0.0,20.0,2.0,0.0
23228,62.0,1.0,20.0,11.0,0.0
23229,50.0,1.0,20.0,12.0,0.0
23230,55.0,1.0,20.0,6.0,0.0
23231,62.0,0.0,20.0,3.0,0.0
23232,50.0,0.0,20.0,3.0,0.0
23233,38.0,119.0,20.0,13.0,0.0
23234,95.0,1.0,120.0,0.0,0.0
23235,83.0,0.0,120.0,8.0,0.0
23236,67.0,0.0,120.0,5.0,0.0
23237,86.0,0.0,120.0,1.0,0.0
23238,79.0,2.0,120.0,2.0,0.0
23239,71.0,0.0,120.0,10.0,0.0
23240,55.0,0.0,120.0,4.0,0.0
23241,67.0,0.0,120.0,4.0,0.0
23242,79.0,0.0,120.0,10.0,0.0
23243,62.0,1.0,120.0,3.0,0.0
23244,55.0,0.0,120.0,6.0,0.0
23245,50.0,0.0,120.0,3.0,0.0
23246,38.0,72.0,120.0,13.0,0.0
23247,91.0,0.0,15.0,0.0,0.0
23248,83.0,0.0,90.0,8.0,0.0
23249,95.0,0.0,90.0,0.0,0.0
23250,79.0,0.0,15.0,5.0,0.0
23251,86.0,0.0,90.0,1.0,0.0
23252,83.0,1.0,15.0,1.0,0.0
23253,67.0,0.0,90.0,5.0,0.0
23254,79.0,2.0,90.0,10.0,0.0
23255,55.0,0.0,90.0,4.0,0.0
23256,71.0,0.0,90.0,10.0,0.0
23257,71.0,0.0,15.0,2.0,0.0
23258,79.0,0.0,90.0,2.0,0.0
23259,67.0,0.0,90.0,4.0,0.0
23260,62.0,1.0,15.0,11.0,0.0
23261,50.0,1.0,15.0,12.0,0.0
23262,50.0,0.0,90.0,3.0,0.0
23263,55.0,1.0,90.0,6.0,0.0
23264,62.0,0.0,90.0,3.0,0.0
23265,38.0,28.0,90.0,13.0,0.0
23266,91.0,0.0,20.0,0.0,0.0
23267,95.0,1.0,20.0,0.0,0.0
23268,83.0,0.0,20.0,8.0,0.0
23269,67.0,0.0,20.0,5.0,0.0
23270,83.0,0.0,20.0,1.0,0.0
23271,79.0,1.0,20.0,5.0,0.0
23272,86.0,0.0,20.0,1.0,0.0
23273,79.0,0.0,20.0,2.0,0.0
23274,71.0,0.0,20.0,10.0,0.0
23275,67.0,0.0,20.0,4.0,0.0
23276,55.0,2.0,20.0,4.0,0.0
23277,79.0,0.0,20.0,10.0,0.0
23278,71.0,0.0,20.0,2.0,0.0
23279,62.0,1.0,20.0,11.0,0.0
23280,50.0,1.0,20.0,12.0,0.0
23281,55.0,0.0,20.0,6.0,0.0
23282,50.0,1.0,20.0,3.0,0.0
23283,62.0,0.0,20.0,3.0,0.0
23284,38.0,119.0,20.0,13.0,0.0
23285,91.0,0.0,120.0,0.0,0.0
23286,79.0,0.0,120.0,5.0,0.0
23287,67.0,1.0,120.0,5.0,0.0
23288,71.0,0.0,120.0,10.0,0.0
23289,79.0,0.0,120.0,10.0,0.0
23290,55.0,0.0,120.0,4.0,0.0
23291,67.0,0.0,120.0,4.0,0.0
23292,62.0,1.0,120.0,11.0,0.0
23293,50.0,0.0,120.0,3.0,0.0
23294,38.0,72.0,120.0,13.0,0.0
23295,95.0,0.0,15.0,0.0,0.0
23296,91.0,0.0,90.0,0.0,0.0
23297,83.0,1.0,15.0,8.0,0.0
23298,83.0,0.0,15.0,1.0,0.0
23299,86.0,0.0,15.0,1.0,0.0
23300,79.0,0.0,90.0,5.0,0.0
23301,67.0,0.0,90.0,5.0,0.0
23302,71.0,0.0,90.0,10.0,0.0
23303,55.0,0.0,90.0,4.0,0.0
23304,71.0,0.0,15.0,2.0,0.0
23305,79.0,2.0,15.0,2.0,0.0
23306,79.0,0.0,90.0,10.0,0.0
23307,67.0,0.0,90.0,4.0,0.0
23308,62.0,1.0,90.0,11.0,0.0
23309,50.0,1.0,15.0,12.0,0.0
23310,55.0,0.0,15.0,6.0,0.0
23311,62.0,1.0,15.0,3.0,0.0
23312,50.0,1.0,90.0,3.0,0.0
23313,38.0,28.0,90.0,13.0,0.0
23314,83.0,0.0,20.0,8.0,0.0
23315,91.0,1.0,20.0,0.0,0.0
23316,95.0,0.0,20.0,0.0,0.0
23317,79.0,0.0,20.0,5.0,0.0
23318,67.0,0.0,20.0,5.0,0.0
23319,86.0,1.0,20.0,1.0,0.0
23320,83.0,0.0,20.0,1.0,0.0
23321,71.0,0.0,20.0,10.0,0.0
23322,55.0,2.0,20.0,4.0,0.0
23323,67.0,0.0,20.0,4.0,0.0
23324,79.0,0.0,20.0,10.0,0.0
23325,71.0,0.0,20.0,2.0,0.0
23326,79.0,0.0,20.0,2.0,0.0
23327,62.0,1.0,20.0,11.0,0.0
23328,50.0,1.0,20.0,12.0,0.0
23329,62.0,0.0,20.0,3.0,0.0
23330,50.0,1.0,20.0,3.0,0.0
23331,55.0,0.0,20.0,6.0,0.0
23332,38.0,125.0,20.0,13.0,0.0
23333,83.0,1.0,210.0,8.0,0.0
23334,95.0,0.0,210.0,0.0,0.0
23335,91.0,0.0,210.0,0.0,0.0
23336,79.0,1.0,210.0,5.0,0.0
23337,67.0,0.0,210.0,5.0,0.0
23338,83.0,0.0,210.0,1.0,0.0
23339,86.0,0.0,210.0,1.0,0.0
23340,79.0,0.0,210.0,10.0,0.0
23341,79.0,0.0,210.0,2.0,0.0
23342,71.0,2.0,210.0,2.0,0.0
23343,71.0,0.0,210.0,10.0,0.0
23344,55.0,0.0,210.0,4.0,0.0
23345,67.0,0.0,210.0,4.0,0.0
23346,62.0,1.0,210.0,11.0,0.0
23347,50.0,1.0,210.0,12.0,0.0
23348,62.0,0.0,210.0,3.0,0.0
23349,50.0,1.0,210.0,3.0,0.0
23350,55.0,84.0,120.0,6.0,0.0
23351,38.0,68.0,210.0,13.0,0.0
23352,62.0,0.0,60.0,7.0,0.0
23353,50.0,35.0,60.0,7.0,0.0
23354,52.0,20.0,20.0,7.0,0.0
23355,64.0,0.0,20.0,7.0,0.0
23356,62.0,0.0,20.0,7.0,0.0
23357,50.0,20.0,20.0,7.0,0.0
23358,61.0,45.0,20.0,7.0,0.0
23359,49.0,0.0,20.0,7.0,0.0
23360,50.0,60.0,60.0,7.0,0.0
23361,62.0,0.0,60.0,7.0,0.0
23362,51.0,60.0,60.0,7.0,0.0
23363,63.0,0.0,60.0,7.0,0.0
23364,52.0,35.0,60.0,7.0,0.0
23365,64.0,0.0,60.0,7.0,0.0
23366,54.0,0.0,20.0,7.0,0.0
23367,66.0,20.0,20.0,7.0,0.0
23368,64.0,20.0,20.0,7.0,0.0
23369,52.0,0.0,20.0,7.0,0.0
23370,51.0,0.0,20.0,7.0,0.0
23371,63.0,45.0,20.0,7.0,0.0
23372,52.0,60.0,60.0,7.0,0.0
23373,64.0,0.0,60.0,7.0,0.0
23374,53.0,60.0,60.0,7.0,0.0
23375,65.0,0.0,60.0,7.0,0.0
23376,54.0,0.0,60.0,7.0,0.0
23377,66.0,35.0,60.0,7.0,0.0
23378,55.0,20.0,20.0,7.0,0.0
23379,67.0,0.0,20.0,7.0,0.0
23380,54.0,20.0,20.0,7.0,0.0
23381,66.0,0.0,20.0,7.0,0.0
23382,53.0,0.0,20.0,7.0,0.0
23383,65.0,45.0,20.0,7.0,0.0
23384,66.0,0.0,60.0,7.0,0.0
23385,54.0,60.0,60.0,7.0,0.0
23386,54.0,60.0,60.0,7.0,0.0
23387,66.0,0.0,60.0,7.0,0.0
23388,55.0,35.0,60.0,7.0,0.0
23389,67.0,0.0,60.0,7.0,0.0
23390,69.0,0.0,20.0,7.0,0.0
23391,57.0,20.0,20.0,7.0,0.0
23392,55.0,20.0,20.0,7.0,0.0
23393,67.0,0.0,20.0,7.0,0.0
23394,54.0,45.0,20.0,7.0,0.0
23395,66.0,0.0,20.0,7.0,0.0
23396,55.0,60.0,60.0,7.0,0.0
23397,67.0,0.0,60.0,7.0,0.0
23398,56.0,60.0,60.0,7.0,0.0
23399,68.0,0.0,60.0,7.0,0.0
23400,57.0,0.0,60.0,7.0,0.0
23401,69.0,35.0,60.0,7.0,0.0
23402,71.0,0.0,20.0,7.0,0.0
23403,59.0,20.0,20.0,7.0,0.0
23404,57.0,20.0,20.0,7.0,0.0
23405,69.0,0.0,20.0,7.0,0.0
23406,56.0,45.0,20.0,7.0,0.0
23407,68.0,0.0,20.0,7.0,0.0
23408,57.0,60.0,60.0,7.0,0.0
23409,69.0,0.0,60.0,7.0,0.0
23410,58.0,45.0,60.0,7.0,0.0
23411,70.0,0.0,60.0,7.0,0.0
23412,59.0,15.0,60.0,7.0,0.0
23413,71.0,15.0,30.0,7.0,0.0
23414,70.0,30.0,30.0,7.0,0.0
23415,72.0,15.0,30.0,7.0,0.0
23416,60.0,15.0,60.0,7.0,0.0
23417,71.0,30.0,30.0,7.0,0.0
23418,73.0,15.0,30.0,7.0,0.0
23419,61.0,15.0,60.0,7.0,0.0
23420,72.0,30.0,30.0,7.0,0.0
23421,62.0,15.0,60.0,7.0,0.0
23422,74.0,15.0,30.0,7.0,0.0
23423,73.0,30.0,30.0,7.0,0.0
23424,75.0,15.0,30.0,7.0,0.0
23425,63.0,15.0,60.0,7.0,0.0
23426,74.0,30.0,30.0,7.0,0.0
23427,64.0,15.0,60.0,7.0,0.0
23428,76.0,15.0,30.0,7.0,0.0
23429,75.0,30.0,30.0,7.0,0.0
23430,77.0,15.0,30.0,7.0,0.0
23431,65.0,15.0,60.0,7.0,0.0
23432,76.0,30.0,30.0,7.0,0.0
23433,78.0,15.0,30.0,7.0,0.0
23434,66.0,15.0,60.0,7.0,0.0
23435,77.0,30.0,30.0,7.0,0.0
23436,79.0,15.0,30.0,7.0,0.0
23437,67.0,15.0,60.0,7.0,0.0
23438,78.0,30.0,30.0,7.0,0.0
23439,80.0,15.0,30.0,7.0,0.0
23440,68.0,15.0,60.0,7.0,0.0
23441,79.0,30.0,30.0,7.0,0.0
23442,81.0,15.0,30.0,7.0,0.0
23443,69.0,15.0,60.0,7.0,0.0
23444,80.0,30.0,30.0,7.0,0.0
23445,70.0,15.0,60.0,7.0,0.0
23446,82.0,15.0,30.0,7.0,0.0
23447,81.0,30.0,30.0,7.0,0.0
23448,83.0,15.0,30.0,7.0,0.0
23449,71.0,15.0,60.0,7.0,0.0
23450,82.0,30.0,30.0,7.0,0.0
23451,84.0,15.0,30.0,7.0,0.0
23452,72.0,15.0,60.0,7.0,0.0
23453,83.0,30.0,30.0,7.0,0.0
23454,85.0,15.0,30.0,7.0,0.0
23455,73.0,15.0,60.0,7.0,0.0
23456,84.0,30.0,30.0,7.0,0.0
23457,86.0,15.0,30.0,7.0,0.0
23458,74.0,15.0,60.0,7.0,0.0
23459,85.0,30.0,30.0,7.0,0.0
23460,87.0,30.0,30.0,7.0,0.0
23461,75.0,0.0,60.0,7.0,0.0
23462,86.0,30.0,30.0,7.0,0.0
23463,88.0,30.0,30.0,7.0,0.0
23464,76.0,30.0,60.0,7.0,0.0
23465,87.0,0.0,30.0,7.0,0.0
23466,77.0,30.0,60.0,7.0,0.0
23467,89.0,30.0,30.0,7.0,0.0
23468,88.0,0.0,30.0,7.0,0.0
23469,78.0,30.0,60.0,7.0,0.0
23470,90.0,30.0,30.0,7.0,0.0
23471,89.0,0.0,30.0,7.0,0.0
23472,91.0,30.0,30.0,7.0,0.0
23473,79.0,30.0,60.0,7.0,0.0
23474,90.0,0.0,30.0,7.0,0.0
23475,80.0,0.0,60.0,7.0,0.0
23476,92.0,30.0,30.0,7.0,0.0
23477,91.0,30.0,30.0,7.0,0.0
23478,81.0,30.0,60.0,7.0,0.0
23479,93.0,30.0,30.0,7.0,0.0
23480,92.0,0.0,30.0,7.0,0.0
23481,94.0,30.0,30.0,7.0,0.0
23482,82.0,30.0,60.0,7.0,0.0
23483,93.0,0.0,30.0,7.0,0.0
23484,95.0,30.0,30.0,7.0,0.0
23485,83.0,30.0,60.0,7.0,0.0
23486,94.0,0.0,30.0,7.0,0.0
23487,96.0,30.0,30.0,7.0,0.0
23488,84.0,30.0,60.0,7.0,0.0
23489,95.0,0.0,30.0,7.0,0.0
23490,97.0,30.0,30.0,7.0,0.0
23491,85.0,30.0,60.0,7.0,0.0
23492,96.0,0.0,30.0,7.0,0.0
23493,86.0,30.0,60.0,7.0,0.0
23494,98.0,30.0,30.0,7.0,0.0
23495,97.0,0.0,30.0,7.0,0.0
23496,99.0,30.0,30.0,7.0,0.0
23497,87.0,30.0,60.0,7.0,0.0
23498,98.0,0.0,30.0,7.0,0.0
23499,100.0,30.0,30.0,7.0,0.0
23500,88.0,20.0,60.0,7.0,0.0
23501,99.0,0.0,30.0,7.0,0.0
23502,101.0,20.0,20.0,7.0,0.0
23503,89.0,20.0,60.0,7.0,0.0
23504,100.0,20.0,20.0,7.0,0.0
23505,102.0,0.0,20.0,7.0,0.0
23506,101.0,20.0,20.0,7.0,0.0
23507,90.0,0.0,60.0,7.0,0.0
23508,103.0,20.0,20.0,7.0,0.0
23509,102.0,20.0,20.0,7.0,0.0
23510,91.0,0.0,60.0,7.0,0.0
23511,105.0,20.0,20.0,7.0,0.0
23512,103.0,20.0,20.0,7.0,0.0
23513,102.0,20.0,20.0,7.0,0.0
23514,86.0,20.0,60.0,7.0,0.0
23515,100.0,20.0,20.0,7.0,0.0
23516,98.0,20.0,20.0,7.0,0.0
23517,96.0,0.0,20.0,7.0,0.0
23518,95.0,20.0,20.0,7.0,0.0
23519,83.0,20.0,60.0,7.0,0.0
23520,93.0,20.0,20.0,7.0,0.0
23521,91.0,0.0,20.0,7.0,0.0
23522,79.0,20.0,60.0,7.0,0.0
23523,90.0,20.0,20.0,7.0,0.0
23524,88.0,20.0,20.0,7.0,0.0
23525,86.0,0.0,20.0,7.0,0.0
23526,84.0,20.0,20.0,7.0,0.0
23527,74.0,20.0,60.0,7.0,0.0
23528,83.0,20.0,20.0,7.0,0.0
23529,81.0,0.0,20.0,7.0,0.0
23530,79.0,20.0,20.0,7.0,0.0
23531,71.0,0.0,60.0,7.0,0.0
23532,78.0,20.0,20.0,7.0,0.0
23533,76.0,24.0,20.0,7.0,0.0
23534,74.0,6.0,20.0,7.0,0.0
23535,67.0,18.0,30.0,7.0,0.0
23536,72.0,12.0,20.0,7.0,0.0
23537,62.0,12.0,30.0,7.0,0.0
23538,71.0,18.0,20.0,7.0,0.0
23539,59.0,6.0,30.0,7.0,0.0
23540,69.0,24.0,20.0,7.0,0.0
23541,55.0,20.0,30.0,7.0,0.0
23542,67.0,0.0,20.0,7.0,0.0
23543,54.0,0.0,120.0,7.0,0.0
23544,57.0,0.0,120.0,7.0,0.0
23545,60.0,20.0,120.0,7.0,0.0
23546,71.0,20.0,20.0,7.0,0.0
23547,50.0,0.0,120.0,7.0,0.0
23548,69.0,20.0,20.0,7.0,0.0
23549,71.0,20.0,20.0,7.0,0.0
23550,69.0,20.0,20.0,7.0,0.0
23551,71.0,20.0,20.0,7.0,0.0
23552,69.0,0.0,20.0,7.0,0.0
23553,83.0,20.0,20.0,7.0,0.0
23554,81.0,20.0,20.0,7.0,0.0
23555,83.0,20.0,20.0,7.0,0.0
23556,81.0,20.0,20.0,7.0,0.0
23557,83.0,20.0,20.0,7.0,0.0
23558,81.0,20.0,20.0,7.0,0.0
23559,83.0,20.0,20.0,7.0,0.0
23560,81.0,20.0,20.0,7.0,0.0
23561,83.0,20.0,20.0,7.0,0.0
23562,81.0,20.0,20.0,7.0,0.0
23563,83.0,20.0,20.0,7.0,0.0
23564,81.0,20.0,20.0,7.0,0.0
23565,83.0,20.0,20.0,7.0,0.0
23566,81.0,20.0,20.0,7.0,0.0
23567,83.0,30.0,20.0,7.0,0.0
23568,80.0,30.0,30.0,7.0,0.0
23569,81.0,20.0,30.0,7.0,0.0
23570,88.0,20.0,20.0,7.0,0.0
23571,86.0,20.0,20.0,7.0,0.0
23572,88.0,20.0,20.0,7.0,0.0
23573,86.0,20.0,20.0,7.0,0.0
23574,88.0,20.0,20.0,7.0,0.0
23575,86.0,20.0,20.0,7.0,0.0
23576,88.0,20.0,20.0,7.0,0.0
23577,86.0,20.0,20.0,7.0,0.0
23578,88.0,20.0,20.0,7.0,0.0
23579,86.0,20.0,20.0,7.0,0.0
23580,88.0,20.0,20.0,7.0,0.0
23581,86.0,20.0,20.0,7.0,0.0
23582,88.0,20.0,20.0,7.0,0.0
23583,86.0,20.0,20.0,7.0,0.0
23584,88.0,20.0,20.0,7.0,0.0
23585,86.0,20.0,20.0,7.0,0.0
23586,88.0,20.0,20.0,7.0,0.0
23587,86.0,20.0,20.0,7.0,0.0
23588,88.0,20.0,20.0,7.0,0.0
23589,86.0,20.0,20.0,7.0,0.0
23590,88.0,20.0,20.0,7.0,0.0
23591,86.0,20.0,20.0,7.0,0.0
23592,88.0,20.0,20.0,7.0,0.0
23593,86.0,20.0,20.0,7.0,0.0
23594,87.0,20.0,20.0,7.0,0.0
23595,86.0,20.0,20.0,7.0,0.0
23596,87.0,20.0,20.0,7.0,0.0
23597,86.0,20.0,20.0,7.0,0.0
23598,87.0,20.0,20.0,7.0,0.0
23599,86.0,20.0,20.0,7.0,0.0
23600,87.0,20.0,20.0,7.0,0.0
23601,86.0,20.0,20.0,7.0,0.0
23602,87.0,20.0,20.0,7.0,0.0
23603,86.0,20.0,20.0,7.0,0.0
23604,87.0,20.0,20.0,7.0,0.0
23605,86.0,20.0,20.0,7.0,0.0
23606,87.0,20.0,20.0,7.0,0.0
23607,86.0,20.0,20.0,7.0,0.0
23608,87.0,20.0,20.0,7.0,0.0
23609,86.0,20.0,20.0,7.0,0.0
23610,87.0,20.0,20.0,7.0,0.0
23611,86.0,20.0,20.0,7.0,0.0
23612,87.0,20.0,20.0,7.0,0.0
23613,86.0,20.0,20.0,7.0,0.0
23614,87.0,20.0,20.0,7.0,0.0
23615,86.0,20.0,20.0,7.0,0.0
23616,87.0,20.0,20.0,7.0,0.0
23617,86.0,20.0,20.0,7.0,0.0
23618,87.0,20.0,20.0,7.0,0.0
23619,86.0,20.0,20.0,7.0,0.0
23620,87.0,20.0,20.0,7.0,0.0
23621,86.0,20.0,20.0,7.0,0.0
23622,87.0,20.0,20.0,7.0,0.0
23623,86.0,20.0,20.0,7.0,0.0
23624,87.0,20.0,20.0,7.0,0.0
23625,86.0,20.0,20.0,7.0,0.0
23626,87.0,20.0,20.0,7.0,0.0
23627,86.0,20.0,20.0,7.0,0.0
23628,87.0,20.0,20.0,7.0,0.0
23629,86.0,20.0,20.0,7.0,0.0
23630,87.0,20.0,20.0,7.0,0.0
23631,86.0,20.0,20.0,7.0,0.0
23632,87.0,20.0,20.0,7.0,0.0
23633,86.0,20.0,20.0,7.0,0.0
23634,87.0,20.0,20.0,7.0,0.0
23635,86.0,20.0,20.0,7.0,0.0
23636,87.0,20.0,20.0,7.0,0.0
23637,86.0,20.0,20.0,7.0,0.0
23638,87.0,30.0,20.0,7.0,0.0
23639,85.0,30.0,30.0,7.0,0.0
23640,86.0,45.0,30.0,7.0,0.0
23641,91.0,0.0,60.0,7.0,0.0
23642,94.0,15.0,60.0,7.0,0.0
23643,82.0,45.0,60.0,7.0,0.0
23644,79.0,0.0,60.0,7.0,0.0
23645,86.0,60.0,60.0,7.0,0.0
23646,93.0,0.0,60.0,7.0,0.0
23647,74.0,45.0,60.0,7.0,0.0
23648,81.0,0.0,60.0,7.0,0.0
23649,90.0,15.0,60.0,7.0,0.0
23650,86.0,60.0,60.0,7.0,0.0
23651,79.0,45.0,60.0,7.0,0.0
23652,91.0,15.0,60.0,7.0,0.0
23653,86.0,60.0,60.0,7.0,0.0
23654,74.0,45.0,60.0,7.0,0.0
23655,81.0,0.0,60.0,7.0,0.0
23656,90.0,15.0,60.0,7.0,0.0
23657,93.0,0.0,60.0,7.0,0.0
23658,86.0,60.0,60.0,7.0,0.0
23659,79.0,0.0,60.0,7.0,0.0
23660,94.0,15.0,60.0,7.0,0.0
23661,91.0,0.0,60.0,7.0,0.0
23662,82.0,45.0,60.0,7.0,0.0
23663,86.0,60.0,60.0,7.0,0.0
23664,93.0,15.0,60.0,7.0,0.0
23665,74.0,0.0,60.0,7.0,0.0
23666,81.0,45.0,60.0,7.0,0.0
23667,90.0,0.0,60.0,7.0,0.0
23668,86.0,60.0,60.0,7.0,0.0
23669,79.0,0.0,60.0,7.0,0.0
23670,82.0,45.0,60.0,7.0,0.0
23671,94.0,15.0,60.0,7.0,0.0
23672,91.0,0.0,60.0,7.0,0.0
23673,86.0,60.0,60.0,7.0,0.0
23674,79.0,0.0,60.0,7.0,0.0
23675,82.0,45.0,60.0,7.0,0.0
23676,91.0,15.0,60.0,7.0,0.0
23677,94.0,0.0,60.0,7.0,0.0
23678,93.0,0.0,60.0,7.0,0.0
23679,90.0,15.0,60.0,7.0,0.0
23680,74.0,45.0,60.0,7.0,0.0
23681,81.0,0.0,60.0,7.0,0.0
23682,82.0,45.0,60.0,7.0,0.0
23683,79.0,0.0,60.0,7.0,0.0
23684,94.0,0.0,60.0,7.0,0.0
23685,91.0,15.0,60.0,7.0,0.0
23686,86.0,60.0,60.0,7.0,0.0
23687,74.0,0.0,60.0,7.0,0.0
23688,81.0,45.0,60.0,7.0,0.0
23689,90.0,0.0,60.0,7.0,0.0
23690,93.0,15.0,60.0,7.0,0.0
23691,86.0,60.0,60.0,7.0,0.0
23692,79.0,0.0,60.0,7.0,0.0
23693,82.0,45.0,60.0,7.0,0.0
23694,94.0,15.0,60.0,7.0,0.0
23695,91.0,0.0,60.0,7.0,0.0
23696,86.0,60.0,60.0,7.0,0.0
23697,84.0,45.0,60.0,7.0,0.0
23698,77.0,0.0,60.0,7.0,0.0
23699,96.0,15.0,60.0,7.0,0.0
23700,93.0,0.0,60.0,7.0,0.0
23701,89.0,60.0,60.0,7.0,0.0
23702,77.0,0.0,60.0,7.0,0.0
23703,96.0,15.0,60.0,7.0,0.0
23704,93.0,0.0,60.0,7.0,0.0
23705,84.0,45.0,60.0,7.0,0.0
23706,89.0,60.0,60.0,7.0,0.0
23707,87.0,60.0,60.0,7.0,0.0
23708,89.0,60.0,60.0,7.0,0.0
23709,84.0,45.0,60.0,7.0,0.0
23710,77.0,0.0,60.0,7.0,0.0
23711,96.0,0.0,60.0,7.0,0.0
23712,93.0,15.0,60.0,7.0,0.0
23713,89.0,60.0,60.0,7.0,0.0
23714,86.0,0.0,60.0,7.0,0.0
23715,82.0,45.0,60.0,7.0,0.0
23716,98.0,15.0,60.0,7.0,0.0
23717,94.0,0.0,60.0,7.0,0.0
23718,81.0,45.0,60.0,7.0,0.0
23719,84.0,0.0,60.0,7.0,0.0
23720,93.0,0.0,60.0,7.0,0.0
23721,96.0,15.0,60.0,7.0,0.0
23722,94.0,15.0,60.0,7.0,0.0
23723,98.0,0.0,60.0,7.0,0.0
23724,86.0,45.0,60.0,7.0,0.0
23725,82.0,0.0,60.0,7.0,0.0
23726,86.0,60.0,60.0,7.0,0.0
23727,96.0,15.0,60.0,7.0,0.0
23728,93.0,0.0,60.0,7.0,0.0
23729,81.0,45.0,60.0,7.0,0.0
23730,84.0,0.0,60.0,7.0,0.0
23731,86.0,60.0,60.0,7.0,0.0
23732,86.0,45.0,60.0,7.0,0.0
23733,94.0,0.0,60.0,7.0,0.0
23734,82.0,0.0,60.0,7.0,0.0
23735,98.0,15.0,60.0,7.0,0.0
23736,86.0,60.0,60.0,7.0,0.0
23737,96.0,15.0,60.0,7.0,0.0
23738,93.0,0.0,60.0,7.0,0.0
23739,84.0,45.0,60.0,7.0,0.0
23740,81.0,0.0,60.0,7.0,0.0
23741,91.0,15.0,60.0,7.0,0.0
23742,94.0,0.0,60.0,7.0,0.0
23743,79.0,45.0,60.0,7.0,0.0
23744,82.0,0.0,60.0,7.0,0.0
23745,84.0,45.0,60.0,7.0,0.0
23746,81.0,0.0,60.0,7.0,0.0
23747,93.0,0.0,60.0,7.0,0.0
23748,96.0,15.0,60.0,7.0,0.0
23749,86.0,60.0,60.0,7.0,0.0
23750,82.0,0.0,60.0,7.0,0.0
23751,94.0,0.0,60.0,7.0,0.0
23752,91.0,15.0,60.0,7.0,0.0
23753,79.0,45.0,60.0,7.0,0.0
23754,86.0,60.0,60.0,7.0,0.0
23755,84.0,0.0,60.0,7.0,0.0
23756,96.0,15.0,60.0,7.0,0.0
23757,93.0,0.0,60.0,7.0,0.0
23758,81.0,45.0,60.0,7.0,0.0
23759,86.0,60.0,60.0,7.0,0.0
23760,94.0,15.0,60.0,7.0,0.0
23761,79.0,0.0,60.0,7.0,0.0
23762,91.0,0.0,60.0,7.0,0.0
23763,82.0,45.0,60.0,7.0,0.0
23764,90.0,15.0,60.0,7.0,0.0
23765,81.0,45.0,60.0,7.0,0.0
23766,74.0,0.0,60.0,7.0,0.0
23767,93.0,0.0,60.0,7.0,0.0
23768,82.0,45.0,60.0,7.0,0.0
23769,94.0,15.0,60.0,7.0,0.0
23770,91.0,0.0,60.0,7.0,0.0
23771,79.0,0.0,60.0,7.0,0.0
23772,86.0,60.0,60.0,7.0,0.0
23773,93.0,15.0,60.0,7.0,0.0
23774,90.0,0.0,60.0,7.0,0.0
23775,74.0,0.0,60.0,7.0,0.0
23776,81.0,45.0,60.0,7.0,0.0
23777,86.0,60.0,60.0,7.0,0.0
23778,79.0,0.0,60.0,7.0,0.0
23779,91.0,0.0,60.0,7.0,0.0
23780,94.0,15.0,60.0,7.0,0.0
23781,82.0,45.0,60.0,7.0,0.0
23782,86.0,60.0,60.0,7.0,0.0
23783,93.0,0.0,60.0,7.0,0.0
23784,74.0,45.0,60.0,7.0,0.0
23785,81.0,0.0,60.0,7.0,0.0
23786,90.0,15.0,60.0,7.0,0.0
23787,86.0,60.0,60.0,7.0,0.0
23788,74.0,0.0,60.0,7.0,0.0
23789,81.0,45.0,60.0,7.0,0.0
23790,90.0,0.0,60.0,7.0,0.0
23791,93.0,15.0,60.0,7.0,0.0
23792,86.0,60.0,60.0,7.0,0.0
23793,85.0,60.0,60.0,7.0,0.0
23794,86.0,60.0,60.0,7.0,0.0
23795,90.0,0.0,60.0,7.0,0.0
23796,81.0,45.0,60.0,7.0,0.0
23797,74.0,0.0,60.0,7.0,0.0
23798,93.0,15.0,60.0,7.0,0.0
23799,86.0,60.0,60.0,7.0,0.0
23800,84.0,60.0,60.0,7.0,0.0
23801,69.0,0.0,120.0,4.0,0.0
23802,62.0,28.0,120.0,4.0,0.0
23803,86.0,17.0,60.0,7.0,0.0
23804,71.0,2.0,120.0,8.0,0.0
23805,83.0,30.0,30.0,7.0,0.0
23806,67.0,0.0,120.0,10.0,0.0
23807,67.0,0.0,120.0,4.0,0.0
23808,71.0,2.0,120.0,4.0,0.0
23809,62.0,1.0,120.0,11.0,0.0
23810,55.0,2.0,120.0,12.0,0.0
23811,43.0,23.0,120.0,13.0,0.0
23812,91.0,30.0,30.0,7.0,0.0
23813,86.0,30.0,30.0,7.0,0.0
23814,91.0,0.0,30.0,7.0,0.0
23815,95.0,30.0,30.0,7.0,0.0
23816,62.0,58.0,120.0,4.0,0.0
23817,69.0,0.0,120.0,4.0,0.0
23818,91.0,30.0,30.0,7.0,0.0
23819,86.0,30.0,30.0,7.0,0.0
23820,91.0,2.0,30.0,7.0,0.0
23821,59.0,28.0,120.0,4.0,0.0
23822,67.0,0.0,120.0,4.0,0.0
23823,79.0,30.0,30.0,7.0,0.0
23824,74.0,30.0,30.0,7.0,0.0
23825,79.0,2.0,30.0,7.0,0.0
23826,83.0,30.0,30.0,7.0,0.0
23827,62.0,28.0,120.0,4.0,0.0
23828,69.0,0.0,120.0,4.0,0.0
23829,79.0,30.0,30.0,7.0,0.0
23830,74.0,30.0,30.0,7.0,0.0
23831,79.0,2.0,30.0,7.0,0.0
23832,71.0,0.0,120.0,7.0,0.0
23833,71.0,0.0,120.0,8.0,0.0
23834,67.0,0.0,120.0,4.0,0.0
23835,71.0,2.0,120.0,4.0,0.0
23836,67.0,0.0,120.0,10.0,0.0
23837,62.0,1.0,120.0,11.0,0.0
23838,55.0,2.0,120.0,12.0,0.0
23839,43.0,23.0,120.0,13.0,0.0
23840,91.0,30.0,30.0,7.0,0.0
23841,86.0,30.0,30.0,7.0,0.0
23842,91.0,2.0,30.0,7.0,0.0
23843,95.0,30.0,30.0,7.0,0.0
23844,69.0,0.0,120.0,4.0,0.0
23845,62.0,58.0,120.0,4.0,0.0
23846,91.0,30.0,30.0,7.0,0.0
23847,86.0,30.0,30.0,7.0,0.0
23848,91.0,2.0,30.0,7.0,0.0
23849,67.0,0.0,120.0,4.0,0.0
23850,79.0,30.0,30.0,7.0,0.0
23851,74.0,30.0,30.0,7.0,0.0
23852,79.0,2.0,30.0,7.0,0.0
23853,83.0,30.0,30.0,7.0,0.0
23854,67.0,0.0,60.0,4.0,0.0
23855,71.0,28.0,15.0,4.0,0.0
23856,79.0,2.0,30.0,7.0,0.0
23857,74.0,30.0,30.0,7.0,0.0
23858,62.0,28.0,60.0,4.0,0.0
23859,69.0,0.0,60.0,4.0,0.0
23860,79.0,2.0,30.0,7.0,0.0
23861,71.0,0.0,120.0,7.0,0.0
23862,71.0,2.0,120.0,8.0,0.0
23863,67.0,2.0,120.0,4.0,0.0
23864,67.0,0.0,120.0,10.0,0.0
23865,71.0,0.0,120.0,4.0,0.0
23866,62.0,1.0,120.0,11.0,0.0
23867,55.0,2.0,120.0,12.0,0.0
23868,43.0,23.0,120.0,13.0,0.0
23869,91.0,30.0,30.0,7.0,0.0
23870,86.0,30.0,30.0,7.0,0.0
23871,91.0,0.0,30.0,7.0,0.0
23872,95.0,30.0,30.0,7.0,0.0
23873,62.0,58.0,120.0,4.0,0.0
23874,69.0,0.0,120.0,4.0,0.0
23875,91.0,30.0,30.0,7.0,0.0
23876,86.0,30.0,30.0,7.0,0.0
23877,91.0,2.0,30.0,7.0,0.0
23878,71.0,2.0,120.0,8.0,0.0
23879,67.0,0.0,120.0,10.0,0.0
23880,62.0,1.0,120.0,11.0,0.0
23881,55.0,2.0,120.0,12.0,0.0
23882,43.0,23.0,120.0,13.0,0.0
23883,79.0,30.0,30.0,7.0,0.0
23884,74.0,30.0,30.0,7.0,0.0
23885,79.0,0.0,30.0,7.0,0.0
23886,83.0,30.0,30.0,7.0,0.0
23887,71.0,0.0,15.0,4.0,0.0
23888,67.0,2.0,15.0,4.0,0.0
23889,79.0,2.0,30.0,7.0,0.0
23890,74.0,30.0,30.0,7.0,0.0
23891,71.0,2.0,30.0,7.0,0.0
23892,72.0,0.0,120.0,8.0,0.0
23893,72.0,2.0,120.0,7.0,0.0
23894,69.0,58.0,15.0,4.0,0.0
23895,72.0,0.0,15.0,4.0,0.0
23896,69.0,2.0,120.0,10.0,0.0
23897,62.0,1.0,120.0,11.0,0.0
23898,50.0,2.0,120.0,12.0,0.0
23899,38.0,23.0,120.0,13.0,0.0
23900,93.0,30.0,30.0,7.0,0.0
23901,90.0,30.0,30.0,7.0,0.0
23902,93.0,0.0,30.0,7.0,0.0
23903,96.0,30.0,30.0,7.0,0.0
23904,93.0,30.0,30.0,7.0,0.0
23905,90.0,30.0,30.0,7.0,0.0
23906,93.0,2.0,30.0,7.0,0.0
23907,86.0,0.0,120.0,7.0,0.0
23908,72.0,0.0,120.0,4.0,0.0
23909,69.0,28.0,120.0,4.0,0.0
23910,81.0,30.0,30.0,7.0,0.0
23911,78.0,30.0,30.0,7.0,0.0
23912,81.0,2.0,30.0,7.0,0.0
23913,84.0,30.0,30.0,7.0,0.0
23914,74.0,0.0,60.0,4.0,0.0
23915,71.0,28.0,60.0,4.0,0.0
23916,81.0,2.0,30.0,7.0,0.0
23917,78.0,30.0,30.0,7.0,0.0
23918,72.0,0.0,60.0,4.0,0.0
23919,69.0,58.0,60.0,4.0,0.0
23920,81.0,2.0,30.0,7.0,0.0
23921,74.0,2.0,120.0,8.0,0.0
23922,74.0,30.0,150.0,7.0,0.0
23923,71.0,0.0,120.0,10.0,0.0
23924,71.0,2.0,120.0,4.0,0.0
23925,74.0,0.0,120.0,4.0,0.0
23926,62.0,1.0,120.0,11.0,0.0
23927,55.0,2.0,120.0,12.0,0.0
23928,43.0,23.0,120.0,13.0,0.0
23929,95.0,30.0,30.0,7.0,0.0
23930,91.0,30.0,30.0,7.0,0.0
23931,95.0,0.0,30.0,7.0,0.0
23932,98.0,30.0,150.0,7.0,0.0
23933,72.0,28.0,120.0,4.0,0.0
23934,69.0,0.0,120.0,4.0,0.0
23935,83.0,30.0,30.0,7.0,0.0
23936,79.0,30.0,30.0,7.0,0.0
23937,83.0,2.0,30.0,7.0,0.0
23938,74.0,28.0,120.0,4.0,0.0
23939,71.0,0.0,120.0,4.0,0.0
23940,95.0,30.0,30.0,7.0,0.0
23941,91.0,30.0,30.0,7.0,0.0
23942,95.0,2.0,30.0,7.0,0.0
23943,86.0,30.0,30.0,7.0,0.0
23944,69.0,0.0,60.0,4.0,0.0
23945,72.0,28.0,60.0,4.0,0.0
23946,83.0,2.0,30.0,7.0,0.0
23947,79.0,30.0,30.0,7.0,0.0
23948,67.0,0.0,60.0,4.0,0.0
23949,71.0,28.0,60.0,4.0,0.0
23950,83.0,2.0,30.0,7.0,0.0
23951,72.0,0.0,120.0,8.0,0.0
23952,74.0,30.0,150.0,7.0,0.0
23953,69.0,2.0,120.0,10.0,0.0
23954,72.0,0.0,120.0,4.0,0.0
23955,69.0,0.0,120.0,4.0,0.0
23956,62.0,1.0,120.0,11.0,0.0
23957,50.0,2.0,120.0,12.0,0.0
23958,38.0,23.0,120.0,13.0,0.0
23959,96.0,30.0,30.0,7.0,0.0
23960,93.0,30.0,30.0,7.0,0.0
23961,96.0,2.0,30.0,7.0,0.0
23962,98.0,30.0,150.0,7.0,0.0
23963,71.0,28.0,120.0,4.0,0.0
23964,67.0,0.0,120.0,4.0,0.0
23965,84.0,30.0,30.0,7.0,0.0
23966,81.0,30.0,30.0,7.0,0.0
23967,84.0,2.0,30.0,7.0,0.0
23968,69.0,0.0,120.0,4.0,0.0
23969,72.0,28.0,120.0,4.0,0.0
23970,96.0,30.0,30.0,7.0,0.0
23971,93.0,30.0,30.0,7.0,0.0
23972,96.0,2.0,30.0,7.0,0.0
23973,86.0,30.0,30.0,7.0,0.0
23974,67.0,28.0,60.0,4.0,0.0
23975,71.0,0.0,60.0,4.0,0.0
23976,84.0,2.0,30.0,7.0,0.0
23977,81.0,30.0,30.0,7.0,0.0
23978,62.0,28.0,60.0,4.0,0.0
23979,69.0,0.0,60.0,4.0,0.0
23980,84.0,2.0,30.0,7.0,0.0
23981,71.0,2.0,120.0,8.0,0.0
23982,74.0,30.0,150.0,7.0,0.0
23983,67.0,2.0,120.0,10.0,0.0
23984,67.0,0.0,120.0,4.0,0.0
23985,71.0,0.0,120.0,4.0,0.0
23986,62.0,1.0,120.0,11.0,0.0
23987,55.0,2.0,120.0,12.0,0.0
23988,43.0,23.0,120.0,13.0,0.0
23989,95.0,30.0,30.0,7.0,0.0
23990,91.0,30.0,30.0,7.0,0.0
23991,95.0,0.0,30.0,7.0,0.0
23992,98.0,30.0,150.0,7.0,0.0
23993,62.0,0.0,120.0,4.0,0.0
23994,69.0,28.0,120.0,4.0,0.0
23995,83.0,30.0,30.0,7.0,0.0
23996,79.0,30.0,30.0,7.0,0.0
23997,83.0,2.0,30.0,7.0,0.0
23998,71.0,2.0,120.0,8.0,0.0
23999,67.0,0.0,90.0,4.0,0.0
24000,71.0,28.0,90.0,4.0,0.0
24001,67.0,2.0,120.0,10.0,0.0
24002,62.0,1.0,120.0,11.0,0.0
24003,55.0,2.0,120.0,12.0,0.0
24004,43.0,23.0,120.0,13.0,0.0
24005,95.0,30.0,30.0,7.0,0.0
24006,91.0,2.0,30.0,7.0,0.0
24007,95.0,0.0,30.0,7.0,0.0
24008,86.0,30.0,30.0,7.0,0.0
24009,62.0,0.0,90.0,4.0,0.0
24010,69.0,28.0,90.0,4.0,0.0
24011,83.0,30.0,30.0,7.0,0.0
24012,79.0,2.0,30.0,7.0,0.0
24013,83.0,0.0,30.0,7.0,0.0
24014,69.0,0.0,120.0,8.0,0.0
24015,74.0,2.0,120.0,7.0,0.0
24016,66.0,2.0,120.0,10.0,0.0
24017,62.0,1.0,120.0,11.0,0.0
24018,50.0,2.0,120.0,12.0,0.0
24019,38.0,115.0,120.0,13.0,0.0
24020,98.0,30.0,30.0,7.0,0.0
24021,69.0,28.0,15.0,4.0,0.0
24022,62.0,0.0,15.0,4.0,0.0
24023,97.0,30.0,30.0,7.0,0.0
24024,96.0,30.0,30.0,7.0,0.0
24025,95.0,30.0,30.0,7.0,0.0
24026,94.0,30.0,30.0,7.0,0.0
24027,93.0,30.0,30.0,7.0,0.0
24028,92.0,30.0,30.0,7.0,0.0
24029,91.0,2.0,30.0,7.0,0.0
24030,90.0,30.0,30.0,7.0,0.0
24031,74.0,4.0,240.0,2.0,0.0
24032,62.0,0.0,240.0,2.0,0.0
24033,50.0,24.0,240.0,3.0,0.0
24034,89.0,20.0,30.0,7.0,0.0
24035,88.0,10.0,30.0,7.0,0.0
24036,87.0,10.0,20.0,8.0,0.0
24037,86.0,20.0,20.0,8.0,0.0
24038,87.0,30.0,30.0,7.0,0.0
24039,85.0,0.0,20.0,8.0,0.0
24040,86.0,15.0,60.0,8.0,0.0
24041,86.0,15.0,30.0,7.0,0.0
24042,85.0,30.0,30.0,7.0,0.0
24043,84.0,15.0,30.0,7.0,0.0
24044,86.0,15.0,60.0,8.0,0.0
24045,83.0,0.0,30.0,7.0,0.0
24046,86.0,15.0,60.0,8.0,0.0
24047,82.0,15.0,30.0,7.0,0.0
24048,86.0,2.0,15.0,0.0,0.0
24049,50.0,24.0,240.0,3.0,0.0
24050,81.0,20.0,30.0,7.0,0.0
24051,87.0,10.0,20.0,8.0,0.0
24052,80.0,10.0,30.0,7.0,0.0
24053,86.0,20.0,20.0,8.0,0.0
24054,79.0,20.0,30.0,7.0,0.0
24055,85.0,0.0,20.0,8.0,0.0
24056,86.0,15.0,60.0,8.0,0.0
24057,78.0,20.0,20.0,7.0,0.0
24058,77.0,5.0,20.0,7.0,0.0
24059,76.0,20.0,20.0,7.0,0.0
24060,75.0,20.0,20.0,7.0,0.0
24061,86.0,15.0,60.0,8.0,0.0
24062,74.0,5.0,20.0,7.0,0.0
24063,73.0,2.0,20.0,7.0,0.0
24064,86.0,0.0,120.0,8.0,0.0
24065,86.0,0.0,15.0,0.0,0.0
24066,72.0,30.0,30.0,7.0,0.0
24067,62.0,4.0,15.0,2.0,0.0
24068,74.0,0.0,15.0,2.0,0.0
24069,50.0,18.0,240.0,4.0,0.0
24070,62.0,0.0,240.0,4.0,0.0
24071,46.0,2.0,300.0,12.0,0.0
24072,34.0,13.0,300.0,13.0,0.0
24073,71.0,30.0,30.0,7.0,0.0
24074,70.0,30.0,30.0,7.0,0.0
24075,69.0,20.0,30.0,7.0,0.0
24076,68.0,20.0,20.0,7.0,0.0
24077,67.0,20.0,20.0,7.0,0.0
24078,66.0,20.0,20.0,7.0,0.0
24079,65.0,20.0,20.0,7.0,0.0
24080,64.0,20.0,20.0,7.0,0.0
24081,63.0,2.0,20.0,7.0,0.0
24082,62.0,20.0,20.0,7.0,0.0
24083,50.0,4.0,240.0,4.0,0.0
24084,62.0,0.0,240.0,4.0,0.0
24085,61.0,20.0,20.0,7.0,0.0
24086,60.0,5.0,20.0,7.0,0.0
24087,59.0,5.0,20.0,7.0,0.0
24088,48.0,2.0,20.0,12.0,0.0
24089,36.0,13.0,20.0,13.0,0.0
24090,58.0,5.0,20.0,7.0,0.0
24091,46.0,2.0,20.0,12.0,0.0
24092,34.0,13.0,20.0,13.0,0.0
24093,57.0,5.0,20.0,7.0,0.0
24094,45.0,2.0,20.0,12.0,0.0
24095,33.0,13.0,20.0,13.0,0.0
24096,56.0,20.0,20.0,7.0,0.0
24097,46.0,2.0,60.0,12.0,0.0
24098,34.0,8.0,60.0,13.0,0.0
24099,55.0,10.0,20.0,7.0,0.0
24100,54.0,20.0,20.0,7.0,0.0
24101,53.0,20.0,20.0,7.0,0.0
24102,48.0,2.0,60.0,12.0,0.0
24103,36.0,8.0,60.0,13.0,0.0
24104,52.0,10.0,20.0,7.0,0.0
24105,51.0,0.0,20.0,7.0,0.0
24106,50.0,5.0,120.0,7.0,0.0
24107,86.0,2.0,15.0,0.0,0.0
24108,74.0,0.0,15.0,2.0,0.0
24109,62.0,0.0,15.0,2.0,0.0
24110,50.0,2.0,120.0,12.0,0.0
24111,50.0,74.0,15.0,3.0,0.0
24112,38.0,38.0,120.0,13.0,0.0
24113,88.0,20.0,20.0,8.0,0.0
24114,86.0,20.0,20.0,8.0,0.0
24115,85.0,0.0,20.0,8.0,0.0
24116,86.0,60.0,60.0,8.0,0.0
24117,86.0,15.0,60.0,8.0,0.0
24118,86.0,15.0,60.0,8.0,0.0
24119,86.0,2.0,240.0,0.0,0.0
24120,98.0,15.0,30.0,7.0,0.0
24121,74.0,4.0,240.0,2.0,0.0
24122,62.0,4.0,15.0,2.0,0.0
24123,50.0,24.0,240.0,3.0,0.0
24124,97.0,20.0,30.0,7.0,0.0
24125,96.0,10.0,30.0,7.0,0.0
24126,88.0,10.0,20.0,8.0,0.0
24127,86.0,20.0,20.0,8.0,0.0
24128,95.0,0.0,30.0,7.0,0.0
24129,85.0,30.0,20.0,8.0,0.0
24130,86.0,15.0,60.0,8.0,0.0
24131,94.0,15.0,30.0,7.0,0.0
24132,93.0,30.0,30.0,7.0,0.0
24133,86.0,15.0,60.0,8.0,0.0
24134,92.0,15.0,30.0,7.0,0.0
24135,91.0,0.0,30.0,7.0,0.0
24136,90.0,30.0,30.0,7.0,0.0
24137,86.0,30.0,120.0,8.0,0.0
24138,62.0,4.0,480.0,2.0,0.0
24139,74.0,0.0,480.0,2.0,0.0
24140,47.0,2.0,300.0,12.0,0.0
24141,50.0,24.0,480.0,3.0,0.0
24142,35.0,18.0,300.0,13.0,0.0
24143,89.0,30.0,30.0,7.0,0.0
24144,88.0,30.0,30.0,7.0,0.0
24145,87.0,0.0,30.0,7.0,0.0
24146,86.0,30.0,30.0,7.0,0.0
24147,85.0,30.0,30.0,7.0,0.0
24148,84.0,30.0,30.0,7.0,0.0
24149,83.0,2.0,30.0,7.0,0.0
24150,82.0,30.0,30.0,7.0,0.0
24151,50.0,28.0,15.0,4.0,0.0
24152,62.0,0.0,15.0,4.0,0.0
24153,81.0,5.0,30.0,7.0,0.0
24154,80.0,15.0,30.0,7.0,0.0
24155,48.0,2.0,20.0,12.0,0.0
24156,36.0,3.0,20.0,13.0,0.0
24157,47.0,2.0,20.0,12.0,0.0
24158,35.0,13.0,20.0,13.0,0.0
24159,79.0,5.0,30.0,7.0,0.0
24160,45.0,2.0,20.0,12.0,0.0
24161,33.0,23.0,20.0,13.0,0.0
24162,78.0,20.0,30.0,7.0,0.0
24163,47.0,2.0,60.0,12.0,0.0
24164,35.0,8.0,60.0,13.0,0.0
24165,77.0,30.0,30.0,7.0,0.0
24166,76.0,20.0,30.0,7.0,0.0
24167,48.0,2.0,60.0,12.0,0.0
24168,36.0,8.0,60.0,13.0,0.0
24169,75.0,0.0,30.0,7.0,0.0
24170,86.0,2.0,15.0,0.0,0.0
24171,74.0,20.0,30.0,7.0,0.0
24172,50.0,2.0,60.0,12.0,0.0
24173,38.0,8.0,60.0,13.0,0.0
24174,73.0,25.0,30.0,7.0,0.0
24175,72.0,15.0,30.0,7.0,0.0
24176,52.0,2.0,20.0,12.0,0.0
24177,40.0,3.0,20.0,13.0,0.0
24178,50.0,2.0,20.0,12.0,0.0
24179,38.0,13.0,20.0,13.0,0.0
24180,71.0,5.0,30.0,7.0,0.0
24181,49.0,2.0,20.0,12.0,0.0
24182,37.0,23.0,20.0,13.0,0.0
24183,70.0,20.0,30.0,7.0,0.0
24184,50.0,2.0,60.0,12.0,0.0
24185,38.0,8.0,60.0,13.0,0.0
24186,69.0,30.0,30.0,7.0,0.0
24187,68.0,20.0,30.0,7.0,0.0
24188,52.0,2.0,60.0,12.0,0.0
24189,40.0,8.0,60.0,13.0,0.0
24190,67.0,0.0,30.0,7.0,0.0
24191,66.0,20.0,30.0,7.0,0.0
24192,86.0,2.0,15.0,0.0,0.0
24193,50.0,0.0,15.0,4.0,0.0
24194,62.0,28.0,15.0,4.0,0.0
24195,53.0,2.0,60.0,12.0,0.0
24196,41.0,8.0,60.0,13.0,0.0
24197,65.0,25.0,30.0,7.0,0.0
24198,64.0,15.0,30.0,7.0,0.0
24199,55.0,2.0,20.0,12.0,0.0
24200,43.0,3.0,20.0,13.0,0.0
24201,53.0,2.0,20.0,12.0,0.0
24202,41.0,13.0,20.0,13.0,0.0
24203,63.0,5.0,30.0,7.0,0.0
24204,52.0,2.0,20.0,12.0,0.0
24205,40.0,17.0,20.0,13.0,0.0
24206,74.0,18.0,30.0,8.0,0.0
24207,62.0,6.0,20.0,7.0,0.0
24208,53.0,2.0,60.0,12.0,0.0
24209,41.0,8.0,60.0,13.0,0.0
24210,61.0,2.0,20.0,7.0,0.0
24211,72.0,12.0,30.0,8.0,0.0
24212,60.0,18.0,20.0,7.0,0.0
24213,71.0,6.0,30.0,8.0,0.0
24214,54.0,2.0,60.0,12.0,0.0
24215,42.0,8.0,60.0,13.0,0.0
24216,59.0,14.0,20.0,7.0,0.0
24217,69.0,2.0,30.0,8.0,0.0
24218,57.0,0.0,20.0,7.0,0.0
24219,59.0,0.0,120.0,8.0,0.0
24220,55.0,6.0,120.0,7.0,0.0
24221,91.0,0.0,300.0,0.0,0.0
24222,79.0,0.0,300.0,0.0,0.0
24223,67.0,0.0,120.0,8.0,0.0
24224,79.0,1.0,300.0,8.0,0.0
24225,79.0,0.0,300.0,5.0,0.0
24226,55.0,0.0,300.0,4.0,0.0
24227,59.0,0.0,300.0,10.0,0.0
24228,67.0,0.0,300.0,10.0,0.0
24229,67.0,1.0,300.0,11.0,0.0
24230,55.0,1.0,300.0,12.0,0.0
24231,55.0,174.0,120.0,6.0,0.0
24232,43.0,13.0,300.0,13.0,0.0
24233,79.0,1.0,120.0,0.0,0.0
24234,91.0,0.0,120.0,0.0,0.0
24235,81.0,2.0,20.0,8.0,0.0
24236,67.0,1.0,15.0,5.0,0.0
24237,79.0,0.0,15.0,1.0,0.0
24238,71.0,0.0,15.0,1.0,0.0
24239,79.0,1.0,120.0,5.0,0.0
24240,74.0,0.0,15.0,2.0,0.0
24241,71.0,2.0,15.0,2.0,0.0
24242,67.0,0.0,15.0,4.0,0.0
24243,81.0,18.0,20.0,10.0,0.0
24244,59.0,0.0,120.0,4.0,0.0
24245,67.0,1.0,120.0,11.0,0.0
24246,55.0,1.0,120.0,12.0,0.0
24247,55.0,0.0,15.0,3.0,0.0
24248,59.0,1.0,15.0,3.0,0.0
24249,55.0,39.0,60.0,6.0,0.0
24250,43.0,38.0,120.0,13.0,0.0
24251,79.0,2.0,20.0,8.0,0.0
24252,79.0,18.0,20.0,10.0,0.0
24253,78.0,2.0,20.0,8.0,0.0
24254,78.0,4.0,20.0,10.0,0.0
24255,79.0,2.0,60.0,8.0,0.0
24256,79.0,13.0,60.0,10.0,0.0
24257,55.0,0.0,60.0,6.0,0.0
24258,81.0,2.0,60.0,8.0,0.0
24259,90.0,0.0,60.0,0.0,0.0
24260,93.0,1.0,60.0,0.0,0.0
24261,74.0,1.0,60.0,5.0,0.0
24262,81.0,0.0,60.0,1.0,0.0
24263,78.0,0.0,60.0,1.0,0.0
24264,62.0,0.0,60.0,5.0,0.0
24265,62.0,0.0,60.0,4.0,0.0
24266,69.0,2.0,60.0,4.0,0.0
24267,69.0,0.0,60.0,2.0,0.0
24268,78.0,0.0,60.0,2.0,0.0
24269,78.0,13.0,60.0,10.0,0.0
24270,62.0,1.0,60.0,11.0,0.0
24271,50.0,1.0,60.0,12.0,0.0
24272,57.0,0.0,60.0,3.0,0.0
24273,50.0,0.0,60.0,3.0,0.0
24274,50.0,1.0,60.0,6.0,0.0
24275,38.0,113.0,60.0,13.0,0.0
24276,91.0,0.0,120.0,0.0,0.0
24277,95.0,1.0,120.0,0.0,0.0
24278,83.0,0.0,120.0,8.0,0.0
24279,83.0,0.0,120.0,1.0,0.0
24280,71.0,0.0,120.0,2.0,0.0
24281,79.0,2.0,120.0,10.0,0.0
24282,71.0,0.0,120.0,4.0,0.0
24283,67.0,0.0,120.0,4.0,0.0
24284,79.0,0.0,120.0,2.0,0.0
24285,67.0,1.0,120.0,11.0,0.0
24286,59.0,0.0,120.0,3.0,0.0
24287,55.0,1.0,120.0,3.0,0.0
24288,55.0,0.0,120.0,6.0,0.0
24289,43.0,113.0,120.0,13.0,0.0
24290,83.0,0.0,120.0,0.0,0.0
24291,91.0,1.0,120.0,0.0,0.0
24292,79.0,0.0,120.0,8.0,0.0
24293,79.0,1.0,15.0,1.0,0.0
24294,79.0,0.0,15.0,5.0,0.0
24295,67.0,0.0,15.0,5.0,0.0
24296,74.0,0.0,120.0,1.0,0.0
24297,71.0,0.0,120.0,2.0,0.0
24298,67.0,0.0,120.0,4.0,0.0
24299,74.0,0.0,120.0,2.0,0.0
24300,71.0,2.0,120.0,10.0,0.0
24301,55.0,1.0,120.0,11.0,0.0
24302,59.0,0.0,120.0,11.0,0.0
24303,55.0,1.0,15.0,12.0,0.0
24304,55.0,0.0,120.0,6.0,0.0
24305,55.0,0.0,120.0,3.0,0.0
24306,59.0,1.0,120.0,3.0,0.0
24307,43.0,113.0,120.0,13.0,0.0
24308,88.0,1.0,120.0,0.0,0.0
24309,84.0,0.0,120.0,0.0,0.0
24310,76.0,0.0,120.0,8.0,0.0
24311,76.0,0.0,120.0,1.0,0.0
24312,72.0,0.0,120.0,1.0,0.0
24313,79.0,0.0,15.0,5.0,0.0
24314,67.0,0.0,15.0,5.0,0.0
24315,72.0,0.0,120.0,2.0,0.0
24316,76.0,0.0,120.0,2.0,0.0
24317,72.0,2.0,120.0,10.0,0.0
24318,55.0,0.0,15.0,4.0,0.0
24319,60.0,0.0,120.0,11.0,0.0
24320,64.0,1.0,120.0,11.0,0.0
24321,60.0,1.0,120.0,12.0,0.0
24322,60.0,0.0,120.0,3.0,0.0
24323,64.0,0.0,120.0,3.0,0.0
24324,48.0,113.0,120.0,13.0,0.0
24325,74.0,0.0,120.0,8.0,0.0
24326,86.0,1.0,120.0,0.0,0.0
24327,83.0,0.0,120.0,0.0,0.0
24328,67.0,0.0,15.0,5.0,0.0
24329,79.0,1.0,15.0,5.0,0.0
24330,71.0,0.0,120.0,1.0,0.0
24331,74.0,0.0,120.0,1.0,0.0
24332,74.0,0.0,120.0,2.0,0.0
24333,71.0,2.0,120.0,10.0,0.0
24334,67.0,0.0,15.0,4.0,0.0
24335,55.0,0.0,15.0,4.0,0.0
24336,71.0,0.0,120.0,2.0,0.0
24337,62.0,1.0,120.0,11.0,0.0
24338,59.0,0.0,120.0,11.0,0.0
24339,55.0,1.0,120.0,12.0,0.0
24340,59.0,0.0,120.0,3.0,0.0
24341,55.0,1.0,15.0,6.0,0.0
24342,62.0,1.0,120.0,3.0,0.0
24343,43.0,23.0,120.0,13.0,0.0
24344,67.0,0.0,30.0,7.0,0.0
24345,43.0,30.0,30.0,7.0,0.0
24346,55.0,0.0,30.0,7.0,0.0
24347,79.0,30.0,30.0,7.0,0.0
24348,47.0,30.0,30.0,7.0,0.0
24349,50.0,0.0,30.0,7.0,0.0
24350,74.0,0.0,30.0,7.0,0.0
24351,71.0,0.0,30.0,7.0,0.0
24352,79.0,30.0,30.0,7.0,0.0
24353,55.0,0.0,30.0,7.0,0.0
24354,71.0,0.0,30.0,7.0,0.0
24355,47.0,30.0,30.0,7.0,0.0
24356,59.0,0.0,30.0,7.0,0.0
24357,83.0,30.0,30.0,7.0,0.0
24358,50.0,0.0,30.0,7.0,0.0
24359,74.0,0.0,30.0,7.0,0.0
24360,55.0,0.0,30.0,7.0,0.0
24361,79.0,30.0,30.0,7.0,0.0
24362,83.0,0.0,30.0,7.0,0.0
24363,59.0,30.0,30.0,7.0,0.0
24364,50.0,30.0,30.0,7.0,0.0
24365,74.0,0.0,30.0,7.0,0.0
24366,62.0,0.0,30.0,7.0,0.0
24367,86.0,30.0,30.0,7.0,0.0
24368,83.0,0.0,30.0,7.0,0.0
24369,79.0,0.0,30.0,7.0,0.0
24370,59.0,30.0,30.0,7.0,0.0
24371,55.0,0.0,30.0,7.0,0.0
24372,62.0,30.0,30.0,7.0,0.0
24373,86.0,0.0,30.0,7.0,0.0
24374,55.0,30.0,30.0,7.0,0.0
24375,79.0,0.0,30.0,7.0,0.0
24376,91.0,30.0,30.0,7.0,0.0
24377,67.0,0.0,30.0,7.0,0.0
24378,86.0,30.0,30.0,7.0,0.0
24379,83.0,0.0,30.0,7.0,0.0
24380,62.0,0.0,30.0,7.0,0.0
24381,59.0,0.0,30.0,7.0,0.0
24382,91.0,0.0,30.0,7.0,0.0
24383,67.0,30.0,30.0,7.0,0.0
24384,83.0,30.0,30.0,7.0,0.0
24385,55.0,0.0,30.0,7.0,0.0
24386,95.0,0.0,30.0,7.0,0.0
24387,67.0,30.0,30.0,7.0,0.0
24388,91.0,30.0,30.0,7.0,0.0
24389,59.0,0.0,30.0,7.0,0.0
24390,62.0,0.0,30.0,7.0,0.0
24391,86.0,0.0,30.0,7.0,0.0
24392,95.0,30.0,30.0,7.0,0.0
24393,67.0,0.0,30.0,7.0,0.0
24394,55.0,30.0,30.0,7.0,0.0
24395,79.0,0.0,30.0,7.0,0.0
24396,91.0,30.0,30.0,7.0,0.0
24397,67.0,0.0,30.0,7.0,0.0
24398,83.0,30.0,30.0,7.0,0.0
24399,59.0,0.0,30.0,7.0,0.0
24400,62.0,0.0,30.0,7.0,0.0
24401,86.0,0.0,30.0,7.0,0.0
24402,67.0,0.0,30.0,7.0,0.0
24403,91.0,30.0,30.0,7.0,0.0
24404,76.0,30.0,30.0,7.0,0.0
24405,60.0,0.0,30.0,7.0,0.0
24406,72.0,30.0,30.0,7.0,0.0
24407,88.0,0.0,30.0,7.0,0.0
24408,79.0,30.0,30.0,7.0,0.0
24409,84.0,0.0,30.0,7.0,0.0
24410,67.0,0.0,30.0,7.0,0.0
24411,64.0,0.0,30.0,7.0,0.0
24412,72.0,30.0,30.0,7.0,0.0
24413,88.0,0.0,30.0,7.0,0.0
24414,55.0,30.0,30.0,7.0,0.0
24415,74.0,0.0,30.0,7.0,0.0
24416,67.0,0.0,30.0,7.0,0.0
24417,86.0,0.0,30.0,7.0,0.0
24418,83.0,30.0,15.0,7.0,0.0
24419,59.0,0.0,30.0,7.0,0.0
24420,79.0,0.0,30.0,7.0,0.0
24421,62.0,0.0,30.0,7.0,0.0
24422,83.0,30.0,15.0,7.0,0.0
24423,86.0,120.0,30.0,7.0,0.0
24424,67.0,0.0,30.0,7.0,0.0
24425,76.0,0.0,300.0,8.0,0.0
24426,67.0,1.0,120.0,8.0,0.0
24427,59.0,0.0,120.0,8.0,0.0
24428,88.0,0.0,300.0,0.0,0.0
24429,76.0,1.0,300.0,0.0,0.0
24430,67.0,1.0,120.0,5.0,0.0
24431,79.0,0.0,300.0,1.0,0.0
24432,79.0,0.0,120.0,5.0,0.0
24433,67.0,0.0,120.0,10.0,0.0
24434,59.0,4.0,120.0,10.0,0.0
24435,71.0,2.0,300.0,4.0,0.0
24436,76.0,0.0,300.0,10.0,0.0
24437,67.0,0.0,300.0,2.0,0.0
24438,76.0,0.0,300.0,2.0,0.0
24439,64.0,1.0,300.0,11.0,0.0
24440,52.0,0.0,300.0,11.0,0.0
24441,52.0,1.0,300.0,12.0,0.0
24442,52.0,0.0,300.0,3.0,0.0
24443,55.0,174.0,120.0,6.0,0.0
24444,78.0,0.0,20.0,8.0,0.0
24445,90.0,0.0,20.0,0.0,0.0
24446,78.0,2.0,20.0,0.0,0.0
24447,88.0,1.0,15.0,1.0,0.0
24448,79.0,0.0,120.0,1.0,0.0
24449,78.0,18.0,20.0,10.0,0.0
24450,76.0,0.0,120.0,2.0,0.0
24451,67.0,2.0,120.0,2.0,0.0
24452,59.0,0.0,15.0,4.0,0.0
24453,71.0,0.0,120.0,4.0,0.0
24454,52.0,0.0,120.0,11.0,0.0
24455,64.0,1.0,120.0,11.0,0.0
24456,52.0,1.0,120.0,12.0,0.0
24457,64.0,1.0,15.0,3.0,0.0
24458,40.0,13.0,15.0,13.0,0.0
24459,88.0,2.0,20.0,0.0,0.0
24460,76.0,0.0,20.0,8.0,0.0
24461,76.0,0.0,20.0,0.0,0.0
24462,76.0,18.0,20.0,10.0,0.0
24463,75.0,2.0,20.0,8.0,0.0
24464,87.0,0.0,20.0,0.0,0.0
24465,75.0,0.0,20.0,0.0,0.0
24466,75.0,43.0,20.0,10.0,0.0
24467,88.0,0.0,60.0,0.0,0.0
24468,76.0,0.0,60.0,0.0,0.0
24469,76.0,2.0,60.0,8.0,0.0
24470,76.0,14.0,60.0,10.0,0.0
24471,78.0,2.0,60.0,8.0,0.0
24472,78.0,0.0,60.0,0.0,0.0
24473,90.0,0.0,60.0,0.0,0.0
24474,78.0,0.0,60.0,1.0,0.0
24475,87.0,1.0,60.0,1.0,0.0
24476,59.0,0.0,15.0,4.0,0.0
24477,75.0,14.0,60.0,10.0,0.0
24478,75.0,0.0,60.0,2.0,0.0
24479,78.0,0.0,60.0,2.0,0.0
24480,59.0,1.0,60.0,11.0,0.0
24481,47.0,1.0,60.0,12.0,0.0
24482,63.0,0.0,60.0,3.0,0.0
24483,66.0,1.0,60.0,3.0,0.0
24484,35.0,113.0,60.0,13.0,0.0
24485,79.0,0.0,120.0,0.0,0.0
24486,79.0,1.0,120.0,8.0,0.0
24487,91.0,0.0,120.0,0.0,0.0
24488,88.0,1.0,120.0,1.0,0.0
24489,59.0,2.0,120.0,4.0,0.0
24490,71.0,2.0,15.0,4.0,0.0
24491,76.0,0.0,120.0,10.0,0.0
24492,76.0,0.0,120.0,2.0,0.0
24493,79.0,0.0,120.0,2.0,0.0
24494,64.0,0.0,120.0,11.0,0.0
24495,52.0,1.0,120.0,12.0,0.0
24496,64.0,0.0,120.0,3.0,0.0
24497,67.0,1.0,120.0,3.0,0.0
24498,40.0,113.0,120.0,13.0,0.0
24499,88.0,1.0,120.0,0.0,0.0
24500,76.0,0.0,120.0,8.0,0.0
24501,91.0,0.0,120.0,0.0,0.0
24502,79.0,0.0,15.0,1.0,0.0
24503,79.0,0.0,120.0,5.0,0.0
24504,67.0,0.0,120.0,5.0,0.0
24505,88.0,1.0,120.0,1.0,0.0
24506,71.0,0.0,120.0,2.0,0.0
24507,67.0,0.0,120.0,10.0,0.0
24508,67.0,2.0,120.0,4.0,0.0
24509,76.0,0.0,120.0,2.0,0.0
24510,55.0,0.0,120.0,4.0,0.0
24511,52.0,1.0,15.0,11.0,0.0
24512,64.0,1.0,120.0,11.0,0.0
24513,52.0,1.0,120.0,12.0,0.0
24514,52.0,1.0,120.0,3.0,0.0
24515,55.0,0.0,120.0,6.0,0.0
24516,64.0,0.0,120.0,3.0,0.0
24517,40.0,113.0,120.0,13.0,0.0
24518,72.0,0.0,120.0,8.0,0.0
24519,96.0,0.0,120.0,0.0,0.0
24520,93.0,1.0,120.0,0.0,0.0
24521,84.0,0.0,120.0,1.0,0.0
24522,81.0,1.0,120.0,1.0,0.0
24523,72.0,2.0,120.0,2.0,0.0
24524,69.0,0.0,120.0,2.0,0.0
24525,69.0,0.0,120.0,10.0,0.0
24526,64.0,0.0,120.0,11.0,0.0
24527,57.0,1.0,120.0,12.0,0.0
24528,60.0,0.0,120.0,3.0,0.0
24529,57.0,1.0,120.0,3.0,0.0
24530,45.0,113.0,120.0,13.0,0.0
24531,71.0,1.0,120.0,8.0,0.0
24532,91.0,0.0,120.0,0.0,0.0
24533,95.0,0.0,120.0,0.0,0.0
24534,79.0,1.0,120.0,5.0,0.0
24535,67.0,0.0,120.0,5.0,0.0
24536,83.0,0.0,120.0,1.0,0.0
24537,79.0,0.0,120.0,1.0,0.0
24538,67.0,0.0,120.0,2.0,0.0
24539,67.0,0.0,120.0,4.0,0.0
24540,55.0,0.0,120.0,4.0,0.0
24541,71.0,2.0,120.0,2.0,0.0
24542,67.0,0.0,120.0,10.0,0.0
24543,64.0,1.0,120.0,11.0,0.0
24544,52.0,1.0,15.0,11.0,0.0
24545,52.0,1.0,120.0,12.0,0.0
24546,59.0,1.0,120.0,3.0,0.0
24547,55.0,0.0,120.0,3.0,0.0
24548,55.0,0.0,120.0,6.0,0.0
24549,40.0,23.0,120.0,13.0,0.0
24550,40.0,0.0,30.0,7.0,0.0
24551,64.0,30.0,30.0,7.0,0.0
24552,52.0,0.0,30.0,7.0,0.0
24553,76.0,30.0,30.0,7.0,0.0
24554,43.0,0.0,30.0,7.0,0.0
24555,67.0,30.0,30.0,7.0,0.0
24556,71.0,0.0,30.0,7.0,0.0
24557,47.0,0.0,30.0,7.0,0.0
24558,52.0,30.0,30.0,7.0,0.0
24559,76.0,0.0,30.0,7.0,0.0
24560,43.0,30.0,30.0,7.0,0.0
24561,67.0,0.0,30.0,7.0,0.0
24562,79.0,0.0,30.0,7.0,0.0
24563,55.0,30.0,30.0,7.0,0.0
24564,71.0,0.0,30.0,7.0,0.0
24565,76.0,0.0,30.0,7.0,0.0
24566,47.0,30.0,30.0,7.0,0.0
24567,52.0,0.0,30.0,7.0,0.0
24568,55.0,30.0,30.0,7.0,0.0
24569,79.0,0.0,30.0,7.0,0.0
24570,71.0,0.0,30.0,7.0,0.0
24571,47.0,30.0,30.0,7.0,0.0
24572,83.0,0.0,30.0,7.0,0.0
24573,59.0,30.0,30.0,7.0,0.0
24574,76.0,0.0,30.0,7.0,0.0
24575,55.0,30.0,30.0,7.0,0.0
24576,79.0,0.0,30.0,7.0,0.0
24577,52.0,0.0,30.0,7.0,0.0
24578,83.0,0.0,30.0,7.0,0.0
24579,59.0,30.0,30.0,7.0,0.0
24580,76.0,30.0,30.0,7.0,0.0
24581,52.0,0.0,30.0,7.0,0.0
24582,64.0,0.0,30.0,7.0,0.0
24583,88.0,30.0,30.0,7.0,0.0
24584,83.0,0.0,30.0,7.0,0.0
24585,79.0,0.0,30.0,7.0,0.0
24586,59.0,30.0,30.0,7.0,0.0
24587,55.0,0.0,30.0,7.0,0.0
24588,88.0,0.0,30.0,7.0,0.0
24589,64.0,30.0,30.0,7.0,0.0
24590,79.0,30.0,30.0,7.0,0.0
24591,52.0,0.0,30.0,7.0,0.0
24592,64.0,0.0,30.0,7.0,0.0
24593,91.0,30.0,30.0,7.0,0.0
24594,55.0,0.0,30.0,7.0,0.0
24595,59.0,30.0,30.0,7.0,0.0
24596,88.0,0.0,30.0,7.0,0.0
24597,83.0,0.0,30.0,7.0,0.0
24598,64.0,30.0,30.0,7.0,0.0
24599,91.0,0.0,30.0,7.0,0.0
24600,52.0,0.0,30.0,7.0,0.0
24601,76.0,30.0,30.0,7.0,0.0
24602,88.0,30.0,30.0,7.0,0.0
24603,64.0,0.0,30.0,7.0,0.0
24604,55.0,0.0,30.0,7.0,0.0
24605,59.0,0.0,30.0,7.0,0.0
24606,79.0,30.0,30.0,7.0,0.0
24607,83.0,0.0,30.0,7.0,0.0
24608,88.0,0.0,30.0,7.0,0.0
24609,64.0,30.0,30.0,7.0,0.0
24610,57.0,0.0,30.0,7.0,0.0
24611,72.0,30.0,30.0,7.0,0.0
24612,84.0,30.0,30.0,7.0,0.0
24613,69.0,0.0,30.0,7.0,0.0
24614,81.0,0.0,30.0,7.0,0.0
24615,76.0,0.0,30.0,7.0,0.0
24616,64.0,0.0,30.0,7.0,0.0
24617,60.0,30.0,30.0,7.0,0.0
24618,69.0,30.0,30.0,7.0,0.0
24619,84.0,0.0,30.0,7.0,0.0
24620,91.0,1.0,120.0,0.0,0.0
24621,95.0,0.0,120.0,0.0,0.0
24622,71.0,0.0,30.0,7.0,0.0
24623,52.0,30.0,30.0,7.0,0.0
24624,71.0,0.0,120.0,8.0,0.0
24625,83.0,0.0,120.0,1.0,0.0
24626,79.0,1.0,120.0,1.0,0.0
24627,67.0,2.0,120.0,10.0,0.0
24628,64.0,0.0,120.0,2.0,0.0
24629,76.0,0.0,120.0,2.0,0.0
24630,52.0,1.0,120.0,12.0,0.0
24631,59.0,1.0,120.0,3.0,0.0
24632,52.0,0.0,120.0,3.0,0.0
24633,40.0,113.0,120.0,13.0,0.0
24634,64.0,0.0,30.0,7.0,0.0
24635,83.0,30.0,30.0,7.0,0.0
24636,79.0,30.0,30.0,7.0,0.0
24637,55.0,0.0,30.0,7.0,0.0
24638,59.0,0.0,30.0,7.0,0.0
24639,76.0,0.0,30.0,7.0,0.0
24640,83.0,0.0,30.0,7.0,0.0
24641,64.0,0.0,30.0,7.0,0.0
24642,72.0,0.0,120.0,8.0,0.0
24643,96.0,1.0,120.0,0.0,0.0
24644,93.0,0.0,120.0,0.0,0.0
24645,81.0,1.0,120.0,1.0,0.0
24646,84.0,0.0,120.0,1.0,0.0
24647,64.0,0.0,120.0,2.0,0.0
24648,69.0,2.0,120.0,10.0,0.0
24649,64.0,1.0,15.0,11.0,0.0
24650,52.0,0.0,15.0,11.0,0.0
24651,57.0,1.0,120.0,12.0,0.0
24652,57.0,1.0,120.0,3.0,0.0
24653,60.0,0.0,120.0,3.0,0.0
24654,45.0,23.0,120.0,13.0,0.0
24655,71.0,0.0,120.0,8.0,0.0
24656,52.0,30.0,30.0,7.0,0.0
24657,91.0,0.0,120.0,0.0,0.0
24658,71.0,0.0,30.0,7.0,0.0
24659,95.0,0.0,120.0,0.0,0.0
24660,79.0,1.0,120.0,1.0,0.0
24661,83.0,0.0,120.0,1.0,0.0
24662,76.0,0.0,15.0,2.0,0.0
24663,67.0,0.0,120.0,10.0,0.0
24664,64.0,0.0,120.0,2.0,0.0
24665,52.0,1.0,120.0,11.0,0.0
24666,64.0,0.0,120.0,11.0,0.0
24667,52.0,1.0,120.0,12.0,0.0
24668,52.0,1.0,120.0,3.0,0.0
24669,59.0,0.0,120.0,3.0,0.0
24670,40.0,23.0,120.0,13.0,0.0
24671,83.0,0.0,30.0,7.0,0.0
24672,64.0,30.0,30.0,7.0,0.0
24673,59.0,0.0,30.0,7.0,0.0
24674,79.0,0.0,30.0,7.0,0.0
24675,76.0,30.0,30.0,7.0,0.0
24676,55.0,0.0,30.0,7.0,0.0
24677,64.0,1.0,30.0,7.0,0.0
24678,83.0,0.0,30.0,7.0,0.0
24679,57.0,30.0,30.0,7.0,0.0
24680,72.0,0.0,30.0,7.0,0.0
24681,69.0,30.0,30.0,7.0,0.0
24682,84.0,0.0,30.0,7.0,0.0
24683,81.0,0.0,30.0,7.0,0.0
24684,76.0,30.0,30.0,7.0,0.0
24685,60.0,0.0,30.0,7.0,0.0
24686,64.0,0.0,30.0,7.0,0.0
24687,84.0,0.0,30.0,7.0,0.0
24688,69.0,30.0,30.0,7.0,0.0
24689,53.0,30.0,30.0,7.0,0.0
24690,72.0,0.0,30.0,7.0,0.0
24691,84.0,0.0,30.0,7.0,0.0
24692,65.0,30.0,30.0,7.0,0.0
24693,60.0,0.0,30.0,7.0,0.0
24694,57.0,0.0,30.0,7.0,0.0
24695,77.0,30.0,30.0,7.0,0.0
24696,81.0,0.0,30.0,7.0,0.0
24697,84.0,0.0,30.0,7.0,0.0
24698,65.0,30.0,30.0,7.0,0.0
24699,58.0,30.0,30.0,7.0,0.0
24700,74.0,0.0,30.0,7.0,0.0
24701,70.0,0.0,30.0,7.0,0.0
24702,86.0,30.0,30.0,7.0,0.0
24703,65.0,0.0,30.0,7.0,0.0
24704,82.0,0.0,30.0,7.0,0.0
24705,77.0,30.0,30.0,7.0,0.0
24706,62.0,0.0,30.0,7.0,0.0
24707,70.0,0.0,30.0,7.0,0.0
24708,86.0,30.0,30.0,7.0,0.0
24709,72.0,0.0,120.0,8.0,0.0
24710,53.0,30.0,30.0,7.0,0.0
24711,93.0,0.0,120.0,0.0,0.0
24712,72.0,0.0,30.0,7.0,0.0
24713,81.0,0.0,120.0,1.0,0.0
24714,84.0,1.0,120.0,1.0,0.0
24715,72.0,2.0,120.0,2.0,0.0
24716,69.0,0.0,120.0,10.0,0.0
24717,69.0,0.0,120.0,2.0,0.0
24718,53.0,0.0,120.0,11.0,0.0
24719,65.0,1.0,120.0,11.0,0.0
24720,53.0,1.0,120.0,12.0,0.0
24721,57.0,1.0,120.0,3.0,0.0
24722,53.0,0.0,120.0,3.0,0.0
24723,41.0,113.0,120.0,13.0,0.0
24724,65.0,0.0,30.0,7.0,0.0
24725,84.0,30.0,30.0,7.0,0.0
24726,60.0,0.0,30.0,7.0,0.0
24727,81.0,30.0,30.0,7.0,0.0
24728,57.0,0.0,30.0,7.0,0.0
24729,77.0,0.0,30.0,7.0,0.0
24730,84.0,0.0,30.0,7.0,0.0
24731,65.0,1.0,30.0,7.0,0.0
24732,89.0,0.0,15.0,0.0,0.0
24733,74.0,0.0,120.0,8.0,0.0
24734,95.0,0.0,120.0,0.0,0.0
24735,86.0,0.0,120.0,1.0,0.0
24736,82.0,1.0,120.0,1.0,0.0
24737,70.0,0.0,120.0,10.0,0.0
24738,70.0,2.0,120.0,2.0,0.0
24739,74.0,0.0,120.0,2.0,0.0
24740,65.0,0.0,120.0,11.0,0.0
24741,53.0,1.0,120.0,11.0,0.0
24742,58.0,1.0,120.0,12.0,0.0
24743,58.0,0.0,120.0,3.0,0.0
24744,62.0,1.0,120.0,3.0,0.0
24745,46.0,23.0,120.0,13.0,0.0
24746,72.0,1.0,120.0,8.0,0.0
24747,53.0,0.0,30.0,7.0,0.0
24748,72.0,30.0,30.0,7.0,0.0
24749,93.0,0.0,120.0,0.0,0.0
24750,89.0,1.0,15.0,0.0,0.0
24751,84.0,0.0,120.0,1.0,0.0
24752,81.0,1.0,120.0,1.0,0.0
24753,69.0,2.0,120.0,10.0,0.0
24754,72.0,0.0,120.0,2.0,0.0
24755,69.0,0.0,120.0,2.0,0.0
24756,53.0,1.0,120.0,11.0,0.0
24757,65.0,0.0,120.0,11.0,0.0
24758,53.0,1.0,120.0,12.0,0.0
24759,57.0,0.0,120.0,3.0,0.0
24760,60.0,1.0,120.0,3.0,0.0
24761,41.0,23.0,120.0,13.0,0.0
24762,84.0,0.0,30.0,7.0,0.0
24763,65.0,30.0,30.0,7.0,0.0
24764,60.0,0.0,30.0,7.0,0.0
24765,57.0,0.0,30.0,7.0,0.0
24766,77.0,30.0,30.0,7.0,0.0
24767,81.0,0.0,30.0,7.0,0.0
24768,84.0,0.0,30.0,7.0,0.0
24769,65.0,0.0,30.0,7.0,0.0
24770,58.0,30.0,30.0,7.0,0.0
24771,74.0,0.0,30.0,7.0,0.0
24772,86.0,0.0,30.0,7.0,0.0
24773,70.0,30.0,30.0,7.0,0.0
24774,62.0,0.0,30.0,7.0,0.0
24775,65.0,0.0,30.0,7.0,0.0
24776,82.0,30.0,30.0,7.0,0.0
24777,77.0,0.0,30.0,7.0,0.0
24778,86.0,30.0,30.0,7.0,0.0
24779,70.0,0.0,30.0,7.0,0.0
24780,53.0,0.0,30.0,7.0,0.0
24781,72.0,30.0,30.0,7.0,0.0
24782,65.0,0.0,30.0,7.0,0.0
24783,84.0,30.0,30.0,7.0,0.0
24784,81.0,0.0,30.0,7.0,0.0
24785,77.0,30.0,30.0,7.0,0.0
24786,57.0,0.0,30.0,7.0,0.0
24787,60.0,0.0,30.0,7.0,0.0
24788,65.0,30.0,30.0,7.0,0.0
24789,84.0,0.0,30.0,7.0,0.0
24790,74.0,30.0,30.0,7.0,0.0
24791,58.0,0.0,30.0,7.0,0.0
24792,70.0,0.0,30.0,7.0,0.0
24793,86.0,30.0,30.0,7.0,0.0
24794,77.0,0.0,30.0,7.0,0.0
24795,62.0,0.0,30.0,7.0,0.0
24796,82.0,30.0,30.0,7.0,0.0
24797,65.0,0.0,30.0,7.0,0.0
24798,86.0,30.0,30.0,7.0,0.0
24799,70.0,0.0,30.0,7.0,0.0
24800,74.0,0.0,120.0,8.0,0.0
24801,55.0,30.0,30.0,7.0,0.0
24802,86.0,1.0,120.0,0.0,0.0
24803,74.0,0.0,30.0,7.0,0.0
24804,83.0,1.0,120.0,1.0,0.0
24805,74.0,0.0,120.0,2.0,0.0
24806,62.0,0.0,120.0,10.0,0.0
24807,71.0,2.0,120.0,2.0,0.0
24808,55.0,1.0,120.0,11.0,0.0
24809,55.0,1.0,120.0,12.0,0.0
24810,62.0,0.0,120.0,3.0,0.0
24811,59.0,1.0,120.0,3.0,0.0
24812,43.0,23.0,120.0,13.0,0.0
24813,86.0,30.0,30.0,7.0,0.0
24814,67.0,0.0,30.0,7.0,0.0
24815,79.0,0.0,30.0,7.0,0.0
24816,59.0,0.0,30.0,7.0,0.0
24817,62.0,0.0,30.0,7.0,0.0
24818,83.0,30.0,30.0,7.0,0.0
24819,67.0,0.0,30.0,7.0,0.0
24820,86.0,0.0,30.0,7.0,0.0
24821,60.0,30.0,30.0,7.0,0.0
24822,76.0,0.0,30.0,7.0,0.0
24823,76.0,0.0,120.0,8.0,0.0
24824,84.0,1.0,120.0,1.0,0.0
24825,64.0,2.0,120.0,10.0,0.0
24826,72.0,0.0,120.0,2.0,0.0
24827,60.0,1.0,120.0,11.0,0.0
24828,60.0,1.0,120.0,12.0,0.0
24829,60.0,0.0,120.0,3.0,0.0
24830,48.0,23.0,120.0,13.0,0.0
24831,88.0,0.0,30.0,7.0,0.0
24832,72.0,30.0,30.0,7.0,0.0
24833,84.0,0.0,30.0,7.0,0.0
24834,67.0,0.0,30.0,7.0,0.0
24835,64.0,0.0,30.0,7.0,0.0
24836,79.0,30.0,30.0,7.0,0.0
24837,72.0,1.0,30.0,7.0,0.0
24838,88.0,0.0,30.0,7.0,0.0
24839,88.0,0.0,15.0,0.0,0.0
24840,81.0,1.0,120.0,8.0,0.0
24841,57.0,30.0,30.0,7.0,0.0
24842,76.0,0.0,30.0,7.0,0.0
24843,85.0,1.0,120.0,1.0,0.0
24844,76.0,0.0,15.0,2.0,0.0
24845,69.0,2.0,120.0,10.0,0.0
24846,73.0,0.0,120.0,2.0,0.0
24847,57.0,1.0,120.0,11.0,0.0
24848,57.0,1.0,120.0,12.0,0.0
24849,61.0,0.0,120.0,3.0,0.0
24850,64.0,1.0,15.0,3.0,0.0
24851,45.0,23.0,120.0,13.0,0.0
24852,88.0,0.0,30.0,7.0,0.0
24853,69.0,30.0,30.0,7.0,0.0
24854,61.0,30.0,30.0,7.0,0.0
24855,64.0,0.0,30.0,7.0,0.0
24856,85.0,0.0,30.0,7.0,0.0
24857,81.0,0.0,30.0,7.0,0.0
24858,69.0,0.0,30.0,7.0,0.0
24859,88.0,0.0,30.0,7.0,0.0
24860,62.0,0.0,30.0,7.0,0.0
24861,78.0,0.0,120.0,8.0,0.0
24862,78.0,30.0,30.0,7.0,0.0
24863,86.0,1.0,120.0,1.0,0.0
24864,74.0,2.0,120.0,2.0,0.0
24865,78.0,0.0,120.0,2.0,0.0
24866,66.0,0.0,120.0,10.0,0.0
24867,62.0,1.0,120.0,11.0,0.0
24868,62.0,1.0,120.0,12.0,0.0
24869,66.0,0.0,120.0,3.0,0.0
24870,62.0,1.0,120.0,3.0,0.0
24871,50.0,23.0,120.0,13.0,0.0
24872,74.0,30.0,30.0,7.0,0.0
24873,90.0,0.0,30.0,7.0,0.0
24874,69.0,0.0,30.0,7.0,0.0
24875,66.0,0.0,30.0,7.0,0.0
24876,86.0,0.0,30.0,7.0,0.0
24877,81.0,30.0,30.0,7.0,0.0
24878,90.0,0.0,30.0,7.0,0.0
24879,74.0,0.0,30.0,7.0,0.0
24880,83.0,0.0,120.0,8.0,0.0
24881,78.0,0.0,30.0,7.0,0.0
24882,90.0,1.0,15.0,0.0,0.0
24883,59.0,30.0,30.0,7.0,0.0
24884,87.0,1.0,120.0,1.0,0.0
24885,75.0,0.0,120.0,2.0,0.0
24886,78.0,2.0,120.0,2.0,0.0
24887,71.0,0.0,120.0,10.0,0.0
24888,59.0,1.0,120.0,11.0,0.0
24889,59.0,1.0,120.0,12.0,0.0
24890,63.0,0.0,120.0,3.0,0.0
24891,66.0,1.0,120.0,3.0,0.0
24892,47.0,23.0,120.0,13.0,0.0
24893,90.0,30.0,30.0,7.0,0.0
24894,71.0,0.0,30.0,7.0,0.0
24895,87.0,0.0,30.0,7.0,0.0
24896,66.0,0.0,30.0,7.0,0.0
24897,83.0,0.0,30.0,7.0,0.0
24898,63.0,30.0,30.0,7.0,0.0
24899,71.0,0.0,30.0,7.0,0.0
24900,90.0,0.0,30.0,7.0,0.0
24901,79.0,0.0,120.0,8.0,0.0
24902,79.0,30.0,30.0,7.0,0.0
24903,64.0,0.0,30.0,7.0,0.0
24904,79.0,0.0,120.0,2.0,0.0
24905,67.0,0.0,120.0,10.0,0.0
24906,64.0,1.0,120.0,11.0,0.0
24907,64.0,1.0,120.0,12.0,0.0
24908,52.0,23.0,120.0,13.0,0.0
24909,76.0,30.0,30.0,7.0,0.0
24910,91.0,0.0,30.0,7.0,0.0
24911,71.0,0.0,30.0,7.0,0.0
24912,67.0,0.0,30.0,7.0,0.0
24913,88.0,0.0,30.0,7.0,0.0
24914,83.0,30.0,30.0,7.0,0.0
24915,76.0,0.0,30.0,7.0,0.0
24916,91.0,1.0,30.0,7.0,0.0
24917,91.0,0.0,15.0,0.0,0.0
24918,84.0,0.0,120.0,8.0,0.0
24919,79.0,0.0,30.0,7.0,0.0
24920,60.0,30.0,30.0,7.0,0.0
24921,88.0,1.0,15.0,1.0,0.0
24922,76.0,2.0,15.0,2.0,0.0
24923,79.0,0.0,120.0,2.0,0.0
24924,72.0,2.0,120.0,10.0,0.0
24925,60.0,1.0,120.0,11.0,0.0
24926,60.0,1.0,120.0,12.0,0.0
24927,64.0,0.0,15.0,3.0,0.0
24928,67.0,1.0,15.0,3.0,0.0
24929,48.0,23.0,120.0,13.0,0.0
24930,72.0,0.0,30.0,7.0,0.0
24931,91.0,30.0,30.0,7.0,0.0
24932,84.0,0.0,30.0,7.0,0.0
24933,88.0,30.0,30.0,7.0,0.0
24934,64.0,0.0,30.0,7.0,0.0
24935,67.0,0.0,30.0,7.0,0.0
24936,72.0,0.0,30.0,7.0,0.0
24937,91.0,1.0,30.0,7.0,0.0
24938,81.0,0.0,120.0,8.0,0.0
24939,81.0,0.0,30.0,7.0,0.0
24940,66.0,30.0,30.0,7.0,0.0
24941,86.0,1.0,120.0,1.0,0.0
24942,74.0,0.0,120.0,2.0,0.0
24943,69.0,2.0,120.0,10.0,0.0
24944,81.0,0.0,120.0,2.0,0.0
24945,66.0,1.0,120.0,11.0,0.0
24946,66.0,1.0,120.0,12.0,0.0
24947,69.0,1.0,120.0,3.0,0.0
24948,54.0,23.0,120.0,13.0,0.0
24949,78.0,0.0,30.0,7.0,0.0
24950,93.0,30.0,30.0,7.0,0.0
24951,72.0,0.0,30.0,7.0,0.0
24952,69.0,0.0,30.0,7.0,0.0
24953,90.0,0.0,30.0,7.0,0.0
24954,84.0,30.0,30.0,7.0,0.0
24955,93.0,0.0,30.0,7.0,0.0
24956,78.0,1.0,30.0,7.0,0.0
24957,86.0,0.0,120.0,8.0,0.0
24958,62.0,0.0,30.0,7.0,0.0
24959,81.0,30.0,30.0,7.0,0.0
24960,93.0,0.0,15.0,0.0,0.0
24961,84.0,1.0,120.0,1.0,0.0
24962,74.0,0.0,120.0,10.0,0.0
24963,72.0,0.0,120.0,2.0,0.0
24964,81.0,2.0,120.0,2.0,0.0
24965,62.0,1.0,120.0,11.0,0.0
24966,62.0,1.0,120.0,12.0,0.0
24967,66.0,0.0,15.0,3.0,0.0
24968,69.0,1.0,120.0,3.0,0.0
24969,50.0,53.0,120.0,13.0,0.0
24970,74.0,30.0,30.0,7.0,0.0
24971,93.0,0.0,30.0,7.0,0.0
24972,90.0,30.0,30.0,7.0,0.0
24973,66.0,0.0,30.0,7.0,0.0
24974,69.0,0.0,30.0,7.0,0.0
24975,86.0,0.0,30.0,7.0,0.0
24976,74.0,0.0,30.0,7.0,0.0
24977,93.0,1.0,30.0,7.0,0.0
24978,83.0,0.0,90.0,8.0,0.0
24979,55.0,0.0,60.0,7.0,0.0
24980,91.0,0.0,600.0,0.0,0.0
24981,83.0,1.0,120.0,1.0,0.0
24982,79.0,5.0,60.0,5.0,0.0
24983,67.0,0.0,60.0,5.0,0.0
24984,71.0,4.0,960.0,4.0,0.0
24985,67.0,0.0,960.0,4.0,0.0
24986,71.0,58.0,120.0,2.0,0.0
24987,79.0,4.0,600.0,2.0,0.0
24988,74.0,2.0,90.0,10.0,0.0
24989,67.0,1.0,90.0,11.0,0.0
24990,55.0,2.0,90.0,12.0,0.0
24991,55.0,24.0,60.0,6.0,0.0
24992,67.0,54.0,600.0,3.0,0.0
24993,43.0,23.0,90.0,13.0,0.0
24994,83.0,1.0,30.0,7.0,0.0
24995,86.0,2.0,30.0,7.0,0.0
24996,91.0,1.0,30.0,7.0,0.0
24997,71.0,2.0,90.0,8.0,0.0
24998,95.0,0.0,60.0,7.0,0.0
24999,67.0,2.0,90.0,10.0,0.0
25000,62.0,26.0,90.0,11.0,0.0
25001,62.0,30.0,30.0,7.0,0.0
25002,67.0,0.0,30.0,7.0,0.0
25003,71.0,60.0,30.0,7.0,0.0
25004,55.0,0.0,60.0,7.0,0.0
25005,55.0,2.0,90.0,12.0,0.0
25006,43.0,23.0,90.0,13.0,0.0
25007,83.0,30.0,30.0,7.0,0.0
25008,86.0,5.0,30.0,7.0,0.0
25009,91.0,60.0,30.0,7.0,0.0
25010,95.0,30.0,60.0,7.0,0.0
25011,71.0,2.0,90.0,8.0,0.0
25012,67.0,2.0,90.0,10.0,0.0
25013,62.0,26.0,90.0,11.0,0.0
25014,62.0,0.0,30.0,7.0,0.0
25015,67.0,0.0,30.0,7.0,0.0
25016,71.0,60.0,30.0,7.0,0.0
25017,55.0,30.0,60.0,7.0,0.0
25018,55.0,2.0,90.0,12.0,0.0
25019,43.0,23.0,90.0,13.0,0.0
25020,83.0,0.0,30.0,7.0,0.0
25021,86.0,5.0,30.0,7.0,0.0
25022,91.0,2.0,30.0,7.0,0.0
25023,71.0,2.0,90.0,8.0,0.0
25024,86.0,2.0,120.0,0.0,0.0
25025,95.0,30.0,60.0,7.0,0.0
25026,74.0,4.0,120.0,2.0,0.0
25027,67.0,2.0,90.0,10.0,0.0
25028,62.0,26.0,90.0,11.0,0.0
25029,62.0,54.0,120.0,3.0,0.0
25030,62.0,0.0,30.0,7.0,0.0
25031,67.0,0.0,30.0,7.0,0.0
25032,71.0,0.0,30.0,7.0,0.0
25033,55.0,30.0,60.0,7.0,0.0
25034,84.0,0.0,120.0,0.0,0.0
25035,72.0,4.0,120.0,2.0,0.0
25036,55.0,2.0,90.0,12.0,0.0
25037,60.0,54.0,120.0,3.0,0.0
25038,43.0,23.0,90.0,13.0,0.0
25039,83.0,0.0,30.0,7.0,0.0
25040,86.0,5.0,30.0,7.0,0.0
25041,91.0,2.0,30.0,7.0,0.0
25042,83.0,2.0,120.0,0.0,0.0
25043,95.0,0.0,60.0,7.0,0.0
25044,71.0,0.0,90.0,8.0,0.0
25045,71.0,0.0,120.0,2.0,0.0
25046,67.0,2.0,90.0,10.0,0.0
25047,62.0,26.0,90.0,11.0,0.0
25048,59.0,54.0,120.0,3.0,0.0
25049,62.0,30.0,30.0,7.0,0.0
25050,67.0,2.0,30.0,7.0,0.0
25051,71.0,0.0,30.0,7.0,0.0
25052,88.0,2.0,600.0,0.0,0.0
25053,48.0,0.0,60.0,7.0,0.0
25054,79.0,5.0,60.0,5.0,0.0
25055,67.0,0.0,60.0,5.0,0.0
25056,69.0,0.0,960.0,4.0,0.0
25057,67.0,0.0,960.0,4.0,0.0
25058,76.0,3.0,600.0,2.0,0.0
25059,60.0,2.0,120.0,12.0,0.0
25060,55.0,24.0,60.0,6.0,0.0
25061,64.0,1.0,600.0,3.0,0.0
25062,48.0,53.0,120.0,13.0,0.0
25063,88.0,1.0,30.0,7.0,0.0
25064,93.0,30.0,30.0,7.0,0.0
25065,96.0,5.0,30.0,7.0,0.0
25066,76.0,2.0,120.0,8.0,0.0
25067,100.0,30.0,60.0,7.0,0.0
25068,69.0,2.0,120.0,10.0,0.0
25069,60.0,56.0,120.0,11.0,0.0
25070,60.0,0.0,30.0,7.0,0.0
25071,64.0,30.0,30.0,7.0,0.0
25072,69.0,0.0,30.0,7.0,0.0
25073,48.0,0.0,60.0,7.0,0.0
25074,48.0,2.0,120.0,12.0,0.0
25075,36.0,53.0,120.0,13.0,0.0
25076,88.0,30.0,30.0,7.0,0.0
25077,93.0,30.0,30.0,7.0,0.0
25078,96.0,5.0,30.0,7.0,0.0
25079,100.0,30.0,60.0,7.0,0.0
25080,76.0,2.0,120.0,8.0,0.0
25081,69.0,2.0,120.0,10.0,0.0
25082,60.0,56.0,120.0,11.0,0.0
25083,60.0,0.0,30.0,7.0,0.0
25084,64.0,30.0,30.0,7.0,0.0
25085,69.0,0.0,30.0,7.0,0.0
25086,48.0,30.0,60.0,7.0,0.0
25087,48.0,1.0,120.0,12.0,0.0
25088,36.0,53.0,120.0,13.0,0.0
25089,88.0,0.0,30.0,7.0,0.0
25090,93.0,30.0,30.0,7.0,0.0
25091,96.0,0.0,30.0,7.0,0.0
25092,76.0,0.0,120.0,8.0,0.0
25093,100.0,0.0,60.0,7.0,0.0
25094,84.0,0.0,120.0,0.0,0.0
25095,69.0,0.0,120.0,10.0,0.0
25096,72.0,2.0,120.0,2.0,0.0
25097,60.0,2.0,120.0,11.0,0.0
25098,60.0,54.0,120.0,3.0,0.0
25099,60.0,30.0,30.0,7.0,0.0
25100,64.0,30.0,30.0,7.0,0.0
25101,69.0,2.0,30.0,7.0,0.0
25102,83.0,2.0,120.0,0.0,0.0
25103,48.0,0.0,60.0,7.0,0.0
25104,71.0,3.0,120.0,2.0,0.0
25105,48.0,1.0,120.0,12.0,0.0
25106,59.0,1.0,120.0,3.0,0.0
25107,36.0,53.0,120.0,13.0,0.0
25108,88.0,30.0,30.0,7.0,0.0
25109,93.0,30.0,30.0,7.0,0.0
25110,96.0,0.0,30.0,7.0,0.0
25111,76.0,0.0,120.0,8.0,0.0
25112,100.0,0.0,60.0,7.0,0.0
25113,81.0,0.0,120.0,0.0,0.0
25114,69.0,0.0,120.0,10.0,0.0
25115,69.0,2.0,120.0,2.0,0.0
25116,60.0,2.0,120.0,11.0,0.0
25117,57.0,54.0,120.0,3.0,0.0
25118,60.0,30.0,30.0,7.0,0.0
25119,64.0,30.0,30.0,7.0,0.0
25120,69.0,2.0,30.0,7.0,0.0
25121,50.0,0.0,60.0,7.0,0.0
25122,84.0,2.0,480.0,0.0,0.0
25123,62.0,5.0,60.0,5.0,0.0
25124,74.0,0.0,60.0,5.0,0.0
25125,84.0,0.0,600.0,2.0,0.0
25126,62.0,0.0,600.0,4.0,0.0
25127,69.0,3.0,600.0,4.0,0.0
25128,50.0,2.0,120.0,12.0,0.0
25129,60.0,1.0,600.0,3.0,0.0
25130,50.0,24.0,60.0,6.0,0.0
25131,38.0,41.0,120.0,13.0,0.0
25132,90.0,1.0,30.0,7.0,0.0
25133,93.0,30.0,30.0,7.0,0.0
25134,96.0,5.0,30.0,7.0,0.0
25135,102.0,12.0,60.0,7.0,0.0
25136,72.0,0.0,120.0,8.0,0.0
25137,69.0,2.0,120.0,10.0,0.0
25138,62.0,56.0,120.0,11.0,0.0
25139,57.0,12.0,20.0,7.0,0.0
25140,60.0,24.0,20.0,7.0,0.0
25141,62.0,24.0,20.0,7.0,0.0
25142,66.0,2.0,20.0,7.0,0.0
25143,50.0,30.0,60.0,7.0,0.0
25144,50.0,2.0,120.0,12.0,0.0
25145,38.0,41.0,120.0,13.0,0.0
25146,90.0,0.0,30.0,7.0,0.0
25147,93.0,30.0,30.0,7.0,0.0
25148,96.0,5.0,30.0,7.0,0.0
25149,72.0,0.0,120.0,8.0,0.0
25150,102.0,12.0,60.0,7.0,0.0
25151,69.0,2.0,120.0,10.0,0.0
25152,62.0,56.0,120.0,11.0,0.0
25153,57.0,12.0,20.0,7.0,0.0
25154,60.0,24.0,20.0,7.0,0.0
25155,62.0,24.0,20.0,7.0,0.0
25156,66.0,0.0,20.0,7.0,0.0
25157,50.0,0.0,60.0,7.0,0.0
25158,50.0,1.0,120.0,12.0,0.0
25159,38.0,41.0,120.0,13.0,0.0
25160,90.0,30.0,30.0,7.0,0.0
25161,93.0,30.0,30.0,7.0,0.0
25162,96.0,2.0,30.0,7.0,0.0
25163,102.0,12.0,60.0,7.0,0.0
25164,72.0,2.0,120.0,8.0,0.0
25165,69.0,0.0,120.0,10.0,0.0
25166,81.0,2.0,120.0,2.0,0.0
25167,62.0,2.0,120.0,11.0,0.0
25168,57.0,54.0,120.0,3.0,0.0
25169,57.0,12.0,20.0,7.0,0.0
25170,60.0,24.0,20.0,7.0,0.0
25171,62.0,24.0,20.0,7.0,0.0
25172,66.0,0.0,20.0,7.0,0.0
25173,50.0,30.0,60.0,7.0,0.0
25174,79.0,3.0,120.0,2.0,0.0
25175,50.0,1.0,120.0,12.0,0.0
25176,55.0,1.0,120.0,3.0,0.0
25177,38.0,41.0,120.0,13.0,0.0
25178,90.0,0.0,30.0,7.0,0.0
25179,93.0,30.0,30.0,7.0,0.0
25180,96.0,2.0,30.0,7.0,0.0
25181,102.0,12.0,60.0,7.0,0.0
25182,72.0,2.0,120.0,8.0,0.0
25183,69.0,0.0,120.0,10.0,0.0
25184,78.0,2.0,120.0,2.0,0.0
25185,62.0,2.0,120.0,11.0,0.0
25186,54.0,54.0,120.0,3.0,0.0
25187,57.0,12.0,20.0,7.0,0.0
25188,60.0,24.0,20.0,7.0,0.0
25189,62.0,24.0,20.0,7.0,0.0
25190,66.0,0.0,20.0,7.0,0.0
25191,50.0,30.0,60.0,7.0,0.0
25192,81.0,3.0,120.0,2.0,0.0
25193,50.0,1.0,120.0,12.0,0.0
25194,69.0,1.0,120.0,3.0,0.0
25195,38.0,41.0,120.0,13.0,0.0
25196,90.0,0.0,30.0,7.0,0.0
25197,93.0,30.0,30.0,7.0,0.0
25198,96.0,2.0,30.0,7.0,0.0
25199,102.0,12.0,60.0,7.0,0.0
25200,72.0,2.0,120.0,8.0,0.0
25201,78.0,0.0,120.0,2.0,0.0
25202,69.0,2.0,120.0,10.0,0.0
25203,62.0,2.0,120.0,11.0,0.0
25204,66.0,54.0,120.0,3.0,0.0
25205,57.0,12.0,20.0,7.0,0.0
25206,60.0,24.0,20.0,7.0,0.0
25207,62.0,24.0,20.0,7.0,0.0
25208,66.0,0.0,20.0,7.0,0.0
25209,50.0,0.0,60.0,7.0,0.0
25210,76.0,3.0,120.0,2.0,0.0
25211,50.0,1.0,120.0,12.0,0.0
25212,64.0,1.0,120.0,3.0,0.0
25213,38.0,41.0,120.0,13.0,0.0
25214,90.0,30.0,30.0,7.0,0.0
25215,93.0,30.0,30.0,7.0,0.0
25216,96.0,2.0,30.0,7.0,0.0
25217,72.0,0.0,120.0,8.0,0.0
25218,102.0,12.0,60.0,7.0,0.0
25219,69.0,0.0,120.0,10.0,0.0
25220,74.0,2.0,120.0,2.0,0.0
25221,62.0,2.0,120.0,11.0,0.0
25222,62.0,54.0,120.0,3.0,0.0
25223,57.0,12.0,20.0,7.0,0.0
25224,60.0,24.0,20.0,7.0,0.0
25225,62.0,24.0,20.0,7.0,0.0
25226,66.0,2.0,20.0,7.0,0.0
25227,50.0,30.0,60.0,7.0,0.0
25228,76.0,3.0,120.0,2.0,0.0
25229,50.0,1.0,120.0,12.0,0.0
25230,64.0,1.0,120.0,3.0,0.0
25231,38.0,41.0,120.0,13.0,0.0
25232,90.0,0.0,30.0,7.0,0.0
25233,93.0,30.0,30.0,7.0,0.0
25234,96.0,2.0,30.0,7.0,0.0
25235,72.0,0.0,120.0,8.0,0.0
25236,102.0,12.0,60.0,7.0,0.0
25237,69.0,2.0,120.0,10.0,0.0
25238,72.0,0.0,120.0,2.0,0.0
25239,62.0,2.0,120.0,11.0,0.0
25240,60.0,54.0,120.0,3.0,0.0
25241,57.0,12.0,20.0,7.0,0.0
25242,60.0,24.0,20.0,7.0,0.0
25243,62.0,24.0,20.0,7.0,0.0
25244,66.0,2.0,20.0,7.0,0.0
25245,50.0,30.0,60.0,7.0,0.0
25246,71.0,3.0,120.0,2.0,0.0
25247,50.0,1.0,120.0,12.0,0.0
25248,59.0,1.0,120.0,3.0,0.0
25249,38.0,41.0,120.0,13.0,0.0
25250,90.0,0.0,30.0,7.0,0.0
25251,93.0,30.0,30.0,7.0,0.0
25252,96.0,2.0,30.0,7.0,0.0
25253,102.0,12.0,60.0,7.0,0.0
25254,72.0,0.0,120.0,8.0,0.0
25255,81.0,2.0,120.0,0.0,0.0
25256,69.0,0.0,120.0,10.0,0.0
25257,69.0,2.0,120.0,2.0,0.0
25258,62.0,2.0,120.0,11.0,0.0
25259,57.0,54.0,120.0,3.0,0.0
25260,57.0,12.0,20.0,7.0,0.0
25261,60.0,24.0,20.0,7.0,0.0
25262,62.0,24.0,20.0,7.0,0.0
25263,66.0,0.0,20.0,7.0,0.0
25264,50.0,30.0,60.0,7.0,0.0
25265,84.0,2.0,120.0,0.0,0.0
25266,72.0,3.0,120.0,2.0,0.0
25267,50.0,1.0,120.0,12.0,0.0
25268,60.0,1.0,120.0,3.0,0.0
25269,38.0,41.0,120.0,13.0,0.0
25270,90.0,0.0,30.0,7.0,0.0
25271,93.0,30.0,30.0,7.0,0.0
25272,96.0,0.0,30.0,7.0,0.0
25273,72.0,0.0,120.0,8.0,0.0
25274,102.0,12.0,60.0,7.0,0.0
25275,81.0,0.0,120.0,0.0,0.0
25276,69.0,2.0,120.0,10.0,0.0
25277,69.0,0.0,120.0,2.0,0.0
25278,62.0,2.0,120.0,11.0,0.0
25279,57.0,54.0,120.0,3.0,0.0
25280,57.0,12.0,20.0,7.0,0.0
25281,60.0,24.0,20.0,7.0,0.0
25282,62.0,24.0,20.0,7.0,0.0
25283,66.0,2.0,20.0,7.0,0.0
25284,88.0,0.0,120.0,0.0,0.0
25285,50.0,30.0,60.0,7.0,0.0
25286,76.0,3.0,120.0,2.0,0.0
25287,50.0,1.0,120.0,12.0,0.0
25288,64.0,1.0,120.0,3.0,0.0
25289,38.0,41.0,120.0,13.0,0.0
25290,90.0,0.0,30.0,7.0,0.0
25291,93.0,30.0,30.0,7.0,0.0
25292,96.0,2.0,30.0,7.0,0.0
25293,72.0,0.0,120.0,8.0,0.0
25294,102.0,12.0,60.0,7.0,0.0
25295,86.0,2.0,120.0,0.0,0.0
25296,69.0,0.0,120.0,10.0,0.0
25297,62.0,2.0,120.0,11.0,0.0
25298,62.0,54.0,120.0,3.0,0.0
25299,57.0,12.0,20.0,7.0,0.0
25300,60.0,24.0,20.0,7.0,0.0
25301,62.0,24.0,20.0,7.0,0.0
25302,66.0,0.0,20.0,7.0,0.0
25303,55.0,0.0,60.0,7.0,0.0
25304,86.0,2.0,360.0,0.0,0.0
25305,74.0,2.0,15.0,2.0,0.0
25306,55.0,2.0,120.0,12.0,0.0
25307,62.0,1.0,360.0,3.0,0.0
25308,43.0,53.0,120.0,13.0,0.0
25309,91.0,30.0,30.0,7.0,0.0
25310,95.0,30.0,30.0,7.0,0.0
25311,98.0,5.0,30.0,7.0,0.0
25312,103.0,0.0,60.0,7.0,0.0
25313,71.0,0.0,120.0,8.0,0.0
25314,67.0,2.0,120.0,10.0,0.0
25315,62.0,56.0,120.0,11.0,0.0
25316,59.0,30.0,30.0,7.0,0.0
25317,62.0,30.0,30.0,7.0,0.0
25318,67.0,2.0,30.0,7.0,0.0
25319,55.0,0.0,60.0,7.0,0.0
25320,55.0,1.0,120.0,12.0,0.0
25321,43.0,53.0,120.0,13.0,0.0
25322,91.0,30.0,30.0,7.0,0.0
25323,95.0,30.0,30.0,7.0,0.0
25324,98.0,0.0,30.0,7.0,0.0
25325,83.0,0.0,120.0,0.0,0.0
25326,103.0,0.0,60.0,7.0,0.0
25327,71.0,0.0,120.0,8.0,0.0
25328,67.0,2.0,120.0,10.0,0.0
25329,71.0,0.0,120.0,2.0,0.0
25330,62.0,2.0,120.0,11.0,0.0
25331,59.0,54.0,120.0,3.0,0.0
25332,59.0,30.0,30.0,7.0,0.0
25333,62.0,30.0,30.0,7.0,0.0
25334,67.0,2.0,30.0,7.0,0.0
25335,84.0,0.0,60.0,0.0,0.0
25336,50.0,0.0,60.0,7.0,0.0
25337,72.0,4.0,60.0,2.0,0.0
25338,50.0,1.0,120.0,12.0,0.0
25339,60.0,24.0,60.0,3.0,0.0
25340,38.0,41.0,120.0,13.0,0.0
25341,90.0,2.0,30.0,7.0,0.0
25342,93.0,30.0,30.0,7.0,0.0
25343,81.0,0.0,60.0,0.0,0.0
25344,69.0,3.0,60.0,2.0,0.0
25345,57.0,1.0,60.0,3.0,0.0
25346,96.0,2.0,30.0,7.0,0.0
25347,72.0,0.0,120.0,8.0,0.0
25348,80.0,0.0,60.0,0.0,0.0
25349,102.0,2.0,60.0,7.0,0.0
25350,68.0,4.0,60.0,2.0,0.0
25351,69.0,0.0,120.0,10.0,0.0
25352,62.0,2.0,120.0,11.0,0.0
25353,56.0,6.0,60.0,3.0,0.0
25354,57.0,12.0,20.0,7.0,0.0
25355,60.0,24.0,20.0,7.0,0.0
25356,81.0,2.0,60.0,0.0,0.0
25357,69.0,2.0,60.0,2.0,0.0
25358,57.0,54.0,60.0,3.0,0.0
25359,62.0,24.0,20.0,7.0,0.0
25360,66.0,0.0,20.0,7.0,0.0
25361,84.0,0.0,60.0,0.0,0.0
25362,50.0,2.0,60.0,7.0,0.0
25363,72.0,4.0,60.0,2.0,0.0
25364,50.0,1.0,120.0,12.0,0.0
25365,60.0,24.0,60.0,3.0,0.0
25366,38.0,41.0,120.0,13.0,0.0
25367,90.0,0.0,30.0,7.0,0.0
25368,81.0,0.0,60.0,0.0,0.0
25369,93.0,30.0,30.0,7.0,0.0
25370,69.0,3.0,60.0,2.0,0.0
25371,57.0,1.0,60.0,3.0,0.0
25372,96.0,2.0,30.0,7.0,0.0
25373,88.0,0.0,60.0,0.0,0.0
25374,72.0,0.0,120.0,8.0,0.0
25375,102.0,2.0,60.0,7.0,0.0
25376,69.0,2.0,120.0,10.0,0.0
25377,76.0,4.0,60.0,2.0,0.0
25378,62.0,2.0,120.0,11.0,0.0
25379,64.0,6.0,60.0,3.0,0.0
25380,57.0,12.0,20.0,7.0,0.0
25381,60.0,24.0,20.0,7.0,0.0
25382,86.0,0.0,60.0,0.0,0.0
25383,74.0,0.0,60.0,2.0,0.0
25384,62.0,54.0,60.0,3.0,0.0
25385,62.0,24.0,20.0,7.0,0.0
25386,66.0,2.0,20.0,7.0,0.0
25387,86.0,0.0,360.0,0.0,0.0
25388,55.0,30.0,60.0,7.0,0.0
25389,74.0,3.0,360.0,2.0,0.0
25390,55.0,2.0,120.0,12.0,0.0
25391,62.0,1.0,360.0,3.0,0.0
25392,43.0,53.0,120.0,13.0,0.0
25393,91.0,0.0,30.0,7.0,0.0
25394,95.0,30.0,30.0,7.0,0.0
25395,98.0,5.0,30.0,7.0,0.0
25396,71.0,2.0,120.0,8.0,0.0
25397,103.0,30.0,60.0,7.0,0.0
25398,67.0,2.0,120.0,10.0,0.0
25399,62.0,56.0,120.0,11.0,0.0
25400,59.0,0.0,30.0,7.0,0.0
25401,62.0,30.0,30.0,7.0,0.0
25402,67.0,0.0,30.0,7.0,0.0
25403,55.0,0.0,60.0,7.0,0.0
25404,55.0,1.0,120.0,12.0,0.0
25405,43.0,53.0,120.0,13.0,0.0
25406,91.0,30.0,30.0,7.0,0.0
25407,95.0,30.0,30.0,7.0,0.0
25408,98.0,2.0,30.0,7.0,0.0
25409,71.0,0.0,120.0,8.0,0.0
25410,103.0,30.0,60.0,7.0,0.0
25411,67.0,2.0,120.0,10.0,0.0
25412,62.0,26.0,120.0,11.0,0.0
25413,59.0,0.0,30.0,7.0,0.0
25414,83.0,0.0,60.0,7.0,0.0
25415,71.0,2.0,60.0,7.0,0.0
25416,62.0,30.0,30.0,7.0,0.0
25417,67.0,0.0,30.0,7.0,0.0
25418,84.0,30.0,60.0,7.0,0.0
25419,72.0,0.0,60.0,7.0,0.0
25420,50.0,30.0,30.0,7.0,0.0
25421,54.0,0.0,30.0,7.0,0.0
25422,81.0,30.0,60.0,7.0,0.0
25423,69.0,0.0,60.0,7.0,0.0
25424,57.0,30.0,30.0,7.0,0.0
25425,60.0,0.0,30.0,7.0,0.0
25426,80.0,30.0,60.0,7.0,0.0
25427,68.0,0.0,60.0,7.0,0.0
25428,50.0,30.0,30.0,7.0,0.0
25429,54.0,0.0,30.0,7.0,0.0
25430,81.0,30.0,60.0,7.0,0.0
25431,69.0,0.0,60.0,7.0,0.0
25432,57.0,30.0,30.0,7.0,0.0
25433,60.0,0.0,30.0,7.0,0.0
25434,50.0,30.0,30.0,7.0,0.0
25435,84.0,30.0,60.0,7.0,0.0
25436,72.0,0.0,60.0,7.0,0.0
25437,54.0,0.0,30.0,7.0,0.0
25438,69.0,30.0,60.0,7.0,0.0
25439,57.0,30.0,30.0,7.0,0.0
25440,60.0,0.0,30.0,7.0,0.0
25441,81.0,0.0,15.0,7.0,0.0
25442,90.0,30.0,90.0,7.0,0.0
25443,50.0,30.0,30.0,7.0,0.0
25444,54.0,30.0,30.0,7.0,0.0
25445,57.0,0.0,30.0,7.0,0.0
25446,60.0,0.0,30.0,7.0,0.0
25447,84.0,0.0,15.0,7.0,0.0
25448,78.0,0.0,15.0,7.0,0.0
25449,81.0,0.0,15.0,7.0,0.0
25450,50.0,30.0,30.0,7.0,0.0
25451,84.0,0.0,15.0,7.0,0.0
25452,78.0,0.0,15.0,7.0,0.0
25453,90.0,30.0,15.0,7.0,0.0
25454,54.0,30.0,30.0,7.0,0.0
25455,57.0,30.0,30.0,7.0,0.0
25456,60.0,0.0,30.0,7.0,0.0
25457,50.0,30.0,30.0,7.0,0.0
25458,72.0,0.0,90.0,8.0,0.0
25459,50.0,2.0,90.0,12.0,0.0
25460,38.0,23.0,90.0,13.0,0.0
25461,54.0,30.0,30.0,7.0,0.0
25462,57.0,2.0,30.0,7.0,0.0
25463,60.0,0.0,30.0,7.0,0.0
25464,69.0,2.0,15.0,10.0,0.0
25465,62.0,1.0,15.0,11.0,0.0
25466,50.0,2.0,30.0,12.0,0.0
25467,38.0,23.0,30.0,13.0,0.0
25468,50.0,30.0,30.0,7.0,0.0
25469,72.0,2.0,15.0,8.0,0.0
25470,69.0,2.0,120.0,10.0,0.0
25471,62.0,1.0,120.0,11.0,0.0
25472,50.0,2.0,120.0,12.0,0.0
25473,38.0,23.0,120.0,13.0,0.0
25474,54.0,30.0,30.0,7.0,0.0
25475,57.0,30.0,30.0,7.0,0.0
25476,60.0,2.0,30.0,7.0,0.0
25477,50.0,30.0,30.0,7.0,0.0
25478,54.0,30.0,30.0,7.0,0.0
25479,57.0,0.0,30.0,7.0,0.0
25480,60.0,0.0,30.0,7.0,0.0
25481,93.0,0.0,15.0,7.0,0.0
25482,90.0,0.0,15.0,7.0,0.0
25483,81.0,0.0,15.0,7.0,0.0
25484,84.0,30.0,15.0,7.0,0.0
25485,93.0,0.0,15.0,7.0,0.0
25486,90.0,30.0,15.0,7.0,0.0
25487,84.0,0.0,15.0,7.0,0.0
25488,50.0,30.0,30.0,7.0,0.0
25489,81.0,0.0,15.0,7.0,0.0
25490,54.0,30.0,30.0,7.0,0.0
25491,57.0,30.0,30.0,7.0,0.0
25492,60.0,0.0,30.0,7.0,0.0
25493,50.0,0.0,30.0,7.0,0.0
25494,72.0,2.0,90.0,8.0,0.0
25495,62.0,30.0,30.0,7.0,0.0
25496,62.0,1.0,90.0,11.0,0.0
25497,66.0,30.0,30.0,7.0,0.0
25498,54.0,0.0,30.0,7.0,0.0
25499,57.0,0.0,30.0,7.0,0.0
25500,69.0,0.0,30.0,7.0,0.0
25501,72.0,0.0,30.0,7.0,0.0
25502,60.0,0.0,30.0,7.0,0.0
25503,69.0,2.0,15.0,10.0,0.0
25504,50.0,2.0,15.0,12.0,0.0
25505,38.0,23.0,15.0,13.0,0.0
25506,72.0,2.0,15.0,8.0,0.0
25507,50.0,0.0,30.0,7.0,0.0
25508,62.0,30.0,30.0,7.0,0.0
25509,69.0,2.0,120.0,10.0,0.0
25510,62.0,1.0,15.0,11.0,0.0
25511,50.0,2.0,120.0,12.0,0.0
25512,38.0,23.0,120.0,13.0,0.0
25513,66.0,30.0,30.0,7.0,0.0
25514,54.0,0.0,30.0,7.0,0.0
25515,69.0,0.0,30.0,7.0,0.0
25516,57.0,30.0,30.0,7.0,0.0
25517,60.0,2.0,30.0,7.0,0.0
25518,72.0,0.0,30.0,7.0,0.0
25519,62.0,0.0,30.0,7.0,0.0
25520,50.0,30.0,30.0,7.0,0.0
25521,84.0,1.0,90.0,1.0,0.0
25522,78.0,0.0,90.0,2.0,0.0
25523,54.0,0.0,30.0,7.0,0.0
25524,66.0,30.0,30.0,7.0,0.0
25525,57.0,0.0,30.0,7.0,0.0
25526,69.0,1.0,30.0,7.0,0.0
25527,60.0,0.0,30.0,7.0,0.0
25528,72.0,1.0,30.0,7.0,0.0
25529,50.0,0.0,15.0,4.0,0.0
25530,69.0,28.0,15.0,4.0,0.0
25531,50.0,0.0,30.0,7.0,0.0
25532,62.0,30.0,30.0,7.0,0.0
25533,84.0,1.0,15.0,1.0,0.0
25534,78.0,28.0,15.0,2.0,0.0
25535,50.0,0.0,15.0,4.0,0.0
25536,69.0,0.0,15.0,4.0,0.0
25537,66.0,0.0,30.0,7.0,0.0
25538,54.0,30.0,30.0,7.0,0.0
25539,69.0,0.0,30.0,7.0,0.0
25540,57.0,30.0,30.0,7.0,0.0
25541,72.0,0.0,30.0,7.0,0.0
25542,60.0,1.0,30.0,7.0,0.0
25543,50.0,0.0,30.0,7.0,0.0
25544,62.0,30.0,30.0,7.0,0.0
25545,84.0,1.0,15.0,1.0,0.0
25546,50.0,28.0,90.0,4.0,0.0
25547,78.0,28.0,15.0,2.0,0.0
25548,69.0,0.0,90.0,4.0,0.0
25549,66.0,0.0,30.0,7.0,0.0
25550,54.0,30.0,30.0,7.0,0.0
25551,69.0,0.0,30.0,7.0,0.0
25552,57.0,1.0,30.0,7.0,0.0
25553,60.0,0.0,30.0,7.0,0.0
25554,72.0,1.0,30.0,7.0,0.0
25555,84.0,1.0,15.0,1.0,0.0
25556,50.0,0.0,30.0,4.0,0.0
25557,62.0,30.0,30.0,7.0,0.0
25558,50.0,0.0,30.0,7.0,0.0
25559,84.0,1.0,120.0,1.0,0.0
25560,78.0,0.0,15.0,2.0,0.0
25561,69.0,28.0,15.0,4.0,0.0
25562,50.0,0.0,120.0,4.0,0.0
25563,66.0,30.0,30.0,7.0,0.0
25564,54.0,0.0,30.0,7.0,0.0
25565,57.0,30.0,30.0,7.0,0.0
25566,69.0,0.0,30.0,7.0,0.0
25567,72.0,1.0,30.0,7.0,0.0
25568,60.0,0.0,30.0,7.0,0.0
25569,66.0,30.0,30.0,7.0,0.0
25570,54.0,0.0,30.0,7.0,0.0
25571,78.0,0.0,15.0,2.0,0.0
25572,50.0,0.0,90.0,4.0,0.0
25573,69.0,0.0,90.0,4.0,0.0
25574,63.0,24.0,90.0,3.0,0.0
25575,69.0,30.0,30.0,7.0,0.0
25576,57.0,0.0,30.0,7.0,0.0
25577,60.0,0.0,30.0,7.0,0.0
25578,72.0,1.0,30.0,7.0,0.0
25579,63.0,0.0,30.0,7.0,0.0
25580,75.0,1.0,30.0,7.0,0.0
25581,84.0,1.0,15.0,1.0,0.0
25582,78.0,4.0,15.0,2.0,0.0
25583,69.0,0.0,30.0,4.0,0.0
25584,50.0,0.0,30.0,4.0,0.0
25585,54.0,0.0,30.0,7.0,0.0
25586,66.0,30.0,30.0,7.0,0.0
25587,84.0,1.0,15.0,1.0,0.0
25588,78.0,4.0,15.0,2.0,0.0
25589,63.0,24.0,15.0,3.0,0.0
25590,57.0,30.0,30.0,7.0,0.0
25591,69.0,0.0,30.0,7.0,0.0
25592,72.0,0.0,30.0,7.0,0.0
25593,60.0,30.0,30.0,7.0,0.0
25594,63.0,0.0,30.0,7.0,0.0
25595,75.0,1.0,30.0,7.0,0.0
25596,69.0,30.0,30.0,7.0,0.0
25597,57.0,0.0,30.0,7.0,0.0
25598,84.0,1.0,15.0,1.0,0.0
25599,69.0,0.0,15.0,4.0,0.0
25600,50.0,4.0,15.0,4.0,0.0
25601,78.0,0.0,90.0,2.0,0.0
25602,63.0,24.0,15.0,3.0,0.0
25603,72.0,30.0,30.0,7.0,0.0
25604,60.0,0.0,30.0,7.0,0.0
25605,63.0,1.0,30.0,7.0,0.0
25606,75.0,0.0,30.0,7.0,0.0
25607,78.0,0.0,30.0,7.0,0.0
25608,66.0,1.0,30.0,7.0,0.0
25609,84.0,1.0,30.0,1.0,0.0
25610,78.0,0.0,30.0,2.0,0.0
25611,50.0,0.0,15.0,4.0,0.0
25612,69.0,4.0,15.0,4.0,0.0
25613,63.0,24.0,15.0,3.0,0.0
25614,69.0,0.0,30.0,7.0,0.0
25615,57.0,30.0,30.0,7.0,0.0
25616,84.0,1.0,120.0,1.0,0.0
25617,50.0,0.0,120.0,4.0,0.0
25618,63.0,24.0,15.0,3.0,0.0
25619,60.0,0.0,30.0,7.0,0.0
25620,72.0,30.0,30.0,7.0,0.0
25621,63.0,0.0,30.0,7.0,0.0
25622,75.0,30.0,30.0,7.0,0.0
25623,66.0,1.0,30.0,7.0,0.0
25624,78.0,0.0,30.0,7.0,0.0
25625,90.0,1.0,90.0,0.0,0.0
25626,72.0,0.0,30.0,7.0,0.0
25627,60.0,30.0,30.0,7.0,0.0
25628,84.0,1.0,90.0,1.0,0.0
25629,50.0,0.0,90.0,4.0,0.0
25630,69.0,4.0,15.0,4.0,0.0
25631,78.0,0.0,15.0,2.0,0.0
25632,63.0,24.0,90.0,3.0,0.0
25633,63.0,0.0,30.0,7.0,0.0
25634,75.0,30.0,30.0,7.0,0.0
25635,78.0,0.0,30.0,7.0,0.0
25636,66.0,0.0,30.0,7.0,0.0
25637,81.0,0.0,30.0,7.0,0.0
25638,69.0,0.0,30.0,7.0,0.0
25639,50.0,4.0,30.0,4.0,0.0
25640,69.0,0.0,30.0,4.0,0.0
25641,78.0,0.0,30.0,2.0,0.0
25642,63.0,34.0,30.0,3.0,0.0
25643,90.0,1.0,15.0,0.0,0.0
25644,72.0,1.0,120.0,8.0,0.0
25645,66.0,20.0,30.0,7.0,0.0
25646,78.0,0.0,30.0,7.0,0.0
25647,84.0,1.0,15.0,1.0,0.0
25648,78.0,4.0,60.0,2.0,0.0
25649,69.0,0.0,120.0,10.0,0.0
25650,64.0,1.0,120.0,11.0,0.0
25651,50.0,1.0,120.0,12.0,0.0
25652,63.0,14.0,60.0,3.0,0.0
25653,38.0,33.0,120.0,13.0,0.0
25654,79.0,0.0,30.0,7.0,0.0
25655,67.0,40.0,30.0,7.0,0.0
25656,90.0,1.0,15.0,0.0,0.0
25657,84.0,1.0,15.0,1.0,0.0
25658,69.0,0.0,15.0,4.0,0.0
25659,50.0,0.0,15.0,4.0,0.0
25660,80.0,0.0,30.0,7.0,0.0
25661,68.0,0.0,30.0,7.0,0.0
25662,90.0,1.0,60.0,0.0,0.0
25663,69.0,20.0,30.0,7.0,0.0
25664,81.0,0.0,30.0,7.0,0.0
25665,84.0,1.0,60.0,1.0,0.0
25666,69.0,0.0,15.0,4.0,0.0
25667,50.0,0.0,15.0,4.0,0.0
25668,78.0,2.0,15.0,2.0,0.0
25669,63.0,1.0,15.0,3.0,0.0
25670,70.0,40.0,30.0,7.0,0.0
25671,82.0,0.0,30.0,7.0,0.0
25672,90.0,0.0,60.0,0.0,0.0
25673,84.0,1.0,60.0,1.0,0.0
25674,69.0,0.0,15.0,4.0,0.0
25675,50.0,0.0,15.0,4.0,0.0
25676,78.0,4.0,15.0,2.0,0.0
25677,63.0,14.0,15.0,3.0,0.0
25678,71.0,1.0,30.0,7.0,0.0
25679,83.0,0.0,30.0,7.0,0.0
25680,90.0,1.0,60.0,0.0,0.0
25681,72.0,0.0,30.0,7.0,0.0
25682,84.0,20.0,30.0,7.0,0.0
25683,50.0,4.0,15.0,4.0,0.0
25684,69.0,0.0,60.0,4.0,0.0
25685,63.0,34.0,15.0,3.0,0.0
25686,73.0,0.0,30.0,7.0,0.0
25687,85.0,40.0,30.0,7.0,0.0
25688,84.0,1.0,15.0,1.0,0.0
25689,78.0,4.0,15.0,2.0,0.0
25690,69.0,0.0,60.0,4.0,0.0
25691,50.0,0.0,60.0,4.0,0.0
25692,63.0,14.0,15.0,3.0,0.0
25693,86.0,0.0,30.0,7.0,0.0
25694,74.0,1.0,30.0,7.0,0.0
25695,90.0,0.0,15.0,0.0,0.0
25696,75.0,0.0,30.0,7.0,0.0
25697,87.0,20.0,30.0,7.0,0.0
25698,84.0,1.0,15.0,1.0,0.0
25699,78.0,4.0,15.0,2.0,0.0
25700,63.0,14.0,60.0,3.0,0.0
25701,76.0,40.0,30.0,7.0,0.0
25702,88.0,0.0,30.0,7.0,0.0
25703,90.0,0.0,60.0,0.0,0.0
25704,84.0,1.0,60.0,1.0,0.0
25705,50.0,0.0,15.0,4.0,0.0
25706,78.0,0.0,15.0,2.0,0.0
25707,69.0,4.0,15.0,4.0,0.0
25708,77.0,0.0,30.0,7.0,0.0
25709,89.0,1.0,30.0,7.0,0.0
25710,72.0,0.0,120.0,8.0,0.0
25711,78.0,0.0,30.0,7.0,0.0
25712,90.0,20.0,30.0,7.0,0.0
25713,90.0,1.0,60.0,0.0,0.0
25714,69.0,0.0,120.0,10.0,0.0
25715,69.0,0.0,60.0,4.0,0.0
25716,64.0,1.0,120.0,11.0,0.0
25717,50.0,1.0,120.0,12.0,0.0
25718,63.0,34.0,15.0,3.0,0.0
25719,38.0,33.0,120.0,13.0,0.0
25720,79.0,0.0,30.0,7.0,0.0
25721,91.0,40.0,30.0,7.0,0.0
25722,90.0,0.0,60.0,0.0,0.0
25723,84.0,1.0,15.0,1.0,0.0
25724,50.0,0.0,15.0,4.0,0.0
25725,78.0,4.0,15.0,2.0,0.0
25726,69.0,0.0,60.0,4.0,0.0
25727,63.0,14.0,15.0,3.0,0.0
25728,92.0,0.0,30.0,7.0,0.0
25729,80.0,1.0,30.0,7.0,0.0
25730,93.0,20.0,30.0,7.0,0.0
25731,81.0,0.0,30.0,7.0,0.0
25732,78.0,0.0,60.0,2.0,0.0
25733,50.0,0.0,60.0,4.0,0.0
25734,63.0,14.0,60.0,3.0,0.0
25735,94.0,0.0,30.0,7.0,0.0
25736,82.0,40.0,30.0,7.0,0.0
25737,90.0,1.0,15.0,0.0,0.0
25738,84.0,1.0,15.0,1.0,0.0
25739,50.0,0.0,60.0,4.0,0.0
25740,69.0,4.0,15.0,4.0,0.0
25741,63.0,34.0,60.0,3.0,0.0
25742,95.0,0.0,30.0,7.0,0.0
25743,83.0,0.0,30.0,7.0,0.0
25744,96.0,0.0,30.0,7.0,0.0
25745,84.0,20.0,30.0,7.0,0.0
25746,90.0,1.0,15.0,0.0,0.0
25747,84.0,1.0,15.0,1.0,0.0
25748,69.0,0.0,15.0,4.0,0.0
25749,78.0,4.0,15.0,2.0,0.0
25750,85.0,0.0,30.0,7.0,0.0
25751,97.0,40.0,30.0,7.0,0.0
25752,90.0,1.0,15.0,0.0,0.0
25753,84.0,1.0,15.0,1.0,0.0
25754,50.0,0.0,15.0,4.0,0.0
25755,78.0,0.0,60.0,2.0,0.0
25756,69.0,4.0,15.0,4.0,0.0
25757,63.0,14.0,15.0,3.0,0.0
25758,98.0,0.0,30.0,7.0,0.0
25759,86.0,1.0,30.0,7.0,0.0
25760,99.0,0.0,20.0,7.0,0.0
25761,87.0,24.0,20.0,7.0,0.0
25762,78.0,4.0,60.0,2.0,0.0
25763,63.0,18.0,15.0,3.0,0.0
25764,100.0,0.0,20.0,7.0,0.0
25765,88.0,12.0,20.0,7.0,0.0
25766,89.0,0.0,20.0,7.0,0.0
25767,101.0,24.0,20.0,7.0,0.0
25768,90.0,1.0,15.0,0.0,0.0
25769,84.0,1.0,15.0,1.0,0.0
25770,69.0,0.0,15.0,4.0,0.0
25771,50.0,0.0,15.0,4.0,0.0
25772,78.0,0.0,60.0,2.0,0.0
25773,63.0,24.0,60.0,3.0,0.0
25774,90.0,0.0,20.0,7.0,0.0
25775,102.0,24.0,20.0,7.0,0.0
25776,103.0,0.0,20.0,7.0,0.0
25777,91.0,1.0,20.0,7.0,0.0
25778,91.0,0.0,120.0,0.0,0.0
25779,105.0,0.0,30.0,7.0,0.0
25780,83.0,0.0,30.0,7.0,0.0
25781,86.0,30.0,30.0,7.0,0.0
25782,95.0,0.0,30.0,7.0,0.0
25783,83.0,1.0,120.0,1.0,0.0
25784,55.0,4.0,120.0,4.0,0.0
25785,67.0,0.0,120.0,4.0,0.0
25786,79.0,0.0,120.0,2.0,0.0
25787,62.0,24.0,120.0,3.0,0.0
25788,98.0,30.0,30.0,7.0,0.0
25789,103.0,0.0,30.0,7.0,0.0
25790,91.0,0.0,30.0,7.0,0.0
25791,95.0,0.0,30.0,7.0,0.0
25792,83.0,0.0,30.0,7.0,0.0
25793,86.0,30.0,30.0,7.0,0.0
25794,105.0,0.0,30.0,7.0,0.0
25795,103.0,0.0,30.0,7.0,0.0
25796,91.0,1.0,30.0,7.0,0.0
25797,98.0,0.0,30.0,7.0,0.0
25798,105.0,30.0,30.0,7.0,0.0
25799,95.0,0.0,30.0,7.0,0.0
25800,83.0,0.0,30.0,7.0,0.0
25801,86.0,0.0,30.0,7.0,0.0
25802,103.0,30.0,30.0,7.0,0.0
25803,91.0,0.0,30.0,7.0,0.0
25804,98.0,0.0,30.0,7.0,0.0
25805,83.0,0.0,30.0,7.0,0.0
25806,105.0,0.0,30.0,7.0,0.0
25807,95.0,30.0,30.0,7.0,0.0
25808,86.0,0.0,30.0,7.0,0.0
25809,91.0,0.0,30.0,7.0,0.0
25810,98.0,0.0,30.0,7.0,0.0
25811,103.0,30.0,30.0,7.0,0.0
25812,95.0,30.0,30.0,7.0,0.0
25813,83.0,0.0,30.0,7.0,0.0
25814,86.0,0.0,30.0,7.0,0.0
25815,105.0,0.0,30.0,7.0,0.0
25816,91.0,0.0,120.0,0.0,0.0
25817,83.0,1.0,120.0,1.0,0.0
25818,79.0,0.0,120.0,2.0,0.0
25819,55.0,4.0,120.0,4.0,0.0
25820,67.0,0.0,120.0,4.0,0.0
25821,55.0,24.0,120.0,3.0,0.0
25822,103.0,30.0,30.0,7.0,0.0
25823,98.0,0.0,30.0,7.0,0.0
25824,91.0,0.0,30.0,7.0,0.0
25825,95.0,30.0,30.0,7.0,0.0
25826,86.0,0.0,30.0,7.0,0.0
25827,83.0,0.0,30.0,7.0,0.0
25828,105.0,0.0,30.0,7.0,0.0
25829,103.0,1.0,30.0,7.0,0.0
25830,98.0,0.0,30.0,7.0,0.0
25831,91.0,0.0,30.0,7.0,0.0
25832,105.0,0.0,30.0,7.0,0.0
25833,95.0,0.0,30.0,7.0,0.0
25834,83.0,0.0,30.0,7.0,0.0
25835,86.0,30.0,30.0,7.0,0.0
25836,98.0,0.0,30.0,7.0,0.0
25837,103.0,0.0,30.0,7.0,0.0
25838,91.0,30.0,30.0,7.0,0.0
25839,105.0,0.0,30.0,7.0,0.0
25840,95.0,30.0,30.0,7.0,0.0
25841,83.0,0.0,30.0,7.0,0.0
25842,86.0,0.0,30.0,7.0,0.0
25843,103.0,0.0,30.0,7.0,0.0
25844,91.0,30.0,30.0,7.0,0.0
25845,98.0,0.0,30.0,7.0,0.0
25846,95.0,30.0,30.0,7.0,0.0
25847,105.0,0.0,30.0,7.0,0.0
25848,83.0,0.0,30.0,7.0,0.0
25849,86.0,0.0,30.0,7.0,0.0
25850,91.0,1.0,120.0,0.0,0.0
25851,83.0,1.0,120.0,1.0,0.0
25852,62.0,0.0,120.0,4.0,0.0
25853,79.0,0.0,120.0,2.0,0.0
25854,55.0,4.0,120.0,4.0,0.0
25855,50.0,24.0,120.0,3.0,0.0
25856,91.0,0.0,30.0,7.0,0.0
25857,98.0,30.0,30.0,7.0,0.0
25858,103.0,0.0,30.0,7.0,0.0
25859,95.0,0.0,30.0,7.0,0.0
25860,86.0,0.0,30.0,7.0,0.0
25861,83.0,0.0,30.0,7.0,0.0
25862,105.0,30.0,30.0,7.0,0.0
25863,91.0,0.0,30.0,7.0,0.0
25864,98.0,0.0,30.0,7.0,0.0
25865,103.0,0.0,30.0,7.0,0.0
25866,86.0,30.0,30.0,7.0,0.0
25867,83.0,0.0,30.0,7.0,0.0
25868,95.0,0.0,30.0,7.0,0.0
25869,105.0,0.0,30.0,7.0,0.0
25870,91.0,30.0,30.0,7.0,0.0
25871,98.0,0.0,30.0,7.0,0.0
25872,103.0,0.0,30.0,7.0,0.0
25873,86.0,0.0,30.0,7.0,0.0
25874,83.0,0.0,30.0,7.0,0.0
25875,95.0,0.0,30.0,7.0,0.0
25876,105.0,30.0,30.0,7.0,0.0
25877,98.0,0.0,30.0,7.0,0.0
25878,91.0,30.0,30.0,7.0,0.0
25879,103.0,0.0,30.0,7.0,0.0
25880,86.0,0.0,30.0,7.0,0.0
25881,95.0,30.0,30.0,7.0,0.0
25882,105.0,0.0,30.0,7.0,0.0
25883,83.0,0.0,30.0,7.0,0.0
25884,67.0,0.0,120.0,8.0,0.0
25885,91.0,0.0,120.0,0.0,0.0
25886,83.0,1.0,120.0,1.0,0.0
25887,55.0,2.0,120.0,4.0,0.0
25888,59.0,0.0,120.0,4.0,0.0
25889,79.0,0.0,120.0,2.0,0.0
25890,62.0,0.0,120.0,10.0,0.0
25891,55.0,1.0,120.0,11.0,0.0
25892,55.0,1.0,120.0,12.0,0.0
25893,47.0,1.0,120.0,3.0,0.0
25894,43.0,23.0,120.0,13.0,0.0
25895,98.0,0.0,30.0,7.0,0.0
25896,91.0,30.0,30.0,7.0,0.0
25897,103.0,0.0,30.0,7.0,0.0
25898,86.0,0.0,30.0,7.0,0.0
25899,105.0,0.0,30.0,7.0,0.0
25900,95.0,30.0,30.0,7.0,0.0
25901,83.0,0.0,30.0,7.0,0.0
25902,103.0,1.0,30.0,7.0,0.0
25903,98.0,0.0,30.0,7.0,0.0
25904,91.0,0.0,30.0,7.0,0.0
25905,105.0,0.0,30.0,7.0,0.0
25906,95.0,30.0,30.0,7.0,0.0
25907,83.0,0.0,30.0,7.0,0.0
25908,86.0,0.0,30.0,7.0,0.0
25909,103.0,0.0,30.0,7.0,0.0
25910,98.0,0.0,30.0,7.0,0.0
25911,91.0,30.0,30.0,7.0,0.0
25912,105.0,30.0,30.0,7.0,0.0
25913,95.0,0.0,30.0,7.0,0.0
25914,86.0,0.0,30.0,7.0,0.0
25915,83.0,0.0,30.0,7.0,0.0
25916,103.0,30.0,30.0,7.0,0.0
25917,98.0,0.0,30.0,7.0,0.0
25918,91.0,0.0,30.0,7.0,0.0
25919,95.0,30.0,30.0,7.0,0.0
25920,105.0,0.0,30.0,7.0,0.0
25921,67.0,1.0,120.0,8.0,0.0
25922,83.0,0.0,30.0,7.0,0.0
25923,86.0,0.0,30.0,7.0,0.0
25924,91.0,0.0,120.0,0.0,0.0
25925,83.0,1.0,120.0,1.0,0.0
25926,59.0,2.0,120.0,10.0,0.0
25927,79.0,0.0,120.0,2.0,0.0
25928,43.0,28.0,3000.0,4.0,0.0
25929,55.0,1.0,120.0,11.0,0.0
25930,55.0,1.0,120.0,12.0,0.0
25931,43.0,1.0,120.0,3.0,0.0
25932,43.0,23.0,120.0,13.0,0.0
25933,103.0,30.0,30.0,7.0,0.0
25934,91.0,0.0,30.0,7.0,0.0
25935,98.0,0.0,30.0,7.0,0.0
25936,86.0,0.0,30.0,7.0,0.0
25937,83.0,0.0,30.0,7.0,0.0
25938,95.0,30.0,30.0,7.0,0.0
25939,105.0,0.0,30.0,7.0,0.0
25940,91.0,0.0,30.0,7.0,0.0
25941,98.0,0.0,30.0,7.0,0.0
25942,103.0,0.0,30.0,7.0,0.0
25943,105.0,0.0,30.0,7.0,0.0
25944,95.0,0.0,30.0,7.0,0.0
25945,83.0,0.0,30.0,7.0,0.0
25946,86.0,30.0,30.0,7.0,0.0
25947,91.0,30.0,30.0,7.0,0.0
25948,98.0,0.0,30.0,7.0,0.0
25949,103.0,0.0,30.0,7.0,0.0
25950,95.0,0.0,30.0,7.0,0.0
25951,86.0,30.0,30.0,7.0,0.0
25952,83.0,0.0,30.0,7.0,0.0
25953,105.0,0.0,30.0,7.0,0.0
25954,103.0,0.0,30.0,7.0,0.0
25955,98.0,30.0,30.0,7.0,0.0
25956,91.0,0.0,30.0,7.0,0.0
25957,93.0,0.0,30.0,7.0,0.0
25958,103.0,0.0,30.0,7.0,0.0
25959,84.0,0.0,30.0,7.0,0.0
25960,81.0,30.0,30.0,7.0,0.0
25961,96.0,30.0,30.0,7.0,0.0
25962,90.0,0.0,30.0,7.0,0.0
25963,102.0,0.0,30.0,7.0,0.0
25964,103.0,0.0,30.0,7.0,0.0
25965,84.0,30.0,30.0,7.0,0.0
25966,81.0,0.0,30.0,7.0,0.0
25967,93.0,0.0,30.0,7.0,0.0
25968,96.0,0.0,30.0,7.0,0.0
25969,102.0,30.0,30.0,7.0,0.0
25970,90.0,0.0,30.0,7.0,0.0
25971,83.0,30.0,30.0,7.0,0.0
25972,79.0,0.0,30.0,7.0,0.0
25973,91.0,0.0,30.0,7.0,0.0
25974,102.0,0.0,30.0,7.0,0.0
25975,88.0,0.0,30.0,7.0,0.0
25976,100.0,0.0,30.0,7.0,0.0
25977,95.0,30.0,30.0,7.0,0.0
25978,91.0,0.0,30.0,7.0,0.0
25979,102.0,0.0,30.0,7.0,0.0
25980,79.0,0.0,30.0,7.0,0.0
25981,83.0,30.0,30.0,7.0,0.0
25982,95.0,0.0,30.0,7.0,0.0
25983,100.0,0.0,30.0,7.0,0.0
25984,88.0,30.0,30.0,7.0,0.0
25985,100.0,0.0,30.0,7.0,0.0
25986,90.0,30.0,30.0,7.0,0.0
25987,81.0,0.0,30.0,7.0,0.0
25988,78.0,0.0,30.0,7.0,0.0
25989,86.0,0.0,30.0,7.0,0.0
25990,98.0,0.0,30.0,7.0,0.0
25991,93.0,30.0,30.0,7.0,0.0
25992,100.0,0.0,30.0,7.0,0.0
25993,90.0,0.0,30.0,7.0,0.0
25994,78.0,0.0,30.0,7.0,0.0
25995,81.0,30.0,30.0,7.0,0.0
25996,93.0,0.0,30.0,7.0,0.0
25997,86.0,0.0,30.0,7.0,0.0
25998,98.0,30.0,30.0,7.0,0.0
25999,98.0,30.0,30.0,7.0,0.0
26000,88.0,0.0,30.0,7.0,0.0
26001,76.0,0.0,30.0,7.0,0.0
26002,79.0,0.0,30.0,7.0,0.0
26003,84.0,0.0,30.0,7.0,0.0
26004,91.0,30.0,30.0,7.0,0.0
26005,96.0,0.0,30.0,7.0,0.0
26006,79.0,0.0,30.0,7.0,0.0
26007,76.0,0.0,30.0,7.0,0.0
26008,98.0,0.0,30.0,7.0,0.0
26009,88.0,30.0,30.0,7.0,0.0
26010,84.0,0.0,30.0,7.0,0.0
26011,91.0,0.0,30.0,7.0,0.0
26012,96.0,30.0,15.0,7.0,0.0
26013,86.0,30.0,30.0,7.0,0.0
26014,74.0,0.0,30.0,7.0,0.0
26015,78.0,0.0,30.0,7.0,0.0
26016,83.0,0.0,30.0,7.0,0.0
26017,90.0,0.0,30.0,7.0,0.0
26018,95.0,30.0,30.0,7.0,0.0
26019,96.0,0.0,30.0,7.0,0.0
26020,86.0,0.0,30.0,7.0,0.0
26021,74.0,0.0,30.0,7.0,0.0
26022,78.0,30.0,30.0,7.0,0.0
26023,90.0,0.0,30.0,7.0,0.0
26024,83.0,0.0,30.0,7.0,0.0
26025,76.0,0.0,30.0,7.0,0.0
26026,72.0,0.0,30.0,7.0,0.0
26027,95.0,30.0,15.0,7.0,0.0
26028,84.0,0.0,30.0,7.0,0.0
26029,93.0,30.0,30.0,7.0,0.0
26030,88.0,0.0,30.0,7.0,0.0
26031,81.0,0.0,30.0,7.0,0.0
26032,95.0,0.0,30.0,7.0,0.0
26033,84.0,30.0,30.0,7.0,0.0
26034,72.0,0.0,30.0,7.0,0.0
26035,76.0,0.0,30.0,7.0,0.0
26036,81.0,0.0,30.0,7.0,0.0
26037,88.0,0.0,30.0,7.0,0.0
26038,93.0,30.0,30.0,7.0,0.0
26039,74.0,0.0,30.0,7.0,0.0
26040,71.0,0.0,30.0,7.0,0.0
26041,93.0,30.0,30.0,7.0,0.0
26042,83.0,0.0,30.0,7.0,0.0
26043,67.0,0.0,120.0,8.0,0.0
26044,67.0,2.0,120.0,10.0,0.0
26045,55.0,1.0,120.0,11.0,0.0
26046,55.0,2.0,120.0,12.0,0.0
26047,43.0,23.0,120.0,13.0,0.0
26048,86.0,0.0,30.0,7.0,0.0
26049,91.0,0.0,30.0,7.0,0.0
26050,79.0,30.0,30.0,7.0,0.0
26051,74.0,30.0,30.0,7.0,0.0
26052,71.0,0.0,30.0,7.0,0.0
26053,83.0,0.0,30.0,7.0,0.0
26054,93.0,0.0,30.0,7.0,0.0
26055,79.0,2.0,30.0,7.0,0.0
26056,86.0,0.0,30.0,7.0,0.0
26057,91.0,0.0,30.0,7.0,0.0
26058,93.0,0.0,30.0,7.0,0.0
26059,71.0,0.0,30.0,7.0,0.0
26060,83.0,30.0,30.0,7.0,0.0
26061,74.0,0.0,30.0,7.0,0.0
26062,91.0,0.0,30.0,7.0,0.0
26063,86.0,0.0,30.0,7.0,0.0
26064,79.0,30.0,30.0,7.0,0.0
26065,74.0,0.0,30.0,7.0,0.0
26066,71.0,0.0,30.0,7.0,0.0
26067,83.0,30.0,30.0,7.0,0.0
26068,93.0,0.0,30.0,7.0,0.0
26069,79.0,30.0,30.0,7.0,0.0
26070,91.0,0.0,30.0,7.0,0.0
26071,86.0,0.0,30.0,7.0,0.0
26072,81.0,0.0,30.0,7.0,0.0
26073,91.0,30.0,30.0,7.0,0.0
26074,72.0,0.0,30.0,7.0,0.0
26075,69.0,0.0,30.0,7.0,0.0
26076,78.0,0.0,30.0,7.0,0.0
26077,84.0,0.0,30.0,7.0,0.0
26078,90.0,30.0,30.0,7.0,0.0
26079,72.0,0.0,30.0,7.0,0.0
26080,81.0,0.0,30.0,7.0,0.0
26081,69.0,0.0,30.0,7.0,0.0
26082,91.0,30.0,30.0,7.0,0.0
26083,78.0,0.0,30.0,7.0,0.0
26084,90.0,0.0,30.0,7.0,0.0
26085,84.0,30.0,30.0,7.0,0.0
26086,79.0,0.0,30.0,7.0,0.0
26087,90.0,0.0,30.0,7.0,0.0
26088,67.0,0.0,30.0,7.0,0.0
26089,71.0,30.0,30.0,7.0,0.0
26090,83.0,0.0,30.0,7.0,0.0
26091,76.0,30.0,30.0,7.0,0.0
26092,88.0,0.0,30.0,7.0,0.0
26093,90.0,0.0,30.0,7.0,0.0
26094,79.0,0.0,30.0,7.0,0.0
26095,71.0,30.0,30.0,7.0,0.0
26096,67.0,0.0,30.0,7.0,0.0
26097,76.0,30.0,30.0,7.0,0.0
26098,83.0,0.0,30.0,7.0,0.0
26099,88.0,0.0,15.0,7.0,0.0
26100,69.0,0.0,30.0,7.0,0.0
26101,66.0,0.0,30.0,7.0,0.0
26102,78.0,30.0,30.0,7.0,0.0
26103,74.0,30.0,30.0,7.0,0.0
26104,81.0,0.0,30.0,7.0,0.0
26105,86.0,0.0,30.0,7.0,0.0
26106,78.0,0.0,30.0,7.0,0.0
26107,88.0,0.0,30.0,7.0,0.0
26108,66.0,0.0,30.0,7.0,0.0
26109,69.0,30.0,30.0,7.0,0.0
26110,86.0,30.0,30.0,7.0,0.0
26111,81.0,0.0,30.0,7.0,0.0
26112,74.0,0.0,30.0,7.0,0.0
26113,76.0,0.0,30.0,7.0,0.0
26114,86.0,0.0,30.0,7.0,0.0
26115,67.0,0.0,30.0,7.0,0.0
26116,64.0,30.0,30.0,7.0,0.0
26117,84.0,0.0,30.0,7.0,0.0
26118,72.0,0.0,30.0,7.0,0.0
26119,79.0,30.0,30.0,7.0,0.0
26120,67.0,0.0,30.0,7.0,0.0
26121,64.0,0.0,30.0,7.0,0.0
26122,76.0,30.0,30.0,7.0,0.0
26123,86.0,0.0,30.0,7.0,0.0
26124,72.0,30.0,30.0,7.0,0.0
26125,79.0,0.0,30.0,7.0,0.0
26126,84.0,0.0,30.0,7.0,0.0
26127,74.0,0.0,30.0,7.0,0.0
26128,62.0,30.0,30.0,7.0,0.0
26129,66.0,0.0,30.0,7.0,0.0
26130,84.0,0.0,30.0,7.0,0.0
26131,71.0,0.0,30.0,7.0,0.0
26132,78.0,0.0,30.0,7.0,0.0
26133,83.0,30.0,30.0,7.0,0.0
26134,66.0,0.0,30.0,7.0,0.0
26135,62.0,30.0,30.0,7.0,0.0
26136,74.0,0.0,30.0,7.0,0.0
26137,84.0,0.0,30.0,7.0,0.0
26138,78.0,0.0,30.0,7.0,0.0
26139,71.0,0.0,30.0,7.0,0.0
26140,83.0,30.0,15.0,7.0,0.0
26141,72.0,0.0,30.0,7.0,0.0
26142,60.0,30.0,30.0,7.0,0.0
26143,64.0,0.0,30.0,7.0,0.0
26144,69.0,0.0,30.0,7.0,0.0
26145,76.0,0.0,30.0,7.0,0.0
26146,81.0,30.0,30.0,7.0,0.0
26147,83.0,0.0,30.0,7.0,0.0
26148,72.0,0.0,30.0,7.0,0.0
26149,64.0,0.0,30.0,7.0,0.0
26150,60.0,30.0,30.0,7.0,0.0
26151,81.0,0.0,30.0,7.0,0.0
26152,76.0,0.0,30.0,7.0,0.0
26153,69.0,30.0,30.0,7.0,0.0
26154,62.0,0.0,30.0,7.0,0.0
26155,59.0,0.0,30.0,7.0,0.0
26156,67.0,0.0,120.0,8.0,0.0
26157,81.0,30.0,30.0,7.0,0.0
26158,71.0,0.0,30.0,7.0,0.0
26159,67.0,2.0,120.0,10.0,0.0
26160,55.0,1.0,120.0,11.0,0.0
26161,55.0,2.0,120.0,12.0,0.0
26162,43.0,23.0,120.0,13.0,0.0
26163,67.0,0.0,30.0,7.0,0.0
26164,79.0,30.0,30.0,7.0,0.0
26165,74.0,0.0,30.0,7.0,0.0
26166,81.0,0.0,30.0,7.0,0.0
26167,71.0,0.0,30.0,7.0,0.0
26168,59.0,0.0,30.0,7.0,0.0
26169,62.0,30.0,30.0,7.0,0.0
26170,79.0,0.0,30.0,7.0,0.0
26171,74.0,0.0,30.0,7.0,0.0
26172,67.0,2.0,30.0,7.0,0.0
26173,81.0,0.0,30.0,7.0,0.0
26174,59.0,0.0,30.0,7.0,0.0
26175,62.0,30.0,30.0,7.0,0.0
26176,71.0,0.0,30.0,7.0,0.0
26177,79.0,30.0,30.0,7.0,0.0
26178,74.0,0.0,30.0,7.0,0.0
26179,67.0,0.0,30.0,7.0,0.0
26180,81.0,30.0,30.0,7.0,0.0
26181,59.0,0.0,30.0,7.0,0.0
26182,71.0,0.0,30.0,7.0,0.0
26183,62.0,0.0,30.0,7.0,0.0
26184,67.0,0.0,30.0,7.0,0.0
26185,74.0,0.0,30.0,7.0,0.0
26186,79.0,30.0,30.0,7.0,0.0
26187,57.0,0.0,30.0,7.0,0.0
26188,60.0,30.0,30.0,7.0,0.0
26189,69.0,0.0,30.0,7.0,0.0
26190,79.0,0.0,30.0,7.0,0.0
26191,72.0,30.0,30.0,7.0,0.0
26192,78.0,0.0,30.0,7.0,0.0
26193,66.0,0.0,30.0,7.0,0.0
26194,57.0,30.0,30.0,7.0,0.0
26195,60.0,0.0,30.0,7.0,0.0
26196,79.0,0.0,30.0,7.0,0.0
26197,69.0,0.0,30.0,7.0,0.0
26198,72.0,30.0,30.0,7.0,0.0
26199,78.0,0.0,30.0,7.0,0.0
26200,66.0,0.0,30.0,7.0,0.0
26201,67.0,0.0,30.0,7.0,0.0
26202,59.0,30.0,30.0,7.0,0.0
26203,55.0,0.0,30.0,7.0,0.0
26204,78.0,0.0,30.0,7.0,0.0
26205,64.0,0.0,30.0,7.0,0.0
26206,76.0,30.0,30.0,7.0,0.0
26207,71.0,0.0,30.0,7.0,0.0
26208,55.0,30.0,30.0,7.0,0.0
26209,78.0,0.0,30.0,7.0,0.0
26210,59.0,0.0,30.0,7.0,0.0
26211,67.0,0.0,30.0,7.0,0.0
26212,71.0,0.0,30.0,7.0,0.0
26213,64.0,30.0,30.0,7.0,0.0
26214,57.0,30.0,30.0,7.0,0.0
26215,54.0,0.0,30.0,7.0,0.0
26216,66.0,0.0,30.0,7.0,0.0
26217,76.0,0.0,15.0,7.0,0.0
26218,74.0,0.0,30.0,7.0,0.0
26219,69.0,0.0,30.0,7.0,0.0
26220,62.0,30.0,30.0,7.0,0.0
26221,76.0,0.0,30.0,7.0,0.0
26222,66.0,0.0,30.0,7.0,0.0
26223,54.0,30.0,30.0,7.0,0.0
26224,57.0,0.0,30.0,7.0,0.0
26225,74.0,0.0,30.0,7.0,0.0
26226,69.0,30.0,30.0,7.0,0.0
26227,62.0,0.0,30.0,7.0,0.0
26228,64.0,0.0,30.0,7.0,0.0
26229,74.0,0.0,30.0,7.0,0.0
26230,52.0,0.0,30.0,7.0,0.0
26231,55.0,30.0,30.0,7.0,0.0
26232,72.0,0.0,30.0,7.0,0.0
26233,67.0,0.0,30.0,7.0,0.0
26234,60.0,30.0,30.0,7.0,0.0
26235,74.0,30.0,30.0,7.0,0.0
26236,64.0,0.0,30.0,7.0,0.0
26237,52.0,0.0,30.0,7.0,0.0
26238,55.0,0.0,30.0,7.0,0.0
26239,60.0,0.0,30.0,7.0,0.0
26240,67.0,0.0,30.0,7.0,0.0
26241,72.0,30.0,30.0,7.0,0.0
26242,72.0,0.0,30.0,7.0,0.0
26243,62.0,30.0,30.0,7.0,0.0
26244,54.0,0.0,30.0,7.0,0.0
26245,50.0,0.0,30.0,7.0,0.0
26246,71.0,0.0,30.0,7.0,0.0
26247,66.0,0.0,30.0,7.0,0.0
26248,59.0,30.0,30.0,7.0,0.0
26249,50.0,0.0,30.0,7.0,0.0
26250,62.0,0.0,30.0,7.0,0.0
26251,72.0,30.0,30.0,7.0,0.0
26252,54.0,0.0,30.0,7.0,0.0
26253,66.0,0.0,30.0,7.0,0.0
26254,59.0,0.0,30.0,7.0,0.0
26255,71.0,30.0,30.0,7.0,0.0
26256,71.0,0.0,30.0,7.0,0.0
26257,60.0,0.0,30.0,7.0,0.0
26258,48.0,30.0,30.0,7.0,0.0
26259,52.0,0.0,30.0,7.0,0.0
26260,69.0,30.0,30.0,7.0,0.0
26261,64.0,0.0,30.0,7.0,0.0
26262,57.0,0.0,30.0,7.0,0.0
26263,52.0,0.0,30.0,7.0,0.0
26264,48.0,30.0,30.0,7.0,0.0
26265,71.0,0.0,30.0,7.0,0.0
26266,60.0,0.0,30.0,7.0,0.0
26267,64.0,0.0,30.0,7.0,0.0
26268,57.0,0.0,30.0,7.0,0.0
26269,69.0,22.0,30.0,7.0,0.0
26270,67.0,0.0,360.0,8.0,0.0
26271,43.0,0.0,20.0,7.0,0.0
26272,55.0,38.0,20.0,7.0,0.0
26273,55.0,1.0,360.0,11.0,0.0
26274,43.0,23.0,360.0,13.0,0.0
26275,62.0,30.0,30.0,7.0,0.0
26276,50.0,0.0,30.0,7.0,0.0
26277,59.0,0.0,30.0,7.0,0.0
26278,47.0,30.0,30.0,7.0,0.0
26279,50.0,2.0,30.0,7.0,0.0
26280,62.0,0.0,30.0,7.0,0.0
26281,67.0,0.0,30.0,7.0,0.0
26282,55.0,30.0,30.0,7.0,0.0
26283,62.0,0.0,30.0,7.0,0.0
26284,50.0,30.0,30.0,7.0,0.0
26285,59.0,0.0,30.0,7.0,0.0
26286,47.0,30.0,30.0,7.0,0.0
26287,62.0,22.0,30.0,7.0,0.0
26288,50.0,0.0,30.0,7.0,0.0
26289,67.0,0.0,20.0,7.0,0.0
26290,55.0,38.0,20.0,7.0,0.0
26291,74.0,0.0,30.0,7.0,0.0
26292,62.0,30.0,30.0,7.0,0.0
26293,59.0,0.0,30.0,7.0,0.0
26294,71.0,30.0,30.0,7.0,0.0
26295,74.0,4.0,30.0,7.0,0.0
26296,62.0,0.0,30.0,7.0,0.0
26297,67.0,0.0,90.0,8.0,0.0
26298,67.0,0.0,30.0,7.0,0.0
26299,79.0,30.0,30.0,7.0,0.0
26300,55.0,2.0,15.0,12.0,0.0
26301,74.0,30.0,30.0,7.0,0.0
26302,62.0,0.0,30.0,7.0,0.0
26303,59.0,4.0,30.0,7.0,0.0
26304,71.0,0.0,30.0,7.0,0.0
26305,74.0,0.0,30.0,7.0,0.0
26306,67.0,0.0,30.0,8.0,0.0
26307,55.0,1.0,15.0,11.0,0.0
26308,55.0,2.0,15.0,12.0,0.0
26309,43.0,23.0,15.0,13.0,0.0
26310,74.0,0.0,360.0,8.0,0.0
26311,62.0,4.0,15.0,7.0,0.0
26312,50.0,0.0,20.0,7.0,0.0
26313,62.0,1.0,360.0,11.0,0.0
26314,69.0,30.0,30.0,7.0,0.0
26315,57.0,0.0,30.0,7.0,0.0
26316,66.0,30.0,30.0,7.0,0.0
26317,54.0,0.0,30.0,7.0,0.0
26318,69.0,0.0,30.0,7.0,0.0
26319,57.0,30.0,30.0,7.0,0.0
26320,74.0,30.0,30.0,7.0,0.0
26321,62.0,0.0,30.0,7.0,0.0
26322,69.0,0.0,30.0,7.0,0.0
26323,57.0,30.0,30.0,7.0,0.0
26324,66.0,30.0,30.0,7.0,0.0
26325,54.0,0.0,30.0,7.0,0.0
26326,69.0,22.0,30.0,7.0,0.0
26327,57.0,0.0,30.0,7.0,0.0
26328,74.0,38.0,20.0,7.0,0.0
26329,62.0,0.0,20.0,7.0,0.0
26330,69.0,0.0,30.0,7.0,0.0
26331,81.0,30.0,30.0,7.0,0.0
26332,78.0,30.0,30.0,7.0,0.0
26333,66.0,0.0,30.0,7.0,0.0
26334,69.0,0.0,30.0,7.0,0.0
26335,81.0,4.0,30.0,7.0,0.0
26336,86.0,30.0,30.0,7.0,0.0
26337,74.0,0.0,30.0,7.0,0.0
26338,62.0,1.0,90.0,11.0,0.0
26339,62.0,2.0,15.0,12.0,0.0
26340,50.0,23.0,15.0,13.0,0.0
26341,81.0,30.0,30.0,7.0,0.0
26342,69.0,0.0,30.0,7.0,0.0
26343,78.0,0.0,30.0,7.0,0.0
26344,66.0,0.0,30.0,7.0,0.0
26345,74.0,4.0,15.0,8.0,0.0
26346,81.0,0.0,30.0,7.0,0.0
26347,69.0,0.0,30.0,7.0,0.0
26348,62.0,1.0,30.0,11.0,0.0
26349,62.0,2.0,15.0,12.0,0.0
26350,50.0,23.0,15.0,13.0,0.0
26351,55.0,38.0,20.0,7.0,0.0
26352,67.0,0.0,20.0,7.0,0.0
26353,79.0,4.0,120.0,8.0,0.0
26354,55.0,0.0,360.0,4.0,0.0
26355,67.0,1.0,120.0,11.0,0.0
26356,67.0,2.0,120.0,12.0,0.0
26357,55.0,23.0,120.0,13.0,0.0
26358,74.0,30.0,30.0,7.0,0.0
26359,62.0,0.0,30.0,7.0,0.0
26360,71.0,0.0,30.0,7.0,0.0
26361,59.0,30.0,30.0,7.0,0.0
26362,74.0,0.0,30.0,7.0,0.0
26363,62.0,0.0,30.0,7.0,0.0
26364,79.0,0.0,30.0,7.0,0.0
26365,67.0,30.0,30.0,7.0,0.0
26366,74.0,0.0,30.0,7.0,0.0
26367,62.0,30.0,30.0,7.0,0.0
26368,59.0,0.0,30.0,7.0,0.0
26369,71.0,30.0,30.0,7.0,0.0
26370,62.0,0.0,30.0,7.0,0.0
26371,74.0,22.0,30.0,7.0,0.0
26372,79.0,38.0,20.0,7.0,0.0
26373,67.0,0.0,20.0,7.0,0.0
26374,86.0,30.0,30.0,7.0,0.0
26375,74.0,0.0,30.0,7.0,0.0
26376,71.0,0.0,30.0,7.0,0.0
26377,83.0,30.0,30.0,7.0,0.0
26378,74.0,0.0,30.0,7.0,0.0
26379,86.0,2.0,30.0,7.0,0.0
26380,91.0,0.0,30.0,7.0,0.0
26381,79.0,30.0,30.0,7.0,0.0
26382,67.0,28.0,15.0,4.0,0.0
26383,79.0,0.0,15.0,2.0,0.0
26384,86.0,0.0,30.0,7.0,0.0
26385,74.0,30.0,30.0,7.0,0.0
26386,71.0,2.0,30.0,7.0,0.0
26387,83.0,0.0,30.0,7.0,0.0
26388,86.0,0.0,30.0,7.0,0.0
26389,67.0,28.0,15.0,4.0,0.0
26390,79.0,0.0,30.0,2.0,0.0
26391,55.0,0.0,15.0,4.0,0.0
26392,62.0,38.0,20.0,7.0,0.0
26393,74.0,2.0,15.0,7.0,0.0
26394,74.0,0.0,120.0,8.0,0.0
26395,86.0,0.0,360.0,2.0,0.0
26396,74.0,20.0,360.0,2.0,0.0
26397,62.0,1.0,120.0,11.0,0.0
26398,62.0,2.0,120.0,12.0,0.0
26399,50.0,23.0,120.0,13.0,0.0
26400,69.0,30.0,30.0,7.0,0.0
26401,81.0,0.0,30.0,7.0,0.0
26402,66.0,30.0,30.0,7.0,0.0
26403,78.0,0.0,30.0,7.0,0.0
26404,69.0,0.0,30.0,7.0,0.0
26405,81.0,4.0,30.0,7.0,0.0
26406,74.0,30.0,30.0,7.0,0.0
26407,86.0,0.0,30.0,7.0,0.0
26408,69.0,30.0,30.0,7.0,0.0
26409,81.0,0.0,30.0,7.0,0.0
26410,66.0,0.0,30.0,7.0,0.0
26411,78.0,30.0,30.0,7.0,0.0
26412,69.0,22.0,30.0,7.0,0.0
26413,81.0,0.0,30.0,7.0,0.0
26414,74.0,0.0,20.0,7.0,0.0
26415,86.0,38.0,20.0,7.0,0.0
26416,78.0,30.0,30.0,7.0,0.0
26417,90.0,0.0,30.0,7.0,0.0
26418,81.0,0.0,30.0,7.0,0.0
26419,93.0,30.0,30.0,7.0,0.0
26420,98.0,2.0,30.0,7.0,0.0
26421,86.0,0.0,30.0,7.0,0.0
26422,90.0,38.0,20.0,7.0,0.0
26423,78.0,0.0,20.0,7.0,0.0
26424,62.0,0.0,15.0,4.0,0.0
26425,86.0,0.0,90.0,2.0,0.0
26426,74.0,2.0,90.0,2.0,0.0
26427,50.0,23.0,90.0,13.0,0.0
26428,93.0,30.0,30.0,7.0,0.0
26429,81.0,0.0,30.0,7.0,0.0
26430,86.0,0.0,30.0,7.0,0.0
26431,98.0,0.0,30.0,7.0,0.0
26432,74.0,2.0,15.0,8.0,0.0
26433,102.0,0.0,30.0,7.0,0.0
26434,90.0,0.0,30.0,7.0,0.0
26435,62.0,0.0,15.0,4.0,0.0
26436,69.0,0.0,15.0,4.0,0.0
26437,86.0,2.0,30.0,2.0,0.0
26438,74.0,0.0,30.0,2.0,0.0
26439,62.0,1.0,15.0,11.0,0.0
26440,62.0,2.0,15.0,12.0,0.0
26441,50.0,23.0,30.0,13.0,0.0
26442,83.0,0.0,30.0,7.0,0.0
26443,95.0,30.0,30.0,7.0,0.0
26444,79.0,0.0,120.0,8.0,0.0
26445,79.0,0.0,120.0,5.0,0.0
26446,67.0,1.0,120.0,5.0,0.0
26447,67.0,0.0,120.0,10.0,0.0
26448,83.0,2.0,120.0,2.0,0.0
26449,62.0,1.0,15.0,11.0,0.0
26450,55.0,1.0,120.0,12.0,0.0
26451,55.0,1.0,120.0,6.0,0.0
26452,43.0,23.0,120.0,13.0,0.0
26453,98.0,0.0,30.0,7.0,0.0
26454,86.0,30.0,30.0,7.0,0.0
26455,91.0,0.0,30.0,7.0,0.0
26456,103.0,30.0,30.0,7.0,0.0
26457,98.0,1.0,30.0,7.0,0.0
26458,86.0,0.0,30.0,7.0,0.0
26459,83.0,0.0,30.0,7.0,0.0
26460,95.0,30.0,30.0,7.0,0.0
26461,79.0,0.0,15.0,2.0,0.0
26462,71.0,0.0,15.0,4.0,0.0
26463,67.0,0.0,15.0,4.0,0.0
26464,98.0,30.0,30.0,7.0,0.0
26465,86.0,0.0,30.0,7.0,0.0
26466,103.0,2.0,30.0,7.0,0.0
26467,91.0,0.0,30.0,7.0,0.0
26468,86.0,2.0,30.0,7.0,0.0
26469,98.0,0.0,30.0,7.0,0.0
26470,79.0,0.0,30.0,2.0,0.0
26471,83.0,0.0,15.0,2.0,0.0
26472,71.0,28.0,15.0,4.0,0.0
26473,67.0,28.0,30.0,4.0,0.0
26474,96.0,0.0,30.0,7.0,0.0
26475,84.0,30.0,30.0,7.0,0.0
26476,84.0,0.0,120.0,2.0,0.0
26477,72.0,28.0,120.0,4.0,0.0
26478,86.0,0.0,30.0,7.0,0.0
26479,98.0,30.0,30.0,7.0,0.0
26480,105.0,30.0,30.0,7.0,0.0
26481,93.0,0.0,30.0,7.0,0.0
26482,98.0,0.0,30.0,7.0,0.0
26483,86.0,2.0,30.0,7.0,0.0
26484,93.0,30.0,30.0,7.0,0.0
26485,81.0,0.0,30.0,7.0,0.0
26486,81.0,0.0,90.0,8.0,0.0
26487,81.0,0.0,15.0,2.0,0.0
26488,78.0,0.0,90.0,2.0,0.0
26489,69.0,0.0,15.0,4.0,0.0
26490,62.0,1.0,90.0,11.0,0.0
26491,50.0,1.0,90.0,6.0,0.0
26492,50.0,23.0,90.0,13.0,0.0
26493,86.0,30.0,30.0,7.0,0.0
26494,98.0,0.0,30.0,7.0,0.0
26495,90.0,1.0,30.0,7.0,0.0
26496,102.0,0.0,30.0,7.0,0.0
26497,81.0,0.0,30.0,8.0,0.0
26498,98.0,1.0,30.0,7.0,0.0
26499,86.0,0.0,30.0,7.0,0.0
26500,74.0,1.0,15.0,5.0,0.0
26501,62.0,0.0,15.0,5.0,0.0
26502,66.0,0.0,15.0,10.0,0.0
26503,78.0,0.0,30.0,2.0,0.0
26504,81.0,0.0,30.0,2.0,0.0
26505,69.0,0.0,15.0,4.0,0.0
26506,62.0,2.0,15.0,4.0,0.0
26507,62.0,1.0,30.0,11.0,0.0
26508,62.0,1.0,15.0,12.0,0.0
26509,50.0,1.0,30.0,6.0,0.0
26510,50.0,23.0,30.0,13.0,0.0
26511,83.0,1.0,120.0,8.0,0.0
26512,83.0,0.0,30.0,7.0,0.0
26513,95.0,30.0,30.0,7.0,0.0
26514,79.0,1.0,120.0,5.0,0.0
26515,67.0,0.0,120.0,5.0,0.0
26516,67.0,2.0,120.0,10.0,0.0
26517,62.0,1.0,120.0,11.0,0.0
26518,55.0,1.0,120.0,12.0,0.0
26519,55.0,1.0,120.0,6.0,0.0
26520,43.0,23.0,120.0,13.0,0.0
26521,98.0,30.0,30.0,7.0,0.0
26522,86.0,0.0,30.0,7.0,0.0
26523,91.0,0.0,30.0,7.0,0.0
26524,103.0,30.0,30.0,7.0,0.0
26525,98.0,0.0,30.0,7.0,0.0
26526,86.0,0.0,30.0,7.0,0.0
26527,95.0,30.0,30.0,7.0,0.0
26528,83.0,0.0,30.0,7.0,0.0
26529,67.0,0.0,15.0,4.0,0.0
26530,83.0,0.0,15.0,2.0,0.0
26531,71.0,0.0,15.0,4.0,0.0
26532,79.0,0.0,15.0,2.0,0.0
26533,98.0,0.0,30.0,7.0,0.0
26534,86.0,30.0,30.0,7.0,0.0
26535,91.0,2.0,30.0,7.0,0.0
26536,103.0,0.0,30.0,7.0,0.0
26537,98.0,2.0,30.0,7.0,0.0
26538,86.0,0.0,30.0,7.0,0.0
26539,67.0,0.0,30.0,4.0,0.0
26540,71.0,28.0,30.0,4.0,0.0
26541,79.0,0.0,30.0,2.0,0.0
26542,83.0,0.0,30.0,2.0,0.0
26543,96.0,30.0,30.0,7.0,0.0
26544,84.0,0.0,30.0,7.0,0.0
26545,84.0,0.0,120.0,2.0,0.0
26546,72.0,0.0,120.0,4.0,0.0
26547,86.0,30.0,30.0,7.0,0.0
26548,98.0,0.0,30.0,7.0,0.0
26549,93.0,30.0,30.0,7.0,0.0
26550,105.0,0.0,30.0,7.0,0.0
26551,98.0,2.0,30.0,7.0,0.0
26552,86.0,0.0,30.0,7.0,0.0
26553,81.0,0.0,30.0,7.0,0.0
26554,93.0,30.0,30.0,7.0,0.0
26555,81.0,1.0,90.0,8.0,0.0
26556,74.0,0.0,90.0,5.0,0.0
26557,81.0,28.0,15.0,2.0,0.0
26558,69.0,0.0,15.0,4.0,0.0
26559,66.0,0.0,90.0,10.0,0.0
26560,50.0,23.0,90.0,13.0,0.0
26561,98.0,30.0,30.0,7.0,0.0
26562,86.0,0.0,30.0,7.0,0.0
26563,102.0,0.0,30.0,7.0,0.0
26564,90.0,0.0,30.0,7.0,0.0
26565,98.0,0.0,30.0,7.0,0.0
26566,86.0,1.0,30.0,7.0,0.0
26567,81.0,0.0,30.0,8.0,0.0
26568,62.0,1.0,15.0,5.0,0.0
26569,74.0,0.0,30.0,5.0,0.0
26570,62.0,0.0,15.0,4.0,0.0
26571,78.0,2.0,15.0,2.0,0.0
26572,81.0,2.0,30.0,2.0,0.0
26573,66.0,0.0,30.0,10.0,0.0
26574,69.0,0.0,30.0,4.0,0.0
26575,62.0,1.0,15.0,11.0,0.0
26576,62.0,1.0,15.0,12.0,0.0
26577,50.0,1.0,15.0,6.0,0.0
26578,50.0,23.0,30.0,13.0,0.0
26579,83.0,30.0,30.0,7.0,0.0
26580,95.0,0.0,30.0,7.0,0.0
26581,83.0,1.0,120.0,8.0,0.0
26582,79.0,0.0,120.0,5.0,0.0
26583,67.0,1.0,120.0,5.0,0.0
26584,83.0,0.0,120.0,2.0,0.0
26585,79.0,0.0,120.0,2.0,0.0
26586,67.0,0.0,120.0,10.0,0.0
26587,67.0,0.0,120.0,4.0,0.0
26588,62.0,1.0,15.0,11.0,0.0
26589,55.0,1.0,120.0,12.0,0.0
26590,55.0,1.0,120.0,6.0,0.0
26591,43.0,23.0,120.0,13.0,0.0
26592,86.0,30.0,30.0,7.0,0.0
26593,98.0,0.0,30.0,7.0,0.0
26594,91.0,30.0,30.0,7.0,0.0
26595,103.0,0.0,30.0,7.0,0.0
26596,86.0,0.0,30.0,7.0,0.0
26597,98.0,0.0,30.0,7.0,0.0
26598,83.0,30.0,30.0,7.0,0.0
26599,95.0,0.0,30.0,7.0,0.0
26600,71.0,2.0,15.0,4.0,0.0
26601,67.0,0.0,90.0,4.0,0.0
26602,79.0,0.0,90.0,2.0,0.0
26603,83.0,0.0,90.0,2.0,0.0
26604,86.0,0.0,30.0,7.0,0.0
26605,98.0,30.0,30.0,7.0,0.0
26606,91.0,2.0,30.0,7.0,0.0
26607,103.0,0.0,30.0,7.0,0.0
26608,98.0,0.0,30.0,7.0,0.0
26609,86.0,2.0,30.0,7.0,0.0
26610,71.0,28.0,15.0,4.0,0.0
26611,83.0,0.0,30.0,2.0,0.0
26612,79.0,28.0,30.0,2.0,0.0
26613,67.0,0.0,30.0,4.0,0.0
26614,96.0,30.0,30.0,7.0,0.0
26615,84.0,0.0,30.0,7.0,0.0
26616,72.0,0.0,120.0,4.0,0.0
26617,81.0,0.0,120.0,2.0,0.0
26618,84.0,28.0,120.0,2.0,0.0
26619,98.0,0.0,30.0,7.0,0.0
26620,86.0,30.0,30.0,7.0,0.0
26621,93.0,30.0,30.0,7.0,0.0
26622,105.0,0.0,30.0,7.0,0.0
26623,86.0,0.0,30.0,7.0,0.0
26624,98.0,2.0,30.0,7.0,0.0
26625,81.0,0.0,30.0,7.0,0.0
26626,93.0,30.0,30.0,7.0,0.0
26627,78.0,0.0,90.0,0.0,0.0
26628,62.0,0.0,90.0,4.0,0.0
26629,69.0,0.0,15.0,4.0,0.0
26630,62.0,1.0,90.0,12.0,0.0
26631,50.0,1.0,90.0,6.0,0.0
26632,50.0,23.0,90.0,13.0,0.0
26633,86.0,0.0,30.0,7.0,0.0
26634,98.0,30.0,30.0,7.0,0.0
26635,102.0,0.0,30.0,7.0,0.0
26636,90.0,0.0,30.0,7.0,0.0
26637,98.0,0.0,30.0,7.0,0.0
26638,86.0,0.0,30.0,7.0,0.0
26639,81.0,1.0,15.0,0.0,0.0
26640,81.0,0.0,15.0,8.0,0.0
26641,78.0,1.0,30.0,0.0,0.0
26642,81.0,0.0,15.0,1.0,0.0
26643,78.0,0.0,15.0,1.0,0.0
26644,62.0,0.0,15.0,5.0,0.0
26645,74.0,1.0,15.0,5.0,0.0
26646,66.0,0.0,15.0,10.0,0.0
26647,62.0,0.0,30.0,4.0,0.0
26648,69.0,2.0,15.0,4.0,0.0
26649,78.0,0.0,15.0,2.0,0.0
26650,81.0,0.0,15.0,2.0,0.0
26651,62.0,1.0,15.0,11.0,0.0
26652,62.0,1.0,30.0,12.0,0.0
26653,50.0,1.0,30.0,6.0,0.0
26654,50.0,23.0,30.0,13.0,0.0
26655,83.0,0.0,120.0,8.0,0.0
26656,83.0,0.0,30.0,7.0,0.0
26657,95.0,30.0,30.0,7.0,0.0
26658,83.0,0.0,120.0,0.0,0.0
26659,67.0,1.0,120.0,5.0,0.0
26660,79.0,0.0,120.0,5.0,0.0
26661,62.0,1.0,15.0,11.0,0.0
26662,55.0,1.0,120.0,12.0,0.0
26663,55.0,1.0,120.0,6.0,0.0
26664,43.0,23.0,120.0,13.0,0.0
26665,98.0,30.0,30.0,7.0,0.0
26666,86.0,0.0,30.0,7.0,0.0
26667,91.0,30.0,30.0,7.0,0.0
26668,103.0,0.0,30.0,7.0,0.0
26669,86.0,0.0,30.0,7.0,0.0
26670,98.0,1.0,30.0,7.0,0.0
26671,79.0,0.0,15.0,0.0,0.0
26672,95.0,30.0,30.0,7.0,0.0
26673,83.0,0.0,30.0,7.0,0.0
26674,83.0,0.0,15.0,1.0,0.0
26675,79.0,0.0,15.0,1.0,0.0
26676,83.0,0.0,15.0,2.0,0.0
26677,79.0,0.0,15.0,2.0,0.0
26678,67.0,2.0,15.0,4.0,0.0
26679,71.0,0.0,15.0,4.0,0.0
26680,67.0,0.0,15.0,10.0,0.0
26681,62.0,1.0,15.0,11.0,0.0
26682,55.0,1.0,90.0,12.0,0.0
26683,55.0,1.0,90.0,6.0,0.0
26684,43.0,23.0,90.0,13.0,0.0
26685,86.0,30.0,30.0,7.0,0.0
26686,98.0,0.0,30.0,7.0,0.0
26687,91.0,0.0,30.0,7.0,0.0
26688,103.0,0.0,30.0,7.0,0.0
26689,98.0,0.0,30.0,7.0,0.0
26690,83.0,1.0,15.0,0.0,0.0
26691,79.0,0.0,15.0,0.0,0.0
26692,86.0,0.0,30.0,7.0,0.0
26693,83.0,0.0,15.0,8.0,0.0
26694,79.0,0.0,15.0,1.0,0.0
26695,83.0,1.0,15.0,1.0,0.0
26696,74.0,0.0,15.0,5.0,0.0
26697,62.0,0.0,15.0,5.0,0.0
26698,67.0,0.0,15.0,10.0,0.0
26699,79.0,0.0,15.0,2.0,0.0
26700,83.0,0.0,15.0,2.0,0.0
26701,71.0,0.0,30.0,4.0,0.0
26702,67.0,0.0,30.0,4.0,0.0
26703,62.0,1.0,30.0,11.0,0.0
26704,55.0,1.0,30.0,12.0,0.0
26705,55.0,1.0,30.0,6.0,0.0
26706,43.0,23.0,30.0,13.0,0.0
26707,81.0,0.0,120.0,0.0,0.0
26708,84.0,0.0,120.0,0.0,0.0
26709,96.0,30.0,30.0,7.0,0.0
26710,84.0,0.0,120.0,8.0,0.0
26711,84.0,0.0,30.0,7.0,0.0
26712,84.0,0.0,120.0,1.0,0.0
26713,62.0,0.0,120.0,5.0,0.0
26714,74.0,1.0,15.0,5.0,0.0
26715,72.0,0.0,120.0,4.0,0.0
26716,69.0,0.0,120.0,4.0,0.0
26717,84.0,0.0,120.0,2.0,0.0
26718,62.0,1.0,120.0,11.0,0.0
26719,50.0,1.0,120.0,12.0,0.0
26720,86.0,30.0,30.0,7.0,0.0
26721,98.0,0.0,30.0,7.0,0.0
26722,93.0,0.0,30.0,7.0,0.0
26723,105.0,30.0,30.0,7.0,0.0
26724,98.0,0.0,30.0,7.0,0.0
26725,86.0,1.0,30.0,7.0,0.0
26726,81.0,30.0,30.0,7.0,0.0
26727,93.0,0.0,30.0,7.0,0.0
26728,78.0,0.0,90.0,1.0,0.0
26729,81.0,0.0,15.0,1.0,0.0
26730,74.0,1.0,15.0,5.0,0.0
26731,62.0,0.0,90.0,5.0,0.0
26732,69.0,2.0,15.0,10.0,0.0
26733,81.0,0.0,15.0,2.0,0.0
26734,78.0,0.0,90.0,2.0,0.0
26735,69.0,0.0,90.0,4.0,0.0
26736,62.0,1.0,90.0,11.0,0.0
26737,50.0,1.0,90.0,12.0,0.0
26738,50.0,1.0,15.0,6.0,0.0
26739,38.0,23.0,15.0,13.0,0.0
26740,86.0,30.0,30.0,7.0,0.0
26741,98.0,0.0,30.0,7.0,0.0
26742,102.0,0.0,30.0,7.0,0.0
26743,90.0,0.0,30.0,7.0,0.0
26744,98.0,0.0,30.0,7.0,0.0
26745,78.0,0.0,15.0,0.0,0.0
26746,81.0,0.0,15.0,0.0,0.0
26747,86.0,0.0,30.0,7.0,0.0
26748,81.0,1.0,15.0,8.0,0.0
26749,62.0,0.0,30.0,5.0,0.0
26750,74.0,1.0,30.0,5.0,0.0
26751,78.0,0.0,30.0,1.0,0.0
26752,81.0,0.0,30.0,1.0,0.0
26753,78.0,0.0,30.0,2.0,0.0
26754,81.0,0.0,15.0,2.0,0.0
26755,78.0,0.0,15.0,10.0,0.0
26756,69.0,2.0,15.0,10.0,0.0
26757,62.0,0.0,15.0,4.0,0.0
26758,69.0,0.0,30.0,4.0,0.0
26759,62.0,1.0,30.0,11.0,0.0
26760,50.0,1.0,30.0,12.0,0.0
26761,50.0,1.0,30.0,6.0,0.0
26762,38.0,33.0,30.0,13.0,0.0
26763,79.0,0.0,120.0,7.0,0.0
26764,103.0,40.0,30.0,7.0,0.0
26765,83.0,0.0,120.0,8.0,0.0
26766,74.0,0.0,120.0,8.0,0.0
26767,67.0,0.0,120.0,8.0,0.0
26768,59.0,0.0,120.0,8.0,0.0
26769,79.0,1.0,120.0,0.0,0.0
26770,83.0,0.0,120.0,0.0,0.0
26771,83.0,0.0,120.0,7.0,0.0
26772,86.0,0.0,120.0,7.0,0.0
26773,79.0,1.0,120.0,1.0,0.0
26774,83.0,0.0,120.0,1.0,0.0
26775,67.0,0.0,120.0,5.0,0.0
26776,79.0,0.0,120.0,5.0,0.0
26777,71.0,0.0,120.0,4.0,0.0
26778,79.0,0.0,120.0,2.0,0.0
26779,83.0,0.0,120.0,2.0,0.0
26780,67.0,0.0,120.0,4.0,0.0
26781,62.0,2.0,120.0,10.0,0.0
26782,71.0,0.0,120.0,10.0,0.0
26783,79.0,0.0,120.0,10.0,0.0
26784,67.0,1.0,120.0,11.0,0.0
26785,55.0,1.0,120.0,12.0,0.0
26786,55.0,0.0,120.0,3.0,0.0
26787,55.0,1.0,120.0,6.0,0.0
26788,43.0,33.0,120.0,13.0,0.0
26789,98.0,40.0,30.0,7.0,0.0
26790,95.0,0.0,30.0,7.0,0.0
26791,91.0,40.0,30.0,7.0,0.0
26792,86.0,40.0,30.0,7.0,0.0
26793,83.0,30.0,30.0,7.0,0.0
26794,79.0,30.0,30.0,7.0,0.0
26795,74.0,30.0,30.0,7.0,0.0
26796,71.0,30.0,30.0,7.0,0.0
26797,67.0,30.0,30.0,7.0,0.0
26798,62.0,30.0,30.0,7.0,0.0
26799,59.0,20.0,30.0,7.0,0.0
26800,55.0,20.0,20.0,7.0,0.0
26801,50.0,20.0,20.0,7.0,0.0
26802,47.0,30.0,20.0,7.0,0.0
26803,43.0,30.0,30.0,7.0,0.0
26804,83.0,0.0,120.0,0.0,0.0
26805,71.0,1.0,120.0,8.0,0.0
26806,79.0,0.0,120.0,8.0,0.0
26807,79.0,0.0,120.0,0.0,0.0
26808,86.0,0.0,120.0,8.0,0.0
26809,83.0,0.0,120.0,1.0,0.0
26810,79.0,0.0,120.0,1.0,0.0
26811,79.0,1.0,120.0,5.0,0.0
26812,67.0,0.0,120.0,5.0,0.0
26813,86.0,0.0,120.0,2.0,0.0
26814,83.0,0.0,120.0,10.0,0.0
26815,71.0,0.0,120.0,4.0,0.0
26816,67.0,0.0,120.0,4.0,0.0
26817,74.0,0.0,120.0,10.0,0.0
26818,67.0,0.0,120.0,10.0,0.0
26819,59.0,2.0,120.0,10.0,0.0
26820,83.0,0.0,120.0,2.0,0.0
26821,67.0,1.0,120.0,11.0,0.0
26822,55.0,1.0,120.0,12.0,0.0
26823,55.0,0.0,120.0,3.0,0.0
26824,55.0,1.0,120.0,6.0,0.0
26825,43.0,23.0,120.0,13.0,0.0
26826,47.0,30.0,30.0,7.0,0.0
26827,50.0,30.0,30.0,7.0,0.0
26828,55.0,0.0,30.0,7.0,0.0
26829,59.0,30.0,30.0,7.0,0.0
26830,62.0,30.0,30.0,7.0,0.0
26831,67.0,30.0,30.0,7.0,0.0
26832,71.0,30.0,30.0,7.0,0.0
26833,74.0,30.0,30.0,7.0,0.0
26834,79.0,30.0,30.0,7.0,0.0
26835,83.0,30.0,30.0,7.0,0.0
26836,86.0,40.0,30.0,7.0,0.0
26837,91.0,40.0,30.0,7.0,0.0
26838,95.0,40.0,30.0,7.0,0.0
26839,98.0,30.0,30.0,7.0,0.0
26840,91.0,0.0,120.0,8.0,0.0
26841,86.0,0.0,120.0,8.0,0.0
26842,74.0,1.0,120.0,8.0,0.0
26843,103.0,30.0,30.0,7.0,0.0
26844,91.0,0.0,120.0,0.0,0.0
26845,83.0,0.0,90.0,7.0,0.0
26846,86.0,0.0,90.0,7.0,0.0
26847,79.0,0.0,90.0,7.0,0.0
26848,79.0,0.0,120.0,1.0,0.0
26849,83.0,1.0,120.0,1.0,0.0
26850,67.0,0.0,120.0,5.0,0.0
26851,79.0,0.0,120.0,5.0,0.0
26852,79.0,0.0,120.0,2.0,0.0
26853,79.0,0.0,120.0,10.0,0.0
26854,59.0,2.0,120.0,10.0,0.0
26855,67.0,0.0,120.0,4.0,0.0
26856,71.0,0.0,120.0,4.0,0.0
26857,83.0,0.0,120.0,2.0,0.0
26858,67.0,0.0,120.0,10.0,0.0
26859,59.0,1.0,120.0,11.0,0.0
26860,55.0,0.0,120.0,11.0,0.0
26861,55.0,1.0,120.0,12.0,0.0
26862,55.0,0.0,120.0,6.0,0.0
26863,55.0,1.0,120.0,3.0,0.0
26864,43.0,23.0,120.0,13.0,0.0
26865,98.0,30.0,30.0,7.0,0.0
26866,95.0,30.0,30.0,7.0,0.0
26867,98.0,0.0,30.0,7.0,0.0
26868,103.0,30.0,30.0,7.0,0.0
26869,98.0,30.0,30.0,7.0,0.0
26870,95.0,30.0,30.0,7.0,0.0
26871,98.0,30.0,30.0,7.0,0.0
26872,86.0,0.0,90.0,7.0,0.0
26873,83.0,0.0,90.0,7.0,0.0
26874,103.0,30.0,30.0,7.0,0.0
26875,79.0,30.0,90.0,7.0,0.0
26876,98.0,30.0,30.0,7.0,0.0
26877,95.0,0.0,30.0,7.0,0.0
26878,98.0,30.0,30.0,7.0,0.0
26879,86.0,0.0,90.0,7.0,0.0
26880,83.0,30.0,90.0,7.0,0.0
26881,79.0,0.0,90.0,7.0,0.0
26882,103.0,30.0,30.0,7.0,0.0
26883,98.0,30.0,30.0,7.0,0.0
26884,95.0,0.0,30.0,7.0,0.0
26885,79.0,30.0,90.0,7.0,0.0
26886,91.0,0.0,90.0,7.0,0.0
26887,95.0,0.0,90.0,7.0,0.0
26888,98.0,90.0,15.0,7.0,0.0
26889,103.0,0.0,90.0,7.0,0.0
26890,83.0,0.0,90.0,7.0,0.0
26891,86.0,0.0,90.0,7.0,0.0
26892,74.0,0.0,120.0,8.0,0.0
26893,83.0,0.0,120.0,8.0,0.0
26894,91.0,0.0,120.0,8.0,0.0
26895,91.0,1.0,120.0,0.0,0.0
26896,83.0,0.0,120.0,0.0,0.0
26897,83.0,1.0,120.0,1.0,0.0
26898,79.0,0.0,120.0,5.0,0.0
26899,67.0,0.0,120.0,5.0,0.0
26900,79.0,0.0,120.0,1.0,0.0
26901,79.0,0.0,120.0,2.0,0.0
26902,59.0,0.0,120.0,10.0,0.0
26903,67.0,2.0,120.0,10.0,0.0
26904,67.0,0.0,120.0,4.0,0.0
26905,71.0,0.0,120.0,2.0,0.0
26906,59.0,0.0,120.0,4.0,0.0
26907,79.0,0.0,120.0,10.0,0.0
26908,55.0,0.0,120.0,11.0,0.0
26909,59.0,1.0,120.0,11.0,0.0
26910,55.0,1.0,120.0,12.0,0.0
26911,55.0,1.0,120.0,6.0,0.0
26912,55.0,0.0,120.0,3.0,0.0
26913,43.0,203.0,120.0,13.0,0.0
26914,83.0,0.0,120.0,0.0,0.0
26915,79.0,0.0,90.0,7.0,0.0
26916,91.0,0.0,120.0,0.0,0.0
26917,74.0,0.0,120.0,8.0,0.0
26918,83.0,0.0,120.0,8.0,0.0
26919,59.0,1.0,120.0,8.0,0.0
26920,103.0,0.0,90.0,7.0,0.0
26921,98.0,0.0,90.0,7.0,0.0
26922,95.0,0.0,90.0,7.0,0.0
26923,91.0,0.0,90.0,7.0,0.0
26924,74.0,0.0,90.0,7.0,0.0
26925,67.0,0.0,120.0,8.0,0.0
26926,71.0,0.0,90.0,7.0,0.0
26927,67.0,30.0,90.0,7.0,0.0
26928,79.0,0.0,120.0,1.0,0.0
26929,67.0,0.0,120.0,5.0,0.0
26930,71.0,1.0,120.0,1.0,0.0
26931,71.0,0.0,120.0,2.0,0.0
26932,67.0,0.0,120.0,4.0,0.0
26933,59.0,0.0,120.0,4.0,0.0
26934,83.0,0.0,120.0,10.0,0.0
26935,79.0,0.0,120.0,2.0,0.0
26936,74.0,0.0,120.0,10.0,0.0
26937,59.0,2.0,120.0,10.0,0.0
26938,67.0,0.0,120.0,10.0,0.0
26939,55.0,1.0,120.0,11.0,0.0
26940,59.0,0.0,120.0,11.0,0.0
26941,55.0,1.0,120.0,12.0,0.0
26942,55.0,1.0,120.0,6.0,0.0
26943,55.0,0.0,120.0,3.0,0.0
26944,43.0,203.0,120.0,13.0,0.0
26945,91.0,1.0,120.0,0.0,0.0
26946,98.0,30.0,90.0,7.0,0.0
26947,79.0,0.0,90.0,7.0,0.0
26948,67.0,0.0,90.0,7.0,0.0
26949,91.0,0.0,90.0,7.0,0.0
26950,95.0,0.0,90.0,7.0,0.0
26951,83.0,0.0,120.0,0.0,0.0
26952,103.0,0.0,90.0,7.0,0.0
26953,71.0,0.0,90.0,7.0,0.0
26954,59.0,0.0,120.0,8.0,0.0
26955,67.0,0.0,120.0,8.0,0.0
26956,74.0,0.0,90.0,7.0,0.0
26957,67.0,0.0,120.0,5.0,0.0
26958,79.0,1.0,120.0,1.0,0.0
26959,71.0,0.0,120.0,1.0,0.0
26960,71.0,0.0,120.0,2.0,0.0
26961,79.0,2.0,120.0,2.0,0.0
26962,59.0,0.0,120.0,10.0,0.0
26963,59.0,0.0,120.0,4.0,0.0
26964,67.0,0.0,120.0,4.0,0.0
26965,67.0,0.0,120.0,10.0,0.0
26966,55.0,1.0,120.0,11.0,0.0
26967,59.0,0.0,120.0,11.0,0.0
26968,55.0,1.0,120.0,12.0,0.0
26969,55.0,1.0,120.0,6.0,0.0
26970,55.0,0.0,120.0,3.0,0.0
26971,43.0,0.0,120.0,13.0,0.0
