,note,step,duration,channel,velocity
0,68.0,72.0,120.0,0.0,0.0
1,60.0,24.0,90.0,1.0,0.0
2,56.0,0.0,90.0,1.0,0.0
3,63.0,48.0,90.0,1.0,0.0
4,56.0,96.0,90.0,1.0,0.0
5,60.0,0.0,90.0,1.0,0.0
6,68.0,48.0,60.0,0.0,0.0
7,63.0,96.0,90.0,1.0,0.0
8,61.0,0.0,90.0,1.0,0.0
9,58.0,0.0,90.0,1.0,0.0
10,68.0,96.0,90.0,0.0,0.0
11,63.0,0.0,90.0,1.0,0.0
12,67.0,96.0,90.0,0.0,0.0
13,61.0,96.0,90.0,1.0,0.0
14,58.0,0.0,90.0,1.0,0.0
15,65.0,0.0,90.0,0.0,0.0
16,63.0,96.0,90.0,1.0,0.0
17,67.0,0.0,90.0,0.0,0.0
18,56.0,0.0,90.0,1.0,0.0
19,60.0,0.0,90.0,1.0,0.0
20,68.0,48.0,60.0,0.0,0.0
21,63.0,0.0,90.0,1.0,0.0
22,68.0,16.0,60.0,0.0,0.0
23,68.0,32.0,15.0,0.0,0.0
24,68.0,96.0,15.0,0.0,0.0
25,56.0,0.0,90.0,1.0,0.0
26,60.0,48.0,90.0,1.0,0.0
27,63.0,96.0,90.0,1.0,0.0
28,72.0,0.0,60.0,0.0,0.0
29,75.0,48.0,330.0,0.0,0.0
30,58.0,0.0,90.0,1.0,0.0
31,55.0,96.0,90.0,1.0,0.0
32,63.0,96.0,90.0,1.0,0.0
33,55.0,0.0,90.0,1.0,0.0
34,58.0,48.0,90.0,1.0,0.0
35,63.0,96.0,90.0,1.0,0.0
36,56.0,0.0,90.0,1.0,0.0
37,53.0,0.0,90.0,1.0,0.0
38,73.0,96.0,90.0,0.0,0.0
39,61.0,96.0,90.0,1.0,0.0
40,77.0,0.0,180.0,0.0,0.0
41,55.0,48.0,90.0,1.0,0.0
42,58.0,0.0,90.0,1.0,0.0
43,75.0,48.0,60.0,0.0,0.0
44,63.0,0.0,90.0,1.0,0.0
45,73.0,96.0,60.0,0.0,0.0
46,56.0,32.0,90.0,1.0,0.0
47,72.0,0.0,90.0,0.0,0.0
48,75.0,48.0,180.0,0.0,0.0
49,60.0,158.0,30.0,1.0,0.0
50,48.0,2.0,90.0,1.0,0.0
51,51.0,0.0,90.0,1.0,0.0
52,73.0,46.0,60.0,0.0,0.0
53,56.0,2.0,90.0,1.0,0.0
54,72.0,48.0,60.0,0.0,0.0
55,49.0,2.0,90.0,1.0,0.0
56,70.0,46.0,60.0,0.0,0.0
57,72.0,48.0,60.0,0.0,0.0
58,73.0,46.0,60.0,0.0,0.0
59,53.0,2.0,90.0,1.0,0.0
60,72.0,48.0,60.0,0.0,0.0
61,75.0,46.0,60.0,0.0,0.0
62,58.0,2.0,90.0,1.0,0.0
63,73.0,48.0,60.0,0.0,0.0
64,72.0,0.0,60.0,0.0,0.0
65,61.0,2.0,90.0,1.0,0.0
66,70.0,192.0,60.0,0.0,0.0
67,68.0,0.0,180.0,0.0,0.0
68,51.0,64.0,270.0,1.0,0.0
69,60.0,32.0,90.0,1.0,0.0
70,67.0,32.0,30.0,0.0,0.0
71,58.0,0.0,30.0,1.0,0.0
72,63.0,88.0,30.0,0.0,0.0
73,63.0,56.0,20.0,0.0,0.0
74,60.0,0.0,90.0,1.0,0.0
75,56.0,96.0,90.0,1.0,0.0
76,68.0,14.0,60.0,0.0,0.0
77,63.0,50.0,90.0,1.0,0.0
78,68.0,46.0,60.0,0.0,0.0
79,60.0,96.0,90.0,1.0,0.0
80,56.0,0.0,90.0,1.0,0.0
81,63.0,98.0,90.0,1.0,0.0
82,61.0,0.0,90.0,1.0,0.0
83,58.0,96.0,90.0,1.0,0.0
84,68.0,0.0,90.0,0.0,0.0
85,67.0,0.0,90.0,0.0,0.0
86,63.0,96.0,90.0,1.0,0.0
87,65.0,96.0,90.0,0.0,0.0
88,61.0,0.0,90.0,1.0,0.0
89,58.0,0.0,90.0,1.0,0.0
90,63.0,96.0,90.0,1.0,0.0
91,67.0,0.0,90.0,0.0,0.0
92,56.0,0.0,90.0,1.0,0.0
93,60.0,48.0,90.0,1.0,0.0
94,68.0,0.0,60.0,0.0,0.0
95,63.0,0.0,90.0,1.0,0.0
96,68.0,16.0,15.0,0.0,0.0
97,56.0,0.0,90.0,1.0,0.0
98,60.0,48.0,90.0,1.0,0.0
99,68.0,48.0,150.0,0.0,0.0
100,63.0,96.0,90.0,1.0,0.0
101,72.0,0.0,60.0,0.0,0.0
102,55.0,0.0,90.0,1.0,0.0
103,58.0,96.0,90.0,1.0,0.0
104,75.0,48.0,330.0,0.0,0.0
105,63.0,96.0,90.0,1.0,0.0
106,58.0,48.0,90.0,1.0,0.0
107,55.0,0.0,90.0,1.0,0.0
108,63.0,96.0,90.0,1.0,0.0
109,53.0,96.0,90.0,1.0,0.0
110,56.0,0.0,90.0,1.0,0.0
111,61.0,48.0,90.0,1.0,0.0
112,73.0,0.0,15.0,0.0,0.0
113,58.0,0.0,90.0,1.0,0.0
114,55.0,0.0,90.0,1.0,0.0
115,77.0,48.0,60.0,0.0,0.0
116,63.0,48.0,90.0,1.0,0.0
117,75.0,48.0,60.0,0.0,0.0
118,73.0,0.0,60.0,0.0,0.0
119,56.0,0.0,90.0,1.0,0.0
120,60.0,2.0,90.0,1.0,0.0
121,72.0,46.0,60.0,0.0,0.0
122,75.0,32.0,60.0,0.0,0.0
123,73.0,48.0,60.0,0.0,0.0
124,63.0,16.0,30.0,1.0,0.0
125,72.0,48.0,60.0,0.0,0.0
126,49.0,48.0,90.0,1.0,0.0
127,70.0,48.0,60.0,0.0,0.0
128,73.0,0.0,60.0,0.0,0.0
129,61.0,2.0,90.0,1.0,0.0
130,72.0,46.0,60.0,0.0,0.0
131,70.0,96.0,60.0,0.0,0.0
132,51.0,48.0,90.0,1.0,0.0
133,68.0,0.0,60.0,0.0,0.0
134,60.0,0.0,90.0,1.0,0.0
135,68.0,16.0,60.0,0.0,0.0
136,68.0,32.0,15.0,0.0,0.0
137,51.0,0.0,90.0,1.0,0.0
138,72.0,94.0,90.0,0.0,0.0
139,61.0,2.0,90.0,1.0,0.0
140,70.0,96.0,90.0,0.0,0.0
141,68.0,0.0,150.0,0.0,0.0
142,60.0,64.0,150.0,0.0,0.0
143,44.0,32.0,90.0,1.0,0.0
144,51.0,32.0,30.0,1.0,0.0
145,51.0,96.0,30.0,1.0,0.0
146,51.0,160.0,30.0,1.0,0.0
147,48.0,32.0,90.0,1.0,0.0
148,56.0,144.0,330.0,1.0,0.0
149,63.0,0.0,30.0,0.0,0.0
150,51.0,96.0,30.0,1.0,0.0
151,68.0,96.0,30.0,0.0,0.0
152,51.0,0.0,30.0,1.0,0.0
153,51.0,0.0,30.0,1.0,0.0
154,72.0,16.0,30.0,0.0,0.0
155,55.0,16.0,330.0,1.0,0.0
156,46.0,32.0,90.0,1.0,0.0
157,73.0,48.0,150.0,0.0,0.0
158,51.0,14.0,30.0,1.0,0.0
159,70.0,34.0,60.0,0.0,0.0
160,67.0,128.0,150.0,0.0,0.0
161,51.0,96.0,30.0,1.0,0.0
162,51.0,16.0,30.0,1.0,0.0
163,49.0,32.0,90.0,1.0,0.0
164,58.0,144.0,330.0,1.0,0.0
165,63.0,0.0,30.0,0.0,0.0
166,51.0,96.0,30.0,1.0,0.0
167,67.0,96.0,30.0,0.0,0.0
168,51.0,0.0,30.0,1.0,0.0
169,51.0,16.0,30.0,1.0,0.0
170,70.0,0.0,30.0,0.0,0.0
171,48.0,32.0,90.0,1.0,0.0
172,72.0,48.0,150.0,0.0,0.0
173,56.0,16.0,330.0,1.0,0.0
174,51.0,14.0,30.0,1.0,0.0
175,68.0,34.0,60.0,0.0,0.0
176,51.0,96.0,30.0,1.0,0.0
177,63.0,126.0,150.0,0.0,0.0
178,51.0,16.0,30.0,1.0,0.0
179,44.0,0.0,330.0,1.0,0.0
180,48.0,34.0,90.0,1.0,0.0
181,63.0,48.0,60.0,0.0,0.0
182,51.0,16.0,30.0,1.0,0.0
183,65.0,32.0,60.0,0.0,0.0
184,67.0,48.0,60.0,0.0,0.0
185,51.0,16.0,30.0,1.0,0.0
186,68.0,48.0,60.0,0.0,0.0
187,70.0,46.0,60.0,0.0,0.0
188,51.0,0.0,90.0,1.0,0.0
189,72.0,50.0,60.0,0.0,0.0
190,46.0,144.0,330.0,1.0,0.0
191,49.0,32.0,90.0,1.0,0.0
192,75.0,46.0,60.0,0.0,0.0
193,73.0,2.0,60.0,0.0,0.0
194,51.0,16.0,30.0,1.0,0.0
195,72.0,46.0,60.0,0.0,0.0
196,70.0,34.0,60.0,0.0,0.0
197,68.0,34.0,90.0,0.0,0.0
198,51.0,62.0,30.0,1.0,0.0
199,67.0,0.0,30.0,0.0,0.0
200,51.0,16.0,30.0,1.0,0.0
201,43.0,46.0,330.0,1.0,0.0
202,49.0,32.0,90.0,1.0,0.0
203,75.0,48.0,60.0,0.0,0.0
204,51.0,14.0,30.0,1.0,0.0
205,77.0,34.0,60.0,0.0,0.0
206,51.0,14.0,30.0,1.0,0.0
207,79.0,48.0,60.0,0.0,0.0
208,80.0,48.0,60.0,0.0,0.0
209,51.0,0.0,90.0,1.0,0.0
210,82.0,2.0,60.0,0.0,0.0
211,83.0,48.0,60.0,0.0,0.0
212,44.0,30.0,150.0,1.0,0.0
213,48.0,0.0,150.0,1.0,0.0
214,84.0,48.0,60.0,0.0,0.0
215,83.0,48.0,60.0,0.0,0.0
216,85.0,18.0,60.0,0.0,0.0
217,84.0,48.0,60.0,0.0,0.0
218,82.0,48.0,60.0,0.0,0.0
219,80.0,48.0,60.0,0.0,0.0
220,79.0,48.0,60.0,0.0,0.0
221,77.0,34.0,60.0,0.0,0.0
222,75.0,48.0,30.0,0.0,0.0
223,84.0,48.0,30.0,0.0,0.0
224,82.0,48.0,30.0,0.0,0.0
225,80.0,48.0,30.0,0.0,0.0
226,79.0,48.0,30.0,0.0,0.0
227,77.0,48.0,30.0,0.0,0.0
228,75.0,48.0,30.0,0.0,0.0
229,73.0,48.0,30.0,0.0,0.0
230,72.0,48.0,30.0,0.0,0.0
231,80.0,48.0,30.0,0.0,0.0
232,79.0,48.0,30.0,0.0,0.0
233,77.0,48.0,30.0,0.0,0.0
234,75.0,48.0,30.0,0.0,0.0
235,73.0,48.0,30.0,0.0,0.0
236,72.0,48.0,30.0,0.0,0.0
237,70.0,112.0,30.0,0.0,0.0
238,68.0,72.0,120.0,0.0,0.0
239,60.0,24.0,90.0,1.0,0.0
240,56.0,0.0,90.0,1.0,0.0
241,63.0,48.0,90.0,1.0,0.0
242,56.0,96.0,90.0,1.0,0.0
243,60.0,0.0,90.0,1.0,0.0
244,68.0,48.0,60.0,0.0,0.0
245,63.0,96.0,90.0,1.0,0.0
246,61.0,0.0,90.0,1.0,0.0
247,68.0,96.0,90.0,0.0,0.0
248,58.0,0.0,90.0,1.0,0.0
249,67.0,96.0,90.0,0.0,0.0
250,63.0,0.0,90.0,1.0,0.0
251,58.0,96.0,90.0,1.0,0.0
252,61.0,0.0,90.0,1.0,0.0
253,65.0,0.0,90.0,0.0,0.0
254,67.0,96.0,90.0,0.0,0.0
255,63.0,0.0,90.0,1.0,0.0
256,56.0,0.0,90.0,1.0,0.0
257,60.0,0.0,90.0,1.0,0.0
258,68.0,48.0,60.0,0.0,0.0
259,63.0,0.0,90.0,1.0,0.0
260,68.0,16.0,15.0,0.0,0.0
261,60.0,48.0,90.0,1.0,0.0
262,56.0,0.0,90.0,1.0,0.0
263,68.0,48.0,150.0,0.0,0.0
264,63.0,96.0,90.0,1.0,0.0
265,72.0,0.0,60.0,0.0,0.0
266,55.0,0.0,90.0,1.0,0.0
267,58.0,96.0,90.0,1.0,0.0
268,75.0,48.0,330.0,0.0,0.0
269,63.0,96.0,90.0,1.0,0.0
270,55.0,0.0,90.0,1.0,0.0
271,58.0,48.0,90.0,1.0,0.0
272,63.0,96.0,90.0,1.0,0.0
273,56.0,0.0,90.0,1.0,0.0
274,53.0,96.0,90.0,1.0,0.0
275,73.0,0.0,180.0,0.0,0.0
276,61.0,48.0,90.0,1.0,0.0
277,55.0,0.0,90.0,1.0,0.0
278,58.0,0.0,90.0,1.0,0.0
279,73.0,48.0,60.0,0.0,0.0
280,77.0,48.0,60.0,0.0,0.0
281,63.0,48.0,90.0,1.0,0.0
282,75.0,48.0,60.0,0.0,0.0
283,73.0,0.0,60.0,0.0,0.0
284,60.0,0.0,90.0,1.0,0.0
285,72.0,48.0,60.0,0.0,0.0
286,56.0,0.0,90.0,1.0,0.0
287,75.0,32.0,60.0,0.0,0.0
288,63.0,16.0,30.0,1.0,0.0
289,73.0,48.0,60.0,0.0,0.0
290,72.0,48.0,60.0,0.0,0.0
291,49.0,48.0,90.0,1.0,0.0
292,70.0,48.0,60.0,0.0,0.0
293,73.0,0.0,60.0,0.0,0.0
294,72.0,48.0,60.0,0.0,0.0
295,61.0,96.0,90.0,1.0,0.0
296,70.0,0.0,60.0,0.0,0.0
297,51.0,0.0,90.0,1.0,0.0
298,60.0,96.0,90.0,1.0,0.0
299,68.0,48.0,15.0,0.0,0.0
300,68.0,16.0,15.0,0.0,0.0
301,72.0,0.0,90.0,0.0,0.0
302,51.0,94.0,90.0,1.0,0.0
303,70.0,94.0,90.0,0.0,0.0
304,61.0,2.0,90.0,1.0,0.0
305,60.0,0.0,150.0,0.0,0.0
306,68.0,30.0,150.0,0.0,0.0
307,44.0,48.0,60.0,1.0,0.0
308,48.0,18.0,60.0,1.0,0.0
309,51.0,48.0,60.0,1.0,0.0
310,56.0,48.0,60.0,1.0,0.0
311,51.0,48.0,60.0,1.0,0.0
312,48.0,48.0,60.0,1.0,0.0
313,51.0,96.0,60.0,1.0,0.0
314,44.0,32.0,150.0,1.0,0.0
315,68.0,50.0,60.0,0.0,0.0
316,70.0,16.0,60.0,0.0,0.0
317,72.0,48.0,60.0,0.0,0.0
318,73.0,48.0,60.0,0.0,0.0
319,75.0,48.0,60.0,0.0,0.0
320,77.0,48.0,60.0,0.0,0.0
321,79.0,96.0,60.0,0.0,0.0
322,80.0,48.0,300.0,0.0,0.0
323,41.0,48.0,60.0,1.0,0.0
324,44.0,48.0,60.0,1.0,0.0
325,50.0,48.0,60.0,1.0,0.0
326,53.0,48.0,60.0,1.0,0.0
327,50.0,0.0,60.0,1.0,0.0
328,44.0,48.0,60.0,1.0,0.0
329,77.0,0.0,90.0,0.0,0.0
330,50.0,96.0,60.0,1.0,0.0
331,41.0,32.0,150.0,1.0,0.0
332,74.0,48.0,90.0,0.0,0.0
333,68.0,16.0,60.0,0.0,0.0
334,68.0,68.0,60.0,0.0,0.0
335,70.0,60.0,60.0,0.0,0.0
336,65.0,160.0,30.0,0.0,0.0
337,68.0,0.0,180.0,0.0,0.0
338,39.0,48.0,60.0,1.0,0.0
339,43.0,48.0,60.0,1.0,0.0
340,46.0,48.0,60.0,1.0,0.0
341,51.0,48.0,60.0,1.0,0.0
342,67.0,32.0,150.0,0.0,0.0
343,46.0,48.0,60.0,1.0,0.0
344,43.0,16.0,60.0,1.0,0.0
345,46.0,94.0,60.0,1.0,0.0
346,39.0,30.0,150.0,1.0,0.0
347,63.0,48.0,60.0,0.0,0.0
348,65.0,18.0,60.0,0.0,0.0
349,67.0,48.0,60.0,0.0,0.0
350,68.0,48.0,60.0,0.0,0.0
351,70.0,48.0,60.0,0.0,0.0
352,72.0,48.0,60.0,0.0,0.0
353,74.0,96.0,60.0,0.0,0.0
354,75.0,30.0,270.0,0.0,0.0
355,48.0,48.0,60.0,1.0,0.0
356,51.0,48.0,60.0,1.0,0.0
357,57.0,48.0,60.0,1.0,0.0
358,60.0,18.0,60.0,1.0,0.0
359,57.0,48.0,60.0,1.0,0.0
360,51.0,48.0,60.0,1.0,0.0
361,72.0,96.0,90.0,0.0,0.0
362,57.0,0.0,60.0,1.0,0.0
363,48.0,30.0,150.0,1.0,0.0
364,69.0,48.0,90.0,0.0,0.0
365,63.0,18.0,60.0,0.0,0.0
366,63.0,34.0,60.0,0.0,0.0
367,65.0,96.0,30.0,0.0,0.0
368,60.0,158.0,30.0,0.0,0.0
369,46.0,48.0,90.0,1.0,0.0
370,63.0,48.0,150.0,0.0,0.0
371,53.0,96.0,90.0,1.0,0.0
372,62.0,0.0,60.0,0.0,0.0
373,70.0,30.0,150.0,0.0,0.0
374,50.0,66.0,90.0,1.0,0.0
375,53.0,48.0,90.0,1.0,0.0
376,70.0,48.0,60.0,0.0,0.0
377,48.0,0.0,90.0,1.0,0.0
378,69.0,48.0,60.0,0.0,0.0
379,53.0,48.0,90.0,1.0,0.0
380,72.0,48.0,60.0,0.0,0.0
381,70.0,0.0,60.0,0.0,0.0
382,41.0,0.0,90.0,1.0,0.0
383,69.0,48.0,60.0,0.0,0.0
384,67.0,48.0,60.0,0.0,0.0
385,53.0,0.0,90.0,1.0,0.0
386,65.0,48.0,60.0,0.0,0.0
387,63.0,48.0,60.0,0.0,0.0
388,46.0,0.0,90.0,1.0,0.0
389,62.0,48.0,60.0,0.0,0.0
390,63.0,48.0,60.0,0.0,0.0
391,53.0,0.0,90.0,1.0,0.0
392,65.0,48.0,60.0,0.0,0.0
393,67.0,48.0,60.0,0.0,0.0
394,65.0,48.0,60.0,0.0,0.0
395,50.0,48.0,90.0,1.0,0.0
396,67.0,0.0,60.0,0.0,0.0
397,69.0,48.0,60.0,0.0,0.0
398,53.0,48.0,90.0,1.0,0.0
399,70.0,0.0,60.0,0.0,0.0
400,48.0,48.0,90.0,1.0,0.0
401,69.0,48.0,60.0,0.0,0.0
402,70.0,0.0,60.0,0.0,0.0
403,53.0,0.0,90.0,1.0,0.0
404,72.0,48.0,60.0,0.0,0.0
405,70.0,48.0,60.0,0.0,0.0
406,69.0,48.0,60.0,0.0,0.0
407,41.0,0.0,90.0,1.0,0.0
408,67.0,48.0,60.0,0.0,0.0
409,65.0,48.0,60.0,0.0,0.0
410,53.0,0.0,90.0,1.0,0.0
411,63.0,48.0,60.0,0.0,0.0
412,62.0,48.0,60.0,0.0,0.0
413,46.0,2.0,90.0,1.0,0.0
414,63.0,48.0,60.0,0.0,0.0
415,65.0,46.0,60.0,0.0,0.0
416,53.0,2.0,90.0,1.0,0.0
417,67.0,48.0,60.0,0.0,0.0
418,69.0,46.0,60.0,0.0,0.0
419,50.0,2.0,90.0,1.0,0.0
420,70.0,48.0,60.0,0.0,0.0
421,72.0,46.0,60.0,0.0,0.0
422,53.0,2.0,90.0,1.0,0.0
423,74.0,48.0,60.0,0.0,0.0
424,48.0,2.0,90.0,1.0,0.0
425,75.0,16.0,60.0,0.0,0.0
426,74.0,16.0,15.0,0.0,0.0
427,74.0,14.0,15.0,0.0,0.0
428,74.0,48.0,15.0,0.0,0.0
429,75.0,46.0,60.0,0.0,0.0
430,53.0,2.0,90.0,1.0,0.0
431,77.0,48.0,60.0,0.0,0.0
432,79.0,16.0,60.0,0.0,0.0
433,41.0,0.0,90.0,1.0,0.0
434,51.0,2.0,90.0,1.0,0.0
435,78.0,16.0,15.0,0.0,0.0
436,78.0,48.0,15.0,0.0,0.0
437,53.0,2.0,90.0,1.0,0.0
438,79.0,46.0,60.0,0.0,0.0
439,81.0,48.0,60.0,0.0,0.0
440,46.0,0.0,150.0,1.0,0.0
441,50.0,32.0,150.0,1.0,0.0
442,82.0,48.0,60.0,0.0,0.0
443,81.0,48.0,60.0,0.0,0.0
444,84.0,16.0,60.0,0.0,0.0
445,82.0,48.0,60.0,0.0,0.0
446,77.0,48.0,60.0,0.0,0.0
447,76.0,48.0,60.0,0.0,0.0
448,79.0,48.0,60.0,0.0,0.0
449,77.0,48.0,60.0,0.0,0.0
450,74.0,48.0,60.0,0.0,0.0
451,73.0,48.0,60.0,0.0,0.0
452,75.0,48.0,60.0,0.0,0.0
453,74.0,48.0,60.0,0.0,0.0
454,70.0,48.0,60.0,0.0,0.0
455,69.0,48.0,60.0,0.0,0.0
456,72.0,46.0,60.0,0.0,0.0
457,70.0,34.0,60.0,0.0,0.0
458,62.0,0.0,30.0,1.0,0.0
459,58.0,48.0,30.0,1.0,0.0
460,68.0,48.0,30.0,0.0,0.0
461,70.0,0.0,30.0,0.0,0.0
462,63.0,0.0,30.0,1.0,0.0
463,60.0,48.0,30.0,1.0,0.0
464,70.0,48.0,30.0,0.0,0.0
465,68.0,0.0,30.0,0.0,0.0
466,65.0,0.0,30.0,1.0,0.0
467,62.0,48.0,30.0,1.0,0.0
468,68.0,0.0,30.0,0.0,0.0
469,70.0,48.0,30.0,0.0,0.0
470,63.0,0.0,30.0,1.0,0.0
471,60.0,48.0,30.0,1.0,0.0
472,68.0,48.0,30.0,0.0,0.0
473,70.0,0.0,30.0,0.0,0.0
474,65.0,0.0,30.0,1.0,0.0
475,62.0,48.0,30.0,1.0,0.0
476,70.0,48.0,30.0,0.0,0.0
477,68.0,0.0,30.0,0.0,0.0
478,63.0,0.0,30.0,1.0,0.0
479,60.0,48.0,30.0,1.0,0.0
480,68.0,0.0,30.0,0.0,0.0
481,70.0,48.0,30.0,0.0,0.0
482,62.0,0.0,30.0,1.0,0.0
483,65.0,48.0,30.0,1.0,0.0
484,70.0,0.0,30.0,0.0,0.0
485,68.0,48.0,30.0,0.0,0.0
486,60.0,0.0,30.0,1.0,0.0
487,63.0,48.0,30.0,1.0,0.0
488,68.0,0.0,30.0,0.0,0.0
489,70.0,112.0,30.0,0.0,0.0
490,67.0,0.0,120.0,1.0,0.0
491,63.0,24.0,120.0,1.0,0.0
492,70.0,24.0,60.0,0.0,0.0
493,69.0,48.0,60.0,0.0,0.0
494,70.0,48.0,60.0,0.0,0.0
495,75.0,48.0,60.0,0.0,0.0
496,63.0,0.0,60.0,1.0,0.0
497,67.0,0.0,60.0,1.0,0.0
498,70.0,48.0,60.0,0.0,0.0
499,79.0,48.0,60.0,0.0,0.0
500,70.0,48.0,60.0,0.0,0.0
501,82.0,48.0,60.0,0.0,0.0
502,70.0,48.0,60.0,0.0,0.0
503,79.0,48.0,60.0,0.0,0.0
504,70.0,48.0,60.0,0.0,0.0
505,77.0,48.0,60.0,0.0,0.0
506,70.0,48.0,60.0,0.0,0.0
507,75.0,46.0,60.0,0.0,0.0
508,70.0,34.0,60.0,0.0,0.0
509,65.0,0.0,30.0,1.0,0.0
510,62.0,48.0,30.0,1.0,0.0
511,70.0,0.0,30.0,0.0,0.0
512,68.0,48.0,30.0,0.0,0.0
513,63.0,0.0,30.0,1.0,0.0
514,60.0,48.0,30.0,1.0,0.0
515,68.0,0.0,30.0,0.0,0.0
516,70.0,48.0,30.0,0.0,0.0
517,58.0,0.0,30.0,1.0,0.0
518,62.0,48.0,30.0,1.0,0.0
519,68.0,48.0,30.0,0.0,0.0
520,70.0,0.0,30.0,0.0,0.0
521,63.0,0.0,30.0,1.0,0.0
522,60.0,48.0,30.0,1.0,0.0
523,68.0,0.0,30.0,0.0,0.0
524,70.0,48.0,30.0,0.0,0.0
525,65.0,0.0,30.0,1.0,0.0
526,62.0,48.0,30.0,1.0,0.0
527,70.0,0.0,30.0,0.0,0.0
528,68.0,48.0,30.0,0.0,0.0
529,60.0,48.0,30.0,1.0,0.0
530,63.0,0.0,30.0,1.0,0.0
531,70.0,0.0,30.0,0.0,0.0
532,68.0,48.0,30.0,0.0,0.0
533,62.0,0.0,30.0,1.0,0.0
534,65.0,48.0,30.0,1.0,0.0
535,70.0,0.0,30.0,0.0,0.0
536,68.0,48.0,30.0,0.0,0.0
537,58.0,0.0,30.0,1.0,0.0
538,62.0,48.0,30.0,1.0,0.0
539,68.0,0.0,30.0,0.0,0.0
540,70.0,112.0,30.0,0.0,0.0
541,63.0,0.0,120.0,1.0,0.0
542,67.0,24.0,120.0,1.0,0.0
543,70.0,24.0,60.0,0.0,0.0
544,69.0,48.0,60.0,0.0,0.0
545,70.0,48.0,60.0,0.0,0.0
546,63.0,0.0,60.0,1.0,0.0
547,75.0,0.0,60.0,0.0,0.0
548,67.0,48.0,60.0,1.0,0.0
549,70.0,48.0,60.0,0.0,0.0
550,79.0,48.0,60.0,0.0,0.0
551,70.0,48.0,60.0,0.0,0.0
552,82.0,48.0,60.0,0.0,0.0
553,70.0,48.0,60.0,0.0,0.0
554,79.0,48.0,60.0,0.0,0.0
555,70.0,48.0,60.0,0.0,0.0
556,77.0,48.0,60.0,0.0,0.0
557,70.0,48.0,60.0,0.0,0.0
558,75.0,46.0,60.0,0.0,0.0
559,70.0,34.0,60.0,0.0,0.0
560,64.0,0.0,30.0,1.0,0.0
561,67.0,48.0,30.0,1.0,0.0
562,72.0,0.0,30.0,0.0,0.0
563,70.0,48.0,30.0,0.0,0.0
564,62.0,48.0,30.0,1.0,0.0
565,65.0,0.0,30.0,1.0,0.0
566,70.0,0.0,30.0,0.0,0.0
567,72.0,48.0,30.0,0.0,0.0
568,60.0,0.0,30.0,1.0,0.0
569,64.0,48.0,30.0,1.0,0.0
570,70.0,48.0,30.0,0.0,0.0
571,72.0,0.0,30.0,0.0,0.0
572,65.0,48.0,30.0,1.0,0.0
573,62.0,0.0,30.0,1.0,0.0
574,72.0,48.0,30.0,0.0,0.0
575,70.0,0.0,30.0,0.0,0.0
576,67.0,0.0,30.0,1.0,0.0
577,64.0,48.0,30.0,1.0,0.0
578,70.0,48.0,30.0,0.0,0.0
579,72.0,0.0,30.0,0.0,0.0
580,65.0,0.0,30.0,1.0,0.0
581,62.0,48.0,30.0,1.0,0.0
582,72.0,0.0,30.0,0.0,0.0
583,70.0,48.0,30.0,0.0,0.0
584,64.0,48.0,30.0,1.0,0.0
585,67.0,0.0,30.0,1.0,0.0
586,70.0,0.0,30.0,0.0,0.0
587,72.0,48.0,30.0,0.0,0.0
588,65.0,0.0,30.0,1.0,0.0
589,62.0,48.0,30.0,1.0,0.0
590,70.0,64.0,30.0,0.0,0.0
591,72.0,0.0,30.0,0.0,0.0
592,68.0,48.0,60.0,1.0,0.0
593,65.0,0.0,60.0,1.0,0.0
594,72.0,48.0,60.0,0.0,0.0
595,74.0,48.0,60.0,0.0,0.0
596,76.0,48.0,60.0,0.0,0.0
597,77.0,0.0,60.0,0.0,0.0
598,65.0,0.0,60.0,1.0,0.0
599,68.0,48.0,60.0,1.0,0.0
600,79.0,48.0,60.0,0.0,0.0
601,80.0,48.0,60.0,0.0,0.0
602,82.0,48.0,60.0,0.0,0.0
603,84.0,48.0,60.0,0.0,0.0
604,83.0,48.0,60.0,0.0,0.0
605,85.0,48.0,60.0,0.0,0.0
606,84.0,48.0,60.0,0.0,0.0
607,62.0,48.0,180.0,1.0,0.0
608,82.0,48.0,60.0,0.0,0.0
609,80.0,48.0,60.0,0.0,0.0
610,79.0,48.0,60.0,0.0,0.0
611,78.0,0.0,60.0,0.0,0.0
612,80.0,48.0,60.0,0.0,0.0
613,63.0,32.0,150.0,1.0,0.0
614,79.0,48.0,60.0,0.0,0.0
615,84.0,16.0,60.0,0.0,0.0
616,82.0,48.0,60.0,0.0,0.0
617,80.0,48.0,60.0,0.0,0.0
618,60.0,32.0,150.0,1.0,0.0
619,79.0,48.0,60.0,0.0,0.0
620,77.0,16.0,60.0,0.0,0.0
621,75.0,48.0,60.0,0.0,0.0
622,56.0,32.0,150.0,1.0,0.0
623,79.0,48.0,60.0,0.0,0.0
624,77.0,48.0,60.0,0.0,0.0
625,82.0,16.0,60.0,0.0,0.0
626,80.0,48.0,60.0,0.0,0.0
627,79.0,48.0,60.0,0.0,0.0
628,58.0,32.0,150.0,1.0,0.0
629,77.0,48.0,60.0,0.0,0.0
630,75.0,16.0,60.0,0.0,0.0
631,74.0,46.0,60.0,0.0,0.0
632,55.0,30.0,150.0,1.0,0.0
633,75.0,48.0,60.0,0.0,0.0
634,76.0,48.0,60.0,0.0,0.0
635,77.0,18.0,60.0,0.0,0.0
636,78.0,48.0,60.0,0.0,0.0
637,79.0,48.0,60.0,0.0,0.0
638,52.0,30.0,150.0,1.0,0.0
639,73.0,48.0,60.0,0.0,0.0
640,72.0,18.0,60.0,0.0,0.0
641,70.0,48.0,60.0,0.0,0.0
642,53.0,30.0,150.0,1.0,0.0
643,69.0,48.0,60.0,0.0,0.0
644,72.0,48.0,60.0,0.0,0.0
645,74.0,18.0,60.0,0.0,0.0
646,76.0,48.0,60.0,0.0,0.0
647,77.0,48.0,60.0,0.0,0.0
648,50.0,30.0,150.0,1.0,0.0
649,72.0,48.0,60.0,0.0,0.0
650,70.0,18.0,60.0,0.0,0.0
651,68.0,48.0,60.0,0.0,0.0
652,66.0,48.0,60.0,0.0,0.0
653,51.0,30.0,150.0,1.0,0.0
654,67.0,48.0,60.0,0.0,0.0
655,72.0,18.0,60.0,0.0,0.0
656,70.0,48.0,60.0,0.0,0.0
657,48.0,30.0,150.0,1.0,0.0
658,68.0,48.0,60.0,0.0,0.0
659,67.0,48.0,60.0,0.0,0.0
660,65.0,18.0,60.0,0.0,0.0
661,63.0,48.0,60.0,0.0,0.0
662,44.0,30.0,150.0,1.0,0.0
663,67.0,48.0,60.0,0.0,0.0
664,65.0,48.0,60.0,0.0,0.0
665,70.0,18.0,60.0,0.0,0.0
666,68.0,48.0,60.0,0.0,0.0
667,46.0,30.0,150.0,1.0,0.0
668,67.0,48.0,60.0,0.0,0.0
669,65.0,48.0,60.0,0.0,0.0
670,63.0,18.0,60.0,0.0,0.0
671,62.0,96.0,60.0,0.0,0.0
672,39.0,66.0,90.0,1.0,0.0
673,63.0,30.0,150.0,0.0,0.0
674,43.0,96.0,90.0,1.0,0.0
675,46.0,96.0,90.0,1.0,0.0
676,44.0,50.0,90.0,1.0,0.0
677,58.0,0.0,60.0,0.0,0.0
678,63.0,0.0,60.0,0.0,0.0
679,43.0,96.0,90.0,1.0,0.0
680,55.0,46.0,60.0,0.0,0.0
681,41.0,50.0,90.0,1.0,0.0
682,43.0,96.0,90.0,1.0,0.0
683,63.0,0.0,60.0,0.0,0.0
684,55.0,46.0,60.0,0.0,0.0
685,58.0,0.0,60.0,0.0,0.0
686,39.0,96.0,90.0,1.0,0.0
687,53.0,0.0,330.0,0.0,0.0
688,62.0,30.0,270.0,0.0,0.0
689,44.0,96.0,90.0,1.0,0.0
690,59.0,46.0,330.0,0.0,0.0
691,39.0,66.0,90.0,1.0,0.0
692,44.0,50.0,90.0,1.0,0.0
693,63.0,0.0,90.0,0.0,0.0
694,39.0,96.0,90.0,1.0,0.0
695,65.0,0.0,150.0,0.0,0.0
696,44.0,66.0,90.0,1.0,0.0
697,62.0,0.0,150.0,0.0,0.0
698,59.0,30.0,150.0,0.0,0.0
699,39.0,96.0,90.0,1.0,0.0
700,44.0,48.0,90.0,1.0,0.0
701,65.0,18.0,150.0,0.0,0.0
702,62.0,30.0,150.0,0.0,0.0
703,59.0,0.0,150.0,0.0,0.0
704,39.0,96.0,90.0,1.0,0.0
705,67.0,0.0,60.0,0.0,0.0
706,58.0,30.0,150.0,0.0,0.0
707,43.0,66.0,90.0,1.0,0.0
708,63.0,0.0,150.0,0.0,0.0
709,39.0,96.0,90.0,1.0,0.0
710,46.0,96.0,90.0,1.0,0.0
711,44.0,96.0,90.0,1.0,0.0
712,63.0,70.0,120.0,0.0,0.0
713,55.0,0.0,120.0,0.0,0.0
714,43.0,26.0,90.0,1.0,0.0
715,58.0,0.0,120.0,0.0,0.0
716,41.0,50.0,90.0,1.0,0.0
717,43.0,96.0,90.0,1.0,0.0
718,58.0,0.0,60.0,0.0,0.0
719,63.0,0.0,60.0,0.0,0.0
720,55.0,46.0,60.0,0.0,0.0
721,39.0,96.0,90.0,1.0,0.0
722,53.0,0.0,330.0,0.0,0.0
723,59.0,46.0,330.0,0.0,0.0
724,44.0,96.0,90.0,1.0,0.0
725,62.0,30.0,270.0,0.0,0.0
726,39.0,66.0,90.0,1.0,0.0
727,44.0,50.0,90.0,1.0,0.0
728,39.0,96.0,90.0,1.0,0.0
729,63.0,0.0,90.0,0.0,0.0
730,59.0,30.0,150.0,0.0,0.0
731,62.0,0.0,150.0,0.0,0.0
732,44.0,66.0,90.0,1.0,0.0
733,65.0,0.0,150.0,0.0,0.0
734,39.0,96.0,90.0,1.0,0.0
735,44.0,48.0,90.0,1.0,0.0
736,59.0,30.0,150.0,0.0,0.0
737,62.0,0.0,150.0,0.0,0.0
738,65.0,18.0,150.0,0.0,0.0
739,39.0,96.0,90.0,1.0,0.0
740,67.0,0.0,60.0,0.0,0.0
741,58.0,30.0,150.0,0.0,0.0
742,43.0,66.0,90.0,1.0,0.0
743,63.0,0.0,150.0,0.0,0.0
744,39.0,96.0,90.0,1.0,0.0
745,43.0,96.0,90.0,1.0,0.0
746,39.0,96.0,90.0,1.0,0.0
747,44.0,66.0,90.0,1.0,0.0
748,65.0,0.0,150.0,0.0,0.0
749,62.0,0.0,150.0,0.0,0.0
750,59.0,30.0,150.0,0.0,0.0
751,39.0,96.0,90.0,1.0,0.0
752,44.0,96.0,90.0,1.0,0.0
753,39.0,96.0,90.0,1.0,0.0
754,46.0,66.0,90.0,1.0,0.0
755,67.0,0.0,150.0,0.0,0.0
756,64.0,30.0,150.0,0.0,0.0
757,61.0,0.0,150.0,0.0,0.0
758,39.0,96.0,90.0,1.0,0.0
759,46.0,96.0,90.0,1.0,0.0
760,39.0,96.0,90.0,1.0,0.0
761,48.0,66.0,90.0,1.0,0.0
762,63.0,0.0,150.0,0.0,0.0
763,68.0,30.0,150.0,0.0,0.0
764,39.0,96.0,90.0,1.0,0.0
765,48.0,96.0,90.0,1.0,0.0
766,39.0,96.0,90.0,1.0,0.0
767,70.0,30.0,150.0,0.0,0.0
768,49.0,66.0,90.0,1.0,0.0
769,67.0,0.0,150.0,0.0,0.0
770,39.0,96.0,90.0,1.0,0.0
771,50.0,96.0,90.0,1.0,0.0
772,39.0,96.0,90.0,1.0,0.0
773,51.0,96.0,90.0,1.0,0.0
774,39.0,96.0,90.0,1.0,0.0
775,70.0,0.0,120.0,0.0,0.0
776,79.0,0.0,120.0,0.0,0.0
777,67.0,70.0,120.0,0.0,0.0
778,52.0,26.0,90.0,1.0,0.0
779,39.0,50.0,90.0,1.0,0.0
780,51.0,96.0,90.0,1.0,0.0
781,79.0,0.0,60.0,0.0,0.0
782,70.0,0.0,60.0,0.0,0.0
783,67.0,46.0,60.0,0.0,0.0
784,39.0,96.0,90.0,1.0,0.0
785,50.0,96.0,90.0,1.0,0.0
786,39.0,96.0,90.0,1.0,0.0
787,51.0,96.0,90.0,1.0,0.0
788,39.0,96.0,90.0,1.0,0.0
789,52.0,26.0,90.0,1.0,0.0
790,79.0,0.0,120.0,0.0,0.0
791,82.0,70.0,120.0,0.0,0.0
792,39.0,50.0,90.0,1.0,0.0
793,51.0,96.0,90.0,1.0,0.0
794,82.0,46.0,60.0,0.0,0.0
795,79.0,0.0,60.0,0.0,0.0
796,39.0,96.0,90.0,1.0,0.0
797,50.0,96.0,90.0,1.0,0.0
798,39.0,96.0,90.0,1.0,0.0
799,51.0,96.0,90.0,1.0,0.0
800,39.0,96.0,90.0,1.0,0.0
801,53.0,96.0,90.0,1.0,0.0
802,39.0,96.0,90.0,1.0,0.0
803,51.0,96.0,90.0,1.0,0.0
804,39.0,96.0,90.0,1.0,0.0
805,49.0,96.0,90.0,1.0,0.0
806,39.0,50.0,90.0,1.0,0.0
807,44.0,0.0,90.0,1.0,0.0
808,48.0,96.0,90.0,1.0,0.0
809,68.0,46.0,60.0,0.0,0.0
810,49.0,96.0,90.0,1.0,0.0
811,60.0,66.0,90.0,0.0,0.0
812,68.0,30.0,150.0,0.0,0.0
813,63.0,96.0,90.0,0.0,0.0
814,58.0,2.0,90.0,1.0,0.0
815,61.0,0.0,90.0,1.0,0.0
816,68.0,94.0,90.0,0.0,0.0
817,63.0,2.0,90.0,1.0,0.0
818,67.0,94.0,90.0,0.0,0.0
819,61.0,0.0,90.0,1.0,0.0
820,58.0,2.0,90.0,1.0,0.0
821,65.0,94.0,90.0,0.0,0.0
822,67.0,94.0,90.0,0.0,0.0
823,63.0,2.0,90.0,1.0,0.0
824,56.0,0.0,90.0,1.0,0.0
825,60.0,2.0,90.0,1.0,0.0
826,68.0,48.0,60.0,0.0,0.0
827,68.0,16.0,60.0,0.0,0.0
828,63.0,2.0,90.0,1.0,0.0
829,68.0,30.0,15.0,0.0,0.0
830,68.0,94.0,15.0,0.0,0.0
831,56.0,0.0,90.0,1.0,0.0
832,60.0,50.0,90.0,1.0,0.0
833,63.0,2.0,90.0,1.0,0.0
834,72.0,94.0,60.0,0.0,0.0
835,58.0,96.0,90.0,1.0,0.0
836,55.0,0.0,90.0,1.0,0.0
837,75.0,46.0,330.0,0.0,0.0
838,63.0,96.0,90.0,1.0,0.0
839,55.0,0.0,90.0,1.0,0.0
840,58.0,50.0,90.0,1.0,0.0
841,63.0,96.0,90.0,1.0,0.0
842,53.0,0.0,90.0,1.0,0.0
843,73.0,96.0,90.0,0.0,0.0
844,56.0,0.0,90.0,1.0,0.0
845,61.0,66.0,90.0,1.0,0.0
846,77.0,30.0,150.0,0.0,0.0
847,55.0,0.0,90.0,1.0,0.0
848,58.0,48.0,90.0,1.0,0.0
849,75.0,48.0,60.0,0.0,0.0
850,63.0,96.0,90.0,1.0,0.0
851,73.0,0.0,60.0,0.0,0.0
852,56.0,96.0,90.0,1.0,0.0
853,72.0,0.0,90.0,0.0,0.0
854,60.0,66.0,90.0,1.0,0.0
855,75.0,30.0,150.0,0.0,0.0
856,51.0,48.0,90.0,1.0,0.0
857,48.0,0.0,90.0,1.0,0.0
858,56.0,0.0,90.0,1.0,0.0
859,73.0,48.0,60.0,0.0,0.0
860,72.0,48.0,60.0,0.0,0.0
861,49.0,0.0,90.0,1.0,0.0
862,70.0,48.0,60.0,0.0,0.0
863,72.0,48.0,60.0,0.0,0.0
864,53.0,48.0,90.0,1.0,0.0
865,73.0,48.0,60.0,0.0,0.0
866,72.0,0.0,60.0,0.0,0.0
867,58.0,48.0,90.0,1.0,0.0
868,75.0,48.0,60.0,0.0,0.0
869,73.0,0.0,60.0,0.0,0.0
870,61.0,0.0,90.0,1.0,0.0
871,72.0,2.0,60.0,0.0,0.0
872,70.0,162.0,60.0,0.0,0.0
873,51.0,64.0,270.0,1.0,0.0
874,68.0,30.0,150.0,0.0,0.0
875,60.0,34.0,90.0,1.0,0.0
876,56.0,0.0,30.0,1.0,0.0
877,67.0,32.0,30.0,0.0,0.0
878,63.0,88.0,30.0,0.0,0.0
879,63.0,56.0,20.0,0.0,0.0
880,56.0,0.0,90.0,1.0,0.0
881,60.0,96.0,90.0,1.0,0.0
882,68.0,14.0,60.0,0.0,0.0
883,63.0,50.0,90.0,1.0,0.0
884,60.0,0.0,90.0,1.0,0.0
885,56.0,96.0,90.0,1.0,0.0
886,68.0,46.0,60.0,0.0,0.0
887,63.0,98.0,90.0,1.0,0.0
888,68.0,96.0,90.0,0.0,0.0
889,58.0,0.0,90.0,1.0,0.0
890,61.0,0.0,90.0,1.0,0.0
891,63.0,0.0,90.0,1.0,0.0
892,67.0,96.0,90.0,0.0,0.0
893,61.0,94.0,90.0,1.0,0.0
894,58.0,0.0,90.0,1.0,0.0
895,65.0,0.0,90.0,0.0,0.0
896,67.0,2.0,90.0,0.0,0.0
897,63.0,94.0,90.0,1.0,0.0
898,56.0,0.0,90.0,1.0,0.0
899,60.0,46.0,90.0,1.0,0.0
900,68.0,2.0,60.0,0.0,0.0
901,68.0,18.0,60.0,0.0,0.0
902,63.0,32.0,90.0,1.0,0.0
903,68.0,30.0,15.0,0.0,0.0
904,68.0,48.0,30.0,0.0,0.0
905,56.0,0.0,90.0,1.0,0.0
906,60.0,32.0,90.0,1.0,0.0
907,70.0,16.0,30.0,0.0,0.0
908,72.0,48.0,30.0,0.0,0.0
909,63.0,96.0,90.0,1.0,0.0
910,73.0,16.0,30.0,0.0,0.0
911,58.0,0.0,90.0,1.0,0.0
912,55.0,0.0,90.0,1.0,0.0
913,74.0,96.0,90.0,0.0,0.0
914,63.0,64.0,90.0,1.0,0.0
915,75.0,32.0,150.0,0.0,0.0
916,55.0,96.0,90.0,1.0,0.0
917,58.0,0.0,90.0,1.0,0.0
918,75.0,0.0,90.0,0.0,0.0
919,63.0,48.0,90.0,1.0,0.0
920,73.0,2.0,90.0,0.0,0.0
921,53.0,0.0,90.0,1.0,0.0
922,56.0,24.0,90.0,1.0,0.0
923,75.0,24.0,20.0,0.0,0.0
924,77.0,22.0,20.0,0.0,0.0
925,75.0,0.0,20.0,0.0,0.0
926,61.0,96.0,90.0,1.0,0.0
927,72.0,24.0,20.0,0.0,0.0
928,73.0,48.0,20.0,0.0,0.0
929,77.0,0.0,150.0,0.0,0.0
930,55.0,0.0,90.0,1.0,0.0
931,58.0,48.0,90.0,1.0,0.0
932,75.0,48.0,60.0,0.0,0.0
933,63.0,32.0,90.0,1.0,0.0
934,73.0,0.0,60.0,0.0,0.0
935,56.0,0.0,90.0,1.0,0.0
936,60.0,0.0,90.0,1.0,0.0
937,72.0,32.0,30.0,0.0,0.0
938,71.0,32.0,30.0,0.0,0.0
939,72.0,32.0,30.0,0.0,0.0
940,63.0,0.0,30.0,1.0,0.0
941,75.0,32.0,30.0,0.0,0.0
942,73.0,32.0,30.0,0.0,0.0
943,72.0,32.0,30.0,0.0,0.0
944,70.0,32.0,30.0,0.0,0.0
945,49.0,2.0,90.0,1.0,0.0
946,69.0,30.0,30.0,0.0,0.0
947,70.0,32.0,30.0,0.0,0.0
948,61.0,2.0,90.0,1.0,0.0
949,73.0,32.0,30.0,0.0,0.0
950,72.0,30.0,30.0,0.0,0.0
951,70.0,94.0,30.0,0.0,0.0
952,51.0,2.0,90.0,1.0,0.0
953,68.0,48.0,60.0,0.0,0.0
954,68.0,16.0,60.0,0.0,0.0
955,60.0,2.0,90.0,1.0,0.0
956,68.0,30.0,15.0,0.0,0.0
957,51.0,2.0,90.0,1.0,0.0
958,72.0,94.0,90.0,0.0,0.0
959,61.0,2.0,90.0,1.0,0.0
960,70.0,94.0,90.0,0.0,0.0
961,68.0,30.0,150.0,0.0,0.0
962,60.0,0.0,150.0,0.0,0.0
963,44.0,66.0,90.0,1.0,0.0
964,56.0,34.0,90.0,1.0,0.0
965,44.0,96.0,30.0,1.0,0.0
966,63.0,96.0,30.0,0.0,0.0
967,71.0,0.0,30.0,0.0,0.0
968,44.0,0.0,30.0,1.0,0.0
969,59.0,0.0,30.0,0.0,0.0
970,51.0,224.0,30.0,1.0,0.0
971,59.0,16.0,270.0,0.0,0.0
972,51.0,0.0,270.0,1.0,0.0
973,44.0,78.0,150.0,1.0,0.0
974,71.0,0.0,150.0,0.0,0.0
975,46.0,18.0,60.0,1.0,0.0
976,70.0,0.0,60.0,0.0,0.0
977,68.0,0.0,30.0,0.0,0.0
978,47.0,46.0,30.0,1.0,0.0
979,46.0,32.0,30.0,1.0,0.0
980,49.0,32.0,30.0,1.0,0.0
981,52.0,32.0,30.0,1.0,0.0
982,58.0,32.0,30.0,0.0,0.0
983,61.0,32.0,30.0,0.0,0.0
984,67.0,32.0,30.0,0.0,0.0
985,58.0,32.0,30.0,1.0,0.0
986,61.0,32.0,30.0,1.0,0.0
987,64.0,32.0,30.0,1.0,0.0
988,67.0,32.0,30.0,0.0,0.0
989,70.0,23.0,30.0,0.0,0.0
990,73.0,43.0,20.0,0.0,0.0
991,46.0,0.0,30.0,1.0,0.0
992,55.0,0.0,30.0,1.0,0.0
993,73.0,224.0,30.0,0.0,0.0
994,61.0,0.0,30.0,0.0,0.0
995,55.0,16.0,270.0,1.0,0.0
996,46.0,0.0,150.0,1.0,0.0
997,73.0,78.0,150.0,0.0,0.0
998,61.0,0.0,270.0,0.0,0.0
999,71.0,0.0,60.0,0.0,0.0
1000,47.0,18.0,60.0,1.0,0.0
1001,70.0,0.0,30.0,0.0,0.0
1002,49.0,46.0,30.0,1.0,0.0
1003,47.0,32.0,30.0,1.0,0.0
1004,51.0,32.0,30.0,1.0,0.0
1005,56.0,32.0,30.0,1.0,0.0
1006,59.0,32.0,30.0,0.0,0.0
1007,63.0,32.0,30.0,0.0,0.0
1008,68.0,32.0,30.0,0.0,0.0
1009,59.0,32.0,30.0,1.0,0.0
1010,63.0,32.0,30.0,1.0,0.0
1011,68.0,32.0,30.0,1.0,0.0
1012,71.0,32.0,30.0,0.0,0.0
1013,75.0,23.0,30.0,0.0,0.0
1014,80.0,43.0,20.0,0.0,0.0
1015,69.0,0.0,30.0,0.0,0.0
1016,81.0,0.0,30.0,0.0,0.0
1017,63.0,0.0,30.0,1.0,0.0
1018,60.0,224.0,30.0,1.0,0.0
1019,63.0,0.0,150.0,1.0,0.0
1020,60.0,78.0,150.0,1.0,0.0
1021,81.0,0.0,150.0,0.0,0.0
1022,69.0,0.0,150.0,0.0,0.0
1023,64.0,48.0,60.0,1.0,0.0
1024,80.0,0.0,60.0,0.0,0.0
1025,61.0,0.0,60.0,1.0,0.0
1026,78.0,48.0,60.0,0.0,0.0
1027,66.0,0.0,60.0,1.0,0.0
1028,63.0,0.0,60.0,1.0,0.0
1029,78.0,48.0,60.0,0.0,0.0
1030,64.0,30.0,150.0,1.0,0.0
1031,61.0,0.0,150.0,1.0,0.0
1032,76.0,48.0,60.0,0.0,0.0
1033,76.0,18.0,60.0,0.0,0.0
1034,75.0,48.0,60.0,0.0,0.0
1035,75.0,48.0,60.0,0.0,0.0
1036,73.0,48.0,60.0,0.0,0.0
1037,73.0,48.0,60.0,0.0,0.0
1038,71.0,34.0,60.0,0.0,0.0
1039,71.0,48.0,60.0,0.0,0.0
1040,49.0,14.0,30.0,1.0,0.0
1041,52.0,0.0,30.0,1.0,0.0
1042,70.0,48.0,60.0,0.0,0.0
1043,70.0,48.0,60.0,0.0,0.0
1044,71.0,34.0,60.0,0.0,0.0
1045,71.0,48.0,60.0,0.0,0.0
1046,50.0,0.0,30.0,1.0,0.0
1047,53.0,14.0,30.0,1.0,0.0
1048,70.0,48.0,60.0,0.0,0.0
1049,70.0,48.0,60.0,0.0,0.0
1050,68.0,34.0,60.0,0.0,0.0
1051,51.0,0.0,30.0,1.0,0.0
1052,58.0,14.0,30.0,1.0,0.0
1053,68.0,48.0,60.0,0.0,0.0
1054,67.0,48.0,60.0,0.0,0.0
1055,65.0,48.0,60.0,0.0,0.0
1056,63.0,48.0,60.0,0.0,0.0
1057,62.0,48.0,60.0,0.0,0.0
1058,63.0,48.0,60.0,0.0,0.0
1059,64.0,34.0,60.0,0.0,0.0
1060,63.0,48.0,30.0,0.0,0.0
1061,71.0,162.0,90.0,0.0,0.0
1062,59.0,0.0,90.0,0.0,0.0
1063,51.0,62.0,30.0,1.0,0.0
1064,44.0,0.0,30.0,1.0,0.0
1065,51.0,0.0,270.0,1.0,0.0
1066,44.0,78.0,150.0,1.0,0.0
1067,59.0,16.0,270.0,0.0,0.0
1068,71.0,0.0,150.0,0.0,0.0
1069,46.0,18.0,60.0,1.0,0.0
1070,70.0,0.0,60.0,0.0,0.0
1071,68.0,0.0,30.0,0.0,0.0
1072,47.0,46.0,30.0,1.0,0.0
1073,46.0,32.0,30.0,1.0,0.0
1074,49.0,32.0,30.0,1.0,0.0
1075,54.0,32.0,30.0,1.0,0.0
1076,58.0,32.0,30.0,0.0,0.0
1077,61.0,32.0,30.0,0.0,0.0
1078,66.0,32.0,30.0,0.0,0.0
1079,58.0,32.0,30.0,1.0,0.0
1080,61.0,32.0,30.0,1.0,0.0
1081,66.0,32.0,30.0,1.0,0.0
1082,70.0,32.0,30.0,0.0,0.0
1083,73.0,32.0,30.0,0.0,0.0
1084,76.0,34.0,30.0,0.0,0.0
1085,54.0,0.0,30.0,1.0,0.0
1086,80.0,0.0,30.0,0.0,0.0
1087,42.0,224.0,30.0,1.0,0.0
1088,76.0,0.0,30.0,0.0,0.0
1089,54.0,30.0,270.0,1.0,0.0
1090,42.0,32.0,150.0,1.0,0.0
1091,80.0,0.0,180.0,0.0,0.0
1092,76.0,46.0,180.0,0.0,0.0
1093,44.0,2.0,60.0,1.0,0.0
1094,78.0,0.0,60.0,0.0,0.0
1095,75.0,16.0,60.0,0.0,0.0
1096,46.0,0.0,60.0,1.0,0.0
1097,76.0,0.0,60.0,0.0,0.0
1098,73.0,32.0,60.0,0.0,0.0
1099,47.0,32.0,30.0,1.0,0.0
1100,51.0,32.0,30.0,1.0,0.0
1101,54.0,32.0,30.0,1.0,0.0
1102,63.0,32.0,30.0,0.0,0.0
1103,66.0,32.0,30.0,0.0,0.0
1104,71.0,32.0,30.0,0.0,0.0
1105,59.0,32.0,30.0,1.0,0.0
1106,63.0,32.0,30.0,1.0,0.0
1107,66.0,32.0,30.0,1.0,0.0
1108,75.0,32.0,30.0,0.0,0.0
1109,78.0,23.0,30.0,0.0,0.0
1110,83.0,137.0,20.0,0.0,0.0
1111,51.0,0.0,150.0,1.0,0.0
1112,54.0,0.0,150.0,1.0,0.0
1113,59.0,30.0,150.0,1.0,0.0
1114,83.0,32.0,30.0,0.0,0.0
1115,82.0,2.0,30.0,0.0,0.0
1116,80.0,32.0,30.0,0.0,0.0
1117,78.0,32.0,30.0,0.0,0.0
1118,76.0,32.0,30.0,0.0,0.0
1119,75.0,32.0,30.0,0.0,0.0
1120,73.0,32.0,30.0,0.0,0.0
1121,71.0,32.0,30.0,0.0,0.0
1122,70.0,34.0,30.0,0.0,0.0
1123,68.0,94.0,30.0,0.0,0.0
1124,52.0,0.0,150.0,1.0,0.0
1125,56.0,0.0,150.0,1.0,0.0
1126,59.0,0.0,150.0,1.0,0.0
1127,61.0,30.0,150.0,1.0,0.0
1128,80.0,32.0,30.0,0.0,0.0
1129,78.0,2.0,30.0,0.0,0.0
1130,76.0,32.0,30.0,0.0,0.0
1131,75.0,32.0,30.0,0.0,0.0
1132,73.0,32.0,30.0,0.0,0.0
1133,71.0,32.0,30.0,0.0,0.0
1134,70.0,32.0,30.0,0.0,0.0
1135,71.0,32.0,30.0,0.0,0.0
1136,68.0,34.0,30.0,0.0,0.0
1137,59.0,96.0,30.0,1.0,0.0
1138,66.0,0.0,30.0,0.0,0.0
1139,54.0,0.0,30.0,1.0,0.0
1140,63.0,0.0,30.0,1.0,0.0
1141,71.0,0.0,30.0,0.0,0.0
1142,78.0,0.0,30.0,0.0,0.0
1143,75.0,0.0,30.0,0.0,0.0
1144,66.0,96.0,30.0,0.0,0.0
1145,42.0,0.0,30.0,1.0,0.0
1146,54.0,96.0,30.0,1.0,0.0
1147,70.0,112.0,30.0,0.0,0.0
1148,64.0,0.0,30.0,0.0,0.0
1149,61.0,0.0,30.0,0.0,0.0
1150,66.0,0.0,30.0,0.0,0.0
1151,63.0,0.0,150.0,0.0,0.0
1152,66.0,32.0,150.0,0.0,0.0
1153,71.0,0.0,150.0,0.0,0.0
1154,47.0,48.0,60.0,1.0,0.0
1155,54.0,48.0,60.0,1.0,0.0
1156,51.0,16.0,60.0,1.0,0.0
1157,54.0,48.0,60.0,1.0,0.0
1158,42.0,48.0,60.0,1.0,0.0
1159,54.0,48.0,60.0,1.0,0.0
1160,51.0,48.0,60.0,1.0,0.0
1161,54.0,48.0,60.0,1.0,0.0
1162,47.0,48.0,60.0,1.0,0.0
1163,54.0,32.0,60.0,1.0,0.0
1164,51.0,48.0,60.0,1.0,0.0
1165,75.0,16.0,30.0,0.0,0.0
1166,54.0,32.0,60.0,1.0,0.0
1167,75.0,16.0,30.0,0.0,0.0
1168,42.0,48.0,60.0,1.0,0.0
1169,54.0,32.0,60.0,1.0,0.0
1170,75.0,16.0,30.0,0.0,0.0
1171,51.0,48.0,60.0,1.0,0.0
1172,54.0,48.0,60.0,1.0,0.0
1173,78.0,2.0,150.0,0.0,0.0
1174,49.0,48.0,60.0,1.0,0.0
1175,54.0,46.0,60.0,1.0,0.0
1176,52.0,46.0,60.0,1.0,0.0
1177,54.0,48.0,60.0,1.0,0.0
1178,76.0,2.0,60.0,0.0,0.0
1179,73.0,48.0,60.0,0.0,0.0
1180,42.0,0.0,60.0,1.0,0.0
1181,54.0,48.0,60.0,1.0,0.0
1182,52.0,48.0,60.0,1.0,0.0
1183,54.0,48.0,60.0,1.0,0.0
1184,46.0,48.0,60.0,1.0,0.0
1185,54.0,32.0,60.0,1.0,0.0
1186,52.0,48.0,60.0,1.0,0.0
1187,66.0,16.0,30.0,0.0,0.0
1188,54.0,32.0,60.0,1.0,0.0
1189,42.0,48.0,60.0,1.0,0.0
1190,66.0,16.0,30.0,0.0,0.0
1191,54.0,32.0,60.0,1.0,0.0
1192,52.0,46.0,60.0,1.0,0.0
1193,66.0,16.0,30.0,0.0,0.0
1194,54.0,26.0,60.0,1.0,0.0
1195,66.0,24.0,20.0,0.0,0.0
1196,47.0,48.0,60.0,1.0,0.0
1197,73.0,2.0,180.0,0.0,0.0
1198,54.0,48.0,60.0,1.0,0.0
1199,51.0,46.0,60.0,1.0,0.0
1200,54.0,32.0,60.0,1.0,0.0
1201,42.0,48.0,60.0,1.0,0.0
1202,71.0,16.0,30.0,0.0,0.0
1203,54.0,48.0,60.0,1.0,0.0
1204,51.0,48.0,60.0,1.0,0.0
1205,54.0,48.0,60.0,1.0,0.0
1206,47.0,46.0,60.0,1.0,0.0
1207,54.0,46.0,60.0,1.0,0.0
1208,75.0,2.0,60.0,0.0,0.0
1209,74.0,2.0,60.0,0.0,0.0
1210,51.0,46.0,60.0,1.0,0.0
1211,54.0,46.0,60.0,1.0,0.0
1212,75.0,2.0,60.0,0.0,0.0
1213,74.0,2.0,60.0,0.0,0.0
1214,42.0,46.0,60.0,1.0,0.0
1215,54.0,46.0,60.0,1.0,0.0
1216,75.0,2.0,60.0,0.0,0.0
1217,76.0,2.0,60.0,0.0,0.0
1218,51.0,46.0,60.0,1.0,0.0
1219,54.0,48.0,60.0,1.0,0.0
1220,75.0,2.0,60.0,0.0,0.0
1221,49.0,48.0,60.0,1.0,0.0
1222,78.0,2.0,150.0,0.0,0.0
1223,54.0,46.0,60.0,1.0,0.0
1224,52.0,46.0,60.0,1.0,0.0
1225,76.0,2.0,60.0,0.0,0.0
1226,54.0,48.0,60.0,1.0,0.0
1227,42.0,48.0,60.0,1.0,0.0
1228,73.0,0.0,60.0,0.0,0.0
1229,54.0,48.0,60.0,1.0,0.0
1230,52.0,48.0,60.0,1.0,0.0
1231,54.0,48.0,60.0,1.0,0.0
1232,46.0,46.0,60.0,1.0,0.0
1233,66.0,2.0,60.0,0.0,0.0
1234,54.0,46.0,60.0,1.0,0.0
1235,52.0,46.0,60.0,1.0,0.0
1236,65.0,2.0,60.0,0.0,0.0
1237,54.0,46.0,60.0,1.0,0.0
1238,66.0,2.0,60.0,0.0,0.0
1239,42.0,46.0,60.0,1.0,0.0
1240,65.0,2.0,60.0,0.0,0.0
1241,54.0,46.0,60.0,1.0,0.0
1242,66.0,2.0,60.0,0.0,0.0
1243,65.0,2.0,60.0,0.0,0.0
1244,52.0,46.0,60.0,1.0,0.0
1245,66.0,26.0,60.0,0.0,0.0
1246,54.0,0.0,60.0,1.0,0.0
1247,45.0,48.0,60.0,1.0,0.0
1248,66.0,24.0,20.0,0.0,0.0
1249,73.0,2.0,180.0,0.0,0.0
1250,54.0,48.0,60.0,1.0,0.0
1251,51.0,46.0,60.0,1.0,0.0
1252,54.0,32.0,60.0,1.0,0.0
1253,72.0,16.0,30.0,0.0,0.0
1254,44.0,48.0,60.0,1.0,0.0
1255,54.0,48.0,60.0,1.0,0.0
1256,51.0,48.0,60.0,1.0,0.0
1257,54.0,48.0,60.0,1.0,0.0
1258,48.0,46.0,60.0,1.0,0.0
1259,54.0,46.0,60.0,1.0,0.0
1260,68.0,2.0,60.0,0.0,0.0
1261,67.0,2.0,60.0,0.0,0.0
1262,51.0,46.0,60.0,1.0,0.0
1263,68.0,2.0,60.0,0.0,0.0
1264,54.0,46.0,60.0,1.0,0.0
1265,67.0,2.0,60.0,0.0,0.0
1266,44.0,46.0,60.0,1.0,0.0
1267,68.0,2.0,60.0,0.0,0.0
1268,54.0,46.0,60.0,1.0,0.0
1269,67.0,2.0,60.0,0.0,0.0
1270,51.0,46.0,60.0,1.0,0.0
1271,54.0,0.0,60.0,1.0,0.0
1272,68.0,26.0,60.0,0.0,0.0
1273,47.0,50.0,60.0,1.0,0.0
1274,68.0,22.0,20.0,0.0,0.0
1275,75.0,2.0,180.0,0.0,0.0
1276,56.0,48.0,60.0,1.0,0.0
1277,53.0,46.0,60.0,1.0,0.0
1278,56.0,32.0,60.0,1.0,0.0
1279,46.0,48.0,60.0,1.0,0.0
1280,74.0,16.0,30.0,0.0,0.0
1281,56.0,48.0,60.0,1.0,0.0
1282,53.0,48.0,60.0,1.0,0.0
1283,56.0,48.0,60.0,1.0,0.0
1284,50.0,46.0,60.0,1.0,0.0
1285,70.0,2.0,60.0,0.0,0.0
1286,56.0,46.0,60.0,1.0,0.0
1287,69.0,2.0,60.0,0.0,0.0
1288,53.0,46.0,60.0,1.0,0.0
1289,56.0,46.0,60.0,1.0,0.0
1290,70.0,2.0,60.0,0.0,0.0
1291,46.0,46.0,60.0,1.0,0.0
1292,69.0,2.0,60.0,0.0,0.0
1293,70.0,2.0,60.0,0.0,0.0
1294,56.0,46.0,60.0,1.0,0.0
1295,69.0,2.0,60.0,0.0,0.0
1296,53.0,46.0,60.0,1.0,0.0
1297,70.0,0.0,60.0,0.0,0.0
1298,56.0,50.0,60.0,1.0,0.0
1299,77.0,2.0,90.0,0.0,0.0
1300,51.0,46.0,60.0,1.0,0.0
1301,58.0,48.0,60.0,1.0,0.0
1302,55.0,48.0,60.0,1.0,0.0
1303,75.0,32.0,150.0,0.0,0.0
1304,58.0,48.0,60.0,1.0,0.0
1305,49.0,16.0,60.0,1.0,0.0
1306,58.0,46.0,60.0,1.0,0.0
1307,55.0,46.0,60.0,1.0,0.0
1308,77.0,2.0,60.0,0.0,0.0
1309,79.0,2.0,60.0,0.0,0.0
1310,58.0,46.0,60.0,1.0,0.0
1311,47.0,46.0,60.0,1.0,0.0
1312,80.0,2.0,60.0,0.0,0.0
1313,82.0,2.0,60.0,0.0,0.0
1314,56.0,46.0,60.0,1.0,0.0
1315,51.0,46.0,60.0,1.0,0.0
1316,83.0,2.0,60.0,0.0,0.0
1317,56.0,46.0,60.0,1.0,0.0
1318,82.0,2.0,60.0,0.0,0.0
1319,44.0,46.0,60.0,1.0,0.0
1320,85.0,2.0,60.0,0.0,0.0
1321,56.0,46.0,60.0,1.0,0.0
1322,83.0,2.0,60.0,0.0,0.0
1323,82.0,2.0,60.0,0.0,0.0
1324,51.0,46.0,60.0,1.0,0.0
1325,80.0,0.0,60.0,0.0,0.0
1326,56.0,32.0,60.0,1.0,0.0
1327,79.0,2.0,30.0,0.0,0.0
1328,39.0,0.0,30.0,1.0,0.0
1329,43.0,0.0,30.0,1.0,0.0
1330,51.0,30.0,30.0,1.0,0.0
1331,46.0,0.0,30.0,1.0,0.0
1332,82.0,32.0,30.0,0.0,0.0
1333,80.0,32.0,30.0,0.0,0.0
1334,79.0,32.0,30.0,0.0,0.0
1335,77.0,32.0,30.0,0.0,0.0
1336,75.0,32.0,30.0,0.0,0.0
1337,73.0,32.0,30.0,0.0,0.0
1338,76.0,32.0,30.0,0.0,0.0
1339,75.0,32.0,30.0,0.0,0.0
1340,73.0,32.0,30.0,0.0,0.0
1341,71.0,32.0,30.0,0.0,0.0
1342,70.0,34.0,30.0,0.0,0.0
1343,71.0,0.0,30.0,0.0,0.0
1344,44.0,0.0,30.0,1.0,0.0
1345,51.0,224.0,30.0,1.0,0.0
1346,59.0,0.0,30.0,0.0,0.0
1347,59.0,16.0,270.0,0.0,0.0
1348,71.0,78.0,150.0,0.0,0.0
1349,44.0,0.0,150.0,1.0,0.0
1350,51.0,0.0,270.0,1.0,0.0
1351,70.0,18.0,60.0,0.0,0.0
1352,46.0,0.0,60.0,1.0,0.0
1353,68.0,14.0,30.0,0.0,0.0
1354,47.0,32.0,60.0,1.0,0.0
1355,46.0,32.0,30.0,1.0,0.0
1356,49.0,32.0,30.0,1.0,0.0
1357,52.0,32.0,30.0,1.0,0.0
1358,58.0,32.0,30.0,0.0,0.0
1359,61.0,32.0,30.0,0.0,0.0
1360,67.0,32.0,30.0,0.0,0.0
1361,58.0,32.0,30.0,1.0,0.0
1362,61.0,32.0,30.0,1.0,0.0
1363,64.0,32.0,30.0,1.0,0.0
1364,67.0,32.0,30.0,0.0,0.0
1365,70.0,23.0,30.0,0.0,0.0
1366,73.0,43.0,20.0,0.0,0.0
1367,46.0,224.0,30.0,1.0,0.0
1368,73.0,0.0,30.0,0.0,0.0
1369,61.0,0.0,30.0,0.0,0.0
1370,55.0,0.0,30.0,1.0,0.0
1371,61.0,16.0,270.0,0.0,0.0
1372,73.0,78.0,150.0,0.0,0.0
1373,55.0,0.0,270.0,1.0,0.0
1374,46.0,0.0,150.0,1.0,0.0
1375,71.0,0.0,60.0,0.0,0.0
1376,47.0,18.0,60.0,1.0,0.0
1377,49.0,46.0,30.0,1.0,0.0
1378,70.0,0.0,30.0,0.0,0.0
1379,47.0,32.0,30.0,1.0,0.0
1380,51.0,32.0,30.0,1.0,0.0
1381,56.0,32.0,30.0,1.0,0.0
1382,59.0,32.0,30.0,0.0,0.0
1383,63.0,32.0,30.0,0.0,0.0
1384,68.0,32.0,30.0,0.0,0.0
1385,59.0,32.0,30.0,1.0,0.0
1386,63.0,32.0,30.0,1.0,0.0
1387,68.0,32.0,30.0,1.0,0.0
1388,71.0,32.0,30.0,0.0,0.0
1389,75.0,23.0,30.0,0.0,0.0
1390,80.0,43.0,20.0,0.0,0.0
1391,60.0,0.0,30.0,1.0,0.0
1392,63.0,224.0,30.0,1.0,0.0
1393,69.0,0.0,30.0,0.0,0.0
1394,81.0,0.0,30.0,0.0,0.0
1395,81.0,46.0,180.0,0.0,0.0
1396,69.0,0.0,180.0,0.0,0.0
1397,60.0,0.0,150.0,1.0,0.0
1398,63.0,32.0,150.0,1.0,0.0
1399,61.0,0.0,60.0,1.0,0.0
1400,64.0,0.0,60.0,1.0,0.0
1401,80.0,48.0,60.0,0.0,0.0
1402,63.0,0.0,60.0,1.0,0.0
1403,78.0,50.0,60.0,0.0,0.0
1404,66.0,0.0,60.0,1.0,0.0
1405,64.0,96.0,60.0,1.0,0.0
1406,61.0,0.0,60.0,1.0,0.0
1407,76.0,32.0,60.0,0.0,0.0
1408,80.0,64.0,30.0,0.0,0.0
1409,61.0,96.0,60.0,1.0,0.0
1410,70.0,32.0,60.0,0.0,0.0
1411,73.0,64.0,30.0,0.0,0.0
1412,63.0,96.0,60.0,1.0,0.0
1413,71.0,32.0,60.0,0.0,0.0
1414,75.0,64.0,30.0,0.0,0.0
1415,61.0,96.0,60.0,1.0,0.0
1416,51.0,0.0,60.0,1.0,0.0
1417,67.0,32.0,60.0,0.0,0.0
1418,70.0,110.0,30.0,0.0,0.0
1419,52.0,30.0,150.0,1.0,0.0
1420,59.0,0.0,150.0,1.0,0.0
1421,68.0,48.0,60.0,0.0,0.0
1422,67.0,18.0,60.0,0.0,0.0
1423,68.0,48.0,60.0,0.0,0.0
1424,67.0,48.0,60.0,0.0,0.0
1425,68.0,48.0,60.0,0.0,0.0
1426,67.0,34.0,60.0,0.0,0.0
1427,68.0,48.0,30.0,0.0,0.0
1428,57.0,0.0,30.0,0.0,0.0
1429,51.0,0.0,30.0,1.0,0.0
1430,48.0,0.0,30.0,1.0,0.0
1431,69.0,224.0,30.0,0.0,0.0
1432,51.0,0.0,150.0,1.0,0.0
1433,48.0,0.0,150.0,1.0,0.0
1434,69.0,0.0,150.0,0.0,0.0
1435,57.0,78.0,150.0,0.0,0.0
1436,68.0,0.0,60.0,0.0,0.0
1437,52.0,0.0,60.0,1.0,0.0
1438,49.0,34.0,60.0,1.0,0.0
1439,66.0,14.0,30.0,0.0,0.0
1440,51.0,50.0,60.0,1.0,0.0
1441,54.0,0.0,60.0,1.0,0.0
1442,52.0,0.0,60.0,1.0,0.0
1443,49.0,46.0,60.0,1.0,0.0
1444,64.0,48.0,60.0,0.0,0.0
1445,66.0,48.0,60.0,0.0,0.0
1446,67.0,48.0,60.0,0.0,0.0
1447,68.0,2.0,60.0,0.0,0.0
1448,49.0,46.0,60.0,1.0,0.0
1449,58.0,48.0,60.0,0.0,0.0
1450,61.0,48.0,60.0,0.0,0.0
1451,64.0,50.0,60.0,0.0,0.0
1452,51.0,46.0,60.0,1.0,0.0
1453,59.0,48.0,60.0,0.0,0.0
1454,63.0,48.0,60.0,0.0,0.0
1455,56.0,50.0,60.0,0.0,0.0
1456,39.0,46.0,60.0,1.0,0.0
1457,58.0,48.0,60.0,0.0,0.0
1458,61.0,48.0,60.0,0.0,0.0
1459,55.0,108.0,60.0,0.0,0.0
1460,44.0,42.0,180.0,1.0,0.0
1461,56.0,64.0,30.0,0.0,0.0
1462,57.0,22.0,30.0,0.0,0.0
1463,58.0,64.0,30.0,0.0,0.0
1464,59.0,64.0,30.0,0.0,0.0
1465,60.0,64.0,30.0,0.0,0.0
1466,61.0,64.0,30.0,0.0,0.0
1467,62.0,64.0,30.0,0.0,0.0
1468,63.0,64.0,30.0,0.0,0.0
1469,64.0,64.0,30.0,0.0,0.0
1470,65.0,64.0,30.0,0.0,0.0
1471,66.0,84.0,30.0,0.0,0.0
1472,67.0,44.0,60.0,0.0,0.0
1473,68.0,64.0,30.0,0.0,0.0
1474,68.0,64.0,30.0,0.0,0.0
1475,68.0,64.0,30.0,0.0,0.0
1476,68.0,64.0,30.0,0.0,0.0
1477,68.0,64.0,30.0,0.0,0.0
1478,68.0,64.0,30.0,0.0,0.0
1479,68.0,64.0,30.0,0.0,0.0
1480,68.0,86.0,30.0,0.0,0.0
1481,67.0,42.0,60.0,0.0,0.0
1482,68.0,64.0,30.0,0.0,0.0
1483,68.0,86.0,30.0,0.0,0.0
1484,68.0,42.0,60.0,0.0,0.0
1485,69.0,64.0,30.0,0.0,0.0
1486,69.0,64.0,30.0,0.0,0.0
1487,69.0,64.0,30.0,0.0,0.0
1488,69.0,64.0,30.0,0.0,0.0
1489,69.0,64.0,30.0,0.0,0.0
1490,69.0,64.0,30.0,0.0,0.0
1491,70.0,64.0,30.0,0.0,0.0
1492,70.0,64.0,30.0,0.0,0.0
1493,70.0,64.0,30.0,0.0,0.0
1494,70.0,64.0,30.0,0.0,0.0
1495,70.0,68.0,30.0,0.0,0.0
1496,70.0,48.0,60.0,0.0,0.0
1497,71.0,48.0,60.0,0.0,0.0
1498,73.0,48.0,60.0,0.0,0.0
1499,71.0,48.0,60.0,0.0,0.0
1500,69.0,48.0,60.0,0.0,0.0
1501,68.0,32.0,60.0,0.0,0.0
1502,71.0,32.0,30.0,0.0,0.0
1503,69.0,32.0,30.0,0.0,0.0
1504,66.0,50.0,30.0,0.0,0.0
1505,64.0,48.0,60.0,0.0,0.0
1506,56.0,0.0,90.0,1.0,0.0
1507,52.0,96.0,90.0,1.0,0.0
1508,59.0,48.0,90.0,1.0,0.0
1509,64.0,48.0,60.0,0.0,0.0
1510,52.0,0.0,90.0,1.0,0.0
1511,56.0,96.0,90.0,1.0,0.0
1512,59.0,96.0,90.0,1.0,0.0
1513,64.0,96.0,90.0,0.0,0.0
1514,57.0,0.0,90.0,1.0,0.0
1515,54.0,0.0,90.0,1.0,0.0
1516,63.0,96.0,90.0,0.0,0.0
1517,59.0,0.0,90.0,1.0,0.0
1518,61.0,96.0,90.0,0.0,0.0
1519,54.0,0.0,90.0,1.0,0.0
1520,57.0,0.0,90.0,1.0,0.0
1521,59.0,0.0,90.0,1.0,0.0
1522,63.0,96.0,90.0,0.0,0.0
1523,52.0,0.0,90.0,1.0,0.0
1524,56.0,48.0,90.0,1.0,0.0
1525,64.0,0.0,60.0,0.0,0.0
1526,59.0,0.0,90.0,1.0,0.0
1527,64.0,16.0,60.0,0.0,0.0
1528,64.0,32.0,15.0,0.0,0.0
1529,64.0,96.0,15.0,0.0,0.0
1530,52.0,0.0,90.0,1.0,0.0
1531,56.0,48.0,90.0,1.0,0.0
1532,59.0,96.0,90.0,1.0,0.0
1533,68.0,2.0,60.0,0.0,0.0
1534,51.0,0.0,90.0,1.0,0.0
1535,71.0,0.0,390.0,0.0,0.0
1536,54.0,96.0,90.0,1.0,0.0
1537,59.0,96.0,90.0,1.0,0.0
1538,54.0,0.0,90.0,1.0,0.0
1539,51.0,96.0,90.0,1.0,0.0
1540,59.0,68.0,90.0,1.0,0.0
1541,52.0,0.0,90.0,1.0,0.0
1542,49.0,96.0,90.0,1.0,0.0
1543,69.0,28.0,60.0,0.0,0.0
1544,57.0,96.0,90.0,1.0,0.0
1545,85.0,48.0,180.0,0.0,0.0
1546,51.0,0.0,90.0,1.0,0.0
1547,54.0,0.0,90.0,1.0,0.0
1548,59.0,32.0,90.0,1.0,0.0
1549,83.0,48.0,60.0,0.0,0.0
1550,81.0,0.0,60.0,0.0,0.0
1551,52.0,96.0,90.0,1.0,0.0
1552,80.0,64.0,30.0,0.0,0.0
1553,56.0,64.0,90.0,1.0,0.0
1554,83.0,32.0,150.0,0.0,0.0
1555,59.0,46.0,90.0,1.0,0.0
1556,64.0,48.0,90.0,1.0,0.0
1557,81.0,48.0,60.0,0.0,0.0
1558,80.0,0.0,60.0,0.0,0.0
1559,57.0,0.0,90.0,1.0,0.0
1560,78.0,48.0,60.0,0.0,0.0
1561,80.0,48.0,60.0,0.0,0.0
1562,81.0,48.0,60.0,0.0,0.0
1563,61.0,0.0,90.0,1.0,0.0
1564,80.0,48.0,60.0,0.0,0.0
1565,66.0,0.0,90.0,1.0,0.0
1566,83.0,48.0,60.0,0.0,0.0
1567,81.0,48.0,60.0,0.0,0.0
1568,80.0,2.0,60.0,0.0,0.0
1569,69.0,162.0,90.0,1.0,0.0
1570,78.0,0.0,60.0,0.0,0.0
1571,59.0,30.0,270.0,1.0,0.0
1572,76.0,30.0,150.0,0.0,0.0
1573,68.0,66.0,90.0,1.0,0.0
1574,66.0,34.0,90.0,1.0,0.0
1575,75.0,0.0,90.0,0.0,0.0
1576,59.0,128.0,30.0,0.0,0.0
1577,59.0,32.0,60.0,0.0,0.0
1578,56.0,10.0,90.0,1.0,0.0
1579,52.0,0.0,90.0,1.0,0.0
1580,64.0,64.0,30.0,0.0,0.0
1581,59.0,42.0,90.0,1.0,0.0
1582,64.0,22.0,30.0,0.0,0.0
1583,64.0,54.0,30.0,0.0,0.0
1584,52.0,0.0,90.0,1.0,0.0
1585,56.0,10.0,90.0,1.0,0.0
1586,64.0,64.0,30.0,0.0,0.0
1587,59.0,64.0,90.0,1.0,0.0
1588,64.0,22.0,30.0,0.0,0.0
1589,64.0,32.0,60.0,0.0,0.0
1590,54.0,30.0,90.0,1.0,0.0
1591,57.0,0.0,90.0,1.0,0.0
1592,63.0,44.0,60.0,0.0,0.0
1593,59.0,42.0,90.0,1.0,0.0
1594,61.0,22.0,30.0,0.0,0.0
1595,54.0,0.0,90.0,1.0,0.0
1596,57.0,10.0,90.0,1.0,0.0
1597,59.0,54.0,30.0,0.0,0.0
1598,61.0,64.0,30.0,0.0,0.0
1599,59.0,62.0,90.0,1.0,0.0
1600,63.0,22.0,30.0,0.0,0.0
1601,64.0,34.0,60.0,0.0,0.0
1602,52.0,30.0,90.0,1.0,0.0
1603,56.0,0.0,90.0,1.0,0.0
1604,66.0,64.0,60.0,0.0,0.0
1605,59.0,42.0,90.0,1.0,0.0
1606,67.0,2.0,60.0,0.0,0.0
1607,52.0,0.0,90.0,1.0,0.0
1608,68.0,54.0,30.0,0.0,0.0
1609,56.0,10.0,90.0,1.0,0.0
1610,69.0,64.0,30.0,0.0,0.0
1611,59.0,32.0,90.0,1.0,0.0
1612,70.0,22.0,30.0,0.0,0.0
1613,51.0,96.0,90.0,1.0,0.0
1614,54.0,0.0,90.0,1.0,0.0
1615,73.0,64.0,30.0,0.0,0.0
1616,71.0,32.0,150.0,0.0,0.0
1617,59.0,64.0,90.0,1.0,0.0
1618,51.0,96.0,90.0,1.0,0.0
1619,54.0,0.0,90.0,1.0,0.0
1620,71.0,0.0,90.0,0.0,0.0
1621,59.0,32.0,90.0,1.0,0.0
1622,49.0,0.0,90.0,1.0,0.0
1623,69.0,64.0,30.0,0.0,0.0
1624,52.0,96.0,90.0,1.0,0.0
1625,85.0,32.0,150.0,0.0,0.0
1626,57.0,64.0,90.0,1.0,0.0
1627,54.0,0.0,90.0,1.0,0.0
1628,51.0,46.0,90.0,1.0,0.0
1629,83.0,48.0,60.0,0.0,0.0
1630,59.0,0.0,90.0,1.0,0.0
1631,81.0,96.0,60.0,0.0,0.0
1632,80.0,46.0,330.0,0.0,0.0
1633,52.0,46.0,90.0,1.0,0.0
1634,82.0,2.0,60.0,0.0,0.0
1635,83.0,48.0,60.0,0.0,0.0
1636,59.0,46.0,90.0,1.0,0.0
1637,82.0,2.0,60.0,0.0,0.0
1638,51.0,46.0,90.0,1.0,0.0
1639,83.0,48.0,60.0,0.0,0.0
1640,82.0,2.0,60.0,0.0,0.0
1641,59.0,94.0,90.0,1.0,0.0
1642,83.0,2.0,60.0,0.0,0.0
1643,82.0,2.0,60.0,0.0,0.0
1644,85.0,96.0,90.0,0.0,0.0
1645,50.0,2.0,90.0,1.0,0.0
1646,83.0,96.0,90.0,0.0,0.0
1647,53.0,0.0,90.0,1.0,0.0
1648,82.0,0.0,90.0,0.0,0.0
1649,38.0,94.0,90.0,1.0,0.0
1650,50.0,2.0,90.0,1.0,0.0
1651,80.0,48.0,90.0,0.0,0.0
1652,79.0,32.0,150.0,0.0,0.0
1653,39.0,48.0,60.0,1.0,0.0
1654,51.0,48.0,60.0,1.0,0.0
1655,43.0,16.0,60.0,1.0,0.0
1656,51.0,48.0,60.0,1.0,0.0
1657,46.0,48.0,60.0,1.0,0.0
1658,51.0,48.0,60.0,1.0,0.0
1659,43.0,48.0,60.0,1.0,0.0
1660,51.0,48.0,60.0,1.0,0.0
1661,39.0,48.0,60.0,1.0,0.0
1662,51.0,32.0,60.0,1.0,0.0
1663,43.0,48.0,60.0,1.0,0.0
1664,75.0,16.0,30.0,0.0,0.0
1665,51.0,32.0,60.0,1.0,0.0
1666,75.0,16.0,30.0,0.0,0.0
1667,46.0,48.0,60.0,1.0,0.0
1668,51.0,32.0,60.0,1.0,0.0
1669,43.0,46.0,60.0,1.0,0.0
1670,75.0,16.0,30.0,0.0,0.0
1671,51.0,50.0,60.0,1.0,0.0
1672,39.0,48.0,60.0,1.0,0.0
1673,75.0,2.0,150.0,0.0,0.0
1674,51.0,46.0,60.0,1.0,0.0
1675,44.0,46.0,60.0,1.0,0.0
1676,71.0,2.0,60.0,0.0,0.0
1677,51.0,48.0,60.0,1.0,0.0
1678,68.0,32.0,150.0,0.0,0.0
1679,47.0,48.0,60.0,1.0,0.0
1680,51.0,48.0,60.0,1.0,0.0
1681,44.0,16.0,60.0,1.0,0.0
1682,51.0,48.0,60.0,1.0,0.0
1683,39.0,48.0,60.0,1.0,0.0
1684,51.0,48.0,60.0,1.0,0.0
1685,44.0,46.0,60.0,1.0,0.0
1686,83.0,2.0,90.0,0.0,0.0
1687,51.0,48.0,60.0,1.0,0.0
1688,82.0,2.0,90.0,0.0,0.0
1689,47.0,46.0,60.0,1.0,0.0
1690,51.0,48.0,60.0,1.0,0.0
1691,80.0,50.0,90.0,0.0,0.0
1692,44.0,46.0,60.0,1.0,0.0
1693,51.0,0.0,60.0,1.0,0.0
1694,39.0,48.0,60.0,1.0,0.0
1695,79.0,2.0,150.0,0.0,0.0
1696,51.0,46.0,60.0,1.0,0.0
1697,43.0,46.0,60.0,1.0,0.0
1698,80.0,2.0,60.0,0.0,0.0
1699,51.0,48.0,60.0,1.0,0.0
1700,82.0,32.0,150.0,0.0,0.0
1701,46.0,48.0,60.0,1.0,0.0
1702,51.0,48.0,60.0,1.0,0.0
1703,43.0,16.0,60.0,1.0,0.0
1704,51.0,48.0,60.0,1.0,0.0
1705,39.0,48.0,60.0,1.0,0.0
1706,51.0,48.0,60.0,1.0,0.0
1707,75.0,0.0,60.0,0.0,0.0
1708,74.0,0.0,60.0,0.0,0.0
1709,43.0,48.0,60.0,1.0,0.0
1710,75.0,48.0,60.0,0.0,0.0
1711,51.0,0.0,60.0,1.0,0.0
1712,46.0,48.0,60.0,1.0,0.0
1713,76.0,0.0,60.0,0.0,0.0
1714,51.0,0.0,60.0,1.0,0.0
1715,75.0,48.0,60.0,0.0,0.0
1716,43.0,0.0,60.0,1.0,0.0
1717,73.0,46.0,60.0,0.0,0.0
1718,51.0,2.0,60.0,1.0,0.0
1719,70.0,48.0,60.0,0.0,0.0
1720,71.0,48.0,60.0,0.0,0.0
1721,39.0,0.0,60.0,1.0,0.0
1722,51.0,48.0,60.0,1.0,0.0
1723,73.0,0.0,60.0,0.0,0.0
1724,44.0,0.0,60.0,1.0,0.0
1725,74.0,48.0,60.0,0.0,0.0
1726,51.0,0.0,60.0,1.0,0.0
1727,75.0,48.0,60.0,0.0,0.0
1728,47.0,48.0,60.0,1.0,0.0
1729,68.0,0.0,60.0,0.0,0.0
1730,51.0,48.0,60.0,1.0,0.0
1731,44.0,48.0,60.0,1.0,0.0
1732,51.0,48.0,60.0,1.0,0.0
1733,39.0,48.0,60.0,1.0,0.0
1734,51.0,48.0,60.0,1.0,0.0
1735,44.0,48.0,60.0,1.0,0.0
1736,71.0,0.0,60.0,0.0,0.0
1737,51.0,48.0,60.0,1.0,0.0
1738,70.0,0.0,60.0,0.0,0.0
1739,73.0,48.0,60.0,0.0,0.0
1740,47.0,0.0,60.0,1.0,0.0
1741,71.0,0.0,60.0,0.0,0.0
1742,51.0,48.0,60.0,1.0,0.0
1743,70.0,0.0,60.0,0.0,0.0
1744,44.0,46.0,60.0,1.0,0.0
1745,68.0,48.0,60.0,0.0,0.0
1746,51.0,2.0,60.0,1.0,0.0
1747,39.0,48.0,60.0,1.0,0.0
1748,67.0,0.0,150.0,0.0,0.0
1749,51.0,48.0,60.0,1.0,0.0
1750,46.0,48.0,60.0,1.0,0.0
1751,68.0,48.0,60.0,0.0,0.0
1752,51.0,0.0,60.0,1.0,0.0
1753,39.0,48.0,60.0,1.0,0.0
1754,70.0,0.0,60.0,0.0,0.0
1755,51.0,48.0,60.0,1.0,0.0
1756,43.0,48.0,60.0,1.0,0.0
1757,51.0,48.0,60.0,1.0,0.0
1758,39.0,48.0,60.0,1.0,0.0
1759,51.0,48.0,60.0,1.0,0.0
1760,59.0,0.0,60.0,0.0,0.0
1761,44.0,48.0,60.0,1.0,0.0
1762,58.0,0.0,60.0,0.0,0.0
1763,51.0,48.0,60.0,1.0,0.0
1764,39.0,48.0,60.0,1.0,0.0
1765,61.0,0.0,60.0,0.0,0.0
1766,51.0,0.0,60.0,1.0,0.0
1767,59.0,48.0,60.0,0.0,0.0
1768,47.0,0.0,60.0,1.0,0.0
1769,58.0,46.0,60.0,0.0,0.0
1770,51.0,0.0,60.0,1.0,0.0
1771,56.0,64.0,60.0,0.0,0.0
1772,39.0,30.0,150.0,1.0,0.0
1773,50.0,32.0,30.0,1.0,0.0
1774,51.0,32.0,30.0,1.0,0.0
1775,52.0,32.0,30.0,1.0,0.0
1776,53.0,2.0,30.0,1.0,0.0
1777,54.0,32.0,30.0,1.0,0.0
1778,54.0,32.0,30.0,1.0,0.0
1779,56.0,32.0,30.0,1.0,0.0
1780,57.0,32.0,30.0,1.0,0.0
1781,58.0,32.0,30.0,0.0,0.0
1782,59.0,32.0,30.0,0.0,0.0
1783,60.0,32.0,30.0,0.0,0.0
1784,61.0,32.0,30.0,0.0,0.0
1785,62.0,32.0,30.0,0.0,0.0
1786,63.0,32.0,30.0,0.0,0.0
1787,64.0,32.0,30.0,0.0,0.0
1788,65.0,32.0,30.0,0.0,0.0
1789,66.0,32.0,30.0,0.0,0.0
1790,67.0,32.0,30.0,0.0,0.0
1791,68.0,32.0,30.0,0.0,0.0
1792,69.0,32.0,30.0,0.0,0.0
1793,70.0,32.0,30.0,0.0,0.0
1794,71.0,32.0,30.0,0.0,0.0
1795,72.0,32.0,30.0,0.0,0.0
1796,73.0,32.0,30.0,0.0,0.0
1797,74.0,32.0,30.0,0.0,0.0
1798,75.0,32.0,30.0,0.0,0.0
1799,76.0,32.0,30.0,0.0,0.0
1800,77.0,32.0,30.0,0.0,0.0
1801,78.0,32.0,30.0,0.0,0.0
1802,79.0,32.0,30.0,0.0,0.0
1803,80.0,32.0,30.0,0.0,0.0
1804,81.0,32.0,30.0,0.0,0.0
1805,82.0,32.0,30.0,0.0,0.0
1806,83.0,32.0,30.0,0.0,0.0
1807,84.0,44.0,30.0,0.0,0.0
1808,86.0,64.0,30.0,0.0,0.0
1809,84.0,64.0,30.0,0.0,0.0
1810,83.0,64.0,30.0,0.0,0.0
1811,82.0,64.0,30.0,0.0,0.0
1812,81.0,64.0,30.0,0.0,0.0
1813,80.0,64.0,30.0,0.0,0.0
1814,79.0,64.0,30.0,0.0,0.0
1815,78.0,64.0,30.0,0.0,0.0
1816,77.0,64.0,30.0,0.0,0.0
1817,76.0,64.0,30.0,0.0,0.0
1818,75.0,64.0,30.0,0.0,0.0
1819,74.0,64.0,30.0,0.0,0.0
1820,73.0,64.0,30.0,0.0,0.0
1821,72.0,64.0,30.0,0.0,0.0
1822,71.0,64.0,30.0,0.0,0.0
1823,70.0,64.0,30.0,0.0,0.0
1824,69.0,64.0,30.0,0.0,0.0
1825,68.0,64.0,30.0,0.0,0.0
1826,67.0,64.0,30.0,0.0,0.0
1827,66.0,64.0,30.0,0.0,0.0
1828,65.0,64.0,30.0,0.0,0.0
1829,63.0,64.0,30.0,0.0,0.0
1830,65.0,64.0,30.0,0.0,0.0
1831,67.0,116.0,30.0,0.0,0.0
1832,59.0,96.0,90.0,1.0,0.0
1833,56.0,0.0,90.0,1.0,0.0
1834,63.0,2.0,90.0,1.0,0.0
1835,56.0,0.0,90.0,1.0,0.0
1836,59.0,66.0,90.0,1.0,0.0
1837,68.0,94.0,15.0,0.0,0.0
1838,63.0,98.0,90.0,1.0,0.0
1839,61.0,0.0,90.0,1.0,0.0
1840,58.0,0.0,90.0,1.0,0.0
1841,68.0,96.0,90.0,0.0,0.0
1842,63.0,0.0,90.0,1.0,0.0
1843,67.0,96.0,90.0,0.0,0.0
1844,65.0,0.0,90.0,0.0,0.0
1845,61.0,96.0,90.0,1.0,0.0
1846,58.0,0.0,90.0,1.0,0.0
1847,67.0,0.0,90.0,0.0,0.0
1848,63.0,96.0,90.0,1.0,0.0
1849,60.0,0.0,90.0,1.0,0.0
1850,56.0,48.0,90.0,1.0,0.0
1851,68.0,0.0,60.0,0.0,0.0
1852,68.0,16.0,60.0,0.0,0.0
1853,63.0,96.0,90.0,1.0,0.0
1854,68.0,32.0,15.0,0.0,0.0
1855,68.0,48.0,150.0,0.0,0.0
1856,56.0,48.0,90.0,1.0,0.0
1857,60.0,0.0,90.0,1.0,0.0
1858,63.0,0.0,90.0,1.0,0.0
1859,72.0,96.0,60.0,0.0,0.0
1860,58.0,0.0,90.0,1.0,0.0
1861,55.0,96.0,90.0,1.0,0.0
1862,75.0,48.0,330.0,0.0,0.0
1863,63.0,96.0,90.0,1.0,0.0
1864,58.0,0.0,90.0,1.0,0.0
1865,55.0,48.0,90.0,1.0,0.0
1866,63.0,96.0,90.0,1.0,0.0
1867,73.0,0.0,90.0,0.0,0.0
1868,56.0,0.0,90.0,1.0,0.0
1869,53.0,96.0,90.0,1.0,0.0
1870,77.0,48.0,180.0,0.0,0.0
1871,61.0,96.0,90.0,1.0,0.0
1872,53.0,0.0,90.0,1.0,0.0
1873,56.0,0.0,90.0,1.0,0.0
1874,63.0,0.0,90.0,1.0,0.0
1875,75.0,48.0,60.0,0.0,0.0
1876,73.0,96.0,60.0,0.0,0.0
1877,56.0,32.0,90.0,1.0,0.0
1878,72.0,0.0,90.0,0.0,0.0
1879,75.0,48.0,180.0,0.0,0.0
1880,60.0,160.0,30.0,1.0,0.0
1881,51.0,0.0,90.0,1.0,0.0
1882,48.0,0.0,90.0,1.0,0.0
1883,56.0,48.0,90.0,1.0,0.0
1884,73.0,48.0,60.0,0.0,0.0
1885,72.0,0.0,60.0,0.0,0.0
1886,70.0,48.0,60.0,0.0,0.0
1887,49.0,0.0,90.0,1.0,0.0
1888,72.0,48.0,60.0,0.0,0.0
1889,73.0,48.0,60.0,0.0,0.0
1890,53.0,0.0,90.0,1.0,0.0
1891,72.0,48.0,60.0,0.0,0.0
1892,75.0,48.0,60.0,0.0,0.0
1893,58.0,0.0,90.0,1.0,0.0
1894,73.0,48.0,60.0,0.0,0.0
1895,61.0,2.0,90.0,1.0,0.0
1896,72.0,46.0,60.0,0.0,0.0
1897,70.0,190.0,60.0,0.0,0.0
1898,68.0,32.0,180.0,0.0,0.0
1899,51.0,64.0,270.0,1.0,0.0
1900,60.0,2.0,90.0,1.0,0.0
1901,67.0,0.0,30.0,0.0,0.0
1902,58.0,32.0,30.0,1.0,0.0
1903,63.0,128.0,30.0,0.0,0.0
1904,60.0,0.0,90.0,1.0,0.0
1905,56.0,32.0,90.0,1.0,0.0
1906,63.0,30.0,60.0,0.0,0.0
1907,68.0,44.0,60.0,0.0,0.0
1908,63.0,44.0,90.0,1.0,0.0
1909,68.0,20.0,30.0,0.0,0.0
1910,56.0,12.0,90.0,1.0,0.0
1911,60.0,0.0,90.0,1.0,0.0
1912,68.0,52.0,30.0,0.0,0.0
1913,68.0,64.0,30.0,0.0,0.0
1914,63.0,66.0,90.0,1.0,0.0
1915,68.0,20.0,30.0,0.0,0.0
1916,68.0,32.0,60.0,0.0,0.0
1917,61.0,0.0,90.0,1.0,0.0
1918,58.0,30.0,90.0,1.0,0.0
1919,67.0,64.0,60.0,0.0,0.0
1920,63.0,42.0,90.0,1.0,0.0
1921,65.0,2.0,60.0,0.0,0.0
1922,63.0,54.0,30.0,0.0,0.0
1923,61.0,0.0,90.0,1.0,0.0
1924,58.0,10.0,90.0,1.0,0.0
1925,65.0,64.0,30.0,0.0,0.0
1926,63.0,80.0,90.0,1.0,0.0
1927,67.0,22.0,30.0,0.0,0.0
1928,60.0,0.0,90.0,1.0,0.0
1929,56.0,32.0,90.0,1.0,0.0
1930,68.0,16.0,30.0,0.0,0.0
1931,63.0,32.0,90.0,1.0,0.0
1932,69.0,48.0,30.0,0.0,0.0
1933,70.0,16.0,30.0,0.0,0.0
1934,71.0,48.0,30.0,0.0,0.0
1935,60.0,0.0,90.0,1.0,0.0
1936,56.0,32.0,90.0,1.0,0.0
1937,72.0,16.0,30.0,0.0,0.0
1938,63.0,68.0,90.0,1.0,0.0
1939,73.0,48.0,30.0,0.0,0.0
1940,74.0,16.0,30.0,0.0,0.0
1941,55.0,0.0,90.0,1.0,0.0
1942,58.0,96.0,90.0,1.0,0.0
1943,77.0,28.0,60.0,0.0,0.0
1944,75.0,32.0,150.0,0.0,0.0
1945,63.0,64.0,90.0,1.0,0.0
1946,55.0,94.0,90.0,1.0,0.0
1947,58.0,0.0,90.0,1.0,0.0
1948,75.0,2.0,90.0,0.0,0.0
1949,63.0,46.0,90.0,1.0,0.0
1950,73.0,2.0,90.0,0.0,0.0
1951,56.0,0.0,90.0,1.0,0.0
1952,53.0,22.0,90.0,1.0,0.0
1953,75.0,24.0,20.0,0.0,0.0
1954,77.0,24.0,20.0,0.0,0.0
1955,75.0,0.0,20.0,0.0,0.0
1956,72.0,24.0,20.0,0.0,0.0
1957,61.0,94.0,90.0,1.0,0.0
1958,73.0,50.0,20.0,0.0,0.0
1959,77.0,2.0,150.0,0.0,0.0
1960,58.0,0.0,90.0,1.0,0.0
1961,55.0,46.0,90.0,1.0,0.0
1962,75.0,48.0,60.0,0.0,0.0
1963,61.0,30.0,90.0,1.0,0.0
1964,73.0,2.0,60.0,0.0,0.0
1965,56.0,30.0,90.0,1.0,0.0
1966,60.0,0.0,90.0,1.0,0.0
1967,72.0,32.0,30.0,0.0,0.0
1968,75.0,32.0,30.0,0.0,0.0
1969,79.0,2.0,30.0,0.0,0.0
1970,80.0,32.0,30.0,0.0,0.0
1971,63.0,0.0,90.0,1.0,0.0
1972,75.0,32.0,30.0,0.0,0.0
1973,72.0,32.0,30.0,0.0,0.0
1974,70.0,32.0,30.0,0.0,0.0
1975,49.0,32.0,90.0,1.0,0.0
1976,73.0,32.0,30.0,0.0,0.0
1977,76.0,0.0,30.0,0.0,0.0
1978,61.0,0.0,90.0,1.0,0.0
1979,77.0,32.0,30.0,0.0,0.0
1980,73.0,32.0,30.0,0.0,0.0
1981,70.0,96.0,30.0,0.0,0.0
1982,51.0,0.0,90.0,1.0,0.0
1983,68.0,48.0,60.0,0.0,0.0
1984,60.0,96.0,90.0,1.0,0.0
1985,68.0,18.0,60.0,0.0,0.0
1986,68.0,30.0,15.0,0.0,0.0
1987,72.0,96.0,90.0,0.0,0.0
1988,51.0,0.0,90.0,1.0,0.0
1989,61.0,0.0,90.0,1.0,0.0
1990,70.0,98.0,90.0,0.0,0.0
1991,68.0,0.0,150.0,0.0,0.0
1992,60.0,64.0,150.0,0.0,0.0
1993,44.0,32.0,90.0,1.0,0.0
1994,51.0,32.0,30.0,1.0,0.0
1995,51.0,96.0,30.0,1.0,0.0
1996,51.0,160.0,30.0,1.0,0.0
1997,56.0,144.0,330.0,1.0,0.0
1998,48.0,32.0,90.0,1.0,0.0
1999,51.0,0.0,30.0,1.0,0.0
2000,63.0,96.0,30.0,0.0,0.0
2001,68.0,96.0,30.0,0.0,0.0
2002,51.0,0.0,30.0,1.0,0.0
2003,72.0,16.0,30.0,0.0,0.0
2004,51.0,0.0,30.0,1.0,0.0
2005,46.0,32.0,90.0,1.0,0.0
2006,55.0,16.0,330.0,1.0,0.0
2007,73.0,48.0,150.0,0.0,0.0
2008,51.0,16.0,30.0,1.0,0.0
2009,70.0,32.0,60.0,0.0,0.0
2010,51.0,96.0,30.0,1.0,0.0
2011,67.0,128.0,150.0,0.0,0.0
2012,51.0,16.0,30.0,1.0,0.0
2013,49.0,32.0,90.0,1.0,0.0
2014,58.0,144.0,330.0,1.0,0.0
2015,63.0,0.0,30.0,0.0,0.0
2016,51.0,96.0,30.0,1.0,0.0
2017,67.0,96.0,30.0,0.0,0.0
2018,51.0,0.0,30.0,1.0,0.0
2019,51.0,16.0,30.0,1.0,0.0
2020,70.0,0.0,30.0,0.0,0.0
2021,48.0,32.0,90.0,1.0,0.0
2022,56.0,16.0,330.0,1.0,0.0
2023,72.0,48.0,150.0,0.0,0.0
2024,51.0,16.0,30.0,1.0,0.0
2025,68.0,32.0,60.0,0.0,0.0
2026,63.0,128.0,150.0,0.0,0.0
2027,51.0,96.0,30.0,1.0,0.0
2028,51.0,16.0,30.0,1.0,0.0
2029,44.0,0.0,330.0,1.0,0.0
2030,48.0,32.0,90.0,1.0,0.0
2031,51.0,16.0,30.0,1.0,0.0
2032,63.0,48.0,60.0,0.0,0.0
2033,65.0,32.0,60.0,0.0,0.0
2034,51.0,16.0,30.0,1.0,0.0
2035,67.0,48.0,60.0,0.0,0.0
2036,68.0,32.0,60.0,0.0,0.0
2037,51.0,16.0,30.0,1.0,0.0
2038,70.0,46.0,60.0,0.0,0.0
2039,72.0,50.0,60.0,0.0,0.0
2040,75.0,46.0,60.0,0.0,0.0
2041,46.0,46.0,330.0,1.0,0.0
2042,49.0,32.0,90.0,1.0,0.0
2043,73.0,2.0,60.0,0.0,0.0
2044,72.0,46.0,60.0,0.0,0.0
2045,51.0,16.0,30.0,1.0,0.0
2046,70.0,34.0,60.0,0.0,0.0
2047,68.0,32.0,90.0,0.0,0.0
2048,51.0,64.0,30.0,1.0,0.0
2049,51.0,16.0,30.0,1.0,0.0
2050,67.0,98.0,90.0,0.0,0.0
2051,43.0,0.0,330.0,1.0,0.0
2052,49.0,32.0,90.0,1.0,0.0
2053,51.0,16.0,30.0,1.0,0.0
2054,75.0,48.0,60.0,0.0,0.0
2055,77.0,32.0,60.0,0.0,0.0
2056,79.0,48.0,60.0,0.0,0.0
2057,51.0,16.0,30.0,1.0,0.0
2058,80.0,32.0,60.0,0.0,0.0
2059,51.0,16.0,30.0,1.0,0.0
2060,82.0,48.0,60.0,0.0,0.0
2061,83.0,48.0,60.0,0.0,0.0
2062,44.0,0.0,150.0,1.0,0.0
2063,48.0,32.0,150.0,1.0,0.0
2064,84.0,48.0,60.0,0.0,0.0
2065,83.0,48.0,60.0,0.0,0.0
2066,85.0,16.0,60.0,0.0,0.0
2067,84.0,48.0,60.0,0.0,0.0
2068,82.0,48.0,60.0,0.0,0.0
2069,80.0,48.0,60.0,0.0,0.0
2070,79.0,48.0,60.0,0.0,0.0
2071,77.0,32.0,60.0,0.0,0.0
2072,75.0,48.0,30.0,0.0,0.0
2073,80.0,48.0,30.0,0.0,0.0
2074,79.0,48.0,30.0,0.0,0.0
2075,77.0,48.0,30.0,0.0,0.0
2076,76.0,48.0,30.0,0.0,0.0
2077,75.0,48.0,30.0,0.0,0.0
2078,74.0,48.0,30.0,0.0,0.0
2079,73.0,48.0,30.0,0.0,0.0
2080,72.0,48.0,30.0,0.0,0.0
2081,77.0,48.0,30.0,0.0,0.0
2082,75.0,48.0,30.0,0.0,0.0
2083,74.0,48.0,30.0,0.0,0.0
2084,73.0,48.0,30.0,0.0,0.0
2085,72.0,48.0,30.0,0.0,0.0
2086,71.0,48.0,30.0,0.0,0.0
2087,70.0,64.0,30.0,0.0,0.0
2088,68.0,46.0,60.0,0.0,0.0
2089,60.0,0.0,90.0,1.0,0.0
2090,56.0,96.0,90.0,1.0,0.0
2091,63.0,50.0,90.0,1.0,0.0
2092,68.0,46.0,60.0,0.0,0.0
2093,56.0,0.0,90.0,1.0,0.0
2094,60.0,96.0,90.0,1.0,0.0
2095,63.0,96.0,90.0,1.0,0.0
2096,61.0,0.0,330.0,1.0,0.0
2097,63.0,142.0,330.0,1.0,0.0
2098,58.0,0.0,330.0,1.0,0.0
2099,68.0,96.0,90.0,0.0,0.0
2100,67.0,96.0,90.0,0.0,0.0
2101,66.0,34.0,90.0,0.0,0.0
2102,67.0,16.0,30.0,0.0,0.0
2103,58.0,26.0,90.0,1.0,0.0
2104,61.0,0.0,90.0,1.0,0.0
2105,67.0,70.0,120.0,0.0,0.0
2106,64.0,50.0,90.0,1.0,0.0
2107,67.0,46.0,60.0,0.0,0.0
2108,58.0,96.0,90.0,1.0,0.0
2109,61.0,0.0,90.0,1.0,0.0
2110,64.0,26.0,90.0,1.0,0.0
2111,67.0,70.0,20.0,0.0,0.0
2112,63.0,0.0,330.0,1.0,0.0
2113,59.0,46.0,330.0,1.0,0.0
2114,70.0,96.0,60.0,0.0,0.0
2115,68.0,96.0,90.0,0.0,0.0
2116,67.0,50.0,90.0,0.0,0.0
2117,68.0,96.0,90.0,0.0,0.0
2118,62.0,26.0,90.0,1.0,0.0
2119,68.0,70.0,120.0,0.0,0.0
2120,64.0,50.0,90.0,1.0,0.0
2121,68.0,46.0,60.0,0.0,0.0
2122,62.0,96.0,90.0,1.0,0.0
2123,64.0,96.0,90.0,1.0,0.0
2124,61.0,96.0,90.0,1.0,0.0
2125,71.0,0.0,90.0,0.0,0.0
2126,69.0,96.0,90.0,0.0,0.0
2127,64.0,0.0,90.0,1.0,0.0
2128,61.0,0.0,90.0,1.0,0.0
2129,68.0,96.0,90.0,0.0,0.0
2130,64.0,96.0,90.0,1.0,0.0
2131,69.0,0.0,90.0,0.0,0.0
2132,56.0,26.0,90.0,1.0,0.0
2133,74.0,70.0,120.0,0.0,0.0
2134,64.0,50.0,90.0,1.0,0.0
2135,74.0,46.0,60.0,0.0,0.0
2136,56.0,96.0,90.0,1.0,0.0
2137,64.0,96.0,90.0,1.0,0.0
2138,74.0,0.0,90.0,0.0,0.0
2139,57.0,96.0,90.0,1.0,0.0
2140,73.0,96.0,90.0,0.0,0.0
2141,64.0,0.0,90.0,1.0,0.0
2142,71.0,96.0,90.0,0.0,0.0
2143,57.0,0.0,90.0,1.0,0.0
2144,69.0,0.0,90.0,0.0,0.0
2145,64.0,96.0,90.0,1.0,0.0
2146,59.0,30.0,150.0,1.0,0.0
2147,50.0,26.0,90.0,1.0,0.0
2148,68.0,0.0,120.0,0.0,0.0
2149,64.0,40.0,120.0,0.0,0.0
2150,52.0,50.0,90.0,1.0,0.0
2151,59.0,30.0,150.0,1.0,0.0
2152,68.0,0.0,60.0,0.0,0.0
2153,64.0,46.0,60.0,0.0,0.0
2154,50.0,66.0,90.0,1.0,0.0
2155,52.0,96.0,90.0,1.0,0.0
2156,71.0,0.0,90.0,0.0,0.0
2157,64.0,0.0,330.0,0.0,0.0
2158,49.0,96.0,90.0,1.0,0.0
2159,57.0,46.0,330.0,1.0,0.0
2160,52.0,96.0,90.0,1.0,0.0
2161,69.0,0.0,90.0,0.0,0.0
2162,68.0,50.0,90.0,0.0,0.0
2163,49.0,0.0,90.0,1.0,0.0
2164,52.0,0.0,90.0,1.0,0.0
2165,69.0,96.0,90.0,0.0,0.0
2166,71.0,0.0,120.0,0.0,0.0
2167,56.0,30.0,150.0,1.0,0.0
2168,44.0,26.0,90.0,1.0,0.0
2169,62.0,40.0,120.0,0.0,0.0
2170,64.0,0.0,120.0,0.0,0.0
2171,74.0,0.0,120.0,0.0,0.0
2172,52.0,96.0,90.0,1.0,0.0
2173,56.0,0.0,150.0,1.0,0.0
2174,62.0,0.0,150.0,0.0,0.0
2175,64.0,30.0,150.0,0.0,0.0
2176,71.0,0.0,150.0,0.0,0.0
2177,74.0,0.0,150.0,0.0,0.0
2178,44.0,66.0,90.0,1.0,0.0
2179,52.0,50.0,90.0,1.0,0.0
2180,45.0,48.0,60.0,1.0,0.0
2181,49.0,48.0,60.0,1.0,0.0
2182,52.0,48.0,60.0,1.0,0.0
2183,55.0,48.0,60.0,1.0,0.0
2184,61.0,48.0,60.0,0.0,0.0
2185,64.0,48.0,60.0,0.0,0.0
2186,69.0,48.0,60.0,0.0,0.0
2187,73.0,48.0,60.0,0.0,0.0
2188,50.0,48.0,60.0,1.0,0.0
2189,52.0,48.0,60.0,1.0,0.0
2190,55.0,48.0,60.0,1.0,0.0
2191,59.0,48.0,60.0,1.0,0.0
2192,59.0,48.0,60.0,0.0,0.0
2193,64.0,48.0,60.0,0.0,0.0
2194,68.0,48.0,60.0,0.0,0.0
2195,71.0,48.0,60.0,0.0,0.0
2196,49.0,48.0,60.0,1.0,0.0
2197,52.0,48.0,60.0,1.0,0.0
2198,57.0,48.0,60.0,1.0,0.0
2199,61.0,48.0,60.0,1.0,0.0
2200,64.0,48.0,60.0,0.0,0.0
2201,69.0,48.0,60.0,0.0,0.0
2202,73.0,48.0,60.0,0.0,0.0
2203,76.0,48.0,60.0,0.0,0.0
2204,47.0,48.0,60.0,1.0,0.0
2205,52.0,48.0,60.0,1.0,0.0
2206,56.0,48.0,60.0,1.0,0.0
2207,59.0,48.0,60.0,1.0,0.0
2208,62.0,48.0,60.0,0.0,0.0
2209,64.0,48.0,60.0,0.0,0.0
2210,68.0,48.0,60.0,0.0,0.0
2211,74.0,48.0,60.0,0.0,0.0
2212,45.0,48.0,60.0,1.0,0.0
2213,49.0,48.0,60.0,1.0,0.0
2214,52.0,48.0,60.0,1.0,0.0
2215,57.0,48.0,60.0,1.0,0.0
2216,61.0,48.0,60.0,0.0,0.0
2217,64.0,48.0,60.0,0.0,0.0
2218,69.0,48.0,60.0,0.0,0.0
2219,73.0,48.0,60.0,0.0,0.0
2220,44.0,48.0,60.0,1.0,0.0
2221,49.0,48.0,60.0,1.0,0.0
2222,52.0,48.0,60.0,1.0,0.0
2223,56.0,48.0,60.0,1.0,0.0
2224,61.0,48.0,60.0,0.0,0.0
2225,64.0,48.0,60.0,0.0,0.0
2226,68.0,48.0,60.0,0.0,0.0
2227,73.0,48.0,60.0,0.0,0.0
2228,43.0,48.0,60.0,1.0,0.0
2229,49.0,48.0,60.0,1.0,0.0
2230,52.0,48.0,60.0,1.0,0.0
2231,55.0,48.0,60.0,1.0,0.0
2232,61.0,48.0,60.0,0.0,0.0
2233,64.0,48.0,60.0,0.0,0.0
2234,70.0,48.0,60.0,0.0,0.0
2235,73.0,48.0,60.0,0.0,0.0
2236,44.0,48.0,60.0,1.0,0.0
2237,47.0,48.0,60.0,1.0,0.0
2238,51.0,48.0,60.0,1.0,0.0
2239,56.0,48.0,60.0,1.0,0.0
2240,59.0,48.0,60.0,0.0,0.0
2241,63.0,48.0,60.0,0.0,0.0
2242,68.0,48.0,60.0,0.0,0.0
2243,71.0,48.0,60.0,0.0,0.0
2244,37.0,48.0,60.0,1.0,0.0
2245,40.0,48.0,60.0,1.0,0.0
2246,44.0,48.0,60.0,1.0,0.0
2247,49.0,48.0,60.0,1.0,0.0
2248,58.0,48.0,60.0,0.0,0.0
2249,64.0,48.0,60.0,0.0,0.0
2250,68.0,48.0,60.0,0.0,0.0
2251,70.0,48.0,60.0,0.0,0.0
2252,39.0,48.0,60.0,1.0,0.0
2253,42.0,48.0,60.0,1.0,0.0
2254,44.0,48.0,60.0,1.0,0.0
2255,51.0,48.0,60.0,1.0,0.0
2256,60.0,48.0,60.0,0.0,0.0
2257,66.0,48.0,60.0,0.0,0.0
2258,68.0,48.0,60.0,0.0,0.0
2259,72.0,48.0,60.0,0.0,0.0
2260,40.0,48.0,60.0,1.0,0.0
2261,44.0,48.0,60.0,1.0,0.0
2262,49.0,48.0,60.0,1.0,0.0
2263,52.0,48.0,60.0,1.0,0.0
2264,61.0,48.0,60.0,0.0,0.0
2265,64.0,48.0,60.0,0.0,0.0
2266,68.0,48.0,60.0,0.0,0.0
2267,73.0,48.0,60.0,0.0,0.0
2268,41.0,48.0,60.0,1.0,0.0
2269,44.0,48.0,60.0,1.0,0.0
2270,47.0,48.0,60.0,1.0,0.0
2271,53.0,48.0,60.0,1.0,0.0
2272,62.0,48.0,60.0,0.0,0.0
2273,68.0,48.0,60.0,0.0,0.0
2274,71.0,48.0,60.0,0.0,0.0
2275,74.0,96.0,60.0,0.0,0.0
2276,75.0,0.0,300.0,0.0,0.0
2277,63.0,0.0,300.0,0.0,0.0
2278,68.0,0.0,300.0,0.0,0.0
2279,72.0,32.0,300.0,0.0,0.0
2280,39.0,32.0,90.0,1.0,0.0
2281,51.0,96.0,30.0,1.0,0.0
2282,51.0,64.0,30.0,1.0,0.0
2283,70.0,32.0,90.0,0.0,0.0
2284,51.0,64.0,30.0,1.0,0.0
2285,73.0,0.0,90.0,0.0,0.0
2286,72.0,0.0,30.0,0.0,0.0
2287,68.0,0.0,30.0,0.0,0.0
2288,51.0,96.0,30.0,1.0,0.0
2289,72.0,0.0,30.0,0.0,0.0
2290,63.0,96.0,30.0,0.0,0.0
2291,51.0,0.0,30.0,1.0,0.0
2292,61.0,96.0,30.0,0.0,0.0
2293,65.0,0.0,30.0,0.0,0.0
2294,51.0,0.0,30.0,1.0,0.0
2295,70.0,0.0,30.0,0.0,0.0
2296,51.0,0.0,30.0,1.0,0.0
2297,68.0,0.0,30.0,0.0,0.0
2298,65.0,0.0,30.0,0.0,0.0
2299,62.0,0.0,30.0,0.0,0.0
2300,59.0,160.0,30.0,0.0,0.0
2301,39.0,96.0,90.0,1.0,0.0
2302,51.0,96.0,90.0,1.0,0.0
2303,39.0,96.0,90.0,1.0,0.0
2304,68.0,0.0,15.0,0.0,0.0
2305,63.0,0.0,15.0,0.0,0.0
2306,60.0,0.0,15.0,0.0,0.0
2307,51.0,0.0,90.0,1.0,0.0
2308,39.0,96.0,90.0,1.0,0.0
2309,58.0,0.0,180.0,0.0,0.0
2310,68.0,0.0,90.0,0.0,0.0
2311,67.0,0.0,90.0,0.0,0.0
2312,51.0,96.0,90.0,1.0,0.0
2313,58.0,0.0,180.0,0.0,0.0
2314,61.0,0.0,15.0,0.0,0.0
2315,65.0,96.0,90.0,0.0,0.0
2316,39.0,0.0,90.0,1.0,0.0
2317,51.0,0.0,90.0,1.0,0.0
2318,63.0,0.0,90.0,0.0,0.0
2319,72.0,0.0,300.0,0.0,0.0
2320,75.0,32.0,300.0,0.0,0.0
2321,39.0,64.0,60.0,1.0,0.0
2322,43.0,64.0,60.0,1.0,0.0
2323,48.0,64.0,60.0,1.0,0.0
2324,51.0,32.0,60.0,1.0,0.0
2325,56.0,64.0,60.0,1.0,0.0
2326,73.0,0.0,90.0,0.0,0.0
2327,70.0,0.0,90.0,0.0,0.0
2328,60.0,32.0,60.0,1.0,0.0
2329,72.0,0.0,30.0,0.0,0.0
2330,68.0,96.0,30.0,0.0,0.0
2331,63.0,0.0,30.0,1.0,0.0
2332,51.0,0.0,30.0,1.0,0.0
2333,72.0,96.0,30.0,0.0,0.0
2334,63.0,0.0,30.0,0.0,0.0
2335,61.0,0.0,30.0,0.0,0.0
2336,65.0,96.0,30.0,0.0,0.0
2337,70.0,0.0,30.0,0.0,0.0
2338,51.0,0.0,30.0,1.0,0.0
2339,59.0,0.0,30.0,0.0,0.0
2340,62.0,0.0,30.0,0.0,0.0
2341,65.0,0.0,30.0,0.0,0.0
2342,68.0,64.0,30.0,0.0,0.0
2343,51.0,96.0,90.0,1.0,0.0
2344,39.0,96.0,90.0,1.0,0.0
2345,63.0,0.0,300.0,0.0,0.0
2346,60.0,0.0,300.0,0.0,0.0
2347,51.0,96.0,90.0,1.0,0.0
2348,39.0,0.0,90.0,1.0,0.0
2349,63.0,0.0,90.0,0.0,0.0
2350,68.0,96.0,15.0,0.0,0.0
2351,51.0,0.0,90.0,1.0,0.0
2352,60.0,0.0,90.0,0.0,0.0
2353,39.0,0.0,90.0,1.0,0.0
2354,68.0,96.0,15.0,0.0,0.0
2355,58.0,0.0,180.0,0.0,0.0
2356,61.0,0.0,180.0,0.0,0.0
2357,51.0,96.0,90.0,1.0,0.0
2358,67.0,0.0,90.0,0.0,0.0
2359,65.0,96.0,90.0,0.0,0.0
2360,39.0,0.0,90.0,1.0,0.0
2361,58.0,48.0,180.0,0.0,0.0
2362,61.0,0.0,180.0,0.0,0.0
2363,51.0,0.0,90.0,1.0,0.0
2364,63.0,0.0,90.0,0.0,0.0
2365,44.0,48.0,60.0,1.0,0.0
2366,60.0,0.0,180.0,0.0,0.0
2367,68.0,48.0,180.0,0.0,0.0
2368,56.0,48.0,60.0,1.0,0.0
2369,51.0,48.0,60.0,1.0,0.0
2370,56.0,0.0,60.0,1.0,0.0
2371,48.0,48.0,60.0,1.0,0.0
2372,56.0,48.0,60.0,1.0,0.0
2373,44.0,28.0,60.0,0.0,0.0
2374,51.0,20.0,60.0,1.0,0.0
2375,56.0,48.0,60.0,1.0,0.0
2376,49.0,48.0,60.0,1.0,0.0
2377,44.0,48.0,90.0,0.0,0.0
2378,58.0,0.0,60.0,1.0,0.0
2379,43.0,0.0,90.0,0.0,0.0
2380,51.0,48.0,60.0,1.0,0.0
2381,58.0,48.0,60.0,1.0,0.0
2382,41.0,48.0,90.0,0.0,0.0
2383,49.0,48.0,60.0,1.0,0.0
2384,58.0,0.0,60.0,1.0,0.0
2385,51.0,48.0,60.0,1.0,0.0
2386,43.0,0.0,90.0,0.0,0.0
2387,58.0,48.0,60.0,1.0,0.0
2388,48.0,48.0,60.0,1.0,0.0
2389,44.0,48.0,180.0,0.0,0.0
2390,56.0,48.0,60.0,1.0,0.0
2391,51.0,48.0,60.0,1.0,0.0
2392,56.0,0.0,60.0,1.0,0.0
2393,48.0,48.0,60.0,1.0,0.0
2394,39.0,0.0,90.0,0.0,0.0
2395,56.0,48.0,60.0,1.0,0.0
2396,51.0,48.0,60.0,1.0,0.0
2397,56.0,0.0,60.0,1.0,0.0
2398,49.0,48.0,60.0,1.0,0.0
2399,68.0,48.0,15.0,0.0,0.0
2400,58.0,48.0,60.0,1.0,0.0
2401,67.0,48.0,90.0,0.0,0.0
2402,51.0,48.0,60.0,1.0,0.0
2403,58.0,0.0,60.0,1.0,0.0
2404,49.0,48.0,60.0,1.0,0.0
2405,65.0,0.0,90.0,0.0,0.0
2406,58.0,48.0,60.0,1.0,0.0
2407,67.0,0.0,90.0,0.0,0.0
2408,51.0,48.0,60.0,1.0,0.0
2409,58.0,48.0,60.0,1.0,0.0
2410,68.0,48.0,180.0,0.0,0.0
2411,48.0,48.0,60.0,1.0,0.0
2412,56.0,48.0,60.0,1.0,0.0
2413,51.0,48.0,60.0,1.0,0.0
2414,56.0,0.0,60.0,1.0,0.0
2415,63.0,48.0,90.0,0.0,0.0
2416,48.0,48.0,60.0,1.0,0.0
2417,56.0,0.0,60.0,1.0,0.0
2418,51.0,34.0,60.0,1.0,0.0
2419,56.0,48.0,60.0,1.0,0.0
2420,44.0,14.0,30.0,0.0,0.0
2421,44.0,0.0,60.0,0.0,0.0
2422,49.0,48.0,60.0,1.0,0.0
2423,58.0,0.0,60.0,1.0,0.0
2424,43.0,48.0,60.0,0.0,0.0
2425,51.0,48.0,60.0,1.0,0.0
2426,48.0,0.0,60.0,0.0,0.0
2427,46.0,48.0,60.0,0.0,0.0
2428,58.0,0.0,60.0,1.0,0.0
2429,49.0,0.0,60.0,1.0,0.0
2430,44.0,48.0,60.0,0.0,0.0
2431,58.0,48.0,60.0,1.0,0.0
2432,43.0,0.0,60.0,0.0,0.0
2433,41.0,0.0,60.0,0.0,0.0
2434,51.0,48.0,60.0,1.0,0.0
2435,58.0,0.0,60.0,1.0,0.0
2436,48.0,48.0,60.0,1.0,0.0
2437,39.0,24.0,15.0,0.0,0.0
2438,44.0,48.0,180.0,0.0,0.0
2439,56.0,48.0,60.0,1.0,0.0
2440,51.0,48.0,60.0,1.0,0.0
2441,56.0,0.0,60.0,1.0,0.0
2442,39.0,0.0,90.0,0.0,0.0
2443,48.0,48.0,60.0,1.0,0.0
2444,56.0,48.0,60.0,1.0,0.0
2445,51.0,32.0,60.0,1.0,0.0
2446,68.0,16.0,30.0,0.0,0.0
2447,56.0,48.0,60.0,1.0,0.0
2448,68.0,0.0,60.0,0.0,0.0
2449,49.0,48.0,60.0,1.0,0.0
2450,67.0,0.0,60.0,0.0,0.0
2451,58.0,48.0,60.0,1.0,0.0
2452,72.0,48.0,60.0,0.0,0.0
2453,51.0,0.0,60.0,1.0,0.0
2454,58.0,0.0,60.0,1.0,0.0
2455,70.0,48.0,60.0,0.0,0.0
2456,68.0,48.0,60.0,0.0,0.0
2457,49.0,0.0,60.0,1.0,0.0
2458,67.0,0.0,60.0,0.0,0.0
2459,58.0,48.0,60.0,1.0,0.0
2460,51.0,48.0,60.0,1.0,0.0
2461,65.0,0.0,60.0,0.0,0.0
2462,63.0,0.0,60.0,0.0,0.0
2463,58.0,24.0,60.0,1.0,0.0
2464,63.0,24.0,20.0,0.0,0.0
2465,48.0,48.0,60.0,1.0,0.0
2466,68.0,0.0,180.0,0.0,0.0
2467,56.0,48.0,60.0,1.0,0.0
2468,51.0,48.0,60.0,1.0,0.0
2469,56.0,48.0,60.0,1.0,0.0
2470,48.0,48.0,60.0,1.0,0.0
2471,63.0,48.0,90.0,0.0,0.0
2472,56.0,0.0,60.0,1.0,0.0
2473,51.0,34.0,60.0,1.0,0.0
2474,44.0,14.0,30.0,0.0,0.0
2475,56.0,48.0,60.0,1.0,0.0
2476,49.0,48.0,60.0,1.0,0.0
2477,44.0,0.0,60.0,0.0,0.0
2478,43.0,0.0,60.0,0.0,0.0
2479,58.0,48.0,60.0,1.0,0.0
2480,48.0,48.0,60.0,0.0,0.0
2481,51.0,0.0,60.0,1.0,0.0
2482,58.0,0.0,60.0,1.0,0.0
2483,46.0,48.0,60.0,0.0,0.0
2484,49.0,0.0,60.0,1.0,0.0
2485,44.0,48.0,60.0,0.0,0.0
2486,58.0,48.0,60.0,1.0,0.0
2487,43.0,0.0,60.0,0.0,0.0
2488,51.0,48.0,60.0,1.0,0.0
2489,41.0,0.0,60.0,0.0,0.0
2490,39.0,0.0,60.0,0.0,0.0
2491,58.0,48.0,60.0,1.0,0.0
2492,44.0,48.0,180.0,0.0,0.0
2493,48.0,48.0,60.0,1.0,0.0
2494,56.0,48.0,60.0,1.0,0.0
2495,51.0,48.0,60.0,1.0,0.0
2496,56.0,0.0,60.0,1.0,0.0
2497,48.0,48.0,60.0,1.0,0.0
2498,45.0,48.0,180.0,0.0,0.0
2499,54.0,48.0,60.0,1.0,0.0
2500,51.0,48.0,60.0,1.0,0.0
2501,54.0,0.0,60.0,1.0,0.0
2502,49.0,48.0,60.0,1.0,0.0
2503,46.0,0.0,180.0,0.0,0.0
2504,53.0,48.0,60.0,1.0,0.0
2505,52.0,48.0,60.0,1.0,0.0
2506,53.0,48.0,60.0,1.0,0.0
2507,47.0,0.0,180.0,0.0,0.0
2508,50.0,48.0,60.0,1.0,0.0
2509,53.0,48.0,60.0,1.0,0.0
2510,55.0,48.0,60.0,1.0,0.0
2511,53.0,48.0,60.0,1.0,0.0
2512,48.0,0.0,180.0,0.0,0.0
2513,51.0,48.0,60.0,1.0,0.0
2514,55.0,48.0,60.0,1.0,0.0
2515,53.0,48.0,60.0,1.0,0.0
2516,55.0,48.0,60.0,1.0,0.0
2517,51.0,48.0,60.0,1.0,0.0
2518,48.0,48.0,180.0,0.0,0.0
2519,54.0,48.0,60.0,1.0,0.0
2520,56.0,48.0,60.0,1.0,0.0
2521,54.0,0.0,60.0,1.0,0.0
2522,53.0,48.0,60.0,1.0,0.0
2523,49.0,48.0,180.0,0.0,0.0
2524,56.0,48.0,60.0,1.0,0.0
2525,55.0,48.0,60.0,1.0,0.0
2526,56.0,0.0,60.0,1.0,0.0
2527,53.0,48.0,60.0,1.0,0.0
2528,50.0,32.0,180.0,0.0,0.0
2529,56.0,48.0,60.0,1.0,0.0
2530,58.0,48.0,60.0,1.0,0.0
2531,56.0,0.0,15.0,1.0,0.0
2532,51.0,32.0,30.0,0.0,0.0
2533,60.0,0.0,180.0,1.0,0.0
2534,52.0,32.0,30.0,0.0,0.0
2535,53.0,32.0,30.0,0.0,0.0
2536,54.0,32.0,30.0,0.0,0.0
2537,55.0,32.0,30.0,0.0,0.0
2538,56.0,32.0,30.0,0.0,0.0
2539,57.0,32.0,30.0,0.0,0.0
2540,58.0,32.0,30.0,0.0,0.0
2541,59.0,32.0,30.0,0.0,0.0
2542,60.0,32.0,30.0,0.0,0.0
2543,61.0,32.0,30.0,0.0,0.0
2544,62.0,32.0,30.0,0.0,0.0
2545,63.0,32.0,30.0,0.0,0.0
2546,64.0,32.0,30.0,0.0,0.0
2547,65.0,32.0,30.0,0.0,0.0
2548,66.0,32.0,30.0,0.0,0.0
2549,67.0,32.0,30.0,0.0,0.0
2550,68.0,32.0,30.0,0.0,0.0
2551,69.0,32.0,30.0,0.0,0.0
2552,70.0,32.0,30.0,0.0,0.0
2553,71.0,32.0,30.0,0.0,0.0
2554,72.0,32.0,30.0,0.0,0.0
2555,73.0,32.0,30.0,0.0,0.0
2556,74.0,16.0,30.0,0.0,0.0
2557,75.0,16.0,15.0,0.0,0.0
2558,76.0,16.0,15.0,0.0,0.0
2559,77.0,16.0,15.0,0.0,0.0
2560,78.0,16.0,15.0,0.0,0.0
2561,79.0,16.0,15.0,0.0,0.0
2562,80.0,16.0,15.0,0.0,0.0
2563,81.0,16.0,15.0,0.0,0.0
2564,82.0,16.0,15.0,0.0,0.0
2565,83.0,32.0,15.0,0.0,0.0
2566,84.0,96.0,30.0,0.0,0.0
2567,82.0,96.0,30.0,0.0,0.0
2568,80.0,96.0,30.0,0.0,0.0
2569,79.0,96.0,30.0,0.0,0.0
2570,77.0,96.0,30.0,0.0,0.0
2571,75.0,132.0,30.0,0.0,0.0
2572,73.0,96.0,60.0,0.0,0.0
2573,72.0,96.0,60.0,0.0,0.0
2574,70.0,96.0,60.0,0.0,0.0
2575,68.0,96.0,60.0,0.0,0.0
2576,67.0,96.0,60.0,0.0,0.0
2577,65.0,96.0,60.0,0.0,0.0
2578,63.0,60.0,60.0,0.0,0.0
2579,62.0,160.0,30.0,0.0,0.0
2580,39.0,0.0,390.0,1.0,0.0
2581,63.0,96.0,90.0,0.0,0.0
2582,48.0,0.0,390.0,1.0,0.0
2583,44.0,0.0,390.0,1.0,0.0
2584,68.0,96.0,90.0,0.0,0.0
2585,72.0,96.0,90.0,0.0,0.0
2586,75.0,96.0,15.0,0.0,0.0
2587,46.0,0.0,390.0,1.0,0.0
2588,39.0,0.0,390.0,1.0,0.0
2589,49.0,0.0,390.0,1.0,0.0
2590,73.0,96.0,90.0,0.0,0.0
2591,70.0,96.0,90.0,0.0,0.0
2592,67.0,192.0,90.0,0.0,0.0
2593,44.0,0.0,180.0,1.0,0.0
2594,48.0,0.0,180.0,1.0,0.0
2595,68.0,192.0,180.0,0.0,0.0
2596,51.0,48.0,60.0,1.0,0.0
2597,60.0,0.0,60.0,1.0,0.0
2598,56.0,192.0,60.0,1.0,0.0
2599,60.0,0.0,60.0,1.0,0.0
2600,56.0,144.0,60.0,1.0,0.0
2601,63.0,96.0,60.0,0.0,0.0
2602,60.0,0.0,90.0,1.0,0.0
2603,56.0,96.0,90.0,1.0,0.0
2604,75.0,0.0,390.0,0.0,0.0
2605,55.0,96.0,90.0,1.0,0.0
2606,58.0,0.0,90.0,1.0,0.0
2607,57.0,0.0,90.0,1.0,0.0
2608,54.0,96.0,90.0,1.0,0.0
2609,58.0,0.0,90.0,1.0,0.0
2610,55.0,24.0,90.0,1.0,0.0
2611,51.0,56.0,20.0,1.0,0.0
2612,58.0,160.0,60.0,1.0,0.0
2613,61.0,0.0,60.0,1.0,0.0
2614,58.0,0.0,60.0,1.0,0.0
2615,61.0,144.0,60.0,1.0,0.0
2616,63.0,96.0,60.0,0.0,0.0
2617,61.0,96.0,90.0,1.0,0.0
2618,58.0,0.0,90.0,1.0,0.0
2619,60.0,0.0,90.0,1.0,0.0
2620,56.0,96.0,90.0,1.0,0.0
2621,59.0,96.0,90.0,1.0,0.0
2622,55.0,0.0,90.0,1.0,0.0
2623,60.0,0.0,90.0,1.0,0.0
2624,56.0,0.0,90.0,1.0,0.0
2625,57.0,0.0,120.0,1.0,0.0
2626,48.0,120.0,120.0,1.0,0.0
2627,75.0,48.0,15.0,0.0,0.0
2628,66.0,72.0,60.0,0.0,0.0
2629,48.0,0.0,60.0,1.0,0.0
2630,75.0,0.0,60.0,0.0,0.0
2631,66.0,240.0,60.0,0.0,0.0
2632,57.0,0.0,60.0,1.0,0.0
2633,65.0,0.0,390.0,0.0,0.0
2634,49.0,0.0,390.0,1.0,0.0
2635,57.0,96.0,90.0,1.0,0.0
2636,75.0,0.0,90.0,0.0,0.0
2637,73.0,0.0,90.0,0.0,0.0
2638,58.0,96.0,90.0,1.0,0.0
2639,72.0,0.0,90.0,0.0,0.0
2640,60.0,96.0,90.0,1.0,0.0
2641,61.0,0.0,90.0,1.0,0.0
2642,70.0,32.0,90.0,0.0,0.0
2643,60.0,0.0,30.0,1.0,0.0
2644,51.0,64.0,30.0,1.0,0.0
2645,63.0,0.0,90.0,0.0,0.0
2646,68.0,128.0,90.0,0.0,0.0
2647,67.0,0.0,30.0,0.0,0.0
2648,63.0,0.0,30.0,0.0,0.0
2649,39.0,352.0,30.0,1.0,0.0
2650,61.0,0.0,30.0,0.0,0.0
2651,51.0,0.0,30.0,1.0,0.0
2652,58.0,0.0,30.0,0.0,0.0
2653,44.0,0.0,180.0,1.0,0.0
2654,68.0,0.0,180.0,0.0,0.0
2655,63.0,0.0,180.0,0.0,0.0
2656,60.0,0.0,180.0,0.0,0.0
2657,32.0,0.0,180.0,1.0,0.0
