,note,step,duration,channel,velocity
0,59.0,17.0,30.0,7.0,0.0
1,59.0,15.0,15.0,7.0,0.0
2,35.0,10.0,15.0,7.0,0.0
3,59.0,12.0,120.0,7.0,0.0
4,52.0,0.0,120.0,7.0,0.0
5,55.0,0.0,120.0,7.0,0.0
6,37.0,10.0,15.0,7.0,0.0
7,39.0,28.0,15.0,7.0,0.0
8,40.0,60.0,30.0,7.0,0.0
9,66.0,40.0,15.0,7.0,0.0
10,64.0,10.0,30.0,7.0,0.0
11,63.0,45.0,15.0,7.0,0.0
12,64.0,13.0,60.0,7.0,0.0
13,66.0,12.0,15.0,7.0,0.0
14,55.0,10.0,120.0,7.0,0.0
15,67.0,50.0,120.0,7.0,0.0
16,59.0,0.0,120.0,7.0,0.0
17,35.0,10.0,15.0,7.0,0.0
18,52.0,0.0,120.0,7.0,0.0
19,37.0,10.0,15.0,7.0,0.0
20,39.0,28.0,15.0,7.0,0.0
21,40.0,60.0,30.0,7.0,0.0
22,64.0,72.0,60.0,7.0,0.0
23,35.0,10.0,15.0,7.0,0.0
24,52.0,0.0,120.0,7.0,0.0
25,55.0,10.0,120.0,7.0,0.0
26,59.0,0.0,120.0,7.0,0.0
27,71.0,2.0,120.0,7.0,0.0
28,37.0,10.0,15.0,7.0,0.0
29,39.0,28.0,15.0,7.0,0.0
30,40.0,47.0,30.0,7.0,0.0
31,40.0,3.0,15.0,7.0,0.0
32,42.0,18.0,15.0,7.0,0.0
33,43.0,30.0,30.0,7.0,0.0
34,55.0,0.0,120.0,7.0,0.0
35,59.0,0.0,120.0,7.0,0.0
36,52.0,10.0,120.0,7.0,0.0
37,69.0,10.0,20.0,7.0,0.0
38,67.0,20.0,30.0,7.0,0.0
39,66.0,27.0,20.0,7.0,0.0
40,64.0,2.0,30.0,7.0,0.0
41,43.0,3.0,15.0,7.0,0.0
42,45.0,68.0,15.0,7.0,0.0
43,52.0,50.0,120.0,7.0,0.0
44,59.0,60.0,60.0,7.0,0.0
45,55.0,0.0,120.0,7.0,0.0
46,47.0,0.0,180.0,7.0,0.0
47,67.0,0.0,120.0,7.0,0.0
48,70.0,0.0,60.0,7.0,0.0
49,54.0,0.0,60.0,7.0,0.0
50,51.0,0.0,60.0,7.0,0.0
51,71.0,0.0,60.0,7.0,0.0
52,66.0,47.0,60.0,7.0,0.0
53,45.0,15.0,15.0,7.0,0.0
54,47.0,113.0,15.0,7.0,0.0
55,48.0,0.0,120.0,7.0,0.0
56,63.0,0.0,120.0,7.0,0.0
57,66.0,5.0,120.0,7.0,0.0
58,51.0,0.0,120.0,7.0,0.0
59,57.0,47.0,120.0,7.0,0.0
60,66.0,15.0,60.0,7.0,0.0
61,67.0,15.0,15.0,7.0,0.0
62,69.0,0.0,60.0,7.0,0.0
63,45.0,15.0,15.0,7.0,0.0
64,43.0,15.0,15.0,7.0,0.0
65,42.0,13.0,15.0,7.0,0.0
66,40.0,120.0,15.0,7.0,0.0
67,71.0,0.0,15.0,7.0,0.0
68,57.0,15.0,180.0,7.0,0.0
69,60.0,30.0,180.0,7.0,0.0
70,72.0,0.0,180.0,7.0,0.0
71,39.0,55.0,120.0,7.0,0.0
72,54.0,0.0,180.0,7.0,0.0
73,54.0,2.0,60.0,7.0,0.0
74,71.0,2.0,30.0,7.0,0.0
75,57.0,0.0,30.0,7.0,0.0
76,35.0,10.0,15.0,7.0,0.0
77,69.0,0.0,20.0,7.0,0.0
78,59.0,0.0,20.0,7.0,0.0
79,37.0,3.0,15.0,7.0,0.0
80,39.0,28.0,15.0,7.0,0.0
81,52.0,5.0,60.0,7.0,0.0
82,59.0,0.0,60.0,7.0,0.0
83,69.0,15.0,30.0,7.0,0.0
84,40.0,10.0,30.0,7.0,0.0
85,67.0,10.0,30.0,7.0,0.0
86,54.0,0.0,60.0,7.0,0.0
87,69.0,16.0,20.0,7.0,0.0
88,60.0,30.0,60.0,7.0,0.0
89,52.0,1.0,60.0,7.0,0.0
90,33.0,10.0,15.0,7.0,0.0
91,66.0,5.0,20.0,7.0,0.0
92,33.0,4.0,15.0,7.0,0.0
93,33.0,4.0,15.0,7.0,0.0
94,55.0,0.0,60.0,7.0,0.0
95,64.0,26.0,60.0,7.0,0.0
96,59.0,10.0,60.0,7.0,0.0
97,35.0,25.0,30.0,7.0,0.0
98,52.0,5.0,60.0,7.0,0.0
99,59.0,1.0,60.0,7.0,0.0
100,66.0,0.0,60.0,7.0,0.0
101,57.0,0.0,60.0,7.0,0.0
102,51.0,8.0,60.0,7.0,0.0
103,35.0,10.0,15.0,7.0,0.0
104,35.0,1.0,15.0,7.0,0.0
105,63.0,0.0,15.0,7.0,0.0
106,54.0,55.0,15.0,7.0,0.0
107,35.0,4.0,15.0,7.0,0.0
108,59.0,0.0,60.0,7.0,0.0
109,64.0,5.0,60.0,7.0,0.0
110,52.0,0.0,60.0,7.0,0.0
111,55.0,40.0,60.0,7.0,0.0
112,40.0,0.0,60.0,7.0,0.0
113,45.0,0.0,30.0,7.0,0.0
114,60.0,0.0,30.0,7.0,0.0
115,57.0,0.0,30.0,7.0,0.0
116,64.0,15.0,30.0,7.0,0.0
117,60.0,0.0,15.0,7.0,0.0
118,57.0,0.0,15.0,7.0,0.0
119,64.0,0.0,15.0,7.0,0.0
120,45.0,0.0,15.0,7.0,0.0
121,55.0,0.0,60.0,7.0,0.0
122,59.0,0.0,60.0,7.0,0.0
123,64.0,0.0,60.0,7.0,0.0
124,52.0,0.0,60.0,7.0,0.0
125,40.0,38.0,60.0,7.0,0.0
126,71.0,3.0,30.0,1.0,0.0
127,52.0,0.0,15.0,7.0,0.0
128,67.0,0.0,15.0,7.0,0.0
129,59.0,0.0,15.0,7.0,0.0
130,40.0,7.0,15.0,7.0,0.0
131,64.0,0.0,15.0,7.0,0.0
132,40.0,0.0,15.0,7.0,0.0
133,64.0,0.0,15.0,7.0,0.0
134,59.0,0.0,15.0,7.0,0.0
135,67.0,0.0,15.0,7.0,0.0
136,52.0,10.0,15.0,7.0,0.0
137,71.0,60.0,15.0,1.0,0.0
138,59.0,0.0,15.0,7.0,0.0
139,40.0,2.0,15.0,7.0,0.0
140,64.0,0.0,15.0,7.0,0.0
141,67.0,0.0,15.0,7.0,0.0
142,52.0,0.0,15.0,7.0,0.0
143,67.0,60.0,60.0,7.0,0.0
144,40.0,0.0,60.0,7.0,0.0
145,71.0,0.0,240.0,4.0,0.0
146,59.0,0.0,240.0,4.0,0.0
147,52.0,0.0,60.0,7.0,0.0
148,52.0,60.0,240.0,3.0,0.0
149,71.0,0.0,240.0,2.0,0.0
150,67.0,0.0,240.0,2.0,0.0
151,71.0,12.0,120.0,1.0,0.0
152,59.0,0.0,60.0,7.0,0.0
153,52.0,0.0,60.0,6.0,0.0
154,64.0,0.0,240.0,3.0,0.0
155,67.0,0.0,240.0,4.0,0.0
156,64.0,0.0,60.0,7.0,0.0
157,78.0,45.0,15.0,1.0,0.0
158,76.0,5.0,60.0,1.0,0.0
159,75.0,36.0,15.0,1.0,0.0
160,76.0,1.0,60.0,1.0,0.0
161,64.0,0.0,15.0,7.0,0.0
162,67.0,0.0,15.0,7.0,0.0
163,40.0,0.0,15.0,7.0,0.0
164,59.0,9.0,15.0,7.0,0.0
165,52.0,0.0,15.0,7.0,0.0
166,40.0,0.0,15.0,7.0,0.0
167,59.0,0.0,15.0,7.0,0.0
168,52.0,0.0,15.0,7.0,0.0
169,67.0,0.0,15.0,7.0,0.0
170,64.0,10.0,15.0,7.0,0.0
171,78.0,0.0,15.0,1.0,0.0
172,59.0,0.0,15.0,7.0,0.0
173,40.0,0.0,15.0,7.0,0.0
174,67.0,0.0,15.0,7.0,0.0
175,64.0,0.0,15.0,7.0,0.0
176,52.0,2.0,15.0,7.0,0.0
177,71.0,0.0,240.0,4.0,0.0
178,59.0,0.0,60.0,7.0,0.0
179,79.0,50.0,120.0,1.0,0.0
180,64.0,0.0,240.0,3.0,0.0
181,52.0,0.0,240.0,3.0,0.0
182,67.0,0.0,240.0,2.0,0.0
183,71.0,0.0,240.0,2.0,0.0
184,59.0,60.0,240.0,4.0,0.0
185,52.0,0.0,60.0,7.0,0.0
186,52.0,0.0,60.0,6.0,0.0
187,64.0,0.0,60.0,7.0,0.0
188,67.0,0.0,240.0,4.0,0.0
189,40.0,0.0,60.0,7.0,0.0
190,67.0,70.0,60.0,7.0,0.0
191,76.0,38.0,60.0,1.0,0.0
192,59.0,10.0,15.0,7.0,0.0
193,64.0,0.0,15.0,7.0,0.0
194,67.0,0.0,15.0,7.0,0.0
195,40.0,0.0,15.0,7.0,0.0
196,52.0,0.0,15.0,7.0,0.0
197,40.0,0.0,15.0,7.0,0.0
198,67.0,0.0,15.0,7.0,0.0
199,64.0,10.0,15.0,7.0,0.0
200,52.0,0.0,15.0,7.0,0.0
201,59.0,0.0,15.0,7.0,0.0
202,67.0,0.0,15.0,7.0,0.0
203,52.0,2.0,15.0,7.0,0.0
204,64.0,0.0,15.0,7.0,0.0
205,59.0,0.0,15.0,7.0,0.0
206,40.0,0.0,15.0,7.0,0.0
207,71.0,20.0,120.0,2.0,0.0
208,67.0,0.0,120.0,2.0,0.0
209,64.0,0.0,120.0,3.0,0.0
210,59.0,0.0,120.0,4.0,0.0
211,71.0,0.0,120.0,4.0,0.0
212,52.0,0.0,120.0,3.0,0.0
213,67.0,0.0,120.0,4.0,0.0
214,59.0,0.0,60.0,7.0,0.0
215,67.0,0.0,60.0,7.0,0.0
216,64.0,0.0,60.0,7.0,0.0
217,52.0,0.0,60.0,6.0,0.0
218,52.0,0.0,60.0,7.0,0.0
219,40.0,38.0,60.0,7.0,0.0
220,83.0,0.0,120.0,1.0,0.0
221,67.0,0.0,15.0,7.0,0.0
222,64.0,0.0,15.0,7.0,0.0
223,52.0,0.0,15.0,7.0,0.0
224,59.0,10.0,15.0,7.0,0.0
225,40.0,0.0,15.0,7.0,0.0
226,52.0,0.0,15.0,7.0,0.0
227,67.0,0.0,15.0,7.0,0.0
228,59.0,0.0,15.0,7.0,0.0
229,40.0,0.0,15.0,7.0,0.0
230,64.0,10.0,15.0,7.0,0.0
231,64.0,0.0,15.0,7.0,0.0
232,40.0,0.0,15.0,7.0,0.0
233,59.0,0.0,15.0,7.0,0.0
234,52.0,2.0,15.0,7.0,0.0
235,67.0,0.0,15.0,7.0,0.0
236,67.0,0.0,60.0,4.0,0.0
237,43.0,0.0,60.0,7.0,0.0
238,59.0,0.0,60.0,4.0,0.0
239,81.0,40.0,20.0,1.0,0.0
240,71.0,0.0,60.0,7.0,0.0
241,64.0,0.0,60.0,7.0,0.0
242,55.0,0.0,60.0,7.0,0.0
243,55.0,20.0,60.0,3.0,0.0
244,76.0,0.0,60.0,2.0,0.0
245,71.0,0.0,60.0,2.0,0.0
246,71.0,0.0,60.0,4.0,0.0
247,59.0,0.0,60.0,7.0,0.0
248,67.0,0.0,60.0,3.0,0.0
249,52.0,0.0,60.0,6.0,0.0
250,79.0,0.0,30.0,1.0,0.0
251,67.0,0.0,60.0,3.0,0.0
252,71.0,0.0,60.0,2.0,0.0
253,76.0,0.0,60.0,2.0,0.0
254,59.0,0.0,60.0,4.0,0.0
255,55.0,0.0,60.0,3.0,0.0
256,71.0,0.0,60.0,4.0,0.0
257,78.0,18.0,20.0,1.0,0.0
258,67.0,60.0,60.0,4.0,0.0
259,76.0,0.0,30.0,1.0,0.0
260,59.0,0.0,15.0,7.0,0.0
261,71.0,0.0,15.0,7.0,0.0
262,64.0,0.0,15.0,7.0,0.0
263,43.0,0.0,15.0,7.0,0.0
264,55.0,10.0,15.0,7.0,0.0
265,71.0,0.0,15.0,7.0,0.0
266,43.0,0.0,15.0,7.0,0.0
267,59.0,0.0,15.0,7.0,0.0
268,64.0,10.0,15.0,7.0,0.0
269,55.0,0.0,15.0,7.0,0.0
270,71.0,0.0,15.0,7.0,0.0
271,59.0,0.0,15.0,7.0,0.0
272,64.0,0.0,15.0,7.0,0.0
273,43.0,2.0,15.0,7.0,0.0
274,55.0,0.0,15.0,7.0,0.0
275,64.0,0.0,60.0,7.0,0.0
276,64.0,0.0,120.0,3.0,0.0
277,59.0,38.0,180.0,4.0,0.0
278,47.0,0.0,60.0,7.0,0.0
279,59.0,10.0,60.0,7.0,0.0
280,71.0,0.0,60.0,2.0,0.0
281,71.0,0.0,180.0,4.0,0.0
282,71.0,0.0,60.0,7.0,0.0
283,67.0,0.0,60.0,7.0,0.0
284,76.0,50.0,120.0,1.0,0.0
285,47.0,0.0,60.0,6.0,0.0
286,79.0,0.0,120.0,1.0,0.0
287,67.0,28.0,60.0,3.0,0.0
288,76.0,0.0,60.0,2.0,0.0
289,47.0,10.0,60.0,6.0,0.0
290,70.0,0.0,60.0,3.0,0.0
291,73.0,0.0,60.0,2.0,0.0
292,67.0,0.0,60.0,2.0,0.0
293,67.0,0.0,15.0,7.0,0.0
294,70.0,0.0,15.0,7.0,0.0
295,73.0,0.0,15.0,7.0,0.0
296,64.0,10.0,15.0,7.0,0.0
297,47.0,0.0,15.0,7.0,0.0
298,59.0,0.0,15.0,7.0,0.0
299,67.0,0.0,15.0,7.0,0.0
300,47.0,0.0,15.0,7.0,0.0
301,64.0,10.0,15.0,7.0,0.0
302,73.0,0.0,15.0,7.0,0.0
303,70.0,0.0,15.0,7.0,0.0
304,59.0,0.0,15.0,7.0,0.0
305,59.0,0.0,15.0,7.0,0.0
306,67.0,0.0,15.0,7.0,0.0
307,47.0,2.0,15.0,7.0,0.0
308,73.0,0.0,15.0,7.0,0.0
309,70.0,0.0,15.0,7.0,0.0
310,64.0,0.0,15.0,7.0,0.0
311,47.0,0.0,60.0,7.0,0.0
312,78.0,0.0,60.0,1.0,0.0
313,66.0,0.0,60.0,2.0,0.0
314,66.0,0.0,60.0,7.0,0.0
315,63.0,0.0,60.0,7.0,0.0
316,71.0,0.0,60.0,3.0,0.0
317,71.0,0.0,60.0,7.0,0.0
318,75.0,0.0,60.0,7.0,0.0
319,75.0,0.0,60.0,1.0,0.0
320,63.0,0.0,60.0,3.0,0.0
321,75.0,0.0,60.0,2.0,0.0
322,47.0,0.0,60.0,6.0,0.0
323,59.0,0.0,60.0,7.0,0.0
324,78.0,3.0,30.0,1.0,0.0
325,59.0,0.0,15.0,7.0,0.0
326,47.0,0.0,15.0,7.0,0.0
327,66.0,0.0,15.0,7.0,0.0
328,63.0,0.0,15.0,7.0,0.0
329,59.0,0.0,15.0,7.0,0.0
330,66.0,0.0,15.0,7.0,0.0
331,63.0,0.0,15.0,7.0,0.0
332,47.0,0.0,15.0,7.0,0.0
333,78.0,60.0,15.0,1.0,0.0
334,66.0,2.0,15.0,7.0,0.0
335,63.0,0.0,15.0,7.0,0.0
336,59.0,0.0,15.0,7.0,0.0
337,47.0,0.0,15.0,7.0,0.0
338,63.0,0.0,60.0,7.0,0.0
339,57.0,0.0,120.0,3.0,0.0
340,75.0,0.0,120.0,1.0,0.0
341,78.0,0.0,120.0,1.0,0.0
342,57.0,0.0,60.0,7.0,0.0
343,66.0,60.0,60.0,7.0,0.0
344,60.0,0.0,60.0,7.0,0.0
345,45.0,0.0,60.0,7.0,0.0
346,63.0,47.0,120.0,3.0,0.0
347,66.0,0.0,120.0,2.0,0.0
348,72.0,0.0,120.0,2.0,0.0
349,78.0,15.0,60.0,1.0,0.0
350,79.0,36.0,15.0,1.0,0.0
351,81.0,1.0,60.0,1.0,0.0
352,60.0,0.0,15.0,7.0,0.0
353,66.0,0.0,15.0,7.0,0.0
354,51.0,0.0,15.0,7.0,0.0
355,69.0,9.0,15.0,7.0,0.0
356,39.0,0.0,15.0,7.0,0.0
357,69.0,0.0,15.0,7.0,0.0
358,51.0,0.0,15.0,7.0,0.0
359,60.0,0.0,15.0,7.0,0.0
360,39.0,10.0,15.0,7.0,0.0
361,66.0,0.0,15.0,7.0,0.0
362,83.0,60.0,15.0,1.0,0.0
363,66.0,0.0,15.0,7.0,0.0
364,69.0,0.0,15.0,7.0,0.0
365,60.0,0.0,15.0,7.0,0.0
366,51.0,0.0,15.0,7.0,0.0
367,39.0,2.0,15.0,7.0,0.0
368,78.0,98.0,120.0,1.0,0.0
369,69.0,0.0,60.0,7.0,0.0
370,66.0,0.0,60.0,7.0,0.0
371,51.0,60.0,60.0,7.0,0.0
372,69.0,0.0,300.0,4.0,0.0
373,63.0,0.0,120.0,3.0,0.0
374,39.0,0.0,60.0,7.0,0.0
375,51.0,0.0,120.0,3.0,0.0
376,84.0,0.0,300.0,1.0,0.0
377,72.0,0.0,60.0,2.0,0.0
378,60.0,0.0,60.0,7.0,0.0
379,69.0,0.0,60.0,2.0,0.0
380,72.0,0.0,180.0,2.0,0.0
381,51.0,0.0,15.0,7.0,0.0
382,66.0,10.0,15.0,7.0,0.0
383,39.0,0.0,15.0,7.0,0.0
384,69.0,0.0,15.0,7.0,0.0
385,72.0,0.0,15.0,7.0,0.0
386,51.0,0.0,15.0,7.0,0.0
387,69.0,0.0,15.0,7.0,0.0
388,72.0,0.0,15.0,7.0,0.0
389,39.0,0.0,15.0,7.0,0.0
390,66.0,10.0,15.0,7.0,0.0
391,72.0,0.0,15.0,7.0,0.0
392,51.0,62.0,15.0,7.0,0.0
393,39.0,0.0,15.0,7.0,0.0
394,69.0,0.0,15.0,7.0,0.0
395,66.0,0.0,15.0,7.0,0.0
396,66.0,10.0,60.0,7.0,0.0
397,62.0,0.0,60.0,3.0,0.0
398,50.0,28.0,60.0,3.0,0.0
399,72.0,0.0,60.0,7.0,0.0
400,38.0,0.0,60.0,7.0,0.0
401,50.0,0.0,60.0,7.0,0.0
402,69.0,0.0,60.0,7.0,0.0
403,62.0,10.0,60.0,4.0,0.0
404,74.0,0.0,120.0,1.0,0.0
405,81.0,50.0,60.0,1.0,0.0
406,72.0,0.0,60.0,2.0,0.0
407,54.0,0.0,60.0,3.0,0.0
408,69.0,0.0,60.0,2.0,0.0
409,57.0,0.0,60.0,3.0,0.0
410,50.0,0.0,15.0,7.0,0.0
411,62.0,0.0,15.0,7.0,0.0
412,69.0,0.0,15.0,7.0,0.0
413,38.0,10.0,15.0,7.0,0.0
414,72.0,0.0,15.0,7.0,0.0
415,50.0,10.0,15.0,7.0,0.0
416,38.0,0.0,15.0,7.0,0.0
417,62.0,0.0,15.0,7.0,0.0
418,72.0,0.0,15.0,7.0,0.0
419,69.0,0.0,15.0,7.0,0.0
420,38.0,0.0,15.0,7.0,0.0
421,62.0,0.0,15.0,7.0,0.0
422,50.0,0.0,15.0,7.0,0.0
423,69.0,0.0,15.0,7.0,0.0
424,72.0,2.0,15.0,7.0,0.0
425,71.0,10.0,60.0,7.0,0.0
426,67.0,0.0,60.0,7.0,0.0
427,62.0,0.0,60.0,4.0,0.0
428,38.0,0.0,60.0,7.0,0.0
429,59.0,0.0,60.0,3.0,0.0
430,55.0,0.0,60.0,3.0,0.0
431,50.0,0.0,60.0,7.0,0.0
432,62.0,0.0,60.0,7.0,0.0
433,67.0,28.0,60.0,2.0,0.0
434,71.0,0.0,60.0,2.0,0.0
435,79.0,0.0,60.0,1.0,0.0
436,74.0,0.0,60.0,1.0,0.0
437,78.0,0.0,60.0,1.0,0.0
438,60.0,0.0,60.0,3.0,0.0
439,69.0,0.0,60.0,2.0,0.0
440,66.0,60.0,60.0,2.0,0.0
441,57.0,0.0,60.0,3.0,0.0
442,62.0,0.0,60.0,4.0,0.0
443,38.0,0.0,15.0,7.0,0.0
444,72.0,0.0,15.0,7.0,0.0
445,62.0,0.0,15.0,7.0,0.0
446,50.0,10.0,15.0,7.0,0.0
447,69.0,0.0,15.0,7.0,0.0
448,38.0,0.0,15.0,7.0,0.0
449,50.0,0.0,15.0,7.0,0.0
450,69.0,10.0,15.0,7.0,0.0
451,72.0,0.0,15.0,7.0,0.0
452,62.0,0.0,15.0,7.0,0.0
453,62.0,0.0,15.0,7.0,0.0
454,72.0,0.0,15.0,7.0,0.0
455,69.0,2.0,15.0,7.0,0.0
456,50.0,0.0,15.0,7.0,0.0
457,38.0,0.0,15.0,7.0,0.0
458,43.0,0.0,60.0,7.0,0.0
459,62.0,0.0,60.0,7.0,0.0
460,59.0,0.0,60.0,3.0,0.0
461,79.0,0.0,60.0,1.0,0.0
462,55.0,0.0,60.0,7.0,0.0
463,67.0,45.0,60.0,2.0,0.0
464,74.0,0.0,60.0,1.0,0.0
465,67.0,0.0,60.0,4.0,0.0
466,71.0,0.0,60.0,7.0,0.0
467,67.0,0.0,60.0,7.0,0.0
468,71.0,0.0,60.0,2.0,0.0
469,55.0,0.0,60.0,3.0,0.0
470,76.0,0.0,30.0,1.0,0.0
471,79.0,0.0,30.0,1.0,0.0
472,67.0,0.0,30.0,4.0,0.0
473,72.0,0.0,30.0,2.0,0.0
474,64.0,0.0,30.0,3.0,0.0
475,67.0,15.0,30.0,2.0,0.0
476,60.0,0.0,30.0,3.0,0.0
477,67.0,0.0,15.0,2.0,0.0
478,72.0,60.0,15.0,2.0,0.0
479,67.0,0.0,15.0,4.0,0.0
480,60.0,0.0,15.0,3.0,0.0
481,76.0,0.0,15.0,1.0,0.0
482,79.0,0.0,15.0,1.0,0.0
483,64.0,0.0,15.0,3.0,0.0
484,67.0,0.0,60.0,4.0,0.0
485,79.0,0.0,60.0,1.0,0.0
486,71.0,0.0,60.0,2.0,0.0
487,62.0,0.0,60.0,3.0,0.0
488,55.0,60.0,60.0,3.0,0.0
489,67.0,0.0,60.0,2.0,0.0
490,74.0,0.0,60.0,1.0,0.0
491,62.0,110.0,60.0,7.0,0.0
492,47.0,0.0,120.0,7.0,0.0
493,55.0,0.0,120.0,7.0,0.0
494,50.0,20.0,120.0,7.0,0.0
495,67.0,0.0,120.0,7.0,0.0
496,62.0,45.0,120.0,7.0,0.0
497,45.0,0.0,60.0,7.0,0.0
498,50.0,15.0,60.0,7.0,0.0
499,57.0,45.0,60.0,7.0,0.0
500,66.0,0.0,60.0,7.0,0.0
501,60.0,0.0,60.0,7.0,0.0
502,50.0,5.0,60.0,7.0,0.0
503,64.0,0.0,60.0,7.0,0.0
504,59.0,0.0,60.0,7.0,0.0
505,43.0,60.0,60.0,7.0,0.0
506,50.0,0.0,60.0,7.0,0.0
507,60.0,0.0,60.0,7.0,0.0
508,62.0,13.0,150.0,7.0,0.0
509,42.0,0.0,60.0,7.0,0.0
510,57.0,85.0,60.0,7.0,0.0
511,62.0,15.0,15.0,7.0,0.0
512,64.0,15.0,15.0,7.0,0.0
513,66.0,15.0,15.0,7.0,0.0
514,67.0,15.0,15.0,7.0,0.0
515,69.0,15.0,15.0,7.0,0.0
516,71.0,137.0,15.0,7.0,0.0
517,52.0,0.0,120.0,7.0,0.0
518,55.0,0.0,120.0,7.0,0.0
519,72.0,0.0,120.0,7.0,0.0
520,67.0,60.0,120.0,7.0,0.0
521,40.0,0.0,120.0,7.0,0.0
522,71.0,0.0,60.0,7.0,0.0
523,66.0,0.0,60.0,7.0,0.0
524,50.0,0.0,60.0,7.0,0.0
525,38.0,50.0,60.0,7.0,0.0
526,59.0,0.0,60.0,7.0,0.0
527,69.0,0.0,60.0,7.0,0.0
528,64.0,0.0,60.0,7.0,0.0
529,48.0,0.0,60.0,7.0,0.0
530,52.0,0.0,60.0,7.0,0.0
531,36.0,60.0,60.0,7.0,0.0
532,47.0,0.0,60.0,7.0,0.0
533,53.0,0.0,60.0,7.0,0.0
534,35.0,55.0,60.0,7.0,0.0
535,68.0,0.0,60.0,7.0,0.0
536,62.0,0.0,60.0,7.0,0.0
537,71.0,125.0,15.0,7.0,0.0
538,74.0,0.0,15.0,7.0,0.0
539,44.0,0.0,15.0,7.0,0.0
540,64.0,0.0,15.0,7.0,0.0
541,52.0,0.0,15.0,7.0,0.0
542,56.0,0.0,15.0,7.0,0.0
543,71.0,0.0,120.0,7.0,0.0
544,44.0,0.0,120.0,7.0,0.0
545,56.0,0.0,120.0,7.0,0.0
546,64.0,0.0,120.0,7.0,0.0
547,52.0,165.0,120.0,7.0,0.0
548,74.0,0.0,120.0,7.0,0.0
549,64.0,0.0,30.0,4.0,0.0
550,52.0,0.0,30.0,4.0,0.0
551,69.0,0.0,60.0,7.0,0.0
552,72.0,0.0,60.0,7.0,0.0
553,45.0,0.0,60.0,7.0,0.0
554,57.0,35.0,60.0,7.0,0.0
555,52.0,0.0,30.0,7.0,0.0
556,64.0,25.0,30.0,7.0,0.0
557,64.0,0.0,30.0,7.0,0.0
558,52.0,0.0,30.0,7.0,0.0
559,59.0,55.0,60.0,7.0,0.0
560,71.0,0.0,60.0,7.0,0.0
561,67.0,5.0,60.0,7.0,0.0
562,52.0,0.0,30.0,4.0,0.0
563,64.0,10.0,30.0,4.0,0.0
564,47.0,0.0,60.0,7.0,0.0
565,60.0,10.0,120.0,7.0,0.0
566,67.0,0.0,60.0,7.0,0.0
567,70.0,0.0,120.0,7.0,0.0
568,52.0,5.0,60.0,7.0,0.0
569,48.0,0.0,120.0,7.0,0.0
570,64.0,10.0,180.0,4.0,0.0
571,52.0,0.0,180.0,4.0,0.0
572,64.0,60.0,60.0,7.0,0.0
573,52.0,0.0,60.0,7.0,0.0
574,67.0,50.0,60.0,7.0,0.0
575,60.0,50.0,120.0,7.0,0.0
576,55.0,30.0,60.0,7.0,0.0
577,36.0,0.0,120.0,7.0,0.0
578,64.0,0.0,60.0,7.0,0.0
579,76.0,20.0,90.0,7.0,0.0
580,64.0,10.0,60.0,4.0,0.0
581,67.0,0.0,60.0,7.0,0.0
582,52.0,0.0,60.0,7.0,0.0
583,52.0,0.0,60.0,4.0,0.0
584,70.0,0.0,30.0,7.0,0.0
585,47.0,0.0,60.0,6.0,0.0
586,35.0,5.0,240.0,7.0,0.0
587,71.0,10.0,240.0,7.0,0.0
588,63.0,0.0,60.0,7.0,0.0
589,54.0,70.0,60.0,7.0,0.0
590,59.0,0.0,240.0,4.0,0.0
591,71.0,0.0,240.0,4.0,0.0
592,59.0,60.0,120.0,7.0,0.0
593,54.0,45.0,60.0,7.0,0.0
594,57.0,50.0,60.0,7.0,0.0
595,47.0,70.0,60.0,6.0,0.0
596,71.0,0.0,240.0,4.0,0.0
597,35.0,5.0,240.0,7.0,0.0
598,71.0,15.0,180.0,7.0,0.0
599,55.0,0.0,120.0,7.0,0.0
600,59.0,0.0,240.0,4.0,0.0
601,64.0,45.0,120.0,7.0,0.0
602,54.0,0.0,60.0,7.0,0.0
603,63.0,45.0,60.0,7.0,0.0
604,69.0,0.0,60.0,7.0,0.0
605,67.0,0.0,60.0,7.0,0.0
606,64.0,0.0,60.0,7.0,0.0
607,71.0,60.0,60.0,7.0,0.0
608,52.0,0.0,60.0,7.0,0.0
609,59.0,0.0,420.0,4.0,0.0
610,59.0,0.0,420.0,3.0,0.0
611,51.0,10.0,180.0,7.0,0.0
612,71.0,0.0,420.0,4.0,0.0
613,35.0,15.0,240.0,7.0,0.0
614,66.0,60.0,60.0,7.0,0.0
615,83.0,0.0,120.0,7.0,0.0
616,47.0,10.0,60.0,6.0,0.0
617,59.0,50.0,60.0,7.0,0.0
618,78.0,0.0,60.0,7.0,0.0
619,71.0,5.0,180.0,7.0,0.0
620,54.0,0.0,60.0,7.0,0.0
621,69.0,45.0,60.0,7.0,0.0
622,81.0,0.0,60.0,7.0,0.0
623,35.0,5.0,240.0,7.0,0.0
624,79.0,0.0,120.0,7.0,0.0
625,67.0,0.0,120.0,7.0,0.0
626,52.0,50.0,120.0,7.0,0.0
627,47.0,70.0,60.0,6.0,0.0
628,71.0,45.0,120.0,7.0,0.0
629,50.0,0.0,60.0,7.0,0.0
630,66.0,0.0,60.0,7.0,0.0
631,78.0,0.0,60.0,7.0,0.0
632,47.0,10.0,60.0,6.0,0.0
633,76.0,0.0,60.0,7.0,0.0
634,58.0,0.0,60.0,3.0,0.0
635,48.0,10.0,60.0,7.0,0.0
636,64.0,50.0,60.0,7.0,0.0
637,71.0,0.0,60.0,4.0,0.0
638,59.0,0.0,60.0,4.0,0.0
639,70.0,0.0,60.0,7.0,0.0
640,47.0,0.0,60.0,6.0,0.0
641,47.0,60.0,60.0,7.0,0.0
642,63.0,10.0,60.0,7.0,0.0
643,75.0,0.0,60.0,7.0,0.0
644,59.0,0.0,60.0,4.0,0.0
645,71.0,0.0,60.0,4.0,0.0
646,71.0,0.0,60.0,7.0,0.0
647,59.0,0.0,60.0,3.0,0.0
648,35.0,0.0,60.0,7.0,0.0
649,48.0,60.0,60.0,7.0,0.0
650,47.0,60.0,60.0,7.0,0.0
651,52.0,60.0,60.0,7.0,0.0
652,51.0,60.0,60.0,7.0,0.0
653,55.0,60.0,60.0,7.0,0.0
654,54.0,50.0,60.0,7.0,0.0
655,52.0,130.0,60.0,7.0,0.0
656,51.0,120.0,120.0,7.0,0.0
657,48.0,110.0,120.0,7.0,0.0
658,47.0,100.0,120.0,7.0,0.0
659,56.0,0.0,120.0,7.0,0.0
660,62.0,110.0,120.0,7.0,0.0
661,47.0,10.0,120.0,7.0,0.0
662,64.0,0.0,120.0,4.0,0.0
663,40.0,0.0,120.0,7.0,0.0
664,52.0,0.0,120.0,4.0,0.0
665,64.0,15.0,30.0,7.0,0.0
666,64.0,5.0,15.0,7.0,0.0
667,60.0,0.0,120.0,7.0,0.0
668,64.0,0.0,120.0,7.0,0.0
669,52.0,0.0,120.0,4.0,0.0
670,64.0,12.0,120.0,4.0,0.0
671,33.0,0.0,120.0,7.0,0.0
672,57.0,0.0,120.0,7.0,0.0
673,45.0,0.0,120.0,7.0,0.0
674,71.0,35.0,15.0,7.0,0.0
675,69.0,15.0,30.0,7.0,0.0
676,68.0,45.0,15.0,7.0,0.0
677,69.0,0.0,60.0,7.0,0.0
678,45.0,13.0,15.0,7.0,0.0
679,57.0,0.0,15.0,7.0,0.0
680,71.0,2.0,15.0,7.0,0.0
681,55.0,118.0,15.0,7.0,0.0
682,43.0,0.0,15.0,7.0,0.0
683,53.0,10.0,120.0,7.0,0.0
684,65.0,0.0,180.0,7.0,0.0
685,41.0,0.0,120.0,7.0,0.0
686,72.0,50.0,120.0,7.0,0.0
687,60.0,47.0,180.0,7.0,0.0
688,69.0,0.0,120.0,7.0,0.0
689,69.0,0.0,60.0,7.0,0.0
690,41.0,15.0,15.0,7.0,0.0
691,53.0,0.0,15.0,7.0,0.0
692,40.0,0.0,15.0,7.0,0.0
693,52.0,58.0,15.0,7.0,0.0
694,51.0,38.0,60.0,7.0,0.0
695,66.0,0.0,60.0,7.0,0.0
696,39.0,0.0,60.0,7.0,0.0
697,81.0,0.0,120.0,7.0,0.0
698,69.0,0.0,120.0,7.0,0.0
699,60.0,17.0,120.0,7.0,0.0
700,39.0,10.0,15.0,7.0,0.0
701,51.0,0.0,15.0,7.0,0.0
702,66.0,0.0,15.0,7.0,0.0
703,66.0,0.0,15.0,7.0,0.0
704,51.0,0.0,15.0,7.0,0.0
705,39.0,10.0,15.0,7.0,0.0
706,51.0,0.0,15.0,7.0,0.0
707,66.0,0.0,15.0,7.0,0.0
708,39.0,2.0,15.0,7.0,0.0
709,72.0,0.0,60.0,7.0,0.0
710,45.0,2.0,60.0,7.0,0.0
711,67.0,43.0,15.0,7.0,0.0
712,57.0,0.0,60.0,7.0,0.0
713,79.0,0.0,15.0,7.0,0.0
714,78.0,0.0,60.0,7.0,0.0
715,66.0,15.0,60.0,7.0,0.0
716,76.0,0.0,15.0,7.0,0.0
717,64.0,21.0,15.0,7.0,0.0
718,63.0,0.0,60.0,7.0,0.0
719,75.0,28.0,60.0,7.0,0.0
720,57.0,0.0,15.0,7.0,0.0
721,45.0,10.0,15.0,7.0,0.0
722,72.0,0.0,15.0,7.0,0.0
723,72.0,0.0,15.0,7.0,0.0
724,45.0,0.0,15.0,7.0,0.0
725,57.0,10.0,15.0,7.0,0.0
726,72.0,0.0,15.0,7.0,0.0
727,57.0,0.0,15.0,7.0,0.0
728,45.0,4.0,15.0,7.0,0.0
729,43.0,60.0,30.0,7.0,0.0
730,64.0,0.0,30.0,7.0,0.0
731,76.0,0.0,30.0,7.0,0.0
732,71.0,0.0,30.0,7.0,0.0
733,55.0,0.0,30.0,7.0,0.0
734,45.0,0.0,30.0,7.0,0.0
735,57.0,0.0,30.0,7.0,0.0
736,64.0,0.0,30.0,7.0,0.0
737,72.0,0.0,30.0,7.0,0.0
738,36.0,0.0,120.0,7.0,0.0
739,64.0,0.0,120.0,7.0,0.0
740,55.0,5.0,120.0,7.0,0.0
741,70.0,115.0,120.0,7.0,0.0
742,55.0,37.0,120.0,7.0,0.0
743,59.0,0.0,120.0,7.0,0.0
744,71.0,0.0,120.0,7.0,0.0
745,35.0,15.0,120.0,7.0,0.0
746,52.0,0.0,120.0,7.0,0.0
747,51.0,0.0,60.0,7.0,0.0
748,35.0,2.0,60.0,7.0,0.0
749,54.0,8.0,60.0,7.0,0.0
750,69.0,0.0,60.0,7.0,0.0
751,59.0,5.0,60.0,7.0,0.0
752,57.0,28.0,15.0,7.0,0.0
753,66.0,0.0,15.0,7.0,0.0
754,52.0,0.0,30.0,7.0,0.0
755,59.0,23.0,60.0,7.0,0.0
756,64.0,0.0,60.0,7.0,0.0
757,55.0,0.0,30.0,7.0,0.0
758,40.0,30.0,30.0,7.0,0.0
759,48.0,30.0,20.0,7.0,0.0
760,60.0,0.0,20.0,7.0,0.0
761,60.0,0.0,15.0,7.0,0.0
762,48.0,0.0,15.0,7.0,0.0
763,54.0,0.0,30.0,7.0,0.0
764,42.0,0.0,30.0,7.0,0.0
765,50.0,0.0,20.0,7.0,0.0
766,74.0,60.0,60.0,1.0,0.0
767,62.0,0.0,20.0,7.0,0.0
768,62.0,0.0,15.0,7.0,0.0
769,72.0,10.0,15.0,7.0,0.0
770,69.0,0.0,15.0,7.0,0.0
771,69.0,0.0,15.0,7.0,0.0
772,72.0,0.0,15.0,7.0,0.0
773,50.0,5.0,15.0,7.0,0.0
774,62.0,5.0,15.0,7.0,0.0
775,69.0,0.0,15.0,7.0,0.0
776,62.0,0.0,15.0,7.0,0.0
777,72.0,2.0,15.0,7.0,0.0
778,67.0,0.0,240.0,4.0,0.0
779,71.0,0.0,120.0,2.0,0.0
780,71.0,0.0,60.0,7.0,0.0
781,67.0,70.0,60.0,7.0,0.0
782,62.0,0.0,60.0,7.0,0.0
783,74.0,0.0,120.0,2.0,0.0
784,55.0,60.0,240.0,3.0,0.0
785,79.0,60.0,120.0,1.0,0.0
786,55.0,0.0,60.0,7.0,0.0
787,43.0,0.0,60.0,7.0,0.0
788,72.0,28.0,60.0,2.0,0.0
789,69.0,0.0,60.0,2.0,0.0
790,78.0,0.0,60.0,1.0,0.0
791,76.0,0.0,60.0,1.0,0.0
792,67.0,0.0,60.0,2.0,0.0
793,71.0,0.0,60.0,2.0,0.0
794,59.0,10.0,15.0,7.0,0.0
795,55.0,0.0,15.0,7.0,0.0
796,67.0,0.0,15.0,7.0,0.0
797,43.0,0.0,15.0,7.0,0.0
798,62.0,0.0,15.0,7.0,0.0
799,55.0,0.0,15.0,7.0,0.0
800,62.0,0.0,15.0,7.0,0.0
801,67.0,0.0,15.0,7.0,0.0
802,43.0,0.0,15.0,7.0,0.0
803,59.0,10.0,15.0,7.0,0.0
804,43.0,0.0,15.0,7.0,0.0
805,62.0,0.0,15.0,7.0,0.0
806,55.0,2.0,15.0,7.0,0.0
807,67.0,0.0,15.0,7.0,0.0
808,59.0,0.0,15.0,7.0,0.0
809,62.0,0.0,60.0,7.0,0.0
810,38.0,90.0,60.0,7.0,0.0
811,62.0,0.0,240.0,4.0,0.0
812,69.0,0.0,240.0,2.0,0.0
813,74.0,10.0,150.0,1.0,0.0
814,66.0,60.0,240.0,2.0,0.0
815,66.0,0.0,60.0,7.0,0.0
816,69.0,0.0,60.0,7.0,0.0
817,50.0,0.0,60.0,7.0,0.0
818,62.0,0.0,240.0,3.0,0.0
819,74.0,15.0,15.0,1.0,0.0
820,76.0,15.0,15.0,1.0,0.0
821,78.0,15.0,15.0,1.0,0.0
822,79.0,13.0,15.0,1.0,0.0
823,50.0,0.0,15.0,7.0,0.0
824,62.0,0.0,15.0,7.0,0.0
825,38.0,0.0,15.0,7.0,0.0
826,81.0,8.0,15.0,1.0,0.0
827,69.0,0.0,15.0,7.0,0.0
828,66.0,2.0,15.0,7.0,0.0
829,38.0,0.0,15.0,7.0,0.0
830,62.0,0.0,15.0,7.0,0.0
831,50.0,0.0,15.0,7.0,0.0
832,66.0,7.0,15.0,7.0,0.0
833,69.0,0.0,15.0,7.0,0.0
834,83.0,3.0,15.0,1.0,0.0
835,50.0,0.0,15.0,7.0,0.0
836,38.0,0.0,15.0,7.0,0.0
837,62.0,2.0,15.0,7.0,0.0
838,69.0,0.0,15.0,7.0,0.0
839,66.0,0.0,15.0,7.0,0.0
840,67.0,10.0,120.0,4.0,0.0
841,67.0,0.0,120.0,3.0,0.0
842,52.0,0.0,60.0,7.0,0.0
843,84.0,0.0,120.0,1.0,0.0
844,67.0,0.0,60.0,7.0,0.0
845,64.0,0.0,120.0,3.0,0.0
846,72.0,0.0,60.0,7.0,0.0
847,72.0,50.0,120.0,2.0,0.0
848,64.0,0.0,60.0,7.0,0.0
849,40.0,38.0,60.0,7.0,0.0
850,40.0,10.0,15.0,7.0,0.0
851,52.0,0.0,15.0,7.0,0.0
852,67.0,0.0,15.0,7.0,0.0
853,72.0,0.0,15.0,7.0,0.0
854,64.0,0.0,15.0,7.0,0.0
855,72.0,0.0,15.0,7.0,0.0
856,40.0,10.0,15.0,7.0,0.0
857,52.0,0.0,15.0,7.0,0.0
858,64.0,0.0,15.0,7.0,0.0
859,67.0,0.0,15.0,7.0,0.0
860,64.0,0.0,15.0,7.0,0.0
861,40.0,2.0,15.0,7.0,0.0
862,67.0,0.0,15.0,7.0,0.0
863,72.0,0.0,15.0,7.0,0.0
864,52.0,0.0,15.0,7.0,0.0
865,83.0,0.0,60.0,1.0,0.0
866,50.0,0.0,60.0,7.0,0.0
867,71.0,0.0,60.0,7.0,0.0
868,66.0,0.0,60.0,7.0,0.0
869,62.0,0.0,120.0,4.0,0.0
870,38.0,0.0,60.0,7.0,0.0
871,62.0,0.0,60.0,3.0,0.0
872,62.0,10.0,60.0,7.0,0.0
873,71.0,0.0,60.0,2.0,0.0
874,66.0,28.0,60.0,3.0,0.0
875,64.0,0.0,60.0,3.0,0.0
876,81.0,60.0,60.0,1.0,0.0
877,69.0,0.0,60.0,2.0,0.0
878,72.0,0.0,60.0,2.0,0.0
879,60.0,0.0,60.0,3.0,0.0
880,76.0,0.0,60.0,1.0,0.0
881,36.0,0.0,15.0,7.0,0.0
882,48.0,0.0,15.0,7.0,0.0
883,60.0,0.0,15.0,7.0,0.0
884,64.0,0.0,15.0,7.0,0.0
885,69.0,10.0,15.0,7.0,0.0
886,36.0,0.0,15.0,7.0,0.0
887,60.0,0.0,15.0,7.0,0.0
888,48.0,0.0,15.0,7.0,0.0
889,64.0,10.0,15.0,7.0,0.0
890,69.0,0.0,15.0,7.0,0.0
891,36.0,0.0,15.0,7.0,0.0
892,60.0,2.0,15.0,7.0,0.0
893,69.0,0.0,15.0,7.0,0.0
894,64.0,0.0,15.0,7.0,0.0
895,48.0,0.0,15.0,7.0,0.0
896,65.0,0.0,60.0,3.0,0.0
897,59.0,0.0,60.0,7.0,0.0
898,47.0,38.0,60.0,7.0,0.0
899,80.0,0.0,60.0,1.0,0.0
900,35.0,0.0,60.0,7.0,0.0
901,77.0,0.0,60.0,1.0,0.0
902,68.0,0.0,60.0,2.0,0.0
903,74.0,0.0,60.0,2.0,0.0
904,68.0,0.0,60.0,7.0,0.0
905,62.0,0.0,60.0,4.0,0.0
906,65.0,0.0,60.0,7.0,0.0
907,59.0,0.0,60.0,3.0,0.0
908,62.0,0.0,60.0,7.0,0.0
909,74.0,0.0,15.0,7.0,0.0
910,71.0,0.0,15.0,7.0,0.0
911,44.0,0.0,15.0,7.0,0.0
912,56.0,0.0,15.0,7.0,0.0
913,64.0,10.0,15.0,7.0,0.0
914,74.0,0.0,15.0,7.0,0.0
915,64.0,0.0,15.0,7.0,0.0
916,44.0,7.0,15.0,7.0,0.0
917,71.0,0.0,15.0,7.0,0.0
918,56.0,0.0,15.0,7.0,0.0
919,76.0,0.0,15.0,2.0,0.0
920,83.0,0.0,15.0,1.0,0.0
921,86.0,0.0,15.0,1.0,0.0
922,74.0,0.0,15.0,2.0,0.0
923,64.0,3.0,15.0,3.0,0.0
924,71.0,0.0,15.0,4.0,0.0
925,56.0,0.0,15.0,3.0,0.0
926,56.0,0.0,15.0,7.0,0.0
927,71.0,0.0,15.0,7.0,0.0
928,64.0,62.0,15.0,7.0,0.0
929,74.0,0.0,15.0,7.0,0.0
930,44.0,0.0,15.0,7.0,0.0
931,74.0,0.0,120.0,2.0,0.0
932,44.0,38.0,60.0,7.0,0.0
933,74.0,0.0,60.0,7.0,0.0
934,64.0,0.0,60.0,7.0,0.0
935,71.0,30.0,120.0,4.0,0.0
936,56.0,0.0,60.0,7.0,0.0
937,56.0,0.0,120.0,3.0,0.0
938,64.0,0.0,120.0,3.0,0.0
939,76.0,0.0,120.0,2.0,0.0
940,83.0,0.0,120.0,1.0,0.0
941,71.0,0.0,60.0,7.0,0.0
942,86.0,0.0,120.0,1.0,0.0
943,64.0,0.0,15.0,7.0,0.0
944,56.0,10.0,15.0,7.0,0.0
945,71.0,0.0,15.0,7.0,0.0
946,74.0,0.0,15.0,7.0,0.0
947,44.0,0.0,15.0,7.0,0.0
948,64.0,0.0,15.0,7.0,0.0
949,74.0,10.0,15.0,7.0,0.0
950,56.0,0.0,15.0,7.0,0.0
951,44.0,0.0,15.0,7.0,0.0
952,71.0,0.0,15.0,7.0,0.0
953,44.0,0.0,15.0,7.0,0.0
954,71.0,0.0,15.0,7.0,0.0
955,74.0,2.0,15.0,7.0,0.0
956,56.0,0.0,15.0,7.0,0.0
957,64.0,0.0,15.0,7.0,0.0
958,74.0,38.0,60.0,7.0,0.0
959,64.0,0.0,60.0,7.0,0.0
960,44.0,0.0,60.0,7.0,0.0
961,64.0,0.0,30.0,4.0,0.0
962,52.0,0.0,60.0,6.0,0.0
963,52.0,30.0,30.0,4.0,0.0
964,56.0,0.0,60.0,7.0,0.0
965,71.0,0.0,60.0,7.0,0.0
966,52.0,38.0,270.0,4.0,0.0
967,64.0,0.0,270.0,4.0,0.0
968,74.0,0.0,15.0,7.0,0.0
969,64.0,10.0,15.0,7.0,0.0
970,56.0,0.0,15.0,7.0,0.0
971,71.0,0.0,15.0,7.0,0.0
972,44.0,0.0,15.0,7.0,0.0
973,74.0,0.0,15.0,7.0,0.0
974,71.0,0.0,15.0,7.0,0.0
975,44.0,10.0,15.0,7.0,0.0
976,56.0,0.0,15.0,7.0,0.0
977,64.0,0.0,15.0,7.0,0.0
978,74.0,0.0,15.0,7.0,0.0
979,56.0,0.0,15.0,7.0,0.0
980,44.0,0.0,15.0,7.0,0.0
981,71.0,0.0,15.0,7.0,0.0
982,64.0,47.0,15.0,7.0,0.0
983,69.0,0.0,60.0,7.0,0.0
984,57.0,0.0,60.0,7.0,0.0
985,64.0,0.0,30.0,3.0,0.0
986,57.0,0.0,30.0,3.0,0.0
987,64.0,0.0,60.0,7.0,0.0
988,72.0,0.0,60.0,7.0,0.0
989,45.0,0.0,60.0,7.0,0.0
990,52.0,10.0,60.0,6.0,0.0
991,84.0,0.0,60.0,1.0,0.0
992,81.0,28.0,60.0,1.0,0.0
993,69.0,0.0,60.0,4.0,0.0
994,76.0,15.0,30.0,2.0,0.0
995,72.0,0.0,30.0,2.0,0.0
996,71.0,0.0,30.0,2.0,0.0
997,83.0,0.0,60.0,1.0,0.0
998,79.0,0.0,60.0,1.0,0.0
999,64.0,3.0,30.0,3.0,0.0
1000,52.0,30.0,60.0,6.0,0.0
1001,76.0,0.0,30.0,2.0,0.0
1002,59.0,0.0,30.0,3.0,0.0
1003,67.0,0.0,60.0,4.0,0.0
1004,64.0,7.0,15.0,7.0,0.0
1005,59.0,0.0,15.0,7.0,0.0
1006,71.0,0.0,15.0,7.0,0.0
1007,67.0,0.0,15.0,7.0,0.0
1008,47.0,0.0,15.0,7.0,0.0
1009,47.0,0.0,15.0,7.0,0.0
1010,59.0,0.0,15.0,7.0,0.0
1011,67.0,0.0,15.0,7.0,0.0
1012,64.0,10.0,15.0,7.0,0.0
1013,71.0,0.0,15.0,7.0,0.0
1014,59.0,0.0,15.0,7.0,0.0
1015,47.0,0.0,15.0,7.0,0.0
1016,64.0,2.0,15.0,7.0,0.0
1017,67.0,0.0,15.0,7.0,0.0
1018,71.0,0.0,15.0,7.0,0.0
1019,64.0,0.0,60.0,7.0,0.0
1020,67.0,0.0,60.0,7.0,0.0
1021,70.0,0.0,60.0,7.0,0.0
1022,70.0,0.0,240.0,2.0,0.0
1023,76.0,0.0,30.0,2.0,0.0
1024,52.0,0.0,60.0,6.0,0.0
1025,60.0,0.0,240.0,3.0,0.0
1026,64.0,30.0,30.0,3.0,0.0
1027,60.0,0.0,60.0,7.0,0.0
1028,67.0,0.0,180.0,4.0,0.0
1029,79.0,0.0,60.0,1.0,0.0
1030,82.0,50.0,120.0,1.0,0.0
1031,48.0,0.0,60.0,7.0,0.0
1032,76.0,0.0,60.0,2.0,0.0
1033,52.0,0.0,60.0,4.0,0.0
1034,64.0,0.0,60.0,3.0,0.0
1035,64.0,10.0,60.0,4.0,0.0
1036,70.0,0.0,15.0,7.0,0.0
1037,64.0,0.0,15.0,7.0,0.0
1038,36.0,0.0,15.0,7.0,0.0
1039,48.0,0.0,15.0,7.0,0.0
1040,52.0,10.0,15.0,7.0,0.0
1041,70.0,0.0,15.0,7.0,0.0
1042,64.0,0.0,15.0,7.0,0.0
1043,48.0,0.0,15.0,7.0,0.0
1044,36.0,10.0,15.0,7.0,0.0
1045,52.0,0.0,15.0,7.0,0.0
1046,52.0,0.0,15.0,7.0,0.0
1047,70.0,0.0,15.0,7.0,0.0
1048,64.0,0.0,15.0,7.0,0.0
1049,48.0,2.0,15.0,7.0,0.0
1050,36.0,0.0,15.0,7.0,0.0
1051,52.0,0.0,60.0,4.0,0.0
1052,52.0,10.0,60.0,6.0,0.0
1053,88.0,8.0,90.0,1.0,0.0
1054,76.0,0.0,120.0,1.0,0.0
1055,67.0,28.0,60.0,3.0,0.0
1056,55.0,0.0,60.0,7.0,0.0
1057,79.0,0.0,60.0,2.0,0.0
1058,70.0,0.0,60.0,7.0,0.0
1059,64.0,0.0,60.0,4.0,0.0
1060,64.0,0.0,60.0,7.0,0.0
1061,36.0,0.0,60.0,7.0,0.0
1062,48.0,0.0,60.0,7.0,0.0
1063,64.0,50.0,60.0,3.0,0.0
1064,52.0,0.0,60.0,4.0,0.0
1065,76.0,0.0,60.0,2.0,0.0
1066,67.0,10.0,60.0,4.0,0.0
1067,64.0,0.0,60.0,4.0,0.0
1068,81.0,0.0,30.0,1.0,0.0
1069,52.0,2.0,15.0,7.0,0.0
1070,48.0,0.0,15.0,7.0,0.0
1071,64.0,0.0,15.0,7.0,0.0
1072,70.0,0.0,15.0,7.0,0.0
1073,36.0,0.0,15.0,7.0,0.0
1074,64.0,0.0,15.0,7.0,0.0
1075,36.0,10.0,15.0,7.0,0.0
1076,52.0,0.0,15.0,7.0,0.0
1077,70.0,0.0,15.0,7.0,0.0
1078,48.0,0.0,15.0,7.0,0.0
1079,48.0,0.0,15.0,7.0,0.0
1080,36.0,2.0,15.0,7.0,0.0
1081,70.0,0.0,15.0,7.0,0.0
1082,64.0,0.0,15.0,7.0,0.0
1083,52.0,0.0,15.0,7.0,0.0
1084,71.0,0.0,60.0,2.0,0.0
1085,75.0,0.0,60.0,2.0,0.0
1086,47.0,70.0,60.0,6.0,0.0
1087,71.0,0.0,240.0,4.0,0.0
1088,71.0,0.0,60.0,7.0,0.0
1089,54.0,0.0,60.0,7.0,0.0
1090,59.0,10.0,240.0,4.0,0.0
1091,83.0,60.0,480.0,1.0,0.0
1092,75.0,0.0,60.0,1.0,0.0
1093,63.0,0.0,60.0,7.0,0.0
1094,71.0,60.0,120.0,3.0,0.0
1095,59.0,0.0,60.0,3.0,0.0
1096,35.0,0.0,60.0,7.0,0.0
1097,47.0,0.0,60.0,7.0,0.0
1098,66.0,28.0,60.0,3.0,0.0
1099,69.0,50.0,60.0,3.0,0.0
1100,35.0,10.0,15.0,7.0,0.0
1101,47.0,0.0,15.0,7.0,0.0
1102,59.0,0.0,15.0,7.0,0.0
1103,71.0,0.0,15.0,7.0,0.0
1104,59.0,10.0,15.0,7.0,0.0
1105,35.0,0.0,15.0,7.0,0.0
1106,47.0,0.0,15.0,7.0,0.0
1107,71.0,0.0,15.0,7.0,0.0
1108,59.0,2.0,15.0,7.0,0.0
1109,71.0,0.0,15.0,7.0,0.0
1110,35.0,0.0,15.0,7.0,0.0
1111,47.0,0.0,15.0,7.0,0.0
1112,71.0,70.0,60.0,7.0,0.0
1113,67.0,0.0,120.0,3.0,0.0
1114,47.0,0.0,60.0,6.0,0.0
1115,47.0,0.0,60.0,7.0,0.0
1116,59.0,0.0,240.0,4.0,0.0
1117,71.0,0.0,240.0,4.0,0.0
1118,83.0,0.0,120.0,2.0,0.0
1119,71.0,0.0,120.0,2.0,0.0
1120,59.0,0.0,60.0,7.0,0.0
1121,76.0,60.0,120.0,1.0,0.0
1122,35.0,0.0,60.0,7.0,0.0
1123,81.0,0.0,60.0,2.0,0.0
1124,75.0,0.0,60.0,1.0,0.0
1125,69.0,28.0,60.0,2.0,0.0
1126,66.0,0.0,60.0,3.0,0.0
1127,64.0,0.0,60.0,3.0,0.0
1128,67.0,0.0,60.0,2.0,0.0
1129,79.0,0.0,60.0,2.0,0.0
1130,76.0,0.0,60.0,1.0,0.0
1131,35.0,0.0,15.0,7.0,0.0
1132,71.0,0.0,15.0,7.0,0.0
1133,59.0,0.0,15.0,7.0,0.0
1134,47.0,10.0,15.0,7.0,0.0
1135,35.0,0.0,15.0,7.0,0.0
1136,71.0,10.0,15.0,7.0,0.0
1137,47.0,0.0,15.0,7.0,0.0
1138,59.0,0.0,15.0,7.0,0.0
1139,47.0,0.0,15.0,7.0,0.0
1140,59.0,0.0,15.0,7.0,0.0
1141,35.0,0.0,15.0,7.0,0.0
1142,71.0,2.0,15.0,7.0,0.0
1143,59.0,0.0,120.0,3.0,0.0
1144,63.0,0.0,120.0,3.0,0.0
1145,59.0,0.0,240.0,4.0,0.0
1146,47.0,0.0,60.0,7.0,0.0
1147,71.0,0.0,240.0,4.0,0.0
1148,95.0,0.0,120.0,0.0,0.0
1149,78.0,60.0,120.0,2.0,0.0
1150,66.0,0.0,120.0,2.0,0.0
1151,71.0,0.0,60.0,7.0,0.0
1152,59.0,0.0,60.0,7.0,0.0
1153,78.0,10.0,120.0,1.0,0.0
1154,83.0,0.0,120.0,1.0,0.0
1155,35.0,60.0,60.0,7.0,0.0
1156,83.0,0.0,120.0,0.0,0.0
1157,47.0,0.0,60.0,6.0,0.0
1158,83.0,0.0,300.0,0.0,0.0
1159,78.0,0.0,60.0,1.0,0.0
1160,90.0,0.0,60.0,0.0,0.0
1161,71.0,0.0,300.0,2.0,0.0
1162,63.0,28.0,60.0,3.0,0.0
1163,66.0,0.0,60.0,2.0,0.0
1164,93.0,50.0,60.0,0.0,0.0
1165,69.0,10.0,60.0,2.0,0.0
1166,66.0,0.0,60.0,3.0,0.0
1167,81.0,0.0,60.0,1.0,0.0
1168,59.0,10.0,15.0,7.0,0.0
1169,35.0,0.0,15.0,7.0,0.0
1170,71.0,0.0,15.0,7.0,0.0
1171,47.0,0.0,15.0,7.0,0.0
1172,71.0,0.0,15.0,7.0,0.0
1173,35.0,0.0,15.0,7.0,0.0
1174,47.0,0.0,15.0,7.0,0.0
1175,59.0,10.0,15.0,7.0,0.0
1176,35.0,0.0,15.0,7.0,0.0
1177,47.0,2.0,15.0,7.0,0.0
1178,59.0,0.0,15.0,7.0,0.0
1179,71.0,0.0,15.0,7.0,0.0
1180,67.0,0.0,120.0,2.0,0.0
1181,91.0,0.0,120.0,0.0,0.0
1182,35.0,38.0,60.0,7.0,0.0
1183,64.0,0.0,120.0,3.0,0.0
1184,79.0,50.0,120.0,1.0,0.0
1185,71.0,0.0,300.0,4.0,0.0
1186,71.0,0.0,60.0,7.0,0.0
1187,59.0,0.0,60.0,7.0,0.0
1188,47.0,0.0,60.0,6.0,0.0
1189,47.0,0.0,60.0,7.0,0.0
1190,59.0,0.0,300.0,4.0,0.0
1191,59.0,0.0,240.0,3.0,0.0
1192,59.0,0.0,15.0,7.0,0.0
1193,35.0,0.0,15.0,7.0,0.0
1194,47.0,0.0,15.0,7.0,0.0
1195,71.0,10.0,15.0,7.0,0.0
1196,59.0,0.0,15.0,7.0,0.0
1197,47.0,10.0,15.0,7.0,0.0
1198,71.0,0.0,15.0,7.0,0.0
1199,35.0,0.0,15.0,7.0,0.0
1200,35.0,0.0,15.0,7.0,0.0
1201,47.0,12.0,15.0,7.0,0.0
1202,71.0,0.0,15.0,7.0,0.0
1203,59.0,0.0,15.0,7.0,0.0
1204,90.0,0.0,60.0,0.0,0.0
1205,47.0,0.0,60.0,6.0,0.0
1206,71.0,0.0,60.0,7.0,0.0
1207,66.0,0.0,60.0,2.0,0.0
1208,47.0,0.0,60.0,7.0,0.0
1209,62.0,0.0,60.0,3.0,0.0
1210,78.0,28.0,60.0,1.0,0.0
1211,59.0,10.0,60.0,7.0,0.0
1212,35.0,0.0,60.0,7.0,0.0
1213,60.0,0.0,60.0,3.0,0.0
1214,70.0,0.0,60.0,2.0,0.0
1215,88.0,0.0,60.0,0.0,0.0
1216,82.0,60.0,60.0,0.0,0.0
1217,64.0,0.0,60.0,2.0,0.0
1218,76.0,0.0,60.0,1.0,0.0
1219,35.0,0.0,15.0,7.0,0.0
1220,47.0,0.0,15.0,7.0,0.0
1221,59.0,10.0,15.0,7.0,0.0
1222,71.0,0.0,15.0,7.0,0.0
1223,59.0,0.0,15.0,7.0,0.0
1224,35.0,0.0,15.0,7.0,0.0
1225,71.0,10.0,15.0,7.0,0.0
1226,47.0,0.0,15.0,7.0,0.0
1227,71.0,2.0,15.0,7.0,0.0
1228,59.0,0.0,15.0,7.0,0.0
1229,47.0,0.0,15.0,7.0,0.0
1230,35.0,0.0,15.0,7.0,0.0
1231,35.0,0.0,60.0,7.0,0.0
1232,87.0,0.0,60.0,0.0,0.0
1233,71.0,0.0,60.0,2.0,0.0
1234,59.0,0.0,60.0,7.0,0.0
1235,83.0,0.0,60.0,0.0,0.0
1236,47.0,0.0,60.0,7.0,0.0
1237,75.0,70.0,60.0,1.0,0.0
1238,59.0,0.0,60.0,3.0,0.0
1239,47.0,0.0,60.0,6.0,0.0
1240,71.0,0.0,60.0,7.0,0.0
1241,72.0,60.0,60.0,2.0,0.0
1242,71.0,60.0,60.0,2.0,0.0
1243,76.0,60.0,60.0,2.0,0.0
1244,67.0,0.0,60.0,3.0,0.0
1245,75.0,60.0,60.0,2.0,0.0
1246,66.0,0.0,60.0,3.0,0.0
1247,79.0,60.0,60.0,2.0,0.0
1248,71.0,0.0,60.0,3.0,0.0
1249,69.0,0.0,60.0,3.0,0.0
1250,78.0,50.0,60.0,2.0,0.0
1251,76.0,0.0,60.0,2.0,0.0
1252,71.0,105.0,60.0,2.0,0.0
1253,67.0,0.0,60.0,3.0,0.0
1254,69.0,0.0,120.0,2.0,0.0
1255,66.0,0.0,120.0,3.0,0.0
1256,75.0,35.0,120.0,2.0,0.0
1257,81.0,25.0,30.0,1.0,0.0
1258,81.0,60.0,30.0,1.0,0.0
1259,67.0,110.0,120.0,2.0,0.0
1260,64.0,0.0,120.0,3.0,0.0
1261,72.0,0.0,120.0,2.0,0.0
1262,69.0,10.0,120.0,4.0,0.0
1263,81.0,15.0,30.0,1.0,0.0
1264,71.0,0.0,120.0,2.0,0.0
1265,81.0,50.0,120.0,1.0,0.0
1266,66.0,0.0,120.0,2.0,0.0
1267,69.0,10.0,120.0,4.0,0.0
1268,63.0,0.0,120.0,3.0,0.0
1269,83.0,0.0,60.0,0.0,0.0
1270,62.0,0.0,120.0,3.0,0.0
1271,80.0,0.0,120.0,1.0,0.0
1272,64.0,0.0,120.0,2.0,0.0
1273,52.0,0.0,120.0,3.0,0.0
1274,52.0,38.0,60.0,6.0,0.0
1275,71.0,0.0,120.0,2.0,0.0
1276,83.0,60.0,120.0,0.0,0.0
1277,71.0,0.0,120.0,4.0,0.0
1278,76.0,3.0,30.0,1.0,0.0
1279,88.0,0.0,60.0,0.0,0.0
1280,40.0,0.0,15.0,7.0,0.0
1281,64.0,0.0,15.0,7.0,0.0
1282,71.0,7.0,15.0,7.0,0.0
1283,74.0,0.0,15.0,7.0,0.0
1284,52.0,0.0,15.0,7.0,0.0
1285,71.0,0.0,15.0,7.0,0.0
1286,74.0,0.0,15.0,7.0,0.0
1287,64.0,0.0,15.0,7.0,0.0
1288,52.0,0.0,15.0,7.0,0.0
1289,40.0,10.0,15.0,7.0,0.0
1290,76.0,0.0,15.0,1.0,0.0
1291,52.0,0.0,15.0,7.0,0.0
1292,71.0,0.0,15.0,7.0,0.0
1293,74.0,0.0,15.0,7.0,0.0
1294,64.0,0.0,15.0,7.0,0.0
1295,40.0,2.0,15.0,7.0,0.0
1296,57.0,0.0,60.0,7.0,0.0
1297,69.0,0.0,120.0,2.0,0.0
1298,64.0,12.0,120.0,2.0,0.0
1299,57.0,0.0,120.0,3.0,0.0
1300,60.0,0.0,120.0,3.0,0.0
1301,76.0,0.0,120.0,1.0,0.0
1302,69.0,60.0,60.0,7.0,0.0
1303,81.0,0.0,60.0,1.0,0.0
1304,81.0,0.0,60.0,0.0,0.0
1305,45.0,0.0,60.0,7.0,0.0
1306,64.0,0.0,60.0,7.0,0.0
1307,72.0,0.0,60.0,7.0,0.0
1308,52.0,0.0,60.0,6.0,0.0
1309,88.0,0.0,60.0,0.0,0.0
1310,69.0,0.0,240.0,4.0,0.0
1311,83.0,35.0,15.0,1.0,0.0
1312,81.0,15.0,30.0,1.0,0.0
1313,80.0,36.0,15.0,1.0,0.0
1314,81.0,1.0,60.0,1.0,0.0
1315,45.0,9.0,15.0,7.0,0.0
1316,72.0,0.0,15.0,7.0,0.0
1317,69.0,0.0,15.0,7.0,0.0
1318,57.0,0.0,15.0,7.0,0.0
1319,45.0,0.0,15.0,7.0,0.0
1320,69.0,0.0,15.0,7.0,0.0
1321,72.0,0.0,15.0,7.0,0.0
1322,57.0,0.0,15.0,7.0,0.0
1323,83.0,60.0,15.0,1.0,0.0
1324,57.0,2.0,15.0,7.0,0.0
1325,72.0,0.0,15.0,7.0,0.0
1326,69.0,0.0,15.0,7.0,0.0
1327,45.0,0.0,15.0,7.0,0.0
1328,53.0,0.0,120.0,3.0,0.0
1329,72.0,0.0,240.0,4.0,0.0
1330,69.0,0.0,60.0,7.0,0.0
1331,65.0,0.0,120.0,3.0,0.0
1332,72.0,0.0,60.0,7.0,0.0
1333,72.0,0.0,120.0,2.0,0.0
1334,69.0,60.0,240.0,4.0,0.0
1335,84.0,50.0,120.0,1.0,0.0
1336,65.0,0.0,60.0,7.0,0.0
1337,53.0,0.0,60.0,7.0,0.0
1338,69.0,10.0,120.0,2.0,0.0
1339,41.0,60.0,60.0,7.0,0.0
1340,81.0,38.0,60.0,1.0,0.0
1341,41.0,10.0,15.0,7.0,0.0
1342,69.0,0.0,15.0,7.0,0.0
1343,72.0,0.0,15.0,7.0,0.0
1344,53.0,0.0,15.0,7.0,0.0
1345,65.0,0.0,15.0,7.0,0.0
1346,65.0,0.0,15.0,7.0,0.0
1347,41.0,0.0,15.0,7.0,0.0
1348,69.0,0.0,15.0,7.0,0.0
1349,72.0,0.0,15.0,7.0,0.0
1350,53.0,10.0,15.0,7.0,0.0
1351,53.0,0.0,15.0,7.0,0.0
1352,69.0,2.0,15.0,7.0,0.0
1353,41.0,0.0,15.0,7.0,0.0
1354,72.0,0.0,15.0,7.0,0.0
1355,65.0,0.0,15.0,7.0,0.0
1356,69.0,0.0,60.0,7.0,0.0
1357,72.0,0.0,60.0,7.0,0.0
1358,93.0,17.0,120.0,0.0,0.0
1359,72.0,0.0,180.0,2.0,0.0
1360,69.0,2.0,180.0,1.0,0.0
1361,81.0,0.0,120.0,1.0,0.0
1362,63.0,0.0,180.0,3.0,0.0
1363,51.0,0.0,180.0,3.0,0.0
1364,72.0,0.0,180.0,4.0,0.0
1365,69.0,0.0,180.0,4.0,0.0
1366,66.0,0.0,180.0,4.0,0.0
1367,51.0,0.0,60.0,7.0,0.0
1368,39.0,38.0,60.0,7.0,0.0
1369,66.0,0.0,60.0,7.0,0.0
1370,69.0,0.0,180.0,2.0,0.0
1371,66.0,0.0,15.0,7.0,0.0
1372,51.0,0.0,15.0,7.0,0.0
1373,39.0,0.0,15.0,7.0,0.0
1374,72.0,10.0,15.0,7.0,0.0
1375,69.0,0.0,15.0,7.0,0.0
1376,51.0,10.0,15.0,7.0,0.0
1377,69.0,0.0,15.0,7.0,0.0
1378,66.0,0.0,15.0,7.0,0.0
1379,72.0,0.0,15.0,7.0,0.0
1380,39.0,0.0,15.0,7.0,0.0
1381,72.0,0.0,15.0,7.0,0.0
1382,69.0,0.0,15.0,7.0,0.0
1383,51.0,0.0,15.0,7.0,0.0
1384,39.0,2.0,15.0,7.0,0.0
1385,66.0,0.0,15.0,7.0,0.0
1386,45.0,0.0,60.0,7.0,0.0
1387,79.0,0.0,15.0,1.0,0.0
1388,91.0,43.0,15.0,0.0,0.0
1389,75.0,0.0,60.0,7.0,0.0
1390,57.0,0.0,60.0,7.0,0.0
1391,60.0,0.0,60.0,7.0,0.0
1392,66.0,0.0,60.0,7.0,0.0
1393,78.0,15.0,60.0,1.0,0.0
1394,90.0,0.0,30.0,0.0,0.0
1395,57.0,0.0,60.0,3.0,0.0
1396,69.0,0.0,60.0,3.0,0.0
1397,84.0,0.0,60.0,0.0,0.0
1398,66.0,0.0,60.0,2.0,0.0
1399,72.0,0.0,60.0,2.0,0.0
1400,72.0,0.0,60.0,4.0,0.0
1401,69.0,0.0,60.0,4.0,0.0
1402,66.0,0.0,60.0,4.0,0.0
1403,47.0,0.0,60.0,6.0,0.0
1404,66.0,30.0,60.0,1.0,0.0
1405,76.0,0.0,15.0,1.0,0.0
1406,88.0,21.0,15.0,0.0,0.0
1407,75.0,0.0,30.0,1.0,0.0
1408,87.0,0.0,30.0,0.0,0.0
1409,45.0,0.0,15.0,7.0,0.0
1410,60.0,10.0,15.0,7.0,0.0
1411,57.0,0.0,15.0,7.0,0.0
1412,66.0,0.0,15.0,7.0,0.0
1413,75.0,0.0,15.0,7.0,0.0
1414,45.0,0.0,15.0,7.0,0.0
1415,66.0,10.0,15.0,7.0,0.0
1416,75.0,0.0,15.0,7.0,0.0
1417,57.0,0.0,15.0,7.0,0.0
1418,60.0,0.0,15.0,7.0,0.0
1419,75.0,0.0,15.0,7.0,0.0
1420,66.0,0.0,15.0,7.0,0.0
1421,60.0,2.0,15.0,7.0,0.0
1422,45.0,0.0,15.0,7.0,0.0
1423,57.0,0.0,15.0,7.0,0.0
1424,64.0,0.0,30.0,7.0,0.0
1425,71.0,60.0,30.0,1.0,0.0
1426,52.0,0.0,30.0,6.0,0.0
1427,64.0,0.0,30.0,4.0,0.0
1428,52.0,0.0,30.0,4.0,0.0
1429,71.0,0.0,30.0,4.0,0.0
1430,76.0,0.0,30.0,1.0,0.0
1431,76.0,0.0,30.0,7.0,0.0
1432,59.0,0.0,30.0,7.0,0.0
1433,71.0,0.0,30.0,2.0,0.0
1434,43.0,0.0,30.0,7.0,0.0
1435,83.0,0.0,30.0,0.0,0.0
1436,55.0,0.0,30.0,3.0,0.0
1437,67.0,0.0,30.0,3.0,0.0
1438,55.0,0.0,30.0,7.0,0.0
1439,88.0,0.0,30.0,0.0,0.0
1440,88.0,0.0,30.0,0.0,0.0
1441,64.0,0.0,30.0,7.0,0.0
1442,72.0,128.0,30.0,7.0,0.0
1443,84.0,0.0,30.0,1.0,0.0
1444,76.0,0.0,30.0,1.0,0.0
1445,84.0,0.0,30.0,0.0,0.0
1446,69.0,0.0,30.0,4.0,0.0
1447,69.0,0.0,30.0,2.0,0.0
1448,57.0,0.0,30.0,7.0,0.0
1449,72.0,0.0,30.0,2.0,0.0
1450,45.0,0.0,30.0,7.0,0.0
1451,64.0,0.0,30.0,4.0,0.0
1452,52.0,0.0,30.0,4.0,0.0
1453,69.0,0.0,30.0,3.0,0.0
1454,57.0,0.0,30.0,3.0,0.0
1455,52.0,0.0,30.0,6.0,0.0
1456,60.0,0.0,120.0,3.0,0.0
1457,67.0,38.0,120.0,3.0,0.0
1458,82.0,0.0,120.0,1.0,0.0
1459,76.0,0.0,120.0,2.0,0.0
1460,70.0,0.0,120.0,2.0,0.0
1461,52.0,60.0,60.0,6.0,0.0
1462,64.0,0.0,15.0,7.0,0.0
1463,48.0,0.0,15.0,7.0,0.0
1464,67.0,0.0,15.0,7.0,0.0
1465,60.0,0.0,15.0,7.0,0.0
1466,67.0,0.0,15.0,7.0,0.0
1467,60.0,0.0,15.0,7.0,0.0
1468,64.0,0.0,15.0,7.0,0.0
1469,48.0,0.0,15.0,7.0,0.0
1470,60.0,0.0,15.0,7.0,0.0
1471,64.0,0.0,15.0,7.0,0.0
1472,48.0,0.0,15.0,7.0,0.0
1473,67.0,0.0,15.0,7.0,0.0
1474,48.0,0.0,60.0,7.0,0.0
1475,52.0,0.0,60.0,6.0,0.0
1476,64.0,0.0,60.0,7.0,0.0
1477,67.0,0.0,60.0,7.0,0.0
1478,60.0,0.0,60.0,7.0,0.0
1479,67.0,0.0,60.0,3.0,0.0
1480,59.0,10.0,120.0,4.0,0.0
1481,71.0,0.0,120.0,4.0,0.0
1482,67.0,0.0,60.0,4.0,0.0
1483,71.0,0.0,60.0,2.0,0.0
1484,76.0,50.0,60.0,0.0,0.0
1485,83.0,28.0,120.0,1.0,0.0
1486,59.0,0.0,120.0,3.0,0.0
1487,47.0,10.0,60.0,6.0,0.0
1488,76.0,0.0,60.0,2.0,0.0
1489,95.0,0.0,120.0,0.0,0.0
1490,59.0,0.0,15.0,7.0,0.0
1491,64.0,0.0,15.0,7.0,0.0
1492,67.0,10.0,15.0,7.0,0.0
1493,47.0,0.0,15.0,7.0,0.0
1494,67.0,0.0,15.0,7.0,0.0
1495,64.0,0.0,15.0,7.0,0.0
1496,59.0,0.0,15.0,7.0,0.0
1497,47.0,0.0,15.0,7.0,0.0
1498,47.0,2.0,15.0,7.0,0.0
1499,64.0,0.0,15.0,7.0,0.0
1500,59.0,0.0,15.0,7.0,0.0
1501,67.0,0.0,15.0,7.0,0.0
1502,47.0,0.0,60.0,6.0,0.0
1503,63.0,0.0,60.0,7.0,0.0
1504,69.0,0.0,60.0,7.0,0.0
1505,75.0,0.0,60.0,2.0,0.0
1506,78.0,0.0,60.0,0.0,0.0
1507,47.0,0.0,60.0,7.0,0.0
1508,69.0,0.0,60.0,4.0,0.0
1509,59.0,0.0,60.0,7.0,0.0
1510,66.0,0.0,60.0,3.0,0.0
1511,69.0,0.0,60.0,2.0,0.0
1512,66.0,1.0,60.0,3.0,0.0
1513,47.0,0.0,60.0,3.0,0.0
1514,47.0,0.0,60.0,6.0,0.0
1515,59.0,0.0,60.0,4.0,0.0
1516,93.0,0.0,60.0,0.0,0.0
1517,78.0,0.0,60.0,0.0,0.0
1518,81.0,0.0,60.0,1.0,0.0
1519,69.0,0.0,60.0,2.0,0.0
1520,75.0,0.0,60.0,2.0,0.0
1521,71.0,0.0,60.0,4.0,0.0
1522,69.0,0.0,60.0,4.0,0.0
1523,47.0,0.0,15.0,7.0,0.0
1524,69.0,0.0,15.0,7.0,0.0
1525,75.0,0.0,15.0,7.0,0.0
1526,35.0,9.0,15.0,7.0,0.0
1527,59.0,0.0,15.0,7.0,0.0
1528,47.0,0.0,15.0,7.0,0.0
1529,35.0,0.0,15.0,7.0,0.0
1530,75.0,10.0,15.0,7.0,0.0
1531,69.0,0.0,15.0,7.0,0.0
1532,59.0,0.0,15.0,7.0,0.0
1533,90.0,0.0,15.0,0.0,0.0
1534,78.0,0.0,15.0,2.0,0.0
1535,63.0,0.0,15.0,3.0,0.0
1536,81.0,0.0,15.0,0.0,0.0
1537,78.0,30.0,15.0,1.0,0.0
1538,59.0,0.0,15.0,7.0,0.0
1539,75.0,0.0,15.0,7.0,0.0
1540,47.0,0.0,15.0,7.0,0.0
1541,69.0,0.0,15.0,7.0,0.0
1542,35.0,2.0,15.0,7.0,0.0
1543,76.0,0.0,60.0,1.0,0.0
1544,52.0,30.0,30.0,7.0,0.0
1545,76.0,0.0,60.0,2.0,0.0
1546,59.0,28.0,60.0,7.0,0.0
1547,64.0,0.0,60.0,4.0,0.0
1548,79.0,0.0,60.0,0.0,0.0
1549,52.0,0.0,60.0,4.0,0.0
1550,67.0,0.0,60.0,7.0,0.0
1551,52.0,0.0,60.0,3.0,0.0
1552,64.0,0.0,60.0,3.0,0.0
1553,76.0,0.0,120.0,7.0,0.0
1554,67.0,0.0,60.0,4.0,0.0
1555,52.0,0.0,60.0,6.0,0.0
1556,67.0,0.0,60.0,2.0,0.0
1557,40.0,0.0,30.0,7.0,0.0
1558,88.0,10.0,60.0,0.0,0.0
1559,55.0,20.0,60.0,3.0,0.0
1560,67.0,0.0,60.0,7.0,0.0
1561,64.0,0.0,60.0,7.0,0.0
1562,52.0,8.0,15.0,7.0,0.0
1563,54.0,7.0,15.0,7.0,0.0
1564,55.0,8.0,15.0,7.0,0.0
1565,57.0,9.0,15.0,7.0,0.0
1566,71.0,0.0,120.0,7.0,0.0
1567,59.0,40.0,30.0,7.0,0.0
1568,63.0,0.0,60.0,7.0,0.0
1569,59.0,32.0,60.0,3.0,0.0
1570,69.0,0.0,60.0,7.0,0.0
1571,63.0,0.0,60.0,3.0,0.0
1572,66.0,0.0,15.0,7.0,0.0
1573,59.0,10.0,15.0,7.0,0.0
1574,61.0,8.0,15.0,7.0,0.0
1575,63.0,0.0,15.0,7.0,0.0
1576,64.0,60.0,60.0,3.0,0.0
1577,67.0,0.0,60.0,7.0,0.0
1578,64.0,0.0,60.0,7.0,0.0
1579,71.0,45.0,60.0,7.0,0.0
1580,66.0,0.0,60.0,7.0,0.0
1581,59.0,0.0,60.0,3.0,0.0
1582,63.0,0.0,60.0,7.0,0.0
1583,76.0,0.0,120.0,7.0,0.0
1584,55.0,45.0,60.0,7.0,0.0
1585,59.0,0.0,15.0,7.0,0.0
1586,55.0,0.0,60.0,3.0,0.0
1587,64.0,0.0,60.0,7.0,0.0
1588,52.0,0.0,60.0,3.0,0.0
1589,59.0,5.0,60.0,7.0,0.0
1590,67.0,0.0,60.0,7.0,0.0
1591,52.0,70.0,60.0,7.0,0.0
1592,51.0,0.0,60.0,3.0,0.0
1593,51.0,0.0,60.0,7.0,0.0
1594,59.0,50.0,60.0,7.0,0.0
1595,69.0,0.0,60.0,7.0,0.0
1596,78.0,60.0,120.0,7.0,0.0
1597,47.0,0.0,60.0,7.0,0.0
1598,47.0,0.0,60.0,3.0,0.0
1599,71.0,10.0,60.0,7.0,0.0
1600,63.0,0.0,60.0,7.0,0.0
1601,52.0,0.0,60.0,3.0,0.0
1602,52.0,23.0,60.0,7.0,0.0
1603,64.0,0.0,60.0,7.0,0.0
1604,71.0,0.0,90.0,7.0,0.0
1605,79.0,14.0,90.0,7.0,0.0
1606,55.0,70.0,60.0,7.0,0.0
1607,59.0,0.0,60.0,7.0,0.0
1608,55.0,0.0,60.0,3.0,0.0
1609,69.0,0.0,15.0,7.0,0.0
1610,78.0,8.0,15.0,7.0,0.0
1611,67.0,5.0,15.0,7.0,0.0
1612,76.0,0.0,15.0,7.0,0.0
1613,76.0,0.0,60.0,7.0,0.0
1614,59.0,20.0,120.0,3.0,0.0
1615,59.0,15.0,120.0,7.0,0.0
1616,67.0,20.0,60.0,7.0,0.0
1617,66.0,0.0,30.0,7.0,0.0
1618,75.0,25.0,30.0,7.0,0.0
1619,66.0,0.0,30.0,7.0,0.0
1620,47.0,0.0,30.0,3.0,0.0
1621,75.0,0.0,30.0,7.0,0.0
1622,59.0,0.0,15.0,7.0,0.0
1623,47.0,210.0,30.0,7.0,0.0
1624,78.0,0.0,120.0,2.0,0.0
1625,72.0,0.0,120.0,2.0,0.0
1626,84.0,0.0,120.0,1.0,0.0
1627,76.0,0.0,120.0,1.0,0.0
1628,90.0,0.0,120.0,0.0,0.0
1629,66.0,105.0,120.0,3.0,0.0
1630,64.0,0.0,120.0,4.0,0.0
1631,88.0,0.0,120.0,0.0,0.0
1632,57.0,0.0,120.0,3.0,0.0
1633,88.0,0.0,90.0,0.0,0.0
1634,66.0,0.0,90.0,3.0,0.0
1635,64.0,0.0,90.0,4.0,0.0
1636,76.0,0.0,90.0,1.0,0.0
1637,78.0,0.0,90.0,2.0,0.0
1638,72.0,0.0,90.0,2.0,0.0
1639,57.0,15.0,90.0,3.0,0.0
1640,84.0,0.0,90.0,1.0,0.0
1641,90.0,0.0,90.0,0.0,0.0
1642,76.0,0.0,15.0,1.0,0.0
1643,84.0,0.0,15.0,1.0,0.0
1644,90.0,0.0,15.0,0.0,0.0
1645,66.0,0.0,15.0,3.0,0.0
1646,57.0,0.0,15.0,3.0,0.0
1647,64.0,0.0,15.0,4.0,0.0
1648,72.0,0.0,15.0,2.0,0.0
1649,78.0,0.0,15.0,2.0,0.0
1650,88.0,180.0,15.0,0.0,0.0
1651,67.0,0.0,180.0,3.0,0.0
1652,91.0,0.0,180.0,0.0,0.0
1653,85.0,0.0,240.0,1.0,0.0
1654,76.0,0.0,240.0,1.0,0.0
1655,58.0,60.0,240.0,3.0,0.0
1656,73.0,0.0,240.0,2.0,0.0
1657,81.0,0.0,180.0,2.0,0.0
1658,64.0,10.0,180.0,4.0,0.0
1659,67.0,0.0,240.0,4.0,0.0
1660,88.0,25.0,180.0,0.0,0.0
1661,78.0,0.0,30.0,2.0,0.0
1662,52.0,0.0,60.0,6.0,0.0
1663,66.0,8.0,30.0,3.0,0.0
1664,52.0,0.0,60.0,4.0,0.0
1665,64.0,0.0,60.0,4.0,0.0
1666,90.0,3.0,30.0,0.0,0.0
1667,79.0,0.0,60.0,0.0,0.0
1668,64.0,0.0,30.0,3.0,0.0
1669,88.0,0.0,30.0,0.0,0.0
1670,58.0,0.0,15.0,7.0,0.0
1671,76.0,0.0,30.0,2.0,0.0
1672,64.0,0.0,15.0,7.0,0.0
1673,46.0,0.0,15.0,7.0,0.0
1674,67.0,2.0,15.0,7.0,0.0
1675,73.0,0.0,15.0,7.0,0.0
1676,67.0,0.0,15.0,7.0,0.0
1677,64.0,10.0,15.0,7.0,0.0
1678,46.0,0.0,15.0,7.0,0.0
1679,58.0,0.0,15.0,7.0,0.0
1680,73.0,0.0,15.0,7.0,0.0
1681,58.0,2.0,15.0,7.0,0.0
1682,64.0,0.0,15.0,7.0,0.0
1683,46.0,0.0,15.0,7.0,0.0
1684,73.0,0.0,15.0,7.0,0.0
1685,67.0,0.0,15.0,7.0,0.0
1686,47.0,0.0,60.0,7.0,0.0
1687,64.0,0.0,60.0,7.0,0.0
1688,59.0,10.0,120.0,3.0,0.0
1689,64.0,0.0,120.0,3.0,0.0
1690,47.0,0.0,60.0,6.0,0.0
1691,79.0,38.0,60.0,1.0,0.0
1692,76.0,50.0,120.0,1.0,0.0
1693,52.0,0.0,120.0,4.0,0.0
1694,67.0,0.0,60.0,4.0,0.0
1695,71.0,0.0,60.0,7.0,0.0
1696,67.0,0.0,60.0,7.0,0.0
1697,88.0,0.0,120.0,0.0,0.0
1698,79.0,0.0,120.0,0.0,0.0
1699,64.0,0.0,120.0,4.0,0.0
1700,67.0,0.0,120.0,2.0,0.0
1701,76.0,0.0,120.0,2.0,0.0
1702,59.0,0.0,60.0,7.0,0.0
1703,83.0,0.0,120.0,1.0,0.0
1704,71.0,38.0,120.0,4.0,0.0
1705,47.0,0.0,15.0,7.0,0.0
1706,67.0,10.0,15.0,7.0,0.0
1707,71.0,0.0,15.0,7.0,0.0
1708,59.0,0.0,15.0,7.0,0.0
1709,64.0,0.0,15.0,7.0,0.0
1710,59.0,10.0,15.0,7.0,0.0
1711,47.0,0.0,15.0,7.0,0.0
1712,64.0,0.0,15.0,7.0,0.0
1713,67.0,0.0,15.0,7.0,0.0
1714,71.0,0.0,15.0,7.0,0.0
1715,71.0,0.0,15.0,7.0,0.0
1716,67.0,0.0,15.0,7.0,0.0
1717,64.0,2.0,15.0,7.0,0.0
1718,47.0,0.0,15.0,7.0,0.0
1719,59.0,0.0,15.0,7.0,0.0
1720,47.0,0.0,60.0,7.0,0.0
1721,66.0,0.0,60.0,7.0,0.0
1722,66.0,0.0,120.0,4.0,0.0
1723,59.0,0.0,120.0,3.0,0.0
1724,63.0,0.0,120.0,3.0,0.0
1725,47.0,0.0,60.0,6.0,0.0
1726,78.0,0.0,120.0,1.0,0.0
1727,59.0,0.0,120.0,4.0,0.0
1728,87.0,0.0,120.0,0.0,0.0
1729,75.0,0.0,120.0,2.0,0.0
1730,69.0,0.0,120.0,2.0,0.0
1731,69.0,0.0,60.0,7.0,0.0
1732,71.0,0.0,60.0,7.0,0.0
1733,35.0,0.0,60.0,7.0,0.0
1734,81.0,60.0,120.0,0.0,0.0
1735,83.0,0.0,60.0,1.0,0.0
1736,71.0,0.0,60.0,4.0,0.0
1737,47.0,0.0,15.0,7.0,0.0
1738,66.0,10.0,15.0,7.0,0.0
1739,35.0,0.0,15.0,7.0,0.0
1740,71.0,0.0,15.0,7.0,0.0
1741,69.0,0.0,15.0,7.0,0.0
1742,66.0,0.0,15.0,7.0,0.0
1743,35.0,0.0,15.0,7.0,0.0
1744,71.0,0.0,15.0,7.0,0.0
1745,69.0,0.0,15.0,7.0,0.0
1746,47.0,10.0,15.0,7.0,0.0
1747,71.0,0.0,15.0,7.0,0.0
1748,66.0,0.0,15.0,7.0,0.0
1749,69.0,0.0,15.0,7.0,0.0
1750,47.0,2.0,15.0,7.0,0.0
1751,35.0,0.0,15.0,7.0,0.0
1752,76.0,0.0,60.0,2.0,0.0
1753,71.0,0.0,60.0,7.0,0.0
1754,67.0,0.0,60.0,7.0,0.0
1755,52.0,0.0,60.0,7.0,0.0
1756,67.0,0.0,60.0,2.0,0.0
1757,83.0,0.0,60.0,1.0,0.0
1758,71.0,0.0,60.0,4.0,0.0
1759,79.0,0.0,60.0,1.0,0.0
1760,79.0,130.0,60.0,0.0,0.0
1761,88.0,0.0,60.0,0.0,0.0
1762,52.0,0.0,60.0,4.0,0.0
1763,40.0,0.0,60.0,7.0,0.0
1764,64.0,0.0,60.0,4.0,0.0
1765,64.0,0.0,60.0,7.0,0.0
1766,64.0,0.0,60.0,3.0,0.0
1767,52.0,0.0,60.0,3.0,0.0
1768,52.0,0.0,60.0,6.0,0.0
1769,82.0,45.0,120.0,7.0,0.0
1770,70.0,0.0,120.0,7.0,0.0
1771,71.0,5.0,60.0,7.0,0.0
1772,83.0,60.0,60.0,7.0,0.0
1773,64.0,0.0,120.0,3.0,0.0
1774,52.0,0.0,120.0,4.0,0.0
1775,64.0,0.0,120.0,4.0,0.0
1776,67.0,0.0,60.0,4.0,0.0
1777,67.0,0.0,120.0,3.0,0.0
1778,79.0,0.0,120.0,2.0,0.0
1779,88.0,0.0,120.0,0.0,0.0
1780,91.0,0.0,120.0,0.0,0.0
1781,64.0,0.0,60.0,7.0,0.0
1782,47.0,38.0,60.0,7.0,0.0
1783,71.0,0.0,120.0,2.0,0.0
1784,59.0,0.0,60.0,7.0,0.0
1785,67.0,0.0,60.0,7.0,0.0
1786,79.0,0.0,60.0,1.0,0.0
1787,71.0,0.0,60.0,7.0,0.0
1788,47.0,0.0,60.0,6.0,0.0
1789,76.0,50.0,120.0,1.0,0.0
1790,83.0,0.0,120.0,1.0,0.0
1791,71.0,0.0,120.0,4.0,0.0
1792,67.0,10.0,15.0,7.0,0.0
1793,64.0,0.0,15.0,7.0,0.0
1794,47.0,0.0,15.0,7.0,0.0
1795,71.0,0.0,15.0,7.0,0.0
1796,59.0,0.0,15.0,7.0,0.0
1797,71.0,0.0,15.0,7.0,0.0
1798,59.0,10.0,15.0,7.0,0.0
1799,64.0,0.0,15.0,7.0,0.0
1800,67.0,0.0,15.0,7.0,0.0
1801,47.0,0.0,15.0,7.0,0.0
1802,71.0,0.0,15.0,7.0,0.0
1803,47.0,0.0,15.0,7.0,0.0
1804,67.0,0.0,15.0,7.0,0.0
1805,59.0,0.0,15.0,7.0,0.0
1806,64.0,12.0,15.0,7.0,0.0
1807,75.0,0.0,120.0,1.0,0.0
1808,59.0,60.0,120.0,4.0,0.0
1809,90.0,0.0,120.0,0.0,0.0
1810,63.0,0.0,60.0,7.0,0.0
1811,35.0,0.0,60.0,7.0,0.0
1812,71.0,38.0,60.0,7.0,0.0
1813,63.0,0.0,120.0,3.0,0.0
1814,66.0,1.0,120.0,3.0,0.0
1815,69.0,0.0,60.0,7.0,0.0
1816,87.0,0.0,120.0,0.0,0.0
1817,66.0,0.0,120.0,4.0,0.0
1818,78.0,0.0,120.0,2.0,0.0
1819,69.0,0.0,120.0,2.0,0.0
1820,47.0,0.0,60.0,6.0,0.0
1821,47.0,0.0,60.0,7.0,0.0
1822,83.0,0.0,60.0,1.0,0.0
1823,71.0,0.0,60.0,4.0,0.0
1824,47.0,0.0,15.0,7.0,0.0
1825,59.0,9.0,15.0,7.0,0.0
1826,69.0,0.0,15.0,7.0,0.0
1827,71.0,0.0,15.0,7.0,0.0
1828,35.0,0.0,15.0,7.0,0.0
1829,35.0,10.0,15.0,7.0,0.0
1830,69.0,0.0,15.0,7.0,0.0
1831,71.0,0.0,15.0,7.0,0.0
1832,47.0,0.0,15.0,7.0,0.0
1833,59.0,0.0,15.0,7.0,0.0
1834,67.0,0.0,15.0,2.0,0.0
1835,76.0,0.0,15.0,2.0,0.0
1836,64.0,0.0,15.0,3.0,0.0
1837,88.0,0.0,15.0,0.0,0.0
1838,76.0,0.0,15.0,1.0,0.0
1839,69.0,0.0,15.0,7.0,0.0
1840,47.0,0.0,15.0,7.0,0.0
1841,35.0,0.0,15.0,7.0,0.0
1842,59.0,2.0,15.0,7.0,0.0
1843,71.0,0.0,15.0,7.0,0.0
1844,52.0,0.0,60.0,7.0,0.0
1845,67.0,0.0,60.0,7.0,0.0
1846,71.0,0.0,60.0,7.0,0.0
1847,64.0,0.0,60.0,4.0,0.0
1848,52.0,0.0,60.0,4.0,0.0
1849,88.0,0.0,60.0,0.0,0.0
1850,76.0,0.0,60.0,1.0,0.0
1851,64.0,0.0,60.0,3.0,0.0
1852,83.0,70.0,60.0,1.0,0.0
1853,76.0,0.0,60.0,2.0,0.0
1854,71.0,0.0,60.0,4.0,0.0
1855,40.0,0.0,60.0,7.0,0.0
1856,64.0,0.0,60.0,7.0,0.0
1857,52.0,0.0,60.0,6.0,0.0
1858,67.0,0.0,60.0,2.0,0.0
1859,60.0,0.0,60.0,7.0,0.0
1860,48.0,0.0,60.0,7.0,0.0
1861,84.0,0.0,60.0,7.0,0.0
1862,72.0,0.0,60.0,7.0,0.0
1863,47.0,0.0,60.0,7.0,0.0
1864,59.0,0.0,60.0,7.0,0.0
1865,71.0,0.0,60.0,7.0,0.0
1866,83.0,0.0,60.0,7.0,0.0
1867,55.0,0.0,60.0,7.0,0.0
1868,79.0,0.0,60.0,7.0,0.0
1869,67.0,0.0,60.0,2.0,0.0
1870,43.0,0.0,60.0,7.0,0.0
1871,79.0,50.0,60.0,2.0,0.0
1872,67.0,0.0,60.0,3.0,0.0
1873,55.0,0.0,60.0,3.0,0.0
1874,79.0,0.0,60.0,0.0,0.0
1875,91.0,0.0,60.0,0.0,0.0
1876,67.0,0.0,60.0,7.0,0.0
1877,88.0,0.0,60.0,0.0,0.0
1878,76.0,0.0,60.0,0.0,0.0
1879,64.0,0.0,60.0,3.0,0.0
1880,52.0,0.0,60.0,7.0,0.0
1881,52.0,0.0,60.0,3.0,0.0
1882,40.0,0.0,60.0,7.0,0.0
1883,76.0,45.0,60.0,7.0,0.0
1884,64.0,0.0,60.0,2.0,0.0
1885,76.0,0.0,60.0,2.0,0.0
1886,64.0,0.0,60.0,7.0,0.0
1887,48.0,13.0,60.0,3.0,0.0
1888,72.0,0.0,30.0,7.0,0.0
1889,48.0,0.0,30.0,7.0,0.0
1890,72.0,2.0,30.0,2.0,0.0
1891,60.0,0.0,60.0,3.0,0.0
1892,36.0,0.0,30.0,7.0,0.0
1893,60.0,0.0,30.0,7.0,0.0
1894,84.0,0.0,30.0,0.0,0.0
1895,69.0,30.0,15.0,7.0,0.0
1896,69.0,0.0,15.0,2.0,0.0
1897,57.0,0.0,15.0,7.0,0.0
1898,81.0,0.0,15.0,0.0,0.0
1899,45.0,0.0,15.0,7.0,0.0
1900,57.0,0.0,15.0,3.0,0.0
1901,54.0,0.0,30.0,7.0,0.0
1902,66.0,0.0,30.0,2.0,0.0
1903,54.0,0.0,30.0,3.0,0.0
1904,78.0,0.0,30.0,0.0,0.0
1905,42.0,60.0,30.0,7.0,0.0
1906,66.0,0.0,30.0,7.0,0.0
1907,59.0,0.0,30.0,3.0,0.0
1908,83.0,0.0,30.0,0.0,0.0
1909,47.0,0.0,30.0,7.0,0.0
1910,47.0,30.0,60.0,6.0,0.0
1911,71.0,0.0,30.0,7.0,0.0
1912,71.0,30.0,30.0,2.0,0.0
1913,71.0,0.0,30.0,4.0,0.0
1914,59.0,0.0,30.0,7.0,0.0
1915,59.0,0.0,30.0,4.0,0.0
1916,52.0,90.0,60.0,6.0,0.0
1917,64.0,0.0,30.0,4.0,0.0
1918,40.0,0.0,30.0,7.0,0.0
1919,76.0,30.0,30.0,0.0,0.0
1920,52.0,0.0,30.0,7.0,0.0
1921,64.0,0.0,30.0,2.0,0.0
1922,52.0,0.0,30.0,3.0,0.0
1923,52.0,0.0,30.0,4.0,0.0
1924,67.0,0.0,30.0,4.0,0.0
1925,64.0,0.0,30.0,7.0,0.0
1926,52.0,90.0,60.0,6.0,0.0
1927,52.0,0.0,30.0,3.0,0.0
1928,64.0,0.0,30.0,4.0,0.0
1929,52.0,0.0,30.0,4.0,0.0
1930,52.0,0.0,30.0,7.0,0.0
1931,72.0,30.0,30.0,2.0,0.0
1932,69.0,0.0,30.0,2.0,0.0
1933,59.0,0.0,30.0,7.0,0.0
1934,76.0,0.0,30.0,0.0,0.0
1935,79.0,0.0,30.0,0.0,0.0
1936,40.0,0.0,30.0,7.0,0.0
1937,64.0,0.0,30.0,7.0,0.0
1938,67.0,0.0,30.0,7.0,0.0
1939,59.0,0.0,30.0,7.0,0.0
1940,52.0,0.0,30.0,3.0,0.0
1941,52.0,0.0,30.0,4.0,0.0
1942,64.0,0.0,30.0,4.0,0.0
1943,52.0,30.0,60.0,6.0,0.0
1944,40.0,0.0,30.0,7.0,0.0
1945,72.0,30.0,30.0,2.0,0.0
1946,52.0,0.0,30.0,7.0,0.0
1947,69.0,0.0,30.0,2.0,0.0
1948,55.0,0.0,30.0,7.0,0.0
1949,76.0,0.0,30.0,0.0,0.0
1950,64.0,0.0,30.0,7.0,0.0
1951,47.0,60.0,30.0,7.0,0.0
1952,35.0,0.0,30.0,7.0,0.0
1953,37.0,60.0,30.0,7.0,0.0
1954,49.0,0.0,30.0,7.0,0.0
1955,51.0,53.0,30.0,7.0,0.0
1956,39.0,0.0,30.0,7.0,0.0
1957,64.0,23.0,480.0,4.0,0.0
1958,76.0,13.0,120.0,1.0,0.0
1959,59.0,0.0,20.0,7.0,0.0
1960,71.0,17.0,20.0,7.0,0.0
1961,40.0,0.0,300.0,7.0,0.0
1962,52.0,28.0,300.0,7.0,0.0
1963,76.0,10.0,20.0,7.0,0.0
1964,64.0,0.0,20.0,7.0,0.0
1965,80.0,33.0,15.0,7.0,0.0
1966,68.0,0.0,15.0,7.0,0.0
1967,59.0,7.0,20.0,7.0,0.0
1968,71.0,0.0,20.0,7.0,0.0
1969,64.0,0.0,20.0,7.0,0.0
1970,76.0,10.0,20.0,7.0,0.0
1971,68.0,0.0,15.0,7.0,0.0
1972,80.0,20.0,15.0,7.0,0.0
1973,71.0,0.0,20.0,7.0,0.0
1974,59.0,7.0,20.0,7.0,0.0
1975,61.0,10.0,30.0,7.0,0.0
1976,80.0,23.0,120.0,1.0,0.0
1977,76.0,10.0,20.0,7.0,0.0
1978,64.0,0.0,20.0,7.0,0.0
1979,80.0,33.0,15.0,7.0,0.0
1980,68.0,0.0,15.0,7.0,0.0
1981,59.0,0.0,20.0,7.0,0.0
1982,63.0,10.0,30.0,7.0,0.0
1983,71.0,7.0,20.0,7.0,0.0
1984,76.0,0.0,20.0,7.0,0.0
1985,64.0,10.0,20.0,7.0,0.0
1986,80.0,0.0,15.0,7.0,0.0
1987,68.0,10.0,15.0,7.0,0.0
1988,59.0,17.0,20.0,7.0,0.0
1989,83.0,1.0,150.0,1.0,0.0
1990,71.0,0.0,20.0,7.0,0.0
1991,76.0,0.0,20.0,7.0,0.0
1992,64.0,10.0,20.0,7.0,0.0
1993,80.0,5.0,15.0,7.0,0.0
1994,68.0,0.0,15.0,7.0,0.0
1995,71.0,7.0,20.0,7.0,0.0
1996,40.0,10.0,30.0,7.0,0.0
1997,59.0,0.0,20.0,7.0,0.0
1998,52.0,0.0,30.0,7.0,0.0
1999,76.0,0.0,20.0,7.0,0.0
2000,64.0,10.0,20.0,7.0,0.0
2001,80.0,32.0,15.0,7.0,0.0
2002,68.0,0.0,15.0,7.0,0.0
2003,54.0,0.0,30.0,7.0,0.0
2004,71.0,7.0,20.0,7.0,0.0
2005,42.0,0.0,30.0,7.0,0.0
2006,59.0,0.0,20.0,7.0,0.0
2007,64.0,0.0,20.0,7.0,0.0
2008,81.0,10.0,15.0,1.0,0.0
2009,76.0,10.0,20.0,7.0,0.0
2010,68.0,0.0,15.0,7.0,0.0
2011,80.0,0.0,15.0,7.0,0.0
2012,80.0,20.0,15.0,1.0,0.0
2013,71.0,7.0,20.0,7.0,0.0
2014,44.0,10.0,30.0,7.0,0.0
2015,56.0,0.0,30.0,7.0,0.0
2016,59.0,0.0,20.0,7.0,0.0
2017,78.0,13.0,15.0,1.0,0.0
2018,76.0,10.0,20.0,7.0,0.0
2019,64.0,0.0,20.0,7.0,0.0
2020,76.0,0.0,15.0,1.0,0.0
2021,68.0,0.0,15.0,7.0,0.0
2022,80.0,10.0,15.0,7.0,0.0
2023,75.0,0.0,15.0,1.0,0.0
2024,61.0,0.0,20.0,7.0,0.0
2025,85.0,13.0,120.0,0.0,0.0
2026,73.0,17.0,20.0,7.0,0.0
2027,57.0,23.0,300.0,7.0,0.0
2028,45.0,5.0,300.0,7.0,0.0
2029,75.0,0.0,30.0,1.0,0.0
2030,66.0,23.0,480.0,4.0,0.0
2031,64.0,0.0,480.0,4.0,0.0
2032,76.0,0.0,20.0,7.0,0.0
2033,64.0,10.0,20.0,7.0,0.0
2034,73.0,10.0,90.0,1.0,0.0
2035,78.0,5.0,15.0,7.0,0.0
2036,66.0,0.0,15.0,7.0,0.0
2037,61.0,0.0,20.0,7.0,0.0
2038,73.0,7.0,20.0,7.0,0.0
2039,64.0,10.0,15.0,7.0,0.0
2040,76.0,10.0,20.0,7.0,0.0
2041,66.0,0.0,15.0,7.0,0.0
2042,78.0,10.0,15.0,7.0,0.0
2043,66.0,10.0,30.0,7.0,0.0
2044,73.0,0.0,20.0,7.0,0.0
2045,90.0,13.0,120.0,0.0,0.0
2046,61.0,7.0,20.0,7.0,0.0
2047,76.0,0.0,20.0,7.0,0.0
2048,64.0,10.0,20.0,7.0,0.0
2049,78.0,0.0,15.0,7.0,0.0
2050,66.0,33.0,15.0,7.0,0.0
2051,68.0,10.0,30.0,7.0,0.0
2052,73.0,0.0,20.0,7.0,0.0
2053,61.0,7.0,20.0,7.0,0.0
2054,76.0,0.0,20.0,7.0,0.0
2055,64.0,10.0,20.0,7.0,0.0
2056,66.0,20.0,15.0,7.0,0.0
2057,78.0,0.0,15.0,7.0,0.0
2058,73.0,17.0,20.0,7.0,0.0
2059,61.0,0.0,20.0,7.0,0.0
2060,69.0,28.0,300.0,7.0,0.0
2061,93.0,1.0,150.0,0.0,0.0
2062,76.0,0.0,20.0,7.0,0.0
2063,64.0,10.0,20.0,7.0,0.0
2064,78.0,5.0,15.0,7.0,0.0
2065,66.0,0.0,15.0,7.0,0.0
2066,73.0,0.0,20.0,7.0,0.0
2067,61.0,7.0,20.0,7.0,0.0
2068,42.0,10.0,30.0,7.0,0.0
2069,54.0,0.0,30.0,7.0,0.0
2070,64.0,0.0,20.0,7.0,0.0
2071,76.0,10.0,20.0,7.0,0.0
2072,78.0,32.0,15.0,7.0,0.0
2073,66.0,0.0,15.0,7.0,0.0
2074,73.0,7.0,20.0,7.0,0.0
2075,61.0,0.0,20.0,7.0,0.0
2076,56.0,10.0,30.0,7.0,0.0
2077,44.0,0.0,30.0,7.0,0.0
2078,76.0,0.0,20.0,7.0,0.0
2079,64.0,10.0,20.0,7.0,0.0
2080,92.0,0.0,15.0,0.0,0.0
2081,78.0,0.0,15.0,7.0,0.0
2082,66.0,20.0,15.0,7.0,0.0
2083,90.0,0.0,15.0,0.0,0.0
2084,57.0,0.0,30.0,7.0,0.0
2085,73.0,0.0,20.0,7.0,0.0
2086,61.0,7.0,20.0,7.0,0.0
2087,45.0,10.0,30.0,7.0,0.0
2088,88.0,13.0,15.0,0.0,0.0
2089,87.0,0.0,15.0,0.0,0.0
2090,64.0,10.0,20.0,7.0,0.0
2091,76.0,0.0,20.0,7.0,0.0
2092,78.0,10.0,15.0,7.0,0.0
2093,66.0,0.0,15.0,7.0,0.0
2094,85.0,0.0,15.0,0.0,0.0
2095,47.0,23.0,240.0,7.0,0.0
2096,63.0,13.0,120.0,3.0,0.0
2097,59.0,0.0,240.0,7.0,0.0
2098,85.0,0.0,30.0,0.0,0.0
2099,61.0,0.0,20.0,7.0,0.0
2100,59.0,0.0,240.0,4.0,0.0
2101,66.0,0.0,240.0,4.0,0.0
2102,73.0,17.0,20.0,7.0,0.0
2103,76.0,10.0,20.0,7.0,0.0
2104,64.0,0.0,20.0,7.0,0.0
2105,83.0,10.0,90.0,0.0,0.0
2106,66.0,5.0,15.0,7.0,0.0
2107,78.0,0.0,15.0,7.0,0.0
2108,69.0,10.0,30.0,7.0,0.0
2109,61.0,0.0,20.0,7.0,0.0
2110,73.0,0.0,20.0,7.0,0.0
2111,76.0,0.0,20.0,7.0,0.0
2112,64.0,10.0,20.0,7.0,0.0
2113,66.0,0.0,15.0,7.0,0.0
2114,78.0,10.0,15.0,7.0,0.0
2115,61.0,0.0,20.0,7.0,0.0
2116,73.0,0.0,20.0,7.0,0.0
2117,66.0,10.0,30.0,7.0,0.0
2118,66.0,0.0,120.0,3.0,0.0
2119,76.0,10.0,20.0,7.0,0.0
2120,64.0,0.0,20.0,7.0,0.0
2121,66.0,0.0,15.0,7.0,0.0
2122,78.0,33.0,15.0,7.0,0.0
2123,63.0,10.0,30.0,7.0,0.0
2124,61.0,0.0,20.0,7.0,0.0
2125,73.0,0.0,20.0,7.0,0.0
2126,76.0,10.0,20.0,7.0,0.0
2127,64.0,0.0,20.0,7.0,0.0
2128,78.0,10.0,15.0,7.0,0.0
2129,66.0,0.0,15.0,7.0,0.0
2130,48.0,10.0,30.0,7.0,0.0
2131,66.0,23.0,60.0,4.0,0.0
2132,60.0,0.0,30.0,7.0,0.0
2133,63.0,0.0,20.0,7.0,0.0
2134,75.0,7.0,20.0,7.0,0.0
2135,69.0,13.0,180.0,3.0,0.0
2136,78.0,0.0,20.0,7.0,0.0
2137,66.0,10.0,20.0,7.0,0.0
2138,69.0,10.0,15.0,7.0,0.0
2139,81.0,0.0,15.0,7.0,0.0
2140,54.0,10.0,30.0,7.0,0.0
2141,72.0,0.0,30.0,7.0,0.0
2142,63.0,0.0,20.0,7.0,0.0
2143,75.0,7.0,20.0,7.0,0.0
2144,81.0,0.0,120.0,1.0,0.0
2145,66.0,0.0,15.0,7.0,0.0
2146,78.0,0.0,20.0,7.0,0.0
2147,69.0,0.0,15.0,7.0,0.0
2148,81.0,33.0,15.0,7.0,0.0
2149,51.0,10.0,30.0,7.0,0.0
2150,75.0,7.0,20.0,7.0,0.0
2151,63.0,0.0,20.0,7.0,0.0
2152,78.0,10.0,20.0,7.0,0.0
2153,66.0,0.0,20.0,7.0,0.0
2154,81.0,0.0,15.0,7.0,0.0
2155,69.0,20.0,15.0,7.0,0.0
2156,68.0,0.0,30.0,7.0,0.0
2157,48.0,10.0,30.0,7.0,0.0
2158,68.0,10.0,30.0,3.0,0.0
2159,56.0,0.0,120.0,4.0,0.0
2160,63.0,0.0,20.0,7.0,0.0
2161,75.0,7.0,20.0,7.0,0.0
2162,68.0,10.0,120.0,4.0,0.0
2163,60.0,0.0,30.0,7.0,0.0
2164,80.0,0.0,30.0,1.0,0.0
2165,78.0,0.0,20.0,7.0,0.0
2166,66.0,0.0,20.0,7.0,0.0
2167,66.0,23.0,30.0,3.0,0.0
2168,78.0,0.0,30.0,1.0,0.0
2169,69.0,10.0,15.0,7.0,0.0
2170,81.0,0.0,15.0,7.0,0.0
2171,78.0,0.0,30.0,1.0,0.0
2172,73.0,0.0,20.0,7.0,0.0
2173,49.0,10.0,30.0,7.0,0.0
2174,61.0,7.0,20.0,7.0,0.0
2175,66.0,10.0,30.0,3.0,0.0
2176,76.0,0.0,20.0,7.0,0.0
2177,64.0,0.0,20.0,7.0,0.0
2178,76.0,13.0,30.0,1.0,0.0
2179,64.0,0.0,30.0,3.0,0.0
2180,68.0,10.0,15.0,7.0,0.0
2181,80.0,0.0,15.0,7.0,0.0
2182,63.0,0.0,30.0,3.0,0.0
2183,56.0,7.0,20.0,7.0,0.0
2184,75.0,0.0,30.0,1.0,0.0
2185,52.0,10.0,30.0,7.0,0.0
2186,40.0,0.0,30.0,7.0,0.0
2187,68.0,0.0,20.0,7.0,0.0
2188,73.0,0.0,20.0,7.0,0.0
2189,61.0,0.0,15.0,7.0,0.0
2190,64.0,0.0,20.0,7.0,0.0
2191,73.0,0.0,30.0,1.0,0.0
2192,61.0,20.0,30.0,3.0,0.0
2193,64.0,0.0,15.0,7.0,0.0
2194,76.0,10.0,15.0,7.0,0.0
2195,68.0,0.0,15.0,7.0,0.0
2196,66.0,3.0,20.0,7.0,0.0
2197,63.0,7.0,20.0,7.0,0.0
2198,42.0,0.0,30.0,7.0,0.0
2199,71.0,0.0,30.0,1.0,0.0
2200,54.0,0.0,20.0,7.0,0.0
2201,59.0,0.0,30.0,3.0,0.0
2202,59.0,0.0,20.0,7.0,0.0
2203,66.0,10.0,20.0,7.0,0.0
2204,71.0,0.0,20.0,7.0,0.0
2205,87.0,0.0,30.0,0.0,0.0
2206,59.0,0.0,30.0,3.0,0.0
2207,78.0,13.0,30.0,1.0,0.0
2208,75.0,0.0,15.0,7.0,0.0
2209,63.0,20.0,15.0,7.0,0.0
2210,66.0,0.0,15.0,7.0,0.0
2211,42.0,10.0,30.0,7.0,0.0
2212,88.0,0.0,30.0,0.0,0.0
2213,66.0,0.0,60.0,4.0,0.0
2214,61.0,0.0,30.0,3.0,0.0
2215,54.0,7.0,20.0,7.0,0.0
2216,75.0,0.0,30.0,1.0,0.0
2217,64.0,0.0,20.0,7.0,0.0
2218,70.0,0.0,20.0,7.0,0.0
2219,66.0,10.0,20.0,7.0,0.0
2220,61.0,0.0,20.0,7.0,0.0
2221,71.0,0.0,30.0,1.0,0.0
2222,82.0,0.0,30.0,0.0,0.0
2223,64.0,8.0,30.0,3.0,0.0
2224,73.0,0.0,15.0,7.0,0.0
2225,64.0,0.0,15.0,7.0,0.0
2226,66.0,10.0,15.0,7.0,0.0
2227,59.0,0.0,180.0,5.0,0.0
2228,47.0,8.0,15.0,6.0,0.0
2229,75.0,30.0,180.0,1.0,0.0
2230,71.0,0.0,180.0,1.0,0.0
2231,47.0,0.0,15.0,7.0,0.0
2232,35.0,2.0,15.0,7.0,0.0
2233,71.0,0.0,180.0,4.0,0.0
2234,66.0,0.0,180.0,4.0,0.0
2235,63.0,0.0,15.0,7.0,0.0
2236,59.0,0.0,180.0,4.0,0.0
2237,59.0,0.0,15.0,7.0,0.0
2238,63.0,0.0,180.0,3.0,0.0
2239,59.0,0.0,180.0,3.0,0.0
2240,83.0,0.0,180.0,0.0,0.0
2241,71.0,0.0,180.0,5.0,0.0
2242,71.0,0.0,15.0,7.0,0.0
2243,47.0,8.0,15.0,6.0,0.0
2244,83.0,0.0,15.0,7.0,0.0
2245,75.0,0.0,15.0,7.0,0.0
2246,66.0,2.0,15.0,7.0,0.0
2247,47.0,0.0,15.0,7.0,0.0
2248,35.0,0.0,15.0,7.0,0.0
2249,83.0,0.0,15.0,7.0,0.0
2250,75.0,2.0,15.0,7.0,0.0
2251,47.0,8.0,15.0,6.0,0.0
2252,66.0,0.0,15.0,7.0,0.0
2253,47.0,0.0,15.0,7.0,0.0
2254,35.0,0.0,15.0,7.0,0.0
2255,47.0,0.0,15.0,7.0,0.0
2256,47.0,8.0,15.0,6.0,0.0
2257,66.0,2.0,15.0,7.0,0.0
2258,35.0,0.0,15.0,7.0,0.0
2259,75.0,0.0,15.0,7.0,0.0
2260,83.0,0.0,15.0,7.0,0.0
2261,83.0,2.0,15.0,7.0,0.0
2262,75.0,0.0,15.0,7.0,0.0
2263,66.0,0.0,15.0,7.0,0.0
2264,47.0,8.0,15.0,6.0,0.0
2265,47.0,0.0,15.0,7.0,0.0
2266,35.0,0.0,15.0,7.0,0.0
2267,83.0,0.0,15.0,7.0,0.0
2268,75.0,0.0,15.0,7.0,0.0
2269,66.0,0.0,15.0,7.0,0.0
2270,47.0,2.0,15.0,7.0,0.0
2271,47.0,8.0,15.0,6.0,0.0
2272,35.0,0.0,15.0,7.0,0.0
2273,47.0,0.0,15.0,7.0,0.0
2274,75.0,0.0,15.0,7.0,0.0
2275,66.0,0.0,15.0,7.0,0.0
2276,47.0,8.0,15.0,6.0,0.0
2277,83.0,0.0,15.0,7.0,0.0
2278,35.0,2.0,15.0,7.0,0.0
2279,47.0,8.0,15.0,6.0,0.0
2280,83.0,0.0,15.0,7.0,0.0
2281,75.0,0.0,15.0,7.0,0.0
2282,66.0,0.0,15.0,7.0,0.0
2283,35.0,0.0,15.0,7.0,0.0
2284,47.0,2.0,15.0,7.0,0.0
2285,66.0,0.0,15.0,7.0,0.0
2286,35.0,0.0,15.0,7.0,0.0
2287,47.0,8.0,15.0,6.0,0.0
2288,75.0,0.0,15.0,7.0,0.0
2289,47.0,0.0,15.0,7.0,0.0
2290,83.0,2.0,15.0,7.0,0.0
2291,83.0,2.0,15.0,7.0,0.0
2292,75.0,0.0,15.0,7.0,0.0
2293,66.0,0.0,15.0,7.0,0.0
2294,35.0,0.0,15.0,7.0,0.0
2295,47.0,8.0,15.0,6.0,0.0
2296,47.0,0.0,15.0,7.0,0.0
2297,75.0,0.0,15.0,7.0,0.0
2298,47.0,0.0,15.0,7.0,0.0
2299,35.0,0.0,15.0,7.0,0.0
2300,83.0,0.0,15.0,7.0,0.0
2301,47.0,8.0,15.0,6.0,0.0
2302,66.0,2.0,15.0,7.0,0.0
2303,83.0,0.0,15.0,7.0,0.0
2304,75.0,0.0,15.0,7.0,0.0
2305,35.0,0.0,15.0,7.0,0.0
2306,47.0,0.0,15.0,7.0,0.0
2307,66.0,2.0,15.0,7.0,0.0
2308,47.0,30.0,15.0,6.0,0.0
2309,47.0,0.0,60.0,6.0,0.0
2310,83.0,30.0,30.0,7.0,0.0
2311,35.0,0.0,30.0,7.0,0.0
2312,47.0,0.0,30.0,7.0,0.0
2313,75.0,0.0,30.0,7.0,0.0
2314,66.0,0.0,30.0,7.0,0.0
2315,90.0,0.0,30.0,0.0,0.0
2316,87.0,0.0,30.0,0.0,0.0
2317,59.0,0.0,30.0,5.0,0.0
2318,71.0,0.0,30.0,4.0,0.0
2319,78.0,0.0,30.0,1.0,0.0
2320,66.0,0.0,30.0,4.0,0.0
2321,59.0,0.0,30.0,4.0,0.0
2322,63.0,0.0,30.0,3.0,0.0
2323,66.0,0.0,30.0,3.0,0.0
2324,87.0,0.0,30.0,1.0,0.0
2325,71.0,38.0,30.0,5.0,0.0
2326,47.0,8.0,15.0,6.0,0.0
2327,66.0,0.0,180.0,4.0,0.0
2328,59.0,0.0,180.0,4.0,0.0
2329,71.0,0.0,180.0,4.0,0.0
2330,83.0,0.0,180.0,0.0,0.0
2331,59.0,0.0,180.0,5.0,0.0
2332,71.0,0.0,180.0,5.0,0.0
2333,35.0,0.0,15.0,7.0,0.0
2334,75.0,0.0,180.0,1.0,0.0
2335,83.0,0.0,180.0,1.0,0.0
2336,95.0,0.0,180.0,0.0,0.0
2337,71.0,0.0,15.0,7.0,0.0
2338,63.0,0.0,15.0,7.0,0.0
2339,47.0,2.0,15.0,7.0,0.0
2340,59.0,0.0,15.0,7.0,0.0
2341,59.0,0.0,180.0,3.0,0.0
2342,63.0,0.0,180.0,3.0,0.0
2343,47.0,8.0,15.0,6.0,0.0
2344,75.0,0.0,15.0,7.0,0.0
2345,35.0,0.0,15.0,7.0,0.0
2346,83.0,0.0,15.0,7.0,0.0
2347,47.0,0.0,15.0,7.0,0.0
2348,59.0,2.0,15.0,7.0,0.0
2349,66.0,0.0,15.0,7.0,0.0
2350,83.0,0.0,15.0,7.0,0.0
2351,35.0,2.0,15.0,7.0,0.0
2352,75.0,0.0,15.0,7.0,0.0
2353,59.0,0.0,15.0,7.0,0.0
2354,47.0,0.0,15.0,7.0,0.0
2355,66.0,0.0,15.0,7.0,0.0
2356,47.0,8.0,15.0,6.0,0.0
2357,47.0,8.0,15.0,6.0,0.0
2358,66.0,0.0,15.0,7.0,0.0
2359,47.0,0.0,15.0,7.0,0.0
2360,35.0,0.0,15.0,7.0,0.0
2361,59.0,0.0,15.0,7.0,0.0
2362,75.0,0.0,15.0,7.0,0.0
2363,83.0,2.0,15.0,7.0,0.0
2364,66.0,0.0,15.0,7.0,0.0
2365,75.0,2.0,15.0,7.0,0.0
2366,83.0,0.0,15.0,7.0,0.0
2367,47.0,0.0,15.0,7.0,0.0
2368,59.0,0.0,15.0,7.0,0.0
2369,47.0,8.0,15.0,6.0,0.0
2370,35.0,0.0,15.0,7.0,0.0
2371,75.0,0.0,15.0,7.0,0.0
2372,83.0,0.0,15.0,7.0,0.0
2373,66.0,0.0,15.0,7.0,0.0
2374,47.0,8.0,15.0,6.0,0.0
2375,59.0,2.0,15.0,7.0,0.0
2376,35.0,0.0,15.0,7.0,0.0
2377,47.0,0.0,15.0,7.0,0.0
2378,35.0,0.0,15.0,7.0,0.0
2379,83.0,0.0,15.0,7.0,0.0
2380,66.0,0.0,15.0,7.0,0.0
2381,75.0,0.0,15.0,7.0,0.0
2382,47.0,8.0,15.0,6.0,0.0
2383,47.0,2.0,15.0,7.0,0.0
2384,59.0,0.0,15.0,7.0,0.0
2385,59.0,0.0,15.0,7.0,0.0
2386,47.0,0.0,15.0,7.0,0.0
2387,75.0,0.0,15.0,7.0,0.0
2388,66.0,2.0,15.0,7.0,0.0
2389,83.0,0.0,15.0,7.0,0.0
2390,47.0,8.0,15.0,6.0,0.0
2391,35.0,0.0,15.0,7.0,0.0
2392,75.0,0.0,15.0,7.0,0.0
2393,47.0,8.0,15.0,6.0,0.0
2394,83.0,0.0,15.0,7.0,0.0
2395,59.0,0.0,15.0,7.0,0.0
2396,35.0,2.0,15.0,7.0,0.0
2397,47.0,0.0,15.0,7.0,0.0
2398,66.0,0.0,15.0,7.0,0.0
2399,47.0,0.0,15.0,7.0,0.0
2400,66.0,0.0,15.0,7.0,0.0
2401,47.0,8.0,15.0,6.0,0.0
2402,83.0,0.0,15.0,7.0,0.0
2403,59.0,2.0,15.0,7.0,0.0
2404,35.0,0.0,15.0,7.0,0.0
2405,75.0,0.0,15.0,7.0,0.0
2406,59.0,0.0,15.0,7.0,0.0
2407,47.0,8.0,15.0,6.0,0.0
2408,75.0,0.0,15.0,7.0,0.0
2409,83.0,0.0,15.0,7.0,0.0
2410,66.0,0.0,15.0,7.0,0.0
2411,47.0,2.0,15.0,7.0,0.0
2412,35.0,0.0,15.0,7.0,0.0
2413,47.0,0.0,15.0,7.0,0.0
2414,47.0,8.0,15.0,6.0,0.0
2415,66.0,0.0,15.0,7.0,0.0
2416,75.0,0.0,15.0,7.0,0.0
2417,83.0,0.0,15.0,7.0,0.0
2418,59.0,0.0,15.0,7.0,0.0
2419,35.0,2.0,15.0,7.0,0.0
2420,59.0,0.0,30.0,7.0,0.0
2421,47.0,22.0,15.0,7.0,0.0
2422,35.0,0.0,30.0,7.0,0.0
2423,47.0,30.0,60.0,6.0,0.0
2424,66.0,30.0,30.0,7.0,0.0
2425,83.0,0.0,30.0,7.0,0.0
2426,75.0,0.0,30.0,7.0,0.0
2427,87.0,0.0,30.0,1.0,0.0
2428,78.0,0.0,30.0,1.0,0.0
2429,71.0,0.0,30.0,4.0,0.0
2430,59.0,0.0,30.0,4.0,0.0
2431,66.0,0.0,30.0,4.0,0.0
2432,66.0,0.0,30.0,3.0,0.0
2433,63.0,0.0,30.0,3.0,0.0
2434,59.0,0.0,30.0,5.0,0.0
2435,71.0,0.0,30.0,5.0,0.0
2436,90.0,40.0,30.0,0.0,0.0
2437,87.0,0.0,30.0,0.0,0.0
2438,71.0,10.0,30.0,7.0,0.0
2439,59.0,0.0,30.0,3.0,0.0
2440,63.0,0.0,30.0,3.0,0.0
2441,83.0,0.0,30.0,7.0,0.0
2442,75.0,0.0,30.0,7.0,0.0
2443,75.0,0.0,30.0,1.0,0.0
2444,83.0,0.0,30.0,1.0,0.0
2445,66.0,0.0,30.0,7.0,0.0
2446,83.0,0.0,30.0,0.0,0.0
2447,47.0,0.0,30.0,7.0,0.0
2448,59.0,0.0,30.0,5.0,0.0
2449,95.0,0.0,30.0,0.0,0.0
2450,47.0,10.0,15.0,6.0,0.0
2451,71.0,0.0,30.0,4.0,0.0
2452,66.0,0.0,30.0,4.0,0.0
2453,71.0,0.0,30.0,5.0,0.0
2454,59.0,0.0,30.0,7.0,0.0
2455,59.0,0.0,30.0,4.0,0.0
2456,35.0,0.0,30.0,7.0,0.0
2457,47.0,10.0,15.0,6.0,0.0
2458,47.0,0.0,15.0,6.0,0.0
2459,47.0,10.0,15.0,6.0,0.0
2460,47.0,10.0,15.0,6.0,0.0
2461,47.0,10.0,15.0,6.0,0.0
2462,63.0,0.0,30.0,7.0,0.0
2463,59.0,0.0,30.0,5.0,0.0
2464,90.0,0.0,30.0,0.0,0.0
2465,47.0,10.0,15.0,6.0,0.0
2466,71.0,0.0,30.0,5.0,0.0
2467,78.0,0.0,30.0,1.0,0.0
2468,63.0,0.0,30.0,3.0,0.0
2469,59.0,0.0,30.0,4.0,0.0
2470,66.0,0.0,30.0,4.0,0.0
2471,71.0,0.0,30.0,4.0,0.0
2472,87.0,0.0,30.0,1.0,0.0
2473,66.0,10.0,30.0,3.0,0.0
2474,87.0,0.0,30.0,0.0,0.0
2475,78.0,0.0,30.0,7.0,0.0
2476,47.0,10.0,15.0,6.0,0.0
2477,47.0,0.0,15.0,6.0,0.0
2478,47.0,10.0,15.0,6.0,0.0
2479,47.0,10.0,15.0,6.0,0.0
2480,47.0,10.0,15.0,6.0,0.0
2481,75.0,0.0,30.0,1.0,0.0
2482,66.0,0.0,30.0,7.0,0.0
2483,75.0,0.0,30.0,7.0,0.0
2484,83.0,0.0,30.0,7.0,0.0
2485,83.0,0.0,30.0,1.0,0.0
2486,47.0,0.0,30.0,7.0,0.0
2487,95.0,0.0,30.0,0.0,0.0
2488,83.0,0.0,30.0,0.0,0.0
2489,59.0,0.0,30.0,4.0,0.0
2490,66.0,0.0,30.0,4.0,0.0
2491,71.0,0.0,30.0,4.0,0.0
2492,35.0,0.0,30.0,7.0,0.0
2493,59.0,10.0,30.0,3.0,0.0
2494,63.0,0.0,30.0,3.0,0.0
2495,59.0,0.0,30.0,7.0,0.0
2496,71.0,0.0,30.0,7.0,0.0
2497,47.0,10.0,15.0,6.0,0.0
2498,59.0,0.0,30.0,5.0,0.0
2499,71.0,0.0,30.0,5.0,0.0
2500,47.0,10.0,15.0,6.0,0.0
2501,47.0,0.0,15.0,6.0,0.0
2502,47.0,10.0,15.0,6.0,0.0
2503,47.0,10.0,15.0,6.0,0.0
2504,47.0,10.0,15.0,6.0,0.0
2505,59.0,0.0,30.0,4.0,0.0
2506,66.0,0.0,30.0,4.0,0.0
2507,66.0,0.0,30.0,3.0,0.0
2508,87.0,0.0,30.0,1.0,0.0
2509,90.0,10.0,30.0,0.0,0.0
2510,87.0,0.0,30.0,0.0,0.0
2511,71.0,0.0,30.0,4.0,0.0
2512,63.0,0.0,30.0,7.0,0.0
2513,59.0,0.0,30.0,5.0,0.0
2514,78.0,0.0,30.0,1.0,0.0
2515,63.0,0.0,30.0,3.0,0.0
2516,78.0,0.0,30.0,7.0,0.0
2517,47.0,10.0,15.0,6.0,0.0
2518,71.0,0.0,30.0,5.0,0.0
2519,47.0,10.0,15.0,6.0,0.0
2520,47.0,0.0,15.0,6.0,0.0
2521,47.0,10.0,15.0,6.0,0.0
2522,47.0,10.0,15.0,6.0,0.0
2523,47.0,30.0,15.0,6.0,0.0
2524,47.0,70.0,60.0,6.0,0.0
2525,66.0,0.0,120.0,7.0,0.0
2526,75.0,0.0,120.0,7.0,0.0
2527,83.0,0.0,120.0,7.0,0.0
2528,59.0,0.0,30.0,5.0,0.0
2529,71.0,0.0,30.0,7.0,0.0
2530,95.0,30.0,30.0,0.0,0.0
2531,83.0,0.0,30.0,0.0,0.0
2532,71.0,0.0,30.0,5.0,0.0
2533,35.0,0.0,30.0,7.0,0.0
2534,75.0,0.0,30.0,1.0,0.0
2535,59.0,0.0,30.0,4.0,0.0
2536,59.0,0.0,30.0,3.0,0.0
2537,63.0,0.0,30.0,3.0,0.0
2538,83.0,0.0,30.0,1.0,0.0
2539,47.0,0.0,30.0,7.0,0.0
2540,59.0,0.0,30.0,7.0,0.0
2541,71.0,0.0,30.0,4.0,0.0
2542,66.0,0.0,30.0,4.0,0.0
2543,81.0,0.0,30.0,7.0,0.0
2544,69.0,30.0,30.0,7.0,0.0
2545,80.0,0.0,30.0,7.0,0.0
2546,68.0,30.0,30.0,7.0,0.0
2547,69.0,0.0,30.0,7.0,0.0
2548,81.0,20.0,30.0,7.0,0.0
2549,66.0,23.0,30.0,7.0,0.0
2550,78.0,0.0,30.0,7.0,0.0
2551,74.0,0.0,480.0,1.0,0.0
2552,52.0,10.0,300.0,4.0,0.0
2553,76.0,0.0,420.0,1.0,0.0
2554,62.0,10.0,420.0,4.0,0.0
2555,52.0,0.0,60.0,3.0,0.0
2556,76.0,10.0,120.0,7.0,0.0
2557,64.0,0.0,300.0,4.0,0.0
2558,52.0,23.0,60.0,6.0,0.0
2559,56.0,17.0,20.0,7.0,0.0
2560,62.0,0.0,120.0,3.0,0.0
2561,62.0,0.0,120.0,7.0,0.0
2562,40.0,0.0,60.0,7.0,0.0
2563,59.0,10.0,20.0,7.0,0.0
2564,64.0,10.0,15.0,7.0,0.0
2565,52.0,10.0,60.0,6.0,0.0
2566,56.0,17.0,20.0,7.0,0.0
2567,59.0,10.0,20.0,7.0,0.0
2568,64.0,10.0,15.0,7.0,0.0
2569,59.0,3.0,20.0,7.0,0.0
2570,68.0,0.0,60.0,7.0,0.0
2571,80.0,0.0,60.0,7.0,0.0
2572,56.0,27.0,20.0,7.0,0.0
2573,59.0,30.0,60.0,3.0,0.0
2574,59.0,0.0,60.0,7.0,0.0
2575,64.0,20.0,15.0,7.0,0.0
2576,71.0,0.0,60.0,7.0,0.0
2577,56.0,0.0,60.0,3.0,0.0
2578,83.0,0.0,60.0,7.0,0.0
2579,56.0,23.0,60.0,7.0,0.0
2580,59.0,10.0,20.0,7.0,0.0
2581,64.0,10.0,15.0,7.0,0.0
2582,86.0,8.0,240.0,0.0,0.0
2583,56.0,17.0,20.0,7.0,0.0
2584,52.0,20.0,60.0,3.0,0.0
2585,52.0,0.0,60.0,7.0,0.0
2586,86.0,0.0,180.0,7.0,0.0
2587,52.0,0.0,60.0,6.0,0.0
2588,74.0,10.0,180.0,7.0,0.0
2589,59.0,10.0,20.0,7.0,0.0
2590,64.0,10.0,15.0,7.0,0.0
2591,52.0,0.0,60.0,4.0,0.0
2592,64.0,10.0,60.0,4.0,0.0
2593,47.0,10.0,30.0,7.0,0.0
2594,59.0,0.0,30.0,3.0,0.0
2595,56.0,0.0,60.0,3.0,0.0
2596,59.0,10.0,20.0,7.0,0.0
2597,64.0,10.0,15.0,7.0,0.0
2598,44.0,20.0,30.0,7.0,0.0
2599,59.0,0.0,60.0,3.0,0.0
2600,56.0,0.0,30.0,3.0,0.0
2601,59.0,3.0,20.0,7.0,0.0
2602,52.0,0.0,60.0,4.0,0.0
2603,64.0,0.0,60.0,4.0,0.0
2604,56.0,10.0,15.0,7.0,0.0
2605,59.0,0.0,30.0,7.0,0.0
2606,64.0,10.0,15.0,7.0,0.0
2607,52.0,0.0,30.0,3.0,0.0
2608,62.0,0.0,60.0,3.0,0.0
2609,80.0,0.0,60.0,1.0,0.0
2610,62.0,3.0,20.0,7.0,0.0
2611,40.0,20.0,30.0,7.0,0.0
2612,52.0,0.0,60.0,6.0,0.0
2613,80.0,5.0,60.0,7.0,0.0
2614,52.0,0.0,60.0,4.0,0.0
2615,71.0,0.0,30.0,4.0,0.0
2616,59.0,7.0,20.0,7.0,0.0
2617,68.0,0.0,60.0,7.0,0.0
2618,64.0,0.0,60.0,4.0,0.0
2619,62.0,5.0,30.0,7.0,0.0
2620,64.0,10.0,15.0,7.0,0.0
2621,81.0,0.0,15.0,1.0,0.0
2622,73.0,10.0,20.0,1.0,0.0
2623,85.0,0.0,60.0,0.0,0.0
2624,88.0,0.0,15.0,0.0,0.0
2625,57.0,0.0,60.0,3.0,0.0
2626,61.0,0.0,60.0,3.0,0.0
2627,61.0,10.0,30.0,7.0,0.0
2628,81.0,0.0,60.0,7.0,0.0
2629,69.0,0.0,60.0,7.0,0.0
2630,69.0,0.0,60.0,4.0,0.0
2631,64.0,0.0,120.0,4.0,0.0
2632,52.0,10.0,120.0,4.0,0.0
2633,52.0,10.0,60.0,6.0,0.0
2634,45.0,8.0,30.0,7.0,0.0
2635,73.0,0.0,30.0,1.0,0.0
2636,64.0,0.0,20.0,7.0,0.0
2637,88.0,2.0,15.0,0.0,0.0
2638,61.0,0.0,30.0,7.0,0.0
2639,76.0,8.0,15.0,1.0,0.0
2640,88.0,2.0,15.0,0.0,0.0
2641,57.0,20.0,60.0,3.0,0.0
2642,76.0,0.0,60.0,1.0,0.0
2643,73.0,0.0,60.0,7.0,0.0
2644,85.0,0.0,60.0,7.0,0.0
2645,81.0,8.0,15.0,1.0,0.0
2646,88.0,12.0,15.0,0.0,0.0
2647,57.0,0.0,60.0,7.0,0.0
2648,88.0,2.0,15.0,0.0,0.0
2649,85.0,8.0,15.0,1.0,0.0
2650,61.0,10.0,20.0,7.0,0.0
2651,64.0,8.0,15.0,7.0,0.0
2652,88.0,2.0,15.0,0.0,0.0
2653,88.0,0.0,15.0,1.0,0.0
2654,56.0,0.0,60.0,7.0,0.0
2655,64.0,0.0,120.0,4.0,0.0
2656,52.0,0.0,120.0,4.0,0.0
2657,52.0,0.0,60.0,3.0,0.0
2658,56.0,0.0,60.0,3.0,0.0
2659,40.0,0.0,30.0,7.0,0.0
2660,86.0,0.0,60.0,7.0,0.0
2661,74.0,8.0,60.0,7.0,0.0
2662,52.0,10.0,60.0,6.0,0.0
2663,59.0,10.0,20.0,7.0,0.0
2664,88.0,2.0,15.0,0.0,0.0
2665,86.0,8.0,15.0,1.0,0.0
2666,64.0,0.0,15.0,7.0,0.0
2667,83.0,8.0,15.0,1.0,0.0
2668,88.0,2.0,15.0,0.0,0.0
2669,59.0,15.0,20.0,7.0,0.0
2670,88.0,2.0,15.0,0.0,0.0
2671,68.0,10.0,60.0,7.0,0.0
2672,62.0,0.0,20.0,7.0,0.0
2673,80.0,0.0,15.0,1.0,0.0
2674,62.0,0.0,60.0,3.0,0.0
2675,80.0,0.0,60.0,7.0,0.0
2676,76.0,3.0,20.0,1.0,0.0
2677,76.0,0.0,30.0,1.0,0.0
2678,88.0,12.0,15.0,0.0,0.0
2679,62.0,0.0,30.0,7.0,0.0
2680,74.0,8.0,15.0,1.0,0.0
2681,88.0,2.0,15.0,0.0,0.0
2682,64.0,0.0,15.0,7.0,0.0
2683,52.0,0.0,120.0,4.0,0.0
2684,64.0,0.0,120.0,4.0,0.0
2685,52.0,10.0,60.0,6.0,0.0
2686,69.0,0.0,60.0,7.0,0.0
2687,73.0,0.0,20.0,1.0,0.0
2688,81.0,10.0,15.0,1.0,0.0
2689,61.0,3.0,20.0,7.0,0.0
2690,57.0,7.0,20.0,7.0,0.0
2691,61.0,0.0,60.0,3.0,0.0
2692,57.0,0.0,60.0,3.0,0.0
2693,81.0,8.0,60.0,7.0,0.0
2694,45.0,8.0,30.0,7.0,0.0
2695,73.0,0.0,30.0,1.0,0.0
2696,61.0,0.0,30.0,7.0,0.0
2697,88.0,12.0,15.0,0.0,0.0
2698,64.0,8.0,15.0,7.0,0.0
2699,76.0,0.0,15.0,1.0,0.0
2700,88.0,2.0,15.0,0.0,0.0
2701,57.0,0.0,60.0,7.0,0.0
2702,57.0,20.0,60.0,3.0,0.0
2703,88.0,12.0,15.0,0.0,0.0
2704,73.0,0.0,60.0,7.0,0.0
2705,85.0,0.0,60.0,7.0,0.0
2706,76.0,10.0,60.0,1.0,0.0
2707,81.0,0.0,15.0,1.0,0.0
2708,85.0,8.0,15.0,1.0,0.0
2709,61.0,10.0,20.0,7.0,0.0
2710,88.0,2.0,15.0,0.0,0.0
2711,64.0,0.0,15.0,7.0,0.0
2712,88.0,8.0,15.0,1.0,0.0
2713,88.0,2.0,15.0,0.0,0.0
2714,52.0,30.0,180.0,4.0,0.0
2715,56.0,0.0,60.0,3.0,0.0
2716,74.0,0.0,60.0,7.0,0.0
2717,86.0,0.0,60.0,7.0,0.0
2718,52.0,0.0,60.0,3.0,0.0
2719,40.0,8.0,30.0,7.0,0.0
2720,52.0,10.0,60.0,6.0,0.0
2721,64.0,0.0,180.0,4.0,0.0
2722,56.0,8.0,60.0,7.0,0.0
2723,86.0,0.0,15.0,1.0,0.0
2724,88.0,2.0,15.0,0.0,0.0
2725,59.0,10.0,20.0,7.0,0.0
2726,64.0,0.0,15.0,7.0,0.0
2727,83.0,8.0,15.0,1.0,0.0
2728,88.0,2.0,15.0,0.0,0.0
2729,88.0,2.0,15.0,0.0,0.0
2730,59.0,15.0,20.0,7.0,0.0
2731,62.0,0.0,60.0,3.0,0.0
2732,68.0,0.0,60.0,7.0,0.0
2733,80.0,0.0,60.0,7.0,0.0
2734,62.0,3.0,20.0,7.0,0.0
2735,76.0,0.0,20.0,1.0,0.0
2736,80.0,0.0,15.0,1.0,0.0
2737,62.0,0.0,30.0,7.0,0.0
2738,88.0,12.0,15.0,0.0,0.0
2739,76.0,18.0,30.0,1.0,0.0
2740,88.0,2.0,15.0,0.0,0.0
2741,64.0,0.0,15.0,7.0,0.0
2742,74.0,8.0,15.0,1.0,0.0
2743,73.0,0.0,60.0,1.0,0.0
2744,45.0,0.0,30.0,7.0,0.0
2745,81.0,0.0,20.0,7.0,0.0
2746,76.0,0.0,60.0,1.0,0.0
2747,88.0,10.0,20.0,0.0,0.0
2748,61.0,0.0,60.0,3.0,0.0
2749,57.0,0.0,60.0,3.0,0.0
2750,61.0,2.0,15.0,7.0,0.0
2751,52.0,0.0,60.0,6.0,0.0
2752,69.0,0.0,20.0,7.0,0.0
2753,96.0,8.0,30.0,0.0,0.0
2754,61.0,8.0,15.0,7.0,0.0
2755,84.0,7.0,20.0,7.0,0.0
2756,73.0,3.0,20.0,7.0,0.0
2757,61.0,2.0,15.0,7.0,0.0
2758,85.0,0.0,20.0,7.0,0.0
2759,73.0,0.0,20.0,7.0,0.0
2760,97.0,0.0,20.0,0.0,0.0
2761,53.0,8.0,30.0,7.0,0.0
2762,41.0,0.0,30.0,7.0,0.0
2763,61.0,2.0,15.0,7.0,0.0
2764,97.0,8.0,30.0,0.0,0.0
2765,68.0,3.0,20.0,7.0,0.0
2766,85.0,7.0,20.0,7.0,0.0
2767,83.0,0.0,20.0,7.0,0.0
2768,68.0,0.0,20.0,7.0,0.0
2769,61.0,2.0,15.0,7.0,0.0
2770,95.0,30.0,20.0,0.0,0.0
2771,54.0,0.0,30.0,7.0,0.0
2772,42.0,8.0,30.0,7.0,0.0
2773,69.0,3.0,20.0,7.0,0.0
2774,83.0,7.0,20.0,7.0,0.0
2775,95.0,8.0,30.0,0.0,0.0
2776,61.0,2.0,15.0,7.0,0.0
2777,93.0,30.0,20.0,0.0,0.0
2778,61.0,2.0,15.0,7.0,0.0
2779,81.0,0.0,20.0,7.0,0.0
2780,69.0,0.0,20.0,7.0,0.0
2781,56.0,8.0,30.0,7.0,0.0
2782,44.0,0.0,30.0,7.0,0.0
2783,93.0,8.0,30.0,0.0,0.0
2784,81.0,7.0,20.0,7.0,0.0
2785,71.0,3.0,20.0,7.0,0.0
2786,59.0,2.0,15.0,7.0,0.0
2787,59.0,2.0,15.0,7.0,0.0
2788,71.0,0.0,20.0,7.0,0.0
2789,92.0,30.0,20.0,0.0,0.0
2790,80.0,0.0,20.0,7.0,0.0
2791,45.0,8.0,30.0,7.0,0.0
2792,57.0,0.0,30.0,7.0,0.0
2793,80.0,7.0,20.0,7.0,0.0
2794,73.0,3.0,20.0,7.0,0.0
2795,92.0,8.0,30.0,0.0,0.0
2796,61.0,2.0,15.0,7.0,0.0
2797,90.0,0.0,20.0,0.0,0.0
2798,78.0,30.0,20.0,7.0,0.0
2799,73.0,0.0,20.0,7.0,0.0
2800,61.0,2.0,15.0,7.0,0.0
2801,71.0,20.0,60.0,3.0,0.0
2802,86.0,0.0,60.0,1.0,0.0
2803,71.0,0.0,60.0,1.0,0.0
2804,56.0,8.0,30.0,7.0,0.0
2805,44.0,0.0,30.0,7.0,0.0
2806,90.0,8.0,30.0,0.0,0.0
2807,59.0,2.0,15.0,7.0,0.0
2808,78.0,7.0,20.0,7.0,0.0
2809,71.0,3.0,20.0,7.0,0.0
2810,77.0,0.0,20.0,7.0,0.0
2811,59.0,2.0,15.0,7.0,0.0
2812,89.0,10.0,20.0,0.0,0.0
2813,71.0,0.0,20.0,7.0,0.0
2814,57.0,8.0,30.0,7.0,0.0
2815,69.0,20.0,60.0,3.0,0.0
2816,45.0,0.0,30.0,7.0,0.0
2817,73.0,0.0,60.0,1.0,0.0
2818,85.0,10.0,60.0,1.0,0.0
2819,89.0,8.0,30.0,0.0,0.0
2820,73.0,3.0,20.0,7.0,0.0
2821,77.0,7.0,20.0,7.0,0.0
2822,61.0,2.0,15.0,7.0,0.0
2823,73.0,0.0,20.0,7.0,0.0
2824,90.0,0.0,20.0,0.0,0.0
2825,78.0,0.0,20.0,7.0,0.0
2826,61.0,2.0,15.0,7.0,0.0
2827,73.0,0.0,60.0,1.0,0.0
2828,85.0,10.0,60.0,1.0,0.0
2829,58.0,0.0,30.0,7.0,0.0
2830,66.0,0.0,60.0,3.0,0.0
2831,46.0,8.0,30.0,7.0,0.0
2832,73.0,3.0,20.0,7.0,0.0
2833,78.0,7.0,20.0,7.0,0.0
2834,61.0,2.0,15.0,7.0,0.0
2835,90.0,8.0,30.0,0.0,0.0
2836,61.0,2.0,15.0,7.0,0.0
2837,88.0,0.0,20.0,0.0,0.0
2838,76.0,0.0,20.0,7.0,0.0
2839,66.0,0.0,20.0,7.0,0.0
2840,59.0,10.0,120.0,4.0,0.0
2841,75.0,0.0,60.0,1.0,0.0
2842,66.0,0.0,120.0,4.0,0.0
2843,78.0,0.0,60.0,1.0,0.0
2844,71.0,0.0,120.0,4.0,0.0
2845,66.0,0.0,120.0,3.0,0.0
2846,63.0,0.0,120.0,3.0,0.0
2847,87.0,10.0,60.0,0.0,0.0
2848,47.0,10.0,30.0,7.0,0.0
2849,54.0,7.0,20.0,7.0,0.0
2850,59.0,3.0,20.0,7.0,0.0
2851,66.0,0.0,15.0,7.0,0.0
2852,75.0,10.0,15.0,7.0,0.0
2853,63.0,0.0,15.0,7.0,0.0
2854,75.0,0.0,15.0,7.0,0.0
2855,59.0,10.0,20.0,7.0,0.0
2856,63.0,10.0,15.0,7.0,0.0
2857,66.0,0.0,15.0,7.0,0.0
2858,78.0,0.0,15.0,7.0,0.0
2859,54.0,7.0,20.0,7.0,0.0
2860,57.0,10.0,30.0,7.0,0.0
2861,71.0,13.0,15.0,7.0,0.0
2862,83.0,0.0,15.0,7.0,0.0
2863,45.0,0.0,30.0,7.0,0.0
2864,73.0,0.0,15.0,7.0,0.0
2865,59.0,10.0,20.0,7.0,0.0
2866,85.0,0.0,15.0,7.0,0.0
2867,87.0,0.0,15.0,7.0,0.0
2868,63.0,10.0,15.0,7.0,0.0
2869,75.0,0.0,15.0,7.0,0.0
2870,44.0,0.0,30.0,7.0,0.0
2871,76.0,0.0,30.0,7.0,0.0
2872,52.0,10.0,20.0,4.0,0.0
2873,71.0,0.0,120.0,4.0,0.0
2874,64.0,10.0,15.0,1.0,0.0
2875,88.0,0.0,30.0,7.0,0.0
2876,56.0,0.0,30.0,7.0,0.0
2877,76.0,0.0,15.0,0.0,0.0
2878,64.0,0.0,120.0,3.0,0.0
2879,68.0,0.0,120.0,3.0,0.0
2880,68.0,0.0,60.0,4.0,0.0
2881,56.0,0.0,20.0,4.0,0.0
2882,80.0,10.0,15.0,0.0,0.0
2883,68.0,0.0,15.0,1.0,0.0
2884,59.0,10.0,20.0,7.0,0.0
2885,83.0,10.0,15.0,0.0,0.0
2886,71.0,0.0,15.0,1.0,0.0
2887,59.0,10.0,20.0,4.0,0.0
2888,64.0,0.0,15.0,7.0,0.0
2889,52.0,10.0,30.0,7.0,0.0
2890,56.0,7.0,20.0,7.0,0.0
2891,40.0,0.0,30.0,7.0,0.0
2892,88.0,10.0,15.0,0.0,0.0
2893,76.0,0.0,15.0,1.0,0.0
2894,64.0,3.0,20.0,4.0,0.0
2895,68.0,10.0,20.0,4.0,0.0
2896,59.0,0.0,20.0,7.0,0.0
2897,92.0,0.0,15.0,0.0,0.0
2898,56.0,0.0,20.0,4.0,0.0
2899,80.0,0.0,15.0,1.0,0.0
2900,52.0,0.0,20.0,4.0,0.0
2901,76.0,0.0,15.0,1.0,0.0
2902,88.0,0.0,15.0,0.0,0.0
2903,64.0,10.0,15.0,7.0,0.0
2904,64.0,20.0,20.0,4.0,0.0
2905,76.0,0.0,20.0,7.0,0.0
2906,71.0,0.0,20.0,7.0,0.0
2907,95.0,0.0,60.0,0.0,0.0
2908,59.0,0.0,20.0,7.0,0.0
2909,83.0,20.0,60.0,1.0,0.0
2910,71.0,10.0,120.0,4.0,0.0
2911,63.0,10.0,120.0,3.0,0.0
2912,66.0,0.0,120.0,3.0,0.0
2913,54.0,7.0,20.0,7.0,0.0
2914,66.0,0.0,120.0,4.0,0.0
2915,59.0,0.0,120.0,4.0,0.0
2916,47.0,10.0,30.0,7.0,0.0
2917,75.0,0.0,20.0,7.0,0.0
2918,63.0,0.0,20.0,7.0,0.0
2919,59.0,10.0,20.0,7.0,0.0
2920,78.0,0.0,20.0,7.0,0.0
2921,63.0,10.0,15.0,7.0,0.0
2922,66.0,0.0,20.0,7.0,0.0
2923,57.0,10.0,30.0,7.0,0.0
2924,83.0,3.0,20.0,7.0,0.0
2925,71.0,0.0,20.0,7.0,0.0
2926,45.0,0.0,30.0,7.0,0.0
2927,54.0,7.0,20.0,7.0,0.0
2928,59.0,10.0,20.0,7.0,0.0
2929,73.0,0.0,20.0,7.0,0.0
2930,85.0,0.0,20.0,7.0,0.0
2931,87.0,0.0,20.0,7.0,0.0
2932,75.0,0.0,20.0,7.0,0.0
2933,63.0,10.0,15.0,7.0,0.0
2934,64.0,0.0,15.0,1.0,0.0
2935,52.0,0.0,20.0,4.0,0.0
2936,44.0,0.0,30.0,7.0,0.0
2937,64.0,0.0,120.0,3.0,0.0
2938,68.0,0.0,120.0,3.0,0.0
2939,68.0,0.0,60.0,4.0,0.0
2940,56.0,0.0,30.0,7.0,0.0
2941,76.0,0.0,20.0,7.0,0.0
2942,88.0,10.0,20.0,7.0,0.0
2943,76.0,0.0,15.0,0.0,0.0
2944,71.0,0.0,120.0,4.0,0.0
2945,59.0,10.0,20.0,7.0,0.0
2946,56.0,0.0,20.0,4.0,0.0
2947,71.0,0.0,20.0,7.0,0.0
2948,80.0,0.0,15.0,0.0,0.0
2949,83.0,0.0,20.0,7.0,0.0
2950,68.0,0.0,15.0,1.0,0.0
2951,83.0,0.0,15.0,0.0,0.0
2952,71.0,0.0,15.0,1.0,0.0
2953,68.0,0.0,20.0,7.0,0.0
2954,64.0,10.0,15.0,7.0,0.0
2955,59.0,10.0,20.0,4.0,0.0
2956,80.0,0.0,20.0,7.0,0.0
2957,76.0,10.0,15.0,1.0,0.0
2958,52.0,0.0,30.0,7.0,0.0
2959,40.0,0.0,30.0,7.0,0.0
2960,56.0,7.0,20.0,7.0,0.0
2961,88.0,0.0,15.0,0.0,0.0
2962,64.0,0.0,20.0,4.0,0.0
2963,71.0,0.0,20.0,7.0,0.0
2964,83.0,3.0,20.0,7.0,0.0
2965,68.0,10.0,20.0,4.0,0.0
2966,56.0,0.0,20.0,4.0,0.0
2967,80.0,0.0,20.0,7.0,0.0
2968,80.0,0.0,15.0,1.0,0.0
2969,92.0,10.0,15.0,0.0,0.0
2970,68.0,0.0,20.0,7.0,0.0
2971,59.0,0.0,20.0,7.0,0.0
2972,76.0,10.0,20.0,7.0,0.0
2973,76.0,0.0,15.0,1.0,0.0
2974,88.0,10.0,15.0,0.0,0.0
2975,52.0,0.0,20.0,4.0,0.0
2976,64.0,0.0,20.0,4.0,0.0
2977,64.0,0.0,15.0,7.0,0.0
2978,54.0,0.0,60.0,7.0,0.0
2979,83.0,0.0,60.0,1.0,0.0
2980,47.0,0.0,60.0,7.0,0.0
2981,35.0,10.0,60.0,7.0,0.0
2982,63.0,0.0,60.0,3.0,0.0
2983,59.0,0.0,480.0,4.0,0.0
2984,66.0,0.0,480.0,4.0,0.0
2985,71.0,0.0,60.0,4.0,0.0
2986,66.0,0.0,60.0,3.0,0.0
2987,63.0,10.0,20.0,7.0,0.0
2988,71.0,2.0,15.0,7.0,0.0
2989,95.0,8.0,15.0,0.0,0.0
2990,59.0,12.0,15.0,7.0,0.0
2991,94.0,8.0,15.0,0.0,0.0
2992,71.0,0.0,15.0,7.0,0.0
2993,95.0,8.0,15.0,0.0,0.0
2994,71.0,0.0,15.0,7.0,0.0
2995,59.0,2.0,15.0,7.0,0.0
2996,71.0,12.0,15.0,7.0,0.0
2997,59.0,0.0,15.0,7.0,0.0
2998,90.0,8.0,15.0,0.0,0.0
2999,71.0,0.0,15.0,7.0,0.0
3000,89.0,8.0,15.0,0.0,0.0
3001,59.0,12.0,15.0,7.0,0.0
3002,90.0,8.0,15.0,0.0,0.0
3003,59.0,12.0,15.0,7.0,0.0
3004,71.0,0.0,15.0,7.0,0.0
3005,71.0,0.0,15.0,7.0,0.0
3006,87.0,8.0,15.0,0.0,0.0
3007,59.0,12.0,15.0,7.0,0.0
3008,71.0,12.0,15.0,7.0,0.0
3009,59.0,0.0,15.0,7.0,0.0
3010,86.0,8.0,15.0,0.0,0.0
3011,59.0,0.0,15.0,7.0,0.0
3012,71.0,12.0,15.0,7.0,0.0
3013,87.0,8.0,15.0,0.0,0.0
3014,83.0,0.0,15.0,0.0,0.0
3015,59.0,8.0,15.0,7.0,0.0
3016,71.0,0.0,15.0,7.0,0.0
3017,70.0,0.0,15.0,7.0,0.0
3018,59.0,0.0,15.0,7.0,0.0
3019,82.0,0.0,15.0,0.0,0.0
3020,71.0,12.0,15.0,7.0,0.0
3021,58.0,0.0,15.0,7.0,0.0
3022,59.0,0.0,15.0,7.0,0.0
3023,83.0,0.0,15.0,0.0,0.0
3024,71.0,0.0,15.0,7.0,0.0
3025,71.0,0.0,180.0,1.0,0.0
3026,69.0,0.0,15.0,7.0,0.0
3027,59.0,8.0,180.0,3.0,0.0
3028,57.0,0.0,15.0,7.0,0.0
3029,81.0,10.0,60.0,0.0,0.0
3030,81.0,8.0,15.0,7.0,0.0
3031,71.0,12.0,15.0,7.0,0.0
3032,59.0,0.0,15.0,7.0,0.0
3033,71.0,12.0,15.0,7.0,0.0
3034,56.0,8.0,15.0,7.0,0.0
3035,80.0,0.0,15.0,7.0,0.0
3036,68.0,0.0,15.0,7.0,0.0
3037,59.0,0.0,15.0,7.0,0.0
3038,59.0,0.0,15.0,7.0,0.0
3039,69.0,0.0,15.0,7.0,0.0
3040,57.0,0.0,15.0,7.0,0.0
3041,71.0,2.0,15.0,7.0,0.0
3042,81.0,8.0,15.0,7.0,0.0
3043,78.0,0.0,15.0,7.0,0.0
3044,71.0,12.0,15.0,7.0,0.0
3045,66.0,0.0,15.0,7.0,0.0
3046,54.0,0.0,15.0,7.0,0.0
3047,59.0,0.0,15.0,7.0,0.0
3048,59.0,12.0,15.0,7.0,0.0
3049,71.0,0.0,15.0,7.0,0.0
3050,77.0,0.0,15.0,7.0,0.0
3051,53.0,8.0,15.0,7.0,0.0
3052,65.0,0.0,15.0,7.0,0.0
3053,71.0,0.0,15.0,7.0,0.0
3054,59.0,12.0,15.0,7.0,0.0
3055,78.0,0.0,15.0,7.0,0.0
3056,66.0,0.0,15.0,7.0,0.0
3057,54.0,0.0,15.0,7.0,0.0
3058,51.0,0.0,15.0,7.0,0.0
3059,71.0,0.0,15.0,7.0,0.0
3060,63.0,0.0,15.0,7.0,0.0
3061,75.0,0.0,15.0,7.0,0.0
3062,59.0,12.0,15.0,7.0,0.0
3063,74.0,0.0,15.0,7.0,0.0
3064,50.0,0.0,15.0,7.0,0.0
3065,59.0,12.0,15.0,7.0,0.0
3066,71.0,0.0,15.0,7.0,0.0
3067,62.0,0.0,15.0,7.0,0.0
3068,51.0,0.0,15.0,7.0,0.0
3069,75.0,0.0,15.0,7.0,0.0
3070,71.0,12.0,15.0,7.0,0.0
3071,59.0,0.0,15.0,7.0,0.0
3072,63.0,0.0,15.0,7.0,0.0
3073,69.0,0.0,15.0,7.0,0.0
3074,59.0,0.0,15.0,7.0,0.0
3075,73.0,0.0,30.0,1.0,0.0
3076,71.0,12.0,15.0,7.0,0.0
3077,57.0,0.0,15.0,7.0,0.0
3078,45.0,0.0,15.0,7.0,0.0
3079,61.0,10.0,30.0,3.0,0.0
3080,44.0,0.0,15.0,7.0,0.0
3081,68.0,0.0,15.0,7.0,0.0
3082,71.0,0.0,15.0,7.0,0.0
3083,59.0,2.0,15.0,7.0,0.0
3084,56.0,0.0,15.0,7.0,0.0
3085,75.0,20.0,30.0,1.0,0.0
3086,63.0,0.0,30.0,3.0,0.0
3087,71.0,0.0,15.0,7.0,0.0
3088,57.0,0.0,15.0,7.0,0.0
3089,69.0,0.0,15.0,7.0,0.0
3090,59.0,2.0,15.0,7.0,0.0
3091,45.0,0.0,15.0,7.0,0.0
3092,52.0,0.0,60.0,6.0,0.0
3093,44.0,0.0,60.0,7.0,0.0
3094,76.0,13.0,120.0,1.0,0.0
3095,52.0,0.0,120.0,4.0,0.0
3096,64.0,0.0,120.0,4.0,0.0
3097,71.0,3.0,20.0,7.0,0.0
3098,68.0,17.0,20.0,7.0,0.0
3099,56.0,0.0,20.0,7.0,0.0
3100,64.0,23.0,60.0,3.0,0.0
3101,71.0,0.0,20.0,7.0,0.0
3102,59.0,0.0,15.0,7.0,0.0
3103,76.0,0.0,15.0,7.0,0.0
3104,64.0,10.0,15.0,7.0,0.0
3105,56.0,17.0,20.0,7.0,0.0
3106,68.0,0.0,20.0,7.0,0.0
3107,71.0,10.0,20.0,7.0,0.0
3108,59.0,0.0,20.0,7.0,0.0
3109,64.0,0.0,15.0,7.0,0.0
3110,76.0,20.0,15.0,7.0,0.0
3111,80.0,0.0,120.0,1.0,0.0
3112,56.0,0.0,20.0,7.0,0.0
3113,56.0,0.0,120.0,4.0,0.0
3114,68.0,17.0,20.0,7.0,0.0
3115,68.0,10.0,120.0,4.0,0.0
3116,59.0,0.0,20.0,7.0,0.0
3117,71.0,10.0,20.0,7.0,0.0
3118,64.0,0.0,15.0,7.0,0.0
3119,76.0,33.0,15.0,7.0,0.0
3120,56.0,0.0,20.0,7.0,0.0
3121,68.0,17.0,20.0,7.0,0.0
3122,59.0,0.0,20.0,7.0,0.0
3123,71.0,10.0,20.0,7.0,0.0
3124,64.0,0.0,15.0,7.0,0.0
3125,76.0,20.0,15.0,7.0,0.0
3126,71.0,3.0,20.0,7.0,0.0
3127,59.0,0.0,240.0,4.0,0.0
3128,68.0,0.0,20.0,7.0,0.0
3129,52.0,7.0,20.0,7.0,0.0
3130,40.0,0.0,60.0,7.0,0.0
3131,71.0,20.0,240.0,4.0,0.0
3132,52.0,10.0,60.0,6.0,0.0
3133,83.0,0.0,240.0,1.0,0.0
3134,71.0,0.0,20.0,7.0,0.0
3135,59.0,10.0,20.0,7.0,0.0
3136,76.0,0.0,20.0,7.0,0.0
3137,56.0,0.0,15.0,7.0,0.0
3138,76.0,10.0,15.0,0.0,0.0
3139,80.0,0.0,15.0,0.0,0.0
3140,80.0,0.0,15.0,7.0,0.0
3141,76.0,0.0,15.0,7.0,0.0
3142,64.0,0.0,15.0,7.0,0.0
3143,59.0,10.0,15.0,7.0,0.0
3144,52.0,7.0,20.0,7.0,0.0
3145,76.0,0.0,30.0,5.0,0.0
3146,64.0,5.0,30.0,5.0,0.0
3147,71.0,3.0,20.0,7.0,0.0
3148,68.0,0.0,20.0,7.0,0.0
3149,83.0,10.0,15.0,0.0,0.0
3150,88.0,10.0,15.0,0.0,0.0
3151,59.0,5.0,20.0,7.0,0.0
3152,71.0,0.0,20.0,7.0,0.0
3153,76.0,0.0,20.0,7.0,0.0
3154,56.0,0.0,15.0,7.0,0.0
3155,92.0,0.0,15.0,0.0,0.0
3156,80.0,0.0,15.0,7.0,0.0
3157,64.0,0.0,15.0,7.0,0.0
3158,59.0,0.0,15.0,7.0,0.0
3159,76.0,10.0,15.0,7.0,0.0
3160,76.0,10.0,15.0,5.0,0.0
3161,64.0,0.0,15.0,5.0,0.0
3162,76.0,0.0,60.0,5.0,0.0
3163,71.0,3.0,20.0,7.0,0.0
3164,52.0,7.0,20.0,7.0,0.0
3165,95.0,10.0,15.0,0.0,0.0
3166,64.0,10.0,60.0,5.0,0.0
3167,68.0,0.0,20.0,7.0,0.0
3168,76.0,0.0,20.0,7.0,0.0
3169,71.0,0.0,20.0,7.0,0.0
3170,92.0,10.0,15.0,0.0,0.0
3171,59.0,0.0,20.0,7.0,0.0
3172,56.0,0.0,15.0,7.0,0.0
3173,76.0,10.0,15.0,7.0,0.0
3174,80.0,0.0,15.0,7.0,0.0
3175,88.0,0.0,15.0,0.0,0.0
3176,59.0,0.0,15.0,7.0,0.0
3177,64.0,0.0,15.0,7.0,0.0
3178,71.0,3.0,20.0,7.0,0.0
3179,68.0,0.0,20.0,7.0,0.0
3180,76.0,0.0,60.0,5.0,0.0
3181,64.0,0.0,60.0,5.0,0.0
3182,83.0,10.0,15.0,0.0,0.0
3183,52.0,7.0,20.0,7.0,0.0
3184,59.0,0.0,20.0,7.0,0.0
3185,80.0,10.0,15.0,0.0,0.0
3186,56.0,0.0,15.0,7.0,0.0
3187,71.0,0.0,20.0,7.0,0.0
3188,76.0,10.0,20.0,7.0,0.0
3189,59.0,0.0,15.0,7.0,0.0
3190,64.0,0.0,15.0,7.0,0.0
3191,80.0,0.0,15.0,7.0,0.0
3192,76.0,10.0,15.0,7.0,0.0
3193,76.0,0.0,15.0,0.0,0.0
3194,52.0,0.0,60.0,6.0,0.0
3195,81.0,0.0,60.0,0.0,0.0
3196,52.0,0.0,300.0,4.0,0.0
3197,76.0,3.0,20.0,7.0,0.0
3198,81.0,17.0,20.0,7.0,0.0
3199,37.0,0.0,60.0,7.0,0.0
3200,81.0,0.0,120.0,1.0,0.0
3201,64.0,0.0,300.0,4.0,0.0
3202,64.0,0.0,60.0,5.0,0.0
3203,57.0,10.0,120.0,3.0,0.0
3204,49.0,0.0,240.0,3.0,0.0
3205,76.0,20.0,60.0,5.0,0.0
3206,49.0,0.0,20.0,7.0,0.0
3207,52.0,0.0,15.0,7.0,0.0
3208,57.0,10.0,20.0,7.0,0.0
3209,76.0,0.0,20.0,7.0,0.0
3210,73.0,0.0,20.0,7.0,0.0
3211,73.0,0.0,15.0,7.0,0.0
3212,57.0,0.0,15.0,7.0,0.0
3213,61.0,0.0,15.0,7.0,0.0
3214,69.0,10.0,15.0,7.0,0.0
3215,76.0,3.0,20.0,7.0,0.0
3216,81.0,0.0,20.0,7.0,0.0
3217,49.0,17.0,20.0,7.0,0.0
3218,57.0,10.0,20.0,7.0,0.0
3219,73.0,0.0,20.0,7.0,0.0
3220,76.0,0.0,20.0,7.0,0.0
3221,52.0,0.0,15.0,7.0,0.0
3222,57.0,20.0,15.0,7.0,0.0
3223,69.0,0.0,15.0,7.0,0.0
3224,61.0,0.0,15.0,7.0,0.0
3225,73.0,0.0,15.0,7.0,0.0
3226,81.0,17.0,20.0,7.0,0.0
3227,76.0,3.0,20.0,7.0,0.0
3228,49.0,0.0,20.0,7.0,0.0
3229,85.0,10.0,120.0,1.0,0.0
3230,61.0,0.0,120.0,3.0,0.0
3231,57.0,0.0,20.0,7.0,0.0
3232,76.0,0.0,20.0,7.0,0.0
3233,52.0,0.0,15.0,7.0,0.0
3234,73.0,10.0,20.0,7.0,0.0
3235,57.0,0.0,15.0,7.0,0.0
3236,61.0,30.0,15.0,7.0,0.0
3237,73.0,0.0,15.0,7.0,0.0
3238,69.0,0.0,15.0,7.0,0.0
3239,81.0,0.0,20.0,7.0,0.0
3240,49.0,17.0,20.0,7.0,0.0
3241,76.0,3.0,20.0,7.0,0.0
3242,73.0,10.0,20.0,7.0,0.0
3243,76.0,0.0,20.0,7.0,0.0
3244,57.0,0.0,20.0,7.0,0.0
3245,52.0,0.0,15.0,7.0,0.0
3246,69.0,0.0,15.0,7.0,0.0
3247,57.0,10.0,15.0,7.0,0.0
3248,73.0,0.0,15.0,7.0,0.0
3249,61.0,0.0,15.0,7.0,0.0
3250,33.0,10.0,60.0,7.0,0.0
3251,57.0,0.0,20.0,7.0,0.0
3252,81.0,3.0,20.0,7.0,0.0
3253,88.0,0.0,150.0,1.0,0.0
3254,85.0,0.0,20.0,7.0,0.0
3255,45.0,0.0,60.0,3.0,0.0
3256,64.0,10.0,150.0,3.0,0.0
3257,45.0,7.0,20.0,7.0,0.0
3258,73.0,10.0,15.0,0.0,0.0
3259,81.0,0.0,20.0,7.0,0.0
3260,76.0,10.0,15.0,0.0,0.0
3261,49.0,0.0,20.0,7.0,0.0
3262,61.0,10.0,20.0,7.0,0.0
3263,76.0,0.0,20.0,7.0,0.0
3264,54.0,0.0,15.0,7.0,0.0
3265,66.0,10.0,15.0,7.0,0.0
3266,81.0,0.0,15.0,0.0,0.0
3267,73.0,0.0,15.0,7.0,0.0
3268,76.0,0.0,15.0,7.0,0.0
3269,45.0,7.0,20.0,7.0,0.0
3270,52.0,0.0,30.0,4.0,0.0
3271,76.0,0.0,30.0,5.0,0.0
3272,52.0,0.0,30.0,6.0,0.0
3273,57.0,0.0,20.0,7.0,0.0
3274,85.0,10.0,15.0,0.0,0.0
3275,64.0,5.0,30.0,5.0,0.0
3276,57.0,0.0,120.0,3.0,0.0
3277,64.0,0.0,30.0,4.0,0.0
3278,81.0,3.0,20.0,7.0,0.0
3279,85.0,0.0,20.0,7.0,0.0
3280,81.0,5.0,20.0,7.0,0.0
3281,61.0,0.0,20.0,7.0,0.0
3282,49.0,0.0,20.0,7.0,0.0
3283,88.0,10.0,15.0,0.0,0.0
3284,76.0,0.0,20.0,7.0,0.0
3285,73.0,0.0,15.0,7.0,0.0
3286,93.0,10.0,15.0,0.0,0.0
3287,76.0,0.0,15.0,7.0,0.0
3288,54.0,0.0,15.0,7.0,0.0
3289,66.0,0.0,15.0,7.0,0.0
3290,52.0,0.0,15.0,4.0,0.0
3291,64.0,0.0,15.0,4.0,0.0
3292,52.0,20.0,15.0,6.0,0.0
3293,76.0,0.0,15.0,5.0,0.0
3294,64.0,0.0,15.0,5.0,0.0
3295,52.0,0.0,60.0,6.0,0.0
3296,57.0,17.0,20.0,7.0,0.0
3297,76.0,0.0,60.0,5.0,0.0
3298,64.0,0.0,60.0,5.0,0.0
3299,52.0,10.0,60.0,4.0,0.0
3300,85.0,0.0,20.0,7.0,0.0
3301,45.0,0.0,20.0,7.0,0.0
3302,81.0,3.0,20.0,7.0,0.0
3303,97.0,0.0,60.0,0.0,0.0
3304,64.0,0.0,60.0,4.0,0.0
3305,49.0,0.0,20.0,7.0,0.0
3306,76.0,0.0,20.0,7.0,0.0
3307,81.0,0.0,20.0,7.0,0.0
3308,61.0,0.0,20.0,7.0,0.0
3309,85.0,10.0,30.0,1.0,0.0
3310,61.0,0.0,30.0,3.0,0.0
3311,66.0,10.0,15.0,7.0,0.0
3312,76.0,0.0,15.0,7.0,0.0
3313,54.0,0.0,15.0,7.0,0.0
3314,73.0,0.0,15.0,7.0,0.0
3315,57.0,0.0,60.0,3.0,0.0
3316,52.0,0.0,60.0,4.0,0.0
3317,64.0,0.0,60.0,4.0,0.0
3318,81.0,3.0,20.0,7.0,0.0
3319,64.0,0.0,60.0,5.0,0.0
3320,76.0,0.0,60.0,5.0,0.0
3321,85.0,17.0,20.0,7.0,0.0
3322,69.0,0.0,30.0,3.0,0.0
3323,81.0,0.0,30.0,1.0,0.0
3324,57.0,0.0,20.0,7.0,0.0
3325,52.0,20.0,60.0,6.0,0.0
3326,45.0,0.0,20.0,7.0,0.0
3327,49.0,0.0,20.0,7.0,0.0
3328,81.0,0.0,20.0,7.0,0.0
3329,76.0,0.0,20.0,7.0,0.0
3330,61.0,10.0,20.0,7.0,0.0
3331,66.0,0.0,30.0,3.0,0.0
3332,78.0,0.0,30.0,1.0,0.0
3333,73.0,0.0,15.0,7.0,0.0
3334,54.0,0.0,15.0,7.0,0.0
3335,66.0,0.0,15.0,7.0,0.0
3336,76.0,10.0,15.0,7.0,0.0
3337,59.0,0.0,120.0,3.0,0.0
3338,56.0,7.0,20.0,7.0,0.0
3339,80.0,3.0,20.0,7.0,0.0
3340,76.0,10.0,60.0,5.0,0.0
3341,83.0,0.0,20.0,7.0,0.0
3342,47.0,0.0,20.0,7.0,0.0
3343,78.0,10.0,60.0,1.0,0.0
3344,66.0,0.0,60.0,3.0,0.0
3345,52.0,0.0,60.0,6.0,0.0
3346,64.0,0.0,60.0,5.0,0.0
3347,80.0,10.0,15.0,0.0,0.0
3348,76.0,0.0,20.0,7.0,0.0
3349,80.0,0.0,20.0,7.0,0.0
3350,59.0,10.0,20.0,7.0,0.0
3351,52.0,0.0,20.0,7.0,0.0
3352,83.0,0.0,15.0,0.0,0.0
3353,56.0,0.0,15.0,7.0,0.0
3354,64.0,0.0,15.0,7.0,0.0
3355,76.0,0.0,15.0,7.0,0.0
3356,71.0,10.0,15.0,7.0,0.0
3357,68.0,0.0,60.0,4.0,0.0
3358,47.0,0.0,20.0,7.0,0.0
3359,83.0,7.0,20.0,7.0,0.0
3360,80.0,3.0,20.0,7.0,0.0
3361,64.0,0.0,60.0,4.0,0.0
3362,76.0,20.0,60.0,5.0,0.0
3363,64.0,0.0,60.0,5.0,0.0
3364,64.0,0.0,120.0,3.0,0.0
3365,56.0,0.0,20.0,7.0,0.0
3366,76.0,0.0,120.0,1.0,0.0
3367,88.0,0.0,15.0,0.0,0.0
3368,80.0,0.0,20.0,7.0,0.0
3369,76.0,10.0,20.0,7.0,0.0
3370,92.0,10.0,15.0,0.0,0.0
3371,52.0,0.0,20.0,7.0,0.0
3372,59.0,0.0,20.0,7.0,0.0
3373,56.0,0.0,15.0,7.0,0.0
3374,71.0,0.0,15.0,7.0,0.0
3375,95.0,0.0,15.0,0.0,0.0
3376,64.0,0.0,15.0,7.0,0.0
3377,76.0,10.0,15.0,7.0,0.0
3378,57.0,0.0,120.0,3.0,0.0
3379,83.0,0.0,20.0,7.0,0.0
3380,47.0,0.0,60.0,6.0,0.0
3381,54.0,0.0,20.0,7.0,0.0
3382,78.0,3.0,20.0,7.0,0.0
3383,45.0,10.0,60.0,7.0,0.0
3384,47.0,7.0,20.0,7.0,0.0
3385,75.0,0.0,20.0,7.0,0.0
3386,78.0,0.0,20.0,7.0,0.0
3387,78.0,10.0,15.0,0.0,0.0
3388,59.0,0.0,20.0,7.0,0.0
3389,51.0,10.0,20.0,7.0,0.0
3390,63.0,0.0,15.0,7.0,0.0
3391,71.0,10.0,15.0,7.0,0.0
3392,75.0,0.0,15.0,7.0,0.0
3393,54.0,0.0,15.0,7.0,0.0
3394,83.0,0.0,15.0,0.0,0.0
3395,71.0,0.0,60.0,5.0,0.0
3396,59.0,0.0,60.0,5.0,0.0
3397,75.0,0.0,30.0,1.0,0.0
3398,63.0,10.0,30.0,3.0,0.0
3399,47.0,0.0,20.0,7.0,0.0
3400,59.0,0.0,60.0,4.0,0.0
3401,83.0,7.0,20.0,7.0,0.0
3402,54.0,0.0,20.0,7.0,0.0
3403,78.0,3.0,20.0,7.0,0.0
3404,87.0,10.0,15.0,0.0,0.0
3405,66.0,20.0,60.0,4.0,0.0
3406,59.0,0.0,20.0,7.0,0.0
3407,78.0,0.0,20.0,7.0,0.0
3408,75.0,0.0,20.0,7.0,0.0
3409,51.0,0.0,20.0,7.0,0.0
3410,90.0,10.0,15.0,0.0,0.0
3411,71.0,0.0,30.0,3.0,0.0
3412,83.0,0.0,30.0,1.0,0.0
3413,63.0,10.0,15.0,7.0,0.0
3414,75.0,0.0,15.0,7.0,0.0
3415,71.0,0.0,15.0,7.0,0.0
3416,54.0,0.0,15.0,7.0,0.0
3417,95.0,0.0,15.0,0.0,0.0
3418,80.0,3.0,20.0,7.0,0.0
3419,83.0,0.0,30.0,1.0,0.0
3420,83.0,7.0,20.0,7.0,0.0
3421,56.0,13.0,120.0,3.0,0.0
3422,71.0,0.0,30.0,3.0,0.0
3423,59.0,0.0,20.0,7.0,0.0
3424,52.0,10.0,60.0,6.0,0.0
3425,44.0,0.0,20.0,7.0,0.0
3426,80.0,10.0,20.0,7.0,0.0
3427,76.0,0.0,20.0,7.0,0.0
3428,47.0,0.0,20.0,7.0,0.0
3429,64.0,0.0,20.0,7.0,0.0
3430,83.0,10.0,15.0,0.0,0.0
3431,70.0,10.0,30.0,3.0,0.0
3432,82.0,0.0,30.0,1.0,0.0
3433,68.0,10.0,15.0,7.0,0.0
3434,88.0,0.0,15.0,0.0,0.0
3435,52.0,0.0,15.0,7.0,0.0
3436,71.0,0.0,15.0,7.0,0.0
3437,76.0,0.0,15.0,7.0,0.0
3438,64.0,0.0,60.0,5.0,0.0
3439,52.0,0.0,60.0,4.0,0.0
3440,64.0,10.0,60.0,4.0,0.0
3441,59.0,0.0,20.0,7.0,0.0
3442,80.0,3.0,20.0,7.0,0.0
3443,76.0,0.0,60.0,5.0,0.0
3444,71.0,0.0,30.0,3.0,0.0
3445,83.0,7.0,20.0,7.0,0.0
3446,83.0,0.0,30.0,1.0,0.0
3447,92.0,0.0,15.0,0.0,0.0
3448,44.0,0.0,20.0,7.0,0.0
3449,64.0,0.0,20.0,7.0,0.0
3450,76.0,10.0,20.0,7.0,0.0
3451,47.0,0.0,20.0,7.0,0.0
3452,95.0,10.0,15.0,0.0,0.0
3453,80.0,0.0,20.0,7.0,0.0
3454,72.0,0.0,30.0,3.0,0.0
3455,84.0,0.0,30.0,1.0,0.0
3456,68.0,10.0,15.0,7.0,0.0
3457,76.0,0.0,15.0,7.0,0.0
3458,71.0,0.0,15.0,7.0,0.0
3459,52.0,0.0,15.0,7.0,0.0
3460,96.0,0.0,15.0,0.0,0.0
3461,73.0,0.0,30.0,3.0,0.0
3462,85.0,0.0,30.0,1.0,0.0
3463,85.0,0.0,20.0,7.0,0.0
3464,97.0,0.0,30.0,0.0,0.0
3465,76.0,0.0,20.0,7.0,0.0
3466,57.0,10.0,30.0,3.0,0.0
3467,45.0,0.0,20.0,7.0,0.0
3468,54.0,17.0,20.0,7.0,0.0
3469,52.0,0.0,60.0,6.0,0.0
3470,73.0,0.0,20.0,7.0,0.0
3471,49.0,0.0,20.0,7.0,0.0
3472,81.0,0.0,20.0,7.0,0.0
3473,61.0,0.0,20.0,7.0,0.0
3474,61.0,0.0,30.0,3.0,0.0
3475,69.0,0.0,30.0,3.0,0.0
3476,81.0,13.0,30.0,1.0,0.0
3477,93.0,0.0,30.0,0.0,0.0
3478,69.0,0.0,15.0,7.0,0.0
3479,64.0,0.0,15.0,7.0,0.0
3480,76.0,0.0,15.0,7.0,0.0
3481,54.0,10.0,15.0,7.0,0.0
3482,52.0,0.0,60.0,4.0,0.0
3483,64.0,0.0,60.0,4.0,0.0
3484,64.0,0.0,60.0,5.0,0.0
3485,76.0,0.0,60.0,5.0,0.0
3486,76.0,17.0,20.0,7.0,0.0
3487,85.0,0.0,20.0,7.0,0.0
3488,54.0,0.0,20.0,7.0,0.0
3489,68.0,0.0,30.0,3.0,0.0
3490,92.0,0.0,30.0,0.0,0.0
3491,80.0,0.0,30.0,1.0,0.0
3492,59.0,0.0,30.0,3.0,0.0
3493,45.0,0.0,20.0,7.0,0.0
3494,61.0,10.0,20.0,7.0,0.0
3495,73.0,0.0,20.0,7.0,0.0
3496,49.0,0.0,20.0,7.0,0.0
3497,81.0,0.0,20.0,7.0,0.0
3498,57.0,0.0,30.0,3.0,0.0
3499,78.0,0.0,30.0,1.0,0.0
3500,66.0,18.0,30.0,3.0,0.0
3501,90.0,0.0,30.0,0.0,0.0
3502,69.0,0.0,15.0,7.0,0.0
3503,76.0,0.0,15.0,7.0,0.0
3504,54.0,10.0,15.0,7.0,0.0
3505,64.0,0.0,15.0,7.0,0.0
3506,64.0,0.0,60.0,3.0,0.0
3507,56.0,0.0,60.0,3.0,0.0
3508,64.0,2.0,15.0,7.0,0.0
3509,35.0,0.0,20.0,7.0,0.0
3510,47.0,0.0,15.0,7.0,0.0
3511,56.0,0.0,15.0,7.0,0.0
3512,64.0,0.0,60.0,4.0,0.0
3513,64.0,0.0,20.0,5.0,0.0
3514,88.0,0.0,60.0,0.0,0.0
3515,47.0,0.0,60.0,6.0,0.0
3516,76.0,0.0,20.0,5.0,0.0
3517,76.0,0.0,60.0,1.0,0.0
3518,76.0,0.0,20.0,7.0,0.0
3519,68.0,18.0,20.0,7.0,0.0
3520,56.0,0.0,60.0,4.0,0.0
3521,76.0,0.0,20.0,7.0,0.0
3522,64.0,0.0,20.0,5.0,0.0
3523,83.0,0.0,20.0,7.0,0.0
3524,59.0,0.0,15.0,7.0,0.0
3525,80.0,0.0,20.0,7.0,0.0
3526,47.0,18.0,20.0,7.0,0.0
3527,88.0,0.0,20.0,7.0,0.0
3528,68.0,0.0,15.0,7.0,0.0
3529,71.0,0.0,20.0,4.0,0.0
3530,83.0,0.0,20.0,7.0,0.0
3531,88.0,0.0,20.0,7.0,0.0
3532,76.0,0.0,20.0,7.0,0.0
3533,71.0,0.0,20.0,4.0,0.0
3534,47.0,18.0,20.0,7.0,0.0
3535,68.0,0.0,15.0,7.0,0.0
3536,59.0,0.0,15.0,7.0,0.0
3537,68.0,0.0,20.0,5.0,0.0
3538,80.0,0.0,20.0,7.0,0.0
3539,80.0,0.0,120.0,1.0,0.0
3540,80.0,0.0,20.0,7.0,0.0
3541,76.0,8.0,120.0,1.0,0.0
3542,68.0,0.0,15.0,7.0,0.0
3543,59.0,0.0,15.0,7.0,0.0
3544,76.0,0.0,20.0,7.0,0.0
3545,68.0,0.0,120.0,3.0,0.0
3546,64.0,0.0,120.0,3.0,0.0
3547,83.0,0.0,20.0,7.0,0.0
3548,64.0,0.0,120.0,4.0,0.0
3549,68.0,10.0,120.0,4.0,0.0
3550,47.0,0.0,20.0,7.0,0.0
3551,71.0,0.0,20.0,5.0,0.0
3552,88.0,0.0,20.0,7.0,0.0
3553,71.0,18.0,20.0,4.0,0.0
3554,92.0,0.0,120.0,0.0,0.0
3555,88.0,0.0,120.0,0.0,0.0
3556,68.0,0.0,20.0,5.0,0.0
3557,59.0,0.0,15.0,7.0,0.0
3558,71.0,0.0,20.0,4.0,0.0
3559,76.0,18.0,20.0,7.0,0.0
3560,80.0,0.0,20.0,7.0,0.0
3561,83.0,0.0,20.0,7.0,0.0
3562,88.0,0.0,20.0,7.0,0.0
3563,68.0,0.0,15.0,7.0,0.0
3564,47.0,0.0,20.0,7.0,0.0
3565,47.0,0.0,20.0,7.0,0.0
3566,68.0,2.0,15.0,7.0,0.0
3567,71.0,18.0,20.0,4.0,0.0
3568,88.0,0.0,20.0,7.0,0.0
3569,83.0,0.0,20.0,7.0,0.0
3570,80.0,0.0,20.0,7.0,0.0
3571,76.0,0.0,20.0,7.0,0.0
3572,59.0,0.0,15.0,7.0,0.0
3573,71.0,0.0,20.0,5.0,0.0
3574,76.0,0.0,20.0,7.0,0.0
3575,47.0,0.0,20.0,7.0,0.0
3576,47.0,18.0,20.0,6.0,0.0
3577,76.0,0.0,20.0,5.0,0.0
3578,71.0,0.0,20.0,4.0,0.0
3579,68.0,2.0,15.0,7.0,0.0
3580,64.0,0.0,20.0,5.0,0.0
3581,59.0,0.0,15.0,7.0,0.0
3582,80.0,0.0,20.0,7.0,0.0
3583,83.0,0.0,20.0,7.0,0.0
3584,88.0,0.0,20.0,7.0,0.0
3585,71.0,0.0,20.0,4.0,0.0
3586,68.0,0.0,15.0,7.0,0.0
3587,47.0,0.0,20.0,6.0,0.0
3588,47.0,0.0,20.0,7.0,0.0
3589,76.0,0.0,20.0,7.0,0.0
3590,59.0,0.0,20.0,5.0,0.0
3591,71.0,18.0,20.0,5.0,0.0
3592,88.0,0.0,20.0,7.0,0.0
3593,83.0,0.0,20.0,7.0,0.0
3594,80.0,0.0,20.0,7.0,0.0
3595,59.0,0.0,15.0,7.0,0.0
3596,76.0,0.0,20.0,7.0,0.0
3597,80.0,0.0,20.0,7.0,0.0
3598,83.0,0.0,20.0,7.0,0.0
3599,88.0,0.0,20.0,7.0,0.0
3600,76.0,0.0,20.0,5.0,0.0
3601,64.0,0.0,20.0,5.0,0.0
3602,59.0,0.0,15.0,7.0,0.0
3603,68.0,0.0,15.0,7.0,0.0
3604,47.0,0.0,20.0,7.0,0.0
3605,71.0,0.0,20.0,4.0,0.0
3606,47.0,0.0,20.0,6.0,0.0
3607,68.0,2.0,15.0,7.0,0.0
3608,71.0,0.0,20.0,4.0,0.0
3609,68.0,8.0,30.0,4.0,0.0
3610,76.0,0.0,20.0,7.0,0.0
3611,83.0,0.0,20.0,7.0,0.0
3612,80.0,0.0,20.0,7.0,0.0
3613,47.0,0.0,20.0,7.0,0.0
3614,88.0,0.0,20.0,7.0,0.0
3615,59.0,0.0,15.0,7.0,0.0
3616,95.0,0.0,60.0,0.0,0.0
3617,83.0,0.0,60.0,1.0,0.0
3618,92.0,0.0,60.0,0.0,0.0
3619,80.0,0.0,20.0,5.0,0.0
3620,71.0,0.0,60.0,3.0,0.0
3621,68.0,0.0,60.0,3.0,0.0
3622,68.0,0.0,20.0,5.0,0.0
3623,80.0,0.0,60.0,1.0,0.0
3624,47.0,10.0,20.0,6.0,0.0
3625,47.0,0.0,20.0,6.0,0.0
3626,83.0,0.0,20.0,7.0,0.0
3627,76.0,0.0,20.0,7.0,0.0
3628,80.0,0.0,20.0,7.0,0.0
3629,88.0,0.0,20.0,7.0,0.0
3630,71.0,0.0,20.0,4.0,0.0
3631,64.0,18.0,20.0,5.0,0.0
3632,68.0,0.0,15.0,7.0,0.0
3633,59.0,0.0,15.0,7.0,0.0
3634,47.0,0.0,20.0,7.0,0.0
3635,76.0,0.0,20.0,5.0,0.0
3636,68.0,0.0,30.0,4.0,0.0
3637,64.0,0.0,30.0,4.0,0.0
3638,47.0,18.0,20.0,6.0,0.0
3639,76.0,0.0,20.0,7.0,0.0
3640,68.0,2.0,15.0,7.0,0.0
3641,88.0,0.0,20.0,7.0,0.0
3642,83.0,0.0,20.0,7.0,0.0
3643,80.0,0.0,20.0,7.0,0.0
3644,80.0,0.0,20.0,5.0,0.0
3645,68.0,0.0,20.0,5.0,0.0
3646,47.0,0.0,20.0,7.0,0.0
3647,71.0,0.0,20.0,4.0,0.0
3648,59.0,0.0,15.0,7.0,0.0
3649,75.0,0.0,20.0,7.0,0.0
3650,78.0,0.0,20.0,7.0,0.0
3651,83.0,18.0,20.0,7.0,0.0
3652,87.0,0.0,20.0,7.0,0.0
3653,71.0,0.0,180.0,5.0,0.0
3654,83.0,0.0,180.0,5.0,0.0
3655,69.0,2.0,15.0,7.0,0.0
3656,71.0,0.0,180.0,4.0,0.0
3657,66.0,0.0,180.0,4.0,0.0
3658,59.0,0.0,180.0,4.0,0.0
3659,59.0,0.0,15.0,7.0,0.0
3660,69.0,0.0,240.0,2.0,0.0
3661,83.0,0.0,180.0,1.0,0.0
3662,95.0,0.0,180.0,0.0,0.0
3663,47.0,0.0,15.0,7.0,0.0
3664,47.0,0.0,20.0,6.0,0.0
3665,81.0,0.0,180.0,1.0,0.0
3666,35.0,0.0,20.0,7.0,0.0
3667,87.0,0.0,180.0,0.0,0.0
3668,69.0,0.0,180.0,3.0,0.0
3669,71.0,0.0,180.0,3.0,0.0
3670,75.0,0.0,240.0,2.0,0.0
3671,87.0,0.0,20.0,7.0,0.0
3672,69.0,2.0,15.0,7.0,0.0
3673,83.0,0.0,20.0,7.0,0.0
3674,59.0,0.0,15.0,7.0,0.0
3675,75.0,0.0,20.0,7.0,0.0
3676,35.0,18.0,20.0,7.0,0.0
3677,47.0,0.0,20.0,6.0,0.0
3678,47.0,0.0,15.0,7.0,0.0
3679,78.0,0.0,20.0,7.0,0.0
3680,59.0,0.0,15.0,7.0,0.0
3681,69.0,0.0,15.0,7.0,0.0
3682,47.0,0.0,20.0,6.0,0.0
3683,47.0,2.0,15.0,7.0,0.0
3684,75.0,18.0,20.0,7.0,0.0
3685,83.0,0.0,20.0,7.0,0.0
3686,87.0,0.0,20.0,7.0,0.0
3687,78.0,0.0,20.0,7.0,0.0
3688,35.0,0.0,20.0,7.0,0.0
3689,47.0,18.0,20.0,6.0,0.0
3690,47.0,0.0,15.0,7.0,0.0
3691,87.0,0.0,20.0,7.0,0.0
3692,35.0,0.0,20.0,7.0,0.0
3693,83.0,0.0,20.0,7.0,0.0
3694,75.0,0.0,20.0,7.0,0.0
3695,69.0,2.0,15.0,7.0,0.0
3696,59.0,0.0,15.0,7.0,0.0
3697,78.0,0.0,20.0,7.0,0.0
3698,47.0,0.0,20.0,6.0,0.0
3699,35.0,0.0,20.0,7.0,0.0
3700,75.0,0.0,20.0,7.0,0.0
3701,87.0,0.0,20.0,7.0,0.0
3702,69.0,0.0,15.0,7.0,0.0
3703,59.0,0.0,15.0,7.0,0.0
3704,47.0,2.0,15.0,7.0,0.0
3705,78.0,0.0,20.0,7.0,0.0
3706,83.0,18.0,20.0,7.0,0.0
3707,75.0,0.0,20.0,7.0,0.0
3708,78.0,0.0,20.0,7.0,0.0
3709,83.0,0.0,20.0,7.0,0.0
3710,87.0,18.0,20.0,7.0,0.0
3711,59.0,0.0,15.0,7.0,0.0
3712,69.0,0.0,15.0,7.0,0.0
3713,47.0,2.0,15.0,7.0,0.0
3714,35.0,0.0,20.0,7.0,0.0
3715,47.0,0.0,20.0,6.0,0.0
3716,78.0,0.0,20.0,7.0,0.0
3717,87.0,0.0,20.0,7.0,0.0
3718,75.0,18.0,20.0,7.0,0.0
3719,83.0,0.0,20.0,7.0,0.0
3720,59.0,0.0,15.0,7.0,0.0
3721,69.0,2.0,15.0,7.0,0.0
3722,47.0,0.0,15.0,7.0,0.0
3723,47.0,0.0,20.0,6.0,0.0
3724,35.0,0.0,20.0,7.0,0.0
3725,83.0,0.0,20.0,7.0,0.0
3726,87.0,0.0,20.0,7.0,0.0
3727,78.0,0.0,20.0,7.0,0.0
3728,75.0,0.0,20.0,7.0,0.0
3729,59.0,0.0,15.0,7.0,0.0
3730,35.0,0.0,20.0,7.0,0.0
3731,47.0,0.0,15.0,7.0,0.0
3732,47.0,18.0,20.0,6.0,0.0
3733,69.0,2.0,15.0,7.0,0.0
3734,47.0,2.0,15.0,7.0,0.0
3735,47.0,0.0,20.0,6.0,0.0
3736,87.0,0.0,20.0,7.0,0.0
3737,78.0,18.0,20.0,7.0,0.0
3738,75.0,0.0,20.0,7.0,0.0
3739,59.0,0.0,15.0,7.0,0.0
3740,69.0,0.0,15.0,7.0,0.0
3741,35.0,0.0,20.0,7.0,0.0
3742,83.0,0.0,20.0,7.0,0.0
3743,75.0,0.0,20.0,7.0,0.0
3744,83.0,0.0,20.0,7.0,0.0
3745,93.0,0.0,60.0,0.0,0.0
3746,87.0,0.0,20.0,7.0,0.0
3747,81.0,3.0,60.0,1.0,0.0
3748,78.0,2.0,30.0,1.0,0.0
3749,69.0,0.0,60.0,3.0,0.0
3750,78.0,0.0,20.0,7.0,0.0
3751,35.0,18.0,20.0,7.0,0.0
3752,59.0,2.0,15.0,7.0,0.0
3753,59.0,0.0,60.0,5.0,0.0
3754,47.0,0.0,20.0,6.0,0.0
3755,87.0,8.0,60.0,0.0,0.0
3756,63.0,0.0,60.0,3.0,0.0
3757,66.0,0.0,60.0,4.0,0.0
3758,71.0,0.0,60.0,4.0,0.0
3759,47.0,0.0,15.0,7.0,0.0
3760,59.0,0.0,60.0,4.0,0.0
3761,71.0,0.0,60.0,5.0,0.0
3762,69.0,0.0,15.0,7.0,0.0
3763,75.0,0.0,20.0,7.0,0.0
3764,47.0,0.0,20.0,6.0,0.0
3765,78.0,0.0,20.0,7.0,0.0
3766,83.0,0.0,20.0,7.0,0.0
3767,87.0,5.0,20.0,7.0,0.0
3768,69.0,2.0,15.0,7.0,0.0
3769,59.0,0.0,15.0,7.0,0.0
3770,47.0,0.0,15.0,7.0,0.0
3771,35.0,0.0,20.0,7.0,0.0
3772,69.0,0.0,15.0,7.0,0.0
3773,75.0,0.0,20.0,7.0,0.0
3774,35.0,0.0,20.0,7.0,0.0
3775,78.0,0.0,20.0,7.0,0.0
3776,87.0,0.0,20.0,7.0,0.0
3777,47.0,2.0,15.0,7.0,0.0
3778,59.0,0.0,15.0,7.0,0.0
3779,47.0,0.0,20.0,6.0,0.0
3780,83.0,0.0,20.0,7.0,0.0
3781,78.0,0.0,15.0,1.0,0.0
3782,75.0,0.0,15.0,1.0,0.0
3783,81.0,0.0,15.0,0.0,0.0
3784,66.0,8.0,15.0,3.0,0.0
3785,57.0,0.0,15.0,3.0,0.0
3786,90.0,0.0,15.0,0.0,0.0
3787,68.0,30.0,180.0,1.0,0.0
3788,76.0,0.0,180.0,1.0,0.0
3789,52.0,2.0,15.0,7.0,0.0
3790,64.0,0.0,180.0,5.0,0.0
3791,68.0,0.0,15.0,7.0,0.0
3792,59.0,0.0,15.0,7.0,0.0
3793,76.0,0.0,180.0,5.0,0.0
3794,76.0,0.0,180.0,2.0,0.0
3795,64.0,0.0,180.0,4.0,0.0
3796,56.0,0.0,180.0,4.0,0.0
3797,71.0,0.0,180.0,4.0,0.0
3798,76.0,0.0,15.0,7.0,0.0
3799,52.0,0.0,15.0,6.0,0.0
3800,56.0,0.0,180.0,3.0,0.0
3801,68.0,0.0,180.0,2.0,0.0
3802,64.0,0.0,180.0,3.0,0.0
3803,80.0,8.0,15.0,7.0,0.0
3804,83.0,0.0,15.0,7.0,0.0
3805,40.0,0.0,15.0,7.0,0.0
3806,88.0,0.0,15.0,7.0,0.0
3807,80.0,0.0,180.0,0.0,0.0
3808,88.0,0.0,180.0,0.0,0.0
3809,52.0,0.0,15.0,7.0,0.0
3810,64.0,0.0,15.0,7.0,0.0
3811,76.0,0.0,15.0,7.0,0.0
3812,88.0,0.0,15.0,7.0,0.0
3813,83.0,0.0,15.0,7.0,0.0
3814,80.0,0.0,15.0,7.0,0.0
3815,59.0,2.0,15.0,7.0,0.0
3816,52.0,8.0,15.0,6.0,0.0
3817,68.0,0.0,15.0,7.0,0.0
3818,76.0,0.0,15.0,7.0,0.0
3819,83.0,0.0,15.0,7.0,0.0
3820,59.0,0.0,15.0,7.0,0.0
3821,64.0,2.0,15.0,7.0,0.0
3822,88.0,0.0,15.0,7.0,0.0
3823,52.0,0.0,15.0,7.0,0.0
3824,52.0,0.0,15.0,6.0,0.0
3825,80.0,8.0,15.0,7.0,0.0
3826,68.0,0.0,15.0,7.0,0.0
3827,52.0,0.0,15.0,7.0,0.0
3828,52.0,8.0,15.0,6.0,0.0
3829,88.0,0.0,15.0,7.0,0.0
3830,83.0,0.0,15.0,7.0,0.0
3831,80.0,0.0,15.0,7.0,0.0
3832,76.0,0.0,15.0,7.0,0.0
3833,64.0,2.0,15.0,7.0,0.0
3834,59.0,0.0,15.0,7.0,0.0
3835,68.0,0.0,15.0,7.0,0.0
3836,52.0,8.0,15.0,7.0,0.0
3837,52.0,0.0,15.0,6.0,0.0
3838,83.0,0.0,15.0,7.0,0.0
3839,68.0,0.0,15.0,7.0,0.0
3840,88.0,0.0,15.0,7.0,0.0
3841,80.0,0.0,15.0,7.0,0.0
3842,76.0,0.0,15.0,7.0,0.0
3843,59.0,0.0,15.0,7.0,0.0
3844,64.0,2.0,15.0,7.0,0.0
3845,52.0,0.0,15.0,6.0,0.0
3846,80.0,0.0,15.0,7.0,0.0
3847,76.0,8.0,15.0,7.0,0.0
3848,64.0,2.0,15.0,7.0,0.0
3849,68.0,0.0,15.0,7.0,0.0
3850,59.0,0.0,15.0,7.0,0.0
3851,52.0,0.0,15.0,7.0,0.0
3852,88.0,0.0,15.0,7.0,0.0
3853,83.0,0.0,15.0,7.0,0.0
3854,59.0,2.0,15.0,7.0,0.0
3855,52.0,0.0,15.0,6.0,0.0
3856,64.0,0.0,15.0,7.0,0.0
3857,76.0,0.0,15.0,7.0,0.0
3858,80.0,0.0,15.0,7.0,0.0
3859,52.0,8.0,15.0,7.0,0.0
3860,68.0,0.0,15.0,7.0,0.0
3861,83.0,0.0,15.0,7.0,0.0
3862,88.0,0.0,15.0,7.0,0.0
3863,52.0,0.0,15.0,7.0,0.0
3864,76.0,8.0,15.0,7.0,0.0
3865,80.0,0.0,15.0,7.0,0.0
3866,83.0,0.0,15.0,7.0,0.0
3867,88.0,0.0,15.0,7.0,0.0
3868,59.0,0.0,15.0,7.0,0.0
3869,68.0,2.0,15.0,7.0,0.0
3870,52.0,0.0,15.0,6.0,0.0
3871,64.0,0.0,15.0,7.0,0.0
3872,80.0,0.0,15.0,7.0,0.0
3873,52.0,0.0,15.0,6.0,0.0
3874,52.0,0.0,15.0,7.0,0.0
3875,83.0,0.0,15.0,7.0,0.0
3876,76.0,8.0,15.0,7.0,0.0
3877,64.0,0.0,15.0,7.0,0.0
3878,88.0,0.0,15.0,7.0,0.0
3879,68.0,0.0,15.0,7.0,0.0
3880,59.0,2.0,15.0,7.0,0.0
3881,64.0,0.0,15.0,7.0,0.0
3882,52.0,0.0,15.0,7.0,0.0
3883,68.0,2.0,15.0,7.0,0.0
3884,76.0,0.0,15.0,7.0,0.0
3885,88.0,0.0,15.0,7.0,0.0
3886,83.0,0.0,15.0,7.0,0.0
3887,59.0,0.0,15.0,7.0,0.0
3888,80.0,0.0,15.0,7.0,0.0
3889,52.0,8.0,15.0,6.0,0.0
3890,68.0,2.0,15.0,7.0,0.0
3891,88.0,0.0,15.0,7.0,0.0
3892,83.0,0.0,15.0,7.0,0.0
3893,80.0,0.0,15.0,7.0,0.0
3894,76.0,8.0,15.0,7.0,0.0
3895,52.0,0.0,15.0,7.0,0.0
3896,59.0,0.0,15.0,7.0,0.0
3897,64.0,0.0,15.0,7.0,0.0
3898,52.0,0.0,15.0,6.0,0.0
3899,64.0,0.0,15.0,7.0,0.0
3900,68.0,2.0,15.0,7.0,0.0
3901,80.0,0.0,15.0,7.0,0.0
3902,83.0,0.0,15.0,7.0,0.0
3903,52.0,0.0,15.0,6.0,0.0
3904,88.0,30.0,15.0,7.0,0.0
3905,52.0,0.0,15.0,7.0,0.0
3906,59.0,0.0,15.0,7.0,0.0
3907,76.0,0.0,15.0,7.0,0.0
3908,76.0,0.0,30.0,7.0,0.0
3909,52.0,0.0,60.0,6.0,0.0
3910,68.0,0.0,30.0,7.0,0.0
3911,59.0,0.0,30.0,7.0,0.0
3912,52.0,0.0,30.0,7.0,0.0
3913,80.0,0.0,30.0,7.0,0.0
3914,64.0,30.0,30.0,7.0,0.0
3915,83.0,0.0,30.0,7.0,0.0
3916,88.0,0.0,30.0,7.0,0.0
3917,59.0,0.0,30.0,4.0,0.0
3918,71.0,0.0,30.0,5.0,0.0
3919,71.0,0.0,30.0,4.0,0.0
3920,68.0,0.0,30.0,5.0,0.0
3921,83.0,0.0,30.0,0.0,0.0
3922,92.0,0.0,30.0,0.0,0.0
3923,68.0,0.0,30.0,4.0,0.0
3924,64.0,0.0,30.0,3.0,0.0
3925,59.0,0.0,30.0,7.0,0.0
3926,56.0,0.0,30.0,7.0,0.0
3927,71.0,0.0,30.0,7.0,0.0
3928,80.0,38.0,30.0,2.0,0.0
3929,71.0,0.0,30.0,2.0,0.0
3930,83.0,0.0,30.0,1.0,0.0
3931,80.0,0.0,30.0,1.0,0.0
3932,56.0,0.0,30.0,3.0,0.0
3933,88.0,0.0,15.0,7.0,0.0
3934,83.0,0.0,15.0,7.0,0.0
3935,80.0,0.0,15.0,7.0,0.0
3936,76.0,0.0,15.0,7.0,0.0
3937,76.0,0.0,180.0,2.0,0.0
3938,64.0,0.0,180.0,5.0,0.0
3939,52.0,0.0,15.0,7.0,0.0
3940,56.0,0.0,180.0,4.0,0.0
3941,76.0,0.0,180.0,5.0,0.0
3942,52.0,8.0,15.0,6.0,0.0
3943,76.0,0.0,180.0,1.0,0.0
3944,80.0,0.0,180.0,1.0,0.0
3945,64.0,30.0,180.0,3.0,0.0
3946,80.0,0.0,180.0,0.0,0.0
3947,68.0,2.0,15.0,7.0,0.0
3948,64.0,0.0,180.0,4.0,0.0
3949,88.0,0.0,180.0,0.0,0.0
3950,71.0,0.0,180.0,4.0,0.0
3951,68.0,0.0,180.0,2.0,0.0
3952,40.0,0.0,15.0,7.0,0.0
3953,56.0,0.0,180.0,3.0,0.0
3954,59.0,0.0,15.0,7.0,0.0
3955,76.0,0.0,15.0,7.0,0.0
3956,52.0,0.0,15.0,7.0,0.0
3957,83.0,8.0,15.0,7.0,0.0
3958,80.0,0.0,15.0,7.0,0.0
3959,64.0,0.0,15.0,7.0,0.0
3960,88.0,0.0,15.0,7.0,0.0
3961,59.0,0.0,15.0,7.0,0.0
3962,52.0,0.0,15.0,6.0,0.0
3963,68.0,2.0,15.0,7.0,0.0
3964,59.0,2.0,15.0,7.0,0.0
3965,52.0,0.0,15.0,7.0,0.0
3966,52.0,0.0,15.0,6.0,0.0
3967,88.0,8.0,15.0,7.0,0.0
3968,83.0,0.0,15.0,7.0,0.0
3969,76.0,0.0,15.0,7.0,0.0
3970,68.0,0.0,15.0,7.0,0.0
3971,64.0,0.0,15.0,7.0,0.0
3972,80.0,0.0,15.0,7.0,0.0
3973,52.0,0.0,15.0,6.0,0.0
3974,88.0,8.0,15.0,7.0,0.0
3975,83.0,0.0,15.0,7.0,0.0
3976,80.0,0.0,15.0,7.0,0.0
3977,76.0,0.0,15.0,7.0,0.0
3978,64.0,0.0,15.0,7.0,0.0
3979,52.0,0.0,15.0,7.0,0.0
3980,59.0,2.0,15.0,7.0,0.0
3981,68.0,0.0,15.0,7.0,0.0
3982,80.0,0.0,15.0,7.0,0.0
3983,76.0,0.0,15.0,7.0,0.0
3984,68.0,0.0,15.0,7.0,0.0
3985,59.0,2.0,15.0,7.0,0.0
3986,52.0,0.0,15.0,6.0,0.0
3987,52.0,0.0,15.0,7.0,0.0
3988,64.0,0.0,15.0,7.0,0.0
3989,83.0,8.0,15.0,7.0,0.0
3990,88.0,0.0,15.0,7.0,0.0
3991,76.0,0.0,15.0,7.0,0.0
3992,80.0,0.0,15.0,7.0,0.0
3993,64.0,0.0,15.0,7.0,0.0
3994,68.0,0.0,15.0,7.0,0.0
3995,59.0,2.0,15.0,7.0,0.0
3996,52.0,0.0,15.0,6.0,0.0
3997,83.0,0.0,15.0,7.0,0.0
3998,88.0,8.0,15.0,7.0,0.0
3999,52.0,0.0,15.0,7.0,0.0
4000,52.0,0.0,15.0,7.0,0.0
4001,88.0,8.0,15.0,7.0,0.0
4002,83.0,0.0,15.0,7.0,0.0
4003,80.0,0.0,15.0,7.0,0.0
4004,76.0,0.0,15.0,7.0,0.0
4005,52.0,0.0,15.0,6.0,0.0
4006,64.0,0.0,15.0,7.0,0.0
4007,68.0,0.0,15.0,7.0,0.0
4008,59.0,2.0,15.0,7.0,0.0
4009,76.0,0.0,15.0,7.0,0.0
4010,68.0,0.0,15.0,7.0,0.0
4011,88.0,0.0,15.0,7.0,0.0
4012,83.0,0.0,15.0,7.0,0.0
4013,80.0,0.0,15.0,7.0,0.0
4014,52.0,0.0,15.0,6.0,0.0
4015,59.0,0.0,15.0,7.0,0.0
4016,52.0,8.0,15.0,7.0,0.0
4017,64.0,2.0,15.0,7.0,0.0
4018,52.0,8.0,15.0,6.0,0.0
4019,59.0,2.0,15.0,7.0,0.0
4020,64.0,0.0,15.0,7.0,0.0
4021,52.0,0.0,15.0,7.0,0.0
4022,68.0,0.0,15.0,7.0,0.0
4023,76.0,0.0,15.0,7.0,0.0
4024,83.0,0.0,15.0,7.0,0.0
4025,88.0,0.0,15.0,7.0,0.0
4026,80.0,0.0,15.0,7.0,0.0
4027,64.0,2.0,15.0,7.0,0.0
4028,88.0,0.0,15.0,7.0,0.0
4029,83.0,0.0,15.0,7.0,0.0
4030,80.0,0.0,15.0,7.0,0.0
4031,52.0,8.0,15.0,7.0,0.0
4032,52.0,0.0,15.0,6.0,0.0
4033,59.0,0.0,15.0,7.0,0.0
4034,68.0,0.0,15.0,7.0,0.0
4035,76.0,0.0,15.0,7.0,0.0
4036,68.0,0.0,15.0,7.0,0.0
4037,52.0,0.0,15.0,7.0,0.0
4038,83.0,0.0,15.0,7.0,0.0
4039,52.0,0.0,15.0,6.0,0.0
4040,80.0,0.0,15.0,7.0,0.0
4041,76.0,0.0,15.0,7.0,0.0
4042,64.0,2.0,15.0,7.0,0.0
4043,88.0,8.0,15.0,7.0,0.0
4044,59.0,0.0,15.0,7.0,0.0
4045,83.0,0.0,15.0,7.0,0.0
4046,88.0,0.0,15.0,7.0,0.0
4047,76.0,30.0,15.0,7.0,0.0
4048,80.0,0.0,15.0,7.0,0.0
4049,52.0,0.0,15.0,7.0,0.0
4050,52.0,0.0,15.0,6.0,0.0
4051,68.0,0.0,15.0,7.0,0.0
4052,59.0,2.0,15.0,7.0,0.0
4053,64.0,0.0,15.0,7.0,0.0
4054,59.0,0.0,30.0,7.0,0.0
4055,52.0,0.0,60.0,6.0,0.0
4056,64.0,30.0,30.0,7.0,0.0
4057,88.0,0.0,30.0,7.0,0.0
4058,83.0,0.0,30.0,7.0,0.0
4059,80.0,0.0,30.0,7.0,0.0
4060,68.0,0.0,30.0,7.0,0.0
4061,76.0,0.0,30.0,7.0,0.0
4062,52.0,0.0,30.0,7.0,0.0
4063,80.0,0.0,30.0,1.0,0.0
4064,56.0,0.0,30.0,7.0,0.0
4065,71.0,0.0,30.0,2.0,0.0
4066,80.0,0.0,30.0,2.0,0.0
4067,64.0,0.0,30.0,3.0,0.0
4068,56.0,40.0,30.0,3.0,0.0
4069,59.0,0.0,30.0,4.0,0.0
4070,68.0,0.0,30.0,4.0,0.0
4071,59.0,0.0,30.0,7.0,0.0
4072,83.0,0.0,30.0,0.0,0.0
4073,71.0,0.0,30.0,7.0,0.0
4074,92.0,0.0,30.0,0.0,0.0
4075,71.0,0.0,30.0,5.0,0.0
4076,68.0,0.0,30.0,5.0,0.0
4077,83.0,0.0,30.0,1.0,0.0
4078,71.0,0.0,30.0,4.0,0.0
4079,40.0,0.0,30.0,7.0,0.0
4080,76.0,0.0,30.0,2.0,0.0
4081,68.0,0.0,30.0,2.0,0.0
4082,59.0,0.0,30.0,7.0,0.0
4083,52.0,10.0,15.0,6.0,0.0
4084,64.0,0.0,30.0,4.0,0.0
4085,56.0,0.0,30.0,3.0,0.0
4086,56.0,0.0,30.0,4.0,0.0
4087,64.0,0.0,30.0,7.0,0.0
4088,71.0,0.0,30.0,7.0,0.0
4089,64.0,0.0,30.0,5.0,0.0
4090,76.0,0.0,30.0,5.0,0.0
4091,80.0,0.0,30.0,7.0,0.0
4092,83.0,0.0,30.0,7.0,0.0
4093,88.0,0.0,30.0,7.0,0.0
4094,64.0,0.0,30.0,3.0,0.0
4095,52.0,0.0,30.0,7.0,0.0
4096,68.0,0.0,30.0,7.0,0.0
4097,80.0,0.0,30.0,1.0,0.0
4098,76.0,0.0,30.0,1.0,0.0
4099,80.0,0.0,30.0,0.0,0.0
4100,88.0,0.0,30.0,0.0,0.0
4101,71.0,0.0,30.0,4.0,0.0
4102,76.0,0.0,30.0,7.0,0.0
4103,52.0,10.0,15.0,6.0,0.0
4104,52.0,0.0,15.0,6.0,0.0
4105,52.0,10.0,15.0,6.0,0.0
4106,52.0,10.0,15.0,6.0,0.0
4107,52.0,10.0,15.0,6.0,0.0
4108,56.0,0.0,30.0,3.0,0.0
4109,71.0,0.0,30.0,5.0,0.0
4110,68.0,0.0,30.0,5.0,0.0
4111,80.0,0.0,30.0,2.0,0.0
4112,59.0,0.0,30.0,4.0,0.0
4113,68.0,0.0,30.0,4.0,0.0
4114,71.0,0.0,30.0,2.0,0.0
4115,71.0,0.0,30.0,7.0,0.0
4116,56.0,0.0,30.0,7.0,0.0
4117,59.0,0.0,30.0,7.0,0.0
4118,80.0,0.0,30.0,1.0,0.0
4119,71.0,0.0,30.0,4.0,0.0
4120,83.0,0.0,30.0,1.0,0.0
4121,83.0,10.0,30.0,0.0,0.0
4122,59.0,0.0,30.0,3.0,0.0
4123,92.0,0.0,30.0,0.0,0.0
4124,52.0,10.0,15.0,6.0,0.0
4125,52.0,10.0,15.0,6.0,0.0
4126,52.0,0.0,15.0,6.0,0.0
4127,52.0,10.0,15.0,6.0,0.0
4128,52.0,10.0,15.0,6.0,0.0
4129,52.0,10.0,15.0,6.0,0.0
4130,64.0,0.0,30.0,3.0,0.0
4131,76.0,0.0,30.0,2.0,0.0
4132,52.0,10.0,15.0,6.0,0.0
4133,59.0,0.0,30.0,7.0,0.0
4134,56.0,0.0,30.0,3.0,0.0
4135,68.0,0.0,30.0,2.0,0.0
4136,40.0,0.0,30.0,7.0,0.0
4137,52.0,0.0,30.0,7.0,0.0
4138,76.0,0.0,30.0,5.0,0.0
4139,71.0,0.0,30.0,7.0,0.0
4140,64.0,0.0,30.0,5.0,0.0
4141,76.0,0.0,30.0,7.0,0.0
4142,71.0,0.0,30.0,4.0,0.0
4143,64.0,10.0,30.0,4.0,0.0
4144,64.0,0.0,30.0,7.0,0.0
4145,80.0,0.0,30.0,0.0,0.0
4146,80.0,0.0,30.0,7.0,0.0
4147,83.0,0.0,30.0,7.0,0.0
4148,88.0,0.0,30.0,7.0,0.0
4149,80.0,0.0,30.0,1.0,0.0
4150,76.0,0.0,30.0,1.0,0.0
4151,88.0,0.0,30.0,0.0,0.0
4152,56.0,0.0,30.0,4.0,0.0
4153,68.0,0.0,30.0,7.0,0.0
4154,52.0,10.0,15.0,6.0,0.0
4155,52.0,0.0,15.0,6.0,0.0
4156,52.0,10.0,15.0,6.0,0.0
4157,52.0,10.0,15.0,6.0,0.0
4158,52.0,10.0,15.0,6.0,0.0
4159,83.0,10.0,30.0,1.0,0.0
4160,80.0,0.0,30.0,1.0,0.0
4161,52.0,10.0,15.0,6.0,0.0
4162,71.0,0.0,30.0,7.0,0.0
4163,71.0,0.0,30.0,5.0,0.0
4164,68.0,0.0,30.0,5.0,0.0
4165,83.0,0.0,30.0,0.0,0.0
4166,92.0,0.0,30.0,0.0,0.0
4167,59.0,0.0,30.0,4.0,0.0
4168,68.0,0.0,30.0,4.0,0.0
4169,71.0,0.0,30.0,4.0,0.0
4170,59.0,0.0,30.0,3.0,0.0
4171,56.0,0.0,30.0,3.0,0.0
4172,56.0,0.0,30.0,7.0,0.0
4173,59.0,0.0,30.0,7.0,0.0
4174,71.0,0.0,30.0,2.0,0.0
4175,80.0,0.0,30.0,2.0,0.0
4176,52.0,10.0,15.0,6.0,0.0
4177,52.0,0.0,15.0,6.0,0.0
4178,52.0,10.0,15.0,6.0,0.0
4179,52.0,10.0,15.0,6.0,0.0
4180,52.0,30.0,15.0,6.0,0.0
4181,88.0,0.0,60.0,0.0,0.0
4182,76.0,0.0,30.0,5.0,0.0
4183,64.0,0.0,30.0,5.0,0.0
4184,80.0,190.0,60.0,0.0,0.0
4185,80.0,0.0,30.0,1.0,0.0
4186,71.0,0.0,30.0,4.0,0.0
4187,56.0,0.0,30.0,4.0,0.0
4188,76.0,0.0,30.0,1.0,0.0
4189,64.0,0.0,30.0,3.0,0.0
4190,56.0,0.0,30.0,3.0,0.0
4191,52.0,0.0,30.0,7.0,0.0
4192,88.0,30.0,30.0,7.0,0.0
4193,64.0,0.0,30.0,4.0,0.0
4194,76.0,0.0,30.0,7.0,0.0
4195,52.0,0.0,30.0,6.0,0.0
4196,64.0,0.0,30.0,7.0,0.0
4197,68.0,0.0,30.0,2.0,0.0
4198,76.0,0.0,30.0,2.0,0.0
4199,76.0,180.0,210.0,7.0,0.0
4200,52.0,0.0,210.0,7.0,0.0
4201,64.0,0.0,210.0,7.0,0.0
4202,88.0,0.0,210.0,7.0,0.0
4203,84.0,50.0,180.0,7.0,0.0
4204,60.0,0.0,180.0,7.0,0.0
4205,72.0,0.0,180.0,7.0,0.0
4206,48.0,0.0,180.0,7.0,0.0
4207,45.0,0.0,60.0,7.0,0.0
4208,57.0,0.0,60.0,7.0,0.0
4209,81.0,0.0,60.0,7.0,0.0
4210,69.0,0.0,60.0,7.0,0.0
4211,77.0,0.0,60.0,7.0,0.0
4212,65.0,0.0,60.0,7.0,0.0
4213,41.0,0.0,60.0,7.0,0.0
4214,53.0,0.0,60.0,7.0,0.0
4215,72.0,0.0,60.0,7.0,0.0
4216,48.0,0.0,60.0,7.0,0.0
4217,60.0,0.0,60.0,7.0,0.0
4218,57.0,0.0,15.0,7.0,0.0
4219,69.0,0.0,15.0,7.0,0.0
4220,45.0,30.0,15.0,7.0,0.0
4221,65.0,0.0,30.0,7.0,0.0
4222,41.0,0.0,30.0,7.0,0.0
4223,53.0,60.0,30.0,7.0,0.0
4224,52.0,0.0,30.0,7.0,0.0
4225,64.0,0.0,30.0,7.0,0.0
4226,40.0,0.0,30.0,7.0,0.0
4227,51.0,0.0,60.0,7.0,0.0
4228,39.0,0.0,60.0,7.0,0.0
4229,63.0,30.0,30.0,7.0,0.0
4230,59.0,15.0,30.0,7.0,0.0
4231,59.0,17.0,15.0,7.0,0.0
4232,59.0,12.0,120.0,7.0,0.0
4233,52.0,0.0,120.0,7.0,0.0
4234,35.0,10.0,15.0,7.0,0.0
4235,55.0,0.0,120.0,7.0,0.0
4236,37.0,10.0,15.0,7.0,0.0
4237,39.0,28.0,15.0,7.0,0.0
4238,40.0,60.0,30.0,7.0,0.0
4239,66.0,40.0,15.0,7.0,0.0
4240,64.0,10.0,30.0,7.0,0.0
4241,63.0,45.0,15.0,7.0,0.0
4242,64.0,13.0,60.0,7.0,0.0
4243,66.0,12.0,15.0,7.0,0.0
4244,55.0,0.0,120.0,7.0,0.0
4245,52.0,0.0,120.0,7.0,0.0
4246,67.0,50.0,120.0,7.0,0.0
4247,35.0,10.0,15.0,7.0,0.0
4248,59.0,10.0,120.0,7.0,0.0
4249,37.0,10.0,15.0,7.0,0.0
4250,39.0,28.0,15.0,7.0,0.0
4251,40.0,60.0,30.0,7.0,0.0
4252,64.0,72.0,60.0,7.0,0.0
4253,35.0,10.0,15.0,7.0,0.0
4254,55.0,0.0,120.0,7.0,0.0
4255,71.0,2.0,120.0,7.0,0.0
4256,59.0,10.0,120.0,7.0,0.0
4257,52.0,0.0,120.0,7.0,0.0
4258,37.0,10.0,15.0,7.0,0.0
4259,39.0,28.0,15.0,7.0,0.0
4260,40.0,47.0,30.0,7.0,0.0
4261,40.0,3.0,15.0,7.0,0.0
4262,42.0,18.0,15.0,7.0,0.0
4263,59.0,10.0,120.0,7.0,0.0
4264,69.0,10.0,20.0,7.0,0.0
4265,55.0,0.0,120.0,7.0,0.0
4266,43.0,30.0,30.0,7.0,0.0
4267,52.0,0.0,120.0,7.0,0.0
4268,67.0,20.0,30.0,7.0,0.0
4269,66.0,27.0,20.0,7.0,0.0
4270,64.0,2.0,30.0,7.0,0.0
4271,43.0,3.0,15.0,7.0,0.0
4272,45.0,68.0,15.0,7.0,0.0
4273,52.0,50.0,120.0,7.0,0.0
4274,67.0,0.0,120.0,7.0,0.0
4275,47.0,0.0,180.0,7.0,0.0
4276,55.0,0.0,120.0,7.0,0.0
4277,59.0,60.0,60.0,7.0,0.0
4278,70.0,0.0,60.0,7.0,0.0
4279,71.0,0.0,60.0,7.0,0.0
4280,66.0,0.0,60.0,7.0,0.0
4281,54.0,0.0,60.0,7.0,0.0
4282,51.0,47.0,60.0,7.0,0.0
4283,45.0,15.0,15.0,7.0,0.0
4284,47.0,113.0,15.0,7.0,0.0
4285,48.0,0.0,120.0,7.0,0.0
4286,51.0,0.0,120.0,7.0,0.0
4287,66.0,5.0,120.0,7.0,0.0
4288,57.0,0.0,120.0,7.0,0.0
4289,63.0,47.0,120.0,7.0,0.0
4290,66.0,15.0,60.0,7.0,0.0
4291,67.0,15.0,15.0,7.0,0.0
4292,57.0,12.0,20.0,7.0,0.0
4293,45.0,3.0,15.0,7.0,0.0
4294,69.0,0.0,60.0,7.0,0.0
4295,55.0,12.0,20.0,7.0,0.0
4296,43.0,3.0,15.0,7.0,0.0
4297,42.0,3.0,15.0,7.0,0.0
4298,54.0,10.0,20.0,7.0,0.0
4299,71.0,5.0,15.0,7.0,0.0
4300,52.0,55.0,20.0,7.0,0.0
4301,40.0,0.0,15.0,7.0,0.0
4302,39.0,0.0,60.0,7.0,0.0
4303,72.0,5.0,240.0,7.0,0.0
4304,69.0,170.0,60.0,7.0,0.0
4305,51.0,0.0,60.0,7.0,0.0
4306,66.0,0.0,60.0,7.0,0.0
4307,62.0,10.0,20.0,7.0,0.0
4308,50.0,0.0,20.0,7.0,0.0
4309,64.0,55.0,20.0,7.0,0.0
4310,52.0,0.0,20.0,7.0,0.0
4311,71.0,0.0,120.0,7.0,0.0
4312,53.0,0.0,60.0,7.0,0.0
4313,68.0,0.0,120.0,7.0,0.0
4314,65.0,60.0,60.0,7.0,0.0
4315,62.0,47.0,120.0,7.0,0.0
4316,71.0,15.0,60.0,7.0,0.0
4317,72.0,18.0,15.0,7.0,0.0
4318,62.0,15.0,20.0,7.0,0.0
4319,74.0,3.0,60.0,7.0,0.0
4320,50.0,0.0,20.0,7.0,0.0
4321,60.0,0.0,20.0,7.0,0.0
4322,48.0,12.0,20.0,7.0,0.0
4323,59.0,10.0,20.0,7.0,0.0
4324,47.0,0.0,20.0,7.0,0.0
4325,45.0,55.0,20.0,7.0,0.0
4326,76.0,5.0,15.0,7.0,0.0
4327,57.0,0.0,20.0,7.0,0.0
4328,44.0,130.0,60.0,7.0,0.0
4329,56.0,10.0,210.0,7.0,0.0
4330,77.0,20.0,180.0,7.0,0.0
4331,71.0,0.0,180.0,7.0,0.0
4332,62.0,0.0,180.0,7.0,0.0
4333,76.0,0.0,30.0,7.0,0.0
4334,60.0,2.0,30.0,7.0,0.0
4335,64.0,0.0,60.0,7.0,0.0
4336,40.0,0.0,15.0,7.0,0.0
4337,52.0,10.0,15.0,7.0,0.0
4338,59.0,2.0,30.0,7.0,0.0
4339,74.0,0.0,30.0,7.0,0.0
4340,42.0,0.0,15.0,7.0,0.0
4341,54.0,8.0,15.0,7.0,0.0
4342,44.0,0.0,15.0,7.0,0.0
4343,56.0,38.0,15.0,7.0,0.0
4344,64.0,0.0,60.0,7.0,0.0
4345,74.0,10.0,30.0,7.0,0.0
4346,45.0,10.0,60.0,7.0,0.0
4347,57.0,0.0,60.0,7.0,0.0
4348,72.0,0.0,30.0,7.0,0.0
4349,69.0,0.0,120.0,3.0,0.0
4350,74.0,18.0,20.0,7.0,0.0
4351,65.0,0.0,20.0,7.0,0.0
4352,69.0,0.0,20.0,7.0,0.0
4353,71.0,0.0,20.0,7.0,0.0
4354,65.0,0.0,20.0,7.0,0.0
4355,38.0,10.0,15.0,7.0,0.0
4356,62.0,8.0,20.0,7.0,0.0
4357,50.0,0.0,15.0,7.0,0.0
4358,38.0,2.0,15.0,7.0,0.0
4359,50.0,0.0,15.0,7.0,0.0
4360,50.0,0.0,15.0,7.0,0.0
4361,38.0,57.0,15.0,7.0,0.0
4362,40.0,0.0,60.0,7.0,0.0
4363,69.0,0.0,60.0,7.0,0.0
4364,64.0,5.0,60.0,7.0,0.0
4365,52.0,10.0,60.0,7.0,0.0
4366,60.0,28.0,60.0,7.0,0.0
4367,64.0,0.0,60.0,3.0,0.0
4368,62.0,1.0,60.0,7.0,0.0
4369,71.0,0.0,60.0,7.0,0.0
4370,64.0,60.0,60.0,7.0,0.0
4371,40.0,9.0,15.0,7.0,0.0
4372,52.0,0.0,15.0,7.0,0.0
4373,52.0,10.0,15.0,7.0,0.0
4374,40.0,0.0,15.0,7.0,0.0
4375,59.0,0.0,15.0,7.0,0.0
4376,68.0,0.0,15.0,7.0,0.0
4377,52.0,2.0,15.0,7.0,0.0
4378,40.0,0.0,15.0,7.0,0.0
4379,69.0,0.0,240.0,3.0,0.0
4380,33.0,130.0,60.0,7.0,0.0
4381,45.0,0.0,60.0,7.0,0.0
4382,69.0,0.0,240.0,7.0,0.0
4383,60.0,0.0,60.0,7.0,0.0
4384,71.0,50.0,60.0,7.0,0.0
4385,72.0,0.0,60.0,7.0,0.0
4386,65.0,0.0,240.0,3.0,0.0
4387,65.0,70.0,240.0,7.0,0.0
4388,74.0,10.0,180.0,7.0,0.0
4389,72.0,10.0,15.0,7.0,0.0
4390,74.0,10.0,15.0,7.0,0.0
4391,72.0,8.0,15.0,7.0,0.0
4392,74.0,8.0,15.0,7.0,0.0
4393,72.0,8.0,15.0,7.0,0.0
4394,71.0,6.0,15.0,7.0,0.0
4395,72.0,0.0,15.0,7.0,0.0
4396,71.0,60.0,60.0,7.0,0.0
4397,68.0,10.0,180.0,3.0,0.0
4398,68.0,0.0,180.0,7.0,0.0
4399,77.0,50.0,60.0,7.0,0.0
4400,76.0,0.0,60.0,7.0,0.0
4401,68.0,0.0,15.0,3.0,0.0
4402,74.0,0.0,60.0,7.0,0.0
4403,68.0,10.0,15.0,7.0,0.0
4404,69.0,0.0,15.0,3.0,0.0
4405,69.0,10.0,15.0,7.0,0.0
4406,68.0,8.0,15.0,3.0,0.0
4407,68.0,0.0,15.0,7.0,0.0
4408,69.0,6.0,15.0,7.0,0.0
4409,69.0,2.0,15.0,3.0,0.0
4410,68.0,2.0,15.0,3.0,0.0
4411,68.0,6.0,15.0,7.0,0.0
4412,66.0,2.0,15.0,3.0,0.0
4413,66.0,4.0,15.0,7.0,0.0
4414,68.0,2.0,15.0,3.0,0.0
4415,68.0,38.0,15.0,7.0,0.0
4416,72.0,20.0,30.0,7.0,0.0
4417,69.0,0.0,60.0,7.0,0.0
4418,76.0,5.0,120.0,7.0,0.0
4419,69.0,0.0,60.0,3.0,0.0
4420,88.0,0.0,240.0,0.0,0.0
4421,74.0,15.0,30.0,7.0,0.0
4422,72.0,30.0,15.0,7.0,0.0
4423,71.0,25.0,15.0,7.0,0.0
4424,78.0,5.0,60.0,7.0,0.0
4425,69.0,30.0,15.0,7.0,0.0
4426,67.0,25.0,15.0,7.0,0.0
4427,79.0,15.0,60.0,7.0,0.0
4428,66.0,30.0,15.0,7.0,0.0
4429,64.0,15.0,15.0,7.0,0.0
4430,84.0,0.0,240.0,0.0,0.0
4431,81.0,10.0,180.0,7.0,0.0
4432,63.0,30.0,15.0,7.0,0.0
4433,64.0,30.0,15.0,7.0,0.0
4434,66.0,30.0,15.0,7.0,0.0
4435,64.0,30.0,15.0,7.0,0.0
4436,63.0,30.0,15.0,7.0,0.0
4437,59.0,15.0,15.0,7.0,0.0
4438,79.0,5.0,15.0,7.0,0.0
4439,64.0,5.0,15.0,7.0,0.0
4440,81.0,10.0,15.0,7.0,0.0
4441,79.0,8.0,15.0,7.0,0.0
4442,59.0,1.0,15.0,7.0,0.0
4443,81.0,7.0,15.0,7.0,0.0
4444,79.0,8.0,15.0,7.0,0.0
4445,78.0,6.0,15.0,7.0,0.0
4446,79.0,15.0,15.0,7.0,0.0
4447,87.0,10.0,180.0,0.0,0.0
4448,69.0,30.0,15.0,7.0,0.0
4449,78.0,5.0,60.0,7.0,0.0
4450,59.0,25.0,15.0,7.0,0.0
4451,69.0,30.0,15.0,7.0,0.0
4452,84.0,5.0,60.0,7.0,0.0
4453,59.0,25.0,15.0,7.0,0.0
4454,67.0,30.0,15.0,7.0,0.0
4455,83.0,5.0,60.0,7.0,0.0
4456,59.0,15.0,15.0,7.0,0.0
4457,81.0,0.0,60.0,7.0,0.0
4458,66.0,5.0,15.0,7.0,0.0
4459,87.0,0.0,15.0,0.0,0.0
4460,88.0,10.0,15.0,0.0,0.0
4461,87.0,8.0,15.0,0.0,0.0
4462,88.0,7.0,15.0,0.0,0.0
4463,59.0,1.0,15.0,7.0,0.0
4464,87.0,8.0,15.0,0.0,0.0
4465,85.0,6.0,15.0,0.0,0.0
4466,87.0,15.0,15.0,0.0,0.0
4467,80.0,5.0,120.0,1.0,0.0
4468,64.0,0.0,120.0,3.0,0.0
4469,64.0,30.0,15.0,7.0,0.0
4470,80.0,5.0,60.0,7.0,0.0
4471,88.0,10.0,180.0,0.0,0.0
4472,76.0,25.0,15.0,7.0,0.0
4473,76.0,0.0,120.0,1.0,0.0
4474,89.0,0.0,60.0,7.0,0.0
4475,74.0,30.0,15.0,7.0,0.0
4476,76.0,25.0,15.0,7.0,0.0
4477,88.0,0.0,60.0,7.0,0.0
4478,72.0,30.0,15.0,7.0,0.0
4479,81.0,5.0,60.0,1.0,0.0
4480,66.0,0.0,60.0,3.0,0.0
4481,76.0,15.0,15.0,7.0,0.0
4482,71.0,30.0,15.0,7.0,0.0
4483,86.0,0.0,60.0,7.0,0.0
4484,68.0,0.0,60.0,3.0,0.0
4485,83.0,0.0,60.0,1.0,0.0
4486,88.0,15.0,60.0,0.0,0.0
4487,76.0,0.0,60.0,1.0,0.0
4488,76.0,15.0,15.0,7.0,0.0
4489,81.0,15.0,60.0,1.0,0.0
4490,84.0,30.0,15.0,7.0,0.0
4491,69.0,0.0,60.0,7.0,0.0
4492,69.0,0.0,60.0,3.0,0.0
4493,88.0,0.0,60.0,0.0,0.0
4494,81.0,15.0,240.0,2.0,0.0
4495,57.0,0.0,120.0,7.0,0.0
4496,76.0,0.0,60.0,1.0,0.0
4497,76.0,15.0,15.0,7.0,0.0
4498,77.0,30.0,15.0,7.0,0.0
4499,76.0,25.0,15.0,7.0,0.0
4500,59.0,0.0,60.0,7.0,0.0
4501,74.0,30.0,15.0,7.0,0.0
4502,72.0,25.0,15.0,7.0,0.0
4503,60.0,0.0,60.0,7.0,0.0
4504,71.0,30.0,15.0,7.0,0.0
4505,69.0,15.0,15.0,7.0,0.0
4506,68.0,30.0,15.0,7.0,0.0
4507,62.0,0.0,180.0,7.0,0.0
4508,77.0,4.0,240.0,2.0,0.0
4509,69.0,30.0,15.0,7.0,0.0
4510,71.0,30.0,15.0,7.0,0.0
4511,69.0,30.0,15.0,7.0,0.0
4512,68.0,30.0,15.0,7.0,0.0
4513,64.0,15.0,15.0,7.0,0.0
4514,69.0,5.0,15.0,7.0,0.0
4515,60.0,2.0,15.0,7.0,0.0
4516,62.0,2.0,15.0,7.0,0.0
4517,60.0,2.0,15.0,7.0,0.0
4518,64.0,1.0,15.0,7.0,0.0
4519,62.0,2.0,15.0,7.0,0.0
4520,60.0,2.0,15.0,7.0,0.0
4521,59.0,3.0,15.0,7.0,0.0
4522,60.0,0.0,15.0,7.0,0.0
4523,74.0,30.0,15.0,7.0,0.0
4524,80.0,10.0,180.0,2.0,0.0
4525,59.0,0.0,60.0,7.0,0.0
4526,64.0,25.0,15.0,7.0,0.0
4527,65.0,0.0,60.0,7.0,0.0
4528,71.0,0.0,60.0,1.0,0.0
4529,74.0,30.0,15.0,7.0,0.0
4530,83.0,0.0,60.0,0.0,0.0
4531,64.0,25.0,15.0,7.0,0.0
4532,72.0,0.0,60.0,7.0,0.0
4533,72.0,0.0,60.0,1.0,0.0
4534,84.0,0.0,60.0,0.0,0.0
4535,64.0,15.0,15.0,7.0,0.0
4536,80.0,5.0,15.0,2.0,0.0
4537,76.0,0.0,120.0,1.0,0.0
4538,88.0,15.0,120.0,0.0,0.0
4539,71.0,5.0,15.0,7.0,0.0
4540,62.0,0.0,60.0,7.0,0.0
4541,81.0,10.0,15.0,2.0,0.0
4542,80.0,8.0,15.0,2.0,0.0
4543,64.0,1.0,15.0,7.0,0.0
4544,81.0,7.0,15.0,2.0,0.0
4545,80.0,8.0,15.0,2.0,0.0
4546,78.0,6.0,15.0,2.0,0.0
4547,80.0,0.0,15.0,2.0,0.0
4548,60.0,20.0,30.0,7.0,0.0
4549,81.0,0.0,60.0,2.0,0.0
4550,69.0,0.0,60.0,7.0,0.0
4551,62.0,0.0,30.0,7.0,0.0
4552,60.0,25.0,15.0,7.0,0.0
4553,81.0,5.0,30.0,7.0,0.0
4554,64.0,5.0,120.0,7.0,0.0
4555,59.0,15.0,15.0,7.0,0.0
4556,83.0,15.0,30.0,7.0,0.0
4557,84.0,15.0,180.0,7.0,0.0
4558,57.0,30.0,15.0,7.0,0.0
4559,55.0,25.0,15.0,7.0,0.0
4560,66.0,5.0,30.0,7.0,0.0
4561,54.0,25.0,15.0,7.0,0.0
4562,52.0,15.0,15.0,7.0,0.0
4563,67.0,15.0,30.0,7.0,0.0
4564,69.0,0.0,60.0,7.0,0.0
4565,51.0,30.0,15.0,7.0,0.0
4566,47.0,15.0,15.0,7.0,0.0
4567,78.0,15.0,30.0,7.0,0.0
4568,83.0,5.0,120.0,7.0,0.0
4569,63.0,5.0,60.0,7.0,0.0
4570,71.0,0.0,120.0,4.0,0.0
4571,48.0,15.0,15.0,7.0,0.0
4572,59.0,10.0,120.0,4.0,0.0
4573,47.0,25.0,15.0,7.0,0.0
4574,48.0,15.0,15.0,7.0,0.0
4575,64.0,5.0,60.0,7.0,0.0
4576,71.0,15.0,30.0,7.0,0.0
4577,49.0,10.0,15.0,7.0,0.0
4578,50.0,15.0,15.0,7.0,0.0
4579,71.0,0.0,60.0,4.0,0.0
4580,59.0,15.0,60.0,4.0,0.0
4581,83.0,15.0,30.0,7.0,0.0
4582,81.0,15.0,120.0,7.0,0.0
4583,66.0,0.0,60.0,7.0,0.0
4584,51.0,15.0,15.0,7.0,0.0
4585,67.0,30.0,15.0,7.0,0.0
4586,59.0,0.0,120.0,4.0,0.0
4587,52.0,0.0,120.0,7.0,0.0
4588,40.0,0.0,120.0,7.0,0.0
4589,47.0,0.0,60.0,6.0,0.0
4590,76.0,0.0,240.0,7.0,0.0
4591,47.0,10.0,120.0,4.0,0.0
4592,71.0,15.0,15.0,7.0,0.0
4593,80.0,5.0,60.0,7.0,0.0
4594,72.0,30.0,15.0,7.0,0.0
4595,71.0,15.0,15.0,7.0,0.0
4596,59.0,0.0,60.0,4.0,0.0
4597,47.0,10.0,60.0,4.0,0.0
4598,54.0,5.0,60.0,7.0,0.0
4599,42.0,0.0,60.0,7.0,0.0
4600,81.0,0.0,60.0,7.0,0.0
4601,69.0,30.0,15.0,7.0,0.0
4602,67.0,15.0,15.0,7.0,0.0
4603,83.0,0.0,60.0,7.0,0.0
4604,59.0,0.0,60.0,4.0,0.0
4605,47.0,0.0,60.0,4.0,0.0
4606,43.0,5.0,60.0,7.0,0.0
4607,55.0,10.0,60.0,7.0,0.0
4608,66.0,30.0,15.0,7.0,0.0
4609,64.0,15.0,15.0,7.0,0.0
4610,47.0,15.0,60.0,6.0,0.0
4611,45.0,15.0,180.0,7.0,0.0
4612,57.0,0.0,180.0,7.0,0.0
4613,72.0,0.0,240.0,7.0,0.0
4614,84.0,0.0,180.0,7.0,0.0
4615,47.0,0.0,180.0,4.0,0.0
4616,63.0,30.0,15.0,7.0,0.0
4617,59.0,0.0,180.0,4.0,0.0
4618,64.0,15.0,15.0,7.0,0.0
4619,66.0,30.0,15.0,7.0,0.0
4620,64.0,30.0,15.0,7.0,0.0
4621,63.0,30.0,15.0,7.0,0.0
4622,59.0,15.0,15.0,7.0,0.0
4623,47.0,0.0,60.0,4.0,0.0
4624,83.0,0.0,60.0,7.0,0.0
4625,55.0,0.0,60.0,7.0,0.0
4626,43.0,15.0,60.0,7.0,0.0
4627,59.0,0.0,60.0,4.0,0.0
4628,47.0,0.0,60.0,6.0,0.0
4629,64.0,30.0,15.0,7.0,0.0
4630,59.0,15.0,15.0,7.0,0.0
4631,59.0,0.0,60.0,4.0,0.0
4632,47.0,10.0,60.0,6.0,0.0
4633,75.0,0.0,180.0,7.0,0.0
4634,42.0,5.0,60.0,7.0,0.0
4635,54.0,0.0,60.0,7.0,0.0
4636,69.0,30.0,15.0,7.0,0.0
4637,81.0,5.0,60.0,7.0,0.0
4638,47.0,0.0,60.0,4.0,0.0
4639,59.0,10.0,15.0,7.0,0.0
4640,47.0,0.0,60.0,4.0,0.0
4641,59.0,0.0,60.0,4.0,0.0
4642,69.0,30.0,15.0,7.0,0.0
4643,48.0,5.0,60.0,7.0,0.0
4644,60.0,0.0,60.0,7.0,0.0
4645,81.0,0.0,60.0,7.0,0.0
4646,47.0,10.0,60.0,6.0,0.0
4647,59.0,15.0,15.0,7.0,0.0
4648,47.0,10.0,60.0,6.0,0.0
4649,83.0,0.0,60.0,7.0,0.0
4650,59.0,0.0,60.0,4.0,0.0
4651,47.0,0.0,60.0,4.0,0.0
4652,67.0,30.0,15.0,7.0,0.0
4653,47.0,5.0,60.0,7.0,0.0
4654,59.0,15.0,15.0,7.0,0.0
4655,84.0,15.0,60.0,7.0,0.0
4656,75.0,0.0,15.0,7.0,0.0
4657,59.0,0.0,120.0,4.0,0.0
4658,47.0,0.0,60.0,6.0,0.0
4659,71.0,10.0,120.0,4.0,0.0
4660,45.0,0.0,60.0,7.0,0.0
4661,57.0,0.0,60.0,7.0,0.0
4662,66.0,5.0,15.0,7.0,0.0
4663,76.0,10.0,15.0,7.0,0.0
4664,75.0,8.0,15.0,7.0,0.0
4665,76.0,7.0,15.0,7.0,0.0
4666,59.0,1.0,15.0,7.0,0.0
4667,75.0,8.0,15.0,7.0,0.0
4668,73.0,6.0,15.0,7.0,0.0
4669,75.0,0.0,15.0,7.0,0.0
4670,76.0,0.0,15.0,7.0,0.0
4671,83.0,30.0,15.0,7.0,0.0
4672,44.0,5.0,60.0,7.0,0.0
4673,64.0,0.0,15.0,7.0,0.0
4674,52.0,0.0,60.0,6.0,0.0
4675,56.0,0.0,60.0,7.0,0.0
4676,64.0,15.0,15.0,7.0,0.0
4677,86.0,0.0,15.0,7.0,0.0
4678,71.0,0.0,15.0,7.0,0.0
4679,65.0,5.0,60.0,7.0,0.0
4680,68.0,30.0,15.0,7.0,0.0
4681,64.0,0.0,60.0,4.0,0.0
4682,52.0,0.0,60.0,4.0,0.0
4683,62.0,0.0,15.0,7.0,0.0
4684,64.0,0.0,60.0,5.0,0.0
4685,76.0,0.0,60.0,5.0,0.0
4686,52.0,10.0,60.0,6.0,0.0
4687,83.0,0.0,15.0,7.0,0.0
4688,53.0,0.0,60.0,7.0,0.0
4689,69.0,0.0,15.0,7.0,0.0
4690,64.0,0.0,15.0,7.0,0.0
4691,84.0,15.0,15.0,7.0,0.0
4692,52.0,0.0,60.0,7.0,0.0
4693,64.0,0.0,60.0,4.0,0.0
4694,52.0,0.0,60.0,4.0,0.0
4695,60.0,30.0,15.0,7.0,0.0
4696,52.0,10.0,60.0,6.0,0.0
4697,76.0,0.0,60.0,5.0,0.0
4698,64.0,0.0,60.0,5.0,0.0
4699,86.0,0.0,15.0,7.0,0.0
4700,71.0,0.0,15.0,7.0,0.0
4701,80.0,0.0,15.0,7.0,0.0
4702,88.0,0.0,15.0,7.0,0.0
4703,64.0,15.0,15.0,7.0,0.0
4704,52.0,0.0,60.0,6.0,0.0
4705,64.0,15.0,60.0,5.0,0.0
4706,76.0,0.0,60.0,5.0,0.0
4707,64.0,0.0,60.0,4.0,0.0
4708,59.0,0.0,15.0,7.0,0.0
4709,52.0,0.0,60.0,4.0,0.0
4710,81.0,30.0,15.0,7.0,0.0
4711,90.0,0.0,15.0,7.0,0.0
4712,50.0,0.0,60.0,7.0,0.0
4713,62.0,0.0,60.0,7.0,0.0
4714,83.0,0.0,15.0,7.0,0.0
4715,64.0,0.0,15.0,7.0,0.0
4716,92.0,15.0,15.0,7.0,0.0
4717,52.0,0.0,60.0,6.0,0.0
4718,93.0,0.0,240.0,7.0,0.0
4719,69.0,0.0,120.0,2.0,0.0
4720,57.0,0.0,240.0,3.0,0.0
4721,81.0,0.0,240.0,5.0,0.0
4722,81.0,5.0,120.0,1.0,0.0
4723,76.0,0.0,60.0,7.0,0.0
4724,52.0,0.0,60.0,4.0,0.0
4725,64.0,15.0,60.0,4.0,0.0
4726,69.0,10.0,120.0,4.0,0.0
4727,60.0,0.0,15.0,7.0,0.0
4728,48.0,30.0,15.0,7.0,0.0
4729,57.0,0.0,60.0,7.0,0.0
4730,81.0,0.0,120.0,0.0,0.0
4731,52.0,0.0,15.0,7.0,0.0
4732,64.0,15.0,15.0,7.0,0.0
4733,53.0,30.0,15.0,7.0,0.0
4734,65.0,0.0,15.0,7.0,0.0
4735,52.0,15.0,15.0,7.0,0.0
4736,64.0,0.0,15.0,7.0,0.0
4737,50.0,30.0,15.0,7.0,0.0
4738,59.0,0.0,60.0,3.0,0.0
4739,83.0,0.0,60.0,0.0,0.0
4740,62.0,0.0,15.0,7.0,0.0
4741,69.0,0.0,120.0,4.0,0.0
4742,83.0,0.0,60.0,1.0,0.0
4743,81.0,0.0,120.0,7.0,0.0
4744,71.0,5.0,60.0,2.0,0.0
4745,48.0,0.0,15.0,7.0,0.0
4746,64.0,0.0,15.0,7.0,0.0
4747,60.0,25.0,15.0,7.0,0.0
4748,84.0,0.0,60.0,1.0,0.0
4749,62.0,30.0,15.0,7.0,0.0
4750,72.0,0.0,60.0,2.0,0.0
4751,60.0,15.0,60.0,3.0,0.0
4752,47.0,0.0,15.0,7.0,0.0
4753,59.0,0.0,15.0,7.0,0.0
4754,84.0,0.0,60.0,0.0,0.0
4755,57.0,0.0,15.0,7.0,0.0
4756,60.0,15.0,15.0,7.0,0.0
4757,45.0,0.0,15.0,7.0,0.0
4758,86.0,15.0,180.0,1.0,0.0
4759,62.0,30.0,15.0,7.0,0.0
4760,86.0,0.0,180.0,0.0,0.0
4761,62.0,0.0,240.0,4.0,0.0
4762,50.0,0.0,15.0,7.0,0.0
4763,69.0,0.0,240.0,4.0,0.0
4764,89.0,10.0,240.0,7.0,0.0
4765,65.0,15.0,60.0,7.0,0.0
4766,50.0,0.0,240.0,3.0,0.0
4767,74.0,0.0,180.0,2.0,0.0
4768,62.0,0.0,180.0,3.0,0.0
4769,81.0,0.0,240.0,5.0,0.0
4770,38.0,15.0,15.0,7.0,0.0
4771,50.0,0.0,15.0,7.0,0.0
4772,52.0,30.0,15.0,7.0,0.0
4773,40.0,0.0,15.0,7.0,0.0
4774,38.0,30.0,15.0,7.0,0.0
4775,50.0,0.0,15.0,7.0,0.0
4776,50.0,30.0,15.0,7.0,0.0
4777,62.0,0.0,15.0,7.0,0.0
4778,74.0,0.0,15.0,7.0,0.0
4779,50.0,15.0,15.0,7.0,0.0
4780,38.0,0.0,15.0,7.0,0.0
4781,84.0,0.0,60.0,0.0,0.0
4782,76.0,0.0,15.0,7.0,0.0
4783,60.0,0.0,60.0,3.0,0.0
4784,72.0,0.0,60.0,2.0,0.0
4785,62.0,0.0,15.0,7.0,0.0
4786,84.0,0.0,60.0,1.0,0.0
4787,50.0,30.0,15.0,7.0,0.0
4788,50.0,0.0,15.0,7.0,0.0
4789,38.0,15.0,15.0,7.0,0.0
4790,77.0,0.0,15.0,7.0,0.0
4791,52.0,5.0,15.0,6.0,0.0
4792,59.0,0.0,60.0,3.0,0.0
4793,52.0,0.0,240.0,3.0,0.0
4794,76.0,0.0,180.0,5.0,0.0
4795,52.0,0.0,180.0,4.0,0.0
4796,83.0,0.0,60.0,1.0,0.0
4797,92.0,0.0,180.0,7.0,0.0
4798,64.0,0.0,180.0,4.0,0.0
4799,62.0,0.0,180.0,4.0,0.0
4800,50.0,5.0,15.0,7.0,0.0
4801,62.0,0.0,60.0,7.0,0.0
4802,71.0,0.0,60.0,2.0,0.0
4803,83.0,5.0,60.0,0.0,0.0
4804,80.0,0.0,180.0,7.0,0.0
4805,64.0,0.0,180.0,5.0,0.0
4806,52.0,10.0,15.0,6.0,0.0
4807,52.0,10.0,15.0,6.0,0.0
4808,40.0,5.0,15.0,7.0,0.0
4809,52.0,0.0,15.0,7.0,0.0
4810,52.0,5.0,15.0,6.0,0.0
4811,52.0,10.0,15.0,6.0,0.0
4812,52.0,10.0,15.0,6.0,0.0
4813,89.0,5.0,60.0,0.0,0.0
4814,52.0,0.0,15.0,6.0,0.0
4815,80.0,0.0,60.0,1.0,0.0
4816,65.0,0.0,60.0,3.0,0.0
4817,77.0,0.0,60.0,2.0,0.0
4818,50.0,0.0,15.0,7.0,0.0
4819,62.0,5.0,15.0,7.0,0.0
4820,52.0,10.0,15.0,6.0,0.0
4821,52.0,10.0,15.0,6.0,0.0
4822,52.0,0.0,15.0,7.0,0.0
4823,52.0,5.0,15.0,6.0,0.0
4824,40.0,5.0,15.0,7.0,0.0
4825,52.0,10.0,15.0,6.0,0.0
4826,52.0,10.0,15.0,6.0,0.0
4827,60.0,5.0,15.0,7.0,0.0
4828,81.0,0.0,60.0,1.0,0.0
4829,64.0,0.0,60.0,3.0,0.0
4830,76.0,0.0,60.0,2.0,0.0
4831,88.0,0.0,60.0,0.0,0.0
4832,52.0,0.0,15.0,6.0,0.0
4833,48.0,0.0,15.0,7.0,0.0
4834,52.0,10.0,15.0,6.0,0.0
4835,52.0,10.0,15.0,6.0,0.0
4836,52.0,5.0,15.0,6.0,0.0
4837,40.0,0.0,15.0,7.0,0.0
4838,52.0,5.0,15.0,7.0,0.0
4839,64.0,0.0,15.0,7.0,0.0
4840,52.0,10.0,15.0,6.0,0.0
4841,52.0,10.0,15.0,6.0,0.0
4842,52.0,0.0,15.0,6.0,0.0
4843,47.0,0.0,15.0,7.0,0.0
4844,86.0,0.0,60.0,0.0,0.0
4845,80.0,5.0,15.0,7.0,0.0
4846,92.0,0.0,15.0,7.0,0.0
4847,62.0,15.0,60.0,3.0,0.0
4848,52.0,5.0,15.0,7.0,0.0
4849,74.0,0.0,60.0,2.0,0.0
4850,64.0,0.0,60.0,5.0,0.0
4851,59.0,0.0,15.0,7.0,0.0
4852,83.0,0.0,60.0,1.0,0.0
4853,76.0,0.0,60.0,5.0,0.0
4854,52.0,0.0,60.0,4.0,0.0
4855,64.0,0.0,60.0,4.0,0.0
4856,71.0,0.0,60.0,4.0,0.0
4857,52.0,0.0,15.0,6.0,0.0
4858,81.0,0.0,15.0,7.0,0.0
4859,93.0,10.0,15.0,7.0,0.0
4860,92.0,0.0,15.0,7.0,0.0
4861,80.0,0.0,15.0,7.0,0.0
4862,52.0,8.0,15.0,6.0,0.0
4863,40.0,0.0,15.0,7.0,0.0
4864,52.0,1.0,15.0,7.0,0.0
4865,93.0,2.0,15.0,7.0,0.0
4866,81.0,0.0,15.0,7.0,0.0
4867,52.0,5.0,15.0,6.0,0.0
4868,64.0,0.0,15.0,7.0,0.0
4869,80.0,0.0,15.0,7.0,0.0
4870,92.0,4.0,15.0,7.0,0.0
4871,52.0,4.0,15.0,6.0,0.0
4872,90.0,0.0,15.0,7.0,0.0
4873,78.0,6.0,15.0,7.0,0.0
4874,52.0,0.0,15.0,6.0,0.0
4875,80.0,0.0,15.0,7.0,0.0
4876,92.0,0.0,15.0,7.0,0.0
4877,45.0,0.0,60.0,7.0,0.0
4878,57.0,30.0,15.0,7.0,0.0
4879,64.0,0.0,60.0,5.0,0.0
4880,52.0,0.0,60.0,6.0,0.0
4881,60.0,0.0,60.0,3.0,0.0
4882,57.0,0.0,60.0,3.0,0.0
4883,93.0,0.0,120.0,7.0,0.0
4884,76.0,15.0,60.0,5.0,0.0
4885,52.0,0.0,60.0,4.0,0.0
4886,84.0,10.0,300.0,0.0,0.0
4887,84.0,5.0,300.0,1.0,0.0
4888,72.0,0.0,60.0,4.0,0.0
4889,72.0,0.0,300.0,2.0,0.0
4890,81.0,0.0,120.0,7.0,0.0
4891,64.0,0.0,60.0,4.0,0.0
4892,69.0,15.0,15.0,7.0,0.0
4893,67.0,30.0,15.0,7.0,0.0
4894,71.0,10.0,60.0,2.0,0.0
4895,83.0,5.0,60.0,1.0,0.0
4896,69.0,15.0,15.0,7.0,0.0
4897,66.0,30.0,15.0,7.0,0.0
4898,69.0,10.0,60.0,2.0,0.0
4899,81.0,5.0,60.0,1.0,0.0
4900,81.0,0.0,60.0,7.0,0.0
4901,69.0,0.0,180.0,4.0,0.0
4902,69.0,15.0,15.0,7.0,0.0
4903,83.0,5.0,30.0,7.0,0.0
4904,67.0,0.0,60.0,2.0,0.0
4905,79.0,15.0,60.0,7.0,0.0
4906,79.0,0.0,60.0,1.0,0.0
4907,64.0,25.0,15.0,7.0,0.0
4908,84.0,0.0,30.0,7.0,0.0
4909,69.0,15.0,15.0,7.0,0.0
4910,38.0,0.0,15.0,7.0,0.0
4911,86.0,0.0,300.0,7.0,0.0
4912,66.0,0.0,120.0,2.0,0.0
4913,50.0,15.0,15.0,7.0,0.0
4914,78.0,15.0,30.0,7.0,0.0
4915,62.0,0.0,30.0,7.0,0.0
4916,78.0,0.0,120.0,1.0,0.0
4917,62.0,0.0,15.0,7.0,0.0
4918,50.0,15.0,15.0,7.0,0.0
4919,62.0,15.0,30.0,7.0,0.0
4920,62.0,10.0,120.0,4.0,0.0
4921,50.0,0.0,120.0,3.0,0.0
4922,76.0,0.0,60.0,2.0,0.0
4923,90.0,0.0,60.0,0.0,0.0
4924,88.0,5.0,60.0,1.0,0.0
4925,78.0,0.0,60.0,0.0,0.0
4926,48.0,15.0,15.0,7.0,0.0
4927,62.0,0.0,120.0,3.0,0.0
4928,60.0,0.0,15.0,7.0,0.0
4929,78.0,0.0,60.0,7.0,0.0
4930,50.0,25.0,15.0,7.0,0.0
4931,62.0,15.0,60.0,7.0,0.0
4932,79.0,0.0,60.0,7.0,0.0
4933,47.0,15.0,15.0,7.0,0.0
4934,59.0,0.0,15.0,7.0,0.0
4935,67.0,0.0,60.0,2.0,0.0
4936,74.0,0.0,60.0,2.0,0.0
4937,79.0,5.0,60.0,0.0,0.0
4938,91.0,0.0,60.0,0.0,0.0
4939,79.0,0.0,60.0,1.0,0.0
4940,86.0,0.0,60.0,1.0,0.0
4941,62.0,0.0,30.0,7.0,0.0
4942,50.0,15.0,15.0,7.0,0.0
4943,62.0,0.0,60.0,4.0,0.0
4944,64.0,0.0,30.0,7.0,0.0
4945,81.0,0.0,60.0,0.0,0.0
4946,93.0,0.0,60.0,0.0,0.0
4947,84.0,0.0,60.0,1.0,0.0
4948,81.0,0.0,60.0,1.0,0.0
4949,57.0,25.0,15.0,7.0,0.0
4950,52.0,5.0,30.0,3.0,0.0
4951,81.0,5.0,60.0,7.0,0.0
4952,64.0,0.0,30.0,3.0,0.0
4953,45.0,0.0,15.0,7.0,0.0
4954,72.0,0.0,60.0,2.0,0.0
4955,69.0,0.0,60.0,2.0,0.0
4956,50.0,15.0,15.0,7.0,0.0
4957,54.0,0.0,30.0,3.0,0.0
4958,66.0,10.0,30.0,7.0,0.0
4959,66.0,0.0,30.0,3.0,0.0
4960,62.0,0.0,15.0,7.0,0.0
4961,67.0,0.0,60.0,7.0,0.0
4962,83.0,15.0,30.0,7.0,0.0
4963,43.0,15.0,15.0,7.0,0.0
4964,55.0,0.0,15.0,7.0,0.0
4965,83.0,0.0,60.0,1.0,0.0
4966,55.0,0.0,60.0,3.0,0.0
4967,67.0,5.0,120.0,2.0,0.0
4968,67.0,0.0,60.0,3.0,0.0
4969,67.0,0.0,120.0,4.0,0.0
4970,95.0,15.0,60.0,0.0,0.0
4971,83.0,0.0,60.0,0.0,0.0
4972,57.0,0.0,15.0,7.0,0.0
4973,45.0,15.0,15.0,7.0,0.0
4974,72.0,0.0,15.0,7.0,0.0
4975,71.0,0.0,15.0,7.0,0.0
4976,43.0,0.0,15.0,7.0,0.0
4977,55.0,30.0,15.0,7.0,0.0
4978,69.0,0.0,15.0,7.0,0.0
4979,54.0,0.0,15.0,7.0,0.0
4980,42.0,25.0,15.0,7.0,0.0
4981,52.0,0.0,15.0,7.0,0.0
4982,55.0,15.0,240.0,3.0,0.0
4983,67.0,0.0,240.0,3.0,0.0
4984,40.0,0.0,15.0,7.0,0.0
4985,69.0,0.0,60.0,4.0,0.0
4986,67.0,30.0,15.0,7.0,0.0
4987,69.0,5.0,60.0,2.0,0.0
4988,38.0,0.0,15.0,7.0,0.0
4989,50.0,0.0,15.0,7.0,0.0
4990,66.0,25.0,15.0,7.0,0.0
4991,64.0,0.0,15.0,7.0,0.0
4992,71.0,0.0,60.0,2.0,0.0
4993,71.0,45.0,60.0,4.0,0.0
4994,36.0,30.0,15.0,7.0,0.0
4995,48.0,0.0,15.0,7.0,0.0
4996,47.0,0.0,15.0,7.0,0.0
4997,35.0,15.0,15.0,7.0,0.0
4998,62.0,0.0,15.0,7.0,0.0
4999,72.0,0.0,180.0,4.0,0.0
5000,45.0,15.0,60.0,7.0,0.0
5001,60.0,0.0,60.0,7.0,0.0
5002,72.0,5.0,180.0,2.0,0.0
5003,33.0,0.0,60.0,7.0,0.0
5004,57.0,0.0,15.0,7.0,0.0
5005,72.0,15.0,15.0,7.0,0.0
5006,74.0,30.0,15.0,7.0,0.0
5007,59.0,0.0,15.0,7.0,0.0
5008,76.0,15.0,15.0,7.0,0.0
5009,60.0,0.0,15.0,7.0,0.0
5010,66.0,15.0,180.0,3.0,0.0
5011,78.0,0.0,15.0,7.0,0.0
5012,54.0,0.0,180.0,3.0,0.0
5013,62.0,30.0,15.0,7.0,0.0
5014,79.0,0.0,15.0,7.0,0.0
5015,64.0,25.0,15.0,7.0,0.0
5016,71.0,45.0,60.0,4.0,0.0
5017,71.0,0.0,60.0,2.0,0.0
5018,81.0,30.0,15.0,7.0,0.0
5019,66.0,0.0,15.0,7.0,0.0
5020,83.0,15.0,15.0,7.0,0.0
5021,67.0,0.0,15.0,7.0,0.0
5022,69.0,0.0,60.0,7.0,0.0
5023,69.0,5.0,120.0,2.0,0.0
5024,84.0,0.0,60.0,7.0,0.0
5025,69.0,0.0,120.0,4.0,0.0
5026,47.0,0.0,15.0,7.0,0.0
5027,74.0,15.0,15.0,7.0,0.0
5028,59.0,0.0,15.0,7.0,0.0
5029,67.0,15.0,30.0,3.0,0.0
5030,57.0,0.0,15.0,7.0,0.0
5031,55.0,0.0,30.0,3.0,0.0
5032,45.0,0.0,15.0,7.0,0.0
5033,72.0,15.0,15.0,7.0,0.0
5034,55.0,0.0,15.0,7.0,0.0
5035,43.0,0.0,15.0,7.0,0.0
5036,71.0,25.0,15.0,7.0,0.0
5037,71.0,0.0,60.0,2.0,0.0
5038,54.0,0.0,15.0,7.0,0.0
5039,42.0,30.0,15.0,7.0,0.0
5040,57.0,5.0,240.0,3.0,0.0
5041,69.0,0.0,240.0,3.0,0.0
5042,71.0,5.0,60.0,4.0,0.0
5043,69.0,0.0,15.0,7.0,0.0
5044,67.0,25.0,15.0,7.0,0.0
5045,40.0,0.0,15.0,7.0,0.0
5046,52.0,0.0,15.0,7.0,0.0
5047,66.0,0.0,15.0,7.0,0.0
5048,72.0,45.0,60.0,2.0,0.0
5049,50.0,0.0,15.0,7.0,0.0
5050,38.0,30.0,15.0,7.0,0.0
5051,72.0,0.0,60.0,4.0,0.0
5052,64.0,0.0,15.0,7.0,0.0
5053,48.0,15.0,15.0,7.0,0.0
5054,36.0,0.0,15.0,7.0,0.0
5055,62.0,0.0,60.0,7.0,0.0
5056,74.0,5.0,180.0,4.0,0.0
5057,35.0,0.0,60.0,7.0,0.0
5058,47.0,15.0,60.0,7.0,0.0
5059,74.0,0.0,180.0,2.0,0.0
5060,74.0,15.0,15.0,7.0,0.0
5061,59.0,0.0,15.0,7.0,0.0
5062,60.0,0.0,15.0,7.0,0.0
5063,76.0,30.0,15.0,7.0,0.0
5064,62.0,25.0,15.0,7.0,0.0
5065,78.0,0.0,15.0,7.0,0.0
5066,64.0,30.0,15.0,7.0,0.0
5067,55.0,0.0,60.0,3.0,0.0
5068,67.0,10.0,60.0,3.0,0.0
5069,79.0,0.0,300.0,1.0,0.0
5070,79.0,0.0,15.0,7.0,0.0
5071,66.0,15.0,15.0,7.0,0.0
5072,81.0,0.0,15.0,7.0,0.0
5073,72.0,0.0,60.0,2.0,0.0
5074,83.0,30.0,15.0,7.0,0.0
5075,72.0,30.0,60.0,4.0,0.0
5076,67.0,0.0,15.0,7.0,0.0
5077,69.0,0.0,15.0,7.0,0.0
5078,84.0,15.0,15.0,7.0,0.0
5079,71.0,0.0,120.0,2.0,0.0
5080,71.0,10.0,120.0,4.0,0.0
5081,71.0,0.0,120.0,7.0,0.0
5082,86.0,60.0,30.0,7.0,0.0
5083,87.0,30.0,30.0,7.0,0.0
5084,83.0,0.0,120.0,7.0,0.0
5085,71.0,30.0,150.0,3.0,0.0
5086,73.0,0.0,60.0,7.0,0.0
5087,52.0,5.0,240.0,7.0,0.0
5088,88.0,10.0,30.0,7.0,0.0
5089,59.0,0.0,60.0,4.0,0.0
5090,73.0,0.0,60.0,2.0,0.0
5091,47.0,10.0,15.0,6.0,0.0
5092,40.0,0.0,240.0,7.0,0.0
5093,47.0,10.0,15.0,6.0,0.0
5094,47.0,0.0,15.0,6.0,0.0
5095,47.0,10.0,15.0,6.0,0.0
5096,47.0,10.0,15.0,6.0,0.0
5097,47.0,10.0,15.0,6.0,0.0
5098,47.0,10.0,15.0,6.0,0.0
5099,78.0,0.0,60.0,1.0,0.0
5100,75.0,0.0,60.0,7.0,0.0
5101,59.0,0.0,60.0,4.0,0.0
5102,75.0,30.0,60.0,2.0,0.0
5103,90.0,0.0,30.0,7.0,0.0
5104,81.0,0.0,30.0,7.0,0.0
5105,47.0,10.0,15.0,6.0,0.0
5106,47.0,10.0,15.0,6.0,0.0
5107,47.0,10.0,15.0,6.0,0.0
5108,47.0,10.0,15.0,6.0,0.0
5109,47.0,0.0,15.0,6.0,0.0
5110,64.0,0.0,270.0,2.0,0.0
5111,76.0,0.0,360.0,5.0,0.0
5112,64.0,0.0,360.0,5.0,0.0
5113,76.0,0.0,120.0,7.0,0.0
5114,79.0,0.0,30.0,7.0,0.0
5115,91.0,0.0,30.0,7.0,0.0
5116,76.0,15.0,270.0,2.0,0.0
5117,52.0,10.0,120.0,6.0,0.0
5118,76.0,15.0,60.0,1.0,0.0
5119,59.0,0.0,60.0,4.0,0.0
5120,64.0,0.0,360.0,4.0,0.0
5121,52.0,0.0,360.0,4.0,0.0
5122,69.0,0.0,30.0,3.0,0.0
5123,83.0,0.0,15.0,1.0,0.0
5124,71.0,0.0,15.0,3.0,0.0
5125,79.0,30.0,15.0,1.0,0.0
5126,67.0,0.0,15.0,3.0,0.0
5127,78.0,0.0,15.0,1.0,0.0
5128,66.0,0.0,15.0,3.0,0.0
5129,69.0,15.0,15.0,3.0,0.0
5130,81.0,0.0,15.0,1.0,0.0
5131,52.0,10.0,60.0,6.0,0.0
5132,76.0,0.0,15.0,1.0,0.0
5133,79.0,30.0,15.0,1.0,0.0
5134,42.0,5.0,60.0,7.0,0.0
5135,54.0,0.0,60.0,7.0,0.0
5136,79.0,0.0,180.0,7.0,0.0
5137,64.0,5.0,180.0,7.0,0.0
5138,64.0,0.0,15.0,3.0,0.0
5139,67.0,0.0,15.0,3.0,0.0
5140,62.0,15.0,15.0,3.0,0.0
5141,66.0,0.0,15.0,3.0,0.0
5142,78.0,0.0,15.0,1.0,0.0
5143,74.0,0.0,15.0,1.0,0.0
5144,76.0,0.0,15.0,1.0,0.0
5145,52.0,0.0,60.0,6.0,0.0
5146,55.0,0.0,60.0,7.0,0.0
5147,43.0,30.0,60.0,7.0,0.0
5148,60.0,30.0,15.0,3.0,0.0
5149,64.0,0.0,15.0,3.0,0.0
5150,72.0,0.0,15.0,1.0,0.0
5151,71.0,0.0,15.0,1.0,0.0
5152,62.0,0.0,15.0,3.0,0.0
5153,74.0,15.0,15.0,1.0,0.0
5154,59.0,0.0,15.0,3.0,0.0
5155,60.0,0.0,60.0,3.0,0.0
5156,69.0,0.0,60.0,1.0,0.0
5157,72.0,0.0,60.0,1.0,0.0
5158,52.0,10.0,60.0,6.0,0.0
5159,57.0,0.0,60.0,3.0,0.0
5160,45.0,0.0,180.0,7.0,0.0
5161,72.0,0.0,15.0,2.0,0.0
5162,81.0,15.0,15.0,0.0,0.0
5163,69.0,0.0,15.0,2.0,0.0
5164,84.0,0.0,15.0,0.0,0.0
5165,86.0,0.0,15.0,0.0,0.0
5166,76.0,5.0,30.0,7.0,0.0
5167,71.0,0.0,15.0,2.0,0.0
5168,74.0,0.0,15.0,2.0,0.0
5169,83.0,25.0,15.0,0.0,0.0
5170,60.0,0.0,30.0,7.0,0.0
5171,88.0,0.0,15.0,0.0,0.0
5172,76.0,0.0,15.0,2.0,0.0
5173,72.0,15.0,15.0,2.0,0.0
5174,59.0,0.0,30.0,7.0,0.0
5175,74.0,15.0,30.0,7.0,0.0
5176,84.0,0.0,15.0,0.0,0.0
5177,74.0,30.0,15.0,2.0,0.0
5178,72.0,10.0,240.0,4.0,0.0
5179,69.0,0.0,240.0,4.0,0.0
5180,78.0,0.0,15.0,2.0,0.0
5181,72.0,10.0,60.0,7.0,0.0
5182,86.0,0.0,15.0,0.0,0.0
5183,90.0,0.0,15.0,0.0,0.0
5184,57.0,0.0,60.0,7.0,0.0
5185,81.0,0.0,240.0,5.0,0.0
5186,84.0,5.0,180.0,7.0,0.0
5187,79.0,0.0,15.0,2.0,0.0
5188,88.0,0.0,15.0,0.0,0.0
5189,91.0,15.0,15.0,0.0,0.0
5190,76.0,0.0,15.0,2.0,0.0
5191,90.0,30.0,15.0,0.0,0.0
5192,81.0,0.0,15.0,2.0,0.0
5193,78.0,0.0,15.0,2.0,0.0
5194,93.0,0.0,15.0,0.0,0.0
5195,43.0,15.0,60.0,7.0,0.0
5196,55.0,0.0,60.0,7.0,0.0
5197,95.0,0.0,15.0,0.0,0.0
5198,91.0,0.0,15.0,0.0,0.0
5199,79.0,0.0,15.0,2.0,0.0
5200,83.0,15.0,15.0,2.0,0.0
5201,54.0,5.0,120.0,7.0,0.0
5202,81.0,15.0,15.0,2.0,0.0
5203,84.0,0.0,15.0,2.0,0.0
5204,93.0,15.0,30.0,0.0,0.0
5205,96.0,0.0,30.0,0.0,0.0
5206,42.0,0.0,120.0,7.0,0.0
5207,72.0,0.0,15.0,2.0,0.0
5208,69.0,25.0,15.0,3.0,0.0
5209,81.0,0.0,15.0,1.0,0.0
5210,84.0,0.0,15.0,1.0,0.0
5211,72.0,0.0,15.0,2.0,0.0
5212,81.0,5.0,30.0,7.0,0.0
5213,84.0,0.0,15.0,1.0,0.0
5214,81.0,0.0,15.0,1.0,0.0
5215,69.0,25.0,15.0,3.0,0.0
5216,79.0,0.0,15.0,1.0,0.0
5217,83.0,0.0,15.0,1.0,0.0
5218,71.0,0.0,15.0,3.0,0.0
5219,67.0,0.0,15.0,3.0,0.0
5220,71.0,15.0,15.0,2.0,0.0
5221,79.0,0.0,30.0,7.0,0.0
5222,55.0,0.0,60.0,7.0,0.0
5223,66.0,0.0,180.0,7.0,0.0
5224,43.0,5.0,60.0,7.0,0.0
5225,78.0,10.0,60.0,7.0,0.0
5226,66.0,0.0,15.0,3.0,0.0
5227,78.0,0.0,240.0,5.0,0.0
5228,66.0,0.0,240.0,4.0,0.0
5229,69.0,0.0,180.0,4.0,0.0
5230,69.0,30.0,15.0,3.0,0.0
5231,69.0,0.0,15.0,2.0,0.0
5232,78.0,0.0,15.0,1.0,0.0
5233,81.0,0.0,180.0,7.0,0.0
5234,81.0,0.0,15.0,1.0,0.0
5235,79.0,0.0,15.0,1.0,0.0
5236,67.0,0.0,15.0,3.0,0.0
5237,64.0,0.0,15.0,3.0,0.0
5238,79.0,0.0,15.0,2.0,0.0
5239,76.0,15.0,15.0,1.0,0.0
5240,57.0,30.0,60.0,7.0,0.0
5241,78.0,0.0,15.0,2.0,0.0
5242,63.0,0.0,15.0,3.0,0.0
5243,66.0,30.0,15.0,3.0,0.0
5244,78.0,0.0,15.0,1.0,0.0
5245,45.0,0.0,60.0,7.0,0.0
5246,75.0,0.0,15.0,1.0,0.0
5247,61.0,15.0,15.0,3.0,0.0
5248,76.0,0.0,15.0,2.0,0.0
5249,64.0,0.0,15.0,3.0,0.0
5250,76.0,0.0,15.0,1.0,0.0
5251,73.0,0.0,15.0,1.0,0.0
5252,75.0,15.0,60.0,1.0,0.0
5253,71.0,0.0,60.0,1.0,0.0
5254,75.0,15.0,30.0,2.0,0.0
5255,47.0,0.0,60.0,6.0,0.0
5256,47.0,5.0,180.0,7.0,0.0
5257,59.0,0.0,60.0,3.0,0.0
5258,63.0,0.0,60.0,3.0,0.0
5259,75.0,0.0,30.0,2.0,0.0
5260,87.0,15.0,15.0,0.0,0.0
5261,63.0,5.0,30.0,7.0,0.0
5262,47.0,0.0,60.0,6.0,0.0
5263,71.0,0.0,60.0,4.0,0.0
5264,85.0,0.0,15.0,0.0,0.0
5265,73.0,25.0,15.0,2.0,0.0
5266,78.0,0.0,30.0,7.0,0.0
5267,76.0,0.0,30.0,7.0,0.0
5268,71.0,15.0,15.0,2.0,0.0
5269,75.0,0.0,15.0,2.0,0.0
5270,87.0,0.0,15.0,0.0,0.0
5271,83.0,0.0,15.0,0.0,0.0
5272,61.0,15.0,30.0,7.0,0.0
5273,83.0,0.0,150.0,7.0,0.0
5274,71.0,0.0,240.0,4.0,0.0
5275,83.0,0.0,240.0,5.0,0.0
5276,73.0,0.0,15.0,2.0,0.0
5277,88.0,0.0,15.0,0.0,0.0
5278,85.0,0.0,15.0,0.0,0.0
5279,47.0,10.0,60.0,6.0,0.0
5280,59.0,15.0,30.0,7.0,0.0
5281,75.0,0.0,60.0,7.0,0.0
5282,76.0,15.0,15.0,2.0,0.0
5283,63.0,15.0,15.0,3.0,0.0
5284,66.0,0.0,15.0,3.0,0.0
5285,90.0,0.0,15.0,0.0,0.0
5286,87.0,0.0,15.0,0.0,0.0
5287,78.0,0.0,15.0,2.0,0.0
5288,75.0,0.0,15.0,2.0,0.0
5289,57.0,0.0,60.0,7.0,0.0
5290,71.0,0.0,90.0,1.0,0.0
5291,75.0,5.0,60.0,7.0,0.0
5292,45.0,0.0,60.0,7.0,0.0
5293,66.0,15.0,30.0,7.0,0.0
5294,88.0,0.0,15.0,0.0,0.0
5295,91.0,15.0,15.0,0.0,0.0
5296,83.0,0.0,90.0,1.0,0.0
5297,76.0,0.0,15.0,2.0,0.0
5298,47.0,5.0,60.0,6.0,0.0
5299,61.0,0.0,15.0,3.0,0.0
5300,64.0,0.0,15.0,3.0,0.0
5301,79.0,0.0,15.0,2.0,0.0
5302,90.0,0.0,15.0,0.0,0.0
5303,59.0,15.0,15.0,3.0,0.0
5304,63.0,0.0,15.0,3.0,0.0
5305,93.0,0.0,15.0,0.0,0.0
5306,81.0,0.0,15.0,2.0,0.0
5307,78.0,0.0,15.0,2.0,0.0
5308,59.0,5.0,60.0,4.0,0.0
5309,64.0,0.0,60.0,3.0,0.0
5310,64.0,0.0,60.0,7.0,0.0
5311,59.0,0.0,60.0,3.0,0.0
5312,52.0,0.0,60.0,6.0,0.0
5313,76.0,0.0,15.0,7.0,0.0
5314,43.0,5.0,15.0,7.0,0.0
5315,55.0,0.0,15.0,7.0,0.0
5316,95.0,0.0,60.0,0.0,0.0
5317,91.0,0.0,60.0,0.0,0.0
5318,71.0,0.0,120.0,5.0,0.0
5319,45.0,5.0,15.0,7.0,0.0
5320,57.0,5.0,15.0,7.0,0.0
5321,43.0,5.0,15.0,7.0,0.0
5322,55.0,5.0,15.0,7.0,0.0
5323,45.0,5.0,15.0,7.0,0.0
5324,70.0,0.0,30.0,1.0,0.0
5325,82.0,5.0,30.0,1.0,0.0
5326,82.0,5.0,15.0,7.0,0.0
5327,70.0,0.0,15.0,7.0,0.0
5328,57.0,5.0,15.0,7.0,0.0
5329,43.0,0.0,15.0,7.0,0.0
5330,55.0,5.0,15.0,7.0,0.0
5331,45.0,5.0,15.0,7.0,0.0
5332,57.0,0.0,15.0,7.0,0.0
5333,43.0,5.0,15.0,7.0,0.0
5334,71.0,0.0,15.0,7.0,0.0
5335,83.0,0.0,15.0,7.0,0.0
5336,59.0,0.0,120.0,3.0,0.0
5337,65.0,0.0,120.0,7.0,0.0
5338,59.0,0.0,60.0,4.0,0.0
5339,55.0,0.0,15.0,7.0,0.0
5340,83.0,0.0,120.0,0.0,0.0
5341,95.0,0.0,120.0,0.0,0.0
5342,71.0,1.0,30.0,1.0,0.0
5343,83.0,0.0,30.0,1.0,0.0
5344,65.0,0.0,120.0,3.0,0.0
5345,45.0,5.0,15.0,7.0,0.0
5346,57.0,5.0,15.0,7.0,0.0
5347,43.0,5.0,15.0,7.0,0.0
5348,55.0,3.0,15.0,7.0,0.0
5349,45.0,5.0,15.0,7.0,0.0
5350,85.0,0.0,15.0,7.0,0.0
5351,73.0,5.0,30.0,1.0,0.0
5352,73.0,0.0,15.0,7.0,0.0
5353,57.0,2.0,15.0,7.0,0.0
5354,85.0,0.0,30.0,1.0,0.0
5355,43.0,4.0,15.0,7.0,0.0
5356,55.0,4.0,15.0,7.0,0.0
5357,45.0,3.0,15.0,7.0,0.0
5358,57.0,3.0,15.0,7.0,0.0
5359,43.0,5.0,15.0,7.0,0.0
5360,55.0,5.0,15.0,7.0,0.0
5361,45.0,5.0,15.0,7.0,0.0
5362,62.0,0.0,60.0,4.0,0.0
5363,71.0,0.0,120.0,4.0,0.0
5364,74.0,0.0,15.0,7.0,0.0
5365,86.0,0.0,60.0,1.0,0.0
5366,86.0,5.0,15.0,7.0,0.0
5367,59.0,0.0,60.0,4.0,0.0
5368,83.0,0.0,120.0,5.0,0.0
5369,57.0,0.0,15.0,7.0,0.0
5370,47.0,5.0,60.0,6.0,0.0
5371,74.0,0.0,60.0,1.0,0.0
5372,71.0,0.0,120.0,5.0,0.0
5373,43.0,0.0,15.0,7.0,0.0
5374,55.0,5.0,15.0,7.0,0.0
5375,45.0,5.0,15.0,7.0,0.0
5376,57.0,5.0,15.0,7.0,0.0
5377,43.0,5.0,15.0,7.0,0.0
5378,87.0,0.0,15.0,7.0,0.0
5379,75.0,5.0,15.0,7.0,0.0
5380,55.0,5.0,15.0,7.0,0.0
5381,45.0,0.0,15.0,7.0,0.0
5382,57.0,5.0,15.0,7.0,0.0
5383,43.0,5.0,15.0,7.0,0.0
5384,55.0,0.0,15.0,7.0,0.0
5385,45.0,5.0,15.0,7.0,0.0
5386,95.0,5.0,30.0,0.0,0.0
5387,83.0,0.0,30.0,0.0,0.0
5388,57.0,5.0,15.0,7.0,0.0
5389,88.0,0.0,15.0,7.0,0.0
5390,71.0,0.0,60.0,1.0,0.0
5391,83.0,0.0,60.0,1.0,0.0
5392,59.0,18.0,60.0,7.0,0.0
5393,76.0,5.0,15.0,7.0,0.0
5394,59.0,0.0,60.0,3.0,0.0
5395,59.0,0.0,60.0,4.0,0.0
5396,43.0,0.0,15.0,7.0,0.0
5397,55.0,5.0,15.0,7.0,0.0
5398,45.0,5.0,15.0,7.0,0.0
5399,57.0,5.0,15.0,7.0,0.0
5400,43.0,5.0,15.0,7.0,0.0
5401,89.0,0.0,30.0,0.0,0.0
5402,77.0,0.0,15.0,7.0,0.0
5403,89.0,0.0,15.0,7.0,0.0
5404,77.0,0.0,30.0,0.0,0.0
5405,55.0,0.0,15.0,7.0,0.0
5406,45.0,5.0,15.0,7.0,0.0
5407,57.0,5.0,15.0,7.0,0.0
5408,43.0,5.0,15.0,7.0,0.0
5409,55.0,0.0,15.0,7.0,0.0
5410,78.0,0.0,60.0,5.0,0.0
5411,66.0,18.0,60.0,4.0,0.0
5412,42.0,13.0,30.0,7.0,0.0
5413,90.0,0.0,60.0,0.0,0.0
5414,78.0,0.0,60.0,0.0,0.0
5415,54.0,0.0,60.0,7.0,0.0
5416,90.0,20.0,15.0,7.0,0.0
5417,78.0,0.0,180.0,7.0,0.0
5418,70.0,0.0,60.0,1.0,0.0
5419,82.0,0.0,60.0,1.0,0.0
5420,54.0,0.0,60.0,3.0,0.0
5421,66.0,0.0,60.0,3.0,0.0
5422,90.0,7.0,15.0,7.0,0.0
5423,90.0,2.0,15.0,7.0,0.0
5424,66.0,0.0,960.0,4.0,0.0
5425,58.0,0.0,120.0,7.0,0.0
5426,90.0,20.0,15.0,7.0,0.0
5427,90.0,20.0,15.0,7.0,0.0
5428,90.0,20.0,15.0,7.0,0.0
5429,90.0,20.0,15.0,7.0,0.0
5430,66.0,10.0,240.0,3.0,0.0
5431,90.0,0.0,240.0,0.0,0.0
5432,90.0,20.0,15.0,7.0,0.0
5433,90.0,2.0,15.0,7.0,0.0
5434,90.0,20.0,15.0,7.0,0.0
5435,78.0,0.0,120.0,1.0,0.0
5436,78.0,10.0,120.0,2.0,0.0
5437,59.0,0.0,30.0,7.0,0.0
5438,80.0,0.0,30.0,7.0,0.0
5439,90.0,2.0,15.0,7.0,0.0
5440,81.0,0.0,30.0,7.0,0.0
5441,61.0,0.0,30.0,7.0,0.0
5442,90.0,2.0,15.0,7.0,0.0
5443,42.0,0.0,240.0,7.0,0.0
5444,83.0,0.0,60.0,7.0,0.0
5445,91.0,0.0,240.0,0.0,0.0
5446,62.0,0.0,60.0,7.0,0.0
5447,91.0,20.0,15.0,7.0,0.0
5448,67.0,0.0,240.0,3.0,0.0
5449,91.0,20.0,15.0,7.0,0.0
5450,91.0,2.0,15.0,7.0,0.0
5451,91.0,20.0,15.0,7.0,0.0
5452,64.0,0.0,30.0,7.0,0.0
5453,76.0,0.0,30.0,2.0,0.0
5454,76.0,0.0,30.0,1.0,0.0
5455,85.0,0.0,30.0,7.0,0.0
5456,91.0,2.0,15.0,7.0,0.0
5457,86.0,8.0,30.0,7.0,0.0
5458,74.0,0.0,30.0,2.0,0.0
5459,74.0,0.0,30.0,1.0,0.0
5460,66.0,0.0,30.0,7.0,0.0
5461,91.0,2.0,15.0,7.0,0.0
5462,88.0,0.0,60.0,7.0,0.0
5463,91.0,20.0,15.0,7.0,0.0
5464,64.0,0.0,240.0,3.0,0.0
5465,88.0,10.0,240.0,0.0,0.0
5466,67.0,0.0,60.0,7.0,0.0
5467,72.0,0.0,60.0,1.0,0.0
5468,72.0,0.0,60.0,2.0,0.0
5469,91.0,20.0,15.0,7.0,0.0
5470,91.0,12.0,15.0,7.0,0.0
5471,76.0,0.0,120.0,1.0,0.0
5472,84.0,0.0,30.0,7.0,0.0
5473,91.0,20.0,15.0,7.0,0.0
5474,64.0,0.0,30.0,7.0,0.0
5475,76.0,10.0,120.0,2.0,0.0
5476,91.0,2.0,15.0,7.0,0.0
5477,62.0,0.0,30.0,7.0,0.0
5478,83.0,0.0,30.0,7.0,0.0
5479,91.0,2.0,15.0,7.0,0.0
5480,66.0,0.0,240.0,3.0,0.0
5481,61.0,0.0,60.0,7.0,0.0
5482,82.0,8.0,60.0,7.0,0.0
5483,91.0,8.0,30.0,7.0,0.0
5484,90.0,30.0,240.0,0.0,0.0
5485,42.0,0.0,240.0,7.0,0.0
5486,90.0,20.0,15.0,7.0,0.0
5487,90.0,2.0,15.0,7.0,0.0
5488,90.0,20.0,15.0,7.0,0.0
5489,74.0,0.0,30.0,2.0,0.0
5490,74.0,0.0,30.0,1.0,0.0
5491,62.0,0.0,30.0,7.0,0.0
5492,83.0,0.0,30.0,7.0,0.0
5493,90.0,2.0,15.0,7.0,0.0
5494,73.0,8.0,30.0,1.0,0.0
5495,85.0,0.0,30.0,7.0,0.0
5496,64.0,0.0,30.0,7.0,0.0
5497,73.0,0.0,30.0,2.0,0.0
5498,90.0,2.0,15.0,7.0,0.0
5499,71.0,0.0,60.0,1.0,0.0
5500,71.0,0.0,60.0,2.0,0.0
5501,66.0,0.0,60.0,7.0,0.0
5502,86.0,0.0,60.0,7.0,0.0
5503,90.0,20.0,15.0,7.0,0.0
5504,62.0,0.0,240.0,3.0,0.0
5505,86.0,10.0,240.0,0.0,0.0
5506,90.0,20.0,15.0,7.0,0.0
5507,90.0,12.0,15.0,7.0,0.0
5508,74.0,10.0,120.0,2.0,0.0
5509,74.0,0.0,120.0,1.0,0.0
5510,62.0,0.0,30.0,7.0,0.0
5511,83.0,0.0,30.0,7.0,0.0
5512,90.0,20.0,15.0,7.0,0.0
5513,90.0,2.0,15.0,7.0,0.0
5514,61.0,0.0,30.0,7.0,0.0
5515,81.0,0.0,30.0,7.0,0.0
5516,90.0,2.0,15.0,7.0,0.0
5517,64.0,0.0,300.0,3.0,0.0
5518,88.0,0.0,300.0,0.0,0.0
5519,59.0,0.0,60.0,7.0,0.0
5520,42.0,0.0,240.0,7.0,0.0
5521,80.0,0.0,60.0,7.0,0.0
5522,90.0,8.0,30.0,7.0,0.0
5523,88.0,20.0,15.0,7.0,0.0
5524,88.0,2.0,15.0,7.0,0.0
5525,73.0,0.0,30.0,1.0,0.0
5526,61.0,0.0,30.0,7.0,0.0
5527,88.0,20.0,15.0,7.0,0.0
5528,82.0,0.0,30.0,7.0,0.0
5529,73.0,0.0,30.0,2.0,0.0
5530,88.0,2.0,15.0,7.0,0.0
5531,71.0,0.0,30.0,1.0,0.0
5532,62.0,0.0,30.0,7.0,0.0
5533,71.0,8.0,30.0,2.0,0.0
5534,83.0,0.0,30.0,7.0,0.0
5535,88.0,2.0,15.0,7.0,0.0
5536,85.0,0.0,180.0,0.0,0.0
5537,78.0,0.0,180.0,5.0,0.0
5538,61.0,0.0,180.0,3.0,0.0
5539,70.0,0.0,60.0,1.0,0.0
5540,85.0,0.0,60.0,7.0,0.0
5541,70.0,8.0,60.0,2.0,0.0
5542,64.0,0.0,60.0,7.0,0.0
5543,88.0,20.0,15.0,7.0,0.0
5544,88.0,20.0,15.0,7.0,0.0
5545,88.0,12.0,15.0,7.0,0.0
5546,73.0,10.0,120.0,2.0,0.0
5547,73.0,0.0,120.0,1.0,0.0
5548,61.0,0.0,30.0,7.0,0.0
5549,82.0,0.0,30.0,7.0,0.0
5550,88.0,20.0,15.0,7.0,0.0
5551,88.0,2.0,15.0,7.0,0.0
5552,79.0,0.0,30.0,7.0,0.0
5553,59.0,0.0,30.0,7.0,0.0
5554,88.0,2.0,15.0,7.0,0.0
5555,58.0,0.0,60.0,7.0,0.0
5556,42.0,0.0,60.0,7.0,0.0
5557,88.0,0.0,15.0,7.0,0.0
5558,78.0,20.0,15.0,7.0,0.0
5559,85.0,20.0,15.0,7.0,0.0
5560,88.0,0.0,15.0,7.0,0.0
5561,85.0,0.0,15.0,7.0,0.0
5562,88.0,2.0,15.0,7.0,0.0
5563,85.0,0.0,15.0,7.0,0.0
5564,59.0,0.0,60.0,3.0,0.0
5565,47.0,0.0,30.0,4.0,0.0
5566,59.0,8.0,30.0,4.0,0.0
5567,78.0,10.0,60.0,1.0,0.0
5568,47.0,0.0,30.0,6.0,0.0
5569,71.0,0.0,30.0,5.0,0.0
5570,59.0,0.0,30.0,5.0,0.0
5571,83.0,0.0,60.0,0.0,0.0
5572,86.0,0.0,60.0,0.0,0.0
5573,44.0,18.0,30.0,7.0,0.0
5574,71.0,0.0,30.0,2.0,0.0
5575,62.0,0.0,60.0,3.0,0.0
5576,59.0,0.0,30.0,7.0,0.0
5577,86.0,12.0,15.0,7.0,0.0
5578,86.0,0.0,15.0,7.0,0.0
5579,83.0,2.0,15.0,7.0,0.0
5580,73.0,0.0,30.0,2.0,0.0
5581,46.0,0.0,30.0,7.0,0.0
5582,61.0,0.0,30.0,7.0,0.0
5583,83.0,0.0,15.0,7.0,0.0
5584,86.0,2.0,15.0,7.0,0.0
5585,47.0,0.0,30.0,4.0,0.0
5586,71.0,8.0,60.0,1.0,0.0
5587,78.0,0.0,60.0,1.0,0.0
5588,47.0,0.0,60.0,7.0,0.0
5589,62.0,0.0,60.0,7.0,0.0
5590,86.0,0.0,15.0,7.0,0.0
5591,59.0,0.0,60.0,3.0,0.0
5592,62.0,10.0,60.0,3.0,0.0
5593,83.0,12.0,15.0,7.0,0.0
5594,59.0,0.0,30.0,4.0,0.0
5595,83.0,0.0,60.0,0.0,0.0
5596,86.0,0.0,60.0,0.0,0.0
5597,74.0,0.0,60.0,2.0,0.0
5598,47.0,8.0,30.0,6.0,0.0
5599,59.0,0.0,30.0,5.0,0.0
5600,71.0,0.0,30.0,5.0,0.0
5601,83.0,20.0,15.0,7.0,0.0
5602,86.0,0.0,15.0,7.0,0.0
5603,64.0,0.0,30.0,7.0,0.0
5604,83.0,2.0,15.0,7.0,0.0
5605,86.0,0.0,15.0,7.0,0.0
5606,65.0,0.0,30.0,7.0,0.0
5607,59.0,0.0,60.0,3.0,0.0
5608,65.0,0.0,30.0,3.0,0.0
5609,59.0,0.0,30.0,5.0,0.0
5610,43.0,0.0,30.0,7.0,0.0
5611,71.0,0.0,30.0,5.0,0.0
5612,83.0,0.0,60.0,1.0,0.0
5613,47.0,8.0,30.0,6.0,0.0
5614,83.0,0.0,15.0,7.0,0.0
5615,95.0,0.0,60.0,0.0,0.0
5616,59.0,0.0,30.0,4.0,0.0
5617,74.0,0.0,60.0,1.0,0.0
5618,86.0,12.0,15.0,7.0,0.0
5619,71.0,0.0,60.0,2.0,0.0
5620,59.0,18.0,30.0,7.0,0.0
5621,47.0,0.0,30.0,4.0,0.0
5622,74.0,30.0,60.0,2.0,0.0
5623,86.0,0.0,60.0,0.0,0.0
5624,83.0,0.0,15.0,7.0,0.0
5625,86.0,2.0,15.0,7.0,0.0
5626,66.0,0.0,30.0,7.0,0.0
5627,66.0,0.0,30.0,3.0,0.0
5628,57.0,0.0,30.0,7.0,0.0
5629,42.0,0.0,30.0,7.0,0.0
5630,86.0,2.0,15.0,7.0,0.0
5631,83.0,0.0,15.0,7.0,0.0
5632,62.0,0.0,30.0,4.0,0.0
5633,86.0,0.0,30.0,7.0,0.0
5634,59.0,1.0,30.0,4.0,0.0
5635,47.0,0.0,30.0,4.0,0.0
5636,66.0,0.0,30.0,4.0,0.0
5637,59.0,0.0,30.0,5.0,0.0
5638,71.0,0.0,30.0,5.0,0.0
5639,68.0,0.0,30.0,7.0,0.0
5640,95.0,0.0,30.0,0.0,0.0
5641,83.0,0.0,30.0,0.0,0.0
5642,74.0,0.0,30.0,0.0,0.0
5643,83.0,0.0,30.0,1.0,0.0
5644,80.0,0.0,30.0,1.0,0.0
5645,74.0,0.0,30.0,2.0,0.0
5646,71.0,0.0,30.0,2.0,0.0
5647,56.0,0.0,30.0,7.0,0.0
5648,86.0,0.0,30.0,0.0,0.0
5649,47.0,0.0,30.0,6.0,0.0
5650,59.0,0.0,30.0,3.0,0.0
5651,68.0,0.0,30.0,3.0,0.0
5652,41.0,0.0,30.0,7.0,0.0
5653,68.0,0.0,180.0,7.0,0.0
5654,59.0,7.0,180.0,7.0,0.0
5655,62.0,0.0,180.0,7.0,0.0
5656,71.0,1.0,180.0,7.0,0.0
5657,53.0,0.0,180.0,7.0,0.0
5658,59.0,0.0,30.0,7.0,0.0
5659,41.0,9.0,15.0,7.0,0.0
5660,53.0,40.0,30.0,7.0,0.0
5661,71.0,0.0,30.0,7.0,0.0
5662,62.0,0.0,30.0,7.0,0.0
5663,68.0,1.0,30.0,7.0,0.0
5664,41.0,7.0,15.0,7.0,0.0
5665,71.0,0.0,30.0,7.0,0.0
5666,68.0,0.0,30.0,7.0,0.0
5667,53.0,12.0,15.0,7.0,0.0
5668,59.0,41.0,30.0,7.0,0.0
5669,62.0,1.0,30.0,7.0,0.0
5670,68.0,3.0,30.0,7.0,0.0
5671,41.0,4.0,15.0,7.0,0.0
5672,62.0,0.0,30.0,7.0,0.0
5673,71.0,0.0,30.0,7.0,0.0
5674,53.0,14.0,15.0,7.0,0.0
5675,59.0,267.0,30.0,7.0,0.0
5676,66.0,1.0,240.0,7.0,0.0
5677,61.0,1.0,240.0,7.0,0.0
5678,71.0,3.0,240.0,7.0,0.0
5679,42.0,27.0,210.0,7.0,0.0
5680,49.0,3.0,240.0,7.0,0.0
5681,70.0,0.0,240.0,7.0,0.0
5682,61.0,1.0,15.0,7.0,0.0
5683,54.0,175.0,15.0,7.0,0.0
5684,66.0,29.0,180.0,7.0,0.0
5685,66.0,1.0,120.0,3.0,0.0
5686,82.0,0.0,120.0,0.0,0.0
5687,78.0,0.0,120.0,0.0,0.0
5688,76.0,0.0,120.0,1.0,0.0
5689,70.0,57.0,120.0,2.0,0.0
5690,76.0,0.0,120.0,2.0,0.0
5691,64.0,0.0,60.0,7.0,0.0
5692,35.0,1.0,120.0,7.0,0.0
5693,78.0,0.0,60.0,0.0,0.0
5694,62.0,42.0,120.0,7.0,0.0
5695,83.0,0.0,60.0,0.0,0.0
5696,47.0,45.0,60.0,6.0,0.0
5697,59.0,1.0,120.0,7.0,0.0
5698,66.0,0.0,60.0,3.0,0.0
5699,74.0,0.0,60.0,1.0,0.0
5700,74.0,0.0,60.0,2.0,0.0
5701,71.0,0.0,60.0,2.0,0.0
5702,59.0,1.0,60.0,3.0,0.0
5703,71.0,10.0,90.0,7.0,0.0
5704,47.0,1.0,120.0,7.0,0.0
5705,73.0,4.0,15.0,7.0,0.0
5706,71.0,15.0,30.0,7.0,0.0
5707,70.0,46.0,15.0,7.0,0.0
5708,71.0,14.0,60.0,7.0,0.0
5709,73.0,106.0,15.0,7.0,0.0
5710,59.0,1.0,120.0,7.0,0.0
5711,47.0,1.0,120.0,7.0,0.0
5712,66.0,58.0,120.0,7.0,0.0
5713,74.0,1.0,120.0,7.0,0.0
5714,62.0,0.0,120.0,7.0,0.0
5715,71.0,180.0,60.0,7.0,0.0
5716,45.0,0.0,120.0,7.0,0.0
5717,60.0,1.0,120.0,7.0,0.0
5718,78.0,2.0,120.0,7.0,0.0
5719,63.0,1.0,120.0,7.0,0.0
5720,66.0,0.0,120.0,7.0,0.0
5721,57.0,56.0,120.0,7.0,0.0
5722,75.0,296.0,60.0,7.0,0.0
5723,84.0,245.0,240.0,7.0,0.0
5724,48.0,215.0,240.0,7.0,0.0
5725,36.0,0.0,15.0,7.0,0.0
5726,52.0,0.0,240.0,4.0,0.0
5727,64.0,0.0,240.0,4.0,0.0
5728,67.0,11.0,210.0,7.0,0.0
5729,52.0,0.0,240.0,7.0,0.0
5730,64.0,11.0,240.0,7.0,0.0
5731,48.0,3.0,15.0,7.0,0.0
5732,76.0,0.0,240.0,5.0,0.0
5733,64.0,0.0,240.0,4.0,0.0
5734,67.0,0.0,240.0,4.0,0.0
5735,52.0,0.0,240.0,4.0,0.0
5736,64.0,10.0,240.0,5.0,0.0
5737,36.0,0.0,15.0,7.0,0.0
5738,55.0,6.0,15.0,7.0,0.0
5739,52.0,0.0,20.0,7.0,0.0
5740,67.0,1.0,20.0,7.0,0.0
5741,64.0,0.0,20.0,7.0,0.0
5742,47.0,10.0,15.0,7.0,0.0
5743,35.0,0.0,15.0,7.0,0.0
5744,67.0,0.0,20.0,7.0,0.0
5745,64.0,1.0,20.0,7.0,0.0
5746,52.0,0.0,20.0,7.0,0.0
5747,55.0,0.0,20.0,7.0,0.0
5748,48.0,11.0,15.0,7.0,0.0
5749,55.0,0.0,20.0,7.0,0.0
5750,36.0,0.0,15.0,7.0,0.0
5751,64.0,0.0,20.0,7.0,0.0
5752,52.0,1.0,20.0,7.0,0.0
5753,67.0,0.0,20.0,7.0,0.0
5754,52.0,8.0,15.0,7.0,0.0
5755,67.0,1.0,20.0,7.0,0.0
5756,64.0,0.0,20.0,7.0,0.0
5757,40.0,0.0,15.0,7.0,0.0
5758,55.0,0.0,20.0,7.0,0.0
5759,64.0,1.0,20.0,7.0,0.0
5760,67.0,0.0,20.0,7.0,0.0
5761,51.0,11.0,15.0,7.0,0.0
5762,52.0,0.0,20.0,7.0,0.0
5763,55.0,0.0,20.0,7.0,0.0
5764,39.0,2.0,15.0,7.0,0.0
5765,55.0,0.0,20.0,7.0,0.0
5766,64.0,0.0,20.0,7.0,0.0
5767,67.0,0.0,20.0,7.0,0.0
5768,40.0,9.0,15.0,7.0,0.0
5769,52.0,2.0,15.0,7.0,0.0
5770,36.0,1.0,15.0,7.0,0.0
5771,67.0,1.0,15.0,7.0,0.0
5772,48.0,1.0,15.0,7.0,0.0
5773,55.0,1.0,20.0,7.0,0.0
5774,64.0,7.0,15.0,7.0,0.0
5775,52.0,0.0,20.0,7.0,0.0
5776,47.0,11.0,15.0,7.0,0.0
5777,64.0,1.0,20.0,7.0,0.0
5778,67.0,0.0,20.0,7.0,0.0
5779,52.0,0.0,20.0,7.0,0.0
5780,55.0,0.0,20.0,7.0,0.0
5781,35.0,0.0,15.0,7.0,0.0
5782,55.0,0.0,20.0,7.0,0.0
5783,36.0,10.0,15.0,7.0,0.0
5784,64.0,0.0,20.0,7.0,0.0
5785,48.0,2.0,15.0,7.0,0.0
5786,67.0,1.0,20.0,7.0,0.0
5787,52.0,0.0,15.0,7.0,0.0
5788,40.0,9.0,15.0,7.0,0.0
5789,67.0,1.0,20.0,7.0,0.0
5790,55.0,0.0,20.0,7.0,0.0
5791,52.0,2.0,15.0,7.0,0.0
5792,64.0,0.0,20.0,7.0,0.0
5793,51.0,13.0,15.0,7.0,0.0
5794,52.0,0.0,20.0,7.0,0.0
5795,55.0,0.0,20.0,7.0,0.0
5796,39.0,0.0,15.0,7.0,0.0
5797,64.0,0.0,20.0,7.0,0.0
5798,67.0,1.0,20.0,7.0,0.0
5799,67.0,0.0,20.0,7.0,0.0
5800,40.0,11.0,15.0,7.0,0.0
5801,52.0,2.0,15.0,7.0,0.0
5802,55.0,1.0,20.0,7.0,0.0
5803,64.0,0.0,20.0,7.0,0.0
5804,64.0,0.0,120.0,4.0,0.0
5805,36.0,8.0,15.0,7.0,0.0
5806,52.0,1.0,20.0,7.0,0.0
5807,55.0,0.0,20.0,7.0,0.0
5808,67.0,0.0,20.0,7.0,0.0
5809,64.0,0.0,120.0,5.0,0.0
5810,76.0,0.0,120.0,5.0,0.0
5811,64.0,0.0,20.0,7.0,0.0
5812,67.0,0.0,120.0,4.0,0.0
5813,48.0,1.0,15.0,7.0,0.0
5814,52.0,0.0,20.0,7.0,0.0
5815,55.0,0.0,20.0,7.0,0.0
5816,67.0,1.0,20.0,7.0,0.0
5817,47.0,1.0,15.0,7.0,0.0
5818,64.0,0.0,20.0,7.0,0.0
5819,35.0,9.0,15.0,7.0,0.0
5820,48.0,0.0,15.0,7.0,0.0
5821,36.0,11.0,15.0,7.0,0.0
5822,52.0,0.0,20.0,7.0,0.0
5823,55.0,0.0,20.0,7.0,0.0
5824,64.0,1.0,20.0,7.0,0.0
5825,67.0,0.0,20.0,7.0,0.0
5826,40.0,5.0,15.0,7.0,0.0
5827,55.0,0.0,20.0,7.0,0.0
5828,67.0,0.0,20.0,7.0,0.0
5829,64.0,0.0,20.0,7.0,0.0
5830,52.0,9.0,15.0,7.0,0.0
5831,39.0,2.0,15.0,7.0,0.0
5832,64.0,0.0,20.0,7.0,0.0
5833,67.0,1.0,20.0,7.0,0.0
5834,51.0,11.0,15.0,7.0,0.0
5835,55.0,0.0,20.0,7.0,0.0
5836,40.0,11.0,15.0,7.0,0.0
5837,67.0,0.0,20.0,7.0,0.0
5838,55.0,0.0,20.0,7.0,0.0
5839,52.0,6.0,15.0,7.0,0.0
5840,64.0,1.0,20.0,7.0,0.0
5841,52.0,1.0,15.0,7.0,0.0
5842,36.0,5.0,15.0,7.0,0.0
5843,64.0,4.0,90.0,5.0,0.0
5844,76.0,0.0,90.0,5.0,0.0
5845,52.0,4.0,15.0,4.0,0.0
5846,55.0,0.0,20.0,7.0,0.0
5847,52.0,1.0,20.0,7.0,0.0
5848,48.0,1.0,15.0,7.0,0.0
5849,64.0,7.0,15.0,7.0,0.0
5850,67.0,1.0,15.0,7.0,0.0
5851,67.0,0.0,90.0,4.0,0.0
5852,64.0,0.0,90.0,4.0,0.0
5853,35.0,10.0,15.0,7.0,0.0
5854,64.0,1.0,20.0,7.0,0.0
5855,55.0,0.0,20.0,7.0,0.0
5856,67.0,0.0,20.0,7.0,0.0
5857,47.0,1.0,15.0,7.0,0.0
5858,52.0,0.0,20.0,7.0,0.0
5859,36.0,5.0,15.0,7.0,0.0
5860,55.0,0.0,20.0,7.0,0.0
5861,67.0,0.0,20.0,7.0,0.0
5862,64.0,1.0,20.0,7.0,0.0
5863,52.0,0.0,20.0,7.0,0.0
5864,48.0,8.0,15.0,7.0,0.0
5865,55.0,0.0,20.0,7.0,0.0
5866,64.0,0.0,20.0,7.0,0.0
5867,52.0,1.0,15.0,7.0,0.0
5868,67.0,1.0,20.0,7.0,0.0
5869,40.0,8.0,15.0,7.0,0.0
5870,67.0,0.0,20.0,7.0,0.0
5871,51.0,12.0,15.0,7.0,0.0
5872,39.0,0.0,15.0,7.0,0.0
5873,52.0,0.0,20.0,7.0,0.0
5874,55.0,0.0,20.0,7.0,0.0
5875,64.0,1.0,15.0,7.0,0.0
5876,64.0,4.0,15.0,7.0,0.0
5877,55.0,1.0,20.0,7.0,0.0
5878,67.0,0.0,20.0,7.0,0.0
5879,40.0,1.0,15.0,7.0,0.0
5880,52.0,7.0,15.0,7.0,0.0
5881,64.0,0.0,15.0,5.0,0.0
5882,76.0,0.0,15.0,5.0,0.0
5883,67.0,0.0,15.0,4.0,0.0
5884,52.0,10.0,15.0,4.0,0.0
5885,64.0,0.0,15.0,4.0,0.0
5886,67.0,0.0,240.0,4.0,0.0
5887,52.0,0.0,240.0,4.0,0.0
5888,64.0,0.0,240.0,4.0,0.0
5889,35.0,2.0,15.0,7.0,0.0
5890,64.0,0.0,240.0,5.0,0.0
5891,67.0,0.0,20.0,7.0,0.0
5892,64.0,1.0,20.0,7.0,0.0
5893,52.0,0.0,20.0,7.0,0.0
5894,55.0,0.0,20.0,7.0,0.0
5895,76.0,0.0,240.0,5.0,0.0
5896,47.0,7.0,15.0,7.0,0.0
5897,64.0,0.0,20.0,7.0,0.0
5898,76.0,0.0,20.0,7.0,0.0
5899,67.0,1.0,20.0,7.0,0.0
5900,34.0,10.0,15.0,7.0,0.0
5901,52.0,8.0,20.0,7.0,0.0
5902,55.0,0.0,20.0,7.0,0.0
5903,46.0,0.0,15.0,7.0,0.0
5904,35.0,1.0,15.0,7.0,0.0
5905,67.0,0.0,20.0,7.0,0.0
5906,64.0,1.0,20.0,7.0,0.0
5907,76.0,0.0,20.0,7.0,0.0
5908,52.0,0.0,20.0,7.0,0.0
5909,55.0,9.0,20.0,7.0,0.0
5910,47.0,10.0,15.0,7.0,0.0
5911,76.0,6.0,20.0,7.0,0.0
5912,67.0,0.0,20.0,7.0,0.0
5913,64.0,0.0,20.0,7.0,0.0
5914,40.0,8.0,15.0,7.0,0.0
5915,55.0,1.0,20.0,7.0,0.0
5916,52.0,2.0,15.0,7.0,0.0
5917,76.0,9.0,20.0,7.0,0.0
5918,52.0,0.0,20.0,7.0,0.0
5919,51.0,3.0,15.0,7.0,0.0
5920,64.0,0.0,20.0,7.0,0.0
5921,38.0,10.0,15.0,7.0,0.0
5922,67.0,0.0,20.0,7.0,0.0
5923,55.0,1.0,20.0,7.0,0.0
5924,76.0,0.0,20.0,7.0,0.0
5925,67.0,0.0,20.0,7.0,0.0
5926,64.0,0.0,20.0,7.0,0.0
5927,55.0,1.0,20.0,7.0,0.0
5928,40.0,10.0,15.0,7.0,0.0
5929,52.0,0.0,15.0,7.0,0.0
5930,55.0,0.0,20.0,7.0,0.0
5931,47.0,1.0,15.0,7.0,0.0
5932,52.0,1.0,20.0,7.0,0.0
5933,64.0,7.0,15.0,7.0,0.0
5934,35.0,1.0,15.0,7.0,0.0
5935,76.0,8.0,20.0,7.0,0.0
5936,67.0,1.0,15.0,7.0,0.0
5937,64.0,1.0,20.0,7.0,0.0
5938,67.0,0.0,20.0,7.0,0.0
5939,76.0,9.0,20.0,7.0,0.0
5940,52.0,0.0,20.0,7.0,0.0
5941,34.0,10.0,15.0,7.0,0.0
5942,55.0,0.0,20.0,7.0,0.0
5943,46.0,1.0,15.0,7.0,0.0
5944,76.0,7.0,20.0,7.0,0.0
5945,35.0,2.0,15.0,7.0,0.0
5946,64.0,0.0,20.0,7.0,0.0
5947,52.0,1.0,20.0,7.0,0.0
5948,55.0,0.0,20.0,7.0,0.0
5949,67.0,0.0,20.0,7.0,0.0
5950,47.0,8.0,15.0,7.0,0.0
5951,55.0,1.0,20.0,7.0,0.0
5952,40.0,8.0,15.0,7.0,0.0
5953,52.0,4.0,15.0,7.0,0.0
5954,67.0,0.0,20.0,7.0,0.0
5955,64.0,0.0,20.0,7.0,0.0
5956,76.0,6.0,20.0,7.0,0.0
5957,76.0,8.0,20.0,7.0,0.0
5958,64.0,0.0,20.0,7.0,0.0
5959,52.0,0.0,20.0,7.0,0.0
5960,67.0,0.0,20.0,7.0,0.0
5961,51.0,3.0,15.0,7.0,0.0
5962,39.0,10.0,15.0,7.0,0.0
5963,55.0,1.0,20.0,7.0,0.0
5964,40.0,9.0,15.0,7.0,0.0
5965,76.0,10.0,20.0,7.0,0.0
5966,64.0,0.0,20.0,7.0,0.0
5967,67.0,0.0,20.0,7.0,0.0
5968,55.0,0.0,20.0,7.0,0.0
5969,52.0,2.0,15.0,7.0,0.0
5970,76.0,0.0,20.0,7.0,0.0
5971,64.0,1.0,20.0,7.0,0.0
5972,67.0,0.0,120.0,4.0,0.0
5973,52.0,0.0,120.0,4.0,0.0
5974,64.0,0.0,120.0,5.0,0.0
5975,35.0,0.0,15.0,7.0,0.0
5976,64.0,0.0,120.0,4.0,0.0
5977,55.0,0.0,20.0,7.0,0.0
5978,67.0,0.0,20.0,7.0,0.0
5979,76.0,0.0,120.0,5.0,0.0
5980,52.0,0.0,20.0,7.0,0.0
5981,47.0,9.0,15.0,7.0,0.0
5982,46.0,3.0,15.0,7.0,0.0
5983,64.0,1.0,20.0,7.0,0.0
5984,76.0,7.0,20.0,7.0,0.0
5985,67.0,0.0,20.0,7.0,0.0
5986,34.0,10.0,15.0,7.0,0.0
5987,55.0,0.0,20.0,7.0,0.0
5988,52.0,0.0,20.0,7.0,0.0
5989,47.0,1.0,15.0,7.0,0.0
5990,64.0,0.0,20.0,7.0,0.0
5991,35.0,11.0,15.0,7.0,0.0
5992,76.0,9.0,20.0,7.0,0.0
5993,52.0,0.0,20.0,7.0,0.0
5994,55.0,1.0,20.0,7.0,0.0
5995,67.0,0.0,20.0,7.0,0.0
5996,40.0,8.0,15.0,7.0,0.0
5997,76.0,6.0,20.0,7.0,0.0
5998,55.0,0.0,20.0,7.0,0.0
5999,52.0,2.0,15.0,7.0,0.0
6000,67.0,1.0,20.0,7.0,0.0
6001,64.0,0.0,20.0,7.0,0.0
6002,39.0,11.0,15.0,7.0,0.0
6003,67.0,1.0,20.0,7.0,0.0
6004,64.0,0.0,20.0,7.0,0.0
6005,51.0,2.0,15.0,7.0,0.0
6006,76.0,1.0,20.0,7.0,0.0
6007,55.0,0.0,20.0,7.0,0.0
6008,40.0,8.0,15.0,7.0,0.0
6009,64.0,0.0,20.0,7.0,0.0
6010,67.0,1.0,20.0,7.0,0.0
6011,52.0,7.0,15.0,7.0,0.0
6012,55.0,0.0,20.0,7.0,0.0
6013,76.0,9.0,20.0,7.0,0.0
6014,64.0,7.0,15.0,7.0,0.0
6015,35.0,0.0,15.0,7.0,0.0
6016,55.0,0.0,20.0,7.0,0.0
6017,52.0,1.0,20.0,7.0,0.0
6018,52.0,0.0,90.0,4.0,0.0
6019,64.0,0.0,90.0,4.0,0.0
6020,67.0,4.0,90.0,4.0,0.0
6021,76.0,7.0,20.0,7.0,0.0
6022,76.0,0.0,90.0,5.0,0.0
6023,47.0,1.0,15.0,7.0,0.0
6024,64.0,0.0,90.0,5.0,0.0
6025,67.0,2.0,15.0,7.0,0.0
6026,55.0,1.0,20.0,7.0,0.0
6027,52.0,0.0,20.0,7.0,0.0
6028,34.0,10.0,15.0,7.0,0.0
6029,64.0,0.0,20.0,7.0,0.0
6030,76.0,0.0,20.0,7.0,0.0
6031,67.0,0.0,20.0,7.0,0.0
6032,46.0,2.0,15.0,7.0,0.0
6033,55.0,1.0,20.0,7.0,0.0
6034,52.0,0.0,20.0,7.0,0.0
6035,35.0,10.0,15.0,7.0,0.0
6036,67.0,0.0,20.0,7.0,0.0
6037,64.0,0.0,20.0,7.0,0.0
6038,47.0,1.0,15.0,7.0,0.0
6039,76.0,0.0,20.0,7.0,0.0
6040,64.0,1.0,20.0,7.0,0.0
6041,40.0,9.0,15.0,7.0,0.0
6042,76.0,7.0,20.0,7.0,0.0
6043,55.0,0.0,20.0,7.0,0.0
6044,52.0,2.0,15.0,7.0,0.0
6045,67.0,0.0,20.0,7.0,0.0
6046,51.0,1.0,15.0,7.0,0.0
6047,55.0,1.0,20.0,7.0,0.0
6048,39.0,11.0,15.0,7.0,0.0
6049,67.0,0.0,20.0,7.0,0.0
6050,64.0,0.0,20.0,7.0,0.0
6051,76.0,5.0,20.0,7.0,0.0
6052,52.0,0.0,15.0,7.0,0.0
6053,40.0,5.0,15.0,7.0,0.0
6054,67.0,0.0,20.0,7.0,0.0
6055,76.0,0.0,20.0,7.0,0.0
6056,64.0,1.0,20.0,7.0,0.0
6057,55.0,0.0,20.0,7.0,0.0
6058,52.0,1.0,15.0,7.0,0.0
6059,67.0,0.0,15.0,4.0,0.0
6060,76.0,0.0,15.0,5.0,0.0
6061,64.0,0.0,15.0,4.0,0.0
6062,64.0,1.0,15.0,5.0,0.0
6063,52.0,1.0,15.0,4.0,0.0
6064,67.0,0.0,300.0,4.0,0.0
6065,52.0,0.0,300.0,4.0,0.0
6066,64.0,0.0,300.0,4.0,0.0
6067,64.0,0.0,300.0,5.0,0.0
6068,76.0,11.0,300.0,5.0,0.0
6069,67.0,8.0,20.0,7.0,0.0
6070,34.0,10.0,15.0,7.0,0.0
6071,46.0,2.0,15.0,7.0,0.0
6072,52.0,0.0,20.0,7.0,0.0
6073,76.0,0.0,20.0,7.0,0.0
6074,55.0,1.0,20.0,7.0,0.0
6075,64.0,0.0,60.0,7.0,0.0
6076,61.0,1.0,20.0,7.0,0.0
6077,58.0,0.0,20.0,7.0,0.0
6078,37.0,10.0,15.0,7.0,0.0
6079,76.0,0.0,20.0,7.0,0.0
6080,67.0,8.0,20.0,7.0,0.0
6081,49.0,1.0,15.0,7.0,0.0
6082,67.0,0.0,20.0,7.0,0.0
6083,40.0,3.0,15.0,7.0,0.0
6084,61.0,1.0,20.0,7.0,0.0
6085,58.0,0.0,20.0,7.0,0.0
6086,76.0,0.0,20.0,7.0,0.0
6087,52.0,8.0,15.0,7.0,0.0
6088,61.0,1.0,20.0,7.0,0.0
6089,76.0,0.0,20.0,7.0,0.0
6090,58.0,0.0,20.0,7.0,0.0
6091,56.0,10.0,15.0,7.0,0.0
6092,42.0,4.0,15.0,7.0,0.0
6093,67.0,7.0,20.0,7.0,0.0
6094,61.0,0.0,20.0,7.0,0.0
6095,76.0,7.0,20.0,7.0,0.0
6096,67.0,0.0,20.0,7.0,0.0
6097,46.0,10.0,15.0,7.0,0.0
6098,58.0,2.0,15.0,7.0,0.0
6099,49.0,1.0,15.0,7.0,0.0
6100,67.0,4.0,20.0,7.0,0.0
6101,76.0,0.0,20.0,7.0,0.0
6102,61.0,11.0,15.0,7.0,0.0
6103,58.0,0.0,20.0,7.0,0.0
6104,52.0,7.0,15.0,7.0,0.0
6105,67.0,11.0,20.0,7.0,0.0
6106,76.0,0.0,20.0,7.0,0.0
6107,61.0,8.0,15.0,7.0,0.0
6108,58.0,1.0,20.0,7.0,0.0
6109,61.0,1.0,20.0,7.0,0.0
6110,67.0,0.0,20.0,7.0,0.0
6111,76.0,11.0,20.0,7.0,0.0
6112,64.0,8.0,15.0,7.0,0.0
6113,58.0,0.0,20.0,7.0,0.0
6114,67.0,8.0,15.0,7.0,0.0
6115,61.0,1.0,20.0,7.0,0.0
6116,58.0,0.0,20.0,7.0,0.0
6117,76.0,0.0,20.0,7.0,0.0
6118,76.0,11.0,20.0,7.0,0.0
6119,61.0,0.0,20.0,7.0,0.0
6120,58.0,1.0,20.0,7.0,0.0
6121,70.0,8.0,15.0,7.0,0.0
6122,67.0,0.0,20.0,7.0,0.0
6123,73.0,8.0,15.0,7.0,0.0
6124,61.0,1.0,20.0,7.0,0.0
6125,67.0,11.0,20.0,7.0,0.0
6126,58.0,0.0,20.0,7.0,0.0
6127,76.0,0.0,20.0,7.0,0.0
6128,61.0,0.0,20.0,7.0,0.0
6129,67.0,11.0,20.0,7.0,0.0
6130,76.0,8.0,15.0,7.0,0.0
6131,58.0,1.0,20.0,7.0,0.0
6132,73.0,8.0,15.0,7.0,0.0
6133,58.0,2.0,20.0,7.0,0.0
6134,61.0,0.0,20.0,7.0,0.0
6135,79.0,10.0,20.0,7.0,0.0
6136,76.0,8.0,15.0,7.0,0.0
6137,67.0,0.0,20.0,7.0,0.0
6138,58.0,12.0,20.0,7.0,0.0
6139,61.0,0.0,20.0,7.0,0.0
6140,61.0,0.0,20.0,7.0,0.0
6141,67.0,0.0,20.0,7.0,0.0
6142,76.0,0.0,20.0,7.0,0.0
6143,79.0,8.0,15.0,7.0,0.0
6144,58.0,1.0,20.0,7.0,0.0
6145,61.0,0.0,20.0,7.0,0.0
6146,58.0,0.0,20.0,7.0,0.0
6147,64.0,1.0,60.0,5.0,0.0
6148,67.0,0.0,60.0,4.0,0.0
6149,64.0,0.0,60.0,4.0,0.0
6150,67.0,0.0,20.0,7.0,0.0
6151,76.0,12.0,20.0,7.0,0.0
6152,76.0,0.0,60.0,5.0,0.0
6153,82.0,8.0,15.0,7.0,0.0
6154,61.0,12.0,20.0,7.0,0.0
6155,58.0,0.0,20.0,7.0,0.0
6156,67.0,0.0,20.0,7.0,0.0
6157,76.0,0.0,20.0,7.0,0.0
6158,85.0,8.0,15.0,7.0,0.0
6159,67.0,0.0,20.0,7.0,0.0
6160,61.0,0.0,20.0,7.0,0.0
6161,88.0,8.0,15.0,7.0,0.0
6162,76.0,1.0,20.0,7.0,0.0
6163,58.0,0.0,20.0,7.0,0.0
6164,64.0,19.0,60.0,4.0,0.0
6165,52.0,18.0,15.0,4.0,0.0
6166,91.0,8.0,30.0,7.0,0.0
6167,67.0,0.0,60.0,4.0,0.0
6168,64.0,0.0,60.0,5.0,0.0
6169,76.0,0.0,20.0,7.0,0.0
6170,58.0,0.0,20.0,7.0,0.0
6171,61.0,0.0,20.0,7.0,0.0
6172,67.0,12.0,20.0,7.0,0.0
6173,76.0,0.0,60.0,5.0,0.0
6174,58.0,0.0,20.0,7.0,0.0
6175,67.0,0.0,20.0,7.0,0.0
6176,76.0,0.0,20.0,7.0,0.0
6177,61.0,20.0,20.0,7.0,0.0
6178,58.0,0.0,20.0,7.0,0.0
6179,76.0,1.0,20.0,7.0,0.0
6180,67.0,0.0,20.0,7.0,0.0
6181,61.0,0.0,20.0,7.0,0.0
6182,76.0,20.0,20.0,7.0,0.0
6183,67.0,0.0,20.0,7.0,0.0
6184,76.0,10.0,60.0,5.0,0.0
6185,64.0,0.0,60.0,5.0,0.0
6186,52.0,0.0,60.0,4.0,0.0
6187,64.0,0.0,60.0,4.0,0.0
6188,67.0,0.0,60.0,4.0,0.0
6189,58.0,0.0,20.0,7.0,0.0
6190,61.0,0.0,20.0,7.0,0.0
6191,76.0,0.0,20.0,7.0,0.0
6192,61.0,0.0,20.0,7.0,0.0
6193,67.0,20.0,20.0,7.0,0.0
6194,58.0,0.0,20.0,7.0,0.0
6195,61.0,0.0,20.0,7.0,0.0
6196,58.0,1.0,20.0,7.0,0.0
6197,76.0,0.0,20.0,7.0,0.0
6198,67.0,0.0,20.0,7.0,0.0
6199,81.0,0.0,300.0,5.0,0.0
6200,69.0,0.0,300.0,3.0,0.0
6201,57.0,1.0,20.0,7.0,0.0
6202,66.0,9.0,20.0,7.0,0.0
6203,75.0,0.0,20.0,7.0,0.0
6204,66.0,0.0,300.0,3.0,0.0
6205,60.0,0.0,20.0,7.0,0.0
6206,69.0,0.0,300.0,4.0,0.0
6207,72.0,0.0,300.0,4.0,0.0
6208,90.0,0.0,360.0,0.0,0.0
6209,33.0,7.0,15.0,7.0,0.0
6210,81.0,0.0,300.0,1.0,0.0
6211,78.0,11.0,300.0,1.0,0.0
6212,75.0,0.0,300.0,2.0,0.0
6213,72.0,0.0,300.0,2.0,0.0
6214,87.0,0.0,360.0,0.0,0.0
6215,45.0,2.0,15.0,7.0,0.0
6216,36.0,9.0,15.0,7.0,0.0
6217,48.0,1.0,15.0,7.0,0.0
6218,66.0,7.0,20.0,7.0,0.0
6219,75.0,0.0,20.0,7.0,0.0
6220,57.0,1.0,20.0,7.0,0.0
6221,60.0,0.0,20.0,7.0,0.0
6222,39.0,11.0,15.0,7.0,0.0
6223,75.0,0.0,20.0,7.0,0.0
6224,57.0,0.0,20.0,7.0,0.0
6225,51.0,1.0,15.0,7.0,0.0
6226,60.0,1.0,20.0,7.0,0.0
6227,66.0,7.0,20.0,7.0,0.0
6228,57.0,1.0,20.0,7.0,0.0
6229,66.0,0.0,20.0,7.0,0.0
6230,42.0,3.0,15.0,7.0,0.0
6231,75.0,7.0,20.0,7.0,0.0
6232,60.0,0.0,20.0,7.0,0.0
6233,54.0,9.0,15.0,7.0,0.0
6234,75.0,0.0,20.0,7.0,0.0
6235,66.0,6.0,20.0,7.0,0.0
6236,45.0,9.0,15.0,7.0,0.0
6237,60.0,1.0,20.0,7.0,0.0
6238,57.0,3.0,15.0,7.0,0.0
6239,75.0,0.0,20.0,7.0,0.0
6240,60.0,2.0,15.0,7.0,0.0
6241,48.0,11.0,15.0,7.0,0.0
6242,57.0,1.0,20.0,7.0,0.0
6243,66.0,10.0,20.0,7.0,0.0
6244,66.0,0.0,20.0,7.0,0.0
6245,75.0,11.0,20.0,7.0,0.0
6246,60.0,8.0,15.0,7.0,0.0
6247,57.0,1.0,20.0,7.0,0.0
6248,51.0,1.0,15.0,7.0,0.0
6249,60.0,0.0,20.0,7.0,0.0
6250,63.0,8.0,15.0,7.0,0.0
6251,66.0,11.0,20.0,7.0,0.0
6252,57.0,1.0,20.0,7.0,0.0
6253,75.0,0.0,20.0,7.0,0.0
6254,57.0,0.0,20.0,7.0,0.0
6255,75.0,4.0,20.0,7.0,0.0
6256,66.0,8.0,15.0,7.0,0.0
6257,60.0,1.0,20.0,7.0,0.0
6258,69.0,8.0,15.0,7.0,0.0
6259,60.0,1.0,20.0,7.0,0.0
6260,57.0,0.0,20.0,7.0,0.0
6261,75.0,11.0,20.0,7.0,0.0
6262,66.0,0.0,20.0,7.0,0.0
6263,60.0,0.0,20.0,7.0,0.0
6264,57.0,1.0,20.0,7.0,0.0
6265,72.0,8.0,15.0,7.0,0.0
6266,75.0,11.0,20.0,7.0,0.0
6267,66.0,0.0,20.0,7.0,0.0
6268,60.0,0.0,20.0,7.0,0.0
6269,57.0,1.0,20.0,7.0,0.0
6270,75.0,8.0,15.0,7.0,0.0
6271,66.0,11.0,20.0,7.0,0.0
6272,60.0,2.0,20.0,7.0,0.0
6273,57.0,0.0,20.0,7.0,0.0
6274,66.0,8.0,15.0,7.0,0.0
6275,76.0,10.0,20.0,7.0,0.0
6276,63.0,0.0,20.0,7.0,0.0
6277,60.0,0.0,20.0,7.0,0.0
6278,57.0,12.0,20.0,7.0,0.0
6279,66.0,0.0,20.0,7.0,0.0
6280,69.0,8.0,15.0,7.0,0.0
6281,66.0,0.0,20.0,7.0,0.0
6282,72.0,8.0,15.0,7.0,0.0
6283,63.0,0.0,20.0,7.0,0.0
6284,60.0,1.0,20.0,7.0,0.0
6285,57.0,0.0,20.0,7.0,0.0
6286,78.0,11.0,60.0,1.0,0.0
6287,75.0,8.0,15.0,7.0,0.0
6288,66.0,0.0,20.0,7.0,0.0
6289,63.0,0.0,20.0,7.0,0.0
6290,60.0,12.0,20.0,7.0,0.0
6291,72.0,0.0,60.0,2.0,0.0
6292,81.0,0.0,60.0,1.0,0.0
6293,57.0,0.0,20.0,7.0,0.0
6294,69.0,0.0,60.0,3.0,0.0
6295,66.0,0.0,60.0,3.0,0.0
6296,81.0,0.0,60.0,5.0,0.0
6297,72.0,0.0,60.0,4.0,0.0
6298,69.0,0.0,60.0,4.0,0.0
6299,75.0,0.0,60.0,2.0,0.0
6300,60.0,12.0,20.0,7.0,0.0
6301,78.0,8.0,15.0,7.0,0.0
6302,63.0,0.0,20.0,7.0,0.0
6303,66.0,0.0,20.0,7.0,0.0
6304,57.0,0.0,20.0,7.0,0.0
6305,57.0,0.0,20.0,7.0,0.0
6306,63.0,1.0,20.0,7.0,0.0
6307,66.0,0.0,20.0,7.0,0.0
6308,81.0,8.0,15.0,7.0,0.0
6309,60.0,0.0,20.0,7.0,0.0
6310,66.0,0.0,60.0,3.0,0.0
6311,69.0,0.0,60.0,3.0,0.0
6312,72.0,0.0,60.0,4.0,0.0
6313,72.0,0.0,60.0,2.0,0.0
6314,75.0,0.0,60.0,2.0,0.0
6315,69.0,0.0,60.0,4.0,0.0
6316,60.0,0.0,20.0,7.0,0.0
6317,57.0,1.0,20.0,7.0,0.0
6318,63.0,0.0,20.0,7.0,0.0
6319,81.0,0.0,60.0,1.0,0.0
6320,78.0,0.0,60.0,1.0,0.0
6321,66.0,0.0,20.0,7.0,0.0
6322,84.0,11.0,20.0,7.0,0.0
6323,81.0,11.0,60.0,5.0,0.0
6324,78.0,8.0,15.0,0.0,0.0
6325,60.0,0.0,20.0,7.0,0.0
6326,57.0,0.0,20.0,7.0,0.0
6327,63.0,0.0,20.0,7.0,0.0
6328,81.0,8.0,15.0,0.0,0.0
6329,84.0,11.0,20.0,7.0,0.0
6330,66.0,1.0,20.0,7.0,0.0
6331,60.0,0.0,20.0,7.0,0.0
6332,57.0,0.0,20.0,7.0,0.0
6333,66.0,1.0,20.0,7.0,0.0
6334,63.0,0.0,20.0,7.0,0.0
6335,84.0,0.0,20.0,7.0,0.0
6336,84.0,8.0,15.0,0.0,0.0
6337,69.0,0.0,60.0,4.0,0.0
6338,72.0,0.0,60.0,4.0,0.0
6339,81.0,0.0,60.0,5.0,0.0
6340,87.0,8.0,15.0,0.0,0.0
6341,81.0,0.0,60.0,1.0,0.0
6342,78.0,0.0,60.0,1.0,0.0
6343,60.0,0.0,20.0,7.0,0.0
6344,57.0,0.0,20.0,7.0,0.0
6345,72.0,0.0,60.0,2.0,0.0
6346,69.0,19.0,60.0,3.0,0.0
6347,75.0,0.0,15.0,0.0,0.0
6348,75.0,0.0,60.0,2.0,0.0
6349,66.0,1.0,20.0,7.0,0.0
6350,63.0,0.0,20.0,7.0,0.0
6351,84.0,8.0,20.0,7.0,0.0
6352,66.0,0.0,60.0,3.0,0.0
6353,66.0,0.0,20.0,7.0,0.0
6354,84.0,11.0,20.0,7.0,0.0
6355,60.0,0.0,20.0,7.0,0.0
6356,57.0,0.0,20.0,7.0,0.0
6357,90.0,0.0,15.0,0.0,0.0
6358,63.0,1.0,20.0,7.0,0.0
6359,78.0,3.0,15.0,0.0,0.0
6360,84.0,0.0,20.0,7.0,0.0
6361,66.0,0.0,20.0,7.0,0.0
6362,63.0,1.0,20.0,7.0,0.0
6363,60.0,0.0,20.0,7.0,0.0
6364,57.0,0.0,20.0,7.0,0.0
6365,93.0,8.0,15.0,0.0,0.0
6366,81.0,0.0,15.0,0.0,0.0
6367,63.0,0.0,20.0,7.0,0.0
6368,59.0,0.0,20.0,7.0,0.0
6369,35.0,18.0,120.0,7.0,0.0
6370,81.0,0.0,60.0,5.0,0.0
6371,66.0,1.0,20.0,7.0,0.0
6372,57.0,0.0,20.0,7.0,0.0
6373,66.0,0.0,60.0,3.0,0.0
6374,72.0,0.0,60.0,2.0,0.0
6375,75.0,0.0,60.0,2.0,0.0
6376,84.0,0.0,60.0,0.0,0.0
6377,96.0,1.0,20.0,0.0,0.0
6378,69.0,0.0,60.0,4.0,0.0
6379,72.0,0.0,60.0,4.0,0.0
6380,69.0,0.0,60.0,3.0,0.0
6381,81.0,4.0,60.0,1.0,0.0
6382,78.0,0.0,60.0,1.0,0.0
6383,47.0,15.0,60.0,7.0,0.0
6384,84.0,18.0,15.0,7.0,0.0
6385,69.0,0.0,20.0,7.0,0.0
6386,59.0,0.0,20.0,7.0,0.0
6387,66.0,0.0,20.0,7.0,0.0
6388,63.0,1.0,20.0,7.0,0.0
6389,96.0,19.0,20.0,0.0,0.0
6390,84.0,0.0,20.0,7.0,0.0
6391,69.0,1.0,20.0,7.0,0.0
6392,59.0,0.0,20.0,7.0,0.0
6393,66.0,0.0,20.0,7.0,0.0
6394,63.0,0.0,20.0,7.0,0.0
6395,96.0,0.0,20.0,0.0,0.0
6396,66.0,0.0,20.0,7.0,0.0
6397,96.0,19.0,20.0,0.0,0.0
6398,59.0,0.0,20.0,7.0,0.0
6399,69.0,0.0,20.0,7.0,0.0
6400,84.0,0.0,20.0,7.0,0.0
6401,63.0,1.0,20.0,7.0,0.0
6402,96.0,0.0,20.0,0.0,0.0
6403,84.0,19.0,20.0,7.0,0.0
6404,69.0,0.0,20.0,7.0,0.0
6405,59.0,0.0,20.0,7.0,0.0
6406,63.0,1.0,20.0,7.0,0.0
6407,66.0,0.0,20.0,7.0,0.0
6408,63.0,1.0,20.0,7.0,0.0
6409,66.0,0.0,20.0,7.0,0.0
6410,84.0,1.0,20.0,7.0,0.0
6411,69.0,0.0,20.0,7.0,0.0
6412,59.0,0.0,20.0,7.0,0.0
6413,96.0,0.0,20.0,0.0,0.0
6414,96.0,19.0,20.0,0.0,0.0
6415,63.0,0.0,20.0,7.0,0.0
6416,66.0,0.0,20.0,7.0,0.0
6417,84.0,0.0,20.0,7.0,0.0
6418,59.0,0.0,20.0,7.0,0.0
6419,69.0,1.0,20.0,7.0,0.0
6420,59.0,0.0,20.0,7.0,0.0
6421,66.0,1.0,20.0,7.0,0.0
6422,84.0,19.0,20.0,7.0,0.0
6423,69.0,0.0,20.0,7.0,0.0
6424,63.0,0.0,20.0,7.0,0.0
6425,96.0,0.0,20.0,0.0,0.0
6426,59.0,0.0,20.0,7.0,0.0
6427,69.0,0.0,20.0,7.0,0.0
6428,84.0,0.0,20.0,7.0,0.0
6429,66.0,1.0,20.0,7.0,0.0
6430,63.0,0.0,20.0,7.0,0.0
6431,96.0,19.0,20.0,0.0,0.0
6432,95.0,0.0,20.0,0.0,0.0
6433,59.0,1.0,20.0,7.0,0.0
6434,63.0,0.0,20.0,7.0,0.0
6435,66.0,0.0,20.0,7.0,0.0
6436,69.0,0.0,20.0,7.0,0.0
6437,83.0,19.0,20.0,7.0,0.0
6438,95.0,0.0,20.0,0.0,0.0
6439,63.0,0.0,20.0,7.0,0.0
6440,66.0,1.0,20.0,7.0,0.0
6441,69.0,0.0,20.0,7.0,0.0
6442,59.0,0.0,20.0,7.0,0.0
6443,83.0,19.0,20.0,7.0,0.0
6444,66.0,0.0,20.0,7.0,0.0
6445,83.0,19.0,20.0,7.0,0.0
6446,69.0,0.0,20.0,7.0,0.0
6447,59.0,1.0,20.0,7.0,0.0
6448,63.0,0.0,20.0,7.0,0.0
6449,95.0,0.0,20.0,0.0,0.0
6450,63.0,20.0,20.0,7.0,0.0
6451,66.0,0.0,20.0,7.0,0.0
6452,59.0,0.0,20.0,7.0,0.0
6453,69.0,0.0,20.0,7.0,0.0
6454,94.0,0.0,20.0,0.0,0.0
6455,66.0,0.0,20.0,7.0,0.0
6456,59.0,1.0,20.0,7.0,0.0
6457,63.0,0.0,20.0,7.0,0.0
6458,69.0,0.0,20.0,7.0,0.0
6459,82.0,19.0,20.0,7.0,0.0
6460,94.0,19.0,20.0,0.0,0.0
6461,82.0,0.0,20.0,7.0,0.0
6462,59.0,0.0,20.0,7.0,0.0
6463,69.0,0.0,20.0,7.0,0.0
6464,66.0,0.0,20.0,7.0,0.0
6465,63.0,1.0,20.0,7.0,0.0
6466,63.0,0.0,20.0,7.0,0.0
6467,66.0,0.0,20.0,7.0,0.0
6468,59.0,0.0,20.0,7.0,0.0
6469,69.0,20.0,20.0,7.0,0.0
6470,63.0,0.0,20.0,7.0,0.0
6471,66.0,1.0,20.0,7.0,0.0
6472,69.0,0.0,20.0,7.0,0.0
6473,95.0,0.0,20.0,0.0,0.0
6474,59.0,0.0,20.0,7.0,0.0
6475,83.0,19.0,20.0,7.0,0.0
6476,59.0,0.0,20.0,7.0,0.0
6477,83.0,0.0,20.0,7.0,0.0
6478,69.0,0.0,20.0,7.0,0.0
6479,95.0,19.0,20.0,0.0,0.0
6480,66.0,1.0,20.0,7.0,0.0
6481,63.0,0.0,20.0,7.0,0.0
6482,69.0,0.0,20.0,7.0,0.0
6483,59.0,20.0,20.0,7.0,0.0
6484,63.0,0.0,20.0,7.0,0.0
6485,66.0,0.0,20.0,7.0,0.0
6486,66.0,1.0,20.0,7.0,0.0
6487,59.0,0.0,20.0,7.0,0.0
6488,96.0,0.0,20.0,0.0,0.0
6489,63.0,0.0,20.0,7.0,0.0
6490,84.0,19.0,20.0,7.0,0.0
6491,69.0,0.0,20.0,7.0,0.0
6492,59.0,1.0,20.0,7.0,0.0
6493,69.0,0.0,20.0,7.0,0.0
6494,96.0,19.0,20.0,0.0,0.0
6495,66.0,0.0,20.0,7.0,0.0
6496,63.0,0.0,20.0,7.0,0.0
6497,84.0,0.0,20.0,7.0,0.0
6498,66.0,0.0,20.0,7.0,0.0
6499,69.0,0.0,20.0,7.0,0.0
6500,59.0,0.0,20.0,7.0,0.0
6501,63.0,20.0,20.0,7.0,0.0
6502,95.0,0.0,20.0,0.0,0.0
6503,66.0,0.0,20.0,7.0,0.0
6504,63.0,0.0,20.0,7.0,0.0
6505,69.0,0.0,20.0,7.0,0.0
6506,59.0,1.0,20.0,7.0,0.0
6507,83.0,19.0,20.0,7.0,0.0
6508,95.0,0.0,20.0,0.0,0.0
6509,66.0,0.0,20.0,7.0,0.0
6510,59.0,1.0,20.0,7.0,0.0
6511,83.0,19.0,20.0,7.0,0.0
6512,63.0,0.0,20.0,7.0,0.0
6513,69.0,0.0,20.0,7.0,0.0
6514,66.0,20.0,20.0,7.0,0.0
6515,63.0,0.0,20.0,7.0,0.0
6516,35.0,18.0,120.0,7.0,0.0
6517,69.0,0.0,20.0,7.0,0.0
6518,59.0,0.0,20.0,7.0,0.0
6519,47.0,17.0,60.0,7.0,0.0
6520,66.0,0.0,20.0,7.0,0.0
6521,93.0,19.0,20.0,0.0,0.0
6522,69.0,0.0,20.0,7.0,0.0
6523,59.0,1.0,20.0,7.0,0.0
6524,81.0,0.0,20.0,7.0,0.0
6525,63.0,0.0,20.0,7.0,0.0
6526,66.0,0.0,20.0,7.0,0.0
6527,63.0,0.0,20.0,7.0,0.0
6528,81.0,2.0,20.0,7.0,0.0
6529,59.0,1.0,20.0,7.0,0.0
6530,69.0,0.0,20.0,7.0,0.0
6531,93.0,0.0,20.0,0.0,0.0
6532,59.0,0.0,20.0,7.0,0.0
6533,63.0,0.0,20.0,7.0,0.0
6534,66.0,20.0,20.0,7.0,0.0
6535,69.0,0.0,20.0,7.0,0.0
6536,91.0,19.0,20.0,0.0,0.0
6537,63.0,0.0,20.0,7.0,0.0
6538,66.0,1.0,20.0,7.0,0.0
6539,79.0,0.0,20.0,7.0,0.0
6540,59.0,0.0,20.0,7.0,0.0
6541,69.0,0.0,20.0,7.0,0.0
6542,63.0,0.0,20.0,7.0,0.0
6543,79.0,1.0,20.0,7.0,0.0
6544,59.0,0.0,20.0,7.0,0.0
6545,91.0,0.0,20.0,0.0,0.0
6546,66.0,1.0,20.0,7.0,0.0
6547,69.0,0.0,20.0,7.0,0.0
6548,63.0,0.0,20.0,7.0,0.0
6549,69.0,20.0,20.0,7.0,0.0
6550,59.0,0.0,20.0,7.0,0.0
6551,66.0,0.0,20.0,7.0,0.0
6552,66.0,0.0,20.0,7.0,0.0
6553,69.0,0.0,20.0,7.0,0.0
6554,90.0,19.0,20.0,0.0,0.0
6555,78.0,0.0,20.0,7.0,0.0
6556,59.0,1.0,20.0,7.0,0.0
6557,63.0,0.0,20.0,7.0,0.0
6558,78.0,19.0,20.0,7.0,0.0
6559,59.0,1.0,20.0,7.0,0.0
6560,69.0,0.0,20.0,7.0,0.0
6561,90.0,0.0,20.0,0.0,0.0
6562,63.0,0.0,20.0,7.0,0.0
6563,66.0,0.0,20.0,7.0,0.0
6564,66.0,0.0,20.0,7.0,0.0
6565,63.0,0.0,20.0,7.0,0.0
6566,59.0,20.0,20.0,7.0,0.0
6567,69.0,0.0,20.0,7.0,0.0
6568,69.0,1.0,20.0,7.0,0.0
6569,59.0,0.0,20.0,7.0,0.0
6570,88.0,19.0,20.0,0.0,0.0
6571,66.0,0.0,20.0,7.0,0.0
6572,63.0,0.0,20.0,7.0,0.0
6573,76.0,0.0,20.0,7.0,0.0
6574,66.0,0.0,20.0,7.0,0.0
6575,63.0,0.0,20.0,7.0,0.0
6576,88.0,0.0,20.0,0.0,0.0
6577,69.0,1.0,20.0,7.0,0.0
6578,59.0,0.0,20.0,7.0,0.0
6579,76.0,19.0,20.0,7.0,0.0
6580,63.0,0.0,20.0,7.0,0.0
6581,66.0,20.0,20.0,7.0,0.0
6582,59.0,0.0,20.0,7.0,0.0
6583,35.0,3.0,60.0,7.0,0.0
6584,69.0,0.0,20.0,7.0,0.0
6585,47.0,14.0,60.0,7.0,0.0
6586,87.0,0.0,20.0,0.0,0.0
6587,63.0,0.0,20.0,7.0,0.0
6588,66.0,0.0,20.0,7.0,0.0
6589,69.0,1.0,20.0,7.0,0.0
6590,59.0,0.0,20.0,7.0,0.0
6591,75.0,19.0,20.0,7.0,0.0
6592,75.0,0.0,20.0,7.0,0.0
6593,59.0,1.0,20.0,7.0,0.0
6594,69.0,0.0,20.0,7.0,0.0
6595,87.0,2.0,20.0,0.0,0.0
6596,66.0,0.0,20.0,7.0,0.0
6597,63.0,0.0,20.0,7.0,0.0
6598,69.0,0.0,20.0,7.0,0.0
6599,63.0,0.0,20.0,7.0,0.0
6600,66.0,0.0,20.0,7.0,0.0
6601,59.0,20.0,20.0,7.0,0.0
6602,48.0,2.0,60.0,7.0,0.0
6603,60.0,4.0,60.0,3.0,0.0
6604,36.0,12.0,60.0,7.0,0.0
6605,66.0,0.0,20.0,7.0,0.0
6606,72.0,19.0,20.0,7.0,0.0
6607,59.0,0.0,20.0,7.0,0.0
6608,69.0,0.0,20.0,7.0,0.0
6609,84.0,0.0,20.0,0.0,0.0
6610,63.0,1.0,20.0,7.0,0.0
6611,84.0,0.0,20.0,0.0,0.0
6612,66.0,0.0,20.0,7.0,0.0
6613,63.0,0.0,20.0,7.0,0.0
6614,72.0,1.0,20.0,7.0,0.0
6615,69.0,1.0,20.0,7.0,0.0
6616,59.0,0.0,20.0,7.0,0.0
6617,35.0,14.0,60.0,7.0,0.0
6618,59.0,0.0,20.0,7.0,0.0
6619,69.0,0.0,20.0,7.0,0.0
6620,47.0,2.0,60.0,7.0,0.0
6621,59.0,2.0,60.0,3.0,0.0
6622,66.0,20.0,20.0,7.0,0.0
6623,63.0,0.0,20.0,7.0,0.0
6624,83.0,0.0,20.0,0.0,0.0
6625,69.0,0.0,20.0,7.0,0.0
6626,59.0,1.0,20.0,7.0,0.0
6627,71.0,19.0,20.0,7.0,0.0
6628,63.0,0.0,20.0,7.0,0.0
6629,66.0,0.0,20.0,7.0,0.0
6630,83.0,0.0,20.0,0.0,0.0
6631,63.0,0.0,20.0,7.0,0.0
6632,66.0,1.0,20.0,7.0,0.0
6633,71.0,1.0,20.0,7.0,0.0
6634,59.0,0.0,20.0,7.0,0.0
6635,69.0,0.0,20.0,7.0,0.0
6636,39.0,13.0,60.0,7.0,0.0
6637,51.0,2.0,60.0,7.0,0.0
6638,63.0,3.0,60.0,3.0,0.0
6639,59.0,20.0,20.0,7.0,0.0
6640,69.0,0.0,20.0,7.0,0.0
6641,63.0,0.0,20.0,7.0,0.0
6642,66.0,0.0,20.0,7.0,0.0
6643,66.0,0.0,20.0,7.0,0.0
6644,63.0,1.0,20.0,7.0,0.0
6645,59.0,0.0,20.0,7.0,0.0
6646,75.0,19.0,20.0,7.0,0.0
6647,87.0,0.0,20.0,0.0,0.0
6648,69.0,0.0,20.0,7.0,0.0
6649,87.0,0.0,20.0,0.0,0.0
6650,69.0,0.0,20.0,7.0,0.0
6651,75.0,1.0,20.0,7.0,0.0
6652,63.0,0.0,20.0,7.0,0.0
6653,66.0,1.0,20.0,7.0,0.0
6654,59.0,0.0,20.0,7.0,0.0
6655,69.0,0.0,20.0,7.0,0.0
6656,59.0,0.0,20.0,7.0,0.0
6657,63.0,0.0,20.0,7.0,0.0
6658,66.0,20.0,20.0,7.0,0.0
6659,47.0,2.0,60.0,7.0,0.0
6660,59.0,9.0,60.0,3.0,0.0
6661,35.0,7.0,60.0,7.0,0.0
6662,71.0,19.0,20.0,7.0,0.0
6663,66.0,1.0,20.0,7.0,0.0
6664,83.0,0.0,20.0,0.0,0.0
6665,63.0,0.0,20.0,7.0,0.0
6666,69.0,0.0,20.0,7.0,0.0
6667,59.0,0.0,20.0,7.0,0.0
6668,83.0,0.0,20.0,0.0,0.0
6669,59.0,1.0,20.0,7.0,0.0
6670,66.0,0.0,20.0,7.0,0.0
6671,63.0,0.0,20.0,7.0,0.0
6672,69.0,0.0,20.0,7.0,0.0
6673,71.0,1.0,20.0,7.0,0.0
6674,54.0,2.0,60.0,7.0,0.0
6675,63.0,0.0,20.0,7.0,0.0
6676,66.0,5.0,60.0,3.0,0.0
6677,69.0,20.0,20.0,7.0,0.0
6678,59.0,0.0,20.0,7.0,0.0
6679,66.0,0.0,20.0,7.0,0.0
6680,42.0,11.0,60.0,7.0,0.0
6681,78.0,0.0,20.0,7.0,0.0
6682,59.0,1.0,20.0,7.0,0.0
6683,90.0,19.0,20.0,0.0,0.0
6684,63.0,0.0,20.0,7.0,0.0
6685,66.0,0.0,20.0,7.0,0.0
6686,69.0,0.0,20.0,7.0,0.0
6687,90.0,0.0,20.0,0.0,0.0
6688,69.0,1.0,20.0,7.0,0.0
6689,59.0,0.0,20.0,7.0,0.0
6690,78.0,1.0,20.0,7.0,0.0
6691,63.0,0.0,20.0,7.0,0.0
6692,66.0,0.0,20.0,7.0,0.0
6693,66.0,0.0,20.0,7.0,0.0
6694,35.0,9.0,60.0,7.0,0.0
6695,69.0,0.0,20.0,7.0,0.0
6696,63.0,20.0,20.0,7.0,0.0
6697,59.0,0.0,20.0,7.0,0.0
6698,59.0,7.0,60.0,3.0,0.0
6699,59.0,0.0,20.0,7.0,0.0
6700,83.0,1.0,20.0,0.0,0.0
6701,69.0,1.0,20.0,7.0,0.0
6702,66.0,0.0,20.0,7.0,0.0
6703,63.0,0.0,20.0,7.0,0.0
6704,71.0,18.0,15.0,7.0,0.0
6705,66.0,0.0,20.0,7.0,0.0
6706,59.0,1.0,20.0,7.0,0.0
6707,83.0,1.0,20.0,0.0,0.0
6708,63.0,0.0,20.0,7.0,0.0
6709,69.0,0.0,20.0,7.0,0.0
6710,47.0,2.0,15.0,7.0,0.0
6711,59.0,20.0,20.0,7.0,0.0
6712,63.0,0.0,20.0,7.0,0.0
6713,71.0,0.0,60.0,3.0,0.0
6714,69.0,0.0,20.0,7.0,0.0
6715,66.0,0.0,20.0,7.0,0.0
6716,66.0,0.0,20.0,7.0,0.0
6717,63.0,0.0,20.0,7.0,0.0
6718,95.0,11.0,20.0,0.0,0.0
6719,83.0,0.0,20.0,7.0,0.0
6720,59.0,0.0,20.0,7.0,0.0
6721,69.0,1.0,20.0,7.0,0.0
6722,66.0,0.0,20.0,7.0,0.0
6723,95.0,19.0,20.0,0.0,0.0
6724,63.0,0.0,20.0,7.0,0.0
6725,83.0,0.0,20.0,7.0,0.0
6726,59.0,3.0,15.0,7.0,0.0
6727,69.0,1.0,20.0,7.0,0.0
6728,59.0,2.0,240.0,5.0,0.0
6729,71.0,0.0,240.0,5.0,0.0
6730,52.0,0.0,60.0,6.0,0.0
6731,59.0,16.0,60.0,3.0,0.0
6732,64.0,4.0,120.0,2.0,0.0
6733,76.0,2.0,90.0,1.0,0.0
6734,59.0,0.0,20.0,7.0,0.0
6735,47.0,2.0,60.0,7.0,0.0
6736,35.0,1.0,60.0,7.0,0.0
6737,67.0,20.0,20.0,7.0,0.0
6738,64.0,0.0,20.0,7.0,0.0
6739,71.0,1.0,20.0,7.0,0.0
6740,83.0,19.0,20.0,0.0,0.0
6741,67.0,0.0,20.0,7.0,0.0
6742,64.0,0.0,20.0,7.0,0.0
6743,59.0,0.0,20.0,7.0,0.0
6744,71.0,1.0,20.0,7.0,0.0
6745,64.0,0.0,20.0,7.0,0.0
6746,83.0,0.0,20.0,0.0,0.0
6747,59.0,0.0,20.0,7.0,0.0
6748,67.0,0.0,20.0,7.0,0.0
6749,60.0,0.0,60.0,3.0,0.0
6750,64.0,0.0,30.0,3.0,0.0
6751,64.0,0.0,20.0,7.0,0.0
6752,36.0,1.0,60.0,7.0,0.0
6753,59.0,0.0,30.0,4.0,0.0
6754,67.0,0.0,30.0,4.0,0.0
6755,59.0,20.0,20.0,7.0,0.0
6756,71.0,0.0,30.0,4.0,0.0
6757,48.0,16.0,60.0,7.0,0.0
6758,67.0,0.0,20.0,7.0,0.0
6759,84.0,5.0,20.0,0.0,0.0
6760,72.0,0.0,20.0,7.0,0.0
6761,64.0,0.0,20.0,7.0,0.0
6762,59.0,1.0,20.0,7.0,0.0
6763,67.0,0.0,20.0,7.0,0.0
6764,59.0,0.0,20.0,7.0,0.0
6765,64.0,0.0,20.0,7.0,0.0
6766,67.0,1.0,20.0,7.0,0.0
6767,72.0,0.0,20.0,7.0,0.0
6768,84.0,3.0,20.0,0.0,0.0
6769,66.0,0.0,15.0,2.0,0.0
6770,64.0,1.0,15.0,3.0,0.0
6771,78.0,3.0,15.0,1.0,0.0
6772,67.0,0.0,15.0,4.0,0.0
6773,59.0,3.0,15.0,4.0,0.0
6774,71.0,0.0,15.0,4.0,0.0
6775,47.0,13.0,60.0,7.0,0.0
6776,64.0,0.0,60.0,3.0,0.0
6777,67.0,0.0,20.0,7.0,0.0
6778,59.0,20.0,20.0,7.0,0.0
6779,59.0,0.0,60.0,3.0,0.0
6780,76.0,3.0,30.0,1.0,0.0
6781,64.0,0.0,20.0,7.0,0.0
6782,71.0,0.0,60.0,4.0,0.0
6783,59.0,0.0,60.0,4.0,0.0
6784,67.0,0.0,60.0,4.0,0.0
6785,64.0,11.0,60.0,2.0,0.0
6786,35.0,1.0,60.0,7.0,0.0
6787,59.0,1.0,20.0,7.0,0.0
6788,83.0,5.0,20.0,0.0,0.0
6789,67.0,0.0,20.0,7.0,0.0
6790,71.0,0.0,20.0,7.0,0.0
6791,64.0,0.0,20.0,7.0,0.0
6792,83.0,3.0,20.0,0.0,0.0
6793,64.0,0.0,20.0,7.0,0.0
6794,59.0,1.0,20.0,7.0,0.0
6795,71.0,0.0,20.0,7.0,0.0
6796,67.0,0.0,20.0,7.0,0.0
6797,63.0,2.0,15.0,2.0,0.0
6798,75.0,0.0,15.0,1.0,0.0
6799,64.0,0.0,60.0,3.0,0.0
6800,52.0,0.0,60.0,7.0,0.0
6801,71.0,0.0,60.0,4.0,0.0
6802,64.0,0.0,20.0,7.0,0.0
6803,59.0,0.0,20.0,7.0,0.0
6804,67.0,20.0,20.0,7.0,0.0
6805,64.0,11.0,60.0,2.0,0.0
6806,76.0,3.0,30.0,1.0,0.0
6807,59.0,0.0,60.0,4.0,0.0
6808,67.0,0.0,60.0,4.0,0.0
6809,40.0,1.0,60.0,7.0,0.0
6810,88.0,5.0,20.0,0.0,0.0
6811,64.0,0.0,20.0,7.0,0.0
6812,59.0,1.0,20.0,7.0,0.0
6813,67.0,0.0,20.0,7.0,0.0
6814,76.0,0.0,20.0,7.0,0.0
6815,88.0,0.0,20.0,0.0,0.0
6816,64.0,1.0,20.0,7.0,0.0
6817,76.0,0.0,20.0,7.0,0.0
6818,67.0,0.0,20.0,7.0,0.0
6819,59.0,0.0,20.0,7.0,0.0
6820,78.0,0.0,15.0,1.0,0.0
6821,66.0,16.0,15.0,2.0,0.0
6822,35.0,0.0,60.0,7.0,0.0
6823,71.0,19.0,240.0,5.0,0.0
6824,59.0,0.0,240.0,5.0,0.0
6825,47.0,2.0,60.0,7.0,0.0
6826,64.0,0.0,20.0,7.0,0.0
6827,59.0,20.0,20.0,7.0,0.0
6828,67.0,0.0,20.0,7.0,0.0
6829,79.0,1.0,120.0,1.0,0.0
6830,59.0,16.0,60.0,3.0,0.0
6831,67.0,16.0,120.0,2.0,0.0
6832,52.0,0.0,60.0,6.0,0.0
6833,64.0,1.0,20.0,7.0,0.0
6834,59.0,0.0,20.0,7.0,0.0
6835,67.0,0.0,20.0,7.0,0.0
6836,83.0,19.0,20.0,0.0,0.0
6837,71.0,0.0,20.0,7.0,0.0
6838,64.0,0.0,20.0,7.0,0.0
6839,71.0,0.0,20.0,7.0,0.0
6840,67.0,1.0,20.0,7.0,0.0
6841,59.0,0.0,20.0,7.0,0.0
6842,83.0,1.0,20.0,0.0,0.0
6843,43.0,0.0,60.0,7.0,0.0
6844,67.0,0.0,60.0,3.0,0.0
6845,59.0,0.0,30.0,4.0,0.0
6846,67.0,1.0,30.0,4.0,0.0
6847,59.0,0.0,20.0,7.0,0.0
6848,67.0,20.0,20.0,7.0,0.0
6849,64.0,0.0,20.0,7.0,0.0
6850,71.0,6.0,30.0,4.0,0.0
6851,64.0,0.0,30.0,3.0,0.0
6852,55.0,1.0,60.0,7.0,0.0
6853,59.0,0.0,20.0,7.0,0.0
6854,67.0,0.0,20.0,7.0,0.0
6855,79.0,0.0,20.0,7.0,0.0
6856,91.0,4.0,20.0,0.0,0.0
6857,64.0,1.0,20.0,7.0,0.0
6858,59.0,1.0,20.0,7.0,0.0
6859,67.0,0.0,20.0,7.0,0.0
6860,79.0,0.0,20.0,7.0,0.0
6861,64.0,0.0,20.0,7.0,0.0
6862,91.0,1.0,20.0,0.0,0.0
6863,71.0,0.0,15.0,4.0,0.0
6864,59.0,7.0,15.0,4.0,0.0
6865,67.0,1.0,15.0,4.0,0.0
6866,64.0,0.0,15.0,3.0,0.0
6867,59.0,0.0,60.0,4.0,0.0
6868,71.0,0.0,60.0,4.0,0.0
6869,67.0,0.0,60.0,4.0,0.0
6870,64.0,0.0,60.0,2.0,0.0
6871,67.0,20.0,20.0,7.0,0.0
6872,76.0,0.0,60.0,1.0,0.0
6873,64.0,0.0,20.0,7.0,0.0
6874,59.0,13.0,60.0,3.0,0.0
6875,59.0,0.0,20.0,7.0,0.0
6876,35.0,3.0,60.0,7.0,0.0
6877,71.0,19.0,20.0,7.0,0.0
6878,83.0,0.0,20.0,0.0,0.0
6879,64.0,1.0,20.0,7.0,0.0
6880,59.0,0.0,20.0,7.0,0.0
6881,67.0,0.0,20.0,7.0,0.0
6882,59.0,0.0,20.0,7.0,0.0
6883,83.0,0.0,20.0,0.0,0.0
6884,71.0,1.0,20.0,7.0,0.0
6885,67.0,1.0,20.0,7.0,0.0
6886,64.0,0.0,20.0,7.0,0.0
6887,47.0,2.0,15.0,7.0,0.0
6888,67.0,0.0,60.0,4.0,0.0
6889,59.0,20.0,20.0,7.0,0.0
6890,64.0,0.0,20.0,7.0,0.0
6891,67.0,0.0,20.0,7.0,0.0
6892,59.0,0.0,60.0,4.0,0.0
6893,64.0,0.0,60.0,3.0,0.0
6894,71.0,0.0,60.0,3.0,0.0
6895,71.0,0.0,60.0,4.0,0.0
6896,95.0,17.0,20.0,0.0,0.0
6897,64.0,0.0,20.0,7.0,0.0
6898,67.0,1.0,20.0,7.0,0.0
6899,59.0,0.0,20.0,7.0,0.0
6900,83.0,0.0,20.0,7.0,0.0
6901,64.0,1.0,20.0,7.0,0.0
6902,59.0,2.0,15.0,7.0,0.0
6903,67.0,0.0,20.0,7.0,0.0
6904,83.0,0.0,20.0,7.0,0.0
6905,95.0,0.0,20.0,0.0,0.0
6906,35.0,2.0,60.0,7.0,0.0
6907,47.0,16.0,60.0,7.0,0.0
6908,71.0,0.0,120.0,2.0,0.0
6909,59.0,20.0,20.0,7.0,0.0
6910,67.0,0.0,20.0,7.0,0.0
6911,59.0,0.0,120.0,5.0,0.0
6912,71.0,0.0,120.0,5.0,0.0
6913,59.0,0.0,60.0,3.0,0.0
6914,83.0,6.0,120.0,1.0,0.0
6915,64.0,0.0,20.0,7.0,0.0
6916,52.0,3.0,60.0,6.0,0.0
6917,83.0,17.0,20.0,0.0,0.0
6918,59.0,0.0,20.0,7.0,0.0
6919,67.0,1.0,20.0,7.0,0.0
6920,64.0,0.0,20.0,7.0,0.0
6921,71.0,0.0,20.0,7.0,0.0
6922,83.0,0.0,20.0,0.0,0.0
6923,59.0,0.0,20.0,7.0,0.0
6924,67.0,1.0,20.0,7.0,0.0
6925,64.0,0.0,20.0,7.0,0.0
6926,71.0,0.0,20.0,7.0,0.0
6927,67.0,0.0,20.0,7.0,0.0
6928,60.0,0.0,60.0,3.0,0.0
6929,64.0,0.0,20.0,7.0,0.0
6930,67.0,0.0,30.0,4.0,0.0
6931,64.0,1.0,30.0,3.0,0.0
6932,59.0,20.0,20.0,7.0,0.0
6933,36.0,1.0,90.0,7.0,0.0
6934,59.0,4.0,60.0,4.0,0.0
6935,48.0,2.0,60.0,7.0,0.0
6936,71.0,0.0,30.0,4.0,0.0
6937,84.0,5.0,20.0,0.0,0.0
6938,64.0,0.0,20.0,7.0,0.0
6939,72.0,0.0,20.0,7.0,0.0
6940,67.0,0.0,20.0,7.0,0.0
6941,59.0,1.0,20.0,7.0,0.0
6942,59.0,1.0,20.0,7.0,0.0
6943,67.0,0.0,20.0,7.0,0.0
6944,72.0,0.0,20.0,7.0,0.0
6945,84.0,3.0,20.0,0.0,0.0
6946,64.0,0.0,20.0,7.0,0.0
6947,67.0,8.0,15.0,4.0,0.0
6948,71.0,1.0,15.0,4.0,0.0
6949,64.0,0.0,15.0,3.0,0.0
6950,59.0,0.0,15.0,4.0,0.0
6951,69.0,1.0,15.0,2.0,0.0
6952,59.0,20.0,20.0,7.0,0.0
6953,71.0,0.0,120.0,5.0,0.0
6954,35.0,0.0,60.0,7.0,0.0
6955,64.0,1.0,60.0,3.0,0.0
6956,59.0,2.0,60.0,3.0,0.0
6957,59.0,0.0,60.0,4.0,0.0
6958,71.0,0.0,60.0,4.0,0.0
6959,81.0,6.0,15.0,1.0,0.0
6960,64.0,0.0,20.0,7.0,0.0
6961,67.0,0.0,60.0,4.0,0.0
6962,59.0,1.0,120.0,5.0,0.0
6963,52.0,0.0,60.0,6.0,0.0
6964,67.0,0.0,20.0,7.0,0.0
6965,47.0,6.0,60.0,7.0,0.0
6966,79.0,3.0,60.0,1.0,0.0
6967,67.0,2.0,60.0,2.0,0.0
6968,83.0,0.0,20.0,0.0,0.0
6969,64.0,1.0,20.0,7.0,0.0
6970,71.0,19.0,20.0,7.0,0.0
6971,59.0,0.0,20.0,7.0,0.0
6972,67.0,0.0,20.0,7.0,0.0
6973,67.0,0.0,20.0,7.0,0.0
6974,83.0,0.0,20.0,0.0,0.0
6975,59.0,0.0,20.0,7.0,0.0
6976,64.0,1.0,20.0,7.0,0.0
6977,71.0,0.0,20.0,7.0,0.0
6978,40.0,3.0,60.0,7.0,0.0
6979,71.0,0.0,60.0,4.0,0.0
6980,67.0,0.0,60.0,4.0,0.0
6981,67.0,20.0,20.0,7.0,0.0
6982,59.0,0.0,20.0,7.0,0.0
6983,64.0,2.0,60.0,3.0,0.0
6984,52.0,2.0,60.0,7.0,0.0
6985,66.0,1.0,15.0,2.0,0.0
6986,78.0,4.0,15.0,1.0,0.0
6987,59.0,0.0,60.0,4.0,0.0
6988,64.0,0.0,20.0,7.0,0.0
6989,76.0,11.0,60.0,1.0,0.0
6990,64.0,0.0,30.0,2.0,0.0
6991,59.0,0.0,20.0,7.0,0.0
6992,76.0,19.0,20.0,7.0,0.0
6993,64.0,0.0,20.0,7.0,0.0
6994,67.0,1.0,20.0,7.0,0.0
6995,88.0,0.0,20.0,0.0,0.0
6996,88.0,0.0,20.0,0.0,0.0
6997,67.0,0.0,20.0,7.0,0.0
6998,76.0,0.0,20.0,7.0,0.0
6999,64.0,1.0,20.0,7.0,0.0
7000,59.0,0.0,20.0,7.0,0.0
7001,35.0,13.0,60.0,7.0,0.0
7002,71.0,0.0,180.0,5.0,0.0
7003,64.0,20.0,20.0,7.0,0.0
7004,59.0,0.0,180.0,5.0,0.0
7005,67.0,3.0,120.0,2.0,0.0
7006,67.0,0.0,20.0,7.0,0.0
7007,59.0,0.0,20.0,7.0,0.0
7008,59.0,3.0,60.0,3.0,0.0
7009,47.0,0.0,60.0,6.0,0.0
7010,79.0,13.0,120.0,1.0,0.0
7011,47.0,0.0,60.0,7.0,0.0
7012,82.0,0.0,180.0,0.0,0.0
7013,83.0,0.0,20.0,0.0,0.0
7014,67.0,0.0,20.0,7.0,0.0
7015,59.0,1.0,20.0,7.0,0.0
7016,64.0,0.0,20.0,7.0,0.0
7017,71.0,19.0,20.0,7.0,0.0
7018,83.0,0.0,20.0,0.0,0.0
7019,59.0,1.0,20.0,7.0,0.0
7020,71.0,3.0,20.0,7.0,0.0
7021,64.0,0.0,20.0,7.0,0.0
7022,67.0,0.0,20.0,7.0,0.0
7023,71.0,0.0,60.0,4.0,0.0
7024,59.0,0.0,60.0,4.0,0.0
7025,70.0,1.0,120.0,1.0,0.0
7026,43.0,0.0,60.0,7.0,0.0
7027,64.0,20.0,20.0,7.0,0.0
7028,67.0,0.0,60.0,3.0,0.0
7029,59.0,0.0,20.0,7.0,0.0
7030,67.0,0.0,20.0,7.0,0.0
7031,55.0,2.0,60.0,7.0,0.0
7032,67.0,0.0,30.0,4.0,0.0
7033,64.0,5.0,30.0,3.0,0.0
7034,91.0,5.0,20.0,0.0,0.0
7035,59.0,1.0,20.0,7.0,0.0
7036,67.0,0.0,20.0,7.0,0.0
7037,79.0,0.0,20.0,7.0,0.0
7038,64.0,0.0,20.0,7.0,0.0
7039,91.0,1.0,20.0,0.0,0.0
7040,64.0,1.0,20.0,7.0,0.0
7041,79.0,0.0,20.0,7.0,0.0
7042,67.0,0.0,20.0,7.0,0.0
7043,59.0,0.0,20.0,7.0,0.0
7044,64.0,0.0,15.0,3.0,0.0
7045,71.0,1.0,15.0,4.0,0.0
7046,59.0,1.0,15.0,4.0,0.0
7047,67.0,7.0,15.0,4.0,0.0
7048,35.0,9.0,60.0,7.0,0.0
7049,78.0,0.0,60.0,1.0,0.0
7050,71.0,0.0,60.0,4.0,0.0
7051,59.0,3.0,60.0,4.0,0.0
7052,63.0,0.0,60.0,3.0,0.0
7053,63.0,0.0,20.0,7.0,0.0
7054,59.0,20.0,20.0,7.0,0.0
7055,66.0,0.0,20.0,7.0,0.0
7056,59.0,3.0,60.0,3.0,0.0
7057,66.0,0.0,60.0,2.0,0.0
7058,83.0,0.0,20.0,0.0,0.0
7059,63.0,1.0,20.0,7.0,0.0
7060,59.0,0.0,20.0,7.0,0.0
7061,71.0,18.0,20.0,7.0,0.0
7062,66.0,0.0,20.0,7.0,0.0
7063,83.0,0.0,20.0,0.0,0.0
7064,63.0,0.0,20.0,7.0,0.0
7065,66.0,0.0,20.0,7.0,0.0
7066,71.0,0.0,20.0,7.0,0.0
7067,59.0,1.0,20.0,7.0,0.0
7068,83.0,0.0,60.0,0.0,0.0
7069,66.0,0.0,20.0,7.0,0.0
7070,63.0,18.0,20.0,7.0,0.0
7071,59.0,0.0,60.0,4.0,0.0
7072,71.0,0.0,60.0,4.0,0.0
7073,71.0,0.0,60.0,3.0,0.0
7074,63.0,0.0,60.0,3.0,0.0
7075,59.0,0.0,15.0,7.0,0.0
7076,47.0,4.0,15.0,7.0,0.0
7077,71.0,2.0,30.0,1.0,0.0
7078,66.0,0.0,20.0,7.0,0.0
7079,59.0,0.0,20.0,7.0,0.0
7080,83.0,0.0,20.0,7.0,0.0
7081,95.0,4.0,20.0,0.0,0.0
7082,63.0,1.0,20.0,7.0,0.0
7083,63.0,0.0,20.0,7.0,0.0
7084,66.0,0.0,20.0,7.0,0.0
7085,83.0,0.0,20.0,7.0,0.0
7086,95.0,0.0,20.0,0.0,0.0
7087,59.0,1.0,20.0,7.0,0.0
7088,60.0,1.0,20.0,7.0,0.0
7089,78.0,1.0,120.0,1.0,0.0
7090,57.0,0.0,20.0,7.0,0.0
7091,66.0,0.0,120.0,2.0,0.0
7092,45.0,10.0,60.0,7.0,0.0
7093,66.0,0.0,20.0,7.0,0.0
7094,63.0,0.0,20.0,7.0,0.0
7095,81.0,19.0,20.0,0.0,0.0
7096,33.0,16.0,60.0,7.0,0.0
7097,81.0,9.0,20.0,0.0,0.0
7098,57.0,0.0,20.0,7.0,0.0
7099,60.0,0.0,20.0,7.0,0.0
7100,66.0,0.0,20.0,7.0,0.0
7101,69.0,0.0,20.0,7.0,0.0
7102,63.0,1.0,20.0,7.0,0.0
7103,60.0,1.0,20.0,7.0,0.0
7104,66.0,0.0,20.0,7.0,0.0
7105,69.0,3.0,20.0,7.0,0.0
7106,57.0,0.0,20.0,7.0,0.0
7107,63.0,0.0,20.0,7.0,0.0
7108,39.0,15.0,60.0,7.0,0.0
7109,51.0,3.0,60.0,7.0,0.0
7110,66.0,6.0,30.0,3.0,0.0
7111,63.0,0.0,30.0,3.0,0.0
7112,63.0,0.0,20.0,7.0,0.0
7113,60.0,0.0,20.0,7.0,0.0
7114,66.0,20.0,20.0,7.0,0.0
7115,72.0,0.0,30.0,4.0,0.0
7116,69.0,0.0,30.0,4.0,0.0
7117,57.0,0.0,20.0,7.0,0.0
7118,90.0,5.0,20.0,0.0,0.0
7119,57.0,0.0,20.0,7.0,0.0
7120,66.0,0.0,20.0,7.0,0.0
7121,63.0,1.0,20.0,7.0,0.0
7122,60.0,0.0,20.0,7.0,0.0
7123,78.0,0.0,20.0,7.0,0.0
7124,90.0,0.0,20.0,0.0,0.0
7125,63.0,0.0,20.0,7.0,0.0
7126,66.0,0.0,20.0,7.0,0.0
7127,78.0,0.0,20.0,7.0,0.0
7128,60.0,0.0,20.0,7.0,0.0
7129,57.0,1.0,20.0,7.0,0.0
7130,63.0,6.0,15.0,3.0,0.0
7131,72.0,1.0,15.0,4.0,0.0
7132,66.0,0.0,15.0,3.0,0.0
7133,69.0,1.0,15.0,4.0,0.0
7134,33.0,13.0,60.0,7.0,0.0
7135,78.0,2.0,60.0,1.0,0.0
7136,69.0,0.0,60.0,4.0,0.0
7137,72.0,0.0,60.0,4.0,0.0
7138,63.0,20.0,20.0,7.0,0.0
7139,66.0,1.0,60.0,2.0,0.0
7140,66.0,0.0,20.0,7.0,0.0
7141,60.0,0.0,20.0,7.0,0.0
7142,66.0,0.0,60.0,3.0,0.0
7143,45.0,10.0,60.0,7.0,0.0
7144,63.0,0.0,60.0,3.0,0.0
7145,57.0,0.0,20.0,7.0,0.0
7146,87.0,6.0,20.0,0.0,0.0
7147,66.0,1.0,20.0,7.0,0.0
7148,57.0,0.0,20.0,7.0,0.0
7149,60.0,0.0,20.0,7.0,0.0
7150,75.0,0.0,20.0,7.0,0.0
7151,63.0,0.0,20.0,7.0,0.0
7152,66.0,0.0,20.0,7.0,0.0
7153,57.0,1.0,20.0,7.0,0.0
7154,63.0,0.0,20.0,7.0,0.0
7155,75.0,3.0,20.0,7.0,0.0
7156,60.0,0.0,20.0,7.0,0.0
7157,87.0,0.0,20.0,0.0,0.0
7158,79.0,0.0,15.0,1.0,0.0
7159,67.0,3.0,15.0,2.0,0.0
7160,57.0,0.0,20.0,7.0,0.0
7161,60.0,0.0,20.0,7.0,0.0
7162,63.0,0.0,60.0,3.0,0.0
7163,66.0,1.0,60.0,3.0,0.0
7164,69.0,11.0,60.0,2.0,0.0
7165,69.0,0.0,60.0,4.0,0.0
7166,72.0,0.0,60.0,4.0,0.0
7167,81.0,2.0,60.0,1.0,0.0
7168,66.0,0.0,20.0,7.0,0.0
7169,54.0,2.0,60.0,7.0,0.0
7170,63.0,20.0,20.0,7.0,0.0
7171,42.0,14.0,60.0,7.0,0.0
7172,57.0,0.0,20.0,7.0,0.0
7173,63.0,0.0,20.0,7.0,0.0
7174,93.0,0.0,20.0,0.0,0.0
7175,66.0,0.0,20.0,7.0,0.0
7176,81.0,6.0,20.0,7.0,0.0
7177,60.0,1.0,20.0,7.0,0.0
7178,81.0,0.0,20.0,7.0,0.0
7179,93.0,0.0,20.0,0.0,0.0
7180,60.0,0.0,20.0,7.0,0.0
7181,57.0,0.0,20.0,7.0,0.0
7182,63.0,0.0,20.0,7.0,0.0
7183,66.0,1.0,20.0,7.0,0.0
7184,71.0,2.0,15.0,2.0,0.0
7185,83.0,0.0,15.0,1.0,0.0
7186,39.0,17.0,60.0,7.0,0.0
7187,84.0,31.0,300.0,1.0,0.0
7188,57.0,0.0,20.0,7.0,0.0
7189,60.0,0.0,20.0,7.0,0.0
7190,72.0,0.0,300.0,2.0,0.0
7191,51.0,1.0,60.0,7.0,0.0
7192,66.0,20.0,20.0,7.0,0.0
7193,63.0,0.0,20.0,7.0,0.0
7194,78.0,19.0,20.0,7.0,0.0
7195,72.0,1.0,20.0,7.0,0.0
7196,63.0,0.0,20.0,7.0,0.0
7197,66.0,0.0,20.0,7.0,0.0
7198,90.0,0.0,20.0,0.0,0.0
7199,66.0,0.0,20.0,7.0,0.0
7200,78.0,0.0,20.0,7.0,0.0
7201,72.0,1.0,20.0,7.0,0.0
7202,63.0,0.0,20.0,7.0,0.0
7203,90.0,1.0,20.0,0.0,0.0
7204,72.0,6.0,60.0,4.0,0.0
7205,66.0,0.0,30.0,3.0,0.0
7206,45.0,17.0,60.0,7.0,0.0
7207,72.0,0.0,20.0,7.0,0.0
7208,69.0,0.0,30.0,4.0,0.0
7209,63.0,0.0,30.0,3.0,0.0
7210,66.0,0.0,20.0,7.0,0.0
7211,63.0,0.0,20.0,7.0,0.0
7212,57.0,1.0,60.0,7.0,0.0
7213,72.0,0.0,20.0,7.0,0.0
7214,84.0,0.0,20.0,7.0,0.0
7215,66.0,0.0,20.0,7.0,0.0
7216,63.0,0.0,20.0,7.0,0.0
7217,96.0,5.0,20.0,0.0,0.0
7218,66.0,0.0,20.0,7.0,0.0
7219,72.0,0.0,20.0,7.0,0.0
7220,63.0,0.0,20.0,7.0,0.0
7221,96.0,0.0,20.0,0.0,0.0
7222,84.0,1.0,20.0,7.0,0.0
7223,66.0,6.0,15.0,3.0,0.0
7224,72.0,0.0,15.0,4.0,0.0
7225,69.0,1.0,15.0,4.0,0.0
7226,63.0,1.0,15.0,3.0,0.0
7227,42.0,2.0,60.0,7.0,0.0
7228,66.0,0.0,20.0,7.0,0.0
7229,81.0,1.0,180.0,1.0,0.0
7230,72.0,0.0,60.0,4.0,0.0
7231,63.0,0.0,60.0,3.0,0.0
7232,66.0,0.0,60.0,3.0,0.0
7233,72.0,0.0,20.0,7.0,0.0
7234,69.0,0.0,60.0,4.0,0.0
7235,69.0,0.0,180.0,2.0,0.0
7236,63.0,0.0,20.0,7.0,0.0
7237,54.0,15.0,60.0,7.0,0.0
7238,72.0,1.0,20.0,7.0,0.0
7239,84.0,0.0,20.0,7.0,0.0
7240,63.0,0.0,20.0,7.0,0.0
7241,96.0,19.0,20.0,0.0,0.0
7242,66.0,0.0,20.0,7.0,0.0
7243,96.0,2.0,20.0,0.0,0.0
7244,66.0,0.0,20.0,7.0,0.0
7245,72.0,0.0,20.0,7.0,0.0
7246,63.0,0.0,20.0,7.0,0.0
7247,84.0,0.0,20.0,7.0,0.0
7248,39.0,18.0,60.0,7.0,0.0
7249,51.0,1.0,60.0,7.0,0.0
7250,66.0,0.0,20.0,7.0,0.0
7251,72.0,20.0,20.0,7.0,0.0
7252,63.0,0.0,20.0,7.0,0.0
7253,63.0,0.0,60.0,3.0,0.0
7254,66.0,0.0,60.0,3.0,0.0
7255,72.0,0.0,60.0,4.0,0.0
7256,69.0,0.0,60.0,4.0,0.0
7257,84.0,0.0,20.0,7.0,0.0
7258,72.0,0.0,20.0,7.0,0.0
7259,66.0,0.0,20.0,7.0,0.0
7260,96.0,19.0,20.0,0.0,0.0
7261,63.0,0.0,20.0,7.0,0.0
7262,72.0,0.0,20.0,7.0,0.0
7263,66.0,0.0,20.0,7.0,0.0
7264,96.0,1.0,20.0,0.0,0.0
7265,63.0,0.0,20.0,7.0,0.0
7266,84.0,0.0,20.0,7.0,0.0
7267,38.0,2.0,60.0,7.0,0.0
7268,66.0,0.0,20.0,7.0,0.0
7269,62.0,0.0,60.0,3.0,0.0
7270,74.0,0.0,60.0,4.0,0.0
7271,66.0,0.0,60.0,3.0,0.0
7272,62.0,0.0,20.0,7.0,0.0
7273,72.0,20.0,20.0,7.0,0.0
7274,69.0,0.0,60.0,4.0,0.0
7275,72.0,0.0,20.0,7.0,0.0
7276,96.0,19.0,20.0,0.0,0.0
7277,62.0,0.0,20.0,7.0,0.0
7278,66.0,1.0,20.0,7.0,0.0
7279,84.0,0.0,20.0,7.0,0.0
7280,72.0,0.0,20.0,7.0,0.0
7281,84.0,0.0,20.0,7.0,0.0
7282,96.0,0.0,20.0,0.0,0.0
7283,62.0,0.0,20.0,7.0,0.0
7284,66.0,0.0,20.0,7.0,0.0
7285,69.0,0.0,60.0,2.0,0.0
7286,74.0,3.0,60.0,1.0,0.0
7287,72.0,2.0,60.0,2.0,0.0
7288,54.0,0.0,60.0,3.0,0.0
7289,57.0,0.0,60.0,3.0,0.0
7290,62.0,14.0,30.0,4.0,0.0
7291,81.0,0.0,60.0,1.0,0.0
7292,50.0,5.0,15.0,7.0,0.0
7293,62.0,1.0,20.0,7.0,0.0
7294,93.0,0.0,20.0,0.0,0.0
7295,66.0,0.0,20.0,7.0,0.0
7296,69.0,5.0,20.0,7.0,0.0
7297,93.0,0.0,20.0,0.0,0.0
7298,62.0,1.0,20.0,7.0,0.0
7299,69.0,0.0,20.0,7.0,0.0
7300,66.0,0.0,20.0,7.0,0.0
7301,62.0,0.0,15.0,4.0,0.0
7302,55.0,0.0,60.0,3.0,0.0
7303,67.0,1.0,60.0,2.0,0.0
7304,71.0,0.0,60.0,2.0,0.0
7305,59.0,0.0,60.0,3.0,0.0
7306,74.0,0.0,60.0,1.0,0.0
7307,79.0,1.0,60.0,1.0,0.0
7308,50.0,1.0,15.0,7.0,0.0
7309,38.0,26.0,60.0,7.0,0.0
7310,62.0,0.0,60.0,4.0,0.0
7311,67.0,1.0,20.0,7.0,0.0
7312,62.0,0.0,20.0,7.0,0.0
7313,71.0,0.0,20.0,7.0,0.0
7314,91.0,19.0,20.0,0.0,0.0
7315,71.0,2.0,20.0,7.0,0.0
7316,91.0,0.0,20.0,0.0,0.0
7317,62.0,1.0,20.0,7.0,0.0
7318,67.0,0.0,20.0,7.0,0.0
7319,50.0,9.0,15.0,7.0,0.0
7320,57.0,0.0,60.0,3.0,0.0
7321,60.0,36.0,60.0,3.0,0.0
7322,62.0,6.0,30.0,4.0,0.0
7323,69.0,3.0,60.0,2.0,0.0
7324,66.0,0.0,60.0,2.0,0.0
7325,78.0,2.0,60.0,1.0,0.0
7326,74.0,0.0,60.0,1.0,0.0
7327,90.0,0.0,20.0,0.0,0.0
7328,69.0,0.0,20.0,7.0,0.0
7329,72.0,5.0,20.0,7.0,0.0
7330,62.0,1.0,20.0,7.0,0.0
7331,90.0,0.0,20.0,0.0,0.0
7332,69.0,1.0,20.0,7.0,0.0
7333,62.0,0.0,20.0,7.0,0.0
7334,72.0,0.0,20.0,7.0,0.0
7335,62.0,4.0,15.0,4.0,0.0
7336,43.0,2.0,60.0,7.0,0.0
7337,67.0,0.0,60.0,4.0,0.0
7338,67.0,0.0,60.0,2.0,0.0
7339,74.0,0.0,60.0,1.0,0.0
7340,79.0,0.0,60.0,1.0,0.0
7341,91.0,0.0,60.0,0.0,0.0
7342,59.0,1.0,60.0,3.0,0.0
7343,55.0,0.0,60.0,3.0,0.0
7344,71.0,38.0,60.0,2.0,0.0
7345,55.0,0.0,60.0,7.0,0.0
7346,67.0,0.0,20.0,7.0,0.0
7347,71.0,17.0,20.0,7.0,0.0
7348,62.0,1.0,20.0,7.0,0.0
7349,62.0,0.0,20.0,7.0,0.0
7350,71.0,0.0,20.0,7.0,0.0
7351,67.0,1.0,20.0,7.0,0.0
7352,48.0,2.0,60.0,7.0,0.0
7353,60.0,0.0,60.0,7.0,0.0
7354,64.0,0.0,30.0,3.0,0.0
7355,60.0,0.0,30.0,3.0,0.0
7356,79.0,0.0,30.0,1.0,0.0
7357,76.0,0.0,30.0,1.0,0.0
7358,67.0,0.0,30.0,2.0,0.0
7359,72.0,5.0,30.0,2.0,0.0
7360,67.0,0.0,30.0,4.0,0.0
7361,67.0,1.0,20.0,7.0,0.0
7362,64.0,0.0,20.0,7.0,0.0
7363,72.0,5.0,20.0,7.0,0.0
7364,64.0,1.0,20.0,7.0,0.0
7365,72.0,19.0,20.0,7.0,0.0
7366,67.0,0.0,20.0,7.0,0.0
7367,64.0,0.0,15.0,3.0,0.0
7368,60.0,4.0,15.0,3.0,0.0
7369,76.0,2.0,15.0,1.0,0.0
7370,67.0,0.0,15.0,2.0,0.0
7371,72.0,1.0,15.0,2.0,0.0
7372,67.0,0.0,15.0,4.0,0.0
7373,79.0,0.0,15.0,1.0,0.0
7374,43.0,1.0,20.0,7.0,0.0
7375,55.0,18.0,20.0,7.0,0.0
7376,62.0,1.0,20.0,7.0,0.0
7377,67.0,1.0,60.0,7.0,0.0
7378,67.0,7.0,60.0,2.0,0.0
7379,79.0,0.0,60.0,1.0,0.0
7380,74.0,0.0,60.0,1.0,0.0
7381,62.0,0.0,60.0,3.0,0.0
7382,55.0,0.0,60.0,3.0,0.0
7383,71.0,6.0,60.0,2.0,0.0
7384,71.0,1.0,60.0,7.0,0.0
7385,67.0,2.0,60.0,4.0,0.0
7386,64.0,2.0,20.0,7.0,0.0
7387,52.0,3.0,20.0,7.0,0.0
7388,62.0,1.0,20.0,7.0,0.0
7389,50.0,3.0,20.0,7.0,0.0
7390,60.0,2.0,20.0,7.0,0.0
7391,48.0,7.0,15.0,7.0,0.0
7392,59.0,3.0,20.0,7.0,0.0
7393,47.0,2.0,20.0,7.0,0.0
7394,45.0,0.0,20.0,7.0,0.0
7395,57.0,2.0,20.0,7.0,0.0
7396,59.0,0.0,120.0,7.0,0.0
7397,43.0,1.0,240.0,7.0,0.0
7398,62.0,0.0,15.0,7.0,0.0
7399,67.0,1.0,240.0,4.0,0.0
7400,67.0,0.0,120.0,7.0,0.0
7401,62.0,0.0,120.0,7.0,0.0
7402,57.0,0.0,60.0,7.0,0.0
7403,66.0,0.0,60.0,7.0,0.0
7404,60.0,0.0,60.0,7.0,0.0
7405,55.0,0.0,60.0,7.0,0.0
7406,64.0,145.0,60.0,7.0,0.0
7407,59.0,2.0,60.0,7.0,0.0
7408,54.0,0.0,240.0,7.0,0.0
7409,62.0,8.0,150.0,7.0,0.0
7410,60.0,0.0,240.0,7.0,0.0
7411,62.0,1.0,240.0,4.0,0.0
7412,57.0,6.0,240.0,7.0,0.0
7413,38.0,85.0,240.0,7.0,0.0
7414,62.0,15.0,15.0,7.0,0.0
7415,64.0,15.0,15.0,7.0,0.0
7416,66.0,15.0,15.0,7.0,0.0
7417,67.0,15.0,15.0,7.0,0.0
7418,69.0,15.0,15.0,7.0,0.0
7419,71.0,7.0,15.0,7.0,0.0
7420,40.0,59.0,120.0,7.0,0.0
7421,67.0,0.0,120.0,7.0,0.0
7422,74.0,24.0,90.0,7.0,0.0
7423,55.0,1.0,120.0,7.0,0.0
7424,60.0,5.0,120.0,7.0,0.0
7425,72.0,0.0,30.0,7.0,0.0
7426,38.0,1.0,60.0,7.0,0.0
7427,62.0,58.0,60.0,7.0,0.0
7428,54.0,0.0,60.0,7.0,0.0
7429,71.0,0.0,60.0,7.0,0.0
7430,66.0,1.0,60.0,7.0,0.0
7431,52.0,57.0,60.0,7.0,0.0
7432,64.0,0.0,60.0,7.0,0.0
7433,69.0,1.0,60.0,7.0,0.0
7434,57.0,1.0,60.0,7.0,0.0
7435,36.0,0.0,60.0,7.0,0.0
7436,35.0,0.0,60.0,7.0,0.0
7437,59.0,0.0,60.0,7.0,0.0
7438,53.0,52.0,60.0,7.0,0.0
7439,62.0,1.0,60.0,7.0,0.0
7440,68.0,0.0,60.0,7.0,0.0
7441,56.0,0.0,15.0,7.0,0.0
7442,71.0,8.0,15.0,7.0,0.0
7443,74.0,0.0,15.0,7.0,0.0
7444,64.0,0.0,15.0,7.0,0.0
7445,40.0,0.0,600.0,4.0,0.0
7446,44.0,120.0,15.0,7.0,0.0
7447,74.0,59.0,120.0,7.0,0.0
7448,71.0,0.0,120.0,7.0,0.0
7449,64.0,0.0,120.0,7.0,0.0
7450,56.0,0.0,120.0,7.0,0.0
7451,56.0,55.0,120.0,3.0,0.0
7452,64.0,2.0,120.0,3.0,0.0
7453,74.0,0.0,120.0,2.0,0.0
7454,83.0,0.0,120.0,1.0,0.0
7455,76.0,0.0,120.0,2.0,0.0
7456,71.0,1.0,120.0,4.0,0.0
7457,86.0,0.0,120.0,1.0,0.0
7458,52.0,60.0,60.0,6.0,0.0
7459,57.0,2.0,60.0,7.0,0.0
7460,81.0,56.0,60.0,1.0,0.0
7461,76.0,0.0,60.0,2.0,0.0
7462,72.0,0.0,60.0,2.0,0.0
7463,88.0,13.0,180.0,0.0,0.0
7464,45.0,1.0,60.0,7.0,0.0
7465,69.0,1.0,60.0,4.0,0.0
7466,84.0,0.0,60.0,1.0,0.0
7467,57.0,1.0,60.0,3.0,0.0
7468,64.0,1.0,60.0,3.0,0.0
7469,72.0,0.0,60.0,7.0,0.0
7470,69.0,0.0,60.0,7.0,0.0
7471,76.0,2.0,150.0,0.0,0.0
7472,52.0,0.0,60.0,6.0,0.0
7473,83.0,0.0,60.0,1.0,0.0
7474,79.0,0.0,60.0,1.0,0.0
7475,64.0,0.0,15.0,7.0,0.0
7476,52.0,0.0,15.0,7.0,0.0
7477,67.0,56.0,120.0,7.0,0.0
7478,71.0,1.0,60.0,7.0,0.0
7479,67.0,0.0,60.0,4.0,0.0
7480,59.0,1.0,60.0,3.0,0.0
7481,64.0,0.0,60.0,3.0,0.0
7482,52.0,1.0,60.0,6.0,0.0
7483,76.0,0.0,180.0,2.0,0.0
7484,71.0,41.0,60.0,2.0,0.0
7485,59.0,0.0,60.0,7.0,0.0
7486,47.0,0.0,60.0,7.0,0.0
7487,60.0,0.0,120.0,3.0,0.0
7488,67.0,0.0,120.0,4.0,0.0
7489,70.0,0.0,120.0,2.0,0.0
7490,64.0,0.0,120.0,3.0,0.0
7491,52.0,1.0,60.0,6.0,0.0
7492,70.0,0.0,120.0,7.0,0.0
7493,64.0,1.0,15.0,7.0,0.0
7494,82.0,1.0,120.0,1.0,0.0
7495,79.0,1.0,60.0,1.0,0.0
7496,60.0,41.0,150.0,7.0,0.0
7497,88.0,0.0,60.0,0.0,0.0
7498,64.0,2.0,15.0,7.0,0.0
7499,76.0,2.0,120.0,1.0,0.0
7500,52.0,1.0,60.0,7.0,0.0
7501,76.0,2.0,60.0,0.0,0.0
7502,36.0,12.0,120.0,7.0,0.0
7503,48.0,15.0,15.0,7.0,0.0
7504,82.0,26.0,60.0,0.0,0.0
7505,76.0,1.0,90.0,7.0,0.0
7506,64.0,1.0,60.0,7.0,0.0
7507,64.0,0.0,120.0,2.0,0.0
7508,88.0,0.0,90.0,1.0,0.0
7509,76.0,0.0,90.0,2.0,0.0
7510,60.0,1.0,120.0,3.0,0.0
7511,67.0,0.0,120.0,4.0,0.0
7512,55.0,1.0,60.0,7.0,0.0
7513,48.0,0.0,120.0,3.0,0.0
7514,52.0,0.0,60.0,6.0,0.0
7515,91.0,2.0,60.0,0.0,0.0
7516,80.0,24.0,30.0,0.0,0.0
7517,88.0,0.0,60.0,0.0,0.0
7518,67.0,1.0,60.0,7.0,0.0
7519,52.0,1.0,60.0,7.0,0.0
7520,79.0,0.0,60.0,1.0,0.0
7521,70.0,0.0,30.0,2.0,0.0
7522,70.0,0.0,30.0,7.0,0.0
7523,82.0,0.0,30.0,1.0,0.0
7524,76.0,4.0,30.0,0.0,0.0
7525,35.0,1.0,240.0,7.0,0.0
7526,71.0,19.0,20.0,7.0,0.0
7527,63.0,1.0,60.0,7.0,0.0
7528,63.0,14.0,60.0,2.0,0.0
7529,47.0,0.0,60.0,6.0,0.0
7530,54.0,1.0,20.0,7.0,0.0
7531,75.0,0.0,60.0,0.0,0.0
7532,87.0,0.0,60.0,0.0,0.0
7533,71.0,0.0,60.0,2.0,0.0
7534,47.0,0.0,240.0,4.0,0.0
7535,83.0,0.0,60.0,1.0,0.0
7536,75.0,3.0,60.0,1.0,0.0
7537,59.0,0.0,60.0,3.0,0.0
7538,47.0,0.0,60.0,3.0,0.0
7539,59.0,0.0,240.0,4.0,0.0
7540,71.0,1.0,60.0,4.0,0.0
7541,59.0,1.0,20.0,7.0,0.0
7542,71.0,19.0,20.0,7.0,0.0
7543,71.0,0.0,20.0,7.0,0.0
7544,59.0,1.0,20.0,7.0,0.0
7545,71.0,19.0,20.0,7.0,0.0
7546,59.0,1.0,20.0,7.0,0.0
7547,59.0,1.0,20.0,7.0,0.0
7548,71.0,19.0,20.0,7.0,0.0
7549,71.0,8.0,20.0,7.0,0.0
7550,59.0,1.0,20.0,7.0,0.0
7551,54.0,33.0,60.0,7.0,0.0
7552,71.0,19.0,20.0,7.0,0.0
7553,59.0,1.0,20.0,7.0,0.0
7554,71.0,6.0,20.0,7.0,0.0
7555,59.0,1.0,20.0,7.0,0.0
7556,57.0,18.0,60.0,7.0,0.0
7557,59.0,1.0,20.0,7.0,0.0
7558,71.0,19.0,20.0,7.0,0.0
7559,59.0,0.0,20.0,7.0,0.0
7560,71.0,1.0,20.0,7.0,0.0
7561,59.0,1.0,20.0,7.0,0.0
7562,71.0,19.0,20.0,7.0,0.0
7563,47.0,0.0,240.0,4.0,0.0
7564,71.0,0.0,120.0,2.0,0.0
7565,64.0,7.0,120.0,3.0,0.0
7566,83.0,0.0,120.0,1.0,0.0
7567,47.0,19.0,60.0,6.0,0.0
7568,59.0,0.0,240.0,4.0,0.0
7569,55.0,29.0,120.0,7.0,0.0
7570,59.0,1.0,20.0,7.0,0.0
7571,71.0,19.0,20.0,7.0,0.0
7572,71.0,0.0,20.0,7.0,0.0
7573,59.0,1.0,20.0,7.0,0.0
7574,71.0,19.0,20.0,7.0,0.0
7575,59.0,1.0,20.0,7.0,0.0
7576,59.0,1.0,20.0,7.0,0.0
7577,71.0,19.0,20.0,7.0,0.0
7578,59.0,1.0,20.0,7.0,0.0
7579,71.0,3.0,20.0,7.0,0.0
7580,81.0,4.0,60.0,1.0,0.0
7581,63.0,1.0,60.0,3.0,0.0
7582,69.0,0.0,60.0,2.0,0.0
7583,54.0,31.0,60.0,7.0,0.0
7584,59.0,1.0,20.0,7.0,0.0
7585,71.0,19.0,20.0,7.0,0.0
7586,59.0,1.0,20.0,7.0,0.0
7587,71.0,3.0,20.0,7.0,0.0
7588,52.0,2.0,60.0,7.0,0.0
7589,79.0,1.0,60.0,1.0,0.0
7590,67.0,0.0,60.0,2.0,0.0
7591,64.0,0.0,60.0,3.0,0.0
7592,59.0,1.0,20.0,7.0,0.0
7593,71.0,17.0,20.0,7.0,0.0
7594,71.0,0.0,20.0,7.0,0.0
7595,59.0,1.0,20.0,7.0,0.0
7596,59.0,0.0,240.0,4.0,0.0
7597,35.0,18.0,15.0,7.0,0.0
7598,47.0,1.0,240.0,4.0,0.0
7599,78.0,1.0,180.0,1.0,0.0
7600,47.0,19.0,60.0,6.0,0.0
7601,63.0,0.0,180.0,3.0,0.0
7602,59.0,20.0,20.0,7.0,0.0
7603,51.0,35.0,180.0,7.0,0.0
7604,66.0,0.0,120.0,2.0,0.0
7605,95.0,2.0,120.0,0.0,0.0
7606,59.0,0.0,180.0,3.0,0.0
7607,71.0,0.0,20.0,7.0,0.0
7608,83.0,34.0,120.0,7.0,0.0
7609,71.0,20.0,20.0,7.0,0.0
7610,59.0,0.0,20.0,7.0,0.0
7611,71.0,0.0,20.0,7.0,0.0
7612,59.0,1.0,20.0,7.0,0.0
7613,59.0,20.0,20.0,7.0,0.0
7614,71.0,0.0,20.0,7.0,0.0
7615,71.0,0.0,20.0,7.0,0.0
7616,59.0,20.0,20.0,7.0,0.0
7617,59.0,4.0,20.0,7.0,0.0
7618,71.0,0.0,20.0,7.0,0.0
7619,78.0,1.0,60.0,7.0,0.0
7620,71.0,2.0,60.0,2.0,0.0
7621,90.0,0.0,60.0,0.0,0.0
7622,83.0,0.0,300.0,0.0,0.0
7623,71.0,0.0,20.0,7.0,0.0
7624,59.0,20.0,20.0,7.0,0.0
7625,59.0,1.0,20.0,7.0,0.0
7626,71.0,0.0,20.0,7.0,0.0
7627,54.0,14.0,60.0,7.0,0.0
7628,69.0,0.0,60.0,3.0,0.0
7629,81.0,2.0,60.0,1.0,0.0
7630,81.0,1.0,60.0,7.0,0.0
7631,71.0,0.0,240.0,2.0,0.0
7632,83.0,0.0,240.0,2.0,0.0
7633,66.0,0.0,60.0,3.0,0.0
7634,93.0,0.0,60.0,0.0,0.0
7635,59.0,0.0,20.0,7.0,0.0
7636,71.0,20.0,20.0,7.0,0.0
7637,59.0,1.0,20.0,7.0,0.0
7638,71.0,0.0,20.0,7.0,0.0
7639,79.0,0.0,120.0,1.0,0.0
7640,59.0,0.0,180.0,4.0,0.0
7641,47.0,2.0,180.0,4.0,0.0
7642,47.0,1.0,60.0,6.0,0.0
7643,64.0,7.0,120.0,3.0,0.0
7644,71.0,0.0,20.0,7.0,0.0
7645,52.0,29.0,120.0,7.0,0.0
7646,67.0,0.0,120.0,3.0,0.0
7647,91.0,0.0,120.0,0.0,0.0
7648,59.0,20.0,20.0,7.0,0.0
7649,79.0,1.0,120.0,7.0,0.0
7650,35.0,18.0,60.0,7.0,0.0
7651,59.0,0.0,20.0,7.0,0.0
7652,71.0,20.0,20.0,7.0,0.0
7653,59.0,0.0,20.0,7.0,0.0
7654,71.0,1.0,20.0,7.0,0.0
7655,59.0,20.0,20.0,7.0,0.0
7656,71.0,0.0,20.0,7.0,0.0
7657,59.0,20.0,20.0,7.0,0.0
7658,71.0,0.0,20.0,7.0,0.0
7659,59.0,3.0,20.0,7.0,0.0
7660,71.0,0.0,20.0,7.0,0.0
7661,78.0,1.0,60.0,7.0,0.0
7662,78.0,0.0,60.0,1.0,0.0
7663,62.0,0.0,60.0,3.0,0.0
7664,66.0,0.0,60.0,3.0,0.0
7665,47.0,0.0,60.0,6.0,0.0
7666,90.0,2.0,60.0,0.0,0.0
7667,50.0,34.0,60.0,7.0,0.0
7668,59.0,20.0,20.0,7.0,0.0
7669,71.0,0.0,20.0,7.0,0.0
7670,59.0,0.0,20.0,7.0,0.0
7671,71.0,1.0,20.0,7.0,0.0
7672,82.0,10.0,60.0,0.0,0.0
7673,76.0,1.0,60.0,7.0,0.0
7674,47.0,0.0,60.0,4.0,0.0
7675,59.0,0.0,60.0,4.0,0.0
7676,48.0,1.0,60.0,7.0,0.0
7677,88.0,1.0,60.0,0.0,0.0
7678,60.0,0.0,60.0,3.0,0.0
7679,82.0,0.0,60.0,2.0,0.0
7680,70.0,0.0,60.0,2.0,0.0
7681,64.0,0.0,60.0,3.0,0.0
7682,76.0,0.0,60.0,1.0,0.0
7683,58.0,20.0,20.0,7.0,0.0
7684,70.0,0.0,20.0,7.0,0.0
7685,70.0,1.0,20.0,7.0,0.0
7686,58.0,0.0,20.0,7.0,0.0
7687,71.0,0.0,60.0,2.0,0.0
7688,47.0,0.0,60.0,4.0,0.0
7689,83.0,0.0,60.0,2.0,0.0
7690,59.0,0.0,60.0,4.0,0.0
7691,47.0,27.0,60.0,7.0,0.0
7692,59.0,0.0,60.0,3.0,0.0
7693,63.0,0.0,60.0,3.0,0.0
7694,47.0,0.0,60.0,6.0,0.0
7695,75.0,3.0,15.0,7.0,0.0
7696,75.0,0.0,60.0,1.0,0.0
7697,83.0,0.0,60.0,0.0,0.0
7698,87.0,1.0,60.0,0.0,0.0
7699,71.0,12.0,15.0,7.0,0.0
7700,59.0,0.0,15.0,7.0,0.0
7701,59.0,0.0,15.0,7.0,0.0
7702,71.0,15.0,15.0,7.0,0.0
7703,71.0,2.0,15.0,7.0,0.0
7704,59.0,0.0,15.0,7.0,0.0
7705,48.0,25.0,60.0,7.0,0.0
7706,60.0,15.0,15.0,7.0,0.0
7707,72.0,0.0,15.0,7.0,0.0
7708,60.0,0.0,15.0,7.0,0.0
7709,72.0,15.0,15.0,7.0,0.0
7710,60.0,5.0,15.0,7.0,0.0
7711,72.0,0.0,15.0,7.0,0.0
7712,47.0,21.0,60.0,7.0,0.0
7713,59.0,0.0,15.0,7.0,0.0
7714,71.0,15.0,15.0,7.0,0.0
7715,71.0,13.0,15.0,7.0,0.0
7716,59.0,2.0,15.0,7.0,0.0
7717,71.0,0.0,15.0,7.0,0.0
7718,59.0,9.0,15.0,7.0,0.0
7719,52.0,29.0,60.0,7.0,0.0
7720,64.0,9.0,15.0,7.0,0.0
7721,76.0,0.0,15.0,7.0,0.0
7722,64.0,6.0,15.0,7.0,0.0
7723,76.0,0.0,15.0,7.0,0.0
7724,64.0,1.0,15.0,7.0,0.0
7725,76.0,4.0,15.0,7.0,0.0
7726,51.0,25.0,60.0,7.0,0.0
7727,75.0,2.0,15.0,7.0,0.0
7728,63.0,13.0,15.0,7.0,0.0
7729,63.0,8.0,15.0,7.0,0.0
7730,75.0,0.0,15.0,7.0,0.0
7731,63.0,5.0,15.0,7.0,0.0
7732,75.0,7.0,15.0,7.0,0.0
7733,55.0,23.0,60.0,7.0,0.0
7734,67.0,0.0,15.0,7.0,0.0
7735,79.0,9.0,15.0,7.0,0.0
7736,67.0,15.0,15.0,7.0,0.0
7737,79.0,6.0,15.0,7.0,0.0
7738,67.0,7.0,15.0,7.0,0.0
7739,79.0,0.0,15.0,7.0,0.0
7740,54.0,22.0,60.0,7.0,0.0
7741,78.0,9.0,15.0,7.0,0.0
7742,66.0,0.0,15.0,7.0,0.0
7743,66.0,15.0,15.0,7.0,0.0
7744,78.0,6.0,15.0,7.0,0.0
7745,66.0,8.0,15.0,7.0,0.0
7746,78.0,0.0,15.0,7.0,0.0
7747,52.0,27.0,60.0,7.0,0.0
7748,76.0,15.0,15.0,7.0,0.0
7749,64.0,0.0,15.0,7.0,0.0
7750,76.0,15.0,15.0,7.0,0.0
7751,64.0,0.0,15.0,7.0,0.0
7752,76.0,3.0,15.0,7.0,0.0
7753,64.0,0.0,15.0,7.0,0.0
7754,51.0,18.0,120.0,7.0,0.0
7755,75.0,15.0,15.0,7.0,0.0
7756,63.0,0.0,15.0,7.0,0.0
7757,78.0,5.0,20.0,1.0,0.0
7758,63.0,10.0,15.0,7.0,0.0
7759,75.0,0.0,15.0,7.0,0.0
7760,66.0,0.0,20.0,3.0,0.0
7761,63.0,0.0,15.0,7.0,0.0
7762,75.0,15.0,15.0,7.0,0.0
7763,67.0,0.0,20.0,3.0,0.0
7764,75.0,0.0,15.0,7.0,0.0
7765,63.0,10.0,15.0,7.0,0.0
7766,79.0,5.0,20.0,1.0,0.0
7767,63.0,0.0,15.0,7.0,0.0
7768,75.0,15.0,15.0,7.0,0.0
7769,78.0,0.0,20.0,1.0,0.0
7770,63.0,10.0,15.0,7.0,0.0
7771,66.0,3.0,20.0,3.0,0.0
7772,75.0,0.0,15.0,7.0,0.0
7773,75.0,2.0,15.0,7.0,0.0
7774,63.0,7.0,15.0,7.0,0.0
7775,67.0,0.0,20.0,3.0,0.0
7776,48.0,27.0,120.0,7.0,0.0
7777,79.0,5.0,20.0,1.0,0.0
7778,72.0,15.0,15.0,7.0,0.0
7779,60.0,0.0,15.0,7.0,0.0
7780,72.0,10.0,15.0,7.0,0.0
7781,60.0,0.0,15.0,7.0,0.0
7782,80.0,5.0,20.0,1.0,0.0
7783,68.0,0.0,20.0,3.0,0.0
7784,60.0,0.0,15.0,7.0,0.0
7785,72.0,15.0,15.0,7.0,0.0
7786,81.0,5.0,20.0,1.0,0.0
7787,69.0,0.0,20.0,3.0,0.0
7788,60.0,10.0,15.0,7.0,0.0
7789,72.0,0.0,15.0,7.0,0.0
7790,60.0,15.0,15.0,7.0,0.0
7791,72.0,0.0,15.0,7.0,0.0
7792,72.0,0.0,15.0,7.0,0.0
7793,60.0,10.0,15.0,7.0,0.0
7794,82.0,5.0,20.0,1.0,0.0
7795,70.0,0.0,20.0,3.0,0.0
7796,60.0,0.0,15.0,7.0,0.0
7797,72.0,3.0,15.0,7.0,0.0
7798,71.0,8.0,180.0,3.0,0.0
7799,83.0,5.0,180.0,1.0,0.0
7800,47.0,12.0,120.0,7.0,0.0
7801,71.0,15.0,15.0,7.0,0.0
7802,59.0,0.0,15.0,7.0,0.0
7803,73.0,13.0,15.0,2.0,0.0
7804,71.0,0.0,15.0,7.0,0.0
7805,59.0,2.0,15.0,7.0,0.0
7806,85.0,0.0,15.0,0.0,0.0
7807,71.0,0.0,15.0,7.0,0.0
7808,59.0,15.0,15.0,7.0,0.0
7809,71.0,2.0,15.0,7.0,0.0
7810,59.0,0.0,15.0,7.0,0.0
7811,86.0,1.0,15.0,0.0,0.0
7812,74.0,12.0,15.0,2.0,0.0
7813,71.0,15.0,15.0,7.0,0.0
7814,59.0,0.0,15.0,7.0,0.0
7815,75.0,11.0,15.0,2.0,0.0
7816,59.0,0.0,15.0,7.0,0.0
7817,71.0,2.0,15.0,7.0,0.0
7818,87.0,2.0,15.0,0.0,0.0
7819,71.0,3.0,15.0,7.0,0.0
7820,59.0,0.0,15.0,7.0,0.0
7821,52.0,1.0,120.0,3.0,0.0
7822,52.0,0.0,60.0,6.0,0.0
7823,74.0,10.0,120.0,1.0,0.0
7824,88.0,6.0,15.0,0.0,0.0
7825,64.0,0.0,90.0,2.0,0.0
7826,40.0,0.0,120.0,7.0,0.0
7827,52.0,0.0,120.0,4.0,0.0
7828,64.0,0.0,120.0,4.0,0.0
7829,71.0,0.0,120.0,4.0,0.0
7830,64.0,1.0,15.0,7.0,0.0
7831,76.0,1.0,15.0,2.0,0.0
7832,68.0,0.0,15.0,7.0,0.0
7833,47.0,0.0,120.0,7.0,0.0
7834,62.0,0.0,15.0,7.0,0.0
7835,59.0,0.0,15.0,7.0,0.0
7836,64.0,7.0,15.0,7.0,0.0
7837,59.0,0.0,15.0,7.0,0.0
7838,68.0,12.0,15.0,7.0,0.0
7839,62.0,0.0,15.0,7.0,0.0
7840,62.0,0.0,15.0,7.0,0.0
7841,59.0,0.0,15.0,7.0,0.0
7842,68.0,2.0,15.0,7.0,0.0
7843,89.0,13.0,15.0,0.0,0.0
7844,64.0,0.0,15.0,7.0,0.0
7845,77.0,3.0,15.0,2.0,0.0
7846,68.0,0.0,15.0,7.0,0.0
7847,62.0,0.0,15.0,7.0,0.0
7848,59.0,0.0,15.0,7.0,0.0
7849,64.0,2.0,15.0,7.0,0.0
7850,90.0,0.0,15.0,0.0,0.0
7851,62.0,0.0,60.0,3.0,0.0
7852,59.0,0.0,15.0,7.0,0.0
7853,68.0,0.0,15.0,7.0,0.0
7854,62.0,0.0,15.0,7.0,0.0
7855,64.0,2.0,15.0,7.0,0.0
7856,78.0,13.0,15.0,2.0,0.0
7857,76.0,0.0,30.0,1.0,0.0
7858,64.0,15.0,15.0,7.0,0.0
7859,59.0,0.0,15.0,7.0,0.0
7860,68.0,0.0,15.0,7.0,0.0
7861,62.0,0.0,15.0,7.0,0.0
7862,92.0,6.0,15.0,0.0,0.0
7863,64.0,2.0,15.0,7.0,0.0
7864,80.0,0.0,15.0,2.0,0.0
7865,62.0,0.0,15.0,7.0,0.0
7866,59.0,0.0,15.0,7.0,0.0
7867,68.0,0.0,15.0,7.0,0.0
7868,76.0,0.0,15.0,1.0,0.0
7869,59.0,0.0,15.0,7.0,0.0
7870,62.0,0.0,15.0,7.0,0.0
7871,68.0,2.0,15.0,7.0,0.0
7872,64.0,7.0,15.0,2.0,0.0
7873,64.0,0.0,15.0,7.0,0.0
7874,60.0,0.0,60.0,3.0,0.0
7875,57.0,0.0,60.0,3.0,0.0
7876,64.0,1.0,15.0,7.0,0.0
7877,45.0,1.0,15.0,7.0,0.0
7878,81.0,0.0,90.0,2.0,0.0
7879,52.0,0.0,60.0,4.0,0.0
7880,72.0,0.0,60.0,1.0,0.0
7881,76.0,0.0,120.0,1.0,0.0
7882,33.0,4.0,20.0,7.0,0.0
7883,60.0,9.0,15.0,7.0,0.0
7884,52.0,1.0,60.0,6.0,0.0
7885,64.0,0.0,90.0,2.0,0.0
7886,93.0,0.0,60.0,0.0,0.0
7887,69.0,0.0,60.0,4.0,0.0
7888,69.0,0.0,15.0,7.0,0.0
7889,64.0,11.0,60.0,4.0,0.0
7890,72.0,15.0,15.0,7.0,0.0
7891,69.0,0.0,15.0,7.0,0.0
7892,64.0,0.0,15.0,7.0,0.0
7893,64.0,15.0,15.0,7.0,0.0
7894,72.0,0.0,15.0,7.0,0.0
7895,69.0,0.0,15.0,7.0,0.0
7896,72.0,0.0,15.0,7.0,0.0
7897,69.0,2.0,15.0,7.0,0.0
7898,64.0,0.0,15.0,7.0,0.0
7899,48.0,1.0,15.0,7.0,0.0
7900,57.0,5.0,30.0,3.0,0.0
7901,72.0,0.0,30.0,4.0,0.0
7902,69.0,0.0,30.0,4.0,0.0
7903,69.0,14.0,15.0,7.0,0.0
7904,64.0,0.0,30.0,3.0,0.0
7905,36.0,1.0,30.0,7.0,0.0
7906,72.0,15.0,15.0,7.0,0.0
7907,69.0,0.0,15.0,7.0,0.0
7908,64.0,0.0,15.0,7.0,0.0
7909,69.0,2.0,15.0,7.0,0.0
7910,72.0,0.0,15.0,7.0,0.0
7911,64.0,0.0,15.0,7.0,0.0
7912,72.0,1.0,15.0,4.0,0.0
7913,69.0,1.0,15.0,4.0,0.0
7914,64.0,5.0,15.0,7.0,0.0
7915,71.0,14.0,20.0,2.0,0.0
7916,83.0,1.0,15.0,1.0,0.0
7917,72.0,0.0,15.0,7.0,0.0
7918,69.0,0.0,15.0,7.0,0.0
7919,64.0,1.0,15.0,3.0,0.0
7920,57.0,5.0,15.0,3.0,0.0
7921,69.0,0.0,60.0,4.0,0.0
7922,81.0,10.0,60.0,1.0,0.0
7923,72.0,1.0,60.0,4.0,0.0
7924,57.0,0.0,60.0,3.0,0.0
7925,33.0,2.0,30.0,7.0,0.0
7926,69.0,0.0,60.0,2.0,0.0
7927,64.0,2.0,60.0,3.0,0.0
7928,45.0,8.0,15.0,7.0,0.0
7929,72.0,0.0,15.0,7.0,0.0
7930,69.0,15.0,15.0,7.0,0.0
7931,64.0,0.0,15.0,7.0,0.0
7932,64.0,0.0,15.0,7.0,0.0
7933,69.0,5.0,15.0,7.0,0.0
7934,72.0,0.0,15.0,7.0,0.0
7935,68.0,12.0,15.0,2.0,0.0
7936,69.0,0.0,15.0,7.0,0.0
7937,72.0,2.0,15.0,7.0,0.0
7938,64.0,0.0,15.0,7.0,0.0
7939,80.0,0.0,15.0,1.0,0.0
7940,64.0,0.0,60.0,3.0,0.0
7941,45.0,2.0,30.0,7.0,0.0
7942,69.0,0.0,60.0,4.0,0.0
7943,72.0,1.0,60.0,4.0,0.0
7944,69.0,0.0,60.0,2.0,0.0
7945,57.0,11.0,15.0,7.0,0.0
7946,81.0,10.0,60.0,1.0,0.0
7947,57.0,2.0,60.0,3.0,0.0
7948,60.0,15.0,15.0,7.0,0.0
7949,69.0,0.0,15.0,7.0,0.0
7950,72.0,0.0,15.0,7.0,0.0
7951,69.0,0.0,15.0,7.0,0.0
7952,72.0,0.0,15.0,7.0,0.0
7953,60.0,5.0,15.0,7.0,0.0
7954,83.0,0.0,20.0,1.0,0.0
7955,71.0,11.0,15.0,2.0,0.0
7956,72.0,0.0,15.0,7.0,0.0
7957,69.0,0.0,15.0,7.0,0.0
7958,60.0,2.0,15.0,7.0,0.0
7959,53.0,12.0,15.0,7.0,0.0
7960,41.0,2.0,30.0,7.0,0.0
7961,84.0,11.0,120.0,1.0,0.0
7962,72.0,0.0,120.0,2.0,0.0
7963,72.0,15.0,15.0,7.0,0.0
7964,60.0,0.0,15.0,7.0,0.0
7965,69.0,0.0,15.0,7.0,0.0
7966,60.0,0.0,15.0,7.0,0.0
7967,72.0,0.0,15.0,7.0,0.0
7968,69.0,15.0,15.0,7.0,0.0
7969,60.0,0.0,15.0,7.0,0.0
7970,69.0,15.0,15.0,7.0,0.0
7971,72.0,0.0,15.0,7.0,0.0
7972,65.0,6.0,30.0,3.0,0.0
7973,72.0,0.0,30.0,4.0,0.0
7974,69.0,0.0,30.0,4.0,0.0
7975,45.0,0.0,30.0,7.0,0.0
7976,57.0,15.0,15.0,7.0,0.0
7977,69.0,0.0,15.0,7.0,0.0
7978,72.0,15.0,15.0,7.0,0.0
7979,60.0,0.0,15.0,7.0,0.0
7980,72.0,2.0,15.0,7.0,0.0
7981,69.0,0.0,15.0,7.0,0.0
7982,60.0,0.0,15.0,7.0,0.0
7983,60.0,0.0,15.0,7.0,0.0
7984,69.0,0.0,15.0,7.0,0.0
7985,72.0,5.0,15.0,7.0,0.0
7986,72.0,0.0,15.0,4.0,0.0
7987,69.0,1.0,15.0,4.0,0.0
7988,65.0,6.0,15.0,3.0,0.0
7989,41.0,7.0,30.0,7.0,0.0
7990,53.0,7.0,15.0,7.0,0.0
7991,72.0,0.0,60.0,4.0,0.0
7992,69.0,0.0,60.0,4.0,0.0
7993,69.0,18.0,60.0,2.0,0.0
7994,81.0,0.0,60.0,1.0,0.0
7995,65.0,0.0,60.0,3.0,0.0
7996,72.0,0.0,15.0,7.0,0.0
7997,69.0,0.0,15.0,7.0,0.0
7998,60.0,15.0,15.0,7.0,0.0
7999,60.0,0.0,15.0,7.0,0.0
8000,69.0,2.0,15.0,7.0,0.0
8001,72.0,13.0,15.0,7.0,0.0
8002,69.0,2.0,15.0,7.0,0.0
8003,72.0,0.0,15.0,7.0,0.0
8004,60.0,0.0,15.0,7.0,0.0
8005,72.0,0.0,60.0,4.0,0.0
8006,69.0,0.0,60.0,4.0,0.0
8007,65.0,19.0,60.0,3.0,0.0
8008,53.0,2.0,30.0,7.0,0.0
8009,65.0,8.0,15.0,7.0,0.0
8010,72.0,0.0,15.0,7.0,0.0
8011,69.0,0.0,15.0,7.0,0.0
8012,60.0,15.0,15.0,7.0,0.0
8013,72.0,0.0,15.0,7.0,0.0
8014,69.0,15.0,15.0,7.0,0.0
8015,60.0,0.0,15.0,7.0,0.0
8016,60.0,0.0,15.0,7.0,0.0
8017,69.0,0.0,15.0,7.0,0.0
8018,72.0,2.0,15.0,7.0,0.0
8019,69.0,8.0,120.0,2.0,0.0
8020,93.0,2.0,120.0,0.0,0.0
8021,75.0,0.0,180.0,2.0,0.0
8022,81.0,4.0,120.0,1.0,0.0
8023,39.0,0.0,30.0,7.0,0.0
8024,51.0,9.0,15.0,7.0,0.0
8025,72.0,15.0,15.0,7.0,0.0
8026,60.0,0.0,15.0,7.0,0.0
8027,66.0,0.0,15.0,7.0,0.0
8028,72.0,0.0,15.0,7.0,0.0
8029,66.0,0.0,15.0,7.0,0.0
8030,60.0,15.0,15.0,7.0,0.0
8031,72.0,22.0,15.0,7.0,0.0
8032,66.0,0.0,15.0,7.0,0.0
8033,60.0,0.0,15.0,7.0,0.0
8034,72.0,7.0,30.0,4.0,0.0
8035,66.0,0.0,30.0,3.0,0.0
8036,51.0,7.0,20.0,7.0,0.0
8037,69.0,0.0,30.0,3.0,0.0
8038,69.0,0.0,30.0,4.0,0.0
8039,63.0,1.0,15.0,7.0,0.0
8040,66.0,0.0,15.0,7.0,0.0
8041,60.0,15.0,15.0,7.0,0.0
8042,72.0,0.0,15.0,7.0,0.0
8043,66.0,0.0,15.0,7.0,0.0
8044,72.0,0.0,15.0,7.0,0.0
8045,60.0,2.0,15.0,7.0,0.0
8046,60.0,2.0,15.0,7.0,0.0
8047,69.0,0.0,15.0,4.0,0.0
8048,72.0,0.0,15.0,7.0,0.0
8049,72.0,1.0,15.0,4.0,0.0
8050,66.0,1.0,15.0,3.0,0.0
8051,66.0,0.0,15.0,7.0,0.0
8052,69.0,4.0,15.0,3.0,0.0
8053,33.0,2.0,30.0,7.0,0.0
8054,79.0,0.0,15.0,1.0,0.0
8055,69.0,3.0,60.0,4.0,0.0
8056,67.0,8.0,15.0,2.0,0.0
8057,91.0,0.0,15.0,0.0,0.0
8058,69.0,0.0,60.0,3.0,0.0
8059,66.0,0.0,60.0,3.0,0.0
8060,72.0,0.0,60.0,4.0,0.0
8061,45.0,4.0,15.0,7.0,0.0
8062,66.0,4.0,60.0,2.0,0.0
8063,90.0,0.0,30.0,0.0,0.0
8064,78.0,0.0,30.0,1.0,0.0
8065,60.0,0.0,15.0,7.0,0.0
8066,66.0,0.0,15.0,7.0,0.0
8067,75.0,15.0,15.0,7.0,0.0
8068,75.0,0.0,15.0,7.0,0.0
8069,60.0,0.0,15.0,7.0,0.0
8070,66.0,15.0,15.0,7.0,0.0
8071,60.0,0.0,15.0,7.0,0.0
8072,75.0,2.0,15.0,7.0,0.0
8073,66.0,0.0,15.0,7.0,0.0
8074,57.0,11.0,15.0,7.0,0.0
8075,76.0,0.0,15.0,1.0,0.0
8076,78.0,0.0,60.0,1.0,0.0
8077,78.0,1.0,60.0,0.0,0.0
8078,69.0,7.0,30.0,4.0,0.0
8079,88.0,0.0,15.0,0.0,0.0
8080,57.0,0.0,60.0,3.0,0.0
8081,69.0,0.0,60.0,3.0,0.0
8082,47.0,0.0,60.0,6.0,0.0
8083,64.0,10.0,15.0,2.0,0.0
8084,84.0,0.0,60.0,2.0,0.0
8085,72.0,0.0,30.0,4.0,0.0
8086,45.0,0.0,30.0,7.0,0.0
8087,66.0,0.0,15.0,7.0,0.0
8088,60.0,15.0,15.0,7.0,0.0
8089,87.0,2.0,60.0,0.0,0.0
8090,75.0,0.0,15.0,7.0,0.0
8091,75.0,0.0,30.0,1.0,0.0
8092,63.0,16.0,60.0,2.0,0.0
8093,66.0,0.0,15.0,7.0,0.0
8094,75.0,0.0,15.0,7.0,0.0
8095,60.0,2.0,15.0,7.0,0.0
8096,66.0,0.0,15.0,7.0,0.0
8097,60.0,2.0,15.0,7.0,0.0
8098,75.0,0.0,15.0,7.0,0.0
8099,69.0,5.0,15.0,4.0,0.0
8100,72.0,1.0,15.0,4.0,0.0
8101,83.0,0.0,30.0,2.0,0.0
8102,88.0,0.0,30.0,0.0,0.0
8103,55.0,13.0,30.0,3.0,0.0
8104,71.0,13.0,30.0,4.0,0.0
8105,52.0,0.0,30.0,4.0,0.0
8106,64.0,0.0,30.0,4.0,0.0
8107,52.0,0.0,30.0,6.0,0.0
8108,55.0,8.0,20.0,7.0,0.0
8109,83.0,0.0,30.0,0.0,0.0
8110,62.0,0.0,30.0,2.0,0.0
8111,71.0,0.0,30.0,1.0,0.0
8112,76.0,0.0,30.0,1.0,0.0
8113,67.0,0.0,30.0,3.0,0.0
8114,43.0,1.0,20.0,7.0,0.0
8115,59.0,0.0,15.0,7.0,0.0
8116,76.0,2.0,15.0,7.0,0.0
8117,64.0,0.0,15.0,7.0,0.0
8118,64.0,2.0,15.0,7.0,0.0
8119,76.0,0.0,15.0,7.0,0.0
8120,59.0,0.0,15.0,7.0,0.0
8121,64.0,0.0,15.0,7.0,0.0
8122,76.0,0.0,15.0,7.0,0.0
8123,59.0,15.0,15.0,7.0,0.0
8124,52.0,0.0,30.0,4.0,0.0
8125,76.0,0.0,30.0,2.0,0.0
8126,52.0,0.0,30.0,6.0,0.0
8127,72.0,3.0,15.0,7.0,0.0
8128,64.0,0.0,15.0,7.0,0.0
8129,84.0,13.0,30.0,0.0,0.0
8130,76.0,0.0,30.0,0.0,0.0
8131,72.0,0.0,30.0,2.0,0.0
8132,84.0,0.0,30.0,1.0,0.0
8133,69.0,0.0,30.0,4.0,0.0
8134,64.0,0.0,30.0,4.0,0.0
8135,76.0,0.0,30.0,1.0,0.0
8136,57.0,0.0,30.0,3.0,0.0
8137,57.0,0.0,15.0,7.0,0.0
8138,64.0,0.0,30.0,3.0,0.0
8139,45.0,1.0,15.0,7.0,0.0
8140,57.0,11.0,15.0,7.0,0.0
8141,64.0,0.0,15.0,7.0,0.0
8142,72.0,0.0,15.0,7.0,0.0
8143,64.0,15.0,15.0,7.0,0.0
8144,72.0,0.0,15.0,7.0,0.0
8145,57.0,0.0,15.0,7.0,0.0
8146,57.0,0.0,15.0,7.0,0.0
8147,64.0,15.0,15.0,7.0,0.0
8148,72.0,0.0,15.0,7.0,0.0
8149,57.0,0.0,15.0,7.0,0.0
8150,70.0,0.0,180.0,2.0,0.0
8151,76.0,0.0,180.0,2.0,0.0
8152,72.0,0.0,15.0,7.0,0.0
8153,64.0,15.0,15.0,7.0,0.0
8154,72.0,0.0,15.0,7.0,0.0
8155,64.0,15.0,15.0,7.0,0.0
8156,57.0,0.0,15.0,7.0,0.0
8157,64.0,0.0,15.0,7.0,0.0
8158,57.0,15.0,15.0,7.0,0.0
8159,72.0,0.0,15.0,7.0,0.0
8160,72.0,0.0,15.0,7.0,0.0
8161,57.0,15.0,15.0,7.0,0.0
8162,64.0,0.0,15.0,7.0,0.0
8163,60.0,1.0,120.0,7.0,0.0
8164,82.0,4.0,120.0,1.0,0.0
8165,60.0,1.0,120.0,3.0,0.0
8166,70.0,0.0,15.0,7.0,0.0
8167,64.0,0.0,15.0,7.0,0.0
8168,67.0,0.0,120.0,4.0,0.0
8169,48.0,8.0,120.0,7.0,0.0
8170,52.0,9.0,30.0,6.0,0.0
8171,55.0,15.0,15.0,7.0,0.0
8172,64.0,0.0,120.0,4.0,0.0
8173,64.0,0.0,120.0,3.0,0.0
8174,52.0,0.0,120.0,4.0,0.0
8175,55.0,0.0,15.0,7.0,0.0
8176,70.0,0.0,15.0,7.0,0.0
8177,64.0,15.0,15.0,7.0,0.0
8178,70.0,0.0,15.0,7.0,0.0
8179,64.0,0.0,15.0,7.0,0.0
8180,55.0,2.0,15.0,7.0,0.0
8181,55.0,0.0,15.0,7.0,0.0
8182,52.0,4.0,15.0,6.0,0.0
8183,70.0,15.0,15.0,7.0,0.0
8184,64.0,0.0,15.0,7.0,0.0
8185,64.0,15.0,15.0,7.0,0.0
8186,55.0,0.0,15.0,7.0,0.0
8187,70.0,0.0,15.0,7.0,0.0
8188,52.0,0.0,60.0,6.0,0.0
8189,55.0,2.0,15.0,7.0,0.0
8190,64.0,13.0,15.0,7.0,0.0
8191,70.0,0.0,15.0,7.0,0.0
8192,55.0,0.0,15.0,7.0,0.0
8193,70.0,9.0,15.0,7.0,0.0
8194,64.0,0.0,15.0,7.0,0.0
8195,55.0,2.0,15.0,7.0,0.0
8196,64.0,5.0,15.0,7.0,0.0
8197,70.0,0.0,15.0,7.0,0.0
8198,59.0,2.0,30.0,7.0,0.0
8199,64.0,0.0,15.0,7.0,0.0
8200,55.0,0.0,15.0,7.0,0.0
8201,71.0,0.0,120.0,4.0,0.0
8202,52.0,0.0,120.0,4.0,0.0
8203,79.0,0.0,60.0,1.0,0.0
8204,83.0,0.0,120.0,1.0,0.0
8205,71.0,13.0,15.0,7.0,0.0
8206,67.0,0.0,60.0,3.0,0.0
8207,64.0,0.0,120.0,4.0,0.0
8208,88.0,0.0,60.0,0.0,0.0
8209,71.0,0.0,60.0,2.0,0.0
8210,95.0,0.0,120.0,0.0,0.0
8211,76.0,24.0,60.0,2.0,0.0
8212,59.0,0.0,120.0,3.0,0.0
8213,47.0,2.0,60.0,6.0,0.0
8214,71.0,15.0,15.0,7.0,0.0
8215,55.0,0.0,15.0,7.0,0.0
8216,64.0,0.0,15.0,7.0,0.0
8217,71.0,0.0,15.0,7.0,0.0
8218,55.0,15.0,15.0,7.0,0.0
8219,64.0,0.0,15.0,7.0,0.0
8220,71.0,0.0,15.0,7.0,0.0
8221,64.0,0.0,15.0,7.0,0.0
8222,55.0,1.0,15.0,7.0,0.0
8223,47.0,2.0,15.0,7.0,0.0
8224,35.0,0.0,60.0,7.0,0.0
8225,75.0,25.0,60.0,1.0,0.0
8226,69.0,0.0,60.0,2.0,0.0
8227,75.0,0.0,60.0,2.0,0.0
8228,87.0,0.0,60.0,0.0,0.0
8229,66.0,0.0,60.0,3.0,0.0
8230,71.0,1.0,15.0,7.0,0.0
8231,54.0,0.0,15.0,7.0,0.0
8232,63.0,14.0,15.0,7.0,0.0
8233,71.0,1.0,15.0,7.0,0.0
8234,54.0,0.0,15.0,7.0,0.0
8235,63.0,14.0,15.0,7.0,0.0
8236,63.0,2.0,15.0,7.0,0.0
8237,71.0,0.0,15.0,7.0,0.0
8238,54.0,0.0,15.0,7.0,0.0
8239,47.0,1.0,60.0,7.0,0.0
8240,69.0,0.0,30.0,2.0,0.0
8241,93.0,0.0,30.0,0.0,0.0
8242,59.0,0.0,60.0,4.0,0.0
8243,71.0,0.0,60.0,4.0,0.0
8244,81.0,0.0,60.0,1.0,0.0
8245,78.0,0.0,30.0,1.0,0.0
8246,75.0,0.0,60.0,2.0,0.0
8247,66.0,0.0,60.0,4.0,0.0
8248,66.0,3.0,60.0,3.0,0.0
8249,59.0,1.0,60.0,3.0,0.0
8250,87.0,3.0,30.0,0.0,0.0
8251,59.0,3.0,15.0,7.0,0.0
8252,64.0,13.0,15.0,7.0,0.0
8253,75.0,0.0,15.0,7.0,0.0
8254,59.0,0.0,15.0,7.0,0.0
8255,64.0,0.0,15.0,7.0,0.0
8256,75.0,2.0,15.0,7.0,0.0
8257,47.0,2.0,15.0,6.0,0.0
8258,75.0,0.0,15.0,1.0,0.0
8259,64.0,0.0,15.0,7.0,0.0
8260,81.0,2.0,15.0,0.0,0.0
8261,90.0,0.0,15.0,0.0,0.0
8262,71.0,0.0,15.0,2.0,0.0
8263,59.0,0.0,15.0,7.0,0.0
8264,69.0,0.0,15.0,2.0,0.0
8265,75.0,1.0,15.0,7.0,0.0
8266,78.0,0.0,15.0,1.0,0.0
8267,63.0,4.0,15.0,3.0,0.0
8268,47.0,1.0,15.0,6.0,0.0
8269,40.0,3.0,60.0,7.0,0.0
8270,52.0,0.0,60.0,4.0,0.0
8271,88.0,0.0,60.0,0.0,0.0
8272,79.0,1.0,60.0,0.0,0.0
8273,67.0,17.0,15.0,7.0,0.0
8274,76.0,25.0,120.0,7.0,0.0
8275,47.0,0.0,60.0,6.0,0.0
8276,52.0,13.0,60.0,3.0,0.0
8277,52.0,0.0,15.0,7.0,0.0
8278,67.0,0.0,60.0,2.0,0.0
8279,71.0,0.0,60.0,2.0,0.0
8280,71.0,0.0,60.0,4.0,0.0
8281,76.0,2.0,60.0,1.0,0.0
8282,64.0,0.0,60.0,4.0,0.0
8283,64.0,0.0,60.0,3.0,0.0
8284,67.0,1.0,15.0,7.0,0.0
8285,64.0,15.0,15.0,7.0,0.0
8286,71.0,0.0,15.0,7.0,0.0
8287,67.0,5.0,15.0,7.0,0.0
8288,64.0,2.0,15.0,7.0,0.0
8289,55.0,0.0,60.0,3.0,0.0
8290,71.0,0.0,15.0,7.0,0.0
8291,67.0,15.0,15.0,7.0,0.0
8292,64.0,0.0,15.0,7.0,0.0
8293,67.0,10.0,15.0,7.0,0.0
8294,71.0,2.0,15.0,7.0,0.0
8295,52.0,5.0,15.0,7.0,0.0
8296,54.0,8.0,15.0,7.0,0.0
8297,64.0,0.0,15.0,7.0,0.0
8298,55.0,5.0,15.0,7.0,0.0
8299,67.0,2.0,15.0,7.0,0.0
8300,57.0,2.0,15.0,7.0,0.0
8301,59.0,3.0,60.0,7.0,0.0
8302,59.0,13.0,60.0,3.0,0.0
8303,71.0,1.0,30.0,7.0,0.0
8304,66.0,0.0,15.0,7.0,0.0
8305,71.0,1.0,30.0,7.0,0.0
8306,69.0,15.0,15.0,7.0,0.0
8307,66.0,2.0,15.0,7.0,0.0
8308,69.0,0.0,15.0,7.0,0.0
8309,71.0,1.0,30.0,7.0,0.0
8310,63.0,0.0,60.0,3.0,0.0
8311,69.0,14.0,15.0,7.0,0.0
8312,66.0,10.0,15.0,7.0,0.0
8313,69.0,0.0,15.0,7.0,0.0
8314,71.0,1.0,30.0,7.0,0.0
8315,59.0,5.0,15.0,7.0,0.0
8316,47.0,0.0,15.0,6.0,0.0
8317,61.0,6.0,15.0,7.0,0.0
8318,69.0,0.0,15.0,7.0,0.0
8319,66.0,0.0,15.0,7.0,0.0
8320,63.0,13.0,15.0,7.0,0.0
8321,47.0,1.0,15.0,6.0,0.0
8322,64.0,27.0,60.0,3.0,0.0
8323,67.0,16.0,15.0,7.0,0.0
8324,64.0,14.0,15.0,7.0,0.0
8325,71.0,13.0,15.0,7.0,0.0
8326,67.0,1.0,15.0,7.0,0.0
8327,64.0,1.0,15.0,7.0,0.0
8328,67.0,0.0,15.0,7.0,0.0
8329,59.0,3.0,60.0,7.0,0.0
8330,59.0,28.0,60.0,3.0,0.0
8331,71.0,1.0,30.0,7.0,0.0
8332,64.0,0.0,15.0,7.0,0.0
8333,67.0,15.0,15.0,7.0,0.0
8334,71.0,1.0,30.0,7.0,0.0
8335,64.0,0.0,15.0,7.0,0.0
8336,67.0,2.0,15.0,7.0,0.0
8337,55.0,6.0,60.0,3.0,0.0
8338,76.0,28.0,120.0,7.0,0.0
8339,55.0,22.0,60.0,7.0,0.0
8340,64.0,15.0,15.0,7.0,0.0
8341,67.0,0.0,15.0,7.0,0.0
8342,71.0,0.0,15.0,7.0,0.0
8343,64.0,2.0,15.0,7.0,0.0
8344,67.0,15.0,15.0,7.0,0.0
8345,52.0,9.0,60.0,7.0,0.0
8346,52.0,0.0,60.0,3.0,0.0
8347,67.0,0.0,15.0,7.0,0.0
8348,64.0,9.0,15.0,7.0,0.0
8349,71.0,3.0,15.0,7.0,0.0
8350,47.0,6.0,15.0,6.0,0.0
8351,47.0,1.0,15.0,6.0,0.0
8352,67.0,1.0,15.0,7.0,0.0
8353,64.0,2.0,15.0,7.0,0.0
8354,47.0,1.0,15.0,6.0,0.0
8355,78.0,16.0,120.0,7.0,0.0
8356,51.0,0.0,60.0,7.0,0.0
8357,47.0,1.0,60.0,6.0,0.0
8358,51.0,28.0,60.0,3.0,0.0
8359,69.0,15.0,15.0,7.0,0.0
8360,59.0,0.0,15.0,7.0,0.0
8361,71.0,1.0,15.0,7.0,0.0
8362,66.0,13.0,15.0,7.0,0.0
8363,69.0,2.0,15.0,7.0,0.0
8364,59.0,0.0,15.0,7.0,0.0
8365,47.0,1.0,60.0,3.0,0.0
8366,47.0,0.0,60.0,7.0,0.0
8367,69.0,1.0,15.0,7.0,0.0
8368,59.0,14.0,15.0,7.0,0.0
8369,71.0,1.0,15.0,7.0,0.0
8370,66.0,14.0,15.0,7.0,0.0
8371,69.0,2.0,15.0,7.0,0.0
8372,59.0,0.0,15.0,7.0,0.0
8373,52.0,23.0,60.0,7.0,0.0
8374,79.0,4.0,90.0,7.0,0.0
8375,52.0,0.0,60.0,3.0,0.0
8376,59.0,15.0,15.0,7.0,0.0
8377,67.0,11.0,15.0,7.0,0.0
8378,71.0,0.0,15.0,7.0,0.0
8379,64.0,4.0,15.0,7.0,0.0
8380,67.0,11.0,15.0,7.0,0.0
8381,59.0,7.0,15.0,7.0,0.0
8382,70.0,1.0,150.0,2.0,0.0
8383,82.0,0.0,150.0,1.0,0.0
8384,55.0,1.0,60.0,3.0,0.0
8385,55.0,26.0,60.0,7.0,0.0
8386,59.0,1.0,15.0,7.0,0.0
8387,67.0,4.0,20.0,7.0,0.0
8388,64.0,1.0,15.0,7.0,0.0
8389,78.0,2.0,15.0,7.0,0.0
8390,47.0,6.0,15.0,6.0,0.0
8391,71.0,1.0,15.0,7.0,0.0
8392,47.0,6.0,15.0,6.0,0.0
8393,59.0,5.0,15.0,7.0,0.0
8394,76.0,0.0,15.0,7.0,0.0
8395,67.0,4.0,15.0,7.0,0.0
8396,47.0,0.0,15.0,6.0,0.0
8397,59.0,28.0,120.0,3.0,0.0
8398,47.0,1.0,60.0,6.0,0.0
8399,76.0,29.0,60.0,7.0,0.0
8400,59.0,13.0,15.0,7.0,0.0
8401,67.0,1.0,15.0,7.0,0.0
8402,64.0,12.0,15.0,7.0,0.0
8403,71.0,2.0,15.0,7.0,0.0
8404,67.0,1.0,15.0,7.0,0.0
8405,59.0,0.0,15.0,7.0,0.0
8406,75.0,1.0,30.0,7.0,0.0
8407,66.0,0.0,15.0,7.0,0.0
8408,59.0,13.0,15.0,7.0,0.0
8409,83.0,1.0,30.0,1.0,0.0
8410,71.0,0.0,30.0,2.0,0.0
8411,71.0,1.0,15.0,7.0,0.0
8412,63.0,13.0,15.0,7.0,0.0
8413,66.0,0.0,15.0,7.0,0.0
8414,59.0,1.0,15.0,7.0,0.0
8415,71.0,0.0,60.0,2.0,0.0
8416,83.0,1.0,60.0,1.0,0.0
8417,75.0,0.0,60.0,7.0,0.0
8418,47.0,1.0,60.0,7.0,0.0
8419,47.0,0.0,60.0,3.0,0.0
8420,66.0,14.0,15.0,7.0,0.0
8421,59.0,1.0,15.0,7.0,0.0
8422,71.0,2.0,15.0,7.0,0.0
8423,63.0,12.0,15.0,7.0,0.0
8424,59.0,14.0,15.0,7.0,0.0
8425,66.0,0.0,15.0,7.0,0.0
8426,71.0,15.0,15.0,7.0,0.0
8427,63.0,0.0,15.0,7.0,0.0
8428,59.0,0.0,15.0,7.0,0.0
8429,66.0,9.0,15.0,7.0,0.0
8430,47.0,6.0,15.0,6.0,0.0
8431,71.0,0.0,15.0,7.0,0.0
8432,63.0,4.0,15.0,7.0,0.0
8433,47.0,10.0,15.0,6.0,0.0
8434,66.0,23.0,15.0,7.0,0.0
8435,59.0,0.0,15.0,7.0,0.0
8436,47.0,1.0,15.0,6.0,0.0
8437,45.0,30.0,60.0,7.0,0.0
8438,64.0,0.0,120.0,4.0,0.0
8439,57.0,0.0,120.0,3.0,0.0
8440,72.0,0.0,120.0,2.0,0.0
8441,33.0,0.0,120.0,7.0,0.0
8442,47.0,1.0,60.0,6.0,0.0
8443,78.0,0.0,120.0,2.0,0.0
8444,66.0,0.0,120.0,3.0,0.0
8445,84.0,0.0,120.0,1.0,0.0
8446,88.0,1.0,120.0,0.0,0.0
8447,90.0,0.0,120.0,0.0,0.0
8448,76.0,0.0,120.0,1.0,0.0
8449,76.0,13.0,15.0,7.0,0.0
8450,60.0,7.0,15.0,7.0,0.0
8451,78.0,0.0,15.0,7.0,0.0
8452,66.0,0.0,15.0,7.0,0.0
8453,64.0,2.0,15.0,7.0,0.0
8454,60.0,6.0,15.0,7.0,0.0
8455,76.0,8.0,15.0,7.0,0.0
8456,78.0,0.0,15.0,7.0,0.0
8457,57.0,3.0,60.0,7.0,0.0
8458,60.0,1.0,15.0,7.0,0.0
8459,78.0,2.0,15.0,7.0,0.0
8460,66.0,1.0,15.0,7.0,0.0
8461,76.0,0.0,15.0,7.0,0.0
8462,64.0,11.0,15.0,7.0,0.0
8463,78.0,30.0,15.0,7.0,0.0
8464,76.0,0.0,15.0,7.0,0.0
8465,60.0,4.0,15.0,7.0,0.0
8466,90.0,0.0,90.0,0.0,0.0
8467,76.0,0.0,90.0,1.0,0.0
8468,84.0,0.0,90.0,1.0,0.0
8469,88.0,1.0,90.0,0.0,0.0
8470,78.0,0.0,90.0,2.0,0.0
8471,57.0,4.0,60.0,7.0,0.0
8472,66.0,0.0,90.0,3.0,0.0
8473,57.0,0.0,90.0,3.0,0.0
8474,64.0,0.0,90.0,4.0,0.0
8475,72.0,0.0,90.0,2.0,0.0
8476,60.0,0.0,15.0,7.0,0.0
8477,78.0,1.0,15.0,7.0,0.0
8478,66.0,6.0,15.0,7.0,0.0
8479,76.0,2.0,15.0,7.0,0.0
8480,64.0,12.0,15.0,7.0,0.0
8481,60.0,0.0,15.0,7.0,0.0
8482,76.0,4.0,15.0,7.0,0.0
8483,78.0,30.0,15.0,7.0,0.0
8484,57.0,0.0,60.0,7.0,0.0
8485,78.0,1.0,15.0,7.0,0.0
8486,60.0,1.0,15.0,7.0,0.0
8487,66.0,1.0,15.0,7.0,0.0
8488,64.0,3.0,15.0,7.0,0.0
8489,47.0,5.0,15.0,6.0,0.0
8490,76.0,7.0,15.0,7.0,0.0
8491,47.0,0.0,15.0,6.0,0.0
8492,60.0,0.0,15.0,7.0,0.0
8493,84.0,1.0,15.0,1.0,0.0
8494,57.0,1.0,15.0,3.0,0.0
8495,66.0,3.0,15.0,3.0,0.0
8496,88.0,0.0,15.0,0.0,0.0
8497,90.0,0.0,15.0,0.0,0.0
8498,78.0,1.0,15.0,2.0,0.0
8499,76.0,1.0,15.0,1.0,0.0
8500,64.0,0.0,15.0,4.0,0.0
8501,72.0,0.0,15.0,2.0,0.0
8502,76.0,4.0,15.0,7.0,0.0
8503,78.0,19.0,15.0,7.0,0.0
8504,47.0,0.0,15.0,6.0,0.0
8505,34.0,1.0,120.0,7.0,0.0
8506,91.0,22.0,180.0,0.0,0.0
8507,58.0,1.0,240.0,3.0,0.0
8508,85.0,0.0,240.0,1.0,0.0
8509,67.0,6.0,180.0,3.0,0.0
8510,76.0,28.0,240.0,1.0,0.0
8511,79.0,0.0,180.0,2.0,0.0
8512,64.0,0.0,240.0,4.0,0.0
8513,88.0,1.0,180.0,0.0,0.0
8514,46.0,3.0,60.0,7.0,0.0
8515,47.0,1.0,60.0,6.0,0.0
8516,73.0,0.0,240.0,2.0,0.0
8517,79.0,0.0,15.0,7.0,0.0
8518,61.0,11.0,15.0,7.0,0.0
8519,76.0,10.0,15.0,7.0,0.0
8520,67.0,0.0,15.0,7.0,0.0
8521,64.0,5.0,15.0,7.0,0.0
8522,61.0,4.0,15.0,7.0,0.0
8523,76.0,7.0,15.0,7.0,0.0
8524,79.0,30.0,15.0,7.0,0.0
8525,58.0,6.0,60.0,7.0,0.0
8526,79.0,0.0,15.0,7.0,0.0
8527,61.0,15.0,15.0,7.0,0.0
8528,76.0,0.0,15.0,7.0,0.0
8529,67.0,1.0,15.0,7.0,0.0
8530,64.0,7.0,15.0,7.0,0.0
8531,61.0,30.0,15.0,7.0,0.0
8532,76.0,0.0,15.0,7.0,0.0
8533,79.0,0.0,15.0,7.0,0.0
8534,58.0,3.0,60.0,7.0,0.0
8535,61.0,0.0,15.0,7.0,0.0
8536,79.0,15.0,15.0,7.0,0.0
8537,64.0,0.0,15.0,7.0,0.0
8538,76.0,0.0,15.0,7.0,0.0
8539,67.0,0.0,15.0,7.0,0.0
8540,76.0,11.0,15.0,7.0,0.0
8541,79.0,0.0,15.0,7.0,0.0
8542,61.0,0.0,15.0,7.0,0.0
8543,58.0,3.0,60.0,7.0,0.0
8544,78.0,4.0,30.0,2.0,0.0
8545,90.0,0.0,30.0,0.0,0.0
8546,66.0,3.0,30.0,3.0,0.0
8547,76.0,0.0,15.0,7.0,0.0
8548,79.0,0.0,15.0,7.0,0.0
8549,61.0,2.0,15.0,7.0,0.0
8550,67.0,0.0,15.0,7.0,0.0
8551,47.0,6.0,15.0,6.0,0.0
8552,76.0,0.0,15.0,7.0,0.0
8553,76.0,0.0,30.0,2.0,0.0
8554,64.0,0.0,30.0,3.0,0.0
8555,88.0,0.0,30.0,0.0,0.0
8556,64.0,4.0,15.0,7.0,0.0
8557,47.0,7.0,15.0,6.0,0.0
8558,76.0,2.0,15.0,7.0,0.0
8559,61.0,0.0,15.0,7.0,0.0
8560,79.0,0.0,15.0,7.0,0.0
8561,47.0,0.0,15.0,6.0,0.0
8562,47.0,29.0,60.0,7.0,0.0
8563,59.0,0.0,240.0,3.0,0.0
8564,79.0,0.0,120.0,1.0,0.0
8565,83.0,0.0,240.0,1.0,0.0
8566,76.0,0.0,120.0,2.0,0.0
8567,88.0,0.0,120.0,0.0,0.0
8568,64.0,27.0,120.0,3.0,0.0
8569,83.0,0.0,240.0,0.0,0.0
8570,67.0,1.0,120.0,4.0,0.0
8571,35.0,0.0,60.0,7.0,0.0
8572,67.0,0.0,120.0,2.0,0.0
8573,52.0,0.0,120.0,4.0,0.0
8574,64.0,1.0,120.0,4.0,0.0
8575,47.0,1.0,60.0,6.0,0.0
8576,59.0,14.0,15.0,7.0,0.0
8577,76.0,0.0,15.0,7.0,0.0
8578,67.0,1.0,15.0,7.0,0.0
8579,64.0,0.0,15.0,7.0,0.0
8580,76.0,0.0,15.0,7.0,0.0
8581,67.0,14.0,15.0,7.0,0.0
8582,59.0,0.0,15.0,7.0,0.0
8583,67.0,9.0,15.0,7.0,0.0
8584,76.0,0.0,15.0,7.0,0.0
8585,59.0,0.0,15.0,7.0,0.0
8586,47.0,6.0,15.0,6.0,0.0
8587,64.0,0.0,15.0,7.0,0.0
8588,47.0,5.0,15.0,6.0,0.0
8589,76.0,0.0,15.0,7.0,0.0
8590,59.0,5.0,15.0,7.0,0.0
8591,67.0,4.0,15.0,7.0,0.0
8592,47.0,1.0,15.0,6.0,0.0
8593,47.0,4.0,60.0,7.0,0.0
8594,47.0,1.0,60.0,6.0,0.0
8595,59.0,0.0,120.0,4.0,0.0
8596,66.0,0.0,120.0,4.0,0.0
8597,69.0,1.0,120.0,4.0,0.0
8598,63.0,0.0,120.0,3.0,0.0
8599,87.0,0.0,120.0,0.0,0.0
8600,69.0,1.0,120.0,2.0,0.0
8601,75.0,27.0,120.0,2.0,0.0
8602,81.0,0.0,120.0,1.0,0.0
8603,35.0,25.0,60.0,7.0,0.0
8604,59.0,0.0,15.0,7.0,0.0
8605,75.0,15.0,15.0,7.0,0.0
8606,69.0,0.0,15.0,7.0,0.0
8607,63.0,10.0,15.0,7.0,0.0
8608,66.0,0.0,15.0,7.0,0.0
8609,69.0,0.0,15.0,7.0,0.0
8610,75.0,0.0,15.0,7.0,0.0
8611,59.0,5.0,15.0,7.0,0.0
8612,59.0,0.0,15.0,7.0,0.0
8613,75.0,9.0,15.0,7.0,0.0
8614,69.0,0.0,15.0,7.0,0.0
8615,66.0,1.0,20.0,7.0,0.0
8616,63.0,3.0,15.0,7.0,0.0
8617,69.0,0.0,15.0,7.0,0.0
8618,47.0,6.0,15.0,6.0,0.0
8619,47.0,10.0,15.0,6.0,0.0
8620,69.0,0.0,15.0,7.0,0.0
8621,75.0,0.0,15.0,7.0,0.0
8622,59.0,0.0,15.0,7.0,0.0
8623,47.0,1.0,15.0,6.0,0.0
8624,52.0,3.0,60.0,7.0,0.0
8625,76.0,0.0,60.0,2.0,0.0
8626,67.0,0.0,60.0,2.0,0.0
8627,52.0,0.0,60.0,3.0,0.0
8628,83.0,0.0,60.0,1.0,0.0
8629,64.0,0.0,60.0,3.0,0.0
8630,88.0,0.0,60.0,0.0,0.0
8631,67.0,1.0,60.0,4.0,0.0
8632,79.0,0.0,60.0,1.0,0.0
8633,52.0,0.0,60.0,4.0,0.0
8634,64.0,0.0,60.0,4.0,0.0
8635,47.0,2.0,60.0,6.0,0.0
8636,40.0,13.0,60.0,7.0,0.0
8637,59.0,0.0,15.0,7.0,0.0
8638,76.0,0.0,15.0,7.0,0.0
8639,67.0,15.0,15.0,7.0,0.0
8640,64.0,0.0,15.0,7.0,0.0
8641,60.0,11.0,15.0,7.0,0.0
8642,67.0,0.0,15.0,7.0,0.0
8643,76.0,0.0,15.0,7.0,0.0
8644,70.0,1.0,120.0,2.0,0.0
8645,94.0,0.0,120.0,0.0,0.0
8646,59.0,0.0,60.0,3.0,0.0
8647,64.0,0.0,15.0,7.0,0.0
8648,69.0,0.0,60.0,3.0,0.0
8649,60.0,0.0,15.0,7.0,0.0
8650,59.0,0.0,15.0,7.0,0.0
8651,82.0,13.0,120.0,1.0,0.0
8652,59.0,14.0,15.0,7.0,0.0
8653,76.0,0.0,15.0,7.0,0.0
8654,67.0,15.0,15.0,7.0,0.0
8655,64.0,1.0,15.0,7.0,0.0
8656,67.0,0.0,15.0,7.0,0.0
8657,60.0,14.0,15.0,7.0,0.0
8658,59.0,0.0,15.0,7.0,0.0
8659,76.0,0.0,15.0,7.0,0.0
8660,55.0,0.0,60.0,7.0,0.0
8661,67.0,0.0,60.0,3.0,0.0
8662,60.0,0.0,15.0,7.0,0.0
8663,67.0,2.0,15.0,7.0,0.0
8664,55.0,0.0,60.0,3.0,0.0
8665,64.0,0.0,15.0,7.0,0.0
8666,67.0,15.0,15.0,7.0,0.0
8667,76.0,0.0,15.0,7.0,0.0
8668,59.0,14.0,15.0,7.0,0.0
8669,71.0,1.0,30.0,4.0,0.0
8670,67.0,1.0,15.0,7.0,0.0
8671,64.0,1.0,15.0,7.0,0.0
8672,60.0,13.0,15.0,7.0,0.0
8673,76.0,0.0,15.0,7.0,0.0
8674,59.0,0.0,15.0,7.0,0.0
8675,52.0,6.0,60.0,7.0,0.0
8676,52.0,1.0,60.0,3.0,0.0
8677,95.0,0.0,60.0,0.0,0.0
8678,60.0,13.0,15.0,7.0,0.0
8679,71.0,0.0,60.0,2.0,0.0
8680,83.0,0.0,60.0,1.0,0.0
8681,71.0,1.0,30.0,4.0,0.0
8682,67.0,1.0,15.0,7.0,0.0
8683,64.0,1.0,15.0,7.0,0.0
8684,64.0,0.0,60.0,3.0,0.0
8685,76.0,0.0,15.0,7.0,0.0
8686,59.0,7.0,15.0,7.0,0.0
8687,67.0,2.0,15.0,7.0,0.0
8688,60.0,0.0,15.0,7.0,0.0
8689,64.0,0.0,15.0,7.0,0.0
8690,71.0,0.0,30.0,4.0,0.0
8691,47.0,6.0,15.0,6.0,0.0
8692,47.0,4.0,15.0,6.0,0.0
8693,76.0,0.0,15.0,7.0,0.0
8694,67.0,4.0,15.0,7.0,0.0
8695,59.0,30.0,15.0,7.0,0.0
8696,47.0,0.0,15.0,6.0,0.0
8697,35.0,0.0,60.0,7.0,0.0
8698,67.0,26.0,120.0,3.0,0.0
8699,47.0,0.0,60.0,6.0,0.0
8700,59.0,0.0,120.0,3.0,0.0
8701,76.0,1.0,60.0,1.0,0.0
8702,79.0,1.0,120.0,1.0,0.0
8703,64.0,0.0,120.0,4.0,0.0
8704,52.0,0.0,120.0,4.0,0.0
8705,91.0,0.0,120.0,0.0,0.0
8706,88.0,0.0,120.0,0.0,0.0
8707,67.0,1.0,120.0,4.0,0.0
8708,71.0,0.0,120.0,2.0,0.0
8709,76.0,0.0,120.0,2.0,0.0
8710,59.0,15.0,15.0,7.0,0.0
8711,76.0,0.0,15.0,7.0,0.0
8712,67.0,0.0,15.0,7.0,0.0
8713,64.0,1.0,15.0,7.0,0.0
8714,67.0,0.0,15.0,7.0,0.0
8715,76.0,0.0,15.0,7.0,0.0
8716,67.0,30.0,15.0,7.0,0.0
8717,47.0,3.0,15.0,7.0,0.0
8718,59.0,0.0,15.0,7.0,0.0
8719,71.0,1.0,60.0,1.0,0.0
8720,59.0,9.0,15.0,7.0,0.0
8721,76.0,0.0,15.0,7.0,0.0
8722,67.0,0.0,15.0,7.0,0.0
8723,47.0,6.0,15.0,6.0,0.0
8724,67.0,0.0,15.0,7.0,0.0
8725,64.0,1.0,15.0,7.0,0.0
8726,47.0,4.0,15.0,6.0,0.0
8727,67.0,2.0,15.0,7.0,0.0
8728,76.0,0.0,15.0,7.0,0.0
8729,59.0,5.0,15.0,7.0,0.0
8730,47.0,0.0,15.0,6.0,0.0
8731,35.0,1.0,60.0,7.0,0.0
8732,69.0,52.0,120.0,4.0,0.0
8733,59.0,0.0,60.0,4.0,0.0
8734,59.0,0.0,120.0,3.0,0.0
8735,81.0,1.0,120.0,0.0,0.0
8736,78.0,1.0,120.0,1.0,0.0
8737,71.0,1.0,60.0,1.0,0.0
8738,47.0,0.0,60.0,6.0,0.0
8739,66.0,0.0,60.0,4.0,0.0
8740,66.0,0.0,120.0,3.0,0.0
8741,69.0,1.0,120.0,2.0,0.0
8742,75.0,0.0,120.0,2.0,0.0
8743,59.0,14.0,15.0,7.0,0.0
8744,75.0,1.0,15.0,7.0,0.0
8745,69.0,0.0,15.0,7.0,0.0
8746,63.0,1.0,15.0,7.0,0.0
8747,66.0,10.0,15.0,7.0,0.0
8748,75.0,0.0,15.0,7.0,0.0
8749,69.0,0.0,15.0,7.0,0.0
8750,47.0,3.0,15.0,7.0,0.0
8751,59.0,29.0,15.0,7.0,0.0
8752,71.0,0.0,60.0,4.0,0.0
8753,59.0,1.0,60.0,4.0,0.0
8754,71.0,0.0,60.0,1.0,0.0
8755,69.0,0.0,15.0,7.0,0.0
8756,75.0,1.0,15.0,7.0,0.0
8757,59.0,8.0,15.0,7.0,0.0
8758,66.0,1.0,15.0,7.0,0.0
8759,47.0,6.0,15.0,6.0,0.0
8760,63.0,1.0,15.0,7.0,0.0
8761,69.0,0.0,15.0,7.0,0.0
8762,47.0,0.0,15.0,6.0,0.0
8763,88.0,0.0,15.0,0.0,0.0
8764,76.0,1.0,15.0,1.0,0.0
8765,67.0,0.0,15.0,2.0,0.0
8766,59.0,4.0,15.0,7.0,0.0
8767,79.0,0.0,15.0,0.0,0.0
8768,76.0,1.0,15.0,2.0,0.0
8769,64.0,2.0,15.0,3.0,0.0
8770,75.0,0.0,15.0,7.0,0.0
8771,69.0,1.0,15.0,7.0,0.0
8772,47.0,0.0,15.0,6.0,0.0
8773,36.0,5.0,60.0,7.0,0.0
8774,76.0,0.0,60.0,1.0,0.0
8775,76.0,0.0,60.0,2.0,0.0
8776,67.0,0.0,60.0,2.0,0.0
8777,79.0,0.0,60.0,0.0,0.0
8778,52.0,0.0,60.0,6.0,0.0
8779,67.0,0.0,60.0,4.0,0.0
8780,64.0,0.0,60.0,4.0,0.0
8781,88.0,0.0,60.0,0.0,0.0
8782,52.0,0.0,60.0,4.0,0.0
8783,60.0,0.0,60.0,3.0,0.0
8784,64.0,1.0,60.0,3.0,0.0
8785,76.0,0.0,60.0,7.0,0.0
8786,60.0,0.0,60.0,7.0,0.0
8787,67.0,0.0,60.0,7.0,0.0
8788,48.0,26.0,60.0,7.0,0.0
8789,64.0,59.0,30.0,7.0,0.0
8790,60.0,60.0,30.0,7.0,0.0
8791,64.0,61.0,30.0,7.0,0.0
8792,60.0,59.0,30.0,7.0,0.0
8793,64.0,60.0,30.0,7.0,0.0
8794,60.0,60.0,30.0,7.0,0.0
8795,64.0,60.0,30.0,7.0,0.0
8796,60.0,60.0,30.0,7.0,0.0
8797,67.0,60.0,30.0,7.0,0.0
8798,64.0,0.0,30.0,7.0,0.0
8799,64.0,60.0,30.0,7.0,0.0
8800,60.0,0.0,30.0,7.0,0.0
8801,67.0,60.0,30.0,7.0,0.0
8802,64.0,0.0,30.0,7.0,0.0
8803,64.0,60.0,30.0,7.0,0.0
8804,60.0,0.0,30.0,7.0,0.0
8805,67.0,60.0,30.0,7.0,0.0
8806,64.0,0.0,30.0,7.0,0.0
8807,64.0,60.0,30.0,7.0,0.0
8808,60.0,0.0,30.0,7.0,0.0
8809,67.0,61.0,30.0,7.0,0.0
8810,76.0,0.0,30.0,7.0,0.0
8811,64.0,59.0,30.0,7.0,0.0
8812,72.0,27.0,180.0,7.0,0.0
8813,70.0,0.0,60.0,7.0,0.0
8814,60.0,1.0,30.0,7.0,0.0
8815,70.0,1.0,60.0,7.0,0.0
8816,60.0,59.0,15.0,7.0,0.0
8817,52.0,32.0,30.0,7.0,0.0
8818,70.0,0.0,60.0,7.0,0.0
8819,60.0,1.0,30.0,7.0,0.0
8820,76.0,28.0,60.0,7.0,0.0
8821,70.0,0.0,60.0,7.0,0.0
8822,60.0,1.0,60.0,7.0,0.0
8823,79.0,26.0,60.0,7.0,0.0
8824,52.0,33.0,30.0,7.0,0.0
8825,67.0,0.0,60.0,7.0,0.0
8826,60.0,1.0,30.0,7.0,0.0
8827,76.0,28.0,60.0,7.0,0.0
8828,60.0,31.0,15.0,7.0,0.0
8829,67.0,0.0,60.0,7.0,0.0
8830,72.0,28.0,60.0,7.0,0.0
8831,52.0,31.0,30.0,7.0,0.0
8832,67.0,0.0,60.0,7.0,0.0
8833,70.0,57.0,90.0,7.0,0.0
8834,60.0,1.0,30.0,7.0,0.0
8835,60.0,29.0,15.0,7.0,0.0
8836,67.0,28.0,30.0,7.0,0.0
8837,84.0,1.0,540.0,1.0,0.0
8838,53.0,2.0,30.0,7.0,0.0
8839,65.0,1.0,30.0,7.0,0.0
8840,69.0,1.0,60.0,7.0,0.0
8841,60.0,0.0,30.0,7.0,0.0
8842,69.0,58.0,15.0,7.0,0.0
8843,60.0,1.0,15.0,7.0,0.0
8844,72.0,58.0,60.0,7.0,0.0
8845,53.0,1.0,30.0,7.0,0.0
8846,77.0,3.0,60.0,7.0,0.0
8847,69.0,2.0,60.0,7.0,0.0
8848,60.0,0.0,30.0,7.0,0.0
8849,60.0,27.0,15.0,7.0,0.0
8850,81.0,58.0,60.0,7.0,0.0
8851,69.0,28.0,30.0,7.0,0.0
8852,52.0,1.0,30.0,7.0,0.0
8853,70.0,0.0,30.0,7.0,0.0
8854,82.0,18.0,240.0,2.0,0.0
8855,79.0,57.0,60.0,7.0,0.0
8856,70.0,0.0,60.0,7.0,0.0
8857,60.0,1.0,30.0,7.0,0.0
8858,70.0,1.0,60.0,7.0,0.0
8859,60.0,2.0,15.0,7.0,0.0
8860,76.0,44.0,60.0,7.0,0.0
8861,52.0,2.0,30.0,7.0,0.0
8862,72.0,28.0,60.0,7.0,0.0
8863,70.0,0.0,60.0,7.0,0.0
8864,52.0,13.0,20.0,7.0,0.0
8865,60.0,1.0,30.0,7.0,0.0
8866,70.0,3.0,30.0,7.0,0.0
8867,67.0,0.0,30.0,7.0,0.0
8868,81.0,0.0,60.0,2.0,0.0
8869,67.0,1.0,30.0,7.0,0.0
8870,70.0,27.0,30.0,7.0,0.0
8871,53.0,9.0,20.0,7.0,0.0
8872,69.0,0.0,30.0,7.0,0.0
8873,65.0,13.0,30.0,7.0,0.0
8874,60.0,17.0,15.0,7.0,0.0
8875,65.0,2.0,30.0,7.0,0.0
8876,69.0,9.0,30.0,7.0,0.0
8877,64.0,2.0,30.0,7.0,0.0
8878,68.0,24.0,30.0,7.0,0.0
8879,53.0,19.0,15.0,7.0,0.0
8880,69.0,4.0,30.0,7.0,0.0
8881,65.0,12.0,30.0,7.0,0.0
8882,60.0,18.0,15.0,7.0,0.0
8883,65.0,0.0,30.0,7.0,0.0
8884,69.0,14.0,30.0,7.0,0.0
8885,51.0,16.0,20.0,7.0,0.0
8886,65.0,0.0,30.0,7.0,0.0
8887,69.0,30.0,30.0,7.0,0.0
8888,69.0,11.0,30.0,7.0,0.0
8889,66.0,0.0,30.0,7.0,0.0
8890,60.0,49.0,15.0,7.0,0.0
8891,81.0,0.0,30.0,7.0,0.0
8892,78.0,1.0,30.0,7.0,0.0
8893,51.0,18.0,15.0,7.0,0.0
8894,78.0,3.0,30.0,7.0,0.0
8895,81.0,28.0,30.0,7.0,0.0
8896,69.0,14.0,30.0,7.0,0.0
8897,66.0,0.0,30.0,7.0,0.0
8898,59.0,41.0,15.0,7.0,0.0
8899,66.0,0.0,30.0,7.0,0.0
8900,69.0,13.0,30.0,7.0,0.0
8901,52.0,17.0,15.0,7.0,0.0
8902,59.0,8.0,60.0,7.0,0.0
8903,66.0,3.0,30.0,7.0,0.0
8904,69.0,24.0,30.0,7.0,0.0
8905,67.0,1.0,30.0,7.0,0.0
8906,64.0,3.0,30.0,7.0,0.0
8907,55.0,51.0,15.0,7.0,0.0
8908,64.0,0.0,30.0,7.0,0.0
8909,67.0,7.0,30.0,7.0,0.0
8910,52.0,23.0,15.0,7.0,0.0
8911,67.0,0.0,30.0,7.0,0.0
8912,63.0,30.0,30.0,7.0,0.0
8913,64.0,13.0,30.0,7.0,0.0
8914,67.0,0.0,30.0,7.0,0.0
8915,55.0,47.0,15.0,7.0,0.0
8916,67.0,14.0,30.0,7.0,0.0
8917,64.0,0.0,30.0,7.0,0.0
8918,48.0,16.0,15.0,7.0,0.0
8919,67.0,27.0,30.0,7.0,0.0
8920,64.0,3.0,30.0,7.0,0.0
8921,76.0,12.0,30.0,7.0,0.0
8922,79.0,0.0,30.0,7.0,0.0
8923,52.0,48.0,15.0,7.0,0.0
8924,79.0,8.0,30.0,7.0,0.0
8925,76.0,0.0,30.0,7.0,0.0
8926,48.0,22.0,15.0,7.0,0.0
8927,76.0,3.0,30.0,7.0,0.0
8928,76.0,10.0,120.0,2.0,0.0
8929,64.0,0.0,120.0,3.0,0.0
8930,79.0,27.0,30.0,7.0,0.0
8931,64.0,0.0,30.0,7.0,0.0
8932,67.0,10.0,30.0,7.0,0.0
8933,52.0,50.0,15.0,7.0,0.0
8934,67.0,3.0,30.0,7.0,0.0
8935,64.0,0.0,30.0,7.0,0.0
8936,45.0,17.0,15.0,7.0,0.0
8937,57.0,0.0,60.0,3.0,0.0
8938,69.0,3.0,120.0,2.0,0.0
8939,64.0,3.0,30.0,7.0,0.0
8940,67.0,27.0,30.0,7.0,0.0
8941,66.0,0.0,30.0,7.0,0.0
8942,64.0,9.0,30.0,7.0,0.0
8943,48.0,51.0,15.0,7.0,0.0
8944,64.0,0.0,30.0,7.0,0.0
8945,66.0,6.0,30.0,7.0,0.0
8946,45.0,21.0,15.0,7.0,0.0
8947,64.0,3.0,30.0,7.0,0.0
8948,65.0,27.0,30.0,7.0,0.0
8949,64.0,0.0,30.0,7.0,0.0
8950,66.0,12.0,30.0,7.0,0.0
8951,48.0,48.0,15.0,7.0,0.0
8952,57.0,3.0,30.0,3.0,0.0
8953,66.0,0.0,30.0,7.0,0.0
8954,69.0,5.0,30.0,2.0,0.0
8955,46.0,21.0,15.0,7.0,0.0
8956,71.0,0.0,120.0,2.0,0.0
8957,59.0,0.0,120.0,3.0,0.0
8958,66.0,0.0,30.0,7.0,0.0
8959,64.0,1.0,15.0,7.0,0.0
8960,66.0,7.0,30.0,7.0,0.0
8961,63.0,0.0,30.0,7.0,0.0
8962,47.0,53.0,15.0,7.0,0.0
8963,66.0,8.0,30.0,7.0,0.0
8964,63.0,0.0,30.0,7.0,0.0
8965,46.0,22.0,15.0,7.0,0.0
8966,64.0,0.0,30.0,7.0,0.0
8967,66.0,30.0,30.0,7.0,0.0
8968,66.0,0.0,30.0,7.0,0.0
8969,63.0,8.0,30.0,7.0,0.0
8970,47.0,52.0,15.0,7.0,0.0
8971,59.0,0.0,30.0,3.0,0.0
8972,63.0,3.0,30.0,7.0,0.0
8973,66.0,0.0,30.0,7.0,0.0
8974,71.0,57.0,30.0,2.0,0.0
8975,64.0,1.0,240.0,4.0,0.0
8976,52.0,0.0,240.0,4.0,0.0
8977,64.0,0.0,60.0,2.0,0.0
8978,52.0,0.0,60.0,6.0,0.0
8979,52.0,62.0,60.0,3.0,0.0
8980,52.0,51.0,120.0,7.0,0.0
8981,40.0,1.0,480.0,7.0,0.0
8982,64.0,5.0,120.0,7.0,0.0
8983,59.0,4.0,60.0,7.0,0.0
8984,62.0,0.0,60.0,7.0,0.0
8985,52.0,1.0,240.0,4.0,0.0
8986,64.0,2.0,180.0,7.0,0.0
8987,52.0,62.0,60.0,6.0,0.0
8988,64.0,0.0,240.0,4.0,0.0
8989,60.0,0.0,120.0,7.0,0.0
8990,62.0,58.0,60.0,7.0,0.0
8991,59.0,0.0,60.0,7.0,0.0
8992,57.0,0.0,60.0,7.0,0.0
8993,75.0,1.0,60.0,7.0,0.0
8994,87.0,57.0,60.0,1.0,0.0
8995,60.0,0.0,60.0,7.0,0.0
8996,75.0,0.0,60.0,2.0,0.0
8997,52.0,2.0,180.0,4.0,0.0
8998,59.0,59.0,60.0,7.0,0.0
8999,76.0,0.0,120.0,2.0,0.0
9000,76.0,2.0,120.0,7.0,0.0
9001,52.0,48.0,120.0,7.0,0.0
9002,88.0,2.0,120.0,1.0,0.0
9003,64.0,0.0,180.0,4.0,0.0
9004,40.0,2.0,120.0,7.0,0.0
9005,52.0,2.0,60.0,6.0,0.0
9006,44.0,1.0,60.0,7.0,0.0
9007,56.0,5.0,15.0,7.0,0.0
9008,71.0,0.0,60.0,2.0,0.0
9009,71.0,5.0,60.0,7.0,0.0
9010,52.0,0.0,60.0,6.0,0.0
9011,59.0,0.0,60.0,7.0,0.0
9012,83.0,0.0,60.0,1.0,0.0
9013,74.0,3.0,60.0,2.0,0.0
9014,52.0,0.0,60.0,6.0,0.0
9015,64.0,52.0,15.0,7.0,0.0
9016,52.0,1.0,60.0,4.0,0.0
9017,64.0,0.0,60.0,4.0,0.0
9018,86.0,0.0,60.0,1.0,0.0
9019,68.0,0.0,60.0,7.0,0.0
9020,74.0,0.0,60.0,7.0,0.0
9021,59.0,0.0,60.0,7.0,0.0
9022,47.0,54.0,60.0,7.0,0.0
9023,57.0,8.0,120.0,7.0,0.0
9024,64.0,2.0,15.0,7.0,0.0
9025,64.0,0.0,120.0,4.0,0.0
9026,52.0,2.0,120.0,4.0,0.0
9027,72.0,0.0,120.0,2.0,0.0
9028,76.0,0.0,180.0,0.0,0.0
9029,88.0,0.0,180.0,0.0,0.0
9030,84.0,4.0,120.0,1.0,0.0
9031,64.0,0.0,120.0,3.0,0.0
9032,52.0,60.0,60.0,6.0,0.0
9033,72.0,0.0,120.0,7.0,0.0
9034,69.0,0.0,120.0,7.0,0.0
9035,76.0,0.0,180.0,1.0,0.0
9036,45.0,45.0,120.0,7.0,0.0
9037,71.0,0.0,60.0,7.0,0.0
9038,68.0,1.0,60.0,7.0,0.0
9039,62.0,0.0,60.0,3.0,0.0
9040,83.0,1.0,60.0,1.0,0.0
9041,47.0,1.0,60.0,7.0,0.0
9042,52.0,0.0,60.0,6.0,0.0
9043,62.0,0.0,60.0,7.0,0.0
9044,71.0,0.0,60.0,2.0,0.0
9045,64.0,2.0,60.0,4.0,0.0
9046,52.0,0.0,60.0,4.0,0.0
9047,59.0,54.0,60.0,7.0,0.0
9048,64.0,0.0,60.0,4.0,0.0
9049,60.0,2.0,60.0,7.0,0.0
9050,57.0,3.0,60.0,3.0,0.0
9051,52.0,0.0,60.0,4.0,0.0
9052,52.0,0.0,60.0,6.0,0.0
9053,81.0,1.0,60.0,1.0,0.0
9054,48.0,0.0,60.0,7.0,0.0
9055,60.0,0.0,60.0,3.0,0.0
9056,69.0,0.0,60.0,7.0,0.0
9057,76.0,0.0,60.0,1.0,0.0
9058,88.0,0.0,60.0,0.0,0.0
9059,76.0,0.0,60.0,0.0,0.0
9060,69.0,0.0,60.0,2.0,0.0
9061,64.0,1.0,60.0,7.0,0.0
9062,59.0,1.0,60.0,7.0,0.0
9063,62.0,0.0,60.0,7.0,0.0
9064,62.0,0.0,60.0,3.0,0.0
9065,59.0,0.0,60.0,3.0,0.0
9066,64.0,1.0,60.0,4.0,0.0
9067,52.0,0.0,60.0,4.0,0.0
9068,52.0,10.0,15.0,6.0,0.0
9069,68.0,0.0,60.0,2.0,0.0
9070,76.0,0.0,60.0,1.0,0.0
9071,80.0,0.0,60.0,1.0,0.0
9072,68.0,3.0,60.0,7.0,0.0
9073,64.0,1.0,60.0,7.0,0.0
9074,76.0,0.0,30.0,0.0,0.0
9075,88.0,6.0,30.0,0.0,0.0
9076,47.0,8.0,60.0,7.0,0.0
9077,52.0,12.0,15.0,6.0,0.0
9078,52.0,0.0,15.0,6.0,0.0
9079,52.0,10.0,15.0,6.0,0.0
9080,52.0,13.0,15.0,6.0,0.0
9081,57.0,3.0,60.0,7.0,0.0
9082,64.0,1.0,60.0,7.0,0.0
9083,69.0,0.0,60.0,7.0,0.0
9084,60.0,1.0,60.0,7.0,0.0
9085,52.0,0.0,60.0,4.0,0.0
9086,72.0,0.0,60.0,2.0,0.0
9087,60.0,0.0,60.0,3.0,0.0
9088,57.0,4.0,60.0,3.0,0.0
9089,64.0,0.0,60.0,4.0,0.0
9090,76.0,2.0,60.0,2.0,0.0
9091,76.0,0.0,30.0,0.0,0.0
9092,88.0,7.0,30.0,0.0,0.0
9093,52.0,1.0,15.0,6.0,0.0
9094,76.0,0.0,60.0,1.0,0.0
9095,81.0,0.0,60.0,1.0,0.0
9096,45.0,0.0,60.0,7.0,0.0
9097,52.0,11.0,15.0,6.0,0.0
9098,52.0,3.0,15.0,6.0,0.0
9099,52.0,13.0,15.0,6.0,0.0
9100,52.0,9.0,15.0,6.0,0.0
9101,52.0,0.0,15.0,6.0,0.0
9102,56.0,1.0,60.0,7.0,0.0
9103,59.0,0.0,60.0,7.0,0.0
9104,52.0,10.0,15.0,6.0,0.0
9105,64.0,1.0,60.0,7.0,0.0
9106,76.0,0.0,30.0,0.0,0.0
9107,88.0,14.0,30.0,0.0,0.0
9108,71.0,0.0,60.0,2.0,0.0
9109,64.0,2.0,60.0,4.0,0.0
9110,59.0,2.0,60.0,3.0,0.0
9111,56.0,0.0,60.0,3.0,0.0
9112,80.0,0.0,60.0,1.0,0.0
9113,83.0,1.0,60.0,1.0,0.0
9114,76.0,0.0,60.0,2.0,0.0
9115,71.0,0.0,60.0,7.0,0.0
9116,44.0,5.0,60.0,7.0,0.0
9117,52.0,0.0,60.0,4.0,0.0
9118,52.0,10.0,15.0,6.0,0.0
9119,52.0,0.0,15.0,6.0,0.0
9120,52.0,3.0,15.0,6.0,0.0
9121,52.0,0.0,15.0,6.0,0.0
9122,45.0,0.0,60.0,7.0,0.0
9123,52.0,0.0,60.0,4.0,0.0
9124,64.0,1.0,60.0,7.0,0.0
9125,72.0,27.0,60.0,7.0,0.0
9126,52.0,10.0,15.0,6.0,0.0
9127,57.0,0.0,60.0,3.0,0.0
9128,64.0,0.0,60.0,4.0,0.0
9129,69.0,0.0,60.0,2.0,0.0
9130,88.0,10.0,30.0,0.0,0.0
9131,76.0,0.0,30.0,0.0,0.0
9132,57.0,0.0,60.0,7.0,0.0
9133,76.0,0.0,60.0,2.0,0.0
9134,84.0,0.0,60.0,1.0,0.0
9135,81.0,1.0,60.0,1.0,0.0
9136,52.0,10.0,15.0,6.0,0.0
9137,52.0,0.0,15.0,6.0,0.0
9138,52.0,7.0,15.0,6.0,0.0
9139,52.0,12.0,15.0,6.0,0.0
9140,52.0,2.0,15.0,6.0,0.0
9141,52.0,7.0,60.0,7.0,0.0
9142,83.0,0.0,240.0,1.0,0.0
9143,80.0,0.0,120.0,1.0,0.0
9144,64.0,1.0,240.0,7.0,0.0
9145,76.0,0.0,120.0,2.0,0.0
9146,68.0,0.0,120.0,2.0,0.0
9147,64.0,0.0,240.0,4.0,0.0
9148,52.0,0.0,240.0,4.0,0.0
9149,88.0,0.0,30.0,0.0,0.0
9150,76.0,30.0,30.0,0.0,0.0
9151,52.0,117.0,120.0,3.0,0.0
9152,64.0,1.0,120.0,3.0,0.0
9153,68.0,2.0,120.0,7.0,0.0
9154,71.0,55.0,240.0,7.0,0.0
9155,52.0,49.0,60.0,6.0,0.0
9156,40.0,4.0,60.0,7.0,0.0
9157,79.0,0.0,120.0,1.0,0.0
9158,67.0,0.0,120.0,7.0,0.0
9159,64.0,2.0,120.0,3.0,0.0
9160,76.0,0.0,120.0,2.0,0.0
9161,67.0,0.0,120.0,3.0,0.0
9162,65.0,1.0,60.0,7.0,0.0
9163,69.0,0.0,60.0,7.0,0.0
9164,60.0,2.0,60.0,7.0,0.0
9165,40.0,2.0,60.0,7.0,0.0
9166,52.0,117.0,60.0,7.0,0.0
9167,60.0,0.0,60.0,3.0,0.0
9168,65.0,0.0,60.0,3.0,0.0
9169,52.0,3.0,60.0,4.0,0.0
9170,72.0,0.0,60.0,2.0,0.0
9171,77.0,0.0,60.0,2.0,0.0
9172,81.0,0.0,60.0,1.0,0.0
9173,64.0,0.0,60.0,4.0,0.0
9174,52.0,65.0,60.0,6.0,0.0
9175,59.0,2.0,60.0,7.0,0.0
9176,64.0,1.0,60.0,7.0,0.0
9177,67.0,0.0,60.0,7.0,0.0
9178,40.0,52.0,15.0,7.0,0.0
9179,52.0,117.0,60.0,7.0,0.0
9180,64.0,0.0,60.0,4.0,0.0
9181,52.0,0.0,60.0,6.0,0.0
9182,64.0,0.0,60.0,3.0,0.0
9183,59.0,0.0,60.0,3.0,0.0
9184,76.0,0.0,60.0,2.0,0.0
9185,67.0,0.0,60.0,2.0,0.0
9186,52.0,177.0,120.0,4.0,0.0
9187,79.0,63.0,60.0,1.0,0.0
9188,51.0,1.0,240.0,7.0,0.0
9189,35.0,52.0,240.0,7.0,0.0
9190,57.0,3.0,240.0,7.0,0.0
9191,51.0,1.0,240.0,4.0,0.0
9192,66.0,30.0,180.0,7.0,0.0
9193,60.0,1.0,240.0,7.0,0.0
9194,47.0,3.0,60.0,6.0,0.0
9195,69.0,28.0,30.0,7.0,0.0
9196,67.0,0.0,30.0,7.0,0.0
9197,52.0,15.0,60.0,4.0,0.0
9198,59.0,1.0,60.0,7.0,0.0
9199,64.0,23.0,90.0,7.0,0.0
9200,52.0,1.0,60.0,7.0,0.0
9201,55.0,4.0,60.0,7.0,0.0
9202,40.0,0.0,60.0,7.0,0.0
9203,71.0,8.0,120.0,2.0,0.0
9204,83.0,2.0,120.0,1.0,0.0
9205,76.0,16.0,20.0,7.0,0.0
9206,75.0,24.0,20.0,7.0,0.0
9207,47.0,1.0,60.0,6.0,0.0
9208,78.0,16.0,20.0,7.0,0.0
9209,76.0,12.0,20.0,7.0,0.0
9210,79.0,9.0,15.0,7.0,0.0
9211,84.0,93.0,60.0,1.0,0.0
9212,72.0,0.0,60.0,2.0,0.0
9213,76.0,20.0,15.0,7.0,0.0
9214,71.0,20.0,15.0,7.0,0.0
9215,67.0,9.0,15.0,7.0,0.0
9216,51.0,2.0,240.0,4.0,0.0
9217,57.0,0.0,240.0,7.0,0.0
9218,66.0,31.0,180.0,7.0,0.0
9219,84.0,27.0,90.0,1.0,0.0
9220,72.0,0.0,90.0,2.0,0.0
9221,35.0,0.0,240.0,7.0,0.0
9222,60.0,1.0,240.0,7.0,0.0
9223,51.0,16.0,240.0,7.0,0.0
9224,63.0,0.0,30.0,2.0,0.0
9225,75.0,60.0,30.0,1.0,0.0
9226,47.0,2.0,60.0,6.0,0.0
9227,69.0,28.0,30.0,7.0,0.0
9228,67.0,1.0,30.0,7.0,0.0
9229,52.0,1.0,60.0,7.0,0.0
9230,55.0,3.0,60.0,7.0,0.0
9231,52.0,9.0,60.0,4.0,0.0
9232,59.0,19.0,60.0,7.0,0.0
9233,40.0,0.0,60.0,7.0,0.0
9234,64.0,22.0,20.0,7.0,0.0
9235,76.0,6.0,20.0,7.0,0.0
9236,75.0,2.0,20.0,7.0,0.0
9237,78.0,16.0,20.0,7.0,0.0
9238,83.0,1.0,90.0,1.0,0.0
9239,71.0,13.0,90.0,2.0,0.0
9240,76.0,12.0,20.0,7.0,0.0
9241,79.0,20.0,15.0,7.0,0.0
9242,76.0,19.0,15.0,7.0,0.0
9243,83.0,2.0,15.0,7.0,0.0
9244,72.0,0.0,15.0,2.0,0.0
9245,84.0,5.0,15.0,1.0,0.0
9246,79.0,17.0,15.0,7.0,0.0
9247,72.0,15.0,15.0,2.0,0.0
9248,76.0,5.0,15.0,7.0,0.0
9249,84.0,3.0,15.0,1.0,0.0
9250,71.0,11.0,15.0,7.0,0.0
9251,84.0,4.0,15.0,1.0,0.0
9252,72.0,5.0,15.0,2.0,0.0
9253,67.0,89.0,15.0,7.0,0.0
9254,84.0,10.0,90.0,1.0,0.0
9255,51.0,59.0,720.0,7.0,0.0
9256,72.0,0.0,90.0,2.0,0.0
9257,51.0,1.0,720.0,4.0,0.0
9258,60.0,13.0,540.0,7.0,0.0
9259,66.0,13.0,90.0,7.0,0.0
9260,35.0,0.0,720.0,7.0,0.0
9261,69.0,8.0,20.0,7.0,0.0
9262,75.0,0.0,30.0,1.0,0.0
9263,63.0,11.0,30.0,2.0,0.0
9264,67.0,9.0,15.0,7.0,0.0
9265,66.0,32.0,15.0,7.0,0.0
9266,47.0,11.0,60.0,6.0,0.0
9267,72.0,16.0,20.0,7.0,0.0
9268,71.0,1.0,20.0,7.0,0.0
9269,47.0,11.0,60.0,6.0,0.0
9270,69.0,32.0,15.0,7.0,0.0
9271,78.0,16.0,20.0,7.0,0.0
9272,76.0,1.0,20.0,7.0,0.0
9273,75.0,32.0,15.0,7.0,0.0
9274,82.0,16.0,20.0,7.0,0.0
9275,81.0,12.0,20.0,7.0,0.0
9276,78.0,32.0,15.0,7.0,0.0
9277,84.0,16.0,20.0,0.0,0.0
9278,84.0,0.0,20.0,7.0,0.0
9279,83.0,1.0,20.0,7.0,0.0
9280,83.0,11.0,20.0,0.0,0.0
9281,81.0,32.0,15.0,7.0,0.0
9282,81.0,0.0,15.0,0.0,0.0
9283,81.0,16.0,20.0,7.0,0.0
9284,90.0,0.0,20.0,0.0,0.0
9285,88.0,11.0,20.0,0.0,0.0
9286,79.0,1.0,20.0,7.0,0.0
9287,87.0,32.0,15.0,0.0,0.0
9288,78.0,0.0,15.0,7.0,0.0
9289,93.0,0.0,20.0,0.0,0.0
9290,81.0,16.0,20.0,7.0,0.0
9291,91.0,15.0,20.0,0.0,0.0
9292,79.0,1.0,20.0,7.0,0.0
9293,90.0,1.0,15.0,0.0,0.0
9294,78.0,29.0,15.0,7.0,0.0
9295,76.0,16.0,15.0,7.0,0.0
9296,88.0,1.0,15.0,0.0,0.0
9297,59.0,2.0,120.0,7.0,0.0
9298,75.0,29.0,15.0,7.0,0.0
9299,87.0,1.0,15.0,0.0,0.0
9300,72.0,29.0,15.0,7.0,0.0
9301,84.0,1.0,15.0,0.0,0.0
9302,71.0,29.0,15.0,7.0,0.0
9303,83.0,1.0,15.0,0.0,0.0
9304,81.0,1.0,15.0,0.0,0.0
9305,69.0,13.0,15.0,7.0,0.0
9306,59.0,1.0,60.0,7.0,0.0
9307,57.0,14.0,15.0,7.0,0.0
9308,67.0,30.0,15.0,7.0,0.0
9309,79.0,0.0,15.0,0.0,0.0
9310,66.0,14.0,15.0,7.0,0.0
9311,78.0,0.0,15.0,0.0,0.0
9312,52.0,75.0,60.0,6.0,0.0
9313,64.0,10.0,120.0,7.0,0.0
9314,52.0,6.0,15.0,8.0,0.0
9315,40.0,91.0,20.0,8.0,0.0
9316,66.0,13.0,15.0,7.0,0.0
9317,64.0,14.0,60.0,7.0,0.0
9318,47.0,32.0,15.0,8.0,0.0
9319,35.0,1.0,60.0,8.0,0.0
9320,63.0,45.0,15.0,7.0,0.0
9321,64.0,14.0,60.0,7.0,0.0
9322,66.0,17.0,15.0,7.0,0.0
9323,55.0,43.0,15.0,8.0,0.0
9324,43.0,91.0,60.0,8.0,0.0
9325,52.0,29.0,30.0,8.0,0.0
9326,67.0,59.0,60.0,7.0,0.0
9327,40.0,1.0,60.0,8.0,0.0
9328,64.0,45.0,60.0,7.0,0.0
9329,71.0,29.0,15.0,7.0,0.0
9330,69.0,30.0,15.0,7.0,0.0
9331,67.0,31.0,15.0,7.0,0.0
9332,35.0,16.0,60.0,8.0,0.0
9333,66.0,5.0,15.0,7.0,0.0
9334,47.0,24.0,20.0,8.0,0.0
9335,64.0,16.0,15.0,7.0,0.0
9336,67.0,14.0,15.0,7.0,0.0
9337,66.0,75.0,15.0,7.0,0.0
9338,67.0,30.0,15.0,7.0,0.0
9339,69.0,29.0,15.0,7.0,0.0
9340,71.0,36.0,15.0,7.0,0.0
9341,75.0,0.0,240.0,1.0,0.0
9342,35.0,121.0,60.0,8.0,0.0
9343,47.0,40.0,20.0,8.0,0.0
9344,81.0,57.0,240.0,1.0,0.0
9345,59.0,0.0,240.0,4.0,0.0
9346,66.0,0.0,240.0,4.0,0.0
9347,72.0,30.0,120.0,7.0,0.0
9348,71.0,29.0,30.0,7.0,0.0
9349,69.0,2.0,30.0,7.0,0.0
9350,64.0,0.0,60.0,4.0,0.0
9351,79.0,0.0,60.0,1.0,0.0
9352,76.0,92.0,60.0,1.0,0.0
9353,52.0,0.0,60.0,4.0,0.0
9354,69.0,27.0,30.0,7.0,0.0
9355,67.0,17.0,30.0,7.0,0.0
9356,69.0,30.0,15.0,7.0,0.0
9357,66.0,39.0,15.0,7.0,0.0
9358,35.0,120.0,60.0,8.0,0.0
9359,47.0,36.0,20.0,8.0,0.0
9360,75.0,0.0,240.0,1.0,0.0
9361,59.0,0.0,240.0,4.0,0.0
9362,66.0,0.0,240.0,4.0,0.0
9363,81.0,57.0,240.0,1.0,0.0
9364,64.0,30.0,30.0,7.0,0.0
9365,66.0,30.0,30.0,7.0,0.0
9366,63.0,2.0,30.0,7.0,0.0
9367,52.0,0.0,60.0,4.0,0.0
9368,64.0,61.0,60.0,4.0,0.0
9369,79.0,0.0,60.0,1.0,0.0
9370,76.0,0.0,60.0,1.0,0.0
9371,64.0,87.0,60.0,7.0,0.0
9372,60.0,1.0,30.0,7.0,0.0
9373,64.0,28.0,30.0,7.0,0.0
9374,57.0,1.0,30.0,7.0,0.0
9375,57.0,1.0,30.0,7.0,0.0
9376,60.0,1.0,30.0,7.0,0.0
9377,64.0,60.0,30.0,7.0,0.0
9378,59.0,0.0,60.0,7.0,0.0
9379,55.0,40.0,60.0,7.0,0.0
9380,64.0,1.0,60.0,7.0,0.0
9381,76.0,0.0,120.0,1.0,0.0
9382,71.0,0.0,120.0,2.0,0.0
9383,76.0,0.0,120.0,2.0,0.0
9384,83.0,0.0,120.0,1.0,0.0
9385,64.0,1.0,120.0,3.0,0.0
9386,67.0,38.0,120.0,3.0,0.0
9387,52.0,0.0,120.0,4.0,0.0
9388,59.0,0.0,120.0,4.0,0.0
9389,67.0,0.0,120.0,4.0,0.0
9390,47.0,9.0,15.0,7.0,0.0
9391,35.0,1.0,15.0,7.0,0.0
9392,37.0,1.0,15.0,7.0,0.0
9393,49.0,10.0,15.0,7.0,0.0
9394,39.0,1.0,15.0,7.0,0.0
9395,51.0,20.0,15.0,7.0,0.0
9396,64.0,0.0,60.0,7.0,0.0
9397,40.0,8.0,20.0,7.0,0.0
9398,52.0,29.0,30.0,7.0,0.0
9399,59.0,0.0,60.0,7.0,0.0
9400,76.0,0.0,60.0,7.0,0.0
9401,67.0,0.0,60.0,7.0,0.0
9402,59.0,0.0,60.0,3.0,0.0
9403,64.0,0.0,60.0,3.0,0.0
9404,67.0,0.0,60.0,2.0,0.0
9405,76.0,1.0,60.0,2.0,0.0
9406,79.0,0.0,60.0,1.0,0.0
9407,59.0,0.0,60.0,4.0,0.0
9408,52.0,0.0,60.0,4.0,0.0
9409,67.0,0.0,60.0,4.0,0.0
9410,76.0,0.0,60.0,1.0,0.0
9411,47.0,5.0,15.0,7.0,0.0
9412,35.0,5.0,15.0,7.0,0.0
9413,37.0,6.0,15.0,7.0,0.0
9414,49.0,3.0,15.0,7.0,0.0
9415,39.0,1.0,15.0,7.0,0.0
9416,51.0,717.0,15.0,7.0,0.0
9417,59.0,0.0,720.0,4.0,0.0
9418,76.0,0.0,720.0,1.0,0.0
9419,40.0,0.0,720.0,7.0,0.0
9420,67.0,2.0,720.0,2.0,0.0
9421,71.0,0.0,720.0,2.0,0.0
9422,52.0,0.0,720.0,7.0,0.0
9423,59.0,0.0,720.0,3.0,0.0
9424,67.0,0.0,720.0,4.0,0.0
9425,52.0,0.0,720.0,4.0,0.0
9426,64.0,0.0,720.0,7.0,0.0
9427,64.0,0.0,720.0,3.0,0.0
