,note,step,duration,channel,velocity
0,68.0,26.0,60.0,0.0,0.0
1,60.0,8.0,90.0,0.0,0.0
2,32.0,0.0,60.0,0.0,0.0
3,39.0,0.0,60.0,0.0,0.0
4,63.0,82.0,30.0,0.0,0.0
5,32.0,0.0,90.0,0.0,0.0
6,63.0,3.0,180.0,0.0,0.0
7,60.0,0.0,90.0,0.0,0.0
8,39.0,87.0,90.0,0.0,0.0
9,61.0,0.0,90.0,0.0,0.0
10,34.0,0.0,90.0,0.0,0.0
11,39.0,64.0,90.0,0.0,0.0
12,39.0,0.0,90.0,0.0,0.0
13,70.0,26.0,60.0,0.0,0.0
14,58.0,0.0,90.0,0.0,0.0
15,31.0,8.0,90.0,0.0,0.0
16,63.0,82.0,30.0,0.0,0.0
17,31.0,87.0,90.0,0.0,0.0
18,58.0,0.0,90.0,0.0,0.0
19,39.0,0.0,90.0,0.0,0.0
20,63.0,3.0,180.0,0.0,0.0
21,39.0,0.0,90.0,0.0,0.0
22,32.0,90.0,90.0,0.0,0.0
23,60.0,0.0,90.0,0.0,0.0
24,39.0,0.0,90.0,0.0,0.0
25,34.0,0.0,90.0,0.0,0.0
26,61.0,90.0,90.0,0.0,0.0
27,63.0,0.0,90.0,0.0,0.0
28,39.0,0.0,90.0,0.0,0.0
29,63.0,90.0,90.0,0.0,0.0
30,36.0,0.0,90.0,0.0,0.0
31,39.0,0.0,90.0,0.0,0.0
32,60.0,0.0,90.0,0.0,0.0
33,32.0,90.0,90.0,0.0,0.0
34,72.0,0.0,90.0,0.0,0.0
35,39.0,0.0,90.0,0.0,0.0
36,36.0,0.0,90.0,0.0,0.0
37,68.0,0.0,90.0,0.0,0.0
38,63.0,90.0,90.0,0.0,0.0
39,60.0,0.0,90.0,0.0,0.0
40,68.0,87.0,90.0,0.0,0.0
41,27.0,0.0,90.0,0.0,0.0
42,58.0,0.0,90.0,0.0,0.0
43,67.0,64.0,90.0,0.0,0.0
44,39.0,0.0,90.0,0.0,0.0
45,58.0,0.0,90.0,0.0,0.0
46,63.0,8.0,90.0,0.0,0.0
47,67.0,0.0,90.0,0.0,0.0
48,27.0,26.0,60.0,0.0,0.0
49,39.0,0.0,60.0,0.0,0.0
50,25.0,82.0,30.0,0.0,0.0
51,37.0,0.0,30.0,0.0,0.0
52,63.0,0.0,180.0,0.0,0.0
53,24.0,3.0,180.0,0.0,0.0
54,36.0,0.0,180.0,0.0,0.0
55,68.0,87.0,90.0,0.0,0.0
56,72.0,90.0,90.0,0.0,0.0
57,36.0,0.0,90.0,0.0,0.0
58,63.0,0.0,90.0,0.0,0.0
59,24.0,90.0,90.0,0.0,0.0
60,75.0,0.0,90.0,0.0,0.0
61,34.0,0.0,180.0,0.0,0.0
62,65.0,0.0,180.0,0.0,0.0
63,75.0,87.0,90.0,0.0,0.0
64,22.0,3.0,180.0,0.0,0.0
65,73.0,64.0,90.0,0.0,0.0
66,25.0,34.0,60.0,0.0,0.0
67,65.0,0.0,60.0,0.0,0.0
68,70.0,0.0,60.0,0.0,0.0
69,37.0,0.0,60.0,0.0,0.0
70,58.0,0.0,30.0,0.0,0.0
71,65.0,0.0,30.0,0.0,0.0
72,26.0,82.0,30.0,0.0,0.0
73,38.0,0.0,30.0,0.0,0.0
74,68.0,0.0,30.0,0.0,0.0
75,39.0,0.0,90.0,0.0,0.0
76,58.0,0.0,90.0,0.0,0.0
77,63.0,87.0,90.0,0.0,0.0
78,67.0,0.0,90.0,0.0,0.0
79,27.0,3.0,180.0,0.0,0.0
80,68.0,0.0,90.0,0.0,0.0
81,56.0,0.0,90.0,0.0,0.0
82,63.0,0.0,90.0,0.0,0.0
83,41.0,64.0,90.0,0.0,0.0
84,58.0,0.0,60.0,0.0,0.0
85,63.0,0.0,60.0,0.0,0.0
86,70.0,34.0,60.0,0.0,0.0
87,43.0,0.0,60.0,0.0,0.0
88,58.0,34.0,90.0,0.0,0.0
89,63.0,0.0,30.0,0.0,0.0
90,43.0,56.0,30.0,0.0,0.0
91,63.0,11.0,180.0,0.0,0.0
92,43.0,0.0,60.0,0.0,0.0
93,58.0,56.0,30.0,0.0,0.0
94,43.0,0.0,30.0,0.0,0.0
95,56.0,23.0,60.0,0.0,0.0
96,60.0,0.0,60.0,0.0,0.0
97,44.0,0.0,60.0,0.0,0.0
98,61.0,0.0,30.0,0.0,0.0
99,55.0,0.0,30.0,0.0,0.0
100,46.0,56.0,30.0,0.0,0.0
101,68.0,26.0,60.0,0.0,0.0
102,60.0,8.0,90.0,0.0,0.0
103,39.0,0.0,60.0,0.0,0.0
104,32.0,0.0,60.0,0.0,0.0
105,63.0,82.0,30.0,0.0,0.0
106,63.0,3.0,180.0,0.0,0.0
107,39.0,0.0,90.0,0.0,0.0
108,60.0,87.0,90.0,0.0,0.0
109,32.0,0.0,90.0,0.0,0.0
110,61.0,64.0,90.0,0.0,0.0
111,39.0,0.0,90.0,0.0,0.0
112,34.0,0.0,90.0,0.0,0.0
113,31.0,0.0,90.0,0.0,0.0
114,39.0,8.0,90.0,0.0,0.0
115,58.0,0.0,90.0,0.0,0.0
116,70.0,26.0,60.0,0.0,0.0
117,63.0,82.0,30.0,0.0,0.0
118,63.0,3.0,180.0,0.0,0.0
119,58.0,87.0,90.0,0.0,0.0
120,31.0,0.0,90.0,0.0,0.0
121,39.0,0.0,90.0,0.0,0.0
122,60.0,90.0,90.0,0.0,0.0
123,32.0,0.0,90.0,0.0,0.0
124,39.0,0.0,90.0,0.0,0.0
125,63.0,0.0,90.0,0.0,0.0
126,61.0,90.0,90.0,0.0,0.0
127,34.0,0.0,90.0,0.0,0.0
128,39.0,0.0,90.0,0.0,0.0
129,36.0,0.0,90.0,0.0,0.0
130,39.0,0.0,90.0,0.0,0.0
131,63.0,90.0,90.0,0.0,0.0
132,60.0,0.0,90.0,0.0,0.0
133,72.0,0.0,90.0,0.0,0.0
134,39.0,0.0,90.0,0.0,0.0
135,32.0,90.0,90.0,0.0,0.0
136,63.0,0.0,90.0,0.0,0.0
137,68.0,0.0,90.0,0.0,0.0
138,36.0,90.0,90.0,0.0,0.0
139,39.0,0.0,90.0,0.0,0.0
140,68.0,87.0,90.0,0.0,0.0
141,60.0,0.0,90.0,0.0,0.0
142,27.0,0.0,90.0,0.0,0.0
143,58.0,0.0,90.0,0.0,0.0
144,67.0,0.0,90.0,0.0,0.0
145,39.0,64.0,90.0,0.0,0.0
146,58.0,0.0,90.0,0.0,0.0
147,63.0,8.0,90.0,0.0,0.0
148,67.0,0.0,90.0,0.0,0.0
149,27.0,26.0,60.0,0.0,0.0
150,39.0,0.0,60.0,0.0,0.0
151,25.0,82.0,30.0,0.0,0.0
152,37.0,0.0,30.0,0.0,0.0
153,68.0,87.0,90.0,0.0,0.0
154,63.0,0.0,180.0,0.0,0.0
155,24.0,3.0,180.0,0.0,0.0
156,36.0,0.0,180.0,0.0,0.0
157,72.0,90.0,90.0,0.0,0.0
158,36.0,0.0,90.0,0.0,0.0
159,63.0,90.0,90.0,0.0,0.0
160,24.0,0.0,90.0,0.0,0.0
161,75.0,0.0,90.0,0.0,0.0
162,75.0,87.0,90.0,0.0,0.0
163,65.0,0.0,180.0,0.0,0.0
164,22.0,3.0,180.0,0.0,0.0
165,34.0,0.0,180.0,0.0,0.0
166,73.0,64.0,90.0,0.0,0.0
167,65.0,0.0,60.0,0.0,0.0
168,70.0,0.0,60.0,0.0,0.0
169,25.0,34.0,60.0,0.0,0.0
170,37.0,0.0,60.0,0.0,0.0
171,26.0,0.0,30.0,0.0,0.0
172,68.0,0.0,30.0,0.0,0.0
173,58.0,0.0,30.0,0.0,0.0
174,65.0,0.0,30.0,0.0,0.0
175,38.0,82.0,30.0,0.0,0.0
176,27.0,3.0,180.0,0.0,0.0
177,39.0,0.0,90.0,0.0,0.0
178,67.0,87.0,90.0,0.0,0.0
179,63.0,0.0,90.0,0.0,0.0
180,58.0,0.0,90.0,0.0,0.0
181,56.0,0.0,90.0,0.0,0.0
182,63.0,0.0,90.0,0.0,0.0
183,68.0,0.0,90.0,0.0,0.0
184,41.0,64.0,90.0,0.0,0.0
185,58.0,0.0,60.0,0.0,0.0
186,70.0,34.0,60.0,0.0,0.0
187,63.0,0.0,60.0,0.0,0.0
188,43.0,0.0,60.0,0.0,0.0
189,58.0,52.0,30.0,0.0,0.0
190,63.0,4.0,30.0,0.0,0.0
191,43.0,0.0,30.0,0.0,0.0
192,43.0,34.0,60.0,0.0,0.0
193,63.0,11.0,180.0,0.0,0.0
194,58.0,0.0,60.0,0.0,0.0
195,44.0,56.0,30.0,0.0,0.0
196,60.0,0.0,30.0,0.0,0.0
197,56.0,0.0,30.0,0.0,0.0
198,46.0,23.0,60.0,0.0,0.0
199,61.0,0.0,60.0,0.0,0.0
200,55.0,0.0,60.0,0.0,0.0
201,56.0,0.0,30.0,0.0,0.0
202,60.0,82.0,30.0,0.0,0.0
203,44.0,0.0,30.0,0.0,0.0
204,60.0,90.0,90.0,0.0,0.0
205,48.0,0.0,90.0,0.0,0.0
206,68.0,0.0,180.0,0.0,0.0
207,60.0,3.0,180.0,0.0,0.0
208,41.0,87.0,90.0,0.0,0.0
209,48.0,64.0,90.0,0.0,0.0
210,48.0,0.0,90.0,0.0,0.0
211,41.0,8.0,90.0,0.0,0.0
212,60.0,0.0,90.0,0.0,0.0
213,68.0,26.0,60.0,0.0,0.0
214,67.0,82.0,30.0,0.0,0.0
215,67.0,0.0,180.0,0.0,0.0
216,40.0,87.0,90.0,0.0,0.0
217,60.0,3.0,180.0,0.0,0.0
218,48.0,64.0,90.0,0.0,0.0
219,67.0,26.0,60.0,0.0,0.0
220,40.0,0.0,90.0,0.0,0.0
221,48.0,0.0,90.0,0.0,0.0
222,72.0,82.0,30.0,0.0,0.0
223,48.0,0.0,90.0,0.0,0.0
224,67.0,0.0,90.0,0.0,0.0
225,72.0,0.0,90.0,0.0,0.0
226,40.0,90.0,90.0,0.0,0.0
227,72.0,0.0,90.0,0.0,0.0
228,41.0,64.0,90.0,0.0,0.0
229,48.0,0.0,90.0,0.0,0.0
230,68.0,0.0,90.0,0.0,0.0
231,70.0,0.0,60.0,0.0,0.0
232,41.0,0.0,90.0,0.0,0.0
233,67.0,26.0,60.0,0.0,0.0
234,48.0,8.0,90.0,0.0,0.0
235,65.0,0.0,30.0,0.0,0.0
236,68.0,82.0,30.0,0.0,0.0
237,68.0,87.0,90.0,0.0,0.0
238,36.0,0.0,90.0,0.0,0.0
239,65.0,0.0,90.0,0.0,0.0
240,64.0,90.0,90.0,0.0,0.0
241,67.0,0.0,90.0,0.0,0.0
242,48.0,0.0,90.0,0.0,0.0
243,60.0,0.0,90.0,0.0,0.0
244,41.0,0.0,90.0,0.0,0.0
245,29.0,177.0,90.0,0.0,0.0
246,65.0,0.0,90.0,0.0,0.0
247,68.0,0.0,90.0,0.0,0.0
248,63.0,0.0,180.0,0.0,0.0
249,67.0,0.0,180.0,0.0,0.0
250,70.0,0.0,180.0,0.0,0.0
251,27.0,0.0,180.0,0.0,0.0
252,39.0,93.0,180.0,0.0,0.0
253,63.0,0.0,90.0,0.0,0.0
254,67.0,0.0,90.0,0.0,0.0
255,70.0,177.0,90.0,0.0,0.0
256,27.0,0.0,90.0,0.0,0.0
257,39.0,0.0,90.0,0.0,0.0
258,44.0,0.0,180.0,0.0,0.0
259,72.0,0.0,180.0,0.0,0.0
260,32.0,93.0,180.0,0.0,0.0
261,68.0,0.0,180.0,0.0,0.0
262,63.0,0.0,180.0,0.0,0.0
263,63.0,90.0,90.0,0.0,0.0
264,68.0,0.0,90.0,0.0,0.0
265,73.0,0.0,90.0,0.0,0.0
266,25.0,0.0,90.0,0.0,0.0
267,37.0,0.0,90.0,0.0,0.0
268,63.0,0.0,90.0,0.0,0.0
269,67.0,0.0,90.0,0.0,0.0
270,70.0,0.0,90.0,0.0,0.0
271,27.0,90.0,90.0,0.0,0.0
272,39.0,0.0,90.0,0.0,0.0
273,70.0,0.0,90.0,0.0,0.0
274,63.0,0.0,90.0,0.0,0.0
275,27.0,0.0,90.0,0.0,0.0
276,39.0,64.0,90.0,0.0,0.0
277,67.0,0.0,90.0,0.0,0.0
278,63.0,0.0,60.0,0.0,0.0
279,67.0,0.0,60.0,0.0,0.0
280,70.0,0.0,60.0,0.0,0.0
281,27.0,34.0,60.0,0.0,0.0
282,39.0,0.0,60.0,0.0,0.0
283,75.0,0.0,30.0,0.0,0.0
284,27.0,0.0,30.0,0.0,0.0
285,67.0,0.0,30.0,0.0,0.0
286,39.0,56.0,30.0,0.0,0.0
287,70.0,0.0,30.0,0.0,0.0
288,70.0,0.0,60.0,0.0,0.0
289,67.0,0.0,60.0,0.0,0.0
290,39.0,0.0,60.0,0.0,0.0
291,27.0,0.0,60.0,0.0,0.0
292,75.0,34.0,60.0,0.0,0.0
293,63.0,0.0,30.0,0.0,0.0
294,68.0,0.0,30.0,0.0,0.0
295,32.0,82.0,30.0,0.0,0.0
296,44.0,0.0,30.0,0.0,0.0
297,72.0,0.0,30.0,0.0,0.0
298,63.0,0.0,90.0,0.0,0.0
299,72.0,0.0,90.0,0.0,0.0
300,32.0,90.0,90.0,0.0,0.0
301,44.0,0.0,90.0,0.0,0.0
302,68.0,0.0,90.0,0.0,0.0
303,60.0,90.0,90.0,0.0,0.0
304,48.0,0.0,90.0,0.0,0.0
305,68.0,0.0,180.0,0.0,0.0
306,41.0,87.0,90.0,0.0,0.0
307,60.0,0.0,180.0,0.0,0.0
308,48.0,64.0,90.0,0.0,0.0
309,68.0,26.0,60.0,0.0,0.0
310,60.0,8.0,90.0,0.0,0.0
311,41.0,0.0,90.0,0.0,0.0
312,48.0,0.0,90.0,0.0,0.0
313,67.0,82.0,30.0,0.0,0.0
314,67.0,0.0,180.0,0.0,0.0
315,60.0,0.0,180.0,0.0,0.0
316,40.0,87.0,90.0,0.0,0.0
317,48.0,64.0,90.0,0.0,0.0
318,67.0,26.0,60.0,0.0,0.0
319,40.0,8.0,90.0,0.0,0.0
320,48.0,0.0,90.0,0.0,0.0
321,72.0,82.0,30.0,0.0,0.0
322,67.0,0.0,90.0,0.0,0.0
323,72.0,0.0,90.0,0.0,0.0
324,40.0,90.0,90.0,0.0,0.0
325,48.0,0.0,90.0,0.0,0.0
326,68.0,0.0,90.0,0.0,0.0
327,41.0,64.0,90.0,0.0,0.0
328,48.0,0.0,90.0,0.0,0.0
329,72.0,0.0,90.0,0.0,0.0
330,67.0,26.0,60.0,0.0,0.0
331,70.0,0.0,60.0,0.0,0.0
332,41.0,0.0,90.0,0.0,0.0
333,48.0,8.0,90.0,0.0,0.0
334,68.0,82.0,30.0,0.0,0.0
335,65.0,0.0,30.0,0.0,0.0
336,65.0,0.0,90.0,0.0,0.0
337,68.0,87.0,90.0,0.0,0.0
338,36.0,0.0,90.0,0.0,0.0
339,64.0,0.0,90.0,0.0,0.0
340,48.0,0.0,90.0,0.0,0.0
341,67.0,90.0,90.0,0.0,0.0
342,60.0,177.0,90.0,0.0,0.0
343,65.0,0.0,90.0,0.0,0.0
344,68.0,0.0,90.0,0.0,0.0
345,29.0,0.0,90.0,0.0,0.0
346,41.0,0.0,90.0,0.0,0.0
347,63.0,0.0,180.0,0.0,0.0
348,70.0,0.0,180.0,0.0,0.0
349,27.0,93.0,180.0,0.0,0.0
350,39.0,0.0,180.0,0.0,0.0
351,67.0,0.0,180.0,0.0,0.0
352,67.0,0.0,90.0,0.0,0.0
353,63.0,0.0,90.0,0.0,0.0
354,27.0,177.0,90.0,0.0,0.0
355,39.0,0.0,90.0,0.0,0.0
356,70.0,0.0,90.0,0.0,0.0
357,63.0,93.0,180.0,0.0,0.0
358,68.0,0.0,180.0,0.0,0.0
359,72.0,0.0,180.0,0.0,0.0
360,32.0,0.0,180.0,0.0,0.0
361,44.0,0.0,180.0,0.0,0.0
362,63.0,0.0,90.0,0.0,0.0
363,68.0,0.0,90.0,0.0,0.0
364,73.0,0.0,90.0,0.0,0.0
365,25.0,0.0,90.0,0.0,0.0
366,37.0,90.0,90.0,0.0,0.0
367,63.0,0.0,90.0,0.0,0.0
368,67.0,90.0,90.0,0.0,0.0
369,70.0,0.0,90.0,0.0,0.0
370,27.0,0.0,90.0,0.0,0.0
371,39.0,0.0,90.0,0.0,0.0
372,39.0,0.0,90.0,0.0,0.0
373,27.0,64.0,90.0,0.0,0.0
374,70.0,0.0,90.0,0.0,0.0
375,67.0,0.0,90.0,0.0,0.0
376,63.0,0.0,90.0,0.0,0.0
377,67.0,0.0,60.0,0.0,0.0
378,27.0,34.0,60.0,0.0,0.0
379,70.0,0.0,60.0,0.0,0.0
380,63.0,0.0,60.0,0.0,0.0
381,39.0,0.0,60.0,0.0,0.0
382,67.0,0.0,30.0,0.0,0.0
383,70.0,0.0,30.0,0.0,0.0
384,75.0,56.0,30.0,0.0,0.0
385,27.0,0.0,30.0,0.0,0.0
386,39.0,0.0,30.0,0.0,0.0
387,67.0,0.0,60.0,0.0,0.0
388,70.0,0.0,60.0,0.0,0.0
389,75.0,0.0,60.0,0.0,0.0
390,27.0,34.0,60.0,0.0,0.0
391,39.0,0.0,60.0,0.0,0.0
392,68.0,0.0,30.0,0.0,0.0
393,72.0,0.0,30.0,0.0,0.0
394,44.0,0.0,30.0,0.0,0.0
395,32.0,30.0,30.0,0.0,0.0
396,63.0,0.0,30.0,0.0,0.0
397,63.0,0.0,90.0,0.0,0.0
398,68.0,0.0,90.0,0.0,0.0
399,72.0,8.0,90.0,0.0,0.0
400,32.0,30.0,30.0,0.0,0.0
401,44.0,0.0,30.0,0.0,0.0
402,51.0,22.0,30.0,0.0,0.0
403,49.0,30.0,30.0,0.0,0.0
404,68.0,4.0,60.0,0.0,0.0
405,48.0,26.0,30.0,0.0,0.0
406,44.0,30.0,30.0,0.0,0.0
407,51.0,26.0,60.0,0.0,0.0
408,60.0,30.0,30.0,0.0,0.0
409,65.0,4.0,60.0,0.0,0.0
410,45.0,30.0,30.0,0.0,0.0
411,60.0,30.0,30.0,0.0,0.0
412,51.0,26.0,60.0,0.0,0.0
413,63.0,4.0,60.0,0.0,0.0
414,46.0,30.0,30.0,0.0,0.0
415,61.0,30.0,30.0,0.0,0.0
416,51.0,26.0,60.0,0.0,0.0
417,70.0,4.0,60.0,0.0,0.0
418,42.0,30.0,30.0,0.0,0.0
419,58.0,30.0,30.0,0.0,0.0
420,51.0,26.0,60.0,0.0,0.0
421,63.0,4.0,60.0,0.0,0.0
422,43.0,30.0,30.0,0.0,0.0
423,58.0,30.0,30.0,0.0,0.0
424,51.0,26.0,60.0,0.0,0.0
425,61.0,4.0,60.0,0.0,0.0
426,44.0,30.0,30.0,0.0,0.0
427,60.0,30.0,30.0,0.0,0.0
428,51.0,0.0,30.0,0.0,0.0
429,63.0,4.0,60.0,0.0,0.0
430,48.0,26.0,30.0,0.0,0.0
431,46.0,30.0,30.0,0.0,0.0
432,61.0,30.0,30.0,0.0,0.0
433,51.0,26.0,60.0,0.0,0.0
434,65.0,4.0,60.0,0.0,0.0
435,47.0,30.0,30.0,0.0,0.0
436,63.0,30.0,30.0,0.0,0.0
437,48.0,0.0,30.0,0.0,0.0
438,72.0,4.0,60.0,0.0,0.0
439,51.0,26.0,30.0,0.0,0.0
440,44.0,30.0,30.0,0.0,0.0
441,60.0,30.0,30.0,0.0,0.0
442,51.0,26.0,60.0,0.0,0.0
443,68.0,4.0,60.0,0.0,0.0
444,48.0,30.0,30.0,0.0,0.0
445,51.0,26.0,60.0,0.0,0.0
446,60.0,30.0,30.0,0.0,0.0
447,59.0,4.0,60.0,0.0,0.0
448,68.0,0.0,60.0,0.0,0.0
449,38.0,30.0,30.0,0.0,0.0
450,51.0,26.0,60.0,0.0,0.0
451,67.0,0.0,30.0,0.0,0.0
452,58.0,30.0,30.0,0.0,0.0
453,56.0,4.0,60.0,0.0,0.0
454,65.0,0.0,60.0,0.0,0.0
455,39.0,30.0,30.0,0.0,0.0
456,63.0,0.0,30.0,0.0,0.0
457,51.0,26.0,60.0,0.0,0.0
458,55.0,30.0,30.0,0.0,0.0
459,56.0,4.0,60.0,0.0,0.0
460,65.0,0.0,60.0,0.0,0.0
461,37.0,30.0,30.0,0.0,0.0
462,58.0,30.0,30.0,0.0,0.0
463,67.0,0.0,30.0,0.0,0.0
464,51.0,26.0,60.0,0.0,0.0
465,68.0,4.0,60.0,0.0,0.0
466,36.0,30.0,30.0,0.0,0.0
467,51.0,26.0,60.0,0.0,0.0
468,60.0,30.0,30.0,0.0,0.0
469,72.0,4.0,60.0,0.0,0.0
470,32.0,30.0,30.0,0.0,0.0
471,48.0,26.0,60.0,0.0,0.0
472,63.0,30.0,30.0,0.0,0.0
473,75.0,0.0,60.0,0.0,0.0
474,66.0,4.0,60.0,0.0,0.0
475,32.0,30.0,30.0,0.0,0.0
476,63.0,30.0,30.0,0.0,0.0
477,66.0,0.0,30.0,0.0,0.0
478,48.0,26.0,60.0,0.0,0.0
479,65.0,0.0,60.0,0.0,0.0
480,75.0,4.0,60.0,0.0,0.0
481,33.0,30.0,30.0,0.0,0.0
482,65.0,30.0,30.0,0.0,0.0
483,63.0,0.0,30.0,0.0,0.0
484,48.0,26.0,60.0,0.0,0.0
485,73.0,4.0,60.0,0.0,0.0
486,65.0,0.0,60.0,0.0,0.0
487,34.0,30.0,30.0,0.0,0.0
488,65.0,0.0,30.0,0.0,0.0
489,49.0,26.0,60.0,0.0,0.0
490,70.0,4.0,60.0,0.0,0.0
491,65.0,0.0,60.0,0.0,0.0
492,38.0,30.0,30.0,0.0,0.0
493,53.0,0.0,30.0,0.0,0.0
494,68.0,0.0,30.0,0.0,0.0
495,62.0,30.0,30.0,0.0,0.0
496,68.0,4.0,60.0,0.0,0.0
497,58.0,8.0,90.0,0.0,0.0
498,61.0,0.0,90.0,0.0,0.0
499,52.0,26.0,30.0,0.0,0.0
500,39.0,22.0,30.0,0.0,0.0
501,67.0,0.0,30.0,0.0,0.0
502,51.0,30.0,30.0,0.0,0.0
503,68.0,4.0,60.0,0.0,0.0
504,58.0,8.0,90.0,0.0,0.0
505,61.0,0.0,90.0,0.0,0.0
506,53.0,26.0,30.0,0.0,0.0
507,39.0,22.0,30.0,0.0,0.0
508,54.0,30.0,60.0,0.0,0.0
509,69.0,30.0,30.0,0.0,0.0
510,69.0,0.0,30.0,0.0,0.0
511,58.0,0.0,30.0,0.0,0.0
512,61.0,0.0,30.0,0.0,0.0
513,70.0,0.0,30.0,0.0,0.0
514,58.0,0.0,30.0,0.0,0.0
515,61.0,0.0,30.0,0.0,0.0
516,55.0,0.0,30.0,0.0,0.0
517,63.0,30.0,30.0,0.0,0.0
518,63.0,0.0,30.0,0.0,0.0
519,58.0,0.0,30.0,0.0,0.0
520,61.0,30.0,30.0,0.0,0.0
521,55.0,0.0,30.0,0.0,0.0
522,55.0,0.0,30.0,0.0,0.0
523,61.0,0.0,30.0,0.0,0.0
524,63.0,11.0,180.0,0.0,0.0
525,58.0,30.0,30.0,0.0,0.0
526,60.0,30.0,30.0,0.0,0.0
527,56.0,0.0,30.0,0.0,0.0
528,58.0,30.0,30.0,0.0,0.0
529,49.0,0.0,30.0,0.0,0.0
530,56.0,30.0,30.0,0.0,0.0
531,48.0,0.0,30.0,0.0,0.0
532,58.0,19.0,30.0,0.0,0.0
533,49.0,0.0,30.0,0.0,0.0
534,46.0,0.0,30.0,0.0,0.0
535,55.0,30.0,30.0,0.0,0.0
536,68.0,4.0,60.0,0.0,0.0
537,48.0,26.0,30.0,0.0,0.0
538,44.0,30.0,30.0,0.0,0.0
539,51.0,26.0,60.0,0.0,0.0
540,60.0,30.0,30.0,0.0,0.0
541,65.0,4.0,60.0,0.0,0.0
542,45.0,30.0,30.0,0.0,0.0
543,51.0,26.0,60.0,0.0,0.0
544,60.0,30.0,30.0,0.0,0.0
545,63.0,4.0,60.0,0.0,0.0
546,46.0,30.0,30.0,0.0,0.0
547,61.0,30.0,30.0,0.0,0.0
548,51.0,26.0,60.0,0.0,0.0
549,70.0,4.0,60.0,0.0,0.0
550,42.0,30.0,30.0,0.0,0.0
551,58.0,30.0,30.0,0.0,0.0
552,51.0,26.0,60.0,0.0,0.0
553,63.0,4.0,60.0,0.0,0.0
554,43.0,30.0,30.0,0.0,0.0
555,58.0,30.0,30.0,0.0,0.0
556,51.0,26.0,60.0,0.0,0.0
557,61.0,4.0,60.0,0.0,0.0
558,44.0,30.0,30.0,0.0,0.0
559,60.0,0.0,30.0,0.0,0.0
560,51.0,30.0,30.0,0.0,0.0
561,48.0,26.0,30.0,0.0,0.0
562,63.0,4.0,60.0,0.0,0.0
563,46.0,30.0,30.0,0.0,0.0
564,61.0,30.0,30.0,0.0,0.0
565,51.0,26.0,60.0,0.0,0.0
566,65.0,4.0,60.0,0.0,0.0
567,47.0,30.0,30.0,0.0,0.0
568,48.0,0.0,30.0,0.0,0.0
569,63.0,30.0,30.0,0.0,0.0
570,72.0,4.0,60.0,0.0,0.0
571,51.0,26.0,30.0,0.0,0.0
572,44.0,30.0,30.0,0.0,0.0
573,51.0,26.0,60.0,0.0,0.0
574,60.0,30.0,30.0,0.0,0.0
575,68.0,4.0,60.0,0.0,0.0
576,48.0,30.0,30.0,0.0,0.0
577,60.0,30.0,30.0,0.0,0.0
578,51.0,26.0,60.0,0.0,0.0
579,59.0,0.0,60.0,0.0,0.0
580,68.0,4.0,60.0,0.0,0.0
581,38.0,30.0,30.0,0.0,0.0
582,58.0,30.0,30.0,0.0,0.0
583,67.0,0.0,30.0,0.0,0.0
584,51.0,26.0,60.0,0.0,0.0
585,56.0,0.0,60.0,0.0,0.0
586,65.0,4.0,60.0,0.0,0.0
587,39.0,30.0,30.0,0.0,0.0
588,55.0,30.0,30.0,0.0,0.0
589,63.0,0.0,30.0,0.0,0.0
590,51.0,26.0,60.0,0.0,0.0
591,56.0,4.0,60.0,0.0,0.0
592,65.0,0.0,60.0,0.0,0.0
593,37.0,30.0,30.0,0.0,0.0
594,58.0,0.0,30.0,0.0,0.0
595,67.0,30.0,30.0,0.0,0.0
596,51.0,26.0,60.0,0.0,0.0
597,68.0,4.0,60.0,0.0,0.0
598,36.0,30.0,30.0,0.0,0.0
599,60.0,30.0,30.0,0.0,0.0
600,51.0,26.0,60.0,0.0,0.0
601,72.0,4.0,60.0,0.0,0.0
602,32.0,30.0,30.0,0.0,0.0
603,48.0,26.0,60.0,0.0,0.0
604,63.0,30.0,30.0,0.0,0.0
605,66.0,4.0,60.0,0.0,0.0
606,75.0,0.0,60.0,0.0,0.0
607,32.0,30.0,30.0,0.0,0.0
608,63.0,0.0,30.0,0.0,0.0
609,66.0,30.0,30.0,0.0,0.0
610,48.0,26.0,60.0,0.0,0.0
611,75.0,4.0,60.0,0.0,0.0
612,65.0,0.0,60.0,0.0,0.0
613,33.0,30.0,30.0,0.0,0.0
614,63.0,0.0,30.0,0.0,0.0
615,48.0,26.0,60.0,0.0,0.0
616,65.0,30.0,30.0,0.0,0.0
617,73.0,0.0,60.0,0.0,0.0
618,65.0,4.0,60.0,0.0,0.0
619,34.0,30.0,30.0,0.0,0.0
620,49.0,26.0,60.0,0.0,0.0
621,65.0,0.0,30.0,0.0,0.0
622,70.0,4.0,60.0,0.0,0.0
623,65.0,0.0,60.0,0.0,0.0
624,38.0,30.0,30.0,0.0,0.0
625,62.0,30.0,30.0,0.0,0.0
626,68.0,0.0,30.0,0.0,0.0
627,53.0,0.0,30.0,0.0,0.0
628,52.0,26.0,30.0,0.0,0.0
629,58.0,8.0,90.0,0.0,0.0
630,68.0,4.0,60.0,0.0,0.0
631,61.0,0.0,90.0,0.0,0.0
632,39.0,22.0,30.0,0.0,0.0
633,67.0,0.0,30.0,0.0,0.0
634,51.0,30.0,30.0,0.0,0.0
635,61.0,8.0,90.0,0.0,0.0
636,68.0,4.0,60.0,0.0,0.0
637,53.0,26.0,30.0,0.0,0.0
638,58.0,0.0,90.0,0.0,0.0
639,39.0,22.0,30.0,0.0,0.0
640,54.0,0.0,60.0,0.0,0.0
641,69.0,30.0,30.0,0.0,0.0
642,61.0,0.0,30.0,0.0,0.0
643,58.0,30.0,30.0,0.0,0.0
644,69.0,0.0,30.0,0.0,0.0
645,55.0,30.0,30.0,0.0,0.0
646,61.0,0.0,30.0,0.0,0.0
647,70.0,0.0,30.0,0.0,0.0
648,63.0,0.0,30.0,0.0,0.0
649,58.0,0.0,30.0,0.0,0.0
650,63.0,30.0,30.0,0.0,0.0
651,58.0,0.0,30.0,0.0,0.0
652,61.0,0.0,30.0,0.0,0.0
653,55.0,0.0,30.0,0.0,0.0
654,63.0,30.0,120.0,0.0,0.0
655,55.0,30.0,30.0,0.0,0.0
656,56.0,30.0,30.0,0.0,0.0
657,58.0,30.0,30.0,0.0,0.0
658,56.0,0.0,30.0,0.0,0.0
659,55.0,30.0,30.0,0.0,0.0
660,64.0,0.0,30.0,0.0,0.0
661,65.0,30.0,30.0,0.0,0.0
662,53.0,0.0,30.0,0.0,0.0
663,67.0,0.0,30.0,0.0,0.0
664,52.0,30.0,30.0,0.0,0.0
665,60.0,30.0,30.0,0.0,0.0
666,53.0,0.0,30.0,0.0,0.0
667,55.0,0.0,30.0,0.0,0.0
668,60.0,30.0,30.0,0.0,0.0
669,68.0,4.0,60.0,0.0,0.0
670,53.0,26.0,30.0,0.0,0.0
671,41.0,30.0,30.0,0.0,0.0
672,60.0,30.0,30.0,0.0,0.0
673,48.0,26.0,60.0,0.0,0.0
674,61.0,0.0,60.0,0.0,0.0
675,55.0,0.0,60.0,0.0,0.0
676,58.0,4.0,60.0,0.0,0.0
677,40.0,30.0,30.0,0.0,0.0
678,48.0,0.0,30.0,0.0,0.0
679,60.0,30.0,30.0,0.0,0.0
680,68.0,4.0,60.0,0.0,0.0
681,48.0,26.0,30.0,0.0,0.0
682,41.0,30.0,30.0,0.0,0.0
683,60.0,30.0,30.0,0.0,0.0
684,48.0,26.0,60.0,0.0,0.0
685,67.0,4.0,60.0,0.0,0.0
686,40.0,30.0,30.0,0.0,0.0
687,55.0,30.0,30.0,0.0,0.0
688,60.0,0.0,30.0,0.0,0.0
689,48.0,30.0,60.0,0.0,0.0
690,56.0,0.0,30.0,0.0,0.0
691,60.0,0.0,30.0,0.0,0.0
692,68.0,30.0,30.0,0.0,0.0
693,41.0,0.0,30.0,0.0,0.0
694,67.0,30.0,30.0,0.0,0.0
695,48.0,0.0,60.0,0.0,0.0
696,68.0,30.0,30.0,0.0,0.0
697,67.0,30.0,30.0,0.0,0.0
698,40.0,0.0,30.0,0.0,0.0
699,67.0,4.0,30.0,0.0,0.0
700,72.0,0.0,30.0,0.0,0.0
701,52.0,26.0,30.0,0.0,0.0
702,67.0,26.0,30.0,0.0,0.0
703,51.0,0.0,30.0,0.0,0.0
704,73.0,4.0,60.0,0.0,0.0
705,67.0,30.0,30.0,0.0,0.0
706,52.0,0.0,30.0,0.0,0.0
707,68.0,0.0,30.0,0.0,0.0
708,72.0,30.0,30.0,0.0,0.0
709,53.0,30.0,60.0,0.0,0.0
710,68.0,0.0,30.0,0.0,0.0
711,72.0,0.0,30.0,0.0,0.0
712,64.0,30.0,30.0,0.0,0.0
713,70.0,0.0,30.0,0.0,0.0
714,53.0,0.0,30.0,0.0,0.0
715,70.0,0.0,30.0,0.0,0.0
716,55.0,30.0,60.0,0.0,0.0
717,64.0,30.0,30.0,0.0,0.0
718,65.0,0.0,30.0,0.0,0.0
719,68.0,0.0,30.0,0.0,0.0
720,65.0,30.0,30.0,0.0,0.0
721,68.0,0.0,30.0,0.0,0.0
722,56.0,0.0,30.0,0.0,0.0
723,58.0,30.0,30.0,0.0,0.0
724,59.0,26.0,30.0,0.0,0.0
725,65.0,4.0,30.0,0.0,0.0
726,68.0,0.0,30.0,0.0,0.0
727,64.0,0.0,30.0,0.0,0.0
728,67.0,0.0,30.0,0.0,0.0
729,60.0,30.0,30.0,0.0,0.0
730,64.0,30.0,30.0,0.0,0.0
731,60.0,26.0,60.0,0.0,0.0
732,67.0,0.0,30.0,0.0,0.0
733,64.0,4.0,30.0,0.0,0.0
734,67.0,0.0,30.0,0.0,0.0
735,53.0,0.0,30.0,0.0,0.0
736,60.0,30.0,30.0,0.0,0.0
737,68.0,0.0,30.0,0.0,0.0
738,60.0,30.0,30.0,0.0,0.0
739,68.0,0.0,30.0,0.0,0.0
740,53.0,0.0,60.0,0.0,0.0
741,68.0,0.0,30.0,0.0,0.0
742,60.0,30.0,30.0,0.0,0.0
743,51.0,0.0,30.0,0.0,0.0
744,70.0,30.0,30.0,0.0,0.0
745,67.0,0.0,30.0,0.0,0.0
746,70.0,0.0,30.0,0.0,0.0
747,51.0,26.0,60.0,0.0,0.0
748,67.0,30.0,30.0,0.0,0.0
749,70.0,11.0,180.0,0.0,0.0
750,67.0,4.0,60.0,0.0,0.0
751,39.0,30.0,30.0,0.0,0.0
752,61.0,30.0,30.0,0.0,0.0
753,51.0,26.0,60.0,0.0,0.0
754,60.0,4.0,60.0,0.0,0.0
755,39.0,19.0,30.0,0.0,0.0
756,61.0,30.0,30.0,0.0,0.0
757,51.0,26.0,60.0,0.0,0.0
758,71.0,8.0,90.0,0.0,0.0
759,67.0,4.0,60.0,0.0,0.0
760,39.0,22.0,30.0,0.0,0.0
761,51.0,26.0,60.0,0.0,0.0
762,61.0,30.0,30.0,0.0,0.0
763,72.0,8.0,90.0,0.0,0.0
764,66.0,4.0,60.0,0.0,0.0
765,32.0,22.0,30.0,0.0,0.0
766,60.0,30.0,30.0,0.0,0.0
767,48.0,26.0,60.0,0.0,0.0
768,72.0,4.0,60.0,0.0,0.0
769,63.0,0.0,60.0,0.0,0.0
770,66.0,0.0,60.0,0.0,0.0
771,32.0,30.0,30.0,0.0,0.0
772,75.0,30.0,30.0,0.0,0.0
773,66.0,0.0,30.0,0.0,0.0
774,72.0,0.0,30.0,0.0,0.0
775,48.0,26.0,60.0,0.0,0.0
776,65.0,8.0,90.0,0.0,0.0
777,75.0,4.0,60.0,0.0,0.0
778,25.0,22.0,30.0,0.0,0.0
779,73.0,30.0,30.0,0.0,0.0
780,37.0,0.0,30.0,0.0,0.0
781,61.0,8.0,90.0,0.0,0.0
782,72.0,4.0,60.0,0.0,0.0
783,67.0,0.0,90.0,0.0,0.0
784,39.0,26.0,30.0,0.0,0.0
785,27.0,22.0,30.0,0.0,0.0
786,70.0,30.0,30.0,0.0,0.0
787,39.0,26.0,60.0,0.0,0.0
788,67.0,0.0,90.0,0.0,0.0
789,61.0,8.0,90.0,0.0,0.0
790,69.0,4.0,60.0,0.0,0.0
791,27.0,22.0,30.0,0.0,0.0
792,70.0,30.0,30.0,0.0,0.0
793,39.0,26.0,60.0,0.0,0.0
794,70.0,0.0,30.0,0.0,0.0
795,67.0,4.0,60.0,0.0,0.0
796,77.0,30.0,30.0,0.0,0.0
797,27.0,0.0,30.0,0.0,0.0
798,75.0,0.0,30.0,0.0,0.0
799,70.0,30.0,30.0,0.0,0.0
800,43.0,0.0,30.0,0.0,0.0
801,70.0,0.0,30.0,0.0,0.0
802,75.0,30.0,30.0,0.0,0.0
803,43.0,0.0,30.0,0.0,0.0
804,67.0,0.0,30.0,0.0,0.0
805,73.0,0.0,30.0,0.0,0.0
806,51.0,30.0,30.0,0.0,0.0
807,39.0,0.0,30.0,0.0,0.0
808,68.0,0.0,30.0,0.0,0.0
809,72.0,30.0,30.0,0.0,0.0
810,51.0,0.0,30.0,0.0,0.0
811,44.0,0.0,90.0,0.0,0.0
812,68.0,30.0,30.0,0.0,0.0
813,73.0,0.0,30.0,0.0,0.0
814,53.0,0.0,30.0,0.0,0.0
815,68.0,0.0,30.0,0.0,0.0
816,72.0,30.0,30.0,0.0,0.0
817,51.0,0.0,30.0,0.0,0.0
818,60.0,30.0,30.0,0.0,0.0
819,46.0,0.0,30.0,0.0,0.0
820,61.0,30.0,30.0,0.0,0.0
821,49.0,0.0,30.0,0.0,0.0
822,60.0,30.0,30.0,0.0,0.0
823,48.0,0.0,30.0,0.0,0.0
824,48.0,26.0,60.0,0.0,0.0
825,60.0,30.0,30.0,0.0,0.0
826,68.0,4.0,60.0,0.0,0.0
827,41.0,30.0,30.0,0.0,0.0
828,60.0,0.0,30.0,0.0,0.0
829,48.0,26.0,60.0,0.0,0.0
830,56.0,30.0,30.0,0.0,0.0
831,61.0,0.0,60.0,0.0,0.0
832,55.0,0.0,60.0,0.0,0.0
833,58.0,4.0,60.0,0.0,0.0
834,40.0,30.0,30.0,0.0,0.0
835,48.0,0.0,30.0,0.0,0.0
836,60.0,30.0,30.0,0.0,0.0
837,68.0,4.0,60.0,0.0,0.0
838,48.0,26.0,30.0,0.0,0.0
839,41.0,30.0,30.0,0.0,0.0
840,60.0,30.0,30.0,0.0,0.0
841,48.0,26.0,60.0,0.0,0.0
842,67.0,4.0,60.0,0.0,0.0
843,40.0,30.0,30.0,0.0,0.0
844,55.0,30.0,30.0,0.0,0.0
845,60.0,0.0,30.0,0.0,0.0
846,48.0,0.0,60.0,0.0,0.0
847,56.0,0.0,30.0,0.0,0.0
848,60.0,30.0,30.0,0.0,0.0
849,68.0,30.0,30.0,0.0,0.0
850,41.0,0.0,30.0,0.0,0.0
851,67.0,30.0,30.0,0.0,0.0
852,48.0,0.0,60.0,0.0,0.0
853,68.0,30.0,30.0,0.0,0.0
854,67.0,30.0,30.0,0.0,0.0
855,40.0,0.0,30.0,0.0,0.0
856,67.0,4.0,30.0,0.0,0.0
857,72.0,0.0,30.0,0.0,0.0
858,52.0,26.0,30.0,0.0,0.0
859,67.0,26.0,30.0,0.0,0.0
860,73.0,4.0,60.0,0.0,0.0
861,51.0,0.0,30.0,0.0,0.0
862,67.0,30.0,30.0,0.0,0.0
863,52.0,0.0,30.0,0.0,0.0
864,68.0,30.0,30.0,0.0,0.0
865,72.0,0.0,30.0,0.0,0.0
866,53.0,30.0,60.0,0.0,0.0
867,68.0,0.0,30.0,0.0,0.0
868,72.0,0.0,30.0,0.0,0.0
869,53.0,0.0,30.0,0.0,0.0
870,70.0,0.0,30.0,0.0,0.0
871,64.0,30.0,30.0,0.0,0.0
872,55.0,0.0,60.0,0.0,0.0
873,70.0,0.0,30.0,0.0,0.0
874,64.0,30.0,30.0,0.0,0.0
875,65.0,30.0,30.0,0.0,0.0
876,68.0,0.0,30.0,0.0,0.0
877,65.0,0.0,30.0,0.0,0.0
878,68.0,0.0,30.0,0.0,0.0
879,56.0,30.0,30.0,0.0,0.0
880,58.0,30.0,30.0,0.0,0.0
881,59.0,26.0,30.0,0.0,0.0
882,68.0,0.0,30.0,0.0,0.0
883,65.0,4.0,30.0,0.0,0.0
884,64.0,30.0,30.0,0.0,0.0
885,67.0,0.0,30.0,0.0,0.0
886,60.0,0.0,30.0,0.0,0.0
887,60.0,26.0,60.0,0.0,0.0
888,67.0,30.0,30.0,0.0,0.0
889,64.0,0.0,30.0,0.0,0.0
890,64.0,0.0,30.0,0.0,0.0
891,67.0,4.0,30.0,0.0,0.0
892,68.0,0.0,30.0,0.0,0.0
893,53.0,0.0,30.0,0.0,0.0
894,60.0,30.0,30.0,0.0,0.0
895,60.0,30.0,30.0,0.0,0.0
896,53.0,30.0,60.0,0.0,0.0
897,68.0,0.0,30.0,0.0,0.0
898,60.0,0.0,30.0,0.0,0.0
899,68.0,0.0,30.0,0.0,0.0
900,67.0,0.0,30.0,0.0,0.0
901,70.0,30.0,30.0,0.0,0.0
902,51.0,0.0,30.0,0.0,0.0
903,70.0,0.0,30.0,0.0,0.0
904,51.0,26.0,60.0,0.0,0.0
905,67.0,30.0,30.0,0.0,0.0
906,70.0,11.0,180.0,0.0,0.0
907,67.0,4.0,60.0,0.0,0.0
908,39.0,30.0,30.0,0.0,0.0
909,61.0,30.0,30.0,0.0,0.0
910,51.0,26.0,60.0,0.0,0.0
911,60.0,4.0,60.0,0.0,0.0
912,39.0,19.0,30.0,0.0,0.0
913,61.0,30.0,30.0,0.0,0.0
914,51.0,26.0,60.0,0.0,0.0
915,71.0,8.0,90.0,0.0,0.0
916,67.0,4.0,60.0,0.0,0.0
917,39.0,22.0,30.0,0.0,0.0
918,61.0,30.0,30.0,0.0,0.0
919,51.0,26.0,60.0,0.0,0.0
920,72.0,8.0,90.0,0.0,0.0
921,66.0,4.0,60.0,0.0,0.0
922,32.0,22.0,30.0,0.0,0.0
923,48.0,26.0,60.0,0.0,0.0
924,60.0,30.0,30.0,0.0,0.0
925,72.0,0.0,60.0,0.0,0.0
926,63.0,0.0,60.0,0.0,0.0
927,66.0,4.0,60.0,0.0,0.0
928,32.0,30.0,30.0,0.0,0.0
929,75.0,0.0,30.0,0.0,0.0
930,66.0,30.0,30.0,0.0,0.0
931,72.0,0.0,30.0,0.0,0.0
932,48.0,26.0,60.0,0.0,0.0
933,75.0,4.0,60.0,0.0,0.0
934,65.0,8.0,90.0,0.0,0.0
935,25.0,22.0,30.0,0.0,0.0
936,73.0,30.0,30.0,0.0,0.0
937,37.0,0.0,30.0,0.0,0.0
938,72.0,4.0,60.0,0.0,0.0
939,61.0,8.0,90.0,0.0,0.0
940,67.0,0.0,90.0,0.0,0.0
941,39.0,26.0,30.0,0.0,0.0
942,27.0,22.0,30.0,0.0,0.0
943,70.0,30.0,30.0,0.0,0.0
944,39.0,26.0,60.0,0.0,0.0
945,69.0,4.0,60.0,0.0,0.0
946,61.0,0.0,90.0,0.0,0.0
947,67.0,8.0,90.0,0.0,0.0
948,27.0,22.0,30.0,0.0,0.0
949,39.0,26.0,60.0,0.0,0.0
950,70.0,30.0,30.0,0.0,0.0
951,70.0,0.0,30.0,0.0,0.0
952,67.0,4.0,60.0,0.0,0.0
953,27.0,0.0,30.0,0.0,0.0
954,77.0,30.0,30.0,0.0,0.0
955,75.0,30.0,30.0,0.0,0.0
956,70.0,0.0,30.0,0.0,0.0
957,43.0,0.0,30.0,0.0,0.0
958,75.0,0.0,30.0,0.0,0.0
959,43.0,0.0,30.0,0.0,0.0
960,70.0,0.0,30.0,0.0,0.0
961,39.0,0.0,30.0,0.0,0.0
962,67.0,0.0,30.0,0.0,0.0
963,51.0,30.0,30.0,0.0,0.0
964,73.0,0.0,30.0,0.0,0.0
965,72.0,30.0,30.0,0.0,0.0
966,51.0,0.0,30.0,0.0,0.0
967,44.0,4.0,90.0,0.0,0.0
968,68.0,0.0,90.0,0.0,0.0
969,73.0,26.0,30.0,0.0,0.0
970,53.0,0.0,30.0,0.0,0.0
971,51.0,0.0,30.0,0.0,0.0
972,72.0,30.0,30.0,0.0,0.0
973,72.0,26.0,30.0,0.0,0.0
974,51.0,0.0,30.0,0.0,0.0
975,44.0,4.0,60.0,0.0,0.0
976,68.0,0.0,30.0,0.0,0.0
977,56.0,2.0,30.0,0.0,0.0
978,51.0,28.0,15.0,0.0,0.0
979,50.0,2.0,30.0,0.0,0.0
980,51.0,28.0,15.0,0.0,0.0
981,51.0,0.0,30.0,0.0,0.0
982,63.0,0.0,30.0,0.0,0.0
983,72.0,2.0,30.0,0.0,0.0
984,68.0,28.0,15.0,0.0,0.0
985,58.0,0.0,30.0,0.0,0.0
986,67.0,2.0,30.0,0.0,0.0
987,51.0,0.0,30.0,0.0,0.0
988,68.0,28.0,15.0,0.0,0.0
989,61.0,0.0,30.0,0.0,0.0
990,70.0,0.0,30.0,0.0,0.0
991,51.0,2.0,30.0,0.0,0.0
992,67.0,28.0,15.0,0.0,0.0
993,57.0,0.0,30.0,0.0,0.0
994,66.0,0.0,30.0,0.0,0.0
995,51.0,2.0,30.0,0.0,0.0
996,67.0,28.0,15.0,0.0,0.0
997,46.0,2.0,30.0,0.0,0.0
998,39.0,28.0,15.0,0.0,0.0
999,38.0,2.0,30.0,0.0,0.0
1000,39.0,28.0,15.0,0.0,0.0
1001,49.0,2.0,30.0,0.0,0.0
1002,41.0,0.0,30.0,0.0,0.0
1003,46.0,28.0,15.0,0.0,0.0
1004,45.0,2.0,30.0,0.0,0.0
1005,43.0,2.0,60.0,0.0,0.0
1006,46.0,15.0,15.0,0.0,0.0
1007,63.0,13.0,15.0,0.0,0.0
1008,60.0,28.0,15.0,0.0,0.0
1009,59.0,2.0,30.0,0.0,0.0
1010,44.0,0.0,30.0,0.0,0.0
1011,60.0,28.0,15.0,0.0,0.0
1012,63.0,2.0,30.0,0.0,0.0
1013,45.0,0.0,30.0,0.0,0.0
1014,60.0,28.0,15.0,0.0,0.0
1015,46.0,0.0,30.0,0.0,0.0
1016,63.0,2.0,30.0,0.0,0.0
1017,61.0,28.0,15.0,0.0,0.0
1018,47.0,0.0,30.0,0.0,0.0
1019,65.0,2.0,30.0,0.0,0.0
1020,61.0,28.0,15.0,0.0,0.0
1021,65.0,0.0,30.0,0.0,0.0
1022,48.0,2.0,30.0,0.0,0.0
1023,63.0,28.0,15.0,0.0,0.0
1024,63.0,4.0,60.0,0.0,0.0
1025,72.0,0.0,60.0,0.0,0.0
1026,46.0,2.0,30.0,0.0,0.0
1027,43.0,24.0,15.0,0.0,0.0
1028,46.0,2.0,30.0,0.0,0.0
1029,44.0,28.0,15.0,0.0,0.0
1030,49.0,2.0,30.0,0.0,0.0
1031,68.0,4.0,60.0,0.0,0.0
1032,63.0,0.0,60.0,0.0,0.0
1033,47.0,24.0,15.0,0.0,0.0
1034,49.0,2.0,30.0,0.0,0.0
1035,48.0,28.0,15.0,0.0,0.0
1036,68.0,2.0,30.0,0.0,0.0
1037,51.0,4.0,60.0,0.0,0.0
1038,67.0,24.0,15.0,0.0,0.0
1039,70.0,2.0,30.0,0.0,0.0
1040,68.0,28.0,15.0,0.0,0.0
1041,39.0,4.0,60.0,0.0,0.0
1042,68.0,2.0,30.0,0.0,0.0
1043,65.0,24.0,15.0,0.0,0.0
1044,68.0,2.0,30.0,0.0,0.0
1045,67.0,28.0,15.0,0.0,0.0
1046,63.0,0.0,60.0,0.0,0.0
1047,67.0,4.0,60.0,0.0,0.0
1048,37.0,2.0,30.0,0.0,0.0
1049,58.0,0.0,60.0,0.0,0.0
1050,36.0,24.0,15.0,0.0,0.0
1051,39.0,2.0,30.0,0.0,0.0
1052,37.0,28.0,15.0,0.0,0.0
1053,68.0,4.0,60.0,0.0,0.0
1054,36.0,2.0,30.0,0.0,0.0
1055,63.0,0.0,60.0,0.0,0.0
1056,34.0,24.0,15.0,0.0,0.0
1057,37.0,2.0,30.0,0.0,0.0
1058,36.0,28.0,15.0,0.0,0.0
1059,32.0,0.0,30.0,0.0,0.0
1060,72.0,0.0,30.0,0.0,0.0
1061,60.0,2.0,30.0,0.0,0.0
1062,31.0,28.0,15.0,0.0,0.0
1063,70.0,0.0,15.0,0.0,0.0
1064,63.0,0.0,30.0,0.0,0.0
1065,73.0,2.0,30.0,0.0,0.0
1066,34.0,0.0,30.0,0.0,0.0
1067,72.0,0.0,15.0,0.0,0.0
1068,32.0,28.0,15.0,0.0,0.0
1069,75.0,0.0,90.0,0.0,0.0
1070,70.0,2.0,30.0,0.0,0.0
1071,30.0,0.0,30.0,0.0,0.0
1072,69.0,28.0,15.0,0.0,0.0
1073,29.0,0.0,15.0,0.0,0.0
1074,32.0,2.0,30.0,0.0,0.0
1075,72.0,0.0,30.0,0.0,0.0
1076,30.0,0.0,15.0,0.0,0.0
1077,70.0,28.0,15.0,0.0,0.0
1078,69.0,2.0,30.0,0.0,0.0
1079,29.0,0.0,30.0,0.0,0.0
1080,67.0,28.0,15.0,0.0,0.0
1081,75.0,0.0,60.0,0.0,0.0
1082,41.0,0.0,30.0,0.0,0.0
1083,70.0,2.0,30.0,0.0,0.0
1084,69.0,28.0,15.0,0.0,0.0
1085,65.0,0.0,30.0,0.0,0.0
1086,34.0,2.0,30.0,0.0,0.0
1087,72.0,28.0,15.0,0.0,0.0
1088,65.0,0.0,60.0,0.0,0.0
1089,75.0,2.0,30.0,0.0,0.0
1090,46.0,0.0,30.0,0.0,0.0
1091,73.0,28.0,15.0,0.0,0.0
1092,72.0,2.0,30.0,0.0,0.0
1093,37.0,0.0,30.0,0.0,0.0
1094,69.0,28.0,15.0,0.0,0.0
1095,38.0,26.0,30.0,0.0,0.0
1096,65.0,2.0,30.0,0.0,0.0
1097,72.0,0.0,30.0,0.0,0.0
1098,70.0,2.0,15.0,0.0,0.0
1099,68.0,2.0,30.0,0.0,0.0
1100,65.0,0.0,30.0,0.0,0.0
1101,37.0,0.0,15.0,0.0,0.0
1102,41.0,2.0,30.0,0.0,0.0
1103,58.0,0.0,30.0,0.0,0.0
1104,67.0,0.0,30.0,0.0,0.0
1105,39.0,28.0,15.0,0.0,0.0
1106,41.0,0.0,30.0,0.0,0.0
1107,68.0,0.0,30.0,0.0,0.0
1108,63.0,2.0,30.0,0.0,0.0
1109,39.0,0.0,90.0,0.0,0.0
1110,60.0,28.0,15.0,0.0,0.0
1111,63.0,0.0,30.0,0.0,0.0
1112,69.0,0.0,30.0,0.0,0.0
1113,42.0,17.0,30.0,0.0,0.0
1114,61.0,13.0,30.0,0.0,0.0
1115,42.0,0.0,30.0,0.0,0.0
1116,70.0,2.0,30.0,0.0,0.0
1117,58.0,15.0,15.0,0.0,0.0
1118,61.0,13.0,30.0,0.0,0.0
1119,70.0,2.0,30.0,0.0,0.0
1120,43.0,13.0,30.0,0.0,0.0
1121,39.0,0.0,60.0,0.0,0.0
1122,64.0,0.0,30.0,0.0,0.0
1123,58.0,15.0,15.0,0.0,0.0
1124,61.0,0.0,15.0,0.0,0.0
1125,61.0,0.0,30.0,0.0,0.0
1126,63.0,2.0,30.0,0.0,0.0
1127,58.0,0.0,15.0,0.0,0.0
1128,58.0,0.0,15.0,0.0,0.0
1129,43.0,28.0,15.0,0.0,0.0
1130,55.0,2.0,30.0,0.0,0.0
1131,63.0,0.0,60.0,0.0,0.0
1132,46.0,0.0,30.0,0.0,0.0
1133,56.0,28.0,15.0,0.0,0.0
1134,48.0,0.0,15.0,0.0,0.0
1135,58.0,2.0,30.0,0.0,0.0
1136,49.0,0.0,30.0,0.0,0.0
1137,56.0,0.0,15.0,0.0,0.0
1138,48.0,28.0,15.0,0.0,0.0
1139,46.0,0.0,30.0,0.0,0.0
1140,61.0,0.0,30.0,0.0,0.0
1141,63.0,2.0,30.0,0.0,0.0
1142,60.0,0.0,15.0,0.0,0.0
1143,44.0,28.0,15.0,0.0,0.0
1144,56.0,2.0,30.0,0.0,0.0
1145,51.0,28.0,15.0,0.0,0.0
1146,50.0,2.0,30.0,0.0,0.0
1147,51.0,28.0,15.0,0.0,0.0
1148,63.0,0.0,30.0,0.0,0.0
1149,72.0,2.0,30.0,0.0,0.0
1150,51.0,0.0,30.0,0.0,0.0
1151,68.0,28.0,15.0,0.0,0.0
1152,58.0,2.0,30.0,0.0,0.0
1153,67.0,0.0,30.0,0.0,0.0
1154,51.0,0.0,30.0,0.0,0.0
1155,68.0,28.0,15.0,0.0,0.0
1156,61.0,0.0,30.0,0.0,0.0
1157,70.0,2.0,30.0,0.0,0.0
1158,51.0,0.0,30.0,0.0,0.0
1159,67.0,28.0,15.0,0.0,0.0
1160,51.0,0.0,30.0,0.0,0.0
1161,57.0,2.0,30.0,0.0,0.0
1162,66.0,0.0,30.0,0.0,0.0
1163,67.0,28.0,15.0,0.0,0.0
1164,46.0,2.0,30.0,0.0,0.0
1165,39.0,28.0,15.0,0.0,0.0
1166,38.0,2.0,30.0,0.0,0.0
1167,39.0,28.0,15.0,0.0,0.0
1168,49.0,2.0,30.0,0.0,0.0
1169,41.0,0.0,30.0,0.0,0.0
1170,46.0,28.0,15.0,0.0,0.0
1171,45.0,2.0,30.0,0.0,0.0
1172,43.0,0.0,60.0,0.0,0.0
1173,46.0,15.0,15.0,0.0,0.0
1174,63.0,13.0,15.0,0.0,0.0
1175,60.0,28.0,15.0,0.0,0.0
1176,44.0,2.0,30.0,0.0,0.0
1177,59.0,0.0,30.0,0.0,0.0
1178,60.0,28.0,15.0,0.0,0.0
1179,63.0,2.0,30.0,0.0,0.0
1180,45.0,0.0,30.0,0.0,0.0
1181,60.0,28.0,15.0,0.0,0.0
1182,63.0,2.0,30.0,0.0,0.0
1183,46.0,0.0,30.0,0.0,0.0
1184,61.0,28.0,15.0,0.0,0.0
1185,47.0,0.0,30.0,0.0,0.0
1186,65.0,2.0,30.0,0.0,0.0
1187,61.0,28.0,15.0,0.0,0.0
1188,65.0,2.0,30.0,0.0,0.0
1189,48.0,0.0,30.0,0.0,0.0
1190,63.0,28.0,15.0,0.0,0.0
1191,63.0,0.0,60.0,0.0,0.0
1192,72.0,4.0,60.0,0.0,0.0
1193,46.0,2.0,30.0,0.0,0.0
1194,43.0,24.0,15.0,0.0,0.0
1195,46.0,2.0,30.0,0.0,0.0
1196,44.0,28.0,15.0,0.0,0.0
1197,63.0,0.0,60.0,0.0,0.0
1198,68.0,4.0,60.0,0.0,0.0
1199,49.0,2.0,30.0,0.0,0.0
1200,47.0,24.0,15.0,0.0,0.0
1201,49.0,2.0,30.0,0.0,0.0
1202,48.0,28.0,15.0,0.0,0.0
1203,51.0,4.0,60.0,0.0,0.0
1204,68.0,2.0,30.0,0.0,0.0
1205,67.0,24.0,15.0,0.0,0.0
1206,70.0,2.0,30.0,0.0,0.0
1207,68.0,28.0,15.0,0.0,0.0
1208,68.0,2.0,30.0,0.0,0.0
1209,39.0,4.0,60.0,0.0,0.0
1210,65.0,24.0,15.0,0.0,0.0
1211,68.0,2.0,30.0,0.0,0.0
1212,67.0,28.0,15.0,0.0,0.0
1213,58.0,0.0,60.0,0.0,0.0
1214,63.0,4.0,60.0,0.0,0.0
1215,67.0,0.0,60.0,0.0,0.0
1216,37.0,2.0,30.0,0.0,0.0
1217,36.0,24.0,15.0,0.0,0.0
1218,39.0,2.0,30.0,0.0,0.0
1219,37.0,28.0,15.0,0.0,0.0
1220,68.0,4.0,60.0,0.0,0.0
1221,63.0,0.0,60.0,0.0,0.0
1222,36.0,2.0,30.0,0.0,0.0
1223,34.0,24.0,15.0,0.0,0.0
1224,37.0,2.0,30.0,0.0,0.0
1225,36.0,28.0,15.0,0.0,0.0
1226,60.0,0.0,30.0,0.0,0.0
1227,72.0,0.0,30.0,0.0,0.0
1228,32.0,2.0,30.0,0.0,0.0
1229,70.0,0.0,15.0,0.0,0.0
1230,31.0,28.0,15.0,0.0,0.0
1231,73.0,2.0,30.0,0.0,0.0
1232,34.0,0.0,30.0,0.0,0.0
1233,63.0,0.0,30.0,0.0,0.0
1234,72.0,28.0,15.0,0.0,0.0
1235,32.0,0.0,15.0,0.0,0.0
1236,75.0,0.0,90.0,0.0,0.0
1237,30.0,0.0,30.0,0.0,0.0
1238,70.0,2.0,30.0,0.0,0.0
1239,69.0,28.0,15.0,0.0,0.0
1240,29.0,0.0,15.0,0.0,0.0
1241,72.0,2.0,30.0,0.0,0.0
1242,32.0,0.0,30.0,0.0,0.0
1243,70.0,28.0,15.0,0.0,0.0
1244,30.0,0.0,15.0,0.0,0.0
1245,29.0,0.0,30.0,0.0,0.0
1246,69.0,2.0,30.0,0.0,0.0
1247,67.0,28.0,15.0,0.0,0.0
1248,70.0,2.0,30.0,0.0,0.0
1249,75.0,0.0,60.0,0.0,0.0
1250,41.0,0.0,30.0,0.0,0.0
1251,69.0,28.0,15.0,0.0,0.0
1252,34.0,0.0,30.0,0.0,0.0
1253,65.0,2.0,30.0,0.0,0.0
1254,72.0,28.0,15.0,0.0,0.0
1255,46.0,0.0,30.0,0.0,0.0
1256,65.0,0.0,60.0,0.0,0.0
1257,75.0,2.0,30.0,0.0,0.0
1258,73.0,28.0,15.0,0.0,0.0
1259,72.0,2.0,30.0,0.0,0.0
1260,37.0,0.0,30.0,0.0,0.0
1261,69.0,28.0,15.0,0.0,0.0
1262,38.0,26.0,30.0,0.0,0.0
1263,72.0,0.0,30.0,0.0,0.0
1264,65.0,2.0,30.0,0.0,0.0
1265,70.0,2.0,15.0,0.0,0.0
1266,68.0,0.0,30.0,0.0,0.0
1267,65.0,2.0,30.0,0.0,0.0
1268,37.0,0.0,15.0,0.0,0.0
1269,67.0,0.0,30.0,0.0,0.0
1270,58.0,0.0,30.0,0.0,0.0
1271,41.0,2.0,30.0,0.0,0.0
1272,39.0,28.0,15.0,0.0,0.0
1273,63.0,2.0,30.0,0.0,0.0
1274,68.0,0.0,30.0,0.0,0.0
1275,41.0,0.0,30.0,0.0,0.0
1276,39.0,0.0,90.0,0.0,0.0
1277,60.0,28.0,15.0,0.0,0.0
1278,63.0,17.0,30.0,0.0,0.0
1279,69.0,0.0,30.0,0.0,0.0
1280,42.0,0.0,30.0,0.0,0.0
1281,61.0,13.0,30.0,0.0,0.0
1282,70.0,2.0,30.0,0.0,0.0
1283,42.0,0.0,30.0,0.0,0.0
1284,61.0,13.0,30.0,0.0,0.0
1285,58.0,15.0,15.0,0.0,0.0
1286,70.0,0.0,30.0,0.0,0.0
1287,39.0,0.0,30.0,0.0,0.0
1288,64.0,2.0,30.0,0.0,0.0
1289,58.0,2.0,15.0,0.0,0.0
1290,61.0,0.0,15.0,0.0,0.0
1291,61.0,2.0,30.0,0.0,0.0
1292,63.0,0.0,30.0,0.0,0.0
1293,39.0,0.0,30.0,0.0,0.0
1294,43.0,26.0,15.0,0.0,0.0
1295,58.0,0.0,15.0,0.0,0.0
1296,43.0,0.0,15.0,0.0,0.0
1297,46.0,2.0,30.0,0.0,0.0
1298,61.0,0.0,30.0,0.0,0.0
1299,55.0,0.0,30.0,0.0,0.0
1300,63.0,2.0,60.0,0.0,0.0
1301,56.0,0.0,15.0,0.0,0.0
1302,60.0,0.0,15.0,0.0,0.0
1303,44.0,28.0,15.0,0.0,0.0
1304,44.0,0.0,30.0,0.0,0.0
1305,64.0,0.0,15.0,0.0,0.0
1306,43.0,0.0,15.0,0.0,0.0
1307,58.0,15.0,15.0,0.0,0.0
1308,60.0,0.0,15.0,0.0,0.0
1309,56.0,0.0,30.0,0.0,0.0
1310,65.0,0.0,30.0,0.0,0.0
1311,41.0,2.0,30.0,0.0,0.0
1312,55.0,13.0,30.0,0.0,0.0
1313,60.0,0.0,15.0,0.0,0.0
1314,67.0,15.0,15.0,0.0,0.0
1315,40.0,0.0,30.0,0.0,0.0
1316,58.0,0.0,15.0,0.0,0.0
1317,55.0,15.0,15.0,0.0,0.0
1318,60.0,2.0,15.0,0.0,0.0
1319,40.0,0.0,15.0,0.0,0.0
1320,53.0,0.0,30.0,0.0,0.0
1321,56.0,0.0,30.0,0.0,0.0
1322,41.0,2.0,30.0,0.0,0.0
1323,52.0,28.0,15.0,0.0,0.0
1324,58.0,0.0,15.0,0.0,0.0
1325,60.0,0.0,15.0,0.0,0.0
1326,43.0,0.0,15.0,0.0,0.0
1327,41.0,0.0,60.0,0.0,0.0
1328,68.0,2.0,60.0,0.0,0.0
1329,56.0,2.0,30.0,0.0,0.0
1330,47.0,28.0,15.0,0.0,0.0
1331,59.0,0.0,15.0,0.0,0.0
1332,60.0,2.0,60.0,0.0,0.0
1333,48.0,0.0,60.0,0.0,0.0
1334,67.0,0.0,15.0,0.0,0.0
1335,40.0,28.0,15.0,0.0,0.0
1336,41.0,0.0,60.0,0.0,0.0
1337,68.0,2.0,60.0,0.0,0.0
1338,47.0,28.0,15.0,0.0,0.0
1339,59.0,0.0,15.0,0.0,0.0
1340,60.0,2.0,60.0,0.0,0.0
1341,48.0,0.0,60.0,0.0,0.0
1342,40.0,28.0,15.0,0.0,0.0
1343,67.0,0.0,15.0,0.0,0.0
1344,68.0,2.0,60.0,0.0,0.0
1345,41.0,0.0,60.0,0.0,0.0
1346,59.0,28.0,15.0,0.0,0.0
1347,47.0,0.0,15.0,0.0,0.0
1348,48.0,0.0,60.0,0.0,0.0
1349,60.0,2.0,60.0,0.0,0.0
1350,67.0,0.0,15.0,0.0,0.0
1351,40.0,28.0,15.0,0.0,0.0
1352,40.0,0.0,60.0,0.0,0.0
1353,67.0,2.0,60.0,0.0,0.0
1354,61.0,0.0,15.0,0.0,0.0
1355,49.0,28.0,15.0,0.0,0.0
1356,60.0,0.0,60.0,0.0,0.0
1357,48.0,2.0,60.0,0.0,0.0
1358,68.0,0.0,15.0,0.0,0.0
1359,41.0,28.0,15.0,0.0,0.0
1360,67.0,0.0,60.0,0.0,0.0
1361,40.0,2.0,60.0,0.0,0.0
1362,49.0,28.0,15.0,0.0,0.0
1363,61.0,0.0,15.0,0.0,0.0
1364,60.0,2.0,60.0,0.0,0.0
1365,48.0,0.0,60.0,0.0,0.0
1366,68.0,0.0,15.0,0.0,0.0
1367,41.0,28.0,15.0,0.0,0.0
1368,67.0,0.0,60.0,0.0,0.0
1369,40.0,2.0,60.0,0.0,0.0
1370,61.0,0.0,15.0,0.0,0.0
1371,49.0,28.0,15.0,0.0,0.0
1372,48.0,0.0,30.0,0.0,0.0
1373,60.0,0.0,30.0,0.0,0.0
1374,72.0,15.0,15.0,0.0,0.0
1375,39.0,15.0,30.0,0.0,0.0
1376,67.0,0.0,60.0,0.0,0.0
1377,28.0,28.0,15.0,0.0,0.0
1378,40.0,0.0,15.0,0.0,0.0
1379,68.0,28.0,15.0,0.0,0.0
1380,72.0,2.0,15.0,0.0,0.0
1381,68.0,2.0,60.0,0.0,0.0
1382,72.0,0.0,60.0,0.0,0.0
1383,29.0,2.0,15.0,0.0,0.0
1384,41.0,0.0,15.0,0.0,0.0
1385,43.0,0.0,30.0,0.0,0.0
1386,31.0,0.0,30.0,0.0,0.0
1387,64.0,0.0,15.0,0.0,0.0
1388,67.0,28.0,15.0,0.0,0.0
1389,70.0,0.0,15.0,0.0,0.0
1390,60.0,0.0,30.0,0.0,0.0
1391,67.0,2.0,30.0,0.0,0.0
1392,70.0,0.0,30.0,0.0,0.0
1393,32.0,0.0,30.0,0.0,0.0
1394,44.0,0.0,30.0,0.0,0.0
1395,68.0,0.0,15.0,0.0,0.0
1396,65.0,28.0,15.0,0.0,0.0
1397,46.0,0.0,15.0,0.0,0.0
1398,34.0,0.0,15.0,0.0,0.0
1399,61.0,0.0,15.0,0.0,0.0
1400,62.0,0.0,30.0,0.0,0.0
1401,65.0,0.0,30.0,0.0,0.0
1402,68.0,0.0,30.0,0.0,0.0
1403,35.0,2.0,30.0,0.0,0.0
1404,47.0,0.0,30.0,0.0,0.0
1405,64.0,0.0,15.0,0.0,0.0
1406,55.0,0.0,15.0,0.0,0.0
1407,67.0,15.0,15.0,0.0,0.0
1408,48.0,0.0,15.0,0.0,0.0
1409,36.0,0.0,15.0,0.0,0.0
1410,48.0,0.0,15.0,0.0,0.0
1411,36.0,30.0,15.0,0.0,0.0
1412,67.0,0.0,15.0,0.0,0.0
1413,55.0,0.0,15.0,0.0,0.0
1414,64.0,0.0,15.0,0.0,0.0
1415,36.0,0.0,30.0,0.0,0.0
1416,48.0,30.0,30.0,0.0,0.0
1417,55.0,0.0,30.0,0.0,0.0
1418,64.0,0.0,30.0,0.0,0.0
1419,67.0,0.0,30.0,0.0,0.0
1420,36.0,0.0,30.0,0.0,0.0
1421,48.0,0.0,30.0,0.0,0.0
1422,64.0,0.0,30.0,0.0,0.0
1423,55.0,0.0,30.0,0.0,0.0
1424,67.0,30.0,30.0,0.0,0.0
1425,56.0,0.0,30.0,0.0,0.0
1426,65.0,0.0,30.0,0.0,0.0
1427,29.0,30.0,30.0,0.0,0.0
1428,41.0,0.0,30.0,0.0,0.0
1429,68.0,0.0,30.0,0.0,0.0
1430,56.0,0.0,30.0,0.0,0.0
1431,41.0,0.0,30.0,0.0,0.0
1432,29.0,0.0,30.0,0.0,0.0
1433,68.0,0.0,30.0,0.0,0.0
1434,65.0,15.0,30.0,0.0,0.0
1435,70.0,0.0,15.0,0.0,0.0
1436,27.0,15.0,30.0,0.0,0.0
1437,39.0,0.0,30.0,0.0,0.0
1438,67.0,0.0,15.0,0.0,0.0
1439,58.0,15.0,15.0,0.0,0.0
1440,70.0,0.0,15.0,0.0,0.0
1441,67.0,0.0,15.0,0.0,0.0
1442,58.0,0.0,15.0,0.0,0.0
1443,27.0,15.0,15.0,0.0,0.0
1444,82.0,0.0,15.0,0.0,0.0
1445,79.0,0.0,15.0,0.0,0.0
1446,70.0,0.0,15.0,0.0,0.0
1447,39.0,0.0,15.0,0.0,0.0
1448,70.0,13.0,15.0,0.0,0.0
1449,27.0,2.0,30.0,0.0,0.0
1450,39.0,0.0,30.0,0.0,0.0
1451,79.0,0.0,30.0,0.0,0.0
1452,82.0,0.0,30.0,0.0,0.0
1453,70.0,28.0,15.0,0.0,0.0
1454,61.0,0.0,15.0,0.0,0.0
1455,51.0,0.0,120.0,0.0,0.0
1456,60.0,2.0,30.0,0.0,0.0
1457,69.0,0.0,30.0,0.0,0.0
1458,61.0,28.0,15.0,0.0,0.0
1459,70.0,0.0,15.0,0.0,0.0
1460,61.0,2.0,30.0,0.0,0.0
1461,70.0,0.0,90.0,0.0,0.0
1462,58.0,0.0,15.0,0.0,0.0
1463,67.0,28.0,15.0,0.0,0.0
1464,66.0,0.0,30.0,0.0,0.0
1465,57.0,2.0,30.0,0.0,0.0
1466,58.0,0.0,15.0,0.0,0.0
1467,67.0,28.0,15.0,0.0,0.0
1468,55.0,0.0,30.0,0.0,0.0
1469,63.0,2.0,30.0,0.0,0.0
1470,71.0,28.0,15.0,0.0,0.0
1471,58.0,2.0,30.0,0.0,0.0
1472,51.0,0.0,60.0,0.0,0.0
1473,73.0,0.0,30.0,0.0,0.0
1474,63.0,0.0,60.0,0.0,0.0
1475,56.0,0.0,15.0,0.0,0.0
1476,72.0,28.0,15.0,0.0,0.0
1477,56.0,2.0,30.0,0.0,0.0
1478,72.0,2.0,90.0,0.0,0.0
1479,60.0,0.0,15.0,0.0,0.0
1480,68.0,28.0,15.0,0.0,0.0
1481,58.0,0.0,30.0,0.0,0.0
1482,56.0,0.0,60.0,0.0,0.0
1483,67.0,2.0,30.0,0.0,0.0
1484,68.0,0.0,15.0,0.0,0.0
1485,60.0,28.0,15.0,0.0,0.0
1486,60.0,0.0,30.0,0.0,0.0
1487,68.0,0.0,30.0,0.0,0.0
1488,63.0,0.0,15.0,0.0,0.0
1489,66.0,28.0,15.0,0.0,0.0
1490,65.0,2.0,30.0,0.0,0.0
1491,56.0,2.0,60.0,0.0,0.0
1492,62.0,0.0,30.0,0.0,0.0
1493,66.0,0.0,15.0,0.0,0.0
1494,63.0,15.0,15.0,0.0,0.0
1495,66.0,0.0,30.0,0.0,0.0
1496,63.0,13.0,15.0,0.0,0.0
1497,72.0,0.0,15.0,0.0,0.0
1498,63.0,28.0,15.0,0.0,0.0
1499,66.0,0.0,30.0,0.0,0.0
1500,75.0,2.0,30.0,0.0,0.0
1501,49.0,0.0,30.0,0.0,0.0
1502,60.0,0.0,30.0,0.0,0.0
1503,61.0,0.0,15.0,0.0,0.0
1504,73.0,28.0,15.0,0.0,0.0
1505,65.0,0.0,15.0,0.0,0.0
1506,65.0,0.0,30.0,0.0,0.0
1507,70.0,2.0,30.0,0.0,0.0
1508,50.0,0.0,30.0,0.0,0.0
1509,56.0,0.0,30.0,0.0,0.0
1510,53.0,0.0,15.0,0.0,0.0
1511,68.0,0.0,15.0,0.0,0.0
1512,74.0,28.0,15.0,0.0,0.0
1513,70.0,2.0,60.0,0.0,0.0
1514,77.0,17.0,30.0,0.0,0.0
1515,50.0,0.0,30.0,0.0,0.0
1516,56.0,0.0,30.0,0.0,0.0
1517,75.0,0.0,30.0,0.0,0.0
1518,51.0,0.0,30.0,0.0,0.0
1519,55.0,13.0,30.0,0.0,0.0
1520,71.0,0.0,15.0,0.0,0.0
1521,55.0,28.0,15.0,0.0,0.0
1522,72.0,0.0,60.0,0.0,0.0
1523,51.0,2.0,60.0,0.0,0.0
1524,77.0,30.0,30.0,0.0,0.0
1525,56.0,0.0,30.0,0.0,0.0
1526,75.0,0.0,30.0,0.0,0.0
1527,56.0,0.0,30.0,0.0,0.0
1528,73.0,0.0,15.0,0.0,0.0
1529,58.0,28.0,15.0,0.0,0.0
1530,77.0,0.0,30.0,0.0,0.0
1531,73.0,0.0,30.0,0.0,0.0
1532,67.0,0.0,15.0,0.0,0.0
1533,70.0,28.0,15.0,0.0,0.0
1534,75.0,0.0,15.0,0.0,0.0
1535,51.0,0.0,15.0,0.0,0.0
1536,58.0,2.0,15.0,0.0,0.0
1537,61.0,0.0,15.0,0.0,0.0
1538,58.0,0.0,30.0,0.0,0.0
1539,70.0,0.0,30.0,0.0,0.0
1540,61.0,2.0,30.0,0.0,0.0
1541,75.0,0.0,60.0,0.0,0.0
1542,67.0,0.0,15.0,0.0,0.0
1543,39.0,0.0,15.0,0.0,0.0
1544,51.0,0.0,15.0,0.0,0.0
1545,68.0,0.0,30.0,0.0,0.0
1546,53.0,0.0,30.0,0.0,0.0
1547,41.0,2.0,30.0,0.0,0.0
1548,73.0,0.0,15.0,0.0,0.0
1549,43.0,28.0,15.0,0.0,0.0
1550,55.0,0.0,15.0,0.0,0.0
1551,70.0,0.0,15.0,0.0,0.0
1552,63.0,0.0,30.0,0.0,0.0
1553,44.0,0.0,30.0,0.0,0.0
1554,56.0,0.0,30.0,0.0,0.0
1555,72.0,2.0,30.0,0.0,0.0
1556,46.0,0.0,15.0,0.0,0.0
1557,55.0,28.0,15.0,0.0,0.0
1558,48.0,0.0,30.0,0.0,0.0
1559,56.0,2.0,30.0,0.0,0.0
1560,58.0,28.0,15.0,0.0,0.0
1561,49.0,0.0,15.0,0.0,0.0
1562,48.0,0.0,30.0,0.0,0.0
1563,56.0,2.0,30.0,0.0,0.0
1564,55.0,15.0,15.0,0.0,0.0
1565,46.0,0.0,15.0,0.0,0.0
1566,60.0,13.0,30.0,0.0,0.0
1567,53.0,2.0,30.0,0.0,0.0
1568,44.0,0.0,30.0,0.0,0.0
1569,52.0,0.0,15.0,0.0,0.0
1570,58.0,0.0,15.0,0.0,0.0
1571,60.0,0.0,15.0,0.0,0.0
1572,43.0,28.0,15.0,0.0,0.0
1573,56.0,2.0,30.0,0.0,0.0
1574,41.0,2.0,60.0,0.0,0.0
1575,68.0,0.0,60.0,0.0,0.0
1576,59.0,0.0,15.0,0.0,0.0
1577,47.0,28.0,15.0,0.0,0.0
1578,60.0,2.0,60.0,0.0,0.0
1579,48.0,0.0,60.0,0.0,0.0
1580,67.0,0.0,15.0,0.0,0.0
1581,40.0,28.0,15.0,0.0,0.0
1582,68.0,0.0,60.0,0.0,0.0
1583,41.0,2.0,60.0,0.0,0.0
1584,59.0,28.0,15.0,0.0,0.0
1585,47.0,0.0,15.0,0.0,0.0
1586,60.0,2.0,60.0,0.0,0.0
1587,48.0,0.0,60.0,0.0,0.0
1588,67.0,0.0,15.0,0.0,0.0
1589,40.0,28.0,15.0,0.0,0.0
1590,68.0,0.0,60.0,0.0,0.0
1591,41.0,2.0,60.0,0.0,0.0
1592,47.0,28.0,15.0,0.0,0.0
1593,59.0,0.0,15.0,0.0,0.0
1594,60.0,2.0,60.0,0.0,0.0
1595,48.0,0.0,60.0,0.0,0.0
1596,67.0,0.0,15.0,0.0,0.0
1597,40.0,28.0,15.0,0.0,0.0
1598,40.0,0.0,60.0,0.0,0.0
1599,67.0,2.0,60.0,0.0,0.0
1600,49.0,28.0,15.0,0.0,0.0
1601,61.0,0.0,15.0,0.0,0.0
1602,60.0,2.0,60.0,0.0,0.0
1603,48.0,0.0,60.0,0.0,0.0
1604,68.0,0.0,15.0,0.0,0.0
1605,41.0,28.0,15.0,0.0,0.0
1606,67.0,2.0,60.0,0.0,0.0
1607,40.0,0.0,60.0,0.0,0.0
1608,61.0,0.0,15.0,0.0,0.0
1609,49.0,28.0,15.0,0.0,0.0
1610,60.0,2.0,60.0,0.0,0.0
1611,48.0,0.0,60.0,0.0,0.0
1612,68.0,0.0,15.0,0.0,0.0
1613,41.0,28.0,15.0,0.0,0.0
1614,40.0,2.0,60.0,0.0,0.0
1615,67.0,0.0,60.0,0.0,0.0
1616,61.0,0.0,15.0,0.0,0.0
1617,49.0,28.0,15.0,0.0,0.0
1618,60.0,0.0,30.0,0.0,0.0
1619,48.0,0.0,30.0,0.0,0.0
1620,72.0,15.0,15.0,0.0,0.0
1621,39.0,15.0,30.0,0.0,0.0
1622,67.0,2.0,60.0,0.0,0.0
1623,28.0,28.0,15.0,0.0,0.0
1624,40.0,0.0,15.0,0.0,0.0
1625,68.0,28.0,15.0,0.0,0.0
1626,72.0,0.0,15.0,0.0,0.0
1627,68.0,0.0,60.0,0.0,0.0
1628,72.0,2.0,60.0,0.0,0.0
1629,29.0,2.0,15.0,0.0,0.0
1630,41.0,0.0,15.0,0.0,0.0
1631,31.0,0.0,30.0,0.0,0.0
1632,43.0,0.0,30.0,0.0,0.0
1633,64.0,0.0,15.0,0.0,0.0
1634,70.0,0.0,15.0,0.0,0.0
1635,67.0,28.0,15.0,0.0,0.0
1636,70.0,2.0,30.0,0.0,0.0
1637,44.0,0.0,30.0,0.0,0.0
1638,60.0,0.0,30.0,0.0,0.0
1639,67.0,0.0,30.0,0.0,0.0
1640,32.0,0.0,30.0,0.0,0.0
1641,61.0,0.0,15.0,0.0,0.0
1642,65.0,0.0,15.0,0.0,0.0
1643,68.0,28.0,15.0,0.0,0.0
1644,34.0,0.0,15.0,0.0,0.0
1645,46.0,0.0,15.0,0.0,0.0
1646,35.0,0.0,30.0,0.0,0.0
1647,47.0,2.0,30.0,0.0,0.0
1648,65.0,0.0,30.0,0.0,0.0
1649,62.0,0.0,30.0,0.0,0.0
1650,68.0,0.0,30.0,0.0,0.0
1651,55.0,0.0,15.0,0.0,0.0
1652,64.0,15.0,15.0,0.0,0.0
1653,67.0,0.0,15.0,0.0,0.0
1654,36.0,0.0,15.0,0.0,0.0
1655,48.0,0.0,15.0,0.0,0.0
1656,55.0,0.0,15.0,0.0,0.0
1657,64.0,0.0,15.0,0.0,0.0
1658,67.0,0.0,15.0,0.0,0.0
1659,36.0,30.0,15.0,0.0,0.0
1660,48.0,0.0,15.0,0.0,0.0
1661,64.0,0.0,30.0,0.0,0.0
1662,67.0,0.0,30.0,0.0,0.0
1663,36.0,30.0,30.0,0.0,0.0
1664,48.0,0.0,30.0,0.0,0.0
1665,55.0,0.0,30.0,0.0,0.0
1666,48.0,0.0,30.0,0.0,0.0
1667,36.0,30.0,30.0,0.0,0.0
1668,55.0,0.0,30.0,0.0,0.0
1669,64.0,0.0,30.0,0.0,0.0
1670,67.0,0.0,30.0,0.0,0.0
1671,56.0,0.0,30.0,0.0,0.0
1672,68.0,0.0,30.0,0.0,0.0
1673,29.0,30.0,30.0,0.0,0.0
1674,41.0,0.0,30.0,0.0,0.0
1675,65.0,0.0,30.0,0.0,0.0
1676,41.0,0.0,30.0,0.0,0.0
1677,29.0,0.0,30.0,0.0,0.0
1678,65.0,0.0,30.0,0.0,0.0
1679,68.0,0.0,30.0,0.0,0.0
1680,56.0,15.0,30.0,0.0,0.0
1681,58.0,0.0,15.0,0.0,0.0
1682,67.0,0.0,15.0,0.0,0.0
1683,70.0,15.0,15.0,0.0,0.0
1684,27.0,0.0,30.0,0.0,0.0
1685,39.0,0.0,30.0,0.0,0.0
1686,58.0,0.0,15.0,0.0,0.0
1687,67.0,15.0,15.0,0.0,0.0
1688,70.0,0.0,15.0,0.0,0.0
1689,70.0,0.0,15.0,0.0,0.0
1690,79.0,0.0,15.0,0.0,0.0
1691,82.0,0.0,15.0,0.0,0.0
1692,27.0,15.0,15.0,0.0,0.0
1693,39.0,0.0,15.0,0.0,0.0
1694,27.0,0.0,30.0,0.0,0.0
1695,79.0,0.0,30.0,0.0,0.0
1696,82.0,2.0,30.0,0.0,0.0
1697,70.0,13.0,15.0,0.0,0.0
1698,39.0,0.0,30.0,0.0,0.0
1699,70.0,28.0,15.0,0.0,0.0
1700,61.0,0.0,15.0,0.0,0.0
1701,51.0,0.0,120.0,0.0,0.0
1702,60.0,2.0,30.0,0.0,0.0
1703,69.0,0.0,30.0,0.0,0.0
1704,70.0,0.0,15.0,0.0,0.0
1705,61.0,28.0,15.0,0.0,0.0
1706,61.0,2.0,30.0,0.0,0.0
1707,70.0,2.0,90.0,0.0,0.0
1708,58.0,0.0,15.0,0.0,0.0
1709,67.0,28.0,15.0,0.0,0.0
1710,66.0,2.0,30.0,0.0,0.0
1711,57.0,0.0,30.0,0.0,0.0
1712,67.0,0.0,15.0,0.0,0.0
1713,58.0,28.0,15.0,0.0,0.0
1714,63.0,0.0,30.0,0.0,0.0
1715,55.0,0.0,30.0,0.0,0.0
1716,71.0,28.0,15.0,0.0,0.0
1717,63.0,0.0,60.0,0.0,0.0
1718,73.0,2.0,30.0,0.0,0.0
1719,51.0,0.0,60.0,0.0,0.0
1720,58.0,0.0,30.0,0.0,0.0
1721,72.0,0.0,15.0,0.0,0.0
1722,56.0,28.0,15.0,0.0,0.0
1723,56.0,2.0,30.0,0.0,0.0
1724,72.0,0.0,90.0,0.0,0.0
1725,68.0,0.0,15.0,0.0,0.0
1726,60.0,28.0,15.0,0.0,0.0
1727,67.0,2.0,30.0,0.0,0.0
1728,56.0,0.0,60.0,0.0,0.0
1729,58.0,0.0,30.0,0.0,0.0
1730,68.0,0.0,15.0,0.0,0.0
1731,60.0,28.0,15.0,0.0,0.0
1732,68.0,0.0,30.0,0.0,0.0
1733,60.0,2.0,30.0,0.0,0.0
1734,63.0,0.0,15.0,0.0,0.0
1735,66.0,28.0,15.0,0.0,0.0
1736,56.0,0.0,60.0,0.0,0.0
1737,65.0,0.0,30.0,0.0,0.0
1738,62.0,2.0,30.0,0.0,0.0
1739,66.0,0.0,15.0,0.0,0.0
1740,63.0,15.0,15.0,0.0,0.0
1741,66.0,0.0,30.0,0.0,0.0
1742,63.0,13.0,15.0,0.0,0.0
1743,72.0,2.0,15.0,0.0,0.0
1744,63.0,28.0,15.0,0.0,0.0
1745,66.0,2.0,30.0,0.0,0.0
1746,75.0,0.0,30.0,0.0,0.0
1747,49.0,0.0,30.0,0.0,0.0
1748,60.0,0.0,30.0,0.0,0.0
1749,65.0,0.0,15.0,0.0,0.0
1750,73.0,28.0,15.0,0.0,0.0
1751,61.0,0.0,15.0,0.0,0.0
1752,65.0,0.0,30.0,0.0,0.0
1753,70.0,2.0,30.0,0.0,0.0
1754,50.0,0.0,30.0,0.0,0.0
1755,56.0,0.0,30.0,0.0,0.0
1756,68.0,0.0,15.0,0.0,0.0
1757,53.0,0.0,15.0,0.0,0.0
1758,74.0,28.0,15.0,0.0,0.0
1759,56.0,0.0,30.0,0.0,0.0
1760,77.0,17.0,30.0,0.0,0.0
1761,70.0,2.0,60.0,0.0,0.0
1762,50.0,0.0,30.0,0.0,0.0
1763,75.0,0.0,30.0,0.0,0.0
1764,51.0,0.0,30.0,0.0,0.0
1765,55.0,13.0,30.0,0.0,0.0
1766,55.0,28.0,15.0,0.0,0.0
1767,71.0,0.0,15.0,0.0,0.0
1768,77.0,30.0,30.0,0.0,0.0
1769,72.0,0.0,60.0,0.0,0.0
1770,56.0,0.0,30.0,0.0,0.0
1771,51.0,2.0,60.0,0.0,0.0
1772,75.0,0.0,30.0,0.0,0.0
1773,56.0,0.0,30.0,0.0,0.0
1774,73.0,0.0,15.0,0.0,0.0
1775,58.0,28.0,15.0,0.0,0.0
1776,73.0,0.0,30.0,0.0,0.0
1777,77.0,0.0,30.0,0.0,0.0
1778,61.0,0.0,15.0,0.0,0.0
1779,58.0,0.0,15.0,0.0,0.0
1780,51.0,0.0,15.0,0.0,0.0
1781,67.0,2.0,15.0,0.0,0.0
1782,70.0,0.0,15.0,0.0,0.0
1783,75.0,0.0,15.0,0.0,0.0
1784,61.0,0.0,30.0,0.0,0.0
1785,58.0,2.0,30.0,0.0,0.0
1786,75.0,0.0,30.0,0.0,0.0
1787,70.0,0.0,30.0,0.0,0.0
1788,67.0,13.0,15.0,0.0,0.0
1789,67.0,28.0,15.0,0.0,0.0
1790,39.0,0.0,15.0,0.0,0.0
1791,51.0,0.0,15.0,0.0,0.0
1792,41.0,0.0,30.0,0.0,0.0
1793,68.0,0.0,30.0,0.0,0.0
1794,53.0,0.0,30.0,0.0,0.0
1795,75.0,2.0,30.0,0.0,0.0
1796,70.0,0.0,15.0,0.0,0.0
1797,73.0,28.0,15.0,0.0,0.0
1798,43.0,0.0,15.0,0.0,0.0
1799,55.0,0.0,15.0,0.0,0.0
1800,56.0,2.0,30.0,0.0,0.0
1801,44.0,0.0,30.0,0.0,0.0
1802,63.0,0.0,30.0,0.0,0.0
1803,72.0,0.0,30.0,0.0,0.0
1804,70.0,15.0,15.0,0.0,0.0
1805,75.0,13.0,30.0,0.0,0.0
1806,67.0,0.0,15.0,0.0,0.0
1807,72.0,2.0,30.0,0.0,0.0
1808,68.0,0.0,30.0,0.0,0.0
1809,70.0,0.0,15.0,0.0,0.0
1810,73.0,0.0,15.0,0.0,0.0
1811,75.0,15.0,15.0,0.0,0.0
1812,80.0,1.0,15.0,0.0,0.0
1813,75.0,14.0,15.0,0.0,0.0
1814,72.0,1.0,15.0,0.0,0.0
1815,68.0,14.0,15.0,0.0,0.0
1816,63.0,1.0,15.0,0.0,0.0
1817,60.0,14.0,15.0,0.0,0.0
1818,56.0,1.0,15.0,0.0,0.0
1819,51.0,14.0,15.0,0.0,0.0
1820,32.0,1.0,15.0,0.0,0.0
1821,60.0,7.0,20.0,0.0,0.0
1822,63.0,0.0,20.0,0.0,0.0
1823,36.0,7.0,15.0,0.0,0.0
1824,39.0,1.0,15.0,0.0,0.0
1825,44.0,14.0,15.0,0.0,0.0
1826,63.0,0.0,30.0,0.0,0.0
1827,60.0,7.0,30.0,0.0,0.0
1828,48.0,1.0,15.0,0.0,0.0
1829,51.0,7.0,15.0,0.0,0.0
1830,55.0,1.0,15.0,0.0,0.0
1831,60.0,0.0,15.0,0.0,0.0
1832,63.0,0.0,15.0,0.0,0.0
1833,56.0,14.0,15.0,0.0,0.0
1834,61.0,7.0,20.0,0.0,0.0
1835,63.0,0.0,20.0,0.0,0.0
1836,34.0,1.0,15.0,0.0,0.0
1837,39.0,7.0,15.0,0.0,0.0
1838,43.0,1.0,15.0,0.0,0.0
1839,61.0,7.0,30.0,0.0,0.0
1840,63.0,0.0,30.0,0.0,0.0
1841,46.0,14.0,15.0,0.0,0.0
1842,51.0,1.0,15.0,0.0,0.0
1843,55.0,7.0,15.0,0.0,0.0
1844,57.0,1.0,15.0,0.0,0.0
1845,63.0,0.0,15.0,0.0,0.0
1846,61.0,0.0,15.0,0.0,0.0
1847,58.0,14.0,15.0,0.0,0.0
1848,85.0,1.0,15.0,0.0,0.0
1849,82.0,14.0,15.0,0.0,0.0
1850,79.0,1.0,15.0,0.0,0.0
1851,75.0,14.0,15.0,0.0,0.0
1852,73.0,1.0,15.0,0.0,0.0
1853,70.0,14.0,15.0,0.0,0.0
1854,67.0,1.0,15.0,0.0,0.0
1855,63.0,14.0,15.0,0.0,0.0
1856,34.0,1.0,15.0,0.0,0.0
1857,61.0,7.0,20.0,0.0,0.0
1858,63.0,0.0,20.0,0.0,0.0
1859,39.0,7.0,15.0,0.0,0.0
1860,43.0,1.0,15.0,0.0,0.0
1861,63.0,0.0,30.0,0.0,0.0
1862,46.0,14.0,15.0,0.0,0.0
1863,61.0,7.0,30.0,0.0,0.0
1864,51.0,1.0,15.0,0.0,0.0
1865,55.0,7.0,15.0,0.0,0.0
1866,57.0,1.0,15.0,0.0,0.0
1867,61.0,0.0,15.0,0.0,0.0
1868,63.0,14.0,15.0,0.0,0.0
1869,58.0,0.0,15.0,0.0,0.0
1870,63.0,7.0,20.0,0.0,0.0
1871,36.0,1.0,15.0,0.0,0.0
1872,39.0,7.0,15.0,0.0,0.0
1873,44.0,1.0,15.0,0.0,0.0
1874,63.0,7.0,30.0,0.0,0.0
1875,48.0,14.0,15.0,0.0,0.0
1876,51.0,1.0,15.0,0.0,0.0
1877,56.0,7.0,15.0,0.0,0.0
1878,58.0,1.0,15.0,0.0,0.0
1879,60.0,0.0,15.0,0.0,0.0
1880,63.0,14.0,15.0,0.0,0.0
1881,87.0,1.0,15.0,0.0,0.0
1882,84.0,14.0,15.0,0.0,0.0
1883,80.0,1.0,15.0,0.0,0.0
1884,75.0,14.0,15.0,0.0,0.0
1885,72.0,1.0,15.0,0.0,0.0
1886,68.0,14.0,15.0,0.0,0.0
1887,67.0,1.0,15.0,0.0,0.0
1888,75.0,14.0,15.0,0.0,0.0
1889,63.0,0.0,20.0,0.0,0.0
1890,66.0,7.0,20.0,0.0,0.0
1891,69.0,0.0,20.0,0.0,0.0
1892,75.0,0.0,20.0,0.0,0.0
1893,36.0,1.0,15.0,0.0,0.0
1894,42.0,7.0,15.0,0.0,0.0
1895,45.0,1.0,15.0,0.0,0.0
1896,66.0,13.0,15.0,0.0,0.0
1897,63.0,7.0,30.0,0.0,0.0
1898,75.0,0.0,30.0,0.0,0.0
1899,48.0,0.0,15.0,0.0,0.0
1900,69.0,1.0,15.0,0.0,0.0
1901,67.0,0.0,20.0,0.0,0.0
1902,70.0,0.0,20.0,0.0,0.0
1903,49.0,1.0,15.0,0.0,0.0
1904,55.0,7.0,15.0,0.0,0.0
1905,58.0,1.0,15.0,0.0,0.0
1906,63.0,0.0,15.0,0.0,0.0
1907,67.0,14.0,15.0,0.0,0.0
1908,70.0,0.0,15.0,0.0,0.0
1909,75.0,0.0,15.0,0.0,0.0
1910,61.0,0.0,15.0,0.0,0.0
1911,63.0,0.0,20.0,0.0,0.0
1912,67.0,7.0,20.0,0.0,0.0
1913,75.0,0.0,20.0,0.0,0.0
1914,47.0,1.0,15.0,0.0,0.0
1915,51.0,7.0,15.0,0.0,0.0
1916,55.0,1.0,15.0,0.0,0.0
1917,67.0,0.0,15.0,0.0,0.0
1918,59.0,14.0,15.0,0.0,0.0
1919,63.0,0.0,30.0,0.0,0.0
1920,75.0,0.0,30.0,0.0,0.0
1921,48.0,1.0,15.0,0.0,0.0
1922,68.0,7.0,20.0,0.0,0.0
1923,51.0,7.0,15.0,0.0,0.0
1924,56.0,1.0,15.0,0.0,0.0
1925,68.0,0.0,15.0,0.0,0.0
1926,75.0,0.0,15.0,0.0,0.0
1927,60.0,14.0,15.0,0.0,0.0
1928,63.0,0.0,15.0,0.0,0.0
1929,75.0,0.0,20.0,0.0,0.0
1930,84.0,0.0,20.0,0.0,0.0
1931,44.0,1.0,15.0,0.0,0.0
1932,72.0,7.0,20.0,0.0,0.0
1933,48.0,7.0,15.0,0.0,0.0
1934,51.0,1.0,15.0,0.0,0.0
1935,72.0,0.0,30.0,0.0,0.0
1936,75.0,0.0,30.0,0.0,0.0
1937,84.0,7.0,30.0,0.0,0.0
1938,56.0,14.0,15.0,0.0,0.0
1939,32.0,1.0,15.0,0.0,0.0
1940,36.0,7.0,15.0,0.0,0.0
1941,39.0,1.0,15.0,0.0,0.0
1942,44.0,0.0,15.0,0.0,0.0
1943,80.0,0.0,15.0,0.0,0.0
1944,72.0,14.0,15.0,0.0,0.0
1945,68.0,0.0,15.0,0.0,0.0
1946,80.0,1.0,15.0,0.0,0.0
1947,27.0,7.0,20.0,0.0,0.0
1948,39.0,0.0,20.0,0.0,0.0
1949,77.0,7.0,15.0,0.0,0.0
1950,74.0,1.0,15.0,0.0,0.0
1951,27.0,0.0,30.0,0.0,0.0
1952,71.0,14.0,15.0,0.0,0.0
1953,39.0,7.0,30.0,0.0,0.0
1954,68.0,1.0,15.0,0.0,0.0
1955,65.0,7.0,15.0,0.0,0.0
1956,61.0,1.0,15.0,0.0,0.0
1957,68.0,14.0,15.0,0.0,0.0
1958,27.0,0.0,15.0,0.0,0.0
1959,39.0,0.0,15.0,0.0,0.0
1960,59.0,0.0,15.0,0.0,0.0
1961,27.0,7.0,20.0,0.0,0.0
1962,39.0,0.0,20.0,0.0,0.0
1963,79.0,1.0,15.0,0.0,0.0
1964,75.0,7.0,15.0,0.0,0.0
1965,70.0,1.0,15.0,0.0,0.0
1966,67.0,14.0,15.0,0.0,0.0
1967,27.0,0.0,30.0,0.0,0.0
1968,39.0,7.0,30.0,0.0,0.0
1969,63.0,1.0,15.0,0.0,0.0
1970,58.0,7.0,15.0,0.0,0.0
1971,55.0,1.0,15.0,0.0,0.0
1972,37.0,0.0,15.0,0.0,0.0
1973,76.0,0.0,15.0,0.0,0.0
1974,79.0,0.0,15.0,0.0,0.0
1975,25.0,14.0,15.0,0.0,0.0
1976,70.0,0.0,15.0,0.0,0.0
1977,67.0,0.0,15.0,0.0,0.0
1978,70.0,7.0,20.0,0.0,0.0
1979,25.0,1.0,15.0,0.0,0.0
1980,79.0,0.0,20.0,0.0,0.0
1981,76.0,0.0,20.0,0.0,0.0
1982,67.0,0.0,20.0,0.0,0.0
1983,31.0,7.0,15.0,0.0,0.0
1984,34.0,1.0,15.0,0.0,0.0
1985,70.0,7.0,30.0,0.0,0.0
1986,75.0,0.0,30.0,0.0,0.0
1987,79.0,0.0,30.0,0.0,0.0
1988,37.0,14.0,15.0,0.0,0.0
1989,67.0,0.0,30.0,0.0,0.0
1990,43.0,1.0,15.0,0.0,0.0
1991,46.0,7.0,15.0,0.0,0.0
1992,48.0,1.0,15.0,0.0,0.0
1993,70.0,0.0,15.0,0.0,0.0
1994,75.0,0.0,15.0,0.0,0.0
1995,79.0,0.0,15.0,0.0,0.0
1996,49.0,0.0,15.0,0.0,0.0
1997,67.0,14.0,15.0,0.0,0.0
1998,80.0,0.0,15.0,0.0,0.0
1999,36.0,0.0,15.0,0.0,0.0
2000,48.0,1.0,15.0,0.0,0.0
2001,75.0,14.0,15.0,0.0,0.0
2002,72.0,1.0,15.0,0.0,0.0
2003,68.0,14.0,15.0,0.0,0.0
2004,63.0,1.0,15.0,0.0,0.0
2005,60.0,14.0,15.0,0.0,0.0
2006,72.0,1.0,15.0,0.0,0.0
2007,63.0,0.0,15.0,0.0,0.0
2008,68.0,0.0,15.0,0.0,0.0
2009,60.0,14.0,15.0,0.0,0.0
2010,72.0,1.0,15.0,0.0,0.0
2011,56.0,0.0,15.0,0.0,0.0
2012,68.0,0.0,15.0,0.0,0.0
2013,51.0,14.0,15.0,0.0,0.0
2014,75.0,0.0,15.0,0.0,0.0
2015,48.0,1.0,15.0,0.0,0.0
2016,72.0,14.0,15.0,0.0,0.0
2017,44.0,0.0,15.0,0.0,0.0
2018,68.0,1.0,15.0,0.0,0.0
2019,60.0,0.0,15.0,0.0,0.0
2020,63.0,14.0,15.0,0.0,0.0
2021,56.0,0.0,15.0,0.0,0.0
2022,72.0,1.0,15.0,0.0,0.0
2023,51.0,0.0,15.0,0.0,0.0
2024,68.0,0.0,15.0,0.0,0.0
2025,48.0,14.0,15.0,0.0,0.0
2026,75.0,1.0,15.0,0.0,0.0
2027,60.0,0.0,15.0,0.0,0.0
2028,72.0,0.0,15.0,0.0,0.0
2029,56.0,14.0,15.0,0.0,0.0
2030,80.0,1.0,15.0,0.0,0.0
2031,51.0,0.0,15.0,0.0,0.0
2032,48.0,14.0,15.0,0.0,0.0
2033,75.0,0.0,15.0,0.0,0.0
2034,72.0,1.0,15.0,0.0,0.0
2035,56.0,0.0,15.0,0.0,0.0
2036,68.0,0.0,15.0,0.0,0.0
2037,51.0,14.0,15.0,0.0,0.0
2038,75.0,0.0,15.0,0.0,0.0
2039,48.0,1.0,15.0,0.0,0.0
2040,72.0,0.0,15.0,0.0,0.0
2041,44.0,14.0,15.0,0.0,0.0
2042,53.0,1.0,15.0,0.0,0.0
2043,51.0,14.0,15.0,0.0,0.0
2044,75.0,1.0,15.0,0.0,0.0
2045,48.0,0.0,15.0,0.0,0.0
2046,72.0,14.0,15.0,0.0,0.0
2047,45.0,0.0,15.0,0.0,0.0
2048,41.0,0.0,15.0,0.0,0.0
2049,69.0,1.0,15.0,0.0,0.0
2050,51.0,14.0,15.0,0.0,0.0
2051,72.0,0.0,15.0,0.0,0.0
2052,75.0,1.0,15.0,0.0,0.0
2053,48.0,0.0,15.0,0.0,0.0
2054,72.0,0.0,15.0,0.0,0.0
2055,45.0,14.0,15.0,0.0,0.0
2056,73.0,1.0,15.0,0.0,0.0
2057,53.0,0.0,15.0,0.0,0.0
2058,70.0,0.0,15.0,0.0,0.0
2059,49.0,14.0,15.0,0.0,0.0
2060,46.0,0.0,15.0,0.0,0.0
2061,73.0,1.0,15.0,0.0,0.0
2062,65.0,0.0,15.0,0.0,0.0
2063,49.0,14.0,15.0,0.0,0.0
2064,73.0,1.0,15.0,0.0,0.0
2065,46.0,0.0,15.0,0.0,0.0
2066,61.0,0.0,15.0,0.0,0.0
2067,58.0,14.0,15.0,0.0,0.0
2068,65.0,0.0,15.0,0.0,0.0
2069,61.0,1.0,15.0,0.0,0.0
2070,58.0,14.0,15.0,0.0,0.0
2071,65.0,1.0,15.0,0.0,0.0
2072,58.0,14.0,15.0,0.0,0.0
2073,61.0,0.0,15.0,0.0,0.0
2074,53.0,0.0,15.0,0.0,0.0
2075,73.0,1.0,15.0,0.0,0.0
2076,49.0,14.0,15.0,0.0,0.0
2077,70.0,0.0,15.0,0.0,0.0
2078,69.0,1.0,15.0,0.0,0.0
2079,61.0,0.0,15.0,0.0,0.0
2080,77.0,0.0,15.0,0.0,0.0
2081,58.0,14.0,15.0,0.0,0.0
2082,73.0,1.0,15.0,0.0,0.0
2083,53.0,0.0,15.0,0.0,0.0
2084,49.0,14.0,15.0,0.0,0.0
2085,70.0,0.0,15.0,0.0,0.0
2086,68.0,1.0,15.0,0.0,0.0
2087,51.0,0.0,15.0,0.0,0.0
2088,67.0,0.0,15.0,0.0,0.0
2089,61.0,14.0,15.0,0.0,0.0
2090,73.0,1.0,15.0,0.0,0.0
2091,58.0,0.0,15.0,0.0,0.0
2092,70.0,0.0,15.0,0.0,0.0
2093,55.0,14.0,15.0,0.0,0.0
2094,51.0,0.0,15.0,0.0,0.0
2095,79.0,1.0,15.0,0.0,0.0
2096,73.0,0.0,15.0,0.0,0.0
2097,55.0,14.0,15.0,0.0,0.0
2098,70.0,1.0,15.0,0.0,0.0
2099,58.0,0.0,15.0,0.0,0.0
2100,67.0,14.0,15.0,0.0,0.0
2101,61.0,0.0,15.0,0.0,0.0
2102,70.0,0.0,15.0,0.0,0.0
2103,52.0,1.0,15.0,0.0,0.0
2104,68.0,0.0,15.0,0.0,0.0
2105,64.0,14.0,15.0,0.0,0.0
2106,76.0,1.0,15.0,0.0,0.0
2107,61.0,0.0,15.0,0.0,0.0
2108,73.0,0.0,15.0,0.0,0.0
2109,56.0,14.0,15.0,0.0,0.0
2110,80.0,0.0,15.0,0.0,0.0
2111,53.0,1.0,15.0,0.0,0.0
2112,77.0,0.0,15.0,0.0,0.0
2113,56.0,14.0,15.0,0.0,0.0
2114,73.0,0.0,15.0,0.0,0.0
2115,61.0,1.0,15.0,0.0,0.0
2116,68.0,0.0,15.0,0.0,0.0
2117,65.0,14.0,15.0,0.0,0.0
2118,71.0,0.0,15.0,0.0,0.0
2119,54.0,1.0,15.0,0.0,0.0
2120,70.0,14.0,15.0,0.0,0.0
2121,66.0,0.0,15.0,0.0,0.0
2122,54.0,0.0,15.0,0.0,0.0
2123,82.0,1.0,15.0,0.0,0.0
2124,70.0,0.0,15.0,0.0,0.0
2125,66.0,14.0,15.0,0.0,0.0
2126,82.0,1.0,15.0,0.0,0.0
2127,54.0,0.0,15.0,0.0,0.0
2128,70.0,0.0,15.0,0.0,0.0
2129,66.0,14.0,15.0,0.0,0.0
2130,82.0,1.0,15.0,0.0,0.0
2131,55.0,0.0,15.0,0.0,0.0
2132,67.0,14.0,15.0,0.0,0.0
2133,70.0,0.0,15.0,0.0,0.0
2134,75.0,0.0,15.0,0.0,0.0
2135,70.0,1.0,15.0,0.0,0.0
2136,75.0,7.0,20.0,0.0,0.0
2137,55.0,0.0,15.0,0.0,0.0
2138,72.0,7.0,15.0,0.0,0.0
2139,56.0,0.0,15.0,0.0,0.0
2140,58.0,1.0,15.0,0.0,0.0
2141,70.0,0.0,15.0,0.0,0.0
2142,73.0,0.0,15.0,0.0,0.0
2143,75.0,7.0,30.0,0.0,0.0
2144,55.0,14.0,15.0,0.0,0.0
2145,67.0,0.0,15.0,0.0,0.0
2146,58.0,1.0,15.0,0.0,0.0
2147,68.0,7.0,15.0,0.0,0.0
2148,60.0,0.0,15.0,0.0,0.0
2149,70.0,1.0,15.0,0.0,0.0
2150,61.0,0.0,15.0,0.0,0.0
2151,68.0,14.0,15.0,0.0,0.0
2152,75.0,7.0,30.0,0.0,0.0
2153,60.0,0.0,15.0,0.0,0.0
2154,67.0,0.0,15.0,0.0,0.0
2155,70.0,1.0,15.0,0.0,0.0
2156,72.0,0.0,15.0,0.0,0.0
2157,68.0,7.0,15.0,0.0,0.0
2158,70.0,0.0,15.0,0.0,0.0
2159,73.0,1.0,15.0,0.0,0.0
2160,72.0,0.0,15.0,0.0,0.0
2161,75.0,0.0,15.0,0.0,0.0
2162,68.0,14.0,15.0,0.0,0.0
2163,73.0,1.0,15.0,0.0,0.0
2164,70.0,0.0,15.0,0.0,0.0
2165,75.0,14.0,15.0,0.0,0.0
2166,72.0,0.0,15.0,0.0,0.0
2167,77.0,1.0,15.0,0.0,0.0
2168,73.0,0.0,15.0,0.0,0.0
2169,79.0,0.0,15.0,0.0,0.0
2170,70.0,14.0,15.0,0.0,0.0
2171,80.0,1.0,15.0,0.0,0.0
2172,75.0,14.0,15.0,0.0,0.0
2173,72.0,1.0,15.0,0.0,0.0
2174,68.0,14.0,15.0,0.0,0.0
2175,63.0,1.0,15.0,0.0,0.0
2176,60.0,14.0,15.0,0.0,0.0
2177,56.0,1.0,15.0,0.0,0.0
2178,51.0,14.0,15.0,0.0,0.0
2179,60.0,7.0,20.0,0.0,0.0
2180,63.0,0.0,20.0,0.0,0.0
2181,32.0,1.0,15.0,0.0,0.0
2182,36.0,7.0,15.0,0.0,0.0
2183,39.0,1.0,15.0,0.0,0.0
2184,60.0,7.0,30.0,0.0,0.0
2185,63.0,0.0,30.0,0.0,0.0
2186,44.0,14.0,15.0,0.0,0.0
2187,48.0,1.0,15.0,0.0,0.0
2188,51.0,7.0,15.0,0.0,0.0
2189,55.0,1.0,15.0,0.0,0.0
2190,60.0,14.0,15.0,0.0,0.0
2191,63.0,0.0,15.0,0.0,0.0
2192,56.0,0.0,15.0,0.0,0.0
2193,61.0,7.0,20.0,0.0,0.0
2194,63.0,0.0,20.0,0.0,0.0
2195,34.0,1.0,15.0,0.0,0.0
2196,39.0,7.0,15.0,0.0,0.0
2197,43.0,1.0,15.0,0.0,0.0
2198,46.0,14.0,15.0,0.0,0.0
2199,61.0,7.0,30.0,0.0,0.0
2200,63.0,0.0,30.0,0.0,0.0
2201,51.0,1.0,15.0,0.0,0.0
2202,55.0,7.0,15.0,0.0,0.0
2203,57.0,1.0,15.0,0.0,0.0
2204,61.0,0.0,15.0,0.0,0.0
2205,63.0,14.0,15.0,0.0,0.0
2206,58.0,0.0,15.0,0.0,0.0
2207,85.0,1.0,15.0,0.0,0.0
2208,82.0,14.0,15.0,0.0,0.0
2209,79.0,1.0,15.0,0.0,0.0
2210,75.0,14.0,15.0,0.0,0.0
2211,73.0,1.0,15.0,0.0,0.0
2212,70.0,14.0,15.0,0.0,0.0
2213,67.0,1.0,15.0,0.0,0.0
2214,63.0,14.0,15.0,0.0,0.0
2215,61.0,7.0,20.0,0.0,0.0
2216,63.0,0.0,20.0,0.0,0.0
2217,34.0,1.0,15.0,0.0,0.0
2218,39.0,7.0,15.0,0.0,0.0
2219,43.0,1.0,15.0,0.0,0.0
2220,61.0,0.0,30.0,0.0,0.0
2221,63.0,7.0,30.0,0.0,0.0
2222,46.0,14.0,15.0,0.0,0.0
2223,51.0,1.0,15.0,0.0,0.0
2224,55.0,7.0,15.0,0.0,0.0
2225,57.0,1.0,15.0,0.0,0.0
2226,63.0,0.0,15.0,0.0,0.0
2227,58.0,14.0,15.0,0.0,0.0
2228,61.0,0.0,15.0,0.0,0.0
2229,36.0,1.0,15.0,0.0,0.0
2230,63.0,7.0,20.0,0.0,0.0
2231,39.0,7.0,15.0,0.0,0.0
2232,44.0,1.0,15.0,0.0,0.0
2233,63.0,7.0,30.0,0.0,0.0
2234,48.0,14.0,15.0,0.0,0.0
2235,51.0,1.0,15.0,0.0,0.0
2236,56.0,7.0,15.0,0.0,0.0
2237,58.0,1.0,15.0,0.0,0.0
2238,60.0,0.0,15.0,0.0,0.0
2239,63.0,14.0,15.0,0.0,0.0
2240,87.0,1.0,15.0,0.0,0.0
2241,84.0,14.0,15.0,0.0,0.0
2242,80.0,1.0,15.0,0.0,0.0
2243,75.0,14.0,15.0,0.0,0.0
2244,72.0,1.0,15.0,0.0,0.0
2245,68.0,14.0,15.0,0.0,0.0
2246,67.0,1.0,15.0,0.0,0.0
2247,75.0,14.0,15.0,0.0,0.0
2248,75.0,7.0,20.0,0.0,0.0
2249,36.0,1.0,15.0,0.0,0.0
2250,66.0,0.0,20.0,0.0,0.0
2251,63.0,0.0,20.0,0.0,0.0
2252,69.0,0.0,20.0,0.0,0.0
2253,42.0,7.0,15.0,0.0,0.0
2254,45.0,1.0,15.0,0.0,0.0
2255,63.0,0.0,30.0,0.0,0.0
2256,69.0,0.0,15.0,0.0,0.0
2257,75.0,0.0,30.0,0.0,0.0
2258,48.0,1.0,15.0,0.0,0.0
2259,66.0,13.0,15.0,0.0,0.0
2260,70.0,0.0,20.0,0.0,0.0
2261,49.0,1.0,15.0,0.0,0.0
2262,67.0,7.0,20.0,0.0,0.0
2263,55.0,7.0,15.0,0.0,0.0
2264,58.0,1.0,15.0,0.0,0.0
2265,63.0,0.0,15.0,0.0,0.0
2266,75.0,14.0,15.0,0.0,0.0
2267,61.0,0.0,15.0,0.0,0.0
2268,67.0,0.0,15.0,0.0,0.0
2269,70.0,0.0,15.0,0.0,0.0
2270,63.0,0.0,20.0,0.0,0.0
2271,67.0,7.0,20.0,0.0,0.0
2272,75.0,0.0,20.0,0.0,0.0
2273,47.0,1.0,15.0,0.0,0.0
2274,51.0,7.0,15.0,0.0,0.0
2275,55.0,1.0,15.0,0.0,0.0
2276,75.0,0.0,30.0,0.0,0.0
2277,67.0,0.0,15.0,0.0,0.0
2278,59.0,14.0,15.0,0.0,0.0
2279,63.0,7.0,30.0,0.0,0.0
2280,48.0,1.0,15.0,0.0,0.0
2281,68.0,0.0,20.0,0.0,0.0
2282,51.0,7.0,15.0,0.0,0.0
2283,56.0,1.0,15.0,0.0,0.0
2284,68.0,0.0,15.0,0.0,0.0
2285,75.0,0.0,15.0,0.0,0.0
2286,60.0,14.0,15.0,0.0,0.0
2287,63.0,0.0,15.0,0.0,0.0
2288,72.0,0.0,20.0,0.0,0.0
2289,75.0,7.0,20.0,0.0,0.0
2290,84.0,0.0,20.0,0.0,0.0
2291,44.0,1.0,15.0,0.0,0.0
2292,48.0,7.0,15.0,0.0,0.0
2293,51.0,1.0,15.0,0.0,0.0
2294,56.0,14.0,15.0,0.0,0.0
2295,72.0,0.0,30.0,0.0,0.0
2296,75.0,7.0,30.0,0.0,0.0
2297,84.0,0.0,30.0,0.0,0.0
2298,32.0,1.0,15.0,0.0,0.0
2299,36.0,7.0,15.0,0.0,0.0
2300,39.0,1.0,15.0,0.0,0.0
2301,68.0,0.0,15.0,0.0,0.0
2302,72.0,14.0,15.0,0.0,0.0
2303,44.0,0.0,15.0,0.0,0.0
2304,80.0,0.0,15.0,0.0,0.0
2305,39.0,7.0,20.0,0.0,0.0
2306,27.0,0.0,20.0,0.0,0.0
2307,80.0,1.0,15.0,0.0,0.0
2308,77.0,7.0,15.0,0.0,0.0
2309,74.0,1.0,15.0,0.0,0.0
2310,39.0,7.0,30.0,0.0,0.0
2311,27.0,0.0,30.0,0.0,0.0
2312,71.0,14.0,15.0,0.0,0.0
2313,68.0,1.0,15.0,0.0,0.0
2314,65.0,7.0,15.0,0.0,0.0
2315,61.0,1.0,15.0,0.0,0.0
2316,59.0,0.0,15.0,0.0,0.0
2317,68.0,0.0,15.0,0.0,0.0
2318,27.0,0.0,15.0,0.0,0.0
2319,39.0,14.0,15.0,0.0,0.0
2320,39.0,0.0,20.0,0.0,0.0
2321,79.0,1.0,15.0,0.0,0.0
2322,27.0,7.0,20.0,0.0,0.0
2323,75.0,7.0,15.0,0.0,0.0
2324,70.0,1.0,15.0,0.0,0.0
2325,27.0,0.0,30.0,0.0,0.0
2326,39.0,7.0,30.0,0.0,0.0
2327,67.0,14.0,15.0,0.0,0.0
2328,63.0,1.0,15.0,0.0,0.0
2329,58.0,7.0,15.0,0.0,0.0
2330,55.0,1.0,15.0,0.0,0.0
2331,67.0,0.0,15.0,0.0,0.0
2332,76.0,0.0,15.0,0.0,0.0
2333,79.0,0.0,15.0,0.0,0.0
2334,25.0,0.0,15.0,0.0,0.0
2335,37.0,0.0,15.0,0.0,0.0
2336,70.0,14.0,15.0,0.0,0.0
2337,70.0,0.0,20.0,0.0,0.0
2338,67.0,0.0,20.0,0.0,0.0
2339,76.0,0.0,20.0,0.0,0.0
2340,79.0,7.0,20.0,0.0,0.0
2341,25.0,1.0,15.0,0.0,0.0
2342,31.0,7.0,15.0,0.0,0.0
2343,34.0,1.0,15.0,0.0,0.0
2344,67.0,0.0,30.0,0.0,0.0
2345,70.0,7.0,30.0,0.0,0.0
2346,75.0,0.0,30.0,0.0,0.0
2347,79.0,0.0,30.0,0.0,0.0
2348,37.0,14.0,15.0,0.0,0.0
2349,43.0,1.0,15.0,0.0,0.0
2350,46.0,7.0,15.0,0.0,0.0
2351,48.0,1.0,15.0,0.0,0.0
2352,70.0,0.0,15.0,0.0,0.0
2353,75.0,0.0,15.0,0.0,0.0
2354,79.0,14.0,15.0,0.0,0.0
2355,49.0,0.0,15.0,0.0,0.0
2356,67.0,0.0,15.0,0.0,0.0
2357,80.0,1.0,15.0,0.0,0.0
2358,36.0,0.0,15.0,0.0,0.0
2359,48.0,0.0,15.0,0.0,0.0
2360,75.0,14.0,15.0,0.0,0.0
2361,72.0,1.0,15.0,0.0,0.0
2362,68.0,14.0,15.0,0.0,0.0
2363,63.0,1.0,15.0,0.0,0.0
2364,60.0,14.0,15.0,0.0,0.0
2365,63.0,0.0,15.0,0.0,0.0
2366,72.0,1.0,15.0,0.0,0.0
2367,68.0,14.0,15.0,0.0,0.0
2368,60.0,0.0,15.0,0.0,0.0
2369,56.0,0.0,15.0,0.0,0.0
2370,72.0,1.0,15.0,0.0,0.0
2371,68.0,0.0,15.0,0.0,0.0
2372,51.0,14.0,15.0,0.0,0.0
2373,48.0,0.0,15.0,0.0,0.0
2374,75.0,1.0,15.0,0.0,0.0
2375,72.0,0.0,15.0,0.0,0.0
2376,44.0,14.0,15.0,0.0,0.0
2377,60.0,1.0,15.0,0.0,0.0
2378,68.0,0.0,15.0,0.0,0.0
2379,63.0,14.0,15.0,0.0,0.0
2380,56.0,0.0,15.0,0.0,0.0
2381,72.0,0.0,15.0,0.0,0.0
2382,51.0,1.0,15.0,0.0,0.0
2383,68.0,0.0,15.0,0.0,0.0
2384,48.0,14.0,15.0,0.0,0.0
2385,75.0,1.0,15.0,0.0,0.0
2386,60.0,0.0,15.0,0.0,0.0
2387,72.0,14.0,15.0,0.0,0.0
2388,56.0,0.0,15.0,0.0,0.0
2389,80.0,1.0,15.0,0.0,0.0
2390,51.0,0.0,15.0,0.0,0.0
2391,75.0,0.0,15.0,0.0,0.0
2392,48.0,14.0,15.0,0.0,0.0
2393,72.0,1.0,15.0,0.0,0.0
2394,56.0,0.0,15.0,0.0,0.0
2395,68.0,14.0,15.0,0.0,0.0
2396,51.0,0.0,15.0,0.0,0.0
2397,75.0,1.0,15.0,0.0,0.0
2398,48.0,0.0,15.0,0.0,0.0
2399,72.0,0.0,15.0,0.0,0.0
2400,44.0,14.0,15.0,0.0,0.0
2401,53.0,1.0,15.0,0.0,0.0
2402,51.0,14.0,15.0,0.0,0.0
2403,75.0,0.0,15.0,0.0,0.0
2404,48.0,1.0,15.0,0.0,0.0
2405,45.0,0.0,15.0,0.0,0.0
2406,72.0,14.0,15.0,0.0,0.0
2407,69.0,1.0,15.0,0.0,0.0
2408,41.0,0.0,15.0,0.0,0.0
2409,72.0,0.0,15.0,0.0,0.0
2410,51.0,14.0,15.0,0.0,0.0
2411,75.0,1.0,15.0,0.0,0.0
2412,48.0,0.0,15.0,0.0,0.0
2413,72.0,0.0,15.0,0.0,0.0
2414,45.0,14.0,15.0,0.0,0.0
2415,53.0,0.0,15.0,0.0,0.0
2416,73.0,1.0,15.0,0.0,0.0
2417,49.0,14.0,15.0,0.0,0.0
2418,70.0,0.0,15.0,0.0,0.0
2419,73.0,0.0,15.0,0.0,0.0
2420,46.0,1.0,15.0,0.0,0.0
2421,65.0,14.0,15.0,0.0,0.0
2422,49.0,0.0,15.0,0.0,0.0
2423,73.0,1.0,15.0,0.0,0.0
2424,46.0,0.0,15.0,0.0,0.0
2425,61.0,0.0,15.0,0.0,0.0
2426,58.0,14.0,15.0,0.0,0.0
2427,65.0,1.0,15.0,0.0,0.0
2428,58.0,14.0,15.0,0.0,0.0
2429,61.0,0.0,15.0,0.0,0.0
2430,65.0,1.0,15.0,0.0,0.0
2431,61.0,0.0,15.0,0.0,0.0
2432,58.0,14.0,15.0,0.0,0.0
2433,73.0,1.0,15.0,0.0,0.0
2434,53.0,0.0,15.0,0.0,0.0
2435,70.0,14.0,15.0,0.0,0.0
2436,49.0,0.0,15.0,0.0,0.0
2437,61.0,0.0,15.0,0.0,0.0
2438,69.0,1.0,15.0,0.0,0.0
2439,58.0,14.0,15.0,0.0,0.0
2440,77.0,0.0,15.0,0.0,0.0
2441,73.0,1.0,15.0,0.0,0.0
2442,53.0,0.0,15.0,0.0,0.0
2443,70.0,14.0,15.0,0.0,0.0
2444,49.0,0.0,15.0,0.0,0.0
2445,51.0,0.0,15.0,0.0,0.0
2446,68.0,1.0,15.0,0.0,0.0
2447,67.0,0.0,15.0,0.0,0.0
2448,61.0,14.0,15.0,0.0,0.0
2449,73.0,1.0,15.0,0.0,0.0
2450,58.0,0.0,15.0,0.0,0.0
2451,70.0,0.0,15.0,0.0,0.0
2452,55.0,14.0,15.0,0.0,0.0
2453,79.0,1.0,15.0,0.0,0.0
2454,51.0,0.0,15.0,0.0,0.0
2455,73.0,14.0,15.0,0.0,0.0
2456,55.0,0.0,15.0,0.0,0.0
2457,58.0,1.0,15.0,0.0,0.0
2458,70.0,0.0,15.0,0.0,0.0
2459,61.0,14.0,15.0,0.0,0.0
2460,67.0,0.0,15.0,0.0,0.0
2461,52.0,0.0,15.0,0.0,0.0
2462,70.0,1.0,15.0,0.0,0.0
2463,64.0,14.0,15.0,0.0,0.0
2464,68.0,0.0,15.0,0.0,0.0
2465,76.0,0.0,15.0,0.0,0.0
2466,61.0,1.0,15.0,0.0,0.0
2467,73.0,0.0,15.0,0.0,0.0
2468,56.0,14.0,15.0,0.0,0.0
2469,53.0,0.0,15.0,0.0,0.0
2470,80.0,1.0,15.0,0.0,0.0
2471,77.0,0.0,15.0,0.0,0.0
2472,56.0,14.0,15.0,0.0,0.0
2473,73.0,0.0,15.0,0.0,0.0
2474,61.0,1.0,15.0,0.0,0.0
2475,65.0,14.0,15.0,0.0,0.0
2476,68.0,0.0,15.0,0.0,0.0
2477,71.0,1.0,15.0,0.0,0.0
2478,54.0,0.0,15.0,0.0,0.0
2479,70.0,0.0,15.0,0.0,0.0
2480,66.0,14.0,15.0,0.0,0.0
2481,82.0,1.0,15.0,0.0,0.0
2482,54.0,0.0,15.0,0.0,0.0
2483,70.0,14.0,15.0,0.0,0.0
2484,66.0,0.0,15.0,0.0,0.0
2485,82.0,1.0,15.0,0.0,0.0
2486,54.0,0.0,15.0,0.0,0.0
2487,70.0,14.0,15.0,0.0,0.0
2488,66.0,0.0,15.0,0.0,0.0
2489,82.0,0.0,15.0,0.0,0.0
2490,55.0,1.0,15.0,0.0,0.0
2491,70.0,15.0,15.0,0.0,0.0
2492,75.0,0.0,15.0,0.0,0.0
2493,67.0,0.0,15.0,0.0,0.0
2494,68.0,7.0,20.0,0.0,0.0
2495,29.0,7.0,15.0,0.0,0.0
2496,60.0,0.0,20.0,0.0,0.0
2497,32.0,0.0,15.0,0.0,0.0
2498,36.0,1.0,15.0,0.0,0.0
2499,60.0,7.0,30.0,0.0,0.0
2500,68.0,0.0,30.0,0.0,0.0
2501,40.0,14.0,15.0,0.0,0.0
2502,41.0,1.0,15.0,0.0,0.0
2503,44.0,7.0,15.0,0.0,0.0
2504,48.0,1.0,15.0,0.0,0.0
2505,60.0,0.0,15.0,0.0,0.0
2506,68.0,14.0,15.0,0.0,0.0
2507,52.0,0.0,15.0,0.0,0.0
2508,80.0,1.0,15.0,0.0,0.0
2509,53.0,7.0,20.0,0.0,0.0
2510,76.0,7.0,15.0,0.0,0.0
2511,77.0,1.0,15.0,0.0,0.0
2512,60.0,0.0,30.0,0.0,0.0
2513,56.0,0.0,30.0,0.0,0.0
2514,53.0,7.0,30.0,0.0,0.0
2515,72.0,14.0,15.0,0.0,0.0
2516,70.0,1.0,15.0,0.0,0.0
2517,68.0,7.0,15.0,0.0,0.0
2518,72.0,1.0,15.0,0.0,0.0
2519,60.0,0.0,30.0,0.0,0.0
2520,68.0,14.0,15.0,0.0,0.0
2521,53.0,7.0,30.0,0.0,0.0
2522,56.0,0.0,30.0,0.0,0.0
2523,67.0,1.0,15.0,0.0,0.0
2524,65.0,7.0,15.0,0.0,0.0
2525,68.0,1.0,15.0,0.0,0.0
2526,60.0,0.0,30.0,0.0,0.0
2527,65.0,14.0,15.0,0.0,0.0
2528,53.0,7.0,30.0,0.0,0.0
2529,56.0,0.0,30.0,0.0,0.0
2530,67.0,1.0,15.0,0.0,0.0
2531,65.0,7.0,15.0,0.0,0.0
2532,68.0,1.0,15.0,0.0,0.0
2533,58.0,0.0,15.0,0.0,0.0
2534,61.0,0.0,15.0,0.0,0.0
2535,29.0,14.0,15.0,0.0,0.0
2536,41.0,0.0,15.0,0.0,0.0
2537,67.0,0.0,15.0,0.0,0.0
2538,58.0,0.0,20.0,0.0,0.0
2539,60.0,0.0,20.0,0.0,0.0
2540,67.0,7.0,20.0,0.0,0.0
2541,28.0,1.0,15.0,0.0,0.0
2542,31.0,7.0,15.0,0.0,0.0
2543,32.0,1.0,15.0,0.0,0.0
2544,40.0,14.0,15.0,0.0,0.0
2545,58.0,0.0,30.0,0.0,0.0
2546,60.0,7.0,30.0,0.0,0.0
2547,67.0,0.0,30.0,0.0,0.0
2548,43.0,1.0,15.0,0.0,0.0
2549,48.0,7.0,15.0,0.0,0.0
2550,52.0,1.0,15.0,0.0,0.0
2551,60.0,0.0,15.0,0.0,0.0
2552,67.0,0.0,15.0,0.0,0.0
2553,53.0,0.0,15.0,0.0,0.0
2554,58.0,14.0,15.0,0.0,0.0
2555,60.0,0.0,20.0,0.0,0.0
2556,55.0,0.0,20.0,0.0,0.0
2557,52.0,7.0,20.0,0.0,0.0
2558,80.0,1.0,15.0,0.0,0.0
2559,79.0,7.0,15.0,0.0,0.0
2560,84.0,1.0,15.0,0.0,0.0
2561,52.0,0.0,30.0,0.0,0.0
2562,55.0,7.0,30.0,0.0,0.0
2563,60.0,0.0,30.0,0.0,0.0
2564,79.0,14.0,15.0,0.0,0.0
2565,77.0,1.0,15.0,0.0,0.0
2566,76.0,7.0,15.0,0.0,0.0
2567,79.0,1.0,15.0,0.0,0.0
2568,72.0,14.0,15.0,0.0,0.0
2569,52.0,0.0,30.0,0.0,0.0
2570,55.0,0.0,30.0,0.0,0.0
2571,60.0,7.0,30.0,0.0,0.0
2572,79.0,1.0,15.0,0.0,0.0
2573,72.0,7.0,15.0,0.0,0.0
2574,73.0,1.0,15.0,0.0,0.0
2575,70.0,14.0,15.0,0.0,0.0
2576,52.0,0.0,30.0,0.0,0.0
2577,55.0,0.0,30.0,0.0,0.0
2578,60.0,7.0,30.0,0.0,0.0
2579,68.0,1.0,15.0,0.0,0.0
2580,67.0,7.0,15.0,0.0,0.0
2581,72.0,1.0,15.0,0.0,0.0
2582,67.0,0.0,15.0,0.0,0.0
2583,52.0,14.0,15.0,0.0,0.0
2584,55.0,0.0,15.0,0.0,0.0
2585,60.0,0.0,15.0,0.0,0.0
2586,68.0,1.0,15.0,0.0,0.0
2587,40.0,1.0,30.0,0.0,0.0
2588,67.0,14.0,15.0,0.0,0.0
2589,72.0,0.0,15.0,0.0,0.0
2590,52.0,0.0,15.0,0.0,0.0
2591,67.0,14.0,15.0,0.0,0.0
2592,70.0,1.0,15.0,0.0,0.0
2593,41.0,1.0,30.0,0.0,0.0
2594,68.0,14.0,15.0,0.0,0.0
2595,72.0,0.0,15.0,0.0,0.0
2596,53.0,14.0,15.0,0.0,0.0
2597,68.0,0.0,15.0,0.0,0.0
2598,72.0,1.0,15.0,0.0,0.0
2599,43.0,1.0,30.0,0.0,0.0
2600,70.0,14.0,15.0,0.0,0.0
2601,76.0,0.0,15.0,0.0,0.0
2602,70.0,0.0,15.0,0.0,0.0
2603,55.0,14.0,15.0,0.0,0.0
2604,73.0,1.0,15.0,0.0,0.0
2605,44.0,1.0,30.0,0.0,0.0
2606,72.0,14.0,15.0,0.0,0.0
2607,77.0,0.0,15.0,0.0,0.0
2608,56.0,14.0,15.0,0.0,0.0
2609,72.0,0.0,15.0,0.0,0.0
2610,77.0,1.0,15.0,0.0,0.0
2611,46.0,1.0,30.0,0.0,0.0
2612,73.0,14.0,15.0,0.0,0.0
2613,77.0,0.0,15.0,0.0,0.0
2614,58.0,14.0,15.0,0.0,0.0
2615,67.0,0.0,15.0,0.0,0.0
2616,47.0,1.0,30.0,0.0,0.0
2617,77.0,1.0,15.0,0.0,0.0
2618,74.0,14.0,15.0,0.0,0.0
2619,77.0,0.0,15.0,0.0,0.0
2620,68.0,0.0,20.0,0.0,0.0
2621,59.0,14.0,15.0,0.0,0.0
2622,60.0,1.0,30.0,0.0,0.0
2623,77.0,1.0,15.0,0.0,0.0
2624,67.0,14.0,15.0,0.0,0.0
2625,77.0,1.0,15.0,0.0,0.0
2626,76.0,14.0,15.0,0.0,0.0
2627,79.0,0.0,30.0,0.0,0.0
2628,70.0,1.0,30.0,0.0,0.0
2629,48.0,14.0,15.0,0.0,0.0
2630,49.0,1.0,15.0,0.0,0.0
2631,48.0,14.0,15.0,0.0,0.0
2632,53.0,1.0,30.0,0.0,0.0
2633,68.0,14.0,15.0,0.0,0.0
2634,79.0,1.0,15.0,0.0,0.0
2635,77.0,14.0,15.0,0.0,0.0
2636,80.0,0.0,30.0,0.0,0.0
2637,72.0,1.0,30.0,0.0,0.0
2638,39.0,14.0,15.0,0.0,0.0
2639,43.0,1.0,15.0,0.0,0.0
2640,41.0,14.0,15.0,0.0,0.0
2641,39.0,1.0,30.0,0.0,0.0
2642,70.0,14.0,15.0,0.0,0.0
2643,80.0,1.0,15.0,0.0,0.0
2644,79.0,14.0,15.0,0.0,0.0
2645,27.0,14.0,15.0,0.0,0.0
2646,28.0,0.0,15.0,0.0,0.0
2647,73.0,0.0,15.0,0.0,0.0
2648,82.0,1.0,15.0,0.0,0.0
2649,27.0,7.0,20.0,0.0,0.0
2650,79.0,0.0,20.0,0.0,0.0
2651,73.0,0.0,20.0,0.0,0.0
2652,75.0,7.0,20.0,0.0,0.0
2653,82.0,0.0,20.0,0.0,0.0
2654,31.0,0.0,15.0,0.0,0.0
2655,34.0,1.0,15.0,0.0,0.0
2656,39.0,14.0,15.0,0.0,0.0
2657,82.0,7.0,30.0,0.0,0.0
2658,75.0,0.0,30.0,0.0,0.0
2659,73.0,0.0,30.0,0.0,0.0
2660,79.0,0.0,30.0,0.0,0.0
2661,43.0,1.0,15.0,0.0,0.0
2662,46.0,7.0,15.0,0.0,0.0
2663,50.0,1.0,15.0,0.0,0.0
2664,73.0,0.0,20.0,0.0,0.0
2665,75.0,1.0,20.0,0.0,0.0
2666,51.0,14.0,15.0,0.0,0.0
2667,82.0,0.0,20.0,0.0,0.0
2668,49.0,0.0,20.0,0.0,0.0
2669,39.0,0.0,20.0,0.0,0.0
2670,43.0,0.0,20.0,0.0,0.0
2671,46.0,7.0,20.0,0.0,0.0
2672,79.0,0.0,15.0,0.0,0.0
2673,85.0,1.0,15.0,0.0,0.0
2674,39.0,0.0,30.0,0.0,0.0
2675,43.0,0.0,30.0,0.0,0.0
2676,46.0,0.0,30.0,0.0,0.0
2677,49.0,7.0,30.0,0.0,0.0
2678,82.0,14.0,15.0,0.0,0.0
2679,80.0,1.0,15.0,0.0,0.0
2680,79.0,7.0,15.0,0.0,0.0
2681,82.0,1.0,15.0,0.0,0.0
2682,49.0,7.0,30.0,0.0,0.0
2683,46.0,0.0,30.0,0.0,0.0
2684,79.0,14.0,15.0,0.0,0.0
2685,39.0,0.0,30.0,0.0,0.0
2686,43.0,0.0,30.0,0.0,0.0
2687,75.0,1.0,15.0,0.0,0.0
2688,73.0,7.0,15.0,0.0,0.0
2689,77.0,1.0,15.0,0.0,0.0
2690,73.0,14.0,15.0,0.0,0.0
2691,39.0,0.0,30.0,0.0,0.0
2692,43.0,0.0,30.0,0.0,0.0
2693,46.0,0.0,30.0,0.0,0.0
2694,49.0,7.0,30.0,0.0,0.0
2695,72.0,1.0,15.0,0.0,0.0
2696,67.0,7.0,15.0,0.0,0.0
2697,70.0,1.0,15.0,0.0,0.0
2698,39.0,0.0,15.0,0.0,0.0
2699,43.0,0.0,15.0,0.0,0.0
2700,46.0,14.0,15.0,0.0,0.0
2701,49.0,0.0,15.0,0.0,0.0
2702,67.0,0.0,15.0,0.0,0.0
2703,32.0,1.0,15.0,0.0,0.0
2704,68.0,7.0,20.0,0.0,0.0
2705,72.0,0.0,20.0,0.0,0.0
2706,63.0,0.0,20.0,0.0,0.0
2707,36.0,7.0,15.0,0.0,0.0
2708,39.0,1.0,15.0,0.0,0.0
2709,63.0,0.0,30.0,0.0,0.0
2710,68.0,7.0,30.0,0.0,0.0
2711,72.0,0.0,30.0,0.0,0.0
2712,43.0,14.0,15.0,0.0,0.0
2713,44.0,1.0,15.0,0.0,0.0
2714,48.0,7.0,15.0,0.0,0.0
2715,51.0,1.0,15.0,0.0,0.0
2716,68.0,0.0,20.0,0.0,0.0
2717,72.0,1.0,20.0,0.0,0.0
2718,55.0,14.0,15.0,0.0,0.0
2719,56.0,0.0,15.0,0.0,0.0
2720,63.0,0.0,15.0,0.0,0.0
2721,67.0,14.0,15.0,0.0,0.0
2722,61.0,0.0,15.0,0.0,0.0
2723,65.0,0.0,15.0,0.0,0.0
2724,68.0,1.0,15.0,0.0,0.0
2725,60.0,0.0,15.0,0.0,0.0
2726,58.0,14.0,15.0,0.0,0.0
2727,70.0,0.0,15.0,0.0,0.0
2728,67.0,0.0,15.0,0.0,0.0
2729,63.0,1.0,15.0,0.0,0.0
2730,56.0,0.0,15.0,0.0,0.0
2731,72.0,1.0,30.0,0.0,0.0
2732,60.0,14.0,15.0,0.0,0.0
2733,32.0,0.0,15.0,0.0,0.0
2734,61.0,1.0,15.0,0.0,0.0
2735,34.0,0.0,15.0,0.0,0.0
2736,63.0,14.0,15.0,0.0,0.0
2737,36.0,0.0,15.0,0.0,0.0
2738,65.0,0.0,30.0,0.0,0.0
2739,37.0,0.0,15.0,0.0,0.0
2740,68.0,14.0,15.0,0.0,0.0
2741,51.0,0.0,15.0,0.0,0.0
2742,70.0,1.0,15.0,0.0,0.0
2743,49.0,0.0,15.0,0.0,0.0
2744,72.0,14.0,15.0,0.0,0.0
2745,48.0,0.0,15.0,0.0,0.0
2746,73.0,1.0,30.0,0.0,0.0
2747,46.0,1.0,15.0,0.0,0.0
2748,34.0,14.0,15.0,0.0,0.0
2749,61.0,0.0,15.0,0.0,0.0
2750,36.0,0.0,15.0,0.0,0.0
2751,63.0,1.0,15.0,0.0,0.0
2752,37.0,14.0,15.0,0.0,0.0
2753,65.0,0.0,15.0,0.0,0.0
2754,67.0,0.0,15.0,0.0,0.0
2755,39.0,2.0,30.0,0.0,0.0
2756,69.0,12.0,15.0,0.0,0.0
2757,66.0,0.0,15.0,0.0,0.0
2758,67.0,1.0,15.0,0.0,0.0
2759,70.0,0.0,15.0,0.0,0.0
2760,68.0,0.0,15.0,0.0,0.0
2761,72.0,14.0,15.0,0.0,0.0
2762,67.0,13.0,30.0,0.0,0.0
2763,70.0,1.0,30.0,0.0,0.0
2764,51.0,1.0,15.0,0.0,0.0
2765,50.0,14.0,15.0,0.0,0.0
2766,51.0,1.0,15.0,0.0,0.0
2767,53.0,1.0,15.0,0.0,0.0
2768,63.0,1.0,30.0,0.0,0.0
2769,55.0,0.0,30.0,0.0,0.0
2770,69.0,14.0,15.0,0.0,0.0
2771,70.0,1.0,15.0,0.0,0.0
2772,72.0,14.0,15.0,0.0,0.0
2773,70.0,0.0,30.0,0.0,0.0
2774,56.0,14.0,15.0,0.0,0.0
2775,65.0,0.0,15.0,0.0,0.0
2776,67.0,0.0,15.0,0.0,0.0
2777,58.0,1.0,15.0,0.0,0.0
2778,68.0,14.0,15.0,0.0,0.0
2779,60.0,0.0,15.0,0.0,0.0
2780,67.0,0.0,15.0,0.0,0.0
2781,61.0,1.0,15.0,0.0,0.0
2782,60.0,14.0,15.0,0.0,0.0
2783,72.0,0.0,15.0,0.0,0.0
2784,73.0,0.0,15.0,0.0,0.0
2785,58.0,0.0,15.0,0.0,0.0
2786,67.0,1.0,15.0,0.0,0.0
2787,74.0,0.0,15.0,0.0,0.0
2788,56.0,14.0,15.0,0.0,0.0
2789,75.0,8.0,30.0,0.0,0.0
2790,55.0,1.0,15.0,0.0,0.0
2791,72.0,14.0,15.0,0.0,0.0
2792,56.0,0.0,15.0,0.0,0.0
2793,70.0,1.0,15.0,0.0,0.0
2794,55.0,0.0,15.0,0.0,0.0
2795,68.0,7.0,15.0,0.0,0.0
2796,53.0,0.0,15.0,0.0,0.0
2797,70.0,7.0,15.0,0.0,0.0
2798,55.0,0.0,15.0,0.0,0.0
2799,70.0,7.0,15.0,0.0,0.0
2800,55.0,0.0,15.0,0.0,0.0
2801,75.0,8.0,15.0,0.0,0.0
2802,70.0,0.0,15.0,0.0,0.0
2803,55.0,0.0,15.0,0.0,0.0
2804,75.0,1.0,15.0,0.0,0.0
2805,63.0,7.0,15.0,0.0,0.0
2806,70.0,0.0,15.0,0.0,0.0
2807,73.0,0.0,15.0,0.0,0.0
2808,55.0,7.0,15.0,0.0,0.0
2809,63.0,7.0,15.0,0.0,0.0
2810,56.0,1.0,15.0,0.0,0.0
2811,72.0,0.0,15.0,0.0,0.0
2812,63.0,7.0,15.0,0.0,0.0
2813,70.0,0.0,15.0,0.0,0.0
2814,55.0,7.0,15.0,0.0,0.0
2815,73.0,0.0,15.0,0.0,0.0
2816,56.0,0.0,15.0,0.0,0.0
2817,72.0,1.0,15.0,0.0,0.0
2818,70.0,7.0,15.0,0.0,0.0
2819,73.0,0.0,15.0,0.0,0.0
2820,55.0,0.0,15.0,0.0,0.0
2821,63.0,7.0,15.0,0.0,0.0
2822,72.0,1.0,15.0,0.0,0.0
2823,56.0,0.0,15.0,0.0,0.0
2824,58.0,7.0,15.0,0.0,0.0
2825,70.0,0.0,15.0,0.0,0.0
2826,68.0,7.0,15.0,0.0,0.0
2827,60.0,0.0,15.0,0.0,0.0
2828,58.0,0.0,15.0,0.0,0.0
2829,67.0,7.0,15.0,0.0,0.0
2830,60.0,0.0,15.0,0.0,0.0
2831,68.0,7.0,15.0,0.0,0.0
2832,72.0,0.0,15.0,0.0,0.0
2833,56.0,14.0,15.0,0.0,0.0
2834,60.0,1.0,15.0,0.0,0.0
2835,68.0,14.0,15.0,0.0,0.0
2836,72.0,0.0,15.0,0.0,0.0
2837,60.0,1.0,15.0,0.0,0.0
2838,67.0,0.0,15.0,0.0,0.0
2839,70.0,14.0,15.0,0.0,0.0
2840,36.0,7.0,30.0,0.0,0.0
2841,60.0,1.0,15.0,0.0,0.0
2842,65.0,7.0,15.0,0.0,0.0
2843,68.0,0.0,15.0,0.0,0.0
2844,60.0,1.0,15.0,0.0,0.0
2845,64.0,0.0,15.0,0.0,0.0
2846,67.0,0.0,15.0,0.0,0.0
2847,36.0,15.0,15.0,0.0,0.0
2848,60.0,0.0,20.0,0.0,0.0
2849,29.0,0.0,15.0,0.0,0.0
2850,68.0,7.0,20.0,0.0,0.0
2851,32.0,7.0,15.0,0.0,0.0
2852,36.0,1.0,15.0,0.0,0.0
2853,60.0,7.0,30.0,0.0,0.0
2854,68.0,0.0,30.0,0.0,0.0
2855,40.0,14.0,15.0,0.0,0.0
2856,41.0,1.0,15.0,0.0,0.0
2857,44.0,7.0,15.0,0.0,0.0
2858,48.0,1.0,15.0,0.0,0.0
2859,60.0,0.0,15.0,0.0,0.0
2860,68.0,0.0,15.0,0.0,0.0
2861,52.0,14.0,15.0,0.0,0.0
2862,80.0,1.0,15.0,0.0,0.0
2863,53.0,7.0,20.0,0.0,0.0
2864,76.0,7.0,15.0,0.0,0.0
2865,77.0,1.0,15.0,0.0,0.0
2866,72.0,14.0,15.0,0.0,0.0
2867,53.0,7.0,30.0,0.0,0.0
2868,56.0,0.0,30.0,0.0,0.0
2869,60.0,0.0,30.0,0.0,0.0
2870,70.0,1.0,15.0,0.0,0.0
2871,68.0,7.0,15.0,0.0,0.0
2872,72.0,1.0,15.0,0.0,0.0
2873,68.0,14.0,15.0,0.0,0.0
2874,53.0,7.0,30.0,0.0,0.0
2875,56.0,0.0,30.0,0.0,0.0
2876,60.0,0.0,30.0,0.0,0.0
2877,67.0,1.0,15.0,0.0,0.0
2878,65.0,7.0,15.0,0.0,0.0
2879,68.0,1.0,15.0,0.0,0.0
2880,65.0,14.0,15.0,0.0,0.0
2881,53.0,0.0,30.0,0.0,0.0
2882,56.0,0.0,30.0,0.0,0.0
2883,60.0,7.0,30.0,0.0,0.0
2884,67.0,1.0,15.0,0.0,0.0
2885,65.0,7.0,15.0,0.0,0.0
2886,68.0,1.0,15.0,0.0,0.0
2887,29.0,14.0,15.0,0.0,0.0
2888,61.0,0.0,15.0,0.0,0.0
2889,41.0,0.0,15.0,0.0,0.0
2890,67.0,0.0,15.0,0.0,0.0
2891,58.0,0.0,15.0,0.0,0.0
2892,58.0,0.0,20.0,0.0,0.0
2893,60.0,7.0,20.0,0.0,0.0
2894,67.0,0.0,20.0,0.0,0.0
2895,28.0,1.0,15.0,0.0,0.0
2896,31.0,7.0,15.0,0.0,0.0
2897,32.0,1.0,15.0,0.0,0.0
2898,58.0,7.0,30.0,0.0,0.0
2899,60.0,0.0,30.0,0.0,0.0
2900,67.0,0.0,30.0,0.0,0.0
2901,40.0,14.0,15.0,0.0,0.0
2902,43.0,1.0,15.0,0.0,0.0
2903,48.0,7.0,15.0,0.0,0.0
2904,52.0,1.0,15.0,0.0,0.0
2905,60.0,0.0,15.0,0.0,0.0
2906,67.0,0.0,15.0,0.0,0.0
2907,53.0,14.0,15.0,0.0,0.0
2908,58.0,0.0,15.0,0.0,0.0
2909,80.0,1.0,15.0,0.0,0.0
2910,52.0,0.0,20.0,0.0,0.0
2911,55.0,0.0,20.0,0.0,0.0
2912,60.0,7.0,20.0,0.0,0.0
2913,79.0,7.0,15.0,0.0,0.0
2914,84.0,1.0,15.0,0.0,0.0
2915,60.0,0.0,30.0,0.0,0.0
2916,79.0,14.0,15.0,0.0,0.0
2917,52.0,7.0,30.0,0.0,0.0
2918,55.0,0.0,30.0,0.0,0.0
2919,77.0,1.0,15.0,0.0,0.0
2920,76.0,7.0,15.0,0.0,0.0
2921,79.0,1.0,15.0,0.0,0.0
2922,72.0,14.0,15.0,0.0,0.0
2923,55.0,0.0,30.0,0.0,0.0
2924,60.0,0.0,30.0,0.0,0.0
2925,52.0,7.0,30.0,0.0,0.0
2926,79.0,1.0,15.0,0.0,0.0
2927,72.0,7.0,15.0,0.0,0.0
2928,73.0,1.0,15.0,0.0,0.0
2929,52.0,7.0,30.0,0.0,0.0
2930,55.0,0.0,30.0,0.0,0.0
2931,70.0,14.0,15.0,0.0,0.0
2932,60.0,0.0,30.0,0.0,0.0
2933,68.0,1.0,15.0,0.0,0.0
2934,67.0,7.0,15.0,0.0,0.0
2935,72.0,1.0,15.0,0.0,0.0
2936,60.0,14.0,15.0,0.0,0.0
2937,55.0,0.0,15.0,0.0,0.0
2938,67.0,0.0,15.0,0.0,0.0
2939,52.0,0.0,15.0,0.0,0.0
2940,68.0,1.0,15.0,0.0,0.0
2941,40.0,1.0,30.0,0.0,0.0
2942,67.0,14.0,15.0,0.0,0.0
2943,72.0,0.0,15.0,0.0,0.0
2944,67.0,14.0,15.0,0.0,0.0
2945,52.0,0.0,15.0,0.0,0.0
2946,41.0,1.0,30.0,0.0,0.0
2947,70.0,1.0,15.0,0.0,0.0
2948,68.0,14.0,15.0,0.0,0.0
2949,72.0,0.0,15.0,0.0,0.0
2950,68.0,0.0,15.0,0.0,0.0
2951,53.0,14.0,15.0,0.0,0.0
2952,72.0,1.0,15.0,0.0,0.0
2953,43.0,1.0,30.0,0.0,0.0
2954,70.0,14.0,15.0,0.0,0.0
2955,76.0,0.0,15.0,0.0,0.0
2956,55.0,14.0,15.0,0.0,0.0
2957,70.0,0.0,15.0,0.0,0.0
2958,73.0,1.0,15.0,0.0,0.0
2959,44.0,1.0,30.0,0.0,0.0
2960,72.0,14.0,15.0,0.0,0.0
2961,77.0,0.0,15.0,0.0,0.0
2962,72.0,0.0,15.0,0.0,0.0
2963,56.0,14.0,15.0,0.0,0.0
2964,77.0,1.0,15.0,0.0,0.0
2965,46.0,1.0,30.0,0.0,0.0
2966,73.0,14.0,15.0,0.0,0.0
2967,77.0,0.0,15.0,0.0,0.0
2968,58.0,0.0,15.0,0.0,0.0
2969,67.0,14.0,15.0,0.0,0.0
2970,47.0,1.0,30.0,0.0,0.0
2971,77.0,1.0,15.0,0.0,0.0
2972,74.0,14.0,15.0,0.0,0.0
2973,77.0,0.0,15.0,0.0,0.0
2974,59.0,14.0,15.0,0.0,0.0
2975,68.0,0.0,20.0,0.0,0.0
2976,77.0,1.0,15.0,0.0,0.0
2977,60.0,1.0,30.0,0.0,0.0
2978,67.0,14.0,15.0,0.0,0.0
2979,77.0,1.0,15.0,0.0,0.0
2980,76.0,14.0,15.0,0.0,0.0
2981,70.0,1.0,30.0,0.0,0.0
2982,79.0,0.0,30.0,0.0,0.0
2983,48.0,14.0,15.0,0.0,0.0
2984,49.0,1.0,15.0,0.0,0.0
2985,48.0,14.0,15.0,0.0,0.0
2986,53.0,1.0,30.0,0.0,0.0
2987,68.0,14.0,15.0,0.0,0.0
2988,79.0,1.0,15.0,0.0,0.0
2989,77.0,14.0,15.0,0.0,0.0
2990,72.0,1.0,30.0,0.0,0.0
2991,80.0,0.0,30.0,0.0,0.0
2992,39.0,14.0,15.0,0.0,0.0
2993,43.0,1.0,15.0,0.0,0.0
2994,41.0,14.0,15.0,0.0,0.0
2995,39.0,1.0,30.0,0.0,0.0
2996,70.0,14.0,15.0,0.0,0.0
2997,80.0,1.0,15.0,0.0,0.0
2998,79.0,14.0,15.0,0.0,0.0
2999,27.0,14.0,15.0,0.0,0.0
3000,28.0,0.0,15.0,0.0,0.0
3001,27.0,7.0,20.0,0.0,0.0
3002,82.0,1.0,15.0,0.0,0.0
3003,73.0,0.0,15.0,0.0,0.0
3004,79.0,0.0,20.0,0.0,0.0
3005,82.0,0.0,20.0,0.0,0.0
3006,75.0,7.0,20.0,0.0,0.0
3007,73.0,0.0,20.0,0.0,0.0
3008,31.0,0.0,15.0,0.0,0.0
3009,34.0,1.0,15.0,0.0,0.0
3010,39.0,14.0,15.0,0.0,0.0
3011,82.0,7.0,30.0,0.0,0.0
3012,75.0,0.0,30.0,0.0,0.0
3013,73.0,0.0,30.0,0.0,0.0
3014,79.0,0.0,30.0,0.0,0.0
3015,43.0,1.0,15.0,0.0,0.0
3016,46.0,7.0,15.0,0.0,0.0
3017,50.0,1.0,15.0,0.0,0.0
3018,75.0,1.0,20.0,0.0,0.0
3019,82.0,0.0,20.0,0.0,0.0
3020,51.0,14.0,15.0,0.0,0.0
3021,73.0,0.0,20.0,0.0,0.0
3022,46.0,7.0,20.0,0.0,0.0
3023,39.0,0.0,20.0,0.0,0.0
3024,43.0,0.0,20.0,0.0,0.0
3025,49.0,0.0,20.0,0.0,0.0
3026,79.0,0.0,15.0,0.0,0.0
3027,85.0,1.0,15.0,0.0,0.0
3028,43.0,0.0,30.0,0.0,0.0
3029,46.0,0.0,30.0,0.0,0.0
3030,49.0,0.0,30.0,0.0,0.0
3031,82.0,14.0,15.0,0.0,0.0
3032,39.0,7.0,30.0,0.0,0.0
3033,80.0,1.0,15.0,0.0,0.0
3034,79.0,7.0,15.0,0.0,0.0
3035,82.0,1.0,15.0,0.0,0.0
3036,39.0,0.0,30.0,0.0,0.0
3037,79.0,14.0,15.0,0.0,0.0
3038,46.0,0.0,30.0,0.0,0.0
3039,49.0,7.0,30.0,0.0,0.0
3040,43.0,0.0,30.0,0.0,0.0
3041,75.0,1.0,15.0,0.0,0.0
3042,73.0,7.0,15.0,0.0,0.0
3043,77.0,1.0,15.0,0.0,0.0
3044,46.0,0.0,30.0,0.0,0.0
3045,49.0,0.0,30.0,0.0,0.0
3046,73.0,14.0,15.0,0.0,0.0
3047,39.0,7.0,30.0,0.0,0.0
3048,43.0,0.0,30.0,0.0,0.0
3049,72.0,1.0,15.0,0.0,0.0
3050,67.0,7.0,15.0,0.0,0.0
3051,70.0,1.0,15.0,0.0,0.0
3052,67.0,0.0,15.0,0.0,0.0
3053,39.0,0.0,15.0,0.0,0.0
3054,43.0,0.0,15.0,0.0,0.0
3055,46.0,14.0,15.0,0.0,0.0
3056,49.0,0.0,15.0,0.0,0.0
3057,63.0,0.0,20.0,0.0,0.0
3058,68.0,0.0,20.0,0.0,0.0
3059,72.0,7.0,20.0,0.0,0.0
3060,32.0,1.0,15.0,0.0,0.0
3061,36.0,7.0,15.0,0.0,0.0
3062,39.0,1.0,15.0,0.0,0.0
3063,63.0,0.0,30.0,0.0,0.0
3064,68.0,0.0,30.0,0.0,0.0
3065,72.0,7.0,30.0,0.0,0.0
3066,43.0,14.0,15.0,0.0,0.0
3067,44.0,1.0,15.0,0.0,0.0
3068,48.0,7.0,15.0,0.0,0.0
3069,51.0,1.0,15.0,0.0,0.0
3070,68.0,1.0,20.0,0.0,0.0
3071,72.0,0.0,20.0,0.0,0.0
3072,55.0,14.0,15.0,0.0,0.0
3073,56.0,0.0,15.0,0.0,0.0
3074,67.0,14.0,15.0,0.0,0.0
3075,61.0,0.0,15.0,0.0,0.0
3076,63.0,0.0,15.0,0.0,0.0
3077,65.0,0.0,15.0,0.0,0.0
3078,68.0,1.0,15.0,0.0,0.0
3079,60.0,0.0,15.0,0.0,0.0
3080,58.0,14.0,15.0,0.0,0.0
3081,70.0,0.0,15.0,0.0,0.0
3082,67.0,0.0,15.0,0.0,0.0
3083,63.0,1.0,15.0,0.0,0.0
3084,72.0,1.0,30.0,0.0,0.0
3085,56.0,0.0,15.0,0.0,0.0
3086,60.0,14.0,15.0,0.0,0.0
3087,32.0,0.0,15.0,0.0,0.0
3088,61.0,1.0,15.0,0.0,0.0
3089,34.0,0.0,15.0,0.0,0.0
3090,63.0,14.0,15.0,0.0,0.0
3091,36.0,0.0,15.0,0.0,0.0
3092,65.0,1.0,30.0,0.0,0.0
3093,37.0,0.0,15.0,0.0,0.0
3094,68.0,14.0,15.0,0.0,0.0
3095,51.0,0.0,15.0,0.0,0.0
3096,70.0,1.0,15.0,0.0,0.0
3097,49.0,0.0,15.0,0.0,0.0
3098,72.0,14.0,15.0,0.0,0.0
3099,48.0,0.0,15.0,0.0,0.0
3100,73.0,0.0,30.0,0.0,0.0
3101,46.0,0.0,15.0,0.0,0.0
3102,61.0,0.0,15.0,0.0,0.0
3103,34.0,14.0,15.0,0.0,0.0
3104,63.0,0.0,15.0,0.0,0.0
3105,36.0,1.0,15.0,0.0,0.0
3106,65.0,14.0,15.0,0.0,0.0
3107,37.0,0.0,15.0,0.0,0.0
3108,67.0,1.0,15.0,0.0,0.0
3109,39.0,2.0,30.0,0.0,0.0
3110,66.0,0.0,15.0,0.0,0.0
3111,69.0,12.0,15.0,0.0,0.0
3112,67.0,0.0,15.0,0.0,0.0
3113,70.0,1.0,15.0,0.0,0.0
3114,68.0,0.0,15.0,0.0,0.0
3115,72.0,14.0,15.0,0.0,0.0
3116,67.0,13.0,30.0,0.0,0.0
3117,70.0,1.0,30.0,0.0,0.0
3118,51.0,1.0,15.0,0.0,0.0
3119,50.0,14.0,15.0,0.0,0.0
3120,51.0,1.0,15.0,0.0,0.0
3121,53.0,1.0,15.0,0.0,0.0
3122,63.0,0.0,30.0,0.0,0.0
3123,55.0,1.0,30.0,0.0,0.0
3124,69.0,14.0,15.0,0.0,0.0
3125,70.0,1.0,15.0,0.0,0.0
3126,72.0,14.0,15.0,0.0,0.0
3127,70.0,0.0,30.0,0.0,0.0
3128,56.0,14.0,15.0,0.0,0.0
3129,65.0,0.0,15.0,0.0,0.0
3130,58.0,0.0,15.0,0.0,0.0
3131,67.0,1.0,15.0,0.0,0.0
3132,60.0,14.0,15.0,0.0,0.0
3133,68.0,0.0,15.0,0.0,0.0
3134,61.0,1.0,15.0,0.0,0.0
3135,67.0,0.0,15.0,0.0,0.0
3136,60.0,0.0,15.0,0.0,0.0
3137,72.0,14.0,15.0,0.0,0.0
3138,58.0,1.0,15.0,0.0,0.0
3139,73.0,0.0,15.0,0.0,0.0
3140,67.0,0.0,15.0,0.0,0.0
3141,56.0,14.0,15.0,0.0,0.0
3142,74.0,0.0,15.0,0.0,0.0
3143,55.0,1.0,15.0,0.0,0.0
3144,56.0,0.0,15.0,0.0,0.0
3145,72.0,14.0,15.0,0.0,0.0
3146,70.0,0.0,15.0,0.0,0.0
3147,55.0,1.0,15.0,0.0,0.0
3148,53.0,1.0,15.0,0.0,0.0
3149,68.0,0.0,15.0,0.0,0.0
3150,75.0,6.0,15.0,0.0,0.0
3151,55.0,7.0,15.0,0.0,0.0
3152,70.0,0.0,15.0,0.0,0.0
3153,70.0,0.0,15.0,0.0,0.0
3154,55.0,7.0,15.0,0.0,0.0
3155,75.0,8.0,15.0,0.0,0.0
3156,55.0,0.0,15.0,0.0,0.0
3157,70.0,7.0,15.0,0.0,0.0
3158,63.0,0.0,15.0,0.0,0.0
3159,75.0,1.0,15.0,0.0,0.0
3160,55.0,7.0,15.0,0.0,0.0
3161,73.0,0.0,15.0,0.0,0.0
3162,70.0,0.0,15.0,0.0,0.0
3163,63.0,7.0,15.0,0.0,0.0
3164,56.0,0.0,15.0,0.0,0.0
3165,72.0,1.0,15.0,0.0,0.0
3166,63.0,7.0,15.0,0.0,0.0
3167,70.0,0.0,15.0,0.0,0.0
3168,73.0,0.0,15.0,0.0,0.0
3169,55.0,7.0,15.0,0.0,0.0
3170,72.0,1.0,15.0,0.0,0.0
3171,61.0,0.0,15.0,0.0,0.0
3172,41.0,14.0,15.0,0.0,0.0
3173,56.0,0.0,15.0,0.0,0.0
3174,55.0,0.0,15.0,0.0,0.0
3175,60.0,0.0,15.0,0.0,0.0
3176,39.0,1.0,15.0,0.0,0.0
3177,53.0,0.0,15.0,0.0,0.0
3178,58.0,14.0,15.0,0.0,0.0
3179,37.0,0.0,15.0,0.0,0.0
3180,51.0,1.0,15.0,0.0,0.0
3181,56.0,1.0,30.0,0.0,0.0
3182,36.0,0.0,15.0,0.0,0.0
3183,55.0,14.0,15.0,0.0,0.0
3184,37.0,0.0,15.0,0.0,0.0
3185,51.0,0.0,15.0,0.0,0.0
3186,36.0,0.0,15.0,0.0,0.0
3187,49.0,0.0,15.0,0.0,0.0
3188,34.0,9.0,15.0,0.0,0.0
3189,48.0,2.0,30.0,0.0,0.0
3190,56.0,0.0,30.0,0.0,0.0
3191,32.0,10.0,15.0,0.0,0.0
3192,39.0,8.0,15.0,0.0,0.0
3193,32.0,10.0,15.0,0.0,0.0
3194,51.0,0.0,60.0,0.0,0.0
3195,48.0,0.0,60.0,0.0,0.0
3196,39.0,10.0,15.0,0.0,0.0
3197,56.0,2.0,60.0,0.0,0.0
3198,32.0,10.0,15.0,0.0,0.0
3199,39.0,10.0,15.0,0.0,0.0
3200,32.0,10.0,15.0,0.0,0.0
3201,39.0,8.0,15.0,0.0,0.0
3202,32.0,10.0,15.0,0.0,0.0
3203,39.0,10.0,15.0,0.0,0.0
3204,32.0,10.0,15.0,0.0,0.0
3205,39.0,10.0,15.0,0.0,0.0
3206,46.0,2.0,60.0,0.0,0.0
3207,51.0,0.0,60.0,0.0,0.0
3208,32.0,10.0,15.0,0.0,0.0
3209,43.0,0.0,60.0,0.0,0.0
3210,49.0,0.0,60.0,0.0,0.0
3211,39.0,10.0,15.0,0.0,0.0
3212,32.0,10.0,15.0,0.0,0.0
3213,39.0,10.0,15.0,0.0,0.0
3214,32.0,8.0,15.0,0.0,0.0
3215,39.0,10.0,15.0,0.0,0.0
3216,32.0,10.0,15.0,0.0,0.0
3217,39.0,10.0,15.0,0.0,0.0
3218,32.0,10.0,15.0,0.0,0.0
3219,43.0,0.0,60.0,0.0,0.0
3220,46.0,2.0,60.0,0.0,0.0
3221,49.0,0.0,60.0,0.0,0.0
3222,51.0,0.0,60.0,0.0,0.0
3223,39.0,10.0,15.0,0.0,0.0
3224,32.0,10.0,15.0,0.0,0.0
3225,39.0,10.0,15.0,0.0,0.0
3226,32.0,10.0,15.0,0.0,0.0
3227,39.0,8.0,15.0,0.0,0.0
3228,32.0,10.0,15.0,0.0,0.0
3229,39.0,10.0,15.0,0.0,0.0
3230,32.0,10.0,15.0,0.0,0.0
3231,39.0,10.0,15.0,0.0,0.0
3232,49.0,0.0,60.0,0.0,0.0
3233,51.0,2.0,60.0,0.0,0.0
3234,55.0,0.0,60.0,0.0,0.0
3235,58.0,0.0,60.0,0.0,0.0
3236,32.0,10.0,15.0,0.0,0.0
3237,39.0,10.0,15.0,0.0,0.0
3238,32.0,10.0,15.0,0.0,0.0
3239,39.0,10.0,15.0,0.0,0.0
3240,32.0,8.0,15.0,0.0,0.0
3241,39.0,10.0,15.0,0.0,0.0
3242,32.0,10.0,15.0,0.0,0.0
3243,39.0,10.0,15.0,0.0,0.0
3244,32.0,10.0,15.0,0.0,0.0
3245,46.0,8.0,30.0,0.0,0.0
3246,49.0,0.0,30.0,0.0,0.0
3247,51.0,0.0,60.0,0.0,0.0
3248,39.0,10.0,15.0,0.0,0.0
3249,32.0,10.0,15.0,0.0,0.0
3250,39.0,2.0,15.0,0.0,0.0
3251,32.0,10.0,15.0,0.0,0.0
3252,48.0,2.0,30.0,0.0,0.0
3253,44.0,0.0,30.0,0.0,0.0
3254,39.0,8.0,15.0,0.0,0.0
3255,32.0,10.0,15.0,0.0,0.0
3256,39.0,10.0,15.0,0.0,0.0
3257,32.0,10.0,15.0,0.0,0.0
3258,39.0,10.0,15.0,0.0,0.0
3259,48.0,0.0,60.0,0.0,0.0
3260,51.0,0.0,60.0,0.0,0.0
3261,32.0,10.0,15.0,0.0,0.0
3262,44.0,2.0,60.0,0.0,0.0
3263,39.0,10.0,15.0,0.0,0.0
3264,32.0,10.0,15.0,0.0,0.0
3265,39.0,10.0,15.0,0.0,0.0
3266,32.0,8.0,15.0,0.0,0.0
3267,39.0,10.0,15.0,0.0,0.0
3268,32.0,10.0,15.0,0.0,0.0
3269,39.0,10.0,15.0,0.0,0.0
3270,32.0,10.0,15.0,0.0,0.0
3271,46.0,2.0,60.0,0.0,0.0
3272,49.0,0.0,60.0,0.0,0.0
3273,51.0,0.0,60.0,0.0,0.0
3274,39.0,10.0,15.0,0.0,0.0
3275,32.0,10.0,15.0,0.0,0.0
3276,39.0,10.0,15.0,0.0,0.0
3277,32.0,10.0,15.0,0.0,0.0
3278,39.0,8.0,15.0,0.0,0.0
3279,32.0,10.0,15.0,0.0,0.0
3280,39.0,10.0,15.0,0.0,0.0
3281,32.0,10.0,15.0,0.0,0.0
3282,39.0,10.0,15.0,0.0,0.0
3283,32.0,10.0,15.0,0.0,0.0
3284,51.0,0.0,60.0,0.0,0.0
3285,50.0,2.0,30.0,0.0,0.0
3286,47.0,8.0,30.0,0.0,0.0
3287,39.0,8.0,15.0,0.0,0.0
3288,32.0,2.0,15.0,0.0,0.0
3289,39.0,10.0,15.0,0.0,0.0
3290,48.0,2.0,30.0,0.0,0.0
3291,32.0,8.0,15.0,0.0,0.0
3292,39.0,10.0,15.0,0.0,0.0
3293,32.0,10.0,15.0,0.0,0.0
3294,39.0,10.0,15.0,0.0,0.0
3295,32.0,10.0,15.0,0.0,0.0
3296,48.0,0.0,60.0,0.0,0.0
3297,51.0,0.0,60.0,0.0,0.0
3298,60.0,2.0,60.0,0.0,0.0
3299,39.0,10.0,15.0,0.0,0.0
3300,32.0,10.0,15.0,0.0,0.0
3301,39.0,10.0,15.0,0.0,0.0
3302,32.0,10.0,15.0,0.0,0.0
3303,39.0,8.0,15.0,0.0,0.0
3304,32.0,10.0,15.0,0.0,0.0
3305,39.0,10.0,15.0,0.0,0.0
3306,32.0,10.0,15.0,0.0,0.0
3307,39.0,10.0,15.0,0.0,0.0
3308,47.0,0.0,60.0,0.0,0.0
3309,50.0,2.0,60.0,0.0,0.0
3310,56.0,0.0,60.0,0.0,0.0
3311,32.0,10.0,15.0,0.0,0.0
3312,53.0,0.0,60.0,0.0,0.0
3313,39.0,10.0,15.0,0.0,0.0
3314,32.0,10.0,15.0,0.0,0.0
3315,39.0,10.0,15.0,0.0,0.0
3316,32.0,8.0,15.0,0.0,0.0
3317,39.0,10.0,15.0,0.0,0.0
3318,32.0,10.0,15.0,0.0,0.0
3319,39.0,10.0,15.0,0.0,0.0
3320,32.0,10.0,15.0,0.0,0.0
3321,46.0,0.0,60.0,0.0,0.0
3322,49.0,2.0,60.0,0.0,0.0
3323,52.0,0.0,60.0,0.0,0.0
3324,56.0,0.0,60.0,0.0,0.0
3325,39.0,10.0,15.0,0.0,0.0
3326,32.0,10.0,15.0,0.0,0.0
3327,39.0,10.0,15.0,0.0,0.0
3328,32.0,10.0,15.0,0.0,0.0
3329,39.0,8.0,15.0,0.0,0.0
3330,32.0,10.0,15.0,0.0,0.0
3331,39.0,10.0,15.0,0.0,0.0
3332,32.0,10.0,15.0,0.0,0.0
3333,39.0,10.0,15.0,0.0,0.0
3334,46.0,0.0,60.0,0.0,0.0
3335,49.0,0.0,60.0,0.0,0.0
3336,52.0,0.0,60.0,0.0,0.0
3337,55.0,2.0,60.0,0.0,0.0
3338,32.0,10.0,15.0,0.0,0.0
3339,39.0,10.0,15.0,0.0,0.0
3340,32.0,10.0,15.0,0.0,0.0
3341,39.0,10.0,15.0,0.0,0.0
3342,32.0,8.0,15.0,0.0,0.0
3343,39.0,10.0,15.0,0.0,0.0
3344,32.0,10.0,15.0,0.0,0.0
3345,39.0,10.0,15.0,0.0,0.0
3346,32.0,10.0,15.0,0.0,0.0
3347,46.0,0.0,60.0,0.0,0.0
3348,49.0,2.0,60.0,0.0,0.0
3349,51.0,0.0,60.0,0.0,0.0
3350,55.0,0.0,60.0,0.0,0.0
3351,39.0,10.0,15.0,0.0,0.0
3352,32.0,10.0,15.0,0.0,0.0
3353,39.0,10.0,15.0,0.0,0.0
3354,32.0,10.0,15.0,0.0,0.0
3355,39.0,8.0,15.0,0.0,0.0
3356,32.0,10.0,15.0,0.0,0.0
3357,39.0,10.0,15.0,0.0,0.0
3358,32.0,10.0,15.0,0.0,0.0
3359,39.0,10.0,15.0,0.0,0.0
3360,47.0,0.0,30.0,0.0,0.0
3361,50.0,8.0,30.0,0.0,0.0
3362,56.0,0.0,60.0,0.0,0.0
3363,32.0,10.0,15.0,0.0,0.0
3364,39.0,10.0,15.0,0.0,0.0
3365,32.0,2.0,15.0,0.0,0.0
3366,51.0,0.0,30.0,0.0,0.0
3367,39.0,10.0,15.0,0.0,0.0
3368,48.0,2.0,30.0,0.0,0.0
3369,32.0,8.0,15.0,0.0,0.0
3370,39.0,10.0,15.0,0.0,0.0
3371,32.0,10.0,15.0,0.0,0.0
3372,39.0,10.0,15.0,0.0,0.0
3373,32.0,10.0,15.0,0.0,0.0
3374,55.0,8.0,30.0,0.0,0.0
3375,60.0,2.0,60.0,0.0,0.0
3376,39.0,10.0,15.0,0.0,0.0
3377,51.0,0.0,60.0,0.0,0.0
3378,32.0,10.0,15.0,0.0,0.0
3379,39.0,2.0,15.0,0.0,0.0
3380,56.0,0.0,30.0,0.0,0.0
3381,32.0,10.0,15.0,0.0,0.0
3382,39.0,8.0,15.0,0.0,0.0
3383,32.0,10.0,15.0,0.0,0.0
3384,39.0,10.0,15.0,0.0,0.0
3385,32.0,10.0,15.0,0.0,0.0
3386,39.0,10.0,15.0,0.0,0.0
3387,54.0,0.0,60.0,0.0,0.0
3388,57.0,2.0,60.0,0.0,0.0
3389,60.0,0.0,60.0,0.0,0.0
3390,63.0,0.0,60.0,0.0,0.0
3391,32.0,10.0,15.0,0.0,0.0
3392,39.0,10.0,15.0,0.0,0.0
3393,32.0,10.0,15.0,0.0,0.0
3394,39.0,10.0,15.0,0.0,0.0
3395,32.0,8.0,15.0,0.0,0.0
3396,39.0,10.0,15.0,0.0,0.0
3397,32.0,10.0,15.0,0.0,0.0
3398,39.0,10.0,15.0,0.0,0.0
3399,32.0,10.0,15.0,0.0,0.0
3400,54.0,0.0,60.0,0.0,0.0
3401,57.0,0.0,60.0,0.0,0.0
3402,60.0,2.0,60.0,0.0,0.0
3403,63.0,0.0,60.0,0.0,0.0
3404,39.0,10.0,15.0,0.0,0.0
3405,32.0,10.0,15.0,0.0,0.0
3406,39.0,10.0,15.0,0.0,0.0
3407,32.0,10.0,15.0,0.0,0.0
3408,39.0,8.0,15.0,0.0,0.0
3409,32.0,10.0,15.0,0.0,0.0
3410,41.0,10.0,15.0,0.0,0.0
3411,32.0,10.0,15.0,0.0,0.0
3412,41.0,10.0,15.0,0.0,0.0
3413,49.0,0.0,60.0,0.0,0.0
3414,56.0,2.0,60.0,0.0,0.0
3415,61.0,0.0,60.0,0.0,0.0
3416,32.0,10.0,15.0,0.0,0.0
3417,41.0,10.0,15.0,0.0,0.0
3418,32.0,10.0,15.0,0.0,0.0
3419,41.0,10.0,15.0,0.0,0.0
3420,32.0,8.0,15.0,0.0,0.0
3421,41.0,10.0,15.0,0.0,0.0
3422,32.0,10.0,15.0,0.0,0.0
3423,43.0,10.0,15.0,0.0,0.0
3424,32.0,10.0,15.0,0.0,0.0
3425,49.0,0.0,60.0,0.0,0.0
3426,52.0,2.0,60.0,0.0,0.0
3427,58.0,0.0,60.0,0.0,0.0
3428,43.0,10.0,15.0,0.0,0.0
3429,32.0,10.0,15.0,0.0,0.0
3430,43.0,10.0,15.0,0.0,0.0
3431,32.0,10.0,15.0,0.0,0.0
3432,43.0,8.0,15.0,0.0,0.0
3433,32.0,10.0,15.0,0.0,0.0
3434,46.0,10.0,15.0,0.0,0.0
3435,32.0,10.0,15.0,0.0,0.0
3436,46.0,10.0,15.0,0.0,0.0
3437,32.0,10.0,15.0,0.0,0.0
3438,49.0,0.0,30.0,0.0,0.0
3439,53.0,0.0,30.0,0.0,0.0
3440,55.0,2.0,30.0,0.0,0.0
3441,46.0,8.0,15.0,0.0,0.0
3442,32.0,10.0,15.0,0.0,0.0
3443,49.0,0.0,30.0,0.0,0.0
3444,51.0,0.0,30.0,0.0,0.0
3445,46.0,10.0,15.0,0.0,0.0
3446,55.0,2.0,30.0,0.0,0.0
3447,32.0,8.0,15.0,0.0,0.0
3448,46.0,10.0,15.0,0.0,0.0
3449,32.0,10.0,15.0,0.0,0.0
3450,44.0,10.0,15.0,0.0,0.0
3451,32.0,10.0,15.0,0.0,0.0
3452,56.0,0.0,30.0,0.0,0.0
3453,51.0,2.0,30.0,0.0,0.0
3454,49.0,0.0,30.0,0.0,0.0
3455,44.0,10.0,15.0,0.0,0.0
3456,32.0,8.0,15.0,0.0,0.0
3457,44.0,10.0,15.0,0.0,0.0
3458,56.0,0.0,30.0,0.0,0.0
3459,48.0,0.0,30.0,0.0,0.0
3460,51.0,2.0,30.0,0.0,0.0
3461,32.0,10.0,15.0,0.0,0.0
3462,44.0,8.0,15.0,0.0,0.0
3463,32.0,10.0,15.0,0.0,0.0
3464,43.0,10.0,15.0,0.0,0.0
3465,32.0,10.0,15.0,0.0,0.0
3466,43.0,10.0,15.0,0.0,0.0
3467,49.0,0.0,30.0,0.0,0.0
3468,51.0,2.0,30.0,0.0,0.0
3469,58.0,0.0,30.0,0.0,0.0
3470,32.0,10.0,15.0,0.0,0.0
3471,43.0,8.0,15.0,0.0,0.0
3472,32.0,10.0,15.0,0.0,0.0
3473,43.0,10.0,15.0,0.0,0.0
3474,46.0,0.0,30.0,0.0,0.0
3475,51.0,0.0,30.0,0.0,0.0
3476,49.0,2.0,30.0,0.0,0.0
3477,32.0,8.0,15.0,0.0,0.0
3478,43.0,10.0,15.0,0.0,0.0
3479,43.0,10.0,15.0,0.0,0.0
3480,51.0,0.0,15.0,0.0,0.0
3481,44.0,0.0,15.0,0.0,0.0
3482,53.0,10.0,15.0,0.0,0.0
3483,55.0,10.0,15.0,0.0,0.0
3484,46.0,0.0,15.0,0.0,0.0
3485,56.0,10.0,15.0,0.0,0.0
3486,48.0,0.0,15.0,0.0,0.0
3487,58.0,10.0,15.0,0.0,0.0
3488,49.0,0.0,15.0,0.0,0.0
3489,51.0,0.0,15.0,0.0,0.0
3490,60.0,10.0,15.0,0.0,0.0
3491,61.0,10.0,15.0,0.0,0.0
3492,53.0,0.0,15.0,0.0,0.0
3493,63.0,10.0,15.0,0.0,0.0
3494,55.0,0.0,15.0,0.0,0.0
3495,65.0,0.0,15.0,0.0,0.0
3496,56.0,10.0,15.0,0.0,0.0
3497,67.0,10.0,15.0,0.0,0.0
3498,58.0,0.0,15.0,0.0,0.0
3499,68.0,10.0,15.0,0.0,0.0
3500,60.0,0.0,15.0,0.0,0.0
3501,70.0,10.0,15.0,0.0,0.0
3502,61.0,0.0,15.0,0.0,0.0
3503,72.0,10.0,15.0,0.0,0.0
3504,63.0,0.0,15.0,0.0,0.0
3505,73.0,0.0,15.0,0.0,0.0
3506,65.0,10.0,15.0,0.0,0.0
3507,75.0,10.0,15.0,0.0,0.0
3508,67.0,0.0,15.0,0.0,0.0
3509,77.0,10.0,15.0,0.0,0.0
3510,68.0,0.0,15.0,0.0,0.0
3511,75.0,10.0,15.0,0.0,0.0
3512,72.0,0.0,15.0,0.0,0.0
3513,79.0,0.0,15.0,0.0,0.0
3514,70.0,10.0,15.0,0.0,0.0
3515,80.0,5.0,15.0,0.0,0.0
3516,72.0,5.0,15.0,0.0,0.0
3517,82.0,10.0,15.0,0.0,0.0
3518,80.0,10.0,15.0,0.0,0.0
3519,79.0,5.0,15.0,0.0,0.0
3520,72.0,5.0,15.0,0.0,0.0
3521,80.0,10.0,15.0,0.0,0.0
3522,79.0,10.0,15.0,0.0,0.0
3523,80.0,5.0,15.0,0.0,0.0
3524,72.0,5.0,15.0,0.0,0.0
3525,82.0,10.0,15.0,0.0,0.0
3526,80.0,10.0,15.0,0.0,0.0
3527,72.0,5.0,15.0,0.0,0.0
3528,75.0,5.0,15.0,0.0,0.0
3529,77.0,10.0,15.0,0.0,0.0
3530,75.0,10.0,15.0,0.0,0.0
3531,74.0,5.0,15.0,0.0,0.0
3532,71.0,5.0,15.0,0.0,0.0
3533,75.0,10.0,15.0,0.0,0.0
3534,74.0,10.0,15.0,0.0,0.0
3535,75.0,5.0,15.0,0.0,0.0
3536,72.0,5.0,15.0,0.0,0.0
3537,77.0,10.0,15.0,0.0,0.0
3538,75.0,10.0,15.0,0.0,0.0
3539,74.0,5.0,15.0,0.0,0.0
3540,71.0,5.0,15.0,0.0,0.0
3541,75.0,10.0,15.0,0.0,0.0
3542,74.0,10.0,15.0,0.0,0.0
3543,75.0,5.0,15.0,0.0,0.0
3544,72.0,5.0,15.0,0.0,0.0
3545,77.0,10.0,15.0,0.0,0.0
3546,75.0,10.0,15.0,0.0,0.0
3547,81.0,5.0,15.0,0.0,0.0
3548,72.0,0.0,15.0,0.0,0.0
3549,75.0,5.0,15.0,0.0,0.0
3550,82.0,10.0,15.0,0.0,0.0
3551,81.0,10.0,15.0,0.0,0.0
3552,73.0,5.0,15.0,0.0,0.0
3553,75.0,0.0,15.0,0.0,0.0
3554,82.0,5.0,15.0,0.0,0.0
3555,84.0,10.0,15.0,0.0,0.0
3556,82.0,10.0,15.0,0.0,0.0
3557,81.0,5.0,15.0,0.0,0.0
3558,72.0,0.0,15.0,0.0,0.0
3559,75.0,5.0,15.0,0.0,0.0
3560,82.0,10.0,15.0,0.0,0.0
3561,81.0,10.0,15.0,0.0,0.0
3562,82.0,5.0,15.0,0.0,0.0
3563,73.0,5.0,15.0,0.0,0.0
3564,75.0,0.0,15.0,0.0,0.0
3565,84.0,10.0,15.0,0.0,0.0
3566,82.0,10.0,15.0,0.0,0.0
3567,75.0,5.0,15.0,0.0,0.0
3568,72.0,0.0,15.0,0.0,0.0
3569,81.0,5.0,15.0,0.0,0.0
3570,82.0,10.0,15.0,0.0,0.0
3571,81.0,10.0,15.0,0.0,0.0
3572,82.0,5.0,15.0,0.0,0.0
3573,75.0,0.0,15.0,0.0,0.0
3574,73.0,5.0,15.0,0.0,0.0
3575,84.0,10.0,15.0,0.0,0.0
3576,82.0,10.0,15.0,0.0,0.0
3577,75.0,5.0,15.0,0.0,0.0
3578,67.0,0.0,15.0,0.0,0.0
3579,73.0,5.0,15.0,0.0,0.0
3580,77.0,10.0,15.0,0.0,0.0
3581,75.0,10.0,15.0,0.0,0.0
3582,77.0,5.0,15.0,0.0,0.0
3583,68.0,5.0,15.0,0.0,0.0
3584,73.0,0.0,15.0,0.0,0.0
3585,79.0,10.0,15.0,0.0,0.0
3586,77.0,10.0,15.0,0.0,0.0
3587,73.0,0.0,15.0,0.0,0.0
3588,67.0,5.0,15.0,0.0,0.0
3589,75.0,5.0,15.0,0.0,0.0
3590,77.0,10.0,15.0,0.0,0.0
3591,75.0,10.0,15.0,0.0,0.0
3592,79.0,5.0,15.0,0.0,0.0
3593,70.0,0.0,15.0,0.0,0.0
3594,73.0,5.0,15.0,0.0,0.0
3595,80.0,10.0,15.0,0.0,0.0
3596,79.0,10.0,15.0,0.0,0.0
3597,80.0,5.0,15.0,0.0,0.0
3598,72.0,0.0,15.0,0.0,0.0
3599,75.0,5.0,15.0,0.0,0.0
3600,82.0,10.0,15.0,0.0,0.0
3601,80.0,10.0,15.0,0.0,0.0
3602,73.0,5.0,15.0,0.0,0.0
3603,75.0,0.0,15.0,0.0,0.0
3604,82.0,5.0,15.0,0.0,0.0
3605,84.0,10.0,15.0,0.0,0.0
3606,82.0,10.0,15.0,0.0,0.0
3607,83.0,5.0,15.0,0.0,0.0
3608,74.0,5.0,15.0,0.0,0.0
3609,75.0,0.0,15.0,0.0,0.0
3610,84.0,10.0,15.0,0.0,0.0
3611,83.0,10.0,15.0,0.0,0.0
3612,84.0,10.0,15.0,0.0,0.0
3613,75.0,0.0,15.0,0.0,0.0
3614,77.0,10.0,15.0,0.0,0.0
3615,73.0,0.0,15.0,0.0,0.0
3616,75.0,0.0,15.0,0.0,0.0
3617,72.0,10.0,15.0,0.0,0.0
3618,74.0,0.0,15.0,0.0,0.0
3619,71.0,10.0,15.0,0.0,0.0
3620,77.0,0.0,15.0,0.0,0.0
3621,73.0,10.0,15.0,0.0,0.0
3622,75.0,10.0,15.0,0.0,0.0
3623,72.0,0.0,15.0,0.0,0.0
3624,74.0,10.0,15.0,0.0,0.0
3625,71.0,0.0,15.0,0.0,0.0
3626,77.0,0.0,15.0,0.0,0.0
3627,73.0,10.0,15.0,0.0,0.0
3628,75.0,10.0,15.0,0.0,0.0
3629,72.0,0.0,15.0,0.0,0.0
3630,74.0,10.0,15.0,0.0,0.0
3631,71.0,0.0,15.0,0.0,0.0
3632,75.0,10.0,15.0,0.0,0.0
3633,72.0,0.0,15.0,0.0,0.0
3634,76.0,0.0,15.0,0.0,0.0
3635,73.0,10.0,15.0,0.0,0.0
3636,74.0,0.0,15.0,0.0,0.0
3637,77.0,10.0,15.0,0.0,0.0
3638,78.0,10.0,15.0,0.0,0.0
3639,75.0,0.0,15.0,0.0,0.0
3640,79.0,10.0,15.0,0.0,0.0
3641,76.0,0.0,15.0,0.0,0.0
3642,80.0,10.0,15.0,0.0,0.0
3643,77.0,0.0,15.0,0.0,0.0
3644,81.0,10.0,15.0,0.0,0.0
3645,78.0,0.0,15.0,0.0,0.0
3646,82.0,10.0,15.0,0.0,0.0
3647,79.0,0.0,15.0,0.0,0.0
3648,84.0,5.0,15.0,0.0,0.0
3649,80.0,5.0,15.0,0.0,0.0
3650,85.0,10.0,15.0,0.0,0.0
3651,84.0,10.0,15.0,0.0,0.0
3652,73.0,0.0,15.0,0.0,0.0
3653,75.0,5.0,15.0,0.0,0.0
3654,82.0,5.0,15.0,0.0,0.0
3655,84.0,10.0,15.0,0.0,0.0
3656,82.0,10.0,15.0,0.0,0.0
3657,72.0,5.0,15.0,0.0,0.0
3658,75.0,0.0,15.0,0.0,0.0
3659,80.0,5.0,15.0,0.0,0.0
3660,82.0,10.0,15.0,0.0,0.0
3661,80.0,10.0,15.0,0.0,0.0
3662,79.0,5.0,15.0,0.0,0.0
3663,72.0,5.0,15.0,0.0,0.0
3664,75.0,0.0,15.0,0.0,0.0
3665,82.0,10.0,15.0,0.0,0.0
3666,80.0,10.0,15.0,0.0,0.0
3667,78.0,5.0,15.0,0.0,0.0
3668,70.0,5.0,15.0,0.0,0.0
3669,75.0,0.0,15.0,0.0,0.0
3670,80.0,10.0,15.0,0.0,0.0
3671,79.0,10.0,15.0,0.0,0.0
3672,80.0,5.0,15.0,0.0,0.0
3673,75.0,0.0,15.0,0.0,0.0
3674,72.0,5.0,15.0,0.0,0.0
3675,82.0,10.0,15.0,0.0,0.0
3676,80.0,10.0,15.0,0.0,0.0
3677,70.0,5.0,15.0,0.0,0.0
3678,75.0,0.0,15.0,0.0,0.0
3679,79.0,5.0,15.0,0.0,0.0
3680,80.0,10.0,15.0,0.0,0.0
3681,79.0,10.0,15.0,0.0,0.0
3682,78.0,5.0,15.0,0.0,0.0
3683,69.0,5.0,15.0,0.0,0.0
3684,75.0,0.0,15.0,0.0,0.0
3685,79.0,10.0,15.0,0.0,0.0
3686,78.0,10.0,15.0,0.0,0.0
3687,79.0,5.0,15.0,0.0,0.0
3688,70.0,5.0,15.0,0.0,0.0
3689,75.0,0.0,15.0,0.0,0.0
3690,80.0,10.0,15.0,0.0,0.0
3691,79.0,10.0,15.0,0.0,0.0
3692,80.0,5.0,15.0,0.0,0.0
3693,73.0,5.0,15.0,0.0,0.0
3694,75.0,0.0,15.0,0.0,0.0
3695,85.0,10.0,15.0,0.0,0.0
3696,82.0,10.0,15.0,0.0,0.0
3697,85.0,5.0,15.0,0.0,0.0
3698,69.0,0.0,15.0,0.0,0.0
3699,75.0,5.0,15.0,0.0,0.0
3700,85.0,10.0,15.0,0.0,0.0
3701,85.0,10.0,15.0,0.0,0.0
3702,85.0,5.0,15.0,0.0,0.0
3703,75.0,0.0,15.0,0.0,0.0
3704,70.0,5.0,15.0,0.0,0.0
3705,87.0,10.0,15.0,0.0,0.0
3706,85.0,10.0,15.0,0.0,0.0
3707,75.0,5.0,15.0,0.0,0.0
3708,72.0,5.0,15.0,0.0,0.0
3709,87.0,10.0,15.0,0.0,0.0
3710,75.0,10.0,15.0,0.0,0.0
3711,80.0,5.0,15.0,0.0,0.0
3712,72.0,5.0,15.0,0.0,0.0
3713,87.0,10.0,15.0,0.0,0.0
3714,80.0,10.0,15.0,0.0,0.0
3715,72.0,5.0,15.0,0.0,0.0
3716,79.0,5.0,15.0,0.0,0.0
3717,87.0,10.0,15.0,0.0,0.0
3718,79.0,10.0,15.0,0.0,0.0
3719,80.0,5.0,15.0,0.0,0.0
3720,72.0,5.0,15.0,0.0,0.0
3721,87.0,10.0,15.0,0.0,0.0
3722,82.0,10.0,15.0,0.0,0.0
3723,83.0,5.0,15.0,0.0,0.0
3724,80.0,5.0,15.0,0.0,0.0
3725,87.0,10.0,15.0,0.0,0.0
3726,84.0,10.0,15.0,0.0,0.0
3727,82.0,5.0,15.0,0.0,0.0
3728,85.0,5.0,15.0,0.0,0.0
3729,87.0,10.0,15.0,0.0,0.0
3730,86.0,10.0,15.0,0.0,0.0
3731,84.0,5.0,15.0,0.0,0.0
3732,87.0,5.0,15.0,0.0,0.0
3733,89.0,10.0,15.0,0.0,0.0
3734,86.0,10.0,15.0,0.0,0.0
3735,87.0,5.0,15.0,0.0,0.0
3736,84.0,5.0,15.0,0.0,0.0
3737,86.0,10.0,15.0,0.0,0.0
3738,87.0,10.0,15.0,0.0,0.0
3739,81.0,5.0,15.0,0.0,0.0
3740,72.0,5.0,15.0,0.0,0.0
3741,78.0,0.0,15.0,0.0,0.0
3742,89.0,10.0,15.0,0.0,0.0
3743,87.0,10.0,15.0,0.0,0.0
3744,81.0,5.0,15.0,0.0,0.0
3745,72.0,5.0,15.0,0.0,0.0
3746,78.0,0.0,15.0,0.0,0.0
3747,89.0,10.0,15.0,0.0,0.0
3748,87.0,10.0,15.0,0.0,0.0
3749,81.0,5.0,15.0,0.0,0.0
3750,72.0,5.0,15.0,0.0,0.0
3751,75.0,0.0,15.0,0.0,0.0
3752,85.0,10.0,15.0,0.0,0.0
3753,84.0,10.0,15.0,0.0,0.0
3754,81.0,5.0,15.0,0.0,0.0
3755,72.0,5.0,15.0,0.0,0.0
3756,78.0,0.0,15.0,0.0,0.0
3757,89.0,10.0,15.0,0.0,0.0
3758,87.0,10.0,15.0,0.0,0.0
3759,78.0,0.0,15.0,0.0,0.0
3760,81.0,5.0,15.0,0.0,0.0
3761,72.0,5.0,15.0,0.0,0.0
3762,89.0,10.0,15.0,0.0,0.0
3763,87.0,10.0,15.0,0.0,0.0
3764,81.0,5.0,15.0,0.0,0.0
3765,73.0,5.0,15.0,0.0,0.0
3766,77.0,0.0,15.0,0.0,0.0
3767,87.0,10.0,15.0,0.0,0.0
3768,85.0,10.0,15.0,0.0,0.0
3769,77.0,5.0,15.0,0.0,0.0
3770,73.0,5.0,15.0,0.0,0.0
3771,84.0,10.0,15.0,0.0,0.0
3772,82.0,10.0,15.0,0.0,0.0
3773,76.0,5.0,15.0,0.0,0.0
3774,73.0,5.0,15.0,0.0,0.0
3775,84.0,10.0,15.0,0.0,0.0
3776,82.0,10.0,15.0,0.0,0.0
3777,75.0,5.0,15.0,0.0,0.0
3778,73.0,5.0,15.0,0.0,0.0
3779,84.0,10.0,15.0,0.0,0.0
3780,82.0,10.0,15.0,0.0,0.0
3781,75.0,5.0,15.0,0.0,0.0
3782,72.0,5.0,15.0,0.0,0.0
3783,82.0,10.0,15.0,0.0,0.0
3784,80.0,10.0,15.0,0.0,0.0
3785,72.0,5.0,15.0,0.0,0.0
3786,75.0,5.0,15.0,0.0,0.0
3787,82.0,10.0,15.0,0.0,0.0
3788,80.0,10.0,15.0,0.0,0.0
3789,73.0,5.0,15.0,0.0,0.0
3790,70.0,5.0,15.0,0.0,0.0
3791,80.0,10.0,15.0,0.0,0.0
3792,79.0,10.0,15.0,0.0,0.0
3793,75.0,5.0,15.0,0.0,0.0
3794,72.0,5.0,15.0,0.0,0.0
3795,82.0,10.0,15.0,0.0,0.0
3796,80.0,10.0,15.0,0.0,0.0
3797,75.0,5.0,15.0,0.0,0.0
3798,72.0,5.0,15.0,0.0,0.0
3799,82.0,10.0,15.0,0.0,0.0
3800,80.0,10.0,15.0,0.0,0.0
3801,75.0,5.0,15.0,0.0,0.0
3802,72.0,5.0,15.0,0.0,0.0
3803,82.0,10.0,15.0,0.0,0.0
3804,81.0,10.0,15.0,0.0,0.0
3805,77.0,5.0,15.0,0.0,0.0
3806,73.0,5.0,15.0,0.0,0.0
3807,84.0,10.0,15.0,0.0,0.0
3808,82.0,10.0,15.0,0.0,0.0
3809,77.0,5.0,15.0,0.0,0.0
3810,74.0,5.0,15.0,0.0,0.0
3811,84.0,10.0,15.0,0.0,0.0
3812,82.0,10.0,15.0,0.0,0.0
3813,79.0,5.0,15.0,0.0,0.0
3814,75.0,5.0,15.0,0.0,0.0
3815,84.0,10.0,15.0,0.0,0.0
3816,82.0,10.0,15.0,0.0,0.0
3817,81.0,5.0,15.0,0.0,0.0
3818,67.0,5.0,15.0,0.0,0.0
3819,73.0,0.0,15.0,0.0,0.0
3820,82.0,10.0,15.0,0.0,0.0
3821,75.0,10.0,15.0,0.0,0.0
3822,77.0,5.0,15.0,0.0,0.0
3823,67.0,0.0,15.0,0.0,0.0
3824,73.0,5.0,15.0,0.0,0.0
3825,74.0,10.0,15.0,0.0,0.0
3826,75.0,10.0,15.0,0.0,0.0
3827,77.0,5.0,15.0,0.0,0.0
3828,68.0,5.0,15.0,0.0,0.0
3829,72.0,0.0,15.0,0.0,0.0
3830,74.0,10.0,15.0,0.0,0.0
3831,75.0,10.0,15.0,0.0,0.0
3832,77.0,5.0,15.0,0.0,0.0
3833,70.0,0.0,15.0,0.0,0.0
3834,73.0,5.0,15.0,0.0,0.0
3835,74.0,10.0,15.0,0.0,0.0
3836,75.0,10.0,15.0,0.0,0.0
3837,77.0,5.0,15.0,0.0,0.0
3838,70.0,5.0,15.0,0.0,0.0
3839,73.0,0.0,15.0,0.0,0.0
3840,74.0,10.0,15.0,0.0,0.0
3841,75.0,10.0,15.0,0.0,0.0
3842,77.0,5.0,15.0,0.0,0.0
3843,68.0,0.0,15.0,0.0,0.0
3844,72.0,5.0,15.0,0.0,0.0
3845,74.0,10.0,15.0,0.0,0.0
3846,75.0,10.0,15.0,0.0,0.0
3847,67.0,5.0,15.0,0.0,0.0
3848,77.0,5.0,15.0,0.0,0.0
3849,70.0,0.0,15.0,0.0,0.0
3850,76.0,10.0,15.0,0.0,0.0
3851,84.0,10.0,15.0,0.0,0.0
3852,79.0,5.0,15.0,0.0,0.0
3853,65.0,5.0,15.0,0.0,0.0
3854,68.0,0.0,15.0,0.0,0.0
3855,77.0,10.0,15.0,0.0,0.0
3856,84.0,10.0,15.0,0.0,0.0
3857,80.0,5.0,15.0,0.0,0.0
3858,64.0,5.0,15.0,0.0,0.0
3859,67.0,0.0,15.0,0.0,0.0
3860,79.0,10.0,15.0,0.0,0.0
3861,84.0,10.0,15.0,0.0,0.0
3862,48.0,10.0,15.0,0.0,0.0
3863,36.0,10.0,15.0,0.0,0.0
3864,48.0,10.0,15.0,0.0,0.0
3865,36.0,10.0,15.0,0.0,0.0
3866,48.0,10.0,15.0,0.0,0.0
3867,36.0,10.0,15.0,0.0,0.0
3868,55.0,8.0,30.0,0.0,0.0
3869,56.0,2.0,60.0,0.0,0.0
3870,48.0,10.0,15.0,0.0,0.0
3871,36.0,10.0,15.0,0.0,0.0
3872,48.0,2.0,15.0,0.0,0.0
3873,53.0,0.0,30.0,0.0,0.0
3874,36.0,10.0,15.0,0.0,0.0
3875,48.0,8.0,15.0,0.0,0.0
3876,36.0,10.0,15.0,0.0,0.0
3877,48.0,10.0,15.0,0.0,0.0
3878,36.0,10.0,15.0,0.0,0.0
3879,48.0,10.0,15.0,0.0,0.0
3880,55.0,8.0,30.0,0.0,0.0
3881,56.0,0.0,60.0,0.0,0.0
3882,36.0,10.0,15.0,0.0,0.0
3883,48.0,10.0,15.0,0.0,0.0
3884,36.0,2.0,15.0,0.0,0.0
3885,53.0,2.0,30.0,0.0,0.0
3886,48.0,10.0,15.0,0.0,0.0
3887,36.0,8.0,15.0,0.0,0.0
3888,48.0,10.0,15.0,0.0,0.0
3889,36.0,10.0,15.0,0.0,0.0
3890,48.0,10.0,15.0,0.0,0.0
3891,36.0,10.0,15.0,0.0,0.0
3892,55.0,8.0,30.0,0.0,0.0
3893,56.0,2.0,60.0,0.0,0.0
3894,48.0,10.0,15.0,0.0,0.0
3895,36.0,10.0,15.0,0.0,0.0
3896,48.0,2.0,15.0,0.0,0.0
3897,36.0,10.0,15.0,0.0,0.0
3898,53.0,0.0,30.0,0.0,0.0
3899,48.0,8.0,15.0,0.0,0.0
3900,36.0,10.0,15.0,0.0,0.0
3901,48.0,10.0,15.0,0.0,0.0
3902,36.0,10.0,15.0,0.0,0.0
3903,48.0,10.0,15.0,0.0,0.0
3904,53.0,8.0,30.0,0.0,0.0
3905,55.0,2.0,60.0,0.0,0.0
3906,36.0,10.0,15.0,0.0,0.0
3907,48.0,10.0,15.0,0.0,0.0
3908,36.0,2.0,15.0,0.0,0.0
3909,52.0,0.0,30.0,0.0,0.0
3910,48.0,10.0,15.0,0.0,0.0
3911,36.0,8.0,15.0,0.0,0.0
3912,48.0,10.0,15.0,0.0,0.0
3913,36.0,10.0,15.0,0.0,0.0
3914,48.0,10.0,15.0,0.0,0.0
3915,36.0,10.0,15.0,0.0,0.0
3916,53.0,8.0,30.0,0.0,0.0
3917,55.0,2.0,60.0,0.0,0.0
3918,48.0,10.0,15.0,0.0,0.0
3919,36.0,10.0,15.0,0.0,0.0
3920,48.0,2.0,15.0,0.0,0.0
3921,52.0,0.0,30.0,0.0,0.0
3922,36.0,10.0,15.0,0.0,0.0
3923,48.0,8.0,15.0,0.0,0.0
3924,36.0,10.0,15.0,0.0,0.0
3925,48.0,10.0,15.0,0.0,0.0
3926,36.0,10.0,15.0,0.0,0.0
3927,48.0,10.0,15.0,0.0,0.0
3928,36.0,10.0,15.0,0.0,0.0
3929,60.0,2.0,60.0,0.0,0.0
3930,53.0,8.0,30.0,0.0,0.0
3931,55.0,0.0,60.0,0.0,0.0
3932,48.0,10.0,15.0,0.0,0.0
3933,36.0,2.0,15.0,0.0,0.0
3934,52.0,0.0,30.0,0.0,0.0
3935,48.0,10.0,15.0,0.0,0.0
3936,36.0,8.0,15.0,0.0,0.0
3937,48.0,10.0,15.0,0.0,0.0
3938,36.0,10.0,15.0,0.0,0.0
3939,48.0,10.0,15.0,0.0,0.0
3940,36.0,10.0,15.0,0.0,0.0
3941,52.0,8.0,30.0,0.0,0.0
3942,56.0,0.0,60.0,0.0,0.0
3943,60.0,2.0,60.0,0.0,0.0
3944,48.0,10.0,15.0,0.0,0.0
3945,36.0,10.0,15.0,0.0,0.0
3946,48.0,2.0,15.0,0.0,0.0
3947,53.0,0.0,30.0,0.0,0.0
3948,36.0,10.0,15.0,0.0,0.0
3949,48.0,8.0,15.0,0.0,0.0
3950,36.0,10.0,15.0,0.0,0.0
3951,48.0,10.0,15.0,0.0,0.0
3952,36.0,10.0,15.0,0.0,0.0
3953,48.0,10.0,15.0,0.0,0.0
3954,52.0,8.0,30.0,0.0,0.0
3955,60.0,0.0,60.0,0.0,0.0
3956,36.0,10.0,15.0,0.0,0.0
3957,56.0,0.0,60.0,0.0,0.0
3958,48.0,10.0,15.0,0.0,0.0
3959,36.0,2.0,15.0,0.0,0.0
3960,53.0,2.0,30.0,0.0,0.0
3961,48.0,10.0,15.0,0.0,0.0
3962,36.0,8.0,15.0,0.0,0.0
3963,48.0,10.0,15.0,0.0,0.0
3964,36.0,10.0,15.0,0.0,0.0
3965,48.0,10.0,15.0,0.0,0.0
3966,36.0,10.0,15.0,0.0,0.0
3967,55.0,8.0,30.0,0.0,0.0
3968,58.0,0.0,30.0,0.0,0.0
3969,48.0,10.0,15.0,0.0,0.0
3970,36.0,10.0,15.0,0.0,0.0
3971,48.0,2.0,15.0,0.0,0.0
3972,36.0,10.0,15.0,0.0,0.0
3973,53.0,2.0,30.0,0.0,0.0
3974,56.0,0.0,30.0,0.0,0.0
3975,48.0,8.0,15.0,0.0,0.0
3976,36.0,10.0,15.0,0.0,0.0
3977,48.0,10.0,15.0,0.0,0.0
3978,36.0,10.0,15.0,0.0,0.0
3979,48.0,10.0,15.0,0.0,0.0
3980,47.0,0.0,60.0,0.0,0.0
3981,50.0,2.0,60.0,0.0,0.0
3982,53.0,0.0,60.0,0.0,0.0
3983,56.0,0.0,60.0,0.0,0.0
3984,36.0,10.0,15.0,0.0,0.0
3985,48.0,10.0,15.0,0.0,0.0
3986,36.0,10.0,15.0,0.0,0.0
3987,48.0,10.0,15.0,0.0,0.0
3988,36.0,8.0,15.0,0.0,0.0
3989,48.0,10.0,15.0,0.0,0.0
3990,36.0,10.0,15.0,0.0,0.0
3991,48.0,10.0,15.0,0.0,0.0
3992,36.0,10.0,15.0,0.0,0.0
3993,46.0,0.0,60.0,0.0,0.0
3994,49.0,2.0,60.0,0.0,0.0
3995,52.0,0.0,60.0,0.0,0.0
3996,48.0,10.0,15.0,0.0,0.0
3997,55.0,0.0,60.0,0.0,0.0
3998,36.0,10.0,15.0,0.0,0.0
3999,48.0,10.0,15.0,0.0,0.0
4000,36.0,10.0,15.0,0.0,0.0
4001,48.0,8.0,15.0,0.0,0.0
4002,36.0,10.0,15.0,0.0,0.0
4003,41.0,10.0,15.0,0.0,0.0
4004,29.0,10.0,15.0,0.0,0.0
4005,41.0,10.0,15.0,0.0,0.0
4006,48.0,0.0,60.0,0.0,0.0
4007,53.0,2.0,60.0,0.0,0.0
4008,56.0,0.0,60.0,0.0,0.0
4009,29.0,10.0,15.0,0.0,0.0
4010,41.0,10.0,15.0,0.0,0.0
4011,29.0,10.0,15.0,0.0,0.0
4012,41.0,10.0,15.0,0.0,0.0
4013,29.0,8.0,15.0,0.0,0.0
4014,41.0,10.0,15.0,0.0,0.0
4015,27.0,10.0,15.0,0.0,0.0
4016,39.0,10.0,15.0,0.0,0.0
4017,27.0,10.0,15.0,0.0,0.0
4018,56.0,8.0,30.0,0.0,0.0
4019,58.0,0.0,60.0,0.0,0.0
4020,39.0,10.0,15.0,0.0,0.0
4021,49.0,2.0,60.0,0.0,0.0
4022,27.0,10.0,15.0,0.0,0.0
4023,39.0,2.0,15.0,0.0,0.0
4024,55.0,0.0,30.0,0.0,0.0
4025,27.0,10.0,15.0,0.0,0.0
4026,39.0,8.0,15.0,0.0,0.0
4027,27.0,10.0,15.0,0.0,0.0
4028,39.0,10.0,15.0,0.0,0.0
4029,27.0,10.0,15.0,0.0,0.0
4030,39.0,10.0,15.0,0.0,0.0
4031,44.0,8.0,30.0,0.0,0.0
4032,46.0,2.0,60.0,0.0,0.0
4033,27.0,10.0,15.0,0.0,0.0
4034,39.0,10.0,15.0,0.0,0.0
4035,27.0,2.0,15.0,0.0,0.0
4036,43.0,0.0,30.0,0.0,0.0
4037,39.0,10.0,15.0,0.0,0.0
4038,27.0,8.0,15.0,0.0,0.0
4039,39.0,10.0,15.0,0.0,0.0
4040,27.0,10.0,15.0,0.0,0.0
4041,39.0,10.0,15.0,0.0,0.0
4042,27.0,10.0,15.0,0.0,0.0
4043,56.0,8.0,30.0,0.0,0.0
4044,58.0,0.0,60.0,0.0,0.0
4045,39.0,10.0,15.0,0.0,0.0
4046,49.0,0.0,60.0,0.0,0.0
4047,27.0,10.0,15.0,0.0,0.0
4048,39.0,2.0,15.0,0.0,0.0
4049,55.0,2.0,30.0,0.0,0.0
4050,27.0,10.0,15.0,0.0,0.0
4051,39.0,8.0,15.0,0.0,0.0
4052,27.0,10.0,15.0,0.0,0.0
4053,39.0,10.0,15.0,0.0,0.0
4054,27.0,10.0,15.0,0.0,0.0
4055,39.0,10.0,15.0,0.0,0.0
4056,51.0,0.0,60.0,0.0,0.0
4057,58.0,8.0,30.0,0.0,0.0
4058,60.0,2.0,60.0,0.0,0.0
4059,27.0,10.0,15.0,0.0,0.0
4060,39.0,10.0,15.0,0.0,0.0
4061,27.0,2.0,15.0,0.0,0.0
4062,56.0,0.0,30.0,0.0,0.0
4063,39.0,10.0,15.0,0.0,0.0
4064,27.0,8.0,15.0,0.0,0.0
4065,39.0,10.0,15.0,0.0,0.0
4066,27.0,10.0,15.0,0.0,0.0
4067,39.0,10.0,15.0,0.0,0.0
4068,27.0,10.0,15.0,0.0,0.0
4069,46.0,8.0,30.0,0.0,0.0
4070,48.0,2.0,60.0,0.0,0.0
4071,39.0,10.0,15.0,0.0,0.0
4072,27.0,10.0,15.0,0.0,0.0
4073,39.0,2.0,15.0,0.0,0.0
4074,44.0,0.0,30.0,0.0,0.0
4075,27.0,10.0,15.0,0.0,0.0
4076,39.0,8.0,15.0,0.0,0.0
4077,27.0,10.0,15.0,0.0,0.0
4078,39.0,10.0,15.0,0.0,0.0
4079,27.0,10.0,15.0,0.0,0.0
4080,39.0,10.0,15.0,0.0,0.0
4081,27.0,10.0,15.0,0.0,0.0
4082,61.0,2.0,60.0,0.0,0.0
4083,55.0,0.0,60.0,0.0,0.0
4084,52.0,8.0,30.0,0.0,0.0
4085,58.0,0.0,60.0,0.0,0.0
4086,39.0,10.0,15.0,0.0,0.0
4087,27.0,2.0,15.0,0.0,0.0
4088,51.0,0.0,30.0,0.0,0.0
4089,39.0,10.0,15.0,0.0,0.0
4090,27.0,8.0,15.0,0.0,0.0
4091,39.0,10.0,15.0,0.0,0.0
4092,27.0,10.0,15.0,0.0,0.0
4093,39.0,10.0,15.0,0.0,0.0
4094,27.0,10.0,15.0,0.0,0.0
4095,44.0,8.0,30.0,0.0,0.0
4096,46.0,2.0,60.0,0.0,0.0
4097,39.0,10.0,15.0,0.0,0.0
4098,27.0,10.0,15.0,0.0,0.0
4099,39.0,2.0,15.0,0.0,0.0
4100,27.0,10.0,15.0,0.0,0.0
4101,43.0,0.0,30.0,0.0,0.0
4102,39.0,8.0,15.0,0.0,0.0
4103,27.0,10.0,15.0,0.0,0.0
4104,39.0,10.0,15.0,0.0,0.0
4105,27.0,10.0,15.0,0.0,0.0
4106,39.0,10.0,15.0,0.0,0.0
4107,51.0,2.0,60.0,0.0,0.0
4108,46.0,0.0,60.0,0.0,0.0
4109,44.0,8.0,30.0,0.0,0.0
4110,27.0,10.0,15.0,0.0,0.0
4111,39.0,10.0,15.0,0.0,0.0
4112,27.0,2.0,15.0,0.0,0.0
4113,43.0,0.0,30.0,0.0,0.0
4114,39.0,10.0,15.0,0.0,0.0
4115,27.0,8.0,15.0,0.0,0.0
4116,39.0,10.0,15.0,0.0,0.0
4117,27.0,10.0,15.0,0.0,0.0
4118,39.0,10.0,15.0,0.0,0.0
4119,27.0,10.0,15.0,0.0,0.0
4120,63.0,2.0,60.0,0.0,0.0
4121,58.0,0.0,60.0,0.0,0.0
4122,56.0,8.0,30.0,0.0,0.0
4123,39.0,10.0,15.0,0.0,0.0
4124,27.0,10.0,15.0,0.0,0.0
4125,39.0,2.0,15.0,0.0,0.0
4126,55.0,0.0,30.0,0.0,0.0
4127,27.0,10.0,15.0,0.0,0.0
4128,39.0,8.0,15.0,0.0,0.0
4129,27.0,10.0,15.0,0.0,0.0
4130,39.0,10.0,15.0,0.0,0.0
4131,27.0,10.0,15.0,0.0,0.0
4132,39.0,10.0,15.0,0.0,0.0
4133,43.0,2.0,30.0,0.0,0.0
4134,46.0,0.0,30.0,0.0,0.0
4135,51.0,0.0,30.0,0.0,0.0
4136,27.0,10.0,15.0,0.0,0.0
4137,39.0,8.0,15.0,0.0,0.0
4138,27.0,10.0,15.0,0.0,0.0
4139,44.0,2.0,30.0,0.0,0.0
4140,48.0,0.0,30.0,0.0,0.0
4141,39.0,10.0,15.0,0.0,0.0
4142,27.0,8.0,15.0,0.0,0.0
4143,39.0,10.0,15.0,0.0,0.0
4144,32.0,10.0,15.0,0.0,0.0
4145,39.0,10.0,15.0,0.0,0.0
4146,32.0,10.0,15.0,0.0,0.0
4147,56.0,2.0,30.0,0.0,0.0
4148,60.0,0.0,30.0,0.0,0.0
4149,39.0,10.0,15.0,0.0,0.0
4150,32.0,8.0,15.0,0.0,0.0
4151,39.0,10.0,15.0,0.0,0.0
4152,48.0,2.0,30.0,0.0,0.0
4153,32.0,10.0,15.0,0.0,0.0
4154,39.0,8.0,15.0,0.0,0.0
4155,32.0,10.0,15.0,0.0,0.0
4156,39.0,10.0,15.0,0.0,0.0
4157,31.0,10.0,15.0,0.0,0.0
4158,39.0,10.0,15.0,0.0,0.0
4159,70.0,2.0,30.0,0.0,0.0
4160,72.0,0.0,30.0,0.0,0.0
4161,31.0,10.0,15.0,0.0,0.0
4162,39.0,8.0,15.0,0.0,0.0
4163,31.0,10.0,15.0,0.0,0.0
4164,58.0,2.0,30.0,0.0,0.0
4165,60.0,0.0,30.0,0.0,0.0
4166,39.0,10.0,15.0,0.0,0.0
4167,31.0,8.0,15.0,0.0,0.0
4168,39.0,28.0,15.0,0.0,0.0
4169,60.0,0.0,30.0,0.0,0.0
4170,68.0,0.0,30.0,0.0,0.0
4171,29.0,0.0,30.0,0.0,0.0
4172,41.0,12.0,30.0,0.0,0.0
4173,72.0,0.0,30.0,0.0,0.0
4174,72.0,5.0,15.0,0.0,0.0
4175,80.0,5.0,15.0,0.0,0.0
4176,82.0,10.0,15.0,0.0,0.0
4177,79.0,10.0,15.0,0.0,0.0
4178,80.0,5.0,15.0,0.0,0.0
4179,72.0,5.0,15.0,0.0,0.0
4180,79.0,10.0,15.0,0.0,0.0
4181,77.0,10.0,15.0,0.0,0.0
4182,76.0,5.0,15.0,0.0,0.0
4183,72.0,5.0,15.0,0.0,0.0
4184,77.0,10.0,15.0,0.0,0.0
4185,79.0,10.0,15.0,0.0,0.0
4186,72.0,5.0,15.0,0.0,0.0
4187,77.0,5.0,15.0,0.0,0.0
4188,79.0,10.0,15.0,0.0,0.0
4189,80.0,10.0,15.0,0.0,0.0
4190,79.0,5.0,15.0,0.0,0.0
4191,72.0,5.0,15.0,0.0,0.0
4192,80.0,10.0,15.0,0.0,0.0
4193,82.0,10.0,15.0,0.0,0.0
4194,80.0,5.0,15.0,0.0,0.0
4195,72.0,5.0,15.0,0.0,0.0
4196,82.0,10.0,15.0,0.0,0.0
4197,80.0,10.0,15.0,0.0,0.0
4198,79.0,5.0,15.0,0.0,0.0
4199,72.0,5.0,15.0,0.0,0.0
4200,80.0,10.0,15.0,0.0,0.0
4201,82.0,10.0,15.0,0.0,0.0
4202,72.0,5.0,15.0,0.0,0.0
4203,80.0,5.0,15.0,0.0,0.0
4204,79.0,10.0,15.0,0.0,0.0
4205,77.0,10.0,15.0,0.0,0.0
4206,79.0,5.0,15.0,0.0,0.0
4207,72.0,5.0,15.0,0.0,0.0
4208,80.0,10.0,15.0,0.0,0.0
4209,82.0,10.0,15.0,0.0,0.0
4210,80.0,5.0,15.0,0.0,0.0
4211,72.0,5.0,15.0,0.0,0.0
4212,79.0,10.0,15.0,0.0,0.0
4213,77.0,10.0,15.0,0.0,0.0
4214,72.0,5.0,15.0,0.0,0.0
4215,76.0,5.0,15.0,0.0,0.0
4216,77.0,10.0,15.0,0.0,0.0
4217,79.0,10.0,15.0,0.0,0.0
4218,72.0,5.0,15.0,0.0,0.0
4219,76.0,5.0,15.0,0.0,0.0
4220,77.0,10.0,15.0,0.0,0.0
4221,79.0,10.0,15.0,0.0,0.0
4222,72.0,5.0,15.0,0.0,0.0
4223,77.0,5.0,15.0,0.0,0.0
4224,79.0,10.0,15.0,0.0,0.0
4225,80.0,10.0,15.0,0.0,0.0
4226,79.0,5.0,15.0,0.0,0.0
4227,72.0,5.0,15.0,0.0,0.0
4228,80.0,10.0,15.0,0.0,0.0
4229,82.0,10.0,15.0,0.0,0.0
4230,72.0,5.0,15.0,0.0,0.0
4231,79.0,5.0,15.0,0.0,0.0
4232,80.0,10.0,15.0,0.0,0.0
4233,82.0,10.0,15.0,0.0,0.0
4234,72.0,5.0,15.0,0.0,0.0
4235,85.0,5.0,15.0,0.0,0.0
4236,84.0,10.0,15.0,0.0,0.0
4237,82.0,10.0,15.0,0.0,0.0
4238,72.0,5.0,15.0,0.0,0.0
4239,80.0,5.0,15.0,0.0,0.0
4240,79.0,10.0,15.0,0.0,0.0
4241,84.0,10.0,15.0,0.0,0.0
4242,72.0,5.0,15.0,0.0,0.0
4243,77.0,5.0,15.0,0.0,0.0
4244,76.0,10.0,15.0,0.0,0.0
4245,84.0,10.0,15.0,0.0,0.0
4246,72.0,5.0,15.0,0.0,0.0
4247,79.0,5.0,15.0,0.0,0.0
4248,77.0,10.0,15.0,0.0,0.0
4249,84.0,10.0,15.0,0.0,0.0
4250,72.0,5.0,15.0,0.0,0.0
4251,80.0,5.0,15.0,0.0,0.0
4252,79.0,10.0,15.0,0.0,0.0
4253,84.0,10.0,15.0,0.0,0.0
4254,82.0,5.0,15.0,0.0,0.0
4255,72.0,5.0,15.0,0.0,0.0
4256,80.0,10.0,15.0,0.0,0.0
4257,84.0,10.0,15.0,0.0,0.0
4258,80.0,5.0,15.0,0.0,0.0
4259,72.0,5.0,15.0,0.0,0.0
4260,79.0,10.0,15.0,0.0,0.0
4261,84.0,10.0,15.0,0.0,0.0
4262,82.0,5.0,15.0,0.0,0.0
4263,72.0,5.0,15.0,0.0,0.0
4264,80.0,10.0,15.0,0.0,0.0
4265,84.0,10.0,15.0,0.0,0.0
4266,82.0,5.0,15.0,0.0,0.0
4267,72.0,5.0,15.0,0.0,0.0
4268,80.0,10.0,15.0,0.0,0.0
4269,84.0,10.0,15.0,0.0,0.0
4270,80.0,5.0,15.0,0.0,0.0
4271,72.0,5.0,15.0,0.0,0.0
4272,79.0,10.0,15.0,0.0,0.0
4273,82.0,10.0,15.0,0.0,0.0
4274,79.0,5.0,15.0,0.0,0.0
4275,72.0,5.0,15.0,0.0,0.0
4276,77.0,10.0,15.0,0.0,0.0
4277,80.0,10.0,15.0,0.0,0.0
4278,79.0,5.0,15.0,0.0,0.0
4279,72.0,5.0,15.0,0.0,0.0
4280,77.0,10.0,15.0,0.0,0.0
4281,80.0,10.0,15.0,0.0,0.0
4282,72.0,5.0,15.0,0.0,0.0
4283,79.0,5.0,15.0,0.0,0.0
4284,82.0,10.0,15.0,0.0,0.0
4285,80.0,10.0,15.0,0.0,0.0
4286,79.0,5.0,15.0,0.0,0.0
4287,72.0,5.0,15.0,0.0,0.0
4288,77.0,10.0,15.0,0.0,0.0
4289,80.0,10.0,15.0,0.0,0.0
4290,77.0,5.0,15.0,0.0,0.0
4291,72.0,5.0,15.0,0.0,0.0
4292,76.0,10.0,15.0,0.0,0.0
4293,79.0,10.0,15.0,0.0,0.0
4294,77.0,5.0,15.0,0.0,0.0
4295,72.0,5.0,15.0,0.0,0.0
4296,80.0,10.0,15.0,0.0,0.0
4297,79.0,10.0,15.0,0.0,0.0
4298,72.0,5.0,15.0,0.0,0.0
4299,77.0,5.0,15.0,0.0,0.0
4300,76.0,10.0,15.0,0.0,0.0
4301,79.0,10.0,15.0,0.0,0.0
4302,80.0,5.0,15.0,0.0,0.0
4303,65.0,5.0,15.0,0.0,0.0
4304,82.0,10.0,15.0,0.0,0.0
4305,80.0,10.0,15.0,0.0,0.0
4306,79.0,5.0,15.0,0.0,0.0
4307,77.0,5.0,15.0,0.0,0.0
4308,80.0,10.0,15.0,0.0,0.0
4309,79.0,10.0,15.0,0.0,0.0
4310,80.0,5.0,15.0,0.0,0.0
4311,76.0,5.0,15.0,0.0,0.0
4312,82.0,10.0,15.0,0.0,0.0
4313,80.0,10.0,15.0,0.0,0.0
4314,82.0,5.0,15.0,0.0,0.0
4315,75.0,5.0,15.0,0.0,0.0
4316,84.0,10.0,15.0,0.0,0.0
4317,81.0,10.0,15.0,0.0,0.0
4318,82.0,5.0,15.0,0.0,0.0
4319,75.0,5.0,15.0,0.0,0.0
4320,79.0,10.0,15.0,0.0,0.0
4321,80.0,10.0,15.0,0.0,0.0
4322,75.0,5.0,15.0,0.0,0.0
4323,78.0,5.0,15.0,0.0,0.0
4324,79.0,10.0,15.0,0.0,0.0
4325,77.0,10.0,15.0,0.0,0.0
4326,79.0,5.0,15.0,0.0,0.0
4327,75.0,5.0,15.0,0.0,0.0
4328,77.0,10.0,15.0,0.0,0.0
4329,80.0,10.0,15.0,0.0,0.0
4330,79.0,5.0,15.0,0.0,0.0
4331,75.0,5.0,15.0,0.0,0.0
4332,82.0,10.0,15.0,0.0,0.0
4333,80.0,10.0,15.0,0.0,0.0
4334,82.0,5.0,15.0,0.0,0.0
4335,75.0,5.0,15.0,0.0,0.0
4336,81.0,10.0,15.0,0.0,0.0
4337,83.0,10.0,15.0,0.0,0.0
4338,75.0,5.0,15.0,0.0,0.0
4339,82.0,5.0,15.0,0.0,0.0
4340,84.0,10.0,15.0,0.0,0.0
4341,82.0,10.0,15.0,0.0,0.0
4342,85.0,5.0,15.0,0.0,0.0
4343,75.0,5.0,15.0,0.0,0.0
4344,82.0,10.0,15.0,0.0,0.0
4345,84.0,10.0,15.0,0.0,0.0
4346,83.0,5.0,15.0,0.0,0.0
4347,75.0,5.0,15.0,0.0,0.0
4348,85.0,10.0,15.0,0.0,0.0
4349,83.0,10.0,15.0,0.0,0.0
4350,84.0,5.0,15.0,0.0,0.0
4351,75.0,5.0,15.0,0.0,0.0
4352,85.0,10.0,15.0,0.0,0.0
4353,83.0,10.0,15.0,0.0,0.0
4354,84.0,5.0,15.0,0.0,0.0
4355,75.0,5.0,15.0,0.0,0.0
4356,81.0,10.0,15.0,0.0,0.0
4357,82.0,10.0,15.0,0.0,0.0
4358,79.0,5.0,15.0,0.0,0.0
4359,75.0,5.0,15.0,0.0,0.0
4360,82.0,10.0,15.0,0.0,0.0
4361,80.0,10.0,15.0,0.0,0.0
4362,75.0,5.0,15.0,0.0,0.0
4363,82.0,5.0,15.0,0.0,0.0
4364,84.0,10.0,15.0,0.0,0.0
4365,82.0,10.0,15.0,0.0,0.0
4366,84.0,5.0,15.0,0.0,0.0
4367,75.0,5.0,15.0,0.0,0.0
4368,85.0,10.0,15.0,0.0,0.0
4369,84.0,10.0,15.0,0.0,0.0
4370,85.0,5.0,15.0,0.0,0.0
4371,75.0,5.0,15.0,0.0,0.0
4372,83.0,10.0,15.0,0.0,0.0
4373,84.0,10.0,15.0,0.0,0.0
4374,77.0,5.0,15.0,0.0,0.0
4375,85.0,5.0,15.0,0.0,0.0
4376,87.0,10.0,15.0,0.0,0.0
4377,84.0,10.0,15.0,0.0,0.0
4378,85.0,5.0,15.0,0.0,0.0
4379,76.0,5.0,15.0,0.0,0.0
4380,84.0,10.0,15.0,0.0,0.0
4381,85.0,10.0,15.0,0.0,0.0
4382,84.0,5.0,15.0,0.0,0.0
4383,77.0,5.0,15.0,0.0,0.0
4384,87.0,10.0,15.0,0.0,0.0
4385,85.0,10.0,15.0,0.0,0.0
4386,82.0,5.0,15.0,0.0,0.0
4387,78.0,5.0,15.0,0.0,0.0
4388,85.0,10.0,15.0,0.0,0.0
4389,82.0,10.0,15.0,0.0,0.0
4390,85.0,5.0,15.0,0.0,0.0
4391,78.0,5.0,15.0,0.0,0.0
4392,82.0,10.0,15.0,0.0,0.0
4393,85.0,10.0,15.0,0.0,0.0
4394,82.0,5.0,15.0,0.0,0.0
4395,78.0,5.0,15.0,0.0,0.0
4396,85.0,10.0,15.0,0.0,0.0
4397,82.0,10.0,15.0,0.0,0.0
4398,85.0,5.0,15.0,0.0,0.0
4399,78.0,5.0,15.0,0.0,0.0
4400,82.0,10.0,15.0,0.0,0.0
4401,85.0,10.0,15.0,0.0,0.0
4402,82.0,5.0,15.0,0.0,0.0
4403,78.0,5.0,15.0,0.0,0.0
4404,86.0,10.0,15.0,0.0,0.0
4405,82.0,10.0,15.0,0.0,0.0
4406,86.0,5.0,15.0,0.0,0.0
4407,78.0,5.0,15.0,0.0,0.0
4408,82.0,10.0,15.0,0.0,0.0
4409,86.0,10.0,15.0,0.0,0.0
4410,82.0,5.0,15.0,0.0,0.0
4411,78.0,5.0,15.0,0.0,0.0
4412,86.0,10.0,15.0,0.0,0.0
4413,82.0,10.0,15.0,0.0,0.0
4414,87.0,5.0,15.0,0.0,0.0
4415,78.0,5.0,15.0,0.0,0.0
4416,82.0,10.0,15.0,0.0,0.0
4417,87.0,10.0,15.0,0.0,0.0
4418,78.0,5.0,15.0,0.0,0.0
4419,82.0,5.0,15.0,0.0,0.0
4420,87.0,10.0,15.0,0.0,0.0
4421,82.0,10.0,15.0,0.0,0.0
4422,87.0,5.0,15.0,0.0,0.0
4423,79.0,5.0,15.0,0.0,0.0
4424,82.0,10.0,15.0,0.0,0.0
4425,87.0,10.0,15.0,0.0,0.0
4426,79.0,5.0,15.0,0.0,0.0
4427,75.0,0.0,15.0,0.0,0.0
4428,85.0,5.0,15.0,0.0,0.0
4429,87.0,10.0,15.0,0.0,0.0
4430,82.0,10.0,15.0,0.0,0.0
4431,85.0,5.0,15.0,0.0,0.0
4432,80.0,5.0,15.0,0.0,0.0
4433,82.0,10.0,15.0,0.0,0.0
4434,84.0,10.0,15.0,0.0,0.0
4435,87.0,5.0,15.0,0.0,0.0
4436,80.0,5.0,15.0,0.0,0.0
4437,85.0,10.0,15.0,0.0,0.0
4438,84.0,10.0,15.0,0.0,0.0
4439,75.0,0.0,15.0,0.0,0.0
4440,68.0,0.0,15.0,0.0,0.0
4441,72.0,5.0,15.0,0.0,0.0
4442,85.0,5.0,15.0,0.0,0.0
4443,84.0,10.0,15.0,0.0,0.0
4444,82.0,10.0,15.0,0.0,0.0
4445,68.0,0.0,15.0,0.0,0.0
4446,72.0,5.0,15.0,0.0,0.0
4447,75.0,0.0,15.0,0.0,0.0
4448,85.0,5.0,15.0,0.0,0.0
4449,84.0,10.0,15.0,0.0,0.0
4450,80.0,10.0,15.0,0.0,0.0
4451,72.0,0.0,30.0,0.0,0.0
4452,75.0,0.0,30.0,0.0,0.0
4453,87.0,10.0,15.0,0.0,0.0
4454,68.0,2.0,30.0,0.0,0.0
4455,85.0,8.0,15.0,0.0,0.0
4456,84.0,10.0,15.0,0.0,0.0
4457,85.0,10.0,15.0,0.0,0.0
4458,72.0,0.0,30.0,0.0,0.0
4459,75.0,2.0,30.0,0.0,0.0
4460,68.0,0.0,30.0,0.0,0.0
4461,84.0,8.0,15.0,0.0,0.0
4462,82.0,10.0,15.0,0.0,0.0
4463,72.0,0.0,30.0,0.0,0.0
4464,75.0,2.0,30.0,0.0,0.0
4465,68.0,0.0,30.0,0.0,0.0
4466,85.0,10.0,15.0,0.0,0.0
4467,84.0,8.0,15.0,0.0,0.0
4468,80.0,10.0,15.0,0.0,0.0
4469,68.0,0.0,30.0,0.0,0.0
4470,70.0,2.0,30.0,0.0,0.0
4471,73.0,0.0,30.0,0.0,0.0
4472,85.0,10.0,15.0,0.0,0.0
4473,75.0,0.0,30.0,0.0,0.0
4474,84.0,8.0,15.0,0.0,0.0
4475,82.0,10.0,15.0,0.0,0.0
4476,75.0,0.0,30.0,0.0,0.0
4477,84.0,10.0,15.0,0.0,0.0
4478,68.0,0.0,30.0,0.0,0.0
4479,70.0,2.0,30.0,0.0,0.0
4480,73.0,0.0,30.0,0.0,0.0
4481,82.0,8.0,15.0,0.0,0.0
4482,79.0,10.0,15.0,0.0,0.0
4483,82.0,10.0,15.0,0.0,0.0
4484,68.0,0.0,30.0,0.0,0.0
4485,70.0,2.0,30.0,0.0,0.0
4486,73.0,0.0,30.0,0.0,0.0
4487,75.0,0.0,30.0,0.0,0.0
4488,80.0,8.0,15.0,0.0,0.0
4489,79.0,10.0,15.0,0.0,0.0
4490,85.0,10.0,15.0,0.0,0.0
4491,70.0,2.0,30.0,0.0,0.0
4492,68.0,0.0,30.0,0.0,0.0
4493,73.0,0.0,30.0,0.0,0.0
4494,75.0,0.0,30.0,0.0,0.0
4495,84.0,8.0,15.0,0.0,0.0
4496,82.0,10.0,15.0,0.0,0.0
4497,75.0,0.0,30.0,0.0,0.0
4498,84.0,10.0,15.0,0.0,0.0
4499,70.0,2.0,30.0,0.0,0.0
4500,68.0,0.0,30.0,0.0,0.0
4501,73.0,0.0,30.0,0.0,0.0
4502,82.0,8.0,15.0,0.0,0.0
4503,79.0,10.0,15.0,0.0,0.0
4504,82.0,10.0,15.0,0.0,0.0
4505,70.0,2.0,30.0,0.0,0.0
4506,73.0,0.0,30.0,0.0,0.0
4507,75.0,0.0,30.0,0.0,0.0
4508,68.0,0.0,30.0,0.0,0.0
4509,80.0,8.0,15.0,0.0,0.0
4510,79.0,10.0,15.0,0.0,0.0
4511,85.0,10.0,15.0,0.0,0.0
4512,68.0,0.0,30.0,0.0,0.0
4513,73.0,0.0,30.0,0.0,0.0
4514,75.0,0.0,30.0,0.0,0.0
4515,70.0,2.0,30.0,0.0,0.0
4516,84.0,8.0,15.0,0.0,0.0
4517,82.0,10.0,15.0,0.0,0.0
4518,84.0,10.0,15.0,0.0,0.0
4519,68.0,0.0,30.0,0.0,0.0
4520,70.0,2.0,30.0,0.0,0.0
4521,73.0,0.0,30.0,0.0,0.0
4522,75.0,0.0,30.0,0.0,0.0
4523,82.0,8.0,15.0,0.0,0.0
4524,79.0,10.0,15.0,0.0,0.0
4525,82.0,10.0,15.0,0.0,0.0
4526,68.0,0.0,30.0,0.0,0.0
4527,70.0,0.0,30.0,0.0,0.0
4528,73.0,0.0,30.0,0.0,0.0
4529,75.0,2.0,30.0,0.0,0.0
4530,80.0,8.0,15.0,0.0,0.0
4531,79.0,10.0,15.0,0.0,0.0
4532,87.0,10.0,15.0,0.0,0.0
4533,68.0,0.0,30.0,0.0,0.0
4534,72.0,2.0,30.0,0.0,0.0
4535,75.0,0.0,30.0,0.0,0.0
4536,85.0,8.0,15.0,0.0,0.0
4537,84.0,10.0,15.0,0.0,0.0
4538,85.0,10.0,15.0,0.0,0.0
4539,68.0,0.0,30.0,0.0,0.0
4540,72.0,0.0,30.0,0.0,0.0
4541,75.0,2.0,30.0,0.0,0.0
4542,84.0,8.0,15.0,0.0,0.0
4543,82.0,10.0,15.0,0.0,0.0
4544,75.0,0.0,30.0,0.0,0.0
4545,72.0,2.0,30.0,0.0,0.0
4546,85.0,10.0,15.0,0.0,0.0
4547,68.0,0.0,30.0,0.0,0.0
4548,84.0,8.0,15.0,0.0,0.0
4549,80.0,10.0,15.0,0.0,0.0
4550,75.0,10.0,15.0,0.0,0.0
4551,73.0,10.0,15.0,0.0,0.0
4552,72.0,10.0,15.0,0.0,0.0
4553,73.0,10.0,15.0,0.0,0.0
4554,72.0,10.0,15.0,0.0,0.0
4555,70.0,10.0,15.0,0.0,0.0
4556,73.0,10.0,15.0,0.0,0.0
4557,72.0,10.0,15.0,0.0,0.0
4558,68.0,10.0,15.0,0.0,0.0
4559,75.0,10.0,15.0,0.0,0.0
4560,68.0,2.0,30.0,0.0,0.0
4561,73.0,8.0,15.0,0.0,0.0
4562,72.0,10.0,15.0,0.0,0.0
4563,63.0,0.0,30.0,0.0,0.0
4564,60.0,2.0,30.0,0.0,0.0
4565,73.0,10.0,15.0,0.0,0.0
4566,56.0,0.0,30.0,0.0,0.0
4567,72.0,8.0,15.0,0.0,0.0
4568,70.0,10.0,15.0,0.0,0.0
4569,56.0,2.0,30.0,0.0,0.0
4570,60.0,0.0,30.0,0.0,0.0
4571,63.0,0.0,30.0,0.0,0.0
4572,73.0,10.0,15.0,0.0,0.0
4573,72.0,8.0,15.0,0.0,0.0
4574,68.0,10.0,15.0,0.0,0.0
4575,73.0,10.0,15.0,0.0,0.0
4576,56.0,0.0,30.0,0.0,0.0
4577,58.0,0.0,30.0,0.0,0.0
4578,61.0,2.0,30.0,0.0,0.0
4579,63.0,0.0,30.0,0.0,0.0
4580,72.0,8.0,15.0,0.0,0.0
4581,70.0,10.0,15.0,0.0,0.0
4582,72.0,10.0,15.0,0.0,0.0
4583,56.0,0.0,30.0,0.0,0.0
4584,58.0,0.0,30.0,0.0,0.0
4585,61.0,0.0,30.0,0.0,0.0
4586,63.0,2.0,30.0,0.0,0.0
4587,70.0,8.0,15.0,0.0,0.0
4588,67.0,10.0,15.0,0.0,0.0
4589,61.0,0.0,30.0,0.0,0.0
4590,70.0,10.0,15.0,0.0,0.0
4591,56.0,2.0,30.0,0.0,0.0
4592,63.0,0.0,30.0,0.0,0.0
4593,58.0,0.0,30.0,0.0,0.0
4594,68.0,8.0,15.0,0.0,0.0
4595,67.0,10.0,15.0,0.0,0.0
4596,63.0,0.0,30.0,0.0,0.0
4597,73.0,10.0,15.0,0.0,0.0
4598,56.0,0.0,30.0,0.0,0.0
4599,58.0,2.0,30.0,0.0,0.0
4600,61.0,0.0,30.0,0.0,0.0
4601,72.0,8.0,15.0,0.0,0.0
4602,70.0,10.0,15.0,0.0,0.0
4603,56.0,0.0,30.0,0.0,0.0
4604,58.0,0.0,30.0,0.0,0.0
4605,61.0,2.0,30.0,0.0,0.0
4606,63.0,0.0,30.0,0.0,0.0
4607,72.0,10.0,15.0,0.0,0.0
4608,70.0,8.0,15.0,0.0,0.0
4609,67.0,10.0,15.0,0.0,0.0
4610,70.0,10.0,15.0,0.0,0.0
4611,56.0,0.0,30.0,0.0,0.0
4612,58.0,2.0,30.0,0.0,0.0
4613,61.0,0.0,30.0,0.0,0.0
4614,63.0,0.0,30.0,0.0,0.0
4615,68.0,8.0,15.0,0.0,0.0
4616,67.0,10.0,15.0,0.0,0.0
4617,73.0,10.0,15.0,0.0,0.0
4618,56.0,2.0,30.0,0.0,0.0
4619,58.0,0.0,30.0,0.0,0.0
4620,61.0,0.0,30.0,0.0,0.0
4621,63.0,0.0,30.0,0.0,0.0
4622,72.0,8.0,15.0,0.0,0.0
4623,70.0,10.0,15.0,0.0,0.0
4624,72.0,10.0,15.0,0.0,0.0
4625,56.0,2.0,30.0,0.0,0.0
4626,58.0,0.0,30.0,0.0,0.0
4627,61.0,0.0,30.0,0.0,0.0
4628,63.0,0.0,30.0,0.0,0.0
4629,70.0,8.0,15.0,0.0,0.0
4630,67.0,10.0,15.0,0.0,0.0
4631,70.0,10.0,15.0,0.0,0.0
4632,63.0,0.0,30.0,0.0,0.0
4633,56.0,0.0,30.0,0.0,0.0
4634,61.0,0.0,30.0,0.0,0.0
4635,58.0,2.0,30.0,0.0,0.0
4636,68.0,8.0,15.0,0.0,0.0
4637,67.0,10.0,15.0,0.0,0.0
4638,44.0,10.0,15.0,0.0,0.0
4639,56.0,10.0,15.0,0.0,0.0
4640,60.0,10.0,15.0,0.0,0.0
4641,48.0,10.0,15.0,0.0,0.0
4642,56.0,10.0,15.0,0.0,0.0
4643,60.0,10.0,15.0,0.0,0.0
4644,51.0,10.0,15.0,0.0,0.0
4645,56.0,10.0,15.0,0.0,0.0
4646,60.0,10.0,15.0,0.0,0.0
4647,72.0,10.0,90.0,0.0,0.0
4648,68.0,0.0,90.0,0.0,0.0
4649,55.0,10.0,15.0,0.0,0.0
4650,56.0,10.0,15.0,0.0,0.0
4651,60.0,10.0,15.0,0.0,0.0
4652,51.0,10.0,15.0,0.0,0.0
4653,56.0,10.0,15.0,0.0,0.0
4654,60.0,10.0,15.0,0.0,0.0
4655,49.0,10.0,15.0,0.0,0.0
4656,56.0,0.0,15.0,0.0,0.0
4657,60.0,10.0,15.0,0.0,0.0
4658,48.0,10.0,15.0,0.0,0.0
4659,68.0,10.0,180.0,0.0,0.0
4660,72.0,0.0,180.0,0.0,0.0
4661,56.0,10.0,15.0,0.0,0.0
4662,60.0,10.0,15.0,0.0,0.0
4663,46.0,10.0,15.0,0.0,0.0
4664,56.0,10.0,15.0,0.0,0.0
4665,60.0,10.0,15.0,0.0,0.0
4666,44.0,10.0,15.0,0.0,0.0
4667,56.0,10.0,15.0,0.0,0.0
4668,60.0,10.0,15.0,0.0,0.0
4669,41.0,10.0,15.0,0.0,0.0
4670,56.0,10.0,15.0,0.0,0.0
4671,60.0,10.0,15.0,0.0,0.0
4672,44.0,10.0,15.0,0.0,0.0
4673,53.0,10.0,15.0,0.0,0.0
4674,56.0,10.0,15.0,0.0,0.0
4675,48.0,10.0,15.0,0.0,0.0
4676,53.0,0.0,15.0,0.0,0.0
4677,56.0,10.0,15.0,0.0,0.0
4678,72.0,0.0,90.0,0.0,0.0
4679,80.0,0.0,90.0,0.0,0.0
4680,84.0,10.0,90.0,0.0,0.0
4681,52.0,10.0,15.0,0.0,0.0
4682,53.0,10.0,15.0,0.0,0.0
4683,56.0,10.0,15.0,0.0,0.0
4684,48.0,10.0,15.0,0.0,0.0
4685,53.0,10.0,15.0,0.0,0.0
4686,56.0,10.0,15.0,0.0,0.0
4687,46.0,10.0,15.0,0.0,0.0
4688,53.0,0.0,15.0,0.0,0.0
4689,56.0,10.0,15.0,0.0,0.0
4690,72.0,10.0,90.0,0.0,0.0
4691,80.0,0.0,90.0,0.0,0.0
4692,84.0,0.0,90.0,0.0,0.0
4693,44.0,10.0,15.0,0.0,0.0
4694,53.0,10.0,15.0,0.0,0.0
4695,56.0,10.0,15.0,0.0,0.0
4696,43.0,10.0,15.0,0.0,0.0
4697,53.0,10.0,15.0,0.0,0.0
4698,56.0,10.0,15.0,0.0,0.0
4699,41.0,10.0,15.0,0.0,0.0
4700,53.0,0.0,15.0,0.0,0.0
4701,56.0,10.0,15.0,0.0,0.0
4702,72.0,0.0,90.0,0.0,0.0
4703,80.0,0.0,90.0,0.0,0.0
4704,84.0,0.0,90.0,0.0,0.0
4705,41.0,10.0,15.0,0.0,0.0
4706,56.0,10.0,15.0,0.0,0.0
4707,60.0,10.0,15.0,0.0,0.0
4708,44.0,10.0,15.0,0.0,0.0
4709,53.0,10.0,15.0,0.0,0.0
4710,56.0,10.0,15.0,0.0,0.0
4711,48.0,10.0,15.0,0.0,0.0
4712,53.0,10.0,15.0,0.0,0.0
4713,56.0,10.0,15.0,0.0,0.0
4714,73.0,0.0,90.0,0.0,0.0
4715,82.0,0.0,90.0,0.0,0.0
4716,85.0,0.0,90.0,0.0,0.0
4717,52.0,10.0,15.0,0.0,0.0
4718,53.0,10.0,15.0,0.0,0.0
4719,56.0,10.0,15.0,0.0,0.0
4720,48.0,10.0,15.0,0.0,0.0
4721,53.0,10.0,15.0,0.0,0.0
4722,56.0,10.0,15.0,0.0,0.0
4723,46.0,10.0,15.0,0.0,0.0
4724,53.0,10.0,15.0,0.0,0.0
4725,56.0,10.0,15.0,0.0,0.0
4726,82.0,0.0,60.0,0.0,0.0
4727,79.0,6.0,60.0,0.0,0.0
4728,70.0,0.0,60.0,0.0,0.0
4729,44.0,10.0,15.0,0.0,0.0
4730,53.0,10.0,15.0,0.0,0.0
4731,56.0,10.0,15.0,0.0,0.0
4732,43.0,10.0,15.0,0.0,0.0
4733,53.0,4.0,15.0,0.0,0.0
4734,56.0,10.0,15.0,0.0,0.0
4735,41.0,10.0,15.0,0.0,0.0
4736,27.0,0.0,15.0,0.0,0.0
4737,53.0,10.0,15.0,0.0,0.0
4738,29.0,0.0,15.0,0.0,0.0
4739,56.0,0.0,15.0,0.0,0.0
4740,31.0,10.0,15.0,0.0,0.0
4741,32.0,10.0,15.0,0.0,0.0
4742,36.0,10.0,15.0,0.0,0.0
4743,39.0,10.0,15.0,0.0,0.0
4744,44.0,10.0,15.0,0.0,0.0
4745,48.0,10.0,15.0,0.0,0.0
4746,51.0,10.0,15.0,0.0,0.0
4747,56.0,10.0,15.0,0.0,0.0
4748,60.0,10.0,15.0,0.0,0.0
4749,63.0,10.0,15.0,0.0,0.0
4750,68.0,10.0,15.0,0.0,0.0
4751,72.0,10.0,15.0,0.0,0.0
4752,75.0,10.0,15.0,0.0,0.0
4753,72.0,10.0,15.0,0.0,0.0
4754,75.0,10.0,15.0,0.0,0.0
4755,80.0,40.0,15.0,0.0,0.0
4756,84.0,10.0,30.0,0.0,0.0
4757,79.0,10.0,15.0,0.0,0.0
4758,80.0,10.0,15.0,0.0,0.0
4759,82.0,10.0,15.0,0.0,0.0
4760,79.0,10.0,15.0,0.0,0.0
4761,80.0,10.0,15.0,0.0,0.0
4762,84.0,10.0,15.0,0.0,0.0
4763,79.0,10.0,15.0,0.0,0.0
4764,80.0,10.0,15.0,0.0,0.0
4765,29.0,10.0,15.0,0.0,0.0
4766,32.0,10.0,15.0,0.0,0.0
4767,36.0,10.0,15.0,0.0,0.0
4768,41.0,10.0,15.0,0.0,0.0
4769,44.0,10.0,15.0,0.0,0.0
4770,48.0,10.0,15.0,0.0,0.0
4771,53.0,10.0,15.0,0.0,0.0
4772,56.0,10.0,15.0,0.0,0.0
4773,60.0,10.0,15.0,0.0,0.0
4774,65.0,10.0,15.0,0.0,0.0
4775,68.0,10.0,15.0,0.0,0.0
4776,72.0,10.0,15.0,0.0,0.0
4777,68.0,10.0,15.0,0.0,0.0
4778,72.0,10.0,15.0,0.0,0.0
4779,77.0,8.0,15.0,0.0,0.0
4780,72.0,8.0,15.0,0.0,0.0
4781,77.0,7.0,15.0,0.0,0.0
4782,80.0,17.0,15.0,0.0,0.0
4783,84.0,10.0,15.0,0.0,0.0
4784,79.0,10.0,15.0,0.0,0.0
4785,80.0,10.0,15.0,0.0,0.0
4786,72.0,10.0,15.0,0.0,0.0
4787,79.0,10.0,15.0,0.0,0.0
4788,80.0,10.0,15.0,0.0,0.0
4789,84.0,10.0,15.0,0.0,0.0
4790,79.0,10.0,15.0,0.0,0.0
4791,80.0,10.0,15.0,0.0,0.0
4792,27.0,10.0,15.0,0.0,0.0
4793,32.0,10.0,15.0,0.0,0.0
4794,36.0,10.0,15.0,0.0,0.0
4795,84.0,10.0,15.0,0.0,0.0
4796,39.0,0.0,15.0,0.0,0.0
4797,44.0,10.0,15.0,0.0,0.0
4798,80.0,0.0,15.0,0.0,0.0
4799,72.0,10.0,15.0,0.0,0.0
4800,48.0,0.0,15.0,0.0,0.0
4801,84.0,10.0,15.0,0.0,0.0
4802,51.0,2.0,30.0,0.0,0.0
4803,81.0,8.0,15.0,0.0,0.0
4804,72.0,10.0,15.0,0.0,0.0
4805,27.0,10.0,15.0,0.0,0.0
4806,32.0,10.0,15.0,0.0,0.0
4807,36.0,10.0,15.0,0.0,0.0
4808,85.0,10.0,15.0,0.0,0.0
4809,39.0,0.0,15.0,0.0,0.0
4810,82.0,10.0,15.0,0.0,0.0
4811,44.0,0.0,15.0,0.0,0.0
4812,73.0,0.0,15.0,0.0,0.0
4813,48.0,10.0,15.0,0.0,0.0
4814,85.0,10.0,15.0,0.0,0.0
4815,51.0,2.0,30.0,0.0,0.0
4816,82.0,8.0,15.0,0.0,0.0
4817,73.0,10.0,15.0,0.0,0.0
4818,84.0,10.0,15.0,0.0,0.0
4819,81.0,10.0,15.0,0.0,0.0
4820,72.0,10.0,15.0,0.0,0.0
4821,85.0,10.0,15.0,0.0,0.0
4822,82.0,10.0,15.0,0.0,0.0
4823,73.0,10.0,15.0,0.0,0.0
4824,82.0,10.0,15.0,0.0,0.0
4825,79.0,10.0,15.0,0.0,0.0
4826,70.0,5.0,15.0,0.0,0.0
4827,69.0,4.0,15.0,0.0,0.0
4828,72.0,7.0,15.0,0.0,0.0
4829,70.0,7.0,15.0,0.0,0.0
4830,72.0,8.0,15.0,0.0,0.0
4831,70.0,7.0,15.0,0.0,0.0
4832,72.0,8.0,15.0,0.0,0.0
4833,70.0,7.0,15.0,0.0,0.0
4834,72.0,8.0,15.0,0.0,0.0
4835,70.0,7.0,15.0,0.0,0.0
4836,72.0,8.0,15.0,0.0,0.0
4837,70.0,7.0,15.0,0.0,0.0
4838,72.0,8.0,15.0,0.0,0.0
4839,70.0,7.0,15.0,0.0,0.0
4840,72.0,8.0,15.0,0.0,0.0
4841,70.0,7.0,15.0,0.0,0.0
4842,72.0,8.0,15.0,0.0,0.0
4843,70.0,7.0,15.0,0.0,0.0
4844,72.0,8.0,15.0,0.0,0.0
4845,70.0,7.0,15.0,0.0,0.0
4846,72.0,8.0,15.0,0.0,0.0
4847,70.0,7.0,15.0,0.0,0.0
4848,72.0,8.0,15.0,0.0,0.0
4849,70.0,7.0,15.0,0.0,0.0
4850,72.0,8.0,15.0,0.0,0.0
4851,70.0,7.0,15.0,0.0,0.0
4852,32.0,7.0,60.0,0.0,0.0
4853,72.0,8.0,15.0,0.0,0.0
4854,44.0,0.0,60.0,0.0,0.0
4855,70.0,7.0,15.0,0.0,0.0
4856,72.0,8.0,15.0,0.0,0.0
4857,70.0,7.0,15.0,0.0,0.0
4858,72.0,8.0,15.0,0.0,0.0
4859,70.0,7.0,15.0,0.0,0.0
4860,72.0,1.0,15.0,0.0,0.0
4861,70.0,7.0,15.0,0.0,0.0
4862,72.0,8.0,15.0,0.0,0.0
4863,27.0,3.0,30.0,0.0,0.0
4864,39.0,0.0,30.0,0.0,0.0
4865,70.0,7.0,15.0,0.0,0.0
4866,72.0,5.0,15.0,0.0,0.0
4867,70.0,7.0,15.0,0.0,0.0
4868,27.0,6.0,180.0,0.0,0.0
4869,39.0,0.0,180.0,0.0,0.0
4870,72.0,8.0,15.0,0.0,0.0
4871,70.0,7.0,15.0,0.0,0.0
4872,72.0,8.0,15.0,0.0,0.0
4873,70.0,7.0,15.0,0.0,0.0
4874,72.0,8.0,15.0,0.0,0.0
4875,70.0,7.0,15.0,0.0,0.0
4876,72.0,8.0,15.0,0.0,0.0
4877,70.0,7.0,15.0,0.0,0.0
4878,72.0,8.0,15.0,0.0,0.0
4879,70.0,7.0,15.0,0.0,0.0
4880,72.0,8.0,15.0,0.0,0.0
4881,70.0,7.0,15.0,0.0,0.0
4882,72.0,8.0,15.0,0.0,0.0
4883,70.0,7.0,15.0,0.0,0.0
4884,72.0,8.0,15.0,0.0,0.0
4885,70.0,7.0,15.0,0.0,0.0
4886,72.0,8.0,15.0,0.0,0.0
4887,70.0,7.0,15.0,0.0,0.0
4888,72.0,8.0,15.0,0.0,0.0
4889,70.0,7.0,15.0,0.0,0.0
4890,72.0,8.0,15.0,0.0,0.0
4891,70.0,1.0,15.0,0.0,0.0
4892,72.0,8.0,15.0,0.0,0.0
4893,70.0,7.0,15.0,0.0,0.0
4894,72.0,8.0,15.0,0.0,0.0
4895,77.0,7.0,60.0,0.0,0.0
4896,68.0,0.0,60.0,0.0,0.0
4897,70.0,7.0,15.0,0.0,0.0
4898,72.0,8.0,15.0,0.0,0.0
4899,70.0,7.0,15.0,0.0,0.0
4900,72.0,8.0,15.0,0.0,0.0
4901,70.0,7.0,15.0,0.0,0.0
4902,72.0,1.0,15.0,0.0,0.0
4903,70.0,7.0,15.0,0.0,0.0
4904,72.0,7.0,15.0,0.0,0.0
4905,75.0,1.0,15.0,0.0,0.0
4906,67.0,3.0,30.0,0.0,0.0
4907,70.0,7.0,15.0,0.0,0.0
4908,72.0,5.0,15.0,0.0,0.0
4909,70.0,7.0,15.0,0.0,0.0
4910,72.0,8.0,15.0,0.0,0.0
4911,75.0,0.0,180.0,0.0,0.0
4912,67.0,6.0,180.0,0.0,0.0
4913,70.0,7.0,15.0,0.0,0.0
4914,72.0,8.0,15.0,0.0,0.0
4915,70.0,7.0,15.0,0.0,0.0
4916,72.0,8.0,15.0,0.0,0.0
4917,70.0,7.0,15.0,0.0,0.0
4918,72.0,8.0,15.0,0.0,0.0
4919,70.0,7.0,15.0,0.0,0.0
4920,72.0,8.0,15.0,0.0,0.0
4921,70.0,7.0,15.0,0.0,0.0
4922,72.0,8.0,15.0,0.0,0.0
4923,70.0,7.0,15.0,0.0,0.0
4924,71.0,8.0,15.0,0.0,0.0
4925,70.0,7.0,15.0,0.0,0.0
4926,71.0,8.0,15.0,0.0,0.0
4927,70.0,7.0,15.0,0.0,0.0
4928,71.0,8.0,15.0,0.0,0.0
4929,70.0,7.0,15.0,0.0,0.0
4930,71.0,8.0,15.0,0.0,0.0
4931,70.0,7.0,15.0,0.0,0.0
4932,71.0,8.0,15.0,0.0,0.0
4933,70.0,1.0,15.0,0.0,0.0
4934,71.0,8.0,15.0,0.0,0.0
4935,70.0,7.0,15.0,0.0,0.0
4936,71.0,8.0,15.0,0.0,0.0
4937,76.0,7.0,60.0,0.0,0.0
4938,68.0,0.0,60.0,0.0,0.0
4939,70.0,7.0,15.0,0.0,0.0
4940,71.0,8.0,15.0,0.0,0.0
4941,70.0,7.0,15.0,0.0,0.0
4942,71.0,8.0,15.0,0.0,0.0
4943,70.0,7.0,15.0,0.0,0.0
4944,71.0,1.0,15.0,0.0,0.0
4945,70.0,7.0,15.0,0.0,0.0
4946,71.0,8.0,15.0,0.0,0.0
4947,75.0,3.0,30.0,0.0,0.0
4948,67.0,0.0,30.0,0.0,0.0
4949,70.0,7.0,15.0,0.0,0.0
4950,71.0,5.0,15.0,0.0,0.0
4951,70.0,7.0,15.0,0.0,0.0
4952,71.0,8.0,15.0,0.0,0.0
4953,75.0,3.0,90.0,0.0,0.0
4954,67.0,0.0,90.0,0.0,0.0
4955,70.0,7.0,15.0,0.0,0.0
4956,71.0,8.0,15.0,0.0,0.0
4957,70.0,7.0,15.0,0.0,0.0
4958,71.0,8.0,15.0,0.0,0.0
4959,70.0,7.0,15.0,0.0,0.0
4960,71.0,8.0,15.0,0.0,0.0
4961,70.0,7.0,15.0,0.0,0.0
4962,71.0,8.0,15.0,0.0,0.0
4963,70.0,4.0,15.0,0.0,0.0
4964,71.0,8.0,15.0,0.0,0.0
4965,70.0,7.0,15.0,0.0,0.0
4966,71.0,8.0,15.0,0.0,0.0
4967,75.0,3.0,90.0,0.0,0.0
4968,67.0,0.0,90.0,0.0,0.0
4969,70.0,7.0,15.0,0.0,0.0
4970,71.0,8.0,15.0,0.0,0.0
4971,70.0,7.0,15.0,0.0,0.0
4972,71.0,8.0,15.0,0.0,0.0
4973,70.0,7.0,15.0,0.0,0.0
4974,71.0,8.0,15.0,0.0,0.0
4975,70.0,7.0,15.0,0.0,0.0
4976,71.0,8.0,15.0,0.0,0.0
4977,70.0,4.0,15.0,0.0,0.0
4978,71.0,8.0,15.0,0.0,0.0
4979,70.0,7.0,15.0,0.0,0.0
4980,71.0,8.0,15.0,0.0,0.0
4981,75.0,3.0,90.0,0.0,0.0
4982,67.0,0.0,90.0,0.0,0.0
4983,70.0,7.0,15.0,0.0,0.0
4984,71.0,8.0,15.0,0.0,0.0
4985,70.0,7.0,15.0,0.0,0.0
4986,71.0,8.0,15.0,0.0,0.0
4987,70.0,7.0,15.0,0.0,0.0
4988,71.0,8.0,15.0,0.0,0.0
4989,70.0,7.0,15.0,0.0,0.0
4990,71.0,8.0,15.0,0.0,0.0
4991,70.0,4.0,15.0,0.0,0.0
4992,71.0,8.0,15.0,0.0,0.0
4993,70.0,7.0,15.0,0.0,0.0
4994,67.0,0.0,90.0,0.0,0.0
4995,71.0,8.0,15.0,0.0,0.0
4996,75.0,3.0,90.0,0.0,0.0
4997,70.0,7.0,15.0,0.0,0.0
4998,71.0,8.0,15.0,0.0,0.0
4999,70.0,7.0,15.0,0.0,0.0
5000,71.0,8.0,15.0,0.0,0.0
5001,70.0,7.0,15.0,0.0,0.0
5002,71.0,8.0,15.0,0.0,0.0
5003,70.0,7.0,15.0,0.0,0.0
5004,71.0,8.0,15.0,0.0,0.0
5005,70.0,4.0,15.0,0.0,0.0
5006,71.0,8.0,15.0,0.0,0.0
5007,70.0,7.0,15.0,0.0,0.0
5008,71.0,8.0,15.0,0.0,0.0
5009,76.0,3.0,90.0,0.0,0.0
5010,66.0,0.0,90.0,0.0,0.0
5011,70.0,7.0,15.0,0.0,0.0
5012,71.0,8.0,15.0,0.0,0.0
5013,70.0,7.0,15.0,0.0,0.0
5014,71.0,8.0,15.0,0.0,0.0
5015,70.0,7.0,15.0,0.0,0.0
5016,71.0,8.0,15.0,0.0,0.0
5017,70.0,7.0,15.0,0.0,0.0
5018,71.0,8.0,15.0,0.0,0.0
5019,70.0,4.0,15.0,0.0,0.0
5020,71.0,8.0,15.0,0.0,0.0
5021,70.0,7.0,15.0,0.0,0.0
5022,71.0,8.0,15.0,0.0,0.0
5023,76.0,3.0,90.0,0.0,0.0
5024,37.0,7.0,60.0,0.0,0.0
5025,49.0,0.0,60.0,0.0,0.0
5026,70.0,7.0,15.0,0.0,0.0
5027,71.0,8.0,15.0,0.0,0.0
5028,70.0,7.0,15.0,0.0,0.0
5029,71.0,8.0,15.0,0.0,0.0
5030,70.0,7.0,15.0,0.0,0.0
5031,71.0,1.0,15.0,0.0,0.0
5032,70.0,7.0,15.0,0.0,0.0
5033,30.0,3.0,30.0,0.0,0.0
5034,42.0,0.0,30.0,0.0,0.0
5035,71.0,8.0,15.0,0.0,0.0
5036,70.0,4.0,15.0,0.0,0.0
5037,71.0,5.0,15.0,0.0,0.0
5038,70.0,7.0,15.0,0.0,0.0
5039,42.0,0.0,180.0,0.0,0.0
5040,30.0,3.0,180.0,0.0,0.0
5041,76.0,3.0,90.0,0.0,0.0
5042,71.0,8.0,15.0,0.0,0.0
5043,70.0,7.0,15.0,0.0,0.0
5044,71.0,8.0,15.0,0.0,0.0
5045,70.0,7.0,15.0,0.0,0.0
5046,71.0,8.0,15.0,0.0,0.0
5047,70.0,7.0,15.0,0.0,0.0
5048,71.0,8.0,15.0,0.0,0.0
5049,70.0,7.0,15.0,0.0,0.0
5050,71.0,8.0,15.0,0.0,0.0
5051,70.0,4.0,15.0,0.0,0.0
5052,71.0,8.0,15.0,0.0,0.0
5053,70.0,7.0,15.0,0.0,0.0
5054,76.0,3.0,90.0,0.0,0.0
5055,71.0,8.0,15.0,0.0,0.0
5056,70.0,7.0,15.0,0.0,0.0
5057,71.0,8.0,15.0,0.0,0.0
5058,70.0,7.0,15.0,0.0,0.0
5059,71.0,8.0,15.0,0.0,0.0
5060,70.0,7.0,15.0,0.0,0.0
5061,71.0,8.0,15.0,0.0,0.0
5062,70.0,7.0,15.0,0.0,0.0
5063,71.0,8.0,15.0,0.0,0.0
5064,70.0,1.0,15.0,0.0,0.0
5065,71.0,8.0,15.0,0.0,0.0
5066,70.0,7.0,15.0,0.0,0.0
5067,61.0,7.0,60.0,0.0,0.0
5068,76.0,3.0,90.0,0.0,0.0
5069,71.0,8.0,15.0,0.0,0.0
5070,70.0,7.0,15.0,0.0,0.0
5071,71.0,8.0,15.0,0.0,0.0
5072,70.0,7.0,15.0,0.0,0.0
5073,71.0,8.0,15.0,0.0,0.0
5074,70.0,7.0,15.0,0.0,0.0
5075,71.0,1.0,15.0,0.0,0.0
5076,70.0,7.0,15.0,0.0,0.0
5077,71.0,8.0,15.0,0.0,0.0
5078,54.0,3.0,30.0,0.0,0.0
5079,70.0,4.0,15.0,0.0,0.0
5080,71.0,5.0,15.0,0.0,0.0
5081,70.0,7.0,15.0,0.0,0.0
5082,70.0,0.0,15.0,0.0,0.0
5083,78.0,0.0,15.0,0.0,0.0
5084,63.0,8.0,15.0,0.0,0.0
5085,54.0,3.0,90.0,0.0,0.0
5086,71.0,0.0,15.0,0.0,0.0
5087,76.0,0.0,15.0,0.0,0.0
5088,61.0,7.0,15.0,0.0,0.0
5089,70.0,8.0,15.0,0.0,0.0
5090,78.0,0.0,15.0,0.0,0.0
5091,63.0,0.0,15.0,0.0,0.0
5092,71.0,0.0,15.0,0.0,0.0
5093,76.0,7.0,15.0,0.0,0.0
5094,61.0,0.0,15.0,0.0,0.0
5095,70.0,8.0,15.0,0.0,0.0
5096,63.0,0.0,15.0,0.0,0.0
5097,78.0,0.0,15.0,0.0,0.0
5098,76.0,0.0,15.0,0.0,0.0
5099,71.0,7.0,15.0,0.0,0.0
5100,61.0,0.0,15.0,0.0,0.0
5101,63.0,0.0,15.0,0.0,0.0
5102,78.0,0.0,15.0,0.0,0.0
5103,70.0,8.0,15.0,0.0,0.0
5104,76.0,0.0,15.0,0.0,0.0
5105,61.0,0.0,15.0,0.0,0.0
5106,71.0,7.0,15.0,0.0,0.0
5107,70.0,0.0,15.0,0.0,0.0
5108,78.0,8.0,15.0,0.0,0.0
5109,63.0,0.0,15.0,0.0,0.0
5110,71.0,0.0,15.0,0.0,0.0
5111,76.0,4.0,15.0,0.0,0.0
5112,61.0,0.0,15.0,0.0,0.0
5113,63.0,0.0,15.0,0.0,0.0
5114,78.0,0.0,15.0,0.0,0.0
5115,70.0,8.0,15.0,0.0,0.0
5116,76.0,0.0,15.0,0.0,0.0
5117,61.0,0.0,15.0,0.0,0.0
5118,71.0,7.0,15.0,0.0,0.0
5119,70.0,0.0,15.0,0.0,0.0
5120,78.0,8.0,15.0,0.0,0.0
5121,63.0,0.0,15.0,0.0,0.0
5122,54.0,3.0,90.0,0.0,0.0
5123,71.0,7.0,15.0,0.0,0.0
5124,76.0,0.0,15.0,0.0,0.0
5125,61.0,0.0,15.0,0.0,0.0
5126,70.0,8.0,15.0,0.0,0.0
5127,78.0,0.0,15.0,0.0,0.0
5128,63.0,0.0,15.0,0.0,0.0
5129,71.0,0.0,15.0,0.0,0.0
5130,76.0,0.0,15.0,0.0,0.0
5131,61.0,7.0,15.0,0.0,0.0
5132,70.0,8.0,15.0,0.0,0.0
5133,78.0,0.0,15.0,0.0,0.0
5134,63.0,0.0,15.0,0.0,0.0
5135,71.0,0.0,15.0,0.0,0.0
5136,76.0,0.0,15.0,0.0,0.0
5137,61.0,7.0,15.0,0.0,0.0
5138,70.0,8.0,15.0,0.0,0.0
5139,78.0,0.0,15.0,0.0,0.0
5140,63.0,0.0,15.0,0.0,0.0
5141,71.0,7.0,15.0,0.0,0.0
5142,61.0,0.0,15.0,0.0,0.0
5143,76.0,0.0,15.0,0.0,0.0
5144,70.0,8.0,15.0,0.0,0.0
5145,78.0,0.0,15.0,0.0,0.0
5146,63.0,0.0,15.0,0.0,0.0
5147,71.0,0.0,15.0,0.0,0.0
5148,76.0,0.0,15.0,0.0,0.0
5149,61.0,4.0,15.0,0.0,0.0
5150,70.0,0.0,15.0,0.0,0.0
5151,78.0,0.0,15.0,0.0,0.0
5152,63.0,8.0,15.0,0.0,0.0
5153,71.0,7.0,15.0,0.0,0.0
5154,76.0,0.0,15.0,0.0,0.0
5155,61.0,0.0,15.0,0.0,0.0
5156,54.0,3.0,90.0,0.0,0.0
5157,78.0,0.0,15.0,0.0,0.0
5158,63.0,0.0,15.0,0.0,0.0
5159,70.0,8.0,15.0,0.0,0.0
5160,71.0,0.0,15.0,0.0,0.0
5161,76.0,7.0,15.0,0.0,0.0
5162,61.0,0.0,15.0,0.0,0.0
5163,70.0,0.0,15.0,0.0,0.0
5164,78.0,0.0,15.0,0.0,0.0
5165,63.0,8.0,15.0,0.0,0.0
5166,61.0,7.0,15.0,0.0,0.0
5167,76.0,0.0,15.0,0.0,0.0
5168,71.0,0.0,15.0,0.0,0.0
5169,78.0,0.0,15.0,0.0,0.0
5170,70.0,0.0,15.0,0.0,0.0
5171,63.0,8.0,15.0,0.0,0.0
5172,71.0,7.0,15.0,0.0,0.0
5173,76.0,0.0,15.0,0.0,0.0
5174,61.0,0.0,15.0,0.0,0.0
5175,70.0,0.0,15.0,0.0,0.0
5176,78.0,0.0,15.0,0.0,0.0
5177,63.0,8.0,15.0,0.0,0.0
5178,71.0,7.0,15.0,0.0,0.0
5179,76.0,0.0,15.0,0.0,0.0
5180,61.0,0.0,15.0,0.0,0.0
5181,63.0,8.0,15.0,0.0,0.0
5182,70.0,0.0,15.0,0.0,0.0
5183,78.0,0.0,15.0,0.0,0.0
5184,71.0,4.0,15.0,0.0,0.0
5185,76.0,0.0,15.0,0.0,0.0
5186,61.0,0.0,15.0,0.0,0.0
5187,78.0,0.0,15.0,0.0,0.0
5188,63.0,8.0,15.0,0.0,0.0
5189,70.0,0.0,15.0,0.0,0.0
5190,71.0,7.0,15.0,0.0,0.0
5191,76.0,0.0,15.0,0.0,0.0
5192,61.0,0.0,15.0,0.0,0.0
5193,54.0,3.0,90.0,0.0,0.0
5194,78.0,0.0,15.0,0.0,0.0
5195,63.0,0.0,15.0,0.0,0.0
5196,70.0,8.0,15.0,0.0,0.0
5197,76.0,0.0,15.0,0.0,0.0
5198,61.0,0.0,15.0,0.0,0.0
5199,71.0,7.0,15.0,0.0,0.0
5200,78.0,0.0,15.0,0.0,0.0
5201,63.0,0.0,15.0,0.0,0.0
5202,70.0,8.0,15.0,0.0,0.0
5203,71.0,0.0,15.0,0.0,0.0
5204,61.0,0.0,15.0,0.0,0.0
5205,76.0,7.0,15.0,0.0,0.0
5206,63.0,8.0,15.0,0.0,0.0
5207,78.0,0.0,15.0,0.0,0.0
5208,70.0,0.0,15.0,0.0,0.0
5209,61.0,7.0,15.0,0.0,0.0
5210,76.0,0.0,15.0,0.0,0.0
5211,71.0,0.0,15.0,0.0,0.0
5212,78.0,0.0,15.0,0.0,0.0
5213,70.0,0.0,15.0,0.0,0.0
5214,63.0,8.0,15.0,0.0,0.0
5215,71.0,7.0,15.0,0.0,0.0
5216,76.0,0.0,15.0,0.0,0.0
5217,61.0,0.0,15.0,0.0,0.0
5218,70.0,8.0,15.0,0.0,0.0
5219,78.0,0.0,15.0,0.0,0.0
5220,63.0,0.0,15.0,0.0,0.0
5221,71.0,0.0,15.0,0.0,0.0
5222,61.0,4.0,15.0,0.0,0.0
5223,76.0,0.0,15.0,0.0,0.0
5224,70.0,0.0,15.0,0.0,0.0
5225,78.0,0.0,15.0,0.0,0.0
5226,63.0,8.0,15.0,0.0,0.0
5227,61.0,7.0,15.0,0.0,0.0
5228,76.0,0.0,15.0,0.0,0.0
5229,71.0,0.0,15.0,0.0,0.0
5230,54.0,3.0,90.0,0.0,0.0
5231,70.0,8.0,15.0,0.0,0.0
5232,78.0,0.0,15.0,0.0,0.0
5233,63.0,0.0,15.0,0.0,0.0
5234,71.0,7.0,15.0,0.0,0.0
5235,76.0,0.0,15.0,0.0,0.0
5236,61.0,0.0,15.0,0.0,0.0
5237,70.0,0.0,15.0,0.0,0.0
5238,63.0,8.0,15.0,0.0,0.0
5239,78.0,0.0,15.0,0.0,0.0
5240,76.0,0.0,15.0,0.0,0.0
5241,61.0,0.0,15.0,0.0,0.0
5242,71.0,7.0,15.0,0.0,0.0
5243,78.0,0.0,15.0,0.0,0.0
5244,63.0,0.0,15.0,0.0,0.0
5245,70.0,8.0,15.0,0.0,0.0
5246,71.0,7.0,15.0,0.0,0.0
5247,76.0,0.0,15.0,0.0,0.0
5248,61.0,0.0,15.0,0.0,0.0
5249,70.0,8.0,15.0,0.0,0.0
5250,78.0,0.0,15.0,0.0,0.0
5251,63.0,0.0,15.0,0.0,0.0
5252,71.0,0.0,15.0,0.0,0.0
5253,76.0,0.0,15.0,0.0,0.0
5254,61.0,7.0,15.0,0.0,0.0
5255,63.0,8.0,15.0,0.0,0.0
5256,78.0,0.0,15.0,0.0,0.0
5257,70.0,0.0,15.0,0.0,0.0
5258,71.0,0.0,15.0,0.0,0.0
5259,76.0,4.0,15.0,0.0,0.0
5260,61.0,0.0,15.0,0.0,0.0
5261,78.0,0.0,15.0,0.0,0.0
5262,63.0,8.0,15.0,0.0,0.0
5263,70.0,0.0,15.0,0.0,0.0
5264,71.0,0.0,15.0,0.0,0.0
5265,76.0,0.0,15.0,0.0,0.0
5266,61.0,7.0,15.0,0.0,0.0
5267,78.0,8.0,15.0,0.0,0.0
5268,70.0,0.0,15.0,0.0,0.0
5269,54.0,3.0,90.0,0.0,0.0
5270,63.0,0.0,15.0,0.0,0.0
5271,71.0,0.0,15.0,0.0,0.0
5272,76.0,7.0,15.0,0.0,0.0
5273,61.0,0.0,15.0,0.0,0.0
5274,78.0,0.0,15.0,0.0,0.0
5275,63.0,0.0,15.0,0.0,0.0
5276,70.0,8.0,15.0,0.0,0.0
5277,71.0,7.0,15.0,0.0,0.0
5278,76.0,0.0,15.0,0.0,0.0
5279,61.0,0.0,15.0,0.0,0.0
5280,70.0,8.0,15.0,0.0,0.0
5281,78.0,0.0,15.0,0.0,0.0
5282,63.0,0.0,15.0,0.0,0.0
5283,71.0,7.0,15.0,0.0,0.0
5284,76.0,0.0,15.0,0.0,0.0
5285,61.0,0.0,15.0,0.0,0.0
5286,70.0,8.0,15.0,0.0,0.0
5287,78.0,0.0,15.0,0.0,0.0
5288,63.0,0.0,15.0,0.0,0.0
5289,61.0,7.0,15.0,0.0,0.0
5290,76.0,0.0,15.0,0.0,0.0
5291,71.0,0.0,15.0,0.0,0.0
5292,78.0,0.0,15.0,0.0,0.0
5293,63.0,0.0,15.0,0.0,0.0
5294,70.0,8.0,15.0,0.0,0.0
5295,71.0,4.0,15.0,0.0,0.0
5296,61.0,0.0,15.0,0.0,0.0
5297,76.0,0.0,15.0,0.0,0.0
5298,63.0,0.0,15.0,0.0,0.0
5299,70.0,8.0,15.0,0.0,0.0
5300,78.0,0.0,15.0,0.0,0.0
5301,71.0,7.0,15.0,0.0,0.0
5302,76.0,0.0,15.0,0.0,0.0
5303,61.0,0.0,15.0,0.0,0.0
5304,78.0,8.0,15.0,0.0,0.0
5305,63.0,0.0,15.0,0.0,0.0
5306,54.0,3.0,90.0,0.0,0.0
5307,76.0,7.0,15.0,0.0,0.0
5308,61.0,0.0,15.0,0.0,0.0
5309,78.0,0.0,15.0,0.0,0.0
5310,63.0,8.0,15.0,0.0,0.0
5311,61.0,0.0,15.0,0.0,0.0
5312,76.0,7.0,15.0,0.0,0.0
5313,63.0,8.0,15.0,0.0,0.0
5314,78.0,0.0,15.0,0.0,0.0
5315,61.0,0.0,15.0,0.0,0.0
5316,76.0,7.0,15.0,0.0,0.0
5317,63.0,0.0,15.0,0.0,0.0
5318,78.0,8.0,15.0,0.0,0.0
5319,76.0,7.0,15.0,0.0,0.0
5320,61.0,0.0,15.0,0.0,0.0
5321,78.0,8.0,15.0,0.0,0.0
5322,63.0,0.0,15.0,0.0,0.0
5323,76.0,0.0,15.0,0.0,0.0
5324,61.0,4.0,15.0,0.0,0.0
5325,63.0,0.0,15.0,0.0,0.0
5326,78.0,8.0,15.0,0.0,0.0
5327,76.0,7.0,15.0,0.0,0.0
5328,61.0,0.0,15.0,0.0,0.0
5329,78.0,8.0,15.0,0.0,0.0
5330,77.0,7.0,15.0,0.0,0.0
5331,78.0,8.0,15.0,0.0,0.0
5332,77.0,7.0,15.0,0.0,0.0
5333,78.0,8.0,15.0,0.0,0.0
5334,77.0,7.0,15.0,0.0,0.0
5335,78.0,8.0,15.0,0.0,0.0
5336,77.0,7.0,15.0,0.0,0.0
5337,78.0,8.0,15.0,0.0,0.0
5338,77.0,7.0,15.0,0.0,0.0
5339,78.0,8.0,15.0,0.0,0.0
5340,77.0,7.0,15.0,0.0,0.0
5341,79.0,8.0,15.0,0.0,0.0
5342,78.0,7.0,15.0,0.0,0.0
5343,79.0,8.0,15.0,0.0,0.0
5344,78.0,7.0,15.0,0.0,0.0
5345,79.0,8.0,15.0,0.0,0.0
5346,78.0,7.0,15.0,0.0,0.0
5347,79.0,8.0,15.0,0.0,0.0
5348,78.0,7.0,15.0,0.0,0.0
5349,79.0,8.0,15.0,0.0,0.0
5350,78.0,7.0,15.0,0.0,0.0
5351,79.0,8.0,15.0,0.0,0.0
5352,78.0,7.0,15.0,0.0,0.0
5353,79.0,8.0,15.0,0.0,0.0
5354,78.0,7.0,15.0,0.0,0.0
5355,79.0,8.0,15.0,0.0,0.0
5356,78.0,7.0,15.0,0.0,0.0
5357,79.0,8.0,15.0,0.0,0.0
5358,78.0,7.0,15.0,0.0,0.0
5359,79.0,8.0,15.0,0.0,0.0
5360,78.0,7.0,15.0,0.0,0.0
5361,79.0,8.0,15.0,0.0,0.0
5362,78.0,7.0,15.0,0.0,0.0
5363,79.0,8.0,15.0,0.0,0.0
5364,78.0,7.0,15.0,0.0,0.0
5365,80.0,8.0,15.0,0.0,0.0
5366,79.0,7.0,15.0,0.0,0.0
5367,80.0,8.0,15.0,0.0,0.0
5368,79.0,7.0,15.0,0.0,0.0
5369,80.0,8.0,15.0,0.0,0.0
5370,79.0,7.0,15.0,0.0,0.0
5371,80.0,8.0,15.0,0.0,0.0
5372,79.0,7.0,15.0,0.0,0.0
5373,80.0,8.0,15.0,0.0,0.0
5374,79.0,7.0,15.0,0.0,0.0
5375,80.0,8.0,15.0,0.0,0.0
5376,79.0,7.0,15.0,0.0,0.0
5377,81.0,8.0,15.0,0.0,0.0
5378,80.0,7.0,15.0,0.0,0.0
5379,81.0,8.0,15.0,0.0,0.0
5380,80.0,7.0,15.0,0.0,0.0
5381,81.0,8.0,15.0,0.0,0.0
5382,80.0,7.0,15.0,0.0,0.0
5383,81.0,8.0,15.0,0.0,0.0
5384,80.0,7.0,15.0,0.0,0.0
5385,81.0,8.0,15.0,0.0,0.0
5386,80.0,7.0,15.0,0.0,0.0
5387,81.0,8.0,15.0,0.0,0.0
5388,80.0,7.0,15.0,0.0,0.0
5389,81.0,8.0,15.0,0.0,0.0
5390,80.0,7.0,15.0,0.0,0.0
5391,81.0,8.0,15.0,0.0,0.0
5392,80.0,7.0,15.0,0.0,0.0
5393,81.0,8.0,15.0,0.0,0.0
5394,80.0,7.0,15.0,0.0,0.0
5395,81.0,8.0,15.0,0.0,0.0
5396,80.0,7.0,15.0,0.0,0.0
5397,81.0,8.0,15.0,0.0,0.0
5398,80.0,7.0,15.0,0.0,0.0
5399,81.0,8.0,15.0,0.0,0.0
5400,80.0,7.0,15.0,0.0,0.0
5401,82.0,8.0,15.0,0.0,0.0
5402,81.0,7.0,15.0,0.0,0.0
5403,82.0,8.0,15.0,0.0,0.0
5404,81.0,7.0,15.0,0.0,0.0
5405,82.0,8.0,15.0,0.0,0.0
5406,81.0,7.0,15.0,0.0,0.0
5407,82.0,8.0,15.0,0.0,0.0
5408,81.0,7.0,15.0,0.0,0.0
5409,82.0,8.0,15.0,0.0,0.0
5410,81.0,7.0,15.0,0.0,0.0
5411,82.0,8.0,15.0,0.0,0.0
5412,81.0,7.0,15.0,0.0,0.0
5413,83.0,8.0,15.0,0.0,0.0
5414,30.0,6.0,240.0,0.0,0.0
5415,82.0,7.0,15.0,0.0,0.0
5416,83.0,8.0,15.0,0.0,0.0
5417,82.0,7.0,15.0,0.0,0.0
5418,83.0,8.0,15.0,0.0,0.0
5419,82.0,7.0,15.0,0.0,0.0
5420,83.0,8.0,15.0,0.0,0.0
5421,82.0,7.0,15.0,0.0,0.0
5422,83.0,8.0,15.0,0.0,0.0
5423,82.0,7.0,15.0,0.0,0.0
5424,83.0,8.0,15.0,0.0,0.0
5425,82.0,7.0,15.0,0.0,0.0
5426,83.0,8.0,15.0,0.0,0.0
5427,82.0,7.0,15.0,0.0,0.0
5428,83.0,8.0,15.0,0.0,0.0
5429,82.0,7.0,15.0,0.0,0.0
5430,83.0,8.0,15.0,0.0,0.0
5431,82.0,7.0,15.0,0.0,0.0
5432,83.0,8.0,15.0,0.0,0.0
5433,82.0,7.0,15.0,0.0,0.0
5434,83.0,8.0,15.0,0.0,0.0
5435,82.0,7.0,15.0,0.0,0.0
5436,83.0,8.0,15.0,0.0,0.0
5437,82.0,7.0,15.0,0.0,0.0
5438,83.0,8.0,15.0,0.0,0.0
5439,82.0,7.0,15.0,0.0,0.0
5440,83.0,8.0,15.0,0.0,0.0
5441,82.0,7.0,15.0,0.0,0.0
5442,83.0,8.0,15.0,0.0,0.0
5443,82.0,7.0,15.0,0.0,0.0
5444,83.0,8.0,15.0,0.0,0.0
5445,82.0,7.0,15.0,0.0,0.0
5446,83.0,8.0,15.0,0.0,0.0
5447,82.0,1.0,15.0,0.0,0.0
5448,83.0,8.0,15.0,0.0,0.0
5449,82.0,7.0,15.0,0.0,0.0
5450,30.0,7.0,60.0,0.0,0.0
5451,83.0,8.0,15.0,0.0,0.0
5452,82.0,7.0,15.0,0.0,0.0
5453,83.0,8.0,15.0,0.0,0.0
5454,82.0,7.0,15.0,0.0,0.0
5455,83.0,8.0,15.0,0.0,0.0
5456,82.0,7.0,15.0,0.0,0.0
5457,83.0,1.0,15.0,0.0,0.0
5458,82.0,7.0,15.0,0.0,0.0
5459,28.0,3.0,30.0,0.0,0.0
5460,83.0,8.0,15.0,0.0,0.0
5461,82.0,7.0,15.0,0.0,0.0
5462,80.0,5.0,15.0,0.0,0.0
5463,82.0,79.0,15.0,0.0,0.0
5464,27.0,3.0,180.0,0.0,0.0
5465,83.0,87.0,90.0,0.0,0.0
5466,87.0,90.0,90.0,0.0,0.0
5467,26.0,64.0,90.0,0.0,0.0
5468,90.0,26.0,150.0,0.0,0.0
5469,25.0,8.0,90.0,0.0,0.0
5470,89.0,30.0,30.0,0.0,0.0
5471,88.0,26.0,30.0,0.0,0.0
5472,25.0,4.0,60.0,0.0,0.0
5473,76.0,30.0,30.0,0.0,0.0
5474,27.0,0.0,30.0,0.0,0.0
5475,75.0,30.0,30.0,0.0,0.0
5476,66.0,0.0,30.0,0.0,0.0
5477,68.0,0.0,60.0,0.0,0.0
5478,28.0,4.0,60.0,0.0,0.0
5479,75.0,26.0,30.0,0.0,0.0
5480,73.0,30.0,30.0,0.0,0.0
5481,29.0,30.0,30.0,0.0,0.0
5482,68.0,0.0,30.0,0.0,0.0
5483,71.0,0.0,30.0,0.0,0.0
5484,64.0,26.0,30.0,0.0,0.0
5485,61.0,0.0,30.0,0.0,0.0
5486,71.0,0.0,60.0,0.0,0.0
5487,30.0,4.0,60.0,0.0,0.0
5488,64.0,30.0,30.0,0.0,0.0
5489,61.0,0.0,30.0,0.0,0.0
5490,70.0,30.0,30.0,0.0,0.0
5491,61.0,0.0,30.0,0.0,0.0
5492,64.0,0.0,30.0,0.0,0.0
5493,61.0,30.0,30.0,0.0,0.0
5494,64.0,0.0,30.0,0.0,0.0
5495,71.0,4.0,60.0,0.0,0.0
5496,61.0,26.0,30.0,0.0,0.0
5497,64.0,0.0,30.0,0.0,0.0
5498,61.0,30.0,30.0,0.0,0.0
5499,64.0,0.0,30.0,0.0,0.0
5500,61.0,0.0,30.0,0.0,0.0
5501,64.0,30.0,30.0,0.0,0.0
5502,61.0,0.0,30.0,0.0,0.0
5503,73.0,0.0,30.0,0.0,0.0
5504,64.0,30.0,30.0,0.0,0.0
5505,66.0,30.0,30.0,0.0,0.0
5506,61.0,0.0,30.0,0.0,0.0
5507,64.0,0.0,30.0,0.0,0.0
5508,63.0,26.0,30.0,0.0,0.0
5509,66.0,4.0,60.0,0.0,0.0
5510,47.0,4.0,60.0,0.0,0.0
5511,63.0,26.0,30.0,0.0,0.0
5512,35.0,0.0,60.0,0.0,0.0
5513,63.0,30.0,30.0,0.0,0.0
5514,63.0,30.0,30.0,0.0,0.0
5515,63.0,26.0,30.0,0.0,0.0
5516,37.0,0.0,60.0,0.0,0.0
5517,49.0,4.0,60.0,0.0,0.0
5518,63.0,30.0,30.0,0.0,0.0
5519,59.0,30.0,30.0,0.0,0.0
5520,63.0,0.0,30.0,0.0,0.0
5521,59.0,0.0,30.0,0.0,0.0
5522,63.0,0.0,30.0,0.0,0.0
5523,39.0,30.0,30.0,0.0,0.0
5524,51.0,0.0,30.0,0.0,0.0
5525,59.0,0.0,30.0,0.0,0.0
5526,63.0,0.0,30.0,0.0,0.0
5527,32.0,30.0,30.0,0.0,0.0
5528,44.0,0.0,30.0,0.0,0.0
5529,61.0,0.0,30.0,0.0,0.0
5530,63.0,30.0,30.0,0.0,0.0
5531,31.0,0.0,30.0,0.0,0.0
5532,43.0,0.0,30.0,0.0,0.0
5533,61.0,26.0,30.0,0.0,0.0
5534,63.0,0.0,30.0,0.0,0.0
5535,67.0,4.0,60.0,0.0,0.0
5536,61.0,30.0,30.0,0.0,0.0
5537,63.0,0.0,30.0,0.0,0.0
5538,61.0,30.0,30.0,0.0,0.0
5539,63.0,0.0,30.0,0.0,0.0
5540,68.0,4.0,60.0,0.0,0.0
5541,61.0,26.0,30.0,0.0,0.0
5542,63.0,0.0,30.0,0.0,0.0
5543,61.0,30.0,30.0,0.0,0.0
5544,63.0,0.0,30.0,0.0,0.0
5545,61.0,0.0,30.0,0.0,0.0
5546,63.0,30.0,30.0,0.0,0.0
5547,63.0,0.0,30.0,0.0,0.0
5548,70.0,0.0,30.0,0.0,0.0
5549,61.0,30.0,30.0,0.0,0.0
5550,63.0,30.0,30.0,0.0,0.0
5551,61.0,0.0,30.0,0.0,0.0
5552,59.0,26.0,30.0,0.0,0.0
5553,63.0,4.0,60.0,0.0,0.0
5554,44.0,4.0,60.0,0.0,0.0
5555,32.0,0.0,60.0,0.0,0.0
5556,59.0,26.0,30.0,0.0,0.0
5557,59.0,30.0,30.0,0.0,0.0
5558,59.0,30.0,30.0,0.0,0.0
5559,45.0,4.0,60.0,0.0,0.0
5560,59.0,26.0,30.0,0.0,0.0
5561,33.0,0.0,60.0,0.0,0.0
5562,59.0,30.0,30.0,0.0,0.0
5563,56.0,30.0,30.0,0.0,0.0
5564,59.0,0.0,30.0,0.0,0.0
5565,56.0,0.0,30.0,0.0,0.0
5566,59.0,0.0,30.0,0.0,0.0
5567,35.0,30.0,30.0,0.0,0.0
5568,47.0,0.0,30.0,0.0,0.0
5569,56.0,0.0,30.0,0.0,0.0
5570,59.0,0.0,30.0,0.0,0.0
5571,28.0,30.0,30.0,0.0,0.0
5572,40.0,0.0,30.0,0.0,0.0
5573,57.0,0.0,30.0,0.0,0.0
5574,59.0,0.0,30.0,0.0,0.0
5575,27.0,0.0,30.0,0.0,0.0
5576,39.0,30.0,30.0,0.0,0.0
5577,59.0,26.0,30.0,0.0,0.0
5578,63.0,4.0,60.0,0.0,0.0
5579,57.0,0.0,30.0,0.0,0.0
5580,57.0,30.0,30.0,0.0,0.0
5581,59.0,0.0,30.0,0.0,0.0
5582,57.0,30.0,30.0,0.0,0.0
5583,59.0,0.0,30.0,0.0,0.0
5584,59.0,0.0,30.0,0.0,0.0
5585,64.0,4.0,60.0,0.0,0.0
5586,57.0,26.0,30.0,0.0,0.0
5587,57.0,30.0,30.0,0.0,0.0
5588,59.0,0.0,30.0,0.0,0.0
5589,57.0,0.0,30.0,0.0,0.0
5590,59.0,30.0,30.0,0.0,0.0
5591,59.0,0.0,30.0,0.0,0.0
5592,66.0,30.0,30.0,0.0,0.0
5593,57.0,0.0,30.0,0.0,0.0
5594,57.0,30.0,30.0,0.0,0.0
5595,59.0,0.0,30.0,0.0,0.0
5596,57.0,26.0,30.0,0.0,0.0
5597,59.0,4.0,60.0,0.0,0.0
5598,52.0,0.0,60.0,0.0,0.0
5599,40.0,4.0,60.0,0.0,0.0
5600,56.0,26.0,30.0,0.0,0.0
5601,59.0,30.0,30.0,0.0,0.0
5602,56.0,0.0,30.0,0.0,0.0
5603,59.0,0.0,30.0,0.0,0.0
5604,56.0,30.0,30.0,0.0,0.0
5605,56.0,0.0,30.0,0.0,0.0
5606,58.0,0.0,30.0,0.0,0.0
5607,65.0,26.0,30.0,0.0,0.0
5608,50.0,4.0,60.0,0.0,0.0
5609,38.0,0.0,60.0,0.0,0.0
5610,56.0,0.0,30.0,0.0,0.0
5611,58.0,30.0,30.0,0.0,0.0
5612,56.0,26.0,30.0,0.0,0.0
5613,58.0,4.0,60.0,0.0,0.0
5614,39.0,0.0,60.0,0.0,0.0
5615,51.0,4.0,60.0,0.0,0.0
5616,55.0,26.0,30.0,0.0,0.0
5617,55.0,0.0,30.0,0.0,0.0
5618,58.0,30.0,30.0,0.0,0.0
5619,54.0,30.0,30.0,0.0,0.0
5620,57.0,0.0,30.0,0.0,0.0
5621,63.0,0.0,30.0,0.0,0.0
5622,72.0,4.0,60.0,0.0,0.0
5623,58.0,26.0,30.0,0.0,0.0
5624,54.0,0.0,30.0,0.0,0.0
5625,56.0,30.0,30.0,0.0,0.0
5626,54.0,0.0,30.0,0.0,0.0
5627,56.0,4.0,60.0,0.0,0.0
5628,54.0,26.0,30.0,0.0,0.0
5629,73.0,4.0,60.0,0.0,0.0
5630,53.0,26.0,30.0,0.0,0.0
5631,53.0,30.0,30.0,0.0,0.0
5632,56.0,0.0,30.0,0.0,0.0
5633,52.0,30.0,30.0,0.0,0.0
5634,55.0,0.0,30.0,0.0,0.0
5635,52.0,0.0,30.0,0.0,0.0
5636,61.0,0.0,30.0,0.0,0.0
5637,54.0,26.0,30.0,0.0,0.0
5638,70.0,4.0,60.0,0.0,0.0
5639,52.0,30.0,30.0,0.0,0.0
5640,54.0,0.0,30.0,0.0,0.0
5641,52.0,26.0,30.0,0.0,0.0
5642,54.0,4.0,60.0,0.0,0.0
5643,51.0,26.0,30.0,0.0,0.0
5644,35.0,0.0,60.0,0.0,0.0
5645,47.0,4.0,60.0,0.0,0.0
5646,51.0,0.0,30.0,0.0,0.0
5647,54.0,30.0,30.0,0.0,0.0
5648,51.0,30.0,30.0,0.0,0.0
5649,54.0,0.0,30.0,0.0,0.0
5650,51.0,26.0,30.0,0.0,0.0
5651,59.0,0.0,30.0,0.0,0.0
5652,44.0,4.0,60.0,0.0,0.0
5653,32.0,0.0,60.0,0.0,0.0
5654,51.0,0.0,30.0,0.0,0.0
5655,53.0,30.0,30.0,0.0,0.0
5656,51.0,26.0,30.0,0.0,0.0
5657,53.0,4.0,60.0,0.0,0.0
5658,34.0,0.0,30.0,0.0,0.0
5659,46.0,0.0,30.0,0.0,0.0
5660,50.0,0.0,30.0,0.0,0.0
5661,32.0,0.0,30.0,0.0,0.0
5662,44.0,30.0,30.0,0.0,0.0
5663,50.0,30.0,30.0,0.0,0.0
5664,53.0,0.0,30.0,0.0,0.0
5665,58.0,0.0,30.0,0.0,0.0
5666,49.0,0.0,30.0,0.0,0.0
5667,52.0,0.0,30.0,0.0,0.0
5668,43.0,0.0,30.0,0.0,0.0
5669,31.0,0.0,30.0,0.0,0.0
5670,58.0,30.0,30.0,0.0,0.0
5671,49.0,0.0,30.0,0.0,0.0
5672,51.0,26.0,30.0,0.0,0.0
5673,58.0,0.0,30.0,0.0,0.0
5674,67.0,4.0,60.0,0.0,0.0
5675,49.0,30.0,30.0,0.0,0.0
5676,51.0,0.0,30.0,0.0,0.0
5677,49.0,30.0,30.0,0.0,0.0
5678,51.0,0.0,30.0,0.0,0.0
5679,68.0,4.0,60.0,0.0,0.0
5680,51.0,0.0,30.0,0.0,0.0
5681,47.0,26.0,30.0,0.0,0.0
5682,47.0,0.0,30.0,0.0,0.0
5683,51.0,0.0,30.0,0.0,0.0
5684,56.0,30.0,30.0,0.0,0.0
5685,47.0,0.0,30.0,0.0,0.0
5686,50.0,0.0,30.0,0.0,0.0
5687,56.0,30.0,30.0,0.0,0.0
5688,47.0,0.0,30.0,0.0,0.0
5689,65.0,4.0,60.0,0.0,0.0
5690,49.0,26.0,30.0,0.0,0.0
5691,56.0,0.0,30.0,0.0,0.0
5692,47.0,30.0,30.0,0.0,0.0
5693,49.0,0.0,30.0,0.0,0.0
5694,47.0,30.0,30.0,0.0,0.0
5695,49.0,0.0,30.0,0.0,0.0
5696,49.0,0.0,30.0,0.0,0.0
5697,30.0,4.0,60.0,0.0,0.0
5698,42.0,0.0,60.0,0.0,0.0
5699,46.0,26.0,30.0,0.0,0.0
5700,54.0,30.0,30.0,0.0,0.0
5701,46.0,0.0,30.0,0.0,0.0
5702,49.0,0.0,30.0,0.0,0.0
5703,46.0,30.0,30.0,0.0,0.0
5704,47.0,0.0,30.0,0.0,0.0
5705,54.0,0.0,30.0,0.0,0.0
5706,46.0,0.0,30.0,0.0,0.0
5707,47.0,0.0,30.0,0.0,0.0
5708,39.0,0.0,60.0,0.0,0.0
5709,27.0,4.0,60.0,0.0,0.0
5710,54.0,26.0,30.0,0.0,0.0
5711,47.0,12.0,30.0,0.0,0.0
5712,46.0,0.0,30.0,0.0,0.0
5713,44.0,0.0,30.0,0.0,0.0
5714,47.0,2.0,30.0,0.0,0.0
5715,28.0,10.0,15.0,0.0,0.0
5716,40.0,8.0,15.0,0.0,0.0
5717,28.0,10.0,15.0,0.0,0.0
5718,44.0,0.0,30.0,0.0,0.0
5719,47.0,2.0,30.0,0.0,0.0
5720,40.0,10.0,15.0,0.0,0.0
5721,28.0,8.0,15.0,0.0,0.0
5722,40.0,10.0,15.0,0.0,0.0
5723,28.0,10.0,15.0,0.0,0.0
5724,47.0,2.0,30.0,0.0,0.0
5725,56.0,0.0,30.0,0.0,0.0
5726,40.0,8.0,15.0,0.0,0.0
5727,28.0,10.0,15.0,0.0,0.0
5728,56.0,2.0,30.0,0.0,0.0
5729,59.0,0.0,30.0,0.0,0.0
5730,38.0,10.0,15.0,0.0,0.0
5731,26.0,8.0,15.0,0.0,0.0
5732,38.0,10.0,15.0,0.0,0.0
5733,56.0,2.0,30.0,0.0,0.0
5734,59.0,0.0,30.0,0.0,0.0
5735,26.0,10.0,15.0,0.0,0.0
5736,38.0,8.0,15.0,0.0,0.0
5737,26.0,10.0,15.0,0.0,0.0
5738,68.0,0.0,30.0,0.0,0.0
5739,38.0,10.0,15.0,0.0,0.0
5740,59.0,2.0,30.0,0.0,0.0
5741,26.0,8.0,15.0,0.0,0.0
5742,38.0,10.0,15.0,0.0,0.0
5743,58.0,0.0,30.0,0.0,0.0
5744,68.0,2.0,30.0,0.0,0.0
5745,27.0,10.0,15.0,0.0,0.0
5746,39.0,8.0,15.0,0.0,0.0
5747,27.0,10.0,15.0,0.0,0.0
5748,58.0,2.0,30.0,0.0,0.0
5749,68.0,0.0,30.0,0.0,0.0
5750,39.0,10.0,15.0,0.0,0.0
5751,27.0,8.0,15.0,0.0,0.0
5752,39.0,10.0,15.0,0.0,0.0
5753,58.0,0.0,30.0,0.0,0.0
5754,67.0,2.0,30.0,0.0,0.0
5755,27.0,10.0,15.0,0.0,0.0
5756,39.0,8.0,15.0,0.0,0.0
5757,27.0,10.0,15.0,0.0,0.0
5758,39.0,10.0,15.0,0.0,0.0
5759,68.0,0.0,60.0,0.0,0.0
5760,60.0,2.0,30.0,0.0,0.0
5761,56.0,0.0,30.0,0.0,0.0
5762,32.0,8.0,15.0,0.0,0.0
5763,36.0,10.0,15.0,0.0,0.0
5764,56.0,2.0,30.0,0.0,0.0
5765,60.0,0.0,30.0,0.0,0.0
5766,39.0,10.0,15.0,0.0,0.0
5767,44.0,8.0,15.0,0.0,0.0
5768,48.0,10.0,15.0,0.0,0.0
5769,44.0,10.0,15.0,0.0,0.0
5770,60.0,2.0,30.0,0.0,0.0
5771,56.0,0.0,30.0,0.0,0.0
5772,63.0,0.0,30.0,0.0,0.0
5773,48.0,8.0,15.0,0.0,0.0
5774,51.0,10.0,15.0,0.0,0.0
5775,60.0,2.0,30.0,0.0,0.0
5776,63.0,3.0,180.0,0.0,0.0
5777,44.0,10.0,15.0,0.0,0.0
5778,48.0,8.0,15.0,0.0,0.0
5779,51.0,10.0,15.0,0.0,0.0
5780,43.0,10.0,15.0,0.0,0.0
5781,58.0,2.0,30.0,0.0,0.0
5782,46.0,8.0,15.0,0.0,0.0
5783,51.0,10.0,15.0,0.0,0.0
5784,60.0,2.0,30.0,0.0,0.0
5785,44.0,10.0,15.0,0.0,0.0
5786,48.0,8.0,15.0,0.0,0.0
5787,51.0,10.0,15.0,0.0,0.0
5788,61.0,2.0,30.0,0.0,0.0
5789,46.0,10.0,15.0,0.0,0.0
5790,49.0,8.0,15.0,0.0,0.0
5791,51.0,10.0,15.0,0.0,0.0
5792,60.0,2.0,30.0,0.0,0.0
5793,44.0,10.0,15.0,0.0,0.0
5794,48.0,8.0,15.0,0.0,0.0
5795,51.0,10.0,15.0,0.0,0.0
5796,61.0,2.0,30.0,0.0,0.0
5797,46.0,7.0,15.0,0.0,0.0
5798,49.0,8.0,15.0,0.0,0.0
5799,51.0,10.0,15.0,0.0,0.0
5800,58.0,2.0,30.0,0.0,0.0
5801,70.0,4.0,60.0,0.0,0.0
5802,43.0,10.0,15.0,0.0,0.0
5803,46.0,8.0,15.0,0.0,0.0
5804,51.0,10.0,15.0,0.0,0.0
5805,56.0,2.0,30.0,0.0,0.0
5806,41.0,10.0,15.0,0.0,0.0
5807,44.0,4.0,15.0,0.0,0.0
5808,51.0,10.0,15.0,0.0,0.0
5809,58.0,2.0,30.0,0.0,0.0
5810,61.0,0.0,30.0,0.0,0.0
5811,63.0,0.0,30.0,0.0,0.0
5812,43.0,10.0,15.0,0.0,0.0
5813,46.0,8.0,15.0,0.0,0.0
5814,51.0,10.0,15.0,0.0,0.0
5815,63.0,3.0,180.0,0.0,0.0
5816,43.0,10.0,15.0,0.0,0.0
5817,58.0,2.0,30.0,0.0,0.0
5818,46.0,8.0,15.0,0.0,0.0
5819,51.0,10.0,15.0,0.0,0.0
5820,60.0,2.0,30.0,0.0,0.0
5821,44.0,10.0,15.0,0.0,0.0
5822,48.0,8.0,15.0,0.0,0.0
5823,51.0,10.0,15.0,0.0,0.0
5824,58.0,2.0,30.0,0.0,0.0
5825,43.0,10.0,15.0,0.0,0.0
5826,46.0,8.0,15.0,0.0,0.0
5827,51.0,10.0,15.0,0.0,0.0
5828,60.0,2.0,30.0,0.0,0.0
5829,44.0,10.0,15.0,0.0,0.0
5830,48.0,8.0,15.0,0.0,0.0
5831,51.0,10.0,15.0,0.0,0.0
5832,61.0,2.0,30.0,0.0,0.0
5833,46.0,10.0,15.0,0.0,0.0
5834,49.0,8.0,15.0,0.0,0.0
5835,51.0,10.0,15.0,0.0,0.0
5836,60.0,2.0,30.0,0.0,0.0
5837,44.0,7.0,15.0,0.0,0.0
5838,48.0,8.0,15.0,0.0,0.0
5839,51.0,10.0,15.0,0.0,0.0
5840,61.0,2.0,30.0,0.0,0.0
5841,63.0,8.0,90.0,0.0,0.0
5842,46.0,10.0,15.0,0.0,0.0
5843,49.0,8.0,15.0,0.0,0.0
5844,51.0,10.0,15.0,0.0,0.0
5845,60.0,2.0,30.0,0.0,0.0
5846,45.0,10.0,15.0,0.0,0.0
5847,48.0,8.0,15.0,0.0,0.0
5848,51.0,10.0,15.0,0.0,0.0
5849,61.0,2.0,30.0,0.0,0.0
5850,46.0,10.0,15.0,0.0,0.0
5851,49.0,0.0,15.0,0.0,0.0
5852,51.0,10.0,15.0,0.0,0.0
5853,63.0,8.0,90.0,0.0,0.0
5854,56.0,2.0,30.0,0.0,0.0
5855,48.0,10.0,15.0,0.0,0.0
5856,51.0,8.0,15.0,0.0,0.0
5857,48.0,10.0,15.0,0.0,0.0
5858,55.0,2.0,30.0,0.0,0.0
5859,51.0,10.0,15.0,0.0,0.0
5860,48.0,8.0,15.0,0.0,0.0
5861,51.0,10.0,15.0,0.0,0.0
5862,48.0,10.0,15.0,0.0,0.0
5863,56.0,2.0,30.0,0.0,0.0
5864,51.0,0.0,15.0,0.0,0.0
5865,48.0,10.0,15.0,0.0,0.0
5866,60.0,2.0,30.0,0.0,0.0
5867,72.0,0.0,90.0,0.0,0.0
5868,44.0,10.0,15.0,0.0,0.0
5869,51.0,8.0,15.0,0.0,0.0
5870,44.0,10.0,15.0,0.0,0.0
5871,58.0,2.0,30.0,0.0,0.0
5872,51.0,10.0,15.0,0.0,0.0
5873,44.0,8.0,15.0,0.0,0.0
5874,51.0,10.0,15.0,0.0,0.0
5875,60.0,2.0,30.0,0.0,0.0
5876,44.0,10.0,15.0,0.0,0.0
5877,51.0,8.0,15.0,0.0,0.0
5878,44.0,10.0,15.0,0.0,0.0
5879,63.0,2.0,30.0,0.0,0.0
5880,68.0,8.0,90.0,0.0,0.0
5881,48.0,10.0,15.0,0.0,0.0
5882,51.0,8.0,15.0,0.0,0.0
5883,48.0,10.0,15.0,0.0,0.0
5884,61.0,2.0,30.0,0.0,0.0
5885,51.0,10.0,15.0,0.0,0.0
5886,46.0,8.0,15.0,0.0,0.0
5887,51.0,10.0,15.0,0.0,0.0
5888,60.0,2.0,30.0,0.0,0.0
5889,44.0,10.0,15.0,0.0,0.0
5890,51.0,0.0,15.0,0.0,0.0
5891,44.0,10.0,15.0,0.0,0.0
5892,68.0,8.0,90.0,0.0,0.0
5893,39.0,10.0,15.0,0.0,0.0
5894,60.0,2.0,30.0,0.0,0.0
5895,50.0,8.0,15.0,0.0,0.0
5896,51.0,10.0,15.0,0.0,0.0
5897,59.0,2.0,30.0,0.0,0.0
5898,38.0,10.0,15.0,0.0,0.0
5899,50.0,8.0,15.0,0.0,0.0
5900,51.0,10.0,15.0,0.0,0.0
5901,60.0,2.0,30.0,0.0,0.0
5902,39.0,10.0,15.0,0.0,0.0
5903,50.0,0.0,15.0,0.0,0.0
5904,51.0,10.0,15.0,0.0,0.0
5905,58.0,2.0,30.0,0.0,0.0
5906,39.0,10.0,15.0,0.0,0.0
5907,67.0,8.0,90.0,0.0,0.0
5908,50.0,8.0,15.0,0.0,0.0
5909,51.0,10.0,15.0,0.0,0.0
5910,58.0,2.0,30.0,0.0,0.0
5911,38.0,10.0,15.0,0.0,0.0
5912,50.0,8.0,15.0,0.0,0.0
5913,51.0,10.0,15.0,0.0,0.0
5914,39.0,10.0,15.0,0.0,0.0
5915,58.0,2.0,30.0,0.0,0.0
5916,50.0,0.0,15.0,0.0,0.0
5917,51.0,10.0,15.0,0.0,0.0
5918,58.0,0.0,30.0,0.0,0.0
5919,63.0,2.0,30.0,0.0,0.0
5920,67.0,0.0,90.0,0.0,0.0
5921,39.0,10.0,15.0,0.0,0.0
5922,50.0,8.0,15.0,0.0,0.0
5923,51.0,10.0,15.0,0.0,0.0
5924,58.0,2.0,30.0,0.0,0.0
5925,63.0,0.0,30.0,0.0,0.0
5926,38.0,10.0,15.0,0.0,0.0
5927,50.0,8.0,15.0,0.0,0.0
5928,51.0,10.0,15.0,0.0,0.0
5929,58.0,2.0,30.0,0.0,0.0
5930,63.0,0.0,30.0,0.0,0.0
5931,37.0,10.0,15.0,0.0,0.0
5932,50.0,8.0,15.0,0.0,0.0
5933,51.0,10.0,15.0,0.0,0.0
5934,63.0,2.0,30.0,0.0,0.0
5935,72.0,8.0,90.0,0.0,0.0
5936,36.0,10.0,15.0,0.0,0.0
5937,44.0,8.0,15.0,0.0,0.0
5938,51.0,10.0,15.0,0.0,0.0
5939,35.0,10.0,15.0,0.0,0.0
5940,62.0,2.0,30.0,0.0,0.0
5941,44.0,8.0,15.0,0.0,0.0
5942,51.0,10.0,15.0,0.0,0.0
5943,63.0,2.0,30.0,0.0,0.0
5944,36.0,10.0,15.0,0.0,0.0
5945,44.0,0.0,15.0,0.0,0.0
5946,51.0,10.0,15.0,0.0,0.0
5947,60.0,2.0,30.0,0.0,0.0
5948,72.0,0.0,90.0,0.0,0.0
5949,44.0,10.0,15.0,0.0,0.0
5950,48.0,8.0,15.0,0.0,0.0
5951,51.0,10.0,15.0,0.0,0.0
5952,63.0,2.0,30.0,0.0,0.0
5953,43.0,10.0,15.0,0.0,0.0
5954,46.0,8.0,15.0,0.0,0.0
5955,51.0,10.0,15.0,0.0,0.0
5956,44.0,10.0,15.0,0.0,0.0
5957,63.0,2.0,30.0,0.0,0.0
5958,48.0,8.0,15.0,0.0,0.0
5959,51.0,10.0,15.0,0.0,0.0
5960,70.0,2.0,30.0,0.0,0.0
5961,75.0,8.0,90.0,0.0,0.0
5962,42.0,10.0,15.0,0.0,0.0
5963,46.0,8.0,15.0,0.0,0.0
5964,51.0,10.0,15.0,0.0,0.0
5965,69.0,2.0,30.0,0.0,0.0
5966,41.0,10.0,15.0,0.0,0.0
5967,44.0,8.0,15.0,0.0,0.0
5968,51.0,10.0,15.0,0.0,0.0
5969,42.0,10.0,15.0,0.0,0.0
5970,70.0,2.0,30.0,0.0,0.0
5971,46.0,0.0,15.0,0.0,0.0
5972,51.0,10.0,15.0,0.0,0.0
5973,75.0,8.0,90.0,0.0,0.0
5974,41.0,10.0,15.0,0.0,0.0
5975,69.0,2.0,30.0,0.0,0.0
5976,48.0,8.0,15.0,0.0,0.0
5977,51.0,10.0,15.0,0.0,0.0
5978,67.0,2.0,30.0,0.0,0.0
5979,53.0,10.0,15.0,0.0,0.0
5980,51.0,8.0,15.0,0.0,0.0
5981,48.0,10.0,15.0,0.0,0.0
5982,69.0,2.0,30.0,0.0,0.0
5983,41.0,10.0,15.0,0.0,0.0
5984,48.0,0.0,15.0,0.0,0.0
5985,51.0,10.0,15.0,0.0,0.0
5986,70.0,2.0,30.0,0.0,0.0
5987,73.0,8.0,90.0,0.0,0.0
5988,41.0,10.0,15.0,0.0,0.0
5989,46.0,8.0,15.0,0.0,0.0
5990,49.0,10.0,15.0,0.0,0.0
5991,69.0,2.0,30.0,0.0,0.0
5992,53.0,10.0,15.0,0.0,0.0
5993,49.0,8.0,15.0,0.0,0.0
5994,46.0,10.0,15.0,0.0,0.0
5995,70.0,2.0,30.0,0.0,0.0
5996,41.0,10.0,15.0,0.0,0.0
5997,46.0,0.0,15.0,0.0,0.0
5998,49.0,10.0,15.0,0.0,0.0
5999,41.0,10.0,15.0,0.0,0.0
6000,70.0,4.0,60.0,0.0,0.0
6001,61.0,2.0,30.0,0.0,0.0
6002,46.0,8.0,15.0,0.0,0.0
6003,49.0,10.0,15.0,0.0,0.0
6004,61.0,2.0,30.0,0.0,0.0
6005,41.0,10.0,15.0,0.0,0.0
6006,46.0,4.0,15.0,0.0,0.0
6007,49.0,10.0,15.0,0.0,0.0
6008,62.0,2.0,30.0,0.0,0.0
6009,40.0,10.0,15.0,0.0,0.0
6010,68.0,0.0,30.0,0.0,0.0
6011,46.0,8.0,15.0,0.0,0.0
6012,50.0,10.0,15.0,0.0,0.0
6013,67.0,8.0,90.0,0.0,0.0
6014,39.0,10.0,15.0,0.0,0.0
6015,63.0,2.0,30.0,0.0,0.0
6016,46.0,8.0,15.0,0.0,0.0
6017,51.0,10.0,15.0,0.0,0.0
6018,41.0,10.0,15.0,0.0,0.0
6019,65.0,2.0,30.0,0.0,0.0
6020,46.0,8.0,15.0,0.0,0.0
6021,51.0,10.0,15.0,0.0,0.0
6022,41.0,10.0,15.0,0.0,0.0
6023,63.0,2.0,30.0,0.0,0.0
6024,46.0,0.0,15.0,0.0,0.0
6025,51.0,10.0,15.0,0.0,0.0
6026,62.0,2.0,30.0,0.0,0.0
6027,68.0,8.0,90.0,0.0,0.0
6028,39.0,10.0,15.0,0.0,0.0
6029,44.0,8.0,15.0,0.0,0.0
6030,53.0,10.0,15.0,0.0,0.0
6031,63.0,2.0,30.0,0.0,0.0
6032,39.0,10.0,15.0,0.0,0.0
6033,46.0,8.0,15.0,0.0,0.0
6034,53.0,10.0,15.0,0.0,0.0
6035,62.0,2.0,30.0,0.0,0.0
6036,39.0,10.0,15.0,0.0,0.0
6037,46.0,0.0,15.0,0.0,0.0
6038,53.0,10.0,15.0,0.0,0.0
6039,61.0,2.0,30.0,0.0,0.0
6040,39.0,10.0,15.0,0.0,0.0
6041,70.0,4.0,60.0,0.0,0.0
6042,51.0,8.0,15.0,0.0,0.0
6043,55.0,10.0,15.0,0.0,0.0
6044,61.0,2.0,30.0,0.0,0.0
6045,41.0,10.0,15.0,0.0,0.0
6046,51.0,4.0,15.0,0.0,0.0
6047,56.0,10.0,15.0,0.0,0.0
6048,43.0,10.0,15.0,0.0,0.0
6049,61.0,2.0,30.0,0.0,0.0
6050,63.0,0.0,30.0,0.0,0.0
6051,51.0,8.0,15.0,0.0,0.0
6052,58.0,10.0,15.0,0.0,0.0
6053,61.0,0.0,30.0,0.0,0.0
6054,63.0,4.0,150.0,0.0,0.0
6055,43.0,10.0,15.0,0.0,0.0
6056,58.0,2.0,30.0,0.0,0.0
6057,51.0,8.0,15.0,0.0,0.0
6058,55.0,10.0,15.0,0.0,0.0
6059,60.0,0.0,30.0,0.0,0.0
6060,56.0,2.0,30.0,0.0,0.0
6061,44.0,10.0,15.0,0.0,0.0
6062,48.0,8.0,15.0,0.0,0.0
6063,51.0,10.0,15.0,0.0,0.0
6064,46.0,10.0,15.0,0.0,0.0
6065,55.0,0.0,30.0,0.0,0.0
6066,61.0,2.0,30.0,0.0,0.0
6067,49.0,8.0,15.0,0.0,0.0
6068,51.0,10.0,15.0,0.0,0.0
6069,46.0,10.0,15.0,0.0,0.0
6070,55.0,2.0,30.0,0.0,0.0
6071,61.0,0.0,30.0,0.0,0.0
6072,49.0,8.0,15.0,0.0,0.0
6073,51.0,10.0,15.0,0.0,0.0
6074,44.0,10.0,15.0,0.0,0.0
6075,56.0,0.0,30.0,0.0,0.0
6076,60.0,2.0,30.0,0.0,0.0
6077,48.0,4.0,15.0,0.0,0.0
6078,51.0,10.0,15.0,0.0,0.0
6079,58.0,2.0,30.0,0.0,0.0
6080,43.0,10.0,15.0,0.0,0.0
6081,60.0,0.0,30.0,0.0,0.0
6082,48.0,8.0,15.0,0.0,0.0
6083,52.0,10.0,15.0,0.0,0.0
6084,58.0,2.0,30.0,0.0,0.0
6085,60.0,2.0,60.0,0.0,0.0
6086,43.0,10.0,15.0,0.0,0.0
6087,48.0,8.0,15.0,0.0,0.0
6088,52.0,10.0,15.0,0.0,0.0
6089,41.0,10.0,15.0,0.0,0.0
6090,56.0,0.0,30.0,0.0,0.0
6091,48.0,8.0,15.0,0.0,0.0
6092,52.0,10.0,15.0,0.0,0.0
6093,55.0,0.0,30.0,0.0,0.0
6094,60.0,2.0,30.0,0.0,0.0
6095,40.0,10.0,15.0,0.0,0.0
6096,48.0,8.0,15.0,0.0,0.0
6097,52.0,10.0,15.0,0.0,0.0
6098,56.0,2.0,30.0,0.0,0.0
6099,60.0,0.0,30.0,0.0,0.0
6100,68.0,3.0,180.0,0.0,0.0
6101,41.0,10.0,15.0,0.0,0.0
6102,48.0,8.0,15.0,0.0,0.0
6103,53.0,10.0,15.0,0.0,0.0
6104,60.0,2.0,30.0,0.0,0.0
6105,40.0,10.0,15.0,0.0,0.0
6106,48.0,8.0,15.0,0.0,0.0
6107,52.0,10.0,15.0,0.0,0.0
6108,60.0,2.0,30.0,0.0,0.0
6109,41.0,10.0,15.0,0.0,0.0
6110,48.0,8.0,15.0,0.0,0.0
6111,53.0,10.0,15.0,0.0,0.0
6112,41.0,10.0,15.0,0.0,0.0
6113,60.0,2.0,30.0,0.0,0.0
6114,48.0,8.0,15.0,0.0,0.0
6115,53.0,10.0,15.0,0.0,0.0
6116,40.0,10.0,15.0,0.0,0.0
6117,60.0,2.0,30.0,0.0,0.0
6118,48.0,8.0,15.0,0.0,0.0
6119,52.0,10.0,15.0,0.0,0.0
6120,60.0,2.0,30.0,0.0,0.0
6121,41.0,7.0,15.0,0.0,0.0
6122,48.0,8.0,15.0,0.0,0.0
6123,53.0,10.0,15.0,0.0,0.0
6124,68.0,4.0,60.0,0.0,0.0
6125,60.0,2.0,30.0,0.0,0.0
6126,41.0,10.0,15.0,0.0,0.0
6127,48.0,8.0,15.0,0.0,0.0
6128,53.0,10.0,15.0,0.0,0.0
6129,60.0,2.0,30.0,0.0,0.0
6130,41.0,10.0,15.0,0.0,0.0
6131,48.0,4.0,15.0,0.0,0.0
6132,53.0,10.0,15.0,0.0,0.0
6133,60.0,2.0,30.0,0.0,0.0
6134,67.0,0.0,30.0,0.0,0.0
6135,40.0,10.0,15.0,0.0,0.0
6136,48.0,8.0,15.0,0.0,0.0
6137,55.0,10.0,15.0,0.0,0.0
6138,60.0,2.0,30.0,0.0,0.0
6139,67.0,3.0,180.0,0.0,0.0
6140,40.0,10.0,15.0,0.0,0.0
6141,48.0,8.0,15.0,0.0,0.0
6142,55.0,10.0,15.0,0.0,0.0
6143,60.0,2.0,30.0,0.0,0.0
6144,41.0,10.0,15.0,0.0,0.0
6145,48.0,8.0,15.0,0.0,0.0
6146,55.0,10.0,15.0,0.0,0.0
6147,60.0,2.0,30.0,0.0,0.0
6148,40.0,10.0,15.0,0.0,0.0
6149,48.0,8.0,15.0,0.0,0.0
6150,55.0,10.0,15.0,0.0,0.0
6151,60.0,2.0,30.0,0.0,0.0
6152,40.0,10.0,15.0,0.0,0.0
6153,48.0,8.0,15.0,0.0,0.0
6154,55.0,10.0,15.0,0.0,0.0
6155,60.0,2.0,30.0,0.0,0.0
6156,41.0,10.0,15.0,0.0,0.0
6157,48.0,8.0,15.0,0.0,0.0
6158,55.0,10.0,15.0,0.0,0.0
6159,60.0,2.0,30.0,0.0,0.0
6160,40.0,7.0,15.0,0.0,0.0
6161,48.0,8.0,15.0,0.0,0.0
6162,55.0,10.0,15.0,0.0,0.0
6163,60.0,2.0,30.0,0.0,0.0
6164,67.0,4.0,60.0,0.0,0.0
6165,40.0,10.0,15.0,0.0,0.0
6166,48.0,8.0,15.0,0.0,0.0
6167,55.0,10.0,15.0,0.0,0.0
6168,41.0,10.0,15.0,0.0,0.0
6169,60.0,2.0,30.0,0.0,0.0
6170,48.0,4.0,15.0,0.0,0.0
6171,53.0,10.0,15.0,0.0,0.0
6172,60.0,0.0,30.0,0.0,0.0
6173,67.0,2.0,30.0,0.0,0.0
6174,72.0,0.0,30.0,0.0,0.0
6175,40.0,10.0,15.0,0.0,0.0
6176,48.0,8.0,15.0,0.0,0.0
6177,55.0,10.0,15.0,0.0,0.0
6178,60.0,2.0,30.0,0.0,0.0
6179,67.0,0.0,30.0,0.0,0.0
6180,72.0,8.0,90.0,0.0,0.0
6181,39.0,10.0,15.0,0.0,0.0
6182,48.0,8.0,15.0,0.0,0.0
6183,55.0,10.0,15.0,0.0,0.0
6184,41.0,10.0,15.0,0.0,0.0
6185,67.0,2.0,30.0,0.0,0.0
6186,60.0,0.0,30.0,0.0,0.0
6187,48.0,8.0,15.0,0.0,0.0
6188,55.0,10.0,15.0,0.0,0.0
6189,39.0,10.0,15.0,0.0,0.0
6190,60.0,2.0,30.0,0.0,0.0
6191,67.0,0.0,30.0,0.0,0.0
6192,48.0,0.0,15.0,0.0,0.0
6193,55.0,10.0,15.0,0.0,0.0
6194,60.0,0.0,30.0,0.0,0.0
6195,68.0,2.0,30.0,0.0,0.0
6196,72.0,8.0,90.0,0.0,0.0
6197,41.0,10.0,15.0,0.0,0.0
6198,48.0,8.0,15.0,0.0,0.0
6199,56.0,10.0,15.0,0.0,0.0
6200,60.0,2.0,30.0,0.0,0.0
6201,43.0,10.0,15.0,0.0,0.0
6202,68.0,0.0,30.0,0.0,0.0
6203,48.0,8.0,15.0,0.0,0.0
6204,56.0,10.0,15.0,0.0,0.0
6205,68.0,0.0,30.0,0.0,0.0
6206,41.0,10.0,15.0,0.0,0.0
6207,60.0,2.0,30.0,0.0,0.0
6208,48.0,0.0,15.0,0.0,0.0
6209,56.0,10.0,15.0,0.0,0.0
6210,67.0,2.0,30.0,0.0,0.0
6211,70.0,4.0,60.0,0.0,0.0
6212,37.0,10.0,15.0,0.0,0.0
6213,49.0,8.0,15.0,0.0,0.0
6214,37.0,10.0,15.0,0.0,0.0
6215,64.0,2.0,30.0,0.0,0.0
6216,49.0,10.0,15.0,0.0,0.0
6217,37.0,4.0,15.0,0.0,0.0
6218,49.0,10.0,15.0,0.0,0.0
6219,67.0,2.0,30.0,0.0,0.0
6220,68.0,0.0,30.0,0.0,0.0
6221,34.0,10.0,15.0,0.0,0.0
6222,46.0,8.0,15.0,0.0,0.0
6223,34.0,10.0,15.0,0.0,0.0
6224,36.0,10.0,15.0,0.0,0.0
6225,68.0,8.0,90.0,0.0,0.0
6226,65.0,2.0,30.0,0.0,0.0
6227,60.0,0.0,30.0,0.0,0.0
6228,47.0,8.0,15.0,0.0,0.0
6229,48.0,10.0,15.0,0.0,0.0
6230,60.0,2.0,30.0,0.0,0.0
6231,65.0,0.0,30.0,0.0,0.0
6232,35.0,10.0,15.0,0.0,0.0
6233,47.0,8.0,15.0,0.0,0.0
6234,48.0,10.0,15.0,0.0,0.0
6235,60.0,0.0,30.0,0.0,0.0
6236,65.0,2.0,30.0,0.0,0.0
6237,36.0,10.0,15.0,0.0,0.0
6238,47.0,0.0,15.0,0.0,0.0
6239,48.0,10.0,15.0,0.0,0.0
6240,36.0,10.0,15.0,0.0,0.0
6241,67.0,8.0,90.0,0.0,0.0
6242,64.0,0.0,30.0,0.0,0.0
6243,60.0,2.0,30.0,0.0,0.0
6244,47.0,8.0,15.0,0.0,0.0
6245,48.0,10.0,15.0,0.0,0.0
6246,64.0,0.0,30.0,0.0,0.0
6247,60.0,2.0,30.0,0.0,0.0
6248,37.0,10.0,15.0,0.0,0.0
6249,47.0,8.0,15.0,0.0,0.0
6250,48.0,10.0,15.0,0.0,0.0
6251,60.0,2.0,30.0,0.0,0.0
6252,64.0,0.0,30.0,0.0,0.0
6253,36.0,10.0,15.0,0.0,0.0
6254,47.0,0.0,15.0,0.0,0.0
6255,48.0,10.0,15.0,0.0,0.0
6256,60.0,2.0,30.0,0.0,0.0
6257,65.0,0.0,30.0,0.0,0.0
6258,29.0,10.0,15.0,0.0,0.0
6259,68.0,8.0,90.0,0.0,0.0
6260,39.0,8.0,15.0,0.0,0.0
6261,41.0,10.0,15.0,0.0,0.0
6262,60.0,2.0,30.0,0.0,0.0
6263,65.0,0.0,30.0,0.0,0.0
6264,28.0,10.0,15.0,0.0,0.0
6265,39.0,8.0,15.0,0.0,0.0
6266,41.0,10.0,15.0,0.0,0.0
6267,60.0,2.0,30.0,0.0,0.0
6268,65.0,0.0,30.0,0.0,0.0
6269,29.0,10.0,15.0,0.0,0.0
6270,39.0,0.0,15.0,0.0,0.0
6271,41.0,10.0,15.0,0.0,0.0
6272,63.0,2.0,30.0,0.0,0.0
6273,67.0,0.0,30.0,0.0,0.0
6274,27.0,10.0,15.0,0.0,0.0
6275,70.0,3.0,180.0,0.0,0.0
6276,38.0,8.0,15.0,0.0,0.0
6277,39.0,10.0,15.0,0.0,0.0
6278,63.0,2.0,30.0,0.0,0.0
6279,67.0,0.0,30.0,0.0,0.0
6280,25.0,10.0,15.0,0.0,0.0
6281,38.0,8.0,15.0,0.0,0.0
6282,39.0,10.0,15.0,0.0,0.0
6283,63.0,2.0,30.0,0.0,0.0
6284,67.0,0.0,30.0,0.0,0.0
6285,27.0,10.0,15.0,0.0,0.0
6286,38.0,8.0,15.0,0.0,0.0
6287,39.0,10.0,15.0,0.0,0.0
6288,63.0,2.0,30.0,0.0,0.0
6289,67.0,0.0,30.0,0.0,0.0
6290,27.0,10.0,15.0,0.0,0.0
6291,38.0,8.0,15.0,0.0,0.0
6292,39.0,10.0,15.0,0.0,0.0
6293,63.0,2.0,30.0,0.0,0.0
6294,67.0,0.0,30.0,0.0,0.0
6295,26.0,10.0,15.0,0.0,0.0
6296,38.0,8.0,15.0,0.0,0.0
6297,39.0,10.0,15.0,0.0,0.0
6298,63.0,2.0,30.0,0.0,0.0
6299,67.0,0.0,30.0,0.0,0.0
6300,27.0,7.0,15.0,0.0,0.0
6301,38.0,8.0,15.0,0.0,0.0
6302,39.0,10.0,15.0,0.0,0.0
6303,61.0,2.0,30.0,0.0,0.0
6304,27.0,10.0,15.0,0.0,0.0
6305,70.0,8.0,90.0,0.0,0.0
6306,67.0,0.0,30.0,0.0,0.0
6307,38.0,8.0,15.0,0.0,0.0
6308,39.0,10.0,15.0,0.0,0.0
6309,61.0,0.0,30.0,0.0,0.0
6310,67.0,2.0,30.0,0.0,0.0
6311,26.0,10.0,15.0,0.0,0.0
6312,38.0,8.0,15.0,0.0,0.0
6313,39.0,10.0,15.0,0.0,0.0
6314,67.0,0.0,30.0,0.0,0.0
6315,27.0,10.0,15.0,0.0,0.0
6316,61.0,2.0,30.0,0.0,0.0
6317,38.0,0.0,15.0,0.0,0.0
6318,39.0,10.0,15.0,0.0,0.0
6319,60.0,2.0,30.0,0.0,0.0
6320,72.0,3.0,180.0,0.0,0.0
6321,27.0,10.0,15.0,0.0,0.0
6322,66.0,0.0,30.0,0.0,0.0
6323,32.0,8.0,15.0,0.0,0.0
6324,39.0,10.0,15.0,0.0,0.0
6325,60.0,2.0,30.0,0.0,0.0
6326,66.0,0.0,30.0,0.0,0.0
6327,26.0,10.0,15.0,0.0,0.0
6328,32.0,8.0,15.0,0.0,0.0
6329,38.0,10.0,15.0,0.0,0.0
6330,66.0,0.0,30.0,0.0,0.0
6331,27.0,10.0,15.0,0.0,0.0
6332,60.0,2.0,30.0,0.0,0.0
6333,32.0,8.0,15.0,0.0,0.0
6334,39.0,10.0,15.0,0.0,0.0
6335,66.0,0.0,30.0,0.0,0.0
6336,27.0,10.0,15.0,0.0,0.0
6337,60.0,2.0,30.0,0.0,0.0
6338,32.0,8.0,15.0,0.0,0.0
6339,39.0,10.0,15.0,0.0,0.0
6340,60.0,0.0,30.0,0.0,0.0
6341,66.0,2.0,30.0,0.0,0.0
6342,26.0,10.0,15.0,0.0,0.0
6343,32.0,8.0,15.0,0.0,0.0
6344,38.0,10.0,15.0,0.0,0.0
6345,27.0,7.0,15.0,0.0,0.0
6346,66.0,0.0,30.0,0.0,0.0
6347,60.0,2.0,30.0,0.0,0.0
6348,32.0,8.0,15.0,0.0,0.0
6349,39.0,10.0,15.0,0.0,0.0
6350,65.0,0.0,30.0,0.0,0.0
6351,73.0,8.0,90.0,0.0,0.0
6352,27.0,10.0,15.0,0.0,0.0
6353,61.0,2.0,30.0,0.0,0.0
6354,32.0,8.0,15.0,0.0,0.0
6355,39.0,10.0,15.0,0.0,0.0
6356,65.0,2.0,30.0,0.0,0.0
6357,68.0,0.0,30.0,0.0,0.0
6358,26.0,10.0,15.0,0.0,0.0
6359,32.0,8.0,15.0,0.0,0.0
6360,38.0,10.0,15.0,0.0,0.0
6361,64.0,0.0,30.0,0.0,0.0
6362,68.0,2.0,30.0,0.0,0.0
6363,27.0,10.0,15.0,0.0,0.0
6364,32.0,0.0,15.0,0.0,0.0
6365,39.0,10.0,15.0,0.0,0.0
6366,63.0,2.0,30.0,0.0,0.0
6367,68.0,0.0,30.0,0.0,0.0
6368,70.0,8.0,90.0,0.0,0.0
6369,27.0,10.0,15.0,0.0,0.0
6370,32.0,8.0,15.0,0.0,0.0
6371,34.0,10.0,15.0,0.0,0.0
6372,63.0,2.0,30.0,0.0,0.0
6373,68.0,0.0,30.0,0.0,0.0
6374,39.0,10.0,15.0,0.0,0.0
6375,44.0,8.0,15.0,0.0,0.0
6376,46.0,10.0,15.0,0.0,0.0
6377,51.0,10.0,15.0,0.0,0.0
6378,68.0,0.0,30.0,0.0,0.0
6379,63.0,2.0,30.0,0.0,0.0
6380,46.0,0.0,15.0,0.0,0.0
6381,44.0,10.0,15.0,0.0,0.0
6382,63.0,2.0,30.0,0.0,0.0
6383,68.0,0.0,30.0,0.0,0.0
6384,70.0,8.0,90.0,0.0,0.0
6385,39.0,10.0,15.0,0.0,0.0
6386,44.0,8.0,15.0,0.0,0.0
6387,46.0,10.0,15.0,0.0,0.0
6388,63.0,2.0,30.0,0.0,0.0
6389,68.0,0.0,30.0,0.0,0.0
6390,51.0,10.0,15.0,0.0,0.0
6391,46.0,8.0,15.0,0.0,0.0
6392,44.0,10.0,15.0,0.0,0.0
6393,63.0,2.0,30.0,0.0,0.0
6394,68.0,0.0,30.0,0.0,0.0
6395,39.0,10.0,15.0,0.0,0.0
6396,51.0,0.0,15.0,0.0,0.0
6397,56.0,10.0,15.0,0.0,0.0
6398,63.0,2.0,30.0,0.0,0.0
6399,67.0,0.0,30.0,0.0,0.0
6400,70.0,4.0,60.0,0.0,0.0
6401,39.0,10.0,15.0,0.0,0.0
6402,51.0,8.0,15.0,0.0,0.0
6403,55.0,10.0,15.0,0.0,0.0
6404,63.0,0.0,30.0,0.0,0.0
6405,68.0,2.0,30.0,0.0,0.0
6406,41.0,10.0,15.0,0.0,0.0
6407,51.0,4.0,15.0,0.0,0.0
6408,56.0,10.0,15.0,0.0,0.0
6409,70.0,2.0,30.0,0.0,0.0
6410,63.0,0.0,30.0,0.0,0.0
6411,43.0,10.0,15.0,0.0,0.0
6412,75.0,0.0,30.0,0.0,0.0
6413,51.0,8.0,15.0,0.0,0.0
6414,58.0,10.0,15.0,0.0,0.0
6415,70.0,2.0,30.0,0.0,0.0
6416,75.0,4.0,60.0,0.0,0.0
6417,43.0,10.0,15.0,0.0,0.0
6418,51.0,8.0,15.0,0.0,0.0
6419,55.0,10.0,15.0,0.0,0.0
6420,67.0,2.0,30.0,0.0,0.0
6421,39.0,10.0,15.0,0.0,0.0
6422,51.0,4.0,15.0,0.0,0.0
6423,58.0,10.0,15.0,0.0,0.0
6424,63.0,2.0,30.0,0.0,0.0
6425,72.0,0.0,30.0,0.0,0.0
6426,44.0,10.0,15.0,0.0,0.0
6427,51.0,8.0,15.0,0.0,0.0
6428,56.0,10.0,15.0,0.0,0.0
6429,44.0,10.0,15.0,0.0,0.0
6430,60.0,2.0,30.0,0.0,0.0
6431,72.0,8.0,90.0,0.0,0.0
6432,51.0,8.0,15.0,0.0,0.0
6433,56.0,10.0,15.0,0.0,0.0
6434,59.0,2.0,30.0,0.0,0.0
6435,43.0,10.0,15.0,0.0,0.0
6436,51.0,8.0,15.0,0.0,0.0
6437,55.0,10.0,15.0,0.0,0.0
6438,60.0,2.0,30.0,0.0,0.0
6439,44.0,10.0,15.0,0.0,0.0
6440,51.0,0.0,15.0,0.0,0.0
6441,56.0,10.0,15.0,0.0,0.0
6442,40.0,10.0,15.0,0.0,0.0
6443,72.0,4.0,60.0,0.0,0.0
6444,67.0,2.0,30.0,0.0,0.0
6445,48.0,8.0,15.0,0.0,0.0
6446,52.0,10.0,15.0,0.0,0.0
6447,64.0,2.0,30.0,0.0,0.0
6448,36.0,10.0,15.0,0.0,0.0
6449,48.0,4.0,15.0,0.0,0.0
6450,55.0,10.0,15.0,0.0,0.0
6451,60.0,2.0,30.0,0.0,0.0
6452,68.0,0.0,30.0,0.0,0.0
6453,41.0,10.0,15.0,0.0,0.0
6454,48.0,8.0,15.0,0.0,0.0
6455,53.0,10.0,15.0,0.0,0.0
6456,60.0,2.0,30.0,0.0,0.0
6457,41.0,10.0,15.0,0.0,0.0
6458,68.0,8.0,90.0,0.0,0.0
6459,48.0,8.0,15.0,0.0,0.0
6460,53.0,10.0,15.0,0.0,0.0
6461,40.0,10.0,15.0,0.0,0.0
6462,60.0,2.0,30.0,0.0,0.0
6463,48.0,8.0,15.0,0.0,0.0
6464,52.0,10.0,15.0,0.0,0.0
6465,60.0,2.0,30.0,0.0,0.0
6466,41.0,10.0,15.0,0.0,0.0
6467,48.0,0.0,15.0,0.0,0.0
6468,53.0,10.0,15.0,0.0,0.0
6469,36.0,10.0,15.0,0.0,0.0
6470,80.0,4.0,60.0,0.0,0.0
6471,75.0,2.0,30.0,0.0,0.0
6472,44.0,8.0,15.0,0.0,0.0
6473,48.0,10.0,15.0,0.0,0.0
6474,72.0,2.0,30.0,0.0,0.0
6475,32.0,10.0,15.0,0.0,0.0
6476,44.0,4.0,15.0,0.0,0.0
6477,51.0,10.0,15.0,0.0,0.0
6478,77.0,2.0,30.0,0.0,0.0
6479,68.0,0.0,30.0,0.0,0.0
6480,37.0,10.0,15.0,0.0,0.0
6481,44.0,8.0,15.0,0.0,0.0
6482,49.0,10.0,15.0,0.0,0.0
6483,37.0,10.0,15.0,0.0,0.0
6484,77.0,8.0,90.0,0.0,0.0
6485,68.0,2.0,30.0,0.0,0.0
6486,44.0,8.0,15.0,0.0,0.0
6487,49.0,10.0,15.0,0.0,0.0
6488,75.0,2.0,30.0,0.0,0.0
6489,36.0,10.0,15.0,0.0,0.0
6490,69.0,0.0,30.0,0.0,0.0
6491,41.0,8.0,15.0,0.0,0.0
6492,48.0,10.0,15.0,0.0,0.0
6493,34.0,10.0,15.0,0.0,0.0
6494,70.0,0.0,30.0,0.0,0.0
6495,73.0,2.0,30.0,0.0,0.0
6496,41.0,0.0,15.0,0.0,0.0
6497,46.0,10.0,15.0,0.0,0.0
6498,72.0,2.0,30.0,0.0,0.0
6499,77.0,4.0,60.0,0.0,0.0
6500,33.0,10.0,15.0,0.0,0.0
6501,41.0,8.0,15.0,0.0,0.0
6502,45.0,10.0,15.0,0.0,0.0
6503,69.0,2.0,30.0,0.0,0.0
6504,29.0,10.0,15.0,0.0,0.0
6505,41.0,4.0,15.0,0.0,0.0
6506,48.0,10.0,15.0,0.0,0.0
6507,34.0,10.0,15.0,0.0,0.0
6508,65.0,0.0,30.0,0.0,0.0
6509,73.0,2.0,30.0,0.0,0.0
6510,41.0,8.0,15.0,0.0,0.0
6511,46.0,10.0,15.0,0.0,0.0
6512,73.0,8.0,90.0,0.0,0.0
6513,34.0,10.0,15.0,0.0,0.0
6514,65.0,2.0,30.0,0.0,0.0
6515,41.0,8.0,15.0,0.0,0.0
6516,46.0,10.0,15.0,0.0,0.0
6517,65.0,2.0,30.0,0.0,0.0
6518,33.0,10.0,15.0,0.0,0.0
6519,41.0,8.0,15.0,0.0,0.0
6520,45.0,10.0,15.0,0.0,0.0
6521,65.0,2.0,30.0,0.0,0.0
6522,34.0,10.0,15.0,0.0,0.0
6523,41.0,0.0,15.0,0.0,0.0
6524,46.0,10.0,15.0,0.0,0.0
6525,64.0,2.0,30.0,0.0,0.0
6526,73.0,0.0,90.0,0.0,0.0
6527,32.0,10.0,15.0,0.0,0.0
6528,37.0,8.0,15.0,0.0,0.0
6529,44.0,10.0,15.0,0.0,0.0
6530,64.0,2.0,30.0,0.0,0.0
6531,31.0,10.0,15.0,0.0,0.0
6532,37.0,8.0,15.0,0.0,0.0
6533,43.0,10.0,15.0,0.0,0.0
6534,64.0,2.0,30.0,0.0,0.0
6535,32.0,10.0,15.0,0.0,0.0
6536,37.0,8.0,15.0,0.0,0.0
6537,44.0,10.0,15.0,0.0,0.0
6538,63.0,2.0,30.0,0.0,0.0
6539,70.0,0.0,180.0,0.0,0.0
6540,73.0,3.0,180.0,0.0,0.0
6541,31.0,10.0,15.0,0.0,0.0
6542,39.0,8.0,15.0,0.0,0.0
6543,44.0,10.0,15.0,0.0,0.0
6544,30.0,10.0,15.0,0.0,0.0
6545,63.0,2.0,30.0,0.0,0.0
6546,39.0,8.0,15.0,0.0,0.0
6547,42.0,10.0,15.0,0.0,0.0
6548,63.0,2.0,30.0,0.0,0.0
6549,31.0,10.0,15.0,0.0,0.0
6550,39.0,8.0,15.0,0.0,0.0
6551,43.0,10.0,15.0,0.0,0.0
6552,63.0,2.0,30.0,0.0,0.0
6553,31.0,10.0,15.0,0.0,0.0
6554,39.0,8.0,15.0,0.0,0.0
6555,43.0,10.0,15.0,0.0,0.0
6556,30.0,10.0,15.0,0.0,0.0
6557,63.0,2.0,30.0,0.0,0.0
6558,39.0,8.0,15.0,0.0,0.0
6559,42.0,10.0,15.0,0.0,0.0
6560,63.0,2.0,30.0,0.0,0.0
6561,31.0,7.0,15.0,0.0,0.0
6562,39.0,8.0,15.0,0.0,0.0
6563,43.0,10.0,15.0,0.0,0.0
6564,63.0,2.0,30.0,0.0,0.0
6565,67.0,0.0,30.0,0.0,0.0
6566,73.0,8.0,90.0,0.0,0.0
6567,27.0,10.0,15.0,0.0,0.0
6568,38.0,8.0,15.0,0.0,0.0
6569,39.0,10.0,15.0,0.0,0.0
6570,63.0,2.0,30.0,0.0,0.0
6571,29.0,10.0,15.0,0.0,0.0
6572,68.0,0.0,30.0,0.0,0.0
6573,39.0,8.0,15.0,0.0,0.0
6574,41.0,10.0,15.0,0.0,0.0
6575,63.0,2.0,30.0,0.0,0.0
6576,70.0,0.0,30.0,0.0,0.0
6577,31.0,10.0,15.0,0.0,0.0
6578,39.0,0.0,15.0,0.0,0.0
6579,43.0,10.0,15.0,0.0,0.0
6580,63.0,2.0,30.0,0.0,0.0
6581,72.0,0.0,90.0,0.0,0.0
6582,32.0,10.0,15.0,0.0,0.0
6583,39.0,8.0,15.0,0.0,0.0
6584,44.0,10.0,15.0,0.0,0.0
6585,63.0,2.0,30.0,0.0,0.0
6586,31.0,10.0,15.0,0.0,0.0
6587,39.0,8.0,15.0,0.0,0.0
6588,43.0,10.0,15.0,0.0,0.0
6589,63.0,2.0,30.0,0.0,0.0
6590,32.0,10.0,15.0,0.0,0.0
6591,39.0,8.0,15.0,0.0,0.0
6592,44.0,10.0,15.0,0.0,0.0
6593,66.0,0.0,30.0,0.0,0.0
6594,32.0,10.0,15.0,0.0,0.0
6595,75.0,8.0,90.0,0.0,0.0
6596,63.0,2.0,30.0,0.0,0.0
6597,43.0,8.0,15.0,0.0,0.0
6598,44.0,10.0,15.0,0.0,0.0
6599,66.0,0.0,30.0,0.0,0.0
6600,34.0,10.0,15.0,0.0,0.0
6601,63.0,2.0,30.0,0.0,0.0
6602,44.0,8.0,15.0,0.0,0.0
6603,46.0,10.0,15.0,0.0,0.0
6604,63.0,2.0,30.0,0.0,0.0
6605,66.0,0.0,30.0,0.0,0.0
6606,36.0,10.0,15.0,0.0,0.0
6607,44.0,0.0,15.0,0.0,0.0
6608,48.0,10.0,15.0,0.0,0.0
6609,65.0,2.0,30.0,0.0,0.0
6610,75.0,0.0,30.0,0.0,0.0
6611,37.0,10.0,15.0,0.0,0.0
6612,44.0,8.0,15.0,0.0,0.0
6613,49.0,10.0,15.0,0.0,0.0
6614,73.0,0.0,30.0,0.0,0.0
6615,37.0,10.0,15.0,0.0,0.0
6616,65.0,2.0,30.0,0.0,0.0
6617,44.0,8.0,15.0,0.0,0.0
6618,49.0,10.0,15.0,0.0,0.0
6619,68.0,2.0,30.0,0.0,0.0
6620,38.0,10.0,15.0,0.0,0.0
6621,65.0,0.0,30.0,0.0,0.0
6622,72.0,0.0,30.0,0.0,0.0
6623,44.0,8.0,15.0,0.0,0.0
6624,50.0,10.0,15.0,0.0,0.0
6625,63.0,0.0,30.0,0.0,0.0
6626,60.0,2.0,30.0,0.0,0.0
6627,39.0,10.0,15.0,0.0,0.0
6628,68.0,8.0,90.0,0.0,0.0
6629,44.0,8.0,15.0,0.0,0.0
6630,51.0,10.0,15.0,0.0,0.0
6631,60.0,2.0,30.0,0.0,0.0
6632,63.0,0.0,30.0,0.0,0.0
6633,39.0,10.0,15.0,0.0,0.0
6634,43.0,8.0,15.0,0.0,0.0
6635,51.0,10.0,15.0,0.0,0.0
6636,60.0,2.0,30.0,0.0,0.0
6637,63.0,0.0,30.0,0.0,0.0
6638,41.0,10.0,15.0,0.0,0.0
6639,44.0,0.0,15.0,0.0,0.0
6640,51.0,10.0,15.0,0.0,0.0
6641,61.0,2.0,30.0,0.0,0.0
6642,63.0,0.0,30.0,0.0,0.0
6643,39.0,10.0,15.0,0.0,0.0
6644,72.0,4.0,60.0,0.0,0.0
6645,43.0,8.0,15.0,0.0,0.0
6646,51.0,10.0,15.0,0.0,0.0
6647,61.0,0.0,30.0,0.0,0.0
6648,63.0,2.0,30.0,0.0,0.0
6649,39.0,10.0,15.0,0.0,0.0
6650,44.0,4.0,15.0,0.0,0.0
6651,51.0,10.0,15.0,0.0,0.0
6652,61.0,0.0,30.0,0.0,0.0
6653,63.0,0.0,30.0,0.0,0.0
6654,70.0,2.0,30.0,0.0,0.0
6655,39.0,10.0,15.0,0.0,0.0
6656,43.0,8.0,15.0,0.0,0.0
6657,51.0,10.0,15.0,0.0,0.0
6658,51.0,6.0,60.0,0.0,0.0
6659,63.0,0.0,60.0,0.0,0.0
6660,67.0,10.0,15.0,0.0,0.0
6661,70.0,10.0,15.0,0.0,0.0
6662,79.0,10.0,15.0,0.0,0.0
6663,67.0,10.0,15.0,0.0,0.0
6664,70.0,4.0,15.0,0.0,0.0
6665,75.0,10.0,15.0,0.0,0.0
6666,60.0,0.0,30.0,0.0,0.0
6667,48.0,2.0,30.0,0.0,0.0
6668,68.0,10.0,15.0,0.0,0.0
6669,75.0,8.0,15.0,0.0,0.0
6670,80.0,10.0,15.0,0.0,0.0
6671,68.0,10.0,15.0,0.0,0.0
6672,48.0,10.0,90.0,0.0,0.0
6673,60.0,0.0,90.0,0.0,0.0
6674,75.0,10.0,15.0,0.0,0.0
6675,80.0,10.0,15.0,0.0,0.0
6676,67.0,10.0,15.0,0.0,0.0
6677,75.0,10.0,15.0,0.0,0.0
6678,80.0,10.0,15.0,0.0,0.0
6679,68.0,10.0,15.0,0.0,0.0
6680,75.0,0.0,15.0,0.0,0.0
6681,80.0,10.0,15.0,0.0,0.0
6682,48.0,0.0,60.0,0.0,0.0
6683,60.0,6.0,60.0,0.0,0.0
6684,76.0,10.0,15.0,0.0,0.0
6685,79.0,10.0,15.0,0.0,0.0
6686,88.0,10.0,15.0,0.0,0.0
6687,76.0,10.0,15.0,0.0,0.0
6688,79.0,4.0,15.0,0.0,0.0
6689,84.0,10.0,15.0,0.0,0.0
6690,56.0,2.0,30.0,0.0,0.0
6691,77.0,10.0,15.0,0.0,0.0
6692,44.0,0.0,30.0,0.0,0.0
6693,84.0,8.0,15.0,0.0,0.0
6694,89.0,10.0,15.0,0.0,0.0
6695,77.0,10.0,15.0,0.0,0.0
6696,44.0,10.0,90.0,0.0,0.0
6697,56.0,0.0,90.0,0.0,0.0
6698,84.0,10.0,15.0,0.0,0.0
6699,89.0,10.0,15.0,0.0,0.0
6700,76.0,10.0,15.0,0.0,0.0
6701,84.0,10.0,15.0,0.0,0.0
6702,88.0,10.0,15.0,0.0,0.0
6703,77.0,10.0,15.0,0.0,0.0
6704,82.0,0.0,15.0,0.0,0.0
6705,89.0,10.0,15.0,0.0,0.0
6706,56.0,0.0,60.0,0.0,0.0
6707,44.0,6.0,60.0,0.0,0.0
6708,72.0,10.0,15.0,0.0,0.0
6709,75.0,10.0,15.0,0.0,0.0
6710,84.0,10.0,15.0,0.0,0.0
6711,72.0,10.0,15.0,0.0,0.0
6712,75.0,4.0,15.0,0.0,0.0
6713,80.0,10.0,15.0,0.0,0.0
6714,41.0,0.0,30.0,0.0,0.0
6715,53.0,2.0,30.0,0.0,0.0
6716,73.0,10.0,15.0,0.0,0.0
6717,80.0,8.0,15.0,0.0,0.0
6718,85.0,10.0,15.0,0.0,0.0
6719,53.0,0.0,90.0,0.0,0.0
6720,73.0,10.0,15.0,0.0,0.0
6721,41.0,10.0,90.0,0.0,0.0
6722,80.0,10.0,15.0,0.0,0.0
6723,85.0,10.0,15.0,0.0,0.0
6724,72.0,10.0,15.0,0.0,0.0
6725,80.0,10.0,15.0,0.0,0.0
6726,84.0,10.0,15.0,0.0,0.0
6727,73.0,10.0,15.0,0.0,0.0
6728,80.0,0.0,15.0,0.0,0.0
6729,85.0,10.0,15.0,0.0,0.0
6730,84.0,2.0,30.0,0.0,0.0
6731,89.0,2.0,60.0,0.0,0.0
6732,45.0,10.0,15.0,0.0,0.0
6733,53.0,8.0,15.0,0.0,0.0
6734,57.0,10.0,15.0,0.0,0.0
6735,81.0,0.0,30.0,0.0,0.0
6736,41.0,10.0,15.0,0.0,0.0
6737,53.0,8.0,15.0,0.0,0.0
6738,60.0,10.0,15.0,0.0,0.0
6739,85.0,2.0,30.0,0.0,0.0
6740,77.0,0.0,30.0,0.0,0.0
6741,46.0,10.0,15.0,0.0,0.0
6742,53.0,8.0,15.0,0.0,0.0
6743,58.0,10.0,15.0,0.0,0.0
6744,77.0,2.0,30.0,0.0,0.0
6745,85.0,8.0,90.0,0.0,0.0
6746,46.0,10.0,15.0,0.0,0.0
6747,53.0,8.0,15.0,0.0,0.0
6748,58.0,10.0,15.0,0.0,0.0
6749,45.0,10.0,15.0,0.0,0.0
6750,77.0,2.0,30.0,0.0,0.0
6751,53.0,8.0,15.0,0.0,0.0
6752,57.0,10.0,15.0,0.0,0.0
6753,77.0,2.0,30.0,0.0,0.0
6754,46.0,10.0,15.0,0.0,0.0
6755,53.0,0.0,15.0,0.0,0.0
6756,58.0,10.0,15.0,0.0,0.0
6757,77.0,2.0,30.0,0.0,0.0
6758,82.0,0.0,30.0,0.0,0.0
6759,85.0,8.0,90.0,0.0,0.0
6760,46.0,10.0,15.0,0.0,0.0
6761,53.0,8.0,15.0,0.0,0.0
6762,58.0,10.0,15.0,0.0,0.0
6763,77.0,2.0,30.0,0.0,0.0
6764,82.0,0.0,30.0,0.0,0.0
6765,45.0,10.0,15.0,0.0,0.0
6766,53.0,8.0,15.0,0.0,0.0
6767,57.0,10.0,15.0,0.0,0.0
6768,82.0,0.0,30.0,0.0,0.0
6769,46.0,10.0,15.0,0.0,0.0
6770,77.0,2.0,30.0,0.0,0.0
6771,53.0,0.0,15.0,0.0,0.0
6772,58.0,10.0,15.0,0.0,0.0
6773,85.0,8.0,90.0,0.0,0.0
6774,44.0,10.0,15.0,0.0,0.0
6775,76.0,2.0,30.0,0.0,0.0
6776,82.0,0.0,30.0,0.0,0.0
6777,49.0,8.0,15.0,0.0,0.0
6778,56.0,10.0,15.0,0.0,0.0
6779,76.0,2.0,30.0,0.0,0.0
6780,43.0,10.0,15.0,0.0,0.0
6781,82.0,0.0,30.0,0.0,0.0
6782,49.0,8.0,15.0,0.0,0.0
6783,55.0,10.0,15.0,0.0,0.0
6784,76.0,2.0,30.0,0.0,0.0
6785,82.0,0.0,30.0,0.0,0.0
6786,44.0,10.0,15.0,0.0,0.0
6787,49.0,0.0,15.0,0.0,0.0
6788,56.0,10.0,15.0,0.0,0.0
6789,43.0,10.0,15.0,0.0,0.0
6790,75.0,2.0,30.0,0.0,0.0
6791,82.0,0.0,30.0,0.0,0.0
6792,85.0,3.0,180.0,0.0,0.0
6793,51.0,8.0,15.0,0.0,0.0
6794,55.0,10.0,15.0,0.0,0.0
6795,75.0,2.0,30.0,0.0,0.0
6796,82.0,0.0,30.0,0.0,0.0
6797,42.0,10.0,15.0,0.0,0.0
6798,51.0,8.0,15.0,0.0,0.0
6799,54.0,10.0,15.0,0.0,0.0
6800,43.0,10.0,15.0,0.0,0.0
6801,75.0,2.0,30.0,0.0,0.0
6802,82.0,0.0,30.0,0.0,0.0
6803,51.0,8.0,15.0,0.0,0.0
6804,55.0,10.0,15.0,0.0,0.0
6805,75.0,2.0,30.0,0.0,0.0
6806,82.0,0.0,30.0,0.0,0.0
6807,43.0,10.0,15.0,0.0,0.0
6808,51.0,8.0,15.0,0.0,0.0
6809,55.0,10.0,15.0,0.0,0.0
6810,75.0,2.0,30.0,0.0,0.0
6811,82.0,0.0,30.0,0.0,0.0
6812,42.0,10.0,15.0,0.0,0.0
6813,51.0,8.0,15.0,0.0,0.0
6814,54.0,10.0,15.0,0.0,0.0
6815,75.0,2.0,30.0,0.0,0.0
6816,82.0,0.0,30.0,0.0,0.0
6817,43.0,7.0,15.0,0.0,0.0
6818,51.0,8.0,15.0,0.0,0.0
6819,55.0,10.0,15.0,0.0,0.0
6820,43.0,10.0,15.0,0.0,0.0
6821,75.0,2.0,30.0,0.0,0.0
6822,85.0,8.0,90.0,0.0,0.0
6823,82.0,0.0,30.0,0.0,0.0
6824,51.0,8.0,15.0,0.0,0.0
6825,55.0,10.0,15.0,0.0,0.0
6826,75.0,2.0,30.0,0.0,0.0
6827,82.0,0.0,30.0,0.0,0.0
6828,42.0,10.0,15.0,0.0,0.0
6829,51.0,8.0,15.0,0.0,0.0
6830,54.0,10.0,15.0,0.0,0.0
6831,75.0,2.0,30.0,0.0,0.0
6832,82.0,0.0,30.0,0.0,0.0
6833,43.0,10.0,15.0,0.0,0.0
6834,51.0,0.0,15.0,0.0,0.0
6835,55.0,10.0,15.0,0.0,0.0
6836,41.0,10.0,15.0,0.0,0.0
6837,80.0,2.0,30.0,0.0,0.0
6838,86.0,3.0,180.0,0.0,0.0
6839,82.0,0.0,30.0,0.0,0.0
6840,46.0,8.0,15.0,0.0,0.0
6841,53.0,10.0,15.0,0.0,0.0
6842,80.0,0.0,30.0,0.0,0.0
6843,82.0,2.0,30.0,0.0,0.0
6844,40.0,10.0,15.0,0.0,0.0
6845,46.0,8.0,15.0,0.0,0.0
6846,52.0,10.0,15.0,0.0,0.0
6847,80.0,2.0,30.0,0.0,0.0
6848,82.0,0.0,30.0,0.0,0.0
6849,41.0,10.0,15.0,0.0,0.0
6850,46.0,8.0,15.0,0.0,0.0
6851,53.0,10.0,15.0,0.0,0.0
6852,82.0,0.0,30.0,0.0,0.0
6853,41.0,10.0,15.0,0.0,0.0
6854,80.0,2.0,30.0,0.0,0.0
6855,46.0,8.0,15.0,0.0,0.0
6856,53.0,10.0,15.0,0.0,0.0
6857,40.0,10.0,15.0,0.0,0.0
6858,82.0,2.0,30.0,0.0,0.0
6859,80.0,0.0,30.0,0.0,0.0
6860,46.0,8.0,15.0,0.0,0.0
6861,52.0,10.0,15.0,0.0,0.0
6862,80.0,2.0,30.0,0.0,0.0
6863,82.0,0.0,30.0,0.0,0.0
6864,41.0,7.0,15.0,0.0,0.0
6865,46.0,8.0,15.0,0.0,0.0
6866,53.0,10.0,15.0,0.0,0.0
6867,80.0,0.0,30.0,0.0,0.0
6868,82.0,2.0,30.0,0.0,0.0
6869,86.0,8.0,90.0,0.0,0.0
6870,41.0,10.0,15.0,0.0,0.0
6871,46.0,8.0,15.0,0.0,0.0
6872,53.0,10.0,15.0,0.0,0.0
6873,80.0,2.0,30.0,0.0,0.0
6874,40.0,10.0,15.0,0.0,0.0
6875,82.0,0.0,30.0,0.0,0.0
6876,46.0,8.0,15.0,0.0,0.0
6877,52.0,10.0,15.0,0.0,0.0
6878,80.0,2.0,30.0,0.0,0.0
6879,82.0,0.0,30.0,0.0,0.0
6880,41.0,10.0,15.0,0.0,0.0
6881,46.0,0.0,15.0,0.0,0.0
6882,53.0,10.0,15.0,0.0,0.0
6883,80.0,0.0,30.0,0.0,0.0
6884,84.0,2.0,30.0,0.0,0.0
6885,87.0,8.0,90.0,0.0,0.0
6886,39.0,10.0,15.0,0.0,0.0
6887,44.0,8.0,15.0,0.0,0.0
6888,51.0,10.0,15.0,0.0,0.0
6889,75.0,2.0,30.0,0.0,0.0
6890,84.0,0.0,30.0,0.0,0.0
6891,39.0,10.0,15.0,0.0,0.0
6892,80.0,0.0,30.0,0.0,0.0
6893,43.0,8.0,15.0,0.0,0.0
6894,51.0,10.0,15.0,0.0,0.0
6895,75.0,0.0,30.0,0.0,0.0
6896,80.0,2.0,30.0,0.0,0.0
6897,84.0,0.0,30.0,0.0,0.0
6898,39.0,10.0,15.0,0.0,0.0
6899,44.0,0.0,15.0,0.0,0.0
6900,51.0,10.0,15.0,0.0,0.0
6901,75.0,0.0,30.0,0.0,0.0
6902,79.0,2.0,30.0,0.0,0.0
6903,85.0,8.0,90.0,0.0,0.0
6904,39.0,10.0,15.0,0.0,0.0
6905,46.0,8.0,15.0,0.0,0.0
6906,51.0,10.0,15.0,0.0,0.0
6907,39.0,10.0,15.0,0.0,0.0
6908,75.0,2.0,30.0,0.0,0.0
6909,79.0,0.0,30.0,0.0,0.0
6910,44.0,8.0,15.0,0.0,0.0
6911,51.0,10.0,15.0,0.0,0.0
6912,75.0,2.0,30.0,0.0,0.0
6913,79.0,0.0,30.0,0.0,0.0
6914,39.0,10.0,15.0,0.0,0.0
6915,46.0,0.0,15.0,0.0,0.0
6916,51.0,10.0,15.0,0.0,0.0
6917,39.0,10.0,15.0,0.0,0.0
6918,75.0,2.0,30.0,0.0,0.0
6919,79.0,0.0,30.0,0.0,0.0
6920,87.0,4.0,60.0,0.0,0.0
6921,48.0,8.0,15.0,0.0,0.0
6922,51.0,10.0,15.0,0.0,0.0
6923,79.0,2.0,30.0,0.0,0.0
6924,39.0,10.0,15.0,0.0,0.0
6925,75.0,0.0,30.0,0.0,0.0
6926,48.0,4.0,15.0,0.0,0.0
6927,51.0,10.0,15.0,0.0,0.0
6928,75.0,0.0,30.0,0.0,0.0
6929,79.0,2.0,30.0,0.0,0.0
6930,39.0,10.0,15.0,0.0,0.0
6931,89.0,0.0,30.0,0.0,0.0
6932,49.0,8.0,15.0,0.0,0.0
6933,51.0,10.0,15.0,0.0,0.0
6934,89.0,0.0,120.0,0.0,0.0
6935,79.0,2.0,30.0,0.0,0.0
6936,39.0,10.0,15.0,0.0,0.0
6937,75.0,0.0,30.0,0.0,0.0
6938,49.0,8.0,15.0,0.0,0.0
6939,51.0,10.0,15.0,0.0,0.0
6940,79.0,2.0,30.0,0.0,0.0
6941,39.0,10.0,15.0,0.0,0.0
6942,75.0,0.0,30.0,0.0,0.0
6943,48.0,8.0,15.0,0.0,0.0
6944,51.0,10.0,15.0,0.0,0.0
6945,79.0,0.0,30.0,0.0,0.0
6946,39.0,10.0,15.0,0.0,0.0
6947,75.0,2.0,30.0,0.0,0.0
6948,49.0,8.0,15.0,0.0,0.0
6949,51.0,10.0,15.0,0.0,0.0
6950,79.0,0.0,30.0,0.0,0.0
6951,75.0,2.0,30.0,0.0,0.0
6952,39.0,10.0,15.0,0.0,0.0
6953,49.0,8.0,15.0,0.0,0.0
6954,51.0,10.0,15.0,0.0,0.0
6955,89.0,0.0,30.0,0.0,0.0
6956,79.0,2.0,30.0,0.0,0.0
6957,75.0,0.0,30.0,0.0,0.0
6958,39.0,10.0,15.0,0.0,0.0
6959,49.0,8.0,15.0,0.0,0.0
6960,51.0,10.0,15.0,0.0,0.0
6961,79.0,2.0,30.0,0.0,0.0
6962,75.0,0.0,30.0,0.0,0.0
6963,39.0,10.0,15.0,0.0,0.0
6964,87.0,0.0,30.0,0.0,0.0
6965,48.0,8.0,15.0,0.0,0.0
6966,51.0,10.0,15.0,0.0,0.0
6967,87.0,0.0,30.0,0.0,0.0
6968,75.0,0.0,30.0,0.0,0.0
6969,79.0,2.0,30.0,0.0,0.0
6970,39.0,10.0,15.0,0.0,0.0
6971,48.0,8.0,15.0,0.0,0.0
6972,51.0,10.0,15.0,0.0,0.0
6973,75.0,2.0,30.0,0.0,0.0
6974,79.0,0.0,30.0,0.0,0.0
6975,85.0,0.0,30.0,0.0,0.0
6976,39.0,10.0,15.0,0.0,0.0
6977,46.0,8.0,15.0,0.0,0.0
6978,51.0,10.0,15.0,0.0,0.0
6979,75.0,0.0,30.0,0.0,0.0
6980,79.0,2.0,30.0,0.0,0.0
6981,84.0,0.0,30.0,0.0,0.0
6982,39.0,10.0,15.0,0.0,0.0
6983,44.0,8.0,15.0,0.0,0.0
6984,51.0,10.0,15.0,0.0,0.0
6985,39.0,10.0,15.0,0.0,0.0
6986,75.0,2.0,30.0,0.0,0.0
6987,84.0,0.0,60.0,0.0,0.0
6988,80.0,4.0,60.0,0.0,0.0
6989,44.0,8.0,15.0,0.0,0.0
6990,51.0,10.0,15.0,0.0,0.0
6991,75.0,2.0,30.0,0.0,0.0
6992,39.0,10.0,15.0,0.0,0.0
6993,43.0,4.0,15.0,0.0,0.0
6994,51.0,10.0,15.0,0.0,0.0
6995,75.0,0.0,30.0,0.0,0.0
6996,39.0,10.0,15.0,0.0,0.0
6997,87.0,2.0,30.0,0.0,0.0
6998,84.0,0.0,30.0,0.0,0.0
6999,44.0,8.0,15.0,0.0,0.0
7000,51.0,10.0,15.0,0.0,0.0
7001,83.0,0.0,60.0,0.0,0.0
7002,75.0,2.0,30.0,0.0,0.0
7003,39.0,10.0,15.0,0.0,0.0
7004,86.0,4.0,60.0,0.0,0.0
7005,41.0,8.0,15.0,0.0,0.0
7006,51.0,10.0,15.0,0.0,0.0
7007,75.0,2.0,30.0,0.0,0.0
7008,39.0,10.0,15.0,0.0,0.0
7009,41.0,4.0,15.0,0.0,0.0
7010,51.0,10.0,15.0,0.0,0.0
7011,82.0,2.0,30.0,0.0,0.0
7012,85.0,0.0,30.0,0.0,0.0
7013,39.0,10.0,15.0,0.0,0.0
7014,75.0,0.0,30.0,0.0,0.0
7015,43.0,8.0,15.0,0.0,0.0
7016,51.0,10.0,15.0,0.0,0.0
7017,78.0,2.0,30.0,0.0,0.0
7018,84.0,0.0,30.0,0.0,0.0
7019,39.0,10.0,15.0,0.0,0.0
7020,75.0,0.0,30.0,0.0,0.0
7021,45.0,8.0,15.0,0.0,0.0
7022,51.0,10.0,15.0,0.0,0.0
7023,75.0,0.0,30.0,0.0,0.0
7024,39.0,10.0,15.0,0.0,0.0
7025,85.0,2.0,30.0,0.0,0.0
7026,79.0,0.0,30.0,0.0,0.0
7027,46.0,8.0,15.0,0.0,0.0
7028,51.0,8.0,15.0,0.0,0.0
7029,75.0,0.0,30.0,0.0,0.0
7030,79.0,3.0,30.0,0.0,0.0
7031,82.0,0.0,30.0,0.0,0.0
7032,39.0,8.0,15.0,0.0,0.0
7033,43.0,7.0,15.0,0.0,0.0
7034,46.0,5.0,15.0,0.0,0.0
7035,49.0,7.0,15.0,0.0,0.0
7036,84.0,8.0,15.0,0.0,0.0
7037,51.0,0.0,15.0,0.0,0.0
7038,82.0,7.0,15.0,0.0,0.0
7039,55.0,0.0,15.0,0.0,0.0
7040,84.0,0.0,15.0,0.0,0.0
7041,58.0,8.0,15.0,0.0,0.0
7042,82.0,7.0,15.0,0.0,0.0
7043,61.0,0.0,15.0,0.0,0.0
7044,84.0,8.0,15.0,0.0,0.0
7045,82.0,7.0,15.0,0.0,0.0
7046,84.0,8.0,15.0,0.0,0.0
7047,82.0,7.0,15.0,0.0,0.0
7048,84.0,8.0,15.0,0.0,0.0
7049,82.0,7.0,15.0,0.0,0.0
7050,81.0,8.0,15.0,0.0,0.0
7051,82.0,7.0,15.0,0.0,0.0
7052,86.0,8.0,15.0,0.0,0.0
7053,87.0,7.0,15.0,0.0,0.0
7054,89.0,8.0,15.0,0.0,0.0
7055,87.0,7.0,15.0,0.0,0.0
7056,89.0,8.0,15.0,0.0,0.0
7057,87.0,7.0,15.0,0.0,0.0
7058,89.0,8.0,15.0,0.0,0.0
7059,87.0,7.0,15.0,0.0,0.0
7060,89.0,8.0,15.0,0.0,0.0
7061,87.0,7.0,15.0,0.0,0.0
7062,89.0,8.0,15.0,0.0,0.0
7063,87.0,7.0,15.0,0.0,0.0
7064,89.0,8.0,15.0,0.0,0.0
7065,87.0,7.0,15.0,0.0,0.0
7066,89.0,8.0,15.0,0.0,0.0
7067,87.0,7.0,15.0,0.0,0.0
7068,89.0,8.0,15.0,0.0,0.0
7069,87.0,7.0,15.0,0.0,0.0
7070,89.0,8.0,15.0,0.0,0.0
7071,87.0,7.0,15.0,0.0,0.0
7072,89.0,8.0,15.0,0.0,0.0
7073,87.0,7.0,15.0,0.0,0.0
7074,89.0,8.0,15.0,0.0,0.0
7075,87.0,7.0,15.0,0.0,0.0
7076,89.0,8.0,15.0,0.0,0.0
7077,87.0,7.0,15.0,0.0,0.0
7078,89.0,8.0,15.0,0.0,0.0
7079,87.0,7.0,15.0,0.0,0.0
7080,89.0,8.0,15.0,0.0,0.0
7081,87.0,7.0,15.0,0.0,0.0
7082,89.0,8.0,15.0,0.0,0.0
7083,87.0,7.0,15.0,0.0,0.0
7084,89.0,8.0,15.0,0.0,0.0
7085,87.0,7.0,15.0,0.0,0.0
7086,89.0,8.0,15.0,0.0,0.0
7087,87.0,7.0,15.0,0.0,0.0
7088,89.0,8.0,15.0,0.0,0.0
7089,87.0,7.0,15.0,0.0,0.0
7090,89.0,8.0,15.0,0.0,0.0
7091,87.0,7.0,15.0,0.0,0.0
7092,89.0,8.0,15.0,0.0,0.0
7093,87.0,7.0,15.0,0.0,0.0
7094,89.0,8.0,15.0,0.0,0.0
7095,87.0,7.0,15.0,0.0,0.0
7096,89.0,8.0,15.0,0.0,0.0
7097,87.0,7.0,15.0,0.0,0.0
7098,89.0,8.0,15.0,0.0,0.0
7099,87.0,7.0,15.0,0.0,0.0
7100,89.0,2.0,15.0,0.0,0.0
7101,80.0,6.0,60.0,0.0,0.0
7102,72.0,6.0,15.0,0.0,0.0
7103,87.0,4.0,15.0,0.0,0.0
7104,68.0,3.0,15.0,0.0,0.0
7105,89.0,7.0,15.0,0.0,0.0
7106,72.0,1.0,15.0,0.0,0.0
7107,87.0,7.0,15.0,0.0,0.0
7108,89.0,2.0,15.0,0.0,0.0
7109,68.0,6.0,15.0,0.0,0.0
7110,87.0,4.0,15.0,0.0,0.0
7111,72.0,3.0,15.0,0.0,0.0
7112,89.0,1.0,15.0,0.0,0.0
7113,68.0,1.0,15.0,0.0,0.0
7114,87.0,7.0,15.0,0.0,0.0
7115,89.0,2.0,15.0,0.0,0.0
7116,75.0,2.0,30.0,0.0,0.0
7117,72.0,6.0,15.0,0.0,0.0
7118,87.0,4.0,15.0,0.0,0.0
7119,68.0,3.0,15.0,0.0,0.0
7120,89.0,5.0,15.0,0.0,0.0
7121,72.0,1.0,15.0,0.0,0.0
7122,87.0,7.0,15.0,0.0,0.0
7123,75.0,3.0,180.0,0.0,0.0
7124,68.0,6.0,15.0,0.0,0.0
7125,89.0,2.0,15.0,0.0,0.0
7126,87.0,4.0,15.0,0.0,0.0
7127,72.0,3.0,15.0,0.0,0.0
7128,89.0,7.0,15.0,0.0,0.0
7129,68.0,1.0,15.0,0.0,0.0
7130,87.0,7.0,15.0,0.0,0.0
7131,89.0,2.0,15.0,0.0,0.0
7132,72.0,6.0,15.0,0.0,0.0
7133,87.0,4.0,15.0,0.0,0.0
7134,68.0,3.0,15.0,0.0,0.0
7135,89.0,7.0,15.0,0.0,0.0
7136,72.0,1.0,15.0,0.0,0.0
7137,87.0,7.0,15.0,0.0,0.0
7138,68.0,6.0,15.0,0.0,0.0
7139,89.0,2.0,15.0,0.0,0.0
7140,87.0,4.0,15.0,0.0,0.0
7141,72.0,3.0,15.0,0.0,0.0
7142,89.0,7.0,15.0,0.0,0.0
7143,68.0,1.0,15.0,0.0,0.0
7144,87.0,7.0,15.0,0.0,0.0
7145,89.0,2.0,15.0,0.0,0.0
7146,72.0,6.0,15.0,0.0,0.0
7147,87.0,4.0,15.0,0.0,0.0
7148,69.0,3.0,15.0,0.0,0.0
7149,89.0,7.0,15.0,0.0,0.0
7150,72.0,1.0,15.0,0.0,0.0
7151,87.0,7.0,15.0,0.0,0.0
7152,89.0,2.0,15.0,0.0,0.0
7153,69.0,6.0,15.0,0.0,0.0
7154,87.0,4.0,15.0,0.0,0.0
7155,72.0,3.0,15.0,0.0,0.0
7156,89.0,7.0,15.0,0.0,0.0
7157,69.0,1.0,15.0,0.0,0.0
7158,87.0,7.0,15.0,0.0,0.0
7159,89.0,2.0,15.0,0.0,0.0
7160,73.0,6.0,15.0,0.0,0.0
7161,87.0,1.0,15.0,0.0,0.0
7162,70.0,3.0,15.0,0.0,0.0
7163,89.0,7.0,15.0,0.0,0.0
7164,73.0,1.0,15.0,0.0,0.0
7165,87.0,7.0,15.0,0.0,0.0
7166,89.0,2.0,15.0,0.0,0.0
7167,82.0,6.0,60.0,0.0,0.0
7168,67.0,6.0,15.0,0.0,0.0
7169,87.0,4.0,15.0,0.0,0.0
7170,73.0,3.0,15.0,0.0,0.0
7171,89.0,7.0,15.0,0.0,0.0
7172,67.0,1.0,15.0,0.0,0.0
7173,87.0,7.0,15.0,0.0,0.0
7174,89.0,2.0,15.0,0.0,0.0
7175,73.0,6.0,15.0,0.0,0.0
7176,87.0,4.0,15.0,0.0,0.0
7177,67.0,3.0,15.0,0.0,0.0
7178,89.0,1.0,15.0,0.0,0.0
7179,73.0,1.0,15.0,0.0,0.0
7180,87.0,7.0,15.0,0.0,0.0
7181,89.0,2.0,15.0,0.0,0.0
7182,75.0,2.0,30.0,0.0,0.0
7183,67.0,6.0,15.0,0.0,0.0
7184,87.0,4.0,15.0,0.0,0.0
7185,73.0,3.0,15.0,0.0,0.0
7186,89.0,5.0,15.0,0.0,0.0
7187,67.0,1.0,15.0,0.0,0.0
7188,87.0,7.0,15.0,0.0,0.0
7189,75.0,3.0,180.0,0.0,0.0
7190,89.0,2.0,15.0,0.0,0.0
7191,73.0,6.0,15.0,0.0,0.0
7192,87.0,4.0,15.0,0.0,0.0
7193,67.0,3.0,15.0,0.0,0.0
7194,89.0,7.0,15.0,0.0,0.0
7195,73.0,1.0,15.0,0.0,0.0
7196,87.0,7.0,15.0,0.0,0.0
7197,89.0,2.0,15.0,0.0,0.0
7198,67.0,6.0,15.0,0.0,0.0
7199,87.0,4.0,15.0,0.0,0.0
7200,73.0,3.0,15.0,0.0,0.0
7201,89.0,7.0,15.0,0.0,0.0
7202,67.0,1.0,15.0,0.0,0.0
7203,87.0,7.0,15.0,0.0,0.0
7204,89.0,2.0,15.0,0.0,0.0
7205,73.0,6.0,15.0,0.0,0.0
7206,87.0,4.0,15.0,0.0,0.0
7207,67.0,3.0,15.0,0.0,0.0
7208,89.0,7.0,15.0,0.0,0.0
7209,73.0,1.0,15.0,0.0,0.0
7210,87.0,7.0,15.0,0.0,0.0
7211,89.0,2.0,15.0,0.0,0.0
7212,68.0,6.0,15.0,0.0,0.0
7213,87.0,4.0,15.0,0.0,0.0
7214,72.0,3.0,15.0,0.0,0.0
7215,89.0,7.0,15.0,0.0,0.0
7216,68.0,1.0,15.0,0.0,0.0
7217,87.0,7.0,15.0,0.0,0.0
7218,89.0,2.0,15.0,0.0,0.0
7219,72.0,6.0,15.0,0.0,0.0
7220,87.0,4.0,15.0,0.0,0.0
7221,68.0,3.0,15.0,0.0,0.0
7222,89.0,7.0,15.0,0.0,0.0
7223,72.0,1.0,15.0,0.0,0.0
7224,87.0,7.0,15.0,0.0,0.0
7225,68.0,6.0,15.0,0.0,0.0
7226,89.0,2.0,15.0,0.0,0.0
7227,87.0,1.0,15.0,0.0,0.0
7228,72.0,3.0,15.0,0.0,0.0
7229,89.0,7.0,15.0,0.0,0.0
7230,68.0,1.0,15.0,0.0,0.0
7231,87.0,7.0,15.0,0.0,0.0
7232,89.0,2.0,15.0,0.0,0.0
7233,73.0,6.0,15.0,0.0,0.0
7234,75.0,0.0,90.0,0.0,0.0
7235,87.0,4.0,15.0,0.0,0.0
7236,70.0,3.0,15.0,0.0,0.0
7237,89.0,7.0,15.0,0.0,0.0
7238,73.0,1.0,15.0,0.0,0.0
7239,87.0,7.0,15.0,0.0,0.0
7240,70.0,6.0,15.0,0.0,0.0
7241,89.0,2.0,15.0,0.0,0.0
7242,87.0,4.0,15.0,0.0,0.0
7243,73.0,3.0,15.0,0.0,0.0
7244,89.0,7.0,15.0,0.0,0.0
7245,70.0,1.0,15.0,0.0,0.0
7246,87.0,7.0,15.0,0.0,0.0
7247,89.0,2.0,15.0,0.0,0.0
7248,72.0,6.0,15.0,0.0,0.0
7249,87.0,4.0,15.0,0.0,0.0
7250,70.0,3.0,15.0,0.0,0.0
7251,89.0,7.0,15.0,0.0,0.0
7252,72.0,1.0,15.0,0.0,0.0
7253,87.0,7.0,15.0,0.0,0.0
7254,60.0,6.0,15.0,0.0,0.0
7255,89.0,2.0,15.0,0.0,0.0
7256,75.0,3.0,90.0,0.0,0.0
7257,87.0,4.0,15.0,0.0,0.0
7258,72.0,3.0,15.0,0.0,0.0
7259,89.0,7.0,15.0,0.0,0.0
7260,60.0,1.0,15.0,0.0,0.0
7261,87.0,7.0,15.0,0.0,0.0
7262,89.0,2.0,15.0,0.0,0.0
7263,72.0,6.0,15.0,0.0,0.0
7264,87.0,4.0,15.0,0.0,0.0
7265,60.0,3.0,15.0,0.0,0.0
7266,89.0,7.0,15.0,0.0,0.0
7267,72.0,1.0,15.0,0.0,0.0
7268,87.0,7.0,15.0,0.0,0.0
7269,89.0,2.0,15.0,0.0,0.0
7270,60.0,6.0,15.0,0.0,0.0
7271,87.0,4.0,15.0,0.0,0.0
7272,72.0,0.0,15.0,0.0,0.0
7273,89.0,7.0,15.0,0.0,0.0
7274,60.0,1.0,15.0,0.0,0.0
7275,87.0,7.0,15.0,0.0,0.0
7276,89.0,2.0,15.0,0.0,0.0
7277,84.0,3.0,90.0,0.0,0.0
7278,68.0,6.0,15.0,0.0,0.0
7279,87.0,4.0,15.0,0.0,0.0
7280,56.0,3.0,15.0,0.0,0.0
7281,89.0,7.0,15.0,0.0,0.0
7282,68.0,1.0,15.0,0.0,0.0
7283,87.0,7.0,15.0,0.0,0.0
7284,89.0,2.0,15.0,0.0,0.0
7285,56.0,6.0,15.0,0.0,0.0
7286,87.0,4.0,15.0,0.0,0.0
7287,68.0,3.0,15.0,0.0,0.0
7288,89.0,7.0,15.0,0.0,0.0
7289,56.0,1.0,15.0,0.0,0.0
7290,87.0,7.0,15.0,0.0,0.0
7291,89.0,2.0,15.0,0.0,0.0
7292,68.0,6.0,15.0,0.0,0.0
7293,87.0,4.0,15.0,0.0,0.0
7294,56.0,0.0,15.0,0.0,0.0
7295,89.0,7.0,15.0,0.0,0.0
7296,68.0,1.0,15.0,0.0,0.0
7297,87.0,7.0,15.0,0.0,0.0
7298,89.0,2.0,15.0,0.0,0.0
7299,80.0,3.0,90.0,0.0,0.0
7300,60.0,6.0,15.0,0.0,0.0
7301,87.0,4.0,15.0,0.0,0.0
7302,72.0,3.0,15.0,0.0,0.0
7303,89.0,7.0,15.0,0.0,0.0
7304,60.0,1.0,15.0,0.0,0.0
7305,87.0,7.0,15.0,0.0,0.0
7306,89.0,2.0,15.0,0.0,0.0
7307,72.0,6.0,15.0,0.0,0.0
7308,87.0,4.0,15.0,0.0,0.0
7309,60.0,3.0,15.0,0.0,0.0
7310,89.0,7.0,15.0,0.0,0.0
7311,72.0,1.0,15.0,0.0,0.0
7312,87.0,7.0,15.0,0.0,0.0
7313,89.0,2.0,15.0,0.0,0.0
7314,60.0,6.0,15.0,0.0,0.0
7315,87.0,4.0,15.0,0.0,0.0
7316,72.0,0.0,15.0,0.0,0.0
7317,89.0,7.0,15.0,0.0,0.0
7318,60.0,1.0,15.0,0.0,0.0
7319,87.0,7.0,15.0,0.0,0.0
7320,89.0,2.0,15.0,0.0,0.0
7321,80.0,3.0,90.0,0.0,0.0
7322,72.0,6.0,15.0,0.0,0.0
7323,87.0,4.0,15.0,0.0,0.0
7324,63.0,3.0,15.0,0.0,0.0
7325,89.0,7.0,15.0,0.0,0.0
7326,72.0,1.0,15.0,0.0,0.0
7327,87.0,7.0,15.0,0.0,0.0
7328,89.0,2.0,15.0,0.0,0.0
7329,63.0,6.0,15.0,0.0,0.0
7330,87.0,4.0,15.0,0.0,0.0
7331,72.0,3.0,15.0,0.0,0.0
7332,89.0,7.0,15.0,0.0,0.0
7333,63.0,1.0,15.0,0.0,0.0
7334,87.0,7.0,15.0,0.0,0.0
7335,72.0,6.0,15.0,0.0,0.0
7336,89.0,2.0,15.0,0.0,0.0
7337,87.0,4.0,15.0,0.0,0.0
7338,63.0,0.0,15.0,0.0,0.0
7339,89.0,7.0,15.0,0.0,0.0
7340,72.0,1.0,15.0,0.0,0.0
7341,87.0,7.0,15.0,0.0,0.0
7342,79.0,3.0,90.0,0.0,0.0
7343,63.0,6.0,15.0,0.0,0.0
7344,89.0,2.0,15.0,0.0,0.0
7345,87.0,4.0,15.0,0.0,0.0
7346,70.0,3.0,15.0,0.0,0.0
7347,89.0,7.0,15.0,0.0,0.0
7348,63.0,1.0,15.0,0.0,0.0
7349,87.0,7.0,15.0,0.0,0.0
7350,70.0,6.0,15.0,0.0,0.0
7351,89.0,2.0,15.0,0.0,0.0
7352,87.0,4.0,15.0,0.0,0.0
7353,63.0,3.0,15.0,0.0,0.0
7354,89.0,7.0,15.0,0.0,0.0
7355,70.0,1.0,15.0,0.0,0.0
7356,87.0,7.0,15.0,0.0,0.0
7357,89.0,2.0,15.0,0.0,0.0
7358,63.0,6.0,15.0,0.0,0.0
7359,87.0,4.0,15.0,0.0,0.0
7360,70.0,0.0,15.0,0.0,0.0
7361,89.0,7.0,15.0,0.0,0.0
7362,63.0,1.0,15.0,0.0,0.0
7363,87.0,7.0,15.0,0.0,0.0
7364,77.0,2.0,15.0,0.0,0.0
7365,70.0,6.0,15.0,0.0,0.0
7366,79.0,3.0,90.0,0.0,0.0
7367,75.0,4.0,15.0,0.0,0.0
7368,61.0,3.0,15.0,0.0,0.0
7369,77.0,7.0,15.0,0.0,0.0
7370,70.0,1.0,15.0,0.0,0.0
7371,75.0,7.0,15.0,0.0,0.0
7372,77.0,2.0,15.0,0.0,0.0
7373,61.0,6.0,15.0,0.0,0.0
7374,75.0,4.0,15.0,0.0,0.0
7375,70.0,3.0,15.0,0.0,0.0
7376,77.0,7.0,15.0,0.0,0.0
7377,61.0,1.0,15.0,0.0,0.0
7378,75.0,7.0,15.0,0.0,0.0
7379,70.0,6.0,15.0,0.0,0.0
7380,77.0,2.0,15.0,0.0,0.0
7381,75.0,4.0,15.0,0.0,0.0
7382,61.0,0.0,15.0,0.0,0.0
7383,77.0,7.0,15.0,0.0,0.0
7384,70.0,1.0,15.0,0.0,0.0
7385,75.0,7.0,15.0,0.0,0.0
7386,77.0,2.0,15.0,0.0,0.0
7387,80.0,3.0,90.0,0.0,0.0
7388,60.0,6.0,15.0,0.0,0.0
7389,75.0,4.0,15.0,0.0,0.0
7390,63.0,3.0,15.0,0.0,0.0
7391,77.0,7.0,15.0,0.0,0.0
7392,60.0,1.0,15.0,0.0,0.0
7393,75.0,7.0,15.0,0.0,0.0
7394,77.0,2.0,15.0,0.0,0.0
7395,63.0,6.0,15.0,0.0,0.0
7396,75.0,4.0,15.0,0.0,0.0
7397,60.0,3.0,15.0,0.0,0.0
7398,77.0,7.0,15.0,0.0,0.0
7399,63.0,1.0,15.0,0.0,0.0
7400,75.0,7.0,15.0,0.0,0.0
7401,60.0,6.0,15.0,0.0,0.0
7402,77.0,2.0,15.0,0.0,0.0
7403,75.0,4.0,15.0,0.0,0.0
7404,63.0,0.0,15.0,0.0,0.0
7405,77.0,7.0,15.0,0.0,0.0
7406,60.0,1.0,15.0,0.0,0.0
7407,75.0,7.0,15.0,0.0,0.0
7408,84.0,3.0,90.0,0.0,0.0
7409,77.0,2.0,15.0,0.0,0.0
7410,56.0,6.0,15.0,0.0,0.0
7411,75.0,4.0,15.0,0.0,0.0
7412,60.0,3.0,15.0,0.0,0.0
7413,77.0,7.0,15.0,0.0,0.0
7414,56.0,1.0,15.0,0.0,0.0
7415,75.0,7.0,15.0,0.0,0.0
7416,77.0,2.0,15.0,0.0,0.0
7417,60.0,6.0,15.0,0.0,0.0
7418,75.0,4.0,15.0,0.0,0.0
7419,56.0,3.0,15.0,0.0,0.0
7420,77.0,7.0,15.0,0.0,0.0
7421,60.0,1.0,15.0,0.0,0.0
7422,75.0,7.0,15.0,0.0,0.0
7423,56.0,6.0,15.0,0.0,0.0
7424,77.0,2.0,15.0,0.0,0.0
7425,75.0,4.0,15.0,0.0,0.0
7426,60.0,0.0,15.0,0.0,0.0
7427,77.0,7.0,15.0,0.0,0.0
7428,56.0,1.0,15.0,0.0,0.0
7429,75.0,7.0,15.0,0.0,0.0
7430,77.0,2.0,15.0,0.0,0.0
7431,87.0,3.0,90.0,0.0,0.0
7432,54.0,6.0,15.0,0.0,0.0
7433,75.0,4.0,15.0,0.0,0.0
7434,56.0,3.0,15.0,0.0,0.0
7435,77.0,7.0,15.0,0.0,0.0
7436,54.0,1.0,15.0,0.0,0.0
7437,75.0,7.0,15.0,0.0,0.0
7438,77.0,2.0,15.0,0.0,0.0
7439,56.0,6.0,15.0,0.0,0.0
7440,75.0,4.0,15.0,0.0,0.0
7441,54.0,3.0,15.0,0.0,0.0
7442,77.0,7.0,15.0,0.0,0.0
7443,56.0,1.0,15.0,0.0,0.0
7444,75.0,7.0,15.0,0.0,0.0
7445,77.0,2.0,15.0,0.0,0.0
7446,54.0,6.0,15.0,0.0,0.0
7447,75.0,4.0,15.0,0.0,0.0
7448,56.0,0.0,15.0,0.0,0.0
7449,77.0,7.0,15.0,0.0,0.0
7450,54.0,1.0,15.0,0.0,0.0
7451,75.0,7.0,15.0,0.0,0.0
7452,77.0,2.0,15.0,0.0,0.0
7453,87.0,3.0,90.0,0.0,0.0
7454,53.0,6.0,15.0,0.0,0.0
7455,75.0,4.0,15.0,0.0,0.0
7456,56.0,3.0,15.0,0.0,0.0
7457,77.0,7.0,15.0,0.0,0.0
7458,53.0,1.0,15.0,0.0,0.0
7459,75.0,7.0,15.0,0.0,0.0
7460,77.0,2.0,15.0,0.0,0.0
7461,56.0,6.0,15.0,0.0,0.0
7462,75.0,4.0,15.0,0.0,0.0
7463,53.0,3.0,15.0,0.0,0.0
7464,77.0,7.0,15.0,0.0,0.0
7465,56.0,1.0,15.0,0.0,0.0
7466,75.0,7.0,15.0,0.0,0.0
7467,53.0,6.0,15.0,0.0,0.0
7468,77.0,2.0,15.0,0.0,0.0
7469,75.0,4.0,15.0,0.0,0.0
7470,56.0,0.0,15.0,0.0,0.0
7471,77.0,7.0,15.0,0.0,0.0
7472,53.0,1.0,15.0,0.0,0.0
7473,75.0,7.0,15.0,0.0,0.0
7474,77.0,2.0,15.0,0.0,0.0
7475,85.0,0.0,90.0,0.0,0.0
7476,56.0,6.0,15.0,0.0,0.0
7477,75.0,4.0,15.0,0.0,0.0
7478,53.0,3.0,15.0,0.0,0.0
7479,77.0,7.0,15.0,0.0,0.0
7480,56.0,1.0,15.0,0.0,0.0
7481,75.0,7.0,15.0,0.0,0.0
7482,55.0,6.0,15.0,0.0,0.0
7483,77.0,2.0,15.0,0.0,0.0
7484,75.0,4.0,15.0,0.0,0.0
7485,56.0,3.0,15.0,0.0,0.0
7486,77.0,7.0,15.0,0.0,0.0
7487,55.0,1.0,15.0,0.0,0.0
7488,75.0,7.0,15.0,0.0,0.0
7489,77.0,2.0,15.0,0.0,0.0
7490,56.0,6.0,15.0,0.0,0.0
7491,75.0,4.0,15.0,0.0,0.0
7492,55.0,3.0,15.0,0.0,0.0
7493,77.0,7.0,15.0,0.0,0.0
7494,56.0,1.0,15.0,0.0,0.0
7495,75.0,7.0,15.0,0.0,0.0
7496,77.0,2.0,15.0,0.0,0.0
7497,82.0,6.0,60.0,0.0,0.0
7498,55.0,6.0,15.0,0.0,0.0
7499,75.0,4.0,15.0,0.0,0.0
7500,61.0,3.0,15.0,0.0,0.0
7501,77.0,7.0,15.0,0.0,0.0
7502,55.0,1.0,15.0,0.0,0.0
7503,75.0,7.0,15.0,0.0,0.0
7504,77.0,2.0,15.0,0.0,0.0
7505,61.0,6.0,15.0,0.0,0.0
7506,75.0,4.0,15.0,0.0,0.0
7507,55.0,3.0,15.0,0.0,0.0
7508,77.0,1.0,15.0,0.0,0.0
7509,61.0,1.0,15.0,0.0,0.0
7510,75.0,7.0,15.0,0.0,0.0
7511,77.0,2.0,15.0,0.0,0.0
7512,80.0,2.0,30.0,0.0,0.0
7513,60.0,6.0,15.0,0.0,0.0
7514,75.0,4.0,15.0,0.0,0.0
7515,56.0,3.0,15.0,0.0,0.0
7516,77.0,5.0,15.0,0.0,0.0
7517,60.0,1.0,15.0,0.0,0.0
7518,75.0,7.0,15.0,0.0,0.0
7519,77.0,2.0,15.0,0.0,0.0
7520,79.0,3.0,90.0,0.0,0.0
7521,58.0,6.0,15.0,0.0,0.0
7522,75.0,4.0,15.0,0.0,0.0
7523,61.0,3.0,15.0,0.0,0.0
7524,77.0,7.0,15.0,0.0,0.0
7525,58.0,1.0,15.0,0.0,0.0
7526,75.0,7.0,15.0,0.0,0.0
7527,77.0,2.0,15.0,0.0,0.0
7528,63.0,6.0,15.0,0.0,0.0
7529,75.0,4.0,15.0,0.0,0.0
7530,60.0,3.0,15.0,0.0,0.0
7531,77.0,7.0,15.0,0.0,0.0
7532,63.0,1.0,15.0,0.0,0.0
7533,75.0,7.0,15.0,0.0,0.0
7534,58.0,6.0,15.0,0.0,0.0
7535,77.0,2.0,15.0,0.0,0.0
7536,75.0,4.0,15.0,0.0,0.0
7537,61.0,0.0,15.0,0.0,0.0
7538,77.0,7.0,15.0,0.0,0.0
7539,58.0,1.0,15.0,0.0,0.0
7540,75.0,7.0,15.0,0.0,0.0
7541,80.0,3.0,90.0,0.0,0.0
7542,56.0,6.0,15.0,0.0,0.0
7543,77.0,2.0,15.0,0.0,0.0
7544,75.0,4.0,15.0,0.0,0.0
7545,60.0,3.0,15.0,0.0,0.0
7546,77.0,7.0,15.0,0.0,0.0
7547,56.0,1.0,15.0,0.0,0.0
7548,75.0,7.0,15.0,0.0,0.0
7549,77.0,2.0,15.0,0.0,0.0
7550,61.0,6.0,15.0,0.0,0.0
7551,75.0,4.0,15.0,0.0,0.0
7552,58.0,3.0,15.0,0.0,0.0
7553,77.0,7.0,15.0,0.0,0.0
7554,61.0,1.0,15.0,0.0,0.0
7555,75.0,7.0,15.0,0.0,0.0
7556,56.0,6.0,15.0,0.0,0.0
7557,77.0,2.0,15.0,0.0,0.0
7558,75.0,4.0,15.0,0.0,0.0
7559,60.0,0.0,15.0,0.0,0.0
7560,77.0,7.0,15.0,0.0,0.0
7561,56.0,1.0,15.0,0.0,0.0
7562,75.0,7.0,15.0,0.0,0.0
7563,77.0,2.0,15.0,0.0,0.0
7564,82.0,6.0,60.0,0.0,0.0
7565,55.0,6.0,15.0,0.0,0.0
7566,75.0,4.0,15.0,0.0,0.0
7567,58.0,3.0,15.0,0.0,0.0
7568,77.0,7.0,15.0,0.0,0.0
7569,55.0,1.0,15.0,0.0,0.0
7570,75.0,7.0,15.0,0.0,0.0
7571,77.0,2.0,15.0,0.0,0.0
7572,56.0,6.0,15.0,0.0,0.0
7573,75.0,4.0,15.0,0.0,0.0
7574,53.0,3.0,15.0,0.0,0.0
7575,77.0,1.0,15.0,0.0,0.0
7576,56.0,1.0,15.0,0.0,0.0
7577,75.0,7.0,15.0,0.0,0.0
7578,77.0,2.0,15.0,0.0,0.0
7579,55.0,6.0,15.0,0.0,0.0
7580,75.0,4.0,15.0,0.0,0.0
7581,58.0,3.0,15.0,0.0,0.0
7582,77.0,7.0,15.0,0.0,0.0
7583,55.0,1.0,15.0,0.0,0.0
7584,75.0,7.0,15.0,0.0,0.0
7585,77.0,2.0,15.0,0.0,0.0
7586,44.0,6.0,15.0,0.0,0.0
7587,75.0,4.0,15.0,0.0,0.0
7588,60.0,3.0,15.0,0.0,0.0
7589,77.0,7.0,15.0,0.0,0.0
7590,56.0,1.0,15.0,0.0,0.0
7591,75.0,7.0,15.0,0.0,0.0
7592,77.0,2.0,15.0,0.0,0.0
7593,60.0,6.0,15.0,0.0,0.0
7594,75.0,4.0,15.0,0.0,0.0
7595,56.0,3.0,15.0,0.0,0.0
7596,77.0,7.0,15.0,0.0,0.0
7597,60.0,1.0,15.0,0.0,0.0
7598,75.0,7.0,15.0,0.0,0.0
7599,56.0,6.0,15.0,0.0,0.0
7600,77.0,2.0,15.0,0.0,0.0
7601,75.0,4.0,15.0,0.0,0.0
7602,60.0,3.0,15.0,0.0,0.0
7603,77.0,7.0,15.0,0.0,0.0
7604,56.0,1.0,15.0,0.0,0.0
7605,75.0,7.0,15.0,0.0,0.0
7606,77.0,2.0,15.0,0.0,0.0
7607,44.0,6.0,15.0,0.0,0.0
7608,75.0,4.0,15.0,0.0,0.0
7609,60.0,3.0,15.0,0.0,0.0
7610,77.0,7.0,15.0,0.0,0.0
7611,56.0,1.0,15.0,0.0,0.0
7612,75.0,7.0,15.0,0.0,0.0
7613,77.0,2.0,15.0,0.0,0.0
7614,60.0,6.0,15.0,0.0,0.0
7615,75.0,4.0,15.0,0.0,0.0
7616,56.0,3.0,15.0,0.0,0.0
7617,77.0,7.0,15.0,0.0,0.0
7618,60.0,1.0,15.0,0.0,0.0
7619,75.0,7.0,15.0,0.0,0.0
7620,77.0,2.0,15.0,0.0,0.0
7621,56.0,6.0,15.0,0.0,0.0
7622,75.0,4.0,15.0,0.0,0.0
7623,60.0,3.0,15.0,0.0,0.0
7624,77.0,7.0,15.0,0.0,0.0
7625,56.0,1.0,15.0,0.0,0.0
7626,75.0,7.0,15.0,0.0,0.0
7627,77.0,2.0,15.0,0.0,0.0
7628,70.0,6.0,60.0,0.0,0.0
7629,44.0,6.0,15.0,0.0,0.0
7630,75.0,4.0,15.0,0.0,0.0
7631,61.0,3.0,15.0,0.0,0.0
7632,77.0,7.0,15.0,0.0,0.0
7633,56.0,1.0,15.0,0.0,0.0
7634,75.0,7.0,15.0,0.0,0.0
7635,77.0,2.0,15.0,0.0,0.0
7636,61.0,6.0,15.0,0.0,0.0
7637,75.0,4.0,15.0,0.0,0.0
7638,56.0,3.0,15.0,0.0,0.0
7639,77.0,1.0,15.0,0.0,0.0
7640,61.0,1.0,15.0,0.0,0.0
7641,75.0,7.0,15.0,0.0,0.0
7642,77.0,2.0,15.0,0.0,0.0
7643,67.0,2.0,30.0,0.0,0.0
7644,56.0,6.0,15.0,0.0,0.0
7645,75.0,4.0,15.0,0.0,0.0
7646,61.0,3.0,15.0,0.0,0.0
7647,77.0,5.0,15.0,0.0,0.0
7648,56.0,1.0,15.0,0.0,0.0
7649,75.0,7.0,15.0,0.0,0.0
7650,77.0,2.0,15.0,0.0,0.0
7651,63.0,3.0,90.0,0.0,0.0
7652,44.0,6.0,15.0,0.0,0.0
7653,75.0,4.0,15.0,0.0,0.0
7654,60.0,3.0,15.0,0.0,0.0
7655,77.0,7.0,15.0,0.0,0.0
7656,56.0,1.0,15.0,0.0,0.0
7657,75.0,7.0,15.0,0.0,0.0
7658,77.0,2.0,15.0,0.0,0.0
7659,60.0,6.0,15.0,0.0,0.0
7660,75.0,4.0,15.0,0.0,0.0
7661,56.0,3.0,15.0,0.0,0.0
7662,77.0,7.0,15.0,0.0,0.0
7663,60.0,1.0,15.0,0.0,0.0
7664,75.0,7.0,15.0,0.0,0.0
7665,56.0,6.0,15.0,0.0,0.0
7666,77.0,2.0,15.0,0.0,0.0
7667,75.0,4.0,15.0,0.0,0.0
7668,60.0,0.0,15.0,0.0,0.0
7669,77.0,7.0,15.0,0.0,0.0
7670,56.0,1.0,15.0,0.0,0.0
7671,75.0,7.0,15.0,0.0,0.0
7672,44.0,6.0,15.0,0.0,0.0
7673,63.0,6.0,60.0,0.0,0.0
7674,77.0,2.0,15.0,0.0,0.0
7675,75.0,4.0,15.0,0.0,0.0
7676,48.0,3.0,15.0,0.0,0.0
7677,77.0,7.0,15.0,0.0,0.0
7678,44.0,1.0,15.0,0.0,0.0
7679,75.0,7.0,15.0,0.0,0.0
7680,48.0,6.0,15.0,0.0,0.0
7681,77.0,2.0,15.0,0.0,0.0
7682,75.0,4.0,15.0,0.0,0.0
7683,44.0,3.0,15.0,0.0,0.0
7684,77.0,1.0,15.0,0.0,0.0
7685,48.0,1.0,15.0,0.0,0.0
7686,75.0,7.0,15.0,0.0,0.0
7687,80.0,2.0,30.0,0.0,0.0
7688,44.0,6.0,15.0,0.0,0.0
7689,77.0,2.0,15.0,0.0,0.0
7690,75.0,4.0,15.0,0.0,0.0
7691,48.0,3.0,15.0,0.0,0.0
7692,77.0,5.0,15.0,0.0,0.0
7693,44.0,1.0,15.0,0.0,0.0
7694,75.0,7.0,15.0,0.0,0.0
7695,77.0,2.0,15.0,0.0,0.0
7696,32.0,6.0,15.0,0.0,0.0
7697,81.0,2.0,30.0,0.0,0.0
7698,75.0,4.0,15.0,0.0,0.0
7699,49.0,3.0,15.0,0.0,0.0
7700,77.0,5.0,15.0,0.0,0.0
7701,44.0,1.0,15.0,0.0,0.0
7702,75.0,7.0,15.0,0.0,0.0
7703,49.0,6.0,15.0,0.0,0.0
7704,77.0,2.0,15.0,0.0,0.0
7705,82.0,2.0,30.0,0.0,0.0
7706,75.0,4.0,15.0,0.0,0.0
7707,44.0,3.0,15.0,0.0,0.0
7708,77.0,5.0,15.0,0.0,0.0
7709,49.0,1.0,15.0,0.0,0.0
7710,75.0,7.0,15.0,0.0,0.0
7711,77.0,2.0,15.0,0.0,0.0
7712,44.0,6.0,15.0,0.0,0.0
7713,75.0,4.0,15.0,0.0,0.0
7714,49.0,3.0,15.0,0.0,0.0
7715,77.0,5.0,15.0,0.0,0.0
7716,44.0,1.0,15.0,0.0,0.0
7717,75.0,2.0,15.0,0.0,0.0
7718,77.0,2.0,15.0,0.0,0.0
7719,32.0,6.0,15.0,0.0,0.0
7720,75.0,4.0,15.0,0.0,0.0
7721,48.0,3.0,15.0,0.0,0.0
7722,77.0,7.0,15.0,0.0,0.0
7723,44.0,1.0,15.0,0.0,0.0
7724,75.0,7.0,15.0,0.0,0.0
7725,77.0,2.0,15.0,0.0,0.0
7726,48.0,6.0,15.0,0.0,0.0
7727,75.0,4.0,15.0,0.0,0.0
7728,44.0,3.0,15.0,0.0,0.0
7729,77.0,7.0,15.0,0.0,0.0
7730,48.0,1.0,15.0,0.0,0.0
7731,75.0,7.0,15.0,0.0,0.0
7732,77.0,2.0,15.0,0.0,0.0
7733,44.0,6.0,15.0,0.0,0.0
7734,75.0,4.0,15.0,0.0,0.0
7735,48.0,3.0,15.0,0.0,0.0
7736,77.0,7.0,15.0,0.0,0.0
7737,44.0,1.0,15.0,0.0,0.0
7738,75.0,7.0,15.0,0.0,0.0
7739,31.0,6.0,15.0,0.0,0.0
7740,77.0,2.0,15.0,0.0,0.0
7741,75.0,4.0,15.0,0.0,0.0
7742,48.0,3.0,15.0,0.0,0.0
7743,77.0,7.0,15.0,0.0,0.0
7744,44.0,1.0,15.0,0.0,0.0
7745,75.0,7.0,15.0,0.0,0.0
7746,48.0,6.0,15.0,0.0,0.0
7747,77.0,2.0,15.0,0.0,0.0
7748,75.0,4.0,15.0,0.0,0.0
7749,44.0,3.0,15.0,0.0,0.0
7750,77.0,7.0,15.0,0.0,0.0
7751,48.0,1.0,15.0,0.0,0.0
7752,75.0,7.0,15.0,0.0,0.0
7753,77.0,2.0,15.0,0.0,0.0
7754,68.0,2.0,30.0,0.0,0.0
7755,44.0,6.0,15.0,0.0,0.0
7756,75.0,4.0,15.0,0.0,0.0
7757,48.0,3.0,15.0,0.0,0.0
7758,77.0,5.0,15.0,0.0,0.0
7759,44.0,1.0,15.0,0.0,0.0
7760,75.0,7.0,15.0,0.0,0.0
7761,77.0,2.0,15.0,0.0,0.0
7762,69.0,2.0,30.0,0.0,0.0
7763,32.0,6.0,15.0,0.0,0.0
7764,75.0,4.0,15.0,0.0,0.0
7765,49.0,3.0,15.0,0.0,0.0
7766,77.0,5.0,15.0,0.0,0.0
7767,44.0,1.0,15.0,0.0,0.0
7768,75.0,7.0,15.0,0.0,0.0
7769,77.0,2.0,15.0,0.0,0.0
7770,70.0,2.0,30.0,0.0,0.0
7771,49.0,6.0,15.0,0.0,0.0
7772,75.0,4.0,15.0,0.0,0.0
7773,44.0,3.0,15.0,0.0,0.0
7774,77.0,5.0,15.0,0.0,0.0
7775,49.0,1.0,15.0,0.0,0.0
7776,75.0,7.0,15.0,0.0,0.0
7777,77.0,2.0,15.0,0.0,0.0
7778,63.0,2.0,30.0,0.0,0.0
7779,44.0,6.0,15.0,0.0,0.0
7780,75.0,4.0,15.0,0.0,0.0
7781,49.0,3.0,15.0,0.0,0.0
7782,77.0,5.0,15.0,0.0,0.0
7783,44.0,1.0,15.0,0.0,0.0
7784,75.0,9.0,15.0,0.0,0.0
7785,75.0,10.0,15.0,0.0,0.0
7786,77.0,10.0,15.0,0.0,0.0
7787,75.0,10.0,15.0,0.0,0.0
7788,74.0,10.0,15.0,0.0,0.0
7789,75.0,10.0,15.0,0.0,0.0
7790,77.0,10.0,15.0,0.0,0.0
7791,79.0,10.0,15.0,0.0,0.0
7792,80.0,10.0,15.0,0.0,0.0
7793,77.0,10.0,15.0,0.0,0.0
7794,79.0,10.0,15.0,0.0,0.0
7795,75.0,0.0,15.0,0.0,0.0
7796,77.0,0.0,15.0,0.0,0.0
7797,80.0,10.0,15.0,0.0,0.0
7798,79.0,10.0,15.0,0.0,0.0
7799,75.0,0.0,15.0,0.0,0.0
7800,77.0,10.0,15.0,0.0,0.0
7801,74.0,0.0,15.0,0.0,0.0
7802,75.0,0.0,15.0,0.0,0.0
7803,79.0,10.0,15.0,0.0,0.0
7804,80.0,10.0,15.0,0.0,0.0
7805,77.0,0.0,15.0,0.0,0.0
7806,82.0,10.0,15.0,0.0,0.0
7807,79.0,0.0,15.0,0.0,0.0
7808,84.0,10.0,15.0,0.0,0.0
7809,80.0,0.0,15.0,0.0,0.0
7810,80.0,10.0,15.0,0.0,0.0
7811,77.0,0.0,15.0,0.0,0.0
7812,82.0,10.0,15.0,0.0,0.0
7813,79.0,0.0,15.0,0.0,0.0
7814,84.0,10.0,15.0,0.0,0.0
7815,80.0,0.0,15.0,0.0,0.0
7816,79.0,0.0,15.0,0.0,0.0
7817,82.0,10.0,15.0,0.0,0.0
7818,81.0,10.0,15.0,0.0,0.0
7819,78.0,0.0,15.0,0.0,0.0
7820,82.0,10.0,15.0,0.0,0.0
7821,79.0,0.0,15.0,0.0,0.0
7822,84.0,10.0,15.0,0.0,0.0
7823,80.0,0.0,15.0,0.0,0.0
7824,85.0,10.0,15.0,0.0,0.0
7825,82.0,0.0,15.0,0.0,0.0
7826,87.0,10.0,15.0,0.0,0.0
7827,84.0,0.0,15.0,0.0,0.0
7828,84.0,10.0,15.0,0.0,0.0
7829,81.0,0.0,15.0,0.0,0.0
7830,85.0,10.0,15.0,0.0,0.0
7831,82.0,0.0,15.0,0.0,0.0
7832,87.0,0.0,15.0,0.0,0.0
7833,84.0,10.0,15.0,0.0,0.0
7834,85.0,10.0,15.0,0.0,0.0
7835,82.0,0.0,15.0,0.0,0.0
7836,84.0,10.0,15.0,0.0,0.0
7837,80.0,0.0,15.0,0.0,0.0
7838,85.0,10.0,15.0,0.0,0.0
7839,82.0,0.0,15.0,0.0,0.0
7840,80.0,0.0,15.0,0.0,0.0
7841,84.0,10.0,15.0,0.0,0.0
7842,82.0,10.0,15.0,0.0,0.0
7843,79.0,0.0,15.0,0.0,0.0
7844,84.0,10.0,15.0,0.0,0.0
7845,80.0,0.0,15.0,0.0,0.0
7846,82.0,0.0,15.0,0.0,0.0
7847,79.0,10.0,15.0,0.0,0.0
7848,80.0,10.0,15.0,0.0,0.0
7849,77.0,0.0,15.0,0.0,0.0
7850,82.0,10.0,15.0,0.0,0.0
7851,79.0,0.0,15.0,0.0,0.0
7852,80.0,0.0,15.0,0.0,0.0
7853,77.0,10.0,15.0,0.0,0.0
7854,75.0,0.0,15.0,0.0,0.0
7855,79.0,10.0,15.0,0.0,0.0
7856,77.0,10.0,15.0,0.0,0.0
7857,80.0,0.0,15.0,0.0,0.0
7858,79.0,10.0,15.0,0.0,0.0
7859,75.0,0.0,15.0,0.0,0.0
7860,80.0,0.0,15.0,0.0,0.0
7861,77.0,10.0,15.0,0.0,0.0
7862,79.0,0.0,15.0,0.0,0.0
7863,82.0,10.0,15.0,0.0,0.0
7864,80.0,10.0,15.0,0.0,0.0
7865,77.0,0.0,15.0,0.0,0.0
7866,82.0,0.0,15.0,0.0,0.0
7867,79.0,10.0,15.0,0.0,0.0
7868,84.0,0.0,15.0,0.0,0.0
7869,80.0,10.0,15.0,0.0,0.0
7870,82.0,0.0,15.0,0.0,0.0
7871,79.0,10.0,15.0,0.0,0.0
7872,84.0,10.0,15.0,0.0,0.0
7873,80.0,0.0,15.0,0.0,0.0
7874,85.0,10.0,15.0,0.0,0.0
7875,82.0,0.0,15.0,0.0,0.0
7876,87.0,10.0,15.0,0.0,0.0
7877,84.0,0.0,15.0,0.0,0.0
7878,89.0,10.0,15.0,0.0,0.0
7879,85.0,0.0,15.0,0.0,0.0
7880,87.0,10.0,15.0,0.0,0.0
7881,84.0,0.0,15.0,0.0,0.0
7882,91.0,10.0,15.0,0.0,0.0
7883,82.0,0.0,15.0,0.0,0.0
7884,80.0,10.0,15.0,0.0,0.0
7885,92.0,0.0,15.0,0.0,0.0
7886,91.0,0.0,15.0,0.0,0.0
7887,79.0,10.0,15.0,0.0,0.0
7888,89.0,10.0,15.0,0.0,0.0
7889,77.0,0.0,15.0,0.0,0.0
7890,87.0,10.0,15.0,0.0,0.0
7891,75.0,0.0,15.0,0.0,0.0
7892,85.0,10.0,15.0,0.0,0.0
7893,73.0,0.0,15.0,0.0,0.0
7894,84.0,10.0,15.0,0.0,0.0
7895,72.0,0.0,15.0,0.0,0.0
7896,82.0,10.0,15.0,0.0,0.0
7897,70.0,0.0,15.0,0.0,0.0
7898,80.0,10.0,15.0,0.0,0.0
7899,68.0,0.0,15.0,0.0,0.0
7900,67.0,10.0,15.0,0.0,0.0
7901,79.0,0.0,15.0,0.0,0.0
7902,80.0,0.0,15.0,0.0,0.0
7903,68.0,10.0,15.0,0.0,0.0
7904,79.0,10.0,15.0,0.0,0.0
7905,67.0,0.0,15.0,0.0,0.0
7906,77.0,10.0,15.0,0.0,0.0
7907,65.0,0.0,15.0,0.0,0.0
7908,75.0,10.0,15.0,0.0,0.0
7909,63.0,0.0,15.0,0.0,0.0
7910,73.0,10.0,15.0,0.0,0.0
7911,61.0,0.0,15.0,0.0,0.0
7912,72.0,10.0,15.0,0.0,0.0
7913,60.0,0.0,15.0,0.0,0.0
7914,70.0,10.0,15.0,0.0,0.0
7915,58.0,0.0,15.0,0.0,0.0
7916,56.0,10.0,15.0,0.0,0.0
7917,68.0,0.0,15.0,0.0,0.0
7918,67.0,0.0,15.0,0.0,0.0
7919,55.0,10.0,15.0,0.0,0.0
7920,68.0,10.0,15.0,0.0,0.0
7921,56.0,0.0,15.0,0.0,0.0
7922,67.0,10.0,15.0,0.0,0.0
7923,55.0,0.0,15.0,0.0,0.0
7924,65.0,10.0,15.0,0.0,0.0
7925,53.0,0.0,15.0,0.0,0.0
7926,51.0,0.0,15.0,0.0,0.0
7927,63.0,10.0,15.0,0.0,0.0
7928,61.0,10.0,15.0,0.0,0.0
7929,49.0,0.0,15.0,0.0,0.0
7930,60.0,10.0,15.0,0.0,0.0
7931,48.0,0.0,15.0,0.0,0.0
7932,58.0,0.0,15.0,0.0,0.0
7933,46.0,10.0,15.0,0.0,0.0
7934,56.0,10.0,15.0,0.0,0.0
7935,44.0,0.0,15.0,0.0,0.0
7936,55.0,88.0,15.0,0.0,0.0
7937,43.0,0.0,15.0,0.0,0.0
7938,56.0,56.0,90.0,0.0,0.0
7939,51.0,0.0,30.0,0.0,0.0
7940,51.0,8.0,90.0,0.0,0.0
7941,32.0,26.0,60.0,0.0,0.0
7942,27.0,56.0,30.0,0.0,0.0
7943,73.0,34.0,60.0,0.0,0.0
7944,27.0,26.0,210.0,0.0,0.0
7945,67.0,56.0,30.0,0.0,0.0
7946,85.0,34.0,60.0,0.0,0.0
7947,79.0,30.0,30.0,0.0,0.0
7948,82.0,4.0,60.0,0.0,0.0
7949,70.0,0.0,60.0,0.0,0.0
7950,73.0,0.0,60.0,0.0,0.0
7951,27.0,0.0,30.0,0.0,0.0
7952,39.0,30.0,30.0,0.0,0.0
7953,44.0,56.0,30.0,0.0,0.0
7954,68.0,0.0,30.0,0.0,0.0
7955,72.0,0.0,30.0,0.0,0.0
7956,80.0,0.0,30.0,0.0,0.0
7957,32.0,0.0,30.0,0.0,0.0
7958,80.0,4.0,60.0,0.0,0.0
7959,72.0,0.0,60.0,0.0,0.0
7960,68.0,0.0,60.0,0.0,0.0
7961,51.0,0.0,30.0,0.0,0.0
7962,39.0,30.0,30.0,0.0,0.0
7963,44.0,56.0,30.0,0.0,0.0
7964,56.0,0.0,30.0,0.0,0.0
7965,80.0,4.0,60.0,0.0,0.0
7966,72.0,0.0,60.0,0.0,0.0
7967,68.0,0.0,60.0,0.0,0.0
7968,39.0,0.0,30.0,0.0,0.0
7969,27.0,30.0,30.0,0.0,0.0
7970,44.0,0.0,30.0,0.0,0.0
7971,32.0,56.0,30.0,0.0,0.0
7972,48.0,0.0,60.0,0.0,0.0
7973,51.0,0.0,60.0,0.0,0.0
7974,56.0,0.0,60.0,0.0,0.0
7975,32.0,432.0,60.0,0.0,0.0
7976,44.0,0.0,60.0,0.0,0.0
