,note,step,duration,channel,velocity
0,32.0,42.0,300.0,2.0,64.0
1,44.0,0.0,300.0,2.0,64.0
2,51.0,0.0,300.0,0.0,64.0
3,56.0,0.0,300.0,0.0,64.0
4,39.0,0.0,300.0,2.0,64.0
5,35.0,0.0,300.0,2.0,64.0
6,47.0,0.0,300.0,0.0,64.0
7,51.0,0.0,20.0,0.0,64.0
8,56.0,0.0,20.0,0.0,64.0
9,47.0,87.0,20.0,2.0,64.0
10,55.0,0.0,90.0,0.0,64.0
11,46.0,33.0,90.0,2.0,64.0
12,58.0,0.0,90.0,0.0,64.0
13,51.0,0.0,90.0,0.0,64.0
14,44.0,0.0,20.0,2.0,64.0
15,56.0,0.0,20.0,0.0,64.0
16,59.0,246.0,20.0,0.0,64.0
17,51.0,0.0,20.0,0.0,64.0
18,50.0,0.0,240.0,2.0,64.0
19,53.0,96.0,240.0,0.0,64.0
20,56.0,0.0,240.0,0.0,64.0
21,59.0,0.0,240.0,0.0,64.0
22,55.0,0.0,90.0,0.0,64.0
23,51.0,132.0,90.0,2.0,64.0
24,58.0,0.0,90.0,0.0,64.0
25,40.0,324.0,20.0,2.0,64.0
26,52.0,0.0,300.0,2.0,64.0
27,55.0,0.0,300.0,0.0,64.0
28,61.0,42.0,300.0,0.0,64.0
29,58.0,0.0,300.0,0.0,64.0
30,61.0,0.0,20.0,0.0,64.0
31,55.0,0.0,20.0,0.0,64.0
32,52.0,87.0,20.0,2.0,64.0
33,58.0,0.0,20.0,0.0,64.0
34,63.0,0.0,90.0,0.0,64.0
35,58.0,33.0,90.0,0.0,64.0
36,51.0,0.0,90.0,2.0,64.0
37,55.0,0.0,90.0,0.0,64.0
38,55.0,0.0,20.0,0.0,64.0
39,64.0,246.0,20.0,0.0,64.0
40,58.0,0.0,20.0,0.0,64.0
41,49.0,0.0,20.0,2.0,64.0
42,55.0,0.0,240.0,0.0,64.0
43,64.0,96.0,240.0,0.0,64.0
44,58.0,0.0,240.0,0.0,64.0
45,47.0,132.0,330.0,2.0,64.0
46,56.0,0.0,90.0,0.0,64.0
47,63.0,0.0,90.0,0.0,64.0
48,59.0,0.0,90.0,0.0,64.0
49,47.0,324.0,20.0,2.0,64.0
50,59.0,0.0,300.0,2.0,64.0
51,68.0,0.0,300.0,0.0,64.0
52,65.0,42.0,300.0,0.0,64.0
53,62.0,0.0,300.0,0.0,64.0
54,65.0,0.0,20.0,0.0,64.0
55,62.0,0.0,20.0,0.0,64.0
56,59.0,87.0,20.0,2.0,64.0
57,68.0,0.0,20.0,0.0,64.0
58,58.0,0.0,90.0,2.0,64.0
59,70.0,33.0,90.0,0.0,64.0
60,65.0,0.0,90.0,0.0,64.0
61,62.0,0.0,90.0,0.0,64.0
62,65.0,0.0,20.0,0.0,64.0
63,62.0,0.0,20.0,0.0,64.0
64,71.0,0.0,20.0,0.0,64.0
65,56.0,246.0,20.0,2.0,64.0
66,71.0,0.0,240.0,0.0,64.0
67,56.0,0.0,240.0,2.0,64.0
68,62.0,48.0,240.0,0.0,64.0
69,65.0,0.0,240.0,0.0,64.0
70,63.0,0.0,40.0,0.0,64.0
71,70.0,0.0,40.0,0.0,64.0
72,58.0,66.0,40.0,0.0,64.0
73,55.0,0.0,40.0,2.0,64.0
74,62.0,0.0,20.0,0.0,64.0
75,59.0,0.0,20.0,2.0,64.0
76,68.0,0.0,20.0,0.0,64.0
77,65.0,87.0,20.0,0.0,64.0
78,62.0,0.0,90.0,0.0,64.0
79,58.0,0.0,90.0,2.0,64.0
80,70.0,33.0,90.0,0.0,64.0
81,65.0,0.0,90.0,0.0,64.0
82,56.0,0.0,20.0,2.0,64.0
83,65.0,0.0,20.0,0.0,64.0
84,71.0,0.0,20.0,0.0,64.0
85,62.0,246.0,20.0,0.0,64.0
86,71.0,120.0,240.0,0.0,64.0
87,65.0,0.0,240.0,0.0,64.0
88,62.0,0.0,240.0,0.0,64.0
89,56.0,0.0,240.0,2.0,64.0
90,63.0,0.0,120.0,0.0,64.0
91,55.0,0.0,120.0,2.0,64.0
92,58.0,0.0,120.0,2.0,64.0
93,70.0,120.0,120.0,0.0,64.0
94,60.0,0.0,120.0,2.0,64.0
95,72.0,0.0,120.0,0.0,64.0
96,63.0,0.0,120.0,0.0,64.0
97,54.0,72.0,120.0,2.0,64.0
98,61.0,0.0,60.0,2.0,64.0
99,68.0,0.0,15.0,0.0,64.0
100,73.0,0.0,60.0,0.0,64.0
101,64.0,198.0,60.0,0.0,64.0
102,56.0,0.0,15.0,2.0,64.0
103,52.0,0.0,60.0,2.0,64.0
104,76.0,15.0,150.0,0.0,64.0
105,42.0,2.0,180.0,2.0,64.0
106,30.0,0.0,180.0,2.0,64.0
107,75.0,15.0,15.0,0.0,64.0
108,76.0,15.0,15.0,0.0,64.0
109,78.0,15.0,15.0,0.0,64.0
110,76.0,15.0,15.0,0.0,64.0
111,75.0,15.0,15.0,0.0,64.0
112,73.0,15.0,15.0,0.0,64.0
113,71.0,15.0,15.0,0.0,64.0
114,70.0,15.0,15.0,0.0,64.0
115,68.0,15.0,15.0,0.0,64.0
116,66.0,7.0,15.0,0.0,64.0
117,64.0,5.0,15.0,0.0,64.0
118,63.0,7.0,15.0,0.0,64.0
119,61.0,7.0,15.0,0.0,64.0
120,59.0,7.0,15.0,0.0,64.0
121,58.0,7.0,15.0,0.0,64.0
122,61.0,7.0,15.0,0.0,64.0
123,64.0,7.0,15.0,0.0,64.0
124,61.0,7.0,15.0,0.0,64.0
125,58.0,45.0,15.0,0.0,64.0
126,59.0,36.0,60.0,0.0,64.0
127,47.0,24.0,40.0,2.0,64.0
128,35.0,0.0,40.0,2.0,64.0
129,54.0,0.0,40.0,2.0,64.0
130,51.0,60.0,40.0,2.0,64.0
131,47.0,0.0,40.0,2.0,64.0
132,59.0,36.0,180.0,0.0,64.0
133,71.0,0.0,180.0,0.0,64.0
134,54.0,0.0,40.0,2.0,64.0
135,47.0,60.0,40.0,2.0,64.0
136,51.0,0.0,40.0,2.0,64.0
137,47.0,0.0,40.0,2.0,64.0
138,54.0,0.0,40.0,2.0,64.0
139,51.0,60.0,40.0,2.0,64.0
140,51.0,0.0,40.0,2.0,64.0
141,54.0,0.0,40.0,2.0,64.0
142,47.0,24.0,40.0,2.0,64.0
143,54.0,6.0,40.0,2.0,64.0
144,51.0,0.0,40.0,2.0,64.0
145,47.0,0.0,40.0,2.0,64.0
146,71.0,54.0,20.0,0.0,64.0
147,59.0,0.0,20.0,0.0,64.0
148,54.0,24.0,40.0,2.0,64.0
149,47.0,0.0,40.0,2.0,64.0
150,51.0,0.0,40.0,2.0,64.0
151,61.0,36.0,60.0,0.0,64.0
152,73.0,0.0,60.0,0.0,64.0
153,54.0,0.0,40.0,2.0,64.0
154,51.0,0.0,40.0,2.0,64.0
155,47.0,6.0,40.0,2.0,64.0
156,75.0,54.0,20.0,0.0,64.0
157,63.0,0.0,20.0,0.0,64.0
158,75.0,48.0,120.0,0.0,64.0
159,63.0,0.0,120.0,0.0,64.0
160,56.0,0.0,40.0,2.0,64.0
161,52.0,60.0,40.0,2.0,64.0
162,47.0,0.0,40.0,2.0,64.0
163,52.0,12.0,40.0,2.0,64.0
164,56.0,0.0,40.0,2.0,64.0
165,47.0,0.0,40.0,2.0,64.0
166,56.0,0.0,40.0,2.0,64.0
167,47.0,0.0,40.0,2.0,64.0
168,73.0,0.0,40.0,0.0,64.0
169,61.0,60.0,40.0,0.0,64.0
170,52.0,0.0,40.0,2.0,64.0
171,47.0,6.0,40.0,2.0,64.0
172,56.0,0.0,40.0,2.0,64.0
173,52.0,0.0,40.0,2.0,64.0
174,61.0,54.0,20.0,0.0,64.0
175,46.0,24.0,40.0,2.0,64.0
176,52.0,0.0,60.0,1.0,64.0
177,34.0,0.0,40.0,2.0,64.0
178,49.0,0.0,60.0,1.0,64.0
179,55.0,0.0,60.0,1.0,64.0
180,61.0,36.0,60.0,0.0,64.0
181,34.0,0.0,40.0,2.0,64.0
182,46.0,6.0,40.0,2.0,64.0
183,52.0,0.0,20.0,1.0,64.0
184,49.0,0.0,20.0,1.0,64.0
185,55.0,0.0,20.0,1.0,64.0
186,61.0,54.0,20.0,0.0,64.0
187,61.0,0.0,60.0,0.0,64.0
188,49.0,0.0,60.0,1.0,64.0
189,32.0,0.0,40.0,2.0,64.0
190,56.0,0.0,60.0,1.0,64.0
191,52.0,36.0,60.0,1.0,64.0
192,44.0,24.0,40.0,2.0,64.0
193,32.0,6.0,40.0,2.0,64.0
194,44.0,0.0,40.0,2.0,64.0
195,61.0,54.0,20.0,0.0,64.0
196,56.0,0.0,20.0,1.0,64.0
197,52.0,0.0,20.0,1.0,64.0
198,49.0,0.0,20.0,1.0,64.0
199,31.0,24.0,40.0,2.0,64.0
200,43.0,0.0,40.0,2.0,64.0
201,49.0,36.0,60.0,1.0,64.0
202,52.0,0.0,60.0,1.0,64.0
203,58.0,0.0,60.0,1.0,64.0
204,61.0,0.0,60.0,1.0,64.0
205,46.0,0.0,40.0,2.0,64.0
206,49.0,0.0,40.0,2.0,64.0
207,52.0,0.0,40.0,2.0,64.0
208,43.0,60.0,40.0,2.0,64.0
209,46.0,0.0,40.0,2.0,64.0
210,43.0,0.0,40.0,2.0,64.0
211,52.0,0.0,40.0,2.0,64.0
212,49.0,60.0,40.0,2.0,64.0
213,61.0,0.0,180.0,0.0,64.0
214,73.0,36.0,180.0,0.0,64.0
215,46.0,60.0,40.0,2.0,64.0
216,49.0,0.0,40.0,2.0,64.0
217,43.0,0.0,40.0,2.0,64.0
218,52.0,0.0,40.0,2.0,64.0
219,46.0,0.0,40.0,2.0,64.0
220,52.0,0.0,40.0,2.0,64.0
221,49.0,0.0,40.0,2.0,64.0
222,42.0,24.0,40.0,2.0,64.0
223,52.0,0.0,40.0,2.0,64.0
224,46.0,0.0,40.0,2.0,64.0
225,49.0,6.0,40.0,2.0,64.0
226,42.0,0.0,40.0,2.0,64.0
227,61.0,54.0,20.0,0.0,64.0
228,73.0,0.0,20.0,0.0,64.0
229,49.0,24.0,40.0,2.0,64.0
230,63.0,0.0,60.0,0.0,64.0
231,42.0,0.0,40.0,2.0,64.0
232,75.0,36.0,60.0,0.0,64.0
233,52.0,0.0,40.0,2.0,64.0
234,46.0,0.0,40.0,2.0,64.0
235,52.0,0.0,40.0,2.0,64.0
236,49.0,0.0,40.0,2.0,64.0
237,42.0,0.0,40.0,2.0,64.0
238,46.0,6.0,40.0,2.0,64.0
239,64.0,54.0,20.0,0.0,64.0
240,76.0,0.0,20.0,0.0,64.0
241,76.0,0.0,120.0,0.0,64.0
242,64.0,48.0,120.0,0.0,64.0
243,51.0,0.0,40.0,2.0,64.0
244,45.0,0.0,40.0,2.0,64.0
245,42.0,60.0,40.0,2.0,64.0
246,48.0,0.0,40.0,2.0,64.0
247,48.0,0.0,40.0,2.0,64.0
248,51.0,12.0,40.0,2.0,64.0
249,45.0,0.0,40.0,2.0,64.0
250,42.0,0.0,40.0,2.0,64.0
251,63.0,0.0,40.0,0.0,64.0
252,75.0,60.0,40.0,0.0,64.0
253,48.0,0.0,40.0,2.0,64.0
254,51.0,0.0,40.0,2.0,64.0
255,45.0,0.0,40.0,2.0,64.0
256,42.0,0.0,40.0,2.0,64.0
257,48.0,6.0,40.0,2.0,64.0
258,45.0,0.0,40.0,2.0,64.0
259,42.0,0.0,40.0,2.0,64.0
260,51.0,0.0,40.0,2.0,64.0
261,57.0,0.0,20.0,0.0,64.0
262,63.0,54.0,20.0,0.0,64.0
263,51.0,0.0,20.0,0.0,64.0
264,60.0,0.0,20.0,0.0,64.0
265,57.0,0.0,60.0,0.0,64.0
266,60.0,36.0,60.0,0.0,64.0
267,65.0,0.0,60.0,0.0,64.0
268,53.0,0.0,60.0,0.0,64.0
269,41.0,24.0,40.0,2.0,64.0
270,29.0,0.0,40.0,2.0,64.0
271,41.0,0.0,40.0,2.0,64.0
272,29.0,6.0,40.0,2.0,64.0
273,65.0,54.0,20.0,0.0,64.0
274,57.0,0.0,20.0,0.0,64.0
275,53.0,0.0,20.0,0.0,64.0
276,60.0,0.0,20.0,0.0,64.0
277,27.0,24.0,40.0,2.0,64.0
278,54.0,36.0,60.0,0.0,64.0
279,66.0,0.0,60.0,0.0,64.0
280,57.0,0.0,60.0,0.0,64.0
281,39.0,0.0,40.0,2.0,64.0
282,60.0,0.0,60.0,0.0,64.0
283,39.0,0.0,40.0,2.0,64.0
284,27.0,6.0,40.0,2.0,64.0
285,66.0,0.0,20.0,0.0,64.0
286,57.0,54.0,20.0,0.0,64.0
287,54.0,0.0,20.0,0.0,64.0
288,60.0,0.0,20.0,0.0,64.0
289,58.0,0.0,60.0,0.0,64.0
290,65.0,36.0,60.0,0.0,64.0
291,53.0,0.0,60.0,0.0,64.0
292,62.0,0.0,60.0,0.0,64.0
293,26.0,24.0,40.0,2.0,64.0
294,38.0,0.0,40.0,2.0,64.0
295,58.0,60.0,40.0,2.0,64.0
296,53.0,0.0,40.0,2.0,64.0
297,50.0,0.0,40.0,2.0,64.0
298,65.0,0.0,180.0,0.0,64.0
299,77.0,36.0,180.0,0.0,64.0
300,58.0,60.0,40.0,2.0,64.0
301,50.0,0.0,40.0,2.0,64.0
302,53.0,0.0,40.0,2.0,64.0
303,50.0,0.0,40.0,2.0,64.0
304,58.0,60.0,40.0,2.0,64.0
305,53.0,0.0,40.0,2.0,64.0
306,50.0,0.0,40.0,2.0,64.0
307,53.0,0.0,40.0,2.0,64.0
308,58.0,24.0,40.0,2.0,64.0
309,50.0,0.0,40.0,2.0,64.0
310,53.0,0.0,40.0,2.0,64.0
311,58.0,6.0,40.0,2.0,64.0
312,65.0,54.0,20.0,0.0,64.0
313,77.0,0.0,20.0,0.0,64.0
314,53.0,24.0,40.0,2.0,64.0
315,50.0,0.0,40.0,2.0,64.0
316,58.0,0.0,40.0,2.0,64.0
317,79.0,0.0,60.0,0.0,64.0
318,67.0,36.0,60.0,0.0,64.0
319,58.0,0.0,40.0,2.0,64.0
320,50.0,0.0,40.0,2.0,64.0
321,53.0,6.0,40.0,2.0,64.0
322,68.0,54.0,20.0,0.0,64.0
323,80.0,0.0,20.0,0.0,64.0
324,80.0,0.0,120.0,0.0,64.0
325,68.0,48.0,120.0,0.0,64.0
326,58.0,60.0,40.0,2.0,64.0
327,49.0,0.0,40.0,2.0,64.0
328,52.0,0.0,40.0,2.0,64.0
329,58.0,12.0,40.0,2.0,64.0
330,49.0,0.0,40.0,2.0,64.0
331,52.0,0.0,40.0,2.0,64.0
332,67.0,0.0,40.0,0.0,64.0
333,79.0,0.0,40.0,0.0,64.0
334,52.0,60.0,40.0,2.0,64.0
335,58.0,0.0,40.0,2.0,64.0
336,49.0,0.0,40.0,2.0,64.0
337,58.0,0.0,40.0,2.0,64.0
338,52.0,60.0,40.0,2.0,64.0
339,49.0,0.0,40.0,2.0,64.0
340,49.0,60.0,40.0,2.0,64.0
341,55.0,0.0,40.0,2.0,64.0
342,46.0,0.0,40.0,2.0,64.0
343,55.0,0.0,40.0,2.0,64.0
344,46.0,0.0,40.0,2.0,64.0
345,49.0,60.0,40.0,2.0,64.0
346,49.0,0.0,40.0,2.0,64.0
347,55.0,0.0,40.0,2.0,64.0
348,46.0,24.0,40.0,2.0,64.0
349,79.0,36.0,60.0,0.0,64.0
350,67.0,0.0,60.0,0.0,64.0
351,46.0,6.0,40.0,2.0,64.0
352,55.0,0.0,40.0,2.0,64.0
353,49.0,0.0,40.0,2.0,64.0
354,68.0,54.0,20.0,0.0,64.0
355,80.0,0.0,20.0,0.0,64.0
356,46.0,0.0,40.0,2.0,64.0
357,43.0,60.0,40.0,2.0,64.0
358,81.0,48.0,120.0,0.0,64.0
359,69.0,0.0,120.0,0.0,64.0
360,52.0,0.0,40.0,2.0,64.0
361,52.0,12.0,40.0,2.0,64.0
362,43.0,0.0,40.0,2.0,64.0
363,46.0,0.0,40.0,2.0,64.0
364,82.0,0.0,90.0,0.0,64.0
365,70.0,12.0,90.0,0.0,64.0
366,46.0,0.0,40.0,2.0,64.0
367,43.0,0.0,40.0,2.0,64.0
368,52.0,48.0,40.0,2.0,64.0
369,43.0,0.0,40.0,2.0,64.0
370,46.0,0.0,40.0,2.0,64.0
371,52.0,60.0,40.0,2.0,64.0
372,40.0,0.0,40.0,2.0,64.0
373,49.0,60.0,40.0,2.0,64.0
374,43.0,0.0,40.0,2.0,64.0
375,40.0,0.0,40.0,2.0,64.0
376,43.0,60.0,40.0,2.0,64.0
377,49.0,0.0,40.0,2.0,64.0
378,40.0,0.0,40.0,2.0,64.0
379,43.0,0.0,40.0,2.0,64.0
380,49.0,24.0,40.0,2.0,64.0
381,70.0,36.0,60.0,0.0,64.0
382,82.0,0.0,60.0,0.0,64.0
383,43.0,0.0,40.0,2.0,64.0
384,40.0,6.0,40.0,2.0,64.0
385,49.0,0.0,40.0,2.0,64.0
386,83.0,54.0,20.0,0.0,64.0
387,71.0,0.0,20.0,0.0,64.0
388,43.0,60.0,40.0,2.0,64.0
389,49.0,0.0,40.0,2.0,64.0
390,72.0,0.0,120.0,0.0,64.0
391,84.0,48.0,120.0,0.0,64.0
392,39.0,0.0,40.0,2.0,64.0
393,49.0,12.0,40.0,2.0,64.0
394,39.0,0.0,40.0,2.0,64.0
395,43.0,0.0,40.0,2.0,64.0
396,49.0,0.0,40.0,2.0,64.0
397,43.0,60.0,40.0,2.0,64.0
398,39.0,0.0,40.0,2.0,64.0
399,73.0,0.0,180.0,0.0,64.0
400,85.0,36.0,180.0,0.0,64.0
401,49.0,60.0,40.0,2.0,64.0
402,43.0,0.0,40.0,2.0,64.0
403,39.0,0.0,40.0,2.0,64.0
404,44.0,24.0,40.0,2.0,64.0
405,49.0,0.0,40.0,2.0,64.0
406,40.0,0.0,40.0,2.0,64.0
407,44.0,60.0,40.0,2.0,64.0
408,40.0,0.0,40.0,2.0,64.0
409,49.0,0.0,40.0,2.0,64.0
410,85.0,0.0,90.0,0.0,64.0
411,44.0,0.0,40.0,2.0,64.0
412,40.0,48.0,40.0,2.0,64.0
413,73.0,12.0,90.0,0.0,64.0
414,49.0,0.0,40.0,2.0,64.0
415,49.0,0.0,40.0,2.0,64.0
416,40.0,108.0,40.0,2.0,64.0
417,44.0,0.0,40.0,2.0,64.0
418,39.0,0.0,90.0,2.0,64.0
419,43.0,48.0,90.0,2.0,64.0
420,49.0,0.0,90.0,2.0,64.0
421,85.0,0.0,150.0,0.0,64.0
422,73.0,21.0,150.0,0.0,64.0
423,83.0,15.0,15.0,0.0,64.0
424,82.0,15.0,15.0,0.0,64.0
425,85.0,15.0,15.0,0.0,64.0
426,83.0,15.0,15.0,0.0,64.0
427,82.0,15.0,15.0,0.0,64.0
428,80.0,57.0,15.0,0.0,64.0
429,79.0,60.0,60.0,0.0,64.0
430,79.0,60.0,60.0,0.0,64.0
431,63.0,0.0,60.0,1.0,64.0
432,73.0,60.0,60.0,0.0,64.0
433,79.0,0.0,60.0,0.0,64.0
434,70.0,0.0,60.0,1.0,64.0
435,73.0,0.0,60.0,0.0,64.0
436,63.0,0.0,60.0,1.0,64.0
437,70.0,99.0,60.0,1.0,64.0
438,79.0,0.0,60.0,0.0,64.0
439,80.0,528.0,90.0,0.0,64.0
440,71.0,0.0,90.0,0.0,64.0
441,64.0,0.0,90.0,1.0,64.0
442,68.0,0.0,90.0,1.0,64.0
443,80.0,21.0,150.0,0.0,64.0
444,79.0,15.0,15.0,0.0,64.0
445,80.0,10.0,15.0,0.0,64.0
446,82.0,10.0,15.0,0.0,64.0
447,80.0,10.0,15.0,0.0,64.0
448,78.0,10.0,15.0,0.0,64.0
449,76.0,10.0,15.0,0.0,64.0
450,75.0,10.0,15.0,0.0,64.0
451,78.0,57.0,15.0,0.0,64.0
452,76.0,60.0,60.0,0.0,64.0
453,76.0,51.0,60.0,0.0,64.0
454,56.0,0.0,40.0,1.0,64.0
455,58.0,9.0,40.0,1.0,64.0
456,49.0,0.0,40.0,1.0,64.0
457,76.0,51.0,60.0,0.0,64.0
458,56.0,0.0,40.0,1.0,64.0
459,58.0,0.0,40.0,1.0,64.0
460,49.0,9.0,40.0,1.0,64.0
461,76.0,63.0,60.0,0.0,64.0
462,75.0,36.0,60.0,0.0,64.0
463,56.0,32.0,90.0,1.0,64.0
464,51.0,0.0,90.0,1.0,64.0
465,59.0,0.0,90.0,1.0,64.0
466,83.0,10.0,60.0,0.0,64.0
467,82.0,10.0,15.0,0.0,64.0
468,81.0,10.0,15.0,0.0,64.0
469,80.0,10.0,15.0,0.0,64.0
470,79.0,10.0,15.0,0.0,64.0
471,78.0,10.0,15.0,0.0,64.0
472,77.0,10.0,15.0,0.0,64.0
473,76.0,10.0,15.0,0.0,64.0
474,75.0,8.0,15.0,0.0,64.0
475,74.0,7.0,15.0,0.0,64.0
476,73.0,7.0,15.0,0.0,64.0
477,72.0,7.0,15.0,0.0,64.0
478,71.0,7.0,15.0,0.0,64.0
479,70.0,7.0,15.0,0.0,64.0
480,46.0,0.0,90.0,1.0,64.0
481,49.0,6.0,90.0,1.0,64.0
482,39.0,0.0,90.0,1.0,64.0
483,69.0,7.0,15.0,0.0,64.0
484,68.0,7.0,15.0,0.0,64.0
485,67.0,7.0,15.0,0.0,64.0
486,66.0,7.0,15.0,0.0,64.0
487,65.0,7.0,15.0,0.0,64.0
488,64.0,7.0,15.0,0.0,64.0
489,63.0,7.0,15.0,0.0,64.0
490,62.0,7.0,15.0,0.0,64.0
491,61.0,7.0,15.0,0.0,64.0
492,60.0,7.0,15.0,0.0,64.0
493,59.0,7.0,15.0,0.0,64.0
494,57.0,7.0,15.0,0.0,64.0
495,58.0,1.0,15.0,0.0,64.0
496,56.0,7.0,15.0,0.0,64.0
497,55.0,205.0,15.0,0.0,64.0
498,64.0,60.0,210.0,0.0,64.0
499,55.0,82.0,60.0,0.0,64.0
500,32.0,120.0,90.0,2.0,64.0
501,56.0,0.0,570.0,0.0,64.0
502,44.0,120.0,90.0,2.0,64.0
503,32.0,120.0,90.0,2.0,64.0
504,44.0,120.0,90.0,2.0,64.0
505,32.0,120.0,90.0,2.0,64.0
506,44.0,120.0,90.0,2.0,64.0
507,32.0,48.0,90.0,2.0,64.0
508,54.0,72.0,150.0,0.0,64.0
509,60.0,0.0,150.0,0.0,64.0
510,44.0,120.0,90.0,2.0,64.0
511,32.0,48.0,90.0,2.0,64.0
512,61.0,0.0,150.0,0.0,64.0
513,52.0,72.0,150.0,0.0,64.0
514,44.0,120.0,90.0,2.0,64.0
515,60.0,72.0,150.0,0.0,64.0
516,63.0,0.0,150.0,0.0,64.0
517,32.0,48.0,90.0,2.0,64.0
518,44.0,120.0,90.0,2.0,64.0
519,32.0,48.0,90.0,2.0,64.0
520,64.0,0.0,150.0,0.0,64.0
521,61.0,72.0,150.0,0.0,64.0
522,44.0,120.0,90.0,2.0,64.0
523,58.0,0.0,150.0,0.0,64.0
524,67.0,72.0,150.0,0.0,64.0
525,32.0,48.0,90.0,2.0,64.0
526,44.0,120.0,90.0,2.0,64.0
527,32.0,48.0,90.0,2.0,64.0
528,68.0,0.0,150.0,0.0,64.0
529,59.0,72.0,150.0,0.0,64.0
530,44.0,120.0,90.0,2.0,64.0
531,60.0,72.0,390.0,0.0,64.0
532,68.0,0.0,390.0,0.0,64.0
533,32.0,120.0,90.0,2.0,64.0
534,44.0,120.0,90.0,2.0,64.0
535,32.0,48.0,90.0,2.0,64.0
536,44.0,120.0,90.0,2.0,64.0
537,72.0,72.0,150.0,0.0,64.0
538,66.0,0.0,150.0,0.0,64.0
539,32.0,48.0,90.0,2.0,64.0
540,44.0,120.0,90.0,2.0,64.0
541,73.0,72.0,150.0,0.0,64.0
542,64.0,0.0,150.0,0.0,64.0
543,32.0,48.0,90.0,2.0,64.0
544,44.0,120.0,90.0,2.0,64.0
545,75.0,72.0,150.0,0.0,64.0
546,72.0,0.0,150.0,0.0,64.0
547,32.0,48.0,90.0,2.0,64.0
548,44.0,120.0,90.0,2.0,64.0
549,32.0,48.0,90.0,2.0,64.0
550,76.0,0.0,150.0,0.0,64.0
551,73.0,72.0,150.0,0.0,64.0
552,44.0,120.0,90.0,2.0,64.0
553,32.0,48.0,90.0,2.0,64.0
554,79.0,72.0,150.0,0.0,64.0
555,70.0,0.0,150.0,0.0,64.0
556,44.0,120.0,90.0,2.0,64.0
557,75.0,0.0,300.0,0.0,64.0
558,32.0,120.0,90.0,2.0,64.0
559,71.0,48.0,300.0,0.0,64.0
560,80.0,0.0,300.0,0.0,64.0
561,68.0,0.0,300.0,0.0,64.0
562,44.0,72.0,90.0,2.0,64.0
563,32.0,120.0,90.0,2.0,64.0
564,44.0,120.0,90.0,2.0,64.0
565,63.0,0.0,300.0,0.0,64.0
566,67.0,0.0,300.0,0.0,64.0
567,75.0,0.0,300.0,0.0,64.0
568,73.0,48.0,300.0,0.0,64.0
569,34.0,120.0,90.0,2.0,64.0
570,46.0,72.0,90.0,2.0,64.0
571,34.0,120.0,90.0,2.0,64.0
572,46.0,120.0,90.0,2.0,64.0
573,35.0,120.0,90.0,2.0,64.0
574,63.0,48.0,300.0,0.0,64.0
575,68.0,0.0,300.0,0.0,64.0
576,71.0,0.0,300.0,0.0,64.0
577,47.0,72.0,90.0,2.0,64.0
578,35.0,120.0,90.0,2.0,64.0
579,47.0,120.0,90.0,2.0,64.0
580,37.0,120.0,90.0,2.0,64.0
581,64.0,0.0,300.0,0.0,64.0
582,70.0,48.0,300.0,0.0,64.0
583,61.0,0.0,300.0,0.0,64.0
584,49.0,72.0,90.0,2.0,64.0
585,37.0,120.0,90.0,2.0,64.0
586,49.0,120.0,90.0,2.0,64.0
587,39.0,120.0,90.0,2.0,64.0
588,68.0,0.0,1440.0,0.0,64.0
589,63.0,96.0,480.0,1.0,64.0
590,59.0,0.0,1440.0,0.0,64.0
591,51.0,120.0,90.0,2.0,64.0
592,39.0,120.0,90.0,2.0,64.0
593,51.0,24.0,90.0,2.0,64.0
594,40.0,120.0,90.0,2.0,64.0
595,62.0,96.0,480.0,1.0,64.0
596,52.0,120.0,90.0,2.0,64.0
597,40.0,120.0,90.0,2.0,64.0
598,52.0,24.0,90.0,2.0,64.0
599,38.0,120.0,90.0,2.0,64.0
600,65.0,96.0,480.0,1.0,64.0
601,50.0,120.0,90.0,2.0,64.0
602,38.0,120.0,90.0,2.0,64.0
603,50.0,24.0,90.0,2.0,64.0
604,67.0,0.0,390.0,0.0,64.0
605,61.0,96.0,480.0,1.0,64.0
606,39.0,120.0,90.0,2.0,64.0
607,58.0,72.0,390.0,0.0,64.0
608,51.0,120.0,90.0,2.0,64.0
609,39.0,48.0,90.0,2.0,64.0
610,51.0,24.0,90.0,2.0,64.0
611,56.0,0.0,150.0,0.0,64.0
612,59.0,72.0,150.0,0.0,64.0
613,32.0,48.0,90.0,2.0,64.0
614,68.0,0.0,150.0,0.0,64.0
615,44.0,120.0,90.0,2.0,64.0
616,32.0,120.0,90.0,2.0,64.0
617,56.0,72.0,390.0,0.0,64.0
618,44.0,120.0,90.0,2.0,64.0
619,32.0,48.0,90.0,2.0,64.0
620,44.0,120.0,90.0,2.0,64.0
621,32.0,48.0,90.0,2.0,64.0
622,60.0,72.0,150.0,0.0,64.0
623,54.0,0.0,150.0,0.0,64.0
624,44.0,120.0,90.0,2.0,64.0
625,32.0,48.0,90.0,2.0,64.0
626,52.0,72.0,150.0,0.0,64.0
627,61.0,0.0,150.0,0.0,64.0
628,44.0,120.0,90.0,2.0,64.0
629,32.0,48.0,90.0,2.0,64.0
630,63.0,72.0,150.0,0.0,64.0
631,60.0,0.0,150.0,0.0,64.0
632,44.0,120.0,90.0,2.0,64.0
633,32.0,48.0,90.0,2.0,64.0
634,64.0,72.0,150.0,0.0,64.0
635,61.0,0.0,150.0,0.0,64.0
636,44.0,120.0,90.0,2.0,64.0
637,58.0,0.0,150.0,0.0,64.0
638,32.0,48.0,90.0,2.0,64.0
639,67.0,72.0,150.0,0.0,64.0
640,44.0,120.0,90.0,2.0,64.0
641,32.0,48.0,90.0,2.0,64.0
642,59.0,0.0,150.0,0.0,64.0
643,68.0,72.0,150.0,0.0,64.0
644,44.0,120.0,90.0,2.0,64.0
645,60.0,0.0,390.0,0.0,64.0
646,68.0,72.0,390.0,0.0,64.0
647,32.0,120.0,90.0,2.0,64.0
648,44.0,120.0,90.0,2.0,64.0
649,32.0,48.0,90.0,2.0,64.0
650,44.0,120.0,90.0,2.0,64.0
651,72.0,72.0,150.0,0.0,64.0
652,66.0,0.0,150.0,0.0,64.0
653,32.0,48.0,90.0,2.0,64.0
654,44.0,120.0,90.0,2.0,64.0
655,32.0,48.0,90.0,2.0,64.0
656,64.0,0.0,150.0,0.0,64.0
657,73.0,72.0,150.0,0.0,64.0
658,44.0,120.0,90.0,2.0,64.0
659,32.0,48.0,90.0,2.0,64.0
660,72.0,72.0,150.0,0.0,64.0
661,75.0,0.0,150.0,0.0,64.0
662,44.0,120.0,90.0,2.0,64.0
663,73.0,0.0,150.0,0.0,64.0
664,76.0,72.0,150.0,0.0,64.0
665,32.0,48.0,90.0,2.0,64.0
666,44.0,120.0,90.0,2.0,64.0
667,70.0,72.0,150.0,0.0,64.0
668,32.0,48.0,90.0,2.0,64.0
669,79.0,0.0,150.0,0.0,64.0
670,44.0,120.0,90.0,2.0,64.0
671,75.0,0.0,300.0,0.0,64.0
672,32.0,120.0,90.0,2.0,64.0
673,68.0,0.0,300.0,0.0,64.0
674,71.0,48.0,300.0,0.0,64.0
675,80.0,0.0,300.0,0.0,64.0
676,44.0,72.0,90.0,2.0,64.0
677,32.0,120.0,90.0,2.0,64.0
678,44.0,120.0,90.0,2.0,64.0
679,34.0,120.0,90.0,2.0,64.0
680,75.0,0.0,300.0,0.0,64.0
681,67.0,0.0,300.0,0.0,64.0
682,63.0,48.0,300.0,0.0,64.0
683,73.0,0.0,300.0,0.0,64.0
684,46.0,72.0,90.0,2.0,64.0
685,34.0,120.0,90.0,2.0,64.0
686,46.0,120.0,90.0,2.0,64.0
687,71.0,48.0,300.0,0.0,64.0
688,68.0,0.0,300.0,0.0,64.0
689,63.0,0.0,300.0,0.0,64.0
690,35.0,120.0,90.0,2.0,64.0
691,47.0,72.0,90.0,2.0,64.0
692,35.0,120.0,90.0,2.0,64.0
693,47.0,120.0,90.0,2.0,64.0
694,37.0,120.0,90.0,2.0,64.0
695,64.0,48.0,300.0,0.0,64.0
696,70.0,0.0,300.0,0.0,64.0
697,61.0,0.0,300.0,0.0,64.0
698,49.0,72.0,90.0,2.0,64.0
699,37.0,120.0,90.0,2.0,64.0
700,49.0,120.0,90.0,2.0,64.0
701,59.0,0.0,1920.0,0.0,64.0
702,68.0,0.0,1920.0,0.0,64.0
703,39.0,120.0,90.0,2.0,64.0
704,63.0,96.0,480.0,1.0,64.0
705,51.0,120.0,90.0,2.0,64.0
706,39.0,120.0,90.0,2.0,64.0
707,51.0,24.0,90.0,2.0,64.0
708,40.0,120.0,90.0,2.0,64.0
709,62.0,96.0,480.0,1.0,64.0
710,52.0,120.0,90.0,2.0,64.0
711,40.0,120.0,90.0,2.0,64.0
712,52.0,24.0,90.0,2.0,64.0
713,38.0,120.0,90.0,2.0,64.0
714,65.0,192.0,960.0,1.0,64.0
715,50.0,120.0,90.0,2.0,64.0
716,38.0,120.0,90.0,2.0,64.0
717,50.0,120.0,90.0,2.0,64.0
718,38.0,120.0,90.0,2.0,64.0
719,50.0,120.0,90.0,2.0,64.0
720,38.0,120.0,90.0,2.0,64.0
721,50.0,24.0,90.0,2.0,64.0
722,63.0,0.0,180.0,1.0,64.0
723,51.0,0.0,180.0,2.0,64.0
724,39.0,0.0,180.0,2.0,64.0
725,67.0,240.0,180.0,0.0,64.0
726,58.0,0.0,180.0,0.0,64.0
727,55.0,0.0,180.0,2.0,64.0
728,58.0,240.0,180.0,2.0,64.0
729,75.0,0.0,660.0,0.0,64.0
730,58.0,0.0,180.0,2.0,64.0
731,63.0,240.0,660.0,0.0,64.0
732,55.0,240.0,180.0,2.0,64.0
733,58.0,240.0,180.0,2.0,64.0
734,55.0,0.0,180.0,2.0,64.0
735,51.0,0.0,180.0,2.0,64.0
736,59.0,240.0,180.0,2.0,64.0
737,56.0,0.0,180.0,2.0,64.0
738,56.0,0.0,180.0,2.0,64.0
739,63.0,72.0,600.0,0.0,64.0
740,59.0,240.0,180.0,2.0,64.0
741,75.0,0.0,600.0,0.0,64.0
742,59.0,168.0,180.0,2.0,64.0
743,56.0,0.0,180.0,2.0,64.0
744,58.0,0.0,180.0,2.0,64.0
745,61.0,48.0,180.0,2.0,64.0
746,73.0,120.0,120.0,0.0,64.0
747,70.0,120.0,120.0,0.0,64.0
748,67.0,120.0,120.0,0.0,64.0
749,63.0,120.0,120.0,0.0,64.0
750,61.0,120.0,120.0,0.0,64.0
751,58.0,120.0,120.0,0.0,64.0
752,55.0,120.0,120.0,0.0,64.0
753,56.0,120.0,120.0,0.0,64.0
754,59.0,120.0,120.0,0.0,64.0
755,56.0,120.0,120.0,0.0,64.0
756,51.0,120.0,120.0,0.0,64.0
757,50.0,120.0,120.0,0.0,64.0
758,28.0,0.0,120.0,2.0,64.0
759,40.0,0.0,120.0,2.0,64.0
760,56.0,120.0,120.0,0.0,64.0
761,28.0,120.0,120.0,2.0,64.0
762,52.0,0.0,120.0,0.0,64.0
763,50.0,192.0,120.0,0.0,64.0
764,40.0,0.0,120.0,2.0,64.0
765,51.0,0.0,180.0,0.0,64.0
766,27.0,240.0,180.0,2.0,64.0
767,39.0,0.0,180.0,2.0,64.0
768,55.0,240.0,180.0,2.0,64.0
769,58.0,0.0,180.0,2.0,64.0
770,55.0,0.0,180.0,2.0,64.0
771,58.0,240.0,180.0,2.0,64.0
772,75.0,0.0,660.0,0.0,64.0
773,63.0,0.0,660.0,0.0,64.0
774,55.0,240.0,180.0,2.0,64.0
775,58.0,0.0,180.0,2.0,64.0
776,51.0,240.0,180.0,2.0,64.0
777,56.0,240.0,180.0,2.0,64.0
778,59.0,0.0,180.0,2.0,64.0
779,56.0,0.0,180.0,2.0,64.0
780,75.0,72.0,600.0,0.0,64.0
781,59.0,240.0,180.0,2.0,64.0
782,63.0,0.0,600.0,0.0,64.0
783,56.0,168.0,180.0,2.0,64.0
784,59.0,0.0,180.0,2.0,64.0
785,61.0,0.0,180.0,2.0,64.0
786,58.0,48.0,180.0,2.0,64.0
787,73.0,120.0,120.0,0.0,64.0
788,70.0,120.0,120.0,0.0,64.0
789,67.0,120.0,120.0,0.0,64.0
790,63.0,120.0,120.0,0.0,64.0
791,61.0,120.0,120.0,0.0,64.0
792,58.0,120.0,120.0,0.0,64.0
793,55.0,120.0,120.0,0.0,64.0
794,56.0,120.0,120.0,0.0,64.0
795,59.0,120.0,120.0,0.0,64.0
796,56.0,120.0,120.0,0.0,64.0
797,51.0,120.0,120.0,0.0,64.0
798,50.0,0.0,120.0,0.0,64.0
799,28.0,120.0,120.0,2.0,64.0
800,40.0,120.0,120.0,2.0,64.0
801,56.0,0.0,120.0,0.0,64.0
802,28.0,0.0,120.0,2.0,64.0
803,52.0,120.0,120.0,0.0,64.0
804,40.0,96.0,120.0,2.0,64.0
805,50.0,0.0,120.0,0.0,64.0
806,51.0,72.0,150.0,0.0,64.0
807,27.0,48.0,90.0,2.0,64.0
808,39.0,120.0,90.0,2.0,64.0
809,62.0,72.0,150.0,0.0,64.0
810,27.0,48.0,90.0,2.0,64.0
811,39.0,120.0,90.0,2.0,64.0
812,63.0,72.0,150.0,0.0,64.0
813,27.0,48.0,90.0,2.0,64.0
814,39.0,120.0,90.0,2.0,64.0
815,68.0,72.0,150.0,0.0,64.0
816,62.0,0.0,150.0,0.0,64.0
817,27.0,48.0,90.0,2.0,64.0
818,39.0,120.0,90.0,2.0,64.0
819,63.0,72.0,150.0,0.0,64.0
820,27.0,48.0,90.0,2.0,64.0
821,67.0,0.0,150.0,0.0,64.0
822,39.0,120.0,90.0,2.0,64.0
823,68.0,0.0,150.0,0.0,64.0
824,27.0,48.0,90.0,2.0,64.0
825,74.0,72.0,150.0,0.0,64.0
826,39.0,120.0,90.0,2.0,64.0
827,67.0,72.0,150.0,0.0,64.0
828,75.0,0.0,150.0,0.0,64.0
829,27.0,48.0,90.0,2.0,64.0
830,39.0,120.0,90.0,2.0,64.0
831,74.0,72.0,150.0,0.0,64.0
832,27.0,48.0,90.0,2.0,64.0
833,80.0,0.0,150.0,0.0,64.0
834,39.0,120.0,90.0,2.0,64.0
835,27.0,48.0,90.0,2.0,64.0
836,79.0,72.0,150.0,0.0,64.0
837,75.0,0.0,150.0,0.0,64.0
838,39.0,120.0,90.0,2.0,64.0
839,27.0,120.0,90.0,2.0,64.0
840,39.0,120.0,90.0,2.0,64.0
841,27.0,120.0,90.0,2.0,64.0
842,39.0,120.0,90.0,2.0,64.0
843,27.0,120.0,90.0,2.0,64.0
844,39.0,120.0,90.0,2.0,64.0
845,27.0,120.0,90.0,2.0,64.0
846,54.0,0.0,960.0,0.0,64.0
847,57.0,96.0,960.0,0.0,64.0
848,59.0,0.0,1110.0,0.0,64.0
849,39.0,120.0,90.0,2.0,64.0
850,27.0,120.0,90.0,2.0,64.0
851,39.0,120.0,90.0,2.0,64.0
852,27.0,120.0,90.0,2.0,64.0
853,39.0,120.0,90.0,2.0,64.0
854,27.0,120.0,90.0,2.0,64.0
855,39.0,24.0,90.0,2.0,64.0
856,56.0,72.0,150.0,0.0,64.0
857,28.0,48.0,90.0,2.0,64.0
858,40.0,120.0,90.0,2.0,64.0
859,28.0,48.0,90.0,2.0,64.0
860,63.0,0.0,150.0,0.0,64.0
861,69.0,72.0,150.0,0.0,64.0
862,40.0,120.0,90.0,2.0,64.0
863,28.0,48.0,90.0,2.0,64.0
864,68.0,0.0,150.0,0.0,64.0
865,64.0,72.0,150.0,0.0,64.0
866,40.0,120.0,90.0,2.0,64.0
867,75.0,72.0,150.0,0.0,64.0
868,69.0,0.0,150.0,0.0,64.0
869,28.0,48.0,90.0,2.0,64.0
870,40.0,120.0,90.0,2.0,64.0
871,68.0,0.0,150.0,0.0,64.0
872,28.0,48.0,90.0,2.0,64.0
873,76.0,72.0,150.0,0.0,64.0
874,40.0,120.0,90.0,2.0,64.0
875,75.0,72.0,150.0,0.0,64.0
876,81.0,0.0,150.0,0.0,64.0
877,28.0,48.0,90.0,2.0,64.0
878,40.0,120.0,90.0,2.0,64.0
879,28.0,48.0,90.0,2.0,64.0
880,80.0,72.0,150.0,0.0,64.0
881,76.0,0.0,150.0,0.0,64.0
882,40.0,120.0,90.0,2.0,64.0
883,75.0,0.0,150.0,0.0,64.0
884,81.0,72.0,150.0,0.0,64.0
885,28.0,48.0,90.0,2.0,64.0
886,40.0,120.0,90.0,2.0,64.0
887,80.0,72.0,150.0,0.0,64.0
888,28.0,48.0,90.0,2.0,64.0
889,76.0,0.0,150.0,0.0,64.0
890,40.0,120.0,90.0,2.0,64.0
891,28.0,120.0,90.0,2.0,64.0
892,40.0,120.0,90.0,2.0,64.0
893,28.0,120.0,90.0,2.0,64.0
894,40.0,120.0,90.0,2.0,64.0
895,28.0,120.0,90.0,2.0,64.0
896,40.0,120.0,90.0,2.0,64.0
897,56.0,0.0,960.0,0.0,64.0
898,62.0,0.0,960.0,0.0,64.0
899,59.0,96.0,960.0,0.0,64.0
900,29.0,120.0,90.0,2.0,64.0
901,41.0,120.0,90.0,2.0,64.0
902,29.0,120.0,90.0,2.0,64.0
903,41.0,120.0,90.0,2.0,64.0
904,29.0,120.0,90.0,2.0,64.0
905,41.0,120.0,90.0,2.0,64.0
906,29.0,120.0,90.0,2.0,64.0
907,41.0,24.0,90.0,2.0,64.0
908,30.0,48.0,90.0,2.0,64.0
909,58.0,72.0,150.0,0.0,64.0
910,61.0,0.0,150.0,0.0,64.0
911,42.0,120.0,90.0,2.0,64.0
912,65.0,72.0,150.0,0.0,64.0
913,71.0,0.0,150.0,0.0,64.0
914,30.0,48.0,90.0,2.0,64.0
915,42.0,120.0,90.0,2.0,64.0
916,30.0,48.0,90.0,2.0,64.0
917,70.0,0.0,150.0,0.0,64.0
918,66.0,72.0,150.0,0.0,64.0
919,42.0,120.0,90.0,2.0,64.0
920,77.0,0.0,150.0,0.0,64.0
921,71.0,72.0,150.0,0.0,64.0
922,30.0,48.0,90.0,2.0,64.0
923,42.0,120.0,90.0,2.0,64.0
924,30.0,48.0,90.0,2.0,64.0
925,70.0,72.0,150.0,0.0,64.0
926,78.0,0.0,150.0,0.0,64.0
927,42.0,120.0,90.0,2.0,64.0
928,30.0,48.0,90.0,2.0,64.0
929,83.0,72.0,150.0,0.0,64.0
930,77.0,0.0,150.0,0.0,64.0
931,42.0,120.0,90.0,2.0,64.0
932,78.0,0.0,150.0,0.0,64.0
933,82.0,72.0,150.0,0.0,64.0
934,30.0,48.0,90.0,2.0,64.0
935,42.0,120.0,90.0,2.0,64.0
936,77.0,0.0,150.0,0.0,64.0
937,83.0,72.0,150.0,0.0,64.0
938,30.0,48.0,90.0,2.0,64.0
939,42.0,120.0,90.0,2.0,64.0
940,30.0,48.0,90.0,2.0,64.0
941,78.0,0.0,150.0,0.0,64.0
942,82.0,72.0,150.0,0.0,64.0
943,42.0,120.0,90.0,2.0,64.0
944,30.0,120.0,90.0,2.0,64.0
945,42.0,120.0,90.0,2.0,64.0
946,71.0,96.0,480.0,0.0,64.0
947,77.0,0.0,480.0,0.0,64.0
948,30.0,120.0,90.0,2.0,64.0
949,42.0,120.0,90.0,2.0,64.0
950,30.0,120.0,90.0,2.0,64.0
951,42.0,24.0,90.0,2.0,64.0
952,70.0,24.0,180.0,0.0,64.0
953,30.0,96.0,90.0,2.0,64.0
954,78.0,0.0,180.0,0.0,64.0
955,42.0,120.0,90.0,2.0,64.0
956,30.0,120.0,90.0,2.0,64.0
957,42.0,120.0,90.0,2.0,64.0
958,30.0,120.0,90.0,2.0,64.0
959,71.0,0.0,480.0,0.0,64.0
960,65.0,96.0,480.0,0.0,64.0
961,42.0,120.0,90.0,2.0,64.0
962,30.0,120.0,90.0,2.0,64.0
963,42.0,24.0,90.0,2.0,64.0
964,30.0,96.0,90.0,2.0,64.0
965,70.0,24.0,180.0,0.0,64.0
966,66.0,0.0,180.0,0.0,64.0
967,42.0,120.0,90.0,2.0,64.0
968,30.0,120.0,90.0,2.0,64.0
969,42.0,120.0,90.0,2.0,64.0
970,65.0,96.0,480.0,0.0,64.0
971,59.0,0.0,480.0,0.0,64.0
972,30.0,120.0,90.0,2.0,64.0
973,42.0,120.0,90.0,2.0,64.0
974,30.0,120.0,90.0,2.0,64.0
975,42.0,24.0,90.0,2.0,64.0
976,58.0,24.0,180.0,0.0,64.0
977,66.0,0.0,180.0,0.0,64.0
978,30.0,96.0,90.0,2.0,64.0
979,42.0,120.0,90.0,2.0,64.0
980,30.0,120.0,90.0,2.0,64.0
981,42.0,120.0,90.0,2.0,64.0
982,30.0,120.0,90.0,2.0,64.0
983,53.0,0.0,480.0,0.0,64.0
984,59.0,144.0,480.0,0.0,64.0
985,42.0,120.0,90.0,2.0,64.0
986,30.0,120.0,90.0,2.0,64.0
987,42.0,24.0,90.0,2.0,64.0
988,30.0,288.0,180.0,2.0,64.0
989,58.0,48.0,150.0,0.0,64.0
990,54.0,0.0,150.0,0.0,64.0
991,42.0,0.0,180.0,2.0,64.0
992,53.0,240.0,240.0,0.0,64.0
993,54.0,240.0,240.0,0.0,64.0
994,53.0,240.0,240.0,0.0,64.0
995,54.0,240.0,240.0,0.0,64.0
996,53.0,240.0,240.0,0.0,64.0
997,54.0,240.0,240.0,0.0,64.0
998,53.0,384.0,240.0,0.0,64.0
999,54.0,96.0,780.0,1.0,64.0
1000,59.0,0.0,180.0,1.0,64.0
1001,62.0,192.0,180.0,1.0,64.0
1002,42.0,48.0,150.0,2.0,64.0
1003,62.0,0.0,180.0,1.0,64.0
1004,59.0,96.0,180.0,1.0,64.0
1005,47.0,48.0,150.0,2.0,64.0
1006,59.0,192.0,180.0,1.0,64.0
1007,62.0,0.0,180.0,1.0,64.0
1008,49.0,48.0,150.0,2.0,64.0
1009,50.0,240.0,150.0,2.0,64.0
1010,54.0,96.0,780.0,1.0,64.0
1011,59.0,0.0,180.0,1.0,64.0
1012,66.0,48.0,150.0,0.0,64.0
1013,62.0,192.0,180.0,1.0,64.0
1014,62.0,96.0,180.0,1.0,64.0
1015,59.0,0.0,180.0,1.0,64.0
1016,71.0,48.0,150.0,0.0,64.0
1017,73.0,48.0,150.0,0.0,64.0
1018,62.0,0.0,180.0,1.0,64.0
1019,59.0,108.0,180.0,1.0,64.0
1020,66.0,372.0,60.0,0.0,64.0
1021,54.0,144.0,780.0,1.0,64.0
1022,74.0,48.0,660.0,0.0,64.0
1023,59.0,0.0,180.0,1.0,64.0
1024,62.0,240.0,180.0,1.0,64.0
1025,59.0,0.0,180.0,1.0,64.0
1026,62.0,48.0,180.0,1.0,64.0
1027,62.0,48.0,180.0,1.0,64.0
1028,59.0,0.0,180.0,1.0,64.0
1029,71.0,60.0,240.0,0.0,64.0
1030,54.0,144.0,780.0,1.0,64.0
1031,66.0,372.0,60.0,0.0,64.0
1032,74.0,48.0,660.0,0.0,64.0
1033,59.0,0.0,180.0,1.0,64.0
1034,62.0,240.0,180.0,1.0,64.0
1035,62.0,0.0,180.0,1.0,64.0
1036,59.0,48.0,180.0,1.0,64.0
1037,62.0,48.0,180.0,1.0,64.0
1038,71.0,192.0,240.0,0.0,64.0
1039,59.0,0.0,180.0,1.0,64.0
1040,70.0,192.0,180.0,0.0,64.0
1041,54.0,96.0,780.0,1.0,64.0
1042,42.0,48.0,150.0,2.0,64.0
1043,64.0,0.0,180.0,1.0,64.0
1044,61.0,192.0,180.0,1.0,64.0
1045,64.0,96.0,180.0,1.0,64.0
1046,49.0,48.0,150.0,2.0,64.0
1047,61.0,0.0,180.0,1.0,64.0
1048,61.0,192.0,180.0,1.0,64.0
1049,50.0,48.0,150.0,2.0,64.0
1050,64.0,0.0,180.0,1.0,64.0
1051,54.0,144.0,780.0,1.0,64.0
1052,52.0,288.0,150.0,2.0,64.0
1053,64.0,0.0,180.0,1.0,64.0
1054,66.0,192.0,240.0,0.0,64.0
1055,61.0,48.0,180.0,1.0,64.0
1056,61.0,0.0,180.0,1.0,64.0
1057,76.0,48.0,240.0,0.0,64.0
1058,64.0,48.0,180.0,1.0,64.0
1059,61.0,0.0,180.0,1.0,64.0
1060,64.0,48.0,180.0,1.0,64.0
1061,74.0,60.0,240.0,0.0,64.0
1062,54.0,144.0,780.0,1.0,64.0
1063,76.0,180.0,60.0,0.0,64.0
1064,74.0,192.0,180.0,0.0,64.0
1065,73.0,108.0,180.0,0.0,64.0
1066,64.0,0.0,180.0,1.0,64.0
1067,61.0,0.0,180.0,1.0,64.0
1068,64.0,48.0,180.0,1.0,64.0
1069,74.0,132.0,60.0,0.0,64.0
1070,61.0,0.0,180.0,1.0,64.0
1071,73.0,48.0,180.0,0.0,64.0
1072,71.0,108.0,180.0,0.0,64.0
1073,61.0,0.0,180.0,1.0,64.0
1074,64.0,0.0,180.0,1.0,64.0
1075,73.0,180.0,60.0,0.0,64.0
1076,54.0,96.0,780.0,1.0,64.0
1077,71.0,144.0,180.0,0.0,64.0
1078,64.0,0.0,180.0,1.0,64.0
1079,61.0,192.0,180.0,1.0,64.0
1080,70.0,48.0,150.0,0.0,64.0
1081,64.0,0.0,180.0,1.0,64.0
1082,61.0,96.0,180.0,1.0,64.0
1083,68.0,48.0,150.0,0.0,64.0
1084,64.0,0.0,180.0,1.0,64.0
1085,61.0,192.0,180.0,1.0,64.0
1086,70.0,48.0,150.0,0.0,64.0
1087,54.0,96.0,780.0,1.0,64.0
1088,71.0,240.0,150.0,0.0,64.0
1089,62.0,192.0,180.0,1.0,64.0
1090,59.0,0.0,180.0,1.0,64.0
1091,42.0,48.0,150.0,2.0,64.0
1092,62.0,0.0,180.0,1.0,64.0
1093,59.0,96.0,180.0,1.0,64.0
1094,47.0,48.0,150.0,2.0,64.0
1095,59.0,0.0,180.0,1.0,64.0
1096,62.0,192.0,180.0,1.0,64.0
1097,49.0,48.0,150.0,2.0,64.0
1098,50.0,288.0,150.0,2.0,64.0
1099,54.0,144.0,780.0,1.0,64.0
1100,59.0,240.0,180.0,1.0,64.0
1101,62.0,0.0,180.0,1.0,64.0
1102,66.0,0.0,180.0,0.0,64.0
1103,71.0,0.0,180.0,0.0,64.0
1104,62.0,96.0,180.0,1.0,64.0
1105,59.0,0.0,180.0,1.0,64.0
1106,62.0,108.0,180.0,1.0,64.0
1107,59.0,0.0,180.0,1.0,64.0
1108,73.0,0.0,180.0,0.0,64.0
1109,66.0,372.0,60.0,0.0,64.0
1110,54.0,144.0,780.0,1.0,64.0
1111,74.0,48.0,660.0,0.0,64.0
1112,59.0,240.0,180.0,1.0,64.0
1113,62.0,0.0,180.0,1.0,64.0
1114,62.0,0.0,180.0,1.0,64.0
1115,59.0,48.0,180.0,1.0,64.0
1116,71.0,60.0,240.0,0.0,64.0
1117,59.0,0.0,180.0,1.0,64.0
1118,62.0,48.0,180.0,1.0,64.0
1119,54.0,144.0,780.0,1.0,64.0
1120,66.0,372.0,60.0,0.0,64.0
1121,74.0,48.0,660.0,0.0,64.0
1122,62.0,240.0,180.0,1.0,64.0
1123,59.0,0.0,180.0,1.0,64.0
1124,62.0,48.0,180.0,1.0,64.0
1125,59.0,0.0,180.0,1.0,64.0
1126,59.0,48.0,180.0,1.0,64.0
1127,62.0,0.0,180.0,1.0,64.0
1128,71.0,192.0,240.0,0.0,64.0
1129,52.0,96.0,780.0,1.0,64.0
1130,68.0,192.0,180.0,0.0,64.0
1131,62.0,0.0,180.0,1.0,64.0
1132,59.0,192.0,180.0,1.0,64.0
1133,40.0,48.0,150.0,2.0,64.0
1134,62.0,0.0,180.0,1.0,64.0
1135,47.0,48.0,150.0,2.0,64.0
1136,59.0,96.0,180.0,1.0,64.0
1137,59.0,0.0,180.0,1.0,64.0
1138,62.0,192.0,180.0,1.0,64.0
1139,49.0,48.0,150.0,2.0,64.0
1140,50.0,288.0,150.0,2.0,64.0
1141,52.0,144.0,780.0,1.0,64.0
1142,64.0,192.0,240.0,0.0,64.0
1143,62.0,0.0,180.0,1.0,64.0
1144,59.0,48.0,180.0,1.0,64.0
1145,59.0,0.0,180.0,1.0,64.0
1146,62.0,48.0,180.0,1.0,64.0
1147,74.0,48.0,240.0,0.0,64.0
1148,59.0,48.0,180.0,1.0,64.0
1149,62.0,0.0,180.0,1.0,64.0
1150,73.0,60.0,240.0,0.0,64.0
1151,74.0,180.0,60.0,0.0,64.0
1152,52.0,144.0,780.0,1.0,64.0
1153,73.0,192.0,180.0,0.0,64.0
1154,71.0,108.0,180.0,0.0,64.0
1155,59.0,0.0,180.0,1.0,64.0
1156,62.0,0.0,180.0,1.0,64.0
1157,73.0,132.0,60.0,0.0,64.0
1158,59.0,48.0,180.0,1.0,64.0
1159,62.0,0.0,180.0,1.0,64.0
1160,71.0,48.0,180.0,0.0,64.0
1161,62.0,96.0,180.0,1.0,64.0
1162,69.0,0.0,180.0,0.0,64.0
1163,59.0,0.0,180.0,1.0,64.0
1164,52.0,96.0,780.0,1.0,64.0
1165,71.0,192.0,40.0,0.0,64.0
1166,69.0,144.0,180.0,0.0,64.0
1167,68.0,48.0,150.0,0.0,64.0
1168,62.0,192.0,180.0,1.0,64.0
1169,59.0,0.0,180.0,1.0,64.0
1170,66.0,48.0,150.0,0.0,64.0
1171,62.0,0.0,180.0,1.0,64.0
1172,59.0,96.0,180.0,1.0,64.0
1173,59.0,192.0,180.0,1.0,64.0
1174,62.0,0.0,180.0,1.0,64.0
1175,68.0,48.0,150.0,0.0,64.0
1176,52.0,96.0,780.0,1.0,64.0
1177,69.0,240.0,150.0,0.0,64.0
1178,61.0,192.0,180.0,1.0,64.0
1179,57.0,0.0,180.0,1.0,64.0
1180,40.0,48.0,150.0,2.0,64.0
1181,45.0,48.0,150.0,2.0,64.0
1182,57.0,96.0,180.0,1.0,64.0
1183,61.0,0.0,180.0,1.0,64.0
1184,57.0,0.0,180.0,1.0,64.0
1185,47.0,48.0,150.0,2.0,64.0
1186,61.0,192.0,180.0,1.0,64.0
1187,52.0,96.0,780.0,1.0,64.0
1188,49.0,240.0,150.0,2.0,64.0
1189,57.0,192.0,180.0,1.0,64.0
1190,61.0,0.0,180.0,1.0,64.0
1191,64.0,48.0,150.0,0.0,64.0
1192,57.0,96.0,180.0,1.0,64.0
1193,61.0,0.0,180.0,1.0,64.0
1194,69.0,48.0,150.0,0.0,64.0
1195,71.0,48.0,150.0,0.0,64.0
1196,57.0,108.0,180.0,1.0,64.0
1197,61.0,0.0,180.0,1.0,64.0
1198,64.0,372.0,60.0,0.0,64.0
1199,52.0,144.0,780.0,1.0,64.0
1200,73.0,48.0,660.0,0.0,64.0
1201,57.0,240.0,180.0,1.0,64.0
1202,61.0,0.0,180.0,1.0,64.0
1203,57.0,48.0,180.0,1.0,64.0
1204,61.0,0.0,180.0,1.0,64.0
1205,69.0,60.0,240.0,0.0,64.0
1206,57.0,0.0,180.0,1.0,64.0
1207,61.0,48.0,180.0,1.0,64.0
1208,52.0,144.0,780.0,1.0,64.0
1209,64.0,372.0,60.0,0.0,64.0
1210,73.0,48.0,660.0,0.0,64.0
1211,57.0,0.0,180.0,1.0,64.0
1212,61.0,240.0,180.0,1.0,64.0
1213,61.0,0.0,180.0,1.0,64.0
1214,57.0,48.0,180.0,1.0,64.0
1215,57.0,0.0,180.0,1.0,64.0
1216,69.0,192.0,240.0,0.0,64.0
1217,61.0,48.0,180.0,1.0,64.0
1218,52.0,96.0,780.0,1.0,64.0
1219,68.0,192.0,180.0,0.0,64.0
1220,40.0,48.0,150.0,2.0,64.0
1221,62.0,192.0,180.0,1.0,64.0
1222,59.0,0.0,180.0,1.0,64.0
1223,47.0,48.0,150.0,2.0,64.0
1224,59.0,96.0,180.0,1.0,64.0
1225,62.0,0.0,180.0,1.0,64.0
1226,59.0,0.0,180.0,1.0,64.0
1227,62.0,192.0,180.0,1.0,64.0
1228,49.0,48.0,150.0,2.0,64.0
1229,52.0,144.0,780.0,1.0,64.0
1230,50.0,288.0,150.0,2.0,64.0
1231,64.0,192.0,240.0,0.0,64.0
1232,59.0,0.0,180.0,1.0,64.0
1233,62.0,48.0,180.0,1.0,64.0
1234,59.0,48.0,180.0,1.0,64.0
1235,62.0,0.0,180.0,1.0,64.0
1236,74.0,48.0,240.0,0.0,64.0
1237,59.0,0.0,180.0,1.0,64.0
1238,73.0,60.0,240.0,0.0,64.0
1239,62.0,48.0,180.0,1.0,64.0
1240,52.0,144.0,780.0,1.0,64.0
1241,74.0,180.0,60.0,0.0,64.0
1242,73.0,192.0,180.0,0.0,64.0
1243,59.0,0.0,180.0,1.0,64.0
1244,62.0,108.0,180.0,1.0,64.0
1245,71.0,0.0,180.0,0.0,64.0
1246,62.0,0.0,180.0,1.0,64.0
1247,73.0,132.0,60.0,0.0,64.0
1248,59.0,48.0,180.0,1.0,64.0
1249,71.0,48.0,180.0,0.0,64.0
1250,62.0,0.0,180.0,1.0,64.0
1251,59.0,0.0,180.0,1.0,64.0
1252,69.0,96.0,180.0,0.0,64.0
1253,52.0,96.0,780.0,1.0,64.0
1254,71.0,192.0,40.0,0.0,64.0
1255,69.0,192.0,180.0,0.0,64.0
1256,68.0,0.0,180.0,0.0,64.0
1257,59.0,0.0,180.0,1.0,64.0
1258,62.0,192.0,180.0,1.0,64.0
1259,66.0,48.0,150.0,0.0,64.0
1260,59.0,96.0,180.0,1.0,64.0
1261,62.0,0.0,180.0,1.0,64.0
1262,59.0,240.0,180.0,1.0,64.0
1263,62.0,0.0,180.0,1.0,64.0
1264,68.0,48.0,150.0,0.0,64.0
1265,69.0,192.0,180.0,0.0,64.0
1266,57.0,48.0,390.0,1.0,64.0
1267,45.0,240.0,240.0,2.0,64.0
1268,64.0,0.0,180.0,1.0,64.0
1269,61.0,48.0,180.0,1.0,64.0
1270,55.0,48.0,390.0,1.0,64.0
1271,52.0,144.0,240.0,2.0,64.0
1272,43.0,192.0,240.0,2.0,64.0
1273,64.0,0.0,180.0,1.0,64.0
1274,61.0,48.0,180.0,1.0,64.0
1275,54.0,144.0,780.0,1.0,64.0
1276,42.0,240.0,180.0,2.0,64.0
1277,64.0,0.0,180.0,1.0,64.0
1278,61.0,240.0,180.0,1.0,64.0
1279,66.0,0.0,180.0,0.0,64.0
1280,64.0,0.0,180.0,1.0,64.0
1281,61.0,0.0,180.0,1.0,64.0
1282,76.0,96.0,180.0,0.0,64.0
1283,74.0,0.0,180.0,0.0,64.0
1284,61.0,108.0,180.0,1.0,64.0
1285,64.0,0.0,180.0,1.0,64.0
1286,76.0,180.0,60.0,0.0,64.0
1287,54.0,144.0,780.0,1.0,64.0
1288,74.0,192.0,180.0,0.0,64.0
1289,73.0,108.0,180.0,0.0,64.0
1290,61.0,0.0,180.0,1.0,64.0
1291,64.0,0.0,180.0,1.0,64.0
1292,64.0,48.0,180.0,1.0,64.0
1293,61.0,0.0,180.0,1.0,64.0
1294,74.0,132.0,60.0,0.0,64.0
1295,73.0,48.0,180.0,0.0,64.0
1296,71.0,0.0,180.0,0.0,64.0
1297,61.0,108.0,180.0,1.0,64.0
1298,64.0,0.0,180.0,1.0,64.0
1299,73.0,180.0,60.0,0.0,64.0
1300,54.0,96.0,780.0,1.0,64.0
1301,71.0,144.0,180.0,0.0,64.0
1302,64.0,192.0,180.0,1.0,64.0
1303,61.0,0.0,180.0,1.0,64.0
1304,70.0,48.0,150.0,0.0,64.0
1305,64.0,0.0,180.0,1.0,64.0
1306,68.0,48.0,150.0,0.0,64.0
1307,61.0,96.0,180.0,1.0,64.0
1308,70.0,48.0,150.0,0.0,64.0
1309,61.0,0.0,180.0,1.0,64.0
1310,64.0,192.0,180.0,1.0,64.0
1311,59.0,48.0,390.0,1.0,64.0
1312,71.0,240.0,150.0,0.0,64.0
1313,62.0,48.0,180.0,1.0,64.0
1314,47.0,240.0,240.0,2.0,64.0
1315,66.0,0.0,180.0,1.0,64.0
1316,54.0,144.0,240.0,2.0,64.0
1317,57.0,48.0,390.0,1.0,64.0
1318,66.0,0.0,180.0,1.0,64.0
1319,61.0,48.0,180.0,1.0,64.0
1320,45.0,192.0,240.0,2.0,64.0
1321,56.0,144.0,780.0,1.0,64.0
1322,44.0,240.0,180.0,2.0,64.0
1323,68.0,0.0,180.0,0.0,64.0
1324,63.0,240.0,180.0,1.0,64.0
1325,66.0,0.0,180.0,1.0,64.0
1326,78.0,96.0,180.0,0.0,64.0
1327,66.0,0.0,180.0,1.0,64.0
1328,63.0,0.0,180.0,1.0,64.0
1329,66.0,0.0,180.0,1.0,64.0
1330,63.0,108.0,180.0,1.0,64.0
1331,76.0,0.0,180.0,0.0,64.0
1332,78.0,180.0,60.0,0.0,64.0
1333,56.0,144.0,780.0,1.0,64.0
1334,76.0,192.0,180.0,0.0,64.0
1335,75.0,0.0,180.0,0.0,64.0
1336,63.0,108.0,180.0,1.0,64.0
1337,66.0,0.0,180.0,1.0,64.0
1338,76.0,132.0,60.0,0.0,64.0
1339,66.0,0.0,180.0,1.0,64.0
1340,63.0,48.0,180.0,1.0,64.0
1341,75.0,48.0,180.0,0.0,64.0
1342,63.0,0.0,180.0,1.0,64.0
1343,66.0,108.0,180.0,1.0,64.0
1344,73.0,0.0,180.0,0.0,64.0
1345,75.0,180.0,60.0,0.0,64.0
1346,56.0,144.0,780.0,1.0,64.0
1347,73.0,192.0,180.0,0.0,64.0
1348,63.0,0.0,180.0,1.0,64.0
1349,72.0,240.0,180.0,0.0,64.0
1350,66.0,0.0,180.0,1.0,64.0
1351,63.0,0.0,180.0,1.0,64.0
1352,70.0,48.0,240.0,0.0,64.0
1353,66.0,48.0,180.0,1.0,64.0
1354,66.0,108.0,180.0,1.0,64.0
1355,63.0,0.0,180.0,1.0,64.0
1356,72.0,0.0,180.0,0.0,64.0
1357,76.0,180.0,60.0,0.0,64.0
1358,61.0,144.0,780.0,1.0,64.0
1359,75.0,192.0,180.0,0.0,64.0
1360,68.0,0.0,180.0,1.0,64.0
1361,64.0,108.0,180.0,1.0,64.0
1362,73.0,0.0,180.0,0.0,64.0
1363,64.0,48.0,180.0,1.0,64.0
1364,68.0,0.0,180.0,1.0,64.0
1365,75.0,132.0,60.0,0.0,64.0
1366,73.0,48.0,180.0,0.0,64.0
1367,68.0,0.0,180.0,1.0,64.0
1368,71.0,0.0,180.0,0.0,64.0
1369,64.0,108.0,180.0,1.0,64.0
1370,54.0,192.0,480.0,1.0,64.0
1371,73.0,180.0,60.0,0.0,64.0
1372,71.0,192.0,180.0,0.0,64.0
1373,64.0,0.0,180.0,1.0,64.0
1374,70.0,48.0,180.0,0.0,64.0
1375,61.0,0.0,180.0,1.0,64.0
1376,61.0,0.0,180.0,1.0,64.0
1377,55.0,60.0,480.0,1.0,64.0
1378,64.0,48.0,180.0,1.0,64.0
1379,68.0,192.0,240.0,0.0,64.0
1380,64.0,48.0,180.0,1.0,64.0
1381,70.0,0.0,180.0,0.0,64.0
1382,61.0,0.0,180.0,1.0,64.0
1383,75.0,180.0,60.0,0.0,64.0
1384,56.0,144.0,780.0,1.0,64.0
1385,73.0,192.0,180.0,0.0,64.0
1386,71.0,0.0,180.0,0.0,64.0
1387,59.0,0.0,180.0,1.0,64.0
1388,63.0,108.0,180.0,1.0,64.0
1389,59.0,48.0,180.0,1.0,64.0
1390,63.0,0.0,180.0,1.0,64.0
1391,73.0,132.0,60.0,0.0,64.0
1392,71.0,48.0,180.0,0.0,64.0
1393,59.0,0.0,180.0,1.0,64.0
1394,63.0,108.0,180.0,1.0,64.0
1395,70.0,0.0,180.0,0.0,64.0
1396,52.0,144.0,780.0,1.0,64.0
1397,71.0,180.0,60.0,0.0,64.0
1398,70.0,192.0,180.0,0.0,64.0
1399,61.0,108.0,180.0,1.0,64.0
1400,59.0,0.0,180.0,1.0,64.0
1401,68.0,0.0,180.0,0.0,64.0
1402,70.0,132.0,60.0,0.0,64.0
1403,61.0,48.0,180.0,1.0,64.0
1404,59.0,0.0,180.0,1.0,64.0
1405,68.0,48.0,180.0,0.0,64.0
1406,67.0,108.0,180.0,0.0,64.0
1407,59.0,0.0,180.0,1.0,64.0
1408,61.0,0.0,180.0,1.0,64.0
1409,54.0,96.0,780.0,1.0,64.0
1410,70.0,180.0,60.0,0.0,64.0
1411,68.0,144.0,180.0,0.0,64.0
1412,63.0,192.0,180.0,1.0,64.0
1413,59.0,0.0,180.0,1.0,64.0
1414,66.0,48.0,150.0,0.0,64.0
1415,66.0,48.0,150.0,0.0,64.0
1416,63.0,96.0,180.0,1.0,64.0
1417,59.0,0.0,180.0,1.0,64.0
1418,59.0,0.0,180.0,1.0,64.0
1419,63.0,108.0,180.0,1.0,64.0
1420,66.0,48.0,150.0,0.0,64.0
1421,54.0,96.0,780.0,1.0,64.0
1422,70.0,180.0,60.0,0.0,64.0
1423,68.0,144.0,180.0,0.0,64.0
1424,58.0,192.0,180.0,1.0,64.0
1425,61.0,0.0,180.0,1.0,64.0
1426,66.0,48.0,150.0,0.0,64.0
1427,58.0,0.0,180.0,1.0,64.0
1428,61.0,96.0,180.0,1.0,64.0
1429,66.0,48.0,150.0,0.0,64.0
1430,66.0,48.0,150.0,0.0,64.0
1431,58.0,264.0,180.0,1.0,64.0
1432,61.0,0.0,180.0,1.0,64.0
1433,47.0,72.0,1350.0,2.0,64.0
1434,59.0,120.0,90.0,1.0,64.0
1435,54.0,0.0,90.0,1.0,64.0
1436,51.0,0.0,90.0,1.0,64.0
1437,63.0,120.0,90.0,1.0,64.0
1438,59.0,120.0,90.0,1.0,64.0
1439,54.0,0.0,90.0,1.0,64.0
1440,51.0,120.0,90.0,1.0,64.0
1441,71.0,0.0,870.0,0.0,64.0
1442,54.0,0.0,90.0,1.0,64.0
1443,59.0,120.0,90.0,1.0,64.0
1444,63.0,0.0,90.0,1.0,64.0
1445,51.0,120.0,90.0,1.0,64.0
1446,54.0,120.0,90.0,1.0,64.0
1447,59.0,0.0,90.0,1.0,64.0
1448,51.0,120.0,90.0,1.0,64.0
1449,63.0,0.0,90.0,1.0,64.0
1450,54.0,120.0,90.0,1.0,64.0
1451,59.0,0.0,90.0,1.0,64.0
1452,51.0,48.0,90.0,1.0,64.0
1453,63.0,0.0,90.0,1.0,64.0
1454,59.0,0.0,90.0,1.0,64.0
1455,54.0,240.0,90.0,1.0,64.0
1456,71.0,72.0,390.0,0.0,64.0
1457,47.0,0.0,390.0,2.0,64.0
1458,59.0,120.0,90.0,1.0,64.0
1459,54.0,0.0,90.0,1.0,64.0
1460,51.0,0.0,90.0,1.0,64.0
1461,63.0,48.0,90.0,1.0,64.0
1462,59.0,0.0,90.0,1.0,64.0
1463,54.0,240.0,90.0,1.0,64.0
1464,45.0,0.0,1350.0,2.0,64.0
1465,54.0,0.0,90.0,1.0,64.0
1466,59.0,120.0,90.0,1.0,64.0
1467,51.0,120.0,90.0,1.0,64.0
1468,63.0,0.0,90.0,1.0,64.0
1469,59.0,0.0,90.0,1.0,64.0
1470,54.0,120.0,90.0,1.0,64.0
1471,51.0,120.0,90.0,1.0,64.0
1472,71.0,72.0,870.0,0.0,64.0
1473,54.0,120.0,90.0,1.0,64.0
1474,59.0,0.0,90.0,1.0,64.0
1475,51.0,120.0,90.0,1.0,64.0
1476,63.0,0.0,90.0,1.0,64.0
1477,54.0,0.0,90.0,1.0,64.0
1478,59.0,120.0,90.0,1.0,64.0
1479,51.0,120.0,90.0,1.0,64.0
1480,63.0,0.0,90.0,1.0,64.0
1481,59.0,120.0,90.0,1.0,64.0
1482,54.0,0.0,90.0,1.0,64.0
1483,51.0,0.0,90.0,1.0,64.0
1484,63.0,48.0,90.0,1.0,64.0
1485,54.0,0.0,90.0,1.0,64.0
1486,59.0,240.0,90.0,1.0,64.0
1487,71.0,72.0,390.0,0.0,64.0
1488,45.0,0.0,390.0,2.0,64.0
1489,59.0,0.0,90.0,1.0,64.0
1490,54.0,120.0,90.0,1.0,64.0
1491,63.0,0.0,90.0,1.0,64.0
1492,51.0,48.0,90.0,1.0,64.0
1493,59.0,96.0,90.0,1.0,64.0
1494,54.0,0.0,90.0,1.0,64.0
1495,44.0,0.0,60.0,2.0,64.0
1496,71.0,144.0,60.0,0.0,64.0
1497,52.0,0.0,90.0,2.0,64.0
1498,59.0,120.0,90.0,0.0,64.0
1499,47.0,0.0,90.0,2.0,64.0
1500,64.0,120.0,90.0,0.0,64.0
1501,59.0,0.0,90.0,0.0,64.0
1502,52.0,96.0,90.0,2.0,64.0
1503,72.0,144.0,60.0,0.0,64.0
1504,42.0,0.0,60.0,2.0,64.0
1505,51.0,0.0,90.0,2.0,64.0
1506,60.0,120.0,90.0,0.0,64.0
1507,68.0,0.0,90.0,0.0,64.0
1508,44.0,120.0,90.0,2.0,64.0
1509,60.0,96.0,90.0,0.0,64.0
1510,51.0,0.0,90.0,2.0,64.0
1511,40.0,144.0,60.0,2.0,64.0
1512,73.0,0.0,60.0,0.0,64.0
1513,52.0,0.0,90.0,2.0,64.0
1514,61.0,120.0,90.0,0.0,64.0
1515,44.0,0.0,90.0,2.0,64.0
1516,68.0,120.0,90.0,0.0,64.0
1517,61.0,0.0,90.0,0.0,64.0
1518,52.0,96.0,90.0,2.0,64.0
1519,75.0,144.0,60.0,0.0,64.0
1520,39.0,0.0,60.0,2.0,64.0
1521,63.0,0.0,90.0,0.0,64.0
1522,51.0,120.0,90.0,2.0,64.0
1523,44.0,0.0,90.0,2.0,64.0
1524,68.0,120.0,90.0,0.0,64.0
1525,51.0,0.0,90.0,2.0,64.0
1526,63.0,96.0,90.0,0.0,64.0
1527,37.0,0.0,60.0,2.0,64.0
1528,76.0,144.0,60.0,0.0,64.0
1529,64.0,0.0,90.0,0.0,64.0
1530,49.0,120.0,90.0,2.0,64.0
1531,68.0,120.0,90.0,0.0,64.0
1532,44.0,0.0,90.0,2.0,64.0
1533,64.0,96.0,90.0,0.0,64.0
1534,49.0,0.0,90.0,2.0,64.0
1535,77.0,144.0,60.0,0.0,64.0
1536,35.0,0.0,60.0,2.0,64.0
1537,47.0,0.0,90.0,2.0,64.0
1538,65.0,120.0,90.0,0.0,64.0
1539,68.0,120.0,90.0,0.0,64.0
1540,37.0,0.0,90.0,2.0,64.0
1541,47.0,96.0,90.0,2.0,64.0
1542,65.0,0.0,90.0,0.0,64.0
1543,78.0,0.0,60.0,0.0,64.0
1544,34.0,144.0,60.0,2.0,64.0
1545,66.0,0.0,90.0,0.0,64.0
1546,46.0,120.0,90.0,2.0,64.0
1547,37.0,120.0,90.0,2.0,64.0
1548,73.0,0.0,90.0,0.0,64.0
1549,66.0,0.0,90.0,0.0,64.0
1550,46.0,96.0,90.0,2.0,64.0
1551,80.0,0.0,60.0,0.0,64.0
1552,32.0,144.0,60.0,2.0,64.0
1553,68.0,0.0,90.0,0.0,64.0
1554,44.0,120.0,90.0,2.0,64.0
1555,37.0,0.0,90.0,2.0,64.0
1556,73.0,120.0,90.0,0.0,64.0
1557,44.0,96.0,90.0,2.0,64.0
1558,68.0,0.0,90.0,0.0,64.0
1559,30.0,144.0,60.0,2.0,64.0
1560,81.0,0.0,60.0,0.0,64.0
1561,69.0,0.0,90.0,0.0,64.0
1562,42.0,120.0,90.0,2.0,64.0
1563,73.0,0.0,90.0,0.0,64.0
1564,37.0,120.0,90.0,2.0,64.0
1565,69.0,0.0,90.0,0.0,64.0
1566,42.0,96.0,90.0,2.0,64.0
1567,82.0,144.0,60.0,0.0,64.0
1568,28.0,0.0,60.0,2.0,64.0
1569,70.0,0.0,90.0,0.0,64.0
1570,40.0,120.0,90.0,2.0,64.0
1571,37.0,120.0,90.0,2.0,64.0
1572,73.0,0.0,90.0,0.0,64.0
1573,40.0,96.0,90.0,2.0,64.0
1574,70.0,0.0,90.0,0.0,64.0
1575,83.0,144.0,60.0,0.0,64.0
1576,27.0,0.0,60.0,2.0,64.0
1577,71.0,120.0,90.0,0.0,64.0
1578,39.0,0.0,90.0,2.0,64.0
1579,78.0,0.0,90.0,0.0,64.0
1580,35.0,120.0,90.0,2.0,64.0
1581,39.0,0.0,90.0,2.0,64.0
1582,71.0,96.0,90.0,0.0,64.0
1583,27.0,144.0,60.0,2.0,64.0
1584,79.0,0.0,60.0,0.0,64.0
1585,39.0,120.0,90.0,2.0,64.0
1586,67.0,0.0,90.0,0.0,64.0
1587,71.0,0.0,90.0,0.0,64.0
1588,35.0,120.0,90.0,2.0,64.0
1589,67.0,0.0,90.0,0.0,64.0
1590,39.0,168.0,90.0,2.0,64.0
1591,40.0,72.0,150.0,2.0,64.0
1592,28.0,0.0,150.0,2.0,64.0
1593,68.0,120.0,90.0,0.0,64.0
1594,71.0,120.0,90.0,0.0,64.0
1595,68.0,96.0,90.0,0.0,64.0
1596,80.0,144.0,60.0,0.0,64.0
1597,68.0,120.0,90.0,0.0,64.0
1598,71.0,120.0,90.0,0.0,64.0
1599,68.0,168.0,90.0,0.0,64.0
1600,42.0,72.0,150.0,2.0,64.0
1601,30.0,0.0,150.0,2.0,64.0
1602,61.0,120.0,90.0,0.0,64.0
1603,64.0,120.0,90.0,0.0,64.0
1604,61.0,96.0,90.0,0.0,64.0
1605,70.0,144.0,60.0,0.0,64.0
1606,61.0,120.0,90.0,0.0,64.0
1607,64.0,120.0,90.0,0.0,64.0
1608,61.0,240.0,90.0,0.0,64.0
1609,47.0,0.0,1350.0,2.0,64.0
1610,59.0,120.0,90.0,1.0,64.0
1611,54.0,0.0,90.0,1.0,64.0
1612,63.0,0.0,90.0,1.0,64.0
1613,51.0,120.0,90.0,1.0,64.0
1614,54.0,120.0,90.0,1.0,64.0
1615,59.0,0.0,90.0,1.0,64.0
1616,71.0,72.0,870.0,0.0,64.0
1617,51.0,120.0,90.0,1.0,64.0
1618,54.0,0.0,90.0,1.0,64.0
1619,59.0,120.0,90.0,1.0,64.0
1620,63.0,120.0,90.0,1.0,64.0
1621,51.0,0.0,90.0,1.0,64.0
1622,59.0,0.0,90.0,1.0,64.0
1623,54.0,120.0,90.0,1.0,64.0
1624,51.0,0.0,90.0,1.0,64.0
1625,63.0,120.0,90.0,1.0,64.0
1626,59.0,120.0,90.0,1.0,64.0
1627,54.0,0.0,90.0,1.0,64.0
1628,63.0,48.0,90.0,1.0,64.0
1629,51.0,0.0,90.0,1.0,64.0
1630,54.0,240.0,90.0,1.0,64.0
1631,59.0,0.0,90.0,1.0,64.0
1632,47.0,0.0,390.0,2.0,64.0
1633,71.0,72.0,390.0,0.0,64.0
1634,54.0,0.0,90.0,1.0,64.0
1635,59.0,120.0,90.0,1.0,64.0
1636,51.0,48.0,90.0,1.0,64.0
1637,63.0,0.0,90.0,1.0,64.0
1638,54.0,240.0,90.0,1.0,64.0
1639,59.0,0.0,90.0,1.0,64.0
1640,45.0,72.0,1350.0,2.0,64.0
1641,54.0,120.0,90.0,1.0,64.0
1642,59.0,0.0,90.0,1.0,64.0
1643,63.0,120.0,90.0,1.0,64.0
1644,51.0,0.0,90.0,1.0,64.0
1645,54.0,120.0,90.0,1.0,64.0
1646,59.0,0.0,90.0,1.0,64.0
1647,51.0,120.0,90.0,1.0,64.0
1648,71.0,0.0,870.0,0.0,64.0
1649,59.0,0.0,90.0,1.0,64.0
1650,54.0,120.0,90.0,1.0,64.0
1651,63.0,0.0,90.0,1.0,64.0
1652,51.0,120.0,90.0,1.0,64.0
1653,54.0,120.0,90.0,1.0,64.0
1654,59.0,0.0,90.0,1.0,64.0
1655,63.0,0.0,90.0,1.0,64.0
1656,51.0,120.0,90.0,1.0,64.0
1657,59.0,0.0,90.0,1.0,64.0
1658,54.0,120.0,90.0,1.0,64.0
1659,63.0,48.0,90.0,1.0,64.0
1660,51.0,0.0,90.0,1.0,64.0
1661,59.0,0.0,90.0,1.0,64.0
1662,54.0,240.0,90.0,1.0,64.0
1663,71.0,0.0,390.0,0.0,64.0
1664,45.0,72.0,390.0,2.0,64.0
1665,54.0,0.0,90.0,1.0,64.0
1666,59.0,120.0,90.0,1.0,64.0
1667,63.0,48.0,90.0,1.0,64.0
1668,51.0,0.0,90.0,1.0,64.0
1669,59.0,96.0,90.0,1.0,64.0
1670,54.0,0.0,90.0,1.0,64.0
1671,44.0,0.0,60.0,2.0,64.0
1672,71.0,144.0,60.0,0.0,64.0
1673,52.0,0.0,90.0,2.0,64.0
1674,59.0,120.0,90.0,0.0,64.0
1675,47.0,0.0,90.0,2.0,64.0
1676,64.0,120.0,90.0,0.0,64.0
1677,52.0,0.0,90.0,2.0,64.0
1678,59.0,96.0,90.0,0.0,64.0
1679,72.0,144.0,60.0,0.0,64.0
1680,42.0,0.0,60.0,2.0,64.0
1681,60.0,0.0,90.0,0.0,64.0
1682,51.0,120.0,90.0,2.0,64.0
1683,68.0,120.0,90.0,0.0,64.0
1684,44.0,0.0,90.0,2.0,64.0
1685,60.0,0.0,90.0,0.0,64.0
1686,51.0,96.0,90.0,2.0,64.0
1687,40.0,0.0,60.0,2.0,64.0
1688,73.0,144.0,60.0,0.0,64.0
1689,52.0,120.0,90.0,2.0,64.0
1690,61.0,0.0,90.0,0.0,64.0
1691,68.0,0.0,90.0,0.0,64.0
1692,44.0,120.0,90.0,2.0,64.0
1693,61.0,0.0,90.0,0.0,64.0
1694,52.0,96.0,90.0,2.0,64.0
1695,75.0,144.0,60.0,0.0,64.0
1696,39.0,0.0,60.0,2.0,64.0
1697,51.0,0.0,90.0,2.0,64.0
1698,63.0,120.0,90.0,0.0,64.0
1699,44.0,0.0,90.0,2.0,64.0
1700,68.0,120.0,90.0,0.0,64.0
1701,51.0,0.0,90.0,2.0,64.0
1702,63.0,96.0,90.0,0.0,64.0
1703,37.0,0.0,60.0,2.0,64.0
1704,76.0,144.0,60.0,0.0,64.0
1705,64.0,0.0,90.0,0.0,64.0
1706,49.0,120.0,90.0,2.0,64.0
1707,68.0,0.0,90.0,0.0,64.0
1708,44.0,120.0,90.0,2.0,64.0
1709,64.0,0.0,90.0,0.0,64.0
1710,49.0,96.0,90.0,2.0,64.0
1711,77.0,144.0,60.0,0.0,64.0
1712,35.0,0.0,60.0,2.0,64.0
1713,47.0,120.0,90.0,2.0,64.0
1714,65.0,0.0,90.0,0.0,64.0
1715,68.0,0.0,90.0,0.0,64.0
1716,37.0,120.0,90.0,2.0,64.0
1717,65.0,96.0,90.0,0.0,64.0
1718,47.0,0.0,90.0,2.0,64.0
1719,34.0,0.0,60.0,2.0,64.0
1720,78.0,144.0,60.0,0.0,64.0
1721,66.0,120.0,90.0,0.0,64.0
1722,46.0,0.0,90.0,2.0,64.0
1723,73.0,0.0,90.0,0.0,64.0
1724,37.0,120.0,90.0,2.0,64.0
1725,66.0,96.0,90.0,0.0,64.0
1726,46.0,0.0,90.0,2.0,64.0
1727,32.0,0.0,60.0,2.0,64.0
1728,80.0,144.0,60.0,0.0,64.0
1729,44.0,0.0,90.0,2.0,64.0
1730,68.0,120.0,90.0,0.0,64.0
1731,37.0,0.0,90.0,2.0,64.0
1732,73.0,120.0,90.0,0.0,64.0
1733,44.0,0.0,90.0,2.0,64.0
1734,68.0,96.0,90.0,0.0,64.0
1735,81.0,0.0,60.0,0.0,64.0
1736,30.0,144.0,60.0,2.0,64.0
1737,42.0,120.0,90.0,2.0,64.0
1738,69.0,0.0,90.0,0.0,64.0
1739,73.0,0.0,90.0,0.0,64.0
1740,37.0,120.0,90.0,2.0,64.0
1741,69.0,0.0,90.0,0.0,64.0
1742,42.0,96.0,90.0,2.0,64.0
1743,82.0,0.0,60.0,0.0,64.0
1744,28.0,144.0,60.0,2.0,64.0
1745,70.0,0.0,90.0,0.0,64.0
1746,40.0,120.0,90.0,2.0,64.0
1747,73.0,0.0,90.0,0.0,64.0
1748,37.0,120.0,90.0,2.0,64.0
1749,70.0,96.0,90.0,0.0,64.0
1750,40.0,0.0,90.0,2.0,64.0
1751,83.0,144.0,60.0,0.0,64.0
1752,27.0,0.0,60.0,2.0,64.0
1753,39.0,120.0,90.0,2.0,64.0
1754,71.0,0.0,90.0,0.0,64.0
1755,35.0,120.0,90.0,2.0,64.0
1756,78.0,0.0,90.0,0.0,64.0
1757,71.0,0.0,90.0,0.0,64.0
1758,39.0,96.0,90.0,2.0,64.0
1759,84.0,0.0,60.0,0.0,64.0
1760,27.0,144.0,60.0,2.0,64.0
1761,72.0,120.0,90.0,0.0,64.0
1762,39.0,0.0,90.0,2.0,64.0
1763,27.0,0.0,90.0,2.0,64.0
1764,78.0,120.0,90.0,0.0,64.0
1765,39.0,0.0,90.0,2.0,64.0
1766,72.0,168.0,90.0,0.0,64.0
1767,40.0,72.0,150.0,2.0,64.0
1768,28.0,0.0,150.0,2.0,64.0
1769,76.0,120.0,90.0,0.0,64.0
1770,80.0,120.0,90.0,0.0,64.0
1771,76.0,96.0,90.0,0.0,64.0
1772,85.0,144.0,60.0,0.0,64.0
1773,76.0,120.0,90.0,0.0,64.0
1774,80.0,120.0,90.0,0.0,64.0
1775,76.0,168.0,90.0,0.0,64.0
1776,30.0,0.0,150.0,2.0,64.0
1777,42.0,72.0,150.0,2.0,64.0
1778,73.0,120.0,90.0,0.0,64.0
1779,76.0,120.0,90.0,0.0,64.0
1780,73.0,96.0,90.0,0.0,64.0
1781,82.0,144.0,60.0,0.0,64.0
1782,73.0,120.0,90.0,0.0,64.0
1783,76.0,120.0,90.0,0.0,64.0
1784,73.0,168.0,90.0,0.0,64.0
1785,71.0,48.0,150.0,0.0,64.0
1786,47.0,0.0,180.0,2.0,64.0
1787,35.0,240.0,180.0,2.0,64.0
1788,83.0,120.0,480.0,0.0,64.0
1789,63.0,0.0,180.0,1.0,64.0
1790,59.0,240.0,180.0,1.0,64.0
1791,63.0,48.0,180.0,1.0,64.0
1792,59.0,0.0,180.0,1.0,64.0
1793,63.0,48.0,180.0,1.0,64.0
1794,59.0,0.0,180.0,1.0,64.0
1795,82.0,72.0,120.0,0.0,64.0
1796,83.0,120.0,120.0,0.0,64.0
1797,56.0,72.0,780.0,1.0,64.0
1798,85.0,120.0,120.0,0.0,64.0
1799,83.0,120.0,120.0,0.0,64.0
1800,63.0,48.0,180.0,1.0,64.0
1801,82.0,72.0,120.0,0.0,64.0
1802,59.0,0.0,180.0,1.0,64.0
1803,80.0,120.0,120.0,0.0,64.0
1804,63.0,0.0,180.0,1.0,64.0
1805,59.0,48.0,180.0,1.0,64.0
1806,79.0,72.0,120.0,0.0,64.0
1807,80.0,48.0,120.0,0.0,64.0
1808,63.0,0.0,180.0,1.0,64.0
1809,59.0,48.0,180.0,1.0,64.0
1810,82.0,72.0,120.0,0.0,64.0
1811,80.0,120.0,120.0,0.0,64.0
1812,52.0,72.0,780.0,1.0,64.0
1813,78.0,120.0,120.0,0.0,64.0
1814,76.0,120.0,120.0,0.0,64.0
1815,75.0,72.0,120.0,0.0,64.0
1816,61.0,48.0,180.0,1.0,64.0
1817,59.0,0.0,180.0,1.0,64.0
1818,73.0,120.0,120.0,0.0,64.0
1819,72.0,72.0,120.0,0.0,64.0
1820,61.0,48.0,180.0,1.0,64.0
1821,59.0,0.0,180.0,1.0,64.0
1822,73.0,48.0,120.0,0.0,64.0
1823,75.0,72.0,120.0,0.0,64.0
1824,59.0,0.0,180.0,1.0,64.0
1825,61.0,48.0,180.0,1.0,64.0
1826,73.0,120.0,120.0,0.0,64.0
1827,71.0,120.0,120.0,0.0,64.0
1828,54.0,72.0,780.0,1.0,64.0
1829,70.0,120.0,120.0,0.0,64.0
1830,61.0,48.0,180.0,1.0,64.0
1831,58.0,0.0,180.0,1.0,64.0
1832,68.0,72.0,120.0,0.0,64.0
1833,66.0,120.0,120.0,0.0,64.0
1834,58.0,48.0,180.0,1.0,64.0
1835,65.0,72.0,120.0,0.0,64.0
1836,61.0,0.0,180.0,1.0,64.0
1837,66.0,48.0,120.0,0.0,64.0
1838,68.0,72.0,120.0,0.0,64.0
1839,58.0,48.0,180.0,1.0,64.0
1840,61.0,0.0,180.0,1.0,64.0
1841,64.0,144.0,120.0,0.0,64.0
1842,63.0,288.0,150.0,0.0,64.0
1843,47.0,72.0,780.0,2.0,64.0
1844,59.0,240.0,180.0,1.0,64.0
1845,51.0,0.0,180.0,1.0,64.0
1846,83.0,0.0,480.0,0.0,64.0
1847,71.0,48.0,480.0,0.0,64.0
1848,59.0,0.0,180.0,1.0,64.0
1849,51.0,48.0,180.0,1.0,64.0
1850,82.0,72.0,120.0,0.0,64.0
1851,51.0,0.0,180.0,1.0,64.0
1852,59.0,48.0,180.0,1.0,64.0
1853,83.0,120.0,120.0,0.0,64.0
1854,85.0,120.0,120.0,0.0,64.0
1855,44.0,72.0,780.0,2.0,64.0
1856,83.0,120.0,120.0,0.0,64.0
1857,82.0,72.0,120.0,0.0,64.0
1858,47.0,48.0,180.0,1.0,64.0
1859,56.0,0.0,180.0,1.0,64.0
1860,51.0,0.0,180.0,1.0,64.0
1861,80.0,120.0,120.0,0.0,64.0
1862,79.0,72.0,120.0,0.0,64.0
1863,51.0,48.0,180.0,1.0,64.0
1864,56.0,0.0,180.0,1.0,64.0
1865,47.0,0.0,180.0,1.0,64.0
1866,80.0,48.0,120.0,0.0,64.0
1867,82.0,72.0,120.0,0.0,64.0
1868,47.0,0.0,180.0,1.0,64.0
1869,51.0,48.0,180.0,1.0,64.0
1870,56.0,0.0,180.0,1.0,64.0
1871,80.0,120.0,120.0,0.0,64.0
1872,78.0,120.0,120.0,0.0,64.0
1873,40.0,72.0,780.0,2.0,64.0
1874,76.0,120.0,120.0,0.0,64.0
1875,47.0,0.0,180.0,1.0,64.0
1876,75.0,72.0,120.0,0.0,64.0
1877,52.0,48.0,180.0,1.0,64.0
1878,49.0,0.0,180.0,1.0,64.0
1879,73.0,120.0,120.0,0.0,64.0
1880,47.0,0.0,180.0,1.0,64.0
1881,72.0,72.0,120.0,0.0,64.0
1882,49.0,48.0,180.0,1.0,64.0
1883,52.0,0.0,180.0,1.0,64.0
1884,73.0,48.0,120.0,0.0,64.0
1885,52.0,0.0,180.0,1.0,64.0
1886,47.0,48.0,180.0,1.0,64.0
1887,49.0,0.0,180.0,1.0,64.0
1888,75.0,72.0,120.0,0.0,64.0
1889,73.0,120.0,120.0,0.0,64.0
1890,71.0,120.0,120.0,0.0,64.0
1891,42.0,72.0,780.0,2.0,64.0
1892,70.0,120.0,120.0,0.0,64.0
1893,68.0,72.0,120.0,0.0,64.0
1894,54.0,48.0,180.0,1.0,64.0
1895,46.0,0.0,180.0,1.0,64.0
1896,49.0,0.0,180.0,1.0,64.0
1897,66.0,120.0,120.0,0.0,64.0
1898,46.0,48.0,180.0,1.0,64.0
1899,65.0,72.0,120.0,0.0,64.0
1900,49.0,0.0,180.0,1.0,64.0
1901,54.0,0.0,180.0,1.0,64.0
1902,66.0,48.0,120.0,0.0,64.0
1903,54.0,0.0,180.0,1.0,64.0
1904,46.0,48.0,180.0,1.0,64.0
1905,49.0,0.0,180.0,1.0,64.0
1906,68.0,72.0,120.0,0.0,64.0
1907,66.0,96.0,120.0,0.0,64.0
1908,35.0,48.0,90.0,2.0,64.0
1909,71.0,72.0,150.0,0.0,64.0
1910,47.0,120.0,90.0,2.0,64.0
1911,35.0,120.0,90.0,2.0,64.0
1912,59.0,72.0,390.0,0.0,64.0
1913,47.0,120.0,90.0,2.0,64.0
1914,35.0,48.0,90.0,2.0,64.0
1915,47.0,120.0,90.0,2.0,64.0
1916,35.0,48.0,90.0,2.0,64.0
1917,57.0,0.0,150.0,0.0,64.0
1918,63.0,72.0,150.0,0.0,64.0
1919,47.0,120.0,90.0,2.0,64.0
1920,56.0,0.0,150.0,0.0,64.0
1921,35.0,48.0,90.0,2.0,64.0
1922,64.0,72.0,150.0,0.0,64.0
1923,47.0,120.0,90.0,2.0,64.0
1924,35.0,48.0,90.0,2.0,64.0
1925,63.0,72.0,150.0,0.0,64.0
1926,66.0,0.0,150.0,0.0,64.0
1927,47.0,120.0,90.0,2.0,64.0
1928,64.0,0.0,150.0,0.0,64.0
1929,68.0,72.0,150.0,0.0,64.0
1930,35.0,48.0,90.0,2.0,64.0
1931,47.0,120.0,90.0,2.0,64.0
1932,70.0,72.0,150.0,0.0,64.0
1933,64.0,0.0,150.0,0.0,64.0
1934,35.0,48.0,90.0,2.0,64.0
1935,47.0,120.0,90.0,2.0,64.0
1936,71.0,72.0,150.0,0.0,64.0
1937,35.0,48.0,90.0,2.0,64.0
1938,63.0,0.0,150.0,0.0,64.0
1939,47.0,120.0,90.0,2.0,64.0
1940,71.0,72.0,390.0,0.0,64.0
1941,35.0,120.0,90.0,2.0,64.0
1942,47.0,120.0,90.0,2.0,64.0
1943,35.0,48.0,90.0,2.0,64.0
1944,47.0,120.0,90.0,2.0,64.0
1945,75.0,72.0,150.0,0.0,64.0
1946,69.0,0.0,150.0,0.0,64.0
1947,35.0,48.0,90.0,2.0,64.0
1948,47.0,120.0,90.0,2.0,64.0
1949,35.0,48.0,90.0,2.0,64.0
1950,76.0,0.0,150.0,0.0,64.0
1951,68.0,72.0,150.0,0.0,64.0
1952,47.0,120.0,90.0,2.0,64.0
1953,78.0,72.0,150.0,0.0,64.0
1954,35.0,48.0,90.0,2.0,64.0
1955,75.0,0.0,150.0,0.0,64.0
1956,47.0,120.0,90.0,2.0,64.0
1957,80.0,0.0,150.0,0.0,64.0
1958,35.0,48.0,90.0,2.0,64.0
1959,76.0,72.0,150.0,0.0,64.0
1960,47.0,120.0,90.0,2.0,64.0
1961,35.0,48.0,90.0,2.0,64.0
1962,76.0,72.0,150.0,0.0,64.0
1963,82.0,0.0,150.0,0.0,64.0
1964,47.0,120.0,90.0,2.0,64.0
1965,83.0,0.0,780.0,0.0,64.0
1966,75.0,48.0,780.0,0.0,64.0
1967,35.0,120.0,90.0,2.0,64.0
1968,47.0,120.0,90.0,2.0,64.0
1969,35.0,120.0,90.0,2.0,64.0
1970,47.0,120.0,90.0,2.0,64.0
1971,35.0,120.0,90.0,2.0,64.0
1972,47.0,72.0,90.0,2.0,64.0
1973,35.0,120.0,90.0,2.0,64.0
1974,47.0,120.0,90.0,2.0,64.0
1975,71.0,0.0,780.0,0.0,64.0
1976,35.0,120.0,90.0,2.0,64.0
1977,63.0,48.0,780.0,0.0,64.0
1978,47.0,120.0,90.0,2.0,64.0
1979,35.0,120.0,90.0,2.0,64.0
1980,47.0,120.0,90.0,2.0,64.0
1981,35.0,120.0,90.0,2.0,64.0
1982,47.0,72.0,90.0,2.0,64.0
1983,35.0,120.0,90.0,2.0,64.0
1984,47.0,120.0,90.0,2.0,64.0
1985,75.0,0.0,780.0,0.0,64.0
1986,83.0,48.0,780.0,0.0,64.0
1987,32.0,120.0,90.0,2.0,64.0
1988,44.0,120.0,90.0,2.0,64.0
1989,32.0,120.0,90.0,2.0,64.0
1990,44.0,120.0,90.0,2.0,64.0
1991,32.0,120.0,90.0,2.0,64.0
1992,44.0,72.0,90.0,2.0,64.0
1993,32.0,120.0,90.0,2.0,64.0
1994,44.0,120.0,90.0,2.0,64.0
1995,63.0,0.0,780.0,0.0,64.0
1996,30.0,120.0,90.0,2.0,64.0
1997,71.0,48.0,780.0,0.0,64.0
1998,42.0,120.0,90.0,2.0,64.0
1999,30.0,120.0,90.0,2.0,64.0
2000,42.0,120.0,90.0,2.0,64.0
2001,30.0,120.0,90.0,2.0,64.0
2002,42.0,72.0,90.0,2.0,64.0
2003,30.0,120.0,90.0,2.0,64.0
2004,42.0,120.0,90.0,2.0,64.0
2005,80.0,48.0,780.0,0.0,64.0
2006,83.0,0.0,780.0,0.0,64.0
2007,28.0,120.0,90.0,2.0,64.0
2008,40.0,120.0,90.0,2.0,64.0
2009,28.0,120.0,90.0,2.0,64.0
2010,40.0,120.0,90.0,2.0,64.0
2011,28.0,120.0,90.0,2.0,64.0
2012,40.0,72.0,90.0,2.0,64.0
2013,28.0,120.0,90.0,2.0,64.0
2014,40.0,120.0,90.0,2.0,64.0
2015,71.0,48.0,780.0,0.0,64.0
2016,27.0,120.0,90.0,2.0,64.0
2017,68.0,0.0,780.0,0.0,64.0
2018,39.0,120.0,90.0,2.0,64.0
2019,27.0,120.0,90.0,2.0,64.0
2020,39.0,120.0,90.0,2.0,64.0
2021,27.0,120.0,90.0,2.0,64.0
2022,39.0,72.0,90.0,2.0,64.0
2023,27.0,120.0,90.0,2.0,64.0
2024,39.0,936.0,90.0,2.0,64.0
2025,80.0,0.0,900.0,0.0,64.0
2026,82.0,0.0,900.0,0.0,64.0
2027,26.0,0.0,900.0,2.0,64.0
2028,38.0,960.0,900.0,2.0,64.0
2029,77.0,0.0,900.0,0.0,64.0
2030,27.0,0.0,900.0,2.0,64.0
2031,39.0,0.0,900.0,2.0,64.0
2032,49.0,0.0,900.0,0.0,64.0
2033,55.0,144.0,900.0,0.0,64.0
2034,58.0,0.0,900.0,0.0,64.0
2035,32.0,120.0,90.0,2.0,64.0
2036,56.0,0.0,570.0,0.0,64.0
2037,44.0,120.0,90.0,2.0,64.0
2038,32.0,120.0,90.0,2.0,64.0
2039,44.0,120.0,90.0,2.0,64.0
2040,32.0,120.0,90.0,2.0,64.0
2041,44.0,120.0,90.0,2.0,64.0
2042,60.0,0.0,150.0,0.0,64.0
2043,54.0,72.0,150.0,0.0,64.0
2044,32.0,48.0,90.0,2.0,64.0
2045,44.0,120.0,90.0,2.0,64.0
2046,61.0,72.0,150.0,0.0,64.0
2047,52.0,0.0,150.0,0.0,64.0
2048,32.0,48.0,90.0,2.0,64.0
2049,44.0,120.0,90.0,2.0,64.0
2050,60.0,0.0,150.0,0.0,64.0
2051,32.0,48.0,90.0,2.0,64.0
2052,63.0,72.0,150.0,0.0,64.0
2053,44.0,120.0,90.0,2.0,64.0
2054,32.0,48.0,90.0,2.0,64.0
2055,61.0,72.0,150.0,0.0,64.0
2056,64.0,0.0,150.0,0.0,64.0
2057,44.0,120.0,90.0,2.0,64.0
2058,67.0,0.0,150.0,0.0,64.0
2059,58.0,72.0,150.0,0.0,64.0
2060,32.0,48.0,90.0,2.0,64.0
2061,44.0,120.0,90.0,2.0,64.0
2062,32.0,48.0,90.0,2.0,64.0
2063,59.0,72.0,150.0,0.0,64.0
2064,68.0,0.0,150.0,0.0,64.0
2065,44.0,120.0,90.0,2.0,64.0
2066,68.0,0.0,390.0,0.0,64.0
2067,60.0,72.0,390.0,0.0,64.0
2068,32.0,120.0,90.0,2.0,64.0
2069,44.0,120.0,90.0,2.0,64.0
2070,32.0,48.0,90.0,2.0,64.0
2071,44.0,120.0,90.0,2.0,64.0
2072,32.0,48.0,90.0,2.0,64.0
2073,66.0,72.0,150.0,0.0,64.0
2074,72.0,0.0,150.0,0.0,64.0
2075,44.0,120.0,90.0,2.0,64.0
2076,32.0,48.0,90.0,2.0,64.0
2077,64.0,72.0,150.0,0.0,64.0
2078,73.0,0.0,150.0,0.0,64.0
2079,44.0,120.0,90.0,2.0,64.0
2080,32.0,48.0,90.0,2.0,64.0
2081,75.0,0.0,150.0,0.0,64.0
2082,72.0,72.0,150.0,0.0,64.0
2083,44.0,120.0,90.0,2.0,64.0
2084,76.0,72.0,150.0,0.0,64.0
2085,73.0,0.0,150.0,0.0,64.0
2086,32.0,48.0,90.0,2.0,64.0
2087,44.0,120.0,90.0,2.0,64.0
2088,32.0,48.0,90.0,2.0,64.0
2089,79.0,0.0,150.0,0.0,64.0
2090,70.0,72.0,150.0,0.0,64.0
2091,44.0,120.0,90.0,2.0,64.0
2092,32.0,120.0,90.0,2.0,64.0
2093,80.0,0.0,300.0,0.0,64.0
2094,68.0,48.0,300.0,0.0,64.0
2095,71.0,0.0,300.0,0.0,64.0
2096,75.0,0.0,300.0,0.0,64.0
2097,44.0,72.0,90.0,2.0,64.0
2098,32.0,120.0,90.0,2.0,64.0
2099,44.0,120.0,90.0,2.0,64.0
2100,67.0,0.0,300.0,0.0,64.0
2101,75.0,0.0,300.0,0.0,64.0
2102,73.0,48.0,300.0,0.0,64.0
2103,34.0,120.0,90.0,2.0,64.0
2104,63.0,0.0,300.0,0.0,64.0
2105,46.0,72.0,90.0,2.0,64.0
2106,34.0,120.0,90.0,2.0,64.0
2107,46.0,120.0,90.0,2.0,64.0
2108,63.0,0.0,300.0,0.0,64.0
2109,71.0,48.0,300.0,0.0,64.0
2110,35.0,120.0,90.0,2.0,64.0
2111,68.0,0.0,300.0,0.0,64.0
2112,47.0,72.0,90.0,2.0,64.0
2113,35.0,120.0,90.0,2.0,64.0
2114,47.0,120.0,90.0,2.0,64.0
2115,70.0,0.0,300.0,0.0,64.0
2116,64.0,0.0,300.0,0.0,64.0
2117,37.0,120.0,90.0,2.0,64.0
2118,61.0,48.0,300.0,0.0,64.0
2119,49.0,72.0,90.0,2.0,64.0
2120,37.0,120.0,90.0,2.0,64.0
2121,49.0,120.0,90.0,2.0,64.0
2122,63.0,96.0,480.0,1.0,64.0
2123,68.0,0.0,1440.0,0.0,64.0
2124,59.0,96.0,1440.0,0.0,64.0
2125,39.0,120.0,90.0,2.0,64.0
2126,51.0,120.0,90.0,2.0,64.0
2127,39.0,120.0,90.0,2.0,64.0
2128,51.0,24.0,90.0,2.0,64.0
2129,62.0,96.0,480.0,1.0,64.0
2130,40.0,120.0,90.0,2.0,64.0
2131,52.0,120.0,90.0,2.0,64.0
2132,40.0,120.0,90.0,2.0,64.0
2133,52.0,24.0,90.0,2.0,64.0
2134,65.0,0.0,480.0,1.0,64.0
2135,38.0,120.0,90.0,2.0,64.0
2136,50.0,120.0,90.0,2.0,64.0
2137,38.0,120.0,90.0,2.0,64.0
2138,50.0,24.0,90.0,2.0,64.0
2139,67.0,72.0,390.0,0.0,64.0
2140,39.0,120.0,90.0,2.0,64.0
2141,61.0,96.0,480.0,1.0,64.0
2142,58.0,0.0,390.0,0.0,64.0
2143,51.0,120.0,90.0,2.0,64.0
2144,39.0,48.0,90.0,2.0,64.0
2145,51.0,24.0,90.0,2.0,64.0
2146,32.0,48.0,90.0,2.0,64.0
2147,59.0,72.0,150.0,0.0,64.0
2148,68.0,0.0,150.0,0.0,64.0
2149,56.0,0.0,150.0,0.0,64.0
2150,44.0,120.0,90.0,2.0,64.0
2151,32.0,120.0,90.0,2.0,64.0
2152,56.0,72.0,390.0,0.0,64.0
2153,44.0,120.0,90.0,2.0,64.0
2154,32.0,48.0,90.0,2.0,64.0
2155,44.0,120.0,90.0,2.0,64.0
2156,54.0,0.0,150.0,0.0,64.0
2157,60.0,72.0,150.0,0.0,64.0
2158,32.0,48.0,90.0,2.0,64.0
2159,44.0,120.0,90.0,2.0,64.0
2160,32.0,48.0,90.0,2.0,64.0
2161,52.0,72.0,150.0,0.0,64.0
2162,61.0,0.0,150.0,0.0,64.0
2163,44.0,120.0,90.0,2.0,64.0
2164,32.0,48.0,90.0,2.0,64.0
2165,60.0,0.0,150.0,0.0,64.0
2166,63.0,72.0,150.0,0.0,64.0
2167,44.0,120.0,90.0,2.0,64.0
2168,64.0,0.0,150.0,0.0,64.0
2169,61.0,72.0,150.0,0.0,64.0
2170,32.0,48.0,90.0,2.0,64.0
2171,44.0,120.0,90.0,2.0,64.0
2172,58.0,72.0,150.0,0.0,64.0
2173,67.0,0.0,150.0,0.0,64.0
2174,32.0,48.0,90.0,2.0,64.0
2175,44.0,120.0,90.0,2.0,64.0
2176,68.0,0.0,150.0,0.0,64.0
2177,59.0,72.0,150.0,0.0,64.0
2178,32.0,48.0,90.0,2.0,64.0
2179,44.0,120.0,90.0,2.0,64.0
2180,60.0,0.0,390.0,0.0,64.0
2181,68.0,72.0,390.0,0.0,64.0
2182,32.0,120.0,90.0,2.0,64.0
2183,44.0,120.0,90.0,2.0,64.0
2184,32.0,48.0,90.0,2.0,64.0
2185,44.0,120.0,90.0,2.0,64.0
2186,32.0,48.0,90.0,2.0,64.0
2187,72.0,72.0,150.0,0.0,64.0
2188,66.0,0.0,150.0,0.0,64.0
2189,44.0,120.0,90.0,2.0,64.0
2190,64.0,0.0,150.0,0.0,64.0
2191,73.0,72.0,150.0,0.0,64.0
2192,32.0,48.0,90.0,2.0,64.0
2193,44.0,120.0,90.0,2.0,64.0
2194,72.0,72.0,150.0,0.0,64.0
2195,32.0,48.0,90.0,2.0,64.0
2196,75.0,0.0,150.0,0.0,64.0
2197,44.0,120.0,90.0,2.0,64.0
2198,73.0,72.0,150.0,0.0,64.0
2199,76.0,0.0,150.0,0.0,64.0
2200,32.0,48.0,90.0,2.0,64.0
2201,44.0,120.0,90.0,2.0,64.0
2202,70.0,72.0,150.0,0.0,64.0
2203,32.0,48.0,90.0,2.0,64.0
2204,79.0,0.0,150.0,0.0,64.0
2205,44.0,120.0,90.0,2.0,64.0
2206,75.0,0.0,300.0,0.0,64.0
2207,80.0,0.0,300.0,0.0,64.0
2208,71.0,48.0,300.0,0.0,64.0
2209,68.0,0.0,300.0,0.0,64.0
2210,32.0,120.0,90.0,2.0,64.0
2211,44.0,72.0,90.0,2.0,64.0
2212,32.0,120.0,90.0,2.0,64.0
2213,44.0,120.0,90.0,2.0,64.0
2214,75.0,0.0,300.0,0.0,64.0
2215,67.0,0.0,300.0,0.0,64.0
2216,63.0,0.0,300.0,0.0,64.0
2217,73.0,48.0,300.0,0.0,64.0
2218,34.0,120.0,90.0,2.0,64.0
2219,46.0,72.0,90.0,2.0,64.0
2220,34.0,120.0,90.0,2.0,64.0
2221,46.0,120.0,90.0,2.0,64.0
2222,35.0,120.0,90.0,2.0,64.0
2223,63.0,0.0,300.0,0.0,64.0
2224,71.0,48.0,300.0,0.0,64.0
2225,68.0,0.0,300.0,0.0,64.0
2226,47.0,72.0,90.0,2.0,64.0
2227,35.0,120.0,90.0,2.0,64.0
2228,47.0,120.0,90.0,2.0,64.0
2229,37.0,120.0,90.0,2.0,64.0
2230,61.0,48.0,300.0,0.0,64.0
2231,64.0,0.0,300.0,0.0,64.0
2232,70.0,0.0,300.0,0.0,64.0
2233,49.0,72.0,90.0,2.0,64.0
2234,37.0,120.0,90.0,2.0,64.0
2235,49.0,120.0,90.0,2.0,64.0
2236,68.0,0.0,1920.0,0.0,64.0
2237,39.0,120.0,90.0,2.0,64.0
2238,63.0,96.0,480.0,1.0,64.0
2239,59.0,0.0,1920.0,0.0,64.0
2240,51.0,120.0,90.0,2.0,64.0
2241,39.0,120.0,90.0,2.0,64.0
2242,51.0,24.0,90.0,2.0,64.0
2243,40.0,120.0,90.0,2.0,64.0
2244,62.0,96.0,480.0,1.0,64.0
2245,52.0,120.0,90.0,2.0,64.0
2246,40.0,120.0,90.0,2.0,64.0
2247,52.0,24.0,90.0,2.0,64.0
2248,65.0,192.0,960.0,1.0,64.0
2249,38.0,120.0,90.0,2.0,64.0
2250,50.0,120.0,90.0,2.0,64.0
2251,38.0,120.0,90.0,2.0,64.0
2252,50.0,120.0,90.0,2.0,64.0
2253,38.0,120.0,90.0,2.0,64.0
2254,50.0,120.0,90.0,2.0,64.0
2255,38.0,120.0,90.0,2.0,64.0
2256,50.0,24.0,90.0,2.0,64.0
2257,39.0,0.0,180.0,2.0,64.0
2258,51.0,0.0,180.0,2.0,64.0
2259,67.0,0.0,180.0,0.0,64.0
2260,58.0,240.0,180.0,0.0,64.0
2261,63.0,0.0,180.0,1.0,64.0
2262,55.0,240.0,180.0,2.0,64.0
2263,58.0,0.0,180.0,2.0,64.0
2264,58.0,0.0,180.0,2.0,64.0
2265,55.0,240.0,180.0,2.0,64.0
2266,63.0,0.0,660.0,0.0,64.0
2267,75.0,0.0,660.0,0.0,64.0
2268,58.0,240.0,180.0,2.0,64.0
2269,55.0,0.0,180.0,2.0,64.0
2270,51.0,240.0,180.0,2.0,64.0
2271,59.0,240.0,180.0,2.0,64.0
2272,56.0,0.0,180.0,2.0,64.0
2273,56.0,240.0,180.0,2.0,64.0
2274,59.0,0.0,180.0,2.0,64.0
2275,75.0,0.0,600.0,0.0,64.0
2276,63.0,72.0,600.0,0.0,64.0
2277,59.0,168.0,180.0,2.0,64.0
2278,56.0,0.0,180.0,2.0,64.0
2279,61.0,48.0,180.0,2.0,64.0
2280,58.0,0.0,180.0,2.0,64.0
2281,73.0,120.0,120.0,0.0,64.0
2282,70.0,120.0,120.0,0.0,64.0
2283,67.0,120.0,120.0,0.0,64.0
2284,63.0,120.0,120.0,0.0,64.0
2285,61.0,120.0,120.0,0.0,64.0
2286,58.0,120.0,120.0,0.0,64.0
2287,55.0,120.0,120.0,0.0,64.0
2288,56.0,120.0,120.0,0.0,64.0
2289,59.0,120.0,120.0,0.0,64.0
2290,56.0,120.0,120.0,0.0,64.0
2291,51.0,120.0,120.0,0.0,64.0
2292,50.0,0.0,120.0,0.0,64.0
2293,28.0,120.0,120.0,2.0,64.0
2294,56.0,0.0,120.0,0.0,64.0
2295,40.0,120.0,120.0,2.0,64.0
2296,52.0,0.0,120.0,0.0,64.0
2297,28.0,120.0,120.0,2.0,64.0
2298,40.0,0.0,120.0,2.0,64.0
2299,50.0,192.0,120.0,0.0,64.0
2300,51.0,0.0,180.0,0.0,64.0
2301,27.0,0.0,180.0,2.0,64.0
2302,39.0,240.0,180.0,2.0,64.0
2303,58.0,240.0,180.0,2.0,64.0
2304,55.0,0.0,180.0,2.0,64.0
2305,63.0,0.0,660.0,0.0,64.0
2306,75.0,0.0,660.0,0.0,64.0
2307,58.0,240.0,180.0,2.0,64.0
2308,55.0,0.0,180.0,2.0,64.0
2309,58.0,240.0,180.0,2.0,64.0
2310,55.0,0.0,180.0,2.0,64.0
2311,51.0,240.0,180.0,2.0,64.0
2312,56.0,0.0,180.0,2.0,64.0
2313,59.0,240.0,180.0,2.0,64.0
2314,75.0,72.0,600.0,0.0,64.0
2315,63.0,0.0,600.0,0.0,64.0
2316,59.0,0.0,180.0,2.0,64.0
2317,56.0,240.0,180.0,2.0,64.0
2318,59.0,168.0,180.0,2.0,64.0
2319,56.0,0.0,180.0,2.0,64.0
2320,58.0,48.0,180.0,2.0,64.0
2321,61.0,0.0,180.0,2.0,64.0
2322,73.0,120.0,120.0,0.0,64.0
2323,70.0,120.0,120.0,0.0,64.0
2324,67.0,120.0,120.0,0.0,64.0
2325,63.0,120.0,120.0,0.0,64.0
2326,61.0,120.0,120.0,0.0,64.0
2327,58.0,120.0,120.0,0.0,64.0
2328,55.0,120.0,120.0,0.0,64.0
2329,56.0,120.0,120.0,0.0,64.0
2330,59.0,120.0,120.0,0.0,64.0
2331,56.0,120.0,120.0,0.0,64.0
2332,51.0,120.0,120.0,0.0,64.0
2333,50.0,0.0,120.0,0.0,64.0
2334,28.0,120.0,120.0,2.0,64.0
2335,56.0,0.0,120.0,0.0,64.0
2336,40.0,120.0,120.0,2.0,64.0
2337,52.0,0.0,120.0,0.0,64.0
2338,28.0,120.0,120.0,2.0,64.0
2339,40.0,0.0,120.0,2.0,64.0
2340,50.0,96.0,120.0,0.0,64.0
2341,27.0,48.0,90.0,2.0,64.0
2342,51.0,72.0,150.0,0.0,64.0
2343,39.0,120.0,90.0,2.0,64.0
2344,27.0,48.0,90.0,2.0,64.0
2345,62.0,72.0,150.0,0.0,64.0
2346,39.0,120.0,90.0,2.0,64.0
2347,27.0,48.0,90.0,2.0,64.0
2348,63.0,72.0,150.0,0.0,64.0
2349,39.0,120.0,90.0,2.0,64.0
2350,27.0,48.0,90.0,2.0,64.0
2351,68.0,72.0,150.0,0.0,64.0
2352,62.0,0.0,150.0,0.0,64.0
2353,39.0,120.0,90.0,2.0,64.0
2354,67.0,72.0,150.0,0.0,64.0
2355,27.0,48.0,90.0,2.0,64.0
2356,63.0,0.0,150.0,0.0,64.0
2357,39.0,120.0,90.0,2.0,64.0
2358,68.0,72.0,150.0,0.0,64.0
2359,74.0,0.0,150.0,0.0,64.0
2360,27.0,48.0,90.0,2.0,64.0
2361,39.0,120.0,90.0,2.0,64.0
2362,75.0,72.0,150.0,0.0,64.0
2363,67.0,0.0,150.0,0.0,64.0
2364,27.0,48.0,90.0,2.0,64.0
2365,39.0,120.0,90.0,2.0,64.0
2366,74.0,0.0,150.0,0.0,64.0
2367,80.0,72.0,150.0,0.0,64.0
2368,27.0,48.0,90.0,2.0,64.0
2369,39.0,120.0,90.0,2.0,64.0
2370,79.0,72.0,150.0,0.0,64.0
2371,75.0,0.0,150.0,0.0,64.0
2372,27.0,48.0,90.0,2.0,64.0
2373,39.0,120.0,90.0,2.0,64.0
2374,27.0,120.0,90.0,2.0,64.0
2375,39.0,120.0,90.0,2.0,64.0
2376,27.0,120.0,90.0,2.0,64.0
2377,39.0,120.0,90.0,2.0,64.0
2378,27.0,120.0,90.0,2.0,64.0
2379,39.0,120.0,90.0,2.0,64.0
2380,27.0,120.0,90.0,2.0,64.0
2381,59.0,72.0,1110.0,0.0,64.0
2382,57.0,0.0,960.0,0.0,64.0
2383,54.0,96.0,960.0,0.0,64.0
2384,39.0,120.0,90.0,2.0,64.0
2385,27.0,120.0,90.0,2.0,64.0
2386,39.0,120.0,90.0,2.0,64.0
2387,27.0,120.0,90.0,2.0,64.0
2388,39.0,120.0,90.0,2.0,64.0
2389,27.0,120.0,90.0,2.0,64.0
2390,39.0,24.0,90.0,2.0,64.0
2391,56.0,0.0,150.0,0.0,64.0
2392,28.0,48.0,90.0,2.0,64.0
2393,40.0,120.0,90.0,2.0,64.0
2394,69.0,0.0,150.0,0.0,64.0
2395,63.0,72.0,150.0,0.0,64.0
2396,28.0,48.0,90.0,2.0,64.0
2397,40.0,120.0,90.0,2.0,64.0
2398,28.0,48.0,90.0,2.0,64.0
2399,64.0,0.0,150.0,0.0,64.0
2400,68.0,72.0,150.0,0.0,64.0
2401,40.0,120.0,90.0,2.0,64.0
2402,69.0,0.0,150.0,0.0,64.0
2403,75.0,72.0,150.0,0.0,64.0
2404,28.0,48.0,90.0,2.0,64.0
2405,40.0,120.0,90.0,2.0,64.0
2406,68.0,0.0,150.0,0.0,64.0
2407,76.0,72.0,150.0,0.0,64.0
2408,28.0,48.0,90.0,2.0,64.0
2409,40.0,120.0,90.0,2.0,64.0
2410,81.0,72.0,150.0,0.0,64.0
2411,75.0,0.0,150.0,0.0,64.0
2412,28.0,48.0,90.0,2.0,64.0
2413,40.0,120.0,90.0,2.0,64.0
2414,76.0,72.0,150.0,0.0,64.0
2415,80.0,0.0,150.0,0.0,64.0
2416,28.0,48.0,90.0,2.0,64.0
2417,40.0,120.0,90.0,2.0,64.0
2418,75.0,72.0,150.0,0.0,64.0
2419,81.0,0.0,150.0,0.0,64.0
2420,28.0,48.0,90.0,2.0,64.0
2421,40.0,120.0,90.0,2.0,64.0
2422,80.0,0.0,150.0,0.0,64.0
2423,76.0,72.0,150.0,0.0,64.0
2424,28.0,48.0,90.0,2.0,64.0
2425,40.0,120.0,90.0,2.0,64.0
2426,28.0,120.0,90.0,2.0,64.0
2427,40.0,120.0,90.0,2.0,64.0
2428,28.0,120.0,90.0,2.0,64.0
2429,40.0,120.0,90.0,2.0,64.0
2430,28.0,120.0,90.0,2.0,64.0
2431,40.0,120.0,90.0,2.0,64.0
2432,29.0,120.0,90.0,2.0,64.0
2433,59.0,0.0,960.0,0.0,64.0
2434,62.0,0.0,960.0,0.0,64.0
2435,56.0,96.0,960.0,0.0,64.0
2436,41.0,120.0,90.0,2.0,64.0
2437,29.0,120.0,90.0,2.0,64.0
2438,41.0,120.0,90.0,2.0,64.0
2439,29.0,120.0,90.0,2.0,64.0
2440,41.0,120.0,90.0,2.0,64.0
2441,29.0,120.0,90.0,2.0,64.0
2442,41.0,24.0,90.0,2.0,64.0
2443,61.0,72.0,150.0,0.0,64.0
2444,30.0,48.0,90.0,2.0,64.0
2445,58.0,0.0,150.0,0.0,64.0
2446,42.0,120.0,90.0,2.0,64.0
2447,30.0,48.0,90.0,2.0,64.0
2448,71.0,0.0,150.0,0.0,64.0
2449,65.0,72.0,150.0,0.0,64.0
2450,42.0,120.0,90.0,2.0,64.0
2451,70.0,72.0,150.0,0.0,64.0
2452,66.0,0.0,150.0,0.0,64.0
2453,30.0,48.0,90.0,2.0,64.0
2454,42.0,120.0,90.0,2.0,64.0
2455,71.0,72.0,150.0,0.0,64.0
2456,77.0,0.0,150.0,0.0,64.0
2457,30.0,48.0,90.0,2.0,64.0
2458,42.0,120.0,90.0,2.0,64.0
2459,30.0,48.0,90.0,2.0,64.0
2460,70.0,0.0,150.0,0.0,64.0
2461,78.0,72.0,150.0,0.0,64.0
2462,42.0,120.0,90.0,2.0,64.0
2463,30.0,48.0,90.0,2.0,64.0
2464,83.0,72.0,150.0,0.0,64.0
2465,77.0,0.0,150.0,0.0,64.0
2466,42.0,120.0,90.0,2.0,64.0
2467,30.0,48.0,90.0,2.0,64.0
2468,78.0,0.0,150.0,0.0,64.0
2469,82.0,72.0,150.0,0.0,64.0
2470,42.0,120.0,90.0,2.0,64.0
2471,30.0,48.0,90.0,2.0,64.0
2472,83.0,72.0,150.0,0.0,64.0
2473,77.0,0.0,150.0,0.0,64.0
2474,42.0,120.0,90.0,2.0,64.0
2475,30.0,48.0,90.0,2.0,64.0
2476,78.0,0.0,150.0,0.0,64.0
2477,82.0,72.0,150.0,0.0,64.0
2478,42.0,120.0,90.0,2.0,64.0
2479,30.0,120.0,90.0,2.0,64.0
2480,42.0,120.0,90.0,2.0,64.0
2481,30.0,120.0,90.0,2.0,64.0
2482,71.0,96.0,480.0,0.0,64.0
2483,77.0,0.0,480.0,0.0,64.0
2484,42.0,120.0,90.0,2.0,64.0
2485,30.0,120.0,90.0,2.0,64.0
2486,42.0,24.0,90.0,2.0,64.0
2487,78.0,0.0,180.0,0.0,64.0
2488,70.0,24.0,180.0,0.0,64.0
2489,30.0,96.0,90.0,2.0,64.0
2490,42.0,120.0,90.0,2.0,64.0
2491,30.0,120.0,90.0,2.0,64.0
2492,42.0,120.0,90.0,2.0,64.0
2493,30.0,120.0,90.0,2.0,64.0
2494,71.0,96.0,480.0,0.0,64.0
2495,65.0,0.0,480.0,0.0,64.0
2496,42.0,120.0,90.0,2.0,64.0
2497,30.0,120.0,90.0,2.0,64.0
2498,42.0,24.0,90.0,2.0,64.0
2499,30.0,96.0,90.0,2.0,64.0
2500,66.0,0.0,180.0,0.0,64.0
2501,70.0,24.0,180.0,0.0,64.0
2502,42.0,120.0,90.0,2.0,64.0
2503,30.0,120.0,90.0,2.0,64.0
2504,42.0,120.0,90.0,2.0,64.0
2505,65.0,96.0,480.0,0.0,64.0
2506,59.0,0.0,480.0,0.0,64.0
2507,30.0,120.0,90.0,2.0,64.0
2508,42.0,120.0,90.0,2.0,64.0
2509,30.0,120.0,90.0,2.0,64.0
2510,42.0,24.0,90.0,2.0,64.0
2511,58.0,24.0,180.0,0.0,64.0
2512,66.0,0.0,180.0,0.0,64.0
2513,30.0,96.0,90.0,2.0,64.0
2514,42.0,120.0,90.0,2.0,64.0
2515,30.0,120.0,90.0,2.0,64.0
2516,42.0,120.0,90.0,2.0,64.0
2517,53.0,144.0,480.0,0.0,64.0
2518,59.0,0.0,480.0,0.0,64.0
2519,30.0,120.0,90.0,2.0,64.0
2520,42.0,120.0,90.0,2.0,64.0
2521,30.0,120.0,90.0,2.0,64.0
2522,42.0,24.0,90.0,2.0,64.0
2523,30.0,0.0,180.0,2.0,64.0
2524,42.0,288.0,180.0,2.0,64.0
2525,58.0,0.0,150.0,0.0,64.0
2526,54.0,48.0,150.0,0.0,64.0
2527,53.0,240.0,240.0,0.0,64.0
2528,54.0,240.0,240.0,0.0,64.0
2529,53.0,240.0,240.0,0.0,64.0
2530,54.0,240.0,240.0,0.0,64.0
2531,53.0,240.0,240.0,0.0,64.0
2532,54.0,240.0,240.0,0.0,64.0
2533,53.0,384.0,240.0,0.0,64.0
2534,54.0,96.0,780.0,1.0,64.0
2535,59.0,0.0,180.0,1.0,64.0
2536,62.0,192.0,180.0,1.0,64.0
2537,42.0,48.0,150.0,2.0,64.0
2538,59.0,96.0,180.0,1.0,64.0
2539,47.0,48.0,150.0,2.0,64.0
2540,62.0,0.0,180.0,1.0,64.0
2541,49.0,48.0,150.0,2.0,64.0
2542,59.0,192.0,180.0,1.0,64.0
2543,62.0,0.0,180.0,1.0,64.0
2544,54.0,96.0,780.0,1.0,64.0
2545,50.0,240.0,150.0,2.0,64.0
2546,62.0,192.0,180.0,1.0,64.0
2547,59.0,0.0,180.0,1.0,64.0
2548,66.0,48.0,150.0,0.0,64.0
2549,62.0,96.0,180.0,1.0,64.0
2550,59.0,0.0,180.0,1.0,64.0
2551,71.0,48.0,150.0,0.0,64.0
2552,62.0,0.0,180.0,1.0,64.0
2553,59.0,108.0,180.0,1.0,64.0
2554,73.0,48.0,150.0,0.0,64.0
2555,66.0,372.0,60.0,0.0,64.0
2556,54.0,144.0,780.0,1.0,64.0
2557,74.0,48.0,660.0,0.0,64.0
2558,59.0,240.0,180.0,1.0,64.0
2559,62.0,0.0,180.0,1.0,64.0
2560,59.0,0.0,180.0,1.0,64.0
2561,62.0,48.0,180.0,1.0,64.0
2562,71.0,60.0,240.0,0.0,64.0
2563,62.0,0.0,180.0,1.0,64.0
2564,59.0,48.0,180.0,1.0,64.0
2565,66.0,372.0,60.0,0.0,64.0
2566,54.0,144.0,780.0,1.0,64.0
2567,74.0,48.0,660.0,0.0,64.0
2568,62.0,240.0,180.0,1.0,64.0
2569,59.0,0.0,180.0,1.0,64.0
2570,62.0,0.0,180.0,1.0,64.0
2571,59.0,48.0,180.0,1.0,64.0
2572,71.0,192.0,240.0,0.0,64.0
2573,62.0,48.0,180.0,1.0,64.0
2574,59.0,0.0,180.0,1.0,64.0
2575,70.0,192.0,180.0,0.0,64.0
2576,54.0,96.0,780.0,1.0,64.0
2577,64.0,192.0,180.0,1.0,64.0
2578,61.0,0.0,180.0,1.0,64.0
2579,42.0,48.0,150.0,2.0,64.0
2580,49.0,48.0,150.0,2.0,64.0
2581,64.0,0.0,180.0,1.0,64.0
2582,61.0,96.0,180.0,1.0,64.0
2583,61.0,192.0,180.0,1.0,64.0
2584,64.0,0.0,180.0,1.0,64.0
2585,50.0,48.0,150.0,2.0,64.0
2586,54.0,144.0,780.0,1.0,64.0
2587,52.0,288.0,150.0,2.0,64.0
2588,61.0,48.0,180.0,1.0,64.0
2589,64.0,0.0,180.0,1.0,64.0
2590,66.0,192.0,240.0,0.0,64.0
2591,76.0,48.0,240.0,0.0,64.0
2592,64.0,48.0,180.0,1.0,64.0
2593,61.0,0.0,180.0,1.0,64.0
2594,61.0,0.0,180.0,1.0,64.0
2595,74.0,60.0,240.0,0.0,64.0
2596,64.0,48.0,180.0,1.0,64.0
2597,76.0,180.0,60.0,0.0,64.0
2598,54.0,144.0,780.0,1.0,64.0
2599,74.0,192.0,180.0,0.0,64.0
2600,73.0,0.0,180.0,0.0,64.0
2601,61.0,0.0,180.0,1.0,64.0
2602,64.0,108.0,180.0,1.0,64.0
2603,64.0,0.0,180.0,1.0,64.0
2604,74.0,132.0,60.0,0.0,64.0
2605,61.0,48.0,180.0,1.0,64.0
2606,73.0,48.0,180.0,0.0,64.0
2607,61.0,0.0,180.0,1.0,64.0
2608,64.0,0.0,180.0,1.0,64.0
2609,71.0,108.0,180.0,0.0,64.0
2610,73.0,180.0,60.0,0.0,64.0
2611,54.0,96.0,780.0,1.0,64.0
2612,71.0,144.0,180.0,0.0,64.0
2613,64.0,192.0,180.0,1.0,64.0
2614,61.0,0.0,180.0,1.0,64.0
2615,70.0,48.0,150.0,0.0,64.0
2616,68.0,48.0,150.0,0.0,64.0
2617,64.0,0.0,180.0,1.0,64.0
2618,61.0,96.0,180.0,1.0,64.0
2619,61.0,192.0,180.0,1.0,64.0
2620,70.0,48.0,150.0,0.0,64.0
2621,64.0,0.0,180.0,1.0,64.0
2622,71.0,240.0,150.0,0.0,64.0
2623,54.0,96.0,780.0,1.0,64.0
2624,62.0,192.0,180.0,1.0,64.0
2625,42.0,48.0,150.0,2.0,64.0
2626,59.0,0.0,180.0,1.0,64.0
2627,62.0,96.0,180.0,1.0,64.0
2628,59.0,0.0,180.0,1.0,64.0
2629,47.0,48.0,150.0,2.0,64.0
2630,49.0,48.0,150.0,2.0,64.0
2631,62.0,192.0,180.0,1.0,64.0
2632,59.0,0.0,180.0,1.0,64.0
2633,50.0,288.0,150.0,2.0,64.0
2634,54.0,144.0,780.0,1.0,64.0
2635,59.0,0.0,180.0,1.0,64.0
2636,62.0,240.0,180.0,1.0,64.0
2637,66.0,0.0,180.0,0.0,64.0
2638,71.0,96.0,180.0,0.0,64.0
2639,62.0,0.0,180.0,1.0,64.0
2640,59.0,0.0,180.0,1.0,64.0
2641,62.0,108.0,180.0,1.0,64.0
2642,73.0,0.0,180.0,0.0,64.0
2643,59.0,0.0,180.0,1.0,64.0
2644,66.0,372.0,60.0,0.0,64.0
2645,54.0,144.0,780.0,1.0,64.0
2646,74.0,48.0,660.0,0.0,64.0
2647,62.0,0.0,180.0,1.0,64.0
2648,59.0,240.0,180.0,1.0,64.0
2649,59.0,48.0,180.0,1.0,64.0
2650,62.0,0.0,180.0,1.0,64.0
2651,59.0,48.0,180.0,1.0,64.0
2652,62.0,0.0,180.0,1.0,64.0
2653,71.0,60.0,240.0,0.0,64.0
2654,66.0,372.0,60.0,0.0,64.0
2655,54.0,144.0,780.0,1.0,64.0
2656,74.0,48.0,660.0,0.0,64.0
2657,59.0,0.0,180.0,1.0,64.0
2658,62.0,240.0,180.0,1.0,64.0
2659,62.0,48.0,180.0,1.0,64.0
2660,59.0,0.0,180.0,1.0,64.0
2661,71.0,192.0,240.0,0.0,64.0
2662,59.0,0.0,180.0,1.0,64.0
2663,62.0,48.0,180.0,1.0,64.0
2664,52.0,96.0,780.0,1.0,64.0
2665,68.0,192.0,180.0,0.0,64.0
2666,40.0,48.0,150.0,2.0,64.0
2667,59.0,192.0,180.0,1.0,64.0
2668,62.0,0.0,180.0,1.0,64.0
2669,59.0,0.0,180.0,1.0,64.0
2670,47.0,48.0,150.0,2.0,64.0
2671,62.0,96.0,180.0,1.0,64.0
2672,49.0,48.0,150.0,2.0,64.0
2673,62.0,0.0,180.0,1.0,64.0
2674,59.0,192.0,180.0,1.0,64.0
2675,50.0,288.0,150.0,2.0,64.0
2676,52.0,144.0,780.0,1.0,64.0
2677,64.0,192.0,240.0,0.0,64.0
2678,62.0,48.0,180.0,1.0,64.0
2679,59.0,0.0,180.0,1.0,64.0
2680,74.0,48.0,240.0,0.0,64.0
2681,62.0,48.0,180.0,1.0,64.0
2682,59.0,0.0,180.0,1.0,64.0
2683,59.0,48.0,180.0,1.0,64.0
2684,73.0,60.0,240.0,0.0,64.0
2685,62.0,0.0,180.0,1.0,64.0
2686,52.0,144.0,780.0,1.0,64.0
2687,74.0,180.0,60.0,0.0,64.0
2688,73.0,192.0,180.0,0.0,64.0
2689,71.0,108.0,180.0,0.0,64.0
2690,59.0,0.0,180.0,1.0,64.0
2691,62.0,0.0,180.0,1.0,64.0
2692,62.0,48.0,180.0,1.0,64.0
2693,59.0,0.0,180.0,1.0,64.0
2694,73.0,132.0,60.0,0.0,64.0
2695,71.0,48.0,180.0,0.0,64.0
2696,69.0,0.0,180.0,0.0,64.0
2697,62.0,0.0,180.0,1.0,64.0
2698,59.0,96.0,180.0,1.0,64.0
2699,71.0,192.0,40.0,0.0,64.0
2700,52.0,96.0,780.0,1.0,64.0
2701,69.0,144.0,180.0,0.0,64.0
2702,68.0,48.0,150.0,0.0,64.0
2703,59.0,192.0,180.0,1.0,64.0
2704,62.0,0.0,180.0,1.0,64.0
2705,59.0,96.0,180.0,1.0,64.0
2706,66.0,48.0,150.0,0.0,64.0
2707,62.0,0.0,180.0,1.0,64.0
2708,62.0,192.0,180.0,1.0,64.0
2709,59.0,0.0,180.0,1.0,64.0
2710,68.0,48.0,150.0,0.0,64.0
2711,69.0,240.0,150.0,0.0,64.0
2712,52.0,96.0,780.0,1.0,64.0
2713,57.0,0.0,180.0,1.0,64.0
2714,61.0,192.0,180.0,1.0,64.0
2715,40.0,48.0,150.0,2.0,64.0
2716,45.0,48.0,150.0,2.0,64.0
2717,57.0,0.0,180.0,1.0,64.0
2718,61.0,96.0,180.0,1.0,64.0
2719,47.0,48.0,150.0,2.0,64.0
2720,61.0,0.0,180.0,1.0,64.0
2721,57.0,192.0,180.0,1.0,64.0
2722,49.0,240.0,150.0,2.0,64.0
2723,52.0,96.0,780.0,1.0,64.0
2724,57.0,192.0,180.0,1.0,64.0
2725,61.0,0.0,180.0,1.0,64.0
2726,64.0,48.0,150.0,0.0,64.0
2727,69.0,48.0,150.0,0.0,64.0
2728,57.0,0.0,180.0,1.0,64.0
2729,61.0,96.0,180.0,1.0,64.0
2730,71.0,48.0,150.0,0.0,64.0
2731,57.0,108.0,180.0,1.0,64.0
2732,61.0,0.0,180.0,1.0,64.0
2733,64.0,372.0,60.0,0.0,64.0
2734,52.0,144.0,780.0,1.0,64.0
2735,73.0,48.0,660.0,0.0,64.0
2736,57.0,240.0,180.0,1.0,64.0
2737,61.0,0.0,180.0,1.0,64.0
2738,57.0,0.0,180.0,1.0,64.0
2739,61.0,48.0,180.0,1.0,64.0
2740,57.0,48.0,180.0,1.0,64.0
2741,61.0,0.0,180.0,1.0,64.0
2742,69.0,60.0,240.0,0.0,64.0
2743,64.0,372.0,60.0,0.0,64.0
2744,52.0,144.0,780.0,1.0,64.0
2745,73.0,48.0,660.0,0.0,64.0
2746,57.0,240.0,180.0,1.0,64.0
2747,61.0,0.0,180.0,1.0,64.0
2748,57.0,48.0,180.0,1.0,64.0
2749,61.0,0.0,180.0,1.0,64.0
2750,61.0,0.0,180.0,1.0,64.0
2751,57.0,48.0,180.0,1.0,64.0
2752,69.0,192.0,240.0,0.0,64.0
2753,68.0,192.0,180.0,0.0,64.0
2754,52.0,96.0,780.0,1.0,64.0
2755,62.0,0.0,180.0,1.0,64.0
2756,59.0,192.0,180.0,1.0,64.0
2757,40.0,48.0,150.0,2.0,64.0
2758,59.0,96.0,180.0,1.0,64.0
2759,62.0,0.0,180.0,1.0,64.0
2760,47.0,48.0,150.0,2.0,64.0
2761,49.0,48.0,150.0,2.0,64.0
2762,62.0,0.0,180.0,1.0,64.0
2763,59.0,192.0,180.0,1.0,64.0
2764,52.0,144.0,780.0,1.0,64.0
2765,50.0,288.0,150.0,2.0,64.0
2766,59.0,0.0,180.0,1.0,64.0
2767,64.0,192.0,240.0,0.0,64.0
2768,62.0,48.0,180.0,1.0,64.0
2769,74.0,48.0,240.0,0.0,64.0
2770,62.0,48.0,180.0,1.0,64.0
2771,59.0,0.0,180.0,1.0,64.0
2772,73.0,60.0,240.0,0.0,64.0
2773,59.0,0.0,180.0,1.0,64.0
2774,62.0,48.0,180.0,1.0,64.0
2775,74.0,180.0,60.0,0.0,64.0
2776,52.0,144.0,780.0,1.0,64.0
2777,73.0,192.0,180.0,0.0,64.0
2778,62.0,0.0,180.0,1.0,64.0
2779,59.0,0.0,180.0,1.0,64.0
2780,71.0,108.0,180.0,0.0,64.0
2781,62.0,48.0,180.0,1.0,64.0
2782,59.0,0.0,180.0,1.0,64.0
2783,73.0,132.0,60.0,0.0,64.0
2784,71.0,48.0,180.0,0.0,64.0
2785,62.0,0.0,180.0,1.0,64.0
2786,59.0,96.0,180.0,1.0,64.0
2787,69.0,0.0,180.0,0.0,64.0
2788,71.0,192.0,40.0,0.0,64.0
2789,52.0,96.0,780.0,1.0,64.0
2790,69.0,192.0,180.0,0.0,64.0
2791,62.0,192.0,180.0,1.0,64.0
2792,59.0,0.0,180.0,1.0,64.0
2793,68.0,0.0,180.0,0.0,64.0
2794,59.0,96.0,180.0,1.0,64.0
2795,66.0,48.0,150.0,0.0,64.0
2796,62.0,0.0,180.0,1.0,64.0
2797,68.0,48.0,150.0,0.0,64.0
2798,62.0,240.0,180.0,1.0,64.0
2799,59.0,0.0,180.0,1.0,64.0
2800,69.0,192.0,180.0,0.0,64.0
2801,57.0,48.0,390.0,1.0,64.0
2802,61.0,48.0,180.0,1.0,64.0
2803,45.0,240.0,240.0,2.0,64.0
2804,64.0,0.0,180.0,1.0,64.0
2805,52.0,144.0,240.0,2.0,64.0
2806,55.0,48.0,390.0,1.0,64.0
2807,64.0,0.0,180.0,1.0,64.0
2808,61.0,48.0,180.0,1.0,64.0
2809,43.0,192.0,240.0,2.0,64.0
2810,54.0,144.0,780.0,1.0,64.0
2811,42.0,240.0,180.0,2.0,64.0
2812,66.0,0.0,180.0,0.0,64.0
2813,64.0,0.0,180.0,1.0,64.0
2814,61.0,240.0,180.0,1.0,64.0
2815,76.0,0.0,180.0,0.0,64.0
2816,64.0,96.0,180.0,1.0,64.0
2817,61.0,0.0,180.0,1.0,64.0
2818,64.0,0.0,180.0,1.0,64.0
2819,74.0,0.0,180.0,0.0,64.0
2820,61.0,108.0,180.0,1.0,64.0
2821,54.0,144.0,780.0,1.0,64.0
2822,76.0,180.0,60.0,0.0,64.0
2823,74.0,192.0,180.0,0.0,64.0
2824,73.0,108.0,180.0,0.0,64.0
2825,64.0,0.0,180.0,1.0,64.0
2826,61.0,0.0,180.0,1.0,64.0
2827,61.0,48.0,180.0,1.0,64.0
2828,64.0,0.0,180.0,1.0,64.0
2829,74.0,132.0,60.0,0.0,64.0
2830,73.0,48.0,180.0,0.0,64.0
2831,61.0,108.0,180.0,1.0,64.0
2832,64.0,0.0,180.0,1.0,64.0
2833,71.0,0.0,180.0,0.0,64.0
2834,73.0,180.0,60.0,0.0,64.0
2835,54.0,96.0,780.0,1.0,64.0
2836,71.0,144.0,180.0,0.0,64.0
2837,64.0,0.0,180.0,1.0,64.0
2838,61.0,192.0,180.0,1.0,64.0
2839,70.0,48.0,150.0,0.0,64.0
2840,68.0,48.0,150.0,0.0,64.0
2841,61.0,96.0,180.0,1.0,64.0
2842,64.0,0.0,180.0,1.0,64.0
2843,70.0,48.0,150.0,0.0,64.0
2844,61.0,192.0,180.0,1.0,64.0
2845,64.0,0.0,180.0,1.0,64.0
2846,59.0,48.0,390.0,1.0,64.0
2847,71.0,240.0,150.0,0.0,64.0
2848,62.0,48.0,180.0,1.0,64.0
2849,47.0,240.0,240.0,2.0,64.0
2850,66.0,0.0,180.0,1.0,64.0
2851,57.0,48.0,390.0,1.0,64.0
2852,54.0,144.0,240.0,2.0,64.0
2853,66.0,48.0,180.0,1.0,64.0
2854,61.0,0.0,180.0,1.0,64.0
2855,45.0,192.0,240.0,2.0,64.0
2856,44.0,240.0,180.0,2.0,64.0
2857,56.0,144.0,780.0,1.0,64.0
2858,68.0,0.0,180.0,0.0,64.0
2859,63.0,0.0,180.0,1.0,64.0
2860,66.0,240.0,180.0,1.0,64.0
2861,66.0,96.0,180.0,1.0,64.0
2862,63.0,0.0,180.0,1.0,64.0
2863,78.0,0.0,180.0,0.0,64.0
2864,63.0,108.0,180.0,1.0,64.0
2865,76.0,0.0,180.0,0.0,64.0
2866,66.0,0.0,180.0,1.0,64.0
2867,56.0,144.0,780.0,1.0,64.0
2868,78.0,180.0,60.0,0.0,64.0
2869,76.0,192.0,180.0,0.0,64.0
2870,66.0,0.0,180.0,1.0,64.0
2871,75.0,108.0,180.0,0.0,64.0
2872,63.0,0.0,180.0,1.0,64.0
2873,66.0,0.0,180.0,1.0,64.0
2874,63.0,48.0,180.0,1.0,64.0
2875,76.0,132.0,60.0,0.0,64.0
2876,75.0,48.0,180.0,0.0,64.0
2877,73.0,108.0,180.0,0.0,64.0
2878,63.0,0.0,180.0,1.0,64.0
2879,66.0,0.0,180.0,1.0,64.0
2880,56.0,144.0,780.0,1.0,64.0
2881,75.0,180.0,60.0,0.0,64.0
2882,73.0,192.0,180.0,0.0,64.0
2883,63.0,0.0,180.0,1.0,64.0
2884,66.0,240.0,180.0,1.0,64.0
2885,72.0,0.0,180.0,0.0,64.0
2886,66.0,48.0,180.0,1.0,64.0
2887,70.0,48.0,240.0,0.0,64.0
2888,63.0,0.0,180.0,1.0,64.0
2889,66.0,0.0,180.0,1.0,64.0
2890,72.0,0.0,180.0,0.0,64.0
2891,63.0,108.0,180.0,1.0,64.0
2892,61.0,144.0,780.0,1.0,64.0
2893,76.0,180.0,60.0,0.0,64.0
2894,75.0,192.0,180.0,0.0,64.0
2895,73.0,108.0,180.0,0.0,64.0
2896,68.0,0.0,180.0,1.0,64.0
2897,64.0,0.0,180.0,1.0,64.0
2898,68.0,0.0,180.0,1.0,64.0
2899,64.0,48.0,180.0,1.0,64.0
2900,75.0,132.0,60.0,0.0,64.0
2901,73.0,48.0,180.0,0.0,64.0
2902,68.0,108.0,180.0,1.0,64.0
2903,71.0,0.0,180.0,0.0,64.0
2904,64.0,0.0,180.0,1.0,64.0
2905,73.0,180.0,60.0,0.0,64.0
2906,54.0,192.0,480.0,1.0,64.0
2907,71.0,192.0,180.0,0.0,64.0
2908,64.0,0.0,180.0,1.0,64.0
2909,70.0,48.0,180.0,0.0,64.0
2910,61.0,0.0,180.0,1.0,64.0
2911,64.0,48.0,180.0,1.0,64.0
2912,61.0,0.0,180.0,1.0,64.0
2913,68.0,192.0,240.0,0.0,64.0
2914,55.0,60.0,480.0,1.0,64.0
2915,70.0,0.0,180.0,0.0,64.0
2916,61.0,0.0,180.0,1.0,64.0
2917,64.0,48.0,180.0,1.0,64.0
2918,56.0,144.0,780.0,1.0,64.0
2919,75.0,180.0,60.0,0.0,64.0
2920,73.0,192.0,180.0,0.0,64.0
2921,59.0,0.0,180.0,1.0,64.0
2922,71.0,108.0,180.0,0.0,64.0
2923,63.0,0.0,180.0,1.0,64.0
2924,73.0,132.0,60.0,0.0,64.0
2925,59.0,48.0,180.0,1.0,64.0
2926,63.0,0.0,180.0,1.0,64.0
2927,71.0,48.0,180.0,0.0,64.0
2928,70.0,108.0,180.0,0.0,64.0
2929,63.0,0.0,180.0,1.0,64.0
2930,59.0,0.0,180.0,1.0,64.0
2931,71.0,180.0,60.0,0.0,64.0
2932,52.0,144.0,780.0,1.0,64.0
2933,70.0,192.0,180.0,0.0,64.0
2934,68.0,108.0,180.0,0.0,64.0
2935,61.0,0.0,180.0,1.0,64.0
2936,59.0,0.0,180.0,1.0,64.0
2937,59.0,48.0,180.0,1.0,64.0
2938,61.0,0.0,180.0,1.0,64.0
2939,70.0,132.0,60.0,0.0,64.0
2940,68.0,48.0,180.0,0.0,64.0
2941,61.0,108.0,180.0,1.0,64.0
2942,59.0,0.0,180.0,1.0,64.0
2943,67.0,0.0,180.0,0.0,64.0
2944,54.0,96.0,780.0,1.0,64.0
2945,70.0,180.0,60.0,0.0,64.0
2946,68.0,144.0,180.0,0.0,64.0
2947,59.0,192.0,180.0,1.0,64.0
2948,63.0,0.0,180.0,1.0,64.0
2949,66.0,48.0,150.0,0.0,64.0
2950,66.0,48.0,150.0,0.0,64.0
2951,59.0,0.0,180.0,1.0,64.0
2952,63.0,96.0,180.0,1.0,64.0
2953,66.0,48.0,150.0,0.0,64.0
2954,59.0,108.0,180.0,1.0,64.0
2955,63.0,0.0,180.0,1.0,64.0
2956,70.0,180.0,60.0,0.0,64.0
2957,54.0,96.0,780.0,1.0,64.0
2958,68.0,144.0,180.0,0.0,64.0
2959,61.0,0.0,180.0,1.0,64.0
2960,66.0,48.0,150.0,0.0,64.0
2961,58.0,192.0,180.0,1.0,64.0
2962,66.0,48.0,150.0,0.0,64.0
2963,61.0,96.0,180.0,1.0,64.0
2964,58.0,0.0,180.0,1.0,64.0
2965,58.0,0.0,180.0,1.0,64.0
2966,66.0,48.0,150.0,0.0,64.0
2967,61.0,264.0,180.0,1.0,64.0
2968,47.0,0.0,1350.0,2.0,64.0
2969,54.0,0.0,90.0,1.0,64.0
2970,59.0,120.0,90.0,1.0,64.0
2971,63.0,0.0,90.0,1.0,64.0
2972,51.0,120.0,90.0,1.0,64.0
2973,59.0,120.0,90.0,1.0,64.0
2974,54.0,0.0,90.0,1.0,64.0
2975,71.0,72.0,870.0,0.0,64.0
2976,51.0,120.0,90.0,1.0,64.0
2977,59.0,0.0,90.0,1.0,64.0
2978,54.0,120.0,90.0,1.0,64.0
2979,63.0,0.0,90.0,1.0,64.0
2980,51.0,120.0,90.0,1.0,64.0
2981,54.0,120.0,90.0,1.0,64.0
2982,59.0,0.0,90.0,1.0,64.0
2983,51.0,120.0,90.0,1.0,64.0
2984,63.0,0.0,90.0,1.0,64.0
2985,54.0,120.0,90.0,1.0,64.0
2986,59.0,0.0,90.0,1.0,64.0
2987,51.0,0.0,90.0,1.0,64.0
2988,63.0,48.0,90.0,1.0,64.0
2989,59.0,0.0,90.0,1.0,64.0
2990,54.0,240.0,90.0,1.0,64.0
2991,47.0,0.0,390.0,2.0,64.0
2992,71.0,72.0,390.0,0.0,64.0
2993,54.0,0.0,90.0,1.0,64.0
2994,59.0,120.0,90.0,1.0,64.0
2995,51.0,0.0,90.0,1.0,64.0
2996,63.0,48.0,90.0,1.0,64.0
2997,59.0,240.0,90.0,1.0,64.0
2998,54.0,0.0,90.0,1.0,64.0
2999,45.0,0.0,1350.0,2.0,64.0
3000,59.0,120.0,90.0,1.0,64.0
3001,54.0,0.0,90.0,1.0,64.0
3002,51.0,0.0,90.0,1.0,64.0
3003,63.0,120.0,90.0,1.0,64.0
3004,59.0,120.0,90.0,1.0,64.0
3005,54.0,0.0,90.0,1.0,64.0
3006,71.0,72.0,870.0,0.0,64.0
3007,51.0,120.0,90.0,1.0,64.0
3008,59.0,120.0,90.0,1.0,64.0
3009,54.0,0.0,90.0,1.0,64.0
3010,63.0,0.0,90.0,1.0,64.0
3011,51.0,120.0,90.0,1.0,64.0
3012,59.0,0.0,90.0,1.0,64.0
3013,54.0,120.0,90.0,1.0,64.0
3014,51.0,120.0,90.0,1.0,64.0
3015,63.0,0.0,90.0,1.0,64.0
3016,59.0,120.0,90.0,1.0,64.0
3017,54.0,0.0,90.0,1.0,64.0
3018,51.0,48.0,90.0,1.0,64.0
3019,63.0,0.0,90.0,1.0,64.0
3020,54.0,240.0,90.0,1.0,64.0
3021,59.0,0.0,90.0,1.0,64.0
3022,45.0,72.0,390.0,2.0,64.0
3023,71.0,0.0,390.0,0.0,64.0
3024,54.0,0.0,90.0,1.0,64.0
3025,59.0,120.0,90.0,1.0,64.0
3026,63.0,48.0,90.0,1.0,64.0
3027,51.0,0.0,90.0,1.0,64.0
3028,59.0,96.0,90.0,1.0,64.0
3029,54.0,0.0,90.0,1.0,64.0
3030,71.0,144.0,60.0,0.0,64.0
3031,44.0,0.0,60.0,2.0,64.0
3032,52.0,120.0,90.0,2.0,64.0
3033,59.0,0.0,90.0,0.0,64.0
3034,47.0,0.0,90.0,2.0,64.0
3035,64.0,120.0,90.0,0.0,64.0
3036,52.0,96.0,90.0,2.0,64.0
3037,59.0,0.0,90.0,0.0,64.0
3038,42.0,0.0,60.0,2.0,64.0
3039,72.0,144.0,60.0,0.0,64.0
3040,51.0,120.0,90.0,2.0,64.0
3041,60.0,0.0,90.0,0.0,64.0
3042,44.0,0.0,90.0,2.0,64.0
3043,68.0,120.0,90.0,0.0,64.0
3044,51.0,0.0,90.0,2.0,64.0
3045,60.0,96.0,90.0,0.0,64.0
3046,40.0,0.0,60.0,2.0,64.0
3047,73.0,144.0,60.0,0.0,64.0
3048,61.0,0.0,90.0,0.0,64.0
3049,52.0,120.0,90.0,2.0,64.0
3050,68.0,0.0,90.0,0.0,64.0
3051,44.0,120.0,90.0,2.0,64.0
3052,61.0,96.0,90.0,0.0,64.0
3053,52.0,0.0,90.0,2.0,64.0
3054,75.0,144.0,60.0,0.0,64.0
3055,39.0,0.0,60.0,2.0,64.0
3056,63.0,120.0,90.0,0.0,64.0
3057,51.0,0.0,90.0,2.0,64.0
3058,68.0,0.0,90.0,0.0,64.0
3059,44.0,120.0,90.0,2.0,64.0
3060,51.0,96.0,90.0,2.0,64.0
3061,63.0,0.0,90.0,0.0,64.0
3062,76.0,144.0,60.0,0.0,64.0
3063,37.0,0.0,60.0,2.0,64.0
3064,64.0,0.0,90.0,0.0,64.0
3065,49.0,120.0,90.0,2.0,64.0
3066,44.0,120.0,90.0,2.0,64.0
3067,68.0,0.0,90.0,0.0,64.0
3068,49.0,0.0,90.0,2.0,64.0
3069,64.0,96.0,90.0,0.0,64.0
3070,77.0,0.0,60.0,0.0,64.0
3071,35.0,144.0,60.0,2.0,64.0
3072,47.0,120.0,90.0,2.0,64.0
3073,65.0,0.0,90.0,0.0,64.0
3074,68.0,0.0,90.0,0.0,64.0
3075,37.0,120.0,90.0,2.0,64.0
3076,65.0,96.0,90.0,0.0,64.0
3077,47.0,0.0,90.0,2.0,64.0
3078,78.0,0.0,60.0,0.0,64.0
3079,34.0,144.0,60.0,2.0,64.0
3080,66.0,0.0,90.0,0.0,64.0
3081,46.0,120.0,90.0,2.0,64.0
3082,37.0,0.0,90.0,2.0,64.0
3083,73.0,120.0,90.0,0.0,64.0
3084,46.0,0.0,90.0,2.0,64.0
3085,66.0,96.0,90.0,0.0,64.0
3086,32.0,144.0,60.0,2.0,64.0
3087,80.0,0.0,60.0,0.0,64.0
3088,68.0,0.0,90.0,0.0,64.0
3089,44.0,120.0,90.0,2.0,64.0
3090,73.0,120.0,90.0,0.0,64.0
3091,37.0,0.0,90.0,2.0,64.0
3092,44.0,0.0,90.0,2.0,64.0
3093,68.0,96.0,90.0,0.0,64.0
3094,81.0,0.0,60.0,0.0,64.0
3095,30.0,144.0,60.0,2.0,64.0
3096,42.0,0.0,90.0,2.0,64.0
3097,69.0,120.0,90.0,0.0,64.0
3098,37.0,0.0,90.0,2.0,64.0
3099,73.0,120.0,90.0,0.0,64.0
3100,42.0,96.0,90.0,2.0,64.0
3101,69.0,0.0,90.0,0.0,64.0
3102,82.0,0.0,60.0,0.0,64.0
3103,28.0,144.0,60.0,2.0,64.0
3104,40.0,0.0,90.0,2.0,64.0
3105,70.0,120.0,90.0,0.0,64.0
3106,37.0,0.0,90.0,2.0,64.0
3107,73.0,120.0,90.0,0.0,64.0
3108,40.0,0.0,90.0,2.0,64.0
3109,70.0,96.0,90.0,0.0,64.0
3110,83.0,144.0,60.0,0.0,64.0
3111,27.0,0.0,60.0,2.0,64.0
3112,39.0,0.0,90.0,2.0,64.0
3113,71.0,120.0,90.0,0.0,64.0
3114,78.0,120.0,90.0,0.0,64.0
3115,35.0,0.0,90.0,2.0,64.0
3116,39.0,0.0,90.0,2.0,64.0
3117,71.0,96.0,90.0,0.0,64.0
3118,27.0,0.0,60.0,2.0,64.0
3119,79.0,144.0,60.0,0.0,64.0
3120,39.0,0.0,90.0,2.0,64.0
3121,67.0,120.0,90.0,0.0,64.0
3122,35.0,120.0,90.0,2.0,64.0
3123,71.0,0.0,90.0,0.0,64.0
3124,39.0,168.0,90.0,2.0,64.0
3125,67.0,0.0,90.0,0.0,64.0
3126,28.0,72.0,150.0,2.0,64.0
3127,40.0,0.0,150.0,2.0,64.0
3128,68.0,120.0,90.0,0.0,64.0
3129,71.0,120.0,90.0,0.0,64.0
3130,68.0,96.0,90.0,0.0,64.0
3131,80.0,144.0,60.0,0.0,64.0
3132,68.0,120.0,90.0,0.0,64.0
3133,71.0,120.0,90.0,0.0,64.0
3134,68.0,168.0,90.0,0.0,64.0
3135,42.0,0.0,150.0,2.0,64.0
3136,30.0,72.0,150.0,2.0,64.0
3137,61.0,120.0,90.0,0.0,64.0
3138,64.0,120.0,90.0,0.0,64.0
3139,61.0,96.0,90.0,0.0,64.0
3140,70.0,144.0,60.0,0.0,64.0
3141,61.0,120.0,90.0,0.0,64.0
3142,64.0,120.0,90.0,0.0,64.0
3143,61.0,240.0,90.0,0.0,64.0
3144,47.0,0.0,1350.0,2.0,64.0
3145,59.0,120.0,90.0,1.0,64.0
3146,54.0,0.0,90.0,1.0,64.0
3147,51.0,120.0,90.0,1.0,64.0
3148,63.0,0.0,90.0,1.0,64.0
3149,54.0,120.0,90.0,1.0,64.0
3150,59.0,0.0,90.0,1.0,64.0
3151,71.0,72.0,870.0,0.0,64.0
3152,51.0,120.0,90.0,1.0,64.0
3153,54.0,120.0,90.0,1.0,64.0
3154,59.0,0.0,90.0,1.0,64.0
3155,51.0,120.0,90.0,1.0,64.0
3156,63.0,0.0,90.0,1.0,64.0
3157,54.0,120.0,90.0,1.0,64.0
3158,59.0,0.0,90.0,1.0,64.0
3159,51.0,120.0,90.0,1.0,64.0
3160,63.0,0.0,90.0,1.0,64.0
3161,59.0,0.0,90.0,1.0,64.0
3162,54.0,120.0,90.0,1.0,64.0
3163,63.0,48.0,90.0,1.0,64.0
3164,51.0,0.0,90.0,1.0,64.0
3165,59.0,240.0,90.0,1.0,64.0
3166,54.0,0.0,90.0,1.0,64.0
3167,71.0,72.0,390.0,0.0,64.0
3168,47.0,0.0,390.0,2.0,64.0
3169,59.0,120.0,90.0,1.0,64.0
3170,54.0,0.0,90.0,1.0,64.0
3171,63.0,48.0,90.0,1.0,64.0
3172,51.0,0.0,90.0,1.0,64.0
3173,59.0,0.0,90.0,1.0,64.0
3174,54.0,240.0,90.0,1.0,64.0
3175,45.0,0.0,1350.0,2.0,64.0
3176,54.0,120.0,90.0,1.0,64.0
3177,59.0,0.0,90.0,1.0,64.0
3178,51.0,0.0,90.0,1.0,64.0
3179,63.0,120.0,90.0,1.0,64.0
3180,59.0,120.0,90.0,1.0,64.0
3181,54.0,0.0,90.0,1.0,64.0
3182,51.0,120.0,90.0,1.0,64.0
3183,71.0,72.0,870.0,0.0,64.0
3184,54.0,120.0,90.0,1.0,64.0
3185,59.0,0.0,90.0,1.0,64.0
3186,51.0,120.0,90.0,1.0,64.0
3187,63.0,0.0,90.0,1.0,64.0
3188,59.0,120.0,90.0,1.0,64.0
3189,54.0,0.0,90.0,1.0,64.0
3190,51.0,120.0,90.0,1.0,64.0
3191,63.0,0.0,90.0,1.0,64.0
3192,54.0,120.0,90.0,1.0,64.0
3193,59.0,0.0,90.0,1.0,64.0
3194,63.0,48.0,90.0,1.0,64.0
3195,51.0,0.0,90.0,1.0,64.0
3196,59.0,0.0,90.0,1.0,64.0
3197,54.0,240.0,90.0,1.0,64.0
3198,71.0,72.0,390.0,0.0,64.0
3199,45.0,0.0,390.0,2.0,64.0
3200,54.0,120.0,90.0,1.0,64.0
3201,59.0,0.0,90.0,1.0,64.0
3202,51.0,0.0,90.0,1.0,64.0
3203,63.0,48.0,90.0,1.0,64.0
3204,59.0,96.0,90.0,1.0,64.0
3205,54.0,0.0,90.0,1.0,64.0
3206,44.0,144.0,60.0,2.0,64.0
3207,71.0,0.0,60.0,0.0,64.0
3208,59.0,120.0,90.0,0.0,64.0
3209,52.0,0.0,90.0,2.0,64.0
3210,47.0,0.0,90.0,2.0,64.0
3211,64.0,120.0,90.0,0.0,64.0
3212,52.0,0.0,90.0,2.0,64.0
3213,59.0,96.0,90.0,0.0,64.0
3214,42.0,0.0,60.0,2.0,64.0
3215,72.0,144.0,60.0,0.0,64.0
3216,60.0,0.0,90.0,0.0,64.0
3217,51.0,120.0,90.0,2.0,64.0
3218,68.0,0.0,90.0,0.0,64.0
3219,44.0,120.0,90.0,2.0,64.0
3220,60.0,96.0,90.0,0.0,64.0
3221,51.0,0.0,90.0,2.0,64.0
3222,73.0,0.0,60.0,0.0,64.0
3223,40.0,144.0,60.0,2.0,64.0
3224,52.0,0.0,90.0,2.0,64.0
3225,61.0,120.0,90.0,0.0,64.0
3226,68.0,0.0,90.0,0.0,64.0
3227,44.0,120.0,90.0,2.0,64.0
3228,52.0,96.0,90.0,2.0,64.0
3229,61.0,0.0,90.0,0.0,64.0
3230,75.0,144.0,60.0,0.0,64.0
3231,39.0,0.0,60.0,2.0,64.0
3232,63.0,0.0,90.0,0.0,64.0
3233,51.0,120.0,90.0,2.0,64.0
3234,68.0,120.0,90.0,0.0,64.0
3235,44.0,0.0,90.0,2.0,64.0
3236,51.0,0.0,90.0,2.0,64.0
3237,63.0,96.0,90.0,0.0,64.0
3238,76.0,0.0,60.0,0.0,64.0
3239,37.0,144.0,60.0,2.0,64.0
3240,64.0,120.0,90.0,0.0,64.0
3241,49.0,0.0,90.0,2.0,64.0
3242,44.0,120.0,90.0,2.0,64.0
3243,68.0,0.0,90.0,0.0,64.0
3244,49.0,0.0,90.0,2.0,64.0
3245,64.0,96.0,90.0,0.0,64.0
3246,35.0,0.0,60.0,2.0,64.0
3247,77.0,144.0,60.0,0.0,64.0
3248,47.0,0.0,90.0,2.0,64.0
3249,65.0,120.0,90.0,0.0,64.0
3250,37.0,120.0,90.0,2.0,64.0
3251,68.0,0.0,90.0,0.0,64.0
3252,65.0,0.0,90.0,0.0,64.0
3253,47.0,96.0,90.0,2.0,64.0
3254,34.0,0.0,60.0,2.0,64.0
3255,78.0,144.0,60.0,0.0,64.0
3256,46.0,0.0,90.0,2.0,64.0
3257,66.0,120.0,90.0,0.0,64.0
3258,37.0,120.0,90.0,2.0,64.0
3259,73.0,0.0,90.0,0.0,64.0
3260,66.0,0.0,90.0,0.0,64.0
3261,46.0,96.0,90.0,2.0,64.0
3262,80.0,144.0,60.0,0.0,64.0
3263,32.0,0.0,60.0,2.0,64.0
3264,68.0,120.0,90.0,0.0,64.0
3265,44.0,0.0,90.0,2.0,64.0
3266,37.0,0.0,90.0,2.0,64.0
3267,73.0,120.0,90.0,0.0,64.0
3268,44.0,0.0,90.0,2.0,64.0
3269,68.0,96.0,90.0,0.0,64.0
3270,30.0,0.0,60.0,2.0,64.0
3271,81.0,144.0,60.0,0.0,64.0
3272,42.0,120.0,90.0,2.0,64.0
3273,69.0,0.0,90.0,0.0,64.0
3274,73.0,0.0,90.0,0.0,64.0
3275,37.0,120.0,90.0,2.0,64.0
3276,69.0,0.0,90.0,0.0,64.0
3277,42.0,96.0,90.0,2.0,64.0
3278,28.0,0.0,60.0,2.0,64.0
3279,82.0,144.0,60.0,0.0,64.0
3280,40.0,120.0,90.0,2.0,64.0
3281,70.0,0.0,90.0,0.0,64.0
3282,73.0,0.0,90.0,0.0,64.0
3283,37.0,120.0,90.0,2.0,64.0
3284,40.0,0.0,90.0,2.0,64.0
3285,70.0,96.0,90.0,0.0,64.0
3286,27.0,0.0,60.0,2.0,64.0
3287,83.0,144.0,60.0,0.0,64.0
3288,39.0,120.0,90.0,2.0,64.0
3289,71.0,0.0,90.0,0.0,64.0
3290,35.0,0.0,90.0,2.0,64.0
3291,78.0,120.0,90.0,0.0,64.0
3292,39.0,0.0,90.0,2.0,64.0
3293,71.0,96.0,90.0,0.0,64.0
3294,27.0,0.0,60.0,2.0,64.0
3295,84.0,144.0,60.0,0.0,64.0
3296,39.0,120.0,90.0,2.0,64.0
3297,72.0,0.0,90.0,0.0,64.0
3298,78.0,0.0,90.0,0.0,64.0
3299,27.0,120.0,90.0,2.0,64.0
3300,72.0,0.0,90.0,0.0,64.0
3301,39.0,168.0,90.0,2.0,64.0
3302,40.0,72.0,150.0,2.0,64.0
3303,28.0,0.0,150.0,2.0,64.0
3304,76.0,120.0,90.0,0.0,64.0
3305,80.0,120.0,90.0,0.0,64.0
3306,76.0,96.0,90.0,0.0,64.0
3307,85.0,144.0,60.0,0.0,64.0
3308,76.0,120.0,90.0,0.0,64.0
3309,80.0,120.0,90.0,0.0,64.0
3310,76.0,168.0,90.0,0.0,64.0
3311,42.0,72.0,150.0,2.0,64.0
3312,30.0,0.0,150.0,2.0,64.0
3313,73.0,120.0,90.0,0.0,64.0
3314,76.0,120.0,90.0,0.0,64.0
3315,73.0,96.0,90.0,0.0,64.0
3316,82.0,144.0,60.0,0.0,64.0
3317,73.0,120.0,90.0,0.0,64.0
3318,76.0,120.0,90.0,0.0,64.0
3319,73.0,168.0,90.0,0.0,64.0
3320,71.0,48.0,150.0,0.0,64.0
3321,35.0,0.0,180.0,2.0,64.0
3322,47.0,240.0,180.0,2.0,64.0
3323,63.0,0.0,180.0,1.0,64.0
3324,59.0,240.0,180.0,1.0,64.0
3325,83.0,120.0,480.0,0.0,64.0
3326,63.0,0.0,180.0,1.0,64.0
3327,59.0,48.0,180.0,1.0,64.0
3328,82.0,72.0,120.0,0.0,64.0
3329,63.0,48.0,180.0,1.0,64.0
3330,59.0,0.0,180.0,1.0,64.0
3331,83.0,120.0,120.0,0.0,64.0
3332,56.0,72.0,780.0,1.0,64.0
3333,85.0,120.0,120.0,0.0,64.0
3334,83.0,120.0,120.0,0.0,64.0
3335,82.0,72.0,120.0,0.0,64.0
3336,59.0,0.0,180.0,1.0,64.0
3337,63.0,48.0,180.0,1.0,64.0
3338,80.0,120.0,120.0,0.0,64.0
3339,63.0,0.0,180.0,1.0,64.0
3340,79.0,72.0,120.0,0.0,64.0
3341,59.0,48.0,180.0,1.0,64.0
3342,80.0,48.0,120.0,0.0,64.0
3343,59.0,48.0,180.0,1.0,64.0
3344,63.0,0.0,180.0,1.0,64.0
3345,82.0,72.0,120.0,0.0,64.0
3346,80.0,120.0,120.0,0.0,64.0
3347,52.0,72.0,780.0,1.0,64.0
3348,78.0,120.0,120.0,0.0,64.0
3349,76.0,120.0,120.0,0.0,64.0
3350,75.0,72.0,120.0,0.0,64.0
3351,61.0,48.0,180.0,1.0,64.0
3352,59.0,0.0,180.0,1.0,64.0
3353,73.0,120.0,120.0,0.0,64.0
3354,61.0,0.0,180.0,1.0,64.0
3355,72.0,72.0,120.0,0.0,64.0
3356,59.0,48.0,180.0,1.0,64.0
3357,73.0,48.0,120.0,0.0,64.0
3358,61.0,48.0,180.0,1.0,64.0
3359,59.0,0.0,180.0,1.0,64.0
3360,75.0,72.0,120.0,0.0,64.0
3361,73.0,120.0,120.0,0.0,64.0
3362,71.0,120.0,120.0,0.0,64.0
3363,54.0,72.0,780.0,1.0,64.0
3364,70.0,120.0,120.0,0.0,64.0
3365,61.0,0.0,180.0,1.0,64.0
3366,58.0,48.0,180.0,1.0,64.0
3367,68.0,72.0,120.0,0.0,64.0
3368,66.0,120.0,120.0,0.0,64.0
3369,65.0,72.0,120.0,0.0,64.0
3370,58.0,0.0,180.0,1.0,64.0
3371,61.0,48.0,180.0,1.0,64.0
3372,66.0,48.0,120.0,0.0,64.0
3373,68.0,72.0,120.0,0.0,64.0
3374,58.0,48.0,180.0,1.0,64.0
3375,61.0,0.0,180.0,1.0,64.0
3376,64.0,144.0,120.0,0.0,64.0
3377,47.0,72.0,780.0,2.0,64.0
3378,63.0,288.0,150.0,0.0,64.0
3379,71.0,0.0,480.0,0.0,64.0
3380,59.0,0.0,180.0,1.0,64.0
3381,51.0,240.0,180.0,1.0,64.0
3382,83.0,48.0,480.0,0.0,64.0
3383,51.0,48.0,180.0,1.0,64.0
3384,59.0,0.0,180.0,1.0,64.0
3385,59.0,48.0,180.0,1.0,64.0
3386,51.0,0.0,180.0,1.0,64.0
3387,82.0,72.0,120.0,0.0,64.0
3388,83.0,120.0,120.0,0.0,64.0
3389,85.0,120.0,120.0,0.0,64.0
3390,44.0,72.0,780.0,2.0,64.0
3391,83.0,120.0,120.0,0.0,64.0
3392,51.0,48.0,180.0,1.0,64.0
3393,56.0,0.0,180.0,1.0,64.0
3394,47.0,0.0,180.0,1.0,64.0
3395,82.0,72.0,120.0,0.0,64.0
3396,80.0,120.0,120.0,0.0,64.0
3397,47.0,48.0,180.0,1.0,64.0
3398,56.0,0.0,180.0,1.0,64.0
3399,51.0,0.0,180.0,1.0,64.0
3400,79.0,72.0,120.0,0.0,64.0
3401,80.0,48.0,120.0,0.0,64.0
3402,51.0,48.0,180.0,1.0,64.0
3403,47.0,0.0,180.0,1.0,64.0
3404,56.0,0.0,180.0,1.0,64.0
3405,82.0,72.0,120.0,0.0,64.0
3406,80.0,120.0,120.0,0.0,64.0
3407,78.0,120.0,120.0,0.0,64.0
3408,40.0,72.0,780.0,2.0,64.0
3409,76.0,120.0,120.0,0.0,64.0
3410,49.0,0.0,180.0,1.0,64.0
3411,52.0,48.0,180.0,1.0,64.0
3412,47.0,0.0,180.0,1.0,64.0
3413,75.0,72.0,120.0,0.0,64.0
3414,73.0,120.0,120.0,0.0,64.0
3415,72.0,72.0,120.0,0.0,64.0
3416,49.0,0.0,180.0,1.0,64.0
3417,52.0,0.0,180.0,1.0,64.0
3418,47.0,48.0,180.0,1.0,64.0
3419,73.0,48.0,120.0,0.0,64.0
3420,75.0,72.0,120.0,0.0,64.0
3421,52.0,0.0,180.0,1.0,64.0
3422,47.0,48.0,180.0,1.0,64.0
3423,49.0,0.0,180.0,1.0,64.0
3424,73.0,120.0,120.0,0.0,64.0
3425,42.0,72.0,780.0,2.0,64.0
3426,71.0,120.0,120.0,0.0,64.0
3427,70.0,120.0,120.0,0.0,64.0
3428,54.0,0.0,180.0,1.0,64.0
3429,68.0,72.0,120.0,0.0,64.0
3430,49.0,0.0,180.0,1.0,64.0
3431,46.0,48.0,180.0,1.0,64.0
3432,66.0,120.0,120.0,0.0,64.0
3433,49.0,48.0,180.0,1.0,64.0
3434,54.0,0.0,180.0,1.0,64.0
3435,46.0,0.0,180.0,1.0,64.0
3436,65.0,72.0,120.0,0.0,64.0
3437,66.0,48.0,120.0,0.0,64.0
3438,68.0,72.0,120.0,0.0,64.0
3439,49.0,0.0,180.0,1.0,64.0
3440,46.0,48.0,180.0,1.0,64.0
3441,54.0,0.0,180.0,1.0,64.0
3442,66.0,96.0,120.0,0.0,64.0
3443,71.0,72.0,150.0,0.0,64.0
3444,35.0,48.0,90.0,2.0,64.0
3445,47.0,120.0,90.0,2.0,64.0
3446,59.0,72.0,390.0,0.0,64.0
3447,35.0,120.0,90.0,2.0,64.0
3448,47.0,120.0,90.0,2.0,64.0
3449,35.0,48.0,90.0,2.0,64.0
3450,47.0,120.0,90.0,2.0,64.0
3451,57.0,72.0,150.0,0.0,64.0
3452,63.0,0.0,150.0,0.0,64.0
3453,35.0,48.0,90.0,2.0,64.0
3454,47.0,120.0,90.0,2.0,64.0
3455,56.0,72.0,150.0,0.0,64.0
3456,64.0,0.0,150.0,0.0,64.0
3457,35.0,48.0,90.0,2.0,64.0
3458,47.0,120.0,90.0,2.0,64.0
3459,66.0,72.0,150.0,0.0,64.0
3460,63.0,0.0,150.0,0.0,64.0
3461,35.0,48.0,90.0,2.0,64.0
3462,47.0,120.0,90.0,2.0,64.0
3463,64.0,72.0,150.0,0.0,64.0
3464,68.0,0.0,150.0,0.0,64.0
3465,35.0,48.0,90.0,2.0,64.0
3466,47.0,120.0,90.0,2.0,64.0
3467,35.0,48.0,90.0,2.0,64.0
3468,64.0,0.0,150.0,0.0,64.0
3469,70.0,72.0,150.0,0.0,64.0
3470,47.0,120.0,90.0,2.0,64.0
3471,35.0,48.0,90.0,2.0,64.0
3472,71.0,72.0,150.0,0.0,64.0
3473,63.0,0.0,150.0,0.0,64.0
3474,47.0,120.0,90.0,2.0,64.0
3475,35.0,120.0,90.0,2.0,64.0
3476,71.0,72.0,390.0,0.0,64.0
3477,47.0,120.0,90.0,2.0,64.0
3478,35.0,48.0,90.0,2.0,64.0
3479,47.0,120.0,90.0,2.0,64.0
3480,35.0,48.0,90.0,2.0,64.0
3481,75.0,0.0,150.0,0.0,64.0
3482,69.0,72.0,150.0,0.0,64.0
3483,47.0,120.0,90.0,2.0,64.0
3484,76.0,72.0,150.0,0.0,64.0
3485,68.0,0.0,150.0,0.0,64.0
3486,35.0,48.0,90.0,2.0,64.0
3487,47.0,120.0,90.0,2.0,64.0
3488,78.0,0.0,150.0,0.0,64.0
3489,35.0,48.0,90.0,2.0,64.0
3490,75.0,72.0,150.0,0.0,64.0
3491,47.0,120.0,90.0,2.0,64.0
3492,80.0,0.0,150.0,0.0,64.0
3493,35.0,48.0,90.0,2.0,64.0
3494,76.0,72.0,150.0,0.0,64.0
3495,47.0,120.0,90.0,2.0,64.0
3496,76.0,72.0,150.0,0.0,64.0
3497,82.0,0.0,150.0,0.0,64.0
3498,35.0,48.0,90.0,2.0,64.0
3499,47.0,120.0,90.0,2.0,64.0
3500,35.0,120.0,90.0,2.0,64.0
3501,83.0,0.0,780.0,0.0,64.0
3502,75.0,48.0,780.0,0.0,64.0
3503,47.0,120.0,90.0,2.0,64.0
3504,35.0,120.0,90.0,2.0,64.0
3505,47.0,120.0,90.0,2.0,64.0
3506,35.0,120.0,90.0,2.0,64.0
3507,47.0,72.0,90.0,2.0,64.0
3508,35.0,120.0,90.0,2.0,64.0
3509,47.0,120.0,90.0,2.0,64.0
3510,71.0,48.0,780.0,0.0,64.0
3511,35.0,120.0,90.0,2.0,64.0
3512,63.0,0.0,780.0,0.0,64.0
3513,47.0,120.0,90.0,2.0,64.0
3514,35.0,120.0,90.0,2.0,64.0
3515,47.0,120.0,90.0,2.0,64.0
3516,35.0,120.0,90.0,2.0,64.0
3517,47.0,72.0,90.0,2.0,64.0
3518,35.0,120.0,90.0,2.0,64.0
3519,47.0,120.0,90.0,2.0,64.0
3520,83.0,0.0,780.0,0.0,64.0
3521,75.0,48.0,780.0,0.0,64.0
3522,32.0,120.0,90.0,2.0,64.0
3523,44.0,120.0,90.0,2.0,64.0
3524,32.0,120.0,90.0,2.0,64.0
3525,44.0,120.0,90.0,2.0,64.0
3526,32.0,120.0,90.0,2.0,64.0
3527,44.0,72.0,90.0,2.0,64.0
3528,32.0,120.0,90.0,2.0,64.0
3529,44.0,120.0,90.0,2.0,64.0
3530,30.0,120.0,90.0,2.0,64.0
3531,63.0,0.0,780.0,0.0,64.0
3532,71.0,48.0,780.0,0.0,64.0
3533,42.0,120.0,90.0,2.0,64.0
3534,30.0,120.0,90.0,2.0,64.0
3535,42.0,120.0,90.0,2.0,64.0
3536,30.0,120.0,90.0,2.0,64.0
3537,42.0,72.0,90.0,2.0,64.0
3538,30.0,120.0,90.0,2.0,64.0
3539,42.0,120.0,90.0,2.0,64.0
3540,83.0,0.0,780.0,0.0,64.0
3541,80.0,48.0,780.0,0.0,64.0
3542,28.0,120.0,90.0,2.0,64.0
3543,40.0,120.0,90.0,2.0,64.0
3544,28.0,120.0,90.0,2.0,64.0
3545,40.0,120.0,90.0,2.0,64.0
3546,28.0,120.0,90.0,2.0,64.0
3547,40.0,72.0,90.0,2.0,64.0
3548,28.0,120.0,90.0,2.0,64.0
3549,40.0,120.0,90.0,2.0,64.0
3550,68.0,0.0,780.0,0.0,64.0
3551,71.0,48.0,780.0,0.0,64.0
3552,27.0,120.0,90.0,2.0,64.0
3553,39.0,120.0,90.0,2.0,64.0
3554,27.0,120.0,90.0,2.0,64.0
3555,39.0,120.0,90.0,2.0,64.0
3556,27.0,120.0,90.0,2.0,64.0
3557,39.0,72.0,90.0,2.0,64.0
3558,27.0,120.0,90.0,2.0,64.0
3559,39.0,936.0,90.0,2.0,64.0
3560,38.0,0.0,900.0,2.0,64.0
3561,26.0,0.0,900.0,2.0,64.0
3562,77.0,960.0,900.0,0.0,64.0
3563,80.0,0.0,900.0,0.0,64.0
3564,82.0,0.0,900.0,0.0,64.0
3565,38.0,0.0,900.0,2.0,64.0
3566,50.0,360.0,900.0,2.0,64.0
3567,53.0,0.0,900.0,0.0,64.0
3568,56.0,0.0,900.0,0.0,64.0
3569,58.0,0.0,900.0,0.0,64.0
3570,27.0,0.0,300.0,2.0,64.0
3571,63.0,0.0,300.0,0.0,64.0
3572,58.0,42.0,300.0,0.0,64.0
3573,54.0,0.0,300.0,0.0,64.0
3574,51.0,0.0,300.0,0.0,64.0
3575,30.0,0.0,300.0,2.0,64.0
3576,34.0,0.0,300.0,2.0,64.0
3577,39.0,0.0,300.0,2.0,64.0
3578,63.0,0.0,30.0,0.0,64.0
3579,54.0,3.0,20.0,2.0,64.0
3580,58.0,75.0,30.0,0.0,64.0
3581,53.0,33.0,90.0,2.0,64.0
3582,65.0,9.0,60.0,0.0,64.0
3583,58.0,0.0,60.0,0.0,64.0
3584,62.0,0.0,60.0,0.0,64.0
3585,51.0,246.0,20.0,2.0,64.0
3586,63.0,0.0,20.0,0.0,64.0
3587,58.0,0.0,20.0,0.0,64.0
3588,66.0,0.0,20.0,0.0,64.0
3589,57.0,0.0,240.0,2.0,64.0
3590,66.0,0.0,240.0,0.0,64.0
3591,60.0,96.0,240.0,0.0,64.0
3592,63.0,0.0,240.0,0.0,64.0
3593,65.0,0.0,90.0,0.0,64.0
3594,62.0,0.0,90.0,0.0,64.0
3595,58.0,138.0,90.0,2.0,64.0
3596,47.0,318.0,20.0,2.0,64.0
3597,65.0,42.0,300.0,0.0,64.0
3598,62.0,0.0,300.0,0.0,64.0
3599,68.0,0.0,300.0,0.0,64.0
3600,59.0,0.0,300.0,2.0,64.0
3601,62.0,0.0,20.0,0.0,64.0
3602,65.0,0.0,20.0,0.0,64.0
3603,68.0,87.0,20.0,0.0,64.0
3604,59.0,0.0,20.0,2.0,64.0
3605,65.0,0.0,90.0,0.0,64.0
3606,62.0,0.0,90.0,0.0,64.0
3607,70.0,0.0,90.0,0.0,64.0
3608,58.0,33.0,90.0,2.0,64.0
3609,56.0,0.0,20.0,2.0,64.0
3610,62.0,0.0,20.0,0.0,64.0
3611,65.0,0.0,20.0,0.0,64.0
3612,71.0,246.0,20.0,0.0,64.0
3613,54.0,48.0,300.0,2.0,64.0
3614,62.0,0.0,240.0,0.0,64.0
3615,65.0,0.0,240.0,0.0,64.0
3616,71.0,48.0,240.0,0.0,64.0
3617,70.0,0.0,90.0,0.0,64.0
3618,66.0,138.0,90.0,0.0,64.0
3619,63.0,0.0,90.0,0.0,64.0
3620,47.0,318.0,20.0,2.0,64.0
3621,65.0,42.0,300.0,0.0,64.0
3622,62.0,0.0,300.0,0.0,64.0
3623,68.0,0.0,300.0,0.0,64.0
3624,59.0,0.0,300.0,2.0,64.0
3625,62.0,78.0,20.0,0.0,64.0
3626,65.0,0.0,20.0,0.0,64.0
3627,68.0,0.0,20.0,0.0,64.0
3628,59.0,0.0,20.0,2.0,64.0
3629,65.0,42.0,60.0,0.0,64.0
3630,70.0,0.0,60.0,0.0,64.0
3631,62.0,0.0,60.0,0.0,64.0
3632,58.0,0.0,60.0,2.0,64.0
3633,71.0,0.0,20.0,0.0,64.0
3634,62.0,0.0,20.0,0.0,64.0
3635,65.0,126.0,20.0,0.0,64.0
3636,56.0,0.0,20.0,2.0,64.0
3637,65.0,0.0,240.0,0.0,64.0
3638,71.0,0.0,240.0,0.0,64.0
3639,62.0,108.0,240.0,0.0,64.0
3640,56.0,120.0,120.0,2.0,64.0
3641,55.0,132.0,240.0,2.0,64.0
3642,60.0,114.0,240.0,0.0,64.0
3643,63.0,0.0,240.0,0.0,64.0
3644,72.0,0.0,240.0,0.0,64.0
3645,55.0,126.0,240.0,2.0,64.0
3646,65.0,108.0,240.0,0.0,64.0
3647,59.0,0.0,240.0,0.0,64.0
3648,62.0,0.0,240.0,0.0,64.0
3649,43.0,132.0,240.0,2.0,64.0
3650,55.0,0.0,240.0,0.0,64.0
3651,60.0,0.0,240.0,0.0,64.0
3652,63.0,108.0,240.0,0.0,64.0
3653,43.0,132.0,240.0,2.0,64.0
3654,62.0,108.0,240.0,0.0,64.0
3655,53.0,0.0,240.0,0.0,64.0
3656,59.0,0.0,240.0,0.0,64.0
3657,56.0,0.0,240.0,0.0,64.0
3658,31.0,234.0,240.0,2.0,64.0
3659,59.0,6.0,330.0,0.0,64.0
3660,50.0,0.0,330.0,0.0,64.0
3661,53.0,0.0,330.0,0.0,64.0
3662,31.0,108.0,240.0,2.0,64.0
3663,60.0,84.0,120.0,0.0,64.0
3664,36.0,36.0,90.0,2.0,64.0
3665,48.0,120.0,90.0,2.0,64.0
3666,65.0,84.0,120.0,0.0,64.0
3667,36.0,36.0,90.0,2.0,64.0
3668,48.0,120.0,90.0,2.0,64.0
3669,63.0,84.0,120.0,0.0,64.0
3670,36.0,36.0,90.0,2.0,64.0
3671,48.0,120.0,90.0,2.0,64.0
3672,36.0,36.0,90.0,2.0,64.0
3673,71.0,0.0,120.0,0.0,64.0
3674,65.0,84.0,120.0,0.0,64.0
3675,48.0,120.0,90.0,2.0,64.0
3676,72.0,84.0,120.0,0.0,64.0
3677,36.0,36.0,90.0,2.0,64.0
3678,63.0,0.0,120.0,0.0,64.0
3679,48.0,120.0,90.0,2.0,64.0
3680,36.0,36.0,90.0,2.0,64.0
3681,77.0,84.0,120.0,0.0,64.0
3682,71.0,0.0,120.0,0.0,64.0
3683,48.0,120.0,90.0,2.0,64.0
3684,72.0,0.0,120.0,0.0,64.0
3685,75.0,84.0,120.0,0.0,64.0
3686,36.0,36.0,90.0,2.0,64.0
3687,48.0,120.0,90.0,2.0,64.0
3688,77.0,0.0,120.0,0.0,64.0
3689,83.0,84.0,120.0,0.0,64.0
3690,36.0,36.0,90.0,2.0,64.0
3691,48.0,168.0,90.0,2.0,64.0
3692,75.0,48.0,150.0,0.0,64.0
3693,84.0,0.0,150.0,0.0,64.0
3694,36.0,240.0,180.0,2.0,64.0
3695,48.0,0.0,180.0,2.0,64.0
3696,55.0,0.0,180.0,2.0,64.0
3697,51.0,192.0,180.0,2.0,64.0
3698,55.0,240.0,180.0,2.0,64.0
3699,51.0,0.0,180.0,2.0,64.0
3700,72.0,0.0,150.0,0.0,64.0
3701,60.0,48.0,150.0,0.0,64.0
3702,55.0,0.0,180.0,2.0,64.0
3703,51.0,240.0,180.0,2.0,64.0
3704,48.0,192.0,180.0,2.0,64.0
3705,60.0,0.0,150.0,0.0,64.0
3706,72.0,48.0,150.0,0.0,64.0
3707,55.0,192.0,180.0,2.0,64.0
3708,51.0,0.0,180.0,2.0,64.0
3709,62.0,0.0,150.0,0.0,64.0
3710,74.0,48.0,150.0,0.0,64.0
3711,51.0,192.0,180.0,2.0,64.0
3712,55.0,0.0,180.0,2.0,64.0
3713,63.0,48.0,150.0,0.0,64.0
3714,55.0,0.0,180.0,2.0,64.0
3715,51.0,240.0,180.0,2.0,64.0
3716,75.0,0.0,150.0,0.0,64.0
3717,63.0,144.0,480.0,0.0,64.0
3718,48.0,240.0,180.0,2.0,64.0
3719,75.0,0.0,480.0,0.0,64.0
3720,53.0,0.0,180.0,2.0,64.0
3721,56.0,48.0,180.0,2.0,64.0
3722,53.0,0.0,180.0,2.0,64.0
3723,74.0,48.0,150.0,0.0,64.0
3724,62.0,0.0,150.0,0.0,64.0
3725,56.0,240.0,180.0,2.0,64.0
3726,56.0,0.0,180.0,2.0,64.0
3727,53.0,240.0,180.0,2.0,64.0
3728,47.0,192.0,180.0,2.0,64.0
3729,62.0,0.0,150.0,0.0,64.0
3730,56.0,192.0,180.0,2.0,64.0
3731,53.0,0.0,180.0,2.0,64.0
3732,74.0,48.0,150.0,0.0,64.0
3733,53.0,192.0,180.0,2.0,64.0
3734,56.0,0.0,180.0,2.0,64.0
3735,75.0,48.0,150.0,0.0,64.0
3736,63.0,0.0,150.0,0.0,64.0
3737,53.0,0.0,180.0,2.0,64.0
3738,77.0,48.0,150.0,0.0,64.0
3739,65.0,0.0,150.0,0.0,64.0
3740,56.0,144.0,180.0,2.0,64.0
3741,34.0,48.0,90.0,2.0,64.0
3742,65.0,72.0,150.0,0.0,64.0
3743,77.0,0.0,150.0,0.0,64.0
3744,46.0,120.0,90.0,2.0,64.0
3745,34.0,48.0,90.0,2.0,64.0
3746,63.0,72.0,150.0,0.0,64.0
3747,46.0,120.0,90.0,2.0,64.0
3748,62.0,72.0,150.0,0.0,64.0
3749,34.0,48.0,90.0,2.0,64.0
3750,46.0,120.0,90.0,2.0,64.0
3751,69.0,72.0,150.0,0.0,64.0
3752,63.0,0.0,150.0,0.0,64.0
3753,34.0,48.0,90.0,2.0,64.0
3754,46.0,120.0,90.0,2.0,64.0
3755,70.0,72.0,150.0,0.0,64.0
3756,62.0,0.0,150.0,0.0,64.0
3757,34.0,48.0,90.0,2.0,64.0
3758,46.0,120.0,90.0,2.0,64.0
3759,34.0,48.0,90.0,2.0,64.0
3760,75.0,0.0,150.0,0.0,64.0
3761,69.0,72.0,150.0,0.0,64.0
3762,46.0,120.0,90.0,2.0,64.0
3763,74.0,72.0,150.0,0.0,64.0
3764,34.0,48.0,90.0,2.0,64.0
3765,70.0,0.0,150.0,0.0,64.0
3766,46.0,120.0,90.0,2.0,64.0
3767,75.0,72.0,150.0,0.0,64.0
3768,81.0,0.0,150.0,0.0,64.0
3769,34.0,48.0,90.0,2.0,64.0
3770,46.0,168.0,90.0,2.0,64.0
3771,46.0,240.0,180.0,2.0,64.0
3772,34.0,0.0,180.0,2.0,64.0
3773,74.0,48.0,150.0,0.0,64.0
3774,82.0,0.0,150.0,0.0,64.0
3775,56.0,192.0,180.0,2.0,64.0
3776,53.0,0.0,180.0,2.0,64.0
3777,56.0,240.0,180.0,2.0,64.0
3778,53.0,0.0,180.0,2.0,64.0
3779,74.0,0.0,150.0,0.0,64.0
3780,62.0,48.0,150.0,0.0,64.0
3781,53.0,0.0,180.0,2.0,64.0
3782,56.0,240.0,180.0,2.0,64.0
3783,46.0,192.0,180.0,2.0,64.0
3784,62.0,0.0,150.0,0.0,64.0
3785,56.0,0.0,180.0,2.0,64.0
3786,53.0,192.0,180.0,2.0,64.0
3787,74.0,48.0,150.0,0.0,64.0
3788,63.0,48.0,150.0,0.0,64.0
3789,53.0,192.0,180.0,2.0,64.0
3790,56.0,0.0,180.0,2.0,64.0
3791,75.0,0.0,150.0,0.0,64.0
3792,56.0,0.0,180.0,2.0,64.0
3793,53.0,240.0,180.0,2.0,64.0
3794,65.0,0.0,150.0,0.0,64.0
3795,77.0,48.0,150.0,0.0,64.0
3796,77.0,0.0,480.0,0.0,64.0
3797,46.0,240.0,180.0,2.0,64.0
3798,65.0,144.0,480.0,0.0,64.0
3799,54.0,48.0,180.0,2.0,64.0
3800,51.0,0.0,180.0,2.0,64.0
3801,63.0,48.0,150.0,0.0,64.0
3802,51.0,240.0,180.0,2.0,64.0
3803,54.0,0.0,180.0,2.0,64.0
3804,75.0,0.0,150.0,0.0,64.0
3805,51.0,0.0,180.0,2.0,64.0
3806,54.0,240.0,180.0,2.0,64.0
3807,45.0,192.0,180.0,2.0,64.0
3808,54.0,192.0,180.0,2.0,64.0
3809,75.0,48.0,150.0,0.0,64.0
3810,63.0,0.0,150.0,0.0,64.0
3811,51.0,0.0,180.0,2.0,64.0
3812,77.0,48.0,150.0,0.0,64.0
3813,51.0,0.0,180.0,2.0,64.0
3814,54.0,192.0,180.0,2.0,64.0
3815,65.0,0.0,150.0,0.0,64.0
3816,51.0,144.0,180.0,2.0,64.0
3817,54.0,0.0,180.0,2.0,64.0
3818,66.0,48.0,150.0,0.0,64.0
3819,78.0,0.0,150.0,0.0,64.0
3820,66.0,48.0,90.0,0.0,64.0
3821,32.0,72.0,150.0,2.0,64.0
3822,44.0,0.0,150.0,2.0,64.0
3823,78.0,120.0,90.0,0.0,64.0
3824,45.0,96.0,240.0,2.0,64.0
3825,66.0,120.0,90.0,0.0,64.0
3826,78.0,24.0,90.0,0.0,64.0
3827,66.0,48.0,90.0,0.0,64.0
3828,44.0,72.0,150.0,2.0,64.0
3829,78.0,120.0,90.0,0.0,64.0
3830,66.0,120.0,90.0,0.0,64.0
3831,49.0,96.0,240.0,2.0,64.0
3832,78.0,24.0,90.0,0.0,64.0
3833,66.0,48.0,90.0,0.0,64.0
3834,48.0,72.0,150.0,2.0,64.0
3835,78.0,120.0,90.0,0.0,64.0
3836,57.0,96.0,240.0,2.0,64.0
3837,66.0,120.0,90.0,0.0,64.0
3838,78.0,24.0,90.0,0.0,64.0
3839,56.0,72.0,150.0,2.0,64.0
3840,66.0,48.0,90.0,0.0,64.0
3841,78.0,120.0,90.0,0.0,64.0
3842,61.0,96.0,240.0,2.0,64.0
3843,66.0,120.0,90.0,0.0,64.0
3844,78.0,24.0,90.0,0.0,64.0
3845,66.0,48.0,90.0,0.0,64.0
3846,60.0,72.0,150.0,2.0,64.0
3847,78.0,120.0,90.0,0.0,64.0
3848,66.0,120.0,90.0,0.0,64.0
3849,62.0,96.0,240.0,2.0,64.0
3850,78.0,24.0,90.0,0.0,64.0
3851,63.0,72.0,150.0,2.0,64.0
3852,66.0,48.0,90.0,0.0,64.0
3853,78.0,120.0,90.0,0.0,64.0
3854,66.0,120.0,90.0,0.0,64.0
3855,78.0,120.0,90.0,0.0,64.0
3856,66.0,120.0,90.0,0.0,64.0
3857,78.0,120.0,90.0,0.0,64.0
3858,66.0,120.0,90.0,0.0,64.0
3859,78.0,120.0,90.0,0.0,64.0
3860,66.0,120.0,90.0,0.0,64.0
3861,78.0,120.0,90.0,0.0,64.0
3862,66.0,120.0,90.0,0.0,64.0
3863,78.0,120.0,90.0,0.0,64.0
3864,65.0,120.0,90.0,0.0,64.0
3865,77.0,120.0,90.0,0.0,64.0
3866,65.0,120.0,90.0,0.0,64.0
3867,38.0,96.0,240.0,2.0,64.0
3868,77.0,24.0,90.0,0.0,64.0
3869,37.0,72.0,150.0,2.0,64.0
3870,65.0,48.0,90.0,0.0,64.0
3871,77.0,120.0,90.0,0.0,64.0
3872,45.0,96.0,240.0,2.0,64.0
3873,65.0,120.0,90.0,0.0,64.0
3874,77.0,24.0,90.0,0.0,64.0
3875,65.0,48.0,90.0,0.0,64.0
3876,44.0,72.0,150.0,2.0,64.0
3877,77.0,120.0,90.0,0.0,64.0
3878,50.0,96.0,240.0,2.0,64.0
3879,65.0,120.0,90.0,0.0,64.0
3880,77.0,24.0,90.0,0.0,64.0
3881,65.0,48.0,90.0,0.0,64.0
3882,49.0,72.0,150.0,2.0,64.0
3883,77.0,120.0,90.0,0.0,64.0
3884,57.0,96.0,240.0,2.0,64.0
3885,65.0,120.0,90.0,0.0,64.0
3886,77.0,24.0,90.0,0.0,64.0
3887,56.0,72.0,150.0,2.0,64.0
3888,65.0,48.0,90.0,0.0,64.0
3889,77.0,120.0,90.0,0.0,64.0
3890,65.0,120.0,90.0,0.0,64.0
3891,60.0,96.0,240.0,2.0,64.0
3892,77.0,24.0,90.0,0.0,64.0
3893,65.0,48.0,90.0,0.0,64.0
3894,61.0,72.0,150.0,2.0,64.0
3895,77.0,120.0,90.0,0.0,64.0
3896,65.0,120.0,90.0,0.0,64.0
3897,77.0,120.0,90.0,0.0,64.0
3898,65.0,120.0,90.0,0.0,64.0
3899,77.0,120.0,90.0,0.0,64.0
3900,65.0,120.0,90.0,0.0,64.0
3901,77.0,120.0,90.0,0.0,64.0
3902,65.0,120.0,90.0,0.0,64.0
3903,77.0,120.0,90.0,0.0,64.0
3904,65.0,120.0,90.0,0.0,64.0
3905,77.0,120.0,90.0,0.0,64.0
3906,64.0,120.0,90.0,0.0,64.0
3907,76.0,120.0,90.0,0.0,64.0
3908,44.0,96.0,240.0,2.0,64.0
3909,64.0,120.0,90.0,0.0,64.0
3910,76.0,24.0,90.0,0.0,64.0
3911,64.0,120.0,90.0,0.0,64.0
3912,43.0,96.0,240.0,2.0,64.0
3913,76.0,24.0,90.0,0.0,64.0
3914,64.0,120.0,90.0,0.0,64.0
3915,46.0,96.0,240.0,2.0,64.0
3916,76.0,24.0,90.0,0.0,64.0
3917,49.0,72.0,150.0,2.0,64.0
3918,64.0,48.0,90.0,0.0,64.0
3919,76.0,120.0,90.0,0.0,64.0
3920,64.0,120.0,90.0,0.0,64.0
3921,56.0,96.0,240.0,2.0,64.0
3922,76.0,24.0,90.0,0.0,64.0
3923,55.0,96.0,240.0,2.0,64.0
3924,64.0,120.0,90.0,0.0,64.0
3925,76.0,24.0,90.0,0.0,64.0
3926,58.0,96.0,240.0,2.0,64.0
3927,64.0,120.0,90.0,0.0,64.0
3928,76.0,24.0,90.0,0.0,64.0
3929,64.0,48.0,90.0,0.0,64.0
3930,61.0,72.0,150.0,2.0,64.0
3931,76.0,120.0,90.0,0.0,64.0
3932,64.0,120.0,90.0,0.0,64.0
3933,76.0,120.0,90.0,0.0,64.0
3934,64.0,48.0,90.0,0.0,64.0
3935,58.0,72.0,150.0,2.0,64.0
3936,76.0,120.0,90.0,0.0,64.0
3937,64.0,120.0,90.0,0.0,64.0
3938,76.0,120.0,90.0,0.0,64.0
3939,55.0,72.0,150.0,2.0,64.0
3940,64.0,48.0,90.0,0.0,64.0
3941,76.0,120.0,90.0,0.0,64.0
3942,63.0,120.0,90.0,0.0,64.0
3943,75.0,120.0,90.0,0.0,64.0
3944,51.0,72.0,150.0,2.0,64.0
3945,63.0,48.0,90.0,0.0,64.0
3946,75.0,120.0,90.0,0.0,64.0
3947,61.0,120.0,90.0,0.0,64.0
3948,73.0,120.0,90.0,0.0,64.0
3949,45.0,72.0,150.0,2.0,64.0
3950,61.0,48.0,90.0,0.0,64.0
3951,57.0,0.0,150.0,2.0,64.0
3952,73.0,120.0,90.0,0.0,64.0
3953,60.0,120.0,90.0,0.0,64.0
3954,72.0,120.0,90.0,0.0,64.0
3955,54.0,0.0,150.0,2.0,64.0
3956,42.0,72.0,150.0,2.0,64.0
3957,60.0,48.0,90.0,0.0,64.0
3958,72.0,120.0,90.0,0.0,64.0
3959,57.0,120.0,90.0,0.0,64.0
3960,69.0,120.0,90.0,0.0,64.0
3961,39.0,0.0,150.0,2.0,64.0
3962,51.0,72.0,150.0,2.0,64.0
3963,57.0,48.0,90.0,0.0,64.0
3964,69.0,120.0,90.0,0.0,64.0
3965,56.0,120.0,90.0,0.0,64.0
3966,68.0,120.0,90.0,0.0,64.0
3967,56.0,48.0,90.0,0.0,64.0
3968,36.0,0.0,150.0,2.0,64.0
3969,48.0,72.0,150.0,2.0,64.0
3970,68.0,120.0,90.0,0.0,64.0
3971,54.0,120.0,90.0,0.0,64.0
3972,66.0,120.0,90.0,0.0,64.0
3973,54.0,48.0,90.0,0.0,64.0
3974,37.0,72.0,150.0,2.0,64.0
3975,49.0,0.0,150.0,2.0,64.0
3976,66.0,120.0,90.0,0.0,64.0
3977,52.0,120.0,90.0,0.0,64.0
3978,64.0,120.0,90.0,0.0,64.0
3979,52.0,120.0,90.0,0.0,64.0
3980,64.0,120.0,90.0,0.0,64.0
3981,51.0,120.0,90.0,0.0,64.0
3982,63.0,120.0,90.0,0.0,64.0
3983,51.0,96.0,90.0,1.0,64.0
3984,25.0,0.0,180.0,2.0,64.0
3985,37.0,24.0,180.0,2.0,64.0
3986,63.0,120.0,90.0,1.0,64.0
3987,49.0,120.0,90.0,1.0,64.0
3988,61.0,120.0,90.0,1.0,64.0
3989,49.0,120.0,90.0,1.0,64.0
3990,61.0,120.0,90.0,1.0,64.0
3991,47.0,120.0,90.0,1.0,64.0
3992,59.0,120.0,90.0,1.0,64.0
3993,38.0,24.0,180.0,2.0,64.0
3994,26.0,0.0,180.0,2.0,64.0
3995,47.0,96.0,90.0,1.0,64.0
3996,59.0,120.0,90.0,1.0,64.0
3997,46.0,120.0,90.0,1.0,64.0
3998,58.0,120.0,90.0,1.0,64.0
3999,46.0,120.0,90.0,1.0,64.0
4000,58.0,120.0,90.0,1.0,64.0
4001,47.0,120.0,90.0,1.0,64.0
4002,59.0,120.0,90.0,1.0,64.0
4003,38.0,24.0,180.0,2.0,64.0
4004,26.0,0.0,180.0,2.0,64.0
4005,47.0,96.0,90.0,1.0,64.0
4006,59.0,120.0,90.0,1.0,64.0
4007,46.0,120.0,90.0,1.0,64.0
4008,58.0,120.0,90.0,1.0,64.0
4009,46.0,120.0,90.0,1.0,64.0
4010,58.0,120.0,90.0,1.0,64.0
4011,44.0,120.0,90.0,1.0,64.0
4012,56.0,120.0,90.0,1.0,64.0
4013,27.0,96.0,90.0,2.0,64.0
4014,55.0,0.0,180.0,1.0,64.0
4015,43.0,24.0,180.0,1.0,64.0
4016,39.0,120.0,90.0,2.0,64.0
4017,27.0,120.0,90.0,2.0,64.0
4018,39.0,120.0,90.0,2.0,64.0
4019,45.0,96.0,120.0,1.0,64.0
4020,27.0,24.0,90.0,2.0,64.0
4021,39.0,24.0,90.0,2.0,64.0
4022,52.0,96.0,120.0,1.0,64.0
4023,48.0,96.0,120.0,1.0,64.0
4024,27.0,24.0,90.0,2.0,64.0
4025,45.0,96.0,120.0,1.0,64.0
4026,39.0,24.0,90.0,2.0,64.0
4027,46.0,96.0,120.0,1.0,64.0
4028,27.0,24.0,90.0,2.0,64.0
4029,52.0,96.0,120.0,1.0,64.0
4030,39.0,24.0,90.0,2.0,64.0
4031,49.0,96.0,120.0,1.0,64.0
4032,27.0,24.0,90.0,2.0,64.0
4033,46.0,96.0,120.0,1.0,64.0
4034,39.0,24.0,90.0,2.0,64.0
4035,27.0,24.0,90.0,2.0,64.0
4036,44.0,96.0,120.0,1.0,64.0
4037,39.0,24.0,90.0,2.0,64.0
4038,52.0,96.0,120.0,1.0,64.0
4039,27.0,24.0,90.0,2.0,64.0
4040,47.0,96.0,120.0,1.0,64.0
4041,39.0,24.0,90.0,2.0,64.0
4042,44.0,96.0,120.0,1.0,64.0
4043,27.0,24.0,90.0,2.0,64.0
4044,43.0,96.0,120.0,1.0,64.0
4045,51.0,96.0,120.0,1.0,64.0
4046,39.0,24.0,90.0,2.0,64.0
4047,46.0,96.0,120.0,1.0,64.0
4048,27.0,24.0,90.0,2.0,64.0
4049,43.0,96.0,120.0,1.0,64.0
4050,39.0,24.0,90.0,2.0,64.0
4051,27.0,24.0,90.0,2.0,64.0
4052,45.0,96.0,120.0,1.0,64.0
4053,52.0,96.0,120.0,1.0,64.0
4054,39.0,24.0,90.0,2.0,64.0
4055,27.0,24.0,90.0,2.0,64.0
4056,48.0,96.0,120.0,1.0,64.0
4057,39.0,24.0,90.0,2.0,64.0
4058,45.0,96.0,120.0,1.0,64.0
4059,46.0,96.0,120.0,1.0,64.0
4060,27.0,24.0,90.0,2.0,64.0
4061,52.0,96.0,120.0,1.0,64.0
4062,39.0,24.0,90.0,2.0,64.0
4063,27.0,24.0,90.0,2.0,64.0
4064,49.0,96.0,120.0,1.0,64.0
4065,39.0,24.0,90.0,2.0,64.0
4066,46.0,96.0,120.0,1.0,64.0
4067,44.0,96.0,120.0,1.0,64.0
4068,27.0,24.0,90.0,2.0,64.0
4069,51.0,96.0,120.0,1.0,64.0
4070,39.0,24.0,90.0,2.0,64.0
4071,47.0,96.0,120.0,1.0,64.0
4072,27.0,24.0,90.0,2.0,64.0
4073,39.0,24.0,90.0,2.0,64.0
4074,44.0,96.0,120.0,1.0,64.0
4075,51.0,0.0,180.0,1.0,64.0
4076,46.0,24.0,180.0,1.0,64.0
4077,27.0,96.0,90.0,2.0,64.0
4078,43.0,0.0,180.0,1.0,64.0
4079,39.0,120.0,90.0,2.0,64.0
4080,27.0,36.0,90.0,2.0,64.0
4081,60.0,84.0,120.0,0.0,64.0
4082,39.0,120.0,90.0,2.0,64.0
4083,61.0,84.0,120.0,0.0,64.0
4084,27.0,36.0,90.0,2.0,64.0
4085,39.0,120.0,90.0,2.0,64.0
4086,60.0,84.0,120.0,0.0,64.0
4087,69.0,0.0,120.0,0.0,64.0
4088,27.0,36.0,90.0,2.0,64.0
4089,39.0,120.0,90.0,2.0,64.0
4090,61.0,0.0,120.0,0.0,64.0
4091,70.0,84.0,120.0,0.0,64.0
4092,27.0,36.0,90.0,2.0,64.0
4093,39.0,120.0,90.0,2.0,64.0
4094,27.0,36.0,90.0,2.0,64.0
4095,72.0,84.0,120.0,0.0,64.0
4096,69.0,0.0,120.0,0.0,64.0
4097,39.0,120.0,90.0,2.0,64.0
4098,27.0,36.0,90.0,2.0,64.0
4099,70.0,0.0,120.0,0.0,64.0
4100,73.0,84.0,120.0,0.0,64.0
4101,39.0,120.0,90.0,2.0,64.0
4102,27.0,36.0,90.0,2.0,64.0
4103,72.0,0.0,120.0,0.0,64.0
4104,81.0,84.0,120.0,0.0,64.0
4105,39.0,168.0,90.0,2.0,64.0
4106,27.0,240.0,480.0,2.0,64.0
4107,73.0,0.0,150.0,1.0,64.0
4108,82.0,240.0,150.0,0.0,64.0
4109,84.0,96.0,150.0,0.0,64.0
4110,81.0,0.0,150.0,1.0,64.0
4111,39.0,240.0,480.0,1.0,64.0
4112,31.0,240.0,480.0,2.0,64.0
4113,85.0,96.0,870.0,0.0,64.0
4114,82.0,0.0,870.0,1.0,64.0
4115,32.0,60.0,480.0,2.0,64.0
4116,39.0,144.0,15.0,1.0,64.0
4117,80.0,0.0,480.0,1.0,64.0
4118,26.0,0.0,480.0,2.0,64.0
4119,85.0,60.0,60.0,0.0,64.0
4120,83.0,60.0,60.0,0.0,64.0
4121,85.0,60.0,60.0,0.0,64.0
4122,83.0,0.0,60.0,0.0,64.0
4123,85.0,60.0,60.0,0.0,64.0
4124,39.0,0.0,240.0,1.0,64.0
4125,83.0,60.0,60.0,0.0,64.0
4126,82.0,60.0,60.0,0.0,64.0
4127,83.0,96.0,60.0,0.0,64.0
4128,79.0,24.0,180.0,1.0,64.0
4129,27.0,96.0,90.0,2.0,64.0
4130,82.0,0.0,180.0,0.0,64.0
4131,39.0,120.0,90.0,2.0,64.0
4132,27.0,120.0,90.0,2.0,64.0
4133,39.0,120.0,90.0,2.0,64.0
4134,27.0,24.0,90.0,2.0,64.0
4135,45.0,96.0,120.0,1.0,64.0
4136,52.0,96.0,120.0,1.0,64.0
4137,39.0,24.0,90.0,2.0,64.0
4138,27.0,24.0,90.0,2.0,64.0
4139,48.0,96.0,120.0,1.0,64.0
4140,39.0,24.0,90.0,2.0,64.0
4141,45.0,96.0,120.0,1.0,64.0
4142,27.0,24.0,90.0,2.0,64.0
4143,46.0,96.0,120.0,1.0,64.0
4144,52.0,96.0,120.0,1.0,64.0
4145,39.0,24.0,90.0,2.0,64.0
4146,27.0,24.0,90.0,2.0,64.0
4147,49.0,96.0,120.0,1.0,64.0
4148,46.0,96.0,120.0,1.0,64.0
4149,39.0,24.0,90.0,2.0,64.0
4150,27.0,24.0,90.0,2.0,64.0
4151,44.0,96.0,120.0,1.0,64.0
4152,52.0,96.0,120.0,1.0,64.0
4153,39.0,24.0,90.0,2.0,64.0
4154,27.0,24.0,90.0,2.0,64.0
4155,47.0,96.0,120.0,1.0,64.0
4156,39.0,24.0,90.0,2.0,64.0
4157,44.0,96.0,120.0,1.0,64.0
4158,43.0,96.0,120.0,1.0,64.0
4159,27.0,24.0,90.0,2.0,64.0
4160,51.0,96.0,120.0,1.0,64.0
4161,39.0,24.0,90.0,2.0,64.0
4162,46.0,96.0,120.0,1.0,64.0
4163,27.0,24.0,90.0,2.0,64.0
4164,39.0,24.0,90.0,2.0,64.0
4165,43.0,96.0,120.0,1.0,64.0
4166,27.0,24.0,90.0,2.0,64.0
4167,45.0,96.0,120.0,1.0,64.0
4168,52.0,96.0,120.0,1.0,64.0
4169,39.0,24.0,90.0,2.0,64.0
4170,48.0,96.0,120.0,1.0,64.0
4171,27.0,24.0,90.0,2.0,64.0
4172,45.0,96.0,120.0,1.0,64.0
4173,39.0,24.0,90.0,2.0,64.0
4174,46.0,96.0,120.0,1.0,64.0
4175,27.0,24.0,90.0,2.0,64.0
4176,52.0,96.0,120.0,1.0,64.0
4177,39.0,24.0,90.0,2.0,64.0
4178,27.0,24.0,90.0,2.0,64.0
4179,49.0,96.0,120.0,1.0,64.0
4180,39.0,24.0,90.0,2.0,64.0
4181,46.0,96.0,120.0,1.0,64.0
4182,27.0,24.0,90.0,2.0,64.0
4183,44.0,96.0,120.0,1.0,64.0
4184,39.0,24.0,90.0,2.0,64.0
4185,51.0,96.0,120.0,1.0,64.0
4186,27.0,24.0,90.0,2.0,64.0
4187,47.0,96.0,120.0,1.0,64.0
4188,44.0,96.0,120.0,1.0,64.0
4189,39.0,24.0,90.0,2.0,64.0
4190,46.0,0.0,180.0,1.0,64.0
4191,51.0,0.0,180.0,1.0,64.0
4192,43.0,24.0,180.0,1.0,64.0
4193,27.0,96.0,90.0,2.0,64.0
4194,39.0,120.0,90.0,2.0,64.0
4195,60.0,84.0,120.0,0.0,64.0
4196,27.0,36.0,90.0,2.0,64.0
4197,39.0,120.0,90.0,2.0,64.0
4198,27.0,36.0,90.0,2.0,64.0
4199,61.0,84.0,120.0,0.0,64.0
4200,39.0,120.0,90.0,2.0,64.0
4201,27.0,36.0,90.0,2.0,64.0
4202,60.0,84.0,120.0,0.0,64.0
4203,69.0,0.0,120.0,0.0,64.0
4204,39.0,120.0,90.0,2.0,64.0
4205,27.0,36.0,90.0,2.0,64.0
4206,61.0,0.0,120.0,0.0,64.0
4207,70.0,84.0,120.0,0.0,64.0
4208,39.0,120.0,90.0,2.0,64.0
4209,72.0,0.0,120.0,0.0,64.0
4210,27.0,36.0,90.0,2.0,64.0
4211,69.0,84.0,120.0,0.0,64.0
4212,39.0,120.0,90.0,2.0,64.0
4213,27.0,36.0,90.0,2.0,64.0
4214,70.0,84.0,120.0,0.0,64.0
4215,73.0,0.0,120.0,0.0,64.0
4216,39.0,120.0,90.0,2.0,64.0
4217,81.0,84.0,120.0,0.0,64.0
4218,72.0,0.0,120.0,0.0,64.0
4219,27.0,36.0,90.0,2.0,64.0
4220,39.0,168.0,90.0,2.0,64.0
4221,82.0,0.0,150.0,0.0,64.0
4222,27.0,240.0,480.0,2.0,64.0
4223,73.0,240.0,150.0,1.0,64.0
4224,84.0,96.0,150.0,0.0,64.0
4225,81.0,0.0,150.0,1.0,64.0
4226,31.0,240.0,480.0,2.0,64.0
4227,82.0,96.0,870.0,1.0,64.0
4228,85.0,0.0,870.0,0.0,64.0
4229,39.0,240.0,15.0,1.0,64.0
4230,32.0,60.0,480.0,2.0,64.0
4231,39.0,144.0,15.0,1.0,64.0
4232,80.0,0.0,480.0,1.0,64.0
4233,26.0,0.0,480.0,2.0,64.0
4234,85.0,60.0,60.0,0.0,64.0
4235,83.0,60.0,60.0,0.0,64.0
4236,85.0,60.0,60.0,0.0,64.0
4237,83.0,60.0,60.0,0.0,64.0
4238,85.0,60.0,60.0,0.0,64.0
4239,39.0,144.0,240.0,1.0,64.0
4240,83.0,60.0,60.0,0.0,64.0
4241,82.0,60.0,60.0,0.0,64.0
4242,83.0,0.0,60.0,0.0,64.0
4243,27.0,240.0,480.0,2.0,64.0
4244,79.0,0.0,150.0,1.0,64.0
4245,82.0,240.0,150.0,0.0,64.0
4246,81.0,0.0,150.0,1.0,64.0
4247,84.0,96.0,150.0,0.0,64.0
4248,82.0,96.0,870.0,1.0,64.0
4249,31.0,240.0,480.0,2.0,64.0
4250,85.0,0.0,870.0,0.0,64.0
4251,39.0,240.0,15.0,1.0,64.0
4252,32.0,60.0,480.0,2.0,64.0
4253,39.0,144.0,15.0,1.0,64.0
4254,85.0,60.0,60.0,0.0,64.0
4255,80.0,0.0,480.0,1.0,64.0
4256,26.0,0.0,480.0,2.0,64.0
4257,83.0,60.0,60.0,0.0,64.0
4258,85.0,60.0,60.0,0.0,64.0
4259,83.0,60.0,60.0,0.0,64.0
4260,39.0,0.0,15.0,1.0,64.0
4261,85.0,60.0,60.0,0.0,64.0
4262,83.0,60.0,60.0,0.0,64.0
4263,82.0,60.0,60.0,0.0,64.0
4264,83.0,144.0,60.0,0.0,64.0
4265,79.0,240.0,150.0,1.0,64.0
4266,27.0,240.0,480.0,2.0,64.0
4267,82.0,0.0,150.0,0.0,64.0
4268,84.0,0.0,150.0,0.0,64.0
4269,81.0,96.0,150.0,1.0,64.0
4270,31.0,240.0,480.0,2.0,64.0
4271,82.0,0.0,870.0,1.0,64.0
4272,85.0,96.0,870.0,0.0,64.0
4273,39.0,240.0,15.0,1.0,64.0
4274,32.0,60.0,480.0,2.0,64.0
4275,39.0,0.0,480.0,1.0,64.0
4276,85.0,60.0,60.0,0.0,64.0
4277,80.0,0.0,480.0,1.0,64.0
4278,26.0,0.0,480.0,2.0,64.0
4279,83.0,60.0,60.0,0.0,64.0
4280,85.0,60.0,60.0,0.0,64.0
4281,83.0,60.0,60.0,0.0,64.0
4282,85.0,60.0,60.0,0.0,64.0
4283,39.0,0.0,240.0,1.0,64.0
4284,83.0,60.0,60.0,0.0,64.0
4285,82.0,60.0,60.0,0.0,64.0
4286,83.0,96.0,60.0,0.0,64.0
4287,79.0,96.0,90.0,1.0,64.0
4288,39.0,24.0,180.0,1.0,64.0
4289,27.0,0.0,180.0,2.0,64.0
4290,82.0,0.0,90.0,0.0,64.0
4291,85.0,120.0,90.0,0.0,64.0
4292,82.0,120.0,90.0,0.0,64.0
4293,80.0,120.0,90.0,0.0,64.0
4294,79.0,120.0,90.0,0.0,64.0
4295,85.0,120.0,90.0,0.0,64.0
4296,82.0,120.0,90.0,0.0,64.0
4297,80.0,120.0,90.0,0.0,64.0
4298,79.0,120.0,90.0,0.0,64.0
4299,85.0,120.0,90.0,0.0,64.0
4300,82.0,120.0,90.0,0.0,64.0
4301,80.0,120.0,90.0,0.0,64.0
4302,79.0,120.0,90.0,0.0,64.0
4303,82.0,120.0,90.0,0.0,64.0
4304,79.0,120.0,90.0,0.0,64.0
4305,75.0,120.0,90.0,0.0,64.0
4306,76.0,120.0,90.0,0.0,64.0
4307,78.0,120.0,90.0,0.0,64.0
4308,76.0,120.0,90.0,0.0,64.0
4309,75.0,120.0,90.0,0.0,64.0
4310,73.0,120.0,90.0,0.0,64.0
4311,76.0,120.0,90.0,0.0,64.0
4312,73.0,120.0,90.0,0.0,64.0
4313,71.0,120.0,90.0,0.0,64.0
4314,70.0,120.0,90.0,0.0,64.0
4315,73.0,120.0,90.0,0.0,64.0
4316,70.0,120.0,90.0,0.0,64.0
4317,68.0,120.0,90.0,0.0,64.0
4318,67.0,120.0,90.0,0.0,64.0
4319,70.0,120.0,90.0,0.0,64.0
4320,67.0,120.0,90.0,0.0,64.0
4321,63.0,120.0,90.0,0.0,64.0
4322,64.0,120.0,90.0,0.0,64.0
4323,66.0,120.0,90.0,0.0,64.0
4324,64.0,120.0,90.0,0.0,64.0
4325,63.0,120.0,90.0,0.0,64.0
4326,61.0,120.0,90.0,0.0,64.0
4327,64.0,120.0,90.0,0.0,64.0
4328,61.0,120.0,90.0,0.0,64.0
4329,59.0,120.0,90.0,0.0,64.0
4330,58.0,120.0,90.0,0.0,64.0
4331,61.0,120.0,90.0,0.0,64.0
4332,58.0,120.0,90.0,0.0,64.0
4333,56.0,120.0,90.0,0.0,64.0
4334,55.0,120.0,90.0,0.0,64.0
4335,58.0,120.0,90.0,0.0,64.0
4336,55.0,120.0,90.0,0.0,64.0
4337,51.0,120.0,90.0,0.0,64.0
4338,52.0,120.0,90.0,1.0,64.0
4339,54.0,120.0,90.0,1.0,64.0
4340,52.0,120.0,90.0,1.0,64.0
4341,51.0,120.0,90.0,1.0,64.0
4342,49.0,120.0,90.0,1.0,64.0
4343,47.0,120.0,90.0,1.0,64.0
4344,46.0,120.0,90.0,1.0,64.0
4345,44.0,120.0,90.0,1.0,64.0
4346,43.0,120.0,90.0,1.0,64.0
4347,44.0,120.0,90.0,1.0,64.0
4348,43.0,120.0,90.0,1.0,64.0
4349,40.0,120.0,90.0,1.0,64.0
4350,39.0,120.0,90.0,2.0,64.0
4351,37.0,120.0,90.0,2.0,64.0
4352,35.0,120.0,90.0,2.0,64.0
4353,34.0,120.0,90.0,2.0,64.0
4354,32.0,120.0,90.0,2.0,64.0
4355,56.0,120.0,570.0,0.0,64.0
4356,44.0,120.0,90.0,2.0,64.0
4357,32.0,120.0,90.0,2.0,64.0
4358,44.0,120.0,90.0,2.0,64.0
4359,32.0,0.0,90.0,2.0,64.0
4360,44.0,120.0,90.0,2.0,64.0
4361,54.0,0.0,150.0,0.0,64.0
4362,60.0,72.0,150.0,0.0,64.0
4363,32.0,48.0,90.0,2.0,64.0
4364,44.0,120.0,90.0,2.0,64.0
4365,32.0,48.0,90.0,2.0,64.0
4366,61.0,0.0,150.0,0.0,64.0
4367,52.0,72.0,150.0,0.0,64.0
4368,44.0,120.0,90.0,2.0,64.0
4369,63.0,0.0,150.0,0.0,64.0
4370,32.0,48.0,90.0,2.0,64.0
4371,60.0,72.0,150.0,0.0,64.0
4372,44.0,120.0,90.0,2.0,64.0
4373,32.0,48.0,90.0,2.0,64.0
4374,64.0,0.0,150.0,0.0,64.0
4375,61.0,72.0,150.0,0.0,64.0
4376,44.0,120.0,90.0,2.0,64.0
4377,58.0,72.0,150.0,0.0,64.0
4378,67.0,0.0,150.0,0.0,64.0
4379,32.0,48.0,90.0,2.0,64.0
4380,44.0,120.0,90.0,2.0,64.0
4381,32.0,48.0,90.0,2.0,64.0
4382,59.0,0.0,150.0,0.0,64.0
4383,68.0,72.0,150.0,0.0,64.0
4384,44.0,120.0,90.0,2.0,64.0
4385,68.0,72.0,390.0,0.0,64.0
4386,60.0,0.0,390.0,0.0,64.0
4387,32.0,120.0,90.0,2.0,64.0
4388,44.0,120.0,90.0,2.0,64.0
4389,32.0,48.0,90.0,2.0,64.0
4390,44.0,120.0,90.0,2.0,64.0
4391,72.0,72.0,150.0,0.0,64.0
4392,66.0,0.0,150.0,0.0,64.0
4393,32.0,48.0,90.0,2.0,64.0
4394,44.0,120.0,90.0,2.0,64.0
4395,64.0,72.0,150.0,0.0,64.0
4396,73.0,0.0,150.0,0.0,64.0
4397,32.0,48.0,90.0,2.0,64.0
4398,44.0,120.0,90.0,2.0,64.0
4399,32.0,48.0,90.0,2.0,64.0
4400,75.0,72.0,150.0,0.0,64.0
4401,72.0,0.0,150.0,0.0,64.0
4402,44.0,120.0,90.0,2.0,64.0
4403,32.0,48.0,90.0,2.0,64.0
4404,73.0,72.0,150.0,0.0,64.0
4405,76.0,0.0,150.0,0.0,64.0
4406,44.0,120.0,90.0,2.0,64.0
4407,79.0,0.0,150.0,0.0,64.0
4408,70.0,72.0,150.0,0.0,64.0
4409,32.0,48.0,90.0,2.0,64.0
4410,44.0,120.0,90.0,2.0,64.0
4411,68.0,0.0,300.0,0.0,64.0
4412,75.0,48.0,300.0,0.0,64.0
4413,80.0,0.0,300.0,0.0,64.0
4414,71.0,0.0,300.0,0.0,64.0
4415,32.0,120.0,90.0,2.0,64.0
4416,44.0,72.0,90.0,2.0,64.0
4417,32.0,120.0,90.0,2.0,64.0
4418,44.0,120.0,90.0,2.0,64.0
4419,34.0,120.0,90.0,2.0,64.0
4420,73.0,0.0,300.0,0.0,64.0
4421,63.0,0.0,300.0,0.0,64.0
4422,75.0,0.0,300.0,0.0,64.0
4423,67.0,48.0,300.0,0.0,64.0
4424,46.0,72.0,90.0,2.0,64.0
4425,34.0,120.0,90.0,2.0,64.0
4426,46.0,120.0,90.0,2.0,64.0
4427,35.0,120.0,90.0,2.0,64.0
4428,63.0,48.0,300.0,0.0,64.0
4429,71.0,0.0,300.0,0.0,64.0
4430,68.0,0.0,300.0,0.0,64.0
4431,47.0,72.0,90.0,2.0,64.0
4432,35.0,120.0,90.0,2.0,64.0
4433,47.0,120.0,90.0,2.0,64.0
4434,70.0,48.0,300.0,0.0,64.0
4435,64.0,0.0,300.0,0.0,64.0
4436,61.0,0.0,300.0,0.0,64.0
4437,37.0,120.0,90.0,2.0,64.0
4438,49.0,72.0,90.0,2.0,64.0
4439,37.0,120.0,90.0,2.0,64.0
4440,49.0,120.0,90.0,2.0,64.0
4441,63.0,96.0,480.0,1.0,64.0
4442,39.0,120.0,90.0,2.0,64.0
4443,59.0,0.0,1440.0,0.0,64.0
4444,68.0,96.0,1440.0,0.0,64.0
4445,51.0,120.0,90.0,2.0,64.0
4446,39.0,120.0,90.0,2.0,64.0
4447,51.0,24.0,90.0,2.0,64.0
4448,62.0,96.0,480.0,1.0,64.0
4449,39.0,120.0,90.0,2.0,64.0
4450,51.0,120.0,90.0,2.0,64.0
4451,39.0,120.0,90.0,2.0,64.0
4452,51.0,24.0,90.0,2.0,64.0
4453,37.0,120.0,90.0,2.0,64.0
4454,65.0,0.0,480.0,1.0,64.0
4455,49.0,120.0,90.0,2.0,64.0
4456,37.0,120.0,90.0,2.0,64.0
4457,49.0,24.0,90.0,2.0,64.0
4458,61.0,0.0,480.0,1.0,64.0
4459,39.0,120.0,90.0,2.0,64.0
4460,67.0,0.0,480.0,0.0,64.0
4461,58.0,96.0,480.0,0.0,64.0
4462,51.0,120.0,90.0,2.0,64.0
4463,39.0,120.0,90.0,2.0,64.0
4464,51.0,24.0,90.0,2.0,64.0
4465,56.0,72.0,150.0,0.0,64.0
4466,59.0,0.0,150.0,0.0,64.0
4467,68.0,0.0,150.0,0.0,64.0
4468,32.0,48.0,90.0,2.0,64.0
4469,44.0,120.0,90.0,2.0,64.0
4470,56.0,72.0,390.0,0.0,64.0
4471,32.0,120.0,90.0,2.0,64.0
4472,44.0,120.0,90.0,2.0,64.0
4473,32.0,48.0,90.0,2.0,64.0
4474,44.0,120.0,90.0,2.0,64.0
4475,32.0,48.0,90.0,2.0,64.0
4476,60.0,72.0,150.0,0.0,64.0
4477,54.0,0.0,150.0,0.0,64.0
4478,44.0,120.0,90.0,2.0,64.0
4479,32.0,48.0,90.0,2.0,64.0
4480,61.0,0.0,150.0,0.0,64.0
4481,52.0,72.0,150.0,0.0,64.0
4482,44.0,120.0,90.0,2.0,64.0
4483,63.0,72.0,150.0,0.0,64.0
4484,60.0,0.0,150.0,0.0,64.0
4485,32.0,48.0,90.0,2.0,64.0
4486,44.0,120.0,90.0,2.0,64.0
4487,64.0,72.0,150.0,0.0,64.0
4488,61.0,0.0,150.0,0.0,64.0
4489,32.0,48.0,90.0,2.0,64.0
4490,44.0,120.0,90.0,2.0,64.0
4491,67.0,72.0,150.0,0.0,64.0
4492,58.0,0.0,150.0,0.0,64.0
4493,32.0,48.0,90.0,2.0,64.0
4494,44.0,120.0,90.0,2.0,64.0
4495,32.0,48.0,90.0,2.0,64.0
4496,68.0,72.0,150.0,0.0,64.0
4497,59.0,0.0,150.0,0.0,64.0
4498,44.0,120.0,90.0,2.0,64.0
4499,32.0,120.0,90.0,2.0,64.0
4500,60.0,0.0,390.0,0.0,64.0
4501,68.0,72.0,390.0,0.0,64.0
4502,44.0,120.0,90.0,2.0,64.0
4503,32.0,48.0,90.0,2.0,64.0
4504,44.0,120.0,90.0,2.0,64.0
4505,66.0,72.0,150.0,0.0,64.0
4506,72.0,0.0,150.0,0.0,64.0
4507,32.0,48.0,90.0,2.0,64.0
4508,44.0,120.0,90.0,2.0,64.0
4509,73.0,0.0,150.0,0.0,64.0
4510,64.0,72.0,150.0,0.0,64.0
4511,32.0,48.0,90.0,2.0,64.0
4512,44.0,120.0,90.0,2.0,64.0
4513,32.0,48.0,90.0,2.0,64.0
4514,72.0,72.0,150.0,0.0,64.0
4515,75.0,0.0,150.0,0.0,64.0
4516,44.0,120.0,90.0,2.0,64.0
4517,73.0,0.0,150.0,0.0,64.0
4518,76.0,72.0,150.0,0.0,64.0
4519,32.0,48.0,90.0,2.0,64.0
4520,44.0,120.0,90.0,2.0,64.0
4521,79.0,72.0,150.0,0.0,64.0
4522,70.0,0.0,150.0,0.0,64.0
4523,32.0,48.0,90.0,2.0,64.0
4524,44.0,120.0,90.0,2.0,64.0
4525,32.0,120.0,90.0,2.0,64.0
4526,68.0,0.0,300.0,0.0,64.0
4527,75.0,0.0,300.0,0.0,64.0
4528,80.0,0.0,300.0,0.0,64.0
4529,71.0,48.0,300.0,0.0,64.0
4530,44.0,72.0,90.0,2.0,64.0
4531,32.0,120.0,90.0,2.0,64.0
4532,44.0,120.0,90.0,2.0,64.0
4533,32.0,120.0,90.0,2.0,64.0
4534,76.0,0.0,300.0,0.0,64.0
4535,71.0,48.0,300.0,0.0,64.0
4536,64.0,0.0,300.0,0.0,64.0
4537,44.0,72.0,90.0,2.0,64.0
4538,32.0,120.0,90.0,2.0,64.0
4539,44.0,120.0,90.0,2.0,64.0
4540,73.0,48.0,300.0,0.0,64.0
4541,69.0,0.0,300.0,0.0,64.0
4542,64.0,0.0,300.0,0.0,64.0
4543,33.0,120.0,90.0,2.0,64.0
4544,45.0,72.0,90.0,2.0,64.0
4545,33.0,120.0,90.0,2.0,64.0
4546,45.0,120.0,90.0,2.0,64.0
4547,68.0,48.0,300.0,0.0,64.0
4548,62.0,0.0,300.0,0.0,64.0
4549,71.0,0.0,300.0,0.0,64.0
4550,35.0,120.0,90.0,2.0,64.0
4551,47.0,72.0,90.0,2.0,64.0
4552,35.0,120.0,90.0,2.0,64.0
4553,47.0,120.0,90.0,2.0,64.0
4554,37.0,120.0,90.0,2.0,64.0
4555,69.0,0.0,300.0,0.0,64.0
4556,64.0,0.0,300.0,0.0,64.0
4557,61.0,48.0,300.0,0.0,64.0
4558,49.0,72.0,90.0,2.0,64.0
4559,37.0,120.0,90.0,2.0,64.0
4560,49.0,120.0,90.0,2.0,64.0
4561,38.0,120.0,90.0,2.0,64.0
4562,57.0,0.0,300.0,0.0,64.0
4563,66.0,0.0,300.0,0.0,64.0
4564,62.0,48.0,300.0,0.0,64.0
4565,50.0,72.0,90.0,2.0,64.0
4566,38.0,120.0,90.0,2.0,64.0
4567,50.0,120.0,90.0,2.0,64.0
4568,40.0,120.0,90.0,2.0,64.0
4569,61.0,96.0,480.0,1.0,64.0
4570,57.0,0.0,480.0,1.0,64.0
4571,64.0,96.0,960.0,0.0,64.0
4572,52.0,120.0,90.0,2.0,64.0
4573,40.0,120.0,90.0,2.0,64.0
4574,52.0,24.0,90.0,2.0,64.0
4575,59.0,0.0,480.0,1.0,64.0
4576,56.0,0.0,480.0,1.0,64.0
4577,40.0,120.0,90.0,2.0,64.0
4578,52.0,120.0,90.0,2.0,64.0
4579,40.0,120.0,90.0,2.0,64.0
4580,52.0,24.0,90.0,2.0,64.0
4581,40.0,120.0,90.0,2.0,64.0
4582,58.0,48.0,300.0,0.0,64.0
4583,66.0,0.0,300.0,0.0,64.0
4584,61.0,0.0,300.0,0.0,64.0
4585,52.0,72.0,90.0,2.0,64.0
4586,40.0,120.0,90.0,2.0,64.0
4587,52.0,120.0,90.0,2.0,64.0
4588,34.0,120.0,90.0,2.0,64.0
4589,78.0,0.0,300.0,0.0,64.0
4590,66.0,0.0,300.0,0.0,64.0
4591,73.0,48.0,300.0,0.0,64.0
4592,46.0,72.0,90.0,2.0,64.0
4593,34.0,120.0,90.0,2.0,64.0
4594,46.0,120.0,90.0,2.0,64.0
4595,71.0,0.0,300.0,0.0,64.0
4596,66.0,0.0,300.0,0.0,64.0
4597,35.0,120.0,90.0,2.0,64.0
4598,74.0,48.0,300.0,0.0,64.0
4599,47.0,72.0,90.0,2.0,64.0
4600,35.0,120.0,90.0,2.0,64.0
4601,47.0,120.0,90.0,2.0,64.0
4602,70.0,0.0,300.0,0.0,64.0
4603,73.0,48.0,300.0,0.0,64.0
4604,64.0,0.0,300.0,0.0,64.0
4605,37.0,120.0,90.0,2.0,64.0
4606,49.0,72.0,90.0,2.0,64.0
4607,37.0,120.0,90.0,2.0,64.0
4608,49.0,120.0,90.0,2.0,64.0
4609,71.0,0.0,300.0,0.0,64.0
4610,66.0,48.0,300.0,0.0,64.0
4611,62.0,0.0,300.0,0.0,64.0
4612,38.0,120.0,90.0,2.0,64.0
4613,50.0,72.0,90.0,2.0,64.0
4614,38.0,120.0,90.0,2.0,64.0
4615,50.0,120.0,90.0,2.0,64.0
4616,40.0,120.0,90.0,2.0,64.0
4617,67.0,0.0,300.0,0.0,64.0
4618,64.0,48.0,300.0,0.0,64.0
4619,59.0,0.0,300.0,0.0,64.0
4620,52.0,72.0,90.0,2.0,64.0
4621,40.0,120.0,90.0,2.0,64.0
4622,52.0,120.0,90.0,2.0,64.0
4623,66.0,0.0,960.0,0.0,64.0
4624,59.0,96.0,480.0,1.0,64.0
4625,62.0,0.0,480.0,1.0,64.0
4626,42.0,120.0,90.0,2.0,64.0
4627,54.0,120.0,90.0,2.0,64.0
4628,42.0,120.0,90.0,2.0,64.0
4629,54.0,24.0,90.0,2.0,64.0
4630,58.0,0.0,480.0,1.0,64.0
4631,61.0,96.0,480.0,1.0,64.0
4632,42.0,120.0,90.0,2.0,64.0
4633,54.0,120.0,90.0,2.0,64.0
4634,42.0,120.0,90.0,2.0,64.0
4635,54.0,24.0,90.0,2.0,64.0
4636,60.0,0.0,300.0,0.0,64.0
4637,42.0,120.0,90.0,2.0,64.0
4638,63.0,48.0,300.0,0.0,64.0
4639,68.0,0.0,300.0,0.0,64.0
4640,54.0,72.0,90.0,2.0,64.0
4641,42.0,120.0,90.0,2.0,64.0
4642,54.0,120.0,90.0,2.0,64.0
4643,80.0,0.0,300.0,0.0,64.0
4644,36.0,120.0,90.0,2.0,64.0
4645,75.0,0.0,300.0,0.0,64.0
4646,68.0,48.0,300.0,0.0,64.0
4647,48.0,72.0,90.0,2.0,64.0
4648,36.0,120.0,90.0,2.0,64.0
4649,48.0,120.0,90.0,2.0,64.0
4650,76.0,0.0,300.0,0.0,64.0
4651,73.0,0.0,300.0,0.0,64.0
4652,37.0,120.0,90.0,2.0,64.0
4653,68.0,48.0,300.0,0.0,64.0
4654,49.0,72.0,90.0,2.0,64.0
4655,37.0,120.0,90.0,2.0,64.0
4656,49.0,120.0,90.0,2.0,64.0
4657,72.0,0.0,300.0,0.0,64.0
4658,75.0,48.0,300.0,0.0,64.0
4659,66.0,0.0,300.0,0.0,64.0
4660,39.0,120.0,90.0,2.0,64.0
4661,51.0,72.0,90.0,2.0,64.0
4662,39.0,120.0,90.0,2.0,64.0
4663,51.0,120.0,90.0,2.0,64.0
4664,68.0,0.0,300.0,0.0,64.0
4665,73.0,48.0,300.0,0.0,64.0
4666,64.0,0.0,300.0,0.0,64.0
4667,40.0,120.0,90.0,2.0,64.0
4668,52.0,72.0,90.0,2.0,64.0
4669,40.0,120.0,90.0,2.0,64.0
4670,52.0,120.0,90.0,2.0,64.0
4671,69.0,48.0,300.0,0.0,64.0
4672,61.0,0.0,300.0,0.0,64.0
4673,42.0,120.0,90.0,2.0,64.0
4674,54.0,72.0,90.0,2.0,64.0
4675,42.0,120.0,90.0,2.0,64.0
4676,54.0,120.0,90.0,2.0,64.0
4677,44.0,120.0,90.0,2.0,64.0
4678,68.0,0.0,300.0,0.0,64.0
4679,61.0,48.0,300.0,0.0,64.0
4680,56.0,72.0,90.0,2.0,64.0
4681,44.0,120.0,90.0,2.0,64.0
4682,56.0,120.0,90.0,2.0,64.0
4683,45.0,120.0,90.0,2.0,64.0
4684,61.0,48.0,300.0,0.0,64.0
4685,67.0,0.0,300.0,0.0,64.0
4686,57.0,72.0,90.0,2.0,64.0
4687,45.0,120.0,90.0,2.0,64.0
4688,57.0,168.0,90.0,2.0,64.0
4689,60.0,0.0,150.0,0.0,64.0
4690,56.0,0.0,150.0,2.0,64.0
4691,68.0,336.0,150.0,0.0,64.0
4692,44.0,0.0,150.0,2.0,64.0
4693,55.0,240.0,240.0,1.0,64.0
4694,56.0,240.0,240.0,1.0,64.0
4695,55.0,240.0,240.0,1.0,64.0
4696,56.0,240.0,240.0,1.0,64.0
4697,55.0,240.0,240.0,1.0,64.0
4698,56.0,240.0,240.0,1.0,64.0
4699,55.0,384.0,240.0,1.0,64.0
4700,56.0,96.0,780.0,1.0,64.0
4701,44.0,48.0,150.0,2.0,64.0
4702,61.0,192.0,180.0,1.0,64.0
4703,64.0,0.0,180.0,1.0,64.0
4704,61.0,96.0,180.0,1.0,64.0
4705,64.0,0.0,180.0,1.0,64.0
4706,49.0,48.0,150.0,2.0,64.0
4707,51.0,48.0,150.0,2.0,64.0
4708,61.0,0.0,180.0,1.0,64.0
4709,64.0,192.0,180.0,1.0,64.0
4710,52.0,288.0,150.0,2.0,64.0
4711,56.0,144.0,780.0,1.0,64.0
4712,68.0,0.0,180.0,0.0,64.0
4713,61.0,240.0,180.0,1.0,64.0
4714,64.0,0.0,180.0,1.0,64.0
4715,64.0,0.0,180.0,1.0,64.0
4716,73.0,0.0,180.0,0.0,64.0
4717,61.0,96.0,180.0,1.0,64.0
4718,75.0,108.0,180.0,0.0,64.0
4719,61.0,0.0,180.0,1.0,64.0
4720,64.0,0.0,180.0,1.0,64.0
4721,56.0,144.0,780.0,1.0,64.0
4722,68.0,372.0,60.0,0.0,64.0
4723,76.0,48.0,660.0,0.0,64.0
4724,64.0,240.0,180.0,1.0,64.0
4725,61.0,0.0,180.0,1.0,64.0
4726,64.0,48.0,180.0,1.0,64.0
4727,61.0,0.0,180.0,1.0,64.0
4728,73.0,60.0,240.0,0.0,64.0
4729,61.0,48.0,180.0,1.0,64.0
4730,64.0,0.0,180.0,1.0,64.0
4731,68.0,372.0,60.0,0.0,64.0
4732,56.0,144.0,780.0,1.0,64.0
4733,76.0,48.0,660.0,0.0,64.0
4734,61.0,240.0,180.0,1.0,64.0
4735,64.0,0.0,180.0,1.0,64.0
4736,61.0,48.0,180.0,1.0,64.0
4737,64.0,0.0,180.0,1.0,64.0
4738,73.0,192.0,240.0,0.0,64.0
4739,61.0,0.0,180.0,1.0,64.0
4740,64.0,48.0,180.0,1.0,64.0
4741,56.0,96.0,780.0,1.0,64.0
4742,72.0,192.0,180.0,0.0,64.0
4743,63.0,192.0,180.0,1.0,64.0
4744,44.0,48.0,150.0,2.0,64.0
4745,66.0,0.0,180.0,1.0,64.0
4746,51.0,48.0,150.0,2.0,64.0
4747,66.0,96.0,180.0,1.0,64.0
4748,63.0,0.0,180.0,1.0,64.0
4749,66.0,0.0,180.0,1.0,64.0
4750,63.0,192.0,180.0,1.0,64.0
4751,52.0,48.0,150.0,2.0,64.0
4752,56.0,144.0,780.0,1.0,64.0
4753,54.0,288.0,150.0,2.0,64.0
4754,68.0,240.0,180.0,0.0,64.0
4755,66.0,0.0,180.0,1.0,64.0
4756,63.0,0.0,180.0,1.0,64.0
4757,63.0,0.0,180.0,1.0,64.0
4758,66.0,96.0,180.0,1.0,64.0
4759,78.0,0.0,180.0,0.0,64.0
4760,76.0,0.0,180.0,0.0,64.0
4761,63.0,108.0,180.0,1.0,64.0
4762,66.0,0.0,180.0,1.0,64.0
4763,56.0,144.0,780.0,1.0,64.0
4764,78.0,180.0,60.0,0.0,64.0
4765,76.0,192.0,180.0,0.0,64.0
4766,66.0,108.0,180.0,1.0,64.0
4767,63.0,0.0,180.0,1.0,64.0
4768,75.0,0.0,180.0,0.0,64.0
4769,63.0,0.0,180.0,1.0,64.0
4770,66.0,48.0,180.0,1.0,64.0
4771,76.0,132.0,60.0,0.0,64.0
4772,75.0,48.0,180.0,0.0,64.0
4773,73.0,0.0,180.0,0.0,64.0
4774,66.0,0.0,180.0,1.0,64.0
4775,63.0,108.0,180.0,1.0,64.0
4776,75.0,180.0,60.0,0.0,64.0
4777,56.0,96.0,780.0,1.0,64.0
4778,73.0,144.0,180.0,0.0,64.0
4779,72.0,48.0,150.0,0.0,64.0
4780,66.0,192.0,180.0,1.0,64.0
4781,63.0,0.0,180.0,1.0,64.0
4782,66.0,96.0,180.0,1.0,64.0
4783,70.0,48.0,150.0,0.0,64.0
4784,63.0,0.0,180.0,1.0,64.0
4785,66.0,0.0,180.0,1.0,64.0
4786,72.0,48.0,150.0,0.0,64.0
4787,63.0,192.0,180.0,1.0,64.0
4788,73.0,240.0,150.0,0.0,64.0
4789,56.0,96.0,780.0,1.0,64.0
4790,44.0,48.0,150.0,2.0,64.0
4791,61.0,0.0,180.0,1.0,64.0
4792,64.0,192.0,180.0,1.0,64.0
4793,49.0,48.0,150.0,2.0,64.0
4794,64.0,96.0,180.0,1.0,64.0
4795,61.0,0.0,180.0,1.0,64.0
4796,64.0,0.0,180.0,1.0,64.0
4797,51.0,48.0,150.0,2.0,64.0
4798,61.0,192.0,180.0,1.0,64.0
4799,52.0,240.0,150.0,2.0,64.0
4800,56.0,96.0,780.0,1.0,64.0
4801,61.0,0.0,180.0,1.0,64.0
4802,64.0,192.0,180.0,1.0,64.0
4803,68.0,48.0,150.0,0.0,64.0
4804,73.0,48.0,150.0,0.0,64.0
4805,64.0,0.0,180.0,1.0,64.0
4806,61.0,96.0,180.0,1.0,64.0
4807,61.0,0.0,180.0,1.0,64.0
4808,64.0,108.0,180.0,1.0,64.0
4809,76.0,48.0,150.0,0.0,64.0
4810,68.0,372.0,60.0,0.0,64.0
4811,52.0,144.0,780.0,1.0,64.0
4812,80.0,48.0,660.0,0.0,64.0
4813,61.0,0.0,180.0,1.0,64.0
4814,56.0,240.0,180.0,1.0,64.0
4815,61.0,48.0,180.0,1.0,64.0
4816,56.0,0.0,180.0,1.0,64.0
4817,73.0,60.0,240.0,0.0,64.0
4818,61.0,48.0,180.0,1.0,64.0
4819,56.0,0.0,180.0,1.0,64.0
4820,52.0,144.0,780.0,1.0,64.0
4821,73.0,372.0,60.0,0.0,64.0
4822,85.0,48.0,660.0,0.0,64.0
4823,56.0,240.0,180.0,1.0,64.0
4824,61.0,0.0,180.0,1.0,64.0
4825,61.0,48.0,180.0,1.0,64.0
4826,56.0,0.0,180.0,1.0,64.0
4827,80.0,192.0,240.0,0.0,64.0
4828,61.0,48.0,180.0,1.0,64.0
4829,56.0,0.0,180.0,1.0,64.0
4830,79.0,192.0,180.0,0.0,64.0
4831,51.0,96.0,780.0,1.0,64.0
4832,58.0,0.0,180.0,1.0,64.0
4833,61.0,192.0,180.0,1.0,64.0
4834,39.0,48.0,150.0,2.0,64.0
4835,61.0,96.0,180.0,1.0,64.0
4836,58.0,0.0,180.0,1.0,64.0
4837,46.0,48.0,150.0,2.0,64.0
4838,47.0,48.0,150.0,2.0,64.0
4839,61.0,0.0,180.0,1.0,64.0
4840,58.0,192.0,180.0,1.0,64.0
4841,49.0,240.0,150.0,2.0,64.0
4842,51.0,96.0,780.0,1.0,64.0
4843,63.0,48.0,150.0,0.0,64.0
4844,58.0,0.0,180.0,1.0,64.0
4845,61.0,192.0,180.0,1.0,64.0
4846,73.0,48.0,150.0,0.0,64.0
4847,58.0,0.0,180.0,1.0,64.0
4848,61.0,96.0,180.0,1.0,64.0
4849,71.0,48.0,150.0,0.0,64.0
4850,61.0,0.0,180.0,1.0,64.0
4851,58.0,108.0,180.0,1.0,64.0
4852,51.0,144.0,780.0,1.0,64.0
4853,73.0,180.0,60.0,0.0,64.0
4854,71.0,192.0,180.0,0.0,64.0
4855,61.0,0.0,180.0,1.0,64.0
4856,58.0,0.0,180.0,1.0,64.0
4857,70.0,108.0,180.0,0.0,64.0
4858,58.0,0.0,180.0,1.0,64.0
4859,61.0,48.0,180.0,1.0,64.0
4860,71.0,132.0,60.0,0.0,64.0
4861,70.0,48.0,180.0,0.0,64.0
4862,58.0,0.0,180.0,1.0,64.0
4863,68.0,0.0,180.0,0.0,64.0
4864,61.0,108.0,180.0,1.0,64.0
4865,51.0,96.0,780.0,1.0,64.0
4866,70.0,180.0,60.0,0.0,64.0
4867,68.0,144.0,180.0,0.0,64.0
4868,58.0,192.0,180.0,1.0,64.0
4869,67.0,48.0,150.0,0.0,64.0
4870,61.0,0.0,180.0,1.0,64.0
4871,65.0,48.0,150.0,0.0,64.0
4872,58.0,96.0,180.0,1.0,64.0
4873,61.0,0.0,180.0,1.0,64.0
4874,58.0,192.0,180.0,1.0,64.0
4875,61.0,0.0,180.0,1.0,64.0
4876,67.0,48.0,150.0,0.0,64.0
4877,51.0,96.0,780.0,1.0,64.0
4878,68.0,240.0,150.0,0.0,64.0
4879,56.0,0.0,180.0,1.0,64.0
4880,59.0,192.0,180.0,1.0,64.0
4881,39.0,48.0,150.0,2.0,64.0
4882,59.0,0.0,180.0,1.0,64.0
4883,44.0,48.0,150.0,2.0,64.0
4884,56.0,96.0,180.0,1.0,64.0
4885,46.0,48.0,150.0,2.0,64.0
4886,59.0,0.0,180.0,1.0,64.0
4887,56.0,192.0,180.0,1.0,64.0
4888,51.0,96.0,780.0,1.0,64.0
4889,47.0,240.0,150.0,2.0,64.0
4890,56.0,192.0,180.0,1.0,64.0
4891,59.0,0.0,180.0,1.0,64.0
4892,75.0,48.0,150.0,0.0,64.0
4893,59.0,96.0,180.0,1.0,64.0
4894,56.0,0.0,180.0,1.0,64.0
4895,80.0,48.0,150.0,0.0,64.0
4896,59.0,0.0,180.0,1.0,64.0
4897,82.0,48.0,150.0,0.0,64.0
4898,56.0,108.0,180.0,1.0,64.0
4899,75.0,372.0,60.0,0.0,64.0
4900,51.0,144.0,780.0,1.0,64.0
4901,83.0,48.0,660.0,0.0,64.0
4902,59.0,240.0,180.0,1.0,64.0
4903,56.0,0.0,180.0,1.0,64.0
4904,59.0,48.0,180.0,1.0,64.0
4905,56.0,0.0,180.0,1.0,64.0
4906,80.0,60.0,240.0,0.0,64.0
4907,56.0,48.0,180.0,1.0,64.0
4908,59.0,0.0,180.0,1.0,64.0
4909,75.0,372.0,60.0,0.0,64.0
4910,51.0,144.0,780.0,1.0,64.0
4911,83.0,48.0,660.0,0.0,64.0
4912,56.0,240.0,180.0,1.0,64.0
4913,59.0,0.0,180.0,1.0,64.0
4914,56.0,48.0,180.0,1.0,64.0
4915,59.0,0.0,180.0,1.0,64.0
4916,56.0,0.0,180.0,1.0,64.0
4917,59.0,48.0,180.0,1.0,64.0
4918,80.0,144.0,240.0,0.0,64.0
4919,79.0,240.0,150.0,0.0,64.0
4920,51.0,96.0,780.0,1.0,64.0
4921,39.0,48.0,150.0,2.0,64.0
4922,58.0,192.0,180.0,1.0,64.0
4923,61.0,0.0,180.0,1.0,64.0
4924,61.0,96.0,180.0,1.0,64.0
4925,58.0,0.0,180.0,1.0,64.0
4926,46.0,48.0,150.0,2.0,64.0
4927,58.0,0.0,180.0,1.0,64.0
4928,47.0,48.0,150.0,2.0,64.0
4929,61.0,192.0,180.0,1.0,64.0
4930,51.0,144.0,780.0,1.0,64.0
4931,49.0,288.0,150.0,2.0,64.0
4932,58.0,48.0,180.0,1.0,64.0
4933,61.0,0.0,180.0,1.0,64.0
4934,75.0,192.0,240.0,0.0,64.0
4935,61.0,0.0,180.0,1.0,64.0
4936,85.0,48.0,240.0,0.0,64.0
4937,58.0,48.0,180.0,1.0,64.0
4938,58.0,0.0,180.0,1.0,64.0
4939,83.0,60.0,240.0,0.0,64.0
4940,61.0,48.0,180.0,1.0,64.0
4941,51.0,144.0,780.0,1.0,64.0
4942,85.0,180.0,60.0,0.0,64.0
4943,83.0,192.0,180.0,0.0,64.0
4944,58.0,0.0,180.0,1.0,64.0
4945,61.0,108.0,180.0,1.0,64.0
4946,82.0,0.0,180.0,0.0,64.0
4947,83.0,132.0,60.0,0.0,64.0
4948,58.0,48.0,180.0,1.0,64.0
4949,61.0,0.0,180.0,1.0,64.0
4950,82.0,48.0,180.0,0.0,64.0
4951,61.0,0.0,180.0,1.0,64.0
4952,80.0,0.0,180.0,0.0,64.0
4953,58.0,108.0,180.0,1.0,64.0
4954,82.0,180.0,60.0,0.0,64.0
4955,51.0,144.0,780.0,1.0,64.0
4956,80.0,192.0,180.0,0.0,64.0
4957,79.0,0.0,180.0,0.0,64.0
4958,58.0,240.0,180.0,1.0,64.0
4959,61.0,0.0,180.0,1.0,64.0
4960,58.0,0.0,180.0,1.0,64.0
4961,61.0,48.0,180.0,1.0,64.0
4962,77.0,48.0,240.0,0.0,64.0
4963,58.0,48.0,180.0,1.0,64.0
4964,61.0,0.0,180.0,1.0,64.0
4965,79.0,60.0,240.0,0.0,64.0
4966,83.0,180.0,60.0,0.0,64.0
4967,56.0,144.0,780.0,1.0,64.0
4968,82.0,192.0,180.0,0.0,64.0
4969,80.0,0.0,180.0,0.0,64.0
4970,59.0,0.0,180.0,1.0,64.0
4971,63.0,108.0,180.0,1.0,64.0
4972,82.0,132.0,60.0,0.0,64.0
4973,63.0,48.0,180.0,1.0,64.0
4974,59.0,0.0,180.0,1.0,64.0
4975,80.0,48.0,180.0,0.0,64.0
4976,78.0,0.0,180.0,0.0,64.0
4977,59.0,0.0,180.0,1.0,64.0
4978,63.0,108.0,180.0,1.0,64.0
4979,80.0,180.0,60.0,0.0,64.0
4980,49.0,144.0,780.0,1.0,64.0
4981,78.0,192.0,180.0,0.0,64.0
4982,77.0,240.0,180.0,0.0,64.0
4983,61.0,0.0,180.0,1.0,64.0
4984,59.0,0.0,180.0,1.0,64.0
4985,61.0,48.0,180.0,1.0,64.0
4986,59.0,0.0,180.0,1.0,64.0
4987,75.0,48.0,240.0,0.0,64.0
4988,59.0,48.0,180.0,1.0,64.0
4989,61.0,0.0,180.0,1.0,64.0
4990,77.0,60.0,240.0,0.0,64.0
4991,54.0,144.0,780.0,1.0,64.0
4992,81.0,180.0,60.0,0.0,64.0
4993,80.0,192.0,180.0,0.0,64.0
4994,57.0,0.0,180.0,1.0,64.0
4995,78.0,108.0,180.0,0.0,64.0
4996,61.0,0.0,180.0,1.0,64.0
4997,80.0,132.0,60.0,0.0,64.0
4998,61.0,48.0,180.0,1.0,64.0
4999,57.0,0.0,180.0,1.0,64.0
5000,78.0,48.0,180.0,0.0,64.0
5001,61.0,108.0,180.0,1.0,64.0
5002,57.0,0.0,180.0,1.0,64.0
5003,76.0,0.0,180.0,0.0,64.0
5004,47.0,144.0,780.0,1.0,64.0
5005,78.0,180.0,60.0,0.0,64.0
5006,76.0,192.0,180.0,0.0,64.0
5007,75.0,240.0,180.0,0.0,64.0
5008,59.0,0.0,180.0,1.0,64.0
5009,57.0,0.0,180.0,1.0,64.0
5010,57.0,0.0,180.0,1.0,64.0
5011,59.0,48.0,180.0,1.0,64.0
5012,73.0,48.0,240.0,0.0,64.0
5013,75.0,60.0,240.0,0.0,64.0
5014,57.0,48.0,180.0,1.0,64.0
5015,59.0,0.0,180.0,1.0,64.0
5016,80.0,180.0,60.0,0.0,64.0
5017,52.0,144.0,780.0,1.0,64.0
5018,78.0,192.0,180.0,0.0,64.0
5019,59.0,108.0,180.0,1.0,64.0
5020,56.0,0.0,180.0,1.0,64.0
5021,76.0,0.0,180.0,0.0,64.0
5022,78.0,132.0,60.0,0.0,64.0
5023,56.0,48.0,180.0,1.0,64.0
5024,59.0,0.0,180.0,1.0,64.0
5025,76.0,48.0,180.0,0.0,64.0
5026,56.0,108.0,180.0,1.0,64.0
5027,59.0,0.0,180.0,1.0,64.0
5028,75.0,0.0,180.0,0.0,64.0
5029,76.0,180.0,60.0,0.0,64.0
5030,52.0,96.0,780.0,1.0,64.0
5031,75.0,144.0,180.0,0.0,64.0
5032,56.0,192.0,180.0,1.0,64.0
5033,59.0,0.0,180.0,1.0,64.0
5034,74.0,48.0,150.0,0.0,64.0
5035,56.0,96.0,180.0,1.0,64.0
5036,59.0,0.0,180.0,1.0,64.0
5037,74.0,48.0,150.0,0.0,64.0
5038,74.0,48.0,150.0,0.0,64.0
5039,59.0,108.0,180.0,1.0,64.0
5040,56.0,0.0,180.0,1.0,64.0
5041,78.0,180.0,60.0,0.0,64.0
5042,51.0,96.0,780.0,1.0,64.0
5043,76.0,144.0,180.0,0.0,64.0
5044,56.0,192.0,180.0,1.0,64.0
5045,75.0,48.0,150.0,0.0,64.0
5046,59.0,0.0,180.0,1.0,64.0
5047,56.0,0.0,180.0,1.0,64.0
5048,59.0,96.0,180.0,1.0,64.0
5049,75.0,48.0,150.0,0.0,64.0
5050,75.0,48.0,150.0,0.0,64.0
5051,56.0,0.0,180.0,1.0,64.0
5052,59.0,108.0,180.0,1.0,64.0
5053,78.0,180.0,60.0,0.0,64.0
5054,51.0,96.0,780.0,1.0,64.0
5055,76.0,144.0,180.0,0.0,64.0
5056,58.0,192.0,180.0,1.0,64.0
5057,55.0,0.0,180.0,1.0,64.0
5058,75.0,48.0,150.0,0.0,64.0
5059,58.0,96.0,180.0,1.0,64.0
5060,75.0,48.0,150.0,0.0,64.0
5061,55.0,0.0,180.0,1.0,64.0
5062,75.0,48.0,150.0,0.0,64.0
5063,55.0,288.0,180.0,1.0,64.0
5064,58.0,0.0,180.0,1.0,64.0
5065,44.0,96.0,1350.0,2.0,64.0
5066,56.0,120.0,120.0,1.0,64.0
5067,51.0,0.0,120.0,1.0,64.0
5068,47.0,120.0,120.0,1.0,64.0
5069,59.0,0.0,120.0,1.0,64.0
5070,56.0,0.0,120.0,1.0,64.0
5071,51.0,120.0,120.0,1.0,64.0
5072,47.0,120.0,120.0,1.0,64.0
5073,68.0,0.0,870.0,0.0,64.0
5074,56.0,120.0,120.0,1.0,64.0
5075,51.0,0.0,120.0,1.0,64.0
5076,47.0,120.0,120.0,1.0,64.0
5077,59.0,0.0,120.0,1.0,64.0
5078,51.0,120.0,120.0,1.0,64.0
5079,56.0,0.0,120.0,1.0,64.0
5080,59.0,120.0,120.0,1.0,64.0
5081,47.0,0.0,120.0,1.0,64.0
5082,56.0,120.0,120.0,1.0,64.0
5083,51.0,0.0,120.0,1.0,64.0
5084,59.0,0.0,120.0,1.0,64.0
5085,47.0,24.0,120.0,1.0,64.0
5086,56.0,0.0,120.0,1.0,64.0
5087,51.0,240.0,120.0,1.0,64.0
5088,68.0,96.0,390.0,0.0,64.0
5089,44.0,0.0,390.0,2.0,64.0
5090,56.0,0.0,120.0,1.0,64.0
5091,51.0,120.0,120.0,1.0,64.0
5092,59.0,24.0,120.0,1.0,64.0
5093,47.0,0.0,120.0,1.0,64.0
5094,51.0,240.0,120.0,1.0,64.0
5095,56.0,0.0,120.0,1.0,64.0
5096,42.0,96.0,1350.0,2.0,64.0
5097,57.0,120.0,120.0,1.0,64.0
5098,51.0,0.0,120.0,1.0,64.0
5099,60.0,0.0,120.0,1.0,64.0
5100,48.0,120.0,120.0,1.0,64.0
5101,57.0,120.0,120.0,1.0,64.0
5102,51.0,0.0,120.0,1.0,64.0
5103,48.0,120.0,120.0,1.0,64.0
5104,69.0,0.0,870.0,0.0,64.0
5105,57.0,120.0,120.0,1.0,64.0
5106,51.0,0.0,120.0,1.0,64.0
5107,60.0,0.0,120.0,1.0,64.0
5108,48.0,120.0,120.0,1.0,64.0
5109,57.0,120.0,120.0,1.0,64.0
5110,51.0,0.0,120.0,1.0,64.0
5111,60.0,120.0,120.0,1.0,64.0
5112,48.0,0.0,120.0,1.0,64.0
5113,51.0,0.0,120.0,1.0,64.0
5114,57.0,120.0,120.0,1.0,64.0
5115,60.0,24.0,120.0,1.0,64.0
5116,48.0,0.0,120.0,1.0,64.0
5117,57.0,240.0,120.0,1.0,64.0
5118,51.0,0.0,120.0,1.0,64.0
5119,42.0,96.0,390.0,2.0,64.0
5120,69.0,0.0,390.0,0.0,64.0
5121,57.0,120.0,120.0,1.0,64.0
5122,51.0,0.0,120.0,1.0,64.0
5123,48.0,24.0,120.0,1.0,64.0
5124,60.0,0.0,120.0,1.0,64.0
5125,57.0,72.0,120.0,1.0,64.0
5126,51.0,0.0,120.0,1.0,64.0
5127,40.0,144.0,60.0,2.0,64.0
5128,68.0,0.0,60.0,0.0,64.0
5129,52.0,120.0,90.0,2.0,64.0
5130,56.0,0.0,90.0,0.0,64.0
5131,61.0,0.0,90.0,0.0,64.0
5132,44.0,120.0,90.0,2.0,64.0
5133,56.0,96.0,90.0,0.0,64.0
5134,52.0,0.0,90.0,2.0,64.0
5135,72.0,0.0,60.0,0.0,64.0
5136,42.0,144.0,60.0,2.0,64.0
5137,54.0,0.0,90.0,2.0,64.0
5138,60.0,120.0,90.0,0.0,64.0
5139,68.0,0.0,90.0,0.0,64.0
5140,44.0,120.0,90.0,2.0,64.0
5141,60.0,96.0,90.0,0.0,64.0
5142,54.0,0.0,90.0,2.0,64.0
5143,73.0,0.0,60.0,0.0,64.0
5144,40.0,144.0,60.0,2.0,64.0
5145,61.0,0.0,90.0,0.0,64.0
5146,52.0,120.0,90.0,2.0,64.0
5147,44.0,0.0,90.0,2.0,64.0
5148,68.0,120.0,90.0,0.0,64.0
5149,52.0,96.0,90.0,2.0,64.0
5150,61.0,0.0,90.0,0.0,64.0
5151,75.0,144.0,60.0,0.0,64.0
5152,39.0,0.0,60.0,2.0,64.0
5153,63.0,120.0,90.0,0.0,64.0
5154,51.0,0.0,90.0,2.0,64.0
5155,44.0,0.0,90.0,2.0,64.0
5156,68.0,120.0,90.0,0.0,64.0
5157,51.0,96.0,90.0,2.0,64.0
5158,63.0,0.0,90.0,0.0,64.0
5159,37.0,0.0,60.0,2.0,64.0
5160,76.0,144.0,60.0,0.0,64.0
5161,49.0,120.0,90.0,2.0,64.0
5162,64.0,0.0,90.0,0.0,64.0
5163,44.0,0.0,90.0,2.0,64.0
5164,68.0,120.0,90.0,0.0,64.0
5165,49.0,96.0,90.0,2.0,64.0
5166,64.0,0.0,90.0,0.0,64.0
5167,35.0,144.0,60.0,2.0,64.0
5168,77.0,0.0,60.0,0.0,64.0
5169,47.0,0.0,90.0,2.0,64.0
5170,65.0,120.0,90.0,0.0,64.0
5171,68.0,120.0,90.0,0.0,64.0
5172,44.0,0.0,90.0,2.0,64.0
5173,65.0,0.0,90.0,0.0,64.0
5174,47.0,96.0,90.0,2.0,64.0
5175,34.0,0.0,60.0,2.0,64.0
5176,79.0,144.0,60.0,0.0,64.0
5177,67.0,120.0,90.0,0.0,64.0
5178,46.0,0.0,90.0,2.0,64.0
5179,39.0,0.0,90.0,2.0,64.0
5180,73.0,120.0,90.0,0.0,64.0
5181,46.0,0.0,90.0,2.0,64.0
5182,67.0,96.0,90.0,0.0,64.0
5183,32.0,0.0,60.0,2.0,64.0
5184,80.0,144.0,60.0,0.0,64.0
5185,44.0,0.0,90.0,2.0,64.0
5186,68.0,120.0,90.0,0.0,64.0
5187,39.0,120.0,90.0,2.0,64.0
5188,73.0,0.0,90.0,0.0,64.0
5189,68.0,0.0,90.0,0.0,64.0
5190,44.0,96.0,90.0,2.0,64.0
5191,82.0,144.0,60.0,0.0,64.0
5192,31.0,0.0,60.0,2.0,64.0
5193,43.0,0.0,90.0,2.0,64.0
5194,70.0,120.0,90.0,0.0,64.0
5195,73.0,0.0,90.0,0.0,64.0
5196,39.0,120.0,90.0,2.0,64.0
5197,70.0,96.0,90.0,0.0,64.0
5198,43.0,0.0,90.0,2.0,64.0
5199,30.0,0.0,60.0,2.0,64.0
5200,84.0,144.0,60.0,0.0,64.0
5201,72.0,0.0,90.0,0.0,64.0
5202,42.0,120.0,90.0,2.0,64.0
5203,75.0,120.0,90.0,0.0,64.0
5204,32.0,0.0,90.0,2.0,64.0
5205,42.0,96.0,90.0,2.0,64.0
5206,72.0,0.0,90.0,0.0,64.0
5207,28.0,0.0,60.0,2.0,64.0
5208,85.0,144.0,60.0,0.0,64.0
5209,73.0,0.0,90.0,0.0,64.0
5210,40.0,120.0,90.0,2.0,64.0
5211,32.0,0.0,90.0,2.0,64.0
5212,76.0,120.0,90.0,0.0,64.0
5213,40.0,0.0,90.0,2.0,64.0
5214,73.0,96.0,90.0,0.0,64.0
5215,25.0,0.0,60.0,2.0,64.0
5216,82.0,144.0,60.0,0.0,64.0
5217,37.0,120.0,90.0,2.0,64.0
5218,73.0,0.0,90.0,0.0,64.0
5219,32.0,120.0,90.0,2.0,64.0
5220,76.0,0.0,90.0,0.0,64.0
5221,73.0,0.0,90.0,0.0,64.0
5222,37.0,216.0,90.0,2.0,64.0
5223,27.0,24.0,180.0,2.0,64.0
5224,39.0,0.0,180.0,2.0,64.0
5225,71.0,120.0,90.0,0.0,64.0
5226,75.0,120.0,90.0,0.0,64.0
5227,71.0,96.0,90.0,0.0,64.0
5228,80.0,144.0,60.0,0.0,64.0
5229,71.0,120.0,90.0,0.0,64.0
5230,75.0,120.0,90.0,0.0,64.0
5231,71.0,216.0,90.0,0.0,64.0
5232,39.0,24.0,180.0,2.0,64.0
5233,51.0,0.0,180.0,2.0,64.0
5234,70.0,120.0,90.0,0.0,64.0
5235,73.0,120.0,90.0,0.0,64.0
5236,70.0,96.0,90.0,0.0,64.0
5237,79.0,144.0,60.0,0.0,64.0
5238,70.0,120.0,90.0,0.0,64.0
5239,73.0,120.0,90.0,0.0,64.0
5240,70.0,264.0,90.0,0.0,64.0
5241,44.0,0.0,1350.0,2.0,64.0
5242,56.0,0.0,120.0,1.0,64.0
5243,51.0,120.0,120.0,1.0,64.0
5244,47.0,120.0,120.0,1.0,64.0
5245,59.0,0.0,120.0,1.0,64.0
5246,51.0,0.0,120.0,1.0,64.0
5247,56.0,120.0,120.0,1.0,64.0
5248,47.0,120.0,120.0,1.0,64.0
5249,68.0,96.0,870.0,0.0,64.0
5250,51.0,120.0,120.0,1.0,64.0
5251,56.0,0.0,120.0,1.0,64.0
5252,47.0,120.0,120.0,1.0,64.0
5253,59.0,0.0,120.0,1.0,64.0
5254,51.0,0.0,120.0,1.0,64.0
5255,56.0,120.0,120.0,1.0,64.0
5256,47.0,0.0,120.0,1.0,64.0
5257,59.0,120.0,120.0,1.0,64.0
5258,51.0,120.0,120.0,1.0,64.0
5259,56.0,0.0,120.0,1.0,64.0
5260,47.0,24.0,120.0,1.0,64.0
5261,59.0,0.0,120.0,1.0,64.0
5262,56.0,240.0,120.0,1.0,64.0
5263,51.0,0.0,120.0,1.0,64.0
5264,44.0,96.0,390.0,2.0,64.0
5265,68.0,0.0,390.0,0.0,64.0
5266,51.0,0.0,120.0,1.0,64.0
5267,56.0,120.0,120.0,1.0,64.0
5268,59.0,0.0,120.0,1.0,64.0
5269,47.0,24.0,120.0,1.0,64.0
5270,51.0,0.0,120.0,1.0,64.0
5271,56.0,240.0,120.0,1.0,64.0
5272,42.0,0.0,1350.0,2.0,64.0
5273,57.0,0.0,120.0,1.0,64.0
5274,51.0,120.0,120.0,1.0,64.0
5275,48.0,0.0,120.0,1.0,64.0
5276,60.0,120.0,120.0,1.0,64.0
5277,51.0,120.0,120.0,1.0,64.0
5278,57.0,0.0,120.0,1.0,64.0
5279,48.0,120.0,120.0,1.0,64.0
5280,69.0,96.0,870.0,0.0,64.0
5281,51.0,0.0,120.0,1.0,64.0
5282,57.0,120.0,120.0,1.0,64.0
5283,60.0,120.0,120.0,1.0,64.0
5284,48.0,0.0,120.0,1.0,64.0
5285,57.0,120.0,120.0,1.0,64.0
5286,51.0,0.0,120.0,1.0,64.0
5287,60.0,0.0,120.0,1.0,64.0
5288,48.0,120.0,120.0,1.0,64.0
5289,57.0,0.0,120.0,1.0,64.0
5290,51.0,120.0,120.0,1.0,64.0
5291,60.0,24.0,120.0,1.0,64.0
5292,48.0,0.0,120.0,1.0,64.0
5293,57.0,240.0,120.0,1.0,64.0
5294,51.0,0.0,120.0,1.0,64.0
5295,42.0,0.0,390.0,2.0,64.0
5296,69.0,96.0,390.0,0.0,64.0
5297,51.0,0.0,120.0,1.0,64.0
5298,57.0,120.0,120.0,1.0,64.0
5299,48.0,24.0,120.0,1.0,64.0
5300,60.0,0.0,120.0,1.0,64.0
5301,57.0,0.0,120.0,1.0,64.0
5302,51.0,72.0,120.0,1.0,64.0
5303,40.0,144.0,60.0,2.0,64.0
5304,68.0,0.0,60.0,0.0,64.0
5305,56.0,0.0,90.0,0.0,64.0
5306,52.0,120.0,90.0,2.0,64.0
5307,61.0,120.0,90.0,0.0,64.0
5308,44.0,0.0,90.0,2.0,64.0
5309,56.0,0.0,90.0,0.0,64.0
5310,52.0,96.0,90.0,2.0,64.0
5311,42.0,144.0,60.0,2.0,64.0
5312,72.0,0.0,60.0,0.0,64.0
5313,54.0,120.0,90.0,2.0,64.0
5314,60.0,0.0,90.0,0.0,64.0
5315,44.0,0.0,90.0,2.0,64.0
5316,68.0,120.0,90.0,0.0,64.0
5317,54.0,0.0,90.0,2.0,64.0
5318,60.0,96.0,90.0,0.0,64.0
5319,40.0,144.0,60.0,2.0,64.0
5320,73.0,0.0,60.0,0.0,64.0
5321,61.0,120.0,90.0,0.0,64.0
5322,52.0,0.0,90.0,2.0,64.0
5323,68.0,0.0,90.0,0.0,64.0
5324,44.0,120.0,90.0,2.0,64.0
5325,52.0,0.0,90.0,2.0,64.0
5326,61.0,96.0,90.0,0.0,64.0
5327,75.0,144.0,60.0,0.0,64.0
5328,39.0,0.0,60.0,2.0,64.0
5329,51.0,0.0,90.0,2.0,64.0
5330,63.0,120.0,90.0,0.0,64.0
5331,44.0,0.0,90.0,2.0,64.0
5332,68.0,120.0,90.0,0.0,64.0
5333,63.0,0.0,90.0,0.0,64.0
5334,51.0,96.0,90.0,2.0,64.0
5335,76.0,144.0,60.0,0.0,64.0
5336,37.0,0.0,60.0,2.0,64.0
5337,64.0,0.0,90.0,0.0,64.0
5338,49.0,120.0,90.0,2.0,64.0
5339,44.0,120.0,90.0,2.0,64.0
5340,68.0,0.0,90.0,0.0,64.0
5341,64.0,0.0,90.0,0.0,64.0
5342,49.0,96.0,90.0,2.0,64.0
5343,77.0,144.0,60.0,0.0,64.0
5344,35.0,0.0,60.0,2.0,64.0
5345,65.0,120.0,90.0,0.0,64.0
5346,47.0,0.0,90.0,2.0,64.0
5347,68.0,120.0,90.0,0.0,64.0
5348,44.0,0.0,90.0,2.0,64.0
5349,47.0,0.0,90.0,2.0,64.0
5350,65.0,96.0,90.0,0.0,64.0
5351,34.0,0.0,60.0,2.0,64.0
5352,79.0,144.0,60.0,0.0,64.0
5353,46.0,120.0,90.0,2.0,64.0
5354,67.0,0.0,90.0,0.0,64.0
5355,39.0,0.0,90.0,2.0,64.0
5356,73.0,120.0,90.0,0.0,64.0
5357,67.0,0.0,90.0,0.0,64.0
5358,46.0,96.0,90.0,2.0,64.0
5359,80.0,0.0,60.0,0.0,64.0
5360,32.0,144.0,60.0,2.0,64.0
5361,68.0,0.0,90.0,0.0,64.0
5362,44.0,120.0,90.0,2.0,64.0
5363,39.0,0.0,90.0,2.0,64.0
5364,73.0,120.0,90.0,0.0,64.0
5365,44.0,0.0,90.0,2.0,64.0
5366,68.0,96.0,90.0,0.0,64.0
5367,31.0,0.0,60.0,2.0,64.0
5368,82.0,144.0,60.0,0.0,64.0
5369,43.0,0.0,90.0,2.0,64.0
5370,70.0,120.0,90.0,0.0,64.0
5371,39.0,0.0,90.0,2.0,64.0
5372,73.0,120.0,90.0,0.0,64.0
5373,70.0,96.0,90.0,0.0,64.0
5374,43.0,0.0,90.0,2.0,64.0
5375,30.0,0.0,60.0,2.0,64.0
5376,84.0,144.0,60.0,0.0,64.0
5377,42.0,120.0,90.0,2.0,64.0
5378,72.0,0.0,90.0,0.0,64.0
5379,32.0,120.0,90.0,2.0,64.0
5380,75.0,0.0,90.0,0.0,64.0
5381,42.0,96.0,90.0,2.0,64.0
5382,72.0,0.0,90.0,0.0,64.0
5383,85.0,144.0,60.0,0.0,64.0
5384,28.0,0.0,60.0,2.0,64.0
5385,40.0,0.0,90.0,2.0,64.0
5386,73.0,120.0,90.0,0.0,64.0
5387,32.0,0.0,90.0,2.0,64.0
5388,76.0,120.0,90.0,0.0,64.0
5389,40.0,0.0,90.0,2.0,64.0
5390,73.0,96.0,90.0,0.0,64.0
5391,25.0,144.0,60.0,2.0,64.0
5392,82.0,0.0,60.0,0.0,64.0
5393,73.0,0.0,90.0,0.0,64.0
5394,37.0,120.0,90.0,2.0,64.0
5395,76.0,120.0,90.0,0.0,64.0
5396,32.0,0.0,90.0,2.0,64.0
5397,37.0,0.0,90.0,2.0,64.0
5398,73.0,216.0,90.0,0.0,64.0
5399,39.0,24.0,180.0,2.0,64.0
5400,27.0,0.0,180.0,2.0,64.0
5401,71.0,120.0,90.0,0.0,64.0
5402,75.0,120.0,90.0,0.0,64.0
5403,71.0,96.0,90.0,0.0,64.0
5404,80.0,144.0,60.0,0.0,64.0
5405,71.0,120.0,90.0,0.0,64.0
5406,75.0,120.0,90.0,0.0,64.0
5407,71.0,216.0,90.0,0.0,64.0
5408,51.0,0.0,180.0,2.0,64.0
5409,39.0,24.0,180.0,2.0,64.0
5410,70.0,120.0,90.0,0.0,64.0
5411,73.0,120.0,90.0,0.0,64.0
5412,70.0,96.0,90.0,0.0,64.0
5413,79.0,144.0,60.0,0.0,64.0
5414,70.0,120.0,90.0,0.0,64.0
5415,73.0,120.0,90.0,0.0,64.0
5416,70.0,168.0,90.0,0.0,64.0
5417,68.0,48.0,150.0,0.0,64.0
5418,44.0,240.0,180.0,2.0,64.0
5419,80.0,120.0,480.0,0.0,64.0
5420,56.0,240.0,180.0,1.0,64.0
5421,59.0,0.0,180.0,1.0,64.0
5422,59.0,48.0,180.0,1.0,64.0
5423,56.0,0.0,180.0,1.0,64.0
5424,79.0,72.0,120.0,0.0,64.0
5425,59.0,48.0,180.0,1.0,64.0
5426,56.0,0.0,180.0,1.0,64.0
5427,80.0,120.0,120.0,0.0,64.0
5428,82.0,120.0,120.0,0.0,64.0
5429,52.0,72.0,780.0,2.0,64.0
5430,80.0,120.0,120.0,0.0,64.0
5431,56.0,0.0,180.0,1.0,64.0
5432,78.0,72.0,120.0,0.0,64.0
5433,59.0,48.0,180.0,1.0,64.0
5434,76.0,120.0,120.0,0.0,64.0
5435,59.0,48.0,180.0,1.0,64.0
5436,56.0,0.0,180.0,1.0,64.0
5437,75.0,72.0,120.0,0.0,64.0
5438,76.0,48.0,120.0,0.0,64.0
5439,59.0,48.0,180.0,1.0,64.0
5440,78.0,72.0,120.0,0.0,64.0
5441,56.0,0.0,180.0,1.0,64.0
5442,76.0,120.0,120.0,0.0,64.0
5443,49.0,72.0,780.0,2.0,64.0
5444,75.0,120.0,120.0,0.0,64.0
5445,73.0,120.0,120.0,0.0,64.0
5446,58.0,48.0,180.0,1.0,64.0
5447,56.0,0.0,180.0,1.0,64.0
5448,71.0,72.0,120.0,0.0,64.0
5449,70.0,120.0,120.0,0.0,64.0
5450,58.0,0.0,180.0,1.0,64.0
5451,56.0,48.0,180.0,1.0,64.0
5452,69.0,72.0,120.0,0.0,64.0
5453,70.0,48.0,120.0,0.0,64.0
5454,71.0,72.0,120.0,0.0,64.0
5455,58.0,48.0,180.0,1.0,64.0
5456,56.0,0.0,180.0,1.0,64.0
5457,70.0,120.0,120.0,0.0,64.0
5458,51.0,72.0,780.0,2.0,64.0
5459,68.0,120.0,120.0,0.0,64.0
5460,67.0,120.0,120.0,0.0,64.0
5461,58.0,0.0,180.0,1.0,64.0
5462,64.0,72.0,120.0,0.0,64.0
5463,55.0,48.0,180.0,1.0,64.0
5464,63.0,120.0,120.0,0.0,64.0
5465,62.0,72.0,120.0,0.0,64.0
5466,58.0,0.0,180.0,1.0,64.0
5467,55.0,48.0,180.0,1.0,64.0
5468,63.0,48.0,120.0,0.0,64.0
5469,55.0,0.0,180.0,1.0,64.0
5470,58.0,48.0,180.0,1.0,64.0
5471,64.0,72.0,120.0,0.0,64.0
5472,61.0,144.0,120.0,0.0,64.0
5473,59.0,288.0,150.0,0.0,64.0
5474,44.0,72.0,780.0,2.0,64.0
5475,56.0,0.0,180.0,1.0,64.0
5476,68.0,48.0,480.0,0.0,64.0
5477,80.0,0.0,480.0,0.0,64.0
5478,47.0,240.0,180.0,1.0,64.0
5479,47.0,0.0,180.0,1.0,64.0
5480,56.0,48.0,180.0,1.0,64.0
5481,47.0,48.0,180.0,1.0,64.0
5482,56.0,0.0,180.0,1.0,64.0
5483,79.0,72.0,120.0,0.0,64.0
5484,80.0,120.0,120.0,0.0,64.0
5485,40.0,72.0,780.0,2.0,64.0
5486,82.0,120.0,120.0,0.0,64.0
5487,80.0,120.0,120.0,0.0,64.0
5488,78.0,72.0,120.0,0.0,64.0
5489,47.0,0.0,180.0,1.0,64.0
5490,52.0,48.0,180.0,1.0,64.0
5491,44.0,0.0,180.0,1.0,64.0
5492,76.0,120.0,120.0,0.0,64.0
5493,52.0,0.0,180.0,1.0,64.0
5494,47.0,0.0,180.0,1.0,64.0
5495,75.0,72.0,120.0,0.0,64.0
5496,44.0,48.0,180.0,1.0,64.0
5497,76.0,48.0,120.0,0.0,64.0
5498,78.0,72.0,120.0,0.0,64.0
5499,52.0,0.0,180.0,1.0,64.0
5500,44.0,0.0,180.0,1.0,64.0
5501,47.0,48.0,180.0,1.0,64.0
5502,76.0,120.0,120.0,0.0,64.0
5503,37.0,72.0,780.0,2.0,64.0
5504,75.0,120.0,120.0,0.0,64.0
5505,73.0,120.0,120.0,0.0,64.0
5506,71.0,72.0,120.0,0.0,64.0
5507,44.0,0.0,180.0,1.0,64.0
5508,49.0,0.0,180.0,1.0,64.0
5509,46.0,48.0,180.0,1.0,64.0
5510,70.0,120.0,120.0,0.0,64.0
5511,44.0,0.0,180.0,1.0,64.0
5512,49.0,48.0,180.0,1.0,64.0
5513,46.0,0.0,180.0,1.0,64.0
5514,69.0,72.0,120.0,0.0,64.0
5515,70.0,48.0,120.0,0.0,64.0
5516,44.0,48.0,180.0,1.0,64.0
5517,71.0,72.0,120.0,0.0,64.0
5518,49.0,0.0,180.0,1.0,64.0
5519,46.0,0.0,180.0,1.0,64.0
5520,70.0,120.0,120.0,0.0,64.0
5521,68.0,120.0,120.0,0.0,64.0
5522,39.0,72.0,780.0,2.0,64.0
5523,67.0,120.0,120.0,0.0,64.0
5524,64.0,72.0,120.0,0.0,64.0
5525,51.0,0.0,180.0,1.0,64.0
5526,43.0,0.0,180.0,1.0,64.0
5527,46.0,48.0,180.0,1.0,64.0
5528,63.0,120.0,120.0,0.0,64.0
5529,62.0,72.0,120.0,0.0,64.0
5530,51.0,48.0,180.0,1.0,64.0
5531,43.0,0.0,180.0,1.0,64.0
5532,46.0,0.0,180.0,1.0,64.0
5533,63.0,48.0,120.0,0.0,64.0
5534,43.0,48.0,180.0,1.0,64.0
5535,51.0,0.0,180.0,1.0,64.0
5536,46.0,0.0,180.0,1.0,64.0
5537,64.0,72.0,120.0,0.0,64.0
5538,63.0,96.0,120.0,0.0,64.0
5539,68.0,72.0,150.0,0.0,64.0
5540,32.0,48.0,90.0,2.0,64.0
5541,44.0,120.0,90.0,2.0,64.0
5542,32.0,120.0,90.0,2.0,64.0
5543,56.0,72.0,390.0,0.0,64.0
5544,44.0,120.0,90.0,2.0,64.0
5545,32.0,48.0,90.0,2.0,64.0
5546,44.0,120.0,90.0,2.0,64.0
5547,54.0,72.0,150.0,0.0,64.0
5548,60.0,0.0,150.0,0.0,64.0
5549,32.0,48.0,90.0,2.0,64.0
5550,44.0,120.0,90.0,2.0,64.0
5551,32.0,48.0,90.0,2.0,64.0
5552,52.0,0.0,150.0,0.0,64.0
5553,61.0,72.0,150.0,0.0,64.0
5554,44.0,120.0,90.0,2.0,64.0
5555,60.0,72.0,150.0,0.0,64.0
5556,63.0,0.0,150.0,0.0,64.0
5557,32.0,48.0,90.0,2.0,64.0
5558,44.0,120.0,90.0,2.0,64.0
5559,64.0,0.0,150.0,0.0,64.0
5560,61.0,72.0,150.0,0.0,64.0
5561,32.0,48.0,90.0,2.0,64.0
5562,44.0,120.0,90.0,2.0,64.0
5563,67.0,72.0,150.0,0.0,64.0
5564,32.0,48.0,90.0,2.0,64.0
5565,58.0,0.0,150.0,0.0,64.0
5566,44.0,120.0,90.0,2.0,64.0
5567,59.0,72.0,150.0,0.0,64.0
5568,32.0,48.0,90.0,2.0,64.0
5569,68.0,0.0,150.0,0.0,64.0
5570,44.0,120.0,90.0,2.0,64.0
5571,60.0,0.0,300.0,0.0,64.0
5572,32.0,120.0,90.0,2.0,64.0
5573,68.0,48.0,300.0,0.0,64.0
5574,44.0,72.0,90.0,2.0,64.0
5575,32.0,120.0,90.0,2.0,64.0
5576,44.0,120.0,90.0,2.0,64.0
5577,32.0,48.0,90.0,2.0,64.0
5578,72.0,0.0,150.0,0.0,64.0
5579,66.0,72.0,150.0,0.0,64.0
5580,44.0,120.0,90.0,2.0,64.0
5581,64.0,0.0,150.0,0.0,64.0
5582,32.0,48.0,90.0,2.0,64.0
5583,73.0,72.0,150.0,0.0,64.0
5584,44.0,120.0,90.0,2.0,64.0
5585,75.0,0.0,150.0,0.0,64.0
5586,72.0,72.0,150.0,0.0,64.0
5587,32.0,48.0,90.0,2.0,64.0
5588,44.0,120.0,90.0,2.0,64.0
5589,76.0,0.0,150.0,0.0,64.0
5590,73.0,72.0,150.0,0.0,64.0
5591,32.0,48.0,90.0,2.0,64.0
5592,44.0,120.0,90.0,2.0,64.0
5593,32.0,48.0,90.0,2.0,64.0
5594,70.0,72.0,150.0,0.0,64.0
5595,79.0,0.0,150.0,0.0,64.0
5596,44.0,120.0,90.0,2.0,64.0
5597,68.0,24.0,900.0,0.0,64.0
5598,80.0,0.0,900.0,0.0,64.0
5599,71.0,0.0,900.0,0.0,64.0
5600,32.0,120.0,90.0,2.0,64.0
5601,44.0,120.0,90.0,2.0,64.0
5602,32.0,120.0,90.0,2.0,64.0
5603,44.0,120.0,90.0,2.0,64.0
5604,32.0,120.0,90.0,2.0,64.0
5605,44.0,120.0,90.0,2.0,64.0
5606,32.0,96.0,90.0,2.0,64.0
5607,44.0,120.0,90.0,2.0,64.0
5608,56.0,0.0,900.0,0.0,64.0
5609,30.0,120.0,90.0,2.0,64.0
5610,59.0,0.0,900.0,0.0,64.0
5611,68.0,24.0,900.0,0.0,64.0
5612,42.0,120.0,90.0,2.0,64.0
5613,30.0,120.0,90.0,2.0,64.0
5614,42.0,120.0,90.0,2.0,64.0
5615,30.0,120.0,90.0,2.0,64.0
5616,42.0,120.0,90.0,2.0,64.0
5617,30.0,96.0,90.0,2.0,64.0
5618,42.0,120.0,90.0,2.0,64.0
5619,28.0,120.0,90.0,2.0,64.0
5620,80.0,0.0,900.0,0.0,64.0
5621,68.0,24.0,900.0,0.0,64.0
5622,71.0,0.0,900.0,0.0,64.0
5623,40.0,120.0,90.0,2.0,64.0
5624,28.0,120.0,90.0,2.0,64.0
5625,40.0,120.0,90.0,2.0,64.0
5626,28.0,120.0,90.0,2.0,64.0
5627,40.0,120.0,90.0,2.0,64.0
5628,28.0,96.0,90.0,2.0,64.0
5629,40.0,120.0,90.0,2.0,64.0
5630,56.0,0.0,900.0,0.0,64.0
5631,59.0,0.0,900.0,0.0,64.0
5632,68.0,24.0,900.0,0.0,64.0
5633,27.0,120.0,90.0,2.0,64.0
5634,39.0,120.0,90.0,2.0,64.0
5635,27.0,120.0,90.0,2.0,64.0
5636,39.0,120.0,90.0,2.0,64.0
5637,27.0,120.0,90.0,2.0,64.0
5638,39.0,120.0,90.0,2.0,64.0
5639,27.0,96.0,90.0,2.0,64.0
5640,39.0,936.0,90.0,2.0,64.0
5641,38.0,1008.0,900.0,2.0,64.0
5642,83.0,0.0,900.0,0.0,64.0
5643,80.0,0.0,900.0,0.0,64.0
5644,77.0,0.0,900.0,0.0,64.0
5645,26.0,0.0,900.0,2.0,64.0
5646,71.0,0.0,900.0,0.0,64.0
5647,59.0,0.0,960.0,0.0,64.0
5648,50.0,0.0,960.0,1.0,64.0
5649,53.0,0.0,960.0,1.0,64.0
5650,56.0,354.0,960.0,0.0,64.0
5651,47.0,0.0,960.0,2.0,64.0
5652,44.0,0.0,960.0,2.0,64.0
5653,41.0,0.0,960.0,2.0,64.0
5654,38.0,0.0,960.0,2.0,64.0
5655,59.0,0.0,20.0,2.0,64.0
5656,62.0,0.0,20.0,0.0,64.0
5657,68.0,87.0,20.0,0.0,64.0
5658,65.0,0.0,20.0,0.0,64.0
5659,65.0,0.0,90.0,0.0,64.0
5660,62.0,0.0,90.0,0.0,64.0
5661,58.0,33.0,90.0,2.0,64.0
5662,70.0,0.0,90.0,0.0,64.0
5663,56.0,246.0,20.0,2.0,64.0
5664,62.0,0.0,20.0,0.0,64.0
5665,71.0,0.0,20.0,0.0,64.0
5666,65.0,0.0,20.0,0.0,64.0
5667,56.0,0.0,240.0,2.0,64.0
5668,71.0,96.0,240.0,0.0,64.0
5669,65.0,0.0,240.0,0.0,64.0
5670,62.0,0.0,240.0,0.0,64.0
5671,63.0,0.0,90.0,0.0,64.0
5672,67.0,0.0,90.0,0.0,64.0
5673,70.0,0.0,90.0,0.0,64.0
5674,55.0,498.0,90.0,2.0,64.0
5675,64.0,0.0,20.0,1.0,64.0
5676,67.0,0.0,20.0,0.0,64.0
5677,73.0,87.0,20.0,0.0,64.0
5678,70.0,0.0,20.0,0.0,64.0
5679,67.0,0.0,90.0,0.0,64.0
5680,63.0,33.0,90.0,1.0,64.0
5681,75.0,0.0,90.0,0.0,64.0
5682,70.0,0.0,90.0,0.0,64.0
5683,61.0,0.0,20.0,1.0,64.0
5684,70.0,0.0,20.0,0.0,64.0
5685,67.0,246.0,20.0,0.0,64.0
5686,76.0,0.0,20.0,0.0,64.0
5687,67.0,0.0,240.0,0.0,64.0
5688,70.0,0.0,240.0,0.0,64.0
5689,76.0,96.0,240.0,0.0,64.0
5690,61.0,0.0,240.0,1.0,64.0
5691,59.0,498.0,90.0,1.0,64.0
5692,75.0,0.0,90.0,0.0,64.0
5693,68.0,0.0,90.0,0.0,64.0
5694,71.0,0.0,90.0,0.0,64.0
5695,75.0,0.0,20.0,0.0,64.0
5696,66.0,78.0,20.0,0.0,64.0
5697,63.0,0.0,20.0,1.0,64.0
5698,60.0,0.0,20.0,1.0,64.0
5699,57.0,0.0,20.0,1.0,64.0
5700,78.0,0.0,20.0,0.0,64.0
5701,72.0,0.0,20.0,0.0,64.0
5702,75.0,0.0,60.0,0.0,64.0
5703,68.0,0.0,60.0,0.0,64.0
5704,80.0,0.0,60.0,0.0,64.0
5705,63.0,42.0,60.0,1.0,64.0
5706,60.0,0.0,60.0,1.0,64.0
5707,56.0,0.0,60.0,1.0,64.0
5708,72.0,0.0,60.0,0.0,64.0
5709,75.0,0.0,20.0,0.0,64.0
5710,69.0,0.0,20.0,0.0,64.0
5711,81.0,198.0,20.0,0.0,64.0
5712,72.0,0.0,20.0,0.0,64.0
5713,63.0,0.0,20.0,1.0,64.0
5714,54.0,0.0,20.0,1.0,64.0
5715,60.0,0.0,20.0,1.0,64.0
5716,60.0,0.0,180.0,1.0,64.0
5717,63.0,0.0,180.0,1.0,64.0
5718,54.0,48.0,180.0,1.0,64.0
5719,52.0,120.0,360.0,1.0,64.0
5720,81.0,0.0,240.0,0.0,64.0
5721,75.0,0.0,240.0,0.0,64.0
5722,72.0,0.0,240.0,0.0,64.0
5723,69.0,120.0,240.0,0.0,64.0
5724,80.0,0.0,120.0,0.0,64.0
5725,64.0,0.0,120.0,1.0,64.0
5726,56.0,0.0,120.0,1.0,64.0
5727,61.0,0.0,120.0,1.0,64.0
5728,68.0,0.0,120.0,0.0,64.0
5729,60.0,0.0,120.0,1.0,64.0
5730,78.0,0.0,120.0,0.0,64.0
5731,66.0,0.0,120.0,0.0,64.0
5732,51.0,120.0,120.0,1.0,64.0
5733,64.0,0.0,120.0,0.0,64.0
5734,76.0,0.0,120.0,0.0,64.0
5735,61.0,0.0,120.0,1.0,64.0
5736,56.0,0.0,15.0,1.0,64.0
5737,49.0,120.0,120.0,1.0,64.0
5738,56.0,0.0,15.0,1.0,64.0
5739,75.0,0.0,120.0,0.0,64.0
5740,63.0,0.0,120.0,0.0,64.0
5741,47.0,120.0,120.0,1.0,64.0
5742,51.0,0.0,120.0,1.0,64.0
5743,46.0,0.0,120.0,1.0,64.0
5744,73.0,0.0,120.0,0.0,64.0
5745,61.0,120.0,120.0,0.0,64.0
5746,55.0,0.0,120.0,1.0,64.0
5747,71.0,0.0,120.0,0.0,64.0
5748,59.0,0.0,120.0,0.0,64.0
5749,51.0,0.0,15.0,1.0,64.0
5750,56.0,0.0,120.0,1.0,64.0
5751,44.0,0.0,120.0,1.0,64.0
5752,49.0,120.0,120.0,1.0,64.0
5753,70.0,120.0,120.0,0.0,64.0
5754,61.0,0.0,120.0,0.0,64.0
5755,64.0,0.0,120.0,0.0,64.0
5756,27.0,120.0,120.0,2.0,64.0
5757,39.0,0.0,120.0,2.0,64.0
5758,49.0,0.0,120.0,1.0,64.0
5759,55.0,102.0,120.0,1.0,64.0
5760,46.0,0.0,120.0,1.0,64.0
5761,32.0,120.0,90.0,2.0,64.0
5762,56.0,120.0,570.0,0.0,64.0
5763,44.0,120.0,90.0,2.0,64.0
5764,32.0,120.0,90.0,2.0,64.0
5765,44.0,120.0,90.0,2.0,64.0
5766,32.0,0.0,90.0,2.0,64.0
5767,44.0,120.0,90.0,2.0,64.0
5768,32.0,48.0,90.0,2.0,64.0
5769,54.0,0.0,150.0,0.0,64.0
5770,60.0,72.0,150.0,0.0,64.0
5771,44.0,120.0,90.0,2.0,64.0
5772,32.0,48.0,90.0,2.0,64.0
5773,61.0,0.0,150.0,0.0,64.0
5774,52.0,72.0,150.0,0.0,64.0
5775,44.0,120.0,90.0,2.0,64.0
5776,63.0,0.0,150.0,0.0,64.0
5777,32.0,48.0,90.0,2.0,64.0
5778,60.0,72.0,150.0,0.0,64.0
5779,44.0,120.0,90.0,2.0,64.0
5780,32.0,48.0,90.0,2.0,64.0
5781,64.0,72.0,150.0,0.0,64.0
5782,61.0,0.0,150.0,0.0,64.0
5783,44.0,120.0,90.0,2.0,64.0
5784,32.0,48.0,90.0,2.0,64.0
5785,67.0,0.0,150.0,0.0,64.0
5786,58.0,72.0,150.0,0.0,64.0
5787,44.0,120.0,90.0,2.0,64.0
5788,68.0,72.0,150.0,0.0,64.0
5789,59.0,0.0,150.0,0.0,64.0
5790,32.0,48.0,90.0,2.0,64.0
5791,44.0,120.0,90.0,2.0,64.0
5792,32.0,120.0,90.0,2.0,64.0
5793,68.0,0.0,390.0,0.0,64.0
5794,60.0,72.0,390.0,0.0,64.0
5795,44.0,120.0,90.0,2.0,64.0
5796,32.0,48.0,90.0,2.0,64.0
5797,44.0,120.0,90.0,2.0,64.0
5798,66.0,72.0,150.0,0.0,64.0
5799,32.0,48.0,90.0,2.0,64.0
5800,72.0,0.0,150.0,0.0,64.0
5801,44.0,120.0,90.0,2.0,64.0
5802,73.0,72.0,150.0,0.0,64.0
5803,64.0,0.0,150.0,0.0,64.0
5804,32.0,48.0,90.0,2.0,64.0
5805,44.0,120.0,90.0,2.0,64.0
5806,32.0,48.0,90.0,2.0,64.0
5807,75.0,0.0,150.0,0.0,64.0
5808,72.0,72.0,150.0,0.0,64.0
5809,44.0,120.0,90.0,2.0,64.0
5810,32.0,48.0,90.0,2.0,64.0
5811,76.0,0.0,150.0,0.0,64.0
5812,73.0,72.0,150.0,0.0,64.0
5813,44.0,120.0,90.0,2.0,64.0
5814,32.0,48.0,90.0,2.0,64.0
5815,79.0,72.0,150.0,0.0,64.0
5816,70.0,0.0,150.0,0.0,64.0
5817,44.0,120.0,90.0,2.0,64.0
5818,71.0,48.0,300.0,0.0,64.0
5819,80.0,0.0,300.0,0.0,64.0
5820,32.0,120.0,90.0,2.0,64.0
5821,44.0,72.0,90.0,2.0,64.0
5822,32.0,120.0,90.0,2.0,64.0
5823,44.0,120.0,90.0,2.0,64.0
5824,30.0,120.0,90.0,2.0,64.0
5825,68.0,48.0,300.0,0.0,64.0
5826,71.0,0.0,300.0,0.0,64.0
5827,80.0,0.0,300.0,0.0,64.0
5828,42.0,72.0,90.0,2.0,64.0
5829,30.0,120.0,90.0,2.0,64.0
5830,42.0,120.0,90.0,2.0,64.0
5831,28.0,120.0,90.0,2.0,64.0
5832,68.0,0.0,300.0,0.0,64.0
5833,80.0,48.0,300.0,0.0,64.0
5834,71.0,0.0,300.0,0.0,64.0
5835,40.0,72.0,90.0,2.0,64.0
5836,28.0,120.0,90.0,2.0,64.0
5837,40.0,120.0,90.0,2.0,64.0
5838,27.0,120.0,90.0,2.0,64.0
5839,68.0,0.0,300.0,0.0,64.0
5840,80.0,0.0,300.0,0.0,64.0
5841,71.0,48.0,300.0,0.0,64.0
5842,39.0,72.0,90.0,2.0,64.0
5843,27.0,120.0,90.0,2.0,64.0
5844,39.0,216.0,90.0,2.0,64.0
5845,71.0,960.0,180.0,0.0,64.0
5846,77.0,0.0,180.0,0.0,64.0
5847,80.0,0.0,180.0,0.0,64.0
5848,83.0,0.0,180.0,0.0,64.0
5849,38.0,0.0,180.0,2.0,64.0
5850,26.0,0.0,180.0,2.0,64.0
5851,53.0,0.0,180.0,2.0,64.0
5852,56.0,0.0,180.0,2.0,64.0
5853,59.0,0.0,180.0,2.0,64.0
5854,50.0,960.0,180.0,2.0,64.0
5855,71.0,0.0,180.0,0.0,64.0
5856,68.0,0.0,180.0,0.0,64.0
5857,65.0,0.0,180.0,0.0,64.0
5858,62.0,0.0,180.0,0.0,64.0
5859,68.0,0.0,180.0,0.0,64.0
5860,63.0,0.0,180.0,0.0,64.0
5861,51.0,0.0,180.0,2.0,64.0
5862,59.0,0.0,180.0,2.0,64.0
5863,71.0,0.0,180.0,0.0,64.0
5864,56.0,0.0,180.0,2.0,64.0
5865,75.0,960.0,180.0,0.0,64.0
5866,39.0,0.0,180.0,2.0,64.0
5867,27.0,0.0,180.0,2.0,64.0
5868,46.0,0.0,180.0,1.0,64.0
5869,49.0,0.0,180.0,1.0,64.0
5870,55.0,960.0,180.0,1.0,64.0
5871,51.0,0.0,180.0,1.0,64.0
5872,34.0,0.0,180.0,2.0,64.0
5873,31.0,0.0,180.0,2.0,64.0
5874,44.0,2112.0,180.0,2.0,64.0
5875,32.0,0.0,180.0,2.0,64.0
5876,35.0,0.0,180.0,2.0,64.0
5877,39.0,0.0,180.0,2.0,64.0
5878,47.0,0.0,180.0,1.0,64.0
5879,51.0,0.0,180.0,1.0,64.0
5880,56.0,0.0,180.0,1.0,64.0
5881,44.0,0.0,390.0,2.0,64.0
