,note,step,duration,channel,velocity
0,36.0,0.0,480.0,2.0,0.0
1,44.0,0.0,480.0,2.0,0.0
2,56.0,0.0,240.0,1.0,0.0
3,68.0,0.0,240.0,1.0,0.0
4,68.0,240.0,240.0,0.0,0.0
5,55.0,0.0,240.0,1.0,0.0
6,67.0,240.0,240.0,1.0,0.0
7,51.0,0.0,960.0,2.0,0.0
8,39.0,0.0,960.0,2.0,0.0
9,67.0,0.0,240.0,0.0,0.0
10,63.0,0.0,240.0,0.0,0.0
11,63.0,360.0,240.0,1.0,0.0
12,65.0,0.0,360.0,1.0,0.0
13,65.0,120.0,360.0,0.0,0.0
14,53.0,0.0,360.0,1.0,0.0
15,37.0,0.0,240.0,2.0,0.0
16,49.0,0.0,240.0,2.0,0.0
17,55.0,0.0,120.0,1.0,0.0
18,67.0,0.0,120.0,1.0,0.0
19,67.0,120.0,120.0,0.0,0.0
20,56.0,0.0,360.0,1.0,0.0
21,48.0,120.0,120.0,2.0,0.0
22,68.0,0.0,360.0,1.0,0.0
23,36.0,0.0,120.0,2.0,0.0
24,68.0,0.0,360.0,0.0,0.0
25,46.0,120.0,120.0,2.0,0.0
26,34.0,0.0,120.0,2.0,0.0
27,44.0,120.0,120.0,2.0,0.0
28,32.0,0.0,120.0,2.0,0.0
29,43.0,0.0,120.0,2.0,0.0
30,70.0,240.0,120.0,0.0,0.0
31,58.0,0.0,120.0,1.0,0.0
32,31.0,0.0,120.0,2.0,0.0
33,70.0,0.0,120.0,1.0,0.0
34,29.0,0.0,480.0,2.0,0.0
35,41.0,0.0,480.0,2.0,0.0
36,72.0,240.0,240.0,1.0,0.0
37,68.0,0.0,240.0,1.0,0.0
38,60.0,0.0,240.0,1.0,0.0
39,72.0,0.0,240.0,0.0,0.0
40,62.0,0.0,240.0,1.0,0.0
41,74.0,0.0,240.0,0.0,0.0
42,74.0,240.0,240.0,1.0,0.0
43,68.0,0.0,240.0,1.0,0.0
44,75.0,0.0,240.0,0.0,0.0
45,39.0,0.0,240.0,2.0,0.0
46,31.0,120.0,240.0,2.0,0.0
47,75.0,0.0,240.0,1.0,0.0
48,67.0,0.0,240.0,1.0,0.0
49,63.0,0.0,120.0,0.0,0.0
50,63.0,0.0,15.0,1.0,0.0
51,39.0,360.0,120.0,2.0,0.0
52,51.0,0.0,120.0,2.0,0.0
53,73.0,120.0,120.0,0.0,0.0
54,73.0,0.0,120.0,1.0,0.0
55,70.0,120.0,120.0,0.0,0.0
56,70.0,0.0,120.0,1.0,0.0
57,67.0,0.0,120.0,1.0,0.0
58,67.0,240.0,120.0,0.0,0.0
59,51.0,0.0,360.0,1.0,0.0
60,58.0,0.0,360.0,1.0,0.0
61,63.0,0.0,360.0,1.0,0.0
62,63.0,120.0,360.0,0.0,0.0
63,31.0,120.0,120.0,2.0,0.0
64,43.0,0.0,120.0,2.0,0.0
65,56.0,0.0,120.0,1.0,0.0
66,53.0,180.0,120.0,1.0,0.0
67,61.0,0.0,120.0,0.0,0.0
68,61.0,0.0,120.0,1.0,0.0
69,41.0,0.0,120.0,2.0,0.0
70,40.0,0.0,180.0,2.0,0.0
71,55.0,60.0,180.0,1.0,0.0
72,60.0,0.0,180.0,0.0,0.0
73,52.0,0.0,60.0,2.0,0.0
74,60.0,0.0,15.0,1.0,0.0
75,70.0,0.0,60.0,1.0,0.0
76,70.0,0.0,15.0,0.0,0.0
77,55.0,0.0,15.0,2.0,0.0
78,52.0,0.0,180.0,2.0,0.0
79,60.0,180.0,15.0,1.0,0.0
80,55.0,0.0,15.0,2.0,0.0
81,70.0,0.0,15.0,0.0,0.0
82,60.0,60.0,15.0,1.0,0.0
83,70.0,0.0,15.0,1.0,0.0
84,70.0,0.0,15.0,0.0,0.0
85,70.0,6.0,120.0,1.0,0.0
86,60.0,0.0,120.0,1.0,0.0
87,52.0,0.0,15.0,2.0,0.0
88,55.0,0.0,120.0,2.0,0.0
89,68.0,240.0,120.0,0.0,0.0
90,60.0,0.0,120.0,1.0,0.0
91,53.0,6.0,120.0,2.0,0.0
92,56.0,0.0,120.0,2.0,0.0
93,68.0,0.0,120.0,1.0,0.0
94,68.0,0.0,120.0,1.0,0.0
95,68.0,360.0,120.0,0.0,0.0
96,73.0,0.0,360.0,0.0,0.0
97,49.0,0.0,120.0,2.0,0.0
98,44.0,0.0,120.0,2.0,0.0
99,41.0,120.0,120.0,2.0,0.0
100,53.0,0.0,120.0,2.0,0.0
101,61.0,0.0,15.0,1.0,0.0
102,73.0,0.0,15.0,1.0,0.0
103,44.0,0.0,120.0,2.0,0.0
104,53.0,0.0,120.0,2.0,0.0
105,49.0,0.0,120.0,2.0,0.0
106,41.0,0.0,120.0,2.0,0.0
107,73.0,360.0,15.0,0.0,0.0
108,55.0,0.0,360.0,2.0,0.0
109,46.0,120.0,360.0,2.0,0.0
110,43.0,0.0,360.0,2.0,0.0
111,73.0,0.0,360.0,1.0,0.0
112,61.0,0.0,360.0,1.0,0.0
113,51.0,0.0,360.0,2.0,0.0
114,72.0,0.0,120.0,1.0,0.0
115,60.0,0.0,120.0,1.0,0.0
116,72.0,0.0,120.0,0.0,0.0
117,56.0,0.0,120.0,2.0,0.0
118,51.0,240.0,120.0,2.0,0.0
119,48.0,0.0,120.0,2.0,0.0
120,44.0,0.0,120.0,2.0,0.0
121,70.0,0.0,240.0,1.0,0.0
122,70.0,0.0,240.0,0.0,0.0
123,37.0,0.0,240.0,2.0,0.0
124,49.0,240.0,240.0,2.0,0.0
125,41.0,0.0,240.0,2.0,0.0
126,63.0,0.0,240.0,1.0,0.0
127,61.0,0.0,240.0,1.0,0.0
128,58.0,0.0,15.0,1.0,0.0
129,55.0,0.0,240.0,1.0,0.0
130,43.0,0.0,240.0,2.0,0.0
131,46.0,0.0,15.0,2.0,0.0
132,63.0,0.0,240.0,0.0,0.0
133,39.0,0.0,240.0,2.0,0.0
134,51.0,0.0,240.0,2.0,0.0
135,68.0,0.0,240.0,0.0,0.0
136,56.0,0.0,120.0,1.0,0.0
137,60.0,0.0,120.0,1.0,0.0
138,68.0,0.0,120.0,1.0,0.0
139,32.0,0.0,360.0,2.0,0.0
140,44.0,120.0,360.0,2.0,0.0
141,63.0,120.0,120.0,1.0,0.0
142,56.0,0.0,120.0,1.0,0.0
143,68.0,120.0,120.0,1.0,0.0
144,63.0,120.0,360.0,1.0,0.0
145,75.0,0.0,360.0,1.0,0.0
146,48.0,0.0,120.0,2.0,0.0
147,36.0,120.0,120.0,2.0,0.0
148,37.0,0.0,360.0,2.0,0.0
149,49.0,120.0,360.0,2.0,0.0
150,65.0,0.0,120.0,1.0,0.0
151,53.0,120.0,120.0,1.0,0.0
152,61.0,114.0,360.0,1.0,0.0
153,73.0,0.0,360.0,1.0,0.0
154,46.0,120.0,120.0,2.0,0.0
155,34.0,0.0,120.0,2.0,0.0
156,43.0,0.0,120.0,2.0,0.0
157,31.0,0.0,120.0,2.0,0.0
158,44.0,114.0,120.0,2.0,0.0
159,32.0,0.0,120.0,2.0,0.0
160,72.0,6.0,120.0,1.0,0.0
161,60.0,0.0,120.0,1.0,0.0
162,65.0,0.0,120.0,1.0,0.0
163,37.0,114.0,120.0,2.0,0.0
164,70.0,6.0,120.0,1.0,0.0
165,68.0,0.0,120.0,1.0,0.0
166,39.0,114.0,120.0,2.0,0.0
167,70.0,0.0,120.0,1.0,0.0
168,67.0,0.0,120.0,1.0,0.0
169,61.0,6.0,120.0,1.0,0.0
170,60.0,6.0,120.0,1.0,0.0
171,63.0,0.0,120.0,1.0,0.0
172,68.0,0.0,120.0,1.0,0.0
173,32.0,234.0,120.0,2.0,0.0
174,44.0,0.0,120.0,2.0,0.0
175,67.0,6.0,120.0,1.0,0.0
176,63.0,0.0,120.0,1.0,0.0
177,58.0,0.0,120.0,1.0,0.0
178,39.0,600.0,120.0,2.0,0.0
179,31.0,0.0,120.0,2.0,0.0
180,68.0,0.0,480.0,1.0,0.0
181,63.0,0.0,480.0,1.0,0.0
182,60.0,360.0,480.0,1.0,0.0
183,32.0,0.0,480.0,2.0,0.0
184,44.0,0.0,480.0,2.0,0.0
