,note,step,duration,channel,velocity
0,76.0,160.0,30.0,0.0,0.0
1,76.0,48.0,60.0,0.0,0.0
2,80.0,192.0,60.0,0.0,0.0
3,40.0,304.0,60.0,1.0,0.0
4,76.0,160.0,180.0,0.0,0.0
5,71.0,32.0,150.0,1.0,0.0
6,68.0,0.0,150.0,1.0,0.0
7,66.0,32.0,150.0,1.0,0.0
8,69.0,0.0,150.0,1.0,0.0
9,75.0,160.0,180.0,0.0,0.0
10,76.0,80.0,150.0,0.0,0.0
11,64.0,0.0,150.0,1.0,0.0
12,68.0,0.0,150.0,1.0,0.0
13,66.0,0.0,60.0,1.0,0.0
14,59.0,0.0,60.0,1.0,0.0
15,71.0,0.0,60.0,0.0,0.0
16,78.0,0.0,60.0,0.0,0.0
17,63.0,192.0,60.0,1.0,0.0
18,66.0,0.0,60.0,1.0,0.0
19,63.0,0.0,60.0,1.0,0.0
20,59.0,0.0,60.0,1.0,0.0
21,78.0,0.0,60.0,0.0,0.0
22,71.0,192.0,60.0,0.0,0.0
23,66.0,0.0,60.0,1.0,0.0
24,59.0,0.0,60.0,1.0,0.0
25,63.0,192.0,60.0,1.0,0.0
26,78.0,0.0,60.0,0.0,0.0
27,71.0,0.0,60.0,0.0,0.0
28,78.0,0.0,60.0,0.0,0.0
29,59.0,0.0,60.0,1.0,0.0
30,71.0,560.0,60.0,0.0,0.0
31,66.0,0.0,60.0,1.0,0.0
32,63.0,0.0,60.0,1.0,0.0
33,78.0,158.0,30.0,0.0,0.0
34,78.0,50.0,60.0,0.0,0.0
35,81.0,192.0,60.0,0.0,0.0
36,42.0,336.0,60.0,1.0,0.0
37,69.0,0.0,180.0,1.0,0.0
38,78.0,0.0,180.0,0.0,0.0
39,73.0,192.0,180.0,1.0,0.0
40,68.0,0.0,180.0,1.0,0.0
41,71.0,160.0,180.0,1.0,0.0
42,77.0,0.0,180.0,0.0,0.0
43,78.0,0.0,150.0,0.0,0.0
44,66.0,0.0,150.0,1.0,0.0
45,69.0,80.0,150.0,1.0,0.0
46,65.0,0.0,60.0,1.0,0.0
47,68.0,0.0,60.0,1.0,0.0
48,80.0,192.0,60.0,0.0,0.0
49,73.0,0.0,60.0,0.0,0.0
50,61.0,0.0,60.0,1.0,0.0
51,80.0,0.0,60.0,0.0,0.0
52,73.0,0.0,60.0,0.0,0.0
53,61.0,192.0,60.0,1.0,0.0
54,65.0,0.0,60.0,1.0,0.0
55,68.0,0.0,60.0,1.0,0.0
56,80.0,192.0,60.0,0.0,0.0
57,73.0,0.0,60.0,0.0,0.0
58,61.0,0.0,60.0,1.0,0.0
59,68.0,0.0,60.0,1.0,0.0
60,65.0,0.0,60.0,1.0,0.0
61,73.0,560.0,60.0,0.0,0.0
62,68.0,0.0,60.0,1.0,0.0
63,65.0,0.0,60.0,1.0,0.0
64,61.0,0.0,60.0,1.0,0.0
65,80.0,0.0,60.0,0.0,0.0
66,81.0,160.0,30.0,0.0,0.0
67,81.0,48.0,60.0,0.0,0.0
68,85.0,192.0,60.0,0.0,0.0
69,45.0,336.0,60.0,1.0,0.0
70,81.0,0.0,180.0,0.0,0.0
71,73.0,0.0,180.0,1.0,0.0
72,76.0,192.0,180.0,1.0,0.0
73,71.0,0.0,180.0,1.0,0.0
74,74.0,160.0,180.0,1.0,0.0
75,80.0,0.0,180.0,0.0,0.0
76,69.0,64.0,150.0,1.0,0.0
77,73.0,0.0,150.0,1.0,0.0
78,81.0,0.0,150.0,0.0,0.0
79,88.0,146.0,30.0,0.0,0.0
80,88.0,62.0,30.0,0.0,0.0
81,92.0,192.0,60.0,0.0,0.0
82,52.0,336.0,60.0,1.0,0.0
83,71.0,192.0,180.0,1.0,0.0
84,68.0,0.0,180.0,1.0,0.0
85,76.0,0.0,180.0,0.0,0.0
86,75.0,0.0,180.0,0.0,0.0
87,66.0,0.0,180.0,1.0,0.0
88,69.0,160.0,180.0,1.0,0.0
89,76.0,64.0,150.0,0.0,0.0
90,68.0,0.0,150.0,1.0,0.0
91,64.0,0.0,150.0,1.0,0.0
92,78.0,160.0,30.0,0.0,0.0
93,78.0,48.0,60.0,0.0,0.0
94,85.0,192.0,60.0,0.0,0.0
95,57.0,176.0,60.0,1.0,0.0
96,66.0,0.0,60.0,1.0,0.0
97,61.0,0.0,60.0,1.0,0.0
98,75.0,160.0,30.0,0.0,0.0
99,75.0,48.0,60.0,0.0,0.0
100,83.0,192.0,60.0,0.0,0.0
101,69.0,0.0,60.0,1.0,0.0
102,63.0,176.0,60.0,1.0,0.0
103,59.0,0.0,60.0,1.0,0.0
104,68.0,160.0,30.0,0.0,0.0
105,68.0,48.0,60.0,0.0,0.0
106,76.0,192.0,60.0,0.0,0.0
107,64.0,0.0,60.0,1.0,0.0
108,52.0,0.0,60.0,1.0,0.0
109,59.0,192.0,60.0,1.0,0.0
110,64.0,192.0,60.0,0.0,0.0
111,59.0,0.0,60.0,0.0,0.0
112,56.0,0.0,60.0,0.0,0.0
113,40.0,192.0,60.0,1.0,0.0
114,59.0,0.0,60.0,0.0,0.0
115,56.0,176.0,60.0,0.0,0.0
116,64.0,0.0,60.0,0.0,0.0
117,76.0,160.0,30.0,0.0,0.0
118,76.0,48.0,60.0,0.0,0.0
119,80.0,192.0,60.0,0.0,0.0
120,40.0,304.0,60.0,1.0,0.0
121,76.0,160.0,180.0,0.0,0.0
122,68.0,32.0,150.0,1.0,0.0
123,71.0,0.0,150.0,1.0,0.0
124,66.0,0.0,150.0,1.0,0.0
125,69.0,32.0,150.0,1.0,0.0
126,75.0,160.0,180.0,0.0,0.0
127,64.0,0.0,150.0,1.0,0.0
128,68.0,80.0,150.0,1.0,0.0
129,76.0,0.0,150.0,0.0,0.0
130,59.0,192.0,60.0,1.0,0.0
131,63.0,0.0,60.0,1.0,0.0
132,66.0,0.0,60.0,1.0,0.0
133,71.0,0.0,60.0,0.0,0.0
134,78.0,0.0,60.0,0.0,0.0
135,71.0,0.0,60.0,0.0,0.0
136,78.0,0.0,60.0,0.0,0.0
137,63.0,0.0,60.0,1.0,0.0
138,66.0,0.0,60.0,1.0,0.0
139,59.0,192.0,60.0,1.0,0.0
140,59.0,0.0,60.0,1.0,0.0
141,63.0,0.0,60.0,1.0,0.0
142,71.0,0.0,60.0,0.0,0.0
143,66.0,0.0,60.0,1.0,0.0
144,78.0,192.0,60.0,0.0,0.0
145,78.0,0.0,60.0,0.0,0.0
146,71.0,560.0,60.0,0.0,0.0
147,63.0,0.0,60.0,1.0,0.0
148,59.0,0.0,60.0,1.0,0.0
149,66.0,0.0,60.0,1.0,0.0
150,78.0,158.0,30.0,0.0,0.0
151,78.0,50.0,60.0,0.0,0.0
152,81.0,192.0,60.0,0.0,0.0
153,42.0,336.0,60.0,1.0,0.0
154,78.0,0.0,180.0,0.0,0.0
155,69.0,192.0,180.0,1.0,0.0
156,73.0,0.0,180.0,1.0,0.0
157,77.0,0.0,180.0,0.0,0.0
158,68.0,160.0,180.0,1.0,0.0
159,71.0,0.0,180.0,1.0,0.0
160,78.0,0.0,150.0,0.0,0.0
161,66.0,80.0,150.0,1.0,0.0
162,69.0,0.0,150.0,1.0,0.0
163,73.0,0.0,60.0,0.0,0.0
164,80.0,0.0,60.0,0.0,0.0
165,61.0,192.0,60.0,1.0,0.0
166,65.0,0.0,60.0,1.0,0.0
167,68.0,0.0,60.0,1.0,0.0
168,65.0,0.0,60.0,1.0,0.0
169,80.0,0.0,60.0,0.0,0.0
170,73.0,0.0,60.0,0.0,0.0
171,61.0,0.0,60.0,1.0,0.0
172,68.0,192.0,60.0,1.0,0.0
173,68.0,0.0,60.0,1.0,0.0
174,65.0,0.0,60.0,1.0,0.0
175,61.0,0.0,60.0,1.0,0.0
176,80.0,192.0,60.0,0.0,0.0
177,73.0,0.0,60.0,0.0,0.0
178,61.0,560.0,60.0,1.0,0.0
179,80.0,0.0,60.0,0.0,0.0
180,73.0,0.0,60.0,0.0,0.0
181,65.0,0.0,60.0,1.0,0.0
182,68.0,0.0,60.0,1.0,0.0
183,81.0,160.0,30.0,0.0,0.0
184,81.0,48.0,60.0,0.0,0.0
185,85.0,192.0,60.0,0.0,0.0
186,45.0,336.0,60.0,1.0,0.0
187,76.0,0.0,180.0,1.0,0.0
188,73.0,0.0,180.0,1.0,0.0
189,81.0,192.0,180.0,0.0,0.0
190,74.0,160.0,180.0,1.0,0.0
191,71.0,0.0,180.0,1.0,0.0
192,80.0,0.0,180.0,0.0,0.0
193,69.0,0.0,150.0,1.0,0.0
194,81.0,0.0,150.0,0.0,0.0
195,73.0,64.0,150.0,1.0,0.0
196,88.0,146.0,30.0,0.0,0.0
197,88.0,62.0,30.0,0.0,0.0
198,92.0,192.0,60.0,0.0,0.0
199,52.0,336.0,60.0,1.0,0.0
200,76.0,0.0,180.0,0.0,0.0
201,71.0,192.0,180.0,1.0,0.0
202,68.0,0.0,180.0,1.0,0.0
203,69.0,160.0,180.0,1.0,0.0
204,66.0,0.0,180.0,1.0,0.0
205,75.0,0.0,180.0,0.0,0.0
206,68.0,0.0,150.0,1.0,0.0
207,64.0,0.0,150.0,1.0,0.0
208,76.0,64.0,150.0,0.0,0.0
209,78.0,160.0,30.0,0.0,0.0
210,78.0,48.0,60.0,0.0,0.0
211,85.0,192.0,60.0,0.0,0.0
212,57.0,0.0,60.0,1.0,0.0
213,61.0,176.0,60.0,1.0,0.0
214,66.0,0.0,60.0,1.0,0.0
215,75.0,160.0,30.0,0.0,0.0
216,75.0,48.0,60.0,0.0,0.0
217,83.0,192.0,60.0,0.0,0.0
218,59.0,176.0,60.0,1.0,0.0
219,69.0,0.0,60.0,1.0,0.0
220,63.0,0.0,60.0,1.0,0.0
221,68.0,160.0,30.0,0.0,0.0
222,68.0,48.0,60.0,0.0,0.0
223,76.0,192.0,60.0,0.0,0.0
224,52.0,192.0,60.0,1.0,0.0
225,59.0,0.0,60.0,1.0,0.0
226,64.0,0.0,60.0,1.0,0.0
227,64.0,0.0,60.0,0.0,0.0
228,56.0,192.0,60.0,0.0,0.0
229,59.0,0.0,60.0,0.0,0.0
230,40.0,192.0,60.0,1.0,0.0
231,64.0,0.0,60.0,0.0,0.0
232,59.0,192.0,60.0,0.0,0.0
233,56.0,0.0,60.0,0.0,0.0
234,56.0,0.0,60.0,0.0,0.0
235,59.0,192.0,60.0,0.0,0.0
236,64.0,0.0,60.0,0.0,0.0
237,40.0,336.0,60.0,1.0,0.0
238,68.0,62.0,180.0,0.0,0.0
239,37.0,64.0,60.0,1.0,0.0
240,64.0,46.0,330.0,0.0,0.0
241,76.0,0.0,330.0,0.0,0.0
242,44.0,64.0,60.0,1.0,0.0
243,49.0,64.0,60.0,1.0,0.0
244,37.0,64.0,60.0,1.0,0.0
245,44.0,18.0,60.0,1.0,0.0
246,49.0,64.0,60.0,1.0,0.0
247,37.0,64.0,60.0,1.0,0.0
248,63.0,0.0,180.0,0.0,0.0
249,75.0,62.0,180.0,0.0,0.0
250,44.0,64.0,60.0,1.0,0.0
251,49.0,2.0,60.0,1.0,0.0
252,73.0,0.0,390.0,0.0,0.0
253,61.0,62.0,390.0,0.0,0.0
254,37.0,64.0,60.0,1.0,0.0
255,44.0,64.0,60.0,1.0,0.0
256,49.0,64.0,60.0,1.0,0.0
257,37.0,64.0,60.0,1.0,0.0
258,44.0,64.0,60.0,1.0,0.0
259,49.0,2.0,60.0,1.0,0.0
260,75.0,62.0,180.0,0.0,0.0
261,63.0,0.0,180.0,0.0,0.0
262,37.0,64.0,60.0,1.0,0.0
263,44.0,64.0,60.0,1.0,0.0
264,48.0,2.0,60.0,1.0,0.0
265,37.0,64.0,60.0,1.0,0.0
266,76.0,30.0,300.0,0.0,0.0
267,64.0,0.0,300.0,0.0,0.0
268,44.0,64.0,60.0,1.0,0.0
269,49.0,64.0,60.0,1.0,0.0
270,37.0,34.0,60.0,1.0,0.0
271,44.0,64.0,60.0,1.0,0.0
272,66.0,0.0,90.0,0.0,0.0
273,78.0,62.0,90.0,0.0,0.0
274,49.0,2.0,60.0,1.0,0.0
275,64.0,30.0,90.0,0.0,0.0
276,76.0,0.0,90.0,0.0,0.0
277,37.0,34.0,60.0,1.0,0.0
278,44.0,64.0,60.0,1.0,0.0
279,63.0,0.0,90.0,0.0,0.0
280,75.0,62.0,90.0,0.0,0.0
281,49.0,2.0,60.0,1.0,0.0
282,61.0,46.0,330.0,0.0,0.0
283,37.0,64.0,60.0,1.0,0.0
284,73.0,0.0,330.0,0.0,0.0
285,44.0,64.0,60.0,1.0,0.0
286,49.0,64.0,60.0,1.0,0.0
287,37.0,64.0,60.0,1.0,0.0
288,44.0,18.0,60.0,1.0,0.0
289,49.0,64.0,60.0,1.0,0.0
290,37.0,64.0,60.0,1.0,0.0
291,75.0,62.0,180.0,0.0,0.0
292,63.0,0.0,180.0,0.0,0.0
293,44.0,64.0,60.0,1.0,0.0
294,48.0,2.0,60.0,1.0,0.0
295,37.0,64.0,60.0,1.0,0.0
296,64.0,62.0,390.0,0.0,0.0
297,76.0,0.0,390.0,0.0,0.0
298,44.0,64.0,60.0,1.0,0.0
299,49.0,64.0,60.0,1.0,0.0
300,37.0,64.0,60.0,1.0,0.0
301,44.0,64.0,60.0,1.0,0.0
302,49.0,2.0,60.0,1.0,0.0
303,63.0,62.0,180.0,0.0,0.0
304,36.0,64.0,60.0,1.0,0.0
305,75.0,0.0,180.0,0.0,0.0
306,44.0,64.0,60.0,1.0,0.0
307,48.0,2.0,60.0,1.0,0.0
308,37.0,64.0,60.0,1.0,0.0
309,64.0,62.0,390.0,0.0,0.0
310,76.0,0.0,390.0,0.0,0.0
311,44.0,64.0,60.0,1.0,0.0
312,49.0,64.0,60.0,1.0,0.0
313,37.0,64.0,60.0,1.0,0.0
314,44.0,64.0,60.0,1.0,0.0
315,49.0,2.0,60.0,1.0,0.0
316,39.0,64.0,60.0,1.0,0.0
317,66.0,0.0,150.0,0.0,0.0
318,78.0,30.0,150.0,0.0,0.0
319,47.0,34.0,60.0,1.0,0.0
320,51.0,64.0,60.0,1.0,0.0
321,68.0,0.0,570.0,0.0,0.0
322,40.0,64.0,60.0,1.0,0.0
323,80.0,62.0,570.0,0.0,0.0
324,47.0,64.0,60.0,1.0,0.0
325,52.0,64.0,60.0,1.0,0.0
326,40.0,64.0,60.0,1.0,0.0
327,47.0,64.0,60.0,1.0,0.0
328,52.0,64.0,60.0,1.0,0.0
329,40.0,64.0,60.0,1.0,0.0
330,47.0,64.0,60.0,1.0,0.0
331,52.0,2.0,60.0,1.0,0.0
332,68.0,0.0,330.0,0.0,0.0
333,80.0,46.0,330.0,0.0,0.0
334,40.0,64.0,60.0,1.0,0.0
335,47.0,64.0,60.0,1.0,0.0
336,52.0,64.0,60.0,1.0,0.0
337,40.0,64.0,60.0,1.0,0.0
338,47.0,18.0,60.0,1.0,0.0
339,52.0,64.0,60.0,1.0,0.0
340,40.0,34.0,60.0,1.0,0.0
341,64.0,0.0,90.0,0.0,0.0
342,76.0,30.0,90.0,0.0,0.0
343,47.0,64.0,60.0,1.0,0.0
344,66.0,0.0,90.0,0.0,0.0
345,78.0,62.0,90.0,0.0,0.0
346,52.0,2.0,60.0,1.0,0.0
347,40.0,64.0,60.0,1.0,0.0
348,80.0,62.0,390.0,0.0,0.0
349,68.0,0.0,390.0,0.0,0.0
350,47.0,64.0,60.0,1.0,0.0
351,52.0,64.0,60.0,1.0,0.0
352,40.0,64.0,60.0,1.0,0.0
353,47.0,64.0,60.0,1.0,0.0
354,52.0,2.0,60.0,1.0,0.0
355,40.0,64.0,60.0,1.0,0.0
356,78.0,62.0,180.0,0.0,0.0
357,66.0,0.0,180.0,0.0,0.0
358,47.0,64.0,60.0,1.0,0.0
359,52.0,2.0,60.0,1.0,0.0
360,76.0,62.0,390.0,0.0,0.0
361,40.0,64.0,60.0,1.0,0.0
362,64.0,0.0,390.0,0.0,0.0
363,47.0,64.0,60.0,1.0,0.0
364,52.0,64.0,60.0,1.0,0.0
365,40.0,64.0,60.0,1.0,0.0
366,47.0,64.0,60.0,1.0,0.0
367,52.0,2.0,60.0,1.0,0.0
368,78.0,62.0,180.0,0.0,0.0
369,66.0,0.0,180.0,0.0,0.0
370,40.0,64.0,60.0,1.0,0.0
371,47.0,64.0,60.0,1.0,0.0
372,52.0,2.0,60.0,1.0,0.0
373,40.0,64.0,60.0,1.0,0.0
374,80.0,30.0,300.0,0.0,0.0
375,68.0,0.0,300.0,0.0,0.0
376,47.0,64.0,60.0,1.0,0.0
377,52.0,64.0,60.0,1.0,0.0
378,40.0,34.0,60.0,1.0,0.0
379,47.0,64.0,60.0,1.0,0.0
380,81.0,0.0,90.0,0.0,0.0
381,69.0,62.0,90.0,0.0,0.0
382,52.0,2.0,60.0,1.0,0.0
383,40.0,34.0,60.0,1.0,0.0
384,68.0,30.0,90.0,0.0,0.0
385,80.0,0.0,90.0,0.0,0.0
386,47.0,64.0,60.0,1.0,0.0
387,66.0,0.0,90.0,0.0,0.0
388,78.0,62.0,90.0,0.0,0.0
389,52.0,2.0,60.0,1.0,0.0
390,76.0,46.0,330.0,0.0,0.0
391,40.0,64.0,60.0,1.0,0.0
392,64.0,0.0,330.0,0.0,0.0
393,47.0,64.0,60.0,1.0,0.0
394,52.0,64.0,60.0,1.0,0.0
395,40.0,64.0,60.0,1.0,0.0
396,47.0,18.0,60.0,1.0,0.0
397,52.0,64.0,60.0,1.0,0.0
398,39.0,64.0,60.0,1.0,0.0
399,66.0,30.0,150.0,0.0,0.0
400,78.0,0.0,150.0,0.0,0.0
401,47.0,34.0,60.0,1.0,0.0
402,51.0,64.0,60.0,1.0,0.0
403,80.0,0.0,330.0,0.0,0.0
404,40.0,64.0,60.0,1.0,0.0
405,68.0,46.0,330.0,0.0,0.0
406,47.0,64.0,60.0,1.0,0.0
407,52.0,64.0,60.0,1.0,0.0
408,40.0,64.0,60.0,1.0,0.0
409,47.0,18.0,60.0,1.0,0.0
410,52.0,64.0,60.0,1.0,0.0
411,66.0,30.0,150.0,0.0,0.0
412,78.0,0.0,150.0,0.0,0.0
413,42.0,64.0,60.0,1.0,0.0
414,45.0,34.0,60.0,1.0,0.0
415,54.0,64.0,60.0,1.0,0.0
416,44.0,64.0,60.0,1.0,0.0
417,64.0,0.0,330.0,0.0,0.0
418,76.0,46.0,330.0,0.0,0.0
419,49.0,64.0,60.0,1.0,0.0
420,56.0,64.0,60.0,1.0,0.0
421,44.0,64.0,60.0,1.0,0.0
422,49.0,18.0,60.0,1.0,0.0
423,56.0,64.0,60.0,1.0,0.0
424,75.0,0.0,150.0,0.0,0.0
425,63.0,30.0,150.0,0.0,0.0
426,44.0,64.0,60.0,1.0,0.0
427,48.0,34.0,60.0,1.0,0.0
428,56.0,64.0,60.0,1.0,0.0
429,73.0,0.0,570.0,0.0,0.0
430,37.0,64.0,60.0,1.0,0.0
431,61.0,62.0,570.0,0.0,0.0
432,40.0,64.0,60.0,1.0,0.0
433,44.0,64.0,60.0,1.0,0.0
434,49.0,64.0,60.0,1.0,0.0
435,44.0,64.0,60.0,1.0,0.0
436,40.0,64.0,60.0,1.0,0.0
437,37.0,64.0,60.0,1.0,0.0
438,40.0,64.0,60.0,1.0,0.0
439,44.0,2.0,60.0,1.0,0.0
440,49.0,64.0,60.0,1.0,0.0
441,61.0,0.0,330.0,0.0,0.0
442,73.0,46.0,330.0,0.0,0.0
443,44.0,64.0,60.0,1.0,0.0
444,40.0,64.0,60.0,1.0,0.0
445,37.0,64.0,60.0,1.0,0.0
446,40.0,18.0,60.0,1.0,0.0
447,44.0,64.0,60.0,1.0,0.0
448,68.0,30.0,150.0,0.0,0.0
449,49.0,64.0,60.0,1.0,0.0
450,44.0,34.0,60.0,1.0,0.0
451,40.0,64.0,60.0,1.0,0.0
452,76.0,0.0,330.0,0.0,0.0
453,64.0,46.0,330.0,0.0,0.0
454,37.0,64.0,60.0,1.0,0.0
455,44.0,64.0,60.0,1.0,0.0
456,49.0,64.0,60.0,1.0,0.0
457,37.0,64.0,60.0,1.0,0.0
458,44.0,18.0,60.0,1.0,0.0
459,49.0,64.0,60.0,1.0,0.0
460,63.0,62.0,180.0,0.0,0.0
461,37.0,64.0,60.0,1.0,0.0
462,75.0,0.0,180.0,0.0,0.0
463,44.0,64.0,60.0,1.0,0.0
464,49.0,2.0,60.0,1.0,0.0
465,73.0,0.0,390.0,0.0,0.0
466,61.0,62.0,390.0,0.0,0.0
467,37.0,64.0,60.0,1.0,0.0
468,44.0,64.0,60.0,1.0,0.0
469,49.0,64.0,60.0,1.0,0.0
470,37.0,64.0,60.0,1.0,0.0
471,44.0,64.0,60.0,1.0,0.0
472,49.0,2.0,60.0,1.0,0.0
473,63.0,62.0,180.0,0.0,0.0
474,75.0,0.0,180.0,0.0,0.0
475,37.0,64.0,60.0,1.0,0.0
476,44.0,64.0,60.0,1.0,0.0
477,48.0,2.0,60.0,1.0,0.0
478,37.0,64.0,60.0,1.0,0.0
479,76.0,0.0,300.0,0.0,0.0
480,64.0,30.0,300.0,0.0,0.0
481,44.0,64.0,60.0,1.0,0.0
482,49.0,64.0,60.0,1.0,0.0
483,37.0,34.0,60.0,1.0,0.0
484,44.0,64.0,60.0,1.0,0.0
485,66.0,0.0,90.0,0.0,0.0
486,78.0,62.0,90.0,0.0,0.0
487,49.0,2.0,60.0,1.0,0.0
488,37.0,34.0,60.0,1.0,0.0
489,76.0,0.0,90.0,0.0,0.0
490,64.0,30.0,90.0,0.0,0.0
491,44.0,64.0,60.0,1.0,0.0
492,63.0,0.0,90.0,0.0,0.0
493,75.0,62.0,90.0,0.0,0.0
494,49.0,2.0,60.0,1.0,0.0
495,73.0,46.0,330.0,0.0,0.0
496,61.0,0.0,330.0,0.0,0.0
497,37.0,64.0,60.0,1.0,0.0
498,44.0,64.0,60.0,1.0,0.0
499,49.0,64.0,60.0,1.0,0.0
500,37.0,64.0,60.0,1.0,0.0
501,44.0,18.0,60.0,1.0,0.0
502,49.0,64.0,60.0,1.0,0.0
503,75.0,62.0,180.0,0.0,0.0
504,63.0,0.0,180.0,0.0,0.0
505,37.0,64.0,60.0,1.0,0.0
506,44.0,64.0,60.0,1.0,0.0
507,48.0,2.0,60.0,1.0,0.0
508,64.0,62.0,390.0,0.0,0.0
509,76.0,0.0,390.0,0.0,0.0
510,37.0,64.0,60.0,1.0,0.0
511,44.0,64.0,60.0,1.0,0.0
512,49.0,64.0,60.0,1.0,0.0
513,37.0,64.0,60.0,1.0,0.0
514,44.0,64.0,60.0,1.0,0.0
515,49.0,2.0,60.0,1.0,0.0
516,36.0,64.0,60.0,1.0,0.0
517,75.0,0.0,180.0,0.0,0.0
518,63.0,62.0,180.0,0.0,0.0
519,44.0,64.0,60.0,1.0,0.0
520,48.0,2.0,60.0,1.0,0.0
521,76.0,62.0,390.0,0.0,0.0
522,64.0,0.0,390.0,0.0,0.0
523,37.0,64.0,60.0,1.0,0.0
524,44.0,64.0,60.0,1.0,0.0
525,49.0,64.0,60.0,1.0,0.0
526,37.0,64.0,60.0,1.0,0.0
527,44.0,64.0,60.0,1.0,0.0
528,49.0,2.0,60.0,1.0,0.0
529,39.0,64.0,60.0,1.0,0.0
530,78.0,30.0,150.0,0.0,0.0
531,66.0,0.0,150.0,0.0,0.0
532,47.0,34.0,60.0,1.0,0.0
533,51.0,64.0,60.0,1.0,0.0
534,40.0,64.0,60.0,1.0,0.0
535,80.0,0.0,570.0,0.0,0.0
536,47.0,64.0,60.0,1.0,0.0
537,52.0,64.0,60.0,1.0,0.0
538,40.0,64.0,60.0,1.0,0.0
539,47.0,64.0,60.0,1.0,0.0
540,52.0,64.0,60.0,1.0,0.0
541,40.0,64.0,60.0,1.0,0.0
542,47.0,64.0,60.0,1.0,0.0
543,52.0,2.0,60.0,1.0,0.0
544,68.0,62.0,15.0,0.0,0.0
545,80.0,46.0,330.0,0.0,0.0
546,40.0,64.0,60.0,1.0,0.0
547,47.0,64.0,60.0,1.0,0.0
548,52.0,64.0,60.0,1.0,0.0
549,40.0,64.0,60.0,1.0,0.0
550,47.0,18.0,60.0,1.0,0.0
551,52.0,64.0,60.0,1.0,0.0
552,76.0,30.0,90.0,0.0,0.0
553,40.0,34.0,60.0,1.0,0.0
554,64.0,0.0,90.0,0.0,0.0
555,47.0,64.0,60.0,1.0,0.0
556,66.0,62.0,90.0,0.0,0.0
557,78.0,0.0,90.0,0.0,0.0
558,52.0,2.0,60.0,1.0,0.0
559,68.0,62.0,390.0,0.0,0.0
560,40.0,64.0,60.0,1.0,0.0
561,80.0,0.0,390.0,0.0,0.0
562,47.0,64.0,60.0,1.0,0.0
563,52.0,64.0,60.0,1.0,0.0
564,40.0,64.0,60.0,1.0,0.0
565,47.0,64.0,60.0,1.0,0.0
566,52.0,2.0,60.0,1.0,0.0
567,40.0,64.0,60.0,1.0,0.0
568,66.0,0.0,180.0,0.0,0.0
569,78.0,62.0,180.0,0.0,0.0
570,47.0,64.0,60.0,1.0,0.0
571,52.0,2.0,60.0,1.0,0.0
572,76.0,0.0,390.0,0.0,0.0
573,64.0,62.0,390.0,0.0,0.0
574,40.0,64.0,60.0,1.0,0.0
575,47.0,64.0,60.0,1.0,0.0
576,52.0,64.0,60.0,1.0,0.0
577,40.0,64.0,60.0,1.0,0.0
578,47.0,64.0,60.0,1.0,0.0
579,52.0,2.0,60.0,1.0,0.0
580,40.0,64.0,60.0,1.0,0.0
581,78.0,62.0,180.0,0.0,0.0
582,66.0,0.0,180.0,0.0,0.0
583,47.0,64.0,60.0,1.0,0.0
584,52.0,2.0,60.0,1.0,0.0
585,68.0,30.0,300.0,0.0,0.0
586,80.0,0.0,300.0,0.0,0.0
587,40.0,64.0,60.0,1.0,0.0
588,47.0,64.0,60.0,1.0,0.0
589,52.0,64.0,60.0,1.0,0.0
590,40.0,34.0,60.0,1.0,0.0
591,47.0,64.0,60.0,1.0,0.0
592,69.0,0.0,90.0,0.0,0.0
593,81.0,62.0,90.0,0.0,0.0
594,52.0,2.0,60.0,1.0,0.0
595,40.0,34.0,60.0,1.0,0.0
596,68.0,0.0,90.0,0.0,0.0
597,80.0,30.0,90.0,0.0,0.0
598,47.0,64.0,60.0,1.0,0.0
599,78.0,0.0,90.0,0.0,0.0
600,66.0,62.0,90.0,0.0,0.0
601,52.0,2.0,60.0,1.0,0.0
602,64.0,46.0,330.0,0.0,0.0
603,76.0,0.0,330.0,0.0,0.0
604,40.0,64.0,60.0,1.0,0.0
605,47.0,64.0,60.0,1.0,0.0
606,52.0,64.0,60.0,1.0,0.0
607,40.0,64.0,60.0,1.0,0.0
608,47.0,18.0,60.0,1.0,0.0
609,52.0,64.0,60.0,1.0,0.0
610,39.0,64.0,60.0,1.0,0.0
611,66.0,0.0,150.0,0.0,0.0
612,78.0,30.0,150.0,0.0,0.0
613,47.0,34.0,60.0,1.0,0.0
614,51.0,64.0,60.0,1.0,0.0
615,68.0,0.0,330.0,0.0,0.0
616,40.0,64.0,60.0,1.0,0.0
617,80.0,46.0,330.0,0.0,0.0
618,47.0,64.0,60.0,1.0,0.0
619,52.0,64.0,60.0,1.0,0.0
620,40.0,64.0,60.0,1.0,0.0
621,47.0,18.0,60.0,1.0,0.0
622,52.0,64.0,60.0,1.0,0.0
623,42.0,64.0,60.0,1.0,0.0
624,66.0,30.0,150.0,0.0,0.0
625,78.0,0.0,150.0,0.0,0.0
626,45.0,34.0,60.0,1.0,0.0
627,54.0,64.0,60.0,1.0,0.0
628,76.0,0.0,330.0,0.0,0.0
629,44.0,64.0,60.0,1.0,0.0
630,64.0,46.0,330.0,0.0,0.0
631,49.0,64.0,60.0,1.0,0.0
632,56.0,64.0,60.0,1.0,0.0
633,44.0,64.0,60.0,1.0,0.0
634,49.0,18.0,60.0,1.0,0.0
635,56.0,64.0,60.0,1.0,0.0
636,63.0,30.0,150.0,0.0,0.0
637,44.0,64.0,60.0,1.0,0.0
638,75.0,0.0,150.0,0.0,0.0
639,48.0,34.0,60.0,1.0,0.0
640,56.0,64.0,60.0,1.0,0.0
641,37.0,64.0,60.0,1.0,0.0
642,40.0,64.0,60.0,1.0,0.0
643,44.0,64.0,60.0,1.0,0.0
644,49.0,64.0,60.0,1.0,0.0
645,44.0,64.0,60.0,1.0,0.0
646,40.0,64.0,60.0,1.0,0.0
647,37.0,64.0,60.0,1.0,0.0
648,40.0,64.0,60.0,1.0,0.0
649,44.0,2.0,60.0,1.0,0.0
650,73.0,62.0,15.0,0.0,0.0
651,61.0,0.0,15.0,0.0,0.0
652,49.0,64.0,60.0,1.0,0.0
653,44.0,64.0,60.0,1.0,0.0
654,40.0,64.0,60.0,1.0,0.0
655,37.0,64.0,60.0,1.0,0.0
656,40.0,18.0,60.0,1.0,0.0
657,44.0,64.0,60.0,1.0,0.0
658,49.0,64.0,60.0,1.0,0.0
659,68.0,30.0,150.0,0.0,0.0
660,44.0,34.0,60.0,1.0,0.0
661,40.0,64.0,60.0,1.0,0.0
662,37.0,64.0,60.0,1.0,0.0
663,73.0,0.0,570.0,0.0,0.0
664,61.0,62.0,570.0,0.0,0.0
665,40.0,64.0,60.0,1.0,0.0
666,44.0,64.0,60.0,1.0,0.0
667,49.0,64.0,60.0,1.0,0.0
668,44.0,64.0,60.0,1.0,0.0
669,40.0,64.0,60.0,1.0,0.0
670,37.0,64.0,60.0,1.0,0.0
671,40.0,64.0,60.0,1.0,0.0
672,44.0,2.0,60.0,1.0,0.0
673,49.0,64.0,60.0,1.0,0.0
674,73.0,0.0,330.0,0.0,0.0
675,61.0,46.0,330.0,0.0,0.0
676,44.0,64.0,60.0,1.0,0.0
677,40.0,96.0,60.0,1.0,0.0
678,37.0,50.0,90.0,1.0,0.0
679,49.0,96.0,90.0,1.0,0.0
680,39.0,66.0,90.0,1.0,0.0
681,75.0,30.0,150.0,0.0,0.0
682,63.0,0.0,150.0,0.0,0.0
683,51.0,34.0,90.0,1.0,0.0
684,76.0,160.0,30.0,0.0,0.0
685,76.0,48.0,60.0,0.0,0.0
686,80.0,192.0,60.0,0.0,0.0
687,40.0,304.0,60.0,1.0,0.0
688,71.0,32.0,150.0,1.0,0.0
689,68.0,0.0,150.0,1.0,0.0
690,76.0,160.0,180.0,0.0,0.0
691,75.0,160.0,180.0,0.0,0.0
692,69.0,32.0,150.0,1.0,0.0
693,66.0,0.0,150.0,1.0,0.0
694,68.0,0.0,150.0,1.0,0.0
695,76.0,80.0,150.0,0.0,0.0
696,64.0,0.0,150.0,1.0,0.0
697,71.0,0.0,60.0,0.0,0.0
698,78.0,0.0,60.0,0.0,0.0
699,59.0,192.0,60.0,1.0,0.0
700,63.0,0.0,60.0,1.0,0.0
701,66.0,0.0,60.0,1.0,0.0
702,59.0,192.0,60.0,1.0,0.0
703,71.0,0.0,60.0,0.0,0.0
704,78.0,0.0,60.0,0.0,0.0
705,66.0,0.0,60.0,1.0,0.0
706,63.0,0.0,60.0,1.0,0.0
707,66.0,0.0,60.0,1.0,0.0
708,63.0,192.0,60.0,1.0,0.0
709,59.0,0.0,60.0,1.0,0.0
710,71.0,0.0,60.0,0.0,0.0
711,78.0,0.0,60.0,0.0,0.0
712,63.0,0.0,60.0,1.0,0.0
713,66.0,0.0,60.0,1.0,0.0
714,59.0,0.0,60.0,1.0,0.0
715,78.0,0.0,60.0,0.0,0.0
716,71.0,560.0,60.0,0.0,0.0
717,78.0,158.0,30.0,0.0,0.0
718,78.0,50.0,60.0,0.0,0.0
719,81.0,192.0,60.0,0.0,0.0
720,42.0,336.0,60.0,1.0,0.0
721,78.0,192.0,180.0,0.0,0.0
722,73.0,0.0,180.0,1.0,0.0
723,69.0,0.0,180.0,1.0,0.0
724,68.0,0.0,180.0,1.0,0.0
725,77.0,160.0,180.0,0.0,0.0
726,71.0,0.0,180.0,1.0,0.0
727,69.0,0.0,150.0,1.0,0.0
728,66.0,0.0,150.0,1.0,0.0
729,78.0,80.0,150.0,0.0,0.0
730,65.0,0.0,60.0,1.0,0.0
731,68.0,0.0,60.0,1.0,0.0
732,61.0,0.0,60.0,1.0,0.0
733,73.0,192.0,60.0,0.0,0.0
734,80.0,0.0,60.0,0.0,0.0
735,73.0,0.0,60.0,0.0,0.0
736,80.0,0.0,60.0,0.0,0.0
737,68.0,0.0,60.0,1.0,0.0
738,65.0,0.0,60.0,1.0,0.0
739,61.0,192.0,60.0,1.0,0.0
740,61.0,192.0,60.0,1.0,0.0
741,65.0,0.0,60.0,1.0,0.0
742,68.0,0.0,60.0,1.0,0.0
743,80.0,0.0,60.0,0.0,0.0
744,73.0,0.0,60.0,0.0,0.0
745,61.0,0.0,60.0,1.0,0.0
746,65.0,0.0,60.0,1.0,0.0
747,68.0,0.0,60.0,1.0,0.0
748,73.0,0.0,60.0,0.0,0.0
749,80.0,560.0,60.0,0.0,0.0
750,81.0,160.0,30.0,0.0,0.0
751,81.0,48.0,60.0,0.0,0.0
752,85.0,192.0,60.0,0.0,0.0
753,45.0,336.0,60.0,1.0,0.0
754,73.0,192.0,180.0,1.0,0.0
755,76.0,0.0,180.0,1.0,0.0
756,81.0,0.0,180.0,0.0,0.0
757,80.0,0.0,180.0,0.0,0.0
758,74.0,160.0,180.0,1.0,0.0
759,71.0,0.0,180.0,1.0,0.0
760,81.0,0.0,150.0,0.0,0.0
761,69.0,0.0,150.0,1.0,0.0
762,73.0,64.0,150.0,1.0,0.0
763,88.0,146.0,30.0,0.0,0.0
764,88.0,62.0,30.0,0.0,0.0
765,92.0,192.0,60.0,0.0,0.0
766,52.0,336.0,60.0,1.0,0.0
767,76.0,0.0,180.0,0.0,0.0
768,71.0,0.0,180.0,1.0,0.0
769,68.0,192.0,180.0,1.0,0.0
770,75.0,0.0,180.0,0.0,0.0
771,66.0,0.0,180.0,1.0,0.0
772,69.0,160.0,180.0,1.0,0.0
773,64.0,0.0,150.0,1.0,0.0
774,68.0,0.0,150.0,1.0,0.0
775,76.0,64.0,150.0,0.0,0.0
776,78.0,160.0,30.0,0.0,0.0
777,78.0,48.0,60.0,0.0,0.0
778,85.0,192.0,60.0,0.0,0.0
779,61.0,0.0,60.0,1.0,0.0
780,57.0,176.0,60.0,1.0,0.0
781,66.0,0.0,60.0,1.0,0.0
782,75.0,160.0,30.0,0.0,0.0
783,75.0,48.0,60.0,0.0,0.0
784,83.0,192.0,60.0,0.0,0.0
785,63.0,0.0,60.0,1.0,0.0
786,69.0,176.0,60.0,1.0,0.0
787,59.0,0.0,60.0,1.0,0.0
788,68.0,160.0,30.0,0.0,0.0
789,68.0,48.0,60.0,0.0,0.0
790,76.0,192.0,60.0,0.0,0.0
791,64.0,192.0,60.0,1.0,0.0
792,59.0,0.0,60.0,1.0,0.0
793,52.0,0.0,60.0,1.0,0.0
794,64.0,0.0,60.0,0.0,0.0
795,59.0,192.0,60.0,0.0,0.0
796,56.0,0.0,60.0,0.0,0.0
797,40.0,192.0,60.0,1.0,0.0
798,59.0,240.0,60.0,0.0,0.0
799,59.0,0.0,570.0,0.0,0.0
800,71.0,0.0,570.0,0.0,0.0
801,68.0,96.0,570.0,0.0,0.0
802,40.0,96.0,90.0,1.0,0.0
803,42.0,96.0,90.0,1.0,0.0
804,44.0,96.0,90.0,1.0,0.0
805,45.0,96.0,90.0,1.0,0.0
806,47.0,96.0,90.0,1.0,0.0
807,49.0,0.0,90.0,1.0,0.0
808,69.0,48.0,540.0,0.0,0.0
809,66.0,0.0,540.0,0.0,0.0
810,51.0,96.0,90.0,1.0,0.0
811,59.0,0.0,540.0,0.0,0.0
812,52.0,96.0,90.0,1.0,0.0
813,54.0,96.0,90.0,1.0,0.0
814,47.0,96.0,90.0,1.0,0.0
815,49.0,48.0,90.0,1.0,0.0
816,51.0,96.0,90.0,1.0,0.0
817,52.0,48.0,540.0,1.0,0.0
818,64.0,96.0,90.0,0.0,0.0
819,68.0,0.0,90.0,0.0,0.0
820,69.0,0.0,90.0,0.0,0.0
821,66.0,96.0,90.0,0.0,0.0
822,68.0,96.0,90.0,0.0,0.0
823,71.0,0.0,90.0,0.0,0.0
824,69.0,96.0,90.0,0.0,0.0
825,73.0,0.0,90.0,0.0,0.0
826,71.0,0.0,90.0,0.0,0.0
827,75.0,48.0,90.0,0.0,0.0
828,76.0,0.0,90.0,0.0,0.0
829,73.0,96.0,90.0,0.0,0.0
830,47.0,48.0,330.0,1.0,0.0
831,78.0,96.0,90.0,0.0,0.0
832,75.0,0.0,90.0,0.0,0.0
833,76.0,96.0,90.0,0.0,0.0
834,80.0,0.0,90.0,0.0,0.0
835,81.0,48.0,90.0,0.0,0.0
836,78.0,0.0,90.0,0.0,0.0
837,80.0,96.0,90.0,0.0,0.0
838,83.0,0.0,90.0,0.0,0.0
839,81.0,0.0,90.0,0.0,0.0
840,45.0,30.0,150.0,1.0,0.0
841,85.0,64.0,90.0,0.0,0.0
842,78.0,0.0,90.0,0.0,0.0
843,87.0,50.0,90.0,0.0,0.0
844,44.0,96.0,90.0,1.0,0.0
845,88.0,0.0,60.0,0.0,0.0
846,83.0,48.0,60.0,0.0,0.0
847,40.0,96.0,90.0,1.0,0.0
848,59.0,96.0,390.0,0.0,0.0
849,68.0,0.0,390.0,0.0,0.0
850,71.0,0.0,390.0,0.0,0.0
851,44.0,96.0,90.0,1.0,0.0
852,45.0,96.0,90.0,1.0,0.0
853,47.0,96.0,90.0,1.0,0.0
854,49.0,0.0,90.0,1.0,0.0
855,51.0,64.0,90.0,1.0,0.0
856,69.0,0.0,150.0,0.0,0.0
857,66.0,0.0,150.0,0.0,0.0
858,59.0,32.0,150.0,0.0,0.0
859,52.0,96.0,90.0,1.0,0.0
860,54.0,96.0,90.0,1.0,0.0
861,59.0,46.0,330.0,0.0,0.0
862,66.0,0.0,330.0,0.0,0.0
863,69.0,0.0,330.0,0.0,0.0
864,47.0,96.0,90.0,1.0,0.0
865,49.0,48.0,90.0,1.0,0.0
866,51.0,50.0,90.0,1.0,0.0
867,52.0,48.0,60.0,1.0,0.0
868,64.0,0.0,90.0,0.0,0.0
869,68.0,96.0,90.0,0.0,0.0
870,66.0,96.0,90.0,0.0,0.0
871,70.0,0.0,90.0,0.0,0.0
872,68.0,0.0,90.0,0.0,0.0
873,71.0,96.0,90.0,0.0,0.0
874,49.0,48.0,330.0,1.0,0.0
875,70.0,0.0,90.0,0.0,0.0
876,73.0,96.0,90.0,0.0,0.0
877,75.0,0.0,90.0,0.0,0.0
878,71.0,48.0,90.0,0.0,0.0
879,73.0,48.0,90.0,0.0,0.0
880,76.0,0.0,90.0,0.0,0.0
881,75.0,0.0,90.0,0.0,0.0
882,78.0,96.0,90.0,0.0,0.0
883,47.0,48.0,60.0,1.0,0.0
884,76.0,96.0,90.0,0.0,0.0
885,80.0,0.0,90.0,0.0,0.0
886,78.0,96.0,90.0,0.0,0.0
887,82.0,0.0,90.0,0.0,0.0
888,47.0,46.0,330.0,1.0,0.0
889,80.0,96.0,90.0,0.0,0.0
890,83.0,0.0,90.0,0.0,0.0
891,85.0,0.0,90.0,0.0,0.0
892,82.0,48.0,90.0,0.0,0.0
893,83.0,0.0,90.0,0.0,0.0
894,87.0,50.0,90.0,0.0,0.0
895,46.0,96.0,90.0,1.0,0.0
896,85.0,46.0,60.0,0.0,0.0
897,88.0,0.0,60.0,0.0,0.0
898,47.0,96.0,90.0,1.0,0.0
899,85.0,48.0,390.0,0.0,0.0
900,88.0,0.0,390.0,0.0,0.0
901,49.0,96.0,90.0,1.0,0.0
902,42.0,96.0,90.0,1.0,0.0
903,44.0,96.0,90.0,1.0,0.0
904,46.0,2.0,90.0,1.0,0.0
905,52.0,96.0,90.0,1.0,0.0
906,83.0,46.0,60.0,0.0,0.0
907,87.0,0.0,60.0,0.0,0.0
908,51.0,96.0,90.0,1.0,0.0
909,83.0,0.0,330.0,0.0,0.0
910,52.0,96.0,90.0,1.0,0.0
911,87.0,46.0,330.0,0.0,0.0
912,54.0,96.0,90.0,1.0,0.0
913,55.0,50.0,90.0,1.0,0.0
914,58.0,50.0,90.0,1.0,0.0
915,52.0,96.0,90.0,1.0,0.0
916,83.0,46.0,60.0,0.0,0.0
917,85.0,0.0,60.0,0.0,0.0
918,92.0,0.0,60.0,0.0,0.0
919,51.0,50.0,90.0,1.0,0.0
920,52.0,96.0,90.0,1.0,0.0
921,92.0,0.0,60.0,0.0,0.0
922,85.0,0.0,60.0,0.0,0.0
923,83.0,46.0,60.0,0.0,0.0
924,49.0,50.0,90.0,1.0,0.0
925,82.0,46.0,60.0,0.0,0.0
926,85.0,0.0,60.0,0.0,0.0
927,90.0,0.0,60.0,0.0,0.0
928,54.0,96.0,90.0,1.0,0.0
929,42.0,50.0,90.0,1.0,0.0
930,87.0,0.0,60.0,0.0,0.0
931,47.0,384.0,60.0,1.0,0.0
932,78.0,0.0,60.0,0.0,0.0
933,83.0,0.0,60.0,0.0,0.0
934,59.0,240.0,60.0,0.0,0.0
935,40.0,96.0,90.0,1.0,0.0
936,68.0,0.0,570.0,0.0,0.0
937,71.0,96.0,570.0,0.0,0.0
938,42.0,96.0,90.0,1.0,0.0
939,44.0,96.0,90.0,1.0,0.0
940,45.0,96.0,90.0,1.0,0.0
941,47.0,96.0,90.0,1.0,0.0
942,49.0,0.0,90.0,1.0,0.0
943,51.0,96.0,90.0,1.0,0.0
944,69.0,0.0,540.0,0.0,0.0
945,66.0,0.0,540.0,0.0,0.0
946,59.0,0.0,15.0,0.0,0.0
947,52.0,96.0,90.0,1.0,0.0
948,54.0,96.0,90.0,1.0,0.0
949,47.0,96.0,90.0,1.0,0.0
950,49.0,48.0,90.0,1.0,0.0
951,51.0,96.0,90.0,1.0,0.0
952,64.0,0.0,90.0,0.0,0.0
953,68.0,96.0,90.0,0.0,0.0
954,52.0,48.0,540.0,1.0,0.0
955,69.0,96.0,90.0,0.0,0.0
956,66.0,0.0,90.0,0.0,0.0
957,71.0,96.0,90.0,0.0,0.0
958,68.0,0.0,90.0,0.0,0.0
959,69.0,0.0,90.0,0.0,0.0
960,73.0,96.0,90.0,0.0,0.0
961,71.0,0.0,90.0,0.0,0.0
962,75.0,48.0,90.0,0.0,0.0
963,76.0,96.0,90.0,0.0,0.0
964,73.0,0.0,90.0,0.0,0.0
965,78.0,96.0,90.0,0.0,0.0
966,47.0,48.0,330.0,1.0,0.0
967,75.0,0.0,90.0,0.0,0.0
968,80.0,96.0,90.0,0.0,0.0
969,76.0,0.0,90.0,0.0,0.0
970,81.0,48.0,90.0,0.0,0.0
971,78.0,0.0,90.0,0.0,0.0
972,80.0,96.0,90.0,0.0,0.0
973,83.0,0.0,90.0,0.0,0.0
974,81.0,64.0,90.0,0.0,0.0
975,85.0,0.0,90.0,0.0,0.0
976,45.0,30.0,150.0,1.0,0.0
977,78.0,50.0,90.0,0.0,0.0
978,87.0,0.0,90.0,0.0,0.0
979,44.0,96.0,90.0,1.0,0.0
980,83.0,0.0,60.0,0.0,0.0
981,88.0,48.0,60.0,0.0,0.0
982,40.0,96.0,90.0,1.0,0.0
983,44.0,96.0,90.0,1.0,0.0
984,68.0,0.0,390.0,0.0,0.0
985,71.0,0.0,390.0,0.0,0.0
986,45.0,96.0,90.0,1.0,0.0
987,47.0,96.0,90.0,1.0,0.0
988,49.0,0.0,90.0,1.0,0.0
989,51.0,64.0,90.0,1.0,0.0
990,59.0,96.0,15.0,0.0,0.0
991,66.0,32.0,150.0,0.0,0.0
992,69.0,0.0,150.0,0.0,0.0
993,52.0,96.0,90.0,1.0,0.0
994,59.0,0.0,330.0,0.0,0.0
995,66.0,0.0,330.0,0.0,0.0
996,69.0,46.0,330.0,0.0,0.0
997,54.0,96.0,90.0,1.0,0.0
998,47.0,96.0,90.0,1.0,0.0
999,49.0,48.0,90.0,1.0,0.0
1000,51.0,50.0,90.0,1.0,0.0
1001,68.0,96.0,90.0,0.0,0.0
1002,64.0,0.0,90.0,0.0,0.0
1003,52.0,48.0,60.0,1.0,0.0
1004,70.0,96.0,90.0,0.0,0.0
1005,66.0,0.0,90.0,0.0,0.0
1006,68.0,0.0,90.0,0.0,0.0
1007,49.0,48.0,330.0,1.0,0.0
1008,71.0,96.0,90.0,0.0,0.0
1009,73.0,96.0,90.0,0.0,0.0
1010,70.0,0.0,90.0,0.0,0.0
1011,71.0,0.0,90.0,0.0,0.0
1012,75.0,48.0,90.0,0.0,0.0
1013,76.0,0.0,90.0,0.0,0.0
1014,73.0,48.0,90.0,0.0,0.0
1015,78.0,96.0,90.0,0.0,0.0
1016,75.0,0.0,90.0,0.0,0.0
1017,47.0,48.0,60.0,1.0,0.0
1018,80.0,0.0,90.0,0.0,0.0
1019,76.0,96.0,90.0,0.0,0.0
1020,47.0,46.0,330.0,1.0,0.0
1021,82.0,0.0,90.0,0.0,0.0
1022,78.0,96.0,90.0,0.0,0.0
1023,80.0,96.0,90.0,0.0,0.0
1024,83.0,0.0,90.0,0.0,0.0
1025,82.0,48.0,90.0,0.0,0.0
1026,85.0,0.0,90.0,0.0,0.0
1027,83.0,50.0,90.0,0.0,0.0
1028,87.0,0.0,90.0,0.0,0.0
1029,85.0,46.0,60.0,0.0,0.0
1030,88.0,0.0,60.0,0.0,0.0
1031,46.0,96.0,90.0,1.0,0.0
1032,47.0,96.0,90.0,1.0,0.0
1033,85.0,0.0,390.0,0.0,0.0
1034,49.0,96.0,90.0,1.0,0.0
1035,88.0,48.0,390.0,0.0,0.0
1036,42.0,96.0,90.0,1.0,0.0
1037,44.0,96.0,90.0,1.0,0.0
1038,46.0,2.0,90.0,1.0,0.0
1039,83.0,46.0,60.0,0.0,0.0
1040,52.0,96.0,90.0,1.0,0.0
1041,87.0,0.0,60.0,0.0,0.0
1042,51.0,96.0,90.0,1.0,0.0
1043,52.0,96.0,90.0,1.0,0.0
1044,87.0,46.0,330.0,0.0,0.0
1045,83.0,0.0,330.0,0.0,0.0
1046,54.0,96.0,90.0,1.0,0.0
1047,55.0,50.0,90.0,1.0,0.0
1048,58.0,50.0,90.0,1.0,0.0
1049,92.0,46.0,60.0,0.0,0.0
1050,85.0,0.0,60.0,0.0,0.0
1051,52.0,96.0,90.0,1.0,0.0
1052,83.0,0.0,60.0,0.0,0.0
1053,51.0,50.0,90.0,1.0,0.0
1054,85.0,46.0,60.0,0.0,0.0
1055,83.0,0.0,60.0,0.0,0.0
1056,52.0,96.0,90.0,1.0,0.0
1057,92.0,0.0,60.0,0.0,0.0
1058,49.0,50.0,90.0,1.0,0.0
1059,54.0,96.0,90.0,1.0,0.0
1060,90.0,46.0,60.0,0.0,0.0
1061,85.0,0.0,60.0,0.0,0.0
1062,82.0,0.0,60.0,0.0,0.0
1063,42.0,50.0,90.0,1.0,0.0
1064,87.0,0.0,60.0,0.0,0.0
1065,78.0,528.0,60.0,0.0,0.0
1066,83.0,0.0,60.0,0.0,0.0
1067,47.0,0.0,60.0,1.0,0.0
1068,59.0,94.0,180.0,0.0,0.0
1069,66.0,0.0,540.0,0.0,0.0
1070,47.0,96.0,90.0,1.0,0.0
1071,59.0,46.0,540.0,0.0,0.0
1072,69.0,0.0,540.0,0.0,0.0
1073,46.0,96.0,90.0,1.0,0.0
1074,47.0,96.0,90.0,1.0,0.0
1075,49.0,96.0,90.0,1.0,0.0
1076,51.0,50.0,90.0,1.0,0.0
1077,47.0,50.0,90.0,1.0,0.0
1078,59.0,0.0,60.0,0.0,0.0
1079,64.0,46.0,60.0,0.0,0.0
1080,68.0,0.0,60.0,0.0,0.0
1081,52.0,96.0,90.0,1.0,0.0
1082,51.0,50.0,90.0,1.0,0.0
1083,52.0,96.0,90.0,1.0,0.0
1084,66.0,46.0,60.0,0.0,0.0
1085,54.0,50.0,90.0,1.0,0.0
1086,56.0,96.0,90.0,1.0,0.0
1087,64.0,46.0,60.0,0.0,0.0
1088,58.0,98.0,90.0,1.0,0.0
1089,71.0,0.0,90.0,0.0,0.0
1090,63.0,96.0,90.0,0.0,0.0
1091,59.0,48.0,330.0,1.0,0.0
1092,70.0,96.0,90.0,0.0,0.0
1093,71.0,48.0,90.0,0.0,0.0
1094,73.0,96.0,90.0,0.0,0.0
1095,75.0,48.0,90.0,0.0,0.0
1096,57.0,32.0,150.0,1.0,0.0
1097,71.0,96.0,90.0,0.0,0.0
1098,56.0,32.0,150.0,1.0,0.0
1099,76.0,64.0,90.0,0.0,0.0
1100,59.0,46.0,540.0,1.0,0.0
1101,75.0,48.0,90.0,0.0,0.0
1102,54.0,48.0,60.0,1.0,0.0
1103,76.0,96.0,90.0,0.0,0.0
1104,78.0,48.0,90.0,0.0,0.0
1105,52.0,48.0,60.0,1.0,0.0
1106,80.0,48.0,90.0,0.0,0.0
1107,82.0,50.0,90.0,0.0,0.0
1108,83.0,46.0,60.0,0.0,0.0
1109,51.0,96.0,90.0,1.0,0.0
1110,49.0,96.0,90.0,1.0,0.0
1111,51.0,96.0,90.0,1.0,0.0
1112,81.0,46.0,330.0,0.0,0.0
1113,47.0,96.0,90.0,1.0,0.0
1114,49.0,50.0,90.0,1.0,0.0
1115,51.0,50.0,90.0,1.0,0.0
1116,79.0,46.0,60.0,0.0,0.0
1117,52.0,96.0,90.0,1.0,0.0
1118,51.0,50.0,90.0,1.0,0.0
1119,78.0,46.0,60.0,0.0,0.0
1120,52.0,96.0,90.0,1.0,0.0
1121,54.0,50.0,90.0,1.0,0.0
1122,76.0,46.0,60.0,0.0,0.0
1123,55.0,96.0,90.0,1.0,0.0
1124,58.0,98.0,90.0,1.0,0.0
1125,75.0,64.0,90.0,0.0,0.0
1126,59.0,32.0,150.0,1.0,0.0
1127,73.0,96.0,90.0,0.0,0.0
1128,75.0,96.0,90.0,0.0,0.0
1129,57.0,0.0,330.0,1.0,0.0
1130,71.0,96.0,90.0,0.0,0.0
1131,73.0,48.0,90.0,0.0,0.0
1132,75.0,96.0,90.0,0.0,0.0
1133,59.0,46.0,540.0,1.0,0.0
1134,55.0,32.0,150.0,1.0,0.0
1135,76.0,64.0,90.0,0.0,0.0
1136,75.0,48.0,90.0,0.0,0.0
1137,76.0,96.0,90.0,0.0,0.0
1138,54.0,48.0,60.0,1.0,0.0
1139,78.0,48.0,90.0,0.0,0.0
1140,52.0,48.0,60.0,1.0,0.0
1141,79.0,48.0,90.0,0.0,0.0
1142,82.0,96.0,90.0,0.0,0.0
1143,51.0,96.0,90.0,1.0,0.0
1144,83.0,46.0,540.0,0.0,0.0
1145,52.0,96.0,90.0,1.0,0.0
1146,54.0,96.0,90.0,1.0,0.0
1147,52.0,96.0,90.0,1.0,0.0
1148,51.0,50.0,90.0,1.0,0.0
1149,49.0,96.0,90.0,1.0,0.0
1150,47.0,96.0,90.0,1.0,0.0
1151,83.0,30.0,270.0,0.0,0.0
1152,46.0,66.0,90.0,1.0,0.0
1153,47.0,96.0,90.0,1.0,0.0
1154,78.0,0.0,90.0,0.0,0.0
1155,75.0,0.0,90.0,0.0,0.0
1156,45.0,96.0,90.0,1.0,0.0
1157,44.0,0.0,90.0,1.0,0.0
1158,80.0,0.0,90.0,0.0,0.0
1159,76.0,96.0,90.0,0.0,0.0
1160,42.0,50.0,90.0,1.0,0.0
1161,81.0,0.0,90.0,0.0,0.0
1162,78.0,0.0,90.0,0.0,0.0
1163,40.0,96.0,90.0,1.0,0.0
1164,80.0,0.0,60.0,0.0,0.0
1165,83.0,46.0,60.0,0.0,0.0
1166,42.0,96.0,90.0,1.0,0.0
1167,80.0,46.0,330.0,0.0,0.0
1168,83.0,0.0,330.0,0.0,0.0
1169,44.0,96.0,90.0,1.0,0.0
1170,45.0,96.0,90.0,1.0,0.0
1171,47.0,50.0,90.0,1.0,0.0
1172,49.0,50.0,90.0,1.0,0.0
1173,78.0,46.0,60.0,0.0,0.0
1174,81.0,0.0,60.0,0.0,0.0
1175,51.0,96.0,90.0,1.0,0.0
1176,52.0,96.0,90.0,1.0,0.0
1177,54.0,96.0,90.0,1.0,0.0
1178,78.0,46.0,330.0,0.0,0.0
1179,81.0,0.0,330.0,0.0,0.0
1180,47.0,96.0,90.0,1.0,0.0
1181,49.0,50.0,90.0,1.0,0.0
1182,51.0,50.0,90.0,1.0,0.0
1183,76.0,0.0,90.0,0.0,0.0
1184,80.0,96.0,90.0,0.0,0.0
1185,52.0,48.0,60.0,1.0,0.0
1186,81.0,96.0,90.0,0.0,0.0
1187,78.0,0.0,90.0,0.0,0.0
1188,47.0,48.0,330.0,1.0,0.0
1189,83.0,0.0,90.0,0.0,0.0
1190,80.0,96.0,90.0,0.0,0.0
1191,81.0,96.0,90.0,0.0,0.0
1192,85.0,0.0,90.0,0.0,0.0
1193,83.0,0.0,90.0,0.0,0.0
1194,87.0,48.0,90.0,0.0,0.0
1195,88.0,0.0,90.0,0.0,0.0
1196,85.0,48.0,90.0,0.0,0.0
1197,87.0,0.0,90.0,0.0,0.0
1198,90.0,96.0,90.0,0.0,0.0
1199,45.0,48.0,60.0,1.0,0.0
1200,92.0,96.0,90.0,0.0,0.0
1201,88.0,0.0,90.0,0.0,0.0
1202,93.0,96.0,90.0,0.0,0.0
1203,45.0,46.0,330.0,1.0,0.0
1204,90.0,0.0,90.0,0.0,0.0
1205,83.0,0.0,90.0,0.0,0.0
1206,87.0,96.0,90.0,0.0,0.0
1207,88.0,48.0,90.0,0.0,0.0
1208,85.0,0.0,90.0,0.0,0.0
1209,90.0,50.0,90.0,0.0,0.0
1210,87.0,0.0,90.0,0.0,0.0
1211,92.0,0.0,60.0,0.0,0.0
1212,88.0,46.0,60.0,0.0,0.0
1213,44.0,96.0,90.0,1.0,0.0
1214,45.0,96.0,90.0,1.0,0.0
1215,88.0,46.0,330.0,0.0,0.0
1216,92.0,0.0,330.0,0.0,0.0
1217,47.0,96.0,90.0,1.0,0.0
1218,49.0,96.0,90.0,1.0,0.0
1219,51.0,50.0,90.0,1.0,0.0
1220,52.0,50.0,90.0,1.0,0.0
1221,88.0,46.0,60.0,0.0,0.0
1222,80.0,0.0,60.0,0.0,0.0
1223,47.0,96.0,90.0,1.0,0.0
1224,49.0,96.0,90.0,1.0,0.0
1225,80.0,0.0,330.0,0.0,0.0
1226,51.0,96.0,90.0,1.0,0.0
1227,88.0,46.0,330.0,0.0,0.0
1228,52.0,96.0,90.0,1.0,0.0
1229,54.0,50.0,90.0,1.0,0.0
1230,56.0,50.0,90.0,1.0,0.0
1231,57.0,96.0,90.0,1.0,0.0
1232,85.0,46.0,60.0,0.0,0.0
1233,76.0,0.0,60.0,0.0,0.0
1234,78.0,0.0,60.0,0.0,0.0
1235,56.0,50.0,90.0,1.0,0.0
1236,78.0,0.0,60.0,0.0,0.0
1237,57.0,96.0,90.0,1.0,0.0
1238,76.0,0.0,60.0,0.0,0.0
1239,85.0,46.0,60.0,0.0,0.0
1240,54.0,50.0,90.0,1.0,0.0
1241,59.0,96.0,90.0,1.0,0.0
1242,83.0,0.0,60.0,0.0,0.0
1243,75.0,46.0,60.0,0.0,0.0
1244,78.0,0.0,60.0,0.0,0.0
1245,47.0,50.0,90.0,1.0,0.0
1246,71.0,46.0,60.0,0.0,0.0
1247,80.0,0.0,60.0,0.0,0.0
1248,52.0,96.0,90.0,1.0,0.0
1249,76.0,0.0,60.0,0.0,0.0
1250,47.0,50.0,90.0,1.0,0.0
1251,40.0,336.0,60.0,1.0,0.0
1252,59.0,94.0,180.0,0.0,0.0
1253,47.0,96.0,90.0,1.0,0.0
1254,66.0,0.0,540.0,0.0,0.0
1255,59.0,0.0,540.0,0.0,0.0
1256,69.0,46.0,540.0,0.0,0.0
1257,46.0,96.0,90.0,1.0,0.0
1258,47.0,96.0,90.0,1.0,0.0
1259,49.0,96.0,90.0,1.0,0.0
1260,51.0,50.0,90.0,1.0,0.0
1261,47.0,50.0,90.0,1.0,0.0
1262,52.0,96.0,90.0,1.0,0.0
1263,59.0,46.0,60.0,0.0,0.0
1264,64.0,0.0,60.0,0.0,0.0
1265,68.0,0.0,60.0,0.0,0.0
1266,51.0,50.0,90.0,1.0,0.0
1267,66.0,46.0,60.0,0.0,0.0
1268,52.0,96.0,90.0,1.0,0.0
1269,54.0,50.0,90.0,1.0,0.0
1270,64.0,46.0,60.0,0.0,0.0
1271,56.0,96.0,90.0,1.0,0.0
1272,58.0,98.0,90.0,1.0,0.0
1273,59.0,48.0,330.0,1.0,0.0
1274,71.0,0.0,90.0,0.0,0.0
1275,63.0,96.0,90.0,0.0,0.0
1276,70.0,96.0,90.0,0.0,0.0
1277,71.0,48.0,90.0,0.0,0.0
1278,73.0,96.0,90.0,0.0,0.0
1279,75.0,48.0,90.0,0.0,0.0
1280,57.0,32.0,150.0,1.0,0.0
1281,71.0,96.0,90.0,0.0,0.0
1282,76.0,64.0,90.0,0.0,0.0
1283,56.0,32.0,150.0,1.0,0.0
1284,59.0,46.0,540.0,1.0,0.0
1285,75.0,48.0,90.0,0.0,0.0
1286,76.0,96.0,90.0,0.0,0.0
1287,54.0,48.0,60.0,1.0,0.0
1288,78.0,48.0,90.0,0.0,0.0
1289,52.0,48.0,60.0,1.0,0.0
1290,80.0,48.0,90.0,0.0,0.0
1291,82.0,50.0,90.0,0.0,0.0
1292,83.0,46.0,60.0,0.0,0.0
1293,51.0,96.0,90.0,1.0,0.0
1294,49.0,96.0,90.0,1.0,0.0
1295,81.0,46.0,330.0,0.0,0.0
1296,51.0,96.0,90.0,1.0,0.0
1297,47.0,96.0,90.0,1.0,0.0
1298,49.0,50.0,90.0,1.0,0.0
1299,51.0,50.0,90.0,1.0,0.0
1300,79.0,46.0,60.0,0.0,0.0
1301,52.0,96.0,90.0,1.0,0.0
1302,51.0,50.0,90.0,1.0,0.0
1303,78.0,46.0,60.0,0.0,0.0
1304,52.0,96.0,90.0,1.0,0.0
1305,54.0,50.0,90.0,1.0,0.0
1306,76.0,46.0,60.0,0.0,0.0
1307,55.0,96.0,90.0,1.0,0.0
1308,58.0,98.0,90.0,1.0,0.0
1309,75.0,64.0,90.0,0.0,0.0
1310,59.0,32.0,150.0,1.0,0.0
1311,73.0,96.0,90.0,0.0,0.0
1312,75.0,96.0,90.0,0.0,0.0
1313,57.0,48.0,330.0,1.0,0.0
1314,71.0,96.0,90.0,0.0,0.0
1315,73.0,48.0,90.0,0.0,0.0
1316,75.0,96.0,90.0,0.0,0.0
1317,59.0,46.0,540.0,1.0,0.0
1318,55.0,32.0,150.0,1.0,0.0
1319,76.0,64.0,90.0,0.0,0.0
1320,75.0,48.0,90.0,0.0,0.0
1321,76.0,96.0,90.0,0.0,0.0
1322,54.0,48.0,60.0,1.0,0.0
1323,78.0,48.0,90.0,0.0,0.0
1324,52.0,48.0,60.0,1.0,0.0
1325,79.0,48.0,90.0,0.0,0.0
1326,82.0,96.0,90.0,0.0,0.0
1327,83.0,46.0,540.0,0.0,0.0
1328,51.0,96.0,90.0,1.0,0.0
1329,52.0,96.0,90.0,1.0,0.0
1330,54.0,96.0,90.0,1.0,0.0
1331,52.0,96.0,90.0,1.0,0.0
1332,51.0,50.0,90.0,1.0,0.0
1333,49.0,96.0,90.0,1.0,0.0
1334,83.0,30.0,270.0,0.0,0.0
1335,47.0,96.0,90.0,1.0,0.0
1336,46.0,66.0,90.0,1.0,0.0
1337,47.0,96.0,90.0,1.0,0.0
1338,45.0,0.0,90.0,1.0,0.0
1339,75.0,0.0,90.0,0.0,0.0
1340,78.0,96.0,90.0,0.0,0.0
1341,44.0,0.0,90.0,1.0,0.0
1342,76.0,96.0,90.0,0.0,0.0
1343,80.0,0.0,90.0,0.0,0.0
1344,78.0,50.0,90.0,0.0,0.0
1345,81.0,0.0,90.0,0.0,0.0
1346,42.0,0.0,90.0,1.0,0.0
1347,83.0,46.0,60.0,0.0,0.0
1348,40.0,96.0,90.0,1.0,0.0
1349,80.0,0.0,60.0,0.0,0.0
1350,42.0,96.0,90.0,1.0,0.0
1351,83.0,46.0,330.0,0.0,0.0
1352,80.0,0.0,330.0,0.0,0.0
1353,44.0,96.0,90.0,1.0,0.0
1354,45.0,96.0,90.0,1.0,0.0
1355,47.0,50.0,90.0,1.0,0.0
1356,49.0,50.0,90.0,1.0,0.0
1357,78.0,46.0,60.0,0.0,0.0
1358,51.0,96.0,90.0,1.0,0.0
1359,81.0,0.0,60.0,0.0,0.0
1360,52.0,96.0,90.0,1.0,0.0
1361,81.0,46.0,330.0,0.0,0.0
1362,54.0,96.0,90.0,1.0,0.0
1363,78.0,0.0,330.0,0.0,0.0
1364,47.0,96.0,90.0,1.0,0.0
1365,49.0,50.0,90.0,1.0,0.0
1366,51.0,50.0,90.0,1.0,0.0
1367,76.0,0.0,90.0,0.0,0.0
1368,80.0,96.0,90.0,0.0,0.0
1369,52.0,48.0,60.0,1.0,0.0
1370,81.0,96.0,90.0,0.0,0.0
1371,78.0,0.0,90.0,0.0,0.0
1372,80.0,96.0,90.0,0.0,0.0
1373,47.0,48.0,330.0,1.0,0.0
1374,83.0,0.0,90.0,0.0,0.0
1375,85.0,96.0,90.0,0.0,0.0
1376,81.0,0.0,90.0,0.0,0.0
1377,83.0,0.0,90.0,0.0,0.0
1378,87.0,48.0,90.0,0.0,0.0
1379,88.0,48.0,90.0,0.0,0.0
1380,85.0,0.0,90.0,0.0,0.0
1381,90.0,0.0,90.0,0.0,0.0
1382,87.0,96.0,90.0,0.0,0.0
1383,45.0,48.0,60.0,1.0,0.0
1384,92.0,0.0,90.0,0.0,0.0
1385,88.0,96.0,90.0,0.0,0.0
1386,45.0,46.0,330.0,1.0,0.0
1387,93.0,0.0,90.0,0.0,0.0
1388,90.0,96.0,90.0,0.0,0.0
1389,83.0,0.0,90.0,0.0,0.0
1390,87.0,96.0,90.0,0.0,0.0
1391,85.0,48.0,90.0,0.0,0.0
1392,88.0,0.0,90.0,0.0,0.0
1393,90.0,50.0,90.0,0.0,0.0
1394,87.0,0.0,90.0,0.0,0.0
1395,92.0,0.0,60.0,0.0,0.0
1396,88.0,46.0,60.0,0.0,0.0
1397,44.0,96.0,90.0,1.0,0.0
1398,45.0,96.0,90.0,1.0,0.0
1399,92.0,46.0,330.0,0.0,0.0
1400,88.0,0.0,330.0,0.0,0.0
1401,47.0,96.0,90.0,1.0,0.0
1402,49.0,96.0,90.0,1.0,0.0
1403,51.0,50.0,90.0,1.0,0.0
1404,52.0,50.0,90.0,1.0,0.0
1405,88.0,46.0,60.0,0.0,0.0
1406,80.0,0.0,60.0,0.0,0.0
1407,47.0,96.0,90.0,1.0,0.0
1408,49.0,96.0,90.0,1.0,0.0
1409,51.0,96.0,90.0,1.0,0.0
1410,80.0,0.0,330.0,0.0,0.0
1411,88.0,46.0,330.0,0.0,0.0
1412,52.0,96.0,90.0,1.0,0.0
1413,54.0,50.0,90.0,1.0,0.0
1414,56.0,50.0,90.0,1.0,0.0
1415,57.0,96.0,90.0,1.0,0.0
1416,85.0,46.0,60.0,0.0,0.0
1417,76.0,0.0,60.0,0.0,0.0
1418,78.0,0.0,60.0,0.0,0.0
1419,56.0,50.0,90.0,1.0,0.0
1420,57.0,96.0,90.0,1.0,0.0
1421,76.0,0.0,60.0,0.0,0.0
1422,78.0,0.0,60.0,0.0,0.0
1423,85.0,46.0,60.0,0.0,0.0
1424,54.0,50.0,90.0,1.0,0.0
1425,59.0,96.0,90.0,1.0,0.0
1426,78.0,0.0,60.0,0.0,0.0
1427,83.0,46.0,60.0,0.0,0.0
1428,75.0,0.0,60.0,0.0,0.0
1429,47.0,50.0,90.0,1.0,0.0
1430,71.0,0.0,60.0,0.0,0.0
1431,80.0,0.0,60.0,0.0,0.0
1432,52.0,96.0,90.0,1.0,0.0
1433,76.0,46.0,60.0,0.0,0.0
1434,47.0,50.0,90.0,1.0,0.0
1435,40.0,192.0,60.0,1.0,0.0
1436,52.0,96.0,90.0,1.0,0.0
1437,80.0,0.0,60.0,0.0,0.0
1438,76.0,46.0,60.0,0.0,0.0
1439,71.0,0.0,60.0,0.0,0.0
1440,47.0,96.0,90.0,1.0,0.0
1441,44.0,96.0,90.0,1.0,0.0
1442,47.0,50.0,90.0,1.0,0.0
1443,40.0,176.0,60.0,1.0,0.0
1444,76.0,160.0,30.0,0.0,0.0
1445,76.0,48.0,60.0,0.0,0.0
1446,80.0,192.0,60.0,0.0,0.0
1447,40.0,304.0,60.0,1.0,0.0
1448,68.0,32.0,150.0,1.0,0.0
1449,71.0,0.0,150.0,1.0,0.0
1450,76.0,160.0,180.0,0.0,0.0
1451,69.0,32.0,150.0,1.0,0.0
1452,75.0,160.0,180.0,0.0,0.0
1453,66.0,0.0,150.0,1.0,0.0
1454,68.0,0.0,150.0,1.0,0.0
1455,76.0,80.0,150.0,0.0,0.0
1456,64.0,0.0,150.0,1.0,0.0
1457,59.0,0.0,60.0,1.0,0.0
1458,63.0,0.0,60.0,1.0,0.0
1459,66.0,192.0,60.0,1.0,0.0
1460,78.0,0.0,60.0,0.0,0.0
1461,71.0,0.0,60.0,0.0,0.0
1462,78.0,0.0,60.0,0.0,0.0
1463,71.0,0.0,60.0,0.0,0.0
1464,63.0,0.0,60.0,1.0,0.0
1465,59.0,0.0,60.0,1.0,0.0
1466,66.0,192.0,60.0,1.0,0.0
1467,63.0,0.0,60.0,1.0,0.0
1468,66.0,0.0,60.0,1.0,0.0
1469,59.0,0.0,60.0,1.0,0.0
1470,71.0,192.0,60.0,0.0,0.0
1471,78.0,0.0,60.0,0.0,0.0
1472,66.0,560.0,60.0,1.0,0.0
1473,63.0,0.0,60.0,1.0,0.0
1474,71.0,0.0,60.0,0.0,0.0
1475,78.0,0.0,60.0,0.0,0.0
1476,59.0,0.0,60.0,1.0,0.0
1477,78.0,158.0,30.0,0.0,0.0
1478,78.0,50.0,60.0,0.0,0.0
1479,81.0,192.0,60.0,0.0,0.0
1480,42.0,336.0,60.0,1.0,0.0
1481,78.0,0.0,180.0,0.0,0.0
1482,69.0,192.0,180.0,1.0,0.0
1483,73.0,0.0,180.0,1.0,0.0
1484,71.0,160.0,180.0,1.0,0.0
1485,77.0,0.0,180.0,0.0,0.0
1486,68.0,0.0,180.0,1.0,0.0
1487,69.0,0.0,150.0,1.0,0.0
1488,66.0,80.0,150.0,1.0,0.0
1489,78.0,0.0,150.0,0.0,0.0
1490,65.0,0.0,60.0,1.0,0.0
1491,61.0,0.0,60.0,1.0,0.0
1492,68.0,192.0,60.0,1.0,0.0
1493,73.0,0.0,60.0,0.0,0.0
1494,80.0,0.0,60.0,0.0,0.0
1495,61.0,0.0,60.0,1.0,0.0
1496,65.0,0.0,60.0,1.0,0.0
1497,68.0,0.0,60.0,1.0,0.0
1498,73.0,0.0,60.0,0.0,0.0
1499,80.0,192.0,60.0,0.0,0.0
1500,73.0,192.0,60.0,0.0,0.0
1501,80.0,0.0,60.0,0.0,0.0
1502,61.0,0.0,60.0,1.0,0.0
1503,65.0,0.0,60.0,1.0,0.0
1504,68.0,0.0,60.0,1.0,0.0
1505,68.0,560.0,60.0,1.0,0.0
1506,61.0,0.0,60.0,1.0,0.0
1507,73.0,0.0,60.0,0.0,0.0
1508,65.0,0.0,60.0,1.0,0.0
1509,80.0,0.0,60.0,0.0,0.0
1510,81.0,160.0,30.0,0.0,0.0
1511,81.0,48.0,60.0,0.0,0.0
1512,85.0,192.0,60.0,0.0,0.0
1513,45.0,336.0,60.0,1.0,0.0
1514,81.0,0.0,180.0,0.0,0.0
1515,73.0,0.0,180.0,1.0,0.0
1516,76.0,192.0,180.0,1.0,0.0
1517,74.0,160.0,180.0,1.0,0.0
1518,71.0,0.0,180.0,1.0,0.0
1519,80.0,0.0,180.0,0.0,0.0
1520,81.0,0.0,150.0,0.0,0.0
1521,73.0,64.0,150.0,1.0,0.0
1522,69.0,0.0,150.0,1.0,0.0
1523,88.0,146.0,30.0,0.0,0.0
1524,88.0,62.0,30.0,0.0,0.0
1525,92.0,192.0,60.0,0.0,0.0
1526,52.0,336.0,60.0,1.0,0.0
1527,76.0,0.0,180.0,0.0,0.0
1528,71.0,0.0,180.0,1.0,0.0
1529,68.0,192.0,180.0,1.0,0.0
1530,75.0,160.0,180.0,0.0,0.0
1531,69.0,0.0,180.0,1.0,0.0
1532,66.0,0.0,180.0,1.0,0.0
1533,68.0,64.0,150.0,1.0,0.0
1534,64.0,0.0,150.0,1.0,0.0
1535,76.0,0.0,150.0,0.0,0.0
1536,78.0,160.0,30.0,0.0,0.0
1537,78.0,48.0,60.0,0.0,0.0
1538,85.0,192.0,60.0,0.0,0.0
1539,66.0,176.0,60.0,1.0,0.0
1540,61.0,0.0,60.0,1.0,0.0
1541,57.0,0.0,60.0,1.0,0.0
1542,75.0,160.0,30.0,0.0,0.0
1543,75.0,48.0,60.0,0.0,0.0
1544,83.0,192.0,60.0,0.0,0.0
1545,69.0,0.0,60.0,1.0,0.0
1546,59.0,176.0,60.0,1.0,0.0
1547,63.0,0.0,60.0,1.0,0.0
1548,68.0,160.0,30.0,0.0,0.0
1549,68.0,48.0,60.0,0.0,0.0
1550,76.0,192.0,60.0,0.0,0.0
1551,52.0,192.0,60.0,1.0,0.0
1552,59.0,0.0,60.0,1.0,0.0
1553,64.0,0.0,60.0,1.0,0.0
1554,64.0,192.0,60.0,0.0,0.0
1555,59.0,0.0,60.0,0.0,0.0
1556,56.0,0.0,60.0,0.0,0.0
1557,40.0,192.0,60.0,1.0,0.0
1558,64.0,176.0,60.0,0.0,0.0
1559,59.0,0.0,60.0,0.0,0.0
1560,56.0,0.0,60.0,0.0,0.0
1561,76.0,160.0,30.0,0.0,0.0
1562,76.0,160.0,60.0,0.0,0.0
1563,80.0,80.0,150.0,0.0,0.0
1564,61.0,176.0,60.0,1.0,0.0
1565,71.0,96.0,30.0,1.0,0.0
1566,68.0,0.0,30.0,1.0,0.0
1567,76.0,96.0,30.0,0.0,0.0
1568,66.0,0.0,30.0,1.0,0.0
1569,69.0,96.0,30.0,1.0,0.0
1570,75.0,96.0,30.0,0.0,0.0
1571,64.0,0.0,30.0,1.0,0.0
1572,68.0,96.0,30.0,1.0,0.0
1573,76.0,96.0,30.0,0.0,0.0
1574,59.0,96.0,30.0,1.0,0.0
1575,63.0,0.0,30.0,1.0,0.0
1576,66.0,0.0,30.0,1.0,0.0
1577,71.0,0.0,30.0,0.0,0.0
1578,75.0,0.0,30.0,0.0,0.0
1579,78.0,96.0,30.0,0.0,0.0
1580,63.0,96.0,30.0,1.0,0.0
1581,59.0,0.0,30.0,1.0,0.0
1582,66.0,0.0,30.0,1.0,0.0
1583,78.0,0.0,30.0,0.0,0.0
1584,71.0,96.0,30.0,0.0,0.0
1585,75.0,0.0,30.0,0.0,0.0
1586,59.0,96.0,30.0,1.0,0.0
1587,66.0,0.0,30.0,1.0,0.0
1588,63.0,0.0,30.0,1.0,0.0
1589,75.0,112.0,30.0,0.0,0.0
1590,78.0,0.0,30.0,0.0,0.0
1591,71.0,0.0,30.0,0.0,0.0
1592,59.0,0.0,60.0,1.0,0.0
1593,63.0,192.0,60.0,1.0,0.0
1594,66.0,0.0,60.0,1.0,0.0
1595,75.0,0.0,60.0,0.0,0.0
1596,78.0,0.0,60.0,0.0,0.0
1597,71.0,368.0,60.0,0.0,0.0
1598,78.0,160.0,30.0,0.0,0.0
1599,78.0,48.0,60.0,0.0,0.0
1600,81.0,192.0,60.0,0.0,0.0
1601,42.0,176.0,60.0,1.0,0.0
1602,73.0,96.0,30.0,1.0,0.0
1603,69.0,0.0,30.0,1.0,0.0
1604,78.0,96.0,30.0,0.0,0.0
1605,68.0,96.0,30.0,1.0,0.0
1606,71.0,0.0,30.0,1.0,0.0
1607,77.0,96.0,30.0,0.0,0.0
1608,69.0,96.0,30.0,1.0,0.0
1609,66.0,0.0,30.0,1.0,0.0
1610,78.0,96.0,30.0,0.0,0.0
1611,61.0,0.0,30.0,1.0,0.0
1612,68.0,96.0,30.0,1.0,0.0
1613,65.0,0.0,30.0,1.0,0.0
1614,77.0,0.0,30.0,0.0,0.0
1615,73.0,0.0,30.0,0.0,0.0
1616,80.0,96.0,30.0,0.0,0.0
1617,68.0,0.0,30.0,1.0,0.0
1618,65.0,96.0,30.0,1.0,0.0
1619,61.0,0.0,30.0,1.0,0.0
1620,80.0,96.0,30.0,0.0,0.0
1621,77.0,0.0,30.0,0.0,0.0
1622,73.0,0.0,30.0,0.0,0.0
1623,61.0,96.0,30.0,1.0,0.0
1624,65.0,0.0,30.0,1.0,0.0
1625,68.0,0.0,30.0,1.0,0.0
1626,77.0,0.0,30.0,0.0,0.0
1627,73.0,112.0,30.0,0.0,0.0
1628,80.0,0.0,30.0,0.0,0.0
1629,65.0,192.0,60.0,1.0,0.0
1630,68.0,0.0,60.0,1.0,0.0
1631,61.0,0.0,60.0,1.0,0.0
1632,73.0,368.0,60.0,0.0,0.0
1633,77.0,0.0,60.0,0.0,0.0
1634,80.0,0.0,60.0,0.0,0.0
1635,81.0,160.0,30.0,0.0,0.0
1636,81.0,48.0,60.0,0.0,0.0
1637,85.0,192.0,60.0,0.0,0.0
1638,45.0,176.0,60.0,1.0,0.0
1639,73.0,96.0,30.0,1.0,0.0
1640,76.0,0.0,30.0,1.0,0.0
1641,81.0,96.0,30.0,0.0,0.0
1642,71.0,96.0,30.0,1.0,0.0
1643,74.0,0.0,30.0,1.0,0.0
1644,80.0,96.0,30.0,0.0,0.0
1645,69.0,0.0,30.0,1.0,0.0
1646,73.0,96.0,30.0,1.0,0.0
1647,81.0,96.0,30.0,0.0,0.0
1648,88.0,160.0,30.0,0.0,0.0
1649,88.0,48.0,60.0,0.0,0.0
1650,92.0,192.0,60.0,0.0,0.0
1651,52.0,176.0,60.0,1.0,0.0
1652,68.0,0.0,30.0,1.0,0.0
1653,71.0,96.0,30.0,1.0,0.0
1654,76.0,96.0,30.0,0.0,0.0
1655,69.0,96.0,30.0,1.0,0.0
1656,66.0,0.0,30.0,1.0,0.0
1657,75.0,96.0,30.0,0.0,0.0
1658,68.0,96.0,30.0,1.0,0.0
1659,64.0,0.0,30.0,1.0,0.0
1660,76.0,96.0,30.0,0.0,0.0
1661,78.0,160.0,30.0,0.0,0.0
1662,78.0,48.0,60.0,0.0,0.0
1663,85.0,192.0,60.0,0.0,0.0
1664,57.0,0.0,60.0,1.0,0.0
1665,66.0,0.0,60.0,1.0,0.0
1666,61.0,176.0,60.0,1.0,0.0
1667,75.0,160.0,30.0,0.0,0.0
1668,75.0,48.0,60.0,0.0,0.0
1669,83.0,192.0,60.0,0.0,0.0
1670,69.0,0.0,60.0,1.0,0.0
1671,63.0,0.0,60.0,1.0,0.0
1672,59.0,176.0,60.0,1.0,0.0
1673,68.0,96.0,30.0,0.0,0.0
1674,76.0,0.0,30.0,0.0,0.0
1675,59.0,0.0,30.0,1.0,0.0
1676,64.0,0.0,30.0,1.0,0.0
1677,52.0,96.0,30.0,1.0,0.0
1678,68.0,96.0,30.0,0.0,0.0
1679,76.0,0.0,30.0,0.0,0.0
1680,64.0,0.0,30.0,1.0,0.0
1681,59.0,0.0,30.0,1.0,0.0
1682,52.0,96.0,30.0,1.0,0.0
1683,76.0,96.0,30.0,0.0,0.0
1684,68.0,0.0,30.0,0.0,0.0
1685,52.0,0.0,30.0,1.0,0.0
1686,59.0,112.0,30.0,1.0,0.0
1687,64.0,0.0,30.0,1.0,0.0
1688,76.0,192.0,60.0,0.0,0.0
1689,68.0,0.0,60.0,0.0,0.0
1690,59.0,0.0,60.0,1.0,0.0
1691,64.0,0.0,60.0,1.0,0.0
1692,52.0,368.0,60.0,1.0,0.0
1693,75.0,160.0,30.0,0.0,0.0
1694,75.0,48.0,60.0,0.0,0.0
1695,81.0,192.0,60.0,0.0,0.0
1696,35.0,0.0,60.0,1.0,0.0
1697,47.0,336.0,60.0,1.0,0.0
1698,75.0,0.0,180.0,0.0,0.0
1699,66.0,192.0,180.0,1.0,0.0
1700,69.0,0.0,180.0,1.0,0.0
1701,74.0,160.0,180.0,0.0,0.0
1702,65.0,0.0,180.0,1.0,0.0
1703,68.0,0.0,180.0,1.0,0.0
1704,66.0,0.0,150.0,1.0,0.0
1705,69.0,0.0,150.0,1.0,0.0
1706,75.0,64.0,150.0,0.0,0.0
1707,75.0,160.0,30.0,0.0,0.0
1708,75.0,48.0,60.0,0.0,0.0
1709,85.0,192.0,60.0,0.0,0.0
1710,47.0,0.0,60.0,1.0,0.0
1711,35.0,304.0,60.0,1.0,0.0
1712,69.0,32.0,150.0,1.0,0.0
1713,66.0,0.0,150.0,1.0,0.0
1714,75.0,160.0,180.0,0.0,0.0
1715,68.0,32.0,150.0,1.0,0.0
1716,65.0,0.0,150.0,1.0,0.0
1717,74.0,160.0,180.0,0.0,0.0
1718,69.0,0.0,150.0,1.0,0.0
1719,66.0,0.0,150.0,1.0,0.0
1720,75.0,64.0,150.0,0.0,0.0
1721,75.0,160.0,30.0,0.0,0.0
1722,75.0,48.0,60.0,0.0,0.0
1723,84.0,192.0,60.0,0.0,0.0
1724,66.0,0.0,60.0,1.0,0.0
1725,59.0,0.0,60.0,1.0,0.0
1726,69.0,176.0,60.0,1.0,0.0
1727,75.0,160.0,30.0,0.0,0.0
1728,75.0,48.0,60.0,0.0,0.0
1729,83.0,192.0,60.0,0.0,0.0
1730,59.0,176.0,60.0,1.0,0.0
1731,66.0,0.0,60.0,1.0,0.0
1732,69.0,0.0,60.0,1.0,0.0
1733,68.0,160.0,30.0,0.0,0.0
1734,68.0,48.0,60.0,0.0,0.0
1735,76.0,192.0,60.0,0.0,0.0
1736,52.0,0.0,60.0,1.0,0.0
1737,59.0,192.0,60.0,1.0,0.0
1738,64.0,0.0,60.0,1.0,0.0
1739,64.0,0.0,60.0,0.0,0.0
1740,59.0,0.0,60.0,0.0,0.0
1741,56.0,192.0,60.0,0.0,0.0
1742,40.0,192.0,60.0,1.0,0.0
1743,64.0,176.0,60.0,0.0,0.0
1744,59.0,0.0,60.0,0.0,0.0
1745,56.0,0.0,60.0,0.0,0.0
1746,75.0,158.0,30.0,0.0,0.0
1747,75.0,162.0,60.0,0.0,0.0
1748,85.0,80.0,150.0,0.0,0.0
1749,66.0,0.0,60.0,1.0,0.0
1750,59.0,176.0,60.0,1.0,0.0
1751,69.0,0.0,60.0,1.0,0.0
1752,75.0,160.0,30.0,0.0,0.0
1753,75.0,48.0,60.0,0.0,0.0
1754,83.0,192.0,60.0,0.0,0.0
1755,59.0,176.0,60.0,1.0,0.0
1756,66.0,0.0,60.0,1.0,0.0
1757,69.0,0.0,60.0,1.0,0.0
1758,68.0,160.0,30.0,0.0,0.0
1759,68.0,48.0,60.0,0.0,0.0
1760,76.0,192.0,60.0,0.0,0.0
1761,59.0,0.0,60.0,1.0,0.0
1762,64.0,192.0,60.0,1.0,0.0
1763,52.0,0.0,60.0,1.0,0.0
1764,59.0,0.0,60.0,0.0,0.0
1765,64.0,192.0,60.0,0.0,0.0
1766,56.0,0.0,60.0,0.0,0.0
1767,40.0,192.0,60.0,1.0,0.0
1768,64.0,0.0,60.0,0.0,0.0
1769,59.0,0.0,60.0,0.0,0.0
1770,56.0,176.0,60.0,0.0,0.0
1771,75.0,160.0,30.0,0.0,0.0
1772,75.0,48.0,60.0,0.0,0.0
1773,84.0,192.0,60.0,0.0,0.0
1774,69.0,0.0,60.0,1.0,0.0
1775,66.0,0.0,60.0,1.0,0.0
1776,59.0,176.0,60.0,1.0,0.0
1777,75.0,160.0,30.0,0.0,0.0
1778,75.0,48.0,60.0,0.0,0.0
1779,83.0,192.0,60.0,0.0,0.0
1780,66.0,0.0,60.0,1.0,0.0
1781,63.0,0.0,60.0,1.0,0.0
1782,69.0,238.0,60.0,1.0,0.0
1783,59.0,0.0,60.0,1.0,0.0
1784,68.0,96.0,90.0,0.0,0.0
1785,68.0,50.0,60.0,0.0,0.0
1786,76.0,192.0,60.0,0.0,0.0
1787,59.0,0.0,60.0,1.0,0.0
1788,52.0,0.0,60.0,1.0,0.0
1789,64.0,192.0,60.0,1.0,0.0
1790,56.0,192.0,60.0,0.0,0.0
1791,59.0,0.0,60.0,0.0,0.0
1792,64.0,0.0,60.0,0.0,0.0
1793,40.0,192.0,60.0,1.0,0.0
1794,56.0,176.0,60.0,0.0,0.0
1795,59.0,0.0,60.0,0.0,0.0
1796,64.0,0.0,60.0,0.0,0.0
1797,68.0,160.0,30.0,0.0,0.0
1798,68.0,48.0,60.0,0.0,0.0
1799,80.0,192.0,60.0,0.0,0.0
1800,59.0,0.0,60.0,1.0,0.0
1801,64.0,0.0,60.0,1.0,0.0
1802,52.0,192.0,60.0,1.0,0.0
1803,56.0,192.0,60.0,0.0,0.0
1804,59.0,0.0,60.0,0.0,0.0
1805,64.0,0.0,60.0,0.0,0.0
1806,40.0,192.0,60.0,1.0,0.0
1807,64.0,0.0,60.0,0.0,0.0
1808,59.0,0.0,60.0,0.0,0.0
1809,56.0,176.0,60.0,0.0,0.0
1810,71.0,160.0,30.0,0.0,0.0
1811,71.0,48.0,60.0,0.0,0.0
1812,83.0,192.0,60.0,0.0,0.0
1813,64.0,0.0,60.0,1.0,0.0
1814,59.0,0.0,60.0,1.0,0.0
1815,56.0,0.0,60.0,1.0,0.0
1816,52.0,176.0,60.0,1.0,0.0
1817,76.0,160.0,30.0,0.0,0.0
1818,76.0,48.0,60.0,0.0,0.0
1819,88.0,192.0,60.0,0.0,0.0
1820,52.0,0.0,60.0,1.0,0.0
1821,64.0,0.0,60.0,1.0,0.0
1822,59.0,192.0,60.0,1.0,0.0
1823,56.0,0.0,60.0,1.0,0.0
1824,64.0,192.0,60.0,0.0,0.0
1825,59.0,0.0,60.0,0.0,0.0
1826,56.0,0.0,60.0,0.0,0.0
1827,40.0,192.0,60.0,1.0,0.0
1828,64.0,0.0,60.0,0.0,0.0
1829,56.0,0.0,60.0,0.0,0.0
1830,59.0,192.0,60.0,0.0,0.0
1831,40.0,192.0,60.0,1.0,0.0
1832,64.0,0.0,60.0,0.0,0.0
1833,59.0,0.0,60.0,0.0,0.0
1834,56.0,192.0,60.0,0.0,0.0
1835,40.0,192.0,60.0,1.0,0.0
1836,56.0,192.0,60.0,0.0,0.0
1837,59.0,0.0,60.0,0.0,0.0
1838,64.0,0.0,60.0,0.0,0.0
1839,40.0,192.0,60.0,1.0,0.0
1840,64.0,0.0,60.0,0.0,0.0
1841,56.0,0.0,60.0,0.0,0.0
1842,59.0,192.0,60.0,0.0,0.0
1843,40.0,192.0,60.0,1.0,0.0
1844,59.0,0.0,60.0,0.0,0.0
1845,64.0,0.0,60.0,0.0,0.0
1846,56.0,192.0,60.0,0.0,0.0
1847,40.0,192.0,60.0,1.0,0.0
1848,56.0,0.0,60.0,0.0,0.0
1849,59.0,0.0,60.0,0.0,0.0
1850,64.0,384.0,60.0,0.0,0.0
1851,40.0,192.0,60.0,1.0,0.0
1852,64.0,384.0,60.0,0.0,0.0
1853,56.0,0.0,60.0,0.0,0.0
1854,59.0,0.0,60.0,0.0,0.0
1855,40.0,192.0,60.0,1.0,0.0
1856,64.0,192.0,60.0,0.0,0.0
1857,59.0,0.0,60.0,0.0,0.0
1858,56.0,0.0,60.0,0.0,0.0
1859,40.0,0.0,60.0,1.0,0.0
