,note,step,duration,channel,velocity
0,68.0,0.0,12930.0,4.0,0.0
1,61.0,0.0,12930.0,4.0,0.0
2,61.0,80.0,60.0,10.0,0.0
3,49.0,0.0,60.0,12.0,0.0
4,56.0,0.0,60.0,12.0,0.0
5,68.0,0.0,60.0,10.0,0.0
6,68.0,0.0,60.0,10.0,0.0
7,49.0,0.0,60.0,12.0,0.0
8,56.0,0.0,60.0,12.0,0.0
9,61.0,80.0,60.0,10.0,0.0
10,56.0,0.0,60.0,12.0,0.0
11,49.0,0.0,60.0,12.0,0.0
12,68.0,0.0,60.0,10.0,0.0
13,61.0,80.0,60.0,10.0,0.0
14,61.0,0.0,60.0,10.0,0.0
15,68.0,0.0,60.0,10.0,0.0
16,56.0,80.0,60.0,12.0,0.0
17,49.0,0.0,60.0,12.0,0.0
18,61.0,0.0,60.0,10.0,0.0
19,49.0,80.0,60.0,12.0,0.0
20,56.0,0.0,60.0,12.0,0.0
21,68.0,0.0,60.0,10.0,0.0
22,61.0,0.0,60.0,10.0,0.0
23,49.0,0.0,60.0,12.0,0.0
24,68.0,0.0,60.0,10.0,0.0
25,56.0,80.0,60.0,12.0,0.0
26,56.0,0.0,60.0,12.0,0.0
27,49.0,0.0,60.0,12.0,0.0
28,68.0,80.0,60.0,10.0,0.0
29,61.0,0.0,60.0,10.0,0.0
30,49.0,0.0,60.0,12.0,0.0
31,68.0,0.0,60.0,10.0,0.0
32,61.0,0.0,60.0,10.0,0.0
33,56.0,80.0,60.0,12.0,0.0
34,56.0,0.0,60.0,12.0,0.0
35,49.0,0.0,60.0,12.0,0.0
36,61.0,0.0,60.0,10.0,0.0
37,68.0,80.0,60.0,10.0,0.0
38,49.0,80.0,60.0,12.0,0.0
39,68.0,0.0,60.0,10.0,0.0
40,56.0,0.0,60.0,12.0,0.0
41,61.0,0.0,60.0,10.0,0.0
42,68.0,0.0,60.0,10.0,0.0
43,61.0,0.0,60.0,10.0,0.0
44,49.0,80.0,60.0,12.0,0.0
45,56.0,0.0,60.0,12.0,0.0
46,68.0,0.0,60.0,10.0,0.0
47,61.0,80.0,60.0,10.0,0.0
48,56.0,0.0,60.0,12.0,0.0
49,49.0,0.0,60.0,12.0,0.0
50,56.0,0.0,60.0,12.0,0.0
51,68.0,0.0,60.0,10.0,0.0
52,61.0,80.0,60.0,10.0,0.0
53,49.0,0.0,60.0,12.0,0.0
54,61.0,0.0,60.0,10.0,0.0
55,49.0,80.0,60.0,12.0,0.0
56,56.0,0.0,60.0,12.0,0.0
57,68.0,0.0,60.0,10.0,0.0
58,49.0,0.0,60.0,12.0,0.0
59,56.0,80.0,60.0,12.0,0.0
60,61.0,0.0,60.0,10.0,0.0
61,68.0,0.0,60.0,10.0,0.0
62,49.0,0.0,60.0,12.0,0.0
63,68.0,0.0,60.0,10.0,0.0
64,61.0,80.0,60.0,10.0,0.0
65,56.0,0.0,60.0,12.0,0.0
66,68.0,0.0,60.0,10.0,0.0
67,61.0,0.0,60.0,10.0,0.0
68,56.0,80.0,60.0,12.0,0.0
69,49.0,0.0,60.0,12.0,0.0
70,61.0,0.0,60.0,10.0,0.0
71,68.0,80.0,60.0,10.0,0.0
72,49.0,0.0,60.0,12.0,0.0
73,56.0,0.0,60.0,12.0,0.0
74,61.0,80.0,60.0,10.0,0.0
75,49.0,0.0,60.0,12.0,0.0
76,56.0,0.0,60.0,12.0,0.0
77,68.0,0.0,60.0,10.0,0.0
78,49.0,0.0,60.0,12.0,0.0
79,56.0,0.0,60.0,12.0,0.0
80,61.0,0.0,60.0,10.0,0.0
81,68.0,80.0,60.0,10.0,0.0
82,56.0,80.0,60.0,12.0,0.0
83,68.0,0.0,60.0,10.0,0.0
84,49.0,0.0,60.0,12.0,0.0
85,61.0,0.0,60.0,10.0,0.0
86,61.0,0.0,60.0,10.0,0.0
87,49.0,0.0,60.0,12.0,0.0
88,68.0,0.0,60.0,10.0,0.0
89,56.0,80.0,60.0,12.0,0.0
90,49.0,0.0,60.0,12.0,0.0
91,56.0,0.0,60.0,12.0,0.0
92,61.0,80.0,60.0,10.0,0.0
93,68.0,0.0,60.0,10.0,0.0
94,68.0,0.0,60.0,10.0,0.0
95,61.0,0.0,60.0,10.0,0.0
96,56.0,0.0,60.0,12.0,0.0
97,49.0,4.0,60.0,12.0,0.0
98,80.0,76.0,60.0,8.0,0.0
99,68.0,0.0,60.0,10.0,0.0
100,61.0,80.0,60.0,10.0,0.0
101,49.0,0.0,60.0,12.0,0.0
102,56.0,0.0,60.0,12.0,0.0
103,73.0,0.0,390.0,8.0,0.0
104,68.0,0.0,60.0,10.0,0.0
105,61.0,0.0,60.0,10.0,0.0
106,49.0,80.0,60.0,12.0,0.0
107,56.0,0.0,60.0,12.0,0.0
108,68.0,0.0,60.0,10.0,0.0
109,49.0,0.0,60.0,12.0,0.0
110,56.0,0.0,60.0,12.0,0.0
111,61.0,80.0,60.0,10.0,0.0
112,56.0,0.0,60.0,12.0,0.0
113,49.0,0.0,60.0,12.0,0.0
114,68.0,80.0,60.0,10.0,0.0
115,61.0,0.0,60.0,10.0,0.0
116,49.0,0.0,60.0,12.0,0.0
117,68.0,0.0,60.0,10.0,0.0
118,61.0,0.0,60.0,10.0,0.0
119,56.0,80.0,60.0,12.0,0.0
120,68.0,80.0,60.0,10.0,0.0
121,56.0,0.0,60.0,12.0,0.0
122,49.0,0.0,60.0,12.0,0.0
123,61.0,0.0,60.0,10.0,0.0
124,56.0,0.0,60.0,12.0,0.0
125,68.0,0.0,60.0,10.0,0.0
126,61.0,0.0,60.0,10.0,0.0
127,49.0,80.0,60.0,12.0,0.0
128,56.0,0.0,60.0,12.0,0.0
129,61.0,0.0,60.0,10.0,0.0
130,49.0,0.0,60.0,12.0,0.0
131,68.0,80.0,60.0,10.0,0.0
132,61.0,0.0,60.0,10.0,0.0
133,49.0,0.0,60.0,12.0,0.0
134,56.0,80.0,60.0,12.0,0.0
135,68.0,0.0,60.0,10.0,0.0
136,61.0,0.0,60.0,10.0,0.0
137,68.0,0.0,60.0,10.0,0.0
138,49.0,80.0,60.0,12.0,0.0
139,56.0,0.0,60.0,12.0,0.0
140,68.0,0.0,60.0,10.0,0.0
141,61.0,80.0,60.0,10.0,0.0
142,49.0,0.0,60.0,12.0,0.0
143,56.0,0.0,60.0,12.0,0.0
144,68.0,0.0,60.0,10.0,0.0
145,61.0,4.0,60.0,10.0,0.0
146,49.0,0.0,60.0,12.0,0.0
147,56.0,0.0,60.0,12.0,0.0
148,73.0,76.0,60.0,8.0,0.0
149,61.0,80.0,60.0,10.0,0.0
150,68.0,80.0,390.0,8.0,0.0
151,49.0,0.0,60.0,12.0,0.0
152,56.0,0.0,60.0,12.0,0.0
153,68.0,0.0,60.0,10.0,0.0
154,49.0,80.0,60.0,12.0,0.0
155,68.0,0.0,60.0,10.0,0.0
156,56.0,0.0,60.0,12.0,0.0
157,61.0,0.0,60.0,10.0,0.0
158,49.0,0.0,60.0,12.0,0.0
159,61.0,80.0,60.0,10.0,0.0
160,56.0,0.0,60.0,12.0,0.0
161,68.0,0.0,60.0,10.0,0.0
162,49.0,0.0,60.0,12.0,0.0
163,61.0,80.0,60.0,10.0,0.0
164,68.0,0.0,60.0,10.0,0.0
165,56.0,0.0,60.0,12.0,0.0
166,49.0,0.0,60.0,12.0,0.0
167,56.0,0.0,60.0,12.0,0.0
168,61.0,0.0,60.0,10.0,0.0
169,68.0,0.0,60.0,10.0,0.0
170,49.0,0.0,60.0,12.0,0.0
171,56.0,80.0,60.0,12.0,0.0
172,68.0,0.0,60.0,10.0,0.0
173,61.0,0.0,60.0,10.0,0.0
174,56.0,80.0,60.0,12.0,0.0
175,61.0,0.0,60.0,10.0,0.0
176,49.0,0.0,60.0,12.0,0.0
177,68.0,0.0,60.0,10.0,0.0
178,68.0,0.0,60.0,10.0,0.0
179,61.0,0.0,60.0,10.0,0.0
180,56.0,80.0,60.0,12.0,0.0
181,49.0,0.0,60.0,12.0,0.0
182,49.0,0.0,60.0,12.0,0.0
183,61.0,0.0,60.0,10.0,0.0
184,68.0,0.0,60.0,10.0,0.0
185,56.0,80.0,60.0,12.0,0.0
186,61.0,0.0,60.0,10.0,0.0
187,68.0,80.0,60.0,10.0,0.0
188,56.0,0.0,60.0,12.0,0.0
189,49.0,0.0,60.0,12.0,0.0
190,56.0,80.0,60.0,12.0,0.0
191,49.0,0.0,60.0,12.0,0.0
192,68.0,0.0,60.0,10.0,0.0
193,61.0,0.0,60.0,10.0,0.0
194,49.0,0.0,60.0,12.0,0.0
195,56.0,0.0,60.0,12.0,0.0
196,61.0,4.0,60.0,10.0,0.0
197,68.0,0.0,60.0,10.0,0.0
198,44.0,76.0,60.0,13.0,0.0
199,68.0,0.0,60.0,11.0,0.0
200,49.0,0.0,60.0,12.0,0.0
201,68.0,0.0,60.0,10.0,0.0
202,56.0,80.0,60.0,12.0,0.0
203,61.0,0.0,390.0,11.0,0.0
204,61.0,0.0,60.0,10.0,0.0
205,37.0,0.0,390.0,13.0,0.0
206,56.0,0.0,60.0,12.0,0.0
207,49.0,0.0,60.0,12.0,0.0
208,61.0,80.0,60.0,10.0,0.0
209,68.0,0.0,60.0,10.0,0.0
210,49.0,0.0,60.0,12.0,0.0
211,61.0,80.0,60.0,10.0,0.0
212,68.0,0.0,60.0,10.0,0.0
213,56.0,0.0,60.0,12.0,0.0
214,68.0,0.0,60.0,10.0,0.0
215,61.0,0.0,60.0,10.0,0.0
216,49.0,80.0,60.0,12.0,0.0
217,56.0,0.0,60.0,12.0,0.0
218,49.0,0.0,60.0,12.0,0.0
219,68.0,0.0,60.0,10.0,0.0
220,56.0,0.0,60.0,12.0,0.0
221,61.0,80.0,60.0,10.0,0.0
222,61.0,0.0,60.0,10.0,0.0
223,68.0,0.0,60.0,10.0,0.0
224,49.0,80.0,60.0,12.0,0.0
225,56.0,0.0,60.0,12.0,0.0
226,68.0,0.0,60.0,10.0,0.0
227,61.0,0.0,60.0,10.0,0.0
228,56.0,0.0,60.0,12.0,0.0
229,49.0,80.0,60.0,12.0,0.0
230,61.0,0.0,60.0,10.0,0.0
231,68.0,0.0,60.0,10.0,0.0
232,49.0,0.0,60.0,12.0,0.0
233,56.0,80.0,60.0,12.0,0.0
234,61.0,0.0,60.0,10.0,0.0
235,68.0,0.0,60.0,10.0,0.0
236,56.0,80.0,60.0,12.0,0.0
237,49.0,0.0,60.0,12.0,0.0
238,56.0,0.0,60.0,12.0,0.0
239,49.0,0.0,60.0,12.0,0.0
240,61.0,0.0,60.0,10.0,0.0
241,68.0,80.0,60.0,10.0,0.0
242,61.0,80.0,60.0,10.0,0.0
243,68.0,0.0,60.0,10.0,0.0
244,56.0,0.0,60.0,12.0,0.0
245,49.0,0.0,60.0,12.0,0.0
246,61.0,0.0,60.0,10.0,0.0
247,68.0,0.0,60.0,10.0,0.0
248,56.0,0.0,60.0,12.0,0.0
249,49.0,80.0,60.0,12.0,0.0
250,49.0,80.0,60.0,12.0,0.0
251,56.0,0.0,60.0,12.0,0.0
252,68.0,0.0,60.0,10.0,0.0
253,61.0,0.0,60.0,10.0,0.0
254,68.0,80.0,60.0,10.0,0.0
255,61.0,0.0,60.0,10.0,0.0
256,49.0,0.0,60.0,12.0,0.0
257,56.0,0.0,60.0,12.0,0.0
258,68.0,0.0,60.0,10.0,0.0
259,61.0,0.0,60.0,10.0,0.0
260,56.0,0.0,60.0,12.0,0.0
261,49.0,80.0,60.0,12.0,0.0
262,61.0,0.0,60.0,10.0,0.0
263,56.0,0.0,60.0,12.0,0.0
264,68.0,0.0,60.0,10.0,0.0
265,49.0,80.0,60.0,12.0,0.0
266,68.0,0.0,60.0,10.0,0.0
267,61.0,80.0,60.0,10.0,0.0
268,56.0,0.0,60.0,12.0,0.0
269,49.0,0.0,60.0,12.0,0.0
270,49.0,0.0,60.0,12.0,0.0
271,56.0,0.0,60.0,12.0,0.0
272,68.0,80.0,60.0,10.0,0.0
273,61.0,0.0,60.0,10.0,0.0
274,56.0,80.0,60.0,12.0,0.0
275,49.0,0.0,60.0,12.0,0.0
276,68.0,0.0,60.0,10.0,0.0
277,61.0,0.0,60.0,10.0,0.0
278,56.0,0.0,60.0,12.0,0.0
279,68.0,0.0,60.0,10.0,0.0
280,61.0,80.0,60.0,10.0,0.0
281,49.0,0.0,60.0,12.0,0.0
282,49.0,0.0,60.0,12.0,0.0
283,56.0,80.0,60.0,12.0,0.0
284,68.0,0.0,60.0,10.0,0.0
285,61.0,0.0,60.0,10.0,0.0
286,49.0,0.0,60.0,12.0,0.0
287,56.0,0.0,60.0,12.0,0.0
288,61.0,0.0,60.0,10.0,0.0
289,68.0,80.0,60.0,10.0,0.0
290,49.0,0.0,60.0,12.0,0.0
291,56.0,0.0,60.0,12.0,0.0
292,68.0,0.0,60.0,10.0,0.0
293,61.0,80.0,60.0,10.0,0.0
294,49.0,0.0,60.0,12.0,0.0
295,56.0,0.0,60.0,12.0,0.0
296,61.0,0.0,60.0,10.0,0.0
297,68.0,4.0,60.0,10.0,0.0
298,85.0,76.0,60.0,8.0,0.0
299,68.0,0.0,60.0,10.0,0.0
300,80.0,80.0,390.0,8.0,0.0
301,56.0,0.0,60.0,12.0,0.0
302,61.0,0.0,60.0,10.0,0.0
303,49.0,80.0,60.0,12.0,0.0
304,61.0,0.0,60.0,10.0,0.0
305,68.0,0.0,60.0,10.0,0.0
306,49.0,80.0,60.0,12.0,0.0
307,56.0,0.0,60.0,12.0,0.0
308,68.0,0.0,60.0,10.0,0.0
309,61.0,0.0,60.0,10.0,0.0
310,49.0,80.0,60.0,12.0,0.0
311,56.0,0.0,60.0,12.0,0.0
312,49.0,80.0,60.0,12.0,0.0
313,56.0,0.0,60.0,12.0,0.0
314,61.0,0.0,60.0,10.0,0.0
315,68.0,0.0,60.0,10.0,0.0
316,49.0,0.0,60.0,12.0,0.0
317,56.0,0.0,60.0,12.0,0.0
318,68.0,0.0,60.0,10.0,0.0
319,61.0,0.0,60.0,10.0,0.0
320,68.0,0.0,60.0,10.0,0.0
321,49.0,80.0,60.0,12.0,0.0
322,56.0,0.0,60.0,12.0,0.0
323,61.0,0.0,60.0,10.0,0.0
324,49.0,0.0,60.0,12.0,0.0
325,56.0,80.0,60.0,12.0,0.0
326,61.0,0.0,60.0,10.0,0.0
327,68.0,0.0,60.0,10.0,0.0
328,61.0,80.0,60.0,10.0,0.0
329,68.0,0.0,60.0,10.0,0.0
330,49.0,0.0,60.0,12.0,0.0
331,56.0,0.0,60.0,12.0,0.0
332,56.0,0.0,60.0,12.0,0.0
333,68.0,0.0,60.0,10.0,0.0
334,49.0,80.0,60.0,12.0,0.0
335,61.0,0.0,60.0,10.0,0.0
336,61.0,0.0,60.0,10.0,0.0
337,68.0,80.0,60.0,10.0,0.0
338,49.0,0.0,60.0,12.0,0.0
339,56.0,0.0,60.0,12.0,0.0
340,68.0,0.0,60.0,10.0,0.0
341,56.0,0.0,60.0,12.0,0.0
342,49.0,80.0,60.0,12.0,0.0
343,61.0,0.0,60.0,10.0,0.0
344,49.0,0.0,60.0,12.0,0.0
345,61.0,0.0,60.0,10.0,0.0
346,56.0,0.0,60.0,12.0,0.0
347,68.0,4.0,60.0,10.0,0.0
348,80.0,76.0,60.0,8.0,0.0
349,73.0,80.0,390.0,8.0,0.0
350,68.0,80.0,60.0,10.0,0.0
351,61.0,0.0,60.0,10.0,0.0
352,56.0,0.0,60.0,12.0,0.0
353,49.0,0.0,60.0,12.0,0.0
354,68.0,80.0,60.0,10.0,0.0
355,61.0,0.0,60.0,10.0,0.0
356,49.0,0.0,60.0,12.0,0.0
357,56.0,0.0,60.0,12.0,0.0
358,56.0,0.0,60.0,12.0,0.0
359,68.0,80.0,60.0,10.0,0.0
360,49.0,0.0,60.0,12.0,0.0
361,61.0,0.0,60.0,10.0,0.0
362,49.0,0.0,60.0,12.0,0.0
363,61.0,0.0,60.0,10.0,0.0
364,56.0,80.0,60.0,12.0,0.0
365,68.0,0.0,60.0,10.0,0.0
366,68.0,0.0,60.0,10.0,0.0
367,56.0,0.0,60.0,12.0,0.0
368,49.0,0.0,60.0,12.0,0.0
369,61.0,0.0,60.0,10.0,0.0
370,61.0,0.0,60.0,10.0,0.0
371,68.0,80.0,60.0,10.0,0.0
372,49.0,0.0,60.0,12.0,0.0
373,56.0,0.0,60.0,12.0,0.0
374,61.0,0.0,60.0,10.0,0.0
375,68.0,0.0,60.0,10.0,0.0
376,56.0,80.0,60.0,12.0,0.0
377,49.0,0.0,60.0,12.0,0.0
378,68.0,0.0,60.0,10.0,0.0
379,56.0,80.0,60.0,12.0,0.0
380,61.0,0.0,60.0,10.0,0.0
381,49.0,0.0,60.0,12.0,0.0
382,56.0,0.0,60.0,12.0,0.0
383,68.0,0.0,60.0,10.0,0.0
384,61.0,80.0,60.0,10.0,0.0
385,49.0,0.0,60.0,12.0,0.0
386,61.0,0.0,60.0,10.0,0.0
387,68.0,0.0,60.0,10.0,0.0
388,56.0,80.0,60.0,12.0,0.0
389,49.0,0.0,60.0,12.0,0.0
390,61.0,0.0,60.0,10.0,0.0
391,68.0,80.0,60.0,10.0,0.0
392,56.0,0.0,60.0,12.0,0.0
393,49.0,0.0,60.0,12.0,0.0
394,49.0,0.0,60.0,12.0,0.0
395,56.0,4.0,60.0,12.0,0.0
396,61.0,0.0,60.0,10.0,0.0
397,68.0,0.0,60.0,10.0,0.0
398,68.0,0.0,60.0,11.0,0.0
399,44.0,76.0,60.0,13.0,0.0
400,61.0,80.0,60.0,10.0,0.0
401,68.0,0.0,60.0,10.0,0.0
402,61.0,80.0,390.0,11.0,0.0
403,37.0,0.0,390.0,13.0,0.0
404,49.0,0.0,60.0,12.0,0.0
405,56.0,0.0,60.0,12.0,0.0
406,80.0,14.0,5250.0,1.0,0.0
407,56.0,80.0,60.0,12.0,0.0
408,49.0,0.0,60.0,12.0,0.0
409,61.0,0.0,60.0,10.0,0.0
410,68.0,0.0,60.0,10.0,0.0
411,61.0,0.0,60.0,10.0,0.0
412,56.0,0.0,60.0,12.0,0.0
413,68.0,0.0,60.0,10.0,0.0
414,49.0,80.0,60.0,12.0,0.0
415,68.0,0.0,60.0,10.0,0.0
416,61.0,80.0,60.0,10.0,0.0
417,49.0,0.0,60.0,12.0,0.0
418,56.0,0.0,60.0,12.0,0.0
419,56.0,0.0,60.0,12.0,0.0
420,49.0,0.0,60.0,12.0,0.0
421,68.0,0.0,60.0,10.0,0.0
422,61.0,0.0,60.0,10.0,0.0
423,56.0,80.0,60.0,12.0,0.0
424,49.0,0.0,60.0,12.0,0.0
425,68.0,0.0,60.0,10.0,0.0
426,61.0,0.0,60.0,10.0,0.0
427,61.0,80.0,60.0,10.0,0.0
428,68.0,0.0,60.0,10.0,0.0
429,56.0,0.0,60.0,12.0,0.0
430,49.0,0.0,60.0,12.0,0.0
431,61.0,0.0,60.0,10.0,0.0
432,56.0,0.0,60.0,12.0,0.0
433,49.0,80.0,60.0,12.0,0.0
434,68.0,0.0,60.0,10.0,0.0
435,49.0,0.0,60.0,12.0,0.0
436,68.0,80.0,60.0,10.0,0.0
437,61.0,0.0,60.0,10.0,0.0
438,56.0,0.0,60.0,12.0,0.0
439,68.0,80.0,60.0,10.0,0.0
440,49.0,0.0,60.0,12.0,0.0
441,61.0,0.0,60.0,10.0,0.0
442,56.0,0.0,60.0,12.0,0.0
443,56.0,80.0,60.0,12.0,0.0
444,61.0,0.0,60.0,10.0,0.0
445,68.0,0.0,60.0,10.0,0.0
446,49.0,0.0,60.0,12.0,0.0
447,56.0,80.0,60.0,12.0,0.0
448,61.0,0.0,60.0,10.0,0.0
449,49.0,0.0,60.0,12.0,0.0
450,68.0,0.0,60.0,10.0,0.0
451,49.0,0.0,60.0,12.0,0.0
452,56.0,0.0,60.0,12.0,0.0
453,61.0,80.0,60.0,10.0,0.0
454,68.0,0.0,60.0,10.0,0.0
455,49.0,0.0,60.0,12.0,0.0
456,56.0,0.0,60.0,12.0,0.0
457,68.0,80.0,60.0,10.0,0.0
458,61.0,0.0,60.0,10.0,0.0
459,61.0,80.0,60.0,10.0,0.0
460,56.0,0.0,60.0,12.0,0.0
461,49.0,0.0,60.0,12.0,0.0
462,68.0,0.0,60.0,10.0,0.0
463,61.0,0.0,60.0,10.0,0.0
464,49.0,0.0,60.0,12.0,0.0
465,68.0,80.0,60.0,10.0,0.0
466,56.0,0.0,60.0,12.0,0.0
467,56.0,0.0,60.0,12.0,0.0
468,61.0,0.0,60.0,10.0,0.0
469,68.0,0.0,60.0,10.0,0.0
470,49.0,80.0,60.0,12.0,0.0
471,49.0,80.0,60.0,12.0,0.0
472,61.0,0.0,60.0,10.0,0.0
473,68.0,0.0,60.0,10.0,0.0
474,56.0,0.0,60.0,12.0,0.0
475,68.0,0.0,60.0,10.0,0.0
476,61.0,0.0,60.0,10.0,0.0
477,49.0,80.0,60.0,12.0,0.0
478,56.0,0.0,60.0,12.0,0.0
479,56.0,0.0,60.0,12.0,0.0
480,61.0,80.0,60.0,10.0,0.0
481,68.0,0.0,60.0,10.0,0.0
482,49.0,0.0,60.0,12.0,0.0
483,56.0,0.0,60.0,12.0,0.0
484,49.0,0.0,60.0,12.0,0.0
485,61.0,80.0,60.0,10.0,0.0
486,68.0,0.0,60.0,10.0,0.0
487,56.0,0.0,60.0,12.0,0.0
488,49.0,80.0,60.0,12.0,0.0
489,68.0,0.0,60.0,10.0,0.0
490,61.0,0.0,60.0,10.0,0.0
491,61.0,0.0,60.0,10.0,0.0
492,68.0,80.0,60.0,10.0,0.0
493,49.0,0.0,60.0,12.0,0.0
494,56.0,0.0,60.0,12.0,0.0
495,61.0,80.0,60.0,10.0,0.0
496,56.0,0.0,60.0,12.0,0.0
497,68.0,0.0,60.0,10.0,0.0
498,49.0,0.0,60.0,12.0,0.0
499,68.0,0.0,60.0,10.0,0.0
500,49.0,0.0,60.0,12.0,0.0
501,56.0,80.0,60.0,12.0,0.0
502,85.0,0.0,3330.0,0.0,0.0
503,61.0,0.0,60.0,10.0,0.0
504,61.0,80.0,60.0,10.0,0.0
505,49.0,0.0,60.0,12.0,0.0
506,56.0,0.0,60.0,12.0,0.0
507,68.0,0.0,60.0,10.0,0.0
508,61.0,0.0,60.0,10.0,0.0
509,68.0,0.0,60.0,10.0,0.0
510,49.0,80.0,60.0,12.0,0.0
511,56.0,0.0,60.0,12.0,0.0
512,68.0,80.0,60.0,10.0,0.0
513,56.0,0.0,60.0,12.0,0.0
514,61.0,0.0,60.0,10.0,0.0
515,49.0,0.0,60.0,12.0,0.0
516,61.0,0.0,60.0,10.0,0.0
517,68.0,0.0,60.0,10.0,0.0
518,49.0,80.0,60.0,12.0,0.0
519,56.0,0.0,60.0,12.0,0.0
520,68.0,0.0,60.0,10.0,0.0
521,56.0,4.0,60.0,12.0,0.0
522,49.0,0.0,60.0,12.0,0.0
523,61.0,0.0,60.0,10.0,0.0
524,85.0,76.0,60.0,8.0,0.0
525,68.0,80.0,60.0,10.0,0.0
526,49.0,0.0,60.0,12.0,0.0
527,80.0,78.0,240.0,8.0,0.0
528,56.0,0.0,60.0,12.0,0.0
529,61.0,0.0,60.0,10.0,0.0
530,56.0,0.0,60.0,12.0,0.0
531,61.0,0.0,60.0,10.0,0.0
532,68.0,0.0,60.0,10.0,0.0
533,49.0,80.0,60.0,12.0,0.0
534,56.0,0.0,60.0,12.0,0.0
535,68.0,0.0,60.0,10.0,0.0
536,61.0,2.0,60.0,10.0,0.0
537,49.0,0.0,60.0,12.0,0.0
538,49.0,0.0,60.0,12.0,0.0
539,56.0,0.0,60.0,12.0,0.0
540,61.0,80.0,60.0,10.0,0.0
541,68.0,0.0,60.0,10.0,0.0
542,68.0,0.0,60.0,10.0,0.0
543,61.0,0.0,60.0,10.0,0.0
544,56.0,0.0,60.0,12.0,0.0
545,49.0,80.0,60.0,12.0,0.0
546,61.0,0.0,60.0,10.0,0.0
547,68.0,0.0,60.0,10.0,0.0
548,49.0,0.0,60.0,12.0,0.0
549,56.0,4.0,60.0,12.0,0.0
550,80.0,76.0,60.0,8.0,0.0
551,49.0,80.0,60.0,12.0,0.0
552,56.0,0.0,60.0,12.0,0.0
553,68.0,0.0,60.0,10.0,0.0
554,61.0,0.0,60.0,10.0,0.0
555,73.0,78.0,240.0,8.0,0.0
556,68.0,0.0,60.0,10.0,0.0
557,61.0,0.0,60.0,10.0,0.0
558,56.0,0.0,60.0,12.0,0.0
559,49.0,80.0,60.0,12.0,0.0
560,56.0,2.0,60.0,12.0,0.0
561,49.0,0.0,60.0,12.0,0.0
562,61.0,0.0,60.0,10.0,0.0
563,68.0,0.0,60.0,10.0,0.0
564,68.0,0.0,60.0,10.0,0.0
565,61.0,0.0,60.0,10.0,0.0
566,56.0,0.0,60.0,12.0,0.0
567,49.0,80.0,60.0,12.0,0.0
568,61.0,80.0,60.0,10.0,0.0
569,68.0,0.0,60.0,10.0,0.0
570,49.0,0.0,60.0,12.0,0.0
571,56.0,0.0,60.0,12.0,0.0
572,49.0,0.0,60.0,12.0,0.0
573,56.0,0.0,60.0,12.0,0.0
574,68.0,4.0,60.0,10.0,0.0
575,61.0,0.0,60.0,10.0,0.0
576,73.0,76.0,60.0,8.0,0.0
577,68.0,78.0,240.0,8.0,0.0
578,56.0,80.0,60.0,12.0,0.0
579,49.0,0.0,60.0,12.0,0.0
580,61.0,0.0,60.0,10.0,0.0
581,68.0,0.0,60.0,10.0,0.0
582,56.0,80.0,60.0,12.0,0.0
583,61.0,0.0,60.0,10.0,0.0
584,49.0,0.0,60.0,12.0,0.0
585,68.0,0.0,60.0,10.0,0.0
586,68.0,2.0,60.0,10.0,0.0
587,61.0,0.0,60.0,10.0,0.0
588,56.0,0.0,60.0,12.0,0.0
589,49.0,0.0,60.0,12.0,0.0
590,56.0,0.0,60.0,12.0,0.0
591,61.0,0.0,60.0,10.0,0.0
592,68.0,80.0,60.0,10.0,0.0
593,49.0,0.0,60.0,12.0,0.0
594,68.0,80.0,60.0,10.0,0.0
595,61.0,0.0,60.0,10.0,0.0
596,56.0,0.0,60.0,12.0,0.0
597,49.0,0.0,60.0,12.0,0.0
598,68.0,4.0,60.0,10.0,0.0
599,56.0,0.0,60.0,12.0,0.0
600,49.0,0.0,60.0,12.0,0.0
601,61.0,0.0,60.0,10.0,0.0
602,44.0,76.0,60.0,13.0,0.0
603,68.0,0.0,60.0,11.0,0.0
604,61.0,0.0,390.0,11.0,0.0
605,56.0,0.0,60.0,12.0,0.0
606,49.0,0.0,60.0,12.0,0.0
607,68.0,80.0,60.0,10.0,0.0
608,37.0,36.0,390.0,13.0,0.0
609,61.0,0.0,60.0,10.0,0.0
610,49.0,0.0,60.0,12.0,0.0
611,61.0,0.0,60.0,10.0,0.0
612,68.0,36.0,60.0,10.0,0.0
613,56.0,0.0,60.0,12.0,0.0
614,85.0,44.0,60.0,8.0,0.0
615,56.0,0.0,60.0,12.0,0.0
616,61.0,0.0,60.0,10.0,0.0
617,68.0,0.0,60.0,10.0,0.0
618,49.0,80.0,60.0,12.0,0.0
619,61.0,56.0,60.0,10.0,0.0
620,85.0,24.0,120.0,8.0,0.0
621,56.0,0.0,60.0,12.0,0.0
622,68.0,0.0,60.0,10.0,0.0
623,49.0,0.0,60.0,12.0,0.0
624,68.0,0.0,60.0,10.0,0.0
625,61.0,0.0,60.0,10.0,0.0
626,56.0,0.0,60.0,12.0,0.0
627,49.0,0.0,60.0,12.0,0.0
628,80.0,44.0,60.0,8.0,0.0
629,49.0,0.0,60.0,12.0,0.0
630,56.0,0.0,60.0,12.0,0.0
631,68.0,80.0,60.0,10.0,0.0
632,61.0,0.0,60.0,10.0,0.0
633,56.0,0.0,60.0,12.0,0.0
634,49.0,0.0,60.0,12.0,0.0
635,68.0,0.0,60.0,10.0,0.0
636,61.0,80.0,60.0,10.0,0.0
637,56.0,36.0,60.0,12.0,0.0
638,49.0,0.0,60.0,12.0,0.0
639,68.0,0.0,60.0,10.0,0.0
640,61.0,0.0,60.0,10.0,0.0
641,80.0,44.0,60.0,8.0,0.0
642,49.0,80.0,60.0,12.0,0.0
643,61.0,0.0,60.0,10.0,0.0
644,68.0,0.0,60.0,10.0,0.0
645,56.0,0.0,60.0,12.0,0.0
646,56.0,0.0,60.0,12.0,0.0
647,61.0,0.0,60.0,10.0,0.0
648,68.0,0.0,60.0,10.0,0.0
649,80.0,24.0,120.0,8.0,0.0
650,49.0,56.0,60.0,12.0,0.0
651,56.0,0.0,60.0,12.0,0.0
652,61.0,0.0,60.0,10.0,0.0
653,68.0,0.0,60.0,10.0,0.0
654,49.0,36.0,60.0,12.0,0.0
655,73.0,44.0,60.0,8.0,0.0
656,49.0,0.0,60.0,12.0,0.0
657,68.0,0.0,60.0,10.0,0.0
658,61.0,80.0,60.0,10.0,0.0
659,56.0,0.0,60.0,12.0,0.0
660,49.0,0.0,60.0,12.0,0.0
661,49.0,32.0,1140.0,3.0,0.0
662,56.0,0.0,60.0,12.0,0.0
663,61.0,80.0,60.0,10.0,0.0
664,68.0,0.0,60.0,10.0,0.0
665,56.0,0.0,60.0,12.0,0.0
666,49.0,0.0,60.0,12.0,0.0
667,61.0,0.0,60.0,10.0,0.0
668,68.0,36.0,60.0,10.0,0.0
669,73.0,44.0,60.0,8.0,0.0
670,61.0,0.0,60.0,10.0,0.0
671,68.0,0.0,60.0,10.0,0.0
672,49.0,80.0,60.0,12.0,0.0
673,56.0,0.0,60.0,12.0,0.0
674,68.0,0.0,60.0,10.0,0.0
675,49.0,0.0,60.0,12.0,0.0
676,56.0,56.0,60.0,12.0,0.0
677,61.0,0.0,60.0,10.0,0.0
678,73.0,24.0,120.0,8.0,0.0
679,49.0,0.0,60.0,12.0,0.0
680,61.0,36.0,60.0,10.0,0.0
681,68.0,0.0,60.0,10.0,0.0
682,56.0,0.0,60.0,12.0,0.0
683,68.0,30.0,60.0,8.0,0.0
684,68.0,0.0,60.0,10.0,0.0
685,61.0,80.0,60.0,10.0,0.0
686,49.0,0.0,60.0,12.0,0.0
687,56.0,0.0,60.0,12.0,0.0
688,61.0,0.0,60.0,10.0,0.0
689,49.0,0.0,60.0,12.0,0.0
690,56.0,0.0,60.0,12.0,0.0
691,68.0,80.0,60.0,10.0,0.0
692,68.0,0.0,60.0,10.0,0.0
693,56.0,36.0,60.0,12.0,0.0
694,49.0,0.0,60.0,12.0,0.0
695,61.0,0.0,60.0,10.0,0.0
696,44.0,0.0,60.0,13.0,0.0
697,68.0,44.0,60.0,11.0,0.0
698,61.0,0.0,60.0,10.0,0.0
699,68.0,0.0,60.0,10.0,0.0
700,49.0,80.0,60.0,12.0,0.0
701,56.0,0.0,60.0,12.0,0.0
702,97.0,0.0,2040.0,0.0,0.0
703,61.0,0.0,60.0,10.0,0.0
704,73.0,0.0,60.0,10.0,0.0
705,68.0,0.0,120.0,11.0,0.0
706,49.0,56.0,60.0,12.0,0.0
707,85.0,0.0,2040.0,0.0,0.0
708,49.0,0.0,2010.0,4.0,0.0
709,73.0,0.0,2010.0,4.0,0.0
710,73.0,0.0,2040.0,2.0,0.0
711,85.0,0.0,2040.0,1.0,0.0
712,73.0,0.0,2040.0,1.0,0.0
713,44.0,24.0,120.0,13.0,0.0
714,61.0,0.0,60.0,12.0,0.0
715,61.0,354.0,2040.0,2.0,0.0
716,61.0,0.0,60.0,10.0,0.0
717,49.0,0.0,60.0,12.0,0.0
718,73.0,36.0,60.0,10.0,0.0
719,61.0,0.0,60.0,12.0,0.0
720,37.0,0.0,60.0,13.0,0.0
721,61.0,44.0,60.0,11.0,0.0
722,73.0,0.0,60.0,10.0,0.0
723,61.0,0.0,60.0,10.0,0.0
724,49.0,80.0,60.0,12.0,0.0
725,61.0,0.0,60.0,12.0,0.0
726,49.0,80.0,60.0,12.0,0.0
727,61.0,0.0,60.0,10.0,0.0
728,61.0,0.0,60.0,12.0,0.0
729,73.0,0.0,60.0,10.0,0.0
730,49.0,36.0,60.0,12.0,0.0
731,61.0,0.0,60.0,12.0,0.0
732,61.0,0.0,60.0,10.0,0.0
733,73.0,0.0,60.0,10.0,0.0
734,85.0,12.0,60.0,8.0,0.0
735,61.0,80.0,60.0,12.0,0.0
736,61.0,0.0,60.0,10.0,0.0
737,73.0,0.0,60.0,10.0,0.0
738,49.0,0.0,60.0,12.0,0.0
739,61.0,56.0,60.0,12.0,0.0
740,42.0,0.0,1530.0,3.0,0.0
741,49.0,0.0,60.0,12.0,0.0
742,61.0,0.0,60.0,10.0,0.0
743,73.0,0.0,60.0,10.0,0.0
744,66.0,0.0,1530.0,4.0,0.0
745,85.0,24.0,120.0,8.0,0.0
746,54.0,18.0,1530.0,4.0,0.0
747,73.0,0.0,60.0,10.0,0.0
748,61.0,36.0,60.0,12.0,0.0
749,49.0,0.0,60.0,12.0,0.0
750,61.0,0.0,60.0,10.0,0.0
751,73.0,44.0,60.0,8.0,0.0
752,49.0,0.0,60.0,12.0,0.0
753,61.0,0.0,60.0,12.0,0.0
754,73.0,80.0,60.0,10.0,0.0
755,61.0,0.0,60.0,10.0,0.0
756,61.0,0.0,60.0,12.0,0.0
757,73.0,56.0,60.0,10.0,0.0
758,61.0,0.0,60.0,10.0,0.0
759,49.0,0.0,60.0,12.0,0.0
760,73.0,24.0,120.0,8.0,0.0
761,49.0,0.0,60.0,12.0,0.0
762,61.0,36.0,60.0,12.0,0.0
763,73.0,0.0,60.0,10.0,0.0
764,61.0,0.0,60.0,10.0,0.0
765,61.0,0.0,60.0,8.0,0.0
766,73.0,44.0,60.0,11.0,0.0
767,49.0,0.0,60.0,12.0,0.0
768,61.0,0.0,60.0,12.0,0.0
769,61.0,80.0,60.0,10.0,0.0
770,73.0,0.0,60.0,10.0,0.0
771,61.0,0.0,60.0,12.0,0.0
772,49.0,0.0,60.0,12.0,0.0
773,61.0,24.0,120.0,8.0,0.0
774,73.0,0.0,120.0,11.0,0.0
775,61.0,0.0,60.0,10.0,0.0
776,73.0,56.0,60.0,10.0,0.0
777,49.0,0.0,60.0,12.0,0.0
778,73.0,0.0,60.0,10.0,0.0
779,61.0,0.0,60.0,10.0,0.0
780,61.0,36.0,60.0,12.0,0.0
781,73.0,0.0,60.0,8.0,0.0
782,61.0,44.0,60.0,11.0,0.0
783,61.0,80.0,60.0,10.0,0.0
784,73.0,0.0,60.0,10.0,0.0
785,49.0,0.0,60.0,12.0,0.0
786,61.0,0.0,60.0,12.0,0.0
787,61.0,0.0,60.0,12.0,0.0
788,49.0,56.0,60.0,12.0,0.0
789,61.0,0.0,60.0,10.0,0.0
790,61.0,0.0,120.0,11.0,0.0
791,73.0,24.0,120.0,8.0,0.0
792,73.0,0.0,60.0,10.0,0.0
793,61.0,0.0,60.0,12.0,0.0
794,73.0,0.0,60.0,10.0,0.0
795,49.0,0.0,60.0,12.0,0.0
796,61.0,36.0,60.0,10.0,0.0
797,85.0,44.0,60.0,8.0,0.0
798,73.0,0.0,60.0,11.0,0.0
799,73.0,0.0,60.0,10.0,0.0
800,61.0,0.0,60.0,12.0,0.0
801,49.0,0.0,60.0,12.0,0.0
802,61.0,80.0,60.0,10.0,0.0
803,61.0,0.0,60.0,12.0,0.0
804,73.0,0.0,60.0,10.0,0.0
805,61.0,0.0,60.0,10.0,0.0
806,85.0,24.0,120.0,8.0,0.0
807,49.0,56.0,60.0,12.0,0.0
808,73.0,0.0,120.0,11.0,0.0
809,61.0,0.0,60.0,12.0,0.0
810,49.0,36.0,60.0,12.0,0.0
811,61.0,0.0,60.0,10.0,0.0
812,73.0,0.0,60.0,10.0,0.0
813,61.0,44.0,60.0,11.0,0.0
814,73.0,0.0,60.0,8.0,0.0
815,61.0,0.0,60.0,10.0,0.0
816,73.0,0.0,60.0,10.0,0.0
817,61.0,80.0,60.0,12.0,0.0
818,49.0,0.0,60.0,12.0,0.0
819,73.0,0.0,60.0,10.0,0.0
820,61.0,0.0,60.0,10.0,0.0
821,73.0,0.0,120.0,8.0,0.0
822,49.0,56.0,60.0,12.0,0.0
823,61.0,0.0,60.0,12.0,0.0
824,61.0,24.0,120.0,11.0,0.0
825,61.0,0.0,60.0,10.0,0.0
826,61.0,0.0,60.0,12.0,0.0
827,49.0,0.0,60.0,12.0,0.0
828,73.0,36.0,60.0,10.0,0.0
829,73.0,44.0,60.0,11.0,0.0
830,85.0,0.0,60.0,8.0,0.0
831,49.0,76.0,60.0,12.0,0.0
832,61.0,0.0,60.0,10.0,0.0
833,61.0,0.0,60.0,12.0,0.0
834,73.0,0.0,60.0,10.0,0.0
835,61.0,0.0,120.0,10.0,0.0
836,61.0,36.0,60.0,11.0,0.0
837,61.0,0.0,120.0,12.0,0.0
838,49.0,0.0,120.0,12.0,0.0
839,73.0,0.0,60.0,8.0,0.0
840,73.0,0.0,120.0,10.0,0.0
841,78.0,60.0,60.0,11.0,0.0
842,66.0,0.0,60.0,12.0,0.0
843,78.0,0.0,60.0,5.0,0.0
844,90.0,0.0,60.0,1.0,0.0
845,54.0,0.0,60.0,6.0,0.0
846,54.0,0.0,60.0,4.0,0.0
847,66.0,0.0,60.0,5.0,0.0
848,78.0,0.0,60.0,4.0,0.0
849,54.0,0.0,60.0,13.0,0.0
850,66.0,0.0,60.0,4.0,0.0
851,66.0,0.0,60.0,3.0,0.0
852,90.0,0.0,60.0,0.0,0.0
853,90.0,0.0,60.0,8.0,0.0
854,90.0,0.0,60.0,2.0,0.0
855,85.0,0.0,780.0,1.0,0.0
856,61.0,0.0,780.0,3.0,0.0
857,73.0,0.0,780.0,4.0,0.0
858,61.0,0.0,780.0,4.0,0.0
859,49.0,0.0,780.0,13.0,0.0
860,66.0,170.0,780.0,4.0,0.0
861,49.0,60.0,60.0,6.0,0.0
862,54.0,0.0,780.0,4.0,0.0
863,85.0,0.0,780.0,2.0,0.0
864,73.0,0.0,780.0,11.0,0.0
865,61.0,0.0,780.0,12.0,0.0
866,78.0,0.0,780.0,5.0,0.0
867,85.0,0.0,780.0,8.0,0.0
868,66.0,0.0,780.0,5.0,0.0
869,85.0,0.0,780.0,0.0,0.0
870,49.0,60.0,60.0,6.0,0.0
871,49.0,60.0,60.0,6.0,0.0
872,49.0,60.0,60.0,6.0,0.0
873,49.0,60.0,60.0,6.0,0.0
874,49.0,60.0,60.0,6.0,0.0
875,49.0,60.0,60.0,6.0,0.0
876,49.0,60.0,60.0,6.0,0.0
877,49.0,60.0,60.0,6.0,0.0
878,49.0,60.0,60.0,6.0,0.0
879,49.0,60.0,60.0,6.0,0.0
880,49.0,60.0,60.0,6.0,0.0
881,49.0,10.0,60.0,6.0,0.0
882,54.0,348.0,60.0,4.0,0.0
883,66.0,0.0,60.0,4.0,0.0
884,81.0,0.0,60.0,1.0,0.0
885,45.0,0.0,60.0,13.0,0.0
886,54.0,0.0,60.0,6.0,0.0
887,57.0,0.0,60.0,12.0,0.0
888,81.0,0.0,60.0,0.0,0.0
889,69.0,0.0,60.0,4.0,0.0
890,57.0,0.0,60.0,4.0,0.0
891,66.0,0.0,60.0,5.0,0.0
892,78.0,0.0,60.0,5.0,0.0
893,69.0,0.0,60.0,11.0,0.0
894,81.0,0.0,60.0,2.0,0.0
895,81.0,0.0,60.0,8.0,0.0
896,57.0,0.0,60.0,3.0,0.0
897,66.0,0.0,330.0,5.0,0.0
898,78.0,0.0,330.0,2.0,0.0
899,66.0,0.0,330.0,11.0,0.0
900,90.0,0.0,330.0,0.0,0.0
901,66.0,0.0,330.0,4.0,0.0
902,78.0,0.0,330.0,8.0,0.0
903,54.0,0.0,330.0,3.0,0.0
904,78.0,0.0,330.0,1.0,0.0
905,42.0,132.0,330.0,13.0,0.0
906,54.0,0.0,330.0,12.0,0.0
907,78.0,0.0,330.0,5.0,0.0
908,54.0,0.0,330.0,4.0,0.0
909,54.0,0.0,330.0,6.0,0.0
910,85.0,0.0,60.0,1.0,0.0
911,66.0,0.0,60.0,5.0,0.0
912,73.0,0.0,60.0,2.0,0.0
913,85.0,0.0,60.0,2.0,0.0
914,54.0,0.0,60.0,6.0,0.0
915,61.0,0.0,60.0,4.0,0.0
916,49.0,0.0,60.0,4.0,0.0
917,37.0,300.0,60.0,13.0,0.0
918,49.0,0.0,60.0,3.0,0.0
919,73.0,0.0,60.0,1.0,0.0
920,49.0,0.0,60.0,12.0,0.0
921,73.0,0.0,60.0,8.0,0.0
922,85.0,0.0,60.0,0.0,0.0
923,61.0,0.0,60.0,11.0,0.0
924,54.0,0.0,60.0,4.0,0.0
925,66.0,0.0,60.0,4.0,0.0
926,78.0,0.0,60.0,5.0,0.0
927,78.0,0.0,300.0,5.0,0.0
928,69.0,0.0,300.0,4.0,0.0
929,57.0,0.0,300.0,11.0,0.0
930,33.0,0.0,300.0,13.0,0.0
931,57.0,0.0,300.0,4.0,0.0
932,66.0,0.0,300.0,5.0,0.0
933,69.0,0.0,300.0,2.0,0.0
934,81.0,0.0,300.0,1.0,0.0
935,69.0,0.0,300.0,1.0,0.0
936,45.0,0.0,300.0,12.0,0.0
937,54.0,0.0,300.0,4.0,0.0
938,69.0,0.0,300.0,8.0,0.0
939,54.0,0.0,300.0,6.0,0.0
940,81.0,0.0,300.0,0.0,0.0
941,81.0,120.0,300.0,2.0,0.0
942,45.0,0.0,300.0,3.0,0.0
943,66.0,0.0,300.0,4.0,0.0
944,49.0,0.0,60.0,12.0,0.0
945,54.0,0.0,60.0,6.0,0.0
946,73.0,0.0,60.0,2.0,0.0
947,85.0,0.0,60.0,2.0,0.0
948,37.0,60.0,60.0,13.0,0.0
949,78.0,0.0,60.0,5.0,0.0
950,66.0,0.0,60.0,5.0,0.0
951,73.0,0.0,60.0,1.0,0.0
952,49.0,0.0,60.0,3.0,0.0
953,85.0,0.0,60.0,1.0,0.0
954,61.0,0.0,60.0,11.0,0.0
955,73.0,0.0,60.0,8.0,0.0
956,54.0,0.0,60.0,4.0,0.0
957,66.0,0.0,60.0,4.0,0.0
958,73.0,0.0,60.0,4.0,0.0
959,61.0,0.0,60.0,4.0,0.0
960,85.0,0.0,60.0,0.0,0.0
961,69.0,0.0,60.0,2.0,0.0
962,81.0,0.0,60.0,0.0,0.0
963,57.0,0.0,60.0,4.0,0.0
964,69.0,0.0,60.0,4.0,0.0
965,54.0,0.0,60.0,6.0,0.0
966,81.0,0.0,60.0,2.0,0.0
967,54.0,0.0,60.0,4.0,0.0
968,66.0,0.0,60.0,4.0,0.0
969,69.0,0.0,60.0,1.0,0.0
970,66.0,0.0,60.0,5.0,0.0
971,78.0,0.0,60.0,5.0,0.0
972,33.0,0.0,60.0,13.0,0.0
973,57.0,0.0,60.0,11.0,0.0
974,81.0,0.0,60.0,1.0,0.0
975,45.0,0.0,60.0,3.0,0.0
976,45.0,0.0,60.0,12.0,0.0
977,69.0,462.0,60.0,8.0,0.0
978,66.0,0.0,540.0,5.0,0.0
979,42.0,0.0,570.0,3.0,0.0
980,54.0,0.0,570.0,11.0,0.0
981,42.0,0.0,570.0,12.0,0.0
982,78.0,0.0,540.0,5.0,0.0
983,30.0,0.0,570.0,13.0,0.0
984,66.0,0.0,570.0,2.0,0.0
985,66.0,0.0,570.0,8.0,0.0
986,66.0,18.0,570.0,1.0,0.0
987,54.0,0.0,450.0,4.0,0.0
988,66.0,0.0,570.0,4.0,0.0
989,78.0,0.0,570.0,0.0,0.0
990,54.0,84.0,450.0,6.0,0.0
991,78.0,0.0,450.0,2.0,0.0
992,69.0,0.0,60.0,11.0,0.0
993,81.0,0.0,60.0,8.0,0.0
994,81.0,0.0,60.0,1.0,0.0
995,45.0,0.0,60.0,13.0,0.0
996,54.0,78.0,90.0,6.0,0.0
997,93.0,36.0,60.0,0.0,0.0
998,57.0,0.0,60.0,12.0,0.0
999,69.0,0.0,60.0,1.0,0.0
1000,57.0,0.0,60.0,3.0,0.0
1001,69.0,0.0,60.0,2.0,0.0
1002,81.0,0.0,60.0,2.0,0.0
1003,66.0,6.0,60.0,5.0,0.0
1004,78.0,0.0,60.0,5.0,0.0
1005,69.0,0.0,60.0,4.0,0.0
1006,68.0,0.0,60.0,11.0,0.0
1007,68.0,0.0,60.0,2.0,0.0
1008,78.0,0.0,60.0,5.0,0.0
1009,68.0,0.0,60.0,4.0,0.0
1010,56.0,0.0,60.0,12.0,0.0
1011,80.0,0.0,60.0,1.0,0.0
1012,68.0,0.0,60.0,1.0,0.0
1013,44.0,0.0,60.0,13.0,0.0
1014,92.0,0.0,60.0,0.0,0.0
1015,56.0,0.0,60.0,3.0,0.0
1016,80.0,0.0,60.0,2.0,0.0
1017,54.0,78.0,90.0,6.0,0.0
1018,66.0,6.0,60.0,5.0,0.0
1019,80.0,36.0,60.0,8.0,0.0
1020,66.0,0.0,60.0,4.0,0.0
1021,54.0,0.0,60.0,12.0,0.0
1022,78.0,0.0,60.0,1.0,0.0
1023,54.0,0.0,60.0,3.0,0.0
1024,66.0,36.0,60.0,2.0,0.0
1025,78.0,0.0,60.0,2.0,0.0
1026,78.0,0.0,60.0,8.0,0.0
1027,90.0,0.0,60.0,0.0,0.0
1028,66.0,0.0,60.0,1.0,0.0
1029,78.0,6.0,60.0,5.0,0.0
1030,54.0,120.0,90.0,6.0,0.0
1031,66.0,0.0,60.0,11.0,0.0
1032,42.0,0.0,60.0,13.0,0.0
1033,66.0,0.0,60.0,5.0,0.0
1034,73.0,0.0,90.0,4.0,0.0
1035,49.0,144.0,180.0,6.0,0.0
1036,73.0,0.0,90.0,11.0,0.0
1037,61.0,12.0,90.0,12.0,0.0
1038,61.0,84.0,120.0,5.0,0.0
1039,61.0,0.0,90.0,3.0,0.0
1040,73.0,0.0,120.0,5.0,0.0
1041,85.0,0.0,90.0,2.0,0.0
1042,73.0,0.0,90.0,2.0,0.0
1043,85.0,0.0,90.0,1.0,0.0
1044,73.0,0.0,90.0,1.0,0.0
1045,97.0,0.0,90.0,0.0,0.0
1046,49.0,0.0,90.0,13.0,0.0
1047,85.0,0.0,90.0,8.0,0.0
1048,49.0,0.0,90.0,3.0,0.0
1049,49.0,144.0,180.0,6.0,0.0
1050,71.0,0.0,90.0,11.0,0.0
1051,47.0,0.0,90.0,13.0,0.0
1052,95.0,0.0,90.0,0.0,0.0
1053,61.0,84.0,120.0,5.0,0.0
1054,83.0,0.0,90.0,8.0,0.0
1055,71.0,0.0,90.0,4.0,0.0
1056,71.0,0.0,90.0,2.0,0.0
1057,73.0,0.0,120.0,5.0,0.0
1058,47.0,0.0,90.0,3.0,0.0
1059,71.0,0.0,90.0,1.0,0.0
1060,83.0,0.0,90.0,1.0,0.0
1061,83.0,0.0,90.0,2.0,0.0
1062,59.0,0.0,90.0,3.0,0.0
1063,59.0,12.0,90.0,12.0,0.0
1064,73.0,84.0,120.0,5.0,0.0
1065,56.0,0.0,90.0,12.0,0.0
1066,92.0,0.0,90.0,0.0,0.0
1067,56.0,0.0,90.0,3.0,0.0
1068,44.0,12.0,90.0,13.0,0.0
1069,80.0,0.0,90.0,8.0,0.0
1070,68.0,0.0,90.0,11.0,0.0
1071,61.0,0.0,120.0,5.0,0.0
1072,49.0,144.0,180.0,6.0,0.0
1073,44.0,0.0,90.0,3.0,0.0
1074,68.0,0.0,90.0,4.0,0.0
1075,80.0,0.0,90.0,2.0,0.0
1076,68.0,0.0,90.0,1.0,0.0
1077,68.0,0.0,90.0,2.0,0.0
1078,80.0,0.0,90.0,1.0,0.0
1079,61.0,84.0,120.0,5.0,0.0
1080,49.0,0.0,90.0,13.0,0.0
1081,49.0,156.0,180.0,6.0,0.0
1082,73.0,0.0,90.0,2.0,0.0
1083,85.0,0.0,90.0,2.0,0.0
1084,97.0,0.0,90.0,0.0,0.0
1085,85.0,0.0,90.0,8.0,0.0
1086,73.0,0.0,120.0,5.0,0.0
1087,73.0,0.0,90.0,1.0,0.0
1088,61.0,0.0,90.0,3.0,0.0
1089,85.0,0.0,90.0,1.0,0.0
1090,73.0,0.0,90.0,4.0,0.0
1091,73.0,12.0,90.0,11.0,0.0
1092,49.0,0.0,90.0,3.0,0.0
1093,61.0,0.0,90.0,12.0,0.0
1094,66.0,300.0,300.0,12.0,0.0
1095,66.0,0.0,300.0,3.0,0.0
1096,54.0,0.0,300.0,3.0,0.0
1097,66.0,0.0,120.0,5.0,0.0
1098,78.0,84.0,120.0,5.0,0.0
1099,54.0,0.0,300.0,13.0,0.0
1100,66.0,0.0,300.0,2.0,0.0
1101,54.0,0.0,300.0,4.0,0.0
1102,66.0,0.0,300.0,1.0,0.0
1103,66.0,0.0,300.0,4.0,0.0
1104,66.0,0.0,300.0,11.0,0.0
1105,90.0,0.0,300.0,0.0,0.0
1106,78.0,0.0,300.0,8.0,0.0
1107,66.0,0.0,300.0,10.0,0.0
1108,78.0,0.0,300.0,2.0,0.0
1109,78.0,0.0,300.0,1.0,0.0
1110,54.0,96.0,180.0,6.0,0.0
1111,61.0,0.0,120.0,5.0,0.0
1112,68.0,0.0,300.0,10.0,0.0
1113,77.0,0.0,300.0,1.0,0.0
1114,61.0,0.0,300.0,12.0,0.0
1115,65.0,0.0,300.0,10.0,0.0
1116,49.0,96.0,180.0,6.0,0.0
1117,80.0,0.0,300.0,1.0,0.0
1118,73.0,84.0,120.0,5.0,0.0
1119,92.0,0.0,300.0,0.0,0.0
1120,80.0,0.0,300.0,8.0,0.0
1121,68.0,0.0,300.0,4.0,0.0
1122,73.0,0.0,300.0,8.0,0.0
1123,61.0,0.0,300.0,11.0,0.0
1124,49.0,0.0,300.0,3.0,0.0
1125,61.0,0.0,300.0,3.0,0.0
1126,61.0,0.0,300.0,4.0,0.0
1127,49.0,0.0,300.0,13.0,0.0
1128,73.0,0.0,300.0,11.0,0.0
1129,65.0,0.0,300.0,2.0,0.0
1130,68.0,0.0,300.0,2.0,0.0
1131,89.0,300.0,300.0,0.0,0.0
1132,66.0,0.0,300.0,2.0,0.0
1133,93.0,0.0,300.0,0.0,0.0
1134,90.0,0.0,300.0,0.0,0.0
1135,73.0,0.0,300.0,10.0,0.0
1136,69.0,0.0,300.0,2.0,0.0
1137,54.0,0.0,300.0,12.0,0.0
1138,66.0,84.0,120.0,5.0,0.0
1139,78.0,0.0,120.0,5.0,0.0
1140,54.0,0.0,300.0,11.0,0.0
1141,66.0,0.0,300.0,11.0,0.0
1142,54.0,0.0,300.0,4.0,0.0
1143,42.0,0.0,300.0,13.0,0.0
1144,54.0,96.0,180.0,6.0,0.0
1145,66.0,0.0,300.0,10.0,0.0
1146,81.0,0.0,300.0,1.0,0.0
1147,78.0,0.0,300.0,1.0,0.0
1148,54.0,0.0,300.0,3.0,0.0
1149,66.0,780.0,300.0,4.0,0.0
1150,73.0,0.0,300.0,8.0,0.0
1151,42.0,0.0,300.0,3.0,0.0
1152,81.0,0.0,300.0,8.0,0.0
1153,83.0,0.0,300.0,8.0,0.0
1154,74.0,0.0,300.0,8.0,0.0
1155,59.0,0.0,300.0,3.0,0.0
1156,71.0,0.0,300.0,3.0,0.0
1157,95.0,0.0,300.0,0.0,0.0
1158,83.0,0.0,300.0,1.0,0.0
1159,74.0,300.0,300.0,1.0,0.0
1160,66.0,0.0,300.0,4.0,0.0
1161,47.0,0.0,300.0,13.0,0.0
1162,54.0,0.0,300.0,4.0,0.0
1163,54.0,96.0,180.0,6.0,0.0
1164,71.0,0.0,300.0,2.0,0.0
1165,59.0,0.0,300.0,11.0,0.0
1166,71.0,0.0,300.0,11.0,0.0
1167,62.0,0.0,300.0,2.0,0.0
1168,71.0,0.0,300.0,10.0,0.0
1169,59.0,0.0,300.0,12.0,0.0
1170,66.0,0.0,300.0,10.0,0.0
1171,78.0,84.0,120.0,5.0,0.0
1172,66.0,0.0,120.0,5.0,0.0
1173,61.0,0.0,300.0,3.0,0.0
1174,66.0,0.0,300.0,4.0,0.0
1175,54.0,0.0,300.0,4.0,0.0
1176,73.0,0.0,300.0,10.0,0.0
1177,70.0,0.0,300.0,10.0,0.0
1178,66.0,84.0,120.0,5.0,0.0
1179,78.0,0.0,120.0,5.0,0.0
1180,42.0,0.0,300.0,13.0,0.0
1181,54.0,96.0,180.0,6.0,0.0
1182,78.0,0.0,300.0,11.0,0.0
1183,94.0,0.0,300.0,0.0,0.0
1184,97.0,0.0,300.0,0.0,0.0
1185,85.0,0.0,300.0,1.0,0.0
1186,54.0,0.0,300.0,12.0,0.0
1187,85.0,0.0,300.0,8.0,0.0
1188,82.0,300.0,300.0,1.0,0.0
1189,66.0,0.0,300.0,11.0,0.0
1190,78.0,0.0,300.0,8.0,0.0
1191,73.0,0.0,300.0,2.0,0.0
1192,58.0,0.0,300.0,3.0,0.0
1193,70.0,0.0,300.0,2.0,0.0
1194,71.0,0.0,240.0,11.0,0.0
1195,59.0,0.0,240.0,11.0,0.0
1196,54.0,34.0,180.0,6.0,0.0
1197,74.0,122.0,2160.0,2.0,0.0
1198,66.0,84.0,120.0,5.0,0.0
1199,47.0,224.0,240.0,12.0,0.0
1200,71.0,34.0,2100.0,4.0,0.0
1201,59.0,0.0,1410.0,3.0,0.0
1202,71.0,0.0,2160.0,2.0,0.0
1203,83.0,84.0,2040.0,10.0,0.0
1204,86.0,180.0,1620.0,8.0,0.0
1205,83.0,0.0,2160.0,1.0,0.0
1206,86.0,960.0,450.0,0.0,0.0
1207,35.0,0.0,240.0,13.0,0.0
1208,74.0,0.0,2040.0,10.0,0.0
1209,83.0,0.0,450.0,0.0,0.0
1210,62.0,198.0,1410.0,3.0,0.0
1211,83.0,0.0,120.0,5.0,0.0
1212,86.0,0.0,2160.0,1.0,0.0
1213,43.0,0.0,1800.0,13.0,0.0
1214,59.0,0.0,1800.0,11.0,0.0
1215,71.0,0.0,1800.0,11.0,0.0
1216,55.0,0.0,1800.0,12.0,0.0
1217,95.0,0.0,1680.0,0.0,0.0
1218,86.0,0.0,1680.0,0.0,0.0
1219,62.0,0.0,1680.0,4.0,0.0
1220,61.0,0.0,120.0,3.0,0.0
1221,85.0,240.0,120.0,8.0,0.0
1222,83.0,0.0,120.0,8.0,0.0
1223,59.0,0.0,120.0,3.0,0.0
1224,86.0,0.0,180.0,0.0,0.0
1225,74.0,84.0,120.0,11.0,0.0
1226,55.0,0.0,120.0,12.0,0.0
1227,71.0,0.0,180.0,2.0,0.0
1228,43.0,0.0,120.0,13.0,0.0
1229,71.0,34.0,180.0,4.0,0.0
1230,57.0,0.0,120.0,3.0,0.0
1231,69.0,0.0,120.0,3.0,0.0
1232,62.0,122.0,240.0,4.0,0.0
1233,86.0,0.0,180.0,1.0,0.0
1234,59.0,0.0,120.0,10.0,0.0
1235,74.0,0.0,180.0,2.0,0.0
1236,93.0,0.0,180.0,0.0,0.0
1237,81.0,0.0,120.0,8.0,0.0
1238,81.0,0.0,180.0,1.0,0.0
1239,55.0,0.0,120.0,3.0,0.0
1240,67.0,0.0,120.0,3.0,0.0
1241,74.0,0.0,180.0,2.0,0.0
1242,74.0,0.0,120.0,11.0,0.0
1243,71.0,34.0,180.0,4.0,0.0
1244,79.0,0.0,180.0,1.0,0.0
1245,86.0,0.0,180.0,0.0,0.0
1246,91.0,0.0,180.0,0.0,0.0
1247,79.0,0.0,120.0,8.0,0.0
1248,71.0,0.0,180.0,2.0,0.0
1249,59.0,84.0,120.0,10.0,0.0
1250,43.0,0.0,120.0,13.0,0.0
1251,62.0,122.0,240.0,4.0,0.0
1252,55.0,0.0,120.0,12.0,0.0
1253,86.0,0.0,180.0,1.0,0.0
1254,55.0,84.0,120.0,12.0,0.0
1255,54.0,0.0,120.0,3.0,0.0
1256,66.0,0.0,120.0,3.0,0.0
1257,71.0,0.0,120.0,10.0,0.0
1258,74.0,0.0,180.0,2.0,0.0
1259,71.0,0.0,180.0,2.0,0.0
1260,62.0,122.0,240.0,4.0,0.0
1261,86.0,34.0,180.0,1.0,0.0
1262,78.0,0.0,180.0,1.0,0.0
1263,71.0,0.0,180.0,4.0,0.0
1264,90.0,0.0,180.0,0.0,0.0
1265,59.0,0.0,120.0,11.0,0.0
1266,86.0,0.0,180.0,0.0,0.0
1267,78.0,0.0,120.0,8.0,0.0
1268,43.0,0.0,120.0,13.0,0.0
1269,56.0,0.0,120.0,12.0,0.0
1270,71.0,0.0,180.0,4.0,0.0
1271,77.0,84.0,120.0,8.0,0.0
1272,44.0,0.0,120.0,13.0,0.0
1273,59.0,0.0,120.0,11.0,0.0
1274,71.0,0.0,180.0,2.0,0.0
1275,74.0,0.0,180.0,2.0,0.0
1276,89.0,34.0,180.0,0.0,0.0
1277,86.0,0.0,180.0,0.0,0.0
1278,53.0,0.0,120.0,3.0,0.0
1279,77.0,0.0,180.0,1.0,0.0
1280,62.0,96.0,240.0,4.0,0.0
1281,65.0,0.0,120.0,3.0,0.0
1282,86.0,0.0,180.0,1.0,0.0
1283,74.0,0.0,120.0,10.0,0.0
1284,71.0,0.0,120.0,10.0,0.0
1285,49.0,84.0,150.0,6.0,0.0
1286,73.0,62.0,90.0,5.0,0.0
1287,61.0,0.0,90.0,5.0,0.0
1288,61.0,0.0,60.0,5.0,0.0
1289,49.0,96.0,60.0,6.0,0.0
1290,73.0,0.0,60.0,5.0,0.0
1291,73.0,0.0,90.0,5.0,0.0
1292,49.0,132.0,180.0,6.0,0.0
1293,61.0,108.0,90.0,5.0,0.0
1294,73.0,0.0,90.0,5.0,0.0
1295,49.0,132.0,180.0,6.0,0.0
1296,61.0,108.0,90.0,5.0,0.0
1297,73.0,24.0,90.0,5.0,0.0
1298,61.0,0.0,90.0,5.0,0.0
1299,59.0,0.0,480.0,3.0,0.0
1300,92.0,0.0,480.0,0.0,0.0
1301,61.0,132.0,780.0,4.0,0.0
1302,49.0,0.0,120.0,12.0,0.0
1303,37.0,84.0,120.0,13.0,0.0
1304,95.0,0.0,480.0,0.0,0.0
1305,49.0,0.0,780.0,4.0,0.0
1306,56.0,0.0,120.0,11.0,0.0
1307,77.0,0.0,120.0,8.0,0.0
1308,49.0,288.0,180.0,6.0,0.0
1309,71.0,288.0,480.0,2.0,0.0
1310,80.0,0.0,480.0,1.0,0.0
1311,83.0,0.0,480.0,1.0,0.0
1312,65.0,0.0,120.0,10.0,0.0
1313,59.0,0.0,120.0,11.0,0.0
1314,53.0,0.0,420.0,3.0,0.0
1315,56.0,0.0,15.0,3.0,0.0
1316,68.0,0.0,15.0,2.0,0.0
1317,65.0,0.0,420.0,2.0,0.0
1318,92.0,0.0,420.0,0.0,0.0
1319,89.0,0.0,420.0,0.0,0.0
1320,77.0,0.0,420.0,1.0,0.0
1321,80.0,0.0,420.0,1.0,0.0
1322,54.0,0.0,60.0,3.0,0.0
1323,57.0,0.0,60.0,3.0,0.0
1324,78.0,0.0,60.0,1.0,0.0
1325,81.0,0.0,60.0,1.0,0.0
1326,93.0,0.0,60.0,0.0,0.0
1327,90.0,0.0,60.0,0.0,0.0
1328,66.0,0.0,60.0,2.0,0.0
1329,69.0,96.0,60.0,2.0,0.0
1330,49.0,0.0,180.0,6.0,0.0
1331,73.0,0.0,120.0,10.0,0.0
1332,78.0,0.0,120.0,11.0,0.0
1333,69.0,0.0,120.0,11.0,0.0
1334,61.0,84.0,120.0,11.0,0.0
1335,93.0,0.0,180.0,0.0,0.0
1336,81.0,0.0,180.0,1.0,0.0
1337,78.0,0.0,180.0,1.0,0.0
1338,66.0,0.0,120.0,10.0,0.0
1339,90.0,0.0,180.0,0.0,0.0
1340,37.0,0.0,120.0,13.0,0.0
1341,81.0,0.0,120.0,8.0,0.0
1342,61.0,96.0,240.0,4.0,0.0
1343,49.0,0.0,240.0,4.0,0.0
1344,54.0,0.0,180.0,3.0,0.0
1345,57.0,0.0,180.0,3.0,0.0
1346,73.0,24.0,90.0,5.0,0.0
1347,61.0,0.0,90.0,5.0,0.0
1348,69.0,0.0,180.0,2.0,0.0
1349,66.0,34.0,180.0,2.0,0.0
1350,49.0,0.0,120.0,12.0,0.0
1351,49.0,84.0,150.0,6.0,0.0
1352,61.0,62.0,90.0,5.0,0.0
1353,73.0,0.0,90.0,5.0,0.0
1354,61.0,96.0,60.0,5.0,0.0
1355,73.0,0.0,60.0,5.0,0.0
1356,49.0,0.0,60.0,6.0,0.0
1357,73.0,0.0,90.0,5.0,0.0
1358,61.0,108.0,90.0,5.0,0.0
1359,49.0,132.0,180.0,6.0,0.0
1360,49.0,132.0,180.0,6.0,0.0
1361,61.0,108.0,90.0,5.0,0.0
1362,73.0,0.0,90.0,5.0,0.0
1363,85.0,288.0,480.0,1.0,0.0
1364,49.0,288.0,180.0,6.0,0.0
1365,61.0,24.0,90.0,5.0,0.0
1366,73.0,0.0,90.0,5.0,0.0
1367,69.0,0.0,480.0,2.0,0.0
1368,81.0,0.0,480.0,1.0,0.0
1369,49.0,0.0,780.0,4.0,0.0
1370,97.0,0.0,480.0,0.0,0.0
1371,73.0,0.0,120.0,8.0,0.0
1372,61.0,0.0,480.0,3.0,0.0
1373,49.0,84.0,120.0,12.0,0.0
1374,57.0,0.0,480.0,3.0,0.0
1375,61.0,132.0,780.0,4.0,0.0
1376,69.0,0.0,120.0,10.0,0.0
1377,61.0,0.0,120.0,11.0,0.0
1378,37.0,0.0,120.0,13.0,0.0
1379,73.0,0.0,480.0,2.0,0.0
1380,66.0,0.0,120.0,11.0,0.0
1381,69.0,0.0,420.0,2.0,0.0
1382,66.0,0.0,420.0,2.0,0.0
1383,57.0,0.0,420.0,3.0,0.0
1384,54.0,48.0,420.0,3.0,0.0
1385,90.0,0.0,420.0,0.0,0.0
1386,93.0,0.0,15.0,0.0,0.0
1387,81.0,0.0,420.0,1.0,0.0
1388,78.0,0.0,420.0,1.0,0.0
1389,83.0,0.0,60.0,1.0,0.0
1390,71.0,0.0,60.0,2.0,0.0
1391,68.0,0.0,60.0,2.0,0.0
1392,92.0,96.0,60.0,0.0,0.0
1393,56.0,0.0,60.0,3.0,0.0
1394,80.0,0.0,60.0,1.0,0.0
1395,59.0,0.0,60.0,3.0,0.0
1396,95.0,0.0,60.0,0.0,0.0
1397,68.0,0.0,120.0,11.0,0.0
1398,68.0,0.0,120.0,10.0,0.0
1399,49.0,0.0,180.0,6.0,0.0
1400,80.0,0.0,180.0,1.0,0.0
1401,71.0,0.0,240.0,4.0,0.0
1402,68.0,338.0,240.0,4.0,0.0
1403,73.0,0.0,90.0,5.0,0.0
1404,61.0,24.0,90.0,5.0,0.0
1405,71.0,0.0,180.0,2.0,0.0
1406,68.0,0.0,180.0,2.0,0.0
1407,61.0,0.0,120.0,11.0,0.0
1408,65.0,0.0,120.0,11.0,0.0
1409,83.0,0.0,120.0,8.0,0.0
1410,77.0,0.0,120.0,10.0,0.0
1411,59.0,0.0,180.0,3.0,0.0
1412,56.0,0.0,180.0,3.0,0.0
1413,83.0,0.0,180.0,1.0,0.0
1414,37.0,0.0,120.0,13.0,0.0
1415,95.0,34.0,180.0,0.0,0.0
1416,92.0,0.0,180.0,0.0,0.0
1417,49.0,84.0,120.0,12.0,0.0
1418,59.0,0.0,720.0,12.0,0.0
1419,49.0,528.0,180.0,6.0,0.0
1420,61.0,108.0,90.0,5.0,0.0
1421,92.0,0.0,720.0,0.0,0.0
1422,80.0,0.0,720.0,1.0,0.0
1423,73.0,0.0,90.0,5.0,0.0
1424,50.0,0.0,720.0,4.0,0.0
1425,62.0,0.0,720.0,4.0,0.0
1426,77.0,0.0,720.0,10.0,0.0
1427,89.0,0.0,720.0,1.0,0.0
1428,89.0,0.0,720.0,0.0,0.0
1429,62.0,0.0,720.0,11.0,0.0
1430,80.0,0.0,720.0,10.0,0.0
1431,86.0,0.0,720.0,8.0,0.0
1432,47.0,0.0,720.0,3.0,0.0
1433,47.0,0.0,720.0,13.0,0.0
1434,59.0,0.0,720.0,3.0,0.0
1435,68.0,324.0,720.0,4.0,0.0
1436,86.0,0.0,720.0,2.0,0.0
1437,74.0,0.0,720.0,2.0,0.0
1438,48.0,0.0,720.0,3.0,0.0
1439,81.0,0.0,720.0,1.0,0.0
1440,90.0,0.0,720.0,1.0,0.0
1441,60.0,0.0,720.0,12.0,0.0
1442,60.0,0.0,720.0,3.0,0.0
1443,90.0,0.0,720.0,8.0,0.0
1444,54.0,528.0,180.0,6.0,0.0
1445,78.0,0.0,720.0,10.0,0.0
1446,78.0,0.0,90.0,5.0,0.0
1447,69.0,0.0,720.0,4.0,0.0
1448,93.0,0.0,720.0,0.0,0.0
1449,57.0,0.0,720.0,4.0,0.0
1450,63.0,0.0,720.0,11.0,0.0
1451,87.0,0.0,720.0,2.0,0.0
1452,81.0,348.0,720.0,10.0,0.0
1453,90.0,0.0,720.0,0.0,0.0
1454,48.0,0.0,720.0,13.0,0.0
1455,75.0,0.0,720.0,2.0,0.0
1456,66.0,0.0,720.0,4.0,0.0
1457,66.0,108.0,90.0,5.0,0.0
1458,90.0,0.0,120.0,0.0,0.0
1459,49.0,528.0,180.0,6.0,0.0
1460,61.0,24.0,1050.0,11.0,0.0
1461,81.0,0.0,1020.0,10.0,0.0
1462,78.0,0.0,1020.0,10.0,0.0
1463,81.0,0.0,120.0,2.0,0.0
1464,66.0,12.0,120.0,8.0,0.0
1465,81.0,0.0,120.0,8.0,0.0
1466,73.0,0.0,120.0,8.0,0.0
1467,61.0,32.0,1020.0,12.0,0.0
1468,78.0,0.0,120.0,2.0,0.0
1469,73.0,0.0,1050.0,11.0,0.0
1470,93.0,0.0,120.0,0.0,0.0
1471,66.0,0.0,120.0,4.0,0.0
1472,66.0,0.0,120.0,5.0,0.0
1473,81.0,0.0,120.0,1.0,0.0
1474,49.0,304.0,720.0,13.0,0.0
1475,86.0,0.0,120.0,1.0,0.0
1476,61.0,0.0,720.0,3.0,0.0
1477,78.0,0.0,120.0,5.0,0.0
1478,57.0,72.0,120.0,4.0,0.0
1479,69.0,0.0,120.0,4.0,0.0
1480,49.0,0.0,720.0,3.0,0.0
1481,73.0,0.0,900.0,2.0,0.0
1482,85.0,0.0,900.0,2.0,0.0
1483,81.0,32.0,1140.0,1.0,0.0
1484,90.0,0.0,1140.0,1.0,0.0
1485,61.0,0.0,900.0,5.0,0.0
1486,85.0,0.0,1350.0,0.0,0.0
1487,97.0,36.0,1350.0,0.0,0.0
1488,73.0,44.0,900.0,5.0,0.0
1489,61.0,0.0,900.0,4.0,0.0
1490,85.0,24.0,600.0,8.0,0.0
1491,73.0,0.0,900.0,4.0,0.0
1492,49.0,0.0,180.0,3.0,0.0
1493,37.0,32.0,180.0,13.0,0.0
1494,54.0,0.0,60.0,12.0,0.0
1495,49.0,0.0,180.0,6.0,0.0
1496,73.0,24.0,60.0,10.0,0.0
1497,61.0,0.0,60.0,12.0,0.0
1498,66.0,0.0,60.0,10.0,0.0
1499,54.0,0.0,60.0,12.0,0.0
1500,86.0,12.0,60.0,8.0,0.0
1501,74.0,12.0,60.0,11.0,0.0
1502,54.0,0.0,60.0,12.0,0.0
1503,61.0,4.0,60.0,12.0,0.0
1504,73.0,0.0,60.0,10.0,0.0
1505,66.0,0.0,60.0,10.0,0.0
1506,85.0,48.0,60.0,8.0,0.0
1507,73.0,12.0,60.0,11.0,0.0
1508,71.0,12.0,60.0,11.0,0.0
1509,73.0,0.0,60.0,10.0,0.0
1510,66.0,0.0,60.0,10.0,0.0
1511,83.0,4.0,60.0,8.0,0.0
1512,61.0,44.0,60.0,12.0,0.0
1513,54.0,0.0,60.0,12.0,0.0
1514,81.0,24.0,60.0,8.0,0.0
1515,69.0,12.0,60.0,11.0,0.0
1516,54.0,0.0,60.0,12.0,0.0
1517,73.0,0.0,60.0,10.0,0.0
1518,61.0,24.0,60.0,12.0,0.0
1519,66.0,0.0,60.0,10.0,0.0
1520,68.0,12.0,60.0,11.0,0.0
1521,80.0,0.0,60.0,8.0,0.0
1522,54.0,4.0,60.0,12.0,0.0
1523,66.0,0.0,60.0,10.0,0.0
1524,73.0,0.0,60.0,10.0,0.0
1525,61.0,0.0,60.0,12.0,0.0
1526,78.0,60.0,60.0,8.0,0.0
1527,66.0,12.0,60.0,11.0,0.0
1528,61.0,0.0,60.0,12.0,0.0
1529,61.0,0.0,12930.0,4.0,0.0
1530,54.0,0.0,180.0,6.0,0.0
1531,54.0,24.0,570.0,3.0,0.0
1532,73.0,0.0,60.0,10.0,0.0
1533,66.0,0.0,60.0,10.0,0.0
1534,54.0,56.0,60.0,12.0,0.0
1535,66.0,0.0,15270.0,2.0,0.0
1536,73.0,14.0,12930.0,2.0,0.0
1537,42.0,0.0,180.0,13.0,0.0
1538,77.0,4.0,60.0,8.0,0.0
1539,65.0,0.0,60.0,11.0,0.0
1540,66.0,24.0,60.0,11.0,0.0
1541,78.0,0.0,60.0,8.0,0.0
1542,54.0,0.0,60.0,12.0,0.0
1543,73.0,0.0,60.0,10.0,0.0
1544,61.0,36.0,60.0,12.0,0.0
1545,66.0,0.0,60.0,10.0,0.0
1546,76.0,12.0,60.0,8.0,0.0
1547,64.0,0.0,60.0,11.0,0.0
1548,61.0,0.0,60.0,12.0,0.0
1549,54.0,16.0,60.0,12.0,0.0
1550,73.0,0.0,60.0,10.0,0.0
1551,66.0,0.0,60.0,10.0,0.0
1552,62.0,0.0,60.0,11.0,0.0
1553,74.0,60.0,60.0,8.0,0.0
1554,61.0,0.0,60.0,12.0,0.0
1555,66.0,0.0,60.0,10.0,0.0
1556,73.0,56.0,60.0,10.0,0.0
1557,54.0,0.0,60.0,12.0,0.0
1558,61.0,0.0,60.0,11.0,0.0
1559,73.0,4.0,60.0,8.0,0.0
1560,59.0,0.0,60.0,11.0,0.0
1561,71.0,24.0,60.0,8.0,0.0
1562,73.0,0.0,60.0,10.0,0.0
1563,54.0,0.0,60.0,12.0,0.0
1564,61.0,0.0,60.0,12.0,0.0
1565,66.0,0.0,60.0,10.0,0.0
1566,69.0,44.0,60.0,8.0,0.0
1567,57.0,0.0,60.0,11.0,0.0
1568,66.0,0.0,60.0,10.0,0.0
1569,73.0,0.0,60.0,10.0,0.0
1570,61.0,0.0,60.0,12.0,0.0
1571,54.0,16.0,60.0,12.0,0.0
1572,56.0,64.0,60.0,11.0,0.0
1573,68.0,0.0,60.0,8.0,0.0
1574,66.0,24.0,120.0,5.0,0.0
1575,54.0,32.0,60.0,12.0,0.0
1576,54.0,0.0,120.0,11.0,0.0
1577,66.0,0.0,60.0,10.0,0.0
1578,66.0,32.0,180.0,0.0,0.0
1579,61.0,0.0,60.0,12.0,0.0
1580,73.0,0.0,60.0,10.0,0.0
1581,66.0,0.0,120.0,8.0,0.0
1582,54.0,48.0,60.0,12.0,0.0
1583,66.0,0.0,60.0,10.0,0.0
1584,73.0,0.0,60.0,10.0,0.0
1585,61.0,0.0,60.0,12.0,0.0
1586,54.0,0.0,60.0,12.0,0.0
1587,73.0,0.0,60.0,10.0,0.0
1588,66.0,80.0,60.0,10.0,0.0
1589,61.0,0.0,60.0,12.0,0.0
1590,54.0,0.0,60.0,12.0,0.0
1591,73.0,80.0,60.0,10.0,0.0
1592,66.0,0.0,60.0,10.0,0.0
1593,61.0,0.0,60.0,12.0,0.0
1594,66.0,80.0,60.0,10.0,0.0
1595,73.0,0.0,60.0,10.0,0.0
1596,61.0,0.0,60.0,12.0,0.0
1597,54.0,0.0,60.0,12.0,0.0
1598,54.0,0.0,60.0,12.0,0.0
1599,61.0,80.0,60.0,12.0,0.0
1600,66.0,0.0,60.0,10.0,0.0
1601,73.0,0.0,60.0,10.0,0.0
1602,54.0,0.0,60.0,12.0,0.0
1603,66.0,80.0,60.0,10.0,0.0
1604,73.0,0.0,60.0,10.0,0.0
1605,61.0,0.0,60.0,12.0,0.0
1606,54.0,0.0,60.0,12.0,0.0
1607,73.0,0.0,60.0,10.0,0.0
1608,66.0,0.0,60.0,10.0,0.0
1609,61.0,80.0,60.0,12.0,0.0
1610,73.0,0.0,60.0,10.0,0.0
1611,66.0,0.0,60.0,10.0,0.0
1612,54.0,80.0,60.0,12.0,0.0
1613,61.0,0.0,60.0,12.0,0.0
1614,61.0,80.0,60.0,12.0,0.0
1615,73.0,0.0,60.0,10.0,0.0
1616,54.0,0.0,60.0,12.0,0.0
1617,66.0,0.0,60.0,10.0,0.0
1618,66.0,0.0,60.0,10.0,0.0
1619,73.0,0.0,60.0,10.0,0.0
1620,61.0,80.0,60.0,12.0,0.0
1621,54.0,0.0,60.0,12.0,0.0
1622,54.0,0.0,60.0,12.0,0.0
1623,61.0,80.0,60.0,12.0,0.0
1624,73.0,0.0,60.0,10.0,0.0
1625,66.0,0.0,60.0,10.0,0.0
1626,61.0,0.0,60.0,12.0,0.0
1627,54.0,0.0,60.0,12.0,0.0
1628,66.0,80.0,60.0,10.0,0.0
1629,73.0,0.0,60.0,10.0,0.0
1630,61.0,0.0,60.0,12.0,0.0
1631,54.0,0.0,60.0,12.0,0.0
1632,73.0,0.0,60.0,10.0,0.0
1633,66.0,80.0,60.0,10.0,0.0
1634,61.0,0.0,60.0,12.0,0.0
1635,66.0,80.0,60.0,10.0,0.0
1636,73.0,0.0,60.0,10.0,0.0
1637,54.0,0.0,60.0,12.0,0.0
1638,73.0,80.0,60.0,10.0,0.0
1639,66.0,0.0,60.0,10.0,0.0
1640,54.0,0.0,60.0,12.0,0.0
1641,61.0,0.0,60.0,12.0,0.0
1642,61.0,80.0,60.0,12.0,0.0
1643,54.0,0.0,60.0,12.0,0.0
1644,73.0,0.0,60.0,10.0,0.0
1645,66.0,0.0,60.0,10.0,0.0
1646,73.0,0.0,60.0,10.0,0.0
1647,66.0,0.0,60.0,10.0,0.0
1648,61.0,4.0,60.0,12.0,0.0
1649,54.0,0.0,60.0,12.0,0.0
1650,78.0,76.0,60.0,8.0,0.0
1651,73.0,0.0,60.0,10.0,0.0
1652,73.0,0.0,390.0,8.0,0.0
1653,66.0,80.0,60.0,10.0,0.0
1654,54.0,0.0,60.0,12.0,0.0
1655,61.0,0.0,60.0,12.0,0.0
1656,54.0,0.0,60.0,12.0,0.0
1657,66.0,80.0,60.0,10.0,0.0
1658,73.0,0.0,60.0,10.0,0.0
1659,61.0,0.0,60.0,12.0,0.0
1660,54.0,0.0,60.0,12.0,0.0
1661,73.0,0.0,60.0,10.0,0.0
1662,61.0,0.0,60.0,12.0,0.0
1663,66.0,80.0,60.0,10.0,0.0
1664,66.0,0.0,60.0,10.0,0.0
1665,73.0,80.0,60.0,10.0,0.0
1666,61.0,0.0,60.0,12.0,0.0
1667,54.0,0.0,60.0,12.0,0.0
1668,61.0,0.0,60.0,12.0,0.0
1669,66.0,0.0,60.0,10.0,0.0
1670,73.0,80.0,60.0,10.0,0.0
1671,54.0,0.0,60.0,12.0,0.0
1672,73.0,0.0,60.0,10.0,0.0
1673,61.0,0.0,60.0,12.0,0.0
1674,54.0,0.0,60.0,12.0,0.0
1675,66.0,80.0,60.0,10.0,0.0
1676,54.0,0.0,60.0,12.0,0.0
1677,61.0,80.0,60.0,12.0,0.0
1678,73.0,0.0,60.0,10.0,0.0
1679,66.0,0.0,60.0,10.0,0.0
1680,54.0,0.0,60.0,12.0,0.0
1681,61.0,0.0,60.0,12.0,0.0
1682,66.0,80.0,60.0,10.0,0.0
1683,73.0,0.0,60.0,10.0,0.0
1684,66.0,0.0,60.0,10.0,0.0
1685,54.0,80.0,60.0,12.0,0.0
1686,73.0,0.0,60.0,10.0,0.0
1687,61.0,0.0,60.0,12.0,0.0
1688,54.0,0.0,60.0,12.0,0.0
1689,73.0,0.0,60.0,10.0,0.0
1690,66.0,80.0,60.0,10.0,0.0
1691,61.0,0.0,60.0,12.0,0.0
1692,54.0,0.0,60.0,12.0,0.0
1693,66.0,0.0,60.0,10.0,0.0
1694,61.0,80.0,60.0,12.0,0.0
1695,73.0,0.0,60.0,10.0,0.0
1696,66.0,0.0,60.0,10.0,0.0
1697,61.0,4.0,60.0,12.0,0.0
1698,54.0,0.0,60.0,12.0,0.0
1699,73.0,0.0,60.0,10.0,0.0
1700,73.0,76.0,60.0,8.0,0.0
1701,66.0,0.0,60.0,10.0,0.0
1702,73.0,80.0,60.0,10.0,0.0
1703,54.0,0.0,60.0,12.0,0.0
1704,61.0,0.0,60.0,12.0,0.0
1705,66.0,80.0,390.0,8.0,0.0
1706,66.0,0.0,60.0,10.0,0.0
1707,61.0,80.0,60.0,12.0,0.0
1708,54.0,0.0,60.0,12.0,0.0
1709,73.0,0.0,60.0,10.0,0.0
1710,61.0,0.0,60.0,12.0,0.0
1711,73.0,0.0,60.0,10.0,0.0
1712,66.0,80.0,60.0,10.0,0.0
1713,54.0,0.0,60.0,12.0,0.0
1714,54.0,0.0,60.0,12.0,0.0
1715,61.0,0.0,60.0,12.0,0.0
1716,66.0,80.0,60.0,10.0,0.0
1717,73.0,0.0,60.0,10.0,0.0
1718,54.0,0.0,60.0,12.0,0.0
1719,61.0,0.0,60.0,12.0,0.0
1720,66.0,0.0,60.0,10.0,0.0
1721,73.0,0.0,60.0,10.0,0.0
1722,66.0,80.0,60.0,10.0,0.0
1723,73.0,0.0,60.0,10.0,0.0
1724,54.0,0.0,60.0,12.0,0.0
1725,61.0,0.0,60.0,12.0,0.0
1726,66.0,0.0,60.0,10.0,0.0
1727,73.0,0.0,60.0,10.0,0.0
1728,61.0,0.0,60.0,12.0,0.0
1729,54.0,80.0,60.0,12.0,0.0
1730,73.0,0.0,60.0,10.0,0.0
1731,66.0,0.0,60.0,10.0,0.0
1732,54.0,80.0,60.0,12.0,0.0
1733,61.0,0.0,60.0,12.0,0.0
1734,61.0,0.0,60.0,12.0,0.0
1735,54.0,0.0,60.0,12.0,0.0
1736,73.0,80.0,60.0,10.0,0.0
1737,66.0,0.0,60.0,10.0,0.0
1738,54.0,80.0,60.0,12.0,0.0
1739,61.0,0.0,60.0,12.0,0.0
1740,73.0,0.0,60.0,10.0,0.0
1741,66.0,0.0,60.0,10.0,0.0
1742,54.0,0.0,60.0,12.0,0.0
1743,66.0,80.0,60.0,10.0,0.0
1744,73.0,0.0,60.0,10.0,0.0
1745,61.0,0.0,60.0,12.0,0.0
1746,73.0,0.0,60.0,10.0,0.0
1747,54.0,0.0,60.0,12.0,0.0
1748,61.0,0.0,60.0,12.0,0.0
1749,66.0,4.0,60.0,10.0,0.0
1750,49.0,76.0,60.0,13.0,0.0
1751,61.0,0.0,60.0,11.0,0.0
1752,73.0,0.0,60.0,10.0,0.0
1753,66.0,0.0,60.0,10.0,0.0
1754,42.0,0.0,390.0,13.0,0.0
1755,54.0,0.0,390.0,11.0,0.0
1756,61.0,0.0,60.0,12.0,0.0
1757,54.0,80.0,60.0,12.0,0.0
1758,73.0,0.0,60.0,10.0,0.0
1759,54.0,80.0,60.0,12.0,0.0
1760,61.0,0.0,60.0,12.0,0.0
1761,66.0,0.0,60.0,10.0,0.0
1762,66.0,0.0,60.0,10.0,0.0
1763,73.0,0.0,60.0,10.0,0.0
1764,54.0,80.0,60.0,12.0,0.0
1765,61.0,0.0,60.0,12.0,0.0
1766,61.0,0.0,60.0,12.0,0.0
1767,54.0,0.0,60.0,12.0,0.0
1768,66.0,0.0,60.0,10.0,0.0
1769,73.0,80.0,60.0,10.0,0.0
1770,66.0,0.0,60.0,10.0,0.0
1771,61.0,0.0,60.0,12.0,0.0
1772,54.0,0.0,60.0,12.0,0.0
1773,73.0,80.0,60.0,10.0,0.0
1774,54.0,0.0,60.0,12.0,0.0
1775,66.0,0.0,60.0,10.0,0.0
1776,73.0,80.0,60.0,10.0,0.0
1777,61.0,0.0,60.0,12.0,0.0
1778,66.0,80.0,60.0,10.0,0.0
1779,73.0,0.0,60.0,10.0,0.0
1780,61.0,0.0,60.0,12.0,0.0
1781,54.0,0.0,60.0,12.0,0.0
1782,54.0,0.0,60.0,12.0,0.0
1783,61.0,0.0,60.0,12.0,0.0
1784,66.0,80.0,60.0,10.0,0.0
1785,73.0,0.0,60.0,10.0,0.0
1786,66.0,0.0,60.0,10.0,0.0
1787,73.0,0.0,60.0,10.0,0.0
1788,54.0,80.0,60.0,12.0,0.0
1789,61.0,0.0,60.0,12.0,0.0
1790,61.0,0.0,60.0,12.0,0.0
1791,54.0,80.0,60.0,12.0,0.0
1792,73.0,0.0,60.0,10.0,0.0
1793,66.0,0.0,60.0,10.0,0.0
1794,54.0,0.0,60.0,12.0,0.0
1795,73.0,0.0,60.0,10.0,0.0
1796,61.0,0.0,60.0,12.0,0.0
1797,66.0,80.0,60.0,10.0,0.0
1798,66.0,0.0,60.0,10.0,0.0
1799,73.0,80.0,60.0,10.0,0.0
1800,54.0,0.0,60.0,12.0,0.0
1801,61.0,0.0,60.0,12.0,0.0
1802,73.0,0.0,60.0,10.0,0.0
1803,54.0,80.0,60.0,12.0,0.0
1804,61.0,0.0,60.0,12.0,0.0
1805,66.0,0.0,60.0,10.0,0.0
1806,66.0,0.0,60.0,10.0,0.0
1807,73.0,0.0,60.0,10.0,0.0
1808,61.0,80.0,60.0,12.0,0.0
1809,54.0,0.0,60.0,12.0,0.0
1810,66.0,80.0,60.0,10.0,0.0
1811,73.0,0.0,60.0,10.0,0.0
1812,61.0,0.0,60.0,12.0,0.0
1813,54.0,0.0,60.0,12.0,0.0
1814,73.0,0.0,60.0,10.0,0.0
1815,61.0,0.0,60.0,12.0,0.0
1816,54.0,80.0,60.0,12.0,0.0
1817,66.0,0.0,60.0,10.0,0.0
1818,73.0,0.0,60.0,10.0,0.0
1819,54.0,0.0,60.0,12.0,0.0
1820,66.0,0.0,60.0,10.0,0.0
1821,61.0,80.0,60.0,12.0,0.0
1822,66.0,80.0,60.0,10.0,0.0
1823,61.0,0.0,60.0,12.0,0.0
1824,54.0,0.0,60.0,12.0,0.0
1825,73.0,0.0,60.0,10.0,0.0
1826,73.0,0.0,60.0,10.0,0.0
1827,54.0,0.0,60.0,12.0,0.0
1828,61.0,0.0,60.0,12.0,0.0
1829,66.0,80.0,60.0,10.0,0.0
1830,61.0,0.0,60.0,12.0,0.0
1831,54.0,0.0,60.0,12.0,0.0
1832,73.0,80.0,60.0,10.0,0.0
1833,66.0,0.0,60.0,10.0,0.0
1834,61.0,0.0,60.0,12.0,0.0
1835,54.0,0.0,60.0,12.0,0.0
1836,66.0,80.0,60.0,10.0,0.0
1837,73.0,0.0,60.0,10.0,0.0
1838,66.0,0.0,60.0,10.0,0.0
1839,54.0,0.0,60.0,12.0,0.0
1840,61.0,80.0,60.0,12.0,0.0
1841,73.0,0.0,60.0,10.0,0.0
1842,66.0,0.0,60.0,10.0,0.0
1843,61.0,0.0,60.0,12.0,0.0
1844,54.0,0.0,60.0,12.0,0.0
1845,73.0,80.0,60.0,10.0,0.0
1846,54.0,0.0,60.0,12.0,0.0
1847,61.0,0.0,60.0,12.0,0.0
1848,66.0,0.0,60.0,10.0,0.0
1849,73.0,4.0,60.0,10.0,0.0
1850,85.0,76.0,60.0,8.0,0.0
1851,78.0,0.0,390.0,8.0,0.0
1852,61.0,0.0,60.0,12.0,0.0
1853,54.0,80.0,60.0,12.0,0.0
1854,73.0,0.0,60.0,10.0,0.0
1855,66.0,0.0,60.0,10.0,0.0
1856,73.0,0.0,60.0,10.0,0.0
1857,66.0,0.0,60.0,10.0,0.0
1858,61.0,0.0,60.0,12.0,0.0
1859,54.0,80.0,60.0,12.0,0.0
1860,61.0,0.0,60.0,12.0,0.0
1861,73.0,0.0,60.0,10.0,0.0
1862,66.0,0.0,60.0,10.0,0.0
1863,54.0,80.0,60.0,12.0,0.0
1864,66.0,0.0,60.0,10.0,0.0
1865,61.0,80.0,60.0,12.0,0.0
1866,73.0,0.0,60.0,10.0,0.0
1867,54.0,0.0,60.0,12.0,0.0
1868,61.0,0.0,60.0,12.0,0.0
1869,73.0,0.0,60.0,10.0,0.0
1870,54.0,0.0,60.0,12.0,0.0
1871,66.0,80.0,60.0,10.0,0.0
1872,54.0,0.0,60.0,12.0,0.0
1873,61.0,0.0,60.0,12.0,0.0
1874,73.0,0.0,60.0,10.0,0.0
1875,66.0,80.0,60.0,10.0,0.0
1876,66.0,0.0,60.0,10.0,0.0
1877,61.0,0.0,60.0,12.0,0.0
1878,54.0,0.0,60.0,12.0,0.0
1879,73.0,80.0,60.0,10.0,0.0
1880,54.0,0.0,60.0,12.0,0.0
1881,61.0,0.0,60.0,12.0,0.0
1882,66.0,80.0,60.0,10.0,0.0
1883,73.0,0.0,60.0,10.0,0.0
1884,54.0,80.0,60.0,12.0,0.0
1885,66.0,0.0,60.0,10.0,0.0
1886,73.0,0.0,60.0,10.0,0.0
1887,61.0,0.0,60.0,12.0,0.0
1888,54.0,80.0,60.0,12.0,0.0
1889,61.0,0.0,60.0,12.0,0.0
1890,73.0,0.0,60.0,10.0,0.0
1891,66.0,0.0,60.0,10.0,0.0
1892,73.0,0.0,60.0,10.0,0.0
1893,66.0,0.0,60.0,10.0,0.0
1894,54.0,0.0,60.0,12.0,0.0
1895,61.0,80.0,60.0,12.0,0.0
1896,54.0,0.0,60.0,12.0,0.0
1897,66.0,0.0,60.0,10.0,0.0
1898,61.0,4.0,60.0,12.0,0.0
1899,73.0,0.0,60.0,10.0,0.0
1900,78.0,76.0,60.0,8.0,0.0
1901,73.0,0.0,390.0,8.0,0.0
1902,66.0,80.0,60.0,10.0,0.0
1903,61.0,0.0,60.0,12.0,0.0
1904,54.0,0.0,60.0,12.0,0.0
1905,73.0,0.0,60.0,10.0,0.0
1906,66.0,0.0,60.0,10.0,0.0
1907,73.0,0.0,60.0,10.0,0.0
1908,61.0,0.0,60.0,12.0,0.0
1909,54.0,80.0,60.0,12.0,0.0
1910,61.0,0.0,60.0,12.0,0.0
1911,54.0,0.0,60.0,12.0,0.0
1912,66.0,0.0,60.0,10.0,0.0
1913,73.0,80.0,60.0,10.0,0.0
1914,73.0,80.0,60.0,10.0,0.0
1915,66.0,0.0,60.0,10.0,0.0
1916,61.0,0.0,60.0,12.0,0.0
1917,54.0,0.0,60.0,12.0,0.0
1918,66.0,80.0,60.0,10.0,0.0
1919,61.0,0.0,60.0,12.0,0.0
1920,54.0,0.0,60.0,12.0,0.0
1921,73.0,0.0,60.0,10.0,0.0
1922,66.0,0.0,60.0,10.0,0.0
1923,73.0,0.0,60.0,10.0,0.0
1924,61.0,80.0,60.0,12.0,0.0
1925,54.0,0.0,60.0,12.0,0.0
1926,66.0,80.0,60.0,10.0,0.0
1927,54.0,0.0,60.0,12.0,0.0
1928,61.0,0.0,60.0,12.0,0.0
1929,73.0,0.0,60.0,10.0,0.0
1930,61.0,80.0,60.0,12.0,0.0
1931,54.0,0.0,60.0,12.0,0.0
1932,73.0,0.0,60.0,10.0,0.0
1933,66.0,0.0,60.0,10.0,0.0
1934,73.0,0.0,60.0,10.0,0.0
1935,66.0,80.0,60.0,10.0,0.0
1936,54.0,0.0,60.0,12.0,0.0
1937,61.0,0.0,60.0,12.0,0.0
1938,73.0,0.0,60.0,10.0,0.0
1939,66.0,0.0,60.0,10.0,0.0
1940,54.0,80.0,60.0,12.0,0.0
1941,61.0,0.0,60.0,12.0,0.0
1942,66.0,0.0,60.0,10.0,0.0
1943,61.0,0.0,60.0,12.0,0.0
1944,54.0,0.0,60.0,12.0,0.0
1945,73.0,80.0,60.0,10.0,0.0
1946,73.0,4.0,60.0,10.0,0.0
1947,66.0,0.0,60.0,10.0,0.0
1948,61.0,0.0,60.0,12.0,0.0
1949,54.0,0.0,60.0,12.0,0.0
1950,49.0,0.0,60.0,13.0,0.0
1951,61.0,76.0,60.0,11.0,0.0
1952,73.0,0.0,60.0,10.0,0.0
1953,66.0,80.0,60.0,10.0,0.0
1954,78.0,64.0,6720.0,1.0,0.0
1955,54.0,80.0,390.0,11.0,0.0
1956,42.0,0.0,390.0,13.0,0.0
1957,54.0,0.0,60.0,12.0,0.0
1958,61.0,0.0,60.0,12.0,0.0
1959,73.0,80.0,60.0,10.0,0.0
1960,66.0,0.0,60.0,10.0,0.0
1961,54.0,0.0,60.0,12.0,0.0
1962,61.0,0.0,60.0,12.0,0.0
1963,73.0,0.0,60.0,10.0,0.0
1964,66.0,0.0,60.0,10.0,0.0
1965,54.0,80.0,60.0,12.0,0.0
1966,61.0,0.0,60.0,12.0,0.0
1967,54.0,0.0,60.0,12.0,0.0
1968,61.0,0.0,60.0,12.0,0.0
1969,73.0,80.0,60.0,10.0,0.0
1970,66.0,0.0,60.0,10.0,0.0
1971,61.0,0.0,60.0,12.0,0.0
1972,54.0,0.0,60.0,12.0,0.0
1973,66.0,0.0,60.0,10.0,0.0
1974,73.0,0.0,60.0,10.0,0.0
1975,66.0,80.0,60.0,10.0,0.0
1976,54.0,0.0,60.0,12.0,0.0
1977,73.0,0.0,60.0,10.0,0.0
1978,61.0,0.0,60.0,12.0,0.0
1979,61.0,0.0,60.0,12.0,0.0
1980,54.0,80.0,60.0,12.0,0.0
1981,73.0,0.0,60.0,10.0,0.0
1982,66.0,0.0,60.0,10.0,0.0
1983,54.0,0.0,60.0,12.0,0.0
1984,66.0,80.0,60.0,10.0,0.0
1985,73.0,0.0,60.0,10.0,0.0
1986,61.0,0.0,60.0,12.0,0.0
1987,61.0,0.0,60.0,12.0,0.0
1988,73.0,80.0,60.0,10.0,0.0
1989,66.0,0.0,60.0,10.0,0.0
1990,54.0,0.0,60.0,12.0,0.0
1991,54.0,0.0,60.0,12.0,0.0
1992,61.0,0.0,60.0,12.0,0.0
1993,73.0,80.0,60.0,10.0,0.0
1994,66.0,0.0,60.0,10.0,0.0
1995,66.0,0.0,60.0,10.0,0.0
1996,73.0,80.0,60.0,10.0,0.0
1997,61.0,0.0,60.0,12.0,0.0
1998,54.0,0.0,60.0,12.0,0.0
1999,61.0,0.0,60.0,12.0,0.0
2000,73.0,0.0,60.0,10.0,0.0
2001,66.0,80.0,60.0,10.0,0.0
2002,54.0,0.0,60.0,12.0,0.0
2003,66.0,0.0,60.0,10.0,0.0
2004,54.0,80.0,60.0,12.0,0.0
2005,61.0,0.0,60.0,12.0,0.0
2006,73.0,0.0,60.0,10.0,0.0
2007,66.0,0.0,60.0,10.0,0.0
2008,73.0,0.0,60.0,10.0,0.0
2009,61.0,80.0,60.0,12.0,0.0
2010,54.0,0.0,60.0,12.0,0.0
2011,66.0,0.0,60.0,10.0,0.0
2012,73.0,0.0,60.0,10.0,0.0
2013,54.0,80.0,60.0,12.0,0.0
2014,61.0,0.0,60.0,12.0,0.0
2015,61.0,0.0,60.0,12.0,0.0
2016,66.0,80.0,60.0,10.0,0.0
2017,73.0,0.0,60.0,10.0,0.0
2018,54.0,0.0,60.0,12.0,0.0
2019,54.0,0.0,60.0,12.0,0.0
2020,61.0,0.0,60.0,12.0,0.0
2021,66.0,0.0,60.0,10.0,0.0
2022,73.0,80.0,60.0,10.0,0.0
2023,54.0,80.0,60.0,12.0,0.0
2024,66.0,0.0,60.0,10.0,0.0
2025,73.0,0.0,60.0,10.0,0.0
2026,61.0,0.0,60.0,12.0,0.0
2027,66.0,0.0,60.0,10.0,0.0
2028,54.0,80.0,60.0,12.0,0.0
2029,61.0,0.0,60.0,12.0,0.0
2030,73.0,0.0,60.0,10.0,0.0
2031,61.0,0.0,60.0,12.0,0.0
2032,66.0,0.0,60.0,10.0,0.0
2033,54.0,80.0,60.0,12.0,0.0
2034,73.0,0.0,60.0,10.0,0.0
2035,54.0,0.0,60.0,12.0,0.0
2036,61.0,80.0,60.0,12.0,0.0
2037,66.0,0.0,60.0,10.0,0.0
2038,73.0,0.0,60.0,10.0,0.0
2039,54.0,0.0,60.0,12.0,0.0
2040,61.0,80.0,60.0,12.0,0.0
2041,73.0,0.0,60.0,10.0,0.0
2042,66.0,0.0,60.0,10.0,0.0
2043,61.0,0.0,60.0,12.0,0.0
2044,54.0,0.0,60.0,12.0,0.0
2045,66.0,80.0,60.0,10.0,0.0
2046,73.0,0.0,60.0,10.0,0.0
2047,61.0,0.0,60.0,12.0,0.0
2048,73.0,80.0,60.0,10.0,0.0
2049,66.0,0.0,60.0,10.0,0.0
2050,54.0,0.0,60.0,12.0,0.0
2051,66.0,80.0,60.0,10.0,0.0
2052,73.0,0.0,60.0,10.0,0.0
2053,85.0,48.0,3450.0,0.0,0.0
2054,54.0,0.0,60.0,12.0,0.0
2055,61.0,0.0,60.0,12.0,0.0
2056,66.0,0.0,60.0,10.0,0.0
2057,73.0,0.0,60.0,10.0,0.0
2058,54.0,0.0,60.0,12.0,0.0
2059,61.0,80.0,60.0,12.0,0.0
2060,66.0,0.0,60.0,10.0,0.0
2061,61.0,0.0,60.0,12.0,0.0
2062,73.0,80.0,60.0,10.0,0.0
2063,54.0,0.0,60.0,12.0,0.0
2064,73.0,80.0,60.0,10.0,0.0
2065,66.0,0.0,60.0,10.0,0.0
2066,54.0,0.0,60.0,12.0,0.0
2067,61.0,0.0,60.0,12.0,0.0
2068,66.0,0.0,60.0,10.0,0.0
2069,73.0,0.0,60.0,10.0,0.0
2070,61.0,80.0,60.0,12.0,0.0
2071,54.0,0.0,60.0,12.0,0.0
2072,66.0,4.0,60.0,10.0,0.0
2073,73.0,0.0,60.0,10.0,0.0
2074,61.0,0.0,60.0,12.0,0.0
2075,54.0,0.0,60.0,12.0,0.0
2076,85.0,76.0,60.0,8.0,0.0
2077,78.0,78.0,240.0,8.0,0.0
2078,66.0,0.0,60.0,10.0,0.0
2079,61.0,0.0,60.0,12.0,0.0
2080,54.0,0.0,60.0,12.0,0.0
2081,73.0,80.0,60.0,10.0,0.0
2082,66.0,0.0,60.0,10.0,0.0
2083,73.0,0.0,60.0,10.0,0.0
2084,61.0,0.0,60.0,12.0,0.0
2085,54.0,80.0,60.0,12.0,0.0
2086,73.0,2.0,60.0,10.0,0.0
2087,61.0,0.0,60.0,12.0,0.0
2088,54.0,0.0,60.0,12.0,0.0
2089,66.0,0.0,60.0,10.0,0.0
2090,73.0,80.0,60.0,10.0,0.0
2091,66.0,0.0,60.0,10.0,0.0
2092,61.0,0.0,60.0,12.0,0.0
2093,54.0,0.0,60.0,12.0,0.0
2094,73.0,80.0,60.0,10.0,0.0
2095,66.0,0.0,60.0,10.0,0.0
2096,61.0,0.0,60.0,12.0,0.0
2097,54.0,0.0,60.0,12.0,0.0
2098,61.0,0.0,60.0,12.0,0.0
2099,54.0,0.0,60.0,12.0,0.0
2100,73.0,0.0,60.0,10.0,0.0
2101,66.0,4.0,60.0,10.0,0.0
2102,78.0,76.0,60.0,8.0,0.0
2103,61.0,0.0,60.0,12.0,0.0
2104,66.0,0.0,60.0,10.0,0.0
2105,73.0,0.0,60.0,10.0,0.0
2106,54.0,80.0,60.0,12.0,0.0
2107,73.0,78.0,240.0,8.0,0.0
2108,54.0,0.0,60.0,12.0,0.0
2109,61.0,0.0,60.0,12.0,0.0
2110,66.0,80.0,60.0,10.0,0.0
2111,73.0,0.0,60.0,10.0,0.0
2112,73.0,2.0,60.0,10.0,0.0
2113,54.0,0.0,60.0,12.0,0.0
2114,61.0,0.0,60.0,12.0,0.0
2115,66.0,0.0,60.0,10.0,0.0
2116,61.0,0.0,60.0,12.0,0.0
2117,54.0,0.0,60.0,12.0,0.0
2118,73.0,0.0,60.0,10.0,0.0
2119,66.0,80.0,60.0,10.0,0.0
2120,73.0,0.0,60.0,10.0,0.0
2121,66.0,80.0,60.0,10.0,0.0
2122,54.0,0.0,60.0,12.0,0.0
2123,61.0,0.0,60.0,12.0,0.0
2124,54.0,0.0,60.0,12.0,0.0
2125,61.0,0.0,60.0,12.0,0.0
2126,73.0,0.0,60.0,10.0,0.0
2127,66.0,4.0,60.0,10.0,0.0
2128,73.0,76.0,60.0,8.0,0.0
2129,54.0,0.0,60.0,12.0,0.0
2130,66.0,78.0,240.0,8.0,0.0
2131,73.0,80.0,60.0,10.0,0.0
2132,66.0,0.0,60.0,10.0,0.0
2133,61.0,0.0,60.0,12.0,0.0
2134,61.0,0.0,60.0,12.0,0.0
2135,66.0,80.0,60.0,10.0,0.0
2136,54.0,0.0,60.0,12.0,0.0
2137,73.0,0.0,60.0,10.0,0.0
2138,73.0,0.0,60.0,10.0,0.0
2139,66.0,0.0,60.0,10.0,0.0
2140,54.0,2.0,60.0,12.0,0.0
2141,61.0,0.0,60.0,12.0,0.0
2142,61.0,0.0,60.0,12.0,0.0
2143,54.0,0.0,60.0,12.0,0.0
2144,66.0,80.0,60.0,10.0,0.0
2145,73.0,0.0,60.0,10.0,0.0
2146,54.0,0.0,60.0,12.0,0.0
2147,61.0,0.0,60.0,12.0,0.0
2148,66.0,80.0,60.0,10.0,0.0
2149,73.0,0.0,60.0,10.0,0.0
2150,73.0,0.0,60.0,10.0,0.0
2151,54.0,0.0,60.0,12.0,0.0
2152,66.0,4.0,60.0,10.0,0.0
2153,61.0,0.0,60.0,12.0,0.0
2154,61.0,0.0,60.0,11.0,0.0
2155,49.0,76.0,60.0,13.0,0.0
2156,54.0,36.0,390.0,11.0,0.0
2157,42.0,0.0,390.0,13.0,0.0
2158,66.0,0.0,60.0,10.0,0.0
2159,73.0,0.0,60.0,10.0,0.0
2160,90.0,0.0,1530.0,0.0,0.0
2161,61.0,0.0,60.0,12.0,0.0
2162,54.0,80.0,60.0,12.0,0.0
2163,73.0,0.0,60.0,10.0,0.0
2164,66.0,36.0,60.0,10.0,0.0
2165,61.0,0.0,60.0,12.0,0.0
2166,54.0,0.0,60.0,12.0,0.0
2167,85.0,44.0,60.0,8.0,0.0
2168,73.0,0.0,60.0,10.0,0.0
2169,66.0,0.0,60.0,10.0,0.0
2170,61.0,80.0,60.0,12.0,0.0
2171,54.0,0.0,60.0,12.0,0.0
2172,61.0,0.0,60.0,12.0,0.0
2173,54.0,0.0,60.0,12.0,0.0
2174,73.0,0.0,60.0,10.0,0.0
2175,66.0,56.0,60.0,10.0,0.0
2176,85.0,24.0,120.0,8.0,0.0
2177,54.0,0.0,60.0,12.0,0.0
2178,61.0,0.0,60.0,12.0,0.0
2179,73.0,0.0,60.0,10.0,0.0
2180,66.0,0.0,60.0,10.0,0.0
2181,78.0,44.0,60.0,8.0,0.0
2182,54.0,0.0,60.0,12.0,0.0
2183,66.0,0.0,60.0,10.0,0.0
2184,73.0,0.0,60.0,10.0,0.0
2185,61.0,80.0,60.0,12.0,0.0
2186,73.0,0.0,60.0,10.0,0.0
2187,66.0,0.0,60.0,10.0,0.0
2188,61.0,0.0,60.0,12.0,0.0
2189,54.0,80.0,60.0,12.0,0.0
2190,54.0,36.0,60.0,12.0,0.0
2191,66.0,0.0,60.0,10.0,0.0
2192,61.0,0.0,60.0,12.0,0.0
2193,73.0,0.0,60.0,10.0,0.0
2194,78.0,44.0,60.0,8.0,0.0
2195,73.0,0.0,60.0,10.0,0.0
2196,66.0,0.0,60.0,10.0,0.0
2197,61.0,0.0,60.0,12.0,0.0
2198,54.0,80.0,60.0,12.0,0.0
2199,61.0,0.0,60.0,12.0,0.0
2200,66.0,0.0,60.0,10.0,0.0
2201,54.0,56.0,60.0,12.0,0.0
2202,78.0,24.0,120.0,8.0,0.0
2203,73.0,0.0,60.0,10.0,0.0
2204,54.0,36.0,60.0,12.0,0.0
2205,61.0,0.0,60.0,12.0,0.0
2206,73.0,0.0,60.0,10.0,0.0
2207,66.0,0.0,60.0,10.0,0.0
2208,73.0,44.0,60.0,8.0,0.0
2209,61.0,80.0,60.0,12.0,0.0
2210,54.0,0.0,60.0,12.0,0.0
2211,73.0,0.0,60.0,10.0,0.0
2212,66.0,0.0,60.0,10.0,0.0
2213,61.0,0.0,60.0,12.0,0.0
2214,66.0,0.0,60.0,10.0,0.0
2215,54.0,0.0,450.0,4.0,0.0
2216,42.0,0.0,1140.0,3.0,0.0
2217,73.0,80.0,60.0,10.0,0.0
2218,54.0,0.0,60.0,12.0,0.0
2219,73.0,0.0,60.0,10.0,0.0
2220,66.0,0.0,60.0,10.0,0.0
2221,54.0,0.0,60.0,12.0,0.0
2222,61.0,36.0,60.0,12.0,0.0
2223,73.0,44.0,60.0,8.0,0.0
2224,73.0,0.0,60.0,10.0,0.0
2225,66.0,80.0,60.0,10.0,0.0
2226,61.0,0.0,60.0,12.0,0.0
2227,54.0,0.0,60.0,12.0,0.0
2228,61.0,0.0,60.0,12.0,0.0
2229,54.0,0.0,60.0,12.0,0.0
2230,66.0,56.0,60.0,10.0,0.0
2231,73.0,0.0,60.0,10.0,0.0
2232,73.0,24.0,120.0,8.0,0.0
2233,66.0,0.0,60.0,10.0,0.0
2234,73.0,36.0,60.0,10.0,0.0
2235,54.0,0.0,60.0,12.0,0.0
2236,61.0,0.0,60.0,12.0,0.0
2237,66.0,30.0,60.0,8.0,0.0
2238,54.0,80.0,60.0,12.0,0.0
2239,61.0,0.0,60.0,12.0,0.0
2240,73.0,0.0,60.0,10.0,0.0
2241,66.0,0.0,60.0,10.0,0.0
2242,66.0,0.0,60.0,10.0,0.0
2243,73.0,0.0,60.0,10.0,0.0
2244,54.0,0.0,60.0,12.0,0.0
2245,61.0,32.0,60.0,12.0,0.0
2246,73.0,0.0,60.0,10.0,0.0
2247,54.0,36.0,60.0,12.0,0.0
2248,61.0,0.0,60.0,12.0,0.0
2249,66.0,0.0,60.0,10.0,0.0
2250,61.0,44.0,60.0,11.0,0.0
2251,49.0,0.0,60.0,13.0,0.0
2252,66.0,80.0,60.0,10.0,0.0
2253,61.0,0.0,60.0,12.0,0.0
2254,54.0,0.0,60.0,12.0,0.0
2255,73.0,0.0,60.0,10.0,0.0
2256,66.0,32.0,420.0,4.0,0.0
2257,49.0,0.0,120.0,13.0,0.0
2258,54.0,0.0,420.0,4.0,0.0
2259,54.0,56.0,60.0,12.0,0.0
2260,66.0,0.0,60.0,12.0,0.0
2261,66.0,0.0,60.0,10.0,0.0
2262,61.0,24.0,120.0,11.0,0.0
2263,78.0,0.0,60.0,10.0,0.0
2264,78.0,36.0,2070.0,2.0,0.0
2265,90.0,0.0,2070.0,0.0,0.0
2266,61.0,0.0,60.0,12.0,0.0
2267,54.0,36.0,60.0,12.0,0.0
2268,78.0,0.0,60.0,10.0,0.0
2269,66.0,0.0,60.0,10.0,0.0
2270,54.0,44.0,60.0,11.0,0.0
2271,42.0,0.0,60.0,13.0,0.0
2272,61.0,0.0,60.0,12.0,0.0
2273,78.0,80.0,60.0,10.0,0.0
2274,66.0,0.0,60.0,10.0,0.0
2275,54.0,0.0,60.0,12.0,0.0
2276,78.0,0.0,60.0,10.0,0.0
2277,66.0,80.0,60.0,10.0,0.0
2278,66.0,0.0,60.0,12.0,0.0
2279,54.0,0.0,60.0,12.0,0.0
2280,66.0,36.0,60.0,10.0,0.0
2281,78.0,0.0,60.0,10.0,0.0
2282,66.0,0.0,60.0,12.0,0.0
2283,54.0,0.0,60.0,12.0,0.0
2284,90.0,12.0,60.0,8.0,0.0
2285,66.0,0.0,60.0,12.0,0.0
2286,54.0,0.0,60.0,12.0,0.0
2287,78.0,0.0,60.0,10.0,0.0
2288,66.0,80.0,60.0,10.0,0.0
2289,38.0,0.0,1590.0,3.0,0.0
2290,90.0,24.0,120.0,8.0,0.0
2291,66.0,56.0,60.0,10.0,0.0
2292,78.0,0.0,60.0,10.0,0.0
2293,54.0,0.0,60.0,12.0,0.0
2294,62.0,0.0,1590.0,4.0,0.0
2295,50.0,0.0,1590.0,4.0,0.0
2296,66.0,0.0,60.0,12.0,0.0
2297,66.0,0.0,60.0,12.0,0.0
2298,78.0,0.0,60.0,10.0,0.0
2299,66.0,36.0,60.0,10.0,0.0
2300,54.0,0.0,60.0,12.0,0.0
2301,78.0,44.0,60.0,8.0,0.0
2302,78.0,80.0,60.0,10.0,0.0
2303,66.0,0.0,60.0,12.0,0.0
2304,54.0,0.0,60.0,12.0,0.0
2305,66.0,0.0,60.0,10.0,0.0
2306,78.0,0.0,60.0,10.0,0.0
2307,66.0,56.0,60.0,12.0,0.0
2308,54.0,0.0,60.0,12.0,0.0
2309,74.0,288.0,1380.0,1.0,0.0
2310,66.0,0.0,60.0,10.0,0.0
2311,93.0,0.0,1350.0,0.0,0.0
2312,78.0,24.0,120.0,8.0,0.0
2313,66.0,0.0,60.0,12.0,0.0
2314,66.0,0.0,60.0,10.0,0.0
2315,78.0,0.0,60.0,10.0,0.0
2316,54.0,36.0,60.0,12.0,0.0
2317,66.0,44.0,60.0,8.0,0.0
2318,78.0,0.0,60.0,10.0,0.0
2319,66.0,0.0,60.0,12.0,0.0
2320,54.0,0.0,60.0,12.0,0.0
2321,66.0,80.0,60.0,10.0,0.0
2322,66.0,0.0,60.0,10.0,0.0
2323,78.0,0.0,60.0,10.0,0.0
2324,66.0,56.0,60.0,12.0,0.0
2325,66.0,24.0,120.0,8.0,0.0
2326,54.0,0.0,60.0,12.0,0.0
2327,54.0,0.0,60.0,12.0,0.0
2328,66.0,0.0,60.0,12.0,0.0
2329,78.0,36.0,60.0,10.0,0.0
2330,66.0,0.0,60.0,10.0,0.0
2331,78.0,44.0,60.0,8.0,0.0
2332,78.0,0.0,60.0,10.0,0.0
2333,66.0,0.0,60.0,12.0,0.0
2334,66.0,16.0,60.0,10.0,0.0
2335,54.0,0.0,60.0,12.0,0.0
2336,78.0,56.0,60.0,10.0,0.0
2337,66.0,0.0,60.0,10.0,0.0
2338,78.0,24.0,120.0,8.0,0.0
2339,86.0,0.0,900.0,1.0,0.0
2340,66.0,0.0,60.0,12.0,0.0
2341,54.0,0.0,60.0,12.0,0.0
2342,66.0,0.0,120.0,11.0,0.0
2343,54.0,36.0,60.0,12.0,0.0
2344,66.0,0.0,60.0,12.0,0.0
2345,78.0,0.0,60.0,10.0,0.0
2346,66.0,0.0,60.0,10.0,0.0
2347,54.0,44.0,60.0,11.0,0.0
2348,66.0,0.0,60.0,8.0,0.0
2349,78.0,80.0,60.0,10.0,0.0
2350,54.0,0.0,60.0,12.0,0.0
2351,66.0,0.0,60.0,12.0,0.0
2352,66.0,0.0,60.0,10.0,0.0
2353,66.0,56.0,60.0,12.0,0.0
2354,66.0,24.0,120.0,8.0,0.0
2355,54.0,0.0,60.0,12.0,0.0
2356,54.0,0.0,120.0,11.0,0.0
2357,66.0,0.0,60.0,10.0,0.0
2358,78.0,0.0,60.0,10.0,0.0
2359,54.0,0.0,60.0,12.0,0.0
2360,78.0,36.0,60.0,10.0,0.0
2361,66.0,0.0,60.0,10.0,0.0
2362,66.0,0.0,60.0,12.0,0.0
2363,66.0,0.0,60.0,11.0,0.0
2364,78.0,44.0,60.0,8.0,0.0
2365,54.0,0.0,60.0,12.0,0.0
2366,66.0,0.0,60.0,12.0,0.0
2367,66.0,0.0,60.0,10.0,0.0
2368,78.0,80.0,60.0,10.0,0.0
2369,54.0,24.0,120.0,11.0,0.0
2370,66.0,0.0,120.0,8.0,0.0
2371,66.0,56.0,60.0,10.0,0.0
2372,54.0,0.0,60.0,12.0,0.0
2373,78.0,0.0,60.0,10.0,0.0
2374,66.0,0.0,60.0,12.0,0.0
2375,66.0,36.0,60.0,10.0,0.0
2376,54.0,0.0,60.0,12.0,0.0
2377,66.0,0.0,60.0,12.0,0.0
2378,78.0,0.0,60.0,10.0,0.0
2379,66.0,0.0,60.0,11.0,0.0
2380,78.0,44.0,60.0,8.0,0.0
2381,66.0,0.0,60.0,10.0,0.0
2382,78.0,0.0,60.0,10.0,0.0
2383,54.0,76.0,60.0,12.0,0.0
2384,66.0,0.0,60.0,12.0,0.0
2385,66.0,30.0,120.0,10.0,0.0
2386,66.0,54.0,60.0,8.0,0.0
2387,78.0,0.0,120.0,10.0,0.0
2388,54.0,0.0,120.0,12.0,0.0
2389,66.0,0.0,120.0,12.0,0.0
2390,54.0,0.0,60.0,11.0,0.0
2391,74.0,0.0,60.0,2.0,0.0
2392,74.0,60.0,60.0,11.0,0.0
2393,62.0,0.0,60.0,12.0,0.0
2394,66.0,0.0,60.0,5.0,0.0
2395,78.0,0.0,60.0,5.0,0.0
2396,86.0,0.0,60.0,0.0,0.0
2397,86.0,0.0,60.0,8.0,0.0
2398,86.0,0.0,60.0,1.0,0.0
2399,54.0,0.0,60.0,6.0,0.0
2400,50.0,0.0,60.0,13.0,0.0
2401,62.0,0.0,60.0,3.0,0.0
2402,69.0,0.0,60.0,4.0,0.0
2403,62.0,0.0,60.0,4.0,0.0
2404,57.0,0.0,780.0,3.0,0.0
2405,45.0,0.0,780.0,13.0,0.0
2406,81.0,0.0,780.0,1.0,0.0
2407,66.0,0.0,780.0,5.0,0.0
2408,81.0,0.0,780.0,8.0,0.0
2409,93.0,0.0,780.0,0.0,0.0
2410,54.0,60.0,60.0,6.0,0.0
2411,69.0,0.0,780.0,4.0,0.0
2412,78.0,0.0,780.0,5.0,0.0
2413,69.0,0.0,780.0,2.0,0.0
2414,57.0,170.0,780.0,12.0,0.0
2415,57.0,0.0,780.0,4.0,0.0
2416,81.0,0.0,780.0,0.0,0.0
2417,69.0,0.0,780.0,11.0,0.0
2418,54.0,60.0,60.0,6.0,0.0
2419,54.0,60.0,60.0,6.0,0.0
2420,54.0,60.0,60.0,6.0,0.0
2421,54.0,60.0,60.0,6.0,0.0
2422,54.0,60.0,60.0,6.0,0.0
2423,54.0,60.0,60.0,6.0,0.0
2424,54.0,60.0,60.0,6.0,0.0
2425,54.0,60.0,60.0,6.0,0.0
2426,54.0,60.0,60.0,6.0,0.0
2427,54.0,60.0,60.0,6.0,0.0
2428,54.0,60.0,60.0,6.0,0.0
2429,54.0,10.0,60.0,6.0,0.0
2430,78.0,204.0,60.0,1.0,0.0
2431,66.0,0.0,60.0,5.0,0.0
2432,78.0,0.0,60.0,5.0,0.0
2433,54.0,0.0,60.0,3.0,0.0
2434,54.0,0.0,60.0,4.0,0.0
2435,42.0,0.0,60.0,13.0,0.0
2436,66.0,0.0,60.0,2.0,0.0
2437,54.0,0.0,60.0,12.0,0.0
2438,90.0,0.0,60.0,0.0,0.0
2439,78.0,0.0,60.0,0.0,0.0
2440,66.0,0.0,60.0,4.0,0.0
2441,66.0,0.0,60.0,11.0,0.0
2442,54.0,0.0,60.0,6.0,0.0
2443,78.0,0.0,60.0,8.0,0.0
2444,50.0,0.0,330.0,12.0,0.0
2445,50.0,0.0,330.0,4.0,0.0
2446,62.0,0.0,330.0,4.0,0.0
2447,74.0,0.0,330.0,1.0,0.0
2448,66.0,0.0,330.0,5.0,0.0
2449,74.0,0.0,330.0,8.0,0.0
2450,66.0,144.0,180.0,4.0,0.0
2451,54.0,0.0,330.0,6.0,0.0
2452,86.0,0.0,330.0,0.0,0.0
2453,62.0,132.0,330.0,11.0,0.0
2454,62.0,0.0,330.0,3.0,0.0
2455,62.0,0.0,330.0,2.0,0.0
2456,78.0,0.0,330.0,5.0,0.0
2457,38.0,0.0,330.0,13.0,0.0
2458,57.0,0.0,60.0,11.0,0.0
2459,45.0,0.0,60.0,12.0,0.0
2460,45.0,300.0,60.0,4.0,0.0
2461,57.0,0.0,60.0,3.0,0.0
2462,57.0,0.0,60.0,4.0,0.0
2463,66.0,0.0,60.0,5.0,0.0
2464,78.0,0.0,60.0,5.0,0.0
2465,33.0,0.0,60.0,13.0,0.0
2466,69.0,0.0,60.0,2.0,0.0
2467,69.0,0.0,60.0,8.0,0.0
2468,69.0,0.0,60.0,1.0,0.0
2469,54.0,0.0,60.0,6.0,0.0
2470,81.0,0.0,60.0,0.0,0.0
2471,78.0,0.0,300.0,0.0,0.0
2472,66.0,0.0,300.0,4.0,0.0
2473,54.0,0.0,300.0,4.0,0.0
2474,54.0,0.0,300.0,11.0,0.0
2475,54.0,0.0,300.0,6.0,0.0
2476,78.0,0.0,300.0,5.0,0.0
2477,66.0,0.0,300.0,2.0,0.0
2478,30.0,0.0,300.0,13.0,0.0
2479,66.0,120.0,300.0,5.0,0.0
2480,66.0,0.0,300.0,8.0,0.0
2481,66.0,0.0,300.0,1.0,0.0
2482,54.0,0.0,300.0,3.0,0.0
2483,42.0,0.0,300.0,12.0,0.0
2484,45.0,0.0,60.0,12.0,0.0
2485,57.0,0.0,60.0,3.0,0.0
2486,81.0,0.0,60.0,0.0,0.0
2487,69.0,0.0,60.0,4.0,0.0
2488,57.0,0.0,60.0,11.0,0.0
2489,78.0,0.0,60.0,5.0,0.0
2490,81.0,0.0,60.0,1.0,0.0
2491,69.0,0.0,60.0,8.0,0.0
2492,33.0,0.0,60.0,13.0,0.0
2493,69.0,60.0,60.0,2.0,0.0
2494,54.0,0.0,60.0,6.0,0.0
2495,66.0,0.0,60.0,5.0,0.0
2496,57.0,0.0,60.0,4.0,0.0
2497,66.0,0.0,60.0,4.0,0.0
2498,54.0,0.0,60.0,3.0,0.0
2499,78.0,204.0,60.0,1.0,0.0
2500,54.0,0.0,60.0,11.0,0.0
2501,42.0,0.0,60.0,12.0,0.0
2502,54.0,0.0,60.0,4.0,0.0
2503,30.0,0.0,60.0,13.0,0.0
2504,66.0,0.0,60.0,2.0,0.0
2505,66.0,0.0,60.0,5.0,0.0
2506,66.0,0.0,60.0,8.0,0.0
2507,54.0,0.0,60.0,6.0,0.0
2508,78.0,0.0,60.0,5.0,0.0
2509,78.0,0.0,60.0,0.0,0.0
2510,38.0,0.0,540.0,13.0,0.0
2511,78.0,0.0,180.0,5.0,0.0
2512,66.0,258.0,180.0,5.0,0.0
2513,62.0,0.0,540.0,4.0,0.0
2514,50.0,0.0,540.0,4.0,0.0
2515,74.0,0.0,570.0,2.0,0.0
2516,62.0,36.0,540.0,8.0,0.0
2517,50.0,0.0,540.0,12.0,0.0
2518,54.0,90.0,450.0,6.0,0.0
2519,74.0,0.0,570.0,0.0,0.0
2520,62.0,0.0,540.0,11.0,0.0
2521,74.0,0.0,570.0,1.0,0.0
2522,50.0,84.0,570.0,3.0,0.0
2523,78.0,0.0,60.0,2.0,0.0
2524,54.0,0.0,60.0,12.0,0.0
2525,66.0,0.0,60.0,11.0,0.0
2526,78.0,0.0,60.0,8.0,0.0
2527,78.0,0.0,60.0,1.0,0.0
2528,66.0,0.0,60.0,4.0,0.0
2529,42.0,0.0,60.0,13.0,0.0
2530,90.0,120.0,60.0,0.0,0.0
2531,54.0,0.0,60.0,3.0,0.0
2532,52.0,0.0,60.0,12.0,0.0
2533,64.0,0.0,60.0,4.0,0.0
2534,76.0,0.0,60.0,2.0,0.0
2535,64.0,0.0,60.0,11.0,0.0
2536,40.0,120.0,60.0,13.0,0.0
2537,52.0,0.0,60.0,3.0,0.0
2538,76.0,0.0,60.0,1.0,0.0
2539,88.0,0.0,60.0,0.0,0.0
2540,76.0,0.0,60.0,8.0,0.0
2541,74.0,0.0,60.0,8.0,0.0
2542,50.0,0.0,60.0,12.0,0.0
2543,74.0,0.0,60.0,2.0,0.0
2544,62.0,156.0,60.0,11.0,0.0
2545,38.0,0.0,60.0,13.0,0.0
2546,74.0,0.0,60.0,1.0,0.0
2547,50.0,0.0,60.0,3.0,0.0
2548,86.0,0.0,60.0,0.0,0.0
2549,62.0,0.0,60.0,4.0,0.0
2550,69.0,0.0,90.0,11.0,0.0
2551,81.0,0.0,90.0,1.0,0.0
2552,45.0,0.0,90.0,13.0,0.0
2553,81.0,0.0,90.0,2.0,0.0
2554,57.0,0.0,90.0,12.0,0.0
2555,69.0,0.0,90.0,4.0,0.0
2556,57.0,240.0,90.0,3.0,0.0
2557,81.0,0.0,90.0,8.0,0.0
2558,93.0,0.0,90.0,0.0,0.0
2559,55.0,0.0,90.0,3.0,0.0
2560,79.0,240.0,90.0,8.0,0.0
2561,79.0,0.0,90.0,1.0,0.0
2562,67.0,0.0,90.0,4.0,0.0
2563,43.0,0.0,90.0,13.0,0.0
2564,55.0,0.0,90.0,12.0,0.0
2565,67.0,0.0,90.0,11.0,0.0
2566,79.0,0.0,90.0,2.0,0.0
2567,91.0,0.0,90.0,0.0,0.0
2568,76.0,0.0,90.0,1.0,0.0
2569,40.0,240.0,90.0,13.0,0.0
2570,76.0,0.0,90.0,2.0,0.0
2571,88.0,0.0,90.0,0.0,0.0
2572,76.0,0.0,90.0,8.0,0.0
2573,64.0,0.0,90.0,4.0,0.0
2574,52.0,0.0,90.0,12.0,0.0
2575,52.0,0.0,90.0,3.0,0.0
2576,64.0,0.0,90.0,11.0,0.0
2577,57.0,0.0,90.0,12.0,0.0
2578,57.0,0.0,90.0,3.0,0.0
2579,81.0,0.0,90.0,8.0,0.0
2580,69.0,0.0,90.0,4.0,0.0
2581,93.0,0.0,90.0,0.0,0.0
2582,81.0,0.0,90.0,1.0,0.0
2583,45.0,0.0,90.0,13.0,0.0
2584,69.0,0.0,90.0,11.0,0.0
2585,81.0,264.0,90.0,2.0,0.0
2586,54.0,0.0,120.0,3.0,0.0
2587,78.0,0.0,120.0,1.0,0.0
2588,90.0,0.0,120.0,0.0,0.0
2589,54.0,0.0,120.0,12.0,0.0
2590,54.0,0.0,180.0,6.0,0.0
2591,66.0,0.0,120.0,10.0,0.0
2592,78.0,0.0,180.0,5.0,0.0
2593,78.0,0.0,120.0,2.0,0.0
2594,66.0,0.0,120.0,11.0,0.0
2595,42.0,0.0,120.0,13.0,0.0
2596,66.0,0.0,120.0,4.0,0.0
2597,66.0,468.0,180.0,5.0,0.0
2598,78.0,0.0,120.0,8.0,0.0
2599,57.0,0.0,60.0,12.0,0.0
2600,69.0,120.0,60.0,11.0,0.0
2601,45.0,0.0,60.0,13.0,0.0
2602,81.0,0.0,60.0,8.0,0.0
2603,43.0,0.0,60.0,13.0,0.0
2604,55.0,0.0,60.0,12.0,0.0
2605,79.0,0.0,60.0,8.0,0.0
2606,67.0,120.0,60.0,11.0,0.0
2607,54.0,0.0,60.0,12.0,0.0
2608,66.0,156.0,60.0,11.0,0.0
2609,42.0,0.0,60.0,13.0,0.0
2610,78.0,0.0,60.0,8.0,0.0
2611,62.0,84.0,90.0,12.0,0.0
2612,78.0,0.0,180.0,5.0,0.0
2613,54.0,24.0,180.0,6.0,0.0
2614,66.0,0.0,180.0,5.0,0.0
2615,50.0,0.0,90.0,13.0,0.0
2616,86.0,0.0,90.0,8.0,0.0
2617,74.0,0.0,90.0,11.0,0.0
2618,50.0,0.0,90.0,4.0,0.0
2619,81.0,0.0,60.0,2.0,0.0
2620,69.0,0.0,60.0,2.0,0.0
2621,81.0,0.0,60.0,1.0,0.0
2622,69.0,0.0,60.0,1.0,0.0
2623,57.0,0.0,60.0,3.0,0.0
2624,81.0,0.0,60.0,0.0,0.0
2625,45.0,12.0,60.0,3.0,0.0
2626,62.0,84.0,90.0,4.0,0.0
2627,93.0,0.0,60.0,0.0,0.0
2628,62.0,0.0,90.0,4.0,0.0
2629,55.0,0.0,60.0,3.0,0.0
2630,79.0,0.0,60.0,2.0,0.0
2631,67.0,0.0,60.0,2.0,0.0
2632,43.0,0.0,60.0,3.0,0.0
2633,50.0,84.0,90.0,4.0,0.0
2634,79.0,0.0,60.0,0.0,0.0
2635,91.0,0.0,60.0,0.0,0.0
2636,79.0,36.0,60.0,1.0,0.0
2637,67.0,0.0,60.0,1.0,0.0
2638,66.0,0.0,60.0,1.0,0.0
2639,90.0,0.0,60.0,0.0,0.0
2640,78.0,0.0,60.0,0.0,0.0
2641,78.0,0.0,60.0,1.0,0.0
2642,78.0,36.0,60.0,2.0,0.0
2643,66.0,0.0,60.0,2.0,0.0
2644,62.0,0.0,90.0,4.0,0.0
2645,54.0,0.0,60.0,3.0,0.0
2646,42.0,0.0,60.0,3.0,0.0
2647,50.0,120.0,90.0,4.0,0.0
2648,74.0,0.0,90.0,1.0,0.0
2649,86.0,0.0,90.0,1.0,0.0
2650,50.0,0.0,90.0,4.0,0.0
2651,62.0,480.0,90.0,4.0,0.0
2652,74.0,0.0,90.0,2.0,0.0
2653,86.0,0.0,90.0,2.0,0.0
2654,86.0,0.0,90.0,0.0,0.0
2655,50.0,0.0,90.0,3.0,0.0
2656,62.0,0.0,90.0,3.0,0.0
2657,80.0,540.0,120.0,8.0,0.0
2658,68.0,0.0,120.0,10.0,0.0
2659,80.0,0.0,90.0,1.0,0.0
2660,68.0,0.0,90.0,1.0,0.0
2661,56.0,0.0,120.0,12.0,0.0
2662,80.0,0.0,90.0,0.0,0.0
2663,44.0,0.0,120.0,13.0,0.0
2664,80.0,0.0,90.0,2.0,0.0
2665,68.0,0.0,90.0,2.0,0.0
2666,44.0,24.0,90.0,3.0,0.0
2667,68.0,0.0,120.0,11.0,0.0
2668,56.0,0.0,90.0,3.0,0.0
2669,83.0,0.0,60.0,8.0,0.0
2670,59.0,0.0,60.0,12.0,0.0
2671,47.0,120.0,60.0,13.0,0.0
2672,71.0,0.0,60.0,11.0,0.0
2673,81.0,120.0,60.0,8.0,0.0
2674,69.0,0.0,60.0,11.0,0.0
2675,57.0,0.0,60.0,12.0,0.0
2676,45.0,0.0,60.0,13.0,0.0
2677,68.0,0.0,60.0,11.0,0.0
2678,80.0,0.0,60.0,8.0,0.0
2679,56.0,0.0,60.0,12.0,0.0
2680,44.0,156.0,60.0,13.0,0.0
2681,89.0,0.0,90.0,8.0,0.0
2682,65.0,0.0,90.0,12.0,0.0
2683,53.0,84.0,90.0,13.0,0.0
2684,77.0,0.0,90.0,11.0,0.0
2685,50.0,54.0,60.0,4.0,0.0
2686,62.0,0.0,60.0,4.0,0.0
2687,71.0,66.0,120.0,4.0,0.0
2688,71.0,0.0,60.0,2.0,0.0
2689,83.0,0.0,60.0,0.0,0.0
2690,95.0,0.0,60.0,0.0,0.0
2691,47.0,0.0,60.0,3.0,0.0
2692,83.0,0.0,60.0,1.0,0.0
2693,83.0,0.0,60.0,2.0,0.0
2694,59.0,0.0,60.0,3.0,0.0
2695,71.0,0.0,60.0,1.0,0.0
2696,69.0,0.0,60.0,1.0,0.0
2697,50.0,0.0,60.0,4.0,0.0
2698,62.0,0.0,60.0,4.0,0.0
2699,57.0,0.0,60.0,3.0,0.0
2700,69.0,0.0,60.0,2.0,0.0
2701,45.0,0.0,60.0,3.0,0.0
2702,69.0,66.0,120.0,4.0,0.0
2703,81.0,0.0,60.0,0.0,0.0
2704,93.0,0.0,60.0,0.0,0.0
2705,81.0,0.0,60.0,2.0,0.0
2706,81.0,54.0,60.0,1.0,0.0
2707,44.0,0.0,60.0,3.0,0.0
2708,56.0,54.0,60.0,3.0,0.0
2709,80.0,0.0,60.0,2.0,0.0
2710,68.0,0.0,60.0,2.0,0.0
2711,80.0,0.0,60.0,1.0,0.0
2712,68.0,66.0,120.0,4.0,0.0
2713,80.0,0.0,60.0,0.0,0.0
2714,50.0,0.0,60.0,4.0,0.0
2715,62.0,0.0,60.0,4.0,0.0
2716,68.0,0.0,60.0,1.0,0.0
2717,92.0,0.0,60.0,0.0,0.0
2718,68.0,0.0,90.0,4.0,0.0
2719,50.0,0.0,60.0,4.0,0.0
2720,62.0,36.0,60.0,4.0,0.0
2721,89.0,480.0,90.0,2.0,0.0
2722,77.0,0.0,90.0,2.0,0.0
2723,77.0,0.0,90.0,1.0,0.0
2724,89.0,0.0,90.0,1.0,0.0
2725,89.0,0.0,90.0,0.0,0.0
2726,65.0,0.0,90.0,3.0,0.0
2727,53.0,0.0,90.0,3.0,0.0
2728,66.0,0.0,90.0,4.0,0.0
2729,69.0,0.0,90.0,1.0,0.0
2730,81.0,0.0,90.0,1.0,0.0
2731,57.0,0.0,90.0,4.0,0.0
2732,69.0,0.0,90.0,4.0,0.0
2733,66.0,0.0,180.0,5.0,0.0
2734,69.0,0.0,120.0,10.0,0.0
2735,45.0,24.0,90.0,3.0,0.0
2736,57.0,0.0,90.0,3.0,0.0
2737,69.0,0.0,120.0,11.0,0.0
2738,45.0,72.0,120.0,13.0,0.0
2739,54.0,0.0,180.0,6.0,0.0
2740,57.0,0.0,120.0,12.0,0.0
2741,81.0,0.0,120.0,8.0,0.0
2742,78.0,468.0,180.0,5.0,0.0
2743,81.0,0.0,90.0,0.0,0.0
2744,81.0,0.0,90.0,2.0,0.0
2745,69.0,0.0,90.0,2.0,0.0
2746,85.0,0.0,60.0,8.0,0.0
2747,61.0,0.0,60.0,12.0,0.0
2748,49.0,0.0,60.0,13.0,0.0
2749,66.0,0.0,60.0,5.0,0.0
2750,78.0,36.0,60.0,5.0,0.0
2751,73.0,0.0,60.0,11.0,0.0
2752,54.0,84.0,90.0,6.0,0.0
2753,54.0,84.0,90.0,6.0,0.0
2754,66.0,0.0,60.0,5.0,0.0
2755,59.0,36.0,60.0,12.0,0.0
2756,71.0,0.0,60.0,11.0,0.0
2757,47.0,0.0,60.0,13.0,0.0
2758,83.0,0.0,60.0,8.0,0.0
2759,78.0,0.0,60.0,5.0,0.0
2760,45.0,0.0,60.0,13.0,0.0
2761,66.0,0.0,60.0,5.0,0.0
2762,78.0,0.0,60.0,5.0,0.0
2763,54.0,84.0,90.0,6.0,0.0
2764,57.0,0.0,60.0,12.0,0.0
2765,81.0,0.0,60.0,8.0,0.0
2766,69.0,36.0,60.0,11.0,0.0
2767,66.0,0.0,60.0,5.0,0.0
2768,90.0,84.0,90.0,8.0,0.0
2769,66.0,0.0,90.0,12.0,0.0
2770,78.0,36.0,60.0,5.0,0.0
2771,54.0,0.0,90.0,6.0,0.0
2772,78.0,0.0,90.0,11.0,0.0
2773,54.0,0.0,90.0,13.0,0.0
2774,85.0,0.0,60.0,1.0,0.0
2775,66.0,0.0,60.0,4.0,0.0
2776,49.0,54.0,60.0,3.0,0.0
2777,54.0,0.0,60.0,4.0,0.0
2778,73.0,0.0,60.0,1.0,0.0
2779,73.0,0.0,60.0,2.0,0.0
2780,85.0,0.0,60.0,2.0,0.0
2781,73.0,66.0,120.0,4.0,0.0
2782,85.0,0.0,60.0,0.0,0.0
2783,61.0,0.0,60.0,3.0,0.0
2784,97.0,0.0,60.0,0.0,0.0
2785,95.0,0.0,60.0,0.0,0.0
2786,47.0,0.0,60.0,3.0,0.0
2787,59.0,54.0,60.0,3.0,0.0
2788,66.0,0.0,60.0,4.0,0.0
2789,54.0,0.0,60.0,4.0,0.0
2790,83.0,0.0,60.0,0.0,0.0
2791,83.0,0.0,60.0,2.0,0.0
2792,71.0,0.0,60.0,1.0,0.0
2793,71.0,66.0,120.0,4.0,0.0
2794,71.0,0.0,60.0,2.0,0.0
2795,83.0,0.0,60.0,1.0,0.0
2796,69.0,0.0,60.0,1.0,0.0
2797,69.0,0.0,60.0,2.0,0.0
2798,93.0,0.0,60.0,0.0,0.0
2799,81.0,0.0,60.0,2.0,0.0
2800,81.0,0.0,60.0,0.0,0.0
2801,45.0,0.0,60.0,3.0,0.0
2802,57.0,0.0,60.0,3.0,0.0
2803,81.0,0.0,60.0,1.0,0.0
2804,54.0,0.0,60.0,4.0,0.0
2805,66.0,54.0,60.0,4.0,0.0
2806,69.0,66.0,120.0,4.0,0.0
2807,78.0,0.0,90.0,1.0,0.0
2808,90.0,0.0,90.0,2.0,0.0
2809,78.0,0.0,90.0,2.0,0.0
2810,54.0,84.0,90.0,3.0,0.0
2811,66.0,0.0,60.0,4.0,0.0
2812,54.0,36.0,60.0,4.0,0.0
2813,78.0,0.0,90.0,4.0,0.0
2814,90.0,0.0,90.0,1.0,0.0
2815,66.0,0.0,90.0,3.0,0.0
2816,90.0,0.0,90.0,0.0,0.0
2817,54.0,84.0,90.0,6.0,0.0
2818,49.0,0.0,60.0,13.0,0.0
2819,73.0,0.0,60.0,11.0,0.0
2820,61.0,0.0,60.0,12.0,0.0
2821,85.0,0.0,60.0,8.0,0.0
2822,78.0,0.0,60.0,5.0,0.0
2823,66.0,36.0,60.0,5.0,0.0
2824,66.0,0.0,60.0,5.0,0.0
2825,71.0,0.0,60.0,11.0,0.0
2826,83.0,0.0,60.0,8.0,0.0
2827,54.0,84.0,90.0,6.0,0.0
2828,78.0,0.0,60.0,5.0,0.0
2829,47.0,36.0,60.0,13.0,0.0
2830,59.0,0.0,60.0,12.0,0.0
2831,70.0,0.0,60.0,11.0,0.0
2832,46.0,0.0,60.0,13.0,0.0
2833,54.0,84.0,90.0,6.0,0.0
2834,82.0,36.0,60.0,8.0,0.0
2835,78.0,0.0,60.0,5.0,0.0
2836,66.0,0.0,60.0,5.0,0.0
2837,58.0,0.0,60.0,12.0,0.0
2838,54.0,0.0,90.0,13.0,0.0
2839,54.0,0.0,90.0,6.0,0.0
2840,90.0,0.0,90.0,8.0,0.0
2841,78.0,36.0,60.0,5.0,0.0
2842,66.0,0.0,60.0,5.0,0.0
2843,78.0,0.0,90.0,11.0,0.0
2844,66.0,84.0,90.0,12.0,0.0
2845,85.0,0.0,60.0,0.0,0.0
2846,61.0,0.0,60.0,3.0,0.0
2847,49.0,0.0,60.0,3.0,0.0
2848,73.0,0.0,60.0,1.0,0.0
2849,73.0,0.0,60.0,2.0,0.0
2850,97.0,0.0,60.0,0.0,0.0
2851,85.0,0.0,60.0,2.0,0.0
2852,66.0,0.0,60.0,4.0,0.0
2853,85.0,0.0,60.0,1.0,0.0
2854,73.0,66.0,120.0,4.0,0.0
2855,54.0,54.0,60.0,4.0,0.0
2856,47.0,0.0,60.0,3.0,0.0
2857,59.0,0.0,60.0,3.0,0.0
2858,71.0,0.0,60.0,2.0,0.0
2859,83.0,0.0,60.0,2.0,0.0
2860,83.0,0.0,60.0,0.0,0.0
2861,54.0,0.0,60.0,4.0,0.0
2862,66.0,0.0,60.0,4.0,0.0
2863,71.0,66.0,120.0,4.0,0.0
2864,95.0,0.0,60.0,0.0,0.0
2865,83.0,0.0,60.0,1.0,0.0
2866,71.0,54.0,60.0,1.0,0.0
2867,58.0,0.0,60.0,3.0,0.0
2868,46.0,0.0,60.0,3.0,0.0
2869,70.0,0.0,60.0,2.0,0.0
2870,82.0,0.0,60.0,1.0,0.0
2871,82.0,0.0,60.0,0.0,0.0
2872,94.0,0.0,60.0,0.0,0.0
2873,66.0,0.0,60.0,4.0,0.0
2874,54.0,54.0,60.0,4.0,0.0
2875,70.0,66.0,120.0,4.0,0.0
2876,70.0,0.0,60.0,1.0,0.0
2877,82.0,0.0,60.0,2.0,0.0
2878,90.0,0.0,120.0,1.0,0.0
2879,54.0,66.0,120.0,3.0,0.0
2880,90.0,0.0,120.0,0.0,0.0
2881,90.0,0.0,120.0,2.0,0.0
2882,78.0,0.0,120.0,4.0,0.0
2883,78.0,0.0,120.0,2.0,0.0
2884,66.0,0.0,120.0,3.0,0.0
2885,54.0,54.0,60.0,4.0,0.0
2886,66.0,0.0,60.0,4.0,0.0
2887,78.0,0.0,120.0,1.0,0.0
2888,74.0,36.0,60.0,2.0,0.0
2889,86.0,0.0,60.0,2.0,0.0
2890,74.0,0.0,60.0,11.0,0.0
2891,86.0,0.0,60.0,1.0,0.0
2892,66.0,0.0,60.0,5.0,0.0
2893,54.0,0.0,60.0,4.0,0.0
2894,66.0,0.0,60.0,4.0,0.0
2895,78.0,0.0,60.0,5.0,0.0
2896,62.0,0.0,60.0,12.0,0.0
2897,74.0,66.0,120.0,4.0,0.0
2898,74.0,0.0,60.0,1.0,0.0
2899,54.0,18.0,90.0,6.0,0.0
2900,50.0,0.0,60.0,3.0,0.0
2901,86.0,0.0,60.0,8.0,0.0
2902,98.0,0.0,60.0,0.0,0.0
2903,86.0,0.0,60.0,0.0,0.0
2904,50.0,0.0,60.0,13.0,0.0
2905,62.0,0.0,60.0,3.0,0.0
2906,73.0,0.0,60.0,2.0,0.0
2907,85.0,0.0,60.0,8.0,0.0
2908,49.0,0.0,60.0,3.0,0.0
2909,61.0,0.0,60.0,3.0,0.0
2910,85.0,0.0,60.0,1.0,0.0
2911,85.0,0.0,60.0,0.0,0.0
2912,97.0,0.0,60.0,0.0,0.0
2913,54.0,0.0,60.0,4.0,0.0
2914,85.0,0.0,60.0,2.0,0.0
2915,73.0,0.0,60.0,11.0,0.0
2916,49.0,0.0,60.0,13.0,0.0
2917,73.0,0.0,60.0,1.0,0.0
2918,61.0,0.0,60.0,12.0,0.0
2919,73.0,66.0,120.0,4.0,0.0
2920,54.0,18.0,90.0,6.0,0.0
2921,66.0,36.0,60.0,4.0,0.0
2922,66.0,0.0,60.0,5.0,0.0
2923,78.0,0.0,60.0,5.0,0.0
2924,83.0,0.0,60.0,0.0,0.0
2925,71.0,0.0,60.0,2.0,0.0
2926,83.0,0.0,60.0,2.0,0.0
2927,47.0,0.0,60.0,13.0,0.0
2928,54.0,18.0,90.0,6.0,0.0
2929,71.0,0.0,60.0,11.0,0.0
2930,95.0,0.0,60.0,0.0,0.0
2931,54.0,0.0,60.0,4.0,0.0
2932,71.0,66.0,120.0,4.0,0.0
2933,66.0,0.0,60.0,4.0,0.0
2934,83.0,36.0,60.0,1.0,0.0
2935,83.0,0.0,60.0,8.0,0.0
2936,78.0,0.0,60.0,5.0,0.0
2937,59.0,0.0,60.0,12.0,0.0
2938,66.0,0.0,60.0,5.0,0.0
2939,59.0,0.0,60.0,3.0,0.0
2940,47.0,0.0,60.0,3.0,0.0
2941,71.0,0.0,60.0,1.0,0.0
2942,54.0,0.0,120.0,13.0,0.0
2943,78.0,0.0,60.0,5.0,0.0
2944,78.0,0.0,120.0,2.0,0.0
2945,90.0,0.0,120.0,0.0,0.0
2946,66.0,0.0,60.0,5.0,0.0
2947,54.0,0.0,60.0,4.0,0.0
2948,78.0,0.0,120.0,1.0,0.0
2949,66.0,36.0,60.0,4.0,0.0
2950,78.0,0.0,120.0,11.0,0.0
2951,54.0,0.0,120.0,3.0,0.0
2952,66.0,0.0,120.0,3.0,0.0
2953,90.0,0.0,120.0,1.0,0.0
2954,90.0,0.0,120.0,8.0,0.0
2955,78.0,0.0,120.0,4.0,0.0
2956,66.0,0.0,120.0,12.0,0.0
2957,54.0,18.0,90.0,6.0,0.0
2958,90.0,66.0,120.0,2.0,0.0
2959,86.0,0.0,60.0,0.0,0.0
2960,74.0,0.0,60.0,0.0,0.0
2961,38.0,0.0,60.0,13.0,0.0
2962,50.0,0.0,60.0,3.0,0.0
2963,62.0,0.0,60.0,11.0,0.0
2964,62.0,0.0,60.0,3.0,0.0
2965,74.0,0.0,60.0,1.0,0.0
2966,62.0,0.0,60.0,8.0,0.0
2967,54.0,18.0,90.0,6.0,0.0
2968,74.0,0.0,60.0,2.0,0.0
2969,62.0,0.0,60.0,2.0,0.0
2970,74.0,66.0,120.0,4.0,0.0
2971,66.0,36.0,60.0,4.0,0.0
2972,54.0,0.0,60.0,4.0,0.0
2973,78.0,0.0,60.0,5.0,0.0
2974,62.0,0.0,60.0,1.0,0.0
2975,50.0,0.0,60.0,12.0,0.0
2976,66.0,0.0,60.0,5.0,0.0
2977,54.0,0.0,60.0,4.0,0.0
2978,66.0,0.0,60.0,4.0,0.0
2979,73.0,66.0,120.0,4.0,0.0
2980,54.0,18.0,90.0,6.0,0.0
2981,73.0,0.0,60.0,1.0,0.0
2982,61.0,0.0,60.0,8.0,0.0
2983,66.0,0.0,60.0,5.0,0.0
2984,61.0,0.0,60.0,2.0,0.0
2985,73.0,0.0,60.0,2.0,0.0
2986,61.0,0.0,60.0,1.0,0.0
2987,49.0,36.0,60.0,12.0,0.0
2988,78.0,0.0,60.0,5.0,0.0
2989,37.0,0.0,60.0,13.0,0.0
2990,73.0,0.0,60.0,0.0,0.0
2991,85.0,0.0,60.0,0.0,0.0
2992,61.0,0.0,60.0,11.0,0.0
2993,49.0,0.0,60.0,3.0,0.0
2994,61.0,0.0,60.0,3.0,0.0
2995,59.0,36.0,60.0,11.0,0.0
2996,66.0,0.0,60.0,5.0,0.0
2997,78.0,0.0,60.0,5.0,0.0
2998,71.0,66.0,120.0,4.0,0.0
2999,59.0,0.0,60.0,2.0,0.0
3000,71.0,0.0,60.0,2.0,0.0
3001,71.0,0.0,60.0,0.0,0.0
3002,83.0,0.0,60.0,0.0,0.0
3003,35.0,0.0,60.0,13.0,0.0
3004,66.0,0.0,60.0,4.0,0.0
3005,54.0,0.0,60.0,4.0,0.0
3006,47.0,0.0,60.0,3.0,0.0
3007,59.0,0.0,60.0,3.0,0.0
3008,47.0,0.0,60.0,12.0,0.0
3009,59.0,0.0,60.0,8.0,0.0
3010,59.0,0.0,60.0,1.0,0.0
3011,71.0,0.0,60.0,1.0,0.0
3012,54.0,18.0,90.0,6.0,0.0
3013,63.0,0.0,60.0,11.0,0.0
3014,66.0,0.0,60.0,11.0,0.0
3015,81.0,0.0,60.0,8.0,0.0
3016,69.0,0.0,120.0,4.0,0.0
3017,69.0,36.0,60.0,10.0,0.0
3018,54.0,18.0,90.0,4.0,0.0
3019,60.0,0.0,120.0,2.0,0.0
3020,54.0,0.0,90.0,6.0,0.0
3021,36.0,0.0,60.0,13.0,0.0
3022,60.0,0.0,60.0,3.0,0.0
3023,63.0,0.0,60.0,3.0,0.0
3024,81.0,0.0,60.0,1.0,0.0
3025,75.0,0.0,60.0,1.0,0.0
3026,87.0,0.0,60.0,0.0,0.0
3027,93.0,0.0,60.0,0.0,0.0
3028,78.0,0.0,60.0,5.0,0.0
3029,66.0,0.0,60.0,5.0,0.0
3030,72.0,66.0,120.0,2.0,0.0
3031,48.0,0.0,60.0,12.0,0.0
3032,63.0,36.0,60.0,11.0,0.0
3033,93.0,0.0,60.0,0.0,0.0
3034,63.0,0.0,60.0,3.0,0.0
3035,60.0,0.0,60.0,3.0,0.0
3036,81.0,0.0,60.0,8.0,0.0
3037,54.0,0.0,90.0,6.0,0.0
3038,66.0,66.0,120.0,4.0,0.0
3039,66.0,0.0,60.0,11.0,0.0
3040,69.0,0.0,60.0,10.0,0.0
3041,48.0,0.0,60.0,13.0,0.0
3042,54.0,18.0,90.0,4.0,0.0
3043,78.0,0.0,60.0,5.0,0.0
3044,87.0,0.0,60.0,0.0,0.0
3045,66.0,0.0,60.0,5.0,0.0
3046,75.0,0.0,60.0,1.0,0.0
3047,81.0,0.0,60.0,1.0,0.0
3048,60.0,0.0,60.0,12.0,0.0
3049,69.0,0.0,60.0,2.0,0.0
3050,78.0,0.0,60.0,2.0,0.0
3051,92.0,0.0,60.0,0.0,0.0
3052,66.0,36.0,60.0,5.0,0.0
3053,78.0,0.0,60.0,5.0,0.0
3054,87.0,0.0,60.0,0.0,0.0
3055,68.0,0.0,60.0,10.0,0.0
3056,60.0,0.0,60.0,12.0,0.0
3057,48.0,0.0,60.0,13.0,0.0
3058,63.0,0.0,60.0,11.0,0.0
3059,63.0,0.0,60.0,3.0,0.0
3060,60.0,0.0,60.0,3.0,0.0
3061,78.0,0.0,60.0,2.0,0.0
3062,69.0,0.0,60.0,2.0,0.0
3063,54.0,0.0,90.0,6.0,0.0
3064,75.0,0.0,60.0,1.0,0.0
3065,66.0,66.0,120.0,4.0,0.0
3066,80.0,0.0,60.0,1.0,0.0
3067,54.0,18.0,90.0,4.0,0.0
3068,80.0,0.0,60.0,8.0,0.0
3069,66.0,0.0,60.0,11.0,0.0
3070,63.0,0.0,60.0,3.0,0.0
3071,78.0,0.0,60.0,1.0,0.0
3072,54.0,18.0,90.0,4.0,0.0
3073,66.0,126.0,120.0,4.0,0.0
3074,63.0,0.0,60.0,11.0,0.0
3075,66.0,0.0,60.0,11.0,0.0
3076,48.0,0.0,60.0,13.0,0.0
3077,78.0,0.0,60.0,8.0,0.0
3078,54.0,0.0,90.0,6.0,0.0
3079,78.0,0.0,60.0,2.0,0.0
3080,75.0,0.0,60.0,1.0,0.0
3081,60.0,0.0,60.0,3.0,0.0
3082,87.0,0.0,60.0,0.0,0.0
3083,90.0,0.0,60.0,0.0,0.0
3084,60.0,0.0,60.0,12.0,0.0
3085,78.0,0.0,60.0,5.0,0.0
3086,66.0,36.0,60.0,5.0,0.0
3087,69.0,0.0,60.0,2.0,0.0
3088,66.0,0.0,60.0,10.0,0.0
3089,73.0,0.0,1740.0,2.0,0.0
3090,61.0,0.0,1740.0,2.0,0.0
3091,61.0,0.0,1740.0,3.0,0.0
3092,37.0,0.0,780.0,13.0,0.0
3093,73.0,72.0,1740.0,1.0,0.0
3094,49.0,72.0,780.0,12.0,0.0
3095,85.0,0.0,1740.0,1.0,0.0
3096,61.0,48.0,180.0,11.0,0.0
3097,73.0,0.0,120.0,5.0,0.0
3098,61.0,72.0,120.0,5.0,0.0
3099,49.0,0.0,1740.0,3.0,0.0
3100,49.0,0.0,120.0,6.0,0.0
3101,61.0,0.0,780.0,4.0,0.0
3102,73.0,0.0,120.0,10.0,0.0
3103,85.0,48.0,900.0,8.0,0.0
3104,49.0,0.0,780.0,4.0,0.0
3105,97.0,0.0,1740.0,0.0,0.0
3106,85.0,0.0,1740.0,0.0,0.0
3107,61.0,120.0,120.0,10.0,0.0
3108,62.0,120.0,120.0,10.0,0.0
3109,61.0,120.0,120.0,10.0,0.0
3110,62.0,120.0,120.0,10.0,0.0
3111,61.0,48.0,120.0,10.0,0.0
3112,62.0,72.0,120.0,10.0,0.0
3113,61.0,120.0,120.0,10.0,0.0
3114,68.0,120.0,120.0,10.0,0.0
3115,83.0,0.0,120.0,8.0,0.0
3116,41.0,0.0,120.0,13.0,0.0
3117,53.0,0.0,120.0,12.0,0.0
3118,73.0,0.0,780.0,4.0,0.0
3119,49.0,0.0,120.0,6.0,0.0
3120,73.0,0.0,120.0,5.0,0.0
3121,73.0,0.0,120.0,11.0,0.0
3122,61.0,0.0,120.0,5.0,0.0
3123,61.0,120.0,120.0,10.0,0.0
3124,73.0,0.0,120.0,5.0,0.0
3125,61.0,0.0,120.0,5.0,0.0
3126,54.0,120.0,120.0,12.0,0.0
3127,69.0,0.0,120.0,10.0,0.0
3128,49.0,0.0,120.0,6.0,0.0
3129,74.0,0.0,120.0,11.0,0.0
3130,81.0,0.0,120.0,8.0,0.0
3131,42.0,0.0,120.0,13.0,0.0
3132,61.0,120.0,120.0,10.0,0.0
3133,80.0,0.0,120.0,8.0,0.0
3134,71.0,0.0,120.0,10.0,0.0
3135,44.0,0.0,120.0,13.0,0.0
3136,49.0,0.0,120.0,6.0,0.0
3137,56.0,0.0,120.0,12.0,0.0
3138,73.0,120.0,120.0,5.0,0.0
3139,61.0,0.0,120.0,5.0,0.0
3140,77.0,0.0,120.0,11.0,0.0
3141,61.0,48.0,120.0,10.0,0.0
3142,78.0,0.0,120.0,11.0,0.0
3143,73.0,0.0,120.0,5.0,0.0
3144,61.0,120.0,120.0,5.0,0.0
3145,49.0,0.0,120.0,6.0,0.0
3146,73.0,0.0,120.0,10.0,0.0
3147,57.0,0.0,120.0,12.0,0.0
3148,78.0,0.0,120.0,8.0,0.0
3149,45.0,0.0,120.0,13.0,0.0
3150,61.0,120.0,120.0,10.0,0.0
3151,74.0,0.0,120.0,1.0,0.0
3152,47.0,0.0,120.0,13.0,0.0
3153,61.0,0.0,120.0,5.0,0.0
3154,74.0,0.0,120.0,10.0,0.0
3155,86.0,120.0,120.0,0.0,0.0
3156,89.0,0.0,120.0,0.0,0.0
3157,49.0,0.0,120.0,6.0,0.0
3158,86.0,0.0,120.0,1.0,0.0
3159,73.0,0.0,120.0,5.0,0.0
3160,71.0,0.0,120.0,4.0,0.0
3161,77.0,0.0,120.0,8.0,0.0
3162,59.0,0.0,120.0,12.0,0.0
3163,61.0,0.0,120.0,3.0,0.0
3164,77.0,0.0,120.0,2.0,0.0
3165,65.0,0.0,120.0,2.0,0.0
3166,49.0,0.0,120.0,3.0,0.0
3167,80.0,0.0,120.0,11.0,0.0
3168,61.0,120.0,120.0,10.0,0.0
3169,69.0,0.0,120.0,4.0,0.0
3170,61.0,0.0,120.0,3.0,0.0
3171,85.0,0.0,120.0,1.0,0.0
3172,78.0,120.0,120.0,2.0,0.0
3173,66.0,0.0,120.0,2.0,0.0
3174,49.0,0.0,120.0,6.0,0.0
3175,49.0,0.0,120.0,3.0,0.0
3176,73.0,0.0,120.0,1.0,0.0
3177,61.0,0.0,120.0,5.0,0.0
3178,78.0,0.0,120.0,11.0,0.0
3179,73.0,0.0,120.0,5.0,0.0
3180,57.0,0.0,120.0,12.0,0.0
3181,73.0,0.0,120.0,10.0,0.0
3182,85.0,0.0,120.0,0.0,0.0
3183,90.0,0.0,120.0,0.0,0.0
3184,45.0,0.0,120.0,13.0,0.0
3185,78.0,0.0,120.0,8.0,0.0
3186,61.0,120.0,120.0,10.0,0.0
3187,73.0,0.0,120.0,5.0,0.0
3188,77.0,0.0,120.0,11.0,0.0
3189,80.0,0.0,120.0,2.0,0.0
3190,77.0,0.0,120.0,2.0,0.0
3191,49.0,0.0,120.0,6.0,0.0
3192,61.0,0.0,120.0,5.0,0.0
3193,92.0,0.0,120.0,0.0,0.0
3194,89.0,0.0,120.0,0.0,0.0
3195,44.0,0.0,120.0,13.0,0.0
3196,68.0,0.0,120.0,4.0,0.0
3197,85.0,0.0,120.0,1.0,0.0
3198,73.0,0.0,120.0,1.0,0.0
3199,56.0,0.0,120.0,12.0,0.0
3200,49.0,0.0,120.0,3.0,0.0
3201,61.0,0.0,120.0,3.0,0.0
3202,80.0,0.0,120.0,8.0,0.0
3203,71.0,120.0,120.0,10.0,0.0
3204,61.0,120.0,120.0,10.0,0.0
3205,81.0,0.0,120.0,8.0,0.0
3206,66.0,0.0,120.0,4.0,0.0
3207,90.0,0.0,120.0,0.0,0.0
3208,69.0,0.0,120.0,10.0,0.0
3209,61.0,0.0,120.0,5.0,0.0
3210,73.0,0.0,120.0,5.0,0.0
3211,85.0,0.0,120.0,1.0,0.0
3212,73.0,0.0,120.0,1.0,0.0
3213,78.0,0.0,120.0,11.0,0.0
3214,54.0,0.0,120.0,12.0,0.0
3215,93.0,0.0,120.0,0.0,0.0
3216,42.0,0.0,120.0,13.0,0.0
3217,49.0,0.0,120.0,3.0,0.0
3218,61.0,0.0,120.0,3.0,0.0
3219,78.0,120.0,120.0,2.0,0.0
3220,81.0,0.0,120.0,2.0,0.0
3221,49.0,0.0,120.0,6.0,0.0
3222,61.0,120.0,120.0,10.0,0.0
3223,49.0,0.0,120.0,6.0,0.0
3224,92.0,0.0,240.0,0.0,0.0
3225,61.0,0.0,240.0,4.0,0.0
3226,80.0,0.0,240.0,2.0,0.0
3227,41.0,0.0,240.0,13.0,0.0
3228,80.0,120.0,120.0,5.0,0.0
3229,73.0,0.0,240.0,1.0,0.0
3230,85.0,0.0,240.0,1.0,0.0
3231,68.0,0.0,120.0,10.0,0.0
3232,49.0,0.0,240.0,3.0,0.0
3233,61.0,0.0,240.0,3.0,0.0
3234,83.0,0.0,240.0,8.0,0.0
3235,73.0,0.0,240.0,8.0,0.0
3236,68.0,0.0,240.0,4.0,0.0
3237,73.0,0.0,120.0,5.0,0.0
3238,95.0,0.0,240.0,0.0,0.0
3239,71.0,0.0,240.0,11.0,0.0
3240,61.0,0.0,240.0,11.0,0.0
3241,80.0,0.0,240.0,11.0,0.0
3242,53.0,120.0,240.0,12.0,0.0
3243,83.0,0.0,240.0,2.0,0.0
3244,61.0,0.0,120.0,10.0,0.0
3245,62.0,120.0,120.0,10.0,0.0
3246,61.0,120.0,120.0,10.0,0.0
3247,78.0,0.0,120.0,5.0,0.0
3248,42.0,0.0,240.0,13.0,0.0
3249,66.0,120.0,120.0,10.0,0.0
3250,69.0,0.0,240.0,11.0,0.0
3251,78.0,0.0,240.0,11.0,0.0
3252,61.0,0.0,240.0,11.0,0.0
3253,85.0,0.0,240.0,1.0,0.0
3254,73.0,0.0,240.0,1.0,0.0
3255,66.0,0.0,240.0,4.0,0.0
3256,93.0,0.0,240.0,0.0,0.0
3257,61.0,0.0,240.0,3.0,0.0
3258,69.0,0.0,240.0,4.0,0.0
3259,78.0,0.0,240.0,2.0,0.0
3260,81.0,0.0,240.0,8.0,0.0
3261,73.0,0.0,240.0,8.0,0.0
3262,54.0,0.0,240.0,12.0,0.0
3263,49.0,0.0,240.0,3.0,0.0
3264,54.0,0.0,120.0,6.0,0.0
3265,90.0,120.0,240.0,0.0,0.0
3266,66.0,0.0,120.0,5.0,0.0
3267,81.0,0.0,240.0,2.0,0.0
3268,61.0,0.0,120.0,10.0,0.0
3269,62.0,120.0,120.0,10.0,0.0
3270,61.0,120.0,120.0,10.0,0.0
3271,73.0,0.0,240.0,8.0,0.0
3272,61.0,0.0,900.0,11.0,0.0
3273,49.0,0.0,120.0,12.0,0.0
3274,73.0,0.0,240.0,1.0,0.0
3275,80.0,0.0,240.0,8.0,0.0
3276,92.0,0.0,240.0,0.0,0.0
3277,49.0,0.0,900.0,3.0,0.0
3278,85.0,0.0,240.0,1.0,0.0
3279,61.0,0.0,240.0,4.0,0.0
3280,68.0,0.0,240.0,4.0,0.0
3281,61.0,48.0,900.0,3.0,0.0
3282,77.0,0.0,240.0,2.0,0.0
3283,89.0,120.0,240.0,0.0,0.0
3284,49.0,120.0,120.0,6.0,0.0
3285,80.0,0.0,240.0,2.0,0.0
3286,61.0,0.0,120.0,5.0,0.0
3287,77.0,0.0,240.0,10.0,0.0
3288,37.0,0.0,120.0,13.0,0.0
3289,73.0,0.0,120.0,5.0,0.0
3290,73.0,0.0,240.0,10.0,0.0
3291,49.0,0.0,120.0,13.0,0.0
3292,61.0,0.0,120.0,12.0,0.0
3293,62.0,120.0,120.0,12.0,0.0
3294,50.0,0.0,120.0,13.0,0.0
3295,61.0,0.0,120.0,12.0,0.0
3296,49.0,120.0,120.0,13.0,0.0
3297,62.0,120.0,120.0,12.0,0.0
3298,50.0,0.0,120.0,13.0,0.0
3299,49.0,120.0,120.0,13.0,0.0
3300,61.0,0.0,120.0,12.0,0.0
3301,62.0,72.0,120.0,12.0,0.0
3302,50.0,0.0,120.0,13.0,0.0
3303,61.0,0.0,120.0,12.0,0.0
3304,49.0,84.0,120.0,13.0,0.0
3305,73.0,36.0,780.0,2.0,0.0
3306,85.0,0.0,780.0,0.0,0.0
3307,49.0,0.0,120.0,6.0,0.0
3308,97.0,0.0,780.0,0.0,0.0
3309,49.0,0.0,780.0,4.0,0.0
3310,61.0,0.0,120.0,5.0,0.0
3311,59.0,0.0,120.0,12.0,0.0
3312,73.0,0.0,120.0,5.0,0.0
3313,59.0,120.0,120.0,11.0,0.0
3314,61.0,36.0,90.0,10.0,0.0
3315,47.0,0.0,120.0,3.0,0.0
3316,59.0,0.0,120.0,3.0,0.0
3317,61.0,0.0,780.0,4.0,0.0
3318,85.0,0.0,780.0,1.0,0.0
3319,73.0,0.0,90.0,8.0,0.0
3320,47.0,0.0,120.0,13.0,0.0
3321,73.0,0.0,120.0,10.0,0.0
3322,37.0,84.0,120.0,13.0,0.0
3323,49.0,0.0,120.0,12.0,0.0
3324,85.0,0.0,120.0,8.0,0.0
3325,61.0,0.0,120.0,5.0,0.0
3326,73.0,0.0,120.0,5.0,0.0
3327,49.0,0.0,120.0,6.0,0.0
3328,74.0,0.0,90.0,10.0,0.0
3329,57.0,0.0,120.0,12.0,0.0
3330,57.0,120.0,120.0,3.0,0.0
3331,86.0,36.0,90.0,8.0,0.0
3332,45.0,0.0,120.0,3.0,0.0
3333,45.0,0.0,120.0,13.0,0.0
3334,57.0,0.0,120.0,11.0,0.0
3335,73.0,0.0,120.0,10.0,0.0
3336,85.0,0.0,120.0,8.0,0.0
3337,37.0,0.0,120.0,13.0,0.0
3338,49.0,84.0,120.0,12.0,0.0
3339,61.0,0.0,120.0,5.0,0.0
3340,74.0,36.0,90.0,10.0,0.0
3341,44.0,0.0,120.0,13.0,0.0
3342,49.0,0.0,120.0,6.0,0.0
3343,56.0,0.0,120.0,12.0,0.0
3344,56.0,0.0,120.0,11.0,0.0
3345,73.0,120.0,120.0,5.0,0.0
3346,86.0,0.0,90.0,8.0,0.0
3347,44.0,0.0,120.0,3.0,0.0
3348,56.0,0.0,120.0,3.0,0.0
3349,73.0,48.0,120.0,10.0,0.0
3350,85.0,0.0,120.0,8.0,0.0
3351,37.0,0.0,120.0,13.0,0.0
3352,49.0,0.0,120.0,12.0,0.0
3353,49.0,0.0,120.0,6.0,0.0
3354,61.0,0.0,120.0,5.0,0.0
3355,73.0,0.0,120.0,5.0,0.0
3356,54.0,0.0,120.0,11.0,0.0
3357,42.0,120.0,120.0,13.0,0.0
3358,42.0,0.0,120.0,3.0,0.0
3359,54.0,0.0,120.0,3.0,0.0
3360,86.0,36.0,90.0,8.0,0.0
3361,54.0,0.0,120.0,12.0,0.0
3362,74.0,0.0,90.0,10.0,0.0
3363,85.0,0.0,120.0,8.0,0.0
3364,37.0,84.0,120.0,13.0,0.0
3365,49.0,0.0,120.0,12.0,0.0
3366,73.0,0.0,120.0,10.0,0.0
3367,83.0,0.0,120.0,1.0,0.0
3368,49.0,0.0,120.0,6.0,0.0
3369,61.0,0.0,120.0,5.0,0.0
3370,73.0,0.0,120.0,5.0,0.0
3371,71.0,0.0,90.0,10.0,0.0
3372,53.0,0.0,120.0,11.0,0.0
3373,41.0,0.0,120.0,13.0,0.0
3374,53.0,0.0,120.0,12.0,0.0
3375,61.0,0.0,120.0,4.0,0.0
3376,53.0,0.0,120.0,3.0,0.0
3377,41.0,0.0,120.0,3.0,0.0
3378,71.0,120.0,120.0,2.0,0.0
3379,83.0,0.0,120.0,0.0,0.0
3380,95.0,0.0,120.0,0.0,0.0
3381,49.0,0.0,120.0,4.0,0.0
3382,83.0,36.0,90.0,8.0,0.0
3383,49.0,0.0,120.0,12.0,0.0
3384,73.0,0.0,120.0,10.0,0.0
3385,85.0,0.0,120.0,8.0,0.0
3386,37.0,84.0,120.0,13.0,0.0
3387,61.0,0.0,120.0,4.0,0.0
3388,69.0,36.0,90.0,10.0,0.0
3389,54.0,0.0,120.0,12.0,0.0
3390,61.0,0.0,120.0,5.0,0.0
3391,49.0,0.0,120.0,4.0,0.0
3392,49.0,0.0,120.0,6.0,0.0
3393,81.0,0.0,120.0,0.0,0.0
3394,93.0,0.0,120.0,0.0,0.0
3395,42.0,120.0,120.0,3.0,0.0
3396,54.0,0.0,120.0,3.0,0.0
3397,81.0,0.0,90.0,8.0,0.0
3398,69.0,0.0,120.0,2.0,0.0
3399,54.0,0.0,120.0,11.0,0.0
3400,81.0,0.0,120.0,1.0,0.0
3401,73.0,0.0,120.0,5.0,0.0
3402,42.0,0.0,120.0,13.0,0.0
3403,73.0,0.0,120.0,10.0,0.0
3404,37.0,0.0,120.0,13.0,0.0
3405,49.0,0.0,120.0,12.0,0.0
3406,85.0,84.0,120.0,8.0,0.0
3407,68.0,0.0,120.0,2.0,0.0
3408,61.0,0.0,120.0,5.0,0.0
3409,73.0,0.0,120.0,5.0,0.0
3410,80.0,0.0,120.0,1.0,0.0
3411,56.0,120.0,120.0,11.0,0.0
3412,80.0,36.0,90.0,8.0,0.0
3413,44.0,0.0,120.0,13.0,0.0
3414,68.0,0.0,90.0,10.0,0.0
3415,56.0,0.0,120.0,3.0,0.0
3416,80.0,0.0,120.0,0.0,0.0
3417,61.0,0.0,120.0,4.0,0.0
3418,49.0,0.0,120.0,4.0,0.0
3419,56.0,0.0,120.0,12.0,0.0
3420,92.0,0.0,120.0,0.0,0.0
3421,49.0,0.0,120.0,6.0,0.0
3422,44.0,0.0,120.0,3.0,0.0
3423,49.0,0.0,120.0,12.0,0.0
3424,85.0,0.0,120.0,8.0,0.0
3425,37.0,0.0,120.0,13.0,0.0
3426,73.0,84.0,120.0,10.0,0.0
3427,78.0,0.0,120.0,5.0,0.0
3428,57.0,0.0,120.0,11.0,0.0
3429,90.0,0.0,120.0,0.0,0.0
3430,78.0,0.0,120.0,0.0,0.0
3431,78.0,0.0,120.0,1.0,0.0
3432,66.0,0.0,120.0,5.0,0.0
3433,66.0,36.0,90.0,10.0,0.0
3434,45.0,0.0,120.0,3.0,0.0
3435,57.0,0.0,120.0,12.0,0.0
3436,66.0,120.0,120.0,2.0,0.0
3437,66.0,0.0,120.0,4.0,0.0
3438,54.0,0.0,120.0,4.0,0.0
3439,78.0,0.0,90.0,8.0,0.0
3440,57.0,0.0,120.0,3.0,0.0
3441,54.0,0.0,120.0,6.0,0.0
3442,45.0,0.0,120.0,13.0,0.0
3443,73.0,0.0,120.0,10.0,0.0
3444,49.0,0.0,120.0,12.0,0.0
3445,85.0,0.0,120.0,8.0,0.0
3446,37.0,84.0,120.0,13.0,0.0
3447,65.0,0.0,90.0,10.0,0.0
3448,62.0,0.0,120.0,4.0,0.0
3449,77.0,0.0,120.0,0.0,0.0
3450,89.0,0.0,120.0,0.0,0.0
3451,50.0,0.0,120.0,4.0,0.0
3452,77.0,0.0,120.0,1.0,0.0
3453,65.0,120.0,120.0,2.0,0.0
3454,77.0,36.0,90.0,8.0,0.0
3455,59.0,84.0,240.0,12.0,0.0
3456,59.0,0.0,240.0,11.0,0.0
3457,59.0,0.0,240.0,3.0,0.0
3458,47.0,0.0,240.0,13.0,0.0
3459,47.0,0.0,240.0,3.0,0.0
3460,62.0,0.0,120.0,10.0,0.0
3461,86.0,0.0,120.0,8.0,0.0
3462,62.0,0.0,120.0,4.0,0.0
3463,50.0,0.0,120.0,4.0,0.0
3464,74.0,0.0,90.0,8.0,0.0
3465,59.0,36.0,90.0,10.0,0.0
3466,78.0,0.0,120.0,1.0,0.0
3467,78.0,0.0,120.0,0.0,0.0
3468,66.0,120.0,120.0,2.0,0.0
3469,90.0,0.0,120.0,0.0,0.0
3470,86.0,84.0,120.0,8.0,0.0
3471,62.0,0.0,120.0,10.0,0.0
3472,80.0,0.0,120.0,1.0,0.0
3473,50.0,120.0,120.0,4.0,0.0
3474,45.0,0.0,240.0,13.0,0.0
3475,68.0,0.0,120.0,2.0,0.0
3476,59.0,36.0,90.0,10.0,0.0
3477,57.0,0.0,240.0,3.0,0.0
3478,45.0,0.0,240.0,3.0,0.0
3479,62.0,0.0,120.0,4.0,0.0
3480,74.0,0.0,90.0,8.0,0.0
3481,80.0,0.0,120.0,0.0,0.0
3482,92.0,0.0,120.0,0.0,0.0
3483,71.0,0.0,240.0,11.0,0.0
3484,59.0,0.0,240.0,11.0,0.0
3485,57.0,0.0,240.0,12.0,0.0
3486,86.0,84.0,120.0,8.0,0.0
3487,62.0,0.0,120.0,10.0,0.0
3488,62.0,120.0,120.0,4.0,0.0
3489,50.0,0.0,120.0,4.0,0.0
3490,69.0,0.0,120.0,2.0,0.0
3491,93.0,0.0,120.0,0.0,0.0
3492,59.0,0.0,90.0,10.0,0.0
3493,81.0,0.0,120.0,0.0,0.0
3494,81.0,0.0,120.0,1.0,0.0
3495,74.0,36.0,90.0,8.0,0.0
3496,86.0,0.0,120.0,8.0,0.0
3497,62.0,84.0,120.0,10.0,0.0
3498,59.0,0.0,240.0,3.0,0.0
3499,71.0,0.0,240.0,2.0,0.0
3500,50.0,0.0,120.0,4.0,0.0
3501,62.0,72.0,120.0,4.0,0.0
3502,71.0,48.0,180.0,4.0,0.0
3503,71.0,36.0,90.0,10.0,0.0
3504,83.0,0.0,240.0,1.0,0.0
3505,74.0,0.0,90.0,8.0,0.0
3506,44.0,0.0,240.0,13.0,0.0
3507,59.0,0.0,240.0,11.0,0.0
3508,71.0,84.0,240.0,11.0,0.0
3509,71.0,0.0,240.0,3.0,0.0
3510,56.0,0.0,240.0,12.0,0.0
3511,83.0,0.0,240.0,0.0,0.0
3512,95.0,0.0,240.0,0.0,0.0
3513,86.0,0.0,120.0,8.0,0.0
3514,62.0,0.0,120.0,10.0,0.0
3515,74.0,0.0,90.0,8.0,0.0
3516,71.0,156.0,90.0,10.0,0.0
3517,62.0,84.0,120.0,10.0,0.0
3518,86.0,0.0,120.0,8.0,0.0
3519,53.0,0.0,240.0,12.0,0.0
3520,62.0,72.0,120.0,4.0,0.0
3521,69.0,48.0,180.0,4.0,0.0
3522,93.0,0.0,240.0,0.0,0.0
3523,95.0,84.0,240.0,0.0,0.0
3524,74.0,0.0,240.0,2.0,0.0
3525,74.0,36.0,90.0,8.0,0.0
3526,69.0,0.0,240.0,3.0,0.0
3527,71.0,0.0,240.0,2.0,0.0
3528,50.0,0.0,120.0,4.0,0.0
3529,57.0,0.0,240.0,3.0,0.0
3530,71.0,0.0,240.0,11.0,0.0
3531,59.0,0.0,240.0,11.0,0.0
3532,81.0,0.0,240.0,1.0,0.0
3533,83.0,0.0,240.0,1.0,0.0
3534,69.0,0.0,90.0,10.0,0.0
3535,41.0,0.0,240.0,13.0,0.0
3536,86.0,0.0,120.0,8.0,0.0
3537,62.0,0.0,120.0,10.0,0.0
3538,69.0,156.0,90.0,10.0,0.0
3539,74.0,0.0,90.0,8.0,0.0
3540,86.0,0.0,120.0,8.0,0.0
3541,62.0,84.0,120.0,10.0,0.0
3542,40.0,0.0,240.0,13.0,0.0
3543,95.0,0.0,240.0,0.0,0.0
3544,92.0,0.0,240.0,0.0,0.0
3545,64.0,72.0,120.0,4.0,0.0
3546,56.0,0.0,240.0,3.0,0.0
3547,76.0,0.0,240.0,2.0,0.0
3548,59.0,0.0,240.0,11.0,0.0
3549,80.0,0.0,90.0,8.0,0.0
3550,68.0,84.0,240.0,3.0,0.0
3551,71.0,0.0,240.0,11.0,0.0
3552,52.0,0.0,240.0,12.0,0.0
3553,71.0,36.0,90.0,10.0,0.0
3554,88.0,0.0,240.0,1.0,0.0
3555,68.0,48.0,180.0,4.0,0.0
3556,68.0,0.0,120.0,10.0,0.0
3557,83.0,0.0,120.0,8.0,0.0
3558,71.0,0.0,90.0,10.0,0.0
3559,80.0,156.0,90.0,8.0,0.0
3560,68.0,0.0,120.0,10.0,0.0
3561,83.0,84.0,120.0,8.0,0.0
3562,58.0,0.0,240.0,3.0,0.0
3563,34.0,0.0,240.0,13.0,0.0
3564,64.0,72.0,120.0,4.0,0.0
3565,76.0,36.0,90.0,10.0,0.0
3566,68.0,48.0,180.0,4.0,0.0
3567,74.0,0.0,90.0,8.0,0.0
3568,86.0,0.0,240.0,1.0,0.0
3569,46.0,84.0,240.0,12.0,0.0
3570,74.0,0.0,240.0,2.0,0.0
3571,76.0,0.0,240.0,11.0,0.0
3572,92.0,0.0,240.0,0.0,0.0
3573,86.0,0.0,120.0,8.0,0.0
3574,68.0,0.0,120.0,10.0,0.0
3575,76.0,0.0,90.0,10.0,0.0
3576,74.0,156.0,90.0,8.0,0.0
3577,86.0,0.0,120.0,8.0,0.0
3578,68.0,84.0,120.0,10.0,0.0
3579,57.0,0.0,180.0,4.0,0.0
3580,73.0,72.0,120.0,5.0,0.0
3581,61.0,0.0,120.0,5.0,0.0
3582,82.0,0.0,240.0,2.0,0.0
3583,79.0,0.0,240.0,2.0,0.0
3584,45.0,84.0,240.0,12.0,0.0
3585,61.0,0.0,240.0,3.0,0.0
3586,64.0,0.0,180.0,4.0,0.0
3587,64.0,0.0,240.0,3.0,0.0
3588,49.0,0.0,120.0,6.0,0.0
3589,85.0,0.0,240.0,1.0,0.0
3590,76.0,0.0,90.0,11.0,0.0
3591,33.0,0.0,240.0,13.0,0.0
3592,73.0,0.0,240.0,1.0,0.0
3593,91.0,0.0,240.0,0.0,0.0
3594,73.0,36.0,90.0,8.0,0.0
3595,94.0,0.0,240.0,0.0,0.0
3596,76.0,0.0,90.0,10.0,0.0
3597,67.0,0.0,120.0,10.0,0.0
3598,73.0,0.0,120.0,11.0,0.0
3599,88.0,0.0,120.0,8.0,0.0
3600,79.0,0.0,90.0,10.0,0.0
3601,76.0,0.0,90.0,11.0,0.0
3602,73.0,156.0,90.0,8.0,0.0
3603,73.0,84.0,120.0,11.0,0.0
3604,88.0,0.0,120.0,8.0,0.0
3605,76.0,0.0,120.0,10.0,0.0
3606,79.0,0.0,240.0,2.0,0.0
3607,73.0,36.0,90.0,8.0,0.0
3608,79.0,0.0,90.0,10.0,0.0
3609,73.0,72.0,120.0,5.0,0.0
3610,61.0,0.0,240.0,3.0,0.0
3611,49.0,0.0,120.0,6.0,0.0
3612,45.0,0.0,240.0,12.0,0.0
3613,45.0,48.0,180.0,4.0,0.0
3614,57.0,0.0,180.0,4.0,0.0
3615,76.0,0.0,90.0,11.0,0.0
3616,33.0,0.0,240.0,13.0,0.0
3617,61.0,0.0,120.0,5.0,0.0
3618,64.0,84.0,240.0,3.0,0.0
3619,81.0,0.0,240.0,2.0,0.0
3620,85.0,0.0,240.0,1.0,0.0
3621,93.0,0.0,240.0,0.0,0.0
3622,91.0,0.0,240.0,0.0,0.0
3623,64.0,0.0,180.0,4.0,0.0
3624,88.0,0.0,240.0,1.0,0.0
3625,73.0,0.0,120.0,11.0,0.0
3626,76.0,0.0,120.0,10.0,0.0
3627,88.0,0.0,120.0,8.0,0.0
3628,79.0,0.0,90.0,10.0,0.0
3629,76.0,156.0,90.0,11.0,0.0
3630,73.0,0.0,90.0,8.0,0.0
3631,76.0,0.0,120.0,10.0,0.0
3632,88.0,0.0,120.0,8.0,0.0
3633,64.0,120.0,720.0,3.0,0.0
3634,79.0,0.0,180.0,10.0,0.0
3635,33.0,0.0,180.0,13.0,0.0
3636,76.0,0.0,720.0,2.0,0.0
3637,79.0,0.0,720.0,2.0,0.0
3638,91.0,0.0,720.0,0.0,0.0
3639,73.0,120.0,15.0,11.0,0.0
3640,57.0,0.0,1860.0,4.0,0.0
3641,88.0,0.0,180.0,8.0,0.0
3642,61.0,0.0,120.0,5.0,0.0
3643,73.0,72.0,120.0,5.0,0.0
3644,49.0,0.0,120.0,6.0,0.0
3645,67.0,0.0,720.0,3.0,0.0
3646,64.0,48.0,1860.0,4.0,0.0
3647,45.0,0.0,180.0,12.0,0.0
3648,45.0,0.0,90.0,13.0,0.0
3649,57.0,0.0,90.0,12.0,0.0
3650,64.0,0.0,90.0,10.0,0.0
3651,61.0,0.0,90.0,11.0,0.0
3652,57.0,0.0,90.0,11.0,0.0
3653,67.0,120.0,90.0,8.0,0.0
3654,57.0,216.0,90.0,12.0,0.0
3655,45.0,0.0,90.0,13.0,0.0
3656,61.0,0.0,90.0,11.0,0.0
3657,67.0,0.0,90.0,8.0,0.0
3658,64.0,0.0,90.0,10.0,0.0
3659,57.0,0.0,90.0,11.0,0.0
3660,57.0,48.0,180.0,11.0,0.0
3661,61.0,0.0,180.0,11.0,0.0
3662,64.0,0.0,180.0,10.0,0.0
3663,57.0,0.0,180.0,12.0,0.0
3664,67.0,0.0,180.0,8.0,0.0
3665,45.0,0.0,180.0,13.0,0.0
3666,69.0,0.0,120.0,3.0,0.0
3667,81.0,0.0,120.0,2.0,0.0
3668,78.0,0.0,120.0,2.0,0.0
3669,93.0,0.0,120.0,0.0,0.0
3670,66.0,120.0,120.0,3.0,0.0
3671,83.0,0.0,120.0,2.0,0.0
3672,67.0,0.0,120.0,3.0,0.0
3673,67.0,120.0,240.0,3.0,0.0
3674,79.0,0.0,15.0,2.0,0.0
3675,71.0,240.0,15.0,3.0,0.0
3676,83.0,0.0,240.0,2.0,0.0
3677,95.0,0.0,15.0,0.0,0.0
3678,78.0,0.0,120.0,2.0,0.0
3679,93.0,0.0,120.0,0.0,0.0
3680,81.0,0.0,120.0,2.0,0.0
3681,66.0,0.0,120.0,3.0,0.0
3682,69.0,120.0,120.0,3.0,0.0
3683,79.0,0.0,120.0,2.0,0.0
3684,76.0,0.0,120.0,2.0,0.0
3685,91.0,240.0,120.0,0.0,0.0
3686,67.0,0.0,15.0,3.0,0.0
3687,64.0,0.0,15.0,3.0,0.0
3688,91.0,0.0,240.0,0.0,0.0
3689,76.0,0.0,240.0,2.0,0.0
3690,79.0,120.0,240.0,2.0,0.0
3691,66.0,0.0,120.0,3.0,0.0
3692,78.0,0.0,120.0,2.0,0.0
3693,74.0,72.0,120.0,2.0,0.0
3694,90.0,0.0,120.0,0.0,0.0
3695,62.0,0.0,120.0,3.0,0.0
3696,61.0,0.0,120.0,3.0,0.0
3697,88.0,240.0,120.0,0.0,0.0
3698,73.0,0.0,120.0,2.0,0.0
3699,76.0,0.0,15.0,2.0,0.0
3700,69.0,0.0,480.0,2.0,0.0
3701,64.0,0.0,15.0,3.0,0.0
3702,57.0,0.0,480.0,3.0,0.0
3703,62.0,0.0,720.0,4.0,0.0
3704,74.0,0.0,720.0,1.0,0.0
3705,88.0,0.0,240.0,0.0,0.0
3706,78.0,120.0,720.0,1.0,0.0
3707,66.0,0.0,720.0,4.0,0.0
3708,45.0,0.0,90.0,13.0,0.0
3709,86.0,0.0,240.0,0.0,0.0
3710,62.0,0.0,90.0,10.0,0.0
3711,57.0,0.0,90.0,12.0,0.0
3712,62.0,192.0,240.0,3.0,0.0
3713,74.0,0.0,240.0,2.0,0.0
3714,57.0,120.0,90.0,11.0,0.0
3715,66.0,0.0,90.0,8.0,0.0
3716,45.0,0.0,90.0,13.0,0.0
3717,62.0,24.0,90.0,10.0,0.0
3718,57.0,0.0,90.0,11.0,0.0
3719,57.0,0.0,90.0,12.0,0.0
3720,66.0,0.0,90.0,8.0,0.0
3721,45.0,0.0,180.0,13.0,0.0
3722,57.0,0.0,180.0,12.0,0.0
3723,57.0,0.0,180.0,11.0,0.0
3724,66.0,48.0,180.0,8.0,0.0
3725,62.0,0.0,180.0,10.0,0.0
3726,79.0,0.0,120.0,1.0,0.0
3727,67.0,0.0,120.0,4.0,0.0
3728,64.0,120.0,120.0,4.0,0.0
3729,76.0,0.0,120.0,1.0,0.0
3730,69.0,0.0,120.0,4.0,0.0
3731,66.0,240.0,15.0,4.0,0.0
3732,69.0,120.0,240.0,4.0,0.0
3733,78.0,0.0,15.0,1.0,0.0
3734,81.0,0.0,15.0,1.0,0.0
3735,76.0,0.0,120.0,1.0,0.0
3736,67.0,120.0,120.0,4.0,0.0
3737,64.0,0.0,120.0,4.0,0.0
3738,79.0,0.0,120.0,1.0,0.0
3739,62.0,0.0,15.0,4.0,0.0
3740,66.0,0.0,15.0,4.0,0.0
3741,90.0,120.0,240.0,0.0,0.0
3742,78.0,0.0,15.0,1.0,0.0
3743,74.0,240.0,15.0,1.0,0.0
3744,76.0,0.0,120.0,1.0,0.0
3745,73.0,0.0,120.0,1.0,0.0
3746,64.0,120.0,120.0,4.0,0.0
3747,88.0,0.0,120.0,0.0,0.0
3748,57.0,0.0,120.0,4.0,0.0
3749,62.0,0.0,120.0,4.0,0.0
3750,54.0,0.0,120.0,4.0,0.0
3751,86.0,0.0,15.0,0.0,0.0
3752,74.0,240.0,15.0,1.0,0.0
3753,79.0,0.0,720.0,2.0,0.0
3754,76.0,0.0,720.0,2.0,0.0
3755,64.0,0.0,1410.0,4.0,0.0
3756,57.0,30.0,1410.0,4.0,0.0
3757,64.0,120.0,720.0,3.0,0.0
3758,67.0,0.0,720.0,3.0,0.0
3759,69.0,192.0,480.0,1.0,0.0
3760,64.0,0.0,90.0,10.0,0.0
3761,67.0,0.0,90.0,8.0,0.0
3762,45.0,120.0,90.0,13.0,0.0
3763,57.0,0.0,90.0,12.0,0.0
3764,57.0,0.0,90.0,11.0,0.0
3765,61.0,0.0,90.0,11.0,0.0
3766,85.0,0.0,240.0,0.0,0.0
3767,73.0,0.0,240.0,1.0,0.0
3768,57.0,0.0,90.0,11.0,0.0
3769,61.0,0.0,90.0,11.0,0.0
3770,67.0,0.0,90.0,8.0,0.0
3771,64.0,24.0,90.0,10.0,0.0
3772,57.0,0.0,90.0,12.0,0.0
3773,45.0,0.0,90.0,13.0,0.0
3774,67.0,0.0,180.0,8.0,0.0
3775,64.0,48.0,180.0,10.0,0.0
3776,57.0,0.0,180.0,12.0,0.0
3777,57.0,0.0,180.0,11.0,0.0
3778,45.0,0.0,180.0,13.0,0.0
3779,61.0,0.0,180.0,11.0,0.0
3780,78.0,120.0,120.0,2.0,0.0
3781,66.0,0.0,120.0,3.0,0.0
3782,81.0,0.0,120.0,2.0,0.0
3783,69.0,0.0,120.0,3.0,0.0
3784,79.0,0.0,120.0,2.0,0.0
3785,83.0,0.0,120.0,2.0,0.0
3786,71.0,0.0,15.0,3.0,0.0
3787,67.0,240.0,15.0,3.0,0.0
3788,83.0,120.0,240.0,2.0,0.0
3789,79.0,0.0,240.0,2.0,0.0
3790,78.0,90.0,120.0,2.0,0.0
3791,69.0,0.0,120.0,3.0,0.0
3792,66.0,0.0,120.0,3.0,0.0
3793,81.0,0.0,120.0,2.0,0.0
3794,76.0,240.0,120.0,2.0,0.0
3795,79.0,0.0,120.0,2.0,0.0
3796,67.0,0.0,120.0,3.0,0.0
3797,64.0,0.0,120.0,3.0,0.0
3798,64.0,0.0,240.0,3.0,0.0
3799,45.0,24.0,1050.0,4.0,0.0
3800,67.0,120.0,240.0,3.0,0.0
3801,79.0,0.0,240.0,2.0,0.0
3802,76.0,0.0,240.0,2.0,0.0
3803,57.0,0.0,1050.0,4.0,0.0
3804,49.0,120.0,300.0,12.0,0.0
3805,69.0,0.0,240.0,2.0,0.0
3806,78.0,0.0,120.0,2.0,0.0
3807,61.0,0.0,300.0,8.0,0.0
3808,66.0,120.0,120.0,3.0,0.0
3809,37.0,0.0,300.0,13.0,0.0
3810,76.0,0.0,120.0,2.0,0.0
3811,64.0,0.0,120.0,3.0,0.0
3812,69.0,0.0,450.0,2.0,0.0
3813,78.0,0.0,720.0,2.0,0.0
3814,66.0,240.0,720.0,3.0,0.0
3815,57.0,60.0,15.0,3.0,0.0
3816,62.0,0.0,60.0,8.0,0.0
3817,38.0,120.0,60.0,13.0,0.0
3818,50.0,0.0,60.0,12.0,0.0
3819,41.0,0.0,60.0,13.0,0.0
3820,65.0,120.0,60.0,8.0,0.0
3821,53.0,0.0,60.0,12.0,0.0
3822,66.0,36.0,60.0,8.0,0.0
3823,54.0,0.0,60.0,12.0,0.0
3824,42.0,0.0,60.0,13.0,0.0
3825,45.0,0.0,120.0,13.0,0.0
3826,69.0,36.0,180.0,4.0,0.0
3827,69.0,72.0,120.0,8.0,0.0
3828,57.0,0.0,120.0,12.0,0.0
3829,45.0,24.0,810.0,4.0,0.0
3830,71.0,0.0,240.0,3.0,0.0
3831,83.0,72.0,240.0,2.0,0.0
3832,57.0,0.0,810.0,4.0,0.0
3833,69.0,0.0,450.0,3.0,0.0
3834,65.0,0.0,60.0,8.0,0.0
3835,69.0,0.0,720.0,1.0,0.0
3836,81.0,120.0,450.0,2.0,0.0
3837,81.0,240.0,720.0,0.0,0.0
3838,53.0,120.0,60.0,12.0,0.0
3839,41.0,0.0,60.0,13.0,0.0
3840,42.0,120.0,60.0,13.0,0.0
3841,66.0,0.0,60.0,8.0,0.0
3842,54.0,0.0,60.0,12.0,0.0
3843,57.0,0.0,60.0,12.0,0.0
3844,45.0,0.0,60.0,13.0,0.0
3845,69.0,120.0,60.0,8.0,0.0
3846,61.0,0.0,60.0,12.0,0.0
3847,73.0,0.0,60.0,8.0,0.0
3848,49.0,36.0,60.0,13.0,0.0
3849,50.0,0.0,120.0,13.0,0.0
3850,62.0,0.0,120.0,12.0,0.0
3851,69.0,36.0,180.0,4.0,0.0
3852,74.0,72.0,120.0,8.0,0.0
3853,86.0,72.0,240.0,0.0,0.0
3854,74.0,0.0,240.0,1.0,0.0
3855,45.0,0.0,810.0,4.0,0.0
3856,57.0,24.0,810.0,4.0,0.0
3857,40.0,120.0,60.0,13.0,0.0
3858,64.0,0.0,60.0,8.0,0.0
3859,61.0,0.0,720.0,3.0,0.0
3860,73.0,240.0,720.0,2.0,0.0
3861,52.0,0.0,60.0,12.0,0.0
3862,73.0,0.0,450.0,1.0,0.0
3863,85.0,120.0,450.0,0.0,0.0
3864,69.0,0.0,60.0,8.0,0.0
3865,57.0,120.0,60.0,12.0,0.0
3866,45.0,0.0,60.0,13.0,0.0
3867,49.0,0.0,60.0,13.0,0.0
3868,61.0,120.0,60.0,12.0,0.0
3869,73.0,0.0,60.0,8.0,0.0
3870,51.0,36.0,60.0,13.0,0.0
3871,75.0,0.0,60.0,8.0,0.0
3872,63.0,0.0,60.0,12.0,0.0
3873,69.0,36.0,180.0,4.0,0.0
3874,64.0,72.0,120.0,12.0,0.0
3875,76.0,0.0,120.0,8.0,0.0
3876,52.0,0.0,120.0,13.0,0.0
3877,57.0,24.0,810.0,4.0,0.0
3878,67.0,0.0,240.0,3.0,0.0
3879,45.0,0.0,810.0,4.0,0.0
3880,79.0,72.0,240.0,2.0,0.0
3881,76.0,0.0,720.0,1.0,0.0
3882,43.0,0.0,60.0,13.0,0.0
3883,88.0,240.0,720.0,0.0,0.0
3884,55.0,120.0,60.0,12.0,0.0
3885,67.0,0.0,60.0,8.0,0.0
3886,64.0,120.0,450.0,3.0,0.0
3887,76.0,0.0,450.0,2.0,0.0
3888,69.0,120.0,60.0,8.0,0.0
3889,57.0,0.0,60.0,12.0,0.0
3890,45.0,0.0,60.0,13.0,0.0
3891,49.0,0.0,60.0,13.0,0.0
3892,73.0,0.0,60.0,8.0,0.0
3893,61.0,120.0,60.0,12.0,0.0
3894,64.0,0.0,60.0,12.0,0.0
3895,76.0,36.0,60.0,8.0,0.0
3896,52.0,0.0,60.0,13.0,0.0
3897,55.0,72.0,120.0,13.0,0.0
3898,79.0,0.0,120.0,8.0,0.0
3899,69.0,36.0,180.0,4.0,0.0
3900,67.0,0.0,120.0,12.0,0.0
3901,57.0,24.0,810.0,4.0,0.0
3902,83.0,72.0,240.0,1.0,0.0
3903,95.0,0.0,240.0,0.0,0.0
3904,45.0,0.0,810.0,4.0,0.0
3905,93.0,34.0,180.0,0.0,0.0
3906,55.0,0.0,60.0,11.0,0.0
3907,81.0,74.0,240.0,1.0,0.0
3908,67.0,120.0,60.0,8.0,0.0
3909,54.0,0.0,60.0,11.0,0.0
3910,66.0,12.0,60.0,8.0,0.0
3911,54.0,0.0,480.0,3.0,0.0
3912,57.0,0.0,60.0,11.0,0.0
3913,69.0,30.0,450.0,4.0,0.0
3914,66.0,60.0,480.0,2.0,0.0
3915,78.0,0.0,480.0,0.0,0.0
3916,69.0,120.0,60.0,8.0,0.0
3917,73.0,120.0,60.0,8.0,0.0
3918,61.0,0.0,60.0,11.0,0.0
3919,62.0,0.0,120.0,11.0,0.0
3920,66.0,0.0,60.0,10.0,0.0
3921,42.0,0.0,60.0,13.0,0.0
3922,74.0,60.0,120.0,8.0,0.0
3923,54.0,36.0,60.0,12.0,0.0
3924,57.0,30.0,60.0,12.0,0.0
3925,69.0,0.0,60.0,10.0,0.0
3926,45.0,0.0,60.0,13.0,0.0
3927,49.0,0.0,60.0,13.0,0.0
3928,59.0,0.0,120.0,3.0,0.0
3929,69.0,48.0,180.0,4.0,0.0
3930,83.0,0.0,120.0,0.0,0.0
3931,45.0,0.0,480.0,4.0,0.0
3932,61.0,60.0,60.0,12.0,0.0
3933,57.0,74.0,480.0,4.0,0.0
3934,73.0,0.0,60.0,10.0,0.0
3935,71.0,60.0,120.0,2.0,0.0
3936,57.0,0.0,120.0,3.0,0.0
3937,62.0,0.0,60.0,12.0,0.0
3938,81.0,60.0,120.0,0.0,0.0
3939,50.0,0.0,60.0,13.0,0.0
3940,69.0,0.0,120.0,2.0,0.0
3941,74.0,12.0,60.0,10.0,0.0
3942,78.0,60.0,120.0,10.0,0.0
3943,54.0,60.0,60.0,11.0,0.0
3944,66.0,0.0,120.0,12.0,0.0
3945,66.0,0.0,60.0,8.0,0.0
3946,54.0,0.0,120.0,13.0,0.0
3947,69.0,0.0,60.0,8.0,0.0
3948,57.0,46.0,60.0,11.0,0.0
3949,61.0,120.0,60.0,11.0,0.0
3950,81.0,0.0,480.0,0.0,0.0
3951,57.0,74.0,960.0,4.0,0.0
3952,69.0,60.0,480.0,2.0,0.0
3953,57.0,0.0,480.0,3.0,0.0
3954,73.0,0.0,60.0,8.0,0.0
3955,45.0,0.0,960.0,4.0,0.0
3956,69.0,30.0,450.0,4.0,0.0
3957,62.0,120.0,60.0,11.0,0.0
3958,74.0,0.0,60.0,8.0,0.0
3959,66.0,0.0,60.0,10.0,0.0
3960,42.0,0.0,60.0,13.0,0.0
3961,66.0,0.0,120.0,11.0,0.0
3962,54.0,60.0,60.0,12.0,0.0
3963,78.0,60.0,120.0,8.0,0.0
3964,69.0,30.0,60.0,10.0,0.0
3965,45.0,0.0,60.0,13.0,0.0
3966,57.0,0.0,60.0,12.0,0.0
3967,73.0,0.0,60.0,10.0,0.0
3968,88.0,60.0,120.0,0.0,0.0
3969,64.0,0.0,120.0,3.0,0.0
3970,61.0,0.0,60.0,12.0,0.0
3971,49.0,60.0,60.0,13.0,0.0
3972,76.0,0.0,120.0,2.0,0.0
3973,69.0,48.0,180.0,4.0,0.0
3974,86.0,0.0,120.0,0.0,0.0
3975,74.0,0.0,60.0,10.0,0.0
3976,62.0,0.0,120.0,3.0,0.0
3977,62.0,0.0,60.0,12.0,0.0
3978,50.0,12.0,60.0,13.0,0.0
3979,74.0,60.0,120.0,2.0,0.0
3980,64.0,0.0,60.0,8.0,0.0
3981,64.0,0.0,120.0,12.0,0.0
3982,52.0,60.0,120.0,13.0,0.0
3983,76.0,0.0,120.0,10.0,0.0
3984,52.0,60.0,60.0,11.0,0.0
3985,67.0,0.0,60.0,8.0,0.0
3986,55.0,46.0,60.0,11.0,0.0
3987,73.0,60.0,480.0,2.0,0.0
3988,85.0,0.0,480.0,0.0,0.0
3989,57.0,0.0,60.0,11.0,0.0
3990,57.0,74.0,960.0,4.0,0.0
3991,69.0,30.0,450.0,4.0,0.0
3992,45.0,0.0,960.0,4.0,0.0
3993,61.0,0.0,480.0,3.0,0.0
3994,69.0,120.0,60.0,8.0,0.0
3995,61.0,120.0,60.0,11.0,0.0
3996,73.0,0.0,60.0,8.0,0.0
3997,76.0,60.0,120.0,8.0,0.0
3998,52.0,0.0,60.0,12.0,0.0
3999,64.0,0.0,60.0,10.0,0.0
4000,40.0,60.0,60.0,13.0,0.0
4001,64.0,0.0,120.0,11.0,0.0
4002,67.0,30.0,60.0,10.0,0.0
4003,55.0,0.0,60.0,12.0,0.0
4004,43.0,0.0,60.0,13.0,0.0
4005,90.0,60.0,120.0,0.0,0.0
4006,66.0,0.0,120.0,3.0,0.0
4007,57.0,0.0,60.0,12.0,0.0
4008,78.0,0.0,120.0,2.0,0.0
4009,69.0,48.0,180.0,4.0,0.0
4010,69.0,0.0,60.0,10.0,0.0
4011,45.0,60.0,60.0,13.0,0.0
4012,88.0,0.0,120.0,0.0,0.0
4013,76.0,60.0,120.0,2.0,0.0
4014,64.0,0.0,120.0,3.0,0.0
4015,49.0,0.0,60.0,13.0,0.0
4016,73.0,0.0,60.0,10.0,0.0
4017,61.0,12.0,60.0,12.0,0.0
4018,67.0,60.0,60.0,8.0,0.0
4019,76.0,0.0,120.0,10.0,0.0
4020,64.0,60.0,120.0,12.0,0.0
4021,55.0,0.0,60.0,11.0,0.0
4022,52.0,0.0,120.0,13.0,0.0
4023,69.0,46.0,60.0,8.0,0.0
4024,57.0,0.0,60.0,11.0,0.0
4025,69.0,30.0,450.0,4.0,0.0
4026,61.0,0.0,60.0,11.0,0.0
4027,73.0,120.0,60.0,8.0,0.0
4028,76.0,60.0,480.0,1.0,0.0
4029,88.0,0.0,480.0,0.0,0.0
4030,57.0,14.0,720.0,4.0,0.0
4031,64.0,0.0,480.0,3.0,0.0
4032,45.0,0.0,720.0,4.0,0.0
4033,74.0,120.0,60.0,8.0,0.0
4034,62.0,0.0,60.0,11.0,0.0
4035,64.0,120.0,60.0,11.0,0.0
4036,43.0,0.0,60.0,13.0,0.0
4037,76.0,0.0,60.0,8.0,0.0
4038,55.0,0.0,60.0,12.0,0.0
4039,64.0,0.0,60.0,10.0,0.0
4040,64.0,0.0,60.0,8.0,0.0
4041,69.0,0.0,60.0,10.0,0.0
4042,61.0,0.0,60.0,12.0,0.0
4043,61.0,0.0,60.0,11.0,0.0
4044,49.0,30.0,60.0,13.0,0.0
4045,95.0,60.0,120.0,0.0,0.0
4046,69.0,60.0,60.0,10.0,0.0
4047,64.0,0.0,60.0,12.0,0.0
4048,52.0,0.0,60.0,13.0,0.0
4049,71.0,0.0,120.0,3.0,0.0
4050,61.0,0.0,60.0,11.0,0.0
4051,69.0,34.0,180.0,4.0,0.0
4052,83.0,0.0,120.0,1.0,0.0
4053,64.0,0.0,60.0,8.0,0.0
4054,69.0,0.0,60.0,10.0,0.0
4055,67.0,12.0,60.0,12.0,0.0
4056,64.0,0.0,60.0,8.0,0.0
4057,61.0,0.0,60.0,11.0,0.0
4058,94.0,0.0,120.0,0.0,0.0
4059,55.0,0.0,60.0,13.0,0.0
4060,82.0,0.0,120.0,1.0,0.0
4061,70.0,60.0,120.0,3.0,0.0
4062,69.0,34.0,180.0,4.0,0.0
4063,54.0,0.0,60.0,13.0,0.0
4064,66.0,0.0,1140.0,3.0,0.0
4065,57.0,0.0,240.0,4.0,0.0
4066,69.0,14.0,240.0,3.0,0.0
4067,93.0,48.0,1140.0,0.0,0.0
4068,62.0,0.0,60.0,11.0,0.0
4069,66.0,0.0,60.0,12.0,0.0
4070,69.0,132.0,60.0,10.0,0.0
4071,66.0,0.0,60.0,8.0,0.0
4072,81.0,14.0,480.0,1.0,0.0
4073,45.0,0.0,240.0,4.0,0.0
4074,74.0,120.0,120.0,10.0,0.0
4075,68.0,34.0,180.0,3.0,0.0
4076,80.0,120.0,240.0,2.0,0.0
4077,80.0,72.0,120.0,10.0,0.0
4078,74.0,0.0,120.0,10.0,0.0
4079,69.0,0.0,660.0,3.0,0.0
4080,81.0,120.0,120.0,10.0,0.0
4081,69.0,120.0,120.0,11.0,0.0
4082,86.0,0.0,240.0,1.0,0.0
4083,74.0,120.0,120.0,11.0,0.0
4084,74.0,0.0,240.0,2.0,0.0
4085,69.0,120.0,120.0,11.0,0.0
4086,87.0,0.0,240.0,1.0,0.0
4087,75.0,0.0,240.0,2.0,0.0
4088,69.0,72.0,120.0,11.0,0.0
4089,81.0,120.0,120.0,8.0,0.0
4090,88.0,0.0,180.0,1.0,0.0
4091,81.0,0.0,15.0,2.0,0.0
4092,76.0,0.0,180.0,2.0,0.0
4093,69.0,0.0,180.0,3.0,0.0
4094,93.0,48.0,150.0,0.0,0.0
4095,61.0,0.0,180.0,3.0,0.0
4096,88.0,24.0,120.0,8.0,0.0
4097,81.0,120.0,120.0,8.0,0.0
4098,91.0,12.0,60.0,0.0,0.0
4099,81.0,0.0,180.0,2.0,0.0
4100,88.0,72.0,120.0,8.0,0.0
4101,88.0,0.0,180.0,1.0,0.0
4102,61.0,0.0,180.0,3.0,0.0
4103,69.0,0.0,180.0,3.0,0.0
4104,76.0,240.0,180.0,2.0,0.0
4105,91.0,0.0,180.0,0.0,0.0
4106,88.0,0.0,180.0,1.0,0.0
4107,91.0,0.0,180.0,0.0,0.0
4108,81.0,0.0,180.0,2.0,0.0
4109,69.0,288.0,180.0,3.0,0.0
4110,61.0,0.0,180.0,3.0,0.0
4111,76.0,0.0,180.0,2.0,0.0
4112,90.0,48.0,1140.0,0.0,0.0
4113,62.0,0.0,960.0,3.0,0.0
4114,86.0,14.0,480.0,1.0,0.0
4115,71.0,120.0,120.0,10.0,0.0
4116,65.0,0.0,240.0,3.0,0.0
4117,77.0,106.0,120.0,10.0,0.0
4118,77.0,0.0,240.0,2.0,0.0
4119,71.0,120.0,120.0,10.0,0.0
4120,78.0,120.0,120.0,10.0,0.0
4121,66.0,36.0,900.0,3.0,0.0
4122,66.0,120.0,120.0,11.0,0.0
4123,83.0,0.0,240.0,1.0,0.0
4124,71.0,120.0,120.0,11.0,0.0
4125,71.0,0.0,240.0,2.0,0.0
4126,66.0,0.0,120.0,11.0,0.0
4127,63.0,0.0,180.0,3.0,0.0
4128,69.0,72.0,120.0,11.0,0.0
4129,78.0,120.0,15.0,2.0,0.0
4130,72.0,0.0,240.0,2.0,0.0
4131,84.0,0.0,240.0,1.0,0.0
4132,78.0,0.0,120.0,8.0,0.0
4133,85.0,24.0,120.0,8.0,0.0
4134,85.0,0.0,180.0,1.0,0.0
4135,64.0,0.0,180.0,3.0,0.0
4136,90.0,48.0,150.0,0.0,0.0
4137,78.0,120.0,15.0,2.0,0.0
4138,73.0,0.0,180.0,2.0,0.0
4139,78.0,120.0,120.0,8.0,0.0
4140,88.0,12.0,60.0,0.0,0.0
4141,66.0,0.0,180.0,3.0,0.0
4142,58.0,240.0,180.0,3.0,0.0
4143,88.0,0.0,180.0,0.0,0.0
4144,78.0,0.0,180.0,2.0,0.0
4145,85.0,72.0,120.0,8.0,0.0
4146,73.0,0.0,180.0,2.0,0.0
4147,85.0,0.0,180.0,1.0,0.0
4148,85.0,0.0,180.0,1.0,0.0
4149,88.0,0.0,180.0,0.0,0.0
4150,58.0,240.0,180.0,3.0,0.0
4151,66.0,0.0,180.0,3.0,0.0
4152,73.0,0.0,180.0,2.0,0.0
4153,78.0,0.0,180.0,2.0,0.0
4154,35.0,0.0,720.0,13.0,0.0
4155,74.0,0.0,720.0,14.0,0.0
4156,86.0,120.0,720.0,8.0,0.0
4157,62.0,24.0,1050.0,4.0,0.0
4158,83.0,0.0,180.0,1.0,0.0
4159,59.0,0.0,180.0,3.0,0.0
4160,86.0,0.0,720.0,14.0,0.0
4161,66.0,48.0,180.0,3.0,0.0
4162,86.0,0.0,180.0,0.0,0.0
4163,78.0,0.0,180.0,2.0,0.0
4164,74.0,0.0,180.0,2.0,0.0
4165,74.0,0.0,720.0,10.0,0.0
4166,35.0,0.0,720.0,15.0,0.0
4167,47.0,0.0,720.0,15.0,0.0
4168,50.0,0.0,1050.0,4.0,0.0
4169,62.0,120.0,120.0,11.0,0.0
4170,52.0,120.0,120.0,11.0,0.0
4171,54.0,120.0,120.0,11.0,0.0
4172,55.0,120.0,120.0,11.0,0.0
4173,57.0,0.0,120.0,11.0,0.0
4174,85.0,0.0,240.0,8.0,0.0
4175,45.0,0.0,360.0,13.0,0.0
4176,59.0,72.0,120.0,11.0,0.0
4177,73.0,48.0,180.0,10.0,0.0
4178,61.0,96.0,120.0,11.0,0.0
4179,72.0,120.0,120.0,10.0,0.0
4180,62.0,0.0,120.0,11.0,0.0
4181,84.0,0.0,120.0,8.0,0.0
4182,43.0,0.0,120.0,13.0,0.0
4183,83.0,0.0,120.0,8.0,0.0
4184,64.0,72.0,120.0,11.0,0.0
4185,50.0,0.0,180.0,4.0,0.0
4186,62.0,48.0,180.0,4.0,0.0
4187,71.0,0.0,120.0,10.0,0.0
4188,42.0,120.0,120.0,13.0,0.0
4189,81.0,0.0,120.0,8.0,0.0
4190,66.0,0.0,120.0,11.0,0.0
4191,69.0,0.0,120.0,10.0,0.0
4192,79.0,72.0,120.0,8.0,0.0
4193,67.0,0.0,120.0,10.0,0.0
4194,67.0,0.0,120.0,11.0,0.0
4195,50.0,48.0,180.0,4.0,0.0
4196,62.0,0.0,180.0,4.0,0.0
4197,52.0,0.0,120.0,13.0,0.0
4198,66.0,0.0,120.0,10.0,0.0
4199,78.0,0.0,120.0,8.0,0.0
4200,50.0,120.0,120.0,13.0,0.0
4201,62.0,0.0,120.0,3.0,0.0
4202,69.0,0.0,15.0,11.0,0.0
4203,90.0,0.0,120.0,0.0,0.0
4204,76.0,0.0,120.0,8.0,0.0
4205,74.0,0.0,120.0,2.0,0.0
4206,62.0,0.0,180.0,4.0,0.0
4207,64.0,0.0,120.0,10.0,0.0
4208,78.0,0.0,120.0,2.0,0.0
4209,66.0,0.0,120.0,3.0,0.0
4210,86.0,0.0,120.0,1.0,0.0
4211,60.0,0.0,120.0,13.0,0.0
4212,50.0,48.0,180.0,4.0,0.0
4213,91.0,0.0,60.0,0.0,0.0
4214,62.0,0.0,60.0,3.0,0.0
4215,67.0,0.0,60.0,3.0,0.0
4216,86.0,0.0,60.0,1.0,0.0
4217,71.0,0.0,120.0,11.0,0.0
4218,62.0,120.0,120.0,10.0,0.0
4219,79.0,0.0,60.0,2.0,0.0
4220,74.0,0.0,60.0,2.0,0.0
4221,59.0,0.0,120.0,13.0,0.0
4222,74.0,0.0,120.0,8.0,0.0
4223,57.0,0.0,120.0,13.0,0.0
4224,72.0,0.0,120.0,8.0,0.0
4225,78.0,0.0,120.0,2.0,0.0
4226,81.0,0.0,120.0,2.0,0.0
4227,90.0,0.0,120.0,1.0,0.0
4228,78.0,0.0,120.0,1.0,0.0
4229,66.0,0.0,120.0,3.0,0.0
4230,69.0,0.0,120.0,3.0,0.0
4231,60.0,0.0,120.0,10.0,0.0
4232,62.0,24.0,210.0,4.0,0.0
4233,50.0,0.0,210.0,4.0,0.0
4234,93.0,72.0,120.0,0.0,0.0
4235,72.0,0.0,120.0,11.0,0.0
4236,71.0,0.0,120.0,10.0,0.0
4237,83.0,0.0,60.0,1.0,0.0
4238,67.0,0.0,60.0,3.0,0.0
4239,71.0,0.0,60.0,3.0,0.0
4240,71.0,0.0,60.0,2.0,0.0
4241,55.0,0.0,120.0,13.0,0.0
4242,95.0,0.0,60.0,0.0,0.0
4243,83.0,24.0,60.0,2.0,0.0
4244,67.0,120.0,120.0,11.0,0.0
4245,93.0,0.0,120.0,0.0,0.0
4246,69.0,0.0,120.0,10.0,0.0
4247,66.0,0.0,120.0,11.0,0.0
4248,54.0,72.0,120.0,13.0,0.0
4249,86.0,0.0,120.0,2.0,0.0
4250,74.0,0.0,120.0,2.0,0.0
4251,66.0,0.0,120.0,3.0,0.0
4252,69.0,0.0,120.0,3.0,0.0
4253,50.0,0.0,180.0,4.0,0.0
4254,81.0,0.0,120.0,1.0,0.0
4255,62.0,0.0,180.0,4.0,0.0
4256,64.0,120.0,120.0,11.0,0.0
4257,64.0,0.0,60.0,3.0,0.0
4258,67.0,0.0,60.0,3.0,0.0
4259,67.0,0.0,120.0,10.0,0.0
4260,91.0,0.0,60.0,0.0,0.0
4261,52.0,0.0,120.0,13.0,0.0
4262,79.0,0.0,60.0,1.0,0.0
4263,74.0,0.0,60.0,2.0,0.0
4264,86.0,48.0,60.0,2.0,0.0
4265,86.0,0.0,120.0,2.0,0.0
4266,62.0,0.0,120.0,3.0,0.0
4267,66.0,0.0,120.0,3.0,0.0
4268,66.0,0.0,120.0,10.0,0.0
4269,78.0,72.0,120.0,1.0,0.0
4270,50.0,0.0,120.0,13.0,0.0
4271,74.0,0.0,120.0,2.0,0.0
4272,50.0,0.0,180.0,4.0,0.0
4273,62.0,0.0,180.0,4.0,0.0
4274,90.0,0.0,120.0,0.0,0.0
4275,62.0,0.0,120.0,11.0,0.0
4276,88.0,0.0,60.0,0.0,0.0
4277,86.0,0.0,60.0,2.0,0.0
4278,74.0,0.0,60.0,2.0,0.0
4279,64.0,0.0,60.0,3.0,0.0
4280,61.0,120.0,120.0,11.0,0.0
4281,64.0,0.0,120.0,10.0,0.0
4282,61.0,0.0,60.0,3.0,0.0
4283,76.0,42.0,60.0,1.0,0.0
4284,49.0,0.0,120.0,13.0,0.0
4285,71.0,6.0,120.0,4.0,0.0
4286,74.0,0.0,120.0,2.0,0.0
4287,86.0,72.0,120.0,2.0,0.0
4288,47.0,0.0,120.0,13.0,0.0
4289,62.0,0.0,120.0,10.0,0.0
4290,86.0,0.0,120.0,0.0,0.0
4291,74.0,0.0,120.0,1.0,0.0
4292,62.0,0.0,180.0,4.0,0.0
4293,59.0,0.0,120.0,3.0,0.0
4294,59.0,0.0,120.0,11.0,0.0
4295,62.0,0.0,120.0,3.0,0.0
4296,50.0,0.0,180.0,4.0,0.0
4297,71.0,48.0,180.0,4.0,0.0
4298,73.0,0.0,60.0,1.0,0.0
4299,61.0,0.0,60.0,3.0,0.0
4300,57.0,0.0,60.0,3.0,0.0
4301,57.0,72.0,120.0,11.0,0.0
4302,85.0,0.0,60.0,0.0,0.0
4303,45.0,0.0,120.0,13.0,0.0
4304,61.0,0.0,120.0,10.0,0.0
4305,43.0,0.0,120.0,13.0,0.0
4306,83.0,0.0,120.0,0.0,0.0
4307,59.0,0.0,120.0,10.0,0.0
4308,59.0,0.0,120.0,3.0,0.0
4309,71.0,0.0,120.0,1.0,0.0
4310,74.0,0.0,60.0,2.0,0.0
4311,62.0,0.0,90.0,4.0,0.0
4312,86.0,24.0,60.0,2.0,0.0
4313,55.0,0.0,120.0,11.0,0.0
4314,71.0,0.0,90.0,4.0,0.0
4315,50.0,24.0,90.0,4.0,0.0
4316,55.0,60.0,120.0,3.0,0.0
4317,62.0,0.0,120.0,4.0,0.0
4318,69.0,0.0,120.0,8.0,0.0
4319,57.0,0.0,180.0,11.0,0.0
4320,66.0,0.0,120.0,4.0,0.0
4321,69.0,0.0,120.0,1.0,0.0
4322,69.0,1.0,120.0,4.0,0.0
4323,78.0,0.0,120.0,5.0,0.0
4324,66.0,0.0,120.0,5.0,0.0
4325,45.0,0.0,60.0,3.0,0.0
4326,57.0,60.0,60.0,3.0,0.0
4327,57.0,108.0,180.0,12.0,0.0
4328,57.0,0.0,180.0,10.0,0.0
4329,54.0,0.0,180.0,6.0,0.0
4330,45.0,0.0,180.0,13.0,0.0
4331,81.0,0.0,120.0,0.0,0.0
4332,74.0,0.0,15.0,2.0,0.0
4333,86.0,59.0,15.0,2.0,0.0
4334,57.0,0.0,60.0,3.0,0.0
4335,69.0,12.0,60.0,3.0,0.0
4336,54.0,60.0,60.0,3.0,0.0
4337,69.0,108.0,180.0,10.0,0.0
4338,78.0,0.0,120.0,1.0,0.0
4339,86.0,0.0,120.0,1.0,0.0
4340,86.0,0.0,120.0,8.0,0.0
4341,78.0,0.0,120.0,8.0,0.0
4342,78.0,0.0,120.0,2.0,0.0
4343,93.0,0.0,120.0,0.0,0.0
4344,74.0,60.0,120.0,2.0,0.0
4345,66.0,0.0,60.0,3.0,0.0
4346,90.0,0.0,120.0,0.0,0.0
4347,50.0,12.0,60.0,3.0,0.0
4348,62.0,0.0,60.0,3.0,0.0
4349,45.0,0.0,60.0,3.0,0.0
4350,64.0,0.0,120.0,4.0,0.0
4351,57.0,60.0,120.0,4.0,0.0
4352,76.0,0.0,120.0,5.0,0.0
4353,61.0,0.0,120.0,5.0,0.0
4354,69.0,0.0,180.0,12.0,0.0
4355,57.0,60.0,60.0,3.0,0.0
4356,64.0,108.0,180.0,11.0,0.0
4357,57.0,0.0,180.0,13.0,0.0
4358,73.0,0.0,180.0,11.0,0.0
4359,69.0,0.0,120.0,4.0,0.0
4360,49.0,0.0,180.0,6.0,0.0
4361,69.0,0.0,180.0,11.0,0.0
4362,61.0,12.0,60.0,3.0,0.0
4363,49.0,0.0,60.0,3.0,0.0
4364,69.0,288.0,180.0,10.0,0.0
4365,76.0,0.0,120.0,1.0,0.0
4366,76.0,0.0,120.0,8.0,0.0
4367,85.0,0.0,120.0,8.0,0.0
4368,88.0,0.0,120.0,0.0,0.0
4369,76.0,0.0,120.0,2.0,0.0
4370,93.0,0.0,120.0,0.0,0.0
4371,85.0,0.0,120.0,1.0,0.0
4372,52.0,60.0,60.0,3.0,0.0
4373,64.0,0.0,60.0,3.0,0.0
4374,73.0,60.0,120.0,2.0,0.0
4375,57.0,0.0,60.0,3.0,0.0
4376,69.0,12.0,60.0,3.0,0.0
4377,47.0,0.0,960.0,3.0,0.0
4378,59.0,96.0,960.0,3.0,0.0
4379,74.0,0.0,720.0,2.0,0.0
4380,86.0,72.0,720.0,2.0,0.0
4381,50.0,6.0,1050.0,4.0,0.0
4382,62.0,0.0,1050.0,4.0,0.0
4383,62.0,72.0,120.0,10.0,0.0
4384,64.0,168.0,60.0,10.0,0.0
4385,66.0,72.0,120.0,10.0,0.0
4386,67.0,168.0,60.0,10.0,0.0
4387,69.0,0.0,120.0,10.0,0.0
4388,73.0,0.0,240.0,2.0,0.0
4389,85.0,0.0,240.0,2.0,0.0
4390,71.0,168.0,60.0,10.0,0.0
4391,73.0,0.0,120.0,10.0,0.0
4392,57.0,0.0,90.0,3.0,0.0
4393,69.0,42.0,90.0,3.0,0.0
4394,74.0,96.0,150.0,10.0,0.0
4395,84.0,0.0,90.0,2.0,0.0
4396,72.0,0.0,90.0,2.0,0.0
4397,62.0,0.0,120.0,11.0,0.0
4398,74.0,0.0,120.0,8.0,0.0
4399,62.0,0.0,180.0,4.0,0.0
4400,50.0,0.0,180.0,4.0,0.0
4401,67.0,0.0,120.0,3.0,0.0
4402,55.0,72.0,120.0,3.0,0.0
4403,83.0,0.0,120.0,2.0,0.0
4404,71.0,0.0,120.0,2.0,0.0
4405,54.0,0.0,90.0,3.0,0.0
4406,81.0,0.0,90.0,2.0,0.0
4407,69.0,0.0,90.0,2.0,0.0
4408,66.0,138.0,90.0,3.0,0.0
4409,76.0,0.0,60.0,8.0,0.0
4410,64.0,30.0,60.0,11.0,0.0
4411,50.0,0.0,180.0,4.0,0.0
4412,79.0,0.0,120.0,2.0,0.0
4413,67.0,0.0,120.0,2.0,0.0
4414,64.0,72.0,120.0,3.0,0.0
4415,52.0,0.0,120.0,3.0,0.0
4416,62.0,30.0,180.0,4.0,0.0
4417,78.0,0.0,120.0,8.0,0.0
4418,66.0,0.0,120.0,11.0,0.0
4419,67.0,0.0,60.0,11.0,0.0
4420,78.0,0.0,90.0,2.0,0.0
4421,79.0,0.0,60.0,8.0,0.0
4422,66.0,138.0,90.0,2.0,0.0
4423,50.0,0.0,90.0,3.0,0.0
4424,62.0,0.0,90.0,3.0,0.0
4425,48.0,72.0,120.0,3.0,0.0
4426,62.0,0.0,180.0,4.0,0.0
4427,50.0,0.0,180.0,4.0,0.0
4428,90.0,0.0,120.0,0.0,0.0
4429,76.0,0.0,120.0,2.0,0.0
4430,64.0,0.0,120.0,2.0,0.0
4431,69.0,0.0,120.0,11.0,0.0
4432,81.0,0.0,120.0,8.0,0.0
4433,60.0,0.0,120.0,3.0,0.0
4434,83.0,0.0,60.0,8.0,0.0
4435,71.0,30.0,60.0,11.0,0.0
4436,74.0,0.0,90.0,2.0,0.0
4437,91.0,120.0,120.0,0.0,0.0
4438,47.0,0.0,90.0,3.0,0.0
4439,59.0,0.0,90.0,3.0,0.0
4440,62.0,18.0,90.0,2.0,0.0
4441,45.0,0.0,120.0,3.0,0.0
4442,62.0,0.0,240.0,4.0,0.0
4443,93.0,0.0,120.0,0.0,0.0
4444,50.0,30.0,240.0,4.0,0.0
4445,84.0,114.0,120.0,8.0,0.0
4446,72.0,0.0,120.0,11.0,0.0
4447,57.0,0.0,120.0,3.0,0.0
4448,72.0,0.0,120.0,2.0,0.0
4449,60.0,0.0,120.0,2.0,0.0
4450,71.0,96.0,150.0,11.0,0.0
4451,43.0,0.0,960.0,3.0,0.0
4452,71.0,6.0,1050.0,4.0,0.0
4453,55.0,96.0,960.0,3.0,0.0
4454,71.0,0.0,720.0,2.0,0.0
4455,95.0,0.0,720.0,0.0,0.0
4456,83.0,72.0,720.0,0.0,0.0
4457,71.0,0.0,1050.0,1.0,0.0
4458,83.0,0.0,150.0,8.0,0.0
4459,83.0,0.0,720.0,2.0,0.0
4460,83.0,0.0,1050.0,1.0,0.0
4461,59.0,0.0,120.0,12.0,0.0
4462,71.0,72.0,120.0,10.0,0.0
4463,60.0,0.0,60.0,12.0,0.0
4464,72.0,168.0,60.0,10.0,0.0
4465,74.0,0.0,120.0,10.0,0.0
4466,62.0,72.0,120.0,12.0,0.0
4467,64.0,0.0,60.0,12.0,0.0
4468,76.0,168.0,60.0,10.0,0.0
4469,78.0,0.0,120.0,10.0,0.0
4470,66.0,0.0,120.0,12.0,0.0
4471,70.0,0.0,240.0,2.0,0.0
4472,94.0,0.0,240.0,0.0,0.0
4473,67.0,168.0,60.0,12.0,0.0
4474,82.0,0.0,240.0,2.0,0.0
4475,79.0,0.0,60.0,10.0,0.0
4476,82.0,0.0,240.0,0.0,0.0
4477,69.0,0.0,120.0,12.0,0.0
4478,81.0,0.0,120.0,10.0,0.0
4479,69.0,0.0,90.0,2.0,0.0
4480,81.0,0.0,90.0,2.0,0.0
4481,93.0,42.0,90.0,0.0,0.0
4482,81.0,0.0,90.0,0.0,0.0
4483,83.0,0.0,150.0,10.0,0.0
4484,54.0,0.0,90.0,3.0,0.0
4485,71.0,96.0,150.0,12.0,0.0
4486,66.0,0.0,90.0,3.0,0.0
4487,67.0,72.0,120.0,2.0,0.0
4488,91.0,0.0,120.0,0.0,0.0
4489,79.0,0.0,120.0,0.0,0.0
4490,71.0,0.0,180.0,1.0,0.0
4491,83.0,0.0,120.0,8.0,0.0
4492,83.0,0.0,180.0,1.0,0.0
4493,64.0,0.0,120.0,3.0,0.0
4494,52.0,0.0,120.0,3.0,0.0
4495,79.0,0.0,120.0,2.0,0.0
4496,71.0,0.0,120.0,11.0,0.0
4497,71.0,0.0,180.0,4.0,0.0
4498,73.0,0.0,60.0,11.0,0.0
4499,63.0,0.0,90.0,3.0,0.0
4500,78.0,0.0,90.0,0.0,0.0
4501,78.0,138.0,90.0,2.0,0.0
4502,66.0,0.0,90.0,2.0,0.0
4503,90.0,0.0,90.0,0.0,0.0
4504,51.0,0.0,90.0,3.0,0.0
4505,85.0,30.0,60.0,8.0,0.0
4506,71.0,0.0,180.0,4.0,0.0
4507,83.0,0.0,180.0,1.0,0.0
4508,71.0,0.0,180.0,1.0,0.0
4509,76.0,0.0,120.0,0.0,0.0
4510,88.0,72.0,120.0,0.0,0.0
4511,87.0,0.0,120.0,8.0,0.0
4512,64.0,0.0,120.0,2.0,0.0
4513,75.0,0.0,120.0,11.0,0.0
4514,60.0,0.0,120.0,3.0,0.0
4515,48.0,0.0,120.0,3.0,0.0
4516,76.0,0.0,120.0,2.0,0.0
4517,75.0,0.0,90.0,2.0,0.0
4518,75.0,0.0,90.0,0.0,0.0
4519,63.0,0.0,90.0,2.0,0.0
4520,47.0,138.0,90.0,3.0,0.0
4521,88.0,30.0,60.0,8.0,0.0
4522,59.0,0.0,90.0,3.0,0.0
4523,76.0,0.0,60.0,11.0,0.0
4524,87.0,0.0,90.0,0.0,0.0
4525,60.0,0.0,120.0,2.0,0.0
4526,72.0,0.0,120.0,2.0,0.0
4527,57.0,0.0,120.0,3.0,0.0
4528,45.0,0.0,120.0,3.0,0.0
4529,78.0,0.0,120.0,11.0,0.0
4530,72.0,0.0,120.0,0.0,0.0
4531,84.0,72.0,120.0,0.0,0.0
4532,83.0,0.0,180.0,1.0,0.0
4533,71.0,0.0,180.0,1.0,0.0
4534,90.0,0.0,120.0,8.0,0.0
4535,71.0,0.0,180.0,4.0,0.0
4536,59.0,0.0,90.0,2.0,0.0
4537,43.0,0.0,90.0,3.0,0.0
4538,55.0,114.0,90.0,3.0,0.0
4539,79.0,30.0,60.0,11.0,0.0
4540,71.0,0.0,90.0,0.0,0.0
4541,83.0,0.0,90.0,0.0,0.0
4542,91.0,0.0,60.0,8.0,0.0
4543,71.0,0.0,90.0,2.0,0.0
4544,81.0,0.0,120.0,11.0,0.0
4545,42.0,0.0,120.0,3.0,0.0
4546,54.0,0.0,120.0,3.0,0.0
4547,69.0,24.0,90.0,1.0,0.0
4548,81.0,0.0,90.0,1.0,0.0
4549,57.0,90.0,120.0,2.0,0.0
4550,69.0,0.0,120.0,2.0,0.0
4551,93.0,0.0,120.0,8.0,0.0
4552,81.0,0.0,120.0,0.0,0.0
4553,69.0,0.0,120.0,0.0,0.0
4554,69.0,1.0,210.0,4.0,0.0
4555,91.0,90.0,720.0,8.0,0.0
4556,40.0,0.0,90.0,3.0,0.0
4557,52.0,0.0,90.0,3.0,0.0
4558,52.0,0.0,720.0,13.0,0.0
4559,79.0,0.0,90.0,0.0,0.0
4560,79.0,6.0,90.0,1.0,0.0
4561,67.0,0.0,90.0,1.0,0.0
4562,55.0,0.0,90.0,2.0,0.0
4563,67.0,0.0,90.0,2.0,0.0
4564,64.0,0.0,720.0,12.0,0.0
4565,79.0,0.0,720.0,10.0,0.0
4566,79.0,96.0,150.0,11.0,0.0
4567,45.0,47.0,15.0,4.0,0.0
4568,57.0,0.0,15.0,4.0,0.0
4569,45.0,90.0,120.0,3.0,0.0
4570,57.0,0.0,120.0,2.0,0.0
4571,69.0,0.0,120.0,0.0,0.0
4572,45.0,0.0,210.0,4.0,0.0
4573,57.0,144.0,210.0,4.0,0.0
4574,69.0,0.0,210.0,4.0,0.0
4575,69.0,0.0,120.0,1.0,0.0
4576,71.0,0.0,90.0,1.0,0.0
4577,47.0,0.0,90.0,3.0,0.0
4578,71.0,0.0,90.0,0.0,0.0
4579,59.0,6.0,90.0,2.0,0.0
4580,45.0,0.0,210.0,4.0,0.0
4581,57.0,0.0,210.0,4.0,0.0
4582,49.0,0.0,120.0,3.0,0.0
4583,73.0,90.0,120.0,0.0,0.0
4584,69.0,144.0,210.0,4.0,0.0
4585,61.0,0.0,120.0,2.0,0.0
4586,73.0,0.0,120.0,1.0,0.0
4587,74.0,0.0,90.0,0.0,0.0
4588,74.0,6.0,90.0,1.0,0.0
4589,62.0,0.0,90.0,2.0,0.0
4590,50.0,0.0,90.0,3.0,0.0
4591,76.0,0.0,120.0,0.0,0.0
4592,45.0,144.0,210.0,4.0,0.0
4593,57.0,0.0,210.0,4.0,0.0
4594,69.0,0.0,210.0,4.0,0.0
4595,52.0,0.0,120.0,3.0,0.0
4596,64.0,0.0,120.0,2.0,0.0
4597,76.0,0.0,120.0,1.0,0.0
4598,50.0,0.0,240.0,13.0,0.0
4599,54.0,0.0,90.0,3.0,0.0
4600,66.0,0.0,90.0,2.0,0.0
4601,90.0,0.0,240.0,8.0,0.0
4602,78.0,0.0,90.0,1.0,0.0
4603,62.0,0.0,240.0,12.0,0.0
4604,78.0,6.0,90.0,0.0,0.0
4605,78.0,0.0,240.0,10.0,0.0
4606,45.0,0.0,210.0,4.0,0.0
4607,69.0,0.0,210.0,4.0,0.0
4608,57.0,144.0,210.0,4.0,0.0
4609,79.0,0.0,120.0,1.0,0.0
4610,55.0,0.0,120.0,3.0,0.0
4611,67.0,90.0,120.0,2.0,0.0
4612,79.0,0.0,120.0,0.0,0.0
4613,88.0,0.0,90.0,8.0,0.0
4614,81.0,6.0,90.0,0.0,0.0
4615,49.0,0.0,90.0,13.0,0.0
4616,61.0,0.0,90.0,12.0,0.0
4617,69.0,0.0,90.0,2.0,0.0
4618,76.0,0.0,90.0,10.0,0.0
4619,81.0,0.0,90.0,1.0,0.0
4620,57.0,0.0,90.0,3.0,0.0
4621,69.0,0.0,210.0,4.0,0.0
4622,74.0,0.0,120.0,10.0,0.0
4623,83.0,0.0,120.0,0.0,0.0
4624,83.0,90.0,120.0,1.0,0.0
4625,57.0,0.0,210.0,4.0,0.0
4626,59.0,0.0,120.0,3.0,0.0
4627,45.0,0.0,210.0,4.0,0.0
4628,86.0,0.0,120.0,8.0,0.0
4629,47.0,0.0,120.0,13.0,0.0
4630,71.0,0.0,120.0,2.0,0.0
4631,59.0,0.0,120.0,12.0,0.0
4632,85.0,144.0,90.0,8.0,0.0
4633,73.0,0.0,90.0,2.0,0.0
4634,85.0,0.0,90.0,0.0,0.0
4635,57.0,0.0,90.0,12.0,0.0
4636,73.0,0.0,90.0,10.0,0.0
4637,61.0,6.0,90.0,3.0,0.0
4638,45.0,0.0,90.0,13.0,0.0
4639,85.0,0.0,90.0,1.0,0.0
4640,74.0,0.0,120.0,2.0,0.0
4641,69.0,0.0,210.0,4.0,0.0
4642,55.0,90.0,120.0,12.0,0.0
4643,71.0,0.0,120.0,10.0,0.0
4644,43.0,0.0,120.0,13.0,0.0
4645,86.0,0.0,120.0,1.0,0.0
4646,57.0,0.0,210.0,4.0,0.0
4647,83.0,0.0,120.0,8.0,0.0
4648,62.0,0.0,120.0,3.0,0.0
4649,45.0,0.0,210.0,4.0,0.0
4650,86.0,0.0,120.0,0.0,0.0
4651,88.0,0.0,90.0,1.0,0.0
4652,81.0,0.0,90.0,8.0,0.0
4653,64.0,6.0,90.0,3.0,0.0
4654,88.0,0.0,90.0,0.0,0.0
4655,69.0,0.0,90.0,10.0,0.0
4656,76.0,0.0,90.0,2.0,0.0
4657,42.0,0.0,90.0,13.0,0.0
4658,54.0,144.0,90.0,12.0,0.0
4659,67.0,0.0,120.0,10.0,0.0
4660,66.0,0.0,120.0,3.0,0.0
4661,78.0,0.0,120.0,2.0,0.0
4662,40.0,0.0,120.0,13.0,0.0
4663,90.0,0.0,120.0,0.0,0.0
4664,57.0,0.0,210.0,4.0,0.0
4665,69.0,120.0,210.0,4.0,0.0
4666,79.0,0.0,120.0,8.0,0.0
4667,90.0,0.0,120.0,1.0,0.0
4668,52.0,90.0,120.0,12.0,0.0
4669,45.0,0.0,210.0,4.0,0.0
4670,91.0,0.0,90.0,0.0,0.0
4671,66.0,0.0,90.0,10.0,0.0
4672,78.0,0.0,90.0,8.0,0.0
4673,67.0,0.0,90.0,3.0,0.0
4674,50.0,0.0,90.0,12.0,0.0
4675,91.0,6.0,90.0,1.0,0.0
4676,79.0,0.0,90.0,2.0,0.0
4677,38.0,0.0,90.0,13.0,0.0
4678,45.0,0.0,90.0,4.0,0.0
4679,64.0,0.0,120.0,10.0,0.0
4680,93.0,0.0,120.0,1.0,0.0
4681,49.0,120.0,120.0,12.0,0.0
4682,69.0,24.0,90.0,4.0,0.0
4683,57.0,0.0,90.0,4.0,0.0
4684,69.0,0.0,120.0,3.0,0.0
4685,93.0,0.0,120.0,0.0,0.0
4686,37.0,0.0,120.0,13.0,0.0
4687,81.0,0.0,120.0,2.0,0.0
4688,76.0,0.0,120.0,8.0,0.0
4689,86.0,0.0,120.0,0.0,0.0
4690,74.0,0.0,120.0,10.0,0.0
4691,42.0,0.0,120.0,13.0,0.0
4692,81.0,0.0,120.0,1.0,0.0
4693,62.0,0.0,120.0,11.0,0.0
4694,54.0,0.0,120.0,6.0,0.0
4695,69.0,0.0,120.0,4.0,0.0
4696,74.0,0.0,120.0,1.0,0.0
4697,81.0,0.0,120.0,8.0,0.0
4698,54.0,0.0,120.0,12.0,0.0
4699,62.0,0.0,120.0,4.0,0.0
4700,50.0,210.0,120.0,4.0,0.0
4701,81.0,0.0,120.0,2.0,0.0
4702,74.0,0.0,120.0,2.0,0.0
4703,54.0,0.0,120.0,3.0,0.0
4704,93.0,0.0,120.0,0.0,0.0
4705,66.0,0.0,120.0,5.0,0.0
4706,78.0,0.0,120.0,5.0,0.0
4707,54.0,0.0,90.0,12.0,0.0
4708,74.0,0.0,90.0,1.0,0.0
4709,80.0,0.0,90.0,1.0,0.0
4710,66.0,0.0,90.0,5.0,0.0
4711,74.0,0.0,90.0,2.0,0.0
4712,54.0,0.0,90.0,3.0,0.0
4713,50.0,0.0,90.0,4.0,0.0
4714,62.0,0.0,90.0,4.0,0.0
4715,80.0,0.0,90.0,8.0,0.0
4716,74.0,0.0,90.0,11.0,0.0
4717,78.0,0.0,90.0,5.0,0.0
4718,42.0,0.0,90.0,13.0,0.0
4719,80.0,120.0,90.0,2.0,0.0
4720,92.0,0.0,90.0,0.0,0.0
4721,68.0,0.0,90.0,4.0,0.0
4722,86.0,0.0,90.0,0.0,0.0
4723,62.0,0.0,90.0,10.0,0.0
4724,54.0,0.0,90.0,6.0,0.0
4725,74.0,0.0,30.0,2.0,0.0
4726,42.0,0.0,30.0,13.0,0.0
4727,74.0,0.0,30.0,11.0,0.0
4728,50.0,0.0,30.0,4.0,0.0
4729,62.0,0.0,30.0,4.0,0.0
4730,78.0,0.0,30.0,5.0,0.0
4731,86.0,0.0,30.0,0.0,0.0
4732,66.0,0.0,30.0,5.0,0.0
4733,54.0,0.0,30.0,12.0,0.0
4734,54.0,0.0,30.0,6.0,0.0
4735,80.0,0.0,30.0,1.0,0.0
4736,74.0,0.0,30.0,1.0,0.0
4737,80.0,0.0,30.0,8.0,0.0
4738,54.0,0.0,30.0,3.0,0.0
4739,80.0,0.0,30.0,2.0,0.0
4740,92.0,150.0,30.0,0.0,0.0
4741,68.0,0.0,30.0,4.0,0.0
4742,62.0,0.0,30.0,10.0,0.0
4743,69.0,0.0,120.0,4.0,0.0
4744,54.0,0.0,120.0,6.0,0.0
4745,74.0,0.0,120.0,2.0,0.0
4746,81.0,0.0,120.0,2.0,0.0
4747,93.0,0.0,120.0,0.0,0.0
4748,86.0,0.0,120.0,0.0,0.0
4749,62.0,0.0,120.0,4.0,0.0
4750,74.0,480.0,120.0,10.0,0.0
4751,50.0,0.0,120.0,4.0,0.0
4752,81.0,0.0,120.0,1.0,0.0
4753,74.0,0.0,120.0,1.0,0.0
4754,62.0,0.0,120.0,11.0,0.0
4755,42.0,0.0,120.0,13.0,0.0
4756,66.0,0.0,120.0,5.0,0.0
4757,78.0,0.0,120.0,5.0,0.0
4758,54.0,0.0,120.0,3.0,0.0
4759,81.0,0.0,120.0,8.0,0.0
4760,54.0,0.0,120.0,12.0,0.0
4761,55.0,0.0,120.0,12.0,0.0
4762,86.0,0.0,120.0,0.0,0.0
4763,95.0,0.0,120.0,0.0,0.0
4764,62.0,0.0,120.0,4.0,0.0
4765,50.0,0.0,120.0,4.0,0.0
4766,83.0,0.0,120.0,2.0,0.0
4767,83.0,0.0,120.0,1.0,0.0
4768,43.0,0.0,120.0,13.0,0.0
4769,62.0,210.0,120.0,11.0,0.0
4770,83.0,0.0,120.0,8.0,0.0
4771,74.0,0.0,120.0,1.0,0.0
4772,55.0,0.0,120.0,3.0,0.0
4773,74.0,0.0,120.0,10.0,0.0
4774,74.0,0.0,120.0,2.0,0.0
4775,71.0,0.0,120.0,4.0,0.0
4776,50.0,0.0,90.0,4.0,0.0
4777,42.0,0.0,90.0,13.0,0.0
4778,82.0,0.0,90.0,8.0,0.0
4779,54.0,0.0,90.0,12.0,0.0
4780,86.0,0.0,90.0,0.0,0.0
4781,70.0,0.0,90.0,4.0,0.0
4782,74.0,0.0,90.0,2.0,0.0
4783,54.0,0.0,90.0,3.0,0.0
4784,94.0,0.0,90.0,0.0,0.0
4785,62.0,0.0,90.0,4.0,0.0
4786,82.0,0.0,90.0,1.0,0.0
4787,74.0,120.0,90.0,1.0,0.0
4788,74.0,0.0,90.0,11.0,0.0
4789,82.0,0.0,90.0,2.0,0.0
4790,62.0,0.0,90.0,10.0,0.0
4791,42.0,0.0,30.0,13.0,0.0
4792,74.0,0.0,30.0,1.0,0.0
4793,82.0,0.0,30.0,1.0,0.0
4794,86.0,0.0,30.0,0.0,0.0
4795,94.0,150.0,30.0,0.0,0.0
4796,62.0,0.0,30.0,10.0,0.0
4797,70.0,0.0,30.0,4.0,0.0
4798,50.0,0.0,30.0,4.0,0.0
4799,62.0,0.0,30.0,4.0,0.0
4800,54.0,0.0,30.0,3.0,0.0
4801,54.0,0.0,30.0,12.0,0.0
4802,82.0,0.0,30.0,8.0,0.0
4803,82.0,0.0,30.0,2.0,0.0
4804,74.0,0.0,30.0,11.0,0.0
4805,74.0,0.0,30.0,2.0,0.0
4806,50.0,0.0,120.0,4.0,0.0
4807,83.0,0.0,120.0,2.0,0.0
4808,43.0,0.0,120.0,13.0,0.0
4809,62.0,0.0,120.0,11.0,0.0
4810,95.0,0.0,120.0,0.0,0.0
4811,74.0,0.0,120.0,10.0,0.0
4812,83.0,0.0,120.0,8.0,0.0
4813,71.0,0.0,120.0,4.0,0.0
4814,62.0,0.0,120.0,4.0,0.0
4815,55.0,0.0,120.0,12.0,0.0
4816,83.0,0.0,120.0,1.0,0.0
4817,74.0,0.0,120.0,1.0,0.0
4818,86.0,0.0,120.0,0.0,0.0
4819,74.0,0.0,120.0,2.0,0.0
4820,55.0,1200.0,120.0,3.0,0.0
4821,83.0,120.0,720.0,2.0,0.0
4822,67.0,0.0,960.0,3.0,0.0
4823,55.0,0.0,960.0,3.0,0.0
4824,85.0,120.0,120.0,2.0,0.0
4825,86.0,480.0,120.0,2.0,0.0
4826,74.0,0.0,15.0,2.0,0.0
4827,90.0,240.0,480.0,0.0,0.0
4828,78.0,0.0,480.0,2.0,0.0
4829,69.0,0.0,960.0,3.0,0.0
4830,57.0,0.0,960.0,3.0,0.0
4831,76.0,0.0,480.0,2.0,0.0
4832,73.0,0.0,480.0,2.0,0.0
4833,76.0,120.0,240.0,8.0,0.0
4834,88.0,0.0,240.0,0.0,0.0
4835,78.0,0.0,120.0,8.0,0.0
4836,90.0,120.0,120.0,0.0,0.0
4837,79.0,120.0,120.0,8.0,0.0
4838,91.0,0.0,120.0,0.0,0.0
4839,81.0,0.0,120.0,2.0,0.0
4840,54.0,0.0,120.0,6.0,0.0
4841,74.0,0.0,120.0,10.0,0.0
4842,93.0,0.0,120.0,0.0,0.0
4843,86.0,0.0,120.0,0.0,0.0
4844,54.0,0.0,120.0,12.0,0.0
4845,74.0,0.0,120.0,2.0,0.0
4846,62.0,210.0,120.0,4.0,0.0
4847,69.0,0.0,120.0,4.0,0.0
4848,78.0,0.0,120.0,5.0,0.0
4849,66.0,0.0,120.0,5.0,0.0
4850,42.0,0.0,120.0,13.0,0.0
4851,54.0,0.0,120.0,3.0,0.0
4852,50.0,0.0,120.0,4.0,0.0
4853,81.0,0.0,120.0,8.0,0.0
4854,62.0,0.0,120.0,11.0,0.0
4855,81.0,0.0,120.0,1.0,0.0
4856,74.0,0.0,120.0,1.0,0.0
4857,54.0,0.0,90.0,12.0,0.0
4858,92.0,0.0,90.0,0.0,0.0
4859,86.0,0.0,90.0,0.0,0.0
4860,54.0,0.0,90.0,3.0,0.0
4861,74.0,0.0,90.0,1.0,0.0
4862,80.0,0.0,90.0,1.0,0.0
4863,68.0,0.0,90.0,4.0,0.0
4864,62.0,0.0,90.0,10.0,0.0
4865,42.0,0.0,90.0,13.0,0.0
4866,62.0,0.0,90.0,4.0,0.0
4867,50.0,0.0,90.0,4.0,0.0
4868,66.0,0.0,90.0,5.0,0.0
4869,78.0,0.0,90.0,5.0,0.0
4870,80.0,0.0,90.0,8.0,0.0
4871,80.0,0.0,90.0,2.0,0.0
4872,74.0,120.0,90.0,2.0,0.0
4873,74.0,0.0,90.0,11.0,0.0
4874,54.0,0.0,90.0,6.0,0.0
4875,74.0,0.0,30.0,11.0,0.0
4876,74.0,0.0,30.0,2.0,0.0
4877,54.0,0.0,30.0,6.0,0.0
4878,80.0,0.0,30.0,2.0,0.0
4879,80.0,0.0,30.0,8.0,0.0
4880,62.0,0.0,30.0,4.0,0.0
4881,50.0,0.0,30.0,4.0,0.0
4882,68.0,0.0,30.0,4.0,0.0
4883,54.0,0.0,30.0,3.0,0.0
4884,92.0,0.0,30.0,0.0,0.0
4885,86.0,0.0,30.0,0.0,0.0
4886,66.0,0.0,30.0,5.0,0.0
4887,78.0,0.0,30.0,5.0,0.0
4888,80.0,0.0,30.0,1.0,0.0
4889,74.0,150.0,30.0,1.0,0.0
4890,54.0,0.0,30.0,12.0,0.0
4891,42.0,0.0,30.0,13.0,0.0
4892,62.0,0.0,30.0,10.0,0.0
4893,50.0,0.0,120.0,4.0,0.0
4894,54.0,0.0,120.0,6.0,0.0
4895,42.0,0.0,120.0,13.0,0.0
4896,74.0,0.0,120.0,10.0,0.0
4897,86.0,0.0,120.0,0.0,0.0
4898,54.0,0.0,120.0,12.0,0.0
4899,62.0,0.0,120.0,11.0,0.0
4900,93.0,0.0,120.0,0.0,0.0
4901,74.0,0.0,120.0,1.0,0.0
4902,81.0,0.0,120.0,1.0,0.0
4903,54.0,0.0,120.0,3.0,0.0
4904,62.0,0.0,120.0,4.0,0.0
4905,66.0,480.0,120.0,5.0,0.0
4906,78.0,0.0,120.0,5.0,0.0
4907,69.0,0.0,120.0,4.0,0.0
4908,81.0,0.0,120.0,8.0,0.0
4909,74.0,0.0,120.0,2.0,0.0
4910,81.0,0.0,120.0,2.0,0.0
4911,74.0,0.0,120.0,1.0,0.0
4912,82.0,0.0,120.0,1.0,0.0
4913,62.0,0.0,120.0,11.0,0.0
4914,55.0,0.0,120.0,3.0,0.0
4915,82.0,0.0,120.0,8.0,0.0
4916,74.0,0.0,120.0,10.0,0.0
4917,70.0,210.0,120.0,4.0,0.0
4918,61.0,120.0,480.0,7.0,0.0
4919,55.0,0.0,120.0,12.0,0.0
4920,43.0,0.0,120.0,13.0,0.0
4921,62.0,0.0,120.0,4.0,0.0
4922,74.0,0.0,120.0,2.0,0.0
4923,50.0,0.0,120.0,4.0,0.0
4924,82.0,0.0,120.0,2.0,0.0
4925,94.0,0.0,120.0,0.0,0.0
4926,86.0,0.0,120.0,0.0,0.0
4927,74.0,0.0,90.0,1.0,0.0
4928,81.0,0.0,90.0,1.0,0.0
4929,81.0,0.0,90.0,8.0,0.0
4930,62.0,0.0,90.0,4.0,0.0
4931,63.0,240.0,480.0,7.0,0.0
4932,54.0,0.0,90.0,12.0,0.0
4933,62.0,0.0,90.0,10.0,0.0
4934,42.0,0.0,90.0,13.0,0.0
4935,54.0,0.0,90.0,3.0,0.0
4936,74.0,0.0,90.0,11.0,0.0
4937,86.0,0.0,90.0,0.0,0.0
4938,93.0,0.0,90.0,0.0,0.0
4939,81.0,0.0,90.0,2.0,0.0
4940,50.0,0.0,90.0,4.0,0.0
4941,69.0,120.0,90.0,4.0,0.0
4942,74.0,0.0,90.0,2.0,0.0
4943,81.0,0.0,30.0,2.0,0.0
4944,81.0,0.0,30.0,1.0,0.0
4945,86.0,0.0,30.0,0.0,0.0
4946,81.0,0.0,30.0,8.0,0.0
4947,93.0,0.0,30.0,0.0,0.0
4948,62.0,0.0,30.0,4.0,0.0
4949,69.0,0.0,30.0,4.0,0.0
4950,54.0,0.0,30.0,12.0,0.0
4951,50.0,0.0,30.0,4.0,0.0
4952,74.0,30.0,30.0,11.0,0.0
4953,42.0,0.0,30.0,13.0,0.0
4954,74.0,0.0,30.0,1.0,0.0
4955,54.0,0.0,30.0,3.0,0.0
4956,62.0,0.0,30.0,10.0,0.0
4957,74.0,0.0,30.0,2.0,0.0
4958,43.0,120.0,120.0,13.0,0.0
4959,86.0,0.0,120.0,0.0,0.0
4960,94.0,0.0,120.0,0.0,0.0
4961,62.0,0.0,120.0,11.0,0.0
4962,82.0,0.0,120.0,2.0,0.0
4963,82.0,0.0,120.0,8.0,0.0
4964,55.0,0.0,120.0,12.0,0.0
4965,68.0,600.0,480.0,7.0,0.0
4966,74.0,0.0,120.0,2.0,0.0
4967,74.0,0.0,120.0,1.0,0.0
4968,82.0,0.0,120.0,1.0,0.0
4969,55.0,0.0,120.0,3.0,0.0
4970,70.0,0.0,120.0,4.0,0.0
4971,62.0,0.0,120.0,4.0,0.0
4972,74.0,0.0,120.0,10.0,0.0
4973,50.0,0.0,120.0,4.0,0.0
4974,82.0,0.0,480.0,8.0,0.0
4975,67.0,240.0,480.0,11.0,0.0
4976,75.0,0.0,960.0,10.0,0.0
4977,84.0,120.0,240.0,8.0,0.0
4978,68.0,480.0,480.0,11.0,0.0
4979,87.0,0.0,960.0,0.0,0.0
4980,86.0,120.0,120.0,8.0,0.0
4981,87.0,0.0,120.0,8.0,0.0
4982,79.0,240.0,480.0,8.0,0.0
4983,70.0,0.0,960.0,11.0,0.0
4984,75.0,0.0,480.0,10.0,0.0
4985,89.0,0.0,240.0,0.0,0.0
4986,77.0,120.0,240.0,8.0,0.0
4987,74.0,0.0,240.0,10.0,0.0
4988,70.0,0.0,240.0,10.0,0.0
4989,91.0,120.0,120.0,0.0,0.0
4990,92.0,120.0,120.0,0.0,0.0
4991,67.0,0.0,960.0,3.0,0.0
4992,82.0,0.0,15.0,8.0,0.0
4993,63.0,120.0,120.0,11.0,0.0
4994,79.0,0.0,1920.0,10.0,0.0
4995,94.0,90.0,240.0,0.0,0.0
4996,62.0,120.0,90.0,11.0,0.0
4997,62.0,150.0,30.0,11.0,0.0
4998,51.0,210.0,120.0,12.0,0.0
4999,63.0,0.0,120.0,11.0,0.0
5000,50.0,120.0,90.0,12.0,0.0
5001,50.0,30.0,30.0,12.0,0.0
5002,51.0,210.0,120.0,12.0,0.0
5003,39.0,66.0,390.0,15.0,0.0
5004,87.0,120.0,960.0,8.0,0.0
5005,70.0,0.0,960.0,3.0,0.0
5006,63.0,0.0,120.0,11.0,0.0
5007,62.0,54.0,90.0,11.0,0.0
5008,62.0,150.0,30.0,11.0,0.0
5009,63.0,0.0,120.0,11.0,0.0
5010,51.0,210.0,120.0,12.0,0.0
5011,50.0,120.0,90.0,12.0,0.0
5012,50.0,30.0,30.0,12.0,0.0
5013,51.0,0.0,120.0,12.0,0.0
5014,80.0,0.0,960.0,10.0,0.0
5015,39.0,66.0,390.0,15.0,0.0
5016,63.0,210.0,120.0,11.0,0.0
5017,68.0,0.0,960.0,3.0,0.0
5018,77.0,120.0,960.0,8.0,0.0
5019,89.0,0.0,960.0,0.0,0.0
5020,62.0,54.0,90.0,11.0,0.0
5021,62.0,150.0,30.0,11.0,0.0
5022,51.0,210.0,120.0,12.0,0.0
5023,63.0,0.0,120.0,11.0,0.0
5024,50.0,120.0,90.0,12.0,0.0
5025,50.0,30.0,30.0,12.0,0.0
5026,63.0,0.0,120.0,11.0,0.0
5027,39.0,66.0,390.0,15.0,0.0
5028,51.0,210.0,120.0,12.0,0.0
5029,65.0,120.0,960.0,3.0,0.0
5030,68.0,0.0,960.0,10.0,0.0
5031,94.0,0.0,1140.0,0.0,0.0
5032,65.0,0.0,960.0,10.0,0.0
5033,62.0,54.0,90.0,11.0,0.0
5034,50.0,0.0,90.0,12.0,0.0
5035,50.0,150.0,30.0,12.0,0.0
5036,62.0,0.0,30.0,11.0,0.0
5037,63.0,0.0,120.0,11.0,0.0
5038,39.0,104.0,240.0,15.0,0.0
5039,82.0,0.0,660.0,1.0,0.0
5040,51.0,106.0,120.0,12.0,0.0
5041,62.0,0.0,90.0,11.0,0.0
5042,38.0,14.0,240.0,15.0,0.0
5043,50.0,120.0,90.0,12.0,0.0
5044,62.0,0.0,30.0,11.0,0.0
5045,50.0,16.0,30.0,12.0,0.0
5046,70.0,0.0,180.0,3.0,0.0
5047,46.0,96.0,390.0,15.0,0.0
5048,70.0,0.0,120.0,11.0,0.0
5049,82.0,0.0,15.0,8.0,0.0
5050,58.0,48.0,180.0,3.0,0.0
5051,58.0,0.0,120.0,12.0,0.0
5052,80.0,120.0,120.0,8.0,0.0
5053,68.0,0.0,120.0,11.0,0.0
5054,68.0,0.0,120.0,12.0,0.0
5055,67.0,24.0,120.0,11.0,0.0
5056,67.0,0.0,120.0,12.0,0.0
5057,79.0,0.0,120.0,8.0,0.0
5058,77.0,0.0,120.0,8.0,0.0
5059,65.0,120.0,120.0,11.0,0.0
5060,65.0,0.0,120.0,12.0,0.0
5061,75.0,0.0,180.0,1.0,0.0
5062,51.0,0.0,180.0,3.0,0.0
5063,63.0,0.0,180.0,3.0,0.0
5064,75.0,72.0,120.0,8.0,0.0
5065,87.0,48.0,180.0,0.0,0.0
5066,63.0,0.0,120.0,12.0,0.0
5067,63.0,0.0,120.0,11.0,0.0
5068,62.0,120.0,120.0,12.0,0.0
5069,74.0,0.0,120.0,8.0,0.0
5070,62.0,0.0,120.0,11.0,0.0
5071,60.0,0.0,120.0,11.0,0.0
5072,60.0,120.0,120.0,12.0,0.0
5073,72.0,0.0,120.0,8.0,0.0
5074,70.0,0.0,120.0,8.0,0.0
5075,58.0,120.0,120.0,11.0,0.0
5076,58.0,0.0,120.0,12.0,0.0
5077,56.0,0.0,120.0,12.0,0.0
5078,51.0,48.0,180.0,3.0,0.0
5079,63.0,0.0,180.0,3.0,0.0
5080,87.0,0.0,180.0,0.0,0.0
5081,56.0,72.0,120.0,11.0,0.0
5082,75.0,0.0,180.0,1.0,0.0
5083,68.0,0.0,120.0,8.0,0.0
5084,67.0,0.0,120.0,8.0,0.0
5085,55.0,0.0,120.0,12.0,0.0
5086,55.0,120.0,120.0,11.0,0.0
5087,53.0,120.0,120.0,11.0,0.0
5088,53.0,0.0,120.0,12.0,0.0
5089,65.0,0.0,120.0,8.0,0.0
5090,51.0,120.0,120.0,11.0,0.0
5091,63.0,0.0,120.0,8.0,0.0
5092,51.0,0.0,120.0,12.0,0.0
5093,50.0,0.0,120.0,12.0,0.0
5094,86.0,0.0,180.0,0.0,0.0
5095,62.0,0.0,180.0,3.0,0.0
5096,50.0,72.0,120.0,11.0,0.0
5097,50.0,0.0,180.0,3.0,0.0
5098,74.0,48.0,180.0,1.0,0.0
5099,62.0,0.0,120.0,8.0,0.0
5100,74.0,0.0,180.0,2.0,0.0
5101,62.0,0.0,180.0,2.0,0.0
5102,51.0,120.0,120.0,11.0,0.0
5103,63.0,0.0,120.0,8.0,0.0
5104,51.0,0.0,120.0,12.0,0.0
5105,62.0,0.0,120.0,8.0,0.0
5106,38.0,168.0,180.0,15.0,0.0
5107,50.0,0.0,120.0,12.0,0.0
5108,50.0,72.0,15.0,11.0,0.0
5109,50.0,0.0,240.0,12.0,0.0
5110,62.0,72.0,240.0,8.0,0.0
5111,61.0,0.0,180.0,2.0,0.0
5112,73.0,0.0,180.0,2.0,0.0
5113,73.0,48.0,180.0,1.0,0.0
5114,85.0,0.0,180.0,0.0,0.0
5115,61.0,0.0,240.0,3.0,0.0
5116,49.0,0.0,240.0,3.0,0.0
5117,49.0,0.0,120.0,11.0,0.0
5118,61.0,0.0,120.0,8.0,0.0
5119,49.0,120.0,120.0,12.0,0.0
5120,68.0,0.0,120.0,8.0,0.0
5121,37.0,48.0,180.0,15.0,0.0
5122,69.0,0.0,120.0,3.0,0.0
5123,57.0,0.0,120.0,3.0,0.0
5124,56.0,72.0,120.0,11.0,0.0
5125,56.0,0.0,120.0,12.0,0.0
5126,57.0,0.0,120.0,12.0,0.0
5127,69.0,0.0,120.0,8.0,0.0
5128,57.0,120.0,120.0,11.0,0.0
5129,82.0,0.0,240.0,1.0,0.0
5130,70.0,0.0,120.0,8.0,0.0
5131,70.0,0.0,240.0,2.0,0.0
5132,58.0,0.0,120.0,12.0,0.0
5133,58.0,120.0,120.0,11.0,0.0
5134,56.0,0.0,120.0,11.0,0.0
5135,56.0,120.0,120.0,12.0,0.0
5136,68.0,0.0,120.0,8.0,0.0
5137,57.0,0.0,120.0,11.0,0.0
5138,69.0,0.0,120.0,2.0,0.0
5139,69.0,0.0,120.0,4.0,0.0
5140,37.0,48.0,180.0,15.0,0.0
5141,81.0,0.0,120.0,1.0,0.0
5142,57.0,0.0,120.0,4.0,0.0
5143,69.0,72.0,120.0,8.0,0.0
5144,57.0,0.0,120.0,12.0,0.0
5145,49.0,0.0,120.0,11.0,0.0
5146,49.0,0.0,120.0,12.0,0.0
5147,61.0,120.0,120.0,8.0,0.0
5148,50.0,120.0,240.0,3.0,0.0
5149,50.0,0.0,120.0,11.0,0.0
5150,62.0,0.0,240.0,3.0,0.0
5151,50.0,120.0,120.0,12.0,0.0
5152,62.0,0.0,120.0,8.0,0.0
5153,60.0,0.0,120.0,11.0,0.0
5154,60.0,0.0,120.0,12.0,0.0
5155,72.0,0.0,120.0,8.0,0.0
5156,71.0,0.0,120.0,3.0,0.0
5157,59.0,72.0,120.0,3.0,0.0
5158,70.0,0.0,120.0,8.0,0.0
5159,58.0,0.0,120.0,11.0,0.0
5160,58.0,0.0,120.0,12.0,0.0
5161,38.0,48.0,180.0,15.0,0.0
5162,50.0,0.0,120.0,4.0,0.0
5163,62.0,0.0,120.0,4.0,0.0
5164,71.0,120.0,120.0,8.0,0.0
5165,59.0,0.0,120.0,11.0,0.0
5166,59.0,0.0,120.0,12.0,0.0
5167,62.0,0.0,120.0,12.0,0.0
5168,62.0,120.0,120.0,11.0,0.0
5169,86.0,0.0,240.0,1.0,0.0
5170,74.0,0.0,240.0,2.0,0.0
5171,74.0,0.0,120.0,8.0,0.0
5172,60.0,0.0,120.0,12.0,0.0
5173,60.0,0.0,120.0,11.0,0.0
5174,72.0,120.0,120.0,8.0,0.0
5175,40.0,48.0,180.0,15.0,0.0
5176,85.0,0.0,120.0,1.0,0.0
5177,73.0,72.0,120.0,8.0,0.0
5178,61.0,0.0,120.0,11.0,0.0
5179,61.0,0.0,120.0,12.0,0.0
5180,57.0,0.0,120.0,4.0,0.0
5181,73.0,0.0,120.0,2.0,0.0
5182,69.0,0.0,120.0,4.0,0.0
5183,52.0,0.0,120.0,11.0,0.0
5184,52.0,120.0,120.0,12.0,0.0
5185,64.0,0.0,120.0,8.0,0.0
5186,54.0,0.0,120.0,11.0,0.0
5187,54.0,120.0,240.0,3.0,0.0
5188,66.0,0.0,120.0,8.0,0.0
5189,42.0,0.0,240.0,3.0,0.0
5190,54.0,120.0,120.0,12.0,0.0
5191,76.0,0.0,120.0,8.0,0.0
5192,64.0,0.0,120.0,11.0,0.0
5193,64.0,0.0,120.0,12.0,0.0
5194,61.0,0.0,120.0,11.0,0.0
5195,42.0,48.0,180.0,15.0,0.0
5196,50.0,72.0,120.0,3.0,0.0
5197,61.0,0.0,120.0,12.0,0.0
5198,73.0,0.0,120.0,8.0,0.0
5199,62.0,0.0,120.0,3.0,0.0
5200,50.0,0.0,120.0,4.0,0.0
5201,62.0,0.0,120.0,4.0,0.0
5202,62.0,120.0,120.0,12.0,0.0
5203,74.0,0.0,120.0,8.0,0.0
5204,62.0,0.0,120.0,11.0,0.0
5205,90.0,0.0,240.0,0.0,0.0
5206,78.0,0.0,240.0,1.0,0.0
5207,78.0,120.0,120.0,8.0,0.0
5208,66.0,0.0,120.0,12.0,0.0
5209,66.0,0.0,120.0,11.0,0.0
5210,75.0,0.0,120.0,8.0,0.0
5211,63.0,120.0,120.0,11.0,0.0
5212,63.0,0.0,120.0,12.0,0.0
5213,88.0,0.0,120.0,0.0,0.0
5214,62.0,0.0,120.0,4.0,0.0
5215,64.0,0.0,120.0,12.0,0.0
5216,64.0,0.0,120.0,11.0,0.0
5217,76.0,72.0,120.0,8.0,0.0
5218,43.0,48.0,180.0,15.0,0.0
5219,50.0,0.0,120.0,4.0,0.0
5220,76.0,0.0,120.0,1.0,0.0
5221,55.0,0.0,120.0,12.0,0.0
5222,67.0,0.0,120.0,8.0,0.0
5223,55.0,120.0,120.0,11.0,0.0
5224,79.0,0.0,120.0,8.0,0.0
5225,67.0,120.0,120.0,12.0,0.0
5226,45.0,0.0,240.0,3.0,0.0
5227,57.0,0.0,240.0,3.0,0.0
5228,67.0,0.0,120.0,11.0,0.0
5229,65.0,0.0,120.0,12.0,0.0
5230,77.0,0.0,120.0,8.0,0.0
5231,65.0,120.0,120.0,11.0,0.0
5232,62.0,0.0,120.0,4.0,0.0
5233,50.0,0.0,120.0,4.0,0.0
5234,78.0,72.0,120.0,8.0,0.0
5235,54.0,0.0,120.0,3.0,0.0
5236,66.0,0.0,120.0,12.0,0.0
5237,66.0,0.0,120.0,3.0,0.0
5238,66.0,0.0,120.0,11.0,0.0
5239,45.0,48.0,180.0,15.0,0.0
5240,57.0,0.0,120.0,12.0,0.0
5241,69.0,0.0,120.0,8.0,0.0
5242,57.0,120.0,120.0,11.0,0.0
5243,69.0,0.0,120.0,12.0,0.0
5244,81.0,0.0,120.0,8.0,0.0
5245,93.0,0.0,240.0,0.0,0.0
5246,81.0,120.0,240.0,1.0,0.0
5247,69.0,120.0,120.0,11.0,0.0
5248,66.0,0.0,120.0,12.0,0.0
5249,78.0,0.0,120.0,8.0,0.0
5250,66.0,0.0,120.0,11.0,0.0
5251,67.0,72.0,120.0,4.0,0.0
5252,79.0,0.0,120.0,8.0,0.0
5253,47.0,48.0,180.0,15.0,0.0
5254,79.0,0.0,120.0,1.0,0.0
5255,67.0,0.0,120.0,11.0,0.0
5256,67.0,0.0,120.0,12.0,0.0
5257,91.0,0.0,120.0,0.0,0.0
5258,59.0,0.0,120.0,12.0,0.0
5259,59.0,96.0,120.0,11.0,0.0
5260,71.0,0.0,120.0,8.0,0.0
5261,82.0,64.0,600.0,8.0,0.0
5262,64.0,0.0,1920.0,4.0,0.0
5263,70.0,0.0,600.0,3.0,0.0
5264,61.0,24.0,90.0,11.0,0.0
5265,58.0,72.0,120.0,12.0,0.0
5266,64.0,0.0,90.0,11.0,0.0
5267,49.0,192.0,180.0,6.0,0.0
5268,49.0,40.0,150.0,6.0,0.0
5269,33.0,0.0,480.0,13.0,0.0
5270,57.0,24.0,480.0,12.0,0.0
5271,57.0,0.0,2160.0,4.0,0.0
5272,88.0,24.0,120.0,0.0,0.0
5273,64.0,44.0,60.0,11.0,0.0
5274,52.0,0.0,60.0,11.0,0.0
5275,49.0,12.0,60.0,6.0,0.0
5276,64.0,80.0,60.0,11.0,0.0
5277,52.0,0.0,60.0,11.0,0.0
5278,69.0,56.0,3180.0,4.0,0.0
5279,91.0,0.0,120.0,0.0,0.0
5280,49.0,48.0,180.0,6.0,0.0
5281,64.0,16.0,60.0,11.0,0.0
5282,52.0,0.0,60.0,11.0,0.0
5283,81.0,0.0,120.0,8.0,0.0
5284,52.0,0.0,60.0,11.0,0.0
5285,64.0,8.0,60.0,11.0,0.0
5286,69.0,0.0,120.0,3.0,0.0
5287,64.0,80.0,60.0,11.0,0.0
5288,52.0,0.0,60.0,11.0,0.0
5289,67.0,36.0,120.0,3.0,0.0
5290,79.0,0.0,120.0,8.0,0.0
5291,61.0,0.0,150.0,12.0,0.0
5292,37.0,84.0,150.0,13.0,0.0
5293,52.0,16.0,60.0,11.0,0.0
5294,64.0,0.0,60.0,11.0,0.0
5295,64.0,96.0,120.0,3.0,0.0
5296,76.0,0.0,120.0,8.0,0.0
5297,49.0,192.0,180.0,6.0,0.0
5298,64.0,0.0,90.0,11.0,0.0
5299,52.0,96.0,90.0,11.0,0.0
5300,82.0,64.0,600.0,2.0,0.0
5301,70.0,0.0,600.0,10.0,0.0
5302,49.0,24.0,480.0,12.0,0.0
5303,49.0,40.0,150.0,6.0,0.0
5304,37.0,0.0,480.0,13.0,0.0
5305,76.0,24.0,120.0,1.0,0.0
5306,57.0,44.0,60.0,11.0,0.0
5307,52.0,0.0,60.0,11.0,0.0
5308,49.0,12.0,60.0,6.0,0.0
5309,57.0,0.0,60.0,11.0,0.0
5310,52.0,80.0,60.0,11.0,0.0
5311,49.0,48.0,180.0,6.0,0.0
5312,79.0,0.0,120.0,1.0,0.0
5313,57.0,0.0,60.0,11.0,0.0
5314,52.0,16.0,60.0,11.0,0.0
5315,69.0,0.0,120.0,10.0,0.0
5316,57.0,8.0,60.0,11.0,0.0
5317,81.0,0.0,120.0,2.0,0.0
5318,52.0,0.0,60.0,11.0,0.0
5319,52.0,0.0,60.0,11.0,0.0
5320,57.0,80.0,60.0,11.0,0.0
5321,79.0,36.0,120.0,2.0,0.0
5322,45.0,0.0,150.0,13.0,0.0
5323,67.0,0.0,120.0,10.0,0.0
5324,57.0,84.0,150.0,12.0,0.0
5325,52.0,16.0,60.0,11.0,0.0
5326,57.0,0.0,60.0,11.0,0.0
5327,64.0,96.0,120.0,10.0,0.0
5328,76.0,0.0,120.0,2.0,0.0
5329,54.0,192.0,180.0,6.0,0.0
5330,66.0,0.0,1920.0,4.0,0.0
5331,71.0,64.0,600.0,3.0,0.0
5332,83.0,0.0,600.0,8.0,0.0
5333,54.0,0.0,90.0,11.0,0.0
5334,57.0,96.0,90.0,11.0,0.0
5335,54.0,40.0,150.0,6.0,0.0
5336,45.0,24.0,480.0,13.0,0.0
5337,57.0,0.0,480.0,12.0,0.0
5338,90.0,24.0,120.0,0.0,0.0
5339,66.0,0.0,60.0,11.0,0.0
5340,57.0,44.0,60.0,11.0,0.0
5341,54.0,12.0,60.0,6.0,0.0
5342,57.0,80.0,60.0,11.0,0.0
5343,66.0,0.0,60.0,11.0,0.0
5344,54.0,48.0,180.0,6.0,0.0
5345,62.0,0.0,1200.0,4.0,0.0
5346,93.0,0.0,120.0,0.0,0.0
5347,66.0,0.0,60.0,11.0,0.0
5348,57.0,16.0,60.0,11.0,0.0
5349,69.0,0.0,120.0,3.0,0.0
5350,81.0,0.0,120.0,8.0,0.0
5351,66.0,8.0,60.0,11.0,0.0
5352,57.0,0.0,60.0,11.0,0.0
5353,66.0,0.0,60.0,11.0,0.0
5354,57.0,80.0,60.0,11.0,0.0
5355,66.0,0.0,120.0,3.0,0.0
5356,62.0,0.0,150.0,12.0,0.0
5357,78.0,36.0,120.0,8.0,0.0
5358,50.0,84.0,150.0,13.0,0.0
5359,66.0,16.0,60.0,11.0,0.0
5360,57.0,0.0,60.0,11.0,0.0
5361,62.0,96.0,120.0,3.0,0.0
5362,74.0,0.0,120.0,8.0,0.0
5363,71.0,0.0,600.0,10.0,0.0
5364,54.0,192.0,180.0,6.0,0.0
5365,66.0,0.0,90.0,11.0,0.0
5366,57.0,96.0,90.0,11.0,0.0
5367,83.0,64.0,600.0,2.0,0.0
5368,62.0,0.0,480.0,12.0,0.0
5369,50.0,0.0,480.0,13.0,0.0
5370,54.0,40.0,150.0,6.0,0.0
5371,78.0,24.0,120.0,1.0,0.0
5372,54.0,44.0,60.0,11.0,0.0
5373,57.0,0.0,60.0,11.0,0.0
5374,54.0,12.0,60.0,6.0,0.0
5375,54.0,80.0,60.0,11.0,0.0
5376,57.0,0.0,60.0,11.0,0.0
5377,81.0,0.0,120.0,1.0,0.0
5378,54.0,48.0,180.0,6.0,0.0
5379,54.0,16.0,60.0,11.0,0.0
5380,57.0,0.0,60.0,11.0,0.0
5381,57.0,0.0,60.0,11.0,0.0
5382,69.0,24.0,120.0,10.0,0.0
5383,81.0,0.0,120.0,2.0,0.0
5384,54.0,8.0,60.0,11.0,0.0
5385,57.0,0.0,60.0,11.0,0.0
5386,54.0,24.0,60.0,11.0,0.0
5387,78.0,36.0,120.0,2.0,0.0
5388,69.0,0.0,150.0,12.0,0.0
5389,66.0,0.0,120.0,10.0,0.0
5390,57.0,84.0,150.0,13.0,0.0
5391,54.0,16.0,60.0,11.0,0.0
5392,57.0,0.0,60.0,11.0,0.0
5393,62.0,0.0,120.0,10.0,0.0
5394,74.0,96.0,120.0,2.0,0.0
5395,61.0,96.0,90.0,11.0,0.0
5396,82.0,0.0,600.0,8.0,0.0
5397,49.0,192.0,180.0,6.0,0.0
5398,64.0,0.0,90.0,11.0,0.0
5399,69.0,56.0,1740.0,4.0,0.0
5400,64.0,0.0,1740.0,4.0,0.0
5401,57.0,0.0,15.0,4.0,0.0
5402,70.0,64.0,600.0,3.0,0.0
5403,49.0,40.0,150.0,6.0,0.0
5404,33.0,0.0,480.0,13.0,0.0
5405,45.0,0.0,480.0,12.0,0.0
5406,64.0,0.0,60.0,11.0,0.0
5407,88.0,24.0,120.0,0.0,0.0
5408,52.0,44.0,60.0,11.0,0.0
5409,49.0,12.0,60.0,6.0,0.0
5410,64.0,80.0,60.0,11.0,0.0
5411,52.0,0.0,60.0,11.0,0.0
5412,49.0,48.0,180.0,6.0,0.0
5413,91.0,0.0,120.0,0.0,0.0
5414,64.0,0.0,60.0,11.0,0.0
5415,52.0,16.0,60.0,11.0,0.0
5416,64.0,8.0,60.0,11.0,0.0
5417,52.0,0.0,60.0,11.0,0.0
5418,69.0,0.0,120.0,3.0,0.0
5419,81.0,24.0,120.0,8.0,0.0
5420,64.0,0.0,60.0,11.0,0.0
5421,52.0,80.0,60.0,11.0,0.0
5422,37.0,84.0,150.0,13.0,0.0
5423,67.0,36.0,120.0,3.0,0.0
5424,49.0,0.0,150.0,12.0,0.0
5425,79.0,0.0,120.0,8.0,0.0
5426,64.0,16.0,60.0,11.0,0.0
5427,52.0,0.0,60.0,11.0,0.0
5428,64.0,96.0,120.0,3.0,0.0
5429,76.0,0.0,120.0,8.0,0.0
5430,64.0,96.0,90.0,11.0,0.0
5431,49.0,192.0,180.0,6.0,0.0
5432,82.0,0.0,600.0,2.0,0.0
5433,52.0,0.0,90.0,11.0,0.0
5434,70.0,64.0,600.0,10.0,0.0
5435,37.0,0.0,480.0,13.0,0.0
5436,49.0,0.0,480.0,12.0,0.0
5437,49.0,40.0,150.0,6.0,0.0
5438,76.0,24.0,120.0,1.0,0.0
5439,52.0,44.0,60.0,11.0,0.0
5440,57.0,0.0,60.0,11.0,0.0
5441,49.0,12.0,60.0,6.0,0.0
5442,52.0,0.0,60.0,11.0,0.0
5443,57.0,80.0,60.0,11.0,0.0
5444,79.0,0.0,120.0,1.0,0.0
5445,49.0,48.0,180.0,6.0,0.0
5446,52.0,16.0,60.0,11.0,0.0
5447,57.0,0.0,60.0,11.0,0.0
5448,57.0,8.0,60.0,11.0,0.0
5449,52.0,0.0,60.0,11.0,0.0
5450,81.0,24.0,120.0,2.0,0.0
5451,69.0,0.0,120.0,10.0,0.0
5452,52.0,24.0,60.0,11.0,0.0
5453,57.0,0.0,60.0,11.0,0.0
5454,57.0,84.0,150.0,12.0,0.0
5455,67.0,0.0,120.0,10.0,0.0
5456,45.0,0.0,150.0,13.0,0.0
5457,79.0,36.0,120.0,2.0,0.0
5458,52.0,0.0,60.0,11.0,0.0
5459,57.0,16.0,60.0,11.0,0.0
5460,64.0,0.0,120.0,10.0,0.0
5461,76.0,96.0,120.0,2.0,0.0
5462,83.0,64.0,600.0,8.0,0.0
5463,69.0,0.0,1740.0,4.0,0.0
5464,71.0,0.0,600.0,3.0,0.0
5465,54.0,192.0,180.0,6.0,0.0
5466,54.0,96.0,90.0,11.0,0.0
5467,57.0,0.0,90.0,11.0,0.0
5468,62.0,0.0,1920.0,4.0,0.0
5469,66.0,56.0,780.0,4.0,0.0
5470,57.0,0.0,480.0,12.0,0.0
5471,54.0,40.0,150.0,6.0,0.0
5472,45.0,0.0,480.0,13.0,0.0
5473,57.0,0.0,60.0,11.0,0.0
5474,66.0,44.0,60.0,11.0,0.0
5475,90.0,24.0,120.0,0.0,0.0
5476,54.0,12.0,60.0,6.0,0.0
5477,66.0,0.0,60.0,11.0,0.0
5478,57.0,80.0,60.0,11.0,0.0
5479,93.0,0.0,120.0,0.0,0.0
5480,54.0,48.0,180.0,6.0,0.0
5481,66.0,16.0,60.0,11.0,0.0
5482,57.0,0.0,60.0,11.0,0.0
5483,81.0,0.0,120.0,8.0,0.0
5484,66.0,8.0,60.0,11.0,0.0
5485,69.0,24.0,120.0,3.0,0.0
5486,57.0,0.0,60.0,11.0,0.0
5487,57.0,24.0,60.0,11.0,0.0
5488,66.0,0.0,60.0,11.0,0.0
5489,50.0,84.0,150.0,13.0,0.0
5490,66.0,0.0,120.0,3.0,0.0
5491,78.0,36.0,120.0,8.0,0.0
5492,62.0,0.0,150.0,12.0,0.0
5493,57.0,0.0,60.0,11.0,0.0
5494,66.0,16.0,60.0,11.0,0.0
5495,62.0,96.0,120.0,3.0,0.0
5496,74.0,0.0,120.0,8.0,0.0
5497,66.0,96.0,90.0,11.0,0.0
5498,54.0,192.0,180.0,6.0,0.0
5499,66.0,56.0,780.0,4.0,0.0
5500,71.0,0.0,600.0,10.0,0.0
5501,57.0,0.0,90.0,11.0,0.0
5502,83.0,0.0,600.0,2.0,0.0
5503,50.0,24.0,480.0,13.0,0.0
5504,54.0,40.0,150.0,6.0,0.0
5505,62.0,0.0,480.0,12.0,0.0
5506,78.0,24.0,120.0,1.0,0.0
5507,54.0,44.0,60.0,11.0,0.0
5508,57.0,0.0,60.0,11.0,0.0
5509,54.0,12.0,60.0,6.0,0.0
5510,54.0,80.0,60.0,11.0,0.0
5511,57.0,0.0,60.0,11.0,0.0
5512,54.0,48.0,180.0,6.0,0.0
5513,81.0,64.0,120.0,1.0,0.0
5514,54.0,0.0,60.0,11.0,0.0
5515,57.0,16.0,60.0,11.0,0.0
5516,69.0,0.0,120.0,10.0,0.0
5517,81.0,0.0,120.0,2.0,0.0
5518,57.0,0.0,60.0,11.0,0.0
5519,54.0,8.0,60.0,11.0,0.0
5520,54.0,0.0,60.0,11.0,0.0
5521,57.0,24.0,60.0,11.0,0.0
5522,57.0,0.0,150.0,13.0,0.0
5523,69.0,84.0,150.0,12.0,0.0
5524,66.0,0.0,120.0,10.0,0.0
5525,78.0,36.0,120.0,2.0,0.0
5526,54.0,16.0,60.0,11.0,0.0
5527,57.0,0.0,60.0,11.0,0.0
5528,62.0,0.0,120.0,10.0,0.0
5529,74.0,96.0,120.0,2.0,0.0
5530,64.0,0.0,90.0,11.0,0.0
5531,82.0,72.0,120.0,8.0,0.0
5532,69.0,0.0,1740.0,4.0,0.0
5533,52.0,24.0,90.0,11.0,0.0
5534,57.0,0.0,1740.0,4.0,0.0
5535,64.0,0.0,960.0,4.0,0.0
5536,49.0,48.0,180.0,6.0,0.0
5537,70.0,0.0,120.0,3.0,0.0
5538,81.0,0.0,120.0,8.0,0.0
5539,88.0,0.0,120.0,0.0,0.0
5540,69.0,114.0,120.0,3.0,0.0
5541,67.0,0.0,120.0,3.0,0.0
5542,45.0,6.0,120.0,12.0,0.0
5543,49.0,40.0,150.0,6.0,0.0
5544,91.0,0.0,120.0,0.0,0.0
5545,79.0,24.0,120.0,8.0,0.0
5546,33.0,0.0,120.0,13.0,0.0
5547,76.0,24.0,120.0,8.0,0.0
5548,52.0,0.0,60.0,11.0,0.0
5549,57.0,44.0,60.0,11.0,0.0
5550,64.0,0.0,120.0,3.0,0.0
5551,52.0,6.0,120.0,12.0,0.0
5552,40.0,0.0,120.0,13.0,0.0
5553,49.0,6.0,60.0,6.0,0.0
5554,57.0,0.0,60.0,11.0,0.0
5555,52.0,80.0,60.0,11.0,0.0
5556,70.0,0.0,120.0,10.0,0.0
5557,82.0,64.0,120.0,2.0,0.0
5558,49.0,48.0,180.0,6.0,0.0
5559,57.0,16.0,60.0,11.0,0.0
5560,52.0,0.0,60.0,11.0,0.0
5561,81.0,0.0,120.0,2.0,0.0
5562,69.0,0.0,120.0,10.0,0.0
5563,52.0,8.0,60.0,11.0,0.0
5564,57.0,0.0,60.0,11.0,0.0
5565,76.0,24.0,120.0,1.0,0.0
5566,57.0,80.0,60.0,11.0,0.0
5567,52.0,0.0,60.0,11.0,0.0
5568,79.0,0.0,120.0,1.0,0.0
5569,79.0,0.0,120.0,2.0,0.0
5570,45.0,6.0,120.0,13.0,0.0
5571,57.0,0.0,120.0,12.0,0.0
5572,67.0,114.0,120.0,10.0,0.0
5573,52.0,10.0,60.0,11.0,0.0
5574,57.0,0.0,60.0,11.0,0.0
5575,76.0,0.0,120.0,2.0,0.0
5576,52.0,0.0,120.0,13.0,0.0
5577,64.0,6.0,120.0,12.0,0.0
5578,64.0,0.0,120.0,10.0,0.0
5579,71.0,72.0,120.0,3.0,0.0
5580,57.0,0.0,90.0,11.0,0.0
5581,66.0,56.0,780.0,4.0,0.0
5582,54.0,24.0,90.0,11.0,0.0
5583,54.0,48.0,180.0,6.0,0.0
5584,83.0,0.0,120.0,8.0,0.0
5585,62.0,54.0,900.0,4.0,0.0
5586,81.0,114.0,120.0,8.0,0.0
5587,90.0,0.0,120.0,0.0,0.0
5588,69.0,0.0,120.0,3.0,0.0
5589,66.0,0.0,120.0,3.0,0.0
5590,33.0,0.0,120.0,13.0,0.0
5591,93.0,24.0,120.0,0.0,0.0
5592,78.0,0.0,120.0,8.0,0.0
5593,54.0,40.0,150.0,6.0,0.0
5594,45.0,6.0,120.0,12.0,0.0
5595,66.0,0.0,60.0,11.0,0.0
5596,74.0,24.0,120.0,8.0,0.0
5597,62.0,0.0,120.0,3.0,0.0
5598,57.0,44.0,60.0,11.0,0.0
5599,54.0,0.0,120.0,12.0,0.0
5600,42.0,6.0,120.0,13.0,0.0
5601,54.0,6.0,60.0,6.0,0.0
5602,66.0,0.0,60.0,11.0,0.0
5603,57.0,80.0,60.0,11.0,0.0
5604,71.0,0.0,120.0,10.0,0.0
5605,83.0,64.0,120.0,2.0,0.0
5606,54.0,48.0,180.0,6.0,0.0
5607,57.0,0.0,60.0,11.0,0.0
5608,66.0,16.0,60.0,11.0,0.0
5609,66.0,0.0,60.0,11.0,0.0
5610,57.0,8.0,60.0,11.0,0.0
5611,69.0,0.0,120.0,10.0,0.0
5612,81.0,24.0,120.0,2.0,0.0
5613,78.0,0.0,120.0,1.0,0.0
5614,57.0,0.0,60.0,11.0,0.0
5615,66.0,24.0,60.0,11.0,0.0
5616,81.0,60.0,120.0,1.0,0.0
5617,66.0,0.0,120.0,10.0,0.0
5618,45.0,6.0,120.0,13.0,0.0
5619,57.0,0.0,120.0,12.0,0.0
5620,78.0,0.0,120.0,2.0,0.0
5621,66.0,10.0,60.0,11.0,0.0
5622,57.0,0.0,60.0,11.0,0.0
5623,74.0,96.0,120.0,2.0,0.0
5624,66.0,0.0,120.0,12.0,0.0
5625,62.0,0.0,120.0,10.0,0.0
5626,54.0,6.0,120.0,13.0,0.0
5627,33.0,120.0,120.0,13.0,0.0
5628,45.0,0.0,120.0,3.0,0.0
5629,57.0,24.0,90.0,4.0,0.0
5630,61.0,0.0,120.0,10.0,0.0
5631,45.0,0.0,120.0,12.0,0.0
5632,82.0,0.0,120.0,1.0,0.0
5633,64.0,0.0,90.0,4.0,0.0
5634,69.0,0.0,90.0,4.0,0.0
5635,82.0,0.0,120.0,8.0,0.0
5636,55.0,0.0,120.0,11.0,0.0
5637,81.0,0.0,120.0,8.0,0.0
5638,81.0,96.0,120.0,1.0,0.0
5639,57.0,0.0,210.0,4.0,0.0
5640,69.0,0.0,210.0,4.0,0.0
5641,55.0,0.0,120.0,12.0,0.0
5642,64.0,0.0,210.0,4.0,0.0
5643,64.0,0.0,120.0,10.0,0.0
5644,52.0,0.0,120.0,11.0,0.0
5645,55.0,0.0,120.0,3.0,0.0
5646,43.0,0.0,120.0,13.0,0.0
5647,33.0,0.0,120.0,13.0,0.0
5648,61.0,0.0,120.0,10.0,0.0
5649,82.0,0.0,120.0,2.0,0.0
5650,85.0,0.0,120.0,8.0,0.0
5651,45.0,24.0,120.0,3.0,0.0
5652,49.0,84.0,150.0,6.0,0.0
5653,94.0,6.0,120.0,0.0,0.0
5654,45.0,0.0,120.0,12.0,0.0
5655,55.0,0.0,120.0,11.0,0.0
5656,85.0,96.0,240.0,1.0,0.0
5657,81.0,0.0,240.0,2.0,0.0
5658,55.0,0.0,120.0,12.0,0.0
5659,57.0,18.0,210.0,4.0,0.0
5660,64.0,0.0,120.0,10.0,0.0
5661,43.0,0.0,120.0,13.0,0.0
5662,55.0,0.0,120.0,3.0,0.0
5663,52.0,0.0,120.0,11.0,0.0
5664,93.0,6.0,240.0,0.0,0.0
5665,69.0,0.0,210.0,4.0,0.0
5666,81.0,0.0,120.0,8.0,0.0
5667,64.0,0.0,210.0,4.0,0.0
5668,49.0,12.0,60.0,6.0,0.0
5669,45.0,0.0,120.0,12.0,0.0
5670,45.0,0.0,120.0,3.0,0.0
5671,55.0,0.0,120.0,11.0,0.0
5672,49.0,48.0,180.0,6.0,0.0
5673,61.0,0.0,120.0,10.0,0.0
5674,88.0,72.0,120.0,8.0,0.0
5675,33.0,0.0,120.0,13.0,0.0
5676,88.0,72.0,360.0,1.0,0.0
5677,64.0,0.0,120.0,10.0,0.0
5678,57.0,0.0,120.0,4.0,0.0
5679,52.0,0.0,120.0,11.0,0.0
5680,55.0,96.0,120.0,12.0,0.0
5681,64.0,0.0,120.0,4.0,0.0
5682,93.0,6.0,240.0,0.0,0.0
5683,43.0,0.0,120.0,13.0,0.0
5684,81.0,0.0,240.0,2.0,0.0
5685,81.0,0.0,120.0,8.0,0.0
5686,55.0,0.0,120.0,3.0,0.0
5687,54.0,24.0,180.0,6.0,0.0
5688,45.0,0.0,120.0,12.0,0.0
5689,57.0,0.0,120.0,11.0,0.0
5690,57.0,0.0,90.0,4.0,0.0
5691,45.0,0.0,120.0,3.0,0.0
5692,33.0,0.0,120.0,13.0,0.0
5693,88.0,0.0,120.0,8.0,0.0
5694,61.0,0.0,120.0,10.0,0.0
5695,66.0,0.0,90.0,4.0,0.0
5696,69.0,0.0,15.0,4.0,0.0
5697,81.0,6.0,120.0,2.0,0.0
5698,93.0,0.0,120.0,0.0,0.0
5699,54.0,0.0,120.0,11.0,0.0
5700,54.0,0.0,120.0,12.0,0.0
5701,54.0,0.0,120.0,3.0,0.0
5702,86.0,96.0,120.0,1.0,0.0
5703,69.0,0.0,90.0,4.0,0.0
5704,57.0,0.0,90.0,4.0,0.0
5705,66.0,0.0,90.0,4.0,0.0
5706,62.0,0.0,120.0,10.0,0.0
5707,86.0,0.0,120.0,8.0,0.0
5708,42.0,0.0,120.0,13.0,0.0
5709,69.0,0.0,90.0,4.0,0.0
5710,82.0,0.0,120.0,8.0,0.0
5711,57.0,0.0,90.0,4.0,0.0
5712,61.0,0.0,120.0,10.0,0.0
5713,82.0,0.0,120.0,1.0,0.0
5714,45.0,0.0,120.0,3.0,0.0
5715,55.0,0.0,120.0,11.0,0.0
5716,33.0,0.0,120.0,13.0,0.0
5717,45.0,120.0,120.0,12.0,0.0
5718,64.0,0.0,90.0,4.0,0.0
5719,55.0,0.0,120.0,3.0,0.0
5720,43.0,0.0,120.0,13.0,0.0
5721,52.0,0.0,120.0,11.0,0.0
5722,57.0,0.0,210.0,4.0,0.0
5723,81.0,0.0,120.0,1.0,0.0
5724,64.0,0.0,120.0,10.0,0.0
5725,69.0,0.0,210.0,4.0,0.0
5726,81.0,96.0,120.0,8.0,0.0
5727,55.0,0.0,120.0,12.0,0.0
5728,64.0,0.0,210.0,4.0,0.0
5729,61.0,0.0,120.0,10.0,0.0
5730,94.0,6.0,120.0,0.0,0.0
5731,45.0,0.0,120.0,12.0,0.0
5732,55.0,0.0,120.0,11.0,0.0
5733,82.0,0.0,120.0,2.0,0.0
5734,85.0,96.0,240.0,1.0,0.0
5735,49.0,84.0,150.0,6.0,0.0
5736,45.0,24.0,120.0,3.0,0.0
5737,33.0,0.0,120.0,13.0,0.0
5738,85.0,0.0,120.0,8.0,0.0
5739,81.0,6.0,240.0,2.0,0.0
5740,81.0,0.0,120.0,8.0,0.0
5741,40.0,0.0,120.0,13.0,0.0
5742,55.0,0.0,120.0,3.0,0.0
5743,64.0,0.0,120.0,10.0,0.0
5744,93.0,0.0,240.0,0.0,0.0
5745,52.0,0.0,120.0,12.0,0.0
5746,69.0,0.0,210.0,4.0,0.0
5747,57.0,0.0,210.0,4.0,0.0
5748,64.0,0.0,210.0,4.0,0.0
5749,52.0,0.0,120.0,11.0,0.0
5750,49.0,12.0,60.0,6.0,0.0
5751,61.0,0.0,120.0,10.0,0.0
5752,88.0,0.0,120.0,8.0,0.0
5753,45.0,0.0,120.0,3.0,0.0
5754,55.0,72.0,120.0,11.0,0.0
5755,45.0,0.0,120.0,12.0,0.0
5756,33.0,0.0,120.0,13.0,0.0
5757,49.0,48.0,180.0,6.0,0.0
5758,88.0,0.0,360.0,1.0,0.0
5759,37.0,0.0,120.0,13.0,0.0
5760,81.0,0.0,120.0,8.0,0.0
5761,81.0,0.0,240.0,2.0,0.0
5762,55.0,0.0,120.0,3.0,0.0
5763,49.0,0.0,120.0,12.0,0.0
5764,93.0,6.0,240.0,0.0,0.0
5765,52.0,0.0,120.0,11.0,0.0
5766,64.0,0.0,120.0,4.0,0.0
5767,64.0,0.0,120.0,10.0,0.0
5768,45.0,0.0,120.0,12.0,0.0
5769,57.0,0.0,120.0,11.0,0.0
5770,69.0,0.0,15.0,4.0,0.0
5771,88.0,0.0,120.0,8.0,0.0
5772,45.0,72.0,120.0,3.0,0.0
5773,33.0,0.0,120.0,13.0,0.0
5774,54.0,24.0,180.0,6.0,0.0
5775,61.0,0.0,120.0,10.0,0.0
5776,57.0,96.0,15.0,4.0,0.0
5777,66.0,0.0,90.0,4.0,0.0
5778,86.0,0.0,120.0,1.0,0.0
5779,62.0,0.0,120.0,10.0,0.0
5780,54.0,48.0,120.0,11.0,0.0
5781,54.0,0.0,120.0,3.0,0.0
5782,93.0,6.0,120.0,0.0,0.0
5783,86.0,0.0,120.0,8.0,0.0
5784,57.0,0.0,300.0,4.0,0.0
5785,66.0,0.0,90.0,4.0,0.0
5786,81.0,0.0,120.0,2.0,0.0
5787,50.0,0.0,15.0,12.0,0.0
5788,81.0,0.0,180.0,0.0,0.0
5789,50.0,0.0,90.0,3.0,0.0
5790,69.0,0.0,180.0,4.0,0.0
5791,93.0,0.0,180.0,0.0,0.0
5792,38.0,0.0,15.0,13.0,0.0
5793,79.0,0.0,180.0,1.0,0.0
5794,81.0,0.0,180.0,2.0,0.0
5795,91.0,0.0,60.0,8.0,0.0
5796,67.0,38.0,60.0,11.0,0.0
5797,66.0,10.0,60.0,10.0,0.0
5798,69.0,0.0,180.0,2.0,0.0
5799,69.0,24.0,180.0,1.0,0.0
5800,66.0,10.0,60.0,10.0,0.0
5801,69.0,0.0,60.0,11.0,0.0
5802,81.0,50.0,60.0,8.0,0.0
5803,79.0,14.0,60.0,8.0,0.0
5804,40.0,0.0,90.0,13.0,0.0
5805,67.0,10.0,60.0,10.0,0.0
5806,52.0,12.0,90.0,3.0,0.0
5807,52.0,0.0,90.0,12.0,0.0
5808,67.0,0.0,60.0,11.0,0.0
5809,78.0,50.0,60.0,8.0,0.0
5810,66.0,0.0,60.0,11.0,0.0
5811,67.0,10.0,60.0,10.0,0.0
5812,76.0,0.0,60.0,8.0,0.0
5813,64.0,60.0,60.0,11.0,0.0
5814,73.0,0.0,180.0,5.0,0.0
5815,61.0,0.0,180.0,5.0,0.0
5816,45.0,0.0,390.0,4.0,0.0
5817,57.0,0.0,390.0,4.0,0.0
5818,81.0,0.0,390.0,0.0,0.0
5819,69.0,0.0,390.0,0.0,0.0
5820,76.0,36.0,180.0,1.0,0.0
5821,55.0,0.0,390.0,13.0,0.0
5822,69.0,24.0,390.0,2.0,0.0
5823,67.0,0.0,390.0,3.0,0.0
5824,67.0,0.0,390.0,12.0,0.0
5825,49.0,0.0,180.0,6.0,0.0
5826,76.0,0.0,60.0,10.0,0.0
5827,78.0,0.0,60.0,8.0,0.0
5828,76.0,0.0,60.0,10.0,0.0
5829,66.0,60.0,60.0,11.0,0.0
5830,64.0,0.0,60.0,11.0,0.0
5831,76.0,0.0,60.0,8.0,0.0
5832,76.0,24.0,60.0,10.0,0.0
5833,62.0,60.0,60.0,11.0,0.0
5834,76.0,0.0,60.0,10.0,0.0
5835,74.0,0.0,60.0,8.0,0.0
5836,61.0,60.0,60.0,11.0,0.0
5837,73.0,36.0,180.0,1.0,0.0
5838,73.0,0.0,60.0,8.0,0.0
5839,76.0,0.0,60.0,10.0,0.0
5840,74.0,0.0,60.0,8.0,0.0
5841,76.0,36.0,60.0,10.0,0.0
5842,62.0,0.0,60.0,11.0,0.0
5843,64.0,24.0,60.0,11.0,0.0
5844,76.0,0.0,60.0,10.0,0.0
5845,76.0,0.0,60.0,8.0,0.0
5846,76.0,0.0,60.0,10.0,0.0
5847,66.0,60.0,60.0,11.0,0.0
5848,78.0,0.0,60.0,8.0,0.0
5849,52.0,0.0,330.0,12.0,0.0
5850,69.0,0.0,420.0,2.0,0.0
5851,69.0,0.0,420.0,4.0,0.0
5852,81.0,0.0,420.0,0.0,0.0
5853,93.0,24.0,420.0,0.0,0.0
5854,81.0,0.0,420.0,2.0,0.0
5855,85.0,36.0,180.0,1.0,0.0
5856,40.0,0.0,330.0,13.0,0.0
5857,79.0,0.0,60.0,8.0,0.0
5858,57.0,0.0,420.0,4.0,0.0
5859,67.0,0.0,60.0,11.0,0.0
5860,52.0,0.0,330.0,3.0,0.0
5861,81.0,0.0,420.0,1.0,0.0
5862,69.0,60.0,60.0,10.0,0.0
5863,81.0,0.0,60.0,8.0,0.0
5864,69.0,0.0,60.0,10.0,0.0
5865,69.0,60.0,60.0,11.0,0.0
5866,69.0,24.0,60.0,10.0,0.0
5867,83.0,0.0,60.0,8.0,0.0
5868,71.0,0.0,60.0,11.0,0.0
5869,69.0,70.0,60.0,10.0,0.0
5870,73.0,0.0,60.0,11.0,0.0
5871,85.0,0.0,60.0,8.0,0.0
5872,74.0,0.0,90.0,11.0,0.0
5873,86.0,0.0,180.0,1.0,0.0
5874,86.0,22.0,90.0,8.0,0.0
5875,81.0,38.0,60.0,10.0,0.0
5876,83.0,60.0,60.0,10.0,0.0
5877,42.0,0.0,90.0,13.0,0.0
5878,54.0,0.0,90.0,12.0,0.0
5879,54.0,22.0,90.0,3.0,0.0
5880,81.0,14.0,60.0,10.0,0.0
5881,79.0,50.0,60.0,10.0,0.0
5882,57.0,24.0,390.0,13.0,0.0
5883,45.0,0.0,390.0,4.0,0.0
5884,54.0,0.0,180.0,6.0,0.0
5885,69.0,0.0,390.0,2.0,0.0
5886,57.0,0.0,390.0,4.0,0.0
5887,69.0,0.0,390.0,12.0,0.0
5888,78.0,36.0,180.0,1.0,0.0
5889,69.0,0.0,390.0,3.0,0.0
5890,66.0,0.0,180.0,5.0,0.0
5891,78.0,60.0,60.0,10.0,0.0
5892,69.0,0.0,390.0,0.0,0.0
5893,81.0,0.0,390.0,0.0,0.0
5894,69.0,12.0,570.0,4.0,0.0
5895,78.0,0.0,180.0,5.0,0.0
5896,79.0,60.0,60.0,10.0,0.0
5897,78.0,24.0,60.0,10.0,0.0
5898,76.0,60.0,60.0,10.0,0.0
5899,74.0,60.0,60.0,10.0,0.0
5900,74.0,36.0,180.0,1.0,0.0
5901,76.0,36.0,60.0,10.0,0.0
5902,78.0,24.0,60.0,10.0,0.0
5903,79.0,60.0,60.0,10.0,0.0
5904,81.0,48.0,60.0,10.0,0.0
5905,54.0,12.0,330.0,3.0,0.0
5906,42.0,0.0,330.0,13.0,0.0
5907,62.0,0.0,420.0,4.0,0.0
5908,50.0,0.0,420.0,4.0,0.0
5909,86.0,0.0,330.0,0.0,0.0
5910,54.0,0.0,330.0,12.0,0.0
5911,74.0,0.0,420.0,2.0,0.0
5912,86.0,0.0,420.0,2.0,0.0
5913,74.0,36.0,180.0,1.0,0.0
5914,86.0,0.0,330.0,1.0,0.0
5915,83.0,60.0,60.0,10.0,0.0
5916,85.0,24.0,60.0,10.0,0.0
5917,86.0,60.0,60.0,10.0,0.0
5918,83.0,0.0,90.0,1.0,0.0
5919,88.0,10.0,60.0,10.0,0.0
5920,83.0,38.0,60.0,8.0,0.0
5921,71.0,24.0,180.0,4.0,0.0
5922,71.0,0.0,60.0,11.0,0.0
5923,73.0,0.0,60.0,11.0,0.0
5924,85.0,50.0,60.0,8.0,0.0
5925,71.0,10.0,60.0,10.0,0.0
5926,83.0,14.0,60.0,8.0,0.0
5927,71.0,10.0,60.0,10.0,0.0
5928,88.0,0.0,90.0,0.0,0.0
5929,55.0,0.0,90.0,12.0,0.0
5930,43.0,0.0,90.0,13.0,0.0
5931,71.0,0.0,60.0,11.0,0.0
5932,88.0,0.0,90.0,1.0,0.0
5933,55.0,12.0,90.0,3.0,0.0
5934,81.0,50.0,60.0,8.0,0.0
5935,69.0,0.0,60.0,11.0,0.0
5936,71.0,10.0,60.0,10.0,0.0
5937,71.0,0.0,810.0,4.0,0.0
5938,59.0,0.0,390.0,13.0,0.0
5939,74.0,0.0,390.0,2.0,0.0
5940,88.0,0.0,390.0,0.0,0.0
5941,71.0,0.0,390.0,12.0,0.0
5942,71.0,24.0,390.0,3.0,0.0
5943,67.0,0.0,60.0,11.0,0.0
5944,88.0,18.0,420.0,1.0,0.0
5945,79.0,0.0,60.0,10.0,0.0
5946,79.0,60.0,60.0,8.0,0.0
5947,79.0,36.0,180.0,1.0,0.0
5948,62.0,0.0,390.0,2.0,0.0
5949,50.0,18.0,450.0,4.0,0.0
5950,69.0,0.0,60.0,11.0,0.0
5951,81.0,60.0,60.0,8.0,0.0
5952,79.0,0.0,60.0,10.0,0.0
5953,79.0,0.0,60.0,10.0,0.0
5954,79.0,24.0,60.0,8.0,0.0
5955,67.0,0.0,60.0,11.0,0.0
5956,78.0,60.0,60.0,8.0,0.0
5957,79.0,0.0,60.0,10.0,0.0
5958,66.0,0.0,60.0,11.0,0.0
5959,76.0,60.0,60.0,8.0,0.0
5960,64.0,0.0,60.0,11.0,0.0
5961,76.0,0.0,180.0,1.0,0.0
5962,79.0,0.0,60.0,10.0,0.0
5963,66.0,0.0,60.0,11.0,0.0
5964,78.0,36.0,60.0,8.0,0.0
5965,79.0,0.0,60.0,10.0,0.0
5966,67.0,0.0,60.0,11.0,0.0
5967,79.0,0.0,60.0,8.0,0.0
5968,79.0,24.0,60.0,10.0,0.0
5969,81.0,60.0,60.0,8.0,0.0
5970,69.0,0.0,60.0,11.0,0.0
5971,79.0,0.0,60.0,10.0,0.0
5972,59.0,0.0,60.0,10.0,0.0
5973,71.0,60.0,60.0,11.0,0.0
5974,88.0,0.0,330.0,0.0,0.0
5975,76.0,0.0,330.0,1.0,0.0
5976,62.0,0.0,420.0,4.0,0.0
5977,50.0,24.0,420.0,4.0,0.0
5978,55.0,22.0,330.0,12.0,0.0
5979,83.0,0.0,60.0,8.0,0.0
5980,74.0,0.0,420.0,2.0,0.0
5981,86.0,0.0,420.0,2.0,0.0
5982,43.0,0.0,330.0,13.0,0.0
5983,55.0,0.0,330.0,3.0,0.0
5984,88.0,0.0,330.0,1.0,0.0
5985,73.0,60.0,60.0,11.0,0.0
5986,85.0,0.0,60.0,8.0,0.0
5987,59.0,0.0,60.0,10.0,0.0
5988,86.0,0.0,60.0,8.0,0.0
5989,74.0,0.0,60.0,11.0,0.0
5990,59.0,60.0,60.0,10.0,0.0
5991,76.0,0.0,60.0,11.0,0.0
5992,59.0,0.0,60.0,10.0,0.0
5993,88.0,70.0,60.0,8.0,0.0
5994,90.0,0.0,90.0,8.0,0.0
5995,78.0,0.0,90.0,11.0,0.0
5996,72.0,38.0,60.0,10.0,0.0
5997,74.0,60.0,60.0,10.0,0.0
5998,69.0,0.0,90.0,4.0,0.0
5999,90.0,0.0,90.0,1.0,0.0
6000,78.0,0.0,90.0,1.0,0.0
6001,45.0,22.0,90.0,13.0,0.0
6002,57.0,0.0,90.0,12.0,0.0
6003,90.0,0.0,90.0,0.0,0.0
6004,72.0,14.0,60.0,10.0,0.0
6005,57.0,0.0,90.0,3.0,0.0
6006,71.0,50.0,60.0,10.0,0.0
6007,60.0,0.0,390.0,13.0,0.0
6008,72.0,24.0,390.0,12.0,0.0
6009,78.0,0.0,390.0,1.0,0.0
6010,69.0,12.0,570.0,4.0,0.0
6011,66.0,0.0,180.0,5.0,0.0
6012,78.0,0.0,180.0,5.0,0.0
6013,54.0,36.0,180.0,6.0,0.0
6014,90.0,0.0,390.0,1.0,0.0
6015,72.0,0.0,390.0,3.0,0.0
6016,50.0,18.0,450.0,4.0,0.0
6017,90.0,0.0,390.0,0.0,0.0
6018,74.0,0.0,390.0,2.0,0.0
6019,69.0,60.0,60.0,10.0,0.0
6020,62.0,0.0,390.0,2.0,0.0
6021,71.0,60.0,60.0,10.0,0.0
6022,69.0,24.0,60.0,10.0,0.0
6023,67.0,60.0,60.0,10.0,0.0
6024,66.0,60.0,60.0,10.0,0.0
6025,67.0,36.0,60.0,10.0,0.0
6026,69.0,42.0,60.0,10.0,0.0
6027,71.0,60.0,60.0,10.0,0.0
6028,33.0,0.0,330.0,13.0,0.0
6029,72.0,48.0,60.0,10.0,0.0
6030,90.0,0.0,330.0,0.0,0.0
6031,78.0,12.0,330.0,1.0,0.0
6032,50.0,24.0,420.0,4.0,0.0
6033,62.0,0.0,420.0,4.0,0.0
6034,74.0,0.0,420.0,2.0,0.0
6035,86.0,0.0,420.0,2.0,0.0
6036,90.0,0.0,330.0,1.0,0.0
6037,45.0,0.0,330.0,3.0,0.0
6038,45.0,0.0,330.0,12.0,0.0
6039,74.0,60.0,60.0,10.0,0.0
6040,76.0,60.0,60.0,10.0,0.0
6041,78.0,60.0,60.0,10.0,0.0
6042,86.0,0.0,60.0,8.0,0.0
6043,78.0,10.0,60.0,10.0,0.0
6044,74.0,38.0,60.0,11.0,0.0
6045,76.0,50.0,60.0,11.0,0.0
6046,88.0,0.0,60.0,8.0,0.0
6047,78.0,10.0,60.0,10.0,0.0
6048,79.0,10.0,60.0,10.0,0.0
6049,47.0,0.0,90.0,3.0,0.0
6050,91.0,0.0,90.0,0.0,0.0
6051,35.0,0.0,90.0,13.0,0.0
6052,79.0,12.0,90.0,1.0,0.0
6053,86.0,14.0,60.0,8.0,0.0
6054,47.0,0.0,90.0,12.0,0.0
6055,74.0,0.0,60.0,11.0,0.0
6056,79.0,10.0,60.0,10.0,0.0
6057,84.0,50.0,60.0,8.0,0.0
6058,72.0,0.0,60.0,11.0,0.0
6059,71.0,0.0,180.0,1.0,0.0
6060,50.0,0.0,390.0,13.0,0.0
6061,79.0,0.0,390.0,2.0,0.0
6062,71.0,0.0,390.0,2.0,0.0
6063,71.0,0.0,60.0,11.0,0.0
6064,62.0,24.0,390.0,3.0,0.0
6065,50.0,18.0,450.0,4.0,0.0
6066,59.0,0.0,60.0,10.0,0.0
6067,83.0,60.0,60.0,8.0,0.0
6068,91.0,0.0,390.0,0.0,0.0
6069,62.0,0.0,390.0,12.0,0.0
6070,83.0,36.0,180.0,1.0,0.0
6071,59.0,0.0,60.0,10.0,0.0
6072,72.0,0.0,60.0,11.0,0.0
6073,84.0,60.0,60.0,8.0,0.0
6074,71.0,0.0,60.0,11.0,0.0
6075,83.0,0.0,60.0,8.0,0.0
6076,59.0,24.0,60.0,10.0,0.0
6077,59.0,0.0,60.0,10.0,0.0
6078,81.0,60.0,60.0,8.0,0.0
6079,69.0,0.0,60.0,11.0,0.0
6080,67.0,18.0,180.0,1.0,0.0
6081,79.0,0.0,60.0,8.0,0.0
6082,67.0,60.0,60.0,11.0,0.0
6083,79.0,0.0,180.0,1.0,0.0
6084,59.0,0.0,60.0,10.0,0.0
6085,81.0,36.0,60.0,8.0,0.0
6086,69.0,0.0,60.0,11.0,0.0
6087,59.0,0.0,60.0,10.0,0.0
6088,59.0,0.0,60.0,10.0,0.0
6089,83.0,24.0,60.0,8.0,0.0
6090,71.0,0.0,60.0,11.0,0.0
6091,72.0,60.0,60.0,11.0,0.0
6092,59.0,0.0,60.0,10.0,0.0
6093,84.0,0.0,60.0,8.0,0.0
6094,86.0,0.0,60.0,8.0,0.0
6095,86.0,0.0,180.0,1.0,0.0
6096,91.0,0.0,180.0,0.0,0.0
6097,47.0,0.0,330.0,12.0,0.0
6098,35.0,22.0,330.0,13.0,0.0
6099,74.0,0.0,180.0,2.0,0.0
6100,79.0,0.0,180.0,2.0,0.0
6101,74.0,36.0,180.0,1.0,0.0
6102,62.0,0.0,240.0,4.0,0.0
6103,50.0,58.0,240.0,4.0,0.0
6104,79.0,0.0,60.0,10.0,0.0
6105,74.0,60.0,60.0,11.0,0.0
6106,47.0,0.0,330.0,3.0,0.0
6107,88.0,0.0,60.0,8.0,0.0
6108,76.0,0.0,60.0,11.0,0.0
6109,79.0,60.0,60.0,10.0,0.0
6110,90.0,24.0,60.0,8.0,0.0
6111,78.0,0.0,60.0,11.0,0.0
6112,79.0,0.0,60.0,10.0,0.0
6113,79.0,0.0,60.0,11.0,0.0
6114,79.0,0.0,60.0,10.0,0.0
6115,91.0,12.0,60.0,8.0,0.0
6116,79.0,0.0,180.0,11.0,0.0
6117,57.0,0.0,180.0,4.0,0.0
6118,64.0,0.0,180.0,4.0,0.0
6119,91.0,0.0,90.0,8.0,0.0
6120,79.0,24.0,180.0,2.0,0.0
6121,76.0,0.0,180.0,2.0,0.0
6122,76.0,38.0,60.0,10.0,0.0
6123,74.0,0.0,90.0,1.0,0.0
6124,86.0,0.0,90.0,1.0,0.0
6125,91.0,0.0,180.0,0.0,0.0
6126,78.0,60.0,60.0,10.0,0.0
6127,88.0,0.0,90.0,1.0,0.0
6128,76.0,14.0,60.0,10.0,0.0
6129,49.0,0.0,90.0,12.0,0.0
6130,49.0,0.0,90.0,3.0,0.0
6131,76.0,22.0,90.0,1.0,0.0
6132,37.0,0.0,90.0,13.0,0.0
6133,74.0,50.0,60.0,10.0,0.0
6134,64.0,24.0,390.0,12.0,0.0
6135,64.0,0.0,390.0,3.0,0.0
6136,45.0,0.0,450.0,4.0,0.0
6137,52.0,0.0,390.0,13.0,0.0
6138,73.0,36.0,180.0,5.0,0.0
6139,61.0,0.0,180.0,5.0,0.0
6140,73.0,0.0,60.0,10.0,0.0
6141,69.0,0.0,390.0,4.0,0.0
6142,57.0,18.0,450.0,4.0,0.0
6143,81.0,0.0,390.0,0.0,0.0
6144,85.0,0.0,180.0,1.0,0.0
6145,73.0,0.0,180.0,1.0,0.0
6146,49.0,0.0,180.0,6.0,0.0
6147,69.0,0.0,390.0,2.0,0.0
6148,85.0,60.0,60.0,8.0,0.0
6149,74.0,60.0,60.0,10.0,0.0
6150,86.0,0.0,60.0,8.0,0.0
6151,73.0,0.0,60.0,10.0,0.0
6152,85.0,24.0,60.0,8.0,0.0
6153,83.0,60.0,60.0,8.0,0.0
6154,71.0,0.0,60.0,10.0,0.0
6155,57.0,0.0,60.0,11.0,0.0
6156,69.0,18.0,180.0,1.0,0.0
6157,81.0,0.0,180.0,1.0,0.0
6158,81.0,60.0,60.0,8.0,0.0
6159,69.0,0.0,60.0,10.0,0.0
6160,71.0,0.0,60.0,10.0,0.0
6161,59.0,0.0,60.0,11.0,0.0
6162,83.0,36.0,60.0,8.0,0.0
6163,85.0,0.0,60.0,8.0,0.0
6164,61.0,24.0,60.0,11.0,0.0
6165,73.0,0.0,60.0,10.0,0.0
6166,86.0,60.0,60.0,8.0,0.0
6167,62.0,0.0,60.0,11.0,0.0
6168,74.0,0.0,60.0,10.0,0.0
6169,64.0,60.0,60.0,11.0,0.0
6170,67.0,0.0,120.0,3.0,0.0
6171,93.0,0.0,330.0,0.0,0.0
6172,81.0,0.0,330.0,2.0,0.0
6173,67.0,0.0,120.0,12.0,0.0
6174,76.0,0.0,180.0,1.0,0.0
6175,88.0,0.0,180.0,1.0,0.0
6176,76.0,0.0,60.0,10.0,0.0
6177,73.0,0.0,180.0,5.0,0.0
6178,69.0,0.0,330.0,2.0,0.0
6179,49.0,36.0,180.0,6.0,0.0
6180,88.0,0.0,180.0,0.0,0.0
6181,55.0,54.0,120.0,13.0,0.0
6182,45.0,0.0,180.0,4.0,0.0
6183,57.0,0.0,180.0,4.0,0.0
6184,88.0,0.0,60.0,8.0,0.0
6185,61.0,0.0,180.0,5.0,0.0
6186,90.0,0.0,60.0,8.0,0.0
6187,78.0,6.0,60.0,10.0,0.0
6188,66.0,0.0,60.0,11.0,0.0
6189,79.0,24.0,60.0,10.0,0.0
6190,91.0,0.0,60.0,8.0,0.0
6191,67.0,0.0,60.0,11.0,0.0
6192,55.0,102.0,120.0,3.0,0.0
6193,55.0,0.0,120.0,12.0,0.0
6194,43.0,0.0,120.0,13.0,0.0
6195,93.0,0.0,60.0,8.0,0.0
6196,69.0,6.0,60.0,11.0,0.0
6197,81.0,0.0,60.0,10.0,0.0
6198,54.0,0.0,180.0,6.0,0.0
6199,81.0,0.0,90.0,10.0,0.0
6200,66.0,0.0,90.0,12.0,0.0
6201,66.0,0.0,90.0,11.0,0.0
6202,90.0,0.0,90.0,0.0,0.0
6203,57.0,0.0,120.0,4.0,0.0
6204,74.0,0.0,90.0,8.0,0.0
6205,54.0,0.0,90.0,13.0,0.0
6206,69.0,0.0,120.0,4.0,0.0
6207,62.0,0.0,90.0,11.0,0.0
6208,66.0,0.0,120.0,5.0,0.0
6209,86.0,0.0,90.0,1.0,0.0
6210,74.0,24.0,90.0,1.0,0.0
6211,78.0,72.0,120.0,5.0,0.0
6212,66.0,0.0,90.0,3.0,0.0
6213,86.0,120.0,120.0,1.0,0.0
6214,78.0,0.0,120.0,5.0,0.0
6215,66.0,0.0,120.0,5.0,0.0
6216,66.0,72.0,120.0,4.0,0.0
6217,54.0,0.0,180.0,6.0,0.0
6218,54.0,0.0,120.0,4.0,0.0
6219,54.0,168.0,180.0,3.0,0.0
6220,62.0,0.0,120.0,4.0,0.0
6221,86.0,0.0,180.0,8.0,0.0
6222,50.0,0.0,120.0,4.0,0.0
6223,74.0,0.0,180.0,10.0,0.0
6224,74.0,0.0,120.0,2.0,0.0
6225,54.0,0.0,180.0,12.0,0.0
6226,69.0,0.0,180.0,11.0,0.0
6227,42.0,0.0,180.0,13.0,0.0
6228,90.0,0.0,120.0,1.0,0.0
6229,69.0,0.0,120.0,2.0,0.0
6230,85.0,120.0,240.0,1.0,0.0
6231,83.0,0.0,120.0,1.0,0.0
6232,74.0,120.0,15.0,2.0,0.0
6233,86.0,0.0,120.0,1.0,0.0
6234,78.0,108.0,120.0,2.0,0.0
6235,76.0,120.0,240.0,2.0,0.0
6236,73.0,0.0,240.0,2.0,0.0
6237,81.0,0.0,240.0,1.0,0.0
6238,62.0,108.0,60.0,4.0,0.0
6239,50.0,0.0,60.0,4.0,0.0
6240,50.0,0.0,90.0,4.0,0.0
6241,62.0,24.0,90.0,4.0,0.0
6242,74.0,0.0,240.0,2.0,0.0
6243,71.0,0.0,240.0,2.0,0.0
6244,79.0,108.0,240.0,1.0,0.0
6245,91.0,120.0,120.0,0.0,0.0
6246,95.0,0.0,120.0,0.0,0.0
6247,78.0,96.0,120.0,1.0,0.0
6248,90.0,0.0,120.0,0.0,0.0
6249,69.0,0.0,120.0,2.0,0.0
6250,73.0,0.0,120.0,2.0,0.0
6251,50.0,0.0,60.0,4.0,0.0
6252,62.0,12.0,60.0,4.0,0.0
6253,71.0,0.0,120.0,2.0,0.0
6254,88.0,0.0,120.0,0.0,0.0
6255,76.0,120.0,120.0,1.0,0.0
6256,67.0,0.0,120.0,2.0,0.0
6257,50.0,0.0,90.0,4.0,0.0
6258,62.0,24.0,90.0,4.0,0.0
6259,74.0,126.0,120.0,1.0,0.0
6260,86.0,0.0,120.0,0.0,0.0
6261,66.0,0.0,120.0,2.0,0.0
6262,69.0,0.0,120.0,2.0,0.0
6263,57.0,0.0,120.0,11.0,0.0
6264,66.0,0.0,120.0,4.0,0.0
6265,54.0,0.0,120.0,13.0,0.0
6266,86.0,0.0,120.0,8.0,0.0
6267,66.0,96.0,120.0,3.0,0.0
6268,66.0,0.0,120.0,12.0,0.0
6269,69.0,0.0,120.0,4.0,0.0
6270,74.0,0.0,120.0,10.0,0.0
6271,86.0,0.0,30.0,8.0,0.0
6272,66.0,0.0,30.0,3.0,0.0
6273,66.0,0.0,30.0,12.0,0.0
6274,66.0,114.0,30.0,4.0,0.0
6275,57.0,0.0,30.0,11.0,0.0
6276,54.0,0.0,30.0,13.0,0.0
6277,69.0,0.0,30.0,4.0,0.0
6278,74.0,0.0,30.0,10.0,0.0
6279,71.0,0.0,90.0,10.0,0.0
6280,76.0,144.0,90.0,8.0,0.0
6281,67.0,0.0,90.0,4.0,0.0
6282,59.0,0.0,90.0,11.0,0.0
6283,62.0,0.0,90.0,4.0,0.0
6284,67.0,0.0,90.0,12.0,0.0
6285,67.0,0.0,90.0,3.0,0.0
6286,55.0,0.0,90.0,13.0,0.0
6287,83.0,120.0,120.0,1.0,0.0
6288,88.0,0.0,180.0,8.0,0.0
6289,67.0,0.0,180.0,4.0,0.0
6290,71.0,0.0,180.0,11.0,0.0
6291,59.0,0.0,180.0,10.0,0.0
6292,55.0,0.0,180.0,3.0,0.0
6293,55.0,168.0,180.0,12.0,0.0
6294,62.0,0.0,180.0,4.0,0.0
6295,88.0,72.0,120.0,1.0,0.0
6296,43.0,0.0,180.0,13.0,0.0
6297,81.0,120.0,240.0,1.0,0.0
6298,79.0,120.0,120.0,1.0,0.0
6299,71.0,0.0,480.0,2.0,0.0
6300,91.0,0.0,120.0,0.0,0.0
6301,76.0,108.0,120.0,2.0,0.0
6302,83.0,0.0,120.0,1.0,0.0
6303,95.0,0.0,120.0,0.0,0.0
6304,78.0,0.0,240.0,1.0,0.0
6305,90.0,120.0,240.0,0.0,0.0
6306,50.0,0.0,60.0,4.0,0.0
6307,62.0,108.0,60.0,4.0,0.0
6308,69.0,0.0,120.0,2.0,0.0
6309,50.0,0.0,90.0,4.0,0.0
6310,62.0,24.0,90.0,4.0,0.0
6311,88.0,0.0,120.0,0.0,0.0
6312,76.0,120.0,120.0,1.0,0.0
6313,71.0,0.0,240.0,2.0,0.0
6314,67.0,0.0,240.0,2.0,0.0
6315,83.0,0.0,120.0,1.0,0.0
6316,71.0,0.0,120.0,1.0,0.0
6317,95.0,108.0,120.0,0.0,0.0
6318,67.0,0.0,120.0,2.0,0.0
6319,71.0,0.0,120.0,2.0,0.0
6320,76.0,96.0,120.0,1.0,0.0
6321,79.0,0.0,120.0,1.0,0.0
6322,91.0,0.0,120.0,0.0,0.0
6323,62.0,0.0,60.0,4.0,0.0
6324,50.0,12.0,60.0,4.0,0.0
6325,72.0,120.0,120.0,2.0,0.0
6326,69.0,0.0,120.0,2.0,0.0
6327,50.0,0.0,90.0,4.0,0.0
6328,75.0,0.0,120.0,1.0,0.0
6329,78.0,0.0,120.0,1.0,0.0
6330,62.0,24.0,90.0,4.0,0.0
6331,90.0,0.0,120.0,0.0,0.0
6332,76.0,0.0,120.0,1.0,0.0
6333,71.0,0.0,120.0,2.0,0.0
6334,67.0,126.0,120.0,2.0,0.0
6335,88.0,0.0,120.0,0.0,0.0
6336,67.0,0.0,120.0,3.0,0.0
6337,67.0,0.0,120.0,12.0,0.0
6338,83.0,96.0,120.0,10.0,0.0
6339,67.0,0.0,120.0,4.0,0.0
6340,62.0,0.0,120.0,4.0,0.0
6341,88.0,0.0,120.0,8.0,0.0
6342,67.0,0.0,120.0,11.0,0.0
6343,55.0,0.0,120.0,13.0,0.0
6344,67.0,0.0,30.0,11.0,0.0
6345,55.0,0.0,30.0,13.0,0.0
6346,88.0,114.0,30.0,8.0,0.0
6347,67.0,0.0,30.0,4.0,0.0
6348,67.0,0.0,30.0,3.0,0.0
6349,62.0,0.0,30.0,4.0,0.0
6350,67.0,0.0,30.0,12.0,0.0
6351,83.0,0.0,30.0,10.0,0.0
6352,57.0,0.0,90.0,13.0,0.0
6353,66.0,72.0,120.0,5.0,0.0
6354,78.0,0.0,120.0,5.0,0.0
6355,69.0,0.0,90.0,11.0,0.0
6356,69.0,0.0,90.0,12.0,0.0
6357,62.0,0.0,90.0,4.0,0.0
6358,66.0,0.0,90.0,4.0,0.0
6359,54.0,48.0,180.0,6.0,0.0
6360,72.0,24.0,90.0,10.0,0.0
6361,69.0,0.0,90.0,3.0,0.0
6362,78.0,0.0,90.0,8.0,0.0
6363,90.0,120.0,120.0,0.0,0.0
6364,78.0,0.0,120.0,1.0,0.0
6365,57.0,0.0,180.0,3.0,0.0
6366,66.0,0.0,180.0,4.0,0.0
6367,45.0,0.0,180.0,13.0,0.0
6368,62.0,0.0,180.0,4.0,0.0
6369,57.0,0.0,180.0,12.0,0.0
6370,54.0,0.0,180.0,6.0,0.0
6371,90.0,48.0,180.0,8.0,0.0
6372,81.0,0.0,180.0,11.0,0.0
6373,96.0,0.0,120.0,0.0,0.0
6374,78.0,72.0,120.0,5.0,0.0
6375,66.0,0.0,120.0,5.0,0.0
6376,84.0,0.0,180.0,10.0,0.0
6377,84.0,0.0,120.0,1.0,0.0
6378,93.0,0.0,120.0,0.0,0.0
6379,81.0,120.0,120.0,1.0,0.0
6380,79.0,120.0,120.0,1.0,0.0
6381,91.0,0.0,120.0,0.0,0.0
6382,90.0,120.0,120.0,0.0,0.0
6383,78.0,0.0,120.0,1.0,0.0
6384,81.0,0.0,120.0,2.0,0.0
6385,81.0,0.0,120.0,2.0,0.0
6386,84.0,108.0,120.0,2.0,0.0
6387,81.0,0.0,120.0,1.0,0.0
6388,93.0,0.0,120.0,0.0,0.0
6389,83.0,0.0,120.0,1.0,0.0
6390,88.0,0.0,120.0,0.0,0.0
6391,79.0,96.0,120.0,2.0,0.0
6392,83.0,0.0,120.0,2.0,0.0
6393,50.0,12.0,60.0,4.0,0.0
6394,62.0,0.0,60.0,4.0,0.0
6395,86.0,0.0,120.0,1.0,0.0
6396,78.0,0.0,120.0,2.0,0.0
6397,81.0,120.0,120.0,2.0,0.0
6398,62.0,0.0,90.0,4.0,0.0
6399,50.0,24.0,90.0,4.0,0.0
6400,86.0,0.0,120.0,0.0,0.0
6401,84.0,0.0,120.0,1.0,0.0
6402,96.0,0.0,120.0,0.0,0.0
6403,79.0,0.0,120.0,2.0,0.0
6404,76.0,120.0,120.0,2.0,0.0
6405,83.0,0.0,120.0,1.0,0.0
6406,78.0,0.0,120.0,2.0,0.0
6407,74.0,108.0,120.0,2.0,0.0
6408,95.0,0.0,120.0,0.0,0.0
6409,81.0,0.0,120.0,1.0,0.0
6410,76.0,0.0,120.0,2.0,0.0
6411,93.0,96.0,120.0,0.0,0.0
6412,72.0,0.0,120.0,2.0,0.0
6413,50.0,12.0,60.0,4.0,0.0
6414,62.0,0.0,60.0,4.0,0.0
6415,79.0,0.0,120.0,1.0,0.0
6416,74.0,0.0,120.0,2.0,0.0
6417,50.0,24.0,90.0,4.0,0.0
6418,62.0,0.0,90.0,4.0,0.0
6419,91.0,0.0,120.0,0.0,0.0
6420,71.0,120.0,120.0,2.0,0.0
6421,78.0,126.0,120.0,1.0,0.0
6422,72.0,0.0,120.0,2.0,0.0
6423,90.0,0.0,120.0,0.0,0.0
6424,69.0,0.0,120.0,2.0,0.0
6425,69.0,0.0,120.0,12.0,0.0
6426,62.0,0.0,120.0,4.0,0.0
6427,57.0,0.0,120.0,13.0,0.0
6428,66.0,0.0,120.0,4.0,0.0
6429,72.0,0.0,120.0,11.0,0.0
6430,90.0,96.0,120.0,8.0,0.0
6431,57.0,0.0,120.0,3.0,0.0
6432,74.0,0.0,120.0,10.0,0.0
6433,72.0,0.0,30.0,11.0,0.0
6434,74.0,0.0,30.0,10.0,0.0
6435,57.0,0.0,30.0,13.0,0.0
6436,69.0,114.0,30.0,12.0,0.0
6437,66.0,0.0,30.0,4.0,0.0
6438,90.0,0.0,30.0,8.0,0.0
6439,62.0,0.0,30.0,4.0,0.0
6440,57.0,0.0,30.0,3.0,0.0
6441,67.0,0.0,90.0,4.0,0.0
6442,59.0,0.0,90.0,3.0,0.0
6443,71.0,120.0,120.0,3.0,0.0
6444,71.0,0.0,90.0,12.0,0.0
6445,74.0,0.0,90.0,10.0,0.0
6446,59.0,0.0,90.0,13.0,0.0
6447,74.0,24.0,90.0,11.0,0.0
6448,62.0,0.0,90.0,4.0,0.0
6449,79.0,0.0,90.0,8.0,0.0
6450,62.0,120.0,120.0,3.0,0.0
6451,86.0,0.0,180.0,10.0,0.0
6452,67.0,0.0,180.0,4.0,0.0
6453,62.0,0.0,180.0,11.0,0.0
6454,62.0,0.0,180.0,4.0,0.0
6455,47.0,0.0,180.0,13.0,0.0
6456,67.0,72.0,120.0,3.0,0.0
6457,47.0,0.0,180.0,3.0,0.0
6458,59.0,168.0,180.0,12.0,0.0
6459,91.0,0.0,180.0,8.0,0.0
6460,60.0,120.0,240.0,3.0,0.0
6461,59.0,0.0,120.0,3.0,0.0
6462,74.0,120.0,120.0,2.0,0.0
6463,62.0,0.0,120.0,3.0,0.0
6464,79.0,240.0,120.0,2.0,0.0
6465,57.0,120.0,240.0,3.0,0.0
6466,72.0,0.0,240.0,2.0,0.0
6467,55.0,120.0,120.0,3.0,0.0
6468,86.0,0.0,120.0,0.0,0.0
6469,83.0,0.0,240.0,1.0,0.0
6470,71.0,0.0,15.0,2.0,0.0
6471,91.0,0.0,120.0,0.0,0.0
6472,83.0,0.0,120.0,2.0,0.0
6473,55.0,120.0,120.0,3.0,0.0
6474,59.0,0.0,120.0,3.0,0.0
6475,81.0,0.0,120.0,2.0,0.0
6476,69.0,0.0,120.0,2.0,0.0
6477,86.0,0.0,120.0,0.0,0.0
6478,54.0,0.0,120.0,3.0,0.0
6479,86.0,120.0,120.0,1.0,0.0
6480,62.0,0.0,120.0,3.0,0.0
6481,52.0,0.0,120.0,3.0,0.0
6482,67.0,120.0,120.0,2.0,0.0
6483,79.0,0.0,120.0,2.0,0.0
6484,84.0,0.0,120.0,1.0,0.0
6485,64.0,0.0,120.0,3.0,0.0
6486,96.0,0.0,120.0,0.0,0.0
6487,50.0,0.0,120.0,3.0,0.0
6488,62.0,0.0,120.0,3.0,0.0
6489,83.0,0.0,120.0,1.0,0.0
6490,95.0,0.0,120.0,0.0,0.0
6491,66.0,0.0,120.0,2.0,0.0
6492,78.0,120.0,120.0,2.0,0.0
6493,60.0,0.0,120.0,3.0,0.0
6494,93.0,0.0,120.0,0.0,0.0
6495,48.0,0.0,120.0,3.0,0.0
6496,64.0,0.0,120.0,2.0,0.0
6497,76.0,0.0,120.0,2.0,0.0
6498,81.0,120.0,120.0,1.0,0.0
6499,62.0,0.0,120.0,2.0,0.0
6500,74.0,0.0,120.0,2.0,0.0
6501,59.0,0.0,120.0,3.0,0.0
6502,47.0,0.0,120.0,3.0,0.0
6503,46.0,0.0,240.0,3.0,0.0
6504,50.0,0.0,180.0,4.0,0.0
6505,79.0,0.0,15.0,1.0,0.0
6506,85.0,0.0,240.0,1.0,0.0
6507,73.0,0.0,240.0,2.0,0.0
6508,61.0,104.0,240.0,2.0,0.0
6509,91.0,192.0,15.0,0.0,0.0
6510,58.0,0.0,240.0,3.0,0.0
6511,62.0,48.0,180.0,4.0,0.0
6512,54.0,0.0,90.0,4.0,0.0
6513,62.0,0.0,90.0,4.0,0.0
6514,50.0,328.0,90.0,4.0,0.0
6515,78.0,0.0,90.0,1.0,0.0
6516,45.0,0.0,90.0,3.0,0.0
6517,57.0,0.0,90.0,3.0,0.0
6518,66.0,0.0,90.0,4.0,0.0
6519,90.0,0.0,90.0,0.0,0.0
6520,74.0,0.0,90.0,2.0,0.0
6521,62.0,0.0,90.0,2.0,0.0
6522,86.0,0.0,90.0,1.0,0.0
6523,86.0,104.0,240.0,1.0,0.0
6524,90.0,0.0,240.0,1.0,0.0
6525,78.0,0.0,240.0,2.0,0.0
6526,50.0,48.0,180.0,4.0,0.0
6527,90.0,0.0,240.0,0.0,0.0
6528,74.0,0.0,240.0,2.0,0.0
6529,45.0,0.0,240.0,3.0,0.0
6530,62.0,0.0,180.0,4.0,0.0
6531,57.0,0.0,240.0,3.0,0.0
6532,62.0,0.0,90.0,4.0,0.0
6533,50.0,0.0,90.0,4.0,0.0
6534,44.0,0.0,90.0,3.0,0.0
6535,56.0,0.0,90.0,3.0,0.0
6536,71.0,0.0,90.0,2.0,0.0
6537,76.0,0.0,90.0,2.0,0.0
6538,71.0,0.0,90.0,4.0,0.0
6539,88.0,328.0,90.0,0.0,0.0
6540,83.0,0.0,90.0,1.0,0.0
6541,88.0,0.0,90.0,1.0,0.0
6542,71.0,0.0,240.0,2.0,0.0
6543,44.0,104.0,240.0,3.0,0.0
6544,56.0,0.0,240.0,3.0,0.0
6545,83.0,0.0,240.0,1.0,0.0
6546,88.0,0.0,240.0,1.0,0.0
6547,76.0,0.0,240.0,2.0,0.0
6548,62.0,48.0,180.0,4.0,0.0
6549,88.0,0.0,240.0,0.0,0.0
6550,50.0,0.0,180.0,4.0,0.0
6551,50.0,0.0,90.0,4.0,0.0
6552,62.0,0.0,90.0,4.0,0.0
6553,74.0,0.0,120.0,2.0,0.0
6554,69.0,16.0,90.0,4.0,0.0
6555,78.0,160.0,120.0,1.0,0.0
6556,66.0,0.0,120.0,2.0,0.0
6557,86.0,0.0,120.0,0.0,0.0
6558,86.0,0.0,120.0,1.0,0.0
6559,57.0,0.0,120.0,3.0,0.0
6560,45.0,0.0,120.0,3.0,0.0
6561,86.0,0.0,30.0,1.0,0.0
6562,74.0,0.0,30.0,2.0,0.0
6563,66.0,0.0,240.0,2.0,0.0
6564,78.0,0.0,240.0,1.0,0.0
6565,62.0,104.0,240.0,4.0,0.0
6566,86.0,40.0,30.0,0.0,0.0
6567,66.0,0.0,240.0,4.0,0.0
6568,57.0,0.0,240.0,3.0,0.0
6569,45.0,0.0,240.0,3.0,0.0
6570,95.0,0.0,240.0,0.0,0.0
6571,88.0,0.0,30.0,0.0,0.0
6572,76.0,40.0,30.0,2.0,0.0
6573,88.0,0.0,30.0,1.0,0.0
6574,86.0,0.0,30.0,0.0,0.0
6575,86.0,40.0,30.0,1.0,0.0
6576,74.0,0.0,30.0,2.0,0.0
6577,88.0,0.0,30.0,0.0,0.0
6578,76.0,0.0,30.0,2.0,0.0
6579,88.0,40.0,30.0,1.0,0.0
6580,73.0,0.0,30.0,2.0,0.0
6581,85.0,40.0,30.0,0.0,0.0
6582,85.0,0.0,30.0,1.0,0.0
6583,74.0,0.0,30.0,2.0,0.0
6584,86.0,0.0,30.0,0.0,0.0
6585,86.0,0.0,30.0,1.0,0.0
6586,88.0,0.0,120.0,0.0,0.0
6587,93.0,0.0,120.0,0.0,0.0
6588,91.0,0.0,480.0,8.0,0.0
6589,57.0,0.0,120.0,3.0,0.0
6590,69.0,0.0,120.0,3.0,0.0
6591,57.0,0.0,240.0,12.0,0.0
6592,45.0,0.0,240.0,13.0,0.0
6593,76.0,104.0,480.0,11.0,0.0
6594,73.0,72.0,120.0,5.0,0.0
6595,67.0,0.0,120.0,4.0,0.0
6596,85.0,0.0,480.0,10.0,0.0
6597,49.0,16.0,90.0,4.0,0.0
6598,88.0,0.0,120.0,1.0,0.0
6599,79.0,0.0,120.0,1.0,0.0
6600,61.0,0.0,90.0,4.0,0.0
6601,64.0,0.0,120.0,4.0,0.0
6602,67.0,0.0,120.0,2.0,0.0
6603,61.0,0.0,120.0,5.0,0.0
6604,49.0,48.0,180.0,6.0,0.0
6605,76.0,0.0,120.0,2.0,0.0
6606,64.0,0.0,120.0,4.0,0.0
6607,57.0,0.0,120.0,4.0,0.0
6608,73.0,0.0,120.0,2.0,0.0
6609,64.0,192.0,120.0,2.0,0.0
6610,85.0,0.0,120.0,1.0,0.0
6611,85.0,0.0,120.0,0.0,0.0
6612,76.0,0.0,120.0,1.0,0.0
6613,62.0,48.0,180.0,4.0,0.0
6614,58.0,0.0,240.0,12.0,0.0
6615,50.0,0.0,180.0,4.0,0.0
6616,46.0,0.0,240.0,13.0,0.0
6617,79.0,0.0,120.0,0.0,0.0
6618,79.0,0.0,120.0,2.0,0.0
6619,79.0,0.0,120.0,1.0,0.0
6620,55.0,0.0,120.0,3.0,0.0
6621,90.0,0.0,120.0,8.0,0.0
6622,50.0,0.0,90.0,4.0,0.0
6623,62.0,0.0,90.0,4.0,0.0
6624,54.0,0.0,90.0,4.0,0.0
6625,90.0,6.0,120.0,0.0,0.0
6626,57.0,0.0,120.0,12.0,0.0
6627,66.0,4.0,90.0,4.0,0.0
6628,66.0,0.0,120.0,3.0,0.0
6629,90.0,0.0,120.0,2.0,0.0
6630,54.0,168.0,180.0,6.0,0.0
6631,45.0,0.0,120.0,13.0,0.0
6632,90.0,0.0,120.0,1.0,0.0
6633,66.0,72.0,120.0,5.0,0.0
6634,78.0,0.0,120.0,5.0,0.0
6635,74.0,6.0,120.0,11.0,0.0
6636,86.0,0.0,120.0,10.0,0.0
6637,78.0,72.0,120.0,5.0,0.0
6638,57.0,0.0,240.0,12.0,0.0
6639,62.0,0.0,180.0,4.0,0.0
6640,54.0,48.0,180.0,6.0,0.0
6641,66.0,0.0,120.0,5.0,0.0
6642,78.0,0.0,240.0,10.0,0.0
6643,74.0,0.0,240.0,11.0,0.0
6644,45.0,96.0,240.0,13.0,0.0
6645,90.0,0.0,240.0,8.0,0.0
6646,50.0,0.0,180.0,4.0,0.0
6647,78.0,0.0,120.0,2.0,0.0
6648,54.0,0.0,120.0,3.0,0.0
6649,78.0,0.0,120.0,0.0,0.0
6650,78.0,0.0,120.0,1.0,0.0
6651,44.0,324.0,120.0,13.0,0.0
6652,71.0,0.0,120.0,11.0,0.0
6653,83.0,0.0,120.0,10.0,0.0
6654,56.0,0.0,120.0,12.0,0.0
6655,88.0,8.0,90.0,1.0,0.0
6656,88.0,0.0,120.0,8.0,0.0
6657,88.0,0.0,90.0,2.0,0.0
6658,88.0,0.0,90.0,0.0,0.0
6659,50.0,0.0,90.0,4.0,0.0
6660,71.0,0.0,90.0,4.0,0.0
6661,64.0,0.0,90.0,3.0,0.0
6662,62.0,4.0,90.0,4.0,0.0
6663,50.0,48.0,180.0,4.0,0.0
6664,62.0,0.0,180.0,4.0,0.0
6665,44.0,0.0,240.0,13.0,0.0
6666,88.0,0.0,240.0,8.0,0.0
6667,56.0,0.0,240.0,12.0,0.0
6668,71.0,104.0,240.0,11.0,0.0
6669,76.0,0.0,240.0,10.0,0.0
6670,76.0,0.0,120.0,0.0,0.0
6671,76.0,0.0,120.0,1.0,0.0
6672,52.0,0.0,120.0,3.0,0.0
6673,76.0,0.0,120.0,2.0,0.0
6674,86.0,0.0,120.0,8.0,0.0
6675,66.0,72.0,120.0,5.0,0.0
6676,78.0,0.0,120.0,5.0,0.0
6677,62.0,0.0,120.0,3.0,0.0
6678,62.0,0.0,90.0,4.0,0.0
6679,50.0,4.0,90.0,4.0,0.0
6680,86.0,6.0,120.0,0.0,0.0
6681,57.0,0.0,120.0,12.0,0.0
6682,86.0,0.0,120.0,2.0,0.0
6683,45.0,6.0,120.0,13.0,0.0
6684,81.0,0.0,120.0,10.0,0.0
6685,54.0,88.0,180.0,6.0,0.0
6686,66.0,0.0,120.0,11.0,0.0
6687,69.0,0.0,90.0,4.0,0.0
6688,86.0,0.0,120.0,1.0,0.0
6689,66.0,0.0,30.0,11.0,0.0
6690,81.0,0.0,30.0,10.0,0.0
6691,86.0,0.0,30.0,8.0,0.0
6692,62.0,0.0,240.0,4.0,0.0
6693,66.0,0.0,240.0,4.0,0.0
6694,78.0,0.0,120.0,5.0,0.0
6695,95.0,104.0,240.0,0.0,0.0
6696,83.0,0.0,240.0,1.0,0.0
6697,54.0,8.0,180.0,6.0,0.0
6698,83.0,0.0,240.0,2.0,0.0
6699,66.0,0.0,240.0,3.0,0.0
6700,54.0,40.0,30.0,12.0,0.0
6701,66.0,0.0,120.0,5.0,0.0
6702,88.0,40.0,30.0,8.0,0.0
6703,83.0,0.0,30.0,10.0,0.0
6704,67.0,0.0,30.0,11.0,0.0
6705,55.0,0.0,30.0,12.0,0.0
6706,66.0,40.0,30.0,11.0,0.0
6707,54.0,0.0,30.0,12.0,0.0
6708,86.0,0.0,30.0,8.0,0.0
6709,81.0,0.0,30.0,10.0,0.0
6710,83.0,0.0,30.0,10.0,0.0
6711,88.0,0.0,30.0,8.0,0.0
6712,67.0,0.0,30.0,11.0,0.0
6713,55.0,32.0,30.0,12.0,0.0
6714,64.0,0.0,30.0,11.0,0.0
6715,52.0,40.0,30.0,12.0,0.0
6716,85.0,0.0,30.0,8.0,0.0
6717,80.0,0.0,30.0,10.0,0.0
6718,86.0,0.0,30.0,8.0,0.0
6719,81.0,0.0,30.0,10.0,0.0
6720,54.0,0.0,30.0,12.0,0.0
6721,66.0,0.0,30.0,11.0,0.0
6722,55.0,0.0,120.0,12.0,0.0
6723,45.0,0.0,15.0,13.0,0.0
6724,88.0,0.0,120.0,8.0,0.0
6725,61.0,0.0,120.0,5.0,0.0
6726,67.0,0.0,120.0,11.0,0.0
6727,81.0,0.0,120.0,1.0,0.0
6728,73.0,0.0,120.0,5.0,0.0
6729,76.0,0.0,120.0,10.0,0.0
6730,49.0,4.0,90.0,4.0,0.0
6731,61.0,0.0,90.0,4.0,0.0
6732,67.0,0.0,120.0,4.0,0.0
6733,67.0,0.0,120.0,3.0,0.0
6734,93.0,0.0,120.0,0.0,0.0
6735,81.0,72.0,120.0,2.0,0.0
6736,49.0,48.0,180.0,6.0,0.0
6737,85.0,0.0,120.0,0.0,0.0
6738,64.0,0.0,120.0,11.0,0.0
6739,85.0,0.0,120.0,1.0,0.0
6740,85.0,0.0,120.0,8.0,0.0
6741,57.0,0.0,120.0,4.0,0.0
6742,81.0,0.0,120.0,10.0,0.0
6743,64.0,0.0,15.0,4.0,0.0
6744,85.0,0.0,120.0,2.0,0.0
6745,52.0,0.0,120.0,12.0,0.0
6746,64.0,120.0,120.0,3.0,0.0
6747,38.0,0.0,570.0,13.0,0.0
6748,66.0,0.0,120.0,4.0,0.0
6749,54.0,72.0,120.0,4.0,0.0
6750,74.0,0.0,570.0,2.0,0.0
6751,86.0,0.0,570.0,0.0,0.0
6752,86.0,0.0,570.0,1.0,0.0
6753,74.0,0.0,570.0,1.0,0.0
6754,62.0,216.0,570.0,2.0,0.0
6755,74.0,0.0,120.0,10.0,0.0
6756,54.0,138.0,180.0,6.0,0.0
6757,50.0,0.0,570.0,12.0,0.0
6758,50.0,0.0,570.0,4.0,0.0
6759,62.0,0.0,570.0,4.0,0.0
6760,66.0,0.0,120.0,5.0,0.0
6761,50.0,0.0,570.0,3.0,0.0
6762,38.0,0.0,570.0,3.0,0.0
6763,62.0,0.0,570.0,11.0,0.0
6764,86.0,0.0,120.0,8.0,0.0
6765,74.0,138.0,90.0,8.0,0.0
6766,62.0,0.0,90.0,10.0,0.0
6767,74.0,0.0,60.0,8.0,0.0
6768,62.0,108.0,60.0,10.0,0.0
6769,78.0,0.0,600.0,8.0,0.0
6770,66.0,0.0,600.0,10.0,0.0
6771,62.0,0.0,60.0,4.0,0.0
6772,50.0,0.0,60.0,4.0,0.0
6773,50.0,156.0,60.0,3.0,0.0
6774,38.0,0.0,60.0,3.0,0.0
6775,86.0,0.0,60.0,0.0,0.0
6776,62.0,0.0,60.0,2.0,0.0
6777,38.0,0.0,60.0,13.0,0.0
6778,50.0,0.0,60.0,12.0,0.0
6779,74.0,0.0,60.0,1.0,0.0
6780,86.0,0.0,60.0,1.0,0.0
6781,62.0,0.0,60.0,11.0,0.0
6782,74.0,0.0,60.0,2.0,0.0
6783,74.0,0.0,60.0,2.0,0.0
6784,62.0,0.0,60.0,4.0,0.0
6785,50.0,0.0,60.0,4.0,0.0
6786,86.0,0.0,60.0,1.0,0.0
6787,74.0,0.0,60.0,1.0,0.0
6788,62.0,0.0,60.0,2.0,0.0
6789,50.0,0.0,60.0,3.0,0.0
6790,50.0,0.0,60.0,12.0,0.0
6791,38.0,0.0,60.0,3.0,0.0
6792,86.0,132.0,60.0,0.0,0.0
6793,38.0,0.0,60.0,13.0,0.0
6794,62.0,0.0,60.0,11.0,0.0
6795,42.0,0.0,570.0,13.0,0.0
6796,66.0,72.0,120.0,5.0,0.0
6797,66.0,0.0,570.0,11.0,0.0
6798,54.0,138.0,180.0,6.0,0.0
6799,78.0,0.0,120.0,5.0,0.0
6800,54.0,0.0,120.0,4.0,0.0
6801,42.0,0.0,570.0,3.0,0.0
6802,54.0,0.0,570.0,3.0,0.0
6803,90.0,0.0,570.0,0.0,0.0
6804,66.0,0.0,120.0,4.0,0.0
6805,66.0,0.0,570.0,2.0,0.0
6806,54.0,0.0,570.0,12.0,0.0
6807,78.0,0.0,570.0,2.0,0.0
6808,90.0,0.0,570.0,1.0,0.0
6809,78.0,0.0,570.0,1.0,0.0
6810,78.0,138.0,90.0,8.0,0.0
6811,66.0,0.0,90.0,10.0,0.0
6812,78.0,0.0,60.0,8.0,0.0
6813,66.0,108.0,60.0,10.0,0.0
6814,69.0,0.0,600.0,10.0,0.0
6815,81.0,0.0,600.0,8.0,0.0
6816,54.0,0.0,60.0,4.0,0.0
6817,66.0,0.0,60.0,4.0,0.0
6818,90.0,0.0,60.0,0.0,0.0
6819,66.0,0.0,60.0,11.0,0.0
6820,42.0,156.0,60.0,3.0,0.0
6821,78.0,0.0,60.0,2.0,0.0
6822,54.0,0.0,60.0,12.0,0.0
6823,42.0,0.0,60.0,13.0,0.0
6824,66.0,0.0,60.0,2.0,0.0
6825,54.0,0.0,60.0,3.0,0.0
6826,78.0,0.0,60.0,1.0,0.0
6827,90.0,0.0,60.0,1.0,0.0
6828,78.0,0.0,60.0,2.0,0.0
6829,66.0,0.0,60.0,2.0,0.0
6830,42.0,0.0,60.0,3.0,0.0
6831,54.0,0.0,60.0,3.0,0.0
6832,42.0,0.0,60.0,13.0,0.0
6833,54.0,0.0,60.0,4.0,0.0
6834,90.0,0.0,60.0,0.0,0.0
6835,66.0,0.0,60.0,4.0,0.0
6836,66.0,0.0,60.0,11.0,0.0
6837,78.0,0.0,60.0,1.0,0.0
6838,90.0,0.0,60.0,1.0,0.0
6839,54.0,132.0,60.0,12.0,0.0
6840,81.0,0.0,570.0,2.0,0.0
6841,69.0,0.0,570.0,11.0,0.0
6842,45.0,0.0,570.0,13.0,0.0
6843,54.0,0.0,120.0,4.0,0.0
6844,57.0,0.0,570.0,12.0,0.0
6845,54.0,138.0,180.0,6.0,0.0
6846,45.0,0.0,570.0,3.0,0.0
6847,57.0,216.0,570.0,3.0,0.0
6848,69.0,0.0,570.0,1.0,0.0
6849,81.0,0.0,570.0,1.0,0.0
6850,66.0,0.0,120.0,4.0,0.0
6851,78.0,0.0,120.0,5.0,0.0
6852,69.0,0.0,570.0,2.0,0.0
6853,69.0,0.0,570.0,4.0,0.0
6854,57.0,0.0,570.0,4.0,0.0
6855,66.0,72.0,120.0,5.0,0.0
6856,93.0,0.0,570.0,0.0,0.0
6857,81.0,138.0,90.0,8.0,0.0
6858,69.0,0.0,90.0,10.0,0.0
6859,81.0,108.0,60.0,8.0,0.0
6860,69.0,0.0,60.0,10.0,0.0
6861,86.0,0.0,600.0,8.0,0.0
6862,74.0,0.0,600.0,10.0,0.0
6863,57.0,0.0,60.0,12.0,0.0
6864,81.0,0.0,60.0,0.0,0.0
6865,45.0,0.0,60.0,13.0,0.0
6866,81.0,0.0,60.0,1.0,0.0
6867,81.0,0.0,60.0,2.0,0.0
6868,45.0,0.0,60.0,3.0,0.0
6869,57.0,0.0,60.0,3.0,0.0
6870,69.0,156.0,60.0,2.0,0.0
6871,69.0,0.0,60.0,1.0,0.0
6872,57.0,0.0,60.0,4.0,0.0
6873,69.0,0.0,60.0,11.0,0.0
6874,69.0,0.0,60.0,4.0,0.0
6875,57.0,0.0,60.0,3.0,0.0
6876,57.0,132.0,60.0,4.0,0.0
6877,69.0,0.0,60.0,4.0,0.0
6878,69.0,0.0,60.0,11.0,0.0
6879,45.0,0.0,60.0,13.0,0.0
6880,81.0,0.0,60.0,0.0,0.0
6881,57.0,0.0,60.0,12.0,0.0
6882,69.0,0.0,60.0,1.0,0.0
6883,45.0,0.0,60.0,3.0,0.0
6884,81.0,0.0,60.0,2.0,0.0
6885,69.0,0.0,60.0,2.0,0.0
6886,81.0,0.0,60.0,1.0,0.0
6887,74.0,0.0,180.0,11.0,0.0
6888,62.0,0.0,180.0,12.0,0.0
6889,50.0,0.0,180.0,3.0,0.0
6890,62.0,0.0,180.0,3.0,0.0
6891,74.0,0.0,180.0,2.0,0.0
6892,50.0,0.0,180.0,13.0,0.0
6893,86.0,0.0,180.0,0.0,0.0
6894,66.0,72.0,120.0,4.0,0.0
6895,74.0,0.0,180.0,4.0,0.0
6896,54.0,0.0,120.0,4.0,0.0
6897,86.0,0.0,180.0,2.0,0.0
6898,74.0,120.0,180.0,1.0,0.0
6899,54.0,0.0,180.0,6.0,0.0
6900,78.0,0.0,120.0,5.0,0.0
6901,66.0,0.0,120.0,5.0,0.0
6902,86.0,0.0,180.0,1.0,0.0
6903,62.0,0.0,180.0,4.0,0.0
6904,86.0,0.0,60.0,1.0,0.0
6905,62.0,0.0,60.0,4.0,0.0
6906,74.0,0.0,60.0,4.0,0.0
6907,86.0,0.0,90.0,8.0,0.0
6908,74.0,0.0,60.0,2.0,0.0
6909,50.0,0.0,60.0,3.0,0.0
6910,62.0,0.0,60.0,3.0,0.0
6911,86.0,0.0,60.0,2.0,0.0
6912,74.0,138.0,90.0,10.0,0.0
6913,62.0,0.0,60.0,12.0,0.0
6914,74.0,0.0,60.0,11.0,0.0
6915,74.0,0.0,60.0,1.0,0.0
6916,50.0,0.0,60.0,13.0,0.0
6917,86.0,18.0,60.0,0.0,0.0
6918,86.0,0.0,60.0,8.0,0.0
6919,62.0,0.0,60.0,12.0,0.0
6920,86.0,0.0,60.0,2.0,0.0
6921,74.0,0.0,60.0,2.0,0.0
6922,86.0,0.0,60.0,1.0,0.0
6923,86.0,0.0,60.0,0.0,0.0
6924,74.0,0.0,60.0,11.0,0.0
6925,74.0,0.0,60.0,1.0,0.0
6926,74.0,0.0,60.0,10.0,0.0
6927,74.0,0.0,60.0,4.0,0.0
6928,62.0,0.0,60.0,4.0,0.0
6929,62.0,0.0,60.0,3.0,0.0
6930,50.0,132.0,60.0,3.0,0.0
6931,50.0,0.0,60.0,13.0,0.0
6932,66.0,0.0,240.0,12.0,0.0
6933,54.0,0.0,120.0,6.0,0.0
6934,78.0,0.0,120.0,5.0,0.0
6935,66.0,0.0,120.0,2.0,0.0
6936,78.0,0.0,120.0,2.0,0.0
6937,54.0,0.0,120.0,3.0,0.0
6938,54.0,0.0,120.0,4.0,0.0
6939,78.0,0.0,120.0,10.0,0.0
6940,66.0,106.0,120.0,3.0,0.0
6941,54.0,0.0,240.0,13.0,0.0
6942,90.0,0.0,120.0,8.0,0.0
6943,90.0,86.0,240.0,1.0,0.0
6944,78.0,0.0,240.0,1.0,0.0
6945,78.0,0.0,240.0,11.0,0.0
6946,66.0,0.0,120.0,4.0,0.0
6947,78.0,0.0,120.0,4.0,0.0
6948,90.0,0.0,240.0,0.0,0.0
6949,66.0,0.0,120.0,5.0,0.0
6950,66.0,0.0,60.0,3.0,0.0
6951,54.0,0.0,60.0,3.0,0.0
6952,66.0,0.0,60.0,12.0,0.0
6953,78.0,0.0,60.0,2.0,0.0
6954,66.0,0.0,60.0,2.0,0.0
6955,54.0,0.0,60.0,13.0,0.0
6956,78.0,0.0,60.0,11.0,0.0
6957,90.0,0.0,60.0,0.0,0.0
6958,90.0,138.0,90.0,8.0,0.0
6959,66.0,0.0,60.0,4.0,0.0
6960,78.0,0.0,60.0,4.0,0.0
6961,90.0,0.0,60.0,1.0,0.0
6962,78.0,18.0,60.0,1.0,0.0
6963,78.0,0.0,90.0,10.0,0.0
6964,90.0,0.0,60.0,0.0,0.0
6965,66.0,0.0,60.0,12.0,0.0
6966,54.0,0.0,60.0,13.0,0.0
6967,66.0,0.0,60.0,2.0,0.0
6968,54.0,0.0,60.0,3.0,0.0
6969,66.0,0.0,60.0,3.0,0.0
6970,66.0,0.0,60.0,4.0,0.0
6971,90.0,0.0,60.0,1.0,0.0
6972,78.0,132.0,60.0,1.0,0.0
6973,78.0,0.0,60.0,11.0,0.0
6974,78.0,0.0,60.0,2.0,0.0
6975,90.0,0.0,60.0,8.0,0.0
6976,78.0,0.0,60.0,4.0,0.0
6977,78.0,0.0,60.0,10.0,0.0
6978,69.0,0.0,120.0,11.0,0.0
6979,54.0,138.0,180.0,6.0,0.0
6980,81.0,0.0,120.0,10.0,0.0
6981,81.0,72.0,120.0,2.0,0.0
6982,69.0,0.0,120.0,4.0,0.0
6983,93.0,0.0,120.0,8.0,0.0
6984,81.0,0.0,120.0,1.0,0.0
6985,78.0,0.0,120.0,5.0,0.0
6986,66.0,0.0,120.0,4.0,0.0
6987,54.0,0.0,120.0,4.0,0.0
6988,69.0,0.0,120.0,3.0,0.0
6989,66.0,0.0,120.0,5.0,0.0
6990,69.0,0.0,120.0,12.0,0.0
6991,93.0,0.0,120.0,0.0,0.0
6992,57.0,0.0,120.0,13.0,0.0
6993,74.0,138.0,90.0,2.0,0.0
6994,50.0,0.0,90.0,13.0,0.0
6995,62.0,0.0,90.0,3.0,0.0
6996,62.0,0.0,90.0,11.0,0.0
6997,62.0,0.0,90.0,4.0,0.0
6998,86.0,0.0,90.0,8.0,0.0
6999,62.0,0.0,90.0,12.0,0.0
7000,86.0,0.0,90.0,0.0,0.0
7001,74.0,0.0,90.0,1.0,0.0
7002,74.0,0.0,90.0,10.0,0.0
7003,62.0,0.0,60.0,4.0,0.0
7004,50.0,0.0,60.0,13.0,0.0
7005,74.0,132.0,60.0,2.0,0.0
7006,62.0,0.0,60.0,12.0,0.0
7007,74.0,0.0,60.0,10.0,0.0
7008,86.0,0.0,60.0,8.0,0.0
7009,62.0,0.0,60.0,11.0,0.0
7010,74.0,0.0,60.0,1.0,0.0
7011,86.0,0.0,60.0,0.0,0.0
7012,62.0,0.0,60.0,3.0,0.0
7013,90.0,72.0,120.0,0.0,0.0
7014,78.0,0.0,120.0,5.0,0.0
7015,78.0,0.0,120.0,10.0,0.0
7016,54.0,138.0,180.0,6.0,0.0
7017,66.0,0.0,120.0,12.0,0.0
7018,66.0,0.0,120.0,5.0,0.0
7019,78.0,0.0,120.0,1.0,0.0
7020,78.0,0.0,120.0,2.0,0.0
7021,54.0,0.0,120.0,4.0,0.0
7022,66.0,0.0,120.0,11.0,0.0
7023,54.0,0.0,120.0,13.0,0.0
7024,90.0,0.0,120.0,8.0,0.0
7025,66.0,0.0,120.0,3.0,0.0
7026,66.0,0.0,120.0,4.0,0.0
7027,81.0,0.0,90.0,8.0,0.0
7028,69.0,0.0,90.0,10.0,0.0
7029,57.0,0.0,90.0,11.0,0.0
7030,45.0,138.0,90.0,13.0,0.0
7031,57.0,0.0,90.0,12.0,0.0
7032,69.0,0.0,90.0,2.0,0.0
7033,81.0,0.0,90.0,0.0,0.0
7034,57.0,0.0,90.0,4.0,0.0
7035,57.0,0.0,90.0,3.0,0.0
7036,69.0,0.0,90.0,1.0,0.0
7037,45.0,0.0,60.0,13.0,0.0
7038,57.0,0.0,60.0,4.0,0.0
7039,57.0,0.0,60.0,11.0,0.0
7040,69.0,0.0,60.0,1.0,0.0
7041,69.0,132.0,60.0,10.0,0.0
7042,81.0,0.0,60.0,8.0,0.0
7043,81.0,0.0,60.0,0.0,0.0
7044,57.0,0.0,60.0,12.0,0.0
7045,57.0,0.0,60.0,3.0,0.0
7046,69.0,0.0,60.0,2.0,0.0
7047,54.0,0.0,120.0,4.0,0.0
7048,74.0,0.0,120.0,2.0,0.0
7049,62.0,0.0,120.0,11.0,0.0
7050,62.0,0.0,120.0,3.0,0.0
7051,74.0,72.0,120.0,1.0,0.0
7052,74.0,0.0,120.0,10.0,0.0
7053,86.0,0.0,120.0,8.0,0.0
7054,62.0,0.0,120.0,12.0,0.0
7055,86.0,0.0,120.0,0.0,0.0
7056,50.0,0.0,120.0,13.0,0.0
7057,54.0,138.0,180.0,6.0,0.0
7058,66.0,0.0,120.0,4.0,0.0
7059,78.0,0.0,120.0,5.0,0.0
7060,66.0,0.0,120.0,5.0,0.0
7061,62.0,0.0,120.0,4.0,0.0
7062,42.0,0.0,90.0,13.0,0.0
7063,54.0,0.0,90.0,4.0,0.0
7064,66.0,138.0,90.0,10.0,0.0
7065,78.0,0.0,90.0,8.0,0.0
7066,90.0,0.0,90.0,0.0,0.0
7067,66.0,0.0,90.0,2.0,0.0
7068,54.0,0.0,90.0,3.0,0.0
7069,78.0,0.0,90.0,1.0,0.0
7070,54.0,0.0,90.0,12.0,0.0
7071,54.0,0.0,90.0,11.0,0.0
7072,54.0,0.0,60.0,12.0,0.0
7073,42.0,0.0,60.0,13.0,0.0
7074,54.0,0.0,60.0,11.0,0.0
7075,90.0,0.0,60.0,0.0,0.0
7076,66.0,0.0,60.0,2.0,0.0
7077,78.0,0.0,60.0,8.0,0.0
7078,78.0,0.0,60.0,1.0,0.0
7079,54.0,0.0,60.0,3.0,0.0
7080,54.0,132.0,60.0,4.0,0.0
7081,66.0,0.0,60.0,10.0,0.0
7082,57.0,0.0,120.0,11.0,0.0
7083,66.0,0.0,120.0,5.0,0.0
7084,78.0,0.0,120.0,5.0,0.0
7085,45.0,0.0,120.0,13.0,0.0
7086,54.0,0.0,120.0,4.0,0.0
7087,66.0,0.0,120.0,4.0,0.0
7088,54.0,138.0,180.0,6.0,0.0
7089,57.0,0.0,120.0,12.0,0.0
7090,57.0,0.0,120.0,3.0,0.0
7091,81.0,0.0,120.0,8.0,0.0
7092,69.0,0.0,120.0,10.0,0.0
7093,81.0,72.0,120.0,1.0,0.0
7094,69.0,0.0,120.0,2.0,0.0
7095,93.0,0.0,120.0,0.0,0.0
7096,57.0,0.0,120.0,4.0,0.0
7097,50.0,0.0,90.0,12.0,0.0
7098,62.0,0.0,90.0,10.0,0.0
7099,50.0,0.0,90.0,3.0,0.0
7100,74.0,0.0,90.0,1.0,0.0
7101,38.0,0.0,90.0,13.0,0.0
7102,50.0,138.0,90.0,4.0,0.0
7103,86.0,0.0,90.0,0.0,0.0
7104,62.0,0.0,90.0,2.0,0.0
7105,50.0,0.0,90.0,11.0,0.0
7106,74.0,0.0,90.0,8.0,0.0
7107,50.0,0.0,60.0,11.0,0.0
7108,62.0,0.0,60.0,10.0,0.0
7109,86.0,0.0,60.0,0.0,0.0
7110,50.0,0.0,60.0,12.0,0.0
7111,74.0,0.0,60.0,1.0,0.0
7112,50.0,0.0,60.0,3.0,0.0
7113,74.0,0.0,60.0,8.0,0.0
7114,50.0,132.0,60.0,4.0,0.0
7115,38.0,0.0,60.0,13.0,0.0
7116,62.0,0.0,60.0,2.0,0.0
7117,54.0,138.0,180.0,6.0,0.0
7118,66.0,0.0,120.0,5.0,0.0
7119,78.0,72.0,120.0,5.0,0.0
7120,54.0,0.0,120.0,11.0,0.0
7121,66.0,0.0,120.0,2.0,0.0
7122,54.0,0.0,120.0,12.0,0.0
7123,66.0,0.0,120.0,10.0,0.0
7124,54.0,0.0,120.0,4.0,0.0
7125,66.0,0.0,120.0,4.0,0.0
7126,78.0,0.0,120.0,1.0,0.0
7127,90.0,0.0,120.0,0.0,0.0
7128,78.0,0.0,120.0,8.0,0.0
7129,54.0,0.0,120.0,3.0,0.0
7130,42.0,0.0,120.0,13.0,0.0
7131,57.0,0.0,90.0,12.0,0.0
7132,81.0,0.0,90.0,0.0,0.0
7133,69.0,0.0,90.0,1.0,0.0
7134,57.0,138.0,90.0,3.0,0.0
7135,57.0,0.0,90.0,4.0,0.0
7136,57.0,0.0,90.0,11.0,0.0
7137,57.0,0.0,90.0,10.0,0.0
7138,69.0,0.0,90.0,2.0,0.0
7139,45.0,0.0,90.0,13.0,0.0
7140,69.0,0.0,90.0,8.0,0.0
7141,57.0,0.0,60.0,12.0,0.0
7142,81.0,0.0,60.0,0.0,0.0
7143,69.0,0.0,60.0,8.0,0.0
7144,57.0,0.0,60.0,10.0,0.0
7145,57.0,0.0,60.0,3.0,0.0
7146,69.0,0.0,60.0,2.0,0.0
7147,57.0,132.0,60.0,4.0,0.0
7148,69.0,0.0,60.0,1.0,0.0
7149,45.0,0.0,60.0,13.0,0.0
7150,57.0,0.0,60.0,11.0,0.0
7151,62.0,0.0,120.0,12.0,0.0
7152,74.0,0.0,120.0,8.0,0.0
7153,50.0,0.0,120.0,13.0,0.0
7154,66.0,0.0,120.0,4.0,0.0
7155,54.0,0.0,120.0,4.0,0.0
7156,74.0,0.0,120.0,2.0,0.0
7157,62.0,0.0,120.0,4.0,0.0
7158,78.0,0.0,120.0,5.0,0.0
7159,66.0,0.0,120.0,5.0,0.0
7160,62.0,0.0,120.0,11.0,0.0
7161,54.0,138.0,180.0,6.0,0.0
7162,62.0,0.0,120.0,10.0,0.0
7163,86.0,0.0,120.0,0.0,0.0
7164,74.0,0.0,120.0,1.0,0.0
7165,62.0,72.0,120.0,3.0,0.0
7166,66.0,0.0,90.0,8.0,0.0
7167,54.0,0.0,90.0,4.0,0.0
7168,54.0,0.0,90.0,12.0,0.0
7169,54.0,0.0,90.0,11.0,0.0
7170,66.0,0.0,90.0,1.0,0.0
7171,78.0,0.0,90.0,0.0,0.0
7172,42.0,0.0,90.0,13.0,0.0
7173,54.0,0.0,90.0,10.0,0.0
7174,66.0,138.0,90.0,2.0,0.0
7175,54.0,0.0,90.0,3.0,0.0
7176,66.0,0.0,60.0,2.0,0.0
7177,66.0,0.0,60.0,8.0,0.0
7178,54.0,0.0,60.0,4.0,0.0
7179,54.0,0.0,60.0,12.0,0.0
7180,54.0,0.0,60.0,10.0,0.0
7181,54.0,0.0,60.0,11.0,0.0
7182,66.0,132.0,60.0,1.0,0.0
7183,54.0,0.0,60.0,3.0,0.0
7184,42.0,0.0,60.0,13.0,0.0
7185,78.0,0.0,60.0,0.0,0.0
7186,57.0,0.0,120.0,3.0,0.0
7187,66.0,0.0,120.0,5.0,0.0
7188,78.0,0.0,120.0,5.0,0.0
7189,57.0,0.0,120.0,12.0,0.0
7190,57.0,0.0,120.0,11.0,0.0
7191,54.0,0.0,120.0,4.0,0.0
7192,66.0,0.0,120.0,4.0,0.0
7193,69.0,0.0,120.0,1.0,0.0
7194,57.0,0.0,120.0,4.0,0.0
7195,69.0,72.0,120.0,8.0,0.0
7196,69.0,0.0,120.0,2.0,0.0
7197,57.0,0.0,120.0,10.0,0.0
7198,81.0,0.0,120.0,0.0,0.0
7199,45.0,0.0,120.0,13.0,0.0
7200,54.0,138.0,180.0,6.0,0.0
7201,50.0,0.0,90.0,12.0,0.0
7202,50.0,0.0,90.0,4.0,0.0
7203,74.0,138.0,90.0,0.0,0.0
7204,50.0,0.0,90.0,11.0,0.0
7205,50.0,0.0,90.0,3.0,0.0
7206,62.0,0.0,90.0,4.0,0.0
7207,62.0,0.0,90.0,8.0,0.0
7208,38.0,0.0,90.0,13.0,0.0
7209,62.0,0.0,90.0,2.0,0.0
7210,50.0,0.0,90.0,10.0,0.0
7211,62.0,0.0,90.0,1.0,0.0
7212,62.0,0.0,60.0,4.0,0.0
7213,62.0,132.0,60.0,8.0,0.0
7214,50.0,0.0,60.0,11.0,0.0
7215,50.0,0.0,60.0,4.0,0.0
7216,50.0,0.0,60.0,12.0,0.0
7217,50.0,0.0,60.0,10.0,0.0
7218,74.0,0.0,60.0,0.0,0.0
7219,50.0,0.0,60.0,3.0,0.0
7220,62.0,0.0,60.0,2.0,0.0
7221,38.0,0.0,60.0,13.0,0.0
7222,62.0,0.0,60.0,1.0,0.0
7223,66.0,0.0,120.0,5.0,0.0
7224,86.0,0.0,120.0,0.0,0.0
7225,74.0,0.0,120.0,8.0,0.0
7226,62.0,0.0,120.0,12.0,0.0
7227,62.0,0.0,120.0,11.0,0.0
7228,62.0,0.0,120.0,10.0,0.0
7229,74.0,0.0,120.0,2.0,0.0
7230,66.0,0.0,120.0,4.0,0.0
7231,54.0,138.0,180.0,6.0,0.0
7232,62.0,0.0,120.0,3.0,0.0
7233,74.0,0.0,120.0,1.0,0.0
7234,54.0,0.0,120.0,4.0,0.0
7235,50.0,0.0,120.0,13.0,0.0
7236,62.0,72.0,120.0,4.0,0.0
7237,78.0,0.0,120.0,5.0,0.0
7238,62.0,0.0,90.0,2.0,0.0
7239,50.0,0.0,90.0,11.0,0.0
7240,50.0,138.0,90.0,12.0,0.0
7241,62.0,0.0,90.0,4.0,0.0
7242,74.0,0.0,90.0,0.0,0.0
7243,50.0,0.0,90.0,4.0,0.0
7244,62.0,0.0,90.0,8.0,0.0
7245,50.0,0.0,90.0,3.0,0.0
7246,38.0,0.0,90.0,13.0,0.0
7247,50.0,0.0,90.0,10.0,0.0
7248,62.0,0.0,90.0,1.0,0.0
7249,62.0,0.0,60.0,2.0,0.0
7250,50.0,0.0,60.0,10.0,0.0
7251,38.0,0.0,60.0,13.0,0.0
7252,50.0,0.0,60.0,3.0,0.0
7253,50.0,0.0,60.0,12.0,0.0
7254,62.0,132.0,60.0,1.0,0.0
7255,62.0,0.0,60.0,8.0,0.0
7256,50.0,0.0,60.0,4.0,0.0
7257,62.0,0.0,60.0,4.0,0.0
7258,50.0,0.0,60.0,11.0,0.0
7259,74.0,0.0,60.0,0.0,0.0
7260,74.0,0.0,120.0,2.0,0.0
7261,86.0,0.0,120.0,8.0,0.0
7262,50.0,0.0,120.0,13.0,0.0
7263,86.0,0.0,120.0,0.0,0.0
7264,54.0,756.0,180.0,6.0,0.0
7265,62.0,0.0,120.0,3.0,0.0
7266,66.0,0.0,120.0,5.0,0.0
7267,78.0,0.0,120.0,5.0,0.0
7268,54.0,0.0,120.0,4.0,0.0
7269,66.0,0.0,120.0,4.0,0.0
7270,74.0,0.0,120.0,10.0,0.0
7271,62.0,0.0,120.0,4.0,0.0
7272,50.0,0.0,120.0,4.0,0.0
7273,86.0,0.0,120.0,1.0,0.0
7274,62.0,72.0,120.0,12.0,0.0
7275,74.0,0.0,120.0,11.0,0.0
7276,50.0,204.0,60.0,13.0,0.0
7277,74.0,0.0,60.0,2.0,0.0
7278,62.0,0.0,60.0,12.0,0.0
7279,86.0,0.0,60.0,0.0,0.0
7280,62.0,0.0,60.0,3.0,0.0
7281,86.0,0.0,60.0,1.0,0.0
7282,74.0,0.0,60.0,8.0,0.0
7283,74.0,0.0,180.0,1.0,0.0
7284,50.0,0.0,180.0,12.0,0.0
7285,62.0,0.0,180.0,2.0,0.0
7286,50.0,756.0,180.0,3.0,0.0
7287,38.0,0.0,180.0,13.0,0.0
7288,74.0,0.0,180.0,0.0,0.0
7289,62.0,0.0,180.0,8.0,0.0
7290,38.0,76.0,60.0,13.0,0.0
7291,74.0,0.0,60.0,1.0,0.0
7292,62.0,0.0,60.0,8.0,0.0
7293,50.0,0.0,60.0,12.0,0.0
7294,62.0,0.0,60.0,2.0,0.0
7295,74.0,0.0,60.0,0.0,0.0
7296,50.0,0.0,60.0,3.0,0.0
7297,49.0,0.0,180.0,12.0,0.0
7298,49.0,0.0,180.0,3.0,0.0
7299,37.0,0.0,180.0,13.0,0.0
7300,61.0,0.0,17520.0,4.0,0.0
7301,73.0,0.0,180.0,0.0,0.0
7302,61.0,0.0,180.0,8.0,0.0
7303,73.0,0.0,180.0,1.0,0.0
7304,61.0,32.0,180.0,2.0,0.0
7305,61.0,80.0,60.0,10.0,0.0
7306,61.0,48.0,60.0,10.0,0.0
7307,61.0,80.0,60.0,10.0,0.0
7308,61.0,80.0,60.0,10.0,0.0
7309,61.0,80.0,60.0,10.0,0.0
7310,61.0,80.0,60.0,10.0,0.0
7311,61.0,32.0,180.0,5.0,0.0
7312,61.0,80.0,60.0,10.0,0.0
7313,49.0,0.0,180.0,6.0,0.0
7314,61.0,48.0,60.0,10.0,0.0
7315,61.0,80.0,60.0,10.0,0.0
7316,61.0,80.0,60.0,10.0,0.0
7317,61.0,80.0,60.0,10.0,0.0
7318,61.0,80.0,60.0,10.0,0.0
7319,61.0,80.0,60.0,10.0,0.0
7320,61.0,80.0,60.0,10.0,0.0
7321,61.0,80.0,60.0,10.0,0.0
7322,61.0,80.0,60.0,10.0,0.0
7323,61.0,80.0,60.0,10.0,0.0
7324,61.0,80.0,60.0,10.0,0.0
7325,61.0,80.0,60.0,10.0,0.0
7326,61.0,80.0,60.0,10.0,0.0
7327,61.0,80.0,60.0,10.0,0.0
7328,61.0,80.0,60.0,10.0,0.0
7329,61.0,80.0,60.0,10.0,0.0
7330,61.0,80.0,60.0,10.0,0.0
7331,49.0,0.0,60.0,12.0,0.0
7332,56.0,0.0,60.0,12.0,0.0
7333,61.0,80.0,60.0,10.0,0.0
7334,68.0,0.0,60.0,10.0,0.0
7335,68.0,14.0,8130.0,4.0,0.0
7336,56.0,0.0,60.0,12.0,0.0
7337,61.0,80.0,60.0,10.0,0.0
7338,68.0,0.0,60.0,10.0,0.0
7339,49.0,0.0,60.0,12.0,0.0
7340,49.0,0.0,60.0,12.0,0.0
7341,68.0,80.0,60.0,10.0,0.0
7342,56.0,0.0,60.0,12.0,0.0
7343,61.0,0.0,60.0,10.0,0.0
7344,49.0,0.0,60.0,12.0,0.0
7345,68.0,0.0,60.0,10.0,0.0
7346,61.0,0.0,60.0,10.0,0.0
7347,56.0,80.0,60.0,12.0,0.0
7348,56.0,0.0,60.0,12.0,0.0
7349,49.0,80.0,60.0,12.0,0.0
7350,61.0,0.0,60.0,10.0,0.0
7351,68.0,0.0,60.0,10.0,0.0
7352,49.0,80.0,60.0,12.0,0.0
7353,56.0,0.0,60.0,12.0,0.0
7354,61.0,0.0,60.0,10.0,0.0
7355,68.0,0.0,60.0,10.0,0.0
7356,56.0,0.0,60.0,12.0,0.0
7357,49.0,0.0,60.0,12.0,0.0
7358,61.0,0.0,60.0,10.0,0.0
7359,68.0,80.0,60.0,10.0,0.0
7360,56.0,0.0,60.0,12.0,0.0
7361,49.0,0.0,60.0,12.0,0.0
7362,68.0,0.0,60.0,10.0,0.0
7363,61.0,80.0,60.0,10.0,0.0
7364,68.0,0.0,60.0,10.0,0.0
7365,61.0,0.0,60.0,10.0,0.0
7366,49.0,80.0,60.0,12.0,0.0
7367,56.0,0.0,60.0,12.0,0.0
7368,61.0,0.0,60.0,10.0,0.0
7369,68.0,0.0,60.0,10.0,0.0
7370,56.0,0.0,60.0,12.0,0.0
7371,49.0,80.0,60.0,12.0,0.0
7372,61.0,0.0,60.0,10.0,0.0
7373,68.0,0.0,60.0,10.0,0.0
7374,56.0,0.0,60.0,12.0,0.0
7375,49.0,80.0,60.0,12.0,0.0
7376,49.0,0.0,60.0,12.0,0.0
7377,56.0,0.0,60.0,12.0,0.0
7378,61.0,80.0,60.0,10.0,0.0
7379,68.0,0.0,60.0,10.0,0.0
7380,61.0,0.0,60.0,10.0,0.0
7381,68.0,80.0,60.0,10.0,0.0
7382,56.0,0.0,60.0,12.0,0.0
7383,49.0,0.0,60.0,12.0,0.0
7384,56.0,0.0,60.0,12.0,0.0
7385,49.0,0.0,60.0,12.0,0.0
7386,68.0,80.0,60.0,10.0,0.0
7387,61.0,0.0,60.0,10.0,0.0
7388,68.0,0.0,60.0,10.0,0.0
7389,61.0,0.0,60.0,10.0,0.0
7390,56.0,0.0,60.0,12.0,0.0
7391,49.0,80.0,60.0,12.0,0.0
7392,68.0,0.0,60.0,10.0,0.0
7393,61.0,80.0,60.0,10.0,0.0
7394,56.0,0.0,60.0,12.0,0.0
7395,49.0,0.0,60.0,12.0,0.0
7396,56.0,0.0,60.0,12.0,0.0
7397,68.0,0.0,60.0,10.0,0.0
7398,61.0,0.0,60.0,10.0,0.0
7399,49.0,80.0,60.0,12.0,0.0
7400,49.0,0.0,60.0,12.0,0.0
7401,56.0,80.0,60.0,12.0,0.0
7402,68.0,0.0,60.0,10.0,0.0
7403,61.0,0.0,60.0,10.0,0.0
7404,61.0,0.0,60.0,10.0,0.0
7405,68.0,80.0,60.0,10.0,0.0
7406,56.0,0.0,60.0,12.0,0.0
7407,49.0,0.0,60.0,12.0,0.0
7408,49.0,80.0,60.0,12.0,0.0
7409,68.0,0.0,60.0,10.0,0.0
7410,61.0,0.0,60.0,10.0,0.0
7411,56.0,0.0,60.0,12.0,0.0
7412,56.0,0.0,60.0,12.0,0.0
7413,49.0,80.0,60.0,12.0,0.0
7414,68.0,0.0,60.0,10.0,0.0
7415,61.0,0.0,60.0,10.0,0.0
7416,49.0,0.0,60.0,12.0,0.0
7417,56.0,80.0,60.0,12.0,0.0
7418,68.0,0.0,60.0,10.0,0.0
7419,61.0,0.0,60.0,10.0,0.0
7420,61.0,80.0,60.0,10.0,0.0
7421,49.0,0.0,60.0,12.0,0.0
7422,56.0,0.0,60.0,12.0,0.0
7423,68.0,0.0,60.0,10.0,0.0
7424,68.0,0.0,60.0,10.0,0.0
7425,49.0,4.0,60.0,12.0,0.0
7426,56.0,0.0,60.0,12.0,0.0
7427,61.0,0.0,60.0,10.0,0.0
7428,80.0,76.0,60.0,8.0,0.0
7429,56.0,0.0,60.0,12.0,0.0
7430,73.0,64.0,13920.0,2.0,0.0
7431,49.0,0.0,60.0,12.0,0.0
7432,61.0,80.0,60.0,10.0,0.0
7433,73.0,0.0,390.0,8.0,0.0
7434,68.0,0.0,60.0,10.0,0.0
7435,56.0,0.0,60.0,12.0,0.0
7436,68.0,0.0,60.0,10.0,0.0
7437,49.0,80.0,60.0,12.0,0.0
7438,61.0,0.0,60.0,10.0,0.0
7439,56.0,0.0,60.0,12.0,0.0
7440,49.0,0.0,60.0,12.0,0.0
7441,68.0,0.0,60.0,10.0,0.0
7442,61.0,80.0,60.0,10.0,0.0
7443,56.0,80.0,60.0,12.0,0.0
7444,49.0,0.0,60.0,12.0,0.0
7445,68.0,0.0,60.0,10.0,0.0
7446,61.0,0.0,60.0,10.0,0.0
7447,49.0,0.0,60.0,12.0,0.0
7448,61.0,80.0,60.0,10.0,0.0
7449,68.0,0.0,60.0,10.0,0.0
7450,56.0,0.0,60.0,12.0,0.0
7451,56.0,0.0,60.0,12.0,0.0
7452,49.0,80.0,60.0,12.0,0.0
7453,61.0,0.0,60.0,10.0,0.0
7454,68.0,0.0,60.0,10.0,0.0
7455,56.0,80.0,60.0,12.0,0.0
7456,49.0,0.0,60.0,12.0,0.0
7457,61.0,0.0,60.0,10.0,0.0
7458,68.0,0.0,60.0,10.0,0.0
7459,61.0,0.0,60.0,10.0,0.0
7460,49.0,0.0,60.0,12.0,0.0
7461,68.0,80.0,60.0,10.0,0.0
7462,56.0,0.0,60.0,12.0,0.0
7463,49.0,0.0,60.0,12.0,0.0
7464,56.0,0.0,60.0,12.0,0.0
7465,68.0,80.0,60.0,10.0,0.0
7466,61.0,0.0,60.0,10.0,0.0
7467,68.0,80.0,60.0,10.0,0.0
7468,61.0,0.0,60.0,10.0,0.0
7469,49.0,0.0,60.0,12.0,0.0
7470,56.0,0.0,60.0,12.0,0.0
7471,49.0,0.0,60.0,12.0,0.0
7472,56.0,80.0,60.0,12.0,0.0
7473,61.0,0.0,60.0,10.0,0.0
7474,68.0,0.0,60.0,10.0,0.0
7475,61.0,0.0,60.0,10.0,0.0
7476,68.0,0.0,60.0,10.0,0.0
7477,49.0,0.0,60.0,12.0,0.0
7478,56.0,4.0,60.0,12.0,0.0
7479,73.0,76.0,60.0,8.0,0.0
7480,68.0,0.0,390.0,8.0,0.0
7481,68.0,0.0,60.0,10.0,0.0
7482,49.0,0.0,60.0,12.0,0.0
7483,56.0,0.0,60.0,12.0,0.0
7484,61.0,80.0,60.0,10.0,0.0
7485,49.0,0.0,60.0,12.0,0.0
7486,61.0,80.0,60.0,10.0,0.0
7487,68.0,0.0,60.0,10.0,0.0
7488,56.0,0.0,60.0,12.0,0.0
7489,61.0,0.0,60.0,10.0,0.0
7490,49.0,0.0,60.0,12.0,0.0
7491,68.0,0.0,60.0,10.0,0.0
7492,56.0,80.0,60.0,12.0,0.0
7493,61.0,0.0,60.0,10.0,0.0
7494,56.0,80.0,60.0,12.0,0.0
7495,49.0,0.0,60.0,12.0,0.0
7496,68.0,0.0,60.0,10.0,0.0
7497,61.0,0.0,60.0,10.0,0.0
7498,68.0,0.0,60.0,10.0,0.0
7499,56.0,0.0,60.0,12.0,0.0
7500,49.0,80.0,60.0,12.0,0.0
7501,68.0,80.0,60.0,10.0,0.0
7502,49.0,0.0,60.0,12.0,0.0
7503,61.0,0.0,60.0,10.0,0.0
7504,56.0,0.0,60.0,12.0,0.0
7505,61.0,0.0,60.0,10.0,0.0
7506,56.0,80.0,60.0,12.0,0.0
7507,49.0,0.0,60.0,12.0,0.0
7508,68.0,0.0,60.0,10.0,0.0
7509,61.0,0.0,60.0,10.0,0.0
7510,56.0,80.0,60.0,12.0,0.0
7511,49.0,0.0,60.0,12.0,0.0
7512,68.0,0.0,60.0,10.0,0.0
7513,68.0,80.0,60.0,10.0,0.0
7514,61.0,0.0,60.0,10.0,0.0
7515,56.0,0.0,60.0,12.0,0.0
7516,49.0,0.0,60.0,12.0,0.0
7517,56.0,0.0,60.0,12.0,0.0
7518,61.0,80.0,60.0,10.0,0.0
7519,68.0,0.0,60.0,10.0,0.0
7520,49.0,0.0,60.0,12.0,0.0
7521,56.0,0.0,60.0,12.0,0.0
7522,49.0,0.0,60.0,12.0,0.0
7523,61.0,80.0,60.0,10.0,0.0
7524,68.0,0.0,60.0,10.0,0.0
7525,68.0,4.0,60.0,10.0,0.0
7526,49.0,0.0,60.0,12.0,0.0
7527,56.0,0.0,60.0,12.0,0.0
7528,61.0,0.0,60.0,10.0,0.0
7529,44.0,76.0,60.0,13.0,0.0
7530,68.0,0.0,60.0,11.0,0.0
7531,56.0,80.0,60.0,12.0,0.0
7532,49.0,0.0,60.0,12.0,0.0
7533,61.0,0.0,390.0,11.0,0.0
7534,37.0,0.0,390.0,13.0,0.0
7535,80.0,64.0,4320.0,1.0,0.0
7536,68.0,0.0,60.0,10.0,0.0
7537,61.0,0.0,60.0,10.0,0.0
7538,68.0,0.0,60.0,10.0,0.0
7539,49.0,0.0,60.0,12.0,0.0
7540,61.0,80.0,60.0,10.0,0.0
7541,56.0,0.0,60.0,12.0,0.0
7542,61.0,0.0,60.0,10.0,0.0
7543,56.0,80.0,60.0,12.0,0.0
7544,68.0,0.0,60.0,10.0,0.0
7545,49.0,0.0,60.0,12.0,0.0
7546,56.0,80.0,60.0,12.0,0.0
7547,68.0,0.0,60.0,10.0,0.0
7548,61.0,0.0,60.0,10.0,0.0
7549,49.0,0.0,60.0,12.0,0.0
7550,49.0,0.0,60.0,12.0,0.0
7551,61.0,0.0,60.0,10.0,0.0
7552,68.0,80.0,60.0,10.0,0.0
7553,56.0,0.0,60.0,12.0,0.0
7554,61.0,80.0,60.0,10.0,0.0
7555,49.0,0.0,60.0,12.0,0.0
7556,68.0,0.0,60.0,10.0,0.0
7557,56.0,0.0,60.0,12.0,0.0
7558,49.0,0.0,60.0,12.0,0.0
7559,56.0,0.0,60.0,12.0,0.0
7560,68.0,0.0,60.0,10.0,0.0
7561,61.0,80.0,60.0,10.0,0.0
7562,49.0,0.0,180.0,6.0,0.0
7563,61.0,32.0,180.0,5.0,0.0
7564,68.0,0.0,60.0,10.0,0.0
7565,56.0,48.0,60.0,12.0,0.0
7566,61.0,0.0,60.0,10.0,0.0
7567,49.0,0.0,60.0,12.0,0.0
7568,61.0,0.0,60.0,10.0,0.0
7569,68.0,0.0,60.0,10.0,0.0
7570,49.0,80.0,60.0,12.0,0.0
7571,56.0,0.0,60.0,12.0,0.0
7572,56.0,80.0,60.0,12.0,0.0
7573,61.0,0.0,60.0,10.0,0.0
7574,68.0,0.0,60.0,10.0,0.0
7575,49.0,0.0,60.0,12.0,0.0
7576,61.0,0.0,60.0,10.0,0.0
7577,56.0,0.0,60.0,12.0,0.0
7578,49.0,0.0,60.0,12.0,0.0
7579,68.0,80.0,60.0,10.0,0.0
7580,68.0,0.0,60.0,10.0,0.0
7581,56.0,0.0,60.0,12.0,0.0
7582,49.0,0.0,60.0,12.0,0.0
7583,61.0,80.0,60.0,10.0,0.0
7584,68.0,0.0,60.0,10.0,0.0
7585,49.0,0.0,60.0,12.0,0.0
7586,61.0,0.0,60.0,10.0,0.0
7587,56.0,80.0,60.0,12.0,0.0
7588,61.0,0.0,60.0,10.0,0.0
7589,56.0,0.0,60.0,12.0,0.0
7590,49.0,0.0,60.0,12.0,0.0
7591,68.0,80.0,60.0,10.0,0.0
7592,61.0,0.0,60.0,10.0,0.0
7593,68.0,0.0,60.0,10.0,0.0
7594,56.0,0.0,60.0,12.0,0.0
7595,49.0,80.0,60.0,12.0,0.0
7596,68.0,0.0,60.0,10.0,0.0
7597,61.0,0.0,60.0,10.0,0.0
7598,49.0,80.0,60.0,12.0,0.0
7599,56.0,0.0,60.0,12.0,0.0
7600,56.0,0.0,60.0,12.0,0.0
7601,49.0,0.0,60.0,12.0,0.0
7602,61.0,0.0,60.0,10.0,0.0
7603,68.0,80.0,60.0,10.0,0.0
7604,49.0,80.0,60.0,12.0,0.0
7605,56.0,0.0,60.0,12.0,0.0
7606,68.0,0.0,60.0,10.0,0.0
7607,61.0,0.0,60.0,10.0,0.0
7608,68.0,0.0,60.0,10.0,0.0
7609,61.0,0.0,60.0,10.0,0.0
7610,49.0,0.0,60.0,12.0,0.0
7611,56.0,80.0,60.0,12.0,0.0
7612,56.0,0.0,60.0,12.0,0.0
7613,49.0,0.0,60.0,12.0,0.0
7614,68.0,80.0,60.0,10.0,0.0
7615,61.0,0.0,60.0,10.0,0.0
7616,68.0,0.0,60.0,10.0,0.0
7617,61.0,0.0,60.0,10.0,0.0
7618,56.0,0.0,60.0,12.0,0.0
7619,49.0,80.0,60.0,12.0,0.0
7620,56.0,80.0,60.0,12.0,0.0
7621,49.0,0.0,60.0,12.0,0.0
7622,68.0,0.0,60.0,10.0,0.0
7623,61.0,0.0,60.0,10.0,0.0
7624,68.0,80.0,60.0,10.0,0.0
7625,61.0,0.0,60.0,10.0,0.0
7626,49.0,0.0,60.0,12.0,0.0
7627,56.0,0.0,60.0,12.0,0.0
7628,61.0,0.0,60.0,10.0,0.0
7629,49.0,0.0,60.0,12.0,0.0
7630,56.0,0.0,60.0,12.0,0.0
7631,68.0,4.0,60.0,10.0,0.0
7632,85.0,76.0,60.0,8.0,0.0
7633,49.0,80.0,60.0,12.0,0.0
7634,68.0,0.0,60.0,10.0,0.0
7635,61.0,0.0,60.0,10.0,0.0
7636,56.0,0.0,60.0,12.0,0.0
7637,85.0,0.0,10080.0,0.0,0.0
7638,80.0,0.0,390.0,8.0,0.0
7639,49.0,0.0,60.0,12.0,0.0
7640,68.0,0.0,60.0,10.0,0.0
7641,61.0,0.0,60.0,10.0,0.0
7642,56.0,80.0,60.0,12.0,0.0
7643,68.0,0.0,60.0,10.0,0.0
7644,49.0,80.0,60.0,12.0,0.0
7645,61.0,0.0,60.0,10.0,0.0
7646,56.0,0.0,60.0,12.0,0.0
7647,68.0,0.0,60.0,10.0,0.0
7648,49.0,0.0,60.0,12.0,0.0
7649,56.0,80.0,60.0,12.0,0.0
7650,61.0,0.0,60.0,10.0,0.0
7651,68.0,0.0,60.0,10.0,0.0
7652,49.0,80.0,60.0,12.0,0.0
7653,56.0,0.0,60.0,12.0,0.0
7654,61.0,0.0,60.0,10.0,0.0
7655,61.0,0.0,60.0,10.0,0.0
7656,68.0,0.0,60.0,10.0,0.0
7657,49.0,80.0,60.0,12.0,0.0
7658,56.0,0.0,60.0,12.0,0.0
7659,68.0,0.0,60.0,10.0,0.0
7660,61.0,0.0,60.0,10.0,0.0
7661,49.0,80.0,60.0,12.0,0.0
7662,56.0,0.0,60.0,12.0,0.0
7663,68.0,0.0,60.0,10.0,0.0
7664,61.0,0.0,60.0,10.0,0.0
7665,56.0,80.0,60.0,12.0,0.0
7666,49.0,0.0,60.0,12.0,0.0
7667,68.0,0.0,60.0,10.0,0.0
7668,61.0,80.0,60.0,10.0,0.0
7669,49.0,0.0,60.0,12.0,0.0
7670,56.0,0.0,60.0,12.0,0.0
7671,56.0,0.0,60.0,12.0,0.0
7672,49.0,0.0,60.0,12.0,0.0
7673,61.0,0.0,60.0,10.0,0.0
7674,68.0,80.0,60.0,10.0,0.0
7675,56.0,0.0,60.0,12.0,0.0
7676,68.0,0.0,60.0,10.0,0.0
7677,61.0,0.0,60.0,10.0,0.0
7678,49.0,80.0,60.0,12.0,0.0
7679,49.0,0.0,60.0,12.0,0.0
7680,61.0,0.0,60.0,10.0,0.0
7681,68.0,0.0,60.0,10.0,0.0
7682,56.0,4.0,60.0,12.0,0.0
7683,80.0,76.0,60.0,8.0,0.0
7684,68.0,0.0,60.0,10.0,0.0
7685,61.0,0.0,60.0,10.0,0.0
7686,56.0,80.0,60.0,12.0,0.0
7687,49.0,0.0,60.0,12.0,0.0
7688,73.0,0.0,390.0,8.0,0.0
7689,61.0,80.0,60.0,10.0,0.0
7690,49.0,0.0,60.0,12.0,0.0
7691,56.0,0.0,60.0,12.0,0.0
7692,68.0,0.0,60.0,10.0,0.0
7693,61.0,0.0,60.0,10.0,0.0
7694,68.0,80.0,60.0,10.0,0.0
7695,49.0,0.0,60.0,12.0,0.0
7696,56.0,0.0,60.0,12.0,0.0
7697,61.0,0.0,60.0,10.0,0.0
7698,68.0,80.0,60.0,10.0,0.0
7699,56.0,0.0,60.0,12.0,0.0
7700,49.0,0.0,60.0,12.0,0.0
7701,68.0,0.0,60.0,10.0,0.0
7702,56.0,0.0,60.0,12.0,0.0
7703,49.0,80.0,60.0,12.0,0.0
7704,61.0,0.0,60.0,10.0,0.0
7705,56.0,0.0,60.0,12.0,0.0
7706,49.0,80.0,60.0,12.0,0.0
7707,68.0,0.0,60.0,10.0,0.0
7708,61.0,0.0,60.0,10.0,0.0
7709,56.0,0.0,60.0,12.0,0.0
7710,49.0,80.0,60.0,12.0,0.0
7711,68.0,0.0,60.0,10.0,0.0
7712,61.0,0.0,60.0,10.0,0.0
7713,61.0,0.0,60.0,10.0,0.0
7714,49.0,0.0,60.0,12.0,0.0
7715,56.0,0.0,60.0,12.0,0.0
7716,68.0,80.0,60.0,10.0,0.0
7717,56.0,80.0,60.0,12.0,0.0
7718,61.0,0.0,60.0,10.0,0.0
7719,68.0,0.0,60.0,10.0,0.0
7720,49.0,0.0,60.0,12.0,0.0
7721,68.0,0.0,60.0,10.0,0.0
7722,56.0,0.0,60.0,12.0,0.0
7723,49.0,80.0,60.0,12.0,0.0
7724,61.0,0.0,60.0,10.0,0.0
7725,49.0,80.0,60.0,12.0,0.0
7726,56.0,0.0,60.0,12.0,0.0
7727,68.0,0.0,60.0,10.0,0.0
7728,61.0,0.0,60.0,10.0,0.0
7729,61.0,0.0,60.0,10.0,0.0
7730,49.0,4.0,60.0,12.0,0.0
7731,56.0,0.0,60.0,12.0,0.0
7732,68.0,0.0,60.0,10.0,0.0
7733,44.0,76.0,60.0,13.0,0.0
7734,68.0,0.0,60.0,11.0,0.0
7735,49.0,0.0,60.0,12.0,0.0
7736,61.0,0.0,390.0,11.0,0.0
7737,56.0,0.0,60.0,12.0,0.0
7738,37.0,66.0,390.0,13.0,0.0
7739,68.0,80.0,60.0,10.0,0.0
7740,61.0,0.0,60.0,10.0,0.0
7741,49.0,0.0,60.0,12.0,0.0
7742,73.0,80.0,60.0,10.0,0.0
7743,61.0,0.0,60.0,10.0,0.0
7744,61.0,0.0,60.0,12.0,0.0
7745,61.0,0.0,60.0,10.0,0.0
7746,61.0,0.0,60.0,12.0,0.0
7747,49.0,80.0,60.0,12.0,0.0
7748,73.0,0.0,60.0,10.0,0.0
7749,61.0,0.0,60.0,12.0,0.0
7750,73.0,0.0,60.0,10.0,0.0
7751,61.0,0.0,60.0,10.0,0.0
7752,49.0,80.0,60.0,12.0,0.0
7753,73.0,0.0,60.0,10.0,0.0
7754,61.0,0.0,60.0,10.0,0.0
7755,49.0,0.0,60.0,12.0,0.0
7756,61.0,0.0,60.0,12.0,0.0
7757,61.0,16.0,60.0,12.0,0.0
7758,73.0,0.0,60.0,10.0,0.0
7759,49.0,0.0,60.0,12.0,0.0
7760,61.0,0.0,60.0,10.0,0.0
7761,61.0,0.0,60.0,12.0,0.0
7762,54.0,0.0,60.0,12.0,0.0
7763,66.0,0.0,60.0,10.0,0.0
7764,66.0,0.0,180.0,5.0,0.0
7765,73.0,80.0,60.0,10.0,0.0
7766,58.0,0.0,7680.0,3.0,0.0
7767,61.0,0.0,7680.0,3.0,0.0
7768,78.0,0.0,10920.0,1.0,0.0
7769,54.0,32.0,180.0,6.0,0.0
7770,66.0,78.0,7440.0,4.0,0.0
7771,90.0,0.0,10920.0,0.0,0.0
7772,54.0,0.0,60.0,12.0,0.0
7773,61.0,48.0,60.0,12.0,0.0
7774,73.0,0.0,60.0,10.0,0.0
7775,66.0,0.0,60.0,10.0,0.0
7776,66.0,0.0,60.0,10.0,0.0
7777,73.0,0.0,60.0,10.0,0.0
7778,54.0,80.0,60.0,12.0,0.0
7779,61.0,0.0,60.0,12.0,0.0
7780,61.0,0.0,60.0,12.0,0.0
7781,54.0,80.0,60.0,12.0,0.0
7782,66.0,0.0,60.0,10.0,0.0
7783,73.0,0.0,60.0,10.0,0.0
7784,54.0,0.0,60.0,12.0,0.0
7785,61.0,0.0,60.0,12.0,0.0
7786,73.0,80.0,60.0,10.0,0.0
7787,66.0,0.0,60.0,10.0,0.0
7788,61.0,0.0,60.0,12.0,0.0
7789,54.0,80.0,60.0,12.0,0.0
7790,73.0,0.0,60.0,10.0,0.0
7791,66.0,0.0,60.0,10.0,0.0
7792,54.0,0.0,60.0,12.0,0.0
7793,61.0,0.0,60.0,12.0,0.0
7794,73.0,0.0,60.0,10.0,0.0
7795,66.0,80.0,60.0,10.0,0.0
7796,66.0,0.0,60.0,10.0,0.0
7797,61.0,80.0,60.0,12.0,0.0
7798,54.0,0.0,60.0,12.0,0.0
7799,73.0,0.0,60.0,10.0,0.0
7800,61.0,0.0,60.0,12.0,0.0
7801,73.0,80.0,60.0,10.0,0.0
7802,54.0,0.0,60.0,12.0,0.0
7803,66.0,0.0,60.0,10.0,0.0
7804,54.0,0.0,60.0,12.0,0.0
7805,61.0,80.0,60.0,12.0,0.0
7806,73.0,0.0,60.0,10.0,0.0
7807,66.0,0.0,60.0,10.0,0.0
7808,66.0,0.0,60.0,10.0,0.0
7809,73.0,80.0,60.0,10.0,0.0
7810,61.0,0.0,60.0,12.0,0.0
7811,54.0,0.0,60.0,12.0,0.0
7812,61.0,0.0,60.0,12.0,0.0
7813,54.0,80.0,60.0,12.0,0.0
7814,66.0,0.0,60.0,10.0,0.0
7815,73.0,0.0,60.0,10.0,0.0
7816,61.0,0.0,60.0,12.0,0.0
7817,54.0,0.0,60.0,12.0,0.0
7818,73.0,80.0,60.0,10.0,0.0
7819,66.0,0.0,60.0,10.0,0.0
7820,54.0,80.0,60.0,12.0,0.0
7821,73.0,0.0,60.0,10.0,0.0
7822,66.0,0.0,60.0,10.0,0.0
7823,61.0,0.0,60.0,12.0,0.0
7824,61.0,0.0,60.0,12.0,0.0
7825,54.0,80.0,60.0,12.0,0.0
7826,66.0,0.0,60.0,10.0,0.0
7827,73.0,0.0,60.0,10.0,0.0
7828,73.0,0.0,60.0,10.0,0.0
7829,66.0,0.0,60.0,10.0,0.0
7830,61.0,80.0,60.0,12.0,0.0
7831,54.0,0.0,60.0,12.0,0.0
7832,61.0,0.0,60.0,12.0,0.0
7833,66.0,0.0,60.0,10.0,0.0
7834,54.0,80.0,60.0,12.0,0.0
7835,73.0,0.0,60.0,10.0,0.0
7836,54.0,0.0,60.0,12.0,0.0
7837,61.0,0.0,60.0,12.0,0.0
7838,66.0,4.0,60.0,10.0,0.0
7839,73.0,0.0,60.0,10.0,0.0
7840,85.0,76.0,60.0,8.0,0.0
7841,78.0,14.0,450.0,8.0,0.0
7842,66.0,0.0,60.0,10.0,0.0
7843,73.0,0.0,60.0,10.0,0.0
7844,61.0,80.0,60.0,12.0,0.0
7845,54.0,0.0,60.0,12.0,0.0
7846,54.0,80.0,60.0,12.0,0.0
7847,66.0,0.0,60.0,10.0,0.0
7848,73.0,0.0,60.0,10.0,0.0
7849,61.0,0.0,60.0,12.0,0.0
7850,54.0,80.0,60.0,12.0,0.0
7851,73.0,0.0,60.0,10.0,0.0
7852,66.0,0.0,60.0,10.0,0.0
7853,61.0,0.0,60.0,12.0,0.0
7854,61.0,80.0,60.0,12.0,0.0
7855,54.0,0.0,60.0,12.0,0.0
7856,73.0,0.0,60.0,10.0,0.0
7857,66.0,0.0,60.0,10.0,0.0
7858,66.0,0.0,60.0,10.0,0.0
7859,73.0,66.0,60.0,10.0,0.0
7860,54.0,0.0,60.0,12.0,0.0
7861,61.0,0.0,60.0,12.0,0.0
7862,73.0,0.0,60.0,10.0,0.0
7863,54.0,0.0,60.0,12.0,0.0
7864,61.0,0.0,60.0,12.0,0.0
7865,66.0,80.0,60.0,10.0,0.0
7866,66.0,0.0,60.0,10.0,0.0
7867,73.0,0.0,60.0,10.0,0.0
7868,54.0,80.0,60.0,12.0,0.0
7869,61.0,0.0,60.0,12.0,0.0
7870,73.0,0.0,60.0,10.0,0.0
7871,54.0,0.0,60.0,12.0,0.0
7872,61.0,80.0,60.0,12.0,0.0
7873,66.0,0.0,60.0,10.0,0.0
7874,73.0,0.0,60.0,10.0,0.0
7875,66.0,0.0,60.0,10.0,0.0
7876,61.0,80.0,60.0,12.0,0.0
7877,54.0,0.0,60.0,12.0,0.0
7878,73.0,0.0,60.0,10.0,0.0
7879,66.0,80.0,60.0,10.0,0.0
7880,54.0,0.0,60.0,12.0,0.0
7881,61.0,0.0,60.0,12.0,0.0
7882,61.0,80.0,60.0,12.0,0.0
7883,54.0,0.0,60.0,12.0,0.0
7884,66.0,0.0,60.0,10.0,0.0
7885,73.0,0.0,60.0,10.0,0.0
7886,61.0,0.0,60.0,12.0,0.0
7887,66.0,0.0,60.0,10.0,0.0
7888,73.0,0.0,60.0,10.0,0.0
7889,54.0,4.0,60.0,12.0,0.0
7890,78.0,76.0,60.0,8.0,0.0
7891,73.0,0.0,390.0,8.0,0.0
7892,54.0,80.0,60.0,12.0,0.0
7893,61.0,0.0,60.0,12.0,0.0
7894,66.0,0.0,60.0,10.0,0.0
7895,73.0,0.0,60.0,10.0,0.0
7896,73.0,0.0,60.0,10.0,0.0
7897,66.0,0.0,60.0,10.0,0.0
7898,61.0,80.0,60.0,12.0,0.0
7899,54.0,0.0,60.0,12.0,0.0
7900,73.0,0.0,60.0,10.0,0.0
7901,66.0,0.0,60.0,10.0,0.0
7902,54.0,80.0,60.0,12.0,0.0
7903,61.0,0.0,60.0,12.0,0.0
7904,61.0,0.0,60.0,12.0,0.0
7905,54.0,80.0,60.0,12.0,0.0
7906,73.0,0.0,60.0,10.0,0.0
7907,66.0,0.0,60.0,10.0,0.0
7908,66.0,0.0,60.0,10.0,0.0
7909,54.0,80.0,60.0,12.0,0.0
7910,61.0,0.0,60.0,12.0,0.0
7911,73.0,0.0,60.0,10.0,0.0
7912,61.0,0.0,60.0,12.0,0.0
7913,54.0,0.0,60.0,12.0,0.0
7914,66.0,0.0,60.0,10.0,0.0
7915,73.0,80.0,60.0,10.0,0.0
7916,73.0,0.0,60.0,10.0,0.0
7917,66.0,0.0,60.0,10.0,0.0
7918,61.0,80.0,60.0,12.0,0.0
7919,54.0,0.0,60.0,12.0,0.0
7920,54.0,80.0,60.0,12.0,0.0
7921,61.0,0.0,60.0,12.0,0.0
7922,66.0,0.0,60.0,10.0,0.0
7923,73.0,0.0,60.0,10.0,0.0
7924,54.0,0.0,60.0,12.0,0.0
7925,61.0,80.0,60.0,12.0,0.0
7926,73.0,0.0,60.0,10.0,0.0
7927,66.0,0.0,60.0,10.0,0.0
7928,61.0,0.0,60.0,12.0,0.0
7929,54.0,80.0,60.0,12.0,0.0
7930,73.0,0.0,60.0,10.0,0.0
7931,66.0,0.0,60.0,10.0,0.0
7932,54.0,0.0,60.0,12.0,0.0
7933,66.0,0.0,60.0,10.0,0.0
7934,73.0,0.0,60.0,10.0,0.0
7935,61.0,80.0,60.0,12.0,0.0
7936,54.0,0.0,60.0,12.0,0.0
7937,66.0,4.0,60.0,10.0,0.0
7938,73.0,0.0,60.0,10.0,0.0
7939,61.0,0.0,60.0,12.0,0.0
7940,49.0,76.0,60.0,13.0,0.0
7941,61.0,0.0,60.0,11.0,0.0
7942,66.0,0.0,60.0,10.0,0.0
7943,73.0,0.0,60.0,10.0,0.0
7944,34.0,0.0,390.0,13.0,0.0
7945,54.0,80.0,60.0,12.0,0.0
7946,61.0,0.0,60.0,12.0,0.0
7947,58.0,0.0,390.0,11.0,0.0
7948,54.0,0.0,60.0,12.0,0.0
7949,66.0,0.0,60.0,10.0,0.0
7950,61.0,0.0,60.0,12.0,0.0
7951,73.0,80.0,60.0,10.0,0.0
7952,61.0,0.0,60.0,12.0,0.0
7953,54.0,80.0,60.0,12.0,0.0
7954,73.0,0.0,60.0,10.0,0.0
7955,66.0,0.0,60.0,10.0,0.0
7956,66.0,80.0,60.0,10.0,0.0
7957,54.0,0.0,60.0,12.0,0.0
7958,61.0,0.0,60.0,12.0,0.0
7959,73.0,0.0,60.0,10.0,0.0
7960,54.0,0.0,60.0,12.0,0.0
7961,61.0,80.0,60.0,12.0,0.0
7962,73.0,0.0,60.0,10.0,0.0
7963,66.0,0.0,60.0,10.0,0.0
7964,66.0,0.0,60.0,10.0,0.0
7965,73.0,0.0,60.0,10.0,0.0
7966,61.0,80.0,60.0,12.0,0.0
7967,54.0,0.0,60.0,12.0,0.0
7968,61.0,0.0,60.0,12.0,0.0
7969,54.0,80.0,60.0,12.0,0.0
7970,54.0,0.0,180.0,6.0,0.0
7971,58.0,32.0,180.0,13.0,0.0
7972,73.0,0.0,60.0,10.0,0.0
7973,66.0,0.0,60.0,10.0,0.0
7974,66.0,0.0,180.0,5.0,0.0
7975,66.0,0.0,60.0,10.0,0.0
7976,61.0,0.0,60.0,12.0,0.0
7977,54.0,0.0,60.0,12.0,0.0
7978,73.0,48.0,60.0,10.0,0.0
7979,66.0,0.0,60.0,10.0,0.0
7980,73.0,80.0,60.0,10.0,0.0
7981,54.0,0.0,60.0,12.0,0.0
7982,61.0,0.0,60.0,12.0,0.0
7983,66.0,0.0,60.0,10.0,0.0
7984,73.0,0.0,60.0,10.0,0.0
7985,54.0,80.0,60.0,12.0,0.0
7986,61.0,0.0,60.0,12.0,0.0
7987,66.0,0.0,60.0,10.0,0.0
7988,73.0,0.0,60.0,10.0,0.0
7989,61.0,80.0,60.0,12.0,0.0
7990,54.0,0.0,60.0,12.0,0.0
7991,73.0,0.0,60.0,10.0,0.0
7992,66.0,0.0,60.0,10.0,0.0
7993,54.0,80.0,60.0,12.0,0.0
7994,61.0,0.0,60.0,12.0,0.0
7995,73.0,0.0,60.0,10.0,0.0
7996,61.0,0.0,60.0,12.0,0.0
7997,54.0,0.0,60.0,12.0,0.0
7998,66.0,80.0,60.0,10.0,0.0
7999,66.0,80.0,60.0,10.0,0.0
8000,73.0,0.0,60.0,10.0,0.0
8001,61.0,0.0,60.0,12.0,0.0
8002,54.0,0.0,60.0,12.0,0.0
8003,66.0,0.0,60.0,10.0,0.0
8004,54.0,0.0,60.0,12.0,0.0
8005,61.0,80.0,60.0,12.0,0.0
8006,73.0,0.0,60.0,10.0,0.0
8007,73.0,0.0,60.0,10.0,0.0
8008,61.0,0.0,60.0,12.0,0.0
8009,54.0,80.0,60.0,12.0,0.0
8010,66.0,0.0,60.0,10.0,0.0
8011,54.0,0.0,60.0,12.0,0.0
8012,61.0,0.0,60.0,12.0,0.0
8013,73.0,80.0,60.0,10.0,0.0
8014,66.0,0.0,60.0,10.0,0.0
8015,73.0,0.0,60.0,10.0,0.0
8016,66.0,0.0,60.0,10.0,0.0
8017,54.0,80.0,60.0,12.0,0.0
8018,61.0,0.0,60.0,12.0,0.0
8019,73.0,0.0,60.0,10.0,0.0
8020,61.0,80.0,60.0,12.0,0.0
8021,54.0,0.0,60.0,12.0,0.0
8022,66.0,0.0,60.0,10.0,0.0
8023,61.0,0.0,60.0,12.0,0.0
8024,54.0,0.0,60.0,12.0,0.0
8025,66.0,80.0,60.0,10.0,0.0
8026,73.0,0.0,60.0,10.0,0.0
8027,66.0,0.0,60.0,10.0,0.0
8028,73.0,0.0,60.0,10.0,0.0
8029,54.0,0.0,60.0,12.0,0.0
8030,61.0,80.0,60.0,12.0,0.0
8031,61.0,0.0,60.0,12.0,0.0
8032,54.0,80.0,60.0,12.0,0.0
8033,73.0,0.0,60.0,10.0,0.0
8034,66.0,0.0,60.0,10.0,0.0
8035,54.0,0.0,60.0,12.0,0.0
8036,61.0,0.0,60.0,12.0,0.0
8037,66.0,0.0,60.0,10.0,0.0
8038,73.0,80.0,60.0,10.0,0.0
8039,73.0,0.0,60.0,10.0,0.0
8040,66.0,0.0,60.0,10.0,0.0
8041,54.0,4.0,60.0,12.0,0.0
8042,61.0,0.0,60.0,12.0,0.0
8043,90.0,76.0,60.0,8.0,0.0
8044,54.0,80.0,60.0,12.0,0.0
8045,61.0,0.0,60.0,12.0,0.0
8046,66.0,0.0,60.0,10.0,0.0
8047,73.0,0.0,60.0,10.0,0.0
8048,85.0,14.0,450.0,8.0,0.0
8049,54.0,0.0,60.0,12.0,0.0
8050,61.0,80.0,60.0,12.0,0.0
8051,73.0,0.0,60.0,10.0,0.0
8052,66.0,0.0,60.0,10.0,0.0
8053,61.0,0.0,60.0,12.0,0.0
8054,54.0,80.0,60.0,12.0,0.0
8055,66.0,0.0,60.0,10.0,0.0
8056,73.0,0.0,60.0,10.0,0.0
8057,73.0,0.0,60.0,10.0,0.0
8058,66.0,0.0,60.0,10.0,0.0
8059,54.0,0.0,60.0,12.0,0.0
8060,61.0,80.0,60.0,12.0,0.0
8061,54.0,0.0,60.0,12.0,0.0
8062,66.0,66.0,60.0,10.0,0.0
8063,73.0,0.0,60.0,10.0,0.0
8064,61.0,0.0,60.0,12.0,0.0
8065,66.0,0.0,60.0,10.0,0.0
8066,54.0,80.0,60.0,12.0,0.0
8067,61.0,0.0,60.0,12.0,0.0
8068,73.0,0.0,60.0,10.0,0.0
8069,66.0,0.0,60.0,10.0,0.0
8070,73.0,0.0,60.0,10.0,0.0
8071,61.0,0.0,60.0,12.0,0.0
8072,54.0,80.0,60.0,12.0,0.0
8073,54.0,80.0,60.0,12.0,0.0
8074,66.0,0.0,60.0,10.0,0.0
8075,61.0,0.0,60.0,12.0,0.0
8076,73.0,0.0,60.0,10.0,0.0
8077,54.0,80.0,60.0,12.0,0.0
8078,61.0,0.0,60.0,12.0,0.0
8079,66.0,0.0,60.0,10.0,0.0
8080,73.0,0.0,60.0,10.0,0.0
8081,66.0,80.0,60.0,10.0,0.0
8082,61.0,0.0,60.0,12.0,0.0
8083,54.0,0.0,60.0,12.0,0.0
8084,73.0,0.0,60.0,10.0,0.0
8085,61.0,0.0,60.0,12.0,0.0
8086,54.0,0.0,60.0,12.0,0.0
8087,73.0,0.0,60.0,10.0,0.0
8088,66.0,80.0,60.0,10.0,0.0
8089,66.0,4.0,60.0,10.0,0.0
8090,73.0,0.0,60.0,10.0,0.0
8091,61.0,0.0,60.0,12.0,0.0
8092,54.0,0.0,60.0,12.0,0.0
8093,85.0,76.0,60.0,8.0,0.0
8094,66.0,0.0,60.0,10.0,0.0
8095,54.0,0.0,60.0,12.0,0.0
8096,78.0,14.0,450.0,8.0,0.0
8097,61.0,80.0,60.0,12.0,0.0
8098,73.0,0.0,60.0,10.0,0.0
8099,66.0,80.0,60.0,10.0,0.0
8100,73.0,0.0,60.0,10.0,0.0
8101,61.0,0.0,60.0,12.0,0.0
8102,54.0,0.0,60.0,12.0,0.0
8103,54.0,0.0,60.0,12.0,0.0
8104,66.0,0.0,60.0,10.0,0.0
8105,73.0,80.0,60.0,10.0,0.0
8106,61.0,0.0,60.0,12.0,0.0
8107,66.0,0.0,60.0,10.0,0.0
8108,54.0,0.0,60.0,12.0,0.0
8109,61.0,0.0,60.0,12.0,0.0
8110,73.0,80.0,60.0,10.0,0.0
8111,54.0,66.0,60.0,12.0,0.0
8112,61.0,0.0,60.0,12.0,0.0
8113,66.0,0.0,60.0,10.0,0.0
8114,73.0,0.0,60.0,10.0,0.0
8115,66.0,80.0,60.0,10.0,0.0
8116,73.0,0.0,60.0,10.0,0.0
8117,61.0,0.0,60.0,12.0,0.0
8118,54.0,0.0,60.0,12.0,0.0
8119,61.0,0.0,60.0,12.0,0.0
8120,54.0,80.0,60.0,12.0,0.0
8121,73.0,0.0,60.0,10.0,0.0
8122,66.0,0.0,60.0,10.0,0.0
8123,61.0,0.0,60.0,12.0,0.0
8124,73.0,80.0,60.0,10.0,0.0
8125,66.0,0.0,60.0,10.0,0.0
8126,54.0,0.0,60.0,12.0,0.0
8127,61.0,0.0,60.0,12.0,0.0
8128,66.0,0.0,60.0,10.0,0.0
8129,73.0,80.0,60.0,10.0,0.0
8130,54.0,0.0,60.0,12.0,0.0
8131,54.0,0.0,60.0,12.0,0.0
8132,66.0,80.0,60.0,10.0,0.0
8133,73.0,0.0,60.0,10.0,0.0
8134,61.0,0.0,60.0,12.0,0.0
8135,66.0,80.0,60.0,10.0,0.0
8136,54.0,0.0,60.0,12.0,0.0
8137,61.0,0.0,60.0,12.0,0.0
8138,73.0,0.0,60.0,10.0,0.0
8139,73.0,0.0,60.0,10.0,0.0
8140,61.0,0.0,60.0,12.0,0.0
8141,66.0,0.0,60.0,10.0,0.0
8142,54.0,4.0,60.0,12.0,0.0
8143,61.0,76.0,60.0,11.0,0.0
8144,49.0,0.0,60.0,13.0,0.0
8145,58.0,0.0,390.0,11.0,0.0
8146,73.0,0.0,60.0,10.0,0.0
8147,34.0,0.0,390.0,13.0,0.0
8148,66.0,0.0,60.0,10.0,0.0
8149,61.0,80.0,60.0,12.0,0.0
8150,54.0,0.0,60.0,12.0,0.0
8151,73.0,80.0,60.0,10.0,0.0
8152,61.0,0.0,60.0,12.0,0.0
8153,54.0,0.0,60.0,12.0,0.0
8154,66.0,0.0,60.0,10.0,0.0
8155,73.0,2.0,60.0,10.0,0.0
8156,66.0,0.0,60.0,10.0,0.0
8157,54.0,0.0,60.0,12.0,0.0
8158,61.0,0.0,60.0,12.0,0.0
8159,66.0,0.0,60.0,10.0,0.0
8160,73.0,0.0,60.0,10.0,0.0
8161,54.0,80.0,60.0,12.0,0.0
8162,61.0,0.0,60.0,12.0,0.0
8163,66.0,0.0,60.0,10.0,0.0
8164,54.0,0.0,60.0,12.0,0.0
8165,61.0,0.0,60.0,12.0,0.0
8166,73.0,80.0,60.0,10.0,0.0
8167,73.0,16.0,60.0,10.0,0.0
8168,61.0,0.0,60.0,12.0,0.0
8169,66.0,0.0,60.0,10.0,0.0
8170,54.0,0.0,60.0,12.0,0.0
8171,54.0,0.0,180.0,6.0,0.0
8172,59.0,0.0,240.0,3.0,0.0
8173,74.0,24.0,3240.0,2.0,0.0
8174,66.0,0.0,180.0,5.0,0.0
8175,35.0,32.0,180.0,13.0,0.0
8176,62.0,0.0,240.0,3.0,0.0
8177,86.0,0.0,3240.0,0.0,0.0
8178,54.0,0.0,60.0,12.0,0.0
8179,66.0,0.0,240.0,4.0,0.0
8180,54.0,78.0,240.0,4.0,0.0
8181,66.0,0.0,60.0,10.0,0.0
8182,74.0,80.0,60.0,10.0,0.0
8183,59.0,0.0,180.0,11.0,0.0
8184,62.0,0.0,60.0,12.0,0.0
8185,71.0,0.0,3240.0,2.0,0.0
8186,66.0,48.0,60.0,10.0,0.0
8187,62.0,0.0,60.0,12.0,0.0
8188,54.0,0.0,60.0,12.0,0.0
8189,74.0,0.0,60.0,10.0,0.0
8190,74.0,0.0,60.0,10.0,0.0
8191,66.0,0.0,60.0,10.0,0.0
8192,54.0,0.0,60.0,12.0,0.0
8193,62.0,2.0,60.0,12.0,0.0
8194,74.0,0.0,60.0,10.0,0.0
8195,66.0,0.0,60.0,10.0,0.0
8196,54.0,0.0,60.0,12.0,0.0
8197,62.0,80.0,60.0,12.0,0.0
8198,74.0,0.0,60.0,10.0,0.0
8199,62.0,0.0,60.0,12.0,0.0
8200,66.0,0.0,60.0,10.0,0.0
8201,54.0,80.0,60.0,12.0,0.0
8202,74.0,0.0,60.0,10.0,0.0
8203,66.0,0.0,60.0,10.0,0.0
8204,54.0,0.0,60.0,12.0,0.0
8205,62.0,4.0,60.0,12.0,0.0
8206,66.0,0.0,60.0,3.0,0.0
8207,54.0,76.0,60.0,3.0,0.0
8208,62.0,80.0,60.0,12.0,0.0
8209,54.0,0.0,60.0,12.0,0.0
8210,47.0,64.0,480.0,3.0,0.0
8211,59.0,64.0,240.0,3.0,0.0
8212,74.0,0.0,60.0,10.0,0.0
8213,66.0,0.0,60.0,10.0,0.0
8214,54.0,0.0,60.0,12.0,0.0
8215,62.0,80.0,60.0,12.0,0.0
8216,66.0,0.0,60.0,10.0,0.0
8217,74.0,0.0,60.0,10.0,0.0
8218,62.0,0.0,60.0,12.0,0.0
8219,74.0,0.0,60.0,10.0,0.0
8220,66.0,0.0,60.0,10.0,0.0
8221,54.0,16.0,60.0,12.0,0.0
8222,62.0,0.0,60.0,12.0,0.0
8223,66.0,0.0,60.0,10.0,0.0
8224,54.0,80.0,60.0,12.0,0.0
8225,74.0,0.0,60.0,10.0,0.0
8226,74.0,0.0,60.0,10.0,0.0
8227,54.0,0.0,60.0,12.0,0.0
8228,62.0,24.0,60.0,12.0,0.0
8229,66.0,0.0,60.0,10.0,0.0
8230,90.0,56.0,60.0,8.0,0.0
8231,78.0,0.0,60.0,11.0,0.0
8232,54.0,0.0,60.0,12.0,0.0
8233,62.0,16.0,60.0,12.0,0.0
8234,66.0,0.0,60.0,10.0,0.0
8235,74.0,0.0,60.0,10.0,0.0
8236,71.0,0.0,180.0,11.0,0.0
8237,83.0,12.0,180.0,8.0,0.0
8238,59.0,0.0,480.0,3.0,0.0
8239,54.0,32.0,180.0,6.0,0.0
8240,54.0,0.0,60.0,12.0,0.0
8241,74.0,0.0,60.0,10.0,0.0
8242,66.0,0.0,60.0,10.0,0.0
8243,66.0,0.0,180.0,5.0,0.0
8244,62.0,68.0,60.0,12.0,0.0
8245,66.0,0.0,60.0,10.0,0.0
8246,62.0,0.0,60.0,12.0,0.0
8247,54.0,48.0,60.0,12.0,0.0
8248,74.0,0.0,60.0,10.0,0.0
8249,74.0,0.0,60.0,10.0,0.0
8250,66.0,0.0,60.0,10.0,0.0
8251,54.0,0.0,60.0,12.0,0.0
8252,62.0,80.0,60.0,12.0,0.0
8253,66.0,0.0,60.0,10.0,0.0
8254,54.0,0.0,60.0,12.0,0.0
8255,74.0,0.0,60.0,10.0,0.0
8256,62.0,80.0,60.0,12.0,0.0
8257,74.0,0.0,60.0,10.0,0.0
8258,62.0,0.0,60.0,12.0,0.0
8259,54.0,0.0,60.0,12.0,0.0
8260,66.0,18.0,60.0,10.0,0.0
8261,42.0,36.0,30.0,13.0,0.0
8262,66.0,24.0,60.0,11.0,0.0
8263,78.0,0.0,60.0,8.0,0.0
8264,54.0,0.0,60.0,12.0,0.0
8265,62.0,0.0,60.0,12.0,0.0
8266,74.0,4.0,60.0,10.0,0.0
8267,66.0,0.0,60.0,10.0,0.0
8268,54.0,66.0,60.0,4.0,0.0
8269,66.0,0.0,60.0,4.0,0.0
8270,66.0,10.0,60.0,3.0,0.0
8271,38.0,2.0,30.0,13.0,0.0
8272,66.0,14.0,450.0,4.0,0.0
8273,54.0,0.0,450.0,4.0,0.0
8274,54.0,0.0,60.0,12.0,0.0
8275,74.0,0.0,60.0,10.0,0.0
8276,74.0,0.0,180.0,8.0,0.0
8277,35.0,32.0,180.0,13.0,0.0
8278,62.0,0.0,870.0,3.0,0.0
8279,66.0,80.0,60.0,10.0,0.0
8280,62.0,0.0,180.0,11.0,0.0
8281,62.0,0.0,60.0,12.0,0.0
8282,66.0,0.0,60.0,10.0,0.0
8283,74.0,0.0,60.0,10.0,0.0
8284,54.0,48.0,60.0,12.0,0.0
8285,62.0,0.0,60.0,12.0,0.0
8286,54.0,0.0,60.0,12.0,0.0
8287,62.0,0.0,60.0,12.0,0.0
8288,66.0,0.0,60.0,10.0,0.0
8289,74.0,80.0,60.0,10.0,0.0
8290,66.0,80.0,60.0,10.0,0.0
8291,71.0,18.0,180.0,8.0,0.0
8292,59.0,0.0,180.0,11.0,0.0
8293,62.0,0.0,60.0,12.0,0.0
8294,74.0,0.0,60.0,10.0,0.0
8295,54.0,0.0,60.0,12.0,0.0
8296,74.0,0.0,60.0,10.0,0.0
8297,66.0,48.0,60.0,10.0,0.0
8298,62.0,0.0,60.0,12.0,0.0
8299,54.0,0.0,60.0,12.0,0.0
8300,66.0,0.0,60.0,10.0,0.0
8301,62.0,0.0,60.0,12.0,0.0
8302,54.0,0.0,60.0,12.0,0.0
8303,74.0,80.0,60.0,10.0,0.0
8304,74.0,0.0,60.0,10.0,0.0
8305,66.0,32.0,180.0,5.0,0.0
8306,66.0,80.0,60.0,10.0,0.0
8307,62.0,0.0,60.0,12.0,0.0
8308,54.0,0.0,180.0,6.0,0.0
8309,54.0,0.0,60.0,12.0,0.0
8310,66.0,48.0,60.0,10.0,0.0
8311,74.0,0.0,60.0,10.0,0.0
8312,62.0,0.0,60.0,12.0,0.0
8313,54.0,0.0,60.0,12.0,0.0
8314,62.0,80.0,60.0,12.0,0.0
8315,54.0,0.0,60.0,12.0,0.0
8316,66.0,0.0,60.0,10.0,0.0
8317,74.0,0.0,60.0,10.0,0.0
8318,62.0,0.0,180.0,11.0,0.0
8319,66.0,0.0,60.0,10.0,0.0
8320,54.0,0.0,60.0,12.0,0.0
8321,74.0,0.0,60.0,10.0,0.0
8322,74.0,32.0,180.0,8.0,0.0
8323,62.0,80.0,60.0,12.0,0.0
8324,62.0,0.0,60.0,12.0,0.0
8325,54.0,48.0,60.0,12.0,0.0
8326,66.0,0.0,60.0,10.0,0.0
8327,74.0,0.0,60.0,10.0,0.0
8328,66.0,0.0,60.0,10.0,0.0
8329,74.0,4.0,60.0,10.0,0.0
8330,54.0,0.0,60.0,12.0,0.0
8331,62.0,0.0,60.0,12.0,0.0
8332,59.0,76.0,60.0,3.0,0.0
8333,54.0,48.0,330.0,3.0,0.0
8334,74.0,0.0,60.0,10.0,0.0
8335,54.0,0.0,60.0,12.0,0.0
8336,62.0,80.0,60.0,12.0,0.0
8337,66.0,0.0,60.0,10.0,0.0
8338,74.0,80.0,60.0,10.0,0.0
8339,54.0,0.0,60.0,12.0,0.0
8340,66.0,0.0,60.0,10.0,0.0
8341,62.0,0.0,60.0,12.0,0.0
8342,54.0,0.0,60.0,12.0,0.0
8343,74.0,80.0,60.0,10.0,0.0
8344,66.0,0.0,60.0,10.0,0.0
8345,62.0,0.0,60.0,12.0,0.0
8346,74.0,0.0,60.0,10.0,0.0
8347,66.0,32.0,60.0,10.0,0.0
8348,78.0,0.0,180.0,8.0,0.0
8349,62.0,0.0,60.0,12.0,0.0
8350,54.0,0.0,60.0,12.0,0.0
8351,66.0,32.0,180.0,11.0,0.0
8352,66.0,0.0,60.0,10.0,0.0
8353,74.0,48.0,60.0,10.0,0.0
8354,62.0,0.0,60.0,12.0,0.0
8355,54.0,0.0,60.0,12.0,0.0
8356,54.0,0.0,60.0,12.0,0.0
8357,74.0,0.0,60.0,10.0,0.0
8358,62.0,0.0,60.0,12.0,0.0
8359,66.0,4.0,60.0,10.0,0.0
8360,50.0,76.0,60.0,3.0,0.0
8361,54.0,0.0,60.0,12.0,0.0
8362,62.0,80.0,60.0,12.0,0.0
8363,74.0,0.0,60.0,10.0,0.0
8364,47.0,0.0,180.0,3.0,0.0
8365,66.0,0.0,60.0,10.0,0.0
8366,54.0,0.0,180.0,6.0,0.0
8367,66.0,32.0,180.0,5.0,0.0
8368,74.0,0.0,60.0,10.0,0.0
8369,66.0,0.0,60.0,10.0,0.0
8370,62.0,48.0,60.0,12.0,0.0
8371,54.0,0.0,60.0,12.0,0.0
8372,54.0,0.0,60.0,12.0,0.0
8373,62.0,0.0,60.0,12.0,0.0
8374,74.0,80.0,60.0,10.0,0.0
8375,66.0,0.0,60.0,10.0,0.0
8376,54.0,56.0,60.0,12.0,0.0
8377,66.0,0.0,60.0,10.0,0.0
8378,74.0,0.0,60.0,10.0,0.0
8379,83.0,30.0,180.0,8.0,0.0
8380,62.0,0.0,2160.0,3.0,0.0
8381,71.0,0.0,180.0,11.0,0.0
8382,62.0,0.0,60.0,12.0,0.0
8383,66.0,0.0,60.0,10.0,0.0
8384,74.0,0.0,60.0,10.0,0.0
8385,62.0,0.0,60.0,12.0,0.0
8386,54.0,18.0,60.0,12.0,0.0
8387,42.0,30.0,30.0,13.0,0.0
8388,54.0,4.0,60.0,12.0,0.0
8389,62.0,0.0,60.0,12.0,0.0
8390,74.0,0.0,60.0,10.0,0.0
8391,66.0,0.0,60.0,10.0,0.0
8392,90.0,10.0,60.0,0.0,0.0
8393,38.0,2.0,30.0,13.0,0.0
8394,83.0,0.0,60.0,2.0,0.0
8395,66.0,66.0,60.0,4.0,0.0
8396,86.0,0.0,60.0,1.0,0.0
8397,54.0,0.0,60.0,4.0,0.0
8398,59.0,64.0,1920.0,3.0,0.0
8399,62.0,0.0,60.0,12.0,0.0
8400,86.0,48.0,810.0,0.0,0.0
8401,54.0,0.0,60.0,12.0,0.0
8402,83.0,0.0,810.0,1.0,0.0
8403,66.0,0.0,450.0,4.0,0.0
8404,54.0,14.0,450.0,4.0,0.0
8405,78.0,0.0,810.0,2.0,0.0
8406,35.0,32.0,180.0,13.0,0.0
8407,74.0,80.0,60.0,10.0,0.0
8408,66.0,0.0,60.0,10.0,0.0
8409,62.0,0.0,60.0,12.0,0.0
8410,54.0,0.0,60.0,12.0,0.0
8411,66.0,48.0,60.0,10.0,0.0
8412,62.0,0.0,60.0,10.0,0.0
8413,66.0,0.0,60.0,10.0,0.0
8414,54.0,80.0,60.0,12.0,0.0
8415,62.0,0.0,60.0,12.0,0.0
8416,62.0,0.0,60.0,10.0,0.0
8417,62.0,0.0,60.0,12.0,0.0
8418,54.0,0.0,60.0,12.0,0.0
8419,62.0,0.0,180.0,11.0,0.0
8420,62.0,0.0,60.0,10.0,0.0
8421,66.0,80.0,60.0,10.0,0.0
8422,74.0,18.0,180.0,8.0,0.0
8423,66.0,48.0,60.0,10.0,0.0
8424,62.0,0.0,60.0,10.0,0.0
8425,54.0,0.0,60.0,12.0,0.0
8426,62.0,0.0,60.0,12.0,0.0
8427,62.0,0.0,60.0,12.0,0.0
8428,62.0,80.0,60.0,10.0,0.0
8429,66.0,0.0,60.0,10.0,0.0
8430,54.0,0.0,60.0,12.0,0.0
8431,66.0,0.0,180.0,5.0,0.0
8432,54.0,0.0,60.0,12.0,0.0
8433,62.0,80.0,60.0,12.0,0.0
8434,54.0,32.0,180.0,6.0,0.0
8435,66.0,0.0,60.0,10.0,0.0
8436,62.0,0.0,60.0,10.0,0.0
8437,62.0,0.0,60.0,12.0,0.0
8438,66.0,0.0,60.0,10.0,0.0
8439,62.0,48.0,60.0,10.0,0.0
8440,54.0,0.0,60.0,12.0,0.0
8441,62.0,0.0,60.0,12.0,0.0
8442,54.0,0.0,60.0,12.0,0.0
8443,66.0,0.0,60.0,10.0,0.0
8444,62.0,80.0,60.0,10.0,0.0
8445,66.0,0.0,60.0,10.0,0.0
8446,62.0,0.0,60.0,10.0,0.0
8447,78.0,32.0,180.0,8.0,0.0
8448,54.0,32.0,60.0,12.0,0.0
8449,62.0,0.0,60.0,12.0,0.0
8450,66.0,0.0,180.0,11.0,0.0
8451,62.0,0.0,60.0,12.0,0.0
8452,62.0,0.0,60.0,10.0,0.0
8453,66.0,0.0,60.0,10.0,0.0
8454,54.0,48.0,60.0,12.0,0.0
8455,62.0,0.0,60.0,12.0,0.0
8456,54.0,0.0,60.0,12.0,0.0
8457,66.0,14.0,60.0,10.0,0.0
8458,62.0,0.0,60.0,10.0,0.0
8459,83.0,0.0,60.0,0.0,0.0
8460,74.0,66.0,60.0,2.0,0.0
8461,78.0,0.0,60.0,1.0,0.0
8462,71.0,0.0,330.0,2.0,0.0
8463,74.0,48.0,330.0,1.0,0.0
8464,54.0,0.0,60.0,12.0,0.0
8465,66.0,0.0,60.0,10.0,0.0
8466,62.0,0.0,60.0,10.0,0.0
8467,62.0,80.0,60.0,12.0,0.0
8468,78.0,0.0,330.0,0.0,0.0
8469,66.0,0.0,60.0,10.0,0.0
8470,54.0,80.0,60.0,12.0,0.0
8471,62.0,0.0,60.0,10.0,0.0
8472,62.0,0.0,60.0,12.0,0.0
8473,62.0,0.0,60.0,10.0,0.0
8474,62.0,80.0,60.0,12.0,0.0
8475,54.0,0.0,60.0,12.0,0.0
8476,66.0,0.0,60.0,10.0,0.0
8477,83.0,0.0,180.0,8.0,0.0
8478,54.0,0.0,60.0,12.0,0.0
8479,71.0,32.0,180.0,11.0,0.0
8480,62.0,32.0,60.0,12.0,0.0
8481,66.0,0.0,60.0,10.0,0.0
8482,62.0,0.0,60.0,10.0,0.0
8483,66.0,0.0,60.0,10.0,0.0
8484,54.0,0.0,60.0,12.0,0.0
8485,62.0,0.0,60.0,12.0,0.0
8486,62.0,48.0,60.0,10.0,0.0
8487,54.0,0.0,60.0,12.0,0.0
8488,66.0,0.0,60.0,10.0,0.0
8489,62.0,0.0,60.0,10.0,0.0
8490,62.0,14.0,60.0,12.0,0.0
8491,78.0,66.0,60.0,2.0,0.0
8492,83.0,0.0,60.0,1.0,0.0
8493,86.0,0.0,60.0,0.0,0.0
8494,62.0,0.0,60.0,12.0,0.0
8495,66.0,0.0,180.0,5.0,0.0
8496,54.0,32.0,180.0,6.0,0.0
8497,54.0,80.0,60.0,12.0,0.0
8498,62.0,0.0,60.0,10.0,0.0
8499,83.0,48.0,330.0,0.0,0.0
8500,66.0,0.0,60.0,10.0,0.0
8501,74.0,0.0,330.0,2.0,0.0
8502,78.0,0.0,330.0,1.0,0.0
8503,66.0,0.0,60.0,10.0,0.0
8504,62.0,0.0,60.0,10.0,0.0
8505,62.0,48.0,60.0,12.0,0.0
8506,54.0,0.0,60.0,12.0,0.0
8507,62.0,0.0,60.0,10.0,0.0
8508,62.0,80.0,60.0,12.0,0.0
8509,66.0,0.0,60.0,10.0,0.0
8510,54.0,0.0,60.0,12.0,0.0
8511,78.0,0.0,180.0,11.0,0.0
8512,62.0,0.0,60.0,12.0,0.0
8513,66.0,0.0,60.0,10.0,0.0
8514,90.0,30.0,180.0,8.0,0.0
8515,74.0,0.0,60.0,10.0,0.0
8516,54.0,32.0,60.0,12.0,0.0
8517,66.0,0.0,60.0,10.0,0.0
8518,54.0,0.0,60.0,12.0,0.0
8519,62.0,18.0,60.0,12.0,0.0
8520,74.0,0.0,60.0,10.0,0.0
8521,50.0,30.0,30.0,13.0,0.0
8522,62.0,14.0,60.0,12.0,0.0
8523,54.0,0.0,60.0,12.0,0.0
8524,66.0,0.0,60.0,10.0,0.0
8525,74.0,0.0,60.0,10.0,0.0
8526,66.0,0.0,60.0,4.0,0.0
8527,47.0,2.0,30.0,13.0,0.0
8528,54.0,2.0,60.0,4.0,0.0
8529,78.0,0.0,60.0,2.0,0.0
8530,70.0,0.0,60.0,10.0,0.0
8531,54.0,80.0,60.0,12.0,0.0
8532,76.0,0.0,480.0,1.0,0.0
8533,76.0,0.0,60.0,10.0,0.0
8534,61.0,0.0,60.0,12.0,0.0
8535,54.0,14.0,450.0,4.0,0.0
8536,64.0,48.0,870.0,3.0,0.0
8537,88.0,0.0,870.0,0.0,0.0
8538,61.0,0.0,480.0,3.0,0.0
8539,76.0,0.0,870.0,2.0,0.0
8540,42.0,32.0,180.0,13.0,0.0
8541,66.0,0.0,450.0,4.0,0.0
8542,61.0,0.0,60.0,12.0,0.0
8543,54.0,0.0,60.0,12.0,0.0
8544,76.0,48.0,60.0,10.0,0.0
8545,70.0,0.0,60.0,10.0,0.0
8546,61.0,0.0,60.0,12.0,0.0
8547,54.0,0.0,60.0,12.0,0.0
8548,70.0,80.0,60.0,10.0,0.0
8549,76.0,0.0,60.0,10.0,0.0
8550,70.0,0.0,180.0,8.0,0.0
8551,54.0,0.0,60.0,12.0,0.0
8552,70.0,0.0,60.0,10.0,0.0
8553,58.0,18.0,180.0,11.0,0.0
8554,76.0,0.0,60.0,10.0,0.0
8555,61.0,80.0,60.0,12.0,0.0
8556,70.0,0.0,60.0,10.0,0.0
8557,54.0,0.0,60.0,12.0,0.0
8558,61.0,0.0,60.0,12.0,0.0
8559,76.0,48.0,60.0,10.0,0.0
8560,70.0,0.0,60.0,10.0,0.0
8561,76.0,16.0,60.0,10.0,0.0
8562,61.0,0.0,60.0,12.0,0.0
8563,54.0,0.0,60.0,12.0,0.0
8564,54.0,0.0,60.0,12.0,0.0
8565,61.0,80.0,60.0,12.0,0.0
8566,54.0,32.0,180.0,6.0,0.0
8567,73.0,0.0,15.0,2.0,0.0
8568,76.0,0.0,60.0,10.0,0.0
8569,70.0,0.0,60.0,10.0,0.0
8570,66.0,0.0,180.0,5.0,0.0
8571,85.0,64.0,15.0,0.0,0.0
8572,61.0,0.0,60.0,12.0,0.0
8573,54.0,48.0,60.0,12.0,0.0
8574,76.0,0.0,60.0,10.0,0.0
8575,70.0,0.0,60.0,10.0,0.0
8576,76.0,0.0,60.0,10.0,0.0
8577,70.0,80.0,60.0,10.0,0.0
8578,54.0,0.0,60.0,12.0,0.0
8579,61.0,0.0,60.0,12.0,0.0
8580,61.0,0.0,60.0,12.0,0.0
8581,61.0,32.0,180.0,11.0,0.0
8582,70.0,80.0,60.0,10.0,0.0
8583,73.0,0.0,180.0,8.0,0.0
8584,76.0,0.0,60.0,10.0,0.0
8585,54.0,0.0,60.0,12.0,0.0
8586,76.0,0.0,60.0,10.0,0.0
8587,61.0,0.0,60.0,12.0,0.0
8588,54.0,0.0,60.0,12.0,0.0
8589,70.0,0.0,60.0,10.0,0.0
8590,70.0,0.0,60.0,10.0,0.0
8591,76.0,0.0,60.0,10.0,0.0
8592,54.0,4.0,60.0,12.0,0.0
8593,61.0,0.0,60.0,12.0,0.0
8594,61.0,12.0,60.0,3.0,0.0
8595,85.0,0.0,60.0,0.0,0.0
8596,73.0,0.0,60.0,2.0,0.0
8597,85.0,0.0,60.0,1.0,0.0
8598,76.0,64.0,15.0,1.0,0.0
8599,70.0,0.0,60.0,10.0,0.0
8600,76.0,0.0,60.0,10.0,0.0
8601,85.0,0.0,15.0,0.0,0.0
8602,58.0,0.0,330.0,3.0,0.0
8603,61.0,0.0,15.0,3.0,0.0
8604,70.0,0.0,330.0,2.0,0.0
8605,73.0,0.0,15.0,2.0,0.0
8606,54.0,80.0,60.0,12.0,0.0
8607,61.0,0.0,60.0,12.0,0.0
8608,82.0,0.0,330.0,0.0,0.0
8609,82.0,48.0,330.0,1.0,0.0
8610,54.0,0.0,60.0,12.0,0.0
8611,70.0,80.0,60.0,10.0,0.0
8612,76.0,0.0,60.0,10.0,0.0
8613,61.0,0.0,60.0,12.0,0.0
8614,76.0,0.0,60.0,10.0,0.0
8615,70.0,0.0,60.0,10.0,0.0
8616,54.0,0.0,60.0,12.0,0.0
8617,61.0,80.0,60.0,12.0,0.0
8618,54.0,0.0,60.0,12.0,0.0
8619,61.0,0.0,60.0,12.0,0.0
8620,76.0,0.0,180.0,8.0,0.0
8621,70.0,32.0,60.0,10.0,0.0
8622,76.0,0.0,60.0,10.0,0.0
8623,64.0,32.0,180.0,11.0,0.0
8624,54.0,0.0,60.0,12.0,0.0
8625,76.0,48.0,60.0,10.0,0.0
8626,61.0,0.0,60.0,12.0,0.0
8627,70.0,0.0,60.0,10.0,0.0
8628,54.0,4.0,60.0,12.0,0.0
8629,61.0,0.0,60.0,12.0,0.0
8630,76.0,0.0,60.0,10.0,0.0
8631,70.0,0.0,60.0,10.0,0.0
8632,54.0,0.0,60.0,3.0,0.0
8633,66.0,0.0,60.0,2.0,0.0
8634,78.0,0.0,60.0,1.0,0.0
8635,78.0,12.0,60.0,0.0,0.0
8636,70.0,0.0,60.0,10.0,0.0
8637,64.0,0.0,330.0,2.0,0.0
8638,73.0,64.0,15.0,2.0,0.0
8639,54.0,0.0,60.0,12.0,0.0
8640,61.0,0.0,60.0,12.0,0.0
8641,66.0,32.0,180.0,5.0,0.0
8642,76.0,56.0,60.0,10.0,0.0
8643,85.0,0.0,15.0,0.0,0.0
8644,76.0,0.0,330.0,0.0,0.0
8645,76.0,48.0,330.0,1.0,0.0
8646,52.0,24.0,120.0,3.0,0.0
8647,54.0,0.0,180.0,6.0,0.0
8648,61.0,0.0,480.0,3.0,0.0
8649,70.0,0.0,60.0,10.0,0.0
8650,76.0,0.0,60.0,10.0,0.0
8651,54.0,48.0,60.0,12.0,0.0
8652,61.0,0.0,60.0,12.0,0.0
8653,76.0,0.0,60.0,10.0,0.0
8654,61.0,0.0,60.0,12.0,0.0
8655,54.0,0.0,60.0,12.0,0.0
8656,70.0,80.0,60.0,10.0,0.0
8657,76.0,0.0,60.0,10.0,0.0
8658,70.0,0.0,60.0,10.0,0.0
8659,78.0,30.0,180.0,8.0,0.0
8660,54.0,32.0,60.0,12.0,0.0
8661,61.0,0.0,60.0,12.0,0.0
8662,66.0,0.0,180.0,11.0,0.0
8663,54.0,0.0,60.0,12.0,0.0
8664,61.0,0.0,60.0,12.0,0.0
8665,76.0,0.0,60.0,10.0,0.0
8666,70.0,18.0,60.0,10.0,0.0
8667,40.0,30.0,30.0,13.0,0.0
8668,70.0,0.0,60.0,10.0,0.0
8669,61.0,0.0,60.0,12.0,0.0
8670,54.0,4.0,60.0,12.0,0.0
8671,76.0,0.0,60.0,10.0,0.0
8672,91.0,10.0,60.0,0.0,0.0
8673,54.0,0.0,60.0,4.0,0.0
8674,79.0,0.0,60.0,2.0,0.0
8675,66.0,2.0,60.0,4.0,0.0
8676,37.0,2.0,30.0,13.0,0.0
8677,73.0,0.0,15.0,2.0,0.0
8678,64.0,0.0,15.0,3.0,0.0
8679,78.0,0.0,240.0,2.0,0.0
8680,34.0,32.0,180.0,13.0,0.0
8681,85.0,64.0,15.0,0.0,0.0
8682,76.0,0.0,60.0,10.0,0.0
8683,66.0,14.0,450.0,4.0,0.0
8684,54.0,0.0,450.0,4.0,0.0
8685,90.0,64.0,240.0,0.0,0.0
8686,61.0,0.0,60.0,12.0,0.0
8687,58.0,80.0,60.0,12.0,0.0
8688,73.0,0.0,60.0,10.0,0.0
8689,58.0,48.0,60.0,12.0,0.0
8690,76.0,0.0,60.0,10.0,0.0
8691,73.0,0.0,60.0,10.0,0.0
8692,61.0,0.0,60.0,12.0,0.0
8693,73.0,0.0,60.0,10.0,0.0
8694,76.0,16.0,60.0,10.0,0.0
8695,61.0,0.0,60.0,12.0,0.0
8696,58.0,0.0,60.0,12.0,0.0
8697,58.0,0.0,60.0,12.0,0.0
8698,79.0,0.0,240.0,1.0,0.0
8699,66.0,18.0,180.0,11.0,0.0
8700,76.0,0.0,60.0,10.0,0.0
8701,73.0,80.0,60.0,10.0,0.0
8702,78.0,0.0,180.0,8.0,0.0
8703,76.0,48.0,570.0,2.0,0.0
8704,61.0,0.0,60.0,12.0,0.0
8705,88.0,0.0,570.0,0.0,0.0
8706,76.0,0.0,60.0,10.0,0.0
8707,58.0,0.0,60.0,12.0,0.0
8708,61.0,0.0,60.0,12.0,0.0
8709,73.0,48.0,60.0,10.0,0.0
8710,76.0,16.0,60.0,10.0,0.0
8711,61.0,0.0,60.0,12.0,0.0
8712,58.0,0.0,60.0,12.0,0.0
8713,73.0,0.0,60.0,10.0,0.0
8714,61.0,0.0,15.0,3.0,0.0
8715,54.0,0.0,180.0,6.0,0.0
8716,76.0,0.0,15.0,1.0,0.0
8717,78.0,64.0,240.0,1.0,0.0
8718,73.0,0.0,15.0,2.0,0.0
8719,76.0,0.0,60.0,10.0,0.0
8720,66.0,32.0,180.0,5.0,0.0
8721,61.0,0.0,60.0,12.0,0.0
8722,58.0,0.0,60.0,12.0,0.0
8723,73.0,80.0,60.0,10.0,0.0
8724,85.0,64.0,15.0,0.0,0.0
8725,76.0,0.0,60.0,10.0,0.0
8726,73.0,0.0,60.0,10.0,0.0
8727,61.0,48.0,60.0,12.0,0.0
8728,58.0,0.0,60.0,12.0,0.0
8729,58.0,0.0,60.0,12.0,0.0
8730,61.0,16.0,60.0,12.0,0.0
8731,73.0,0.0,60.0,10.0,0.0
8732,76.0,0.0,60.0,10.0,0.0
8733,73.0,0.0,60.0,10.0,0.0
8734,61.0,32.0,60.0,12.0,0.0
8735,58.0,0.0,60.0,12.0,0.0
8736,85.0,32.0,180.0,8.0,0.0
8737,76.0,0.0,60.0,10.0,0.0
8738,73.0,0.0,180.0,11.0,0.0
8739,73.0,0.0,60.0,10.0,0.0
8740,58.0,0.0,60.0,12.0,0.0
8741,61.0,48.0,60.0,12.0,0.0
8742,76.0,0.0,60.0,10.0,0.0
8743,58.0,0.0,60.0,12.0,0.0
8744,73.0,0.0,60.0,10.0,0.0
8745,61.0,0.0,60.0,12.0,0.0
8746,76.0,4.0,60.0,10.0,0.0
8747,73.0,0.0,60.0,2.0,0.0
8748,85.0,12.0,60.0,0.0,0.0
8749,58.0,0.0,60.0,12.0,0.0
8750,76.0,80.0,60.0,10.0,0.0
8751,73.0,0.0,60.0,10.0,0.0
8752,61.0,0.0,60.0,12.0,0.0
8753,85.0,0.0,480.0,0.0,0.0
8754,70.0,48.0,330.0,2.0,0.0
8755,64.0,0.0,960.0,3.0,0.0
8756,73.0,64.0,15.0,2.0,0.0
8757,82.0,0.0,330.0,1.0,0.0
8758,76.0,0.0,15.0,1.0,0.0
8759,82.0,0.0,330.0,0.0,0.0
8760,76.0,0.0,60.0,10.0,0.0
8761,73.0,80.0,60.0,10.0,0.0
8762,58.0,0.0,60.0,12.0,0.0
8763,61.0,0.0,60.0,12.0,0.0
8764,61.0,0.0,60.0,12.0,0.0
8765,58.0,0.0,60.0,12.0,0.0
8766,73.0,0.0,60.0,10.0,0.0
8767,76.0,80.0,60.0,10.0,0.0
8768,76.0,32.0,180.0,11.0,0.0
8769,88.0,0.0,180.0,8.0,0.0
8770,76.0,0.0,60.0,10.0,0.0
8771,61.0,0.0,60.0,12.0,0.0
8772,73.0,0.0,60.0,10.0,0.0
8773,58.0,32.0,60.0,12.0,0.0
8774,73.0,0.0,60.0,10.0,0.0
8775,76.0,0.0,60.0,10.0,0.0
8776,61.0,0.0,60.0,12.0,0.0
8777,58.0,48.0,60.0,12.0,0.0
8778,61.0,4.0,60.0,12.0,0.0
8779,58.0,0.0,60.0,12.0,0.0
8780,73.0,0.0,60.0,10.0,0.0
8781,76.0,0.0,60.0,10.0,0.0
8782,66.0,0.0,60.0,2.0,0.0
8783,78.0,0.0,60.0,1.0,0.0
8784,90.0,12.0,60.0,0.0,0.0
8785,88.0,0.0,330.0,0.0,0.0
8786,73.0,0.0,60.0,10.0,0.0
8787,76.0,0.0,60.0,10.0,0.0
8788,61.0,0.0,15.0,3.0,0.0
8789,54.0,0.0,180.0,6.0,0.0
8790,73.0,64.0,15.0,2.0,0.0
8791,76.0,0.0,15.0,1.0,0.0
8792,64.0,0.0,330.0,2.0,0.0
8793,61.0,80.0,60.0,12.0,0.0
8794,66.0,32.0,180.0,5.0,0.0
8795,58.0,0.0,60.0,12.0,0.0
8796,76.0,48.0,60.0,10.0,0.0
8797,61.0,0.0,60.0,12.0,0.0
8798,58.0,0.0,60.0,12.0,0.0
8799,73.0,0.0,60.0,10.0,0.0
8800,76.0,0.0,60.0,10.0,0.0
8801,73.0,0.0,60.0,10.0,0.0
8802,61.0,0.0,60.0,12.0,0.0
8803,58.0,80.0,60.0,12.0,0.0
8804,76.0,38.0,60.0,10.0,0.0
8805,73.0,0.0,60.0,10.0,0.0
8806,58.0,0.0,60.0,12.0,0.0
8807,61.0,0.0,60.0,12.0,0.0
8808,76.0,0.0,60.0,10.0,0.0
8809,58.0,24.0,60.0,12.0,0.0
8810,73.0,0.0,60.0,10.0,0.0
8811,61.0,0.0,60.0,12.0,0.0
8812,85.0,0.0,60.0,0.0,0.0
8813,61.0,12.0,60.0,11.0,0.0
8814,37.0,0.0,60.0,13.0,0.0
8815,73.0,0.0,60.0,8.0,0.0
8816,61.0,44.0,60.0,2.0,0.0
8817,73.0,0.0,60.0,1.0,0.0
8818,61.0,4.0,60.0,12.0,0.0
8819,58.0,0.0,60.0,12.0,0.0
8820,73.0,0.0,60.0,10.0,0.0
8821,76.0,0.0,60.0,10.0,0.0
8822,34.0,0.0,60.0,13.0,0.0
8823,82.0,48.0,60.0,0.0,0.0
8824,58.0,0.0,60.0,11.0,0.0
8825,70.0,0.0,60.0,1.0,0.0
8826,58.0,0.0,60.0,2.0,0.0
8827,54.0,0.0,60.0,4.0,0.0
8828,66.0,2.0,60.0,4.0,0.0
8829,70.0,10.0,60.0,8.0,0.0
8830,64.0,12.0,570.0,4.0,0.0
8831,64.0,0.0,180.0,8.0,0.0
8832,49.0,0.0,180.0,6.0,0.0
8833,67.0,0.0,60.0,10.0,0.0
8834,76.0,60.0,60.0,10.0,0.0
8835,64.0,36.0,180.0,2.0,0.0
8836,40.0,0.0,450.0,13.0,0.0
8837,76.0,0.0,180.0,1.0,0.0
8838,52.0,0.0,180.0,3.0,0.0
8839,52.0,18.0,450.0,11.0,0.0
8840,61.0,0.0,60.0,12.0,0.0
8841,76.0,0.0,180.0,0.0,0.0
8842,58.0,0.0,60.0,12.0,0.0
8843,61.0,0.0,60.0,12.0,0.0
8844,76.0,0.0,60.0,10.0,0.0
8845,58.0,0.0,60.0,12.0,0.0
8846,67.0,0.0,60.0,10.0,0.0
8847,61.0,0.0,60.0,12.0,0.0
8848,58.0,0.0,60.0,12.0,0.0
8849,76.0,0.0,60.0,10.0,0.0
8850,67.0,24.0,60.0,10.0,0.0
8851,67.0,0.0,60.0,10.0,0.0
8852,58.0,0.0,60.0,12.0,0.0
8853,61.0,60.0,60.0,12.0,0.0
8854,76.0,0.0,60.0,10.0,0.0
8855,88.0,0.0,90.0,1.0,0.0
8856,64.0,18.0,90.0,3.0,0.0
8857,88.0,0.0,90.0,8.0,0.0
8858,76.0,0.0,90.0,2.0,0.0
8859,61.0,0.0,60.0,12.0,0.0
8860,88.0,0.0,90.0,0.0,0.0
8861,67.0,42.0,60.0,10.0,0.0
8862,76.0,0.0,60.0,10.0,0.0
8863,58.0,0.0,60.0,12.0,0.0
8864,67.0,0.0,60.0,10.0,0.0
8865,58.0,60.0,60.0,12.0,0.0
8866,61.0,0.0,60.0,12.0,0.0
8867,76.0,0.0,60.0,10.0,0.0
8868,58.0,0.0,60.0,12.0,0.0
8869,61.0,42.0,60.0,12.0,0.0
8870,76.0,0.0,60.0,10.0,0.0
8871,67.0,0.0,60.0,10.0,0.0
8872,76.0,60.0,60.0,10.0,0.0
8873,64.0,0.0,60.0,3.0,0.0
8874,58.0,0.0,60.0,12.0,0.0
8875,61.0,0.0,60.0,12.0,0.0
8876,88.0,0.0,60.0,0.0,0.0
8877,88.0,0.0,60.0,1.0,0.0
8878,67.0,0.0,60.0,10.0,0.0
8879,76.0,0.0,60.0,2.0,0.0
8880,88.0,0.0,60.0,8.0,0.0
8881,91.0,0.0,600.0,1.0,0.0
8882,61.0,0.0,60.0,12.0,0.0
8883,67.0,0.0,600.0,3.0,0.0
8884,76.0,0.0,60.0,10.0,0.0
8885,67.0,0.0,60.0,10.0,0.0
8886,91.0,72.0,600.0,8.0,0.0
8887,58.0,48.0,60.0,12.0,0.0
8888,79.0,0.0,600.0,2.0,0.0
8889,91.0,0.0,600.0,0.0,0.0
8890,67.0,60.0,60.0,10.0,0.0
8891,76.0,0.0,60.0,10.0,0.0
8892,61.0,0.0,60.0,12.0,0.0
8893,58.0,0.0,60.0,12.0,0.0
8894,76.0,0.0,60.0,10.0,0.0
8895,67.0,0.0,60.0,10.0,0.0
8896,58.0,60.0,60.0,12.0,0.0
8897,61.0,0.0,60.0,12.0,0.0
8898,76.0,60.0,60.0,10.0,0.0
8899,67.0,0.0,60.0,10.0,0.0
8900,61.0,0.0,60.0,12.0,0.0
8901,58.0,0.0,60.0,12.0,0.0
8902,67.0,42.0,60.0,10.0,0.0
8903,76.0,0.0,60.0,10.0,0.0
8904,49.0,24.0,150.0,6.0,0.0
8905,64.0,0.0,150.0,4.0,0.0
8906,76.0,0.0,90.0,11.0,0.0
8907,58.0,0.0,60.0,12.0,0.0
8908,52.0,18.0,90.0,13.0,0.0
8909,61.0,0.0,60.0,12.0,0.0
8910,76.0,0.0,60.0,10.0,0.0
8911,58.0,36.0,60.0,12.0,0.0
8912,67.0,0.0,60.0,10.0,0.0
8913,61.0,0.0,60.0,12.0,0.0
8914,67.0,0.0,60.0,10.0,0.0
8915,76.0,0.0,60.0,10.0,0.0
8916,61.0,0.0,60.0,12.0,0.0
8917,58.0,60.0,60.0,12.0,0.0
8918,76.0,0.0,60.0,10.0,0.0
8919,76.0,0.0,60.0,11.0,0.0
8920,61.0,0.0,60.0,12.0,0.0
8921,58.0,0.0,60.0,12.0,0.0
8922,49.0,0.0,60.0,6.0,0.0
8923,52.0,0.0,60.0,13.0,0.0
8924,64.0,132.0,60.0,4.0,0.0
8925,67.0,0.0,60.0,10.0,0.0
8926,64.0,24.0,570.0,4.0,0.0
8927,55.0,210.0,600.0,13.0,0.0
8928,76.0,138.0,180.0,10.0,0.0
8929,67.0,0.0,180.0,10.0,0.0
8930,49.0,0.0,180.0,6.0,0.0
8931,79.0,0.0,600.0,11.0,0.0
8932,67.0,0.0,600.0,12.0,0.0
8933,73.0,0.0,90.0,2.0,0.0
8934,85.0,0.0,90.0,1.0,0.0
8935,85.0,138.0,90.0,8.0,0.0
8936,85.0,0.0,90.0,0.0,0.0
8937,61.0,0.0,90.0,3.0,0.0
8938,85.0,108.0,60.0,8.0,0.0
8939,73.0,0.0,60.0,2.0,0.0
8940,61.0,0.0,60.0,3.0,0.0
8941,85.0,0.0,60.0,0.0,0.0
8942,85.0,0.0,60.0,1.0,0.0
8943,64.0,0.0,600.0,3.0,0.0
8944,88.0,0.0,600.0,1.0,0.0
8945,76.0,0.0,600.0,2.0,0.0
8946,88.0,0.0,600.0,0.0,0.0
8947,88.0,72.0,600.0,8.0,0.0
8948,73.0,0.0,90.0,11.0,0.0
8949,49.0,54.0,90.0,13.0,0.0
8950,49.0,84.0,150.0,6.0,0.0
8951,61.0,0.0,90.0,12.0,0.0
8952,49.0,0.0,60.0,6.0,0.0
8953,73.0,0.0,60.0,11.0,0.0
8954,61.0,0.0,60.0,12.0,0.0
8955,49.0,132.0,60.0,13.0,0.0
8956,49.0,138.0,180.0,6.0,0.0
8957,76.0,0.0,120.0,11.0,0.0
8958,52.0,0.0,120.0,13.0,0.0
8959,64.0,0.0,120.0,12.0,0.0
8960,64.0,0.0,180.0,4.0,0.0
8961,49.0,84.0,150.0,6.0,0.0
8962,82.0,0.0,90.0,1.0,0.0
8963,58.0,0.0,90.0,3.0,0.0
8964,70.0,0.0,90.0,2.0,0.0
8965,82.0,0.0,90.0,8.0,0.0
8966,70.0,0.0,90.0,4.0,0.0
8967,94.0,54.0,90.0,0.0,0.0
8968,70.0,0.0,90.0,11.0,0.0
8969,58.0,0.0,90.0,12.0,0.0
8970,46.0,0.0,90.0,13.0,0.0
8971,49.0,0.0,60.0,6.0,0.0
8972,70.0,0.0,60.0,4.0,0.0
8973,70.0,0.0,60.0,11.0,0.0
8974,94.0,0.0,60.0,0.0,0.0
8975,46.0,0.0,60.0,13.0,0.0
8976,58.0,0.0,60.0,12.0,0.0
8977,82.0,0.0,60.0,8.0,0.0
8978,82.0,0.0,60.0,1.0,0.0
8979,58.0,132.0,60.0,3.0,0.0
8980,70.0,0.0,60.0,2.0,0.0
8981,97.0,0.0,120.0,0.0,0.0
8982,61.0,0.0,120.0,3.0,0.0
8983,49.0,138.0,180.0,6.0,0.0
8984,73.0,0.0,120.0,2.0,0.0
8985,49.0,0.0,120.0,13.0,0.0
8986,85.0,0.0,120.0,1.0,0.0
8987,85.0,0.0,120.0,8.0,0.0
8988,73.0,0.0,120.0,4.0,0.0
8989,61.0,0.0,120.0,12.0,0.0
8990,73.0,72.0,120.0,11.0,0.0
8991,52.0,0.0,90.0,12.0,0.0
8992,40.0,0.0,90.0,13.0,0.0
8993,76.0,0.0,90.0,8.0,0.0
8994,88.0,0.0,90.0,0.0,0.0
8995,64.0,0.0,90.0,4.0,0.0
8996,76.0,138.0,90.0,1.0,0.0
8997,64.0,0.0,90.0,11.0,0.0
8998,64.0,0.0,90.0,2.0,0.0
8999,52.0,0.0,90.0,3.0,0.0
9000,40.0,0.0,60.0,13.0,0.0
9001,52.0,0.0,60.0,12.0,0.0
9002,76.0,132.0,60.0,8.0,0.0
9003,88.0,0.0,60.0,0.0,0.0
9004,76.0,0.0,60.0,1.0,0.0
9005,52.0,0.0,60.0,3.0,0.0
9006,64.0,0.0,60.0,4.0,0.0
9007,64.0,0.0,60.0,2.0,0.0
9008,64.0,0.0,60.0,11.0,0.0
9009,79.0,0.0,120.0,8.0,0.0
9010,79.0,0.0,120.0,1.0,0.0
9011,67.0,210.0,120.0,11.0,0.0
9012,55.0,0.0,120.0,12.0,0.0
9013,55.0,0.0,120.0,3.0,0.0
9014,91.0,0.0,120.0,0.0,0.0
9015,43.0,0.0,120.0,13.0,0.0
9016,67.0,0.0,120.0,2.0,0.0
9017,67.0,0.0,120.0,4.0,0.0
9018,37.0,0.0,90.0,13.0,0.0
9019,49.0,0.0,90.0,3.0,0.0
9020,73.0,0.0,90.0,8.0,0.0
9021,73.0,0.0,90.0,1.0,0.0
9022,61.0,54.0,90.0,4.0,0.0
9023,61.0,0.0,90.0,11.0,0.0
9024,61.0,0.0,90.0,2.0,0.0
9025,49.0,0.0,90.0,12.0,0.0
9026,85.0,0.0,90.0,0.0,0.0
9027,49.0,84.0,150.0,6.0,0.0
9028,37.0,0.0,60.0,13.0,0.0
9029,85.0,0.0,60.0,0.0,0.0
9030,49.0,0.0,60.0,12.0,0.0
9031,61.0,132.0,60.0,11.0,0.0
9032,73.0,0.0,60.0,1.0,0.0
9033,61.0,0.0,60.0,2.0,0.0
9034,73.0,0.0,60.0,8.0,0.0
9035,49.0,0.0,60.0,3.0,0.0
9036,49.0,0.0,60.0,6.0,0.0
9037,61.0,0.0,60.0,4.0,0.0
9038,66.0,0.0,120.0,11.0,0.0
9039,78.0,0.0,120.0,8.0,0.0
9040,54.0,0.0,120.0,3.0,0.0
9041,78.0,0.0,120.0,1.0,0.0
9042,54.0,72.0,120.0,12.0,0.0
9043,90.0,0.0,120.0,0.0,0.0
9044,66.0,0.0,120.0,4.0,0.0
9045,54.0,138.0,180.0,6.0,0.0
9046,66.0,0.0,120.0,2.0,0.0
9047,42.0,0.0,120.0,13.0,0.0
9048,42.0,0.0,90.0,12.0,0.0
9049,30.0,0.0,90.0,13.0,0.0
9050,54.0,0.0,90.0,11.0,0.0
9051,78.0,0.0,90.0,0.0,0.0
9052,54.0,54.0,90.0,4.0,0.0
9053,66.0,0.0,90.0,8.0,0.0
9054,42.0,0.0,90.0,3.0,0.0
9055,66.0,0.0,90.0,1.0,0.0
9056,54.0,0.0,90.0,2.0,0.0
9057,54.0,84.0,150.0,6.0,0.0
9058,54.0,0.0,60.0,11.0,0.0
9059,54.0,0.0,60.0,6.0,0.0
9060,42.0,0.0,60.0,12.0,0.0
9061,30.0,0.0,60.0,13.0,0.0
9062,54.0,0.0,60.0,4.0,0.0
9063,42.0,0.0,60.0,3.0,0.0
9064,66.0,0.0,60.0,8.0,0.0
9065,54.0,0.0,60.0,2.0,0.0
9066,66.0,0.0,60.0,1.0,0.0
9067,78.0,132.0,60.0,0.0,0.0
9068,59.0,0.0,240.0,8.0,0.0
9069,66.0,0.0,180.0,5.0,0.0
9070,54.0,34.0,180.0,6.0,0.0
9071,59.0,74.0,240.0,11.0,0.0
9072,71.0,60.0,120.0,2.0,0.0
9073,35.0,0.0,240.0,13.0,0.0
9074,54.0,0.0,180.0,4.0,0.0
9075,47.0,0.0,240.0,12.0,0.0
9076,83.0,0.0,180.0,0.0,0.0
9077,59.0,0.0,120.0,3.0,0.0
9078,66.0,0.0,180.0,4.0,0.0
9079,71.0,0.0,180.0,0.0,0.0
9080,83.0,72.0,600.0,1.0,0.0
9081,66.0,12.0,60.0,3.0,0.0
9082,62.0,0.0,15.0,3.0,0.0
9083,74.0,0.0,15.0,2.0,0.0
9084,78.0,0.0,60.0,2.0,0.0
9085,64.0,0.0,60.0,3.0,0.0
9086,61.0,0.0,60.0,3.0,0.0
9087,76.0,120.0,60.0,2.0,0.0
9088,73.0,0.0,60.0,2.0,0.0
9089,71.0,0.0,60.0,2.0,0.0
9090,59.0,180.0,60.0,3.0,0.0
9091,62.0,0.0,60.0,3.0,0.0
9092,74.0,0.0,60.0,2.0,0.0
9093,71.0,60.0,600.0,2.0,0.0
9094,74.0,0.0,600.0,2.0,0.0
9095,59.0,0.0,600.0,3.0,0.0
9096,62.0,0.0,600.0,3.0,0.0
9097,86.0,120.0,60.0,1.0,0.0
9098,85.0,120.0,60.0,1.0,0.0
9099,83.0,168.0,60.0,1.0,0.0
9100,83.0,72.0,600.0,1.0,0.0
9101,78.0,120.0,60.0,2.0,0.0
9102,74.0,0.0,60.0,2.0,0.0
9103,62.0,0.0,60.0,3.0,0.0
9104,66.0,0.0,60.0,3.0,0.0
9105,61.0,0.0,60.0,3.0,0.0
9106,64.0,0.0,60.0,3.0,0.0
9107,76.0,120.0,60.0,2.0,0.0
9108,73.0,0.0,60.0,2.0,0.0
9109,71.0,180.0,60.0,2.0,0.0
9110,59.0,0.0,60.0,3.0,0.0
9111,62.0,0.0,60.0,3.0,0.0
9112,74.0,0.0,60.0,2.0,0.0
9113,71.0,0.0,600.0,2.0,0.0
9114,74.0,48.0,390.0,2.0,0.0
9115,62.0,0.0,390.0,3.0,0.0
9116,59.0,0.0,600.0,3.0,0.0
9117,86.0,120.0,60.0,1.0,0.0
9118,85.0,72.0,60.0,1.0,0.0
9119,83.0,168.0,60.0,1.0,0.0
9120,88.0,72.0,600.0,0.0,0.0
9121,83.0,0.0,600.0,1.0,0.0
9122,71.0,0.0,60.0,3.0,0.0
9123,79.0,60.0,15.0,2.0,0.0
9124,67.0,0.0,15.0,3.0,0.0
9125,83.0,0.0,60.0,2.0,0.0
9126,66.0,120.0,60.0,3.0,0.0
9127,78.0,0.0,60.0,2.0,0.0
9128,81.0,0.0,60.0,2.0,0.0
9129,69.0,0.0,60.0,3.0,0.0
9130,76.0,0.0,60.0,2.0,0.0
9131,67.0,0.0,60.0,3.0,0.0
9132,64.0,180.0,60.0,3.0,0.0
9133,79.0,0.0,60.0,2.0,0.0
9134,79.0,0.0,600.0,2.0,0.0
9135,64.0,0.0,600.0,3.0,0.0
9136,67.0,0.0,600.0,3.0,0.0
9137,76.0,60.0,600.0,2.0,0.0
9138,83.0,0.0,60.0,1.0,0.0
9139,91.0,120.0,60.0,0.0,0.0
9140,90.0,0.0,60.0,0.0,0.0
9141,81.0,120.0,60.0,1.0,0.0
9142,88.0,0.0,60.0,0.0,0.0
9143,79.0,168.0,60.0,1.0,0.0
9144,79.0,74.0,240.0,1.0,0.0
9145,88.0,72.0,600.0,0.0,0.0
9146,67.0,0.0,60.0,3.0,0.0
9147,71.0,0.0,60.0,3.0,0.0
9148,79.0,0.0,60.0,2.0,0.0
9149,83.0,46.0,60.0,2.0,0.0
9150,66.0,0.0,60.0,3.0,0.0
9151,83.0,42.0,300.0,1.0,0.0
9152,69.0,0.0,60.0,3.0,0.0
9153,81.0,120.0,60.0,2.0,0.0
9154,78.0,0.0,60.0,2.0,0.0
9155,76.0,0.0,60.0,2.0,0.0
9156,64.0,0.0,60.0,3.0,0.0
9157,67.0,0.0,60.0,3.0,0.0
9158,79.0,132.0,60.0,2.0,0.0
9159,79.0,0.0,120.0,2.0,0.0
9160,67.0,0.0,120.0,3.0,0.0
9161,76.0,6.0,120.0,2.0,0.0
9162,64.0,0.0,120.0,3.0,0.0
9163,83.0,18.0,90.0,1.0,0.0
9164,64.0,0.0,120.0,3.0,0.0
9165,91.0,24.0,60.0,0.0,0.0
9166,71.0,78.0,120.0,3.0,0.0
9167,71.0,0.0,120.0,2.0,0.0
9168,79.0,0.0,120.0,2.0,0.0
9169,78.0,78.0,120.0,2.0,0.0
9170,83.0,18.0,90.0,1.0,0.0
9171,69.0,0.0,120.0,3.0,0.0
9172,71.0,0.0,120.0,2.0,0.0
9173,64.0,0.0,120.0,3.0,0.0
9174,90.0,24.0,60.0,0.0,0.0
9175,76.0,246.0,120.0,2.0,0.0
9176,71.0,0.0,120.0,2.0,0.0
9177,67.0,0.0,120.0,3.0,0.0
9178,83.0,18.0,90.0,1.0,0.0
9179,64.0,0.0,120.0,3.0,0.0
9180,88.0,24.0,60.0,0.0,0.0
9181,71.0,0.0,240.0,2.0,0.0
9182,68.0,0.0,240.0,3.0,0.0
9183,86.0,0.0,240.0,0.0,0.0
9184,65.0,480.0,240.0,3.0,0.0
9185,74.0,0.0,240.0,2.0,0.0
9186,83.0,0.0,240.0,1.0,0.0
9187,85.0,0.0,240.0,0.0,0.0
9188,65.0,0.0,240.0,3.0,0.0
9189,73.0,0.0,240.0,2.0,0.0
9190,68.0,480.0,240.0,3.0,0.0
9191,85.0,0.0,240.0,1.0,0.0
9192,71.0,0.0,240.0,2.0,0.0
9193,64.0,480.0,240.0,2.0,0.0
9194,83.0,0.0,240.0,1.0,0.0
9195,55.0,0.0,240.0,3.0,0.0
9196,67.0,0.0,240.0,3.0,0.0
9197,73.0,0.0,240.0,2.0,0.0
9198,83.0,0.0,240.0,0.0,0.0
9199,82.0,0.0,240.0,0.0,0.0
9200,73.0,0.0,240.0,2.0,0.0
9201,54.0,228.0,240.0,3.0,0.0
9202,66.0,0.0,240.0,3.0,0.0
9203,64.0,0.0,240.0,2.0,0.0
9204,82.0,0.0,240.0,1.0,0.0
9205,78.0,0.0,60.0,11.0,0.0
9206,90.0,76.0,60.0,8.0,0.0
9207,47.0,0.0,60.0,12.0,0.0
9208,74.0,80.0,60.0,10.0,0.0
9209,66.0,0.0,60.0,10.0,0.0
9210,59.0,0.0,60.0,12.0,0.0
9211,66.0,0.0,5250.0,4.0,0.0
9212,54.0,14.0,5250.0,4.0,0.0
9213,86.0,0.0,810.0,8.0,0.0
9214,74.0,0.0,3210.0,1.0,0.0
9215,74.0,48.0,810.0,11.0,0.0
9216,90.0,0.0,3660.0,0.0,0.0
9217,86.0,0.0,3660.0,0.0,0.0
9218,83.0,64.0,2160.0,1.0,0.0
9219,66.0,0.0,60.0,10.0,0.0
9220,59.0,0.0,60.0,12.0,0.0
9221,47.0,80.0,60.0,12.0,0.0
9222,74.0,0.0,60.0,10.0,0.0
9223,74.0,0.0,60.0,10.0,0.0
9224,66.0,80.0,60.0,10.0,0.0
9225,59.0,0.0,60.0,12.0,0.0
9226,47.0,0.0,60.0,12.0,0.0
9227,59.0,0.0,180.0,2.0,0.0
9228,59.0,80.0,60.0,12.0,0.0
9229,66.0,0.0,60.0,10.0,0.0
9230,74.0,0.0,60.0,10.0,0.0
9231,47.0,0.0,180.0,15.0,0.0
9232,47.0,0.0,180.0,3.0,0.0
9233,47.0,0.0,60.0,12.0,0.0
9234,62.0,0.0,180.0,2.0,0.0
9235,50.0,32.0,180.0,3.0,0.0
9236,47.0,0.0,60.0,12.0,0.0
9237,59.0,0.0,60.0,12.0,0.0
9238,74.0,48.0,60.0,10.0,0.0
9239,66.0,0.0,60.0,10.0,0.0
9240,47.0,0.0,60.0,12.0,0.0
9241,66.0,0.0,60.0,10.0,0.0
9242,74.0,80.0,60.0,10.0,0.0
9243,59.0,0.0,60.0,12.0,0.0
9244,47.0,0.0,60.0,12.0,0.0
9245,66.0,32.0,180.0,5.0,0.0
9246,59.0,0.0,60.0,12.0,0.0
9247,54.0,0.0,180.0,6.0,0.0
9248,66.0,0.0,60.0,10.0,0.0
9249,74.0,80.0,60.0,10.0,0.0
9250,74.0,0.0,60.0,10.0,0.0
9251,66.0,0.0,60.0,10.0,0.0
9252,47.0,48.0,60.0,12.0,0.0
9253,59.0,0.0,60.0,12.0,0.0
9254,66.0,0.0,60.0,10.0,0.0
9255,74.0,0.0,60.0,10.0,0.0
9256,47.0,0.0,60.0,12.0,0.0
9257,59.0,80.0,60.0,12.0,0.0
9258,50.0,0.0,180.0,15.0,0.0
9259,66.0,0.0,60.0,10.0,0.0
9260,74.0,32.0,60.0,10.0,0.0
9261,50.0,0.0,180.0,3.0,0.0
9262,66.0,32.0,180.0,2.0,0.0
9263,54.0,0.0,180.0,3.0,0.0
9264,62.0,0.0,180.0,2.0,0.0
9265,47.0,0.0,60.0,12.0,0.0
9266,59.0,0.0,60.0,12.0,0.0
9267,47.0,0.0,60.0,12.0,0.0
9268,59.0,0.0,60.0,12.0,0.0
9269,74.0,48.0,60.0,10.0,0.0
9270,66.0,0.0,60.0,10.0,0.0
9271,47.0,0.0,60.0,12.0,0.0
9272,74.0,0.0,60.0,10.0,0.0
9273,66.0,0.0,60.0,10.0,0.0
9274,59.0,4.0,60.0,12.0,0.0
9275,71.0,66.0,60.0,11.0,0.0
9276,71.0,10.0,60.0,4.0,0.0
9277,83.0,0.0,60.0,8.0,0.0
9278,66.0,0.0,60.0,10.0,0.0
9279,74.0,80.0,60.0,10.0,0.0
9280,78.0,0.0,330.0,8.0,0.0
9281,66.0,48.0,330.0,11.0,0.0
9282,59.0,0.0,60.0,12.0,0.0
9283,47.0,0.0,60.0,12.0,0.0
9284,71.0,32.0,180.0,4.0,0.0
9285,59.0,0.0,60.0,12.0,0.0
9286,66.0,0.0,60.0,10.0,0.0
9287,74.0,48.0,60.0,10.0,0.0
9288,47.0,0.0,60.0,12.0,0.0
9289,47.0,0.0,60.0,12.0,0.0
9290,59.0,0.0,60.0,12.0,0.0
9291,66.0,80.0,60.0,10.0,0.0
9292,74.0,0.0,60.0,10.0,0.0
9293,74.0,32.0,60.0,10.0,0.0
9294,54.0,32.0,180.0,15.0,0.0
9295,59.0,0.0,180.0,3.0,0.0
9296,54.0,0.0,180.0,3.0,0.0
9297,71.0,0.0,180.0,2.0,0.0
9298,66.0,0.0,180.0,2.0,0.0
9299,59.0,0.0,60.0,12.0,0.0
9300,47.0,0.0,60.0,12.0,0.0
9301,66.0,0.0,60.0,10.0,0.0
9302,47.0,48.0,60.0,12.0,0.0
9303,59.0,0.0,60.0,12.0,0.0
9304,74.0,0.0,60.0,10.0,0.0
9305,66.0,0.0,60.0,10.0,0.0
9306,66.0,0.0,60.0,10.0,0.0
9307,74.0,0.0,60.0,10.0,0.0
9308,47.0,14.0,60.0,12.0,0.0
9309,59.0,0.0,60.0,12.0,0.0
9310,74.0,66.0,60.0,8.0,0.0
9311,62.0,0.0,60.0,11.0,0.0
9312,71.0,48.0,330.0,8.0,0.0
9313,59.0,0.0,60.0,12.0,0.0
9314,47.0,0.0,60.0,12.0,0.0
9315,66.0,0.0,180.0,5.0,0.0
9316,54.0,32.0,180.0,6.0,0.0
9317,74.0,80.0,60.0,10.0,0.0
9318,66.0,0.0,60.0,10.0,0.0
9319,59.0,0.0,330.0,11.0,0.0
9320,66.0,0.0,60.0,10.0,0.0
9321,74.0,0.0,60.0,10.0,0.0
9322,59.0,48.0,60.0,12.0,0.0
9323,47.0,0.0,60.0,12.0,0.0
9324,59.0,0.0,60.0,12.0,0.0
9325,74.0,0.0,60.0,10.0,0.0
9326,47.0,0.0,60.0,12.0,0.0
9327,66.0,80.0,60.0,10.0,0.0
9328,47.0,0.0,60.0,12.0,0.0
9329,59.0,32.0,180.0,15.0,0.0
9330,74.0,32.0,60.0,10.0,0.0
9331,66.0,0.0,60.0,10.0,0.0
9332,74.0,0.0,150.0,2.0,0.0
9333,62.0,0.0,150.0,3.0,0.0
9334,59.0,0.0,60.0,12.0,0.0
9335,59.0,24.0,60.0,12.0,0.0
9336,47.0,0.0,60.0,12.0,0.0
9337,66.0,0.0,60.0,10.0,0.0
9338,74.0,0.0,60.0,10.0,0.0
9339,66.0,0.0,60.0,11.0,0.0
9340,66.0,24.0,60.0,8.0,0.0
9341,66.0,4.0,60.0,10.0,0.0
9342,74.0,0.0,60.0,10.0,0.0
9343,47.0,0.0,60.0,12.0,0.0
9344,59.0,0.0,60.0,12.0,0.0
9345,62.0,0.0,60.0,8.0,0.0
9346,66.0,0.0,60.0,3.0,0.0
9347,62.0,0.0,60.0,11.0,0.0
9348,78.0,76.0,60.0,2.0,0.0
9349,59.0,0.0,60.0,12.0,0.0
9350,47.0,80.0,60.0,12.0,0.0
9351,74.0,0.0,870.0,2.0,0.0
9352,59.0,0.0,180.0,11.0,0.0
9353,66.0,0.0,60.0,10.0,0.0
9354,62.0,24.0,870.0,3.0,0.0
9355,74.0,0.0,60.0,10.0,0.0
9356,59.0,32.0,180.0,8.0,0.0
9357,47.0,48.0,60.0,12.0,0.0
9358,59.0,0.0,60.0,12.0,0.0
9359,74.0,0.0,60.0,10.0,0.0
9360,66.0,0.0,60.0,10.0,0.0
9361,47.0,0.0,60.0,12.0,0.0
9362,74.0,0.0,60.0,10.0,0.0
9363,66.0,0.0,60.0,10.0,0.0
9364,59.0,16.0,60.0,12.0,0.0
9365,66.0,0.0,60.0,10.0,0.0
9366,74.0,0.0,60.0,10.0,0.0
9367,59.0,32.0,180.0,15.0,0.0
9368,47.0,80.0,60.0,12.0,0.0
9369,59.0,0.0,60.0,12.0,0.0
9370,79.0,64.0,240.0,1.0,0.0
9371,59.0,0.0,60.0,12.0,0.0
9372,47.0,0.0,60.0,12.0,0.0
9373,74.0,0.0,60.0,10.0,0.0
9374,66.0,24.0,60.0,10.0,0.0
9375,78.0,24.0,60.0,8.0,0.0
9376,66.0,4.0,60.0,10.0,0.0
9377,74.0,0.0,60.0,10.0,0.0
9378,47.0,0.0,60.0,12.0,0.0
9379,59.0,0.0,60.0,12.0,0.0
9380,74.0,12.0,60.0,8.0,0.0
9381,66.0,80.0,60.0,10.0,0.0
9382,74.0,0.0,60.0,10.0,0.0
9383,66.0,0.0,180.0,5.0,0.0
9384,78.0,64.0,240.0,1.0,0.0
9385,71.0,32.0,180.0,8.0,0.0
9386,47.0,0.0,60.0,12.0,0.0
9387,59.0,0.0,60.0,12.0,0.0
9388,54.0,0.0,180.0,6.0,0.0
9389,66.0,48.0,60.0,10.0,0.0
9390,74.0,0.0,60.0,10.0,0.0
9391,47.0,0.0,60.0,12.0,0.0
9392,59.0,0.0,60.0,12.0,0.0
9393,59.0,0.0,60.0,12.0,0.0
9394,47.0,0.0,60.0,12.0,0.0
9395,74.0,0.0,60.0,10.0,0.0
9396,66.0,16.0,60.0,10.0,0.0
9397,62.0,32.0,180.0,15.0,0.0
9398,86.0,64.0,240.0,1.0,0.0
9399,59.0,80.0,60.0,12.0,0.0
9400,47.0,0.0,60.0,12.0,0.0
9401,74.0,0.0,60.0,10.0,0.0
9402,66.0,0.0,60.0,10.0,0.0
9403,74.0,0.0,60.0,10.0,0.0
9404,59.0,0.0,60.0,12.0,0.0
9405,47.0,0.0,60.0,12.0,0.0
9406,66.0,0.0,60.0,10.0,0.0
9407,66.0,24.0,60.0,11.0,0.0
9408,47.0,0.0,60.0,12.0,0.0
9409,66.0,0.0,60.0,10.0,0.0
9410,74.0,0.0,60.0,10.0,0.0
9411,59.0,4.0,60.0,12.0,0.0
9412,62.0,12.0,60.0,11.0,0.0
9413,71.0,0.0,60.0,4.0,0.0
9414,71.0,0.0,60.0,2.0,0.0
9415,59.0,0.0,60.0,3.0,0.0
9416,78.0,48.0,330.0,1.0,0.0
9417,66.0,0.0,330.0,2.0,0.0
9418,54.0,0.0,330.0,3.0,0.0
9419,71.0,0.0,180.0,4.0,0.0
9420,59.0,32.0,180.0,11.0,0.0
9421,47.0,0.0,60.0,12.0,0.0
9422,66.0,80.0,60.0,10.0,0.0
9423,74.0,0.0,60.0,10.0,0.0
9424,59.0,0.0,60.0,12.0,0.0
9425,47.0,0.0,60.0,12.0,0.0
9426,59.0,0.0,60.0,12.0,0.0
9427,74.0,0.0,60.0,10.0,0.0
9428,66.0,48.0,60.0,10.0,0.0
9429,47.0,0.0,60.0,12.0,0.0
9430,59.0,0.0,60.0,12.0,0.0
9431,66.0,80.0,60.0,10.0,0.0
9432,74.0,0.0,60.0,10.0,0.0
9433,66.0,0.0,60.0,10.0,0.0
9434,74.0,0.0,60.0,10.0,0.0
9435,47.0,32.0,60.0,12.0,0.0
9436,59.0,0.0,60.0,12.0,0.0
9437,66.0,32.0,180.0,15.0,0.0
9438,83.0,12.0,660.0,8.0,0.0
9439,74.0,0.0,60.0,10.0,0.0
9440,66.0,24.0,60.0,10.0,0.0
9441,47.0,0.0,60.0,12.0,0.0
9442,59.0,0.0,60.0,12.0,0.0
9443,69.0,24.0,60.0,11.0,0.0
9444,66.0,0.0,60.0,10.0,0.0
9445,74.0,0.0,60.0,10.0,0.0
9446,59.0,4.0,60.0,12.0,0.0
9447,47.0,0.0,60.0,12.0,0.0
9448,74.0,76.0,60.0,1.0,0.0
9449,62.0,0.0,60.0,2.0,0.0
9450,66.0,0.0,60.0,11.0,0.0
9451,50.0,0.0,60.0,3.0,0.0
9452,66.0,0.0,60.0,10.0,0.0
9453,47.0,0.0,60.0,12.0,0.0
9454,54.0,0.0,60.0,12.0,0.0
9455,66.0,0.0,180.0,5.0,0.0
9456,59.0,16.0,300.0,2.0,0.0
9457,75.0,80.0,60.0,10.0,0.0
9458,54.0,0.0,180.0,6.0,0.0
9459,71.0,0.0,180.0,1.0,0.0
9460,75.0,32.0,180.0,1.0,0.0
9461,63.0,48.0,330.0,11.0,0.0
9462,47.0,0.0,300.0,3.0,0.0
9463,54.0,0.0,60.0,12.0,0.0
9464,47.0,0.0,60.0,12.0,0.0
9465,66.0,48.0,60.0,10.0,0.0
9466,75.0,0.0,60.0,10.0,0.0
9467,75.0,0.0,60.0,10.0,0.0
9468,66.0,64.0,60.0,10.0,0.0
9469,54.0,0.0,60.0,12.0,0.0
9470,47.0,0.0,60.0,12.0,0.0
9471,75.0,0.0,60.0,10.0,0.0
9472,71.0,0.0,180.0,4.0,0.0
9473,54.0,0.0,60.0,12.0,0.0
9474,66.0,32.0,60.0,10.0,0.0
9475,78.0,0.0,180.0,1.0,0.0
9476,81.0,0.0,180.0,1.0,0.0
9477,47.0,0.0,60.0,12.0,0.0
9478,71.0,32.0,180.0,15.0,0.0
9479,54.0,0.0,60.0,12.0,0.0
9480,75.0,24.0,60.0,10.0,0.0
9481,66.0,0.0,60.0,10.0,0.0
9482,47.0,0.0,60.0,12.0,0.0
9483,69.0,0.0,60.0,3.0,0.0
9484,81.0,12.0,60.0,2.0,0.0
9485,75.0,0.0,60.0,10.0,0.0
9486,47.0,0.0,60.0,12.0,0.0
9487,54.0,4.0,60.0,12.0,0.0
9488,66.0,0.0,60.0,10.0,0.0
9489,66.0,0.0,60.0,3.0,0.0
9490,72.0,0.0,60.0,11.0,0.0
9491,78.0,76.0,60.0,2.0,0.0
9492,84.0,0.0,60.0,8.0,0.0
9493,75.0,0.0,60.0,10.0,0.0
9494,54.0,0.0,60.0,12.0,0.0
9495,47.0,0.0,60.0,12.0,0.0
9496,66.0,0.0,180.0,5.0,0.0
9497,71.0,48.0,810.0,11.0,0.0
9498,71.0,16.0,1740.0,4.0,0.0
9499,66.0,80.0,60.0,10.0,0.0
9500,75.0,0.0,180.0,2.0,0.0
9501,63.0,0.0,180.0,3.0,0.0
9502,54.0,0.0,180.0,6.0,0.0
9503,87.0,0.0,3660.0,0.0,0.0
9504,78.0,48.0,3210.0,1.0,0.0
9505,83.0,0.0,810.0,8.0,0.0
9506,81.0,64.0,2160.0,1.0,0.0
9507,90.0,16.0,3660.0,0.0,0.0
9508,47.0,0.0,60.0,12.0,0.0
9509,66.0,0.0,60.0,10.0,0.0
9510,75.0,48.0,60.0,10.0,0.0
9511,54.0,0.0,60.0,12.0,0.0
9512,47.0,0.0,60.0,12.0,0.0
9513,66.0,0.0,60.0,10.0,0.0
9514,75.0,80.0,60.0,10.0,0.0
9515,54.0,0.0,60.0,12.0,0.0
9516,47.0,32.0,180.0,3.0,0.0
9517,47.0,0.0,60.0,12.0,0.0
9518,47.0,0.0,180.0,15.0,0.0
9519,66.0,0.0,60.0,10.0,0.0
9520,75.0,80.0,60.0,10.0,0.0
9521,63.0,0.0,180.0,2.0,0.0
9522,59.0,0.0,180.0,2.0,0.0
9523,51.0,0.0,180.0,3.0,0.0
9524,54.0,0.0,60.0,12.0,0.0
9525,47.0,0.0,60.0,12.0,0.0
9526,66.0,48.0,60.0,10.0,0.0
9527,54.0,0.0,60.0,12.0,0.0
9528,75.0,0.0,60.0,10.0,0.0
9529,47.0,80.0,60.0,12.0,0.0
9530,54.0,0.0,60.0,12.0,0.0
9531,66.0,0.0,60.0,10.0,0.0
9532,75.0,0.0,60.0,10.0,0.0
9533,66.0,0.0,180.0,5.0,0.0
9534,54.0,32.0,180.0,6.0,0.0
9535,54.0,0.0,60.0,12.0,0.0
9536,66.0,80.0,60.0,10.0,0.0
9537,75.0,0.0,60.0,10.0,0.0
9538,47.0,0.0,60.0,12.0,0.0
9539,75.0,0.0,60.0,10.0,0.0
9540,66.0,0.0,60.0,10.0,0.0
9541,54.0,48.0,60.0,12.0,0.0
9542,47.0,0.0,60.0,12.0,0.0
9543,54.0,0.0,60.0,12.0,0.0
9544,66.0,0.0,60.0,10.0,0.0
9545,75.0,0.0,60.0,10.0,0.0
9546,47.0,80.0,60.0,12.0,0.0
9547,54.0,0.0,60.0,12.0,0.0
9548,47.0,0.0,60.0,12.0,0.0
9549,63.0,0.0,180.0,2.0,0.0
9550,75.0,32.0,60.0,10.0,0.0
9551,66.0,0.0,180.0,2.0,0.0
9552,66.0,0.0,60.0,10.0,0.0
9553,51.0,32.0,180.0,15.0,0.0
9554,66.0,0.0,60.0,10.0,0.0
9555,47.0,0.0,60.0,12.0,0.0
9556,54.0,48.0,60.0,12.0,0.0
9557,75.0,0.0,60.0,10.0,0.0
9558,66.0,14.0,60.0,10.0,0.0
9559,75.0,0.0,60.0,10.0,0.0
9560,54.0,0.0,60.0,12.0,0.0
9561,47.0,0.0,60.0,12.0,0.0
9562,69.0,66.0,60.0,11.0,0.0
9563,81.0,0.0,60.0,8.0,0.0
9564,47.0,0.0,60.0,12.0,0.0
9565,66.0,48.0,330.0,11.0,0.0
9566,66.0,80.0,60.0,10.0,0.0
9567,75.0,0.0,60.0,10.0,0.0
9568,54.0,0.0,60.0,12.0,0.0
9569,78.0,0.0,330.0,8.0,0.0
9570,75.0,0.0,60.0,10.0,0.0
9571,66.0,80.0,60.0,10.0,0.0
9572,47.0,0.0,60.0,12.0,0.0
9573,54.0,0.0,60.0,12.0,0.0
9574,75.0,0.0,60.0,10.0,0.0
9575,66.0,0.0,60.0,10.0,0.0
9576,47.0,0.0,60.0,12.0,0.0
9577,54.0,80.0,60.0,12.0,0.0
9578,47.0,0.0,60.0,12.0,0.0
9579,54.0,32.0,60.0,12.0,0.0
9580,59.0,0.0,180.0,3.0,0.0
9581,51.0,0.0,180.0,3.0,0.0
9582,63.0,0.0,180.0,2.0,0.0
9583,54.0,18.0,180.0,15.0,0.0
9584,69.0,0.0,180.0,2.0,0.0
9585,75.0,0.0,60.0,10.0,0.0
9586,66.0,0.0,60.0,10.0,0.0
9587,75.0,0.0,60.0,10.0,0.0
9588,47.0,0.0,60.0,12.0,0.0
9589,54.0,0.0,60.0,12.0,0.0
9590,66.0,48.0,60.0,10.0,0.0
9591,66.0,14.0,60.0,10.0,0.0
9592,75.0,0.0,60.0,10.0,0.0
9593,47.0,0.0,60.0,12.0,0.0
9594,54.0,0.0,60.0,12.0,0.0
9595,75.0,0.0,60.0,8.0,0.0
9596,63.0,66.0,60.0,11.0,0.0
9597,59.0,48.0,330.0,11.0,0.0
9598,66.0,0.0,180.0,5.0,0.0
9599,71.0,0.0,330.0,8.0,0.0
9600,54.0,32.0,180.0,6.0,0.0
9601,47.0,0.0,60.0,12.0,0.0
9602,54.0,0.0,60.0,12.0,0.0
9603,75.0,0.0,60.0,10.0,0.0
9604,66.0,80.0,60.0,10.0,0.0
9605,66.0,48.0,60.0,10.0,0.0
9606,75.0,0.0,60.0,10.0,0.0
9607,54.0,0.0,60.0,12.0,0.0
9608,47.0,0.0,60.0,12.0,0.0
9609,54.0,0.0,60.0,12.0,0.0
9610,75.0,0.0,60.0,10.0,0.0
9611,66.0,64.0,60.0,10.0,0.0
9612,47.0,0.0,60.0,12.0,0.0
9613,75.0,32.0,60.0,10.0,0.0
9614,66.0,0.0,60.0,10.0,0.0
9615,63.0,0.0,150.0,3.0,0.0
9616,54.0,0.0,60.0,12.0,0.0
9617,75.0,0.0,150.0,2.0,0.0
9618,47.0,0.0,60.0,12.0,0.0
9619,59.0,32.0,180.0,15.0,0.0
9620,47.0,0.0,60.0,12.0,0.0
9621,54.0,24.0,60.0,12.0,0.0
9622,75.0,0.0,60.0,10.0,0.0
9623,66.0,0.0,60.0,10.0,0.0
9624,69.0,0.0,60.0,8.0,0.0
9625,57.0,24.0,60.0,11.0,0.0
9626,66.0,4.0,60.0,10.0,0.0
9627,54.0,0.0,60.0,12.0,0.0
9628,47.0,0.0,60.0,12.0,0.0
9629,75.0,0.0,60.0,10.0,0.0
9630,54.0,0.0,60.0,11.0,0.0
9631,72.0,0.0,60.0,3.0,0.0
9632,66.0,76.0,60.0,8.0,0.0
9633,84.0,0.0,60.0,2.0,0.0
9634,54.0,48.0,1530.0,4.0,0.0
9635,71.0,0.0,1530.0,4.0,0.0
9636,66.0,0.0,60.0,10.0,0.0
9637,75.0,0.0,60.0,10.0,0.0
9638,47.0,0.0,60.0,12.0,0.0
9639,63.0,0.0,180.0,8.0,0.0
9640,54.0,80.0,60.0,12.0,0.0
9641,83.0,0.0,870.0,2.0,0.0
9642,63.0,32.0,180.0,11.0,0.0
9643,71.0,0.0,870.0,3.0,0.0
9644,54.0,48.0,60.0,12.0,0.0
9645,75.0,0.0,60.0,10.0,0.0
9646,66.0,0.0,60.0,10.0,0.0
9647,47.0,0.0,60.0,12.0,0.0
9648,75.0,0.0,60.0,10.0,0.0
9649,54.0,0.0,60.0,12.0,0.0
9650,47.0,16.0,60.0,12.0,0.0
9651,66.0,0.0,60.0,10.0,0.0
9652,47.0,80.0,60.0,12.0,0.0
9653,54.0,0.0,60.0,12.0,0.0
9654,75.0,0.0,60.0,10.0,0.0
9655,66.0,0.0,60.0,10.0,0.0
9656,84.0,64.0,240.0,1.0,0.0
9657,59.0,32.0,180.0,15.0,0.0
9658,66.0,24.0,60.0,10.0,0.0
9659,75.0,0.0,60.0,10.0,0.0
9660,47.0,0.0,60.0,12.0,0.0
9661,54.0,0.0,60.0,12.0,0.0
9662,81.0,24.0,60.0,8.0,0.0
9663,75.0,0.0,60.0,10.0,0.0
9664,66.0,0.0,60.0,10.0,0.0
9665,47.0,4.0,60.0,12.0,0.0
9666,54.0,0.0,60.0,12.0,0.0
9667,78.0,12.0,60.0,8.0,0.0
9668,66.0,0.0,60.0,10.0,0.0
9669,75.0,0.0,60.0,10.0,0.0
9670,75.0,0.0,180.0,8.0,0.0
9671,66.0,0.0,15.0,4.0,0.0
9672,69.0,0.0,15.0,4.0,0.0
9673,47.0,0.0,60.0,12.0,0.0
9674,66.0,32.0,180.0,5.0,0.0
9675,54.0,0.0,180.0,6.0,0.0
9676,83.0,64.0,240.0,1.0,0.0
9677,54.0,80.0,60.0,12.0,0.0
9678,54.0,0.0,60.0,12.0,0.0
9679,75.0,48.0,60.0,10.0,0.0
9680,66.0,0.0,60.0,10.0,0.0
9681,47.0,0.0,60.0,12.0,0.0
9682,66.0,0.0,60.0,10.0,0.0
9683,75.0,0.0,60.0,10.0,0.0
9684,47.0,0.0,60.0,12.0,0.0
9685,54.0,16.0,60.0,12.0,0.0
9686,54.0,80.0,60.0,12.0,0.0
9687,63.0,32.0,180.0,15.0,0.0
9688,81.0,0.0,240.0,1.0,0.0
9689,75.0,0.0,60.0,10.0,0.0
9690,66.0,0.0,60.0,10.0,0.0
9691,47.0,0.0,60.0,12.0,0.0
9692,66.0,24.0,60.0,10.0,0.0
9693,47.0,0.0,60.0,12.0,0.0
9694,54.0,0.0,60.0,12.0,0.0
9695,75.0,0.0,60.0,10.0,0.0
9696,69.0,24.0,60.0,11.0,0.0
9697,47.0,0.0,60.0,12.0,0.0
9698,66.0,0.0,60.0,10.0,0.0
9699,75.0,4.0,60.0,10.0,0.0
9700,54.0,0.0,60.0,12.0,0.0
9701,81.0,12.0,60.0,2.0,0.0
9702,66.0,0.0,60.0,11.0,0.0
9703,69.0,0.0,60.0,3.0,0.0
9704,90.0,0.0,330.0,1.0,0.0
9705,63.0,32.0,180.0,11.0,0.0
9706,66.0,0.0,330.0,3.0,0.0
9707,75.0,0.0,60.0,10.0,0.0
9708,66.0,80.0,60.0,10.0,0.0
9709,78.0,0.0,330.0,2.0,0.0
9710,54.0,0.0,60.0,12.0,0.0
9711,47.0,0.0,60.0,12.0,0.0
9712,47.0,0.0,60.0,12.0,0.0
9713,54.0,0.0,60.0,12.0,0.0
9714,66.0,0.0,60.0,10.0,0.0
9715,75.0,48.0,60.0,10.0,0.0
9716,47.0,0.0,60.0,12.0,0.0
9717,75.0,80.0,60.0,10.0,0.0
9718,66.0,0.0,60.0,10.0,0.0
9719,54.0,0.0,60.0,12.0,0.0
9720,75.0,0.0,60.0,10.0,0.0
9721,81.0,44.0,660.0,8.0,0.0
9722,66.0,32.0,60.0,10.0,0.0
9723,47.0,0.0,60.0,12.0,0.0
9724,54.0,0.0,60.0,12.0,0.0
9725,66.0,32.0,180.0,15.0,0.0
9726,75.0,0.0,60.0,10.0,0.0
9727,54.0,0.0,60.0,12.0,0.0
9728,47.0,0.0,60.0,12.0,0.0
9729,66.0,24.0,60.0,10.0,0.0
9730,69.0,24.0,60.0,11.0,0.0
9731,66.0,0.0,60.0,10.0,0.0
9732,75.0,4.0,60.0,10.0,0.0
9733,54.0,0.0,60.0,12.0,0.0
9734,47.0,0.0,60.0,12.0,0.0
9735,75.0,12.0,60.0,2.0,0.0
9736,63.0,0.0,60.0,3.0,0.0
9737,66.0,0.0,60.0,11.0,0.0
9738,87.0,0.0,60.0,1.0,0.0
9739,75.0,0.0,60.0,1.0,0.0
9740,54.0,32.0,180.0,6.0,0.0
9741,66.0,0.0,180.0,5.0,0.0
9742,54.0,0.0,60.0,11.0,0.0
9743,63.0,32.0,60.0,11.0,0.0
9744,66.0,0.0,60.0,10.0,0.0
9745,75.0,0.0,60.0,10.0,0.0
9746,71.0,0.0,300.0,2.0,0.0
9747,66.0,64.0,15.0,4.0,0.0
9748,69.0,0.0,15.0,4.0,0.0
9749,54.0,0.0,60.0,12.0,0.0
9750,47.0,0.0,60.0,12.0,0.0
9751,59.0,0.0,300.0,3.0,0.0
9752,83.0,0.0,300.0,1.0,0.0
9753,75.0,0.0,60.0,10.0,0.0
9754,54.0,0.0,60.0,12.0,0.0
9755,47.0,0.0,60.0,12.0,0.0
9756,66.0,0.0,60.0,10.0,0.0
9757,63.0,48.0,60.0,11.0,0.0
9758,54.0,0.0,60.0,11.0,0.0
9759,66.0,0.0,60.0,10.0,0.0
9760,75.0,0.0,60.0,10.0,0.0
9761,54.0,0.0,60.0,12.0,0.0
9762,54.0,64.0,60.0,11.0,0.0
9763,63.0,0.0,60.0,11.0,0.0
9764,47.0,0.0,60.0,12.0,0.0
9765,66.0,0.0,60.0,11.0,0.0
9766,66.0,0.0,60.0,10.0,0.0
9767,75.0,0.0,60.0,10.0,0.0
9768,63.0,32.0,60.0,11.0,0.0
9769,57.0,48.0,90.0,13.0,0.0
9770,54.0,0.0,60.0,12.0,0.0
9771,47.0,0.0,60.0,12.0,0.0
9772,66.0,0.0,60.0,10.0,0.0
9773,66.0,0.0,60.0,11.0,0.0
9774,54.0,0.0,60.0,12.0,0.0
9775,47.0,0.0,60.0,12.0,0.0
9776,63.0,24.0,60.0,11.0,0.0
9777,75.0,0.0,60.0,10.0,0.0
9778,69.0,0.0,60.0,8.0,0.0
9779,54.0,12.0,60.0,13.0,0.0
9780,69.0,0.0,60.0,2.0,0.0
9781,57.0,0.0,60.0,3.0,0.0
9782,81.0,0.0,60.0,1.0,0.0
9783,66.0,4.0,60.0,11.0,0.0
9784,63.0,0.0,60.0,11.0,0.0
9785,75.0,0.0,60.0,10.0,0.0
9786,47.0,0.0,60.0,12.0,0.0
9787,54.0,0.0,60.0,12.0,0.0
9788,66.0,0.0,60.0,10.0,0.0
9789,66.0,0.0,60.0,8.0,0.0
9790,78.0,0.0,60.0,1.0,0.0
9791,51.0,12.0,60.0,13.0,0.0
9792,66.0,0.0,60.0,2.0,0.0
9793,54.0,0.0,60.0,3.0,0.0
9794,63.0,0.0,180.0,8.0,0.0
9795,57.0,2.0,240.0,4.0,0.0
9796,69.0,0.0,240.0,4.0,0.0
9797,54.0,0.0,180.0,6.0,0.0
9798,69.0,60.0,60.0,10.0,0.0
9799,66.0,0.0,180.0,5.0,0.0
9800,78.0,0.0,180.0,5.0,0.0
9801,81.0,0.0,180.0,0.0,0.0
9802,39.0,0.0,240.0,13.0,0.0
9803,45.0,0.0,180.0,3.0,0.0
9804,69.0,0.0,180.0,1.0,0.0
9805,60.0,0.0,60.0,11.0,0.0
9806,63.0,0.0,60.0,11.0,0.0
9807,51.0,0.0,240.0,12.0,0.0
9808,69.0,34.0,180.0,2.0,0.0
9809,78.0,0.0,60.0,10.0,0.0
9810,63.0,0.0,60.0,11.0,0.0
9811,60.0,0.0,60.0,11.0,0.0
9812,78.0,0.0,60.0,10.0,0.0
9813,69.0,0.0,60.0,10.0,0.0
9814,63.0,24.0,60.0,11.0,0.0
9815,60.0,0.0,60.0,11.0,0.0
9816,78.0,0.0,60.0,10.0,0.0
9817,69.0,0.0,60.0,10.0,0.0
9818,63.0,60.0,60.0,11.0,0.0
9819,78.0,0.0,60.0,10.0,0.0
9820,60.0,0.0,60.0,11.0,0.0
9821,69.0,0.0,60.0,10.0,0.0
9822,93.0,0.0,90.0,0.0,0.0
9823,63.0,42.0,60.0,11.0,0.0
9824,45.0,24.0,390.0,13.0,0.0
9825,69.0,0.0,60.0,10.0,0.0
9826,78.0,0.0,150.0,5.0,0.0
9827,66.0,0.0,150.0,5.0,0.0
9828,60.0,0.0,60.0,11.0,0.0
9829,78.0,0.0,60.0,10.0,0.0
9830,81.0,0.0,90.0,1.0,0.0
9831,57.0,0.0,390.0,12.0,0.0
9832,57.0,0.0,90.0,3.0,0.0
9833,81.0,18.0,90.0,2.0,0.0
9834,57.0,24.0,150.0,4.0,0.0
9835,81.0,0.0,90.0,8.0,0.0
9836,54.0,0.0,150.0,6.0,0.0
9837,69.0,0.0,150.0,4.0,0.0
9838,60.0,0.0,60.0,11.0,0.0
9839,69.0,0.0,60.0,10.0,0.0
9840,78.0,0.0,60.0,10.0,0.0
9841,63.0,36.0,60.0,11.0,0.0
9842,78.0,0.0,60.0,10.0,0.0
9843,63.0,60.0,60.0,11.0,0.0
9844,69.0,0.0,60.0,10.0,0.0
9845,60.0,0.0,60.0,11.0,0.0
9846,81.0,60.0,60.0,2.0,0.0
9847,57.0,0.0,60.0,4.0,0.0
9848,78.0,0.0,60.0,10.0,0.0
9849,54.0,0.0,60.0,6.0,0.0
9850,93.0,0.0,60.0,0.0,0.0
9851,81.0,0.0,60.0,1.0,0.0
9852,66.0,0.0,60.0,5.0,0.0
9853,78.0,0.0,60.0,5.0,0.0
9854,63.0,0.0,60.0,11.0,0.0
9855,60.0,0.0,60.0,11.0,0.0
9856,69.0,0.0,60.0,10.0,0.0
9857,57.0,0.0,60.0,3.0,0.0
9858,81.0,0.0,60.0,8.0,0.0
9859,69.0,0.0,60.0,4.0,0.0
9860,60.0,60.0,60.0,11.0,0.0
9861,78.0,0.0,60.0,10.0,0.0
9862,69.0,0.0,60.0,10.0,0.0
9863,60.0,0.0,600.0,3.0,0.0
9864,54.0,0.0,180.0,6.0,0.0
9865,63.0,0.0,60.0,11.0,0.0
9866,84.0,0.0,600.0,8.0,0.0
9867,57.0,104.0,720.0,4.0,0.0
9868,69.0,0.0,720.0,4.0,0.0
9869,96.0,72.0,600.0,0.0,0.0
9870,78.0,36.0,180.0,5.0,0.0
9871,66.0,0.0,180.0,5.0,0.0
9872,84.0,0.0,600.0,2.0,0.0
9873,84.0,0.0,600.0,1.0,0.0
9874,60.0,0.0,60.0,11.0,0.0
9875,63.0,0.0,60.0,11.0,0.0
9876,78.0,36.0,60.0,10.0,0.0
9877,69.0,0.0,60.0,10.0,0.0
9878,69.0,0.0,60.0,10.0,0.0
9879,60.0,0.0,60.0,11.0,0.0
9880,63.0,24.0,60.0,11.0,0.0
9881,78.0,0.0,60.0,10.0,0.0
9882,60.0,0.0,60.0,11.0,0.0
9883,69.0,0.0,60.0,10.0,0.0
9884,78.0,0.0,60.0,10.0,0.0
9885,63.0,60.0,60.0,11.0,0.0
9886,45.0,0.0,90.0,13.0,0.0
9887,57.0,18.0,90.0,12.0,0.0
9888,63.0,0.0,60.0,11.0,0.0
9889,60.0,0.0,60.0,11.0,0.0
9890,78.0,42.0,60.0,10.0,0.0
9891,69.0,0.0,60.0,10.0,0.0
9892,78.0,0.0,60.0,10.0,0.0
9893,60.0,60.0,60.0,11.0,0.0
9894,63.0,0.0,60.0,11.0,0.0
9895,69.0,0.0,60.0,10.0,0.0
9896,78.0,0.0,60.0,10.0,0.0
9897,69.0,0.0,60.0,10.0,0.0
9898,63.0,0.0,60.0,11.0,0.0
9899,60.0,60.0,60.0,11.0,0.0
9900,45.0,0.0,60.0,13.0,0.0
9901,69.0,0.0,60.0,10.0,0.0
9902,78.0,132.0,60.0,10.0,0.0
9903,60.0,0.0,60.0,11.0,0.0
9904,57.0,0.0,60.0,12.0,0.0
9905,63.0,0.0,60.0,11.0,0.0
9906,60.0,0.0,600.0,12.0,0.0
9907,72.0,0.0,600.0,11.0,0.0
9908,48.0,72.0,600.0,13.0,0.0
9909,69.0,34.0,180.0,10.0,0.0
9910,78.0,0.0,180.0,10.0,0.0
9911,66.0,0.0,150.0,4.0,0.0
9912,54.0,0.0,150.0,4.0,0.0
9913,90.0,0.0,90.0,0.0,0.0
9914,66.0,0.0,150.0,5.0,0.0
9915,78.0,0.0,90.0,1.0,0.0
9916,78.0,0.0,150.0,5.0,0.0
9917,54.0,0.0,90.0,3.0,0.0
9918,78.0,0.0,90.0,8.0,0.0
9919,54.0,84.0,150.0,6.0,0.0
9920,78.0,54.0,90.0,2.0,0.0
9921,78.0,0.0,60.0,2.0,0.0
9922,66.0,132.0,60.0,5.0,0.0
9923,54.0,0.0,60.0,3.0,0.0
9924,90.0,0.0,60.0,0.0,0.0
9925,66.0,0.0,60.0,4.0,0.0
9926,54.0,0.0,60.0,6.0,0.0
9927,78.0,0.0,60.0,1.0,0.0
9928,78.0,0.0,60.0,8.0,0.0
9929,54.0,0.0,60.0,4.0,0.0
9930,78.0,0.0,60.0,5.0,0.0
9931,69.0,104.0,720.0,4.0,0.0
9932,78.0,0.0,180.0,5.0,0.0
9933,57.0,72.0,600.0,3.0,0.0
9934,66.0,0.0,180.0,5.0,0.0
9935,54.0,138.0,180.0,6.0,0.0
9936,81.0,0.0,600.0,1.0,0.0
9937,57.0,0.0,720.0,4.0,0.0
9938,81.0,0.0,600.0,2.0,0.0
9939,81.0,0.0,600.0,8.0,0.0
9940,93.0,0.0,600.0,0.0,0.0
9941,66.0,0.0,90.0,11.0,0.0
9942,54.0,0.0,90.0,12.0,0.0
9943,42.0,138.0,90.0,13.0,0.0
9944,66.0,0.0,60.0,11.0,0.0
9945,54.0,132.0,60.0,12.0,0.0
9946,42.0,0.0,60.0,13.0,0.0
9947,57.0,0.0,120.0,12.0,0.0
9948,54.0,34.0,180.0,6.0,0.0
9949,78.0,0.0,180.0,5.0,0.0
9950,69.0,0.0,120.0,11.0,0.0
9951,66.0,0.0,180.0,5.0,0.0
9952,45.0,0.0,120.0,13.0,0.0
9953,75.0,0.0,90.0,1.0,0.0
9954,63.0,54.0,90.0,12.0,0.0
9955,78.0,84.0,150.0,5.0,0.0
9956,63.0,0.0,90.0,3.0,0.0
9957,75.0,0.0,90.0,11.0,0.0
9958,66.0,0.0,150.0,5.0,0.0
9959,75.0,0.0,90.0,2.0,0.0
9960,99.0,0.0,90.0,0.0,0.0
9961,75.0,0.0,90.0,8.0,0.0
9962,51.0,0.0,90.0,13.0,0.0
9963,54.0,0.0,150.0,6.0,0.0
9964,99.0,132.0,60.0,0.0,0.0
9965,51.0,0.0,60.0,13.0,0.0
9966,54.0,0.0,60.0,6.0,0.0
9967,63.0,0.0,60.0,3.0,0.0
9968,63.0,0.0,60.0,12.0,0.0
9969,75.0,0.0,60.0,2.0,0.0
9970,75.0,0.0,60.0,1.0,0.0
9971,66.0,0.0,60.0,5.0,0.0
9972,75.0,0.0,60.0,8.0,0.0
9973,75.0,0.0,60.0,11.0,0.0
9974,78.0,0.0,60.0,5.0,0.0
9975,54.0,0.0,180.0,6.0,0.0
9976,66.0,138.0,180.0,5.0,0.0
9977,78.0,0.0,120.0,8.0,0.0
9978,102.0,0.0,120.0,0.0,0.0
9979,54.0,0.0,120.0,13.0,0.0
9980,66.0,0.0,120.0,12.0,0.0
9981,66.0,72.0,120.0,3.0,0.0
9982,78.0,0.0,120.0,2.0,0.0
9983,90.0,0.0,120.0,1.0,0.0
9984,78.0,0.0,180.0,5.0,0.0
9985,78.0,0.0,120.0,11.0,0.0
9986,69.0,0.0,90.0,11.0,0.0
9987,57.0,138.0,90.0,12.0,0.0
9988,93.0,0.0,90.0,0.0,0.0
9989,69.0,0.0,90.0,8.0,0.0
9990,69.0,0.0,90.0,2.0,0.0
9991,45.0,0.0,90.0,13.0,0.0
9992,81.0,0.0,90.0,1.0,0.0
9993,57.0,0.0,90.0,3.0,0.0
9994,81.0,0.0,60.0,1.0,0.0
9995,69.0,0.0,60.0,8.0,0.0
9996,69.0,0.0,60.0,11.0,0.0
9997,93.0,0.0,60.0,0.0,0.0
9998,69.0,0.0,60.0,2.0,0.0
9999,57.0,0.0,60.0,12.0,0.0
10000,45.0,132.0,60.0,13.0,0.0
10001,57.0,0.0,60.0,3.0,0.0
10002,96.0,210.0,120.0,0.0,0.0
10003,60.0,0.0,120.0,12.0,0.0
10004,72.0,0.0,120.0,8.0,0.0
10005,72.0,0.0,120.0,11.0,0.0
10006,72.0,0.0,120.0,2.0,0.0
10007,84.0,0.0,120.0,1.0,0.0
10008,60.0,0.0,120.0,3.0,0.0
10009,48.0,0.0,120.0,13.0,0.0
10010,66.0,0.0,90.0,2.0,0.0
10011,78.0,54.0,90.0,1.0,0.0
10012,54.0,0.0,150.0,6.0,0.0
10013,54.0,0.0,90.0,3.0,0.0
10014,54.0,0.0,90.0,12.0,0.0
10015,42.0,0.0,90.0,13.0,0.0
10016,66.0,84.0,150.0,5.0,0.0
10017,66.0,0.0,90.0,11.0,0.0
10018,90.0,0.0,90.0,0.0,0.0
10019,66.0,0.0,90.0,8.0,0.0
10020,78.0,0.0,150.0,5.0,0.0
10021,66.0,0.0,60.0,11.0,0.0
10022,54.0,0.0,60.0,6.0,0.0
10023,66.0,0.0,60.0,8.0,0.0
10024,54.0,0.0,60.0,3.0,0.0
10025,42.0,0.0,60.0,13.0,0.0
10026,66.0,0.0,60.0,5.0,0.0
10027,90.0,0.0,60.0,0.0,0.0
10028,78.0,0.0,60.0,5.0,0.0
10029,54.0,0.0,60.0,12.0,0.0
10030,78.0,132.0,60.0,1.0,0.0
10031,66.0,0.0,60.0,2.0,0.0
10032,71.0,0.0,120.0,2.0,0.0
10033,59.0,72.0,120.0,12.0,0.0
10034,95.0,0.0,120.0,0.0,0.0
10035,54.0,138.0,180.0,6.0,0.0
10036,71.0,0.0,120.0,8.0,0.0
10037,47.0,0.0,120.0,13.0,0.0
10038,59.0,0.0,120.0,3.0,0.0
10039,71.0,0.0,120.0,11.0,0.0
10040,78.0,0.0,180.0,5.0,0.0
10041,66.0,0.0,180.0,5.0,0.0
10042,83.0,0.0,120.0,1.0,0.0
10043,35.0,0.0,90.0,13.0,0.0
10044,59.0,138.0,90.0,8.0,0.0
10045,59.0,0.0,90.0,11.0,0.0
10046,47.0,0.0,90.0,3.0,0.0
10047,83.0,0.0,90.0,0.0,0.0
10048,59.0,0.0,90.0,2.0,0.0
10049,47.0,0.0,90.0,12.0,0.0
10050,71.0,0.0,90.0,1.0,0.0
10051,59.0,0.0,60.0,2.0,0.0
10052,59.0,0.0,60.0,11.0,0.0
10053,35.0,0.0,60.0,13.0,0.0
10054,47.0,0.0,60.0,3.0,0.0
10055,59.0,132.0,60.0,8.0,0.0
10056,71.0,0.0,60.0,1.0,0.0
10057,47.0,0.0,60.0,12.0,0.0
10058,83.0,0.0,60.0,0.0,0.0
10059,64.0,0.0,180.0,4.0,0.0
10060,40.0,0.0,240.0,13.0,0.0
10061,64.0,72.0,600.0,3.0,0.0
10062,64.0,0.0,240.0,8.0,0.0
10063,64.0,0.0,240.0,11.0,0.0
10064,52.0,0.0,180.0,4.0,0.0
10065,64.0,0.0,180.0,0.0,0.0
10066,76.0,34.0,180.0,0.0,0.0
10067,52.0,74.0,240.0,12.0,0.0
10068,76.0,0.0,120.0,1.0,0.0
10069,79.0,60.0,120.0,1.0,0.0
10070,64.0,0.0,120.0,2.0,0.0
10071,67.0,0.0,15.0,2.0,0.0
10072,71.0,0.0,60.0,2.0,0.0
10073,83.0,0.0,60.0,1.0,0.0
10074,79.0,0.0,60.0,1.0,0.0
10075,66.0,120.0,60.0,2.0,0.0
10076,78.0,0.0,60.0,1.0,0.0
10077,81.0,0.0,60.0,1.0,0.0
10078,69.0,0.0,60.0,2.0,0.0
10079,79.0,0.0,60.0,1.0,0.0
10080,76.0,180.0,60.0,1.0,0.0
10081,67.0,0.0,60.0,2.0,0.0
10082,64.0,0.0,60.0,2.0,0.0
10083,64.0,60.0,600.0,2.0,0.0
10084,67.0,0.0,600.0,2.0,0.0
10085,76.0,0.0,600.0,1.0,0.0
10086,67.0,120.0,60.0,3.0,0.0
10087,66.0,120.0,60.0,3.0,0.0
10088,64.0,168.0,60.0,3.0,0.0
10089,64.0,72.0,600.0,3.0,0.0
10090,67.0,0.0,60.0,2.0,0.0
10091,79.0,0.0,15.0,1.0,0.0
10092,83.0,120.0,60.0,1.0,0.0
10093,71.0,0.0,60.0,2.0,0.0
10094,78.0,0.0,60.0,1.0,0.0
10095,69.0,0.0,60.0,2.0,0.0
10096,66.0,0.0,60.0,2.0,0.0
10097,81.0,120.0,60.0,1.0,0.0
10098,79.0,0.0,60.0,1.0,0.0
10099,76.0,180.0,60.0,1.0,0.0
10100,67.0,0.0,60.0,2.0,0.0
10101,64.0,0.0,60.0,2.0,0.0
10102,79.0,0.0,390.0,1.0,0.0
10103,76.0,48.0,390.0,1.0,0.0
10104,64.0,0.0,390.0,2.0,0.0
10105,67.0,0.0,390.0,2.0,0.0
10106,67.0,120.0,60.0,3.0,0.0
10107,66.0,72.0,60.0,3.0,0.0
10108,64.0,168.0,60.0,3.0,0.0
10109,69.0,0.0,600.0,2.0,0.0
10110,81.0,72.0,600.0,1.0,0.0
10111,60.0,60.0,120.0,3.0,0.0
10112,64.0,120.0,60.0,3.0,0.0
10113,62.0,120.0,60.0,3.0,0.0
10114,59.0,0.0,60.0,3.0,0.0
10115,57.0,0.0,60.0,3.0,0.0
10116,60.0,180.0,60.0,3.0,0.0
10117,57.0,0.0,600.0,3.0,0.0
10118,60.0,60.0,600.0,3.0,0.0
10119,84.0,0.0,60.0,1.0,0.0
10120,72.0,120.0,60.0,2.0,0.0
10121,71.0,120.0,60.0,2.0,0.0
10122,83.0,0.0,60.0,1.0,0.0
10123,81.0,168.0,60.0,1.0,0.0
10124,69.0,0.0,60.0,2.0,0.0
10125,69.0,0.0,600.0,2.0,0.0
10126,81.0,114.0,600.0,1.0,0.0
10127,64.0,120.0,60.0,3.0,0.0
10128,60.0,0.0,60.0,3.0,0.0
10129,59.0,120.0,60.0,3.0,0.0
10130,62.0,0.0,60.0,3.0,0.0
10131,60.0,174.0,60.0,3.0,0.0
10132,57.0,0.0,60.0,3.0,0.0
10133,60.0,6.0,120.0,3.0,0.0
10134,57.0,0.0,120.0,3.0,0.0
10135,66.0,120.0,120.0,3.0,0.0
10136,57.0,0.0,120.0,3.0,0.0
10137,75.0,0.0,120.0,2.0,0.0
10138,84.0,0.0,120.0,2.0,0.0
10139,59.0,0.0,120.0,3.0,0.0
10140,66.0,120.0,120.0,3.0,0.0
10141,75.0,0.0,120.0,2.0,0.0
10142,83.0,0.0,120.0,2.0,0.0
10143,81.0,0.0,120.0,2.0,0.0
10144,60.0,0.0,120.0,3.0,0.0
10145,66.0,0.0,120.0,3.0,0.0
10146,75.0,246.0,120.0,2.0,0.0
10147,79.0,0.0,240.0,2.0,0.0
10148,76.0,0.0,240.0,2.0,0.0
10149,61.0,0.0,240.0,3.0,0.0
10150,58.0,480.0,240.0,3.0,0.0
10151,76.0,0.0,240.0,2.0,0.0
10152,78.0,480.0,240.0,2.0,0.0
10153,61.0,0.0,240.0,3.0,0.0
10154,58.0,0.0,240.0,3.0,0.0
10155,76.0,480.0,240.0,2.0,0.0
10156,72.0,0.0,240.0,2.0,0.0
10157,69.0,0.0,240.0,3.0,0.0
10158,59.0,0.0,240.0,3.0,0.0
10159,59.0,0.0,240.0,3.0,0.0
10160,66.0,0.0,240.0,3.0,0.0
10161,75.0,360.0,240.0,2.0,0.0
10162,69.0,0.0,240.0,2.0,0.0
10163,64.0,120.0,120.0,2.0,0.0
10164,88.0,0.0,240.0,1.0,0.0
10165,79.0,0.0,240.0,1.0,0.0
10166,91.0,0.0,240.0,0.0,0.0
10167,73.0,0.0,240.0,10.0,0.0
10168,64.0,0.0,240.0,11.0,0.0
10169,46.0,0.0,240.0,13.0,0.0
10170,52.0,0.0,120.0,3.0,0.0
10171,58.0,0.0,240.0,12.0,0.0
10172,79.0,0.0,240.0,8.0,0.0
10173,75.0,120.0,120.0,2.0,0.0
10174,63.0,0.0,120.0,3.0,0.0
10175,64.0,120.0,120.0,3.0,0.0
10176,76.0,0.0,120.0,2.0,0.0
10177,75.0,0.0,120.0,2.0,0.0
10178,63.0,120.0,120.0,3.0,0.0
10179,48.0,0.0,240.0,13.0,0.0
10180,90.0,0.0,240.0,0.0,0.0
10181,76.0,0.0,120.0,2.0,0.0
10182,64.0,120.0,120.0,3.0,0.0
10183,88.0,0.0,240.0,1.0,0.0
10184,78.0,0.0,240.0,1.0,0.0
10185,60.0,120.0,240.0,12.0,0.0
10186,64.0,0.0,240.0,11.0,0.0
10187,78.0,0.0,240.0,8.0,0.0
10188,70.0,0.0,240.0,10.0,0.0
10189,75.0,0.0,120.0,2.0,0.0
10190,63.0,0.0,120.0,3.0,0.0
10191,76.0,0.0,120.0,2.0,0.0
10192,64.0,120.0,120.0,3.0,0.0
10193,66.0,0.0,120.0,3.0,0.0
10194,78.0,120.0,120.0,2.0,0.0
10195,72.0,0.0,240.0,10.0,0.0
10196,69.0,0.0,240.0,11.0,0.0
10197,83.0,0.0,240.0,1.0,0.0
10198,76.0,0.0,240.0,8.0,0.0
10199,88.0,0.0,240.0,0.0,0.0
10200,79.0,0.0,120.0,2.0,0.0
10201,47.0,120.0,240.0,13.0,0.0
10202,59.0,0.0,240.0,12.0,0.0
10203,79.0,0.0,240.0,1.0,0.0
10204,67.0,120.0,120.0,3.0,0.0
10205,78.0,0.0,120.0,2.0,0.0
10206,66.0,0.0,120.0,3.0,0.0
10207,67.0,120.0,120.0,3.0,0.0
10208,79.0,0.0,120.0,2.0,0.0
10209,69.0,0.0,120.0,3.0,0.0
10210,81.0,120.0,120.0,2.0,0.0
10211,71.0,0.0,240.0,12.0,0.0
10212,71.0,0.0,120.0,3.0,0.0
10213,83.0,0.0,240.0,1.0,0.0
10214,83.0,0.0,120.0,2.0,0.0
10215,59.0,0.0,240.0,13.0,0.0
10216,78.0,0.0,240.0,1.0,0.0
10217,75.0,120.0,120.0,8.0,0.0
10218,87.0,0.0,120.0,0.0,0.0
10219,66.0,120.0,240.0,11.0,0.0
10220,69.0,0.0,240.0,10.0,0.0
10221,59.0,0.0,120.0,3.0,0.0
10222,71.0,0.0,120.0,2.0,0.0
10223,83.0,0.0,810.0,8.0,0.0
10224,60.0,120.0,120.0,3.0,0.0
10225,95.0,72.0,810.0,0.0,0.0
10226,72.0,0.0,120.0,2.0,0.0
10227,59.0,0.0,120.0,3.0,0.0
10228,71.0,180.0,120.0,2.0,0.0
10229,52.0,0.0,540.0,3.0,0.0
10230,52.0,12.0,540.0,12.0,0.0
10231,40.0,0.0,540.0,13.0,0.0
10232,76.0,0.0,240.0,2.0,0.0
10233,76.0,0.0,240.0,1.0,0.0
10234,79.0,60.0,240.0,1.0,0.0
10235,71.0,60.0,60.0,10.0,0.0
10236,69.0,120.0,60.0,10.0,0.0
10237,67.0,108.0,60.0,10.0,0.0
10238,66.0,36.0,60.0,10.0,0.0
10239,55.0,0.0,60.0,3.0,0.0
10240,43.0,0.0,60.0,13.0,0.0
10241,55.0,12.0,60.0,12.0,0.0
10242,64.0,108.0,60.0,10.0,0.0
10243,54.0,0.0,60.0,3.0,0.0
10244,42.0,0.0,60.0,13.0,0.0
10245,63.0,108.0,60.0,10.0,0.0
10246,71.0,0.0,810.0,0.0,0.0
10247,59.0,0.0,810.0,8.0,0.0
10248,54.0,12.0,60.0,12.0,0.0
10249,64.0,156.0,60.0,10.0,0.0
10250,40.0,0.0,60.0,13.0,0.0
10251,52.0,0.0,60.0,12.0,0.0
10252,52.0,12.0,60.0,3.0,0.0
10253,64.0,60.0,120.0,10.0,0.0
10254,59.0,0.0,90.0,12.0,0.0
10255,47.0,24.0,90.0,13.0,0.0
10256,59.0,0.0,90.0,3.0,0.0
10257,63.0,120.0,60.0,10.0,0.0
10258,57.0,0.0,90.0,3.0,0.0
10259,63.0,36.0,60.0,10.0,0.0
10260,45.0,84.0,90.0,13.0,0.0
10261,57.0,0.0,90.0,12.0,0.0
10262,66.0,120.0,60.0,10.0,0.0
10263,63.0,36.0,60.0,10.0,0.0
10264,42.0,84.0,90.0,13.0,0.0
10265,54.0,0.0,90.0,3.0,0.0
10266,54.0,0.0,90.0,12.0,0.0
10267,66.0,120.0,60.0,10.0,0.0
10268,59.0,0.0,330.0,3.0,0.0
10269,59.0,0.0,330.0,12.0,0.0
10270,64.0,120.0,60.0,10.0,0.0
10271,59.0,74.0,480.0,8.0,0.0
10272,71.0,34.0,420.0,0.0,0.0
10273,47.0,24.0,330.0,13.0,0.0
10274,63.0,156.0,60.0,10.0,0.0
10275,66.0,60.0,120.0,10.0,0.0
10276,64.0,12.0,60.0,10.0,0.0
10277,95.0,36.0,390.0,0.0,0.0
10278,83.0,0.0,390.0,0.0,0.0
10279,64.0,36.0,60.0,10.0,0.0
10280,55.0,0.0,90.0,3.0,0.0
10281,55.0,84.0,90.0,12.0,0.0
10282,83.0,90.0,450.0,8.0,0.0
10283,43.0,0.0,90.0,13.0,0.0
10284,67.0,120.0,60.0,10.0,0.0
10285,64.0,36.0,60.0,10.0,0.0
10286,52.0,0.0,90.0,3.0,0.0
10287,52.0,0.0,90.0,12.0,0.0
10288,40.0,48.0,90.0,13.0,0.0
10289,67.0,30.0,60.0,10.0,0.0
10290,47.0,0.0,330.0,13.0,0.0
10291,66.0,120.0,60.0,10.0,0.0
10292,59.0,0.0,330.0,3.0,0.0
10293,71.0,34.0,420.0,0.0,0.0
10294,59.0,24.0,330.0,12.0,0.0
10295,59.0,74.0,480.0,8.0,0.0
10296,64.0,156.0,60.0,10.0,0.0
10297,67.0,60.0,120.0,10.0,0.0
10298,66.0,12.0,60.0,10.0,0.0
10299,95.0,36.0,390.0,0.0,0.0
10300,66.0,36.0,60.0,10.0,0.0
10301,83.0,90.0,450.0,8.0,0.0
10302,54.0,84.0,90.0,3.0,0.0
10303,54.0,0.0,90.0,12.0,0.0
10304,83.0,0.0,390.0,0.0,0.0
10305,42.0,0.0,90.0,13.0,0.0
10306,69.0,120.0,60.0,10.0,0.0
10307,51.0,48.0,90.0,12.0,0.0
10308,66.0,36.0,60.0,10.0,0.0
10309,51.0,0.0,90.0,3.0,0.0
10310,39.0,0.0,90.0,13.0,0.0
10311,69.0,30.0,60.0,10.0,0.0
10312,59.0,24.0,330.0,3.0,0.0
10313,83.0,0.0,420.0,8.0,0.0
10314,67.0,120.0,60.0,10.0,0.0
10315,59.0,0.0,330.0,12.0,0.0
10316,95.0,0.0,420.0,0.0,0.0
10317,83.0,96.0,420.0,0.0,0.0
10318,47.0,0.0,330.0,13.0,0.0
10319,66.0,156.0,60.0,10.0,0.0
10320,69.0,60.0,120.0,10.0,0.0
10321,67.0,12.0,60.0,10.0,0.0
10322,83.0,36.0,390.0,0.0,0.0
10323,95.0,0.0,390.0,0.0,0.0
10324,45.0,0.0,90.0,13.0,0.0
10325,57.0,0.0,90.0,12.0,0.0
10326,57.0,72.0,90.0,3.0,0.0
10327,85.0,12.0,60.0,8.0,0.0
10328,67.0,36.0,60.0,10.0,0.0
10329,87.0,12.0,60.0,8.0,0.0
10330,66.0,156.0,60.0,10.0,0.0
10331,66.0,24.0,120.0,10.0,0.0
10332,55.0,0.0,90.0,12.0,0.0
10333,55.0,0.0,90.0,3.0,0.0
10334,43.0,0.0,90.0,13.0,0.0
10335,88.0,24.0,90.0,8.0,0.0
10336,64.0,120.0,60.0,10.0,0.0
10337,90.0,0.0,90.0,8.0,0.0
10338,54.0,0.0,90.0,12.0,0.0
10339,42.0,0.0,90.0,13.0,0.0
10340,54.0,84.0,90.0,3.0,0.0
10341,64.0,36.0,60.0,10.0,0.0
10342,95.0,0.0,360.0,0.0,0.0
10343,83.0,60.0,360.0,0.0,0.0
10344,62.0,156.0,60.0,10.0,0.0
10345,52.0,0.0,90.0,3.0,0.0
10346,52.0,0.0,90.0,12.0,0.0
10347,91.0,0.0,90.0,8.0,0.0
10348,62.0,0.0,120.0,10.0,0.0
10349,40.0,24.0,90.0,13.0,0.0
10350,61.0,120.0,60.0,10.0,0.0
10351,41.0,0.0,90.0,13.0,0.0
10352,53.0,0.0,90.0,12.0,0.0
10353,61.0,36.0,60.0,10.0,0.0
10354,83.0,60.0,120.0,0.0,0.0
10355,92.0,0.0,90.0,8.0,0.0
10356,53.0,24.0,90.0,3.0,0.0
10357,71.0,120.0,60.0,10.0,0.0
10358,42.0,0.0,90.0,13.0,0.0
10359,54.0,0.0,90.0,3.0,0.0
10360,70.0,36.0,60.0,10.0,0.0
10361,54.0,24.0,90.0,12.0,0.0
10362,78.0,60.0,120.0,0.0,0.0
10363,90.0,0.0,90.0,8.0,0.0
10364,71.0,120.0,60.0,10.0,0.0
10365,70.0,0.0,60.0,10.0,0.0
10366,66.0,0.0,630.0,5.0,0.0
10367,78.0,36.0,630.0,5.0,0.0
10368,78.0,60.0,120.0,0.0,0.0
10369,73.0,36.0,60.0,10.0,0.0
10370,54.0,0.0,690.0,12.0,0.0
10371,78.0,24.0,90.0,8.0,0.0
10372,42.0,0.0,690.0,13.0,0.0
10373,54.0,78.0,690.0,3.0,0.0
10374,66.0,0.0,630.0,4.0,0.0
10375,54.0,228.0,180.0,6.0,0.0
10376,64.0,12.0,60.0,10.0,0.0
10377,83.0,0.0,540.0,0.0,0.0
10378,54.0,72.0,570.0,6.0,0.0
10379,71.0,12.0,540.0,8.0,0.0
10380,66.0,120.0,60.0,11.0,0.0
10381,64.0,84.0,60.0,11.0,0.0
10382,62.0,30.0,60.0,11.0,0.0
10383,61.0,36.0,60.0,11.0,0.0
10384,54.0,0.0,870.0,4.0,0.0
10385,74.0,0.0,60.0,8.0,0.0
10386,59.0,108.0,60.0,11.0,0.0
10387,86.0,12.0,60.0,0.0,0.0
10388,42.0,0.0,690.0,12.0,0.0
10389,54.0,144.0,180.0,6.0,0.0
10390,73.0,12.0,60.0,8.0,0.0
10391,42.0,90.0,690.0,3.0,0.0
10392,58.0,108.0,60.0,11.0,0.0
10393,66.0,36.0,630.0,5.0,0.0
10394,30.0,0.0,690.0,13.0,0.0
10395,85.0,0.0,60.0,0.0,0.0
10396,83.0,0.0,60.0,0.0,0.0
10397,71.0,12.0,60.0,8.0,0.0
10398,59.0,12.0,60.0,11.0,0.0
10399,59.0,60.0,120.0,11.0,0.0
10400,78.0,0.0,90.0,8.0,0.0
10401,90.0,24.0,90.0,0.0,0.0
10402,54.0,0.0,570.0,6.0,0.0
10403,58.0,120.0,60.0,11.0,0.0
10404,88.0,48.0,90.0,0.0,0.0
10405,76.0,0.0,90.0,8.0,0.0
10406,58.0,36.0,60.0,11.0,0.0
10407,61.0,30.0,60.0,11.0,0.0
10408,73.0,0.0,90.0,8.0,0.0
10409,85.0,84.0,90.0,0.0,0.0
10410,58.0,36.0,60.0,11.0,0.0
10411,54.0,74.0,720.0,4.0,0.0
10412,61.0,120.0,60.0,11.0,0.0
10413,54.0,144.0,180.0,6.0,0.0
10414,59.0,120.0,60.0,11.0,0.0
10415,66.0,36.0,630.0,5.0,0.0
10416,78.0,24.0,330.0,8.0,0.0
10417,90.0,0.0,330.0,0.0,0.0
10418,42.0,0.0,360.0,12.0,0.0
10419,30.0,60.0,360.0,13.0,0.0
10420,42.0,0.0,360.0,3.0,0.0
10421,58.0,12.0,60.0,11.0,0.0
10422,61.0,0.0,120.0,11.0,0.0
10423,54.0,0.0,570.0,6.0,0.0
10424,59.0,46.0,60.0,11.0,0.0
10425,74.0,0.0,90.0,8.0,0.0
10426,66.0,0.0,450.0,12.0,0.0
10427,66.0,36.0,390.0,4.0,0.0
10428,86.0,48.0,90.0,0.0,0.0
10429,59.0,36.0,60.0,11.0,0.0
10430,54.0,0.0,450.0,13.0,0.0
10431,66.0,90.0,450.0,3.0,0.0
10432,62.0,120.0,60.0,11.0,0.0
10433,59.0,36.0,60.0,11.0,0.0
10434,83.0,0.0,90.0,0.0,0.0
10435,71.0,48.0,90.0,8.0,0.0
10436,62.0,30.0,60.0,11.0,0.0
10437,66.0,36.0,630.0,5.0,0.0
10438,61.0,120.0,60.0,11.0,0.0
10439,42.0,0.0,360.0,12.0,0.0
10440,54.0,144.0,180.0,6.0,0.0
10441,90.0,0.0,330.0,0.0,0.0
10442,30.0,0.0,360.0,13.0,0.0
10443,42.0,0.0,360.0,3.0,0.0
10444,78.0,24.0,330.0,8.0,0.0
10445,54.0,74.0,480.0,4.0,0.0
10446,59.0,12.0,60.0,11.0,0.0
10447,62.0,60.0,120.0,11.0,0.0
10448,54.0,0.0,570.0,6.0,0.0
10449,61.0,46.0,60.0,11.0,0.0
10450,66.0,90.0,450.0,12.0,0.0
10451,54.0,0.0,450.0,13.0,0.0
10452,85.0,0.0,90.0,0.0,0.0
10453,66.0,0.0,450.0,3.0,0.0
10454,61.0,36.0,60.0,11.0,0.0
10455,73.0,48.0,90.0,8.0,0.0
10456,66.0,36.0,390.0,4.0,0.0
10457,64.0,120.0,60.0,11.0,0.0
10458,82.0,0.0,90.0,0.0,0.0
10459,61.0,36.0,60.0,11.0,0.0
10460,70.0,48.0,90.0,8.0,0.0
10461,64.0,30.0,60.0,11.0,0.0
10462,62.0,120.0,60.0,11.0,0.0
10463,42.0,0.0,360.0,3.0,0.0
10464,54.0,0.0,480.0,4.0,0.0
10465,78.0,0.0,330.0,8.0,0.0
10466,54.0,144.0,180.0,6.0,0.0
10467,66.0,0.0,480.0,5.0,0.0
10468,90.0,24.0,330.0,0.0,0.0
10469,30.0,0.0,360.0,13.0,0.0
10470,42.0,60.0,360.0,12.0,0.0
10471,61.0,12.0,60.0,11.0,0.0
10472,64.0,0.0,120.0,11.0,0.0
10473,54.0,74.0,240.0,6.0,0.0
10474,62.0,46.0,60.0,11.0,0.0
10475,35.0,90.0,450.0,13.0,0.0
10476,88.0,0.0,90.0,0.0,0.0
10477,47.0,0.0,450.0,3.0,0.0
10478,47.0,0.0,450.0,12.0,0.0
10479,62.0,36.0,60.0,11.0,0.0
10480,76.0,84.0,90.0,8.0,0.0
10481,71.0,36.0,390.0,4.0,0.0
10482,61.0,156.0,60.0,11.0,0.0
10483,61.0,24.0,120.0,11.0,0.0
10484,86.0,24.0,90.0,0.0,0.0
10485,74.0,0.0,90.0,8.0,0.0
10486,59.0,30.0,60.0,11.0,0.0
10487,85.0,0.0,90.0,0.0,0.0
10488,47.0,0.0,360.0,13.0,0.0
10489,73.0,84.0,90.0,8.0,0.0
10490,59.0,0.0,360.0,3.0,0.0
10491,59.0,36.0,60.0,11.0,0.0
10492,59.0,0.0,360.0,12.0,0.0
10493,71.0,144.0,180.0,4.0,0.0
10494,57.0,12.0,60.0,11.0,0.0
10495,83.0,0.0,90.0,0.0,0.0
10496,66.0,60.0,120.0,10.0,0.0
10497,71.0,108.0,180.0,4.0,0.0
10498,71.0,24.0,90.0,8.0,0.0
10499,57.0,0.0,120.0,11.0,0.0
10500,55.0,0.0,60.0,11.0,0.0
10501,67.0,12.0,60.0,10.0,0.0
10502,64.0,0.0,450.0,3.0,0.0
10503,81.0,84.0,90.0,0.0,0.0
10504,64.0,0.0,450.0,12.0,0.0
10505,55.0,36.0,60.0,11.0,0.0
10506,69.0,0.0,90.0,8.0,0.0
10507,52.0,90.0,450.0,13.0,0.0
10508,64.0,0.0,390.0,4.0,0.0
10509,61.0,0.0,60.0,10.0,0.0
10510,63.0,120.0,60.0,10.0,0.0
10511,54.0,0.0,60.0,11.0,0.0
10512,52.0,36.0,60.0,11.0,0.0
10513,79.0,48.0,90.0,0.0,0.0
10514,67.0,0.0,90.0,8.0,0.0
10515,64.0,0.0,60.0,10.0,0.0
10516,69.0,30.0,60.0,10.0,0.0
10517,66.0,0.0,60.0,11.0,0.0
10518,79.0,0.0,420.0,8.0,0.0
10519,64.0,120.0,60.0,11.0,0.0
10520,52.0,0.0,360.0,12.0,0.0
10521,64.0,0.0,420.0,4.0,0.0
10522,40.0,60.0,360.0,13.0,0.0
10523,52.0,0.0,360.0,3.0,0.0
10524,91.0,0.0,420.0,0.0,0.0
10525,67.0,0.0,60.0,10.0,0.0
10526,62.0,0.0,60.0,11.0,0.0
10527,66.0,180.0,60.0,10.0,0.0
10528,62.0,0.0,120.0,11.0,0.0
10529,66.0,0.0,120.0,10.0,0.0
10530,61.0,12.0,60.0,11.0,0.0
10531,64.0,0.0,60.0,10.0,0.0
10532,92.0,0.0,90.0,0.0,0.0
10533,57.0,0.0,390.0,4.0,0.0
10534,80.0,84.0,90.0,8.0,0.0
10535,64.0,0.0,60.0,10.0,0.0
10536,33.0,90.0,450.0,13.0,0.0
10537,69.0,36.0,390.0,4.0,0.0
10538,64.0,0.0,390.0,4.0,0.0
10539,45.0,0.0,450.0,12.0,0.0
10540,61.0,36.0,60.0,11.0,0.0
10541,45.0,0.0,450.0,3.0,0.0
10542,62.0,0.0,60.0,10.0,0.0
10543,59.0,156.0,60.0,11.0,0.0
10544,62.0,24.0,120.0,10.0,0.0
10545,93.0,0.0,90.0,0.0,0.0
10546,59.0,0.0,120.0,11.0,0.0
10547,81.0,24.0,90.0,8.0,0.0
10548,61.0,0.0,60.0,10.0,0.0
10549,57.0,30.0,60.0,11.0,0.0
10550,83.0,60.0,360.0,8.0,0.0
10551,61.0,0.0,60.0,10.0,0.0
10552,69.0,0.0,420.0,4.0,0.0
10553,57.0,108.0,420.0,4.0,0.0
10554,57.0,0.0,360.0,12.0,0.0
10555,57.0,120.0,60.0,11.0,0.0
10556,95.0,0.0,360.0,0.0,0.0
10557,45.0,0.0,360.0,13.0,0.0
10558,57.0,0.0,360.0,3.0,0.0
10559,64.0,0.0,420.0,4.0,0.0
10560,64.0,0.0,60.0,10.0,0.0
10561,61.0,180.0,60.0,11.0,0.0
10562,61.0,0.0,120.0,11.0,0.0
10563,64.0,0.0,120.0,10.0,0.0
10564,93.0,0.0,60.0,0.0,0.0
10565,62.0,0.0,60.0,11.0,0.0
10566,66.0,12.0,60.0,10.0,0.0
10567,81.0,0.0,60.0,8.0,0.0
10568,57.0,0.0,300.0,12.0,0.0
10569,81.0,120.0,60.0,8.0,0.0
10570,64.0,0.0,390.0,4.0,0.0
10571,57.0,0.0,390.0,4.0,0.0
10572,57.0,0.0,300.0,3.0,0.0
10573,69.0,36.0,390.0,4.0,0.0
10574,45.0,0.0,300.0,13.0,0.0
10575,93.0,0.0,60.0,0.0,0.0
10576,66.0,0.0,60.0,10.0,0.0
10577,62.0,0.0,60.0,11.0,0.0
10578,67.0,120.0,60.0,10.0,0.0
10579,91.0,0.0,60.0,0.0,0.0
10580,64.0,0.0,60.0,11.0,0.0
10581,79.0,0.0,60.0,8.0,0.0
10582,67.0,24.0,120.0,10.0,0.0
10583,91.0,60.0,60.0,0.0,0.0
10584,64.0,0.0,120.0,11.0,0.0
10585,79.0,0.0,60.0,8.0,0.0
10586,61.0,0.0,60.0,12.0,0.0
10587,49.0,0.0,60.0,13.0,0.0
10588,57.0,0.0,60.0,11.0,0.0
10589,61.0,0.0,60.0,3.0,0.0
10590,90.0,0.0,60.0,0.0,0.0
10591,76.0,0.0,60.0,10.0,0.0
10592,78.0,120.0,60.0,8.0,0.0
10593,69.0,0.0,630.0,4.0,0.0
10594,59.0,0.0,60.0,3.0,0.0
10595,47.0,120.0,60.0,13.0,0.0
10596,69.0,84.0,810.0,11.0,0.0
10597,91.0,0.0,60.0,0.0,0.0
10598,59.0,0.0,60.0,12.0,0.0
10599,57.0,0.0,630.0,4.0,0.0
10600,79.0,0.0,60.0,8.0,0.0
10601,64.0,108.0,180.0,4.0,0.0
10602,74.0,0.0,60.0,10.0,0.0
10603,73.0,0.0,60.0,10.0,0.0
10604,45.0,12.0,60.0,13.0,0.0
10605,93.0,0.0,60.0,0.0,0.0
10606,81.0,0.0,60.0,8.0,0.0
10607,57.0,0.0,60.0,3.0,0.0
10608,57.0,0.0,60.0,12.0,0.0
10609,62.0,74.0,240.0,3.0,0.0
10610,66.0,36.0,390.0,4.0,0.0
10611,62.0,0.0,240.0,12.0,0.0
10612,50.0,0.0,240.0,13.0,0.0
10613,90.0,120.0,60.0,0.0,0.0
10614,78.0,48.0,330.0,8.0,0.0
10615,74.0,0.0,540.0,10.0,0.0
10616,81.0,46.0,60.0,2.0,0.0
10617,93.0,0.0,60.0,0.0,0.0
10618,79.0,0.0,60.0,2.0,0.0
10619,91.0,36.0,60.0,0.0,0.0
10620,90.0,120.0,60.0,0.0,0.0
10621,78.0,0.0,60.0,2.0,0.0
10622,76.0,36.0,60.0,2.0,0.0
10623,88.0,0.0,60.0,0.0,0.0
10624,86.0,120.0,60.0,0.0,0.0
10625,74.0,0.0,60.0,2.0,0.0
10626,78.0,0.0,60.0,10.0,0.0
10627,81.0,0.0,60.0,8.0,0.0
10628,73.0,0.0,60.0,2.0,0.0
10629,79.0,0.0,60.0,8.0,0.0
10630,85.0,0.0,60.0,0.0,0.0
10631,76.0,120.0,60.0,10.0,0.0
10632,57.0,0.0,810.0,11.0,0.0
10633,57.0,0.0,630.0,4.0,0.0
10634,45.0,36.0,630.0,4.0,0.0
10635,78.0,0.0,60.0,8.0,0.0
10636,74.0,0.0,60.0,2.0,0.0
10637,86.0,156.0,60.0,0.0,0.0
10638,74.0,0.0,60.0,10.0,0.0
10639,78.0,0.0,120.0,8.0,0.0
10640,86.0,0.0,120.0,0.0,0.0
10641,81.0,24.0,90.0,10.0,0.0
10642,74.0,60.0,120.0,2.0,0.0
10643,85.0,0.0,60.0,0.0,0.0
10644,76.0,0.0,60.0,8.0,0.0
10645,73.0,120.0,60.0,2.0,0.0
10646,85.0,0.0,60.0,0.0,0.0
10647,76.0,0.0,60.0,8.0,0.0
10648,79.0,48.0,90.0,10.0,0.0
10649,73.0,36.0,60.0,2.0,0.0
10650,76.0,0.0,60.0,2.0,0.0
10651,79.0,0.0,60.0,8.0,0.0
10652,88.0,120.0,60.0,0.0,0.0
10653,73.0,36.0,60.0,2.0,0.0
10654,85.0,0.0,60.0,0.0,0.0
10655,79.0,0.0,60.0,8.0,0.0
10656,76.0,84.0,90.0,10.0,0.0
10657,79.0,120.0,60.0,8.0,0.0
10658,88.0,0.0,60.0,0.0,0.0
10659,76.0,0.0,60.0,2.0,0.0
10660,57.0,74.0,480.0,4.0,0.0
10661,81.0,24.0,330.0,10.0,0.0
10662,57.0,0.0,480.0,11.0,0.0
10663,78.0,0.0,60.0,8.0,0.0
10664,86.0,0.0,60.0,0.0,0.0
10665,45.0,0.0,480.0,4.0,0.0
10666,74.0,120.0,60.0,2.0,0.0
10667,73.0,0.0,60.0,2.0,0.0
10668,85.0,156.0,60.0,0.0,0.0
10669,76.0,0.0,60.0,8.0,0.0
10670,79.0,0.0,120.0,8.0,0.0
10671,76.0,60.0,120.0,2.0,0.0
10672,88.0,0.0,120.0,0.0,0.0
10673,78.0,0.0,60.0,8.0,0.0
10674,86.0,46.0,60.0,0.0,0.0
10675,74.0,0.0,60.0,2.0,0.0
10676,78.0,84.0,90.0,10.0,0.0
10677,69.0,0.0,390.0,11.0,0.0
10678,74.0,36.0,60.0,2.0,0.0
10679,86.0,0.0,60.0,0.0,0.0
10680,69.0,0.0,390.0,4.0,0.0
10681,57.0,36.0,390.0,4.0,0.0
10682,78.0,0.0,60.0,8.0,0.0
10683,81.0,0.0,60.0,8.0,0.0
10684,90.0,120.0,60.0,0.0,0.0
10685,78.0,0.0,60.0,2.0,0.0
10686,74.0,48.0,90.0,10.0,0.0
10687,78.0,36.0,60.0,8.0,0.0
10688,86.0,0.0,60.0,0.0,0.0
10689,74.0,0.0,60.0,2.0,0.0
10690,78.0,0.0,60.0,2.0,0.0
10691,90.0,120.0,60.0,0.0,0.0
10692,81.0,0.0,60.0,8.0,0.0
10693,88.0,120.0,60.0,0.0,0.0
10694,57.0,0.0,480.0,11.0,0.0
10695,81.0,24.0,330.0,10.0,0.0
10696,79.0,0.0,60.0,8.0,0.0
10697,57.0,74.0,480.0,4.0,0.0
10698,45.0,0.0,480.0,4.0,0.0
10699,76.0,0.0,60.0,2.0,0.0
10700,86.0,0.0,60.0,0.0,0.0
10701,78.0,0.0,60.0,8.0,0.0
10702,74.0,156.0,60.0,2.0,0.0
10703,78.0,0.0,120.0,2.0,0.0
10704,90.0,0.0,120.0,0.0,0.0
10705,86.0,60.0,120.0,8.0,0.0
10706,76.0,0.0,60.0,2.0,0.0
10707,88.0,0.0,60.0,0.0,0.0
10708,85.0,46.0,60.0,8.0,0.0
10709,85.0,0.0,60.0,8.0,0.0
10710,76.0,36.0,60.0,2.0,0.0
10711,57.0,0.0,390.0,4.0,0.0
10712,76.0,84.0,90.0,10.0,0.0
10713,69.0,12.0,300.0,11.0,0.0
10714,69.0,36.0,390.0,4.0,0.0
10715,88.0,0.0,60.0,0.0,0.0
10716,88.0,0.0,60.0,8.0,0.0
10717,79.0,108.0,60.0,2.0,0.0
10718,91.0,0.0,60.0,0.0,0.0
10719,76.0,0.0,60.0,2.0,0.0
10720,85.0,0.0,60.0,8.0,0.0
10721,73.0,48.0,90.0,10.0,0.0
10722,88.0,36.0,60.0,0.0,0.0
10723,93.0,120.0,60.0,0.0,0.0
10724,73.0,0.0,60.0,2.0,0.0
10725,85.0,0.0,60.0,8.0,0.0
10726,73.0,0.0,60.0,11.0,0.0
10727,57.0,90.0,690.0,4.0,0.0
10728,71.0,120.0,60.0,11.0,0.0
10729,74.0,0.0,60.0,2.0,0.0
10730,93.0,0.0,60.0,0.0,0.0
10731,81.0,0.0,810.0,10.0,0.0
10732,86.0,0.0,60.0,8.0,0.0
10733,69.0,24.0,810.0,1.0,0.0
10734,81.0,0.0,810.0,1.0,0.0
10735,93.0,0.0,60.0,0.0,0.0
10736,76.0,120.0,60.0,2.0,0.0
10737,69.0,0.0,60.0,11.0,0.0
10738,88.0,0.0,60.0,8.0,0.0
10739,74.0,120.0,60.0,11.0,0.0
10740,62.0,0.0,540.0,3.0,0.0
10741,74.0,36.0,540.0,8.0,0.0
10742,74.0,0.0,540.0,2.0,0.0
10743,78.0,0.0,390.0,5.0,0.0
10744,66.0,0.0,390.0,5.0,0.0
10745,54.0,36.0,390.0,6.0,0.0
10746,86.0,0.0,540.0,0.0,0.0
10747,57.0,120.0,60.0,12.0,0.0
10748,45.0,0.0,60.0,13.0,0.0
10749,66.0,0.0,60.0,11.0,0.0
10750,55.0,0.0,60.0,12.0,0.0
10751,43.0,0.0,60.0,13.0,0.0
10752,69.0,24.0,120.0,4.0,0.0
10753,64.0,60.0,60.0,11.0,0.0
10754,62.0,30.0,60.0,11.0,0.0
10755,42.0,0.0,60.0,13.0,0.0
10756,54.0,0.0,60.0,12.0,0.0
10757,67.0,0.0,60.0,11.0,0.0
10758,52.0,0.0,60.0,12.0,0.0
10759,69.0,60.0,120.0,4.0,0.0
10760,40.0,0.0,60.0,13.0,0.0
10761,78.0,0.0,60.0,2.0,0.0
10762,66.0,120.0,60.0,11.0,0.0
10763,50.0,0.0,60.0,12.0,0.0
10764,78.0,0.0,60.0,8.0,0.0
10765,66.0,0.0,60.0,3.0,0.0
10766,38.0,0.0,60.0,13.0,0.0
10767,90.0,0.0,60.0,0.0,0.0
10768,66.0,60.0,120.0,5.0,0.0
10769,49.0,0.0,60.0,12.0,0.0
10770,88.0,0.0,60.0,0.0,0.0
10771,76.0,0.0,60.0,8.0,0.0
10772,55.0,0.0,60.0,11.0,0.0
10773,76.0,60.0,60.0,2.0,0.0
10774,54.0,144.0,180.0,6.0,0.0
10775,69.0,0.0,1380.0,10.0,0.0
10776,57.0,0.0,810.0,4.0,0.0
10777,37.0,0.0,60.0,13.0,0.0
10778,69.0,34.0,1380.0,1.0,0.0
10779,78.0,0.0,120.0,5.0,0.0
10780,64.0,0.0,60.0,3.0,0.0
10781,74.0,0.0,60.0,8.0,0.0
10782,38.0,0.0,60.0,13.0,0.0
10783,74.0,0.0,60.0,2.0,0.0
10784,54.0,0.0,60.0,11.0,0.0
10785,62.0,0.0,60.0,3.0,0.0
10786,50.0,0.0,60.0,12.0,0.0
10787,86.0,12.0,60.0,0.0,0.0
10788,69.0,0.0,90.0,3.0,0.0
10789,38.0,0.0,120.0,13.0,0.0
10790,81.0,0.0,90.0,2.0,0.0
10791,93.0,0.0,90.0,0.0,0.0
10792,54.0,0.0,120.0,11.0,0.0
10793,81.0,24.0,90.0,8.0,0.0
10794,50.0,60.0,120.0,12.0,0.0
10795,37.0,0.0,60.0,13.0,0.0
10796,49.0,0.0,60.0,12.0,0.0
10797,52.0,120.0,60.0,11.0,0.0
10798,67.0,0.0,90.0,3.0,0.0
10799,69.0,60.0,120.0,4.0,0.0
10800,52.0,36.0,60.0,11.0,0.0
10801,73.0,0.0,60.0,5.0,0.0
10802,61.0,0.0,60.0,5.0,0.0
10803,49.0,0.0,60.0,12.0,0.0
10804,91.0,0.0,90.0,0.0,0.0
10805,37.0,0.0,60.0,13.0,0.0
10806,79.0,0.0,90.0,8.0,0.0
10807,49.0,0.0,90.0,6.0,0.0
10808,79.0,0.0,90.0,2.0,0.0
10809,52.0,36.0,60.0,12.0,0.0
10810,49.0,84.0,90.0,6.0,0.0
10811,73.0,0.0,60.0,5.0,0.0
10812,61.0,0.0,60.0,5.0,0.0
10813,40.0,0.0,60.0,13.0,0.0
10814,55.0,0.0,60.0,11.0,0.0
10815,49.0,0.0,60.0,12.0,0.0
10816,76.0,0.0,90.0,2.0,0.0
10817,64.0,0.0,90.0,3.0,0.0
10818,52.0,36.0,60.0,11.0,0.0
10819,49.0,108.0,180.0,6.0,0.0
10820,76.0,0.0,90.0,8.0,0.0
10821,88.0,24.0,90.0,0.0,0.0
10822,37.0,0.0,60.0,13.0,0.0
10823,69.0,60.0,120.0,4.0,0.0
10824,61.0,0.0,120.0,5.0,0.0
10825,73.0,0.0,120.0,5.0,0.0
10826,40.0,0.0,60.0,13.0,0.0
10827,52.0,0.0,60.0,12.0,0.0
10828,55.0,12.0,60.0,11.0,0.0
10829,69.0,0.0,330.0,3.0,0.0
10830,93.0,24.0,330.0,0.0,0.0
10831,57.0,74.0,480.0,4.0,0.0
10832,81.0,0.0,330.0,8.0,0.0
10833,81.0,0.0,330.0,2.0,0.0
10834,54.0,0.0,60.0,11.0,0.0
10835,50.0,0.0,60.0,12.0,0.0
10836,38.0,120.0,60.0,13.0,0.0
10837,49.0,156.0,60.0,12.0,0.0
10838,37.0,0.0,60.0,13.0,0.0
10839,52.0,0.0,60.0,11.0,0.0
10840,40.0,0.0,120.0,13.0,0.0
10841,55.0,60.0,120.0,11.0,0.0
10842,52.0,0.0,120.0,12.0,0.0
10843,50.0,12.0,60.0,12.0,0.0
10844,38.0,0.0,60.0,13.0,0.0
10845,54.0,0.0,60.0,11.0,0.0
10846,78.0,0.0,90.0,8.0,0.0
10847,54.0,0.0,90.0,6.0,0.0
10848,81.0,0.0,390.0,1.0,0.0
10849,50.0,0.0,60.0,12.0,0.0
10850,78.0,36.0,60.0,5.0,0.0
10851,66.0,0.0,60.0,5.0,0.0
10852,78.0,0.0,90.0,2.0,0.0
10853,69.0,60.0,120.0,4.0,0.0
10854,90.0,0.0,90.0,0.0,0.0
10855,38.0,0.0,60.0,13.0,0.0
10856,54.0,0.0,60.0,11.0,0.0
10857,81.0,0.0,390.0,10.0,0.0
10858,66.0,24.0,90.0,3.0,0.0
10859,66.0,0.0,60.0,5.0,0.0
10860,42.0,0.0,60.0,13.0,0.0
10861,78.0,0.0,60.0,5.0,0.0
10862,54.0,84.0,90.0,6.0,0.0
10863,57.0,36.0,60.0,11.0,0.0
10864,54.0,0.0,60.0,12.0,0.0
10865,69.0,36.0,60.0,11.0,0.0
10866,62.0,0.0,90.0,3.0,0.0
10867,54.0,108.0,180.0,6.0,0.0
10868,38.0,0.0,60.0,13.0,0.0
10869,50.0,0.0,60.0,12.0,0.0
10870,74.0,24.0,90.0,2.0,0.0
10871,86.0,0.0,90.0,0.0,0.0
10872,69.0,24.0,120.0,4.0,0.0
10873,74.0,0.0,90.0,8.0,0.0
10874,78.0,0.0,120.0,5.0,0.0
10875,66.0,0.0,120.0,5.0,0.0
10876,42.0,12.0,60.0,13.0,0.0
10877,54.0,0.0,60.0,12.0,0.0
10878,57.0,0.0,60.0,11.0,0.0
10879,52.0,0.0,60.0,12.0,0.0
10880,69.0,0.0,420.0,10.0,0.0
10881,81.0,0.0,330.0,8.0,0.0
10882,81.0,0.0,330.0,2.0,0.0
10883,69.0,0.0,330.0,3.0,0.0
10884,55.0,0.0,60.0,11.0,0.0
10885,93.0,24.0,330.0,0.0,0.0
10886,69.0,34.0,420.0,1.0,0.0
10887,40.0,120.0,60.0,13.0,0.0
10888,57.0,74.0,480.0,4.0,0.0
10889,54.0,0.0,60.0,11.0,0.0
10890,38.0,0.0,60.0,13.0,0.0
10891,50.0,156.0,60.0,12.0,0.0
10892,42.0,0.0,120.0,13.0,0.0
10893,54.0,60.0,120.0,12.0,0.0
10894,57.0,0.0,120.0,11.0,0.0
10895,40.0,0.0,60.0,13.0,0.0
10896,55.0,0.0,60.0,11.0,0.0
10897,52.0,12.0,60.0,12.0,0.0
10898,81.0,0.0,390.0,1.0,0.0
10899,52.0,0.0,60.0,12.0,0.0
10900,49.0,0.0,90.0,6.0,0.0
10901,40.0,0.0,60.0,13.0,0.0
10902,76.0,0.0,90.0,8.0,0.0
10903,73.0,0.0,60.0,5.0,0.0
10904,81.0,0.0,390.0,10.0,0.0
10905,76.0,0.0,90.0,2.0,0.0
10906,88.0,0.0,90.0,0.0,0.0
10907,69.0,60.0,120.0,4.0,0.0
10908,64.0,24.0,90.0,3.0,0.0
10909,55.0,36.0,60.0,11.0,0.0
10910,61.0,0.0,60.0,5.0,0.0
10911,43.0,0.0,60.0,13.0,0.0
10912,55.0,36.0,60.0,12.0,0.0
10913,49.0,84.0,90.0,6.0,0.0
10914,61.0,0.0,60.0,5.0,0.0
10915,73.0,0.0,60.0,5.0,0.0
10916,64.0,0.0,60.0,11.0,0.0
10917,73.0,0.0,90.0,8.0,0.0
10918,85.0,0.0,90.0,0.0,0.0
10919,73.0,0.0,90.0,2.0,0.0
10920,49.0,108.0,180.0,6.0,0.0
10921,61.0,24.0,90.0,3.0,0.0
10922,69.0,0.0,120.0,4.0,0.0
10923,55.0,0.0,60.0,12.0,0.0
10924,43.0,0.0,60.0,13.0,0.0
10925,64.0,36.0,60.0,11.0,0.0
10926,73.0,0.0,120.0,5.0,0.0
10927,61.0,24.0,120.0,5.0,0.0
10928,55.0,0.0,60.0,12.0,0.0
10929,43.0,12.0,60.0,13.0,0.0
10930,52.0,0.0,60.0,11.0,0.0
10931,54.0,0.0,60.0,11.0,0.0
10932,81.0,0.0,810.0,1.0,0.0
10933,69.0,0.0,480.0,3.0,0.0
10934,81.0,24.0,360.0,8.0,0.0
10935,81.0,84.0,90.0,2.0,0.0
10936,57.0,0.0,480.0,4.0,0.0
10937,93.0,74.0,480.0,0.0,0.0
10938,69.0,112.0,180.0,10.0,0.0
10939,54.0,0.0,60.0,12.0,0.0
10940,42.0,36.0,60.0,13.0,0.0
10941,40.0,0.0,60.0,13.0,0.0
10942,55.0,12.0,60.0,11.0,0.0
10943,52.0,0.0,60.0,12.0,0.0
10944,52.0,0.0,120.0,12.0,0.0
10945,40.0,0.0,120.0,13.0,0.0
10946,69.0,56.0,60.0,10.0,0.0
10947,54.0,32.0,180.0,4.0,0.0
10948,69.0,0.0,570.0,2.0,0.0
10949,55.0,0.0,120.0,11.0,0.0
10950,66.0,24.0,570.0,2.0,0.0
10951,78.0,0.0,570.0,1.0,0.0
10952,66.0,36.0,60.0,10.0,0.0
10953,78.0,0.0,60.0,10.0,0.0
10954,50.0,12.0,60.0,12.0,0.0
10955,38.0,0.0,60.0,13.0,0.0
10956,54.0,0.0,60.0,11.0,0.0
10957,78.0,0.0,60.0,10.0,0.0
10958,66.0,2.0,60.0,10.0,0.0
10959,78.0,48.0,90.0,8.0,0.0
10960,78.0,32.0,60.0,10.0,0.0
10961,69.0,0.0,390.0,4.0,0.0
10962,57.0,36.0,390.0,4.0,0.0
10963,50.0,0.0,60.0,12.0,0.0
10964,54.0,0.0,60.0,11.0,0.0
10965,54.0,0.0,390.0,4.0,0.0
10966,66.0,0.0,390.0,4.0,0.0
10967,38.0,0.0,60.0,13.0,0.0
10968,66.0,4.0,60.0,5.0,0.0
10969,66.0,0.0,60.0,10.0,0.0
10970,54.0,0.0,90.0,6.0,0.0
10971,78.0,0.0,60.0,5.0,0.0
10972,66.0,0.0,90.0,3.0,0.0
10973,90.0,0.0,90.0,0.0,0.0
10974,66.0,0.0,60.0,10.0,0.0
10975,78.0,36.0,60.0,10.0,0.0
10976,54.0,0.0,60.0,12.0,0.0
10977,57.0,0.0,60.0,11.0,0.0
10978,54.0,8.0,90.0,6.0,0.0
10979,78.0,0.0,60.0,5.0,0.0
10980,66.0,0.0,60.0,5.0,0.0
10981,42.0,36.0,60.0,13.0,0.0
10982,66.0,0.0,60.0,10.0,0.0
10983,78.0,76.0,60.0,10.0,0.0
10984,86.0,0.0,90.0,0.0,0.0
10985,42.0,0.0,60.0,13.0,0.0
10986,66.0,24.0,120.0,5.0,0.0
10987,78.0,0.0,120.0,5.0,0.0
10988,54.0,0.0,60.0,12.0,0.0
10989,74.0,0.0,90.0,8.0,0.0
10990,78.0,32.0,60.0,10.0,0.0
10991,66.0,0.0,60.0,10.0,0.0
10992,57.0,4.0,60.0,11.0,0.0
10993,62.0,0.0,90.0,3.0,0.0
10994,54.0,32.0,180.0,6.0,0.0
10995,66.0,0.0,60.0,10.0,0.0
10996,78.0,0.0,60.0,10.0,0.0
10997,54.0,12.0,60.0,11.0,0.0
10998,42.0,0.0,60.0,13.0,0.0
10999,54.0,0.0,60.0,12.0,0.0
11000,78.0,0.0,60.0,10.0,0.0
11001,66.0,76.0,60.0,10.0,0.0
11002,71.0,0.0,810.0,2.0,0.0
11003,66.0,0.0,810.0,2.0,0.0
11004,83.0,0.0,360.0,8.0,0.0
11005,78.0,80.0,60.0,10.0,0.0
11006,66.0,0.0,60.0,10.0,0.0
11007,71.0,0.0,360.0,3.0,0.0
11008,78.0,0.0,810.0,1.0,0.0
11009,83.0,24.0,810.0,1.0,0.0
11010,40.0,0.0,60.0,13.0,0.0
11011,52.0,0.0,60.0,12.0,0.0
11012,95.0,0.0,360.0,0.0,0.0
11013,66.0,4.0,60.0,11.0,0.0
11014,54.0,0.0,480.0,4.0,0.0
11015,66.0,0.0,480.0,4.0,0.0
11016,66.0,0.0,60.0,10.0,0.0
11017,78.0,36.0,60.0,10.0,0.0
11018,38.0,44.0,60.0,13.0,0.0
11019,66.0,0.0,60.0,11.0,0.0
11020,50.0,0.0,60.0,12.0,0.0
11021,66.0,80.0,60.0,10.0,0.0
11022,78.0,0.0,60.0,10.0,0.0
11023,78.0,0.0,60.0,10.0,0.0
11024,66.0,56.0,60.0,10.0,0.0
11025,38.0,0.0,120.0,13.0,0.0
11026,59.0,24.0,120.0,11.0,0.0
11027,50.0,0.0,120.0,12.0,0.0
11028,66.0,36.0,60.0,10.0,0.0
11029,78.0,0.0,60.0,10.0,0.0
11030,57.0,44.0,60.0,11.0,0.0
11031,49.0,0.0,60.0,12.0,0.0
11032,37.0,0.0,60.0,13.0,0.0
11033,78.0,0.0,60.0,10.0,0.0
11034,66.0,2.0,60.0,10.0,0.0
11035,54.0,0.0,90.0,6.0,0.0
11036,37.0,0.0,60.0,13.0,0.0
11037,78.0,0.0,90.0,8.0,0.0
11038,78.0,0.0,60.0,5.0,0.0
11039,66.0,0.0,60.0,5.0,0.0
11040,66.0,0.0,90.0,3.0,0.0
11041,49.0,0.0,60.0,12.0,0.0
11042,71.0,0.0,390.0,4.0,0.0
11043,57.0,4.0,60.0,11.0,0.0
11044,66.0,32.0,60.0,10.0,0.0
11045,78.0,0.0,60.0,10.0,0.0
11046,66.0,0.0,390.0,4.0,0.0
11047,54.0,0.0,390.0,4.0,0.0
11048,90.0,48.0,90.0,0.0,0.0
11049,66.0,0.0,60.0,10.0,0.0
11050,78.0,36.0,60.0,10.0,0.0
11051,54.0,8.0,90.0,6.0,0.0
11052,66.0,0.0,60.0,5.0,0.0
11053,50.0,0.0,60.0,12.0,0.0
11054,78.0,36.0,60.0,5.0,0.0
11055,38.0,0.0,60.0,13.0,0.0
11056,59.0,0.0,60.0,11.0,0.0
11057,78.0,0.0,60.0,10.0,0.0
11058,66.0,76.0,60.0,10.0,0.0
11059,78.0,0.0,90.0,0.0,0.0
11060,59.0,0.0,60.0,11.0,0.0
11061,78.0,0.0,120.0,5.0,0.0
11062,66.0,24.0,120.0,5.0,0.0
11063,54.0,32.0,180.0,6.0,0.0
11064,66.0,32.0,60.0,10.0,0.0
11065,78.0,0.0,60.0,10.0,0.0
11066,66.0,0.0,90.0,8.0,0.0
11067,54.0,0.0,90.0,3.0,0.0
11068,49.0,0.0,60.0,12.0,0.0
11069,37.0,4.0,60.0,13.0,0.0
11070,66.0,0.0,60.0,10.0,0.0
11071,78.0,0.0,60.0,10.0,0.0
11072,42.0,12.0,60.0,13.0,0.0
11073,54.0,0.0,60.0,12.0,0.0
11074,57.0,0.0,60.0,11.0,0.0
11075,66.0,76.0,60.0,10.0,0.0
11076,78.0,0.0,60.0,10.0,0.0
11077,95.0,0.0,360.0,0.0,0.0
11078,83.0,24.0,360.0,8.0,0.0
11079,66.0,0.0,810.0,2.0,0.0
11080,83.0,0.0,810.0,1.0,0.0
11081,78.0,0.0,810.0,1.0,0.0
11082,71.0,0.0,810.0,2.0,0.0
11083,50.0,0.0,60.0,12.0,0.0
11084,78.0,80.0,60.0,10.0,0.0
11085,66.0,0.0,60.0,10.0,0.0
11086,38.0,4.0,60.0,13.0,0.0
11087,54.0,0.0,480.0,4.0,0.0
11088,71.0,0.0,360.0,3.0,0.0
11089,54.0,0.0,60.0,11.0,0.0
11090,66.0,0.0,480.0,4.0,0.0
11091,78.0,36.0,60.0,10.0,0.0
11092,66.0,0.0,60.0,10.0,0.0
11093,49.0,0.0,60.0,12.0,0.0
11094,37.0,44.0,60.0,13.0,0.0
11095,66.0,0.0,60.0,11.0,0.0
11096,78.0,80.0,60.0,10.0,0.0
11097,66.0,0.0,60.0,10.0,0.0
11098,78.0,0.0,60.0,10.0,0.0
11099,38.0,0.0,120.0,13.0,0.0
11100,50.0,0.0,120.0,12.0,0.0
11101,59.0,0.0,120.0,11.0,0.0
11102,66.0,56.0,60.0,10.0,0.0
11103,78.0,0.0,60.0,10.0,0.0
11104,66.0,36.0,60.0,10.0,0.0
11105,49.0,0.0,60.0,12.0,0.0
11106,57.0,0.0,60.0,11.0,0.0
11107,37.0,44.0,60.0,13.0,0.0
11108,66.0,2.0,60.0,10.0,0.0
11109,78.0,0.0,60.0,10.0,0.0
11110,66.0,0.0,60.0,5.0,0.0
11111,78.0,0.0,60.0,5.0,0.0
11112,37.0,0.0,60.0,13.0,0.0
11113,71.0,0.0,390.0,4.0,0.0
11114,78.0,0.0,90.0,8.0,0.0
11115,66.0,0.0,390.0,4.0,0.0
11116,66.0,0.0,90.0,3.0,0.0
11117,54.0,0.0,390.0,4.0,0.0
11118,49.0,0.0,60.0,12.0,0.0
11119,78.0,32.0,60.0,10.0,0.0
11120,66.0,0.0,60.0,10.0,0.0
11121,54.0,48.0,90.0,6.0,0.0
11122,57.0,4.0,60.0,11.0,0.0
11123,90.0,0.0,90.0,0.0,0.0
11124,78.0,36.0,60.0,10.0,0.0
11125,66.0,0.0,60.0,10.0,0.0
11126,66.0,36.0,60.0,5.0,0.0
11127,50.0,0.0,60.0,12.0,0.0
11128,38.0,0.0,60.0,13.0,0.0
11129,78.0,0.0,60.0,5.0,0.0
11130,59.0,0.0,60.0,11.0,0.0
11131,54.0,8.0,90.0,6.0,0.0
11132,66.0,76.0,60.0,10.0,0.0
11133,78.0,0.0,60.0,10.0,0.0
11134,78.0,24.0,120.0,5.0,0.0
11135,54.0,32.0,180.0,6.0,0.0
11136,37.0,0.0,60.0,13.0,0.0
11137,54.0,0.0,90.0,3.0,0.0
11138,59.0,4.0,60.0,11.0,0.0
11139,66.0,0.0,90.0,8.0,0.0
11140,66.0,0.0,120.0,5.0,0.0
11141,49.0,0.0,60.0,12.0,0.0
11142,78.0,24.0,90.0,0.0,0.0
11143,66.0,0.0,60.0,10.0,0.0
11144,78.0,32.0,60.0,10.0,0.0
11145,78.0,0.0,60.0,10.0,0.0
11146,66.0,0.0,60.0,10.0,0.0
11147,57.0,12.0,60.0,11.0,0.0
11148,42.0,0.0,60.0,13.0,0.0
11149,54.0,0.0,60.0,12.0,0.0
11150,66.0,76.0,60.0,10.0,0.0
11151,78.0,0.0,60.0,10.0,0.0
11152,93.0,0.0,360.0,0.0,0.0
11153,81.0,0.0,360.0,8.0,0.0
11154,78.0,32.0,180.0,1.0,0.0
11155,81.0,0.0,810.0,1.0,0.0
11156,50.0,0.0,60.0,12.0,0.0
11157,38.0,0.0,60.0,13.0,0.0
11158,66.0,0.0,480.0,4.0,0.0
11159,54.0,4.0,60.0,11.0,0.0
11160,69.0,0.0,360.0,3.0,0.0
11161,54.0,0.0,480.0,4.0,0.0
11162,69.0,0.0,810.0,2.0,0.0
11163,66.0,0.0,180.0,2.0,0.0
11164,66.0,80.0,60.0,10.0,0.0
11165,78.0,0.0,60.0,10.0,0.0
11166,78.0,0.0,60.0,10.0,0.0
11167,66.0,36.0,60.0,10.0,0.0
11168,66.0,0.0,60.0,11.0,0.0
11169,49.0,12.0,60.0,12.0,0.0
11170,37.0,0.0,60.0,13.0,0.0
11171,66.0,0.0,60.0,10.0,0.0
11172,78.0,80.0,60.0,10.0,0.0
11173,37.0,0.0,120.0,13.0,0.0
11174,75.0,0.0,570.0,1.0,0.0
11175,78.0,56.0,60.0,10.0,0.0
11176,66.0,0.0,60.0,10.0,0.0
11177,63.0,0.0,570.0,2.0,0.0
11178,66.0,0.0,120.0,11.0,0.0
11179,49.0,24.0,120.0,12.0,0.0
11180,78.0,0.0,60.0,10.0,0.0
11181,66.0,36.0,60.0,10.0,0.0
11182,48.0,0.0,60.0,12.0,0.0
11183,36.0,44.0,60.0,13.0,0.0
11184,63.0,0.0,60.0,11.0,0.0
11185,66.0,2.0,60.0,10.0,0.0
11186,78.0,0.0,60.0,10.0,0.0
11187,66.0,4.0,60.0,5.0,0.0
11188,48.0,0.0,60.0,12.0,0.0
11189,63.0,48.0,90.0,3.0,0.0
11190,78.0,0.0,60.0,5.0,0.0
11191,78.0,32.0,60.0,10.0,0.0
11192,75.0,0.0,90.0,8.0,0.0
11193,63.0,0.0,60.0,11.0,0.0
11194,66.0,0.0,60.0,10.0,0.0
11195,54.0,0.0,390.0,4.0,0.0
11196,66.0,0.0,390.0,4.0,0.0
11197,36.0,0.0,60.0,13.0,0.0
11198,87.0,0.0,90.0,0.0,0.0
11199,54.0,0.0,90.0,6.0,0.0
11200,66.0,0.0,60.0,10.0,0.0
11201,78.0,36.0,60.0,10.0,0.0
11202,78.0,0.0,60.0,5.0,0.0
11203,66.0,0.0,60.0,5.0,0.0
11204,37.0,0.0,60.0,13.0,0.0
11205,64.0,0.0,60.0,11.0,0.0
11206,49.0,36.0,60.0,12.0,0.0
11207,54.0,8.0,90.0,6.0,0.0
11208,66.0,76.0,60.0,10.0,0.0
11209,78.0,0.0,60.0,10.0,0.0
11210,48.0,0.0,60.0,12.0,0.0
11211,66.0,0.0,60.0,10.0,0.0
11212,54.0,32.0,180.0,6.0,0.0
11213,78.0,32.0,60.0,10.0,0.0
11214,78.0,24.0,120.0,5.0,0.0
11215,66.0,24.0,90.0,8.0,0.0
11216,63.0,4.0,60.0,11.0,0.0
11217,66.0,0.0,120.0,5.0,0.0
11218,54.0,0.0,90.0,3.0,0.0
11219,78.0,0.0,90.0,0.0,0.0
11220,36.0,0.0,60.0,13.0,0.0
11221,78.0,0.0,60.0,10.0,0.0
11222,66.0,36.0,60.0,10.0,0.0
11223,66.0,0.0,60.0,11.0,0.0
11224,51.0,0.0,60.0,12.0,0.0
11225,39.0,12.0,60.0,13.0,0.0
11226,78.0,76.0,60.0,10.0,0.0
11227,66.0,0.0,60.0,10.0,0.0
11228,93.0,0.0,360.0,0.0,0.0
11229,63.0,0.0,480.0,2.0,0.0
11230,69.0,74.0,480.0,2.0,0.0
11231,64.0,0.0,60.0,11.0,0.0
11232,78.0,80.0,60.0,10.0,0.0
11233,37.0,4.0,60.0,13.0,0.0
11234,69.0,24.0,360.0,3.0,0.0
11235,66.0,0.0,60.0,10.0,0.0
11236,81.0,0.0,360.0,8.0,0.0
11237,49.0,0.0,60.0,12.0,0.0
11238,81.0,0.0,480.0,1.0,0.0
11239,75.0,0.0,480.0,1.0,0.0
11240,54.0,0.0,480.0,4.0,0.0
11241,66.0,0.0,480.0,4.0,0.0
11242,78.0,36.0,60.0,10.0,0.0
11243,66.0,0.0,60.0,10.0,0.0
11244,63.0,0.0,60.0,11.0,0.0
11245,36.0,44.0,60.0,13.0,0.0
11246,48.0,0.0,60.0,12.0,0.0
11247,78.0,0.0,60.0,10.0,0.0
11248,66.0,80.0,60.0,10.0,0.0
11249,66.0,0.0,120.0,11.0,0.0
11250,78.0,56.0,60.0,10.0,0.0
11251,66.0,0.0,60.0,10.0,0.0
11252,37.0,0.0,120.0,13.0,0.0
11253,49.0,0.0,120.0,12.0,0.0
11254,66.0,0.0,60.0,10.0,0.0
11255,78.0,36.0,60.0,10.0,0.0
11256,36.0,0.0,60.0,13.0,0.0
11257,63.0,44.0,60.0,11.0,0.0
11258,48.0,0.0,60.0,12.0,0.0
11259,66.0,2.0,60.0,10.0,0.0
11260,78.0,0.0,60.0,10.0,0.0
11261,66.0,0.0,60.0,5.0,0.0
11262,66.0,0.0,60.0,10.0,0.0
11263,87.0,0.0,90.0,0.0,0.0
11264,54.0,0.0,90.0,6.0,0.0
11265,54.0,6.0,210.0,4.0,0.0
11266,66.0,0.0,210.0,4.0,0.0
11267,78.0,32.0,60.0,10.0,0.0
11268,75.0,0.0,450.0,1.0,0.0
11269,69.0,14.0,450.0,2.0,0.0
11270,36.0,0.0,60.0,13.0,0.0
11271,75.0,0.0,90.0,8.0,0.0
11272,81.0,0.0,450.0,1.0,0.0
11273,78.0,0.0,60.0,5.0,0.0
11274,63.0,48.0,90.0,3.0,0.0
11275,63.0,4.0,60.0,11.0,0.0
11276,63.0,0.0,450.0,2.0,0.0
11277,48.0,0.0,60.0,12.0,0.0
11278,78.0,0.0,60.0,10.0,0.0
11279,66.0,36.0,60.0,10.0,0.0
11280,49.0,0.0,60.0,12.0,0.0
11281,54.0,8.0,90.0,6.0,0.0
11282,37.0,0.0,60.0,13.0,0.0
11283,78.0,0.0,60.0,5.0,0.0
11284,66.0,0.0,60.0,5.0,0.0
11285,64.0,30.0,60.0,11.0,0.0
11286,66.0,76.0,60.0,10.0,0.0
11287,78.0,0.0,60.0,10.0,0.0
11288,54.0,0.0,90.0,3.0,0.0
11289,36.0,0.0,60.0,13.0,0.0
11290,78.0,0.0,90.0,0.0,0.0
11291,54.0,18.0,180.0,6.0,0.0
11292,63.0,4.0,60.0,11.0,0.0
11293,66.0,24.0,90.0,8.0,0.0
11294,48.0,0.0,60.0,12.0,0.0
11295,78.0,0.0,120.0,5.0,0.0
11296,66.0,24.0,120.0,5.0,0.0
11297,78.0,0.0,60.0,10.0,0.0
11298,66.0,32.0,60.0,10.0,0.0
11299,78.0,0.0,60.0,10.0,0.0
11300,66.0,0.0,60.0,10.0,0.0
11301,51.0,0.0,60.0,12.0,0.0
11302,39.0,12.0,60.0,13.0,0.0
11303,66.0,0.0,60.0,11.0,0.0
11304,78.0,0.0,60.0,10.0,0.0
11305,66.0,76.0,60.0,10.0,0.0
11306,77.0,78.0,240.0,1.0,0.0
11307,37.0,0.0,60.0,13.0,0.0
11308,77.0,80.0,60.0,10.0,0.0
11309,92.0,0.0,360.0,8.0,0.0
11310,80.0,0.0,810.0,1.0,0.0
11311,68.0,0.0,360.0,3.0,0.0
11312,68.0,0.0,810.0,2.0,0.0
11313,92.0,24.0,360.0,0.0,0.0
11314,65.0,0.0,240.0,2.0,0.0
11315,49.0,0.0,60.0,12.0,0.0
11316,61.0,32.0,180.0,4.0,0.0
11317,65.0,4.0,60.0,11.0,0.0
11318,80.0,36.0,60.0,10.0,0.0
11319,68.0,0.0,60.0,11.0,0.0
11320,36.0,0.0,60.0,13.0,0.0
11321,48.0,12.0,60.0,12.0,0.0
11322,80.0,2.0,60.0,10.0,0.0
11323,73.0,0.0,60.0,10.0,0.0
11324,68.0,0.0,120.0,11.0,0.0
11325,61.0,0.0,570.0,2.0,0.0
11326,61.0,56.0,60.0,10.0,0.0
11327,73.0,24.0,570.0,1.0,0.0
11328,47.0,0.0,120.0,12.0,0.0
11329,61.0,74.0,240.0,4.0,0.0
11330,35.0,0.0,120.0,13.0,0.0
11331,61.0,0.0,60.0,10.0,0.0
11332,73.0,36.0,60.0,10.0,0.0
11333,34.0,0.0,60.0,13.0,0.0
11334,61.0,0.0,60.0,11.0,0.0
11335,46.0,44.0,60.0,12.0,0.0
11336,61.0,0.0,60.0,10.0,0.0
11337,73.0,2.0,60.0,10.0,0.0
11338,85.0,0.0,90.0,0.0,0.0
11339,61.0,0.0,90.0,3.0,0.0
11340,61.0,0.0,390.0,4.0,0.0
11341,73.0,0.0,90.0,8.0,0.0
11342,49.0,0.0,90.0,6.0,0.0
11343,61.0,32.0,60.0,10.0,0.0
11344,73.0,0.0,60.0,10.0,0.0
11345,58.0,0.0,60.0,11.0,0.0
11346,73.0,0.0,390.0,4.0,0.0
11347,34.0,0.0,60.0,13.0,0.0
11348,46.0,0.0,60.0,12.0,0.0
11349,73.0,0.0,60.0,5.0,0.0
11350,61.0,0.0,60.0,5.0,0.0
11351,73.0,0.0,60.0,10.0,0.0
11352,61.0,36.0,60.0,10.0,0.0
11353,73.0,0.0,60.0,5.0,0.0
11354,61.0,0.0,60.0,5.0,0.0
11355,59.0,0.0,60.0,11.0,0.0
11356,49.0,8.0,90.0,6.0,0.0
11357,47.0,0.0,60.0,12.0,0.0
11358,35.0,36.0,60.0,13.0,0.0
11359,61.0,0.0,60.0,10.0,0.0
11360,73.0,76.0,60.0,10.0,0.0
11361,34.0,0.0,60.0,13.0,0.0
11362,85.0,0.0,60.0,10.0,0.0
11363,73.0,32.0,60.0,10.0,0.0
11364,46.0,0.0,60.0,12.0,0.0
11365,78.0,0.0,90.0,0.0,0.0
11366,49.0,32.0,180.0,6.0,0.0
11367,73.0,24.0,120.0,5.0,0.0
11368,61.0,0.0,120.0,5.0,0.0
11369,58.0,4.0,60.0,11.0,0.0
11370,54.0,0.0,90.0,3.0,0.0
11371,66.0,0.0,90.0,8.0,0.0
11372,85.0,0.0,60.0,10.0,0.0
11373,73.0,36.0,60.0,10.0,0.0
11374,61.0,0.0,60.0,11.0,0.0
11375,49.0,12.0,60.0,12.0,0.0
11376,37.0,0.0,60.0,13.0,0.0
11377,85.0,76.0,60.0,10.0,0.0
11378,73.0,0.0,60.0,10.0,0.0
11379,68.0,0.0,360.0,3.0,0.0
11380,59.0,0.0,60.0,11.0,0.0
11381,80.0,32.0,420.0,1.0,0.0
11382,92.0,0.0,360.0,0.0,0.0
11383,35.0,4.0,60.0,13.0,0.0
11384,85.0,80.0,60.0,10.0,0.0
11385,92.0,24.0,360.0,8.0,0.0
11386,68.0,0.0,420.0,2.0,0.0
11387,61.0,0.0,480.0,4.0,0.0
11388,49.0,74.0,480.0,4.0,0.0
11389,73.0,0.0,60.0,10.0,0.0
11390,47.0,0.0,60.0,12.0,0.0
11391,73.0,0.0,420.0,1.0,0.0
11392,61.0,0.0,420.0,2.0,0.0
11393,85.0,36.0,60.0,10.0,0.0
11394,73.0,0.0,60.0,10.0,0.0
11395,34.0,44.0,60.0,13.0,0.0
11396,46.0,0.0,60.0,12.0,0.0
11397,58.0,0.0,60.0,11.0,0.0
11398,73.0,80.0,60.0,10.0,0.0
11399,85.0,0.0,60.0,10.0,0.0
11400,85.0,0.0,60.0,10.0,0.0
11401,73.0,56.0,60.0,10.0,0.0
11402,47.0,0.0,120.0,12.0,0.0
11403,35.0,0.0,120.0,13.0,0.0
11404,59.0,0.0,120.0,11.0,0.0
11405,85.0,36.0,60.0,10.0,0.0
11406,73.0,0.0,60.0,10.0,0.0
11407,46.0,12.0,60.0,12.0,0.0
11408,58.0,0.0,60.0,11.0,0.0
11409,34.0,0.0,60.0,13.0,0.0
11410,85.0,0.0,60.0,10.0,0.0
11411,73.0,2.0,60.0,10.0,0.0
11412,58.0,0.0,60.0,11.0,0.0
11413,54.0,0.0,390.0,4.0,0.0
11414,85.0,32.0,60.0,10.0,0.0
11415,73.0,0.0,60.0,10.0,0.0
11416,46.0,0.0,60.0,12.0,0.0
11417,85.0,0.0,90.0,0.0,0.0
11418,49.0,0.0,90.0,6.0,0.0
11419,61.0,0.0,390.0,2.0,0.0
11420,73.0,4.0,60.0,5.0,0.0
11421,73.0,0.0,390.0,4.0,0.0
11422,61.0,0.0,90.0,3.0,0.0
11423,34.0,0.0,60.0,13.0,0.0
11424,61.0,0.0,390.0,4.0,0.0
11425,78.0,0.0,390.0,1.0,0.0
11426,73.0,0.0,390.0,1.0,0.0
11427,73.0,0.0,90.0,8.0,0.0
11428,66.0,36.0,390.0,2.0,0.0
11429,66.0,0.0,390.0,4.0,0.0
11430,61.0,0.0,60.0,5.0,0.0
11431,85.0,36.0,60.0,10.0,0.0
11432,73.0,0.0,60.0,10.0,0.0
11433,49.0,8.0,90.0,6.0,0.0
11434,61.0,0.0,60.0,5.0,0.0
11435,35.0,0.0,60.0,13.0,0.0
11436,73.0,36.0,60.0,5.0,0.0
11437,47.0,0.0,60.0,12.0,0.0
11438,59.0,0.0,60.0,11.0,0.0
11439,73.0,0.0,60.0,10.0,0.0
11440,85.0,76.0,60.0,10.0,0.0
11441,73.0,24.0,120.0,5.0,0.0
11442,54.0,0.0,90.0,3.0,0.0
11443,78.0,0.0,90.0,0.0,0.0
11444,49.0,32.0,180.0,6.0,0.0
11445,61.0,0.0,120.0,5.0,0.0
11446,45.0,0.0,60.0,12.0,0.0
11447,57.0,0.0,60.0,11.0,0.0
11448,73.0,32.0,60.0,10.0,0.0
11449,85.0,0.0,60.0,10.0,0.0
11450,33.0,4.0,60.0,13.0,0.0
11451,66.0,24.0,90.0,8.0,0.0
11452,85.0,0.0,60.0,10.0,0.0
11453,73.0,0.0,60.0,10.0,0.0
11454,49.0,0.0,60.0,12.0,0.0
11455,61.0,12.0,60.0,11.0,0.0
11456,37.0,0.0,60.0,13.0,0.0
11457,73.0,0.0,60.0,10.0,0.0
11458,85.0,76.0,60.0,10.0,0.0
11459,61.0,24.0,810.0,2.0,0.0
11460,66.0,0.0,810.0,2.0,0.0
11461,47.0,4.0,60.0,12.0,0.0
11462,90.0,24.0,360.0,0.0,0.0
11463,35.0,0.0,60.0,13.0,0.0
11464,90.0,0.0,360.0,8.0,0.0
11465,66.0,0.0,360.0,3.0,0.0
11466,61.0,74.0,480.0,4.0,0.0
11467,49.0,0.0,480.0,4.0,0.0
11468,59.0,0.0,60.0,11.0,0.0
11469,85.0,80.0,60.0,10.0,0.0
11470,73.0,0.0,60.0,10.0,0.0
11471,78.0,0.0,810.0,1.0,0.0
11472,73.0,0.0,810.0,1.0,0.0
11473,85.0,0.0,60.0,10.0,0.0
11474,73.0,36.0,60.0,10.0,0.0
11475,57.0,44.0,60.0,11.0,0.0
11476,33.0,0.0,60.0,13.0,0.0
11477,45.0,0.0,60.0,12.0,0.0
11478,85.0,0.0,60.0,10.0,0.0
11479,73.0,80.0,60.0,10.0,0.0
11480,57.0,0.0,120.0,12.0,0.0
11481,57.0,0.0,120.0,11.0,0.0
11482,45.0,0.0,120.0,13.0,0.0
11483,85.0,56.0,60.0,10.0,0.0
11484,73.0,0.0,60.0,10.0,0.0
11485,73.0,36.0,60.0,10.0,0.0
11486,85.0,0.0,60.0,10.0,0.0
11487,44.0,44.0,60.0,13.0,0.0
11488,52.0,0.0,60.0,11.0,0.0
11489,56.0,0.0,60.0,12.0,0.0
11490,85.0,0.0,60.0,10.0,0.0
11491,73.0,2.0,60.0,10.0,0.0
11492,80.0,48.0,90.0,0.0,0.0
11493,85.0,32.0,60.0,10.0,0.0
11494,49.0,0.0,90.0,6.0,0.0
11495,44.0,0.0,60.0,13.0,0.0
11496,56.0,0.0,60.0,12.0,0.0
11497,54.0,0.0,390.0,4.0,0.0
11498,66.0,0.0,390.0,4.0,0.0
11499,80.0,0.0,90.0,8.0,0.0
11500,73.0,0.0,60.0,10.0,0.0
11501,52.0,0.0,60.0,11.0,0.0
11502,61.0,0.0,60.0,5.0,0.0
11503,73.0,4.0,60.0,5.0,0.0
11504,73.0,0.0,390.0,4.0,0.0
11505,61.0,0.0,390.0,4.0,0.0
11506,56.0,0.0,90.0,3.0,0.0
11507,73.0,36.0,60.0,10.0,0.0
11508,85.0,0.0,60.0,10.0,0.0
11509,45.0,0.0,60.0,13.0,0.0
11510,57.0,0.0,60.0,12.0,0.0
11511,73.0,0.0,60.0,5.0,0.0
11512,54.0,36.0,60.0,11.0,0.0
11513,49.0,8.0,90.0,6.0,0.0
11514,61.0,0.0,60.0,5.0,0.0
11515,73.0,0.0,60.0,10.0,0.0
11516,85.0,76.0,60.0,10.0,0.0
11517,73.0,0.0,90.0,8.0,0.0
11518,56.0,4.0,60.0,12.0,0.0
11519,49.0,32.0,180.0,6.0,0.0
11520,44.0,0.0,60.0,13.0,0.0
11521,52.0,0.0,60.0,11.0,0.0
11522,49.0,0.0,90.0,3.0,0.0
11523,73.0,32.0,60.0,10.0,0.0
11524,85.0,0.0,60.0,10.0,0.0
11525,61.0,0.0,120.0,5.0,0.0
11526,73.0,24.0,120.0,5.0,0.0
11527,73.0,0.0,90.0,0.0,0.0
11528,85.0,0.0,60.0,10.0,0.0
11529,73.0,36.0,60.0,10.0,0.0
11530,61.0,0.0,60.0,12.0,0.0
11531,49.0,12.0,60.0,13.0,0.0
11532,52.0,0.0,60.0,11.0,0.0
11533,85.0,76.0,60.0,10.0,0.0
11534,73.0,0.0,60.0,10.0,0.0
11535,57.0,0.0,60.0,12.0,0.0
11536,66.0,0.0,240.0,4.0,0.0
11537,45.0,4.0,60.0,13.0,0.0
11538,52.0,0.0,60.0,11.0,0.0
11539,54.0,78.0,240.0,4.0,0.0
11540,61.0,0.0,480.0,2.0,0.0
11541,66.0,0.0,480.0,2.0,0.0
11542,78.0,0.0,480.0,1.0,0.0
11543,73.0,80.0,60.0,10.0,0.0
11544,85.0,0.0,60.0,10.0,0.0
11545,90.0,24.0,360.0,8.0,0.0
11546,49.0,74.0,480.0,4.0,0.0
11547,61.0,0.0,480.0,4.0,0.0
11548,73.0,0.0,480.0,1.0,0.0
11549,90.0,0.0,360.0,0.0,0.0
11550,66.0,0.0,360.0,3.0,0.0
11551,73.0,0.0,60.0,10.0,0.0
11552,85.0,36.0,60.0,10.0,0.0
11553,44.0,0.0,60.0,13.0,0.0
11554,56.0,0.0,60.0,12.0,0.0
11555,52.0,44.0,60.0,11.0,0.0
11556,73.0,0.0,60.0,10.0,0.0
11557,85.0,2.0,60.0,10.0,0.0
11558,45.0,0.0,120.0,13.0,0.0
11559,54.0,0.0,120.0,11.0,0.0
11560,73.0,56.0,60.0,10.0,0.0
11561,57.0,0.0,120.0,12.0,0.0
11562,85.0,0.0,60.0,10.0,0.0
11563,66.0,32.0,180.0,4.0,0.0
11564,73.0,36.0,60.0,10.0,0.0
11565,85.0,0.0,60.0,10.0,0.0
11566,52.0,0.0,60.0,11.0,0.0
11567,44.0,0.0,60.0,13.0,0.0
11568,56.0,12.0,60.0,12.0,0.0
11569,73.0,2.0,60.0,10.0,0.0
11570,85.0,0.0,60.0,10.0,0.0
11571,56.0,0.0,90.0,3.0,0.0
11572,73.0,0.0,60.0,5.0,0.0
11573,56.0,0.0,60.0,12.0,0.0
11574,73.0,0.0,60.0,10.0,0.0
11575,61.0,0.0,60.0,5.0,0.0
11576,64.0,14.0,450.0,4.0,0.0
11577,85.0,32.0,60.0,10.0,0.0
11578,49.0,0.0,90.0,6.0,0.0
11579,64.0,0.0,390.0,2.0,0.0
11580,80.0,0.0,90.0,0.0,0.0
11581,80.0,0.0,90.0,8.0,0.0
11582,52.0,4.0,60.0,11.0,0.0
11583,73.0,0.0,390.0,1.0,0.0
11584,76.0,0.0,390.0,1.0,0.0
11585,73.0,0.0,390.0,4.0,0.0
11586,61.0,36.0,390.0,4.0,0.0
11587,44.0,0.0,60.0,13.0,0.0
11588,61.0,0.0,390.0,2.0,0.0
11589,85.0,0.0,60.0,10.0,0.0
11590,73.0,36.0,60.0,10.0,0.0
11591,45.0,0.0,60.0,13.0,0.0
11592,49.0,8.0,90.0,6.0,0.0
11593,61.0,0.0,60.0,5.0,0.0
11594,73.0,0.0,60.0,5.0,0.0
11595,57.0,0.0,60.0,12.0,0.0
11596,54.0,36.0,60.0,11.0,0.0
11597,85.0,76.0,60.0,10.0,0.0
11598,73.0,0.0,60.0,10.0,0.0
11599,61.0,0.0,120.0,5.0,0.0
11600,49.0,18.0,180.0,6.0,0.0
11601,49.0,0.0,90.0,3.0,0.0
11602,56.0,4.0,60.0,12.0,0.0
11603,52.0,0.0,60.0,11.0,0.0
11604,73.0,0.0,60.0,10.0,0.0
11605,85.0,32.0,60.0,10.0,0.0
11606,73.0,24.0,120.0,5.0,0.0
11607,73.0,24.0,90.0,0.0,0.0
11608,73.0,0.0,90.0,8.0,0.0
11609,44.0,0.0,60.0,13.0,0.0
11610,64.0,0.0,60.0,11.0,0.0
11611,73.0,0.0,60.0,10.0,0.0
11612,85.0,0.0,60.0,10.0,0.0
11613,61.0,12.0,60.0,12.0,0.0
11614,52.0,0.0,60.0,11.0,0.0
11615,64.0,0.0,60.0,11.0,0.0
11616,49.0,0.0,60.0,13.0,0.0
11617,85.0,76.0,60.0,10.0,0.0
11618,73.0,0.0,60.0,10.0,0.0
11619,76.0,80.0,60.0,10.0,0.0
11620,64.0,0.0,390.0,3.0,0.0
11621,88.0,36.0,390.0,8.0,0.0
11622,76.0,0.0,420.0,1.0,0.0
11623,73.0,0.0,420.0,1.0,0.0
11624,49.0,74.0,480.0,4.0,0.0
11625,57.0,0.0,60.0,12.0,0.0
11626,88.0,0.0,390.0,0.0,0.0
11627,45.0,4.0,60.0,13.0,0.0
11628,61.0,0.0,420.0,2.0,0.0
11629,64.0,32.0,420.0,2.0,0.0
11630,64.0,0.0,420.0,4.0,0.0
11631,64.0,0.0,60.0,11.0,0.0
11632,52.0,0.0,60.0,11.0,0.0
11633,61.0,0.0,480.0,4.0,0.0
11634,76.0,36.0,60.0,10.0,0.0
11635,64.0,44.0,60.0,11.0,0.0
11636,44.0,0.0,60.0,13.0,0.0
11637,56.0,0.0,60.0,12.0,0.0
11638,52.0,0.0,60.0,11.0,0.0
11639,76.0,80.0,60.0,10.0,0.0
11640,76.0,56.0,60.0,10.0,0.0
11641,56.0,0.0,120.0,12.0,0.0
11642,64.0,24.0,120.0,11.0,0.0
11643,44.0,0.0,120.0,13.0,0.0
11644,76.0,0.0,60.0,10.0,0.0
11645,63.0,12.0,60.0,11.0,0.0
11646,54.0,0.0,60.0,12.0,0.0
11647,42.0,0.0,60.0,13.0,0.0
11648,76.0,2.0,60.0,10.0,0.0
11649,63.0,0.0,390.0,2.0,0.0
11650,66.0,36.0,390.0,4.0,0.0
11651,54.0,0.0,390.0,4.0,0.0
11652,54.0,0.0,60.0,12.0,0.0
11653,78.0,0.0,60.0,5.0,0.0
11654,69.0,0.0,390.0,4.0,0.0
11655,60.0,0.0,90.0,3.0,0.0
11656,84.0,48.0,90.0,0.0,0.0
11657,66.0,0.0,60.0,5.0,0.0
11658,75.0,0.0,390.0,1.0,0.0
11659,84.0,0.0,90.0,8.0,0.0
11660,54.0,0.0,90.0,6.0,0.0
11661,42.0,0.0,60.0,13.0,0.0
11662,72.0,32.0,60.0,10.0,0.0
11663,57.0,0.0,390.0,4.0,0.0
11664,63.0,4.0,60.0,11.0,0.0
11665,72.0,36.0,60.0,10.0,0.0
11666,64.0,36.0,60.0,11.0,0.0
11667,78.0,0.0,60.0,5.0,0.0
11668,66.0,0.0,60.0,5.0,0.0
11669,56.0,0.0,60.0,12.0,0.0
11670,54.0,8.0,90.0,6.0,0.0
11671,44.0,0.0,60.0,13.0,0.0
11672,72.0,76.0,60.0,10.0,0.0
11673,54.0,32.0,180.0,6.0,0.0
11674,63.0,0.0,60.0,11.0,0.0
11675,57.0,0.0,90.0,3.0,0.0
11676,81.0,24.0,90.0,0.0,0.0
11677,66.0,0.0,120.0,5.0,0.0
11678,54.0,0.0,60.0,12.0,0.0
11679,69.0,32.0,60.0,10.0,0.0
11680,63.0,0.0,60.0,10.0,0.0
11681,42.0,4.0,60.0,13.0,0.0
11682,81.0,0.0,90.0,8.0,0.0
11683,78.0,24.0,120.0,5.0,0.0
11684,69.0,0.0,60.0,10.0,0.0
11685,63.0,0.0,60.0,10.0,0.0
11686,66.0,0.0,60.0,11.0,0.0
11687,45.0,12.0,60.0,13.0,0.0
11688,57.0,0.0,60.0,12.0,0.0
11689,69.0,0.0,60.0,10.0,0.0
11690,63.0,76.0,60.0,10.0,0.0
11691,57.0,74.0,480.0,4.0,0.0
11692,69.0,0.0,480.0,4.0,0.0
11693,63.0,80.0,60.0,10.0,0.0
11694,66.0,0.0,480.0,4.0,0.0
11695,54.0,0.0,480.0,4.0,0.0
11696,87.0,36.0,390.0,0.0,0.0
11697,75.0,0.0,420.0,1.0,0.0
11698,63.0,32.0,420.0,2.0,0.0
11699,64.0,0.0,60.0,11.0,0.0
11700,44.0,4.0,60.0,13.0,0.0
11701,56.0,0.0,60.0,12.0,0.0
11702,72.0,0.0,60.0,10.0,0.0
11703,72.0,0.0,60.0,10.0,0.0
11704,63.0,36.0,60.0,10.0,0.0
11705,42.0,0.0,60.0,13.0,0.0
11706,63.0,44.0,60.0,11.0,0.0
11707,54.0,0.0,60.0,12.0,0.0
11708,63.0,80.0,60.0,10.0,0.0
11709,72.0,0.0,60.0,10.0,0.0
11710,44.0,24.0,120.0,13.0,0.0
11711,72.0,0.0,60.0,10.0,0.0
11712,63.0,56.0,60.0,10.0,0.0
11713,64.0,0.0,120.0,11.0,0.0
11714,56.0,0.0,120.0,12.0,0.0
11715,63.0,0.0,60.0,10.0,0.0
11716,72.0,0.0,60.0,10.0,0.0
11717,54.0,0.0,60.0,12.0,0.0
11718,42.0,0.0,60.0,13.0,0.0
11719,63.0,12.0,60.0,11.0,0.0
11720,63.0,2.0,60.0,10.0,0.0
11721,72.0,0.0,60.0,10.0,0.0
11722,54.0,0.0,60.0,12.0,0.0
11723,66.0,0.0,60.0,5.0,0.0
11724,78.0,0.0,60.0,5.0,0.0
11725,66.0,0.0,390.0,4.0,0.0
11726,54.0,0.0,390.0,4.0,0.0
11727,90.0,0.0,90.0,0.0,0.0
11728,42.0,4.0,60.0,13.0,0.0
11729,63.0,32.0,60.0,10.0,0.0
11730,72.0,0.0,60.0,10.0,0.0
11731,57.0,0.0,390.0,4.0,0.0
11732,69.0,36.0,390.0,4.0,0.0
11733,54.0,48.0,90.0,6.0,0.0
11734,78.0,0.0,90.0,1.0,0.0
11735,66.0,0.0,90.0,2.0,0.0
11736,63.0,0.0,60.0,11.0,0.0
11737,63.0,0.0,60.0,10.0,0.0
11738,72.0,36.0,60.0,10.0,0.0
11739,66.0,36.0,60.0,5.0,0.0
11740,54.0,8.0,90.0,6.0,0.0
11741,64.0,0.0,60.0,11.0,0.0
11742,78.0,0.0,60.0,5.0,0.0
11743,44.0,0.0,60.0,13.0,0.0
11744,56.0,0.0,60.0,12.0,0.0
11745,72.0,0.0,60.0,10.0,0.0
11746,63.0,76.0,60.0,10.0,0.0
11747,63.0,0.0,60.0,11.0,0.0
11748,69.0,0.0,90.0,2.0,0.0
11749,63.0,0.0,60.0,10.0,0.0
11750,72.0,32.0,60.0,10.0,0.0
11751,42.0,0.0,60.0,13.0,0.0
11752,66.0,0.0,120.0,5.0,0.0
11753,81.0,0.0,90.0,1.0,0.0
11754,93.0,24.0,90.0,0.0,0.0
11755,54.0,4.0,60.0,12.0,0.0
11756,54.0,32.0,180.0,6.0,0.0
11757,78.0,24.0,120.0,5.0,0.0
11758,72.0,0.0,60.0,10.0,0.0
11759,63.0,0.0,60.0,10.0,0.0
11760,66.0,0.0,60.0,11.0,0.0
11761,57.0,12.0,60.0,12.0,0.0
11762,45.0,0.0,60.0,13.0,0.0
11763,72.0,0.0,60.0,10.0,0.0
11764,63.0,76.0,60.0,10.0,0.0
11765,66.0,0.0,480.0,4.0,0.0
11766,63.0,80.0,60.0,10.0,0.0
11767,88.0,0.0,390.0,0.0,0.0
11768,44.0,0.0,60.0,13.0,0.0
11769,64.0,4.0,60.0,11.0,0.0
11770,64.0,32.0,420.0,2.0,0.0
11771,64.0,0.0,390.0,3.0,0.0
11772,54.0,0.0,480.0,4.0,0.0
11773,57.0,0.0,480.0,4.0,0.0
11774,69.0,74.0,480.0,4.0,0.0
11775,56.0,0.0,60.0,12.0,0.0
11776,76.0,0.0,420.0,1.0,0.0
11777,88.0,0.0,390.0,8.0,0.0
11778,72.0,0.0,60.0,10.0,0.0
11779,72.0,0.0,60.0,10.0,0.0
11780,63.0,36.0,60.0,10.0,0.0
11781,54.0,0.0,60.0,12.0,0.0
11782,42.0,0.0,60.0,13.0,0.0
11783,63.0,44.0,60.0,11.0,0.0
11784,63.0,0.0,60.0,10.0,0.0
11785,72.0,80.0,60.0,10.0,0.0
11786,56.0,0.0,120.0,12.0,0.0
11787,64.0,24.0,120.0,11.0,0.0
11788,76.0,56.0,60.0,10.0,0.0
11789,44.0,0.0,120.0,13.0,0.0
11790,76.0,36.0,60.0,10.0,0.0
11791,42.0,0.0,60.0,13.0,0.0
11792,63.0,0.0,60.0,11.0,0.0
11793,54.0,12.0,60.0,12.0,0.0
11794,76.0,2.0,60.0,10.0,0.0
11795,63.0,0.0,90.0,2.0,0.0
11796,72.0,32.0,60.0,10.0,0.0
11797,75.0,0.0,90.0,1.0,0.0
11798,78.0,0.0,60.0,5.0,0.0
11799,66.0,0.0,60.0,5.0,0.0
11800,84.0,0.0,90.0,8.0,0.0
11801,63.0,0.0,60.0,11.0,0.0
11802,66.0,0.0,390.0,4.0,0.0
11803,84.0,0.0,90.0,0.0,0.0
11804,54.0,0.0,90.0,6.0,0.0
11805,42.0,0.0,60.0,13.0,0.0
11806,54.0,4.0,60.0,12.0,0.0
11807,69.0,0.0,390.0,4.0,0.0
11808,57.0,36.0,390.0,4.0,0.0
11809,54.0,0.0,390.0,4.0,0.0
11810,60.0,48.0,90.0,3.0,0.0
11811,72.0,36.0,60.0,10.0,0.0
11812,64.0,36.0,60.0,11.0,0.0
11813,44.0,0.0,60.0,13.0,0.0
11814,66.0,0.0,60.0,5.0,0.0
11815,78.0,0.0,60.0,5.0,0.0
11816,54.0,8.0,90.0,6.0,0.0
11817,56.0,0.0,60.0,12.0,0.0
11818,72.0,76.0,60.0,10.0,0.0
11819,75.0,24.0,90.0,1.0,0.0
11820,42.0,4.0,60.0,13.0,0.0
11821,63.0,0.0,90.0,2.0,0.0
11822,57.0,0.0,90.0,3.0,0.0
11823,54.0,0.0,60.0,12.0,0.0
11824,78.0,0.0,120.0,5.0,0.0
11825,66.0,24.0,120.0,5.0,0.0
11826,81.0,0.0,90.0,0.0,0.0
11827,63.0,0.0,60.0,11.0,0.0
11828,54.0,32.0,180.0,6.0,0.0
11829,81.0,0.0,90.0,8.0,0.0
11830,63.0,0.0,60.0,10.0,0.0
11831,69.0,32.0,60.0,10.0,0.0
11832,63.0,0.0,60.0,10.0,0.0
11833,69.0,0.0,60.0,10.0,0.0
11834,45.0,12.0,60.0,13.0,0.0
11835,66.0,0.0,60.0,11.0,0.0
11836,57.0,0.0,60.0,12.0,0.0
11837,63.0,0.0,60.0,10.0,0.0
11838,69.0,76.0,60.0,10.0,0.0
11839,56.0,0.0,60.0,12.0,0.0
11840,63.0,0.0,420.0,2.0,0.0
11841,64.0,4.0,60.0,11.0,0.0
11842,75.0,32.0,420.0,1.0,0.0
11843,69.0,74.0,480.0,4.0,0.0
11844,63.0,0.0,60.0,10.0,0.0
11845,72.0,80.0,60.0,10.0,0.0
11846,87.0,0.0,390.0,0.0,0.0
11847,44.0,0.0,60.0,13.0,0.0
11848,66.0,0.0,480.0,4.0,0.0
11849,54.0,0.0,480.0,4.0,0.0
11850,57.0,0.0,480.0,4.0,0.0
11851,72.0,0.0,60.0,10.0,0.0
11852,63.0,36.0,60.0,10.0,0.0
11853,54.0,44.0,60.0,12.0,0.0
11854,63.0,0.0,60.0,11.0,0.0
11855,42.0,0.0,60.0,13.0,0.0
11856,63.0,0.0,60.0,10.0,0.0
11857,72.0,80.0,60.0,10.0,0.0
11858,72.0,0.0,60.0,10.0,0.0
11859,44.0,24.0,120.0,13.0,0.0
11860,56.0,0.0,120.0,12.0,0.0
11861,64.0,0.0,120.0,11.0,0.0
11862,63.0,56.0,60.0,10.0,0.0
11863,72.0,36.0,60.0,10.0,0.0
11864,63.0,0.0,60.0,10.0,0.0
11865,42.0,0.0,60.0,13.0,0.0
11866,54.0,12.0,60.0,12.0,0.0
11867,63.0,0.0,60.0,11.0,0.0
11868,72.0,2.0,60.0,10.0,0.0
11869,63.0,0.0,60.0,10.0,0.0
11870,66.0,0.0,90.0,2.0,0.0
11871,54.0,0.0,390.0,4.0,0.0
11872,66.0,0.0,390.0,4.0,0.0
11873,63.0,32.0,60.0,10.0,0.0
11874,69.0,0.0,390.0,4.0,0.0
11875,72.0,0.0,60.0,10.0,0.0
11876,57.0,36.0,390.0,4.0,0.0
11877,54.0,0.0,90.0,6.0,0.0
11878,54.0,0.0,60.0,12.0,0.0
11879,66.0,0.0,60.0,5.0,0.0
11880,78.0,0.0,90.0,1.0,0.0
11881,63.0,4.0,60.0,11.0,0.0
11882,90.0,48.0,90.0,0.0,0.0
11883,78.0,0.0,60.0,5.0,0.0
11884,42.0,0.0,60.0,13.0,0.0
11885,72.0,0.0,60.0,10.0,0.0
11886,63.0,36.0,60.0,10.0,0.0
11887,56.0,0.0,60.0,12.0,0.0
11888,54.0,8.0,90.0,6.0,0.0
11889,66.0,0.0,60.0,5.0,0.0
11890,78.0,0.0,60.0,5.0,0.0
11891,64.0,0.0,60.0,11.0,0.0
11892,44.0,36.0,60.0,13.0,0.0
11893,72.0,76.0,60.0,10.0,0.0
11894,63.0,0.0,60.0,10.0,0.0
11895,63.0,4.0,60.0,11.0,0.0
11896,54.0,32.0,180.0,6.0,0.0
11897,54.0,0.0,60.0,12.0,0.0
11898,63.0,0.0,60.0,10.0,0.0
11899,93.0,24.0,90.0,0.0,0.0
11900,81.0,0.0,90.0,1.0,0.0
11901,66.0,24.0,120.0,5.0,0.0
11902,69.0,0.0,90.0,2.0,0.0
11903,72.0,32.0,60.0,10.0,0.0
11904,78.0,0.0,120.0,5.0,0.0
11905,42.0,0.0,60.0,13.0,0.0
11906,63.0,0.0,60.0,10.0,0.0
11907,72.0,0.0,60.0,10.0,0.0
11908,45.0,0.0,60.0,13.0,0.0
11909,66.0,0.0,60.0,11.0,0.0
11910,57.0,12.0,60.0,12.0,0.0
11911,63.0,0.0,60.0,10.0,0.0
11912,72.0,76.0,60.0,10.0,0.0
11913,69.0,0.0,690.0,4.0,0.0
11914,63.0,32.0,60.0,10.0,0.0
11915,66.0,0.0,690.0,4.0,0.0
11916,64.0,0.0,60.0,11.0,0.0
11917,54.0,0.0,690.0,4.0,0.0
11918,75.0,0.0,780.0,8.0,0.0
11919,54.0,48.0,90.0,6.0,0.0
11920,66.0,0.0,60.0,5.0,0.0
11921,72.0,0.0,60.0,10.0,0.0
11922,56.0,0.0,60.0,12.0,0.0
11923,57.0,90.0,690.0,4.0,0.0
11924,44.0,4.0,60.0,13.0,0.0
11925,63.0,0.0,60.0,10.0,0.0
11926,72.0,36.0,60.0,10.0,0.0
11927,42.0,36.0,60.0,13.0,0.0
11928,66.0,0.0,60.0,5.0,0.0
11929,63.0,0.0,60.0,11.0,0.0
11930,54.0,0.0,60.0,12.0,0.0
11931,54.0,8.0,90.0,6.0,0.0
11932,63.0,76.0,60.0,10.0,0.0
11933,72.0,0.0,60.0,10.0,0.0
11934,54.0,108.0,180.0,6.0,0.0
11935,54.0,0.0,60.0,12.0,0.0
11936,66.0,60.0,120.0,5.0,0.0
11937,42.0,60.0,60.0,13.0,0.0
11938,63.0,0.0,60.0,10.0,0.0
11939,72.0,0.0,60.0,10.0,0.0
11940,87.0,0.0,60.0,0.0,0.0
11941,45.0,0.0,60.0,13.0,0.0
11942,63.0,12.0,60.0,11.0,0.0
11943,57.0,0.0,60.0,12.0,0.0
11944,66.0,0.0,60.0,10.0,0.0
11945,64.0,0.0,60.0,11.0,0.0
11946,68.0,0.0,60.0,10.0,0.0
11947,88.0,120.0,60.0,0.0,0.0
11948,44.0,0.0,60.0,13.0,0.0
11949,56.0,0.0,60.0,12.0,0.0
11950,90.0,0.0,60.0,0.0,0.0
11951,66.0,0.0,60.0,11.0,0.0
11952,69.0,0.0,60.0,10.0,0.0
11953,54.0,30.0,60.0,12.0,0.0
11954,42.0,0.0,60.0,13.0,0.0
11955,52.0,60.0,60.0,12.0,0.0
11956,40.0,0.0,60.0,13.0,0.0
11957,90.0,60.0,120.0,0.0,0.0
11958,66.0,0.0,60.0,11.0,0.0
11959,69.0,0.0,60.0,10.0,0.0
11960,75.0,120.0,60.0,10.0,0.0
11961,39.0,0.0,60.0,13.0,0.0
11962,66.0,0.0,60.0,3.0,0.0
11963,78.0,0.0,60.0,8.0,0.0
11964,69.0,0.0,60.0,11.0,0.0
11965,51.0,0.0,60.0,12.0,0.0
11966,52.0,0.0,60.0,12.0,0.0
11967,73.0,120.0,60.0,10.0,0.0
11968,76.0,0.0,60.0,8.0,0.0
11969,40.0,0.0,60.0,13.0,0.0
11970,68.0,0.0,60.0,3.0,0.0
11971,68.0,0.0,60.0,11.0,0.0
11972,75.0,120.0,60.0,8.0,0.0
11973,66.0,0.0,60.0,11.0,0.0
11974,42.0,0.0,60.0,13.0,0.0
11975,72.0,0.0,60.0,10.0,0.0
11976,69.0,0.0,60.0,3.0,0.0
11977,54.0,0.0,60.0,12.0,0.0
11978,54.0,60.0,60.0,12.0,0.0
11979,75.0,0.0,540.0,8.0,0.0
11980,69.0,60.0,480.0,3.0,0.0
11981,66.0,60.0,120.0,11.0,0.0
11982,42.0,0.0,60.0,13.0,0.0
11983,72.0,0.0,60.0,10.0,0.0
11984,63.0,0.0,60.0,10.0,0.0
11985,87.0,120.0,60.0,0.0,0.0
11986,45.0,0.0,60.0,13.0,0.0
11987,57.0,0.0,60.0,12.0,0.0
11988,63.0,0.0,60.0,11.0,0.0
11989,66.0,0.0,60.0,10.0,0.0
11990,64.0,0.0,60.0,11.0,0.0
11991,88.0,0.0,60.0,0.0,0.0
11992,56.0,120.0,60.0,12.0,0.0
11993,44.0,0.0,60.0,13.0,0.0
11994,68.0,0.0,60.0,10.0,0.0
11995,69.0,0.0,60.0,10.0,0.0
11996,66.0,60.0,60.0,11.0,0.0
11997,54.0,0.0,60.0,12.0,0.0
11998,90.0,0.0,60.0,0.0,0.0
11999,42.0,0.0,60.0,13.0,0.0
12000,66.0,0.0,60.0,11.0,0.0
12001,52.0,0.0,60.0,12.0,0.0
12002,40.0,60.0,60.0,13.0,0.0
12003,69.0,0.0,60.0,10.0,0.0
12004,90.0,60.0,120.0,0.0,0.0
12005,69.0,0.0,60.0,11.0,0.0
12006,75.0,0.0,60.0,10.0,0.0
12007,51.0,0.0,60.0,12.0,0.0
12008,78.0,0.0,60.0,8.0,0.0
12009,66.0,120.0,60.0,3.0,0.0
12010,39.0,0.0,60.0,13.0,0.0
12011,68.0,120.0,60.0,11.0,0.0
12012,52.0,0.0,60.0,12.0,0.0
12013,76.0,0.0,60.0,8.0,0.0
12014,73.0,0.0,60.0,10.0,0.0
12015,40.0,0.0,60.0,13.0,0.0
12016,68.0,0.0,60.0,3.0,0.0
12017,42.0,0.0,60.0,13.0,0.0
12018,72.0,0.0,60.0,10.0,0.0
12019,54.0,0.0,60.0,12.0,0.0
12020,69.0,120.0,60.0,11.0,0.0
12021,69.0,0.0,60.0,3.0,0.0
12022,75.0,0.0,60.0,8.0,0.0
12023,68.0,0.0,120.0,11.0,0.0
12024,44.0,0.0,60.0,13.0,0.0
12025,76.0,60.0,120.0,8.0,0.0
12026,64.0,0.0,540.0,3.0,0.0
12027,73.0,0.0,120.0,10.0,0.0
12028,56.0,60.0,60.0,12.0,0.0
12029,61.0,0.0,540.0,3.0,0.0
12030,88.0,54.0,540.0,0.0,0.0
12031,85.0,0.0,540.0,0.0,0.0
12032,61.0,120.0,60.0,11.0,0.0
12033,49.0,0.0,60.0,13.0,0.0
12034,61.0,0.0,60.0,12.0,0.0
12035,63.0,0.0,60.0,12.0,0.0
12036,63.0,0.0,60.0,11.0,0.0
12037,51.0,120.0,60.0,13.0,0.0
12038,64.0,120.0,60.0,12.0,0.0
12039,52.0,0.0,60.0,13.0,0.0
12040,64.0,0.0,60.0,11.0,0.0
12041,52.0,66.0,120.0,13.0,0.0
12042,64.0,0.0,120.0,11.0,0.0
12043,64.0,0.0,120.0,12.0,0.0
12044,61.0,120.0,60.0,10.0,0.0
12045,92.0,0.0,60.0,0.0,0.0
12046,88.0,0.0,60.0,0.0,0.0
12047,68.0,0.0,60.0,3.0,0.0
12048,64.0,0.0,60.0,3.0,0.0
12049,73.0,0.0,60.0,8.0,0.0
12050,63.0,120.0,60.0,10.0,0.0
12051,63.0,0.0,60.0,3.0,0.0
12052,66.0,0.0,60.0,3.0,0.0
12053,75.0,0.0,60.0,8.0,0.0
12054,90.0,0.0,60.0,0.0,0.0
12055,87.0,0.0,60.0,0.0,0.0
12056,64.0,0.0,60.0,10.0,0.0
12057,76.0,0.0,60.0,8.0,0.0
12058,85.0,0.0,60.0,0.0,0.0
12059,88.0,0.0,60.0,0.0,0.0
12060,64.0,0.0,60.0,3.0,0.0
12061,61.0,180.0,60.0,3.0,0.0
12062,64.0,60.0,120.0,10.0,0.0
12063,85.0,54.0,540.0,0.0,0.0
12064,64.0,0.0,540.0,3.0,0.0
12065,88.0,0.0,540.0,0.0,0.0
12066,61.0,0.0,540.0,3.0,0.0
12067,76.0,0.0,120.0,8.0,0.0
12068,64.0,0.0,60.0,12.0,0.0
12069,64.0,0.0,60.0,11.0,0.0
12070,52.0,120.0,60.0,13.0,0.0
12071,54.0,120.0,60.0,13.0,0.0
12072,66.0,0.0,60.0,12.0,0.0
12073,66.0,0.0,60.0,11.0,0.0
12074,68.0,0.0,60.0,11.0,0.0
12075,68.0,0.0,60.0,12.0,0.0
12076,56.0,120.0,60.0,13.0,0.0
12077,56.0,0.0,120.0,13.0,0.0
12078,68.0,0.0,120.0,11.0,0.0
12079,68.0,66.0,120.0,12.0,0.0
12080,61.0,0.0,60.0,10.0,0.0
12081,68.0,0.0,60.0,3.0,0.0
12082,73.0,0.0,60.0,8.0,0.0
12083,92.0,0.0,60.0,0.0,0.0
12084,88.0,120.0,60.0,0.0,0.0
12085,64.0,0.0,60.0,3.0,0.0
12086,75.0,0.0,60.0,8.0,0.0
12087,90.0,120.0,60.0,0.0,0.0
12088,87.0,0.0,60.0,0.0,0.0
12089,63.0,0.0,60.0,10.0,0.0
12090,63.0,0.0,60.0,3.0,0.0
12091,66.0,0.0,60.0,3.0,0.0
12092,76.0,120.0,60.0,8.0,0.0
12093,64.0,0.0,60.0,3.0,0.0
12094,85.0,0.0,60.0,0.0,0.0
12095,88.0,0.0,60.0,0.0,0.0
12096,61.0,0.0,60.0,3.0,0.0
12097,64.0,0.0,60.0,10.0,0.0
12098,75.0,0.0,540.0,8.0,0.0
12099,72.0,120.0,60.0,10.0,0.0
12100,63.0,0.0,60.0,10.0,0.0
12101,60.0,0.0,60.0,3.0,0.0
12102,63.0,0.0,60.0,3.0,0.0
12103,87.0,0.0,60.0,0.0,0.0
12104,84.0,0.0,60.0,0.0,0.0
12105,75.0,0.0,60.0,2.0,0.0
12106,45.0,0.0,60.0,13.0,0.0
12107,63.0,0.0,60.0,11.0,0.0
12108,66.0,0.0,60.0,10.0,0.0
12109,63.0,0.0,60.0,3.0,0.0
12110,57.0,120.0,60.0,12.0,0.0
12111,68.0,0.0,60.0,10.0,0.0
12112,64.0,0.0,60.0,3.0,0.0
12113,64.0,120.0,60.0,11.0,0.0
12114,76.0,0.0,60.0,2.0,0.0
12115,44.0,0.0,60.0,13.0,0.0
12116,56.0,0.0,60.0,12.0,0.0
12117,54.0,0.0,60.0,12.0,0.0
12118,66.0,0.0,60.0,3.0,0.0
12119,42.0,0.0,60.0,13.0,0.0
12120,78.0,0.0,60.0,2.0,0.0
12121,69.0,120.0,60.0,10.0,0.0
12122,66.0,0.0,60.0,11.0,0.0
12123,69.0,0.0,60.0,10.0,0.0
12124,78.0,60.0,120.0,2.0,0.0
12125,40.0,60.0,60.0,13.0,0.0
12126,52.0,0.0,60.0,12.0,0.0
12127,66.0,0.0,120.0,3.0,0.0
12128,66.0,0.0,60.0,11.0,0.0
12129,93.0,120.0,60.0,0.0,0.0
12130,81.0,0.0,60.0,1.0,0.0
12131,78.0,0.0,60.0,8.0,0.0
12132,69.0,0.0,60.0,11.0,0.0
12133,39.0,0.0,60.0,13.0,0.0
12134,51.0,0.0,60.0,12.0,0.0
12135,75.0,0.0,60.0,10.0,0.0
12136,92.0,0.0,60.0,0.0,0.0
12137,73.0,0.0,60.0,10.0,0.0
12138,80.0,120.0,60.0,1.0,0.0
12139,52.0,0.0,60.0,12.0,0.0
12140,76.0,0.0,60.0,8.0,0.0
12141,68.0,0.0,60.0,11.0,0.0
12142,40.0,0.0,60.0,13.0,0.0
12143,54.0,0.0,60.0,12.0,0.0
12144,72.0,0.0,60.0,10.0,0.0
12145,90.0,0.0,60.0,0.0,0.0
12146,75.0,120.0,60.0,8.0,0.0
12147,69.0,0.0,60.0,11.0,0.0
12148,78.0,0.0,60.0,1.0,0.0
12149,42.0,0.0,60.0,13.0,0.0
12150,75.0,0.0,540.0,8.0,0.0
12151,78.0,0.0,240.0,1.0,0.0
12152,90.0,74.0,240.0,0.0,0.0
12153,66.0,60.0,120.0,11.0,0.0
12154,54.0,0.0,60.0,12.0,0.0
12155,63.0,0.0,60.0,10.0,0.0
12156,72.0,60.0,60.0,10.0,0.0
12157,42.0,0.0,60.0,13.0,0.0
12158,75.0,0.0,60.0,2.0,0.0
12159,63.0,0.0,60.0,11.0,0.0
12160,45.0,0.0,60.0,13.0,0.0
12161,57.0,0.0,60.0,12.0,0.0
12162,63.0,0.0,60.0,3.0,0.0
12163,66.0,46.0,60.0,10.0,0.0
12164,76.0,120.0,60.0,2.0,0.0
12165,64.0,0.0,60.0,3.0,0.0
12166,44.0,0.0,60.0,13.0,0.0
12167,56.0,0.0,60.0,12.0,0.0
12168,64.0,0.0,60.0,11.0,0.0
12169,68.0,0.0,60.0,10.0,0.0
12170,69.0,0.0,60.0,10.0,0.0
12171,42.0,0.0,60.0,13.0,0.0
12172,54.0,120.0,60.0,12.0,0.0
12173,66.0,0.0,60.0,11.0,0.0
12174,66.0,0.0,60.0,3.0,0.0
12175,78.0,0.0,60.0,2.0,0.0
12176,66.0,0.0,120.0,3.0,0.0
12177,66.0,0.0,60.0,11.0,0.0
12178,40.0,0.0,60.0,13.0,0.0
12179,78.0,60.0,120.0,2.0,0.0
12180,69.0,60.0,60.0,10.0,0.0
12181,52.0,0.0,60.0,12.0,0.0
12182,51.0,0.0,60.0,12.0,0.0
12183,39.0,120.0,60.0,13.0,0.0
12184,93.0,0.0,60.0,0.0,0.0
12185,81.0,0.0,60.0,1.0,0.0
12186,69.0,0.0,60.0,11.0,0.0
12187,78.0,0.0,60.0,8.0,0.0
12188,75.0,0.0,60.0,10.0,0.0
12189,80.0,0.0,60.0,1.0,0.0
12190,76.0,0.0,60.0,8.0,0.0
12191,73.0,0.0,60.0,10.0,0.0
12192,68.0,0.0,60.0,11.0,0.0
12193,92.0,0.0,60.0,0.0,0.0
12194,40.0,0.0,60.0,13.0,0.0
12195,52.0,120.0,60.0,12.0,0.0
12196,92.0,0.0,60.0,0.0,0.0
12197,42.0,0.0,60.0,13.0,0.0
12198,54.0,0.0,60.0,12.0,0.0
12199,75.0,120.0,60.0,8.0,0.0
12200,72.0,0.0,60.0,10.0,0.0
12201,80.0,0.0,60.0,1.0,0.0
12202,69.0,0.0,60.0,11.0,0.0
12203,73.0,60.0,600.0,8.0,0.0
12204,44.0,0.0,90.0,13.0,0.0
12205,64.0,36.0,60.0,10.0,0.0
12206,92.0,12.0,780.0,0.0,0.0
12207,64.0,144.0,90.0,12.0,0.0
12208,85.0,0.0,600.0,1.0,0.0
12209,68.0,30.0,4290.0,4.0,0.0
12210,68.0,96.0,120.0,10.0,0.0
12211,69.0,60.0,120.0,10.0,0.0
12212,56.0,24.0,90.0,12.0,0.0
12213,68.0,120.0,60.0,10.0,0.0
12214,44.0,24.0,90.0,12.0,0.0
12215,68.0,36.0,60.0,10.0,0.0
12216,76.0,0.0,60.0,8.0,0.0
12217,68.0,0.0,60.0,10.0,0.0
12218,88.0,108.0,60.0,1.0,0.0
12219,87.0,0.0,60.0,1.0,0.0
12220,75.0,0.0,60.0,8.0,0.0
12221,64.0,144.0,330.0,12.0,0.0
12222,68.0,120.0,60.0,10.0,0.0
12223,68.0,0.0,60.0,10.0,0.0
12224,85.0,0.0,60.0,1.0,0.0
12225,73.0,120.0,60.0,8.0,0.0
12226,85.0,60.0,600.0,1.0,0.0
12227,64.0,36.0,60.0,10.0,0.0
12228,73.0,0.0,600.0,8.0,0.0
12229,68.0,96.0,120.0,10.0,0.0
12230,56.0,24.0,90.0,12.0,0.0
12231,69.0,60.0,120.0,10.0,0.0
12232,68.0,120.0,60.0,10.0,0.0
12233,68.0,36.0,60.0,10.0,0.0
12234,44.0,24.0,90.0,12.0,0.0
12235,68.0,120.0,60.0,10.0,0.0
12236,88.0,0.0,60.0,1.0,0.0
12237,76.0,0.0,60.0,8.0,0.0
12238,68.0,0.0,60.0,10.0,0.0
12239,87.0,0.0,60.0,1.0,0.0
12240,75.0,36.0,60.0,8.0,0.0
12241,64.0,84.0,90.0,12.0,0.0
12242,85.0,0.0,60.0,1.0,0.0
12243,73.0,120.0,60.0,8.0,0.0
12244,68.0,0.0,60.0,10.0,0.0
12245,68.0,36.0,60.0,11.0,0.0
12246,90.0,0.0,600.0,0.0,0.0
12247,63.0,144.0,90.0,12.0,0.0
12248,78.0,60.0,600.0,10.0,0.0
12249,85.0,0.0,480.0,1.0,0.0
12250,73.0,60.0,480.0,8.0,0.0
12251,56.0,96.0,120.0,11.0,0.0
12252,57.0,60.0,120.0,11.0,0.0
12253,56.0,24.0,90.0,12.0,0.0
12254,56.0,60.0,60.0,11.0,0.0
12255,84.0,0.0,1440.0,1.0,0.0
12256,44.0,24.0,90.0,12.0,0.0
12257,72.0,48.0,1440.0,8.0,0.0
12258,56.0,36.0,60.0,11.0,0.0
12259,56.0,120.0,60.0,11.0,0.0
12260,93.0,0.0,60.0,0.0,0.0
12261,81.0,0.0,60.0,10.0,0.0
12262,80.0,120.0,60.0,10.0,0.0
12263,92.0,0.0,60.0,0.0,0.0
12264,56.0,0.0,60.0,11.0,0.0
12265,63.0,144.0,330.0,12.0,0.0
12266,90.0,120.0,60.0,0.0,0.0
12267,56.0,0.0,60.0,11.0,0.0
12268,78.0,0.0,60.0,10.0,0.0
12269,78.0,0.0,600.0,10.0,0.0
12270,56.0,36.0,60.0,11.0,0.0
12271,90.0,60.0,600.0,0.0,0.0
12272,56.0,96.0,120.0,11.0,0.0
12273,57.0,60.0,120.0,11.0,0.0
12274,56.0,24.0,90.0,12.0,0.0
12275,56.0,120.0,60.0,11.0,0.0
12276,44.0,24.0,90.0,12.0,0.0
12277,56.0,36.0,60.0,11.0,0.0
12278,93.0,0.0,60.0,0.0,0.0
12279,81.0,0.0,60.0,10.0,0.0
12280,56.0,120.0,60.0,11.0,0.0
12281,63.0,84.0,90.0,12.0,0.0
12282,80.0,36.0,60.0,10.0,0.0
12283,92.0,0.0,60.0,0.0,0.0
12284,56.0,0.0,60.0,11.0,0.0
12285,78.0,60.0,60.0,10.0,0.0
12286,56.0,0.0,60.0,11.0,0.0
12287,90.0,0.0,60.0,0.0,0.0
12288,64.0,72.0,90.0,12.0,0.0
12289,56.0,12.0,60.0,11.0,0.0
12290,85.0,36.0,60.0,1.0,0.0
12291,78.0,0.0,480.0,10.0,0.0
12292,85.0,48.0,600.0,8.0,0.0
12293,90.0,48.0,480.0,0.0,0.0
12294,68.0,12.0,60.0,11.0,0.0
12295,85.0,108.0,60.0,1.0,0.0
12296,68.0,12.0,60.0,11.0,0.0
12297,56.0,72.0,90.0,12.0,0.0
12298,87.0,36.0,60.0,1.0,0.0
12299,88.0,30.0,60.0,1.0,0.0
12300,68.0,12.0,60.0,11.0,0.0
12301,68.0,78.0,450.0,4.0,0.0
12302,68.0,48.0,60.0,11.0,0.0
12303,88.0,62.0,240.0,1.0,0.0
12304,76.0,0.0,1440.0,10.0,0.0
12305,44.0,24.0,90.0,12.0,0.0
12306,88.0,48.0,960.0,0.0,0.0
12307,61.0,0.0,60.0,3.0,0.0
12308,88.0,46.0,60.0,8.0,0.0
12309,68.0,12.0,60.0,11.0,0.0
12310,68.0,12.0,60.0,11.0,0.0
12311,64.0,72.0,330.0,12.0,0.0
12312,63.0,0.0,60.0,3.0,0.0
12313,87.0,108.0,60.0,8.0,0.0
12314,64.0,0.0,60.0,3.0,0.0
12315,85.0,30.0,60.0,8.0,0.0
12316,68.0,12.0,60.0,11.0,0.0
12317,68.0,48.0,60.0,11.0,0.0
12318,85.0,48.0,600.0,8.0,0.0
12319,64.0,62.0,240.0,3.0,0.0
12320,68.0,30.0,450.0,4.0,0.0
12321,85.0,46.0,60.0,1.0,0.0
12322,68.0,12.0,60.0,11.0,0.0
12323,56.0,72.0,90.0,12.0,0.0
12324,68.0,12.0,60.0,11.0,0.0
12325,87.0,36.0,60.0,1.0,0.0
12326,68.0,12.0,60.0,11.0,0.0
12327,88.0,30.0,60.0,1.0,0.0
12328,68.0,48.0,60.0,11.0,0.0
12329,68.0,30.0,450.0,4.0,0.0
12330,44.0,24.0,90.0,12.0,0.0
12331,92.0,48.0,480.0,0.0,0.0
12332,88.0,62.0,240.0,1.0,0.0
12333,61.0,0.0,60.0,3.0,0.0
12334,88.0,46.0,60.0,8.0,0.0
12335,68.0,12.0,60.0,11.0,0.0
12336,64.0,72.0,90.0,12.0,0.0
12337,63.0,0.0,60.0,3.0,0.0
12338,68.0,12.0,60.0,11.0,0.0
12339,87.0,36.0,60.0,8.0,0.0
12340,64.0,30.0,60.0,3.0,0.0
12341,68.0,12.0,60.0,11.0,0.0
12342,85.0,0.0,60.0,8.0,0.0
12343,66.0,62.0,240.0,3.0,0.0
12344,68.0,48.0,60.0,11.0,0.0
12345,68.0,30.0,450.0,4.0,0.0
12346,90.0,0.0,600.0,0.0,0.0
12347,63.0,72.0,90.0,12.0,0.0
12348,85.0,48.0,480.0,8.0,0.0
12349,78.0,48.0,600.0,10.0,0.0
12350,75.0,46.0,60.0,2.0,0.0
12351,56.0,12.0,60.0,11.0,0.0
12352,56.0,72.0,90.0,12.0,0.0
12353,56.0,12.0,60.0,11.0,0.0
12354,76.0,36.0,60.0,2.0,0.0
12355,78.0,30.0,60.0,2.0,0.0
12356,56.0,12.0,60.0,11.0,0.0
12357,78.0,62.0,240.0,2.0,0.0
12358,68.0,78.0,450.0,4.0,0.0
12359,44.0,24.0,90.0,12.0,0.0
12360,56.0,48.0,60.0,11.0,0.0
12361,84.0,60.0,1440.0,8.0,0.0
12362,78.0,0.0,60.0,1.0,0.0
12363,81.0,46.0,60.0,10.0,0.0
12364,93.0,0.0,60.0,0.0,0.0
12365,63.0,0.0,60.0,3.0,0.0
12366,56.0,12.0,60.0,11.0,0.0
12367,56.0,12.0,60.0,11.0,0.0
12368,63.0,72.0,330.0,12.0,0.0
12369,80.0,0.0,60.0,10.0,0.0
12370,92.0,0.0,60.0,0.0,0.0
12371,64.0,108.0,60.0,3.0,0.0
12372,80.0,0.0,60.0,1.0,0.0
12373,78.0,0.0,60.0,10.0,0.0
12374,90.0,0.0,60.0,0.0,0.0
12375,81.0,30.0,60.0,1.0,0.0
12376,56.0,12.0,60.0,11.0,0.0
12377,66.0,0.0,60.0,3.0,0.0
12378,90.0,0.0,600.0,0.0,0.0
12379,66.0,0.0,240.0,3.0,0.0
12380,81.0,62.0,240.0,1.0,0.0
12381,56.0,48.0,60.0,11.0,0.0
12382,68.0,78.0,450.0,4.0,0.0
12383,78.0,48.0,600.0,10.0,0.0
12384,56.0,12.0,60.0,11.0,0.0
12385,75.0,46.0,60.0,2.0,0.0
12386,76.0,36.0,60.0,2.0,0.0
12387,56.0,72.0,90.0,12.0,0.0
12388,56.0,12.0,60.0,11.0,0.0
12389,44.0,18.0,180.0,15.0,0.0
12390,56.0,12.0,60.0,11.0,0.0
12391,78.0,12.0,60.0,2.0,0.0
12392,44.0,24.0,90.0,12.0,0.0
12393,32.0,96.0,180.0,15.0,0.0
12394,68.0,30.0,450.0,4.0,0.0
12395,78.0,36.0,60.0,2.0,0.0
12396,56.0,12.0,60.0,11.0,0.0
12397,93.0,0.0,60.0,0.0,0.0
12398,87.0,0.0,60.0,0.0,0.0
12399,63.0,0.0,60.0,3.0,0.0
12400,66.0,12.0,60.0,11.0,0.0
12401,78.0,0.0,60.0,1.0,0.0
12402,75.0,0.0,60.0,2.0,0.0
12403,56.0,0.0,60.0,3.0,0.0
12404,81.0,12.0,60.0,10.0,0.0
12405,64.0,12.0,60.0,11.0,0.0
12406,80.0,0.0,60.0,10.0,0.0
12407,76.0,0.0,60.0,2.0,0.0
12408,64.0,36.0,60.0,3.0,0.0
12409,80.0,0.0,60.0,1.0,0.0
12410,56.0,18.0,180.0,15.0,0.0
12411,88.0,0.0,60.0,0.0,0.0
12412,92.0,0.0,60.0,0.0,0.0
12413,56.0,0.0,60.0,3.0,0.0
12414,63.0,72.0,90.0,12.0,0.0
12415,84.0,0.0,60.0,1.0,0.0
12416,90.0,0.0,60.0,0.0,0.0
12417,78.0,12.0,60.0,10.0,0.0
12418,75.0,0.0,60.0,2.0,0.0
12419,66.0,0.0,60.0,3.0,0.0
12420,63.0,12.0,60.0,11.0,0.0
12421,56.0,0.0,60.0,3.0,0.0
12422,73.0,0.0,60.0,2.0,0.0
12423,69.0,0.0,60.0,3.0,0.0
12424,69.0,0.0,90.0,12.0,0.0
12425,57.0,0.0,60.0,3.0,0.0
12426,57.0,108.0,180.0,15.0,0.0
12427,69.0,66.0,120.0,4.0,0.0
12428,61.0,0.0,90.0,11.0,0.0
12429,85.0,18.0,90.0,8.0,0.0
12430,85.0,0.0,60.0,1.0,0.0
12431,88.0,36.0,60.0,0.0,0.0
12432,76.0,0.0,90.0,10.0,0.0
12433,97.0,0.0,60.0,0.0,0.0
12434,88.0,12.0,60.0,0.0,0.0
12435,45.0,0.0,60.0,3.0,0.0
12436,73.0,0.0,60.0,2.0,0.0
12437,57.0,0.0,60.0,3.0,0.0
12438,76.0,0.0,60.0,2.0,0.0
12439,85.0,0.0,60.0,1.0,0.0
12440,45.0,0.0,60.0,3.0,0.0
12441,88.0,0.0,60.0,0.0,0.0
12442,95.0,0.0,60.0,0.0,0.0
12443,57.0,0.0,60.0,3.0,0.0
12444,85.0,108.0,60.0,1.0,0.0
12445,76.0,0.0,60.0,2.0,0.0
12446,73.0,0.0,60.0,2.0,0.0
12447,93.0,0.0,60.0,0.0,0.0
12448,88.0,0.0,60.0,0.0,0.0
12449,85.0,0.0,60.0,1.0,0.0
12450,73.0,0.0,60.0,2.0,0.0
12451,45.0,108.0,60.0,3.0,0.0
12452,57.0,0.0,60.0,3.0,0.0
12453,76.0,0.0,60.0,2.0,0.0
12454,57.0,12.0,60.0,12.0,0.0
12455,71.0,0.0,60.0,2.0,0.0
12456,40.0,108.0,180.0,15.0,0.0
12457,83.0,0.0,60.0,1.0,0.0
12458,88.0,0.0,60.0,0.0,0.0
12459,64.0,12.0,60.0,12.0,0.0
12460,52.0,120.0,60.0,3.0,0.0
12461,64.0,0.0,60.0,3.0,0.0
12462,76.0,0.0,60.0,2.0,0.0
12463,92.0,0.0,60.0,0.0,0.0
12464,83.0,0.0,60.0,1.0,0.0
12465,71.0,0.0,60.0,2.0,0.0
12466,76.0,0.0,60.0,2.0,0.0
12467,95.0,12.0,60.0,0.0,0.0
12468,88.0,0.0,60.0,0.0,0.0
12469,52.0,0.0,60.0,3.0,0.0
12470,40.0,0.0,60.0,3.0,0.0
12471,40.0,0.0,60.0,3.0,0.0
12472,83.0,0.0,60.0,1.0,0.0
12473,88.0,0.0,60.0,0.0,0.0
12474,93.0,108.0,60.0,0.0,0.0
12475,76.0,0.0,60.0,2.0,0.0
12476,71.0,0.0,60.0,2.0,0.0
12477,52.0,0.0,60.0,3.0,0.0
12478,71.0,108.0,60.0,2.0,0.0
12479,76.0,0.0,60.0,2.0,0.0
12480,83.0,0.0,60.0,1.0,0.0
12481,40.0,0.0,60.0,3.0,0.0
12482,88.0,0.0,60.0,0.0,0.0
12483,92.0,0.0,60.0,0.0,0.0
12484,52.0,12.0,60.0,12.0,0.0
12485,52.0,0.0,60.0,3.0,0.0
12486,54.0,12.0,60.0,12.0,0.0
12487,54.0,0.0,60.0,3.0,0.0
12488,42.0,108.0,180.0,15.0,0.0
12489,73.0,0.0,60.0,2.0,0.0
12490,90.0,0.0,60.0,0.0,0.0
12491,85.0,0.0,60.0,0.0,0.0
12492,42.0,0.0,60.0,3.0,0.0
12493,81.0,120.0,60.0,1.0,0.0
12494,93.0,0.0,60.0,0.0,0.0
12495,69.0,0.0,60.0,2.0,0.0
12496,42.0,0.0,60.0,3.0,0.0
12497,85.0,0.0,60.0,1.0,0.0
12498,81.0,12.0,60.0,1.0,0.0
12499,54.0,0.0,60.0,3.0,0.0
12500,73.0,0.0,60.0,2.0,0.0
12501,73.0,0.0,60.0,2.0,0.0
12502,69.0,108.0,60.0,2.0,0.0
12503,92.0,0.0,60.0,0.0,0.0
12504,81.0,0.0,60.0,1.0,0.0
12505,42.0,0.0,60.0,3.0,0.0
12506,54.0,0.0,60.0,3.0,0.0
12507,85.0,0.0,60.0,1.0,0.0
12508,54.0,12.0,60.0,12.0,0.0
12509,85.0,0.0,60.0,1.0,0.0
12510,81.0,0.0,60.0,1.0,0.0
12511,73.0,0.0,60.0,2.0,0.0
12512,69.0,0.0,60.0,2.0,0.0
12513,42.0,0.0,60.0,3.0,0.0
12514,90.0,108.0,60.0,0.0,0.0
12515,54.0,0.0,60.0,3.0,0.0
12516,49.0,0.0,60.0,3.0,0.0
12517,73.0,0.0,60.0,2.0,0.0
12518,61.0,12.0,60.0,12.0,0.0
12519,85.0,0.0,60.0,1.0,0.0
12520,80.0,0.0,60.0,1.0,0.0
12521,68.0,120.0,60.0,2.0,0.0
12522,49.0,108.0,180.0,15.0,0.0
12523,61.0,0.0,60.0,3.0,0.0
12524,88.0,0.0,60.0,0.0,0.0
12525,61.0,0.0,60.0,3.0,0.0
12526,80.0,12.0,60.0,1.0,0.0
12527,92.0,0.0,60.0,0.0,0.0
12528,49.0,0.0,60.0,3.0,0.0
12529,85.0,0.0,60.0,1.0,0.0
12530,73.0,0.0,60.0,2.0,0.0
12531,68.0,0.0,60.0,2.0,0.0
12532,49.0,0.0,60.0,3.0,0.0
12533,61.0,0.0,60.0,3.0,0.0
12534,80.0,0.0,60.0,1.0,0.0
12535,85.0,0.0,60.0,1.0,0.0
12536,73.0,0.0,60.0,2.0,0.0
12537,68.0,108.0,60.0,2.0,0.0
12538,90.0,0.0,60.0,0.0,0.0
12539,61.0,0.0,60.0,3.0,0.0
12540,80.0,0.0,60.0,1.0,0.0
12541,85.0,0.0,60.0,1.0,0.0
12542,88.0,108.0,60.0,0.0,0.0
12543,61.0,12.0,60.0,12.0,0.0
12544,68.0,0.0,60.0,2.0,0.0
12545,73.0,0.0,60.0,2.0,0.0
12546,49.0,0.0,60.0,3.0,0.0
12547,54.0,108.0,180.0,15.0,0.0
12548,66.0,12.0,60.0,12.0,0.0
12549,54.0,0.0,60.0,3.0,0.0
12550,78.0,0.0,60.0,1.0,0.0
12551,81.0,0.0,60.0,1.0,0.0
12552,66.0,0.0,60.0,3.0,0.0
12553,69.0,0.0,60.0,2.0,0.0
12554,66.0,0.0,60.0,2.0,0.0
12555,87.0,120.0,60.0,0.0,0.0
12556,66.0,0.0,60.0,2.0,0.0
12557,81.0,0.0,60.0,1.0,0.0
12558,78.0,12.0,60.0,1.0,0.0
12559,54.0,0.0,60.0,3.0,0.0
12560,66.0,0.0,60.0,3.0,0.0
12561,90.0,0.0,60.0,0.0,0.0
12562,69.0,0.0,60.0,2.0,0.0
12563,69.0,0.0,60.0,2.0,0.0
12564,66.0,0.0,60.0,3.0,0.0
12565,54.0,108.0,60.0,3.0,0.0
12566,66.0,0.0,60.0,2.0,0.0
12567,78.0,0.0,60.0,1.0,0.0
12568,88.0,0.0,60.0,0.0,0.0
12569,81.0,0.0,60.0,1.0,0.0
12570,69.0,0.0,60.0,2.0,0.0
12571,78.0,0.0,60.0,1.0,0.0
12572,66.0,0.0,60.0,3.0,0.0
12573,54.0,0.0,60.0,3.0,0.0
12574,81.0,0.0,60.0,1.0,0.0
12575,66.0,108.0,60.0,2.0,0.0
12576,66.0,12.0,60.0,12.0,0.0
12577,87.0,0.0,60.0,0.0,0.0
12578,85.0,0.0,60.0,0.0,0.0
12579,69.0,0.0,60.0,2.0,0.0
12580,57.0,0.0,60.0,3.0,0.0
12581,81.0,0.0,60.0,1.0,0.0
12582,76.0,0.0,60.0,1.0,0.0
12583,61.0,0.0,60.0,2.0,0.0
12584,69.0,120.0,60.0,3.0,0.0
12585,57.0,108.0,180.0,15.0,0.0
12586,69.0,12.0,60.0,12.0,0.0
12587,69.0,0.0,60.0,3.0,0.0
12588,57.0,0.0,60.0,3.0,0.0
12589,76.0,0.0,60.0,1.0,0.0
12590,88.0,0.0,60.0,0.0,0.0
12591,81.0,12.0,60.0,1.0,0.0
12592,61.0,0.0,60.0,2.0,0.0
12593,69.0,0.0,60.0,2.0,0.0
12594,87.0,0.0,60.0,0.0,0.0
12595,61.0,0.0,60.0,2.0,0.0
12596,81.0,0.0,60.0,1.0,0.0
12597,69.0,0.0,60.0,2.0,0.0
12598,57.0,108.0,60.0,3.0,0.0
12599,69.0,0.0,60.0,3.0,0.0
12600,76.0,0.0,60.0,1.0,0.0
12601,69.0,12.0,60.0,12.0,0.0
12602,85.0,0.0,60.0,0.0,0.0
12603,69.0,0.0,60.0,2.0,0.0
12604,81.0,108.0,60.0,1.0,0.0
12605,61.0,0.0,60.0,2.0,0.0
12606,76.0,0.0,60.0,1.0,0.0
12607,57.0,0.0,60.0,3.0,0.0
12608,69.0,0.0,60.0,3.0,0.0
12609,78.0,0.0,60.0,1.0,0.0
12610,66.0,0.0,60.0,2.0,0.0
12611,83.0,0.0,60.0,0.0,0.0
12612,71.0,12.0,60.0,12.0,0.0
12613,59.0,108.0,180.0,15.0,0.0
12614,59.0,0.0,60.0,3.0,0.0
12615,71.0,0.0,60.0,3.0,0.0
12616,63.0,120.0,60.0,2.0,0.0
12617,75.0,0.0,60.0,1.0,0.0
12618,59.0,0.0,60.0,3.0,0.0
12619,66.0,0.0,60.0,2.0,0.0
12620,63.0,12.0,60.0,2.0,0.0
12621,78.0,0.0,60.0,1.0,0.0
12622,71.0,0.0,60.0,3.0,0.0
12623,75.0,0.0,60.0,1.0,0.0
12624,87.0,0.0,60.0,0.0,0.0
12625,75.0,0.0,60.0,1.0,0.0
12626,78.0,108.0,60.0,1.0,0.0
12627,66.0,0.0,60.0,2.0,0.0
12628,63.0,0.0,60.0,2.0,0.0
12629,71.0,0.0,60.0,3.0,0.0
12630,59.0,0.0,60.0,3.0,0.0
12631,85.0,0.0,60.0,0.0,0.0
12632,66.0,0.0,60.0,2.0,0.0
12633,63.0,0.0,60.0,2.0,0.0
12634,83.0,0.0,60.0,0.0,0.0
12635,78.0,108.0,60.0,1.0,0.0
12636,71.0,12.0,60.0,12.0,0.0
12637,75.0,0.0,60.0,1.0,0.0
12638,59.0,0.0,60.0,3.0,0.0
12639,71.0,0.0,60.0,3.0,0.0
12640,81.0,0.0,60.0,0.0,0.0
12641,61.0,96.0,180.0,15.0,0.0
12642,73.0,0.0,60.0,3.0,0.0
12643,61.0,0.0,60.0,3.0,0.0
12644,73.0,12.0,60.0,12.0,0.0
12645,73.0,0.0,60.0,1.0,0.0
12646,61.0,0.0,60.0,2.0,0.0
12647,64.0,120.0,60.0,2.0,0.0
12648,76.0,0.0,60.0,1.0,0.0
12649,73.0,0.0,60.0,2.0,0.0
12650,85.0,12.0,60.0,0.0,0.0
12651,76.0,0.0,60.0,1.0,0.0
12652,73.0,0.0,60.0,1.0,0.0
12653,64.0,0.0,60.0,3.0,0.0
12654,61.0,0.0,60.0,3.0,0.0
12655,83.0,0.0,60.0,0.0,0.0
12656,73.0,120.0,60.0,2.0,0.0
12657,76.0,0.0,60.0,1.0,0.0
12658,73.0,0.0,60.0,1.0,0.0
12659,64.0,0.0,60.0,3.0,0.0
12660,61.0,0.0,60.0,3.0,0.0
12661,49.0,12.0,60.0,12.0,0.0
12662,37.0,228.0,180.0,15.0,0.0
12663,73.0,0.0,60.0,1.0,0.0
12664,64.0,0.0,60.0,3.0,0.0
12665,73.0,0.0,60.0,2.0,0.0
12666,76.0,12.0,60.0,1.0,0.0
12667,81.0,0.0,60.0,0.0,0.0
12668,61.0,0.0,60.0,3.0,0.0
12669,72.0,0.0,240.0,2.0,0.0
12670,75.0,0.0,240.0,1.0,0.0
12671,60.0,60.0,240.0,3.0,0.0
12672,63.0,0.0,240.0,3.0,0.0
12673,80.0,84.0,540.0,0.0,0.0
12674,49.0,60.0,60.0,12.0,0.0
12675,61.0,0.0,390.0,3.0,0.0
12676,64.0,0.0,390.0,3.0,0.0
12677,76.0,0.0,390.0,1.0,0.0
12678,73.0,36.0,390.0,2.0,0.0
12679,47.0,120.0,60.0,12.0,0.0
12680,45.0,120.0,60.0,12.0,0.0
12681,44.0,0.0,60.0,12.0,0.0
12682,85.0,120.0,60.0,0.0,0.0
12683,64.0,0.0,180.0,3.0,0.0
12684,61.0,0.0,180.0,3.0,0.0
12685,73.0,0.0,180.0,2.0,0.0
12686,83.0,120.0,60.0,0.0,0.0
12687,76.0,228.0,180.0,1.0,0.0
12688,81.0,12.0,60.0,0.0,0.0
12689,80.0,48.0,180.0,0.0,0.0
12690,80.0,84.0,540.0,1.0,0.0
12691,63.0,0.0,240.0,3.0,0.0
12692,72.0,0.0,240.0,2.0,0.0
12693,75.0,0.0,240.0,1.0,0.0
12694,60.0,60.0,240.0,3.0,0.0
12695,49.0,12.0,60.0,12.0,0.0
12696,92.0,108.0,180.0,0.0,0.0
12697,76.0,0.0,390.0,1.0,0.0
12698,61.0,0.0,390.0,3.0,0.0
12699,47.0,120.0,60.0,12.0,0.0
12700,73.0,36.0,390.0,2.0,0.0
12701,64.0,0.0,390.0,3.0,0.0
12702,45.0,12.0,60.0,12.0,0.0
12703,44.0,0.0,60.0,12.0,0.0
12704,92.0,108.0,180.0,0.0,0.0
12705,85.0,12.0,60.0,1.0,0.0
12706,92.0,228.0,180.0,0.0,0.0
12707,83.0,120.0,60.0,1.0,0.0
12708,61.0,0.0,180.0,3.0,0.0
12709,73.0,0.0,180.0,2.0,0.0
12710,76.0,0.0,180.0,1.0,0.0
12711,64.0,0.0,180.0,3.0,0.0
12712,81.0,12.0,60.0,1.0,0.0
12713,63.0,0.0,240.0,3.0,0.0
12714,75.0,60.0,240.0,1.0,0.0
12715,80.0,60.0,540.0,1.0,0.0
12716,72.0,0.0,240.0,2.0,0.0
12717,60.0,0.0,240.0,3.0,0.0
12718,92.0,0.0,540.0,0.0,0.0
12719,49.0,60.0,60.0,12.0,0.0
12720,76.0,0.0,360.0,1.0,0.0
12721,61.0,60.0,360.0,3.0,0.0
12722,64.0,0.0,360.0,3.0,0.0
12723,47.0,120.0,60.0,12.0,0.0
12724,45.0,120.0,60.0,12.0,0.0
12725,44.0,0.0,60.0,12.0,0.0
12726,73.0,0.0,60.0,4.0,0.0
12727,61.0,54.0,60.0,4.0,0.0
12728,85.0,0.0,60.0,1.0,0.0
12729,73.0,0.0,15.0,2.0,0.0
12730,97.0,0.0,60.0,0.0,0.0
12731,54.0,0.0,120.0,3.0,0.0
12732,66.0,66.0,120.0,3.0,0.0
12733,76.0,0.0,120.0,1.0,0.0
12734,95.0,54.0,60.0,0.0,0.0
12735,64.0,0.0,120.0,3.0,0.0
12736,73.0,0.0,60.0,4.0,0.0
12737,73.0,66.0,120.0,2.0,0.0
12738,52.0,0.0,120.0,3.0,0.0
12739,83.0,0.0,60.0,1.0,0.0
12740,76.0,0.0,120.0,1.0,0.0
12741,61.0,0.0,60.0,4.0,0.0
12742,93.0,54.0,60.0,0.0,0.0
12743,73.0,0.0,120.0,2.0,0.0
12744,73.0,0.0,60.0,4.0,0.0
12745,61.0,0.0,60.0,4.0,0.0
12746,78.0,0.0,120.0,1.0,0.0
12747,81.0,0.0,60.0,1.0,0.0
12748,63.0,120.0,120.0,3.0,0.0
12749,51.0,0.0,120.0,3.0,0.0
12750,49.0,0.0,120.0,3.0,0.0
12751,61.0,0.0,120.0,3.0,0.0
12752,92.0,0.0,120.0,0.0,0.0
12753,73.0,6.0,120.0,2.0,0.0
12754,73.0,60.0,120.0,4.0,0.0
12755,61.0,0.0,120.0,4.0,0.0
12756,80.0,0.0,120.0,1.0,0.0
12757,45.0,120.0,60.0,12.0,0.0
12758,49.0,0.0,60.0,6.0,0.0
12759,61.0,0.0,60.0,5.0,0.0
12760,73.0,0.0,60.0,8.0,0.0
12761,57.0,0.0,60.0,11.0,0.0
12762,61.0,0.0,60.0,10.0,0.0
12763,73.0,0.0,60.0,5.0,0.0
12764,56.0,120.0,60.0,11.0,0.0
12765,73.0,0.0,60.0,5.0,0.0
12766,44.0,0.0,60.0,12.0,0.0
12767,49.0,0.0,60.0,6.0,0.0
12768,61.0,0.0,60.0,5.0,0.0
12769,71.0,0.0,60.0,8.0,0.0
12770,61.0,0.0,60.0,10.0,0.0
12771,42.0,0.0,60.0,12.0,0.0
12772,61.0,0.0,60.0,5.0,0.0
12773,73.0,0.0,60.0,5.0,0.0
12774,61.0,0.0,60.0,10.0,0.0
12775,69.0,0.0,60.0,8.0,0.0
12776,54.0,0.0,60.0,11.0,0.0
12777,49.0,120.0,60.0,6.0,0.0
12778,40.0,0.0,60.0,12.0,0.0
12779,61.0,0.0,60.0,10.0,0.0
12780,52.0,0.0,60.0,11.0,0.0
12781,61.0,0.0,60.0,5.0,0.0
12782,49.0,0.0,60.0,6.0,0.0
12783,73.0,0.0,60.0,5.0,0.0
12784,68.0,120.0,60.0,8.0,0.0
12785,49.0,54.0,60.0,4.0,0.0
12786,42.0,0.0,120.0,3.0,0.0
12787,54.0,0.0,120.0,3.0,0.0
12788,61.0,0.0,60.0,4.0,0.0
12789,85.0,66.0,120.0,0.0,0.0
12790,93.0,0.0,120.0,0.0,0.0
12791,61.0,0.0,120.0,2.0,0.0
12792,73.0,0.0,120.0,2.0,0.0
12793,73.0,0.0,120.0,1.0,0.0
12794,61.0,54.0,60.0,4.0,0.0
12795,49.0,0.0,60.0,4.0,0.0
12796,85.0,0.0,120.0,0.0,0.0
12797,73.0,0.0,120.0,2.0,0.0
12798,73.0,0.0,120.0,1.0,0.0
12799,52.0,0.0,120.0,3.0,0.0
12800,40.0,0.0,120.0,3.0,0.0
12801,92.0,66.0,120.0,0.0,0.0
12802,61.0,0.0,120.0,2.0,0.0
12803,87.0,0.0,120.0,0.0,0.0
12804,90.0,0.0,120.0,0.0,0.0
12805,39.0,54.0,180.0,3.0,0.0
12806,51.0,0.0,180.0,3.0,0.0
12807,75.0,66.0,120.0,1.0,0.0
12808,63.0,0.0,120.0,2.0,0.0
12809,61.0,54.0,60.0,4.0,0.0
12810,49.0,0.0,60.0,4.0,0.0
12811,72.0,0.0,120.0,2.0,0.0
12812,88.0,66.0,120.0,0.0,0.0
12813,64.0,0.0,690.0,2.0,0.0
12814,76.0,36.0,690.0,1.0,0.0
12815,68.0,60.0,1920.0,4.0,0.0
12816,73.0,0.0,120.0,0.0,0.0
12817,37.0,0.0,60.0,3.0,0.0
12818,49.0,120.0,60.0,3.0,0.0
12819,52.0,120.0,60.0,3.0,0.0
12820,40.0,0.0,60.0,3.0,0.0
12821,44.0,0.0,60.0,3.0,0.0
12822,56.0,120.0,60.0,3.0,0.0
12823,61.0,144.0,60.0,3.0,0.0
12824,61.0,192.0,240.0,11.0,0.0
12825,68.0,0.0,240.0,8.0,0.0
12826,49.0,0.0,60.0,3.0,0.0
12827,64.0,0.0,240.0,10.0,0.0
12828,81.0,0.0,240.0,1.0,0.0
12829,69.0,72.0,240.0,2.0,0.0
12830,49.0,36.0,180.0,15.0,0.0
12831,61.0,0.0,180.0,15.0,0.0
12832,80.0,36.0,690.0,1.0,0.0
12833,40.0,120.0,60.0,3.0,0.0
12834,52.0,0.0,60.0,3.0,0.0
12835,68.0,0.0,690.0,2.0,0.0
12836,44.0,120.0,60.0,3.0,0.0
12837,56.0,0.0,60.0,3.0,0.0
12838,49.0,120.0,60.0,3.0,0.0
12839,61.0,0.0,60.0,3.0,0.0
12840,63.0,120.0,60.0,3.0,0.0
12841,51.0,0.0,60.0,3.0,0.0
12842,73.0,192.0,240.0,8.0,0.0
12843,64.0,0.0,240.0,11.0,0.0
12844,68.0,0.0,240.0,10.0,0.0
12845,64.0,0.0,60.0,3.0,0.0
12846,52.0,144.0,60.0,3.0,0.0
12847,85.0,12.0,240.0,1.0,0.0
12848,52.0,36.0,180.0,15.0,0.0
12849,73.0,0.0,240.0,2.0,0.0
12850,40.0,0.0,180.0,15.0,0.0
12851,84.0,0.0,690.0,0.0,0.0
12852,51.0,120.0,60.0,3.0,0.0
12853,39.0,0.0,60.0,3.0,0.0
12854,72.0,36.0,690.0,2.0,0.0
12855,84.0,74.0,240.0,1.0,0.0
12856,69.0,90.0,1410.0,4.0,0.0
12857,42.0,46.0,60.0,3.0,0.0
12858,54.0,0.0,60.0,3.0,0.0
12859,45.0,0.0,60.0,3.0,0.0
12860,57.0,120.0,60.0,3.0,0.0
12861,60.0,120.0,60.0,3.0,0.0
12862,48.0,0.0,60.0,3.0,0.0
12863,69.0,0.0,240.0,10.0,0.0
12864,51.0,144.0,60.0,3.0,0.0
12865,63.0,0.0,60.0,3.0,0.0
12866,72.0,192.0,240.0,8.0,0.0
12867,66.0,0.0,240.0,11.0,0.0
12868,78.0,72.0,240.0,2.0,0.0
12869,51.0,36.0,180.0,15.0,0.0
12870,39.0,0.0,180.0,15.0,0.0
12871,90.0,0.0,240.0,0.0,0.0
12872,54.0,0.0,60.0,3.0,0.0
12873,42.0,120.0,60.0,3.0,0.0
12874,87.0,36.0,690.0,0.0,0.0
12875,75.0,0.0,690.0,2.0,0.0
12876,57.0,120.0,60.0,3.0,0.0
12877,45.0,0.0,60.0,3.0,0.0
12878,60.0,0.0,60.0,3.0,0.0
12879,48.0,120.0,60.0,3.0,0.0
12880,51.0,30.0,60.0,3.0,0.0
12881,63.0,0.0,60.0,3.0,0.0
12882,60.0,192.0,240.0,11.0,0.0
12883,69.0,0.0,240.0,10.0,0.0
12884,66.0,144.0,60.0,3.0,0.0
12885,54.0,0.0,60.0,3.0,0.0
12886,75.0,0.0,240.0,8.0,0.0
12887,66.0,0.0,15.0,10.0,0.0
12888,66.0,0.0,240.0,4.0,0.0
12889,54.0,0.0,300.0,11.0,0.0
12890,81.0,0.0,240.0,2.0,0.0
12891,78.0,120.0,300.0,8.0,0.0
12892,93.0,72.0,240.0,0.0,0.0
12893,49.0,0.0,180.0,15.0,0.0
12894,61.0,0.0,180.0,15.0,0.0
12895,61.0,0.0,180.0,5.0,0.0
12896,49.0,36.0,180.0,6.0,0.0
12897,61.0,0.0,180.0,5.0,0.0
12898,68.0,72.0,240.0,4.0,0.0
12899,92.0,0.0,450.0,0.0,0.0
12900,49.0,36.0,180.0,6.0,0.0
12901,49.0,240.0,720.0,12.0,0.0
12902,37.0,0.0,720.0,13.0,0.0
12903,80.0,18.0,450.0,2.0,0.0
12904,52.0,0.0,60.0,11.0,0.0
12905,76.0,0.0,60.0,8.0,0.0
12906,64.0,12.0,60.0,10.0,0.0
12907,68.0,0.0,60.0,10.0,0.0
12908,66.0,132.0,240.0,4.0,0.0
12909,56.0,0.0,60.0,11.0,0.0
12910,80.0,120.0,60.0,8.0,0.0
12911,84.0,0.0,60.0,8.0,0.0
12912,72.0,0.0,60.0,10.0,0.0
12913,60.0,30.0,60.0,11.0,0.0
12914,85.0,0.0,120.0,8.0,0.0
12915,64.0,14.0,3600.0,4.0,0.0
12916,73.0,120.0,120.0,10.0,0.0
12917,61.0,0.0,120.0,11.0,0.0
12918,42.0,60.0,240.0,13.0,0.0
12919,54.0,0.0,240.0,12.0,0.0
12920,73.0,0.0,60.0,8.0,0.0
12921,61.0,0.0,60.0,11.0,0.0
12922,61.0,120.0,60.0,10.0,0.0
12923,52.0,0.0,720.0,12.0,0.0
12924,40.0,240.0,720.0,13.0,0.0
12925,64.0,0.0,60.0,10.0,0.0
12926,52.0,0.0,60.0,11.0,0.0
12927,76.0,120.0,60.0,8.0,0.0
12928,81.0,0.0,60.0,8.0,0.0
12929,69.0,0.0,60.0,10.0,0.0
12930,57.0,120.0,60.0,11.0,0.0
12931,71.0,0.0,60.0,10.0,0.0
12932,83.0,0.0,60.0,8.0,0.0
12933,59.0,180.0,60.0,11.0,0.0
12934,85.0,0.0,120.0,8.0,0.0
12935,61.0,120.0,120.0,11.0,0.0
12936,73.0,0.0,120.0,10.0,0.0
12937,45.0,60.0,240.0,13.0,0.0
12938,57.0,0.0,240.0,12.0,0.0
12939,56.0,0.0,720.0,12.0,0.0
12940,44.0,228.0,720.0,13.0,0.0
12941,64.0,0.0,60.0,10.0,0.0
12942,76.0,36.0,690.0,1.0,0.0
12943,76.0,0.0,60.0,8.0,0.0
12944,52.0,120.0,60.0,11.0,0.0
12945,68.0,120.0,60.0,10.0,0.0
12946,80.0,0.0,60.0,8.0,0.0
12947,56.0,0.0,60.0,11.0,0.0
12948,71.0,0.0,60.0,10.0,0.0
12949,83.0,120.0,60.0,8.0,0.0
12950,59.0,0.0,60.0,11.0,0.0
12951,85.0,0.0,60.0,8.0,0.0
12952,61.0,180.0,60.0,11.0,0.0
12953,73.0,0.0,60.0,10.0,0.0
12954,74.0,0.0,120.0,10.0,0.0
12955,86.0,84.0,120.0,8.0,0.0
12956,62.0,0.0,120.0,11.0,0.0
12957,50.0,60.0,240.0,13.0,0.0
12958,62.0,0.0,240.0,12.0,0.0
12959,83.0,12.0,240.0,1.0,0.0
12960,59.0,240.0,720.0,12.0,0.0
12961,80.0,36.0,690.0,1.0,0.0
12962,74.0,0.0,60.0,8.0,0.0
12963,62.0,0.0,60.0,10.0,0.0
12964,47.0,0.0,720.0,13.0,0.0
12965,62.0,120.0,60.0,11.0,0.0
12966,68.0,120.0,60.0,10.0,0.0
12967,59.0,0.0,60.0,11.0,0.0
12968,80.0,0.0,60.0,8.0,0.0
12969,68.0,0.0,60.0,10.0,0.0
12970,83.0,120.0,60.0,8.0,0.0
12971,56.0,0.0,60.0,11.0,0.0
12972,69.0,0.0,60.0,10.0,0.0
12973,54.0,180.0,60.0,11.0,0.0
12974,85.0,0.0,60.0,8.0,0.0
12975,86.0,0.0,120.0,8.0,0.0
12976,52.0,0.0,120.0,11.0,0.0
12977,71.0,84.0,120.0,10.0,0.0
12978,86.0,0.0,240.0,0.0,0.0
12979,66.0,0.0,240.0,12.0,0.0
12980,86.0,60.0,480.0,1.0,0.0
12981,54.0,60.0,240.0,13.0,0.0
12982,92.0,0.0,240.0,0.0,0.0
12983,64.0,120.0,60.0,12.0,0.0
12984,52.0,0.0,60.0,13.0,0.0
12985,52.0,0.0,60.0,12.0,0.0
12986,40.0,46.0,60.0,13.0,0.0
12987,45.0,0.0,60.0,13.0,0.0
12988,64.0,0.0,480.0,11.0,0.0
12989,64.0,74.0,960.0,4.0,0.0
12990,93.0,0.0,240.0,0.0,0.0
12991,73.0,48.0,480.0,8.0,0.0
12992,61.0,0.0,480.0,10.0,0.0
12993,57.0,120.0,60.0,12.0,0.0
12994,85.0,60.0,240.0,1.0,0.0
12995,61.0,48.0,60.0,12.0,0.0
12996,49.0,0.0,60.0,13.0,0.0
12997,61.0,0.0,60.0,2.0,0.0
12998,73.0,0.0,60.0,1.0,0.0
12999,49.0,0.0,60.0,3.0,0.0
13000,52.0,48.0,120.0,13.0,0.0
13001,85.0,72.0,60.0,0.0,0.0
13002,64.0,0.0,120.0,12.0,0.0
13003,52.0,0.0,60.0,3.0,0.0
13004,76.0,0.0,60.0,1.0,0.0
13005,64.0,0.0,60.0,2.0,0.0
13006,88.0,72.0,60.0,0.0,0.0
13007,81.0,0.0,60.0,1.0,0.0
13008,57.0,0.0,60.0,3.0,0.0
13009,69.0,72.0,60.0,2.0,0.0
13010,93.0,0.0,60.0,0.0,0.0
13011,66.0,0.0,120.0,10.0,0.0
13012,57.0,48.0,120.0,11.0,0.0
13013,78.0,0.0,120.0,8.0,0.0
13014,85.0,0.0,60.0,1.0,0.0
13015,97.0,0.0,60.0,0.0,0.0
13016,64.0,48.0,120.0,10.0,0.0
13017,76.0,0.0,120.0,8.0,0.0
13018,61.0,0.0,60.0,3.0,0.0
13019,73.0,72.0,60.0,2.0,0.0
13020,37.0,0.0,60.0,13.0,0.0
13021,97.0,12.0,60.0,0.0,0.0
13022,49.0,34.0,180.0,6.0,0.0
13023,76.0,0.0,60.0,2.0,0.0
13024,49.0,84.0,60.0,12.0,0.0
13025,88.0,0.0,60.0,1.0,0.0
13026,64.0,0.0,60.0,3.0,0.0
13027,61.0,36.0,150.0,5.0,0.0
13028,73.0,0.0,150.0,5.0,0.0
13029,40.0,0.0,60.0,13.0,0.0
13030,52.0,12.0,60.0,12.0,0.0
13031,61.0,48.0,480.0,11.0,0.0
13032,64.0,0.0,480.0,10.0,0.0
13033,76.0,0.0,480.0,8.0,0.0
13034,42.0,120.0,60.0,13.0,0.0
13035,64.0,74.0,960.0,4.0,0.0
13036,54.0,0.0,60.0,12.0,0.0
13037,56.0,108.0,60.0,12.0,0.0
13038,44.0,0.0,60.0,13.0,0.0
13039,85.0,0.0,60.0,0.0,0.0
13040,49.0,0.0,60.0,3.0,0.0
13041,73.0,72.0,60.0,1.0,0.0
13042,45.0,48.0,120.0,13.0,0.0
13043,57.0,0.0,120.0,12.0,0.0
13044,61.0,0.0,60.0,2.0,0.0
13045,52.0,0.0,60.0,3.0,0.0
13046,64.0,72.0,60.0,2.0,0.0
13047,88.0,0.0,60.0,0.0,0.0
13048,76.0,0.0,60.0,1.0,0.0
13049,71.0,0.0,120.0,10.0,0.0
13050,83.0,48.0,120.0,8.0,0.0
13051,81.0,0.0,60.0,1.0,0.0
13052,69.0,0.0,60.0,2.0,0.0
13053,57.0,0.0,60.0,3.0,0.0
13054,52.0,0.0,120.0,11.0,0.0
13055,93.0,72.0,60.0,0.0,0.0
13056,73.0,0.0,60.0,2.0,0.0
13057,69.0,0.0,120.0,10.0,0.0
13058,97.0,72.0,60.0,0.0,0.0
13059,81.0,48.0,120.0,8.0,0.0
13060,85.0,0.0,60.0,1.0,0.0
13061,61.0,0.0,60.0,3.0,0.0
13062,35.0,0.0,60.0,13.0,0.0
13063,47.0,120.0,60.0,12.0,0.0
13064,74.0,0.0,60.0,2.0,0.0
13065,62.0,0.0,60.0,3.0,0.0
13066,86.0,0.0,60.0,0.0,0.0
13067,86.0,12.0,60.0,1.0,0.0
13068,38.0,46.0,60.0,13.0,0.0
13069,50.0,0.0,60.0,12.0,0.0
13070,68.0,0.0,480.0,10.0,0.0
13071,80.0,48.0,480.0,8.0,0.0
13072,40.0,120.0,60.0,13.0,0.0
13073,52.0,0.0,60.0,12.0,0.0
13074,74.0,0.0,480.0,11.0,0.0
13075,64.0,74.0,960.0,4.0,0.0
13076,56.0,0.0,60.0,12.0,0.0
13077,44.0,108.0,60.0,13.0,0.0
13078,47.0,0.0,120.0,13.0,0.0
13079,68.0,0.0,60.0,2.0,0.0
13080,80.0,0.0,60.0,0.0,0.0
13081,56.0,72.0,60.0,3.0,0.0
13082,68.0,0.0,60.0,1.0,0.0
13083,59.0,48.0,120.0,12.0,0.0
13084,59.0,72.0,60.0,3.0,0.0
13085,83.0,0.0,60.0,0.0,0.0
13086,59.0,0.0,60.0,2.0,0.0
13087,71.0,0.0,60.0,1.0,0.0
13088,76.0,72.0,60.0,1.0,0.0
13089,88.0,0.0,60.0,0.0,0.0
13090,68.0,48.0,120.0,11.0,0.0
13091,88.0,0.0,120.0,8.0,0.0
13092,64.0,0.0,60.0,2.0,0.0
13093,52.0,0.0,60.0,3.0,0.0
13094,76.0,0.0,120.0,10.0,0.0
13095,68.0,0.0,60.0,2.0,0.0
13096,86.0,0.0,120.0,8.0,0.0
13097,56.0,0.0,60.0,3.0,0.0
13098,80.0,72.0,60.0,1.0,0.0
13099,92.0,0.0,60.0,0.0,0.0
13100,74.0,48.0,120.0,10.0,0.0
13101,95.0,0.0,60.0,0.0,0.0
13102,50.0,120.0,60.0,12.0,0.0
13103,71.0,0.0,60.0,2.0,0.0
13104,38.0,0.0,60.0,13.0,0.0
13105,59.0,0.0,60.0,3.0,0.0
13106,83.0,12.0,60.0,1.0,0.0
13107,40.0,0.0,60.0,13.0,0.0
13108,52.0,46.0,60.0,12.0,0.0
13109,56.0,0.0,60.0,12.0,0.0
13110,44.0,120.0,60.0,13.0,0.0
13111,83.0,0.0,480.0,8.0,0.0
13112,62.0,48.0,480.0,11.0,0.0
13113,64.0,14.0,960.0,4.0,0.0
13114,71.0,0.0,480.0,10.0,0.0
13115,59.0,108.0,60.0,12.0,0.0
13116,47.0,0.0,60.0,13.0,0.0
13117,83.0,0.0,60.0,0.0,0.0
13118,47.0,0.0,60.0,3.0,0.0
13119,59.0,72.0,60.0,2.0,0.0
13120,50.0,48.0,120.0,13.0,0.0
13121,62.0,0.0,120.0,12.0,0.0
13122,71.0,0.0,60.0,1.0,0.0
13123,76.0,0.0,60.0,1.0,0.0
13124,64.0,0.0,60.0,2.0,0.0
13125,88.0,0.0,60.0,0.0,0.0
13126,52.0,72.0,60.0,3.0,0.0
13127,90.0,0.0,120.0,8.0,0.0
13128,52.0,0.0,120.0,11.0,0.0
13129,78.0,48.0,120.0,10.0,0.0
13130,92.0,0.0,60.0,0.0,0.0
13131,56.0,0.0,60.0,3.0,0.0
13132,80.0,72.0,60.0,1.0,0.0
13133,68.0,0.0,60.0,2.0,0.0
13134,95.0,0.0,60.0,0.0,0.0
13135,83.0,0.0,60.0,1.0,0.0
13136,76.0,48.0,120.0,10.0,0.0
13137,71.0,72.0,60.0,2.0,0.0
13138,59.0,0.0,60.0,3.0,0.0
13139,88.0,0.0,15.0,8.0,0.0
13140,57.0,60.0,2400.0,3.0,0.0
13141,61.0,84.0,90.0,12.0,0.0
13142,69.0,12.0,60.0,2.0,0.0
13143,81.0,24.0,600.0,10.0,0.0
13144,93.0,0.0,2400.0,0.0,0.0
13145,52.0,36.0,60.0,11.0,0.0
13146,57.0,60.0,120.0,11.0,0.0
13147,88.0,46.0,60.0,8.0,0.0
13148,90.0,36.0,60.0,8.0,0.0
13149,52.0,24.0,90.0,12.0,0.0
13150,56.0,60.0,120.0,11.0,0.0
13151,64.0,14.0,960.0,4.0,0.0
13152,54.0,120.0,60.0,11.0,0.0
13153,92.0,0.0,60.0,8.0,0.0
13154,61.0,36.0,150.0,5.0,0.0
13155,40.0,24.0,90.0,12.0,0.0
13156,49.0,108.0,180.0,6.0,0.0
13157,73.0,0.0,150.0,5.0,0.0
13158,93.0,36.0,540.0,8.0,0.0
13159,52.0,36.0,60.0,11.0,0.0
13160,85.0,12.0,60.0,10.0,0.0
13161,52.0,0.0,60.0,11.0,0.0
13162,83.0,120.0,60.0,10.0,0.0
13163,61.0,84.0,330.0,12.0,0.0
13164,52.0,0.0,60.0,11.0,0.0
13165,52.0,120.0,60.0,11.0,0.0
13166,81.0,0.0,60.0,10.0,0.0
13167,81.0,24.0,600.0,10.0,0.0
13168,52.0,0.0,60.0,11.0,0.0
13169,57.0,60.0,120.0,11.0,0.0
13170,88.0,46.0,60.0,8.0,0.0
13171,64.0,14.0,960.0,4.0,0.0
13172,56.0,60.0,120.0,11.0,0.0
13173,90.0,36.0,60.0,8.0,0.0
13174,52.0,24.0,90.0,12.0,0.0
13175,92.0,0.0,60.0,8.0,0.0
13176,54.0,120.0,60.0,11.0,0.0
13177,52.0,36.0,60.0,11.0,0.0
13178,49.0,34.0,180.0,6.0,0.0
13179,40.0,24.0,90.0,12.0,0.0
13180,93.0,4.0,240.0,8.0,0.0
13181,73.0,36.0,150.0,5.0,0.0
13182,61.0,0.0,150.0,5.0,0.0
13183,52.0,0.0,60.0,11.0,0.0
13184,85.0,12.0,60.0,10.0,0.0
13185,92.0,20.0,20.0,8.0,0.0
13186,90.0,20.0,20.0,8.0,0.0
13187,83.0,36.0,60.0,10.0,0.0
13188,61.0,84.0,90.0,12.0,0.0
13189,52.0,0.0,60.0,11.0,0.0
13190,86.0,30.0,20.0,8.0,0.0
13191,85.0,66.0,210.0,8.0,0.0
13192,81.0,0.0,60.0,10.0,0.0
13193,52.0,54.0,60.0,11.0,0.0
13194,59.0,84.0,90.0,12.0,0.0
13195,52.0,0.0,60.0,11.0,0.0
13196,86.0,36.0,60.0,10.0,0.0
13197,86.0,24.0,600.0,8.0,0.0
13198,83.0,46.0,60.0,10.0,0.0
13199,59.0,60.0,120.0,11.0,0.0
13200,85.0,36.0,60.0,10.0,0.0
13201,64.0,14.0,960.0,4.0,0.0
13202,56.0,60.0,120.0,11.0,0.0
13203,52.0,24.0,90.0,12.0,0.0
13204,54.0,0.0,60.0,11.0,0.0
13205,86.0,60.0,60.0,10.0,0.0
13206,56.0,60.0,1440.0,3.0,0.0
13207,40.0,24.0,90.0,12.0,0.0
13208,86.0,0.0,540.0,10.0,0.0
13209,92.0,0.0,1440.0,0.0,0.0
13210,76.0,36.0,150.0,5.0,0.0
13211,52.0,36.0,60.0,11.0,0.0
13212,90.0,120.0,60.0,8.0,0.0
13213,52.0,0.0,60.0,11.0,0.0
13214,52.0,0.0,60.0,11.0,0.0
13215,59.0,84.0,330.0,12.0,0.0
13216,88.0,120.0,60.0,8.0,0.0
13217,52.0,120.0,60.0,11.0,0.0
13218,86.0,0.0,60.0,8.0,0.0
13219,86.0,24.0,600.0,8.0,0.0
13220,52.0,36.0,60.0,11.0,0.0
13221,59.0,60.0,120.0,11.0,0.0
13222,80.0,46.0,60.0,10.0,0.0
13223,64.0,14.0,960.0,4.0,0.0
13224,52.0,24.0,90.0,12.0,0.0
13225,56.0,60.0,120.0,11.0,0.0
13226,83.0,36.0,60.0,10.0,0.0
13227,85.0,0.0,60.0,10.0,0.0
13228,54.0,120.0,60.0,11.0,0.0
13229,86.0,36.0,60.0,10.0,0.0
13230,40.0,24.0,90.0,12.0,0.0
13231,52.0,0.0,60.0,11.0,0.0
13232,76.0,36.0,150.0,5.0,0.0
13233,52.0,0.0,60.0,11.0,0.0
13234,90.0,120.0,60.0,8.0,0.0
13235,86.0,0.0,60.0,10.0,0.0
13236,85.0,0.0,60.0,10.0,0.0
13237,52.0,36.0,60.0,11.0,0.0
13238,88.0,0.0,60.0,8.0,0.0
13239,59.0,84.0,90.0,12.0,0.0
13240,83.0,0.0,60.0,10.0,0.0
13241,52.0,60.0,60.0,11.0,0.0
13242,86.0,0.0,60.0,8.0,0.0
13243,85.0,0.0,60.0,8.0,0.0
13244,52.0,0.0,60.0,11.0,0.0
13245,57.0,24.0,600.0,3.0,0.0
13246,93.0,0.0,600.0,0.0,0.0
13247,76.0,0.0,15.0,1.0,0.0
13248,81.0,36.0,60.0,10.0,0.0
13249,61.0,84.0,90.0,12.0,0.0
13250,73.0,0.0,60.0,8.0,0.0
13251,57.0,60.0,120.0,11.0,0.0
13252,69.0,46.0,60.0,10.0,0.0
13253,64.0,74.0,960.0,4.0,0.0
13254,71.0,0.0,60.0,10.0,0.0
13255,56.0,60.0,120.0,11.0,0.0
13256,74.0,36.0,60.0,8.0,0.0
13257,52.0,24.0,90.0,12.0,0.0
13258,76.0,120.0,60.0,8.0,0.0
13259,54.0,0.0,60.0,11.0,0.0
13260,73.0,0.0,60.0,10.0,0.0
13261,52.0,36.0,60.0,11.0,0.0
13262,49.0,0.0,150.0,6.0,0.0
13263,61.0,36.0,150.0,5.0,0.0
13264,73.0,0.0,150.0,5.0,0.0
13265,40.0,24.0,90.0,12.0,0.0
13266,76.0,0.0,540.0,8.0,0.0
13267,73.0,36.0,540.0,10.0,0.0
13268,61.0,0.0,60.0,3.0,0.0
13269,61.0,0.0,60.0,11.0,0.0
13270,57.0,120.0,60.0,11.0,0.0
13271,97.0,0.0,60.0,0.0,0.0
13272,95.0,0.0,60.0,0.0,0.0
13273,61.0,84.0,330.0,12.0,0.0
13274,59.0,120.0,60.0,11.0,0.0
13275,62.0,0.0,60.0,11.0,0.0
13276,59.0,0.0,60.0,3.0,0.0
13277,93.0,0.0,60.0,0.0,0.0
13278,57.0,0.0,60.0,3.0,0.0
13279,61.0,0.0,60.0,11.0,0.0
13280,64.0,120.0,60.0,11.0,0.0
13281,64.0,0.0,540.0,11.0,0.0
13282,61.0,36.0,540.0,11.0,0.0
13283,57.0,24.0,600.0,3.0,0.0
13284,93.0,0.0,600.0,0.0,0.0
13285,73.0,46.0,60.0,8.0,0.0
13286,69.0,0.0,60.0,10.0,0.0
13287,64.0,74.0,960.0,4.0,0.0
13288,52.0,84.0,90.0,12.0,0.0
13289,71.0,36.0,60.0,10.0,0.0
13290,74.0,0.0,60.0,8.0,0.0
13291,73.0,0.0,60.0,10.0,0.0
13292,76.0,120.0,60.0,8.0,0.0
13293,73.0,0.0,540.0,10.0,0.0
13294,40.0,24.0,90.0,12.0,0.0
13295,61.0,0.0,150.0,5.0,0.0
13296,73.0,36.0,150.0,5.0,0.0
13297,49.0,0.0,150.0,6.0,0.0
13298,76.0,36.0,540.0,8.0,0.0
13299,61.0,0.0,60.0,11.0,0.0
13300,57.0,0.0,60.0,11.0,0.0
13301,97.0,108.0,60.0,0.0,0.0
13302,61.0,0.0,60.0,3.0,0.0
13303,59.0,0.0,60.0,3.0,0.0
13304,61.0,84.0,90.0,12.0,0.0
13305,95.0,0.0,60.0,0.0,0.0
13306,62.0,0.0,60.0,11.0,0.0
13307,59.0,36.0,60.0,11.0,0.0
13308,93.0,0.0,60.0,0.0,0.0
13309,64.0,0.0,60.0,11.0,0.0
13310,57.0,120.0,60.0,3.0,0.0
13311,61.0,0.0,60.0,11.0,0.0
13312,71.0,36.0,540.0,11.0,0.0
13313,74.0,24.0,600.0,2.0,0.0
13314,62.0,0.0,540.0,11.0,0.0
13315,93.0,60.0,480.0,0.0,0.0
13316,59.0,84.0,90.0,12.0,0.0
13317,57.0,0.0,480.0,3.0,0.0
13318,86.0,0.0,600.0,1.0,0.0
13319,80.0,0.0,60.0,8.0,0.0
13320,71.0,46.0,60.0,10.0,0.0
13321,64.0,0.0,960.0,4.0,0.0
13322,52.0,84.0,90.0,12.0,0.0
13323,71.0,74.0,960.0,4.0,0.0
13324,81.0,36.0,60.0,8.0,0.0
13325,73.0,0.0,60.0,10.0,0.0
13326,74.0,60.0,60.0,10.0,0.0
13327,83.0,0.0,60.0,8.0,0.0
13328,74.0,0.0,540.0,10.0,0.0
13329,92.0,60.0,1440.0,0.0,0.0
13330,76.0,36.0,150.0,5.0,0.0
13331,56.0,0.0,1500.0,3.0,0.0
13332,40.0,24.0,90.0,12.0,0.0
13333,83.0,36.0,540.0,8.0,0.0
13334,59.0,120.0,60.0,11.0,0.0
13335,68.0,0.0,60.0,11.0,0.0
13336,90.0,0.0,60.0,1.0,0.0
13337,78.0,0.0,60.0,2.0,0.0
13338,76.0,120.0,60.0,2.0,0.0
13339,69.0,0.0,60.0,11.0,0.0
13340,61.0,0.0,60.0,11.0,0.0
13341,88.0,0.0,60.0,1.0,0.0
13342,59.0,84.0,330.0,12.0,0.0
13343,62.0,0.0,60.0,11.0,0.0
13344,71.0,120.0,60.0,11.0,0.0
13345,74.0,0.0,60.0,2.0,0.0
13346,86.0,0.0,60.0,1.0,0.0
13347,74.0,24.0,600.0,2.0,0.0
13348,62.0,0.0,540.0,11.0,0.0
13349,71.0,36.0,540.0,11.0,0.0
13350,86.0,0.0,600.0,1.0,0.0
13351,80.0,0.0,60.0,8.0,0.0
13352,71.0,46.0,60.0,10.0,0.0
13353,62.0,0.0,960.0,4.0,0.0
13354,68.0,0.0,960.0,4.0,0.0
13355,73.0,36.0,60.0,10.0,0.0
13356,81.0,0.0,60.0,8.0,0.0
13357,71.0,74.0,960.0,4.0,0.0
13358,52.0,84.0,90.0,12.0,0.0
13359,74.0,0.0,60.0,10.0,0.0
13360,83.0,120.0,60.0,8.0,0.0
13361,76.0,36.0,150.0,5.0,0.0
13362,83.0,30.0,450.0,8.0,0.0
13363,74.0,0.0,450.0,10.0,0.0
13364,40.0,24.0,90.0,12.0,0.0
13365,90.0,0.0,60.0,1.0,0.0
13366,59.0,0.0,60.0,11.0,0.0
13367,68.0,0.0,60.0,11.0,0.0
13368,78.0,120.0,60.0,2.0,0.0
13369,76.0,0.0,60.0,2.0,0.0
13370,62.0,84.0,90.0,12.0,0.0
13371,61.0,0.0,60.0,11.0,0.0
13372,88.0,36.0,60.0,1.0,0.0
13373,69.0,0.0,60.0,11.0,0.0
13374,74.0,0.0,60.0,2.0,0.0
13375,62.0,30.0,60.0,11.0,0.0
13376,86.0,0.0,60.0,1.0,0.0
13377,71.0,0.0,60.0,11.0,0.0
13378,80.0,60.0,120.0,10.0,0.0
13379,74.0,0.0,60.0,2.0,0.0
13380,95.0,0.0,600.0,0.0,0.0
13381,62.0,0.0,540.0,11.0,0.0
13382,71.0,0.0,540.0,11.0,0.0
13383,83.0,24.0,600.0,8.0,0.0
13384,62.0,24.0,90.0,12.0,0.0
13385,86.0,0.0,60.0,1.0,0.0
13386,74.0,36.0,60.0,1.0,0.0
13387,71.0,0.0,60.0,2.0,0.0
13388,80.0,46.0,60.0,2.0,0.0
13389,80.0,0.0,60.0,1.0,0.0
13390,59.0,0.0,60.0,3.0,0.0
13391,83.0,0.0,60.0,1.0,0.0
13392,68.0,0.0,60.0,3.0,0.0
13393,73.0,36.0,60.0,2.0,0.0
13394,62.0,0.0,960.0,4.0,0.0
13395,81.0,0.0,60.0,2.0,0.0
13396,61.0,0.0,60.0,3.0,0.0
13397,81.0,0.0,60.0,1.0,0.0
13398,85.0,0.0,60.0,1.0,0.0
13399,68.0,74.0,960.0,4.0,0.0
13400,68.0,36.0,300.0,10.0,0.0
13401,53.0,84.0,90.0,12.0,0.0
13402,69.0,0.0,60.0,3.0,0.0
13403,71.0,0.0,960.0,4.0,0.0
13404,86.0,0.0,60.0,1.0,0.0
13405,83.0,0.0,60.0,1.0,0.0
13406,71.0,120.0,60.0,3.0,0.0
13407,62.0,0.0,60.0,3.0,0.0
13408,74.0,0.0,60.0,2.0,0.0
13409,83.0,0.0,60.0,2.0,0.0
13410,78.0,36.0,150.0,5.0,0.0
13411,83.0,0.0,540.0,2.0,0.0
13412,71.0,36.0,540.0,3.0,0.0
13413,41.0,24.0,90.0,12.0,0.0
13414,83.0,0.0,540.0,1.0,0.0
13415,86.0,0.0,540.0,1.0,0.0
13416,62.0,0.0,540.0,3.0,0.0
13417,74.0,0.0,540.0,2.0,0.0
13418,83.0,0.0,60.0,10.0,0.0
13419,59.0,12.0,60.0,11.0,0.0
13420,68.0,0.0,60.0,11.0,0.0
13421,98.0,108.0,60.0,0.0,0.0
13422,86.0,0.0,60.0,8.0,0.0
13423,81.0,12.0,60.0,10.0,0.0
13424,62.0,24.0,330.0,12.0,0.0
13425,97.0,0.0,60.0,0.0,0.0
13426,61.0,0.0,60.0,11.0,0.0
13427,69.0,0.0,60.0,11.0,0.0
13428,85.0,108.0,60.0,8.0,0.0
13429,71.0,0.0,60.0,11.0,0.0
13430,83.0,0.0,60.0,8.0,0.0
13431,62.0,0.0,60.0,11.0,0.0
13432,95.0,108.0,60.0,0.0,0.0
13433,80.0,12.0,60.0,10.0,0.0
13434,83.0,0.0,540.0,8.0,0.0
13435,80.0,60.0,120.0,10.0,0.0
13436,62.0,0.0,540.0,11.0,0.0
13437,59.0,0.0,540.0,11.0,0.0
13438,95.0,24.0,540.0,0.0,0.0
13439,83.0,0.0,60.0,1.0,0.0
13440,80.0,46.0,60.0,1.0,0.0
13441,71.0,0.0,60.0,2.0,0.0
13442,59.0,0.0,60.0,3.0,0.0
13443,68.0,0.0,60.0,3.0,0.0
13444,80.0,0.0,60.0,2.0,0.0
13445,68.0,12.0,300.0,10.0,0.0
13446,71.0,90.0,450.0,4.0,0.0
13447,68.0,0.0,450.0,4.0,0.0
13448,81.0,0.0,60.0,1.0,0.0
13449,69.0,0.0,60.0,3.0,0.0
13450,61.0,0.0,60.0,3.0,0.0
13451,81.0,36.0,60.0,2.0,0.0
13452,73.0,0.0,60.0,2.0,0.0
13453,85.0,0.0,60.0,1.0,0.0
13454,53.0,84.0,90.0,12.0,0.0
13455,74.0,0.0,60.0,2.0,0.0
13456,62.0,120.0,60.0,3.0,0.0
13457,83.0,0.0,60.0,2.0,0.0
13458,86.0,0.0,60.0,1.0,0.0
13459,83.0,0.0,60.0,1.0,0.0
13460,71.0,0.0,60.0,3.0,0.0
13461,86.0,0.0,450.0,1.0,0.0
13462,83.0,90.0,450.0,2.0,0.0
13463,74.0,0.0,450.0,2.0,0.0
13464,83.0,0.0,450.0,1.0,0.0
13465,78.0,36.0,150.0,5.0,0.0
13466,71.0,0.0,450.0,3.0,0.0
13467,62.0,0.0,450.0,3.0,0.0
13468,41.0,48.0,90.0,12.0,0.0
13469,59.0,12.0,60.0,11.0,0.0
13470,56.0,0.0,60.0,11.0,0.0
13471,98.0,0.0,60.0,0.0,0.0
13472,83.0,0.0,60.0,10.0,0.0
13473,98.0,18.0,60.0,8.0,0.0
13474,62.0,84.0,90.0,12.0,0.0
13475,61.0,0.0,60.0,11.0,0.0
13476,57.0,12.0,60.0,11.0,0.0
13477,97.0,0.0,60.0,0.0,0.0
13478,97.0,24.0,60.0,8.0,0.0
13479,81.0,0.0,60.0,10.0,0.0
13480,59.0,0.0,60.0,11.0,0.0
13481,62.0,0.0,60.0,11.0,0.0
13482,80.0,12.0,60.0,10.0,0.0
13483,95.0,0.0,60.0,8.0,0.0
13484,95.0,18.0,60.0,0.0,0.0
13485,80.0,0.0,120.0,5.0,0.0
13486,80.0,0.0,60.0,1.0,0.0
13487,68.0,0.0,120.0,4.0,0.0
13488,41.0,0.0,60.0,13.0,0.0
13489,59.0,0.0,60.0,11.0,0.0
13490,62.0,12.0,60.0,11.0,0.0
13491,71.0,0.0,120.0,4.0,0.0
13492,92.0,0.0,60.0,8.0,0.0
13493,73.0,0.0,120.0,5.0,0.0
13494,53.0,0.0,60.0,3.0,0.0
13495,49.0,0.0,180.0,6.0,0.0
13496,80.0,0.0,60.0,10.0,0.0
13497,65.0,0.0,60.0,2.0,0.0
13498,62.0,72.0,120.0,4.0,0.0
13499,53.0,0.0,60.0,12.0,0.0
13500,92.0,48.0,60.0,0.0,0.0
13501,59.0,0.0,60.0,13.0,0.0
13502,83.0,0.0,60.0,2.0,0.0
13503,71.0,0.0,60.0,12.0,0.0
13504,95.0,0.0,60.0,0.0,0.0
13505,95.0,120.0,60.0,8.0,0.0
13506,83.0,0.0,60.0,10.0,0.0
13507,71.0,0.0,60.0,3.0,0.0
13508,83.0,0.0,60.0,1.0,0.0
13509,57.0,0.0,60.0,13.0,0.0
13510,69.0,0.0,60.0,12.0,0.0
13511,69.0,0.0,60.0,3.0,0.0
13512,81.0,0.0,60.0,2.0,0.0
13513,81.0,0.0,60.0,10.0,0.0
13514,81.0,0.0,60.0,1.0,0.0
13515,93.0,120.0,60.0,0.0,0.0
13516,93.0,0.0,60.0,8.0,0.0
13517,68.0,0.0,60.0,12.0,0.0
13518,80.0,0.0,60.0,10.0,0.0
13519,92.0,0.0,60.0,8.0,0.0
13520,80.0,0.0,60.0,2.0,0.0
13521,92.0,0.0,60.0,0.0,0.0
13522,56.0,0.0,60.0,13.0,0.0
13523,80.0,120.0,60.0,1.0,0.0
13524,68.0,0.0,60.0,3.0,0.0
13525,89.0,0.0,60.0,8.0,0.0
13526,49.0,0.0,180.0,6.0,0.0
13527,80.0,0.0,120.0,5.0,0.0
13528,73.0,0.0,120.0,5.0,0.0
13529,53.0,48.0,60.0,13.0,0.0
13530,68.0,72.0,120.0,4.0,0.0
13531,89.0,0.0,60.0,0.0,0.0
13532,71.0,0.0,120.0,4.0,0.0
13533,77.0,0.0,60.0,2.0,0.0
13534,65.0,0.0,60.0,12.0,0.0
13535,77.0,0.0,60.0,1.0,0.0
13536,65.0,0.0,60.0,3.0,0.0
13537,62.0,0.0,120.0,4.0,0.0
13538,77.0,0.0,60.0,10.0,0.0
13539,68.0,0.0,60.0,3.0,0.0
13540,80.0,0.0,60.0,10.0,0.0
13541,80.0,0.0,60.0,1.0,0.0
13542,92.0,0.0,60.0,0.0,0.0
13543,56.0,0.0,60.0,13.0,0.0
13544,92.0,0.0,60.0,8.0,0.0
13545,68.0,120.0,60.0,12.0,0.0
13546,80.0,0.0,60.0,2.0,0.0
13547,78.0,0.0,60.0,10.0,0.0
13548,78.0,0.0,60.0,2.0,0.0
13549,78.0,0.0,60.0,1.0,0.0
13550,90.0,0.0,60.0,8.0,0.0
13551,66.0,120.0,60.0,12.0,0.0
13552,90.0,0.0,60.0,0.0,0.0
13553,54.0,0.0,60.0,13.0,0.0
13554,66.0,0.0,60.0,3.0,0.0
13555,53.0,0.0,60.0,13.0,0.0
13556,89.0,0.0,60.0,0.0,0.0
13557,89.0,0.0,60.0,8.0,0.0
13558,65.0,0.0,60.0,3.0,0.0
13559,77.0,0.0,60.0,1.0,0.0
13560,77.0,0.0,60.0,2.0,0.0
13561,65.0,120.0,60.0,12.0,0.0
13562,77.0,0.0,60.0,10.0,0.0
13563,59.0,0.0,60.0,3.0,0.0
13564,59.0,0.0,60.0,12.0,0.0
13565,71.0,48.0,60.0,2.0,0.0
13566,71.0,0.0,120.0,4.0,0.0
13567,68.0,0.0,120.0,4.0,0.0
13568,83.0,0.0,60.0,1.0,0.0
13569,49.0,120.0,180.0,6.0,0.0
13570,73.0,0.0,120.0,5.0,0.0
13571,83.0,0.0,60.0,0.0,0.0
13572,83.0,0.0,60.0,8.0,0.0
13573,71.0,0.0,60.0,10.0,0.0
13574,62.0,0.0,120.0,4.0,0.0
13575,47.0,0.0,60.0,13.0,0.0
13576,80.0,72.0,120.0,5.0,0.0
13577,62.0,0.0,60.0,12.0,0.0
13578,62.0,0.0,60.0,3.0,0.0
13579,86.0,0.0,60.0,0.0,0.0
13580,86.0,0.0,60.0,8.0,0.0
13581,50.0,0.0,60.0,13.0,0.0
13582,86.0,0.0,60.0,1.0,0.0
13583,74.0,0.0,60.0,10.0,0.0
13584,74.0,0.0,60.0,2.0,0.0
13585,73.0,0.0,60.0,10.0,0.0
13586,61.0,0.0,60.0,3.0,0.0
13587,85.0,0.0,60.0,8.0,0.0
13588,85.0,0.0,60.0,0.0,0.0
13589,61.0,0.0,60.0,12.0,0.0
13590,49.0,0.0,60.0,13.0,0.0
13591,73.0,0.0,60.0,2.0,0.0
13592,85.0,120.0,60.0,1.0,0.0
13593,59.0,0.0,60.0,3.0,0.0
13594,71.0,0.0,60.0,2.0,0.0
13595,83.0,120.0,60.0,8.0,0.0
13596,47.0,0.0,60.0,13.0,0.0
13597,59.0,0.0,60.0,12.0,0.0
13598,71.0,0.0,60.0,10.0,0.0
13599,83.0,0.0,60.0,0.0,0.0
13600,83.0,0.0,60.0,1.0,0.0
13601,49.0,0.0,180.0,6.0,0.0
13602,80.0,0.0,60.0,8.0,0.0
13603,80.0,0.0,120.0,5.0,0.0
13604,73.0,72.0,120.0,5.0,0.0
13605,62.0,0.0,120.0,4.0,0.0
13606,68.0,0.0,120.0,4.0,0.0
13607,68.0,0.0,60.0,10.0,0.0
13608,44.0,48.0,60.0,13.0,0.0
13609,71.0,0.0,120.0,4.0,0.0
13610,68.0,0.0,60.0,2.0,0.0
13611,80.0,0.0,60.0,1.0,0.0
13612,56.0,0.0,60.0,3.0,0.0
13613,56.0,0.0,60.0,12.0,0.0
13614,80.0,0.0,60.0,0.0,0.0
13615,59.0,0.0,60.0,12.0,0.0
13616,59.0,0.0,60.0,3.0,0.0
13617,83.0,0.0,60.0,1.0,0.0
13618,71.0,0.0,60.0,2.0,0.0
13619,47.0,0.0,60.0,13.0,0.0
13620,95.0,120.0,60.0,0.0,0.0
13621,83.0,0.0,60.0,8.0,0.0
13622,71.0,0.0,60.0,10.0,0.0
13623,69.0,0.0,60.0,2.0,0.0
13624,57.0,0.0,60.0,3.0,0.0
13625,57.0,0.0,60.0,12.0,0.0
13626,81.0,120.0,60.0,8.0,0.0
13627,93.0,0.0,60.0,0.0,0.0
13628,81.0,0.0,60.0,1.0,0.0
13629,45.0,0.0,60.0,13.0,0.0
13630,69.0,0.0,60.0,10.0,0.0
13631,92.0,0.0,60.0,0.0,0.0
13632,44.0,0.0,60.0,13.0,0.0
13633,68.0,0.0,60.0,10.0,0.0
13634,56.0,0.0,60.0,3.0,0.0
13635,80.0,0.0,60.0,1.0,0.0
13636,68.0,0.0,60.0,2.0,0.0
13637,56.0,0.0,60.0,12.0,0.0
13638,80.0,120.0,60.0,8.0,0.0
13639,68.0,0.0,120.0,4.0,0.0
13640,41.0,0.0,60.0,13.0,0.0
13641,80.0,72.0,120.0,5.0,0.0
13642,71.0,0.0,120.0,4.0,0.0
13643,89.0,0.0,60.0,0.0,0.0
13644,73.0,0.0,120.0,5.0,0.0
13645,62.0,0.0,120.0,4.0,0.0
13646,65.0,0.0,60.0,10.0,0.0
13647,77.0,0.0,60.0,1.0,0.0
13648,53.0,0.0,60.0,12.0,0.0
13649,49.0,0.0,180.0,6.0,0.0
13650,77.0,0.0,60.0,2.0,0.0
13651,77.0,48.0,60.0,8.0,0.0
13652,53.0,0.0,60.0,3.0,0.0
13653,80.0,0.0,60.0,8.0,0.0
13654,92.0,0.0,60.0,0.0,0.0
13655,80.0,0.0,60.0,2.0,0.0
13656,56.0,0.0,60.0,12.0,0.0
13657,80.0,0.0,60.0,1.0,0.0
13658,56.0,0.0,60.0,3.0,0.0
13659,44.0,0.0,60.0,13.0,0.0
13660,68.0,120.0,60.0,10.0,0.0
13661,54.0,0.0,60.0,3.0,0.0
13662,90.0,0.0,60.0,0.0,0.0
13663,42.0,0.0,60.0,13.0,0.0
13664,78.0,0.0,60.0,2.0,0.0
13665,54.0,0.0,60.0,12.0,0.0
13666,78.0,0.0,60.0,8.0,0.0
13667,66.0,120.0,60.0,10.0,0.0
13668,78.0,0.0,60.0,1.0,0.0
13669,53.0,120.0,60.0,12.0,0.0
13670,77.0,0.0,60.0,8.0,0.0
13671,41.0,0.0,60.0,13.0,0.0
13672,89.0,0.0,60.0,0.0,0.0
13673,77.0,0.0,60.0,2.0,0.0
13674,53.0,0.0,60.0,3.0,0.0
13675,65.0,0.0,60.0,10.0,0.0
13676,77.0,0.0,60.0,1.0,0.0
13677,83.0,0.0,60.0,0.0,0.0
13678,47.0,0.0,60.0,3.0,0.0
13679,49.0,0.0,180.0,6.0,0.0
13680,68.0,0.0,120.0,4.0,0.0
13681,71.0,0.0,120.0,4.0,0.0
13682,71.0,0.0,60.0,2.0,0.0
13683,47.0,0.0,60.0,12.0,0.0
13684,71.0,48.0,60.0,8.0,0.0
13685,80.0,0.0,120.0,5.0,0.0
13686,73.0,72.0,120.0,5.0,0.0
13687,71.0,0.0,60.0,1.0,0.0
13688,59.0,0.0,60.0,10.0,0.0
13689,35.0,0.0,60.0,13.0,0.0
13690,62.0,0.0,120.0,4.0,0.0
13691,50.0,0.0,60.0,13.0,0.0
13692,62.0,0.0,60.0,3.0,0.0
13693,86.0,0.0,60.0,0.0,0.0
13694,74.0,0.0,60.0,8.0,0.0
13695,74.0,120.0,60.0,2.0,0.0
13696,74.0,0.0,60.0,1.0,0.0
13697,62.0,0.0,60.0,12.0,0.0
13698,62.0,0.0,60.0,10.0,0.0
13699,73.0,0.0,60.0,2.0,0.0
13700,61.0,0.0,60.0,3.0,0.0
13701,49.0,120.0,60.0,13.0,0.0
13702,85.0,0.0,60.0,0.0,0.0
13703,61.0,0.0,60.0,12.0,0.0
13704,61.0,0.0,60.0,10.0,0.0
13705,73.0,0.0,60.0,8.0,0.0
13706,73.0,0.0,60.0,1.0,0.0
13707,59.0,0.0,60.0,12.0,0.0
13708,59.0,0.0,60.0,10.0,0.0
13709,71.0,0.0,60.0,2.0,0.0
13710,83.0,120.0,60.0,0.0,0.0
13711,71.0,0.0,60.0,8.0,0.0
13712,47.0,0.0,60.0,13.0,0.0
13713,71.0,0.0,60.0,1.0,0.0
13714,59.0,0.0,60.0,3.0,0.0
13715,68.0,0.0,120.0,4.0,0.0
13716,62.0,0.0,120.0,4.0,0.0
13717,68.0,0.0,60.0,2.0,0.0
13718,68.0,0.0,60.0,1.0,0.0
13719,61.0,0.0,120.0,5.0,0.0
13720,73.0,72.0,120.0,5.0,0.0
13721,68.0,48.0,60.0,8.0,0.0
13722,56.0,0.0,60.0,12.0,0.0
13723,80.0,0.0,60.0,0.0,0.0
13724,44.0,0.0,60.0,13.0,0.0
13725,49.0,0.0,180.0,6.0,0.0
13726,71.0,0.0,120.0,4.0,0.0
13727,56.0,0.0,60.0,3.0,0.0
13728,56.0,0.0,60.0,10.0,0.0
13729,69.0,0.0,60.0,8.0,0.0
13730,45.0,0.0,60.0,13.0,0.0
13731,69.0,0.0,60.0,1.0,0.0
13732,81.0,0.0,60.0,0.0,0.0
13733,57.0,120.0,60.0,10.0,0.0
13734,57.0,0.0,60.0,12.0,0.0
13735,57.0,0.0,60.0,3.0,0.0
13736,69.0,0.0,60.0,2.0,0.0
13737,68.0,0.0,60.0,1.0,0.0
13738,44.0,0.0,60.0,13.0,0.0
13739,80.0,0.0,60.0,0.0,0.0
13740,56.0,48.0,60.0,12.0,0.0
13741,61.0,0.0,120.0,5.0,0.0
13742,68.0,0.0,60.0,2.0,0.0
13743,73.0,72.0,120.0,5.0,0.0
13744,56.0,0.0,60.0,3.0,0.0
13745,49.0,0.0,180.0,6.0,0.0
13746,68.0,0.0,60.0,8.0,0.0
13747,56.0,0.0,60.0,10.0,0.0
13748,66.0,0.0,60.0,8.0,0.0
13749,66.0,0.0,60.0,1.0,0.0
13750,54.0,0.0,60.0,3.0,0.0
13751,78.0,120.0,60.0,0.0,0.0
13752,42.0,0.0,60.0,13.0,0.0
13753,66.0,0.0,60.0,2.0,0.0
13754,54.0,0.0,60.0,12.0,0.0
13755,54.0,0.0,60.0,10.0,0.0
13756,53.0,0.0,60.0,10.0,0.0
13757,65.0,48.0,60.0,2.0,0.0
13758,53.0,0.0,60.0,3.0,0.0
13759,65.0,0.0,60.0,1.0,0.0
13760,77.0,0.0,60.0,0.0,0.0
13761,53.0,0.0,60.0,12.0,0.0
13762,73.0,0.0,120.0,5.0,0.0
13763,49.0,0.0,180.0,6.0,0.0
13764,61.0,72.0,120.0,5.0,0.0
13765,41.0,0.0,60.0,13.0,0.0
13766,65.0,0.0,60.0,8.0,0.0
13767,62.0,120.0,60.0,8.0,0.0
13768,50.0,0.0,60.0,3.0,0.0
13769,50.0,0.0,60.0,12.0,0.0
13770,62.0,0.0,60.0,1.0,0.0
13771,74.0,0.0,60.0,0.0,0.0
13772,74.0,0.0,60.0,2.0,0.0
13773,38.0,0.0,60.0,13.0,0.0
13774,50.0,0.0,60.0,10.0,0.0
13775,49.0,0.0,180.0,6.0,0.0
13776,73.0,0.0,60.0,0.0,0.0
13777,61.0,0.0,120.0,5.0,0.0
13778,73.0,72.0,120.0,5.0,0.0
13779,49.0,0.0,60.0,12.0,0.0
13780,61.0,0.0,60.0,8.0,0.0
13781,49.0,0.0,60.0,3.0,0.0
13782,37.0,0.0,60.0,13.0,0.0
13783,73.0,0.0,60.0,2.0,0.0
13784,49.0,0.0,60.0,10.0,0.0
13785,61.0,48.0,60.0,1.0,0.0
13786,59.0,0.0,60.0,1.0,0.0
13787,47.0,0.0,60.0,12.0,0.0
13788,47.0,0.0,60.0,3.0,0.0
13789,47.0,0.0,60.0,10.0,0.0
13790,59.0,0.0,60.0,8.0,0.0
13791,71.0,0.0,60.0,2.0,0.0
13792,71.0,96.0,60.0,0.0,0.0
13793,35.0,0.0,60.0,13.0,0.0
13794,78.0,0.0,390.0,8.0,0.0
13795,54.0,0.0,60.0,6.0,0.0
13796,46.0,0.0,3720.0,4.0,0.0
13797,46.0,0.0,60.0,12.0,0.0
13798,66.0,0.0,390.0,8.0,0.0
13799,34.0,60.0,60.0,13.0,0.0
13800,85.0,0.0,390.0,10.0,0.0
13801,90.0,0.0,390.0,8.0,0.0
13802,54.0,0.0,3720.0,4.0,0.0
13803,66.0,0.0,390.0,10.0,0.0
13804,73.0,114.0,3720.0,2.0,0.0
13805,66.0,0.0,3720.0,5.0,0.0
13806,73.0,0.0,3720.0,4.0,0.0
13807,66.0,24.0,390.0,11.0,0.0
13808,61.0,0.0,390.0,11.0,0.0
13809,66.0,0.0,3720.0,4.0,0.0
13810,46.0,0.0,3720.0,3.0,0.0
13811,58.0,0.0,390.0,11.0,0.0
13812,85.0,0.0,3720.0,1.0,0.0
13813,78.0,0.0,3720.0,1.0,0.0
13814,78.0,0.0,3720.0,5.0,0.0
13815,66.0,0.0,3720.0,2.0,0.0
13816,90.0,0.0,3720.0,0.0,0.0
13817,46.0,0.0,60.0,12.0,0.0
13818,34.0,60.0,60.0,13.0,0.0
13819,54.0,0.0,60.0,6.0,0.0
13820,46.0,0.0,60.0,12.0,0.0
13821,34.0,60.0,60.0,13.0,0.0
13822,54.0,0.0,60.0,6.0,0.0
13823,46.0,0.0,60.0,12.0,0.0
13824,54.0,0.0,60.0,6.0,0.0
13825,34.0,60.0,60.0,13.0,0.0
13826,54.0,0.0,60.0,6.0,0.0
13827,34.0,60.0,60.0,13.0,0.0
13828,46.0,0.0,60.0,12.0,0.0
13829,46.0,0.0,60.0,12.0,0.0
13830,54.0,36.0,60.0,6.0,0.0
13831,34.0,0.0,60.0,13.0,0.0
13832,54.0,0.0,60.0,6.0,0.0
13833,46.0,0.0,60.0,12.0,0.0
13834,34.0,60.0,60.0,13.0,0.0
13835,46.0,0.0,60.0,12.0,0.0
13836,34.0,60.0,60.0,13.0,0.0
13837,54.0,0.0,60.0,6.0,0.0
13838,46.0,0.0,60.0,12.0,0.0
13839,34.0,60.0,60.0,13.0,0.0
13840,54.0,0.0,60.0,6.0,0.0
13841,34.0,0.0,60.0,13.0,0.0
13842,46.0,0.0,60.0,12.0,0.0
13843,54.0,60.0,60.0,6.0,0.0
13844,46.0,0.0,60.0,12.0,0.0
13845,34.0,60.0,60.0,13.0,0.0
13846,54.0,0.0,60.0,6.0,0.0
13847,46.0,60.0,60.0,12.0,0.0
13848,34.0,0.0,60.0,13.0,0.0
13849,54.0,0.0,60.0,6.0,0.0
13850,54.0,0.0,60.0,6.0,0.0
13851,46.0,60.0,60.0,12.0,0.0
13852,34.0,0.0,60.0,13.0,0.0
13853,34.0,0.0,60.0,13.0,0.0
13854,54.0,60.0,60.0,6.0,0.0
13855,46.0,0.0,60.0,12.0,0.0
13856,54.0,0.0,60.0,6.0,0.0
13857,46.0,0.0,60.0,12.0,0.0
13858,34.0,60.0,60.0,13.0,0.0
13859,54.0,60.0,60.0,6.0,0.0
13860,34.0,0.0,60.0,13.0,0.0
13861,46.0,0.0,60.0,12.0,0.0
13862,58.0,0.0,60.0,12.0,0.0
13863,54.0,60.0,60.0,6.0,0.0
13864,46.0,0.0,60.0,13.0,0.0
13865,46.0,60.0,60.0,13.0,0.0
13866,54.0,0.0,60.0,6.0,0.0
13867,58.0,0.0,60.0,12.0,0.0
13868,54.0,60.0,60.0,6.0,0.0
13869,58.0,0.0,60.0,12.0,0.0
13870,46.0,0.0,60.0,13.0,0.0
13871,46.0,0.0,60.0,13.0,0.0
13872,54.0,0.0,60.0,6.0,0.0
13873,58.0,60.0,60.0,12.0,0.0
13874,46.0,0.0,60.0,13.0,0.0
13875,58.0,0.0,60.0,12.0,0.0
13876,54.0,60.0,60.0,6.0,0.0
13877,58.0,60.0,60.0,12.0,0.0
13878,46.0,0.0,60.0,13.0,0.0
13879,54.0,0.0,60.0,6.0,0.0
13880,54.0,0.0,60.0,6.0,0.0
13881,58.0,0.0,60.0,12.0,0.0
13882,46.0,60.0,60.0,13.0,0.0
13883,46.0,0.0,60.0,13.0,0.0
13884,54.0,60.0,60.0,6.0,0.0
13885,58.0,0.0,60.0,12.0,0.0
13886,46.0,0.0,60.0,13.0,0.0
13887,54.0,0.0,60.0,6.0,0.0
13888,58.0,60.0,60.0,12.0,0.0
13889,54.0,0.0,60.0,6.0,0.0
13890,46.0,0.0,60.0,13.0,0.0
13891,58.0,60.0,60.0,12.0,0.0
13892,46.0,60.0,60.0,13.0,0.0
13893,54.0,0.0,60.0,6.0,0.0
13894,58.0,0.0,60.0,12.0,0.0
13895,58.0,0.0,60.0,12.0,0.0
13896,46.0,60.0,60.0,13.0,0.0
13897,54.0,0.0,60.0,6.0,0.0
13898,58.0,60.0,60.0,12.0,0.0
13899,46.0,0.0,60.0,13.0,0.0
13900,54.0,0.0,60.0,6.0,0.0
13901,46.0,0.0,60.0,13.0,0.0
13902,54.0,0.0,60.0,6.0,0.0
13903,58.0,60.0,60.0,12.0,0.0
13904,46.0,0.0,60.0,13.0,0.0
13905,58.0,60.0,60.0,12.0,0.0
13906,54.0,0.0,60.0,6.0,0.0
13907,73.0,0.0,60.0,11.0,0.0
13908,54.0,0.0,60.0,6.0,0.0
13909,73.0,60.0,60.0,10.0,0.0
13910,85.0,0.0,60.0,8.0,0.0
13911,58.0,0.0,60.0,12.0,0.0
13912,46.0,0.0,60.0,13.0,0.0
13913,70.0,0.0,60.0,12.0,0.0
13914,66.0,0.0,570.0,10.0,0.0
13915,54.0,60.0,60.0,6.0,0.0
13916,58.0,0.0,60.0,13.0,0.0
13917,66.0,0.0,570.0,11.0,0.0
13918,78.0,12.0,570.0,8.0,0.0
13919,70.0,0.0,60.0,12.0,0.0
13920,58.0,60.0,60.0,13.0,0.0
13921,54.0,0.0,60.0,6.0,0.0
13922,54.0,0.0,60.0,6.0,0.0
13923,58.0,0.0,60.0,13.0,0.0
13924,70.0,60.0,60.0,12.0,0.0
13925,54.0,0.0,60.0,6.0,0.0
13926,58.0,60.0,60.0,13.0,0.0
13927,70.0,0.0,60.0,12.0,0.0
13928,58.0,60.0,60.0,13.0,0.0
13929,54.0,0.0,60.0,6.0,0.0
13930,70.0,0.0,60.0,12.0,0.0
13931,58.0,0.0,60.0,13.0,0.0
13932,70.0,0.0,60.0,12.0,0.0
13933,54.0,60.0,60.0,6.0,0.0
13934,70.0,60.0,60.0,12.0,0.0
13935,58.0,0.0,60.0,13.0,0.0
13936,54.0,0.0,60.0,6.0,0.0
13937,58.0,0.0,60.0,13.0,0.0
13938,54.0,0.0,60.0,6.0,0.0
13939,70.0,60.0,60.0,12.0,0.0
13940,70.0,48.0,60.0,12.0,0.0
13941,58.0,0.0,60.0,13.0,0.0
13942,54.0,0.0,60.0,6.0,0.0
13943,58.0,60.0,60.0,13.0,0.0
13944,54.0,0.0,60.0,6.0,0.0
13945,70.0,0.0,60.0,12.0,0.0
13946,70.0,60.0,60.0,12.0,0.0
13947,58.0,0.0,60.0,13.0,0.0
13948,54.0,0.0,60.0,6.0,0.0
13949,54.0,60.0,60.0,6.0,0.0
13950,58.0,0.0,60.0,13.0,0.0
13951,70.0,0.0,60.0,12.0,0.0
13952,58.0,0.0,60.0,13.0,0.0
13953,54.0,0.0,60.0,6.0,0.0
13954,70.0,60.0,60.0,12.0,0.0
13955,54.0,0.0,60.0,6.0,0.0
13956,58.0,0.0,60.0,13.0,0.0
13957,70.0,60.0,60.0,12.0,0.0
13958,54.0,0.0,60.0,6.0,0.0
13959,58.0,0.0,60.0,13.0,0.0
13960,70.0,60.0,60.0,12.0,0.0
13961,58.0,0.0,60.0,13.0,0.0
13962,78.0,0.0,60.0,8.0,0.0
13963,66.0,0.0,60.0,11.0,0.0
13964,70.0,0.0,60.0,12.0,0.0
13965,54.0,60.0,60.0,6.0,0.0
13966,66.0,0.0,60.0,10.0,0.0
13967,54.0,60.0,60.0,6.0,0.0
13968,58.0,0.0,60.0,12.0,0.0
13969,73.0,0.0,570.0,8.0,0.0
13970,61.0,12.0,570.0,11.0,0.0
13971,46.0,0.0,60.0,13.0,0.0
13972,61.0,0.0,570.0,10.0,0.0
13973,54.0,60.0,60.0,6.0,0.0
13974,58.0,0.0,60.0,12.0,0.0
13975,46.0,0.0,60.0,13.0,0.0
13976,54.0,60.0,60.0,6.0,0.0
13977,46.0,0.0,60.0,13.0,0.0
13978,58.0,0.0,60.0,12.0,0.0
13979,58.0,0.0,60.0,12.0,0.0
13980,54.0,0.0,60.0,6.0,0.0
13981,46.0,60.0,60.0,13.0,0.0
13982,54.0,60.0,60.0,6.0,0.0
13983,58.0,0.0,60.0,12.0,0.0
13984,46.0,0.0,60.0,13.0,0.0
13985,58.0,60.0,60.0,12.0,0.0
13986,54.0,0.0,60.0,6.0,0.0
13987,46.0,0.0,60.0,13.0,0.0
13988,54.0,60.0,60.0,6.0,0.0
13989,46.0,0.0,60.0,13.0,0.0
13990,58.0,0.0,60.0,12.0,0.0
13991,58.0,0.0,60.0,12.0,0.0
13992,54.0,60.0,60.0,6.0,0.0
13993,46.0,0.0,60.0,13.0,0.0
13994,46.0,0.0,60.0,13.0,0.0
13995,58.0,48.0,60.0,12.0,0.0
13996,54.0,0.0,60.0,6.0,0.0
13997,46.0,0.0,60.0,13.0,0.0
13998,58.0,0.0,60.0,12.0,0.0
13999,54.0,60.0,60.0,6.0,0.0
14000,58.0,0.0,60.0,12.0,0.0
14001,46.0,60.0,60.0,13.0,0.0
14002,54.0,0.0,60.0,6.0,0.0
14003,58.0,0.0,60.0,12.0,0.0
14004,54.0,60.0,60.0,6.0,0.0
14005,46.0,0.0,60.0,13.0,0.0
14006,46.0,0.0,60.0,13.0,0.0
14007,54.0,0.0,60.0,6.0,0.0
14008,58.0,66.0,60.0,12.0,0.0
14009,49.0,0.0,60.0,12.0,0.0
14010,49.0,0.0,60.0,6.0,0.0
14011,73.0,0.0,60.0,5.0,0.0
14012,61.0,0.0,60.0,5.0,0.0
14013,66.0,0.0,60.0,2.0,0.0
14014,46.0,0.0,60.0,3.0,0.0
14015,85.0,0.0,60.0,0.0,0.0
14016,46.0,60.0,60.0,4.0,0.0
14017,54.0,0.0,60.0,4.0,0.0
14018,61.0,0.0,60.0,10.0,0.0
14019,73.0,0.0,60.0,4.0,0.0
14020,66.0,0.0,60.0,4.0,0.0
14021,73.0,0.0,60.0,2.0,0.0
14022,61.0,0.0,60.0,11.0,0.0
14023,37.0,0.0,60.0,13.0,0.0
14024,61.0,0.0,60.0,8.0,0.0
14025,78.0,0.0,60.0,1.0,0.0
14026,85.0,0.0,60.0,1.0,0.0
14027,54.0,0.0,3720.0,4.0,0.0
14028,54.0,0.0,60.0,6.0,0.0
14029,46.0,0.0,3720.0,4.0,0.0
14030,66.0,0.0,390.0,11.0,0.0
14031,66.0,0.0,3720.0,5.0,0.0
14032,61.0,0.0,390.0,11.0,0.0
14033,78.0,0.0,3720.0,5.0,0.0
14034,73.0,0.0,3720.0,4.0,0.0
14035,66.0,0.0,3720.0,4.0,0.0
14036,66.0,0.0,3720.0,2.0,0.0
14037,90.0,0.0,3720.0,0.0,0.0
14038,34.0,60.0,60.0,13.0,0.0
14039,90.0,0.0,390.0,8.0,0.0
14040,78.0,0.0,390.0,8.0,0.0
14041,66.0,24.0,390.0,8.0,0.0
14042,58.0,0.0,390.0,11.0,0.0
14043,66.0,0.0,390.0,10.0,0.0
14044,85.0,0.0,390.0,10.0,0.0
14045,46.0,0.0,60.0,12.0,0.0
14046,85.0,114.0,3720.0,1.0,0.0
14047,46.0,0.0,3720.0,3.0,0.0
14048,78.0,0.0,3720.0,1.0,0.0
14049,73.0,0.0,3720.0,2.0,0.0
14050,34.0,0.0,60.0,13.0,0.0
14051,46.0,60.0,60.0,12.0,0.0
14052,54.0,0.0,60.0,6.0,0.0
14053,34.0,0.0,60.0,13.0,0.0
14054,54.0,0.0,60.0,6.0,0.0
14055,46.0,60.0,60.0,12.0,0.0
14056,54.0,0.0,60.0,6.0,0.0
14057,34.0,60.0,60.0,13.0,0.0
14058,46.0,0.0,60.0,12.0,0.0
14059,34.0,0.0,60.0,13.0,0.0
14060,54.0,60.0,60.0,6.0,0.0
14061,46.0,0.0,60.0,12.0,0.0
14062,34.0,0.0,60.0,13.0,0.0
14063,46.0,0.0,60.0,12.0,0.0
14064,54.0,36.0,60.0,6.0,0.0
14065,46.0,60.0,60.0,12.0,0.0
14066,34.0,0.0,60.0,13.0,0.0
14067,54.0,0.0,60.0,6.0,0.0
14068,54.0,0.0,60.0,6.0,0.0
14069,34.0,60.0,60.0,13.0,0.0
14070,46.0,0.0,60.0,12.0,0.0
14071,34.0,60.0,60.0,13.0,0.0
14072,46.0,0.0,60.0,12.0,0.0
14073,54.0,0.0,60.0,6.0,0.0
14074,46.0,0.0,60.0,12.0,0.0
14075,34.0,60.0,60.0,13.0,0.0
14076,54.0,0.0,60.0,6.0,0.0
14077,54.0,0.0,60.0,6.0,0.0
14078,46.0,60.0,60.0,12.0,0.0
14079,34.0,0.0,60.0,13.0,0.0
14080,54.0,60.0,60.0,6.0,0.0
14081,46.0,0.0,60.0,12.0,0.0
14082,34.0,0.0,60.0,13.0,0.0
14083,34.0,0.0,60.0,13.0,0.0
14084,46.0,0.0,60.0,12.0,0.0
14085,54.0,60.0,60.0,6.0,0.0
14086,34.0,0.0,60.0,13.0,0.0
14087,46.0,60.0,60.0,12.0,0.0
14088,54.0,0.0,60.0,6.0,0.0
14089,46.0,0.0,60.0,12.0,0.0
14090,54.0,0.0,60.0,6.0,0.0
14091,34.0,60.0,60.0,13.0,0.0
14092,46.0,0.0,60.0,12.0,0.0
14093,54.0,0.0,60.0,6.0,0.0
14094,34.0,60.0,60.0,13.0,0.0
14095,58.0,0.0,60.0,12.0,0.0
14096,54.0,60.0,60.0,6.0,0.0
14097,46.0,0.0,60.0,13.0,0.0
14098,58.0,0.0,60.0,12.0,0.0
14099,46.0,60.0,60.0,13.0,0.0
14100,54.0,0.0,60.0,6.0,0.0
14101,54.0,60.0,60.0,6.0,0.0
14102,58.0,0.0,60.0,12.0,0.0
14103,46.0,0.0,60.0,13.0,0.0
14104,54.0,60.0,60.0,6.0,0.0
14105,58.0,0.0,60.0,12.0,0.0
14106,46.0,0.0,60.0,13.0,0.0
14107,46.0,60.0,60.0,13.0,0.0
14108,58.0,0.0,60.0,12.0,0.0
14109,54.0,0.0,60.0,6.0,0.0
14110,54.0,60.0,60.0,6.0,0.0
14111,46.0,0.0,60.0,13.0,0.0
14112,58.0,0.0,60.0,12.0,0.0
14113,46.0,0.0,60.0,13.0,0.0
14114,54.0,0.0,60.0,6.0,0.0
14115,58.0,60.0,60.0,12.0,0.0
14116,58.0,0.0,60.0,12.0,0.0
14117,46.0,0.0,60.0,13.0,0.0
14118,54.0,60.0,60.0,6.0,0.0
14119,58.0,0.0,60.0,12.0,0.0
14120,54.0,0.0,60.0,6.0,0.0
14121,46.0,60.0,60.0,13.0,0.0
14122,58.0,0.0,60.0,12.0,0.0
14123,54.0,0.0,60.0,6.0,0.0
14124,46.0,60.0,60.0,13.0,0.0
14125,46.0,0.0,60.0,13.0,0.0
14126,58.0,0.0,60.0,12.0,0.0
14127,54.0,60.0,60.0,6.0,0.0
14128,58.0,0.0,60.0,12.0,0.0
14129,54.0,0.0,60.0,6.0,0.0
14130,46.0,60.0,60.0,13.0,0.0
14131,46.0,0.0,60.0,13.0,0.0
14132,58.0,60.0,60.0,12.0,0.0
14133,54.0,0.0,60.0,6.0,0.0
14134,46.0,0.0,60.0,13.0,0.0
14135,54.0,60.0,60.0,6.0,0.0
14136,58.0,0.0,60.0,12.0,0.0
14137,54.0,60.0,60.0,6.0,0.0
14138,58.0,0.0,60.0,12.0,0.0
14139,46.0,0.0,60.0,13.0,0.0
14140,78.0,0.0,60.0,10.0,0.0
14141,58.0,0.0,60.0,12.0,0.0
14142,90.0,0.0,60.0,8.0,0.0
14143,46.0,0.0,60.0,13.0,0.0
14144,54.0,60.0,60.0,6.0,0.0
14145,76.0,0.0,60.0,11.0,0.0
14146,73.0,0.0,570.0,10.0,0.0
14147,85.0,0.0,570.0,8.0,0.0
14148,58.0,60.0,60.0,13.0,0.0
14149,73.0,12.0,570.0,11.0,0.0
14150,54.0,0.0,60.0,6.0,0.0
14151,70.0,0.0,60.0,12.0,0.0
14152,58.0,0.0,60.0,13.0,0.0
14153,54.0,60.0,60.0,6.0,0.0
14154,70.0,0.0,60.0,12.0,0.0
14155,70.0,0.0,60.0,12.0,0.0
14156,54.0,60.0,60.0,6.0,0.0
14157,58.0,0.0,60.0,13.0,0.0
14158,54.0,60.0,60.0,6.0,0.0
14159,58.0,0.0,60.0,13.0,0.0
14160,70.0,0.0,60.0,12.0,0.0
14161,70.0,60.0,60.0,12.0,0.0
14162,58.0,0.0,60.0,13.0,0.0
14163,54.0,0.0,60.0,6.0,0.0
14164,58.0,0.0,60.0,13.0,0.0
14165,54.0,0.0,60.0,6.0,0.0
14166,70.0,60.0,60.0,12.0,0.0
14167,54.0,0.0,60.0,6.0,0.0
14168,70.0,60.0,60.0,12.0,0.0
14169,58.0,0.0,60.0,13.0,0.0
14170,54.0,0.0,60.0,6.0,0.0
14171,58.0,60.0,60.0,13.0,0.0
14172,70.0,0.0,60.0,12.0,0.0
14173,58.0,48.0,60.0,13.0,0.0
14174,70.0,0.0,60.0,12.0,0.0
14175,54.0,0.0,60.0,6.0,0.0
14176,58.0,0.0,60.0,13.0,0.0
14177,70.0,0.0,60.0,12.0,0.0
14178,54.0,60.0,60.0,6.0,0.0
14179,58.0,60.0,60.0,13.0,0.0
14180,70.0,0.0,60.0,12.0,0.0
14181,54.0,0.0,60.0,6.0,0.0
14182,70.0,60.0,60.0,12.0,0.0
14183,54.0,0.0,60.0,6.0,0.0
14184,58.0,0.0,60.0,13.0,0.0
14185,70.0,0.0,60.0,12.0,0.0
14186,54.0,60.0,60.0,6.0,0.0
14187,58.0,0.0,60.0,13.0,0.0
14188,70.0,0.0,60.0,12.0,0.0
14189,58.0,60.0,60.0,13.0,0.0
14190,54.0,0.0,60.0,6.0,0.0
14191,54.0,60.0,60.0,6.0,0.0
14192,70.0,0.0,60.0,12.0,0.0
14193,58.0,0.0,60.0,13.0,0.0
14194,54.0,0.0,60.0,6.0,0.0
14195,73.0,0.0,60.0,11.0,0.0
14196,70.0,0.0,60.0,12.0,0.0
14197,85.0,60.0,60.0,8.0,0.0
14198,73.0,0.0,60.0,10.0,0.0
14199,58.0,0.0,60.0,13.0,0.0
14200,78.0,0.0,570.0,8.0,0.0
14201,58.0,0.0,60.0,12.0,0.0
14202,54.0,0.0,60.0,6.0,0.0
14203,46.0,60.0,60.0,13.0,0.0
14204,66.0,12.0,570.0,10.0,0.0
14205,66.0,0.0,570.0,11.0,0.0
14206,46.0,0.0,60.0,13.0,0.0
14207,58.0,60.0,60.0,12.0,0.0
14208,54.0,0.0,60.0,6.0,0.0
14209,54.0,0.0,60.0,6.0,0.0
14210,46.0,0.0,60.0,13.0,0.0
14211,58.0,60.0,60.0,12.0,0.0
14212,46.0,0.0,60.0,13.0,0.0
14213,54.0,60.0,60.0,6.0,0.0
14214,58.0,0.0,60.0,12.0,0.0
14215,58.0,0.0,60.0,12.0,0.0
14216,54.0,60.0,60.0,6.0,0.0
14217,46.0,0.0,60.0,13.0,0.0
14218,46.0,0.0,60.0,13.0,0.0
14219,54.0,0.0,60.0,6.0,0.0
14220,58.0,60.0,60.0,12.0,0.0
14221,46.0,0.0,60.0,13.0,0.0
14222,58.0,0.0,60.0,12.0,0.0
14223,54.0,60.0,60.0,6.0,0.0
14224,46.0,60.0,60.0,13.0,0.0
14225,58.0,0.0,60.0,12.0,0.0
14226,54.0,0.0,60.0,6.0,0.0
14227,46.0,0.0,60.0,13.0,0.0
14228,58.0,0.0,60.0,12.0,0.0
14229,54.0,48.0,60.0,6.0,0.0
14230,58.0,0.0,60.0,12.0,0.0
14231,54.0,60.0,60.0,6.0,0.0
14232,46.0,0.0,60.0,13.0,0.0
14233,46.0,60.0,60.0,13.0,0.0
14234,58.0,0.0,60.0,12.0,0.0
14235,54.0,0.0,60.0,6.0,0.0
14236,54.0,60.0,60.0,6.0,0.0
14237,58.0,0.0,60.0,12.0,0.0
14238,46.0,0.0,60.0,13.0,0.0
14239,54.0,0.0,60.0,6.0,0.0
14240,58.0,66.0,60.0,12.0,0.0
14241,46.0,0.0,60.0,13.0,0.0
14242,66.0,1.0,60.0,4.0,0.0
14243,73.0,0.0,60.0,4.0,0.0
14244,61.0,0.0,60.0,8.0,0.0
14245,78.0,0.0,60.0,1.0,0.0
14246,49.0,0.0,60.0,6.0,0.0
14247,49.0,0.0,60.0,12.0,0.0
14248,37.0,0.0,60.0,13.0,0.0
14249,61.0,0.0,60.0,11.0,0.0
14250,46.0,0.0,60.0,4.0,0.0
14251,61.0,10.0,60.0,10.0,0.0
14252,54.0,0.0,15.0,4.0,0.0
14253,97.0,0.0,15.0,0.0,0.0
14254,73.0,0.0,15.0,2.0,0.0
14255,66.0,49.0,15.0,2.0,0.0
14256,85.0,0.0,15.0,1.0,0.0
14257,61.0,0.0,15.0,5.0,0.0
14258,46.0,0.0,15.0,3.0,0.0
14259,73.0,0.0,15.0,5.0,0.0
14260,73.0,0.0,1800.0,2.0,0.0
14261,61.0,0.0,240.0,11.0,0.0
14262,85.0,0.0,240.0,10.0,0.0
14263,54.0,0.0,1800.0,4.0,0.0
14264,85.0,0.0,1800.0,1.0,0.0
14265,58.0,0.0,240.0,11.0,0.0
14266,78.0,0.0,1800.0,1.0,0.0
14267,34.0,0.0,60.0,13.0,0.0
14268,66.0,0.0,240.0,8.0,0.0
14269,54.0,60.0,60.0,6.0,0.0
14270,66.0,0.0,1800.0,5.0,0.0
14271,66.0,0.0,240.0,10.0,0.0
14272,46.0,0.0,1800.0,3.0,0.0
14273,66.0,0.0,240.0,11.0,0.0
14274,90.0,54.0,1800.0,0.0,0.0
14275,66.0,0.0,1800.0,4.0,0.0
14276,46.0,0.0,1800.0,4.0,0.0
14277,73.0,0.0,1800.0,4.0,0.0
14278,78.0,0.0,1800.0,5.0,0.0
14279,46.0,0.0,60.0,12.0,0.0
14280,90.0,0.0,240.0,8.0,0.0
14281,78.0,2.0,240.0,8.0,0.0
14282,66.0,0.0,1800.0,2.0,0.0
14283,46.0,0.0,60.0,12.0,0.0
14284,34.0,60.0,60.0,13.0,0.0
14285,54.0,0.0,60.0,6.0,0.0
14286,34.0,0.0,60.0,13.0,0.0
14287,46.0,58.0,60.0,12.0,0.0
14288,54.0,0.0,60.0,6.0,0.0
14289,54.0,0.0,60.0,6.0,0.0
14290,34.0,0.0,60.0,13.0,0.0
14291,46.0,60.0,60.0,12.0,0.0
14292,34.0,60.0,60.0,13.0,0.0
14293,46.0,0.0,60.0,12.0,0.0
14294,54.0,0.0,60.0,6.0,0.0
14295,54.0,0.0,60.0,6.0,0.0
14296,34.0,0.0,60.0,13.0,0.0
14297,46.0,60.0,60.0,12.0,0.0
14298,34.0,0.0,60.0,13.0,0.0
14299,46.0,60.0,60.0,12.0,0.0
14300,54.0,0.0,60.0,6.0,0.0
14301,73.0,0.0,60.0,11.0,0.0
14302,46.0,0.0,60.0,12.0,0.0
14303,34.0,0.0,60.0,13.0,0.0
14304,73.0,0.0,60.0,10.0,0.0
14305,54.0,0.0,60.0,6.0,0.0
14306,85.0,60.0,60.0,8.0,0.0
14307,78.0,2.0,240.0,8.0,0.0
14308,58.0,0.0,60.0,12.0,0.0
14309,66.0,0.0,240.0,11.0,0.0
14310,66.0,0.0,240.0,10.0,0.0
14311,46.0,0.0,60.0,13.0,0.0
14312,54.0,60.0,60.0,6.0,0.0
14313,58.0,0.0,60.0,12.0,0.0
14314,54.0,60.0,60.0,6.0,0.0
14315,46.0,0.0,60.0,13.0,0.0
14316,46.0,58.0,60.0,13.0,0.0
14317,54.0,0.0,60.0,6.0,0.0
14318,58.0,0.0,60.0,12.0,0.0
14319,54.0,60.0,60.0,6.0,0.0
14320,58.0,0.0,60.0,12.0,0.0
14321,46.0,0.0,60.0,13.0,0.0
14322,46.0,0.0,60.0,13.0,0.0
14323,54.0,60.0,60.0,6.0,0.0
14324,58.0,0.0,60.0,12.0,0.0
14325,46.0,60.0,60.0,13.0,0.0
14326,54.0,0.0,60.0,6.0,0.0
14327,58.0,0.0,60.0,12.0,0.0
14328,58.0,0.0,60.0,12.0,0.0
14329,46.0,60.0,60.0,13.0,0.0
14330,54.0,0.0,60.0,6.0,0.0
14331,54.0,0.0,60.0,6.0,0.0
14332,61.0,0.0,60.0,11.0,0.0
14333,73.0,60.0,60.0,8.0,0.0
14334,58.0,0.0,60.0,12.0,0.0
14335,46.0,0.0,60.0,13.0,0.0
14336,61.0,0.0,60.0,10.0,0.0
14337,58.0,60.0,60.0,13.0,0.0
14338,70.0,0.0,60.0,12.0,0.0
14339,54.0,2.0,240.0,11.0,0.0
14340,54.0,0.0,240.0,10.0,0.0
14341,54.0,0.0,60.0,6.0,0.0
14342,66.0,0.0,240.0,8.0,0.0
14343,70.0,60.0,60.0,12.0,0.0
14344,54.0,0.0,60.0,6.0,0.0
14345,58.0,0.0,60.0,13.0,0.0
14346,54.0,58.0,60.0,6.0,0.0
14347,58.0,0.0,60.0,13.0,0.0
14348,70.0,0.0,60.0,12.0,0.0
14349,70.0,0.0,60.0,12.0,0.0
14350,58.0,0.0,60.0,13.0,0.0
14351,54.0,60.0,60.0,6.0,0.0
14352,54.0,0.0,60.0,6.0,0.0
14353,58.0,0.0,60.0,13.0,0.0
14354,70.0,60.0,60.0,12.0,0.0
14355,54.0,0.0,60.0,6.0,0.0
14356,58.0,60.0,60.0,13.0,0.0
14357,70.0,0.0,60.0,12.0,0.0
14358,70.0,60.0,60.0,12.0,0.0
14359,54.0,0.0,60.0,6.0,0.0
14360,58.0,0.0,60.0,13.0,0.0
14361,58.0,0.0,60.0,13.0,0.0
14362,54.0,60.0,60.0,6.0,0.0
14363,70.0,0.0,60.0,12.0,0.0
14364,58.0,0.0,60.0,12.0,0.0
14365,46.0,0.0,60.0,13.0,0.0
14366,54.0,60.0,60.0,6.0,0.0
14367,58.0,60.0,60.0,12.0,0.0
14368,46.0,0.0,60.0,13.0,0.0
14369,54.0,0.0,60.0,6.0,0.0
14370,58.0,60.0,60.0,12.0,0.0
14371,46.0,0.0,60.0,13.0,0.0
14372,54.0,0.0,60.0,6.0,0.0
14373,54.0,0.0,60.0,6.0,0.0
14374,46.0,0.0,60.0,13.0,0.0
14375,58.0,60.0,60.0,12.0,0.0
14376,54.0,60.0,60.0,6.0,0.0
14377,46.0,0.0,60.0,13.0,0.0
14378,58.0,0.0,60.0,12.0,0.0
14379,46.0,6.0,60.0,13.0,0.0
14380,58.0,0.0,60.0,12.0,0.0
14381,46.0,60.0,60.0,13.0,0.0
14382,58.0,0.0,60.0,12.0,0.0
14383,46.0,0.0,60.0,4.0,0.0
14384,66.0,0.0,60.0,4.0,0.0
14385,73.0,1.0,60.0,4.0,0.0
14386,61.0,0.0,60.0,11.0,0.0
14387,46.0,0.0,60.0,13.0,0.0
14388,49.0,0.0,60.0,6.0,0.0
14389,58.0,10.0,60.0,12.0,0.0
14390,78.0,0.0,60.0,1.0,0.0
14391,61.0,0.0,60.0,10.0,0.0
14392,61.0,0.0,60.0,8.0,0.0
14393,73.0,0.0,15.0,5.0,0.0
14394,73.0,0.0,15.0,2.0,0.0
14395,54.0,0.0,15.0,4.0,0.0
14396,97.0,0.0,15.0,0.0,0.0
14397,85.0,0.0,15.0,1.0,0.0
14398,61.0,0.0,15.0,5.0,0.0
14399,66.0,0.0,15.0,2.0,0.0
14400,46.0,49.0,15.0,3.0,0.0
14401,66.0,0.0,120.0,11.0,0.0
14402,46.0,0.0,60.0,12.0,0.0
14403,66.0,0.0,1680.0,2.0,0.0
14404,90.0,0.0,1680.0,0.0,0.0
14405,66.0,0.0,1200.0,4.0,0.0
14406,73.0,2.0,1200.0,4.0,0.0
14407,78.0,0.0,1500.0,5.0,0.0
14408,78.0,0.0,1680.0,1.0,0.0
14409,54.0,60.0,60.0,6.0,0.0
14410,85.0,48.0,1440.0,1.0,0.0
14411,66.0,48.0,1500.0,5.0,0.0
14412,73.0,0.0,1440.0,2.0,0.0
14413,58.0,54.0,120.0,11.0,0.0
14414,34.0,0.0,60.0,13.0,0.0
14415,66.0,0.0,120.0,10.0,0.0
14416,85.0,0.0,120.0,10.0,0.0
14417,90.0,0.0,120.0,8.0,0.0
14418,66.0,0.0,120.0,8.0,0.0
14419,78.0,0.0,120.0,8.0,0.0
14420,46.0,0.0,1410.0,4.0,0.0
14421,54.0,18.0,1410.0,4.0,0.0
14422,61.0,0.0,120.0,11.0,0.0
14423,46.0,0.0,1680.0,3.0,0.0
14424,46.0,6.0,60.0,12.0,0.0
14425,54.0,0.0,60.0,6.0,0.0
14426,34.0,0.0,60.0,13.0,0.0
14427,46.0,0.0,60.0,12.0,0.0
14428,73.0,0.0,60.0,10.0,0.0
14429,73.0,60.0,60.0,11.0,0.0
14430,34.0,0.0,60.0,13.0,0.0
14431,54.0,0.0,60.0,6.0,0.0
14432,85.0,0.0,60.0,8.0,0.0
14433,34.0,0.0,60.0,13.0,0.0
14434,46.0,0.0,60.0,12.0,0.0
14435,54.0,60.0,60.0,6.0,0.0
14436,46.0,0.0,60.0,12.0,0.0
14437,34.0,0.0,60.0,13.0,0.0
14438,54.0,60.0,60.0,6.0,0.0
14439,85.0,0.0,120.0,8.0,0.0
14440,73.0,0.0,120.0,10.0,0.0
14441,73.0,54.0,120.0,11.0,0.0
14442,46.0,0.0,60.0,12.0,0.0
14443,34.0,6.0,60.0,13.0,0.0
14444,54.0,0.0,60.0,6.0,0.0
14445,78.0,0.0,120.0,8.0,0.0
14446,66.0,0.0,120.0,11.0,0.0
14447,34.0,0.0,60.0,13.0,0.0
14448,66.0,54.0,120.0,10.0,0.0
14449,46.0,0.0,60.0,12.0,0.0
14450,54.0,60.0,60.0,6.0,0.0
14451,34.0,0.0,60.0,13.0,0.0
14452,54.0,6.0,60.0,6.0,0.0
14453,46.0,0.0,60.0,12.0,0.0
14454,46.0,60.0,60.0,13.0,0.0
14455,54.0,0.0,60.0,6.0,0.0
14456,58.0,0.0,60.0,12.0,0.0
14457,46.0,0.0,60.0,13.0,0.0
14458,54.0,60.0,60.0,6.0,0.0
14459,58.0,0.0,60.0,12.0,0.0
14460,66.0,0.0,60.0,10.0,0.0
14461,46.0,0.0,60.0,13.0,0.0
14462,66.0,60.0,60.0,11.0,0.0
14463,78.0,0.0,60.0,8.0,0.0
14464,58.0,0.0,60.0,12.0,0.0
14465,54.0,0.0,60.0,6.0,0.0
14466,54.0,0.0,60.0,6.0,0.0
14467,58.0,0.0,60.0,12.0,0.0
14468,46.0,60.0,60.0,13.0,0.0
14469,54.0,0.0,60.0,6.0,0.0
14470,58.0,0.0,60.0,12.0,0.0
14471,78.0,54.0,120.0,8.0,0.0
14472,66.0,0.0,120.0,11.0,0.0
14473,66.0,0.0,120.0,10.0,0.0
14474,46.0,60.0,60.0,13.0,0.0
14475,54.0,0.0,60.0,6.0,0.0
14476,46.0,0.0,60.0,13.0,0.0
14477,58.0,6.0,60.0,12.0,0.0
14478,54.0,0.0,60.0,6.0,0.0
14479,58.0,60.0,60.0,12.0,0.0
14480,61.0,0.0,120.0,11.0,0.0
14481,61.0,54.0,120.0,10.0,0.0
14482,46.0,0.0,60.0,13.0,0.0
14483,73.0,0.0,120.0,8.0,0.0
14484,46.0,0.0,60.0,13.0,0.0
14485,54.0,0.0,60.0,6.0,0.0
14486,58.0,6.0,60.0,12.0,0.0
14487,70.0,0.0,60.0,12.0,0.0
14488,58.0,0.0,60.0,13.0,0.0
14489,54.0,60.0,60.0,6.0,0.0
14490,54.0,0.0,60.0,6.0,0.0
14491,70.0,0.0,60.0,12.0,0.0
14492,58.0,60.0,60.0,13.0,0.0
14493,61.0,0.0,60.0,11.0,0.0
14494,70.0,0.0,60.0,12.0,0.0
14495,73.0,0.0,60.0,8.0,0.0
14496,61.0,0.0,60.0,10.0,0.0
14497,54.0,0.0,60.0,6.0,0.0
14498,58.0,58.0,60.0,13.0,0.0
14499,58.0,60.0,60.0,13.0,0.0
14500,70.0,0.0,60.0,12.0,0.0
14501,54.0,0.0,60.0,6.0,0.0
14502,54.0,60.0,60.0,6.0,0.0
14503,58.0,0.0,60.0,13.0,0.0
14504,61.0,0.0,120.0,11.0,0.0
14505,70.0,0.0,60.0,12.0,0.0
14506,73.0,0.0,120.0,8.0,0.0
14507,61.0,54.0,120.0,10.0,0.0
14508,58.0,6.0,60.0,13.0,0.0
14509,70.0,0.0,60.0,12.0,0.0
14510,54.0,0.0,60.0,6.0,0.0
14511,54.0,0.0,60.0,6.0,0.0
14512,58.0,42.0,60.0,13.0,0.0
14513,70.0,0.0,60.0,12.0,0.0
14514,66.0,0.0,180.0,4.0,0.0
14515,54.0,0.0,120.0,11.0,0.0
14516,66.0,0.0,120.0,8.0,0.0
14517,54.0,6.0,120.0,10.0,0.0
14518,70.0,6.0,60.0,12.0,0.0
14519,54.0,0.0,60.0,6.0,0.0
14520,58.0,0.0,60.0,13.0,0.0
14521,74.0,48.0,240.0,2.0,0.0
14522,86.0,0.0,240.0,1.0,0.0
14523,46.0,12.0,60.0,13.0,0.0
14524,58.0,0.0,60.0,12.0,0.0
14525,50.0,0.0,60.0,4.0,0.0
14526,62.0,0.0,60.0,4.0,0.0
14527,54.0,54.0,120.0,6.0,0.0
14528,58.0,6.0,60.0,12.0,0.0
14529,46.0,0.0,60.0,13.0,0.0
14530,46.0,12.0,60.0,13.0,0.0
14531,62.0,0.0,60.0,4.0,0.0
14532,54.0,6.0,120.0,6.0,0.0
14533,50.0,0.0,60.0,4.0,0.0
14534,66.0,48.0,60.0,4.0,0.0
14535,78.0,0.0,60.0,5.0,0.0
14536,58.0,0.0,60.0,12.0,0.0
14537,58.0,0.0,60.0,12.0,0.0
14538,46.0,6.0,60.0,13.0,0.0
14539,62.0,0.0,60.0,4.0,0.0
14540,96.0,0.0,2160.0,0.0,0.0
14541,57.0,0.0,60.0,12.0,0.0
14542,50.0,0.0,60.0,4.0,0.0
14543,66.0,48.0,60.0,4.0,0.0
14544,54.0,54.0,120.0,6.0,0.0
14545,72.0,0.0,2160.0,2.0,0.0
14546,84.0,1.0,2160.0,1.0,0.0
14547,90.0,0.0,2160.0,1.0,0.0
14548,78.0,0.0,60.0,5.0,0.0
14549,45.0,12.0,60.0,13.0,0.0
14550,78.0,0.0,2160.0,2.0,0.0
14551,45.0,0.0,60.0,13.0,0.0
14552,57.0,6.0,60.0,12.0,0.0
14553,50.0,0.0,60.0,4.0,0.0
14554,62.0,0.0,60.0,4.0,0.0
14555,54.0,54.0,120.0,6.0,0.0
14556,54.0,0.0,60.0,4.0,0.0
14557,57.0,0.0,60.0,12.0,0.0
14558,66.0,48.0,60.0,5.0,0.0
14559,45.0,12.0,60.0,13.0,0.0
14560,45.0,0.0,60.0,13.0,0.0
14561,57.0,6.0,60.0,12.0,0.0
14562,66.0,0.0,90.0,11.0,0.0
14563,50.0,48.0,60.0,12.0,0.0
14564,54.0,0.0,60.0,6.0,0.0
14565,54.0,12.0,90.0,11.0,0.0
14566,69.0,48.0,1740.0,4.0,0.0
14567,66.0,0.0,1830.0,5.0,0.0
14568,90.0,0.0,90.0,8.0,0.0
14569,78.0,0.0,90.0,8.0,0.0
14570,62.0,0.0,1740.0,4.0,0.0
14571,38.0,0.0,60.0,13.0,0.0
14572,78.0,24.0,1830.0,5.0,0.0
14573,66.0,0.0,90.0,10.0,0.0
14574,78.0,0.0,90.0,10.0,0.0
14575,50.0,0.0,1740.0,4.0,0.0
14576,50.0,0.0,1920.0,3.0,0.0
14577,38.0,0.0,60.0,13.0,0.0
14578,54.0,0.0,60.0,6.0,0.0
14579,50.0,60.0,60.0,12.0,0.0
14580,50.0,0.0,60.0,12.0,0.0
14581,38.0,0.0,60.0,13.0,0.0
14582,78.0,48.0,60.0,10.0,0.0
14583,90.0,0.0,60.0,8.0,0.0
14584,66.0,0.0,60.0,11.0,0.0
14585,54.0,12.0,60.0,6.0,0.0
14586,50.0,60.0,60.0,12.0,0.0
14587,54.0,0.0,60.0,6.0,0.0
14588,38.0,0.0,60.0,13.0,0.0
14589,66.0,0.0,90.0,11.0,0.0
14590,38.0,0.0,60.0,13.0,0.0
14591,54.0,0.0,60.0,6.0,0.0
14592,50.0,48.0,60.0,12.0,0.0
14593,90.0,0.0,90.0,8.0,0.0
14594,78.0,12.0,90.0,10.0,0.0
14595,38.0,60.0,60.0,13.0,0.0
14596,50.0,0.0,60.0,12.0,0.0
14597,54.0,0.0,60.0,6.0,0.0
14598,66.0,0.0,60.0,10.0,0.0
14599,54.0,0.0,60.0,6.0,0.0
14600,78.0,48.0,60.0,8.0,0.0
14601,50.0,0.0,60.0,12.0,0.0
14602,54.0,0.0,60.0,11.0,0.0
14603,38.0,12.0,60.0,13.0,0.0
14604,50.0,0.0,60.0,12.0,0.0
14605,54.0,0.0,60.0,6.0,0.0
14606,38.0,60.0,60.0,13.0,0.0
14607,54.0,12.0,90.0,11.0,0.0
14608,66.0,0.0,90.0,10.0,0.0
14609,78.0,0.0,90.0,8.0,0.0
14610,50.0,0.0,60.0,12.0,0.0
14611,54.0,48.0,60.0,6.0,0.0
14612,38.0,0.0,60.0,13.0,0.0
14613,54.0,60.0,60.0,6.0,0.0
14614,38.0,0.0,60.0,13.0,0.0
14615,50.0,0.0,60.0,12.0,0.0
14616,54.0,0.0,60.0,6.0,0.0
14617,66.0,0.0,60.0,8.0,0.0
14618,54.0,48.0,60.0,10.0,0.0
14619,50.0,0.0,60.0,12.0,0.0
14620,38.0,12.0,60.0,13.0,0.0
14621,42.0,0.0,60.0,11.0,0.0
14622,50.0,0.0,60.0,12.0,0.0
14623,54.0,0.0,60.0,6.0,0.0
14624,38.0,60.0,60.0,13.0,0.0
14625,38.0,0.0,60.0,13.0,0.0
14626,54.0,0.0,60.0,6.0,0.0
14627,50.0,48.0,60.0,12.0,0.0
14628,66.0,0.0,90.0,8.0,0.0
14629,42.0,12.0,90.0,11.0,0.0
14630,54.0,0.0,90.0,10.0,0.0
14631,38.0,0.0,60.0,13.0,0.0
14632,54.0,0.0,60.0,6.0,0.0
14633,50.0,60.0,60.0,12.0,0.0
14634,66.0,0.0,60.0,10.0,0.0
14635,38.0,0.0,60.0,13.0,0.0
14636,78.0,0.0,60.0,8.0,0.0
14637,54.0,0.0,60.0,6.0,0.0
14638,54.0,48.0,60.0,11.0,0.0
14639,50.0,12.0,60.0,12.0,0.0
14640,54.0,0.0,60.0,6.0,0.0
14641,50.0,60.0,60.0,12.0,0.0
14642,38.0,0.0,60.0,13.0,0.0
14643,50.0,48.0,60.0,12.0,0.0
14644,38.0,0.0,60.0,13.0,0.0
14645,78.0,12.0,90.0,8.0,0.0
14646,66.0,0.0,90.0,10.0,0.0
14647,54.0,0.0,60.0,6.0,0.0
14648,54.0,0.0,90.0,11.0,0.0
14649,38.0,60.0,60.0,13.0,0.0
14650,54.0,0.0,60.0,6.0,0.0
14651,50.0,0.0,60.0,12.0,0.0
14652,54.0,0.0,60.0,6.0,0.0
14653,90.0,0.0,60.0,8.0,0.0
14654,50.0,12.0,60.0,12.0,0.0
14655,38.0,0.0,60.0,13.0,0.0
14656,78.0,0.0,60.0,10.0,0.0
14657,66.0,48.0,60.0,11.0,0.0
14658,38.0,0.0,60.0,13.0,0.0
14659,54.0,60.0,60.0,6.0,0.0
14660,50.0,0.0,60.0,12.0,0.0
14661,66.0,0.0,90.0,11.0,0.0
14662,54.0,48.0,60.0,6.0,0.0
14663,38.0,0.0,60.0,13.0,0.0
14664,50.0,0.0,60.0,12.0,0.0
14665,78.0,12.0,90.0,10.0,0.0
14666,90.0,0.0,90.0,8.0,0.0
14667,38.0,60.0,60.0,13.0,0.0
14668,50.0,0.0,60.0,12.0,0.0
14669,54.0,0.0,60.0,6.0,0.0
14670,50.0,0.0,60.0,12.0,0.0
14671,54.0,12.0,60.0,6.0,0.0
14672,66.0,0.0,60.0,10.0,0.0
14673,78.0,48.0,60.0,8.0,0.0
14674,54.0,0.0,60.0,11.0,0.0
14675,38.0,0.0,60.0,13.0,0.0
14676,38.0,60.0,60.0,13.0,0.0
14677,50.0,0.0,60.0,12.0,0.0
14678,54.0,0.0,60.0,6.0,0.0
14679,78.0,0.0,90.0,8.0,0.0
14680,66.0,12.0,90.0,10.0,0.0
14681,50.0,48.0,60.0,12.0,0.0
14682,54.0,0.0,90.0,11.0,0.0
14683,54.0,0.0,60.0,6.0,0.0
14684,38.0,0.0,60.0,13.0,0.0
14685,50.0,60.0,60.0,12.0,0.0
14686,38.0,0.0,60.0,13.0,0.0
14687,54.0,0.0,60.0,6.0,0.0
14688,38.0,0.0,60.0,13.0,0.0
14689,54.0,0.0,60.0,10.0,0.0
14690,50.0,12.0,60.0,12.0,0.0
14691,54.0,0.0,60.0,6.0,0.0
14692,42.0,0.0,60.0,11.0,0.0
14693,66.0,48.0,60.0,8.0,0.0
14694,54.0,60.0,60.0,6.0,0.0
14695,38.0,0.0,60.0,13.0,0.0
14696,50.0,0.0,60.0,12.0,0.0
14697,54.0,0.0,60.0,6.0,0.0
14698,54.0,0.0,90.0,10.0,0.0
14699,66.0,12.0,90.0,8.0,0.0
14700,42.0,0.0,90.0,11.0,0.0
14701,50.0,0.0,60.0,12.0,0.0
14702,38.0,0.0,60.0,13.0,0.0
14703,38.0,0.0,60.0,13.0,0.0
14704,50.0,36.0,60.0,12.0,0.0
14705,54.0,0.0,60.0,6.0,0.0
14706,38.0,0.0,60.0,13.0,0.0
14707,54.0,60.0,60.0,6.0,0.0
14708,50.0,0.0,60.0,12.0,0.0
14709,54.0,0.0,60.0,6.0,0.0
14710,78.0,12.0,60.0,5.0,0.0
14711,33.0,0.0,60.0,13.0,0.0
14712,66.0,0.0,60.0,11.0,0.0
14713,78.0,0.0,60.0,10.0,0.0
14714,90.0,0.0,60.0,8.0,0.0
14715,45.0,0.0,60.0,12.0,0.0
14716,66.0,0.0,60.0,5.0,0.0
14717,45.0,0.0,330.0,3.0,0.0
14718,38.0,47.0,15.0,3.0,0.0
14719,61.0,24.0,870.0,5.0,0.0
14720,73.0,0.0,870.0,5.0,0.0
14721,73.0,24.0,1830.0,4.0,0.0
14722,73.0,0.0,840.0,10.0,0.0
14723,73.0,0.0,1620.0,2.0,0.0
14724,97.0,0.0,1620.0,0.0,0.0
14725,85.0,0.0,840.0,8.0,0.0
14726,61.0,36.0,840.0,11.0,0.0
14727,57.0,0.0,1830.0,4.0,0.0
14728,69.0,0.0,1830.0,4.0,0.0
14729,33.0,0.0,330.0,13.0,0.0
14730,78.0,0.0,1620.0,2.0,0.0
14731,45.0,12.0,330.0,12.0,0.0
14732,85.0,36.0,1620.0,1.0,0.0
14733,90.0,0.0,1620.0,1.0,0.0
14734,54.0,60.0,60.0,6.0,0.0
14735,54.0,60.0,60.0,6.0,0.0
14736,54.0,60.0,60.0,6.0,0.0
14737,54.0,60.0,60.0,6.0,0.0
14738,54.0,48.0,60.0,6.0,0.0
14739,54.0,60.0,60.0,6.0,0.0
14740,54.0,60.0,60.0,6.0,0.0
14741,33.0,0.0,60.0,13.0,0.0
14742,54.0,60.0,60.0,6.0,0.0
14743,45.0,0.0,60.0,3.0,0.0
14744,45.0,0.0,60.0,12.0,0.0
14745,54.0,60.0,60.0,6.0,0.0
14746,37.0,0.0,810.0,13.0,0.0
14747,49.0,0.0,810.0,12.0,0.0
14748,49.0,0.0,810.0,3.0,0.0
14749,54.0,60.0,60.0,6.0,0.0
14750,54.0,60.0,60.0,6.0,0.0
14751,54.0,60.0,60.0,6.0,0.0
14752,54.0,60.0,60.0,6.0,0.0
14753,54.0,0.0,60.0,6.0,0.0
14754,54.0,60.0,60.0,6.0,0.0
14755,69.0,0.0,60.0,10.0,0.0
14756,57.0,0.0,60.0,11.0,0.0
14757,54.0,0.0,60.0,6.0,0.0
14758,81.0,0.0,60.0,8.0,0.0
14759,73.0,60.0,60.0,5.0,0.0
14760,61.0,0.0,60.0,5.0,0.0
14761,78.0,0.0,330.0,8.0,0.0
14762,66.0,0.0,330.0,10.0,0.0
14763,61.0,0.0,330.0,5.0,0.0
14764,73.0,12.0,330.0,5.0,0.0
14765,54.0,60.0,60.0,6.0,0.0
14766,66.0,0.0,330.0,11.0,0.0
14767,54.0,60.0,60.0,6.0,0.0
14768,54.0,60.0,60.0,6.0,0.0
14769,54.0,60.0,60.0,6.0,0.0
14770,54.0,48.0,60.0,6.0,0.0
14771,54.0,60.0,60.0,6.0,0.0
14772,54.0,60.0,60.0,6.0,0.0
14773,73.0,0.0,60.0,8.0,0.0
14774,61.0,0.0,60.0,10.0,0.0
14775,49.0,0.0,60.0,3.0,0.0
14776,54.0,0.0,60.0,6.0,0.0
14777,49.0,60.0,60.0,12.0,0.0
14778,73.0,0.0,60.0,5.0,0.0
14779,37.0,0.0,60.0,13.0,0.0
14780,61.0,0.0,60.0,5.0,0.0
14781,61.0,0.0,60.0,11.0,0.0
14782,57.0,48.0,300.0,11.0,0.0
14783,42.0,0.0,330.0,13.0,0.0
14784,54.0,60.0,60.0,6.0,0.0
14785,69.0,0.0,300.0,8.0,0.0
14786,57.0,0.0,300.0,10.0,0.0
14787,73.0,0.0,300.0,5.0,0.0
14788,61.0,0.0,300.0,5.0,0.0
14789,54.0,12.0,330.0,3.0,0.0
14790,54.0,0.0,330.0,12.0,0.0
14791,54.0,60.0,60.0,6.0,0.0
14792,54.0,24.0,60.0,6.0,0.0
14793,54.0,60.0,60.0,6.0,0.0
14794,54.0,0.0,60.0,6.0,0.0
14795,54.0,36.0,60.0,6.0,0.0
14796,61.0,0.0,60.0,11.0,0.0
14797,54.0,0.0,60.0,6.0,0.0
14798,61.0,0.0,60.0,5.0,0.0
14799,61.0,60.0,60.0,10.0,0.0
14800,73.0,0.0,60.0,8.0,0.0
14801,73.0,0.0,60.0,5.0,0.0
14802,78.0,0.0,60.0,1.0,0.0
14803,66.0,0.0,60.0,3.0,0.0
14804,66.0,0.0,60.0,12.0,0.0
14805,90.0,0.0,60.0,0.0,0.0
14806,54.0,60.0,60.0,13.0,0.0
14807,54.0,0.0,60.0,6.0,0.0
14808,78.0,0.0,60.0,4.0,0.0
14809,66.0,0.0,60.0,2.0,0.0
14810,66.0,0.0,60.0,4.0,0.0
14811,69.0,0.0,60.0,4.0,0.0
14812,61.0,0.0,60.0,5.0,0.0
14813,73.0,0.0,60.0,5.0,0.0
14814,57.0,0.0,60.0,11.0,0.0
14815,69.0,0.0,60.0,8.0,0.0
14816,57.0,0.0,60.0,10.0,0.0
14817,49.0,0.0,840.0,3.0,0.0
14818,57.0,0.0,60.0,11.0,0.0
14819,85.0,0.0,840.0,1.0,0.0
14820,54.0,12.0,330.0,12.0,0.0
14821,73.0,0.0,840.0,4.0,0.0
14822,42.0,0.0,330.0,13.0,0.0
14823,66.0,0.0,60.0,8.0,0.0
14824,61.0,0.0,840.0,4.0,0.0
14825,66.0,0.0,840.0,5.0,0.0
14826,78.0,0.0,840.0,5.0,0.0
14827,66.0,60.0,60.0,10.0,0.0
14828,73.0,0.0,840.0,2.0,0.0
14829,97.0,60.0,840.0,0.0,0.0
14830,54.0,0.0,60.0,6.0,0.0
14831,57.0,60.0,60.0,11.0,0.0
14832,78.0,0.0,60.0,8.0,0.0
14833,54.0,0.0,60.0,6.0,0.0
14834,61.0,0.0,60.0,10.0,0.0
14835,66.0,0.0,60.0,10.0,0.0
14836,66.0,0.0,60.0,8.0,0.0
14837,66.0,0.0,60.0,8.0,0.0
14838,61.0,0.0,60.0,10.0,0.0
14839,66.0,60.0,60.0,10.0,0.0
14840,78.0,0.0,60.0,8.0,0.0
14841,57.0,0.0,60.0,11.0,0.0
14842,54.0,0.0,60.0,6.0,0.0
14843,57.0,0.0,60.0,11.0,0.0
14844,78.0,0.0,60.0,8.0,0.0
14845,66.0,0.0,60.0,8.0,0.0
14846,54.0,0.0,60.0,6.0,0.0
14847,66.0,0.0,60.0,10.0,0.0
14848,61.0,60.0,60.0,10.0,0.0
14849,57.0,0.0,60.0,11.0,0.0
14850,61.0,48.0,60.0,10.0,0.0
14851,66.0,0.0,60.0,8.0,0.0
14852,78.0,0.0,60.0,8.0,0.0
14853,66.0,0.0,60.0,10.0,0.0
14854,54.0,0.0,60.0,6.0,0.0
14855,61.0,60.0,60.0,10.0,0.0
14856,66.0,0.0,60.0,8.0,0.0
14857,78.0,0.0,60.0,8.0,0.0
14858,57.0,0.0,60.0,11.0,0.0
14859,54.0,0.0,60.0,6.0,0.0
14860,66.0,0.0,60.0,10.0,0.0
14861,61.0,60.0,60.0,10.0,0.0
14862,66.0,0.0,60.0,10.0,0.0
14863,54.0,0.0,60.0,6.0,0.0
14864,57.0,0.0,60.0,11.0,0.0
14865,78.0,0.0,60.0,8.0,0.0
14866,66.0,0.0,60.0,8.0,0.0
14867,66.0,0.0,60.0,8.0,0.0
14868,66.0,0.0,60.0,10.0,0.0
14869,42.0,0.0,60.0,13.0,0.0
14870,61.0,0.0,60.0,10.0,0.0
14871,78.0,0.0,60.0,8.0,0.0
14872,54.0,0.0,60.0,6.0,0.0
14873,54.0,0.0,60.0,12.0,0.0
14874,57.0,60.0,60.0,11.0,0.0
14875,61.0,60.0,60.0,10.0,0.0
14876,57.0,0.0,810.0,12.0,0.0
14877,66.0,0.0,60.0,8.0,0.0
14878,57.0,0.0,60.0,11.0,0.0
14879,78.0,0.0,60.0,8.0,0.0
14880,45.0,0.0,810.0,13.0,0.0
14881,66.0,0.0,60.0,10.0,0.0
14882,54.0,0.0,60.0,6.0,0.0
14883,66.0,0.0,60.0,10.0,0.0
14884,57.0,60.0,60.0,11.0,0.0
14885,61.0,0.0,60.0,10.0,0.0
14886,54.0,0.0,60.0,6.0,0.0
14887,66.0,0.0,60.0,8.0,0.0
14888,78.0,0.0,60.0,8.0,0.0
14889,54.0,0.0,60.0,6.0,0.0
14890,66.0,0.0,60.0,10.0,0.0
14891,61.0,0.0,60.0,10.0,0.0
14892,57.0,60.0,60.0,11.0,0.0
14893,78.0,0.0,60.0,8.0,0.0
14894,66.0,0.0,60.0,8.0,0.0
14895,78.0,0.0,60.0,8.0,0.0
14896,57.0,0.0,60.0,11.0,0.0
14897,54.0,60.0,60.0,6.0,0.0
14898,66.0,0.0,60.0,8.0,0.0
14899,61.0,0.0,60.0,10.0,0.0
14900,66.0,0.0,60.0,10.0,0.0
14901,57.0,0.0,60.0,11.0,0.0
14902,66.0,60.0,60.0,8.0,0.0
14903,66.0,0.0,60.0,10.0,0.0
14904,61.0,0.0,60.0,10.0,0.0
14905,78.0,0.0,60.0,8.0,0.0
14906,54.0,0.0,60.0,6.0,0.0
14907,61.0,0.0,60.0,10.0,0.0
14908,54.0,0.0,60.0,6.0,0.0
14909,57.0,0.0,60.0,11.0,0.0
14910,66.0,0.0,60.0,10.0,0.0
14911,66.0,0.0,60.0,8.0,0.0
14912,78.0,0.0,60.0,8.0,0.0
14913,57.0,0.0,60.0,11.0,0.0
14914,78.0,0.0,60.0,8.0,0.0
14915,66.0,0.0,60.0,10.0,0.0
14916,61.0,0.0,60.0,10.0,0.0
14917,54.0,60.0,60.0,6.0,0.0
14918,66.0,0.0,60.0,8.0,0.0
14919,69.0,0.0,60.0,2.0,0.0
14920,66.0,0.0,60.0,8.0,0.0
14921,78.0,60.0,60.0,8.0,0.0
14922,69.0,0.0,60.0,4.0,0.0
14923,54.0,0.0,60.0,6.0,0.0
14924,45.0,0.0,60.0,3.0,0.0
14925,78.0,0.0,60.0,5.0,0.0
14926,81.0,0.0,60.0,1.0,0.0
14927,57.0,0.0,60.0,4.0,0.0
14928,66.0,0.0,60.0,5.0,0.0
14929,93.0,0.0,60.0,0.0,0.0
14930,66.0,0.0,60.0,10.0,0.0
14931,57.0,0.0,60.0,11.0,0.0
14932,61.0,0.0,60.0,10.0,0.0
14933,78.0,0.0,330.0,2.0,0.0
14934,66.0,0.0,60.0,8.0,0.0
14935,78.0,0.0,60.0,8.0,0.0
14936,54.0,0.0,60.0,6.0,0.0
14937,57.0,60.0,60.0,11.0,0.0
14938,54.0,12.0,330.0,3.0,0.0
14939,66.0,0.0,330.0,4.0,0.0
14940,61.0,0.0,60.0,10.0,0.0
14941,66.0,0.0,60.0,10.0,0.0
14942,78.0,0.0,330.0,1.0,0.0
14943,90.0,0.0,330.0,0.0,0.0
14944,54.0,0.0,330.0,4.0,0.0
14945,78.0,0.0,330.0,5.0,0.0
14946,66.0,0.0,330.0,5.0,0.0
14947,57.0,0.0,60.0,11.0,0.0
14948,78.0,0.0,60.0,8.0,0.0
14949,66.0,0.0,60.0,8.0,0.0
14950,66.0,0.0,60.0,10.0,0.0
14951,54.0,60.0,60.0,6.0,0.0
14952,61.0,0.0,60.0,10.0,0.0
14953,61.0,0.0,60.0,10.0,0.0
14954,57.0,0.0,60.0,11.0,0.0
14955,54.0,60.0,60.0,6.0,0.0
14956,78.0,0.0,60.0,8.0,0.0
14957,66.0,0.0,60.0,8.0,0.0
14958,66.0,0.0,60.0,10.0,0.0
14959,57.0,60.0,60.0,11.0,0.0
14960,54.0,0.0,60.0,6.0,0.0
14961,78.0,0.0,60.0,8.0,0.0
14962,66.0,0.0,60.0,10.0,0.0
14963,61.0,0.0,60.0,10.0,0.0
14964,66.0,0.0,60.0,8.0,0.0
14965,61.0,0.0,60.0,10.0,0.0
14966,54.0,0.0,60.0,6.0,0.0
14967,66.0,0.0,60.0,10.0,0.0
14968,78.0,0.0,60.0,8.0,0.0
14969,66.0,0.0,60.0,8.0,0.0
14970,57.0,48.0,60.0,11.0,0.0
14971,66.0,0.0,60.0,10.0,0.0
14972,78.0,0.0,60.0,8.0,0.0
14973,66.0,60.0,60.0,8.0,0.0
14974,57.0,0.0,60.0,11.0,0.0
14975,54.0,0.0,60.0,6.0,0.0
14976,61.0,0.0,60.0,10.0,0.0
14977,66.0,60.0,60.0,10.0,0.0
14978,57.0,0.0,60.0,11.0,0.0
14979,66.0,0.0,60.0,8.0,0.0
14980,78.0,0.0,60.0,8.0,0.0
14981,54.0,0.0,60.0,6.0,0.0
14982,61.0,0.0,60.0,10.0,0.0
14983,73.0,0.0,60.0,1.0,0.0
14984,78.0,0.0,60.0,5.0,0.0
14985,66.0,0.0,60.0,5.0,0.0
14986,61.0,0.0,60.0,4.0,0.0
14987,61.0,0.0,90.0,12.0,0.0
14988,85.0,0.0,60.0,0.0,0.0
14989,57.0,0.0,60.0,11.0,0.0
14990,66.0,0.0,60.0,10.0,0.0
14991,61.0,0.0,60.0,10.0,0.0
14992,49.0,12.0,90.0,13.0,0.0
14993,66.0,0.0,60.0,8.0,0.0
14994,78.0,0.0,60.0,8.0,0.0
14995,73.0,0.0,60.0,2.0,0.0
14996,54.0,0.0,60.0,6.0,0.0
14997,49.0,0.0,60.0,4.0,0.0
14998,49.0,48.0,60.0,3.0,0.0
14999,45.0,0.0,300.0,3.0,0.0
15000,66.0,0.0,60.0,10.0,0.0
15001,61.0,0.0,60.0,10.0,0.0
15002,78.0,60.0,60.0,8.0,0.0
15003,57.0,0.0,60.0,11.0,0.0
15004,69.0,0.0,300.0,2.0,0.0
15005,54.0,0.0,60.0,6.0,0.0
15006,45.0,60.0,300.0,4.0,0.0
15007,57.0,0.0,300.0,4.0,0.0
15008,66.0,0.0,300.0,5.0,0.0
15009,78.0,0.0,300.0,5.0,0.0
15010,69.0,0.0,300.0,1.0,0.0
15011,81.0,0.0,300.0,0.0,0.0
15012,66.0,0.0,60.0,8.0,0.0
15013,54.0,0.0,60.0,6.0,0.0
15014,57.0,0.0,60.0,11.0,0.0
15015,61.0,0.0,60.0,10.0,0.0
15016,66.0,0.0,60.0,10.0,0.0
15017,66.0,60.0,60.0,8.0,0.0
15018,78.0,0.0,60.0,8.0,0.0
15019,66.0,0.0,60.0,10.0,0.0
15020,61.0,0.0,60.0,10.0,0.0
15021,66.0,60.0,60.0,8.0,0.0
15022,78.0,0.0,60.0,8.0,0.0
15023,57.0,0.0,60.0,11.0,0.0
15024,54.0,0.0,60.0,6.0,0.0
15025,57.0,0.0,60.0,11.0,0.0
15026,66.0,0.0,90.0,12.0,0.0
15027,54.0,48.0,60.0,6.0,0.0
15028,54.0,12.0,90.0,13.0,0.0
15029,78.0,0.0,60.0,8.0,0.0
15030,61.0,0.0,60.0,10.0,0.0
15031,66.0,0.0,60.0,8.0,0.0
15032,66.0,0.0,60.0,10.0,0.0
15033,54.0,0.0,60.0,6.0,0.0
15034,66.0,0.0,60.0,10.0,0.0
15035,61.0,0.0,60.0,10.0,0.0
15036,57.0,0.0,60.0,11.0,0.0
15037,78.0,0.0,60.0,8.0,0.0
15038,66.0,0.0,60.0,8.0,0.0
15039,54.0,0.0,60.0,6.0,0.0
15040,57.0,0.0,60.0,11.0,0.0
15041,61.0,0.0,60.0,10.0,0.0
15042,66.0,60.0,60.0,10.0,0.0
15043,78.0,0.0,60.0,8.0,0.0
15044,66.0,0.0,60.0,8.0,0.0
15045,85.0,0.0,60.0,2.0,0.0
15046,54.0,0.0,60.0,6.0,0.0
15047,66.0,0.0,60.0,8.0,0.0
15048,49.0,0.0,60.0,3.0,0.0
15049,61.0,0.0,60.0,10.0,0.0
15050,78.0,0.0,60.0,8.0,0.0
15051,97.0,0.0,60.0,0.0,0.0
15052,49.0,60.0,60.0,4.0,0.0
15053,85.0,0.0,60.0,1.0,0.0
15054,57.0,0.0,60.0,11.0,0.0
15055,78.0,0.0,60.0,5.0,0.0
15056,73.0,0.0,60.0,4.0,0.0
15057,66.0,0.0,60.0,5.0,0.0
15058,66.0,0.0,60.0,10.0,0.0
15059,54.0,0.0,60.0,6.0,0.0
15060,81.0,0.0,60.0,1.0,0.0
15061,45.0,0.0,60.0,3.0,0.0
15062,69.0,0.0,60.0,4.0,0.0
15063,66.0,0.0,60.0,5.0,0.0
15064,57.0,0.0,60.0,11.0,0.0
15065,81.0,48.0,60.0,2.0,0.0
15066,45.0,0.0,60.0,4.0,0.0
15067,61.0,0.0,60.0,10.0,0.0
15068,66.0,0.0,60.0,10.0,0.0
15069,93.0,0.0,60.0,0.0,0.0
15070,78.0,0.0,60.0,5.0,0.0
15071,78.0,0.0,60.0,8.0,0.0
15072,66.0,0.0,60.0,8.0,0.0
15073,54.0,0.0,570.0,11.0,0.0
15074,66.0,0.0,570.0,11.0,0.0
15075,42.0,0.0,1860.0,4.0,0.0
15076,66.0,0.0,540.0,5.0,0.0
15077,52.0,0.0,30.0,13.0,0.0
15078,66.0,0.0,570.0,10.0,0.0
15079,78.0,42.0,540.0,5.0,0.0
15080,42.0,0.0,1860.0,3.0,0.0
15081,78.0,48.0,1860.0,1.0,0.0
15082,66.0,0.0,570.0,8.0,0.0
15083,78.0,0.0,570.0,8.0,0.0
15084,66.0,0.0,1860.0,4.0,0.0
15085,78.0,0.0,570.0,10.0,0.0
15086,78.0,0.0,1860.0,2.0,0.0
15087,64.0,12.0,30.0,12.0,0.0
15088,54.0,60.0,60.0,6.0,0.0
15089,90.0,0.0,1860.0,0.0,0.0
15090,54.0,60.0,60.0,6.0,0.0
15091,54.0,60.0,60.0,6.0,0.0
15092,54.0,12.0,60.0,6.0,0.0
15093,50.0,0.0,90.0,13.0,0.0
15094,62.0,12.0,90.0,12.0,0.0
15095,54.0,48.0,60.0,6.0,0.0
15096,54.0,60.0,60.0,6.0,0.0
15097,54.0,60.0,60.0,6.0,0.0
15098,54.0,60.0,60.0,6.0,0.0
15099,49.0,12.0,90.0,13.0,0.0
15100,54.0,6.0,60.0,6.0,0.0
15101,61.0,0.0,90.0,12.0,0.0
15102,54.0,60.0,60.0,6.0,0.0
15103,66.0,0.0,60.0,5.0,0.0
15104,54.0,6.0,60.0,6.0,0.0
15105,69.0,0.0,60.0,10.0,0.0
15106,57.0,0.0,60.0,11.0,0.0
15107,81.0,48.0,60.0,8.0,0.0
15108,78.0,6.0,60.0,5.0,0.0
15109,54.0,60.0,60.0,6.0,0.0
15110,54.0,6.0,60.0,6.0,0.0
15111,68.0,0.0,60.0,10.0,0.0
15112,78.0,6.0,60.0,5.0,0.0
15113,80.0,36.0,60.0,8.0,0.0
15114,66.0,0.0,60.0,5.0,0.0
15115,59.0,0.0,90.0,12.0,0.0
15116,47.0,12.0,90.0,13.0,0.0
15117,56.0,0.0,60.0,11.0,0.0
15118,54.0,60.0,60.0,6.0,0.0
15119,66.0,48.0,60.0,10.0,0.0
15120,54.0,6.0,60.0,6.0,0.0
15121,78.0,0.0,60.0,8.0,0.0
15122,54.0,0.0,60.0,11.0,0.0
15123,66.0,0.0,60.0,5.0,0.0
15124,78.0,6.0,60.0,5.0,0.0
15125,54.0,60.0,60.0,6.0,0.0
15126,73.0,0.0,120.0,5.0,0.0
15127,61.0,60.0,120.0,5.0,0.0
15128,61.0,0.0,90.0,11.0,0.0
15129,73.0,0.0,90.0,10.0,0.0
15130,57.0,0.0,90.0,12.0,0.0
15131,45.0,0.0,90.0,13.0,0.0
15132,54.0,48.0,60.0,6.0,0.0
15133,85.0,12.0,90.0,8.0,0.0
15134,54.0,0.0,60.0,6.0,0.0
15135,54.0,60.0,60.0,6.0,0.0
15136,54.0,60.0,60.0,6.0,0.0
15137,54.0,48.0,60.0,6.0,0.0
15138,59.0,0.0,90.0,11.0,0.0
15139,61.0,0.0,120.0,5.0,0.0
15140,47.0,12.0,90.0,13.0,0.0
15141,83.0,0.0,90.0,8.0,0.0
15142,73.0,0.0,120.0,5.0,0.0
15143,71.0,0.0,90.0,10.0,0.0
15144,59.0,0.0,90.0,12.0,0.0
15145,54.0,60.0,60.0,6.0,0.0
15146,54.0,60.0,60.0,6.0,0.0
15147,54.0,60.0,60.0,6.0,0.0
15148,73.0,0.0,120.0,5.0,0.0
15149,68.0,0.0,90.0,10.0,0.0
15150,80.0,0.0,90.0,8.0,0.0
15151,56.0,0.0,90.0,11.0,0.0
15152,61.0,60.0,120.0,5.0,0.0
15153,54.0,48.0,60.0,6.0,0.0
15154,61.0,12.0,90.0,12.0,0.0
15155,49.0,0.0,90.0,13.0,0.0
15156,54.0,0.0,60.0,6.0,0.0
15157,54.0,60.0,60.0,6.0,0.0
15158,54.0,60.0,60.0,6.0,0.0
15159,54.0,48.0,60.0,6.0,0.0
15160,61.0,0.0,120.0,5.0,0.0
15161,51.0,0.0,120.0,13.0,0.0
15162,85.0,12.0,90.0,8.0,0.0
15163,61.0,0.0,90.0,11.0,0.0
15164,73.0,0.0,120.0,5.0,0.0
15165,63.0,54.0,120.0,12.0,0.0
15166,73.0,0.0,90.0,10.0,0.0
15167,54.0,6.0,60.0,6.0,0.0
15168,64.0,0.0,120.0,12.0,0.0
15169,54.0,12.0,60.0,6.0,0.0
15170,52.0,54.0,120.0,13.0,0.0
15171,54.0,6.0,60.0,6.0,0.0
15172,66.0,0.0,540.0,5.0,0.0
15173,78.0,12.0,570.0,2.0,0.0
15174,54.0,0.0,570.0,3.0,0.0
15175,66.0,0.0,60.0,10.0,0.0
15176,54.0,0.0,1740.0,4.0,0.0
15177,90.0,0.0,570.0,0.0,0.0
15178,78.0,42.0,540.0,5.0,0.0
15179,78.0,60.0,60.0,8.0,0.0
15180,52.0,0.0,240.0,13.0,0.0
15181,66.0,0.0,60.0,11.0,0.0
15182,64.0,48.0,240.0,12.0,0.0
15183,66.0,0.0,570.0,4.0,0.0
15184,54.0,0.0,60.0,6.0,0.0
15185,78.0,0.0,570.0,1.0,0.0
15186,66.0,0.0,60.0,10.0,0.0
15187,54.0,60.0,60.0,6.0,0.0
15188,78.0,0.0,60.0,8.0,0.0
15189,66.0,0.0,60.0,11.0,0.0
15190,66.0,0.0,60.0,11.0,0.0
15191,66.0,0.0,60.0,10.0,0.0
15192,54.0,60.0,60.0,6.0,0.0
15193,78.0,0.0,60.0,8.0,0.0
15194,78.0,0.0,60.0,8.0,0.0
15195,66.0,0.0,60.0,11.0,0.0
15196,66.0,0.0,60.0,10.0,0.0
15197,54.0,12.0,60.0,6.0,0.0
15198,66.0,0.0,60.0,10.0,0.0
15199,78.0,48.0,60.0,8.0,0.0
15200,66.0,0.0,60.0,11.0,0.0
15201,62.0,12.0,90.0,12.0,0.0
15202,50.0,0.0,90.0,13.0,0.0
15203,54.0,0.0,60.0,6.0,0.0
15204,66.0,0.0,60.0,10.0,0.0
15205,54.0,0.0,60.0,6.0,0.0
15206,78.0,60.0,60.0,8.0,0.0
15207,66.0,0.0,60.0,11.0,0.0
15208,66.0,0.0,60.0,11.0,0.0
15209,54.0,0.0,60.0,6.0,0.0
15210,78.0,0.0,60.0,8.0,0.0
15211,66.0,60.0,60.0,10.0,0.0
15212,78.0,60.0,60.0,8.0,0.0
15213,66.0,0.0,60.0,11.0,0.0
15214,54.0,0.0,60.0,6.0,0.0
15215,66.0,0.0,60.0,10.0,0.0
15216,78.0,0.0,60.0,8.0,0.0
15217,66.0,0.0,60.0,10.0,0.0
15218,54.0,0.0,60.0,6.0,0.0
15219,66.0,6.0,60.0,11.0,0.0
15220,61.0,0.0,90.0,12.0,0.0
15221,49.0,0.0,90.0,13.0,0.0
15222,54.0,0.0,60.0,6.0,0.0
15223,66.0,0.0,60.0,10.0,0.0
15224,78.0,60.0,60.0,8.0,0.0
15225,66.0,0.0,60.0,11.0,0.0
15226,81.0,0.0,60.0,2.0,0.0
15227,93.0,0.0,60.0,0.0,0.0
15228,54.0,0.0,60.0,6.0,0.0
15229,66.0,6.0,60.0,10.0,0.0
15230,81.0,0.0,60.0,1.0,0.0
15231,66.0,0.0,60.0,11.0,0.0
15232,78.0,0.0,60.0,8.0,0.0
15233,57.0,0.0,60.0,3.0,0.0
15234,69.0,48.0,60.0,4.0,0.0
15235,78.0,0.0,60.0,5.0,0.0
15236,66.0,6.0,60.0,5.0,0.0
15237,54.0,0.0,60.0,6.0,0.0
15238,78.0,0.0,60.0,8.0,0.0
15239,66.0,60.0,60.0,11.0,0.0
15240,66.0,0.0,60.0,10.0,0.0
15241,56.0,0.0,60.0,3.0,0.0
15242,68.0,0.0,60.0,4.0,0.0
15243,92.0,36.0,60.0,0.0,0.0
15244,80.0,0.0,60.0,1.0,0.0
15245,66.0,0.0,60.0,11.0,0.0
15246,80.0,0.0,60.0,2.0,0.0
15247,78.0,0.0,60.0,8.0,0.0
15248,78.0,6.0,60.0,5.0,0.0
15249,66.0,0.0,60.0,5.0,0.0
15250,66.0,6.0,60.0,10.0,0.0
15251,59.0,12.0,90.0,12.0,0.0
15252,47.0,0.0,90.0,13.0,0.0
15253,54.0,0.0,60.0,6.0,0.0
15254,66.0,60.0,60.0,11.0,0.0
15255,66.0,0.0,60.0,10.0,0.0
15256,78.0,0.0,60.0,8.0,0.0
15257,54.0,0.0,60.0,6.0,0.0
15258,66.0,0.0,60.0,11.0,0.0
15259,66.0,6.0,60.0,10.0,0.0
15260,78.0,0.0,60.0,8.0,0.0
15261,90.0,0.0,60.0,0.0,0.0
15262,66.0,0.0,60.0,4.0,0.0
15263,78.0,48.0,60.0,1.0,0.0
15264,78.0,0.0,60.0,2.0,0.0
15265,54.0,0.0,60.0,6.0,0.0
15266,66.0,6.0,60.0,5.0,0.0
15267,78.0,0.0,60.0,5.0,0.0
15268,54.0,0.0,60.0,3.0,0.0
15269,78.0,0.0,60.0,8.0,0.0
15270,66.0,0.0,60.0,10.0,0.0
15271,66.0,0.0,60.0,11.0,0.0
15272,54.0,60.0,60.0,6.0,0.0
15273,73.0,12.0,90.0,4.0,0.0
15274,61.0,0.0,90.0,3.0,0.0
15275,85.0,0.0,90.0,1.0,0.0
15276,85.0,0.0,90.0,2.0,0.0
15277,78.0,48.0,60.0,8.0,0.0
15278,54.0,0.0,60.0,6.0,0.0
15279,58.0,0.0,90.0,12.0,0.0
15280,73.0,0.0,120.0,5.0,0.0
15281,61.0,60.0,120.0,5.0,0.0
15282,97.0,0.0,90.0,0.0,0.0
15283,66.0,0.0,60.0,11.0,0.0
15284,66.0,0.0,60.0,10.0,0.0
15285,46.0,0.0,90.0,13.0,0.0
15286,78.0,0.0,60.0,8.0,0.0
15287,54.0,0.0,60.0,6.0,0.0
15288,66.0,0.0,60.0,10.0,0.0
15289,66.0,0.0,60.0,11.0,0.0
15290,66.0,0.0,60.0,11.0,0.0
15291,54.0,0.0,60.0,6.0,0.0
15292,78.0,60.0,60.0,8.0,0.0
15293,66.0,0.0,60.0,10.0,0.0
15294,66.0,0.0,60.0,10.0,0.0
15295,54.0,0.0,60.0,6.0,0.0
15296,78.0,60.0,60.0,8.0,0.0
15297,66.0,0.0,60.0,11.0,0.0
15298,66.0,0.0,60.0,10.0,0.0
15299,73.0,0.0,120.0,5.0,0.0
15300,61.0,0.0,120.0,5.0,0.0
15301,66.0,0.0,60.0,11.0,0.0
15302,54.0,48.0,60.0,6.0,0.0
15303,47.0,0.0,90.0,13.0,0.0
15304,83.0,0.0,90.0,1.0,0.0
15305,71.0,0.0,90.0,4.0,0.0
15306,78.0,0.0,60.0,8.0,0.0
15307,59.0,0.0,90.0,12.0,0.0
15308,83.0,12.0,90.0,2.0,0.0
15309,59.0,0.0,90.0,3.0,0.0
15310,95.0,0.0,90.0,0.0,0.0
15311,78.0,0.0,60.0,8.0,0.0
15312,66.0,60.0,60.0,10.0,0.0
15313,54.0,0.0,60.0,6.0,0.0
15314,66.0,0.0,60.0,11.0,0.0
15315,66.0,60.0,60.0,11.0,0.0
15316,66.0,0.0,60.0,10.0,0.0
15317,54.0,0.0,60.0,6.0,0.0
15318,78.0,0.0,60.0,8.0,0.0
15319,66.0,0.0,60.0,11.0,0.0
15320,78.0,0.0,60.0,8.0,0.0
15321,66.0,0.0,60.0,10.0,0.0
15322,54.0,60.0,60.0,6.0,0.0
15323,66.0,48.0,60.0,10.0,0.0
15324,56.0,12.0,90.0,3.0,0.0
15325,66.0,0.0,60.0,11.0,0.0
15326,80.0,0.0,90.0,1.0,0.0
15327,92.0,0.0,90.0,0.0,0.0
15328,78.0,0.0,60.0,8.0,0.0
15329,61.0,0.0,90.0,12.0,0.0
15330,54.0,0.0,60.0,6.0,0.0
15331,49.0,0.0,90.0,13.0,0.0
15332,80.0,0.0,90.0,2.0,0.0
15333,68.0,0.0,90.0,4.0,0.0
15334,61.0,0.0,120.0,5.0,0.0
15335,73.0,0.0,120.0,5.0,0.0
15336,66.0,0.0,60.0,10.0,0.0
15337,54.0,0.0,60.0,6.0,0.0
15338,78.0,0.0,60.0,8.0,0.0
15339,66.0,60.0,60.0,11.0,0.0
15340,54.0,0.0,60.0,6.0,0.0
15341,78.0,0.0,60.0,8.0,0.0
15342,66.0,0.0,60.0,10.0,0.0
15343,66.0,60.0,60.0,11.0,0.0
15344,78.0,0.0,60.0,8.0,0.0
15345,66.0,60.0,60.0,10.0,0.0
15346,54.0,0.0,60.0,6.0,0.0
15347,66.0,0.0,60.0,11.0,0.0
15348,97.0,0.0,90.0,0.0,0.0
15349,78.0,0.0,60.0,8.0,0.0
15350,85.0,12.0,90.0,2.0,0.0
15351,54.0,32.0,60.0,6.0,0.0
15352,61.0,0.0,90.0,3.0,0.0
15353,73.0,0.0,90.0,4.0,0.0
15354,66.0,0.0,60.0,10.0,0.0
15355,66.0,0.0,60.0,11.0,0.0
15356,61.0,16.0,90.0,12.0,0.0
15357,85.0,0.0,90.0,1.0,0.0
15358,61.0,0.0,120.0,5.0,0.0
15359,73.0,0.0,120.0,5.0,0.0
15360,49.0,0.0,90.0,13.0,0.0
15361,66.0,0.0,60.0,10.0,0.0
15362,66.0,0.0,60.0,11.0,0.0
15363,54.0,0.0,60.0,6.0,0.0
15364,78.0,52.0,60.0,8.0,0.0
15365,63.0,8.0,90.0,12.0,0.0
15366,51.0,0.0,90.0,13.0,0.0
15367,78.0,0.0,60.0,8.0,0.0
15368,66.0,0.0,60.0,11.0,0.0
15369,54.0,60.0,60.0,6.0,0.0
15370,66.0,0.0,60.0,10.0,0.0
15371,66.0,0.0,60.0,10.0,0.0
15372,54.0,0.0,60.0,6.0,0.0
15373,66.0,12.0,60.0,11.0,0.0
15374,78.0,0.0,60.0,8.0,0.0
15375,64.0,48.0,15.0,12.0,0.0
15376,52.0,0.0,15.0,13.0,0.0
15377,54.0,0.0,390.0,11.0,0.0
15378,54.0,60.0,60.0,6.0,0.0
15379,66.0,0.0,180.0,5.0,0.0
15380,78.0,36.0,180.0,5.0,0.0
15381,64.0,0.0,780.0,4.0,0.0
15382,78.0,24.0,390.0,8.0,0.0
15383,58.0,0.0,780.0,3.0,0.0
15384,82.0,0.0,780.0,1.0,0.0
15385,66.0,0.0,780.0,4.0,0.0
15386,54.0,0.0,780.0,4.0,0.0
15387,94.0,60.0,780.0,0.0,0.0
15388,70.0,0.0,780.0,2.0,0.0
15389,66.0,0.0,390.0,10.0,0.0
15390,54.0,60.0,60.0,6.0,0.0
15391,54.0,24.0,60.0,6.0,0.0
15392,54.0,60.0,60.0,6.0,0.0
15393,54.0,60.0,60.0,6.0,0.0
15394,54.0,36.0,60.0,6.0,0.0
15395,54.0,60.0,60.0,6.0,0.0
15396,54.0,60.0,60.0,6.0,0.0
15397,67.0,24.0,390.0,10.0,0.0
15398,55.0,0.0,390.0,11.0,0.0
15399,79.0,0.0,390.0,8.0,0.0
15400,54.0,60.0,60.0,6.0,0.0
15401,76.0,36.0,180.0,5.0,0.0
15402,54.0,60.0,60.0,6.0,0.0
15403,54.0,24.0,60.0,6.0,0.0
15404,54.0,60.0,60.0,6.0,0.0
15405,54.0,0.0,60.0,6.0,0.0
15406,54.0,36.0,60.0,6.0,0.0
15407,54.0,60.0,60.0,6.0,0.0
15408,54.0,60.0,60.0,6.0,0.0
15409,54.0,0.0,390.0,4.0,0.0
15410,70.0,0.0,60.0,10.0,0.0
15411,79.0,0.0,390.0,1.0,0.0
15412,76.0,36.0,180.0,5.0,0.0
15413,58.0,0.0,60.0,11.0,0.0
15414,52.0,0.0,390.0,13.0,0.0
15415,67.0,0.0,390.0,2.0,0.0
15416,91.0,0.0,390.0,0.0,0.0
15417,64.0,24.0,390.0,12.0,0.0
15418,64.0,0.0,390.0,4.0,0.0
15419,54.0,0.0,60.0,6.0,0.0
15420,82.0,60.0,60.0,8.0,0.0
15421,55.0,0.0,390.0,3.0,0.0
15422,66.0,0.0,390.0,4.0,0.0
15423,58.0,0.0,60.0,11.0,0.0
15424,54.0,60.0,60.0,6.0,0.0
15425,82.0,0.0,60.0,8.0,0.0
15426,70.0,0.0,60.0,10.0,0.0
15427,70.0,0.0,60.0,10.0,0.0
15428,58.0,0.0,60.0,11.0,0.0
15429,82.0,0.0,60.0,8.0,0.0
15430,54.0,24.0,60.0,6.0,0.0
15431,58.0,0.0,60.0,11.0,0.0
15432,54.0,60.0,60.0,6.0,0.0
15433,70.0,0.0,60.0,10.0,0.0
15434,82.0,0.0,60.0,8.0,0.0
15435,70.0,60.0,60.0,10.0,0.0
15436,58.0,0.0,60.0,11.0,0.0
15437,82.0,0.0,60.0,8.0,0.0
15438,54.0,0.0,60.0,6.0,0.0
15439,70.0,36.0,60.0,10.0,0.0
15440,58.0,0.0,60.0,11.0,0.0
15441,54.0,0.0,60.0,6.0,0.0
15442,82.0,0.0,60.0,8.0,0.0
15443,54.0,0.0,60.0,6.0,0.0
15444,82.0,0.0,60.0,8.0,0.0
15445,58.0,60.0,60.0,11.0,0.0
15446,70.0,0.0,60.0,10.0,0.0
15447,70.0,0.0,60.0,10.0,0.0
15448,58.0,0.0,60.0,11.0,0.0
15449,82.0,60.0,60.0,8.0,0.0
15450,54.0,0.0,60.0,6.0,0.0
15451,54.0,0.0,60.0,6.0,0.0
15452,70.0,0.0,60.0,10.0,0.0
15453,61.0,0.0,390.0,12.0,0.0
15454,70.0,0.0,390.0,2.0,0.0
15455,66.0,0.0,390.0,4.0,0.0
15456,54.0,0.0,390.0,4.0,0.0
15457,82.0,0.0,60.0,8.0,0.0
15458,78.0,0.0,180.0,5.0,0.0
15459,66.0,36.0,180.0,5.0,0.0
15460,49.0,0.0,390.0,13.0,0.0
15461,58.0,60.0,60.0,11.0,0.0
15462,64.0,0.0,390.0,4.0,0.0
15463,82.0,24.0,390.0,1.0,0.0
15464,94.0,0.0,390.0,0.0,0.0
15465,58.0,0.0,390.0,3.0,0.0
15466,70.0,0.0,60.0,10.0,0.0
15467,82.0,0.0,60.0,8.0,0.0
15468,58.0,0.0,60.0,11.0,0.0
15469,54.0,60.0,60.0,6.0,0.0
15470,54.0,0.0,60.0,6.0,0.0
15471,58.0,0.0,60.0,11.0,0.0
15472,82.0,24.0,60.0,8.0,0.0
15473,70.0,0.0,60.0,10.0,0.0
15474,82.0,0.0,60.0,8.0,0.0
15475,54.0,0.0,60.0,6.0,0.0
15476,70.0,0.0,60.0,10.0,0.0
15477,58.0,60.0,60.0,11.0,0.0
15478,70.0,60.0,60.0,10.0,0.0
15479,54.0,0.0,60.0,6.0,0.0
15480,82.0,0.0,60.0,8.0,0.0
15481,58.0,0.0,60.0,11.0,0.0
15482,82.0,0.0,60.0,8.0,0.0
15483,54.0,0.0,60.0,6.0,0.0
15484,70.0,0.0,60.0,10.0,0.0
15485,58.0,36.0,60.0,11.0,0.0
15486,54.0,0.0,60.0,6.0,0.0
15487,70.0,0.0,60.0,10.0,0.0
15488,82.0,0.0,60.0,8.0,0.0
15489,58.0,60.0,60.0,11.0,0.0
15490,82.0,60.0,60.0,8.0,0.0
15491,58.0,0.0,60.0,11.0,0.0
15492,70.0,0.0,60.0,10.0,0.0
15493,54.0,0.0,60.0,6.0,0.0
15494,62.0,60.0,300.0,11.0,0.0
15495,83.0,0.0,300.0,8.0,0.0
15496,59.0,0.0,780.0,12.0,0.0
15497,59.0,60.0,780.0,3.0,0.0
15498,95.0,0.0,780.0,0.0,0.0
15499,83.0,0.0,780.0,1.0,0.0
15500,62.0,0.0,300.0,10.0,0.0
15501,74.0,0.0,300.0,10.0,0.0
15502,66.0,0.0,300.0,10.0,0.0
15503,71.0,0.0,780.0,4.0,0.0
15504,78.0,36.0,180.0,5.0,0.0
15505,66.0,0.0,180.0,5.0,0.0
15506,47.0,0.0,780.0,13.0,0.0
15507,54.0,0.0,390.0,4.0,0.0
15508,54.0,60.0,60.0,6.0,0.0
15509,66.0,24.0,390.0,4.0,0.0
15510,71.0,0.0,780.0,2.0,0.0
15511,54.0,60.0,60.0,6.0,0.0
15512,54.0,24.0,60.0,6.0,0.0
15513,54.0,60.0,60.0,6.0,0.0
15514,54.0,0.0,60.0,6.0,0.0
15515,54.0,36.0,60.0,6.0,0.0
15516,54.0,60.0,60.0,6.0,0.0
15517,54.0,60.0,60.0,6.0,0.0
15518,64.0,0.0,300.0,11.0,0.0
15519,64.0,24.0,390.0,4.0,0.0
15520,85.0,0.0,300.0,8.0,0.0
15521,54.0,60.0,60.0,6.0,0.0
15522,52.0,0.0,300.0,11.0,0.0
15523,70.0,0.0,300.0,10.0,0.0
15524,79.0,0.0,300.0,10.0,0.0
15525,73.0,36.0,180.0,5.0,0.0
15526,54.0,60.0,60.0,6.0,0.0
15527,54.0,24.0,60.0,6.0,0.0
15528,54.0,60.0,60.0,6.0,0.0
15529,54.0,0.0,60.0,6.0,0.0
15530,54.0,36.0,60.0,6.0,0.0
15531,54.0,60.0,60.0,6.0,0.0
15532,54.0,60.0,60.0,6.0,0.0
15533,50.0,0.0,390.0,4.0,0.0
15534,71.0,24.0,390.0,2.0,0.0
15535,62.0,0.0,60.0,11.0,0.0
15536,86.0,0.0,60.0,8.0,0.0
15537,83.0,0.0,390.0,1.0,0.0
15538,62.0,0.0,390.0,4.0,0.0
15539,71.0,0.0,390.0,4.0,0.0
15540,54.0,60.0,60.0,6.0,0.0
15541,71.0,0.0,60.0,10.0,0.0
15542,35.0,0.0,60.0,13.0,0.0
15543,83.0,18.0,1410.0,5.0,0.0
15544,47.0,0.0,60.0,12.0,0.0
15545,78.0,0.0,60.0,10.0,0.0
15546,95.0,0.0,390.0,0.0,0.0
15547,59.0,0.0,390.0,3.0,0.0
15548,62.0,0.0,60.0,11.0,0.0
15549,71.0,0.0,60.0,10.0,0.0
15550,78.0,0.0,60.0,10.0,0.0
15551,86.0,0.0,60.0,8.0,0.0
15552,47.0,0.0,60.0,12.0,0.0
15553,35.0,0.0,60.0,13.0,0.0
15554,54.0,60.0,60.0,6.0,0.0
15555,54.0,0.0,60.0,6.0,0.0
15556,71.0,0.0,60.0,10.0,0.0
15557,62.0,60.0,60.0,11.0,0.0
15558,47.0,0.0,60.0,12.0,0.0
15559,78.0,0.0,60.0,10.0,0.0
15560,35.0,0.0,60.0,13.0,0.0
15561,86.0,0.0,60.0,8.0,0.0
15562,71.0,0.0,60.0,10.0,0.0
15563,86.0,0.0,60.0,8.0,0.0
15564,62.0,0.0,60.0,11.0,0.0
15565,78.0,0.0,60.0,10.0,0.0
15566,47.0,0.0,60.0,12.0,0.0
15567,35.0,0.0,60.0,13.0,0.0
15568,54.0,60.0,60.0,6.0,0.0
15569,54.0,0.0,60.0,6.0,0.0
15570,55.0,60.0,60.0,12.0,0.0
15571,55.0,0.0,60.0,11.0,0.0
15572,83.0,0.0,60.0,10.0,0.0
15573,59.0,0.0,60.0,11.0,0.0
15574,86.0,0.0,60.0,8.0,0.0
15575,43.0,0.0,60.0,13.0,0.0
15576,43.0,0.0,60.0,13.0,0.0
15577,54.0,0.0,60.0,6.0,0.0
15578,83.0,0.0,60.0,10.0,0.0
15579,86.0,36.0,60.0,8.0,0.0
15580,55.0,0.0,60.0,11.0,0.0
15581,55.0,0.0,60.0,12.0,0.0
15582,59.0,0.0,60.0,11.0,0.0
15583,43.0,0.0,60.0,13.0,0.0
15584,86.0,0.0,60.0,8.0,0.0
15585,55.0,0.0,60.0,12.0,0.0
15586,54.0,0.0,60.0,6.0,0.0
15587,59.0,60.0,60.0,11.0,0.0
15588,83.0,0.0,60.0,10.0,0.0
15589,55.0,0.0,60.0,11.0,0.0
15590,83.0,0.0,60.0,10.0,0.0
15591,55.0,0.0,60.0,12.0,0.0
15592,59.0,0.0,60.0,11.0,0.0
15593,55.0,60.0,60.0,11.0,0.0
15594,43.0,0.0,60.0,13.0,0.0
15595,86.0,0.0,60.0,8.0,0.0
15596,54.0,0.0,60.0,6.0,0.0
15597,83.0,0.0,390.0,1.0,0.0
15598,59.0,0.0,60.0,11.0,0.0
15599,71.0,0.0,390.0,2.0,0.0
15600,55.0,0.0,60.0,12.0,0.0
15601,55.0,0.0,60.0,11.0,0.0
15602,86.0,0.0,60.0,8.0,0.0
15603,43.0,60.0,60.0,13.0,0.0
15604,59.0,24.0,390.0,3.0,0.0
15605,95.0,0.0,390.0,0.0,0.0
15606,71.0,0.0,390.0,4.0,0.0
15607,50.0,0.0,390.0,4.0,0.0
15608,62.0,0.0,390.0,4.0,0.0
15609,54.0,0.0,60.0,6.0,0.0
15610,83.0,0.0,60.0,10.0,0.0
15611,83.0,0.0,60.0,10.0,0.0
15612,55.0,0.0,60.0,12.0,0.0
15613,43.0,60.0,60.0,13.0,0.0
15614,54.0,0.0,60.0,6.0,0.0
15615,55.0,0.0,60.0,11.0,0.0
15616,59.0,0.0,60.0,11.0,0.0
15617,86.0,0.0,60.0,8.0,0.0
15618,59.0,0.0,60.0,11.0,0.0
15619,55.0,0.0,60.0,11.0,0.0
15620,55.0,0.0,60.0,12.0,0.0
15621,86.0,0.0,60.0,8.0,0.0
15622,54.0,0.0,60.0,6.0,0.0
15623,43.0,60.0,60.0,13.0,0.0
15624,83.0,0.0,60.0,10.0,0.0
15625,43.0,0.0,60.0,13.0,0.0
15626,83.0,0.0,60.0,10.0,0.0
15627,86.0,0.0,60.0,8.0,0.0
15628,55.0,0.0,60.0,12.0,0.0
15629,55.0,0.0,60.0,11.0,0.0
15630,54.0,60.0,60.0,6.0,0.0
15631,59.0,0.0,60.0,11.0,0.0
15632,55.0,60.0,60.0,13.0,0.0
15633,67.0,0.0,60.0,12.0,0.0
15634,55.0,0.0,60.0,11.0,0.0
15635,59.0,0.0,60.0,11.0,0.0
15636,54.0,0.0,60.0,6.0,0.0
15637,86.0,0.0,60.0,8.0,0.0
15638,83.0,0.0,60.0,10.0,0.0
15639,55.0,0.0,60.0,13.0,0.0
15640,86.0,0.0,60.0,8.0,0.0
15641,67.0,0.0,60.0,12.0,0.0
15642,83.0,0.0,60.0,10.0,0.0
15643,55.0,0.0,60.0,11.0,0.0
15644,59.0,36.0,60.0,11.0,0.0
15645,54.0,0.0,60.0,6.0,0.0
15646,55.0,0.0,60.0,13.0,0.0
15647,55.0,0.0,60.0,11.0,0.0
15648,59.0,0.0,60.0,11.0,0.0
15649,86.0,0.0,60.0,8.0,0.0
15650,67.0,0.0,60.0,12.0,0.0
15651,83.0,60.0,60.0,10.0,0.0
15652,54.0,0.0,60.0,6.0,0.0
15653,86.0,0.0,60.0,8.0,0.0
15654,83.0,0.0,60.0,10.0,0.0
15655,67.0,60.0,60.0,12.0,0.0
15656,55.0,0.0,60.0,13.0,0.0
15657,54.0,0.0,60.0,6.0,0.0
15658,55.0,0.0,60.0,11.0,0.0
15659,59.0,0.0,60.0,11.0,0.0
15660,83.0,0.0,1860.0,2.0,0.0
15661,71.0,0.0,1860.0,2.0,0.0
15662,53.0,60.0,60.0,12.0,0.0
15663,71.0,0.0,1860.0,4.0,0.0
15664,74.0,0.0,570.0,11.0,0.0
15665,95.0,0.0,1860.0,0.0,0.0
15666,74.0,0.0,570.0,10.0,0.0
15667,54.0,0.0,60.0,6.0,0.0
15668,50.0,0.0,570.0,4.0,0.0
15669,62.0,0.0,570.0,4.0,0.0
15670,59.0,0.0,1860.0,3.0,0.0
15671,71.0,0.0,1860.0,3.0,0.0
15672,83.0,36.0,1860.0,0.0,0.0
15673,41.0,0.0,60.0,13.0,0.0
15674,86.0,12.0,570.0,8.0,0.0
15675,83.0,0.0,1860.0,1.0,0.0
15676,71.0,0.0,1860.0,1.0,0.0
15677,54.0,0.0,60.0,6.0,0.0
15678,41.0,60.0,60.0,13.0,0.0
15679,53.0,0.0,60.0,12.0,0.0
15680,53.0,0.0,60.0,12.0,0.0
15681,41.0,0.0,60.0,13.0,0.0
15682,54.0,60.0,60.0,6.0,0.0
15683,53.0,0.0,60.0,12.0,0.0
15684,41.0,0.0,60.0,13.0,0.0
15685,54.0,60.0,60.0,6.0,0.0
15686,42.0,0.0,60.0,13.0,0.0
15687,54.0,60.0,60.0,12.0,0.0
15688,54.0,0.0,60.0,6.0,0.0
15689,54.0,0.0,60.0,12.0,0.0
15690,54.0,0.0,60.0,6.0,0.0
15691,42.0,60.0,60.0,13.0,0.0
15692,54.0,42.0,60.0,6.0,0.0
15693,54.0,0.0,60.0,12.0,0.0
15694,42.0,0.0,60.0,13.0,0.0
15695,54.0,0.0,60.0,6.0,0.0
15696,54.0,60.0,60.0,12.0,0.0
15697,42.0,0.0,60.0,13.0,0.0
15698,42.0,48.0,60.0,13.0,0.0
15699,54.0,0.0,60.0,12.0,0.0
15700,54.0,0.0,60.0,6.0,0.0
15701,54.0,0.0,60.0,12.0,0.0
15702,42.0,60.0,60.0,13.0,0.0
15703,54.0,0.0,60.0,6.0,0.0
15704,54.0,60.0,60.0,12.0,0.0
15705,42.0,0.0,60.0,13.0,0.0
15706,54.0,0.0,60.0,6.0,0.0
15707,54.0,0.0,60.0,6.0,0.0
15708,42.0,0.0,60.0,13.0,0.0
15709,54.0,60.0,60.0,12.0,0.0
15710,73.0,0.0,120.0,10.0,0.0
15711,73.0,0.0,120.0,11.0,0.0
15712,83.0,24.0,120.0,5.0,0.0
15713,85.0,0.0,120.0,8.0,0.0
15714,66.0,24.0,150.0,4.0,0.0
15715,54.0,0.0,150.0,4.0,0.0
15716,54.0,60.0,60.0,6.0,0.0
15717,42.0,0.0,60.0,13.0,0.0
15718,54.0,0.0,60.0,12.0,0.0
15719,54.0,0.0,60.0,12.0,0.0
15720,54.0,12.0,60.0,6.0,0.0
15721,42.0,0.0,60.0,13.0,0.0
15722,54.0,0.0,60.0,12.0,0.0
15723,54.0,60.0,60.0,6.0,0.0
15724,42.0,0.0,60.0,13.0,0.0
15725,42.0,0.0,60.0,13.0,0.0
15726,54.0,60.0,60.0,12.0,0.0
15727,54.0,0.0,60.0,6.0,0.0
15728,54.0,0.0,150.0,4.0,0.0
15729,71.0,0.0,120.0,11.0,0.0
15730,83.0,0.0,120.0,5.0,0.0
15731,54.0,0.0,60.0,6.0,0.0
15732,54.0,60.0,60.0,12.0,0.0
15733,83.0,24.0,120.0,8.0,0.0
15734,42.0,0.0,60.0,13.0,0.0
15735,71.0,0.0,120.0,10.0,0.0
15736,66.0,24.0,150.0,4.0,0.0
15737,54.0,12.0,60.0,12.0,0.0
15738,42.0,0.0,60.0,13.0,0.0
15739,54.0,0.0,60.0,6.0,0.0
15740,42.0,0.0,60.0,13.0,0.0
15741,54.0,60.0,60.0,12.0,0.0
15742,54.0,0.0,60.0,6.0,0.0
15743,54.0,60.0,60.0,12.0,0.0
15744,42.0,0.0,60.0,13.0,0.0
15745,54.0,0.0,60.0,6.0,0.0
15746,54.0,0.0,60.0,12.0,0.0
15747,81.0,0.0,120.0,8.0,0.0
15748,66.0,24.0,150.0,4.0,0.0
15749,54.0,0.0,150.0,4.0,0.0
15750,69.0,0.0,120.0,11.0,0.0
15751,83.0,0.0,120.0,5.0,0.0
15752,54.0,60.0,60.0,6.0,0.0
15753,42.0,0.0,60.0,13.0,0.0
15754,69.0,24.0,120.0,10.0,0.0
15755,42.0,0.0,60.0,13.0,0.0
15756,54.0,12.0,60.0,12.0,0.0
15757,54.0,0.0,60.0,6.0,0.0
15758,54.0,60.0,60.0,6.0,0.0
15759,42.0,0.0,60.0,13.0,0.0
15760,54.0,0.0,60.0,12.0,0.0
15761,54.0,0.0,60.0,6.0,0.0
15762,42.0,60.0,60.0,13.0,0.0
15763,54.0,0.0,60.0,12.0,0.0
15764,54.0,0.0,60.0,12.0,0.0
15765,66.0,24.0,150.0,4.0,0.0
15766,42.0,60.0,60.0,13.0,0.0
15767,54.0,0.0,150.0,4.0,0.0
15768,67.0,0.0,120.0,11.0,0.0
15769,79.0,0.0,120.0,8.0,0.0
15770,54.0,0.0,60.0,6.0,0.0
15771,67.0,0.0,120.0,10.0,0.0
15772,83.0,24.0,120.0,5.0,0.0
15773,42.0,0.0,60.0,13.0,0.0
15774,54.0,0.0,60.0,6.0,0.0
15775,54.0,12.0,60.0,12.0,0.0
15776,42.0,0.0,60.0,13.0,0.0
15777,54.0,0.0,60.0,12.0,0.0
15778,54.0,60.0,60.0,6.0,0.0
15779,54.0,0.0,60.0,12.0,0.0
15780,42.0,0.0,60.0,13.0,0.0
15781,54.0,60.0,60.0,6.0,0.0
15782,54.0,0.0,60.0,12.0,0.0
15783,54.0,60.0,60.0,6.0,0.0
15784,66.0,0.0,150.0,4.0,0.0
15785,54.0,24.0,150.0,4.0,0.0
15786,66.0,0.0,120.0,10.0,0.0
15787,83.0,0.0,120.0,5.0,0.0
15788,78.0,24.0,120.0,8.0,0.0
15789,42.0,0.0,60.0,13.0,0.0
15790,66.0,0.0,120.0,11.0,0.0
15791,42.0,0.0,60.0,13.0,0.0
15792,54.0,0.0,60.0,6.0,0.0
15793,54.0,12.0,60.0,12.0,0.0
15794,42.0,0.0,60.0,13.0,0.0
15795,54.0,24.0,60.0,6.0,0.0
15796,54.0,0.0,60.0,12.0,0.0
15797,54.0,0.0,60.0,12.0,0.0
15798,54.0,60.0,60.0,6.0,0.0
15799,42.0,0.0,60.0,13.0,0.0
15800,65.0,0.0,390.0,10.0,0.0
15801,73.0,0.0,570.0,2.0,0.0
15802,73.0,0.0,570.0,1.0,0.0
15803,65.0,24.0,390.0,11.0,0.0
15804,80.0,36.0,180.0,5.0,0.0
15805,54.0,60.0,60.0,6.0,0.0
15806,66.0,0.0,150.0,4.0,0.0
15807,61.0,0.0,570.0,3.0,0.0
15808,54.0,24.0,150.0,4.0,0.0
15809,97.0,0.0,570.0,0.0,0.0
15810,42.0,0.0,60.0,13.0,0.0
15811,77.0,0.0,390.0,8.0,0.0
15812,85.0,0.0,570.0,0.0,0.0
15813,54.0,0.0,60.0,12.0,0.0
15814,42.0,0.0,60.0,13.0,0.0
15815,54.0,0.0,60.0,6.0,0.0
15816,54.0,36.0,60.0,12.0,0.0
15817,54.0,0.0,60.0,6.0,0.0
15818,42.0,0.0,60.0,13.0,0.0
15819,54.0,24.0,60.0,12.0,0.0
15820,42.0,0.0,60.0,13.0,0.0
15821,54.0,60.0,60.0,6.0,0.0
15822,54.0,0.0,60.0,12.0,0.0
15823,54.0,0.0,60.0,6.0,0.0
15824,65.0,0.0,60.0,12.0,0.0
15825,42.0,60.0,60.0,13.0,0.0
15826,54.0,0.0,60.0,6.0,0.0
15827,65.0,0.0,60.0,12.0,0.0
15828,42.0,36.0,60.0,13.0,0.0
15829,42.0,60.0,60.0,13.0,0.0
15830,54.0,0.0,60.0,6.0,0.0
15831,65.0,0.0,60.0,12.0,0.0
15832,42.0,0.0,60.0,13.0,0.0
15833,65.0,60.0,60.0,12.0,0.0
15834,54.0,0.0,60.0,6.0,0.0
15835,54.0,48.0,60.0,6.0,0.0
15836,64.0,0.0,390.0,11.0,0.0
15837,82.0,0.0,180.0,5.0,0.0
15838,70.0,36.0,180.0,5.0,0.0
15839,76.0,24.0,390.0,8.0,0.0
15840,66.0,0.0,60.0,12.0,0.0
15841,64.0,0.0,390.0,10.0,0.0
15842,42.0,0.0,60.0,13.0,0.0
15843,42.0,60.0,60.0,13.0,0.0
15844,66.0,0.0,60.0,12.0,0.0
15845,54.0,0.0,60.0,6.0,0.0
15846,54.0,0.0,60.0,6.0,0.0
15847,42.0,0.0,60.0,13.0,0.0
15848,66.0,24.0,60.0,12.0,0.0
15849,42.0,0.0,60.0,13.0,0.0
15850,54.0,0.0,60.0,6.0,0.0
15851,66.0,60.0,60.0,12.0,0.0
15852,54.0,60.0,60.0,6.0,0.0
15853,71.0,0.0,120.0,1.0,0.0
15854,83.0,0.0,120.0,0.0,0.0
15855,95.0,0.0,120.0,0.0,0.0
15856,71.0,24.0,120.0,2.0,0.0
15857,42.0,0.0,60.0,13.0,0.0
15858,68.0,0.0,60.0,12.0,0.0
15859,66.0,0.0,150.0,4.0,0.0
15860,59.0,0.0,120.0,3.0,0.0
15861,54.0,0.0,150.0,4.0,0.0
15862,42.0,0.0,60.0,13.0,0.0
15863,54.0,12.0,60.0,6.0,0.0
15864,68.0,0.0,60.0,12.0,0.0
15865,54.0,0.0,60.0,6.0,0.0
15866,68.0,0.0,60.0,12.0,0.0
15867,42.0,60.0,60.0,13.0,0.0
15868,54.0,60.0,60.0,6.0,0.0
15869,68.0,0.0,60.0,12.0,0.0
15870,42.0,0.0,60.0,13.0,0.0
15871,42.0,60.0,60.0,13.0,0.0
15872,54.0,0.0,60.0,6.0,0.0
15873,66.0,24.0,150.0,4.0,0.0
15874,54.0,0.0,150.0,4.0,0.0
15875,58.0,24.0,120.0,3.0,0.0
15876,70.0,0.0,120.0,1.0,0.0
15877,82.0,0.0,120.0,0.0,0.0
15878,70.0,0.0,60.0,12.0,0.0
15879,70.0,0.0,120.0,2.0,0.0
15880,94.0,0.0,120.0,0.0,0.0
15881,70.0,0.0,60.0,12.0,0.0
15882,54.0,12.0,60.0,6.0,0.0
15883,42.0,0.0,60.0,13.0,0.0
15884,70.0,0.0,60.0,12.0,0.0
15885,42.0,60.0,60.0,13.0,0.0
15886,54.0,0.0,60.0,6.0,0.0
15887,42.0,60.0,60.0,13.0,0.0
15888,54.0,0.0,60.0,6.0,0.0
15889,70.0,0.0,60.0,12.0,0.0
15890,54.0,60.0,60.0,6.0,0.0
15891,54.0,24.0,150.0,4.0,0.0
15892,66.0,0.0,150.0,4.0,0.0
15893,79.0,0.0,120.0,0.0,0.0
15894,67.0,24.0,120.0,2.0,0.0
15895,42.0,0.0,60.0,13.0,0.0
15896,71.0,0.0,60.0,12.0,0.0
15897,55.0,0.0,120.0,3.0,0.0
15898,67.0,0.0,120.0,1.0,0.0
15899,91.0,0.0,120.0,0.0,0.0
15900,71.0,12.0,60.0,12.0,0.0
15901,42.0,0.0,60.0,13.0,0.0
15902,54.0,0.0,60.0,6.0,0.0
15903,42.0,0.0,60.0,13.0,0.0
15904,54.0,0.0,60.0,6.0,0.0
15905,71.0,60.0,60.0,12.0,0.0
15906,71.0,0.0,60.0,12.0,0.0
15907,42.0,0.0,60.0,13.0,0.0
15908,54.0,60.0,60.0,6.0,0.0
15909,66.0,0.0,120.0,1.0,0.0
15910,54.0,24.0,150.0,4.0,0.0
15911,78.0,0.0,120.0,0.0,0.0
15912,66.0,0.0,150.0,4.0,0.0
15913,90.0,0.0,120.0,0.0,0.0
15914,66.0,24.0,120.0,2.0,0.0
15915,54.0,0.0,120.0,3.0,0.0
15916,42.0,0.0,60.0,13.0,0.0
15917,54.0,60.0,60.0,6.0,0.0
15918,73.0,0.0,60.0,12.0,0.0
15919,73.0,0.0,60.0,12.0,0.0
15920,54.0,0.0,60.0,6.0,0.0
15921,42.0,12.0,60.0,13.0,0.0
15922,42.0,0.0,60.0,13.0,0.0
15923,73.0,0.0,60.0,12.0,0.0
15924,54.0,60.0,60.0,6.0,0.0
15925,73.0,0.0,60.0,12.0,0.0
15926,42.0,60.0,60.0,13.0,0.0
15927,54.0,0.0,60.0,6.0,0.0
15928,74.0,22.0,60.0,12.0,0.0
15929,54.0,16.0,150.0,4.0,0.0
15930,66.0,0.0,150.0,4.0,0.0
15931,64.0,0.0,120.0,2.0,0.0
15932,88.0,24.0,120.0,0.0,0.0
15933,76.0,0.0,120.0,0.0,0.0
15934,52.0,0.0,120.0,3.0,0.0
15935,54.0,0.0,60.0,6.0,0.0
15936,64.0,0.0,120.0,1.0,0.0
15937,66.0,0.0,90.0,10.0,0.0
15938,78.0,0.0,90.0,8.0,0.0
15939,66.0,28.0,90.0,11.0,0.0
15940,42.0,10.0,60.0,13.0,0.0
15941,74.0,2.0,60.0,12.0,0.0
15942,42.0,0.0,60.0,13.0,0.0
15943,54.0,10.0,60.0,6.0,0.0
15944,68.0,0.0,90.0,10.0,0.0
15945,68.0,0.0,90.0,11.0,0.0
15946,80.0,8.0,90.0,8.0,0.0
15947,42.0,10.0,60.0,13.0,0.0
15948,54.0,0.0,60.0,6.0,0.0
15949,74.0,50.0,60.0,12.0,0.0
15950,70.0,0.0,90.0,10.0,0.0
15951,70.0,48.0,90.0,11.0,0.0
15952,82.0,0.0,90.0,8.0,0.0
15953,74.0,2.0,60.0,12.0,0.0
15954,54.0,10.0,60.0,6.0,0.0
15955,42.0,0.0,60.0,13.0,0.0
15956,54.0,0.0,150.0,4.0,0.0
15957,83.0,0.0,570.0,8.0,0.0
15958,54.0,0.0,60.0,12.0,0.0
15959,71.0,12.0,570.0,10.0,0.0
15960,66.0,24.0,150.0,4.0,0.0
15961,83.0,18.0,450.0,5.0,0.0
15962,42.0,60.0,60.0,13.0,0.0
15963,63.0,0.0,390.0,2.0,0.0
15964,54.0,0.0,60.0,6.0,0.0
15965,71.0,0.0,570.0,11.0,0.0
15966,87.0,24.0,390.0,0.0,0.0
15967,75.0,0.0,390.0,0.0,0.0
15968,51.0,0.0,390.0,3.0,0.0
15969,63.0,0.0,390.0,1.0,0.0
15970,54.0,0.0,60.0,12.0,0.0
15971,54.0,0.0,60.0,6.0,0.0
15972,42.0,36.0,60.0,13.0,0.0
15973,54.0,0.0,60.0,6.0,0.0
15974,54.0,0.0,60.0,12.0,0.0
15975,42.0,60.0,60.0,13.0,0.0
15976,54.0,0.0,60.0,6.0,0.0
15977,54.0,0.0,60.0,12.0,0.0
15978,42.0,60.0,60.0,13.0,0.0
15979,54.0,60.0,60.0,6.0,0.0
15980,42.0,0.0,60.0,13.0,0.0
15981,63.0,0.0,60.0,12.0,0.0
15982,42.0,36.0,60.0,13.0,0.0
15983,54.0,0.0,60.0,6.0,0.0
15984,63.0,0.0,60.0,12.0,0.0
15985,63.0,0.0,60.0,12.0,0.0
15986,54.0,0.0,60.0,6.0,0.0
15987,42.0,42.0,60.0,13.0,0.0
15988,42.0,60.0,60.0,13.0,0.0
15989,54.0,0.0,60.0,6.0,0.0
15990,63.0,0.0,60.0,12.0,0.0
15991,42.0,0.0,60.0,13.0,0.0
15992,50.0,0.0,390.0,3.0,0.0
15993,62.0,0.0,390.0,2.0,0.0
15994,54.0,48.0,60.0,6.0,0.0
15995,74.0,24.0,390.0,0.0,0.0
15996,86.0,0.0,390.0,0.0,0.0
15997,62.0,0.0,390.0,1.0,0.0
15998,65.0,0.0,60.0,12.0,0.0
15999,54.0,60.0,60.0,6.0,0.0
16000,42.0,0.0,60.0,13.0,0.0
16001,65.0,0.0,60.0,12.0,0.0
16002,65.0,0.0,60.0,12.0,0.0
16003,42.0,0.0,60.0,13.0,0.0
16004,54.0,60.0,60.0,6.0,0.0
16005,65.0,0.0,60.0,12.0,0.0
16006,42.0,0.0,60.0,13.0,0.0
16007,54.0,60.0,60.0,6.0,0.0
16008,54.0,0.0,60.0,6.0,0.0
16009,69.0,0.0,120.0,10.0,0.0
16010,54.0,0.0,150.0,4.0,0.0
16011,42.0,0.0,60.0,13.0,0.0
16012,83.0,24.0,120.0,5.0,0.0
16013,81.0,0.0,120.0,8.0,0.0
16014,69.0,0.0,120.0,11.0,0.0
16015,66.0,60.0,60.0,12.0,0.0
16016,66.0,0.0,150.0,4.0,0.0
16017,42.0,12.0,60.0,13.0,0.0
16018,54.0,0.0,60.0,6.0,0.0
16019,66.0,0.0,60.0,12.0,0.0
16020,42.0,60.0,60.0,13.0,0.0
16021,66.0,0.0,60.0,12.0,0.0
16022,54.0,0.0,60.0,6.0,0.0
16023,42.0,0.0,60.0,13.0,0.0
16024,66.0,60.0,60.0,12.0,0.0
16025,54.0,0.0,60.0,6.0,0.0
16026,54.0,0.0,60.0,6.0,0.0
16027,80.0,24.0,120.0,8.0,0.0
16028,83.0,0.0,120.0,5.0,0.0
16029,54.0,24.0,150.0,4.0,0.0
16030,66.0,0.0,150.0,4.0,0.0
16031,68.0,0.0,120.0,10.0,0.0
16032,68.0,0.0,120.0,11.0,0.0
16033,42.0,60.0,60.0,13.0,0.0
16034,68.0,0.0,60.0,12.0,0.0
16035,68.0,0.0,60.0,12.0,0.0
16036,54.0,12.0,60.0,6.0,0.0
16037,42.0,0.0,60.0,13.0,0.0
16038,54.0,0.0,60.0,6.0,0.0
16039,42.0,0.0,60.0,13.0,0.0
16040,68.0,60.0,60.0,12.0,0.0
16041,54.0,0.0,60.0,6.0,0.0
16042,42.0,60.0,60.0,13.0,0.0
16043,68.0,0.0,60.0,12.0,0.0
16044,54.0,0.0,150.0,4.0,0.0
16045,78.0,24.0,120.0,8.0,0.0
16046,66.0,0.0,120.0,10.0,0.0
16047,83.0,0.0,120.0,5.0,0.0
16048,42.0,0.0,60.0,13.0,0.0
16049,66.0,0.0,120.0,11.0,0.0
16050,66.0,24.0,150.0,4.0,0.0
16051,69.0,0.0,60.0,12.0,0.0
16052,54.0,60.0,60.0,6.0,0.0
16053,69.0,0.0,60.0,12.0,0.0
16054,42.0,0.0,60.0,13.0,0.0
16055,54.0,12.0,60.0,6.0,0.0
16056,54.0,0.0,60.0,6.0,0.0
16057,69.0,60.0,60.0,12.0,0.0
16058,42.0,0.0,60.0,13.0,0.0
16059,69.0,0.0,60.0,12.0,0.0
16060,54.0,60.0,60.0,6.0,0.0
16061,42.0,0.0,60.0,13.0,0.0
16062,42.0,0.0,60.0,13.0,0.0
16063,83.0,0.0,120.0,5.0,0.0
16064,65.0,24.0,120.0,10.0,0.0
16065,71.0,60.0,60.0,12.0,0.0
16066,77.0,0.0,120.0,8.0,0.0
16067,54.0,0.0,60.0,6.0,0.0
16068,65.0,0.0,120.0,11.0,0.0
16069,66.0,24.0,150.0,4.0,0.0
16070,54.0,0.0,150.0,4.0,0.0
16071,54.0,0.0,60.0,6.0,0.0
16072,42.0,12.0,60.0,13.0,0.0
16073,71.0,0.0,60.0,12.0,0.0
16074,42.0,0.0,60.0,13.0,0.0
16075,54.0,60.0,60.0,6.0,0.0
16076,71.0,0.0,60.0,12.0,0.0
16077,54.0,0.0,60.0,6.0,0.0
16078,71.0,0.0,60.0,12.0,0.0
16079,42.0,60.0,60.0,13.0,0.0
16080,42.0,10.0,60.0,13.0,0.0
16081,66.0,0.0,150.0,4.0,0.0
16082,54.0,16.0,150.0,4.0,0.0
16083,54.0,0.0,60.0,6.0,0.0
16084,77.0,0.0,90.0,0.0,0.0
16085,89.0,0.0,90.0,0.0,0.0
16086,65.0,0.0,90.0,2.0,0.0
16087,71.0,22.0,60.0,12.0,0.0
16088,65.0,0.0,90.0,1.0,0.0
16089,83.0,0.0,120.0,5.0,0.0
16090,74.0,24.0,120.0,8.0,0.0
16091,62.0,0.0,120.0,10.0,0.0
16092,53.0,28.0,90.0,3.0,0.0
16093,62.0,0.0,120.0,11.0,0.0
16094,54.0,10.0,60.0,6.0,0.0
16095,42.0,0.0,60.0,13.0,0.0
16096,71.0,2.0,60.0,12.0,0.0
16097,66.0,0.0,90.0,2.0,0.0
16098,66.0,0.0,90.0,1.0,0.0
16099,78.0,0.0,90.0,0.0,0.0
16100,90.0,8.0,90.0,0.0,0.0
16101,54.0,0.0,90.0,3.0,0.0
16102,42.0,10.0,60.0,13.0,0.0
16103,54.0,0.0,60.0,6.0,0.0
16104,71.0,50.0,60.0,12.0,0.0
16105,80.0,48.0,90.0,0.0,0.0
16106,68.0,0.0,90.0,2.0,0.0
16107,56.0,0.0,90.0,3.0,0.0
16108,68.0,0.0,90.0,1.0,0.0
16109,92.0,0.0,90.0,0.0,0.0
16110,71.0,2.0,60.0,12.0,0.0
16111,42.0,0.0,60.0,13.0,0.0
16112,54.0,10.0,60.0,6.0,0.0
16113,61.0,0.0,390.0,10.0,0.0
16114,57.0,0.0,570.0,3.0,0.0
16115,73.0,24.0,390.0,8.0,0.0
16116,54.0,0.0,60.0,12.0,0.0
16117,54.0,0.0,60.0,6.0,0.0
16118,42.0,60.0,60.0,13.0,0.0
16119,54.0,0.0,150.0,4.0,0.0
16120,69.0,0.0,570.0,1.0,0.0
16121,66.0,18.0,450.0,5.0,0.0
16122,69.0,0.0,570.0,2.0,0.0
16123,78.0,0.0,450.0,5.0,0.0
16124,61.0,0.0,390.0,11.0,0.0
16125,93.0,0.0,570.0,0.0,0.0
16126,66.0,24.0,150.0,4.0,0.0
16127,81.0,0.0,570.0,0.0,0.0
16128,54.0,36.0,60.0,12.0,0.0
16129,42.0,0.0,60.0,13.0,0.0
16130,54.0,0.0,60.0,6.0,0.0
16131,54.0,0.0,60.0,12.0,0.0
16132,54.0,0.0,60.0,6.0,0.0
16133,42.0,60.0,60.0,13.0,0.0
16134,54.0,60.0,60.0,6.0,0.0
16135,42.0,0.0,60.0,13.0,0.0
16136,54.0,0.0,60.0,12.0,0.0
16137,61.0,0.0,60.0,12.0,0.0
16138,54.0,60.0,60.0,6.0,0.0
16139,42.0,0.0,60.0,13.0,0.0
16140,54.0,36.0,60.0,6.0,0.0
16141,42.0,0.0,60.0,13.0,0.0
16142,61.0,0.0,60.0,12.0,0.0
16143,42.0,0.0,60.0,13.0,0.0
16144,61.0,0.0,60.0,12.0,0.0
16145,54.0,42.0,60.0,6.0,0.0
16146,42.0,0.0,60.0,13.0,0.0
16147,61.0,60.0,60.0,12.0,0.0
16148,54.0,0.0,60.0,6.0,0.0
16149,63.0,0.0,60.0,12.0,0.0
16150,54.0,0.0,60.0,6.0,0.0
16151,72.0,24.0,390.0,8.0,0.0
16152,42.0,48.0,60.0,13.0,0.0
16153,60.0,0.0,390.0,10.0,0.0
16154,60.0,0.0,390.0,11.0,0.0
16155,54.0,60.0,60.0,6.0,0.0
16156,42.0,0.0,60.0,13.0,0.0
16157,63.0,0.0,60.0,12.0,0.0
16158,63.0,60.0,60.0,12.0,0.0
16159,42.0,0.0,60.0,13.0,0.0
16160,54.0,0.0,60.0,6.0,0.0
16161,63.0,60.0,60.0,12.0,0.0
16162,42.0,0.0,60.0,13.0,0.0
16163,54.0,0.0,60.0,6.0,0.0
16164,68.0,0.0,120.0,2.0,0.0
16165,54.0,0.0,150.0,4.0,0.0
16166,92.0,0.0,120.0,0.0,0.0
16167,80.0,0.0,120.0,0.0,0.0
16168,66.0,0.0,150.0,4.0,0.0
16169,78.0,0.0,120.0,5.0,0.0
16170,42.0,0.0,60.0,13.0,0.0
16171,54.0,0.0,60.0,6.0,0.0
16172,56.0,0.0,120.0,3.0,0.0
16173,65.0,60.0,60.0,12.0,0.0
16174,68.0,0.0,120.0,1.0,0.0
16175,66.0,24.0,120.0,5.0,0.0
16176,42.0,0.0,60.0,13.0,0.0
16177,65.0,12.0,60.0,12.0,0.0
16178,54.0,0.0,60.0,6.0,0.0
16179,54.0,0.0,60.0,6.0,0.0
16180,65.0,0.0,60.0,12.0,0.0
16181,42.0,60.0,60.0,13.0,0.0
16182,54.0,0.0,60.0,6.0,0.0
16183,65.0,0.0,60.0,12.0,0.0
16184,42.0,60.0,60.0,13.0,0.0
16185,54.0,0.0,120.0,3.0,0.0
16186,54.0,24.0,150.0,4.0,0.0
16187,66.0,0.0,120.0,1.0,0.0
16188,90.0,0.0,120.0,0.0,0.0
16189,78.0,0.0,120.0,0.0,0.0
16190,66.0,0.0,150.0,4.0,0.0
16191,66.0,60.0,60.0,12.0,0.0
16192,54.0,0.0,60.0,6.0,0.0
16193,78.0,0.0,120.0,5.0,0.0
16194,66.0,0.0,120.0,5.0,0.0
16195,42.0,0.0,60.0,13.0,0.0
16196,66.0,24.0,120.0,2.0,0.0
16197,42.0,0.0,60.0,13.0,0.0
16198,54.0,12.0,60.0,6.0,0.0
16199,66.0,0.0,60.0,12.0,0.0
16200,42.0,0.0,60.0,13.0,0.0
16201,66.0,0.0,60.0,12.0,0.0
16202,54.0,60.0,60.0,6.0,0.0
16203,66.0,0.0,60.0,12.0,0.0
16204,54.0,0.0,60.0,6.0,0.0
16205,42.0,60.0,60.0,13.0,0.0
16206,66.0,24.0,150.0,4.0,0.0
16207,54.0,0.0,60.0,6.0,0.0
16208,66.0,0.0,120.0,5.0,0.0
16209,78.0,0.0,120.0,5.0,0.0
16210,76.0,0.0,120.0,0.0,0.0
16211,88.0,0.0,120.0,0.0,0.0
16212,54.0,0.0,150.0,4.0,0.0
16213,64.0,24.0,120.0,2.0,0.0
16214,64.0,0.0,120.0,1.0,0.0
16215,52.0,0.0,120.0,3.0,0.0
16216,42.0,0.0,60.0,13.0,0.0
16217,68.0,60.0,60.0,12.0,0.0
16218,54.0,0.0,60.0,6.0,0.0
16219,42.0,0.0,60.0,13.0,0.0
16220,68.0,12.0,60.0,12.0,0.0
16221,54.0,60.0,60.0,6.0,0.0
16222,68.0,0.0,60.0,12.0,0.0
16223,42.0,0.0,60.0,13.0,0.0
16224,42.0,0.0,60.0,13.0,0.0
16225,68.0,60.0,60.0,12.0,0.0
16226,54.0,0.0,60.0,6.0,0.0
16227,69.0,60.0,60.0,12.0,0.0
16228,78.0,24.0,120.0,5.0,0.0
16229,74.0,0.0,120.0,0.0,0.0
16230,54.0,24.0,150.0,4.0,0.0
16231,66.0,0.0,150.0,4.0,0.0
16232,42.0,0.0,60.0,13.0,0.0
16233,62.0,0.0,120.0,1.0,0.0
16234,62.0,0.0,120.0,2.0,0.0
16235,86.0,0.0,120.0,0.0,0.0
16236,50.0,0.0,120.0,3.0,0.0
16237,66.0,0.0,120.0,5.0,0.0
16238,54.0,0.0,60.0,6.0,0.0
16239,42.0,0.0,60.0,13.0,0.0
16240,69.0,0.0,60.0,12.0,0.0
16241,54.0,12.0,60.0,6.0,0.0
16242,69.0,0.0,60.0,12.0,0.0
16243,42.0,60.0,60.0,13.0,0.0
16244,54.0,0.0,60.0,6.0,0.0
16245,69.0,0.0,60.0,12.0,0.0
16246,42.0,0.0,60.0,13.0,0.0
16247,54.0,60.0,60.0,6.0,0.0
16248,42.0,10.0,60.0,13.0,0.0
16249,69.0,22.0,60.0,12.0,0.0
16250,63.0,0.0,90.0,11.0,0.0
16251,54.0,0.0,60.0,6.0,0.0
16252,63.0,28.0,90.0,10.0,0.0
16253,49.0,0.0,120.0,3.0,0.0
16254,61.0,0.0,120.0,2.0,0.0
16255,54.0,16.0,150.0,4.0,0.0
16256,73.0,24.0,120.0,0.0,0.0
16257,66.0,0.0,150.0,4.0,0.0
16258,61.0,0.0,120.0,1.0,0.0
16259,85.0,0.0,120.0,0.0,0.0
16260,66.0,0.0,120.0,5.0,0.0
16261,78.0,0.0,120.0,5.0,0.0
16262,75.0,0.0,90.0,8.0,0.0
16263,69.0,2.0,60.0,12.0,0.0
16264,42.0,0.0,60.0,13.0,0.0
16265,54.0,10.0,60.0,6.0,0.0
16266,65.0,8.0,90.0,11.0,0.0
16267,77.0,0.0,90.0,8.0,0.0
16268,65.0,0.0,90.0,10.0,0.0
16269,69.0,50.0,60.0,12.0,0.0
16270,42.0,10.0,60.0,13.0,0.0
16271,54.0,0.0,60.0,6.0,0.0
16272,66.0,48.0,90.0,10.0,0.0
16273,78.0,0.0,90.0,8.0,0.0
16274,66.0,0.0,90.0,11.0,0.0
16275,69.0,2.0,60.0,12.0,0.0
16276,42.0,0.0,60.0,13.0,0.0
16277,54.0,10.0,60.0,6.0,0.0
16278,66.0,18.0,450.0,5.0,0.0
16279,78.0,0.0,450.0,5.0,0.0
16280,48.0,0.0,390.0,3.0,0.0
16281,68.0,0.0,570.0,11.0,0.0
16282,60.0,0.0,390.0,2.0,0.0
16283,84.0,24.0,390.0,0.0,0.0
16284,72.0,0.0,390.0,0.0,0.0
16285,66.0,24.0,150.0,4.0,0.0
16286,54.0,0.0,150.0,4.0,0.0
16287,60.0,0.0,390.0,1.0,0.0
16288,54.0,0.0,60.0,6.0,0.0
16289,42.0,60.0,60.0,13.0,0.0
16290,68.0,12.0,570.0,10.0,0.0
16291,80.0,0.0,570.0,8.0,0.0
16292,54.0,0.0,60.0,12.0,0.0
16293,42.0,36.0,60.0,13.0,0.0
16294,54.0,0.0,60.0,12.0,0.0
16295,54.0,0.0,60.0,6.0,0.0
16296,42.0,0.0,60.0,13.0,0.0
16297,54.0,0.0,60.0,12.0,0.0
16298,54.0,60.0,60.0,6.0,0.0
16299,54.0,0.0,60.0,12.0,0.0
16300,42.0,60.0,60.0,13.0,0.0
16301,54.0,0.0,60.0,6.0,0.0
16302,60.0,0.0,60.0,12.0,0.0
16303,54.0,0.0,60.0,6.0,0.0
16304,42.0,60.0,60.0,13.0,0.0
16305,54.0,36.0,60.0,6.0,0.0
16306,60.0,0.0,60.0,12.0,0.0
16307,42.0,0.0,60.0,13.0,0.0
16308,60.0,0.0,60.0,12.0,0.0
16309,54.0,42.0,60.0,6.0,0.0
16310,42.0,0.0,60.0,13.0,0.0
16311,60.0,0.0,60.0,12.0,0.0
16312,54.0,0.0,60.0,6.0,0.0
16313,42.0,60.0,60.0,13.0,0.0
16314,83.0,0.0,390.0,0.0,0.0
16315,61.0,0.0,60.0,12.0,0.0
16316,54.0,48.0,60.0,6.0,0.0
16317,59.0,0.0,390.0,1.0,0.0
16318,59.0,0.0,390.0,2.0,0.0
16319,42.0,0.0,60.0,13.0,0.0
16320,47.0,0.0,390.0,3.0,0.0
16321,71.0,0.0,390.0,0.0,0.0
16322,54.0,0.0,60.0,6.0,0.0
16323,61.0,0.0,60.0,12.0,0.0
16324,42.0,60.0,60.0,13.0,0.0
16325,42.0,0.0,60.0,13.0,0.0
16326,54.0,60.0,60.0,6.0,0.0
16327,61.0,0.0,60.0,12.0,0.0
16328,42.0,0.0,60.0,13.0,0.0
16329,54.0,0.0,60.0,6.0,0.0
16330,61.0,60.0,60.0,12.0,0.0
16331,54.0,0.0,150.0,4.0,0.0
16332,66.0,24.0,120.0,11.0,0.0
16333,54.0,0.0,60.0,6.0,0.0
16334,78.0,0.0,120.0,8.0,0.0
16335,42.0,60.0,60.0,13.0,0.0
16336,66.0,0.0,120.0,10.0,0.0
16337,66.0,24.0,150.0,4.0,0.0
16338,78.0,0.0,120.0,5.0,0.0
16339,63.0,0.0,60.0,12.0,0.0
16340,66.0,0.0,120.0,5.0,0.0
16341,54.0,0.0,60.0,6.0,0.0
16342,42.0,0.0,60.0,13.0,0.0
16343,63.0,12.0,60.0,12.0,0.0
16344,42.0,60.0,60.0,13.0,0.0
16345,63.0,0.0,60.0,12.0,0.0
16346,54.0,0.0,60.0,6.0,0.0
16347,63.0,0.0,60.0,12.0,0.0
16348,54.0,60.0,60.0,6.0,0.0
16349,42.0,0.0,60.0,13.0,0.0
16350,65.0,0.0,120.0,11.0,0.0
16351,54.0,0.0,60.0,6.0,0.0
16352,54.0,0.0,150.0,4.0,0.0
16353,77.0,0.0,120.0,8.0,0.0
16354,65.0,60.0,60.0,12.0,0.0
16355,65.0,0.0,120.0,10.0,0.0
16356,66.0,24.0,150.0,4.0,0.0
16357,66.0,0.0,120.0,5.0,0.0
16358,78.0,24.0,120.0,5.0,0.0
16359,42.0,0.0,60.0,13.0,0.0
16360,42.0,0.0,60.0,13.0,0.0
16361,65.0,0.0,60.0,12.0,0.0
16362,54.0,12.0,60.0,6.0,0.0
16363,65.0,0.0,60.0,12.0,0.0
16364,54.0,0.0,60.0,6.0,0.0
16365,42.0,60.0,60.0,13.0,0.0
16366,65.0,0.0,60.0,12.0,0.0
16367,42.0,0.0,60.0,13.0,0.0
16368,54.0,60.0,60.0,6.0,0.0
16369,62.0,24.0,120.0,10.0,0.0
16370,42.0,60.0,60.0,13.0,0.0
16371,74.0,0.0,120.0,8.0,0.0
16372,54.0,24.0,150.0,4.0,0.0
16373,66.0,0.0,60.0,12.0,0.0
16374,54.0,0.0,60.0,6.0,0.0
16375,66.0,0.0,120.0,5.0,0.0
16376,78.0,0.0,120.0,5.0,0.0
16377,66.0,0.0,150.0,4.0,0.0
16378,62.0,0.0,120.0,11.0,0.0
16379,54.0,12.0,60.0,6.0,0.0
16380,42.0,0.0,60.0,13.0,0.0
16381,66.0,0.0,60.0,12.0,0.0
16382,66.0,0.0,60.0,12.0,0.0
16383,54.0,60.0,60.0,6.0,0.0
16384,42.0,0.0,60.0,13.0,0.0
16385,54.0,0.0,60.0,6.0,0.0
16386,66.0,0.0,60.0,12.0,0.0
16387,42.0,60.0,60.0,13.0,0.0
16388,68.0,60.0,60.0,12.0,0.0
16389,78.0,0.0,120.0,5.0,0.0
16390,66.0,0.0,150.0,4.0,0.0
16391,54.0,24.0,150.0,4.0,0.0
16392,61.0,0.0,120.0,10.0,0.0
16393,73.0,24.0,120.0,8.0,0.0
16394,61.0,0.0,120.0,11.0,0.0
16395,42.0,0.0,60.0,13.0,0.0
16396,54.0,0.0,60.0,6.0,0.0
16397,66.0,0.0,120.0,5.0,0.0
16398,54.0,12.0,60.0,6.0,0.0
16399,42.0,0.0,60.0,13.0,0.0
16400,68.0,0.0,60.0,12.0,0.0
16401,42.0,60.0,60.0,13.0,0.0
16402,68.0,0.0,60.0,12.0,0.0
16403,54.0,0.0,60.0,6.0,0.0
16404,54.0,60.0,60.0,6.0,0.0
16405,68.0,0.0,60.0,12.0,0.0
16406,42.0,0.0,60.0,13.0,0.0
16407,66.0,24.0,120.0,5.0,0.0
16408,77.0,0.0,90.0,1.0,0.0
16409,66.0,16.0,150.0,4.0,0.0
16410,54.0,0.0,150.0,4.0,0.0
16411,68.0,22.0,60.0,12.0,0.0
16412,89.0,0.0,90.0,0.0,0.0
16413,59.0,0.0,120.0,10.0,0.0
16414,53.0,28.0,90.0,3.0,0.0
16415,71.0,0.0,120.0,8.0,0.0
16416,42.0,0.0,60.0,13.0,0.0
16417,78.0,0.0,120.0,5.0,0.0
16418,59.0,0.0,120.0,11.0,0.0
16419,65.0,0.0,90.0,2.0,0.0
16420,54.0,10.0,60.0,6.0,0.0
16421,54.0,10.0,60.0,6.0,0.0
16422,68.0,2.0,60.0,12.0,0.0
16423,42.0,0.0,60.0,13.0,0.0
16424,78.0,0.0,90.0,1.0,0.0
16425,66.0,8.0,90.0,2.0,0.0
16426,90.0,0.0,90.0,0.0,0.0
16427,54.0,0.0,90.0,3.0,0.0
16428,42.0,0.0,60.0,13.0,0.0
16429,68.0,50.0,60.0,12.0,0.0
16430,54.0,10.0,60.0,6.0,0.0
16431,68.0,2.0,60.0,12.0,0.0
16432,42.0,0.0,60.0,13.0,0.0
16433,54.0,10.0,60.0,6.0,0.0
16434,80.0,0.0,15.0,1.0,0.0
16435,71.0,0.0,60.0,8.0,0.0
16436,68.0,0.0,60.0,10.0,0.0
16437,59.0,0.0,60.0,11.0,0.0
16438,56.0,0.0,60.0,11.0,0.0
16439,68.0,48.0,15.0,2.0,0.0
16440,66.0,18.0,450.0,5.0,0.0
16441,78.0,0.0,450.0,5.0,0.0
16442,92.0,0.0,15.0,0.0,0.0
16443,51.0,60.0,60.0,12.0,0.0
16444,54.0,0.0,60.0,6.0,0.0
16445,56.0,0.0,15.0,3.0,0.0
16446,54.0,24.0,150.0,4.0,0.0
16447,42.0,0.0,60.0,13.0,0.0
16448,66.0,0.0,150.0,4.0,0.0
16449,71.0,0.0,60.0,8.0,0.0
16450,59.0,0.0,60.0,11.0,0.0
16451,56.0,0.0,60.0,11.0,0.0
16452,51.0,0.0,60.0,12.0,0.0
16453,54.0,0.0,60.0,6.0,0.0
16454,68.0,0.0,60.0,10.0,0.0
16455,42.0,36.0,60.0,13.0,0.0
16456,42.0,0.0,60.0,13.0,0.0
16457,59.0,0.0,60.0,11.0,0.0
16458,54.0,0.0,60.0,6.0,0.0
16459,56.0,0.0,60.0,11.0,0.0
16460,68.0,0.0,60.0,10.0,0.0
16461,71.0,0.0,60.0,8.0,0.0
16462,51.0,60.0,60.0,12.0,0.0
16463,42.0,0.0,60.0,13.0,0.0
16464,71.0,0.0,60.0,8.0,0.0
16465,51.0,0.0,60.0,12.0,0.0
16466,54.0,60.0,60.0,6.0,0.0
16467,68.0,0.0,60.0,10.0,0.0
16468,56.0,0.0,60.0,11.0,0.0
16469,59.0,0.0,60.0,11.0,0.0
16470,56.0,0.0,60.0,11.0,0.0
16471,59.0,0.0,60.0,11.0,0.0
16472,42.0,0.0,60.0,13.0,0.0
16473,68.0,0.0,60.0,10.0,0.0
16474,54.0,60.0,60.0,6.0,0.0
16475,71.0,0.0,60.0,8.0,0.0
16476,59.0,0.0,60.0,12.0,0.0
16477,42.0,0.0,60.0,13.0,0.0
16478,68.0,0.0,60.0,10.0,0.0
16479,71.0,60.0,60.0,8.0,0.0
16480,59.0,0.0,60.0,11.0,0.0
16481,56.0,0.0,60.0,11.0,0.0
16482,54.0,0.0,60.0,6.0,0.0
16483,59.0,0.0,60.0,12.0,0.0
16484,71.0,0.0,60.0,8.0,0.0
16485,59.0,0.0,60.0,11.0,0.0
16486,56.0,0.0,60.0,11.0,0.0
16487,68.0,0.0,60.0,10.0,0.0
16488,42.0,42.0,60.0,13.0,0.0
16489,59.0,0.0,60.0,12.0,0.0
16490,54.0,0.0,60.0,6.0,0.0
16491,54.0,0.0,60.0,6.0,0.0
16492,56.0,0.0,60.0,11.0,0.0
16493,59.0,0.0,60.0,12.0,0.0
16494,42.0,0.0,60.0,13.0,0.0
16495,59.0,60.0,60.0,11.0,0.0
16496,68.0,0.0,60.0,10.0,0.0
16497,71.0,0.0,60.0,8.0,0.0
16498,54.0,0.0,60.0,6.0,0.0
16499,59.0,48.0,60.0,11.0,0.0
16500,56.0,0.0,60.0,11.0,0.0
16501,42.0,0.0,60.0,13.0,0.0
16502,61.0,0.0,60.0,12.0,0.0
16503,71.0,0.0,60.0,8.0,0.0
16504,68.0,0.0,60.0,10.0,0.0
16505,54.0,0.0,60.0,6.0,0.0
16506,42.0,0.0,60.0,13.0,0.0
16507,59.0,60.0,60.0,11.0,0.0
16508,61.0,0.0,60.0,12.0,0.0
16509,56.0,0.0,60.0,11.0,0.0
16510,68.0,0.0,60.0,10.0,0.0
16511,71.0,0.0,60.0,8.0,0.0
16512,42.0,0.0,60.0,13.0,0.0
16513,61.0,0.0,60.0,12.0,0.0
16514,56.0,0.0,60.0,11.0,0.0
16515,59.0,0.0,60.0,11.0,0.0
16516,71.0,0.0,60.0,8.0,0.0
16517,68.0,60.0,60.0,10.0,0.0
16518,54.0,0.0,60.0,6.0,0.0
16519,42.0,0.0,60.0,13.0,0.0
16520,71.0,0.0,60.0,8.0,0.0
16521,54.0,0.0,60.0,6.0,0.0
16522,61.0,0.0,60.0,12.0,0.0
16523,68.0,0.0,60.0,10.0,0.0
16524,59.0,0.0,60.0,11.0,0.0
16525,56.0,60.0,60.0,11.0,0.0
16526,78.0,0.0,120.0,5.0,0.0
16527,66.0,24.0,120.0,5.0,0.0
16528,66.0,0.0,150.0,4.0,0.0
16529,54.0,24.0,150.0,4.0,0.0
16530,54.0,0.0,60.0,6.0,0.0
16531,66.0,0.0,120.0,2.0,0.0
16532,63.0,60.0,60.0,12.0,0.0
16533,68.0,0.0,60.0,10.0,0.0
16534,59.0,0.0,60.0,11.0,0.0
16535,56.0,0.0,60.0,11.0,0.0
16536,78.0,0.0,120.0,1.0,0.0
16537,54.0,0.0,120.0,3.0,0.0
16538,42.0,0.0,60.0,13.0,0.0
16539,71.0,0.0,60.0,8.0,0.0
16540,90.0,0.0,120.0,0.0,0.0
16541,71.0,12.0,60.0,8.0,0.0
16542,63.0,0.0,60.0,12.0,0.0
16543,42.0,0.0,60.0,13.0,0.0
16544,59.0,0.0,60.0,11.0,0.0
16545,68.0,0.0,60.0,10.0,0.0
16546,54.0,0.0,60.0,6.0,0.0
16547,56.0,0.0,60.0,11.0,0.0
16548,71.0,0.0,60.0,8.0,0.0
16549,59.0,0.0,60.0,11.0,0.0
16550,56.0,0.0,60.0,11.0,0.0
16551,42.0,0.0,60.0,13.0,0.0
16552,68.0,60.0,60.0,10.0,0.0
16553,63.0,0.0,60.0,12.0,0.0
16554,54.0,0.0,60.0,6.0,0.0
16555,71.0,60.0,60.0,8.0,0.0
16556,54.0,0.0,60.0,6.0,0.0
16557,56.0,0.0,60.0,11.0,0.0
16558,59.0,0.0,60.0,11.0,0.0
16559,68.0,0.0,60.0,10.0,0.0
16560,42.0,0.0,60.0,13.0,0.0
16561,63.0,0.0,60.0,12.0,0.0
16562,66.0,24.0,150.0,4.0,0.0
16563,68.0,0.0,60.0,10.0,0.0
16564,65.0,0.0,120.0,2.0,0.0
16565,59.0,0.0,60.0,11.0,0.0
16566,56.0,0.0,60.0,11.0,0.0
16567,77.0,24.0,120.0,1.0,0.0
16568,65.0,60.0,60.0,12.0,0.0
16569,42.0,0.0,60.0,13.0,0.0
16570,89.0,0.0,120.0,0.0,0.0
16571,54.0,0.0,60.0,6.0,0.0
16572,53.0,0.0,120.0,3.0,0.0
16573,78.0,0.0,120.0,5.0,0.0
16574,66.0,0.0,120.0,5.0,0.0
16575,54.0,0.0,150.0,4.0,0.0
16576,71.0,0.0,60.0,8.0,0.0
16577,54.0,0.0,60.0,6.0,0.0
16578,59.0,0.0,60.0,11.0,0.0
16579,42.0,0.0,60.0,13.0,0.0
16580,65.0,0.0,60.0,12.0,0.0
16581,68.0,0.0,60.0,10.0,0.0
16582,71.0,0.0,60.0,8.0,0.0
16583,56.0,12.0,60.0,11.0,0.0
16584,59.0,0.0,60.0,11.0,0.0
16585,56.0,0.0,60.0,11.0,0.0
16586,54.0,0.0,60.0,6.0,0.0
16587,42.0,60.0,60.0,13.0,0.0
16588,71.0,0.0,60.0,8.0,0.0
16589,68.0,0.0,60.0,10.0,0.0
16590,65.0,0.0,60.0,12.0,0.0
16591,71.0,0.0,60.0,8.0,0.0
16592,56.0,60.0,60.0,11.0,0.0
16593,59.0,0.0,60.0,11.0,0.0
16594,65.0,0.0,60.0,12.0,0.0
16595,42.0,0.0,60.0,13.0,0.0
16596,68.0,0.0,60.0,10.0,0.0
16597,54.0,0.0,60.0,6.0,0.0
16598,54.0,0.0,60.0,6.0,0.0
16599,59.0,0.0,60.0,11.0,0.0
16600,51.0,0.0,120.0,3.0,0.0
16601,54.0,24.0,150.0,4.0,0.0
16602,66.0,0.0,150.0,4.0,0.0
16603,42.0,0.0,60.0,13.0,0.0
16604,75.0,24.0,120.0,1.0,0.0
16605,71.0,0.0,60.0,8.0,0.0
16606,66.0,60.0,60.0,12.0,0.0
16607,56.0,0.0,60.0,11.0,0.0
16608,78.0,0.0,120.0,5.0,0.0
16609,66.0,0.0,120.0,5.0,0.0
16610,68.0,0.0,60.0,10.0,0.0
16611,63.0,0.0,120.0,2.0,0.0
16612,87.0,0.0,120.0,0.0,0.0
16613,54.0,0.0,60.0,6.0,0.0
16614,42.0,0.0,60.0,13.0,0.0
16615,71.0,0.0,60.0,8.0,0.0
16616,66.0,0.0,60.0,12.0,0.0
16617,56.0,0.0,60.0,11.0,0.0
16618,59.0,12.0,60.0,11.0,0.0
16619,68.0,0.0,60.0,10.0,0.0
16620,54.0,60.0,60.0,6.0,0.0
16621,68.0,0.0,60.0,10.0,0.0
16622,42.0,0.0,60.0,13.0,0.0
16623,56.0,0.0,60.0,11.0,0.0
16624,66.0,0.0,60.0,12.0,0.0
16625,71.0,0.0,60.0,8.0,0.0
16626,59.0,0.0,60.0,11.0,0.0
16627,42.0,0.0,60.0,13.0,0.0
16628,56.0,0.0,60.0,11.0,0.0
16629,59.0,0.0,60.0,11.0,0.0
16630,54.0,0.0,60.0,6.0,0.0
16631,66.0,60.0,60.0,12.0,0.0
16632,68.0,0.0,60.0,10.0,0.0
16633,71.0,0.0,60.0,8.0,0.0
16634,54.0,24.0,150.0,4.0,0.0
16635,66.0,0.0,150.0,4.0,0.0
16636,56.0,0.0,60.0,11.0,0.0
16637,59.0,0.0,60.0,11.0,0.0
16638,71.0,0.0,60.0,8.0,0.0
16639,73.0,0.0,120.0,1.0,0.0
16640,42.0,0.0,60.0,13.0,0.0
16641,61.0,0.0,120.0,2.0,0.0
16642,68.0,0.0,60.0,12.0,0.0
16643,78.0,0.0,120.0,5.0,0.0
16644,54.0,60.0,60.0,6.0,0.0
16645,66.0,0.0,120.0,5.0,0.0
16646,85.0,24.0,120.0,0.0,0.0
16647,49.0,0.0,120.0,3.0,0.0
16648,68.0,0.0,60.0,10.0,0.0
16649,42.0,0.0,60.0,13.0,0.0
16650,68.0,0.0,60.0,12.0,0.0
16651,68.0,12.0,60.0,10.0,0.0
16652,59.0,0.0,60.0,11.0,0.0
16653,71.0,0.0,60.0,8.0,0.0
16654,56.0,0.0,60.0,11.0,0.0
16655,54.0,0.0,60.0,6.0,0.0
16656,56.0,60.0,60.0,11.0,0.0
16657,42.0,0.0,60.0,13.0,0.0
16658,54.0,0.0,60.0,6.0,0.0
16659,71.0,0.0,60.0,8.0,0.0
16660,68.0,0.0,60.0,12.0,0.0
16661,68.0,0.0,60.0,10.0,0.0
16662,59.0,0.0,60.0,11.0,0.0
16663,42.0,0.0,60.0,13.0,0.0
16664,68.0,0.0,60.0,12.0,0.0
16665,54.0,0.0,60.0,6.0,0.0
16666,68.0,60.0,60.0,10.0,0.0
16667,56.0,0.0,60.0,11.0,0.0
16668,71.0,0.0,60.0,8.0,0.0
16669,59.0,0.0,60.0,11.0,0.0
16670,56.0,0.0,60.0,11.0,0.0
16671,71.0,0.0,60.0,8.0,0.0
16672,68.0,50.0,60.0,12.0,0.0
16673,68.0,0.0,60.0,10.0,0.0
16674,66.0,24.0,150.0,4.0,0.0
16675,71.0,0.0,120.0,1.0,0.0
16676,47.0,24.0,120.0,3.0,0.0
16677,54.0,10.0,60.0,6.0,0.0
16678,54.0,0.0,150.0,4.0,0.0
16679,42.0,0.0,60.0,13.0,0.0
16680,66.0,0.0,120.0,5.0,0.0
16681,78.0,0.0,120.0,5.0,0.0
16682,59.0,0.0,120.0,2.0,0.0
16683,83.0,0.0,120.0,0.0,0.0
16684,59.0,0.0,60.0,11.0,0.0
16685,56.0,0.0,60.0,11.0,0.0
16686,71.0,0.0,60.0,8.0,0.0
16687,42.0,10.0,60.0,13.0,0.0
16688,59.0,0.0,60.0,11.0,0.0
16689,54.0,0.0,60.0,6.0,0.0
16690,68.0,0.0,60.0,10.0,0.0
16691,68.0,2.0,60.0,12.0,0.0
16692,68.0,10.0,60.0,10.0,0.0
16693,56.0,0.0,60.0,11.0,0.0
16694,71.0,0.0,60.0,8.0,0.0
16695,54.0,0.0,60.0,6.0,0.0
16696,59.0,0.0,60.0,11.0,0.0
16697,68.0,50.0,60.0,12.0,0.0
16698,42.0,0.0,60.0,13.0,0.0
16699,54.0,0.0,60.0,6.0,0.0
16700,68.0,0.0,60.0,10.0,0.0
16701,71.0,10.0,60.0,8.0,0.0
16702,56.0,0.0,60.0,11.0,0.0
16703,59.0,0.0,60.0,11.0,0.0
16704,42.0,0.0,60.0,13.0,0.0
16705,68.0,122.0,60.0,12.0,0.0
16706,71.0,0.0,180.0,8.0,0.0
16707,68.0,0.0,180.0,10.0,0.0
16708,53.0,34.0,180.0,12.0,0.0
16709,59.0,0.0,240.0,3.0,0.0
16710,56.0,0.0,240.0,3.0,0.0
16711,56.0,0.0,180.0,11.0,0.0
16712,80.0,0.0,720.0,1.0,0.0
16713,73.0,0.0,120.0,5.0,0.0
16714,61.0,0.0,120.0,5.0,0.0
16715,83.0,120.0,720.0,0.0,0.0
16716,61.0,0.0,240.0,2.0,0.0
16717,41.0,0.0,180.0,13.0,0.0
16718,59.0,0.0,180.0,11.0,0.0
16719,73.0,110.0,240.0,2.0,0.0
16720,68.0,0.0,1860.0,4.0,0.0
16721,49.0,72.0,120.0,6.0,0.0
16722,61.0,48.0,1860.0,4.0,0.0
16723,49.0,0.0,90.0,13.0,0.0
16724,65.0,0.0,90.0,10.0,0.0
16725,61.0,0.0,90.0,12.0,0.0
16726,59.0,120.0,90.0,11.0,0.0
16727,68.0,0.0,90.0,8.0,0.0
16728,65.0,0.0,90.0,10.0,0.0
16729,59.0,0.0,90.0,11.0,0.0
16730,68.0,0.0,90.0,8.0,0.0
16731,49.0,216.0,90.0,13.0,0.0
16732,61.0,0.0,90.0,12.0,0.0
16733,49.0,48.0,180.0,13.0,0.0
16734,61.0,0.0,180.0,12.0,0.0
16735,59.0,0.0,180.0,11.0,0.0
16736,68.0,0.0,180.0,8.0,0.0
16737,65.0,0.0,180.0,10.0,0.0
16738,82.0,0.0,120.0,1.0,0.0
16739,85.0,120.0,120.0,0.0,0.0
16740,83.0,0.0,120.0,1.0,0.0
16741,87.0,240.0,15.0,0.0,0.0
16742,83.0,0.0,240.0,1.0,0.0
16743,82.0,60.0,120.0,1.0,0.0
16744,61.0,60.0,60.0,5.0,0.0
16745,73.0,0.0,60.0,5.0,0.0
16746,85.0,0.0,120.0,0.0,0.0
16747,49.0,0.0,60.0,6.0,0.0
16748,73.0,60.0,60.0,5.0,0.0
16749,83.0,120.0,120.0,0.0,0.0
16750,61.0,0.0,60.0,5.0,0.0
16751,80.0,0.0,120.0,1.0,0.0
16752,49.0,0.0,60.0,6.0,0.0
16753,73.0,0.0,120.0,5.0,0.0
16754,83.0,0.0,240.0,1.0,0.0
16755,68.0,120.0,240.0,3.0,0.0
16756,49.0,0.0,120.0,6.0,0.0
16757,95.0,0.0,240.0,0.0,0.0
16758,61.0,120.0,120.0,5.0,0.0
16759,94.0,0.0,120.0,0.0,0.0
16760,66.0,72.0,120.0,3.0,0.0
16761,82.0,0.0,120.0,1.0,0.0
16762,80.0,0.0,120.0,1.0,0.0
16763,65.0,240.0,120.0,3.0,0.0
16764,92.0,0.0,120.0,0.0,0.0
16765,70.0,120.0,720.0,4.0,0.0
16766,71.0,0.0,240.0,3.0,0.0
16767,66.0,0.0,720.0,4.0,0.0
16768,92.0,0.0,240.0,0.0,0.0
16769,80.0,96.0,240.0,1.0,0.0
16770,66.0,0.0,90.0,10.0,0.0
16771,70.0,120.0,90.0,8.0,0.0
16772,70.0,0.0,240.0,3.0,0.0
16773,42.0,0.0,90.0,13.0,0.0
16774,90.0,0.0,240.0,0.0,0.0
16775,54.0,0.0,90.0,12.0,0.0
16776,78.0,192.0,240.0,1.0,0.0
16777,54.0,0.0,90.0,11.0,0.0
16778,54.0,0.0,90.0,12.0,0.0
16779,66.0,0.0,90.0,10.0,0.0
16780,54.0,0.0,90.0,11.0,0.0
16781,42.0,24.0,90.0,13.0,0.0
16782,70.0,0.0,90.0,8.0,0.0
16783,54.0,0.0,180.0,12.0,0.0
16784,42.0,0.0,180.0,13.0,0.0
16785,70.0,0.0,180.0,8.0,0.0
16786,54.0,48.0,180.0,11.0,0.0
16787,66.0,0.0,180.0,10.0,0.0
16788,68.0,120.0,120.0,4.0,0.0
16789,71.0,0.0,120.0,4.0,0.0
16790,73.0,240.0,120.0,4.0,0.0
16791,85.0,60.0,240.0,0.0,0.0
16792,70.0,0.0,15.0,4.0,0.0
16793,73.0,0.0,240.0,1.0,0.0
16794,73.0,0.0,240.0,4.0,0.0
16795,68.0,0.0,120.0,4.0,0.0
16796,71.0,60.0,120.0,4.0,0.0
16797,73.0,0.0,60.0,5.0,0.0
16798,61.0,0.0,60.0,5.0,0.0
16799,75.0,0.0,120.0,1.0,0.0
16800,87.0,0.0,120.0,0.0,0.0
16801,49.0,60.0,60.0,6.0,0.0
16802,66.0,120.0,120.0,4.0,0.0
16803,77.0,0.0,120.0,1.0,0.0
16804,70.0,0.0,120.0,4.0,0.0
16805,89.0,0.0,120.0,0.0,0.0
16806,49.0,0.0,60.0,6.0,0.0
16807,61.0,0.0,60.0,5.0,0.0
16808,73.0,60.0,60.0,5.0,0.0
16809,61.0,0.0,120.0,5.0,0.0
16810,73.0,120.0,120.0,5.0,0.0
16811,90.0,0.0,240.0,0.0,0.0
16812,49.0,0.0,120.0,6.0,0.0
16813,70.0,0.0,240.0,4.0,0.0
16814,66.0,0.0,240.0,4.0,0.0
16815,78.0,120.0,240.0,1.0,0.0
16816,68.0,0.0,120.0,4.0,0.0
16817,61.0,0.0,120.0,4.0,0.0
16818,80.0,0.0,120.0,1.0,0.0
16819,92.0,120.0,120.0,0.0,0.0
16820,82.0,0.0,120.0,1.0,0.0
16821,58.0,0.0,120.0,4.0,0.0
16822,94.0,0.0,15.0,0.0,0.0
16823,70.0,0.0,240.0,4.0,0.0
16824,82.0,0.0,240.0,1.0,0.0
16825,66.0,240.0,15.0,4.0,0.0
16826,95.0,192.0,240.0,0.0,0.0
16827,83.0,120.0,480.0,1.0,0.0
16828,61.0,0.0,90.0,12.0,0.0
16829,68.0,0.0,90.0,10.0,0.0
16830,49.0,0.0,90.0,13.0,0.0
16831,61.0,30.0,1170.0,4.0,0.0
16832,68.0,0.0,1170.0,4.0,0.0
16833,71.0,120.0,90.0,8.0,0.0
16834,68.0,30.0,450.0,3.0,0.0
16835,61.0,0.0,90.0,11.0,0.0
16836,49.0,0.0,90.0,13.0,0.0
16837,68.0,0.0,90.0,10.0,0.0
16838,61.0,0.0,90.0,12.0,0.0
16839,71.0,0.0,90.0,8.0,0.0
16840,61.0,24.0,90.0,11.0,0.0
16841,71.0,18.0,180.0,8.0,0.0
16842,49.0,0.0,180.0,13.0,0.0
16843,68.0,0.0,180.0,10.0,0.0
16844,61.0,0.0,180.0,12.0,0.0
16845,61.0,0.0,180.0,11.0,0.0
16846,70.0,120.0,120.0,3.0,0.0
16847,85.0,0.0,120.0,1.0,0.0
16848,87.0,0.0,120.0,1.0,0.0
16849,87.0,0.0,240.0,1.0,0.0
16850,71.0,240.0,15.0,3.0,0.0
16851,85.0,0.0,120.0,1.0,0.0
16852,49.0,60.0,60.0,6.0,0.0
16853,61.0,0.0,60.0,5.0,0.0
16854,73.0,0.0,60.0,5.0,0.0
16855,70.0,60.0,120.0,3.0,0.0
16856,73.0,0.0,60.0,5.0,0.0
16857,61.0,30.0,60.0,5.0,0.0
16858,49.0,0.0,60.0,6.0,0.0
16859,83.0,120.0,120.0,1.0,0.0
16860,68.0,0.0,120.0,3.0,0.0
16861,61.0,120.0,120.0,5.0,0.0
16862,73.0,0.0,120.0,5.0,0.0
16863,68.0,0.0,240.0,3.0,0.0
16864,61.0,0.0,1050.0,4.0,0.0
16865,49.0,0.0,120.0,6.0,0.0
16866,49.0,24.0,1050.0,4.0,0.0
16867,83.0,120.0,240.0,1.0,0.0
16868,53.0,0.0,300.0,12.0,0.0
16869,41.0,0.0,300.0,13.0,0.0
16870,65.0,120.0,300.0,8.0,0.0
16871,82.0,120.0,120.0,1.0,0.0
16872,70.0,0.0,120.0,3.0,0.0
16873,80.0,0.0,120.0,1.0,0.0
16874,71.0,60.0,120.0,3.0,0.0
16875,82.0,238.0,720.0,1.0,0.0
16876,70.0,74.0,240.0,3.0,0.0
16877,54.0,0.0,60.0,12.0,0.0
16878,66.0,0.0,60.0,8.0,0.0
16879,42.0,46.0,60.0,13.0,0.0
16880,69.0,0.0,60.0,8.0,0.0
16881,45.0,0.0,60.0,13.0,0.0
16882,57.0,120.0,60.0,12.0,0.0
16883,58.0,2.0,480.0,3.0,0.0
16884,70.0,0.0,60.0,8.0,0.0
16885,46.0,0.0,60.0,13.0,0.0
16886,58.0,156.0,60.0,12.0,0.0
16887,49.0,0.0,120.0,13.0,0.0
16888,73.0,106.0,120.0,8.0,0.0
16889,61.0,0.0,120.0,12.0,0.0
16890,63.0,2.0,240.0,3.0,0.0
16891,61.0,24.0,810.0,4.0,0.0
16892,49.0,0.0,810.0,4.0,0.0
16893,87.0,72.0,240.0,1.0,0.0
16894,85.0,240.0,720.0,0.0,0.0
16895,45.0,0.0,60.0,13.0,0.0
16896,57.0,0.0,60.0,12.0,0.0
16897,85.0,108.0,180.0,1.0,0.0
16898,69.0,120.0,60.0,8.0,0.0
16899,85.0,0.0,450.0,2.0,0.0
16900,61.0,120.0,450.0,3.0,0.0
16901,58.0,12.0,60.0,12.0,0.0
16902,70.0,0.0,60.0,8.0,0.0
16903,46.0,0.0,60.0,13.0,0.0
16904,49.0,120.0,60.0,13.0,0.0
16905,61.0,0.0,60.0,12.0,0.0
16906,73.0,0.0,60.0,8.0,0.0
16907,73.0,0.0,480.0,1.0,0.0
16908,77.0,36.0,60.0,8.0,0.0
16909,65.0,0.0,60.0,12.0,0.0
16910,53.0,0.0,60.0,13.0,0.0
16911,54.0,108.0,120.0,13.0,0.0
16912,66.0,0.0,120.0,12.0,0.0
16913,78.0,0.0,120.0,8.0,0.0
16914,61.0,24.0,810.0,4.0,0.0
16915,78.0,0.0,240.0,1.0,0.0
16916,90.0,72.0,240.0,0.0,0.0
16917,49.0,0.0,810.0,4.0,0.0
16918,89.0,120.0,450.0,0.0,0.0
16919,65.0,240.0,720.0,3.0,0.0
16920,56.0,0.0,60.0,12.0,0.0
16921,44.0,0.0,60.0,13.0,0.0
16922,77.0,0.0,720.0,2.0,0.0
16923,68.0,120.0,60.0,8.0,0.0
16924,77.0,0.0,450.0,1.0,0.0
16925,47.0,120.0,60.0,13.0,0.0
16926,71.0,0.0,60.0,8.0,0.0
16927,59.0,0.0,60.0,12.0,0.0
16928,73.0,0.0,60.0,8.0,0.0
16929,61.0,120.0,60.0,12.0,0.0
16930,49.0,0.0,60.0,13.0,0.0
16931,53.0,0.0,60.0,13.0,0.0
16932,65.0,36.0,60.0,12.0,0.0
16933,77.0,0.0,60.0,8.0,0.0
16934,80.0,108.0,120.0,8.0,0.0
16935,56.0,0.0,120.0,13.0,0.0
16936,68.0,0.0,120.0,12.0,0.0
16937,71.0,72.0,240.0,3.0,0.0
16938,83.0,0.0,240.0,2.0,0.0
16939,61.0,0.0,810.0,4.0,0.0
16940,49.0,24.0,810.0,4.0,0.0
16941,92.0,240.0,720.0,0.0,0.0
16942,59.0,120.0,60.0,8.0,0.0
16943,35.0,0.0,60.0,13.0,0.0
16944,80.0,0.0,720.0,1.0,0.0
16945,68.0,120.0,450.0,3.0,0.0
16946,47.0,0.0,60.0,12.0,0.0
16947,80.0,0.0,450.0,2.0,0.0
16948,53.0,0.0,60.0,12.0,0.0
16949,41.0,0.0,60.0,13.0,0.0
16950,65.0,120.0,60.0,8.0,0.0
16951,56.0,0.0,60.0,12.0,0.0
16952,44.0,120.0,60.0,13.0,0.0
16953,68.0,0.0,60.0,8.0,0.0
16954,70.0,0.0,60.0,8.0,0.0
16955,46.0,36.0,60.0,13.0,0.0
16956,58.0,0.0,60.0,12.0,0.0
16957,71.0,0.0,120.0,8.0,0.0
16958,47.0,0.0,120.0,13.0,0.0
16959,59.0,108.0,120.0,12.0,0.0
16960,49.0,0.0,810.0,4.0,0.0
16961,61.0,96.0,810.0,4.0,0.0
16962,99.0,72.0,240.0,0.0,0.0
16963,87.0,0.0,240.0,1.0,0.0
16964,42.0,120.0,60.0,13.0,0.0
16965,54.0,0.0,60.0,12.0,0.0
16966,85.0,0.0,240.0,1.0,0.0
16967,97.0,60.0,240.0,0.0,0.0
16968,46.0,0.0,60.0,13.0,0.0
16969,58.0,60.0,60.0,12.0,0.0
16970,60.0,0.0,60.0,12.0,0.0
16971,48.0,120.0,60.0,13.0,0.0
16972,70.0,120.0,480.0,8.0,0.0
16973,58.0,0.0,480.0,11.0,0.0
16974,49.0,0.0,60.0,13.0,0.0
16975,61.0,120.0,60.0,12.0,0.0
16976,78.0,48.0,180.0,5.0,0.0
16977,49.0,36.0,60.0,13.0,0.0
16978,61.0,0.0,60.0,12.0,0.0
16979,70.0,0.0,180.0,10.0,0.0
16980,61.0,0.0,180.0,10.0,0.0
16981,54.0,0.0,180.0,6.0,0.0
16982,66.0,0.0,180.0,5.0,0.0
16983,61.0,74.0,480.0,4.0,0.0
16984,49.0,0.0,480.0,4.0,0.0
16985,63.0,0.0,120.0,11.0,0.0
16986,75.0,120.0,120.0,8.0,0.0
16987,73.0,0.0,120.0,8.0,0.0
16988,61.0,60.0,120.0,11.0,0.0
16989,58.0,120.0,60.0,12.0,0.0
16990,46.0,0.0,60.0,13.0,0.0
16991,49.0,0.0,60.0,13.0,0.0
16992,61.0,46.0,60.0,12.0,0.0
16993,61.0,0.0,480.0,11.0,0.0
16994,53.0,120.0,60.0,13.0,0.0
16995,61.0,0.0,960.0,4.0,0.0
16996,73.0,120.0,480.0,8.0,0.0
16997,49.0,74.0,960.0,4.0,0.0
16998,65.0,0.0,60.0,12.0,0.0
16999,66.0,0.0,60.0,12.0,0.0
17000,54.0,120.0,60.0,13.0,0.0
17001,61.0,48.0,180.0,10.0,0.0
17002,70.0,0.0,180.0,10.0,0.0
17003,54.0,0.0,180.0,6.0,0.0
17004,54.0,0.0,60.0,13.0,0.0
17005,66.0,132.0,60.0,12.0,0.0
17006,66.0,0.0,180.0,5.0,0.0
17007,78.0,0.0,180.0,5.0,0.0
17008,80.0,120.0,120.0,8.0,0.0
17009,68.0,0.0,120.0,11.0,0.0
17010,66.0,0.0,120.0,11.0,0.0
17011,78.0,60.0,120.0,8.0,0.0
17012,54.0,120.0,60.0,11.0,0.0
17013,66.0,0.0,60.0,8.0,0.0
17014,57.0,46.0,60.0,11.0,0.0
17015,69.0,0.0,60.0,8.0,0.0
17016,57.0,0.0,480.0,3.0,0.0
17017,61.0,0.0,960.0,4.0,0.0
17018,49.0,74.0,960.0,4.0,0.0
17019,69.0,60.0,480.0,2.0,0.0
17020,60.0,0.0,60.0,11.0,0.0
17021,72.0,120.0,60.0,8.0,0.0
17022,73.0,0.0,60.0,8.0,0.0
17023,61.0,120.0,60.0,11.0,0.0
17024,66.0,0.0,60.0,10.0,0.0
17025,61.0,120.0,60.0,11.0,0.0
17026,54.0,48.0,180.0,6.0,0.0
17027,66.0,0.0,180.0,5.0,0.0
17028,78.0,0.0,180.0,5.0,0.0
17029,54.0,0.0,60.0,12.0,0.0
17030,42.0,0.0,60.0,13.0,0.0
17031,73.0,0.0,60.0,8.0,0.0
17032,45.0,12.0,60.0,13.0,0.0
17033,57.0,0.0,60.0,12.0,0.0
17034,69.0,0.0,60.0,10.0,0.0
17035,72.0,60.0,60.0,10.0,0.0
17036,62.0,0.0,120.0,3.0,0.0
17037,74.0,60.0,120.0,2.0,0.0
17038,60.0,0.0,60.0,12.0,0.0
17039,48.0,0.0,60.0,13.0,0.0
17040,73.0,60.0,60.0,10.0,0.0
17041,73.0,0.0,120.0,2.0,0.0
17042,49.0,0.0,60.0,13.0,0.0
17043,61.0,0.0,60.0,12.0,0.0
17044,61.0,60.0,120.0,3.0,0.0
17045,73.0,0.0,60.0,10.0,0.0
17046,57.0,0.0,60.0,11.0,0.0
17047,61.0,0.0,60.0,12.0,0.0
17048,69.0,120.0,60.0,8.0,0.0
17049,49.0,0.0,60.0,13.0,0.0
17050,73.0,0.0,60.0,8.0,0.0
17051,61.0,46.0,60.0,11.0,0.0
17052,65.0,120.0,60.0,11.0,0.0
17053,77.0,0.0,60.0,8.0,0.0
17054,73.0,60.0,480.0,1.0,0.0
17055,61.0,74.0,960.0,4.0,0.0
17056,49.0,0.0,960.0,4.0,0.0
17057,85.0,0.0,480.0,0.0,0.0
17058,66.0,120.0,60.0,11.0,0.0
17059,78.0,0.0,60.0,8.0,0.0
17060,69.0,0.0,60.0,10.0,0.0
17061,78.0,0.0,60.0,8.0,0.0
17062,66.0,0.0,180.0,5.0,0.0
17063,78.0,48.0,180.0,5.0,0.0
17064,54.0,0.0,180.0,6.0,0.0
17065,45.0,120.0,60.0,13.0,0.0
17066,57.0,0.0,60.0,12.0,0.0
17067,66.0,0.0,60.0,11.0,0.0
17068,73.0,0.0,60.0,10.0,0.0
17069,61.0,0.0,60.0,12.0,0.0
17070,49.0,12.0,60.0,13.0,0.0
17071,80.0,60.0,120.0,1.0,0.0
17072,53.0,0.0,60.0,13.0,0.0
17073,92.0,0.0,120.0,0.0,0.0
17074,65.0,0.0,60.0,12.0,0.0
17075,77.0,60.0,60.0,10.0,0.0
17076,66.0,0.0,60.0,12.0,0.0
17077,54.0,0.0,60.0,13.0,0.0
17078,78.0,60.0,60.0,10.0,0.0
17079,90.0,0.0,120.0,0.0,0.0
17080,78.0,60.0,120.0,1.0,0.0
17081,49.0,0.0,60.0,13.0,0.0
17082,73.0,120.0,60.0,10.0,0.0
17083,59.0,0.0,60.0,11.0,0.0
17084,61.0,0.0,60.0,12.0,0.0
17085,71.0,0.0,60.0,8.0,0.0
17086,77.0,46.0,60.0,8.0,0.0
17087,65.0,0.0,60.0,11.0,0.0
17088,80.0,120.0,60.0,8.0,0.0
17089,65.0,0.0,480.0,3.0,0.0
17090,77.0,60.0,480.0,2.0,0.0
17091,73.0,30.0,450.0,4.0,0.0
17092,49.0,0.0,960.0,4.0,0.0
17093,61.0,74.0,960.0,4.0,0.0
17094,68.0,0.0,60.0,11.0,0.0
17095,81.0,120.0,60.0,8.0,0.0
17096,69.0,0.0,60.0,11.0,0.0
17097,71.0,0.0,60.0,11.0,0.0
17098,68.0,120.0,60.0,10.0,0.0
17099,83.0,0.0,60.0,8.0,0.0
17100,56.0,0.0,60.0,12.0,0.0
17101,73.0,0.0,180.0,5.0,0.0
17102,61.0,0.0,180.0,5.0,0.0
17103,49.0,18.0,180.0,6.0,0.0
17104,44.0,0.0,60.0,13.0,0.0
17105,59.0,0.0,60.0,12.0,0.0
17106,47.0,0.0,60.0,13.0,0.0
17107,71.0,12.0,60.0,10.0,0.0
17108,81.0,60.0,120.0,2.0,0.0
17109,49.0,0.0,60.0,13.0,0.0
17110,73.0,0.0,60.0,10.0,0.0
17111,61.0,60.0,60.0,12.0,0.0
17112,73.0,48.0,180.0,4.0,0.0
17113,69.0,0.0,120.0,3.0,0.0
17114,53.0,12.0,60.0,13.0,0.0
17115,68.0,60.0,120.0,3.0,0.0
17116,77.0,0.0,60.0,10.0,0.0
17117,80.0,0.0,120.0,2.0,0.0
17118,65.0,0.0,60.0,12.0,0.0
17119,68.0,0.0,60.0,12.0,0.0
17120,59.0,120.0,60.0,8.0,0.0
17121,59.0,0.0,60.0,11.0,0.0
17122,80.0,0.0,60.0,10.0,0.0
17123,56.0,0.0,60.0,13.0,0.0
17124,53.0,46.0,60.0,11.0,0.0
17125,65.0,0.0,60.0,8.0,0.0
17126,68.0,0.0,60.0,8.0,0.0
17127,73.0,30.0,450.0,4.0,0.0
17128,61.0,0.0,900.0,4.0,0.0
17129,56.0,120.0,60.0,11.0,0.0
17130,80.0,0.0,480.0,1.0,0.0
17131,49.0,48.0,900.0,4.0,0.0
17132,68.0,60.0,480.0,2.0,0.0
17133,69.0,120.0,60.0,8.0,0.0
17134,57.0,0.0,60.0,11.0,0.0
17135,59.0,0.0,60.0,11.0,0.0
17136,47.0,0.0,60.0,12.0,0.0
17137,71.0,0.0,60.0,8.0,0.0
17138,59.0,120.0,60.0,10.0,0.0
17139,73.0,0.0,180.0,5.0,0.0
17140,35.0,0.0,60.0,13.0,0.0
17141,61.0,0.0,180.0,5.0,0.0
17142,49.0,18.0,180.0,6.0,0.0
17143,56.0,0.0,60.0,11.0,0.0
17144,68.0,12.0,60.0,8.0,0.0
17145,41.0,0.0,60.0,13.0,0.0
17146,65.0,0.0,60.0,10.0,0.0
17147,53.0,0.0,60.0,12.0,0.0
17148,56.0,0.0,60.0,11.0,0.0
17149,68.0,0.0,60.0,8.0,0.0
17150,77.0,0.0,240.0,1.0,0.0
17151,74.0,60.0,120.0,2.0,0.0
17152,65.0,60.0,60.0,10.0,0.0
17153,56.0,0.0,60.0,12.0,0.0
17154,71.0,60.0,240.0,3.0,0.0
17155,44.0,0.0,60.0,13.0,0.0
17156,86.0,0.0,120.0,1.0,0.0
17157,68.0,0.0,60.0,8.0,0.0
17158,65.0,0.0,60.0,10.0,0.0
17159,85.0,0.0,120.0,1.0,0.0
17160,47.0,0.0,60.0,13.0,0.0
17161,56.0,0.0,60.0,11.0,0.0
17162,59.0,60.0,60.0,12.0,0.0
17163,69.0,0.0,960.0,3.0,0.0
17164,73.0,132.0,60.0,8.0,0.0
17165,66.0,0.0,60.0,11.0,0.0
17166,85.0,0.0,1200.0,1.0,0.0
17167,73.0,0.0,15.0,2.0,0.0
17168,78.0,120.0,240.0,1.0,0.0
17169,45.0,0.0,60.0,13.0,0.0
17170,57.0,0.0,60.0,12.0,0.0
17171,73.0,0.0,60.0,10.0,0.0
17172,73.0,0.0,120.0,10.0,0.0
17173,77.0,120.0,240.0,1.0,0.0
17174,77.0,120.0,120.0,10.0,0.0
17175,73.0,0.0,120.0,10.0,0.0
17176,78.0,120.0,120.0,10.0,0.0
17177,78.0,120.0,480.0,1.0,0.0
17178,73.0,120.0,120.0,11.0,0.0
17179,78.0,120.0,120.0,11.0,0.0
17180,90.0,0.0,240.0,0.0,0.0
17181,73.0,0.0,120.0,11.0,0.0
17182,79.0,120.0,120.0,11.0,0.0
17183,70.0,120.0,240.0,3.0,0.0
17184,91.0,0.0,240.0,0.0,0.0
17185,79.0,0.0,240.0,1.0,0.0
17186,73.0,0.0,120.0,8.0,0.0
17187,92.0,0.0,240.0,0.0,0.0
17188,80.0,0.0,240.0,1.0,0.0
17189,85.0,48.0,180.0,1.0,0.0
17190,71.0,120.0,240.0,3.0,0.0
17191,80.0,60.0,120.0,8.0,0.0
17192,73.0,0.0,240.0,2.0,0.0
17193,73.0,0.0,120.0,8.0,0.0
17194,83.0,12.0,60.0,1.0,0.0
17195,92.0,0.0,180.0,0.0,0.0
17196,83.0,0.0,180.0,1.0,0.0
17197,80.0,72.0,120.0,8.0,0.0
17198,80.0,0.0,180.0,1.0,0.0
17199,65.0,0.0,180.0,3.0,0.0
17200,73.0,240.0,180.0,2.0,0.0
17201,83.0,0.0,180.0,1.0,0.0
17202,92.0,0.0,180.0,0.0,0.0
17203,73.0,274.0,180.0,2.0,0.0
17204,65.0,0.0,180.0,3.0,0.0
17205,80.0,0.0,180.0,1.0,0.0
17206,81.0,0.0,1140.0,2.0,0.0
17207,78.0,14.0,240.0,1.0,0.0
17208,66.0,0.0,1140.0,3.0,0.0
17209,54.0,0.0,1140.0,3.0,0.0
17210,93.0,0.0,1140.0,0.0,0.0
17211,62.0,120.0,120.0,10.0,0.0
17212,68.0,120.0,240.0,2.0,0.0
17213,68.0,106.0,120.0,10.0,0.0
17214,78.0,14.0,240.0,1.0,0.0
17215,68.0,0.0,240.0,4.0,0.0
17216,62.0,0.0,120.0,10.0,0.0
17217,69.0,120.0,120.0,10.0,0.0
17218,69.0,120.0,240.0,2.0,0.0
17219,69.0,0.0,660.0,4.0,0.0
17220,57.0,48.0,660.0,4.0,0.0
17221,69.0,0.0,120.0,11.0,0.0
17222,74.0,120.0,120.0,11.0,0.0
17223,86.0,0.0,240.0,1.0,0.0
17224,74.0,120.0,240.0,2.0,0.0
17225,69.0,0.0,120.0,11.0,0.0
17226,87.0,120.0,240.0,1.0,0.0
17227,75.0,72.0,120.0,11.0,0.0
17228,75.0,0.0,240.0,2.0,0.0
17229,69.0,0.0,120.0,8.0,0.0
17230,76.0,36.0,180.0,2.0,0.0
17231,61.0,0.0,180.0,3.0,0.0
17232,69.0,0.0,180.0,4.0,0.0
17233,76.0,24.0,120.0,8.0,0.0
17234,57.0,0.0,180.0,4.0,0.0
17235,88.0,0.0,180.0,1.0,0.0
17236,49.0,0.0,180.0,3.0,0.0
17237,93.0,48.0,150.0,0.0,0.0
17238,81.0,0.0,150.0,2.0,0.0
17239,69.0,120.0,120.0,8.0,0.0
17240,91.0,0.0,60.0,0.0,0.0
17241,79.0,12.0,60.0,2.0,0.0
17242,76.0,0.0,180.0,2.0,0.0
17243,88.0,0.0,180.0,1.0,0.0
17244,79.0,0.0,180.0,2.0,0.0
17245,57.0,0.0,180.0,4.0,0.0
17246,49.0,0.0,180.0,3.0,0.0
17247,61.0,240.0,180.0,3.0,0.0
17248,91.0,0.0,180.0,0.0,0.0
17249,69.0,0.0,180.0,4.0,0.0
17250,76.0,72.0,120.0,8.0,0.0
17251,91.0,0.0,180.0,0.0,0.0
17252,61.0,0.0,180.0,3.0,0.0
17253,49.0,288.0,180.0,3.0,0.0
17254,57.0,0.0,180.0,4.0,0.0
17255,79.0,0.0,180.0,2.0,0.0
17256,88.0,0.0,180.0,1.0,0.0
17257,69.0,0.0,180.0,4.0,0.0
17258,76.0,0.0,180.0,2.0,0.0
17259,78.0,0.0,390.0,5.0,0.0
17260,54.0,0.0,390.0,6.0,0.0
17261,66.0,96.0,390.0,5.0,0.0
17262,78.0,0.0,720.0,10.0,0.0
17263,78.0,0.0,720.0,14.0,0.0
17264,38.0,0.0,720.0,13.0,0.0
17265,90.0,0.0,720.0,8.0,0.0
17266,90.0,0.0,1530.0,0.0,0.0
17267,90.0,0.0,720.0,14.0,0.0
17268,78.0,24.0,1530.0,1.0,0.0
17269,50.0,72.0,780.0,3.0,0.0
17270,50.0,48.0,720.0,15.0,0.0
17271,54.0,0.0,1050.0,4.0,0.0
17272,66.0,0.0,1050.0,4.0,0.0
17273,38.0,0.0,720.0,15.0,0.0
17274,54.0,120.0,120.0,11.0,0.0
17275,56.0,24.0,120.0,11.0,0.0
17276,58.0,120.0,120.0,11.0,0.0
17277,59.0,120.0,120.0,11.0,0.0
17278,61.0,0.0,120.0,11.0,0.0
17279,89.0,0.0,240.0,8.0,0.0
17280,62.0,72.0,120.0,11.0,0.0
17281,77.0,48.0,180.0,10.0,0.0
17282,49.0,72.0,360.0,13.0,0.0
17283,65.0,96.0,120.0,11.0,0.0
17284,66.0,0.0,570.0,2.0,0.0
17285,66.0,0.0,120.0,11.0,0.0
17286,61.0,0.0,90.0,3.0,0.0
17287,78.0,0.0,570.0,2.0,0.0
17288,49.0,24.0,90.0,3.0,0.0
17289,54.0,0.0,180.0,6.0,0.0
17290,78.0,24.0,180.0,5.0,0.0
17291,66.0,0.0,180.0,5.0,0.0
17292,88.0,0.0,120.0,8.0,0.0
17293,76.0,0.0,120.0,10.0,0.0
17294,68.0,0.0,120.0,11.0,0.0
17295,54.0,0.0,210.0,4.0,0.0
17296,86.0,96.0,120.0,8.0,0.0
17297,66.0,0.0,210.0,4.0,0.0
17298,47.0,0.0,90.0,3.0,0.0
17299,47.0,0.0,120.0,13.0,0.0
17300,74.0,0.0,120.0,10.0,0.0
17301,59.0,24.0,90.0,3.0,0.0
17302,58.0,0.0,90.0,3.0,0.0
17303,70.0,0.0,120.0,11.0,0.0
17304,46.0,24.0,90.0,3.0,0.0
17305,85.0,72.0,120.0,8.0,0.0
17306,46.0,0.0,120.0,13.0,0.0
17307,54.0,24.0,180.0,6.0,0.0
17308,66.0,0.0,180.0,5.0,0.0
17309,78.0,0.0,180.0,5.0,0.0
17310,73.0,0.0,120.0,10.0,0.0
17311,66.0,0.0,210.0,4.0,0.0
17312,71.0,96.0,120.0,10.0,0.0
17313,44.0,0.0,120.0,13.0,0.0
17314,54.0,0.0,210.0,4.0,0.0
17315,43.0,24.0,90.0,3.0,0.0
17316,83.0,0.0,120.0,8.0,0.0
17317,55.0,0.0,90.0,3.0,0.0
17318,71.0,0.0,120.0,11.0,0.0
17319,54.0,48.0,180.0,6.0,0.0
17320,54.0,0.0,90.0,3.0,0.0
17321,78.0,0.0,180.0,5.0,0.0
17322,66.0,0.0,180.0,5.0,0.0
17323,82.0,0.0,120.0,8.0,0.0
17324,42.0,72.0,120.0,13.0,0.0
17325,42.0,0.0,90.0,3.0,0.0
17326,73.0,0.0,120.0,11.0,0.0
17327,70.0,0.0,120.0,10.0,0.0
17328,54.0,24.0,210.0,4.0,0.0
17329,58.0,0.0,120.0,3.0,0.0
17330,54.0,0.0,180.0,3.0,0.0
17331,66.0,0.0,210.0,4.0,0.0
17332,70.0,0.0,120.0,1.0,0.0
17333,61.0,0.0,120.0,11.0,0.0
17334,66.0,0.0,180.0,2.0,0.0
17335,82.0,0.0,120.0,0.0,0.0
17336,78.0,0.0,180.0,0.0,0.0
17337,79.0,0.0,120.0,8.0,0.0
17338,52.0,72.0,120.0,13.0,0.0
17339,70.0,0.0,120.0,2.0,0.0
17340,67.0,0.0,120.0,10.0,0.0
17341,78.0,72.0,120.0,8.0,0.0
17342,71.0,0.0,60.0,2.0,0.0
17343,54.0,0.0,180.0,6.0,0.0
17344,66.0,0.0,180.0,5.0,0.0
17345,78.0,48.0,180.0,5.0,0.0
17346,51.0,0.0,120.0,13.0,0.0
17347,66.0,0.0,120.0,10.0,0.0
17348,71.0,24.0,60.0,1.0,0.0
17349,59.0,0.0,60.0,3.0,0.0
17350,62.0,0.0,120.0,11.0,0.0
17351,83.0,0.0,60.0,0.0,0.0
17352,64.0,0.0,120.0,11.0,0.0
17353,73.0,0.0,120.0,2.0,0.0
17354,70.0,96.0,120.0,2.0,0.0
17355,66.0,0.0,210.0,4.0,0.0
17356,73.0,0.0,120.0,1.0,0.0
17357,49.0,0.0,120.0,13.0,0.0
17358,58.0,0.0,120.0,3.0,0.0
17359,61.0,0.0,120.0,3.0,0.0
17360,54.0,24.0,210.0,4.0,0.0
17361,85.0,0.0,120.0,0.0,0.0
17362,76.0,0.0,120.0,8.0,0.0
17363,64.0,0.0,120.0,10.0,0.0
17364,59.0,96.0,120.0,11.0,0.0
17365,78.0,0.0,90.0,5.0,0.0
17366,66.0,0.0,90.0,5.0,0.0
17367,62.0,0.0,120.0,10.0,0.0
17368,47.0,0.0,120.0,13.0,0.0
17369,74.0,0.0,90.0,1.0,0.0
17370,54.0,0.0,90.0,6.0,0.0
17371,74.0,0.0,120.0,8.0,0.0
17372,86.0,0.0,90.0,0.0,0.0
17373,74.0,0.0,90.0,2.0,0.0
17374,62.0,0.0,90.0,3.0,0.0
17375,59.0,0.0,120.0,12.0,0.0
17376,88.0,96.0,120.0,0.0,0.0
17377,54.0,0.0,90.0,6.0,0.0
17378,45.0,0.0,120.0,13.0,0.0
17379,76.0,0.0,120.0,1.0,0.0
17380,57.0,0.0,120.0,12.0,0.0
17381,73.0,0.0,120.0,8.0,0.0
17382,66.0,0.0,210.0,5.0,0.0
17383,78.0,0.0,210.0,5.0,0.0
17384,76.0,0.0,120.0,2.0,0.0
17385,61.0,0.0,120.0,10.0,0.0
17386,66.0,0.0,210.0,4.0,0.0
17387,71.0,24.0,90.0,4.0,0.0
17388,54.0,0.0,210.0,4.0,0.0
17389,57.0,0.0,120.0,11.0,0.0
17390,64.0,0.0,120.0,3.0,0.0
17391,90.0,0.0,90.0,0.0,0.0
17392,71.0,0.0,120.0,8.0,0.0
17393,78.0,24.0,90.0,2.0,0.0
17394,66.0,0.0,90.0,3.0,0.0
17395,59.0,96.0,120.0,10.0,0.0
17396,78.0,0.0,90.0,1.0,0.0
17397,56.0,0.0,120.0,11.0,0.0
17398,44.0,0.0,120.0,13.0,0.0
17399,54.0,0.0,90.0,6.0,0.0
17400,56.0,0.0,120.0,12.0,0.0
17401,71.0,0.0,90.0,4.0,0.0
17402,92.0,0.0,120.0,0.0,0.0
17403,69.0,0.0,120.0,8.0,0.0
17404,54.0,96.0,120.0,12.0,0.0
17405,78.0,0.0,210.0,5.0,0.0
17406,80.0,0.0,120.0,2.0,0.0
17407,71.0,24.0,90.0,4.0,0.0
17408,66.0,0.0,210.0,4.0,0.0
17409,42.0,0.0,120.0,13.0,0.0
17410,80.0,0.0,120.0,1.0,0.0
17411,54.0,0.0,120.0,11.0,0.0
17412,66.0,0.0,210.0,5.0,0.0
17413,54.0,0.0,210.0,4.0,0.0
17414,68.0,0.0,120.0,3.0,0.0
17415,54.0,0.0,90.0,6.0,0.0
17416,69.0,24.0,90.0,3.0,0.0
17417,52.0,0.0,120.0,11.0,0.0
17418,71.0,0.0,90.0,4.0,0.0
17419,54.0,0.0,90.0,6.0,0.0
17420,81.0,0.0,90.0,1.0,0.0
17421,40.0,0.0,120.0,13.0,0.0
17422,81.0,0.0,90.0,2.0,0.0
17423,93.0,0.0,90.0,0.0,0.0
17424,52.0,0.0,120.0,12.0,0.0
17425,68.0,96.0,120.0,8.0,0.0
17426,83.0,96.0,120.0,1.0,0.0
17427,54.0,0.0,210.0,4.0,0.0
17428,54.0,0.0,90.0,6.0,0.0
17429,38.0,0.0,120.0,13.0,0.0
17430,62.0,0.0,120.0,11.0,0.0
17431,50.0,0.0,120.0,12.0,0.0
17432,66.0,0.0,210.0,5.0,0.0
17433,78.0,0.0,210.0,5.0,0.0
17434,95.0,0.0,120.0,0.0,0.0
17435,66.0,0.0,120.0,8.0,0.0
17436,71.0,0.0,120.0,3.0,0.0
17437,83.0,0.0,120.0,2.0,0.0
17438,66.0,0.0,210.0,4.0,0.0
17439,71.0,24.0,90.0,4.0,0.0
17440,61.0,0.0,120.0,11.0,0.0
17441,64.0,96.0,120.0,8.0,0.0
17442,85.0,0.0,90.0,1.0,0.0
17443,37.0,0.0,120.0,13.0,0.0
17444,54.0,0.0,90.0,6.0,0.0
17445,49.0,0.0,120.0,12.0,0.0
17446,71.0,0.0,90.0,4.0,0.0
17447,73.0,0.0,90.0,3.0,0.0
17448,97.0,24.0,90.0,0.0,0.0
17449,85.0,0.0,90.0,2.0,0.0
17450,86.0,0.0,120.0,2.0,0.0
17451,35.0,0.0,120.0,13.0,0.0
17452,47.0,60.0,120.0,12.0,0.0
17453,74.0,0.0,120.0,3.0,0.0
17454,66.0,24.0,90.0,5.0,0.0
17455,66.0,0.0,90.0,4.0,0.0
17456,54.0,0.0,90.0,4.0,0.0
17457,86.0,0.0,120.0,1.0,0.0
17458,54.0,0.0,90.0,6.0,0.0
17459,98.0,0.0,120.0,0.0,0.0
17460,78.0,0.0,90.0,5.0,0.0
17461,71.0,0.0,90.0,4.0,0.0
17462,59.0,0.0,120.0,11.0,0.0
17463,62.0,0.0,120.0,8.0,0.0
17464,66.0,0.0,120.0,10.0,0.0
17465,49.0,0.0,60.0,3.0,0.0
17466,61.0,0.0,120.0,8.0,0.0
17467,57.0,0.0,60.0,11.0,0.0
17468,61.0,60.0,60.0,3.0,0.0
17469,49.0,0.0,180.0,12.0,0.0
17470,69.0,0.0,120.0,4.0,0.0
17471,73.0,0.0,120.0,5.0,0.0
17472,61.0,0.0,120.0,5.0,0.0
17473,81.0,1.0,120.0,0.0,0.0
17474,37.0,0.0,180.0,13.0,0.0
17475,49.0,108.0,180.0,6.0,0.0
17476,73.0,0.0,120.0,1.0,0.0
17477,73.0,0.0,120.0,4.0,0.0
17478,66.0,0.0,120.0,4.0,0.0
17479,73.0,12.0,60.0,3.0,0.0
17480,61.0,0.0,60.0,11.0,0.0
17481,74.0,0.0,15.0,2.0,0.0
17482,61.0,0.0,60.0,3.0,0.0
17483,86.0,59.0,15.0,2.0,0.0
17484,90.0,0.0,120.0,0.0,0.0
17485,93.0,0.0,120.0,0.0,0.0
17486,73.0,0.0,120.0,8.0,0.0
17487,81.0,0.0,120.0,8.0,0.0
17488,81.0,0.0,120.0,1.0,0.0
17489,90.0,0.0,120.0,1.0,0.0
17490,57.0,0.0,60.0,3.0,0.0
17491,78.0,0.0,120.0,10.0,0.0
17492,69.0,0.0,120.0,10.0,0.0
17493,61.0,0.0,180.0,5.0,0.0
17494,66.0,60.0,60.0,11.0,0.0
17495,78.0,0.0,120.0,2.0,0.0
17496,49.0,108.0,180.0,6.0,0.0
17497,73.0,0.0,180.0,5.0,0.0
17498,81.0,60.0,120.0,2.0,0.0
17499,69.0,0.0,60.0,3.0,0.0
17500,66.0,12.0,60.0,3.0,0.0
17501,54.0,0.0,60.0,3.0,0.0
17502,69.0,0.0,60.0,11.0,0.0
17503,61.0,0.0,60.0,3.0,0.0
17504,49.0,60.0,60.0,3.0,0.0
17505,49.0,0.0,180.0,13.0,0.0
17506,61.0,0.0,120.0,4.0,0.0
17507,73.0,60.0,120.0,4.0,0.0
17508,61.0,108.0,180.0,12.0,0.0
17509,65.0,0.0,60.0,11.0,0.0
17510,68.0,0.0,120.0,4.0,0.0
17511,65.0,0.0,60.0,3.0,0.0
17512,68.0,12.0,60.0,11.0,0.0
17513,53.0,0.0,60.0,3.0,0.0
17514,73.0,0.0,120.0,10.0,0.0
17515,73.0,0.0,120.0,8.0,0.0
17516,85.0,0.0,120.0,8.0,0.0
17517,80.0,0.0,120.0,2.0,0.0
17518,77.0,0.0,120.0,2.0,0.0
17519,68.0,60.0,60.0,3.0,0.0
17520,56.0,0.0,60.0,3.0,0.0
17521,85.0,0.0,120.0,0.0,0.0
17522,97.0,0.0,120.0,0.0,0.0
17523,77.0,0.0,120.0,10.0,0.0
17524,49.0,288.0,180.0,6.0,0.0
17525,71.0,0.0,60.0,11.0,0.0
17526,80.0,0.0,120.0,1.0,0.0
17527,61.0,0.0,120.0,5.0,0.0
17528,89.0,0.0,120.0,1.0,0.0
17529,73.0,60.0,120.0,5.0,0.0
17530,73.0,12.0,60.0,3.0,0.0
17531,61.0,0.0,60.0,3.0,0.0
17532,77.0,0.0,60.0,11.0,0.0
17533,90.0,120.0,720.0,14.0,0.0
17534,90.0,0.0,720.0,8.0,0.0
17535,38.0,0.0,720.0,15.0,0.0
17536,78.0,0.0,720.0,10.0,0.0
17537,50.0,0.0,720.0,15.0,0.0
17538,54.0,0.0,1050.0,4.0,0.0
17539,66.0,24.0,1050.0,4.0,0.0
17540,38.0,0.0,720.0,13.0,0.0
17541,78.0,0.0,720.0,14.0,0.0
17542,54.0,120.0,120.0,11.0,0.0
17543,78.0,0.0,180.0,5.0,0.0
17544,54.0,48.0,180.0,6.0,0.0
17545,56.0,72.0,120.0,11.0,0.0
17546,66.0,0.0,180.0,5.0,0.0
17547,58.0,120.0,120.0,11.0,0.0
17548,59.0,120.0,120.0,11.0,0.0
17549,61.0,0.0,120.0,11.0,0.0
17550,78.0,0.0,180.0,5.0,0.0
17551,66.0,48.0,180.0,5.0,0.0
17552,77.0,96.0,240.0,10.0,0.0
17553,49.0,0.0,360.0,13.0,0.0
17554,54.0,0.0,180.0,6.0,0.0
17555,62.0,72.0,120.0,11.0,0.0
17556,89.0,0.0,240.0,8.0,0.0
17557,65.0,0.0,120.0,11.0,0.0
17558,76.0,0.0,120.0,10.0,0.0
17559,88.0,120.0,120.0,8.0,0.0
17560,66.0,0.0,120.0,11.0,0.0
17561,61.0,0.0,120.0,12.0,0.0
17562,74.0,0.0,120.0,10.0,0.0
17563,54.0,0.0,210.0,4.0,0.0
17564,47.0,0.0,120.0,13.0,0.0
17565,86.0,0.0,120.0,8.0,0.0
17566,62.0,0.0,120.0,12.0,0.0
17567,68.0,96.0,120.0,11.0,0.0
17568,66.0,24.0,210.0,4.0,0.0
17569,64.0,72.0,120.0,12.0,0.0
17570,46.0,0.0,120.0,13.0,0.0
17571,54.0,0.0,180.0,6.0,0.0
17572,85.0,0.0,120.0,8.0,0.0
17573,70.0,0.0,120.0,11.0,0.0
17574,73.0,0.0,120.0,10.0,0.0
17575,66.0,0.0,180.0,5.0,0.0
17576,78.0,48.0,180.0,5.0,0.0
17577,54.0,24.0,210.0,4.0,0.0
17578,66.0,0.0,210.0,4.0,0.0
17579,83.0,96.0,120.0,8.0,0.0
17580,71.0,0.0,120.0,11.0,0.0
17581,64.0,0.0,120.0,12.0,0.0
17582,44.0,0.0,120.0,13.0,0.0
17583,71.0,0.0,120.0,10.0,0.0
17584,42.0,0.0,120.0,13.0,0.0
17585,70.0,0.0,120.0,10.0,0.0
17586,73.0,0.0,120.0,11.0,0.0
17587,82.0,0.0,120.0,8.0,0.0
17588,79.0,0.0,120.0,8.0,0.0
17589,54.0,24.0,210.0,4.0,0.0
17590,82.0,0.0,120.0,2.0,0.0
17591,70.0,0.0,120.0,2.0,0.0
17592,67.0,0.0,120.0,10.0,0.0
17593,66.0,0.0,210.0,4.0,0.0
17594,61.0,0.0,120.0,11.0,0.0
17595,66.0,120.0,15.0,12.0,0.0
17596,40.0,0.0,120.0,13.0,0.0
17597,78.0,0.0,120.0,8.0,0.0
17598,62.0,0.0,120.0,11.0,0.0
17599,52.0,0.0,120.0,3.0,0.0
17600,66.0,24.0,180.0,5.0,0.0
17601,78.0,0.0,180.0,5.0,0.0
17602,66.0,0.0,120.0,10.0,0.0
17603,54.0,0.0,180.0,6.0,0.0
17604,39.0,72.0,120.0,13.0,0.0
17605,68.0,0.0,120.0,12.0,0.0
17606,83.0,0.0,120.0,2.0,0.0
17607,71.0,0.0,120.0,2.0,0.0
17608,70.0,0.0,120.0,12.0,0.0
17609,64.0,0.0,120.0,11.0,0.0
17610,50.0,0.0,120.0,3.0,0.0
17611,85.0,0.0,120.0,2.0,0.0
17612,73.0,0.0,120.0,2.0,0.0
17613,37.0,0.0,120.0,13.0,0.0
17614,64.0,0.0,120.0,10.0,0.0
17615,76.0,96.0,120.0,8.0,0.0
17616,54.0,24.0,90.0,4.0,0.0
17617,66.0,0.0,90.0,4.0,0.0
17618,59.0,0.0,960.0,3.0,0.0
17619,74.0,96.0,720.0,2.0,0.0
17620,86.0,0.0,720.0,2.0,0.0
17621,35.0,0.0,90.0,13.0,0.0
17622,71.0,0.0,90.0,12.0,0.0
17623,47.0,0.0,960.0,3.0,0.0
17624,62.0,0.0,1050.0,4.0,0.0
17625,50.0,6.0,1050.0,4.0,0.0
17626,62.0,120.0,90.0,10.0,0.0
17627,62.0,24.0,90.0,10.0,0.0
17628,50.0,96.0,120.0,12.0,0.0
17629,64.0,0.0,90.0,10.0,0.0
17630,52.0,120.0,90.0,12.0,0.0
17631,54.0,96.0,120.0,12.0,0.0
17632,66.0,24.0,90.0,10.0,0.0
17633,67.0,120.0,90.0,10.0,0.0
17634,55.0,0.0,90.0,12.0,0.0
17635,57.0,0.0,120.0,12.0,0.0
17636,69.0,24.0,90.0,10.0,0.0
17637,85.0,96.0,240.0,2.0,0.0
17638,59.0,120.0,90.0,12.0,0.0
17639,71.0,0.0,90.0,10.0,0.0
17640,73.0,0.0,240.0,2.0,0.0
17641,61.0,0.0,120.0,12.0,0.0
17642,73.0,24.0,90.0,10.0,0.0
17643,72.0,0.0,90.0,3.0,0.0
17644,60.0,12.0,90.0,3.0,0.0
17645,72.0,0.0,90.0,2.0,0.0
17646,84.0,0.0,90.0,2.0,0.0
17647,74.0,126.0,120.0,10.0,0.0
17648,62.0,0.0,90.0,12.0,0.0
17649,71.0,96.0,120.0,2.0,0.0
17650,62.0,0.0,120.0,11.0,0.0
17651,83.0,0.0,120.0,2.0,0.0
17652,71.0,0.0,120.0,3.0,0.0
17653,59.0,0.0,120.0,3.0,0.0
17654,62.0,6.0,210.0,4.0,0.0
17655,74.0,0.0,120.0,10.0,0.0
17656,50.0,0.0,210.0,4.0,0.0
17657,86.0,0.0,120.0,8.0,0.0
17658,69.0,138.0,90.0,2.0,0.0
17659,81.0,0.0,90.0,2.0,0.0
17660,88.0,0.0,90.0,8.0,0.0
17661,76.0,0.0,90.0,10.0,0.0
17662,64.0,0.0,90.0,11.0,0.0
17663,57.0,0.0,90.0,3.0,0.0
17664,69.0,0.0,90.0,3.0,0.0
17665,79.0,0.0,120.0,2.0,0.0
17666,62.0,0.0,210.0,4.0,0.0
17667,90.0,0.0,120.0,8.0,0.0
17668,50.0,6.0,210.0,4.0,0.0
17669,66.0,0.0,120.0,11.0,0.0
17670,78.0,0.0,120.0,10.0,0.0
17671,67.0,0.0,120.0,2.0,0.0
17672,67.0,0.0,120.0,3.0,0.0
17673,55.0,96.0,120.0,3.0,0.0
17674,67.0,0.0,90.0,11.0,0.0
17675,91.0,0.0,90.0,8.0,0.0
17676,66.0,138.0,90.0,2.0,0.0
17677,78.0,0.0,90.0,2.0,0.0
17678,66.0,0.0,90.0,3.0,0.0
17679,54.0,0.0,90.0,3.0,0.0
17680,79.0,0.0,90.0,10.0,0.0
17681,50.0,0.0,210.0,4.0,0.0
17682,62.0,6.0,210.0,4.0,0.0
17683,69.0,0.0,120.0,11.0,0.0
17684,93.0,0.0,120.0,8.0,0.0
17685,81.0,0.0,120.0,10.0,0.0
17686,52.0,0.0,120.0,3.0,0.0
17687,76.0,0.0,120.0,2.0,0.0
17688,64.0,96.0,120.0,2.0,0.0
17689,64.0,0.0,120.0,3.0,0.0
17690,83.0,0.0,90.0,10.0,0.0
17691,62.0,0.0,90.0,3.0,0.0
17692,50.0,114.0,90.0,3.0,0.0
17693,95.0,0.0,90.0,8.0,0.0
17694,71.0,0.0,90.0,11.0,0.0
17695,74.0,0.0,90.0,2.0,0.0
17696,62.0,0.0,90.0,2.0,0.0
17697,60.0,0.0,120.0,3.0,0.0
17698,96.0,96.0,120.0,8.0,0.0
17699,48.0,0.0,120.0,3.0,0.0
17700,50.0,24.0,90.0,4.0,0.0
17701,84.0,0.0,120.0,10.0,0.0
17702,72.0,0.0,120.0,2.0,0.0
17703,60.0,0.0,120.0,2.0,0.0
17704,72.0,0.0,120.0,11.0,0.0
17705,62.0,0.0,90.0,4.0,0.0
17706,59.0,138.0,90.0,2.0,0.0
17707,55.0,0.0,450.0,3.0,0.0
17708,43.0,30.0,450.0,3.0,0.0
17709,71.0,0.0,90.0,2.0,0.0
17710,95.0,0.0,720.0,0.0,0.0
17711,83.0,0.0,1050.0,1.0,0.0
17712,71.0,0.0,1050.0,1.0,0.0
17713,67.0,6.0,570.0,4.0,0.0
17714,71.0,6.0,90.0,11.0,0.0
17715,83.0,0.0,90.0,10.0,0.0
17716,55.0,48.0,720.0,13.0,0.0
17717,83.0,0.0,720.0,8.0,0.0
17718,95.0,0.0,720.0,8.0,0.0
17719,83.0,0.0,720.0,0.0,0.0
17720,71.0,54.0,780.0,4.0,0.0
17721,59.0,0.0,120.0,11.0,0.0
17722,62.0,0.0,120.0,2.0,0.0
17723,74.0,102.0,120.0,2.0,0.0
17724,60.0,0.0,90.0,11.0,0.0
17725,64.0,0.0,90.0,2.0,0.0
17726,76.0,108.0,90.0,2.0,0.0
17727,62.0,96.0,120.0,2.0,0.0
17728,62.0,0.0,120.0,11.0,0.0
17729,74.0,0.0,120.0,2.0,0.0
17730,64.0,138.0,90.0,2.0,0.0
17731,76.0,0.0,90.0,2.0,0.0
17732,64.0,0.0,90.0,11.0,0.0
17733,78.0,0.0,120.0,2.0,0.0
17734,66.0,0.0,120.0,11.0,0.0
17735,66.0,0.0,120.0,2.0,0.0
17736,93.0,0.0,240.0,0.0,0.0
17737,81.0,0.0,240.0,0.0,0.0
17738,54.0,0.0,180.0,3.0,0.0
17739,42.0,0.0,180.0,3.0,0.0
17740,81.0,0.0,240.0,8.0,0.0
17741,93.0,0.0,240.0,8.0,0.0
17742,68.0,0.0,90.0,11.0,0.0
17743,54.0,0.0,240.0,13.0,0.0
17744,66.0,0.0,180.0,4.0,0.0
17745,54.0,48.0,180.0,4.0,0.0
17746,68.0,90.0,90.0,2.0,0.0
17747,80.0,0.0,90.0,2.0,0.0
17748,69.0,96.0,120.0,11.0,0.0
17749,81.0,0.0,120.0,2.0,0.0
17750,69.0,0.0,120.0,2.0,0.0
17751,65.0,0.0,90.0,3.0,0.0
17752,53.0,18.0,90.0,3.0,0.0
17753,49.0,0.0,90.0,6.0,0.0
17754,61.0,0.0,90.0,5.0,0.0
17755,65.0,0.0,120.0,12.0,0.0
17756,53.0,96.0,120.0,13.0,0.0
17757,61.0,0.0,90.0,4.0,0.0
17758,73.0,6.0,90.0,5.0,0.0
17759,80.0,0.0,90.0,0.0,0.0
17760,92.0,0.0,90.0,0.0,0.0
17761,92.0,0.0,90.0,8.0,0.0
17762,80.0,0.0,90.0,8.0,0.0
17763,73.0,0.0,90.0,4.0,0.0
17764,83.0,0.0,90.0,2.0,0.0
17765,71.0,0.0,90.0,2.0,0.0
17766,92.0,0.0,120.0,0.0,0.0
17767,78.0,96.0,120.0,8.0,0.0
17768,90.0,0.0,120.0,8.0,0.0
17769,71.0,0.0,120.0,2.0,0.0
17770,80.0,0.0,120.0,0.0,0.0
17771,61.0,6.0,210.0,4.0,0.0
17772,73.0,0.0,210.0,4.0,0.0
17773,68.0,0.0,120.0,1.0,0.0
17774,80.0,6.0,120.0,1.0,0.0
17775,50.0,0.0,120.0,13.0,0.0
17776,62.0,0.0,120.0,3.0,0.0
17777,50.0,0.0,120.0,3.0,0.0
17778,62.0,0.0,120.0,12.0,0.0
17779,49.0,0.0,90.0,6.0,0.0
17780,61.0,18.0,90.0,5.0,0.0
17781,73.0,0.0,90.0,5.0,0.0
17782,49.0,0.0,90.0,3.0,0.0
17783,61.0,0.0,90.0,3.0,0.0
17784,49.0,0.0,90.0,6.0,0.0
17785,81.0,6.0,120.0,1.0,0.0
17786,69.0,0.0,120.0,1.0,0.0
17787,71.0,0.0,90.0,2.0,0.0
17788,83.0,0.0,15.0,2.0,0.0
17789,61.0,0.0,120.0,12.0,0.0
17790,61.0,0.0,90.0,5.0,0.0
17791,73.0,0.0,90.0,5.0,0.0
17792,49.0,96.0,120.0,13.0,0.0
17793,81.0,12.0,90.0,0.0,0.0
17794,89.0,0.0,90.0,8.0,0.0
17795,77.0,0.0,90.0,8.0,0.0
17796,93.0,0.0,90.0,0.0,0.0
17797,59.0,96.0,120.0,12.0,0.0
17798,47.0,0.0,120.0,13.0,0.0
17799,49.0,18.0,90.0,6.0,0.0
17800,83.0,0.0,120.0,0.0,0.0
17801,85.0,0.0,120.0,2.0,0.0
17802,83.0,0.0,120.0,1.0,0.0
17803,71.0,6.0,120.0,1.0,0.0
17804,73.0,0.0,90.0,5.0,0.0
17805,61.0,0.0,90.0,5.0,0.0
17806,61.0,0.0,210.0,4.0,0.0
17807,73.0,0.0,210.0,4.0,0.0
17808,86.0,0.0,120.0,8.0,0.0
17809,74.0,0.0,120.0,8.0,0.0
17810,95.0,0.0,120.0,0.0,0.0
17811,73.0,0.0,120.0,2.0,0.0
17812,47.0,0.0,120.0,3.0,0.0
17813,59.0,0.0,120.0,3.0,0.0
17814,57.0,0.0,90.0,3.0,0.0
17815,85.0,0.0,120.0,1.0,0.0
17816,73.0,6.0,120.0,1.0,0.0
17817,97.0,0.0,90.0,0.0,0.0
17818,85.0,12.0,90.0,0.0,0.0
17819,57.0,96.0,120.0,12.0,0.0
17820,73.0,0.0,90.0,2.0,0.0
17821,73.0,0.0,90.0,5.0,0.0
17822,49.0,6.0,90.0,6.0,0.0
17823,61.0,0.0,90.0,5.0,0.0
17824,45.0,0.0,120.0,13.0,0.0
17825,73.0,0.0,90.0,8.0,0.0
17826,85.0,0.0,90.0,8.0,0.0
17827,45.0,0.0,90.0,3.0,0.0
17828,85.0,0.0,90.0,2.0,0.0
17829,61.0,0.0,210.0,4.0,0.0
17830,89.0,6.0,120.0,1.0,0.0
17831,77.0,0.0,120.0,1.0,0.0
17832,49.0,0.0,90.0,6.0,0.0
17833,97.0,0.0,120.0,0.0,0.0
17834,44.0,0.0,120.0,3.0,0.0
17835,71.0,0.0,120.0,8.0,0.0
17836,85.0,0.0,120.0,0.0,0.0
17837,56.0,0.0,120.0,3.0,0.0
17838,83.0,0.0,120.0,8.0,0.0
17839,73.0,0.0,210.0,4.0,0.0
17840,61.0,0.0,90.0,5.0,0.0
17841,73.0,18.0,90.0,5.0,0.0
17842,44.0,0.0,120.0,13.0,0.0
17843,56.0,96.0,120.0,12.0,0.0
17844,61.0,6.0,90.0,5.0,0.0
17845,81.0,0.0,90.0,8.0,0.0
17846,73.0,0.0,90.0,5.0,0.0
17847,42.0,96.0,120.0,13.0,0.0
17848,97.0,0.0,90.0,0.0,0.0
17849,85.0,0.0,90.0,0.0,0.0
17850,54.0,0.0,120.0,12.0,0.0
17851,54.0,0.0,90.0,3.0,0.0
17852,85.0,0.0,15.0,2.0,0.0
17853,73.0,0.0,15.0,2.0,0.0
17854,78.0,6.0,120.0,1.0,0.0
17855,69.0,0.0,90.0,8.0,0.0
17856,90.0,0.0,120.0,1.0,0.0
17857,42.0,0.0,90.0,3.0,0.0
17858,49.0,0.0,90.0,6.0,0.0
17859,80.0,6.0,120.0,1.0,0.0
17860,61.0,0.0,90.0,5.0,0.0
17861,68.0,0.0,120.0,8.0,0.0
17862,73.0,0.0,90.0,5.0,0.0
17863,80.0,120.0,120.0,8.0,0.0
17864,85.0,0.0,120.0,1.0,0.0
17865,53.0,0.0,120.0,3.0,0.0
17866,73.0,0.0,120.0,2.0,0.0
17867,85.0,0.0,120.0,2.0,0.0
17868,61.0,0.0,90.0,4.0,0.0
17869,49.0,0.0,90.0,6.0,0.0
17870,41.0,0.0,120.0,13.0,0.0
17871,53.0,0.0,120.0,12.0,0.0
17872,73.0,18.0,90.0,4.0,0.0
17873,41.0,0.0,120.0,3.0,0.0
17874,85.0,0.0,120.0,8.0,0.0
17875,45.0,0.0,120.0,3.0,0.0
17876,61.0,0.0,120.0,4.0,0.0
17877,73.0,0.0,120.0,2.0,0.0
17878,85.0,0.0,120.0,2.0,0.0
17879,73.0,0.0,120.0,5.0,0.0
17880,61.0,0.0,120.0,5.0,0.0
17881,85.0,0.0,120.0,1.0,0.0
17882,73.0,0.0,120.0,1.0,0.0
17883,61.0,0.0,120.0,11.0,0.0
17884,57.0,0.0,120.0,12.0,0.0
17885,73.0,210.0,120.0,4.0,0.0
17886,45.0,0.0,120.0,13.0,0.0
17887,97.0,0.0,15.0,0.0,0.0
17888,85.0,0.0,15.0,0.0,0.0
17889,49.0,0.0,120.0,6.0,0.0
17890,73.0,0.0,120.0,10.0,0.0
17891,84.0,120.0,90.0,0.0,0.0
17892,78.0,0.0,90.0,5.0,0.0
17893,96.0,0.0,90.0,0.0,0.0
17894,84.0,0.0,90.0,2.0,0.0
17895,72.0,0.0,90.0,2.0,0.0
17896,54.0,0.0,90.0,4.0,0.0
17897,66.0,0.0,90.0,4.0,0.0
17898,66.0,0.0,90.0,5.0,0.0
17899,54.0,0.0,90.0,6.0,0.0
17900,45.0,0.0,90.0,3.0,0.0
17901,66.0,0.0,90.0,10.0,0.0
17902,45.0,0.0,90.0,13.0,0.0
17903,84.0,0.0,90.0,8.0,0.0
17904,72.0,0.0,90.0,11.0,0.0
17905,84.0,0.0,90.0,1.0,0.0
17906,72.0,0.0,90.0,1.0,0.0
17907,57.0,0.0,90.0,12.0,0.0
17908,72.0,0.0,30.0,2.0,0.0
17909,84.0,0.0,30.0,2.0,0.0
17910,72.0,0.0,30.0,11.0,0.0
17911,45.0,0.0,30.0,13.0,0.0
17912,96.0,0.0,30.0,0.0,0.0
17913,66.0,0.0,30.0,5.0,0.0
17914,45.0,0.0,30.0,3.0,0.0
17915,66.0,0.0,30.0,10.0,0.0
17916,54.0,0.0,30.0,6.0,0.0
17917,84.0,0.0,30.0,0.0,0.0
17918,66.0,0.0,30.0,4.0,0.0
17919,57.0,150.0,30.0,12.0,0.0
17920,84.0,0.0,30.0,8.0,0.0
17921,78.0,0.0,30.0,5.0,0.0
17922,84.0,0.0,30.0,1.0,0.0
17923,72.0,0.0,30.0,1.0,0.0
17924,54.0,0.0,30.0,4.0,0.0
17925,66.0,0.0,120.0,4.0,0.0
17926,61.0,0.0,120.0,10.0,0.0
17927,78.0,0.0,120.0,5.0,0.0
17928,54.0,0.0,120.0,4.0,0.0
17929,66.0,0.0,120.0,5.0,0.0
17930,85.0,480.0,120.0,8.0,0.0
17931,46.0,0.0,120.0,13.0,0.0
17932,97.0,0.0,120.0,0.0,0.0
17933,85.0,0.0,120.0,1.0,0.0
17934,73.0,0.0,120.0,1.0,0.0
17935,73.0,0.0,120.0,2.0,0.0
17936,85.0,0.0,120.0,2.0,0.0
17937,58.0,0.0,120.0,12.0,0.0
17938,73.0,0.0,120.0,11.0,0.0
17939,54.0,0.0,120.0,6.0,0.0
17940,85.0,0.0,120.0,0.0,0.0
17941,46.0,0.0,120.0,3.0,0.0
17942,54.0,0.0,120.0,6.0,0.0
17943,62.0,0.0,120.0,11.0,0.0
17944,47.0,0.0,120.0,3.0,0.0
17945,86.0,0.0,120.0,2.0,0.0
17946,86.0,210.0,120.0,0.0,0.0
17947,98.0,0.0,120.0,0.0,0.0
17948,74.0,0.0,120.0,2.0,0.0
17949,54.0,0.0,120.0,4.0,0.0
17950,86.0,0.0,120.0,8.0,0.0
17951,59.0,0.0,120.0,12.0,0.0
17952,78.0,0.0,120.0,10.0,0.0
17953,66.0,0.0,120.0,4.0,0.0
17954,59.0,0.0,120.0,10.0,0.0
17955,74.0,0.0,120.0,1.0,0.0
17956,86.0,0.0,120.0,1.0,0.0
17957,66.0,0.0,120.0,10.0,0.0
17958,66.0,0.0,120.0,5.0,0.0
17959,47.0,0.0,120.0,13.0,0.0
17960,78.0,0.0,120.0,5.0,0.0
17961,66.0,0.0,90.0,5.0,0.0
17962,46.0,0.0,90.0,3.0,0.0
17963,85.0,0.0,90.0,8.0,0.0
17964,66.0,0.0,90.0,4.0,0.0
17965,78.0,0.0,90.0,5.0,0.0
17966,46.0,0.0,90.0,13.0,0.0
17967,54.0,0.0,90.0,4.0,0.0
17968,85.0,0.0,90.0,1.0,0.0
17969,58.0,0.0,90.0,12.0,0.0
17970,73.0,120.0,90.0,2.0,0.0
17971,85.0,0.0,90.0,2.0,0.0
17972,54.0,0.0,90.0,6.0,0.0
17973,85.0,0.0,90.0,0.0,0.0
17974,73.0,0.0,90.0,1.0,0.0
17975,73.0,0.0,90.0,11.0,0.0
17976,97.0,0.0,90.0,0.0,0.0
17977,61.0,0.0,90.0,10.0,0.0
17978,85.0,0.0,30.0,0.0,0.0
17979,97.0,0.0,30.0,0.0,0.0
17980,66.0,0.0,30.0,5.0,0.0
17981,46.0,0.0,30.0,13.0,0.0
17982,54.0,0.0,30.0,4.0,0.0
17983,66.0,0.0,30.0,4.0,0.0
17984,73.0,0.0,30.0,11.0,0.0
17985,85.0,150.0,30.0,8.0,0.0
17986,54.0,0.0,30.0,6.0,0.0
17987,61.0,0.0,30.0,10.0,0.0
17988,78.0,0.0,30.0,5.0,0.0
17989,46.0,0.0,30.0,3.0,0.0
17990,73.0,0.0,30.0,1.0,0.0
17991,58.0,0.0,30.0,12.0,0.0
17992,85.0,0.0,30.0,1.0,0.0
17993,73.0,0.0,30.0,2.0,0.0
17994,85.0,0.0,30.0,2.0,0.0
17995,47.0,0.0,120.0,13.0,0.0
17996,66.0,0.0,120.0,10.0,0.0
17997,98.0,0.0,120.0,0.0,0.0
17998,74.0,0.0,120.0,2.0,0.0
17999,74.0,0.0,120.0,11.0,0.0
18000,86.0,0.0,120.0,2.0,0.0
18001,47.0,0.0,120.0,3.0,0.0
18002,54.0,0.0,120.0,6.0,0.0
18003,74.0,0.0,120.0,1.0,0.0
18004,54.0,0.0,120.0,4.0,0.0
18005,66.0,0.0,120.0,4.0,0.0
18006,86.0,960.0,120.0,1.0,0.0
18007,86.0,0.0,120.0,8.0,0.0
18008,59.0,0.0,120.0,12.0,0.0
18009,86.0,0.0,120.0,0.0,0.0
18010,66.0,0.0,120.0,5.0,0.0
18011,78.0,0.0,120.0,5.0,0.0
18012,71.0,0.0,960.0,4.0,0.0
18013,66.0,0.0,960.0,4.0,0.0
18014,75.0,0.0,960.0,2.0,0.0
18015,47.0,240.0,480.0,3.0,0.0
18016,59.0,0.0,480.0,3.0,0.0
18017,87.0,120.0,720.0,1.0,0.0
18018,78.0,0.0,960.0,1.0,0.0
18019,63.0,0.0,480.0,2.0,0.0
18020,59.0,0.0,480.0,3.0,0.0
18021,71.0,0.0,480.0,3.0,0.0
18022,89.0,120.0,120.0,1.0,0.0
18023,90.0,480.0,120.0,1.0,0.0
18024,82.0,0.0,480.0,1.0,0.0
18025,61.0,120.0,480.0,3.0,0.0
18026,73.0,120.0,960.0,2.0,0.0
18027,61.0,0.0,960.0,2.0,0.0
18028,78.0,0.0,480.0,1.0,0.0
18029,70.0,0.0,480.0,4.0,0.0
18030,66.0,0.0,480.0,4.0,0.0
18031,61.0,0.0,480.0,4.0,0.0
18032,73.0,0.0,180.0,5.0,0.0
18033,61.0,288.0,180.0,5.0,0.0
18034,49.0,0.0,480.0,3.0,0.0
18035,68.0,0.0,480.0,4.0,0.0
18036,80.0,0.0,480.0,1.0,0.0
18037,49.0,72.0,120.0,6.0,0.0
18038,77.0,0.0,480.0,1.0,0.0
18039,42.0,0.0,120.0,12.0,0.0
18040,66.0,0.0,120.0,11.0,0.0
18041,78.0,0.0,120.0,8.0,0.0
18042,42.0,0.0,120.0,13.0,0.0
18043,54.0,0.0,120.0,6.0,0.0
18044,78.0,0.0,120.0,1.0,0.0
18045,66.0,0.0,120.0,4.0,0.0
18046,54.0,0.0,120.0,4.0,0.0
18047,54.0,0.0,120.0,3.0,0.0
18048,66.0,0.0,120.0,5.0,0.0
18049,78.0,0.0,120.0,5.0,0.0
18050,66.0,210.0,120.0,8.0,0.0
18051,66.0,0.0,120.0,10.0,0.0
18052,66.0,0.0,120.0,1.0,0.0
18053,78.0,0.0,120.0,10.0,0.0
18054,90.0,0.0,120.0,0.0,0.0
18055,54.0,0.0,120.0,12.0,0.0
18056,78.0,0.0,120.0,2.0,0.0
18057,54.0,0.0,120.0,11.0,0.0
18058,66.0,0.0,120.0,2.0,0.0
18059,65.0,0.0,90.0,8.0,0.0
18060,53.0,0.0,90.0,11.0,0.0
18061,65.0,0.0,90.0,11.0,0.0
18062,54.0,0.0,90.0,4.0,0.0
18063,65.0,0.0,90.0,2.0,0.0
18064,41.0,0.0,90.0,12.0,0.0
18065,53.0,0.0,90.0,12.0,0.0
18066,77.0,0.0,90.0,1.0,0.0
18067,66.0,0.0,90.0,4.0,0.0
18068,66.0,0.0,90.0,5.0,0.0
18069,78.0,0.0,90.0,5.0,0.0
18070,65.0,120.0,90.0,1.0,0.0
18071,77.0,0.0,90.0,10.0,0.0
18072,53.0,0.0,90.0,3.0,0.0
18073,41.0,0.0,90.0,13.0,0.0
18074,65.0,0.0,90.0,10.0,0.0
18075,54.0,0.0,90.0,6.0,0.0
18076,77.0,0.0,90.0,2.0,0.0
18077,77.0,0.0,90.0,8.0,0.0
18078,89.0,0.0,90.0,0.0,0.0
18079,65.0,0.0,30.0,1.0,0.0
18080,41.0,0.0,30.0,12.0,0.0
18081,53.0,0.0,30.0,12.0,0.0
18082,53.0,0.0,30.0,3.0,0.0
18083,65.0,0.0,30.0,11.0,0.0
18084,53.0,0.0,30.0,11.0,0.0
18085,54.0,0.0,30.0,4.0,0.0
18086,66.0,0.0,30.0,5.0,0.0
18087,78.0,0.0,30.0,5.0,0.0
18088,54.0,0.0,30.0,6.0,0.0
18089,77.0,0.0,30.0,2.0,0.0
18090,77.0,0.0,30.0,1.0,0.0
18091,65.0,0.0,30.0,8.0,0.0
18092,65.0,0.0,30.0,2.0,0.0
18093,89.0,0.0,30.0,0.0,0.0
18094,66.0,0.0,30.0,4.0,0.0
18095,77.0,0.0,30.0,10.0,0.0
18096,65.0,0.0,30.0,10.0,0.0
18097,41.0,0.0,30.0,13.0,0.0
18098,77.0,0.0,30.0,8.0,0.0
18099,66.0,480.0,120.0,2.0,0.0
18100,78.0,0.0,120.0,2.0,0.0
18101,66.0,0.0,120.0,11.0,0.0
18102,66.0,0.0,120.0,10.0,0.0
18103,78.0,0.0,120.0,10.0,0.0
18104,66.0,0.0,120.0,1.0,0.0
18105,78.0,0.0,120.0,1.0,0.0
18106,42.0,0.0,120.0,12.0,0.0
18107,54.0,0.0,120.0,6.0,0.0
18108,54.0,0.0,120.0,4.0,0.0
18109,54.0,0.0,120.0,12.0,0.0
18110,66.0,0.0,120.0,8.0,0.0
18111,42.0,0.0,120.0,13.0,0.0
18112,78.0,0.0,120.0,5.0,0.0
18113,66.0,0.0,120.0,5.0,0.0
18114,90.0,0.0,120.0,0.0,0.0
18115,66.0,0.0,120.0,4.0,0.0
18116,78.0,0.0,120.0,8.0,0.0
18117,54.0,0.0,120.0,11.0,0.0
18118,54.0,0.0,120.0,3.0,0.0
18119,79.0,0.0,120.0,10.0,0.0
18120,43.0,0.0,120.0,13.0,0.0
18121,55.0,0.0,120.0,3.0,0.0
18122,67.0,0.0,120.0,1.0,0.0
18123,79.0,0.0,120.0,1.0,0.0
18124,79.0,0.0,120.0,8.0,0.0
18125,67.0,0.0,120.0,8.0,0.0
18126,91.0,0.0,120.0,0.0,0.0
18127,67.0,0.0,120.0,4.0,0.0
18128,79.0,0.0,120.0,2.0,0.0
18129,67.0,0.0,120.0,2.0,0.0
18130,67.0,0.0,120.0,11.0,0.0
18131,55.0,210.0,120.0,12.0,0.0
18132,43.0,0.0,120.0,12.0,0.0
18133,55.0,0.0,120.0,11.0,0.0
18134,67.0,0.0,120.0,10.0,0.0
18135,66.0,120.0,90.0,1.0,0.0
18136,66.0,0.0,90.0,2.0,0.0
18137,78.0,0.0,90.0,2.0,0.0
18138,66.0,0.0,90.0,10.0,0.0
18139,78.0,0.0,90.0,10.0,0.0
18140,78.0,0.0,90.0,1.0,0.0
18141,42.0,0.0,90.0,13.0,0.0
18142,90.0,0.0,90.0,0.0,0.0
18143,66.0,0.0,90.0,4.0,0.0
18144,54.0,0.0,90.0,12.0,0.0
18145,42.0,0.0,90.0,12.0,0.0
18146,78.0,0.0,90.0,8.0,0.0
18147,66.0,0.0,90.0,11.0,0.0
18148,54.0,0.0,90.0,11.0,0.0
18149,66.0,0.0,90.0,8.0,0.0
18150,54.0,0.0,90.0,3.0,0.0
18151,66.0,0.0,30.0,4.0,0.0
18152,42.0,0.0,30.0,12.0,0.0
18153,66.0,0.0,30.0,11.0,0.0
18154,66.0,0.0,30.0,10.0,0.0
18155,54.0,0.0,30.0,3.0,0.0
18156,42.0,0.0,30.0,13.0,0.0
18157,78.0,0.0,30.0,1.0,0.0
18158,78.0,0.0,30.0,10.0,0.0
18159,54.0,0.0,30.0,11.0,0.0
18160,78.0,0.0,30.0,8.0,0.0
18161,66.0,0.0,30.0,8.0,0.0
18162,78.0,0.0,30.0,2.0,0.0
18163,66.0,0.0,30.0,2.0,0.0
18164,66.0,0.0,30.0,1.0,0.0
18165,54.0,0.0,30.0,12.0,0.0
18166,90.0,150.0,30.0,0.0,0.0
18167,67.0,0.0,120.0,11.0,0.0
18168,67.0,0.0,120.0,1.0,0.0
18169,55.0,0.0,120.0,11.0,0.0
18170,79.0,0.0,120.0,1.0,0.0
18171,67.0,960.0,120.0,2.0,0.0
18172,79.0,0.0,120.0,2.0,0.0
18173,55.0,0.0,120.0,12.0,0.0
18174,67.0,0.0,120.0,4.0,0.0
18175,67.0,0.0,120.0,8.0,0.0
18176,79.0,0.0,120.0,8.0,0.0
18177,55.0,0.0,120.0,3.0,0.0
18178,67.0,0.0,120.0,10.0,0.0
18179,79.0,0.0,120.0,10.0,0.0
18180,43.0,0.0,120.0,13.0,0.0
18181,43.0,0.0,120.0,12.0,0.0
18182,91.0,0.0,120.0,0.0,0.0
18183,86.0,0.0,480.0,0.0,0.0
18184,79.0,0.0,480.0,2.0,0.0
18185,71.0,240.0,480.0,2.0,0.0
18186,88.0,120.0,240.0,0.0,0.0
18187,72.0,0.0,480.0,2.0,0.0
18188,90.0,120.0,120.0,0.0,0.0
18189,91.0,0.0,120.0,0.0,0.0
18190,83.0,0.0,480.0,0.0,0.0
18191,79.0,480.0,15.0,2.0,0.0
18192,74.0,192.0,480.0,2.0,0.0
18193,81.0,30.0,450.0,0.0,0.0
18194,62.0,0.0,15.0,4.0,0.0
18195,66.0,0.0,180.0,5.0,0.0
18196,62.0,0.0,480.0,2.0,0.0
18197,78.0,120.0,480.0,2.0,0.0
18198,78.0,258.0,180.0,5.0,0.0
18199,86.0,0.0,960.0,0.0,0.0
18200,67.0,0.0,1920.0,3.0,0.0
18201,59.0,0.0,1920.0,3.0,0.0
18202,50.0,0.0,15.0,4.0,0.0
18203,62.0,0.0,15.0,4.0,0.0
18204,71.0,0.0,1920.0,2.0,0.0
18205,74.0,120.0,960.0,2.0,0.0
18206,67.0,210.0,120.0,11.0,0.0
18207,66.0,120.0,90.0,11.0,0.0
18208,66.0,150.0,30.0,11.0,0.0
18209,71.0,0.0,390.0,10.0,0.0
18210,62.0,0.0,390.0,10.0,0.0
18211,74.0,0.0,390.0,8.0,0.0
18212,71.0,66.0,390.0,8.0,0.0
18213,55.0,0.0,120.0,12.0,0.0
18214,67.0,210.0,120.0,11.0,0.0
18215,54.0,54.0,90.0,12.0,0.0
18216,54.0,30.0,30.0,12.0,0.0
18217,67.0,210.0,120.0,11.0,0.0
18218,55.0,0.0,120.0,12.0,0.0
18219,43.0,66.0,390.0,15.0,0.0
18220,91.0,120.0,960.0,0.0,0.0
18221,79.0,0.0,960.0,2.0,0.0
18222,66.0,54.0,90.0,11.0,0.0
18223,66.0,150.0,30.0,11.0,0.0
18224,71.0,0.0,390.0,10.0,0.0
18225,62.0,66.0,390.0,10.0,0.0
18226,67.0,0.0,120.0,11.0,0.0
18227,55.0,210.0,120.0,12.0,0.0
18228,71.0,0.0,390.0,8.0,0.0
18229,79.0,0.0,390.0,8.0,0.0
18230,54.0,54.0,90.0,12.0,0.0
18231,54.0,30.0,30.0,12.0,0.0
18232,93.0,120.0,960.0,0.0,0.0
18233,60.0,120.0,1440.0,3.0,0.0
18234,43.0,66.0,390.0,15.0,0.0
18235,55.0,0.0,120.0,12.0,0.0
18236,69.0,120.0,1920.0,3.0,0.0
18237,72.0,0.0,960.0,2.0,0.0
18238,81.0,0.0,960.0,2.0,0.0
18239,67.0,210.0,120.0,11.0,0.0
18240,66.0,54.0,90.0,11.0,0.0
18241,66.0,150.0,30.0,11.0,0.0
18242,67.0,0.0,120.0,11.0,0.0
18243,81.0,0.0,390.0,8.0,0.0
18244,62.0,0.0,390.0,10.0,0.0
18245,72.0,66.0,390.0,10.0,0.0
18246,55.0,210.0,120.0,12.0,0.0
18247,54.0,54.0,90.0,12.0,0.0
18248,54.0,30.0,30.0,12.0,0.0
18249,55.0,0.0,120.0,12.0,0.0
18250,86.0,0.0,1080.0,2.0,0.0
18251,43.0,66.0,390.0,15.0,0.0
18252,67.0,210.0,120.0,11.0,0.0
18253,86.0,0.0,960.0,0.0,0.0
18254,66.0,54.0,90.0,11.0,0.0
18255,54.0,0.0,90.0,12.0,0.0
18256,54.0,0.0,30.0,12.0,0.0
18257,66.0,30.0,30.0,11.0,0.0
18258,62.0,0.0,600.0,3.0,0.0
18259,74.0,66.0,390.0,8.0,0.0
18260,55.0,0.0,120.0,12.0,0.0
18261,43.0,62.0,240.0,15.0,0.0
18262,67.0,106.0,120.0,11.0,0.0
18263,86.0,0.0,600.0,8.0,0.0
18264,62.0,0.0,390.0,10.0,0.0
18265,69.0,0.0,390.0,10.0,0.0
18266,42.0,14.0,240.0,15.0,0.0
18267,66.0,54.0,90.0,11.0,0.0
18268,54.0,0.0,90.0,12.0,0.0
18269,54.0,16.0,30.0,12.0,0.0
18270,66.0,0.0,30.0,11.0,0.0
18271,74.0,0.0,15.0,2.0,0.0
18272,74.0,120.0,120.0,11.0,0.0
18273,50.0,96.0,390.0,15.0,0.0
18274,62.0,0.0,120.0,12.0,0.0
18275,72.0,120.0,120.0,11.0,0.0
18276,60.0,0.0,120.0,3.0,0.0
18277,84.0,0.0,120.0,8.0,0.0
18278,84.0,0.0,120.0,2.0,0.0
18279,72.0,0.0,120.0,12.0,0.0
18280,72.0,0.0,120.0,2.0,0.0
18281,71.0,0.0,120.0,11.0,0.0
18282,71.0,0.0,120.0,2.0,0.0
18283,83.0,0.0,120.0,2.0,0.0
18284,83.0,24.0,120.0,8.0,0.0
18285,59.0,0.0,120.0,3.0,0.0
18286,71.0,0.0,120.0,12.0,0.0
18287,69.0,120.0,120.0,12.0,0.0
18288,69.0,0.0,120.0,11.0,0.0
18289,57.0,0.0,120.0,3.0,0.0
18290,69.0,0.0,120.0,2.0,0.0
18291,81.0,0.0,120.0,2.0,0.0
18292,81.0,0.0,120.0,8.0,0.0
18293,79.0,0.0,120.0,2.0,0.0
18294,55.0,0.0,120.0,3.0,0.0
18295,67.0,0.0,120.0,2.0,0.0
18296,67.0,0.0,120.0,11.0,0.0
18297,79.0,0.0,120.0,8.0,0.0
18298,67.0,120.0,120.0,12.0,0.0
18299,66.0,0.0,120.0,2.0,0.0
18300,54.0,0.0,120.0,3.0,0.0
18301,66.0,0.0,120.0,12.0,0.0
18302,78.0,0.0,120.0,2.0,0.0
18303,66.0,120.0,120.0,11.0,0.0
18304,78.0,0.0,120.0,8.0,0.0
18305,64.0,0.0,120.0,12.0,0.0
18306,52.0,0.0,120.0,3.0,0.0
18307,64.0,0.0,120.0,2.0,0.0
18308,76.0,120.0,120.0,8.0,0.0
18309,64.0,0.0,120.0,11.0,0.0
18310,76.0,0.0,120.0,2.0,0.0
18311,62.0,120.0,120.0,2.0,0.0
18312,74.0,0.0,120.0,2.0,0.0
18313,50.0,0.0,120.0,3.0,0.0
18314,62.0,0.0,120.0,12.0,0.0
18315,62.0,0.0,120.0,11.0,0.0
18316,74.0,0.0,120.0,8.0,0.0
18317,72.0,0.0,120.0,8.0,0.0
18318,60.0,0.0,120.0,11.0,0.0
18319,48.0,120.0,120.0,3.0,0.0
18320,72.0,0.0,120.0,2.0,0.0
18321,60.0,0.0,120.0,12.0,0.0
18322,60.0,0.0,120.0,2.0,0.0
18323,59.0,0.0,120.0,12.0,0.0
18324,59.0,0.0,120.0,11.0,0.0
18325,71.0,120.0,120.0,8.0,0.0
18326,59.0,0.0,120.0,2.0,0.0
18327,71.0,0.0,120.0,2.0,0.0
18328,47.0,0.0,120.0,3.0,0.0
18329,57.0,0.0,120.0,12.0,0.0
18330,69.0,0.0,120.0,2.0,0.0
18331,45.0,0.0,120.0,3.0,0.0
18332,69.0,0.0,120.0,8.0,0.0
18333,57.0,0.0,120.0,2.0,0.0
18334,57.0,120.0,120.0,11.0,0.0
18335,67.0,0.0,120.0,8.0,0.0
18336,67.0,114.0,120.0,2.0,0.0
18337,55.0,0.0,120.0,2.0,0.0
18338,55.0,0.0,120.0,12.0,0.0
18339,43.0,0.0,120.0,3.0,0.0
18340,55.0,0.0,120.0,11.0,0.0
18341,54.0,120.0,120.0,11.0,0.0
18342,66.0,0.0,120.0,8.0,0.0
18343,54.0,6.0,120.0,2.0,0.0
18344,66.0,0.0,120.0,2.0,0.0
18345,54.0,0.0,120.0,12.0,0.0
18346,42.0,0.0,120.0,3.0,0.0
18347,55.0,120.0,120.0,11.0,0.0
18348,67.0,0.0,120.0,8.0,0.0
18349,55.0,0.0,120.0,12.0,0.0
18350,54.0,72.0,120.0,12.0,0.0
18351,54.0,0.0,330.0,3.0,0.0
18352,66.0,0.0,120.0,8.0,0.0
18353,42.0,144.0,180.0,15.0,0.0
18354,66.0,24.0,330.0,2.0,0.0
18355,66.0,114.0,240.0,8.0,0.0
18356,54.0,0.0,15.0,11.0,0.0
18357,54.0,0.0,240.0,12.0,0.0
18358,53.0,6.0,120.0,3.0,0.0
18359,53.0,120.0,120.0,11.0,0.0
18360,53.0,0.0,120.0,12.0,0.0
18361,65.0,0.0,120.0,2.0,0.0
18362,65.0,0.0,120.0,8.0,0.0
18363,60.0,0.0,120.0,12.0,0.0
18364,41.0,48.0,180.0,15.0,0.0
18365,72.0,0.0,120.0,8.0,0.0
18366,73.0,0.0,120.0,2.0,0.0
18367,61.0,0.0,120.0,3.0,0.0
18368,60.0,72.0,120.0,11.0,0.0
18369,61.0,120.0,120.0,12.0,0.0
18370,73.0,0.0,120.0,8.0,0.0
18371,61.0,0.0,120.0,11.0,0.0
18372,74.0,120.0,120.0,8.0,0.0
18373,74.0,0.0,240.0,1.0,0.0
18374,62.0,0.0,120.0,11.0,0.0
18375,86.0,0.0,240.0,0.0,0.0
18376,62.0,0.0,120.0,12.0,0.0
18377,60.0,0.0,120.0,12.0,0.0
18378,60.0,120.0,120.0,11.0,0.0
18379,72.0,0.0,120.0,8.0,0.0
18380,61.0,0.0,120.0,12.0,0.0
18381,61.0,0.0,120.0,4.0,0.0
18382,49.0,0.0,120.0,4.0,0.0
18383,73.0,72.0,120.0,8.0,0.0
18384,73.0,0.0,120.0,1.0,0.0
18385,41.0,48.0,180.0,15.0,0.0
18386,85.0,0.0,120.0,0.0,0.0
18387,61.0,0.0,120.0,11.0,0.0
18388,53.0,120.0,120.0,12.0,0.0
18389,53.0,0.0,120.0,11.0,0.0
18390,65.0,0.0,120.0,8.0,0.0
18391,54.0,0.0,240.0,3.0,0.0
18392,54.0,0.0,120.0,11.0,0.0
18393,66.0,0.0,240.0,2.0,0.0
18394,66.0,0.0,120.0,8.0,0.0
18395,54.0,120.0,120.0,12.0,0.0
18396,76.0,120.0,120.0,8.0,0.0
18397,64.0,0.0,120.0,11.0,0.0
18398,64.0,0.0,120.0,12.0,0.0
18399,42.0,48.0,180.0,15.0,0.0
18400,61.0,0.0,120.0,12.0,0.0
18401,62.0,72.0,120.0,3.0,0.0
18402,73.0,0.0,120.0,8.0,0.0
18403,74.0,0.0,120.0,2.0,0.0
18404,61.0,0.0,120.0,11.0,0.0
18405,62.0,0.0,120.0,12.0,0.0
18406,62.0,120.0,120.0,11.0,0.0
18407,74.0,0.0,120.0,8.0,0.0
18408,66.0,0.0,120.0,11.0,0.0
18409,78.0,120.0,240.0,1.0,0.0
18410,66.0,0.0,120.0,12.0,0.0
18411,90.0,0.0,240.0,0.0,0.0
18412,78.0,120.0,120.0,8.0,0.0
18413,63.0,0.0,120.0,11.0,0.0
18414,63.0,0.0,120.0,12.0,0.0
18415,75.0,0.0,120.0,8.0,0.0
18416,61.0,0.0,120.0,4.0,0.0
18417,49.0,0.0,120.0,4.0,0.0
18418,44.0,48.0,180.0,15.0,0.0
18419,65.0,0.0,120.0,11.0,0.0
18420,89.0,0.0,120.0,0.0,0.0
18421,77.0,72.0,120.0,1.0,0.0
18422,77.0,0.0,120.0,8.0,0.0
18423,65.0,0.0,120.0,12.0,0.0
18424,68.0,120.0,120.0,8.0,0.0
18425,56.0,0.0,120.0,11.0,0.0
18426,56.0,0.0,120.0,12.0,0.0
18427,57.0,0.0,120.0,12.0,0.0
18428,69.0,0.0,120.0,8.0,0.0
18429,57.0,120.0,120.0,11.0,0.0
18430,57.0,0.0,240.0,3.0,0.0
18431,68.0,120.0,120.0,12.0,0.0
18432,80.0,0.0,120.0,8.0,0.0
18433,68.0,0.0,120.0,11.0,0.0
18434,77.0,0.0,120.0,8.0,0.0
18435,65.0,72.0,120.0,11.0,0.0
18436,45.0,48.0,180.0,15.0,0.0
18437,66.0,0.0,120.0,3.0,0.0
18438,65.0,0.0,120.0,12.0,0.0
18439,66.0,0.0,120.0,11.0,0.0
18440,66.0,0.0,120.0,12.0,0.0
18441,78.0,120.0,120.0,8.0,0.0
18442,81.0,0.0,240.0,1.0,0.0
18443,69.0,0.0,120.0,12.0,0.0
18444,69.0,0.0,240.0,2.0,0.0
18445,69.0,120.0,120.0,11.0,0.0
18446,81.0,0.0,120.0,8.0,0.0
18447,66.0,120.0,120.0,11.0,0.0
18448,66.0,0.0,120.0,12.0,0.0
18449,78.0,0.0,120.0,8.0,0.0
18450,54.0,0.0,120.0,4.0,0.0
18451,80.0,0.0,120.0,1.0,0.0
18452,66.0,72.0,120.0,4.0,0.0
18453,68.0,0.0,120.0,2.0,0.0
18454,68.0,0.0,120.0,11.0,0.0
18455,80.0,0.0,120.0,8.0,0.0
18456,47.0,48.0,180.0,15.0,0.0
18457,68.0,0.0,120.0,12.0,0.0
18458,59.0,120.0,120.0,11.0,0.0
18459,59.0,0.0,120.0,12.0,0.0
18460,71.0,0.0,120.0,8.0,0.0
18461,71.0,120.0,120.0,12.0,0.0
18462,61.0,120.0,240.0,3.0,0.0
18463,71.0,0.0,120.0,11.0,0.0
18464,83.0,0.0,120.0,8.0,0.0
18465,80.0,0.0,120.0,8.0,0.0
18466,68.0,0.0,120.0,12.0,0.0
18467,68.0,0.0,120.0,11.0,0.0
18468,49.0,48.0,180.0,15.0,0.0
18469,70.0,72.0,120.0,11.0,0.0
18470,70.0,0.0,120.0,3.0,0.0
18471,82.0,0.0,120.0,8.0,0.0
18472,70.0,0.0,120.0,12.0,0.0
18473,73.0,120.0,120.0,8.0,0.0
18474,61.0,0.0,120.0,11.0,0.0
18475,61.0,0.0,120.0,12.0,0.0
18476,73.0,0.0,120.0,12.0,0.0
18477,85.0,0.0,240.0,1.0,0.0
18478,85.0,120.0,120.0,8.0,0.0
18479,73.0,0.0,240.0,2.0,0.0
18480,73.0,0.0,120.0,11.0,0.0
18481,70.0,0.0,120.0,11.0,0.0
18482,82.0,120.0,120.0,8.0,0.0
18483,70.0,0.0,120.0,12.0,0.0
18484,71.0,0.0,120.0,11.0,0.0
18485,54.0,0.0,120.0,4.0,0.0
18486,83.0,0.0,120.0,1.0,0.0
18487,66.0,72.0,120.0,4.0,0.0
18488,71.0,0.0,120.0,12.0,0.0
18489,50.0,48.0,180.0,15.0,0.0
18490,71.0,0.0,120.0,2.0,0.0
18491,83.0,0.0,120.0,8.0,0.0
18492,62.0,0.0,120.0,11.0,0.0
18493,74.0,48.0,120.0,8.0,0.0
18494,68.0,0.0,1920.0,4.0,0.0
18495,62.0,0.0,600.0,3.0,0.0
18496,59.0,12.0,90.0,11.0,0.0
18497,62.0,0.0,15.0,12.0,0.0
18498,74.0,0.0,600.0,2.0,0.0
18499,71.0,0.0,1440.0,4.0,0.0
18500,73.0,48.0,120.0,5.0,0.0
18501,49.0,48.0,60.0,6.0,0.0
18502,61.0,0.0,120.0,5.0,0.0
18503,86.0,0.0,600.0,8.0,0.0
18504,49.0,12.0,60.0,6.0,0.0
18505,49.0,60.0,60.0,6.0,0.0
18506,49.0,60.0,60.0,6.0,0.0
18507,61.0,0.0,90.0,5.0,0.0
18508,49.0,42.0,60.0,6.0,0.0
18509,53.0,0.0,480.0,12.0,0.0
18510,73.0,18.0,90.0,5.0,0.0
18511,41.0,0.0,480.0,13.0,0.0
18512,49.0,60.0,60.0,6.0,0.0
18513,59.0,26.0,60.0,11.0,0.0
18514,49.0,16.0,60.0,6.0,0.0
18515,80.0,24.0,120.0,1.0,0.0
18516,73.0,0.0,30.0,5.0,0.0
18517,61.0,18.0,30.0,5.0,0.0
18518,49.0,12.0,60.0,6.0,0.0
18519,59.0,24.0,60.0,11.0,0.0
18520,86.0,48.0,120.0,1.0,0.0
18521,61.0,0.0,120.0,5.0,0.0
18522,73.0,0.0,120.0,5.0,0.0
18523,49.0,56.0,60.0,6.0,0.0
18524,59.0,4.0,60.0,11.0,0.0
18525,49.0,12.0,60.0,6.0,0.0
18526,73.0,0.0,120.0,2.0,0.0
18527,85.0,0.0,120.0,8.0,0.0
18528,49.0,16.0,60.0,6.0,0.0
18529,59.0,44.0,60.0,11.0,0.0
18530,61.0,24.0,120.0,3.0,0.0
18531,49.0,12.0,60.0,6.0,0.0
18532,59.0,24.0,60.0,11.0,0.0
18533,47.0,12.0,150.0,13.0,0.0
18534,49.0,56.0,60.0,6.0,0.0
18535,71.0,36.0,120.0,2.0,0.0
18536,59.0,0.0,150.0,12.0,0.0
18537,83.0,0.0,120.0,8.0,0.0
18538,59.0,0.0,120.0,3.0,0.0
18539,59.0,4.0,60.0,11.0,0.0
18540,49.0,12.0,60.0,6.0,0.0
18541,56.0,0.0,120.0,3.0,0.0
18542,68.0,48.0,120.0,2.0,0.0
18543,49.0,60.0,60.0,6.0,0.0
18544,80.0,0.0,120.0,8.0,0.0
18545,49.0,12.0,60.0,6.0,0.0
18546,86.0,0.0,600.0,1.0,0.0
18547,53.0,12.0,90.0,11.0,0.0
18548,61.0,48.0,120.0,5.0,0.0
18549,74.0,0.0,600.0,10.0,0.0
18550,73.0,0.0,120.0,5.0,0.0
18551,49.0,48.0,60.0,6.0,0.0
18552,49.0,12.0,60.0,6.0,0.0
18553,49.0,60.0,60.0,6.0,0.0
18554,49.0,60.0,60.0,6.0,0.0
18555,73.0,18.0,90.0,5.0,0.0
18556,47.0,0.0,480.0,12.0,0.0
18557,49.0,42.0,60.0,6.0,0.0
18558,35.0,0.0,480.0,13.0,0.0
18559,61.0,0.0,90.0,5.0,0.0
18560,49.0,60.0,60.0,6.0,0.0
18561,49.0,16.0,60.0,6.0,0.0
18562,53.0,26.0,60.0,11.0,0.0
18563,80.0,24.0,120.0,0.0,0.0
18564,73.0,0.0,30.0,5.0,0.0
18565,49.0,12.0,60.0,6.0,0.0
18566,61.0,18.0,30.0,5.0,0.0
18567,53.0,24.0,60.0,11.0,0.0
18568,73.0,48.0,120.0,5.0,0.0
18569,49.0,56.0,60.0,6.0,0.0
18570,86.0,0.0,120.0,0.0,0.0
18571,61.0,0.0,120.0,5.0,0.0
18572,53.0,4.0,60.0,11.0,0.0
18573,49.0,12.0,60.0,6.0,0.0
18574,53.0,44.0,60.0,11.0,0.0
18575,85.0,24.0,120.0,1.0,0.0
18576,73.0,0.0,120.0,10.0,0.0
18577,49.0,16.0,60.0,6.0,0.0
18578,49.0,12.0,60.0,6.0,0.0
18579,53.0,24.0,60.0,11.0,0.0
18580,83.0,36.0,120.0,1.0,0.0
18581,53.0,0.0,150.0,12.0,0.0
18582,61.0,0.0,720.0,4.0,0.0
18583,71.0,0.0,120.0,10.0,0.0
18584,49.0,56.0,60.0,6.0,0.0
18585,41.0,12.0,150.0,13.0,0.0
18586,53.0,4.0,60.0,11.0,0.0
18587,49.0,12.0,60.0,6.0,0.0
18588,80.0,0.0,120.0,1.0,0.0
18589,68.0,48.0,120.0,10.0,0.0
18590,49.0,60.0,60.0,6.0,0.0
18591,49.0,12.0,60.0,6.0,0.0
18592,75.0,0.0,600.0,2.0,0.0
18593,87.0,0.0,600.0,8.0,0.0
18594,63.0,0.0,600.0,3.0,0.0
18595,73.0,12.0,90.0,11.0,0.0
18596,66.0,0.0,960.0,4.0,0.0
18597,54.0,48.0,60.0,6.0,0.0
18598,66.0,48.0,120.0,5.0,0.0
18599,78.0,0.0,120.0,5.0,0.0
18600,54.0,12.0,60.0,6.0,0.0
18601,54.0,60.0,60.0,6.0,0.0
18602,54.0,60.0,60.0,6.0,0.0
18603,78.0,0.0,90.0,5.0,0.0
18604,54.0,42.0,60.0,6.0,0.0
18605,46.0,0.0,480.0,13.0,0.0
18606,66.0,18.0,90.0,5.0,0.0
18607,58.0,0.0,480.0,12.0,0.0
18608,54.0,60.0,60.0,6.0,0.0
18609,54.0,16.0,60.0,6.0,0.0
18610,73.0,26.0,60.0,11.0,0.0
18611,78.0,24.0,120.0,1.0,0.0
18612,66.0,18.0,30.0,5.0,0.0
18613,78.0,0.0,30.0,5.0,0.0
18614,54.0,12.0,60.0,6.0,0.0
18615,73.0,24.0,60.0,11.0,0.0
18616,54.0,56.0,60.0,6.0,0.0
18617,58.0,24.0,960.0,4.0,0.0
18618,78.0,48.0,120.0,5.0,0.0
18619,90.0,0.0,120.0,1.0,0.0
18620,66.0,0.0,120.0,5.0,0.0
18621,73.0,4.0,60.0,11.0,0.0
18622,54.0,12.0,60.0,6.0,0.0
18623,85.0,24.0,120.0,8.0,0.0
18624,54.0,16.0,60.0,6.0,0.0
18625,73.0,0.0,120.0,2.0,0.0
18626,73.0,44.0,60.0,11.0,0.0
18627,61.0,0.0,120.0,3.0,0.0
18628,54.0,12.0,60.0,6.0,0.0
18629,73.0,24.0,60.0,11.0,0.0
18630,82.0,0.0,120.0,8.0,0.0
18631,54.0,56.0,60.0,6.0,0.0
18632,70.0,0.0,120.0,2.0,0.0
18633,58.0,36.0,120.0,3.0,0.0
18634,66.0,0.0,150.0,12.0,0.0
18635,54.0,12.0,150.0,13.0,0.0
18636,73.0,4.0,60.0,11.0,0.0
18637,54.0,12.0,60.0,6.0,0.0
18638,78.0,0.0,120.0,8.0,0.0
18639,54.0,60.0,60.0,6.0,0.0
18640,66.0,48.0,120.0,2.0,0.0
18641,54.0,0.0,120.0,3.0,0.0
18642,54.0,12.0,60.0,6.0,0.0
18643,70.0,0.0,960.0,4.0,0.0
18644,66.0,0.0,120.0,5.0,0.0
18645,87.0,48.0,600.0,1.0,0.0
18646,54.0,12.0,90.0,11.0,0.0
18647,54.0,48.0,60.0,6.0,0.0
18648,75.0,0.0,600.0,10.0,0.0
18649,78.0,48.0,120.0,5.0,0.0
18650,54.0,12.0,60.0,6.0,0.0
18651,54.0,60.0,60.0,6.0,0.0
18652,54.0,60.0,60.0,6.0,0.0
18653,54.0,42.0,60.0,6.0,0.0
18654,78.0,0.0,90.0,5.0,0.0
18655,66.0,0.0,480.0,12.0,0.0
18656,66.0,18.0,90.0,5.0,0.0
18657,54.0,0.0,480.0,13.0,0.0
18658,54.0,60.0,60.0,6.0,0.0
18659,54.0,16.0,60.0,6.0,0.0
18660,78.0,0.0,120.0,0.0,0.0
18661,54.0,26.0,60.0,11.0,0.0
18662,66.0,0.0,30.0,5.0,0.0
18663,78.0,18.0,30.0,5.0,0.0
18664,54.0,12.0,60.0,6.0,0.0
18665,54.0,24.0,60.0,11.0,0.0
18666,66.0,48.0,480.0,4.0,0.0
18667,78.0,0.0,120.0,5.0,0.0
18668,54.0,56.0,60.0,6.0,0.0
18669,90.0,0.0,120.0,0.0,0.0
18670,66.0,0.0,120.0,5.0,0.0
18671,54.0,4.0,60.0,11.0,0.0
18672,54.0,12.0,60.0,6.0,0.0
18673,54.0,16.0,60.0,6.0,0.0
18674,73.0,0.0,120.0,10.0,0.0
18675,85.0,24.0,120.0,1.0,0.0
18676,54.0,44.0,60.0,11.0,0.0
18677,54.0,12.0,60.0,6.0,0.0
18678,54.0,24.0,60.0,11.0,0.0
18679,58.0,0.0,150.0,13.0,0.0
18680,54.0,56.0,60.0,6.0,0.0
18681,82.0,36.0,120.0,1.0,0.0
18682,71.0,0.0,120.0,10.0,0.0
18683,70.0,12.0,150.0,12.0,0.0
18684,54.0,4.0,60.0,11.0,0.0
18685,54.0,12.0,60.0,6.0,0.0
18686,78.0,0.0,120.0,1.0,0.0
18687,68.0,0.0,120.0,10.0,0.0
18688,54.0,60.0,60.0,6.0,0.0
18689,54.0,12.0,60.0,6.0,0.0
18690,49.0,48.0,60.0,6.0,0.0
18691,61.0,48.0,120.0,5.0,0.0
18692,73.0,0.0,120.0,5.0,0.0
18693,74.0,0.0,600.0,2.0,0.0
18694,62.0,0.0,600.0,3.0,0.0
18695,71.0,0.0,1440.0,4.0,0.0
18696,68.0,0.0,1920.0,4.0,0.0
18697,86.0,48.0,600.0,8.0,0.0
18698,59.0,12.0,90.0,11.0,0.0
18699,49.0,12.0,60.0,6.0,0.0
18700,49.0,60.0,60.0,6.0,0.0
18701,49.0,60.0,60.0,6.0,0.0
18702,53.0,0.0,480.0,12.0,0.0
18703,49.0,42.0,60.0,6.0,0.0
18704,41.0,24.0,480.0,13.0,0.0
18705,73.0,0.0,90.0,5.0,0.0
18706,61.0,18.0,90.0,5.0,0.0
18707,49.0,60.0,60.0,6.0,0.0
18708,80.0,24.0,120.0,1.0,0.0
18709,49.0,16.0,60.0,6.0,0.0
18710,59.0,26.0,60.0,11.0,0.0
18711,49.0,12.0,60.0,6.0,0.0
18712,73.0,18.0,30.0,5.0,0.0
18713,61.0,0.0,30.0,5.0,0.0
18714,59.0,24.0,60.0,11.0,0.0
18715,73.0,0.0,120.0,5.0,0.0
18716,86.0,0.0,120.0,1.0,0.0
18717,49.0,56.0,60.0,6.0,0.0
18718,61.0,0.0,120.0,5.0,0.0
18719,59.0,4.0,60.0,11.0,0.0
18720,49.0,12.0,60.0,6.0,0.0
18721,49.0,16.0,60.0,6.0,0.0
18722,59.0,44.0,60.0,11.0,0.0
18723,73.0,0.0,120.0,2.0,0.0
18724,85.0,0.0,120.0,8.0,0.0
18725,61.0,0.0,120.0,3.0,0.0
18726,49.0,12.0,60.0,6.0,0.0
18727,59.0,24.0,60.0,11.0,0.0
18728,59.0,0.0,150.0,12.0,0.0
18729,59.0,0.0,120.0,3.0,0.0
18730,49.0,56.0,60.0,6.0,0.0
18731,71.0,0.0,120.0,2.0,0.0
18732,47.0,12.0,150.0,13.0,0.0
18733,83.0,36.0,120.0,8.0,0.0
18734,59.0,4.0,60.0,11.0,0.0
18735,49.0,12.0,60.0,6.0,0.0
18736,56.0,48.0,120.0,3.0,0.0
18737,68.0,0.0,120.0,2.0,0.0
18738,49.0,60.0,60.0,6.0,0.0
18739,80.0,0.0,120.0,8.0,0.0
18740,49.0,12.0,60.0,6.0,0.0
18741,86.0,0.0,600.0,1.0,0.0
18742,73.0,0.0,120.0,5.0,0.0
18743,61.0,48.0,120.0,5.0,0.0
18744,74.0,0.0,600.0,10.0,0.0
18745,49.0,48.0,60.0,6.0,0.0
18746,53.0,12.0,90.0,11.0,0.0
18747,49.0,12.0,60.0,6.0,0.0
18748,49.0,60.0,60.0,6.0,0.0
18749,49.0,60.0,60.0,6.0,0.0
18750,61.0,0.0,90.0,5.0,0.0
18751,73.0,18.0,90.0,5.0,0.0
18752,35.0,0.0,480.0,13.0,0.0
18753,49.0,42.0,60.0,6.0,0.0
18754,47.0,0.0,480.0,12.0,0.0
18755,49.0,60.0,60.0,6.0,0.0
18756,49.0,16.0,60.0,6.0,0.0
18757,80.0,24.0,120.0,0.0,0.0
18758,53.0,26.0,60.0,11.0,0.0
18759,49.0,12.0,60.0,6.0,0.0
18760,73.0,0.0,30.0,5.0,0.0
18761,61.0,18.0,30.0,5.0,0.0
18762,53.0,24.0,60.0,11.0,0.0
18763,86.0,0.0,120.0,0.0,0.0
18764,61.0,48.0,120.0,5.0,0.0
18765,73.0,0.0,120.0,5.0,0.0
18766,49.0,56.0,60.0,6.0,0.0
18767,53.0,4.0,60.0,11.0,0.0
18768,49.0,12.0,60.0,6.0,0.0
18769,49.0,16.0,60.0,6.0,0.0
18770,73.0,24.0,120.0,10.0,0.0
18771,85.0,0.0,120.0,1.0,0.0
18772,53.0,44.0,60.0,11.0,0.0
18773,49.0,12.0,60.0,6.0,0.0
18774,53.0,24.0,60.0,11.0,0.0
18775,41.0,0.0,150.0,13.0,0.0
18776,61.0,0.0,720.0,4.0,0.0
18777,71.0,36.0,120.0,10.0,0.0
18778,49.0,56.0,60.0,6.0,0.0
18779,53.0,12.0,150.0,12.0,0.0
18780,83.0,0.0,120.0,1.0,0.0
18781,53.0,4.0,60.0,11.0,0.0
18782,49.0,12.0,60.0,6.0,0.0
18783,68.0,48.0,120.0,10.0,0.0
18784,49.0,60.0,60.0,6.0,0.0
18785,80.0,0.0,120.0,1.0,0.0
18786,49.0,12.0,60.0,6.0,0.0
18787,63.0,0.0,600.0,3.0,0.0
18788,75.0,0.0,600.0,2.0,0.0
18789,78.0,0.0,120.0,5.0,0.0
18790,66.0,48.0,120.0,5.0,0.0
18791,54.0,48.0,60.0,6.0,0.0
18792,66.0,0.0,960.0,4.0,0.0
18793,73.0,12.0,90.0,11.0,0.0
18794,87.0,0.0,600.0,8.0,0.0
18795,54.0,12.0,60.0,6.0,0.0
18796,54.0,60.0,60.0,6.0,0.0
18797,54.0,60.0,60.0,6.0,0.0
18798,58.0,24.0,480.0,12.0,0.0
18799,54.0,42.0,60.0,6.0,0.0
18800,78.0,0.0,90.0,5.0,0.0
18801,66.0,18.0,90.0,5.0,0.0
18802,46.0,0.0,480.0,13.0,0.0
18803,54.0,60.0,60.0,6.0,0.0
18804,54.0,16.0,60.0,6.0,0.0
18805,78.0,24.0,120.0,1.0,0.0
18806,73.0,26.0,60.0,11.0,0.0
18807,66.0,18.0,30.0,5.0,0.0
18808,78.0,0.0,30.0,5.0,0.0
18809,54.0,12.0,60.0,6.0,0.0
18810,73.0,24.0,60.0,11.0,0.0
18811,54.0,56.0,60.0,6.0,0.0
18812,58.0,0.0,960.0,4.0,0.0
18813,66.0,48.0,120.0,5.0,0.0
18814,78.0,0.0,120.0,5.0,0.0
18815,90.0,0.0,120.0,1.0,0.0
18816,73.0,4.0,60.0,11.0,0.0
18817,54.0,12.0,60.0,6.0,0.0
18818,73.0,44.0,60.0,11.0,0.0
18819,61.0,0.0,120.0,3.0,0.0
18820,54.0,16.0,60.0,6.0,0.0
18821,73.0,0.0,120.0,2.0,0.0
18822,85.0,0.0,120.0,8.0,0.0
18823,54.0,12.0,60.0,6.0,0.0
18824,73.0,24.0,60.0,11.0,0.0
18825,82.0,36.0,120.0,8.0,0.0
18826,58.0,0.0,120.0,3.0,0.0
18827,66.0,12.0,150.0,12.0,0.0
18828,54.0,56.0,60.0,6.0,0.0
18829,70.0,0.0,120.0,2.0,0.0
18830,54.0,0.0,150.0,13.0,0.0
18831,73.0,4.0,60.0,11.0,0.0
18832,54.0,12.0,60.0,6.0,0.0
18833,78.0,0.0,120.0,8.0,0.0
18834,54.0,48.0,120.0,3.0,0.0
18835,66.0,0.0,120.0,2.0,0.0
18836,54.0,60.0,60.0,6.0,0.0
18837,54.0,12.0,60.0,6.0,0.0
18838,66.0,48.0,120.0,5.0,0.0
18839,78.0,0.0,120.0,5.0,0.0
18840,87.0,0.0,600.0,1.0,0.0
18841,54.0,12.0,90.0,11.0,0.0
18842,75.0,0.0,600.0,10.0,0.0
18843,70.0,0.0,960.0,4.0,0.0
18844,54.0,48.0,60.0,6.0,0.0
18845,54.0,12.0,60.0,6.0,0.0
18846,54.0,60.0,60.0,6.0,0.0
18847,54.0,60.0,60.0,6.0,0.0
18848,66.0,0.0,90.0,5.0,0.0
18849,54.0,42.0,60.0,6.0,0.0
18850,78.0,18.0,90.0,5.0,0.0
18851,54.0,0.0,480.0,13.0,0.0
18852,66.0,24.0,480.0,12.0,0.0
18853,54.0,60.0,60.0,6.0,0.0
18854,78.0,24.0,120.0,0.0,0.0
18855,54.0,26.0,60.0,11.0,0.0
18856,54.0,16.0,60.0,6.0,0.0
18857,78.0,18.0,30.0,5.0,0.0
18858,66.0,0.0,30.0,5.0,0.0
18859,54.0,12.0,60.0,6.0,0.0
18860,54.0,24.0,60.0,11.0,0.0
18861,54.0,56.0,60.0,6.0,0.0
18862,66.0,48.0,120.0,5.0,0.0
18863,66.0,48.0,480.0,4.0,0.0
18864,90.0,0.0,120.0,0.0,0.0
18865,78.0,0.0,120.0,5.0,0.0
18866,54.0,4.0,60.0,11.0,0.0
18867,54.0,12.0,60.0,6.0,0.0
18868,54.0,16.0,60.0,6.0,0.0
18869,73.0,0.0,120.0,10.0,0.0
18870,54.0,44.0,60.0,11.0,0.0
18871,85.0,0.0,120.0,1.0,0.0
18872,54.0,12.0,60.0,6.0,0.0
18873,54.0,24.0,60.0,11.0,0.0
18874,54.0,56.0,60.0,6.0,0.0
18875,82.0,36.0,120.0,1.0,0.0
18876,71.0,0.0,120.0,10.0,0.0
18877,70.0,12.0,150.0,12.0,0.0
18878,58.0,0.0,150.0,13.0,0.0
18879,54.0,4.0,60.0,11.0,0.0
18880,54.0,12.0,60.0,6.0,0.0
18881,54.0,60.0,60.0,6.0,0.0
18882,78.0,0.0,120.0,1.0,0.0
18883,68.0,0.0,120.0,10.0,0.0
18884,54.0,12.0,60.0,6.0,0.0
18885,74.0,40.0,120.0,2.0,0.0
18886,73.0,0.0,120.0,5.0,0.0
18887,49.0,32.0,60.0,6.0,0.0
18888,61.0,0.0,120.0,5.0,0.0
18889,86.0,0.0,120.0,8.0,0.0
18890,71.0,0.0,720.0,4.0,0.0
18891,49.0,12.0,60.0,6.0,0.0
18892,59.0,28.0,15.0,11.0,0.0
18893,80.0,0.0,120.0,1.0,0.0
18894,49.0,60.0,60.0,6.0,0.0
18895,85.0,0.0,120.0,8.0,0.0
18896,73.0,48.0,120.0,2.0,0.0
18897,59.0,0.0,90.0,11.0,0.0
18898,49.0,12.0,60.0,6.0,0.0
18899,83.0,0.0,120.0,8.0,0.0
18900,86.0,0.0,120.0,1.0,0.0
18901,73.0,0.0,90.0,5.0,0.0
18902,61.0,18.0,90.0,5.0,0.0
18903,49.0,32.0,60.0,6.0,0.0
18904,68.0,0.0,720.0,4.0,0.0
18905,41.0,6.0,120.0,12.0,0.0
18906,29.0,0.0,120.0,13.0,0.0
18907,71.0,40.0,120.0,2.0,0.0
18908,49.0,6.0,60.0,6.0,0.0
18909,59.0,10.0,15.0,11.0,0.0
18910,35.0,6.0,120.0,13.0,0.0
18911,68.0,0.0,120.0,2.0,0.0
18912,80.0,48.0,120.0,8.0,0.0
18913,47.0,0.0,120.0,12.0,0.0
18914,49.0,42.0,60.0,6.0,0.0
18915,59.0,8.0,15.0,11.0,0.0
18916,73.0,18.0,30.0,5.0,0.0
18917,61.0,0.0,30.0,5.0,0.0
18918,49.0,6.0,60.0,6.0,0.0
18919,61.0,0.0,120.0,5.0,0.0
18920,62.0,0.0,120.0,3.0,0.0
18921,74.0,40.0,120.0,10.0,0.0
18922,53.0,28.0,90.0,11.0,0.0
18923,49.0,32.0,60.0,6.0,0.0
18924,73.0,0.0,120.0,5.0,0.0
18925,49.0,12.0,60.0,6.0,0.0
18926,49.0,60.0,60.0,6.0,0.0
18927,73.0,0.0,120.0,10.0,0.0
18928,80.0,0.0,120.0,0.0,0.0
18929,61.0,48.0,120.0,3.0,0.0
18930,53.0,8.0,15.0,11.0,0.0
18931,49.0,12.0,60.0,6.0,0.0
18932,35.0,6.0,120.0,13.0,0.0
18933,86.0,0.0,120.0,0.0,0.0
18934,53.0,0.0,15.0,11.0,0.0
18935,49.0,32.0,60.0,6.0,0.0
18936,71.0,0.0,120.0,10.0,0.0
18937,47.0,0.0,120.0,12.0,0.0
18938,61.0,0.0,720.0,4.0,0.0
18939,59.0,40.0,120.0,3.0,0.0
18940,49.0,6.0,60.0,6.0,0.0
18941,53.0,28.0,15.0,11.0,0.0
18942,53.0,6.0,120.0,12.0,0.0
18943,41.0,0.0,120.0,13.0,0.0
18944,68.0,0.0,120.0,10.0,0.0
18945,49.0,60.0,60.0,6.0,0.0
18946,56.0,0.0,120.0,3.0,0.0
18947,53.0,48.0,90.0,11.0,0.0
18948,49.0,6.0,60.0,6.0,0.0
18949,87.0,24.0,120.0,8.0,0.0
18950,75.0,0.0,120.0,2.0,0.0
18951,70.0,0.0,960.0,4.0,0.0
18952,78.0,0.0,120.0,5.0,0.0
18953,66.0,0.0,120.0,5.0,0.0
18954,54.0,16.0,60.0,6.0,0.0
18955,73.0,44.0,60.0,11.0,0.0
18956,54.0,12.0,60.0,6.0,0.0
18957,73.0,24.0,60.0,11.0,0.0
18958,78.0,48.0,120.0,1.0,0.0
18959,73.0,0.0,120.0,2.0,0.0
18960,85.0,0.0,120.0,8.0,0.0
18961,54.0,56.0,60.0,6.0,0.0
18962,73.0,4.0,60.0,11.0,0.0
18963,54.0,12.0,60.0,6.0,0.0
18964,46.0,0.0,120.0,13.0,0.0
18965,54.0,16.0,60.0,6.0,0.0
18966,66.0,0.0,90.0,5.0,0.0
18967,58.0,6.0,120.0,12.0,0.0
18968,78.0,18.0,90.0,5.0,0.0
18969,82.0,0.0,120.0,8.0,0.0
18970,73.0,26.0,60.0,11.0,0.0
18971,70.0,24.0,120.0,2.0,0.0
18972,90.0,0.0,120.0,1.0,0.0
18973,54.0,6.0,60.0,6.0,0.0
18974,73.0,24.0,60.0,11.0,0.0
18975,54.0,6.0,120.0,13.0,0.0
18976,78.0,48.0,120.0,8.0,0.0
18977,66.0,0.0,120.0,2.0,0.0
18978,54.0,42.0,60.0,6.0,0.0
18979,66.0,0.0,120.0,12.0,0.0
18980,73.0,4.0,60.0,11.0,0.0
18981,78.0,14.0,30.0,5.0,0.0
18982,54.0,6.0,60.0,6.0,0.0
18983,66.0,0.0,30.0,5.0,0.0
18984,54.0,44.0,60.0,11.0,0.0
18985,75.0,24.0,120.0,10.0,0.0
18986,66.0,48.0,480.0,4.0,0.0
18987,54.0,16.0,60.0,6.0,0.0
18988,63.0,0.0,120.0,3.0,0.0
18989,66.0,0.0,120.0,5.0,0.0
18990,78.0,0.0,120.0,5.0,0.0
18991,54.0,12.0,60.0,6.0,0.0
18992,54.0,24.0,60.0,11.0,0.0
18993,61.0,0.0,120.0,3.0,0.0
18994,54.0,56.0,60.0,6.0,0.0
18995,78.0,0.0,120.0,0.0,0.0
18996,73.0,48.0,120.0,10.0,0.0
18997,54.0,4.0,60.0,11.0,0.0
18998,54.0,12.0,60.0,6.0,0.0
18999,70.0,0.0,120.0,10.0,0.0
19000,90.0,0.0,120.0,0.0,0.0
19001,58.0,24.0,120.0,3.0,0.0
19002,66.0,0.0,120.0,12.0,0.0
19003,54.0,44.0,60.0,11.0,0.0
19004,54.0,16.0,60.0,6.0,0.0
19005,54.0,6.0,120.0,13.0,0.0
19006,54.0,6.0,60.0,6.0,0.0
19007,54.0,24.0,60.0,11.0,0.0
19008,54.0,0.0,120.0,3.0,0.0
19009,58.0,6.0,120.0,13.0,0.0
19010,70.0,0.0,120.0,12.0,0.0
19011,54.0,56.0,60.0,6.0,0.0
19012,66.0,0.0,120.0,10.0,0.0
19013,54.0,4.0,60.0,11.0,0.0
19014,54.0,6.0,60.0,6.0,0.0
19015,74.0,0.0,120.0,10.0,0.0
19016,74.0,0.0,120.0,2.0,0.0
19017,71.0,0.0,720.0,4.0,0.0
19018,86.0,40.0,120.0,8.0,0.0
19019,49.0,32.0,60.0,6.0,0.0
19020,61.0,0.0,120.0,5.0,0.0
19021,73.0,0.0,120.0,5.0,0.0
19022,49.0,12.0,60.0,6.0,0.0
19023,53.0,28.0,15.0,11.0,0.0
19024,73.0,0.0,120.0,2.0,0.0
19025,80.0,0.0,120.0,1.0,0.0
19026,49.0,60.0,60.0,6.0,0.0
19027,85.0,48.0,120.0,8.0,0.0
19028,73.0,0.0,120.0,10.0,0.0
19029,53.0,8.0,15.0,11.0,0.0
19030,49.0,12.0,60.0,6.0,0.0
19031,29.0,0.0,120.0,13.0,0.0
19032,68.0,0.0,720.0,4.0,0.0
19033,53.0,0.0,15.0,11.0,0.0
19034,86.0,40.0,120.0,1.0,0.0
19035,71.0,0.0,120.0,2.0,0.0
19036,71.0,0.0,120.0,10.0,0.0
19037,41.0,6.0,120.0,12.0,0.0
19038,49.0,32.0,60.0,6.0,0.0
19039,61.0,18.0,90.0,5.0,0.0
19040,73.0,0.0,90.0,5.0,0.0
19041,83.0,0.0,120.0,8.0,0.0
19042,49.0,6.0,60.0,6.0,0.0
19043,35.0,0.0,120.0,13.0,0.0
19044,49.0,42.0,60.0,6.0,0.0
19045,47.0,6.0,120.0,12.0,0.0
19046,68.0,0.0,120.0,2.0,0.0
19047,68.0,0.0,120.0,10.0,0.0
19048,80.0,0.0,120.0,8.0,0.0
19049,53.0,8.0,15.0,11.0,0.0
19050,49.0,6.0,60.0,6.0,0.0
19051,61.0,0.0,30.0,5.0,0.0
19052,73.0,18.0,30.0,5.0,0.0
19053,62.0,40.0,120.0,3.0,0.0
19054,74.0,0.0,120.0,10.0,0.0
19055,86.0,0.0,120.0,8.0,0.0
19056,49.0,32.0,60.0,6.0,0.0
19057,73.0,0.0,120.0,5.0,0.0
19058,61.0,0.0,120.0,5.0,0.0
19059,59.0,28.0,90.0,11.0,0.0
19060,49.0,12.0,60.0,6.0,0.0
19061,59.0,8.0,90.0,11.0,0.0
19062,85.0,0.0,120.0,8.0,0.0
19063,61.0,0.0,120.0,3.0,0.0
19064,73.0,0.0,120.0,10.0,0.0
19065,80.0,0.0,120.0,0.0,0.0
19066,49.0,60.0,60.0,6.0,0.0
19067,49.0,12.0,60.0,6.0,0.0
19068,59.0,0.0,120.0,3.0,0.0
19069,61.0,48.0,720.0,4.0,0.0
19070,83.0,0.0,120.0,8.0,0.0
19071,71.0,0.0,120.0,10.0,0.0
19072,49.0,32.0,60.0,6.0,0.0
19073,35.0,0.0,120.0,13.0,0.0
19074,59.0,48.0,15.0,11.0,0.0
19075,47.0,6.0,120.0,12.0,0.0
19076,86.0,40.0,120.0,0.0,0.0
19077,49.0,6.0,60.0,6.0,0.0
19078,59.0,28.0,15.0,11.0,0.0
19079,53.0,0.0,120.0,12.0,0.0
19080,49.0,60.0,60.0,6.0,0.0
19081,56.0,0.0,120.0,3.0,0.0
19082,68.0,0.0,120.0,10.0,0.0
19083,41.0,6.0,120.0,13.0,0.0
19084,80.0,48.0,120.0,8.0,0.0
19085,59.0,0.0,90.0,11.0,0.0
19086,49.0,6.0,60.0,6.0,0.0
19087,57.0,44.0,60.0,11.0,0.0
19088,74.0,0.0,120.0,10.0,0.0
19089,86.0,0.0,120.0,8.0,0.0
19090,78.0,0.0,120.0,5.0,0.0
19091,66.0,24.0,120.0,5.0,0.0
19092,74.0,0.0,120.0,2.0,0.0
19093,69.0,0.0,960.0,4.0,0.0
19094,54.0,16.0,60.0,6.0,0.0
19095,54.0,12.0,60.0,6.0,0.0
19096,57.0,24.0,60.0,11.0,0.0
19097,73.0,48.0,120.0,2.0,0.0
19098,78.0,0.0,120.0,1.0,0.0
19099,54.0,56.0,60.0,6.0,0.0
19100,85.0,0.0,120.0,8.0,0.0
19101,73.0,0.0,120.0,10.0,0.0
19102,57.0,4.0,60.0,11.0,0.0
19103,54.0,12.0,60.0,6.0,0.0
19104,57.0,26.0,60.0,11.0,0.0
19105,57.0,0.0,120.0,12.0,0.0
19106,78.0,18.0,90.0,5.0,0.0
19107,66.0,0.0,90.0,5.0,0.0
19108,81.0,0.0,120.0,8.0,0.0
19109,69.0,24.0,120.0,2.0,0.0
19110,90.0,0.0,120.0,1.0,0.0
19111,45.0,6.0,120.0,13.0,0.0
19112,54.0,16.0,60.0,6.0,0.0
19113,69.0,0.0,120.0,10.0,0.0
19114,54.0,6.0,60.0,6.0,0.0
19115,57.0,24.0,60.0,11.0,0.0
19116,66.0,0.0,120.0,10.0,0.0
19117,78.0,0.0,120.0,8.0,0.0
19118,54.0,42.0,60.0,6.0,0.0
19119,54.0,0.0,120.0,13.0,0.0
19120,66.0,6.0,120.0,12.0,0.0
19121,66.0,0.0,120.0,2.0,0.0
19122,57.0,4.0,60.0,11.0,0.0
19123,66.0,0.0,30.0,5.0,0.0
19124,78.0,14.0,30.0,5.0,0.0
19125,54.0,6.0,60.0,6.0,0.0
19126,74.0,0.0,120.0,10.0,0.0
19127,66.0,0.0,120.0,5.0,0.0
19128,54.0,16.0,60.0,6.0,0.0
19129,86.0,0.0,120.0,8.0,0.0
19130,78.0,0.0,120.0,5.0,0.0
19131,62.0,24.0,120.0,3.0,0.0
19132,66.0,0.0,480.0,4.0,0.0
19133,66.0,44.0,60.0,11.0,0.0
19134,54.0,12.0,60.0,6.0,0.0
19135,66.0,24.0,60.0,11.0,0.0
19136,85.0,0.0,120.0,8.0,0.0
19137,61.0,0.0,120.0,3.0,0.0
19138,78.0,0.0,120.0,0.0,0.0
19139,73.0,48.0,120.0,10.0,0.0
19140,54.0,56.0,60.0,6.0,0.0
19141,66.0,4.0,60.0,11.0,0.0
19142,54.0,12.0,60.0,6.0,0.0
19143,66.0,0.0,120.0,12.0,0.0
19144,57.0,24.0,120.0,3.0,0.0
19145,81.0,0.0,120.0,8.0,0.0
19146,66.0,44.0,60.0,11.0,0.0
19147,54.0,6.0,120.0,13.0,0.0
19148,54.0,16.0,60.0,6.0,0.0
19149,69.0,0.0,120.0,10.0,0.0
19150,90.0,0.0,120.0,0.0,0.0
19151,54.0,6.0,60.0,6.0,0.0
19152,69.0,24.0,60.0,11.0,0.0
19153,54.0,48.0,120.0,3.0,0.0
19154,66.0,0.0,120.0,10.0,0.0
19155,57.0,6.0,120.0,13.0,0.0
19156,78.0,0.0,120.0,8.0,0.0
19157,54.0,56.0,60.0,6.0,0.0
19158,69.0,0.0,120.0,12.0,0.0
19159,69.0,4.0,60.0,11.0,0.0
19160,54.0,6.0,60.0,6.0,0.0
19161,37.0,0.0,120.0,13.0,0.0
19162,65.0,0.0,120.0,10.0,0.0
19163,49.0,48.0,60.0,6.0,0.0
19164,49.0,48.0,120.0,3.0,0.0
19165,61.0,0.0,120.0,12.0,0.0
19166,73.0,0.0,90.0,4.0,0.0
19167,59.0,0.0,120.0,11.0,0.0
19168,86.0,0.0,120.0,8.0,0.0
19169,61.0,36.0,180.0,5.0,0.0
19170,80.0,0.0,90.0,2.0,0.0
19171,73.0,0.0,180.0,5.0,0.0
19172,77.0,0.0,90.0,2.0,0.0
19173,61.0,0.0,90.0,4.0,0.0
19174,68.0,0.0,90.0,4.0,0.0
19175,86.0,0.0,120.0,1.0,0.0
19176,49.0,12.0,60.0,6.0,0.0
19177,49.0,24.0,60.0,6.0,0.0
19178,71.0,0.0,120.0,12.0,0.0
19179,85.0,48.0,120.0,8.0,0.0
19180,85.0,0.0,120.0,1.0,0.0
19181,56.0,0.0,120.0,11.0,0.0
19182,47.0,0.0,120.0,13.0,0.0
19183,68.0,0.0,120.0,10.0,0.0
19184,73.0,0.0,210.0,4.0,0.0
19185,59.0,0.0,120.0,3.0,0.0
19186,77.0,24.0,180.0,2.0,0.0
19187,80.0,0.0,180.0,2.0,0.0
19188,68.0,0.0,210.0,4.0,0.0
19189,61.0,12.0,210.0,4.0,0.0
19190,49.0,12.0,60.0,6.0,0.0
19191,89.0,0.0,120.0,8.0,0.0
19192,37.0,0.0,120.0,13.0,0.0
19193,59.0,24.0,120.0,11.0,0.0
19194,89.0,0.0,240.0,1.0,0.0
19195,49.0,24.0,60.0,6.0,0.0
19196,65.0,0.0,120.0,10.0,0.0
19197,49.0,0.0,120.0,3.0,0.0
19198,98.0,6.0,120.0,0.0,0.0
19199,61.0,0.0,120.0,12.0,0.0
19200,61.0,0.0,150.0,5.0,0.0
19201,73.0,24.0,150.0,5.0,0.0
19202,49.0,6.0,60.0,6.0,0.0
19203,49.0,60.0,60.0,6.0,0.0
19204,61.0,0.0,210.0,4.0,0.0
19205,47.0,0.0,120.0,13.0,0.0
19206,73.0,0.0,210.0,4.0,0.0
19207,80.0,0.0,180.0,2.0,0.0
19208,97.0,6.0,240.0,0.0,0.0
19209,71.0,0.0,120.0,12.0,0.0
19210,85.0,48.0,120.0,8.0,0.0
19211,56.0,0.0,120.0,11.0,0.0
19212,68.0,0.0,120.0,10.0,0.0
19213,68.0,0.0,210.0,4.0,0.0
19214,59.0,0.0,120.0,3.0,0.0
19215,77.0,24.0,180.0,2.0,0.0
19216,73.0,12.0,60.0,5.0,0.0
19217,61.0,0.0,60.0,5.0,0.0
19218,49.0,0.0,60.0,6.0,0.0
19219,37.0,0.0,120.0,13.0,0.0
19220,65.0,0.0,120.0,10.0,0.0
19221,61.0,0.0,120.0,12.0,0.0
19222,49.0,0.0,120.0,3.0,0.0
19223,92.0,0.0,360.0,1.0,0.0
19224,59.0,0.0,120.0,11.0,0.0
19225,92.0,48.0,120.0,8.0,0.0
19226,49.0,24.0,60.0,6.0,0.0
19227,73.0,36.0,180.0,5.0,0.0
19228,61.0,0.0,180.0,5.0,0.0
19229,49.0,6.0,60.0,6.0,0.0
19230,77.0,0.0,180.0,2.0,0.0
19231,56.0,0.0,120.0,11.0,0.0
19232,97.0,6.0,240.0,0.0,0.0
19233,71.0,0.0,120.0,12.0,0.0
19234,59.0,0.0,120.0,3.0,0.0
19235,80.0,24.0,180.0,2.0,0.0
19236,68.0,0.0,120.0,10.0,0.0
19237,68.0,0.0,120.0,4.0,0.0
19238,61.0,0.0,120.0,4.0,0.0
19239,49.0,24.0,60.0,6.0,0.0
19240,47.0,0.0,120.0,13.0,0.0
19241,85.0,0.0,120.0,8.0,0.0
19242,49.0,12.0,60.0,6.0,0.0
19243,73.0,0.0,150.0,5.0,0.0
19244,61.0,24.0,120.0,12.0,0.0
19245,61.0,24.0,150.0,5.0,0.0
19246,49.0,0.0,120.0,3.0,0.0
19247,73.0,48.0,15.0,4.0,0.0
19248,37.0,0.0,120.0,13.0,0.0
19249,61.0,0.0,90.0,4.0,0.0
19250,65.0,0.0,120.0,10.0,0.0
19251,59.0,0.0,120.0,11.0,0.0
19252,69.0,0.0,90.0,4.0,0.0
19253,49.0,24.0,60.0,6.0,0.0
19254,92.0,0.0,120.0,8.0,0.0
19255,49.0,6.0,60.0,6.0,0.0
19256,90.0,0.0,120.0,8.0,0.0
19257,57.0,0.0,120.0,3.0,0.0
19258,97.0,6.0,120.0,0.0,0.0
19259,69.0,0.0,120.0,12.0,0.0
19260,90.0,48.0,120.0,1.0,0.0
19261,66.0,0.0,120.0,10.0,0.0
19262,45.0,0.0,120.0,13.0,0.0
19263,57.0,0.0,120.0,11.0,0.0
19264,78.0,0.0,90.0,2.0,0.0
19265,49.0,48.0,60.0,6.0,0.0
19266,73.0,12.0,90.0,4.0,0.0
19267,61.0,0.0,90.0,4.0,0.0
19268,69.0,0.0,90.0,4.0,0.0
19269,61.0,0.0,60.0,5.0,0.0
19270,73.0,6.0,60.0,5.0,0.0
19271,49.0,0.0,60.0,6.0,0.0
19272,73.0,0.0,180.0,5.0,0.0
19273,49.0,48.0,60.0,6.0,0.0
19274,61.0,0.0,90.0,4.0,0.0
19275,86.0,48.0,120.0,8.0,0.0
19276,61.0,36.0,180.0,5.0,0.0
19277,37.0,0.0,120.0,13.0,0.0
19278,77.0,0.0,90.0,1.0,0.0
19279,73.0,0.0,90.0,4.0,0.0
19280,59.0,0.0,120.0,11.0,0.0
19281,68.0,0.0,90.0,4.0,0.0
19282,80.0,12.0,90.0,1.0,0.0
19283,61.0,0.0,120.0,12.0,0.0
19284,65.0,0.0,120.0,10.0,0.0
19285,49.0,0.0,120.0,3.0,0.0
19286,49.0,12.0,60.0,6.0,0.0
19287,77.0,24.0,180.0,1.0,0.0
19288,49.0,24.0,60.0,6.0,0.0
19289,80.0,0.0,180.0,1.0,0.0
19290,61.0,0.0,210.0,4.0,0.0
19291,68.0,0.0,210.0,4.0,0.0
19292,71.0,0.0,120.0,12.0,0.0
19293,73.0,0.0,210.0,4.0,0.0
19294,47.0,48.0,120.0,13.0,0.0
19295,59.0,0.0,120.0,3.0,0.0
19296,56.0,0.0,120.0,11.0,0.0
19297,68.0,0.0,120.0,10.0,0.0
19298,85.0,0.0,120.0,8.0,0.0
19299,49.0,12.0,60.0,6.0,0.0
19300,61.0,0.0,120.0,12.0,0.0
19301,65.0,0.0,120.0,10.0,0.0
19302,49.0,0.0,120.0,3.0,0.0
19303,37.0,0.0,120.0,13.0,0.0
19304,98.0,6.0,120.0,0.0,0.0
19305,59.0,24.0,120.0,11.0,0.0
19306,49.0,24.0,60.0,6.0,0.0
19307,61.0,0.0,150.0,5.0,0.0
19308,73.0,24.0,150.0,5.0,0.0
19309,86.0,0.0,120.0,2.0,0.0
19310,89.0,0.0,120.0,8.0,0.0
19311,49.0,6.0,60.0,6.0,0.0
19312,59.0,0.0,120.0,3.0,0.0
19313,44.0,0.0,120.0,13.0,0.0
19314,85.0,0.0,120.0,8.0,0.0
19315,68.0,0.0,120.0,10.0,0.0
19316,68.0,0.0,120.0,12.0,0.0
19317,61.0,0.0,210.0,4.0,0.0
19318,80.0,24.0,180.0,1.0,0.0
19319,73.0,0.0,210.0,4.0,0.0
19320,97.0,6.0,240.0,0.0,0.0
19321,85.0,0.0,240.0,2.0,0.0
19322,49.0,60.0,60.0,6.0,0.0
19323,56.0,48.0,120.0,11.0,0.0
19324,68.0,0.0,210.0,4.0,0.0
19325,77.0,0.0,180.0,1.0,0.0
19326,49.0,0.0,60.0,6.0,0.0
19327,61.0,12.0,60.0,5.0,0.0
19328,73.0,0.0,60.0,5.0,0.0
19329,37.0,0.0,120.0,13.0,0.0
19330,61.0,0.0,120.0,12.0,0.0
19331,65.0,0.0,120.0,10.0,0.0
19332,92.0,48.0,120.0,8.0,0.0
19333,49.0,24.0,60.0,6.0,0.0
19334,49.0,0.0,120.0,3.0,0.0
19335,59.0,0.0,120.0,11.0,0.0
19336,61.0,0.0,180.0,5.0,0.0
19337,73.0,36.0,180.0,5.0,0.0
19338,49.0,6.0,60.0,6.0,0.0
19339,77.0,0.0,180.0,1.0,0.0
19340,80.0,24.0,180.0,1.0,0.0
19341,97.0,0.0,240.0,0.0,0.0
19342,49.0,24.0,60.0,6.0,0.0
19343,61.0,0.0,120.0,4.0,0.0
19344,68.0,0.0,120.0,10.0,0.0
19345,65.0,48.0,120.0,12.0,0.0
19346,56.0,0.0,120.0,11.0,0.0
19347,85.0,6.0,240.0,2.0,0.0
19348,41.0,0.0,120.0,13.0,0.0
19349,73.0,0.0,120.0,4.0,0.0
19350,59.0,0.0,120.0,3.0,0.0
19351,85.0,0.0,120.0,8.0,0.0
19352,68.0,0.0,120.0,4.0,0.0
19353,49.0,12.0,60.0,6.0,0.0
19354,65.0,0.0,120.0,10.0,0.0
19355,49.0,0.0,120.0,3.0,0.0
19356,61.0,0.0,150.0,5.0,0.0
19357,92.0,24.0,120.0,8.0,0.0
19358,59.0,0.0,120.0,11.0,0.0
19359,73.0,12.0,90.0,4.0,0.0
19360,61.0,0.0,90.0,4.0,0.0
19361,69.0,0.0,90.0,4.0,0.0
19362,61.0,0.0,120.0,12.0,0.0
19363,37.0,0.0,120.0,13.0,0.0
19364,73.0,24.0,150.0,5.0,0.0
19365,49.0,24.0,60.0,6.0,0.0
19366,49.0,6.0,60.0,6.0,0.0
19367,49.0,48.0,60.0,6.0,0.0
19368,85.0,0.0,120.0,2.0,0.0
19369,73.0,0.0,90.0,4.0,0.0
19370,61.0,0.0,90.0,4.0,0.0
19371,66.0,0.0,120.0,12.0,0.0
19372,69.0,0.0,90.0,4.0,0.0
19373,78.0,0.0,90.0,1.0,0.0
19374,90.0,0.0,120.0,8.0,0.0
19375,66.0,0.0,120.0,10.0,0.0
19376,57.0,0.0,120.0,11.0,0.0
19377,57.0,48.0,120.0,3.0,0.0
19378,97.0,6.0,120.0,0.0,0.0
19379,49.0,6.0,60.0,6.0,0.0
19380,73.0,0.0,60.0,5.0,0.0
19381,61.0,0.0,60.0,5.0,0.0
19382,73.0,0.0,180.0,2.0,0.0
19383,42.0,0.0,15.0,13.0,0.0
19384,69.0,10.0,60.0,11.0,0.0
19385,85.0,0.0,180.0,2.0,0.0
19386,73.0,0.0,150.0,5.0,0.0
19387,61.0,24.0,150.0,5.0,0.0
19388,83.0,0.0,180.0,0.0,0.0
19389,95.0,0.0,180.0,0.0,0.0
19390,73.0,0.0,180.0,4.0,0.0
19391,71.0,24.0,120.0,10.0,0.0
19392,83.0,0.0,180.0,1.0,0.0
19393,73.0,1.0,180.0,1.0,0.0
19394,49.0,0.0,60.0,6.0,0.0
19395,83.0,38.0,60.0,8.0,0.0
19396,54.0,0.0,90.0,3.0,0.0
19397,54.0,0.0,90.0,12.0,0.0
19398,85.0,2.0,60.0,8.0,0.0
19399,49.0,10.0,60.0,6.0,0.0
19400,69.0,0.0,60.0,11.0,0.0
19401,56.0,12.0,90.0,3.0,0.0
19402,56.0,0.0,90.0,12.0,0.0
19403,83.0,14.0,60.0,8.0,0.0
19404,49.0,0.0,60.0,6.0,0.0
19405,71.0,10.0,60.0,11.0,0.0
19406,44.0,0.0,90.0,13.0,0.0
19407,81.0,50.0,60.0,8.0,0.0
19408,73.0,0.0,60.0,5.0,0.0
19409,71.0,0.0,60.0,11.0,0.0
19410,61.0,10.0,60.0,5.0,0.0
19411,49.0,0.0,60.0,6.0,0.0
19412,61.0,0.0,15.0,4.0,0.0
19413,73.0,23.0,15.0,4.0,0.0
19414,61.0,0.0,390.0,4.0,0.0
19415,59.0,0.0,60.0,11.0,0.0
19416,80.0,0.0,390.0,0.0,0.0
19417,68.0,0.0,390.0,0.0,0.0
19418,73.0,36.0,180.0,5.0,0.0
19419,49.0,0.0,390.0,4.0,0.0
19420,59.0,0.0,390.0,13.0,0.0
19421,80.0,60.0,60.0,8.0,0.0
19422,71.0,0.0,390.0,3.0,0.0
19423,71.0,24.0,390.0,12.0,0.0
19424,49.0,0.0,180.0,6.0,0.0
19425,73.0,0.0,390.0,2.0,0.0
19426,61.0,0.0,180.0,5.0,0.0
19427,56.0,0.0,60.0,11.0,0.0
19428,68.0,18.0,450.0,1.0,0.0
19429,56.0,0.0,60.0,11.0,0.0
19430,81.0,0.0,60.0,8.0,0.0
19431,59.0,60.0,60.0,11.0,0.0
19432,59.0,0.0,60.0,11.0,0.0
19433,80.0,24.0,60.0,8.0,0.0
19434,56.0,0.0,60.0,11.0,0.0
19435,78.0,0.0,60.0,8.0,0.0
19436,56.0,0.0,60.0,11.0,0.0
19437,59.0,60.0,60.0,11.0,0.0
19438,77.0,0.0,60.0,8.0,0.0
19439,56.0,60.0,60.0,11.0,0.0
19440,59.0,0.0,60.0,11.0,0.0
19441,56.0,0.0,60.0,11.0,0.0
19442,78.0,0.0,60.0,8.0,0.0
19443,59.0,36.0,60.0,11.0,0.0
19444,59.0,42.0,60.0,11.0,0.0
19445,80.0,0.0,60.0,8.0,0.0
19446,56.0,0.0,60.0,11.0,0.0
19447,81.0,0.0,60.0,8.0,0.0
19448,59.0,0.0,60.0,11.0,0.0
19449,56.0,60.0,60.0,11.0,0.0
19450,49.0,0.0,180.0,6.0,0.0
19451,83.0,60.0,60.0,8.0,0.0
19452,83.0,4.0,360.0,1.0,0.0
19453,56.0,0.0,330.0,12.0,0.0
19454,73.0,24.0,420.0,2.0,0.0
19455,85.0,0.0,420.0,2.0,0.0
19456,44.0,12.0,330.0,13.0,0.0
19457,95.0,0.0,180.0,0.0,0.0
19458,71.0,0.0,60.0,11.0,0.0
19459,83.0,0.0,180.0,0.0,0.0
19460,73.0,0.0,420.0,4.0,0.0
19461,56.0,0.0,330.0,3.0,0.0
19462,61.0,36.0,180.0,5.0,0.0
19463,61.0,0.0,420.0,4.0,0.0
19464,73.0,0.0,180.0,5.0,0.0
19465,71.0,0.0,60.0,11.0,0.0
19466,85.0,60.0,60.0,8.0,0.0
19467,71.0,0.0,60.0,11.0,0.0
19468,87.0,24.0,60.0,8.0,0.0
19469,71.0,0.0,60.0,11.0,0.0
19470,89.0,60.0,60.0,8.0,0.0
19471,61.0,0.0,150.0,5.0,0.0
19472,90.0,0.0,90.0,8.0,0.0
19473,71.0,10.0,60.0,11.0,0.0
19474,85.0,38.0,60.0,0.0,0.0
19475,49.0,0.0,60.0,6.0,0.0
19476,73.0,0.0,60.0,10.0,0.0
19477,73.0,24.0,150.0,5.0,0.0
19478,71.0,0.0,60.0,11.0,0.0
19479,74.0,0.0,60.0,10.0,0.0
19480,49.0,6.0,60.0,6.0,0.0
19481,86.0,26.0,60.0,0.0,0.0
19482,45.0,0.0,90.0,13.0,0.0
19483,85.0,14.0,60.0,0.0,0.0
19484,57.0,0.0,90.0,3.0,0.0
19485,49.0,0.0,60.0,6.0,0.0
19486,57.0,12.0,90.0,12.0,0.0
19487,73.0,0.0,60.0,10.0,0.0
19488,73.0,10.0,60.0,11.0,0.0
19489,85.0,0.0,90.0,1.0,0.0
19490,73.0,0.0,60.0,11.0,0.0
19491,71.0,0.0,60.0,10.0,0.0
19492,83.0,50.0,60.0,0.0,0.0
19493,49.0,0.0,60.0,6.0,0.0
19494,61.0,10.0,60.0,5.0,0.0
19495,73.0,0.0,60.0,5.0,0.0
19496,69.0,0.0,60.0,10.0,0.0
19497,61.0,0.0,390.0,13.0,0.0
19498,73.0,0.0,390.0,3.0,0.0
19499,69.0,18.0,450.0,1.0,0.0
19500,61.0,0.0,390.0,4.0,0.0
19501,66.0,0.0,390.0,2.0,0.0
19502,78.0,0.0,390.0,2.0,0.0
19503,81.0,0.0,60.0,0.0,0.0
19504,54.0,0.0,180.0,6.0,0.0
19505,78.0,0.0,180.0,5.0,0.0
19506,66.0,36.0,180.0,5.0,0.0
19507,61.0,60.0,60.0,11.0,0.0
19508,57.0,0.0,60.0,11.0,0.0
19509,73.0,12.0,570.0,4.0,0.0
19510,49.0,0.0,390.0,4.0,0.0
19511,73.0,24.0,390.0,12.0,0.0
19512,61.0,0.0,60.0,11.0,0.0
19513,71.0,0.0,60.0,10.0,0.0
19514,83.0,60.0,60.0,0.0,0.0
19515,57.0,0.0,60.0,11.0,0.0
19516,69.0,24.0,60.0,10.0,0.0
19517,61.0,0.0,60.0,11.0,0.0
19518,57.0,0.0,60.0,11.0,0.0
19519,81.0,0.0,60.0,0.0,0.0
19520,57.0,0.0,60.0,11.0,0.0
19521,68.0,60.0,60.0,10.0,0.0
19522,80.0,0.0,60.0,0.0,0.0
19523,61.0,0.0,60.0,11.0,0.0
19524,66.0,0.0,60.0,10.0,0.0
19525,78.0,60.0,60.0,0.0,0.0
19526,57.0,0.0,60.0,11.0,0.0
19527,61.0,0.0,60.0,11.0,0.0
19528,61.0,0.0,60.0,11.0,0.0
19529,57.0,0.0,60.0,11.0,0.0
19530,68.0,36.0,60.0,10.0,0.0
19531,80.0,0.0,60.0,0.0,0.0
19532,61.0,0.0,60.0,11.0,0.0
19533,57.0,42.0,60.0,11.0,0.0
19534,69.0,0.0,60.0,10.0,0.0
19535,81.0,0.0,60.0,0.0,0.0
19536,61.0,0.0,60.0,11.0,0.0
19537,71.0,60.0,60.0,10.0,0.0
19538,83.0,0.0,60.0,0.0,0.0
19539,57.0,0.0,60.0,11.0,0.0
19540,66.0,0.0,420.0,4.0,0.0
19541,54.0,0.0,420.0,4.0,0.0
19542,57.0,0.0,330.0,3.0,0.0
19543,90.0,0.0,420.0,2.0,0.0
19544,33.0,0.0,330.0,13.0,0.0
19545,45.0,12.0,330.0,12.0,0.0
19546,85.0,0.0,330.0,1.0,0.0
19547,73.0,48.0,60.0,11.0,0.0
19548,73.0,0.0,60.0,10.0,0.0
19549,78.0,0.0,420.0,2.0,0.0
19550,85.0,0.0,60.0,0.0,0.0
19551,86.0,60.0,60.0,0.0,0.0
19552,74.0,0.0,60.0,10.0,0.0
19553,73.0,0.0,60.0,11.0,0.0
19554,73.0,0.0,60.0,11.0,0.0
19555,76.0,0.0,60.0,10.0,0.0
19556,88.0,60.0,60.0,0.0,0.0
19557,73.0,60.0,60.0,11.0,0.0
19558,78.0,0.0,60.0,10.0,0.0
19559,90.0,0.0,60.0,0.0,0.0
19560,78.0,0.0,150.0,5.0,0.0
19561,54.0,0.0,60.0,6.0,0.0
19562,86.0,38.0,60.0,8.0,0.0
19563,73.0,10.0,60.0,11.0,0.0
19564,80.0,24.0,120.0,10.0,0.0
19565,92.0,0.0,120.0,0.0,0.0
19566,66.0,24.0,150.0,5.0,0.0
19567,74.0,24.0,180.0,4.0,0.0
19568,73.0,0.0,60.0,11.0,0.0
19569,88.0,2.0,60.0,8.0,0.0
19570,54.0,10.0,60.0,6.0,0.0
19571,86.0,0.0,90.0,1.0,0.0
19572,74.0,0.0,60.0,11.0,0.0
19573,86.0,14.0,60.0,8.0,0.0
19574,35.0,0.0,90.0,13.0,0.0
19575,59.0,12.0,90.0,3.0,0.0
19576,47.0,0.0,90.0,12.0,0.0
19577,54.0,10.0,60.0,6.0,0.0
19578,74.0,10.0,60.0,11.0,0.0
19579,66.0,0.0,60.0,5.0,0.0
19580,78.0,0.0,60.0,5.0,0.0
19581,85.0,50.0,60.0,8.0,0.0
19582,54.0,0.0,60.0,6.0,0.0
19583,54.0,18.0,450.0,4.0,0.0
19584,59.0,0.0,60.0,11.0,0.0
19585,74.0,0.0,810.0,4.0,0.0
19586,78.0,24.0,390.0,2.0,0.0
19587,54.0,0.0,180.0,6.0,0.0
19588,83.0,60.0,60.0,8.0,0.0
19589,66.0,0.0,390.0,2.0,0.0
19590,71.0,18.0,420.0,1.0,0.0
19591,50.0,0.0,390.0,13.0,0.0
19592,80.0,0.0,390.0,0.0,0.0
19593,66.0,0.0,180.0,5.0,0.0
19594,78.0,36.0,180.0,5.0,0.0
19595,75.0,0.0,390.0,3.0,0.0
19596,62.0,0.0,390.0,12.0,0.0
19597,59.0,0.0,60.0,11.0,0.0
19598,85.0,60.0,60.0,8.0,0.0
19599,83.0,24.0,60.0,8.0,0.0
19600,59.0,0.0,60.0,11.0,0.0
19601,59.0,0.0,60.0,11.0,0.0
19602,81.0,60.0,60.0,8.0,0.0
19603,59.0,60.0,60.0,11.0,0.0
19604,80.0,0.0,60.0,8.0,0.0
19605,59.0,0.0,60.0,11.0,0.0
19606,81.0,36.0,60.0,8.0,0.0
19607,59.0,0.0,60.0,11.0,0.0
19608,83.0,24.0,60.0,8.0,0.0
19609,59.0,0.0,60.0,11.0,0.0
19610,85.0,60.0,60.0,8.0,0.0
19611,47.0,12.0,330.0,12.0,0.0
19612,86.0,0.0,60.0,8.0,0.0
19613,66.0,0.0,180.0,5.0,0.0
19614,78.0,36.0,180.0,5.0,0.0
19615,90.0,0.0,420.0,2.0,0.0
19616,66.0,0.0,420.0,4.0,0.0
19617,54.0,0.0,180.0,6.0,0.0
19618,35.0,0.0,330.0,13.0,0.0
19619,59.0,0.0,330.0,3.0,0.0
19620,80.0,0.0,330.0,1.0,0.0
19621,92.0,0.0,330.0,1.0,0.0
19622,78.0,0.0,420.0,2.0,0.0
19623,92.0,0.0,180.0,0.0,0.0
19624,54.0,24.0,420.0,4.0,0.0
19625,74.0,60.0,60.0,11.0,0.0
19626,74.0,60.0,60.0,11.0,0.0
19627,88.0,0.0,60.0,8.0,0.0
19628,74.0,24.0,60.0,11.0,0.0
19629,90.0,0.0,60.0,8.0,0.0
19630,74.0,60.0,60.0,11.0,0.0
19631,92.0,0.0,60.0,8.0,0.0
19632,66.0,24.0,150.0,5.0,0.0
19633,74.0,0.0,60.0,11.0,0.0
19634,94.0,0.0,90.0,8.0,0.0
19635,88.0,38.0,60.0,0.0,0.0
19636,54.0,10.0,60.0,6.0,0.0
19637,76.0,0.0,60.0,10.0,0.0
19638,78.0,0.0,150.0,5.0,0.0
19639,78.0,0.0,60.0,10.0,0.0
19640,74.0,0.0,60.0,11.0,0.0
19641,90.0,26.0,60.0,0.0,0.0
19642,54.0,10.0,60.0,6.0,0.0
19643,76.0,0.0,60.0,11.0,0.0
19644,61.0,0.0,90.0,3.0,0.0
19645,49.0,0.0,90.0,12.0,0.0
19646,88.0,14.0,60.0,0.0,0.0
19647,93.0,0.0,90.0,1.0,0.0
19648,81.0,0.0,90.0,1.0,0.0
19649,76.0,0.0,60.0,10.0,0.0
19650,73.0,0.0,90.0,4.0,0.0
19651,37.0,12.0,90.0,13.0,0.0
19652,54.0,10.0,60.0,6.0,0.0
19653,54.0,0.0,60.0,6.0,0.0
19654,86.0,0.0,60.0,0.0,0.0
19655,74.0,50.0,60.0,10.0,0.0
19656,78.0,10.0,60.0,5.0,0.0
19657,66.0,0.0,60.0,5.0,0.0
19658,76.0,0.0,60.0,11.0,0.0
19659,85.0,0.0,60.0,0.0,0.0
19660,73.0,0.0,390.0,1.0,0.0
19661,52.0,0.0,390.0,13.0,0.0
19662,66.0,0.0,180.0,5.0,0.0
19663,54.0,36.0,180.0,6.0,0.0
19664,78.0,0.0,180.0,5.0,0.0
19665,64.0,0.0,390.0,12.0,0.0
19666,61.0,60.0,60.0,11.0,0.0
19667,73.0,12.0,570.0,4.0,0.0
19668,66.0,0.0,390.0,2.0,0.0
19669,76.0,24.0,390.0,3.0,0.0
19670,73.0,0.0,60.0,10.0,0.0
19671,54.0,18.0,450.0,4.0,0.0
19672,78.0,0.0,390.0,2.0,0.0
19673,86.0,0.0,60.0,0.0,0.0
19674,61.0,0.0,60.0,11.0,0.0
19675,74.0,60.0,60.0,10.0,0.0
19676,85.0,24.0,60.0,0.0,0.0
19677,73.0,0.0,60.0,10.0,0.0
19678,61.0,0.0,60.0,11.0,0.0
19679,71.0,60.0,60.0,10.0,0.0
19680,83.0,0.0,60.0,0.0,0.0
19681,61.0,0.0,60.0,11.0,0.0
19682,82.0,0.0,60.0,0.0,0.0
19683,61.0,60.0,60.0,11.0,0.0
19684,70.0,0.0,60.0,10.0,0.0
19685,71.0,36.0,60.0,10.0,0.0
19686,83.0,0.0,60.0,0.0,0.0
19687,61.0,0.0,60.0,11.0,0.0
19688,61.0,0.0,60.0,11.0,0.0
19689,85.0,0.0,60.0,0.0,0.0
19690,73.0,42.0,60.0,10.0,0.0
19691,61.0,0.0,60.0,11.0,0.0
19692,86.0,60.0,60.0,0.0,0.0
19693,74.0,0.0,60.0,10.0,0.0
19694,37.0,0.0,330.0,13.0,0.0
19695,88.0,0.0,60.0,0.0,0.0
19696,76.0,0.0,330.0,1.0,0.0
19697,88.0,12.0,330.0,1.0,0.0
19698,76.0,48.0,60.0,10.0,0.0
19699,66.0,0.0,180.0,5.0,0.0
19700,49.0,0.0,330.0,3.0,0.0
19701,78.0,0.0,180.0,5.0,0.0
19702,66.0,0.0,420.0,4.0,0.0
19703,54.0,36.0,180.0,6.0,0.0
19704,54.0,0.0,420.0,4.0,0.0
19705,78.0,0.0,420.0,2.0,0.0
19706,90.0,24.0,420.0,2.0,0.0
19707,76.0,0.0,60.0,11.0,0.0
19708,49.0,0.0,330.0,12.0,0.0
19709,76.0,0.0,60.0,11.0,0.0
19710,78.0,0.0,60.0,10.0,0.0
19711,90.0,60.0,60.0,0.0,0.0
19712,80.0,0.0,60.0,10.0,0.0
19713,76.0,0.0,60.0,11.0,0.0
19714,92.0,24.0,60.0,0.0,0.0
19715,94.0,60.0,60.0,0.0,0.0
19716,82.0,0.0,60.0,10.0,0.0
19717,76.0,0.0,60.0,11.0,0.0
19718,76.0,0.0,60.0,11.0,0.0
19719,83.0,4.0,120.0,10.0,0.0
19720,94.0,0.0,90.0,0.0,0.0
19721,78.0,0.0,150.0,5.0,0.0
19722,66.0,24.0,150.0,5.0,0.0
19723,54.0,10.0,60.0,6.0,0.0
19724,78.0,38.0,60.0,8.0,0.0
19725,54.0,6.0,60.0,6.0,0.0
19726,76.0,0.0,60.0,11.0,0.0
19727,79.0,26.0,60.0,8.0,0.0
19728,50.0,0.0,90.0,12.0,0.0
19729,90.0,0.0,90.0,1.0,0.0
19730,95.0,0.0,90.0,0.0,0.0
19731,50.0,0.0,90.0,3.0,0.0
19732,38.0,12.0,90.0,13.0,0.0
19733,54.0,10.0,60.0,6.0,0.0
19734,78.0,14.0,60.0,8.0,0.0
19735,78.0,0.0,60.0,11.0,0.0
19736,78.0,0.0,60.0,11.0,0.0
19737,76.0,50.0,60.0,8.0,0.0
19738,78.0,10.0,60.0,5.0,0.0
19739,66.0,0.0,60.0,5.0,0.0
19740,54.0,0.0,60.0,6.0,0.0
19741,54.0,0.0,390.0,13.0,0.0
19742,78.0,0.0,180.0,5.0,0.0
19743,74.0,18.0,420.0,1.0,0.0
19744,66.0,0.0,390.0,12.0,0.0
19745,54.0,36.0,180.0,6.0,0.0
19746,74.0,0.0,60.0,8.0,0.0
19747,66.0,0.0,180.0,5.0,0.0
19748,95.0,0.0,390.0,0.0,0.0
19749,66.0,24.0,390.0,2.0,0.0
19750,78.0,0.0,390.0,2.0,0.0
19751,62.0,60.0,60.0,11.0,0.0
19752,54.0,18.0,450.0,4.0,0.0
19753,66.0,0.0,390.0,3.0,0.0
19754,76.0,0.0,60.0,8.0,0.0
19755,62.0,60.0,60.0,11.0,0.0
19756,74.0,0.0,60.0,8.0,0.0
19757,62.0,24.0,60.0,11.0,0.0
19758,62.0,60.0,60.0,11.0,0.0
19759,73.0,0.0,60.0,8.0,0.0
19760,71.0,60.0,60.0,8.0,0.0
19761,62.0,0.0,60.0,11.0,0.0
19762,73.0,36.0,60.0,8.0,0.0
19763,62.0,0.0,60.0,11.0,0.0
19764,62.0,0.0,60.0,11.0,0.0
19765,74.0,24.0,60.0,8.0,0.0
19766,62.0,60.0,60.0,11.0,0.0
19767,76.0,0.0,60.0,8.0,0.0
19768,78.0,60.0,60.0,8.0,0.0
19769,54.0,0.0,180.0,6.0,0.0
19770,78.0,0.0,60.0,11.0,0.0
19771,78.0,0.0,180.0,2.0,0.0
19772,50.0,0.0,330.0,3.0,0.0
19773,50.0,0.0,330.0,12.0,0.0
19774,95.0,0.0,180.0,0.0,0.0
19775,78.0,0.0,180.0,5.0,0.0
19776,83.0,2.0,480.0,1.0,0.0
19777,90.0,36.0,180.0,2.0,0.0
19778,66.0,0.0,180.0,5.0,0.0
19779,54.0,0.0,240.0,4.0,0.0
19780,38.0,12.0,330.0,13.0,0.0
19781,80.0,60.0,60.0,8.0,0.0
19782,78.0,0.0,60.0,11.0,0.0
19783,78.0,0.0,60.0,11.0,0.0
19784,82.0,24.0,60.0,8.0,0.0
19785,83.0,12.0,60.0,8.0,0.0
19786,78.0,0.0,60.0,11.0,0.0
19787,83.0,0.0,90.0,8.0,0.0
19788,68.0,0.0,60.0,10.0,0.0
19789,80.0,24.0,180.0,2.0,0.0
19790,78.0,0.0,60.0,5.0,0.0
19791,66.0,48.0,15.0,4.0,0.0
19792,78.0,10.0,60.0,11.0,0.0
19793,80.0,2.0,60.0,0.0,0.0
19794,92.0,0.0,60.0,0.0,0.0
19795,61.0,36.0,60.0,4.0,0.0
19796,66.0,0.0,60.0,5.0,0.0
19797,93.0,0.0,60.0,0.0,0.0
19798,81.0,0.0,60.0,0.0,0.0
19799,69.0,50.0,60.0,10.0,0.0
19800,78.0,10.0,60.0,11.0,0.0
19801,68.0,0.0,60.0,4.0,0.0
19802,41.0,0.0,90.0,13.0,0.0
19803,92.0,0.0,60.0,0.0,0.0
19804,80.0,2.0,60.0,0.0,0.0
19805,61.0,0.0,60.0,4.0,0.0
19806,73.0,0.0,60.0,5.0,0.0
19807,80.0,10.0,60.0,11.0,0.0
19808,53.0,0.0,90.0,3.0,0.0
19809,68.0,0.0,60.0,10.0,0.0
19810,80.0,12.0,60.0,5.0,0.0
19811,53.0,10.0,90.0,12.0,0.0
19812,66.0,0.0,60.0,10.0,0.0
19813,78.0,50.0,60.0,0.0,0.0
19814,90.0,0.0,60.0,0.0,0.0
19815,80.0,10.0,60.0,11.0,0.0
19816,73.0,16.0,450.0,5.0,0.0
19817,68.0,0.0,240.0,12.0,0.0
19818,68.0,0.0,240.0,3.0,0.0
19819,80.0,0.0,450.0,5.0,0.0
19820,61.0,24.0,390.0,2.0,0.0
19821,59.0,48.0,60.0,11.0,0.0
19822,73.0,0.0,390.0,4.0,0.0
19823,56.0,0.0,60.0,11.0,0.0
19824,49.0,0.0,60.0,6.0,0.0
19825,61.0,0.0,450.0,4.0,0.0
19826,61.0,12.0,90.0,8.0,0.0
19827,65.0,0.0,60.0,10.0,0.0
19828,71.0,18.0,420.0,1.0,0.0
19829,56.0,2.0,240.0,13.0,0.0
19830,89.0,0.0,60.0,0.0,0.0
19831,77.0,0.0,60.0,0.0,0.0
19832,68.0,0.0,450.0,4.0,0.0
19833,90.0,0.0,60.0,0.0,0.0
19834,49.0,0.0,60.0,6.0,0.0
19835,66.0,60.0,60.0,10.0,0.0
19836,56.0,0.0,60.0,11.0,0.0
19837,78.0,0.0,60.0,0.0,0.0
19838,59.0,0.0,60.0,11.0,0.0
19839,49.0,58.0,60.0,6.0,0.0
19840,77.0,0.0,60.0,0.0,0.0
19841,65.0,0.0,60.0,10.0,0.0
19842,59.0,0.0,60.0,11.0,0.0
19843,56.0,0.0,60.0,11.0,0.0
19844,89.0,0.0,60.0,0.0,0.0
19845,59.0,0.0,60.0,11.0,0.0
19846,56.0,60.0,60.0,11.0,0.0
19847,75.0,0.0,60.0,0.0,0.0
19848,87.0,0.0,60.0,0.0,0.0
19849,49.0,0.0,60.0,6.0,0.0
19850,63.0,0.0,60.0,10.0,0.0
19851,89.0,0.0,60.0,8.0,0.0
19852,61.0,0.0,60.0,10.0,0.0
19853,71.0,0.0,240.0,12.0,0.0
19854,71.0,2.0,240.0,3.0,0.0
19855,56.0,0.0,60.0,11.0,0.0
19856,59.0,0.0,240.0,13.0,0.0
19857,59.0,48.0,60.0,11.0,0.0
19858,49.0,0.0,60.0,6.0,0.0
19859,85.0,0.0,60.0,0.0,0.0
19860,73.0,0.0,60.0,0.0,0.0
19861,90.0,12.0,60.0,8.0,0.0
19862,74.0,36.0,60.0,0.0,0.0
19863,56.0,0.0,60.0,11.0,0.0
19864,86.0,0.0,60.0,0.0,0.0
19865,59.0,0.0,60.0,11.0,0.0
19866,62.0,0.0,60.0,10.0,0.0
19867,49.0,0.0,60.0,6.0,0.0
19868,89.0,0.0,60.0,8.0,0.0
19869,56.0,0.0,60.0,11.0,0.0
19870,65.0,0.0,60.0,10.0,0.0
19871,49.0,24.0,60.0,6.0,0.0
19872,77.0,0.0,60.0,0.0,0.0
19873,89.0,0.0,60.0,0.0,0.0
19874,59.0,0.0,60.0,11.0,0.0
19875,90.0,0.0,60.0,8.0,0.0
19876,78.0,0.0,60.0,0.0,0.0
19877,90.0,0.0,60.0,0.0,0.0
19878,49.0,0.0,60.0,6.0,0.0
19879,59.0,0.0,60.0,11.0,0.0
19880,56.0,12.0,60.0,11.0,0.0
19881,66.0,0.0,60.0,10.0,0.0
19882,89.0,48.0,60.0,8.0,0.0
19883,85.0,36.0,180.0,2.0,0.0
19884,68.0,0.0,60.0,10.0,0.0
19885,73.0,0.0,120.0,5.0,0.0
19886,80.0,30.0,120.0,5.0,0.0
19887,80.0,0.0,180.0,1.0,0.0
19888,85.0,0.0,180.0,1.0,0.0
19889,59.0,0.0,60.0,11.0,0.0
19890,80.0,0.0,60.0,0.0,0.0
19891,61.0,0.0,180.0,4.0,0.0
19892,73.0,0.0,180.0,2.0,0.0
19893,92.0,0.0,60.0,0.0,0.0
19894,49.0,48.0,60.0,6.0,0.0
19895,89.0,0.0,60.0,8.0,0.0
19896,49.0,0.0,180.0,4.0,0.0
19897,56.0,0.0,60.0,11.0,0.0
19898,90.0,12.0,60.0,8.0,0.0
19899,56.0,0.0,60.0,11.0,0.0
19900,59.0,0.0,60.0,11.0,0.0
19901,49.0,0.0,60.0,6.0,0.0
19902,93.0,6.0,60.0,0.0,0.0
19903,81.0,0.0,60.0,0.0,0.0
19904,69.0,0.0,60.0,10.0,0.0
19905,89.0,24.0,60.0,8.0,0.0
19906,71.0,0.0,60.0,10.0,0.0
19907,95.0,0.0,60.0,0.0,0.0
19908,49.0,0.0,60.0,6.0,0.0
19909,56.0,0.0,60.0,11.0,0.0
19910,59.0,24.0,60.0,11.0,0.0
19911,47.0,4.0,120.0,13.0,0.0
19912,59.0,0.0,120.0,3.0,0.0
19913,59.0,0.0,120.0,12.0,0.0
19914,83.0,0.0,60.0,0.0,0.0
19915,87.0,0.0,60.0,8.0,0.0
19916,85.0,0.0,60.0,0.0,0.0
19917,97.0,0.0,60.0,0.0,0.0
19918,49.0,0.0,60.0,6.0,0.0
19919,73.0,0.0,60.0,10.0,0.0
19920,59.0,0.0,60.0,11.0,0.0
19921,73.0,0.0,60.0,5.0,0.0
19922,56.0,6.0,60.0,11.0,0.0
19923,80.0,2.0,60.0,5.0,0.0
19924,89.0,96.0,60.0,8.0,0.0
19925,90.0,0.0,90.0,8.0,0.0
19926,78.0,0.0,90.0,8.0,0.0
19927,78.0,0.0,90.0,0.0,0.0
19928,57.0,24.0,90.0,12.0,0.0
19929,45.0,0.0,90.0,13.0,0.0
19930,57.0,0.0,90.0,3.0,0.0
19931,81.0,0.0,90.0,1.0,0.0
19932,90.0,0.0,90.0,0.0,0.0
19933,61.0,0.0,120.0,4.0,0.0
19934,73.0,72.0,120.0,4.0,0.0
19935,57.0,0.0,90.0,11.0,0.0
19936,61.0,0.0,90.0,11.0,0.0
19937,85.0,0.0,90.0,1.0,0.0
19938,66.0,0.0,90.0,8.0,0.0
19939,78.0,0.0,120.0,5.0,0.0
19940,66.0,0.0,120.0,5.0,0.0
19941,85.0,0.0,90.0,2.0,0.0
19942,73.0,0.0,90.0,2.0,0.0
19943,73.0,0.0,90.0,10.0,0.0
19944,54.0,0.0,180.0,6.0,0.0
19945,85.0,120.0,120.0,1.0,0.0
19946,90.0,0.0,120.0,0.0,0.0
19947,54.0,0.0,120.0,4.0,0.0
19948,93.0,72.0,120.0,0.0,0.0
19949,66.0,0.0,120.0,5.0,0.0
19950,78.0,0.0,120.0,5.0,0.0
19951,45.0,0.0,180.0,3.0,0.0
19952,69.0,0.0,180.0,11.0,0.0
19953,54.0,0.0,180.0,6.0,0.0
19954,73.0,0.0,180.0,11.0,0.0
19955,45.0,0.0,180.0,12.0,0.0
19956,90.0,0.0,180.0,8.0,0.0
19957,57.0,0.0,120.0,4.0,0.0
19958,78.0,48.0,180.0,10.0,0.0
19959,66.0,0.0,120.0,4.0,0.0
19960,81.0,0.0,15.0,1.0,0.0
19961,33.0,0.0,180.0,13.0,0.0
19962,69.0,0.0,120.0,4.0,0.0
19963,85.0,0.0,120.0,1.0,0.0
19964,83.0,0.0,240.0,1.0,0.0
19965,88.0,120.0,240.0,0.0,0.0
19966,80.0,120.0,15.0,1.0,0.0
19967,66.0,0.0,240.0,2.0,0.0
19968,69.0,108.0,240.0,2.0,0.0
19969,81.0,0.0,120.0,1.0,0.0
19970,78.0,0.0,120.0,1.0,0.0
19971,86.0,120.0,120.0,0.0,0.0
19972,90.0,0.0,120.0,1.0,0.0
19973,90.0,0.0,120.0,0.0,0.0
19974,85.0,0.0,15.0,1.0,0.0
19975,73.0,96.0,120.0,1.0,0.0
19976,68.0,0.0,120.0,2.0,0.0
19977,64.0,0.0,120.0,2.0,0.0
19978,85.0,0.0,120.0,0.0,0.0
19979,54.0,0.0,60.0,4.0,0.0
19980,66.0,12.0,60.0,4.0,0.0
19981,74.0,0.0,120.0,1.0,0.0
19982,83.0,1.0,120.0,0.0,0.0
19983,62.0,0.0,120.0,2.0,0.0
19984,66.0,24.0,90.0,4.0,0.0
19985,83.0,0.0,120.0,1.0,0.0
19986,54.0,0.0,90.0,4.0,0.0
19987,76.0,0.0,120.0,1.0,0.0
19988,93.0,0.0,120.0,0.0,0.0
19989,66.0,113.0,15.0,2.0,0.0
19990,64.0,0.0,120.0,2.0,0.0
19991,61.0,114.0,120.0,2.0,0.0
19992,81.0,6.0,120.0,1.0,0.0
19993,80.0,0.0,120.0,1.0,0.0
19994,92.0,6.0,120.0,0.0,0.0
19995,65.0,0.0,120.0,3.0,0.0
19996,77.0,0.0,120.0,1.0,0.0
19997,59.0,0.0,120.0,3.0,0.0
19998,74.0,108.0,120.0,2.0,0.0
19999,71.0,0.0,120.0,2.0,0.0
20000,90.0,0.0,120.0,0.0,0.0
20001,66.0,0.0,120.0,3.0,0.0
20002,78.0,6.0,120.0,1.0,0.0
20003,54.0,0.0,60.0,4.0,0.0
20004,66.0,6.0,60.0,4.0,0.0
20005,69.0,0.0,15.0,2.0,0.0
20006,73.0,0.0,15.0,2.0,0.0
20007,90.0,0.0,210.0,0.0,0.0
20008,57.0,96.0,15.0,3.0,0.0
20009,66.0,150.0,210.0,3.0,0.0
20010,78.0,0.0,210.0,1.0,0.0
20011,66.0,0.0,90.0,4.0,0.0
20012,54.0,120.0,90.0,4.0,0.0
20013,54.0,0.0,150.0,6.0,0.0
20014,45.0,18.0,120.0,13.0,0.0
20015,69.0,0.0,120.0,4.0,0.0
20016,57.0,0.0,120.0,12.0,0.0
20017,66.0,0.0,120.0,4.0,0.0
20018,54.0,0.0,120.0,4.0,0.0
20019,78.0,0.0,150.0,5.0,0.0
20020,66.0,78.0,150.0,5.0,0.0
20021,78.0,0.0,120.0,10.0,0.0
20022,90.0,0.0,120.0,8.0,0.0
20023,73.0,0.0,120.0,11.0,0.0
20024,57.0,0.0,30.0,12.0,0.0
20025,90.0,0.0,30.0,8.0,0.0
20026,78.0,0.0,30.0,10.0,0.0
20027,78.0,0.0,60.0,5.0,0.0
20028,61.0,0.0,30.0,11.0,0.0
20029,54.0,0.0,30.0,4.0,0.0
20030,66.0,108.0,60.0,5.0,0.0
20031,54.0,0.0,60.0,6.0,0.0
20032,69.0,0.0,30.0,4.0,0.0
20033,45.0,0.0,30.0,13.0,0.0
20034,66.0,6.0,30.0,4.0,0.0
20035,74.0,0.0,90.0,10.0,0.0
20036,66.0,72.0,120.0,5.0,0.0
20037,54.0,0.0,90.0,4.0,0.0
20038,78.0,0.0,120.0,5.0,0.0
20039,59.0,0.0,90.0,12.0,0.0
20040,80.0,0.0,90.0,8.0,0.0
20041,54.0,48.0,180.0,6.0,0.0
20042,66.0,0.0,90.0,4.0,0.0
20043,68.0,0.0,90.0,4.0,0.0
20044,62.0,24.0,90.0,11.0,0.0
20045,47.0,0.0,90.0,13.0,0.0
20046,83.0,120.0,120.0,1.0,0.0
20047,78.0,0.0,120.0,5.0,0.0
20048,66.0,0.0,120.0,5.0,0.0
20049,54.0,0.0,180.0,6.0,0.0
20050,86.0,72.0,120.0,1.0,0.0
20051,47.0,0.0,180.0,12.0,0.0
20052,74.0,0.0,180.0,11.0,0.0
20053,92.0,0.0,180.0,8.0,0.0
20054,62.0,0.0,180.0,10.0,0.0
20055,35.0,0.0,180.0,13.0,0.0
20056,68.0,0.0,180.0,4.0,0.0
20057,66.0,0.0,180.0,4.0,0.0
20058,54.0,168.0,180.0,4.0,0.0
20059,81.0,0.0,240.0,1.0,0.0
20060,83.0,120.0,120.0,0.0,0.0
20061,80.0,120.0,120.0,1.0,0.0
20062,80.0,0.0,240.0,2.0,0.0
20063,86.0,0.0,120.0,0.0,0.0
20064,83.0,0.0,240.0,2.0,0.0
20065,86.0,0.0,120.0,0.0,0.0
20066,83.0,108.0,120.0,1.0,0.0
20067,81.0,0.0,120.0,2.0,0.0
20068,78.0,0.0,120.0,2.0,0.0
20069,86.0,96.0,120.0,1.0,0.0
20070,66.0,12.0,60.0,4.0,0.0
20071,54.0,0.0,60.0,4.0,0.0
20072,54.0,24.0,90.0,4.0,0.0
20073,66.0,0.0,90.0,4.0,0.0
20074,80.0,1.0,120.0,2.0,0.0
20075,97.0,0.0,120.0,0.0,0.0
20076,85.0,0.0,120.0,1.0,0.0
20077,74.0,6.0,120.0,1.0,0.0
20078,83.0,0.0,120.0,1.0,0.0
20079,76.0,113.0,15.0,2.0,0.0
20080,74.0,114.0,120.0,2.0,0.0
20081,78.0,0.0,120.0,2.0,0.0
20082,86.0,0.0,120.0,0.0,0.0
20083,95.0,0.0,120.0,0.0,0.0
20084,93.0,0.0,120.0,0.0,0.0
20085,76.0,108.0,120.0,2.0,0.0
20086,73.0,0.0,120.0,2.0,0.0
20087,88.0,0.0,120.0,0.0,0.0
20088,76.0,6.0,120.0,1.0,0.0
20089,81.0,0.0,120.0,1.0,0.0
20090,77.0,0.0,120.0,1.0,0.0
20091,71.0,0.0,120.0,2.0,0.0
20092,92.0,6.0,120.0,0.0,0.0
20093,89.0,0.0,120.0,0.0,0.0
20094,80.0,0.0,120.0,1.0,0.0
20095,54.0,0.0,60.0,4.0,0.0
20096,66.0,6.0,60.0,4.0,0.0
20097,77.0,0.0,210.0,1.0,0.0
20098,80.0,0.0,210.0,1.0,0.0
20099,89.0,0.0,210.0,0.0,0.0
20100,92.0,0.0,210.0,0.0,0.0
20101,71.0,150.0,210.0,2.0,0.0
20102,54.0,0.0,90.0,4.0,0.0
20103,66.0,120.0,90.0,4.0,0.0
20104,74.0,96.0,15.0,2.0,0.0
20105,68.0,18.0,120.0,10.0,0.0
20106,62.0,0.0,120.0,11.0,0.0
20107,59.0,0.0,120.0,12.0,0.0
20108,54.0,78.0,150.0,6.0,0.0
20109,68.0,0.0,120.0,4.0,0.0
20110,54.0,0.0,120.0,4.0,0.0
20111,66.0,0.0,120.0,4.0,0.0
20112,66.0,0.0,150.0,5.0,0.0
20113,47.0,0.0,120.0,13.0,0.0
20114,78.0,0.0,150.0,5.0,0.0
20115,92.0,0.0,120.0,8.0,0.0
20116,47.0,0.0,30.0,13.0,0.0
20117,92.0,0.0,30.0,8.0,0.0
20118,62.0,0.0,30.0,11.0,0.0
20119,54.0,108.0,60.0,6.0,0.0
20120,81.0,0.0,30.0,10.0,0.0
20121,54.0,0.0,30.0,4.0,0.0
20122,66.0,0.0,30.0,4.0,0.0
20123,59.0,6.0,30.0,12.0,0.0
20124,68.0,0.0,30.0,4.0,0.0
20125,66.0,0.0,60.0,5.0,0.0
20126,78.0,0.0,60.0,5.0,0.0
20127,70.0,24.0,90.0,4.0,0.0
20128,49.0,0.0,90.0,13.0,0.0
20129,64.0,0.0,90.0,11.0,0.0
20130,70.0,0.0,90.0,10.0,0.0
20131,54.0,48.0,180.0,6.0,0.0
20132,78.0,0.0,120.0,5.0,0.0
20133,66.0,72.0,120.0,5.0,0.0
20134,61.0,0.0,90.0,12.0,0.0
20135,66.0,0.0,90.0,4.0,0.0
20136,82.0,0.0,90.0,8.0,0.0
20137,76.0,0.0,120.0,2.0,0.0
20138,64.0,120.0,120.0,3.0,0.0
20139,94.0,168.0,180.0,8.0,0.0
20140,66.0,0.0,180.0,4.0,0.0
20141,70.0,0.0,180.0,4.0,0.0
20142,52.0,0.0,180.0,11.0,0.0
20143,70.0,0.0,180.0,10.0,0.0
20144,79.0,0.0,120.0,2.0,0.0
20145,49.0,0.0,180.0,12.0,0.0
20146,67.0,0.0,120.0,3.0,0.0
20147,78.0,0.0,120.0,5.0,0.0
20148,66.0,72.0,120.0,5.0,0.0
20149,54.0,0.0,180.0,6.0,0.0
20150,37.0,0.0,180.0,13.0,0.0
20151,62.0,120.0,240.0,3.0,0.0
20152,74.0,0.0,240.0,2.0,0.0
20153,88.0,0.0,120.0,0.0,0.0
20154,76.0,0.0,120.0,1.0,0.0
20155,73.0,0.0,15.0,2.0,0.0
20156,91.0,0.0,120.0,0.0,0.0
20157,79.0,108.0,120.0,1.0,0.0
20158,76.0,0.0,120.0,2.0,0.0
20159,61.0,120.0,15.0,3.0,0.0
20160,64.0,0.0,120.0,3.0,0.0
20161,59.0,96.0,120.0,3.0,0.0
20162,62.0,0.0,120.0,3.0,0.0
20163,71.0,0.0,120.0,2.0,0.0
20164,74.0,0.0,120.0,2.0,0.0
20165,91.0,0.0,120.0,0.0,0.0
20166,79.0,0.0,120.0,1.0,0.0
20167,54.0,12.0,60.0,4.0,0.0
20168,66.0,0.0,60.0,4.0,0.0
20169,70.0,0.0,120.0,2.0,0.0
20170,58.0,0.0,120.0,3.0,0.0
20171,61.0,0.0,120.0,3.0,0.0
20172,90.0,120.0,120.0,0.0,0.0
20173,66.0,24.0,90.0,4.0,0.0
20174,78.0,0.0,120.0,1.0,0.0
20175,54.0,0.0,90.0,4.0,0.0
20176,73.0,0.0,15.0,2.0,0.0
20177,61.0,0.0,120.0,3.0,0.0
20178,76.0,0.0,120.0,1.0,0.0
20179,76.0,0.0,120.0,2.0,0.0
20180,64.0,0.0,120.0,3.0,0.0
20181,88.0,0.0,120.0,0.0,0.0
20182,73.0,120.0,120.0,1.0,0.0
20183,74.0,0.0,120.0,1.0,0.0
20184,62.0,0.0,120.0,3.0,0.0
20185,86.0,0.0,120.0,0.0,0.0
20186,74.0,108.0,120.0,2.0,0.0
20187,78.0,0.0,120.0,2.0,0.0
20188,66.0,0.0,120.0,3.0,0.0
20189,97.0,0.0,120.0,0.0,0.0
20190,85.0,0.0,120.0,1.0,0.0
20191,76.0,0.0,120.0,1.0,0.0
20192,88.0,96.0,120.0,0.0,0.0
20193,67.0,0.0,120.0,3.0,0.0
20194,79.0,0.0,120.0,2.0,0.0
20195,76.0,0.0,120.0,2.0,0.0
20196,64.0,0.0,120.0,3.0,0.0
20197,54.0,0.0,60.0,4.0,0.0
20198,66.0,12.0,60.0,4.0,0.0
20199,66.0,24.0,90.0,4.0,0.0
20200,66.0,0.0,120.0,3.0,0.0
20201,62.0,0.0,120.0,3.0,0.0
20202,54.0,0.0,90.0,4.0,0.0
20203,83.0,0.0,120.0,1.0,0.0
20204,78.0,0.0,120.0,1.0,0.0
20205,78.0,0.0,120.0,2.0,0.0
20206,90.0,0.0,120.0,0.0,0.0
20207,95.0,0.0,120.0,0.0,0.0
20208,74.0,120.0,120.0,2.0,0.0
20209,82.0,0.0,120.0,1.0,0.0
20210,76.0,0.0,120.0,2.0,0.0
20211,73.0,0.0,120.0,2.0,0.0
20212,94.0,0.0,120.0,0.0,0.0
20213,91.0,126.0,120.0,0.0,0.0
20214,79.0,0.0,120.0,1.0,0.0
20215,64.0,0.0,120.0,3.0,0.0
20216,61.0,0.0,120.0,3.0,0.0
20217,54.0,78.0,150.0,6.0,0.0
20218,70.0,18.0,120.0,4.0,0.0
20219,76.0,0.0,120.0,10.0,0.0
20220,61.0,0.0,120.0,12.0,0.0
20221,82.0,0.0,120.0,8.0,0.0
20222,66.0,0.0,120.0,4.0,0.0
20223,64.0,0.0,120.0,11.0,0.0
20224,52.0,0.0,120.0,11.0,0.0
20225,49.0,0.0,120.0,13.0,0.0
20226,78.0,0.0,150.0,5.0,0.0
20227,66.0,0.0,150.0,5.0,0.0
20228,70.0,0.0,30.0,4.0,0.0
20229,66.0,0.0,60.0,5.0,0.0
20230,64.0,0.0,30.0,11.0,0.0
20231,61.0,0.0,30.0,12.0,0.0
20232,64.0,0.0,30.0,10.0,0.0
20233,52.0,0.0,30.0,11.0,0.0
20234,66.0,0.0,30.0,4.0,0.0
20235,49.0,0.0,30.0,13.0,0.0
20236,54.0,108.0,60.0,6.0,0.0
20237,82.0,6.0,30.0,8.0,0.0
20238,78.0,0.0,60.0,5.0,0.0
20239,66.0,0.0,90.0,11.0,0.0
20240,54.0,0.0,90.0,11.0,0.0
20241,66.0,0.0,90.0,10.0,0.0
20242,62.0,24.0,90.0,12.0,0.0
20243,50.0,0.0,90.0,13.0,0.0
20244,66.0,72.0,120.0,5.0,0.0
20245,71.0,0.0,90.0,8.0,0.0
20246,54.0,48.0,180.0,6.0,0.0
20247,71.0,0.0,90.0,4.0,0.0
20248,50.0,0.0,90.0,4.0,0.0
20249,78.0,0.0,120.0,5.0,0.0
20250,86.0,0.0,120.0,1.0,0.0
20251,74.0,120.0,120.0,2.0,0.0
20252,78.0,0.0,120.0,5.0,0.0
20253,66.0,0.0,120.0,5.0,0.0
20254,78.0,0.0,180.0,10.0,0.0
20255,71.0,0.0,180.0,4.0,0.0
20256,78.0,72.0,120.0,2.0,0.0
20257,50.0,0.0,180.0,4.0,0.0
20258,54.0,0.0,180.0,6.0,0.0
20259,54.0,0.0,180.0,11.0,0.0
20260,83.0,168.0,180.0,8.0,0.0
20261,90.0,0.0,120.0,1.0,0.0
20262,38.0,0.0,180.0,13.0,0.0
20263,50.0,0.0,180.0,12.0,0.0
20264,85.0,0.0,240.0,1.0,0.0
20265,73.0,120.0,240.0,2.0,0.0
20266,86.0,0.0,120.0,0.0,0.0
20267,83.0,120.0,120.0,1.0,0.0
20268,71.0,0.0,15.0,2.0,0.0
20269,90.0,0.0,120.0,0.0,0.0
20270,86.0,120.0,120.0,1.0,0.0
20271,74.0,0.0,120.0,2.0,0.0
20272,69.0,0.0,120.0,2.0,0.0
20273,73.0,0.0,120.0,2.0,0.0
20274,90.0,0.0,120.0,0.0,0.0
20275,78.0,114.0,120.0,1.0,0.0
20276,88.0,0.0,120.0,0.0,0.0
20277,67.0,120.0,120.0,2.0,0.0
20278,71.0,0.0,120.0,2.0,0.0
20279,76.0,0.0,120.0,1.0,0.0
20280,86.0,0.0,120.0,1.0,0.0
20281,69.0,0.0,120.0,2.0,0.0
20282,66.0,0.0,120.0,2.0,0.0
20283,86.0,120.0,120.0,0.0,0.0
20284,78.0,0.0,120.0,1.0,0.0
20285,85.0,0.0,120.0,1.0,0.0
20286,82.0,0.0,120.0,1.0,0.0
20287,73.0,0.0,120.0,2.0,0.0
20288,94.0,0.0,120.0,0.0,0.0
20289,70.0,0.0,120.0,2.0,0.0
20290,64.0,120.0,120.0,3.0,0.0
20291,67.0,0.0,120.0,3.0,0.0
20292,83.0,120.0,120.0,1.0,0.0
20293,71.0,0.0,120.0,2.0,0.0
20294,95.0,0.0,120.0,0.0,0.0
20295,62.0,0.0,120.0,3.0,0.0
20296,66.0,0.0,120.0,3.0,0.0
20297,67.0,120.0,120.0,3.0,0.0
20298,64.0,0.0,120.0,3.0,0.0
20299,85.0,0.0,120.0,1.0,0.0
20300,73.0,0.0,120.0,2.0,0.0
20301,82.0,0.0,120.0,1.0,0.0
20302,94.0,0.0,120.0,0.0,0.0
20303,70.0,0.0,120.0,2.0,0.0
20304,66.0,0.0,120.0,3.0,0.0
20305,83.0,126.0,120.0,1.0,0.0
20306,71.0,0.0,120.0,2.0,0.0
20307,95.0,0.0,120.0,0.0,0.0
20308,62.0,0.0,120.0,3.0,0.0
20309,66.0,360.0,120.0,3.0,0.0
20310,62.0,0.0,120.0,3.0,0.0
20311,95.0,0.0,120.0,0.0,0.0
20312,71.0,0.0,120.0,2.0,0.0
20313,66.0,0.0,120.0,2.0,0.0
20314,83.0,0.0,120.0,1.0,0.0
20315,73.0,0.0,240.0,4.0,0.0
20316,66.0,0.0,240.0,4.0,0.0
20317,66.0,0.0,240.0,2.0,0.0
20318,73.0,104.0,240.0,2.0,0.0
20319,90.0,0.0,240.0,0.0,0.0
20320,62.0,0.0,240.0,3.0,0.0
20321,66.0,0.0,240.0,3.0,0.0
20322,78.0,0.0,240.0,1.0,0.0
20323,97.0,0.0,240.0,0.0,0.0
20324,85.0,0.0,240.0,1.0,0.0
20325,79.0,0.0,90.0,1.0,0.0
20326,67.0,0.0,90.0,4.0,0.0
20327,71.0,0.0,90.0,4.0,0.0
20328,71.0,0.0,90.0,2.0,0.0
20329,62.0,376.0,90.0,3.0,0.0
20330,67.0,0.0,90.0,3.0,0.0
20331,95.0,0.0,90.0,0.0,0.0
20332,83.0,0.0,90.0,1.0,0.0
20333,91.0,0.0,90.0,0.0,0.0
20334,67.0,0.0,90.0,2.0,0.0
20335,71.0,0.0,240.0,2.0,0.0
20336,68.0,0.0,240.0,4.0,0.0
20337,71.0,0.0,240.0,4.0,0.0
20338,68.0,0.0,240.0,3.0,0.0
20339,62.0,0.0,240.0,3.0,0.0
20340,89.0,0.0,240.0,1.0,0.0
20341,92.0,0.0,240.0,0.0,0.0
20342,95.0,0.0,240.0,0.0,0.0
20343,77.0,0.0,240.0,2.0,0.0
20344,83.0,104.0,240.0,1.0,0.0
20345,69.0,0.0,90.0,2.0,0.0
20346,78.0,0.0,90.0,2.0,0.0
20347,93.0,376.0,90.0,0.0,0.0
20348,61.0,0.0,90.0,3.0,0.0
20349,69.0,0.0,90.0,3.0,0.0
20350,69.0,0.0,90.0,4.0,0.0
20351,61.0,0.0,90.0,4.0,0.0
20352,90.0,0.0,90.0,0.0,0.0
20353,81.0,0.0,90.0,1.0,0.0
20354,90.0,0.0,90.0,1.0,0.0
20355,93.0,0.0,240.0,0.0,0.0
20356,69.0,0.0,240.0,4.0,0.0
20357,66.0,0.0,240.0,4.0,0.0
20358,59.0,0.0,240.0,4.0,0.0
20359,81.0,0.0,240.0,2.0,0.0
20360,59.0,0.0,240.0,3.0,0.0
20361,66.0,0.0,240.0,3.0,0.0
20362,78.0,0.0,240.0,1.0,0.0
20363,86.0,0.0,240.0,1.0,0.0
20364,74.0,120.0,240.0,2.0,0.0
20365,91.0,0.0,120.0,0.0,0.0
20366,67.0,0.0,120.0,3.0,0.0
20367,86.0,0.0,120.0,1.0,0.0
20368,59.0,160.0,120.0,4.0,0.0
20369,79.0,0.0,120.0,1.0,0.0
20370,79.0,0.0,120.0,2.0,0.0
20371,71.0,0.0,120.0,2.0,0.0
20372,67.0,0.0,120.0,4.0,0.0
20373,59.0,0.0,120.0,3.0,0.0
20374,90.0,0.0,30.0,0.0,0.0
20375,78.0,0.0,30.0,1.0,0.0
20376,66.0,0.0,240.0,4.0,0.0
20377,86.0,0.0,240.0,8.0,0.0
20378,69.0,0.0,30.0,2.0,0.0
20379,74.0,108.0,240.0,10.0,0.0
20380,69.0,40.0,30.0,3.0,0.0
20381,49.0,0.0,240.0,13.0,0.0
20382,65.0,0.0,240.0,11.0,0.0
20383,61.0,0.0,240.0,12.0,0.0
20384,80.0,0.0,30.0,1.0,0.0
20385,71.0,0.0,30.0,2.0,0.0
20386,92.0,40.0,30.0,0.0,0.0
20387,71.0,0.0,30.0,3.0,0.0
20388,69.0,0.0,30.0,2.0,0.0
20389,78.0,40.0,30.0,1.0,0.0
20390,69.0,0.0,30.0,3.0,0.0
20391,90.0,0.0,30.0,0.0,0.0
20392,92.0,40.0,30.0,0.0,0.0
20393,71.0,0.0,30.0,2.0,0.0
20394,71.0,0.0,30.0,3.0,0.0
20395,80.0,0.0,30.0,1.0,0.0
20396,77.0,0.0,30.0,1.0,0.0
20397,68.0,0.0,30.0,3.0,0.0
20398,68.0,40.0,30.0,2.0,0.0
20399,89.0,0.0,30.0,0.0,0.0
20400,90.0,0.0,30.0,0.0,0.0
20401,69.0,0.0,30.0,3.0,0.0
20402,69.0,0.0,30.0,2.0,0.0
20403,78.0,0.0,30.0,1.0,0.0
20404,92.0,0.0,120.0,0.0,0.0
20405,61.0,0.0,15.0,3.0,0.0
20406,71.0,120.0,120.0,3.0,0.0
20407,71.0,0.0,120.0,2.0,0.0
20408,80.0,0.0,120.0,1.0,0.0
20409,61.0,0.0,15.0,4.0,0.0
20410,65.0,0.0,120.0,4.0,0.0
20411,85.0,12.0,120.0,8.0,0.0
20412,73.0,0.0,120.0,10.0,0.0
20413,68.0,0.0,120.0,3.0,0.0
20414,89.0,0.0,120.0,0.0,0.0
20415,77.0,240.0,120.0,1.0,0.0
20416,68.0,0.0,120.0,2.0,0.0
20417,85.0,0.0,240.0,8.0,0.0
20418,54.0,0.0,240.0,11.0,0.0
20419,62.0,0.0,240.0,12.0,0.0
20420,73.0,0.0,240.0,10.0,0.0
20421,66.0,0.0,120.0,3.0,0.0
20422,78.0,108.0,120.0,1.0,0.0
20423,78.0,0.0,120.0,2.0,0.0
20424,90.0,0.0,120.0,0.0,0.0
20425,91.0,0.0,120.0,0.0,0.0
20426,62.0,0.0,120.0,12.0,0.0
20427,50.0,0.0,15.0,13.0,0.0
20428,55.0,12.0,120.0,11.0,0.0
20429,67.0,0.0,120.0,3.0,0.0
20430,71.0,0.0,120.0,10.0,0.0
20431,79.0,0.0,120.0,2.0,0.0
20432,79.0,96.0,120.0,1.0,0.0
20433,83.0,0.0,120.0,8.0,0.0
20434,95.0,0.0,90.0,0.0,0.0
20435,83.0,0.0,90.0,2.0,0.0
20436,83.0,144.0,90.0,1.0,0.0
20437,71.0,0.0,90.0,3.0,0.0
20438,78.0,0.0,120.0,5.0,0.0
20439,71.0,0.0,240.0,10.0,0.0
20440,49.0,0.0,240.0,13.0,0.0
20441,83.0,0.0,240.0,8.0,0.0
20442,53.0,0.0,240.0,11.0,0.0
20443,54.0,48.0,180.0,6.0,0.0
20444,61.0,0.0,240.0,12.0,0.0
20445,66.0,72.0,120.0,5.0,0.0
20446,77.0,108.0,120.0,1.0,0.0
20447,65.0,0.0,120.0,3.0,0.0
20448,77.0,0.0,120.0,2.0,0.0
20449,89.0,0.0,120.0,0.0,0.0
20450,54.0,0.0,120.0,11.0,0.0
20451,78.0,72.0,120.0,2.0,0.0
20452,78.0,0.0,120.0,1.0,0.0
20453,49.0,0.0,120.0,13.0,0.0
20454,81.0,0.0,120.0,8.0,0.0
20455,54.0,24.0,180.0,6.0,0.0
20456,66.0,0.0,120.0,5.0,0.0
20457,78.0,0.0,120.0,5.0,0.0
20458,90.0,0.0,120.0,0.0,0.0
20459,61.0,12.0,120.0,12.0,0.0
20460,66.0,0.0,120.0,3.0,0.0
20461,69.0,0.0,120.0,10.0,0.0
20462,93.0,264.0,90.0,0.0,0.0
20463,81.0,0.0,90.0,1.0,0.0
20464,69.0,0.0,90.0,3.0,0.0
20465,81.0,0.0,90.0,2.0,0.0
20466,59.0,0.0,240.0,12.0,0.0
20467,74.0,0.0,240.0,10.0,0.0
20468,54.0,108.0,240.0,11.0,0.0
20469,81.0,0.0,240.0,8.0,0.0
20470,74.0,0.0,120.0,1.0,0.0
20471,59.0,0.0,120.0,3.0,0.0
20472,74.0,0.0,120.0,2.0,0.0
20473,86.0,0.0,120.0,0.0,0.0
20474,79.0,12.0,120.0,8.0,0.0
20475,47.0,0.0,15.0,13.0,0.0
20476,62.0,96.0,120.0,3.0,0.0
20477,91.0,0.0,120.0,0.0,0.0
20478,79.0,0.0,120.0,1.0,0.0
20479,59.0,0.0,120.0,12.0,0.0
20480,79.0,0.0,120.0,2.0,0.0
20481,67.0,0.0,120.0,10.0,0.0
20482,55.0,0.0,120.0,11.0,0.0
20483,47.0,0.0,90.0,3.0,0.0
20484,83.0,0.0,90.0,1.0,0.0
20485,83.0,50.0,90.0,2.0,0.0
20486,95.0,0.0,90.0,0.0,0.0
20487,61.0,0.0,120.0,4.0,0.0
20488,61.0,0.0,120.0,5.0,0.0
20489,73.0,0.0,120.0,5.0,0.0
20490,69.0,0.0,30.0,11.0,0.0
20491,57.0,0.0,30.0,12.0,0.0
20492,49.0,16.0,180.0,6.0,0.0
20493,90.0,0.0,30.0,8.0,0.0
20494,74.0,0.0,120.0,1.0,0.0
20495,86.0,0.0,120.0,0.0,0.0
20496,74.0,0.0,120.0,2.0,0.0
20497,73.0,10.0,120.0,4.0,0.0
20498,78.0,26.0,30.0,10.0,0.0
20499,92.0,0.0,30.0,8.0,0.0
20500,80.0,0.0,30.0,10.0,0.0
20501,71.0,0.0,30.0,11.0,0.0
20502,59.0,26.0,30.0,12.0,0.0
20503,69.0,0.0,30.0,11.0,0.0
20504,57.0,0.0,30.0,12.0,0.0
20505,90.0,0.0,30.0,8.0,0.0
20506,78.0,26.0,30.0,10.0,0.0
20507,71.0,0.0,30.0,11.0,0.0
20508,80.0,0.0,30.0,10.0,0.0
20509,59.0,0.0,30.0,12.0,0.0
20510,92.0,16.0,30.0,8.0,0.0
20511,78.0,26.0,30.0,10.0,0.0
20512,57.0,0.0,30.0,12.0,0.0
20513,90.0,0.0,30.0,8.0,0.0
20514,69.0,0.0,30.0,11.0,0.0
20515,73.0,0.0,120.0,1.0,0.0
20516,85.0,0.0,120.0,0.0,0.0
20517,73.0,0.0,240.0,2.0,0.0
20518,59.0,0.0,30.0,12.0,0.0
20519,92.0,26.0,30.0,8.0,0.0
20520,80.0,0.0,30.0,10.0,0.0
20521,71.0,0.0,30.0,11.0,0.0
20522,78.0,10.0,30.0,10.0,0.0
20523,57.0,0.0,30.0,12.0,0.0
20524,69.0,0.0,30.0,11.0,0.0
20525,90.0,0.0,30.0,8.0,0.0
20526,68.0,0.0,30.0,11.0,0.0
20527,56.0,26.0,30.0,12.0,0.0
20528,77.0,0.0,30.0,10.0,0.0
20529,89.0,0.0,30.0,8.0,0.0
20530,78.0,0.0,30.0,10.0,0.0
20531,90.0,6.0,30.0,8.0,0.0
20532,69.0,0.0,30.0,11.0,0.0
20533,57.0,0.0,30.0,12.0,0.0
20534,59.0,6.0,120.0,12.0,0.0
20535,80.0,0.0,120.0,10.0,0.0
20536,92.0,0.0,120.0,8.0,0.0
20537,71.0,0.0,120.0,11.0,0.0
20538,92.0,72.0,120.0,0.0,0.0
20539,80.0,0.0,120.0,1.0,0.0
20540,61.0,0.0,120.0,4.0,0.0
20541,73.0,0.0,120.0,4.0,0.0
20542,73.0,0.0,120.0,5.0,0.0
20543,49.0,108.0,15.0,13.0,0.0
20544,61.0,0.0,120.0,5.0,0.0
20545,49.0,42.0,180.0,6.0,0.0
20546,77.0,0.0,120.0,10.0,0.0
20547,68.0,6.0,120.0,11.0,0.0
20548,89.0,0.0,120.0,8.0,0.0
20549,56.0,0.0,120.0,12.0,0.0
20550,77.0,0.0,120.0,2.0,0.0
20551,89.0,0.0,120.0,0.0,0.0
20552,77.0,120.0,120.0,1.0,0.0
20553,78.0,0.0,570.0,2.0,0.0
20554,66.0,216.0,570.0,2.0,0.0
20555,57.0,0.0,120.0,4.0,0.0
20556,69.0,0.0,120.0,4.0,0.0
20557,78.0,0.0,570.0,5.0,0.0
20558,66.0,0.0,570.0,5.0,0.0
20559,42.0,0.0,570.0,3.0,0.0
20560,66.0,0.0,570.0,11.0,0.0
20561,90.0,0.0,570.0,0.0,0.0
20562,54.0,0.0,570.0,4.0,0.0
20563,66.0,0.0,570.0,4.0,0.0
20564,78.0,0.0,570.0,1.0,0.0
20565,90.0,210.0,120.0,8.0,0.0
20566,90.0,0.0,570.0,1.0,0.0
20567,54.0,0.0,570.0,3.0,0.0
20568,54.0,0.0,570.0,12.0,0.0
20569,78.0,0.0,120.0,10.0,0.0
20570,54.0,0.0,570.0,6.0,0.0
20571,42.0,0.0,570.0,13.0,0.0
20572,66.0,0.0,90.0,10.0,0.0
20573,78.0,132.0,90.0,8.0,0.0
20574,66.0,114.0,30.0,10.0,0.0
20575,78.0,0.0,30.0,8.0,0.0
20576,69.0,0.0,600.0,10.0,0.0
20577,81.0,0.0,600.0,8.0,0.0
20578,42.0,0.0,60.0,3.0,0.0
20579,90.0,0.0,60.0,0.0,0.0
20580,54.0,0.0,60.0,12.0,0.0
20581,66.0,0.0,60.0,11.0,0.0
20582,78.0,0.0,60.0,2.0,0.0
20583,66.0,0.0,60.0,2.0,0.0
20584,54.0,0.0,60.0,3.0,0.0
20585,66.0,0.0,60.0,5.0,0.0
20586,78.0,0.0,60.0,1.0,0.0
20587,54.0,156.0,60.0,4.0,0.0
20588,66.0,0.0,60.0,4.0,0.0
20589,90.0,0.0,60.0,1.0,0.0
20590,42.0,0.0,60.0,13.0,0.0
20591,54.0,0.0,60.0,6.0,0.0
20592,78.0,0.0,60.0,5.0,0.0
20593,54.0,0.0,60.0,12.0,0.0
20594,54.0,0.0,60.0,4.0,0.0
20595,90.0,0.0,60.0,1.0,0.0
20596,42.0,0.0,60.0,13.0,0.0
20597,78.0,0.0,60.0,1.0,0.0
20598,54.0,0.0,60.0,3.0,0.0
20599,78.0,0.0,60.0,5.0,0.0
20600,90.0,0.0,60.0,0.0,0.0
20601,66.0,0.0,60.0,4.0,0.0
20602,54.0,0.0,60.0,6.0,0.0
20603,66.0,0.0,60.0,2.0,0.0
20604,78.0,0.0,60.0,2.0,0.0
20605,66.0,0.0,60.0,11.0,0.0
20606,66.0,0.0,60.0,5.0,0.0
20607,42.0,132.0,60.0,3.0,0.0
20608,54.0,0.0,570.0,6.0,0.0
20609,45.0,0.0,570.0,3.0,0.0
20610,69.0,210.0,120.0,4.0,0.0
20611,57.0,0.0,120.0,4.0,0.0
20612,57.0,0.0,570.0,12.0,0.0
20613,93.0,0.0,570.0,1.0,0.0
20614,81.0,0.0,570.0,1.0,0.0
20615,69.0,0.0,570.0,11.0,0.0
20616,54.0,0.0,570.0,4.0,0.0
20617,81.0,216.0,570.0,2.0,0.0
20618,66.0,0.0,570.0,4.0,0.0
20619,93.0,0.0,570.0,0.0,0.0
20620,57.0,0.0,570.0,3.0,0.0
20621,69.0,0.0,570.0,2.0,0.0
20622,66.0,0.0,570.0,5.0,0.0
20623,78.0,0.0,570.0,5.0,0.0
20624,45.0,0.0,570.0,13.0,0.0
20625,69.0,0.0,90.0,10.0,0.0
20626,81.0,132.0,90.0,8.0,0.0
20627,69.0,114.0,30.0,10.0,0.0
20628,81.0,0.0,30.0,8.0,0.0
20629,73.0,210.0,600.0,10.0,0.0
20630,85.0,0.0,600.0,8.0,0.0
20631,66.0,0.0,60.0,4.0,0.0
20632,93.0,0.0,60.0,1.0,0.0
20633,81.0,0.0,60.0,1.0,0.0
20634,45.0,0.0,60.0,3.0,0.0
20635,57.0,0.0,60.0,3.0,0.0
20636,69.0,0.0,60.0,11.0,0.0
20637,57.0,0.0,60.0,12.0,0.0
20638,45.0,0.0,60.0,13.0,0.0
20639,78.0,0.0,60.0,5.0,0.0
20640,66.0,0.0,60.0,5.0,0.0
20641,54.0,0.0,60.0,6.0,0.0
20642,69.0,156.0,60.0,2.0,0.0
20643,81.0,0.0,60.0,2.0,0.0
20644,93.0,0.0,60.0,0.0,0.0
20645,54.0,0.0,60.0,4.0,0.0
20646,57.0,0.0,60.0,3.0,0.0
20647,66.0,0.0,60.0,5.0,0.0
20648,54.0,0.0,60.0,4.0,0.0
20649,66.0,0.0,60.0,4.0,0.0
20650,45.0,0.0,60.0,13.0,0.0
20651,78.0,0.0,60.0,5.0,0.0
20652,69.0,132.0,60.0,11.0,0.0
20653,81.0,0.0,60.0,2.0,0.0
20654,69.0,0.0,60.0,2.0,0.0
20655,54.0,0.0,60.0,6.0,0.0
20656,45.0,0.0,60.0,3.0,0.0
20657,93.0,0.0,60.0,1.0,0.0
20658,81.0,0.0,60.0,1.0,0.0
20659,57.0,0.0,60.0,12.0,0.0
20660,93.0,0.0,60.0,0.0,0.0
20661,66.0,0.0,570.0,4.0,0.0
20662,73.0,0.0,570.0,11.0,0.0
20663,49.0,0.0,570.0,3.0,0.0
20664,61.0,0.0,570.0,3.0,0.0
20665,78.0,0.0,570.0,5.0,0.0
20666,57.0,0.0,120.0,4.0,0.0
20667,49.0,0.0,570.0,13.0,0.0
20668,54.0,0.0,570.0,4.0,0.0
20669,69.0,0.0,120.0,4.0,0.0
20670,85.0,0.0,570.0,2.0,0.0
20671,73.0,0.0,570.0,2.0,0.0
20672,66.0,0.0,570.0,5.0,0.0
20673,97.0,0.0,570.0,0.0,0.0
20674,54.0,0.0,570.0,6.0,0.0
20675,85.0,0.0,570.0,1.0,0.0
20676,73.0,0.0,570.0,1.0,0.0
20677,61.0,216.0,570.0,12.0,0.0
20678,73.0,132.0,90.0,10.0,0.0
20679,85.0,0.0,90.0,8.0,0.0
20680,85.0,0.0,30.0,8.0,0.0
20681,73.0,114.0,30.0,10.0,0.0
20682,90.0,72.0,600.0,8.0,0.0
20683,78.0,0.0,600.0,10.0,0.0
20684,54.0,0.0,60.0,4.0,0.0
20685,66.0,0.0,60.0,4.0,0.0
20686,61.0,0.0,60.0,3.0,0.0
20687,66.0,0.0,60.0,5.0,0.0
20688,78.0,0.0,60.0,5.0,0.0
20689,61.0,0.0,60.0,12.0,0.0
20690,85.0,0.0,60.0,1.0,0.0
20691,73.0,0.0,60.0,1.0,0.0
20692,49.0,0.0,60.0,3.0,0.0
20693,85.0,0.0,60.0,2.0,0.0
20694,73.0,0.0,60.0,11.0,0.0
20695,54.0,0.0,60.0,6.0,0.0
20696,85.0,156.0,60.0,0.0,0.0
20697,73.0,0.0,60.0,2.0,0.0
20698,49.0,0.0,60.0,13.0,0.0
20699,49.0,0.0,60.0,13.0,0.0
20700,61.0,0.0,60.0,12.0,0.0
20701,85.0,0.0,60.0,0.0,0.0
20702,85.0,0.0,60.0,1.0,0.0
20703,49.0,0.0,60.0,3.0,0.0
20704,73.0,0.0,60.0,11.0,0.0
20705,66.0,0.0,60.0,4.0,0.0
20706,73.0,132.0,60.0,1.0,0.0
20707,54.0,0.0,60.0,4.0,0.0
20708,61.0,0.0,60.0,3.0,0.0
20709,66.0,0.0,60.0,5.0,0.0
20710,54.0,0.0,60.0,6.0,0.0
20711,85.0,0.0,60.0,2.0,0.0
20712,78.0,0.0,60.0,5.0,0.0
20713,73.0,0.0,60.0,2.0,0.0
20714,78.0,0.0,120.0,5.0,0.0
20715,66.0,0.0,180.0,3.0,0.0
20716,57.0,0.0,120.0,4.0,0.0
20717,78.0,120.0,180.0,11.0,0.0
20718,66.0,0.0,180.0,12.0,0.0
20719,90.0,0.0,180.0,0.0,0.0
20720,54.0,0.0,180.0,3.0,0.0
20721,78.0,0.0,180.0,4.0,0.0
20722,66.0,0.0,180.0,4.0,0.0
20723,90.0,0.0,180.0,2.0,0.0
20724,78.0,0.0,180.0,2.0,0.0
20725,78.0,0.0,180.0,1.0,0.0
20726,90.0,0.0,180.0,1.0,0.0
20727,54.0,0.0,180.0,6.0,0.0
20728,69.0,0.0,120.0,4.0,0.0
20729,54.0,0.0,180.0,13.0,0.0
20730,66.0,0.0,120.0,5.0,0.0
20731,78.0,0.0,60.0,1.0,0.0
20732,78.0,0.0,90.0,5.0,0.0
20733,78.0,0.0,60.0,2.0,0.0
20734,54.0,0.0,90.0,6.0,0.0
20735,90.0,0.0,60.0,2.0,0.0
20736,90.0,0.0,60.0,1.0,0.0
20737,90.0,138.0,90.0,8.0,0.0
20738,54.0,0.0,60.0,3.0,0.0
20739,90.0,0.0,60.0,0.0,0.0
20740,78.0,0.0,60.0,4.0,0.0
20741,78.0,0.0,60.0,11.0,0.0
20742,66.0,0.0,60.0,4.0,0.0
20743,66.0,0.0,60.0,12.0,0.0
20744,66.0,0.0,90.0,5.0,0.0
20745,54.0,18.0,60.0,13.0,0.0
20746,66.0,0.0,60.0,3.0,0.0
20747,78.0,0.0,90.0,10.0,0.0
20748,54.0,0.0,60.0,6.0,0.0
20749,54.0,0.0,60.0,13.0,0.0
20750,66.0,0.0,60.0,3.0,0.0
20751,66.0,0.0,60.0,12.0,0.0
20752,54.0,0.0,60.0,3.0,0.0
20753,90.0,0.0,60.0,1.0,0.0
20754,78.0,132.0,60.0,11.0,0.0
20755,78.0,0.0,60.0,10.0,0.0
20756,78.0,0.0,60.0,1.0,0.0
20757,90.0,0.0,60.0,8.0,0.0
20758,90.0,0.0,60.0,0.0,0.0
20759,78.0,0.0,60.0,5.0,0.0
20760,78.0,0.0,60.0,2.0,0.0
20761,66.0,0.0,60.0,5.0,0.0
20762,90.0,0.0,60.0,2.0,0.0
20763,78.0,0.0,60.0,4.0,0.0
20764,66.0,0.0,60.0,4.0,0.0
20765,81.0,0.0,120.0,2.0,0.0
20766,81.0,0.0,120.0,10.0,0.0
20767,93.0,0.0,120.0,8.0,0.0
20768,69.0,0.0,120.0,2.0,0.0
20769,54.0,34.0,180.0,6.0,0.0
20770,81.0,0.0,240.0,11.0,0.0
20771,78.0,72.0,120.0,5.0,0.0
20772,93.0,0.0,240.0,1.0,0.0
20773,93.0,86.0,240.0,0.0,0.0
20774,81.0,0.0,120.0,4.0,0.0
20775,66.0,0.0,120.0,5.0,0.0
20776,57.0,0.0,240.0,13.0,0.0
20777,57.0,0.0,120.0,4.0,0.0
20778,69.0,0.0,120.0,4.0,0.0
20779,57.0,0.0,120.0,3.0,0.0
20780,69.0,0.0,120.0,3.0,0.0
20781,69.0,0.0,240.0,12.0,0.0
20782,81.0,0.0,240.0,1.0,0.0
20783,93.0,0.0,60.0,0.0,0.0
20784,57.0,18.0,60.0,3.0,0.0
20785,81.0,0.0,60.0,4.0,0.0
20786,69.0,0.0,60.0,4.0,0.0
20787,69.0,0.0,60.0,12.0,0.0
20788,81.0,0.0,60.0,11.0,0.0
20789,81.0,0.0,60.0,2.0,0.0
20790,93.0,0.0,90.0,8.0,0.0
20791,69.0,0.0,60.0,2.0,0.0
20792,54.0,138.0,90.0,6.0,0.0
20793,69.0,0.0,60.0,3.0,0.0
20794,81.0,0.0,90.0,10.0,0.0
20795,81.0,0.0,60.0,1.0,0.0
20796,78.0,0.0,90.0,5.0,0.0
20797,93.0,0.0,60.0,1.0,0.0
20798,57.0,0.0,60.0,13.0,0.0
20799,66.0,0.0,90.0,5.0,0.0
20800,69.0,0.0,60.0,4.0,0.0
20801,81.0,0.0,60.0,4.0,0.0
20802,54.0,0.0,60.0,6.0,0.0
20803,57.0,0.0,60.0,13.0,0.0
20804,81.0,0.0,60.0,10.0,0.0
20805,81.0,0.0,60.0,2.0,0.0
20806,93.0,0.0,60.0,0.0,0.0
20807,81.0,0.0,60.0,11.0,0.0
20808,69.0,0.0,60.0,2.0,0.0
20809,78.0,0.0,60.0,5.0,0.0
20810,81.0,0.0,60.0,1.0,0.0
20811,93.0,0.0,60.0,1.0,0.0
20812,69.0,0.0,60.0,3.0,0.0
20813,57.0,132.0,60.0,3.0,0.0
20814,69.0,0.0,60.0,12.0,0.0
20815,93.0,0.0,60.0,8.0,0.0
20816,66.0,0.0,60.0,5.0,0.0
20817,69.0,0.0,120.0,4.0,0.0
20818,57.0,0.0,120.0,4.0,0.0
20819,97.0,0.0,120.0,8.0,0.0
20820,73.0,0.0,120.0,12.0,0.0
20821,97.0,0.0,120.0,0.0,0.0
20822,54.0,138.0,180.0,6.0,0.0
20823,85.0,0.0,120.0,2.0,0.0
20824,73.0,0.0,120.0,11.0,0.0
20825,73.0,0.0,120.0,3.0,0.0
20826,78.0,72.0,120.0,5.0,0.0
20827,66.0,0.0,120.0,5.0,0.0
20828,85.0,0.0,120.0,10.0,0.0
20829,85.0,0.0,120.0,1.0,0.0
20830,61.0,0.0,120.0,13.0,0.0
20831,73.0,0.0,120.0,4.0,0.0
20832,78.0,0.0,90.0,5.0,0.0
20833,90.0,0.0,90.0,0.0,0.0
20834,66.0,0.0,90.0,3.0,0.0
20835,66.0,0.0,90.0,5.0,0.0
20836,54.0,0.0,90.0,13.0,0.0
20837,78.0,0.0,90.0,10.0,0.0
20838,78.0,0.0,90.0,2.0,0.0
20839,54.0,0.0,90.0,6.0,0.0
20840,78.0,0.0,90.0,1.0,0.0
20841,66.0,0.0,90.0,11.0,0.0
20842,66.0,0.0,90.0,4.0,0.0
20843,66.0,0.0,90.0,12.0,0.0
20844,90.0,138.0,90.0,8.0,0.0
20845,78.0,0.0,60.0,2.0,0.0
20846,90.0,0.0,60.0,8.0,0.0
20847,66.0,0.0,60.0,3.0,0.0
20848,78.0,0.0,60.0,5.0,0.0
20849,66.0,0.0,60.0,5.0,0.0
20850,66.0,0.0,60.0,11.0,0.0
20851,78.0,0.0,60.0,10.0,0.0
20852,66.0,0.0,60.0,4.0,0.0
20853,54.0,0.0,60.0,13.0,0.0
20854,66.0,0.0,60.0,12.0,0.0
20855,90.0,132.0,60.0,0.0,0.0
20856,78.0,0.0,60.0,1.0,0.0
20857,54.0,0.0,60.0,6.0,0.0
20858,93.0,0.0,120.0,0.0,0.0
20859,69.0,0.0,120.0,3.0,0.0
20860,81.0,0.0,120.0,2.0,0.0
20861,81.0,0.0,120.0,1.0,0.0
20862,66.0,0.0,120.0,5.0,0.0
20863,81.0,0.0,120.0,10.0,0.0
20864,78.0,72.0,120.0,5.0,0.0
20865,93.0,0.0,120.0,8.0,0.0
20866,57.0,0.0,120.0,13.0,0.0
20867,69.0,0.0,120.0,11.0,0.0
20868,69.0,0.0,120.0,4.0,0.0
20869,69.0,0.0,120.0,12.0,0.0
20870,54.0,138.0,180.0,6.0,0.0
20871,57.0,0.0,120.0,4.0,0.0
20872,85.0,0.0,90.0,8.0,0.0
20873,61.0,0.0,90.0,4.0,0.0
20874,54.0,0.0,90.0,6.0,0.0
20875,61.0,0.0,90.0,12.0,0.0
20876,66.0,0.0,90.0,5.0,0.0
20877,78.0,0.0,90.0,5.0,0.0
20878,73.0,0.0,90.0,2.0,0.0
20879,85.0,0.0,90.0,0.0,0.0
20880,61.0,0.0,90.0,11.0,0.0
20881,73.0,0.0,90.0,1.0,0.0
20882,73.0,0.0,90.0,10.0,0.0
20883,61.0,0.0,90.0,3.0,0.0
20884,49.0,138.0,90.0,13.0,0.0
20885,73.0,0.0,60.0,2.0,0.0
20886,73.0,0.0,60.0,1.0,0.0
20887,61.0,0.0,60.0,4.0,0.0
20888,49.0,0.0,60.0,13.0,0.0
20889,73.0,132.0,60.0,10.0,0.0
20890,85.0,0.0,60.0,8.0,0.0
20891,61.0,0.0,60.0,3.0,0.0
20892,61.0,0.0,60.0,11.0,0.0
20893,85.0,0.0,60.0,0.0,0.0
20894,61.0,0.0,60.0,12.0,0.0
20895,54.0,0.0,60.0,6.0,0.0
20896,78.0,0.0,60.0,5.0,0.0
20897,66.0,0.0,60.0,5.0,0.0
20898,66.0,0.0,120.0,4.0,0.0
20899,66.0,0.0,120.0,3.0,0.0
20900,66.0,0.0,120.0,11.0,0.0
20901,54.0,72.0,120.0,13.0,0.0
20902,69.0,0.0,120.0,4.0,0.0
20903,57.0,0.0,120.0,4.0,0.0
20904,78.0,0.0,120.0,2.0,0.0
20905,54.0,138.0,180.0,6.0,0.0
20906,66.0,0.0,120.0,5.0,0.0
20907,78.0,0.0,120.0,5.0,0.0
20908,66.0,0.0,120.0,12.0,0.0
20909,78.0,0.0,120.0,1.0,0.0
20910,90.0,0.0,120.0,0.0,0.0
20911,90.0,0.0,120.0,8.0,0.0
20912,78.0,0.0,120.0,10.0,0.0
20913,57.0,0.0,90.0,12.0,0.0
20914,78.0,0.0,90.0,5.0,0.0
20915,66.0,0.0,90.0,5.0,0.0
20916,45.0,0.0,90.0,13.0,0.0
20917,81.0,0.0,90.0,8.0,0.0
20918,69.0,0.0,90.0,10.0,0.0
20919,81.0,0.0,90.0,1.0,0.0
20920,57.0,0.0,90.0,11.0,0.0
20921,54.0,0.0,90.0,6.0,0.0
20922,93.0,138.0,90.0,0.0,0.0
20923,57.0,0.0,90.0,4.0,0.0
20924,57.0,0.0,90.0,3.0,0.0
20925,69.0,0.0,90.0,2.0,0.0
20926,81.0,0.0,60.0,1.0,0.0
20927,57.0,0.0,60.0,11.0,0.0
20928,69.0,0.0,60.0,2.0,0.0
20929,57.0,0.0,60.0,12.0,0.0
20930,45.0,0.0,60.0,13.0,0.0
20931,57.0,0.0,60.0,3.0,0.0
20932,54.0,0.0,60.0,6.0,0.0
20933,78.0,0.0,60.0,5.0,0.0
20934,66.0,0.0,60.0,5.0,0.0
20935,81.0,132.0,60.0,8.0,0.0
20936,57.0,0.0,60.0,4.0,0.0
20937,93.0,0.0,60.0,0.0,0.0
20938,69.0,0.0,60.0,10.0,0.0
20939,85.0,0.0,120.0,8.0,0.0
20940,61.0,0.0,120.0,3.0,0.0
20941,49.0,0.0,120.0,13.0,0.0
20942,61.0,0.0,120.0,4.0,0.0
20943,66.0,0.0,120.0,5.0,0.0
20944,78.0,0.0,120.0,5.0,0.0
20945,54.0,138.0,180.0,6.0,0.0
20946,61.0,72.0,120.0,11.0,0.0
20947,57.0,0.0,120.0,4.0,0.0
20948,85.0,0.0,120.0,1.0,0.0
20949,73.0,0.0,120.0,2.0,0.0
20950,97.0,0.0,120.0,0.0,0.0
20951,73.0,0.0,120.0,10.0,0.0
20952,69.0,0.0,120.0,4.0,0.0
20953,61.0,0.0,120.0,12.0,0.0
20954,78.0,0.0,90.0,8.0,0.0
20955,66.0,0.0,90.0,2.0,0.0
20956,54.0,0.0,90.0,11.0,0.0
20957,54.0,0.0,90.0,3.0,0.0
20958,66.0,0.0,90.0,10.0,0.0
20959,54.0,0.0,90.0,12.0,0.0
20960,42.0,0.0,90.0,13.0,0.0
20961,66.0,0.0,90.0,5.0,0.0
20962,54.0,0.0,90.0,4.0,0.0
20963,90.0,0.0,90.0,0.0,0.0
20964,78.0,0.0,90.0,5.0,0.0
20965,78.0,0.0,90.0,1.0,0.0
20966,54.0,138.0,90.0,6.0,0.0
20967,54.0,0.0,60.0,4.0,0.0
20968,78.0,0.0,60.0,8.0,0.0
20969,54.0,0.0,60.0,12.0,0.0
20970,66.0,0.0,60.0,2.0,0.0
20971,90.0,0.0,60.0,0.0,0.0
20972,78.0,0.0,60.0,1.0,0.0
20973,66.0,0.0,60.0,5.0,0.0
20974,54.0,0.0,60.0,6.0,0.0
20975,66.0,132.0,60.0,10.0,0.0
20976,54.0,0.0,60.0,3.0,0.0
20977,78.0,0.0,60.0,5.0,0.0
20978,54.0,0.0,60.0,11.0,0.0
20979,42.0,0.0,60.0,13.0,0.0
20980,93.0,0.0,120.0,0.0,0.0
20981,66.0,0.0,120.0,5.0,0.0
20982,57.0,0.0,120.0,11.0,0.0
20983,81.0,0.0,120.0,1.0,0.0
20984,54.0,138.0,180.0,6.0,0.0
20985,45.0,0.0,120.0,13.0,0.0
20986,69.0,0.0,120.0,2.0,0.0
20987,69.0,0.0,120.0,4.0,0.0
20988,57.0,0.0,120.0,3.0,0.0
20989,69.0,0.0,120.0,10.0,0.0
20990,57.0,0.0,120.0,12.0,0.0
20991,78.0,0.0,120.0,5.0,0.0
20992,81.0,0.0,120.0,8.0,0.0
20993,57.0,0.0,120.0,4.0,0.0
20994,73.0,0.0,90.0,8.0,0.0
20995,61.0,0.0,90.0,10.0,0.0
20996,73.0,0.0,90.0,2.0,0.0
20997,61.0,0.0,90.0,4.0,0.0
20998,54.0,0.0,90.0,6.0,0.0
20999,66.0,0.0,90.0,5.0,0.0
21000,61.0,0.0,90.0,12.0,0.0
21001,61.0,0.0,90.0,11.0,0.0
21002,73.0,138.0,90.0,1.0,0.0
21003,78.0,0.0,90.0,5.0,0.0
21004,61.0,0.0,90.0,3.0,0.0
21005,49.0,0.0,90.0,13.0,0.0
21006,85.0,0.0,90.0,0.0,0.0
21007,61.0,0.0,60.0,4.0,0.0
21008,85.0,0.0,60.0,0.0,0.0
21009,73.0,0.0,60.0,1.0,0.0
21010,78.0,0.0,60.0,5.0,0.0
21011,49.0,0.0,60.0,13.0,0.0
21012,61.0,0.0,60.0,12.0,0.0
21013,73.0,132.0,60.0,2.0,0.0
21014,61.0,0.0,60.0,11.0,0.0
21015,54.0,0.0,60.0,6.0,0.0
21016,61.0,0.0,60.0,10.0,0.0
21017,73.0,0.0,60.0,8.0,0.0
21018,61.0,0.0,60.0,3.0,0.0
21019,66.0,0.0,60.0,5.0,0.0
21020,54.0,138.0,180.0,6.0,0.0
21021,57.0,72.0,120.0,4.0,0.0
21022,69.0,0.0,120.0,4.0,0.0
21023,78.0,0.0,120.0,8.0,0.0
21024,66.0,0.0,120.0,4.0,0.0
21025,66.0,0.0,120.0,10.0,0.0
21026,66.0,0.0,120.0,11.0,0.0
21027,54.0,0.0,120.0,13.0,0.0
21028,66.0,0.0,120.0,12.0,0.0
21029,78.0,0.0,120.0,1.0,0.0
21030,66.0,0.0,120.0,3.0,0.0
21031,66.0,0.0,120.0,5.0,0.0
21032,78.0,0.0,120.0,5.0,0.0
21033,90.0,0.0,120.0,0.0,0.0
21034,78.0,0.0,120.0,2.0,0.0
21035,66.0,0.0,90.0,5.0,0.0
21036,78.0,0.0,90.0,5.0,0.0
21037,69.0,0.0,90.0,1.0,0.0
21038,57.0,0.0,90.0,4.0,0.0
21039,81.0,0.0,90.0,0.0,0.0
21040,45.0,0.0,90.0,13.0,0.0
21041,54.0,138.0,90.0,6.0,0.0
21042,57.0,0.0,90.0,12.0,0.0
21043,69.0,0.0,90.0,2.0,0.0
21044,57.0,0.0,90.0,10.0,0.0
21045,57.0,0.0,90.0,3.0,0.0
21046,57.0,0.0,90.0,11.0,0.0
21047,69.0,0.0,90.0,8.0,0.0
21048,57.0,0.0,60.0,10.0,0.0
21049,57.0,0.0,60.0,12.0,0.0
21050,54.0,0.0,60.0,6.0,0.0
21051,57.0,0.0,60.0,3.0,0.0
21052,45.0,0.0,60.0,13.0,0.0
21053,81.0,0.0,60.0,0.0,0.0
21054,69.0,0.0,60.0,8.0,0.0
21055,69.0,0.0,60.0,1.0,0.0
21056,57.0,0.0,60.0,4.0,0.0
21057,78.0,0.0,60.0,5.0,0.0
21058,66.0,132.0,60.0,5.0,0.0
21059,69.0,0.0,60.0,2.0,0.0
21060,57.0,0.0,60.0,11.0,0.0
21061,57.0,0.0,120.0,4.0,0.0
21062,69.0,0.0,120.0,4.0,0.0
21063,54.0,138.0,180.0,6.0,0.0
21064,73.0,0.0,120.0,1.0,0.0
21065,66.0,0.0,120.0,5.0,0.0
21066,61.0,0.0,120.0,4.0,0.0
21067,61.0,0.0,120.0,11.0,0.0
21068,73.0,0.0,120.0,8.0,0.0
21069,61.0,0.0,120.0,10.0,0.0
21070,73.0,0.0,120.0,2.0,0.0
21071,61.0,72.0,120.0,12.0,0.0
21072,49.0,0.0,120.0,13.0,0.0
21073,85.0,0.0,120.0,0.0,0.0
21074,78.0,0.0,120.0,5.0,0.0
21075,61.0,0.0,120.0,3.0,0.0
21076,54.0,0.0,90.0,6.0,0.0
21077,54.0,0.0,90.0,4.0,0.0
21078,66.0,0.0,90.0,4.0,0.0
21079,78.0,0.0,90.0,5.0,0.0
21080,66.0,0.0,90.0,8.0,0.0
21081,66.0,0.0,90.0,5.0,0.0
21082,54.0,0.0,90.0,10.0,0.0
21083,66.0,0.0,90.0,1.0,0.0
21084,54.0,0.0,90.0,11.0,0.0
21085,54.0,0.0,90.0,12.0,0.0
21086,66.0,0.0,90.0,2.0,0.0
21087,54.0,0.0,90.0,3.0,0.0
21088,42.0,138.0,90.0,13.0,0.0
21089,78.0,0.0,90.0,0.0,0.0
21090,78.0,0.0,60.0,5.0,0.0
21091,66.0,0.0,60.0,5.0,0.0
21092,66.0,0.0,60.0,8.0,0.0
21093,54.0,0.0,60.0,12.0,0.0
21094,54.0,0.0,60.0,6.0,0.0
21095,66.0,0.0,60.0,1.0,0.0
21096,54.0,0.0,60.0,10.0,0.0
21097,42.0,0.0,60.0,13.0,0.0
21098,54.0,0.0,60.0,3.0,0.0
21099,54.0,0.0,60.0,4.0,0.0
21100,66.0,0.0,60.0,4.0,0.0
21101,66.0,0.0,60.0,2.0,0.0
21102,54.0,0.0,60.0,11.0,0.0
21103,78.0,132.0,60.0,0.0,0.0
21104,78.0,0.0,120.0,5.0,0.0
21105,54.0,0.0,120.0,13.0,0.0
21106,78.0,0.0,120.0,1.0,0.0
21107,69.0,0.0,120.0,4.0,0.0
21108,66.0,0.0,120.0,11.0,0.0
21109,57.0,0.0,120.0,4.0,0.0
21110,66.0,0.0,120.0,3.0,0.0
21111,66.0,0.0,120.0,5.0,0.0
21112,78.0,0.0,120.0,2.0,0.0
21113,66.0,0.0,120.0,12.0,0.0
21114,90.0,0.0,120.0,0.0,0.0
21115,66.0,0.0,120.0,4.0,0.0
21116,66.0,72.0,120.0,10.0,0.0
21117,54.0,138.0,180.0,6.0,0.0
21118,78.0,0.0,120.0,8.0,0.0
21119,66.0,84.0,150.0,2.0,0.0
21120,42.0,0.0,90.0,13.0,0.0
21121,54.0,24.0,90.0,6.0,0.0
21122,54.0,0.0,90.0,12.0,0.0
21123,54.0,0.0,90.0,10.0,0.0
21124,78.0,0.0,150.0,0.0,0.0
21125,66.0,0.0,90.0,8.0,0.0
21126,54.0,0.0,90.0,11.0,0.0
21127,54.0,0.0,120.0,4.0,0.0
21128,66.0,30.0,120.0,4.0,0.0
21129,66.0,0.0,150.0,1.0,0.0
21130,54.0,0.0,150.0,3.0,0.0
21131,66.0,0.0,90.0,5.0,0.0
21132,78.0,0.0,90.0,5.0,0.0
21133,54.0,0.0,60.0,6.0,0.0
21134,90.0,0.0,60.0,8.0,0.0
21135,78.0,76.0,60.0,5.0,0.0
21136,54.0,0.0,60.0,3.0,0.0
21137,78.0,0.0,60.0,0.0,0.0
21138,66.0,0.0,60.0,2.0,0.0
21139,66.0,0.0,60.0,5.0,0.0
21140,57.0,0.0,60.0,11.0,0.0
21141,73.0,0.0,60.0,10.0,0.0
21142,78.0,32.0,180.0,0.0,0.0
21143,73.0,0.0,1830.0,4.0,0.0
21144,81.0,0.0,3360.0,1.0,0.0
21145,85.0,0.0,3360.0,1.0,0.0
21146,69.0,32.0,60.0,10.0,0.0
21147,54.0,0.0,120.0,12.0,0.0
21148,85.0,0.0,780.0,8.0,0.0
21149,42.0,24.0,120.0,13.0,0.0
21150,69.0,24.0,90.0,2.0,0.0
21151,73.0,0.0,90.0,2.0,0.0
21152,61.0,6.0,780.0,3.0,0.0
21153,69.0,0.0,1830.0,4.0,0.0
21154,61.0,0.0,60.0,11.0,0.0
21155,69.0,0.0,60.0,10.0,0.0
21156,57.0,48.0,60.0,11.0,0.0
21157,61.0,0.0,60.0,11.0,0.0
21158,73.0,0.0,60.0,10.0,0.0
21159,69.0,0.0,60.0,10.0,0.0
21160,57.0,80.0,60.0,11.0,0.0
21161,73.0,0.0,60.0,10.0,0.0
21162,61.0,0.0,60.0,11.0,0.0
21163,69.0,0.0,60.0,10.0,0.0
21164,57.0,0.0,60.0,11.0,0.0
21165,73.0,32.0,60.0,10.0,0.0
21166,42.0,24.0,120.0,13.0,0.0
21167,69.0,24.0,90.0,2.0,0.0
21168,73.0,0.0,90.0,2.0,0.0
21169,54.0,0.0,120.0,12.0,0.0
21170,61.0,0.0,60.0,11.0,0.0
21171,69.0,0.0,60.0,10.0,0.0
21172,61.0,0.0,60.0,11.0,0.0
21173,73.0,0.0,60.0,10.0,0.0
21174,57.0,80.0,60.0,11.0,0.0
21175,73.0,0.0,60.0,10.0,0.0
21176,69.0,0.0,60.0,10.0,0.0
21177,61.0,80.0,60.0,11.0,0.0
21178,57.0,0.0,60.0,11.0,0.0
21179,57.0,0.0,60.0,11.0,0.0
21180,61.0,0.0,60.0,11.0,0.0
21181,69.0,80.0,60.0,10.0,0.0
21182,73.0,0.0,60.0,10.0,0.0
21183,57.0,80.0,60.0,11.0,0.0
21184,73.0,0.0,60.0,10.0,0.0
21185,61.0,0.0,60.0,11.0,0.0
21186,69.0,0.0,60.0,10.0,0.0
21187,73.0,0.0,60.0,10.0,0.0
21188,69.0,74.0,60.0,10.0,0.0
21189,57.0,0.0,60.0,11.0,0.0
21190,61.0,0.0,60.0,11.0,0.0
21191,45.0,0.0,180.0,15.0,0.0
21192,73.0,0.0,90.0,2.0,0.0
21193,61.0,48.0,90.0,2.0,0.0
21194,57.0,32.0,180.0,15.0,0.0
21195,61.0,0.0,60.0,11.0,0.0
21196,69.0,32.0,60.0,10.0,0.0
21197,73.0,0.0,60.0,10.0,0.0
21198,57.0,0.0,60.0,11.0,0.0
21199,57.0,48.0,60.0,11.0,0.0
21200,69.0,0.0,60.0,10.0,0.0
21201,73.0,0.0,60.0,10.0,0.0
21202,61.0,0.0,60.0,11.0,0.0
21203,69.0,0.0,60.0,10.0,0.0
21204,57.0,0.0,60.0,11.0,0.0
21205,61.0,0.0,60.0,11.0,0.0
21206,73.0,4.0,60.0,10.0,0.0
21207,57.0,76.0,60.0,3.0,0.0
21208,81.0,0.0,60.0,8.0,0.0
21209,78.0,0.0,330.0,8.0,0.0
21210,61.0,80.0,60.0,11.0,0.0
21211,57.0,0.0,60.0,11.0,0.0
21212,73.0,0.0,60.0,10.0,0.0
21213,54.0,0.0,330.0,3.0,0.0
21214,69.0,0.0,60.0,10.0,0.0
21215,69.0,0.0,60.0,10.0,0.0
21216,73.0,0.0,60.0,10.0,0.0
21217,61.0,0.0,60.0,11.0,0.0
21218,57.0,80.0,60.0,11.0,0.0
21219,61.0,0.0,60.0,11.0,0.0
21220,57.0,0.0,60.0,11.0,0.0
21221,69.0,0.0,60.0,10.0,0.0
21222,73.0,80.0,60.0,10.0,0.0
21223,49.0,32.0,180.0,15.0,0.0
21224,61.0,0.0,180.0,15.0,0.0
21225,73.0,0.0,60.0,10.0,0.0
21226,66.0,0.0,90.0,2.0,0.0
21227,61.0,32.0,60.0,11.0,0.0
21228,57.0,0.0,60.0,11.0,0.0
21229,69.0,0.0,60.0,10.0,0.0
21230,78.0,48.0,90.0,2.0,0.0
21231,73.0,0.0,60.0,10.0,0.0
21232,69.0,0.0,60.0,10.0,0.0
21233,57.0,48.0,60.0,11.0,0.0
21234,61.0,0.0,60.0,11.0,0.0
21235,73.0,0.0,60.0,10.0,0.0
21236,57.0,0.0,60.0,11.0,0.0
21237,69.0,0.0,60.0,10.0,0.0
21238,61.0,4.0,60.0,11.0,0.0
21239,49.0,76.0,60.0,3.0,0.0
21240,73.0,0.0,60.0,8.0,0.0
21241,69.0,0.0,60.0,10.0,0.0
21242,73.0,0.0,60.0,10.0,0.0
21243,45.0,0.0,300.0,3.0,0.0
21244,69.0,16.0,300.0,8.0,0.0
21245,61.0,80.0,60.0,11.0,0.0
21246,57.0,0.0,60.0,11.0,0.0
21247,61.0,0.0,60.0,11.0,0.0
21248,73.0,0.0,60.0,10.0,0.0
21249,57.0,0.0,60.0,11.0,0.0
21250,69.0,80.0,60.0,10.0,0.0
21251,61.0,0.0,60.0,11.0,0.0
21252,57.0,0.0,60.0,11.0,0.0
21253,73.0,0.0,60.0,10.0,0.0
21254,69.0,64.0,60.0,10.0,0.0
21255,69.0,0.0,60.0,10.0,0.0
21256,57.0,0.0,60.0,11.0,0.0
21257,61.0,0.0,60.0,11.0,0.0
21258,66.0,0.0,180.0,15.0,0.0
21259,81.0,0.0,90.0,2.0,0.0
21260,69.0,48.0,90.0,2.0,0.0
21261,73.0,32.0,60.0,10.0,0.0
21262,54.0,32.0,180.0,15.0,0.0
21263,57.0,0.0,60.0,11.0,0.0
21264,69.0,0.0,60.0,10.0,0.0
21265,73.0,24.0,60.0,10.0,0.0
21266,61.0,0.0,60.0,11.0,0.0
21267,73.0,0.0,60.0,8.0,0.0
21268,49.0,24.0,60.0,3.0,0.0
21269,73.0,0.0,60.0,10.0,0.0
21270,69.0,0.0,60.0,10.0,0.0
21271,57.0,0.0,60.0,11.0,0.0
21272,61.0,4.0,60.0,11.0,0.0
21273,45.0,76.0,60.0,3.0,0.0
21274,73.0,0.0,60.0,4.0,0.0
21275,61.0,0.0,60.0,4.0,0.0
21276,69.0,0.0,60.0,8.0,0.0
21277,61.0,80.0,60.0,11.0,0.0
21278,57.0,0.0,60.0,11.0,0.0
21279,69.0,0.0,840.0,4.0,0.0
21280,57.0,30.0,840.0,4.0,0.0
21281,66.0,24.0,600.0,8.0,0.0
21282,42.0,0.0,390.0,3.0,0.0
21283,69.0,0.0,60.0,10.0,0.0
21284,73.0,0.0,60.0,10.0,0.0
21285,69.0,80.0,60.0,10.0,0.0
21286,73.0,0.0,60.0,10.0,0.0
21287,61.0,0.0,60.0,11.0,0.0
21288,57.0,0.0,60.0,11.0,0.0
21289,57.0,0.0,60.0,11.0,0.0
21290,61.0,0.0,60.0,11.0,0.0
21291,69.0,0.0,60.0,10.0,0.0
21292,73.0,80.0,60.0,10.0,0.0
21293,85.0,48.0,90.0,2.0,0.0
21294,69.0,0.0,60.0,10.0,0.0
21295,73.0,0.0,60.0,10.0,0.0
21296,57.0,0.0,180.0,15.0,0.0
21297,61.0,32.0,60.0,11.0,0.0
21298,57.0,0.0,60.0,11.0,0.0
21299,69.0,32.0,180.0,15.0,0.0
21300,73.0,0.0,90.0,2.0,0.0
21301,69.0,0.0,60.0,10.0,0.0
21302,57.0,0.0,60.0,11.0,0.0
21303,61.0,0.0,60.0,11.0,0.0
21304,73.0,48.0,60.0,10.0,0.0
21305,57.0,0.0,60.0,11.0,0.0
21306,61.0,80.0,60.0,11.0,0.0
21307,69.0,0.0,60.0,10.0,0.0
21308,73.0,0.0,60.0,10.0,0.0
21309,73.0,0.0,60.0,10.0,0.0
21310,57.0,0.0,60.0,11.0,0.0
21311,61.0,0.0,60.0,11.0,0.0
21312,69.0,56.0,60.0,10.0,0.0
21313,61.0,0.0,60.0,11.0,0.0
21314,57.0,0.0,60.0,11.0,0.0
21315,73.0,36.0,60.0,10.0,0.0
21316,69.0,0.0,60.0,10.0,0.0
21317,69.0,44.0,60.0,8.0,0.0
21318,57.0,0.0,60.0,11.0,0.0
21319,61.0,76.0,60.0,11.0,0.0
21320,69.0,0.0,60.0,10.0,0.0
21321,73.0,0.0,60.0,10.0,0.0
21322,69.0,0.0,60.0,10.0,0.0
21323,73.0,0.0,60.0,10.0,0.0
21324,78.0,0.0,90.0,2.0,0.0
21325,68.0,4.0,60.0,8.0,0.0
21326,57.0,0.0,60.0,11.0,0.0
21327,61.0,32.0,60.0,11.0,0.0
21328,73.0,32.0,180.0,15.0,0.0
21329,81.0,18.0,90.0,2.0,0.0
21330,61.0,0.0,180.0,15.0,0.0
21331,73.0,36.0,60.0,10.0,0.0
21332,57.0,0.0,60.0,11.0,0.0
21333,61.0,0.0,60.0,11.0,0.0
21334,69.0,0.0,60.0,10.0,0.0
21335,66.0,12.0,60.0,8.0,0.0
21336,61.0,0.0,60.0,11.0,0.0
21337,57.0,0.0,60.0,11.0,0.0
21338,69.0,0.0,60.0,10.0,0.0
21339,73.0,4.0,60.0,10.0,0.0
21340,54.0,0.0,60.0,4.0,0.0
21341,66.0,76.0,60.0,4.0,0.0
21342,49.0,16.0,300.0,4.0,0.0
21343,57.0,80.0,60.0,11.0,0.0
21344,61.0,0.0,60.0,11.0,0.0
21345,73.0,0.0,60.0,10.0,0.0
21346,69.0,0.0,60.0,10.0,0.0
21347,66.0,64.0,480.0,8.0,0.0
21348,61.0,0.0,300.0,4.0,0.0
21349,69.0,0.0,60.0,10.0,0.0
21350,73.0,48.0,60.0,10.0,0.0
21351,57.0,0.0,60.0,11.0,0.0
21352,61.0,0.0,60.0,11.0,0.0
21353,73.0,0.0,60.0,10.0,0.0
21354,57.0,0.0,60.0,11.0,0.0
21355,69.0,0.0,60.0,10.0,0.0
21356,61.0,64.0,60.0,11.0,0.0
21357,78.0,48.0,90.0,2.0,0.0
21358,69.0,0.0,90.0,2.0,0.0
21359,73.0,0.0,180.0,15.0,0.0
21360,57.0,32.0,60.0,11.0,0.0
21361,61.0,0.0,60.0,11.0,0.0
21362,69.0,0.0,60.0,10.0,0.0
21363,73.0,0.0,60.0,10.0,0.0
21364,61.0,32.0,180.0,15.0,0.0
21365,69.0,0.0,60.0,10.0,0.0
21366,61.0,24.0,60.0,11.0,0.0
21367,57.0,0.0,60.0,11.0,0.0
21368,73.0,0.0,60.0,10.0,0.0
21369,54.0,0.0,60.0,4.0,0.0
21370,66.0,24.0,60.0,4.0,0.0
21371,61.0,4.0,60.0,11.0,0.0
21372,69.0,0.0,60.0,10.0,0.0
21373,73.0,0.0,60.0,10.0,0.0
21374,57.0,0.0,60.0,11.0,0.0
21375,69.0,0.0,60.0,4.0,0.0
21376,57.0,12.0,60.0,4.0,0.0
21377,80.0,0.0,480.0,1.0,0.0
21378,71.0,48.0,330.0,4.0,0.0
21379,68.0,0.0,330.0,4.0,0.0
21380,65.0,24.0,120.0,8.0,0.0
21381,71.0,0.0,60.0,10.0,0.0
21382,75.0,56.0,60.0,10.0,0.0
21383,63.0,0.0,60.0,11.0,0.0
21384,59.0,0.0,60.0,11.0,0.0
21385,71.0,80.0,60.0,10.0,0.0
21386,63.0,0.0,60.0,11.0,0.0
21387,75.0,0.0,60.0,10.0,0.0
21388,59.0,0.0,60.0,11.0,0.0
21389,74.0,48.0,120.0,8.0,0.0
21390,62.0,0.0,120.0,3.0,0.0
21391,59.0,0.0,60.0,11.0,0.0
21392,63.0,0.0,60.0,11.0,0.0
21393,75.0,16.0,60.0,10.0,0.0
21394,71.0,0.0,60.0,10.0,0.0
21395,75.0,26.0,60.0,10.0,0.0
21396,59.0,0.0,60.0,11.0,0.0
21397,63.0,0.0,60.0,11.0,0.0
21398,61.0,16.0,60.0,3.0,0.0
21399,71.0,0.0,60.0,10.0,0.0
21400,73.0,6.0,90.0,8.0,0.0
21401,61.0,0.0,180.0,15.0,0.0
21402,73.0,32.0,180.0,15.0,0.0
21403,77.0,0.0,90.0,2.0,0.0
21404,80.0,0.0,90.0,2.0,0.0
21405,59.0,48.0,60.0,11.0,0.0
21406,63.0,0.0,60.0,11.0,0.0
21407,71.0,0.0,60.0,10.0,0.0
21408,75.0,0.0,60.0,10.0,0.0
21409,71.0,4.0,60.0,10.0,0.0
21410,75.0,0.0,60.0,10.0,0.0
21411,63.0,0.0,60.0,11.0,0.0
21412,59.0,0.0,60.0,11.0,0.0
21413,71.0,0.0,60.0,4.0,0.0
21414,68.0,10.0,60.0,4.0,0.0
21415,59.0,0.0,60.0,3.0,0.0
21416,83.0,2.0,60.0,8.0,0.0
21417,71.0,0.0,3360.0,4.0,0.0
21418,83.0,0.0,780.0,8.0,0.0
21419,65.0,0.0,60.0,11.0,0.0
21420,83.0,64.0,15.0,1.0,0.0
21421,74.0,0.0,60.0,10.0,0.0
21422,71.0,0.0,60.0,10.0,0.0
21423,68.0,80.0,60.0,11.0,0.0
21424,68.0,0.0,3360.0,4.0,0.0
21425,71.0,6.0,780.0,3.0,0.0
21426,80.0,0.0,3360.0,1.0,0.0
21427,65.0,0.0,60.0,11.0,0.0
21428,71.0,0.0,60.0,10.0,0.0
21429,74.0,0.0,60.0,10.0,0.0
21430,68.0,80.0,60.0,11.0,0.0
21431,68.0,0.0,60.0,11.0,0.0
21432,65.0,0.0,60.0,11.0,0.0
21433,71.0,0.0,60.0,10.0,0.0
21434,74.0,80.0,60.0,10.0,0.0
21435,65.0,0.0,60.0,11.0,0.0
21436,44.0,0.0,180.0,15.0,0.0
21437,68.0,0.0,60.0,11.0,0.0
21438,59.0,0.0,90.0,2.0,0.0
21439,56.0,32.0,180.0,15.0,0.0
21440,71.0,0.0,60.0,10.0,0.0
21441,74.0,32.0,60.0,10.0,0.0
21442,71.0,48.0,90.0,2.0,0.0
21443,74.0,0.0,60.0,10.0,0.0
21444,71.0,0.0,60.0,10.0,0.0
21445,68.0,48.0,60.0,11.0,0.0
21446,65.0,0.0,60.0,11.0,0.0
21447,71.0,0.0,60.0,10.0,0.0
21448,74.0,0.0,60.0,10.0,0.0
21449,68.0,0.0,60.0,11.0,0.0
21450,65.0,80.0,60.0,11.0,0.0
21451,68.0,0.0,60.0,11.0,0.0
21452,71.0,0.0,60.0,10.0,0.0
21453,65.0,80.0,60.0,11.0,0.0
21454,74.0,0.0,60.0,10.0,0.0
21455,71.0,0.0,60.0,10.0,0.0
21456,74.0,0.0,60.0,10.0,0.0
21457,68.0,80.0,60.0,11.0,0.0
21458,65.0,0.0,60.0,11.0,0.0
21459,68.0,0.0,60.0,11.0,0.0
21460,74.0,0.0,60.0,10.0,0.0
21461,71.0,74.0,60.0,10.0,0.0
21462,65.0,0.0,60.0,11.0,0.0
21463,59.0,32.0,180.0,15.0,0.0
21464,68.0,0.0,60.0,11.0,0.0
21465,65.0,32.0,60.0,11.0,0.0
21466,74.0,0.0,60.0,10.0,0.0
21467,62.0,0.0,90.0,2.0,0.0
21468,47.0,0.0,180.0,15.0,0.0
21469,74.0,48.0,90.0,2.0,0.0
21470,71.0,0.0,60.0,10.0,0.0
21471,74.0,0.0,60.0,10.0,0.0
21472,68.0,48.0,60.0,11.0,0.0
21473,71.0,0.0,60.0,10.0,0.0
21474,65.0,0.0,60.0,11.0,0.0
21475,65.0,0.0,60.0,11.0,0.0
21476,68.0,0.0,60.0,11.0,0.0
21477,74.0,0.0,60.0,10.0,0.0
21478,71.0,4.0,60.0,10.0,0.0
21479,80.0,76.0,60.0,8.0,0.0
21480,68.0,0.0,60.0,3.0,0.0
21481,74.0,80.0,60.0,10.0,0.0
21482,71.0,0.0,60.0,10.0,0.0
21483,68.0,0.0,60.0,11.0,0.0
21484,77.0,0.0,330.0,8.0,0.0
21485,65.0,0.0,60.0,11.0,0.0
21486,65.0,0.0,330.0,3.0,0.0
21487,68.0,0.0,60.0,11.0,0.0
21488,71.0,0.0,60.0,10.0,0.0
21489,65.0,80.0,60.0,11.0,0.0
21490,74.0,0.0,60.0,10.0,0.0
21491,71.0,0.0,60.0,10.0,0.0
21492,74.0,0.0,60.0,10.0,0.0
21493,65.0,0.0,60.0,11.0,0.0
21494,68.0,80.0,60.0,11.0,0.0
21495,71.0,0.0,60.0,10.0,0.0
21496,74.0,0.0,60.0,10.0,0.0
21497,50.0,32.0,180.0,15.0,0.0
21498,62.0,0.0,180.0,15.0,0.0
21499,68.0,0.0,60.0,11.0,0.0
21500,65.0,32.0,60.0,11.0,0.0
21501,77.0,48.0,90.0,2.0,0.0
21502,65.0,0.0,90.0,2.0,0.0
21503,68.0,0.0,60.0,11.0,0.0
21504,65.0,0.0,60.0,11.0,0.0
21505,74.0,48.0,60.0,10.0,0.0
21506,71.0,0.0,60.0,10.0,0.0
21507,68.0,4.0,60.0,11.0,0.0
21508,71.0,0.0,60.0,10.0,0.0
21509,74.0,0.0,60.0,10.0,0.0
21510,65.0,0.0,60.0,11.0,0.0
21511,62.0,76.0,60.0,3.0,0.0
21512,74.0,0.0,60.0,8.0,0.0
21513,71.0,16.0,300.0,8.0,0.0
21514,65.0,0.0,60.0,11.0,0.0
21515,68.0,0.0,60.0,11.0,0.0
21516,59.0,0.0,300.0,3.0,0.0
21517,71.0,0.0,60.0,10.0,0.0
21518,74.0,80.0,60.0,10.0,0.0
21519,68.0,80.0,60.0,11.0,0.0
21520,74.0,0.0,60.0,10.0,0.0
21521,71.0,0.0,60.0,10.0,0.0
21522,65.0,0.0,60.0,11.0,0.0
21523,86.0,48.0,120.0,0.0,0.0
21524,74.0,16.0,60.0,10.0,0.0
21525,71.0,0.0,60.0,10.0,0.0
21526,65.0,0.0,60.0,11.0,0.0
21527,68.0,0.0,60.0,11.0,0.0
21528,68.0,32.0,60.0,11.0,0.0
21529,85.0,0.0,60.0,0.0,0.0
21530,68.0,0.0,90.0,2.0,0.0
21531,71.0,0.0,60.0,10.0,0.0
21532,74.0,0.0,60.0,10.0,0.0
21533,65.0,0.0,60.0,11.0,0.0
21534,80.0,48.0,90.0,2.0,0.0
21535,53.0,32.0,180.0,15.0,0.0
21536,65.0,0.0,180.0,15.0,0.0
21537,65.0,0.0,60.0,11.0,0.0
21538,68.0,0.0,60.0,11.0,0.0
21539,74.0,24.0,60.0,10.0,0.0
21540,71.0,0.0,60.0,10.0,0.0
21541,71.0,0.0,60.0,8.0,0.0
21542,59.0,24.0,60.0,3.0,0.0
21543,74.0,0.0,60.0,10.0,0.0
21544,71.0,0.0,60.0,10.0,0.0
21545,65.0,0.0,60.0,11.0,0.0
21546,68.0,4.0,60.0,11.0,0.0
21547,56.0,0.0,60.0,3.0,0.0
21548,83.0,76.0,60.0,0.0,0.0
21549,68.0,0.0,60.0,8.0,0.0
21550,65.0,80.0,60.0,11.0,0.0
21551,68.0,0.0,60.0,11.0,0.0
21552,71.0,0.0,60.0,10.0,0.0
21553,95.0,2.0,780.0,0.0,0.0
21554,53.0,0.0,390.0,3.0,0.0
21555,65.0,24.0,600.0,8.0,0.0
21556,74.0,0.0,60.0,10.0,0.0
21557,68.0,0.0,60.0,11.0,0.0
21558,74.0,80.0,60.0,10.0,0.0
21559,71.0,0.0,60.0,10.0,0.0
21560,65.0,0.0,60.0,11.0,0.0
21561,74.0,0.0,60.0,10.0,0.0
21562,71.0,0.0,60.0,10.0,0.0
21563,68.0,80.0,60.0,11.0,0.0
21564,65.0,0.0,60.0,11.0,0.0
21565,68.0,0.0,180.0,15.0,0.0
21566,74.0,0.0,60.0,10.0,0.0
21567,71.0,0.0,60.0,10.0,0.0
21568,56.0,32.0,180.0,15.0,0.0
21569,65.0,32.0,60.0,11.0,0.0
21570,71.0,0.0,90.0,2.0,0.0
21571,83.0,48.0,90.0,2.0,0.0
21572,68.0,0.0,60.0,11.0,0.0
21573,74.0,0.0,60.0,10.0,0.0
21574,71.0,0.0,60.0,10.0,0.0
21575,68.0,48.0,60.0,11.0,0.0
21576,65.0,0.0,60.0,11.0,0.0
21577,74.0,80.0,60.0,10.0,0.0
21578,65.0,0.0,60.0,11.0,0.0
21579,68.0,0.0,60.0,11.0,0.0
21580,71.0,0.0,60.0,10.0,0.0
21581,74.0,0.0,60.0,10.0,0.0
21582,71.0,0.0,60.0,10.0,0.0
21583,65.0,0.0,60.0,11.0,0.0
21584,68.0,56.0,60.0,11.0,0.0
21585,74.0,0.0,60.0,10.0,0.0
21586,71.0,0.0,60.0,10.0,0.0
21587,65.0,36.0,60.0,11.0,0.0
21588,68.0,0.0,60.0,11.0,0.0
21589,74.0,44.0,60.0,8.0,0.0
21590,74.0,0.0,60.0,10.0,0.0
21591,71.0,74.0,60.0,10.0,0.0
21592,65.0,0.0,60.0,11.0,0.0
21593,68.0,0.0,60.0,11.0,0.0
21594,68.0,0.0,60.0,11.0,0.0
21595,65.0,32.0,60.0,11.0,0.0
21596,74.0,48.0,90.0,2.0,0.0
21597,86.0,0.0,90.0,2.0,0.0
21598,73.0,4.0,60.0,8.0,0.0
21599,59.0,32.0,180.0,15.0,0.0
21600,71.0,0.0,180.0,15.0,0.0
21601,71.0,0.0,60.0,10.0,0.0
21602,74.0,0.0,60.0,10.0,0.0
21603,74.0,36.0,60.0,10.0,0.0
21604,65.0,0.0,60.0,11.0,0.0
21605,68.0,0.0,60.0,11.0,0.0
21606,71.0,0.0,60.0,10.0,0.0
21607,71.0,12.0,60.0,8.0,0.0
21608,68.0,4.0,60.0,11.0,0.0
21609,71.0,0.0,60.0,10.0,0.0
21610,65.0,0.0,60.0,11.0,0.0
21611,74.0,0.0,60.0,10.0,0.0
21612,92.0,76.0,60.0,0.0,0.0
21613,71.0,64.0,480.0,8.0,0.0
21614,71.0,0.0,60.0,10.0,0.0
21615,74.0,80.0,60.0,10.0,0.0
21616,89.0,78.0,240.0,0.0,0.0
21617,68.0,0.0,60.0,11.0,0.0
21618,65.0,0.0,60.0,11.0,0.0
21619,68.0,80.0,60.0,11.0,0.0
21620,65.0,0.0,60.0,11.0,0.0
21621,74.0,0.0,60.0,10.0,0.0
21622,71.0,0.0,60.0,10.0,0.0
21623,68.0,0.0,60.0,11.0,0.0
21624,71.0,2.0,60.0,10.0,0.0
21625,74.0,0.0,60.0,10.0,0.0
21626,65.0,0.0,60.0,11.0,0.0
21627,73.0,32.0,180.0,15.0,0.0
21628,65.0,0.0,60.0,11.0,0.0
21629,61.0,0.0,180.0,15.0,0.0
21630,71.0,32.0,60.0,10.0,0.0
21631,68.0,48.0,90.0,2.0,0.0
21632,80.0,0.0,90.0,2.0,0.0
21633,68.0,0.0,60.0,11.0,0.0
21634,74.0,0.0,60.0,10.0,0.0
21635,68.0,0.0,60.0,11.0,0.0
21636,65.0,0.0,60.0,11.0,0.0
21637,71.0,24.0,60.0,10.0,0.0
21638,74.0,0.0,60.0,10.0,0.0
21639,86.0,24.0,60.0,0.0,0.0
21640,65.0,0.0,60.0,11.0,0.0
21641,68.0,0.0,60.0,11.0,0.0
21642,74.0,14.0,60.0,10.0,0.0
21643,71.0,0.0,60.0,10.0,0.0
21644,83.0,2.0,60.0,0.0,0.0
21645,82.0,14.0,240.0,0.0,0.0
21646,85.0,64.0,480.0,1.0,0.0
21647,70.0,0.0,5760.0,4.0,0.0
21648,73.0,0.0,5760.0,4.0,0.0
21649,76.0,0.0,480.0,1.0,0.0
21650,73.0,24.0,120.0,8.0,0.0
21651,73.0,56.0,60.0,10.0,0.0
21652,66.0,0.0,60.0,11.0,0.0
21653,70.0,0.0,60.0,11.0,0.0
21654,64.0,64.0,4080.0,4.0,0.0
21655,67.0,0.0,4080.0,4.0,0.0
21656,76.0,0.0,60.0,10.0,0.0
21657,70.0,0.0,60.0,11.0,0.0
21658,66.0,0.0,60.0,11.0,0.0
21659,73.0,0.0,60.0,10.0,0.0
21660,76.0,80.0,60.0,10.0,0.0
21661,64.0,0.0,120.0,3.0,0.0
21662,76.0,48.0,120.0,8.0,0.0
21663,72.0,0.0,60.0,10.0,0.0
21664,76.0,0.0,60.0,10.0,0.0
21665,66.0,2.0,60.0,11.0,0.0
21666,70.0,0.0,60.0,11.0,0.0
21667,62.0,16.0,60.0,3.0,0.0
21668,42.0,32.0,180.0,15.0,0.0
21669,54.0,0.0,180.0,15.0,0.0
21670,72.0,0.0,60.0,10.0,0.0
21671,76.0,0.0,60.0,10.0,0.0
21672,82.0,48.0,90.0,2.0,0.0
21673,70.0,0.0,60.0,11.0,0.0
21674,66.0,26.0,60.0,11.0,0.0
21675,74.0,6.0,90.0,8.0,0.0
21676,70.0,0.0,90.0,2.0,0.0
21677,66.0,0.0,60.0,11.0,0.0
21678,70.0,0.0,60.0,11.0,0.0
21679,76.0,0.0,60.0,10.0,0.0
21680,72.0,48.0,60.0,10.0,0.0
21681,70.0,0.0,60.0,11.0,0.0
21682,76.0,0.0,60.0,10.0,0.0
21683,72.0,4.0,60.0,10.0,0.0
21684,66.0,0.0,60.0,11.0,0.0
21685,61.0,10.0,60.0,3.0,0.0
21686,88.0,2.0,60.0,8.0,0.0
21687,64.0,0.0,780.0,3.0,0.0
21688,76.0,14.0,5520.0,1.0,0.0
21689,85.0,64.0,2160.0,1.0,0.0
21690,67.0,0.0,60.0,11.0,0.0
21691,64.0,0.0,60.0,11.0,0.0
21692,76.0,80.0,60.0,10.0,0.0
21693,70.0,0.0,60.0,10.0,0.0
21694,88.0,6.0,780.0,8.0,0.0
21695,67.0,80.0,60.0,11.0,0.0
21696,64.0,0.0,60.0,11.0,0.0
21697,70.0,0.0,60.0,10.0,0.0
21698,76.0,0.0,60.0,10.0,0.0
21699,70.0,0.0,60.0,10.0,0.0
21700,76.0,80.0,60.0,10.0,0.0
21701,67.0,0.0,60.0,11.0,0.0
21702,64.0,0.0,60.0,11.0,0.0
21703,61.0,0.0,90.0,2.0,0.0
21704,73.0,48.0,90.0,2.0,0.0
21705,67.0,0.0,60.0,11.0,0.0
21706,76.0,0.0,60.0,10.0,0.0
21707,34.0,32.0,180.0,15.0,0.0
21708,70.0,32.0,60.0,10.0,0.0
21709,46.0,0.0,180.0,15.0,0.0
21710,64.0,0.0,60.0,11.0,0.0
21711,67.0,48.0,60.0,11.0,0.0
21712,64.0,0.0,60.0,11.0,0.0
21713,70.0,0.0,60.0,10.0,0.0
21714,76.0,0.0,60.0,10.0,0.0
21715,70.0,80.0,60.0,10.0,0.0
21716,76.0,0.0,60.0,10.0,0.0
21717,67.0,0.0,60.0,11.0,0.0
21718,64.0,0.0,60.0,11.0,0.0
21719,70.0,0.0,60.0,10.0,0.0
21720,64.0,80.0,60.0,11.0,0.0
21721,67.0,0.0,60.0,11.0,0.0
21722,76.0,0.0,60.0,10.0,0.0
21723,76.0,80.0,60.0,10.0,0.0
21724,64.0,0.0,60.0,11.0,0.0
21725,67.0,0.0,60.0,11.0,0.0
21726,70.0,0.0,60.0,10.0,0.0
21727,76.0,0.0,60.0,10.0,0.0
21728,64.0,0.0,60.0,11.0,0.0
21729,70.0,0.0,60.0,10.0,0.0
21730,67.0,74.0,60.0,11.0,0.0
21731,64.0,32.0,60.0,11.0,0.0
21732,64.0,48.0,90.0,2.0,0.0
21733,76.0,0.0,90.0,2.0,0.0
21734,37.0,0.0,180.0,15.0,0.0
21735,49.0,32.0,180.0,15.0,0.0
21736,67.0,0.0,60.0,11.0,0.0
21737,70.0,0.0,60.0,10.0,0.0
21738,76.0,0.0,60.0,10.0,0.0
21739,67.0,0.0,60.0,11.0,0.0
21740,76.0,0.0,60.0,10.0,0.0
21741,70.0,0.0,60.0,10.0,0.0
21742,64.0,48.0,60.0,11.0,0.0
21743,64.0,0.0,60.0,11.0,0.0
21744,70.0,4.0,60.0,10.0,0.0
21745,76.0,0.0,60.0,10.0,0.0
21746,67.0,0.0,60.0,11.0,0.0
21747,85.0,76.0,60.0,8.0,0.0
21748,61.0,0.0,60.0,3.0,0.0
21749,82.0,0.0,330.0,8.0,0.0
21750,58.0,0.0,330.0,3.0,0.0
21751,70.0,0.0,60.0,10.0,0.0
21752,76.0,80.0,60.0,10.0,0.0
21753,67.0,0.0,60.0,11.0,0.0
21754,64.0,0.0,60.0,11.0,0.0
21755,64.0,80.0,60.0,11.0,0.0
21756,67.0,0.0,60.0,11.0,0.0
21757,76.0,0.0,60.0,10.0,0.0
21758,70.0,0.0,60.0,10.0,0.0
21759,70.0,0.0,60.0,10.0,0.0
21760,67.0,0.0,60.0,11.0,0.0
21761,64.0,80.0,60.0,11.0,0.0
21762,76.0,0.0,60.0,10.0,0.0
21763,64.0,0.0,60.0,11.0,0.0
21764,52.0,32.0,180.0,15.0,0.0
21765,40.0,0.0,180.0,15.0,0.0
21766,79.0,48.0,90.0,2.0,0.0
21767,76.0,0.0,60.0,10.0,0.0
21768,70.0,0.0,60.0,10.0,0.0
21769,67.0,0.0,90.0,2.0,0.0
21770,67.0,32.0,60.0,11.0,0.0
21771,64.0,0.0,60.0,11.0,0.0
21772,67.0,48.0,60.0,11.0,0.0
21773,76.0,0.0,60.0,10.0,0.0
21774,70.0,0.0,60.0,10.0,0.0
21775,70.0,4.0,60.0,10.0,0.0
21776,76.0,0.0,60.0,10.0,0.0
21777,64.0,0.0,60.0,11.0,0.0
21778,67.0,0.0,60.0,11.0,0.0
21779,79.0,76.0,60.0,8.0,0.0
21780,55.0,0.0,60.0,3.0,0.0
21781,70.0,0.0,60.0,10.0,0.0
21782,76.0,0.0,60.0,10.0,0.0
21783,52.0,0.0,300.0,3.0,0.0
21784,76.0,0.0,300.0,8.0,0.0
21785,67.0,80.0,60.0,11.0,0.0
21786,64.0,0.0,60.0,11.0,0.0
21787,64.0,0.0,60.0,11.0,0.0
21788,67.0,0.0,60.0,11.0,0.0
21789,70.0,80.0,60.0,10.0,0.0
21790,76.0,0.0,60.0,10.0,0.0
21791,79.0,48.0,120.0,2.0,0.0
21792,64.0,0.0,60.0,11.0,0.0
21793,70.0,0.0,60.0,10.0,0.0
21794,76.0,16.0,60.0,10.0,0.0
21795,67.0,0.0,60.0,11.0,0.0
21796,70.0,0.0,60.0,10.0,0.0
21797,67.0,32.0,60.0,11.0,0.0
21798,64.0,0.0,60.0,11.0,0.0
21799,55.0,0.0,180.0,15.0,0.0
21800,43.0,32.0,180.0,15.0,0.0
21801,76.0,0.0,60.0,10.0,0.0
21802,78.0,16.0,60.0,2.0,0.0
21803,70.0,48.0,90.0,2.0,0.0
21804,70.0,0.0,60.0,10.0,0.0
21805,76.0,0.0,60.0,10.0,0.0
21806,64.0,24.0,60.0,11.0,0.0
21807,67.0,0.0,60.0,11.0,0.0
21808,76.0,0.0,60.0,8.0,0.0
21809,52.0,24.0,60.0,3.0,0.0
21810,70.0,0.0,60.0,10.0,0.0
21811,76.0,0.0,60.0,10.0,0.0
21812,67.0,0.0,60.0,11.0,0.0
21813,64.0,4.0,60.0,11.0,0.0
21814,73.0,0.0,60.0,8.0,0.0
21815,76.0,76.0,60.0,2.0,0.0
21816,49.0,0.0,60.0,3.0,0.0
21817,88.0,2.0,780.0,2.0,0.0
21818,76.0,0.0,60.0,10.0,0.0
21819,70.0,24.0,600.0,8.0,0.0
21820,67.0,0.0,60.0,11.0,0.0
21821,46.0,0.0,390.0,3.0,0.0
21822,70.0,0.0,60.0,10.0,0.0
21823,64.0,80.0,60.0,11.0,0.0
21824,70.0,0.0,60.0,10.0,0.0
21825,67.0,80.0,60.0,11.0,0.0
21826,64.0,0.0,60.0,11.0,0.0
21827,76.0,0.0,60.0,10.0,0.0
21828,64.0,16.0,60.0,11.0,0.0
21829,67.0,0.0,60.0,11.0,0.0
21830,70.0,0.0,60.0,10.0,0.0
21831,76.0,0.0,60.0,10.0,0.0
21832,61.0,32.0,180.0,15.0,0.0
21833,76.0,0.0,60.0,10.0,0.0
21834,70.0,32.0,60.0,10.0,0.0
21835,82.0,48.0,1200.0,1.0,0.0
21836,64.0,48.0,90.0,2.0,0.0
21837,67.0,0.0,60.0,11.0,0.0
21838,64.0,0.0,60.0,11.0,0.0
21839,49.0,0.0,180.0,15.0,0.0
21840,64.0,0.0,60.0,11.0,0.0
21841,76.0,0.0,60.0,10.0,0.0
21842,70.0,0.0,60.0,10.0,0.0
21843,67.0,48.0,60.0,11.0,0.0
21844,67.0,0.0,60.0,11.0,0.0
21845,64.0,0.0,60.0,11.0,0.0
21846,70.0,80.0,60.0,10.0,0.0
21847,76.0,0.0,60.0,10.0,0.0
21848,76.0,0.0,60.0,10.0,0.0
21849,64.0,0.0,60.0,11.0,0.0
21850,70.0,0.0,60.0,10.0,0.0
21851,67.0,56.0,60.0,11.0,0.0
21852,67.0,36.0,60.0,11.0,0.0
21853,76.0,0.0,60.0,10.0,0.0
21854,64.0,0.0,60.0,11.0,0.0
21855,70.0,0.0,60.0,10.0,0.0
21856,73.0,44.0,60.0,8.0,0.0
21857,67.0,74.0,60.0,11.0,0.0
21858,64.0,0.0,60.0,11.0,0.0
21859,76.0,0.0,60.0,10.0,0.0
21860,70.0,0.0,60.0,10.0,0.0
21861,71.0,4.0,60.0,8.0,0.0
21862,67.0,0.0,60.0,11.0,0.0
21863,64.0,32.0,60.0,11.0,0.0
21864,70.0,0.0,60.0,10.0,0.0
21865,76.0,0.0,60.0,10.0,0.0
21866,64.0,0.0,180.0,15.0,0.0
21867,52.0,32.0,180.0,15.0,0.0
21868,67.0,48.0,90.0,2.0,0.0
21869,64.0,0.0,60.0,11.0,0.0
21870,76.0,36.0,60.0,10.0,0.0
21871,70.0,0.0,60.0,10.0,0.0
21872,67.0,0.0,60.0,11.0,0.0
21873,70.0,12.0,60.0,8.0,0.0
21874,70.0,0.0,60.0,10.0,0.0
21875,67.0,0.0,60.0,11.0,0.0
21876,64.0,4.0,60.0,11.0,0.0
21877,76.0,0.0,60.0,10.0,0.0
21878,85.0,76.0,60.0,2.0,0.0
21879,70.0,24.0,600.0,8.0,0.0
21880,82.0,78.0,240.0,2.0,0.0
21881,64.0,80.0,60.0,11.0,0.0
21882,67.0,0.0,60.0,11.0,0.0
21883,76.0,0.0,60.0,10.0,0.0
21884,70.0,0.0,60.0,10.0,0.0
21885,67.0,0.0,60.0,11.0,0.0
21886,64.0,0.0,60.0,11.0,0.0
21887,70.0,80.0,60.0,10.0,0.0
21888,76.0,0.0,60.0,10.0,0.0
21889,67.0,0.0,60.0,11.0,0.0
21890,76.0,0.0,60.0,10.0,0.0
21891,64.0,2.0,60.0,11.0,0.0
21892,70.0,0.0,60.0,10.0,0.0
21893,67.0,32.0,180.0,15.0,0.0
21894,70.0,48.0,90.0,2.0,0.0
21895,64.0,32.0,60.0,11.0,0.0
21896,67.0,0.0,60.0,11.0,0.0
21897,55.0,0.0,180.0,15.0,0.0
21898,70.0,0.0,60.0,10.0,0.0
21899,76.0,0.0,60.0,10.0,0.0
21900,64.0,0.0,60.0,11.0,0.0
21901,67.0,0.0,60.0,11.0,0.0
21902,76.0,0.0,60.0,10.0,0.0
21903,70.0,24.0,60.0,10.0,0.0
21904,79.0,24.0,60.0,2.0,0.0
21905,76.0,0.0,60.0,10.0,0.0
21906,67.0,0.0,60.0,11.0,0.0
21907,64.0,0.0,60.0,11.0,0.0
21908,70.0,14.0,60.0,10.0,0.0
21909,76.0,2.0,60.0,2.0,0.0
21910,73.0,16.0,60.0,2.0,0.0
21911,67.0,0.0,60.0,10.0,0.0
21912,85.0,64.0,1920.0,1.0,0.0
21913,58.0,0.0,60.0,11.0,0.0
21914,61.0,0.0,60.0,11.0,0.0
21915,76.0,56.0,60.0,10.0,0.0
21916,61.0,80.0,60.0,11.0,0.0
21917,58.0,0.0,60.0,11.0,0.0
21918,67.0,0.0,60.0,10.0,0.0
21919,76.0,0.0,60.0,10.0,0.0
21920,79.0,0.0,120.0,8.0,0.0
21921,55.0,0.0,120.0,3.0,0.0
21922,67.0,0.0,60.0,10.0,0.0
21923,58.0,0.0,60.0,11.0,0.0
21924,61.0,16.0,60.0,11.0,0.0
21925,76.0,0.0,60.0,10.0,0.0
21926,78.0,6.0,90.0,8.0,0.0
21927,58.0,0.0,180.0,15.0,0.0
21928,76.0,26.0,60.0,10.0,0.0
21929,66.0,0.0,60.0,10.0,0.0
21930,61.0,0.0,60.0,11.0,0.0
21931,58.0,0.0,60.0,11.0,0.0
21932,73.0,48.0,90.0,2.0,0.0
21933,66.0,0.0,1650.0,4.0,0.0
21934,54.0,0.0,90.0,3.0,0.0
21935,70.0,32.0,180.0,15.0,0.0
21936,61.0,0.0,60.0,11.0,0.0
21937,58.0,48.0,60.0,11.0,0.0
21938,76.0,0.0,60.0,10.0,0.0
21939,66.0,0.0,60.0,10.0,0.0
21940,61.0,0.0,60.0,11.0,0.0
21941,58.0,0.0,60.0,11.0,0.0
21942,76.0,14.0,60.0,10.0,0.0
21943,66.0,0.0,60.0,10.0,0.0
21944,90.0,0.0,60.0,8.0,0.0
21945,66.0,66.0,60.0,3.0,0.0
21946,88.0,64.0,240.0,8.0,0.0
21947,76.0,80.0,60.0,10.0,0.0
21948,64.0,0.0,240.0,3.0,0.0
21949,61.0,0.0,60.0,11.0,0.0
21950,64.0,14.0,1410.0,4.0,0.0
21951,58.0,0.0,60.0,11.0,0.0
21952,73.0,0.0,60.0,10.0,0.0
21953,73.0,80.0,60.0,10.0,0.0
21954,58.0,0.0,60.0,11.0,0.0
21955,76.0,0.0,60.0,10.0,0.0
21956,61.0,0.0,60.0,11.0,0.0
21957,73.0,0.0,60.0,10.0,0.0
21958,61.0,0.0,60.0,11.0,0.0
21959,58.0,16.0,60.0,11.0,0.0
21960,76.0,0.0,60.0,10.0,0.0
21961,46.0,0.0,180.0,15.0,0.0
21962,73.0,48.0,90.0,2.0,0.0
21963,34.0,32.0,180.0,15.0,0.0
21964,58.0,32.0,60.0,11.0,0.0
21965,73.0,0.0,60.0,10.0,0.0
21966,76.0,0.0,60.0,10.0,0.0
21967,61.0,0.0,60.0,11.0,0.0
21968,76.0,0.0,60.0,10.0,0.0
21969,73.0,0.0,60.0,10.0,0.0
21970,58.0,0.0,60.0,11.0,0.0
21971,61.0,48.0,60.0,11.0,0.0
21972,76.0,4.0,60.0,10.0,0.0
21973,58.0,0.0,60.0,11.0,0.0
21974,73.0,0.0,60.0,10.0,0.0
21975,61.0,0.0,60.0,11.0,0.0
21976,64.0,76.0,60.0,3.0,0.0
21977,88.0,0.0,60.0,8.0,0.0
21978,61.0,64.0,240.0,3.0,0.0
21979,73.0,80.0,60.0,10.0,0.0
21980,85.0,0.0,240.0,8.0,0.0
21981,61.0,0.0,60.0,11.0,0.0
21982,58.0,0.0,60.0,11.0,0.0
21983,76.0,0.0,60.0,10.0,0.0
21984,76.0,0.0,60.0,10.0,0.0
21985,61.0,80.0,60.0,11.0,0.0
21986,73.0,0.0,60.0,10.0,0.0
21987,58.0,0.0,60.0,11.0,0.0
21988,73.0,0.0,60.0,10.0,0.0
21989,58.0,16.0,60.0,11.0,0.0
21990,61.0,0.0,60.0,11.0,0.0
21991,76.0,0.0,60.0,10.0,0.0
21992,61.0,0.0,60.0,11.0,0.0
21993,37.0,32.0,180.0,15.0,0.0
21994,73.0,0.0,60.0,10.0,0.0
21995,76.0,32.0,60.0,10.0,0.0
21996,76.0,48.0,90.0,2.0,0.0
21997,49.0,0.0,180.0,15.0,0.0
21998,58.0,0.0,60.0,11.0,0.0
21999,58.0,0.0,60.0,11.0,0.0
22000,76.0,48.0,60.0,10.0,0.0
22001,73.0,0.0,60.0,10.0,0.0
22002,61.0,0.0,60.0,11.0,0.0
22003,58.0,0.0,60.0,11.0,0.0
22004,61.0,4.0,60.0,11.0,0.0
22005,73.0,0.0,60.0,10.0,0.0
22006,76.0,0.0,60.0,10.0,0.0
22007,82.0,0.0,60.0,8.0,0.0
22008,58.0,76.0,60.0,3.0,0.0
22009,61.0,80.0,60.0,11.0,0.0
22010,58.0,0.0,60.0,11.0,0.0
22011,78.0,0.0,240.0,8.0,0.0
22012,54.0,64.0,240.0,3.0,0.0
22013,73.0,0.0,60.0,10.0,0.0
22014,78.0,24.0,600.0,0.0,0.0
22015,76.0,0.0,60.0,10.0,0.0
22016,76.0,80.0,60.0,10.0,0.0
22017,73.0,0.0,60.0,10.0,0.0
22018,61.0,0.0,60.0,11.0,0.0
22019,58.0,0.0,60.0,11.0,0.0
22020,58.0,0.0,60.0,11.0,0.0
22021,61.0,0.0,60.0,11.0,0.0
22022,76.0,16.0,60.0,10.0,0.0
22023,73.0,0.0,60.0,10.0,0.0
22024,54.0,0.0,180.0,15.0,0.0
22025,76.0,48.0,90.0,2.0,0.0
22026,76.0,0.0,60.0,10.0,0.0
22027,66.0,2.0,240.0,2.0,0.0
22028,61.0,0.0,60.0,11.0,0.0
22029,58.0,0.0,60.0,11.0,0.0
22030,73.0,32.0,60.0,10.0,0.0
22031,42.0,18.0,180.0,15.0,0.0
22032,73.0,48.0,60.0,10.0,0.0
22033,58.0,0.0,60.0,11.0,0.0
22034,61.0,0.0,60.0,11.0,0.0
22035,76.0,0.0,60.0,10.0,0.0
22036,76.0,0.0,60.0,10.0,0.0
22037,73.0,2.0,60.0,10.0,0.0
22038,61.0,0.0,60.0,11.0,0.0
22039,58.0,0.0,60.0,11.0,0.0
22040,76.0,12.0,60.0,8.0,0.0
22041,52.0,0.0,60.0,3.0,0.0
22042,78.0,0.0,60.0,10.0,0.0
22043,66.0,0.0,60.0,10.0,0.0
22044,71.0,0.0,11940.0,4.0,0.0
22045,75.0,0.0,240.0,8.0,0.0
22046,54.0,0.0,240.0,4.0,0.0
22047,66.0,0.0,240.0,4.0,0.0
22048,78.0,12.0,480.0,1.0,0.0
22049,57.0,56.0,60.0,11.0,0.0
22050,60.0,0.0,60.0,11.0,0.0
22051,51.0,0.0,240.0,3.0,0.0
22052,60.0,0.0,60.0,11.0,0.0
22053,57.0,0.0,60.0,11.0,0.0
22054,75.0,80.0,60.0,10.0,0.0
22055,66.0,0.0,60.0,10.0,0.0
22056,84.0,0.0,120.0,0.0,0.0
22057,72.0,64.0,120.0,2.0,0.0
22058,75.0,0.0,60.0,10.0,0.0
22059,57.0,2.0,60.0,11.0,0.0
22060,60.0,0.0,60.0,11.0,0.0
22061,66.0,0.0,60.0,10.0,0.0
22062,47.0,32.0,180.0,15.0,0.0
22063,83.0,0.0,90.0,0.0,0.0
22064,75.0,14.0,480.0,1.0,0.0
22065,59.0,0.0,180.0,15.0,0.0
22066,59.0,0.0,60.0,11.0,0.0
22067,66.0,0.0,60.0,10.0,0.0
22068,75.0,26.0,60.0,10.0,0.0
22069,71.0,6.0,90.0,2.0,0.0
22070,63.0,48.0,90.0,2.0,0.0
22071,57.0,0.0,60.0,11.0,0.0
22072,59.0,0.0,60.0,11.0,0.0
22073,57.0,0.0,60.0,11.0,0.0
22074,66.0,0.0,60.0,10.0,0.0
22075,75.0,48.0,60.0,10.0,0.0
22076,66.0,0.0,60.0,10.0,0.0
22077,75.0,0.0,60.0,10.0,0.0
22078,57.0,0.0,60.0,11.0,0.0
22079,59.0,2.0,60.0,11.0,0.0
22080,95.0,0.0,60.0,0.0,0.0
22081,83.0,66.0,60.0,2.0,0.0
22082,81.0,64.0,240.0,2.0,0.0
22083,66.0,24.0,600.0,8.0,0.0
22084,69.0,0.0,60.0,10.0,0.0
22085,78.0,80.0,60.0,10.0,0.0
22086,83.0,14.0,6210.0,1.0,0.0
22087,57.0,0.0,60.0,11.0,0.0
22088,93.0,0.0,240.0,0.0,0.0
22089,59.0,0.0,60.0,11.0,0.0
22090,57.0,80.0,60.0,11.0,0.0
22091,78.0,0.0,60.0,10.0,0.0
22092,69.0,0.0,60.0,10.0,0.0
22093,59.0,0.0,60.0,11.0,0.0
22094,57.0,0.0,60.0,11.0,0.0
22095,59.0,0.0,60.0,11.0,0.0
22096,78.0,2.0,60.0,10.0,0.0
22097,69.0,0.0,60.0,10.0,0.0
22098,51.0,32.0,180.0,15.0,0.0
22099,81.0,14.0,1170.0,1.0,0.0
22100,69.0,32.0,60.0,10.0,0.0
22101,66.0,48.0,90.0,2.0,0.0
22102,39.0,0.0,180.0,15.0,0.0
22103,78.0,0.0,60.0,10.0,0.0
22104,59.0,0.0,60.0,11.0,0.0
22105,57.0,0.0,60.0,11.0,0.0
22106,59.0,48.0,60.0,11.0,0.0
22107,57.0,0.0,60.0,11.0,0.0
22108,78.0,0.0,60.0,10.0,0.0
22109,69.0,0.0,60.0,10.0,0.0
22110,57.0,4.0,60.0,11.0,0.0
22111,59.0,0.0,60.0,11.0,0.0
22112,78.0,0.0,60.0,10.0,0.0
22113,69.0,0.0,60.0,10.0,0.0
22114,93.0,0.0,60.0,0.0,0.0
22115,81.0,76.0,60.0,2.0,0.0
22116,78.0,60.0,240.0,2.0,0.0
22117,90.0,0.0,240.0,0.0,0.0
22118,59.0,0.0,60.0,11.0,0.0
22119,57.0,0.0,60.0,11.0,0.0
22120,78.0,0.0,60.0,10.0,0.0
22121,69.0,56.0,60.0,10.0,0.0
22122,59.0,0.0,60.0,11.0,0.0
22123,69.0,0.0,60.0,10.0,0.0
22124,78.0,36.0,60.0,10.0,0.0
22125,57.0,0.0,60.0,11.0,0.0
22126,69.0,44.0,60.0,8.0,0.0
22127,78.0,0.0,60.0,10.0,0.0
22128,69.0,16.0,60.0,10.0,0.0
22129,59.0,0.0,60.0,11.0,0.0
22130,57.0,0.0,60.0,11.0,0.0
22131,69.0,48.0,90.0,2.0,0.0
22132,67.0,4.0,60.0,8.0,0.0
22133,69.0,32.0,60.0,10.0,0.0
22134,78.0,0.0,60.0,10.0,0.0
22135,54.0,32.0,180.0,15.0,0.0
22136,59.0,0.0,60.0,11.0,0.0
22137,57.0,0.0,60.0,11.0,0.0
22138,42.0,0.0,180.0,15.0,0.0
22139,78.0,0.0,60.0,10.0,0.0
22140,69.0,36.0,60.0,10.0,0.0
22141,57.0,0.0,60.0,11.0,0.0
22142,59.0,0.0,60.0,11.0,0.0
22143,66.0,12.0,60.0,8.0,0.0
22144,57.0,0.0,60.0,11.0,0.0
22145,59.0,0.0,60.0,11.0,0.0
22146,69.0,4.0,60.0,10.0,0.0
22147,78.0,0.0,60.0,10.0,0.0
22148,75.0,76.0,60.0,2.0,0.0
22149,87.0,0.0,60.0,0.0,0.0
22150,66.0,64.0,480.0,8.0,0.0
22151,59.0,0.0,60.0,11.0,0.0
22152,57.0,80.0,60.0,11.0,0.0
22153,71.0,64.0,240.0,2.0,0.0
22154,78.0,0.0,60.0,10.0,0.0
22155,69.0,0.0,60.0,10.0,0.0
22156,83.0,0.0,240.0,0.0,0.0
22157,78.0,80.0,60.0,10.0,0.0
22158,69.0,0.0,60.0,10.0,0.0
22159,59.0,0.0,60.0,11.0,0.0
22160,57.0,0.0,60.0,11.0,0.0
22161,69.0,16.0,60.0,10.0,0.0
22162,78.0,0.0,60.0,10.0,0.0
22163,59.0,0.0,60.0,11.0,0.0
22164,57.0,0.0,60.0,11.0,0.0
22165,69.0,32.0,60.0,10.0,0.0
22166,59.0,18.0,180.0,15.0,0.0
22167,78.0,0.0,60.0,10.0,0.0
22168,47.0,0.0,180.0,15.0,0.0
22169,59.0,0.0,60.0,11.0,0.0
22170,57.0,0.0,60.0,11.0,0.0
22171,66.0,48.0,90.0,2.0,0.0
22172,59.0,48.0,60.0,11.0,0.0
22173,57.0,0.0,60.0,11.0,0.0
22174,69.0,0.0,60.0,10.0,0.0
22175,78.0,0.0,60.0,10.0,0.0
22176,78.0,4.0,60.0,10.0,0.0
22177,69.0,0.0,60.0,10.0,0.0
22178,57.0,0.0,60.0,11.0,0.0
22179,59.0,0.0,60.0,11.0,0.0
22180,69.0,12.0,60.0,2.0,0.0
22181,81.0,0.0,60.0,0.0,0.0
22182,64.0,12.0,2340.0,4.0,0.0
22183,68.0,0.0,240.0,2.0,0.0
22184,59.0,0.0,60.0,11.0,0.0
22185,56.0,0.0,60.0,11.0,0.0
22186,80.0,64.0,240.0,0.0,0.0
22187,68.0,0.0,60.0,10.0,0.0
22188,80.0,56.0,60.0,10.0,0.0
22189,68.0,0.0,10020.0,4.0,0.0
22190,62.0,0.0,180.0,15.0,0.0
22191,50.0,32.0,180.0,15.0,0.0
22192,62.0,0.0,10020.0,4.0,0.0
22193,68.0,24.0,120.0,8.0,0.0
22194,59.0,0.0,60.0,11.0,0.0
22195,80.0,0.0,60.0,10.0,0.0
22196,68.0,48.0,60.0,10.0,0.0
22197,56.0,0.0,60.0,11.0,0.0
22198,59.0,0.0,120.0,3.0,0.0
22199,83.0,0.0,120.0,8.0,0.0
22200,56.0,0.0,60.0,11.0,0.0
22201,68.0,0.0,60.0,10.0,0.0
22202,80.0,16.0,60.0,10.0,0.0
22203,59.0,0.0,60.0,11.0,0.0
22204,40.0,0.0,180.0,15.0,0.0
22205,56.0,0.0,60.0,11.0,0.0
22206,59.0,0.0,60.0,11.0,0.0
22207,81.0,30.0,120.0,8.0,0.0
22208,57.0,0.0,120.0,3.0,0.0
22209,52.0,32.0,180.0,15.0,0.0
22210,80.0,14.0,3570.0,1.0,0.0
22211,64.0,18.0,90.0,2.0,0.0
22212,80.0,32.0,60.0,10.0,0.0
22213,68.0,0.0,60.0,10.0,0.0
22214,59.0,0.0,60.0,11.0,0.0
22215,56.0,0.0,60.0,11.0,0.0
22216,71.0,34.0,60.0,10.0,0.0
22217,80.0,14.0,60.0,8.0,0.0
22218,56.0,0.0,60.0,3.0,0.0
22219,56.0,4.0,60.0,11.0,0.0
22220,71.0,0.0,60.0,10.0,0.0
22221,59.0,0.0,60.0,11.0,0.0
22222,88.0,76.0,60.0,8.0,0.0
22223,64.0,0.0,60.0,3.0,0.0
22224,62.0,0.0,240.0,3.0,0.0
22225,74.0,0.0,60.0,10.0,0.0
22226,86.0,64.0,240.0,8.0,0.0
22227,59.0,80.0,60.0,11.0,0.0
22228,56.0,0.0,60.0,11.0,0.0
22229,71.0,0.0,60.0,10.0,0.0
22230,71.0,0.0,60.0,10.0,0.0
22231,74.0,80.0,60.0,10.0,0.0
22232,56.0,0.0,60.0,11.0,0.0
22233,59.0,0.0,60.0,11.0,0.0
22234,56.0,0.0,60.0,11.0,0.0
22235,59.0,0.0,60.0,11.0,0.0
22236,74.0,16.0,60.0,10.0,0.0
22237,71.0,0.0,60.0,10.0,0.0
22238,74.0,32.0,60.0,10.0,0.0
22239,71.0,0.0,60.0,10.0,0.0
22240,68.0,48.0,90.0,2.0,0.0
22241,40.0,32.0,180.0,15.0,0.0
22242,56.0,0.0,60.0,11.0,0.0
22243,52.0,0.0,180.0,15.0,0.0
22244,56.0,0.0,90.0,2.0,0.0
22245,59.0,0.0,60.0,11.0,0.0
22246,56.0,0.0,60.0,11.0,0.0
22247,59.0,48.0,60.0,11.0,0.0
22248,74.0,0.0,60.0,10.0,0.0
22249,71.0,0.0,60.0,10.0,0.0
22250,71.0,0.0,60.0,10.0,0.0
22251,56.0,4.0,60.0,11.0,0.0
22252,74.0,0.0,60.0,10.0,0.0
22253,59.0,0.0,60.0,11.0,0.0
22254,83.0,76.0,60.0,8.0,0.0
22255,59.0,0.0,60.0,3.0,0.0
22256,74.0,0.0,60.0,10.0,0.0
22257,56.0,0.0,240.0,3.0,0.0
22258,80.0,64.0,240.0,8.0,0.0
22259,71.0,0.0,60.0,10.0,0.0
22260,59.0,0.0,60.0,11.0,0.0
22261,56.0,80.0,60.0,11.0,0.0
22262,59.0,0.0,60.0,11.0,0.0
22263,56.0,0.0,60.0,11.0,0.0
22264,71.0,80.0,60.0,10.0,0.0
22265,74.0,0.0,60.0,10.0,0.0
22266,71.0,16.0,60.0,10.0,0.0
22267,56.0,0.0,60.0,11.0,0.0
22268,74.0,0.0,60.0,10.0,0.0
22269,59.0,0.0,60.0,11.0,0.0
22270,71.0,0.0,90.0,2.0,0.0
22271,59.0,48.0,90.0,2.0,0.0
22272,56.0,32.0,60.0,11.0,0.0
22273,44.0,0.0,180.0,15.0,0.0
22274,56.0,32.0,180.0,15.0,0.0
22275,71.0,0.0,60.0,10.0,0.0
22276,74.0,0.0,60.0,10.0,0.0
22277,59.0,0.0,60.0,11.0,0.0
22278,59.0,0.0,60.0,11.0,0.0
22279,74.0,48.0,60.0,10.0,0.0
22280,56.0,0.0,60.0,11.0,0.0
22281,71.0,0.0,60.0,10.0,0.0
22282,59.0,0.0,60.0,11.0,0.0
22283,56.0,0.0,60.0,11.0,0.0
22284,74.0,4.0,60.0,10.0,0.0
22285,71.0,0.0,60.0,10.0,0.0
22286,76.0,76.0,60.0,8.0,0.0
22287,52.0,0.0,60.0,3.0,0.0
22288,50.0,0.0,240.0,3.0,0.0
22289,71.0,0.0,60.0,10.0,0.0
22290,59.0,0.0,60.0,11.0,0.0
22291,56.0,0.0,60.0,11.0,0.0
22292,74.0,64.0,240.0,8.0,0.0
22293,74.0,80.0,60.0,10.0,0.0
22294,59.0,0.0,60.0,11.0,0.0
22295,56.0,0.0,60.0,11.0,0.0
22296,74.0,0.0,60.0,10.0,0.0
22297,71.0,80.0,60.0,10.0,0.0
22298,71.0,0.0,60.0,10.0,0.0
22299,74.0,0.0,60.0,10.0,0.0
22300,56.0,0.0,60.0,11.0,0.0
22301,59.0,16.0,60.0,11.0,0.0
22302,74.0,0.0,60.0,10.0,0.0
22303,71.0,0.0,60.0,10.0,0.0
22304,59.0,32.0,60.0,11.0,0.0
22305,56.0,0.0,60.0,11.0,0.0
22306,59.0,0.0,180.0,15.0,0.0
22307,62.0,48.0,90.0,2.0,0.0
22308,74.0,0.0,90.0,2.0,0.0
22309,47.0,32.0,180.0,15.0,0.0
22310,71.0,0.0,60.0,10.0,0.0
22311,74.0,0.0,60.0,10.0,0.0
22312,56.0,48.0,60.0,11.0,0.0
22313,59.0,0.0,60.0,11.0,0.0
22314,59.0,0.0,60.0,11.0,0.0
22315,56.0,0.0,60.0,11.0,0.0
22316,74.0,4.0,60.0,10.0,0.0
22317,71.0,0.0,60.0,10.0,0.0
22318,47.0,76.0,60.0,3.0,0.0
22319,71.0,0.0,60.0,8.0,0.0
22320,56.0,0.0,60.0,11.0,0.0
22321,59.0,0.0,60.0,11.0,0.0
22322,71.0,0.0,60.0,10.0,0.0
22323,74.0,80.0,60.0,10.0,0.0
22324,68.0,0.0,240.0,8.0,0.0
22325,44.0,0.0,240.0,3.0,0.0
22326,56.0,0.0,60.0,11.0,0.0
22327,59.0,0.0,60.0,11.0,0.0
22328,71.0,0.0,60.0,10.0,0.0
22329,74.0,80.0,60.0,10.0,0.0
22330,81.0,64.0,120.0,2.0,0.0
22331,71.0,0.0,60.0,10.0,0.0
22332,74.0,0.0,60.0,10.0,0.0
22333,56.0,0.0,60.0,11.0,0.0
22334,59.0,16.0,60.0,11.0,0.0
22335,74.0,0.0,60.0,10.0,0.0
22336,71.0,0.0,60.0,10.0,0.0
22337,80.0,24.0,120.0,2.0,0.0
22338,59.0,0.0,60.0,11.0,0.0
22339,56.0,32.0,60.0,11.0,0.0
22340,62.0,0.0,180.0,15.0,0.0
22341,50.0,32.0,180.0,15.0,0.0
22342,71.0,24.0,90.0,2.0,0.0
22343,71.0,0.0,60.0,10.0,0.0
22344,59.0,0.0,60.0,11.0,0.0
22345,56.0,36.0,60.0,11.0,0.0
22346,74.0,0.0,60.0,10.0,0.0
22347,74.0,0.0,60.0,10.0,0.0
22348,71.0,4.0,60.0,10.0,0.0
22349,59.0,0.0,60.0,11.0,0.0
22350,56.0,0.0,60.0,11.0,0.0
22351,88.0,12.0,60.0,0.0,0.0
22352,88.0,64.0,60.0,2.0,0.0
22353,74.0,0.0,60.0,10.0,0.0
22354,71.0,0.0,60.0,10.0,0.0
22355,68.0,24.0,600.0,8.0,0.0
22356,86.0,0.0,240.0,0.0,0.0
22357,86.0,64.0,240.0,2.0,0.0
22358,59.0,0.0,60.0,11.0,0.0
22359,65.0,0.0,7620.0,4.0,0.0
22360,56.0,80.0,60.0,11.0,0.0
22361,59.0,0.0,60.0,11.0,0.0
22362,71.0,0.0,60.0,10.0,0.0
22363,56.0,0.0,60.0,11.0,0.0
22364,74.0,80.0,60.0,10.0,0.0
22365,74.0,0.0,60.0,10.0,0.0
22366,56.0,0.0,60.0,11.0,0.0
22367,71.0,16.0,60.0,10.0,0.0
22368,59.0,0.0,60.0,11.0,0.0
22369,71.0,32.0,60.0,10.0,0.0
22370,74.0,0.0,60.0,10.0,0.0
22371,68.0,48.0,90.0,2.0,0.0
22372,56.0,0.0,60.0,11.0,0.0
22373,59.0,0.0,60.0,11.0,0.0
22374,53.0,32.0,180.0,15.0,0.0
22375,41.0,0.0,180.0,15.0,0.0
22376,74.0,48.0,60.0,10.0,0.0
22377,56.0,0.0,60.0,11.0,0.0
22378,71.0,0.0,60.0,10.0,0.0
22379,59.0,0.0,60.0,11.0,0.0
22380,56.0,0.0,60.0,11.0,0.0
22381,59.0,0.0,60.0,11.0,0.0
22382,74.0,4.0,60.0,10.0,0.0
22383,71.0,0.0,60.0,10.0,0.0
22384,83.0,76.0,60.0,2.0,0.0
22385,95.0,0.0,60.0,0.0,0.0
22386,71.0,0.0,60.0,10.0,0.0
22387,74.0,0.0,60.0,10.0,0.0
22388,80.0,60.0,240.0,2.0,0.0
22389,56.0,0.0,60.0,11.0,0.0
22390,59.0,56.0,60.0,11.0,0.0
22391,92.0,0.0,240.0,0.0,0.0
22392,56.0,0.0,60.0,11.0,0.0
22393,74.0,0.0,60.0,10.0,0.0
22394,59.0,36.0,60.0,11.0,0.0
22395,71.0,0.0,60.0,10.0,0.0
22396,71.0,44.0,60.0,8.0,0.0
22397,71.0,0.0,60.0,10.0,0.0
22398,59.0,0.0,60.0,11.0,0.0
22399,56.0,16.0,60.0,11.0,0.0
22400,74.0,0.0,60.0,10.0,0.0
22401,69.0,4.0,60.0,8.0,0.0
22402,56.0,0.0,60.0,11.0,0.0
22403,59.0,0.0,60.0,11.0,0.0
22404,71.0,32.0,60.0,10.0,0.0
22405,56.0,32.0,180.0,15.0,0.0
22406,44.0,0.0,180.0,15.0,0.0
22407,74.0,0.0,60.0,10.0,0.0
22408,71.0,48.0,90.0,2.0,0.0
22409,74.0,0.0,60.0,10.0,0.0
22410,71.0,0.0,60.0,10.0,0.0
22411,59.0,0.0,60.0,11.0,0.0
22412,56.0,36.0,60.0,11.0,0.0
22413,68.0,12.0,60.0,8.0,0.0
22414,71.0,0.0,60.0,10.0,0.0
22415,74.0,0.0,60.0,10.0,0.0
22416,56.0,0.0,60.0,11.0,0.0
22417,59.0,4.0,60.0,11.0,0.0
22418,77.0,76.0,60.0,2.0,0.0
22419,89.0,0.0,60.0,0.0,0.0
22420,74.0,64.0,240.0,2.0,0.0
22421,86.0,0.0,240.0,0.0,0.0
22422,74.0,0.0,60.0,10.0,0.0
22423,68.0,24.0,600.0,8.0,0.0
22424,59.0,80.0,60.0,11.0,0.0
22425,56.0,0.0,60.0,11.0,0.0
22426,71.0,0.0,60.0,10.0,0.0
22427,59.0,0.0,60.0,11.0,0.0
22428,74.0,0.0,60.0,10.0,0.0
22429,71.0,80.0,60.0,10.0,0.0
22430,56.0,0.0,60.0,11.0,0.0
22431,71.0,16.0,60.0,10.0,0.0
22432,59.0,0.0,60.0,11.0,0.0
22433,56.0,0.0,60.0,11.0,0.0
22434,74.0,0.0,60.0,10.0,0.0
22435,71.0,0.0,60.0,10.0,0.0
22436,74.0,32.0,60.0,10.0,0.0
22437,59.0,0.0,180.0,15.0,0.0
22438,59.0,0.0,60.0,11.0,0.0
22439,56.0,0.0,60.0,11.0,0.0
22440,47.0,18.0,180.0,15.0,0.0
22441,68.0,48.0,90.0,2.0,0.0
22442,71.0,0.0,60.0,10.0,0.0
22443,56.0,48.0,60.0,11.0,0.0
22444,59.0,0.0,60.0,11.0,0.0
22445,74.0,0.0,60.0,10.0,0.0
22446,71.0,4.0,60.0,10.0,0.0
22447,74.0,0.0,60.0,10.0,0.0
22448,59.0,0.0,60.0,11.0,0.0
22449,56.0,0.0,60.0,11.0,0.0
22450,83.0,76.0,60.0,0.0,0.0
22451,71.0,0.0,60.0,2.0,0.0
22452,71.0,0.0,60.0,10.0,0.0
22453,74.0,0.0,60.0,10.0,0.0
22454,68.0,64.0,240.0,2.0,0.0
22455,80.0,0.0,240.0,0.0,0.0
22456,77.0,12.0,6180.0,1.0,0.0
22457,59.0,56.0,60.0,11.0,0.0
22458,56.0,0.0,60.0,11.0,0.0
22459,71.0,0.0,60.0,10.0,0.0
22460,74.0,0.0,60.0,10.0,0.0
22461,56.0,80.0,60.0,11.0,0.0
22462,59.0,0.0,60.0,11.0,0.0
22463,59.0,0.0,120.0,3.0,0.0
22464,83.0,0.0,120.0,8.0,0.0
22465,56.0,0.0,60.0,11.0,0.0
22466,59.0,0.0,60.0,11.0,0.0
22467,71.0,0.0,60.0,10.0,0.0
22468,74.0,16.0,60.0,10.0,0.0
22469,81.0,30.0,120.0,8.0,0.0
22470,59.0,0.0,60.0,11.0,0.0
22471,62.0,0.0,180.0,15.0,0.0
22472,74.0,0.0,60.0,10.0,0.0
22473,50.0,32.0,180.0,15.0,0.0
22474,57.0,0.0,120.0,3.0,0.0
22475,71.0,18.0,90.0,2.0,0.0
22476,71.0,32.0,60.0,10.0,0.0
22477,56.0,0.0,60.0,11.0,0.0
22478,71.0,0.0,60.0,10.0,0.0
22479,59.0,48.0,60.0,11.0,0.0
22480,74.0,0.0,60.0,10.0,0.0
22481,56.0,0.0,60.0,11.0,0.0
22482,74.0,0.0,60.0,10.0,0.0
22483,71.0,4.0,60.0,10.0,0.0
22484,56.0,0.0,60.0,11.0,0.0
22485,59.0,0.0,60.0,11.0,0.0
22486,80.0,76.0,60.0,8.0,0.0
22487,56.0,0.0,60.0,3.0,0.0
22488,59.0,0.0,60.0,11.0,0.0
22489,53.0,64.0,240.0,3.0,0.0
22490,56.0,0.0,60.0,11.0,0.0
22491,71.0,80.0,60.0,10.0,0.0
22492,74.0,0.0,60.0,10.0,0.0
22493,77.0,0.0,240.0,8.0,0.0
22494,74.0,0.0,60.0,10.0,0.0
22495,56.0,0.0,60.0,11.0,0.0
22496,59.0,0.0,60.0,11.0,0.0
22497,71.0,80.0,60.0,10.0,0.0
22498,74.0,0.0,60.0,10.0,0.0
22499,71.0,0.0,60.0,10.0,0.0
22500,59.0,0.0,60.0,11.0,0.0
22501,56.0,16.0,60.0,11.0,0.0
22502,56.0,0.0,60.0,11.0,0.0
22503,56.0,18.0,180.0,15.0,0.0
22504,44.0,0.0,180.0,15.0,0.0
22505,59.0,0.0,60.0,11.0,0.0
22506,71.0,32.0,60.0,10.0,0.0
22507,74.0,0.0,60.0,10.0,0.0
22508,59.0,48.0,90.0,2.0,0.0
22509,71.0,0.0,60.0,10.0,0.0
22510,74.0,48.0,60.0,10.0,0.0
22511,59.0,0.0,60.0,11.0,0.0
22512,56.0,0.0,60.0,11.0,0.0
22513,59.0,0.0,60.0,11.0,0.0
22514,74.0,0.0,60.0,10.0,0.0
22515,56.0,4.0,60.0,11.0,0.0
22516,71.0,0.0,60.0,10.0,0.0
22517,50.0,76.0,60.0,3.0,0.0
22518,74.0,0.0,60.0,8.0,0.0
22519,80.0,0.0,5220.0,1.0,0.0
22520,71.0,80.0,60.0,10.0,0.0
22521,74.0,0.0,60.0,10.0,0.0
22522,71.0,0.0,240.0,8.0,0.0
22523,59.0,0.0,60.0,11.0,0.0
22524,56.0,0.0,60.0,11.0,0.0
22525,47.0,0.0,240.0,3.0,0.0
22526,71.0,0.0,60.0,10.0,0.0
22527,74.0,0.0,60.0,10.0,0.0
22528,56.0,80.0,60.0,11.0,0.0
22529,59.0,0.0,60.0,11.0,0.0
22530,95.0,0.0,120.0,0.0,0.0
22531,83.0,64.0,120.0,2.0,0.0
22532,71.0,0.0,60.0,10.0,0.0
22533,59.0,0.0,60.0,11.0,0.0
22534,74.0,16.0,60.0,10.0,0.0
22535,56.0,0.0,60.0,11.0,0.0
22536,74.0,32.0,60.0,10.0,0.0
22537,71.0,0.0,60.0,10.0,0.0
22538,93.0,0.0,120.0,0.0,0.0
22539,59.0,0.0,180.0,15.0,0.0
22540,47.0,32.0,180.0,15.0,0.0
22541,81.0,30.0,120.0,2.0,0.0
22542,62.0,18.0,90.0,2.0,0.0
22543,59.0,0.0,60.0,11.0,0.0
22544,56.0,0.0,60.0,11.0,0.0
22545,56.0,0.0,60.0,11.0,0.0
22546,59.0,0.0,60.0,11.0,0.0
22547,74.0,48.0,60.0,10.0,0.0
22548,71.0,0.0,60.0,10.0,0.0
22549,71.0,0.0,60.0,10.0,0.0
22550,59.0,4.0,60.0,11.0,0.0
22551,56.0,0.0,60.0,11.0,0.0
22552,74.0,0.0,60.0,10.0,0.0
22553,92.0,76.0,60.0,0.0,0.0
22554,80.0,0.0,60.0,2.0,0.0
22555,77.0,64.0,240.0,2.0,0.0
22556,71.0,0.0,60.0,10.0,0.0
22557,56.0,0.0,60.0,11.0,0.0
22558,59.0,0.0,60.0,11.0,0.0
22559,89.0,0.0,240.0,0.0,0.0
22560,74.0,80.0,60.0,10.0,0.0
22561,71.0,0.0,60.0,10.0,0.0
22562,56.0,0.0,60.0,11.0,0.0
22563,59.0,80.0,60.0,11.0,0.0
22564,74.0,0.0,60.0,10.0,0.0
22565,74.0,0.0,60.0,10.0,0.0
22566,71.0,16.0,60.0,10.0,0.0
22567,59.0,0.0,60.0,11.0,0.0
22568,56.0,0.0,60.0,11.0,0.0
22569,71.0,0.0,60.0,10.0,0.0
22570,74.0,0.0,60.0,10.0,0.0
22571,56.0,32.0,60.0,11.0,0.0
22572,59.0,0.0,60.0,11.0,0.0
22573,62.0,32.0,180.0,15.0,0.0
22574,65.0,48.0,90.0,2.0,0.0
22575,50.0,0.0,180.0,15.0,0.0
22576,56.0,0.0,60.0,11.0,0.0
22577,74.0,0.0,60.0,10.0,0.0
22578,71.0,0.0,60.0,10.0,0.0
22579,59.0,48.0,60.0,11.0,0.0
22580,71.0,4.0,60.0,10.0,0.0
22581,59.0,0.0,60.0,11.0,0.0
22582,74.0,0.0,60.0,10.0,0.0
22583,56.0,0.0,60.0,11.0,0.0
22584,86.0,76.0,60.0,0.0,0.0
22585,74.0,0.0,60.0,2.0,0.0
22586,71.0,64.0,240.0,2.0,0.0
22587,71.0,0.0,60.0,10.0,0.0
22588,74.0,80.0,60.0,10.0,0.0
22589,83.0,0.0,240.0,0.0,0.0
22590,56.0,0.0,60.0,11.0,0.0
22591,59.0,0.0,60.0,11.0,0.0
22592,74.0,0.0,60.0,10.0,0.0
22593,71.0,80.0,60.0,10.0,0.0
22594,59.0,0.0,60.0,11.0,0.0
22595,56.0,0.0,60.0,11.0,0.0
22596,86.0,0.0,120.0,8.0,0.0
22597,62.0,0.0,120.0,3.0,0.0
22598,59.0,16.0,60.0,11.0,0.0
22599,56.0,0.0,60.0,11.0,0.0
22600,74.0,0.0,60.0,10.0,0.0
22601,71.0,0.0,60.0,10.0,0.0
22602,85.0,0.0,120.0,8.0,0.0
22603,71.0,0.0,60.0,10.0,0.0
22604,74.0,0.0,60.0,10.0,0.0
22605,53.0,32.0,180.0,15.0,0.0
22606,59.0,32.0,60.0,11.0,0.0
22607,56.0,0.0,60.0,11.0,0.0
22608,68.0,18.0,90.0,2.0,0.0
22609,65.0,0.0,180.0,15.0,0.0
22610,61.0,30.0,120.0,3.0,0.0
22611,71.0,0.0,60.0,10.0,0.0
22612,74.0,0.0,60.0,10.0,0.0
22613,59.0,0.0,60.0,11.0,0.0
22614,56.0,48.0,60.0,11.0,0.0
22615,56.0,0.0,60.0,11.0,0.0
22616,59.0,0.0,60.0,11.0,0.0
22617,71.0,4.0,60.0,10.0,0.0
22618,74.0,0.0,60.0,10.0,0.0
22619,83.0,76.0,60.0,8.0,0.0
22620,59.0,0.0,60.0,3.0,0.0
22621,59.0,80.0,60.0,11.0,0.0
22622,59.0,64.0,240.0,3.0,0.0
22623,71.0,0.0,60.0,10.0,0.0
22624,56.0,0.0,60.0,11.0,0.0
22625,83.0,0.0,240.0,8.0,0.0
22626,74.0,0.0,60.0,10.0,0.0
22627,71.0,0.0,60.0,10.0,0.0
22628,74.0,0.0,60.0,10.0,0.0
22629,59.0,0.0,60.0,11.0,0.0
22630,56.0,80.0,60.0,11.0,0.0
22631,71.0,16.0,60.0,10.0,0.0
22632,56.0,0.0,60.0,11.0,0.0
22633,59.0,0.0,60.0,11.0,0.0
22634,74.0,0.0,60.0,10.0,0.0
22635,71.0,32.0,60.0,10.0,0.0
22636,74.0,0.0,60.0,10.0,0.0
22637,47.0,0.0,180.0,15.0,0.0
22638,59.0,32.0,180.0,15.0,0.0
22639,56.0,0.0,60.0,11.0,0.0
22640,62.0,48.0,90.0,2.0,0.0
22641,59.0,0.0,60.0,11.0,0.0
22642,71.0,48.0,60.0,10.0,0.0
22643,56.0,0.0,60.0,11.0,0.0
22644,74.0,0.0,60.0,10.0,0.0
22645,59.0,0.0,60.0,11.0,0.0
22646,59.0,0.0,60.0,11.0,0.0
22647,71.0,0.0,60.0,10.0,0.0
22648,74.0,4.0,60.0,10.0,0.0
22649,56.0,0.0,60.0,11.0,0.0
22650,56.0,0.0,60.0,3.0,0.0
22651,80.0,76.0,60.0,8.0,0.0
22652,53.0,0.0,240.0,3.0,0.0
22653,56.0,0.0,60.0,11.0,0.0
22654,59.0,0.0,60.0,11.0,0.0
22655,77.0,0.0,240.0,8.0,0.0
22656,74.0,0.0,60.0,10.0,0.0
22657,71.0,80.0,60.0,10.0,0.0
22658,59.0,0.0,60.0,11.0,0.0
22659,71.0,0.0,60.0,10.0,0.0
22660,74.0,0.0,60.0,10.0,0.0
22661,56.0,80.0,60.0,11.0,0.0
22662,92.0,64.0,120.0,0.0,0.0
22663,80.0,0.0,120.0,2.0,0.0
22664,71.0,0.0,60.0,10.0,0.0
22665,74.0,0.0,60.0,10.0,0.0
22666,56.0,16.0,60.0,11.0,0.0
22667,59.0,0.0,60.0,11.0,0.0
22668,78.0,30.0,120.0,2.0,0.0
22669,65.0,18.0,90.0,2.0,0.0
22670,56.0,0.0,60.0,11.0,0.0
22671,59.0,0.0,60.0,11.0,0.0
22672,50.0,32.0,180.0,15.0,0.0
22673,62.0,0.0,180.0,15.0,0.0
22674,90.0,0.0,120.0,0.0,0.0
22675,71.0,32.0,60.0,10.0,0.0
22676,74.0,0.0,60.0,10.0,0.0
22677,59.0,0.0,60.0,11.0,0.0
22678,71.0,48.0,60.0,10.0,0.0
22679,74.0,0.0,60.0,10.0,0.0
22680,56.0,0.0,60.0,11.0,0.0
22681,59.0,0.0,60.0,11.0,0.0
22682,56.0,0.0,60.0,11.0,0.0
22683,74.0,4.0,60.0,10.0,0.0
22684,71.0,0.0,60.0,10.0,0.0
22685,89.0,76.0,60.0,0.0,0.0
22686,77.0,0.0,60.0,2.0,0.0
22687,74.0,0.0,240.0,2.0,0.0
22688,71.0,80.0,60.0,10.0,0.0
22689,74.0,0.0,60.0,10.0,0.0
22690,89.0,64.0,240.0,0.0,0.0
22691,56.0,0.0,60.0,11.0,0.0
22692,59.0,0.0,60.0,11.0,0.0
22693,56.0,0.0,60.0,11.0,0.0
22694,59.0,0.0,60.0,11.0,0.0
22695,74.0,0.0,60.0,10.0,0.0
22696,71.0,80.0,60.0,10.0,0.0
22697,71.0,0.0,60.0,10.0,0.0
22698,56.0,0.0,60.0,11.0,0.0
22699,74.0,0.0,60.0,10.0,0.0
22700,59.0,16.0,60.0,11.0,0.0
22701,56.0,0.0,60.0,11.0,0.0
22702,59.0,0.0,60.0,11.0,0.0
22703,53.0,32.0,180.0,15.0,0.0
22704,68.0,48.0,90.0,2.0,0.0
22705,65.0,0.0,180.0,15.0,0.0
22706,74.0,0.0,60.0,10.0,0.0
22707,71.0,32.0,60.0,10.0,0.0
22708,59.0,0.0,60.0,11.0,0.0
22709,56.0,48.0,60.0,11.0,0.0
22710,71.0,0.0,60.0,10.0,0.0
22711,74.0,0.0,60.0,10.0,0.0
22712,71.0,0.0,60.0,10.0,0.0
22713,74.0,4.0,60.0,10.0,0.0
22714,59.0,0.0,60.0,11.0,0.0
22715,56.0,0.0,60.0,11.0,0.0
22716,86.0,76.0,60.0,0.0,0.0
22717,71.0,0.0,60.0,2.0,0.0
22718,56.0,0.0,60.0,11.0,0.0
22719,68.0,64.0,240.0,2.0,0.0
22720,83.0,0.0,240.0,0.0,0.0
22721,71.0,0.0,60.0,10.0,0.0
22722,74.0,0.0,60.0,10.0,0.0
22723,59.0,80.0,60.0,11.0,0.0
22724,56.0,0.0,60.0,11.0,0.0
22725,59.0,80.0,60.0,11.0,0.0
22726,74.0,0.0,60.0,10.0,0.0
22727,71.0,0.0,60.0,10.0,0.0
22728,62.0,0.0,120.0,3.0,0.0
22729,86.0,0.0,120.0,8.0,0.0
22730,56.0,16.0,60.0,11.0,0.0
22731,74.0,0.0,60.0,10.0,0.0
22732,71.0,0.0,60.0,10.0,0.0
22733,59.0,0.0,60.0,11.0,0.0
22734,71.0,0.0,60.0,10.0,0.0
22735,61.0,30.0,120.0,3.0,0.0
22736,74.0,32.0,60.0,10.0,0.0
22737,85.0,0.0,120.0,8.0,0.0
22738,71.0,18.0,90.0,2.0,0.0
22739,56.0,0.0,60.0,11.0,0.0
22740,68.0,0.0,180.0,15.0,0.0
22741,56.0,32.0,180.0,15.0,0.0
22742,59.0,0.0,60.0,11.0,0.0
22743,74.0,0.0,60.0,10.0,0.0
22744,71.0,0.0,60.0,10.0,0.0
22745,56.0,0.0,60.0,11.0,0.0
22746,59.0,48.0,60.0,11.0,0.0
22747,71.0,0.0,60.0,10.0,0.0
22748,56.0,0.0,60.0,11.0,0.0
22749,59.0,4.0,60.0,11.0,0.0
22750,74.0,0.0,60.0,10.0,0.0
22751,59.0,76.0,60.0,3.0,0.0
22752,83.0,0.0,60.0,8.0,0.0
22753,83.0,0.0,240.0,8.0,0.0
22754,59.0,0.0,60.0,11.0,0.0
22755,56.0,0.0,60.0,11.0,0.0
22756,59.0,64.0,240.0,3.0,0.0
22757,74.0,80.0,60.0,10.0,0.0
22758,71.0,0.0,60.0,10.0,0.0
22759,74.0,80.0,60.0,10.0,0.0
22760,71.0,0.0,60.0,10.0,0.0
22761,59.0,0.0,60.0,11.0,0.0
22762,56.0,0.0,60.0,11.0,0.0
22763,56.0,0.0,60.0,11.0,0.0
22764,59.0,0.0,60.0,11.0,0.0
22765,74.0,0.0,60.0,10.0,0.0
22766,71.0,16.0,60.0,10.0,0.0
22767,50.0,0.0,180.0,15.0,0.0
22768,68.0,0.0,60.0,11.0,0.0
22769,65.0,0.0,60.0,11.0,0.0
22770,62.0,32.0,180.0,15.0,0.0
22771,71.0,0.0,60.0,10.0,0.0
22772,74.0,32.0,60.0,10.0,0.0
22773,77.0,0.0,90.0,2.0,0.0
22774,65.0,48.0,90.0,2.0,0.0
22775,71.0,0.0,60.0,10.0,0.0
22776,65.0,48.0,60.0,11.0,0.0
22777,68.0,0.0,60.0,11.0,0.0
22778,74.0,0.0,60.0,10.0,0.0
22779,74.0,0.0,60.0,10.0,0.0
22780,65.0,0.0,60.0,11.0,0.0
22781,71.0,0.0,60.0,10.0,0.0
22782,68.0,4.0,60.0,11.0,0.0
22783,56.0,76.0,60.0,3.0,0.0
22784,80.0,0.0,60.0,8.0,0.0
22785,68.0,80.0,60.0,11.0,0.0
22786,65.0,0.0,60.0,11.0,0.0
22787,77.0,64.0,240.0,8.0,0.0
22788,74.0,0.0,60.0,10.0,0.0
22789,53.0,0.0,240.0,3.0,0.0
22790,71.0,0.0,60.0,10.0,0.0
22791,65.0,0.0,60.0,11.0,0.0
22792,71.0,0.0,60.0,10.0,0.0
22793,74.0,0.0,60.0,10.0,0.0
22794,68.0,80.0,60.0,11.0,0.0
22795,74.0,0.0,120.0,2.0,0.0
22796,86.0,0.0,120.0,0.0,0.0
22797,65.0,0.0,60.0,11.0,0.0
22798,68.0,0.0,60.0,11.0,0.0
22799,74.0,16.0,60.0,10.0,0.0
22800,71.0,0.0,60.0,10.0,0.0
22801,71.0,0.0,60.0,10.0,0.0
22802,53.0,0.0,180.0,15.0,0.0
22803,65.0,32.0,180.0,15.0,0.0
22804,74.0,32.0,60.0,10.0,0.0
22805,85.0,30.0,120.0,0.0,0.0
22806,68.0,0.0,90.0,2.0,0.0
22807,80.0,18.0,90.0,2.0,0.0
22808,65.0,0.0,60.0,11.0,0.0
22809,68.0,0.0,60.0,11.0,0.0
22810,73.0,0.0,120.0,2.0,0.0
22811,74.0,0.0,60.0,10.0,0.0
22812,71.0,48.0,60.0,10.0,0.0
22813,68.0,0.0,60.0,11.0,0.0
22814,65.0,0.0,60.0,11.0,0.0
22815,65.0,0.0,60.0,11.0,0.0
22816,74.0,0.0,60.0,10.0,0.0
22817,71.0,4.0,60.0,10.0,0.0
22818,68.0,0.0,60.0,11.0,0.0
22819,83.0,70.0,60.0,2.0,0.0
22820,95.0,0.0,60.0,0.0,0.0
22821,95.0,58.0,240.0,0.0,0.0
22822,74.0,0.0,60.0,10.0,0.0
22823,71.0,60.0,60.0,10.0,0.0
22824,83.0,0.0,240.0,2.0,0.0
22825,65.0,0.0,60.0,11.0,0.0
22826,68.0,0.0,60.0,11.0,0.0
22827,68.0,0.0,60.0,10.0,0.0
22828,77.0,0.0,60.0,10.0,0.0
22829,71.0,0.0,60.0,11.0,0.0
22830,74.0,60.0,60.0,11.0,0.0
22831,68.0,60.0,60.0,10.0,0.0
22832,77.0,0.0,60.0,10.0,0.0
22833,71.0,0.0,60.0,11.0,0.0
22834,74.0,0.0,60.0,11.0,0.0
22835,71.0,0.0,60.0,11.0,0.0
22836,68.0,2.0,60.0,10.0,0.0
22837,74.0,0.0,60.0,11.0,0.0
22838,77.0,0.0,60.0,10.0,0.0
22839,68.0,38.0,60.0,10.0,0.0
22840,77.0,0.0,60.0,10.0,0.0
22841,68.0,36.0,180.0,15.0,0.0
22842,83.0,0.0,90.0,2.0,0.0
22843,71.0,22.0,90.0,2.0,0.0
22844,56.0,0.0,180.0,15.0,0.0
22845,74.0,0.0,60.0,11.0,0.0
22846,71.0,0.0,60.0,11.0,0.0
22847,68.0,0.0,60.0,10.0,0.0
22848,77.0,0.0,60.0,10.0,0.0
22849,74.0,60.0,60.0,11.0,0.0
22850,71.0,0.0,60.0,11.0,0.0
22851,74.0,0.0,60.0,11.0,0.0
22852,77.0,0.0,60.0,10.0,0.0
22853,71.0,14.0,60.0,11.0,0.0
22854,68.0,0.0,60.0,10.0,0.0
22855,68.0,0.0,60.0,10.0,0.0
22856,77.0,0.0,60.0,10.0,0.0
22857,92.0,0.0,60.0,0.0,0.0
22858,80.0,10.0,60.0,2.0,0.0
22859,71.0,60.0,60.0,11.0,0.0
22860,74.0,0.0,60.0,11.0,0.0
22861,89.0,0.0,240.0,0.0,0.0
22862,74.0,0.0,60.0,11.0,0.0
22863,71.0,0.0,60.0,11.0,0.0
22864,68.0,56.0,60.0,10.0,0.0
22865,77.0,0.0,60.0,10.0,0.0
22866,77.0,4.0,120.0,2.0,0.0
22867,71.0,0.0,60.0,11.0,0.0
22868,74.0,0.0,60.0,11.0,0.0
22869,77.0,60.0,60.0,10.0,0.0
22870,80.0,0.0,60.0,10.0,0.0
22871,74.0,0.0,60.0,11.0,0.0
22872,71.0,60.0,60.0,11.0,0.0
22873,86.0,0.0,120.0,8.0,0.0
22874,86.0,0.0,120.0,2.0,0.0
22875,74.0,0.0,120.0,2.0,0.0
22876,77.0,0.0,60.0,10.0,0.0
22877,80.0,0.0,60.0,10.0,0.0
22878,62.0,58.0,120.0,3.0,0.0
22879,71.0,0.0,60.0,11.0,0.0
22880,74.0,2.0,60.0,11.0,0.0
22881,77.0,0.0,60.0,10.0,0.0
22882,80.0,0.0,60.0,10.0,0.0
22883,85.0,0.0,60.0,2.0,0.0
22884,61.0,46.0,60.0,3.0,0.0
22885,73.0,0.0,60.0,2.0,0.0
22886,59.0,36.0,180.0,15.0,0.0
22887,71.0,0.0,180.0,15.0,0.0
22888,85.0,0.0,60.0,8.0,0.0
22889,74.0,0.0,60.0,11.0,0.0
22890,80.0,0.0,60.0,10.0,0.0
22891,77.0,14.0,60.0,10.0,0.0
22892,71.0,0.0,60.0,11.0,0.0
22893,74.0,0.0,60.0,11.0,0.0
22894,71.0,0.0,60.0,11.0,0.0
22895,80.0,60.0,60.0,10.0,0.0
22896,77.0,0.0,60.0,10.0,0.0
22897,80.0,0.0,60.0,10.0,0.0
22898,77.0,0.0,60.0,10.0,0.0
22899,74.0,2.0,60.0,11.0,0.0
22900,71.0,0.0,60.0,11.0,0.0
22901,71.0,2.0,60.0,11.0,0.0
22902,74.0,0.0,60.0,11.0,0.0
22903,86.0,10.0,60.0,8.0,0.0
22904,74.0,0.0,60.0,2.0,0.0
22905,62.0,0.0,60.0,3.0,0.0
22906,80.0,0.0,60.0,10.0,0.0
22907,77.0,0.0,60.0,10.0,0.0
22908,86.0,48.0,60.0,2.0,0.0
22909,97.0,0.0,720.0,0.0,0.0
22910,61.0,0.0,1080.0,5.0,0.0
22911,61.0,48.0,720.0,3.0,0.0
22912,61.0,0.0,570.0,4.0,0.0
22913,73.0,12.0,570.0,4.0,0.0
22914,85.0,0.0,720.0,0.0,0.0
22915,73.0,0.0,720.0,3.0,0.0
22916,73.0,54.0,1080.0,5.0,0.0
22917,85.0,0.0,720.0,8.0,0.0
22918,49.0,60.0,60.0,6.0,0.0
22919,73.0,0.0,720.0,8.0,0.0
22920,33.0,0.0,720.0,13.0,0.0
22921,54.0,60.0,780.0,4.0,0.0
22922,66.0,0.0,780.0,4.0,0.0
22923,85.0,0.0,720.0,2.0,0.0
22924,73.0,0.0,720.0,2.0,0.0
22925,73.0,0.0,720.0,1.0,0.0
22926,85.0,0.0,720.0,1.0,0.0
22927,49.0,60.0,60.0,6.0,0.0
22928,49.0,60.0,60.0,6.0,0.0
22929,49.0,60.0,60.0,6.0,0.0
22930,63.0,0.0,480.0,12.0,0.0
22931,63.0,0.0,480.0,10.0,0.0
22932,49.0,60.0,60.0,6.0,0.0
22933,49.0,60.0,60.0,6.0,0.0
22934,49.0,60.0,60.0,6.0,0.0
22935,49.0,60.0,60.0,6.0,0.0
22936,49.0,48.0,60.0,6.0,0.0
22937,49.0,60.0,60.0,6.0,0.0
22938,49.0,60.0,60.0,6.0,0.0
22939,49.0,12.0,60.0,6.0,0.0
22940,84.0,0.0,240.0,0.0,0.0
22941,65.0,48.0,120.0,10.0,0.0
22942,96.0,0.0,240.0,0.0,0.0
22943,84.0,0.0,240.0,2.0,0.0
22944,84.0,48.0,240.0,1.0,0.0
22945,84.0,0.0,240.0,8.0,0.0
22946,72.0,0.0,240.0,2.0,0.0
22947,72.0,0.0,240.0,8.0,0.0
22948,65.0,0.0,120.0,12.0,0.0
22949,72.0,0.0,240.0,1.0,0.0
22950,72.0,0.0,240.0,3.0,0.0
22951,49.0,0.0,360.0,4.0,0.0
22952,61.0,0.0,360.0,4.0,0.0
22953,49.0,0.0,60.0,6.0,0.0
22954,45.0,0.0,240.0,13.0,0.0
22955,60.0,0.0,240.0,3.0,0.0
22956,49.0,12.0,60.0,6.0,0.0
22957,49.0,60.0,60.0,6.0,0.0
22958,66.0,0.0,120.0,10.0,0.0
22959,66.0,0.0,120.0,12.0,0.0
22960,49.0,12.0,60.0,6.0,0.0
22961,68.0,0.0,90.0,12.0,0.0
22962,59.0,0.0,90.0,3.0,0.0
22963,68.0,24.0,90.0,10.0,0.0
22964,44.0,0.0,90.0,13.0,0.0
22965,71.0,0.0,90.0,3.0,0.0
22966,83.0,0.0,90.0,0.0,0.0
22967,95.0,0.0,90.0,0.0,0.0
22968,71.0,0.0,90.0,1.0,0.0
22969,71.0,0.0,90.0,2.0,0.0
22970,83.0,0.0,90.0,1.0,0.0
22971,49.0,36.0,60.0,6.0,0.0
22972,83.0,0.0,90.0,8.0,0.0
22973,71.0,0.0,90.0,8.0,0.0
22974,83.0,0.0,90.0,2.0,0.0
22975,49.0,6.0,60.0,6.0,0.0
22976,54.0,48.0,120.0,13.0,0.0
22977,93.0,0.0,120.0,0.0,0.0
22978,69.0,0.0,120.0,8.0,0.0
22979,66.0,0.0,120.0,3.0,0.0
22980,69.0,0.0,120.0,3.0,0.0
22981,49.0,60.0,60.0,6.0,0.0
22982,49.0,0.0,240.0,4.0,0.0
22983,61.0,54.0,240.0,4.0,0.0
22984,81.0,0.0,120.0,8.0,0.0
22985,73.0,0.0,240.0,5.0,0.0
22986,61.0,0.0,240.0,5.0,0.0
22987,81.0,0.0,120.0,2.0,0.0
22988,69.0,0.0,120.0,12.0,0.0
22989,69.0,0.0,120.0,2.0,0.0
22990,69.0,0.0,120.0,10.0,0.0
22991,49.0,12.0,60.0,6.0,0.0
22992,71.0,0.0,90.0,10.0,0.0
22993,68.0,0.0,90.0,3.0,0.0
22994,68.0,0.0,90.0,2.0,0.0
22995,80.0,0.0,90.0,2.0,0.0
22996,65.0,0.0,90.0,3.0,0.0
22997,92.0,0.0,90.0,0.0,0.0
22998,85.0,0.0,15.0,1.0,0.0
22999,73.0,0.0,15.0,1.0,0.0
23000,71.0,0.0,90.0,12.0,0.0
23001,49.0,36.0,60.0,6.0,0.0
23002,68.0,0.0,90.0,8.0,0.0
23003,80.0,0.0,90.0,8.0,0.0
23004,53.0,0.0,90.0,13.0,0.0
23005,49.0,6.0,60.0,6.0,0.0
23006,61.0,54.0,240.0,5.0,0.0
23007,73.0,0.0,240.0,5.0,0.0
23008,73.0,0.0,120.0,1.0,0.0
23009,85.0,0.0,120.0,1.0,0.0
23010,78.0,0.0,120.0,2.0,0.0
23011,62.0,0.0,120.0,3.0,0.0
23012,50.0,0.0,120.0,13.0,0.0
23013,66.0,0.0,120.0,3.0,0.0
23014,73.0,0.0,120.0,12.0,0.0
23015,90.0,0.0,120.0,0.0,0.0
23016,78.0,0.0,120.0,8.0,0.0
23017,66.0,0.0,120.0,8.0,0.0
23018,49.0,60.0,60.0,6.0,0.0
23019,73.0,48.0,120.0,10.0,0.0
23020,49.0,0.0,240.0,4.0,0.0
23021,66.0,0.0,120.0,2.0,0.0
23022,61.0,0.0,240.0,4.0,0.0
23023,49.0,12.0,60.0,6.0,0.0
23024,77.0,0.0,90.0,2.0,0.0
23025,65.0,0.0,90.0,3.0,0.0
23026,61.0,0.0,90.0,3.0,0.0
23027,49.0,36.0,60.0,6.0,0.0
23028,65.0,0.0,90.0,2.0,0.0
23029,49.0,0.0,90.0,13.0,0.0
23030,77.0,0.0,90.0,8.0,0.0
23031,65.0,24.0,90.0,8.0,0.0
23032,73.0,0.0,90.0,12.0,0.0
23033,73.0,0.0,90.0,1.0,0.0
23034,85.0,0.0,90.0,1.0,0.0
23035,89.0,0.0,90.0,0.0,0.0
23036,74.0,0.0,90.0,10.0,0.0
23037,49.0,6.0,60.0,6.0,0.0
23038,85.0,0.0,120.0,1.0,0.0
23039,86.0,48.0,120.0,0.0,0.0
23040,77.0,0.0,120.0,10.0,0.0
23041,61.0,54.0,240.0,4.0,0.0
23042,49.0,0.0,240.0,4.0,0.0
23043,73.0,0.0,120.0,1.0,0.0
23044,73.0,0.0,240.0,5.0,0.0
23045,61.0,0.0,240.0,5.0,0.0
23046,47.0,0.0,120.0,13.0,0.0
23047,49.0,60.0,60.0,6.0,0.0
23048,62.0,0.0,120.0,8.0,0.0
23049,71.0,0.0,120.0,11.0,0.0
23050,74.0,0.0,120.0,8.0,0.0
23051,59.0,0.0,120.0,12.0,0.0
23052,59.0,0.0,120.0,3.0,0.0
23053,62.0,0.0,120.0,3.0,0.0
23054,62.0,0.0,120.0,2.0,0.0
23055,74.0,0.0,120.0,2.0,0.0
23056,49.0,12.0,60.0,6.0,0.0
23057,45.0,0.0,90.0,13.0,0.0
23058,85.0,0.0,90.0,1.0,0.0
23059,73.0,0.0,90.0,1.0,0.0
23060,57.0,0.0,90.0,12.0,0.0
23061,69.0,0.0,90.0,11.0,0.0
23062,61.0,0.0,90.0,2.0,0.0
23063,73.0,0.0,90.0,8.0,0.0
23064,61.0,0.0,90.0,8.0,0.0
23065,49.0,36.0,60.0,6.0,0.0
23066,78.0,0.0,90.0,10.0,0.0
23067,73.0,0.0,90.0,2.0,0.0
23068,85.0,24.0,90.0,0.0,0.0
23069,57.0,0.0,90.0,3.0,0.0
23070,61.0,0.0,90.0,3.0,0.0
23071,49.0,6.0,60.0,6.0,0.0
23072,59.0,0.0,120.0,8.0,0.0
23073,85.0,0.0,120.0,1.0,0.0
23074,73.0,0.0,120.0,1.0,0.0
23075,61.0,0.0,120.0,5.0,0.0
23076,73.0,6.0,120.0,5.0,0.0
23077,59.0,0.0,120.0,3.0,0.0
23078,68.0,0.0,120.0,11.0,0.0
23079,49.0,60.0,60.0,6.0,0.0
23080,71.0,0.0,120.0,8.0,0.0
23081,56.0,0.0,120.0,3.0,0.0
23082,59.0,48.0,120.0,2.0,0.0
23083,61.0,0.0,120.0,4.0,0.0
23084,71.0,0.0,120.0,2.0,0.0
23085,49.0,0.0,120.0,4.0,0.0
23086,83.0,0.0,120.0,0.0,0.0
23087,80.0,0.0,120.0,10.0,0.0
23088,56.0,0.0,120.0,12.0,0.0
23089,44.0,0.0,120.0,13.0,0.0
23090,49.0,6.0,60.0,6.0,0.0
23091,90.0,0.0,90.0,1.0,0.0
23092,54.0,0.0,90.0,3.0,0.0
23093,57.0,0.0,90.0,3.0,0.0
23094,81.0,0.0,90.0,10.0,0.0
23095,78.0,0.0,90.0,1.0,0.0
23096,69.0,0.0,90.0,8.0,0.0
23097,54.0,0.0,90.0,13.0,0.0
23098,78.0,0.0,90.0,11.0,0.0
23099,81.0,0.0,90.0,2.0,0.0
23100,54.0,36.0,60.0,6.0,0.0
23101,69.0,0.0,90.0,2.0,0.0
23102,81.0,0.0,90.0,0.0,0.0
23103,66.0,24.0,90.0,12.0,0.0
23104,54.0,13.0,60.0,6.0,0.0
23105,68.0,0.0,120.0,2.0,0.0
23106,80.0,0.0,120.0,2.0,0.0
23107,64.0,0.0,120.0,12.0,0.0
23108,57.0,0.0,15.0,4.0,0.0
23109,69.0,47.0,15.0,4.0,0.0
23110,52.0,48.0,120.0,13.0,0.0
23111,54.0,60.0,60.0,6.0,0.0
23112,68.0,0.0,120.0,8.0,0.0
23113,83.0,0.0,120.0,0.0,0.0
23114,83.0,0.0,120.0,10.0,0.0
23115,54.0,0.0,15.0,4.0,0.0
23116,66.0,0.0,15.0,4.0,0.0
23117,52.0,0.0,120.0,3.0,0.0
23118,76.0,0.0,120.0,11.0,0.0
23119,59.0,0.0,120.0,3.0,0.0
23120,66.0,0.0,15.0,5.0,0.0
23121,78.0,0.0,15.0,5.0,0.0
23122,54.0,12.0,60.0,6.0,0.0
23123,85.0,0.0,90.0,0.0,0.0
23124,62.0,0.0,90.0,12.0,0.0
23125,50.0,0.0,90.0,13.0,0.0
23126,85.0,0.0,90.0,10.0,0.0
23127,66.0,0.0,90.0,8.0,0.0
23128,78.0,0.0,90.0,2.0,0.0
23129,50.0,0.0,90.0,3.0,0.0
23130,90.0,0.0,15.0,1.0,0.0
23131,78.0,0.0,15.0,1.0,0.0
23132,61.0,24.0,90.0,3.0,0.0
23133,74.0,0.0,90.0,11.0,0.0
23134,66.0,0.0,90.0,2.0,0.0
23135,54.0,36.0,60.0,6.0,0.0
23136,54.0,6.0,60.0,6.0,0.0
23137,86.0,48.0,120.0,0.0,0.0
23138,78.0,0.0,120.0,1.0,0.0
23139,90.0,0.0,120.0,1.0,0.0
23140,76.0,0.0,120.0,2.0,0.0
23141,61.0,0.0,120.0,12.0,0.0
23142,69.0,54.0,240.0,4.0,0.0
23143,64.0,0.0,120.0,2.0,0.0
23144,73.0,0.0,120.0,11.0,0.0
23145,78.0,0.0,240.0,5.0,0.0
23146,64.0,0.0,120.0,8.0,0.0
23147,49.0,0.0,120.0,13.0,0.0
23148,87.0,0.0,120.0,10.0,0.0
23149,66.0,0.0,240.0,4.0,0.0
23150,54.0,0.0,240.0,4.0,0.0
23151,49.0,0.0,120.0,3.0,0.0
23152,62.0,0.0,120.0,3.0,0.0
23153,54.0,60.0,60.0,6.0,0.0
23154,66.0,0.0,240.0,5.0,0.0
23155,57.0,0.0,240.0,4.0,0.0
23156,54.0,12.0,60.0,6.0,0.0
23157,54.0,36.0,60.0,6.0,0.0
23158,71.0,0.0,90.0,11.0,0.0
23159,78.0,0.0,90.0,1.0,0.0
23160,88.0,0.0,90.0,10.0,0.0
23161,62.0,0.0,90.0,8.0,0.0
23162,90.0,0.0,90.0,1.0,0.0
23163,64.0,0.0,90.0,3.0,0.0
23164,47.0,0.0,90.0,13.0,0.0
23165,59.0,0.0,90.0,12.0,0.0
23166,62.0,24.0,90.0,2.0,0.0
23167,88.0,0.0,90.0,0.0,0.0
23168,74.0,0.0,90.0,2.0,0.0
23169,47.0,0.0,90.0,3.0,0.0
23170,54.0,6.0,60.0,6.0,0.0
23171,61.0,0.0,120.0,2.0,0.0
23172,78.0,0.0,120.0,1.0,0.0
23173,90.0,0.0,120.0,10.0,0.0
23174,69.0,0.0,240.0,4.0,0.0
23175,54.0,0.0,240.0,4.0,0.0
23176,66.0,0.0,240.0,4.0,0.0
23177,57.0,0.0,240.0,4.0,0.0
23178,90.0,0.0,120.0,1.0,0.0
23179,57.0,48.0,120.0,12.0,0.0
23180,73.0,0.0,120.0,2.0,0.0
23181,69.0,0.0,120.0,11.0,0.0
23182,45.0,0.0,120.0,3.0,0.0
23183,66.0,0.0,120.0,3.0,0.0
23184,54.0,60.0,60.0,6.0,0.0
23185,61.0,0.0,120.0,8.0,0.0
23186,66.0,54.0,240.0,5.0,0.0
23187,78.0,0.0,240.0,5.0,0.0
23188,45.0,0.0,120.0,13.0,0.0
23189,90.0,0.0,120.0,0.0,0.0
23190,54.0,12.0,60.0,6.0,0.0
23191,68.0,0.0,90.0,3.0,0.0
23192,44.0,0.0,90.0,3.0,0.0
23193,92.0,0.0,90.0,0.0,0.0
23194,44.0,0.0,90.0,13.0,0.0
23195,92.0,0.0,90.0,10.0,0.0
23196,59.0,24.0,90.0,8.0,0.0
23197,68.0,0.0,90.0,11.0,0.0
23198,78.0,0.0,90.0,1.0,0.0
23199,71.0,0.0,90.0,2.0,0.0
23200,59.0,0.0,90.0,2.0,0.0
23201,90.0,0.0,90.0,1.0,0.0
23202,54.0,36.0,60.0,6.0,0.0
23203,56.0,0.0,90.0,12.0,0.0
23204,54.0,6.0,60.0,6.0,0.0
23205,81.0,0.0,120.0,8.0,0.0
23206,78.0,0.0,120.0,5.0,0.0
23207,66.0,0.0,120.0,5.0,0.0
23208,54.0,60.0,60.0,6.0,0.0
23209,54.0,0.0,120.0,12.0,0.0
23210,90.0,0.0,120.0,1.0,0.0
23211,66.0,0.0,120.0,4.0,0.0
23212,54.0,6.0,120.0,4.0,0.0
23213,57.0,0.0,120.0,2.0,0.0
23214,69.0,0.0,120.0,2.0,0.0
23215,93.0,0.0,120.0,0.0,0.0
23216,42.0,0.0,120.0,13.0,0.0
23217,93.0,0.0,120.0,10.0,0.0
23218,66.0,0.0,120.0,11.0,0.0
23219,42.0,120.0,120.0,3.0,0.0
23220,69.0,0.0,120.0,4.0,0.0
23221,69.0,0.0,120.0,3.0,0.0
23222,57.0,0.0,120.0,4.0,0.0
23223,54.0,6.0,60.0,6.0,0.0
23224,78.0,0.0,15.0,1.0,0.0
23225,62.0,0.0,120.0,2.0,0.0
23226,54.0,168.0,180.0,6.0,0.0
23227,59.0,0.0,120.0,12.0,0.0
23228,66.0,0.0,120.0,5.0,0.0
23229,59.0,0.0,120.0,2.0,0.0
23230,66.0,0.0,120.0,4.0,0.0
23231,80.0,0.0,120.0,8.0,0.0
23232,80.0,0.0,120.0,10.0,0.0
23233,78.0,0.0,120.0,5.0,0.0
23234,86.0,0.0,120.0,1.0,0.0
23235,78.0,0.0,120.0,10.0,0.0
23236,54.0,0.0,120.0,4.0,0.0
23237,47.0,0.0,120.0,13.0,0.0
23238,50.0,72.0,120.0,4.0,0.0
23239,62.0,0.0,120.0,4.0,0.0
23240,59.0,0.0,120.0,11.0,0.0
23241,90.0,0.0,120.0,0.0,0.0
23242,92.0,0.0,120.0,0.0,0.0
23243,59.0,0.0,120.0,3.0,0.0
23244,62.0,0.0,120.0,3.0,0.0
23245,71.0,0.0,120.0,2.0,0.0
23246,74.0,0.0,120.0,2.0,0.0
23247,78.0,0.0,120.0,10.0,0.0
23248,80.0,0.0,120.0,10.0,0.0
23249,54.0,0.0,120.0,4.0,0.0
23250,62.0,0.0,120.0,3.0,0.0
23251,66.0,0.0,120.0,4.0,0.0
23252,71.0,0.0,120.0,3.0,0.0
23253,92.0,0.0,120.0,8.0,0.0
23254,74.0,0.0,120.0,11.0,0.0
23255,78.0,0.0,120.0,1.0,0.0
23256,68.0,0.0,120.0,4.0,0.0
23257,78.0,72.0,120.0,5.0,0.0
23258,86.0,0.0,120.0,1.0,0.0
23259,54.0,168.0,180.0,6.0,0.0
23260,92.0,0.0,120.0,0.0,0.0
23261,90.0,0.0,120.0,0.0,0.0
23262,66.0,0.0,120.0,5.0,0.0
23263,66.0,0.0,120.0,4.0,0.0
23264,54.0,0.0,120.0,4.0,0.0
23265,50.0,0.0,120.0,13.0,0.0
23266,62.0,240.0,120.0,12.0,0.0
23267,49.0,72.0,120.0,13.0,0.0
23268,77.0,0.0,120.0,1.0,0.0
23269,80.0,0.0,120.0,1.0,0.0
23270,73.0,0.0,120.0,8.0,0.0
23271,80.0,0.0,120.0,2.0,0.0
23272,77.0,0.0,120.0,2.0,0.0
23273,71.0,0.0,120.0,11.0,0.0
23274,92.0,0.0,120.0,8.0,0.0
23275,65.0,0.0,120.0,3.0,0.0
23276,49.0,168.0,180.0,6.0,0.0
23277,68.0,0.0,120.0,3.0,0.0
23278,68.0,0.0,120.0,4.0,0.0
23279,92.0,0.0,120.0,0.0,0.0
23280,89.0,0.0,120.0,0.0,0.0
23281,61.0,0.0,120.0,12.0,0.0
23282,80.0,0.0,120.0,10.0,0.0
23283,77.0,0.0,120.0,10.0,0.0
23284,61.0,0.0,120.0,4.0,0.0
23285,61.0,0.0,120.0,5.0,0.0
23286,73.0,0.0,120.0,5.0,0.0
23287,49.0,0.0,120.0,6.0,0.0
23288,73.0,0.0,720.0,11.0,0.0
23289,33.0,0.0,720.0,13.0,0.0
23290,61.0,0.0,120.0,5.0,0.0
23291,73.0,120.0,120.0,5.0,0.0
23292,85.0,0.0,720.0,8.0,0.0
23293,73.0,0.0,570.0,4.0,0.0
23294,61.0,144.0,570.0,4.0,0.0
23295,45.0,84.0,720.0,12.0,0.0
23296,49.0,0.0,120.0,3.0,0.0
23297,73.0,84.0,120.0,0.0,0.0
23298,73.0,0.0,120.0,1.0,0.0
23299,50.0,156.0,90.0,3.0,0.0
23300,74.0,0.0,90.0,1.0,0.0
23301,74.0,0.0,90.0,0.0,0.0
23302,73.0,0.0,120.0,0.0,0.0
23303,49.0,0.0,120.0,3.0,0.0
23304,73.0,84.0,120.0,1.0,0.0
23305,50.0,12.0,90.0,3.0,0.0
23306,74.0,0.0,90.0,0.0,0.0
23307,74.0,0.0,90.0,1.0,0.0
23308,51.0,0.0,120.0,3.0,0.0
23309,75.0,0.0,120.0,0.0,0.0
23310,75.0,0.0,120.0,1.0,0.0
23311,77.0,0.0,90.0,1.0,0.0
23312,57.0,0.0,240.0,12.0,0.0
23313,53.0,6.0,90.0,3.0,0.0
23314,72.0,0.0,240.0,11.0,0.0
23315,73.0,0.0,90.0,5.0,0.0
23316,73.0,6.0,360.0,4.0,0.0
23317,77.0,0.0,90.0,0.0,0.0
23318,45.0,0.0,240.0,13.0,0.0
23319,49.0,0.0,90.0,6.0,0.0
23320,61.0,120.0,90.0,5.0,0.0
23321,61.0,0.0,360.0,4.0,0.0
23322,84.0,0.0,240.0,8.0,0.0
23323,78.0,0.0,120.0,1.0,0.0
23324,54.0,84.0,120.0,3.0,0.0
23325,78.0,0.0,120.0,0.0,0.0
23326,49.0,0.0,30.0,6.0,0.0
23327,61.0,30.0,30.0,5.0,0.0
23328,73.0,0.0,30.0,5.0,0.0
23329,80.0,0.0,90.0,1.0,0.0
23330,49.0,0.0,120.0,6.0,0.0
23331,56.0,0.0,90.0,12.0,0.0
23332,83.0,0.0,90.0,8.0,0.0
23333,71.0,0.0,90.0,11.0,0.0
23334,56.0,30.0,90.0,3.0,0.0
23335,61.0,120.0,120.0,5.0,0.0
23336,44.0,0.0,90.0,13.0,0.0
23337,73.0,0.0,120.0,5.0,0.0
23338,80.0,0.0,90.0,0.0,0.0
23339,57.0,0.0,120.0,3.0,0.0
23340,81.0,0.0,120.0,0.0,0.0
23341,73.0,0.0,240.0,4.0,0.0
23342,81.0,0.0,120.0,1.0,0.0
23343,69.0,84.0,120.0,11.0,0.0
23344,66.0,0.0,120.0,12.0,0.0
23345,54.0,0.0,120.0,13.0,0.0
23346,81.0,0.0,120.0,8.0,0.0
23347,61.0,126.0,240.0,4.0,0.0
23348,65.0,0.0,90.0,12.0,0.0
23349,53.0,0.0,90.0,13.0,0.0
23350,59.0,0.0,90.0,3.0,0.0
23351,68.0,30.0,90.0,11.0,0.0
23352,83.0,0.0,90.0,1.0,0.0
23353,83.0,0.0,90.0,0.0,0.0
23354,80.0,0.0,90.0,8.0,0.0
23355,62.0,0.0,120.0,12.0,0.0
23356,61.0,0.0,120.0,3.0,0.0
23357,66.0,84.0,120.0,11.0,0.0
23358,61.0,126.0,240.0,4.0,0.0
23359,78.0,0.0,120.0,8.0,0.0
23360,85.0,0.0,120.0,1.0,0.0
23361,73.0,0.0,240.0,4.0,0.0
23362,85.0,0.0,120.0,0.0,0.0
23363,50.0,0.0,120.0,13.0,0.0
23364,77.0,0.0,90.0,8.0,0.0
23365,86.0,0.0,90.0,0.0,0.0
23366,86.0,0.0,90.0,1.0,0.0
23367,61.0,0.0,90.0,12.0,0.0
23368,62.0,0.0,90.0,3.0,0.0
23369,65.0,30.0,90.0,11.0,0.0
23370,49.0,0.0,90.0,13.0,0.0
23371,59.0,0.0,120.0,12.0,0.0
23372,77.0,0.0,120.0,1.0,0.0
23373,65.0,0.0,120.0,3.0,0.0
23374,62.0,0.0,120.0,11.0,0.0
23375,47.0,0.0,120.0,13.0,0.0
23376,74.0,84.0,120.0,8.0,0.0
23377,73.0,0.0,240.0,4.0,0.0
23378,61.0,96.0,240.0,4.0,0.0
23379,89.0,0.0,120.0,0.0,0.0
23380,49.0,0.0,90.0,6.0,0.0
23381,66.0,0.0,90.0,3.0,0.0
23382,78.0,6.0,90.0,1.0,0.0
23383,73.0,24.0,90.0,5.0,0.0
23384,57.0,0.0,90.0,12.0,0.0
23385,61.0,0.0,90.0,5.0,0.0
23386,61.0,0.0,90.0,11.0,0.0
23387,90.0,0.0,90.0,0.0,0.0
23388,73.0,0.0,90.0,8.0,0.0
23389,45.0,0.0,90.0,13.0,0.0
23390,44.0,120.0,120.0,13.0,0.0
23391,73.0,6.0,120.0,4.0,0.0
23392,68.0,0.0,120.0,3.0,0.0
23393,56.0,0.0,120.0,12.0,0.0
23394,61.0,0.0,120.0,4.0,0.0
23395,71.0,0.0,120.0,8.0,0.0
23396,92.0,0.0,120.0,0.0,0.0
23397,80.0,0.0,120.0,1.0,0.0
23398,59.0,0.0,120.0,11.0,0.0
23399,73.0,0.0,30.0,5.0,0.0
23400,49.0,24.0,30.0,6.0,0.0
23401,61.0,0.0,30.0,5.0,0.0
23402,93.0,0.0,720.0,0.0,0.0
23403,42.0,0.0,720.0,3.0,0.0
23404,69.0,18.0,1050.0,1.0,0.0
23405,54.0,0.0,180.0,4.0,0.0
23406,66.0,34.0,180.0,4.0,0.0
23407,54.0,0.0,240.0,12.0,0.0
23408,69.0,144.0,570.0,4.0,0.0
23409,57.0,0.0,570.0,4.0,0.0
23410,57.0,330.0,240.0,11.0,0.0
23411,66.0,0.0,120.0,5.0,0.0
23412,54.0,0.0,720.0,3.0,0.0
23413,54.0,0.0,120.0,6.0,0.0
23414,78.0,72.0,120.0,5.0,0.0
23415,42.0,8.0,240.0,13.0,0.0
23416,81.0,0.0,720.0,2.0,0.0
23417,81.0,0.0,1050.0,1.0,0.0
23418,69.0,0.0,330.0,10.0,0.0
23419,69.0,0.0,330.0,8.0,0.0
23420,57.0,12.0,330.0,11.0,0.0
23421,71.0,84.0,120.0,8.0,0.0
23422,59.0,0.0,120.0,11.0,0.0
23423,69.0,0.0,120.0,10.0,0.0
23424,80.0,0.0,240.0,2.0,0.0
23425,57.0,156.0,90.0,11.0,0.0
23426,57.0,0.0,360.0,4.0,0.0
23427,69.0,126.0,360.0,4.0,0.0
23428,73.0,0.0,90.0,8.0,0.0
23429,92.0,0.0,240.0,0.0,0.0
23430,40.0,0.0,240.0,3.0,0.0
23431,69.0,0.0,90.0,10.0,0.0
23432,61.0,0.0,90.0,11.0,0.0
23433,71.0,0.0,120.0,10.0,0.0
23434,74.0,0.0,120.0,8.0,0.0
23435,59.0,0.0,120.0,11.0,0.0
23436,62.0,84.0,120.0,11.0,0.0
23437,73.0,0.0,90.0,10.0,0.0
23438,79.0,0.0,90.0,2.0,0.0
23439,91.0,0.0,90.0,0.0,0.0
23440,64.0,12.0,90.0,3.0,0.0
23441,52.0,0.0,15.0,3.0,0.0
23442,61.0,0.0,90.0,11.0,0.0
23443,64.0,0.0,90.0,11.0,0.0
23444,76.0,0.0,90.0,8.0,0.0
23445,66.0,0.0,120.0,11.0,0.0
23446,50.0,0.0,120.0,3.0,0.0
23447,81.0,18.0,210.0,1.0,0.0
23448,69.0,0.0,210.0,1.0,0.0
23449,62.0,84.0,120.0,3.0,0.0
23450,78.0,0.0,120.0,2.0,0.0
23451,78.0,0.0,120.0,8.0,0.0
23452,90.0,0.0,120.0,0.0,0.0
23453,57.0,0.0,240.0,4.0,0.0
23454,74.0,0.0,120.0,10.0,0.0
23455,69.0,126.0,240.0,4.0,0.0
23456,62.0,0.0,120.0,11.0,0.0
23457,76.0,0.0,90.0,10.0,0.0
23458,67.0,0.0,90.0,11.0,0.0
23459,61.0,0.0,90.0,3.0,0.0
23460,49.0,0.0,90.0,3.0,0.0
23461,76.0,0.0,90.0,2.0,0.0
23462,88.0,0.0,90.0,0.0,0.0
23463,79.0,12.0,90.0,8.0,0.0
23464,64.0,0.0,90.0,11.0,0.0
23465,57.0,102.0,240.0,4.0,0.0
23466,69.0,0.0,240.0,4.0,0.0
23467,69.0,0.0,120.0,11.0,0.0
23468,74.0,0.0,120.0,2.0,0.0
23469,47.0,0.0,120.0,3.0,0.0
23470,59.0,0.0,120.0,3.0,0.0
23471,78.0,0.0,120.0,10.0,0.0
23472,81.0,18.0,210.0,1.0,0.0
23473,66.0,0.0,120.0,11.0,0.0
23474,81.0,0.0,120.0,8.0,0.0
23475,86.0,84.0,120.0,0.0,0.0
23476,69.0,0.0,210.0,1.0,0.0
23477,79.0,0.0,90.0,10.0,0.0
23478,57.0,0.0,90.0,3.0,0.0
23479,71.0,0.0,90.0,11.0,0.0
23480,67.0,0.0,90.0,11.0,0.0
23481,83.0,0.0,90.0,8.0,0.0
23482,45.0,0.0,90.0,3.0,0.0
23483,85.0,12.0,90.0,0.0,0.0
23484,73.0,0.0,90.0,2.0,0.0
23485,71.0,0.0,120.0,2.0,0.0
23486,55.0,0.0,120.0,3.0,0.0
23487,69.0,24.0,90.0,1.0,0.0
23488,81.0,0.0,90.0,1.0,0.0
23489,81.0,0.0,120.0,10.0,0.0
23490,43.0,0.0,120.0,3.0,0.0
23491,69.0,0.0,240.0,4.0,0.0
23492,57.0,102.0,240.0,4.0,0.0
23493,69.0,0.0,120.0,11.0,0.0
23494,73.0,0.0,120.0,11.0,0.0
23495,83.0,84.0,120.0,0.0,0.0
23496,85.0,0.0,120.0,8.0,0.0
23497,42.0,0.0,90.0,3.0,0.0
23498,54.0,0.0,90.0,3.0,0.0
23499,71.0,0.0,90.0,11.0,0.0
23500,83.0,18.0,90.0,1.0,0.0
23501,71.0,0.0,90.0,1.0,0.0
23502,74.0,0.0,90.0,11.0,0.0
23503,69.0,0.0,90.0,2.0,0.0
23504,83.0,12.0,90.0,10.0,0.0
23505,81.0,0.0,90.0,0.0,0.0
23506,86.0,0.0,90.0,8.0,0.0
23507,79.0,0.0,120.0,0.0,0.0
23508,73.0,0.0,90.0,1.0,0.0
23509,69.0,0.0,120.0,4.0,0.0
23510,57.0,6.0,120.0,4.0,0.0
23511,76.0,0.0,120.0,11.0,0.0
23512,67.0,0.0,120.0,2.0,0.0
23513,85.0,0.0,120.0,10.0,0.0
23514,88.0,0.0,120.0,8.0,0.0
23515,52.0,0.0,120.0,3.0,0.0
23516,40.0,0.0,120.0,3.0,0.0
23517,85.0,18.0,90.0,1.0,0.0
23518,73.0,84.0,120.0,11.0,0.0
23519,50.0,0.0,90.0,3.0,0.0
23520,66.0,0.0,720.0,11.0,0.0
23521,78.0,0.0,720.0,2.0,0.0
23522,78.0,0.0,120.0,5.0,0.0
23523,62.0,0.0,90.0,3.0,0.0
23524,66.0,0.0,120.0,5.0,0.0
23525,54.0,120.0,120.0,6.0,0.0
23526,78.0,0.0,90.0,0.0,0.0
23527,90.0,0.0,90.0,0.0,0.0
23528,50.0,0.0,720.0,12.0,0.0
23529,38.0,0.0,720.0,13.0,0.0
23530,66.0,144.0,570.0,4.0,0.0
23531,78.0,0.0,720.0,10.0,0.0
23532,90.0,0.0,720.0,8.0,0.0
23533,74.0,0.0,90.0,1.0,0.0
23534,86.0,36.0,90.0,1.0,0.0
23535,54.0,0.0,570.0,4.0,0.0
23536,70.0,0.0,120.0,1.0,0.0
23537,70.0,0.0,120.0,0.0,0.0
23538,58.0,84.0,120.0,3.0,0.0
23539,71.0,0.0,90.0,1.0,0.0
23540,59.0,156.0,90.0,3.0,0.0
23541,71.0,0.0,90.0,0.0,0.0
23542,73.0,0.0,120.0,0.0,0.0
23543,61.0,84.0,120.0,3.0,0.0
23544,73.0,0.0,120.0,1.0,0.0
23545,74.0,12.0,90.0,1.0,0.0
23546,74.0,0.0,90.0,0.0,0.0
23547,62.0,0.0,90.0,3.0,0.0
23548,76.0,0.0,120.0,0.0,0.0
23549,52.0,84.0,120.0,3.0,0.0
23550,76.0,0.0,120.0,1.0,0.0
23551,78.0,0.0,90.0,5.0,0.0
23552,66.0,0.0,90.0,5.0,0.0
23553,89.0,0.0,240.0,8.0,0.0
23554,54.0,120.0,90.0,6.0,0.0
23555,54.0,66.0,360.0,4.0,0.0
23556,66.0,0.0,360.0,4.0,0.0
23557,78.0,6.0,90.0,0.0,0.0
23558,50.0,0.0,240.0,13.0,0.0
23559,77.0,0.0,240.0,10.0,0.0
23560,65.0,0.0,240.0,11.0,0.0
23561,62.0,60.0,240.0,12.0,0.0
23562,77.0,0.0,240.0,2.0,0.0
23563,78.0,0.0,90.0,1.0,0.0
23564,54.0,0.0,90.0,3.0,0.0
23565,80.0,0.0,120.0,1.0,0.0
23566,56.0,0.0,120.0,3.0,0.0
23567,80.0,0.0,120.0,0.0,0.0
23568,66.0,30.0,30.0,5.0,0.0
23569,78.0,0.0,30.0,5.0,0.0
23570,54.0,0.0,30.0,6.0,0.0
23571,66.0,0.0,60.0,5.0,0.0
23572,76.0,0.0,90.0,10.0,0.0
23573,76.0,0.0,90.0,2.0,0.0
23574,49.0,0.0,90.0,13.0,0.0
23575,70.0,30.0,90.0,1.0,0.0
23576,82.0,0.0,90.0,0.0,0.0
23577,54.0,0.0,60.0,6.0,0.0
23578,78.0,24.0,60.0,5.0,0.0
23579,82.0,0.0,90.0,1.0,0.0
23580,88.0,0.0,90.0,8.0,0.0
23581,58.0,0.0,90.0,3.0,0.0
23582,46.0,0.0,90.0,3.0,0.0
23583,61.0,0.0,90.0,12.0,0.0
23584,64.0,0.0,90.0,11.0,0.0
23585,86.0,0.0,120.0,8.0,0.0
23586,47.0,0.0,120.0,13.0,0.0
23587,54.0,60.0,60.0,6.0,0.0
23588,83.0,0.0,120.0,1.0,0.0
23589,74.0,0.0,120.0,2.0,0.0
23590,62.0,0.0,120.0,11.0,0.0
23591,59.0,60.0,120.0,12.0,0.0
23592,59.0,0.0,120.0,3.0,0.0
23593,71.0,0.0,120.0,1.0,0.0
23594,66.0,0.0,180.0,5.0,0.0
23595,74.0,0.0,120.0,10.0,0.0
23596,47.0,0.0,120.0,3.0,0.0
23597,54.0,0.0,240.0,4.0,0.0
23598,66.0,66.0,240.0,4.0,0.0
23599,83.0,0.0,120.0,0.0,0.0
23600,78.0,0.0,180.0,5.0,0.0
23601,73.0,30.0,90.0,10.0,0.0
23602,85.0,0.0,90.0,8.0,0.0
23603,73.0,0.0,90.0,2.0,0.0
23604,46.0,0.0,90.0,13.0,0.0
23605,54.0,24.0,60.0,6.0,0.0
23606,61.0,0.0,90.0,3.0,0.0
23607,85.0,0.0,90.0,1.0,0.0
23608,73.0,0.0,90.0,1.0,0.0
23609,85.0,0.0,90.0,0.0,0.0
23610,58.0,0.0,90.0,12.0,0.0
23611,49.0,0.0,90.0,3.0,0.0
23612,61.0,0.0,90.0,11.0,0.0
23613,54.0,60.0,60.0,6.0,0.0
23614,59.0,0.0,120.0,11.0,0.0
23615,62.0,0.0,120.0,3.0,0.0
23616,50.0,0.0,120.0,3.0,0.0
23617,74.0,0.0,120.0,1.0,0.0
23618,86.0,0.0,120.0,1.0,0.0
23619,66.0,0.0,180.0,5.0,0.0
23620,78.0,24.0,180.0,5.0,0.0
23621,71.0,0.0,120.0,2.0,0.0
23622,71.0,0.0,120.0,10.0,0.0
23623,86.0,0.0,120.0,0.0,0.0
23624,43.0,0.0,120.0,13.0,0.0
23625,83.0,0.0,120.0,8.0,0.0
23626,66.0,66.0,240.0,4.0,0.0
23627,54.0,0.0,240.0,4.0,0.0
23628,55.0,60.0,120.0,12.0,0.0
23629,64.0,0.0,90.0,3.0,0.0
23630,70.0,0.0,90.0,10.0,0.0
23631,58.0,0.0,90.0,11.0,0.0
23632,76.0,30.0,90.0,1.0,0.0
23633,88.0,0.0,90.0,1.0,0.0
23634,70.0,0.0,90.0,2.0,0.0
23635,88.0,0.0,90.0,0.0,0.0
23636,42.0,0.0,90.0,13.0,0.0
23637,54.0,0.0,60.0,6.0,0.0
23638,82.0,0.0,90.0,8.0,0.0
23639,52.0,0.0,90.0,3.0,0.0
23640,54.0,0.0,90.0,12.0,0.0
23641,66.0,0.0,120.0,3.0,0.0
23642,54.0,60.0,60.0,6.0,0.0
23643,54.0,0.0,120.0,3.0,0.0
23644,55.0,0.0,120.0,11.0,0.0
23645,52.0,0.0,120.0,12.0,0.0
23646,40.0,0.0,120.0,13.0,0.0
23647,66.0,24.0,180.0,5.0,0.0
23648,78.0,0.0,180.0,5.0,0.0
23649,79.0,0.0,120.0,8.0,0.0
23650,54.0,66.0,240.0,4.0,0.0
23651,67.0,0.0,120.0,2.0,0.0
23652,67.0,60.0,120.0,10.0,0.0
23653,90.0,0.0,120.0,0.0,0.0
23654,66.0,0.0,240.0,4.0,0.0
23655,38.0,0.0,90.0,13.0,0.0
23656,90.0,0.0,15.0,1.0,0.0
23657,78.0,0.0,15.0,1.0,0.0
23658,66.0,0.0,90.0,2.0,0.0
23659,54.0,0.0,90.0,11.0,0.0
23660,92.0,0.0,90.0,0.0,0.0
23661,54.0,0.0,60.0,6.0,0.0
23662,50.0,0.0,90.0,12.0,0.0
23663,78.0,0.0,90.0,8.0,0.0
23664,56.0,0.0,90.0,3.0,0.0
23665,68.0,30.0,90.0,3.0,0.0
23666,66.0,0.0,90.0,10.0,0.0
23667,70.0,120.0,120.0,3.0,0.0
23668,64.0,0.0,120.0,2.0,0.0
23669,54.0,0.0,120.0,4.0,0.0
23670,37.0,0.0,120.0,13.0,0.0
23671,76.0,0.0,120.0,8.0,0.0
23672,94.0,0.0,120.0,0.0,0.0
23673,64.0,0.0,120.0,10.0,0.0
23674,66.0,6.0,120.0,4.0,0.0
23675,54.0,0.0,60.0,6.0,0.0
23676,58.0,0.0,120.0,3.0,0.0
23677,49.0,0.0,120.0,12.0,0.0
23678,78.0,0.0,60.0,5.0,0.0
23679,52.0,0.0,120.0,11.0,0.0
23680,66.0,54.0,60.0,5.0,0.0
23681,90.0,0.0,15.0,1.0,0.0
23682,78.0,0.0,15.0,1.0,0.0
23683,62.0,0.0,120.0,10.0,0.0
23684,35.0,0.0,120.0,13.0,0.0
23685,74.0,0.0,120.0,8.0,0.0
23686,47.0,0.0,120.0,12.0,0.0
23687,83.0,0.0,120.0,2.0,0.0
23688,71.0,0.0,120.0,2.0,0.0
23689,62.0,0.0,120.0,11.0,0.0
23690,66.0,0.0,120.0,5.0,0.0
23691,78.0,0.0,120.0,5.0,0.0
23692,54.0,0.0,120.0,6.0,0.0
23693,83.0,0.0,120.0,3.0,0.0
23694,71.0,0.0,120.0,3.0,0.0
23695,54.0,0.0,120.0,4.0,0.0
23696,66.0,0.0,120.0,4.0,0.0
23697,95.0,0.0,120.0,0.0,0.0
23698,62.0,0.0,90.0,2.0,0.0
23699,59.0,0.0,390.0,12.0,0.0
23700,62.0,186.0,390.0,11.0,0.0
23701,74.0,120.0,90.0,1.0,0.0
23702,66.0,0.0,90.0,5.0,0.0
23703,78.0,0.0,90.0,5.0,0.0
23704,86.0,0.0,90.0,1.0,0.0
23705,86.0,0.0,90.0,0.0,0.0
23706,59.0,0.0,90.0,3.0,0.0
23707,74.0,0.0,90.0,2.0,0.0
23708,54.0,0.0,90.0,6.0,0.0
23709,62.0,0.0,90.0,10.0,0.0
23710,47.0,0.0,390.0,13.0,0.0
23711,74.0,0.0,90.0,8.0,0.0
23712,71.0,0.0,90.0,4.0,0.0
23713,59.0,0.0,90.0,4.0,0.0
23714,62.0,0.0,90.0,3.0,0.0
23715,74.0,0.0,30.0,8.0,0.0
23716,71.0,0.0,30.0,4.0,0.0
23717,74.0,0.0,30.0,2.0,0.0
23718,62.0,0.0,30.0,2.0,0.0
23719,86.0,150.0,30.0,0.0,0.0
23720,74.0,0.0,30.0,1.0,0.0
23721,62.0,0.0,30.0,3.0,0.0
23722,54.0,0.0,30.0,6.0,0.0
23723,66.0,0.0,30.0,5.0,0.0
23724,78.0,0.0,30.0,5.0,0.0
23725,86.0,0.0,30.0,1.0,0.0
23726,62.0,0.0,30.0,10.0,0.0
23727,59.0,0.0,30.0,3.0,0.0
23728,59.0,0.0,30.0,4.0,0.0
23729,74.0,24.0,120.0,2.0,0.0
23730,74.0,0.0,120.0,1.0,0.0
23731,62.0,0.0,120.0,3.0,0.0
23732,59.0,0.0,120.0,3.0,0.0
23733,86.0,0.0,120.0,0.0,0.0
23734,86.0,0.0,120.0,1.0,0.0
23735,54.0,0.0,120.0,6.0,0.0
23736,62.0,0.0,600.0,10.0,0.0
23737,62.0,0.0,120.0,2.0,0.0
23738,78.0,0.0,120.0,5.0,0.0
23739,66.0,0.0,120.0,5.0,0.0
23740,59.0,0.0,120.0,4.0,0.0
23741,71.0,0.0,120.0,4.0,0.0
23742,74.0,210.0,600.0,8.0,0.0
23743,58.0,0.0,90.0,12.0,0.0
23744,61.0,120.0,90.0,11.0,0.0
23745,46.0,0.0,90.0,13.0,0.0
23746,61.0,0.0,30.0,11.0,0.0
23747,58.0,126.0,30.0,12.0,0.0
23748,46.0,0.0,30.0,13.0,0.0
23749,61.0,0.0,120.0,11.0,0.0
23750,66.0,24.0,90.0,5.0,0.0
23751,46.0,0.0,120.0,13.0,0.0
23752,78.0,0.0,90.0,5.0,0.0
23753,54.0,0.0,90.0,6.0,0.0
23754,58.0,0.0,120.0,12.0,0.0
23755,47.0,186.0,390.0,13.0,0.0
23756,78.0,0.0,90.0,5.0,0.0
23757,66.0,0.0,90.0,5.0,0.0
23758,62.0,0.0,90.0,3.0,0.0
23759,86.0,0.0,90.0,0.0,0.0
23760,86.0,0.0,90.0,1.0,0.0
23761,74.0,0.0,90.0,1.0,0.0
23762,62.0,0.0,90.0,10.0,0.0
23763,54.0,114.0,90.0,6.0,0.0
23764,59.0,0.0,390.0,12.0,0.0
23765,74.0,0.0,90.0,8.0,0.0
23766,71.0,6.0,90.0,4.0,0.0
23767,59.0,0.0,90.0,4.0,0.0
23768,59.0,0.0,90.0,3.0,0.0
23769,62.0,0.0,390.0,11.0,0.0
23770,74.0,0.0,90.0,2.0,0.0
23771,62.0,0.0,90.0,2.0,0.0
23772,59.0,0.0,30.0,4.0,0.0
23773,71.0,0.0,30.0,4.0,0.0
23774,74.0,0.0,30.0,8.0,0.0
23775,74.0,0.0,30.0,2.0,0.0
23776,62.0,0.0,30.0,2.0,0.0
23777,86.0,0.0,30.0,0.0,0.0
23778,74.0,0.0,30.0,1.0,0.0
23779,86.0,0.0,30.0,1.0,0.0
23780,62.0,0.0,30.0,10.0,0.0
23781,59.0,0.0,30.0,3.0,0.0
23782,62.0,150.0,30.0,3.0,0.0
23783,67.0,0.0,600.0,10.0,0.0
23784,59.0,0.0,120.0,3.0,0.0
23785,62.0,0.0,120.0,3.0,0.0
23786,79.0,0.0,120.0,2.0,0.0
23787,74.0,0.0,120.0,2.0,0.0
23788,91.0,0.0,120.0,0.0,0.0
23789,86.0,0.0,120.0,0.0,0.0
23790,79.0,210.0,600.0,8.0,0.0
23791,59.0,0.0,120.0,4.0,0.0
23792,71.0,24.0,120.0,4.0,0.0
23793,86.0,0.0,120.0,1.0,0.0
23794,74.0,0.0,120.0,1.0,0.0
23795,47.0,120.0,90.0,13.0,0.0
23796,59.0,0.0,90.0,12.0,0.0
23797,62.0,0.0,90.0,11.0,0.0
23798,59.0,0.0,30.0,12.0,0.0
23799,47.0,150.0,30.0,13.0,0.0
23800,62.0,0.0,30.0,11.0,0.0
23801,59.0,0.0,120.0,12.0,0.0
23802,47.0,0.0,120.0,13.0,0.0
23803,62.0,0.0,120.0,11.0,0.0
23804,77.0,0.0,90.0,8.0,0.0
23805,49.0,0.0,90.0,6.0,0.0
23806,49.0,0.0,390.0,13.0,0.0
23807,89.0,0.0,90.0,0.0,0.0
23808,73.0,120.0,90.0,5.0,0.0
23809,61.0,0.0,90.0,5.0,0.0
23810,49.0,0.0,90.0,3.0,0.0
23811,61.0,0.0,90.0,4.0,0.0
23812,49.0,0.0,90.0,4.0,0.0
23813,65.0,0.0,90.0,10.0,0.0
23814,61.0,0.0,90.0,3.0,0.0
23815,61.0,186.0,390.0,12.0,0.0
23816,77.0,0.0,90.0,1.0,0.0
23817,65.0,0.0,90.0,2.0,0.0
23818,77.0,0.0,90.0,2.0,0.0
23819,49.0,0.0,30.0,6.0,0.0
23820,65.0,0.0,30.0,2.0,0.0
23821,73.0,0.0,30.0,5.0,0.0
23822,61.0,150.0,30.0,5.0,0.0
23823,89.0,0.0,30.0,0.0,0.0
23824,77.0,0.0,30.0,2.0,0.0
23825,77.0,0.0,30.0,1.0,0.0
23826,65.0,0.0,30.0,10.0,0.0
23827,49.0,0.0,30.0,3.0,0.0
23828,61.0,0.0,30.0,3.0,0.0
23829,77.0,0.0,30.0,8.0,0.0
23830,61.0,0.0,30.0,4.0,0.0
23831,49.0,0.0,30.0,4.0,0.0
23832,65.0,0.0,120.0,2.0,0.0
23833,61.0,0.0,120.0,3.0,0.0
23834,49.0,0.0,120.0,3.0,0.0
23835,77.0,0.0,120.0,2.0,0.0
23836,65.0,0.0,600.0,10.0,0.0
23837,61.0,0.0,120.0,5.0,0.0
23838,77.0,0.0,120.0,1.0,0.0
23839,73.0,0.0,120.0,5.0,0.0
23840,77.0,0.0,600.0,8.0,0.0
23841,49.0,0.0,120.0,6.0,0.0
23842,89.0,0.0,120.0,0.0,0.0
23843,49.0,0.0,120.0,4.0,0.0
23844,61.0,24.0,120.0,4.0,0.0
23845,60.0,120.0,90.0,12.0,0.0
23846,48.0,0.0,90.0,13.0,0.0
23847,48.0,150.0,30.0,13.0,0.0
23848,60.0,0.0,30.0,12.0,0.0
23849,60.0,210.0,120.0,12.0,0.0
23850,48.0,0.0,120.0,13.0,0.0
23851,73.0,0.0,90.0,4.0,0.0
23852,69.0,0.0,90.0,2.0,0.0
23853,61.0,0.0,90.0,4.0,0.0
23854,89.0,0.0,90.0,0.0,0.0
23855,93.0,0.0,90.0,0.0,0.0
23856,61.0,0.0,90.0,3.0,0.0
23857,81.0,0.0,90.0,2.0,0.0
23858,49.0,0.0,90.0,3.0,0.0
23859,61.0,0.0,390.0,12.0,0.0
23860,61.0,0.0,90.0,5.0,0.0
23861,73.0,0.0,90.0,5.0,0.0
23862,49.0,186.0,390.0,13.0,0.0
23863,77.0,120.0,90.0,1.0,0.0
23864,81.0,0.0,90.0,1.0,0.0
23865,69.0,0.0,90.0,10.0,0.0
23866,81.0,0.0,90.0,8.0,0.0
23867,49.0,0.0,90.0,6.0,0.0
23868,61.0,0.0,30.0,4.0,0.0
23869,49.0,0.0,30.0,3.0,0.0
23870,61.0,0.0,30.0,3.0,0.0
23871,81.0,0.0,30.0,8.0,0.0
23872,69.0,0.0,30.0,10.0,0.0
23873,73.0,150.0,30.0,4.0,0.0
23874,77.0,0.0,30.0,1.0,0.0
23875,93.0,0.0,30.0,0.0,0.0
23876,89.0,0.0,30.0,0.0,0.0
23877,81.0,0.0,30.0,1.0,0.0
23878,49.0,0.0,30.0,6.0,0.0
23879,73.0,0.0,30.0,5.0,0.0
23880,61.0,0.0,30.0,5.0,0.0
23881,81.0,0.0,30.0,2.0,0.0
23882,69.0,0.0,30.0,2.0,0.0
23883,81.0,0.0,120.0,2.0,0.0
23884,69.0,24.0,120.0,2.0,0.0
23885,61.0,0.0,120.0,3.0,0.0
23886,73.0,0.0,120.0,5.0,0.0
23887,81.0,0.0,600.0,8.0,0.0
23888,93.0,0.0,120.0,0.0,0.0
23889,89.0,0.0,120.0,0.0,0.0
23890,49.0,0.0,120.0,6.0,0.0
23891,69.0,0.0,600.0,10.0,0.0
23892,81.0,0.0,120.0,1.0,0.0
23893,77.0,0.0,120.0,1.0,0.0
23894,61.0,0.0,120.0,4.0,0.0
23895,73.0,0.0,120.0,4.0,0.0
23896,49.0,0.0,120.0,3.0,0.0
23897,61.0,0.0,120.0,5.0,0.0
23898,61.0,0.0,90.0,12.0,0.0
23899,49.0,120.0,90.0,13.0,0.0
23900,49.0,150.0,30.0,13.0,0.0
23901,61.0,0.0,30.0,12.0,0.0
23902,61.0,0.0,120.0,12.0,0.0
23903,49.0,210.0,120.0,13.0,0.0
23904,78.0,0.0,90.0,0.0,0.0
23905,78.0,0.0,90.0,8.0,0.0
23906,54.0,0.0,90.0,4.0,0.0
23907,62.0,0.0,90.0,12.0,0.0
23908,66.0,0.0,90.0,1.0,0.0
23909,50.0,0.0,90.0,13.0,0.0
23910,90.0,0.0,90.0,0.0,0.0
23911,78.0,0.0,90.0,1.0,0.0
23912,66.0,0.0,90.0,2.0,0.0
23913,78.0,0.0,90.0,2.0,0.0
23914,66.0,0.0,90.0,10.0,0.0
23915,50.0,0.0,90.0,3.0,0.0
23916,62.0,0.0,90.0,3.0,0.0
23917,66.0,120.0,90.0,5.0,0.0
23918,78.0,0.0,90.0,5.0,0.0
23919,54.0,0.0,90.0,6.0,0.0
23920,66.0,0.0,90.0,4.0,0.0
23921,66.0,0.0,30.0,10.0,0.0
23922,66.0,0.0,30.0,2.0,0.0
23923,54.0,0.0,30.0,6.0,0.0
23924,62.0,0.0,30.0,12.0,0.0
23925,78.0,0.0,30.0,0.0,0.0
23926,90.0,0.0,30.0,0.0,0.0
23927,50.0,0.0,30.0,13.0,0.0
23928,50.0,0.0,30.0,3.0,0.0
23929,54.0,150.0,30.0,4.0,0.0
23930,66.0,0.0,30.0,4.0,0.0
23931,62.0,0.0,30.0,3.0,0.0
23932,66.0,0.0,30.0,1.0,0.0
23933,78.0,0.0,30.0,1.0,0.0
23934,66.0,0.0,30.0,5.0,0.0
23935,78.0,0.0,30.0,5.0,0.0
23936,78.0,0.0,30.0,8.0,0.0
23937,78.0,0.0,30.0,2.0,0.0
23938,66.0,0.0,120.0,2.0,0.0
23939,78.0,0.0,120.0,2.0,0.0
23940,50.0,0.0,120.0,13.0,0.0
23941,62.0,210.0,120.0,12.0,0.0
23942,78.0,0.0,120.0,5.0,0.0
23943,78.0,0.0,120.0,1.0,0.0
23944,54.0,0.0,120.0,6.0,0.0
23945,62.0,0.0,120.0,3.0,0.0
23946,50.0,0.0,120.0,3.0,0.0
23947,66.0,0.0,120.0,5.0,0.0
23948,66.0,0.0,120.0,1.0,0.0
23949,54.0,0.0,120.0,4.0,0.0
23950,66.0,0.0,120.0,4.0,0.0
23951,78.0,0.0,120.0,0.0,0.0
23952,78.0,0.0,120.0,8.0,0.0
23953,90.0,0.0,120.0,0.0,0.0
23954,66.0,0.0,120.0,10.0,0.0
23955,63.0,0.0,90.0,3.0,0.0
23956,78.0,0.0,90.0,2.0,0.0
23957,83.0,0.0,90.0,2.0,0.0
23958,66.0,0.0,90.0,4.0,0.0
23959,71.0,0.0,90.0,10.0,0.0
23960,51.0,0.0,90.0,13.0,0.0
23961,66.0,0.0,90.0,5.0,0.0
23962,78.0,0.0,90.0,5.0,0.0
23963,95.0,0.0,90.0,0.0,0.0
23964,90.0,120.0,90.0,0.0,0.0
23965,54.0,0.0,90.0,6.0,0.0
23966,83.0,0.0,90.0,8.0,0.0
23967,63.0,0.0,90.0,12.0,0.0
23968,51.0,0.0,90.0,3.0,0.0
23969,78.0,0.0,90.0,1.0,0.0
23970,83.0,0.0,90.0,1.0,0.0
23971,51.0,0.0,30.0,3.0,0.0
23972,63.0,0.0,30.0,3.0,0.0
23973,71.0,0.0,30.0,4.0,0.0
23974,66.0,0.0,30.0,5.0,0.0
23975,78.0,0.0,30.0,5.0,0.0
23976,51.0,0.0,30.0,13.0,0.0
23977,63.0,0.0,30.0,12.0,0.0
23978,83.0,0.0,30.0,1.0,0.0
23979,71.0,0.0,30.0,10.0,0.0
23980,78.0,0.0,30.0,1.0,0.0
23981,90.0,0.0,30.0,0.0,0.0
23982,83.0,0.0,30.0,8.0,0.0
23983,78.0,0.0,30.0,2.0,0.0
23984,83.0,0.0,30.0,2.0,0.0
23985,66.0,150.0,30.0,4.0,0.0
23986,54.0,0.0,30.0,6.0,0.0
23987,95.0,0.0,30.0,0.0,0.0
23988,71.0,0.0,120.0,4.0,0.0
23989,78.0,0.0,120.0,2.0,0.0
23990,83.0,0.0,120.0,2.0,0.0
23991,51.0,0.0,120.0,13.0,0.0
23992,66.0,210.0,120.0,4.0,0.0
23993,83.0,0.0,120.0,1.0,0.0
23994,95.0,0.0,120.0,0.0,0.0
23995,78.0,0.0,120.0,1.0,0.0
23996,78.0,0.0,120.0,5.0,0.0
23997,66.0,0.0,120.0,5.0,0.0
23998,90.0,0.0,120.0,0.0,0.0
23999,83.0,0.0,120.0,8.0,0.0
24000,63.0,0.0,120.0,12.0,0.0
24001,71.0,0.0,120.0,10.0,0.0
24002,63.0,0.0,120.0,3.0,0.0
24003,54.0,0.0,120.0,6.0,0.0
24004,51.0,0.0,120.0,3.0,0.0
24005,64.0,0.0,90.0,12.0,0.0
24006,64.0,0.0,90.0,3.0,0.0
24007,80.0,0.0,90.0,1.0,0.0
24008,80.0,0.0,90.0,2.0,0.0
24009,52.0,0.0,90.0,3.0,0.0
24010,80.0,0.0,90.0,5.0,0.0
24011,68.0,120.0,90.0,10.0,0.0
24012,52.0,0.0,90.0,13.0,0.0
24013,92.0,0.0,90.0,0.0,0.0
24014,80.0,0.0,90.0,8.0,0.0
24015,71.0,0.0,90.0,4.0,0.0
24016,68.0,0.0,90.0,4.0,0.0
24017,52.0,0.0,30.0,3.0,0.0
24018,64.0,0.0,30.0,3.0,0.0
24019,80.0,150.0,30.0,2.0,0.0
24020,68.0,0.0,30.0,10.0,0.0
24021,71.0,0.0,30.0,4.0,0.0
24022,68.0,0.0,30.0,4.0,0.0
24023,80.0,0.0,30.0,1.0,0.0
24024,80.0,0.0,30.0,5.0,0.0
24025,92.0,0.0,30.0,0.0,0.0
24026,80.0,0.0,30.0,8.0,0.0
24027,64.0,0.0,30.0,12.0,0.0
24028,52.0,0.0,30.0,13.0,0.0
24029,53.0,210.0,120.0,13.0,0.0
24030,68.0,0.0,120.0,10.0,0.0
24031,80.0,0.0,120.0,1.0,0.0
24032,92.0,0.0,120.0,0.0,0.0
24033,80.0,0.0,120.0,5.0,0.0
24034,68.0,0.0,120.0,4.0,0.0
24035,80.0,0.0,120.0,2.0,0.0
24036,65.0,0.0,120.0,12.0,0.0
24037,80.0,0.0,120.0,8.0,0.0
24038,53.0,0.0,120.0,3.0,0.0
24039,65.0,0.0,120.0,3.0,0.0
24040,73.0,0.0,90.0,10.0,0.0
24041,49.0,0.0,90.0,13.0,0.0
24042,73.0,0.0,90.0,1.0,0.0
24043,85.0,0.0,90.0,1.0,0.0
24044,49.0,0.0,90.0,6.0,0.0
24045,85.0,0.0,90.0,8.0,0.0
24046,73.0,0.0,90.0,5.0,0.0
24047,85.0,120.0,90.0,2.0,0.0
24048,61.0,0.0,90.0,5.0,0.0
24049,73.0,0.0,90.0,4.0,0.0
24050,61.0,0.0,90.0,4.0,0.0
24051,85.0,0.0,90.0,0.0,0.0
24052,61.0,0.0,90.0,12.0,0.0
24053,61.0,0.0,90.0,3.0,0.0
24054,49.0,0.0,90.0,3.0,0.0
24055,73.0,0.0,90.0,2.0,0.0
24056,97.0,0.0,90.0,0.0,0.0
24057,73.0,0.0,30.0,2.0,0.0
24058,73.0,0.0,30.0,5.0,0.0
24059,61.0,0.0,30.0,12.0,0.0
24060,73.0,0.0,30.0,10.0,0.0
24061,61.0,0.0,30.0,3.0,0.0
24062,49.0,0.0,30.0,3.0,0.0
24063,85.0,0.0,30.0,8.0,0.0
24064,85.0,0.0,30.0,2.0,0.0
24065,49.0,0.0,30.0,13.0,0.0
24066,73.0,0.0,30.0,1.0,0.0
24067,85.0,0.0,30.0,1.0,0.0
24068,61.0,0.0,30.0,4.0,0.0
24069,73.0,0.0,30.0,4.0,0.0
24070,97.0,126.0,30.0,0.0,0.0
24071,85.0,0.0,30.0,0.0,0.0
24072,49.0,0.0,30.0,6.0,0.0
24073,61.0,0.0,30.0,5.0,0.0
24074,61.0,0.0,7500.0,12.0,0.0
24075,85.0,0.0,7500.0,8.0,0.0
24076,49.0,12.0,7500.0,13.0,0.0
24077,85.0,0.0,120.0,1.0,0.0
24078,73.0,0.0,120.0,1.0,0.0
24079,73.0,0.0,120.0,2.0,0.0
24080,85.0,0.0,120.0,2.0,0.0
24081,66.0,84.0,570.0,4.0,0.0
24082,73.0,0.0,7500.0,10.0,0.0
24083,73.0,456.0,120.0,5.0,0.0
24084,61.0,0.0,7500.0,11.0,0.0
24085,85.0,0.0,120.0,0.0,0.0
24086,97.0,0.0,120.0,0.0,0.0
24087,61.0,0.0,120.0,5.0,0.0
24088,49.0,0.0,120.0,6.0,0.0
24089,61.0,18.0,90.0,4.0,0.0
24090,49.0,6.0,120.0,3.0,0.0
24091,61.0,0.0,120.0,3.0,0.0
24092,49.0,60.0,1440.0,4.0,0.0
24093,70.0,120.0,60.0,4.0,0.0
24094,68.0,120.0,60.0,4.0,0.0
24095,66.0,180.0,60.0,4.0,0.0
24096,73.0,240.0,120.0,4.0,0.0
24097,77.0,24.0,570.0,1.0,0.0
24098,49.0,0.0,120.0,6.0,0.0
24099,61.0,216.0,120.0,5.0,0.0
24100,71.0,0.0,120.0,4.0,0.0
24101,73.0,0.0,120.0,5.0,0.0
24102,68.0,60.0,120.0,4.0,0.0
24103,80.0,60.0,60.0,1.0,0.0
24104,48.0,60.0,120.0,4.0,0.0
24105,78.0,60.0,60.0,1.0,0.0
24106,73.0,240.0,360.0,4.0,0.0
24107,77.0,36.0,60.0,1.0,0.0
24108,49.0,144.0,90.0,4.0,0.0
24109,49.0,60.0,720.0,4.0,0.0
24110,78.0,24.0,570.0,1.0,0.0
24111,49.0,0.0,120.0,6.0,0.0
24112,61.0,0.0,120.0,5.0,0.0
24113,73.0,0.0,120.0,5.0,0.0
24114,70.0,216.0,120.0,4.0,0.0
24115,66.0,60.0,120.0,4.0,0.0
24116,82.0,60.0,60.0,1.0,0.0
24117,73.0,240.0,360.0,4.0,0.0
24118,80.0,60.0,60.0,1.0,0.0
24119,48.0,60.0,120.0,4.0,0.0
24120,49.0,144.0,90.0,4.0,0.0
24121,78.0,36.0,60.0,1.0,0.0
24122,80.0,0.0,570.0,1.0,0.0
24123,49.0,60.0,720.0,4.0,0.0
24124,65.0,24.0,570.0,3.0,0.0
24125,68.0,0.0,120.0,4.0,0.0
24126,73.0,216.0,120.0,5.0,0.0
24127,61.0,0.0,120.0,5.0,0.0
24128,49.0,0.0,120.0,6.0,0.0
24129,61.0,60.0,120.0,4.0,0.0
24130,68.0,0.0,60.0,3.0,0.0
24131,83.0,60.0,60.0,1.0,0.0
24132,48.0,60.0,120.0,4.0,0.0
24133,82.0,0.0,60.0,1.0,0.0
24134,66.0,60.0,60.0,3.0,0.0
24135,73.0,240.0,360.0,4.0,0.0
24136,49.0,144.0,90.0,4.0,0.0
24137,80.0,0.0,60.0,1.0,0.0
24138,65.0,36.0,60.0,3.0,0.0
24139,82.0,0.0,570.0,1.0,0.0
24140,49.0,60.0,720.0,4.0,0.0
24141,66.0,24.0,570.0,3.0,0.0
24142,70.0,0.0,120.0,4.0,0.0
24143,49.0,0.0,120.0,6.0,0.0
24144,61.0,0.0,120.0,5.0,0.0
24145,73.0,216.0,120.0,5.0,0.0
24146,66.0,60.0,120.0,4.0,0.0
24147,70.0,60.0,60.0,3.0,0.0
24148,85.0,0.0,60.0,1.0,0.0
24149,68.0,60.0,60.0,3.0,0.0
24150,73.0,240.0,360.0,4.0,0.0
24151,48.0,60.0,120.0,4.0,0.0
24152,83.0,0.0,60.0,1.0,0.0
24153,82.0,0.0,60.0,1.0,0.0
24154,49.0,144.0,90.0,4.0,0.0
24155,66.0,36.0,60.0,3.0,0.0
24156,80.0,24.0,570.0,1.0,0.0
24157,89.0,0.0,570.0,0.0,0.0
24158,65.0,0.0,570.0,3.0,0.0
24159,49.0,60.0,720.0,4.0,0.0
24160,73.0,216.0,120.0,5.0,0.0
24161,71.0,0.0,120.0,4.0,0.0
24162,49.0,0.0,120.0,6.0,0.0
24163,61.0,0.0,120.0,5.0,0.0
24164,68.0,60.0,120.0,4.0,0.0
24165,83.0,0.0,60.0,1.0,0.0
24166,65.0,60.0,60.0,3.0,0.0
24167,92.0,0.0,60.0,0.0,0.0
24168,66.0,0.0,60.0,3.0,0.0
24169,82.0,60.0,60.0,1.0,0.0
24170,73.0,240.0,360.0,4.0,0.0
24171,48.0,60.0,120.0,4.0,0.0
24172,90.0,0.0,60.0,0.0,0.0
24173,89.0,36.0,60.0,0.0,0.0
24174,80.0,0.0,60.0,1.0,0.0
24175,49.0,144.0,90.0,4.0,0.0
24176,68.0,0.0,60.0,3.0,0.0
24177,82.0,24.0,570.0,1.0,0.0
24178,66.0,0.0,570.0,3.0,0.0
24179,49.0,60.0,720.0,4.0,0.0
24180,90.0,0.0,570.0,0.0,0.0
24181,61.0,216.0,120.0,5.0,0.0
24182,73.0,0.0,120.0,5.0,0.0
24183,70.0,0.0,120.0,4.0,0.0
24184,49.0,0.0,120.0,6.0,0.0
24185,66.0,60.0,120.0,4.0,0.0
24186,94.0,0.0,60.0,0.0,0.0
24187,66.0,0.0,60.0,3.0,0.0
24188,85.0,60.0,60.0,1.0,0.0
24189,48.0,60.0,120.0,4.0,0.0
24190,92.0,0.0,60.0,0.0,0.0
24191,83.0,0.0,60.0,1.0,0.0
24192,73.0,240.0,360.0,4.0,0.0
24193,68.0,60.0,60.0,3.0,0.0
24194,82.0,0.0,60.0,1.0,0.0
24195,49.0,144.0,90.0,4.0,0.0
24196,90.0,0.0,60.0,0.0,0.0
24197,70.0,36.0,60.0,3.0,0.0
24198,71.0,0.0,570.0,3.0,0.0
24199,49.0,48.0,720.0,4.0,0.0
24200,92.0,0.0,570.0,0.0,0.0
24201,77.0,24.0,570.0,1.0,0.0
24202,49.0,216.0,120.0,6.0,0.0
24203,61.0,0.0,120.0,5.0,0.0
24204,73.0,0.0,120.0,5.0,0.0
24205,68.0,0.0,120.0,4.0,0.0
24206,61.0,60.0,120.0,4.0,0.0
24207,95.0,60.0,60.0,0.0,0.0
24208,80.0,0.0,60.0,1.0,0.0
24209,68.0,0.0,60.0,3.0,0.0
24210,94.0,0.0,60.0,0.0,0.0
24211,48.0,60.0,120.0,4.0,0.0
24212,78.0,0.0,60.0,1.0,0.0
24213,70.0,60.0,60.0,3.0,0.0
24214,92.0,0.0,60.0,0.0,0.0
24215,77.0,36.0,60.0,1.0,0.0
24216,71.0,0.0,60.0,3.0,0.0
24217,49.0,24.0,90.0,4.0,0.0
24218,73.0,60.0,15.0,4.0,0.0
24219,49.0,74.0,240.0,4.0,0.0
24220,93.0,120.0,60.0,0.0,0.0
24221,54.0,6.0,540.0,12.0,0.0
24222,78.0,0.0,540.0,8.0,0.0
24223,42.0,0.0,540.0,13.0,0.0
24224,66.0,0.0,540.0,10.0,0.0
24225,97.0,46.0,60.0,0.0,0.0
24226,61.0,0.0,120.0,5.0,0.0
24227,95.0,60.0,60.0,0.0,0.0
24228,73.0,0.0,120.0,5.0,0.0
24229,49.0,60.0,120.0,6.0,0.0
24230,61.0,0.0,6660.0,4.0,0.0
24231,93.0,114.0,60.0,0.0,0.0
24232,73.0,0.0,120.0,5.0,0.0
24233,49.0,0.0,120.0,6.0,0.0
24234,92.0,60.0,60.0,0.0,0.0
24235,61.0,54.0,120.0,5.0,0.0
24236,81.0,0.0,60.0,8.0,0.0
24237,69.0,0.0,60.0,10.0,0.0
24238,57.0,0.0,60.0,12.0,0.0
24239,45.0,6.0,60.0,13.0,0.0
24240,90.0,114.0,60.0,0.0,0.0
24241,56.0,0.0,60.0,12.0,0.0
24242,89.0,114.0,60.0,0.0,0.0
24243,68.0,0.0,60.0,10.0,0.0
24244,44.0,0.0,60.0,13.0,0.0
24245,80.0,6.0,60.0,8.0,0.0
24246,42.0,0.0,60.0,13.0,0.0
24247,90.0,156.0,60.0,0.0,0.0
24248,54.0,6.0,60.0,12.0,0.0
24249,78.0,0.0,60.0,8.0,0.0
24250,66.0,0.0,60.0,10.0,0.0
24251,49.0,0.0,90.0,13.0,0.0
24252,73.0,0.0,90.0,10.0,0.0
24253,90.0,60.0,120.0,0.0,0.0
24254,85.0,0.0,90.0,8.0,0.0
24255,61.0,24.0,90.0,12.0,0.0
24256,89.0,120.0,60.0,0.0,0.0
24257,49.0,0.0,120.0,6.0,0.0
24258,61.0,60.0,120.0,5.0,0.0
24259,83.0,0.0,90.0,8.0,0.0
24260,73.0,0.0,120.0,5.0,0.0
24261,71.0,0.0,90.0,10.0,0.0
24262,89.0,36.0,60.0,0.0,0.0
24263,59.0,0.0,90.0,12.0,0.0
24264,47.0,24.0,90.0,13.0,0.0
24265,92.0,120.0,60.0,0.0,0.0
24266,73.0,0.0,120.0,5.0,0.0
24267,44.0,24.0,90.0,13.0,0.0
24268,68.0,0.0,90.0,10.0,0.0
24269,49.0,0.0,120.0,6.0,0.0
24270,80.0,0.0,90.0,8.0,0.0
24271,56.0,0.0,90.0,12.0,0.0
24272,89.0,36.0,60.0,0.0,0.0
24273,61.0,60.0,120.0,5.0,0.0
24274,92.0,120.0,60.0,0.0,0.0
24275,85.0,0.0,330.0,8.0,0.0
24276,49.0,84.0,330.0,13.0,0.0
24277,61.0,0.0,330.0,12.0,0.0
24278,90.0,120.0,60.0,0.0,0.0
24279,73.0,0.0,330.0,10.0,0.0
24280,89.0,156.0,60.0,0.0,0.0
24281,90.0,74.0,240.0,0.0,0.0
24282,85.0,46.0,60.0,1.0,0.0
24283,83.0,36.0,60.0,1.0,0.0
24284,45.0,0.0,90.0,13.0,0.0
24285,61.0,0.0,120.0,5.0,0.0
24286,57.0,0.0,90.0,12.0,0.0
24287,69.0,0.0,90.0,10.0,0.0
24288,81.0,24.0,90.0,8.0,0.0
24289,73.0,0.0,120.0,5.0,0.0
24290,49.0,60.0,120.0,6.0,0.0
24291,81.0,120.0,60.0,1.0,0.0
24292,42.0,24.0,90.0,13.0,0.0
24293,80.0,36.0,60.0,1.0,0.0
24294,54.0,0.0,90.0,12.0,0.0
24295,49.0,0.0,120.0,6.0,0.0
24296,73.0,0.0,120.0,5.0,0.0
24297,61.0,60.0,120.0,5.0,0.0
24298,78.0,0.0,90.0,8.0,0.0
24299,66.0,0.0,90.0,10.0,0.0
24300,78.0,120.0,60.0,1.0,0.0
24301,85.0,24.0,330.0,8.0,0.0
24302,73.0,0.0,330.0,10.0,0.0
24303,61.0,0.0,330.0,12.0,0.0
24304,49.0,0.0,330.0,13.0,0.0
24305,77.0,120.0,60.0,1.0,0.0
24306,78.0,156.0,60.0,1.0,0.0
24307,81.0,60.0,120.0,1.0,0.0
24308,80.0,120.0,60.0,1.0,0.0
24309,80.0,0.0,90.0,8.0,0.0
24310,73.0,0.0,120.0,5.0,0.0
24311,61.0,0.0,120.0,5.0,0.0
24312,80.0,36.0,60.0,1.0,0.0
24313,44.0,0.0,90.0,13.0,0.0
24314,56.0,24.0,90.0,12.0,0.0
24315,68.0,0.0,90.0,10.0,0.0
24316,49.0,60.0,120.0,6.0,0.0
24317,83.0,120.0,60.0,1.0,0.0
24318,49.0,60.0,120.0,6.0,0.0
24319,41.0,0.0,90.0,13.0,0.0
24320,77.0,0.0,90.0,8.0,0.0
24321,65.0,24.0,90.0,10.0,0.0
24322,53.0,0.0,90.0,12.0,0.0
24323,61.0,0.0,120.0,5.0,0.0
24324,73.0,0.0,120.0,5.0,0.0
24325,80.0,36.0,60.0,1.0,0.0
24326,83.0,120.0,60.0,1.0,0.0
24327,85.0,0.0,330.0,8.0,0.0
24328,81.0,120.0,60.0,1.0,0.0
24329,61.0,84.0,330.0,12.0,0.0
24330,49.0,0.0,330.0,13.0,0.0
24331,73.0,0.0,330.0,10.0,0.0
24332,80.0,156.0,60.0,1.0,0.0
24333,81.0,74.0,240.0,1.0,0.0
24334,73.0,46.0,60.0,3.0,0.0
24335,57.0,0.0,90.0,12.0,0.0
24336,71.0,36.0,60.0,3.0,0.0
24337,81.0,24.0,90.0,8.0,0.0
24338,69.0,0.0,90.0,10.0,0.0
24339,45.0,0.0,90.0,13.0,0.0
24340,49.0,60.0,120.0,6.0,0.0
24341,73.0,0.0,120.0,5.0,0.0
24342,61.0,0.0,120.0,5.0,0.0
24343,69.0,120.0,60.0,3.0,0.0
24344,73.0,0.0,120.0,5.0,0.0
24345,66.0,0.0,90.0,10.0,0.0
24346,78.0,24.0,90.0,8.0,0.0
24347,61.0,0.0,120.0,5.0,0.0
24348,68.0,36.0,60.0,3.0,0.0
24349,54.0,0.0,90.0,12.0,0.0
24350,49.0,60.0,120.0,6.0,0.0
24351,42.0,0.0,90.0,13.0,0.0
24352,66.0,120.0,60.0,3.0,0.0
24353,65.0,60.0,60.0,3.0,0.0
24354,61.0,0.0,120.0,5.0,0.0
24355,73.0,60.0,120.0,5.0,0.0
24356,49.0,0.0,120.0,6.0,0.0
24357,49.0,0.0,330.0,13.0,0.0
24358,73.0,0.0,330.0,10.0,0.0
24359,61.0,24.0,330.0,12.0,0.0
24360,85.0,0.0,330.0,8.0,0.0
24361,66.0,156.0,60.0,3.0,0.0
24362,66.0,0.0,120.0,3.0,0.0
24363,73.0,0.0,120.0,5.0,0.0
24364,49.0,0.0,120.0,6.0,0.0
24365,61.0,60.0,120.0,5.0,0.0
24366,65.0,120.0,60.0,3.0,0.0
24367,61.0,0.0,120.0,5.0,0.0
24368,65.0,36.0,60.0,3.0,0.0
24369,71.0,0.0,90.0,10.0,0.0
24370,59.0,0.0,90.0,12.0,0.0
24371,83.0,0.0,90.0,8.0,0.0
24372,47.0,24.0,90.0,13.0,0.0
24373,49.0,60.0,120.0,6.0,0.0
24374,73.0,0.0,120.0,5.0,0.0
24375,68.0,120.0,60.0,3.0,0.0
24376,49.0,60.0,120.0,6.0,0.0
24377,44.0,24.0,90.0,13.0,0.0
24378,56.0,0.0,90.0,12.0,0.0
24379,61.0,0.0,120.0,5.0,0.0
24380,73.0,0.0,120.0,5.0,0.0
24381,68.0,0.0,90.0,10.0,0.0
24382,65.0,36.0,60.0,3.0,0.0
24383,80.0,0.0,90.0,8.0,0.0
24384,68.0,120.0,60.0,3.0,0.0
24385,49.0,24.0,330.0,13.0,0.0
24386,73.0,0.0,120.0,5.0,0.0
24387,61.0,0.0,330.0,12.0,0.0
24388,85.0,0.0,330.0,8.0,0.0
24389,66.0,60.0,60.0,3.0,0.0
24390,73.0,0.0,330.0,10.0,0.0
24391,49.0,60.0,120.0,6.0,0.0
24392,61.0,0.0,120.0,5.0,0.0
24393,65.0,156.0,60.0,3.0,0.0
24394,80.0,0.0,120.0,1.0,0.0
24395,49.0,0.0,120.0,6.0,0.0
24396,73.0,0.0,120.0,5.0,0.0
24397,61.0,60.0,120.0,5.0,0.0
24398,78.0,120.0,60.0,1.0,0.0
24399,81.0,24.0,90.0,8.0,0.0
24400,57.0,0.0,90.0,12.0,0.0
24401,78.0,36.0,60.0,1.0,0.0
24402,69.0,0.0,90.0,10.0,0.0
24403,49.0,60.0,120.0,6.0,0.0
24404,45.0,0.0,90.0,13.0,0.0
24405,73.0,0.0,120.0,5.0,0.0
24406,61.0,0.0,120.0,5.0,0.0
24407,81.0,120.0,60.0,1.0,0.0
24408,66.0,0.0,90.0,10.0,0.0
24409,61.0,0.0,120.0,5.0,0.0
24410,54.0,0.0,90.0,12.0,0.0
24411,42.0,0.0,90.0,13.0,0.0
24412,78.0,36.0,60.0,1.0,0.0
24413,73.0,60.0,120.0,5.0,0.0
24414,78.0,24.0,90.0,8.0,0.0
24415,49.0,0.0,120.0,6.0,0.0
24416,81.0,120.0,60.0,1.0,0.0
24417,85.0,0.0,330.0,8.0,0.0
24418,49.0,60.0,120.0,6.0,0.0
24419,61.0,0.0,330.0,12.0,0.0
24420,73.0,0.0,120.0,5.0,0.0
24421,61.0,0.0,120.0,5.0,0.0
24422,49.0,24.0,330.0,13.0,0.0
24423,73.0,0.0,330.0,10.0,0.0
24424,80.0,60.0,60.0,1.0,0.0
24425,78.0,156.0,60.0,1.0,0.0
24426,49.0,0.0,120.0,6.0,0.0
24427,61.0,0.0,120.0,5.0,0.0
24428,73.0,0.0,120.0,5.0,0.0
24429,92.0,60.0,120.0,0.0,0.0
24430,90.0,12.0,60.0,0.0,0.0
24431,45.0,0.0,90.0,13.0,0.0
24432,66.0,0.0,120.0,5.0,0.0
24433,78.0,60.0,120.0,5.0,0.0
24434,90.0,36.0,60.0,0.0,0.0
24435,81.0,0.0,90.0,8.0,0.0
24436,57.0,0.0,120.0,4.0,0.0
24437,69.0,12.0,120.0,4.0,0.0
24438,54.0,0.0,120.0,6.0,0.0
24439,57.0,12.0,90.0,12.0,0.0
24440,69.0,0.0,90.0,10.0,0.0
24441,93.0,120.0,60.0,0.0,0.0
24442,66.0,0.0,90.0,10.0,0.0
24443,54.0,12.0,120.0,4.0,0.0
24444,78.0,60.0,120.0,5.0,0.0
24445,78.0,12.0,90.0,8.0,0.0
24446,66.0,0.0,120.0,5.0,0.0
24447,81.0,36.0,60.0,0.0,0.0
24448,66.0,0.0,120.0,4.0,0.0
24449,54.0,0.0,90.0,12.0,0.0
24450,42.0,0.0,90.0,13.0,0.0
24451,54.0,0.0,120.0,6.0,0.0
24452,93.0,120.0,60.0,0.0,0.0
24453,54.0,0.0,120.0,6.0,0.0
24454,50.0,0.0,330.0,13.0,0.0
24455,74.0,0.0,330.0,10.0,0.0
24456,66.0,0.0,360.0,4.0,0.0
24457,86.0,0.0,330.0,8.0,0.0
24458,54.0,12.0,360.0,4.0,0.0
24459,66.0,0.0,120.0,5.0,0.0
24460,92.0,60.0,60.0,0.0,0.0
24461,78.0,60.0,120.0,5.0,0.0
24462,62.0,12.0,330.0,12.0,0.0
24463,90.0,156.0,60.0,0.0,0.0
24464,57.0,60.0,120.0,3.0,0.0
24465,56.0,120.0,60.0,3.0,0.0
24466,56.0,36.0,60.0,3.0,0.0
24467,47.0,0.0,90.0,13.0,0.0
24468,71.0,0.0,90.0,10.0,0.0
24469,59.0,12.0,90.0,12.0,0.0
24470,83.0,0.0,90.0,8.0,0.0
24471,71.0,72.0,120.0,4.0,0.0
24472,59.0,120.0,60.0,3.0,0.0
24473,71.0,72.0,120.0,4.0,0.0
24474,80.0,12.0,90.0,8.0,0.0
24475,56.0,36.0,60.0,3.0,0.0
24476,56.0,0.0,90.0,12.0,0.0
24477,44.0,0.0,90.0,13.0,0.0
24478,68.0,0.0,90.0,10.0,0.0
24479,59.0,120.0,60.0,3.0,0.0
24480,73.0,0.0,120.0,5.0,0.0
24481,77.0,0.0,330.0,10.0,0.0
24482,53.0,12.0,330.0,13.0,0.0
24483,61.0,60.0,120.0,5.0,0.0
24484,68.0,12.0,360.0,4.0,0.0
24485,57.0,60.0,60.0,3.0,0.0
24486,89.0,0.0,330.0,8.0,0.0
24487,49.0,0.0,120.0,6.0,0.0
24488,65.0,0.0,330.0,12.0,0.0
24489,56.0,156.0,60.0,3.0,0.0
24490,83.0,0.0,120.0,1.0,0.0
24491,61.0,0.0,120.0,5.0,0.0
24492,73.0,60.0,120.0,5.0,0.0
24493,49.0,0.0,120.0,6.0,0.0
24494,81.0,120.0,60.0,1.0,0.0
24495,81.0,36.0,60.0,1.0,0.0
24496,49.0,0.0,120.0,6.0,0.0
24497,73.0,12.0,120.0,4.0,0.0
24498,73.0,0.0,90.0,10.0,0.0
24499,85.0,12.0,90.0,8.0,0.0
24500,61.0,0.0,90.0,12.0,0.0
24501,61.0,0.0,120.0,4.0,0.0
24502,61.0,0.0,120.0,5.0,0.0
24503,73.0,60.0,120.0,5.0,0.0
24504,49.0,0.0,90.0,13.0,0.0
24505,85.0,120.0,60.0,1.0,0.0
24506,73.0,12.0,120.0,4.0,0.0
24507,61.0,0.0,120.0,4.0,0.0
24508,45.0,0.0,90.0,13.0,0.0
24509,69.0,0.0,90.0,10.0,0.0
24510,54.0,60.0,120.0,6.0,0.0
24511,66.0,0.0,120.0,5.0,0.0
24512,81.0,36.0,60.0,1.0,0.0
24513,81.0,0.0,90.0,8.0,0.0
24514,78.0,0.0,120.0,5.0,0.0
24515,57.0,12.0,90.0,12.0,0.0
24516,85.0,120.0,60.0,1.0,0.0
24517,78.0,0.0,120.0,5.0,0.0
24518,66.0,0.0,120.0,5.0,0.0
24519,54.0,12.0,330.0,13.0,0.0
24520,54.0,0.0,360.0,4.0,0.0
24521,90.0,0.0,330.0,8.0,0.0
24522,66.0,12.0,360.0,4.0,0.0
24523,83.0,60.0,60.0,1.0,0.0
24524,66.0,0.0,330.0,12.0,0.0
24525,54.0,60.0,120.0,6.0,0.0
24526,78.0,0.0,330.0,10.0,0.0
24527,81.0,156.0,60.0,1.0,0.0
24528,66.0,0.0,120.0,5.0,0.0
24529,73.0,0.0,120.0,2.0,0.0
24530,78.0,0.0,120.0,5.0,0.0
24531,54.0,60.0,120.0,6.0,0.0
24532,71.0,120.0,60.0,2.0,0.0
24533,54.0,0.0,120.0,6.0,0.0
24534,74.0,12.0,90.0,10.0,0.0
24535,50.0,0.0,90.0,12.0,0.0
24536,54.0,12.0,120.0,4.0,0.0
24537,66.0,0.0,120.0,4.0,0.0
24538,38.0,0.0,90.0,13.0,0.0
24539,86.0,0.0,90.0,8.0,0.0
24540,66.0,60.0,120.0,5.0,0.0
24541,78.0,0.0,120.0,5.0,0.0
24542,71.0,36.0,60.0,2.0,0.0
24543,74.0,120.0,60.0,2.0,0.0
24544,35.0,12.0,90.0,13.0,0.0
24545,66.0,0.0,120.0,5.0,0.0
24546,47.0,0.0,90.0,12.0,0.0
24547,62.0,36.0,60.0,2.0,0.0
24548,54.0,12.0,120.0,4.0,0.0
24549,66.0,0.0,120.0,4.0,0.0
24550,78.0,0.0,120.0,5.0,0.0
24551,71.0,0.0,90.0,10.0,0.0
24552,83.0,0.0,90.0,8.0,0.0
24553,54.0,60.0,120.0,6.0,0.0
24554,74.0,120.0,60.0,2.0,0.0
24555,43.0,0.0,330.0,13.0,0.0
24556,55.0,0.0,330.0,12.0,0.0
24557,73.0,120.0,60.0,2.0,0.0
24558,79.0,0.0,330.0,10.0,0.0
24559,91.0,12.0,330.0,8.0,0.0
24560,67.0,12.0,360.0,4.0,0.0
24561,71.0,156.0,60.0,2.0,0.0
24562,86.0,60.0,120.0,0.0,0.0
24563,85.0,120.0,60.0,0.0,0.0
24564,52.0,0.0,90.0,12.0,0.0
24565,88.0,0.0,90.0,8.0,0.0
24566,76.0,12.0,90.0,10.0,0.0
24567,64.0,72.0,120.0,4.0,0.0
24568,85.0,36.0,60.0,0.0,0.0
24569,40.0,0.0,90.0,13.0,0.0
24570,88.0,120.0,60.0,0.0,0.0
24571,64.0,72.0,120.0,4.0,0.0
24572,85.0,12.0,90.0,8.0,0.0
24573,37.0,0.0,90.0,13.0,0.0
24574,73.0,0.0,90.0,10.0,0.0
24575,76.0,36.0,60.0,0.0,0.0
24576,49.0,0.0,90.0,12.0,0.0
24577,88.0,120.0,60.0,0.0,0.0
24578,54.0,0.0,360.0,6.0,0.0
24579,46.0,0.0,330.0,13.0,0.0
24580,86.0,120.0,60.0,0.0,0.0
24581,58.0,12.0,330.0,12.0,0.0
24582,78.0,0.0,360.0,5.0,0.0
24583,54.0,12.0,360.0,4.0,0.0
24584,66.0,60.0,360.0,5.0,0.0
24585,66.0,0.0,360.0,4.0,0.0
24586,70.0,0.0,330.0,10.0,0.0
24587,82.0,0.0,330.0,8.0,0.0
24588,85.0,156.0,60.0,0.0,0.0
24589,64.0,0.0,120.0,3.0,0.0
24590,62.0,120.0,60.0,3.0,0.0
24591,54.0,0.0,120.0,6.0,0.0
24592,54.0,0.0,120.0,4.0,0.0
24593,66.0,12.0,120.0,4.0,0.0
24594,66.0,0.0,90.0,10.0,0.0
24595,78.0,12.0,90.0,8.0,0.0
24596,66.0,0.0,120.0,5.0,0.0
24597,78.0,60.0,120.0,5.0,0.0
24598,42.0,0.0,90.0,13.0,0.0
24599,54.0,0.0,90.0,12.0,0.0
24600,62.0,36.0,60.0,3.0,0.0
24601,66.0,120.0,60.0,3.0,0.0
24602,62.0,12.0,90.0,10.0,0.0
24603,66.0,0.0,120.0,5.0,0.0
24604,78.0,60.0,120.0,5.0,0.0
24605,74.0,0.0,90.0,8.0,0.0
24606,38.0,0.0,90.0,13.0,0.0
24607,66.0,0.0,120.0,4.0,0.0
24608,50.0,0.0,90.0,12.0,0.0
24609,54.0,0.0,120.0,6.0,0.0
24610,54.0,36.0,60.0,3.0,0.0
24611,54.0,12.0,120.0,4.0,0.0
24612,66.0,120.0,60.0,3.0,0.0
24613,60.0,0.0,330.0,12.0,0.0
24614,66.0,12.0,360.0,4.0,0.0
24615,72.0,0.0,330.0,10.0,0.0
24616,78.0,60.0,360.0,5.0,0.0
24617,54.0,0.0,360.0,4.0,0.0
24618,84.0,12.0,330.0,8.0,0.0
24619,48.0,0.0,330.0,13.0,0.0
24620,66.0,0.0,360.0,5.0,0.0
24621,54.0,0.0,360.0,6.0,0.0
24622,64.0,120.0,60.0,3.0,0.0
24623,62.0,156.0,60.0,3.0,0.0
24624,80.0,0.0,120.0,1.0,0.0
24625,78.0,120.0,60.0,1.0,0.0
24626,66.0,12.0,90.0,10.0,0.0
24627,42.0,0.0,90.0,13.0,0.0
24628,54.0,0.0,90.0,12.0,0.0
24629,54.0,12.0,120.0,4.0,0.0
24630,78.0,0.0,90.0,8.0,0.0
24631,78.0,0.0,120.0,5.0,0.0
24632,66.0,0.0,120.0,4.0,0.0
24633,54.0,60.0,120.0,6.0,0.0
24634,78.0,36.0,60.0,1.0,0.0
24635,66.0,0.0,120.0,5.0,0.0
24636,81.0,120.0,60.0,1.0,0.0
24637,66.0,60.0,120.0,5.0,0.0
24638,78.0,0.0,120.0,5.0,0.0
24639,62.0,0.0,90.0,10.0,0.0
24640,54.0,12.0,120.0,4.0,0.0
24641,38.0,0.0,90.0,13.0,0.0
24642,50.0,12.0,90.0,12.0,0.0
24643,78.0,36.0,60.0,1.0,0.0
24644,54.0,0.0,120.0,6.0,0.0
24645,66.0,0.0,120.0,4.0,0.0
24646,74.0,0.0,90.0,8.0,0.0
24647,81.0,120.0,60.0,1.0,0.0
24648,78.0,60.0,360.0,5.0,0.0
24649,79.0,120.0,60.0,1.0,0.0
24650,72.0,12.0,330.0,10.0,0.0
24651,60.0,0.0,330.0,12.0,0.0
24652,66.0,0.0,360.0,5.0,0.0
24653,54.0,0.0,360.0,6.0,0.0
24654,48.0,0.0,330.0,13.0,0.0
24655,84.0,0.0,330.0,8.0,0.0
24656,50.0,12.0,360.0,4.0,0.0
24657,78.0,156.0,60.0,1.0,0.0
24658,88.0,0.0,120.0,0.0,0.0
24659,86.0,120.0,60.0,0.0,0.0
24660,78.0,0.0,120.0,5.0,0.0
24661,66.0,60.0,120.0,5.0,0.0
24662,42.0,0.0,90.0,13.0,0.0
24663,54.0,0.0,120.0,6.0,0.0
24664,62.0,0.0,120.0,4.0,0.0
24665,78.0,0.0,90.0,8.0,0.0
24666,54.0,12.0,90.0,12.0,0.0
24667,66.0,0.0,90.0,10.0,0.0
24668,86.0,36.0,60.0,0.0,0.0
24669,50.0,12.0,120.0,4.0,0.0
24670,90.0,120.0,60.0,0.0,0.0
24671,50.0,0.0,90.0,12.0,0.0
24672,74.0,0.0,90.0,8.0,0.0
24673,78.0,36.0,60.0,0.0,0.0
24674,62.0,0.0,120.0,4.0,0.0
24675,54.0,60.0,120.0,6.0,0.0
24676,50.0,12.0,120.0,4.0,0.0
24677,62.0,12.0,90.0,10.0,0.0
24678,38.0,0.0,90.0,13.0,0.0
24679,66.0,0.0,120.0,5.0,0.0
24680,78.0,0.0,120.0,5.0,0.0
24681,90.0,120.0,60.0,0.0,0.0
24682,71.0,0.0,330.0,10.0,0.0
24683,59.0,0.0,330.0,12.0,0.0
24684,83.0,0.0,330.0,8.0,0.0
24685,88.0,120.0,60.0,0.0,0.0
24686,47.0,12.0,330.0,13.0,0.0
24687,62.0,0.0,360.0,4.0,0.0
24688,50.0,12.0,360.0,4.0,0.0
24689,86.0,156.0,60.0,0.0,0.0
24690,81.0,60.0,120.0,2.0,0.0
24691,79.0,120.0,60.0,2.0,0.0
24692,50.0,0.0,120.0,4.0,0.0
24693,79.0,0.0,90.0,8.0,0.0
24694,79.0,32.0,60.0,2.0,0.0
24695,43.0,12.0,90.0,13.0,0.0
24696,62.0,4.0,90.0,4.0,0.0
24697,55.0,0.0,90.0,12.0,0.0
24698,67.0,0.0,90.0,10.0,0.0
24699,83.0,70.0,60.0,2.0,0.0
24700,50.0,0.0,90.0,12.0,0.0
24701,50.0,32.0,120.0,4.0,0.0
24702,38.0,0.0,90.0,13.0,0.0
24703,79.0,36.0,60.0,2.0,0.0
24704,62.0,12.0,90.0,10.0,0.0
24705,74.0,0.0,90.0,8.0,0.0
24706,62.0,50.0,15.0,4.0,0.0
24707,62.0,40.0,120.0,4.0,0.0
24708,83.0,120.0,60.0,2.0,0.0
24709,62.0,66.0,300.0,4.0,0.0
24710,71.0,0.0,330.0,10.0,0.0
24711,47.0,12.0,330.0,13.0,0.0
24712,59.0,0.0,330.0,12.0,0.0
24713,83.0,0.0,330.0,8.0,0.0
24714,81.0,120.0,60.0,2.0,0.0
24715,50.0,12.0,360.0,4.0,0.0
24716,79.0,90.0,60.0,2.0,0.0
24717,91.0,60.0,120.0,0.0,0.0
24718,90.0,120.0,60.0,0.0,0.0
24719,78.0,0.0,120.0,5.0,0.0
24720,66.0,60.0,120.0,5.0,0.0
24721,54.0,0.0,120.0,6.0,0.0
24722,54.0,0.0,90.0,12.0,0.0
24723,78.0,12.0,90.0,8.0,0.0
24724,66.0,0.0,90.0,10.0,0.0
24725,90.0,36.0,60.0,0.0,0.0
24726,42.0,0.0,90.0,13.0,0.0
24727,54.0,0.0,120.0,4.0,0.0
24728,66.0,12.0,120.0,4.0,0.0
24729,93.0,120.0,60.0,0.0,0.0
24730,66.0,60.0,120.0,5.0,0.0
24731,62.0,12.0,90.0,10.0,0.0
24732,50.0,0.0,90.0,12.0,0.0
24733,54.0,0.0,120.0,6.0,0.0
24734,66.0,0.0,120.0,4.0,0.0
24735,78.0,0.0,120.0,5.0,0.0
24736,54.0,12.0,120.0,4.0,0.0
24737,38.0,0.0,90.0,13.0,0.0
24738,90.0,36.0,60.0,0.0,0.0
24739,74.0,0.0,90.0,8.0,0.0
24740,93.0,120.0,60.0,0.0,0.0
24741,71.0,0.0,330.0,10.0,0.0
24742,83.0,12.0,330.0,8.0,0.0
24743,47.0,0.0,330.0,13.0,0.0
24744,54.0,60.0,120.0,6.0,0.0
24745,54.0,12.0,360.0,4.0,0.0
24746,59.0,0.0,330.0,12.0,0.0
24747,66.0,0.0,360.0,4.0,0.0
24748,66.0,0.0,360.0,5.0,0.0
24749,78.0,0.0,360.0,5.0,0.0
24750,91.0,60.0,60.0,0.0,0.0
24751,90.0,156.0,60.0,0.0,0.0
24752,80.0,0.0,120.0,1.0,0.0
24753,54.0,60.0,120.0,6.0,0.0
24754,68.0,0.0,120.0,3.0,0.0
24755,66.0,120.0,60.0,3.0,0.0
24756,78.0,0.0,60.0,1.0,0.0
24757,42.0,0.0,90.0,13.0,0.0
24758,66.0,0.0,90.0,10.0,0.0
24759,78.0,12.0,90.0,8.0,0.0
24760,78.0,0.0,60.0,1.0,0.0
24761,54.0,0.0,90.0,12.0,0.0
24762,54.0,0.0,120.0,6.0,0.0
24763,78.0,60.0,120.0,5.0,0.0
24764,66.0,36.0,60.0,3.0,0.0
24765,54.0,12.0,120.0,4.0,0.0
24766,66.0,0.0,120.0,4.0,0.0
24767,66.0,0.0,120.0,5.0,0.0
24768,81.0,0.0,60.0,1.0,0.0
24769,69.0,120.0,60.0,3.0,0.0
24770,73.0,0.0,90.0,8.0,0.0
24771,49.0,12.0,90.0,12.0,0.0
24772,54.0,0.0,120.0,4.0,0.0
24773,37.0,0.0,90.0,13.0,0.0
24774,78.0,36.0,60.0,1.0,0.0
24775,66.0,12.0,120.0,4.0,0.0
24776,78.0,0.0,120.0,5.0,0.0
24777,61.0,0.0,90.0,10.0,0.0
24778,54.0,0.0,120.0,6.0,0.0
24779,66.0,0.0,60.0,3.0,0.0
24780,66.0,60.0,120.0,5.0,0.0
24781,81.0,108.0,60.0,1.0,0.0
24782,69.0,0.0,60.0,3.0,0.0
24783,85.0,0.0,960.0,0.0,0.0
24784,97.0,0.0,960.0,0.0,0.0
24785,61.0,6.0,1290.0,4.0,0.0
24786,61.0,0.0,60.0,11.0,0.0
24787,45.0,12.0,60.0,13.0,0.0
24788,80.0,0.0,60.0,1.0,0.0
24789,73.0,0.0,1290.0,5.0,0.0
24790,61.0,0.0,1290.0,5.0,0.0
24791,73.0,0.0,60.0,10.0,0.0
24792,57.0,60.0,1020.0,4.0,0.0
24793,69.0,0.0,1020.0,4.0,0.0
24794,85.0,0.0,60.0,8.0,0.0
24795,73.0,0.0,1290.0,4.0,0.0
24796,57.0,0.0,60.0,12.0,0.0
24797,68.0,48.0,60.0,3.0,0.0
24798,49.0,0.0,60.0,6.0,0.0
24799,73.0,60.0,60.0,10.0,0.0
24800,57.0,0.0,60.0,12.0,0.0
24801,49.0,0.0,60.0,6.0,0.0
24802,61.0,0.0,60.0,11.0,0.0
24803,85.0,0.0,60.0,8.0,0.0
24804,45.0,0.0,60.0,13.0,0.0
24805,45.0,12.0,60.0,13.0,0.0
24806,78.0,48.0,60.0,1.0,0.0
24807,66.0,0.0,60.0,3.0,0.0
24808,85.0,0.0,60.0,8.0,0.0
24809,57.0,0.0,60.0,12.0,0.0
24810,49.0,0.0,60.0,6.0,0.0
24811,61.0,0.0,60.0,11.0,0.0
24812,73.0,0.0,60.0,10.0,0.0
24813,61.0,60.0,60.0,11.0,0.0
24814,85.0,0.0,60.0,8.0,0.0
24815,73.0,0.0,60.0,10.0,0.0
24816,57.0,0.0,60.0,12.0,0.0
24817,49.0,0.0,60.0,6.0,0.0
24818,45.0,0.0,60.0,13.0,0.0
24819,61.0,0.0,60.0,11.0,0.0
24820,73.0,0.0,60.0,11.0,0.0
24821,73.0,0.0,60.0,10.0,0.0
24822,73.0,0.0,2010.0,1.0,0.0
24823,73.0,0.0,720.0,2.0,0.0
24824,85.0,6.0,2010.0,1.0,0.0
24825,45.0,0.0,60.0,13.0,0.0
24826,85.0,48.0,720.0,2.0,0.0
24827,85.0,60.0,60.0,8.0,0.0
24828,57.0,0.0,780.0,3.0,0.0
24829,69.0,0.0,780.0,3.0,0.0
24830,57.0,0.0,60.0,12.0,0.0
24831,49.0,0.0,60.0,6.0,0.0
24832,57.0,0.0,60.0,12.0,0.0
24833,49.0,0.0,60.0,6.0,0.0
24834,61.0,0.0,60.0,11.0,0.0
24835,85.0,0.0,60.0,8.0,0.0
24836,73.0,0.0,60.0,10.0,0.0
24837,73.0,60.0,60.0,11.0,0.0
24838,45.0,0.0,60.0,13.0,0.0
24839,49.0,0.0,60.0,6.0,0.0
24840,61.0,0.0,60.0,11.0,0.0
24841,73.0,0.0,60.0,11.0,0.0
24842,85.0,0.0,60.0,8.0,0.0
24843,73.0,0.0,60.0,10.0,0.0
24844,57.0,60.0,60.0,12.0,0.0
24845,45.0,0.0,60.0,13.0,0.0
24846,73.0,0.0,60.0,11.0,0.0
24847,61.0,0.0,60.0,11.0,0.0
24848,45.0,0.0,60.0,13.0,0.0
24849,49.0,60.0,60.0,6.0,0.0
24850,57.0,0.0,60.0,12.0,0.0
24851,73.0,0.0,60.0,10.0,0.0
24852,85.0,0.0,60.0,8.0,0.0
24853,87.0,0.0,60.0,8.0,0.0
24854,45.0,0.0,60.0,13.0,0.0
24855,61.0,0.0,60.0,11.0,0.0
24856,73.0,0.0,60.0,11.0,0.0
24857,49.0,60.0,60.0,6.0,0.0
24858,57.0,0.0,60.0,12.0,0.0
24859,75.0,0.0,60.0,10.0,0.0
24860,49.0,0.0,60.0,6.0,0.0
24861,87.0,60.0,60.0,8.0,0.0
24862,73.0,0.0,60.0,11.0,0.0
24863,61.0,0.0,60.0,11.0,0.0
24864,75.0,0.0,60.0,10.0,0.0
24865,45.0,0.0,60.0,13.0,0.0
24866,57.0,0.0,60.0,12.0,0.0
24867,45.0,0.0,60.0,13.0,0.0
24868,57.0,0.0,60.0,12.0,0.0
24869,49.0,0.0,60.0,6.0,0.0
24870,61.0,0.0,60.0,11.0,0.0
24871,75.0,60.0,60.0,10.0,0.0
24872,87.0,0.0,60.0,8.0,0.0
24873,73.0,0.0,60.0,11.0,0.0
24874,75.0,0.0,60.0,10.0,0.0
24875,45.0,0.0,60.0,13.0,0.0
24876,73.0,0.0,60.0,11.0,0.0
24877,87.0,60.0,60.0,8.0,0.0
24878,61.0,0.0,60.0,11.0,0.0
24879,57.0,0.0,60.0,12.0,0.0
24880,49.0,0.0,60.0,6.0,0.0
24881,45.0,0.0,60.0,13.0,0.0
24882,49.0,0.0,60.0,6.0,0.0
24883,77.0,0.0,60.0,10.0,0.0
24884,73.0,0.0,60.0,11.0,0.0
24885,89.0,0.0,60.0,8.0,0.0
24886,61.0,0.0,60.0,11.0,0.0
24887,57.0,60.0,60.0,12.0,0.0
24888,73.0,0.0,60.0,11.0,0.0
24889,57.0,60.0,60.0,12.0,0.0
24890,89.0,0.0,60.0,8.0,0.0
24891,45.0,0.0,60.0,13.0,0.0
24892,61.0,0.0,60.0,11.0,0.0
24893,77.0,0.0,60.0,10.0,0.0
24894,49.0,0.0,60.0,6.0,0.0
24895,89.0,60.0,60.0,8.0,0.0
24896,57.0,0.0,60.0,12.0,0.0
24897,49.0,0.0,60.0,6.0,0.0
24898,77.0,0.0,60.0,10.0,0.0
24899,73.0,0.0,60.0,11.0,0.0
24900,61.0,0.0,60.0,11.0,0.0
24901,45.0,0.0,60.0,13.0,0.0
24902,45.0,0.0,60.0,13.0,0.0
24903,89.0,0.0,60.0,8.0,0.0
24904,77.0,0.0,60.0,10.0,0.0
24905,49.0,0.0,60.0,6.0,0.0
24906,73.0,12.0,60.0,11.0,0.0
24907,57.0,0.0,60.0,12.0,0.0
24908,61.0,0.0,60.0,11.0,0.0
24909,49.0,0.0,60.0,6.0,0.0
24910,61.0,0.0,60.0,11.0,0.0
24911,73.0,0.0,60.0,11.0,0.0
24912,96.0,0.0,240.0,0.0,0.0
24913,57.0,0.0,60.0,12.0,0.0
24914,84.0,0.0,240.0,0.0,0.0
24915,84.0,48.0,240.0,2.0,0.0
24916,45.0,0.0,60.0,13.0,0.0
24917,72.0,0.0,240.0,2.0,0.0
24918,90.0,0.0,60.0,8.0,0.0
24919,78.0,0.0,60.0,10.0,0.0
24920,90.0,0.0,60.0,8.0,0.0
24921,45.0,60.0,60.0,13.0,0.0
24922,49.0,0.0,60.0,6.0,0.0
24923,61.0,0.0,60.0,11.0,0.0
24924,73.0,0.0,60.0,11.0,0.0
24925,57.0,0.0,60.0,12.0,0.0
24926,78.0,0.0,60.0,10.0,0.0
24927,49.0,0.0,60.0,6.0,0.0
24928,90.0,60.0,60.0,8.0,0.0
24929,73.0,0.0,60.0,11.0,0.0
24930,45.0,0.0,60.0,13.0,0.0
24931,61.0,0.0,60.0,11.0,0.0
24932,57.0,0.0,60.0,12.0,0.0
24933,78.0,0.0,60.0,10.0,0.0
24934,45.0,0.0,60.0,13.0,0.0
24935,90.0,0.0,60.0,8.0,0.0
24936,61.0,0.0,60.0,11.0,0.0
24937,73.0,0.0,60.0,11.0,0.0
24938,78.0,0.0,60.0,10.0,0.0
24939,57.0,12.0,60.0,12.0,0.0
24940,49.0,0.0,60.0,6.0,0.0
24941,95.0,0.0,90.0,0.0,0.0
24942,83.0,6.0,90.0,0.0,0.0
24943,80.0,0.0,60.0,10.0,0.0
24944,83.0,0.0,90.0,2.0,0.0
24945,56.0,48.0,60.0,12.0,0.0
24946,71.0,0.0,90.0,2.0,0.0
24947,49.0,0.0,60.0,6.0,0.0
24948,59.0,0.0,90.0,3.0,0.0
24949,71.0,0.0,90.0,3.0,0.0
24950,71.0,0.0,60.0,11.0,0.0
24951,44.0,0.0,60.0,13.0,0.0
24952,92.0,0.0,60.0,8.0,0.0
24953,92.0,60.0,60.0,8.0,0.0
24954,44.0,0.0,60.0,13.0,0.0
24955,80.0,0.0,60.0,10.0,0.0
24956,49.0,0.0,60.0,6.0,0.0
24957,71.0,0.0,60.0,11.0,0.0
24958,56.0,0.0,60.0,12.0,0.0
24959,81.0,0.0,120.0,2.0,0.0
24960,80.0,0.0,60.0,10.0,0.0
24961,69.0,0.0,120.0,2.0,0.0
24962,69.0,0.0,60.0,11.0,0.0
24963,61.0,12.0,90.0,5.0,0.0
24964,73.0,0.0,90.0,5.0,0.0
24965,61.0,6.0,210.0,4.0,0.0
24966,73.0,0.0,210.0,4.0,0.0
24967,56.0,0.0,60.0,12.0,0.0
24968,57.0,0.0,120.0,3.0,0.0
24969,69.0,0.0,120.0,3.0,0.0
24970,44.0,0.0,60.0,13.0,0.0
24971,92.0,0.0,60.0,8.0,0.0
24972,93.0,48.0,120.0,0.0,0.0
24973,81.0,0.0,120.0,0.0,0.0
24974,49.0,48.0,60.0,6.0,0.0
24975,56.0,0.0,60.0,12.0,0.0
24976,80.0,0.0,60.0,10.0,0.0
24977,44.0,0.0,60.0,13.0,0.0
24978,69.0,12.0,60.0,11.0,0.0
24979,92.0,0.0,60.0,8.0,0.0
24980,49.0,0.0,60.0,6.0,0.0
24981,49.0,0.0,60.0,6.0,0.0
24982,44.0,0.0,60.0,13.0,0.0
24983,93.0,48.0,60.0,8.0,0.0
24984,61.0,0.0,90.0,5.0,0.0
24985,92.0,0.0,90.0,0.0,0.0
24986,56.0,0.0,60.0,12.0,0.0
24987,81.0,0.0,60.0,10.0,0.0
24988,80.0,0.0,90.0,2.0,0.0
24989,68.0,0.0,90.0,2.0,0.0
24990,68.0,0.0,60.0,11.0,0.0
24991,68.0,0.0,90.0,3.0,0.0
24992,56.0,0.0,90.0,3.0,0.0
24993,80.0,6.0,90.0,0.0,0.0
24994,73.0,0.0,90.0,5.0,0.0
24995,56.0,0.0,60.0,12.0,0.0
24996,44.0,0.0,60.0,13.0,0.0
24997,93.0,60.0,60.0,8.0,0.0
24998,49.0,0.0,60.0,6.0,0.0
24999,81.0,0.0,60.0,10.0,0.0
25000,68.0,0.0,60.0,11.0,0.0
25001,81.0,0.0,60.0,10.0,0.0
25002,78.0,0.0,120.0,0.0,0.0
25003,49.0,0.0,60.0,6.0,0.0
25004,90.0,0.0,120.0,0.0,0.0
25005,78.0,0.0,120.0,2.0,0.0
25006,44.0,0.0,60.0,13.0,0.0
25007,66.0,48.0,120.0,2.0,0.0
25008,66.0,0.0,60.0,11.0,0.0
25009,56.0,48.0,60.0,12.0,0.0
25010,73.0,0.0,210.0,4.0,0.0
25011,54.0,0.0,120.0,3.0,0.0
25012,61.0,12.0,90.0,5.0,0.0
25013,73.0,0.0,90.0,5.0,0.0
25014,61.0,6.0,210.0,4.0,0.0
25015,93.0,0.0,60.0,8.0,0.0
25016,66.0,0.0,120.0,3.0,0.0
25017,93.0,12.0,60.0,8.0,0.0
25018,56.0,0.0,60.0,12.0,0.0
25019,81.0,0.0,60.0,10.0,0.0
25020,44.0,0.0,60.0,13.0,0.0
25021,49.0,0.0,60.0,6.0,0.0
25022,66.0,0.0,60.0,11.0,0.0
25023,65.0,0.0,90.0,3.0,0.0
25024,49.0,0.0,60.0,6.0,0.0
25025,83.0,0.0,60.0,10.0,0.0
25026,95.0,48.0,60.0,8.0,0.0
25027,77.0,0.0,90.0,0.0,0.0
25028,53.0,0.0,90.0,3.0,0.0
25029,89.0,6.0,90.0,0.0,0.0
25030,65.0,0.0,60.0,11.0,0.0
25031,61.0,0.0,90.0,5.0,0.0
25032,65.0,0.0,90.0,2.0,0.0
25033,77.0,0.0,90.0,2.0,0.0
25034,56.0,0.0,60.0,12.0,0.0
25035,44.0,0.0,60.0,13.0,0.0
25036,73.0,0.0,90.0,5.0,0.0
25037,49.0,0.0,60.0,6.0,0.0
25038,65.0,0.0,60.0,11.0,0.0
25039,56.0,0.0,60.0,12.0,0.0
25040,83.0,0.0,60.0,10.0,0.0
25041,44.0,0.0,60.0,13.0,0.0
25042,95.0,60.0,60.0,8.0,0.0
25043,95.0,0.0,60.0,8.0,0.0
25044,50.0,0.0,120.0,3.0,0.0
25045,62.0,0.0,120.0,3.0,0.0
25046,86.0,0.0,120.0,0.0,0.0
25047,74.0,48.0,120.0,0.0,0.0
25048,73.0,12.0,90.0,5.0,0.0
25049,49.0,0.0,60.0,6.0,0.0
25050,44.0,0.0,60.0,13.0,0.0
25051,61.0,0.0,90.0,5.0,0.0
25052,62.0,48.0,60.0,11.0,0.0
25053,73.0,0.0,210.0,4.0,0.0
25054,56.0,0.0,60.0,12.0,0.0
25055,74.0,0.0,120.0,2.0,0.0
25056,62.0,0.0,120.0,2.0,0.0
25057,61.0,0.0,210.0,4.0,0.0
25058,83.0,0.0,60.0,10.0,0.0
25059,56.0,0.0,60.0,12.0,0.0
25060,95.0,0.0,60.0,8.0,0.0
25061,49.0,12.0,60.0,6.0,0.0
25062,62.0,0.0,60.0,11.0,0.0
25063,83.0,0.0,60.0,10.0,0.0
25064,44.0,0.0,60.0,13.0,0.0
25065,56.0,0.0,60.0,12.0,0.0
25066,49.0,0.0,60.0,6.0,0.0
25067,49.0,0.0,90.0,3.0,0.0
25068,61.0,6.0,90.0,2.0,0.0
25069,73.0,0.0,90.0,2.0,0.0
25070,85.0,48.0,60.0,10.0,0.0
25071,61.0,0.0,90.0,3.0,0.0
25072,85.0,0.0,90.0,0.0,0.0
25073,73.0,0.0,90.0,0.0,0.0
25074,97.0,0.0,60.0,8.0,0.0
25075,61.0,0.0,60.0,11.0,0.0
25076,73.0,6.0,90.0,5.0,0.0
25077,61.0,0.0,90.0,5.0,0.0
25078,44.0,0.0,60.0,13.0,0.0
25079,56.0,0.0,60.0,12.0,0.0
25080,85.0,0.0,60.0,10.0,0.0
25081,44.0,0.0,60.0,13.0,0.0
25082,97.0,0.0,60.0,8.0,0.0
25083,61.0,60.0,60.0,11.0,0.0
25084,49.0,0.0,60.0,6.0,0.0
25085,97.0,0.0,60.0,8.0,0.0
25086,56.0,0.0,60.0,12.0,0.0
25087,47.0,0.0,120.0,3.0,0.0
25088,59.0,0.0,120.0,3.0,0.0
25089,59.0,0.0,120.0,2.0,0.0
25090,71.0,60.0,120.0,2.0,0.0
25091,71.0,0.0,120.0,0.0,0.0
25092,61.0,0.0,90.0,5.0,0.0
25093,73.0,0.0,90.0,4.0,0.0
25094,44.0,0.0,60.0,13.0,0.0
25095,83.0,0.0,120.0,0.0,0.0
25096,59.0,0.0,60.0,11.0,0.0
25097,61.0,0.0,90.0,4.0,0.0
25098,85.0,48.0,60.0,10.0,0.0
25099,73.0,12.0,90.0,5.0,0.0
25100,49.0,0.0,60.0,6.0,0.0
25101,59.0,0.0,60.0,11.0,0.0
25102,85.0,0.0,60.0,10.0,0.0
25103,56.0,0.0,60.0,12.0,0.0
25104,44.0,12.0,60.0,13.0,0.0
25105,49.0,0.0,60.0,6.0,0.0
25106,97.0,0.0,60.0,8.0,0.0
25107,85.0,0.0,120.0,10.0,0.0
25108,54.0,24.0,210.0,6.0,0.0
25109,73.0,0.0,120.0,10.0,0.0
25110,66.0,0.0,60.0,4.0,0.0
25111,54.0,6.0,90.0,3.0,0.0
25112,93.0,0.0,90.0,0.0,0.0
25113,81.0,0.0,90.0,0.0,0.0
25114,54.0,0.0,60.0,4.0,0.0
25115,66.0,0.0,90.0,3.0,0.0
25116,81.0,0.0,90.0,2.0,0.0
25117,57.0,0.0,120.0,11.0,0.0
25118,54.0,72.0,120.0,12.0,0.0
25119,78.0,0.0,60.0,5.0,0.0
25120,66.0,0.0,60.0,5.0,0.0
25121,85.0,0.0,120.0,8.0,0.0
25122,69.0,0.0,90.0,2.0,0.0
25123,97.0,0.0,120.0,8.0,0.0
25124,42.0,0.0,120.0,13.0,0.0
25125,92.0,0.0,120.0,0.0,0.0
25126,80.0,0.0,120.0,0.0,0.0
25127,78.0,0.0,60.0,5.0,0.0
25128,66.0,36.0,60.0,5.0,0.0
25129,85.0,6.0,210.0,1.0,0.0
25130,73.0,0.0,210.0,1.0,0.0
25131,52.0,0.0,120.0,3.0,0.0
25132,64.0,60.0,120.0,3.0,0.0
25133,66.0,0.0,180.0,4.0,0.0
25134,54.0,0.0,180.0,4.0,0.0
25135,68.0,0.0,120.0,2.0,0.0
25136,80.0,0.0,120.0,2.0,0.0
25137,66.0,0.0,90.0,2.0,0.0
25138,78.0,0.0,90.0,2.0,0.0
25139,66.0,0.0,60.0,5.0,0.0
25140,78.0,0.0,60.0,5.0,0.0
25141,90.0,78.0,90.0,0.0,0.0
25142,78.0,0.0,90.0,0.0,0.0
25143,62.0,0.0,90.0,3.0,0.0
25144,50.0,0.0,90.0,3.0,0.0
25145,88.0,0.0,120.0,0.0,0.0
25146,78.0,0.0,60.0,5.0,0.0
25147,76.0,0.0,120.0,2.0,0.0
25148,61.0,0.0,120.0,3.0,0.0
25149,49.0,60.0,120.0,3.0,0.0
25150,78.0,0.0,210.0,1.0,0.0
25151,90.0,6.0,210.0,1.0,0.0
25152,66.0,60.0,60.0,5.0,0.0
25153,64.0,0.0,120.0,2.0,0.0
25154,54.0,0.0,180.0,4.0,0.0
25155,76.0,0.0,120.0,0.0,0.0
25156,66.0,0.0,180.0,4.0,0.0
25157,62.0,78.0,90.0,2.0,0.0
25158,74.0,0.0,90.0,2.0,0.0
25159,59.0,0.0,90.0,3.0,0.0
25160,47.0,0.0,90.0,3.0,0.0
25161,66.0,0.0,60.0,5.0,0.0
25162,78.0,36.0,60.0,5.0,0.0
25163,74.0,0.0,90.0,0.0,0.0
25164,86.0,0.0,90.0,0.0,0.0
25165,85.0,0.0,120.0,0.0,0.0
25166,90.0,6.0,210.0,1.0,0.0
25167,66.0,0.0,180.0,4.0,0.0
25168,78.0,0.0,210.0,1.0,0.0
25169,66.0,0.0,60.0,5.0,0.0
25170,73.0,0.0,120.0,0.0,0.0
25171,78.0,60.0,60.0,5.0,0.0
25172,73.0,60.0,120.0,2.0,0.0
25173,57.0,0.0,120.0,3.0,0.0
25174,45.0,0.0,120.0,3.0,0.0
25175,61.0,0.0,120.0,2.0,0.0
25176,54.0,0.0,180.0,4.0,0.0
25177,66.0,0.0,60.0,5.0,0.0
25178,56.0,0.0,90.0,3.0,0.0
25179,78.0,0.0,60.0,5.0,0.0
25180,44.0,0.0,90.0,3.0,0.0
25181,83.0,0.0,90.0,0.0,0.0
25182,59.0,0.0,90.0,2.0,0.0
25183,71.0,78.0,90.0,2.0,0.0
25184,71.0,0.0,90.0,0.0,0.0
25185,78.0,36.0,60.0,5.0,0.0
25186,57.0,120.0,120.0,2.0,0.0
25187,69.0,0.0,120.0,2.0,0.0
25188,78.0,0.0,90.0,1.0,0.0
25189,42.0,0.0,120.0,3.0,0.0
25190,54.0,0.0,120.0,3.0,0.0
25191,69.0,0.0,120.0,0.0,0.0
25192,81.0,0.0,120.0,0.0,0.0
25193,90.0,24.0,90.0,1.0,0.0
25194,54.0,0.0,60.0,4.0,0.0
25195,66.0,0.0,60.0,4.0,0.0
25196,66.0,0.0,60.0,5.0,0.0
25197,66.0,0.0,120.0,5.0,0.0
25198,78.0,0.0,120.0,5.0,0.0
25199,80.0,0.0,120.0,1.0,0.0
25200,90.0,0.0,120.0,1.0,0.0
25201,47.0,240.0,120.0,3.0,0.0
25202,59.0,0.0,120.0,3.0,0.0
25203,54.0,0.0,120.0,6.0,0.0
25204,66.0,0.0,120.0,4.0,0.0
25205,92.0,0.0,120.0,0.0,0.0
25206,62.0,0.0,120.0,4.0,0.0
25207,80.0,0.0,120.0,2.0,0.0
25208,78.0,0.0,120.0,2.0,0.0
25209,68.0,0.0,120.0,4.0,0.0
25210,62.0,0.0,120.0,3.0,0.0
25211,62.0,0.0,120.0,12.0,0.0
25212,50.0,0.0,120.0,13.0,0.0
25213,78.0,0.0,120.0,8.0,0.0
25214,62.0,0.0,120.0,4.0,0.0
25215,68.0,0.0,120.0,4.0,0.0
25216,66.0,0.0,120.0,4.0,0.0
25217,50.0,0.0,120.0,3.0,0.0
25218,68.0,0.0,120.0,10.0,0.0
25219,66.0,0.0,120.0,5.0,0.0
25220,78.0,0.0,120.0,2.0,0.0
25221,62.0,0.0,120.0,11.0,0.0
25222,66.0,0.0,120.0,11.0,0.0
25223,80.0,0.0,120.0,8.0,0.0
25224,80.0,240.0,120.0,2.0,0.0
25225,66.0,0.0,120.0,10.0,0.0
25226,92.0,0.0,120.0,0.0,0.0
25227,54.0,0.0,120.0,6.0,0.0
25228,78.0,0.0,120.0,5.0,0.0
25229,90.0,0.0,120.0,1.0,0.0
25230,80.0,0.0,120.0,1.0,0.0
25231,73.0,0.0,120.0,5.0,0.0
25232,61.0,240.0,120.0,5.0,0.0
25233,61.0,0.0,120.0,3.0,0.0
25234,49.0,0.0,120.0,3.0,0.0
25235,49.0,0.0,120.0,6.0,0.0
25236,92.0,0.0,120.0,0.0,0.0
25237,61.0,0.0,120.0,3.0,0.0
25238,49.0,0.0,120.0,3.0,0.0
25239,77.0,0.0,120.0,2.0,0.0
25240,77.0,0.0,120.0,8.0,0.0
25241,80.0,0.0,120.0,8.0,0.0
25242,89.0,168.0,120.0,1.0,0.0
25243,80.0,0.0,120.0,1.0,0.0
25244,68.0,0.0,120.0,10.0,0.0
25245,61.0,0.0,120.0,11.0,0.0
25246,73.0,0.0,120.0,5.0,0.0
25247,61.0,0.0,120.0,5.0,0.0
25248,65.0,0.0,120.0,10.0,0.0
25249,71.0,0.0,120.0,11.0,0.0
25250,49.0,0.0,120.0,6.0,0.0
25251,61.0,0.0,120.0,12.0,0.0
25252,49.0,0.0,120.0,13.0,0.0
25253,61.0,0.0,120.0,4.0,0.0
25254,68.0,0.0,120.0,4.0,0.0
25255,80.0,0.0,120.0,2.0,0.0
25256,61.0,6.0,1050.0,5.0,0.0
25257,49.0,60.0,60.0,6.0,0.0
25258,73.0,0.0,1050.0,5.0,0.0
25259,73.0,48.0,720.0,12.0,0.0
25260,61.0,0.0,720.0,13.0,0.0
25261,49.0,60.0,60.0,6.0,0.0
25262,49.0,60.0,60.0,6.0,0.0
25263,49.0,60.0,60.0,6.0,0.0
25264,49.0,60.0,60.0,6.0,0.0
25265,49.0,60.0,60.0,6.0,0.0
25266,49.0,60.0,60.0,6.0,0.0
25267,49.0,60.0,60.0,6.0,0.0
25268,49.0,60.0,60.0,6.0,0.0
25269,49.0,60.0,60.0,6.0,0.0
25270,49.0,60.0,60.0,6.0,0.0
25271,49.0,12.0,60.0,6.0,0.0
25272,49.0,60.0,60.0,6.0,0.0
25273,72.0,0.0,240.0,12.0,0.0
25274,60.0,48.0,240.0,13.0,0.0
25275,49.0,60.0,60.0,6.0,0.0
25276,49.0,60.0,60.0,6.0,0.0
25277,49.0,12.0,60.0,6.0,0.0
25278,61.0,6.0,2010.0,4.0,0.0
25279,73.0,0.0,2010.0,4.0,0.0
25280,71.0,6.0,90.0,12.0,0.0
25281,85.0,0.0,1680.0,1.0,0.0
25282,59.0,0.0,90.0,13.0,0.0
25283,49.0,48.0,60.0,6.0,0.0
25284,49.0,60.0,60.0,6.0,0.0
25285,57.0,0.0,120.0,13.0,0.0
25286,49.0,60.0,60.0,6.0,0.0
25287,69.0,48.0,120.0,12.0,0.0
25288,73.0,0.0,210.0,5.0,0.0
25289,61.0,6.0,210.0,5.0,0.0
25290,49.0,12.0,60.0,6.0,0.0
25291,49.0,48.0,60.0,6.0,0.0
25292,56.0,6.0,90.0,13.0,0.0
25293,68.0,0.0,90.0,12.0,0.0
25294,49.0,60.0,60.0,6.0,0.0
25295,61.0,6.0,210.0,5.0,0.0
25296,66.0,0.0,120.0,12.0,0.0
25297,49.0,60.0,60.0,6.0,0.0
25298,54.0,48.0,120.0,13.0,0.0
25299,73.0,0.0,210.0,5.0,0.0
25300,49.0,12.0,60.0,6.0,0.0
25301,65.0,0.0,90.0,12.0,0.0
25302,49.0,48.0,60.0,6.0,0.0
25303,53.0,6.0,90.0,13.0,0.0
25304,49.0,60.0,60.0,6.0,0.0
25305,50.0,0.0,120.0,13.0,0.0
25306,73.0,6.0,210.0,5.0,0.0
25307,49.0,60.0,60.0,6.0,0.0
25308,62.0,48.0,120.0,12.0,0.0
25309,61.0,0.0,210.0,5.0,0.0
25310,49.0,12.0,60.0,6.0,0.0
25311,49.0,0.0,90.0,13.0,0.0
25312,49.0,48.0,60.0,6.0,0.0
25313,61.0,6.0,90.0,12.0,0.0
25314,49.0,60.0,60.0,6.0,0.0
25315,47.0,48.0,120.0,13.0,0.0
25316,73.0,0.0,210.0,5.0,0.0
25317,61.0,6.0,210.0,5.0,0.0
25318,49.0,60.0,60.0,6.0,0.0
25319,59.0,0.0,120.0,12.0,0.0
25320,49.0,12.0,60.0,6.0,0.0
25321,97.0,0.0,720.0,8.0,0.0
25322,49.0,48.0,60.0,6.0,0.0
25323,97.0,0.0,720.0,0.0,0.0
25324,61.0,48.0,600.0,3.0,0.0
25325,85.0,0.0,720.0,10.0,0.0
25326,45.0,6.0,90.0,13.0,0.0
25327,69.0,0.0,90.0,11.0,0.0
25328,57.0,0.0,90.0,12.0,0.0
25329,49.0,60.0,60.0,6.0,0.0
25330,49.0,48.0,60.0,6.0,0.0
25331,73.0,6.0,210.0,5.0,0.0
25332,56.0,48.0,120.0,12.0,0.0
25333,44.0,0.0,120.0,13.0,0.0
25334,68.0,0.0,120.0,11.0,0.0
25335,61.0,12.0,90.0,5.0,0.0
25336,49.0,12.0,60.0,6.0,0.0
25337,61.0,0.0,90.0,5.0,0.0
25338,42.0,6.0,90.0,13.0,0.0
25339,66.0,0.0,90.0,11.0,0.0
25340,54.0,0.0,90.0,12.0,0.0
25341,49.0,48.0,60.0,6.0,0.0
25342,49.0,60.0,60.0,6.0,0.0
25343,49.0,60.0,60.0,6.0,0.0
25344,64.0,48.0,120.0,11.0,0.0
25345,40.0,0.0,120.0,13.0,0.0
25346,52.0,0.0,120.0,12.0,0.0
25347,73.0,0.0,210.0,5.0,0.0
25348,61.0,6.0,210.0,5.0,0.0
25349,49.0,12.0,60.0,6.0,0.0
25350,39.0,0.0,90.0,13.0,0.0
25351,49.0,48.0,60.0,6.0,0.0
25352,51.0,6.0,90.0,12.0,0.0
25353,63.0,0.0,90.0,11.0,0.0
25354,49.0,12.0,60.0,6.0,0.0
25355,62.0,0.0,120.0,3.0,0.0
25356,63.0,0.0,120.0,12.0,0.0
25357,73.0,6.0,210.0,5.0,0.0
25358,61.0,0.0,210.0,5.0,0.0
25359,51.0,48.0,120.0,13.0,0.0
25360,49.0,60.0,60.0,6.0,0.0
25361,75.0,0.0,120.0,11.0,0.0
25362,49.0,12.0,60.0,6.0,0.0
25363,49.0,48.0,60.0,6.0,0.0
25364,84.0,0.0,240.0,1.0,0.0
25365,53.0,0.0,90.0,13.0,0.0
25366,65.0,6.0,90.0,12.0,0.0
25367,64.0,48.0,120.0,3.0,0.0
25368,96.0,0.0,240.0,8.0,0.0
25369,77.0,0.0,90.0,11.0,0.0
25370,96.0,48.0,240.0,0.0,0.0
25371,84.0,0.0,240.0,10.0,0.0
25372,49.0,12.0,60.0,6.0,0.0
25373,73.0,0.0,60.0,5.0,0.0
25374,61.0,48.0,60.0,5.0,0.0
25375,66.0,0.0,120.0,12.0,0.0
25376,78.0,0.0,120.0,11.0,0.0
25377,66.0,0.0,120.0,3.0,0.0
25378,49.0,12.0,60.0,6.0,0.0
25379,54.0,0.0,120.0,13.0,0.0
25380,49.0,12.0,60.0,6.0,0.0
25381,80.0,6.0,90.0,11.0,0.0
25382,61.0,0.0,60.0,5.0,0.0
25383,73.0,36.0,60.0,5.0,0.0
25384,68.0,48.0,120.0,3.0,0.0
25385,95.0,0.0,90.0,0.0,0.0
25386,56.0,0.0,90.0,13.0,0.0
25387,95.0,0.0,90.0,8.0,0.0
25388,83.0,0.0,90.0,1.0,0.0
25389,83.0,0.0,90.0,10.0,0.0
25390,68.0,0.0,90.0,12.0,0.0
25391,49.0,12.0,60.0,6.0,0.0
25392,49.0,12.0,60.0,6.0,0.0
25393,69.0,0.0,120.0,3.0,0.0
25394,93.0,48.0,120.0,8.0,0.0
25395,78.0,0.0,120.0,11.0,0.0
25396,93.0,0.0,120.0,0.0,0.0
25397,73.0,6.0,210.0,4.0,0.0
25398,54.0,0.0,120.0,13.0,0.0
25399,49.0,12.0,60.0,6.0,0.0
25400,66.0,0.0,120.0,12.0,0.0
25401,81.0,0.0,120.0,1.0,0.0
25402,61.0,0.0,210.0,4.0,0.0
25403,73.0,0.0,60.0,5.0,0.0
25404,81.0,0.0,120.0,10.0,0.0
25405,61.0,48.0,60.0,5.0,0.0
25406,49.0,12.0,60.0,6.0,0.0
25407,92.0,6.0,90.0,8.0,0.0
25408,71.0,48.0,120.0,3.0,0.0
25409,61.0,36.0,60.0,5.0,0.0
25410,53.0,0.0,90.0,13.0,0.0
25411,49.0,12.0,60.0,6.0,0.0
25412,80.0,0.0,90.0,1.0,0.0
25413,80.0,0.0,90.0,10.0,0.0
25414,92.0,0.0,90.0,0.0,0.0
25415,77.0,0.0,90.0,11.0,0.0
25416,65.0,0.0,90.0,12.0,0.0
25417,73.0,0.0,60.0,5.0,0.0
25418,49.0,12.0,60.0,6.0,0.0
25419,78.0,0.0,120.0,10.0,0.0
25420,74.0,0.0,120.0,11.0,0.0
25421,90.0,0.0,120.0,0.0,0.0
25422,62.0,0.0,120.0,12.0,0.0
25423,49.0,12.0,60.0,6.0,0.0
25424,73.0,0.0,60.0,5.0,0.0
25425,61.0,6.0,210.0,4.0,0.0
25426,73.0,0.0,210.0,4.0,0.0
25427,61.0,48.0,60.0,5.0,0.0
25428,78.0,48.0,120.0,1.0,0.0
25429,50.0,0.0,120.0,13.0,0.0
25430,90.0,0.0,120.0,8.0,0.0
25431,49.0,12.0,60.0,6.0,0.0
25432,61.0,0.0,90.0,12.0,0.0
25433,49.0,0.0,90.0,13.0,0.0
25434,77.0,0.0,90.0,10.0,0.0
25435,71.0,0.0,15.0,3.0,0.0
25436,73.0,0.0,90.0,11.0,0.0
25437,61.0,36.0,60.0,5.0,0.0
25438,73.0,0.0,60.0,5.0,0.0
25439,77.0,0.0,90.0,1.0,0.0
25440,89.0,6.0,90.0,8.0,0.0
25441,49.0,12.0,60.0,6.0,0.0
25442,89.0,0.0,90.0,0.0,0.0
25443,49.0,12.0,60.0,6.0,0.0
25444,71.0,0.0,120.0,11.0,0.0
25445,73.0,48.0,60.0,5.0,0.0
25446,61.0,0.0,60.0,5.0,0.0
25447,47.0,0.0,120.0,13.0,0.0
25448,56.0,0.0,120.0,3.0,0.0
25449,49.0,12.0,60.0,6.0,0.0
25450,74.0,48.0,120.0,1.0,0.0
25451,74.0,0.0,120.0,10.0,0.0
25452,59.0,0.0,120.0,12.0,0.0
25453,86.0,0.0,120.0,8.0,0.0
25454,73.0,0.0,210.0,4.0,0.0
25455,86.0,0.0,120.0,0.0,0.0
25456,61.0,6.0,210.0,4.0,0.0
25457,49.0,12.0,60.0,6.0,0.0
25458,61.0,0.0,60.0,5.0,0.0
25459,73.0,0.0,90.0,1.0,0.0
25460,85.0,0.0,90.0,8.0,0.0
25461,57.0,0.0,90.0,12.0,0.0
25462,73.0,36.0,60.0,5.0,0.0
25463,45.0,0.0,90.0,13.0,0.0
25464,57.0,48.0,120.0,3.0,0.0
25465,69.0,0.0,90.0,11.0,0.0
25466,73.0,0.0,90.0,10.0,0.0
25467,85.0,6.0,90.0,0.0,0.0
25468,49.0,12.0,60.0,6.0,0.0
25469,49.0,12.0,60.0,6.0,0.0
25470,44.0,0.0,120.0,13.0,0.0
25471,61.0,0.0,60.0,5.0,0.0
25472,68.0,48.0,120.0,11.0,0.0
25473,73.0,48.0,60.0,5.0,0.0
25474,59.0,0.0,120.0,3.0,0.0
25475,56.0,0.0,120.0,12.0,0.0
25476,73.0,0.0,210.0,4.0,0.0
25477,61.0,0.0,210.0,4.0,0.0
25478,83.0,0.0,120.0,8.0,0.0
25479,83.0,0.0,120.0,0.0,0.0
25480,71.0,0.0,120.0,10.0,0.0
25481,71.0,0.0,120.0,1.0,0.0
25482,56.0,0.0,120.0,3.0,0.0
25483,49.0,12.0,60.0,6.0,0.0
25484,49.0,12.0,60.0,6.0,0.0
25485,81.0,6.0,90.0,8.0,0.0
25486,54.0,12.0,60.0,6.0,0.0
25487,57.0,0.0,90.0,3.0,0.0
25488,61.0,0.0,90.0,3.0,0.0
25489,73.0,0.0,90.0,1.0,0.0
25490,69.0,0.0,90.0,1.0,0.0
25491,54.0,0.0,90.0,12.0,0.0
25492,73.0,0.0,90.0,2.0,0.0
25493,69.0,0.0,90.0,2.0,0.0
25494,57.0,6.0,90.0,4.0,0.0
25495,85.0,0.0,90.0,0.0,0.0
25496,78.0,0.0,60.0,5.0,0.0
25497,66.0,36.0,60.0,5.0,0.0
25498,42.0,0.0,90.0,13.0,0.0
25499,69.0,0.0,90.0,10.0,0.0
25500,66.0,0.0,90.0,11.0,0.0
25501,69.0,0.0,90.0,4.0,0.0
25502,54.0,60.0,60.0,6.0,0.0
25503,78.0,48.0,60.0,5.0,0.0
25504,62.0,0.0,120.0,3.0,0.0
25505,59.0,48.0,120.0,3.0,0.0
25506,86.0,0.0,120.0,0.0,0.0
25507,66.0,0.0,60.0,5.0,0.0
25508,71.0,0.0,120.0,2.0,0.0
25509,54.0,0.0,210.0,4.0,0.0
25510,52.0,0.0,120.0,12.0,0.0
25511,80.0,0.0,120.0,8.0,0.0
25512,57.0,0.0,210.0,4.0,0.0
25513,66.0,0.0,210.0,4.0,0.0
25514,74.0,0.0,120.0,2.0,0.0
25515,74.0,0.0,120.0,1.0,0.0
25516,71.0,0.0,120.0,1.0,0.0
25517,54.0,12.0,60.0,6.0,0.0
25518,69.0,0.0,210.0,4.0,0.0
25519,68.0,0.0,120.0,10.0,0.0
25520,40.0,0.0,120.0,13.0,0.0
25521,54.0,12.0,60.0,6.0,0.0
25522,38.0,0.0,90.0,13.0,0.0
25523,76.0,0.0,90.0,2.0,0.0
25524,66.0,0.0,90.0,10.0,0.0
25525,66.0,36.0,60.0,5.0,0.0
25526,78.0,0.0,60.0,5.0,0.0
25527,54.0,12.0,60.0,6.0,0.0
25528,50.0,0.0,90.0,12.0,0.0
25529,73.0,0.0,90.0,2.0,0.0
25530,78.0,6.0,90.0,8.0,0.0
25531,88.0,6.0,90.0,0.0,0.0
25532,73.0,0.0,90.0,1.0,0.0
25533,76.0,0.0,90.0,1.0,0.0
25534,61.0,0.0,90.0,3.0,0.0
25535,64.0,0.0,90.0,3.0,0.0
25536,54.0,60.0,60.0,6.0,0.0
25537,64.0,0.0,120.0,10.0,0.0
25538,66.0,48.0,60.0,5.0,0.0
25539,78.0,0.0,60.0,5.0,0.0
25540,78.0,0.0,120.0,2.0,0.0
25541,54.0,0.0,210.0,4.0,0.0
25542,66.0,0.0,210.0,4.0,0.0
25543,74.0,0.0,120.0,2.0,0.0
25544,78.0,48.0,120.0,1.0,0.0
25545,54.0,12.0,60.0,6.0,0.0
25546,57.0,6.0,210.0,4.0,0.0
25547,69.0,0.0,210.0,4.0,0.0
25548,76.0,0.0,120.0,8.0,0.0
25549,37.0,0.0,120.0,13.0,0.0
25550,49.0,0.0,120.0,12.0,0.0
25551,66.0,0.0,120.0,3.0,0.0
25552,90.0,0.0,120.0,0.0,0.0
25553,62.0,0.0,120.0,3.0,0.0
25554,74.0,0.0,120.0,1.0,0.0
25555,54.0,12.0,60.0,6.0,0.0
25556,54.0,12.0,60.0,6.0,0.0
25557,77.0,0.0,90.0,2.0,0.0
25558,35.0,0.0,90.0,13.0,0.0
25559,74.0,0.0,90.0,8.0,0.0
25560,78.0,0.0,60.0,5.0,0.0
25561,66.0,36.0,60.0,5.0,0.0
25562,47.0,6.0,90.0,12.0,0.0
25563,80.0,0.0,90.0,2.0,0.0
25564,68.0,0.0,90.0,3.0,0.0
25565,80.0,0.0,90.0,1.0,0.0
25566,62.0,0.0,90.0,10.0,0.0
25567,65.0,0.0,90.0,3.0,0.0
25568,77.0,0.0,90.0,1.0,0.0
25569,92.0,0.0,90.0,0.0,0.0
25570,54.0,60.0,60.0,6.0,0.0
25571,61.0,0.0,120.0,10.0,0.0
25572,81.0,0.0,120.0,1.0,0.0
25573,54.0,12.0,60.0,6.0,0.0
25574,93.0,48.0,120.0,0.0,0.0
25575,73.0,0.0,120.0,8.0,0.0
25576,33.0,0.0,120.0,13.0,0.0
25577,78.0,48.0,60.0,5.0,0.0
25578,81.0,0.0,120.0,2.0,0.0
25579,66.0,0.0,120.0,3.0,0.0
25580,69.0,0.0,120.0,3.0,0.0
25581,66.0,0.0,210.0,4.0,0.0
25582,54.0,0.0,210.0,4.0,0.0
25583,57.0,0.0,210.0,4.0,0.0
25584,45.0,0.0,120.0,12.0,0.0
25585,78.0,0.0,120.0,2.0,0.0
25586,78.0,0.0,120.0,1.0,0.0
25587,69.0,0.0,210.0,4.0,0.0
25588,66.0,0.0,60.0,5.0,0.0
25589,54.0,12.0,60.0,6.0,0.0
25590,78.0,0.0,60.0,5.0,0.0
25591,80.0,0.0,90.0,2.0,0.0
25592,59.0,0.0,90.0,10.0,0.0
25593,83.0,0.0,90.0,2.0,0.0
25594,66.0,36.0,60.0,5.0,0.0
25595,71.0,6.0,90.0,3.0,0.0
25596,44.0,0.0,90.0,13.0,0.0
25597,80.0,0.0,90.0,1.0,0.0
25598,83.0,0.0,90.0,1.0,0.0
25599,56.0,0.0,90.0,12.0,0.0
25600,54.0,12.0,60.0,6.0,0.0
25601,71.0,6.0,90.0,8.0,0.0
25602,68.0,0.0,90.0,3.0,0.0
25603,95.0,0.0,90.0,0.0,0.0
25604,54.0,60.0,60.0,6.0,0.0
25605,42.0,0.0,120.0,13.0,0.0
25606,57.0,12.0,90.0,4.0,0.0
25607,81.0,0.0,120.0,1.0,0.0
25608,66.0,0.0,90.0,4.0,0.0
25609,54.0,0.0,90.0,4.0,0.0
25610,85.0,0.0,120.0,1.0,0.0
25611,69.0,0.0,90.0,4.0,0.0
25612,54.0,0.0,120.0,12.0,0.0
25613,69.0,0.0,120.0,8.0,0.0
25614,69.0,0.0,120.0,3.0,0.0
25615,78.0,0.0,60.0,5.0,0.0
25616,66.0,36.0,60.0,5.0,0.0
25617,85.0,0.0,120.0,2.0,0.0
25618,73.0,0.0,120.0,3.0,0.0
25619,97.0,0.0,120.0,0.0,0.0
25620,57.0,60.0,120.0,10.0,0.0
25621,81.0,0.0,120.0,2.0,0.0
25622,54.0,12.0,60.0,6.0,0.0
25623,54.0,12.0,60.0,6.0,0.0
25624,80.0,0.0,120.0,1.0,0.0
25625,68.0,0.0,120.0,3.0,0.0
25626,83.0,0.0,120.0,1.0,0.0
25627,56.0,0.0,120.0,11.0,0.0
25628,71.0,0.0,120.0,3.0,0.0
25629,62.0,0.0,90.0,12.0,0.0
25630,54.0,48.0,180.0,6.0,0.0
25631,68.0,60.0,120.0,8.0,0.0
25632,83.0,0.0,120.0,2.0,0.0
25633,80.0,0.0,120.0,2.0,0.0
25634,68.0,0.0,120.0,10.0,0.0
25635,68.0,0.0,90.0,4.0,0.0
25636,66.0,6.0,90.0,4.0,0.0
25637,50.0,18.0,90.0,13.0,0.0
25638,50.0,0.0,90.0,4.0,0.0
25639,66.0,36.0,60.0,5.0,0.0
25640,62.0,0.0,90.0,4.0,0.0
25641,92.0,0.0,120.0,0.0,0.0
25642,78.0,0.0,60.0,5.0,0.0
25643,95.0,0.0,120.0,0.0,0.0
25644,61.0,60.0,120.0,12.0,0.0
25645,49.0,0.0,120.0,13.0,0.0
25646,66.0,12.0,60.0,5.0,0.0
25647,78.0,0.0,60.0,5.0,0.0
25648,66.0,0.0,210.0,4.0,0.0
25649,54.0,0.0,210.0,4.0,0.0
25650,68.0,0.0,210.0,4.0,0.0
25651,80.0,0.0,120.0,2.0,0.0
25652,68.0,60.0,120.0,3.0,0.0
25653,68.0,0.0,120.0,11.0,0.0
25654,78.0,0.0,120.0,11.0,0.0
25655,78.0,0.0,60.0,5.0,0.0
25656,66.0,36.0,60.0,5.0,0.0
25657,83.0,0.0,120.0,10.0,0.0
25658,95.0,0.0,120.0,0.0,0.0
25659,59.0,0.0,90.0,12.0,0.0
25660,80.0,0.0,120.0,10.0,0.0
25661,80.0,0.0,120.0,1.0,0.0
25662,92.0,0.0,120.0,0.0,0.0
25663,90.0,0.0,120.0,1.0,0.0
25664,54.0,48.0,180.0,6.0,0.0
25665,92.0,0.0,120.0,8.0,0.0
25666,47.0,18.0,90.0,13.0,0.0
25667,83.0,0.0,120.0,2.0,0.0
25668,71.0,0.0,120.0,3.0,0.0
25669,49.0,96.0,120.0,13.0,0.0
25670,61.0,0.0,120.0,12.0,0.0
25671,66.0,0.0,210.0,4.0,0.0
25672,54.0,6.0,240.0,4.0,0.0
25673,68.0,6.0,210.0,4.0,0.0
25674,66.0,12.0,60.0,5.0,0.0
25675,78.0,0.0,60.0,5.0,0.0
25676,54.0,24.0,180.0,6.0,0.0
25677,71.0,72.0,120.0,3.0,0.0
25678,68.0,0.0,120.0,3.0,0.0
25679,50.0,12.0,90.0,13.0,0.0
25680,73.0,0.0,120.0,5.0,0.0
25681,61.0,0.0,120.0,5.0,0.0
25682,62.0,0.0,90.0,12.0,0.0
25683,68.0,0.0,90.0,4.0,0.0
25684,66.0,24.0,90.0,4.0,0.0
25685,47.0,0.0,120.0,13.0,0.0
25686,59.0,96.0,120.0,12.0,0.0
25687,49.0,18.0,90.0,13.0,0.0
25688,83.0,0.0,120.0,2.0,0.0
25689,92.0,0.0,120.0,0.0,0.0
25690,68.0,0.0,120.0,11.0,0.0
25691,61.0,0.0,120.0,5.0,0.0
25692,49.0,24.0,180.0,6.0,0.0
25693,89.0,0.0,120.0,1.0,0.0
25694,80.0,0.0,120.0,1.0,0.0
25695,80.0,0.0,120.0,10.0,0.0
25696,77.0,0.0,120.0,10.0,0.0
25697,80.0,0.0,120.0,2.0,0.0
25698,77.0,0.0,120.0,11.0,0.0
25699,73.0,72.0,120.0,5.0,0.0
25700,68.0,6.0,90.0,4.0,0.0
25701,61.0,24.0,210.0,4.0,0.0
25702,61.0,0.0,90.0,12.0,0.0
25703,92.0,0.0,120.0,8.0,0.0
25704,59.0,720.0,120.0,13.0,0.0
25705,68.0,0.0,90.0,4.0,0.0
25706,71.0,0.0,120.0,12.0,0.0
25707,80.0,0.0,600.0,1.0,0.0
25708,83.0,120.0,60.0,1.0,0.0
25709,77.0,0.0,15.0,1.0,0.0
25710,71.0,60.0,15.0,2.0,0.0
25711,74.0,0.0,15.0,2.0,0.0
25712,77.0,0.0,60.0,1.0,0.0
25713,81.0,0.0,60.0,1.0,0.0
25714,71.0,0.0,60.0,2.0,0.0
25715,74.0,120.0,60.0,2.0,0.0
25716,74.0,0.0,60.0,2.0,0.0
25717,71.0,0.0,60.0,2.0,0.0
25718,77.0,0.0,60.0,1.0,0.0
25719,80.0,648.0,60.0,1.0,0.0
25720,80.0,0.0,600.0,1.0,0.0
25721,68.0,0.0,600.0,3.0,0.0
25722,68.0,120.0,600.0,2.0,0.0
25723,71.0,0.0,600.0,2.0,0.0
25724,74.0,0.0,600.0,1.0,0.0
25725,65.0,0.0,600.0,3.0,0.0
25726,65.0,0.0,120.0,3.0,0.0
25727,68.0,0.0,120.0,3.0,0.0
25728,74.0,0.0,120.0,1.0,0.0
25729,86.0,120.0,120.0,1.0,0.0
25730,71.0,0.0,120.0,2.0,0.0
25731,68.0,0.0,120.0,2.0,0.0
25732,65.0,0.0,120.0,3.0,0.0
25733,80.0,0.0,120.0,1.0,0.0
25734,73.0,120.0,120.0,2.0,0.0
25735,68.0,0.0,120.0,2.0,0.0
25736,68.0,0.0,120.0,3.0,0.0
25737,85.0,0.0,120.0,1.0,0.0
25738,80.0,0.0,120.0,1.0,0.0
25739,68.0,252.0,120.0,2.0,0.0
25740,74.0,0.0,120.0,2.0,0.0
25741,68.0,0.0,120.0,3.0,0.0
25742,65.0,0.0,120.0,3.0,0.0
25743,83.0,0.0,120.0,1.0,0.0
25744,81.0,0.0,240.0,1.0,0.0
25745,63.0,0.0,240.0,3.0,0.0
25746,78.0,0.0,240.0,1.0,0.0
25747,60.0,0.0,240.0,3.0,0.0
25748,66.0,480.0,240.0,2.0,0.0
25749,75.0,0.0,240.0,2.0,0.0
25750,62.0,413.0,240.0,3.0,0.0
25751,68.0,0.0,240.0,2.0,0.0
25752,80.0,0.0,240.0,1.0,0.0
25753,66.0,0.0,240.0,3.0,0.0
25754,78.0,0.0,240.0,1.0,0.0
25755,71.0,0.0,240.0,2.0,0.0
25756,68.0,0.0,240.0,3.0,0.0
25757,71.0,0.0,240.0,2.0,0.0
25758,74.0,0.0,240.0,2.0,0.0
25759,78.0,0.0,240.0,1.0,0.0
25760,49.0,0.0,240.0,4.0,0.0
25761,61.0,67.0,180.0,4.0,0.0
25762,74.0,0.0,240.0,1.0,0.0
25763,61.0,434.0,240.0,3.0,0.0
25764,71.0,420.0,240.0,1.0,0.0
25765,68.0,0.0,240.0,3.0,0.0
25766,71.0,0.0,240.0,2.0,0.0
25767,74.0,0.0,240.0,2.0,0.0
25768,61.0,0.0,240.0,3.0,0.0
25769,49.0,0.0,240.0,4.0,0.0
25770,61.0,46.0,180.0,4.0,0.0
25771,77.0,0.0,240.0,1.0,0.0
25772,56.0,0.0,570.0,12.0,0.0
25773,59.0,0.0,570.0,11.0,0.0
25774,44.0,84.0,570.0,13.0,0.0
25775,59.0,120.0,60.0,3.0,0.0
25776,71.0,0.0,60.0,2.0,0.0
25777,61.0,120.0,60.0,3.0,0.0
25778,73.0,0.0,60.0,2.0,0.0
25779,74.0,0.0,60.0,2.0,0.0
25780,62.0,156.0,60.0,3.0,0.0
25781,62.0,0.0,180.0,3.0,0.0
25782,74.0,24.0,180.0,2.0,0.0
25783,62.0,0.0,90.0,11.0,0.0
25784,59.0,84.0,90.0,12.0,0.0
25785,83.0,12.0,60.0,1.0,0.0
25786,47.0,0.0,90.0,13.0,0.0
25787,45.0,0.0,90.0,13.0,0.0
25788,61.0,0.0,90.0,11.0,0.0
25789,57.0,84.0,90.0,12.0,0.0
25790,85.0,36.0,60.0,1.0,0.0
25791,59.0,204.0,90.0,11.0,0.0
25792,56.0,0.0,90.0,12.0,0.0
25793,86.0,36.0,60.0,1.0,0.0
25794,44.0,0.0,90.0,13.0,0.0
25795,59.0,0.0,600.0,11.0,0.0
25796,56.0,84.0,600.0,12.0,0.0
25797,86.0,108.0,180.0,1.0,0.0
25798,44.0,0.0,600.0,13.0,0.0
25799,71.0,0.0,60.0,2.0,0.0
25800,59.0,12.0,60.0,3.0,0.0
25801,73.0,120.0,60.0,2.0,0.0
25802,61.0,0.0,60.0,3.0,0.0
25803,74.0,0.0,60.0,2.0,0.0
25804,62.0,168.0,60.0,3.0,0.0
25805,74.0,36.0,180.0,2.0,0.0
25806,62.0,0.0,180.0,3.0,0.0
25807,74.0,0.0,120.0,10.0,0.0
25808,59.0,0.0,120.0,10.0,0.0
25809,86.0,0.0,120.0,1.0,0.0
25810,41.0,0.0,120.0,13.0,0.0
25811,68.0,0.0,120.0,11.0,0.0
25812,56.0,0.0,120.0,11.0,0.0
25813,53.0,120.0,120.0,12.0,0.0
25814,41.0,0.0,120.0,13.0,0.0
25815,85.0,0.0,120.0,1.0,0.0
25816,73.0,0.0,120.0,10.0,0.0
25817,61.0,0.0,120.0,10.0,0.0
25818,53.0,0.0,120.0,12.0,0.0
25819,56.0,0.0,120.0,11.0,0.0
25820,68.0,120.0,120.0,11.0,0.0
25821,69.0,0.0,120.0,11.0,0.0
25822,83.0,0.0,120.0,1.0,0.0
25823,56.0,0.0,120.0,11.0,0.0
25824,53.0,0.0,120.0,12.0,0.0
25825,62.0,204.0,120.0,10.0,0.0
25826,71.0,0.0,120.0,10.0,0.0
25827,41.0,0.0,120.0,13.0,0.0
25828,66.0,0.0,210.0,11.0,0.0
25829,54.0,0.0,210.0,11.0,0.0
25830,36.0,0.0,210.0,13.0,0.0
25831,69.0,0.0,180.0,10.0,0.0
25832,48.0,240.0,210.0,12.0,0.0
25833,63.0,0.0,180.0,10.0,0.0
25834,81.0,24.0,180.0,1.0,0.0
25835,93.0,216.0,90.0,0.0,0.0
25836,59.0,0.0,180.0,10.0,0.0
25837,56.0,0.0,180.0,11.0,0.0
25838,59.0,0.0,180.0,11.0,0.0
25839,66.0,0.0,180.0,10.0,0.0
25840,50.0,264.0,180.0,12.0,0.0
25841,68.0,0.0,180.0,10.0,0.0
25842,80.0,0.0,180.0,1.0,0.0
25843,38.0,0.0,180.0,13.0,0.0
25844,92.0,216.0,90.0,0.0,0.0
25845,49.0,264.0,180.0,12.0,0.0
25846,37.0,0.0,180.0,13.0,0.0
25847,78.0,0.0,180.0,1.0,0.0
25848,56.0,0.0,180.0,11.0,0.0
25849,66.0,0.0,180.0,10.0,0.0
25850,62.0,0.0,180.0,10.0,0.0
25851,59.0,0.0,180.0,11.0,0.0
25852,90.0,216.0,90.0,0.0,0.0
25853,37.0,0.0,180.0,13.0,0.0
25854,77.0,0.0,180.0,1.0,0.0
25855,49.0,0.0,180.0,12.0,0.0
25856,65.0,0.0,180.0,10.0,0.0
25857,59.0,0.0,180.0,10.0,0.0
25858,59.0,0.0,180.0,11.0,0.0
25859,56.0,264.0,180.0,11.0,0.0
25860,89.0,56.0,90.0,0.0,0.0
25861,42.0,0.0,240.0,13.0,0.0
25862,54.0,32.0,240.0,3.0,0.0
25863,54.0,40.0,30.0,12.0,0.0
25864,54.0,40.0,30.0,12.0,0.0
25865,54.0,40.0,30.0,12.0,0.0
25866,54.0,40.0,30.0,12.0,0.0
25867,54.0,40.0,30.0,12.0,0.0
25868,54.0,8.0,30.0,12.0,0.0
25869,53.0,40.0,30.0,12.0,0.0
25870,53.0,32.0,240.0,3.0,0.0
25871,41.0,0.0,240.0,13.0,0.0
25872,53.0,40.0,30.0,12.0,0.0
25873,53.0,40.0,30.0,12.0,0.0
25874,53.0,40.0,30.0,12.0,0.0
25875,53.0,40.0,30.0,12.0,0.0
25876,53.0,8.0,30.0,12.0,0.0
25877,52.0,40.0,30.0,12.0,0.0
25878,66.0,0.0,660.0,5.0,0.0
25879,54.0,8.0,390.0,6.0,0.0
25880,66.0,0.0,660.0,4.0,0.0
25881,52.0,32.0,240.0,3.0,0.0
25882,40.0,0.0,240.0,13.0,0.0
25883,54.0,0.0,660.0,4.0,0.0
25884,52.0,40.0,30.0,12.0,0.0
25885,52.0,40.0,30.0,12.0,0.0
25886,52.0,40.0,30.0,12.0,0.0
25887,52.0,40.0,30.0,12.0,0.0
25888,52.0,8.0,30.0,12.0,0.0
25889,51.0,0.0,30.0,12.0,0.0
25890,39.0,0.0,240.0,13.0,0.0
25891,51.0,32.0,240.0,3.0,0.0
25892,63.0,40.0,30.0,11.0,0.0
25893,63.0,40.0,30.0,11.0,0.0
25894,51.0,0.0,30.0,12.0,0.0
25895,51.0,32.0,30.0,12.0,0.0
25896,63.0,0.0,30.0,11.0,0.0
25897,63.0,0.0,30.0,11.0,0.0
25898,51.0,40.0,30.0,12.0,0.0
25899,63.0,0.0,30.0,11.0,0.0
25900,51.0,40.0,30.0,12.0,0.0
25901,63.0,8.0,30.0,11.0,0.0
25902,51.0,0.0,30.0,12.0,0.0
25903,50.0,0.0,30.0,12.0,0.0
25904,62.0,40.0,30.0,11.0,0.0
25905,38.0,32.0,240.0,13.0,0.0
25906,50.0,0.0,240.0,3.0,0.0
25907,50.0,0.0,30.0,12.0,0.0
25908,62.0,40.0,30.0,11.0,0.0
25909,62.0,40.0,30.0,11.0,0.0
25910,50.0,0.0,30.0,12.0,0.0
25911,50.0,0.0,30.0,12.0,0.0
25912,62.0,40.0,30.0,11.0,0.0
25913,50.0,0.0,30.0,12.0,0.0
25914,62.0,0.0,30.0,11.0,0.0
25915,62.0,0.0,30.0,11.0,0.0
25916,50.0,8.0,30.0,12.0,0.0
25917,49.0,0.0,240.0,3.0,0.0
25918,61.0,40.0,30.0,11.0,0.0
25919,37.0,32.0,240.0,13.0,0.0
25920,49.0,0.0,30.0,12.0,0.0
25921,49.0,0.0,30.0,12.0,0.0
25922,61.0,40.0,30.0,11.0,0.0
25923,61.0,40.0,30.0,11.0,0.0
25924,49.0,0.0,30.0,12.0,0.0
25925,49.0,0.0,30.0,12.0,0.0
25926,54.0,0.0,60.0,6.0,0.0
25927,49.0,0.0,60.0,4.0,0.0
25928,61.0,0.0,60.0,4.0,0.0
25929,61.0,28.0,30.0,11.0,0.0
25930,54.0,12.0,60.0,4.0,0.0
25931,66.0,0.0,60.0,5.0,0.0
25932,49.0,40.0,30.0,12.0,0.0
25933,61.0,0.0,30.0,11.0,0.0
25934,49.0,0.0,30.0,12.0,0.0
25935,61.0,8.0,30.0,11.0,0.0
25936,51.0,0.0,240.0,3.0,0.0
25937,66.0,0.0,180.0,5.0,0.0
25938,54.0,40.0,180.0,6.0,0.0
25939,69.0,0.0,720.0,1.0,0.0
25940,78.0,0.0,720.0,1.0,0.0
25941,39.0,32.0,240.0,13.0,0.0
25942,73.0,6.0,720.0,2.0,0.0
25943,69.0,0.0,720.0,2.0,0.0
25944,54.0,0.0,180.0,4.0,0.0
25945,51.0,40.0,30.0,12.0,0.0
25946,66.0,0.0,180.0,4.0,0.0
25947,63.0,0.0,30.0,11.0,0.0
25948,63.0,40.0,30.0,11.0,0.0
25949,51.0,0.0,30.0,12.0,0.0
25950,63.0,40.0,30.0,11.0,0.0
25951,51.0,0.0,30.0,12.0,0.0
25952,63.0,40.0,30.0,11.0,0.0
25953,51.0,0.0,30.0,12.0,0.0
25954,63.0,0.0,30.0,11.0,0.0
25955,51.0,0.0,30.0,12.0,0.0
25956,51.0,0.0,30.0,12.0,0.0
25957,63.0,8.0,30.0,11.0,0.0
25958,53.0,0.0,240.0,3.0,0.0
25959,41.0,32.0,240.0,13.0,0.0
25960,53.0,40.0,30.0,12.0,0.0
25961,65.0,0.0,30.0,11.0,0.0
25962,65.0,0.0,30.0,11.0,0.0
25963,53.0,40.0,30.0,12.0,0.0
25964,53.0,40.0,30.0,12.0,0.0
25965,65.0,0.0,30.0,11.0,0.0
25966,54.0,0.0,60.0,4.0,0.0
25967,66.0,0.0,60.0,4.0,0.0
25968,65.0,28.0,30.0,11.0,0.0
25969,54.0,0.0,60.0,6.0,0.0
25970,66.0,12.0,60.0,5.0,0.0
25971,69.0,0.0,60.0,4.0,0.0
25972,57.0,0.0,60.0,4.0,0.0
25973,53.0,0.0,30.0,12.0,0.0
25974,65.0,0.0,30.0,11.0,0.0
25975,53.0,40.0,30.0,12.0,0.0
25976,53.0,0.0,30.0,12.0,0.0
25977,65.0,8.0,30.0,11.0,0.0
25978,54.0,32.0,240.0,3.0,0.0
25979,54.0,0.0,570.0,6.0,0.0
25980,42.0,0.0,240.0,13.0,0.0
25981,66.0,0.0,570.0,4.0,0.0
25982,54.0,0.0,570.0,4.0,0.0
25983,54.0,40.0,30.0,12.0,0.0
25984,66.0,16.0,570.0,5.0,0.0
25985,69.0,0.0,570.0,4.0,0.0
25986,57.0,0.0,570.0,4.0,0.0
25987,54.0,40.0,30.0,12.0,0.0
25988,54.0,40.0,30.0,12.0,0.0
25989,54.0,40.0,30.0,12.0,0.0
25990,54.0,34.0,30.0,12.0,0.0
25991,54.0,8.0,30.0,12.0,0.0
25992,41.0,0.0,240.0,13.0,0.0
25993,53.0,32.0,240.0,3.0,0.0
25994,53.0,40.0,30.0,12.0,0.0
25995,53.0,40.0,30.0,12.0,0.0
25996,53.0,40.0,30.0,12.0,0.0
25997,73.0,0.0,60.0,2.0,0.0
25998,73.0,0.0,60.0,1.0,0.0
25999,69.0,0.0,60.0,1.0,0.0
26000,53.0,40.0,30.0,12.0,0.0
26001,69.0,40.0,60.0,2.0,0.0
26002,53.0,0.0,30.0,12.0,0.0
26003,53.0,8.0,30.0,12.0,0.0
26004,78.0,6.0,240.0,1.0,0.0
26005,69.0,0.0,240.0,1.0,0.0
26006,52.0,32.0,240.0,3.0,0.0
26007,69.0,0.0,240.0,2.0,0.0
26008,52.0,40.0,30.0,12.0,0.0
26009,40.0,0.0,240.0,13.0,0.0
26010,73.0,0.0,240.0,2.0,0.0
26011,52.0,24.0,30.0,12.0,0.0
26012,52.0,40.0,30.0,12.0,0.0
26013,52.0,40.0,30.0,12.0,0.0
26014,52.0,34.0,30.0,12.0,0.0
26015,52.0,8.0,30.0,12.0,0.0
26016,63.0,0.0,30.0,11.0,0.0
26017,51.0,40.0,30.0,12.0,0.0
26018,39.0,0.0,240.0,13.0,0.0
26019,51.0,32.0,240.0,3.0,0.0
26020,63.0,40.0,30.0,11.0,0.0
26021,51.0,0.0,30.0,12.0,0.0
26022,51.0,0.0,30.0,12.0,0.0
26023,63.0,40.0,30.0,11.0,0.0
26024,81.0,0.0,60.0,1.0,0.0
26025,73.0,0.0,60.0,2.0,0.0
26026,69.0,0.0,60.0,2.0,0.0
26027,73.0,0.0,60.0,1.0,0.0
26028,51.0,0.0,30.0,12.0,0.0
26029,66.0,0.0,60.0,5.0,0.0
26030,63.0,28.0,30.0,11.0,0.0
26031,54.0,12.0,60.0,6.0,0.0
26032,63.0,0.0,30.0,11.0,0.0
26033,51.0,40.0,30.0,12.0,0.0
26034,63.0,0.0,30.0,11.0,0.0
26035,51.0,8.0,30.0,12.0,0.0
26036,38.0,0.0,240.0,13.0,0.0
26037,61.0,0.0,120.0,5.0,0.0
26038,50.0,32.0,240.0,3.0,0.0
26039,50.0,0.0,30.0,12.0,0.0
26040,81.0,0.0,480.0,1.0,0.0
26041,73.0,0.0,480.0,1.0,0.0
26042,49.0,32.0,120.0,6.0,0.0
26043,62.0,40.0,30.0,11.0,0.0
26044,73.0,0.0,480.0,2.0,0.0
26045,69.0,0.0,480.0,2.0,0.0
26046,62.0,0.0,30.0,11.0,0.0
26047,50.0,40.0,30.0,12.0,0.0
26048,62.0,8.0,30.0,11.0,0.0
26049,50.0,0.0,30.0,12.0,0.0
26050,62.0,40.0,30.0,11.0,0.0
26051,50.0,0.0,30.0,12.0,0.0
26052,62.0,0.0,30.0,11.0,0.0
26053,50.0,40.0,30.0,12.0,0.0
26054,62.0,0.0,30.0,11.0,0.0
26055,50.0,8.0,30.0,12.0,0.0
26056,49.0,40.0,30.0,12.0,0.0
26057,37.0,32.0,240.0,13.0,0.0
26058,61.0,0.0,30.0,11.0,0.0
26059,49.0,0.0,240.0,3.0,0.0
26060,61.0,0.0,30.0,11.0,0.0
26061,49.0,40.0,30.0,12.0,0.0
26062,61.0,40.0,30.0,11.0,0.0
26063,49.0,0.0,30.0,12.0,0.0
26064,49.0,0.0,30.0,12.0,0.0
26065,61.0,40.0,30.0,11.0,0.0
26066,61.0,0.0,30.0,11.0,0.0
26067,49.0,40.0,30.0,12.0,0.0
26068,49.0,8.0,30.0,12.0,0.0
26069,61.0,0.0,30.0,11.0,0.0
26070,51.0,0.0,240.0,3.0,0.0
26071,63.0,0.0,30.0,11.0,0.0
26072,71.0,0.0,480.0,2.0,0.0
26073,73.0,0.0,480.0,2.0,0.0
26074,80.0,32.0,120.0,1.0,0.0
26075,71.0,32.0,480.0,1.0,0.0
26076,39.0,12.0,240.0,13.0,0.0
26077,51.0,40.0,30.0,12.0,0.0
26078,63.0,40.0,30.0,11.0,0.0
26079,51.0,0.0,30.0,12.0,0.0
26080,51.0,0.0,30.0,12.0,0.0
26081,63.0,8.0,30.0,11.0,0.0
26082,81.0,28.0,30.0,1.0,0.0
26083,63.0,0.0,30.0,11.0,0.0
26084,51.0,12.0,30.0,12.0,0.0
26085,51.0,16.0,30.0,12.0,0.0
26086,63.0,0.0,30.0,11.0,0.0
26087,80.0,24.0,30.0,1.0,0.0
26088,63.0,8.0,30.0,11.0,0.0
26089,51.0,0.0,30.0,12.0,0.0
26090,81.0,20.0,30.0,1.0,0.0
26091,53.0,0.0,240.0,3.0,0.0
26092,65.0,24.0,30.0,11.0,0.0
26093,41.0,0.0,240.0,13.0,0.0
26094,53.0,0.0,30.0,12.0,0.0
26095,80.0,16.0,30.0,1.0,0.0
26096,65.0,28.0,30.0,11.0,0.0
26097,53.0,0.0,30.0,12.0,0.0
26098,81.0,12.0,30.0,1.0,0.0
26099,53.0,0.0,30.0,12.0,0.0
26100,65.0,32.0,30.0,11.0,0.0
26101,80.0,8.0,30.0,1.0,0.0
26102,49.0,8.0,60.0,6.0,0.0
26103,65.0,0.0,30.0,11.0,0.0
26104,61.0,0.0,60.0,5.0,0.0
26105,53.0,28.0,30.0,12.0,0.0
26106,81.0,4.0,30.0,1.0,0.0
26107,65.0,0.0,30.0,11.0,0.0
26108,53.0,40.0,30.0,12.0,0.0
26109,80.0,0.0,30.0,1.0,0.0
26110,65.0,0.0,30.0,11.0,0.0
26111,53.0,8.0,30.0,12.0,0.0
26112,78.0,0.0,300.0,1.0,0.0
26113,54.0,0.0,120.0,6.0,0.0
26114,66.0,40.0,30.0,8.0,0.0
26115,69.0,0.0,300.0,1.0,0.0
26116,42.0,32.0,240.0,13.0,0.0
26117,66.0,32.0,120.0,5.0,0.0
26118,54.0,0.0,30.0,12.0,0.0
26119,69.0,0.0,300.0,2.0,0.0
26120,73.0,24.0,300.0,2.0,0.0
26121,54.0,0.0,240.0,3.0,0.0
26122,66.0,0.0,30.0,8.0,0.0
26123,54.0,40.0,30.0,12.0,0.0
26124,54.0,0.0,30.0,12.0,0.0
26125,66.0,8.0,30.0,8.0,0.0
26126,66.0,40.0,30.0,8.0,0.0
26127,54.0,0.0,30.0,12.0,0.0
26128,54.0,0.0,30.0,12.0,0.0
26129,66.0,40.0,30.0,8.0,0.0
26130,66.0,8.0,30.0,8.0,0.0
26131,54.0,0.0,30.0,12.0,0.0
26132,41.0,0.0,240.0,13.0,0.0
26133,53.0,32.0,240.0,3.0,0.0
26134,65.0,16.0,30.0,8.0,0.0
26135,53.0,0.0,30.0,12.0,0.0
26136,53.0,0.0,30.0,12.0,0.0
26137,65.0,40.0,30.0,8.0,0.0
26138,53.0,0.0,30.0,12.0,0.0
26139,65.0,40.0,30.0,8.0,0.0
26140,53.0,0.0,30.0,12.0,0.0
26141,65.0,40.0,30.0,8.0,0.0
26142,53.0,40.0,30.0,12.0,0.0
26143,65.0,0.0,30.0,8.0,0.0
26144,65.0,8.0,30.0,8.0,0.0
26145,53.0,0.0,30.0,12.0,0.0
26146,40.0,0.0,240.0,13.0,0.0
26147,66.0,0.0,660.0,4.0,0.0
26148,54.0,22.0,450.0,6.0,0.0
26149,73.0,0.0,660.0,5.0,0.0
26150,78.0,0.0,660.0,5.0,0.0
26151,54.0,0.0,660.0,4.0,0.0
26152,57.0,40.0,660.0,4.0,0.0
26153,69.0,0.0,660.0,4.0,0.0
26154,52.0,0.0,30.0,12.0,0.0
26155,64.0,40.0,30.0,8.0,0.0
26156,52.0,32.0,240.0,3.0,0.0
26157,52.0,0.0,30.0,12.0,0.0
26158,64.0,40.0,30.0,8.0,0.0
26159,52.0,40.0,30.0,12.0,0.0
26160,64.0,0.0,30.0,8.0,0.0
26161,64.0,0.0,30.0,8.0,0.0
26162,52.0,40.0,30.0,12.0,0.0
26163,52.0,40.0,30.0,12.0,0.0
26164,64.0,0.0,30.0,8.0,0.0
26165,52.0,0.0,30.0,12.0,0.0
26166,64.0,8.0,30.0,8.0,0.0
26167,39.0,32.0,240.0,13.0,0.0
26168,51.0,0.0,240.0,3.0,0.0
26169,51.0,0.0,30.0,12.0,0.0
26170,63.0,40.0,30.0,8.0,0.0
26171,63.0,0.0,30.0,11.0,0.0
26172,63.0,40.0,30.0,11.0,0.0
26173,63.0,0.0,30.0,8.0,0.0
26174,51.0,0.0,30.0,12.0,0.0
26175,63.0,40.0,30.0,11.0,0.0
26176,51.0,0.0,30.0,12.0,0.0
26177,63.0,0.0,30.0,8.0,0.0
26178,63.0,0.0,30.0,8.0,0.0
26179,63.0,40.0,30.0,11.0,0.0
26180,51.0,0.0,30.0,12.0,0.0
26181,63.0,0.0,30.0,11.0,0.0
26182,63.0,18.0,30.0,8.0,0.0
26183,51.0,0.0,30.0,12.0,0.0
26184,63.0,0.0,30.0,11.0,0.0
26185,51.0,0.0,30.0,12.0,0.0
26186,63.0,8.0,30.0,8.0,0.0
26187,62.0,0.0,30.0,11.0,0.0
26188,50.0,32.0,240.0,3.0,0.0
26189,50.0,0.0,30.0,12.0,0.0
26190,38.0,0.0,240.0,13.0,0.0
26191,62.0,40.0,30.0,8.0,0.0
26192,62.0,40.0,30.0,8.0,0.0
26193,50.0,0.0,30.0,12.0,0.0
26194,62.0,0.0,30.0,11.0,0.0
26195,62.0,0.0,30.0,8.0,0.0
26196,50.0,0.0,30.0,12.0,0.0
26197,62.0,40.0,30.0,11.0,0.0
26198,50.0,0.0,30.0,12.0,0.0
26199,62.0,0.0,30.0,8.0,0.0
26200,62.0,40.0,30.0,11.0,0.0
26201,62.0,0.0,30.0,11.0,0.0
26202,62.0,0.0,30.0,8.0,0.0
26203,50.0,0.0,30.0,12.0,0.0
26204,50.0,8.0,30.0,12.0,0.0
26205,62.0,0.0,30.0,8.0,0.0
26206,62.0,0.0,30.0,11.0,0.0
26207,37.0,0.0,240.0,13.0,0.0
26208,49.0,0.0,30.0,12.0,0.0
26209,61.0,40.0,30.0,8.0,0.0
26210,49.0,32.0,240.0,3.0,0.0
26211,61.0,0.0,30.0,11.0,0.0
26212,61.0,40.0,30.0,8.0,0.0
26213,49.0,0.0,30.0,12.0,0.0
26214,61.0,0.0,30.0,11.0,0.0
26215,61.0,0.0,30.0,8.0,0.0
26216,49.0,40.0,30.0,12.0,0.0
26217,61.0,0.0,30.0,11.0,0.0
26218,49.0,0.0,30.0,12.0,0.0
26219,61.0,28.0,30.0,8.0,0.0
26220,66.0,0.0,60.0,4.0,0.0
26221,78.0,12.0,60.0,5.0,0.0
26222,73.0,0.0,60.0,5.0,0.0
26223,54.0,0.0,60.0,6.0,0.0
26224,61.0,0.0,30.0,11.0,0.0
26225,54.0,0.0,60.0,4.0,0.0
26226,61.0,0.0,30.0,8.0,0.0
26227,61.0,40.0,30.0,11.0,0.0
26228,49.0,0.0,30.0,12.0,0.0
26229,61.0,0.0,30.0,11.0,0.0
26230,49.0,0.0,30.0,12.0,0.0
26231,61.0,8.0,30.0,8.0,0.0
26232,51.0,0.0,30.0,12.0,0.0
26233,73.0,0.0,180.0,5.0,0.0
26234,78.0,0.0,180.0,5.0,0.0
26235,63.0,0.0,30.0,11.0,0.0
26236,39.0,0.0,240.0,13.0,0.0
26237,54.0,0.0,180.0,4.0,0.0
26238,81.0,0.0,720.0,1.0,0.0
26239,63.0,40.0,30.0,8.0,0.0
26240,78.0,6.0,720.0,1.0,0.0
26241,69.0,0.0,720.0,2.0,0.0
26242,66.0,0.0,720.0,2.0,0.0
26243,51.0,32.0,240.0,3.0,0.0
26244,57.0,0.0,180.0,4.0,0.0
26245,66.0,0.0,180.0,4.0,0.0
26246,69.0,0.0,180.0,4.0,0.0
26247,54.0,40.0,180.0,6.0,0.0
26248,63.0,0.0,30.0,8.0,0.0
26249,51.0,0.0,30.0,12.0,0.0
26250,63.0,40.0,30.0,11.0,0.0
26251,63.0,0.0,30.0,11.0,0.0
26252,63.0,0.0,30.0,8.0,0.0
26253,51.0,40.0,30.0,12.0,0.0
26254,51.0,40.0,30.0,12.0,0.0
26255,63.0,0.0,30.0,8.0,0.0
26256,63.0,0.0,30.0,11.0,0.0
26257,51.0,0.0,30.0,12.0,0.0
26258,63.0,0.0,30.0,11.0,0.0
26259,63.0,0.0,30.0,8.0,0.0
26260,63.0,0.0,30.0,8.0,0.0
26261,63.0,8.0,30.0,11.0,0.0
26262,51.0,0.0,30.0,12.0,0.0
26263,53.0,32.0,240.0,3.0,0.0
26264,41.0,0.0,240.0,13.0,0.0
26265,65.0,0.0,30.0,11.0,0.0
26266,65.0,0.0,30.0,8.0,0.0
26267,53.0,40.0,30.0,12.0,0.0
26268,65.0,0.0,30.0,8.0,0.0
26269,65.0,40.0,30.0,11.0,0.0
26270,53.0,0.0,30.0,12.0,0.0
26271,65.0,40.0,30.0,11.0,0.0
26272,65.0,0.0,30.0,8.0,0.0
26273,53.0,0.0,30.0,12.0,0.0
26274,54.0,0.0,60.0,4.0,0.0
26275,66.0,0.0,60.0,4.0,0.0
26276,78.0,0.0,60.0,5.0,0.0
26277,53.0,28.0,30.0,12.0,0.0
26278,65.0,0.0,30.0,11.0,0.0
26279,73.0,0.0,60.0,5.0,0.0
26280,73.0,12.0,60.0,4.0,0.0
26281,65.0,0.0,30.0,8.0,0.0
26282,54.0,0.0,60.0,6.0,0.0
26283,53.0,40.0,30.0,12.0,0.0
26284,65.0,0.0,30.0,11.0,0.0
26285,65.0,0.0,30.0,8.0,0.0
26286,53.0,0.0,30.0,12.0,0.0
26287,65.0,0.0,30.0,11.0,0.0
26288,65.0,8.0,30.0,8.0,0.0
26289,54.0,40.0,30.0,12.0,0.0
26290,42.0,32.0,240.0,13.0,0.0
26291,66.0,16.0,570.0,4.0,0.0
26292,54.0,0.0,570.0,4.0,0.0
26293,66.0,0.0,30.0,8.0,0.0
26294,54.0,0.0,240.0,3.0,0.0
26295,73.0,14.0,1380.0,4.0,0.0
26296,73.0,0.0,570.0,5.0,0.0
26297,61.0,0.0,570.0,4.0,0.0
26298,54.0,0.0,570.0,6.0,0.0
26299,78.0,0.0,570.0,5.0,0.0
26300,54.0,40.0,30.0,12.0,0.0
26301,66.0,0.0,30.0,8.0,0.0
26302,66.0,0.0,30.0,8.0,0.0
26303,54.0,40.0,30.0,12.0,0.0
26304,66.0,0.0,30.0,8.0,0.0
26305,54.0,40.0,30.0,12.0,0.0
26306,54.0,0.0,30.0,12.0,0.0
26307,66.0,34.0,30.0,8.0,0.0
26308,66.0,8.0,30.0,8.0,0.0
26309,54.0,0.0,30.0,12.0,0.0
26310,65.0,0.0,30.0,8.0,0.0
26311,53.0,0.0,240.0,3.0,0.0
26312,41.0,32.0,240.0,13.0,0.0
26313,53.0,40.0,30.0,12.0,0.0
26314,53.0,40.0,30.0,12.0,0.0
26315,65.0,0.0,30.0,8.0,0.0
26316,53.0,40.0,30.0,12.0,0.0
26317,65.0,0.0,30.0,8.0,0.0
26318,73.0,0.0,60.0,1.0,0.0
26319,53.0,0.0,30.0,12.0,0.0
26320,78.0,0.0,60.0,1.0,0.0
26321,66.0,0.0,60.0,2.0,0.0
26322,61.0,0.0,60.0,2.0,0.0
26323,65.0,40.0,30.0,8.0,0.0
26324,53.0,40.0,30.0,12.0,0.0
26325,65.0,0.0,30.0,8.0,0.0
26326,65.0,0.0,30.0,8.0,0.0
26327,53.0,8.0,30.0,12.0,0.0
26328,78.0,0.0,240.0,1.0,0.0
26329,64.0,0.0,30.0,8.0,0.0
26330,52.0,32.0,240.0,3.0,0.0
26331,81.0,0.0,240.0,1.0,0.0
26332,69.0,0.0,240.0,2.0,0.0
26333,66.0,6.0,240.0,2.0,0.0
26334,40.0,0.0,240.0,13.0,0.0
26335,52.0,40.0,30.0,12.0,0.0
26336,64.0,24.0,30.0,8.0,0.0
26337,52.0,0.0,30.0,12.0,0.0
26338,52.0,40.0,30.0,12.0,0.0
26339,64.0,0.0,30.0,8.0,0.0
26340,52.0,0.0,30.0,12.0,0.0
26341,64.0,40.0,30.0,8.0,0.0
26342,52.0,0.0,30.0,12.0,0.0
26343,64.0,34.0,30.0,8.0,0.0
26344,52.0,8.0,30.0,12.0,0.0
26345,64.0,0.0,30.0,8.0,0.0
26346,63.0,0.0,30.0,11.0,0.0
26347,39.0,0.0,240.0,13.0,0.0
26348,63.0,40.0,30.0,8.0,0.0
26349,51.0,0.0,30.0,12.0,0.0
26350,51.0,32.0,240.0,3.0,0.0
26351,63.0,0.0,30.0,11.0,0.0
26352,51.0,40.0,30.0,12.0,0.0
26353,63.0,0.0,30.0,8.0,0.0
26354,63.0,0.0,30.0,11.0,0.0
26355,63.0,0.0,30.0,8.0,0.0
26356,51.0,40.0,30.0,12.0,0.0
26357,85.0,0.0,60.0,1.0,0.0
26358,81.0,0.0,60.0,1.0,0.0
26359,54.0,12.0,60.0,6.0,0.0
26360,63.0,0.0,30.0,8.0,0.0
26361,69.0,0.0,60.0,2.0,0.0
26362,66.0,0.0,60.0,5.0,0.0
26363,63.0,0.0,30.0,11.0,0.0
26364,73.0,0.0,60.0,2.0,0.0
26365,51.0,28.0,30.0,12.0,0.0
26366,63.0,0.0,30.0,11.0,0.0
26367,63.0,0.0,30.0,8.0,0.0
26368,51.0,40.0,30.0,12.0,0.0
26369,63.0,0.0,30.0,11.0,0.0
26370,63.0,0.0,30.0,8.0,0.0
26371,51.0,8.0,30.0,12.0,0.0
26372,62.0,0.0,30.0,11.0,0.0
26373,81.0,0.0,480.0,1.0,0.0
26374,85.0,0.0,480.0,1.0,0.0
26375,62.0,0.0,30.0,8.0,0.0
26376,69.0,0.0,480.0,2.0,0.0
26377,50.0,40.0,30.0,12.0,0.0
26378,73.0,0.0,480.0,2.0,0.0
26379,61.0,0.0,120.0,5.0,0.0
26380,49.0,32.0,120.0,6.0,0.0
26381,50.0,0.0,240.0,3.0,0.0
26382,38.0,32.0,240.0,13.0,0.0
26383,62.0,0.0,30.0,8.0,0.0
26384,62.0,0.0,30.0,11.0,0.0
26385,50.0,40.0,30.0,12.0,0.0
26386,62.0,8.0,30.0,11.0,0.0
26387,50.0,0.0,30.0,12.0,0.0
26388,62.0,0.0,30.0,8.0,0.0
26389,62.0,0.0,30.0,8.0,0.0
26390,62.0,0.0,30.0,11.0,0.0
26391,50.0,40.0,30.0,12.0,0.0
26392,50.0,0.0,30.0,12.0,0.0
26393,62.0,40.0,30.0,11.0,0.0
26394,62.0,0.0,30.0,8.0,0.0
26395,62.0,0.0,30.0,8.0,0.0
26396,50.0,8.0,30.0,12.0,0.0
26397,62.0,0.0,30.0,11.0,0.0
26398,49.0,0.0,30.0,12.0,0.0
26399,61.0,40.0,30.0,8.0,0.0
26400,49.0,32.0,240.0,3.0,0.0
26401,61.0,0.0,30.0,11.0,0.0
26402,37.0,0.0,240.0,13.0,0.0
26403,49.0,0.0,30.0,12.0,0.0
26404,61.0,40.0,30.0,11.0,0.0
26405,61.0,0.0,30.0,8.0,0.0
26406,49.0,0.0,30.0,12.0,0.0
26407,61.0,40.0,30.0,8.0,0.0
26408,61.0,0.0,30.0,11.0,0.0
26409,49.0,0.0,30.0,12.0,0.0
26410,61.0,0.0,30.0,8.0,0.0
26411,61.0,16.0,30.0,11.0,0.0
26412,61.0,40.0,30.0,11.0,0.0
26413,61.0,0.0,30.0,8.0,0.0
26414,49.0,0.0,30.0,12.0,0.0
26415,49.0,0.0,30.0,12.0,0.0
26416,61.0,0.0,30.0,11.0,0.0
26417,61.0,8.0,30.0,8.0,0.0
26418,51.0,0.0,240.0,3.0,0.0
26419,80.0,32.0,480.0,1.0,0.0
26420,51.0,0.0,30.0,12.0,0.0
26421,83.0,0.0,120.0,1.0,0.0
26422,63.0,40.0,30.0,11.0,0.0
26423,71.0,32.0,120.0,2.0,0.0
26424,63.0,0.0,30.0,8.0,0.0
26425,71.0,0.0,480.0,4.0,0.0
26426,68.0,0.0,480.0,4.0,0.0
26427,39.0,12.0,240.0,13.0,0.0
26428,68.0,0.0,480.0,2.0,0.0
26429,63.0,0.0,30.0,8.0,0.0
26430,51.0,40.0,30.0,12.0,0.0
26431,63.0,0.0,30.0,11.0,0.0
26432,51.0,8.0,30.0,12.0,0.0
26433,63.0,0.0,30.0,8.0,0.0
26434,63.0,0.0,30.0,11.0,0.0
26435,63.0,12.0,30.0,8.0,0.0
26436,63.0,0.0,30.0,11.0,0.0
26437,73.0,0.0,30.0,2.0,0.0
26438,85.0,28.0,30.0,1.0,0.0
26439,51.0,0.0,30.0,12.0,0.0
26440,51.0,0.0,30.0,12.0,0.0
26441,63.0,16.0,30.0,11.0,0.0
26442,63.0,0.0,30.0,8.0,0.0
26443,71.0,24.0,30.0,2.0,0.0
26444,83.0,0.0,30.0,1.0,0.0
26445,51.0,0.0,30.0,12.0,0.0
26446,63.0,0.0,30.0,8.0,0.0
26447,63.0,8.0,30.0,11.0,0.0
26448,85.0,0.0,30.0,1.0,0.0
26449,73.0,20.0,30.0,2.0,0.0
26450,53.0,0.0,240.0,3.0,0.0
26451,53.0,0.0,30.0,12.0,0.0
26452,65.0,24.0,30.0,8.0,0.0
26453,65.0,0.0,30.0,11.0,0.0
26454,41.0,0.0,240.0,13.0,0.0
26455,71.0,0.0,30.0,2.0,0.0
26456,83.0,16.0,30.0,1.0,0.0
26457,65.0,28.0,30.0,8.0,0.0
26458,65.0,0.0,30.0,11.0,0.0
26459,53.0,0.0,30.0,12.0,0.0
26460,73.0,0.0,30.0,2.0,0.0
26461,85.0,12.0,30.0,1.0,0.0
26462,53.0,0.0,30.0,12.0,0.0
26463,65.0,0.0,30.0,11.0,0.0
26464,65.0,32.0,30.0,8.0,0.0
26465,83.0,8.0,30.0,1.0,0.0
26466,71.0,0.0,30.0,2.0,0.0
26467,65.0,28.0,30.0,8.0,0.0
26468,61.0,8.0,60.0,5.0,0.0
26469,49.0,0.0,60.0,6.0,0.0
26470,65.0,0.0,30.0,11.0,0.0
26471,53.0,0.0,30.0,12.0,0.0
26472,73.0,0.0,30.0,2.0,0.0
26473,85.0,4.0,30.0,1.0,0.0
26474,65.0,0.0,30.0,11.0,0.0
26475,53.0,0.0,30.0,12.0,0.0
26476,65.0,40.0,30.0,8.0,0.0
26477,71.0,0.0,30.0,2.0,0.0
26478,83.0,0.0,30.0,1.0,0.0
26479,65.0,0.0,30.0,11.0,0.0
26480,65.0,0.0,30.0,8.0,0.0
26481,53.0,8.0,30.0,12.0,0.0
26482,69.0,0.0,240.0,2.0,0.0
26483,66.0,0.0,240.0,2.0,0.0
26484,66.0,0.0,120.0,5.0,0.0
26485,54.0,0.0,30.0,12.0,0.0
26486,69.0,0.0,180.0,4.0,0.0
26487,54.0,34.0,180.0,4.0,0.0
26488,42.0,0.0,240.0,13.0,0.0
26489,66.0,40.0,30.0,8.0,0.0
26490,78.0,6.0,240.0,1.0,0.0
26491,81.0,0.0,240.0,1.0,0.0
26492,66.0,0.0,180.0,4.0,0.0
26493,54.0,32.0,120.0,6.0,0.0
26494,54.0,32.0,240.0,3.0,0.0
26495,66.0,40.0,30.0,8.0,0.0
26496,54.0,0.0,30.0,12.0,0.0
26497,54.0,0.0,30.0,12.0,0.0
26498,66.0,8.0,30.0,8.0,0.0
26499,54.0,40.0,30.0,12.0,0.0
26500,66.0,0.0,30.0,8.0,0.0
26501,66.0,0.0,30.0,8.0,0.0
26502,54.0,0.0,30.0,12.0,0.0
26503,66.0,8.0,30.0,8.0,0.0
26504,54.0,0.0,30.0,12.0,0.0
26505,53.0,0.0,30.0,12.0,0.0
26506,53.0,0.0,240.0,3.0,0.0
26507,41.0,32.0,240.0,13.0,0.0
26508,65.0,40.0,30.0,8.0,0.0
26509,65.0,0.0,30.0,8.0,0.0
26510,53.0,40.0,30.0,12.0,0.0
26511,53.0,40.0,30.0,12.0,0.0
26512,65.0,0.0,30.0,8.0,0.0
26513,73.0,0.0,60.0,1.0,0.0
26514,65.0,40.0,30.0,8.0,0.0
26515,73.0,0.0,60.0,2.0,0.0
26516,85.0,40.0,60.0,0.0,0.0
26517,69.0,0.0,60.0,1.0,0.0
26518,53.0,0.0,30.0,12.0,0.0
26519,69.0,0.0,60.0,2.0,0.0
26520,81.0,0.0,60.0,0.0,0.0
26521,65.0,0.0,30.0,8.0,0.0
26522,53.0,0.0,30.0,12.0,0.0
26523,53.0,8.0,30.0,12.0,0.0
26524,65.0,0.0,30.0,8.0,0.0
26525,69.0,0.0,240.0,1.0,0.0
26526,64.0,0.0,30.0,8.0,0.0
26527,73.0,0.0,240.0,2.0,0.0
26528,69.0,0.0,240.0,2.0,0.0
26529,78.0,0.0,240.0,1.0,0.0
26530,81.0,0.0,240.0,0.0,0.0
26531,52.0,40.0,30.0,12.0,0.0
26532,90.0,6.0,240.0,0.0,0.0
26533,52.0,0.0,240.0,3.0,0.0
26534,40.0,32.0,240.0,13.0,0.0
26535,64.0,0.0,30.0,8.0,0.0
26536,52.0,40.0,30.0,12.0,0.0
26537,64.0,40.0,30.0,8.0,0.0
26538,52.0,0.0,30.0,12.0,0.0
26539,64.0,40.0,30.0,8.0,0.0
26540,52.0,0.0,30.0,12.0,0.0
26541,64.0,34.0,30.0,8.0,0.0
26542,52.0,0.0,30.0,12.0,0.0
26543,64.0,0.0,30.0,8.0,0.0
26544,52.0,8.0,30.0,12.0,0.0
26545,63.0,40.0,30.0,11.0,0.0
26546,51.0,0.0,30.0,12.0,0.0
26547,39.0,0.0,240.0,13.0,0.0
26548,51.0,32.0,240.0,3.0,0.0
26549,63.0,0.0,30.0,8.0,0.0
26550,63.0,0.0,30.0,11.0,0.0
26551,51.0,40.0,30.0,12.0,0.0
26552,63.0,0.0,30.0,8.0,0.0
26553,51.0,0.0,30.0,12.0,0.0
26554,63.0,0.0,30.0,8.0,0.0
26555,63.0,40.0,30.0,11.0,0.0
26556,51.0,28.0,30.0,12.0,0.0
26557,63.0,0.0,30.0,8.0,0.0
26558,63.0,0.0,30.0,11.0,0.0
26559,66.0,0.0,60.0,5.0,0.0
26560,54.0,12.0,60.0,6.0,0.0
26561,73.0,0.0,60.0,1.0,0.0
26562,73.0,0.0,60.0,2.0,0.0
26563,69.0,0.0,60.0,2.0,0.0
26564,81.0,0.0,60.0,1.0,0.0
26565,93.0,0.0,60.0,0.0,0.0
26566,85.0,40.0,60.0,0.0,0.0
26567,63.0,0.0,30.0,11.0,0.0
26568,63.0,0.0,30.0,8.0,0.0
26569,51.0,0.0,30.0,12.0,0.0
26570,51.0,0.0,30.0,12.0,0.0
26571,63.0,8.0,30.0,11.0,0.0
26572,63.0,0.0,30.0,8.0,0.0
26573,38.0,32.0,240.0,13.0,0.0
26574,81.0,0.0,480.0,1.0,0.0
26575,73.0,0.0,480.0,1.0,0.0
26576,93.0,0.0,480.0,0.0,0.0
26577,85.0,0.0,480.0,0.0,0.0
26578,62.0,0.0,30.0,8.0,0.0
26579,49.0,32.0,120.0,6.0,0.0
26580,50.0,40.0,30.0,12.0,0.0
26581,50.0,0.0,240.0,3.0,0.0
26582,62.0,0.0,30.0,11.0,0.0
26583,61.0,0.0,120.0,5.0,0.0
26584,69.0,0.0,480.0,2.0,0.0
26585,73.0,32.0,480.0,2.0,0.0
26586,50.0,0.0,30.0,12.0,0.0
26587,62.0,40.0,30.0,11.0,0.0
26588,62.0,0.0,30.0,8.0,0.0
26589,62.0,0.0,30.0,8.0,0.0
26590,50.0,8.0,30.0,12.0,0.0
26591,62.0,0.0,30.0,11.0,0.0
26592,62.0,40.0,30.0,8.0,0.0
26593,50.0,0.0,30.0,12.0,0.0
26594,62.0,0.0,30.0,11.0,0.0
26595,50.0,0.0,30.0,12.0,0.0
26596,62.0,0.0,30.0,8.0,0.0
26597,62.0,40.0,30.0,11.0,0.0
26598,62.0,8.0,30.0,11.0,0.0
26599,50.0,0.0,30.0,12.0,0.0
26600,62.0,0.0,30.0,8.0,0.0
26601,61.0,0.0,30.0,11.0,0.0
26602,49.0,0.0,240.0,3.0,0.0
26603,37.0,0.0,240.0,13.0,0.0
26604,49.0,0.0,30.0,12.0,0.0
26605,61.0,40.0,30.0,8.0,0.0
26606,49.0,0.0,30.0,12.0,0.0
26607,61.0,40.0,30.0,8.0,0.0
26608,61.0,0.0,30.0,11.0,0.0
26609,61.0,0.0,30.0,8.0,0.0
26610,49.0,40.0,30.0,12.0,0.0
26611,61.0,0.0,30.0,11.0,0.0
26612,61.0,0.0,30.0,11.0,0.0
26613,49.0,40.0,30.0,12.0,0.0
26614,61.0,0.0,30.0,8.0,0.0
26615,61.0,0.0,30.0,8.0,0.0
26616,61.0,0.0,30.0,11.0,0.0
26617,49.0,40.0,30.0,12.0,0.0
26618,49.0,0.0,30.0,12.0,0.0
26619,61.0,0.0,30.0,8.0,0.0
26620,61.0,8.0,30.0,11.0,0.0
26621,39.0,0.0,240.0,13.0,0.0
26622,51.0,12.0,240.0,3.0,0.0
26623,63.0,0.0,30.0,8.0,0.0
26624,71.0,0.0,480.0,2.0,0.0
26625,61.0,7.0,390.0,4.0,0.0
26626,71.0,0.0,480.0,1.0,0.0
26627,80.0,0.0,120.0,1.0,0.0
26628,92.0,32.0,120.0,0.0,0.0
26629,51.0,40.0,30.0,12.0,0.0
26630,68.0,8.0,390.0,4.0,0.0
26631,83.0,0.0,480.0,0.0,0.0
26632,63.0,0.0,30.0,11.0,0.0
26633,51.0,0.0,30.0,12.0,0.0
26634,63.0,40.0,30.0,8.0,0.0
26635,63.0,0.0,30.0,11.0,0.0
26636,51.0,0.0,30.0,12.0,0.0
26637,63.0,8.0,30.0,11.0,0.0
26638,63.0,0.0,30.0,8.0,0.0
26639,63.0,0.0,30.0,11.0,0.0
26640,93.0,0.0,30.0,0.0,0.0
26641,81.0,28.0,30.0,1.0,0.0
26642,63.0,12.0,30.0,8.0,0.0
26643,51.0,0.0,30.0,12.0,0.0
26644,51.0,0.0,30.0,12.0,0.0
26645,63.0,16.0,30.0,8.0,0.0
26646,63.0,0.0,30.0,11.0,0.0
26647,92.0,0.0,30.0,0.0,0.0
26648,80.0,24.0,30.0,1.0,0.0
26649,51.0,8.0,30.0,12.0,0.0
26650,63.0,0.0,30.0,11.0,0.0
26651,63.0,0.0,30.0,8.0,0.0
26652,93.0,0.0,30.0,0.0,0.0
26653,81.0,20.0,30.0,1.0,0.0
26654,41.0,0.0,240.0,13.0,0.0
26655,53.0,0.0,30.0,12.0,0.0
26656,65.0,24.0,30.0,8.0,0.0
26657,53.0,32.0,240.0,3.0,0.0
26658,65.0,0.0,30.0,11.0,0.0
26659,92.0,0.0,30.0,0.0,0.0
26660,80.0,16.0,30.0,1.0,0.0
26661,65.0,28.0,30.0,11.0,0.0
26662,65.0,0.0,30.0,8.0,0.0
26663,53.0,0.0,30.0,12.0,0.0
26664,81.0,0.0,30.0,1.0,0.0
26665,93.0,12.0,30.0,0.0,0.0
26666,65.0,0.0,30.0,8.0,0.0
26667,65.0,0.0,30.0,11.0,0.0
26668,53.0,25.0,30.0,12.0,0.0
26669,80.0,0.0,30.0,1.0,0.0
26670,92.0,0.0,30.0,0.0,0.0
26671,61.0,8.0,60.0,5.0,0.0
26672,49.0,0.0,60.0,6.0,0.0
26673,65.0,0.0,30.0,11.0,0.0
26674,53.0,0.0,30.0,12.0,0.0
26675,65.0,28.0,30.0,8.0,0.0
26676,93.0,4.0,30.0,0.0,0.0
26677,81.0,0.0,30.0,1.0,0.0
26678,65.0,0.0,30.0,8.0,0.0
26679,65.0,0.0,30.0,11.0,0.0
26680,53.0,40.0,30.0,12.0,0.0
26681,92.0,0.0,30.0,0.0,0.0
26682,80.0,0.0,30.0,1.0,0.0
26683,65.0,8.0,30.0,8.0,0.0
26684,53.0,0.0,30.0,12.0,0.0
26685,65.0,0.0,30.0,11.0,0.0
26686,90.0,6.0,240.0,0.0,0.0
26687,81.0,0.0,240.0,0.0,0.0
26688,54.0,0.0,120.0,6.0,0.0
26689,69.0,0.0,240.0,1.0,0.0
26690,66.0,34.0,180.0,4.0,0.0
26691,54.0,0.0,180.0,4.0,0.0
26692,73.0,0.0,15.0,2.0,0.0
26693,69.0,0.0,240.0,2.0,0.0
26694,78.0,0.0,240.0,1.0,0.0
26695,54.0,0.0,240.0,3.0,0.0
26696,42.0,32.0,240.0,13.0,0.0
26697,78.0,40.0,30.0,8.0,0.0
26698,54.0,0.0,30.0,12.0,0.0
26699,66.0,32.0,120.0,5.0,0.0
26700,54.0,40.0,30.0,12.0,0.0
26701,78.0,0.0,30.0,8.0,0.0
26702,78.0,8.0,30.0,8.0,0.0
26703,54.0,0.0,30.0,12.0,0.0
26704,78.0,40.0,30.0,8.0,0.0
26705,54.0,0.0,30.0,12.0,0.0
26706,78.0,0.0,30.0,8.0,0.0
26707,54.0,0.0,30.0,12.0,0.0
26708,78.0,8.0,30.0,8.0,0.0
26709,54.0,0.0,30.0,12.0,0.0
26710,41.0,32.0,240.0,13.0,0.0
26711,77.0,0.0,30.0,8.0,0.0
26712,53.0,40.0,30.0,12.0,0.0
26713,53.0,0.0,240.0,3.0,0.0
26714,77.0,0.0,30.0,8.0,0.0
26715,53.0,40.0,30.0,12.0,0.0
26716,53.0,40.0,30.0,12.0,0.0
26717,77.0,0.0,30.0,8.0,0.0
26718,90.0,0.0,60.0,0.0,0.0
26719,85.0,0.0,60.0,0.0,0.0
26720,53.0,0.0,30.0,12.0,0.0
26721,78.0,0.0,60.0,1.0,0.0
26722,73.0,0.0,60.0,1.0,0.0
26723,61.0,0.0,60.0,2.0,0.0
26724,77.0,40.0,30.0,8.0,0.0
26725,66.0,40.0,60.0,2.0,0.0
26726,77.0,0.0,30.0,8.0,0.0
26727,53.0,0.0,30.0,12.0,0.0
26728,77.0,8.0,30.0,8.0,0.0
26729,53.0,0.0,30.0,12.0,0.0
26730,69.0,6.0,240.0,2.0,0.0
26731,76.0,0.0,30.0,8.0,0.0
26732,66.0,0.0,240.0,2.0,0.0
26733,52.0,40.0,30.0,12.0,0.0
26734,81.0,0.0,240.0,1.0,0.0
26735,52.0,32.0,240.0,3.0,0.0
26736,78.0,0.0,240.0,1.0,0.0
26737,40.0,0.0,240.0,13.0,0.0
26738,93.0,0.0,240.0,0.0,0.0
26739,90.0,0.0,240.0,0.0,0.0
26740,76.0,0.0,30.0,8.0,0.0
26741,52.0,40.0,30.0,12.0,0.0
26742,76.0,40.0,30.0,8.0,0.0
26743,52.0,0.0,30.0,12.0,0.0
26744,52.0,0.0,30.0,12.0,0.0
26745,76.0,40.0,30.0,8.0,0.0
26746,76.0,0.0,30.0,8.0,0.0
26747,52.0,34.0,30.0,12.0,0.0
26748,52.0,0.0,30.0,12.0,0.0
26749,76.0,8.0,30.0,8.0,0.0
26750,39.0,0.0,240.0,13.0,0.0
26751,63.0,0.0,30.0,11.0,0.0
26752,51.0,32.0,240.0,3.0,0.0
26753,75.0,0.0,30.0,8.0,0.0
26754,51.0,40.0,30.0,12.0,0.0
26755,75.0,40.0,30.0,8.0,0.0
26756,63.0,0.0,30.0,11.0,0.0
26757,51.0,0.0,30.0,12.0,0.0
26758,51.0,40.0,30.0,12.0,0.0
26759,63.0,0.0,30.0,11.0,0.0
26760,75.0,0.0,30.0,8.0,0.0
26761,66.0,0.0,60.0,5.0,0.0
26762,81.0,0.0,60.0,1.0,0.0
26763,63.0,0.0,30.0,11.0,0.0
26764,51.0,0.0,30.0,12.0,0.0
26765,75.0,28.0,30.0,8.0,0.0
26766,85.0,0.0,60.0,1.0,0.0
26767,97.0,0.0,60.0,0.0,0.0
26768,93.0,0.0,60.0,0.0,0.0
26769,54.0,12.0,60.0,6.0,0.0
26770,73.0,18.0,60.0,2.0,0.0
26771,69.0,0.0,60.0,2.0,0.0
26772,75.0,0.0,30.0,8.0,0.0
26773,63.0,0.0,30.0,11.0,0.0
26774,51.0,0.0,30.0,12.0,0.0
26775,69.0,22.0,30.0,4.0,0.0
26776,63.0,0.0,30.0,11.0,0.0
26777,75.0,0.0,30.0,8.0,0.0
26778,51.0,8.0,30.0,12.0,0.0
26779,38.0,0.0,240.0,13.0,0.0
26780,73.0,4.0,420.0,4.0,0.0
26781,97.0,0.0,480.0,0.0,0.0
26782,93.0,0.0,480.0,0.0,0.0
26783,62.0,40.0,30.0,11.0,0.0
26784,66.0,32.0,120.0,5.0,0.0
26785,85.0,0.0,480.0,1.0,0.0
26786,54.0,0.0,120.0,6.0,0.0
26787,69.0,0.0,480.0,2.0,0.0
26788,73.0,0.0,480.0,2.0,0.0
26789,69.0,0.0,480.0,4.0,0.0
26790,50.0,32.0,240.0,3.0,0.0
26791,81.0,0.0,480.0,1.0,0.0
26792,74.0,0.0,30.0,8.0,0.0
26793,50.0,0.0,30.0,12.0,0.0
26794,74.0,0.0,30.0,8.0,0.0
26795,62.0,0.0,30.0,11.0,0.0
26796,50.0,40.0,30.0,12.0,0.0
26797,62.0,0.0,30.0,11.0,0.0
26798,50.0,0.0,30.0,12.0,0.0
26799,74.0,8.0,30.0,8.0,0.0
26800,74.0,40.0,30.0,8.0,0.0
26801,50.0,0.0,30.0,12.0,0.0
26802,62.0,0.0,30.0,11.0,0.0
26803,50.0,0.0,30.0,12.0,0.0
26804,74.0,40.0,30.0,8.0,0.0
26805,62.0,0.0,30.0,11.0,0.0
26806,62.0,0.0,30.0,11.0,0.0
26807,50.0,0.0,30.0,12.0,0.0
26808,74.0,8.0,30.0,8.0,0.0
26809,49.0,40.0,30.0,12.0,0.0
26810,73.0,0.0,30.0,8.0,0.0
26811,49.0,0.0,240.0,3.0,0.0
26812,61.0,0.0,30.0,11.0,0.0
26813,37.0,0.0,240.0,13.0,0.0
26814,61.0,0.0,30.0,11.0,0.0
26815,49.0,0.0,30.0,12.0,0.0
26816,73.0,40.0,30.0,8.0,0.0
26817,73.0,40.0,30.0,8.0,0.0
26818,49.0,0.0,30.0,12.0,0.0
26819,61.0,0.0,30.0,11.0,0.0
26820,49.0,0.0,30.0,12.0,0.0
26821,73.0,36.0,30.0,8.0,0.0
26822,61.0,0.0,30.0,11.0,0.0
26823,61.0,40.0,30.0,11.0,0.0
26824,73.0,0.0,30.0,8.0,0.0
26825,49.0,0.0,30.0,12.0,0.0
26826,49.0,0.0,30.0,12.0,0.0
26827,73.0,0.0,30.0,8.0,0.0
26828,61.0,8.0,30.0,11.0,0.0
26829,39.0,0.0,240.0,13.0,0.0
26830,75.0,0.0,30.0,8.0,0.0
26831,71.0,0.0,120.0,2.0,0.0
26832,68.0,0.0,480.0,2.0,0.0
26833,63.0,40.0,30.0,11.0,0.0
26834,68.0,0.0,480.0,4.0,0.0
26835,71.0,32.0,480.0,4.0,0.0
26836,95.0,32.0,120.0,0.0,0.0
26837,92.0,0.0,480.0,0.0,0.0
26838,51.0,0.0,30.0,12.0,0.0
26839,83.0,0.0,120.0,1.0,0.0
26840,80.0,0.0,480.0,1.0,0.0
26841,51.0,12.0,240.0,3.0,0.0
26842,51.0,0.0,30.0,12.0,0.0
26843,75.0,40.0,30.0,8.0,0.0
26844,63.0,0.0,30.0,11.0,0.0
26845,51.0,0.0,30.0,12.0,0.0
26846,75.0,0.0,30.0,8.0,0.0
26847,63.0,8.0,30.0,11.0,0.0
26848,75.0,0.0,30.0,8.0,0.0
26849,73.0,28.0,30.0,2.0,0.0
26850,97.0,0.0,30.0,0.0,0.0
26851,51.0,12.0,30.0,12.0,0.0
26852,63.0,0.0,30.0,11.0,0.0
26853,85.0,0.0,30.0,1.0,0.0
26854,51.0,0.0,30.0,12.0,0.0
26855,63.0,16.0,30.0,11.0,0.0
26856,75.0,0.0,30.0,8.0,0.0
26857,95.0,0.0,30.0,0.0,0.0
26858,83.0,0.0,30.0,1.0,0.0
26859,71.0,24.0,30.0,2.0,0.0
26860,75.0,0.0,30.0,8.0,0.0
26861,63.0,0.0,30.0,11.0,0.0
26862,51.0,8.0,30.0,12.0,0.0
26863,97.0,0.0,30.0,0.0,0.0
26864,73.0,0.0,30.0,2.0,0.0
26865,85.0,20.0,30.0,1.0,0.0
26866,53.0,0.0,240.0,3.0,0.0
26867,65.0,0.0,30.0,11.0,0.0
26868,41.0,0.0,240.0,13.0,0.0
26869,77.0,24.0,30.0,8.0,0.0
26870,53.0,0.0,30.0,12.0,0.0
26871,71.0,0.0,30.0,2.0,0.0
26872,95.0,0.0,30.0,0.0,0.0
26873,83.0,16.0,30.0,1.0,0.0
26874,77.0,0.0,30.0,8.0,0.0
26875,65.0,0.0,30.0,11.0,0.0
26876,53.0,28.0,30.0,12.0,0.0
26877,97.0,0.0,30.0,0.0,0.0
26878,73.0,0.0,30.0,2.0,0.0
26879,85.0,12.0,30.0,1.0,0.0
26880,65.0,32.0,30.0,11.0,0.0
26881,53.0,0.0,30.0,12.0,0.0
26882,77.0,0.0,30.0,8.0,0.0
26883,83.0,8.0,30.0,1.0,0.0
26884,95.0,0.0,30.0,0.0,0.0
26885,71.0,0.0,30.0,2.0,0.0
26886,77.0,28.0,30.0,8.0,0.0
26887,61.0,0.0,60.0,5.0,0.0
26888,53.0,0.0,30.0,12.0,0.0
26889,65.0,0.0,30.0,11.0,0.0
26890,49.0,8.0,60.0,6.0,0.0
26891,73.0,4.0,30.0,2.0,0.0
26892,97.0,0.0,30.0,0.0,0.0
26893,85.0,0.0,30.0,1.0,0.0
26894,65.0,0.0,30.0,11.0,0.0
26895,77.0,0.0,30.0,8.0,0.0
26896,53.0,40.0,30.0,12.0,0.0
26897,83.0,0.0,30.0,1.0,0.0
26898,71.0,8.0,30.0,2.0,0.0
26899,95.0,0.0,30.0,0.0,0.0
26900,77.0,0.0,30.0,8.0,0.0
26901,65.0,0.0,30.0,11.0,0.0
26902,53.0,0.0,30.0,12.0,0.0
26903,81.0,0.0,240.0,1.0,0.0
26904,90.0,0.0,30.0,8.0,0.0
26905,78.0,0.0,30.0,10.0,0.0
26906,42.0,32.0,240.0,13.0,0.0
26907,69.0,0.0,240.0,2.0,0.0
26908,66.0,0.0,180.0,4.0,0.0
26909,93.0,0.0,240.0,0.0,0.0
26910,90.0,0.0,240.0,0.0,0.0
26911,78.0,6.0,240.0,1.0,0.0
26912,54.0,0.0,240.0,3.0,0.0
26913,54.0,40.0,30.0,12.0,0.0
26914,54.0,0.0,180.0,4.0,0.0
26915,54.0,32.0,120.0,6.0,0.0
26916,66.0,0.0,240.0,2.0,0.0
26917,69.0,0.0,180.0,4.0,0.0
26918,66.0,0.0,120.0,5.0,0.0
26919,90.0,0.0,30.0,8.0,0.0
26920,78.0,0.0,30.0,10.0,0.0
26921,54.0,40.0,30.0,12.0,0.0
26922,78.0,0.0,30.0,10.0,0.0
26923,90.0,8.0,30.0,8.0,0.0
26924,54.0,0.0,30.0,12.0,0.0
26925,78.0,0.0,30.0,10.0,0.0
26926,54.0,0.0,30.0,12.0,0.0
26927,90.0,40.0,30.0,8.0,0.0
26928,78.0,0.0,30.0,10.0,0.0
26929,54.0,0.0,30.0,12.0,0.0
26930,90.0,34.0,30.0,8.0,0.0
26931,78.0,0.0,30.0,10.0,0.0
26932,90.0,8.0,30.0,8.0,0.0
26933,54.0,0.0,30.0,12.0,0.0
26934,53.0,0.0,240.0,3.0,0.0
26935,89.0,0.0,30.0,8.0,0.0
26936,53.0,0.0,30.0,12.0,0.0
26937,77.0,40.0,30.0,10.0,0.0
26938,41.0,32.0,240.0,13.0,0.0
26939,77.0,0.0,30.0,10.0,0.0
26940,53.0,40.0,30.0,12.0,0.0
26941,89.0,0.0,30.0,8.0,0.0
26942,77.0,0.0,30.0,10.0,0.0
26943,89.0,40.0,30.0,8.0,0.0
26944,53.0,0.0,30.0,12.0,0.0
26945,66.0,0.0,60.0,5.0,0.0
26946,89.0,28.0,30.0,8.0,0.0
26947,73.0,0.0,60.0,1.0,0.0
26948,69.0,0.0,60.0,1.0,0.0
26949,81.0,0.0,60.0,0.0,0.0
26950,85.0,0.0,60.0,0.0,0.0
26951,69.0,0.0,60.0,2.0,0.0
26952,53.0,0.0,30.0,12.0,0.0
26953,73.0,0.0,60.0,2.0,0.0
26954,54.0,12.0,60.0,6.0,0.0
26955,77.0,0.0,30.0,10.0,0.0
26956,53.0,0.0,30.0,12.0,0.0
26957,89.0,0.0,30.0,8.0,0.0
26958,77.0,40.0,30.0,10.0,0.0
26959,89.0,8.0,30.0,8.0,0.0
26960,53.0,0.0,30.0,12.0,0.0
26961,77.0,0.0,30.0,10.0,0.0
26962,78.0,0.0,240.0,1.0,0.0
26963,69.0,0.0,240.0,1.0,0.0
26964,81.0,0.0,240.0,0.0,0.0
26965,66.0,0.0,120.0,5.0,0.0
26966,54.0,32.0,120.0,6.0,0.0
26967,40.0,32.0,240.0,13.0,0.0
26968,52.0,0.0,240.0,3.0,0.0
26969,52.0,0.0,30.0,12.0,0.0
26970,73.0,6.0,240.0,2.0,0.0
26971,69.0,0.0,240.0,2.0,0.0
26972,88.0,0.0,30.0,8.0,0.0
26973,76.0,40.0,30.0,10.0,0.0
26974,90.0,0.0,240.0,0.0,0.0
26975,88.0,0.0,30.0,8.0,0.0
26976,52.0,0.0,30.0,12.0,0.0
26977,76.0,40.0,30.0,10.0,0.0
26978,76.0,8.0,30.0,10.0,0.0
26979,88.0,0.0,30.0,8.0,0.0
26980,52.0,0.0,30.0,12.0,0.0
26981,76.0,0.0,30.0,10.0,0.0
26982,52.0,0.0,30.0,12.0,0.0
26983,88.0,40.0,30.0,8.0,0.0
26984,52.0,0.0,30.0,12.0,0.0
26985,88.0,34.0,30.0,8.0,0.0
26986,76.0,0.0,30.0,10.0,0.0
26987,76.0,0.0,30.0,10.0,0.0
26988,52.0,0.0,30.0,12.0,0.0
26989,88.0,8.0,30.0,8.0,0.0
26990,75.0,0.0,30.0,10.0,0.0
26991,87.0,0.0,30.0,8.0,0.0
26992,51.0,32.0,240.0,3.0,0.0
26993,39.0,0.0,240.0,13.0,0.0
26994,63.0,0.0,30.0,11.0,0.0
26995,51.0,40.0,30.0,12.0,0.0
26996,63.0,0.0,30.0,11.0,0.0
26997,87.0,0.0,30.0,8.0,0.0
26998,75.0,40.0,30.0,10.0,0.0
26999,51.0,0.0,30.0,12.0,0.0
27000,51.0,0.0,30.0,12.0,0.0
27001,63.0,40.0,30.0,11.0,0.0
27002,87.0,0.0,30.0,8.0,0.0
27003,75.0,0.0,30.0,10.0,0.0
27004,73.0,18.0,60.0,2.0,0.0
27005,87.0,28.0,30.0,8.0,0.0
27006,73.0,0.0,60.0,1.0,0.0
27007,81.0,0.0,60.0,1.0,0.0
27008,93.0,0.0,60.0,0.0,0.0
27009,66.0,0.0,60.0,5.0,0.0
27010,51.0,0.0,30.0,12.0,0.0
27011,85.0,0.0,60.0,0.0,0.0
27012,69.0,0.0,60.0,2.0,0.0
27013,54.0,12.0,60.0,6.0,0.0
27014,75.0,0.0,30.0,10.0,0.0
27015,63.0,0.0,30.0,11.0,0.0
27016,63.0,0.0,30.0,11.0,0.0
27017,51.0,0.0,30.0,12.0,0.0
27018,87.0,0.0,30.0,8.0,0.0
27019,75.0,0.0,30.0,10.0,0.0
27020,73.0,0.0,540.0,4.0,0.0
27021,69.0,22.0,30.0,4.0,0.0
27022,87.0,0.0,30.0,8.0,0.0
27023,75.0,0.0,30.0,10.0,0.0
27024,63.0,0.0,30.0,11.0,0.0
27025,51.0,8.0,30.0,12.0,0.0
27026,38.0,0.0,240.0,13.0,0.0
27027,50.0,0.0,30.0,11.0,0.0
27028,69.0,0.0,480.0,4.0,0.0
27029,66.0,0.0,120.0,5.0,0.0
27030,81.0,0.0,480.0,1.0,0.0
27031,85.0,32.0,480.0,1.0,0.0
27032,73.0,0.0,480.0,2.0,0.0
27033,86.0,40.0,30.0,8.0,0.0
27034,69.0,0.0,480.0,2.0,0.0
27035,50.0,0.0,30.0,12.0,0.0
27036,50.0,32.0,240.0,3.0,0.0
27037,97.0,0.0,480.0,0.0,0.0
27038,93.0,0.0,480.0,0.0,0.0
27039,54.0,32.0,120.0,6.0,0.0
27040,74.0,0.0,30.0,10.0,0.0
27041,50.0,0.0,30.0,11.0,0.0
27042,50.0,0.0,30.0,12.0,0.0
27043,86.0,40.0,30.0,8.0,0.0
27044,74.0,0.0,30.0,10.0,0.0
27045,86.0,0.0,30.0,8.0,0.0
27046,74.0,0.0,30.0,10.0,0.0
27047,50.0,0.0,30.0,12.0,0.0
27048,50.0,8.0,30.0,11.0,0.0
27049,86.0,0.0,30.0,8.0,0.0
27050,50.0,0.0,30.0,11.0,0.0
27051,74.0,0.0,30.0,10.0,0.0
27052,50.0,40.0,30.0,12.0,0.0
27053,86.0,0.0,30.0,8.0,0.0
27054,50.0,0.0,30.0,11.0,0.0
27055,50.0,0.0,30.0,12.0,0.0
27056,74.0,40.0,30.0,10.0,0.0
27057,86.0,0.0,30.0,8.0,0.0
27058,50.0,0.0,30.0,11.0,0.0
27059,50.0,0.0,30.0,12.0,0.0
27060,74.0,8.0,30.0,10.0,0.0
27061,73.0,0.0,30.0,10.0,0.0
27062,49.0,0.0,240.0,3.0,0.0
27063,49.0,0.0,30.0,12.0,0.0
27064,37.0,0.0,240.0,13.0,0.0
27065,49.0,0.0,30.0,11.0,0.0
27066,85.0,40.0,30.0,8.0,0.0
27067,73.0,0.0,30.0,10.0,0.0
27068,49.0,0.0,30.0,12.0,0.0
27069,49.0,40.0,30.0,11.0,0.0
27070,85.0,0.0,30.0,8.0,0.0
27071,85.0,40.0,30.0,8.0,0.0
27072,49.0,0.0,30.0,11.0,0.0
27073,49.0,0.0,30.0,12.0,0.0
27074,73.0,0.0,30.0,10.0,0.0
27075,49.0,28.0,30.0,11.0,0.0
27076,49.0,0.0,30.0,12.0,0.0
27077,85.0,0.0,30.0,8.0,0.0
27078,54.0,12.0,60.0,6.0,0.0
27079,73.0,0.0,30.0,10.0,0.0
27080,66.0,0.0,60.0,5.0,0.0
27081,49.0,0.0,30.0,12.0,0.0
27082,85.0,40.0,30.0,8.0,0.0
27083,73.0,0.0,30.0,10.0,0.0
27084,49.0,0.0,30.0,11.0,0.0
27085,49.0,0.0,30.0,12.0,0.0
27086,73.0,8.0,30.0,10.0,0.0
27087,49.0,0.0,30.0,11.0,0.0
27088,85.0,0.0,30.0,8.0,0.0
27089,75.0,0.0,30.0,10.0,0.0
27090,39.0,12.0,240.0,13.0,0.0
27091,92.0,0.0,480.0,0.0,0.0
27092,95.0,0.0,120.0,0.0,0.0
27093,87.0,40.0,30.0,8.0,0.0
27094,71.0,0.0,480.0,4.0,0.0
27095,68.0,0.0,480.0,4.0,0.0
27096,49.0,32.0,120.0,6.0,0.0
27097,51.0,0.0,30.0,11.0,0.0
27098,71.0,0.0,120.0,2.0,0.0
27099,51.0,0.0,240.0,3.0,0.0
27100,61.0,0.0,120.0,5.0,0.0
27101,51.0,0.0,30.0,12.0,0.0
27102,80.0,0.0,480.0,1.0,0.0
27103,68.0,0.0,480.0,2.0,0.0
27104,83.0,0.0,120.0,1.0,0.0
27105,87.0,0.0,30.0,8.0,0.0
27106,51.0,0.0,30.0,12.0,0.0
27107,51.0,0.0,30.0,11.0,0.0
27108,75.0,40.0,30.0,10.0,0.0
27109,51.0,0.0,30.0,12.0,0.0
27110,75.0,0.0,30.0,10.0,0.0
27111,51.0,0.0,30.0,11.0,0.0
27112,87.0,8.0,30.0,8.0,0.0
27113,51.0,12.0,30.0,11.0,0.0
27114,73.0,28.0,30.0,2.0,0.0
27115,51.0,0.0,30.0,12.0,0.0
27116,87.0,0.0,30.0,8.0,0.0
27117,75.0,0.0,30.0,10.0,0.0
27118,85.0,0.0,30.0,1.0,0.0
27119,97.0,0.0,30.0,0.0,0.0
27120,75.0,0.0,30.0,10.0,0.0
27121,87.0,0.0,30.0,8.0,0.0
27122,51.0,0.0,30.0,11.0,0.0
27123,51.0,16.0,30.0,12.0,0.0
27124,83.0,0.0,30.0,1.0,0.0
27125,95.0,24.0,30.0,0.0,0.0
27126,71.0,0.0,30.0,2.0,0.0
27127,75.0,8.0,30.0,10.0,0.0
27128,87.0,0.0,30.0,8.0,0.0
27129,51.0,0.0,30.0,11.0,0.0
27130,51.0,0.0,30.0,12.0,0.0
27131,85.0,0.0,30.0,1.0,0.0
27132,97.0,20.0,30.0,0.0,0.0
27133,73.0,0.0,30.0,2.0,0.0
27134,53.0,32.0,240.0,3.0,0.0
27135,53.0,0.0,30.0,12.0,0.0
27136,41.0,0.0,240.0,13.0,0.0
27137,89.0,0.0,30.0,8.0,0.0
27138,77.0,24.0,30.0,10.0,0.0
27139,53.0,0.0,30.0,11.0,0.0
27140,71.0,0.0,30.0,2.0,0.0
27141,83.0,0.0,30.0,1.0,0.0
27142,95.0,16.0,30.0,0.0,0.0
27143,89.0,0.0,30.0,8.0,0.0
27144,53.0,28.0,30.0,12.0,0.0
27145,77.0,0.0,30.0,10.0,0.0
27146,53.0,0.0,30.0,11.0,0.0
27147,85.0,0.0,30.0,1.0,0.0
27148,73.0,0.0,30.0,2.0,0.0
27149,97.0,12.0,30.0,0.0,0.0
27150,53.0,0.0,30.0,11.0,0.0
27151,89.0,0.0,30.0,8.0,0.0
27152,53.0,0.0,30.0,12.0,0.0
27153,77.0,32.0,30.0,10.0,0.0
27154,83.0,0.0,30.0,1.0,0.0
27155,71.0,0.0,30.0,2.0,0.0
27156,95.0,8.0,30.0,0.0,0.0
27157,89.0,0.0,30.0,8.0,0.0
27158,53.0,28.0,30.0,12.0,0.0
27159,61.0,8.0,60.0,5.0,0.0
27160,53.0,0.0,30.0,11.0,0.0
27161,77.0,0.0,30.0,10.0,0.0
27162,49.0,0.0,60.0,6.0,0.0
27163,97.0,0.0,30.0,0.0,0.0
27164,85.0,4.0,30.0,1.0,0.0
27165,73.0,0.0,30.0,2.0,0.0
27166,53.0,0.0,30.0,12.0,0.0
27167,89.0,40.0,30.0,8.0,0.0
27168,77.0,0.0,30.0,10.0,0.0
27169,53.0,0.0,30.0,11.0,0.0
27170,95.0,0.0,30.0,0.0,0.0
27171,83.0,0.0,30.0,1.0,0.0
27172,71.0,0.0,30.0,2.0,0.0
27173,89.0,0.0,30.0,8.0,0.0
27174,53.0,0.0,30.0,12.0,0.0
27175,77.0,8.0,30.0,10.0,0.0
27176,53.0,0.0,30.0,11.0,0.0
27177,42.0,32.0,240.0,13.0,0.0
27178,54.0,0.0,30.0,12.0,0.0
27179,54.0,0.0,390.0,4.0,0.0
27180,54.0,24.0,60.0,6.0,0.0
27181,93.0,0.0,390.0,0.0,0.0
27182,90.0,8.0,390.0,0.0,0.0
27183,66.0,0.0,390.0,2.0,0.0
27184,69.0,0.0,390.0,2.0,0.0
27185,90.0,0.0,30.0,8.0,0.0
27186,78.0,16.0,30.0,10.0,0.0
27187,54.0,0.0,240.0,3.0,0.0
27188,69.0,0.0,390.0,4.0,0.0
27189,81.0,0.0,390.0,1.0,0.0
27190,78.0,0.0,390.0,1.0,0.0
27191,66.0,0.0,390.0,4.0,0.0
27192,78.0,0.0,120.0,5.0,0.0
27193,66.0,32.0,120.0,5.0,0.0
27194,66.0,0.0,30.0,11.0,0.0
27195,66.0,0.0,30.0,11.0,0.0
27196,78.0,0.0,30.0,10.0,0.0
27197,54.0,0.0,30.0,12.0,0.0
27198,90.0,36.0,30.0,8.0,0.0
27199,54.0,4.0,60.0,6.0,0.0
27200,66.0,0.0,30.0,11.0,0.0
27201,78.0,8.0,30.0,10.0,0.0
27202,90.0,0.0,30.0,8.0,0.0
27203,54.0,0.0,30.0,12.0,0.0
27204,90.0,16.0,30.0,8.0,0.0
27205,78.0,0.0,30.0,10.0,0.0
27206,54.0,24.0,60.0,6.0,0.0
27207,54.0,0.0,30.0,12.0,0.0
27208,66.0,0.0,30.0,11.0,0.0
27209,90.0,36.0,30.0,8.0,0.0
27210,66.0,0.0,30.0,11.0,0.0
27211,78.0,0.0,30.0,10.0,0.0
27212,54.0,0.0,30.0,12.0,0.0
27213,54.0,4.0,60.0,6.0,0.0
27214,90.0,0.0,30.0,8.0,0.0
27215,78.0,0.0,30.0,10.0,0.0
27216,66.0,0.0,30.0,11.0,0.0
27217,54.0,8.0,30.0,12.0,0.0
27218,73.0,0.0,30.0,10.0,0.0
27219,49.0,0.0,180.0,6.0,0.0
27220,78.0,24.0,120.0,5.0,0.0
27221,49.0,0.0,30.0,12.0,0.0
27222,85.0,40.0,30.0,8.0,0.0
27223,61.0,0.0,30.0,11.0,0.0
27224,49.0,32.0,240.0,3.0,0.0
27225,66.0,0.0,120.0,5.0,0.0
27226,37.0,0.0,240.0,13.0,0.0
27227,61.0,0.0,30.0,11.0,0.0
27228,49.0,0.0,30.0,12.0,0.0
27229,73.0,0.0,30.0,10.0,0.0
27230,85.0,40.0,30.0,8.0,0.0
27231,49.0,0.0,30.0,12.0,0.0
27232,85.0,0.0,30.0,8.0,0.0
27233,73.0,0.0,30.0,10.0,0.0
27234,61.0,8.0,30.0,11.0,0.0
27235,85.0,40.0,30.0,8.0,0.0
27236,49.0,0.0,30.0,12.0,0.0
27237,73.0,0.0,30.0,10.0,0.0
27238,61.0,0.0,30.0,11.0,0.0
27239,73.0,0.0,30.0,10.0,0.0
27240,49.0,0.0,30.0,12.0,0.0
27241,85.0,40.0,30.0,8.0,0.0
27242,61.0,0.0,30.0,11.0,0.0
27243,49.0,0.0,30.0,12.0,0.0
27244,73.0,8.0,30.0,10.0,0.0
27245,85.0,0.0,30.0,8.0,0.0
27246,61.0,0.0,30.0,11.0,0.0
27247,38.0,32.0,240.0,13.0,0.0
27248,74.0,0.0,30.0,10.0,0.0
27249,62.0,0.0,30.0,11.0,0.0
27250,50.0,0.0,240.0,3.0,0.0
27251,86.0,0.0,30.0,8.0,0.0
27252,50.0,40.0,30.0,12.0,0.0
27253,74.0,0.0,30.0,10.0,0.0
27254,62.0,0.0,30.0,11.0,0.0
27255,86.0,0.0,30.0,8.0,0.0
27256,50.0,40.0,30.0,12.0,0.0
27257,62.0,0.0,30.0,11.0,0.0
27258,86.0,40.0,30.0,8.0,0.0
27259,50.0,0.0,30.0,12.0,0.0
27260,74.0,0.0,30.0,10.0,0.0
27261,74.0,40.0,30.0,10.0,0.0
27262,62.0,0.0,30.0,11.0,0.0
27263,50.0,0.0,30.0,12.0,0.0
27264,86.0,0.0,30.0,8.0,0.0
27265,74.0,0.0,30.0,10.0,0.0
27266,86.0,0.0,30.0,8.0,0.0
27267,50.0,0.0,30.0,12.0,0.0
27268,62.0,40.0,30.0,11.0,0.0
27269,50.0,0.0,30.0,12.0,0.0
27270,62.0,0.0,30.0,11.0,0.0
27271,86.0,0.0,30.0,8.0,0.0
27272,74.0,8.0,30.0,10.0,0.0
27273,49.0,0.0,30.0,12.0,0.0
27274,66.0,32.0,120.0,5.0,0.0
27275,49.0,0.0,180.0,6.0,0.0
27276,85.0,0.0,30.0,8.0,0.0
27277,49.0,0.0,240.0,3.0,0.0
27278,78.0,0.0,120.0,5.0,0.0
27279,37.0,32.0,240.0,13.0,0.0
27280,73.0,0.0,30.0,10.0,0.0
27281,61.0,40.0,30.0,11.0,0.0
27282,49.0,0.0,30.0,12.0,0.0
27283,73.0,0.0,30.0,10.0,0.0
27284,85.0,40.0,30.0,8.0,0.0
27285,61.0,0.0,30.0,11.0,0.0
27286,85.0,8.0,30.0,8.0,0.0
27287,49.0,0.0,30.0,12.0,0.0
27288,61.0,0.0,30.0,11.0,0.0
27289,73.0,0.0,30.0,10.0,0.0
27290,61.0,40.0,30.0,11.0,0.0
27291,73.0,0.0,30.0,10.0,0.0
27292,85.0,0.0,30.0,8.0,0.0
27293,49.0,0.0,30.0,12.0,0.0
27294,73.0,0.0,30.0,10.0,0.0
27295,61.0,36.0,30.0,11.0,0.0
27296,49.0,0.0,30.0,12.0,0.0
27297,85.0,0.0,30.0,8.0,0.0
27298,93.0,0.0,60.0,0.0,0.0
27299,81.0,4.0,60.0,1.0,0.0
27300,78.0,0.0,60.0,1.0,0.0
27301,90.0,0.0,60.0,0.0,0.0
27302,66.0,0.0,60.0,4.0,0.0
27303,69.0,0.0,60.0,4.0,0.0
27304,66.0,0.0,60.0,2.0,0.0
27305,69.0,0.0,60.0,2.0,0.0
27306,49.0,0.0,30.0,12.0,0.0
27307,61.0,8.0,30.0,11.0,0.0
27308,85.0,0.0,30.0,8.0,0.0
27309,73.0,0.0,30.0,10.0,0.0
27310,47.0,0.0,30.0,12.0,0.0
27311,71.0,16.0,30.0,10.0,0.0
27312,47.0,0.0,240.0,3.0,0.0
27313,92.0,0.0,390.0,0.0,0.0
27314,68.0,0.0,390.0,4.0,0.0
27315,80.0,0.0,390.0,1.0,0.0
27316,35.0,32.0,240.0,13.0,0.0
27317,83.0,0.0,30.0,8.0,0.0
27318,66.0,0.0,390.0,2.0,0.0
27319,78.0,0.0,390.0,1.0,0.0
27320,54.0,24.0,60.0,6.0,0.0
27321,54.0,0.0,390.0,4.0,0.0
27322,59.0,0.0,30.0,11.0,0.0
27323,66.0,0.0,390.0,4.0,0.0
27324,90.0,8.0,390.0,0.0,0.0
27325,68.0,0.0,390.0,2.0,0.0
27326,47.0,0.0,30.0,12.0,0.0
27327,83.0,0.0,30.0,8.0,0.0
27328,71.0,0.0,30.0,10.0,0.0
27329,59.0,36.0,30.0,11.0,0.0
27330,54.0,4.0,60.0,6.0,0.0
27331,83.0,0.0,30.0,8.0,0.0
27332,47.0,0.0,30.0,12.0,0.0
27333,71.0,0.0,30.0,10.0,0.0
27334,59.0,40.0,30.0,11.0,0.0
27335,83.0,16.0,30.0,8.0,0.0
27336,47.0,0.0,30.0,12.0,0.0
27337,71.0,0.0,30.0,10.0,0.0
27338,54.0,24.0,60.0,6.0,0.0
27339,59.0,0.0,30.0,11.0,0.0
27340,59.0,0.0,30.0,11.0,0.0
27341,71.0,36.0,30.0,10.0,0.0
27342,47.0,0.0,30.0,12.0,0.0
27343,83.0,0.0,30.0,8.0,0.0
27344,54.0,4.0,60.0,6.0,0.0
27345,83.0,0.0,30.0,8.0,0.0
27346,47.0,0.0,30.0,12.0,0.0
27347,71.0,0.0,30.0,10.0,0.0
27348,59.0,8.0,30.0,11.0,0.0
27349,78.0,0.0,120.0,5.0,0.0
27350,66.0,24.0,120.0,5.0,0.0
27351,49.0,40.0,180.0,6.0,0.0
27352,62.0,40.0,30.0,11.0,0.0
27353,50.0,0.0,30.0,12.0,0.0
27354,86.0,0.0,30.0,8.0,0.0
27355,38.0,32.0,240.0,13.0,0.0
27356,74.0,0.0,30.0,10.0,0.0
27357,50.0,0.0,240.0,3.0,0.0
27358,74.0,0.0,30.0,10.0,0.0
27359,86.0,0.0,30.0,8.0,0.0
27360,62.0,40.0,30.0,11.0,0.0
27361,50.0,0.0,30.0,12.0,0.0
27362,62.0,0.0,30.0,11.0,0.0
27363,50.0,0.0,30.0,12.0,0.0
27364,74.0,8.0,30.0,10.0,0.0
27365,86.0,0.0,30.0,8.0,0.0
27366,74.0,40.0,30.0,10.0,0.0
27367,62.0,0.0,30.0,11.0,0.0
27368,50.0,0.0,30.0,12.0,0.0
27369,86.0,0.0,30.0,8.0,0.0
27370,86.0,0.0,30.0,8.0,0.0
27371,50.0,0.0,30.0,12.0,0.0
27372,74.0,0.0,30.0,10.0,0.0
27373,62.0,0.0,30.0,11.0,0.0
27374,50.0,8.0,30.0,12.0,0.0
27375,62.0,0.0,30.0,11.0,0.0
27376,86.0,0.0,30.0,8.0,0.0
27377,74.0,0.0,30.0,10.0,0.0
27378,49.0,32.0,240.0,3.0,0.0
27379,49.0,0.0,30.0,12.0,0.0
27380,73.0,0.0,30.0,10.0,0.0
27381,85.0,0.0,30.0,8.0,0.0
27382,37.0,0.0,240.0,13.0,0.0
27383,61.0,40.0,30.0,11.0,0.0
27384,73.0,40.0,30.0,10.0,0.0
27385,61.0,0.0,30.0,11.0,0.0
27386,85.0,0.0,30.0,8.0,0.0
27387,49.0,0.0,30.0,12.0,0.0
27388,49.0,40.0,30.0,12.0,0.0
27389,61.0,0.0,30.0,11.0,0.0
27390,73.0,0.0,30.0,10.0,0.0
27391,85.0,0.0,30.0,8.0,0.0
27392,73.0,40.0,30.0,10.0,0.0
27393,85.0,0.0,30.0,8.0,0.0
27394,49.0,0.0,30.0,12.0,0.0
27395,61.0,0.0,30.0,11.0,0.0
27396,85.0,0.0,30.0,8.0,0.0
27397,73.0,0.0,30.0,10.0,0.0
27398,61.0,0.0,30.0,11.0,0.0
27399,49.0,40.0,30.0,12.0,0.0
27400,61.0,0.0,30.0,11.0,0.0
27401,85.0,8.0,30.0,8.0,0.0
27402,73.0,0.0,30.0,10.0,0.0
27403,49.0,0.0,30.0,12.0,0.0
27404,53.0,32.0,240.0,3.0,0.0
27405,41.0,0.0,240.0,13.0,0.0
27406,49.0,0.0,180.0,6.0,0.0
27407,61.0,32.0,120.0,5.0,0.0
27408,77.0,0.0,30.0,10.0,0.0
27409,53.0,40.0,30.0,12.0,0.0
27410,65.0,0.0,30.0,11.0,0.0
27411,73.0,0.0,120.0,5.0,0.0
27412,89.0,0.0,30.0,8.0,0.0
27413,89.0,0.0,30.0,8.0,0.0
27414,65.0,0.0,30.0,11.0,0.0
27415,53.0,40.0,30.0,12.0,0.0
27416,77.0,0.0,30.0,10.0,0.0
27417,77.0,0.0,30.0,10.0,0.0
27418,65.0,0.0,30.0,11.0,0.0
27419,53.0,0.0,30.0,12.0,0.0
27420,89.0,8.0,30.0,8.0,0.0
27421,53.0,0.0,30.0,12.0,0.0
27422,89.0,40.0,30.0,8.0,0.0
27423,65.0,0.0,30.0,11.0,0.0
27424,77.0,0.0,30.0,10.0,0.0
27425,89.0,0.0,30.0,8.0,0.0
27426,65.0,36.0,30.0,11.0,0.0
27427,53.0,0.0,30.0,12.0,0.0
27428,77.0,0.0,30.0,10.0,0.0
27429,85.0,0.0,60.0,1.0,0.0
27430,80.0,0.0,60.0,1.0,0.0
27431,68.0,4.0,60.0,2.0,0.0
27432,73.0,0.0,60.0,2.0,0.0
27433,92.0,0.0,60.0,0.0,0.0
27434,97.0,0.0,60.0,0.0,0.0
27435,53.0,0.0,30.0,12.0,0.0
27436,65.0,8.0,30.0,11.0,0.0
27437,77.0,0.0,30.0,10.0,0.0
27438,89.0,0.0,30.0,8.0,0.0
27439,54.0,24.0,60.0,6.0,0.0
27440,66.0,0.0,390.0,2.0,0.0
27441,78.0,0.0,120.0,5.0,0.0
27442,78.0,16.0,30.0,10.0,0.0
27443,69.0,0.0,390.0,2.0,0.0
27444,93.0,0.0,390.0,0.0,0.0
27445,90.0,0.0,390.0,0.0,0.0
27446,69.0,0.0,390.0,4.0,0.0
27447,66.0,32.0,120.0,5.0,0.0
27448,66.0,0.0,390.0,4.0,0.0
27449,42.0,0.0,240.0,13.0,0.0
27450,66.0,0.0,30.0,11.0,0.0
27451,81.0,8.0,390.0,1.0,0.0
27452,54.0,0.0,30.0,12.0,0.0
27453,90.0,0.0,30.0,8.0,0.0
27454,78.0,0.0,390.0,1.0,0.0
27455,54.0,32.0,240.0,3.0,0.0
27456,54.0,0.0,390.0,4.0,0.0
27457,90.0,0.0,30.0,8.0,0.0
27458,54.0,36.0,30.0,12.0,0.0
27459,78.0,0.0,30.0,10.0,0.0
27460,66.0,0.0,30.0,11.0,0.0
27461,54.0,4.0,60.0,6.0,0.0
27462,90.0,0.0,30.0,8.0,0.0
27463,78.0,8.0,30.0,10.0,0.0
27464,54.0,0.0,30.0,12.0,0.0
27465,66.0,0.0,30.0,11.0,0.0
27466,66.0,0.0,30.0,11.0,0.0
27467,54.0,0.0,30.0,12.0,0.0
27468,90.0,16.0,30.0,8.0,0.0
27469,54.0,24.0,60.0,6.0,0.0
27470,78.0,0.0,30.0,10.0,0.0
27471,78.0,0.0,30.0,10.0,0.0
27472,66.0,0.0,30.0,11.0,0.0
27473,90.0,0.0,30.0,8.0,0.0
27474,54.0,36.0,30.0,12.0,0.0
27475,54.0,4.0,60.0,6.0,0.0
27476,90.0,0.0,30.0,8.0,0.0
27477,66.0,8.0,30.0,11.0,0.0
27478,78.0,0.0,30.0,10.0,0.0
27479,54.0,0.0,30.0,12.0,0.0
27480,61.0,0.0,30.0,11.0,0.0
27481,78.0,0.0,120.0,5.0,0.0
27482,37.0,0.0,240.0,13.0,0.0
27483,66.0,24.0,120.0,5.0,0.0
27484,49.0,32.0,240.0,3.0,0.0
27485,73.0,40.0,30.0,10.0,0.0
27486,49.0,0.0,180.0,6.0,0.0
27487,85.0,0.0,30.0,8.0,0.0
27488,49.0,0.0,30.0,12.0,0.0
27489,73.0,0.0,30.0,10.0,0.0
27490,85.0,40.0,30.0,8.0,0.0
27491,49.0,0.0,30.0,12.0,0.0
27492,61.0,0.0,30.0,11.0,0.0
27493,61.0,8.0,30.0,11.0,0.0
27494,85.0,0.0,30.0,8.0,0.0
27495,49.0,0.0,30.0,12.0,0.0
27496,73.0,0.0,30.0,10.0,0.0
27497,61.0,40.0,30.0,11.0,0.0
27498,85.0,0.0,30.0,8.0,0.0
27499,73.0,0.0,30.0,10.0,0.0
27500,49.0,0.0,30.0,12.0,0.0
27501,73.0,0.0,30.0,10.0,0.0
27502,61.0,0.0,30.0,11.0,0.0
27503,49.0,0.0,30.0,12.0,0.0
27504,85.0,40.0,30.0,8.0,0.0
27505,73.0,0.0,30.0,10.0,0.0
27506,85.0,0.0,30.0,8.0,0.0
27507,61.0,8.0,30.0,11.0,0.0
27508,49.0,0.0,30.0,12.0,0.0
27509,50.0,0.0,30.0,12.0,0.0
27510,38.0,0.0,240.0,13.0,0.0
27511,86.0,40.0,30.0,8.0,0.0
27512,74.0,0.0,30.0,10.0,0.0
27513,50.0,32.0,240.0,3.0,0.0
27514,62.0,0.0,30.0,11.0,0.0
27515,74.0,0.0,30.0,10.0,0.0
27516,50.0,0.0,30.0,12.0,0.0
27517,62.0,40.0,30.0,11.0,0.0
27518,86.0,0.0,30.0,8.0,0.0
27519,74.0,0.0,30.0,10.0,0.0
27520,62.0,0.0,30.0,11.0,0.0
27521,50.0,40.0,30.0,12.0,0.0
27522,86.0,0.0,30.0,8.0,0.0
27523,62.0,40.0,30.0,11.0,0.0
27524,74.0,0.0,30.0,10.0,0.0
27525,86.0,0.0,30.0,8.0,0.0
27526,50.0,0.0,30.0,12.0,0.0
27527,62.0,0.0,30.0,11.0,0.0
27528,50.0,40.0,30.0,12.0,0.0
27529,74.0,0.0,30.0,10.0,0.0
27530,86.0,0.0,30.0,8.0,0.0
27531,74.0,0.0,30.0,10.0,0.0
27532,62.0,0.0,30.0,11.0,0.0
27533,86.0,0.0,30.0,8.0,0.0
27534,50.0,8.0,30.0,12.0,0.0
27535,49.0,0.0,180.0,6.0,0.0
27536,37.0,32.0,240.0,13.0,0.0
27537,61.0,40.0,30.0,11.0,0.0
27538,49.0,0.0,240.0,3.0,0.0
27539,78.0,0.0,120.0,5.0,0.0
27540,66.0,32.0,120.0,5.0,0.0
27541,73.0,0.0,30.0,10.0,0.0
27542,85.0,0.0,30.0,8.0,0.0
27543,49.0,0.0,30.0,12.0,0.0
27544,85.0,0.0,30.0,8.0,0.0
27545,61.0,0.0,30.0,11.0,0.0
27546,73.0,0.0,30.0,10.0,0.0
27547,49.0,40.0,30.0,12.0,0.0
27548,49.0,0.0,30.0,12.0,0.0
27549,85.0,0.0,30.0,8.0,0.0
27550,73.0,8.0,30.0,10.0,0.0
27551,61.0,0.0,30.0,11.0,0.0
27552,85.0,0.0,30.0,8.0,0.0
27553,61.0,0.0,30.0,11.0,0.0
27554,73.0,0.0,30.0,10.0,0.0
27555,49.0,40.0,30.0,12.0,0.0
27556,61.0,36.0,30.0,11.0,0.0
27557,73.0,0.0,30.0,10.0,0.0
27558,49.0,0.0,30.0,12.0,0.0
27559,85.0,0.0,30.0,8.0,0.0
27560,78.0,0.0,60.0,1.0,0.0
27561,81.0,0.0,60.0,1.0,0.0
27562,66.0,0.0,60.0,2.0,0.0
27563,90.0,0.0,60.0,0.0,0.0
27564,93.0,0.0,60.0,0.0,0.0
27565,66.0,0.0,60.0,4.0,0.0
27566,69.0,0.0,60.0,4.0,0.0
27567,69.0,4.0,60.0,2.0,0.0
27568,61.0,8.0,30.0,11.0,0.0
27569,85.0,0.0,30.0,8.0,0.0
27570,49.0,0.0,30.0,12.0,0.0
27571,73.0,0.0,30.0,10.0,0.0
27572,54.0,24.0,60.0,6.0,0.0
27573,78.0,0.0,240.0,1.0,0.0
27574,80.0,0.0,240.0,1.0,0.0
27575,71.0,0.0,30.0,10.0,0.0
27576,68.0,0.0,390.0,4.0,0.0
27577,47.0,0.0,30.0,12.0,0.0
27578,54.0,0.0,390.0,4.0,0.0
27579,90.0,0.0,240.0,0.0,0.0
27580,92.0,0.0,240.0,0.0,0.0
27581,35.0,32.0,240.0,13.0,0.0
27582,59.0,0.0,30.0,11.0,0.0
27583,66.0,0.0,390.0,4.0,0.0
27584,83.0,16.0,30.0,8.0,0.0
27585,47.0,0.0,240.0,3.0,0.0
27586,66.0,0.0,240.0,2.0,0.0
27587,68.0,2.0,240.0,2.0,0.0
27588,47.0,0.0,30.0,12.0,0.0
27589,59.0,0.0,30.0,11.0,0.0
27590,83.0,0.0,30.0,8.0,0.0
27591,71.0,36.0,30.0,10.0,0.0
27592,54.0,4.0,60.0,6.0,0.0
27593,71.0,40.0,30.0,10.0,0.0
27594,83.0,0.0,30.0,8.0,0.0
27595,47.0,0.0,30.0,12.0,0.0
27596,59.0,0.0,30.0,11.0,0.0
27597,47.0,16.0,30.0,12.0,0.0
27598,71.0,0.0,30.0,10.0,0.0
27599,83.0,0.0,30.0,8.0,0.0
27600,54.0,24.0,60.0,6.0,0.0
27601,59.0,0.0,30.0,11.0,0.0
27602,47.0,34.0,30.0,12.0,0.0
27603,71.0,0.0,30.0,10.0,0.0
27604,83.0,0.0,30.0,8.0,0.0
27605,59.0,0.0,30.0,11.0,0.0
27606,54.0,4.0,60.0,6.0,0.0
27607,59.0,0.0,30.0,11.0,0.0
27608,83.0,0.0,30.0,8.0,0.0
27609,47.0,8.0,30.0,12.0,0.0
27610,71.0,0.0,30.0,10.0,0.0
27611,86.0,0.0,30.0,8.0,0.0
27612,50.0,32.0,240.0,3.0,0.0
27613,74.0,0.0,30.0,10.0,0.0
27614,78.0,24.0,120.0,5.0,0.0
27615,62.0,40.0,30.0,11.0,0.0
27616,66.0,0.0,120.0,5.0,0.0
27617,50.0,0.0,30.0,12.0,0.0
27618,38.0,0.0,240.0,13.0,0.0
27619,49.0,0.0,180.0,6.0,0.0
27620,50.0,40.0,30.0,12.0,0.0
27621,74.0,0.0,30.0,10.0,0.0
27622,62.0,0.0,30.0,11.0,0.0
27623,86.0,0.0,30.0,8.0,0.0
27624,86.0,0.0,30.0,8.0,0.0
27625,74.0,8.0,30.0,10.0,0.0
27626,50.0,0.0,30.0,12.0,0.0
27627,62.0,0.0,30.0,11.0,0.0
27628,90.0,0.0,60.0,0.0,0.0
27629,62.0,40.0,30.0,11.0,0.0
27630,86.0,0.0,30.0,8.0,0.0
27631,74.0,0.0,30.0,10.0,0.0
27632,80.0,0.0,60.0,1.0,0.0
27633,50.0,0.0,30.0,12.0,0.0
27634,78.0,0.0,60.0,1.0,0.0
27635,92.0,0.0,60.0,0.0,0.0
27636,66.0,0.0,60.0,2.0,0.0
27637,68.0,0.0,60.0,2.0,0.0
27638,86.0,0.0,30.0,8.0,0.0
27639,74.0,0.0,30.0,10.0,0.0
27640,50.0,40.0,30.0,12.0,0.0
27641,62.0,0.0,30.0,11.0,0.0
27642,50.0,0.0,30.0,12.0,0.0
27643,62.0,0.0,30.0,11.0,0.0
27644,86.0,0.0,30.0,8.0,0.0
27645,74.0,8.0,30.0,10.0,0.0
27646,68.0,0.0,240.0,2.0,0.0
27647,65.0,0.0,240.0,2.0,0.0
27648,92.0,0.0,240.0,0.0,0.0
27649,61.0,0.0,30.0,11.0,0.0
27650,73.0,0.0,30.0,10.0,0.0
27651,89.0,0.0,240.0,0.0,0.0
27652,49.0,0.0,240.0,3.0,0.0
27653,85.0,0.0,30.0,8.0,0.0
27654,37.0,32.0,240.0,13.0,0.0
27655,80.0,0.0,240.0,1.0,0.0
27656,77.0,6.0,240.0,1.0,0.0
27657,49.0,40.0,30.0,12.0,0.0
27658,85.0,0.0,30.0,8.0,0.0
27659,61.0,0.0,30.0,11.0,0.0
27660,73.0,0.0,30.0,10.0,0.0
27661,49.0,40.0,30.0,12.0,0.0
27662,73.0,40.0,30.0,10.0,0.0
27663,61.0,0.0,30.0,11.0,0.0
27664,49.0,0.0,30.0,12.0,0.0
27665,85.0,0.0,30.0,8.0,0.0
27666,85.0,0.0,30.0,8.0,0.0
27667,73.0,40.0,30.0,10.0,0.0
27668,61.0,0.0,30.0,11.0,0.0
27669,49.0,0.0,30.0,12.0,0.0
27670,73.0,34.0,30.0,10.0,0.0
27671,49.0,0.0,30.0,12.0,0.0
27672,85.0,0.0,30.0,8.0,0.0
27673,61.0,0.0,30.0,11.0,0.0
27674,73.0,0.0,30.0,10.0,0.0
27675,61.0,0.0,30.0,11.0,0.0
27676,49.0,0.0,30.0,12.0,0.0
27677,85.0,8.0,30.0,8.0,0.0
27678,41.0,0.0,240.0,13.0,0.0
27679,53.0,32.0,240.0,3.0,0.0
27680,65.0,0.0,30.0,11.0,0.0
27681,89.0,0.0,30.0,8.0,0.0
27682,53.0,0.0,30.0,12.0,0.0
27683,49.0,0.0,180.0,6.0,0.0
27684,77.0,40.0,30.0,10.0,0.0
27685,73.0,0.0,120.0,5.0,0.0
27686,61.0,32.0,120.0,5.0,0.0
27687,65.0,40.0,30.0,11.0,0.0
27688,89.0,0.0,30.0,8.0,0.0
27689,77.0,0.0,30.0,10.0,0.0
27690,53.0,0.0,30.0,12.0,0.0
27691,89.0,0.0,30.0,8.0,0.0
27692,53.0,8.0,30.0,12.0,0.0
27693,65.0,0.0,30.0,11.0,0.0
27694,77.0,0.0,30.0,10.0,0.0
27695,77.0,0.0,30.0,10.0,0.0
27696,92.0,0.0,60.0,0.0,0.0
27697,53.0,0.0,30.0,12.0,0.0
27698,65.0,0.0,30.0,11.0,0.0
27699,89.0,40.0,30.0,8.0,0.0
27700,73.0,0.0,60.0,2.0,0.0
27701,68.0,0.0,60.0,2.0,0.0
27702,80.0,0.0,60.0,1.0,0.0
27703,85.0,0.0,60.0,1.0,0.0
27704,97.0,0.0,60.0,0.0,0.0
27705,77.0,0.0,30.0,10.0,0.0
27706,89.0,0.0,30.0,8.0,0.0
27707,53.0,0.0,30.0,12.0,0.0
27708,65.0,40.0,30.0,11.0,0.0
27709,77.0,0.0,30.0,10.0,0.0
27710,89.0,0.0,30.0,8.0,0.0
27711,65.0,0.0,30.0,11.0,0.0
27712,53.0,8.0,30.0,12.0,0.0
27713,85.0,0.0,810.0,0.0,0.0
27714,64.0,0.0,30.0,12.0,0.0
27715,73.0,0.0,810.0,1.0,0.0
27716,82.0,0.0,810.0,1.0,0.0
27717,52.0,32.0,120.0,13.0,0.0
27718,70.0,0.0,810.0,3.0,0.0
27719,70.0,0.0,810.0,2.0,0.0
27720,78.0,0.0,810.0,5.0,0.0
27721,76.0,0.0,30.0,10.0,0.0
27722,54.0,24.0,60.0,6.0,0.0
27723,61.0,0.0,810.0,2.0,0.0
27724,66.0,16.0,810.0,5.0,0.0
27725,88.0,16.0,30.0,8.0,0.0
27726,61.0,0.0,810.0,3.0,0.0
27727,94.0,0.0,810.0,0.0,0.0
27728,54.0,0.0,810.0,4.0,0.0
27729,66.0,0.0,810.0,4.0,0.0
27730,64.0,0.0,30.0,12.0,0.0
27731,88.0,0.0,30.0,8.0,0.0
27732,76.0,36.0,30.0,10.0,0.0
27733,54.0,4.0,60.0,6.0,0.0
27734,88.0,0.0,30.0,8.0,0.0
27735,76.0,8.0,30.0,10.0,0.0
27736,64.0,0.0,30.0,12.0,0.0
27737,88.0,0.0,30.0,8.0,0.0
27738,64.0,0.0,30.0,12.0,0.0
27739,54.0,24.0,60.0,6.0,0.0
27740,76.0,16.0,30.0,10.0,0.0
27741,76.0,0.0,30.0,10.0,0.0
27742,88.0,36.0,30.0,8.0,0.0
27743,64.0,0.0,30.0,12.0,0.0
27744,54.0,4.0,60.0,6.0,0.0
27745,76.0,40.0,30.0,10.0,0.0
27746,88.0,0.0,30.0,8.0,0.0
27747,64.0,0.0,30.0,12.0,0.0
27748,40.0,32.0,120.0,13.0,0.0
27749,52.0,0.0,30.0,12.0,0.0
27750,76.0,0.0,30.0,8.0,0.0
27751,54.0,24.0,60.0,6.0,0.0
27752,64.0,16.0,30.0,10.0,0.0
27753,76.0,0.0,30.0,8.0,0.0
27754,64.0,0.0,30.0,10.0,0.0
27755,52.0,36.0,30.0,12.0,0.0
27756,54.0,4.0,60.0,6.0,0.0
27757,52.0,8.0,30.0,12.0,0.0
27758,76.0,0.0,30.0,8.0,0.0
27759,64.0,0.0,30.0,10.0,0.0
27760,76.0,16.0,30.0,8.0,0.0
27761,52.0,0.0,30.0,12.0,0.0
27762,54.0,24.0,60.0,6.0,0.0
27763,64.0,0.0,30.0,10.0,0.0
27764,52.0,0.0,30.0,12.0,0.0
27765,64.0,0.0,30.0,10.0,0.0
27766,76.0,36.0,30.0,8.0,0.0
27767,54.0,4.0,60.0,6.0,0.0
27768,64.0,0.0,30.0,10.0,0.0
27769,76.0,0.0,30.0,8.0,0.0
27770,52.0,40.0,30.0,12.0,0.0
27771,42.0,0.0,30.0,12.0,0.0
27772,54.0,0.0,30.0,10.0,0.0
27773,30.0,32.0,120.0,13.0,0.0
27774,54.0,8.0,390.0,6.0,0.0
27775,66.0,40.0,30.0,8.0,0.0
27776,42.0,0.0,30.0,12.0,0.0
27777,66.0,40.0,30.0,8.0,0.0
27778,54.0,0.0,30.0,10.0,0.0
27779,42.0,0.0,30.0,12.0,0.0
27780,54.0,0.0,30.0,10.0,0.0
27781,66.0,8.0,30.0,8.0,0.0
27782,42.0,0.0,30.0,12.0,0.0
27783,54.0,40.0,30.0,10.0,0.0
27784,66.0,0.0,30.0,8.0,0.0
27785,54.0,0.0,30.0,10.0,0.0
27786,66.0,0.0,30.0,8.0,0.0
27787,42.0,40.0,30.0,12.0,0.0
27788,66.0,0.0,30.0,8.0,0.0
27789,42.0,40.0,30.0,12.0,0.0
27790,54.0,0.0,30.0,10.0,0.0
27791,52.0,24.0,120.0,13.0,0.0
27792,76.0,0.0,30.0,10.0,0.0
27793,88.0,40.0,30.0,8.0,0.0
27794,64.0,0.0,30.0,12.0,0.0
27795,88.0,24.0,30.0,8.0,0.0
27796,76.0,0.0,30.0,10.0,0.0
27797,64.0,0.0,30.0,12.0,0.0
27798,76.0,0.0,30.0,10.0,0.0
27799,64.0,8.0,30.0,12.0,0.0
27800,88.0,0.0,30.0,8.0,0.0
27801,64.0,40.0,30.0,12.0,0.0
27802,76.0,0.0,30.0,10.0,0.0
27803,88.0,0.0,30.0,8.0,0.0
27804,76.0,36.0,30.0,10.0,0.0
27805,88.0,0.0,30.0,8.0,0.0
27806,64.0,0.0,30.0,12.0,0.0
27807,54.0,0.0,60.0,4.0,0.0
27808,66.0,0.0,60.0,4.0,0.0
27809,70.0,4.0,60.0,3.0,0.0
27810,85.0,0.0,60.0,0.0,0.0
27811,61.0,0.0,60.0,2.0,0.0
27812,61.0,0.0,60.0,3.0,0.0
27813,70.0,0.0,60.0,2.0,0.0
27814,94.0,0.0,60.0,0.0,0.0
27815,66.0,0.0,60.0,5.0,0.0
27816,82.0,0.0,60.0,1.0,0.0
27817,73.0,0.0,60.0,1.0,0.0
27818,78.0,0.0,60.0,5.0,0.0
27819,76.0,0.0,30.0,10.0,0.0
27820,88.0,40.0,30.0,8.0,0.0
27821,64.0,0.0,30.0,12.0,0.0
27822,64.0,0.0,30.0,12.0,0.0
27823,54.0,24.0,60.0,6.0,0.0
27824,73.0,0.0,810.0,1.0,0.0
27825,70.0,0.0,810.0,3.0,0.0
27826,66.0,0.0,810.0,5.0,0.0
27827,82.0,0.0,810.0,1.0,0.0
27828,76.0,16.0,30.0,10.0,0.0
27829,88.0,0.0,30.0,8.0,0.0
27830,54.0,0.0,810.0,4.0,0.0
27831,66.0,0.0,810.0,4.0,0.0
27832,52.0,32.0,120.0,13.0,0.0
27833,61.0,0.0,810.0,2.0,0.0
27834,61.0,0.0,810.0,3.0,0.0
27835,70.0,0.0,810.0,2.0,0.0
27836,78.0,16.0,810.0,5.0,0.0
27837,85.0,0.0,810.0,0.0,0.0
27838,94.0,0.0,810.0,0.0,0.0
27839,88.0,0.0,30.0,8.0,0.0
27840,64.0,0.0,30.0,12.0,0.0
27841,76.0,36.0,30.0,10.0,0.0
27842,54.0,4.0,60.0,6.0,0.0
27843,64.0,0.0,30.0,12.0,0.0
27844,88.0,0.0,30.0,8.0,0.0
27845,76.0,8.0,30.0,10.0,0.0
27846,64.0,0.0,30.0,12.0,0.0
27847,54.0,24.0,60.0,6.0,0.0
27848,76.0,0.0,30.0,10.0,0.0
27849,88.0,16.0,30.0,8.0,0.0
27850,64.0,0.0,30.0,12.0,0.0
27851,88.0,36.0,30.0,8.0,0.0
27852,76.0,0.0,30.0,10.0,0.0
27853,54.0,4.0,60.0,6.0,0.0
27854,64.0,0.0,30.0,12.0,0.0
27855,76.0,40.0,30.0,10.0,0.0
27856,88.0,0.0,30.0,8.0,0.0
27857,76.0,0.0,30.0,8.0,0.0
27858,54.0,24.0,60.0,6.0,0.0
27859,40.0,32.0,120.0,13.0,0.0
27860,52.0,16.0,30.0,12.0,0.0
27861,64.0,0.0,30.0,10.0,0.0
27862,64.0,0.0,30.0,10.0,0.0
27863,52.0,0.0,30.0,12.0,0.0
27864,76.0,36.0,30.0,8.0,0.0
27865,54.0,4.0,60.0,6.0,0.0
27866,64.0,8.0,30.0,10.0,0.0
27867,76.0,0.0,30.0,8.0,0.0
27868,52.0,0.0,30.0,12.0,0.0
27869,52.0,16.0,30.0,12.0,0.0
27870,54.0,24.0,60.0,6.0,0.0
27871,76.0,0.0,30.0,8.0,0.0
27872,64.0,0.0,30.0,10.0,0.0
27873,76.0,36.0,30.0,8.0,0.0
27874,64.0,0.0,30.0,10.0,0.0
27875,52.0,0.0,30.0,12.0,0.0
27876,54.0,4.0,60.0,6.0,0.0
27877,52.0,40.0,30.0,12.0,0.0
27878,64.0,0.0,30.0,10.0,0.0
27879,76.0,0.0,30.0,8.0,0.0
27880,54.0,8.0,390.0,6.0,0.0
27881,42.0,0.0,30.0,12.0,0.0
27882,30.0,32.0,120.0,13.0,0.0
27883,54.0,40.0,30.0,10.0,0.0
27884,66.0,0.0,30.0,8.0,0.0
27885,66.0,40.0,30.0,8.0,0.0
27886,42.0,0.0,30.0,12.0,0.0
27887,54.0,0.0,30.0,10.0,0.0
27888,66.0,8.0,30.0,8.0,0.0
27889,54.0,0.0,30.0,10.0,0.0
27890,42.0,0.0,30.0,12.0,0.0
27891,42.0,0.0,30.0,12.0,0.0
27892,54.0,40.0,30.0,10.0,0.0
27893,66.0,0.0,30.0,8.0,0.0
27894,42.0,0.0,30.0,12.0,0.0
27895,66.0,0.0,30.0,8.0,0.0
27896,54.0,40.0,30.0,10.0,0.0
27897,42.0,0.0,30.0,12.0,0.0
27898,66.0,0.0,30.0,8.0,0.0
27899,54.0,40.0,30.0,10.0,0.0
27900,52.0,24.0,120.0,13.0,0.0
27901,64.0,0.0,30.0,12.0,0.0
27902,76.0,0.0,30.0,10.0,0.0
27903,88.0,40.0,30.0,8.0,0.0
27904,64.0,24.0,30.0,12.0,0.0
27905,76.0,0.0,30.0,10.0,0.0
27906,88.0,0.0,30.0,8.0,0.0
27907,88.0,0.0,30.0,8.0,0.0
27908,76.0,8.0,30.0,10.0,0.0
27909,64.0,0.0,30.0,12.0,0.0
27910,88.0,0.0,30.0,8.0,0.0
27911,76.0,40.0,30.0,10.0,0.0
27912,64.0,0.0,30.0,12.0,0.0
27913,88.0,36.0,30.0,8.0,0.0
27914,76.0,0.0,30.0,10.0,0.0
27915,64.0,0.0,30.0,12.0,0.0
27916,70.0,0.0,60.0,2.0,0.0
27917,61.0,0.0,60.0,2.0,0.0
27918,66.0,0.0,60.0,5.0,0.0
27919,78.0,0.0,60.0,5.0,0.0
27920,70.0,0.0,60.0,3.0,0.0
27921,66.0,0.0,60.0,4.0,0.0
27922,73.0,0.0,60.0,1.0,0.0
27923,94.0,0.0,60.0,0.0,0.0
27924,85.0,4.0,60.0,0.0,0.0
27925,54.0,0.0,60.0,4.0,0.0
27926,61.0,0.0,60.0,3.0,0.0
27927,82.0,0.0,60.0,1.0,0.0
27928,64.0,0.0,30.0,12.0,0.0
27929,88.0,40.0,30.0,8.0,0.0
27930,76.0,0.0,30.0,10.0,0.0
27931,69.0,0.0,810.0,2.0,0.0
27932,51.0,32.0,120.0,13.0,0.0
27933,69.0,0.0,810.0,4.0,0.0
27934,66.0,0.0,810.0,5.0,0.0
27935,81.0,0.0,810.0,1.0,0.0
27936,72.0,16.0,810.0,2.0,0.0
27937,84.0,0.0,810.0,1.0,0.0
27938,78.0,0.0,810.0,5.0,0.0
27939,75.0,16.0,30.0,10.0,0.0
27940,63.0,0.0,30.0,12.0,0.0
27941,96.0,0.0,810.0,0.0,0.0
27942,72.0,0.0,810.0,3.0,0.0
27943,93.0,0.0,810.0,0.0,0.0
27944,87.0,0.0,30.0,8.0,0.0
27945,69.0,0.0,810.0,3.0,0.0
27946,54.0,24.0,60.0,6.0,0.0
27947,87.0,0.0,30.0,8.0,0.0
27948,75.0,0.0,30.0,10.0,0.0
27949,63.0,36.0,30.0,12.0,0.0
27950,54.0,4.0,60.0,6.0,0.0
27951,87.0,8.0,30.0,8.0,0.0
27952,75.0,0.0,30.0,10.0,0.0
27953,63.0,0.0,30.0,12.0,0.0
27954,54.0,24.0,60.0,6.0,0.0
27955,87.0,0.0,30.0,8.0,0.0
27956,63.0,16.0,30.0,12.0,0.0
27957,75.0,0.0,30.0,10.0,0.0
27958,87.0,0.0,30.0,8.0,0.0
27959,63.0,0.0,30.0,12.0,0.0
27960,75.0,36.0,30.0,10.0,0.0
27961,54.0,4.0,60.0,6.0,0.0
27962,63.0,40.0,30.0,12.0,0.0
27963,87.0,0.0,30.0,8.0,0.0
27964,75.0,0.0,30.0,10.0,0.0
27965,63.0,0.0,30.0,10.0,0.0
27966,75.0,0.0,30.0,8.0,0.0
27967,39.0,32.0,120.0,13.0,0.0
27968,54.0,24.0,60.0,6.0,0.0
27969,51.0,16.0,30.0,12.0,0.0
27970,75.0,0.0,30.0,8.0,0.0
27971,63.0,0.0,30.0,10.0,0.0
27972,51.0,36.0,30.0,12.0,0.0
27973,54.0,4.0,60.0,6.0,0.0
27974,51.0,0.0,30.0,12.0,0.0
27975,63.0,8.0,30.0,10.0,0.0
27976,75.0,0.0,30.0,8.0,0.0
27977,63.0,0.0,30.0,10.0,0.0
27978,75.0,0.0,30.0,8.0,0.0
27979,51.0,16.0,30.0,12.0,0.0
27980,54.0,24.0,60.0,6.0,0.0
27981,75.0,0.0,30.0,8.0,0.0
27982,63.0,0.0,30.0,10.0,0.0
27983,51.0,36.0,30.0,12.0,0.0
27984,54.0,4.0,60.0,6.0,0.0
27985,63.0,0.0,30.0,10.0,0.0
27986,51.0,0.0,30.0,12.0,0.0
27987,75.0,40.0,30.0,8.0,0.0
27988,42.0,0.0,30.0,12.0,0.0
27989,54.0,8.0,390.0,6.0,0.0
27990,66.0,0.0,30.0,8.0,0.0
27991,54.0,40.0,30.0,10.0,0.0
27992,30.0,32.0,120.0,13.0,0.0
27993,42.0,0.0,30.0,12.0,0.0
27994,66.0,0.0,30.0,8.0,0.0
27995,54.0,40.0,30.0,10.0,0.0
27996,54.0,0.0,30.0,10.0,0.0
27997,66.0,8.0,30.0,8.0,0.0
27998,42.0,0.0,30.0,12.0,0.0
27999,54.0,0.0,30.0,10.0,0.0
28000,42.0,0.0,30.0,12.0,0.0
28001,66.0,40.0,30.0,8.0,0.0
28002,54.0,40.0,30.0,10.0,0.0
28003,66.0,0.0,30.0,8.0,0.0
28004,42.0,0.0,30.0,12.0,0.0
28005,54.0,40.0,30.0,10.0,0.0
28006,66.0,0.0,30.0,8.0,0.0
28007,42.0,0.0,30.0,12.0,0.0
28008,51.0,24.0,120.0,13.0,0.0
28009,63.0,0.0,30.0,12.0,0.0
28010,87.0,40.0,30.0,8.0,0.0
28011,75.0,0.0,30.0,10.0,0.0
28012,63.0,0.0,30.0,12.0,0.0
28013,87.0,0.0,30.0,8.0,0.0
28014,75.0,24.0,30.0,10.0,0.0
28015,75.0,0.0,30.0,10.0,0.0
28016,87.0,0.0,30.0,8.0,0.0
28017,63.0,8.0,30.0,12.0,0.0
28018,87.0,0.0,30.0,8.0,0.0
28019,75.0,0.0,30.0,10.0,0.0
28020,63.0,40.0,30.0,12.0,0.0
28021,75.0,0.0,30.0,10.0,0.0
28022,87.0,0.0,30.0,8.0,0.0
28023,63.0,36.0,30.0,12.0,0.0
28024,93.0,4.0,60.0,0.0,0.0
28025,72.0,0.0,60.0,3.0,0.0
28026,69.0,0.0,60.0,3.0,0.0
28027,69.0,0.0,60.0,2.0,0.0
28028,84.0,0.0,60.0,1.0,0.0
28029,81.0,0.0,60.0,1.0,0.0
28030,72.0,0.0,60.0,2.0,0.0
28031,66.0,0.0,60.0,5.0,0.0
28032,78.0,0.0,60.0,5.0,0.0
28033,69.0,0.0,60.0,4.0,0.0
28034,96.0,0.0,60.0,0.0,0.0
28035,87.0,0.0,30.0,8.0,0.0
28036,63.0,0.0,30.0,12.0,0.0
28037,75.0,40.0,30.0,10.0,0.0
28038,65.0,0.0,30.0,12.0,0.0
28039,92.0,0.0,810.0,0.0,0.0
28040,97.0,0.0,810.0,0.0,0.0
28041,68.0,0.0,810.0,3.0,0.0
28042,68.0,0.0,810.0,4.0,0.0
28043,77.0,16.0,30.0,10.0,0.0
28044,89.0,0.0,30.0,8.0,0.0
28045,73.0,0.0,810.0,3.0,0.0
28046,85.0,0.0,810.0,1.0,0.0
28047,80.0,0.0,810.0,1.0,0.0
28048,49.0,24.0,60.0,6.0,0.0
28049,53.0,32.0,120.0,13.0,0.0
28050,61.0,0.0,810.0,5.0,0.0
28051,73.0,0.0,810.0,5.0,0.0
28052,68.0,16.0,810.0,2.0,0.0
28053,73.0,0.0,810.0,2.0,0.0
28054,65.0,0.0,30.0,12.0,0.0
28055,77.0,0.0,30.0,10.0,0.0
28056,89.0,36.0,30.0,8.0,0.0
28057,49.0,4.0,60.0,6.0,0.0
28058,65.0,0.0,30.0,12.0,0.0
28059,77.0,8.0,30.0,10.0,0.0
28060,89.0,0.0,30.0,8.0,0.0
28061,89.0,0.0,30.0,8.0,0.0
28062,77.0,0.0,30.0,10.0,0.0
28063,49.0,24.0,60.0,6.0,0.0
28064,65.0,16.0,30.0,12.0,0.0
28065,89.0,0.0,30.0,8.0,0.0
28066,77.0,0.0,30.0,10.0,0.0
28067,65.0,36.0,30.0,12.0,0.0
28068,49.0,4.0,60.0,6.0,0.0
28069,65.0,0.0,30.0,12.0,0.0
28070,77.0,40.0,30.0,10.0,0.0
28071,89.0,0.0,30.0,8.0,0.0
28072,77.0,0.0,30.0,8.0,0.0
28073,65.0,0.0,30.0,10.0,0.0
28074,53.0,16.0,30.0,12.0,0.0
28075,41.0,32.0,120.0,13.0,0.0
28076,49.0,24.0,60.0,6.0,0.0
28077,53.0,36.0,30.0,12.0,0.0
28078,77.0,0.0,30.0,8.0,0.0
28079,65.0,0.0,30.0,10.0,0.0
28080,49.0,4.0,60.0,6.0,0.0
28081,77.0,0.0,30.0,8.0,0.0
28082,65.0,8.0,30.0,10.0,0.0
28083,53.0,0.0,30.0,12.0,0.0
28084,49.0,24.0,60.0,6.0,0.0
28085,65.0,0.0,30.0,10.0,0.0
28086,77.0,16.0,30.0,8.0,0.0
28087,53.0,0.0,30.0,12.0,0.0
28088,77.0,0.0,30.0,8.0,0.0
28089,65.0,0.0,30.0,10.0,0.0
28090,53.0,36.0,30.0,12.0,0.0
28091,49.0,4.0,60.0,6.0,0.0
28092,53.0,0.0,30.0,12.0,0.0
28093,65.0,40.0,30.0,10.0,0.0
28094,77.0,0.0,30.0,8.0,0.0
28095,30.0,32.0,120.0,13.0,0.0
28096,66.0,40.0,30.0,8.0,0.0
28097,49.0,8.0,390.0,6.0,0.0
28098,54.0,0.0,30.0,10.0,0.0
28099,42.0,0.0,30.0,12.0,0.0
28100,42.0,0.0,30.0,12.0,0.0
28101,66.0,40.0,30.0,8.0,0.0
28102,54.0,0.0,30.0,10.0,0.0
28103,66.0,0.0,30.0,8.0,0.0
28104,54.0,8.0,30.0,10.0,0.0
28105,42.0,0.0,30.0,12.0,0.0
28106,66.0,40.0,30.0,8.0,0.0
28107,42.0,0.0,30.0,12.0,0.0
28108,54.0,0.0,30.0,10.0,0.0
28109,42.0,40.0,30.0,12.0,0.0
28110,54.0,0.0,30.0,10.0,0.0
28111,66.0,0.0,30.0,8.0,0.0
28112,54.0,40.0,30.0,10.0,0.0
28113,42.0,0.0,30.0,12.0,0.0
28114,66.0,0.0,30.0,8.0,0.0
28115,65.0,40.0,30.0,12.0,0.0
28116,89.0,0.0,30.0,8.0,0.0
28117,77.0,0.0,30.0,10.0,0.0
28118,53.0,24.0,120.0,13.0,0.0
28119,77.0,0.0,30.0,10.0,0.0
28120,65.0,24.0,30.0,12.0,0.0
28121,89.0,0.0,30.0,8.0,0.0
28122,77.0,0.0,30.0,10.0,0.0
28123,89.0,0.0,30.0,8.0,0.0
28124,65.0,8.0,30.0,12.0,0.0
28125,89.0,40.0,30.0,8.0,0.0
28126,77.0,0.0,30.0,10.0,0.0
28127,65.0,0.0,30.0,12.0,0.0
28128,77.0,36.0,30.0,10.0,0.0
28129,89.0,0.0,30.0,8.0,0.0
28130,65.0,0.0,30.0,12.0,0.0
28131,97.0,0.0,60.0,0.0,0.0
28132,92.0,0.0,60.0,0.0,0.0
28133,61.0,4.0,60.0,5.0,0.0
28134,68.0,0.0,60.0,4.0,0.0
28135,73.0,0.0,60.0,5.0,0.0
28136,80.0,0.0,60.0,1.0,0.0
28137,85.0,0.0,60.0,1.0,0.0
28138,68.0,0.0,60.0,3.0,0.0
28139,73.0,0.0,60.0,3.0,0.0
28140,68.0,0.0,60.0,2.0,0.0
28141,73.0,0.0,60.0,2.0,0.0
28142,65.0,0.0,30.0,12.0,0.0
28143,77.0,0.0,30.0,10.0,0.0
28144,89.0,40.0,30.0,8.0,0.0
28145,52.0,32.0,120.0,13.0,0.0
28146,76.0,0.0,30.0,10.0,0.0
28147,88.0,0.0,30.0,8.0,0.0
28148,70.0,0.0,810.0,1.0,0.0
28149,82.0,0.0,810.0,1.0,0.0
28150,58.0,0.0,810.0,3.0,0.0
28151,70.0,0.0,810.0,3.0,0.0
28152,66.0,0.0,810.0,5.0,0.0
28153,54.0,0.0,810.0,4.0,0.0
28154,94.0,0.0,810.0,0.0,0.0
28155,66.0,0.0,810.0,4.0,0.0
28156,82.0,16.0,810.0,0.0,0.0
28157,54.0,24.0,60.0,6.0,0.0
28158,78.0,0.0,810.0,5.0,0.0
28159,70.0,0.0,810.0,2.0,0.0
28160,58.0,0.0,810.0,2.0,0.0
28161,64.0,16.0,30.0,12.0,0.0
28162,88.0,0.0,30.0,8.0,0.0
28163,76.0,36.0,30.0,10.0,0.0
28164,64.0,0.0,30.0,12.0,0.0
28165,54.0,4.0,60.0,6.0,0.0
28166,64.0,0.0,30.0,12.0,0.0
28167,76.0,0.0,30.0,10.0,0.0
28168,88.0,8.0,30.0,8.0,0.0
28169,54.0,24.0,60.0,6.0,0.0
28170,76.0,0.0,30.0,10.0,0.0
28171,88.0,16.0,30.0,8.0,0.0
28172,64.0,0.0,30.0,12.0,0.0
28173,64.0,0.0,30.0,12.0,0.0
28174,88.0,36.0,30.0,8.0,0.0
28175,76.0,0.0,30.0,10.0,0.0
28176,54.0,4.0,60.0,6.0,0.0
28177,64.0,0.0,30.0,12.0,0.0
28178,76.0,0.0,30.0,10.0,0.0
28179,88.0,40.0,30.0,8.0,0.0
28180,76.0,0.0,30.0,8.0,0.0
28181,54.0,24.0,60.0,6.0,0.0
28182,40.0,32.0,120.0,13.0,0.0
28183,64.0,16.0,30.0,10.0,0.0
28184,52.0,0.0,30.0,12.0,0.0
28185,52.0,0.0,30.0,12.0,0.0
28186,76.0,0.0,30.0,8.0,0.0
28187,64.0,36.0,30.0,10.0,0.0
28188,54.0,4.0,60.0,6.0,0.0
28189,76.0,0.0,30.0,8.0,0.0
28190,64.0,0.0,30.0,10.0,0.0
28191,52.0,8.0,30.0,12.0,0.0
28192,64.0,0.0,30.0,10.0,0.0
28193,52.0,16.0,30.0,12.0,0.0
28194,54.0,24.0,60.0,6.0,0.0
28195,76.0,0.0,30.0,8.0,0.0
28196,52.0,36.0,30.0,12.0,0.0
28197,64.0,0.0,30.0,10.0,0.0
28198,76.0,0.0,30.0,8.0,0.0
28199,54.0,4.0,60.0,6.0,0.0
28200,64.0,40.0,30.0,10.0,0.0
28201,76.0,0.0,30.0,8.0,0.0
28202,52.0,0.0,30.0,12.0,0.0
28203,42.0,0.0,30.0,12.0,0.0
28204,30.0,32.0,120.0,13.0,0.0
28205,54.0,40.0,30.0,10.0,0.0
28206,54.0,8.0,390.0,6.0,0.0
28207,66.0,0.0,30.0,8.0,0.0
28208,66.0,0.0,30.0,8.0,0.0
28209,54.0,40.0,30.0,10.0,0.0
28210,42.0,0.0,30.0,12.0,0.0
28211,66.0,0.0,30.0,8.0,0.0
28212,42.0,8.0,30.0,12.0,0.0
28213,54.0,0.0,30.0,10.0,0.0
28214,66.0,0.0,30.0,8.0,0.0
28215,54.0,40.0,30.0,10.0,0.0
28216,42.0,0.0,30.0,12.0,0.0
28217,54.0,40.0,30.0,10.0,0.0
28218,66.0,0.0,30.0,8.0,0.0
28219,42.0,0.0,30.0,12.0,0.0
28220,54.0,0.0,30.0,10.0,0.0
28221,42.0,40.0,30.0,12.0,0.0
28222,66.0,0.0,30.0,8.0,0.0
28223,52.0,24.0,120.0,13.0,0.0
28224,88.0,0.0,30.0,8.0,0.0
28225,64.0,40.0,30.0,12.0,0.0
28226,76.0,0.0,30.0,10.0,0.0
28227,88.0,0.0,30.0,8.0,0.0
28228,76.0,0.0,30.0,10.0,0.0
28229,64.0,24.0,30.0,12.0,0.0
28230,88.0,8.0,30.0,8.0,0.0
28231,64.0,0.0,30.0,12.0,0.0
28232,76.0,0.0,30.0,10.0,0.0
28233,76.0,0.0,30.0,10.0,0.0
28234,88.0,0.0,30.0,8.0,0.0
28235,64.0,40.0,30.0,12.0,0.0
28236,76.0,0.0,30.0,10.0,0.0
28237,88.0,0.0,30.0,8.0,0.0
28238,64.0,36.0,30.0,12.0,0.0
28239,70.0,0.0,60.0,2.0,0.0
28240,70.0,0.0,60.0,3.0,0.0
28241,78.0,0.0,60.0,5.0,0.0
28242,66.0,4.0,60.0,5.0,0.0
28243,66.0,0.0,60.0,4.0,0.0
28244,70.0,0.0,60.0,1.0,0.0
28245,82.0,0.0,60.0,1.0,0.0
28246,58.0,0.0,60.0,3.0,0.0
28247,54.0,0.0,60.0,4.0,0.0
28248,94.0,0.0,60.0,0.0,0.0
28249,58.0,0.0,60.0,2.0,0.0
28250,82.0,0.0,60.0,0.0,0.0
28251,76.0,40.0,30.0,10.0,0.0
28252,88.0,0.0,30.0,8.0,0.0
28253,64.0,0.0,30.0,12.0,0.0
28254,88.0,0.0,30.0,8.0,0.0
28255,58.0,0.0,810.0,3.0,0.0
28256,70.0,0.0,810.0,3.0,0.0
28257,70.0,0.0,810.0,2.0,0.0
28258,82.0,0.0,810.0,1.0,0.0
28259,54.0,24.0,60.0,6.0,0.0
28260,78.0,0.0,810.0,5.0,0.0
28261,66.0,0.0,810.0,5.0,0.0
28262,54.0,0.0,810.0,4.0,0.0
28263,76.0,0.0,30.0,10.0,0.0
28264,66.0,0.0,810.0,4.0,0.0
28265,58.0,0.0,810.0,2.0,0.0
28266,52.0,32.0,120.0,13.0,0.0
28267,82.0,0.0,810.0,0.0,0.0
28268,94.0,0.0,810.0,0.0,0.0
28269,64.0,16.0,30.0,12.0,0.0
28270,70.0,16.0,810.0,1.0,0.0
28271,88.0,0.0,30.0,8.0,0.0
28272,76.0,0.0,30.0,10.0,0.0
28273,64.0,36.0,30.0,12.0,0.0
28274,54.0,4.0,60.0,6.0,0.0
28275,76.0,0.0,30.0,10.0,0.0
28276,88.0,0.0,30.0,8.0,0.0
28277,64.0,8.0,30.0,12.0,0.0
28278,64.0,16.0,30.0,12.0,0.0
28279,54.0,24.0,60.0,6.0,0.0
28280,88.0,0.0,30.0,8.0,0.0
28281,76.0,0.0,30.0,10.0,0.0
28282,64.0,0.0,30.0,12.0,0.0
28283,76.0,0.0,30.0,10.0,0.0
28284,88.0,36.0,30.0,8.0,0.0
28285,54.0,4.0,60.0,6.0,0.0
28286,64.0,0.0,30.0,12.0,0.0
28287,76.0,0.0,30.0,10.0,0.0
28288,88.0,40.0,30.0,8.0,0.0
28289,64.0,0.0,30.0,10.0,0.0
28290,52.0,16.0,30.0,12.0,0.0
28291,54.0,24.0,60.0,6.0,0.0
28292,40.0,32.0,120.0,13.0,0.0
28293,76.0,0.0,30.0,8.0,0.0
28294,64.0,36.0,30.0,10.0,0.0
28295,76.0,0.0,30.0,8.0,0.0
28296,52.0,0.0,30.0,12.0,0.0
28297,54.0,4.0,60.0,6.0,0.0
28298,76.0,0.0,30.0,8.0,0.0
28299,64.0,8.0,30.0,10.0,0.0
28300,52.0,0.0,30.0,12.0,0.0
28301,52.0,0.0,30.0,12.0,0.0
28302,64.0,0.0,30.0,10.0,0.0
28303,54.0,24.0,60.0,6.0,0.0
28304,76.0,16.0,30.0,8.0,0.0
28305,52.0,0.0,30.0,12.0,0.0
28306,76.0,0.0,30.0,8.0,0.0
28307,64.0,36.0,30.0,10.0,0.0
28308,54.0,4.0,60.0,6.0,0.0
28309,64.0,0.0,30.0,10.0,0.0
28310,52.0,0.0,30.0,12.0,0.0
28311,76.0,40.0,30.0,8.0,0.0
28312,30.0,32.0,120.0,13.0,0.0
28313,54.0,0.0,30.0,10.0,0.0
28314,54.0,8.0,390.0,6.0,0.0
28315,42.0,0.0,30.0,12.0,0.0
28316,66.0,40.0,30.0,8.0,0.0
28317,66.0,0.0,30.0,8.0,0.0
28318,54.0,0.0,30.0,10.0,0.0
28319,42.0,40.0,30.0,12.0,0.0
28320,66.0,0.0,30.0,8.0,0.0
28321,54.0,0.0,30.0,10.0,0.0
28322,42.0,8.0,30.0,12.0,0.0
28323,66.0,0.0,30.0,8.0,0.0
28324,42.0,0.0,30.0,12.0,0.0
28325,54.0,40.0,30.0,10.0,0.0
28326,54.0,0.0,30.0,10.0,0.0
28327,42.0,0.0,30.0,12.0,0.0
28328,66.0,40.0,30.0,8.0,0.0
28329,42.0,40.0,30.0,12.0,0.0
28330,54.0,0.0,30.0,10.0,0.0
28331,66.0,0.0,30.0,8.0,0.0
28332,88.0,0.0,30.0,8.0,0.0
28333,76.0,40.0,30.0,10.0,0.0
28334,52.0,24.0,120.0,13.0,0.0
28335,64.0,0.0,30.0,12.0,0.0
28336,76.0,24.0,30.0,10.0,0.0
28337,64.0,0.0,30.0,12.0,0.0
28338,88.0,0.0,30.0,8.0,0.0
28339,64.0,0.0,30.0,12.0,0.0
28340,76.0,0.0,30.0,10.0,0.0
28341,88.0,8.0,30.0,8.0,0.0
28342,64.0,0.0,30.0,12.0,0.0
28343,88.0,40.0,30.0,8.0,0.0
28344,76.0,0.0,30.0,10.0,0.0
28345,76.0,0.0,30.0,10.0,0.0
28346,64.0,0.0,30.0,12.0,0.0
28347,88.0,36.0,30.0,8.0,0.0
28348,94.0,4.0,60.0,0.0,0.0
28349,82.0,0.0,60.0,0.0,0.0
28350,58.0,0.0,60.0,3.0,0.0
28351,82.0,0.0,60.0,1.0,0.0
28352,70.0,0.0,60.0,1.0,0.0
28353,70.0,0.0,60.0,3.0,0.0
28354,54.0,0.0,60.0,4.0,0.0
28355,66.0,0.0,60.0,4.0,0.0
28356,70.0,0.0,60.0,2.0,0.0
28357,58.0,0.0,60.0,2.0,0.0
28358,78.0,0.0,60.0,5.0,0.0
28359,66.0,0.0,60.0,5.0,0.0
28360,88.0,40.0,30.0,8.0,0.0
28361,76.0,0.0,30.0,10.0,0.0
28362,64.0,0.0,30.0,12.0,0.0
28363,78.0,0.0,810.0,5.0,0.0
28364,57.0,16.0,810.0,4.0,0.0
28365,60.0,0.0,810.0,2.0,0.0
28366,72.0,0.0,810.0,2.0,0.0
28367,96.0,0.0,810.0,0.0,0.0
28368,84.0,0.0,810.0,0.0,0.0
28369,75.0,0.0,30.0,10.0,0.0
28370,51.0,32.0,120.0,13.0,0.0
28371,84.0,0.0,810.0,1.0,0.0
28372,72.0,0.0,810.0,1.0,0.0
28373,87.0,0.0,30.0,8.0,0.0
28374,54.0,0.0,810.0,4.0,0.0
28375,63.0,16.0,30.0,12.0,0.0
28376,72.0,0.0,810.0,3.0,0.0
28377,60.0,0.0,810.0,3.0,0.0
28378,66.0,0.0,810.0,4.0,0.0
28379,66.0,0.0,810.0,5.0,0.0
28380,69.0,0.0,810.0,4.0,0.0
28381,54.0,24.0,60.0,6.0,0.0
28382,75.0,0.0,30.0,10.0,0.0
28383,63.0,0.0,30.0,12.0,0.0
28384,87.0,36.0,30.0,8.0,0.0
28385,54.0,4.0,60.0,6.0,0.0
28386,75.0,0.0,30.0,10.0,0.0
28387,63.0,8.0,30.0,12.0,0.0
28388,87.0,0.0,30.0,8.0,0.0
28389,75.0,0.0,30.0,10.0,0.0
28390,54.0,24.0,60.0,6.0,0.0
28391,63.0,16.0,30.0,12.0,0.0
28392,87.0,0.0,30.0,8.0,0.0
28393,75.0,0.0,30.0,10.0,0.0
28394,63.0,36.0,30.0,12.0,0.0
28395,87.0,0.0,30.0,8.0,0.0
28396,54.0,4.0,60.0,6.0,0.0
28397,75.0,0.0,30.0,10.0,0.0
28398,87.0,0.0,30.0,8.0,0.0
28399,63.0,40.0,30.0,12.0,0.0
28400,39.0,32.0,120.0,13.0,0.0
28401,51.0,16.0,30.0,12.0,0.0
28402,75.0,0.0,30.0,8.0,0.0
28403,63.0,0.0,30.0,10.0,0.0
28404,54.0,24.0,60.0,6.0,0.0
28405,51.0,0.0,30.0,12.0,0.0
28406,75.0,0.0,30.0,8.0,0.0
28407,63.0,36.0,30.0,10.0,0.0
28408,54.0,4.0,60.0,6.0,0.0
28409,75.0,0.0,30.0,8.0,0.0
28410,51.0,8.0,30.0,12.0,0.0
28411,63.0,0.0,30.0,10.0,0.0
28412,51.0,0.0,30.0,12.0,0.0
28413,63.0,0.0,30.0,10.0,0.0
28414,75.0,16.0,30.0,8.0,0.0
28415,54.0,24.0,60.0,6.0,0.0
28416,63.0,36.0,30.0,10.0,0.0
28417,75.0,0.0,30.0,8.0,0.0
28418,51.0,0.0,30.0,12.0,0.0
28419,54.0,4.0,60.0,6.0,0.0
28420,51.0,0.0,30.0,12.0,0.0
28421,63.0,0.0,30.0,10.0,0.0
28422,75.0,40.0,30.0,8.0,0.0
28423,54.0,8.0,390.0,6.0,0.0
28424,30.0,32.0,120.0,13.0,0.0
28425,42.0,0.0,30.0,12.0,0.0
28426,54.0,0.0,30.0,10.0,0.0
28427,66.0,40.0,30.0,8.0,0.0
28428,42.0,0.0,30.0,12.0,0.0
28429,54.0,0.0,30.0,10.0,0.0
28430,66.0,40.0,30.0,8.0,0.0
28431,42.0,0.0,30.0,12.0,0.0
28432,54.0,0.0,30.0,10.0,0.0
28433,66.0,8.0,30.0,8.0,0.0
28434,54.0,0.0,30.0,10.0,0.0
28435,66.0,0.0,30.0,8.0,0.0
28436,42.0,40.0,30.0,12.0,0.0
28437,42.0,40.0,30.0,12.0,0.0
28438,66.0,0.0,30.0,8.0,0.0
28439,54.0,0.0,30.0,10.0,0.0
28440,66.0,0.0,30.0,8.0,0.0
28441,42.0,40.0,30.0,12.0,0.0
28442,54.0,0.0,30.0,10.0,0.0
28443,51.0,24.0,120.0,13.0,0.0
28444,75.0,0.0,30.0,10.0,0.0
28445,87.0,40.0,30.0,8.0,0.0
28446,63.0,0.0,30.0,12.0,0.0
28447,75.0,0.0,30.0,10.0,0.0
28448,63.0,0.0,30.0,12.0,0.0
28449,87.0,24.0,30.0,8.0,0.0
28450,87.0,0.0,30.0,8.0,0.0
28451,75.0,8.0,30.0,10.0,0.0
28452,63.0,0.0,30.0,12.0,0.0
28453,63.0,0.0,30.0,12.0,0.0
28454,87.0,0.0,30.0,8.0,0.0
28455,75.0,40.0,30.0,10.0,0.0
28456,63.0,36.0,30.0,12.0,0.0
28457,87.0,0.0,30.0,8.0,0.0
28458,75.0,0.0,30.0,10.0,0.0
28459,72.0,0.0,60.0,2.0,0.0
28460,60.0,0.0,60.0,2.0,0.0
28461,72.0,0.0,60.0,3.0,0.0
28462,96.0,0.0,60.0,0.0,0.0
28463,72.0,0.0,60.0,1.0,0.0
28464,78.0,0.0,60.0,5.0,0.0
28465,84.0,0.0,60.0,1.0,0.0
28466,60.0,0.0,60.0,3.0,0.0
28467,57.0,0.0,60.0,4.0,0.0
28468,69.0,0.0,60.0,4.0,0.0
28469,66.0,0.0,60.0,4.0,0.0
28470,54.0,0.0,60.0,4.0,0.0
28471,66.0,0.0,60.0,5.0,0.0
28472,84.0,4.0,60.0,0.0,0.0
28473,75.0,40.0,30.0,10.0,0.0
28474,87.0,0.0,30.0,8.0,0.0
28475,63.0,0.0,30.0,12.0,0.0
28476,49.0,24.0,60.0,6.0,0.0
28477,73.0,0.0,810.0,3.0,0.0
28478,97.0,0.0,810.0,0.0,0.0
28479,77.0,16.0,30.0,10.0,0.0
28480,65.0,0.0,30.0,12.0,0.0
28481,61.0,0.0,810.0,3.0,0.0
28482,85.0,0.0,810.0,0.0,0.0
28483,73.0,0.0,810.0,5.0,0.0
28484,73.0,0.0,810.0,4.0,0.0
28485,61.0,12.0,810.0,4.0,0.0
28486,89.0,0.0,30.0,8.0,0.0
28487,85.0,0.0,810.0,1.0,0.0
28488,61.0,0.0,810.0,5.0,0.0
28489,73.0,0.0,810.0,1.0,0.0
28490,53.0,32.0,120.0,13.0,0.0
28491,61.0,16.0,810.0,2.0,0.0
28492,73.0,0.0,810.0,2.0,0.0
28493,77.0,36.0,30.0,10.0,0.0
28494,89.0,0.0,30.0,8.0,0.0
28495,65.0,0.0,30.0,12.0,0.0
28496,49.0,4.0,60.0,6.0,0.0
28497,77.0,8.0,30.0,10.0,0.0
28498,89.0,0.0,30.0,8.0,0.0
28499,65.0,0.0,30.0,12.0,0.0
28500,77.0,0.0,30.0,10.0,0.0
28501,89.0,16.0,30.0,8.0,0.0
28502,49.0,24.0,60.0,6.0,0.0
28503,65.0,0.0,30.0,12.0,0.0
28504,77.0,0.0,30.0,10.0,0.0
28505,89.0,36.0,30.0,8.0,0.0
28506,65.0,0.0,30.0,12.0,0.0
28507,49.0,4.0,60.0,6.0,0.0
28508,89.0,0.0,30.0,8.0,0.0
28509,77.0,40.0,30.0,10.0,0.0
28510,65.0,0.0,30.0,12.0,0.0
28511,53.0,0.0,30.0,12.0,0.0
28512,49.0,24.0,60.0,6.0,0.0
28513,41.0,32.0,120.0,13.0,0.0
28514,65.0,0.0,30.0,10.0,0.0
28515,77.0,16.0,30.0,8.0,0.0
28516,53.0,36.0,30.0,12.0,0.0
28517,65.0,0.0,30.0,10.0,0.0
28518,77.0,0.0,30.0,8.0,0.0
28519,49.0,4.0,60.0,6.0,0.0
28520,77.0,8.0,30.0,8.0,0.0
28521,65.0,0.0,30.0,10.0,0.0
28522,53.0,0.0,30.0,12.0,0.0
28523,65.0,0.0,30.0,10.0,0.0
28524,49.0,24.0,60.0,6.0,0.0
28525,77.0,16.0,30.0,8.0,0.0
28526,53.0,0.0,30.0,12.0,0.0
28527,53.0,0.0,30.0,12.0,0.0
28528,65.0,36.0,30.0,10.0,0.0
28529,77.0,0.0,30.0,8.0,0.0
28530,49.0,4.0,60.0,6.0,0.0
28531,77.0,40.0,30.0,8.0,0.0
28532,65.0,0.0,30.0,10.0,0.0
28533,53.0,0.0,30.0,12.0,0.0
28534,54.0,40.0,30.0,10.0,0.0
28535,49.0,6.0,240.0,6.0,0.0
28536,30.0,32.0,120.0,13.0,0.0
28537,42.0,0.0,30.0,12.0,0.0
28538,66.0,0.0,30.0,8.0,0.0
28539,54.0,0.0,30.0,10.0,0.0
28540,66.0,40.0,30.0,8.0,0.0
28541,42.0,0.0,30.0,12.0,0.0
28542,54.0,0.0,30.0,10.0,0.0
28543,42.0,0.0,30.0,12.0,0.0
28544,66.0,8.0,30.0,8.0,0.0
28545,42.0,0.0,30.0,12.0,0.0
28546,66.0,0.0,30.0,8.0,0.0
28547,54.0,40.0,30.0,10.0,0.0
28548,66.0,0.0,30.0,8.0,0.0
28549,54.0,0.0,30.0,10.0,0.0
28550,42.0,34.0,30.0,12.0,0.0
28551,42.0,40.0,30.0,12.0,0.0
28552,54.0,0.0,30.0,10.0,0.0
28553,66.0,0.0,30.0,8.0,0.0
28554,66.0,0.0,30.0,10.0,0.0
28555,66.0,40.0,30.0,12.0,0.0
28556,78.0,0.0,30.0,8.0,0.0
28557,54.0,32.0,120.0,13.0,0.0
28558,78.0,0.0,30.0,8.0,0.0
28559,66.0,12.0,30.0,10.0,0.0
28560,66.0,0.0,30.0,12.0,0.0
28561,78.0,0.0,30.0,8.0,0.0
28562,66.0,8.0,30.0,10.0,0.0
28563,66.0,0.0,30.0,12.0,0.0
28564,66.0,40.0,30.0,12.0,0.0
28565,66.0,0.0,30.0,10.0,0.0
28566,66.0,36.0,30.0,10.0,0.0
28567,66.0,0.0,30.0,12.0,0.0
28568,66.0,0.0,60.0,3.0,0.0
28569,78.0,0.0,60.0,3.0,0.0
28570,54.0,0.0,60.0,6.0,0.0
28571,66.0,0.0,60.0,5.0,0.0
28572,78.0,0.0,60.0,5.0,0.0
28573,66.0,0.0,60.0,4.0,0.0
28574,66.0,0.0,60.0,2.0,0.0
28575,78.0,0.0,60.0,4.0,0.0
28576,90.0,0.0,60.0,8.0,0.0
28577,90.0,0.0,60.0,1.0,0.0
28578,78.0,4.0,60.0,1.0,0.0
28579,102.0,0.0,60.0,0.0,0.0
28580,78.0,0.0,60.0,2.0,0.0
28581,90.0,0.0,60.0,0.0,0.0
28582,66.0,56.0,30.0,12.0,0.0
28583,66.0,0.0,30.0,10.0,0.0
28584,85.0,0.0,780.0,1.0,0.0
28585,66.0,0.0,780.0,4.0,0.0
28586,54.0,0.0,780.0,4.0,0.0
28587,61.0,0.0,780.0,12.0,0.0
28588,66.0,0.0,780.0,5.0,0.0
28589,78.0,0.0,780.0,5.0,0.0
28590,85.0,0.0,780.0,2.0,0.0
28591,73.0,0.0,780.0,11.0,0.0
28592,61.0,26.0,780.0,4.0,0.0
28593,49.0,0.0,780.0,13.0,0.0
28594,85.0,0.0,780.0,8.0,0.0
28595,49.0,60.0,60.0,6.0,0.0
28596,73.0,131.0,810.0,4.0,0.0
28597,85.0,13.0,780.0,0.0,0.0
28598,61.0,0.0,780.0,3.0,0.0
28599,49.0,60.0,60.0,6.0,0.0
28600,49.0,60.0,60.0,6.0,0.0
28601,49.0,60.0,60.0,6.0,0.0
28602,49.0,60.0,60.0,6.0,0.0
28603,49.0,60.0,60.0,6.0,0.0
28604,49.0,60.0,60.0,6.0,0.0
28605,49.0,60.0,60.0,6.0,0.0
28606,49.0,60.0,60.0,6.0,0.0
28607,49.0,60.0,60.0,6.0,0.0
28608,49.0,60.0,60.0,6.0,0.0
28609,49.0,60.0,60.0,6.0,0.0
28610,49.0,10.0,60.0,6.0,0.0
28611,81.0,0.0,60.0,2.0,0.0
28612,57.0,0.0,60.0,12.0,0.0
28613,66.0,0.0,60.0,4.0,0.0
28614,45.0,0.0,60.0,13.0,0.0
28615,57.0,0.0,60.0,3.0,0.0
28616,54.0,0.0,60.0,4.0,0.0
28617,81.0,0.0,60.0,8.0,0.0
28618,78.0,0.0,60.0,5.0,0.0
28619,81.0,348.0,60.0,0.0,0.0
28620,66.0,0.0,60.0,5.0,0.0
28621,81.0,0.0,60.0,1.0,0.0
28622,57.0,0.0,60.0,4.0,0.0
28623,69.0,0.0,60.0,4.0,0.0
28624,54.0,0.0,60.0,6.0,0.0
28625,69.0,0.0,60.0,11.0,0.0
28626,78.0,0.0,330.0,5.0,0.0
28627,90.0,0.0,330.0,0.0,0.0
28628,54.0,0.0,330.0,3.0,0.0
28629,66.0,0.0,330.0,5.0,0.0
28630,66.0,110.0,330.0,11.0,0.0
28631,54.0,0.0,330.0,6.0,0.0
28632,78.0,0.0,330.0,2.0,0.0
28633,78.0,0.0,330.0,8.0,0.0
28634,54.0,0.0,330.0,4.0,0.0
28635,42.0,0.0,330.0,13.0,0.0
28636,54.0,0.0,330.0,12.0,0.0
28637,78.0,0.0,330.0,1.0,0.0
28638,66.0,0.0,330.0,4.0,0.0
28639,54.0,0.0,60.0,4.0,0.0
28640,49.0,0.0,60.0,3.0,0.0
28641,66.0,0.0,60.0,5.0,0.0
28642,78.0,0.0,60.0,5.0,0.0
28643,73.0,0.0,60.0,1.0,0.0
28644,66.0,0.0,60.0,4.0,0.0
28645,85.0,0.0,60.0,1.0,0.0
28646,85.0,0.0,60.0,2.0,0.0
28647,73.0,0.0,60.0,2.0,0.0
28648,54.0,0.0,60.0,6.0,0.0
28649,61.0,0.0,60.0,11.0,0.0
28650,37.0,0.0,60.0,13.0,0.0
28651,49.0,0.0,60.0,12.0,0.0
28652,73.0,0.0,60.0,8.0,0.0
28653,49.0,0.0,60.0,4.0,0.0
28654,61.0,22.0,30.0,4.0,0.0
28655,85.0,300.0,60.0,0.0,0.0
28656,81.0,0.0,300.0,2.0,0.0
28657,33.0,0.0,300.0,13.0,0.0
28658,45.0,0.0,300.0,3.0,0.0
28659,69.0,0.0,300.0,2.0,0.0
28660,57.0,120.0,300.0,11.0,0.0
28661,45.0,0.0,300.0,12.0,0.0
28662,69.0,0.0,300.0,1.0,0.0
28663,69.0,0.0,300.0,8.0,0.0
28664,81.0,0.0,300.0,1.0,0.0
28665,66.0,0.0,300.0,5.0,0.0
28666,78.0,0.0,300.0,5.0,0.0
28667,81.0,0.0,300.0,0.0,0.0
28668,54.0,0.0,300.0,4.0,0.0
28669,69.0,0.0,300.0,4.0,0.0
28670,57.0,0.0,300.0,4.0,0.0
28671,54.0,0.0,300.0,6.0,0.0
28672,66.0,0.0,300.0,4.0,0.0
28673,66.0,0.0,60.0,4.0,0.0
28674,85.0,0.0,60.0,0.0,0.0
28675,61.0,0.0,60.0,11.0,0.0
28676,54.0,0.0,60.0,4.0,0.0
28677,54.0,60.0,60.0,6.0,0.0
28678,37.0,0.0,60.0,13.0,0.0
28679,73.0,0.0,60.0,8.0,0.0
28680,49.0,0.0,60.0,12.0,0.0
28681,85.0,0.0,60.0,1.0,0.0
28682,73.0,0.0,60.0,1.0,0.0
28683,66.0,0.0,60.0,5.0,0.0
28684,78.0,0.0,60.0,5.0,0.0
28685,85.0,0.0,60.0,2.0,0.0
28686,73.0,0.0,60.0,2.0,0.0
28687,49.0,0.0,60.0,3.0,0.0
28688,69.0,0.0,60.0,2.0,0.0
28689,45.0,0.0,60.0,3.0,0.0
28690,81.0,0.0,60.0,0.0,0.0
28691,57.0,0.0,60.0,4.0,0.0
28692,69.0,0.0,60.0,8.0,0.0
28693,69.0,0.0,60.0,1.0,0.0
28694,81.0,132.0,60.0,1.0,0.0
28695,81.0,0.0,60.0,2.0,0.0
28696,54.0,0.0,60.0,4.0,0.0
28697,66.0,0.0,60.0,5.0,0.0
28698,66.0,0.0,60.0,4.0,0.0
28699,33.0,0.0,60.0,13.0,0.0
28700,57.0,0.0,60.0,11.0,0.0
28701,45.0,0.0,60.0,12.0,0.0
28702,69.0,0.0,60.0,4.0,0.0
28703,54.0,0.0,60.0,6.0,0.0
28704,78.0,0.0,60.0,5.0,0.0
28705,42.0,0.0,120.0,12.0,0.0
28706,78.0,0.0,120.0,5.0,0.0
28707,54.0,0.0,120.0,11.0,0.0
28708,66.0,0.0,120.0,5.0,0.0
28709,78.0,288.0,120.0,2.0,0.0
28710,54.0,0.0,120.0,6.0,0.0
28711,66.0,0.0,120.0,8.0,0.0
28712,78.0,0.0,120.0,8.0,0.0
28713,30.0,0.0,120.0,13.0,0.0
28714,42.0,0.0,120.0,3.0,0.0
28715,66.0,0.0,120.0,4.0,0.0
28716,54.0,0.0,120.0,4.0,0.0
28717,66.0,0.0,120.0,1.0,0.0
28718,66.0,0.0,120.0,2.0,0.0
28719,78.0,0.0,120.0,0.0,0.0
28720,54.0,0.0,60.0,6.0,0.0
28721,73.0,0.0,60.0,8.0,0.0
28722,85.0,0.0,60.0,1.0,0.0
28723,85.0,60.0,60.0,0.0,0.0
28724,73.0,0.0,60.0,2.0,0.0
28725,49.0,0.0,60.0,3.0,0.0
28726,85.0,0.0,60.0,2.0,0.0
28727,61.0,0.0,60.0,11.0,0.0
28728,73.0,0.0,60.0,1.0,0.0
28729,37.0,0.0,60.0,13.0,0.0
28730,49.0,0.0,60.0,12.0,0.0
28731,66.0,0.0,60.0,5.0,0.0
28732,78.0,0.0,60.0,5.0,0.0
28733,81.0,0.0,60.0,0.0,0.0
28734,69.0,0.0,60.0,8.0,0.0
28735,81.0,0.0,60.0,1.0,0.0
28736,69.0,0.0,60.0,1.0,0.0
28737,45.0,0.0,60.0,3.0,0.0
28738,33.0,0.0,60.0,13.0,0.0
28739,57.0,0.0,60.0,11.0,0.0
28740,78.0,0.0,60.0,5.0,0.0
28741,54.0,0.0,60.0,6.0,0.0
28742,66.0,0.0,60.0,5.0,0.0
28743,66.0,0.0,60.0,4.0,0.0
28744,81.0,0.0,60.0,2.0,0.0
28745,69.0,0.0,60.0,2.0,0.0
28746,54.0,0.0,60.0,4.0,0.0
28747,45.0,132.0,60.0,12.0,0.0
28748,54.0,0.0,120.0,11.0,0.0
28749,66.0,0.0,120.0,8.0,0.0
28750,54.0,0.0,120.0,4.0,0.0
28751,66.0,0.0,120.0,4.0,0.0
28752,66.0,0.0,120.0,1.0,0.0
28753,66.0,0.0,120.0,5.0,0.0
28754,78.0,0.0,120.0,5.0,0.0
28755,30.0,0.0,120.0,13.0,0.0
28756,78.0,0.0,120.0,0.0,0.0
28757,54.0,0.0,120.0,6.0,0.0
28758,78.0,288.0,120.0,2.0,0.0
28759,66.0,0.0,120.0,2.0,0.0
28760,42.0,0.0,120.0,12.0,0.0
28761,42.0,0.0,120.0,3.0,0.0
28762,90.0,0.0,60.0,2.0,0.0
28763,78.0,0.0,60.0,2.0,0.0
28764,90.0,0.0,60.0,1.0,0.0
28765,66.0,60.0,60.0,11.0,0.0
28766,54.0,0.0,60.0,12.0,0.0
28767,42.0,0.0,60.0,13.0,0.0
28768,54.0,0.0,60.0,3.0,0.0
28769,90.0,0.0,60.0,0.0,0.0
28770,78.0,0.0,60.0,1.0,0.0
28771,54.0,0.0,60.0,6.0,0.0
28772,78.0,0.0,60.0,5.0,0.0
28773,66.0,0.0,60.0,5.0,0.0
28774,78.0,0.0,60.0,8.0,0.0
28775,49.0,0.0,60.0,3.0,0.0
28776,54.0,0.0,60.0,6.0,0.0
28777,49.0,0.0,60.0,12.0,0.0
28778,85.0,0.0,60.0,0.0,0.0
28779,73.0,0.0,60.0,8.0,0.0
28780,85.0,132.0,60.0,2.0,0.0
28781,73.0,0.0,60.0,2.0,0.0
28782,66.0,0.0,60.0,5.0,0.0
28783,37.0,0.0,60.0,13.0,0.0
28784,78.0,0.0,60.0,5.0,0.0
28785,61.0,0.0,60.0,11.0,0.0
28786,66.0,0.0,60.0,4.0,0.0
28787,73.0,0.0,60.0,1.0,0.0
28788,54.0,0.0,60.0,4.0,0.0
28789,85.0,0.0,60.0,1.0,0.0
28790,69.0,0.0,120.0,8.0,0.0
28791,57.0,0.0,120.0,10.0,0.0
28792,54.0,0.0,120.0,6.0,0.0
28793,81.0,0.0,120.0,0.0,0.0
28794,69.0,0.0,120.0,1.0,0.0
28795,66.0,288.0,120.0,5.0,0.0
28796,69.0,0.0,120.0,2.0,0.0
28797,54.0,0.0,120.0,4.0,0.0
28798,33.0,0.0,120.0,13.0,0.0
28799,81.0,0.0,120.0,2.0,0.0
28800,45.0,0.0,120.0,12.0,0.0
28801,45.0,0.0,120.0,3.0,0.0
28802,78.0,0.0,120.0,5.0,0.0
28803,66.0,0.0,120.0,4.0,0.0
28804,66.0,0.0,60.0,5.0,0.0
28805,81.0,52.0,60.0,2.0,0.0
28806,81.0,0.0,60.0,1.0,0.0
28807,69.0,0.0,60.0,1.0,0.0
28808,69.0,0.0,60.0,2.0,0.0
28809,93.0,0.0,60.0,0.0,0.0
28810,45.0,0.0,60.0,13.0,0.0
28811,78.0,0.0,60.0,5.0,0.0
28812,57.0,0.0,60.0,3.0,0.0
28813,69.0,0.0,60.0,10.0,0.0
28814,81.0,0.0,60.0,8.0,0.0
28815,54.0,0.0,60.0,6.0,0.0
28816,57.0,0.0,60.0,12.0,0.0
28817,78.0,0.0,60.0,2.0,0.0
28818,78.0,0.0,60.0,8.0,0.0
28819,78.0,132.0,60.0,1.0,0.0
28820,66.0,0.0,60.0,10.0,0.0
28821,66.0,0.0,60.0,5.0,0.0
28822,78.0,0.0,60.0,5.0,0.0
28823,66.0,0.0,60.0,1.0,0.0
28824,90.0,0.0,60.0,0.0,0.0
28825,54.0,0.0,60.0,12.0,0.0
28826,54.0,0.0,30.0,4.0,0.0
28827,42.0,0.0,60.0,13.0,0.0
28828,54.0,0.0,60.0,3.0,0.0
28829,54.0,0.0,60.0,6.0,0.0
28830,66.0,0.0,60.0,2.0,0.0
28831,66.0,8.0,30.0,4.0,0.0
28832,78.0,0.0,120.0,5.0,0.0
28833,85.0,0.0,120.0,0.0,0.0
28834,49.0,0.0,120.0,12.0,0.0
28835,61.0,0.0,120.0,2.0,0.0
28836,61.0,0.0,120.0,10.0,0.0
28837,54.0,288.0,120.0,6.0,0.0
28838,73.0,0.0,120.0,2.0,0.0
28839,73.0,0.0,120.0,1.0,0.0
28840,66.0,0.0,120.0,5.0,0.0
28841,73.0,0.0,120.0,8.0,0.0
28842,37.0,0.0,120.0,13.0,0.0
28843,49.0,0.0,120.0,3.0,0.0
28844,54.0,0.0,120.0,4.0,0.0
28845,66.0,0.0,120.0,4.0,0.0
28846,85.0,0.0,60.0,8.0,0.0
28847,73.0,0.0,60.0,1.0,0.0
28848,85.0,0.0,60.0,1.0,0.0
28849,49.0,0.0,60.0,13.0,0.0
28850,61.0,0.0,60.0,3.0,0.0
28851,85.0,0.0,60.0,2.0,0.0
28852,73.0,0.0,60.0,2.0,0.0
28853,61.0,0.0,60.0,12.0,0.0
28854,54.0,0.0,60.0,6.0,0.0
28855,73.0,0.0,60.0,10.0,0.0
28856,66.0,0.0,60.0,5.0,0.0
28857,78.0,52.0,60.0,5.0,0.0
28858,97.0,0.0,60.0,0.0,0.0
28859,93.0,0.0,60.0,0.0,0.0
28860,81.0,0.0,60.0,8.0,0.0
28861,81.0,0.0,60.0,2.0,0.0
28862,69.0,0.0,60.0,2.0,0.0
28863,81.0,0.0,60.0,1.0,0.0
28864,69.0,0.0,60.0,1.0,0.0
28865,45.0,0.0,60.0,13.0,0.0
28866,66.0,0.0,60.0,5.0,0.0
28867,78.0,0.0,60.0,5.0,0.0
28868,57.0,0.0,60.0,3.0,0.0
28869,69.0,0.0,60.0,10.0,0.0
28870,54.0,8.0,30.0,4.0,0.0
28871,66.0,0.0,30.0,4.0,0.0
28872,57.0,492.0,60.0,12.0,0.0
28873,54.0,0.0,60.0,6.0,0.0
28874,42.0,0.0,480.0,13.0,0.0
28875,54.0,0.0,480.0,6.0,0.0
28876,54.0,0.0,480.0,3.0,0.0
28877,66.0,0.0,480.0,10.0,0.0
28878,54.0,0.0,480.0,10.0,0.0
28879,90.0,0.0,480.0,0.0,0.0
28880,42.0,0.0,480.0,12.0,0.0
28881,54.0,0.0,480.0,12.0,0.0
28882,66.0,0.0,480.0,2.0,0.0
28883,78.0,0.0,480.0,2.0,0.0
28884,30.0,0.0,480.0,13.0,0.0
28885,66.0,0.0,480.0,8.0,0.0
28886,66.0,0.0,480.0,5.0,0.0
28887,78.0,0.0,480.0,5.0,0.0
28888,66.0,0.0,480.0,1.0,0.0
28889,54.0,0.0,480.0,4.0,0.0
28890,66.0,0.0,480.0,4.0,0.0
28891,78.0,120.0,480.0,8.0,0.0
28892,78.0,0.0,60.0,8.0,0.0
28893,42.0,0.0,60.0,13.0,0.0
28894,54.0,0.0,60.0,12.0,0.0
28895,66.0,0.0,60.0,2.0,0.0
28896,66.0,60.0,60.0,1.0,0.0
28897,54.0,0.0,60.0,3.0,0.0
28898,66.0,0.0,60.0,0.0,0.0
28899,66.0,0.0,60.0,10.0,0.0
28900,80.0,60.0,60.0,8.0,0.0
28901,68.0,0.0,60.0,10.0,0.0
28902,56.0,0.0,60.0,12.0,0.0
28903,44.0,0.0,60.0,13.0,0.0
28904,68.0,0.0,60.0,0.0,0.0
28905,68.0,0.0,60.0,1.0,0.0
28906,56.0,0.0,60.0,3.0,0.0
28907,68.0,0.0,60.0,2.0,0.0
28908,69.0,0.0,60.0,0.0,0.0
28909,69.0,0.0,60.0,10.0,0.0
28910,69.0,0.0,60.0,1.0,0.0
28911,57.0,0.0,60.0,12.0,0.0
28912,45.0,0.0,60.0,13.0,0.0
28913,57.0,0.0,60.0,3.0,0.0
28914,69.0,0.0,60.0,2.0,0.0
28915,81.0,60.0,60.0,8.0,0.0
28916,71.0,0.0,60.0,0.0,0.0
28917,47.0,0.0,60.0,13.0,0.0
28918,59.0,0.0,60.0,12.0,0.0
28919,71.0,0.0,60.0,2.0,0.0
28920,59.0,0.0,60.0,3.0,0.0
28921,71.0,36.0,60.0,1.0,0.0
28922,78.0,0.0,60.0,5.0,0.0
28923,83.0,0.0,60.0,8.0,0.0
28924,66.0,0.0,60.0,5.0,0.0
28925,71.0,0.0,60.0,10.0,0.0
28926,54.0,24.0,90.0,6.0,0.0
28927,73.0,0.0,60.0,10.0,0.0
28928,73.0,60.0,60.0,2.0,0.0
28929,61.0,0.0,60.0,12.0,0.0
28930,73.0,0.0,60.0,0.0,0.0
28931,85.0,0.0,60.0,8.0,0.0
28932,61.0,0.0,60.0,3.0,0.0
28933,73.0,0.0,60.0,1.0,0.0
28934,49.0,0.0,60.0,13.0,0.0
28935,51.0,0.0,60.0,13.0,0.0
28936,78.0,0.0,60.0,5.0,0.0
28937,66.0,0.0,60.0,5.0,0.0
28938,87.0,0.0,60.0,8.0,0.0
28939,75.0,0.0,60.0,1.0,0.0
28940,75.0,36.0,60.0,2.0,0.0
28941,54.0,24.0,90.0,6.0,0.0
28942,75.0,0.0,60.0,0.0,0.0
28943,63.0,0.0,60.0,12.0,0.0
28944,75.0,0.0,60.0,10.0,0.0
28945,63.0,0.0,60.0,3.0,0.0
28946,77.0,0.0,60.0,10.0,0.0
28947,77.0,0.0,60.0,2.0,0.0
28948,65.0,0.0,60.0,3.0,0.0
28949,65.0,0.0,60.0,12.0,0.0
28950,89.0,480.0,60.0,8.0,0.0
28951,77.0,0.0,60.0,0.0,0.0
28952,53.0,0.0,60.0,13.0,0.0
28953,77.0,0.0,60.0,1.0,0.0
28954,66.0,0.0,480.0,3.0,0.0
28955,54.0,0.0,480.0,3.0,0.0
28956,66.0,0.0,480.0,1.0,0.0
28957,66.0,0.0,480.0,0.0,0.0
28958,78.0,0.0,480.0,0.0,0.0
28959,54.0,0.0,480.0,6.0,0.0
28960,78.0,0.0,480.0,10.0,0.0
28961,66.0,0.0,480.0,10.0,0.0
28962,78.0,0.0,480.0,2.0,0.0
28963,54.0,0.0,480.0,12.0,0.0
28964,78.0,0.0,480.0,1.0,0.0
28965,66.0,0.0,480.0,5.0,0.0
28966,78.0,0.0,480.0,5.0,0.0
28967,66.0,0.0,480.0,4.0,0.0
28968,66.0,0.0,480.0,2.0,0.0
28969,66.0,0.0,480.0,12.0,0.0
28970,54.0,0.0,480.0,4.0,0.0
28971,42.0,0.0,480.0,13.0,0.0
28972,54.0,0.0,480.0,13.0,0.0
28973,90.0,0.0,480.0,8.0,0.0
28974,78.0,120.0,480.0,8.0,0.0
28975,42.0,0.0,60.0,12.0,0.0
28976,54.0,0.0,60.0,3.0,0.0
28977,66.0,0.0,60.0,2.0,0.0
28978,66.0,0.0,60.0,8.0,0.0
28979,54.0,60.0,60.0,10.0,0.0
28980,78.0,0.0,60.0,1.0,0.0
28981,78.0,0.0,60.0,0.0,0.0
28982,30.0,0.0,60.0,13.0,0.0
28983,68.0,0.0,60.0,8.0,0.0
28984,68.0,0.0,60.0,2.0,0.0
28985,56.0,0.0,60.0,3.0,0.0
28986,44.0,0.0,60.0,12.0,0.0
28987,80.0,60.0,60.0,0.0,0.0
28988,32.0,0.0,60.0,13.0,0.0
28989,80.0,0.0,60.0,1.0,0.0
28990,56.0,0.0,60.0,10.0,0.0
28991,57.0,0.0,60.0,3.0,0.0
28992,81.0,0.0,60.0,0.0,0.0
28993,69.0,0.0,60.0,2.0,0.0
28994,69.0,0.0,60.0,8.0,0.0
28995,81.0,0.0,60.0,1.0,0.0
28996,57.0,0.0,60.0,10.0,0.0
28997,33.0,0.0,60.0,13.0,0.0
28998,45.0,60.0,60.0,12.0,0.0
28999,59.0,0.0,60.0,10.0,0.0
29000,71.0,0.0,60.0,2.0,0.0
29001,78.0,0.0,60.0,5.0,0.0
29002,83.0,0.0,60.0,0.0,0.0
29003,83.0,0.0,60.0,1.0,0.0
29004,54.0,24.0,90.0,6.0,0.0
29005,66.0,0.0,60.0,5.0,0.0
29006,35.0,0.0,60.0,13.0,0.0
29007,71.0,36.0,60.0,8.0,0.0
29008,47.0,0.0,60.0,12.0,0.0
29009,59.0,0.0,60.0,3.0,0.0
29010,85.0,0.0,60.0,1.0,0.0
29011,73.0,0.0,60.0,2.0,0.0
29012,61.0,0.0,60.0,10.0,0.0
29013,85.0,0.0,60.0,0.0,0.0
29014,49.0,0.0,60.0,12.0,0.0
29015,37.0,60.0,60.0,13.0,0.0
29016,73.0,0.0,60.0,8.0,0.0
29017,61.0,0.0,60.0,3.0,0.0
29018,75.0,0.0,60.0,8.0,0.0
29019,87.0,0.0,60.0,1.0,0.0
29020,54.0,24.0,90.0,6.0,0.0
29021,78.0,0.0,60.0,5.0,0.0
29022,63.0,0.0,60.0,10.0,0.0
29023,39.0,0.0,60.0,13.0,0.0
29024,87.0,0.0,60.0,0.0,0.0
29025,75.0,0.0,60.0,2.0,0.0
29026,66.0,0.0,60.0,5.0,0.0
29027,63.0,36.0,60.0,3.0,0.0
29028,51.0,0.0,60.0,12.0,0.0
29029,53.0,0.0,60.0,12.0,0.0
29030,89.0,0.0,60.0,1.0,0.0
29031,41.0,0.0,60.0,13.0,0.0
29032,89.0,0.0,60.0,0.0,0.0
29033,77.0,0.0,60.0,2.0,0.0
29034,65.0,390.0,60.0,10.0,0.0
29035,65.0,0.0,60.0,3.0,0.0
29036,77.0,0.0,60.0,8.0,0.0
29037,66.0,42.0,540.0,5.0,0.0
29038,54.0,0.0,450.0,6.0,0.0
29039,78.0,0.0,540.0,5.0,0.0
29040,66.0,0.0,570.0,1.0,0.0
29041,30.0,18.0,570.0,13.0,0.0
29042,78.0,0.0,570.0,0.0,0.0
29043,42.0,0.0,570.0,3.0,0.0
29044,78.0,0.0,450.0,2.0,0.0
29045,66.0,60.0,390.0,4.0,0.0
29046,54.0,84.0,450.0,4.0,0.0
29047,42.0,0.0,570.0,12.0,0.0
29048,78.0,0.0,450.0,8.0,0.0
29049,66.0,0.0,570.0,8.0,0.0
29050,54.0,0.0,570.0,11.0,0.0
29051,66.0,0.0,570.0,2.0,0.0
29052,45.0,0.0,60.0,13.0,0.0
29053,81.0,0.0,60.0,8.0,0.0
29054,57.0,0.0,60.0,3.0,0.0
29055,57.0,0.0,60.0,12.0,0.0
29056,69.0,0.0,60.0,1.0,0.0
29057,93.0,0.0,60.0,0.0,0.0
29058,69.0,0.0,60.0,11.0,0.0
29059,81.0,0.0,60.0,1.0,0.0
29060,81.0,120.0,60.0,2.0,0.0
29061,69.0,0.0,60.0,2.0,0.0
29062,69.0,0.0,60.0,4.0,0.0
29063,69.0,0.0,60.0,8.0,0.0
29064,68.0,120.0,60.0,1.0,0.0
29065,68.0,0.0,60.0,4.0,0.0
29066,56.0,0.0,60.0,3.0,0.0
29067,68.0,0.0,60.0,2.0,0.0
29068,44.0,0.0,60.0,13.0,0.0
29069,68.0,0.0,60.0,11.0,0.0
29070,56.0,0.0,60.0,12.0,0.0
29071,80.0,0.0,60.0,8.0,0.0
29072,68.0,0.0,60.0,8.0,0.0
29073,80.0,0.0,60.0,2.0,0.0
29074,80.0,0.0,60.0,1.0,0.0
29075,92.0,0.0,60.0,0.0,0.0
29076,54.0,120.0,60.0,12.0,0.0
29077,78.0,0.0,60.0,8.0,0.0
29078,78.0,0.0,60.0,1.0,0.0
29079,66.0,0.0,60.0,11.0,0.0
29080,66.0,0.0,60.0,4.0,0.0
29081,54.0,0.0,60.0,3.0,0.0
29082,66.0,0.0,60.0,1.0,0.0
29083,66.0,0.0,60.0,8.0,0.0
29084,78.0,0.0,60.0,2.0,0.0
29085,66.0,0.0,60.0,2.0,0.0
29086,90.0,0.0,60.0,0.0,0.0
29087,42.0,0.0,60.0,13.0,0.0
29088,73.0,36.0,60.0,4.0,0.0
29089,73.0,0.0,90.0,2.0,0.0
29090,97.0,234.0,90.0,0.0,0.0
29091,61.0,0.0,90.0,12.0,0.0
29092,61.0,0.0,90.0,3.0,0.0
29093,49.0,0.0,90.0,3.0,0.0
29094,85.0,0.0,90.0,1.0,0.0
29095,73.0,0.0,90.0,1.0,0.0
29096,49.0,0.0,90.0,13.0,0.0
29097,73.0,0.0,90.0,11.0,0.0
29098,73.0,0.0,90.0,8.0,0.0
29099,85.0,0.0,90.0,8.0,0.0
29100,85.0,0.0,90.0,2.0,0.0
29101,71.0,0.0,90.0,11.0,0.0
29102,83.0,0.0,90.0,8.0,0.0
29103,71.0,0.0,90.0,8.0,0.0
29104,47.0,0.0,90.0,13.0,0.0
29105,59.0,0.0,90.0,3.0,0.0
29106,71.0,6.0,90.0,4.0,0.0
29107,83.0,0.0,90.0,2.0,0.0
29108,71.0,0.0,90.0,2.0,0.0
29109,83.0,0.0,90.0,1.0,0.0
29110,95.0,234.0,90.0,0.0,0.0
29111,71.0,0.0,90.0,1.0,0.0
29112,47.0,0.0,90.0,3.0,0.0
29113,59.0,0.0,90.0,12.0,0.0
29114,80.0,0.0,90.0,2.0,0.0
29115,68.0,0.0,90.0,2.0,0.0
29116,56.0,0.0,90.0,12.0,0.0
29117,56.0,0.0,90.0,3.0,0.0
29118,44.0,0.0,90.0,3.0,0.0
29119,80.0,0.0,90.0,8.0,0.0
29120,68.0,164.0,90.0,8.0,0.0
29121,44.0,0.0,90.0,13.0,0.0
29122,68.0,6.0,90.0,4.0,0.0
29123,68.0,0.0,90.0,11.0,0.0
29124,80.0,0.0,90.0,1.0,0.0
29125,68.0,0.0,90.0,1.0,0.0
29126,92.0,0.0,90.0,0.0,0.0
29127,85.0,0.0,90.0,8.0,0.0
29128,85.0,0.0,90.0,1.0,0.0
29129,73.0,0.0,90.0,1.0,0.0
29130,73.0,50.0,20.0,4.0,0.0
29131,73.0,0.0,90.0,8.0,0.0
29132,61.0,0.0,90.0,5.0,0.0
29133,97.0,0.0,90.0,0.0,0.0
29134,73.0,0.0,90.0,5.0,0.0
29135,73.0,0.0,90.0,11.0,0.0
29136,49.0,0.0,90.0,13.0,0.0
29137,37.0,0.0,90.0,13.0,0.0
29138,61.0,0.0,90.0,12.0,0.0
29139,85.0,0.0,90.0,2.0,0.0
29140,49.0,0.0,90.0,3.0,0.0
29141,61.0,0.0,90.0,3.0,0.0
29142,73.0,264.0,90.0,2.0,0.0
29143,49.0,0.0,90.0,6.0,0.0
29144,54.0,0.0,120.0,6.0,0.0
29145,54.0,0.0,120.0,12.0,0.0
29146,78.0,0.0,120.0,5.0,0.0
29147,66.0,0.0,120.0,5.0,0.0
29148,66.0,0.0,120.0,2.0,0.0
29149,78.0,0.0,120.0,2.0,0.0
29150,78.0,0.0,120.0,8.0,0.0
29151,54.0,0.0,120.0,4.0,0.0
29152,66.0,0.0,120.0,4.0,0.0
29153,90.0,0.0,120.0,0.0,0.0
29154,54.0,0.0,120.0,3.0,0.0
29155,66.0,0.0,120.0,1.0,0.0
29156,78.0,0.0,120.0,1.0,0.0
29157,66.0,0.0,120.0,8.0,0.0
29158,30.0,1560.0,120.0,13.0,0.0
29159,42.0,0.0,120.0,13.0,0.0
29160,66.0,0.0,120.0,11.0,0.0
29161,66.0,0.0,120.0,3.0,0.0
