,note,step,duration,channel,velocity
0,67.0,0.0,960.0,0.0,0.0
1,48.0,0.0,240.0,3.0,0.0
2,52.0,240.0,15.0,2.0,0.0
3,55.0,0.0,15.0,2.0,0.0
4,55.0,480.0,240.0,2.0,0.0
5,52.0,0.0,15.0,2.0,0.0
6,48.0,240.0,15.0,3.0,0.0
7,72.0,0.0,960.0,0.0,0.0
8,60.0,0.0,960.0,1.0,0.0
9,48.0,0.0,240.0,3.0,0.0
10,52.0,0.0,240.0,2.0,0.0
11,48.0,240.0,240.0,3.0,0.0
12,55.0,240.0,15.0,2.0,0.0
13,52.0,0.0,240.0,2.0,0.0
14,55.0,0.0,15.0,2.0,0.0
15,52.0,0.0,240.0,2.0,0.0
16,48.0,480.0,240.0,3.0,0.0
17,69.0,0.0,960.0,0.0,0.0
18,53.0,0.0,240.0,2.0,0.0
19,57.0,0.0,240.0,2.0,0.0
20,48.0,240.0,15.0,3.0,0.0
21,57.0,0.0,240.0,2.0,0.0
22,53.0,0.0,15.0,2.0,0.0
23,48.0,240.0,15.0,3.0,0.0
24,57.0,0.0,240.0,2.0,0.0
25,74.0,0.0,960.0,0.0,0.0
26,62.0,0.0,960.0,1.0,0.0
27,57.0,0.0,240.0,2.0,0.0
28,53.0,0.0,240.0,2.0,0.0
29,48.0,240.0,240.0,3.0,0.0
30,53.0,0.0,240.0,2.0,0.0
31,48.0,0.0,240.0,3.0,0.0
32,57.0,240.0,15.0,2.0,0.0
33,53.0,480.0,240.0,2.0,0.0
34,48.0,0.0,240.0,3.0,0.0
35,71.0,0.0,960.0,0.0,0.0
36,59.0,240.0,15.0,2.0,0.0
37,50.0,0.0,15.0,2.0,0.0
38,53.0,0.0,15.0,2.0,0.0
39,48.0,0.0,15.0,3.0,0.0
40,59.0,240.0,15.0,2.0,0.0
41,50.0,0.0,240.0,2.0,0.0
42,53.0,0.0,240.0,2.0,0.0
43,48.0,0.0,15.0,3.0,0.0
44,67.0,0.0,960.0,1.0,0.0
45,53.0,0.0,240.0,2.0,0.0
46,48.0,240.0,240.0,3.0,0.0
47,50.0,0.0,15.0,2.0,0.0
48,59.0,0.0,15.0,2.0,0.0
49,50.0,0.0,15.0,2.0,0.0
50,53.0,240.0,15.0,2.0,0.0
51,48.0,0.0,15.0,3.0,0.0
52,59.0,0.0,240.0,2.0,0.0
53,79.0,720.0,15.0,0.0,0.0
54,60.0,0.0,1440.0,2.0,0.0
55,52.0,0.0,1440.0,2.0,0.0
56,55.0,0.0,1440.0,2.0,0.0
57,48.0,600.0,1440.0,3.0,0.0
58,81.0,120.0,120.0,0.0,0.0
59,83.0,240.0,120.0,0.0,0.0
60,84.0,240.0,240.0,0.0,0.0
61,76.0,120.0,120.0,0.0,0.0
62,72.0,120.0,120.0,0.0,0.0
63,77.0,120.0,120.0,0.0,0.0
64,74.0,120.0,120.0,0.0,0.0
65,79.0,120.0,120.0,0.0,0.0
66,76.0,120.0,120.0,0.0,0.0
67,81.0,120.0,120.0,0.0,0.0
68,77.0,120.0,120.0,0.0,0.0
69,79.0,0.0,360.0,0.0,0.0
70,64.0,120.0,120.0,3.0,0.0
71,60.0,120.0,120.0,3.0,0.0
72,65.0,120.0,120.0,3.0,0.0
73,62.0,120.0,120.0,3.0,0.0
74,67.0,120.0,120.0,3.0,0.0
75,64.0,120.0,120.0,3.0,0.0
76,69.0,120.0,120.0,3.0,0.0
77,65.0,120.0,120.0,3.0,0.0
78,67.0,0.0,360.0,3.0,0.0
79,52.0,120.0,120.0,0.0,0.0
80,48.0,120.0,120.0,0.0,0.0
81,53.0,120.0,120.0,0.0,0.0
82,50.0,120.0,120.0,0.0,0.0
83,55.0,120.0,120.0,0.0,0.0
84,52.0,120.0,120.0,0.0,0.0
85,57.0,120.0,120.0,0.0,0.0
86,53.0,120.0,120.0,0.0,0.0
87,55.0,120.0,360.0,0.0,0.0
88,40.0,120.0,120.0,3.0,0.0
89,36.0,120.0,120.0,3.0,0.0
90,41.0,0.0,120.0,3.0,0.0
91,38.0,120.0,120.0,3.0,0.0
92,43.0,120.0,120.0,3.0,0.0
93,40.0,120.0,120.0,3.0,0.0
94,45.0,120.0,120.0,3.0,0.0
95,42.0,720.0,120.0,3.0,0.0
96,43.0,40.0,1920.0,3.0,0.0
97,55.0,0.0,1680.0,0.0,0.0
98,64.0,240.0,240.0,0.0,0.0
99,52.0,240.0,240.0,3.0,0.0
100,60.0,0.0,240.0,0.0,0.0
101,65.0,240.0,240.0,0.0,0.0
102,47.0,0.0,240.0,3.0,0.0
103,50.0,0.0,240.0,3.0,0.0
104,62.0,240.0,240.0,0.0,0.0
105,53.0,0.0,480.0,3.0,0.0
106,59.0,240.0,240.0,0.0,0.0
107,67.0,0.0,240.0,0.0,0.0
108,43.0,40.0,30.0,3.0,0.0
109,48.0,40.0,30.0,3.0,0.0
110,52.0,180.0,30.0,3.0,0.0
111,55.0,0.0,1800.0,3.0,0.0
112,69.0,60.0,60.0,0.0,0.0
113,67.0,60.0,60.0,0.0,0.0
114,66.0,300.0,60.0,0.0,0.0
115,67.0,58.0,1500.0,0.0,0.0
116,76.0,240.0,240.0,0.0,0.0
117,64.0,0.0,240.0,3.0,0.0
118,72.0,240.0,240.0,0.0,0.0
119,77.0,0.0,240.0,0.0,0.0
120,59.0,240.0,240.0,3.0,0.0
121,74.0,0.0,240.0,0.0,0.0
122,62.0,240.0,240.0,3.0,0.0
123,71.0,240.0,240.0,0.0,0.0
124,65.0,0.0,480.0,3.0,0.0
125,64.0,0.0,480.0,3.0,0.0
126,60.0,240.0,480.0,3.0,0.0
127,67.0,415.0,60.0,1.0,0.0
128,79.0,7.0,15.0,0.0,0.0
129,52.0,240.0,480.0,3.0,0.0
130,77.0,120.0,120.0,0.0,0.0
131,76.0,0.0,120.0,0.0,0.0
132,69.0,0.0,720.0,1.0,0.0
133,74.0,240.0,240.0,0.0,0.0
134,53.0,0.0,480.0,3.0,0.0
135,72.0,240.0,240.0,0.0,0.0
136,54.0,0.0,480.0,3.0,0.0
137,71.0,240.0,240.0,0.0,0.0
138,69.0,960.0,240.0,0.0,0.0
139,55.0,0.0,960.0,3.0,0.0
140,60.0,480.0,1440.0,1.0,0.0
141,63.0,480.0,480.0,1.0,0.0
142,54.0,0.0,480.0,2.0,0.0
143,43.0,480.0,960.0,3.0,0.0
144,62.0,0.0,960.0,1.0,0.0
145,53.0,0.0,480.0,2.0,0.0
146,59.0,0.0,480.0,1.0,0.0
147,67.0,0.0,15.0,0.0,0.0
148,52.0,240.0,480.0,2.0,0.0
149,60.0,0.0,960.0,1.0,0.0
150,55.0,0.0,960.0,1.0,0.0
151,48.0,0.0,480.0,3.0,0.0
152,40.0,0.0,480.0,3.0,0.0
153,65.0,120.0,120.0,0.0,0.0
154,64.0,240.0,120.0,0.0,0.0
155,62.0,240.0,240.0,0.0,0.0
156,57.0,0.0,720.0,1.0,0.0
157,41.0,240.0,480.0,3.0,0.0
158,60.0,0.0,240.0,0.0,0.0
159,59.0,240.0,240.0,0.0,0.0
160,42.0,0.0,480.0,3.0,0.0
161,57.0,480.0,240.0,0.0,0.0
162,48.0,0.0,1440.0,1.0,0.0
163,52.0,480.0,480.0,1.0,0.0
164,43.0,0.0,960.0,3.0,0.0
165,55.0,0.0,1920.0,0.0,0.0
166,51.0,480.0,480.0,1.0,0.0
167,31.0,0.0,960.0,3.0,0.0
168,42.0,480.0,480.0,2.0,0.0
169,50.0,480.0,960.0,1.0,0.0
170,41.0,0.0,480.0,2.0,0.0
171,47.0,0.0,480.0,1.0,0.0
172,55.0,480.0,960.0,0.0,0.0
173,36.0,0.0,240.0,3.0,0.0
174,40.0,240.0,15.0,2.0,0.0
175,36.0,240.0,240.0,3.0,0.0
176,40.0,0.0,15.0,2.0,0.0
177,36.0,0.0,240.0,3.0,0.0
178,60.0,0.0,960.0,0.0,0.0
179,48.0,0.0,960.0,1.0,0.0
180,40.0,0.0,15.0,2.0,0.0
181,36.0,240.0,15.0,3.0,0.0
182,40.0,0.0,15.0,2.0,0.0
183,36.0,480.0,240.0,3.0,0.0
184,57.0,0.0,960.0,0.0,0.0
185,41.0,0.0,240.0,2.0,0.0
186,36.0,240.0,240.0,3.0,0.0
187,41.0,240.0,240.0,2.0,0.0
188,36.0,0.0,15.0,3.0,0.0
189,41.0,0.0,240.0,2.0,0.0
190,50.0,0.0,960.0,1.0,0.0
191,62.0,0.0,960.0,0.0,0.0
192,42.0,240.0,240.0,2.0,0.0
193,36.0,0.0,15.0,3.0,0.0
194,42.0,240.0,240.0,2.0,0.0
195,36.0,480.0,240.0,3.0,0.0
196,42.0,0.0,240.0,2.0,0.0
197,64.0,240.0,720.0,0.0,0.0
198,52.0,0.0,720.0,1.0,0.0
199,43.0,240.0,240.0,2.0,0.0
200,36.0,0.0,240.0,3.0,0.0
201,36.0,0.0,240.0,3.0,0.0
202,43.0,0.0,240.0,2.0,0.0
203,36.0,480.0,240.0,3.0,0.0
204,43.0,0.0,240.0,2.0,0.0
205,53.0,0.0,720.0,1.0,0.0
206,65.0,0.0,720.0,0.0,0.0
207,44.0,240.0,240.0,2.0,0.0
208,36.0,0.0,15.0,3.0,0.0
209,36.0,0.0,15.0,3.0,0.0
210,44.0,240.0,15.0,2.0,0.0
211,66.0,0.0,720.0,0.0,0.0
212,54.0,240.0,720.0,1.0,0.0
213,36.0,240.0,15.0,3.0,0.0
214,45.0,0.0,15.0,2.0,0.0
215,36.0,0.0,15.0,3.0,0.0
216,45.0,0.0,15.0,2.0,0.0
217,46.0,240.0,960.0,2.0,0.0
218,67.0,0.0,960.0,0.0,0.0
219,55.0,0.0,960.0,1.0,0.0
220,37.0,240.0,240.0,3.0,0.0
221,37.0,240.0,240.0,3.0,0.0
222,37.0,240.0,240.0,3.0,0.0
223,37.0,0.0,240.0,3.0,0.0
224,66.0,0.0,480.0,0.0,0.0
225,38.0,240.0,240.0,3.0,0.0
226,54.0,240.0,960.0,1.0,0.0
227,45.0,0.0,960.0,2.0,0.0
228,38.0,240.0,15.0,3.0,0.0
229,62.0,0.0,480.0,0.0,0.0
230,38.0,0.0,240.0,3.0,0.0
231,70.0,0.0,960.0,0.0,0.0
232,61.0,0.0,720.0,1.0,0.0
233,43.0,0.0,960.0,2.0,0.0
234,52.0,0.0,960.0,2.0,0.0
235,38.0,240.0,15.0,3.0,0.0
236,38.0,240.0,15.0,3.0,0.0
237,62.0,120.0,120.0,1.0,0.0
238,64.0,240.0,120.0,1.0,0.0
239,50.0,240.0,960.0,2.0,0.0
240,42.0,0.0,960.0,2.0,0.0
241,38.0,0.0,15.0,3.0,0.0
242,69.0,240.0,480.0,0.0,0.0
243,57.0,0.0,960.0,1.0,0.0
244,38.0,240.0,15.0,3.0,0.0
245,38.0,0.0,15.0,3.0,0.0
246,66.0,0.0,480.0,0.0,0.0
247,38.0,240.0,15.0,3.0,0.0
248,55.0,0.0,960.0,1.0,0.0
249,61.0,0.0,960.0,1.0,0.0
250,52.0,0.0,960.0,2.0,0.0
251,46.0,0.0,960.0,2.0,0.0
252,38.0,240.0,240.0,3.0,0.0
253,67.0,240.0,960.0,0.0,0.0
254,38.0,240.0,240.0,3.0,0.0
255,38.0,240.0,240.0,3.0,0.0
256,38.0,0.0,240.0,3.0,0.0
257,50.0,240.0,960.0,2.0,0.0
258,45.0,0.0,960.0,2.0,0.0
259,54.0,0.0,960.0,1.0,0.0
260,38.0,240.0,240.0,3.0,0.0
261,66.0,0.0,480.0,0.0,0.0
262,62.0,0.0,480.0,0.0,0.0
263,38.0,240.0,15.0,3.0,0.0
264,38.0,240.0,15.0,3.0,0.0
265,38.0,0.0,15.0,3.0,0.0
266,70.0,240.0,960.0,0.0,0.0
267,52.0,0.0,960.0,2.0,0.0
268,43.0,0.0,960.0,2.0,0.0
269,61.0,0.0,720.0,1.0,0.0
270,38.0,240.0,15.0,3.0,0.0
271,38.0,120.0,15.0,3.0,0.0
272,62.0,120.0,120.0,1.0,0.0
273,64.0,0.0,120.0,1.0,0.0
274,42.0,0.0,960.0,2.0,0.0
275,50.0,0.0,960.0,2.0,0.0
276,57.0,0.0,960.0,1.0,0.0
277,69.0,0.0,480.0,0.0,0.0
278,38.0,240.0,15.0,3.0,0.0
279,38.0,240.0,240.0,3.0,0.0
280,66.0,240.0,480.0,0.0,0.0
281,38.0,0.0,240.0,3.0,0.0
282,67.0,120.0,720.0,1.0,0.0
283,64.0,288.0,960.0,1.0,0.0
284,52.0,0.0,960.0,2.0,0.0
285,46.0,0.0,960.0,2.0,0.0
286,43.0,0.0,960.0,2.0,0.0
287,73.0,0.0,960.0,0.0,0.0
288,38.0,240.0,15.0,3.0,0.0
289,38.0,240.0,15.0,3.0,0.0
290,38.0,0.0,15.0,3.0,0.0
291,69.0,120.0,120.0,1.0,0.0
292,70.0,0.0,120.0,1.0,0.0
293,74.0,0.0,300.0,0.0,0.0
294,69.0,960.0,300.0,1.0,0.0
295,38.0,0.0,15.0,3.0,0.0
296,50.0,0.0,300.0,2.0,0.0
297,45.0,0.0,300.0,2.0,0.0
298,42.0,0.0,300.0,2.0,0.0
299,66.0,0.0,300.0,1.0,0.0
300,38.0,960.0,300.0,3.0,0.0
301,54.0,0.0,300.0,1.0,0.0
302,50.0,0.0,300.0,2.0,0.0
303,62.0,0.0,300.0,0.0,0.0
304,57.0,0.0,300.0,1.0,0.0
305,42.0,0.0,300.0,1.0,0.0
306,45.0,0.0,300.0,1.0,0.0
307,50.0,912.0,300.0,0.0,0.0
308,38.0,0.0,300.0,2.0,0.0
309,26.0,0.0,300.0,3.0,0.0
310,74.0,240.0,240.0,0.0,0.0
311,72.0,240.0,240.0,0.0,0.0
312,71.0,240.0,240.0,0.0,0.0
313,69.0,960.0,240.0,0.0,0.0
314,67.0,360.0,960.0,0.0,0.0
315,68.0,480.0,360.0,0.0,0.0
316,69.0,480.0,360.0,0.0,0.0
317,70.0,480.0,360.0,0.0,0.0
318,71.0,480.0,360.0,0.0,0.0
319,72.0,480.0,360.0,0.0,0.0
320,74.0,600.0,360.0,0.0,0.0
321,75.0,960.0,480.0,0.0,0.0
322,76.0,480.0,960.0,0.0,0.0
323,56.0,0.0,960.0,3.0,0.0
324,59.0,480.0,960.0,2.0,0.0
325,64.0,0.0,1920.0,2.0,0.0
326,74.0,442.0,960.0,0.0,0.0
327,57.0,40.0,960.0,3.0,0.0
328,60.0,0.0,960.0,2.0,0.0
329,72.0,38.0,450.0,0.0,0.0
330,71.0,40.0,30.0,0.0,0.0
331,72.0,40.0,30.0,0.0,0.0
332,74.0,135.0,30.0,0.0,0.0
333,72.0,225.0,120.0,0.0,0.0
334,71.0,240.0,240.0,0.0,0.0
335,69.0,240.0,240.0,0.0,0.0
336,67.0,960.0,240.0,0.0,0.0
337,66.0,360.0,960.0,0.0,0.0
338,67.0,480.0,360.0,0.0,0.0
339,68.0,480.0,360.0,0.0,0.0
340,69.0,480.0,360.0,0.0,0.0
341,70.0,480.0,360.0,0.0,0.0
342,71.0,480.0,360.0,0.0,0.0
343,72.0,600.0,360.0,0.0,0.0
344,73.0,960.0,480.0,0.0,0.0
345,74.0,480.0,960.0,0.0,0.0
346,57.0,0.0,960.0,2.0,0.0
347,54.0,480.0,960.0,3.0,0.0
348,72.0,480.0,960.0,0.0,0.0
349,59.0,0.0,960.0,2.0,0.0
350,55.0,0.0,960.0,3.0,0.0
351,71.0,240.0,480.0,0.0,0.0
352,62.0,0.0,15.0,2.0,0.0
353,60.0,240.0,240.0,2.0,0.0
354,59.0,240.0,240.0,2.0,0.0
355,57.0,960.0,240.0,2.0,0.0
356,55.0,240.0,960.0,2.0,0.0
357,56.0,120.0,360.0,2.0,0.0
358,50.0,120.0,240.0,0.0,0.0
359,48.0,240.0,240.0,0.0,0.0
360,57.0,120.0,360.0,2.0,0.0
361,47.0,120.0,240.0,0.0,0.0
362,45.0,360.0,240.0,0.0,0.0
363,58.0,480.0,360.0,2.0,0.0
364,44.0,240.0,960.0,0.0,0.0
365,59.0,120.0,360.0,2.0,0.0
366,74.0,120.0,240.0,0.0,0.0
367,60.0,120.0,360.0,2.0,0.0
368,72.0,240.0,240.0,0.0,0.0
369,71.0,120.0,240.0,0.0,0.0
370,62.0,120.0,360.0,2.0,0.0
371,69.0,480.0,240.0,0.0,0.0
372,63.0,480.0,480.0,2.0,0.0
373,52.0,480.0,1920.0,3.0,0.0
374,68.0,480.0,960.0,0.0,0.0
375,64.0,480.0,960.0,2.0,0.0
376,68.0,480.0,1440.0,1.0,0.0
377,71.0,0.0,1440.0,1.0,0.0
378,77.0,0.0,1440.0,0.0,0.0
379,62.0,0.0,960.0,2.0,0.0
380,57.0,0.0,960.0,3.0,0.0
381,69.0,0.0,480.0,1.0,0.0
382,72.0,0.0,480.0,1.0,0.0
383,76.0,0.0,480.0,0.0,0.0
384,60.0,240.0,15.0,2.0,0.0
385,59.0,240.0,240.0,2.0,0.0
386,57.0,240.0,240.0,2.0,0.0
387,55.0,960.0,240.0,2.0,0.0
388,54.0,240.0,960.0,2.0,0.0
389,55.0,120.0,360.0,2.0,0.0
390,48.0,120.0,240.0,0.0,0.0
391,47.0,240.0,240.0,0.0,0.0
392,45.0,120.0,240.0,0.0,0.0
393,56.0,120.0,360.0,2.0,0.0
394,43.0,360.0,240.0,0.0,0.0
395,42.0,240.0,960.0,0.0,0.0
396,57.0,480.0,360.0,2.0,0.0
397,59.0,120.0,360.0,2.0,0.0
398,72.0,120.0,240.0,0.0,0.0
399,60.0,120.0,360.0,2.0,0.0
400,71.0,240.0,240.0,0.0,0.0
401,69.0,240.0,240.0,0.0,0.0
402,61.0,480.0,960.0,2.0,0.0
403,67.0,480.0,240.0,0.0,0.0
404,66.0,480.0,960.0,0.0,0.0
405,50.0,480.0,1920.0,3.0,0.0
406,62.0,480.0,960.0,2.0,0.0
407,69.0,480.0,1440.0,1.0,0.0
408,66.0,0.0,1440.0,1.0,0.0
409,75.0,0.0,1440.0,0.0,0.0
410,60.0,0.0,960.0,2.0,0.0
411,55.0,0.0,960.0,3.0,0.0
412,59.0,0.0,480.0,2.0,0.0
413,71.0,240.0,480.0,1.0,0.0
414,74.0,0.0,480.0,0.0,0.0
415,67.0,0.0,480.0,1.0,0.0
416,47.0,240.0,480.0,3.0,0.0
417,55.0,240.0,240.0,2.0,0.0
418,50.0,0.0,240.0,3.0,0.0
419,74.0,0.0,240.0,0.0,0.0
420,67.0,0.0,240.0,1.0,0.0
421,55.0,240.0,240.0,2.0,0.0
422,47.0,240.0,480.0,3.0,0.0
423,50.0,0.0,240.0,3.0,0.0
424,74.0,80.0,240.0,0.0,0.0
425,66.0,0.0,960.0,1.0,0.0
426,57.0,240.0,960.0,2.0,0.0
427,48.0,0.0,480.0,3.0,0.0
428,50.0,0.0,240.0,3.0,0.0
429,76.0,80.0,90.0,0.0,0.0
430,74.0,80.0,90.0,0.0,0.0
431,73.0,240.0,90.0,0.0,0.0
432,48.0,0.0,480.0,3.0,0.0
433,74.0,240.0,240.0,0.0,0.0
434,50.0,0.0,240.0,3.0,0.0
435,78.0,0.0,240.0,0.0,0.0
436,79.0,240.0,240.0,0.0,0.0
437,67.0,0.0,240.0,1.0,0.0
438,55.0,0.0,240.0,2.0,0.0
439,47.0,0.0,480.0,3.0,0.0
440,50.0,240.0,240.0,3.0,0.0
441,67.0,0.0,240.0,1.0,0.0
442,55.0,0.0,240.0,2.0,0.0
443,74.0,240.0,240.0,0.0,0.0
444,47.0,240.0,480.0,3.0,0.0
445,50.0,0.0,240.0,3.0,0.0
446,57.0,0.0,960.0,2.0,0.0
447,74.0,80.0,240.0,0.0,0.0
448,66.0,240.0,960.0,1.0,0.0
449,50.0,0.0,240.0,3.0,0.0
450,76.0,80.0,90.0,0.0,0.0
451,74.0,80.0,90.0,0.0,0.0
452,73.0,0.0,90.0,0.0,0.0
453,74.0,240.0,240.0,0.0,0.0
454,48.0,240.0,15.0,3.0,0.0
455,50.0,0.0,240.0,3.0,0.0
456,78.0,0.0,240.0,0.0,0.0
457,47.0,480.0,480.0,3.0,0.0
458,67.0,240.0,240.0,1.0,0.0
459,79.0,0.0,240.0,0.0,0.0
460,55.0,0.0,480.0,2.0,0.0
461,50.0,0.0,240.0,3.0,0.0
462,53.0,240.0,480.0,2.0,0.0
463,80.0,0.0,480.0,0.0,0.0
464,47.0,0.0,480.0,3.0,0.0
465,68.0,0.0,480.0,1.0,0.0
466,50.0,0.0,240.0,3.0,0.0
467,48.0,240.0,480.0,3.0,0.0
468,69.0,0.0,480.0,1.0,0.0
469,52.0,240.0,240.0,2.0,0.0
470,81.0,0.0,480.0,0.0,0.0
471,57.0,0.0,240.0,2.0,0.0
472,83.0,0.0,480.0,0.0,0.0
473,52.0,240.0,240.0,2.0,0.0
474,71.0,0.0,480.0,1.0,0.0
475,48.0,0.0,480.0,3.0,0.0
476,57.0,240.0,240.0,2.0,0.0
477,72.0,0.0,480.0,1.0,0.0
478,50.0,0.0,480.0,3.0,0.0
479,54.0,240.0,240.0,2.0,0.0
480,84.0,240.0,480.0,0.0,0.0
481,57.0,0.0,240.0,2.0,0.0
482,86.0,0.0,480.0,0.0,0.0
483,54.0,240.0,240.0,2.0,0.0
484,74.0,240.0,480.0,1.0,0.0
485,50.0,0.0,480.0,3.0,0.0
486,57.0,0.0,240.0,2.0,0.0
487,72.0,0.0,960.0,1.0,0.0
488,43.0,240.0,1440.0,3.0,0.0
489,55.0,240.0,240.0,2.0,0.0
490,84.0,240.0,960.0,0.0,0.0
491,50.0,240.0,240.0,2.0,0.0
492,55.0,240.0,240.0,2.0,0.0
493,50.0,0.0,240.0,2.0,0.0
494,71.0,0.0,240.0,1.0,0.0
495,55.0,0.0,240.0,2.0,0.0
496,83.0,240.0,240.0,0.0,0.0
497,50.0,0.0,240.0,3.0,0.0
498,74.0,0.0,240.0,0.0,0.0
499,47.0,0.0,15.0,3.0,0.0
500,55.0,240.0,240.0,2.0,0.0
501,67.0,0.0,240.0,1.0,0.0
502,50.0,240.0,240.0,3.0,0.0
503,66.0,0.0,960.0,1.0,0.0
504,48.0,240.0,480.0,3.0,0.0
505,74.0,80.0,240.0,0.0,0.0
506,57.0,0.0,960.0,2.0,0.0
507,50.0,0.0,240.0,3.0,0.0
508,76.0,80.0,90.0,0.0,0.0
509,74.0,80.0,90.0,0.0,0.0
510,73.0,0.0,90.0,0.0,0.0
511,74.0,240.0,240.0,0.0,0.0
512,48.0,0.0,480.0,3.0,0.0
513,78.0,0.0,240.0,0.0,0.0
514,50.0,240.0,240.0,3.0,0.0
515,55.0,0.0,240.0,2.0,0.0
516,67.0,0.0,240.0,1.0,0.0
517,79.0,240.0,240.0,0.0,0.0
518,50.0,0.0,240.0,3.0,0.0
519,47.0,240.0,15.0,3.0,0.0
520,67.0,240.0,240.0,1.0,0.0
521,55.0,0.0,240.0,2.0,0.0
522,74.0,0.0,240.0,0.0,0.0
523,50.0,240.0,240.0,3.0,0.0
524,57.0,240.0,960.0,2.0,0.0
525,48.0,0.0,480.0,3.0,0.0
526,74.0,80.0,240.0,0.0,0.0
527,66.0,0.0,960.0,1.0,0.0
528,50.0,240.0,240.0,3.0,0.0
529,76.0,80.0,90.0,0.0,0.0
530,74.0,80.0,90.0,0.0,0.0
531,73.0,0.0,90.0,0.0,0.0
532,74.0,240.0,240.0,0.0,0.0
533,48.0,0.0,480.0,3.0,0.0
534,50.0,0.0,240.0,3.0,0.0
535,78.0,0.0,240.0,0.0,0.0
536,79.0,0.0,240.0,0.0,0.0
537,55.0,480.0,480.0,2.0,0.0
538,67.0,240.0,240.0,1.0,0.0
539,50.0,0.0,240.0,3.0,0.0
540,47.0,0.0,15.0,3.0,0.0
541,68.0,0.0,480.0,1.0,0.0
542,80.0,0.0,480.0,0.0,0.0
543,53.0,0.0,480.0,2.0,0.0
544,50.0,240.0,240.0,3.0,0.0
545,69.0,0.0,480.0,1.0,0.0
546,52.0,240.0,240.0,2.0,0.0
547,81.0,240.0,480.0,0.0,0.0
548,57.0,0.0,240.0,2.0,0.0
549,83.0,0.0,480.0,0.0,0.0
550,52.0,240.0,240.0,2.0,0.0
551,71.0,0.0,480.0,1.0,0.0
552,48.0,0.0,15.0,3.0,0.0
553,57.0,240.0,240.0,2.0,0.0
554,50.0,0.0,480.0,3.0,0.0
555,84.0,0.0,480.0,0.0,0.0
556,72.0,240.0,480.0,1.0,0.0
557,57.0,240.0,240.0,2.0,0.0
558,60.0,0.0,240.0,2.0,0.0
559,78.0,0.0,480.0,0.0,0.0
560,50.0,0.0,480.0,3.0,0.0
561,57.0,240.0,240.0,2.0,0.0
562,66.0,240.0,480.0,1.0,0.0
563,60.0,0.0,240.0,2.0,0.0
564,43.0,0.0,240.0,3.0,0.0
565,55.0,0.0,240.0,2.0,0.0
566,79.0,480.0,240.0,0.0,0.0
567,67.0,0.0,240.0,1.0,0.0
568,62.0,0.0,240.0,0.0,0.0
569,55.0,1040.0,240.0,1.0,0.0
570,59.0,0.0,240.0,1.0,0.0
571,60.0,473.0,1200.0,1.0,0.0
572,63.0,0.0,1200.0,0.0,0.0
573,54.0,0.0,480.0,1.0,0.0
574,38.0,80.0,90.0,3.0,0.0
575,40.0,80.0,90.0,3.0,0.0
576,42.0,240.0,90.0,3.0,0.0
577,43.0,7.0,240.0,3.0,0.0
578,55.0,320.0,1440.0,1.0,0.0
579,62.0,720.0,240.0,0.0,0.0
580,59.0,0.0,240.0,1.0,0.0
581,64.0,7.0,1200.0,0.0,0.0
582,60.0,473.0,1200.0,1.0,0.0
583,54.0,0.0,480.0,1.0,0.0
584,38.0,80.0,90.0,3.0,0.0
585,40.0,80.0,90.0,3.0,0.0
586,42.0,240.0,90.0,3.0,0.0
587,55.0,320.0,1440.0,1.0,0.0
588,43.0,0.0,240.0,3.0,0.0
589,59.0,0.0,240.0,1.0,0.0
590,62.0,720.0,240.0,0.0,0.0
591,63.0,0.0,1200.0,0.0,0.0
592,60.0,473.0,1200.0,1.0,0.0
593,54.0,0.0,480.0,1.0,0.0
594,38.0,80.0,90.0,3.0,0.0
595,40.0,80.0,90.0,3.0,0.0
596,42.0,240.0,90.0,3.0,0.0
597,43.0,7.0,240.0,3.0,0.0
598,55.0,320.0,1440.0,1.0,0.0
599,59.0,720.0,240.0,1.0,0.0
600,62.0,0.0,240.0,0.0,0.0
601,64.0,0.0,1440.0,0.0,0.0
602,60.0,240.0,1440.0,1.0,0.0
603,54.0,240.0,480.0,1.0,0.0
604,38.0,80.0,90.0,3.0,0.0
605,40.0,80.0,90.0,3.0,0.0
606,42.0,0.0,90.0,3.0,0.0
607,55.0,240.0,1440.0,1.0,0.0
608,43.0,240.0,240.0,3.0,0.0
609,50.0,0.0,240.0,2.0,0.0
610,43.0,0.0,240.0,3.0,0.0
611,62.0,0.0,240.0,0.0,0.0
612,59.0,480.0,240.0,1.0,0.0
613,45.0,240.0,240.0,3.0,0.0
614,60.0,0.0,240.0,1.0,0.0
615,66.0,0.0,240.0,0.0,0.0
616,50.0,0.0,240.0,2.0,0.0
617,62.0,0.0,240.0,1.0,0.0
618,50.0,0.0,240.0,2.0,0.0
619,67.0,960.0,240.0,0.0,0.0
620,47.0,0.0,240.0,3.0,0.0
621,52.0,240.0,960.0,2.0,0.0
622,57.0,0.0,960.0,2.0,0.0
623,64.0,0.0,960.0,1.0,0.0
624,60.0,0.0,960.0,1.0,0.0
625,71.0,240.0,720.0,0.0,0.0
626,48.0,0.0,960.0,3.0,0.0
627,69.0,0.0,240.0,0.0,0.0
628,67.0,0.0,240.0,0.0,0.0
629,59.0,0.0,240.0,2.0,0.0
630,50.0,0.0,240.0,3.0,0.0
631,62.0,480.0,240.0,1.0,0.0
632,66.0,0.0,240.0,0.0,0.0
633,57.0,480.0,240.0,2.0,0.0
634,62.0,0.0,240.0,1.0,0.0
635,50.0,0.0,240.0,3.0,0.0
636,62.0,480.0,240.0,0.0,0.0
637,55.0,480.0,240.0,2.0,0.0
638,47.0,0.0,240.0,3.0,0.0
639,67.0,0.0,240.0,0.0,0.0
640,62.0,0.0,240.0,1.0,0.0
641,45.0,480.0,240.0,3.0,0.0
642,69.0,0.0,240.0,0.0,0.0
643,62.0,0.0,240.0,1.0,0.0
644,54.0,0.0,240.0,2.0,0.0
645,62.0,0.0,240.0,1.0,0.0
646,55.0,960.0,240.0,2.0,0.0
647,71.0,0.0,240.0,0.0,0.0
648,43.0,0.0,240.0,3.0,0.0
649,48.0,240.0,960.0,3.0,0.0
650,74.0,240.0,720.0,0.0,0.0
651,64.0,0.0,960.0,1.0,0.0
652,59.0,0.0,720.0,2.0,0.0
653,57.0,0.0,240.0,2.0,0.0
654,72.0,0.0,240.0,0.0,0.0
655,71.0,0.0,240.0,0.0,0.0
656,55.0,0.0,240.0,2.0,0.0
657,62.0,0.0,240.0,1.0,0.0
658,50.0,480.0,240.0,3.0,0.0
659,54.0,0.0,240.0,2.0,0.0
660,50.0,0.0,240.0,3.0,0.0
661,69.0,480.0,240.0,0.0,0.0
662,62.0,0.0,240.0,1.0,0.0
663,74.0,0.0,240.0,0.0,0.0
664,62.0,480.0,240.0,1.0,0.0
665,74.0,0.0,240.0,0.0,0.0
666,55.0,480.0,240.0,2.0,0.0
667,62.0,0.0,240.0,1.0,0.0
668,67.0,0.0,240.0,1.0,0.0
669,50.0,0.0,240.0,2.0,0.0
670,47.0,0.0,240.0,3.0,0.0
671,62.0,0.0,240.0,1.0,0.0
672,74.0,0.0,240.0,0.0,0.0
673,48.0,0.0,240.0,2.0,0.0
674,54.0,480.0,240.0,2.0,0.0
675,45.0,0.0,240.0,3.0,0.0
676,69.0,0.0,240.0,1.0,0.0
677,66.0,0.0,240.0,1.0,0.0
678,71.0,0.0,240.0,1.0,0.0
679,67.0,0.0,240.0,1.0,0.0
680,62.0,0.0,240.0,1.0,0.0
681,47.0,0.0,240.0,2.0,0.0
682,43.0,0.0,240.0,3.0,0.0
683,74.0,0.0,240.0,0.0,0.0
684,55.0,720.0,240.0,2.0,0.0
685,63.0,0.0,480.0,1.0,0.0
686,36.0,0.0,480.0,3.0,0.0
687,75.0,240.0,480.0,0.0,0.0
688,40.0,0.0,480.0,2.0,0.0
689,45.0,0.0,480.0,2.0,0.0
690,48.0,0.0,480.0,2.0,0.0
691,64.0,0.0,240.0,1.0,0.0
692,76.0,1440.0,240.0,0.0,0.0
693,38.0,480.0,240.0,3.0,0.0
694,54.0,1680.0,240.0,0.0,0.0
695,48.0,0.0,240.0,1.0,0.0
696,31.0,480.0,960.0,3.0,0.0
697,47.0,0.0,240.0,1.0,0.0
698,55.0,240.0,15.0,0.0,0.0
699,43.0,0.0,15.0,1.0,0.0
700,55.0,0.0,240.0,0.0,0.0
701,43.0,240.0,15.0,1.0,0.0
702,47.0,0.0,15.0,1.0,0.0
703,36.0,480.0,960.0,3.0,0.0
704,52.0,0.0,240.0,1.0,0.0
705,43.0,0.0,15.0,1.0,0.0
706,52.0,240.0,240.0,1.0,0.0
707,55.0,240.0,15.0,0.0,0.0
708,52.0,0.0,240.0,1.0,0.0
709,43.0,0.0,240.0,1.0,0.0
710,55.0,0.0,240.0,0.0,0.0
711,35.0,0.0,960.0,3.0,0.0
712,55.0,0.0,240.0,0.0,0.0
713,50.0,0.0,240.0,1.0,0.0
714,43.0,240.0,15.0,1.0,0.0
715,55.0,0.0,240.0,0.0,0.0
716,55.0,480.0,240.0,0.0,0.0
717,50.0,0.0,15.0,1.0,0.0
718,43.0,240.0,15.0,1.0,0.0
719,40.0,480.0,960.0,3.0,0.0
720,48.0,0.0,15.0,1.0,0.0
721,55.0,0.0,15.0,0.0,0.0
722,43.0,240.0,15.0,1.0,0.0
723,43.0,240.0,15.0,1.0,0.0
724,55.0,0.0,240.0,0.0,0.0
725,48.0,0.0,240.0,1.0,0.0
726,38.0,0.0,960.0,3.0,0.0
727,55.0,0.0,240.0,0.0,0.0
728,47.0,240.0,240.0,1.0,0.0
729,43.0,0.0,240.0,1.0,0.0
730,55.0,0.0,240.0,0.0,0.0
731,43.0,0.0,240.0,1.0,0.0
732,47.0,240.0,240.0,1.0,0.0
733,47.0,0.0,240.0,1.0,0.0
734,43.0,0.0,240.0,1.0,0.0
735,55.0,480.0,240.0,0.0,0.0
736,36.0,0.0,960.0,3.0,0.0
737,55.0,0.0,240.0,0.0,0.0
738,54.0,240.0,15.0,1.0,0.0
739,43.0,0.0,15.0,1.0,0.0
740,45.0,0.0,15.0,1.0,0.0
741,54.0,0.0,240.0,1.0,0.0
742,43.0,0.0,15.0,1.0,0.0
743,55.0,240.0,15.0,0.0,0.0
744,45.0,480.0,240.0,1.0,0.0
745,35.0,0.0,960.0,3.0,0.0
746,55.0,240.0,240.0,0.0,0.0
747,43.0,0.0,15.0,1.0,0.0
748,55.0,0.0,240.0,0.0,0.0
749,55.0,480.0,240.0,0.0,0.0
750,43.0,240.0,15.0,1.0,0.0
751,31.0,0.0,960.0,3.0,0.0
752,53.0,0.0,240.0,1.0,0.0
753,43.0,0.0,240.0,1.0,0.0
754,47.0,0.0,240.0,1.0,0.0
755,55.0,240.0,15.0,0.0,0.0
756,53.0,240.0,15.0,1.0,0.0
757,43.0,0.0,15.0,1.0,0.0
758,47.0,0.0,15.0,1.0,0.0
759,55.0,0.0,240.0,0.0,0.0
760,67.0,0.0,960.0,0.0,0.0
761,36.0,240.0,240.0,3.0,0.0
762,52.0,0.0,240.0,2.0,0.0
763,55.0,0.0,240.0,2.0,0.0
764,55.0,0.0,240.0,2.0,0.0
765,48.0,240.0,15.0,3.0,0.0
766,52.0,0.0,240.0,2.0,0.0
767,52.0,0.0,240.0,2.0,0.0
768,55.0,0.0,240.0,2.0,0.0
769,48.0,240.0,15.0,3.0,0.0
770,72.0,0.0,960.0,0.0,0.0
771,60.0,0.0,960.0,1.0,0.0
772,52.0,0.0,240.0,2.0,0.0
773,52.0,0.0,240.0,2.0,0.0
774,55.0,0.0,15.0,2.0,0.0
775,48.0,240.0,15.0,3.0,0.0
776,55.0,0.0,15.0,2.0,0.0
777,48.0,0.0,240.0,3.0,0.0
778,52.0,480.0,240.0,2.0,0.0
779,68.0,0.0,960.0,0.0,0.0
780,53.0,0.0,240.0,2.0,0.0
781,56.0,0.0,15.0,2.0,0.0
782,48.0,240.0,15.0,3.0,0.0
783,53.0,0.0,15.0,2.0,0.0
784,48.0,480.0,240.0,3.0,0.0
785,56.0,240.0,15.0,2.0,0.0
786,73.0,0.0,1920.0,0.0,0.0
787,61.0,0.0,960.0,1.0,0.0
788,53.0,240.0,15.0,2.0,0.0
789,56.0,0.0,15.0,2.0,0.0
790,48.0,0.0,15.0,3.0,0.0
791,53.0,0.0,240.0,2.0,0.0
792,48.0,0.0,240.0,3.0,0.0
793,56.0,480.0,240.0,2.0,0.0
794,49.0,0.0,240.0,2.0,0.0
795,55.0,0.0,240.0,2.0,0.0
796,53.0,0.0,15.0,2.0,0.0
797,46.0,240.0,15.0,3.0,0.0
798,46.0,0.0,15.0,3.0,0.0
799,55.0,240.0,15.0,2.0,0.0
800,53.0,0.0,15.0,2.0,0.0
801,49.0,0.0,15.0,2.0,0.0
802,79.0,0.0,720.0,0.0,0.0
803,67.0,480.0,15.0,1.0,0.0
804,53.0,0.0,240.0,2.0,0.0
805,55.0,0.0,240.0,2.0,0.0
806,49.0,0.0,240.0,2.0,0.0
807,46.0,240.0,240.0,3.0,0.0
808,49.0,0.0,15.0,2.0,0.0
809,53.0,0.0,15.0,2.0,0.0
810,55.0,0.0,15.0,2.0,0.0
811,46.0,0.0,15.0,3.0,0.0
812,82.0,0.0,720.0,0.0,0.0
813,70.0,240.0,720.0,1.0,0.0
814,52.0,0.0,15.0,2.0,0.0
815,49.0,0.0,15.0,2.0,0.0
816,55.0,0.0,15.0,2.0,0.0
817,46.0,240.0,15.0,3.0,0.0
818,52.0,0.0,240.0,2.0,0.0
819,49.0,0.0,240.0,2.0,0.0
820,55.0,480.0,240.0,2.0,0.0
821,46.0,0.0,240.0,3.0,0.0
822,73.0,0.0,720.0,1.0,0.0
823,85.0,0.0,720.0,0.0,0.0
824,55.0,240.0,240.0,2.0,0.0
825,52.0,0.0,240.0,2.0,0.0
826,49.0,0.0,240.0,2.0,0.0
827,46.0,0.0,240.0,3.0,0.0
828,46.0,0.0,240.0,3.0,0.0
829,55.0,240.0,240.0,2.0,0.0
830,52.0,0.0,240.0,2.0,0.0
831,49.0,0.0,240.0,2.0,0.0
832,46.0,0.0,240.0,3.0,0.0
833,55.0,0.0,240.0,2.0,0.0
834,52.0,0.0,240.0,2.0,0.0
835,49.0,240.0,240.0,2.0,0.0
836,84.0,240.0,1440.0,0.0,0.0
837,72.0,0.0,1440.0,1.0,0.0
838,48.0,120.0,120.0,2.0,0.0
839,53.0,120.0,120.0,2.0,0.0
840,56.0,240.0,120.0,2.0,0.0
841,44.0,0.0,15.0,3.0,0.0
842,48.0,120.0,120.0,2.0,0.0
843,53.0,120.0,120.0,2.0,0.0
844,56.0,240.0,120.0,2.0,0.0
845,44.0,0.0,15.0,3.0,0.0
846,48.0,120.0,120.0,2.0,0.0
847,53.0,120.0,120.0,2.0,0.0
848,56.0,0.0,120.0,2.0,0.0
849,70.0,120.0,240.0,1.0,0.0
850,82.0,0.0,240.0,0.0,0.0
851,44.0,0.0,480.0,3.0,0.0
852,48.0,0.0,120.0,2.0,0.0
853,80.0,240.0,240.0,0.0,0.0
854,53.0,120.0,120.0,2.0,0.0
855,68.0,0.0,240.0,1.0,0.0
856,56.0,0.0,120.0,2.0,0.0
857,67.0,0.0,240.0,1.0,0.0
858,79.0,120.0,240.0,0.0,0.0
859,44.0,240.0,480.0,3.0,0.0
860,48.0,0.0,120.0,2.0,0.0
861,53.0,120.0,120.0,2.0,0.0
862,77.0,0.0,240.0,0.0,0.0
863,65.0,0.0,240.0,1.0,0.0
864,56.0,0.0,120.0,2.0,0.0
865,76.0,0.0,240.0,0.0,0.0
866,64.0,120.0,240.0,1.0,0.0
867,48.0,0.0,120.0,2.0,0.0
868,77.0,0.0,240.0,0.0,0.0
869,53.0,120.0,120.0,2.0,0.0
870,65.0,0.0,240.0,1.0,0.0
871,56.0,240.0,120.0,2.0,0.0
872,44.0,0.0,15.0,3.0,0.0
873,64.0,0.0,240.0,1.0,0.0
874,76.0,0.0,240.0,0.0,0.0
875,48.0,120.0,120.0,2.0,0.0
876,65.0,240.0,240.0,1.0,0.0
877,53.0,120.0,120.0,2.0,0.0
878,77.0,0.0,240.0,0.0,0.0
879,56.0,0.0,120.0,2.0,0.0
880,79.0,0.0,240.0,0.0,0.0
881,44.0,240.0,480.0,3.0,0.0
882,67.0,0.0,240.0,1.0,0.0
883,48.0,120.0,120.0,2.0,0.0
884,65.0,0.0,240.0,1.0,0.0
885,77.0,0.0,240.0,0.0,0.0
886,53.0,120.0,120.0,2.0,0.0
887,56.0,0.0,120.0,2.0,0.0
888,65.0,0.0,1440.0,1.0,0.0
889,77.0,0.0,1440.0,0.0,0.0
890,49.0,120.0,120.0,2.0,0.0
891,53.0,120.0,120.0,2.0,0.0
892,56.0,0.0,120.0,2.0,0.0
893,46.0,240.0,15.0,3.0,0.0
894,49.0,120.0,120.0,2.0,0.0
895,53.0,120.0,120.0,2.0,0.0
896,56.0,0.0,120.0,2.0,0.0
897,46.0,240.0,15.0,3.0,0.0
898,49.0,120.0,120.0,2.0,0.0
899,53.0,120.0,120.0,2.0,0.0
900,56.0,0.0,120.0,2.0,0.0
901,70.0,0.0,240.0,1.0,0.0
902,82.0,0.0,240.0,0.0,0.0
903,46.0,240.0,15.0,3.0,0.0
904,49.0,120.0,120.0,2.0,0.0
905,80.0,0.0,240.0,0.0,0.0
906,53.0,120.0,120.0,2.0,0.0
907,68.0,0.0,240.0,1.0,0.0
908,56.0,240.0,120.0,2.0,0.0
909,79.0,0.0,240.0,0.0,0.0
910,67.0,120.0,240.0,1.0,0.0
911,49.0,0.0,120.0,2.0,0.0
912,77.0,0.0,240.0,0.0,0.0
913,53.0,120.0,120.0,2.0,0.0
914,65.0,240.0,240.0,1.0,0.0
915,56.0,0.0,120.0,2.0,0.0
916,46.0,0.0,15.0,3.0,0.0
917,76.0,0.0,240.0,0.0,0.0
918,64.0,0.0,240.0,1.0,0.0
919,49.0,120.0,120.0,2.0,0.0
920,53.0,120.0,120.0,2.0,0.0
921,77.0,240.0,240.0,0.0,0.0
922,65.0,0.0,240.0,1.0,0.0
923,56.0,0.0,120.0,2.0,0.0
924,76.0,120.0,240.0,0.0,0.0
925,46.0,240.0,480.0,3.0,0.0
926,64.0,0.0,240.0,1.0,0.0
927,49.0,0.0,120.0,2.0,0.0
928,65.0,0.0,240.0,1.0,0.0
929,77.0,0.0,240.0,0.0,0.0
930,53.0,120.0,120.0,2.0,0.0
931,56.0,0.0,120.0,2.0,0.0
932,79.0,0.0,240.0,0.0,0.0
933,67.0,120.0,240.0,1.0,0.0
934,46.0,0.0,480.0,3.0,0.0
935,49.0,0.0,120.0,2.0,0.0
936,77.0,240.0,240.0,0.0,0.0
937,53.0,120.0,120.0,2.0,0.0
938,56.0,0.0,120.0,2.0,0.0
939,65.0,0.0,15.0,1.0,0.0
940,77.0,0.0,1200.0,0.0,0.0
941,53.0,120.0,120.0,2.0,0.0
942,56.0,120.0,120.0,2.0,0.0
943,60.0,240.0,120.0,2.0,0.0
944,48.0,0.0,15.0,3.0,0.0
945,53.0,120.0,120.0,2.0,0.0
946,56.0,120.0,120.0,2.0,0.0
947,60.0,0.0,120.0,2.0,0.0
948,48.0,240.0,15.0,3.0,0.0
949,53.0,0.0,120.0,2.0,0.0
950,56.0,120.0,120.0,2.0,0.0
951,84.0,0.0,240.0,0.0,0.0
952,72.0,0.0,240.0,1.0,0.0
953,60.0,0.0,120.0,2.0,0.0
954,70.0,120.0,240.0,1.0,0.0
955,82.0,0.0,240.0,0.0,0.0
956,53.0,0.0,120.0,2.0,0.0
957,56.0,120.0,120.0,2.0,0.0
958,80.0,0.0,240.0,0.0,0.0
959,68.0,0.0,240.0,1.0,0.0
960,60.0,0.0,120.0,2.0,0.0
961,79.0,0.0,240.0,0.0,0.0
962,48.0,240.0,15.0,3.0,0.0
963,67.0,0.0,240.0,1.0,0.0
964,53.0,120.0,120.0,2.0,0.0
965,65.0,0.0,240.0,1.0,0.0
966,56.0,120.0,120.0,2.0,0.0
967,77.0,0.0,240.0,0.0,0.0
968,60.0,0.0,120.0,2.0,0.0
969,64.0,0.0,240.0,1.0,0.0
970,48.0,240.0,15.0,3.0,0.0
971,76.0,120.0,240.0,0.0,0.0
972,53.0,0.0,120.0,2.0,0.0
973,65.0,0.0,240.0,1.0,0.0
974,77.0,0.0,240.0,0.0,0.0
975,56.0,120.0,120.0,2.0,0.0
976,60.0,240.0,120.0,2.0,0.0
977,76.0,0.0,240.0,0.0,0.0
978,48.0,0.0,480.0,3.0,0.0
979,64.0,120.0,240.0,1.0,0.0
980,53.0,0.0,120.0,2.0,0.0
981,77.0,0.0,240.0,0.0,0.0
982,56.0,120.0,120.0,2.0,0.0
983,65.0,240.0,240.0,1.0,0.0
984,60.0,0.0,120.0,2.0,0.0
985,79.0,0.0,240.0,0.0,0.0
986,48.0,240.0,480.0,3.0,0.0
987,67.0,120.0,240.0,1.0,0.0
988,53.0,0.0,120.0,2.0,0.0
989,65.0,0.0,240.0,1.0,0.0
990,56.0,120.0,120.0,2.0,0.0
991,77.0,0.0,240.0,0.0,0.0
992,60.0,0.0,120.0,2.0,0.0
993,65.0,0.0,1440.0,1.0,0.0
994,77.0,0.0,1440.0,0.0,0.0
995,53.0,120.0,120.0,2.0,0.0
996,56.0,120.0,120.0,2.0,0.0
997,58.0,0.0,120.0,2.0,0.0
998,49.0,240.0,15.0,3.0,0.0
999,53.0,120.0,120.0,2.0,0.0
1000,56.0,120.0,120.0,2.0,0.0
1001,58.0,240.0,120.0,2.0,0.0
1002,49.0,0.0,480.0,3.0,0.0
1003,53.0,120.0,120.0,2.0,0.0
1004,56.0,120.0,120.0,2.0,0.0
1005,58.0,240.0,120.0,2.0,0.0
1006,64.0,0.0,240.0,1.0,0.0
1007,76.0,120.0,240.0,0.0,0.0
1008,49.0,0.0,480.0,3.0,0.0
1009,53.0,0.0,120.0,2.0,0.0
1010,56.0,120.0,120.0,2.0,0.0
1011,65.0,240.0,240.0,1.0,0.0
1012,77.0,0.0,240.0,0.0,0.0
1013,58.0,0.0,120.0,2.0,0.0
1014,64.0,0.0,240.0,1.0,0.0
1015,76.0,0.0,240.0,0.0,0.0
1016,53.0,120.0,120.0,2.0,0.0
1017,77.0,0.0,240.0,0.0,0.0
1018,65.0,0.0,240.0,1.0,0.0
1019,56.0,120.0,120.0,2.0,0.0
1020,58.0,240.0,120.0,2.0,0.0
1021,50.0,0.0,15.0,3.0,0.0
1022,67.0,0.0,240.0,1.0,0.0
1023,79.0,120.0,240.0,0.0,0.0
1024,53.0,0.0,120.0,2.0,0.0
1025,56.0,120.0,120.0,2.0,0.0
1026,77.0,0.0,240.0,0.0,0.0
1027,65.0,0.0,240.0,1.0,0.0
1028,58.0,0.0,120.0,2.0,0.0
1029,50.0,240.0,15.0,3.0,0.0
1030,76.0,120.0,240.0,0.0,0.0
1031,64.0,0.0,240.0,1.0,0.0
1032,53.0,0.0,120.0,2.0,0.0
1033,77.0,240.0,240.0,0.0,0.0
1034,56.0,120.0,120.0,2.0,0.0
1035,65.0,0.0,240.0,1.0,0.0
1036,58.0,0.0,120.0,2.0,0.0
1037,79.0,0.0,240.0,0.0,0.0
1038,50.0,240.0,480.0,3.0,0.0
1039,67.0,0.0,240.0,1.0,0.0
1040,53.0,120.0,120.0,2.0,0.0
1041,56.0,120.0,120.0,2.0,0.0
1042,80.0,0.0,240.0,0.0,0.0
1043,58.0,0.0,120.0,2.0,0.0
1044,68.0,0.0,15.0,1.0,0.0
1045,51.0,240.0,480.0,3.0,0.0
1046,80.0,0.0,1440.0,0.0,0.0
1047,56.0,120.0,120.0,2.0,0.0
1048,60.0,120.0,120.0,2.0,0.0
1049,63.0,0.0,120.0,2.0,0.0
1050,51.0,0.0,480.0,3.0,0.0
1051,56.0,120.0,120.0,2.0,0.0
1052,60.0,120.0,120.0,2.0,0.0
1053,63.0,240.0,120.0,2.0,0.0
1054,51.0,0.0,480.0,3.0,0.0
1055,56.0,120.0,120.0,2.0,0.0
1056,60.0,120.0,120.0,2.0,0.0
1057,63.0,240.0,120.0,2.0,0.0
1058,51.0,0.0,480.0,3.0,0.0
1059,70.0,120.0,240.0,1.0,0.0
1060,82.0,0.0,240.0,0.0,0.0
1061,56.0,0.0,120.0,2.0,0.0
1062,72.0,0.0,240.0,1.0,0.0
1063,60.0,120.0,120.0,2.0,0.0
1064,63.0,240.0,120.0,2.0,0.0
1065,72.0,0.0,480.0,1.0,0.0
1066,84.0,0.0,15.0,0.0,0.0
1067,39.0,0.0,480.0,3.0,0.0
1068,46.0,120.0,120.0,2.0,0.0
1069,49.0,120.0,120.0,2.0,0.0
1070,51.0,240.0,120.0,2.0,0.0
1071,39.0,0.0,480.0,3.0,0.0
1072,73.0,0.0,960.0,1.0,0.0
1073,85.0,0.0,960.0,0.0,0.0
1074,46.0,120.0,120.0,2.0,0.0
1075,49.0,120.0,120.0,2.0,0.0
1076,51.0,240.0,120.0,2.0,0.0
1077,39.0,240.0,480.0,3.0,0.0
1078,46.0,120.0,120.0,2.0,0.0
1079,49.0,120.0,120.0,2.0,0.0
1080,51.0,0.0,120.0,2.0,0.0
1081,67.0,0.0,480.0,1.0,0.0
1082,39.0,0.0,480.0,3.0,0.0
1083,79.0,240.0,480.0,0.0,0.0
1084,46.0,120.0,120.0,2.0,0.0
1085,49.0,120.0,120.0,2.0,0.0
1086,51.0,0.0,120.0,2.0,0.0
1087,68.0,0.0,1440.0,1.0,0.0
1088,80.0,0.0,1440.0,0.0,0.0
1089,48.0,120.0,120.0,2.0,0.0
1090,51.0,120.0,120.0,2.0,0.0
1091,56.0,240.0,120.0,2.0,0.0
1092,44.0,0.0,15.0,3.0,0.0
1093,48.0,120.0,120.0,2.0,0.0
1094,51.0,120.0,120.0,2.0,0.0
1095,56.0,0.0,120.0,2.0,0.0
1096,44.0,240.0,15.0,3.0,0.0
1097,48.0,120.0,120.0,2.0,0.0
1098,51.0,120.0,120.0,2.0,0.0
1099,56.0,240.0,120.0,2.0,0.0
1100,44.0,0.0,480.0,3.0,0.0
1101,63.0,0.0,240.0,1.0,0.0
1102,75.0,0.0,240.0,0.0,0.0
1103,48.0,120.0,120.0,2.0,0.0
1104,61.0,0.0,240.0,1.0,0.0
1105,51.0,120.0,120.0,2.0,0.0
1106,56.0,0.0,120.0,2.0,0.0
1107,73.0,240.0,15.0,0.0,0.0
1108,61.0,120.0,240.0,1.0,0.0
1109,48.0,0.0,120.0,2.0,0.0
1110,60.0,0.0,240.0,1.0,0.0
1111,51.0,120.0,120.0,2.0,0.0
1112,72.0,0.0,240.0,0.0,0.0
1113,56.0,240.0,120.0,2.0,0.0
1114,44.0,0.0,15.0,3.0,0.0
1115,71.0,0.0,240.0,0.0,0.0
1116,59.0,0.0,240.0,1.0,0.0
1117,48.0,120.0,120.0,2.0,0.0
1118,72.0,0.0,240.0,0.0,0.0
1119,60.0,0.0,240.0,1.0,0.0
1120,51.0,120.0,120.0,2.0,0.0
1121,56.0,0.0,120.0,2.0,0.0
1122,71.0,0.0,240.0,0.0,0.0
1123,44.0,240.0,15.0,3.0,0.0
1124,59.0,0.0,240.0,1.0,0.0
1125,48.0,120.0,120.0,2.0,0.0
1126,72.0,0.0,240.0,0.0,0.0
1127,60.0,0.0,240.0,1.0,0.0
1128,51.0,120.0,120.0,2.0,0.0
1129,56.0,0.0,120.0,2.0,0.0
1130,61.0,120.0,240.0,1.0,0.0
1131,73.0,0.0,240.0,0.0,0.0
1132,44.0,0.0,480.0,3.0,0.0
1133,48.0,0.0,120.0,2.0,0.0
1134,60.0,240.0,240.0,1.0,0.0
1135,51.0,120.0,120.0,2.0,0.0
1136,56.0,0.0,120.0,2.0,0.0
1137,72.0,0.0,15.0,0.0,0.0
1138,43.0,240.0,480.0,3.0,0.0
1139,60.0,0.0,1440.0,1.0,0.0
1140,48.0,120.0,120.0,2.0,0.0
1141,51.0,120.0,120.0,2.0,0.0
1142,55.0,0.0,120.0,2.0,0.0
1143,48.0,120.0,120.0,2.0,0.0
1144,51.0,120.0,120.0,2.0,0.0
1145,55.0,240.0,120.0,2.0,0.0
1146,43.0,0.0,15.0,3.0,0.0
1147,48.0,120.0,120.0,2.0,0.0
1148,51.0,120.0,120.0,2.0,0.0
1149,55.0,0.0,120.0,2.0,0.0
1150,63.0,120.0,240.0,1.0,0.0
1151,75.0,0.0,240.0,0.0,0.0
1152,43.0,0.0,480.0,3.0,0.0
1153,48.0,0.0,120.0,2.0,0.0
1154,74.0,0.0,240.0,0.0,0.0
1155,51.0,120.0,120.0,2.0,0.0
1156,55.0,0.0,120.0,2.0,0.0
1157,43.0,0.0,480.0,3.0,0.0
1158,74.0,120.0,240.0,0.0,0.0
1159,62.0,240.0,15.0,1.0,0.0
1160,48.0,0.0,120.0,2.0,0.0
1161,51.0,120.0,120.0,2.0,0.0
1162,72.0,0.0,240.0,0.0,0.0
1163,60.0,0.0,240.0,1.0,0.0
1164,55.0,240.0,120.0,2.0,0.0
1165,59.0,120.0,240.0,1.0,0.0
1166,71.0,0.0,240.0,0.0,0.0
1167,43.0,0.0,480.0,3.0,0.0
1168,48.0,0.0,120.0,2.0,0.0
1169,51.0,120.0,120.0,2.0,0.0
1170,72.0,0.0,240.0,0.0,0.0
1171,60.0,240.0,240.0,1.0,0.0
1172,55.0,0.0,120.0,2.0,0.0
1173,71.0,0.0,240.0,0.0,0.0
1174,43.0,0.0,480.0,3.0,0.0
1175,59.0,120.0,240.0,1.0,0.0
1176,48.0,0.0,120.0,2.0,0.0
1177,72.0,240.0,240.0,0.0,0.0
1178,60.0,0.0,240.0,1.0,0.0
1179,51.0,120.0,120.0,2.0,0.0
1180,55.0,0.0,120.0,2.0,0.0
1181,62.0,0.0,240.0,1.0,0.0
1182,43.0,240.0,480.0,3.0,0.0
1183,74.0,0.0,240.0,0.0,0.0
1184,48.0,120.0,120.0,2.0,0.0
1185,51.0,120.0,120.0,2.0,0.0
1186,60.0,0.0,240.0,1.0,0.0
1187,72.0,0.0,240.0,0.0,0.0
1188,55.0,0.0,120.0,2.0,0.0
1189,72.0,0.0,1440.0,0.0,0.0
1190,60.0,0.0,1440.0,1.0,0.0
1191,48.0,120.0,120.0,2.0,0.0
1192,51.0,120.0,120.0,2.0,0.0
1193,57.0,0.0,120.0,2.0,0.0
1194,41.0,240.0,15.0,3.0,0.0
1195,48.0,120.0,120.0,2.0,0.0
1196,51.0,120.0,120.0,2.0,0.0
1197,57.0,0.0,120.0,2.0,0.0
1198,48.0,120.0,120.0,2.0,0.0
1199,51.0,120.0,120.0,2.0,0.0
1200,57.0,0.0,120.0,2.0,0.0
1201,72.0,120.0,1680.0,1.0,0.0
1202,84.0,0.0,1680.0,0.0,0.0
1203,41.0,240.0,15.0,3.0,0.0
1204,48.0,120.0,120.0,2.0,0.0
1205,51.0,120.0,120.0,2.0,0.0
1206,57.0,240.0,120.0,2.0,0.0
1207,48.0,120.0,120.0,2.0,0.0
1208,51.0,120.0,120.0,2.0,0.0
1209,57.0,0.0,120.0,2.0,0.0
1210,41.0,240.0,15.0,3.0,0.0
1211,48.0,120.0,120.0,2.0,0.0
1212,51.0,120.0,120.0,2.0,0.0
1213,57.0,240.0,120.0,2.0,0.0
1214,48.0,0.0,120.0,2.0,0.0
1215,75.0,240.0,240.0,0.0,0.0
1216,51.0,120.0,120.0,2.0,0.0
1217,63.0,0.0,240.0,1.0,0.0
1218,57.0,0.0,120.0,2.0,0.0
1219,41.0,0.0,15.0,3.0,0.0
1220,62.0,0.0,240.0,1.0,0.0
1221,74.0,0.0,240.0,0.0,0.0
1222,48.0,120.0,120.0,2.0,0.0
1223,51.0,120.0,120.0,2.0,0.0
1224,72.0,0.0,240.0,0.0,0.0
1225,60.0,0.0,240.0,1.0,0.0
1226,57.0,0.0,120.0,2.0,0.0
1227,71.0,0.0,240.0,0.0,0.0
1228,59.0,240.0,240.0,1.0,0.0
1229,67.0,0.0,240.0,0.0,0.0
1230,55.0,0.0,15.0,1.0,0.0
1231,59.0,240.0,15.0,1.0,0.0
1232,59.0,0.0,15.0,1.0,0.0
1233,67.0,0.0,15.0,0.0,0.0
1234,55.0,240.0,15.0,1.0,0.0
1235,48.0,0.0,960.0,3.0,0.0
1236,67.0,240.0,240.0,0.0,0.0
1237,55.0,0.0,15.0,1.0,0.0
1238,63.0,0.0,15.0,1.0,0.0
1239,67.0,0.0,15.0,0.0,0.0
1240,55.0,480.0,240.0,1.0,0.0
1241,63.0,240.0,15.0,1.0,0.0
1242,47.0,0.0,960.0,3.0,0.0
1243,55.0,0.0,240.0,1.0,0.0
1244,67.0,0.0,240.0,0.0,0.0
1245,62.0,240.0,15.0,1.0,0.0
1246,55.0,0.0,240.0,1.0,0.0
1247,67.0,0.0,15.0,0.0,0.0
1248,62.0,480.0,240.0,1.0,0.0
1249,51.0,480.0,960.0,3.0,0.0
1250,55.0,0.0,240.0,1.0,0.0
1251,67.0,240.0,240.0,0.0,0.0
1252,60.0,0.0,240.0,1.0,0.0
1253,60.0,0.0,240.0,1.0,0.0
1254,67.0,0.0,240.0,0.0,0.0
1255,55.0,240.0,240.0,1.0,0.0
1256,67.0,0.0,240.0,0.0,0.0
1257,55.0,0.0,240.0,1.0,0.0
1258,60.0,0.0,240.0,1.0,0.0
1259,50.0,0.0,960.0,3.0,0.0
1260,67.0,240.0,960.0,0.0,0.0
1261,43.0,0.0,15.0,3.0,0.0
1262,55.0,0.0,240.0,3.0,0.0
1263,59.0,240.0,15.0,2.0,0.0
1264,55.0,240.0,15.0,3.0,0.0
1265,59.0,0.0,240.0,2.0,0.0
1266,72.0,0.0,960.0,0.0,0.0
1267,60.0,240.0,15.0,2.0,0.0
1268,63.0,0.0,15.0,2.0,0.0
1269,55.0,0.0,240.0,3.0,0.0
1270,60.0,240.0,15.0,2.0,0.0
1271,63.0,0.0,240.0,2.0,0.0
1272,55.0,240.0,240.0,3.0,0.0
1273,55.0,240.0,240.0,3.0,0.0
1274,62.0,240.0,240.0,2.0,0.0
1275,71.0,0.0,960.0,0.0,0.0
1276,59.0,0.0,15.0,2.0,0.0
1277,62.0,0.0,240.0,2.0,0.0
1278,59.0,0.0,240.0,2.0,0.0
1279,55.0,240.0,15.0,3.0,0.0
1280,62.0,0.0,240.0,2.0,0.0
1281,55.0,240.0,15.0,3.0,0.0
1282,60.0,0.0,240.0,2.0,0.0
1283,66.0,480.0,960.0,0.0,0.0
1284,57.0,240.0,15.0,2.0,0.0
1285,60.0,240.0,240.0,2.0,0.0
1286,55.0,0.0,240.0,3.0,0.0
1287,57.0,0.0,240.0,2.0,0.0
1288,60.0,0.0,240.0,2.0,0.0
1289,55.0,240.0,15.0,3.0,0.0
1290,43.0,0.0,3840.0,3.0,0.0
1291,55.0,0.0,15.0,1.0,0.0
1292,59.0,0.0,15.0,1.0,0.0
1293,67.0,240.0,15.0,0.0,0.0
1294,67.0,240.0,15.0,0.0,0.0
1295,55.0,0.0,15.0,1.0,0.0
1296,59.0,0.0,15.0,1.0,0.0
1297,48.0,480.0,960.0,3.0,0.0
1298,67.0,0.0,240.0,0.0,0.0
1299,55.0,0.0,240.0,1.0,0.0
1300,67.0,240.0,240.0,0.0,0.0
1301,63.0,240.0,15.0,1.0,0.0
1302,55.0,0.0,240.0,1.0,0.0
1303,63.0,0.0,240.0,1.0,0.0
1304,67.0,0.0,240.0,0.0,0.0
1305,47.0,0.0,960.0,3.0,0.0
1306,67.0,240.0,240.0,0.0,0.0
1307,55.0,0.0,240.0,1.0,0.0
1308,62.0,0.0,15.0,1.0,0.0
1309,55.0,0.0,240.0,1.0,0.0
1310,67.0,0.0,240.0,0.0,0.0
1311,67.0,0.0,240.0,0.0,0.0
1312,62.0,480.0,240.0,1.0,0.0
1313,51.0,0.0,960.0,3.0,0.0
1314,55.0,0.0,240.0,1.0,0.0
1315,60.0,0.0,240.0,1.0,0.0
1316,60.0,240.0,240.0,1.0,0.0
1317,55.0,0.0,240.0,1.0,0.0
1318,67.0,240.0,15.0,0.0,0.0
1319,60.0,0.0,240.0,1.0,0.0
1320,55.0,0.0,240.0,1.0,0.0
1321,67.0,480.0,15.0,0.0,0.0
1322,50.0,0.0,960.0,3.0,0.0
1323,43.0,0.0,960.0,3.0,0.0
1324,55.0,0.0,240.0,3.0,0.0
1325,59.0,240.0,15.0,2.0,0.0
1326,59.0,0.0,15.0,2.0,0.0
1327,55.0,240.0,15.0,3.0,0.0
1328,72.0,0.0,960.0,0.0,0.0
1329,63.0,0.0,240.0,2.0,0.0
1330,55.0,0.0,240.0,3.0,0.0
1331,63.0,0.0,240.0,2.0,0.0
1332,60.0,240.0,15.0,2.0,0.0
1333,60.0,0.0,15.0,2.0,0.0
1334,63.0,0.0,240.0,2.0,0.0
1335,55.0,240.0,15.0,3.0,0.0
1336,71.0,0.0,960.0,0.0,0.0
1337,59.0,0.0,15.0,2.0,0.0
1338,62.0,0.0,15.0,2.0,0.0
1339,55.0,240.0,15.0,3.0,0.0
1340,59.0,0.0,15.0,2.0,0.0
1341,55.0,0.0,15.0,3.0,0.0
1342,62.0,240.0,15.0,2.0,0.0
1343,66.0,480.0,960.0,0.0,0.0
1344,57.0,0.0,240.0,2.0,0.0
1345,55.0,0.0,240.0,3.0,0.0
1346,60.0,240.0,15.0,2.0,0.0
1347,55.0,240.0,240.0,3.0,0.0
1348,57.0,0.0,240.0,2.0,0.0
1349,57.0,0.0,240.0,2.0,0.0
1350,55.0,0.0,240.0,3.0,0.0
1351,60.0,0.0,240.0,2.0,0.0
1352,67.0,0.0,960.0,0.0,0.0
1353,55.0,0.0,240.0,2.0,0.0
1354,59.0,0.0,240.0,2.0,0.0
1355,55.0,0.0,240.0,2.0,0.0
1356,59.0,0.0,240.0,2.0,0.0
1357,43.0,240.0,15.0,3.0,0.0
1358,55.0,0.0,240.0,2.0,0.0
1359,59.0,0.0,240.0,2.0,0.0
1360,43.0,240.0,15.0,3.0,0.0
1361,65.0,480.0,960.0,0.0,0.0
1362,57.0,0.0,240.0,2.0,0.0
1363,60.0,0.0,15.0,2.0,0.0
1364,43.0,240.0,15.0,3.0,0.0
1365,43.0,0.0,15.0,3.0,0.0
1366,60.0,0.0,240.0,2.0,0.0
1367,57.0,240.0,15.0,2.0,0.0
1368,64.0,0.0,960.0,0.0,0.0
1369,55.0,0.0,240.0,2.0,0.0
1370,43.0,0.0,240.0,3.0,0.0
1371,60.0,240.0,15.0,2.0,0.0
1372,31.0,0.0,15.0,3.0,0.0
1373,55.0,0.0,15.0,2.0,0.0
1374,60.0,240.0,15.0,2.0,0.0
1375,31.0,0.0,15.0,3.0,0.0
1376,43.0,0.0,15.0,3.0,0.0
1377,62.0,0.0,960.0,0.0,0.0
1378,43.0,0.0,240.0,3.0,0.0
1379,31.0,0.0,240.0,3.0,0.0
1380,43.0,0.0,240.0,3.0,0.0
1381,53.0,240.0,15.0,2.0,0.0
1382,59.0,0.0,15.0,2.0,0.0
1383,43.0,0.0,240.0,3.0,0.0
1384,31.0,0.0,15.0,3.0,0.0
1385,53.0,240.0,15.0,2.0,0.0
1386,59.0,0.0,15.0,2.0,0.0
1387,67.0,0.0,960.0,0.0,0.0
1388,55.0,0.0,960.0,1.0,0.0
1389,36.0,120.0,120.0,3.0,0.0
1390,38.0,120.0,120.0,3.0,0.0
1391,40.0,120.0,120.0,3.0,0.0
1392,41.0,120.0,120.0,3.0,0.0
1393,43.0,120.0,120.0,3.0,0.0
1394,45.0,120.0,120.0,3.0,0.0
1395,47.0,0.0,120.0,3.0,0.0
1396,64.0,120.0,15.0,1.0,0.0
1397,60.0,0.0,15.0,1.0,0.0
1398,72.0,0.0,960.0,0.0,0.0
1399,48.0,120.0,120.0,3.0,0.0
1400,67.0,0.0,960.0,1.0,0.0
1401,50.0,120.0,120.0,3.0,0.0
1402,52.0,120.0,120.0,3.0,0.0
1403,53.0,120.0,120.0,3.0,0.0
1404,55.0,120.0,120.0,3.0,0.0
1405,57.0,120.0,120.0,3.0,0.0
1406,59.0,120.0,120.0,3.0,0.0
1407,60.0,0.0,120.0,3.0,0.0
1408,69.0,0.0,960.0,0.0,0.0
1409,36.0,120.0,120.0,3.0,0.0
1410,38.0,120.0,120.0,3.0,0.0
1411,40.0,120.0,120.0,3.0,0.0
1412,41.0,120.0,120.0,3.0,0.0
1413,43.0,120.0,120.0,3.0,0.0
1414,45.0,120.0,120.0,3.0,0.0
1415,47.0,0.0,120.0,3.0,0.0
1416,74.0,0.0,960.0,0.0,0.0
1417,48.0,120.0,120.0,3.0,0.0
1418,65.0,120.0,15.0,1.0,0.0
1419,69.0,0.0,960.0,1.0,0.0
1420,50.0,120.0,120.0,3.0,0.0
1421,52.0,120.0,120.0,3.0,0.0
1422,53.0,120.0,120.0,3.0,0.0
1423,55.0,120.0,120.0,3.0,0.0
1424,57.0,120.0,120.0,3.0,0.0
1425,59.0,120.0,120.0,3.0,0.0
1426,60.0,240.0,120.0,3.0,0.0
1427,65.0,0.0,15.0,1.0,0.0
1428,67.0,0.0,960.0,1.0,0.0
1429,71.0,120.0,960.0,0.0,0.0
1430,48.0,120.0,120.0,3.0,0.0
1431,50.0,120.0,120.0,3.0,0.0
1432,52.0,120.0,120.0,3.0,0.0
1433,53.0,120.0,120.0,3.0,0.0
1434,55.0,120.0,120.0,3.0,0.0
1435,57.0,120.0,120.0,3.0,0.0
1436,59.0,0.0,120.0,3.0,0.0
1437,60.0,120.0,120.0,3.0,0.0
1438,77.0,0.0,240.0,1.0,0.0
1439,74.0,120.0,240.0,1.0,0.0
1440,79.0,0.0,240.0,0.0,0.0
1441,62.0,0.0,120.0,3.0,0.0
1442,64.0,120.0,120.0,3.0,0.0
1443,65.0,120.0,120.0,3.0,0.0
1444,77.0,0.0,240.0,1.0,0.0
1445,79.0,0.0,240.0,0.0,0.0
1446,67.0,120.0,120.0,3.0,0.0
1447,74.0,0.0,240.0,1.0,0.0
1448,69.0,120.0,120.0,3.0,0.0
1449,70.0,120.0,120.0,3.0,0.0
1450,71.0,720.0,120.0,3.0,0.0
1451,79.0,120.0,720.0,0.0,0.0
1452,72.0,0.0,1440.0,3.0,0.0
1453,76.0,600.0,1440.0,1.0,0.0
1454,81.0,120.0,120.0,0.0,0.0
1455,83.0,360.0,120.0,0.0,0.0
1456,84.0,120.0,360.0,0.0,0.0
1457,76.0,120.0,120.0,0.0,0.0
1458,72.0,120.0,120.0,0.0,0.0
1459,77.0,120.0,120.0,0.0,0.0
1460,74.0,120.0,120.0,0.0,0.0
1461,79.0,120.0,120.0,0.0,0.0
1462,76.0,120.0,120.0,0.0,0.0
1463,81.0,120.0,120.0,0.0,0.0
1464,77.0,120.0,120.0,0.0,0.0
1465,64.0,120.0,120.0,3.0,0.0
1466,79.0,120.0,360.0,0.0,0.0
1467,60.0,120.0,120.0,3.0,0.0
1468,65.0,0.0,120.0,3.0,0.0
1469,62.0,120.0,120.0,3.0,0.0
1470,67.0,120.0,120.0,3.0,0.0
1471,64.0,120.0,120.0,3.0,0.0
1472,69.0,120.0,120.0,3.0,0.0
1473,65.0,120.0,120.0,3.0,0.0
1474,67.0,0.0,360.0,3.0,0.0
1475,52.0,120.0,120.0,0.0,0.0
1476,48.0,120.0,120.0,0.0,0.0
1477,53.0,120.0,120.0,0.0,0.0
1478,50.0,120.0,120.0,0.0,0.0
1479,55.0,120.0,120.0,0.0,0.0
1480,52.0,120.0,120.0,0.0,0.0
1481,57.0,120.0,120.0,0.0,0.0
1482,53.0,120.0,120.0,0.0,0.0
1483,55.0,0.0,360.0,0.0,0.0
1484,40.0,120.0,120.0,3.0,0.0
1485,36.0,120.0,120.0,3.0,0.0
1486,41.0,120.0,120.0,3.0,0.0
1487,38.0,120.0,120.0,3.0,0.0
1488,43.0,120.0,120.0,3.0,0.0
1489,40.0,120.0,120.0,3.0,0.0
1490,45.0,120.0,120.0,3.0,0.0
1491,42.0,720.0,120.0,3.0,0.0
1492,43.0,0.0,1920.0,3.0,0.0
1493,55.0,40.0,1680.0,0.0,0.0
1494,64.0,240.0,240.0,0.0,0.0
1495,52.0,240.0,240.0,3.0,0.0
1496,60.0,0.0,240.0,0.0,0.0
1497,47.0,240.0,240.0,3.0,0.0
1498,65.0,0.0,240.0,0.0,0.0
1499,62.0,0.0,240.0,0.0,0.0
1500,50.0,240.0,240.0,3.0,0.0
1501,59.0,240.0,240.0,0.0,0.0
1502,53.0,0.0,480.0,3.0,0.0
1503,67.0,0.0,240.0,0.0,0.0
1504,43.0,40.0,30.0,3.0,0.0
1505,48.0,40.0,30.0,3.0,0.0
1506,52.0,180.0,30.0,3.0,0.0
1507,55.0,7.0,1800.0,3.0,0.0
1508,69.0,60.0,60.0,0.0,0.0
1509,67.0,60.0,60.0,0.0,0.0
1510,66.0,300.0,60.0,0.0,0.0
1511,67.0,58.0,1500.0,0.0,0.0
1512,76.0,240.0,240.0,0.0,0.0
1513,72.0,240.0,240.0,0.0,0.0
1514,64.0,0.0,240.0,3.0,0.0
1515,59.0,0.0,240.0,3.0,0.0
1516,77.0,240.0,240.0,0.0,0.0
1517,74.0,0.0,240.0,0.0,0.0
1518,62.0,240.0,240.0,3.0,0.0
1519,71.0,240.0,240.0,0.0,0.0
1520,65.0,0.0,480.0,3.0,0.0
1521,79.0,0.0,240.0,0.0,0.0
1522,64.0,0.0,480.0,3.0,0.0
1523,60.0,240.0,480.0,3.0,0.0
1524,79.0,120.0,720.0,0.0,0.0
1525,67.0,415.0,60.0,1.0,0.0
1526,52.0,0.0,480.0,3.0,0.0
1527,77.0,120.0,120.0,0.0,0.0
1528,76.0,240.0,120.0,0.0,0.0
1529,53.0,240.0,480.0,3.0,0.0
1530,69.0,240.0,720.0,1.0,0.0
1531,74.0,240.0,240.0,0.0,0.0
1532,72.0,0.0,240.0,0.0,0.0
1533,54.0,960.0,480.0,3.0,0.0
1534,71.0,0.0,240.0,0.0,0.0
1535,69.0,0.0,240.0,0.0,0.0
1536,67.0,0.0,1920.0,0.0,0.0
1537,60.0,0.0,1440.0,1.0,0.0
1538,55.0,0.0,960.0,3.0,0.0
1539,63.0,480.0,480.0,1.0,0.0
1540,43.0,480.0,960.0,3.0,0.0
1541,54.0,480.0,480.0,2.0,0.0
1542,62.0,0.0,960.0,1.0,0.0
1543,53.0,0.0,480.0,2.0,0.0
1544,59.0,0.0,480.0,1.0,0.0
1545,52.0,240.0,480.0,2.0,0.0
1546,55.0,240.0,960.0,1.0,0.0
1547,60.0,0.0,960.0,1.0,0.0
1548,48.0,0.0,480.0,3.0,0.0
1549,67.0,120.0,720.0,0.0,0.0
1550,40.0,0.0,480.0,3.0,0.0
1551,65.0,120.0,120.0,0.0,0.0
1552,64.0,0.0,120.0,0.0,0.0
1553,62.0,240.0,240.0,0.0,0.0
1554,57.0,0.0,720.0,1.0,0.0
1555,41.0,0.0,480.0,3.0,0.0
1556,60.0,240.0,240.0,0.0,0.0
1557,42.0,0.0,480.0,3.0,0.0
1558,59.0,240.0,240.0,0.0,0.0
1559,57.0,480.0,240.0,0.0,0.0
1560,43.0,0.0,960.0,3.0,0.0
1561,52.0,480.0,480.0,1.0,0.0
1562,48.0,0.0,1440.0,1.0,0.0
1563,55.0,0.0,1920.0,0.0,0.0
1564,51.0,480.0,480.0,1.0,0.0
1565,31.0,240.0,960.0,3.0,0.0
1566,42.0,480.0,480.0,2.0,0.0
1567,50.0,0.0,960.0,1.0,0.0
1568,41.0,0.0,480.0,2.0,0.0
1569,47.0,0.0,480.0,1.0,0.0
1570,48.0,0.0,960.0,1.0,0.0
1571,51.0,0.0,960.0,0.0,0.0
1572,32.0,120.0,120.0,3.0,0.0
1573,34.0,120.0,120.0,3.0,0.0
1574,36.0,120.0,120.0,3.0,0.0
1575,37.0,120.0,120.0,3.0,0.0
1576,39.0,120.0,120.0,3.0,0.0
1577,41.0,120.0,120.0,3.0,0.0
1578,43.0,120.0,120.0,3.0,0.0
1579,48.0,0.0,960.0,1.0,0.0
1580,51.0,240.0,960.0,1.0,0.0
1581,56.0,0.0,960.0,0.0,0.0
1582,44.0,240.0,120.0,3.0,0.0
1583,44.0,240.0,120.0,3.0,0.0
1584,44.0,240.0,120.0,3.0,0.0
1585,44.0,120.0,120.0,3.0,0.0
1586,49.0,0.0,960.0,1.0,0.0
1587,46.0,120.0,960.0,1.0,0.0
1588,55.0,0.0,960.0,0.0,0.0
1589,32.0,120.0,120.0,3.0,0.0
1590,34.0,120.0,120.0,3.0,0.0
1591,36.0,120.0,120.0,3.0,0.0
1592,37.0,120.0,120.0,3.0,0.0
1593,39.0,120.0,120.0,3.0,0.0
1594,41.0,120.0,120.0,3.0,0.0
1595,43.0,0.0,120.0,3.0,0.0
1596,51.0,0.0,960.0,1.0,0.0
1597,61.0,240.0,960.0,0.0,0.0
1598,58.0,0.0,960.0,1.0,0.0
1599,55.0,0.0,960.0,1.0,0.0
1600,44.0,240.0,120.0,3.0,0.0
1601,44.0,240.0,120.0,3.0,0.0
1602,44.0,240.0,120.0,3.0,0.0
1603,44.0,120.0,120.0,3.0,0.0
1604,44.0,0.0,2880.0,3.0,0.0
1605,51.0,120.0,960.0,3.0,0.0
1606,60.0,120.0,120.0,0.0,0.0
1607,61.0,120.0,120.0,0.0,0.0
1608,63.0,120.0,120.0,0.0,0.0
1609,65.0,120.0,120.0,0.0,0.0
1610,67.0,120.0,120.0,0.0,0.0
1611,68.0,120.0,120.0,0.0,0.0
1612,70.0,0.0,120.0,0.0,0.0
1613,72.0,240.0,120.0,0.0,0.0
1614,56.0,240.0,960.0,3.0,0.0
1615,73.0,120.0,120.0,0.0,0.0
1616,75.0,120.0,120.0,0.0,0.0
1617,77.0,120.0,120.0,0.0,0.0
1618,79.0,120.0,120.0,0.0,0.0
1619,80.0,120.0,120.0,0.0,0.0
1620,82.0,0.0,120.0,0.0,0.0
1621,84.0,360.0,240.0,0.0,0.0
1622,54.0,0.0,1920.0,3.0,0.0
1623,71.0,120.0,120.0,0.0,0.0
1624,72.0,120.0,120.0,0.0,0.0
1625,71.0,120.0,120.0,0.0,0.0
1626,72.0,120.0,120.0,0.0,0.0
1627,59.0,120.0,120.0,0.0,0.0
1628,44.0,0.0,960.0,3.0,0.0
1629,60.0,120.0,120.0,0.0,0.0
1630,59.0,120.0,120.0,0.0,0.0
1631,60.0,120.0,120.0,0.0,0.0
1632,59.0,120.0,120.0,0.0,0.0
1633,60.0,120.0,120.0,0.0,0.0
1634,63.0,120.0,120.0,0.0,0.0
1635,60.0,240.0,120.0,0.0,0.0
1636,43.0,0.0,240.0,3.0,0.0
1637,55.0,240.0,240.0,3.0,0.0
1638,59.0,240.0,480.0,0.0,0.0
1639,43.0,0.0,240.0,3.0,0.0
1640,43.0,240.0,240.0,3.0,0.0
1641,55.0,0.0,480.0,0.0,0.0
1642,43.0,240.0,240.0,3.0,0.0
1643,63.0,0.0,960.0,0.0,0.0
1644,43.0,240.0,240.0,3.0,0.0
1645,54.0,0.0,960.0,2.0,0.0
1646,48.0,240.0,960.0,2.0,0.0
1647,43.0,240.0,240.0,3.0,0.0
1648,43.0,240.0,240.0,3.0,0.0
1649,55.0,0.0,960.0,2.0,0.0
1650,47.0,0.0,960.0,2.0,0.0
1651,43.0,0.0,15.0,3.0,0.0
1652,62.0,0.0,480.0,0.0,0.0
1653,43.0,240.0,15.0,3.0,0.0
1654,59.0,240.0,480.0,0.0,0.0
1655,43.0,240.0,15.0,3.0,0.0
1656,43.0,0.0,240.0,3.0,0.0
1657,43.0,240.0,240.0,3.0,0.0
1658,51.0,240.0,960.0,2.0,0.0
1659,57.0,120.0,720.0,1.0,0.0
1660,66.0,0.0,960.0,0.0,0.0
1661,43.0,240.0,15.0,3.0,0.0
1662,59.0,120.0,120.0,1.0,0.0
1663,60.0,0.0,120.0,1.0,0.0
1664,43.0,0.0,15.0,3.0,0.0
1665,67.0,0.0,960.0,0.0,0.0
1666,59.0,240.0,480.0,1.0,0.0
1667,50.0,0.0,960.0,2.0,0.0
1668,43.0,240.0,15.0,3.0,0.0
1669,55.0,240.0,480.0,1.0,0.0
1670,43.0,240.0,240.0,3.0,0.0
1671,43.0,0.0,240.0,3.0,0.0
1672,66.0,0.0,960.0,2.0,0.0
1673,75.0,0.0,960.0,0.0,0.0
1674,60.0,0.0,960.0,2.0,0.0
1675,55.0,240.0,15.0,3.0,0.0
1676,55.0,240.0,15.0,3.0,0.0
1677,74.0,240.0,480.0,0.0,0.0
1678,67.0,240.0,960.0,2.0,0.0
1679,59.0,0.0,960.0,2.0,0.0
1680,55.0,240.0,15.0,3.0,0.0
1681,55.0,240.0,15.0,3.0,0.0
1682,55.0,0.0,15.0,3.0,0.0
1683,71.0,0.0,480.0,0.0,0.0
1684,55.0,0.0,240.0,3.0,0.0
1685,69.0,120.0,720.0,1.0,0.0
1686,63.0,240.0,960.0,2.0,0.0
1687,78.0,0.0,960.0,0.0,0.0
1688,55.0,240.0,15.0,3.0,0.0
1689,55.0,240.0,15.0,3.0,0.0
1690,55.0,0.0,15.0,3.0,0.0
1691,71.0,120.0,120.0,1.0,0.0
1692,72.0,0.0,120.0,1.0,0.0
1693,62.0,0.0,960.0,2.0,0.0
1694,71.0,240.0,480.0,1.0,0.0
1695,79.0,0.0,960.0,0.0,0.0
1696,55.0,240.0,15.0,3.0,0.0
1697,55.0,240.0,240.0,3.0,0.0
1698,67.0,0.0,480.0,1.0,0.0
1699,55.0,240.0,240.0,3.0,0.0
1700,69.0,0.0,960.0,2.0,0.0
1701,63.0,0.0,960.0,2.0,0.0
1702,78.0,0.0,960.0,0.0,0.0
1703,72.0,0.0,720.0,1.0,0.0
1704,60.0,288.0,960.0,2.0,0.0
1705,55.0,240.0,15.0,3.0,0.0
1706,74.0,120.0,120.0,1.0,0.0
1707,55.0,120.0,15.0,3.0,0.0
1708,75.0,0.0,120.0,1.0,0.0
1709,59.0,0.0,300.0,2.0,0.0
1710,74.0,0.0,300.0,1.0,0.0
1711,71.0,72.0,300.0,1.0,0.0
1712,71.0,0.0,300.0,2.0,0.0
1713,55.0,888.0,360.0,3.0,0.0
1714,62.0,0.0,300.0,2.0,0.0
1715,79.0,0.0,300.0,0.0,0.0
1716,55.0,0.0,300.0,2.0,0.0
1717,62.0,72.0,300.0,1.0,0.0
1718,59.0,0.0,300.0,1.0,0.0
1719,47.0,0.0,300.0,2.0,0.0
1720,43.0,888.0,360.0,3.0,0.0
1721,50.0,0.0,300.0,2.0,0.0
1722,67.0,0.0,300.0,0.0,0.0
1723,55.0,0.0,300.0,0.0,0.0
1724,47.0,72.0,300.0,1.0,0.0
1725,43.0,0.0,300.0,2.0,0.0
1726,31.0,840.0,360.0,3.0,0.0
1727,50.0,0.0,300.0,1.0,0.0
1728,79.0,240.0,240.0,0.0,0.0
1729,77.0,240.0,240.0,0.0,0.0
1730,76.0,240.0,240.0,0.0,0.0
1731,74.0,960.0,240.0,0.0,0.0
1732,72.0,360.0,960.0,0.0,0.0
1733,73.0,480.0,360.0,0.0,0.0
1734,74.0,480.0,360.0,0.0,0.0
1735,75.0,480.0,360.0,0.0,0.0
1736,76.0,480.0,360.0,0.0,0.0
1737,77.0,480.0,360.0,0.0,0.0
1738,79.0,600.0,360.0,0.0,0.0
1739,80.0,960.0,480.0,0.0,0.0
1740,81.0,480.0,960.0,0.0,0.0
1741,61.0,480.0,960.0,3.0,0.0
1742,69.0,40.0,1920.0,2.0,0.0
1743,64.0,0.0,960.0,2.0,0.0
1744,79.0,435.0,960.0,0.0,0.0
1745,62.0,0.0,960.0,3.0,0.0
1746,65.0,0.0,960.0,2.0,0.0
1747,77.0,45.0,420.0,0.0,0.0
1748,76.0,40.0,30.0,0.0,0.0
1749,77.0,40.0,30.0,0.0,0.0
1750,79.0,135.0,30.0,0.0,0.0
1751,77.0,225.0,120.0,0.0,0.0
1752,76.0,240.0,240.0,0.0,0.0
1753,74.0,240.0,240.0,0.0,0.0
1754,72.0,960.0,240.0,0.0,0.0
1755,71.0,360.0,960.0,0.0,0.0
1756,72.0,480.0,360.0,0.0,0.0
1757,73.0,480.0,360.0,0.0,0.0
1758,74.0,480.0,360.0,0.0,0.0
1759,75.0,480.0,360.0,0.0,0.0
1760,76.0,480.0,360.0,0.0,0.0
1761,77.0,600.0,360.0,0.0,0.0
1762,78.0,960.0,480.0,0.0,0.0
1763,79.0,480.0,960.0,0.0,0.0
1764,59.0,0.0,960.0,3.0,0.0
1765,62.0,480.0,960.0,2.0,0.0
1766,77.0,480.0,960.0,0.0,0.0
1767,64.0,0.0,960.0,2.0,0.0
1768,60.0,0.0,960.0,3.0,0.0
1769,76.0,0.0,480.0,0.0,0.0
1770,67.0,240.0,15.0,2.0,0.0
1771,65.0,240.0,240.0,2.0,0.0
1772,64.0,240.0,240.0,2.0,0.0
1773,62.0,960.0,240.0,2.0,0.0
1774,60.0,240.0,960.0,2.0,0.0
1775,55.0,120.0,240.0,0.0,0.0
1776,61.0,120.0,360.0,2.0,0.0
1777,53.0,240.0,240.0,0.0,0.0
1778,52.0,120.0,240.0,0.0,0.0
1779,62.0,120.0,360.0,2.0,0.0
1780,50.0,360.0,240.0,0.0,0.0
1781,63.0,480.0,360.0,2.0,0.0
1782,49.0,240.0,960.0,0.0,0.0
1783,64.0,120.0,360.0,2.0,0.0
1784,65.0,120.0,360.0,2.0,0.0
1785,79.0,120.0,240.0,0.0,0.0
1786,77.0,240.0,240.0,0.0,0.0
1787,76.0,120.0,240.0,0.0,0.0
1788,67.0,120.0,360.0,2.0,0.0
1789,74.0,480.0,240.0,0.0,0.0
1790,68.0,480.0,480.0,2.0,0.0
1791,57.0,480.0,1920.0,3.0,0.0
1792,73.0,480.0,960.0,0.0,0.0
1793,69.0,480.0,960.0,2.0,0.0
1794,73.0,0.0,1440.0,1.0,0.0
1795,82.0,0.0,1440.0,0.0,0.0
1796,76.0,480.0,1440.0,1.0,0.0
1797,67.0,0.0,960.0,2.0,0.0
1798,62.0,0.0,960.0,3.0,0.0
1799,65.0,240.0,480.0,2.0,0.0
1800,74.0,0.0,480.0,1.0,0.0
1801,77.0,0.0,480.0,1.0,0.0
1802,81.0,0.0,480.0,0.0,0.0
1803,65.0,240.0,240.0,2.0,0.0
1804,64.0,240.0,240.0,2.0,0.0
1805,62.0,240.0,240.0,2.0,0.0
1806,60.0,960.0,240.0,2.0,0.0
1807,59.0,240.0,960.0,2.0,0.0
1808,60.0,120.0,360.0,2.0,0.0
1809,53.0,120.0,240.0,0.0,0.0
1810,52.0,240.0,240.0,0.0,0.0
1811,61.0,120.0,360.0,2.0,0.0
1812,50.0,120.0,240.0,0.0,0.0
1813,48.0,360.0,240.0,0.0,0.0
1814,62.0,480.0,360.0,2.0,0.0
1815,47.0,240.0,960.0,0.0,0.0
1816,64.0,120.0,360.0,2.0,0.0
1817,77.0,120.0,240.0,0.0,0.0
1818,65.0,120.0,360.0,2.0,0.0
1819,76.0,240.0,240.0,0.0,0.0
1820,66.0,480.0,960.0,2.0,0.0
1821,74.0,240.0,240.0,0.0,0.0
1822,72.0,480.0,240.0,0.0,0.0
1823,71.0,480.0,960.0,0.0,0.0
1824,55.0,480.0,1920.0,3.0,0.0
1825,67.0,480.0,960.0,2.0,0.0
1826,71.0,480.0,1440.0,1.0,0.0
1827,80.0,0.0,1440.0,0.0,0.0
1828,74.0,0.0,1440.0,1.0,0.0
1829,65.0,0.0,960.0,2.0,0.0
1830,60.0,0.0,960.0,3.0,0.0
1831,72.0,480.0,480.0,1.0,0.0
1832,76.0,0.0,480.0,1.0,0.0
1833,64.0,0.0,480.0,2.0,0.0
1834,79.0,0.0,480.0,0.0,0.0
1835,55.0,240.0,240.0,3.0,0.0
1836,60.0,240.0,240.0,2.0,0.0
1837,52.0,0.0,15.0,3.0,0.0
1838,67.0,0.0,240.0,0.0,0.0
1839,55.0,0.0,240.0,3.0,0.0
1840,67.0,80.0,240.0,0.0,0.0
1841,53.0,240.0,480.0,3.0,0.0
1842,59.0,0.0,960.0,2.0,0.0
1843,55.0,0.0,240.0,3.0,0.0
1844,69.0,80.0,90.0,0.0,0.0
1845,67.0,80.0,90.0,0.0,0.0
1846,66.0,0.0,90.0,0.0,0.0
1847,53.0,0.0,480.0,3.0,0.0
1848,67.0,240.0,240.0,0.0,0.0
1849,71.0,240.0,240.0,0.0,0.0
1850,55.0,0.0,240.0,3.0,0.0
1851,72.0,0.0,240.0,0.0,0.0
1852,60.0,240.0,240.0,2.0,0.0
1853,52.0,0.0,480.0,3.0,0.0
1854,55.0,240.0,240.0,3.0,0.0
1855,52.0,0.0,480.0,3.0,0.0
1856,67.0,0.0,240.0,0.0,0.0
1857,60.0,240.0,240.0,2.0,0.0
1858,55.0,240.0,240.0,3.0,0.0
1859,67.0,80.0,240.0,0.0,0.0
1860,53.0,0.0,480.0,3.0,0.0
1861,59.0,0.0,960.0,2.0,0.0
1862,55.0,0.0,240.0,3.0,0.0
1863,69.0,80.0,90.0,0.0,0.0
1864,67.0,80.0,90.0,0.0,0.0
1865,66.0,240.0,90.0,0.0,0.0
1866,67.0,240.0,240.0,0.0,0.0
1867,53.0,240.0,480.0,3.0,0.0
1868,71.0,0.0,240.0,0.0,0.0
1869,55.0,0.0,240.0,3.0,0.0
1870,60.0,480.0,480.0,2.0,0.0
1871,72.0,240.0,240.0,0.0,0.0
1872,52.0,0.0,480.0,3.0,0.0
1873,55.0,0.0,240.0,3.0,0.0
1874,52.0,0.0,480.0,3.0,0.0
1875,61.0,0.0,480.0,2.0,0.0
1876,73.0,480.0,480.0,0.0,0.0
1877,55.0,0.0,240.0,3.0,0.0
1878,53.0,0.0,480.0,3.0,0.0
1879,74.0,0.0,480.0,0.0,0.0
1880,62.0,0.0,480.0,1.0,0.0
1881,57.0,480.0,240.0,2.0,0.0
1882,64.0,480.0,480.0,1.0,0.0
1883,53.0,0.0,480.0,3.0,0.0
1884,76.0,0.0,480.0,0.0,0.0
1885,57.0,0.0,240.0,2.0,0.0
1886,65.0,0.0,480.0,1.0,0.0
1887,77.0,0.0,480.0,0.0,0.0
1888,59.0,0.0,240.0,2.0,0.0
1889,67.0,0.0,480.0,1.0,0.0
1890,55.0,480.0,15.0,3.0,0.0
1891,79.0,0.0,480.0,0.0,0.0
1892,59.0,480.0,240.0,2.0,0.0
1893,65.0,0.0,960.0,1.0,0.0
1894,77.0,240.0,960.0,0.0,0.0
1895,48.0,0.0,1440.0,3.0,0.0
1896,55.0,240.0,240.0,2.0,0.0
1897,59.0,240.0,240.0,2.0,0.0
1898,55.0,0.0,240.0,2.0,0.0
1899,76.0,0.0,240.0,0.0,0.0
1900,60.0,240.0,240.0,2.0,0.0
1901,64.0,0.0,240.0,1.0,0.0
1902,55.0,240.0,240.0,2.0,0.0
1903,79.0,240.0,240.0,0.0,0.0
1904,52.0,0.0,480.0,3.0,0.0
1905,67.0,0.0,240.0,1.0,0.0
1906,60.0,0.0,240.0,2.0,0.0
1907,55.0,240.0,240.0,2.0,0.0
1908,79.0,80.0,240.0,0.0,0.0
1909,71.0,240.0,960.0,1.0,0.0
1910,62.0,0.0,960.0,2.0,0.0
1911,81.0,80.0,90.0,0.0,0.0
1912,55.0,0.0,240.0,3.0,0.0
1913,79.0,80.0,90.0,0.0,0.0
1914,78.0,0.0,90.0,0.0,0.0
1915,79.0,240.0,240.0,0.0,0.0
1916,53.0,240.0,15.0,3.0,0.0
1917,83.0,0.0,240.0,0.0,0.0
1918,55.0,0.0,240.0,3.0,0.0
1919,84.0,0.0,240.0,0.0,0.0
1920,60.0,0.0,240.0,2.0,0.0
1921,72.0,240.0,240.0,1.0,0.0
1922,55.0,240.0,240.0,3.0,0.0
1923,79.0,0.0,240.0,0.0,0.0
1924,52.0,0.0,15.0,3.0,0.0
1925,67.0,0.0,240.0,1.0,0.0
1926,60.0,240.0,240.0,2.0,0.0
1927,55.0,0.0,240.0,3.0,0.0
1928,71.0,0.0,960.0,1.0,0.0
1929,53.0,0.0,480.0,3.0,0.0
1930,62.0,0.0,960.0,2.0,0.0
1931,79.0,80.0,240.0,0.0,0.0
1932,55.0,240.0,240.0,3.0,0.0
1933,81.0,80.0,90.0,0.0,0.0
1934,79.0,80.0,90.0,0.0,0.0
1935,78.0,0.0,90.0,0.0,0.0
1936,79.0,240.0,240.0,0.0,0.0
1937,53.0,240.0,480.0,3.0,0.0
1938,83.0,0.0,240.0,0.0,0.0
1939,55.0,0.0,240.0,3.0,0.0
1940,60.0,0.0,480.0,2.0,0.0
1941,52.0,480.0,480.0,3.0,0.0
1942,84.0,0.0,240.0,0.0,0.0
1943,72.0,240.0,240.0,1.0,0.0
1944,55.0,0.0,240.0,3.0,0.0
1945,73.0,0.0,480.0,1.0,0.0
1946,52.0,0.0,480.0,3.0,0.0
1947,61.0,0.0,480.0,2.0,0.0
1948,82.0,0.0,480.0,0.0,0.0
1949,55.0,480.0,240.0,3.0,0.0
1950,74.0,480.0,480.0,1.0,0.0
1951,62.0,0.0,960.0,2.0,0.0
1952,81.0,0.0,480.0,0.0,0.0
1953,57.0,0.0,240.0,3.0,0.0
1954,76.0,0.0,480.0,0.0,0.0
1955,53.0,0.0,15.0,3.0,0.0
1956,64.0,0.0,480.0,1.0,0.0
1957,57.0,0.0,240.0,3.0,0.0
1958,65.0,0.0,480.0,1.0,0.0
1959,77.0,0.0,480.0,0.0,0.0
1960,50.0,240.0,240.0,2.0,0.0
1961,43.0,0.0,480.0,3.0,0.0
1962,55.0,240.0,240.0,2.0,0.0
1963,71.0,0.0,480.0,0.0,0.0
1964,59.0,0.0,480.0,1.0,0.0
1965,50.0,240.0,240.0,2.0,0.0
1966,43.0,240.0,480.0,3.0,0.0
1967,55.0,0.0,240.0,2.0,0.0
1968,48.0,0.0,240.0,3.0,0.0
1969,52.0,0.0,240.0,2.0,0.0
1970,72.0,480.0,240.0,0.0,0.0
1971,60.0,0.0,240.0,1.0,0.0
1972,64.0,0.0,240.0,1.0,0.0
1973,67.0,1040.0,240.0,0.0,0.0
1974,65.0,473.0,1200.0,1.0,0.0
1975,68.0,0.0,1200.0,0.0,0.0
1976,59.0,0.0,480.0,1.0,0.0
1977,43.0,80.0,90.0,3.0,0.0
1978,45.0,80.0,90.0,3.0,0.0
1979,47.0,240.0,90.0,3.0,0.0
1980,48.0,7.0,240.0,3.0,0.0
1981,60.0,320.0,1440.0,1.0,0.0
1982,67.0,720.0,240.0,0.0,0.0
1983,64.0,0.0,240.0,1.0,0.0
1984,65.0,473.0,1200.0,1.0,0.0
1985,69.0,7.0,1200.0,0.0,0.0
1986,59.0,240.0,480.0,1.0,0.0
1987,31.0,80.0,90.0,3.0,0.0
1988,33.0,80.0,90.0,3.0,0.0
1989,35.0,0.0,90.0,3.0,0.0
1990,60.0,320.0,1440.0,1.0,0.0
1991,36.0,0.0,240.0,3.0,0.0
1992,64.0,720.0,240.0,1.0,0.0
1993,67.0,0.0,240.0,0.0,0.0
1994,65.0,473.0,1200.0,1.0,0.0
1995,68.0,0.0,1200.0,0.0,0.0
1996,59.0,240.0,480.0,1.0,0.0
1997,43.0,80.0,90.0,3.0,0.0
1998,45.0,80.0,90.0,3.0,0.0
1999,47.0,0.0,90.0,3.0,0.0
2000,48.0,7.0,240.0,3.0,0.0
2001,60.0,320.0,1440.0,1.0,0.0
2002,64.0,720.0,240.0,1.0,0.0
2003,67.0,0.0,240.0,0.0,0.0
2004,69.0,240.0,1440.0,0.0,0.0
2005,65.0,0.0,1440.0,1.0,0.0
2006,59.0,240.0,480.0,1.0,0.0
2007,31.0,80.0,90.0,3.0,0.0
2008,33.0,80.0,90.0,3.0,0.0
2009,35.0,0.0,90.0,3.0,0.0
2010,36.0,240.0,240.0,3.0,0.0
2011,60.0,240.0,1440.0,1.0,0.0
2012,64.0,480.0,240.0,1.0,0.0
2013,55.0,0.0,240.0,2.0,0.0
2014,67.0,0.0,240.0,0.0,0.0
2015,48.0,0.0,240.0,3.0,0.0
2016,50.0,240.0,240.0,3.0,0.0
2017,65.0,0.0,240.0,1.0,0.0
2018,71.0,0.0,240.0,0.0,0.0
2019,55.0,0.0,240.0,2.0,0.0
2020,52.0,0.0,240.0,3.0,0.0
2021,67.0,960.0,240.0,1.0,0.0
2022,55.0,0.0,240.0,2.0,0.0
2023,72.0,0.0,240.0,0.0,0.0
2024,69.0,0.0,960.0,1.0,0.0
2025,65.0,240.0,960.0,1.0,0.0
2026,76.0,240.0,720.0,0.0,0.0
2027,57.0,0.0,960.0,2.0,0.0
2028,62.0,0.0,960.0,2.0,0.0
2029,53.0,0.0,960.0,3.0,0.0
2030,74.0,0.0,240.0,0.0,0.0
2031,55.0,0.0,240.0,3.0,0.0
2032,64.0,0.0,240.0,2.0,0.0
2033,67.0,0.0,240.0,1.0,0.0
2034,72.0,480.0,240.0,0.0,0.0
2035,71.0,0.0,240.0,0.0,0.0
2036,62.0,0.0,240.0,2.0,0.0
2037,67.0,0.0,240.0,1.0,0.0
2038,55.0,480.0,240.0,3.0,0.0
2039,67.0,480.0,240.0,0.0,0.0
2040,72.0,0.0,240.0,0.0,0.0
2041,67.0,480.0,240.0,1.0,0.0
2042,60.0,0.0,240.0,2.0,0.0
2043,52.0,0.0,240.0,3.0,0.0
2044,50.0,0.0,240.0,3.0,0.0
2045,67.0,0.0,240.0,1.0,0.0
2046,59.0,0.0,240.0,2.0,0.0
2047,74.0,480.0,240.0,0.0,0.0
2048,48.0,0.0,240.0,3.0,0.0
2049,67.0,0.0,240.0,1.0,0.0
2050,60.0,960.0,240.0,2.0,0.0
2051,76.0,0.0,240.0,0.0,0.0
2052,69.0,0.0,960.0,1.0,0.0
2053,53.0,240.0,960.0,3.0,0.0
2054,64.0,0.0,720.0,2.0,0.0
2055,79.0,240.0,720.0,0.0,0.0
2056,62.0,0.0,240.0,2.0,0.0
2057,77.0,0.0,240.0,0.0,0.0
2058,67.0,0.0,240.0,1.0,0.0
2059,76.0,0.0,240.0,0.0,0.0
2060,60.0,0.0,240.0,2.0,0.0
2061,55.0,480.0,240.0,3.0,0.0
2062,74.0,0.0,240.0,0.0,0.0
2063,67.0,0.0,240.0,1.0,0.0
2064,59.0,0.0,240.0,2.0,0.0
2065,55.0,480.0,240.0,3.0,0.0
2066,67.0,480.0,240.0,1.0,0.0
2067,79.0,0.0,240.0,0.0,0.0
2068,72.0,0.0,240.0,1.0,0.0
2069,79.0,0.0,240.0,0.0,0.0
2070,52.0,0.0,240.0,3.0,0.0
2071,55.0,0.0,240.0,2.0,0.0
2072,60.0,0.0,240.0,2.0,0.0
2073,67.0,480.0,240.0,1.0,0.0
2074,79.0,0.0,240.0,0.0,0.0
2075,74.0,0.0,240.0,1.0,0.0
2076,67.0,0.0,240.0,1.0,0.0
2077,53.0,0.0,240.0,2.0,0.0
2078,59.0,0.0,240.0,2.0,0.0
2079,71.0,480.0,240.0,1.0,0.0
2080,50.0,0.0,240.0,3.0,0.0
2081,72.0,0.0,240.0,1.0,0.0
2082,60.0,0.0,240.0,2.0,0.0
2083,76.0,0.0,240.0,1.0,0.0
2084,79.0,0.0,240.0,0.0,0.0
2085,67.0,0.0,240.0,1.0,0.0
2086,52.0,720.0,240.0,2.0,0.0
2087,48.0,0.0,240.0,3.0,0.0
2088,45.0,0.0,480.0,2.0,0.0
2089,53.0,0.0,480.0,2.0,0.0
2090,41.0,0.0,480.0,3.0,0.0
2091,68.0,240.0,480.0,1.0,0.0
2092,80.0,0.0,480.0,0.0,0.0
2093,50.0,0.0,480.0,2.0,0.0
2094,81.0,0.0,240.0,0.0,0.0
2095,69.0,1440.0,240.0,1.0,0.0
2096,43.0,480.0,240.0,3.0,0.0
2097,59.0,1680.0,240.0,0.0,0.0
2098,53.0,0.0,240.0,1.0,0.0
2099,36.0,0.0,960.0,3.0,0.0
2100,52.0,0.0,240.0,1.0,0.0
2101,48.0,0.0,240.0,1.0,0.0
2102,60.0,240.0,15.0,0.0,0.0
2103,52.0,0.0,240.0,1.0,0.0
2104,48.0,0.0,15.0,1.0,0.0
2105,52.0,0.0,240.0,1.0,0.0
2106,60.0,480.0,240.0,0.0,0.0
2107,41.0,480.0,960.0,3.0,0.0
2108,48.0,0.0,15.0,1.0,0.0
2109,57.0,0.0,15.0,1.0,0.0
2110,60.0,240.0,15.0,0.0,0.0
2111,60.0,0.0,15.0,0.0,0.0
2112,57.0,240.0,15.0,1.0,0.0
2113,48.0,0.0,15.0,1.0,0.0
2114,40.0,0.0,960.0,3.0,0.0
2115,48.0,0.0,15.0,1.0,0.0
2116,55.0,0.0,15.0,1.0,0.0
2117,60.0,240.0,15.0,0.0,0.0
2118,55.0,0.0,15.0,1.0,0.0
2119,48.0,0.0,240.0,1.0,0.0
2120,60.0,480.0,240.0,0.0,0.0
2121,45.0,0.0,960.0,3.0,0.0
2122,53.0,0.0,15.0,1.0,0.0
2123,48.0,0.0,15.0,1.0,0.0
2124,60.0,240.0,15.0,0.0,0.0
2125,48.0,0.0,240.0,1.0,0.0
2126,53.0,480.0,240.0,1.0,0.0
2127,60.0,0.0,240.0,0.0,0.0
2128,43.0,480.0,960.0,3.0,0.0
2129,60.0,0.0,240.0,0.0,0.0
2130,52.0,0.0,240.0,1.0,0.0
2131,48.0,240.0,15.0,1.0,0.0
2132,52.0,0.0,240.0,1.0,0.0
2133,60.0,0.0,240.0,0.0,0.0
2134,60.0,0.0,240.0,0.0,0.0
2135,48.0,240.0,15.0,1.0,0.0
2136,52.0,0.0,240.0,1.0,0.0
2137,41.0,0.0,960.0,3.0,0.0
2138,60.0,0.0,15.0,0.0,0.0
2139,57.0,0.0,15.0,1.0,0.0
2140,48.0,240.0,15.0,1.0,0.0
2141,48.0,0.0,15.0,1.0,0.0
2142,57.0,240.0,15.0,1.0,0.0
2143,60.0,480.0,240.0,0.0,0.0
2144,40.0,0.0,960.0,3.0,0.0
2145,55.0,0.0,240.0,1.0,0.0
2146,60.0,0.0,15.0,0.0,0.0
2147,48.0,240.0,15.0,1.0,0.0
2148,55.0,0.0,240.0,1.0,0.0
2149,55.0,0.0,240.0,1.0,0.0
2150,60.0,480.0,240.0,0.0,0.0
2151,48.0,0.0,240.0,1.0,0.0
2152,37.0,0.0,960.0,3.0,0.0
2153,25.0,0.0,960.0,3.0,0.0
2154,53.0,240.0,240.0,1.0,0.0
2155,60.0,0.0,240.0,0.0,0.0
2156,48.0,0.0,15.0,1.0,0.0
2157,59.0,0.0,15.0,1.0,0.0
2158,53.0,240.0,240.0,1.0,0.0
2159,48.0,0.0,240.0,1.0,0.0
2160,60.0,0.0,15.0,0.0,0.0
2161,53.0,480.0,240.0,1.0,0.0
2162,59.0,0.0,240.0,1.0,0.0
2163,36.0,480.0,960.0,3.0,0.0
2164,24.0,0.0,960.0,3.0,0.0
2165,48.0,0.0,15.0,1.0,0.0
2166,52.0,0.0,15.0,1.0,0.0
2167,60.0,240.0,15.0,0.0,0.0
2168,60.0,0.0,15.0,0.0,0.0
2169,52.0,0.0,240.0,1.0,0.0
2170,48.0,0.0,240.0,1.0,0.0
2171,38.0,0.0,960.0,3.0,0.0
2172,26.0,0.0,960.0,3.0,0.0
2173,60.0,0.0,240.0,0.0,0.0
2174,48.0,0.0,240.0,1.0,0.0
2175,59.0,240.0,15.0,1.0,0.0
2176,53.0,0.0,15.0,1.0,0.0
2177,48.0,0.0,240.0,1.0,0.0
2178,53.0,480.0,240.0,1.0,0.0
2179,60.0,240.0,15.0,0.0,0.0
2180,48.0,0.0,240.0,1.0,0.0
2181,59.0,0.0,240.0,1.0,0.0
2182,36.0,480.0,960.0,3.0,0.0
2183,24.0,0.0,960.0,3.0,0.0
2184,60.0,240.0,240.0,0.0,0.0
2185,52.0,0.0,240.0,1.0,0.0
2186,48.0,0.0,240.0,1.0,0.0
2187,52.0,0.0,240.0,1.0,0.0
2188,48.0,0.0,15.0,1.0,0.0
2189,52.0,0.0,240.0,1.0,0.0
2190,60.0,240.0,15.0,0.0,0.0
2191,37.0,480.0,960.0,3.0,0.0
2192,25.0,0.0,960.0,3.0,0.0
2193,60.0,0.0,240.0,0.0,0.0
2194,53.0,240.0,15.0,1.0,0.0
2195,59.0,0.0,15.0,1.0,0.0
2196,48.0,0.0,15.0,1.0,0.0
2197,60.0,0.0,15.0,0.0,0.0
2198,48.0,0.0,240.0,1.0,0.0
2199,59.0,0.0,240.0,1.0,0.0
2200,53.0,0.0,240.0,1.0,0.0
2201,24.0,0.0,960.0,3.0,0.0
2202,36.0,0.0,960.0,3.0,0.0
2203,52.0,0.0,240.0,1.0,0.0
2204,60.0,0.0,240.0,0.0,0.0
2205,48.0,240.0,15.0,1.0,0.0
2206,52.0,240.0,15.0,1.0,0.0
2207,60.0,0.0,15.0,0.0,0.0
2208,48.0,0.0,240.0,1.0,0.0
2209,26.0,0.0,960.0,3.0,0.0
2210,38.0,480.0,960.0,3.0,0.0
2211,60.0,240.0,15.0,0.0,0.0
2212,53.0,0.0,15.0,1.0,0.0
2213,59.0,0.0,15.0,1.0,0.0
2214,48.0,0.0,15.0,1.0,0.0
2215,60.0,0.0,15.0,0.0,0.0
2216,48.0,240.0,15.0,1.0,0.0
2217,59.0,0.0,240.0,1.0,0.0
2218,53.0,0.0,240.0,1.0,0.0
2219,60.0,0.0,15.0,0.0,0.0
2220,55.0,0.0,240.0,3.0,0.0
2221,52.0,0.0,240.0,3.0,0.0
2222,55.0,0.0,240.0,3.0,0.0
2223,36.0,240.0,15.0,3.0,0.0
2224,36.0,240.0,15.0,3.0,0.0
2225,52.0,0.0,15.0,3.0,0.0
2226,55.0,0.0,240.0,3.0,0.0
2227,65.0,0.0,960.0,0.0,0.0
2228,55.0,0.0,240.0,3.0,0.0
2229,62.0,0.0,240.0,3.0,0.0
2230,36.0,0.0,240.0,3.0,0.0
2231,47.0,240.0,15.0,3.0,0.0
2232,47.0,0.0,15.0,3.0,0.0
2233,36.0,0.0,15.0,3.0,0.0
2234,55.0,240.0,15.0,3.0,0.0
2235,62.0,0.0,15.0,3.0,0.0
2236,64.0,0.0,960.0,0.0,0.0
2237,60.0,240.0,240.0,3.0,0.0
2238,48.0,0.0,240.0,3.0,0.0
2239,55.0,0.0,240.0,3.0,0.0
2240,36.0,0.0,15.0,3.0,0.0
2241,48.0,0.0,15.0,3.0,0.0
2242,60.0,240.0,15.0,3.0,0.0
2243,55.0,0.0,15.0,3.0,0.0
2244,36.0,480.0,240.0,3.0,0.0
2245,71.0,480.0,960.0,0.0,0.0
2246,67.0,240.0,240.0,3.0,0.0
2247,59.0,0.0,240.0,3.0,0.0
2248,36.0,0.0,240.0,3.0,0.0
2249,50.0,0.0,240.0,3.0,0.0
2250,41.0,0.0,240.0,3.0,0.0
2251,67.0,0.0,240.0,3.0,0.0
2252,59.0,0.0,240.0,3.0,0.0
2253,50.0,0.0,240.0,3.0,0.0
2254,41.0,240.0,15.0,3.0,0.0
2255,36.0,0.0,15.0,3.0,0.0
2256,67.0,0.0,240.0,3.0,0.0
2257,59.0,0.0,240.0,3.0,0.0
2258,50.0,0.0,240.0,3.0,0.0
2259,72.0,0.0,960.0,0.0,0.0
2260,48.0,0.0,240.0,3.0,0.0
2261,40.0,0.0,240.0,3.0,0.0
2262,36.0,0.0,240.0,3.0,0.0
2263,67.0,0.0,240.0,3.0,0.0
2264,60.0,240.0,15.0,3.0,0.0
2265,60.0,0.0,15.0,3.0,0.0
2266,67.0,240.0,15.0,3.0,0.0
2267,48.0,0.0,15.0,3.0,0.0
2268,40.0,0.0,15.0,3.0,0.0
2269,36.0,0.0,15.0,3.0,0.0
2270,77.0,0.0,960.0,0.0,0.0
2271,67.0,240.0,240.0,3.0,0.0
2272,74.0,0.0,240.0,3.0,0.0
2273,36.0,0.0,240.0,3.0,0.0
2274,47.0,0.0,240.0,3.0,0.0
2275,47.0,0.0,240.0,3.0,0.0
2276,74.0,0.0,15.0,3.0,0.0
2277,67.0,0.0,15.0,3.0,0.0
2278,47.0,480.0,240.0,3.0,0.0
2279,36.0,240.0,15.0,3.0,0.0
2280,76.0,480.0,960.0,0.0,0.0
2281,36.0,240.0,15.0,3.0,0.0
2282,48.0,0.0,15.0,3.0,0.0
2283,72.0,0.0,15.0,3.0,0.0
2284,67.0,0.0,15.0,3.0,0.0
2285,36.0,0.0,15.0,3.0,0.0
2286,48.0,0.0,15.0,3.0,0.0
2287,72.0,0.0,15.0,3.0,0.0
2288,67.0,240.0,15.0,3.0,0.0
2289,83.0,0.0,960.0,0.0,0.0
2290,79.0,0.0,240.0,3.0,0.0
2291,71.0,0.0,240.0,3.0,0.0
2292,36.0,0.0,240.0,3.0,0.0
2293,41.0,0.0,240.0,3.0,0.0
2294,50.0,240.0,15.0,3.0,0.0
2295,50.0,0.0,15.0,3.0,0.0
2296,36.0,0.0,15.0,3.0,0.0
2297,41.0,0.0,15.0,3.0,0.0
2298,71.0,240.0,15.0,3.0,0.0
2299,79.0,0.0,15.0,3.0,0.0
2300,84.0,0.0,960.0,0.0,0.0
2301,72.0,240.0,240.0,3.0,0.0
2302,40.0,0.0,240.0,3.0,0.0
2303,48.0,0.0,240.0,3.0,0.0
2304,36.0,0.0,240.0,3.0,0.0
2305,79.0,0.0,15.0,3.0,0.0
2306,36.0,0.0,240.0,3.0,0.0
2307,48.0,0.0,240.0,3.0,0.0
2308,40.0,240.0,240.0,3.0,0.0
2309,79.0,0.0,15.0,3.0,0.0
2310,72.0,0.0,15.0,3.0,0.0
2311,36.0,0.0,240.0,3.0,0.0
2312,40.0,0.0,240.0,3.0,0.0
2313,48.0,0.0,240.0,3.0,0.0
2314,83.0,0.0,960.0,0.0,0.0
2315,50.0,0.0,240.0,3.0,0.0
2316,36.0,0.0,240.0,3.0,0.0
2317,36.0,0.0,240.0,3.0,0.0
2318,50.0,0.0,240.0,3.0,0.0
2319,41.0,0.0,15.0,3.0,0.0
2320,71.0,0.0,15.0,3.0,0.0
2321,79.0,240.0,15.0,3.0,0.0
2322,41.0,0.0,240.0,3.0,0.0
2323,50.0,0.0,240.0,3.0,0.0
2324,79.0,240.0,15.0,3.0,0.0
2325,71.0,0.0,15.0,3.0,0.0
2326,36.0,0.0,240.0,3.0,0.0
2327,84.0,0.0,960.0,0.0,0.0
2328,72.0,0.0,240.0,3.0,0.0
2329,40.0,0.0,15.0,3.0,0.0
2330,79.0,0.0,15.0,3.0,0.0
2331,48.0,0.0,15.0,3.0,0.0
2332,36.0,240.0,15.0,3.0,0.0
2333,36.0,0.0,15.0,3.0,0.0
2334,48.0,240.0,15.0,3.0,0.0
2335,40.0,0.0,15.0,3.0,0.0
2336,72.0,0.0,15.0,3.0,0.0
2337,79.0,0.0,15.0,3.0,0.0
2338,83.0,0.0,960.0,0.0,0.0
2339,79.0,0.0,240.0,3.0,0.0
2340,41.0,0.0,15.0,3.0,0.0
2341,50.0,0.0,15.0,3.0,0.0
2342,36.0,0.0,15.0,3.0,0.0
2343,71.0,240.0,15.0,3.0,0.0
2344,79.0,0.0,15.0,3.0,0.0
2345,36.0,0.0,15.0,3.0,0.0
2346,41.0,0.0,15.0,3.0,0.0
2347,50.0,0.0,15.0,3.0,0.0
2348,71.0,240.0,15.0,3.0,0.0
2349,84.0,0.0,960.0,0.0,0.0
2350,48.0,0.0,240.0,3.0,0.0
2351,43.0,0.0,240.0,3.0,0.0
2352,36.0,0.0,240.0,3.0,0.0
2353,40.0,0.0,240.0,3.0,0.0
2354,79.0,0.0,240.0,3.0,0.0
2355,72.0,0.0,240.0,3.0,0.0
2356,76.0,240.0,15.0,3.0,0.0
2357,40.0,0.0,15.0,3.0,0.0
2358,43.0,0.0,15.0,3.0,0.0
2359,48.0,0.0,15.0,3.0,0.0
2360,36.0,0.0,15.0,3.0,0.0
2361,72.0,0.0,15.0,3.0,0.0
2362,76.0,0.0,15.0,3.0,0.0
2363,79.0,240.0,15.0,3.0,0.0
2364,36.0,0.0,240.0,3.0,0.0
2365,43.0,0.0,240.0,3.0,0.0
2366,72.0,240.0,240.0,3.0,0.0
2367,40.0,0.0,240.0,3.0,0.0
2368,76.0,0.0,240.0,3.0,0.0
2369,79.0,0.0,240.0,3.0,0.0
2370,48.0,0.0,240.0,3.0,0.0
2371,72.0,0.0,240.0,3.0,0.0
2372,48.0,0.0,15.0,3.0,0.0
2373,40.0,0.0,15.0,3.0,0.0
2374,36.0,0.0,15.0,3.0,0.0
2375,76.0,0.0,15.0,3.0,0.0
2376,79.0,0.0,15.0,3.0,0.0
2377,43.0,240.0,15.0,3.0,0.0
2378,72.0,0.0,240.0,3.0,0.0
2379,84.0,0.0,15.0,0.0,0.0
2380,43.0,3120.0,480.0,3.0,0.0
2381,72.0,0.0,480.0,3.0,0.0
2382,79.0,0.0,480.0,3.0,0.0
2383,76.0,0.0,480.0,3.0,0.0
2384,36.0,0.0,480.0,3.0,0.0
2385,48.0,0.0,480.0,3.0,0.0
2386,40.0,0.0,480.0,3.0,0.0
2387,60.0,0.0,720.0,0.0,0.0
2388,48.0,240.0,720.0,2.0,0.0
2389,51.0,0.0,1440.0,1.0,0.0
2390,55.0,0.0,1440.0,1.0,0.0
2391,47.0,0.0,240.0,2.0,0.0
2392,59.0,480.0,240.0,0.0,0.0
2393,60.0,720.0,480.0,0.0,0.0
2394,48.0,0.0,15.0,2.0,0.0
2395,56.0,0.0,1440.0,1.0,0.0
2396,51.0,1440.0,1440.0,1.0,0.0
2397,44.0,0.0,1440.0,3.0,0.0
2398,60.0,0.0,720.0,0.0,0.0
2399,59.0,0.0,240.0,0.0,0.0
2400,47.0,480.0,240.0,2.0,0.0
2401,60.0,0.0,480.0,0.0,0.0
2402,48.0,0.0,480.0,2.0,0.0
2403,51.0,240.0,1920.0,2.0,0.0
2404,57.0,0.0,1440.0,1.0,0.0
2405,54.0,0.0,1440.0,1.0,0.0
2406,42.0,480.0,1440.0,3.0,0.0
2407,63.0,0.0,1920.0,0.0,0.0
2408,56.0,0.0,1440.0,1.0,0.0
2409,53.0,0.0,1440.0,1.0,0.0
2410,41.0,0.0,1440.0,3.0,0.0
2411,62.0,240.0,240.0,0.0,0.0
2412,50.0,0.0,240.0,2.0,0.0
2413,60.0,0.0,240.0,0.0,0.0
2414,48.0,240.0,240.0,2.0,0.0
2415,59.0,0.0,240.0,0.0,0.0
2416,47.0,240.0,240.0,2.0,0.0
2417,62.0,480.0,240.0,0.0,0.0
2418,50.0,0.0,240.0,2.0,0.0
2419,60.0,0.0,480.0,0.0,0.0
2420,48.0,480.0,480.0,2.0,0.0
2421,39.0,0.0,480.0,3.0,0.0
2422,62.0,0.0,480.0,0.0,0.0
2423,47.0,0.0,480.0,2.0,0.0
2424,55.0,0.0,15.0,1.0,0.0
2425,38.0,0.0,480.0,3.0,0.0
2426,63.0,0.0,480.0,0.0,0.0
2427,48.0,480.0,480.0,2.0,0.0
2428,55.0,480.0,15.0,1.0,0.0
2429,36.0,0.0,480.0,3.0,0.0
2430,35.0,0.0,960.0,3.0,0.0
2431,62.0,0.0,960.0,1.0,0.0
2432,67.0,480.0,480.0,0.0,0.0
2433,65.0,480.0,480.0,0.0,0.0
2434,43.0,0.0,15.0,2.0,0.0
2435,63.0,0.0,480.0,0.0,0.0
2436,36.0,960.0,480.0,3.0,0.0
2437,60.0,0.0,480.0,1.0,0.0
2438,59.0,240.0,960.0,1.0,0.0
2439,43.0,0.0,960.0,2.0,0.0
2440,31.0,0.0,1800.0,3.0,0.0
2441,62.0,0.0,960.0,0.0,0.0
2442,42.0,0.0,480.0,2.0,0.0
2443,65.0,240.0,240.0,0.0,0.0
2444,60.0,0.0,480.0,1.0,0.0
2445,63.0,360.0,240.0,0.0,0.0
2446,43.0,0.0,360.0,2.0,0.0
2447,62.0,1080.0,360.0,0.0,0.0
2448,59.0,0.0,360.0,1.0,0.0
2449,67.0,720.0,480.0,0.0,0.0
2450,72.0,0.0,720.0,0.0,0.0
2451,67.0,0.0,1440.0,1.0,0.0
2452,60.0,240.0,720.0,2.0,0.0
2453,71.0,480.0,240.0,0.0,0.0
2454,59.0,0.0,240.0,2.0,0.0
2455,60.0,0.0,480.0,2.0,0.0
2456,63.0,720.0,15.0,1.0,0.0
2457,56.0,0.0,1440.0,3.0,0.0
2458,72.0,0.0,15.0,0.0,0.0
2459,68.0,0.0,1440.0,1.0,0.0
2460,60.0,240.0,720.0,2.0,0.0
2461,71.0,0.0,240.0,0.0,0.0
2462,59.0,480.0,240.0,2.0,0.0
2463,60.0,0.0,480.0,2.0,0.0
2464,72.0,1440.0,480.0,0.0,0.0
2465,63.0,240.0,1920.0,2.0,0.0
2466,75.0,0.0,1920.0,0.0,0.0
2467,69.0,0.0,1440.0,1.0,0.0
2468,66.0,0.0,1440.0,1.0,0.0
2469,54.0,480.0,1440.0,3.0,0.0
2470,65.0,0.0,1440.0,1.0,0.0
2471,68.0,480.0,1440.0,1.0,0.0
2472,53.0,0.0,1440.0,3.0,0.0
2473,62.0,240.0,240.0,2.0,0.0
2474,74.0,0.0,240.0,0.0,0.0
2475,72.0,240.0,240.0,0.0,0.0
2476,60.0,0.0,240.0,2.0,0.0
2477,71.0,0.0,240.0,0.0,0.0
2478,59.0,240.0,240.0,2.0,0.0
2479,74.0,0.0,240.0,0.0,0.0
2480,62.0,0.0,240.0,2.0,0.0
2481,60.0,0.0,480.0,2.0,0.0
2482,51.0,0.0,480.0,3.0,0.0
2483,72.0,480.0,480.0,0.0,0.0
2484,67.0,0.0,480.0,1.0,0.0
2485,74.0,0.0,480.0,0.0,0.0
2486,59.0,0.0,480.0,2.0,0.0
2487,50.0,0.0,480.0,3.0,0.0
2488,60.0,0.0,480.0,2.0,0.0
2489,48.0,0.0,480.0,3.0,0.0
2490,67.0,480.0,15.0,1.0,0.0
2491,75.0,0.0,480.0,0.0,0.0
2492,79.0,480.0,480.0,0.0,0.0
2493,47.0,0.0,960.0,3.0,0.0
2494,74.0,0.0,960.0,1.0,0.0
2495,77.0,0.0,480.0,0.0,0.0
2496,48.0,0.0,480.0,3.0,0.0
2497,72.0,0.0,480.0,1.0,0.0
2498,55.0,480.0,15.0,2.0,0.0
2499,55.0,0.0,15.0,2.0,0.0
2500,43.0,0.0,1800.0,3.0,0.0
2501,75.0,960.0,15.0,0.0,0.0
2502,72.0,0.0,960.0,1.0,0.0
2503,53.0,360.0,480.0,2.0,0.0
2504,71.0,0.0,480.0,1.0,0.0
2505,74.0,0.0,480.0,0.0,0.0
2506,51.0,0.0,360.0,2.0,0.0
2507,72.0,1800.0,360.0,0.0,0.0
2508,56.0,0.0,1440.0,1.0,0.0
2509,48.0,0.0,1440.0,2.0,0.0
2510,51.0,0.0,1440.0,1.0,0.0
2511,60.0,240.0,720.0,0.0,0.0
2512,44.0,1440.0,1440.0,3.0,0.0
2513,59.0,480.0,240.0,0.0,0.0
2514,60.0,0.0,480.0,0.0,0.0
2515,39.0,0.0,1440.0,3.0,0.0
2516,55.0,0.0,1440.0,1.0,0.0
2517,51.0,720.0,1440.0,2.0,0.0
2518,63.0,0.0,1440.0,0.0,0.0
2519,61.0,240.0,720.0,0.0,0.0
2520,46.0,1440.0,1440.0,3.0,0.0
2521,49.0,0.0,1440.0,2.0,0.0
2522,58.0,0.0,15.0,1.0,0.0
2523,53.0,0.0,1440.0,1.0,0.0
2524,60.0,480.0,240.0,0.0,0.0
2525,61.0,0.0,480.0,0.0,0.0
2526,63.0,0.0,1440.0,0.0,0.0
2527,43.0,720.0,1440.0,3.0,0.0
2528,51.0,0.0,1440.0,2.0,0.0
2529,58.0,0.0,1440.0,1.0,0.0
2530,60.0,240.0,720.0,0.0,0.0
2531,44.0,0.0,1440.0,3.0,0.0
2532,51.0,960.0,1440.0,1.0,0.0
2533,56.0,0.0,1440.0,1.0,0.0
2534,48.0,0.0,1440.0,2.0,0.0
2535,59.0,480.0,240.0,0.0,0.0
2536,60.0,0.0,480.0,0.0,0.0
2537,63.0,480.0,960.0,0.0,0.0
2538,55.0,0.0,1440.0,1.0,0.0
2539,39.0,0.0,1440.0,3.0,0.0
2540,46.0,0.0,15.0,2.0,0.0
2541,58.0,0.0,15.0,1.0,0.0
2542,53.0,0.0,1440.0,1.0,0.0
2543,34.0,0.0,1440.0,3.0,0.0
2544,63.0,960.0,15.0,0.0,0.0
2545,62.0,0.0,480.0,0.0,0.0
2546,63.0,0.0,480.0,0.0,0.0
2547,58.0,480.0,15.0,1.0,0.0
2548,39.0,0.0,480.0,2.0,0.0
2549,27.0,0.0,480.0,3.0,0.0
2550,55.0,0.0,480.0,1.0,0.0
2551,63.0,720.0,480.0,0.0,0.0
2552,72.0,0.0,720.0,0.0,0.0
2553,63.0,0.0,1440.0,1.0,0.0
2554,68.0,0.0,1440.0,1.0,0.0
2555,56.0,0.0,1440.0,3.0,0.0
2556,60.0,240.0,720.0,2.0,0.0
2557,71.0,0.0,240.0,0.0,0.0
2558,59.0,480.0,240.0,2.0,0.0
2559,72.0,0.0,480.0,0.0,0.0
2560,60.0,1440.0,480.0,2.0,0.0
2561,67.0,720.0,1440.0,1.0,0.0
2562,70.0,0.0,1440.0,1.0,0.0
2563,51.0,0.0,1440.0,3.0,0.0
2564,63.0,0.0,1440.0,2.0,0.0
2565,75.0,0.0,1440.0,0.0,0.0
2566,58.0,0.0,1440.0,3.0,0.0
2567,61.0,0.0,720.0,2.0,0.0
2568,73.0,240.0,720.0,0.0,0.0
2569,65.0,0.0,1440.0,1.0,0.0
2570,70.0,0.0,1440.0,1.0,0.0
2571,72.0,0.0,240.0,0.0,0.0
2572,60.0,480.0,240.0,2.0,0.0
2573,73.0,0.0,480.0,0.0,0.0
2574,61.0,1440.0,480.0,2.0,0.0
2575,75.0,0.0,1440.0,0.0,0.0
2576,55.0,0.0,1440.0,3.0,0.0
2577,63.0,720.0,1440.0,2.0,0.0
2578,70.0,0.0,1440.0,1.0,0.0
2579,63.0,720.0,1440.0,1.0,0.0
2580,68.0,0.0,1440.0,1.0,0.0
2581,56.0,0.0,1440.0,3.0,0.0
2582,72.0,0.0,720.0,0.0,0.0
2583,60.0,240.0,720.0,2.0,0.0
2584,71.0,0.0,240.0,0.0,0.0
2585,59.0,480.0,240.0,2.0,0.0
2586,60.0,0.0,480.0,2.0,0.0
2587,72.0,0.0,480.0,0.0,0.0
2588,54.0,0.0,1440.0,2.0,0.0
2589,60.0,600.0,720.0,1.0,0.0
2590,44.0,960.0,1440.0,3.0,0.0
2591,72.0,0.0,720.0,0.0,0.0
2592,72.0,0.0,360.0,0.0,0.0
2593,60.0,120.0,360.0,1.0,0.0
2594,55.0,0.0,2880.0,2.0,0.0
2595,43.0,1440.0,2880.0,3.0,0.0
2596,60.0,0.0,960.0,1.0,0.0
2597,72.0,480.0,960.0,0.0,0.0
2598,59.0,1440.0,480.0,1.0,0.0
2599,71.0,0.0,480.0,0.0,0.0
2600,62.0,0.0,1440.0,1.0,0.0
2601,74.0,0.0,1440.0,0.0,0.0
2602,67.0,720.0,480.0,0.0,0.0
2603,72.0,0.0,720.0,0.0,0.0
2604,60.0,240.0,720.0,2.0,0.0
2605,67.0,0.0,1440.0,1.0,0.0
2606,71.0,0.0,240.0,0.0,0.0
2607,59.0,480.0,240.0,2.0,0.0
2608,60.0,0.0,15.0,2.0,0.0
2609,72.0,720.0,15.0,0.0,0.0
2610,68.0,0.0,1440.0,1.0,0.0
2611,63.0,0.0,15.0,1.0,0.0
2612,56.0,0.0,1440.0,3.0,0.0
2613,59.0,480.0,240.0,2.0,0.0
2614,71.0,0.0,240.0,0.0,0.0
2615,60.0,0.0,480.0,2.0,0.0
2616,72.0,1440.0,480.0,0.0,0.0
2617,54.0,480.0,1440.0,3.0,0.0
2618,75.0,240.0,1920.0,0.0,0.0
2619,69.0,0.0,1440.0,1.0,0.0
2620,63.0,0.0,1920.0,2.0,0.0
2621,66.0,0.0,1440.0,1.0,0.0
2622,68.0,0.0,1440.0,1.0,0.0
2623,65.0,480.0,1440.0,1.0,0.0
2624,53.0,0.0,1440.0,3.0,0.0
2625,62.0,0.0,240.0,2.0,0.0
2626,74.0,240.0,240.0,0.0,0.0
2627,72.0,240.0,240.0,0.0,0.0
2628,60.0,0.0,240.0,2.0,0.0
2629,71.0,0.0,240.0,0.0,0.0
2630,59.0,240.0,240.0,2.0,0.0
2631,74.0,0.0,240.0,0.0,0.0
2632,62.0,0.0,240.0,2.0,0.0
2633,72.0,0.0,480.0,0.0,0.0
2634,60.0,480.0,480.0,2.0,0.0
2635,51.0,0.0,480.0,3.0,0.0
2636,67.0,0.0,15.0,1.0,0.0
2637,74.0,0.0,480.0,0.0,0.0
2638,50.0,480.0,480.0,3.0,0.0
2639,59.0,0.0,480.0,2.0,0.0
2640,67.0,0.0,15.0,1.0,0.0
2641,60.0,480.0,480.0,2.0,0.0
2642,48.0,0.0,480.0,3.0,0.0
2643,75.0,0.0,480.0,0.0,0.0
2644,55.0,480.0,960.0,2.0,0.0
2645,74.0,0.0,960.0,1.0,0.0
2646,47.0,0.0,960.0,3.0,0.0
2647,79.0,480.0,480.0,0.0,0.0
2648,77.0,0.0,480.0,0.0,0.0
2649,48.0,0.0,480.0,3.0,0.0
2650,75.0,0.0,480.0,0.0,0.0
2651,72.0,960.0,480.0,1.0,0.0
2652,55.0,0.0,480.0,2.0,0.0
2653,74.0,240.0,960.0,0.0,0.0
2654,43.0,0.0,1800.0,3.0,0.0
2655,71.0,0.0,960.0,1.0,0.0
2656,55.0,0.0,960.0,2.0,0.0
2657,72.0,360.0,480.0,1.0,0.0
2658,77.0,240.0,240.0,0.0,0.0
2659,54.0,0.0,480.0,2.0,0.0
2660,75.0,0.0,240.0,0.0,0.0
2661,71.0,0.0,360.0,1.0,0.0
2662,74.0,1080.0,360.0,0.0,0.0
2663,55.0,0.0,360.0,2.0,0.0
2664,55.0,720.0,480.0,0.0,0.0
2665,51.0,0.0,1440.0,1.0,0.0
2666,60.0,0.0,720.0,0.0,0.0
2667,55.0,720.0,1440.0,1.0,0.0
2668,48.0,240.0,720.0,2.0,0.0
2669,59.0,480.0,240.0,0.0,0.0
2670,47.0,0.0,240.0,2.0,0.0
2671,48.0,0.0,480.0,2.0,0.0
2672,44.0,0.0,1440.0,3.0,0.0
2673,48.0,0.0,720.0,2.0,0.0
2674,60.0,0.0,15.0,0.0,0.0
2675,51.0,0.0,1440.0,1.0,0.0
2676,56.0,0.0,1440.0,1.0,0.0
2677,47.0,0.0,240.0,2.0,0.0
2678,59.0,480.0,240.0,0.0,0.0
2679,60.0,0.0,480.0,0.0,0.0
2680,48.0,1920.0,480.0,2.0,0.0
2681,61.0,0.0,2880.0,1.0,0.0
2682,58.0,0.0,2880.0,1.0,0.0
2683,49.0,0.0,2880.0,2.0,0.0
2684,56.0,0.0,1920.0,2.0,0.0
2685,46.0,0.0,2880.0,3.0,0.0
2686,68.0,240.0,1920.0,0.0,0.0
2687,55.0,0.0,240.0,2.0,0.0
2688,67.0,240.0,240.0,0.0,0.0
2689,65.0,240.0,240.0,0.0,0.0
2690,53.0,0.0,240.0,2.0,0.0
2691,52.0,0.0,240.0,2.0,0.0
2692,64.0,240.0,240.0,0.0,0.0
2693,55.0,0.0,240.0,2.0,0.0
2694,67.0,240.0,240.0,0.0,0.0
2695,53.0,0.0,240.0,2.0,0.0
2696,56.0,0.0,240.0,1.0,0.0
2697,60.0,0.0,240.0,1.0,0.0
2698,48.0,0.0,240.0,2.0,0.0
2699,44.0,0.0,240.0,3.0,0.0
2700,65.0,480.0,240.0,0.0,0.0
2701,46.0,0.0,960.0,3.0,0.0
2702,49.0,240.0,960.0,2.0,0.0
2703,67.0,240.0,240.0,0.0,0.0
2704,55.0,0.0,960.0,2.0,0.0
2705,58.0,0.0,960.0,1.0,0.0
2706,61.0,0.0,960.0,1.0,0.0
2707,65.0,240.0,240.0,0.0,0.0
2708,64.0,240.0,240.0,0.0,0.0
2709,67.0,0.0,240.0,0.0,0.0
2710,48.0,480.0,240.0,2.0,0.0
2711,53.0,0.0,240.0,2.0,0.0
2712,65.0,0.0,240.0,0.0,0.0
2713,44.0,0.0,240.0,3.0,0.0
2714,60.0,0.0,240.0,1.0,0.0
2715,56.0,0.0,240.0,1.0,0.0
2716,55.0,0.0,960.0,2.0,0.0
2717,49.0,0.0,960.0,2.0,0.0
2718,46.0,0.0,960.0,3.0,0.0
2719,67.0,240.0,240.0,0.0,0.0
2720,61.0,0.0,960.0,1.0,0.0
2721,58.0,0.0,960.0,1.0,0.0
2722,65.0,240.0,240.0,0.0,0.0
2723,64.0,240.0,240.0,0.0,0.0
2724,67.0,240.0,240.0,0.0,0.0
2725,56.0,480.0,240.0,1.0,0.0
2726,60.0,0.0,240.0,1.0,0.0
2727,48.0,0.0,240.0,2.0,0.0
2728,44.0,0.0,240.0,3.0,0.0
2729,53.0,0.0,240.0,2.0,0.0
2730,65.0,0.0,240.0,0.0,0.0
2731,65.0,240.0,240.0,0.0,0.0
2732,64.0,240.0,240.0,0.0,0.0
2733,65.0,240.0,240.0,0.0,0.0
2734,67.0,240.0,240.0,0.0,0.0
2735,68.0,240.0,240.0,0.0,0.0
2736,70.0,240.0,240.0,0.0,0.0
2737,72.0,240.0,240.0,0.0,0.0
2738,71.0,240.0,240.0,0.0,0.0
2739,72.0,0.0,240.0,0.0,0.0
2740,53.0,0.0,240.0,3.0,0.0
2741,60.0,240.0,240.0,2.0,0.0
2742,68.0,240.0,240.0,0.0,0.0
2743,67.0,0.0,240.0,0.0,0.0
2744,55.0,0.0,240.0,3.0,0.0
2745,60.0,480.0,240.0,2.0,0.0
2746,67.0,240.0,240.0,0.0,0.0
2747,66.0,240.0,240.0,0.0,0.0
2748,67.0,240.0,240.0,0.0,0.0
2749,63.0,240.0,240.0,0.0,0.0
2750,62.0,0.0,240.0,0.0,0.0
2751,59.0,0.0,240.0,1.0,0.0
2752,43.0,0.0,240.0,2.0,0.0
2753,31.0,480.0,240.0,3.0,0.0
2754,67.0,240.0,240.0,0.0,0.0
2755,66.0,240.0,240.0,0.0,0.0
2756,67.0,240.0,240.0,0.0,0.0
2757,62.0,1440.0,240.0,0.0,0.0
2758,36.0,0.0,2880.0,3.0,0.0
2759,60.0,480.0,1440.0,0.0,0.0
2760,52.0,0.0,480.0,1.0,0.0
2761,43.0,0.0,480.0,2.0,0.0
2762,59.0,0.0,1440.0,0.0,0.0
2763,53.0,0.0,480.0,1.0,0.0
2764,44.0,240.0,15.0,2.0,0.0
2765,53.0,240.0,240.0,1.0,0.0
2766,55.0,0.0,240.0,1.0,0.0
2767,43.0,240.0,240.0,2.0,0.0
2768,56.0,240.0,240.0,0.0,0.0
2769,41.0,0.0,240.0,2.0,0.0
2770,53.0,480.0,240.0,1.0,0.0
2771,44.0,0.0,240.0,2.0,0.0
2772,48.0,0.0,1440.0,2.0,0.0
2773,60.0,960.0,480.0,0.0,0.0
2774,52.0,0.0,480.0,1.0,0.0
2775,36.0,0.0,480.0,3.0,0.0
2776,64.0,480.0,480.0,0.0,0.0
2777,60.0,0.0,480.0,1.0,0.0
2778,55.0,0.0,480.0,2.0,0.0
2779,56.0,0.0,480.0,2.0,0.0
2780,59.0,0.0,1440.0,1.0,0.0
2781,56.0,240.0,240.0,2.0,0.0
2782,65.0,240.0,15.0,0.0,0.0
2783,67.0,0.0,240.0,0.0,0.0
2784,55.0,240.0,240.0,2.0,0.0
2785,68.0,0.0,240.0,0.0,0.0
2786,53.0,240.0,240.0,2.0,0.0
2787,65.0,0.0,240.0,0.0,0.0
2788,56.0,0.0,240.0,2.0,0.0
2789,60.0,1200.0,240.0,1.0,0.0
2790,48.0,240.0,15.0,3.0,0.0
2791,64.0,0.0,240.0,0.0,0.0
2792,55.0,0.0,240.0,2.0,0.0
2793,64.0,0.0,480.0,1.0,0.0
2794,55.0,240.0,480.0,2.0,0.0
2795,72.0,0.0,480.0,0.0,0.0
2796,48.0,240.0,1440.0,3.0,0.0
2797,65.0,240.0,240.0,1.0,0.0
2798,71.0,0.0,1440.0,0.0,0.0
2799,56.0,240.0,15.0,2.0,0.0
2800,65.0,240.0,240.0,1.0,0.0
2801,67.0,0.0,240.0,1.0,0.0
2802,55.0,240.0,240.0,2.0,0.0
2803,68.0,240.0,240.0,1.0,0.0
2804,53.0,0.0,240.0,2.0,0.0
2805,65.0,0.0,240.0,1.0,0.0
2806,56.0,0.0,240.0,2.0,0.0
2807,72.0,0.0,240.0,0.0,0.0
2808,55.0,0.0,240.0,2.0,0.0
2809,64.0,0.0,240.0,1.0,0.0
2810,48.0,480.0,240.0,3.0,0.0
2811,48.0,0.0,960.0,3.0,0.0
2812,71.0,0.0,960.0,0.0,0.0
2813,56.0,240.0,240.0,2.0,0.0
2814,65.0,0.0,240.0,1.0,0.0
2815,67.0,0.0,240.0,1.0,0.0
2816,55.0,240.0,240.0,2.0,0.0
2817,68.0,240.0,240.0,1.0,0.0
2818,53.0,0.0,240.0,2.0,0.0
2819,56.0,240.0,240.0,2.0,0.0
2820,65.0,0.0,240.0,1.0,0.0
2821,64.0,240.0,240.0,1.0,0.0
2822,48.0,0.0,240.0,3.0,0.0
2823,72.0,0.0,240.0,0.0,0.0
2824,55.0,240.0,480.0,2.0,0.0
2825,65.0,240.0,240.0,1.0,0.0
2826,71.0,0.0,960.0,0.0,0.0
2827,48.0,0.0,960.0,3.0,0.0
2828,56.0,0.0,240.0,2.0,0.0
2829,67.0,0.0,240.0,1.0,0.0
2830,55.0,240.0,240.0,2.0,0.0
2831,53.0,0.0,240.0,2.0,0.0
2832,68.0,240.0,240.0,1.0,0.0
2833,56.0,0.0,240.0,2.0,0.0
2834,65.0,240.0,240.0,1.0,0.0
2835,64.0,0.0,240.0,1.0,0.0
2836,72.0,0.0,240.0,0.0,0.0
2837,55.0,0.0,240.0,2.0,0.0
2838,48.0,1440.0,240.0,3.0,0.0
2839,72.0,1440.0,240.0,1.0,0.0
2840,55.0,0.0,240.0,2.0,0.0
2841,48.0,0.0,240.0,3.0,0.0
2842,76.0,0.0,240.0,0.0,0.0
2843,84.0,0.0,240.0,0.0,0.0
2844,76.0,0.0,240.0,1.0,0.0
2845,48.0,0.0,240.0,2.0,0.0
2846,72.0,0.0,240.0,1.0,0.0
2847,43.0,2640.0,240.0,2.0,0.0
2848,36.0,0.0,240.0,3.0,0.0
2849,84.0,1440.0,1440.0,0.0,0.0
2850,60.0,0.0,1680.0,0.0,0.0
2851,51.0,0.0,1440.0,1.0,0.0
2852,32.0,0.0,2880.0,3.0,0.0
2853,44.0,480.0,1440.0,2.0,0.0
2854,58.0,480.0,480.0,0.0,0.0
2855,43.0,480.0,960.0,2.0,0.0
2856,49.0,0.0,1440.0,1.0,0.0
2857,61.0,0.0,480.0,0.0,0.0
2858,55.0,0.0,480.0,0.0,0.0
2859,46.0,480.0,480.0,2.0,0.0
2860,32.0,0.0,480.0,3.0,0.0
2861,56.0,0.0,480.0,0.0,0.0
2862,48.0,0.0,480.0,1.0,0.0
2863,44.0,480.0,480.0,2.0,0.0
2864,60.0,960.0,480.0,0.0,0.0
2865,63.0,0.0,960.0,0.0,0.0
2866,51.0,480.0,480.0,1.0,0.0
2867,62.0,0.0,480.0,0.0,0.0
2868,53.0,480.0,480.0,1.0,0.0
2869,55.0,0.0,480.0,1.0,0.0
2870,61.0,1440.0,480.0,0.0,0.0
2871,44.0,480.0,1440.0,2.0,0.0
2872,32.0,0.0,2880.0,3.0,0.0
2873,60.0,0.0,1440.0,0.0,0.0
2874,56.0,0.0,1440.0,1.0,0.0
2875,51.0,0.0,1440.0,1.0,0.0
2876,49.0,0.0,1440.0,1.0,0.0
2877,58.0,480.0,480.0,0.0,0.0
2878,43.0,480.0,960.0,2.0,0.0
2879,61.0,0.0,480.0,0.0,0.0
2880,55.0,0.0,480.0,0.0,0.0
2881,46.0,360.0,480.0,2.0,0.0
2882,56.0,0.0,360.0,0.0,0.0
2883,32.0,360.0,480.0,3.0,0.0
2884,48.0,120.0,360.0,1.0,0.0
2885,44.0,0.0,480.0,2.0,0.0
2886,60.0,480.0,360.0,0.0,0.0
2887,63.0,480.0,360.0,0.0,0.0
2888,68.0,480.0,360.0,0.0,0.0
2889,70.0,480.0,360.0,0.0,0.0
2890,71.0,1080.0,360.0,0.0,0.0
2891,72.0,0.0,960.0,0.0,0.0
2892,56.0,480.0,960.0,3.0,0.0
2893,75.0,480.0,1440.0,0.0,0.0
2894,70.0,480.0,480.0,1.0,0.0
2895,55.0,0.0,480.0,3.0,0.0
2896,53.0,0.0,960.0,3.0,0.0
2897,68.0,480.0,960.0,1.0,0.0
2898,74.0,0.0,480.0,0.0,0.0
2899,51.0,0.0,480.0,3.0,0.0
2900,67.0,0.0,480.0,1.0,0.0
2901,75.0,960.0,480.0,0.0,0.0
2902,50.0,480.0,960.0,3.0,0.0
2903,65.0,0.0,960.0,0.0,0.0
2904,68.0,480.0,1440.0,0.0,0.0
2905,48.0,480.0,480.0,3.0,0.0
2906,63.0,0.0,480.0,1.0,0.0
2907,47.0,480.0,960.0,3.0,0.0
2908,62.0,0.0,960.0,1.0,0.0
2909,67.0,480.0,1440.0,0.0,0.0
2910,48.0,0.0,480.0,3.0,0.0
2911,63.0,480.0,480.0,1.0,0.0
2912,44.0,0.0,1440.0,3.0,0.0
2913,60.0,480.0,1440.0,1.0,0.0
2914,64.0,480.0,480.0,0.0,0.0
2915,65.0,480.0,960.0,0.0,0.0
2916,46.0,0.0,1440.0,3.0,0.0
2917,56.0,480.0,1440.0,1.0,0.0
2918,60.0,480.0,480.0,0.0,0.0
2919,62.0,0.0,480.0,0.0,0.0
2920,63.0,0.0,480.0,0.0,0.0
2921,55.0,0.0,480.0,1.0,0.0
2922,39.0,480.0,480.0,3.0,0.0
2923,53.0,480.0,480.0,1.0,0.0
2924,51.0,480.0,480.0,1.0,0.0
2925,49.0,480.0,480.0,2.0,0.0
2926,48.0,480.0,480.0,2.0,0.0
2927,46.0,1440.0,480.0,2.0,0.0
2928,44.0,0.0,1440.0,2.0,0.0
2929,51.0,0.0,1440.0,1.0,0.0
2930,60.0,480.0,1440.0,0.0,0.0
2931,49.0,0.0,1440.0,1.0,0.0
2932,43.0,480.0,960.0,2.0,0.0
2933,58.0,480.0,480.0,0.0,0.0
2934,61.0,0.0,480.0,0.0,0.0
2935,55.0,0.0,480.0,0.0,0.0
2936,46.0,0.0,480.0,2.0,0.0
2937,44.0,0.0,480.0,2.0,0.0
2938,32.0,480.0,15.0,3.0,0.0
2939,56.0,480.0,480.0,0.0,0.0
2940,48.0,0.0,480.0,1.0,0.0
2941,60.0,960.0,480.0,0.0,0.0
2942,63.0,480.0,960.0,0.0,0.0
2943,51.0,0.0,480.0,1.0,0.0
2944,53.0,480.0,480.0,1.0,0.0
2945,62.0,0.0,480.0,0.0,0.0
2946,55.0,0.0,480.0,1.0,0.0
2947,61.0,1440.0,480.0,0.0,0.0
2948,56.0,0.0,1440.0,1.0,0.0
2949,51.0,0.0,1440.0,1.0,0.0
2950,32.0,0.0,2880.0,3.0,0.0
2951,44.0,480.0,1440.0,2.0,0.0
2952,60.0,0.0,1440.0,0.0,0.0
2953,58.0,480.0,480.0,0.0,0.0
2954,49.0,360.0,1440.0,1.0,0.0
2955,43.0,480.0,960.0,2.0,0.0
2956,61.0,0.0,480.0,0.0,0.0
2957,46.0,0.0,480.0,2.0,0.0
2958,55.0,0.0,480.0,0.0,0.0
2959,56.0,0.0,360.0,0.0,0.0
2960,48.0,120.0,360.0,1.0,0.0
2961,32.0,0.0,480.0,3.0,0.0
2962,44.0,360.0,480.0,2.0,0.0
2963,60.0,480.0,360.0,0.0,0.0
2964,63.0,480.0,360.0,0.0,0.0
2965,68.0,480.0,360.0,0.0,0.0
2966,70.0,480.0,360.0,0.0,0.0
2967,71.0,1080.0,360.0,0.0,0.0
2968,72.0,0.0,960.0,0.0,0.0
2969,56.0,480.0,960.0,3.0,0.0
2970,75.0,480.0,1440.0,0.0,0.0
2971,55.0,0.0,480.0,3.0,0.0
2972,70.0,480.0,480.0,1.0,0.0
2973,53.0,0.0,960.0,3.0,0.0
2974,68.0,0.0,960.0,1.0,0.0
2975,74.0,480.0,480.0,0.0,0.0
2976,67.0,0.0,480.0,1.0,0.0
2977,51.0,0.0,480.0,3.0,0.0
2978,75.0,960.0,480.0,0.0,0.0
2979,50.0,480.0,960.0,3.0,0.0
2980,65.0,0.0,960.0,0.0,0.0
2981,68.0,480.0,1440.0,0.0,0.0
2982,63.0,480.0,480.0,1.0,0.0
2983,48.0,0.0,480.0,3.0,0.0
2984,47.0,480.0,960.0,3.0,0.0
2985,62.0,0.0,960.0,1.0,0.0
2986,67.0,480.0,1440.0,0.0,0.0
2987,63.0,480.0,480.0,1.0,0.0
2988,48.0,0.0,480.0,3.0,0.0
2989,44.0,480.0,1440.0,3.0,0.0
2990,60.0,0.0,1440.0,1.0,0.0
2991,64.0,480.0,480.0,0.0,0.0
2992,65.0,480.0,960.0,0.0,0.0
2993,56.0,0.0,1440.0,1.0,0.0
2994,46.0,480.0,1440.0,3.0,0.0
2995,60.0,480.0,480.0,0.0,0.0
2996,62.0,0.0,480.0,0.0,0.0
2997,55.0,0.0,480.0,1.0,0.0
2998,63.0,0.0,480.0,0.0,0.0
2999,39.0,480.0,480.0,3.0,0.0
3000,53.0,480.0,480.0,1.0,0.0
3001,51.0,480.0,480.0,1.0,0.0
3002,49.0,480.0,480.0,2.0,0.0
3003,48.0,480.0,480.0,2.0,0.0
3004,46.0,1440.0,480.0,2.0,0.0
3005,45.0,0.0,1440.0,2.0,0.0
3006,53.0,1440.0,2400.0,0.0,0.0
3007,63.0,480.0,480.0,0.0,0.0
3008,46.0,0.0,480.0,2.0,0.0
3009,61.0,480.0,480.0,0.0,0.0
3010,48.0,480.0,480.0,2.0,0.0
3011,60.0,0.0,480.0,0.0,0.0
3012,58.0,0.0,480.0,0.0,0.0
3013,49.0,0.0,480.0,2.0,0.0
3014,39.0,0.0,15.0,3.0,0.0
3015,43.0,0.0,1440.0,2.0,0.0
3016,51.0,0.0,2400.0,0.0,0.0
3017,61.0,480.0,480.0,0.0,0.0
3018,44.0,0.0,480.0,2.0,0.0
3019,60.0,480.0,480.0,0.0,0.0
3020,46.0,0.0,480.0,2.0,0.0
3021,58.0,480.0,480.0,0.0,0.0
3022,56.0,0.0,480.0,0.0,0.0
3023,48.0,0.0,480.0,2.0,0.0
3024,51.0,0.0,2880.0,3.0,0.0
3025,65.0,0.0,2400.0,0.0,0.0
3026,75.0,0.0,480.0,0.0,0.0
3027,57.0,480.0,480.0,2.0,0.0
3028,73.0,0.0,480.0,0.0,0.0
3029,58.0,480.0,480.0,2.0,0.0
3030,72.0,480.0,480.0,0.0,0.0
3031,60.0,0.0,480.0,2.0,0.0
3032,61.0,1440.0,480.0,2.0,0.0
3033,70.0,0.0,480.0,0.0,0.0
3034,51.0,0.0,2880.0,3.0,0.0
3035,63.0,0.0,2400.0,0.0,0.0
3036,55.0,480.0,480.0,2.0,0.0
3037,73.0,0.0,480.0,0.0,0.0
3038,72.0,0.0,480.0,0.0,0.0
3039,56.0,480.0,480.0,2.0,0.0
3040,70.0,480.0,480.0,0.0,0.0
3041,58.0,0.0,480.0,2.0,0.0
3042,68.0,0.0,480.0,0.0,0.0
3043,60.0,480.0,480.0,2.0,0.0
3044,61.0,480.0,480.0,2.0,0.0
3045,67.0,0.0,480.0,0.0,0.0
3046,51.0,0.0,480.0,3.0,0.0
3047,65.0,480.0,480.0,0.0,0.0
3048,63.0,480.0,480.0,0.0,0.0
3049,61.0,480.0,480.0,0.0,0.0
3050,60.0,480.0,480.0,0.0,0.0
3051,58.0,1440.0,480.0,0.0,0.0
3052,60.0,480.0,1440.0,0.0,0.0
3053,44.0,0.0,1440.0,2.0,0.0
3054,51.0,0.0,1440.0,1.0,0.0
3055,49.0,360.0,1440.0,1.0,0.0
3056,43.0,480.0,960.0,2.0,0.0
3057,58.0,480.0,480.0,0.0,0.0
3058,61.0,0.0,480.0,0.0,0.0
3059,55.0,0.0,480.0,0.0,0.0
3060,46.0,0.0,480.0,2.0,0.0
3061,44.0,0.0,480.0,2.0,0.0
3062,56.0,120.0,360.0,0.0,0.0
3063,32.0,0.0,15.0,3.0,0.0
3064,44.0,0.0,360.0,1.0,0.0
3065,60.0,480.0,360.0,0.0,0.0
3066,63.0,480.0,360.0,0.0,0.0
3067,68.0,480.0,360.0,0.0,0.0
3068,70.0,480.0,360.0,0.0,0.0
3069,71.0,1560.0,360.0,0.0,0.0
3070,63.0,0.0,1440.0,1.0,0.0
3071,72.0,480.0,1440.0,0.0,0.0
3072,44.0,0.0,2880.0,3.0,0.0
3073,56.0,0.0,1440.0,2.0,0.0
3074,60.0,0.0,1440.0,1.0,0.0
3075,55.0,0.0,960.0,2.0,0.0
3076,61.0,0.0,1440.0,1.0,0.0
3077,70.0,480.0,480.0,0.0,0.0
3078,73.0,480.0,480.0,0.0,0.0
3079,58.0,360.0,480.0,2.0,0.0
3080,67.0,0.0,480.0,0.0,0.0
3081,68.0,120.0,360.0,0.0,0.0
3082,56.0,0.0,480.0,2.0,0.0
3083,44.0,360.0,480.0,3.0,0.0
3084,72.0,480.0,360.0,0.0,0.0
3085,75.0,480.0,360.0,0.0,0.0
3086,80.0,480.0,360.0,0.0,0.0
3087,82.0,480.0,360.0,0.0,0.0
3088,83.0,1560.0,360.0,0.0,0.0
3089,72.0,0.0,2880.0,1.0,0.0
3090,44.0,0.0,2880.0,3.0,0.0
3091,51.0,1440.0,1440.0,2.0,0.0
3092,84.0,0.0,2880.0,0.0,0.0
3093,53.0,0.0,1440.0,2.0,0.0
3094,51.0,1440.0,1440.0,2.0,0.0
3095,67.0,720.0,2880.0,1.0,0.0
3096,48.0,1440.0,15.0,2.0,0.0
3097,55.0,0.0,2880.0,2.0,0.0
3098,43.0,0.0,2880.0,3.0,0.0
3099,79.0,0.0,2880.0,0.0,0.0
3100,50.0,0.0,1440.0,2.0,0.0
3101,47.0,0.0,1440.0,2.0,0.0
3102,48.0,240.0,720.0,2.0,0.0
3103,60.0,0.0,720.0,0.0,0.0
3104,51.0,0.0,1440.0,1.0,0.0
3105,55.0,0.0,1440.0,1.0,0.0
3106,59.0,480.0,240.0,0.0,0.0
3107,47.0,0.0,240.0,2.0,0.0
3108,48.0,0.0,480.0,2.0,0.0
3109,60.0,720.0,480.0,0.0,0.0
3110,51.0,0.0,1440.0,1.0,0.0
3111,56.0,0.0,1440.0,1.0,0.0
3112,44.0,1440.0,1440.0,3.0,0.0
3113,60.0,0.0,720.0,0.0,0.0
3114,48.0,240.0,720.0,2.0,0.0
3115,59.0,480.0,240.0,0.0,0.0
3116,47.0,0.0,240.0,2.0,0.0
3117,48.0,0.0,480.0,2.0,0.0
3118,60.0,0.0,480.0,0.0,0.0
3119,51.0,0.0,1920.0,2.0,0.0
3120,57.0,0.0,1440.0,1.0,0.0
3121,54.0,0.0,1440.0,1.0,0.0
3122,63.0,240.0,1920.0,0.0,0.0
3123,42.0,480.0,1440.0,3.0,0.0
3124,56.0,0.0,1440.0,1.0,0.0
3125,41.0,0.0,1440.0,3.0,0.0
3126,53.0,480.0,1440.0,1.0,0.0
3127,62.0,0.0,240.0,0.0,0.0
3128,50.0,240.0,240.0,2.0,0.0
3129,60.0,240.0,240.0,0.0,0.0
3130,48.0,0.0,240.0,2.0,0.0
3131,47.0,0.0,240.0,2.0,0.0
3132,59.0,240.0,240.0,0.0,0.0
3133,50.0,0.0,240.0,2.0,0.0
3134,62.0,0.0,240.0,0.0,0.0
3135,48.0,480.0,480.0,2.0,0.0
3136,60.0,0.0,480.0,0.0,0.0
3137,39.0,0.0,480.0,3.0,0.0
3138,55.0,0.0,480.0,1.0,0.0
3139,62.0,0.0,480.0,0.0,0.0
3140,47.0,0.0,480.0,2.0,0.0
3141,38.0,0.0,480.0,3.0,0.0
3142,48.0,480.0,480.0,2.0,0.0
3143,36.0,0.0,480.0,3.0,0.0
3144,55.0,480.0,15.0,1.0,0.0
3145,63.0,0.0,480.0,0.0,0.0
3146,35.0,0.0,960.0,3.0,0.0
3147,67.0,480.0,480.0,0.0,0.0
3148,62.0,480.0,960.0,1.0,0.0
3149,43.0,0.0,960.0,2.0,0.0
3150,65.0,0.0,480.0,0.0,0.0
3151,36.0,960.0,480.0,3.0,0.0
3152,60.0,0.0,480.0,1.0,0.0
3153,63.0,0.0,480.0,0.0,0.0
3154,43.0,0.0,480.0,2.0,0.0
3155,43.0,0.0,960.0,2.0,0.0
3156,62.0,240.0,960.0,0.0,0.0
3157,59.0,0.0,960.0,1.0,0.0
3158,31.0,0.0,1800.0,3.0,0.0
3159,60.0,0.0,480.0,1.0,0.0
3160,65.0,240.0,240.0,0.0,0.0
3161,42.0,360.0,480.0,2.0,0.0
3162,63.0,0.0,240.0,0.0,0.0
3163,59.0,0.0,360.0,1.0,0.0
3164,43.0,0.0,360.0,2.0,0.0
3165,62.0,1080.0,360.0,0.0,0.0
3166,67.0,720.0,480.0,0.0,0.0
3167,63.0,0.0,1440.0,1.0,0.0
3168,60.0,0.0,720.0,2.0,0.0
3169,72.0,240.0,720.0,0.0,0.0
3170,67.0,0.0,1440.0,1.0,0.0
3171,71.0,0.0,240.0,0.0,0.0
3172,59.0,480.0,240.0,2.0,0.0
3173,60.0,720.0,15.0,2.0,0.0
3174,72.0,0.0,15.0,0.0,0.0
3175,56.0,0.0,1440.0,3.0,0.0
3176,63.0,0.0,1440.0,1.0,0.0
3177,68.0,1440.0,1440.0,1.0,0.0
3178,71.0,0.0,240.0,0.0,0.0
3179,59.0,480.0,240.0,2.0,0.0
3180,60.0,0.0,480.0,2.0,0.0
3181,72.0,0.0,480.0,0.0,0.0
3182,54.0,0.0,1440.0,3.0,0.0
3183,63.0,0.0,1920.0,2.0,0.0
3184,75.0,240.0,1920.0,0.0,0.0
3185,66.0,480.0,1440.0,1.0,0.0
3186,69.0,0.0,1440.0,1.0,0.0
3187,68.0,0.0,1440.0,1.0,0.0
3188,65.0,0.0,1440.0,1.0,0.0
3189,53.0,0.0,1440.0,3.0,0.0
3190,74.0,0.0,240.0,0.0,0.0
3191,62.0,240.0,240.0,2.0,0.0
3192,72.0,240.0,240.0,0.0,0.0
3193,60.0,0.0,240.0,2.0,0.0
3194,71.0,240.0,240.0,0.0,0.0
3195,59.0,0.0,240.0,2.0,0.0
3196,62.0,0.0,240.0,2.0,0.0
3197,74.0,480.0,240.0,0.0,0.0
3198,60.0,0.0,480.0,2.0,0.0
3199,51.0,0.0,480.0,3.0,0.0
3200,67.0,0.0,480.0,1.0,0.0
3201,72.0,480.0,480.0,0.0,0.0
3202,74.0,0.0,480.0,0.0,0.0
3203,50.0,0.0,480.0,3.0,0.0
3204,59.0,480.0,480.0,2.0,0.0
3205,75.0,480.0,480.0,0.0,0.0
3206,48.0,0.0,480.0,3.0,0.0
3207,60.0,0.0,480.0,2.0,0.0
3208,67.0,0.0,15.0,1.0,0.0
3209,47.0,0.0,960.0,3.0,0.0
3210,74.0,480.0,960.0,1.0,0.0
3211,79.0,480.0,480.0,0.0,0.0
3212,77.0,0.0,480.0,0.0,0.0
3213,55.0,0.0,15.0,2.0,0.0
3214,48.0,0.0,480.0,3.0,0.0
3215,72.0,0.0,15.0,1.0,0.0
3216,55.0,0.0,15.0,2.0,0.0
3217,43.0,0.0,1800.0,3.0,0.0
3218,75.0,960.0,15.0,0.0,0.0
3219,74.0,0.0,480.0,0.0,0.0
3220,53.0,0.0,480.0,2.0,0.0
3221,71.0,360.0,480.0,1.0,0.0
3222,51.0,1800.0,360.0,2.0,0.0
3223,72.0,0.0,360.0,0.0,0.0
3224,44.0,0.0,1440.0,3.0,0.0
3225,56.0,1440.0,1440.0,1.0,0.0
3226,51.0,0.0,1440.0,1.0,0.0
3227,48.0,0.0,1440.0,2.0,0.0
3228,60.0,240.0,720.0,0.0,0.0
3229,59.0,480.0,240.0,0.0,0.0
3230,60.0,0.0,480.0,0.0,0.0
3231,55.0,0.0,1440.0,1.0,0.0
3232,63.0,0.0,1440.0,0.0,0.0
3233,58.0,720.0,1440.0,1.0,0.0
3234,39.0,0.0,1440.0,3.0,0.0
3235,51.0,0.0,1440.0,2.0,0.0
3236,46.0,0.0,1440.0,3.0,0.0
3237,61.0,240.0,720.0,0.0,0.0
3238,53.0,1440.0,1440.0,1.0,0.0
3239,58.0,0.0,1440.0,1.0,0.0
3240,49.0,0.0,1440.0,2.0,0.0
3241,60.0,480.0,240.0,0.0,0.0
3242,61.0,0.0,480.0,0.0,0.0
3243,58.0,720.0,1440.0,1.0,0.0
3244,51.0,0.0,1440.0,2.0,0.0
3245,63.0,0.0,1440.0,0.0,0.0
3246,43.0,0.0,1440.0,3.0,0.0
3247,48.0,0.0,1440.0,2.0,0.0
3248,51.0,0.0,1440.0,1.0,0.0
3249,56.0,0.0,1440.0,1.0,0.0
3250,44.0,960.0,1440.0,3.0,0.0
3251,60.0,240.0,720.0,0.0,0.0
3252,59.0,480.0,240.0,0.0,0.0
3253,60.0,0.0,480.0,0.0,0.0
3254,58.0,0.0,1440.0,1.0,0.0
3255,39.0,0.0,1440.0,3.0,0.0
3256,55.0,0.0,1440.0,1.0,0.0
3257,63.0,480.0,15.0,0.0,0.0
3258,53.0,0.0,1440.0,1.0,0.0
3259,58.0,0.0,1440.0,1.0,0.0
3260,34.0,0.0,1440.0,3.0,0.0
3261,63.0,0.0,15.0,0.0,0.0
3262,46.0,960.0,15.0,2.0,0.0
3263,62.0,480.0,480.0,0.0,0.0
3264,58.0,960.0,480.0,1.0,0.0
3265,55.0,0.0,480.0,1.0,0.0
3266,39.0,0.0,480.0,2.0,0.0
3267,27.0,0.0,480.0,3.0,0.0
3268,63.0,0.0,480.0,0.0,0.0
3269,63.0,720.0,480.0,0.0,0.0
3270,56.0,0.0,1440.0,3.0,0.0
3271,63.0,0.0,1440.0,1.0,0.0
3272,68.0,0.0,1440.0,1.0,0.0
3273,72.0,240.0,720.0,0.0,0.0
3274,60.0,0.0,720.0,2.0,0.0
3275,59.0,0.0,240.0,2.0,0.0
3276,71.0,480.0,240.0,0.0,0.0
3277,72.0,1440.0,480.0,0.0,0.0
3278,60.0,0.0,480.0,2.0,0.0
3279,67.0,0.0,1440.0,1.0,0.0
3280,51.0,0.0,1440.0,3.0,0.0
3281,75.0,0.0,1440.0,0.0,0.0
3282,63.0,0.0,1440.0,2.0,0.0
3283,58.0,1440.0,1440.0,3.0,0.0
3284,73.0,0.0,720.0,0.0,0.0
3285,61.0,240.0,720.0,2.0,0.0
3286,70.0,720.0,15.0,1.0,0.0
3287,65.0,0.0,1440.0,1.0,0.0
3288,72.0,480.0,240.0,0.0,0.0
3289,60.0,0.0,240.0,2.0,0.0
3290,61.0,0.0,480.0,2.0,0.0
3291,73.0,0.0,480.0,0.0,0.0
3292,70.0,0.0,15.0,1.0,0.0
3293,75.0,0.0,1440.0,0.0,0.0
3294,55.0,0.0,1440.0,3.0,0.0
3295,63.0,720.0,1440.0,2.0,0.0
3296,68.0,0.0,1440.0,1.0,0.0
3297,72.0,0.0,720.0,0.0,0.0
3298,63.0,0.0,1440.0,1.0,0.0
3299,60.0,240.0,720.0,2.0,0.0
3300,56.0,0.0,1440.0,3.0,0.0
3301,71.0,0.0,240.0,0.0,0.0
3302,59.0,480.0,240.0,2.0,0.0
3303,72.0,720.0,480.0,0.0,0.0
3304,60.0,0.0,480.0,2.0,0.0
3305,54.0,0.0,1440.0,2.0,0.0
3306,60.0,0.0,720.0,1.0,0.0
3307,44.0,960.0,1440.0,3.0,0.0
3308,72.0,600.0,720.0,0.0,0.0
3309,60.0,0.0,360.0,1.0,0.0
3310,72.0,120.0,360.0,0.0,0.0
3311,55.0,0.0,2880.0,2.0,0.0
3312,60.0,0.0,960.0,1.0,0.0
3313,72.0,480.0,960.0,0.0,0.0
3314,43.0,0.0,2880.0,3.0,0.0
3315,71.0,0.0,480.0,0.0,0.0
3316,59.0,1440.0,480.0,1.0,0.0
3317,74.0,0.0,1440.0,0.0,0.0
3318,62.0,1440.0,1440.0,1.0,0.0
3319,67.0,720.0,480.0,0.0,0.0
3320,72.0,240.0,720.0,0.0,0.0
3321,60.0,0.0,720.0,2.0,0.0
3322,67.0,0.0,1440.0,1.0,0.0
3323,71.0,0.0,240.0,0.0,0.0
3324,59.0,480.0,240.0,2.0,0.0
3325,60.0,0.0,480.0,2.0,0.0
3326,56.0,0.0,1440.0,3.0,0.0
3327,63.0,0.0,15.0,1.0,0.0
3328,68.0,0.0,1440.0,1.0,0.0
3329,72.0,720.0,15.0,0.0,0.0
3330,60.0,240.0,720.0,2.0,0.0
3331,59.0,0.0,240.0,2.0,0.0
3332,71.0,480.0,240.0,0.0,0.0
3333,60.0,0.0,480.0,2.0,0.0
3334,72.0,1440.0,480.0,0.0,0.0
3335,63.0,0.0,1920.0,2.0,0.0
3336,54.0,480.0,1440.0,3.0,0.0
3337,69.0,0.0,1440.0,1.0,0.0
3338,66.0,0.0,1440.0,1.0,0.0
3339,75.0,240.0,1920.0,0.0,0.0
3340,65.0,0.0,1440.0,1.0,0.0
3341,53.0,480.0,1440.0,3.0,0.0
3342,68.0,0.0,1440.0,1.0,0.0
3343,74.0,240.0,240.0,0.0,0.0
3344,62.0,0.0,240.0,2.0,0.0
3345,60.0,0.0,240.0,2.0,0.0
3346,72.0,240.0,240.0,0.0,0.0
3347,59.0,240.0,240.0,2.0,0.0
3348,71.0,0.0,240.0,0.0,0.0
3349,74.0,0.0,240.0,0.0,0.0
3350,62.0,0.0,240.0,2.0,0.0
3351,60.0,0.0,480.0,2.0,0.0
3352,72.0,480.0,480.0,0.0,0.0
3353,51.0,0.0,480.0,3.0,0.0
3354,67.0,0.0,15.0,1.0,0.0
3355,59.0,480.0,480.0,2.0,0.0
3356,50.0,0.0,480.0,3.0,0.0
3357,74.0,0.0,480.0,0.0,0.0
3358,48.0,480.0,480.0,3.0,0.0
3359,67.0,0.0,480.0,1.0,0.0
3360,60.0,0.0,480.0,2.0,0.0
3361,75.0,0.0,480.0,0.0,0.0
3362,47.0,0.0,960.0,3.0,0.0
3363,79.0,480.0,480.0,0.0,0.0
3364,74.0,0.0,960.0,1.0,0.0
3365,77.0,0.0,480.0,0.0,0.0
3366,48.0,0.0,480.0,3.0,0.0
3367,75.0,0.0,480.0,0.0,0.0
3368,55.0,480.0,15.0,2.0,0.0
3369,72.0,960.0,480.0,1.0,0.0
3370,74.0,240.0,960.0,0.0,0.0
3371,43.0,0.0,1800.0,3.0,0.0
3372,55.0,0.0,15.0,2.0,0.0
3373,71.0,0.0,960.0,1.0,0.0
3374,54.0,360.0,480.0,2.0,0.0
3375,77.0,240.0,240.0,0.0,0.0
3376,72.0,0.0,480.0,1.0,0.0
3377,75.0,0.0,240.0,0.0,0.0
3378,55.0,0.0,360.0,2.0,0.0
3379,71.0,1080.0,360.0,1.0,0.0
3380,74.0,0.0,360.0,0.0,0.0
3381,55.0,720.0,480.0,0.0,0.0
3382,55.0,720.0,1440.0,1.0,0.0
3383,48.0,0.0,720.0,2.0,0.0
3384,60.0,240.0,720.0,0.0,0.0
3385,59.0,0.0,240.0,0.0,0.0
3386,47.0,480.0,240.0,2.0,0.0
3387,48.0,0.0,480.0,2.0,0.0
3388,60.0,0.0,480.0,0.0,0.0
3389,44.0,0.0,1440.0,3.0,0.0
3390,56.0,0.0,1440.0,1.0,0.0
3391,51.0,0.0,15.0,1.0,0.0
3392,60.0,240.0,720.0,0.0,0.0
3393,48.0,0.0,720.0,2.0,0.0
3394,59.0,480.0,240.0,0.0,0.0
3395,47.0,0.0,240.0,2.0,0.0
3396,48.0,0.0,480.0,2.0,0.0
3397,60.0,1920.0,480.0,0.0,0.0
3398,49.0,0.0,2880.0,2.0,0.0
3399,58.0,0.0,2880.0,1.0,0.0
3400,61.0,0.0,2880.0,1.0,0.0
3401,46.0,240.0,2880.0,3.0,0.0
3402,68.0,240.0,1920.0,0.0,0.0
3403,56.0,0.0,1920.0,2.0,0.0
3404,67.0,0.0,240.0,0.0,0.0
3405,55.0,240.0,240.0,2.0,0.0
3406,53.0,0.0,240.0,2.0,0.0
3407,65.0,240.0,240.0,0.0,0.0
3408,52.0,240.0,240.0,2.0,0.0
3409,64.0,0.0,240.0,0.0,0.0
3410,67.0,0.0,240.0,0.0,0.0
3411,55.0,0.0,240.0,2.0,0.0
3412,65.0,480.0,240.0,0.0,0.0
3413,53.0,0.0,240.0,2.0,0.0
3414,48.0,0.0,240.0,2.0,0.0
3415,56.0,0.0,240.0,1.0,0.0
3416,44.0,0.0,240.0,3.0,0.0
3417,60.0,0.0,240.0,1.0,0.0
3418,61.0,0.0,960.0,1.0,0.0
3419,58.0,0.0,960.0,1.0,0.0
3420,55.0,0.0,960.0,2.0,0.0
3421,46.0,240.0,960.0,3.0,0.0
3422,67.0,240.0,240.0,0.0,0.0
3423,49.0,0.0,960.0,2.0,0.0
3424,65.0,240.0,240.0,0.0,0.0
3425,64.0,240.0,240.0,0.0,0.0
3426,67.0,0.0,240.0,0.0,0.0
3427,60.0,0.0,240.0,1.0,0.0
3428,56.0,480.0,240.0,1.0,0.0
3429,48.0,0.0,240.0,2.0,0.0
3430,53.0,0.0,240.0,2.0,0.0
3431,44.0,0.0,240.0,3.0,0.0
3432,65.0,0.0,240.0,0.0,0.0
3433,46.0,0.0,960.0,3.0,0.0
3434,49.0,0.0,960.0,2.0,0.0
3435,55.0,0.0,960.0,2.0,0.0
3436,58.0,0.0,960.0,1.0,0.0
3437,67.0,240.0,240.0,0.0,0.0
3438,61.0,0.0,960.0,1.0,0.0
3439,65.0,240.0,240.0,0.0,0.0
3440,64.0,240.0,240.0,0.0,0.0
3441,67.0,240.0,240.0,0.0,0.0
3442,48.0,0.0,240.0,2.0,0.0
3443,44.0,0.0,240.0,3.0,0.0
3444,53.0,0.0,240.0,2.0,0.0
3445,60.0,480.0,240.0,1.0,0.0
3446,56.0,0.0,240.0,1.0,0.0
3447,65.0,0.0,240.0,0.0,0.0
3448,65.0,240.0,240.0,0.0,0.0
3449,64.0,240.0,240.0,0.0,0.0
3450,65.0,240.0,240.0,0.0,0.0
3451,67.0,240.0,240.0,0.0,0.0
3452,68.0,240.0,240.0,0.0,0.0
3453,70.0,240.0,240.0,0.0,0.0
3454,72.0,240.0,240.0,0.0,0.0
3455,71.0,240.0,240.0,0.0,0.0
3456,60.0,0.0,240.0,2.0,0.0
3457,72.0,240.0,240.0,0.0,0.0
3458,53.0,0.0,240.0,3.0,0.0
3459,68.0,240.0,240.0,0.0,0.0
3460,55.0,480.0,240.0,3.0,0.0
3461,67.0,0.0,240.0,0.0,0.0
3462,60.0,0.0,240.0,2.0,0.0
3463,67.0,240.0,240.0,0.0,0.0
3464,66.0,240.0,240.0,0.0,0.0
3465,67.0,240.0,240.0,0.0,0.0
3466,63.0,240.0,240.0,0.0,0.0
3467,31.0,0.0,240.0,3.0,0.0
3468,62.0,480.0,240.0,0.0,0.0
3469,43.0,0.0,240.0,2.0,0.0
3470,59.0,0.0,240.0,1.0,0.0
3471,67.0,240.0,240.0,0.0,0.0
3472,66.0,240.0,240.0,0.0,0.0
3473,67.0,240.0,240.0,0.0,0.0
3474,62.0,1440.0,240.0,0.0,0.0
3475,60.0,0.0,1440.0,0.0,0.0
3476,36.0,480.0,2880.0,3.0,0.0
3477,52.0,480.0,480.0,1.0,0.0
3478,43.0,0.0,480.0,2.0,0.0
3479,59.0,0.0,1440.0,0.0,0.0
3480,44.0,0.0,480.0,2.0,0.0
3481,53.0,240.0,480.0,1.0,0.0
3482,44.0,0.0,240.0,2.0,0.0
3483,53.0,240.0,240.0,1.0,0.0
3484,43.0,240.0,240.0,2.0,0.0
3485,55.0,0.0,240.0,1.0,0.0
3486,56.0,0.0,240.0,0.0,0.0
3487,41.0,240.0,240.0,2.0,0.0
3488,53.0,0.0,240.0,1.0,0.0
3489,44.0,0.0,240.0,2.0,0.0
3490,48.0,480.0,1440.0,2.0,0.0
3491,52.0,0.0,480.0,1.0,0.0
3492,36.0,0.0,480.0,3.0,0.0
3493,60.0,960.0,480.0,0.0,0.0
3494,64.0,0.0,480.0,0.0,0.0
3495,60.0,0.0,480.0,1.0,0.0
3496,55.0,0.0,480.0,2.0,0.0
3497,48.0,0.0,1440.0,3.0,0.0
3498,56.0,0.0,480.0,2.0,0.0
3499,59.0,0.0,1440.0,1.0,0.0
3500,56.0,0.0,240.0,2.0,0.0
3501,65.0,240.0,15.0,0.0,0.0
3502,55.0,240.0,240.0,2.0,0.0
3503,67.0,0.0,240.0,0.0,0.0
3504,68.0,0.0,240.0,0.0,0.0
3505,53.0,240.0,240.0,2.0,0.0
3506,56.0,240.0,240.0,2.0,0.0
3507,65.0,0.0,240.0,0.0,0.0
3508,60.0,0.0,240.0,1.0,0.0
3509,55.0,1200.0,240.0,2.0,0.0
3510,64.0,0.0,240.0,0.0,0.0
3511,48.0,240.0,1440.0,3.0,0.0
3512,64.0,0.0,480.0,1.0,0.0
3513,72.0,0.0,480.0,0.0,0.0
3514,55.0,0.0,480.0,2.0,0.0
3515,65.0,240.0,240.0,1.0,0.0
3516,71.0,0.0,1440.0,0.0,0.0
3517,56.0,240.0,15.0,2.0,0.0
3518,65.0,240.0,240.0,1.0,0.0
3519,55.0,0.0,240.0,2.0,0.0
3520,67.0,240.0,240.0,1.0,0.0
3521,53.0,240.0,240.0,2.0,0.0
3522,68.0,0.0,240.0,1.0,0.0
3523,65.0,240.0,240.0,1.0,0.0
3524,56.0,0.0,240.0,2.0,0.0
3525,48.0,0.0,15.0,3.0,0.0
3526,72.0,0.0,240.0,0.0,0.0
3527,64.0,0.0,240.0,1.0,0.0
3528,55.0,480.0,240.0,2.0,0.0
3529,56.0,240.0,240.0,2.0,0.0
3530,65.0,0.0,240.0,1.0,0.0
3531,71.0,0.0,960.0,0.0,0.0
3532,55.0,240.0,240.0,2.0,0.0
3533,67.0,0.0,240.0,1.0,0.0
3534,68.0,240.0,240.0,1.0,0.0
3535,53.0,0.0,240.0,2.0,0.0
3536,56.0,240.0,240.0,2.0,0.0
3537,65.0,0.0,240.0,1.0,0.0
3538,48.0,0.0,15.0,3.0,0.0
3539,64.0,240.0,240.0,1.0,0.0
3540,72.0,0.0,240.0,0.0,0.0
3541,55.0,240.0,480.0,2.0,0.0
3542,56.0,0.0,240.0,2.0,0.0
3543,65.0,240.0,240.0,1.0,0.0
3544,71.0,0.0,960.0,0.0,0.0
3545,48.0,0.0,960.0,3.0,0.0
3546,67.0,0.0,240.0,1.0,0.0
3547,55.0,240.0,240.0,2.0,0.0
3548,53.0,0.0,240.0,2.0,0.0
3549,68.0,240.0,240.0,1.0,0.0
3550,65.0,240.0,240.0,1.0,0.0
3551,56.0,0.0,240.0,2.0,0.0
3552,72.0,0.0,240.0,0.0,0.0
3553,55.0,0.0,240.0,2.0,0.0
3554,48.0,1440.0,240.0,3.0,0.0
3555,64.0,0.0,240.0,1.0,0.0
3556,72.0,0.0,240.0,1.0,0.0
3557,76.0,0.0,240.0,0.0,0.0
3558,48.0,1440.0,240.0,3.0,0.0
3559,55.0,0.0,240.0,2.0,0.0
3560,36.0,0.0,240.0,3.0,0.0
3561,84.0,0.0,240.0,0.0,0.0
3562,48.0,0.0,240.0,2.0,0.0
3563,43.0,0.0,240.0,2.0,0.0
3564,76.0,2640.0,240.0,1.0,0.0
3565,72.0,0.0,240.0,1.0,0.0
3566,84.0,1440.0,1440.0,0.0,0.0
3567,60.0,480.0,1680.0,0.0,0.0
3568,51.0,0.0,1440.0,1.0,0.0
3569,44.0,0.0,1440.0,2.0,0.0
3570,49.0,0.0,1440.0,1.0,0.0
3571,43.0,480.0,960.0,2.0,0.0
3572,58.0,480.0,480.0,0.0,0.0
3573,61.0,0.0,480.0,0.0,0.0
3574,46.0,0.0,480.0,2.0,0.0
3575,55.0,360.0,480.0,0.0,0.0
3576,56.0,0.0,360.0,0.0,0.0
3577,44.0,360.0,480.0,2.0,0.0
3578,32.0,0.0,15.0,3.0,0.0
3579,44.0,120.0,360.0,1.0,0.0
3580,60.0,480.0,360.0,0.0,0.0
3581,63.0,480.0,360.0,0.0,0.0
3582,68.0,480.0,360.0,0.0,0.0
3583,70.0,480.0,360.0,0.0,0.0
3584,71.0,1560.0,360.0,0.0,0.0
3585,56.0,0.0,1440.0,2.0,0.0
3586,44.0,0.0,2880.0,3.0,0.0
3587,72.0,0.0,1440.0,0.0,0.0
3588,60.0,0.0,1440.0,1.0,0.0
3589,63.0,480.0,1440.0,1.0,0.0
3590,55.0,480.0,960.0,2.0,0.0
3591,61.0,0.0,1440.0,1.0,0.0
3592,70.0,480.0,480.0,0.0,0.0
3593,73.0,0.0,480.0,0.0,0.0
3594,58.0,360.0,480.0,2.0,0.0
3595,67.0,0.0,480.0,0.0,0.0
3596,68.0,120.0,360.0,0.0,0.0
3597,56.0,360.0,480.0,2.0,0.0
3598,44.0,0.0,480.0,3.0,0.0
3599,72.0,480.0,360.0,0.0,0.0
3600,75.0,480.0,360.0,0.0,0.0
3601,80.0,480.0,360.0,0.0,0.0
3602,82.0,480.0,360.0,0.0,0.0
3603,83.0,1560.0,360.0,0.0,0.0
3604,44.0,0.0,2880.0,3.0,0.0
3605,72.0,0.0,2880.0,1.0,0.0
3606,84.0,1440.0,2880.0,0.0,0.0
3607,51.0,1440.0,1440.0,2.0,0.0
3608,53.0,0.0,1440.0,2.0,0.0
3609,79.0,0.0,2880.0,0.0,0.0
3610,67.0,0.0,2880.0,1.0,0.0
3611,48.0,0.0,15.0,2.0,0.0
3612,55.0,480.0,2880.0,2.0,0.0
3613,43.0,0.0,2880.0,3.0,0.0
3614,51.0,1440.0,1440.0,2.0,0.0
3615,47.0,0.0,1440.0,2.0,0.0
3616,50.0,0.0,1440.0,2.0,0.0
3617,72.0,0.0,480.0,0.0,0.0
3618,60.0,0.0,480.0,0.0,0.0
3619,48.0,1440.0,480.0,3.0,0.0
3620,60.0,0.0,480.0,0.0,0.0
3621,48.0,1440.0,480.0,3.0,0.0
3622,36.0,0.0,480.0,3.0,0.0
3623,48.0,0.0,480.0,3.0,0.0
3624,36.0,0.0,480.0,3.0,0.0
3625,60.0,2240.0,480.0,0.0,0.0
3626,67.0,0.0,480.0,0.0,0.0
3627,52.0,320.0,480.0,3.0,0.0
3628,55.0,160.0,150.0,2.0,0.0
3629,60.0,0.0,150.0,2.0,0.0
3630,50.0,0.0,480.0,3.0,0.0
3631,71.0,0.0,480.0,0.0,0.0
3632,59.0,320.0,480.0,1.0,0.0
3633,53.0,160.0,150.0,2.0,0.0
3634,55.0,0.0,150.0,2.0,0.0
3635,72.0,240.0,960.0,0.0,0.0
3636,48.0,0.0,480.0,3.0,0.0
3637,52.0,160.0,150.0,2.0,0.0
3638,55.0,320.0,150.0,2.0,0.0
3639,47.0,0.0,480.0,3.0,0.0
3640,50.0,160.0,150.0,2.0,0.0
3641,55.0,0.0,150.0,2.0,0.0
3642,60.0,0.0,15.0,1.0,0.0
3643,45.0,240.0,480.0,3.0,0.0
3644,72.0,80.0,240.0,0.0,0.0
3645,48.0,160.0,150.0,2.0,0.0
3646,53.0,0.0,150.0,2.0,0.0
3647,43.0,0.0,480.0,3.0,0.0
3648,72.0,80.0,240.0,0.0,0.0
3649,60.0,0.0,240.0,1.0,0.0
3650,47.0,160.0,150.0,2.0,0.0
3651,52.0,320.0,150.0,2.0,0.0
3652,62.0,80.0,720.0,1.0,0.0
3653,74.0,0.0,720.0,0.0,0.0
3654,41.0,0.0,480.0,3.0,0.0
3655,45.0,160.0,150.0,2.0,0.0
3656,50.0,240.0,150.0,2.0,0.0
3657,40.0,0.0,480.0,3.0,0.0
3658,43.0,160.0,150.0,2.0,0.0
3659,64.0,0.0,240.0,1.0,0.0
3660,76.0,0.0,240.0,0.0,0.0
3661,48.0,240.0,150.0,2.0,0.0
3662,77.0,0.0,240.0,0.0,0.0
3663,38.0,0.0,480.0,3.0,0.0
3664,65.0,80.0,240.0,1.0,0.0
3665,41.0,160.0,150.0,2.0,0.0
3666,47.0,240.0,150.0,2.0,0.0
3667,65.0,0.0,240.0,1.0,0.0
3668,36.0,240.0,480.0,3.0,0.0
3669,77.0,80.0,240.0,0.0,0.0
3670,40.0,160.0,150.0,2.0,0.0
3671,45.0,0.0,150.0,2.0,0.0
3672,35.0,240.0,480.0,3.0,0.0
3673,65.0,80.0,240.0,1.0,0.0
3674,77.0,0.0,240.0,0.0,0.0
3675,38.0,160.0,150.0,2.0,0.0
3676,43.0,0.0,150.0,2.0,0.0
3677,65.0,80.0,240.0,1.0,0.0
3678,36.0,240.0,480.0,3.0,0.0
3679,77.0,0.0,240.0,0.0,0.0
3680,40.0,160.0,150.0,2.0,0.0
3681,43.0,0.0,150.0,2.0,0.0
3682,77.0,0.0,240.0,0.0,0.0
3683,65.0,80.0,240.0,1.0,0.0
3684,35.0,240.0,480.0,3.0,0.0
3685,38.0,160.0,150.0,2.0,0.0
3686,43.0,0.0,150.0,2.0,0.0
3687,33.0,480.0,480.0,3.0,0.0
3688,77.0,0.0,240.0,0.0,0.0
3689,65.0,80.0,240.0,1.0,0.0
3690,36.0,160.0,150.0,2.0,0.0
3691,43.0,0.0,150.0,2.0,0.0
3692,35.0,240.0,480.0,2.0,0.0
3693,65.0,0.0,960.0,1.0,0.0
3694,31.0,0.0,720.0,3.0,0.0
3695,43.0,240.0,240.0,2.0,0.0
3696,77.0,120.0,15.0,0.0,0.0
3697,76.0,120.0,120.0,0.0,0.0
3698,74.0,120.0,120.0,0.0,0.0
3699,72.0,120.0,120.0,0.0,0.0
3700,71.0,120.0,120.0,0.0,0.0
3701,69.0,120.0,120.0,0.0,0.0
3702,67.0,120.0,120.0,0.0,0.0
3703,65.0,480.0,120.0,0.0,0.0
3704,64.0,480.0,480.0,0.0,0.0
3705,48.0,480.0,960.0,3.0,0.0
3706,67.0,360.0,960.0,0.0,0.0
3707,55.0,0.0,960.0,3.0,0.0
3708,43.0,480.0,960.0,3.0,0.0
3709,59.0,0.0,960.0,1.0,0.0
3710,53.0,0.0,480.0,3.0,0.0
3711,62.0,120.0,360.0,0.0,0.0
3712,64.0,0.0,120.0,0.0,0.0
3713,52.0,240.0,480.0,3.0,0.0
3714,60.0,0.0,480.0,0.0,0.0
3715,48.0,336.0,750.0,3.0,0.0
3716,55.0,24.0,240.0,3.0,0.0
3717,65.0,120.0,120.0,0.0,0.0
3718,64.0,120.0,120.0,0.0,0.0
3719,62.0,120.0,120.0,0.0,0.0
3720,60.0,120.0,120.0,0.0,0.0
3721,59.0,120.0,120.0,0.0,0.0
3722,57.0,120.0,120.0,0.0,0.0
3723,55.0,120.0,120.0,0.0,0.0
3724,53.0,480.0,120.0,0.0,0.0
3725,52.0,480.0,480.0,0.0,0.0
3726,36.0,480.0,960.0,3.0,0.0
3727,55.0,0.0,960.0,0.0,0.0
3728,43.0,240.0,960.0,3.0,0.0
3729,35.0,0.0,960.0,3.0,0.0
3730,47.0,0.0,960.0,1.0,0.0
3731,50.0,120.0,360.0,0.0,0.0
3732,41.0,120.0,240.0,3.0,0.0
3733,52.0,480.0,120.0,0.0,0.0
3734,36.0,0.0,480.0,3.0,0.0
3735,48.0,240.0,480.0,0.0,0.0
3736,40.0,0.0,480.0,3.0,0.0
3737,48.0,560.0,240.0,3.0,0.0
3738,67.0,320.0,480.0,0.0,0.0
3739,52.0,0.0,480.0,3.0,0.0
3740,55.0,160.0,150.0,2.0,0.0
3741,60.0,0.0,150.0,2.0,0.0
3742,59.0,0.0,480.0,1.0,0.0
3743,71.0,0.0,480.0,0.0,0.0
3744,50.0,320.0,480.0,3.0,0.0
3745,53.0,160.0,150.0,2.0,0.0
3746,55.0,0.0,150.0,2.0,0.0
3747,72.0,0.0,960.0,0.0,0.0
3748,48.0,0.0,480.0,3.0,0.0
3749,52.0,160.0,150.0,2.0,0.0
3750,55.0,320.0,150.0,2.0,0.0
3751,47.0,0.0,480.0,3.0,0.0
3752,50.0,160.0,150.0,2.0,0.0
3753,55.0,240.0,150.0,2.0,0.0
3754,60.0,0.0,15.0,1.0,0.0
3755,45.0,0.0,480.0,3.0,0.0
3756,72.0,0.0,240.0,0.0,0.0
3757,48.0,160.0,150.0,2.0,0.0
3758,53.0,240.0,150.0,2.0,0.0
3759,72.0,80.0,240.0,0.0,0.0
3760,60.0,0.0,240.0,1.0,0.0
3761,43.0,320.0,480.0,3.0,0.0
3762,47.0,160.0,150.0,2.0,0.0
3763,52.0,0.0,150.0,2.0,0.0
3764,74.0,0.0,720.0,0.0,0.0
3765,62.0,80.0,720.0,1.0,0.0
3766,41.0,240.0,480.0,3.0,0.0
3767,45.0,160.0,150.0,2.0,0.0
3768,50.0,0.0,150.0,2.0,0.0
3769,40.0,0.0,480.0,3.0,0.0
3770,43.0,160.0,150.0,2.0,0.0
3771,76.0,0.0,240.0,0.0,0.0
3772,64.0,240.0,240.0,1.0,0.0
3773,48.0,0.0,150.0,2.0,0.0
3774,77.0,0.0,240.0,0.0,0.0
3775,38.0,0.0,480.0,3.0,0.0
3776,65.0,80.0,240.0,1.0,0.0
3777,41.0,160.0,150.0,2.0,0.0
3778,47.0,240.0,150.0,2.0,0.0
3779,77.0,0.0,240.0,0.0,0.0
3780,36.0,240.0,480.0,3.0,0.0
3781,65.0,80.0,240.0,1.0,0.0
3782,40.0,160.0,150.0,2.0,0.0
3783,45.0,0.0,150.0,2.0,0.0
3784,77.0,0.0,240.0,0.0,0.0
3785,65.0,80.0,240.0,1.0,0.0
3786,35.0,240.0,480.0,3.0,0.0
3787,38.0,160.0,150.0,2.0,0.0
3788,43.0,0.0,150.0,2.0,0.0
3789,36.0,0.0,480.0,3.0,0.0
3790,77.0,80.0,240.0,0.0,0.0
3791,65.0,0.0,240.0,1.0,0.0
3792,40.0,160.0,150.0,2.0,0.0
3793,43.0,240.0,150.0,2.0,0.0
3794,65.0,80.0,240.0,1.0,0.0
3795,77.0,0.0,240.0,0.0,0.0
3796,35.0,240.0,480.0,3.0,0.0
3797,38.0,160.0,150.0,2.0,0.0
3798,43.0,0.0,150.0,2.0,0.0
3799,65.0,80.0,240.0,1.0,0.0
3800,77.0,0.0,240.0,0.0,0.0
3801,33.0,480.0,480.0,3.0,0.0
3802,36.0,160.0,150.0,2.0,0.0
3803,43.0,0.0,150.0,2.0,0.0
3804,35.0,240.0,480.0,2.0,0.0
3805,65.0,0.0,960.0,1.0,0.0
3806,77.0,120.0,960.0,0.0,0.0
3807,31.0,240.0,720.0,3.0,0.0
3808,43.0,0.0,240.0,2.0,0.0
3809,77.0,120.0,120.0,0.0,0.0
3810,76.0,120.0,120.0,0.0,0.0
3811,74.0,120.0,120.0,0.0,0.0
3812,72.0,120.0,120.0,0.0,0.0
3813,71.0,120.0,120.0,0.0,0.0
3814,69.0,120.0,120.0,0.0,0.0
3815,67.0,120.0,120.0,0.0,0.0
3816,65.0,480.0,120.0,0.0,0.0
3817,64.0,480.0,480.0,0.0,0.0
3818,48.0,480.0,960.0,3.0,0.0
3819,55.0,360.0,960.0,3.0,0.0
3820,67.0,0.0,960.0,0.0,0.0
3821,59.0,480.0,960.0,1.0,0.0
3822,43.0,0.0,960.0,3.0,0.0
3823,62.0,120.0,360.0,0.0,0.0
3824,53.0,0.0,480.0,3.0,0.0
3825,64.0,0.0,120.0,0.0,0.0
3826,60.0,240.0,480.0,0.0,0.0
3827,48.0,0.0,720.0,3.0,0.0
3828,52.0,0.0,480.0,3.0,0.0
3829,55.0,360.0,240.0,3.0,0.0
3830,60.0,120.0,120.0,3.0,0.0
3831,59.0,120.0,120.0,3.0,0.0
3832,57.0,120.0,120.0,3.0,0.0
3833,55.0,120.0,120.0,3.0,0.0
3834,54.0,120.0,120.0,3.0,0.0
3835,52.0,120.0,120.0,3.0,0.0
3836,50.0,120.0,120.0,3.0,0.0
3837,48.0,480.0,120.0,3.0,0.0
3838,47.0,480.0,480.0,3.0,0.0
3839,50.0,120.0,480.0,3.0,0.0
3840,42.0,120.0,480.0,3.0,0.0
3841,72.0,120.0,120.0,0.0,0.0
3842,71.0,120.0,120.0,0.0,0.0
3843,69.0,120.0,120.0,0.0,0.0
3844,67.0,0.0,120.0,0.0,0.0
3845,66.0,120.0,120.0,0.0,0.0
3846,50.0,0.0,480.0,3.0,0.0
3847,64.0,120.0,120.0,0.0,0.0
3848,62.0,120.0,120.0,0.0,0.0
3849,60.0,480.0,120.0,0.0,0.0
3850,43.0,120.0,960.0,3.0,0.0
3851,59.0,480.0,480.0,0.0,0.0
3852,62.0,0.0,480.0,0.0,0.0
3853,48.0,120.0,120.0,3.0,0.0
3854,54.0,0.0,480.0,0.0,0.0
3855,47.0,120.0,120.0,3.0,0.0
3856,45.0,120.0,120.0,3.0,0.0
3857,43.0,120.0,120.0,3.0,0.0
3858,42.0,120.0,120.0,3.0,0.0
3859,62.0,480.0,480.0,0.0,0.0
3860,40.0,120.0,120.0,3.0,0.0
3861,38.0,120.0,120.0,3.0,0.0
3862,36.0,0.0,120.0,3.0,0.0
3863,35.0,480.0,480.0,3.0,0.0
3864,55.0,120.0,960.0,0.0,0.0
3865,38.0,0.0,480.0,3.0,0.0
3866,30.0,120.0,480.0,3.0,0.0
3867,60.0,120.0,120.0,0.0,0.0
3868,59.0,120.0,120.0,0.0,0.0
3869,57.0,120.0,120.0,0.0,0.0
3870,55.0,0.0,120.0,0.0,0.0
3871,54.0,120.0,120.0,0.0,0.0
3872,38.0,120.0,480.0,3.0,0.0
3873,52.0,120.0,120.0,0.0,0.0
3874,50.0,120.0,120.0,0.0,0.0
3875,48.0,0.0,120.0,0.0,0.0
3876,31.0,960.0,960.0,3.0,0.0
3877,47.0,120.0,120.0,0.0,0.0
3878,48.0,120.0,120.0,0.0,0.0
3879,50.0,120.0,120.0,0.0,0.0
3880,52.0,120.0,120.0,0.0,0.0
3881,43.0,0.0,480.0,3.0,0.0
3882,54.0,120.0,120.0,0.0,0.0
3883,55.0,120.0,120.0,0.0,0.0
3884,57.0,120.0,120.0,0.0,0.0
3885,59.0,0.0,120.0,0.0,0.0
3886,60.0,120.0,960.0,0.0,0.0
3887,33.0,0.0,960.0,3.0,0.0
3888,45.0,0.0,960.0,3.0,0.0
3889,43.0,0.0,480.0,3.0,0.0
3890,35.0,0.0,960.0,3.0,0.0
3891,47.0,0.0,960.0,3.0,0.0
3892,62.0,120.0,120.0,0.0,0.0
3893,64.0,120.0,120.0,0.0,0.0
3894,66.0,120.0,120.0,0.0,0.0
3895,67.0,120.0,120.0,0.0,0.0
3896,43.0,0.0,480.0,3.0,0.0
3897,69.0,120.0,120.0,0.0,0.0
3898,71.0,120.0,120.0,0.0,0.0
3899,72.0,120.0,120.0,0.0,0.0
3900,74.0,960.0,120.0,0.0,0.0
3901,48.0,0.0,960.0,3.0,0.0
3902,36.0,0.0,960.0,3.0,0.0
3903,76.0,80.0,960.0,0.0,0.0
3904,43.0,0.0,480.0,3.0,0.0
3905,38.0,0.0,240.0,3.0,0.0
3906,50.0,120.0,240.0,3.0,0.0
3907,78.0,80.0,90.0,0.0,0.0
3908,79.0,80.0,90.0,0.0,0.0
3909,78.0,0.0,90.0,0.0,0.0
3910,76.0,120.0,120.0,0.0,0.0
3911,78.0,240.0,120.0,0.0,0.0
3912,52.0,0.0,240.0,3.0,0.0
3913,40.0,0.0,240.0,3.0,0.0
3914,79.0,320.0,240.0,0.0,0.0
3915,69.0,80.0,90.0,0.0,0.0
3916,36.0,120.0,240.0,3.0,0.0
3917,48.0,0.0,240.0,3.0,0.0
3918,71.0,80.0,90.0,0.0,0.0
3919,69.0,0.0,90.0,0.0,0.0
3920,68.0,120.0,120.0,0.0,0.0
3921,69.0,240.0,120.0,0.0,0.0
3922,74.0,0.0,240.0,0.0,0.0
3923,38.0,480.0,240.0,3.0,0.0
3924,50.0,0.0,240.0,3.0,0.0
3925,67.0,0.0,240.0,0.0,0.0
3926,31.0,1680.0,240.0,3.0,0.0
3927,43.0,0.0,240.0,3.0,0.0
3928,79.0,960.0,960.0,0.0,0.0
3929,67.0,960.0,960.0,0.0,0.0
3930,63.0,1680.0,960.0,0.0,0.0
3931,64.0,0.0,1920.0,0.0,0.0
3932,69.0,0.0,960.0,0.0,0.0
3933,60.0,720.0,960.0,1.0,0.0
3934,48.0,240.0,240.0,3.0,0.0
3935,62.0,0.0,960.0,1.0,0.0
3936,67.0,0.0,960.0,0.0,0.0
3937,59.0,240.0,960.0,1.0,0.0
3938,50.0,240.0,240.0,3.0,0.0
3939,60.0,0.0,960.0,1.0,0.0
3940,57.0,720.0,960.0,1.0,0.0
3941,67.0,240.0,240.0,0.0,0.0
3942,66.0,240.0,240.0,0.0,0.0
3943,64.0,240.0,240.0,0.0,0.0
3944,38.0,0.0,240.0,3.0,0.0
3945,66.0,0.0,240.0,0.0,0.0
3946,55.0,0.0,960.0,1.0,0.0
3947,59.0,0.0,960.0,1.0,0.0
3948,67.0,240.0,960.0,0.0,0.0
3949,43.0,240.0,240.0,3.0,0.0
3950,31.0,0.0,240.0,3.0,0.0
3951,79.0,720.0,240.0,0.0,0.0
3952,79.0,240.0,480.0,0.0,0.0
3953,67.0,720.0,240.0,0.0,0.0
3954,67.0,240.0,480.0,0.0,0.0
3955,63.0,720.0,240.0,0.0,0.0
3956,63.0,1680.0,480.0,0.0,0.0
3957,64.0,0.0,1920.0,0.0,0.0
3958,60.0,0.0,960.0,1.0,0.0
3959,69.0,720.0,960.0,0.0,0.0
3960,48.0,240.0,240.0,3.0,0.0
3961,67.0,0.0,960.0,0.0,0.0
3962,62.0,0.0,960.0,1.0,0.0
3963,59.0,240.0,960.0,1.0,0.0
3964,50.0,240.0,240.0,3.0,0.0
3965,57.0,0.0,960.0,1.0,0.0
3966,60.0,720.0,960.0,1.0,0.0
3967,67.0,240.0,240.0,0.0,0.0
3968,66.0,240.0,240.0,0.0,0.0
3969,64.0,240.0,240.0,0.0,0.0
3970,38.0,0.0,240.0,3.0,0.0
3971,66.0,0.0,240.0,0.0,0.0
3972,55.0,720.0,960.0,1.0,0.0
3973,59.0,0.0,960.0,1.0,0.0
3974,43.0,240.0,240.0,3.0,0.0
3975,67.0,0.0,15.0,0.0,0.0
3976,57.0,0.0,960.0,1.0,0.0
3977,60.0,1920.0,960.0,1.0,0.0
3978,55.0,0.0,960.0,1.0,0.0
3979,54.0,0.0,240.0,3.0,0.0
3980,42.0,240.0,240.0,3.0,0.0
3981,67.0,0.0,15.0,0.0,0.0
3982,59.0,0.0,1920.0,1.0,0.0
3983,55.0,0.0,1920.0,1.0,0.0
3984,62.0,0.0,1920.0,1.0,0.0
3985,53.0,1280.0,1440.0,3.0,0.0
3986,41.0,0.0,1440.0,3.0,0.0
3987,67.0,0.0,480.0,0.0,0.0
3988,52.0,8.0,480.0,3.0,0.0
3989,55.0,152.0,150.0,2.0,0.0
3990,60.0,320.0,150.0,2.0,0.0
3991,59.0,320.0,480.0,1.0,0.0
3992,50.0,8.0,480.0,3.0,0.0
3993,71.0,0.0,480.0,0.0,0.0
3994,53.0,152.0,150.0,2.0,0.0
3995,55.0,0.0,150.0,2.0,0.0
3996,48.0,8.0,480.0,3.0,0.0
3997,60.0,0.0,960.0,1.0,0.0
3998,52.0,152.0,150.0,2.0,0.0
3999,55.0,320.0,150.0,2.0,0.0
4000,47.0,8.0,480.0,3.0,0.0
4001,50.0,152.0,150.0,2.0,0.0
4002,55.0,0.0,150.0,2.0,0.0
4003,72.0,240.0,15.0,0.0,0.0
4004,45.0,8.0,480.0,3.0,0.0
4005,60.0,80.0,240.0,1.0,0.0
4006,48.0,152.0,150.0,2.0,0.0
4007,53.0,240.0,150.0,2.0,0.0
4008,43.0,8.0,480.0,3.0,0.0
4009,72.0,80.0,240.0,0.0,0.0
4010,60.0,0.0,240.0,1.0,0.0
4011,47.0,152.0,150.0,2.0,0.0
4012,52.0,320.0,150.0,2.0,0.0
4013,41.0,8.0,480.0,3.0,0.0
4014,62.0,80.0,720.0,1.0,0.0
4015,74.0,0.0,720.0,0.0,0.0
4016,45.0,152.0,150.0,2.0,0.0
4017,50.0,240.0,150.0,2.0,0.0
4018,40.0,8.0,480.0,3.0,0.0
4019,43.0,152.0,150.0,2.0,0.0
4020,76.0,0.0,240.0,0.0,0.0
4021,64.0,240.0,240.0,1.0,0.0
4022,48.0,0.0,150.0,2.0,0.0
4023,77.0,0.0,240.0,0.0,0.0
4024,38.0,8.0,480.0,3.0,0.0
4025,65.0,80.0,240.0,1.0,0.0
4026,41.0,152.0,150.0,2.0,0.0
4027,47.0,240.0,150.0,2.0,0.0
4028,36.0,8.0,480.0,3.0,0.0
4029,77.0,0.0,240.0,0.0,0.0
4030,65.0,80.0,240.0,1.0,0.0
4031,40.0,152.0,150.0,2.0,0.0
4032,45.0,240.0,150.0,2.0,0.0
4033,77.0,80.0,240.0,0.0,0.0
4034,65.0,0.0,240.0,1.0,0.0
4035,35.0,8.0,480.0,3.0,0.0
4036,38.0,152.0,150.0,2.0,0.0
4037,43.0,240.0,150.0,2.0,0.0
4038,77.0,0.0,240.0,0.0,0.0
4039,65.0,80.0,240.0,1.0,0.0
4040,36.0,8.0,480.0,3.0,0.0
4041,40.0,152.0,150.0,2.0,0.0
4042,43.0,240.0,150.0,2.0,0.0
4043,65.0,0.0,240.0,1.0,0.0
4044,35.0,8.0,480.0,3.0,0.0
4045,77.0,80.0,240.0,0.0,0.0
4046,38.0,152.0,150.0,2.0,0.0
4047,43.0,240.0,150.0,2.0,0.0
4048,77.0,80.0,240.0,0.0,0.0
4049,33.0,8.0,480.0,3.0,0.0
4050,65.0,0.0,240.0,1.0,0.0
4051,36.0,152.0,150.0,2.0,0.0
4052,43.0,480.0,150.0,2.0,0.0
4053,65.0,0.0,960.0,1.0,0.0
4054,77.0,120.0,960.0,0.0,0.0
4055,31.0,240.0,720.0,3.0,0.0
4056,35.0,240.0,480.0,2.0,0.0
4057,43.0,0.0,240.0,2.0,0.0
4058,77.0,120.0,120.0,0.0,0.0
4059,76.0,120.0,120.0,0.0,0.0
4060,74.0,120.0,120.0,0.0,0.0
4061,72.0,120.0,120.0,0.0,0.0
4062,71.0,120.0,120.0,0.0,0.0
4063,69.0,120.0,120.0,0.0,0.0
4064,67.0,120.0,120.0,0.0,0.0
4065,65.0,480.0,120.0,0.0,0.0
4066,64.0,480.0,480.0,0.0,0.0
4067,48.0,480.0,960.0,3.0,0.0
4068,67.0,0.0,960.0,0.0,0.0
4069,55.0,360.0,960.0,3.0,0.0
4070,43.0,480.0,960.0,3.0,0.0
4071,59.0,0.0,960.0,1.0,0.0
4072,53.0,0.0,480.0,3.0,0.0
4073,62.0,120.0,360.0,0.0,0.0
4074,64.0,0.0,120.0,0.0,0.0
4075,60.0,0.0,480.0,0.0,0.0
4076,52.0,240.0,480.0,3.0,0.0
4077,48.0,336.0,750.0,3.0,0.0
4078,55.0,24.0,240.0,3.0,0.0
4079,65.0,120.0,120.0,0.0,0.0
4080,64.0,120.0,120.0,0.0,0.0
4081,62.0,120.0,120.0,0.0,0.0
4082,60.0,120.0,120.0,0.0,0.0
4083,59.0,120.0,120.0,0.0,0.0
4084,57.0,120.0,120.0,0.0,0.0
4085,55.0,120.0,120.0,0.0,0.0
4086,53.0,480.0,120.0,0.0,0.0
4087,52.0,480.0,480.0,0.0,0.0
4088,36.0,480.0,960.0,3.0,0.0
4089,55.0,0.0,960.0,0.0,0.0
4090,43.0,240.0,960.0,3.0,0.0
4091,47.0,480.0,960.0,1.0,0.0
4092,35.0,0.0,960.0,3.0,0.0
4093,50.0,120.0,360.0,0.0,0.0
4094,41.0,120.0,240.0,3.0,0.0
4095,52.0,0.0,120.0,0.0,0.0
4096,48.0,0.0,480.0,0.0,0.0
4097,40.0,0.0,480.0,3.0,0.0
4098,36.0,240.0,480.0,3.0,0.0
4099,48.0,560.0,240.0,3.0,0.0
4100,67.0,0.0,480.0,0.0,0.0
4101,51.0,8.0,480.0,3.0,0.0
4102,55.0,152.0,150.0,2.0,0.0
4103,60.0,320.0,150.0,2.0,0.0
4104,71.0,320.0,480.0,0.0,0.0
4105,50.0,8.0,480.0,3.0,0.0
4106,59.0,0.0,480.0,1.0,0.0
4107,53.0,152.0,150.0,2.0,0.0
4108,55.0,0.0,150.0,2.0,0.0
4109,60.0,240.0,960.0,1.0,0.0
4110,48.0,8.0,480.0,3.0,0.0
4111,51.0,152.0,150.0,2.0,0.0
4112,55.0,320.0,150.0,2.0,0.0
4113,46.0,8.0,480.0,3.0,0.0
4114,50.0,152.0,150.0,2.0,0.0
4115,55.0,0.0,150.0,2.0,0.0
4116,72.0,0.0,15.0,0.0,0.0
4117,44.0,8.0,480.0,3.0,0.0
4118,60.0,80.0,240.0,1.0,0.0
4119,48.0,152.0,150.0,2.0,0.0
4120,53.0,240.0,150.0,2.0,0.0
4121,43.0,8.0,480.0,3.0,0.0
4122,72.0,0.0,240.0,0.0,0.0
4123,60.0,80.0,240.0,1.0,0.0
4124,46.0,152.0,150.0,2.0,0.0
4125,51.0,320.0,150.0,2.0,0.0
4126,62.0,80.0,720.0,1.0,0.0
4127,41.0,8.0,480.0,3.0,0.0
4128,74.0,0.0,720.0,0.0,0.0
4129,44.0,152.0,150.0,2.0,0.0
4130,50.0,240.0,150.0,2.0,0.0
4131,39.0,8.0,480.0,3.0,0.0
4132,43.0,152.0,150.0,2.0,0.0
4133,75.0,240.0,240.0,0.0,0.0
4134,63.0,0.0,240.0,1.0,0.0
4135,48.0,0.0,150.0,2.0,0.0
4136,65.0,80.0,240.0,1.0,0.0
4137,77.0,0.0,240.0,0.0,0.0
4138,38.0,8.0,480.0,3.0,0.0
4139,41.0,152.0,150.0,2.0,0.0
4140,46.0,240.0,150.0,2.0,0.0
4141,79.0,0.0,240.0,0.0,0.0
4142,36.0,8.0,480.0,3.0,0.0
4143,67.0,80.0,240.0,1.0,0.0
4144,39.0,152.0,150.0,2.0,0.0
4145,46.0,240.0,150.0,2.0,0.0
4146,80.0,75.0,240.0,0.0,0.0
4147,34.0,8.0,480.0,3.0,0.0
4148,68.0,0.0,240.0,1.0,0.0
4149,38.0,157.0,150.0,2.0,0.0
4150,46.0,240.0,150.0,2.0,0.0
4151,68.0,0.0,240.0,1.0,0.0
4152,80.0,80.0,240.0,0.0,0.0
4153,39.0,8.0,480.0,3.0,0.0
4154,43.0,152.0,150.0,2.0,0.0
4155,46.0,240.0,150.0,2.0,0.0
4156,80.0,0.0,240.0,0.0,0.0
4157,38.0,8.0,480.0,3.0,0.0
4158,68.0,80.0,240.0,1.0,0.0
4159,41.0,152.0,150.0,2.0,0.0
4160,46.0,240.0,150.0,2.0,0.0
4161,80.0,0.0,240.0,0.0,0.0
4162,36.0,8.0,480.0,3.0,0.0
4163,68.0,80.0,240.0,1.0,0.0
4164,39.0,152.0,150.0,2.0,0.0
4165,46.0,480.0,150.0,2.0,0.0
4166,68.0,0.0,960.0,1.0,0.0
4167,38.0,480.0,480.0,2.0,0.0
4168,46.0,960.0,1440.0,3.0,0.0
4169,80.0,120.0,15.0,0.0,0.0
4170,79.0,120.0,120.0,0.0,0.0
4171,77.0,120.0,120.0,0.0,0.0
4172,75.0,120.0,120.0,0.0,0.0
4173,74.0,120.0,120.0,0.0,0.0
4174,72.0,120.0,120.0,0.0,0.0
4175,70.0,120.0,120.0,0.0,0.0
4176,68.0,0.0,120.0,0.0,0.0
4177,67.0,120.0,960.0,1.0,0.0
4178,34.0,0.0,15.0,3.0,0.0
4179,75.0,120.0,1080.0,0.0,0.0
4180,46.0,15.0,1440.0,3.0,0.0
4181,69.0,120.0,480.0,1.0,0.0
4182,74.0,120.0,120.0,0.0,0.0
4183,72.0,120.0,120.0,0.0,0.0
4184,70.0,0.0,120.0,0.0,0.0
4185,68.0,120.0,120.0,0.0,0.0
4186,67.0,120.0,120.0,0.0,0.0
4187,65.0,105.0,120.0,0.0,0.0
4188,63.0,0.0,120.0,0.0,0.0
4189,34.0,960.0,15.0,3.0,0.0
4190,62.0,0.0,960.0,0.0,0.0
4191,70.0,120.0,960.0,0.0,0.0
4192,46.0,945.0,1440.0,3.0,0.0
4193,68.0,120.0,120.0,0.0,0.0
4194,67.0,120.0,120.0,0.0,0.0
4195,65.0,120.0,120.0,0.0,0.0
4196,63.0,120.0,120.0,0.0,0.0
4197,62.0,120.0,120.0,0.0,0.0
4198,60.0,120.0,120.0,0.0,0.0
4199,58.0,120.0,120.0,0.0,0.0
4200,56.0,15.0,120.0,0.0,0.0
4201,63.0,120.0,1080.0,0.0,0.0
4202,34.0,0.0,15.0,3.0,0.0
4203,55.0,120.0,960.0,1.0,0.0
4204,46.0,0.0,1440.0,3.0,0.0
4205,57.0,0.0,480.0,1.0,0.0
4206,62.0,120.0,120.0,0.0,0.0
4207,60.0,120.0,120.0,0.0,0.0
4208,58.0,120.0,120.0,0.0,0.0
4209,56.0,120.0,120.0,0.0,0.0
4210,55.0,120.0,120.0,0.0,0.0
4211,53.0,120.0,120.0,0.0,0.0
4212,51.0,120.0,120.0,0.0,0.0
4213,34.0,120.0,480.0,3.0,0.0
4214,50.0,120.0,120.0,3.0,0.0
4215,51.0,120.0,120.0,3.0,0.0
4216,53.0,120.0,120.0,3.0,0.0
4217,55.0,0.0,120.0,3.0,0.0
4218,56.0,120.0,120.0,3.0,0.0
4219,55.0,120.0,120.0,3.0,0.0
4220,53.0,120.0,120.0,3.0,0.0
4221,51.0,120.0,120.0,3.0,0.0
4222,50.0,120.0,120.0,3.0,0.0
4223,51.0,120.0,120.0,3.0,0.0
4224,50.0,120.0,120.0,3.0,0.0
4225,48.0,120.0,120.0,3.0,0.0
4226,46.0,120.0,120.0,3.0,0.0
4227,44.0,120.0,120.0,3.0,0.0
4228,43.0,120.0,120.0,3.0,0.0
4229,41.0,288.0,120.0,3.0,0.0
4230,27.0,120.0,480.0,3.0,0.0
4231,39.0,0.0,480.0,3.0,0.0
4232,43.0,160.0,120.0,2.0,0.0
4233,46.0,32.0,120.0,2.0,0.0
4234,51.0,168.0,120.0,0.0,0.0
4235,46.0,160.0,120.0,2.0,0.0
4236,43.0,152.0,120.0,2.0,0.0
4237,55.0,168.0,120.0,0.0,0.0
4238,46.0,160.0,120.0,2.0,0.0
4239,51.0,152.0,120.0,2.0,0.0
4240,55.0,168.0,120.0,0.0,0.0
4241,51.0,160.0,120.0,2.0,0.0
4242,46.0,152.0,120.0,2.0,0.0
4243,58.0,168.0,120.0,0.0,0.0
4244,51.0,160.0,120.0,2.0,0.0
4245,55.0,152.0,120.0,2.0,0.0
4246,58.0,168.0,120.0,0.0,0.0
4247,55.0,160.0,120.0,2.0,0.0
4248,51.0,152.0,120.0,2.0,0.0
4249,63.0,168.0,120.0,0.0,0.0
4250,58.0,160.0,120.0,2.0,0.0
4251,55.0,152.0,120.0,2.0,0.0
4252,46.0,48.0,240.0,3.0,0.0
4253,34.0,0.0,240.0,3.0,0.0
4254,62.0,120.0,120.0,0.0,0.0
4255,56.0,160.0,120.0,2.0,0.0
4256,53.0,152.0,120.0,2.0,0.0
4257,63.0,120.0,120.0,0.0,0.0
4258,51.0,0.0,240.0,3.0,0.0
4259,39.0,48.0,240.0,3.0,0.0
4260,55.0,160.0,120.0,2.0,0.0
4261,58.0,152.0,120.0,2.0,0.0
4262,63.0,168.0,120.0,0.0,0.0
4263,58.0,160.0,120.0,2.0,0.0
4264,55.0,152.0,120.0,2.0,0.0
4265,67.0,168.0,120.0,0.0,0.0
4266,58.0,160.0,120.0,2.0,0.0
4267,63.0,152.0,120.0,2.0,0.0
4268,67.0,168.0,120.0,0.0,0.0
4269,63.0,160.0,120.0,2.0,0.0
4270,58.0,152.0,120.0,2.0,0.0
4271,70.0,168.0,120.0,0.0,0.0
4272,63.0,160.0,120.0,2.0,0.0
4273,67.0,152.0,120.0,2.0,0.0
4274,70.0,168.0,120.0,0.0,0.0
4275,67.0,160.0,120.0,2.0,0.0
4276,63.0,152.0,120.0,2.0,0.0
4277,70.0,168.0,120.0,0.0,0.0
4278,67.0,160.0,120.0,2.0,0.0
4279,64.0,152.0,120.0,2.0,0.0
4280,36.0,0.0,240.0,3.0,0.0
4281,48.0,48.0,240.0,3.0,0.0
4282,67.0,120.0,120.0,0.0,0.0
4283,64.0,160.0,120.0,2.0,0.0
4284,58.0,152.0,120.0,2.0,0.0
4285,65.0,120.0,120.0,0.0,0.0
4286,53.0,48.0,240.0,3.0,0.0
4287,41.0,0.0,240.0,3.0,0.0
4288,56.0,160.0,120.0,2.0,0.0
4289,60.0,152.0,120.0,2.0,0.0
4290,65.0,168.0,120.0,0.0,0.0
4291,60.0,160.0,120.0,2.0,0.0
4292,56.0,152.0,120.0,2.0,0.0
4293,68.0,168.0,120.0,0.0,0.0
4294,60.0,160.0,120.0,2.0,0.0
4295,65.0,152.0,120.0,2.0,0.0
4296,68.0,168.0,120.0,0.0,0.0
4297,65.0,160.0,120.0,2.0,0.0
4298,60.0,152.0,120.0,2.0,0.0
4299,72.0,168.0,120.0,0.0,0.0
4300,65.0,160.0,120.0,2.0,0.0
4301,68.0,152.0,120.0,2.0,0.0
4302,72.0,168.0,120.0,0.0,0.0
4303,68.0,160.0,120.0,2.0,0.0
4304,65.0,152.0,120.0,2.0,0.0
4305,77.0,168.0,120.0,0.0,0.0
4306,72.0,160.0,120.0,2.0,0.0
4307,68.0,152.0,120.0,2.0,0.0
4308,36.0,48.0,240.0,3.0,0.0
4309,48.0,0.0,240.0,3.0,0.0
4310,76.0,120.0,120.0,0.0,0.0
4311,70.0,160.0,120.0,2.0,0.0
4312,67.0,152.0,120.0,2.0,0.0
4313,53.0,48.0,240.0,3.0,0.0
4314,41.0,0.0,240.0,3.0,0.0
4315,77.0,120.0,120.0,0.0,0.0
4316,68.0,160.0,120.0,2.0,0.0
4317,72.0,152.0,120.0,2.0,0.0
4318,77.0,168.0,120.0,0.0,0.0
4319,72.0,160.0,120.0,2.0,0.0
4320,68.0,152.0,120.0,2.0,0.0
4321,80.0,168.0,120.0,0.0,0.0
4322,72.0,160.0,120.0,2.0,0.0
4323,77.0,152.0,120.0,2.0,0.0
4324,80.0,168.0,120.0,0.0,0.0
4325,77.0,160.0,120.0,2.0,0.0
4326,72.0,152.0,120.0,2.0,0.0
4327,84.0,168.0,120.0,0.0,0.0
4328,77.0,160.0,120.0,2.0,0.0
4329,80.0,152.0,120.0,2.0,0.0
4330,84.0,168.0,120.0,0.0,0.0
4331,80.0,160.0,120.0,2.0,0.0
4332,77.0,152.0,120.0,2.0,0.0
4333,84.0,168.0,120.0,0.0,0.0
4334,81.0,160.0,120.0,2.0,0.0
4335,78.0,152.0,120.0,2.0,0.0
4336,62.0,0.0,240.0,3.0,0.0
4337,81.0,120.0,120.0,0.0,0.0
4338,50.0,48.0,240.0,3.0,0.0
4339,78.0,160.0,120.0,2.0,0.0
4340,72.0,152.0,120.0,2.0,0.0
4341,67.0,48.0,240.0,3.0,0.0
4342,55.0,0.0,240.0,3.0,0.0
4343,79.0,120.0,120.0,0.0,0.0
4344,74.0,160.0,120.0,2.0,0.0
4345,70.0,152.0,120.0,2.0,0.0
4346,79.0,120.0,120.0,0.0,0.0
4347,51.0,48.0,240.0,3.0,0.0
4348,63.0,0.0,240.0,3.0,0.0
4349,75.0,160.0,120.0,2.0,0.0
4350,70.0,152.0,120.0,2.0,0.0
4351,79.0,120.0,120.0,0.0,0.0
4352,60.0,0.0,240.0,3.0,0.0
4353,48.0,48.0,240.0,3.0,0.0
4354,75.0,160.0,120.0,2.0,0.0
4355,69.0,152.0,120.0,2.0,0.0
4356,50.0,48.0,240.0,3.0,0.0
4357,62.0,0.0,240.0,3.0,0.0
4358,78.0,120.0,120.0,0.0,0.0
4359,74.0,160.0,120.0,2.0,0.0
4360,69.0,152.0,120.0,2.0,0.0
4361,55.0,48.0,240.0,3.0,0.0
4362,43.0,0.0,240.0,3.0,0.0
4363,79.0,120.0,120.0,0.0,0.0
4364,74.0,160.0,120.0,2.0,0.0
4365,70.0,152.0,120.0,2.0,0.0
4366,74.0,168.0,120.0,0.0,0.0
4367,70.0,160.0,120.0,2.0,0.0
4368,67.0,152.0,120.0,2.0,0.0
4369,74.0,168.0,120.0,0.0,0.0
4370,70.0,160.0,120.0,2.0,0.0
4371,67.0,152.0,120.0,2.0,0.0
4372,50.0,0.0,240.0,3.0,0.0
4373,74.0,120.0,120.0,0.0,0.0
4374,38.0,48.0,240.0,3.0,0.0
4375,69.0,160.0,120.0,2.0,0.0
4376,66.0,152.0,120.0,2.0,0.0
4377,43.0,0.0,240.0,3.0,0.0
4378,55.0,48.0,240.0,3.0,0.0
4379,74.0,120.0,120.0,0.0,0.0
4380,70.0,160.0,120.0,2.0,0.0
4381,67.0,152.0,120.0,2.0,0.0
4382,75.0,120.0,120.0,0.0,0.0
4383,39.0,0.0,240.0,3.0,0.0
4384,51.0,48.0,240.0,3.0,0.0
4385,70.0,160.0,120.0,2.0,0.0
4386,67.0,152.0,120.0,2.0,0.0
4387,75.0,120.0,120.0,0.0,0.0
4388,48.0,48.0,240.0,3.0,0.0
4389,36.0,0.0,240.0,3.0,0.0
4390,69.0,160.0,120.0,2.0,0.0
4391,67.0,152.0,120.0,2.0,0.0
4392,74.0,120.0,120.0,0.0,0.0
4393,38.0,48.0,240.0,3.0,0.0
4394,50.0,0.0,240.0,3.0,0.0
4395,69.0,160.0,120.0,2.0,0.0
4396,66.0,632.0,120.0,2.0,0.0
4397,31.0,13.0,3300.0,3.0,0.0
4398,43.0,270.0,3330.0,3.0,0.0
4399,74.0,168.0,120.0,0.0,0.0
4400,70.0,160.0,120.0,2.0,0.0
4401,67.0,152.0,120.0,2.0,0.0
4402,79.0,168.0,120.0,0.0,0.0
4403,74.0,160.0,120.0,2.0,0.0
4404,70.0,152.0,120.0,2.0,0.0
4405,67.0,168.0,120.0,0.0,0.0
4406,62.0,160.0,120.0,2.0,0.0
4407,58.0,152.0,120.0,2.0,0.0
4408,67.0,168.0,120.0,0.0,0.0
4409,62.0,160.0,120.0,2.0,0.0
4410,58.0,152.0,120.0,2.0,0.0
4411,55.0,168.0,120.0,0.0,0.0
4412,50.0,160.0,120.0,2.0,0.0
4413,46.0,152.0,120.0,2.0,0.0
4414,55.0,168.0,120.0,0.0,0.0
4415,50.0,147.0,120.0,2.0,0.0
4416,46.0,2.0,120.0,2.0,0.0
4417,31.0,15.0,240.0,3.0,0.0
4418,43.0,33.0,240.0,3.0,0.0
4419,46.0,160.0,120.0,2.0,0.0
4420,50.0,640.0,120.0,2.0,0.0
4421,41.0,15.0,3330.0,3.0,0.0
4422,29.0,255.0,3360.0,3.0,0.0
4423,74.0,160.0,120.0,0.0,0.0
4424,70.0,160.0,120.0,2.0,0.0
4425,68.0,160.0,120.0,2.0,0.0
4426,80.0,160.0,120.0,0.0,0.0
4427,74.0,160.0,120.0,2.0,0.0
4428,70.0,160.0,120.0,2.0,0.0
4429,68.0,160.0,120.0,0.0,0.0
4430,62.0,160.0,120.0,2.0,0.0
4431,58.0,152.0,120.0,2.0,0.0
4432,68.0,168.0,120.0,0.0,0.0
4433,62.0,160.0,120.0,2.0,0.0
4434,58.0,152.0,120.0,2.0,0.0
4435,56.0,168.0,120.0,0.0,0.0
4436,50.0,160.0,120.0,2.0,0.0
4437,46.0,152.0,120.0,2.0,0.0
4438,56.0,168.0,120.0,0.0,0.0
4439,50.0,160.0,120.0,2.0,0.0
4440,46.0,2.0,120.0,2.0,0.0
4441,44.0,48.0,240.0,3.0,0.0
4442,32.0,0.0,240.0,3.0,0.0
4443,46.0,160.0,120.0,2.0,0.0
4444,50.0,632.0,120.0,2.0,0.0
4445,39.0,225.0,3360.0,3.0,0.0
4446,27.0,30.0,3330.0,3.0,0.0
4447,75.0,168.0,120.0,0.0,0.0
4448,70.0,160.0,120.0,2.0,0.0
4449,67.0,152.0,120.0,2.0,0.0
4450,79.0,168.0,120.0,0.0,0.0
4451,75.0,160.0,120.0,2.0,0.0
4452,70.0,152.0,120.0,2.0,0.0
4453,67.0,168.0,120.0,0.0,0.0
4454,63.0,160.0,120.0,2.0,0.0
4455,58.0,152.0,120.0,2.0,0.0
4456,67.0,168.0,120.0,0.0,0.0
4457,63.0,160.0,120.0,2.0,0.0
4458,58.0,152.0,120.0,2.0,0.0
4459,55.0,168.0,120.0,0.0,0.0
4460,51.0,160.0,120.0,2.0,0.0
4461,46.0,152.0,120.0,2.0,0.0
4462,55.0,168.0,120.0,0.0,0.0
4463,51.0,160.0,120.0,2.0,0.0
4464,46.0,2.0,120.0,2.0,0.0
4465,31.0,62.0,240.0,3.0,0.0
4466,43.0,1.0,240.0,3.0,0.0
4467,46.0,160.0,120.0,2.0,0.0
4468,51.0,632.0,120.0,2.0,0.0
4469,38.0,270.0,3330.0,3.0,0.0
4470,26.0,0.0,3330.0,3.0,0.0
4471,71.0,168.0,120.0,0.0,0.0
4472,67.0,160.0,120.0,2.0,0.0
4473,65.0,152.0,120.0,2.0,0.0
4474,77.0,168.0,120.0,0.0,0.0
4475,71.0,160.0,120.0,2.0,0.0
4476,67.0,152.0,120.0,2.0,0.0
4477,65.0,168.0,120.0,0.0,0.0
4478,59.0,160.0,120.0,2.0,0.0
4479,55.0,152.0,120.0,2.0,0.0
4480,65.0,168.0,120.0,0.0,0.0
4481,59.0,160.0,120.0,2.0,0.0
4482,55.0,152.0,120.0,2.0,0.0
4483,53.0,168.0,120.0,0.0,0.0
4484,47.0,160.0,120.0,2.0,0.0
4485,43.0,152.0,120.0,2.0,0.0
4486,53.0,168.0,120.0,0.0,0.0
4487,47.0,160.0,120.0,2.0,0.0
4488,43.0,2.0,120.0,2.0,0.0
4489,41.0,18.0,270.0,3.0,0.0
4490,29.0,30.0,240.0,3.0,0.0
4491,43.0,160.0,120.0,2.0,0.0
4492,47.0,320.0,120.0,2.0,0.0
4493,36.0,0.0,480.0,3.0,0.0
4494,48.0,120.0,480.0,3.0,0.0
4495,39.0,160.0,120.0,2.0,0.0
4496,43.0,32.0,120.0,2.0,0.0
4497,48.0,168.0,120.0,0.0,0.0
4498,43.0,160.0,120.0,2.0,0.0
4499,39.0,152.0,120.0,2.0,0.0
4500,51.0,168.0,120.0,0.0,0.0
4501,43.0,160.0,120.0,2.0,0.0
4502,48.0,152.0,120.0,2.0,0.0
4503,51.0,168.0,120.0,0.0,0.0
4504,48.0,160.0,120.0,2.0,0.0
4505,43.0,152.0,120.0,2.0,0.0
4506,55.0,168.0,120.0,0.0,0.0
4507,48.0,160.0,120.0,2.0,0.0
4508,51.0,152.0,120.0,2.0,0.0
4509,55.0,168.0,120.0,0.0,0.0
4510,51.0,160.0,120.0,2.0,0.0
4511,48.0,152.0,120.0,2.0,0.0
4512,60.0,168.0,120.0,0.0,0.0
4513,55.0,160.0,120.0,2.0,0.0
4514,51.0,152.0,120.0,2.0,0.0
4515,59.0,120.0,120.0,0.0,0.0
4516,43.0,0.0,240.0,3.0,0.0
4517,31.0,48.0,240.0,3.0,0.0
4518,53.0,160.0,120.0,2.0,0.0
4519,50.0,152.0,120.0,2.0,0.0
4520,48.0,0.0,240.0,3.0,0.0
4521,60.0,120.0,120.0,0.0,0.0
4522,36.0,48.0,240.0,3.0,0.0
4523,51.0,160.0,120.0,2.0,0.0
4524,55.0,152.0,120.0,2.0,0.0
4525,60.0,168.0,120.0,0.0,0.0
4526,55.0,160.0,120.0,2.0,0.0
4527,51.0,152.0,120.0,2.0,0.0
4528,63.0,168.0,120.0,0.0,0.0
4529,55.0,160.0,120.0,2.0,0.0
4530,60.0,152.0,120.0,2.0,0.0
4531,63.0,168.0,120.0,0.0,0.0
4532,60.0,160.0,120.0,2.0,0.0
4533,55.0,152.0,120.0,2.0,0.0
4534,67.0,168.0,120.0,0.0,0.0
4535,60.0,160.0,120.0,2.0,0.0
4536,63.0,152.0,120.0,2.0,0.0
4537,67.0,168.0,120.0,0.0,0.0
4538,63.0,160.0,120.0,2.0,0.0
4539,60.0,152.0,120.0,2.0,0.0
4540,72.0,168.0,120.0,0.0,0.0
4541,63.0,160.0,120.0,2.0,0.0
4542,67.0,152.0,120.0,2.0,0.0
4543,43.0,0.0,240.0,3.0,0.0
4544,55.0,48.0,240.0,3.0,0.0
4545,71.0,120.0,120.0,0.0,0.0
4546,65.0,160.0,120.0,2.0,0.0
4547,62.0,152.0,120.0,2.0,0.0
4548,72.0,120.0,120.0,0.0,0.0
4549,44.0,0.0,240.0,3.0,0.0
4550,56.0,48.0,240.0,3.0,0.0
4551,63.0,160.0,120.0,2.0,0.0
4552,60.0,152.0,120.0,2.0,0.0
4553,68.0,168.0,120.0,0.0,0.0
4554,63.0,160.0,120.0,2.0,0.0
4555,60.0,152.0,120.0,2.0,0.0
4556,68.0,168.0,120.0,0.0,0.0
4557,61.0,160.0,120.0,2.0,0.0
4558,58.0,152.0,120.0,2.0,0.0
4559,67.0,120.0,120.0,0.0,0.0
4560,52.0,48.0,240.0,3.0,0.0
4561,40.0,0.0,240.0,3.0,0.0
4562,61.0,160.0,120.0,2.0,0.0
4563,58.0,152.0,120.0,2.0,0.0
4564,68.0,120.0,120.0,0.0,0.0
4565,53.0,48.0,240.0,3.0,0.0
4566,41.0,0.0,240.0,3.0,0.0
4567,60.0,160.0,120.0,2.0,0.0
4568,56.0,152.0,120.0,2.0,0.0
4569,65.0,168.0,120.0,0.0,0.0
4570,60.0,160.0,120.0,2.0,0.0
4571,56.0,152.0,120.0,2.0,0.0
4572,65.0,168.0,120.0,0.0,0.0
4573,60.0,160.0,120.0,2.0,0.0
4574,56.0,152.0,120.0,2.0,0.0
4575,41.0,0.0,240.0,3.0,0.0
4576,62.0,120.0,120.0,0.0,0.0
4577,29.0,48.0,240.0,3.0,0.0
4578,60.0,160.0,120.0,2.0,0.0
4579,56.0,272.0,120.0,2.0,0.0
4580,31.0,0.0,240.0,3.0,0.0
4581,43.0,48.0,240.0,3.0,0.0
4582,55.0,160.0,120.0,2.0,0.0
4583,60.0,160.0,120.0,2.0,0.0
4584,63.0,112.0,120.0,2.0,0.0
4585,63.0,48.0,240.0,0.0,0.0
4586,60.0,160.0,120.0,2.0,0.0
4587,55.0,272.0,120.0,2.0,0.0
4588,43.0,0.0,240.0,3.0,0.0
4589,31.0,48.0,240.0,3.0,0.0
4590,53.0,160.0,120.0,2.0,0.0
4591,59.0,160.0,120.0,2.0,0.0
4592,62.0,48.0,240.0,0.0,0.0
4593,62.0,112.0,120.0,2.0,0.0
4594,59.0,160.0,120.0,2.0,0.0
4595,53.0,272.0,120.0,2.0,0.0
4596,44.0,0.0,240.0,3.0,0.0
4597,32.0,48.0,240.0,3.0,0.0
4598,60.0,160.0,120.0,2.0,0.0
4599,63.0,152.0,120.0,2.0,0.0
4600,72.0,168.0,120.0,0.0,0.0
4601,63.0,160.0,120.0,2.0,0.0
4602,60.0,152.0,120.0,2.0,0.0
4603,68.0,168.0,120.0,0.0,0.0
4604,61.0,160.0,120.0,2.0,0.0
4605,58.0,152.0,120.0,2.0,0.0
4606,67.0,120.0,120.0,0.0,0.0
4607,28.0,48.0,240.0,3.0,0.0
4608,40.0,0.0,240.0,3.0,0.0
4609,61.0,160.0,120.0,2.0,0.0
4610,58.0,272.0,120.0,2.0,0.0
4611,29.0,0.0,240.0,3.0,0.0
4612,41.0,48.0,240.0,3.0,0.0
4613,56.0,160.0,120.0,2.0,0.0
4614,60.0,152.0,120.0,2.0,0.0
4615,68.0,168.0,120.0,0.0,0.0
4616,60.0,160.0,120.0,2.0,0.0
4617,56.0,152.0,120.0,2.0,0.0
4618,65.0,168.0,120.0,0.0,0.0
4619,60.0,160.0,120.0,2.0,0.0
4620,56.0,152.0,120.0,2.0,0.0
4621,41.0,48.0,240.0,3.0,0.0
4622,29.0,0.0,240.0,3.0,0.0
4623,62.0,120.0,120.0,0.0,0.0
4624,60.0,160.0,120.0,2.0,0.0
4625,56.0,272.0,120.0,2.0,0.0
4626,30.0,48.0,240.0,3.0,0.0
4627,42.0,0.0,240.0,3.0,0.0
4628,57.0,160.0,120.0,2.0,0.0
4629,60.0,272.0,120.0,2.0,0.0
4630,63.0,48.0,240.0,0.0,0.0
4631,60.0,160.0,120.0,2.0,0.0
4632,57.0,272.0,120.0,2.0,0.0
4633,30.0,48.0,240.0,3.0,0.0
4634,42.0,0.0,240.0,3.0,0.0
4635,51.0,160.0,120.0,2.0,0.0
4636,57.0,272.0,120.0,2.0,0.0
4637,60.0,48.0,240.0,0.0,0.0
4638,57.0,160.0,120.0,2.0,0.0
4639,51.0,752.0,120.0,2.0,0.0
4640,43.0,0.0,1920.0,3.0,0.0
4641,59.0,80.0,240.0,0.0,0.0
4642,55.0,160.0,150.0,2.0,0.0
4643,50.0,240.0,150.0,2.0,0.0
4644,62.0,80.0,240.0,0.0,0.0
4645,59.0,160.0,150.0,2.0,0.0
4646,55.0,240.0,150.0,2.0,0.0
4647,67.0,80.0,240.0,0.0,0.0
4648,62.0,160.0,150.0,2.0,0.0
4649,59.0,0.0,150.0,2.0,0.0
4650,31.0,720.0,15.0,3.0,0.0
4651,63.0,80.0,240.0,0.0,0.0
4652,60.0,160.0,150.0,2.0,0.0
4653,55.0,240.0,150.0,2.0,0.0
4654,60.0,80.0,240.0,0.0,0.0
4655,55.0,160.0,150.0,2.0,0.0
4656,51.0,240.0,150.0,2.0,0.0
4657,55.0,80.0,240.0,0.0,0.0
4658,51.0,160.0,150.0,2.0,0.0
4659,48.0,0.0,150.0,2.0,0.0
4660,43.0,720.0,15.0,3.0,0.0
4661,31.0,0.0,15.0,3.0,0.0
4662,59.0,80.0,240.0,0.0,0.0
4663,55.0,160.0,150.0,2.0,0.0
4664,50.0,240.0,150.0,2.0,0.0
4665,62.0,80.0,240.0,0.0,0.0
4666,59.0,160.0,150.0,2.0,0.0
4667,55.0,240.0,150.0,2.0,0.0
4668,67.0,80.0,240.0,0.0,0.0
4669,62.0,160.0,150.0,2.0,0.0
4670,59.0,720.0,150.0,2.0,0.0
4671,43.0,0.0,15.0,3.0,0.0
4672,31.0,160.0,1920.0,3.0,0.0
4673,63.0,80.0,240.0,0.0,0.0
4674,60.0,160.0,150.0,2.0,0.0
4675,55.0,240.0,150.0,2.0,0.0
4676,60.0,80.0,240.0,0.0,0.0
4677,55.0,160.0,150.0,2.0,0.0
4678,51.0,240.0,150.0,2.0,0.0
4679,55.0,80.0,240.0,0.0,0.0
4680,51.0,160.0,150.0,2.0,0.0
4681,48.0,0.0,150.0,2.0,0.0
4682,43.0,160.0,150.0,0.0,0.0
4683,31.0,1280.0,9600.0,3.0,0.0
4684,44.0,160.0,150.0,0.0,0.0
4685,45.0,160.0,150.0,0.0,0.0
4686,46.0,160.0,150.0,0.0,0.0
4687,47.0,160.0,150.0,0.0,0.0
4688,48.0,160.0,150.0,0.0,0.0
4689,49.0,160.0,150.0,0.0,0.0
4690,50.0,160.0,150.0,0.0,0.0
4691,51.0,160.0,150.0,0.0,0.0
4692,52.0,160.0,150.0,0.0,0.0
4693,53.0,160.0,150.0,0.0,0.0
4694,54.0,160.0,150.0,0.0,0.0
4695,55.0,160.0,150.0,0.0,0.0
4696,43.0,0.0,7680.0,3.0,0.0
4697,56.0,160.0,150.0,0.0,0.0
4698,57.0,160.0,150.0,0.0,0.0
4699,58.0,160.0,150.0,0.0,0.0
4700,59.0,160.0,150.0,0.0,0.0
4701,60.0,160.0,150.0,0.0,0.0
4702,61.0,160.0,150.0,0.0,0.0
4703,62.0,160.0,150.0,0.0,0.0
4704,63.0,160.0,150.0,0.0,0.0
4705,64.0,160.0,150.0,0.0,0.0
4706,65.0,160.0,150.0,0.0,0.0
4707,66.0,160.0,150.0,0.0,0.0
4708,67.0,160.0,150.0,0.0,0.0
4709,68.0,160.0,150.0,0.0,0.0
4710,69.0,160.0,150.0,0.0,0.0
4711,70.0,160.0,150.0,0.0,0.0
4712,71.0,160.0,150.0,0.0,0.0
4713,72.0,160.0,150.0,0.0,0.0
4714,73.0,160.0,150.0,0.0,0.0
4715,74.0,160.0,150.0,0.0,0.0
4716,75.0,160.0,150.0,0.0,0.0
4717,76.0,160.0,150.0,0.0,0.0
4718,77.0,160.0,150.0,0.0,0.0
4719,78.0,3840.0,150.0,0.0,0.0
4720,79.0,0.0,3840.0,0.0,0.0
4721,52.0,8.0,480.0,3.0,0.0
4722,67.0,320.0,480.0,0.0,0.0
4723,55.0,152.0,150.0,2.0,0.0
4724,60.0,0.0,150.0,2.0,0.0
4725,71.0,0.0,480.0,0.0,0.0
4726,59.0,0.0,480.0,1.0,0.0
4727,50.0,8.0,480.0,3.0,0.0
4728,53.0,152.0,150.0,2.0,0.0
4729,55.0,320.0,150.0,2.0,0.0
4730,72.0,240.0,960.0,0.0,0.0
4731,48.0,8.0,480.0,3.0,0.0
4732,52.0,152.0,150.0,2.0,0.0
4733,55.0,320.0,150.0,2.0,0.0
4734,47.0,8.0,480.0,3.0,0.0
4735,50.0,152.0,150.0,2.0,0.0
4736,55.0,0.0,150.0,2.0,0.0
4737,60.0,0.0,15.0,1.0,0.0
4738,72.0,0.0,240.0,0.0,0.0
4739,45.0,8.0,480.0,3.0,0.0
4740,48.0,152.0,150.0,2.0,0.0
4741,53.0,240.0,150.0,2.0,0.0
4742,43.0,8.0,480.0,3.0,0.0
4743,60.0,0.0,240.0,1.0,0.0
4744,72.0,80.0,240.0,0.0,0.0
4745,47.0,152.0,150.0,2.0,0.0
4746,52.0,320.0,150.0,2.0,0.0
4747,62.0,80.0,720.0,1.0,0.0
4748,74.0,0.0,720.0,0.0,0.0
4749,41.0,8.0,480.0,3.0,0.0
4750,45.0,152.0,150.0,2.0,0.0
4751,50.0,240.0,150.0,2.0,0.0
4752,40.0,8.0,480.0,3.0,0.0
4753,43.0,152.0,150.0,2.0,0.0
4754,76.0,0.0,240.0,0.0,0.0
4755,64.0,0.0,240.0,1.0,0.0
4756,48.0,240.0,150.0,2.0,0.0
4757,38.0,8.0,480.0,3.0,0.0
4758,77.0,0.0,240.0,0.0,0.0
4759,65.0,80.0,240.0,1.0,0.0
4760,41.0,152.0,150.0,2.0,0.0
4761,47.0,240.0,150.0,2.0,0.0
4762,77.0,0.0,240.0,0.0,0.0
4763,36.0,8.0,480.0,3.0,0.0
4764,65.0,80.0,240.0,1.0,0.0
4765,40.0,152.0,150.0,2.0,0.0
4766,45.0,240.0,150.0,2.0,0.0
4767,77.0,0.0,240.0,0.0,0.0
4768,35.0,8.0,480.0,3.0,0.0
4769,65.0,80.0,240.0,1.0,0.0
4770,38.0,152.0,150.0,2.0,0.0
4771,43.0,240.0,150.0,2.0,0.0
4772,36.0,8.0,480.0,3.0,0.0
4773,65.0,0.0,240.0,1.0,0.0
4774,77.0,80.0,240.0,0.0,0.0
4775,40.0,152.0,150.0,2.0,0.0
4776,43.0,240.0,150.0,2.0,0.0
4777,65.0,0.0,240.0,1.0,0.0
4778,77.0,80.0,240.0,0.0,0.0
4779,35.0,8.0,480.0,3.0,0.0
4780,38.0,152.0,150.0,2.0,0.0
4781,43.0,240.0,150.0,2.0,0.0
4782,77.0,80.0,240.0,0.0,0.0
4783,65.0,0.0,240.0,1.0,0.0
4784,33.0,8.0,480.0,3.0,0.0
4785,36.0,152.0,150.0,2.0,0.0
4786,43.0,480.0,150.0,2.0,0.0
4787,65.0,0.0,960.0,1.0,0.0
4788,35.0,345.0,480.0,2.0,0.0
4789,77.0,120.0,960.0,0.0,0.0
4790,31.0,135.0,840.0,3.0,0.0
4791,43.0,0.0,360.0,2.0,0.0
4792,77.0,120.0,120.0,0.0,0.0
4793,76.0,120.0,120.0,0.0,0.0
4794,74.0,120.0,120.0,0.0,0.0
4795,72.0,120.0,120.0,0.0,0.0
4796,71.0,120.0,120.0,0.0,0.0
4797,69.0,120.0,120.0,0.0,0.0
4798,67.0,120.0,120.0,0.0,0.0
4799,65.0,480.0,120.0,0.0,0.0
4800,64.0,480.0,480.0,0.0,0.0
4801,48.0,480.0,960.0,3.0,0.0
4802,67.0,360.0,960.0,0.0,0.0
4803,55.0,0.0,960.0,3.0,0.0
4804,43.0,0.0,960.0,3.0,0.0
4805,59.0,0.0,960.0,1.0,0.0
4806,53.0,0.0,480.0,3.0,0.0
4807,62.0,120.0,360.0,0.0,0.0
4808,64.0,480.0,120.0,0.0,0.0
4809,52.0,0.0,480.0,3.0,0.0
4810,48.0,336.0,750.0,3.0,0.0
4811,60.0,240.0,480.0,0.0,0.0
4812,55.0,24.0,240.0,3.0,0.0
4813,65.0,120.0,120.0,0.0,0.0
4814,64.0,120.0,120.0,0.0,0.0
4815,62.0,120.0,120.0,0.0,0.0
4816,60.0,120.0,120.0,0.0,0.0
4817,59.0,120.0,120.0,0.0,0.0
4818,57.0,120.0,120.0,0.0,0.0
4819,55.0,120.0,120.0,0.0,0.0
4820,53.0,480.0,120.0,0.0,0.0
4821,36.0,480.0,960.0,3.0,0.0
4822,52.0,480.0,480.0,0.0,0.0
4823,43.0,0.0,960.0,3.0,0.0
4824,55.0,240.0,960.0,0.0,0.0
4825,35.0,480.0,960.0,3.0,0.0
4826,47.0,0.0,960.0,1.0,0.0
4827,41.0,120.0,240.0,3.0,0.0
4828,50.0,120.0,360.0,0.0,0.0
4829,52.0,0.0,120.0,0.0,0.0
4830,48.0,0.0,480.0,0.0,0.0
4831,36.0,0.0,480.0,3.0,0.0
4832,40.0,240.0,480.0,3.0,0.0
4833,48.0,360.0,240.0,3.0,0.0
4834,58.0,120.0,120.0,3.0,0.0
4835,57.0,120.0,120.0,3.0,0.0
4836,55.0,120.0,120.0,3.0,0.0
4837,53.0,120.0,120.0,3.0,0.0
4838,52.0,120.0,120.0,3.0,0.0
4839,50.0,120.0,120.0,3.0,0.0
4840,48.0,120.0,120.0,3.0,0.0
4841,46.0,480.0,120.0,3.0,0.0
4842,45.0,480.0,480.0,3.0,0.0
4843,48.0,120.0,480.0,3.0,0.0
4844,40.0,120.0,480.0,3.0,0.0
4845,82.0,120.0,120.0,0.0,0.0
4846,81.0,120.0,120.0,0.0,0.0
4847,79.0,120.0,120.0,0.0,0.0
4848,77.0,0.0,120.0,0.0,0.0
4849,48.0,0.0,480.0,3.0,0.0
4850,76.0,120.0,120.0,0.0,0.0
4851,74.0,120.0,120.0,0.0,0.0
4852,72.0,120.0,120.0,0.0,0.0
4853,70.0,480.0,120.0,0.0,0.0
4854,69.0,480.0,480.0,0.0,0.0
4855,41.0,120.0,960.0,3.0,0.0
4856,72.0,0.0,480.0,0.0,0.0
4857,64.0,0.0,480.0,0.0,0.0
4858,46.0,120.0,120.0,3.0,0.0
4859,45.0,120.0,120.0,3.0,0.0
4860,43.0,120.0,120.0,3.0,0.0
4861,41.0,120.0,120.0,3.0,0.0
4862,72.0,0.0,480.0,0.0,0.0
4863,40.0,120.0,120.0,3.0,0.0
4864,38.0,120.0,120.0,3.0,0.0
4865,36.0,120.0,120.0,3.0,0.0
4866,34.0,480.0,120.0,3.0,0.0
4867,65.0,0.0,960.0,0.0,0.0
4868,33.0,480.0,480.0,3.0,0.0
4869,36.0,120.0,480.0,3.0,0.0
4870,28.0,0.0,960.0,3.0,0.0
4871,58.0,120.0,120.0,0.0,0.0
4872,57.0,120.0,120.0,0.0,0.0
4873,55.0,120.0,120.0,0.0,0.0
4874,53.0,120.0,120.0,0.0,0.0
4875,36.0,120.0,480.0,3.0,0.0
4876,52.0,120.0,120.0,0.0,0.0
4877,50.0,120.0,120.0,0.0,0.0
4878,48.0,120.0,120.0,0.0,0.0
4879,46.0,0.0,120.0,0.0,0.0
4880,45.0,120.0,120.0,0.0,0.0
4881,29.0,0.0,960.0,3.0,0.0
4882,46.0,120.0,120.0,0.0,0.0
4883,48.0,120.0,120.0,0.0,0.0
4884,50.0,120.0,120.0,0.0,0.0
4885,41.0,960.0,480.0,3.0,0.0
4886,52.0,120.0,120.0,0.0,0.0
4887,53.0,120.0,120.0,0.0,0.0
4888,55.0,120.0,120.0,0.0,0.0
4889,57.0,0.0,120.0,0.0,0.0
4890,31.0,0.0,960.0,3.0,0.0
4891,43.0,0.0,960.0,3.0,0.0
4892,58.0,120.0,960.0,0.0,0.0
4893,41.0,0.0,480.0,3.0,0.0
4894,45.0,0.0,960.0,3.0,0.0
4895,33.0,0.0,960.0,3.0,0.0
4896,60.0,120.0,120.0,0.0,0.0
4897,62.0,120.0,120.0,0.0,0.0
4898,64.0,120.0,120.0,0.0,0.0
4899,65.0,120.0,120.0,0.0,0.0
4900,41.0,0.0,480.0,3.0,0.0
4901,67.0,120.0,120.0,0.0,0.0
4902,69.0,120.0,120.0,0.0,0.0
4903,70.0,120.0,120.0,0.0,0.0
4904,72.0,960.0,120.0,0.0,0.0
4905,47.0,0.0,960.0,3.0,0.0
4906,35.0,0.0,960.0,3.0,0.0
4907,74.0,0.0,960.0,0.0,0.0
4908,41.0,80.0,480.0,3.0,0.0
4909,36.0,0.0,240.0,3.0,0.0
4910,48.0,120.0,240.0,3.0,0.0
4911,76.0,80.0,90.0,0.0,0.0
4912,77.0,80.0,90.0,0.0,0.0
4913,76.0,0.0,90.0,0.0,0.0
4914,74.0,120.0,120.0,0.0,0.0
4915,76.0,240.0,120.0,0.0,0.0
4916,38.0,0.0,240.0,3.0,0.0
4917,50.0,320.0,240.0,3.0,0.0
4918,77.0,0.0,240.0,0.0,0.0
4919,47.0,0.0,240.0,3.0,0.0
4920,35.0,120.0,240.0,3.0,0.0
4921,67.0,80.0,90.0,0.0,0.0
4922,69.0,80.0,90.0,0.0,0.0
4923,67.0,0.0,90.0,0.0,0.0
4924,66.0,120.0,120.0,0.0,0.0
4925,67.0,240.0,120.0,0.0,0.0
4926,36.0,0.0,240.0,3.0,0.0
4927,48.0,0.0,240.0,3.0,0.0
4928,72.0,480.0,240.0,0.0,0.0
4929,65.0,1680.0,240.0,0.0,0.0
4930,29.0,0.0,240.0,3.0,0.0
4931,41.0,0.0,240.0,3.0,0.0
4932,77.0,960.0,960.0,0.0,0.0
4933,65.0,960.0,960.0,0.0,0.0
4934,61.0,1680.0,960.0,0.0,0.0
4935,62.0,720.0,1920.0,0.0,0.0
4936,58.0,0.0,960.0,1.0,0.0
4937,67.0,0.0,960.0,0.0,0.0
4938,46.0,240.0,240.0,3.0,0.0
4939,60.0,240.0,960.0,1.0,0.0
4940,57.0,0.0,960.0,1.0,0.0
4941,65.0,0.0,960.0,0.0,0.0
4942,48.0,240.0,240.0,3.0,0.0
4943,55.0,240.0,960.0,1.0,0.0
4944,58.0,0.0,960.0,1.0,0.0
4945,65.0,240.0,240.0,0.0,0.0
4946,64.0,240.0,240.0,0.0,0.0
4947,36.0,0.0,240.0,3.0,0.0
4948,62.0,240.0,240.0,0.0,0.0
4949,64.0,0.0,240.0,0.0,0.0
4950,65.0,0.0,480.0,0.0,0.0
4951,53.0,240.0,480.0,1.0,0.0
4952,57.0,0.0,480.0,1.0,0.0
4953,41.0,240.0,240.0,3.0,0.0
4954,53.0,480.0,240.0,3.0,0.0
4955,77.0,720.0,240.0,0.0,0.0
4956,77.0,240.0,480.0,0.0,0.0
4957,65.0,720.0,240.0,0.0,0.0
4958,65.0,240.0,480.0,0.0,0.0
4959,60.0,720.0,240.0,0.0,0.0
4960,60.0,1680.0,480.0,0.0,0.0
4961,61.0,0.0,1920.0,0.0,0.0
4962,66.0,0.0,960.0,0.0,0.0
4963,58.0,720.0,960.0,1.0,0.0
4964,37.0,0.0,240.0,3.0,0.0
4965,49.0,240.0,240.0,3.0,0.0
4966,65.0,240.0,960.0,0.0,0.0
4967,56.0,0.0,960.0,1.0,0.0
4968,61.0,0.0,960.0,1.0,0.0
4969,49.0,0.0,240.0,3.0,0.0
4970,37.0,240.0,240.0,3.0,0.0
4971,54.0,0.0,960.0,1.0,0.0
4972,60.0,0.0,960.0,1.0,0.0
4973,65.0,240.0,240.0,0.0,0.0
4974,63.0,240.0,240.0,0.0,0.0
4975,37.0,240.0,240.0,3.0,0.0
4976,49.0,0.0,240.0,3.0,0.0
4977,61.0,0.0,240.0,0.0,0.0
4978,63.0,720.0,240.0,0.0,0.0
4979,61.0,0.0,960.0,0.0,0.0
4980,37.0,240.0,240.0,3.0,0.0
4981,49.0,0.0,240.0,3.0,0.0
4982,60.0,0.0,960.0,0.0,0.0
4983,56.0,0.0,15.0,1.0,0.0
4984,53.0,720.0,15.0,1.0,0.0
4985,37.0,240.0,240.0,3.0,0.0
4986,49.0,0.0,240.0,3.0,0.0
4987,56.0,0.0,15.0,1.0,0.0
4988,59.0,0.0,960.0,0.0,0.0
4989,53.0,720.0,960.0,1.0,0.0
4990,50.0,240.0,240.0,3.0,0.0
4991,38.0,0.0,240.0,3.0,0.0
4992,59.0,2240.0,1920.0,0.0,0.0
4993,55.0,0.0,1920.0,1.0,0.0
4994,53.0,0.0,1920.0,1.0,0.0
4995,38.0,0.0,240.0,3.0,0.0
4996,50.0,1200.0,240.0,3.0,0.0
4997,52.0,8.0,480.0,3.0,0.0
4998,55.0,152.0,150.0,2.0,0.0
4999,67.0,80.0,480.0,0.0,0.0
5000,60.0,240.0,150.0,2.0,0.0
5001,50.0,8.0,480.0,3.0,0.0
5002,53.0,152.0,150.0,2.0,0.0
5003,71.0,80.0,480.0,0.0,0.0
5004,59.0,0.0,240.0,1.0,0.0
5005,55.0,240.0,150.0,2.0,0.0
5006,48.0,8.0,480.0,3.0,0.0
5007,52.0,152.0,150.0,2.0,0.0
5008,72.0,0.0,480.0,0.0,0.0
5009,55.0,240.0,150.0,2.0,0.0
5010,47.0,8.0,480.0,3.0,0.0
5011,50.0,152.0,150.0,2.0,0.0
5012,60.0,80.0,15.0,1.0,0.0
5013,72.0,80.0,480.0,0.0,0.0
5014,55.0,240.0,150.0,2.0,0.0
5015,45.0,8.0,480.0,3.0,0.0
5016,48.0,152.0,150.0,2.0,0.0
5017,60.0,0.0,15.0,1.0,0.0
5018,53.0,240.0,150.0,2.0,0.0
5019,43.0,8.0,480.0,3.0,0.0
5020,47.0,152.0,150.0,2.0,0.0
5021,72.0,80.0,15.0,0.0,0.0
5022,60.0,0.0,480.0,1.0,0.0
5023,52.0,240.0,150.0,2.0,0.0
5024,41.0,8.0,480.0,3.0,0.0
5025,45.0,152.0,150.0,2.0,0.0
5026,74.0,0.0,480.0,0.0,0.0
5027,62.0,80.0,480.0,1.0,0.0
5028,50.0,240.0,150.0,2.0,0.0
5029,40.0,8.0,480.0,3.0,0.0
5030,43.0,152.0,150.0,2.0,0.0
5031,76.0,0.0,480.0,0.0,0.0
5032,64.0,80.0,480.0,1.0,0.0
5033,48.0,240.0,150.0,2.0,0.0
5034,38.0,8.0,480.0,3.0,0.0
5035,41.0,152.0,150.0,2.0,0.0
5036,65.0,0.0,480.0,1.0,0.0
5037,47.0,240.0,150.0,2.0,0.0
5038,36.0,8.0,480.0,3.0,0.0
5039,40.0,152.0,150.0,2.0,0.0
5040,77.0,80.0,15.0,0.0,0.0
5041,45.0,240.0,150.0,2.0,0.0
5042,35.0,8.0,480.0,3.0,0.0
5043,38.0,152.0,150.0,2.0,0.0
5044,65.0,80.0,15.0,1.0,0.0
5045,43.0,240.0,150.0,2.0,0.0
5046,36.0,8.0,480.0,3.0,0.0
5047,40.0,152.0,150.0,2.0,0.0
5048,77.0,80.0,15.0,0.0,0.0
5049,43.0,240.0,150.0,2.0,0.0
5050,35.0,8.0,480.0,3.0,0.0
5051,38.0,152.0,150.0,2.0,0.0
5052,65.0,0.0,15.0,1.0,0.0
5053,43.0,240.0,150.0,2.0,0.0
5054,33.0,8.0,480.0,3.0,0.0
5055,36.0,152.0,150.0,2.0,0.0
5056,77.0,0.0,15.0,0.0,0.0
5057,43.0,480.0,150.0,2.0,0.0
5058,65.0,0.0,15.0,1.0,0.0
5059,31.0,0.0,720.0,3.0,0.0
5060,77.0,0.0,15.0,0.0,0.0
5061,35.0,240.0,480.0,2.0,0.0
5062,43.0,240.0,240.0,2.0,0.0
5063,77.0,240.0,15.0,0.0,0.0
5064,65.0,0.0,240.0,1.0,0.0
5065,31.0,480.0,480.0,3.0,0.0
5066,43.0,0.0,480.0,3.0,0.0
5067,77.0,0.0,240.0,0.0,0.0
5068,65.0,0.0,240.0,1.0,0.0
5069,47.0,0.0,480.0,3.0,0.0
5070,35.0,480.0,480.0,3.0,0.0
5071,76.0,0.0,240.0,0.0,0.0
5072,64.0,0.0,240.0,1.0,0.0
5073,48.0,0.0,480.0,3.0,0.0
5074,62.0,0.0,240.0,1.0,0.0
5075,74.0,480.0,240.0,0.0,0.0
5076,48.0,0.0,480.0,3.0,0.0
5077,36.0,0.0,15.0,3.0,0.0
5078,60.0,0.0,240.0,1.0,0.0
5079,72.0,0.0,240.0,0.0,0.0
5080,48.0,0.0,480.0,3.0,0.0
5081,59.0,0.0,240.0,1.0,0.0
5082,71.0,0.0,240.0,0.0,0.0
5083,36.0,480.0,15.0,3.0,0.0
5084,48.0,0.0,480.0,3.0,0.0
5085,57.0,0.0,240.0,1.0,0.0
5086,69.0,480.0,240.0,0.0,0.0
5087,48.0,0.0,480.0,3.0,0.0
5088,36.0,0.0,480.0,3.0,0.0
5089,68.0,480.0,240.0,0.0,0.0
5090,56.0,0.0,240.0,1.0,0.0
5091,36.0,0.0,480.0,3.0,0.0
5092,57.0,480.0,240.0,1.0,0.0
5093,69.0,0.0,240.0,0.0,0.0
5094,48.0,0.0,15.0,3.0,0.0
5095,36.0,0.0,480.0,3.0,0.0
5096,53.0,0.0,240.0,1.0,0.0
5097,65.0,480.0,240.0,0.0,0.0
5098,49.0,0.0,480.0,3.0,0.0
5099,37.0,0.0,480.0,3.0,0.0
5100,65.0,480.0,240.0,0.0,0.0
5101,53.0,0.0,240.0,1.0,0.0
5102,38.0,0.0,480.0,3.0,0.0
5103,50.0,480.0,480.0,3.0,0.0
5104,52.0,0.0,240.0,1.0,0.0
5105,64.0,0.0,240.0,0.0,0.0
5106,40.0,480.0,480.0,3.0,0.0
5107,52.0,0.0,480.0,3.0,0.0
5108,62.0,0.0,240.0,0.0,0.0
5109,53.0,0.0,480.0,3.0,0.0
5110,60.0,0.0,240.0,0.0,0.0
5111,41.0,480.0,15.0,3.0,0.0
5112,53.0,480.0,480.0,3.0,0.0
5113,59.0,0.0,240.0,0.0,0.0
5114,53.0,480.0,480.0,3.0,0.0
5115,41.0,0.0,480.0,3.0,0.0
5116,62.0,0.0,240.0,0.0,0.0
5117,65.0,0.0,240.0,0.0,0.0
5118,41.0,480.0,15.0,3.0,0.0
5119,53.0,0.0,15.0,3.0,0.0
5120,68.0,0.0,240.0,0.0,0.0
5121,53.0,0.0,15.0,3.0,0.0
5122,41.0,240.0,15.0,3.0,0.0
5123,58.0,120.0,120.0,0.0,0.0
5124,53.0,0.0,15.0,3.0,0.0
5125,41.0,0.0,960.0,3.0,0.0
5126,62.0,120.0,120.0,0.0,0.0
5127,68.0,120.0,120.0,0.0,0.0
5128,70.0,120.0,120.0,0.0,0.0
5129,58.0,120.0,120.0,0.0,0.0
5130,62.0,120.0,120.0,0.0,0.0
5131,68.0,120.0,120.0,0.0,0.0
5132,70.0,120.0,120.0,0.0,0.0
5133,44.0,120.0,240.0,3.0,0.0
5134,32.0,0.0,240.0,3.0,0.0
5135,58.0,120.0,120.0,0.0,0.0
5136,62.0,0.0,120.0,0.0,0.0
5137,65.0,120.0,120.0,0.0,0.0
5138,70.0,120.0,120.0,0.0,0.0
5139,32.0,0.0,240.0,3.0,0.0
5140,58.0,120.0,120.0,0.0,0.0
5141,44.0,0.0,240.0,3.0,0.0
5142,62.0,120.0,120.0,0.0,0.0
5143,65.0,120.0,120.0,0.0,0.0
5144,70.0,120.0,120.0,0.0,0.0
5145,29.0,0.0,960.0,3.0,0.0
5146,41.0,120.0,960.0,3.0,0.0
5147,58.0,120.0,120.0,0.0,0.0
5148,62.0,120.0,120.0,0.0,0.0
5149,65.0,120.0,120.0,0.0,0.0
5150,70.0,120.0,120.0,0.0,0.0
5151,58.0,120.0,120.0,0.0,0.0
5152,62.0,120.0,120.0,0.0,0.0
5153,65.0,120.0,120.0,0.0,0.0
5154,70.0,0.0,120.0,0.0,0.0
5155,56.0,120.0,120.0,0.0,0.0
5156,47.0,0.0,240.0,3.0,0.0
5157,35.0,120.0,240.0,3.0,0.0
5158,62.0,0.0,120.0,0.0,0.0
5159,65.0,120.0,120.0,0.0,0.0
5160,68.0,120.0,120.0,0.0,0.0
5161,35.0,0.0,240.0,3.0,0.0
5162,47.0,120.0,240.0,3.0,0.0
5163,56.0,120.0,120.0,0.0,0.0
5164,62.0,0.0,120.0,0.0,0.0
5165,65.0,120.0,120.0,0.0,0.0
5166,68.0,120.0,120.0,0.0,0.0
5167,35.0,0.0,960.0,3.0,0.0
5168,47.0,120.0,960.0,3.0,0.0
5169,56.0,120.0,120.0,0.0,0.0
5170,62.0,120.0,120.0,0.0,0.0
5171,65.0,120.0,120.0,0.0,0.0
5172,68.0,120.0,120.0,0.0,0.0
5173,56.0,120.0,120.0,0.0,0.0
5174,62.0,120.0,120.0,0.0,0.0
5175,65.0,120.0,120.0,0.0,0.0
5176,68.0,0.0,120.0,0.0,0.0
5177,38.0,0.0,240.0,3.0,0.0
5178,50.0,120.0,240.0,3.0,0.0
5179,55.0,120.0,120.0,0.0,0.0
5180,59.0,0.0,120.0,0.0,0.0
5181,65.0,120.0,120.0,0.0,0.0
5182,67.0,120.0,120.0,0.0,0.0
5183,38.0,0.0,240.0,3.0,0.0
5184,55.0,120.0,120.0,0.0,0.0
5185,50.0,120.0,240.0,3.0,0.0
5186,59.0,0.0,120.0,0.0,0.0
5187,65.0,120.0,120.0,0.0,0.0
5188,67.0,120.0,120.0,0.0,0.0
5189,38.0,0.0,240.0,3.0,0.0
5190,50.0,0.0,240.0,3.0,0.0
5191,55.0,120.0,120.0,0.0,0.0
5192,59.0,120.0,120.0,0.0,0.0
5193,65.0,120.0,120.0,0.0,0.0
5194,67.0,120.0,120.0,0.0,0.0
5195,55.0,120.0,120.0,0.0,0.0
5196,38.0,0.0,240.0,3.0,0.0
5197,50.0,0.0,240.0,3.0,0.0
5198,59.0,120.0,120.0,0.0,0.0
5199,65.0,120.0,120.0,0.0,0.0
5200,67.0,120.0,120.0,0.0,0.0
5201,50.0,0.0,240.0,3.0,0.0
5202,55.0,120.0,120.0,0.0,0.0
5203,38.0,0.0,240.0,3.0,0.0
5204,59.0,120.0,120.0,0.0,0.0
5205,65.0,120.0,120.0,0.0,0.0
5206,67.0,120.0,120.0,0.0,0.0
5207,55.0,120.0,120.0,0.0,0.0
5208,50.0,120.0,240.0,3.0,0.0
5209,38.0,0.0,240.0,3.0,0.0
5210,59.0,0.0,120.0,0.0,0.0
5211,65.0,120.0,120.0,0.0,0.0
5212,67.0,1920.0,120.0,0.0,0.0
5213,50.0,0.0,1920.0,3.0,0.0
5214,38.0,0.0,1920.0,3.0,0.0
5215,59.0,0.0,1920.0,0.0,0.0
5216,65.0,0.0,1920.0,0.0,0.0
5217,55.0,1200.0,1920.0,0.0,0.0
5218,67.0,0.0,1920.0,0.0,0.0
5219,52.0,8.0,480.0,3.0,0.0
5220,67.0,80.0,240.0,0.0,0.0
5221,55.0,152.0,150.0,2.0,0.0
5222,69.0,240.0,240.0,0.0,0.0
5223,60.0,0.0,150.0,2.0,0.0
5224,70.0,80.0,240.0,0.0,0.0
5225,50.0,8.0,480.0,3.0,0.0
5226,53.0,152.0,150.0,2.0,0.0
5227,71.0,240.0,240.0,0.0,0.0
5228,55.0,0.0,150.0,2.0,0.0
5229,48.0,8.0,480.0,3.0,0.0
5230,72.0,80.0,240.0,0.0,0.0
5231,52.0,152.0,150.0,2.0,0.0
5232,55.0,320.0,150.0,2.0,0.0
5233,47.0,8.0,480.0,3.0,0.0
5234,50.0,152.0,150.0,2.0,0.0
5235,55.0,240.0,150.0,2.0,0.0
5236,60.0,80.0,240.0,0.0,0.0
5237,45.0,8.0,480.0,3.0,0.0
5238,48.0,152.0,150.0,2.0,0.0
5239,62.0,240.0,240.0,0.0,0.0
5240,53.0,0.0,150.0,2.0,0.0
5241,43.0,8.0,480.0,3.0,0.0
5242,63.0,80.0,240.0,0.0,0.0
5243,47.0,152.0,150.0,2.0,0.0
5244,64.0,0.0,240.0,0.0,0.0
5245,52.0,240.0,150.0,2.0,0.0
5246,65.0,80.0,240.0,0.0,0.0
5247,41.0,8.0,480.0,3.0,0.0
5248,45.0,152.0,150.0,2.0,0.0
5249,50.0,320.0,150.0,2.0,0.0
5250,40.0,8.0,480.0,3.0,0.0
5251,43.0,152.0,150.0,2.0,0.0
5252,48.0,240.0,150.0,2.0,0.0
5253,38.0,8.0,480.0,3.0,0.0
5254,72.0,80.0,240.0,0.0,0.0
5255,41.0,152.0,150.0,2.0,0.0
5256,74.0,240.0,240.0,0.0,0.0
5257,47.0,0.0,150.0,2.0,0.0
5258,36.0,8.0,480.0,3.0,0.0
5259,75.0,80.0,240.0,0.0,0.0
5260,40.0,152.0,150.0,2.0,0.0
5261,76.0,240.0,240.0,0.0,0.0
5262,45.0,0.0,150.0,2.0,0.0
5263,77.0,80.0,240.0,0.0,0.0
5264,35.0,8.0,480.0,3.0,0.0
5265,38.0,152.0,150.0,2.0,0.0
5266,43.0,320.0,150.0,2.0,0.0
5267,36.0,8.0,480.0,3.0,0.0
5268,40.0,152.0,150.0,2.0,0.0
5269,43.0,240.0,150.0,2.0,0.0
5270,77.0,80.0,240.0,0.0,0.0
5271,35.0,8.0,480.0,3.0,0.0
5272,38.0,152.0,150.0,2.0,0.0
5273,76.0,0.0,240.0,0.0,0.0
5274,43.0,240.0,150.0,2.0,0.0
5275,33.0,8.0,480.0,3.0,0.0
5276,77.0,80.0,240.0,0.0,0.0
5277,36.0,152.0,150.0,2.0,0.0
5278,76.0,0.0,240.0,0.0,0.0
5279,43.0,240.0,150.0,2.0,0.0
5280,77.0,240.0,240.0,0.0,0.0
5281,35.0,0.0,480.0,2.0,0.0
5282,35.0,240.0,480.0,3.0,0.0
5283,31.0,0.0,720.0,3.0,0.0
5284,43.0,360.0,240.0,2.0,0.0
5285,77.0,120.0,120.0,0.0,0.0
5286,76.0,120.0,120.0,0.0,0.0
5287,74.0,120.0,120.0,0.0,0.0
5288,72.0,120.0,120.0,0.0,0.0
5289,71.0,120.0,120.0,0.0,0.0
5290,69.0,120.0,120.0,0.0,0.0
5291,67.0,120.0,120.0,0.0,0.0
5292,65.0,480.0,120.0,0.0,0.0
5293,64.0,480.0,480.0,0.0,0.0
5294,67.0,120.0,480.0,0.0,0.0
5295,59.0,120.0,480.0,0.0,0.0
5296,53.0,120.0,120.0,3.0,0.0
5297,52.0,120.0,120.0,3.0,0.0
5298,50.0,120.0,120.0,3.0,0.0
5299,48.0,0.0,120.0,3.0,0.0
5300,67.0,0.0,480.0,0.0,0.0
5301,47.0,120.0,120.0,3.0,0.0
5302,45.0,120.0,120.0,3.0,0.0
5303,43.0,120.0,120.0,3.0,0.0
5304,41.0,480.0,120.0,3.0,0.0
5305,60.0,0.0,960.0,0.0,0.0
5306,40.0,480.0,480.0,3.0,0.0
5307,43.0,120.0,480.0,3.0,0.0
5308,65.0,120.0,120.0,0.0,0.0
5309,35.0,120.0,480.0,3.0,0.0
5310,64.0,120.0,120.0,0.0,0.0
5311,62.0,120.0,120.0,0.0,0.0
5312,60.0,0.0,120.0,0.0,0.0
5313,59.0,120.0,120.0,0.0,0.0
5314,43.0,120.0,480.0,3.0,0.0
5315,57.0,120.0,120.0,0.0,0.0
5316,55.0,120.0,120.0,0.0,0.0
5317,53.0,0.0,120.0,0.0,0.0
5318,52.0,120.0,120.0,0.0,0.0
5319,36.0,0.0,960.0,3.0,0.0
5320,53.0,120.0,120.0,0.0,0.0
5321,55.0,120.0,120.0,0.0,0.0
5322,57.0,120.0,120.0,0.0,0.0
5323,48.0,0.0,480.0,3.0,0.0
5324,59.0,120.0,120.0,0.0,0.0
5325,60.0,120.0,120.0,0.0,0.0
5326,62.0,120.0,120.0,0.0,0.0
5327,64.0,960.0,120.0,0.0,0.0
5328,65.0,0.0,960.0,0.0,0.0
5329,50.0,0.0,960.0,3.0,0.0
5330,38.0,0.0,960.0,3.0,0.0
5331,48.0,120.0,480.0,3.0,0.0
5332,67.0,120.0,120.0,0.0,0.0
5333,52.0,0.0,960.0,3.0,0.0
5334,40.0,0.0,960.0,3.0,0.0
5335,69.0,120.0,120.0,0.0,0.0
5336,71.0,120.0,120.0,0.0,0.0
5337,72.0,120.0,120.0,0.0,0.0
5338,74.0,120.0,120.0,0.0,0.0
5339,48.0,0.0,480.0,3.0,0.0
5340,76.0,120.0,120.0,0.0,0.0
5341,77.0,120.0,120.0,0.0,0.0
5342,79.0,960.0,120.0,0.0,0.0
5343,81.0,125.0,960.0,0.0,0.0
5344,41.0,0.0,960.0,3.0,0.0
5345,53.0,0.0,960.0,3.0,0.0
5346,48.0,0.0,480.0,3.0,0.0
5347,57.0,0.0,960.0,3.0,0.0
5348,45.0,0.0,960.0,3.0,0.0
5349,78.0,80.0,120.0,0.0,0.0
5350,79.0,80.0,120.0,0.0,0.0
5351,78.0,80.0,120.0,0.0,0.0
5352,79.0,80.0,120.0,0.0,0.0
5353,78.0,80.0,120.0,0.0,0.0
5354,79.0,80.0,120.0,0.0,0.0
5355,48.0,0.0,480.0,3.0,0.0
5356,78.0,80.0,120.0,0.0,0.0
5357,79.0,80.0,120.0,0.0,0.0
5358,78.0,120.0,120.0,0.0,0.0
5359,77.0,75.0,180.0,0.0,0.0
5360,78.0,240.0,120.0,0.0,0.0
5361,43.0,0.0,240.0,3.0,0.0
5362,55.0,0.0,240.0,3.0,0.0
5363,79.0,480.0,240.0,0.0,0.0
5364,43.0,480.0,240.0,3.0,0.0
5365,79.0,0.0,240.0,0.0,0.0
5366,67.0,0.0,240.0,0.0,0.0
5367,55.0,0.0,240.0,3.0,0.0
5368,48.0,0.0,240.0,3.0,0.0
5369,60.0,0.0,240.0,0.0,0.0
5370,72.0,0.0,240.0,0.0,0.0
5371,36.0,0.0,240.0,3.0,0.0
