,note,step,duration,channel,velocity
0,60.0,128.0,120.0,0.0,0.0
1,41.0,4.0,1530.0,0.0,0.0
2,53.0,0.0,1530.0,0.0,0.0
3,65.0,128.0,120.0,0.0,0.0
4,68.0,128.0,120.0,0.0,0.0
5,60.0,128.0,120.0,0.0,0.0
6,65.0,128.0,120.0,0.0,0.0
7,68.0,128.0,120.0,0.0,0.0
8,60.0,128.0,120.0,0.0,0.0
9,65.0,128.0,120.0,0.0,0.0
10,68.0,128.0,120.0,0.0,0.0
11,60.0,128.0,120.0,0.0,0.0
12,65.0,124.0,120.0,0.0,0.0
13,68.0,128.0,120.0,0.0,0.0
14,51.0,4.0,1530.0,0.0,0.0
15,39.0,0.0,1530.0,0.0,0.0
16,60.0,132.0,120.0,0.0,0.0
17,65.0,120.0,120.0,0.0,0.0
18,68.0,132.0,120.0,0.0,0.0
19,60.0,128.0,120.0,0.0,0.0
20,65.0,128.0,120.0,0.0,0.0
21,68.0,128.0,120.0,0.0,0.0
22,60.0,128.0,120.0,0.0,0.0
23,65.0,128.0,120.0,0.0,0.0
24,68.0,128.0,120.0,0.0,0.0
25,60.0,128.0,120.0,0.0,0.0
26,65.0,124.0,120.0,0.0,0.0
27,68.0,128.0,120.0,0.0,0.0
28,61.0,128.0,120.0,0.0,0.0
29,37.0,4.0,750.0,0.0,0.0
30,49.0,0.0,750.0,0.0,0.0
31,65.0,128.0,120.0,0.0,0.0
32,68.0,128.0,120.0,0.0,0.0
33,61.0,128.0,120.0,0.0,0.0
34,65.0,124.0,120.0,0.0,0.0
35,68.0,248.0,120.0,0.0,0.0
36,46.0,4.0,750.0,0.0,0.0
37,34.0,0.0,750.0,0.0,0.0
38,61.0,8.0,240.0,0.0,0.0
39,66.0,128.0,120.0,0.0,0.0
40,70.0,128.0,120.0,0.0,0.0
41,61.0,128.0,120.0,0.0,0.0
42,66.0,124.0,120.0,0.0,0.0
43,70.0,128.0,120.0,0.0,0.0
44,48.0,4.0,750.0,0.0,0.0
45,60.0,128.0,120.0,0.0,0.0
46,36.0,0.0,750.0,0.0,0.0
47,64.0,128.0,120.0,0.0,0.0
48,70.0,128.0,120.0,0.0,0.0
49,60.0,128.0,120.0,0.0,0.0
50,65.0,124.0,120.0,0.0,0.0
51,68.0,128.0,120.0,0.0,0.0
52,36.0,0.0,390.0,0.0,0.0
53,60.0,128.0,120.0,0.0,0.0
54,48.0,4.0,390.0,0.0,0.0
55,65.0,124.0,120.0,0.0,0.0
56,67.0,128.0,120.0,0.0,0.0
57,58.0,128.0,120.0,0.0,0.0
58,64.0,128.0,120.0,0.0,0.0
59,67.0,128.0,120.0,0.0,0.0
60,53.0,0.0,1530.0,0.0,0.0
61,48.0,0.0,1530.0,0.0,0.0
62,41.0,4.0,1530.0,0.0,0.0
63,56.0,128.0,120.0,0.0,0.0
64,60.0,128.0,120.0,0.0,0.0
65,65.0,128.0,120.0,0.0,0.0
66,60.0,128.0,120.0,0.0,0.0
67,65.0,128.0,120.0,0.0,0.0
68,68.0,128.0,120.0,0.0,0.0
69,60.0,128.0,120.0,0.0,0.0
70,65.0,128.0,120.0,0.0,0.0
71,68.0,128.0,120.0,0.0,0.0
72,72.0,92.0,300.0,0.0,0.0
73,60.0,128.0,120.0,0.0,0.0
74,65.0,32.0,120.0,0.0,0.0
75,68.0,0.0,120.0,0.0,0.0
76,72.0,128.0,90.0,0.0,0.0
77,60.0,128.0,120.0,0.0,0.0
78,40.0,0.0,1530.0,0.0,0.0
79,48.0,4.0,1530.0,0.0,0.0
80,52.0,0.0,1530.0,0.0,0.0
81,72.0,4.0,1140.0,0.0,0.0
82,67.0,128.0,120.0,0.0,0.0
83,70.0,128.0,120.0,0.0,0.0
84,60.0,128.0,120.0,0.0,0.0
85,67.0,128.0,120.0,0.0,0.0
86,70.0,128.0,120.0,0.0,0.0
87,60.0,128.0,120.0,0.0,0.0
88,67.0,124.0,120.0,0.0,0.0
89,70.0,128.0,120.0,0.0,0.0
90,60.0,128.0,120.0,0.0,0.0
91,67.0,32.0,120.0,0.0,0.0
92,70.0,0.0,120.0,0.0,0.0
93,72.0,92.0,15.0,0.0,0.0
94,72.0,128.0,15.0,0.0,0.0
95,60.0,128.0,120.0,0.0,0.0
96,53.0,4.0,750.0,0.0,0.0
97,41.0,0.0,750.0,0.0,0.0
98,65.0,128.0,120.0,0.0,0.0
99,68.0,128.0,120.0,0.0,0.0
100,60.0,128.0,120.0,0.0,0.0
101,65.0,124.0,120.0,0.0,0.0
102,68.0,132.0,120.0,0.0,0.0
103,61.0,124.0,120.0,0.0,0.0
104,73.0,4.0,750.0,0.0,0.0
105,46.0,0.0,750.0,0.0,0.0
106,34.0,0.0,750.0,0.0,0.0
107,65.0,128.0,120.0,0.0,0.0
108,70.0,128.0,120.0,0.0,0.0
109,61.0,128.0,120.0,0.0,0.0
110,65.0,124.0,120.0,0.0,0.0
111,70.0,128.0,120.0,0.0,0.0
112,39.0,0.0,750.0,0.0,0.0
113,51.0,0.0,750.0,0.0,0.0
114,72.0,4.0,750.0,0.0,0.0
115,60.0,128.0,120.0,0.0,0.0
116,63.0,128.0,120.0,0.0,0.0
117,68.0,128.0,120.0,0.0,0.0
118,60.0,128.0,120.0,0.0,0.0
119,63.0,124.0,120.0,0.0,0.0
120,68.0,128.0,120.0,0.0,0.0
121,70.0,96.0,150.0,0.0,0.0
122,61.0,32.0,120.0,0.0,0.0
123,39.0,0.0,750.0,0.0,0.0
124,51.0,0.0,750.0,0.0,0.0
125,63.0,124.0,120.0,0.0,0.0
126,67.0,256.0,120.0,0.0,0.0
127,61.0,4.0,30.0,0.0,0.0
128,75.0,4.0,390.0,0.0,0.0
129,63.0,124.0,120.0,0.0,0.0
130,67.0,128.0,120.0,0.0,0.0
131,60.0,128.0,120.0,0.0,0.0
132,56.0,4.0,1530.0,0.0,0.0
133,44.0,0.0,1530.0,0.0,0.0
134,63.0,124.0,120.0,0.0,0.0
135,68.0,4.0,120.0,0.0,0.0
136,60.0,128.0,120.0,0.0,0.0
137,63.0,128.0,120.0,0.0,0.0
138,68.0,128.0,120.0,0.0,0.0
139,60.0,128.0,120.0,0.0,0.0
140,63.0,128.0,120.0,0.0,0.0
141,68.0,128.0,120.0,0.0,0.0
142,60.0,128.0,120.0,0.0,0.0
143,63.0,124.0,120.0,0.0,0.0
144,68.0,128.0,120.0,0.0,0.0
145,59.0,128.0,120.0,0.0,0.0
146,56.0,0.0,1530.0,0.0,0.0
147,44.0,4.0,1530.0,0.0,0.0
148,63.0,128.0,120.0,0.0,0.0
149,68.0,128.0,120.0,0.0,0.0
150,59.0,128.0,120.0,0.0,0.0
151,63.0,128.0,120.0,0.0,0.0
152,68.0,128.0,120.0,0.0,0.0
153,59.0,128.0,120.0,0.0,0.0
154,63.0,128.0,120.0,0.0,0.0
155,68.0,128.0,120.0,0.0,0.0
156,71.0,92.0,300.0,0.0,0.0
157,59.0,128.0,120.0,0.0,0.0
158,63.0,32.0,120.0,0.0,0.0
159,68.0,128.0,120.0,0.0,0.0
160,71.0,0.0,15.0,0.0,0.0
161,42.0,0.0,1530.0,0.0,0.0
162,59.0,128.0,120.0,0.0,0.0
163,54.0,4.0,1530.0,0.0,0.0
164,63.0,128.0,120.0,0.0,0.0
165,69.0,128.0,120.0,0.0,0.0
166,59.0,128.0,120.0,0.0,0.0
167,63.0,128.0,120.0,0.0,0.0
168,69.0,128.0,120.0,0.0,0.0
169,59.0,128.0,120.0,0.0,0.0
170,63.0,124.0,120.0,0.0,0.0
171,69.0,128.0,120.0,0.0,0.0
172,71.0,92.0,300.0,0.0,0.0
173,59.0,128.0,120.0,0.0,0.0
174,63.0,32.0,120.0,0.0,0.0
175,69.0,0.0,120.0,0.0,0.0
176,71.0,128.0,90.0,0.0,0.0
177,71.0,4.0,1140.0,0.0,0.0
178,40.0,0.0,390.0,0.0,0.0
179,52.0,4.0,390.0,0.0,0.0
180,59.0,128.0,120.0,0.0,0.0
181,64.0,124.0,120.0,0.0,0.0
182,68.0,128.0,120.0,0.0,0.0
183,39.0,0.0,390.0,0.0,0.0
184,59.0,128.0,120.0,0.0,0.0
185,51.0,4.0,390.0,0.0,0.0
186,63.0,124.0,120.0,0.0,0.0
187,68.0,128.0,120.0,0.0,0.0
188,59.0,128.0,120.0,0.0,0.0
189,38.0,4.0,750.0,0.0,0.0
190,50.0,0.0,750.0,0.0,0.0
191,65.0,124.0,120.0,0.0,0.0
192,68.0,128.0,120.0,0.0,0.0
193,70.0,0.0,390.0,0.0,0.0
194,58.0,128.0,120.0,0.0,0.0
195,65.0,124.0,120.0,0.0,0.0
196,68.0,128.0,120.0,0.0,0.0
197,70.0,4.0,750.0,0.0,0.0
198,51.0,0.0,750.0,0.0,0.0
199,58.0,128.0,120.0,0.0,0.0
200,39.0,0.0,750.0,0.0,0.0
201,63.0,128.0,120.0,0.0,0.0
202,66.0,128.0,120.0,0.0,0.0
203,58.0,128.0,120.0,0.0,0.0
204,63.0,124.0,120.0,0.0,0.0
205,66.0,128.0,120.0,0.0,0.0
206,71.0,4.0,390.0,0.0,0.0
207,59.0,128.0,120.0,0.0,0.0
208,44.0,0.0,390.0,0.0,0.0
209,63.0,124.0,120.0,0.0,0.0
210,65.0,128.0,120.0,0.0,0.0
211,68.0,4.0,390.0,0.0,0.0
212,47.0,128.0,120.0,0.0,0.0
213,56.0,0.0,390.0,0.0,0.0
214,63.0,124.0,120.0,0.0,0.0
215,65.0,128.0,120.0,0.0,0.0
216,46.0,0.0,750.0,0.0,0.0
217,70.0,4.0,750.0,0.0,0.0
218,58.0,128.0,120.0,0.0,0.0
219,63.0,128.0,120.0,0.0,0.0
220,66.0,256.0,120.0,0.0,0.0
221,58.0,0.0,390.0,0.0,0.0
222,63.0,124.0,120.0,0.0,0.0
223,66.0,128.0,120.0,0.0,0.0
224,34.0,0.0,750.0,0.0,0.0
225,58.0,128.0,120.0,0.0,0.0
226,46.0,8.0,750.0,0.0,0.0
227,70.0,0.0,780.0,0.0,64.0
228,62.0,128.0,120.0,0.0,0.0
229,65.0,128.0,120.0,0.0,0.0
230,58.0,128.0,120.0,0.0,0.0
231,62.0,124.0,120.0,0.0,0.0
232,65.0,124.0,120.0,0.0,64.0
233,39.0,4.0,1920.0,0.0,64.0
234,51.0,0.0,1920.0,0.0,64.0
235,63.0,128.0,120.0,0.0,0.0
236,66.0,128.0,120.0,0.0,0.0
237,70.0,128.0,120.0,0.0,0.0
238,63.0,128.0,120.0,0.0,0.0
239,66.0,128.0,120.0,0.0,0.0
240,70.0,128.0,120.0,0.0,0.0
241,63.0,128.0,120.0,0.0,0.0
242,67.0,128.0,120.0,0.0,0.0
243,70.0,128.0,120.0,0.0,0.0
244,63.0,128.0,120.0,0.0,0.0
245,75.0,4.0,390.0,0.0,0.0
246,67.0,124.0,120.0,0.0,0.0
247,70.0,124.0,120.0,0.0,0.0
248,63.0,132.0,150.0,0.0,64.0
249,76.0,0.0,1140.0,0.0,64.0
250,68.0,124.0,120.0,0.0,0.0
251,71.0,252.0,120.0,0.0,0.0
252,63.0,80.0,300.0,0.0,0.0
253,56.0,0.0,390.0,0.0,0.0
254,44.0,4.0,390.0,0.0,0.0
255,68.0,48.0,120.0,0.0,0.0
256,71.0,128.0,120.0,0.0,0.0
257,63.0,128.0,120.0,0.0,0.0
258,59.0,0.0,390.0,0.0,0.0
259,47.0,4.0,390.0,0.0,0.0
260,68.0,124.0,120.0,0.0,0.0
261,71.0,128.0,120.0,0.0,0.0
262,44.0,0.0,390.0,0.0,0.0
263,74.0,4.0,390.0,0.0,0.0
264,63.0,128.0,120.0,0.0,0.0
265,56.0,0.0,390.0,0.0,0.0
266,68.0,124.0,120.0,0.0,0.0
267,71.0,128.0,120.0,0.0,0.0
268,51.0,0.0,1650.0,0.0,64.0
269,39.0,0.0,1650.0,0.0,64.0
270,75.0,4.0,1140.0,0.0,0.0
271,63.0,128.0,120.0,0.0,0.0
272,67.0,128.0,120.0,0.0,0.0
273,70.0,128.0,120.0,0.0,0.0
274,63.0,128.0,120.0,0.0,0.0
275,67.0,128.0,120.0,0.0,0.0
276,70.0,128.0,120.0,0.0,0.0
277,63.0,128.0,120.0,0.0,0.0
278,67.0,124.0,120.0,0.0,0.0
279,70.0,128.0,120.0,0.0,0.0
280,63.0,152.0,120.0,0.0,0.0
281,75.0,132.0,390.0,0.0,0.0
282,67.0,48.0,150.0,0.0,0.0
283,70.0,52.0,60.0,0.0,0.0
284,63.0,128.0,150.0,0.0,64.0
285,76.0,0.0,1140.0,0.0,0.0
286,68.0,128.0,120.0,0.0,0.0
287,71.0,128.0,120.0,0.0,0.0
288,63.0,128.0,120.0,0.0,0.0
289,44.0,4.0,390.0,0.0,0.0
290,56.0,0.0,390.0,0.0,0.0
291,68.0,124.0,120.0,0.0,0.0
292,71.0,128.0,120.0,0.0,0.0
293,59.0,4.0,390.0,0.0,0.0
294,63.0,128.0,120.0,0.0,0.0
295,47.0,0.0,390.0,0.0,0.0
296,68.0,124.0,120.0,0.0,0.0
297,71.0,128.0,120.0,0.0,0.0
298,63.0,128.0,120.0,0.0,0.0
299,44.0,0.0,390.0,0.0,0.0
300,56.0,4.0,390.0,0.0,0.0
301,74.0,0.0,390.0,0.0,0.0
302,68.0,124.0,120.0,0.0,0.0
303,71.0,128.0,120.0,0.0,0.0
304,63.0,128.0,120.0,0.0,0.0
305,75.0,0.0,750.0,0.0,0.0
306,51.0,0.0,750.0,0.0,0.0
307,39.0,4.0,750.0,0.0,0.0
308,67.0,128.0,120.0,0.0,0.0
309,70.0,128.0,120.0,0.0,0.0
310,63.0,128.0,120.0,0.0,0.0
311,67.0,124.0,120.0,0.0,0.0
312,70.0,128.0,120.0,0.0,0.0
313,48.0,0.0,750.0,0.0,0.0
314,36.0,0.0,750.0,0.0,0.0
315,63.0,128.0,120.0,0.0,0.0
316,75.0,4.0,750.0,0.0,0.0
317,66.0,128.0,120.0,0.0,0.0
318,69.0,128.0,120.0,0.0,0.0
319,63.0,128.0,120.0,0.0,0.0
320,66.0,124.0,120.0,0.0,0.0
321,69.0,128.0,120.0,0.0,0.0
322,63.0,128.0,120.0,0.0,0.0
323,33.0,4.0,750.0,0.0,0.0
324,45.0,0.0,750.0,0.0,0.0
325,75.0,0.0,750.0,0.0,0.0
326,65.0,128.0,120.0,0.0,0.0
327,72.0,128.0,120.0,0.0,0.0
328,63.0,128.0,120.0,0.0,0.0
329,65.0,124.0,120.0,0.0,0.0
330,72.0,128.0,120.0,0.0,0.0
331,46.0,0.0,750.0,0.0,0.0
332,61.0,128.0,120.0,0.0,0.0
333,34.0,0.0,750.0,0.0,0.0
334,73.0,4.0,750.0,0.0,0.0
335,65.0,128.0,120.0,0.0,0.0
336,70.0,128.0,120.0,0.0,0.0
337,61.0,128.0,120.0,0.0,0.0
338,65.0,124.0,120.0,0.0,0.0
339,70.0,128.0,120.0,0.0,0.0
340,51.0,4.0,750.0,0.0,0.0
341,59.0,128.0,120.0,0.0,0.0
342,39.0,0.0,750.0,0.0,0.0
343,71.0,0.0,750.0,0.0,0.0
344,63.0,128.0,120.0,0.0,0.0
345,66.0,128.0,120.0,0.0,0.0
346,59.0,128.0,120.0,0.0,0.0
347,63.0,124.0,120.0,0.0,0.0
348,66.0,128.0,120.0,0.0,0.0
349,70.0,4.0,750.0,0.0,0.0
350,40.0,0.0,750.0,0.0,0.0
351,58.0,128.0,120.0,0.0,0.0
352,52.0,0.0,750.0,0.0,0.0
353,61.0,128.0,120.0,0.0,0.0
354,67.0,128.0,120.0,0.0,0.0
355,58.0,128.0,120.0,0.0,0.0
356,61.0,124.0,120.0,0.0,0.0
357,67.0,128.0,120.0,0.0,0.0
358,53.0,128.0,120.0,0.0,0.0
359,41.0,4.0,750.0,0.0,0.0
360,65.0,0.0,750.0,0.0,0.0
361,58.0,128.0,120.0,0.0,0.0
362,61.0,128.0,120.0,0.0,0.0
363,53.0,128.0,120.0,0.0,0.0
364,58.0,124.0,120.0,0.0,0.0
365,61.0,128.0,120.0,0.0,0.0
366,53.0,128.0,120.0,0.0,0.0
367,41.0,0.0,390.0,0.0,0.0
368,65.0,4.0,390.0,0.0,0.0
369,58.0,124.0,120.0,0.0,0.0
370,60.0,128.0,120.0,0.0,0.0
371,41.0,0.0,120.0,0.0,0.0
372,53.0,128.0,120.0,0.0,0.0
373,65.0,4.0,390.0,0.0,0.0
374,57.0,124.0,120.0,0.0,0.0
375,60.0,128.0,120.0,0.0,0.0
376,34.0,0.0,1530.0,0.0,0.0
377,41.0,4.0,1530.0,0.0,0.0
378,46.0,0.0,1530.0,0.0,0.0
379,58.0,128.0,120.0,0.0,0.0
380,61.0,128.0,120.0,0.0,0.0
381,65.0,128.0,120.0,0.0,0.0
382,61.0,128.0,120.0,0.0,0.0
383,65.0,128.0,120.0,0.0,0.0
384,70.0,128.0,120.0,0.0,0.0
385,65.0,128.0,120.0,0.0,0.0
386,70.0,128.0,120.0,0.0,0.0
387,73.0,128.0,120.0,0.0,0.0
388,65.0,128.0,120.0,0.0,0.0
389,77.0,92.0,300.0,0.0,0.0
390,70.0,32.0,120.0,0.0,0.0
391,73.0,0.0,120.0,0.0,0.0
392,53.0,0.0,1530.0,0.0,0.0
393,65.0,124.0,120.0,0.0,0.0
394,77.0,132.0,15.0,0.0,0.0
395,45.0,4.0,1530.0,0.0,0.0
396,57.0,0.0,1530.0,0.0,0.0
397,72.0,128.0,120.0,0.0,0.0
398,75.0,128.0,120.0,0.0,0.0
399,65.0,128.0,120.0,0.0,0.0
400,72.0,124.0,120.0,0.0,0.0
401,75.0,128.0,120.0,0.0,0.0
402,65.0,128.0,120.0,0.0,0.0
403,72.0,128.0,120.0,0.0,0.0
404,75.0,128.0,120.0,0.0,0.0
405,65.0,128.0,120.0,0.0,0.0
406,77.0,92.0,300.0,0.0,0.0
407,72.0,32.0,120.0,0.0,0.0
408,75.0,0.0,120.0,0.0,0.0
409,65.0,128.0,120.0,0.0,0.0
410,77.0,128.0,15.0,0.0,0.0
411,58.0,0.0,750.0,0.0,0.0
412,46.0,0.0,750.0,0.0,0.0
413,70.0,128.0,120.0,0.0,0.0
414,73.0,256.0,120.0,0.0,0.0
415,65.0,4.0,390.0,0.0,0.0
416,70.0,124.0,120.0,0.0,0.0
417,73.0,128.0,120.0,0.0,0.0
418,43.0,0.0,390.0,0.0,0.0
419,55.0,0.0,390.0,0.0,0.0
420,64.0,128.0,120.0,0.0,0.0
421,76.0,4.0,390.0,0.0,0.0
422,70.0,124.0,120.0,0.0,0.0
423,73.0,128.0,120.0,0.0,0.0
424,53.0,4.0,390.0,0.0,0.0
425,41.0,0.0,390.0,0.0,0.0
426,65.0,128.0,120.0,0.0,0.0
427,77.0,0.0,390.0,0.0,0.0
428,70.0,124.0,120.0,0.0,0.0
429,73.0,128.0,120.0,0.0,0.0
430,79.0,0.0,1140.0,0.0,64.0
431,67.0,128.0,120.0,0.0,64.0
432,52.0,0.0,1140.0,0.0,0.0
433,40.0,0.0,1140.0,0.0,0.0
434,48.0,4.0,1140.0,0.0,0.0
435,70.0,128.0,120.0,0.0,0.0
436,72.0,128.0,120.0,0.0,0.0
437,67.0,128.0,120.0,0.0,0.0
438,70.0,128.0,120.0,0.0,0.0
439,72.0,128.0,120.0,0.0,0.0
440,67.0,128.0,120.0,0.0,0.0
441,70.0,124.0,120.0,0.0,0.0
442,72.0,128.0,120.0,0.0,0.0
443,67.0,128.0,120.0,0.0,0.0
444,79.0,4.0,390.0,0.0,0.0
445,40.0,0.0,390.0,0.0,0.0
446,52.0,0.0,390.0,0.0,0.0
447,48.0,0.0,390.0,0.0,0.0
448,70.0,124.0,120.0,0.0,0.0
449,72.0,128.0,120.0,0.0,0.0
450,41.0,0.0,750.0,0.0,0.0
451,48.0,0.0,750.0,0.0,0.0
452,53.0,4.0,750.0,0.0,0.0
453,68.0,128.0,120.0,0.0,0.0
454,80.0,0.0,1140.0,0.0,0.0
455,72.0,128.0,120.0,0.0,0.0
456,77.0,128.0,120.0,0.0,0.0
457,68.0,128.0,120.0,0.0,0.0
458,72.0,124.0,120.0,0.0,0.0
459,77.0,128.0,120.0,0.0,0.0
460,46.0,4.0,390.0,0.0,0.0
461,67.0,128.0,120.0,0.0,0.0
462,79.0,0.0,390.0,0.0,0.0
463,34.0,0.0,390.0,0.0,0.0
464,70.0,124.0,120.0,0.0,0.0
465,73.0,128.0,120.0,0.0,0.0
466,65.0,128.0,120.0,0.0,0.0
467,47.0,0.0,390.0,0.0,0.0
468,35.0,0.0,390.0,0.0,0.0
469,77.0,4.0,390.0,0.0,0.0
470,68.0,124.0,120.0,0.0,0.0
471,74.0,256.0,120.0,0.0,0.0
472,36.0,0.0,1530.0,0.0,64.0
473,76.0,4.0,390.0,0.0,64.0
474,48.0,0.0,1530.0,0.0,0.0
475,64.0,124.0,120.0,0.0,0.0
476,67.0,256.0,120.0,0.0,0.0
477,72.0,4.0,390.0,0.0,0.0
478,64.0,124.0,120.0,0.0,0.0
479,67.0,252.0,120.0,0.0,0.0
480,73.0,4.0,390.0,0.0,0.0
481,64.0,128.0,120.0,0.0,0.0
482,67.0,252.0,120.0,0.0,0.0
483,70.0,4.0,390.0,0.0,0.0
484,64.0,128.0,120.0,0.0,0.0
485,67.0,256.0,120.0,0.0,0.0
486,36.0,0.0,1530.0,0.0,0.0
487,48.0,0.0,1530.0,0.0,0.0
488,52.0,128.0,120.0,0.0,0.0
489,55.0,256.0,120.0,0.0,0.0
490,60.0,4.0,390.0,0.0,0.0
491,52.0,124.0,120.0,0.0,0.0
492,55.0,252.0,120.0,0.0,0.0
493,61.0,4.0,390.0,0.0,0.0
494,52.0,128.0,120.0,0.0,0.0
495,55.0,256.0,120.0,0.0,0.0
496,58.0,4.0,390.0,0.0,0.0
497,52.0,124.0,120.0,0.0,0.0
498,55.0,128.0,120.0,0.0,0.0
499,36.0,4.0,1530.0,0.0,64.0
500,48.0,0.0,1530.0,0.0,64.0
501,56.0,128.0,120.0,0.0,64.0
502,68.0,124.0,120.0,0.0,0.0
503,72.0,260.0,120.0,0.0,0.0
504,77.0,4.0,390.0,0.0,0.0
505,68.0,124.0,120.0,0.0,0.0
506,72.0,256.0,120.0,0.0,0.0
507,80.0,4.0,390.0,0.0,0.0
508,68.0,124.0,120.0,0.0,0.0
509,72.0,252.0,120.0,0.0,0.0
510,77.0,0.0,390.0,0.0,0.0
511,68.0,128.0,120.0,0.0,0.0
512,72.0,256.0,120.0,0.0,0.0
513,36.0,4.0,1530.0,0.0,0.0
514,48.0,0.0,1530.0,0.0,0.0
515,56.0,128.0,120.0,0.0,0.0
516,60.0,256.0,120.0,0.0,0.0
517,65.0,4.0,390.0,0.0,0.0
518,56.0,124.0,120.0,0.0,0.0
519,60.0,256.0,120.0,0.0,0.0
520,68.0,4.0,390.0,0.0,0.0
521,56.0,124.0,120.0,0.0,0.0
522,60.0,256.0,120.0,0.0,0.0
523,65.0,0.0,390.0,0.0,0.0
524,56.0,124.0,120.0,0.0,0.0
525,60.0,128.0,120.0,0.0,0.0
526,48.0,4.0,1530.0,0.0,64.0
527,36.0,0.0,1530.0,0.0,0.0
528,55.0,128.0,120.0,0.0,0.0
529,61.0,128.0,120.0,0.0,0.0
530,58.0,128.0,120.0,0.0,0.0
531,64.0,128.0,120.0,0.0,0.0
532,61.0,128.0,120.0,0.0,0.0
533,67.0,128.0,120.0,0.0,0.0
534,64.0,128.0,120.0,0.0,0.0
535,70.0,128.0,120.0,0.0,0.0
536,67.0,128.0,120.0,0.0,0.0
537,73.0,128.0,120.0,0.0,0.0
538,70.0,124.0,120.0,0.0,0.0
539,76.0,128.0,120.0,0.0,0.0
540,36.0,4.0,1530.0,0.0,0.0
541,48.0,0.0,1530.0,0.0,0.0
542,56.0,128.0,120.0,0.0,0.0
543,65.0,128.0,120.0,0.0,0.0
544,60.0,128.0,120.0,0.0,0.0
545,68.0,128.0,120.0,0.0,0.0
546,65.0,128.0,120.0,0.0,0.0
547,72.0,128.0,120.0,0.0,0.0
548,68.0,128.0,120.0,0.0,0.0
549,77.0,128.0,120.0,0.0,0.0
550,72.0,128.0,120.0,0.0,0.0
551,80.0,128.0,120.0,0.0,0.0
552,77.0,124.0,120.0,0.0,0.0
553,72.0,128.0,120.0,0.0,0.0
554,48.0,4.0,1530.0,0.0,64.0
555,65.0,128.0,120.0,0.0,0.0
556,36.0,0.0,1530.0,0.0,64.0
557,71.0,128.0,120.0,0.0,0.0
558,68.0,128.0,120.0,0.0,0.0
559,74.0,128.0,120.0,0.0,0.0
560,71.0,128.0,120.0,0.0,0.0
561,77.0,128.0,120.0,0.0,0.0
562,74.0,128.0,120.0,0.0,0.0
563,80.0,128.0,120.0,0.0,0.0
564,77.0,128.0,120.0,0.0,0.0
565,83.0,128.0,120.0,0.0,0.0
566,80.0,124.0,120.0,0.0,0.0
567,86.0,128.0,120.0,0.0,0.0
568,70.0,128.0,120.0,0.0,0.0
569,36.0,0.0,4590.0,0.0,64.0
570,48.0,4.0,4590.0,0.0,64.0
571,76.0,128.0,120.0,0.0,0.0
572,73.0,128.0,120.0,0.0,0.0
573,79.0,128.0,120.0,0.0,0.0
574,76.0,128.0,120.0,0.0,0.0
575,82.0,128.0,120.0,0.0,0.0
576,79.0,128.0,120.0,0.0,0.0
577,85.0,128.0,120.0,0.0,0.0
578,82.0,128.0,120.0,0.0,0.0
579,88.0,128.0,120.0,0.0,0.0
580,85.0,128.0,120.0,0.0,0.0
581,91.0,128.0,120.0,0.0,64.0
582,88.0,128.0,120.0,0.0,0.0
583,82.0,128.0,120.0,0.0,0.0
584,85.0,128.0,120.0,0.0,0.0
585,79.0,128.0,120.0,0.0,0.0
586,82.0,128.0,120.0,0.0,0.0
587,76.0,128.0,120.0,0.0,0.0
588,79.0,128.0,120.0,0.0,0.0
589,73.0,128.0,120.0,0.0,0.0
590,76.0,128.0,120.0,0.0,0.0
591,70.0,128.0,120.0,0.0,0.0
592,73.0,128.0,120.0,0.0,0.0
593,67.0,128.0,120.0,0.0,64.0
594,70.0,128.0,120.0,0.0,0.0
595,64.0,128.0,120.0,0.0,0.0
596,67.0,128.0,120.0,0.0,0.0
597,61.0,128.0,120.0,0.0,0.0
598,64.0,128.0,120.0,0.0,0.0
599,58.0,128.0,120.0,0.0,0.0
600,61.0,256.0,120.0,0.0,0.0
601,55.0,256.0,270.0,0.0,0.0
602,58.0,0.0,120.0,0.0,0.0
603,53.0,124.0,270.0,0.0,0.0
604,58.0,0.0,120.0,0.0,0.0
605,61.0,256.0,120.0,0.0,0.0
606,52.0,4.0,750.0,0.0,0.0
607,36.0,0.0,1530.0,0.0,0.0
608,48.0,0.0,1530.0,0.0,0.0
609,58.0,128.0,120.0,0.0,0.0
610,60.0,128.0,120.0,0.0,0.0
611,61.0,128.0,120.0,0.0,0.0
612,60.0,124.0,120.0,0.0,0.0
613,58.0,256.0,120.0,0.0,0.0
614,55.0,4.0,390.0,0.0,0.0
615,58.0,124.0,120.0,0.0,0.0
616,61.0,256.0,120.0,0.0,0.0
617,53.0,4.0,390.0,0.0,0.0
618,58.0,124.0,120.0,0.0,0.0
619,61.0,256.0,120.0,0.0,0.0
620,48.0,0.0,1530.0,0.0,0.0
621,36.0,4.0,1530.0,0.0,0.0
622,52.0,4.0,750.0,0.0,0.0
623,58.0,128.0,120.0,0.0,0.0
624,60.0,128.0,120.0,0.0,0.0
625,61.0,128.0,120.0,0.0,0.0
626,60.0,124.0,120.0,0.0,0.0
627,58.0,256.0,120.0,0.0,0.0
628,54.0,4.0,390.0,0.0,0.0
629,58.0,124.0,120.0,0.0,0.0
630,61.0,256.0,120.0,0.0,0.0
631,53.0,0.0,390.0,0.0,0.0
632,58.0,124.0,120.0,0.0,0.0
633,61.0,256.0,120.0,0.0,0.0
634,48.0,4.0,750.0,0.0,64.0
635,36.0,0.0,750.0,0.0,64.0
636,52.0,0.0,750.0,0.0,64.0
637,58.0,128.0,120.0,0.0,0.0
638,60.0,128.0,120.0,0.0,0.0
639,61.0,128.0,120.0,0.0,0.0
640,60.0,124.0,120.0,0.0,0.0
641,58.0,256.0,120.0,0.0,0.0
642,53.0,4.0,390.0,0.0,0.0
643,37.0,4.0,750.0,0.0,0.0
644,49.0,0.0,750.0,0.0,0.0
645,56.0,124.0,120.0,0.0,0.0
646,65.0,128.0,120.0,0.0,0.0
647,53.0,128.0,120.0,0.0,0.0
648,56.0,124.0,120.0,0.0,0.0
649,65.0,128.0,120.0,0.0,0.0
650,46.0,4.0,750.0,0.0,64.0
651,34.0,0.0,750.0,0.0,0.0
652,55.0,128.0,120.0,0.0,64.0
653,61.0,128.0,120.0,0.0,0.0
654,65.0,128.0,120.0,0.0,0.0
655,55.0,124.0,120.0,0.0,0.0
656,61.0,128.0,120.0,0.0,0.0
657,65.0,128.0,120.0,0.0,0.0
658,36.0,0.0,750.0,0.0,0.0
659,48.0,4.0,750.0,0.0,0.0
660,55.0,128.0,120.0,0.0,0.0
661,60.0,128.0,120.0,0.0,0.0
662,64.0,128.0,120.0,0.0,0.0
663,55.0,128.0,120.0,0.0,0.0
664,58.0,124.0,120.0,0.0,0.0
665,64.0,128.0,120.0,0.0,0.0
666,41.0,0.0,1530.0,0.0,0.0
667,48.0,4.0,1530.0,0.0,0.0
668,56.0,128.0,120.0,0.0,0.0
669,53.0,0.0,1530.0,0.0,0.0
670,60.0,128.0,120.0,0.0,0.0
671,65.0,128.0,120.0,0.0,0.0
672,60.0,128.0,120.0,0.0,0.0
673,65.0,128.0,120.0,0.0,0.0
674,68.0,128.0,120.0,0.0,0.0
675,60.0,128.0,120.0,0.0,0.0
676,65.0,128.0,120.0,0.0,0.0
677,68.0,128.0,120.0,0.0,0.0
678,60.0,128.0,120.0,0.0,0.0
679,65.0,32.0,120.0,0.0,0.0
680,68.0,128.0,120.0,0.0,0.0
681,72.0,92.0,15.0,0.0,0.0
682,72.0,4.0,1140.0,0.0,0.0
683,48.0,4.0,1530.0,0.0,0.0
684,60.0,128.0,120.0,0.0,0.0
685,52.0,0.0,1530.0,0.0,0.0
686,40.0,0.0,1530.0,0.0,0.0
687,67.0,128.0,120.0,0.0,0.0
688,70.0,128.0,120.0,0.0,0.0
689,60.0,128.0,120.0,0.0,0.0
690,67.0,128.0,120.0,0.0,0.0
691,70.0,128.0,120.0,0.0,0.0
692,60.0,128.0,120.0,0.0,0.0
693,67.0,124.0,120.0,0.0,0.0
694,70.0,128.0,120.0,0.0,0.0
695,60.0,128.0,120.0,0.0,0.0
696,67.0,32.0,120.0,0.0,0.0
697,70.0,128.0,120.0,0.0,0.0
698,72.0,92.0,15.0,0.0,0.0
699,72.0,4.0,750.0,0.0,0.0
700,60.0,128.0,120.0,0.0,0.0
701,53.0,0.0,750.0,0.0,0.0
702,41.0,0.0,750.0,0.0,0.0
703,65.0,128.0,120.0,0.0,0.0
704,68.0,128.0,120.0,0.0,0.0
705,60.0,128.0,120.0,0.0,0.0
706,65.0,124.0,120.0,0.0,0.0
707,68.0,128.0,120.0,0.0,0.0
708,46.0,0.0,750.0,0.0,0.0
709,73.0,4.0,750.0,0.0,0.0
710,61.0,128.0,120.0,0.0,0.0
711,34.0,0.0,750.0,0.0,0.0
712,65.0,128.0,120.0,0.0,0.0
713,70.0,128.0,120.0,0.0,0.0
714,61.0,128.0,120.0,0.0,0.0
715,65.0,124.0,120.0,0.0,0.0
716,70.0,128.0,120.0,0.0,0.0
717,60.0,128.0,120.0,0.0,0.0
718,72.0,0.0,750.0,0.0,64.0
719,51.0,0.0,750.0,0.0,0.0
720,39.0,4.0,750.0,0.0,0.0
721,63.0,128.0,120.0,0.0,0.0
722,68.0,128.0,120.0,0.0,0.0
723,60.0,128.0,120.0,0.0,0.0
724,63.0,124.0,120.0,0.0,0.0
725,68.0,128.0,120.0,0.0,0.0
726,61.0,128.0,120.0,0.0,0.0
727,70.0,4.0,390.0,0.0,0.0
728,51.0,4.0,750.0,0.0,0.0
729,39.0,0.0,750.0,0.0,0.0
730,63.0,124.0,120.0,0.0,0.0
731,67.0,128.0,120.0,0.0,0.0
732,61.0,128.0,150.0,0.0,0.0
733,75.0,0.0,390.0,0.0,0.0
734,63.0,124.0,120.0,0.0,0.0
735,67.0,128.0,120.0,0.0,0.0
736,44.0,4.0,1530.0,0.0,0.0
737,56.0,0.0,1530.0,0.0,0.0
738,60.0,128.0,120.0,0.0,0.0
739,63.0,0.0,120.0,0.0,0.0
740,68.0,128.0,15.0,0.0,0.0
741,63.0,128.0,120.0,0.0,0.0
742,68.0,128.0,120.0,0.0,0.0
743,72.0,128.0,120.0,0.0,0.0
744,63.0,128.0,120.0,0.0,0.0
745,68.0,128.0,120.0,0.0,0.0
746,72.0,128.0,120.0,0.0,0.0
747,63.0,128.0,120.0,0.0,0.0
748,75.0,92.0,300.0,0.0,0.0
749,68.0,32.0,120.0,0.0,0.0
750,72.0,128.0,120.0,0.0,0.0
751,75.0,0.0,90.0,0.0,0.0
752,55.0,0.0,1530.0,0.0,0.0
753,43.0,4.0,1530.0,0.0,0.0
754,63.0,128.0,120.0,0.0,0.0
755,75.0,4.0,1140.0,0.0,0.0
756,70.0,128.0,120.0,0.0,0.0
757,73.0,128.0,120.0,0.0,0.0
758,63.0,128.0,120.0,0.0,0.0
759,70.0,128.0,120.0,0.0,0.0
760,73.0,128.0,120.0,0.0,0.0
761,63.0,128.0,120.0,0.0,0.0
762,70.0,124.0,120.0,0.0,0.0
763,73.0,128.0,120.0,0.0,0.0
764,75.0,92.0,300.0,0.0,0.0
765,63.0,128.0,120.0,0.0,0.0
766,70.0,32.0,120.0,0.0,0.0
767,73.0,128.0,120.0,0.0,0.0
768,75.0,0.0,90.0,0.0,0.0
769,44.0,0.0,750.0,0.0,0.0
770,56.0,0.0,750.0,0.0,0.0
771,63.0,124.0,120.0,0.0,0.0
772,75.0,4.0,750.0,0.0,0.0
773,68.0,132.0,120.0,0.0,0.0
774,72.0,128.0,120.0,0.0,0.0
775,63.0,124.0,120.0,0.0,0.0
776,68.0,128.0,120.0,0.0,0.0
777,72.0,128.0,120.0,0.0,0.0
778,55.0,0.0,390.0,0.0,0.0
779,43.0,4.0,390.0,0.0,0.0
780,64.0,128.0,120.0,0.0,0.0
781,76.0,0.0,390.0,0.0,0.0
782,70.0,124.0,120.0,0.0,0.0
783,72.0,132.0,120.0,0.0,0.0
784,41.0,0.0,390.0,0.0,0.0
785,53.0,4.0,390.0,0.0,0.0
786,77.0,0.0,390.0,0.0,0.0
787,65.0,124.0,120.0,0.0,0.0
788,68.0,124.0,120.0,0.0,0.0
789,72.0,128.0,120.0,0.0,0.0
790,79.0,0.0,750.0,0.0,64.0
791,67.0,128.0,120.0,0.0,0.0
792,48.0,0.0,750.0,0.0,0.0
793,52.0,4.0,750.0,0.0,0.0
794,40.0,0.0,750.0,0.0,0.0
795,70.0,128.0,120.0,0.0,0.0
796,72.0,128.0,120.0,0.0,0.0
797,67.0,128.0,120.0,0.0,0.0
798,70.0,124.0,120.0,0.0,0.0
799,72.0,128.0,120.0,0.0,0.0
800,41.0,4.0,390.0,0.0,0.0
801,53.0,0.0,390.0,0.0,0.0
802,48.0,0.0,390.0,0.0,0.0
803,80.0,4.0,750.0,0.0,0.0
804,68.0,128.0,120.0,0.0,0.0
805,72.0,124.0,120.0,0.0,0.0
806,77.0,128.0,120.0,0.0,0.0
807,68.0,128.0,120.0,0.0,0.0
808,72.0,124.0,120.0,0.0,0.0
809,77.0,128.0,120.0,0.0,0.0
810,78.0,4.0,750.0,0.0,0.0
811,66.0,128.0,120.0,0.0,0.0
812,46.0,0.0,750.0,0.0,0.0
813,34.0,0.0,750.0,0.0,0.0
814,70.0,128.0,120.0,0.0,0.0
815,73.0,128.0,120.0,0.0,0.0
816,66.0,128.0,120.0,0.0,0.0
817,70.0,124.0,120.0,0.0,0.0
818,73.0,128.0,120.0,0.0,0.0
819,36.0,4.0,750.0,0.0,0.0
820,48.0,0.0,750.0,0.0,0.0
821,64.0,128.0,120.0,0.0,0.0
822,76.0,0.0,750.0,0.0,0.0
823,70.0,128.0,120.0,0.0,0.0
824,72.0,128.0,120.0,0.0,0.0
825,64.0,128.0,120.0,0.0,0.0
826,70.0,124.0,120.0,0.0,0.0
827,72.0,128.0,120.0,0.0,0.0
828,77.0,4.0,1140.0,0.0,64.0
829,65.0,128.0,120.0,0.0,0.0
830,41.0,0.0,1920.0,0.0,64.0
831,53.0,4.0,1920.0,0.0,64.0
832,68.0,128.0,120.0,0.0,0.0
833,72.0,128.0,120.0,0.0,0.0
834,65.0,128.0,120.0,0.0,0.0
835,68.0,128.0,120.0,0.0,0.0
836,72.0,128.0,120.0,0.0,0.0
837,65.0,128.0,120.0,0.0,0.0
838,69.0,124.0,120.0,0.0,0.0
839,72.0,128.0,120.0,0.0,0.0
840,77.0,4.0,390.0,0.0,0.0
841,65.0,128.0,120.0,0.0,0.0
842,69.0,124.0,120.0,0.0,0.0
843,72.0,124.0,120.0,0.0,0.0
844,65.0,132.0,150.0,0.0,64.0
845,78.0,0.0,1140.0,0.0,0.0
846,70.0,124.0,120.0,0.0,0.0
847,73.0,128.0,120.0,0.0,0.0
848,65.0,128.0,120.0,0.0,0.0
849,46.0,4.0,390.0,0.0,0.0
850,58.0,0.0,390.0,0.0,0.0
851,70.0,124.0,120.0,0.0,0.0
852,73.0,128.0,120.0,0.0,0.0
853,61.0,0.0,390.0,0.0,0.0
854,49.0,4.0,390.0,0.0,0.0
855,65.0,128.0,120.0,0.0,0.0
856,70.0,124.0,120.0,0.0,0.0
857,73.0,128.0,120.0,0.0,0.0
858,65.0,128.0,120.0,0.0,0.0
859,58.0,0.0,390.0,0.0,0.0
860,46.0,0.0,390.0,0.0,0.0
861,76.0,4.0,390.0,0.0,0.0
862,70.0,124.0,120.0,0.0,0.0
863,73.0,128.0,120.0,0.0,0.0
864,77.0,4.0,1140.0,0.0,0.0
865,65.0,128.0,120.0,0.0,0.0
866,53.0,0.0,1920.0,0.0,64.0
867,41.0,4.0,1920.0,0.0,64.0
868,69.0,128.0,120.0,0.0,0.0
869,72.0,128.0,120.0,0.0,0.0
870,65.0,128.0,120.0,0.0,0.0
871,69.0,128.0,120.0,0.0,0.0
872,72.0,128.0,120.0,0.0,0.0
873,65.0,128.0,120.0,0.0,0.0
874,69.0,124.0,120.0,0.0,0.0
875,72.0,128.0,120.0,0.0,0.0
876,65.0,128.0,120.0,0.0,0.0
877,77.0,4.0,390.0,0.0,0.0
878,69.0,124.0,120.0,0.0,0.0
879,72.0,124.0,120.0,0.0,0.0
880,65.0,132.0,150.0,0.0,64.0
881,78.0,4.0,1140.0,0.0,64.0
882,70.0,124.0,120.0,0.0,0.0
883,73.0,128.0,120.0,0.0,0.0
884,65.0,128.0,120.0,0.0,0.0
885,58.0,4.0,390.0,0.0,0.0
886,46.0,0.0,390.0,0.0,0.0
887,70.0,124.0,120.0,0.0,0.0
888,73.0,128.0,120.0,0.0,0.0
889,61.0,0.0,390.0,0.0,0.0
890,65.0,128.0,120.0,0.0,0.0
891,49.0,0.0,390.0,0.0,0.0
892,70.0,124.0,120.0,0.0,0.0
893,73.0,128.0,120.0,0.0,0.0
894,46.0,0.0,390.0,0.0,0.0
895,58.0,4.0,390.0,0.0,0.0
896,65.0,128.0,120.0,0.0,0.0
897,76.0,0.0,390.0,0.0,0.0
898,70.0,124.0,120.0,0.0,0.0
899,73.0,128.0,120.0,0.0,0.0
900,53.0,0.0,750.0,0.0,0.0
901,41.0,0.0,750.0,0.0,0.0
902,77.0,4.0,750.0,0.0,0.0
903,65.0,128.0,120.0,0.0,0.0
904,69.0,128.0,120.0,0.0,0.0
905,72.0,128.0,120.0,0.0,0.0
906,65.0,128.0,120.0,0.0,0.0
907,69.0,124.0,120.0,0.0,0.0
908,72.0,128.0,120.0,0.0,0.0
909,34.0,4.0,750.0,0.0,0.0
910,65.0,128.0,120.0,0.0,0.0
911,77.0,0.0,750.0,0.0,0.0
912,46.0,0.0,750.0,0.0,0.0
913,70.0,128.0,120.0,0.0,0.0
914,73.0,128.0,120.0,0.0,0.0
915,65.0,128.0,120.0,0.0,0.0
916,70.0,124.0,120.0,0.0,0.0
917,73.0,128.0,120.0,0.0,0.0
918,75.0,0.0,1140.0,0.0,0.0
919,63.0,128.0,120.0,0.0,0.0
920,43.0,4.0,1140.0,0.0,0.0
921,55.0,0.0,1140.0,0.0,0.0
922,70.0,128.0,120.0,0.0,0.0
923,73.0,128.0,120.0,0.0,0.0
924,63.0,128.0,120.0,0.0,0.0
925,70.0,128.0,120.0,0.0,0.0
926,73.0,128.0,120.0,0.0,0.0
927,63.0,128.0,120.0,0.0,0.0
928,70.0,124.0,120.0,0.0,0.0
929,73.0,128.0,120.0,0.0,0.0
930,44.0,0.0,390.0,0.0,0.0
931,75.0,4.0,390.0,0.0,0.0
932,56.0,0.0,390.0,0.0,0.0
933,63.0,128.0,120.0,0.0,0.0
934,68.0,124.0,120.0,0.0,0.0
935,72.0,128.0,120.0,0.0,0.0
936,61.0,128.0,120.0,0.0,64.0
937,41.0,0.0,390.0,0.0,64.0
938,53.0,4.0,390.0,0.0,64.0
939,73.0,0.0,390.0,0.0,64.0
940,68.0,124.0,120.0,0.0,0.0
941,72.0,128.0,120.0,0.0,0.0
942,61.0,128.0,120.0,0.0,0.0
943,73.0,0.0,390.0,0.0,0.0
944,43.0,4.0,390.0,0.0,0.0
945,55.0,0.0,390.0,0.0,0.0
946,67.0,124.0,120.0,0.0,0.0
947,70.0,128.0,120.0,0.0,0.0
948,40.0,0.0,390.0,0.0,0.0
949,72.0,0.0,390.0,0.0,0.0
950,60.0,128.0,120.0,0.0,0.0
951,52.0,4.0,390.0,0.0,0.0
952,67.0,124.0,120.0,0.0,0.0
953,70.0,128.0,120.0,0.0,0.0
954,60.0,128.0,120.0,0.0,0.0
955,53.0,0.0,390.0,0.0,0.0
956,41.0,0.0,390.0,0.0,0.0
957,72.0,4.0,390.0,0.0,0.0
958,65.0,124.0,120.0,0.0,0.0
959,68.0,128.0,120.0,0.0,0.0
960,58.0,128.0,120.0,0.0,64.0
961,49.0,0.0,750.0,0.0,0.0
962,37.0,4.0,750.0,0.0,0.0
963,70.0,0.0,750.0,0.0,64.0
964,65.0,128.0,120.0,0.0,0.0
965,67.0,128.0,120.0,0.0,0.0
966,58.0,128.0,120.0,0.0,0.0
967,65.0,124.0,120.0,0.0,0.0
968,67.0,128.0,120.0,0.0,0.0
969,36.0,0.0,390.0,0.0,0.0
970,48.0,0.0,390.0,0.0,0.0
971,60.0,128.0,120.0,0.0,0.0
972,72.0,4.0,390.0,0.0,0.0
973,65.0,124.0,120.0,0.0,0.0
974,67.0,128.0,120.0,0.0,0.0
975,46.0,4.0,390.0,0.0,0.0
976,34.0,0.0,390.0,0.0,0.0
977,73.0,0.0,390.0,0.0,0.0
978,61.0,128.0,120.0,0.0,0.0
979,65.0,124.0,120.0,0.0,0.0
980,67.0,128.0,120.0,0.0,0.0
981,72.0,0.0,750.0,0.0,0.0
982,48.0,0.0,750.0,0.0,0.0
983,60.0,128.0,120.0,0.0,0.0
984,36.0,4.0,750.0,0.0,0.0
985,65.0,128.0,120.0,0.0,0.0
986,68.0,128.0,120.0,0.0,0.0
987,60.0,128.0,120.0,0.0,0.0
988,65.0,124.0,120.0,0.0,0.0
989,68.0,128.0,120.0,0.0,0.0
990,48.0,0.0,750.0,0.0,0.0
991,36.0,4.0,750.0,0.0,0.0
992,58.0,128.0,120.0,0.0,0.0
993,72.0,4.0,390.0,0.0,0.0
994,64.0,124.0,120.0,0.0,0.0
995,67.0,128.0,120.0,0.0,0.0
996,58.0,128.0,120.0,0.0,0.0
997,64.0,124.0,120.0,0.0,0.0
998,67.0,128.0,120.0,0.0,0.0
999,41.0,4.0,1530.0,0.0,0.0
1000,56.0,128.0,120.0,0.0,0.0
1001,48.0,4.0,1140.0,0.0,0.0
1002,60.0,124.0,120.0,0.0,0.0
1003,65.0,4.0,120.0,0.0,0.0
1004,60.0,128.0,120.0,0.0,0.0
1005,65.0,128.0,120.0,0.0,0.0
1006,68.0,128.0,120.0,0.0,0.0
1007,60.0,128.0,120.0,0.0,0.0
1008,65.0,124.0,120.0,0.0,0.0
1009,68.0,128.0,120.0,0.0,0.0
1010,60.0,128.0,120.0,0.0,0.0
1011,65.0,32.0,120.0,0.0,0.0
1012,68.0,128.0,120.0,0.0,0.0
1013,48.0,92.0,15.0,0.0,0.0
1014,48.0,0.0,15.0,0.0,0.0
1015,40.0,4.0,1530.0,0.0,0.0
1016,60.0,128.0,120.0,0.0,0.0
1017,67.0,128.0,120.0,0.0,0.0
1018,70.0,128.0,120.0,0.0,0.0
1019,60.0,128.0,120.0,0.0,0.0
1020,67.0,128.0,120.0,0.0,0.0
1021,70.0,128.0,120.0,0.0,0.0
1022,60.0,128.0,120.0,0.0,0.0
1023,67.0,124.0,120.0,0.0,0.0
1024,70.0,128.0,120.0,0.0,0.0
1025,60.0,128.0,120.0,0.0,0.0
1026,67.0,32.0,120.0,0.0,0.0
1027,70.0,0.0,120.0,0.0,0.0
1028,48.0,92.0,15.0,0.0,0.0
1029,41.0,4.0,1530.0,0.0,0.0
1030,60.0,128.0,120.0,0.0,0.0
1031,48.0,128.0,15.0,0.0,0.0
1032,68.0,128.0,120.0,0.0,0.0
1033,65.0,128.0,120.0,0.0,0.0
1034,72.0,128.0,120.0,0.0,0.0
1035,68.0,128.0,120.0,0.0,0.0
1036,77.0,128.0,120.0,0.0,0.0
1037,72.0,128.0,120.0,0.0,0.0
1038,80.0,124.0,120.0,0.0,0.0
1039,77.0,128.0,120.0,0.0,0.0
1040,84.0,128.0,120.0,0.0,0.0
1041,80.0,32.0,120.0,0.0,0.0
1042,77.0,128.0,120.0,0.0,0.0
1043,48.0,92.0,15.0,0.0,0.0
1044,48.0,0.0,15.0,0.0,0.0
1045,36.0,4.0,1140.0,0.0,0.0
1046,76.0,128.0,120.0,0.0,0.0
1047,79.0,128.0,120.0,0.0,0.0
1048,73.0,128.0,120.0,0.0,0.0
1049,76.0,128.0,120.0,0.0,0.0
1050,70.0,128.0,120.0,0.0,0.0
1051,73.0,128.0,120.0,0.0,0.0
1052,67.0,128.0,120.0,0.0,0.0
1053,70.0,124.0,120.0,0.0,0.0
1054,61.0,128.0,120.0,0.0,0.0
1055,64.0,128.0,120.0,0.0,0.0
1056,48.0,96.0,300.0,0.0,0.0
1057,60.0,32.0,120.0,0.0,0.0
1058,58.0,0.0,120.0,0.0,0.0
1059,48.0,128.0,90.0,0.0,0.0
1060,56.0,128.0,120.0,0.0,0.0
1061,48.0,0.0,1140.0,0.0,0.0
1062,65.0,0.0,120.0,0.0,0.0
1063,41.0,4.0,1140.0,0.0,0.0
1064,68.0,128.0,120.0,0.0,0.0
1065,65.0,128.0,120.0,0.0,0.0
1066,72.0,128.0,120.0,0.0,0.0
1067,68.0,128.0,120.0,0.0,0.0
1068,77.0,128.0,120.0,0.0,0.0
1069,72.0,128.0,120.0,0.0,0.0
1070,80.0,124.0,120.0,0.0,0.0
1071,77.0,128.0,120.0,0.0,0.0
1072,84.0,128.0,120.0,0.0,0.0
1073,80.0,32.0,120.0,0.0,0.0
1074,77.0,128.0,120.0,0.0,0.0
1075,48.0,96.0,15.0,0.0,0.0
1076,76.0,128.0,120.0,0.0,0.0
1077,36.0,4.0,1140.0,0.0,0.0
1078,48.0,0.0,1140.0,0.0,0.0
1079,79.0,128.0,120.0,0.0,0.0
1080,73.0,128.0,120.0,0.0,0.0
1081,76.0,128.0,120.0,0.0,0.0
1082,70.0,128.0,120.0,0.0,0.0
1083,73.0,128.0,120.0,0.0,0.0
1084,67.0,128.0,120.0,0.0,0.0
1085,70.0,124.0,120.0,0.0,0.0
1086,61.0,128.0,120.0,0.0,0.0
1087,64.0,128.0,120.0,0.0,0.0
1088,48.0,96.0,300.0,0.0,0.0
1089,60.0,32.0,120.0,0.0,0.0
1090,58.0,0.0,120.0,0.0,0.0
1091,48.0,128.0,90.0,0.0,0.0
1092,48.0,4.0,750.0,0.0,0.0
1093,56.0,128.0,120.0,0.0,0.0
1094,41.0,4.0,3060.0,0.0,64.0
1095,60.0,124.0,120.0,0.0,0.0
1096,65.0,4.0,120.0,0.0,0.0
1097,68.0,128.0,120.0,0.0,64.0
1098,65.0,124.0,120.0,0.0,0.0
1099,60.0,256.0,120.0,0.0,0.0
1100,53.0,4.0,750.0,0.0,0.0
1101,56.0,128.0,120.0,0.0,0.0
1102,60.0,128.0,120.0,0.0,0.0
1103,65.0,128.0,120.0,0.0,64.0
1104,60.0,124.0,120.0,0.0,64.0
1105,56.0,256.0,120.0,0.0,64.0
1106,48.0,4.0,390.0,0.0,64.0
1107,53.0,124.0,120.0,0.0,0.0
1108,56.0,128.0,120.0,0.0,0.0
1109,60.0,128.0,120.0,0.0,64.0
1110,56.0,128.0,120.0,0.0,64.0
1111,53.0,128.0,120.0,0.0,0.0
1112,48.0,128.0,120.0,0.0,0.0
1113,53.0,128.0,120.0,0.0,0.0
1114,48.0,128.0,120.0,0.0,0.0
1115,44.0,128.0,120.0,0.0,0.0
1116,48.0,124.0,120.0,0.0,0.0
1117,44.0,764.0,120.0,0.0,0.0
1118,41.0,768.0,750.0,0.0,64.0
1119,41.0,0.0,750.0,0.0,64.0
1120,48.0,0.0,750.0,0.0,64.0
1121,56.0,0.0,750.0,0.0,64.0
1122,60.0,0.0,750.0,0.0,64.0
1123,65.0,0.0,750.0,0.0,64.0
1124,53.0,1536.0,750.0,0.0,64.0
1125,60.0,0.0,1530.0,0.0,0.0
1126,56.0,0.0,1530.0,0.0,0.0
1127,48.0,0.0,1530.0,0.0,0.0
1128,53.0,0.0,1530.0,0.0,0.0
1129,41.0,0.0,1530.0,0.0,0.0
1130,65.0,0.0,1530.0,0.0,0.0
