,note,step,duration,channel,velocity
0,72.0,160,30,0.0,0.0
1,72.0,48,60,0.0,0.0
2,76.0,192,60,0.0,0.0
3,36.0,304,60,1.0,0.0
4,72.0,160,180,0.0,0.0
5,67.0,32,150,1.0,0.0
6,64.0,0,150,1.0,0.0
7,62.0,32,150,1.0,0.0
8,65.0,0,150,1.0,0.0
9,71.0,160,180,0.0,0.0
10,72.0,80,150,0.0,0.0
11,60.0,0,150,1.0,0.0
12,64.0,0,150,1.0,0.0
13,62.0,0,60,1.0,0.0
14,55.0,0,60,1.0,0.0
15,67.0,0,60,0.0,0.0
16,74.0,0,60,0.0,0.0
17,59.0,192,60,1.0,0.0
18,62.0,0,60,1.0,0.0
19,59.0,0,60,1.0,0.0
20,55.0,0,60,1.0,0.0
21,74.0,0,60,0.0,0.0
22,67.0,192,60,0.0,0.0
23,62.0,0,60,1.0,0.0
24,55.0,0,60,1.0,0.0
25,59.0,192,60,1.0,0.0
26,74.0,0,60,0.0,0.0
27,67.0,0,60,0.0,0.0
28,74.0,0,60,0.0,0.0
29,55.0,0,60,1.0,0.0
30,67.0,560,60,0.0,0.0
31,62.0,0,60,1.0,0.0
32,59.0,0,60,1.0,0.0
33,74.0,158,30,0.0,0.0
34,74.0,50,60,0.0,0.0
35,77.0,192,60,0.0,0.0
36,38.0,336,60,1.0,0.0
37,65.0,0,180,1.0,0.0
38,74.0,0,180,0.0,0.0
39,69.0,192,180,1.0,0.0
40,64.0,0,180,1.0,0.0
41,67.0,160,180,1.0,0.0
42,73.0,0,180,0.0,0.0
43,74.0,0,150,0.0,0.0
44,62.0,0,150,1.0,0.0
45,65.0,80,150,1.0,0.0
46,61.0,0,60,1.0,0.0
47,64.0,0,60,1.0,0.0
48,76.0,192,60,0.0,0.0
49,69.0,0,60,0.0,0.0
50,57.0,0,60,1.0,0.0
51,76.0,0,60,0.0,0.0
52,69.0,0,60,0.0,0.0
53,57.0,192,60,1.0,0.0
54,61.0,0,60,1.0,0.0
55,64.0,0,60,1.0,0.0
56,76.0,192,60,0.0,0.0
57,69.0,0,60,0.0,0.0
58,57.0,0,60,1.0,0.0
59,64.0,0,60,1.0,0.0
60,61.0,0,60,1.0,0.0
61,69.0,560,60,0.0,0.0
62,64.0,0,60,1.0,0.0
63,61.0,0,60,1.0,0.0
64,57.0,0,60,1.0,0.0
65,76.0,0,60,0.0,0.0
66,77.0,160,30,0.0,0.0
67,77.0,48,60,0.0,0.0
68,81.0,192,60,0.0,0.0
69,41.0,336,60,1.0,0.0
70,77.0,0,180,0.0,0.0
71,69.0,0,180,1.0,0.0
72,72.0,192,180,1.0,0.0
73,67.0,0,180,1.0,0.0
74,70.0,160,180,1.0,0.0
75,76.0,0,180,0.0,0.0
76,65.0,64,150,1.0,0.0
77,69.0,0,150,1.0,0.0
78,77.0,0,150,0.0,0.0
79,84.0,146,30,0.0,0.0
80,84.0,62,30,0.0,0.0
81,88.0,192,60,0.0,0.0
82,48.0,336,60,1.0,0.0
83,67.0,192,180,1.0,0.0
84,64.0,0,180,1.0,0.0
85,72.0,0,180,0.0,0.0
86,71.0,0,180,0.0,0.0
87,62.0,0,180,1.0,0.0
88,65.0,160,180,1.0,0.0
89,72.0,64,150,0.0,0.0
90,64.0,0,150,1.0,0.0
91,60.0,0,150,1.0,0.0
92,74.0,160,30,0.0,0.0
93,74.0,48,60,0.0,0.0
94,81.0,192,60,0.0,0.0
95,53.0,176,60,1.0,0.0
96,62.0,0,60,1.0,0.0
97,57.0,0,60,1.0,0.0
98,71.0,160,30,0.0,0.0
99,71.0,48,60,0.0,0.0
100,79.0,192,60,0.0,0.0
101,65.0,0,60,1.0,0.0
102,59.0,176,60,1.0,0.0
103,55.0,0,60,1.0,0.0
104,64.0,160,30,0.0,0.0
105,64.0,48,60,0.0,0.0
106,72.0,192,60,0.0,0.0
107,60.0,0,60,1.0,0.0
108,48.0,0,60,1.0,0.0
109,55.0,192,60,1.0,0.0
110,60.0,192,60,0.0,0.0
111,55.0,0,60,0.0,0.0
112,52.0,0,60,0.0,0.0
113,36.0,192,60,1.0,0.0
114,55.0,0,60,0.0,0.0
115,52.0,176,60,0.0,0.0
116,60.0,0,60,0.0,0.0
117,72.0,160,30,0.0,0.0
118,72.0,48,60,0.0,0.0
119,76.0,192,60,0.0,0.0
120,36.0,304,60,1.0,0.0
121,72.0,160,180,0.0,0.0
122,64.0,32,150,1.0,0.0
123,67.0,0,150,1.0,0.0
124,62.0,0,150,1.0,0.0
125,65.0,32,150,1.0,0.0
126,71.0,160,180,0.0,0.0
127,60.0,0,150,1.0,0.0
128,64.0,80,150,1.0,0.0
129,72.0,0,150,0.0,0.0
130,55.0,192,60,1.0,0.0
131,59.0,0,60,1.0,0.0
132,62.0,0,60,1.0,0.0
133,67.0,0,60,0.0,0.0
134,74.0,0,60,0.0,0.0
135,67.0,0,60,0.0,0.0
136,74.0,0,60,0.0,0.0
137,59.0,0,60,1.0,0.0
138,62.0,0,60,1.0,0.0
139,55.0,192,60,1.0,0.0
140,55.0,0,60,1.0,0.0
141,59.0,0,60,1.0,0.0
142,67.0,0,60,0.0,0.0
143,62.0,0,60,1.0,0.0
144,74.0,192,60,0.0,0.0
145,74.0,0,60,0.0,0.0
146,67.0,560,60,0.0,0.0
147,59.0,0,60,1.0,0.0
148,55.0,0,60,1.0,0.0
149,62.0,0,60,1.0,0.0
150,74.0,158,30,0.0,0.0
151,74.0,50,60,0.0,0.0
152,77.0,192,60,0.0,0.0
153,38.0,336,60,1.0,0.0
154,74.0,0,180,0.0,0.0
155,65.0,192,180,1.0,0.0
156,69.0,0,180,1.0,0.0
157,73.0,0,180,0.0,0.0
158,64.0,160,180,1.0,0.0
159,67.0,0,180,1.0,0.0
160,74.0,0,150,0.0,0.0
161,62.0,80,150,1.0,0.0
162,65.0,0,150,1.0,0.0
163,69.0,0,60,0.0,0.0
164,76.0,0,60,0.0,0.0
165,57.0,192,60,1.0,0.0
166,61.0,0,60,1.0,0.0
167,64.0,0,60,1.0,0.0
168,61.0,0,60,1.0,0.0
169,76.0,0,60,0.0,0.0
170,69.0,0,60,0.0,0.0
171,57.0,0,60,1.0,0.0
172,64.0,192,60,1.0,0.0
173,64.0,0,60,1.0,0.0
174,61.0,0,60,1.0,0.0
175,57.0,0,60,1.0,0.0
176,76.0,192,60,0.0,0.0
177,69.0,0,60,0.0,0.0
178,57.0,560,60,1.0,0.0
179,76.0,0,60,0.0,0.0
180,69.0,0,60,0.0,0.0
181,61.0,0,60,1.0,0.0
182,64.0,0,60,1.0,0.0
183,77.0,160,30,0.0,0.0
184,77.0,48,60,0.0,0.0
185,81.0,192,60,0.0,0.0
186,41.0,336,60,1.0,0.0
187,72.0,0,180,1.0,0.0
188,69.0,0,180,1.0,0.0
189,77.0,192,180,0.0,0.0
190,70.0,160,180,1.0,0.0
191,67.0,0,180,1.0,0.0
192,76.0,0,180,0.0,0.0
193,65.0,0,150,1.0,0.0
194,77.0,0,150,0.0,0.0
195,69.0,64,150,1.0,0.0
196,84.0,146,30,0.0,0.0
197,84.0,62,30,0.0,0.0
198,88.0,192,60,0.0,0.0
199,48.0,336,60,1.0,0.0
200,72.0,0,180,0.0,0.0
201,67.0,192,180,1.0,0.0
202,64.0,0,180,1.0,0.0
203,65.0,160,180,1.0,0.0
204,62.0,0,180,1.0,0.0
205,71.0,0,180,0.0,0.0
206,64.0,0,150,1.0,0.0
207,60.0,0,150,1.0,0.0
208,72.0,64,150,0.0,0.0
209,74.0,160,30,0.0,0.0
210,74.0,48,60,0.0,0.0
211,81.0,192,60,0.0,0.0
212,53.0,0,60,1.0,0.0
213,57.0,176,60,1.0,0.0
214,62.0,0,60,1.0,0.0
215,71.0,160,30,0.0,0.0
216,71.0,48,60,0.0,0.0
217,79.0,192,60,0.0,0.0
218,55.0,176,60,1.0,0.0
219,65.0,0,60,1.0,0.0
220,59.0,0,60,1.0,0.0
221,64.0,160,30,0.0,0.0
222,64.0,48,60,0.0,0.0
223,72.0,192,60,0.0,0.0
224,48.0,192,60,1.0,0.0
225,55.0,0,60,1.0,0.0
226,60.0,0,60,1.0,0.0
227,60.0,0,60,0.0,0.0
228,52.0,192,60,0.0,0.0
229,55.0,0,60,0.0,0.0
230,36.0,192,60,1.0,0.0
231,60.0,0,60,0.0,0.0
232,55.0,192,60,0.0,0.0
233,52.0,0,60,0.0,0.0
234,52.0,0,60,0.0,0.0
235,55.0,192,60,0.0,0.0
236,60.0,0,60,0.0,0.0
237,36.0,336,60,1.0,0.0
238,64.0,62,180,0.0,0.0
239,33.0,64,60,1.0,0.0
240,60.0,46,330,0.0,0.0
241,72.0,0,330,0.0,0.0
242,40.0,64,60,1.0,0.0
243,45.0,64,60,1.0,0.0
244,33.0,64,60,1.0,0.0
245,40.0,18,60,1.0,0.0
246,45.0,64,60,1.0,0.0
247,33.0,64,60,1.0,0.0
248,59.0,0,180,0.0,0.0
249,71.0,62,180,0.0,0.0
250,40.0,64,60,1.0,0.0
251,45.0,2,60,1.0,0.0
252,69.0,0,390,0.0,0.0
253,57.0,62,390,0.0,0.0
254,33.0,64,60,1.0,0.0
255,40.0,64,60,1.0,0.0
256,45.0,64,60,1.0,0.0
257,33.0,64,60,1.0,0.0
258,40.0,64,60,1.0,0.0
259,45.0,2,60,1.0,0.0
260,71.0,62,180,0.0,0.0
261,59.0,0,180,0.0,0.0
262,33.0,64,60,1.0,0.0
263,40.0,64,60,1.0,0.0
264,44.0,2,60,1.0,0.0
265,33.0,64,60,1.0,0.0
266,72.0,30,300,0.0,0.0
267,60.0,0,300,0.0,0.0
268,40.0,64,60,1.0,0.0
269,45.0,64,60,1.0,0.0
270,33.0,34,60,1.0,0.0
271,40.0,64,60,1.0,0.0
272,62.0,0,90,0.0,0.0
273,74.0,62,90,0.0,0.0
274,45.0,2,60,1.0,0.0
275,60.0,30,90,0.0,0.0
276,72.0,0,90,0.0,0.0
277,33.0,34,60,1.0,0.0
278,40.0,64,60,1.0,0.0
279,59.0,0,90,0.0,0.0
280,71.0,62,90,0.0,0.0
281,45.0,2,60,1.0,0.0
282,57.0,46,330,0.0,0.0
283,33.0,64,60,1.0,0.0
284,69.0,0,330,0.0,0.0
285,40.0,64,60,1.0,0.0
286,45.0,64,60,1.0,0.0
287,33.0,64,60,1.0,0.0
288,40.0,18,60,1.0,0.0
289,45.0,64,60,1.0,0.0
290,33.0,64,60,1.0,0.0
291,71.0,62,180,0.0,0.0
292,59.0,0,180,0.0,0.0
293,40.0,64,60,1.0,0.0
294,44.0,2,60,1.0,0.0
295,33.0,64,60,1.0,0.0
296,60.0,62,390,0.0,0.0
297,72.0,0,390,0.0,0.0
298,40.0,64,60,1.0,0.0
299,45.0,64,60,1.0,0.0
300,33.0,64,60,1.0,0.0
301,40.0,64,60,1.0,0.0
302,45.0,2,60,1.0,0.0
303,59.0,62,180,0.0,0.0
304,32.0,64,60,1.0,0.0
305,71.0,0,180,0.0,0.0
306,40.0,64,60,1.0,0.0
307,44.0,2,60,1.0,0.0
308,33.0,64,60,1.0,0.0
309,60.0,62,390,0.0,0.0
310,72.0,0,390,0.0,0.0
311,40.0,64,60,1.0,0.0
312,45.0,64,60,1.0,0.0
313,33.0,64,60,1.0,0.0
314,40.0,64,60,1.0,0.0
315,45.0,2,60,1.0,0.0
316,35.0,64,60,1.0,0.0
317,62.0,0,150,0.0,0.0
318,74.0,30,150,0.0,0.0
319,43.0,34,60,1.0,0.0
320,47.0,64,60,1.0,0.0
321,64.0,0,570,0.0,0.0
322,36.0,64,60,1.0,0.0
323,76.0,62,570,0.0,0.0
324,43.0,64,60,1.0,0.0
325,48.0,64,60,1.0,0.0
326,36.0,64,60,1.0,0.0
327,43.0,64,60,1.0,0.0
328,48.0,64,60,1.0,0.0
329,36.0,64,60,1.0,0.0
330,43.0,64,60,1.0,0.0
331,48.0,2,60,1.0,0.0
332,64.0,0,330,0.0,0.0
333,76.0,46,330,0.0,0.0
334,36.0,64,60,1.0,0.0
335,43.0,64,60,1.0,0.0
336,48.0,64,60,1.0,0.0
337,36.0,64,60,1.0,0.0
338,43.0,18,60,1.0,0.0
339,48.0,64,60,1.0,0.0
340,36.0,34,60,1.0,0.0
341,60.0,0,90,0.0,0.0
342,72.0,30,90,0.0,0.0
343,43.0,64,60,1.0,0.0
344,62.0,0,90,0.0,0.0
345,74.0,62,90,0.0,0.0
346,48.0,2,60,1.0,0.0
347,36.0,64,60,1.0,0.0
348,76.0,62,390,0.0,0.0
349,64.0,0,390,0.0,0.0
350,43.0,64,60,1.0,0.0
351,48.0,64,60,1.0,0.0
352,36.0,64,60,1.0,0.0
353,43.0,64,60,1.0,0.0
354,48.0,2,60,1.0,0.0
355,36.0,64,60,1.0,0.0
356,74.0,62,180,0.0,0.0
357,62.0,0,180,0.0,0.0
358,43.0,64,60,1.0,0.0
359,48.0,2,60,1.0,0.0
360,72.0,62,390,0.0,0.0
361,36.0,64,60,1.0,0.0
362,60.0,0,390,0.0,0.0
363,43.0,64,60,1.0,0.0
364,48.0,64,60,1.0,0.0
365,36.0,64,60,1.0,0.0
366,43.0,64,60,1.0,0.0
367,48.0,2,60,1.0,0.0
368,74.0,62,180,0.0,0.0
369,62.0,0,180,0.0,0.0
370,36.0,64,60,1.0,0.0
371,43.0,64,60,1.0,0.0
372,48.0,2,60,1.0,0.0
373,36.0,64,60,1.0,0.0
374,76.0,30,300,0.0,0.0
375,64.0,0,300,0.0,0.0
376,43.0,64,60,1.0,0.0
377,48.0,64,60,1.0,0.0
378,36.0,34,60,1.0,0.0
379,43.0,64,60,1.0,0.0
380,77.0,0,90,0.0,0.0
381,65.0,62,90,0.0,0.0
382,48.0,2,60,1.0,0.0
383,36.0,34,60,1.0,0.0
384,64.0,30,90,0.0,0.0
385,76.0,0,90,0.0,0.0
386,43.0,64,60,1.0,0.0
387,62.0,0,90,0.0,0.0
388,74.0,62,90,0.0,0.0
389,48.0,2,60,1.0,0.0
390,72.0,46,330,0.0,0.0
391,36.0,64,60,1.0,0.0
392,60.0,0,330,0.0,0.0
393,43.0,64,60,1.0,0.0
394,48.0,64,60,1.0,0.0
395,36.0,64,60,1.0,0.0
396,43.0,18,60,1.0,0.0
397,48.0,64,60,1.0,0.0
398,35.0,64,60,1.0,0.0
399,62.0,30,150,0.0,0.0
400,74.0,0,150,0.0,0.0
401,43.0,34,60,1.0,0.0
402,47.0,64,60,1.0,0.0
403,76.0,0,330,0.0,0.0
404,36.0,64,60,1.0,0.0
405,64.0,46,330,0.0,0.0
406,43.0,64,60,1.0,0.0
407,48.0,64,60,1.0,0.0
408,36.0,64,60,1.0,0.0
409,43.0,18,60,1.0,0.0
410,48.0,64,60,1.0,0.0
411,62.0,30,150,0.0,0.0
412,74.0,0,150,0.0,0.0
413,38.0,64,60,1.0,0.0
414,41.0,34,60,1.0,0.0
415,50.0,64,60,1.0,0.0
416,40.0,64,60,1.0,0.0
417,60.0,0,330,0.0,0.0
418,72.0,46,330,0.0,0.0
419,45.0,64,60,1.0,0.0
420,52.0,64,60,1.0,0.0
421,40.0,64,60,1.0,0.0
422,45.0,18,60,1.0,0.0
423,52.0,64,60,1.0,0.0
424,71.0,0,150,0.0,0.0
425,59.0,30,150,0.0,0.0
426,40.0,64,60,1.0,0.0
427,44.0,34,60,1.0,0.0
428,52.0,64,60,1.0,0.0
429,69.0,0,570,0.0,0.0
430,33.0,64,60,1.0,0.0
431,57.0,62,570,0.0,0.0
432,36.0,64,60,1.0,0.0
433,40.0,64,60,1.0,0.0
434,45.0,64,60,1.0,0.0
435,40.0,64,60,1.0,0.0
436,36.0,64,60,1.0,0.0
437,33.0,64,60,1.0,0.0
438,36.0,64,60,1.0,0.0
439,40.0,2,60,1.0,0.0
440,45.0,64,60,1.0,0.0
441,57.0,0,330,0.0,0.0
442,69.0,46,330,0.0,0.0
443,40.0,64,60,1.0,0.0
444,36.0,64,60,1.0,0.0
445,33.0,64,60,1.0,0.0
446,36.0,18,60,1.0,0.0
447,40.0,64,60,1.0,0.0
448,64.0,30,150,0.0,0.0
449,45.0,64,60,1.0,0.0
450,40.0,34,60,1.0,0.0
451,36.0,64,60,1.0,0.0
452,72.0,0,330,0.0,0.0
453,60.0,46,330,0.0,0.0
454,33.0,64,60,1.0,0.0
455,40.0,64,60,1.0,0.0
456,45.0,64,60,1.0,0.0
457,33.0,64,60,1.0,0.0
458,40.0,18,60,1.0,0.0
459,45.0,64,60,1.0,0.0
460,59.0,62,180,0.0,0.0
461,33.0,64,60,1.0,0.0
462,71.0,0,180,0.0,0.0
463,40.0,64,60,1.0,0.0
464,45.0,2,60,1.0,0.0
465,69.0,0,390,0.0,0.0
466,57.0,62,390,0.0,0.0
467,33.0,64,60,1.0,0.0
468,40.0,64,60,1.0,0.0
469,45.0,64,60,1.0,0.0
470,33.0,64,60,1.0,0.0
471,40.0,64,60,1.0,0.0
472,45.0,2,60,1.0,0.0
473,59.0,62,180,0.0,0.0
474,71.0,0,180,0.0,0.0
475,33.0,64,60,1.0,0.0
476,40.0,64,60,1.0,0.0
477,44.0,2,60,1.0,0.0
478,33.0,64,60,1.0,0.0
479,72.0,0,300,0.0,0.0
480,60.0,30,300,0.0,0.0
481,40.0,64,60,1.0,0.0
482,45.0,64,60,1.0,0.0
483,33.0,34,60,1.0,0.0
484,40.0,64,60,1.0,0.0
485,62.0,0,90,0.0,0.0
486,74.0,62,90,0.0,0.0
487,45.0,2,60,1.0,0.0
488,33.0,34,60,1.0,0.0
489,72.0,0,90,0.0,0.0
490,60.0,30,90,0.0,0.0
491,40.0,64,60,1.0,0.0
492,59.0,0,90,0.0,0.0
493,71.0,62,90,0.0,0.0
494,45.0,2,60,1.0,0.0
495,69.0,46,330,0.0,0.0
496,57.0,0,330,0.0,0.0
497,33.0,64,60,1.0,0.0
498,40.0,64,60,1.0,0.0
499,45.0,64,60,1.0,0.0
500,33.0,64,60,1.0,0.0
501,40.0,18,60,1.0,0.0
502,45.0,64,60,1.0,0.0
503,71.0,62,180,0.0,0.0
504,59.0,0,180,0.0,0.0
505,33.0,64,60,1.0,0.0
506,40.0,64,60,1.0,0.0
507,44.0,2,60,1.0,0.0
508,60.0,62,390,0.0,0.0
509,72.0,0,390,0.0,0.0
510,33.0,64,60,1.0,0.0
511,40.0,64,60,1.0,0.0
512,45.0,64,60,1.0,0.0
513,33.0,64,60,1.0,0.0
514,40.0,64,60,1.0,0.0
515,45.0,2,60,1.0,0.0
516,32.0,64,60,1.0,0.0
517,71.0,0,180,0.0,0.0
518,59.0,62,180,0.0,0.0
519,40.0,64,60,1.0,0.0
520,44.0,2,60,1.0,0.0
521,72.0,62,390,0.0,0.0
522,60.0,0,390,0.0,0.0
523,33.0,64,60,1.0,0.0
524,40.0,64,60,1.0,0.0
525,45.0,64,60,1.0,0.0
526,33.0,64,60,1.0,0.0
527,40.0,64,60,1.0,0.0
528,45.0,2,60,1.0,0.0
529,35.0,64,60,1.0,0.0
530,74.0,30,150,0.0,0.0
531,62.0,0,150,0.0,0.0
532,43.0,34,60,1.0,0.0
533,47.0,64,60,1.0,0.0
534,36.0,64,60,1.0,0.0
535,76.0,0,570,0.0,0.0
536,43.0,64,60,1.0,0.0
537,48.0,64,60,1.0,0.0
538,36.0,64,60,1.0,0.0
539,43.0,64,60,1.0,0.0
540,48.0,64,60,1.0,0.0
541,36.0,64,60,1.0,0.0
542,43.0,64,60,1.0,0.0
543,48.0,2,60,1.0,0.0
544,64.0,62,15,0.0,0.0
545,76.0,46,330,0.0,0.0
546,36.0,64,60,1.0,0.0
547,43.0,64,60,1.0,0.0
548,48.0,64,60,1.0,0.0
549,36.0,64,60,1.0,0.0
550,43.0,18,60,1.0,0.0
551,48.0,64,60,1.0,0.0
552,72.0,30,90,0.0,0.0
553,36.0,34,60,1.0,0.0
554,60.0,0,90,0.0,0.0
555,43.0,64,60,1.0,0.0
556,62.0,62,90,0.0,0.0
557,74.0,0,90,0.0,0.0
558,48.0,2,60,1.0,0.0
559,64.0,62,390,0.0,0.0
560,36.0,64,60,1.0,0.0
561,76.0,0,390,0.0,0.0
562,43.0,64,60,1.0,0.0
563,48.0,64,60,1.0,0.0
564,36.0,64,60,1.0,0.0
565,43.0,64,60,1.0,0.0
566,48.0,2,60,1.0,0.0
567,36.0,64,60,1.0,0.0
568,62.0,0,180,0.0,0.0
569,74.0,62,180,0.0,0.0
570,43.0,64,60,1.0,0.0
571,48.0,2,60,1.0,0.0
572,72.0,0,390,0.0,0.0
573,60.0,62,390,0.0,0.0
574,36.0,64,60,1.0,0.0
575,43.0,64,60,1.0,0.0
576,48.0,64,60,1.0,0.0
577,36.0,64,60,1.0,0.0
578,43.0,64,60,1.0,0.0
579,48.0,2,60,1.0,0.0
580,36.0,64,60,1.0,0.0
581,74.0,62,180,0.0,0.0
582,62.0,0,180,0.0,0.0
583,43.0,64,60,1.0,0.0
584,48.0,2,60,1.0,0.0
585,64.0,30,300,0.0,0.0
586,76.0,0,300,0.0,0.0
587,36.0,64,60,1.0,0.0
588,43.0,64,60,1.0,0.0
589,48.0,64,60,1.0,0.0
590,36.0,34,60,1.0,0.0
591,43.0,64,60,1.0,0.0
592,65.0,0,90,0.0,0.0
593,77.0,62,90,0.0,0.0
594,48.0,2,60,1.0,0.0
595,36.0,34,60,1.0,0.0
596,64.0,0,90,0.0,0.0
597,76.0,30,90,0.0,0.0
598,43.0,64,60,1.0,0.0
599,74.0,0,90,0.0,0.0
600,62.0,62,90,0.0,0.0
601,48.0,2,60,1.0,0.0
602,60.0,46,330,0.0,0.0
603,72.0,0,330,0.0,0.0
604,36.0,64,60,1.0,0.0
605,43.0,64,60,1.0,0.0
606,48.0,64,60,1.0,0.0
607,36.0,64,60,1.0,0.0
608,43.0,18,60,1.0,0.0
609,48.0,64,60,1.0,0.0
610,35.0,64,60,1.0,0.0
611,62.0,0,150,0.0,0.0
612,74.0,30,150,0.0,0.0
613,43.0,34,60,1.0,0.0
614,47.0,64,60,1.0,0.0
615,64.0,0,330,0.0,0.0
616,36.0,64,60,1.0,0.0
617,76.0,46,330,0.0,0.0
618,43.0,64,60,1.0,0.0
619,48.0,64,60,1.0,0.0
620,36.0,64,60,1.0,0.0
621,43.0,18,60,1.0,0.0
622,48.0,64,60,1.0,0.0
623,38.0,64,60,1.0,0.0
624,62.0,30,150,0.0,0.0
625,74.0,0,150,0.0,0.0
626,41.0,34,60,1.0,0.0
627,50.0,64,60,1.0,0.0
628,72.0,0,330,0.0,0.0
629,40.0,64,60,1.0,0.0
630,60.0,46,330,0.0,0.0
631,45.0,64,60,1.0,0.0
632,52.0,64,60,1.0,0.0
633,40.0,64,60,1.0,0.0
634,45.0,18,60,1.0,0.0
635,52.0,64,60,1.0,0.0
636,59.0,30,150,0.0,0.0
637,40.0,64,60,1.0,0.0
638,71.0,0,150,0.0,0.0
639,44.0,34,60,1.0,0.0
640,52.0,64,60,1.0,0.0
641,33.0,64,60,1.0,0.0
642,36.0,64,60,1.0,0.0
643,40.0,64,60,1.0,0.0
644,45.0,64,60,1.0,0.0
645,40.0,64,60,1.0,0.0
646,36.0,64,60,1.0,0.0
647,33.0,64,60,1.0,0.0
648,36.0,64,60,1.0,0.0
649,40.0,2,60,1.0,0.0
650,69.0,62,15,0.0,0.0
651,57.0,0,15,0.0,0.0
652,45.0,64,60,1.0,0.0
653,40.0,64,60,1.0,0.0
654,36.0,64,60,1.0,0.0
655,33.0,64,60,1.0,0.0
656,36.0,18,60,1.0,0.0
657,40.0,64,60,1.0,0.0
658,45.0,64,60,1.0,0.0
659,64.0,30,150,0.0,0.0
660,40.0,34,60,1.0,0.0
661,36.0,64,60,1.0,0.0
662,33.0,64,60,1.0,0.0
663,69.0,0,570,0.0,0.0
664,57.0,62,570,0.0,0.0
665,36.0,64,60,1.0,0.0
666,40.0,64,60,1.0,0.0
667,45.0,64,60,1.0,0.0
668,40.0,64,60,1.0,0.0
669,36.0,64,60,1.0,0.0
670,33.0,64,60,1.0,0.0
671,36.0,64,60,1.0,0.0
672,40.0,2,60,1.0,0.0
673,45.0,64,60,1.0,0.0
674,69.0,0,330,0.0,0.0
675,57.0,46,330,0.0,0.0
676,40.0,64,60,1.0,0.0
677,36.0,96,60,1.0,0.0
678,33.0,50,90,1.0,0.0
679,45.0,96,90,1.0,0.0
680,35.0,66,90,1.0,0.0
681,71.0,30,150,0.0,0.0
682,59.0,0,150,0.0,0.0
683,47.0,34,90,1.0,0.0
684,72.0,160,30,0.0,0.0
685,72.0,48,60,0.0,0.0
686,76.0,192,60,0.0,0.0
687,36.0,304,60,1.0,0.0
688,67.0,32,150,1.0,0.0
689,64.0,0,150,1.0,0.0
690,72.0,160,180,0.0,0.0
691,71.0,160,180,0.0,0.0
692,65.0,32,150,1.0,0.0
693,62.0,0,150,1.0,0.0
694,64.0,0,150,1.0,0.0
695,72.0,80,150,0.0,0.0
696,60.0,0,150,1.0,0.0
697,67.0,0,60,0.0,0.0
698,74.0,0,60,0.0,0.0
699,55.0,192,60,1.0,0.0
700,59.0,0,60,1.0,0.0
701,62.0,0,60,1.0,0.0
702,55.0,192,60,1.0,0.0
703,67.0,0,60,0.0,0.0
704,74.0,0,60,0.0,0.0
705,62.0,0,60,1.0,0.0
706,59.0,0,60,1.0,0.0
707,62.0,0,60,1.0,0.0
708,59.0,192,60,1.0,0.0
709,55.0,0,60,1.0,0.0
710,67.0,0,60,0.0,0.0
711,74.0,0,60,0.0,0.0
712,59.0,0,60,1.0,0.0
713,62.0,0,60,1.0,0.0
714,55.0,0,60,1.0,0.0
715,74.0,0,60,0.0,0.0
716,67.0,560,60,0.0,0.0
717,74.0,158,30,0.0,0.0
718,74.0,50,60,0.0,0.0
719,77.0,192,60,0.0,0.0
720,38.0,336,60,1.0,0.0
721,74.0,192,180,0.0,0.0
722,69.0,0,180,1.0,0.0
723,65.0,0,180,1.0,0.0
724,64.0,0,180,1.0,0.0
725,73.0,160,180,0.0,0.0
726,67.0,0,180,1.0,0.0
727,65.0,0,150,1.0,0.0
728,62.0,0,150,1.0,0.0
729,74.0,80,150,0.0,0.0
730,61.0,0,60,1.0,0.0
731,64.0,0,60,1.0,0.0
732,57.0,0,60,1.0,0.0
733,69.0,192,60,0.0,0.0
734,76.0,0,60,0.0,0.0
735,69.0,0,60,0.0,0.0
736,76.0,0,60,0.0,0.0
737,64.0,0,60,1.0,0.0
738,61.0,0,60,1.0,0.0
739,57.0,192,60,1.0,0.0
740,57.0,192,60,1.0,0.0
741,61.0,0,60,1.0,0.0
742,64.0,0,60,1.0,0.0
743,76.0,0,60,0.0,0.0
744,69.0,0,60,0.0,0.0
745,57.0,0,60,1.0,0.0
746,61.0,0,60,1.0,0.0
747,64.0,0,60,1.0,0.0
748,69.0,0,60,0.0,0.0
749,76.0,560,60,0.0,0.0
750,77.0,160,30,0.0,0.0
751,77.0,48,60,0.0,0.0
752,81.0,192,60,0.0,0.0
753,41.0,336,60,1.0,0.0
754,69.0,192,180,1.0,0.0
755,72.0,0,180,1.0,0.0
756,77.0,0,180,0.0,0.0
757,76.0,0,180,0.0,0.0
758,70.0,160,180,1.0,0.0
759,67.0,0,180,1.0,0.0
760,77.0,0,150,0.0,0.0
761,65.0,0,150,1.0,0.0
762,69.0,64,150,1.0,0.0
763,84.0,146,30,0.0,0.0
764,84.0,62,30,0.0,0.0
765,88.0,192,60,0.0,0.0
766,48.0,336,60,1.0,0.0
767,72.0,0,180,0.0,0.0
768,67.0,0,180,1.0,0.0
769,64.0,192,180,1.0,0.0
770,71.0,0,180,0.0,0.0
771,62.0,0,180,1.0,0.0
772,65.0,160,180,1.0,0.0
773,60.0,0,150,1.0,0.0
774,64.0,0,150,1.0,0.0
775,72.0,64,150,0.0,0.0
776,74.0,160,30,0.0,0.0
777,74.0,48,60,0.0,0.0
778,81.0,192,60,0.0,0.0
779,57.0,0,60,1.0,0.0
780,53.0,176,60,1.0,0.0
781,62.0,0,60,1.0,0.0
782,71.0,160,30,0.0,0.0
783,71.0,48,60,0.0,0.0
784,79.0,192,60,0.0,0.0
785,59.0,0,60,1.0,0.0
786,65.0,176,60,1.0,0.0
787,55.0,0,60,1.0,0.0
788,64.0,160,30,0.0,0.0
789,64.0,48,60,0.0,0.0
790,72.0,192,60,0.0,0.0
791,60.0,192,60,1.0,0.0
792,55.0,0,60,1.0,0.0
793,48.0,0,60,1.0,0.0
794,60.0,0,60,0.0,0.0
795,55.0,192,60,0.0,0.0
796,52.0,0,60,0.0,0.0
797,36.0,192,60,1.0,0.0
798,55.0,240,60,0.0,0.0
799,55.0,0,570,0.0,0.0
800,67.0,0,570,0.0,0.0
801,64.0,96,570,0.0,0.0
802,36.0,96,90,1.0,0.0
803,38.0,96,90,1.0,0.0
804,40.0,96,90,1.0,0.0
805,41.0,96,90,1.0,0.0
806,43.0,96,90,1.0,0.0
807,45.0,0,90,1.0,0.0
808,65.0,48,540,0.0,0.0
809,62.0,0,540,0.0,0.0
810,47.0,96,90,1.0,0.0
811,55.0,0,540,0.0,0.0
812,48.0,96,90,1.0,0.0
813,50.0,96,90,1.0,0.0
814,43.0,96,90,1.0,0.0
815,45.0,48,90,1.0,0.0
816,47.0,96,90,1.0,0.0
817,48.0,48,540,1.0,0.0
818,60.0,96,90,0.0,0.0
819,64.0,0,90,0.0,0.0
820,65.0,0,90,0.0,0.0
821,62.0,96,90,0.0,0.0
822,64.0,96,90,0.0,0.0
823,67.0,0,90,0.0,0.0
824,65.0,96,90,0.0,0.0
825,69.0,0,90,0.0,0.0
826,67.0,0,90,0.0,0.0
827,71.0,48,90,0.0,0.0
828,72.0,0,90,0.0,0.0
829,69.0,96,90,0.0,0.0
830,43.0,48,330,1.0,0.0
831,74.0,96,90,0.0,0.0
832,71.0,0,90,0.0,0.0
833,72.0,96,90,0.0,0.0
834,76.0,0,90,0.0,0.0
835,77.0,48,90,0.0,0.0
836,74.0,0,90,0.0,0.0
837,76.0,96,90,0.0,0.0
838,79.0,0,90,0.0,0.0
839,77.0,0,90,0.0,0.0
840,41.0,30,150,1.0,0.0
841,81.0,64,90,0.0,0.0
842,74.0,0,90,0.0,0.0
843,83.0,50,90,0.0,0.0
844,40.0,96,90,1.0,0.0
845,84.0,0,60,0.0,0.0
846,79.0,48,60,0.0,0.0
847,36.0,96,90,1.0,0.0
848,55.0,96,390,0.0,0.0
849,64.0,0,390,0.0,0.0
850,67.0,0,390,0.0,0.0
851,40.0,96,90,1.0,0.0
852,41.0,96,90,1.0,0.0
853,43.0,96,90,1.0,0.0
854,45.0,0,90,1.0,0.0
855,47.0,64,90,1.0,0.0
856,65.0,0,150,0.0,0.0
857,62.0,0,150,0.0,0.0
858,55.0,32,150,0.0,0.0
859,48.0,96,90,1.0,0.0
860,50.0,96,90,1.0,0.0
861,55.0,46,330,0.0,0.0
862,62.0,0,330,0.0,0.0
863,65.0,0,330,0.0,0.0
864,43.0,96,90,1.0,0.0
865,45.0,48,90,1.0,0.0
866,47.0,50,90,1.0,0.0
867,48.0,48,60,1.0,0.0
868,60.0,0,90,0.0,0.0
869,64.0,96,90,0.0,0.0
870,62.0,96,90,0.0,0.0
871,66.0,0,90,0.0,0.0
872,64.0,0,90,0.0,0.0
873,67.0,96,90,0.0,0.0
874,45.0,48,330,1.0,0.0
875,66.0,0,90,0.0,0.0
876,69.0,96,90,0.0,0.0
877,71.0,0,90,0.0,0.0
878,67.0,48,90,0.0,0.0
879,69.0,48,90,0.0,0.0
880,72.0,0,90,0.0,0.0
881,71.0,0,90,0.0,0.0
882,74.0,96,90,0.0,0.0
883,43.0,48,60,1.0,0.0
884,72.0,96,90,0.0,0.0
885,76.0,0,90,0.0,0.0
886,74.0,96,90,0.0,0.0
887,78.0,0,90,0.0,0.0
888,43.0,46,330,1.0,0.0
889,76.0,96,90,0.0,0.0
890,79.0,0,90,0.0,0.0
891,81.0,0,90,0.0,0.0
892,78.0,48,90,0.0,0.0
893,79.0,0,90,0.0,0.0
894,83.0,50,90,0.0,0.0
895,42.0,96,90,1.0,0.0
896,81.0,46,60,0.0,0.0
897,84.0,0,60,0.0,0.0
898,43.0,96,90,1.0,0.0
899,81.0,48,390,0.0,0.0
900,84.0,0,390,0.0,0.0
901,45.0,96,90,1.0,0.0
902,38.0,96,90,1.0,0.0
903,40.0,96,90,1.0,0.0
904,42.0,2,90,1.0,0.0
905,48.0,96,90,1.0,0.0
906,79.0,46,60,0.0,0.0
907,83.0,0,60,0.0,0.0
908,47.0,96,90,1.0,0.0
909,79.0,0,330,0.0,0.0
910,48.0,96,90,1.0,0.0
911,83.0,46,330,0.0,0.0
912,50.0,96,90,1.0,0.0
913,51.0,50,90,1.0,0.0
914,54.0,50,90,1.0,0.0
915,48.0,96,90,1.0,0.0
916,79.0,46,60,0.0,0.0
917,81.0,0,60,0.0,0.0
918,88.0,0,60,0.0,0.0
919,47.0,50,90,1.0,0.0
920,48.0,96,90,1.0,0.0
921,88.0,0,60,0.0,0.0
922,81.0,0,60,0.0,0.0
923,79.0,46,60,0.0,0.0
924,45.0,50,90,1.0,0.0
925,78.0,46,60,0.0,0.0
926,81.0,0,60,0.0,0.0
927,86.0,0,60,0.0,0.0
928,50.0,96,90,1.0,0.0
929,38.0,50,90,1.0,0.0
930,83.0,0,60,0.0,0.0
931,43.0,384,60,1.0,0.0
932,74.0,0,60,0.0,0.0
933,79.0,0,60,0.0,0.0
934,55.0,240,60,0.0,0.0
935,36.0,96,90,1.0,0.0
936,64.0,0,570,0.0,0.0
937,67.0,96,570,0.0,0.0
938,38.0,96,90,1.0,0.0
939,40.0,96,90,1.0,0.0
940,41.0,96,90,1.0,0.0
941,43.0,96,90,1.0,0.0
942,45.0,0,90,1.0,0.0
943,47.0,96,90,1.0,0.0
944,65.0,0,540,0.0,0.0
945,62.0,0,540,0.0,0.0
946,55.0,0,15,0.0,0.0
947,48.0,96,90,1.0,0.0
948,50.0,96,90,1.0,0.0
949,43.0,96,90,1.0,0.0
950,45.0,48,90,1.0,0.0
951,47.0,96,90,1.0,0.0
952,60.0,0,90,0.0,0.0
953,64.0,96,90,0.0,0.0
954,48.0,48,540,1.0,0.0
955,65.0,96,90,0.0,0.0
956,62.0,0,90,0.0,0.0
957,67.0,96,90,0.0,0.0
958,64.0,0,90,0.0,0.0
959,65.0,0,90,0.0,0.0
960,69.0,96,90,0.0,0.0
961,67.0,0,90,0.0,0.0
962,71.0,48,90,0.0,0.0
963,72.0,96,90,0.0,0.0
964,69.0,0,90,0.0,0.0
965,74.0,96,90,0.0,0.0
966,43.0,48,330,1.0,0.0
967,71.0,0,90,0.0,0.0
968,76.0,96,90,0.0,0.0
969,72.0,0,90,0.0,0.0
970,77.0,48,90,0.0,0.0
971,74.0,0,90,0.0,0.0
972,76.0,96,90,0.0,0.0
973,79.0,0,90,0.0,0.0
974,77.0,64,90,0.0,0.0
975,81.0,0,90,0.0,0.0
976,41.0,30,150,1.0,0.0
977,74.0,50,90,0.0,0.0
978,83.0,0,90,0.0,0.0
979,40.0,96,90,1.0,0.0
980,79.0,0,60,0.0,0.0
981,84.0,48,60,0.0,0.0
982,36.0,96,90,1.0,0.0
983,40.0,96,90,1.0,0.0
984,64.0,0,390,0.0,0.0
985,67.0,0,390,0.0,0.0
986,41.0,96,90,1.0,0.0
987,43.0,96,90,1.0,0.0
988,45.0,0,90,1.0,0.0
989,47.0,64,90,1.0,0.0
990,55.0,96,15,0.0,0.0
991,62.0,32,150,0.0,0.0
992,65.0,0,150,0.0,0.0
993,48.0,96,90,1.0,0.0
994,55.0,0,330,0.0,0.0
995,62.0,0,330,0.0,0.0
996,65.0,46,330,0.0,0.0
997,50.0,96,90,1.0,0.0
998,43.0,96,90,1.0,0.0
999,45.0,48,90,1.0,0.0
1000,47.0,50,90,1.0,0.0
1001,64.0,96,90,0.0,0.0
1002,60.0,0,90,0.0,0.0
1003,48.0,48,60,1.0,0.0
1004,66.0,96,90,0.0,0.0
1005,62.0,0,90,0.0,0.0
1006,64.0,0,90,0.0,0.0
1007,45.0,48,330,1.0,0.0
1008,67.0,96,90,0.0,0.0
1009,69.0,96,90,0.0,0.0
1010,66.0,0,90,0.0,0.0
1011,67.0,0,90,0.0,0.0
1012,71.0,48,90,0.0,0.0
1013,72.0,0,90,0.0,0.0
1014,69.0,48,90,0.0,0.0
1015,74.0,96,90,0.0,0.0
1016,71.0,0,90,0.0,0.0
1017,43.0,48,60,1.0,0.0
1018,76.0,0,90,0.0,0.0
1019,72.0,96,90,0.0,0.0
1020,43.0,46,330,1.0,0.0
1021,78.0,0,90,0.0,0.0
1022,74.0,96,90,0.0,0.0
1023,76.0,96,90,0.0,0.0
1024,79.0,0,90,0.0,0.0
1025,78.0,48,90,0.0,0.0
1026,81.0,0,90,0.0,0.0
1027,79.0,50,90,0.0,0.0
1028,83.0,0,90,0.0,0.0
1029,81.0,46,60,0.0,0.0
1030,84.0,0,60,0.0,0.0
1031,42.0,96,90,1.0,0.0
1032,43.0,96,90,1.0,0.0
1033,81.0,0,390,0.0,0.0
1034,45.0,96,90,1.0,0.0
1035,84.0,48,390,0.0,0.0
1036,38.0,96,90,1.0,0.0
1037,40.0,96,90,1.0,0.0
1038,42.0,2,90,1.0,0.0
1039,79.0,46,60,0.0,0.0
1040,48.0,96,90,1.0,0.0
1041,83.0,0,60,0.0,0.0
1042,47.0,96,90,1.0,0.0
1043,48.0,96,90,1.0,0.0
1044,83.0,46,330,0.0,0.0
1045,79.0,0,330,0.0,0.0
1046,50.0,96,90,1.0,0.0
1047,51.0,50,90,1.0,0.0
1048,54.0,50,90,1.0,0.0
1049,88.0,46,60,0.0,0.0
1050,81.0,0,60,0.0,0.0
1051,48.0,96,90,1.0,0.0
1052,79.0,0,60,0.0,0.0
1053,47.0,50,90,1.0,0.0
1054,81.0,46,60,0.0,0.0
1055,79.0,0,60,0.0,0.0
1056,48.0,96,90,1.0,0.0
1057,88.0,0,60,0.0,0.0
1058,45.0,50,90,1.0,0.0
1059,50.0,96,90,1.0,0.0
1060,86.0,46,60,0.0,0.0
1061,81.0,0,60,0.0,0.0
1062,78.0,0,60,0.0,0.0
1063,38.0,50,90,1.0,0.0
1064,83.0,0,60,0.0,0.0
1065,74.0,528,60,0.0,0.0
1066,79.0,0,60,0.0,0.0
1067,43.0,0,60,1.0,0.0
1068,55.0,94,180,0.0,0.0
1069,62.0,0,540,0.0,0.0
1070,43.0,96,90,1.0,0.0
1071,55.0,46,540,0.0,0.0
1072,65.0,0,540,0.0,0.0
1073,42.0,96,90,1.0,0.0
1074,43.0,96,90,1.0,0.0
1075,45.0,96,90,1.0,0.0
1076,47.0,50,90,1.0,0.0
1077,43.0,50,90,1.0,0.0
1078,55.0,0,60,0.0,0.0
1079,60.0,46,60,0.0,0.0
1080,64.0,0,60,0.0,0.0
1081,48.0,96,90,1.0,0.0
1082,47.0,50,90,1.0,0.0
1083,48.0,96,90,1.0,0.0
1084,62.0,46,60,0.0,0.0
1085,50.0,50,90,1.0,0.0
1086,52.0,96,90,1.0,0.0
1087,60.0,46,60,0.0,0.0
1088,54.0,98,90,1.0,0.0
1089,67.0,0,90,0.0,0.0
1090,59.0,96,90,0.0,0.0
1091,55.0,48,330,1.0,0.0
1092,66.0,96,90,0.0,0.0
1093,67.0,48,90,0.0,0.0
1094,69.0,96,90,0.0,0.0
1095,71.0,48,90,0.0,0.0
1096,53.0,32,150,1.0,0.0
1097,67.0,96,90,0.0,0.0
1098,52.0,32,150,1.0,0.0
1099,72.0,64,90,0.0,0.0
1100,55.0,46,540,1.0,0.0
1101,71.0,48,90,0.0,0.0
1102,50.0,48,60,1.0,0.0
1103,72.0,96,90,0.0,0.0
1104,74.0,48,90,0.0,0.0
1105,48.0,48,60,1.0,0.0
1106,76.0,48,90,0.0,0.0
1107,78.0,50,90,0.0,0.0
1108,79.0,46,60,0.0,0.0
1109,47.0,96,90,1.0,0.0
1110,45.0,96,90,1.0,0.0
1111,47.0,96,90,1.0,0.0
1112,77.0,46,330,0.0,0.0
1113,43.0,96,90,1.0,0.0
1114,45.0,50,90,1.0,0.0
1115,47.0,50,90,1.0,0.0
1116,75.0,46,60,0.0,0.0
1117,48.0,96,90,1.0,0.0
1118,47.0,50,90,1.0,0.0
1119,74.0,46,60,0.0,0.0
1120,48.0,96,90,1.0,0.0
1121,50.0,50,90,1.0,0.0
1122,72.0,46,60,0.0,0.0
1123,51.0,96,90,1.0,0.0
1124,54.0,98,90,1.0,0.0
1125,71.0,64,90,0.0,0.0
1126,55.0,32,150,1.0,0.0
1127,69.0,96,90,0.0,0.0
1128,71.0,96,90,0.0,0.0
1129,53.0,0,330,1.0,0.0
1130,67.0,96,90,0.0,0.0
1131,69.0,48,90,0.0,0.0
1132,71.0,96,90,0.0,0.0
1133,55.0,46,540,1.0,0.0
1134,51.0,32,150,1.0,0.0
1135,72.0,64,90,0.0,0.0
1136,71.0,48,90,0.0,0.0
1137,72.0,96,90,0.0,0.0
1138,50.0,48,60,1.0,0.0
1139,74.0,48,90,0.0,0.0
1140,48.0,48,60,1.0,0.0
1141,75.0,48,90,0.0,0.0
1142,78.0,96,90,0.0,0.0
1143,47.0,96,90,1.0,0.0
1144,79.0,46,540,0.0,0.0
1145,48.0,96,90,1.0,0.0
1146,50.0,96,90,1.0,0.0
1147,48.0,96,90,1.0,0.0
1148,47.0,50,90,1.0,0.0
1149,45.0,96,90,1.0,0.0
1150,43.0,96,90,1.0,0.0
1151,79.0,30,270,0.0,0.0
1152,42.0,66,90,1.0,0.0
1153,43.0,96,90,1.0,0.0
1154,74.0,0,90,0.0,0.0
1155,71.0,0,90,0.0,0.0
1156,41.0,96,90,1.0,0.0
1157,40.0,0,90,1.0,0.0
1158,76.0,0,90,0.0,0.0
1159,72.0,96,90,0.0,0.0
1160,38.0,50,90,1.0,0.0
1161,77.0,0,90,0.0,0.0
1162,74.0,0,90,0.0,0.0
1163,36.0,96,90,1.0,0.0
1164,76.0,0,60,0.0,0.0
1165,79.0,46,60,0.0,0.0
1166,38.0,96,90,1.0,0.0
1167,76.0,46,330,0.0,0.0
1168,79.0,0,330,0.0,0.0
1169,40.0,96,90,1.0,0.0
1170,41.0,96,90,1.0,0.0
1171,43.0,50,90,1.0,0.0
1172,45.0,50,90,1.0,0.0
1173,74.0,46,60,0.0,0.0
1174,77.0,0,60,0.0,0.0
1175,47.0,96,90,1.0,0.0
1176,48.0,96,90,1.0,0.0
1177,50.0,96,90,1.0,0.0
1178,74.0,46,330,0.0,0.0
1179,77.0,0,330,0.0,0.0
1180,43.0,96,90,1.0,0.0
1181,45.0,50,90,1.0,0.0
1182,47.0,50,90,1.0,0.0
1183,72.0,0,90,0.0,0.0
1184,76.0,96,90,0.0,0.0
1185,48.0,48,60,1.0,0.0
1186,77.0,96,90,0.0,0.0
1187,74.0,0,90,0.0,0.0
1188,43.0,48,330,1.0,0.0
1189,79.0,0,90,0.0,0.0
1190,76.0,96,90,0.0,0.0
1191,77.0,96,90,0.0,0.0
1192,81.0,0,90,0.0,0.0
1193,79.0,0,90,0.0,0.0
1194,83.0,48,90,0.0,0.0
1195,84.0,0,90,0.0,0.0
1196,81.0,48,90,0.0,0.0
1197,83.0,0,90,0.0,0.0
1198,86.0,96,90,0.0,0.0
1199,41.0,48,60,1.0,0.0
1200,88.0,96,90,0.0,0.0
1201,84.0,0,90,0.0,0.0
1202,89.0,96,90,0.0,0.0
1203,41.0,46,330,1.0,0.0
1204,86.0,0,90,0.0,0.0
1205,79.0,0,90,0.0,0.0
1206,83.0,96,90,0.0,0.0
1207,84.0,48,90,0.0,0.0
1208,81.0,0,90,0.0,0.0
1209,86.0,50,90,0.0,0.0
1210,83.0,0,90,0.0,0.0
1211,88.0,0,60,0.0,0.0
1212,84.0,46,60,0.0,0.0
1213,40.0,96,90,1.0,0.0
1214,41.0,96,90,1.0,0.0
1215,84.0,46,330,0.0,0.0
1216,88.0,0,330,0.0,0.0
1217,43.0,96,90,1.0,0.0
1218,45.0,96,90,1.0,0.0
1219,47.0,50,90,1.0,0.0
1220,48.0,50,90,1.0,0.0
1221,84.0,46,60,0.0,0.0
1222,76.0,0,60,0.0,0.0
1223,43.0,96,90,1.0,0.0
1224,45.0,96,90,1.0,0.0
1225,76.0,0,330,0.0,0.0
1226,47.0,96,90,1.0,0.0
1227,84.0,46,330,0.0,0.0
1228,48.0,96,90,1.0,0.0
1229,50.0,50,90,1.0,0.0
1230,52.0,50,90,1.0,0.0
1231,53.0,96,90,1.0,0.0
1232,81.0,46,60,0.0,0.0
1233,72.0,0,60,0.0,0.0
1234,74.0,0,60,0.0,0.0
1235,52.0,50,90,1.0,0.0
1236,74.0,0,60,0.0,0.0
1237,53.0,96,90,1.0,0.0
1238,72.0,0,60,0.0,0.0
1239,81.0,46,60,0.0,0.0
1240,50.0,50,90,1.0,0.0
1241,55.0,96,90,1.0,0.0
1242,79.0,0,60,0.0,0.0
1243,71.0,46,60,0.0,0.0
1244,74.0,0,60,0.0,0.0
1245,43.0,50,90,1.0,0.0
1246,67.0,46,60,0.0,0.0
1247,76.0,0,60,0.0,0.0
1248,48.0,96,90,1.0,0.0
1249,72.0,0,60,0.0,0.0
1250,43.0,50,90,1.0,0.0
1251,36.0,336,60,1.0,0.0
1252,55.0,94,180,0.0,0.0
1253,43.0,96,90,1.0,0.0
1254,62.0,0,540,0.0,0.0
1255,55.0,0,540,0.0,0.0
1256,65.0,46,540,0.0,0.0
1257,42.0,96,90,1.0,0.0
1258,43.0,96,90,1.0,0.0
1259,45.0,96,90,1.0,0.0
1260,47.0,50,90,1.0,0.0
1261,43.0,50,90,1.0,0.0
1262,48.0,96,90,1.0,0.0
1263,55.0,46,60,0.0,0.0
1264,60.0,0,60,0.0,0.0
1265,64.0,0,60,0.0,0.0
1266,47.0,50,90,1.0,0.0
1267,62.0,46,60,0.0,0.0
1268,48.0,96,90,1.0,0.0
1269,50.0,50,90,1.0,0.0
1270,60.0,46,60,0.0,0.0
1271,52.0,96,90,1.0,0.0
1272,54.0,98,90,1.0,0.0
1273,55.0,48,330,1.0,0.0
1274,67.0,0,90,0.0,0.0
1275,59.0,96,90,0.0,0.0
1276,66.0,96,90,0.0,0.0
1277,67.0,48,90,0.0,0.0
1278,69.0,96,90,0.0,0.0
1279,71.0,48,90,0.0,0.0
1280,53.0,32,150,1.0,0.0
1281,67.0,96,90,0.0,0.0
1282,72.0,64,90,0.0,0.0
1283,52.0,32,150,1.0,0.0
1284,55.0,46,540,1.0,0.0
1285,71.0,48,90,0.0,0.0
1286,72.0,96,90,0.0,0.0
1287,50.0,48,60,1.0,0.0
1288,74.0,48,90,0.0,0.0
1289,48.0,48,60,1.0,0.0
1290,76.0,48,90,0.0,0.0
1291,78.0,50,90,0.0,0.0
1292,79.0,46,60,0.0,0.0
1293,47.0,96,90,1.0,0.0
1294,45.0,96,90,1.0,0.0
1295,77.0,46,330,0.0,0.0
1296,47.0,96,90,1.0,0.0
1297,43.0,96,90,1.0,0.0
1298,45.0,50,90,1.0,0.0
1299,47.0,50,90,1.0,0.0
1300,75.0,46,60,0.0,0.0
1301,48.0,96,90,1.0,0.0
1302,47.0,50,90,1.0,0.0
1303,74.0,46,60,0.0,0.0
1304,48.0,96,90,1.0,0.0
1305,50.0,50,90,1.0,0.0
1306,72.0,46,60,0.0,0.0
1307,51.0,96,90,1.0,0.0
1308,54.0,98,90,1.0,0.0
1309,71.0,64,90,0.0,0.0
1310,55.0,32,150,1.0,0.0
1311,69.0,96,90,0.0,0.0
1312,71.0,96,90,0.0,0.0
1313,53.0,48,330,1.0,0.0
1314,67.0,96,90,0.0,0.0
1315,69.0,48,90,0.0,0.0
1316,71.0,96,90,0.0,0.0
1317,55.0,46,540,1.0,0.0
1318,51.0,32,150,1.0,0.0
1319,72.0,64,90,0.0,0.0
1320,71.0,48,90,0.0,0.0
1321,72.0,96,90,0.0,0.0
1322,50.0,48,60,1.0,0.0
1323,74.0,48,90,0.0,0.0
1324,48.0,48,60,1.0,0.0
1325,75.0,48,90,0.0,0.0
1326,78.0,96,90,0.0,0.0
1327,79.0,46,540,0.0,0.0
1328,47.0,96,90,1.0,0.0
1329,48.0,96,90,1.0,0.0
1330,50.0,96,90,1.0,0.0
1331,48.0,96,90,1.0,0.0
1332,47.0,50,90,1.0,0.0
1333,45.0,96,90,1.0,0.0
1334,79.0,30,270,0.0,0.0
1335,43.0,96,90,1.0,0.0
1336,42.0,66,90,1.0,0.0
1337,43.0,96,90,1.0,0.0
1338,41.0,0,90,1.0,0.0
1339,71.0,0,90,0.0,0.0
1340,74.0,96,90,0.0,0.0
1341,40.0,0,90,1.0,0.0
1342,72.0,96,90,0.0,0.0
1343,76.0,0,90,0.0,0.0
1344,74.0,50,90,0.0,0.0
1345,77.0,0,90,0.0,0.0
1346,38.0,0,90,1.0,0.0
1347,79.0,46,60,0.0,0.0
1348,36.0,96,90,1.0,0.0
1349,76.0,0,60,0.0,0.0
1350,38.0,96,90,1.0,0.0
1351,79.0,46,330,0.0,0.0
1352,76.0,0,330,0.0,0.0
1353,40.0,96,90,1.0,0.0
1354,41.0,96,90,1.0,0.0
1355,43.0,50,90,1.0,0.0
1356,45.0,50,90,1.0,0.0
1357,74.0,46,60,0.0,0.0
1358,47.0,96,90,1.0,0.0
1359,77.0,0,60,0.0,0.0
1360,48.0,96,90,1.0,0.0
1361,77.0,46,330,0.0,0.0
1362,50.0,96,90,1.0,0.0
1363,74.0,0,330,0.0,0.0
1364,43.0,96,90,1.0,0.0
1365,45.0,50,90,1.0,0.0
1366,47.0,50,90,1.0,0.0
1367,72.0,0,90,0.0,0.0
1368,76.0,96,90,0.0,0.0
1369,48.0,48,60,1.0,0.0
1370,77.0,96,90,0.0,0.0
1371,74.0,0,90,0.0,0.0
1372,76.0,96,90,0.0,0.0
1373,43.0,48,330,1.0,0.0
1374,79.0,0,90,0.0,0.0
1375,81.0,96,90,0.0,0.0
1376,77.0,0,90,0.0,0.0
1377,79.0,0,90,0.0,0.0
1378,83.0,48,90,0.0,0.0
1379,84.0,48,90,0.0,0.0
1380,81.0,0,90,0.0,0.0
1381,86.0,0,90,0.0,0.0
1382,83.0,96,90,0.0,0.0
1383,41.0,48,60,1.0,0.0
1384,88.0,0,90,0.0,0.0
1385,84.0,96,90,0.0,0.0
1386,41.0,46,330,1.0,0.0
1387,89.0,0,90,0.0,0.0
1388,86.0,96,90,0.0,0.0
1389,79.0,0,90,0.0,0.0
1390,83.0,96,90,0.0,0.0
1391,81.0,48,90,0.0,0.0
1392,84.0,0,90,0.0,0.0
1393,86.0,50,90,0.0,0.0
1394,83.0,0,90,0.0,0.0
1395,88.0,0,60,0.0,0.0
1396,84.0,46,60,0.0,0.0
1397,40.0,96,90,1.0,0.0
1398,41.0,96,90,1.0,0.0
1399,88.0,46,330,0.0,0.0
1400,84.0,0,330,0.0,0.0
1401,43.0,96,90,1.0,0.0
1402,45.0,96,90,1.0,0.0
1403,47.0,50,90,1.0,0.0
1404,48.0,50,90,1.0,0.0
1405,84.0,46,60,0.0,0.0
1406,76.0,0,60,0.0,0.0
1407,43.0,96,90,1.0,0.0
1408,45.0,96,90,1.0,0.0
1409,47.0,96,90,1.0,0.0
1410,76.0,0,330,0.0,0.0
1411,84.0,46,330,0.0,0.0
1412,48.0,96,90,1.0,0.0
1413,50.0,50,90,1.0,0.0
1414,52.0,50,90,1.0,0.0
1415,53.0,96,90,1.0,0.0
1416,81.0,46,60,0.0,0.0
1417,72.0,0,60,0.0,0.0
1418,74.0,0,60,0.0,0.0
1419,52.0,50,90,1.0,0.0
1420,53.0,96,90,1.0,0.0
1421,72.0,0,60,0.0,0.0
1422,74.0,0,60,0.0,0.0
1423,81.0,46,60,0.0,0.0
1424,50.0,50,90,1.0,0.0
1425,55.0,96,90,1.0,0.0
1426,74.0,0,60,0.0,0.0
1427,79.0,46,60,0.0,0.0
1428,71.0,0,60,0.0,0.0
1429,43.0,50,90,1.0,0.0
1430,67.0,0,60,0.0,0.0
1431,76.0,0,60,0.0,0.0
1432,48.0,96,90,1.0,0.0
1433,72.0,46,60,0.0,0.0
1434,43.0,50,90,1.0,0.0
1435,36.0,192,60,1.0,0.0
1436,48.0,96,90,1.0,0.0
1437,76.0,0,60,0.0,0.0
1438,72.0,46,60,0.0,0.0
1439,67.0,0,60,0.0,0.0
1440,43.0,96,90,1.0,0.0
1441,40.0,96,90,1.0,0.0
1442,43.0,50,90,1.0,0.0
1443,36.0,176,60,1.0,0.0
1444,72.0,160,30,0.0,0.0
1445,72.0,48,60,0.0,0.0
1446,76.0,192,60,0.0,0.0
1447,36.0,304,60,1.0,0.0
1448,64.0,32,150,1.0,0.0
1449,67.0,0,150,1.0,0.0
1450,72.0,160,180,0.0,0.0
1451,65.0,32,150,1.0,0.0
1452,71.0,160,180,0.0,0.0
1453,62.0,0,150,1.0,0.0
1454,64.0,0,150,1.0,0.0
1455,72.0,80,150,0.0,0.0
1456,60.0,0,150,1.0,0.0
1457,55.0,0,60,1.0,0.0
1458,59.0,0,60,1.0,0.0
1459,62.0,192,60,1.0,0.0
1460,74.0,0,60,0.0,0.0
1461,67.0,0,60,0.0,0.0
1462,74.0,0,60,0.0,0.0
1463,67.0,0,60,0.0,0.0
1464,59.0,0,60,1.0,0.0
1465,55.0,0,60,1.0,0.0
1466,62.0,192,60,1.0,0.0
1467,59.0,0,60,1.0,0.0
1468,62.0,0,60,1.0,0.0
1469,55.0,0,60,1.0,0.0
1470,67.0,192,60,0.0,0.0
1471,74.0,0,60,0.0,0.0
1472,62.0,560,60,1.0,0.0
1473,59.0,0,60,1.0,0.0
1474,67.0,0,60,0.0,0.0
1475,74.0,0,60,0.0,0.0
1476,55.0,0,60,1.0,0.0
1477,74.0,158,30,0.0,0.0
1478,74.0,50,60,0.0,0.0
1479,77.0,192,60,0.0,0.0
1480,38.0,336,60,1.0,0.0
1481,74.0,0,180,0.0,0.0
1482,65.0,192,180,1.0,0.0
1483,69.0,0,180,1.0,0.0
1484,67.0,160,180,1.0,0.0
1485,73.0,0,180,0.0,0.0
1486,64.0,0,180,1.0,0.0
1487,65.0,0,150,1.0,0.0
1488,62.0,80,150,1.0,0.0
1489,74.0,0,150,0.0,0.0
1490,61.0,0,60,1.0,0.0
1491,57.0,0,60,1.0,0.0
1492,64.0,192,60,1.0,0.0
1493,69.0,0,60,0.0,0.0
1494,76.0,0,60,0.0,0.0
1495,57.0,0,60,1.0,0.0
1496,61.0,0,60,1.0,0.0
1497,64.0,0,60,1.0,0.0
1498,69.0,0,60,0.0,0.0
1499,76.0,192,60,0.0,0.0
1500,69.0,192,60,0.0,0.0
1501,76.0,0,60,0.0,0.0
1502,57.0,0,60,1.0,0.0
1503,61.0,0,60,1.0,0.0
1504,64.0,0,60,1.0,0.0
1505,64.0,560,60,1.0,0.0
1506,57.0,0,60,1.0,0.0
1507,69.0,0,60,0.0,0.0
1508,61.0,0,60,1.0,0.0
1509,76.0,0,60,0.0,0.0
1510,77.0,160,30,0.0,0.0
1511,77.0,48,60,0.0,0.0
1512,81.0,192,60,0.0,0.0
1513,41.0,336,60,1.0,0.0
1514,77.0,0,180,0.0,0.0
1515,69.0,0,180,1.0,0.0
1516,72.0,192,180,1.0,0.0
1517,70.0,160,180,1.0,0.0
1518,67.0,0,180,1.0,0.0
1519,76.0,0,180,0.0,0.0
1520,77.0,0,150,0.0,0.0
1521,69.0,64,150,1.0,0.0
1522,65.0,0,150,1.0,0.0
1523,84.0,146,30,0.0,0.0
1524,84.0,62,30,0.0,0.0
1525,88.0,192,60,0.0,0.0
1526,48.0,336,60,1.0,0.0
1527,72.0,0,180,0.0,0.0
1528,67.0,0,180,1.0,0.0
1529,64.0,192,180,1.0,0.0
1530,71.0,160,180,0.0,0.0
1531,65.0,0,180,1.0,0.0
1532,62.0,0,180,1.0,0.0
1533,64.0,64,150,1.0,0.0
1534,60.0,0,150,1.0,0.0
1535,72.0,0,150,0.0,0.0
1536,74.0,160,30,0.0,0.0
1537,74.0,48,60,0.0,0.0
1538,81.0,192,60,0.0,0.0
1539,62.0,176,60,1.0,0.0
1540,57.0,0,60,1.0,0.0
1541,53.0,0,60,1.0,0.0
1542,71.0,160,30,0.0,0.0
1543,71.0,48,60,0.0,0.0
1544,79.0,192,60,0.0,0.0
1545,65.0,0,60,1.0,0.0
1546,55.0,176,60,1.0,0.0
1547,59.0,0,60,1.0,0.0
1548,64.0,160,30,0.0,0.0
1549,64.0,48,60,0.0,0.0
1550,72.0,192,60,0.0,0.0
1551,48.0,192,60,1.0,0.0
1552,55.0,0,60,1.0,0.0
1553,60.0,0,60,1.0,0.0
1554,60.0,192,60,0.0,0.0
1555,55.0,0,60,0.0,0.0
1556,52.0,0,60,0.0,0.0
1557,36.0,192,60,1.0,0.0
1558,60.0,176,60,0.0,0.0
1559,55.0,0,60,0.0,0.0
1560,52.0,0,60,0.0,0.0
1561,72.0,160,30,0.0,0.0
1562,72.0,160,60,0.0,0.0
1563,76.0,80,150,0.0,0.0
1564,57.0,176,60,1.0,0.0
1565,67.0,96,30,1.0,0.0
1566,64.0,0,30,1.0,0.0
1567,72.0,96,30,0.0,0.0
1568,62.0,0,30,1.0,0.0
1569,65.0,96,30,1.0,0.0
1570,71.0,96,30,0.0,0.0
1571,60.0,0,30,1.0,0.0
1572,64.0,96,30,1.0,0.0
1573,72.0,96,30,0.0,0.0
1574,55.0,96,30,1.0,0.0
1575,59.0,0,30,1.0,0.0
1576,62.0,0,30,1.0,0.0
1577,67.0,0,30,0.0,0.0
1578,71.0,0,30,0.0,0.0
1579,74.0,96,30,0.0,0.0
1580,59.0,96,30,1.0,0.0
1581,55.0,0,30,1.0,0.0
1582,62.0,0,30,1.0,0.0
1583,74.0,0,30,0.0,0.0
1584,67.0,96,30,0.0,0.0
1585,71.0,0,30,0.0,0.0
1586,55.0,96,30,1.0,0.0
1587,62.0,0,30,1.0,0.0
1588,59.0,0,30,1.0,0.0
1589,71.0,112,30,0.0,0.0
1590,74.0,0,30,0.0,0.0
1591,67.0,0,30,0.0,0.0
1592,55.0,0,60,1.0,0.0
1593,59.0,192,60,1.0,0.0
1594,62.0,0,60,1.0,0.0
1595,71.0,0,60,0.0,0.0
1596,74.0,0,60,0.0,0.0
1597,67.0,368,60,0.0,0.0
1598,74.0,160,30,0.0,0.0
1599,74.0,48,60,0.0,0.0
1600,77.0,192,60,0.0,0.0
1601,38.0,176,60,1.0,0.0
1602,69.0,96,30,1.0,0.0
1603,65.0,0,30,1.0,0.0
1604,74.0,96,30,0.0,0.0
1605,64.0,96,30,1.0,0.0
1606,67.0,0,30,1.0,0.0
1607,73.0,96,30,0.0,0.0
1608,65.0,96,30,1.0,0.0
1609,62.0,0,30,1.0,0.0
1610,74.0,96,30,0.0,0.0
1611,57.0,0,30,1.0,0.0
1612,64.0,96,30,1.0,0.0
1613,61.0,0,30,1.0,0.0
1614,73.0,0,30,0.0,0.0
1615,69.0,0,30,0.0,0.0
1616,76.0,96,30,0.0,0.0
1617,64.0,0,30,1.0,0.0
1618,61.0,96,30,1.0,0.0
1619,57.0,0,30,1.0,0.0
1620,76.0,96,30,0.0,0.0
1621,73.0,0,30,0.0,0.0
1622,69.0,0,30,0.0,0.0
1623,57.0,96,30,1.0,0.0
1624,61.0,0,30,1.0,0.0
1625,64.0,0,30,1.0,0.0
1626,73.0,0,30,0.0,0.0
1627,69.0,112,30,0.0,0.0
1628,76.0,0,30,0.0,0.0
1629,61.0,192,60,1.0,0.0
1630,64.0,0,60,1.0,0.0
1631,57.0,0,60,1.0,0.0
1632,69.0,368,60,0.0,0.0
1633,73.0,0,60,0.0,0.0
1634,76.0,0,60,0.0,0.0
1635,77.0,160,30,0.0,0.0
1636,77.0,48,60,0.0,0.0
1637,81.0,192,60,0.0,0.0
1638,41.0,176,60,1.0,0.0
1639,69.0,96,30,1.0,0.0
1640,72.0,0,30,1.0,0.0
1641,77.0,96,30,0.0,0.0
1642,67.0,96,30,1.0,0.0
1643,70.0,0,30,1.0,0.0
1644,76.0,96,30,0.0,0.0
1645,65.0,0,30,1.0,0.0
1646,69.0,96,30,1.0,0.0
1647,77.0,96,30,0.0,0.0
1648,84.0,160,30,0.0,0.0
1649,84.0,48,60,0.0,0.0
1650,88.0,192,60,0.0,0.0
1651,48.0,176,60,1.0,0.0
1652,64.0,0,30,1.0,0.0
1653,67.0,96,30,1.0,0.0
1654,72.0,96,30,0.0,0.0
1655,65.0,96,30,1.0,0.0
1656,62.0,0,30,1.0,0.0
1657,71.0,96,30,0.0,0.0
1658,64.0,96,30,1.0,0.0
1659,60.0,0,30,1.0,0.0
1660,72.0,96,30,0.0,0.0
1661,74.0,160,30,0.0,0.0
1662,74.0,48,60,0.0,0.0
1663,81.0,192,60,0.0,0.0
1664,53.0,0,60,1.0,0.0
1665,62.0,0,60,1.0,0.0
1666,57.0,176,60,1.0,0.0
1667,71.0,160,30,0.0,0.0
1668,71.0,48,60,0.0,0.0
1669,79.0,192,60,0.0,0.0
1670,65.0,0,60,1.0,0.0
1671,59.0,0,60,1.0,0.0
1672,55.0,176,60,1.0,0.0
1673,64.0,96,30,0.0,0.0
1674,72.0,0,30,0.0,0.0
1675,55.0,0,30,1.0,0.0
1676,60.0,0,30,1.0,0.0
1677,48.0,96,30,1.0,0.0
1678,64.0,96,30,0.0,0.0
1679,72.0,0,30,0.0,0.0
1680,60.0,0,30,1.0,0.0
1681,55.0,0,30,1.0,0.0
1682,48.0,96,30,1.0,0.0
1683,72.0,96,30,0.0,0.0
1684,64.0,0,30,0.0,0.0
1685,48.0,0,30,1.0,0.0
1686,55.0,112,30,1.0,0.0
1687,60.0,0,30,1.0,0.0
1688,72.0,192,60,0.0,0.0
1689,64.0,0,60,0.0,0.0
1690,55.0,0,60,1.0,0.0
1691,60.0,0,60,1.0,0.0
1692,48.0,368,60,1.0,0.0
1693,71.0,160,30,0.0,0.0
1694,71.0,48,60,0.0,0.0
1695,77.0,192,60,0.0,0.0
1696,31.0,0,60,1.0,0.0
1697,43.0,336,60,1.0,0.0
1698,71.0,0,180,0.0,0.0
1699,62.0,192,180,1.0,0.0
1700,65.0,0,180,1.0,0.0
1701,70.0,160,180,0.0,0.0
1702,61.0,0,180,1.0,0.0
1703,64.0,0,180,1.0,0.0
1704,62.0,0,150,1.0,0.0
1705,65.0,0,150,1.0,0.0
1706,71.0,64,150,0.0,0.0
1707,71.0,160,30,0.0,0.0
1708,71.0,48,60,0.0,0.0
1709,81.0,192,60,0.0,0.0
1710,43.0,0,60,1.0,0.0
1711,31.0,304,60,1.0,0.0
1712,65.0,32,150,1.0,0.0
1713,62.0,0,150,1.0,0.0
1714,71.0,160,180,0.0,0.0
1715,64.0,32,150,1.0,0.0
1716,61.0,0,150,1.0,0.0
1717,70.0,160,180,0.0,0.0
1718,65.0,0,150,1.0,0.0
1719,62.0,0,150,1.0,0.0
1720,71.0,64,150,0.0,0.0
1721,71.0,160,30,0.0,0.0
1722,71.0,48,60,0.0,0.0
1723,80.0,192,60,0.0,0.0
1724,62.0,0,60,1.0,0.0
1725,55.0,0,60,1.0,0.0
1726,65.0,176,60,1.0,0.0
1727,71.0,160,30,0.0,0.0
1728,71.0,48,60,0.0,0.0
1729,79.0,192,60,0.0,0.0
1730,55.0,176,60,1.0,0.0
1731,62.0,0,60,1.0,0.0
1732,65.0,0,60,1.0,0.0
1733,64.0,160,30,0.0,0.0
1734,64.0,48,60,0.0,0.0
1735,72.0,192,60,0.0,0.0
1736,48.0,0,60,1.0,0.0
1737,55.0,192,60,1.0,0.0
1738,60.0,0,60,1.0,0.0
1739,60.0,0,60,0.0,0.0
1740,55.0,0,60,0.0,0.0
1741,52.0,192,60,0.0,0.0
1742,36.0,192,60,1.0,0.0
1743,60.0,176,60,0.0,0.0
1744,55.0,0,60,0.0,0.0
1745,52.0,0,60,0.0,0.0
1746,71.0,158,30,0.0,0.0
1747,71.0,162,60,0.0,0.0
1748,81.0,80,150,0.0,0.0
1749,62.0,0,60,1.0,0.0
1750,55.0,176,60,1.0,0.0
1751,65.0,0,60,1.0,0.0
1752,71.0,160,30,0.0,0.0
1753,71.0,48,60,0.0,0.0
1754,79.0,192,60,0.0,0.0
1755,55.0,176,60,1.0,0.0
1756,62.0,0,60,1.0,0.0
1757,65.0,0,60,1.0,0.0
1758,64.0,160,30,0.0,0.0
1759,64.0,48,60,0.0,0.0
1760,72.0,192,60,0.0,0.0
1761,55.0,0,60,1.0,0.0
1762,60.0,192,60,1.0,0.0
1763,48.0,0,60,1.0,0.0
1764,55.0,0,60,0.0,0.0
1765,60.0,192,60,0.0,0.0
1766,52.0,0,60,0.0,0.0
1767,36.0,192,60,1.0,0.0
1768,60.0,0,60,0.0,0.0
1769,55.0,0,60,0.0,0.0
1770,52.0,176,60,0.0,0.0
1771,71.0,160,30,0.0,0.0
1772,71.0,48,60,0.0,0.0
1773,80.0,192,60,0.0,0.0
1774,65.0,0,60,1.0,0.0
1775,62.0,0,60,1.0,0.0
1776,55.0,176,60,1.0,0.0
1777,71.0,160,30,0.0,0.0
1778,71.0,48,60,0.0,0.0
1779,79.0,192,60,0.0,0.0
1780,62.0,0,60,1.0,0.0
1781,59.0,0,60,1.0,0.0
1782,65.0,238,60,1.0,0.0
1783,55.0,0,60,1.0,0.0
1784,64.0,96,90,0.0,0.0
1785,64.0,50,60,0.0,0.0
1786,72.0,192,60,0.0,0.0
1787,55.0,0,60,1.0,0.0
1788,48.0,0,60,1.0,0.0
1789,60.0,192,60,1.0,0.0
1790,52.0,192,60,0.0,0.0
1791,55.0,0,60,0.0,0.0
1792,60.0,0,60,0.0,0.0
1793,36.0,192,60,1.0,0.0
1794,52.0,176,60,0.0,0.0
1795,55.0,0,60,0.0,0.0
1796,60.0,0,60,0.0,0.0
1797,64.0,160,30,0.0,0.0
1798,64.0,48,60,0.0,0.0
1799,76.0,192,60,0.0,0.0
1800,55.0,0,60,1.0,0.0
1801,60.0,0,60,1.0,0.0
1802,48.0,192,60,1.0,0.0
1803,52.0,192,60,0.0,0.0
1804,55.0,0,60,0.0,0.0
1805,60.0,0,60,0.0,0.0
1806,36.0,192,60,1.0,0.0
1807,60.0,0,60,0.0,0.0
1808,55.0,0,60,0.0,0.0
1809,52.0,176,60,0.0,0.0
1810,67.0,160,30,0.0,0.0
1811,67.0,48,60,0.0,0.0
1812,79.0,192,60,0.0,0.0
1813,60.0,0,60,1.0,0.0
1814,55.0,0,60,1.0,0.0
1815,52.0,0,60,1.0,0.0
1816,48.0,176,60,1.0,0.0
1817,72.0,160,30,0.0,0.0
1818,72.0,48,60,0.0,0.0
1819,84.0,192,60,0.0,0.0
1820,48.0,0,60,1.0,0.0
1821,60.0,0,60,1.0,0.0
1822,55.0,192,60,1.0,0.0
1823,52.0,0,60,1.0,0.0
1824,60.0,192,60,0.0,0.0
1825,55.0,0,60,0.0,0.0
1826,52.0,0,60,0.0,0.0
1827,36.0,192,60,1.0,0.0
1828,60.0,0,60,0.0,0.0
1829,52.0,0,60,0.0,0.0
1830,55.0,192,60,0.0,0.0
1831,36.0,192,60,1.0,0.0
1832,60.0,0,60,0.0,0.0
1833,55.0,0,60,0.0,0.0
1834,52.0,192,60,0.0,0.0
1835,36.0,192,60,1.0,0.0
1836,52.0,192,60,0.0,0.0
1837,55.0,0,60,0.0,0.0
1838,60.0,0,60,0.0,0.0
1839,36.0,192,60,1.0,0.0
1840,60.0,0,60,0.0,0.0
1841,52.0,0,60,0.0,0.0
1842,55.0,192,60,0.0,0.0
1843,36.0,192,60,1.0,0.0
1844,55.0,0,60,0.0,0.0
1845,60.0,0,60,0.0,0.0
1846,52.0,192,60,0.0,0.0
1847,36.0,192,60,1.0,0.0
1848,52.0,0,60,0.0,0.0
1849,55.0,0,60,0.0,0.0
1850,60.0,384,60,0.0,0.0
1851,36.0,192,60,1.0,0.0
1852,60.0,384,60,0.0,0.0
1853,52.0,0,60,0.0,0.0
1854,55.0,0,60,0.0,0.0
1855,36.0,192,60,1.0,0.0
1856,60.0,192,60,0.0,0.0
1857,55.0,0,60,0.0,0.0
1858,52.0,0,60,0.0,0.0
1859,36.0,0,60,1.0,0.0
