,note,step,duration,channel,velocity
0,57.0,66,90,1.0,0.0
1,53.0,46,330,1.0,0.0
2,72.0,30,150,0.0,0.0
3,60.0,96,90,1.0,0.0
4,72.0,48,90,0.0,0.0
5,65.0,2,90,1.0,0.0
6,57.0,96,90,1.0,0.0
7,77.0,30,270,0.0,0.0
8,60.0,66,90,1.0,0.0
9,65.0,96,90,1.0,0.0
10,53.0,46,330,1.0,0.0
11,57.0,66,90,1.0,0.0
12,72.0,30,150,0.0,0.0
13,60.0,96,90,1.0,0.0
14,65.0,2,90,1.0,0.0
15,72.0,48,90,0.0,0.0
16,57.0,96,90,1.0,0.0
17,69.0,30,270,0.0,0.0
18,60.0,66,90,1.0,0.0
19,65.0,98,90,1.0,0.0
20,53.0,96,90,1.0,0.0
21,60.0,68,90,1.0,0.0
22,57.0,24,90,1.0,0.0
23,65.0,0,15,0.0,0.0
24,48.0,0,90,1.0,0.0
25,69.0,72,20,0.0,0.0
26,67.0,96,60,0.0,0.0
27,65.0,96,90,0.0,0.0
28,60.0,0,90,1.0,0.0
29,58.0,96,90,1.0,0.0
30,67.0,0,90,0.0,0.0
31,69.0,0,300,0.0,0.0
32,53.0,96,90,1.0,0.0
33,57.0,96,90,1.0,0.0
34,60.0,96,90,1.0,0.0
35,65.0,32,150,0.0,0.0
36,53.0,64,90,1.0,0.0
37,57.0,94,90,1.0,0.0
38,60.0,96,90,1.0,0.0
39,74.0,30,150,0.0,0.0
40,50.0,16,540,1.0,0.0
41,54.0,66,90,1.0,0.0
42,57.0,96,90,1.0,0.0
43,62.0,2,90,1.0,0.0
44,74.0,94,90,0.0,0.0
45,81.0,30,270,0.0,0.0
46,54.0,96,90,1.0,0.0
47,57.0,50,90,1.0,0.0
48,62.0,96,90,1.0,0.0
49,50.0,16,540,1.0,0.0
50,54.0,66,90,1.0,0.0
51,74.0,30,150,0.0,0.0
52,57.0,96,90,1.0,0.0
53,74.0,94,90,0.0,0.0
54,62.0,2,90,1.0,0.0
55,69.0,30,270,0.0,0.0
56,54.0,96,90,1.0,0.0
57,57.0,50,90,1.0,0.0
58,62.0,96,90,1.0,0.0
59,74.0,30,150,0.0,0.0
60,54.0,66,90,1.0,0.0
61,50.0,30,270,1.0,0.0
62,57.0,34,90,1.0,0.0
63,62.0,24,90,1.0,0.0
64,74.0,32,30,0.0,0.0
65,55.0,0,90,1.0,0.0
66,50.0,30,270,1.0,0.0
67,78.0,72,20,0.0,0.0
68,76.0,96,60,0.0,0.0
69,74.0,66,90,0.0,0.0
70,57.0,0,90,1.0,0.0
71,61.0,0,90,1.0,0.0
72,76.0,96,90,0.0,0.0
73,50.0,30,270,1.0,0.0
74,54.0,96,90,1.0,0.0
75,74.0,0,270,0.0,0.0
76,57.0,66,90,1.0,0.0
77,53.0,96,90,1.0,0.0
78,74.0,0,90,0.0,0.0
79,52.0,96,90,1.0,0.0
80,55.0,0,90,1.0,0.0
81,72.0,0,90,0.0,0.0
82,57.0,34,90,1.0,0.0
83,53.0,0,90,1.0,0.0
84,58.0,96,90,1.0,0.0
85,72.0,62,30,0.0,0.0
86,55.0,0,90,1.0,0.0
87,72.0,30,150,0.0,0.0
88,53.0,46,330,1.0,0.0
89,57.0,66,90,1.0,0.0
90,60.0,96,90,1.0,0.0
91,72.0,48,90,0.0,0.0
92,65.0,2,90,1.0,0.0
93,77.0,30,270,0.0,0.0
94,57.0,96,90,1.0,0.0
95,60.0,66,90,1.0,0.0
96,65.0,96,90,1.0,0.0
97,53.0,46,330,1.0,0.0
98,72.0,30,150,0.0,0.0
99,57.0,66,90,1.0,0.0
100,60.0,96,90,1.0,0.0
101,72.0,48,90,0.0,0.0
102,65.0,2,90,1.0,0.0
103,57.0,96,90,1.0,0.0
104,69.0,30,270,0.0,0.0
105,60.0,66,90,1.0,0.0
106,65.0,98,90,1.0,0.0
107,53.0,96,90,1.0,0.0
108,60.0,0,90,1.0,0.0
109,57.0,24,90,1.0,0.0
110,65.0,68,15,0.0,0.0
111,69.0,72,20,0.0,0.0
112,48.0,96,90,1.0,0.0
113,67.0,0,60,0.0,0.0
114,65.0,0,90,0.0,0.0
115,60.0,96,90,1.0,0.0
116,67.0,96,90,0.0,0.0
117,58.0,0,90,1.0,0.0
118,69.0,96,300,0.0,0.0
119,53.0,96,90,1.0,0.0
120,57.0,96,90,1.0,0.0
121,60.0,0,90,1.0,0.0
122,53.0,64,90,1.0,0.0
123,65.0,32,150,0.0,0.0
124,57.0,94,90,1.0,0.0
125,60.0,96,90,1.0,0.0
126,50.0,16,540,1.0,0.0
127,74.0,30,150,0.0,0.0
128,54.0,66,90,1.0,0.0
129,57.0,96,90,1.0,0.0
130,62.0,2,90,1.0,0.0
131,74.0,94,90,0.0,0.0
132,81.0,30,270,0.0,0.0
133,54.0,96,90,1.0,0.0
134,57.0,50,90,1.0,0.0
135,62.0,96,90,1.0,0.0
136,50.0,16,540,1.0,0.0
137,54.0,66,90,1.0,0.0
138,74.0,30,150,0.0,0.0
139,57.0,96,90,1.0,0.0
140,62.0,2,90,1.0,0.0
141,74.0,94,90,0.0,0.0
142,54.0,96,90,1.0,0.0
143,69.0,30,270,0.0,0.0
144,57.0,50,90,1.0,0.0
145,62.0,96,90,1.0,0.0
146,74.0,30,150,0.0,0.0
147,54.0,66,90,1.0,0.0
148,50.0,30,270,1.0,0.0
149,57.0,34,90,1.0,0.0
150,74.0,32,30,0.0,0.0
151,62.0,24,90,1.0,0.0
152,55.0,96,90,1.0,0.0
153,50.0,30,270,1.0,0.0
154,78.0,72,20,0.0,0.0
155,76.0,0,60,0.0,0.0
156,74.0,0,90,0.0,0.0
157,57.0,66,90,1.0,0.0
158,76.0,0,90,0.0,0.0
159,61.0,96,90,1.0,0.0
160,74.0,30,270,0.0,0.0
161,50.0,0,270,1.0,0.0
162,54.0,96,90,1.0,0.0
163,57.0,66,90,1.0,0.0
164,53.0,96,90,1.0,0.0
165,55.0,0,90,1.0,0.0
166,52.0,96,90,1.0,0.0
167,74.0,0,90,0.0,0.0
168,72.0,0,90,0.0,0.0
169,53.0,34,90,1.0,0.0
170,57.0,0,90,1.0,0.0
171,72.0,62,30,0.0,0.0
172,55.0,96,90,1.0,0.0
173,58.0,0,90,1.0,0.0
174,54.0,96,90,1.0,0.0
175,50.0,30,270,1.0,0.0
176,74.0,0,270,0.0,0.0
177,57.0,66,90,1.0,0.0
178,55.0,96,90,1.0,0.0
179,74.0,34,90,0.0,0.0
180,53.0,0,90,1.0,0.0
181,50.0,0,90,1.0,0.0
182,74.0,62,30,0.0,0.0
183,55.0,96,90,1.0,0.0
184,52.0,0,90,1.0,0.0
185,57.0,96,90,1.0,0.0
186,53.0,0,90,1.0,0.0
187,74.0,0,90,0.0,0.0
188,52.0,16,540,1.0,0.0
189,55.0,66,90,1.0,0.0
190,72.0,30,150,0.0,0.0
191,58.0,96,90,1.0,0.0
192,72.0,94,90,0.0,0.0
193,60.0,2,90,1.0,0.0
194,84.0,30,270,0.0,0.0
195,55.0,96,90,1.0,0.0
196,58.0,50,90,1.0,0.0
197,60.0,96,90,1.0,0.0
198,57.0,66,90,1.0,0.0
199,53.0,0,90,1.0,0.0
200,84.0,30,150,0.0,0.0
201,60.0,96,90,1.0,0.0
202,58.0,2,90,1.0,0.0
203,84.0,94,90,0.0,0.0
204,72.0,30,270,0.0,0.0
205,57.0,96,90,1.0,0.0
206,55.0,66,90,1.0,0.0
207,53.0,96,90,1.0,0.0
208,52.0,16,540,1.0,0.0
209,55.0,66,90,1.0,0.0
210,72.0,30,150,0.0,0.0
211,58.0,96,90,1.0,0.0
212,60.0,2,90,1.0,0.0
213,72.0,94,90,0.0,0.0
214,84.0,30,270,0.0,0.0
215,55.0,96,90,1.0,0.0
216,58.0,50,90,1.0,0.0
217,60.0,96,90,1.0,0.0
218,57.0,0,90,1.0,0.0
219,53.0,66,90,1.0,0.0
220,84.0,30,150,0.0,0.0
221,60.0,96,90,1.0,0.0
222,57.0,2,90,1.0,0.0
223,84.0,94,90,0.0,0.0
224,72.0,30,150,0.0,0.0
225,53.0,66,90,1.0,0.0
226,48.0,96,90,1.0,0.0
227,84.0,94,90,0.0,0.0
228,45.0,2,90,1.0,0.0
229,72.0,30,150,0.0,0.0
230,41.0,66,90,1.0,0.0
231,57.0,96,90,1.0,0.0
232,72.0,94,90,0.0,0.0
233,60.0,2,90,1.0,0.0
234,53.0,0,270,1.0,0.0
235,77.0,30,270,0.0,0.0
236,57.0,96,90,1.0,0.0
237,60.0,66,90,1.0,0.0
238,65.0,96,90,1.0,0.0
239,53.0,16,540,1.0,0.0
240,57.0,66,90,1.0,0.0
241,72.0,30,150,0.0,0.0
242,60.0,96,90,1.0,0.0
243,72.0,94,90,0.0,0.0
244,65.0,2,90,1.0,0.0
245,57.0,96,90,1.0,0.0
246,69.0,30,270,0.0,0.0
247,60.0,50,90,1.0,0.0
248,65.0,98,90,1.0,0.0
249,48.0,64,90,1.0,0.0
250,65.0,32,150,0.0,0.0
251,60.0,32,90,1.0,0.0
252,57.0,22,90,1.0,0.0
253,65.0,64,30,0.0,0.0
254,69.0,72,20,0.0,0.0
255,48.0,94,90,1.0,0.0
256,67.0,2,60,0.0,0.0
257,60.0,94,90,1.0,0.0
258,65.0,2,90,0.0,0.0
259,58.0,96,90,1.0,0.0
260,67.0,2,90,0.0,0.0
261,65.0,32,150,0.0,0.0
262,53.0,0,90,1.0,0.0
263,57.0,64,90,1.0,0.0
264,60.0,96,90,1.0,0.0
265,58.0,96,90,1.0,0.0
266,57.0,96,90,1.0,0.0
267,55.0,94,90,1.0,0.0
268,53.0,96,90,1.0,0.0
269,52.0,16,540,1.0,0.0
270,55.0,66,90,1.0,0.0
271,72.0,30,150,0.0,0.0
272,58.0,96,90,1.0,0.0
273,72.0,94,90,0.0,0.0
274,60.0,2,90,1.0,0.0
275,84.0,30,270,0.0,0.0
276,55.0,96,90,1.0,0.0
277,58.0,50,90,1.0,0.0
278,60.0,96,90,1.0,0.0
279,57.0,66,90,1.0,0.0
280,84.0,30,150,0.0,0.0
281,53.0,0,90,1.0,0.0
282,60.0,96,90,1.0,0.0
283,84.0,94,90,0.0,0.0
284,58.0,2,90,1.0,0.0
285,57.0,96,90,1.0,0.0
286,72.0,30,270,0.0,0.0
287,55.0,66,90,1.0,0.0
288,53.0,96,90,1.0,0.0
289,72.0,30,150,0.0,0.0
290,55.0,66,90,1.0,0.0
291,52.0,16,540,1.0,0.0
292,58.0,96,90,1.0,0.0
293,60.0,2,90,1.0,0.0
294,72.0,94,90,0.0,0.0
295,84.0,30,270,0.0,0.0
296,55.0,96,90,1.0,0.0
297,58.0,50,90,1.0,0.0
298,60.0,96,90,1.0,0.0
299,57.0,0,90,1.0,0.0
300,53.0,66,90,1.0,0.0
301,84.0,30,150,0.0,0.0
302,60.0,96,90,1.0,0.0
303,84.0,94,90,0.0,0.0
304,57.0,2,90,1.0,0.0
305,72.0,30,150,0.0,0.0
306,53.0,66,90,1.0,0.0
307,48.0,96,90,1.0,0.0
308,45.0,2,90,1.0,0.0
309,84.0,94,90,0.0,0.0
310,72.0,30,150,0.0,0.0
311,41.0,66,90,1.0,0.0
312,57.0,96,90,1.0,0.0
313,72.0,94,90,0.0,0.0
314,60.0,2,90,1.0,0.0
315,57.0,96,90,1.0,0.0
316,77.0,30,270,0.0,0.0
317,53.0,0,270,1.0,0.0
318,60.0,66,90,1.0,0.0
319,65.0,96,90,1.0,0.0
320,72.0,30,150,0.0,0.0
321,53.0,16,540,1.0,0.0
322,57.0,66,90,1.0,0.0
323,60.0,96,90,1.0,0.0
324,65.0,2,90,1.0,0.0
325,72.0,94,90,0.0,0.0
326,69.0,30,270,0.0,0.0
327,57.0,96,90,1.0,0.0
328,60.0,50,90,1.0,0.0
329,65.0,98,90,1.0,0.0
330,65.0,32,150,0.0,0.0
331,48.0,64,90,1.0,0.0
332,60.0,32,90,1.0,0.0
333,65.0,64,30,0.0,0.0
334,57.0,22,90,1.0,0.0
335,69.0,72,20,0.0,0.0
336,48.0,94,90,1.0,0.0
337,67.0,2,60,0.0,0.0
338,65.0,2,90,0.0,0.0
339,60.0,94,90,1.0,0.0
340,58.0,96,90,1.0,0.0
341,67.0,2,90,0.0,0.0
342,53.0,64,90,1.0,0.0
343,57.0,0,90,1.0,0.0
344,65.0,32,150,0.0,0.0
345,60.0,96,90,1.0,0.0
346,58.0,96,90,1.0,0.0
347,57.0,96,90,1.0,0.0
348,55.0,94,90,1.0,0.0
349,53.0,96,90,1.0,0.0
350,57.0,34,90,1.0,0.0
351,53.0,0,90,1.0,0.0
352,65.0,64,150,0.0,0.0
353,53.0,32,30,1.0,0.0
354,53.0,160,30,1.0,0.0
355,70.0,96,300,0.0,0.0
356,62.0,0,300,0.0,0.0
357,41.0,32,90,1.0,0.0
358,53.0,96,30,1.0,0.0
359,53.0,64,30,1.0,0.0
360,69.0,0,270,0.0,0.0
361,60.0,128,270,0.0,0.0
362,41.0,32,90,1.0,0.0
363,53.0,96,30,1.0,0.0
364,53.0,32,30,1.0,0.0
365,67.0,0,270,0.0,0.0
366,58.0,100,270,0.0,0.0
367,41.0,32,90,1.0,0.0
368,53.0,96,30,1.0,0.0
369,53.0,32,30,1.0,0.0
370,57.0,0,90,0.0,0.0
371,65.0,34,90,0.0,0.0
372,41.0,26,60,1.0,0.0
373,65.0,64,30,0.0,0.0
374,57.0,32,90,1.0,0.0
375,53.0,24,90,1.0,0.0
376,65.0,64,30,0.0,0.0
377,67.0,70,20,0.0,0.0
378,50.0,94,90,1.0,0.0
379,65.0,2,60,0.0,0.0
380,64.0,2,90,0.0,0.0
381,53.0,94,90,1.0,0.0
382,50.0,32,90,1.0,0.0
383,65.0,2,90,0.0,0.0
384,46.0,32,90,1.0,0.0
385,67.0,64,30,0.0,0.0
386,50.0,32,90,1.0,0.0
387,67.0,64,30,0.0,0.0
388,46.0,94,90,1.0,0.0
389,67.0,64,30,0.0,0.0
390,48.0,94,90,1.0,0.0
391,67.0,2,90,0.0,0.0
392,52.0,94,90,1.0,0.0
393,69.0,2,90,0.0,0.0
394,67.0,2,90,0.0,0.0
395,48.0,94,90,1.0,0.0
396,65.0,30,150,0.0,0.0
397,41.0,66,90,1.0,0.0
398,53.0,34,90,1.0,0.0
399,53.0,160,30,1.0,0.0
400,62.0,32,90,1.0,0.0
401,72.0,0,90,0.0,0.0
402,70.0,34,90,0.0,0.0
403,53.0,62,30,1.0,0.0
404,70.0,0,30,0.0,0.0
405,53.0,158,30,1.0,0.0
406,70.0,2,90,0.0,0.0
407,60.0,32,90,1.0,0.0
408,69.0,34,90,0.0,0.0
409,53.0,62,30,1.0,0.0
410,53.0,158,30,1.0,0.0
411,69.0,0,30,0.0,0.0
412,58.0,32,90,1.0,0.0
413,69.0,2,90,0.0,0.0
414,53.0,62,30,1.0,0.0
415,67.0,34,90,0.0,0.0
416,67.0,0,30,0.0,0.0
417,53.0,96,30,1.0,0.0
418,65.0,64,30,0.0,0.0
419,57.0,32,90,1.0,0.0
420,53.0,96,30,1.0,0.0
421,65.0,0,30,0.0,0.0
422,65.0,0,30,0.0,0.0
423,53.0,88,30,1.0,0.0
424,67.0,70,20,0.0,0.0
425,50.0,0,90,1.0,0.0
426,65.0,96,60,0.0,0.0
427,64.0,0,90,0.0,0.0
428,53.0,34,90,1.0,0.0
429,65.0,96,90,0.0,0.0
430,50.0,62,30,1.0,0.0
431,67.0,2,90,0.0,0.0
432,46.0,32,90,1.0,0.0
433,50.0,96,30,1.0,0.0
434,67.0,0,30,0.0,0.0
435,46.0,0,30,1.0,0.0
436,67.0,88,30,0.0,0.0
437,48.0,34,90,1.0,0.0
438,69.0,70,20,0.0,0.0
439,67.0,0,60,0.0,0.0
440,65.0,34,90,0.0,0.0
441,52.0,62,30,1.0,0.0
442,67.0,96,90,0.0,0.0
443,48.0,62,30,1.0,0.0
444,69.0,2,90,0.0,0.0
445,41.0,32,90,1.0,0.0
446,53.0,0,30,1.0,0.0
447,69.0,96,30,0.0,0.0
448,52.0,26,90,1.0,0.0
449,69.0,62,30,0.0,0.0
450,70.0,70,20,0.0,0.0
451,53.0,0,90,1.0,0.0
452,69.0,96,60,0.0,0.0
453,52.0,96,90,1.0,0.0
454,67.0,0,90,0.0,0.0
455,69.0,2,90,0.0,0.0
456,53.0,94,90,1.0,0.0
457,71.0,2,90,0.0,0.0
458,50.0,32,90,1.0,0.0
459,71.0,64,30,0.0,0.0
460,52.0,32,90,1.0,0.0
461,71.0,64,30,0.0,0.0
462,53.0,24,90,1.0,0.0
463,55.0,94,90,1.0,0.0
464,72.0,70,20,0.0,0.0
465,71.0,2,60,0.0,0.0
466,53.0,94,90,1.0,0.0
467,69.0,2,90,0.0,0.0
468,71.0,2,90,0.0,0.0
469,55.0,94,90,1.0,0.0
470,72.0,0,90,0.0,0.0
471,52.0,34,90,1.0,0.0
472,72.0,62,30,0.0,0.0
473,64.0,34,90,1.0,0.0
474,72.0,62,30,0.0,0.0
475,60.0,26,90,1.0,0.0
476,74.0,70,20,0.0,0.0
477,57.0,96,90,1.0,0.0
478,72.0,0,60,0.0,0.0
479,71.0,94,90,0.0,0.0
480,60.0,2,90,1.0,0.0
481,72.0,68,90,0.0,0.0
482,57.0,2,90,1.0,0.0
483,53.0,70,90,1.0,0.0
484,74.0,26,60,0.0,0.0
485,74.0,26,60,0.0,0.0
486,57.0,34,90,1.0,0.0
487,53.0,96,90,1.0,0.0
488,74.0,62,30,0.0,0.0
489,74.0,0,90,0.0,0.0
490,55.0,96,90,1.0,0.0
491,76.0,96,90,0.0,0.0
492,59.0,0,90,1.0,0.0
493,74.0,34,90,0.0,0.0
494,55.0,0,90,1.0,0.0
495,72.0,62,30,0.0,0.0
496,48.0,34,90,1.0,0.0
497,52.0,34,90,1.0,0.0
498,84.0,62,30,0.0,0.0
499,84.0,62,30,0.0,0.0
500,48.0,26,90,1.0,0.0
501,86.0,70,20,0.0,0.0
502,45.0,0,90,1.0,0.0
503,84.0,96,60,0.0,0.0
504,48.0,2,90,1.0,0.0
505,83.0,94,90,0.0,0.0
506,84.0,68,90,0.0,0.0
507,45.0,2,90,1.0,0.0
508,86.0,26,60,0.0,0.0
509,41.0,70,90,1.0,0.0
510,45.0,34,90,1.0,0.0
511,86.0,26,60,0.0,0.0
512,41.0,96,90,1.0,0.0
513,86.0,62,30,0.0,0.0
514,43.0,0,90,1.0,0.0
515,86.0,96,90,0.0,0.0
516,47.0,0,90,1.0,0.0
517,88.0,96,90,0.0,0.0
518,43.0,34,90,1.0,0.0
519,86.0,0,90,0.0,0.0
520,84.0,96,30,0.0,0.0
521,48.0,64,150,1.0,0.0
522,72.0,32,30,0.0,0.0
523,72.0,158,30,0.0,0.0
524,71.0,34,90,0.0,0.0
525,72.0,96,30,0.0,0.0
526,72.0,158,30,0.0,0.0
527,71.0,34,90,0.0,0.0
528,72.0,96,30,0.0,0.0
529,72.0,96,30,0.0,0.0
530,71.0,96,30,0.0,0.0
531,72.0,96,30,0.0,0.0
532,72.0,86,30,0.0,0.0
533,57.0,96,90,1.0,0.0
534,71.0,74,20,0.0,0.0
535,53.0,16,540,1.0,0.0
536,72.0,96,180,0.0,0.0
537,60.0,0,90,1.0,0.0
538,65.0,96,90,1.0,0.0
539,72.0,0,90,0.0,0.0
540,77.0,32,270,0.0,0.0
541,57.0,96,90,1.0,0.0
542,60.0,48,90,1.0,0.0
543,65.0,24,90,1.0,0.0
544,53.0,16,540,1.0,0.0
545,57.0,94,90,1.0,0.0
546,71.0,72,20,0.0,0.0
547,72.0,2,180,0.0,0.0
548,60.0,96,90,1.0,0.0
549,72.0,96,90,0.0,0.0
550,65.0,0,90,1.0,0.0
551,69.0,30,270,0.0,0.0
552,57.0,96,90,1.0,0.0
553,60.0,48,90,1.0,0.0
554,65.0,26,90,1.0,0.0
555,53.0,94,90,1.0,0.0
556,64.0,72,20,0.0,0.0
557,65.0,2,180,0.0,0.0
558,60.0,96,90,1.0,0.0
559,57.0,0,90,1.0,0.0
560,65.0,22,90,0.0,0.0
561,48.0,94,90,1.0,0.0
562,69.0,72,20,0.0,0.0
563,67.0,2,60,0.0,0.0
564,65.0,2,90,0.0,0.0
565,60.0,94,90,1.0,0.0
566,67.0,2,90,0.0,0.0
567,58.0,96,90,1.0,0.0
568,53.0,96,90,1.0,0.0
569,69.0,30,270,0.0,0.0
570,57.0,64,90,1.0,0.0
571,60.0,96,90,1.0,0.0
572,53.0,66,90,1.0,0.0
573,65.0,30,150,0.0,0.0
574,57.0,96,90,1.0,0.0
575,60.0,26,90,1.0,0.0
576,73.0,72,20,0.0,0.0
577,50.0,16,540,1.0,0.0
578,54.0,94,90,1.0,0.0
579,74.0,2,180,0.0,0.0
580,57.0,96,90,1.0,0.0
581,62.0,0,90,1.0,0.0
582,74.0,96,90,0.0,0.0
583,54.0,96,90,1.0,0.0
584,81.0,32,270,0.0,0.0
585,57.0,48,90,1.0,0.0
586,62.0,24,90,1.0,0.0
587,73.0,72,20,0.0,0.0
588,50.0,16,540,1.0,0.0
589,54.0,94,90,1.0,0.0
590,74.0,2,180,0.0,0.0
591,57.0,96,90,1.0,0.0
592,62.0,96,90,1.0,0.0
593,74.0,0,90,0.0,0.0
594,69.0,30,270,0.0,0.0
595,54.0,96,90,1.0,0.0
596,57.0,48,90,1.0,0.0
597,62.0,26,90,1.0,0.0
598,50.0,30,270,1.0,0.0
599,54.0,96,90,1.0,0.0
600,73.0,70,20,0.0,0.0
601,74.0,0,180,0.0,0.0
602,57.0,66,90,1.0,0.0
603,74.0,26,90,0.0,0.0
604,62.0,0,90,1.0,0.0
605,50.0,30,270,1.0,0.0
606,78.0,70,20,0.0,0.0
607,55.0,96,90,1.0,0.0
608,76.0,0,60,0.0,0.0
609,74.0,0,90,0.0,0.0
610,57.0,66,90,1.0,0.0
611,76.0,0,90,0.0,0.0
612,61.0,96,90,1.0,0.0
613,54.0,96,90,1.0,0.0
614,74.0,0,270,0.0,0.0
615,50.0,30,270,1.0,0.0
616,57.0,66,90,1.0,0.0
617,53.0,96,90,1.0,0.0
618,74.0,34,90,0.0,0.0
619,52.0,0,90,1.0,0.0
620,55.0,0,90,1.0,0.0
621,57.0,0,90,1.0,0.0
622,72.0,62,30,0.0,0.0
623,53.0,34,90,1.0,0.0
624,55.0,0,90,1.0,0.0
625,72.0,62,30,0.0,0.0
626,58.0,96,90,1.0,0.0
627,71.0,0,90,0.0,0.0
628,57.0,34,90,1.0,0.0
629,53.0,16,540,1.0,0.0
630,72.0,62,30,0.0,0.0
631,60.0,34,90,1.0,0.0
632,65.0,96,90,1.0,0.0
633,72.0,62,30,0.0,0.0
634,57.0,96,90,1.0,0.0
635,77.0,30,270,0.0,0.0
636,60.0,50,90,1.0,0.0
637,65.0,96,90,1.0,0.0
638,71.0,34,90,0.0,0.0
639,57.0,0,90,1.0,0.0
640,53.0,16,540,1.0,0.0
641,60.0,34,90,1.0,0.0
642,72.0,62,30,0.0,0.0
643,65.0,96,90,1.0,0.0
644,72.0,62,30,0.0,0.0
645,57.0,96,90,1.0,0.0
646,69.0,30,270,0.0,0.0
647,60.0,50,90,1.0,0.0
648,62.0,98,90,1.0,0.0
649,53.0,32,90,1.0,0.0
650,64.0,0,90,0.0,0.0
651,60.0,32,90,1.0,0.0
652,65.0,64,30,0.0,0.0
653,57.0,94,90,1.0,0.0
654,65.0,64,30,0.0,0.0
655,66.0,2,90,0.0,0.0
656,48.0,32,90,1.0,0.0
657,60.0,32,90,1.0,0.0
658,67.0,64,30,0.0,0.0
659,58.0,94,90,1.0,0.0
660,67.0,64,30,0.0,0.0
661,53.0,32,90,1.0,0.0
662,68.0,2,90,0.0,0.0
663,69.0,64,30,0.0,0.0
664,57.0,32,90,1.0,0.0
665,69.0,64,30,0.0,0.0
666,60.0,96,90,1.0,0.0
667,65.0,30,270,0.0,0.0
668,53.0,96,90,1.0,0.0
669,57.0,64,90,1.0,0.0
670,60.0,96,90,1.0,0.0
671,54.0,0,90,1.0,0.0
672,73.0,34,90,0.0,0.0
673,50.0,16,540,1.0,0.0
674,74.0,62,30,0.0,0.0
675,57.0,34,90,1.0,0.0
676,74.0,62,30,0.0,0.0
677,62.0,96,90,1.0,0.0
678,54.0,96,90,1.0,0.0
679,81.0,30,270,0.0,0.0
680,57.0,50,90,1.0,0.0
681,62.0,96,90,1.0,0.0
682,54.0,34,90,1.0,0.0
683,73.0,0,90,0.0,0.0
684,50.0,16,540,1.0,0.0
685,74.0,62,30,0.0,0.0
686,57.0,34,90,1.0,0.0
687,62.0,96,90,1.0,0.0
688,74.0,62,30,0.0,0.0
689,54.0,96,90,1.0,0.0
690,69.0,30,270,0.0,0.0
691,57.0,50,90,1.0,0.0
692,62.0,96,90,1.0,0.0
693,54.0,0,90,1.0,0.0
694,50.0,30,270,1.0,0.0
695,73.0,34,90,0.0,0.0
696,74.0,62,30,0.0,0.0
697,57.0,34,90,1.0,0.0
698,62.0,26,90,1.0,0.0
699,74.0,32,30,0.0,0.0
700,78.0,70,20,0.0,0.0
701,50.0,30,270,1.0,0.0
702,55.0,96,90,1.0,0.0
703,76.0,0,60,0.0,0.0
704,74.0,66,90,0.0,0.0
705,57.0,0,90,1.0,0.0
706,61.0,0,90,1.0,0.0
707,76.0,96,90,0.0,0.0
708,54.0,96,90,1.0,0.0
709,74.0,0,270,0.0,0.0
710,50.0,30,270,1.0,0.0
711,57.0,66,90,1.0,0.0
712,55.0,96,90,1.0,0.0
713,50.0,34,90,1.0,0.0
714,53.0,0,90,1.0,0.0
715,74.0,0,90,0.0,0.0
716,52.0,34,90,1.0,0.0
717,55.0,0,90,1.0,0.0
718,74.0,62,30,0.0,0.0
719,57.0,0,90,1.0,0.0
720,53.0,98,90,1.0,0.0
721,74.0,62,30,0.0,0.0
722,72.0,32,150,0.0,0.0
723,52.0,16,540,1.0,0.0
724,55.0,64,90,1.0,0.0
725,58.0,96,90,1.0,0.0
726,60.0,0,90,1.0,0.0
727,72.0,96,90,0.0,0.0
728,55.0,96,90,1.0,0.0
729,84.0,32,270,0.0,0.0
730,58.0,48,90,1.0,0.0
731,60.0,96,90,1.0,0.0
732,53.0,0,90,1.0,0.0
733,57.0,64,90,1.0,0.0
734,84.0,32,150,0.0,0.0
735,60.0,96,90,1.0,0.0
736,58.0,0,90,1.0,0.0
737,84.0,96,90,0.0,0.0
738,72.0,30,270,0.0,0.0
739,57.0,96,90,1.0,0.0
740,55.0,64,90,1.0,0.0
741,53.0,98,90,1.0,0.0
742,55.0,64,90,1.0,0.0
743,52.0,16,540,1.0,0.0
744,72.0,32,150,0.0,0.0
745,58.0,94,90,1.0,0.0
746,72.0,2,90,0.0,0.0
747,60.0,96,90,1.0,0.0
748,55.0,96,90,1.0,0.0
749,84.0,32,270,0.0,0.0
750,58.0,48,90,1.0,0.0
751,60.0,96,90,1.0,0.0
752,84.0,32,150,0.0,0.0
753,53.0,64,90,1.0,0.0
754,57.0,0,90,1.0,0.0
755,60.0,96,90,1.0,0.0
756,84.0,0,90,0.0,0.0
757,57.0,96,90,1.0,0.0
758,72.0,32,150,0.0,0.0
759,53.0,64,90,1.0,0.0
760,48.0,96,90,1.0,0.0
761,84.0,24,90,0.0,0.0
762,45.0,0,90,1.0,0.0
763,41.0,96,90,1.0,0.0
764,71.0,70,20,0.0,0.0
765,72.0,96,180,0.0,0.0
766,57.0,0,90,1.0,0.0
767,72.0,94,90,0.0,0.0
768,60.0,2,90,1.0,0.0
769,77.0,0,270,0.0,0.0
770,53.0,30,270,1.0,0.0
771,57.0,96,90,1.0,0.0
772,60.0,66,90,1.0,0.0
773,65.0,26,90,1.0,0.0
774,71.0,70,20,0.0,0.0
775,57.0,96,90,1.0,0.0
776,53.0,16,540,1.0,0.0
777,72.0,96,180,0.0,0.0
778,60.0,0,90,1.0,0.0
779,72.0,94,90,0.0,0.0
780,65.0,2,90,1.0,0.0
781,69.0,30,270,0.0,0.0
782,57.0,96,90,1.0,0.0
783,60.0,50,90,1.0,0.0
784,65.0,98,90,1.0,0.0
785,48.0,64,90,1.0,0.0
786,65.0,32,150,0.0,0.0
787,60.0,32,90,1.0,0.0
788,57.0,24,90,1.0,0.0
789,65.0,64,30,0.0,0.0
790,48.0,94,90,1.0,0.0
791,69.0,70,20,0.0,0.0
792,67.0,2,60,0.0,0.0
793,60.0,94,90,1.0,0.0
794,65.0,2,90,0.0,0.0
795,67.0,2,90,0.0,0.0
796,58.0,96,90,1.0,0.0
797,65.0,32,150,0.0,0.0
798,57.0,64,90,1.0,0.0
799,53.0,0,90,1.0,0.0
800,60.0,96,90,1.0,0.0
801,58.0,96,90,1.0,0.0
802,57.0,96,90,1.0,0.0
803,55.0,94,90,1.0,0.0
804,53.0,96,90,1.0,0.0
805,71.0,2,90,0.0,0.0
806,52.0,16,540,1.0,0.0
807,55.0,32,90,1.0,0.0
808,58.0,32,90,1.0,0.0
809,72.0,64,30,0.0,0.0
810,60.0,96,90,1.0,0.0
811,72.0,64,30,0.0,0.0
812,55.0,96,90,1.0,0.0
813,84.0,32,270,0.0,0.0
814,58.0,48,90,1.0,0.0
815,60.0,94,90,1.0,0.0
816,57.0,0,90,1.0,0.0
817,53.0,32,90,1.0,0.0
818,83.0,2,90,0.0,0.0
819,84.0,64,30,0.0,0.0
820,60.0,32,90,1.0,0.0
821,58.0,96,90,1.0,0.0
822,84.0,64,30,0.0,0.0
823,57.0,96,90,1.0,0.0
824,72.0,30,270,0.0,0.0
825,55.0,64,90,1.0,0.0
826,53.0,96,90,1.0,0.0
827,52.0,48,540,1.0,0.0
828,55.0,32,90,1.0,0.0
829,71.0,2,90,0.0,0.0
830,72.0,64,30,0.0,0.0
831,58.0,32,90,1.0,0.0
832,60.0,94,90,1.0,0.0
833,72.0,64,30,0.0,0.0
834,83.0,2,90,0.0,0.0
835,55.0,32,90,1.0,0.0
836,58.0,32,90,1.0,0.0
837,84.0,64,30,0.0,0.0
838,84.0,16,30,0.0,0.0
839,60.0,94,90,1.0,0.0
840,53.0,0,90,1.0,0.0
841,57.0,32,90,1.0,0.0
842,83.0,2,90,0.0,0.0
843,60.0,32,90,1.0,0.0
844,84.0,64,30,0.0,0.0
845,57.0,94,90,1.0,0.0
846,84.0,64,30,0.0,0.0
847,53.0,32,90,1.0,0.0
848,71.0,2,90,0.0,0.0
849,48.0,32,90,1.0,0.0
850,72.0,64,30,0.0,0.0
851,72.0,62,30,0.0,0.0
852,45.0,96,90,1.0,0.0
853,71.0,2,90,0.0,0.0
854,41.0,32,90,1.0,0.0
855,72.0,64,30,0.0,0.0
856,57.0,32,90,1.0,0.0
857,72.0,64,30,0.0,0.0
858,60.0,96,90,1.0,0.0
859,53.0,0,270,1.0,0.0
860,57.0,96,90,1.0,0.0
861,77.0,32,270,0.0,0.0
862,60.0,64,90,1.0,0.0
863,65.0,94,90,1.0,0.0
864,71.0,2,90,0.0,0.0
865,57.0,32,90,1.0,0.0
866,53.0,16,540,1.0,0.0
867,60.0,32,90,1.0,0.0
868,72.0,64,30,0.0,0.0
869,65.0,96,90,1.0,0.0
870,72.0,64,30,0.0,0.0
871,69.0,30,270,0.0,0.0
872,57.0,96,90,1.0,0.0
873,60.0,48,90,1.0,0.0
874,65.0,96,90,1.0,0.0
875,48.0,32,90,1.0,0.0
876,64.0,2,90,0.0,0.0
877,65.0,64,30,0.0,0.0
878,60.0,32,90,1.0,0.0
879,57.0,24,90,1.0,0.0
880,65.0,64,30,0.0,0.0
881,69.0,70,20,0.0,0.0
882,48.0,94,90,1.0,0.0
883,67.0,2,60,0.0,0.0
884,60.0,94,90,1.0,0.0
885,65.0,2,90,0.0,0.0
886,67.0,2,90,0.0,0.0
887,58.0,32,90,1.0,0.0
888,53.0,96,30,1.0,0.0
889,57.0,0,30,1.0,0.0
890,65.0,64,150,0.0,0.0
891,53.0,32,30,1.0,0.0
892,53.0,160,30,1.0,0.0
893,41.0,32,90,1.0,0.0
894,62.0,0,270,0.0,0.0
895,70.0,128,270,0.0,0.0
896,53.0,96,30,1.0,0.0
897,53.0,32,30,1.0,0.0
898,69.0,0,270,0.0,0.0
899,41.0,32,90,1.0,0.0
900,60.0,128,270,0.0,0.0
901,53.0,96,30,1.0,0.0
902,53.0,32,30,1.0,0.0
903,67.0,0,270,0.0,0.0
904,58.0,64,270,0.0,0.0
905,41.0,32,90,1.0,0.0
906,53.0,96,30,1.0,0.0
907,53.0,32,30,1.0,0.0
908,41.0,62,30,1.0,0.0
909,57.0,0,90,0.0,0.0
910,65.0,34,90,0.0,0.0
911,65.0,62,30,0.0,0.0
912,57.0,34,90,1.0,0.0
913,53.0,26,90,1.0,0.0
914,65.0,62,30,0.0,0.0
915,50.0,96,90,1.0,0.0
916,67.0,70,20,0.0,0.0
917,65.0,0,60,0.0,0.0
918,64.0,96,90,0.0,0.0
919,53.0,0,90,1.0,0.0
920,65.0,96,90,0.0,0.0
921,50.0,0,90,1.0,0.0
922,46.0,0,90,1.0,0.0
923,67.0,96,90,0.0,0.0
924,50.0,96,90,1.0,0.0
925,67.0,0,90,0.0,0.0
926,67.0,0,90,0.0,0.0
927,46.0,96,90,1.0,0.0
928,67.0,96,90,0.0,0.0
929,48.0,0,90,1.0,0.0
930,69.0,0,90,0.0,0.0
931,52.0,96,90,1.0,0.0
932,67.0,0,90,0.0,0.0
933,48.0,98,90,1.0,0.0
934,65.0,64,150,0.0,0.0
935,41.0,32,90,1.0,0.0
936,53.0,32,30,1.0,0.0
937,53.0,158,30,1.0,0.0
938,62.0,32,90,1.0,0.0
939,72.0,2,90,0.0,0.0
940,53.0,0,30,1.0,0.0
941,70.0,96,30,0.0,0.0
942,70.0,0,30,0.0,0.0
943,53.0,158,30,1.0,0.0
944,60.0,32,90,1.0,0.0
945,70.0,2,90,0.0,0.0
946,69.0,0,30,0.0,0.0
947,53.0,96,30,1.0,0.0
948,69.0,0,30,0.0,0.0
949,53.0,158,30,1.0,0.0
950,69.0,2,90,0.0,0.0
951,58.0,32,90,1.0,0.0
952,53.0,0,30,1.0,0.0
953,67.0,96,30,0.0,0.0
954,67.0,0,30,0.0,0.0
955,53.0,158,30,1.0,0.0
956,57.0,32,90,1.0,0.0
957,65.0,2,90,0.0,0.0
958,53.0,62,30,1.0,0.0
959,77.0,34,90,0.0,0.0
960,53.0,88,30,1.0,0.0
961,77.0,0,30,0.0,0.0
962,79.0,70,20,0.0,0.0
963,50.0,94,90,1.0,0.0
964,77.0,2,60,0.0,0.0
965,76.0,2,90,0.0,0.0
966,53.0,94,90,1.0,0.0
967,77.0,2,90,0.0,0.0
968,50.0,94,90,1.0,0.0
969,79.0,2,90,0.0,0.0
970,46.0,32,90,1.0,0.0
971,50.0,32,90,1.0,0.0
972,79.0,64,30,0.0,0.0
973,46.0,32,90,1.0,0.0
974,79.0,64,30,0.0,0.0
975,79.0,64,30,0.0,0.0
976,48.0,94,90,1.0,0.0
977,52.0,94,90,1.0,0.0
978,81.0,2,90,0.0,0.0
979,79.0,2,90,0.0,0.0
980,48.0,94,90,1.0,0.0
981,77.0,34,90,0.0,0.0
982,41.0,0,90,1.0,0.0
983,45.0,32,90,1.0,0.0
984,89.0,64,30,0.0,0.0
985,41.0,96,90,1.0,0.0
986,89.0,64,30,0.0,0.0
987,38.0,0,90,1.0,0.0
988,81.0,32,90,0.0,0.0
989,41.0,32,90,1.0,0.0
990,89.0,64,30,0.0,0.0
991,89.0,64,30,0.0,0.0
992,38.0,96,90,1.0,0.0
993,34.0,0,90,1.0,0.0
994,79.0,32,90,0.0,0.0
995,38.0,32,90,1.0,0.0
996,89.0,64,30,0.0,0.0
997,34.0,96,90,1.0,0.0
998,89.0,64,30,0.0,0.0
999,79.0,0,90,0.0,0.0
1000,36.0,32,90,1.0,0.0
1001,35.0,32,90,1.0,0.0
1002,88.0,64,30,0.0,0.0
1003,36.0,48,90,1.0,0.0
1004,88.0,64,30,0.0,0.0
1005,89.0,46,60,0.0,0.0
1006,29.0,96,90,1.0,0.0
1007,33.0,96,90,1.0,0.0
1008,36.0,96,90,1.0,0.0
1009,29.0,66,90,1.0,0.0
1010,57.0,30,150,0.0,0.0
1011,60.0,0,150,0.0,0.0
1012,65.0,0,150,0.0,0.0
1013,33.0,96,90,1.0,0.0
1014,36.0,162,90,1.0,0.0
1015,29.0,0,150,1.0,0.0
1016,53.0,0,150,0.0,0.0
