,note,step,duration,channel,velocity
0,48.0,60,60,1.0,0.0
1,67.0,0,240,0.0,0.0
2,64.0,0,15,1.0,0.0
3,60.0,60,15,1.0,0.0
4,60.0,60,15,1.0,0.0
5,64.0,0,15,1.0,0.0
6,60.0,60,60,1.0,0.0
7,64.0,60,15,1.0,0.0
8,76.0,60,240,0.0,0.0
9,64.0,0,60,1.0,0.0
10,60.0,60,15,1.0,0.0
11,64.0,60,15,1.0,0.0
12,60.0,0,60,1.0,0.0
13,64.0,0,60,1.0,0.0
14,72.0,60,240,0.0,0.0
15,60.0,60,60,1.0,0.0
16,64.0,0,60,1.0,0.0
17,60.0,60,15,1.0,0.0
18,64.0,60,15,1.0,0.0
19,60.0,0,60,1.0,0.0
20,79.0,0,240,0.0,0.0
21,64.0,0,15,1.0,0.0
22,60.0,60,15,1.0,0.0
23,60.0,0,15,1.0,0.0
24,64.0,60,15,1.0,0.0
25,76.0,0,120,0.0,0.0
26,60.0,0,60,1.0,0.0
27,64.0,60,15,1.0,0.0
28,60.0,0,60,1.0,0.0
29,84.0,0,120,0.0,0.0
30,60.0,0,60,1.0,0.0
31,64.0,60,15,1.0,0.0
32,79.0,0,120,0.0,0.0
33,60.0,60,15,1.0,0.0
34,64.0,0,15,1.0,0.0
35,60.0,0,15,1.0,0.0
36,64.0,60,15,1.0,0.0
37,64.0,60,15,1.0,0.0
38,88.0,60,120,0.0,0.0
39,60.0,60,15,1.0,0.0
40,64.0,0,15,1.0,0.0
41,84.0,0,240,0.0,0.0
42,60.0,0,60,1.0,0.0
43,64.0,60,60,1.0,0.0
44,64.0,60,60,1.0,0.0
45,60.0,0,15,1.0,0.0
46,60.0,60,15,1.0,0.0
47,64.0,0,15,1.0,0.0
48,55.0,30,60,1.0,0.0
49,83.0,30,30,0.0,0.0
50,84.0,0,30,0.0,0.0
51,86.0,30,30,0.0,0.0
52,84.0,0,30,0.0,0.0
53,83.0,30,30,0.0,0.0
54,62.0,0,15,1.0,0.0
55,65.0,30,15,1.0,0.0
56,84.0,0,30,0.0,0.0
57,65.0,0,15,1.0,0.0
58,62.0,0,60,1.0,0.0
59,86.0,30,30,0.0,0.0
60,83.0,60,30,0.0,0.0
61,84.0,0,60,0.0,0.0
62,48.0,60,60,1.0,0.0
63,88.0,0,60,0.0,0.0
64,64.0,0,60,1.0,0.0
65,79.0,30,120,0.0,0.0
66,60.0,60,15,1.0,0.0
67,64.0,0,15,1.0,0.0
68,60.0,60,15,1.0,0.0
69,55.0,30,60,1.0,0.0
70,83.0,30,30,0.0,0.0
71,84.0,0,30,0.0,0.0
72,86.0,30,30,0.0,0.0
73,84.0,0,30,0.0,0.0
74,83.0,30,30,0.0,0.0
75,62.0,30,15,1.0,0.0
76,65.0,0,15,1.0,0.0
77,84.0,30,30,0.0,0.0
78,65.0,0,15,1.0,0.0
79,86.0,30,30,0.0,0.0
80,62.0,0,15,1.0,0.0
81,83.0,0,30,0.0,0.0
82,48.0,0,120,1.0,0.0
83,84.0,180,120,0.0,0.0
84,48.0,60,60,1.0,0.0
85,67.0,60,240,0.0,0.0
86,60.0,0,15,1.0,0.0
87,64.0,60,15,1.0,0.0
88,64.0,0,15,1.0,0.0
89,60.0,60,15,1.0,0.0
90,76.0,60,240,0.0,0.0
91,64.0,0,15,1.0,0.0
92,60.0,0,60,1.0,0.0
93,64.0,60,15,1.0,0.0
94,60.0,60,15,1.0,0.0
95,64.0,0,15,1.0,0.0
96,60.0,60,15,1.0,0.0
97,64.0,0,15,1.0,0.0
98,72.0,0,240,0.0,0.0
99,64.0,0,60,1.0,0.0
100,60.0,60,15,1.0,0.0
101,64.0,60,60,1.0,0.0
102,60.0,0,60,1.0,0.0
103,64.0,60,60,1.0,0.0
104,64.0,60,60,1.0,0.0
105,60.0,0,60,1.0,0.0
106,79.0,0,240,0.0,0.0
107,60.0,60,15,1.0,0.0
108,64.0,0,15,1.0,0.0
109,64.0,60,60,1.0,0.0
110,60.0,0,60,1.0,0.0
111,60.0,0,60,1.0,0.0
112,76.0,0,120,0.0,0.0
113,64.0,60,15,1.0,0.0
114,60.0,0,60,1.0,0.0
115,60.0,0,60,1.0,0.0
116,64.0,60,15,1.0,0.0
117,84.0,60,120,0.0,0.0
118,60.0,0,60,1.0,0.0
119,64.0,0,60,1.0,0.0
120,60.0,0,60,1.0,0.0
121,79.0,60,120,0.0,0.0
122,64.0,0,60,1.0,0.0
123,60.0,60,15,1.0,0.0
124,64.0,0,60,1.0,0.0
125,60.0,60,60,1.0,0.0
126,88.0,0,120,0.0,0.0
127,64.0,0,15,1.0,0.0
128,84.0,0,240,0.0,0.0
129,60.0,60,15,1.0,0.0
130,60.0,60,15,1.0,0.0
131,64.0,0,15,1.0,0.0
132,60.0,60,15,1.0,0.0
133,64.0,0,60,1.0,0.0
134,64.0,30,60,1.0,0.0
135,60.0,60,15,1.0,0.0
136,83.0,30,30,0.0,0.0
137,55.0,0,60,1.0,0.0
138,84.0,30,30,0.0,0.0
139,65.0,0,60,1.0,0.0
140,86.0,30,30,0.0,0.0
141,84.0,30,30,0.0,0.0
142,83.0,30,30,0.0,0.0
143,62.0,0,15,1.0,0.0
144,65.0,0,60,1.0,0.0
145,84.0,0,30,0.0,0.0
146,86.0,30,30,0.0,0.0
147,62.0,30,15,1.0,0.0
148,65.0,0,60,1.0,0.0
149,83.0,60,30,0.0,0.0
150,84.0,0,60,0.0,0.0
151,48.0,60,60,1.0,0.0
152,88.0,0,60,0.0,0.0
153,64.0,0,60,1.0,0.0
154,60.0,60,15,1.0,0.0
155,79.0,0,120,0.0,0.0
156,60.0,60,15,1.0,0.0
157,64.0,0,15,1.0,0.0
158,83.0,30,30,0.0,0.0
159,55.0,30,60,1.0,0.0
160,84.0,0,30,0.0,0.0
161,86.0,30,30,0.0,0.0
162,65.0,0,60,1.0,0.0
163,62.0,0,60,1.0,0.0
164,84.0,30,30,0.0,0.0
165,65.0,0,60,1.0,0.0
166,62.0,0,60,1.0,0.0
167,83.0,30,30,0.0,0.0
168,84.0,30,30,0.0,0.0
169,62.0,0,60,1.0,0.0
170,65.0,0,60,1.0,0.0
171,86.0,30,30,0.0,0.0
172,83.0,120,30,0.0,0.0
173,48.0,150,120,1.0,0.0
174,84.0,0,120,0.0,0.0
175,52.0,30,60,1.0,0.0
176,80.0,30,30,0.0,0.0
177,81.0,0,30,0.0,0.0
178,83.0,30,30,0.0,0.0
179,64.0,0,60,1.0,0.0
180,81.0,30,30,0.0,0.0
181,59.0,0,15,1.0,0.0
182,62.0,0,15,1.0,0.0
183,64.0,0,60,1.0,0.0
184,80.0,30,30,0.0,0.0
185,81.0,0,30,0.0,0.0
186,83.0,30,30,0.0,0.0
187,59.0,30,15,1.0,0.0
188,62.0,0,15,1.0,0.0
189,64.0,0,60,1.0,0.0
190,81.0,30,30,0.0,0.0
191,62.0,30,60,1.0,0.0
192,80.0,30,30,0.0,0.0
193,59.0,0,60,1.0,0.0
194,81.0,0,30,0.0,0.0
195,83.0,30,30,0.0,0.0
196,64.0,0,15,1.0,0.0
197,62.0,0,60,1.0,0.0
198,81.0,0,30,0.0,0.0
199,59.0,30,15,1.0,0.0
200,64.0,0,60,1.0,0.0
201,62.0,0,60,1.0,0.0
202,80.0,30,30,0.0,0.0
203,81.0,30,30,0.0,0.0
204,59.0,0,15,1.0,0.0
205,83.0,30,30,0.0,0.0
206,81.0,0,30,0.0,0.0
207,64.0,0,15,1.0,0.0
208,62.0,30,15,1.0,0.0
209,59.0,0,15,1.0,0.0
210,80.0,30,30,0.0,0.0
211,81.0,30,30,0.0,0.0
212,83.0,30,30,0.0,0.0
213,59.0,0,15,1.0,0.0
214,62.0,0,15,1.0,0.0
215,64.0,0,15,1.0,0.0
216,81.0,0,30,0.0,0.0
217,59.0,30,15,1.0,0.0
218,62.0,0,60,1.0,0.0
219,80.0,30,30,0.0,0.0
220,81.0,0,30,0.0,0.0
221,64.0,30,15,1.0,0.0
222,59.0,0,15,1.0,0.0
223,83.0,30,30,0.0,0.0
224,62.0,0,60,1.0,0.0
225,80.0,0,30,0.0,0.0
226,76.0,0,240,0.0,0.0
227,88.0,30,240,0.0,0.0
228,60.0,0,15,1.0,0.0
229,64.0,60,15,1.0,0.0
230,57.0,0,15,1.0,0.0
231,64.0,0,15,1.0,0.0
232,57.0,60,15,1.0,0.0
233,64.0,0,60,1.0,0.0
234,60.0,60,15,1.0,0.0
235,57.0,0,15,1.0,0.0
236,52.0,30,60,1.0,0.0
237,80.0,30,30,0.0,0.0
238,81.0,0,30,0.0,0.0
239,83.0,30,30,0.0,0.0
240,59.0,0,60,1.0,0.0
241,64.0,0,60,1.0,0.0
242,62.0,0,60,1.0,0.0
243,81.0,30,30,0.0,0.0
244,80.0,30,30,0.0,0.0
245,81.0,0,30,0.0,0.0
246,83.0,30,30,0.0,0.0
247,59.0,0,15,1.0,0.0
248,62.0,30,15,1.0,0.0
249,64.0,0,15,1.0,0.0
250,81.0,30,30,0.0,0.0
251,64.0,0,15,1.0,0.0
252,80.0,30,30,0.0,0.0
253,62.0,0,60,1.0,0.0
254,81.0,0,30,0.0,0.0
255,83.0,30,30,0.0,0.0
256,64.0,0,15,1.0,0.0
257,62.0,0,60,1.0,0.0
258,59.0,30,15,1.0,0.0
259,81.0,0,30,0.0,0.0
260,80.0,30,30,0.0,0.0
261,59.0,30,15,1.0,0.0
262,64.0,0,15,1.0,0.0
263,62.0,0,60,1.0,0.0
264,81.0,0,30,0.0,0.0
265,64.0,0,60,1.0,0.0
266,59.0,30,60,1.0,0.0
267,83.0,30,30,0.0,0.0
268,81.0,0,30,0.0,0.0
269,62.0,0,15,1.0,0.0
270,80.0,30,30,0.0,0.0
271,81.0,0,30,0.0,0.0
272,59.0,0,15,1.0,0.0
273,62.0,0,15,1.0,0.0
274,64.0,30,15,1.0,0.0
275,83.0,30,30,0.0,0.0
276,81.0,30,30,0.0,0.0
277,59.0,0,15,1.0,0.0
278,64.0,0,15,1.0,0.0
279,80.0,30,30,0.0,0.0
280,81.0,0,30,0.0,0.0
281,59.0,0,15,1.0,0.0
282,62.0,30,15,1.0,0.0
283,64.0,0,60,1.0,0.0
284,83.0,30,30,0.0,0.0
285,80.0,60,30,0.0,0.0
286,65.0,0,60,1.0,0.0
287,62.0,0,15,1.0,0.0
288,59.0,0,60,1.0,0.0
289,79.0,60,240,0.0,0.0
290,62.0,60,15,1.0,0.0
291,65.0,0,60,1.0,0.0
292,59.0,0,60,1.0,0.0
293,65.0,0,60,1.0,0.0
294,59.0,60,15,1.0,0.0
295,65.0,0,60,1.0,0.0
296,62.0,0,15,1.0,0.0
297,48.0,60,60,1.0,0.0
298,67.0,0,240,0.0,0.0
299,64.0,60,60,1.0,0.0
300,60.0,0,15,1.0,0.0
301,64.0,0,60,1.0,0.0
302,64.0,0,60,1.0,0.0
303,60.0,60,15,1.0,0.0
304,64.0,60,60,1.0,0.0
305,60.0,60,15,1.0,0.0
306,76.0,0,240,0.0,0.0
307,60.0,0,15,1.0,0.0
308,64.0,60,15,1.0,0.0
309,64.0,0,60,1.0,0.0
310,64.0,0,60,1.0,0.0
311,60.0,60,15,1.0,0.0
312,72.0,60,240,0.0,0.0
313,60.0,60,15,1.0,0.0
314,64.0,60,60,1.0,0.0
315,60.0,60,15,1.0,0.0
316,64.0,0,15,1.0,0.0
317,79.0,60,240,0.0,0.0
318,60.0,0,60,1.0,0.0
319,64.0,60,15,1.0,0.0
320,60.0,0,60,1.0,0.0
321,64.0,60,15,1.0,0.0
322,60.0,0,60,1.0,0.0
323,64.0,0,60,1.0,0.0
324,60.0,0,60,1.0,0.0
325,76.0,0,120,0.0,0.0
326,60.0,0,15,1.0,0.0
327,64.0,60,15,1.0,0.0
328,84.0,60,120,0.0,0.0
329,64.0,60,60,1.0,0.0
330,60.0,0,60,1.0,0.0
331,60.0,0,60,1.0,0.0
332,64.0,0,15,1.0,0.0
333,60.0,0,60,1.0,0.0
334,79.0,0,120,0.0,0.0
335,60.0,0,15,1.0,0.0
336,64.0,60,15,1.0,0.0
337,88.0,0,120,0.0,0.0
338,64.0,60,60,1.0,0.0
339,60.0,0,60,1.0,0.0
340,84.0,30,240,0.0,0.0
341,60.0,0,60,1.0,0.0
342,60.0,0,60,1.0,0.0
343,64.0,60,15,1.0,0.0
344,64.0,60,15,1.0,0.0
345,60.0,0,15,1.0,0.0
346,83.0,30,30,0.0,0.0
347,55.0,0,60,1.0,0.0
348,84.0,30,30,0.0,0.0
349,86.0,30,30,0.0,0.0
350,84.0,30,30,0.0,0.0
351,65.0,0,15,1.0,0.0
352,62.0,0,15,1.0,0.0
353,83.0,30,30,0.0,0.0
354,84.0,30,30,0.0,0.0
355,62.0,0,15,1.0,0.0
356,86.0,30,30,0.0,0.0
357,65.0,0,60,1.0,0.0
358,83.0,60,30,0.0,0.0
359,84.0,0,60,0.0,0.0
360,48.0,60,60,1.0,0.0
361,60.0,0,60,1.0,0.0
362,64.0,0,60,1.0,0.0
363,88.0,60,60,0.0,0.0
364,79.0,30,120,0.0,0.0
365,64.0,60,15,1.0,0.0
366,60.0,0,15,1.0,0.0
367,55.0,30,60,1.0,0.0
368,83.0,30,30,0.0,0.0
369,84.0,0,30,0.0,0.0
370,86.0,30,30,0.0,0.0
371,84.0,30,30,0.0,0.0
372,62.0,0,15,1.0,0.0
373,65.0,0,15,1.0,0.0
374,83.0,30,30,0.0,0.0
375,84.0,0,30,0.0,0.0
376,86.0,30,30,0.0,0.0
377,65.0,120,60,1.0,0.0
378,62.0,0,60,1.0,0.0
379,83.0,0,30,0.0,0.0
380,84.0,0,120,0.0,0.0
381,48.0,0,120,1.0,0.0
