,note,step,duration,channel,velocity
0,45.0,0,60,2.0,0.0
1,61.0,0,60,1.0,0.0
2,64.0,0,60,1.0,0.0
3,69.0,0,120,0.0,0.0
4,69.0,0,60,1.0,0.0
5,57.0,60,60,2.0,0.0
6,52.0,60,60,2.0,0.0
7,61.0,0,60,1.0,0.0
8,69.0,60,60,1.0,0.0
9,57.0,0,60,2.0,0.0
10,45.0,0,60,2.0,0.0
11,64.0,0,60,1.0,0.0
12,69.0,0,60,0.0,0.0
13,69.0,60,60,0.0,0.0
14,52.0,0,60,2.0,0.0
15,69.0,0,60,1.0,0.0
16,64.0,0,60,1.0,0.0
17,61.0,0,60,1.0,0.0
18,57.0,0,60,2.0,0.0
19,45.0,0,60,2.0,0.0
20,69.0,15,60,0.0,0.0
21,52.0,0,60,2.0,0.0
22,71.0,15,15,0.0,0.0
23,69.0,15,15,0.0,0.0
24,68.0,15,15,0.0,0.0
25,69.0,60,15,0.0,0.0
26,69.0,60,60,1.0,0.0
27,64.0,0,60,1.0,0.0
28,61.0,0,60,1.0,0.0
29,57.0,0,60,2.0,0.0
30,73.0,0,60,0.0,0.0
31,45.0,0,60,2.0,0.0
32,69.0,60,60,0.0,0.0
33,52.0,0,60,2.0,0.0
34,47.0,0,60,2.0,0.0
35,59.0,60,60,2.0,0.0
36,74.0,0,180,0.0,0.0
37,62.0,0,60,1.0,0.0
38,68.0,0,60,1.0,0.0
39,64.0,0,60,1.0,0.0
40,52.0,60,60,2.0,0.0
41,59.0,0,60,2.0,0.0
42,47.0,0,60,2.0,0.0
43,62.0,0,60,1.0,0.0
44,64.0,0,60,1.0,0.0
45,68.0,60,60,1.0,0.0
46,52.0,60,60,2.0,0.0
47,71.0,0,60,0.0,0.0
48,64.0,0,60,1.0,0.0
49,68.0,0,60,1.0,0.0
50,68.0,0,120,0.0,0.0
51,47.0,60,60,2.0,0.0
52,59.0,0,60,2.0,0.0
53,62.0,0,60,1.0,0.0
54,52.0,60,60,2.0,0.0
55,47.0,0,60,2.0,0.0
56,59.0,60,60,2.0,0.0
57,62.0,0,60,1.0,0.0
58,64.0,0,60,1.0,0.0
59,68.0,0,60,1.0,0.0
60,52.0,60,60,2.0,0.0
61,57.0,0,60,2.0,0.0
62,69.0,0,60,0.0,0.0
63,61.0,0,60,1.0,0.0
64,64.0,0,60,1.0,0.0
65,69.0,60,60,1.0,0.0
66,45.0,0,60,2.0,0.0
67,52.0,0,60,2.0,0.0
68,76.0,60,60,0.0,0.0
69,64.0,0,60,1.0,0.0
70,57.0,0,60,2.0,0.0
71,45.0,60,60,2.0,0.0
72,75.0,0,60,0.0,0.0
73,69.0,0,60,1.0,0.0
74,61.0,0,60,1.0,0.0
75,76.0,60,60,0.0,0.0
76,52.0,0,60,2.0,0.0
77,69.0,60,60,1.0,0.0
78,64.0,0,60,1.0,0.0
79,74.0,0,60,0.0,0.0
80,45.0,0,60,2.0,0.0
81,61.0,0,60,1.0,0.0
82,57.0,0,60,2.0,0.0
83,52.0,0,60,2.0,0.0
84,73.0,60,60,0.0,0.0
85,57.0,60,60,2.0,0.0
86,45.0,0,60,2.0,0.0
87,69.0,0,60,1.0,0.0
88,64.0,0,60,1.0,0.0
89,61.0,0,60,1.0,0.0
90,71.0,0,60,0.0,0.0
91,69.0,60,60,0.0,0.0
92,52.0,0,60,2.0,0.0
93,68.0,0,60,1.0,0.0
94,64.0,0,60,1.0,0.0
95,59.0,0,60,2.0,0.0
96,47.0,0,60,2.0,0.0
97,62.0,0,60,1.0,0.0
98,74.0,60,60,0.0,0.0
99,71.0,0,60,0.0,0.0
100,52.0,60,60,2.0,0.0
101,68.0,0,120,0.0,0.0
102,59.0,0,60,2.0,0.0
103,47.0,0,60,2.0,0.0
104,68.0,60,60,1.0,0.0
105,64.0,0,60,1.0,0.0
106,62.0,0,60,1.0,0.0
107,52.0,60,60,2.0,0.0
108,68.0,0,60,1.0,0.0
109,62.0,0,60,1.0,0.0
110,64.0,0,60,1.0,0.0
111,59.0,0,60,2.0,0.0
112,47.0,60,60,2.0,0.0
113,52.0,60,60,2.0,0.0
114,62.0,0,60,1.0,0.0
115,59.0,0,60,2.0,0.0
116,47.0,60,60,2.0,0.0
117,68.0,0,60,1.0,0.0
118,64.0,0,60,1.0,0.0
119,52.0,60,60,2.0,0.0
120,61.0,60,60,1.0,0.0
121,57.0,0,60,2.0,0.0
122,64.0,0,60,1.0,0.0
123,69.0,0,60,1.0,0.0
124,45.0,0,60,2.0,0.0
125,52.0,0,60,2.0,0.0
126,69.0,60,60,1.0,0.0
127,64.0,0,60,1.0,0.0
128,61.0,0,60,1.0,0.0
129,69.0,60,15,0.0,0.0
130,57.0,0,60,2.0,0.0
131,45.0,0,60,2.0,0.0
132,71.0,0,60,0.0,0.0
133,52.0,60,60,2.0,0.0
134,73.0,60,120,0.0,0.0
135,45.0,60,60,2.0,0.0
136,57.0,0,60,2.0,0.0
137,64.0,0,60,1.0,0.0
138,69.0,0,60,1.0,0.0
139,73.0,0,60,1.0,0.0
140,52.0,0,60,2.0,0.0
141,45.0,0,60,2.0,0.0
142,57.0,60,60,2.0,0.0
143,71.0,0,60,1.0,0.0
144,75.0,0,60,1.0,0.0
145,66.0,0,60,1.0,0.0
146,75.0,60,120,0.0,0.0
147,52.0,0,60,2.0,0.0
148,71.0,60,60,1.0,0.0
149,76.0,0,60,1.0,0.0
150,64.0,0,60,1.0,0.0
151,76.0,0,300,0.0,0.0
152,56.0,0,60,2.0,0.0
153,44.0,0,60,2.0,0.0
154,52.0,60,60,2.0,0.0
155,56.0,60,60,2.0,0.0
156,76.0,0,60,1.0,0.0
157,71.0,0,60,1.0,0.0
158,44.0,0,60,2.0,0.0
159,64.0,0,60,1.0,0.0
160,52.0,60,60,2.0,0.0
161,76.0,0,60,1.0,0.0
162,64.0,60,60,1.0,0.0
163,56.0,0,60,2.0,0.0
164,44.0,0,60,2.0,0.0
165,71.0,0,60,1.0,0.0
166,75.0,0,60,0.0,0.0
167,52.0,60,60,2.0,0.0
168,44.0,0,60,2.0,0.0
169,56.0,0,60,2.0,0.0
170,64.0,60,60,1.0,0.0
171,71.0,0,60,1.0,0.0
172,73.0,0,60,0.0,0.0
173,52.0,0,60,2.0,0.0
174,71.0,60,60,0.0,0.0
175,64.0,0,60,1.0,0.0
176,73.0,0,60,1.0,0.0
177,45.0,60,60,2.0,0.0
178,73.0,30,210,0.0,0.0
179,57.0,0,60,2.0,0.0
180,52.0,60,60,2.0,0.0
181,45.0,0,60,2.0,0.0
182,57.0,0,60,2.0,0.0
183,64.0,30,60,1.0,0.0
184,73.0,0,60,1.0,0.0
185,54.0,60,60,2.0,0.0
186,76.0,0,15,0.0,0.0
187,75.0,0,60,0.0,0.0
188,47.0,60,60,2.0,0.0
189,59.0,0,60,2.0,0.0
190,69.0,0,60,1.0,0.0
191,66.0,0,60,1.0,0.0
192,75.0,0,60,1.0,0.0
193,54.0,0,60,2.0,0.0
194,73.0,60,60,0.0,0.0
195,66.0,0,60,1.0,0.0
196,69.0,0,60,1.0,0.0
197,47.0,0,60,2.0,0.0
198,59.0,0,60,2.0,0.0
199,75.0,0,60,1.0,0.0
200,75.0,60,60,0.0,0.0
201,54.0,120,60,2.0,0.0
202,78.0,0,60,0.0,0.0
203,68.0,0,120,1.0,0.0
204,76.0,0,120,1.0,0.0
205,76.0,240,120,0.0,0.0
206,40.0,0,120,2.0,0.0
207,52.0,0,120,2.0,0.0
208,71.0,0,240,1.0,0.0
209,59.0,120,240,2.0,0.0
210,56.0,0,120,2.0,0.0
211,68.0,120,120,1.0,0.0
212,64.0,60,120,1.0,0.0
213,52.0,0,120,2.0,0.0
214,71.0,0,120,0.0,0.0
215,71.0,60,60,0.0,0.0
216,69.0,60,60,0.0,0.0
217,68.0,60,60,0.0,0.0
218,71.0,60,60,0.0,0.0
219,69.0,60,60,0.0,0.0
220,73.0,120,15,0.0,0.0
221,71.0,120,120,0.0,0.0
222,52.0,10,240,2.0,0.0
223,56.0,10,240,2.0,0.0
224,59.0,10,240,2.0,0.0
225,62.0,10,240,2.0,0.0
226,64.0,10,240,1.0,0.0
227,68.0,10,240,1.0,0.0
228,71.0,60,240,1.0,0.0
229,74.0,0,210,1.0,0.0
230,71.0,120,60,1.0,0.0
231,59.0,0,60,2.0,0.0
232,74.0,60,120,0.0,0.0
233,52.0,0,240,2.0,0.0
234,56.0,10,240,2.0,0.0
235,59.0,10,240,2.0,0.0
236,62.0,10,240,2.0,0.0
237,64.0,10,240,1.0,0.0
238,68.0,10,240,1.0,0.0
239,71.0,10,240,1.0,0.0
240,74.0,10,240,1.0,0.0
241,74.0,60,60,0.0,0.0
242,73.0,10,60,0.0,0.0
243,71.0,0,30,0.0,0.0
244,73.0,40,30,0.0,0.0
245,74.0,40,30,0.0,0.0
246,73.0,40,30,0.0,0.0
247,74.0,40,30,0.0,0.0
248,76.0,30,30,0.0,0.0
249,76.0,30,30,0.0,0.0
250,74.0,30,30,0.0,0.0
251,73.0,30,30,0.0,0.0
252,74.0,120,30,0.0,0.0
253,71.0,120,120,0.0,0.0
254,72.0,0,60,0.0,0.0
255,52.0,0,60,2.0,0.0
256,60.0,0,60,2.0,0.0
257,67.0,0,15,1.0,0.0
258,72.0,0,60,0.0,0.0
259,72.0,0,15,1.0,0.0
260,52.0,0,60,2.0,0.0
261,55.0,60,15,2.0,0.0
262,60.0,0,60,2.0,0.0
263,55.0,0,60,2.0,0.0
264,74.0,0,60,0.0,0.0
265,50.0,0,60,2.0,0.0
266,71.0,0,60,1.0,0.0
267,74.0,30,60,1.0,0.0
268,59.0,0,60,2.0,0.0
269,48.0,30,60,2.0,0.0
270,60.0,0,60,2.0,0.0
271,67.0,0,15,1.0,0.0
272,55.0,0,60,2.0,0.0
273,72.0,0,30,1.0,0.0
274,76.0,30,30,1.0,0.0
275,72.0,30,30,1.0,0.0
276,67.0,30,30,1.0,0.0
277,48.0,30,60,2.0,0.0
278,55.0,0,60,2.0,0.0
279,60.0,0,60,2.0,0.0
280,72.0,0,30,1.0,0.0
281,76.0,30,30,1.0,0.0
282,72.0,30,30,1.0,0.0
283,76.0,0,15,0.0,0.0
284,67.0,30,30,1.0,0.0
285,55.0,0,60,2.0,0.0
286,48.0,0,60,2.0,0.0
287,60.0,0,60,2.0,0.0
288,70.0,30,30,1.0,0.0
289,76.0,30,30,1.0,0.0
290,70.0,30,30,1.0,0.0
291,60.0,0,60,2.0,0.0
292,48.0,30,60,2.0,0.0
293,55.0,0,60,2.0,0.0
294,67.0,30,30,1.0,0.0
295,70.0,0,30,1.0,0.0
296,76.0,30,30,1.0,0.0
297,70.0,30,30,1.0,0.0
298,60.0,0,60,2.0,0.0
299,53.0,0,60,2.0,0.0
300,65.0,30,30,1.0,0.0
301,57.0,0,60,2.0,0.0
302,69.0,30,30,1.0,0.0
303,77.0,30,30,1.0,0.0
304,69.0,0,30,1.0,0.0
305,60.0,0,60,2.0,0.0
306,57.0,0,60,2.0,0.0
307,53.0,0,60,2.0,0.0
308,65.0,30,30,1.0,0.0
309,77.0,30,15,0.0,0.0
310,69.0,0,30,1.0,0.0
311,77.0,30,30,1.0,0.0
312,77.0,30,60,0.0,0.0
313,69.0,0,30,1.0,0.0
314,59.0,0,60,2.0,0.0
315,55.0,0,60,2.0,0.0
316,76.0,30,60,0.0,0.0
317,65.0,30,30,1.0,0.0
318,71.0,0,30,1.0,0.0
319,74.0,30,60,0.0,0.0
320,74.0,30,30,1.0,0.0
321,71.0,0,30,1.0,0.0
322,59.0,0,60,2.0,0.0
323,55.0,0,60,2.0,0.0
324,65.0,30,30,1.0,0.0
325,72.0,30,60,0.0,0.0
326,71.0,0,30,1.0,0.0
327,71.0,30,60,0.0,0.0
328,74.0,30,30,1.0,0.0
329,71.0,0,30,1.0,0.0
330,64.0,30,30,1.0,0.0
331,60.0,0,60,2.0,0.0
332,55.0,0,60,2.0,0.0
333,48.0,30,60,2.0,0.0
334,67.0,0,30,1.0,0.0
335,73.0,30,30,1.0,0.0
336,67.0,30,30,1.0,0.0
337,60.0,0,60,2.0,0.0
338,55.0,0,60,2.0,0.0
339,48.0,30,60,2.0,0.0
340,64.0,30,30,1.0,0.0
341,67.0,0,30,1.0,0.0
342,72.0,0,15,0.0,0.0
343,73.0,30,30,1.0,0.0
344,67.0,0,30,1.0,0.0
345,65.0,30,30,1.0,0.0
346,74.0,0,60,0.0,0.0
347,48.0,0,60,2.0,0.0
348,55.0,0,60,2.0,0.0
349,60.0,0,60,2.0,0.0
350,67.0,30,30,1.0,0.0
351,74.0,30,30,1.0,0.0
352,76.0,0,60,0.0,0.0
353,67.0,30,30,1.0,0.0
354,48.0,0,60,2.0,0.0
355,77.0,0,60,0.0,0.0
356,60.0,30,60,2.0,0.0
357,55.0,0,60,2.0,0.0
358,65.0,30,30,1.0,0.0
359,67.0,0,30,1.0,0.0
360,74.0,30,30,1.0,0.0
361,74.0,0,60,0.0,0.0
362,67.0,30,30,1.0,0.0
363,48.0,0,60,2.0,0.0
364,52.0,30,60,2.0,0.0
365,79.0,0,120,0.0,0.0
366,60.0,0,60,2.0,0.0
367,55.0,0,60,2.0,0.0
368,67.0,30,30,1.0,0.0
369,76.0,0,30,1.0,0.0
370,79.0,30,30,1.0,0.0
371,76.0,30,30,1.0,0.0
372,48.0,0,60,2.0,0.0
373,76.0,0,60,0.0,0.0
374,67.0,30,30,1.0,0.0
375,60.0,0,60,2.0,0.0
376,55.0,30,60,2.0,0.0
377,52.0,0,60,2.0,0.0
378,72.0,0,30,1.0,0.0
379,76.0,30,30,1.0,0.0
380,76.0,0,60,0.0,0.0
381,72.0,30,30,1.0,0.0
382,65.0,30,30,1.0,0.0
383,55.0,0,60,2.0,0.0
384,50.0,0,60,2.0,0.0
385,47.0,0,60,2.0,0.0
386,43.0,0,60,2.0,0.0
387,74.0,30,60,0.0,0.0
388,71.0,0,30,1.0,0.0
389,74.0,30,30,1.0,0.0
390,76.0,30,60,0.0,0.0
391,71.0,0,30,1.0,0.0
392,65.0,30,30,1.0,0.0
393,77.0,30,60,0.0,0.0
394,43.0,0,60,2.0,0.0
395,47.0,0,60,2.0,0.0
396,50.0,0,60,2.0,0.0
397,55.0,0,60,2.0,0.0
398,71.0,0,30,1.0,0.0
399,74.0,0,60,0.0,0.0
400,74.0,30,30,1.0,0.0
401,71.0,60,30,1.0,0.0
402,48.0,60,60,2.0,0.0
403,52.0,0,60,2.0,0.0
404,72.0,0,120,0.0,0.0
405,55.0,0,60,2.0,0.0
406,48.0,0,60,2.0,0.0
407,72.0,60,15,1.0,0.0
408,52.0,0,60,2.0,0.0
409,72.0,0,60,1.0,0.0
410,55.0,15,60,2.0,0.0
411,74.0,15,15,1.0,0.0
412,48.0,0,60,2.0,0.0
413,52.0,15,60,2.0,0.0
414,72.0,15,15,1.0,0.0
415,74.0,15,15,1.0,0.0
416,72.0,0,15,1.0,0.0
417,55.0,60,60,2.0,0.0
418,74.0,15,15,1.0,0.0
419,72.0,15,15,1.0,0.0
420,74.0,15,15,1.0,0.0
421,72.0,0,15,1.0,0.0
422,76.0,60,60,1.0,0.0
423,48.0,0,60,2.0,0.0
424,52.0,0,60,2.0,0.0
425,55.0,60,60,2.0,0.0
426,72.0,0,60,1.0,0.0
427,50.0,0,60,2.0,0.0
428,53.0,0,60,2.0,0.0
429,77.0,60,60,1.0,0.0
430,55.0,60,60,2.0,0.0
431,74.0,0,60,1.0,0.0
432,53.0,60,60,2.0,0.0
433,50.0,0,60,2.0,0.0
434,71.0,0,120,1.0,0.0
435,55.0,60,60,2.0,0.0
436,77.0,60,60,0.0,0.0
437,43.0,0,60,2.0,0.0
438,50.0,0,60,2.0,0.0
439,74.0,0,60,0.0,0.0
440,55.0,60,60,2.0,0.0
441,43.0,60,60,2.0,0.0
442,50.0,0,60,2.0,0.0
443,71.0,60,120,0.0,0.0
444,55.0,0,60,2.0,0.0
445,72.0,0,120,1.0,0.0
446,48.0,60,60,2.0,0.0
447,52.0,0,60,2.0,0.0
448,55.0,60,60,2.0,0.0
449,72.0,0,60,1.0,0.0
450,52.0,60,60,2.0,0.0
451,48.0,0,60,2.0,0.0
452,72.0,15,60,1.0,0.0
453,55.0,0,60,2.0,0.0
454,48.0,0,60,2.0,0.0
455,52.0,0,60,2.0,0.0
456,74.0,15,15,1.0,0.0
457,72.0,15,15,1.0,0.0
458,74.0,15,15,1.0,0.0
459,72.0,15,15,1.0,0.0
460,55.0,60,60,2.0,0.0
461,74.0,15,15,1.0,0.0
462,72.0,15,15,1.0,0.0
463,74.0,15,15,1.0,0.0
464,72.0,0,15,1.0,0.0
465,52.0,0,60,2.0,0.0
466,48.0,60,60,2.0,0.0
467,76.0,0,60,1.0,0.0
468,55.0,60,60,2.0,0.0
469,72.0,0,60,1.0,0.0
470,52.0,0,60,2.0,0.0
471,56.0,0,60,2.0,0.0
472,74.0,60,60,1.0,0.0
473,71.0,0,60,1.0,0.0
474,59.0,60,60,2.0,0.0
475,68.0,0,120,1.0,0.0
476,52.0,60,60,2.0,0.0
477,56.0,0,60,2.0,0.0
478,59.0,60,60,2.0,0.0
479,52.0,60,60,2.0,0.0
480,56.0,0,60,2.0,0.0
481,74.0,0,60,0.0,0.0
482,71.0,0,60,0.0,0.0
483,59.0,60,60,2.0,0.0
484,68.0,0,120,0.0,0.0
485,52.0,60,60,2.0,0.0
486,56.0,0,60,2.0,0.0
487,59.0,60,60,2.0,0.0
488,74.0,0,60,1.0,0.0
489,52.0,0,60,2.0,0.0
490,56.0,60,60,2.0,0.0
491,71.0,60,60,1.0,0.0
492,59.0,0,60,2.0,0.0
493,52.0,60,60,2.0,0.0
494,56.0,0,60,2.0,0.0
495,68.0,60,120,1.0,0.0
496,59.0,0,60,2.0,0.0
497,56.0,0,60,2.0,0.0
498,74.0,60,120,0.0,0.0
499,52.0,60,60,2.0,0.0
500,59.0,0,60,2.0,0.0
501,52.0,0,60,2.0,0.0
502,56.0,0,60,2.0,0.0
503,74.0,0,60,1.0,0.0
504,59.0,120,60,2.0,0.0
505,71.0,0,60,1.0,0.0
506,71.0,60,15,0.0,0.0
507,68.0,0,120,0.0,0.0
508,52.0,0,120,2.0,0.0
509,68.0,240,120,1.0,0.0
510,56.0,0,120,2.0,0.0
511,64.0,60,240,2.0,0.0
512,76.0,0,240,0.0,0.0
513,76.0,0,240,1.0,0.0
514,74.0,60,60,1.0,0.0
515,74.0,0,60,0.0,0.0
516,62.0,0,60,2.0,0.0
517,71.0,120,60,0.0,0.0
518,71.0,0,60,1.0,0.0
519,59.0,0,60,2.0,0.0
520,56.0,0,120,2.0,0.0
521,68.0,120,120,1.0,0.0
522,68.0,0,120,0.0,0.0
523,76.0,0,120,0.0,0.0
524,64.0,0,120,2.0,0.0
525,76.0,120,120,1.0,0.0
526,62.0,120,120,2.0,0.0
527,74.0,0,120,1.0,0.0
528,74.0,0,120,0.0,0.0
529,71.0,0,120,1.0,0.0
530,71.0,0,120,0.0,0.0
531,59.0,60,120,2.0,0.0
532,68.0,0,60,1.0,0.0
533,56.0,0,60,2.0,0.0
534,68.0,60,60,0.0,0.0
535,64.0,0,60,2.0,0.0
536,76.0,0,60,1.0,0.0
537,76.0,60,60,0.0,0.0
538,74.0,0,60,1.0,0.0
539,62.0,60,60,2.0,0.0
540,74.0,0,60,0.0,0.0
541,71.0,0,60,1.0,0.0
542,71.0,0,60,0.0,0.0
543,59.0,40,60,2.0,0.0
544,68.0,40,30,0.0,0.0
545,68.0,0,30,1.0,0.0
546,56.0,0,30,2.0,0.0
547,78.0,0,30,0.0,0.0
548,66.0,0,30,2.0,0.0
549,78.0,40,30,1.0,0.0
550,64.0,0,30,2.0,0.0
551,76.0,40,30,1.0,0.0
552,76.0,0,30,0.0,0.0
553,62.0,40,30,2.0,0.0
554,74.0,0,30,1.0,0.0
555,74.0,0,30,0.0,0.0
556,73.0,0,30,0.0,0.0
557,61.0,40,30,2.0,0.0
558,73.0,0,30,1.0,0.0
559,71.0,60,30,1.0,0.0
560,59.0,0,30,2.0,0.0
561,71.0,0,30,0.0,0.0
562,45.0,0,60,2.0,0.0
563,69.0,60,60,0.0,0.0
564,57.0,0,60,2.0,0.0
565,61.0,0,60,1.0,0.0
566,64.0,0,60,1.0,0.0
567,69.0,0,60,1.0,0.0
568,52.0,60,60,2.0,0.0
569,76.0,0,60,0.0,0.0
570,75.0,0,60,0.0,0.0
571,45.0,0,60,2.0,0.0
572,57.0,60,60,2.0,0.0
573,61.0,0,60,1.0,0.0
574,69.0,0,60,1.0,0.0
575,64.0,0,60,1.0,0.0
576,52.0,0,60,2.0,0.0
577,76.0,40,60,0.0,0.0
578,64.0,0,60,1.0,0.0
579,61.0,0,60,1.0,0.0
580,69.0,0,60,1.0,0.0
581,57.0,20,60,2.0,0.0
582,45.0,0,60,2.0,0.0
583,74.0,20,30,0.0,0.0
584,73.0,40,30,0.0,0.0
585,52.0,0,60,2.0,0.0
586,73.0,40,30,0.0,0.0
587,69.0,20,60,1.0,0.0
588,45.0,0,60,2.0,0.0
589,64.0,0,60,1.0,0.0
590,73.0,20,30,0.0,0.0
591,57.0,0,60,2.0,0.0
592,61.0,0,60,1.0,0.0
593,71.0,40,30,0.0,0.0
594,52.0,60,60,2.0,0.0
595,69.0,0,30,0.0,0.0
596,76.0,0,60,0.0,0.0
597,47.0,0,60,2.0,0.0
598,62.0,0,60,1.0,0.0
599,64.0,0,60,1.0,0.0
600,68.0,60,60,1.0,0.0
601,59.0,0,60,2.0,0.0
602,52.0,60,60,2.0,0.0
603,74.0,0,120,0.0,0.0
604,59.0,0,60,2.0,0.0
605,47.0,0,60,2.0,0.0
606,62.0,0,60,1.0,0.0
607,64.0,0,60,1.0,0.0
608,68.0,60,60,1.0,0.0
609,71.0,0,60,0.0,0.0
610,52.0,60,60,2.0,0.0
611,47.0,0,60,2.0,0.0
612,64.0,0,60,1.0,0.0
613,62.0,0,60,1.0,0.0
614,68.0,0,120,0.0,0.0
615,68.0,0,60,1.0,0.0
616,59.0,60,60,2.0,0.0
617,52.0,60,60,2.0,0.0
618,68.0,0,120,0.0,0.0
619,68.0,0,60,1.0,0.0
620,64.0,0,60,1.0,0.0
621,62.0,60,60,1.0,0.0
622,59.0,0,60,2.0,0.0
623,47.0,0,60,2.0,0.0
624,52.0,60,60,2.0,0.0
625,67.0,0,60,1.0,0.0
626,49.0,60,60,2.0,0.0
627,52.0,0,60,2.0,0.0
628,64.0,0,60,1.0,0.0
629,57.0,60,60,2.0,0.0
630,67.0,60,60,1.0,0.0
631,52.0,0,60,2.0,0.0
632,49.0,0,60,2.0,0.0
633,64.0,0,60,1.0,0.0
634,67.0,0,15,0.0,0.0
635,57.0,0,60,2.0,0.0
636,64.0,0,60,1.0,0.0
637,52.0,0,60,2.0,0.0
638,49.0,0,60,2.0,0.0
639,67.0,30,60,1.0,0.0
640,67.0,60,15,0.0,0.0
641,57.0,0,60,2.0,0.0
642,69.0,15,15,0.0,0.0
643,67.0,15,15,0.0,0.0
644,66.0,60,15,0.0,0.0
645,49.0,0,60,2.0,0.0
646,67.0,0,60,1.0,0.0
647,52.0,0,60,2.0,0.0
648,67.0,60,60,0.0,0.0
649,64.0,0,60,1.0,0.0
650,69.0,0,60,0.0,0.0
651,57.0,60,60,2.0,0.0
652,62.0,60,60,1.0,0.0
653,66.0,0,60,1.0,0.0
654,66.0,60,120,0.0,0.0
655,50.0,0,60,2.0,0.0
656,54.0,0,60,2.0,0.0
657,57.0,0,60,2.0,0.0
658,69.0,0,60,1.0,0.0
659,66.0,0,60,1.0,0.0
660,50.0,0,60,2.0,0.0
661,69.0,0,120,0.0,0.0
662,54.0,60,60,2.0,0.0
663,57.0,60,60,2.0,0.0
664,50.0,60,60,2.0,0.0
665,74.0,0,60,1.0,0.0
666,69.0,0,60,1.0,0.0
667,66.0,0,60,1.0,0.0
668,54.0,0,60,2.0,0.0
669,74.0,60,120,0.0,0.0
670,57.0,0,60,2.0,0.0
671,69.0,0,60,0.0,0.0
672,54.0,0,60,2.0,0.0
673,50.0,0,60,2.0,0.0
674,69.0,0,60,1.0,0.0
675,66.0,60,60,1.0,0.0
676,57.0,0,60,2.0,0.0
677,69.0,0,60,1.0,0.0
678,76.0,0,60,1.0,0.0
679,67.0,0,60,1.0,0.0
680,52.0,60,60,2.0,0.0
681,49.0,0,60,2.0,0.0
682,78.0,60,15,0.0,0.0
683,76.0,0,60,0.0,0.0
684,57.0,60,60,2.0,0.0
685,74.0,0,60,0.0,0.0
686,67.0,60,60,1.0,0.0
687,69.0,0,60,1.0,0.0
688,52.0,0,60,2.0,0.0
689,49.0,0,60,2.0,0.0
690,76.0,0,60,1.0,0.0
691,57.0,60,60,2.0,0.0
692,73.0,0,60,0.0,0.0
693,71.0,0,60,0.0,0.0
694,52.0,0,60,2.0,0.0
695,49.0,0,60,2.0,0.0
696,69.0,0,60,1.0,0.0
697,64.0,60,60,1.0,0.0
698,57.0,0,60,2.0,0.0
699,69.0,60,60,0.0,0.0
700,64.0,0,60,1.0,0.0
701,67.0,60,60,1.0,0.0
702,49.0,0,60,2.0,0.0
703,52.0,0,60,2.0,0.0
704,67.0,30,60,0.0,0.0
705,57.0,0,60,2.0,0.0
706,50.0,0,60,2.0,0.0
707,54.0,0,60,2.0,0.0
708,67.0,30,30,0.0,0.0
709,62.0,0,60,1.0,0.0
710,66.0,30,60,1.0,0.0
711,66.0,0,30,0.0,0.0
712,69.0,30,30,0.0,0.0
713,57.0,60,60,2.0,0.0
714,67.0,0,30,0.0,0.0
715,66.0,0,60,1.0,0.0
716,54.0,60,60,2.0,0.0
717,66.0,0,60,0.0,0.0
718,50.0,0,60,2.0,0.0
719,62.0,0,60,1.0,0.0
720,56.0,0,60,2.0,0.0
721,52.0,60,60,2.0,0.0
722,68.0,0,60,1.0,0.0
723,64.0,0,60,1.0,0.0
724,68.0,0,60,0.0,0.0
725,66.0,0,60,1.0,0.0
726,69.0,0,60,1.0,0.0
727,54.0,0,60,2.0,0.0
728,57.0,0,60,2.0,0.0
729,69.0,60,60,0.0,0.0
730,56.0,0,60,2.0,0.0
731,59.0,0,60,2.0,0.0
732,71.0,60,60,0.0,0.0
733,68.0,0,60,1.0,0.0
734,71.0,0,60,1.0,0.0
735,69.0,0,60,1.0,0.0
736,57.0,0,60,2.0,0.0
737,61.0,0,60,2.0,0.0
738,73.0,0,60,0.0,0.0
739,73.0,60,60,1.0,0.0
740,62.0,0,60,2.0,0.0
741,74.0,0,60,1.0,0.0
742,71.0,0,60,1.0,0.0
743,59.0,0,60,2.0,0.0
744,74.0,60,60,0.0,0.0
745,76.0,0,360,0.0,0.0
746,64.0,60,360,2.0,0.0
747,61.0,0,360,2.0,0.0
748,57.0,0,360,2.0,0.0
749,73.0,0,15,1.0,0.0
750,76.0,60,15,1.0,0.0
751,76.0,60,15,1.0,0.0
752,73.0,0,15,1.0,0.0
753,73.0,60,60,1.0,0.0
754,76.0,0,60,1.0,0.0
755,76.0,0,60,1.0,0.0
756,76.0,0,60,1.0,0.0
757,73.0,60,15,1.0,0.0
758,71.0,0,60,1.0,0.0
759,62.0,0,60,2.0,0.0
760,74.0,0,60,0.0,0.0
761,59.0,0,60,2.0,0.0
762,74.0,60,60,1.0,0.0
763,73.0,60,60,0.0,0.0
764,57.0,0,60,2.0,0.0
765,61.0,0,60,2.0,0.0
766,73.0,0,60,1.0,0.0
767,69.0,0,60,1.0,0.0
768,62.0,0,60,1.0,0.0
769,71.0,0,60,0.0,0.0
770,59.0,0,60,2.0,0.0
771,50.0,0,60,2.0,0.0
772,73.0,60,60,0.0,0.0
773,71.0,60,15,1.0,0.0
774,66.0,0,15,1.0,0.0
775,62.0,0,60,1.0,0.0
776,59.0,0,60,2.0,0.0
777,50.0,0,60,2.0,0.0
778,74.0,0,60,0.0,0.0
779,62.0,30,60,1.0,0.0
780,71.0,30,30,0.0,0.0
781,71.0,0,15,1.0,0.0
782,66.0,0,15,1.0,0.0
783,62.0,0,60,1.0,0.0
784,73.0,60,30,0.0,0.0
785,69.0,0,120,0.0,0.0
786,64.0,0,60,1.0,0.0
787,57.0,0,60,2.0,0.0
788,52.0,0,60,2.0,0.0
789,61.0,0,15,1.0,0.0
790,64.0,0,60,1.0,0.0
791,69.0,60,15,1.0,0.0
792,59.0,0,60,2.0,0.0
793,71.0,0,120,0.0,0.0
794,52.0,0,60,2.0,0.0
795,56.0,0,60,2.0,0.0
796,62.0,60,15,1.0,0.0
797,71.0,0,15,1.0,0.0
798,64.0,0,15,1.0,0.0
799,45.0,0,60,2.0,0.0
800,49.0,60,60,2.0,0.0
801,69.0,0,60,1.0,0.0
802,69.0,0,120,0.0,0.0
803,76.0,60,120,1.0,0.0
804,57.0,60,60,2.0,0.0
805,50.0,0,60,2.0,0.0
806,47.0,0,60,2.0,0.0
807,57.0,60,60,2.0,0.0
808,74.0,0,60,1.0,0.0
809,50.0,0,60,2.0,0.0
810,73.0,0,60,1.0,0.0
811,47.0,60,60,2.0,0.0
812,71.0,0,60,1.0,0.0
813,57.0,60,60,2.0,0.0
814,69.0,0,60,1.0,0.0
815,47.0,60,60,2.0,0.0
816,50.0,0,60,2.0,0.0
817,68.0,0,60,1.0,0.0
818,57.0,60,60,2.0,0.0
819,67.0,0,120,1.0,0.0
820,49.0,0,60,2.0,0.0
821,52.0,60,60,2.0,0.0
822,57.0,30,60,2.0,0.0
823,66.0,30,30,1.0,0.0
824,49.0,0,60,2.0,0.0
825,52.0,0,60,2.0,0.0
826,67.0,30,30,1.0,0.0
827,66.0,30,30,1.0,0.0
828,57.0,0,60,2.0,0.0
829,67.0,30,30,1.0,0.0
830,52.0,0,60,2.0,0.0
831,67.0,30,30,1.0,0.0
832,49.0,0,60,2.0,0.0
833,69.0,20,30,1.0,0.0
834,67.0,20,20,1.0,0.0
835,57.0,0,60,2.0,0.0
836,66.0,20,20,1.0,0.0
837,67.0,60,20,1.0,0.0
838,52.0,0,60,2.0,0.0
839,71.0,60,60,1.0,0.0
840,49.0,0,60,2.0,0.0
841,67.0,60,60,1.0,0.0
842,57.0,0,60,2.0,0.0
843,50.0,60,60,2.0,0.0
844,54.0,0,60,2.0,0.0
845,66.0,0,120,1.0,0.0
846,69.0,0,60,0.0,0.0
847,57.0,0,60,2.0,0.0
848,74.0,60,60,0.0,0.0
849,50.0,0,60,2.0,0.0
850,54.0,0,60,2.0,0.0
851,57.0,60,60,2.0,0.0
852,74.0,60,15,0.0,0.0
853,54.0,0,60,2.0,0.0
854,78.0,0,60,0.0,0.0
855,74.0,0,60,1.0,0.0
856,78.0,0,60,1.0,0.0
857,50.0,60,60,2.0,0.0
858,69.0,0,60,1.0,0.0
859,74.0,0,60,0.0,0.0
860,57.0,60,60,2.0,0.0
861,54.0,0,60,2.0,0.0
862,69.0,0,60,0.0,0.0
863,50.0,60,60,2.0,0.0
864,66.0,0,60,0.0,0.0
865,57.0,15,60,2.0,0.0
866,69.0,15,15,1.0,0.0
867,49.0,0,60,2.0,0.0
868,52.0,0,60,2.0,0.0
869,69.0,0,60,0.0,0.0
870,67.0,15,15,1.0,0.0
871,69.0,15,15,1.0,0.0
872,67.0,30,15,1.0,0.0
873,69.0,30,30,1.0,0.0
874,57.0,30,60,2.0,0.0
875,71.0,0,30,1.0,0.0
876,67.0,0,15,0.0,0.0
877,73.0,30,30,1.0,0.0
878,49.0,30,60,2.0,0.0
879,52.0,0,60,2.0,0.0
880,74.0,0,30,1.0,0.0
881,76.0,30,30,1.0,0.0
882,57.0,0,60,2.0,0.0
883,78.0,30,30,1.0,0.0
884,52.0,30,60,2.0,0.0
885,69.0,30,180,0.0,0.0
886,49.0,0,60,2.0,0.0
887,79.0,30,30,1.0,0.0
888,78.0,0,30,1.0,0.0
889,57.0,30,60,2.0,0.0
890,76.0,30,30,1.0,0.0
891,74.0,0,30,1.0,0.0
892,73.0,30,30,1.0,0.0
893,49.0,0,60,2.0,0.0
894,52.0,0,60,2.0,0.0
895,71.0,0,30,1.0,0.0
896,57.0,60,60,2.0,0.0
897,69.0,30,30,1.0,0.0
898,69.0,0,60,0.0,0.0
899,67.0,0,30,1.0,0.0
900,69.0,0,60,0.0,0.0
901,66.0,60,60,1.0,0.0
902,50.0,0,60,2.0,0.0
903,54.0,0,60,2.0,0.0
904,74.0,60,60,0.0,0.0
905,57.0,0,60,2.0,0.0
906,50.0,0,60,2.0,0.0
907,54.0,60,60,2.0,0.0
908,74.0,0,60,1.0,0.0
909,66.0,0,60,1.0,0.0
910,57.0,0,60,2.0,0.0
911,74.0,0,15,0.0,0.0
912,66.0,0,60,1.0,0.0
913,74.0,60,60,1.0,0.0
914,74.0,60,15,0.0,0.0
915,54.0,0,60,2.0,0.0
916,50.0,0,60,2.0,0.0
917,59.0,0,60,2.0,0.0
918,73.0,40,60,0.0,0.0
919,71.0,0,60,1.0,0.0
920,66.0,0,60,1.0,0.0
921,50.0,0,60,2.0,0.0
922,54.0,20,60,2.0,0.0
923,71.0,20,30,0.0,0.0
924,73.0,40,30,0.0,0.0
925,59.0,0,60,2.0,0.0
926,56.0,0,60,2.0,0.0
927,64.0,0,60,1.0,0.0
928,68.0,30,60,1.0,0.0
929,52.0,0,60,2.0,0.0
930,69.0,30,15,0.0,0.0
931,68.0,0,30,0.0,0.0
932,71.0,30,30,0.0,0.0
933,59.0,60,60,2.0,0.0
934,69.0,0,30,0.0,0.0
935,52.0,0,60,2.0,0.0
936,68.0,60,15,0.0,0.0
937,64.0,0,15,1.0,0.0
938,68.0,0,15,1.0,0.0
939,56.0,0,15,2.0,0.0
940,52.0,0,60,2.0,0.0
941,69.0,0,60,1.0,0.0
942,66.0,0,60,1.0,0.0
943,54.0,60,60,2.0,0.0
944,69.0,0,60,0.0,0.0
945,57.0,0,60,2.0,0.0
946,71.0,0,60,0.0,0.0
947,68.0,0,60,1.0,0.0
948,71.0,0,60,1.0,0.0
949,56.0,60,60,2.0,0.0
950,59.0,0,60,2.0,0.0
951,61.0,0,60,2.0,0.0
952,69.0,0,60,1.0,0.0
953,73.0,0,60,1.0,0.0
954,73.0,60,60,0.0,0.0
955,57.0,0,60,2.0,0.0
956,74.0,60,60,0.0,0.0
957,71.0,0,60,1.0,0.0
958,74.0,0,60,1.0,0.0
959,62.0,0,60,2.0,0.0
960,59.0,0,60,2.0,0.0
961,76.0,0,60,1.0,0.0
962,76.0,0,360,0.0,0.0
963,57.0,60,360,2.0,0.0
964,61.0,0,360,2.0,0.0
965,64.0,0,360,2.0,0.0
966,73.0,60,15,1.0,0.0
967,76.0,60,60,1.0,0.0
968,73.0,60,60,1.0,0.0
969,76.0,0,60,1.0,0.0
970,73.0,60,60,1.0,0.0
971,76.0,0,60,1.0,0.0
972,73.0,0,15,1.0,0.0
973,76.0,60,15,1.0,0.0
974,71.0,0,60,1.0,0.0
975,74.0,0,60,1.0,0.0
976,62.0,0,60,2.0,0.0
977,59.0,0,60,2.0,0.0
978,74.0,60,60,0.0,0.0
979,57.0,0,60,2.0,0.0
980,73.0,0,60,0.0,0.0
981,73.0,0,60,1.0,0.0
982,69.0,60,60,1.0,0.0
983,61.0,0,60,2.0,0.0
984,78.0,0,120,0.0,0.0
985,62.0,0,60,1.0,0.0
986,66.0,60,60,1.0,0.0
987,69.0,0,60,1.0,0.0
988,74.0,0,60,1.0,0.0
989,78.0,0,60,1.0,0.0
990,78.0,60,15,1.0,0.0
991,74.0,0,15,1.0,0.0
992,69.0,0,15,1.0,0.0
993,66.0,0,60,1.0,0.0
994,62.0,0,60,1.0,0.0
995,78.0,0,15,0.0,0.0
996,74.0,60,15,1.0,0.0
997,78.0,0,60,1.0,0.0
998,62.0,0,60,1.0,0.0
999,69.0,0,15,1.0,0.0
1000,74.0,60,15,1.0,0.0
1001,66.0,30,60,1.0,0.0
1002,78.0,28,90,0.0,0.0
1003,78.0,0,60,1.0,0.0
1004,69.0,0,15,1.0,0.0
1005,78.0,0,60,1.0,0.0
1006,74.0,0,15,1.0,0.0
1007,80.0,2,30,0.0,0.0
1008,66.0,0,60,1.0,0.0
1009,74.0,0,15,1.0,0.0
1010,78.0,0,60,1.0,0.0
1011,62.0,0,60,1.0,0.0
1012,78.0,0,60,0.0,0.0
1013,73.0,0,60,1.0,0.0
1014,76.0,0,60,1.0,0.0
1015,64.0,0,60,1.0,0.0
1016,76.0,60,15,0.0,0.0
1017,76.0,0,60,1.0,0.0
1018,57.0,0,60,1.0,0.0
1019,61.0,60,60,1.0,0.0
1020,73.0,0,15,1.0,0.0
1021,64.0,60,60,1.0,0.0
1022,76.0,60,240,0.0,0.0
1023,61.0,0,60,1.0,0.0
1024,57.0,0,60,1.0,0.0
1025,76.0,60,15,1.0,0.0
1026,73.0,0,15,1.0,0.0
1027,76.0,0,15,1.0,0.0
1028,73.0,0,15,1.0,0.0
1029,76.0,0,15,1.0,0.0
1030,73.0,60,15,1.0,0.0
1031,57.0,0,60,1.0,0.0
1032,61.0,60,60,1.0,0.0
1033,64.0,0,60,1.0,0.0
1034,73.0,0,60,1.0,0.0
1035,76.0,0,60,1.0,0.0
1036,71.0,0,60,1.0,0.0
1037,74.0,0,60,1.0,0.0
1038,74.0,60,60,0.0,0.0
1039,73.0,0,60,1.0,0.0
1040,69.0,60,60,1.0,0.0
1041,61.0,0,60,2.0,0.0
1042,57.0,0,60,2.0,0.0
1043,73.0,0,15,0.0,0.0
1044,59.0,0,60,2.0,0.0
1045,52.0,60,60,2.0,0.0
1046,68.0,0,60,1.0,0.0
1047,71.0,0,60,1.0,0.0
1048,62.0,0,15,1.0,0.0
1049,71.0,0,60,0.0,0.0
1050,71.0,0,15,1.0,0.0
1051,40.0,0,60,2.0,0.0
1052,68.0,60,15,1.0,0.0
1053,52.0,0,60,2.0,0.0
1054,71.0,0,60,0.0,0.0
1055,62.0,60,60,1.0,0.0
1056,71.0,0,60,0.0,0.0
1057,71.0,0,15,1.0,0.0
1058,68.0,0,60,1.0,0.0
1059,62.0,0,60,1.0,0.0
1060,52.0,0,60,2.0,0.0
1061,40.0,20,60,2.0,0.0
1062,62.0,0,60,1.0,0.0
1063,71.0,40,15,1.0,0.0
1064,68.0,0,60,1.0,0.0
1065,71.0,20,30,0.0,0.0
1066,76.0,40,30,0.0,0.0
1067,71.0,0,60,1.0,0.0
1068,74.0,0,30,0.0,0.0
1069,73.0,20,30,0.0,0.0
1070,62.0,0,15,1.0,0.0
1071,40.0,0,60,2.0,0.0
1072,52.0,0,60,2.0,0.0
1073,68.0,40,15,1.0,0.0
1074,74.0,40,30,0.0,0.0
1075,71.0,0,15,1.0,0.0
1076,68.0,20,15,1.0,0.0
1077,62.0,0,60,1.0,0.0
1078,71.0,60,30,0.0,0.0
1079,49.0,60,60,2.0,0.0
1080,45.0,0,60,2.0,0.0
1081,69.0,0,120,0.0,0.0
1082,69.0,60,120,1.0,0.0
1083,52.0,0,60,2.0,0.0
1084,49.0,0,60,2.0,0.0
1085,45.0,60,60,2.0,0.0
1086,69.0,0,60,1.0,0.0
1087,52.0,15,60,2.0,0.0
1088,69.0,0,60,1.0,0.0
1089,71.0,15,15,1.0,0.0
1090,45.0,0,60,2.0,0.0
1091,49.0,0,60,2.0,0.0
1092,69.0,15,15,1.0,0.0
1093,71.0,15,15,1.0,0.0
1094,69.0,15,15,1.0,0.0
1095,52.0,60,60,2.0,0.0
1096,71.0,15,15,1.0,0.0
1097,69.0,15,15,1.0,0.0
1098,71.0,15,15,1.0,0.0
1099,69.0,0,15,1.0,0.0
1100,49.0,0,60,2.0,0.0
1101,45.0,60,60,2.0,0.0
1102,73.0,0,60,1.0,0.0
1103,69.0,60,60,1.0,0.0
1104,52.0,0,60,2.0,0.0
1105,50.0,0,60,2.0,0.0
1106,74.0,0,180,1.0,0.0
1107,47.0,60,60,2.0,0.0
1108,52.0,60,60,2.0,0.0
1109,47.0,60,60,2.0,0.0
1110,50.0,0,60,2.0,0.0
1111,52.0,0,60,2.0,0.0
1112,69.0,15,60,1.0,0.0
1113,69.0,15,15,1.0,0.0
1114,40.0,30,60,2.0,0.0
1115,68.0,30,15,1.0,0.0
1116,69.0,0,30,1.0,0.0
1117,52.0,0,60,2.0,0.0
1118,71.0,30,30,1.0,0.0
1119,73.0,30,30,1.0,0.0
1120,38.0,30,60,2.0,0.0
1121,74.0,30,30,1.0,0.0
1122,76.0,0,30,1.0,0.0
1123,78.0,30,30,1.0,0.0
1124,50.0,30,60,2.0,0.0
1125,80.0,0,30,1.0,0.0
1126,49.0,0,120,2.0,0.0
1127,37.0,30,120,2.0,0.0
1128,81.0,30,30,1.0,0.0
1129,83.0,30,30,1.0,0.0
1130,85.0,30,30,1.0,0.0
1131,86.0,0,30,1.0,0.0
1132,88.0,30,30,1.0,0.0
1133,90.0,30,30,1.0,0.0
1134,92.0,30,30,1.0,0.0
1135,93.0,60,30,1.0,0.0
1136,40.0,0,60,2.0,0.0
1137,52.0,0,60,2.0,0.0
1138,88.0,120,60,1.0,0.0
1139,59.0,0,60,1.0,0.0
1140,64.0,0,60,1.0,0.0
1141,68.0,0,60,1.0,0.0
1142,52.0,0,60,2.0,0.0
1143,40.0,180,60,2.0,0.0
1144,62.0,0,60,1.0,0.0
1145,33.0,0,120,2.0,0.0
1146,45.0,0,120,2.0,0.0
1147,57.0,0,120,1.0,0.0
1148,61.0,0,120,1.0,0.0
1149,64.0,180,120,1.0,0.0
1150,69.0,0,120,1.0,0.0
