,note,step,duration,channel,velocity
0,64.0,0,320,1.0,52.0
1,76.0,301,172,1.0,68.0
2,69.0,0,212,1.0,51.0
3,61.0,2,376,1.0,44.0
4,68.0,348,85,1.0,67.0
5,59.0,11,113,1.0,50.0
6,76.0,3,144,1.0,80.0
7,69.0,10,243,1.0,72.0
8,73.0,8,59,1.0,66.0
9,76.0,220,74,1.0,80.0
10,57.0,6,787,1.0,44.0
11,61.0,112,341,1.0,47.0
12,64.0,4,126,1.0,62.0
13,71.0,202,55,1.0,55.0
14,76.0,10,48,1.0,78.0
15,78.0,34,34,1.0,83.0
16,76.0,32,25,1.0,55.0
17,78.0,27,52,1.0,97.0
18,76.0,40,37,1.0,78.0
19,75.0,34,40,1.0,77.0
20,76.0,30,74,1.0,109.0
21,78.0,39,136,1.0,100.0
22,80.0,106,109,1.0,100.0
23,62.0,3,502,1.0,63.0
24,81.0,130,256,1.0,88.0
25,57.0,18,753,1.0,62.0
26,61.0,2,298,1.0,57.0
27,76.0,243,57,1.0,65.0
28,69.0,8,308,1.0,36.0
29,76.0,277,240,1.0,61.0
30,68.0,2,243,1.0,38.0
31,71.0,216,29,1.0,52.0
32,59.0,8,323,1.0,38.0
33,57.0,5,331,1.0,35.0
34,62.0,5,150,1.0,50.0
35,76.0,241,138,1.0,65.0
36,68.0,3,146,1.0,41.0
37,71.0,6,21,1.0,48.0
38,76.0,5,46,1.0,83.0
39,57.0,1,337,1.0,41.0
40,59.0,4,333,1.0,34.0
41,62.0,232,255,1.0,56.0
42,76.0,8,150,1.0,64.0
43,69.0,3,244,1.0,39.0
44,75.0,112,146,1.0,74.0
45,76.0,114,132,1.0,103.0
46,57.0,2,363,1.0,36.0
47,61.0,247,407,1.0,43.0
48,78.0,106,157,1.0,91.0
49,76.0,116,111,1.0,94.0
50,74.0,109,130,1.0,91.0
51,66.0,3,128,1.0,64.0
52,64.0,12,127,1.0,84.0
53,73.0,103,150,1.0,84.0
54,71.0,5,168,1.0,83.0
55,62.0,97,186,1.0,71.0
56,61.0,148,366,1.0,60.0
57,69.0,4,365,1.0,61.0
58,76.0,6,372,1.0,69.0
59,59.0,3,120,1.0,62.0
60,68.0,315,140,1.0,82.0
61,76.0,126,145,1.0,84.0
62,69.0,1,223,1.0,79.0
63,61.0,1,259,1.0,59.0
64,73.0,1,50,1.0,84.0
65,76.0,216,54,1.0,92.0
66,57.0,9,755,1.0,32.0
67,61.0,77,29,1.0,2.0
68,64.0,4,124,1.0,72.0
69,71.0,136,46,1.0,50.0
70,76.0,14,43,1.0,82.0
71,78.0,37,45,1.0,88.0
72,76.0,34,36,1.0,102.0
73,78.0,36,45,1.0,91.0
74,76.0,28,47,1.0,105.0
75,75.0,32,49,1.0,94.0
76,76.0,25,89,1.0,64.0
77,78.0,47,134,1.0,105.0
78,80.0,112,101,1.0,103.0
79,62.0,10,521,1.0,68.0
80,57.0,0,801,1.0,57.0
81,81.0,141,303,1.0,76.0
82,61.0,7,310,1.0,54.0
83,76.0,289,56,1.0,74.0
84,69.0,3,360,1.0,53.0
85,68.0,0,241,1.0,35.0
86,76.0,235,241,1.0,59.0
87,71.0,234,19,1.0,46.0
88,59.0,2,269,1.0,36.0
89,62.0,5,48,1.0,42.0
90,57.0,3,343,1.0,35.0
91,76.0,1,118,1.0,64.0
92,68.0,232,125,1.0,45.0
93,76.0,240,83,1.0,71.0
94,71.0,10,83,1.0,31.0
95,59.0,0,346,1.0,49.0
96,57.0,1,346,1.0,42.0
97,62.0,0,126,1.0,43.0
98,57.0,9,192,1.0,25.0
99,69.0,265,206,1.0,45.0
100,61.0,5,236,1.0,32.0
101,64.0,859,303,1.0,42.0
102,76.0,297,157,1.0,57.0
103,69.0,13,180,1.0,31.0
104,61.0,2,373,1.0,34.0
105,68.0,347,78,1.0,59.0
106,59.0,4,120,1.0,47.0
107,76.0,1,125,1.0,67.0
108,69.0,10,239,1.0,54.0
109,57.0,4,798,1.0,33.0
110,76.0,218,83,1.0,88.0
111,73.0,1,89,1.0,72.0
112,61.0,122,329,1.0,57.0
113,64.0,1,113,1.0,67.0
114,71.0,207,65,1.0,59.0
115,76.0,18,44,1.0,87.0
116,78.0,34,40,1.0,87.0
117,76.0,38,18,1.0,80.0
118,78.0,25,45,1.0,97.0
119,76.0,28,38,1.0,93.0
120,75.0,39,48,1.0,85.0
121,76.0,26,100,1.0,107.0
122,78.0,45,135,1.0,98.0
123,80.0,110,129,1.0,98.0
124,62.0,16,512,1.0,64.0
125,57.0,0,714,1.0,65.0
126,81.0,131,283,1.0,83.0
127,69.0,15,338,1.0,56.0
128,76.0,271,81,1.0,63.0
129,61.0,0,403,1.0,48.0
130,76.0,254,245,1.0,57.0
131,68.0,6,249,1.0,34.0
132,71.0,228,48,1.0,58.0
133,59.0,0,294,1.0,43.0
134,62.0,8,101,1.0,45.0
135,57.0,3,346,1.0,36.0
136,76.0,1,127,1.0,69.0
137,68.0,223,146,1.0,53.0
138,71.0,2,21,1.0,50.0
139,59.0,2,272,1.0,35.0
140,76.0,221,58,1.0,87.0
141,57.0,6,303,1.0,44.0
142,62.0,4,154,1.0,50.0
143,76.0,0,154,1.0,72.0
144,69.0,218,243,1.0,58.0
145,75.0,105,154,1.0,83.0
146,57.0,4,307,1.0,47.0
147,61.0,10,341,1.0,47.0
148,76.0,110,128,1.0,98.0
149,78.0,105,142,1.0,82.0
150,76.0,112,108,1.0,83.0
151,66.0,103,115,1.0,59.0
152,74.0,5,112,1.0,80.0
153,73.0,99,144,1.0,77.0
154,64.0,9,137,1.0,79.0
155,71.0,102,149,1.0,81.0
156,62.0,3,157,1.0,76.0
157,61.0,135,366,1.0,50.0
158,76.0,4,374,1.0,68.0
159,69.0,2,375,1.0,57.0
160,68.0,339,79,1.0,72.0
161,59.0,0,99,1.0,54.0
162,76.0,134,144,1.0,80.0
163,69.0,5,247,1.0,67.0
164,76.0,228,107,1.0,91.0
165,73.0,0,112,1.0,74.0
166,57.0,1,823,1.0,42.0
167,61.0,1,357,1.0,49.0
168,64.0,1,150,1.0,73.0
169,71.0,222,48,1.0,70.0
170,76.0,12,47,1.0,91.0
171,78.0,37,40,1.0,90.0
172,76.0,29,24,1.0,69.0
173,78.0,36,46,1.0,90.0
174,76.0,23,46,1.0,98.0
175,75.0,41,47,1.0,89.0
176,76.0,25,80,1.0,96.0
177,78.0,41,136,1.0,99.0
178,80.0,109,92,1.0,101.0
179,62.0,0,512,1.0,75.0
180,81.0,131,280,1.0,80.0
181,57.0,13,777,1.0,76.0
182,61.0,6,309,1.0,46.0
183,69.0,4,326,1.0,59.0
184,76.0,271,89,1.0,55.0
185,76.0,253,255,1.0,63.0
186,68.0,4,262,1.0,38.0
187,57.0,9,275,1.0,40.0
188,71.0,222,60,1.0,59.0
189,59.0,2,282,1.0,36.0
190,62.0,7,57,1.0,48.0
191,76.0,1,104,1.0,66.0
192,68.0,221,116,1.0,45.0
193,59.0,8,323,1.0,36.0
194,76.0,3,109,1.0,59.0
195,71.0,233,130,1.0,44.0
196,57.0,2,372,1.0,41.0
197,62.0,11,187,1.0,48.0
198,69.0,2,196,1.0,38.0
199,57.0,5,198,1.0,26.0
200,61.0,260,205,1.0,35.0
201,76.0,828,319,1.0,91.0
202,74.0,1,382,1.0,84.0
203,59.0,302,385,1.0,50.0
204,61.0,341,141,1.0,70.0
205,76.0,5,145,1.0,96.0
206,68.0,1,634,1.0,50.0
207,59.0,124,267,1.0,67.0
208,74.0,1,309,1.0,96.0
209,52.0,7,818,1.0,45.0
210,69.0,1,122,1.0,75.0
211,73.0,228,255,1.0,94.0
212,57.0,5,276,1.0,79.0
213,62.0,0,248,1.0,57.0
214,71.0,269,334,1.0,70.0
215,68.0,0,381,1.0,59.0
216,64.0,9,54,1.0,63.0
217,73.0,326,153,1.0,78.0
218,62.0,120,250,1.0,59.0
219,64.0,3,92,1.0,39.0
220,71.0,6,334,1.0,65.0
221,52.0,6,804,1.0,64.0
222,61.0,226,123,1.0,57.0
223,69.0,7,117,1.0,76.0
224,68.0,3,147,1.0,62.0
225,76.0,296,158,1.0,98.0
226,74.0,114,142,1.0,97.0
227,59.0,4,284,1.0,55.0
228,69.0,10,102,1.0,65.0
229,73.0,126,117,1.0,77.0
230,52.0,7,388,1.0,51.0
231,57.0,5,140,1.0,50.0
232,76.0,211,152,1.0,101.0
233,68.0,2,160,1.0,76.0
234,59.0,2,240,1.0,60.0
235,74.0,111,131,1.0,96.0
236,52.0,6,348,1.0,63.0
237,57.0,4,112,1.0,58.0
238,69.0,5,108,1.0,53.0
239,73.0,125,121,1.0,74.0
240,52.0,0,44,1.0,43.0
241,64.0,3,145,1.0,60.0
242,63.0,126,137,1.0,69.0
243,64.0,119,123,1.0,88.0
244,68.0,1,397,1.0,56.0
245,71.0,231,460,1.0,67.0
246,66.0,106,116,1.0,84.0
247,64.0,113,40,1.0,97.0
248,62.0,105,153,1.0,78.0
249,64.0,6,168,1.0,100.0
250,61.0,8,123,1.0,70.0
251,66.0,108,166,1.0,88.0
252,68.0,2,66,1.0,79.0
253,59.0,110,68,1.0,70.0
254,61.0,4,354,1.0,43.0
255,69.0,4,356,1.0,43.0
256,76.0,181,388,1.0,56.0
257,68.0,332,57,1.0,56.0
258,62.0,1,94,1.0,47.0
259,76.0,0,126,1.0,67.0
260,69.0,136,173,1.0,62.0
261,76.0,228,87,1.0,81.0
262,73.0,6,80,1.0,62.0
263,57.0,3,796,1.0,42.0
264,61.0,2,333,1.0,53.0
265,64.0,2,131,1.0,60.0
266,71.0,209,55,1.0,62.0
267,76.0,12,47,1.0,87.0
268,78.0,36,41,1.0,92.0
269,76.0,41,19,1.0,97.0
270,78.0,22,51,1.0,95.0
271,76.0,32,38,1.0,95.0
272,75.0,41,46,1.0,88.0
273,76.0,25,89,1.0,108.0
274,78.0,44,142,1.0,100.0
275,80.0,115,83,1.0,101.0
276,62.0,2,506,1.0,69.0
277,57.0,11,730,1.0,62.0
278,81.0,124,264,1.0,79.0
279,61.0,6,266,1.0,52.0
280,69.0,2,294,1.0,64.0
281,76.0,250,52,1.0,82.0
282,76.0,0,248,1.0,68.0
283,68.0,4,247,1.0,42.0
284,71.0,238,50,1.0,49.0
285,62.0,0,59,1.0,42.0
286,59.0,1,298,1.0,46.0
287,57.0,215,306,1.0,43.0
288,76.0,8,109,1.0,51.0
289,68.0,236,148,1.0,42.0
290,76.0,236,90,1.0,65.0
291,59.0,1,335,1.0,37.0
292,57.0,3,345,1.0,41.0
293,71.0,3,105,1.0,37.0
294,62.0,2,146,1.0,40.0
295,57.0,10,204,1.0,25.0
296,69.0,278,235,1.0,45.0
297,61.0,2,233,1.0,34.0
298,76.0,783,263,1.0,56.0
299,74.0,4,322,1.0,59.0
300,59.0,263,356,1.0,38.0
301,68.0,4,438,1.0,30.0
302,61.0,317,139,1.0,44.0
303,76.0,17,135,1.0,70.0
304,59.0,116,237,1.0,57.0
305,74.0,11,233,1.0,64.0
306,69.0,0,131,1.0,48.0
307,52.0,4,836,1.0,50.0
308,73.0,216,199,1.0,71.0
309,57.0,7,244,1.0,53.0
310,62.0,6,202,1.0,44.0
311,71.0,238,285,1.0,65.0
312,68.0,0,342,1.0,44.0
313,64.0,10,57,1.0,70.0
314,73.0,308,154,1.0,79.0
315,62.0,115,270,1.0,61.0
316,71.0,1,294,1.0,82.0
317,64.0,3,84,1.0,58.0
318,52.0,2,739,1.0,37.0
319,61.0,210,104,1.0,67.0
320,69.0,2,107,1.0,86.0
321,68.0,3,132,1.0,68.0
322,76.0,220,137,1.0,95.0
323,74.0,100,162,1.0,99.0
324,59.0,3,278,1.0,56.0
325,52.0,8,374,1.0,49.0
326,69.0,6,128,1.0,60.0
327,73.0,143,141,1.0,77.0
328,57.0,11,155,1.0,41.0
329,68.0,4,141,1.0,69.0
330,76.0,204,145,1.0,97.0
331,59.0,1,251,1.0,59.0
332,74.0,113,157,1.0,94.0
333,69.0,3,101,1.0,47.0
334,52.0,0,358,1.0,44.0
335,57.0,6,116,1.0,51.0
336,73.0,134,124,1.0,72.0
337,52.0,2,42,1.0,39.0
338,64.0,0,164,1.0,55.0
339,63.0,135,141,1.0,70.0
340,64.0,119,136,1.0,99.0
341,68.0,3,427,1.0,44.0
342,71.0,240,474,1.0,60.0
343,66.0,108,120,1.0,95.0
344,64.0,115,37,1.0,102.0
345,62.0,105,144,1.0,84.0
346,64.0,2,163,1.0,105.0
347,61.0,5,123,1.0,81.0
348,66.0,106,136,1.0,88.0
349,68.0,107,154,1.0,85.0
350,59.0,4,168,1.0,67.0
351,69.0,3,379,1.0,40.0
352,61.0,190,391,1.0,48.0
353,76.0,1,411,1.0,51.0
354,68.0,364,78,1.0,55.0
355,62.0,6,73,1.0,40.0
356,76.0,2,131,1.0,54.0
357,69.0,8,197,1.0,54.0
358,61.0,131,231,1.0,54.0
359,76.0,227,84,1.0,80.0
360,73.0,1,81,1.0,56.0
361,57.0,2,854,1.0,41.0
362,64.0,6,139,1.0,58.0
363,71.0,210,42,1.0,47.0
364,76.0,11,42,1.0,84.0
365,78.0,35,40,1.0,87.0
366,76.0,35,35,1.0,100.0
367,78.0,30,47,1.0,93.0
368,76.0,37,22,1.0,96.0
369,75.0,29,43,1.0,85.0
370,76.0,25,88,1.0,102.0
371,78.0,59,135,1.0,92.0
372,80.0,120,77,1.0,90.0
373,62.0,7,516,1.0,49.0
374,81.0,139,247,1.0,72.0
375,57.0,17,779,1.0,54.0
376,61.0,7,275,1.0,39.0
377,69.0,2,274,1.0,45.0
378,76.0,233,43,1.0,75.0
379,76.0,2,249,1.0,67.0
380,68.0,226,263,1.0,47.0
381,57.0,6,278,1.0,55.0
382,71.0,3,45,1.0,54.0
383,59.0,7,273,1.0,37.0
384,62.0,225,62,1.0,49.0
385,76.0,0,122,1.0,57.0
386,68.0,238,146,1.0,39.0
387,59.0,7,228,1.0,36.0
388,76.0,252,92,1.0,61.0
389,57.0,3,370,1.0,45.0
390,71.0,0,108,1.0,34.0
391,62.0,7,134,1.0,29.0
392,61.0,13,206,1.0,29.0
393,57.0,6,201,1.0,23.0
394,69.0,289,222,1.0,40.0
395,52.0,126,109,1.0,63.0
396,60.0,99,22,1.0,56.0
397,57.0,4,22,1.0,43.0
398,60.0,108,20,1.0,68.0
399,57.0,3,23,1.0,43.0
400,45.0,767,478,1.0,60.0
401,52.0,102,121,1.0,61.0
402,59.0,2,18,1.0,50.0
403,56.0,105,23,1.0,44.0
404,59.0,103,26,1.0,54.0
405,56.0,4,27,1.0,49.0
406,40.0,111,457,1.0,58.0
407,52.0,104,115,1.0,74.0
408,61.0,105,18,1.0,72.0
409,55.0,18,22,1.0,23.0
410,57.0,4,19,1.0,18.0
411,61.0,89,23,1.0,58.0
412,55.0,7,25,1.0,43.0
413,33.0,109,469,1.0,70.0
414,53.0,107,112,1.0,66.0
415,62.0,108,23,1.0,63.0
416,57.0,5,20,1.0,47.0
417,57.0,3,18,1.0,63.0
418,62.0,99,21,1.0,70.0
419,38.0,115,477,1.0,51.0
420,57.0,102,118,1.0,69.0
421,61.0,100,21,1.0,56.0
422,64.0,5,18,1.0,76.0
423,61.0,1,19,1.0,67.0
424,64.0,111,22,1.0,84.0
425,45.0,111,522,1.0,70.0
426,57.0,102,123,1.0,81.0
427,65.0,107,18,1.0,78.0
428,62.0,1,19,1.0,59.0
429,65.0,109,20,1.0,66.0
430,62.0,4,20,1.0,55.0
431,50.0,112,507,1.0,76.0
432,59.0,105,113,1.0,62.0
433,67.0,108,22,1.0,57.0
434,62.0,2,22,1.0,48.0
435,62.0,100,25,1.0,59.0
436,67.0,11,24,1.0,47.0
437,43.0,108,473,1.0,62.0
438,55.0,104,115,1.0,56.0
439,64.0,114,21,1.0,56.0
440,60.0,14,23,1.0,13.0
441,60.0,90,22,1.0,13.0
442,64.0,1,33,1.0,54.0
443,48.0,112,499,1.0,51.0
444,64.0,99,116,1.0,67.0
445,72.0,104,19,1.0,81.0
446,69.0,4,18,1.0,66.0
447,72.0,0,18,1.0,85.0
448,69.0,103,19,1.0,79.0
449,45.0,144,436,1.0,62.0
450,63.0,104,129,1.0,81.0
451,71.0,3,15,1.0,65.0
452,66.0,113,19,1.0,66.0
453,71.0,108,17,1.0,73.0
454,66.0,2,20,1.0,66.0
455,47.0,100,490,1.0,74.0
456,59.0,107,118,1.0,78.0
457,66.0,101,18,1.0,78.0
458,69.0,0,21,1.0,87.0
459,66.0,1,22,1.0,87.0
460,69.0,108,28,1.0,95.0
461,51.0,113,515,1.0,81.0
462,59.0,97,119,1.0,73.0
463,68.0,107,22,1.0,73.0
464,62.0,9,22,1.0,47.0
465,62.0,102,21,1.0,53.0
466,68.0,7,21,1.0,52.0
467,52.0,112,496,1.0,84.0
468,57.0,105,101,1.0,52.0
469,69.0,4,20,1.0,55.0
470,60.0,100,24,1.0,57.0
471,60.0,103,24,1.0,57.0
472,69.0,6,24,1.0,66.0
473,53.0,134,457,1.0,43.0
474,59.0,105,108,1.0,56.0
475,69.0,4,20,1.0,57.0
476,65.0,102,25,1.0,44.0
477,69.0,116,22,1.0,59.0
478,65.0,1,26,1.0,44.0
479,50.0,108,464,1.0,68.0
480,59.0,108,101,1.0,54.0
481,68.0,103,21,1.0,68.0
482,62.0,19,27,1.0,25.0
483,68.0,4,22,1.0,69.0
484,62.0,85,26,1.0,34.0
485,52.0,116,464,1.0,61.0
486,57.0,103,111,1.0,55.0
487,69.0,113,19,1.0,60.0
488,60.0,4,28,1.0,39.0
489,60.0,100,20,1.0,62.0
490,69.0,0,24,1.0,82.0
491,45.0,123,494,1.0,49.0
492,63.0,113,116,1.0,68.0
493,75.0,103,22,1.0,72.0
494,72.0,6,18,1.0,71.0
495,75.0,0,66,1.0,87.0
496,53.0,152,390,1.0,57.0
497,72.0,97,74,1.0,91.0
498,41.0,1,393,1.0,58.0
499,63.0,97,115,1.0,95.0
500,71.0,1,15,1.0,85.0
501,75.0,103,27,1.0,95.0
502,75.0,106,45,1.0,97.0
503,71.0,2,57,1.0,95.0
504,41.0,4,368,1.0,80.0
505,53.0,107,377,1.0,79.0
506,63.0,103,117,1.0,107.0
507,69.0,1,19,1.0,103.0
508,75.0,106,37,1.0,106.0
509,69.0,107,26,1.0,105.0
510,75.0,0,35,1.0,107.0
511,41.0,4,361,1.0,96.0
512,53.0,104,371,1.0,103.0
513,64.0,102,115,1.0,97.0
514,68.0,110,17,1.0,78.0
515,76.0,5,20,1.0,83.0
516,76.0,106,16,1.0,79.0
517,40.0,4,343,1.0,102.0
518,68.0,6,19,1.0,68.0
519,52.0,112,367,1.0,97.0
520,60.0,115,118,1.0,60.0
521,69.0,115,20,1.0,54.0
522,72.0,0,26,1.0,45.0
523,69.0,101,22,1.0,57.0
524,72.0,0,24,1.0,60.0
525,53.0,140,480,1.0,52.0
526,65.0,111,96,1.0,55.0
527,71.0,111,21,1.0,27.0
528,69.0,7,23,1.0,23.0
529,71.0,100,21,1.0,37.0
530,69.0,16,21,1.0,22.0
531,50.0,122,459,1.0,54.0
532,71.0,92,20,1.0,37.0
533,62.0,112,116,1.0,51.0
534,68.0,9,22,1.0,51.0
535,68.0,110,26,1.0,47.0
536,71.0,7,20,1.0,37.0
537,52.0,97,458,1.0,57.0
538,60.0,106,112,1.0,64.0
539,72.0,112,21,1.0,66.0
540,69.0,11,24,1.0,39.0
541,69.0,99,18,1.0,62.0
542,72.0,8,19,1.0,61.0
543,45.0,106,473,1.0,66.0
544,69.0,105,107,1.0,65.0
545,81.0,104,18,1.0,83.0
546,72.0,5,17,1.0,77.0
547,81.0,0,22,1.0,94.0
548,72.0,105,34,1.0,97.0
549,41.0,122,459,1.0,70.0
550,69.0,107,113,1.0,101.0
551,71.0,106,41,1.0,86.0
552,81.0,2,42,1.0,96.0
553,81.0,105,16,1.0,109.0
554,71.0,0,23,1.0,92.0
555,39.0,117,461,1.0,89.0
556,68.0,111,74,1.0,93.0
557,71.0,7,13,1.0,72.0
558,80.0,107,40,1.0,102.0
559,71.0,2,16,1.0,80.0
560,80.0,119,37,1.0,103.0
561,40.0,120,555,1.0,101.0
562,81.0,194,438,1.0,103.0
563,69.0,3,457,1.0,75.0
564,33.0,6,942,1.0,66.0
565,45.0,1,969,1.0,69.0
566,64.0,793,234,1.0,47.0
567,66.0,116,136,1.0,62.0
568,68.0,115,35,1.0,81.0
569,61.0,1,347,1.0,41.0
570,76.0,179,350,1.0,55.0
571,69.0,6,366,1.0,44.0
572,68.0,0,92,1.0,73.0
573,59.0,329,108,1.0,62.0
574,76.0,1,137,1.0,87.0
575,69.0,1,240,1.0,81.0
576,57.0,3,727,1.0,39.0
577,76.0,212,74,1.0,92.0
578,73.0,4,74,1.0,82.0
579,61.0,129,308,1.0,59.0
580,64.0,6,99,1.0,66.0
581,71.0,212,70,1.0,59.0
582,76.0,29,39,1.0,82.0
583,78.0,34,44,1.0,88.0
584,76.0,35,39,1.0,99.0
585,78.0,32,49,1.0,95.0
586,76.0,30,39,1.0,73.0
587,75.0,38,49,1.0,90.0
588,76.0,27,97,1.0,106.0
589,78.0,56,137,1.0,97.0
590,80.0,107,80,1.0,99.0
591,62.0,8,540,1.0,78.0
592,57.0,2,755,1.0,72.0
593,69.0,6,233,1.0,57.0
594,81.0,130,245,1.0,80.0
595,61.0,1,253,1.0,54.0
596,76.0,235,32,1.0,82.0
597,76.0,3,257,1.0,62.0
598,68.0,300,277,1.0,41.0
599,71.0,6,33,1.0,49.0
600,57.0,1,311,1.0,44.0
601,62.0,234,70,1.0,43.0
602,59.0,9,306,1.0,40.0
603,76.0,3,120,1.0,58.0
604,68.0,226,166,1.0,40.0
605,71.0,4,78,1.0,48.0
606,76.0,1,85,1.0,75.0
607,59.0,6,320,1.0,38.0
608,57.0,2,326,1.0,40.0
609,62.0,223,133,1.0,51.0
610,76.0,12,143,1.0,68.0
611,69.0,4,255,1.0,54.0
612,75.0,107,150,1.0,73.0
613,57.0,0,319,1.0,28.0
614,76.0,113,134,1.0,101.0
615,61.0,229,372,1.0,55.0
616,78.0,109,153,1.0,90.0
617,76.0,118,104,1.0,88.0
618,66.0,92,129,1.0,53.0
619,74.0,12,119,1.0,80.0
620,64.0,7,127,1.0,85.0
621,73.0,105,138,1.0,81.0
622,71.0,1,160,1.0,79.0
623,62.0,100,181,1.0,79.0
624,76.0,1,345,1.0,68.0
625,61.0,153,361,1.0,57.0
626,69.0,4,357,1.0,62.0
627,59.0,6,126,1.0,68.0
628,68.0,325,134,1.0,77.0
629,76.0,3,154,1.0,78.0
630,69.0,3,246,1.0,80.0
631,57.0,1,742,1.0,40.0
632,73.0,4,57,1.0,56.0
633,76.0,228,66,1.0,60.0
634,61.0,120,325,1.0,62.0
635,64.0,1,96,1.0,51.0
636,71.0,204,48,1.0,46.0
637,76.0,24,41,1.0,86.0
638,78.0,36,37,1.0,89.0
639,76.0,32,37,1.0,100.0
640,78.0,32,53,1.0,92.0
641,76.0,33,39,1.0,106.0
642,75.0,33,50,1.0,92.0
643,76.0,24,106,1.0,81.0
644,78.0,74,138,1.0,102.0
645,80.0,112,92,1.0,101.0
646,62.0,22,551,1.0,64.0
647,57.0,2,773,1.0,62.0
648,61.0,5,245,1.0,49.0
649,81.0,127,250,1.0,85.0
650,76.0,239,26,1.0,78.0
651,69.0,2,287,1.0,51.0
652,76.0,244,243,1.0,57.0
653,68.0,1,251,1.0,30.0
654,71.0,1,27,1.0,53.0
655,59.0,2,270,1.0,42.0
656,57.0,10,274,1.0,44.0
657,62.0,216,60,1.0,47.0
658,76.0,6,126,1.0,63.0
659,68.0,213,171,1.0,40.0
660,59.0,0,338,1.0,54.0
661,71.0,7,113,1.0,52.0
662,57.0,6,351,1.0,43.0
663,76.0,2,113,1.0,72.0
664,62.0,230,168,1.0,50.0
665,69.0,4,135,1.0,50.0
666,64.0,135,141,1.0,72.0
667,57.0,1,311,1.0,41.0
668,61.0,279,335,1.0,36.0
669,66.0,122,135,1.0,75.0
670,64.0,120,170,1.0,87.0
671,63.0,110,142,1.0,81.0
672,62.0,120,122,1.0,73.0
673,66.0,108,251,1.0,70.0
674,68.0,115,282,1.0,72.0
675,61.0,134,174,1.0,67.0
676,69.0,124,114,1.0,75.0
677,40.0,6,283,1.0,54.0
678,59.0,114,116,1.0,76.0
679,68.0,114,133,1.0,81.0
680,61.0,107,131,1.0,79.0
681,40.0,6,126,1.0,80.0
682,69.0,110,117,1.0,84.0
683,40.0,109,109,1.0,85.0
684,64.0,1,129,1.0,94.0
685,73.0,120,95,1.0,85.0
686,40.0,4,50,1.0,87.0
687,42.0,38,70,1.0,80.0
688,40.0,46,59,1.0,81.0
689,39.0,2,51,1.0,77.0
690,40.0,45,62,1.0,96.0
691,73.0,44,111,1.0,73.0
692,62.0,94,278,1.0,85.0
693,42.0,0,134,1.0,84.0
694,71.0,46,134,1.0,79.0
695,62.0,6,44,1.0,92.0
696,44.0,109,142,1.0,84.0
697,61.0,7,233,1.0,78.0
698,71.0,124,119,1.0,67.0
699,45.0,107,263,1.0,93.0
700,69.0,10,133,1.0,71.0
701,40.0,113,145,1.0,62.0
702,61.0,121,28,1.0,57.0
703,40.0,4,260,1.0,54.0
704,69.0,128,134,1.0,66.0
705,68.0,113,124,1.0,71.0
706,59.0,149,381,1.0,60.0
707,59.0,2,100,1.0,65.0
708,66.0,110,245,1.0,76.0
709,40.0,113,146,1.0,75.0
710,68.0,117,122,1.0,75.0
711,40.0,111,133,1.0,62.0
712,62.0,8,130,1.0,59.0
713,71.0,123,19,1.0,59.0
714,40.0,0,127,1.0,52.0
715,39.0,104,131,1.0,66.0
716,40.0,110,105,1.0,86.0
717,69.0,5,368,1.0,62.0
718,61.0,140,382,1.0,43.0
719,42.0,108,111,1.0,77.0
720,40.0,117,151,1.0,88.0
721,66.0,104,171,1.0,85.0
722,38.0,2,171,1.0,73.0
723,37.0,113,124,1.0,78.0
724,64.0,3,130,1.0,95.0
725,62.0,8,58,1.0,70.0
726,68.0,3,81,1.0,86.0
727,35.0,108,162,1.0,71.0
728,71.0,2,146,1.0,66.0
729,61.0,3,172,1.0,51.0
730,69.0,143,49,1.0,76.0
731,40.0,140,338,1.0,67.0
732,59.0,112,95,1.0,81.0
733,68.0,106,56,1.0,82.0
734,40.0,1,123,1.0,93.0
735,61.0,113,130,1.0,84.0
736,69.0,118,109,1.0,87.0
737,40.0,3,102,1.0,89.0
738,64.0,102,122,1.0,94.0
739,73.0,114,100,1.0,91.0
740,40.0,87,52,1.0,82.0
741,42.0,33,70,1.0,79.0
742,40.0,46,53,1.0,97.0
743,39.0,41,64,1.0,90.0
744,40.0,28,72,1.0,99.0
745,73.0,13,103,1.0,71.0
746,62.0,3,273,1.0,84.0
747,42.0,55,148,1.0,97.0
748,71.0,0,155,1.0,82.0
749,62.0,6,47,1.0,86.0
750,44.0,116,151,1.0,89.0
751,71.0,121,131,1.0,70.0
752,61.0,5,266,1.0,88.0
753,45.0,115,277,1.0,102.0
754,40.0,124,158,1.0,71.0
755,69.0,3,160,1.0,73.0
756,61.0,142,32,1.0,60.0
757,69.0,134,118,1.0,60.0
758,40.0,8,315,1.0,54.0
759,68.0,111,123,1.0,67.0
760,59.0,163,384,1.0,51.0
761,66.0,117,136,1.0,72.0
762,59.0,117,95,1.0,64.0
763,40.0,2,133,1.0,59.0
764,68.0,108,115,1.0,64.0
765,40.0,9,121,1.0,46.0
766,62.0,117,155,1.0,60.0
767,71.0,122,27,1.0,48.0
768,69.0,153,154,1.0,59.0
769,61.0,5,191,1.0,26.0
770,64.0,129,127,1.0,70.0
771,33.0,2,353,1.0,41.0
772,66.0,116,113,1.0,74.0
773,64.0,116,129,1.0,88.0
774,69.0,114,134,1.0,83.0
775,64.0,117,135,1.0,71.0
776,76.0,3,131,1.0,83.0
777,61.0,126,160,1.0,44.0
778,52.0,150,141,1.0,40.0
779,59.0,1,138,1.0,39.0
780,58.0,103,150,1.0,84.0
781,74.0,146,346,1.0,74.0
782,59.0,109,127,1.0,74.0
783,52.0,110,129,1.0,73.0
784,76.0,1,140,1.0,91.0
785,59.0,3,125,1.0,62.0
786,64.0,11,584,1.0,36.0
787,74.0,116,224,1.0,89.0
788,52.0,111,116,1.0,70.0
789,57.0,8,105,1.0,69.0
790,64.0,5,121,1.0,70.0
791,52.0,106,116,1.0,80.0
792,73.0,100,272,1.0,87.0
793,62.0,127,144,1.0,73.0
794,61.0,107,118,1.0,84.0
795,71.0,7,333,1.0,73.0
796,62.0,112,121,1.0,89.0
797,52.0,11,120,1.0,76.0
798,73.0,101,144,1.0,86.0
799,62.0,2,118,1.0,76.0
800,71.0,112,123,1.0,79.0
801,68.0,3,569,1.0,64.0
802,52.0,106,104,1.0,82.0
803,64.0,4,105,1.0,64.0
804,69.0,117,122,1.0,78.0
805,61.0,1,134,1.0,58.0
806,52.0,106,147,1.0,65.0
807,76.0,154,123,1.0,79.0
808,68.0,7,139,1.0,44.0
809,59.0,2,205,1.0,49.0
810,52.0,98,121,1.0,63.0
811,74.0,8,134,1.0,87.0
812,69.0,5,123,1.0,74.0
813,57.0,2,128,1.0,65.0
814,73.0,111,135,1.0,84.0
815,52.0,109,110,1.0,60.0
816,76.0,7,130,1.0,70.0
817,68.0,2,132,1.0,50.0
818,59.0,120,179,1.0,57.0
819,52.0,105,108,1.0,59.0
820,74.0,10,143,1.0,67.0
821,69.0,10,121,1.0,38.0
822,73.0,114,136,1.0,70.0
823,57.0,2,141,1.0,61.0
824,52.0,117,21,1.0,58.0
825,64.0,0,148,1.0,39.0
826,63.0,116,143,1.0,66.0
827,64.0,129,121,1.0,78.0
828,71.0,142,420,1.0,52.0
829,68.0,3,480,1.0,44.0
830,66.0,106,131,1.0,84.0
831,64.0,124,35,1.0,85.0
832,62.0,3,128,1.0,51.0
833,64.0,114,153,1.0,72.0
834,61.0,113,119,1.0,59.0
835,66.0,1,153,1.0,69.0
836,68.0,118,51,1.0,66.0
837,59.0,4,132,1.0,56.0
838,61.0,133,127,1.0,54.0
839,59.0,114,121,1.0,63.0
840,69.0,0,357,1.0,50.0
841,61.0,112,133,1.0,65.0
842,76.0,11,377,1.0,57.0
843,68.0,6,130,1.0,85.0
844,57.0,119,138,1.0,63.0
845,61.0,1,138,1.0,64.0
846,76.0,2,143,1.0,80.0
847,57.0,110,125,1.0,65.0
848,69.0,119,238,1.0,89.0
849,76.0,106,101,1.0,101.0
850,73.0,6,101,1.0,76.0
851,64.0,8,117,1.0,71.0
852,57.0,114,112,1.0,75.0
853,71.0,98,43,1.0,62.0
854,76.0,13,51,1.0,95.0
855,78.0,42,51,1.0,93.0
856,62.0,12,116,1.0,78.0
857,76.0,9,61,1.0,97.0
858,75.0,56,45,1.0,84.0
859,57.0,29,154,1.0,62.0
860,76.0,32,68,1.0,113.0
861,78.0,35,141,1.0,100.0
862,62.0,7,144,1.0,69.0
863,80.0,104,81,1.0,99.0
864,57.0,11,132,1.0,69.0
865,61.0,0,126,1.0,60.0
866,57.0,114,122,1.0,36.0
867,81.0,108,243,1.0,87.0
868,69.0,5,348,1.0,67.0
869,76.0,0,124,1.0,81.0
870,61.0,119,132,1.0,51.0
871,57.0,110,126,1.0,55.0
872,59.0,4,97,1.0,45.0
873,57.0,105,119,1.0,53.0
874,76.0,125,283,1.0,74.0
875,68.0,2,341,1.0,52.0
876,62.0,3,142,1.0,52.0
877,71.0,114,147,1.0,62.0
878,57.0,123,110,1.0,57.0
879,59.0,1,95,1.0,52.0
880,57.0,102,119,1.0,61.0
881,68.0,114,259,1.0,59.0
882,76.0,1,328,1.0,80.0
883,62.0,3,124,1.0,61.0
884,57.0,104,98,1.0,53.0
885,71.0,115,238,1.0,69.0
886,61.0,136,82,1.0,63.0
887,57.0,4,89,1.0,39.0
888,57.0,126,125,1.0,52.0
889,59.0,112,141,1.0,72.0
890,57.0,101,150,1.0,78.0
891,69.0,5,588,1.0,50.0
892,56.0,112,148,1.0,86.0
893,57.0,4,125,1.0,100.0
894,76.0,3,144,1.0,95.0
895,73.0,102,158,1.0,90.0
896,59.0,2,136,1.0,84.0
897,71.0,105,166,1.0,76.0
898,69.0,1,76,1.0,89.0
899,74.0,0,201,1.0,97.0
900,73.0,5,147,1.0,86.0
901,61.0,107,161,1.0,90.0
902,68.0,13,175,1.0,75.0
903,71.0,1,202,1.0,80.0
904,76.0,130,118,1.0,70.0
905,68.0,11,97,1.0,41.0
906,62.0,132,360,1.0,81.0
907,71.0,98,122,1.0,50.0
908,76.0,4,115,1.0,85.0
909,64.0,101,142,1.0,65.0
910,68.0,7,134,1.0,70.0
911,76.0,111,118,1.0,91.0
912,62.0,108,274,1.0,75.0
913,61.0,104,118,1.0,82.0
914,69.0,8,124,1.0,91.0
915,71.0,0,348,1.0,65.0
916,76.0,117,13,1.0,90.0
917,76.0,2,148,1.0,85.0
918,50.0,1,227,1.0,76.0
919,80.0,126,119,1.0,91.0
920,59.0,155,250,1.0,58.0
921,68.0,1,359,1.0,55.0
922,76.0,111,121,1.0,95.0
923,52.0,2,46,1.0,89.0
924,61.0,5,48,1.0,79.0
925,80.0,105,120,1.0,97.0
926,68.0,109,116,1.0,83.0
927,76.0,2,117,1.0,97.0
928,59.0,1,124,1.0,74.0
929,50.0,2,129,1.0,83.0
930,80.0,103,52,1.0,92.0
931,49.0,1,114,1.0,84.0
932,69.0,115,125,1.0,81.0
933,57.0,0,130,1.0,85.0
934,76.0,0,144,1.0,99.0
935,81.0,120,25,1.0,100.0
936,83.0,3,133,1.0,71.0
937,64.0,135,171,1.0,78.0
938,56.0,8,174,1.0,50.0
939,76.0,3,132,1.0,89.0
940,62.0,114,141,1.0,66.0
941,81.0,3,133,1.0,68.0
942,57.0,3,135,1.0,46.0
943,61.0,129,158,1.0,67.0
944,76.0,128,95,1.0,51.0
945,83.0,114,133,1.0,55.0
946,56.0,2,135,1.0,55.0
947,64.0,5,142,1.0,70.0
948,76.0,1,115,1.0,65.0
949,62.0,115,133,1.0,55.0
950,81.0,8,108,1.0,45.0
951,61.0,121,133,1.0,60.0
952,57.0,5,127,1.0,31.0
953,76.0,124,172,1.0,70.0
954,88.0,4,109,1.0,58.0
955,76.0,196,142,1.0,59.0
956,59.0,170,458,1.0,39.0
957,52.0,11,460,1.0,41.0
958,78.0,132,139,1.0,62.0
959,76.0,118,201,1.0,76.0
960,75.0,121,142,1.0,68.0
961,74.0,115,125,1.0,84.0
962,78.0,104,246,1.0,70.0
963,80.0,111,37,1.0,94.0
964,83.0,128,131,1.0,66.0
965,73.0,0,171,1.0,44.0
966,81.0,117,76,1.0,87.0
967,71.0,115,100,1.0,85.0
968,40.0,4,356,1.0,57.0
969,80.0,108,50,1.0,88.0
970,40.0,1,134,1.0,85.0
971,81.0,117,121,1.0,93.0
972,40.0,102,100,1.0,84.0
973,73.0,105,320,1.0,82.0
974,76.0,1,120,1.0,101.0
975,85.0,112,93,1.0,92.0
976,40.0,5,45,1.0,92.0
977,42.0,33,70,1.0,79.0
978,40.0,45,59,1.0,88.0
979,39.0,4,63,1.0,84.0
980,85.0,42,99,1.0,88.0
981,74.0,99,247,1.0,96.0
982,40.0,43,101,1.0,96.0
983,42.0,14,133,1.0,91.0
984,83.0,39,162,1.0,84.0
985,74.0,7,55,1.0,90.0
986,44.0,109,148,1.0,86.0
987,83.0,120,115,1.0,76.0
988,73.0,2,244,1.0,83.0
989,45.0,110,248,1.0,89.0
990,81.0,2,132,1.0,79.0
991,40.0,112,147,1.0,64.0
992,73.0,125,26,1.0,70.0
993,81.0,152,136,1.0,66.0
994,40.0,152,370,1.0,50.0
995,80.0,115,124,1.0,66.0
996,71.0,4,401,1.0,65.0
997,71.0,115,105,1.0,65.0
998,78.0,112,240,1.0,76.0
999,40.0,5,123,1.0,55.0
1000,80.0,104,134,1.0,68.0
1001,40.0,118,123,1.0,42.0
1002,74.0,1,130,1.0,80.0
1003,83.0,130,36,1.0,73.0
1004,73.0,5,169,1.0,43.0
1005,81.0,171,190,1.0,54.0
1006,33.0,4,183,1.0,33.0
1007,66.0,0,304,1.0,106.0
1008,69.0,4,343,1.0,110.0
1009,74.0,684,421,1.0,117.0
1010,78.0,718,266,1.0,59.0
1011,62.0,7,310,1.0,36.0
1012,66.0,282,152,1.0,45.0
1013,74.0,3,228,1.0,62.0
1014,59.0,6,230,1.0,38.0
1015,68.0,4,131,1.0,43.0
1016,71.0,1,248,1.0,65.0
1017,64.0,229,255,1.0,56.0
1018,76.0,0,137,1.0,68.0
1019,68.0,2,182,1.0,56.0
1020,52.0,241,271,1.0,51.0
1021,74.0,293,210,1.0,67.0
1022,69.0,5,248,1.0,42.0
1023,57.0,6,254,1.0,42.0
1024,73.0,115,170,1.0,83.0
1025,71.0,111,160,1.0,84.0
1026,69.0,125,49,1.0,95.0
1027,57.0,223,344,1.0,96.0
1028,54.0,2,350,1.0,83.0
1029,62.0,0,599,1.0,106.0
1030,66.0,641,143,1.0,59.0
1031,50.0,11,259,1.0,40.0
1032,54.0,246,159,1.0,47.0
1033,62.0,0,161,1.0,59.0
1034,47.0,8,240,1.0,35.0
1035,56.0,244,149,1.0,50.0
1036,59.0,5,173,1.0,52.0
1037,52.0,1,292,1.0,47.0
1038,64.0,6,140,1.0,56.0
1039,56.0,0,149,1.0,43.0
1040,40.0,270,196,1.0,47.0
1041,57.0,2,209,1.0,34.0
1042,45.0,11,232,1.0,45.0
1043,61.0,302,280,1.0,50.0
1044,64.0,1,99,1.0,46.0
1045,68.0,2,108,1.0,46.0
1046,71.0,585,119,1.0,54.0
1047,64.0,11,46,1.0,32.0
1048,76.0,284,86,1.0,70.0
1049,68.0,8,86,1.0,40.0
1050,69.0,1,128,1.0,37.0
1051,57.0,14,149,1.0,43.0
1052,73.0,329,198,1.0,52.0
1053,40.0,1,123,1.0,35.0
1054,80.0,657,598,1.0,28.0
1055,83.0,4,729,1.0,39.0
1056,88.0,337,394,1.0,45.0
1057,33.0,395,37,1.0,49.0
1058,81.0,3,62,1.0,28.0
1059,85.0,5,70,1.0,50.0
