,note,step,duration,channel,velocity
0,72.0,0,234,1.0,47.0
1,60.0,0,234,1.0,47.0
2,52.0,0,234,2.0,47.0
3,67.0,0,234,2.0,47.0
4,74.0,0,78,1.0,49.0
5,62.0,0,78,1.0,49.0
6,55.0,360,78,2.0,49.0
7,71.0,0,78,2.0,49.0
8,48.0,480,120,5.0,46.0
9,36.0,0,120,5.0,46.0
10,43.0,120,120,5.0,45.0
11,31.0,0,120,5.0,45.0
12,36.0,0,120,5.0,43.0
13,48.0,120,120,5.0,43.0
14,31.0,120,120,5.0,42.0
15,43.0,0,120,5.0,42.0
16,48.0,0,360,5.0,40.0
17,36.0,120,360,5.0,40.0
18,60.0,0,1440,2.0,50.0
19,72.0,0,1440,2.0,50.0
20,64.0,0,1440,1.0,50.0
21,76.0,120,1440,1.0,50.0
22,52.0,0,234,2.0,42.0
23,67.0,0,234,2.0,42.0
24,60.0,0,234,1.0,42.0
25,72.0,480,234,1.0,42.0
26,74.0,0,78,1.0,44.0
27,62.0,0,78,1.0,44.0
28,71.0,360,78,2.0,44.0
29,55.0,0,78,2.0,44.0
30,48.0,480,120,5.0,43.0
31,36.0,0,120,5.0,43.0
32,43.0,0,120,5.0,42.0
33,31.0,120,120,5.0,42.0
34,48.0,0,120,5.0,41.0
35,36.0,120,120,5.0,41.0
36,31.0,0,120,5.0,40.0
37,43.0,120,120,5.0,40.0
38,36.0,0,360,5.0,38.0
39,48.0,120,360,5.0,38.0
40,76.0,0,1440,1.0,47.0
41,64.0,0,1440,1.0,47.0
42,60.0,120,1440,2.0,47.0
43,72.0,0,1440,2.0,47.0
44,76.0,0,234,1.0,49.0
45,64.0,0,234,1.0,49.0
46,60.0,0,234,4.0,49.0
47,48.0,480,234,5.0,49.0
48,65.0,0,78,1.0,51.0
49,62.0,0,78,4.0,51.0
50,48.0,0,78,5.0,51.0
51,77.0,360,78,1.0,51.0
52,79.0,0,480,1.0,52.0
53,67.0,0,480,1.0,52.0
54,48.0,0,0,5.0,55.0
55,64.0,120,480,4.0,52.0
56,69.0,0,234,1.0,55.0
57,64.0,0,234,4.0,55.0
58,81.0,480,234,1.0,55.0
59,83.0,360,78,1.0,57.0
60,62.0,0,78,4.0,57.0
61,71.0,0,78,1.0,57.0
62,47.0,0,78,5.0,57.0
63,45.0,0,480,5.0,58.0
64,84.0,0,480,1.0,58.0
65,72.0,0,480,1.0,58.0
66,60.0,120,480,4.0,58.0
67,60.0,0,234,4.0,61.0
68,54.0,0,234,4.0,61.0
69,50.0,0,234,5.0,61.0
70,81.0,480,234,1.0,61.0
71,69.0,0,234,1.0,61.0
72,50.0,0,78,5.0,63.0
73,57.0,360,78,4.0,63.0
74,60.0,0,78,4.0,63.0
75,66.0,0,78,1.0,63.0
76,78.0,0,78,1.0,63.0
77,67.0,0,360,1.0,64.0
78,43.0,0,360,5.0,64.0
79,59.0,120,360,4.0,64.0
80,55.0,0,360,4.0,64.0
81,79.0,0,360,1.0,64.0
82,55.0,0,360,4.0,59.0
83,71.0,0,360,2.0,59.0
84,74.0,0,360,2.0,59.0
85,62.0,480,360,2.0,59.0
86,43.0,0,360,5.0,59.0
87,67.0,0,360,1.0,59.0
88,79.0,0,360,1.0,59.0
89,59.0,0,360,4.0,59.0
90,50.0,0,360,4.0,59.0
91,67.0,0,360,1.0,53.0
92,59.0,0,360,4.0,53.0
93,50.0,0,360,4.0,53.0
94,43.0,0,360,5.0,53.0
95,55.0,0,360,4.0,53.0
96,79.0,480,360,1.0,53.0
97,62.0,0,360,2.0,53.0
98,71.0,0,360,2.0,53.0
99,74.0,0,360,2.0,53.0
100,60.0,0,360,4.0,49.0
101,55.0,360,0,4.0,51.0
102,36.0,0,360,5.0,49.0
103,48.0,0,360,5.0,49.0
104,52.0,480,360,4.0,49.0
105,31.0,0,120,5.0,51.0
106,43.0,0,120,5.0,51.0
107,59.0,0,120,4.0,51.0
108,62.0,0,120,4.0,51.0
109,72.0,0,120,2.0,47.0
110,84.0,480,120,1.0,47.0
111,79.0,120,120,1.0,46.0
112,67.0,0,120,2.0,46.0
113,84.0,0,120,1.0,45.0
114,72.0,120,120,2.0,45.0
115,79.0,120,120,1.0,44.0
116,67.0,0,120,2.0,44.0
117,72.0,120,360,2.0,43.0
118,84.0,0,360,1.0,43.0
119,36.0,0,1440,5.0,53.0
120,55.0,0,0,4.0,44.0
121,64.0,0,1440,4.0,53.0
122,60.0,480,0,4.0,44.0
123,48.0,0,0,5.0,44.0
124,36.0,0,360,5.0,44.0
125,55.0,360,0,4.0,46.0
126,52.0,0,360,4.0,44.0
127,62.0,0,120,4.0,46.0
128,59.0,0,120,4.0,46.0
129,43.0,0,120,5.0,46.0
130,31.0,0,120,5.0,46.0
131,84.0,480,120,1.0,46.0
132,72.0,0,120,2.0,46.0
133,67.0,0,120,2.0,45.0
134,79.0,120,120,1.0,45.0
135,72.0,120,120,2.0,44.0
136,84.0,0,120,1.0,44.0
137,67.0,120,120,2.0,43.0
138,79.0,0,120,1.0,43.0
139,72.0,120,360,2.0,43.0
140,84.0,0,360,1.0,43.0
141,64.0,0,1344,4.0,49.0
142,48.0,0,1344,5.0,49.0
143,36.0,0,1344,5.0,49.0
144,55.0,0,1344,4.0,49.0
145,60.0,120,1344,4.0,49.0
146,36.0,480,178,5.0,50.0
147,48.0,0,178,5.0,50.0
148,64.0,0,178,2.0,50.0
149,52.0,0,178,4.0,50.0
150,65.0,360,78,2.0,52.0
151,53.0,0,78,4.0,52.0
152,50.0,0,78,4.0,52.0
153,48.0,0,78,5.0,52.0
154,36.0,0,78,5.0,52.0
155,88.0,0,720,1.0,50.0
156,67.0,0,480,2.0,53.0
157,36.0,0,0,5.0,56.0
158,48.0,240,0,5.0,56.0
159,55.0,0,480,4.0,53.0
160,52.0,0,480,4.0,53.0
161,57.0,0,202,4.0,56.0
162,69.0,0,202,2.0,56.0
163,52.0,0,202,4.0,56.0
164,88.0,240,0,1.0,58.0
165,71.0,0,78,2.0,59.0
166,35.0,0,78,5.0,59.0
167,59.0,0,78,4.0,59.0
168,47.0,0,78,5.0,59.0
169,50.0,120,78,4.0,59.0
170,86.0,0,120,1.0,59.0
171,84.0,0,120,1.0,60.0
172,83.0,120,120,1.0,60.0
173,81.0,120,120,1.0,61.0
174,52.0,0,480,4.0,60.0
175,60.0,0,480,4.0,60.0
176,79.0,120,120,1.0,62.0
177,55.0,120,480,4.0,60.0
178,33.0,0,480,5.0,60.0
179,72.0,0,480,2.0,60.0
180,45.0,0,480,5.0,60.0
181,78.0,120,40,1.0,63.0
182,79.0,40,40,1.0,63.0
183,78.0,40,40,1.0,63.0
184,76.0,40,60,1.0,63.0
185,69.0,0,234,2.0,63.0
186,57.0,0,234,4.0,63.0
187,78.0,60,60,1.0,64.0
188,81.0,60,120,1.0,64.0
189,54.0,0,78,4.0,65.0
190,66.0,120,78,2.0,65.0
191,38.0,0,480,5.0,63.0
192,84.0,0,120,1.0,65.0
193,50.0,0,480,5.0,63.0
194,83.0,0,120,1.0,61.0
195,67.0,120,360,2.0,61.0
196,31.0,0,360,5.0,61.0
197,43.0,0,360,5.0,61.0
198,55.0,0,360,4.0,61.0
199,86.0,240,120,1.0,59.0
200,83.0,120,120,1.0,58.0
201,79.0,0,120,1.0,57.0
202,55.0,0,360,4.0,57.0
203,31.0,0,360,5.0,57.0
204,43.0,120,360,5.0,57.0
205,59.0,0,360,4.0,57.0
206,62.0,0,360,4.0,57.0
207,86.0,240,120,1.0,54.0
208,67.0,0,360,2.0,57.0
209,83.0,120,120,1.0,53.0
210,79.0,120,360,1.0,52.0
211,59.0,0,360,4.0,52.0
212,62.0,0,360,4.0,52.0
213,55.0,0,360,4.0,52.0
214,67.0,0,360,2.0,52.0
215,31.0,0,360,5.0,52.0
216,43.0,0,360,5.0,52.0
217,79.0,0,234,1.0,47.0
218,67.0,480,234,1.0,47.0
219,69.0,360,78,1.0,46.0
220,81.0,0,78,1.0,46.0
221,50.0,0,120,3.0,47.0
222,55.0,120,120,3.0,47.0
223,58.0,120,120,3.0,47.0
224,82.0,0,480,1.0,46.0
225,70.0,0,480,1.0,46.0
226,43.0,120,480,5.0,46.0
227,31.0,0,480,5.0,46.0
228,55.0,120,120,3.0,47.0
229,50.0,120,120,3.0,47.0
230,55.0,120,120,3.0,48.0
231,82.0,0,360,1.0,48.0
232,70.0,0,360,1.0,48.0
233,58.0,120,120,3.0,48.0
234,55.0,0,120,3.0,48.0
235,69.0,120,120,1.0,49.0
236,81.0,0,120,1.0,49.0
237,50.0,0,120,3.0,48.0
238,55.0,120,120,3.0,48.0
239,62.0,120,120,3.0,50.0
240,67.0,0,360,1.0,49.0
241,79.0,0,360,1.0,49.0
242,55.0,0,120,3.0,49.0
243,34.0,0,480,5.0,49.0
244,65.0,120,120,1.0,50.0
245,77.0,0,120,1.0,50.0
246,46.0,120,480,5.0,49.0
247,50.0,120,120,3.0,49.0
248,56.0,120,120,3.0,49.0
249,64.0,0,360,1.0,50.0
250,76.0,0,360,1.0,50.0
251,62.0,120,120,3.0,51.0
252,64.0,120,0,1.0,52.0
253,74.0,120,120,1.0,51.0
254,56.0,0,120,3.0,50.0
255,52.0,0,120,3.0,50.0
256,73.0,0,234,1.0,52.0
257,57.0,120,120,3.0,50.0
258,61.0,120,120,3.0,50.0
259,76.0,120,78,1.0,53.0
260,45.0,0,480,5.0,52.0
261,57.0,0,120,3.0,50.0
262,33.0,0,480,5.0,52.0
263,52.0,120,120,3.0,51.0
264,57.0,120,120,3.0,51.0
265,61.0,120,120,3.0,51.0
266,57.0,120,120,3.0,51.0
267,55.0,120,120,3.0,51.0
268,81.0,0,720,1.0,53.0
269,57.0,120,120,3.0,52.0
270,61.0,0,120,3.0,52.0
271,82.0,120,120,1.0,55.0
272,57.0,120,120,3.0,52.0
273,81.0,0,0,1.0,56.0
274,38.0,0,120,3.0,52.0
275,53.0,0,234,5.0,56.0
276,57.0,120,234,5.0,56.0
277,62.0,0,234,5.0,56.0
278,79.0,120,120,1.0,56.0
279,45.0,0,120,3.0,52.0
280,33.0,0,120,3.0,53.0
281,77.0,120,120,1.0,56.0
282,57.0,120,78,5.0,57.0
283,61.0,0,78,5.0,57.0
284,64.0,0,78,5.0,57.0
285,76.0,0,120,1.0,57.0
286,45.0,0,120,3.0,53.0
287,38.0,0,120,3.0,53.0
288,45.0,120,120,3.0,53.0
289,50.0,120,120,3.0,53.0
290,74.0,120,360,1.0,57.0
291,45.0,120,120,3.0,54.0
292,38.0,120,120,3.0,54.0
293,86.0,0,234,1.0,58.0
294,74.0,0,234,1.0,58.0
295,45.0,120,120,3.0,54.0
296,50.0,120,120,3.0,54.0
297,85.0,0,78,2.0,60.0
298,76.0,120,78,1.0,60.0
299,88.0,0,78,1.0,60.0
300,73.0,0,78,2.0,60.0
301,45.0,0,120,3.0,54.0
302,38.0,120,120,3.0,55.0
303,45.0,120,120,3.0,55.0
304,89.0,0,360,1.0,60.0
305,77.0,0,360,1.0,60.0
306,50.0,120,120,3.0,55.0
307,86.0,0,360,2.0,60.0
308,74.0,0,360,2.0,60.0
309,57.0,0,1440,5.0,57.0
310,45.0,120,120,3.0,55.0
311,65.0,0,1440,5.0,57.0
312,62.0,0,1440,5.0,57.0
313,38.0,0,120,3.0,55.0
314,57.0,0,234,5.0,61.0
315,62.0,0,234,5.0,61.0
316,53.0,120,234,5.0,61.0
317,45.0,120,120,3.0,56.0
318,33.0,120,120,3.0,56.0
319,57.0,0,78,5.0,62.0
320,61.0,0,78,5.0,62.0
321,64.0,0,78,5.0,62.0
322,45.0,120,120,3.0,56.0
323,38.0,0,120,3.0,56.0
324,45.0,120,120,3.0,56.0
325,50.0,120,120,3.0,57.0
326,45.0,120,120,3.0,57.0
327,38.0,120,120,3.0,57.0
328,86.0,0,234,1.0,64.0
329,74.0,0,234,1.0,64.0
330,45.0,120,120,3.0,57.0
331,50.0,120,120,3.0,57.0
332,76.0,0,78,1.0,65.0
333,88.0,0,78,1.0,65.0
334,85.0,0,78,2.0,65.0
335,73.0,120,78,2.0,65.0
336,45.0,0,120,3.0,58.0
337,38.0,120,120,3.0,58.0
338,45.0,120,120,3.0,58.0
339,77.0,0,360,1.0,65.0
340,89.0,0,360,1.0,65.0
341,86.0,0,360,2.0,65.0
342,74.0,0,360,2.0,65.0
343,50.0,120,120,3.0,58.0
344,57.0,120,1440,5.0,63.0
345,62.0,0,1440,5.0,63.0
346,45.0,120,120,3.0,58.0
347,65.0,0,1440,5.0,63.0
348,38.0,0,120,3.0,59.0
349,65.0,120,234,1.0,67.0
350,77.0,0,234,1.0,67.0
351,50.0,120,120,3.0,59.0
352,36.0,120,120,3.0,59.0
353,76.0,0,78,2.0,68.0
354,79.0,0,78,1.0,68.0
355,67.0,0,78,1.0,68.0
356,64.0,0,78,2.0,68.0
357,48.0,120,120,3.0,59.0
358,29.0,120,120,3.0,59.0
359,36.0,120,120,3.0,60.0
360,41.0,120,120,3.0,60.0
361,36.0,120,120,3.0,60.0
362,29.0,0,120,3.0,60.0
363,45.0,120,234,5.0,69.0
364,53.0,0,234,5.0,69.0
365,36.0,120,120,3.0,61.0
366,41.0,120,120,3.0,61.0
367,48.0,0,78,5.0,71.0
368,55.0,120,78,5.0,71.0
369,36.0,0,120,3.0,61.0
370,29.0,120,120,3.0,61.0
371,36.0,120,120,3.0,61.0
372,57.0,0,360,5.0,71.0
373,53.0,0,360,5.0,71.0
374,41.0,120,120,3.0,62.0
375,36.0,120,120,3.0,62.0
376,65.0,0,1440,2.0,68.0
377,77.0,0,1440,2.0,68.0
378,69.0,0,1440,1.0,68.0
379,81.0,0,1440,1.0,68.0
380,29.0,120,120,3.0,62.0
381,65.0,0,234,1.0,72.0
382,77.0,0,234,1.0,72.0
383,36.0,120,120,3.0,62.0
384,41.0,120,120,3.0,62.0
385,67.0,0,78,1.0,73.0
386,64.0,0,78,2.0,73.0
387,76.0,0,78,2.0,73.0
388,79.0,0,78,1.0,73.0
389,36.0,120,120,3.0,63.0
390,29.0,0,120,3.0,63.0
391,36.0,120,120,3.0,63.0
392,69.0,120,360,1.0,74.0
393,81.0,0,360,1.0,74.0
394,77.0,0,360,2.0,74.0
395,65.0,0,360,2.0,74.0
396,41.0,120,120,3.0,63.0
397,36.0,120,120,3.0,63.0
398,29.0,0,120,3.0,64.0
399,45.0,0,234,5.0,75.0
400,53.0,120,234,5.0,75.0
401,77.0,0,234,1.0,75.0
402,65.0,0,234,1.0,75.0
403,36.0,120,120,3.0,64.0
404,41.0,120,120,3.0,64.0
405,55.0,120,78,5.0,76.0
406,79.0,0,78,1.0,76.0
407,67.0,0,78,1.0,76.0
408,64.0,0,78,2.0,76.0
409,76.0,0,78,2.0,76.0
410,48.0,0,78,5.0,76.0
411,36.0,0,120,3.0,64.0
412,29.0,0,120,3.0,64.0
413,36.0,120,120,3.0,65.0
414,65.0,0,360,2.0,76.0
415,53.0,0,360,5.0,76.0
416,57.0,0,360,5.0,76.0
417,77.0,120,360,2.0,76.0
418,81.0,0,360,1.0,76.0
419,69.0,0,360,1.0,76.0
420,41.0,120,120,3.0,65.0
421,36.0,120,120,3.0,65.0
422,29.0,120,120,3.0,65.0
423,65.0,0,234,1.0,77.0
424,53.0,0,234,5.0,77.0
425,45.0,0,234,5.0,77.0
426,77.0,0,234,1.0,77.0
427,36.0,120,120,3.0,65.0
428,41.0,120,120,3.0,66.0
429,55.0,0,78,5.0,83.0
430,64.0,120,78,2.0,83.0
431,76.0,0,78,2.0,83.0
432,79.0,0,78,1.0,83.0
433,67.0,0,78,1.0,83.0
434,48.0,0,78,5.0,83.0
435,36.0,0,120,3.0,66.0
436,57.0,0,360,5.0,86.0
437,53.0,120,360,5.0,86.0
438,77.0,0,360,2.0,86.0
439,65.0,0,360,2.0,86.0
440,69.0,0,360,1.0,86.0
441,81.0,0,360,1.0,86.0
442,62.0,0,234,1.0,79.0
443,74.0,0,234,1.0,79.0
444,38.0,0,234,5.0,79.0
445,50.0,480,234,5.0,79.0
446,64.0,360,78,1.0,81.0
447,40.0,0,78,5.0,81.0
448,52.0,0,78,5.0,81.0
449,76.0,0,78,1.0,81.0
450,41.0,0,360,5.0,86.0
451,53.0,0,360,5.0,86.0
452,65.0,120,360,1.0,86.0
453,77.0,0,360,1.0,86.0
454,47.0,0,234,5.0,79.0
455,71.0,480,234,1.0,79.0
456,59.0,0,234,1.0,79.0
457,35.0,0,234,5.0,79.0
458,36.0,0,78,5.0,82.0
459,48.0,0,78,5.0,82.0
460,72.0,360,78,1.0,82.0
461,60.0,0,78,1.0,82.0
462,50.0,120,120,3.0,81.0
463,47.0,120,120,3.0,80.0
464,62.0,0,360,1.0,83.0
465,74.0,0,360,1.0,83.0
466,38.0,0,360,5.0,83.0
467,50.0,120,120,3.0,79.0
468,47.0,120,120,3.0,78.0
469,43.0,0,120,3.0,77.0
470,55.0,0,234,2.0,80.0
471,67.0,0,234,2.0,80.0
472,47.0,120,120,3.0,77.0
473,50.0,120,120,3.0,76.0
474,31.0,120,360,5.0,80.0
475,55.0,0,78,2.0,78.0
476,67.0,120,78,2.0,78.0
477,47.0,0,120,3.0,75.0
478,43.0,120,120,3.0,74.0
479,47.0,120,120,3.0,75.0
480,55.0,0,360,2.0,78.0
481,67.0,0,360,2.0,78.0
482,50.0,120,120,3.0,76.0
483,47.0,120,120,3.0,77.0
484,43.0,0,120,3.0,79.0
485,31.0,0,234,5.0,83.0
486,47.0,120,120,3.0,80.0
487,62.0,0,360,1.0,83.0
488,55.0,0,360,2.0,83.0
489,71.0,0,360,2.0,83.0
490,50.0,120,120,3.0,81.0
491,74.0,120,360,1.0,83.0
492,31.0,120,78,5.0,86.0
493,47.0,0,120,3.0,83.0
494,43.0,120,120,3.0,89.0
495,48.0,120,120,3.0,89.0
496,52.0,120,120,3.0,88.0
497,36.0,0,360,5.0,92.0
498,48.0,120,120,3.0,88.0
499,43.0,0,120,3.0,88.0
500,64.0,0,720,1.0,92.0
501,48.0,120,120,3.0,87.0
502,60.0,0,720,2.0,92.0
503,76.0,0,720,1.0,92.0
504,72.0,0,720,2.0,92.0
505,36.0,120,360,5.0,90.0
506,52.0,0,120,3.0,87.0
507,59.0,0,240,2.0,90.0
508,62.0,120,240,1.0,90.0
509,74.0,0,240,1.0,90.0
510,48.0,120,120,3.0,87.0
511,71.0,0,240,2.0,90.0
512,43.0,0,120,3.0,86.0
513,52.0,120,240,2.0,89.0
514,48.0,120,120,3.0,86.0
515,67.0,0,240,2.0,89.0
516,72.0,0,240,1.0,89.0
517,60.0,0,240,1.0,89.0
518,52.0,0,120,3.0,85.0
519,76.0,0,156,1.0,88.0
520,72.0,120,156,2.0,88.0
521,60.0,0,156,2.0,88.0
522,64.0,0,156,1.0,88.0
523,48.0,120,120,3.0,85.0
524,43.0,0,120,3.0,85.0
525,67.0,0,156,1.0,88.0
526,79.0,0,156,1.0,88.0
527,64.0,0,156,2.0,88.0
528,76.0,0,156,2.0,88.0
529,36.0,120,234,5.0,88.0
530,48.0,120,120,3.0,84.0
531,52.0,0,120,3.0,84.0
532,72.0,0,156,2.0,87.0
533,60.0,120,156,2.0,87.0
534,76.0,0,156,1.0,87.0
535,64.0,0,156,1.0,87.0
536,36.0,120,78,5.0,87.0
537,48.0,0,120,3.0,83.0
538,43.0,0,120,3.0,83.0
539,47.0,120,120,3.0,83.0
540,71.0,0,360,2.0,86.0
541,59.0,0,360,2.0,86.0
542,31.0,0,360,5.0,86.0
543,74.0,0,360,1.0,86.0
544,62.0,120,360,1.0,86.0
545,50.0,120,120,3.0,82.0
546,47.0,120,120,3.0,82.0
547,43.0,0,120,3.0,81.0
548,67.0,0,234,2.0,85.0
549,55.0,0,234,2.0,85.0
550,47.0,120,120,3.0,81.0
551,50.0,120,120,3.0,81.0
552,31.0,120,360,5.0,85.0
553,67.0,0,78,2.0,84.0
554,55.0,0,78,2.0,84.0
555,47.0,120,120,3.0,80.0
556,43.0,0,120,3.0,78.0
557,47.0,120,120,3.0,80.0
558,55.0,120,360,2.0,84.0
559,50.0,120,120,3.0,81.0
560,67.0,0,360,2.0,84.0
561,47.0,120,120,3.0,82.0
562,43.0,0,120,3.0,84.0
563,31.0,0,234,5.0,89.0
564,47.0,120,120,3.0,85.0
565,62.0,0,360,1.0,89.0
566,74.0,0,360,1.0,89.0
567,50.0,120,120,3.0,87.0
568,55.0,120,360,2.0,89.0
569,71.0,0,360,2.0,89.0
570,31.0,120,78,5.0,93.0
571,47.0,0,120,3.0,88.0
572,43.0,120,120,3.0,91.0
573,48.0,120,120,3.0,91.0
574,36.0,0,360,5.0,99.0
575,52.0,120,120,3.0,91.0
576,48.0,120,120,3.0,90.0
577,43.0,120,120,3.0,90.0
578,76.0,0,720,1.0,99.0
579,48.0,120,120,3.0,90.0
580,64.0,0,720,1.0,99.0
581,60.0,0,720,2.0,99.0
582,72.0,0,720,2.0,99.0
583,36.0,0,360,5.0,97.0
584,52.0,120,120,3.0,89.0
585,71.0,0,240,2.0,96.0
586,48.0,120,120,3.0,89.0
587,62.0,0,240,1.0,96.0
588,74.0,0,240,1.0,96.0
589,59.0,0,240,2.0,96.0
590,43.0,120,120,3.0,89.0
591,52.0,0,240,2.0,96.0
592,67.0,0,240,2.0,96.0
593,72.0,0,240,1.0,96.0
594,60.0,0,240,1.0,96.0
595,48.0,120,120,3.0,88.0
596,52.0,0,120,3.0,88.0
597,60.0,120,156,2.0,95.0
598,76.0,0,156,1.0,95.0
599,72.0,0,156,2.0,95.0
600,64.0,0,156,1.0,95.0
601,48.0,120,120,3.0,87.0
602,43.0,0,120,3.0,87.0
603,79.0,0,156,1.0,95.0
604,64.0,0,156,2.0,95.0
605,67.0,0,156,1.0,95.0
606,76.0,0,156,2.0,95.0
607,36.0,120,234,5.0,95.0
608,48.0,120,120,3.0,87.0
609,52.0,0,120,3.0,86.0
610,72.0,0,156,2.0,94.0
611,60.0,120,156,2.0,94.0
612,64.0,0,156,1.0,94.0
613,76.0,0,156,1.0,94.0
614,36.0,0,78,5.0,94.0
615,48.0,120,120,3.0,86.0
616,59.0,120,360,2.0,97.0
617,71.0,0,360,2.0,97.0
618,31.0,0,360,5.0,97.0
619,74.0,0,360,1.0,97.0
620,62.0,0,360,1.0,97.0
621,36.0,0,234,5.0,93.0
622,48.0,0,234,5.0,93.0
623,60.0,480,234,4.0,93.0
624,55.0,0,234,4.0,93.0
625,64.0,0,234,4.0,93.0
626,64.0,0,78,4.0,91.0
627,60.0,0,78,4.0,91.0
628,36.0,0,78,5.0,91.0
629,55.0,0,78,4.0,91.0
630,48.0,360,78,5.0,91.0
631,59.0,0,360,4.0,90.0
632,62.0,0,360,4.0,90.0
633,55.0,0,360,4.0,90.0
634,43.0,120,360,5.0,90.0
635,31.0,0,360,5.0,90.0
636,85.0,0,234,2.0,96.0
637,67.0,0,234,2.0,96.0
638,73.0,0,234,2.0,96.0
639,55.0,0,234,4.0,96.0
640,31.0,0,234,5.0,96.0
641,43.0,0,234,5.0,96.0
642,76.0,480,234,1.0,96.0
643,88.0,0,234,1.0,96.0
644,64.0,0,234,4.0,96.0
645,61.0,0,234,4.0,96.0
646,73.0,0,78,2.0,102.0
647,67.0,0,78,2.0,102.0
648,43.0,360,78,5.0,102.0
649,76.0,0,78,1.0,102.0
650,88.0,0,78,1.0,102.0
651,85.0,0,78,2.0,102.0
652,55.0,0,78,4.0,102.0
653,61.0,0,78,4.0,102.0
654,64.0,0,78,4.0,102.0
655,31.0,0,78,5.0,102.0
656,31.0,0,120,5.0,103.0
657,31.0,120,120,5.0,103.0
658,86.0,80,380,1.0,103.0
659,43.0,0,340,5.0,103.0
660,67.0,0,355,2.0,103.0
661,77.0,0,360,1.0,103.0
662,33.0,120,120,5.0,100.0
663,65.0,0,360,4.0,103.0
664,62.0,0,360,4.0,103.0
665,55.0,0,360,4.0,103.0
666,74.0,0,365,2.0,103.0
667,35.0,120,120,5.0,97.0
668,36.0,120,120,5.0,94.0
669,89.0,40,600,1.0,103.0
670,38.0,120,120,5.0,92.0
671,88.0,0,120,1.0,92.0
672,86.0,120,120,1.0,89.0
673,40.0,0,120,5.0,89.0
674,84.0,120,120,1.0,86.0
675,42.0,0,120,5.0,86.0
676,83.0,120,120,1.0,83.0
677,43.0,0,120,5.0,83.0
678,81.0,120,120,1.0,79.0
679,42.0,0,120,5.0,79.0
680,79.0,0,120,1.0,75.0
681,43.0,120,120,5.0,75.0
682,45.0,0,120,5.0,71.0
683,77.0,120,120,1.0,71.0
684,76.0,0,120,1.0,68.0
685,43.0,120,120,5.0,68.0
686,60.0,0,234,1.0,68.0
687,52.0,0,234,2.0,68.0
688,74.0,120,120,1.0,64.0
689,41.0,0,120,5.0,64.0
690,40.0,120,120,5.0,60.0
691,72.0,0,120,1.0,60.0
692,62.0,0,78,1.0,57.0
693,55.0,0,78,2.0,57.0
694,38.0,120,120,5.0,57.0
695,74.0,0,120,1.0,57.0
696,36.0,0,0,5.0,50.0
697,48.0,480,120,5.0,50.0
698,31.0,0,120,5.0,48.0
699,43.0,120,120,5.0,48.0
700,48.0,120,120,5.0,47.0
701,36.0,0,120,5.0,47.0
702,31.0,120,120,5.0,45.0
703,43.0,0,120,5.0,45.0
704,36.0,0,360,5.0,44.0
705,48.0,120,360,5.0,44.0
706,72.0,0,1440,2.0,55.0
707,64.0,120,1440,1.0,55.0
708,76.0,0,1440,1.0,55.0
709,60.0,0,1440,2.0,55.0
710,52.0,0,234,2.0,45.0
711,60.0,480,234,1.0,45.0
712,72.0,0,234,1.0,45.0
713,67.0,0,234,2.0,45.0
714,71.0,0,78,2.0,48.0
715,62.0,360,78,1.0,48.0
716,74.0,0,78,1.0,48.0
717,55.0,0,78,2.0,48.0
718,48.0,0,120,5.0,48.0
719,36.0,480,120,5.0,48.0
720,31.0,120,120,5.0,47.0
721,43.0,0,120,5.0,47.0
722,36.0,0,120,5.0,46.0
723,48.0,120,120,5.0,46.0
724,31.0,120,120,5.0,45.0
725,43.0,0,120,5.0,45.0
726,48.0,0,360,5.0,43.0
727,36.0,120,360,5.0,43.0
728,76.0,480,0,1.0,47.0
729,64.0,0,1440,1.0,51.0
730,72.0,0,0,2.0,47.0
731,60.0,0,0,2.0,47.0
732,64.0,0,234,1.0,47.0
733,48.0,0,234,5.0,47.0
734,52.0,0,235,4.0,47.0
735,36.0,0,235,5.0,47.0
736,36.0,0,78,5.0,49.0
737,50.0,0,78,4.0,49.0
738,53.0,0,78,4.0,49.0
739,74.0,360,78,2.0,49.0
740,62.0,0,78,2.0,49.0
741,65.0,0,78,1.0,49.0
742,77.0,0,78,1.0,49.0
743,48.0,0,78,5.0,49.0
744,36.0,0,480,5.0,50.0
745,48.0,0,480,5.0,50.0
746,64.0,0,480,2.0,50.0
747,76.0,0,0,2.0,52.0
748,52.0,120,480,4.0,50.0
749,55.0,0,480,4.0,50.0
750,79.0,0,480,1.0,50.0
751,67.0,0,480,1.0,50.0
752,64.0,0,234,2.0,52.0
753,81.0,0,234,1.0,52.0
754,48.0,480,234,5.0,52.0
755,69.0,0,234,1.0,52.0
756,57.0,0,235,4.0,52.0
757,52.0,0,235,4.0,52.0
758,36.0,0,235,5.0,52.0
759,83.0,0,78,1.0,54.0
760,50.0,0,78,4.0,54.0
761,35.0,0,78,5.0,54.0
762,71.0,0,78,1.0,54.0
763,59.0,0,78,4.0,54.0
764,47.0,0,78,5.0,54.0
765,62.0,360,78,2.0,54.0
766,74.0,0,78,2.0,54.0
767,76.0,0,480,2.0,55.0
768,64.0,0,480,2.0,55.0
769,52.0,0,480,4.0,55.0
770,60.0,0,480,4.0,55.0
771,84.0,0,480,1.0,55.0
772,72.0,0,480,1.0,55.0
773,33.0,0,480,5.0,55.0
774,45.0,120,480,5.0,55.0
775,72.0,0,234,2.0,57.0
776,48.0,480,234,4.0,57.0
777,69.0,0,234,1.0,57.0
778,60.0,0,234,2.0,57.0
779,81.0,0,234,1.0,57.0
780,57.0,0,235,4.0,57.0
781,38.0,0,235,5.0,57.0
782,57.0,0,78,2.0,59.0
783,69.0,0,78,2.0,59.0
784,45.0,0,78,4.0,59.0
785,54.0,0,78,4.0,59.0
786,66.0,360,78,1.0,59.0
787,38.0,0,78,5.0,59.0
788,78.0,0,78,1.0,59.0
789,47.0,0,360,4.0,61.0
790,55.0,0,360,4.0,61.0
791,31.0,0,360,5.0,61.0
792,59.0,120,360,2.0,61.0
793,71.0,0,360,2.0,61.0
794,67.0,0,360,1.0,61.0
795,79.0,0,360,1.0,61.0
796,59.0,0,360,2.0,58.0
797,79.0,0,360,1.0,58.0
798,71.0,0,360,2.0,58.0
799,31.0,0,360,5.0,58.0
800,67.0,0,360,1.0,58.0
801,74.0,0,360,2.0,58.0
802,55.0,0,360,4.0,58.0
803,50.0,480,360,4.0,58.0
804,47.0,0,360,4.0,58.0
805,62.0,0,360,2.0,58.0
806,43.0,0,360,5.0,58.0
807,79.0,0,360,1.0,55.0
808,67.0,0,360,1.0,55.0
809,71.0,0,360,2.0,55.0
810,31.0,480,360,5.0,55.0
811,59.0,0,360,2.0,55.0
812,62.0,0,360,2.0,55.0
813,55.0,0,360,4.0,55.0
814,47.0,0,360,4.0,55.0
815,50.0,0,360,4.0,55.0
816,43.0,0,360,5.0,55.0
817,74.0,0,360,2.0,55.0
818,59.0,480,234,4.0,48.0
819,50.0,0,234,4.0,48.0
820,47.0,0,234,4.0,48.0
821,43.0,0,234,5.0,48.0
822,62.0,0,234,4.0,48.0
823,55.0,0,234,5.0,48.0
824,55.0,0,78,5.0,50.0
825,52.0,360,78,4.0,50.0
826,43.0,0,78,5.0,50.0
827,48.0,0,78,4.0,50.0
828,64.0,0,78,4.0,50.0
829,60.0,0,78,4.0,50.0
830,74.0,0,234,2.0,55.0
831,89.0,0,234,1.0,55.0
832,77.0,0,234,1.0,55.0
833,86.0,480,234,2.0,55.0
834,76.0,0,78,1.0,57.0
835,88.0,0,78,1.0,57.0
836,84.0,0,78,2.0,57.0
837,72.0,360,78,2.0,57.0
838,43.0,0,1440,5.0,51.0
839,55.0,120,1440,5.0,51.0
840,65.0,0,1440,4.0,51.0
841,53.0,0,1440,4.0,51.0
842,50.0,480,0,4.0,61.0
843,62.0,0,0,4.0,61.0
844,59.0,0,234,4.0,61.0
845,47.0,0,234,4.0,61.0
846,43.0,0,234,5.0,61.0
847,55.0,0,234,5.0,61.0
848,55.0,0,78,5.0,64.0
849,60.0,0,78,4.0,64.0
850,48.0,0,78,4.0,64.0
851,52.0,360,78,4.0,64.0
852,43.0,0,78,5.0,64.0
853,64.0,0,78,4.0,64.0
854,43.0,0,360,5.0,65.0
855,55.0,0,360,5.0,65.0
856,65.0,0,360,4.0,65.0
857,50.0,120,360,4.0,65.0
858,62.0,0,360,4.0,65.0
859,53.0,0,360,4.0,65.0
860,86.0,0,1440,1.0,58.0
861,74.0,0,1440,1.0,58.0
862,83.0,120,1440,2.0,58.0
863,71.0,0,1440,2.0,58.0
864,47.0,480,234,4.0,68.0
865,89.0,0,234,1.0,68.0
866,74.0,0,234,2.0,68.0
867,77.0,0,234,1.0,68.0
868,86.0,0,234,2.0,68.0
869,44.0,0,234,5.0,68.0
870,62.0,0,234,4.0,68.0
871,50.0,0,234,4.0,68.0
872,59.0,0,234,4.0,68.0
873,56.0,0,234,5.0,68.0
874,44.0,0,78,5.0,70.0
875,56.0,360,78,5.0,70.0
876,52.0,0,78,4.0,70.0
877,72.0,0,78,2.0,70.0
878,48.0,0,78,4.0,70.0
879,60.0,0,78,4.0,70.0
880,64.0,0,78,4.0,70.0
881,88.0,0,78,1.0,70.0
882,76.0,0,78,1.0,70.0
883,84.0,0,78,2.0,70.0
884,50.0,0,360,4.0,71.0
885,65.0,0,360,4.0,71.0
886,62.0,0,360,4.0,71.0
887,53.0,0,360,4.0,71.0
888,71.0,0,360,2.0,71.0
889,44.0,0,360,5.0,71.0
890,83.0,120,360,2.0,71.0
891,74.0,0,360,1.0,71.0
892,86.0,0,360,1.0,71.0
893,56.0,0,360,5.0,71.0
894,83.0,0,234,2.0,75.0
895,71.0,480,234,2.0,75.0
896,88.0,0,234,1.0,75.0
897,76.0,0,234,1.0,75.0
898,47.0,0,234,4.0,75.0
899,59.0,0,234,4.0,75.0
900,52.0,0,234,4.0,75.0
901,44.0,0,234,5.0,75.0
902,56.0,0,234,5.0,75.0
903,64.0,0,234,4.0,75.0
904,56.0,0,78,5.0,77.0
905,44.0,0,78,5.0,77.0
906,83.0,0,78,2.0,77.0
907,71.0,0,78,2.0,77.0
908,47.0,0,78,4.0,77.0
909,86.0,0,78,1.0,77.0
910,74.0,360,78,1.0,77.0
911,52.0,0,78,4.0,77.0
912,64.0,0,78,4.0,77.0
913,59.0,0,78,4.0,77.0
914,84.0,0,104,1.0,85.0
915,72.0,0,104,1.0,85.0
916,57.0,120,160,4.0,85.0
917,83.0,0,104,1.0,84.0
918,71.0,160,104,1.0,84.0
919,60.0,0,160,4.0,84.0
920,45.0,0,360,5.0,85.0
921,48.0,0,360,4.0,85.0
922,52.0,0,360,4.0,85.0
923,72.0,0,104,1.0,83.0
924,84.0,0,104,1.0,83.0
925,64.0,160,160,4.0,83.0
926,86.0,0,104,1.0,81.0
927,74.0,0,104,1.0,81.0
928,57.0,160,160,4.0,81.0
929,41.0,0,234,5.0,81.0
930,88.0,0,104,1.0,80.0
931,76.0,160,104,1.0,80.0
932,62.0,0,160,4.0,80.0
933,89.0,0,104,1.0,78.0
934,77.0,160,104,1.0,78.0
935,41.0,40,78,5.0,78.0
936,65.0,0,160,4.0,78.0
937,88.0,120,104,1.0,77.0
938,76.0,0,104,1.0,77.0
939,55.0,0,160,4.0,77.0
940,74.0,160,104,1.0,75.0
941,86.0,0,104,1.0,75.0
942,60.0,0,160,4.0,75.0
943,43.0,0,360,5.0,77.0
944,72.0,0,104,1.0,74.0
945,84.0,160,104,1.0,74.0
946,64.0,0,160,4.0,74.0
947,67.0,160,104,1.0,73.0
948,79.0,0,104,1.0,73.0
949,53.0,0,160,4.0,73.0
950,31.0,0,234,5.0,73.0
951,81.0,160,104,1.0,71.0
952,69.0,0,104,1.0,71.0
953,55.0,0,160,4.0,71.0
954,71.0,160,104,1.0,70.0
955,83.0,0,104,1.0,70.0
956,31.0,40,78,5.0,67.0
957,62.0,0,160,4.0,70.0
958,43.0,120,120,3.0,60.0
959,52.0,0,360,4.0,66.0
960,55.0,0,360,4.0,66.0
961,60.0,0,360,4.0,66.0
962,48.0,120,120,3.0,60.0
963,84.0,0,360,1.0,66.0
964,72.0,120,360,1.0,66.0
965,36.0,120,0,5.0,59.0
966,43.0,120,120,3.0,59.0
967,43.0,120,120,3.0,58.0
968,63.0,0,360,1.0,59.0
969,48.0,120,120,3.0,58.0
970,75.0,0,360,1.0,59.0
971,74.0,0,120,1.0,58.0
972,62.0,120,120,1.0,58.0
973,43.0,0,120,3.0,57.0
974,43.0,120,120,3.0,56.0
975,48.0,120,120,3.0,56.0
976,60.0,0,360,1.0,57.0
977,72.0,0,360,1.0,57.0
978,43.0,120,120,3.0,55.0
979,36.0,120,480,5.0,57.0
980,79.0,0,234,2.0,55.0
981,62.0,120,234,1.0,55.0
982,74.0,0,234,1.0,55.0
983,43.0,120,120,3.0,55.0
984,47.0,120,120,3.0,54.0
985,79.0,120,78,2.0,54.0
986,74.0,0,78,1.0,54.0
987,62.0,0,78,1.0,54.0
988,43.0,0,120,3.0,54.0
989,31.0,0,480,5.0,55.0
990,43.0,120,120,3.0,53.0
991,76.0,0,360,1.0,54.0
992,64.0,0,360,1.0,54.0
993,79.0,0,360,2.0,54.0
994,48.0,120,120,3.0,52.0
995,43.0,120,120,3.0,52.0
996,36.0,120,480,5.0,54.0
997,43.0,120,120,3.0,51.0
998,48.0,120,120,3.0,50.0
999,76.0,0,360,1.0,52.0
1000,64.0,120,360,1.0,52.0
1001,36.0,0,480,5.0,52.0
1002,74.0,0,120,1.0,50.0
1003,62.0,120,120,1.0,50.0
1004,43.0,0,120,3.0,50.0
1005,43.0,120,120,3.0,49.0
1006,60.0,120,360,1.0,50.0
1007,48.0,120,120,3.0,48.0
1008,72.0,0,360,1.0,50.0
1009,36.0,0,480,5.0,50.0
1010,43.0,120,120,3.0,48.0
1011,79.0,0,234,2.0,48.0
1012,74.0,0,234,1.0,48.0
1013,62.0,120,234,1.0,48.0
1014,43.0,120,120,3.0,47.0
1015,47.0,120,120,3.0,47.0
1016,74.0,120,78,1.0,48.0
1017,62.0,0,78,1.0,48.0
1018,79.0,0,78,2.0,48.0
1019,43.0,0,120,3.0,46.0
1020,31.0,0,480,5.0,48.0
1021,43.0,120,120,3.0,45.0
1022,48.0,120,120,3.0,44.0
1023,79.0,0,360,2.0,48.0
1024,63.0,120,360,1.0,48.0
1025,75.0,0,360,1.0,48.0
1026,43.0,120,120,3.0,45.0
1027,36.0,0,480,5.0,48.0
1028,48.0,0,120,3.0,45.0
1029,53.0,120,120,3.0,46.0
1030,75.0,0,360,1.0,50.0
1031,60.0,120,120,3.0,46.0
1032,87.0,120,360,1.0,50.0
1033,74.0,0,120,1.0,52.0
1034,32.0,0,480,5.0,50.0
1035,44.0,0,480,5.0,50.0
1036,86.0,0,120,1.0,52.0
1037,53.0,120,120,3.0,47.0
1038,48.0,0,120,3.0,47.0
1039,55.0,120,120,3.0,48.0
1040,72.0,0,360,1.0,53.0
1041,84.0,0,360,1.0,53.0
1042,60.0,120,120,3.0,48.0
1043,31.0,0,480,5.0,53.0
1044,43.0,120,480,5.0,53.0
1045,55.0,120,120,3.0,49.0
1046,48.0,0,120,3.0,49.0
1047,86.0,0,234,1.0,55.0
1048,74.0,0,234,1.0,55.0
1049,56.0,120,120,3.0,50.0
1050,60.0,120,120,3.0,50.0
1051,86.0,0,78,1.0,56.0
1052,74.0,0,78,1.0,56.0
1053,56.0,120,120,3.0,51.0
1054,41.0,0,480,5.0,55.0
1055,29.0,120,480,5.0,55.0
1056,48.0,0,120,3.0,51.0
1057,55.0,120,120,3.0,52.0
1058,60.0,120,120,3.0,52.0
1059,88.0,120,360,1.0,57.0
1060,76.0,0,360,1.0,57.0
1061,55.0,120,120,3.0,53.0
1062,43.0,0,480,5.0,57.0
1063,31.0,0,480,5.0,57.0
1064,48.0,120,120,3.0,53.0
1065,54.0,120,120,3.0,54.0
1066,60.0,120,120,3.0,54.0
1067,76.0,0,360,1.0,59.0
1068,88.0,0,360,1.0,59.0
1069,86.0,0,120,1.0,61.0
1070,74.0,0,120,1.0,61.0
1071,54.0,120,120,3.0,55.0
1072,45.0,0,480,5.0,59.0
1073,33.0,0,480,5.0,59.0
1074,48.0,0,120,3.0,56.0
1075,55.0,120,120,3.0,56.0
1076,84.0,0,360,1.0,61.0
1077,72.0,120,360,1.0,61.0
1078,60.0,120,120,3.0,57.0
1079,43.0,0,480,5.0,61.0
1080,31.0,0,480,5.0,61.0
1081,55.0,120,120,3.0,57.0
1082,48.0,0,120,3.0,58.0
1083,86.0,0,234,1.0,64.0
1084,74.0,0,234,1.0,64.0
1085,57.0,120,120,3.0,58.0
1086,60.0,120,120,3.0,59.0
1087,86.0,0,78,1.0,65.0
1088,74.0,0,78,1.0,65.0
1089,30.0,120,480,5.0,64.0
1090,42.0,0,480,5.0,64.0
1091,57.0,120,120,3.0,59.0
1092,48.0,0,120,3.0,60.0
1093,55.0,120,120,3.0,60.0
1094,43.0,0,360,5.0,66.0
1095,60.0,120,120,3.0,61.0
1096,31.0,120,360,5.0,66.0
1097,88.0,0,360,1.0,66.0
1098,76.0,0,360,1.0,66.0
1099,55.0,120,120,3.0,61.0
1100,52.0,0,120,3.0,62.0
1101,32.0,0,234,5.0,68.0
1102,44.0,0,234,5.0,68.0
1103,59.0,120,120,3.0,62.0
1104,76.0,0,360,1.0,68.0
1105,88.0,120,360,1.0,68.0
1106,62.0,120,120,3.0,63.0
1107,32.0,0,78,5.0,70.0
1108,44.0,0,78,5.0,70.0
1109,59.0,0,120,3.0,63.0
1110,86.0,120,120,1.0,70.0
1111,74.0,0,120,1.0,70.0
1112,52.0,120,120,3.0,64.0
1113,57.0,120,120,3.0,64.0
1114,60.0,120,120,3.0,65.0
1115,84.0,0,360,1.0,70.0
1116,72.0,0,360,1.0,70.0
1117,33.0,0,360,5.0,70.0
1118,45.0,0,360,5.0,70.0
1119,57.0,120,120,3.0,65.0
1120,48.0,0,120,3.0,66.0
1121,40.0,120,234,5.0,72.0
1122,55.0,120,120,3.0,67.0
1123,58.0,120,120,3.0,67.0
1124,84.0,0,360,1.0,72.0
1125,72.0,0,360,1.0,72.0
1126,40.0,0,78,5.0,74.0
1127,55.0,0,120,3.0,68.0
1128,70.0,120,120,1.0,74.0
1129,82.0,0,120,1.0,74.0
1130,48.0,0,120,3.0,68.0
1131,53.0,120,120,3.0,69.0
1132,69.0,0,360,1.0,74.0
1133,81.0,0,360,1.0,74.0
1134,57.0,120,120,3.0,69.0
1135,41.0,120,360,5.0,74.0
1136,53.0,120,120,3.0,70.0
1137,52.0,0,120,3.0,70.0
1138,37.0,120,234,5.0,76.0
1139,55.0,120,120,3.0,71.0
1140,57.0,120,120,3.0,71.0
1141,69.0,0,360,1.0,76.0
1142,81.0,0,360,1.0,76.0
1143,37.0,120,78,5.0,78.0
1144,67.0,0,120,1.0,78.0
1145,52.0,0,120,3.0,72.0
1146,79.0,0,120,1.0,78.0
1147,65.0,0,120,1.0,79.0
1148,77.0,0,120,1.0,79.0
1149,38.0,120,120,5.0,79.0
1150,50.0,0,120,3.0,72.0
1151,57.0,120,120,3.0,73.0
1152,40.0,0,120,5.0,80.0
1153,64.0,120,120,1.0,80.0
1154,76.0,0,120,1.0,80.0
1155,55.0,0,120,3.0,73.0
1156,49.0,0,120,3.0,73.0
1157,57.0,120,120,3.0,74.0
1158,53.0,120,120,3.0,74.0
1159,62.0,0,120,1.0,81.0
1160,41.0,0,120,5.0,81.0
1161,50.0,0,120,3.0,74.0
1162,74.0,0,120,1.0,81.0
1163,57.0,120,120,3.0,75.0
1164,42.0,0,120,5.0,82.0
1165,50.0,120,120,3.0,75.0
1166,60.0,0,120,1.0,82.0
1167,72.0,0,120,1.0,82.0
1168,57.0,120,120,3.0,76.0
1169,50.0,0,120,3.0,76.0
1170,43.0,0,120,5.0,83.0
1171,59.0,0,120,1.0,83.0
1172,71.0,120,120,1.0,83.0
1173,55.0,120,120,3.0,77.0
1174,71.0,120,120,1.0,84.0
1175,41.0,0,120,5.0,84.0
1176,83.0,0,120,1.0,84.0
1177,43.0,0,120,3.0,78.0
1178,55.0,120,120,3.0,78.0
1179,43.0,0,120,3.0,79.0
1180,40.0,0,120,5.0,85.0
1181,84.0,0,120,1.0,85.0
1182,72.0,120,120,1.0,85.0
1183,55.0,120,120,3.0,79.0
1184,86.0,0,120,1.0,86.0
1185,45.0,0,120,3.0,80.0
1186,41.0,0,120,5.0,86.0
1187,74.0,120,120,1.0,86.0
1188,72.0,0,120,2.0,86.0
1189,69.0,0,120,2.0,86.0
1190,57.0,120,120,3.0,80.0
1191,43.0,120,120,3.0,81.0
1192,84.0,0,180,2.0,89.0
1193,72.0,0,180,2.0,89.0
1194,76.0,0,180,1.0,89.0
1195,88.0,0,180,1.0,89.0
1196,31.0,0,180,5.0,89.0
1197,67.0,0,180,2.0,89.0
1198,48.0,120,120,3.0,81.0
1199,52.0,120,120,3.0,79.0
1200,55.0,120,120,3.0,78.0
1201,43.0,120,120,3.0,77.0
1202,86.0,0,180,1.0,84.0
1203,71.0,0,180,2.0,84.0
1204,74.0,0,180,1.0,84.0
1205,83.0,0,180,2.0,84.0
1206,31.0,0,180,5.0,84.0
1207,65.0,0,180,2.0,84.0
1208,67.0,0,180,2.0,84.0
1209,47.0,120,120,3.0,75.0
1210,50.0,120,120,3.0,74.0
1211,55.0,120,120,3.0,73.0
1212,67.0,0,360,2.0,80.0
1213,72.0,0,360,1.0,80.0
1214,84.0,0,360,1.0,80.0
1215,48.0,120,360,5.0,80.0
1216,36.0,0,360,5.0,80.0
1217,64.0,0,360,2.0,80.0
1218,55.0,0,234,4.0,57.0
1219,48.0,480,234,5.0,57.0
1220,60.0,0,234,4.0,57.0
1221,64.0,0,234,4.0,57.0
1222,60.0,0,78,4.0,55.0
1223,55.0,360,78,4.0,55.0
1224,64.0,0,78,4.0,55.0
1225,48.0,0,78,5.0,55.0
1226,67.0,0,120,1.0,54.0
1227,79.0,0,120,1.0,54.0
1228,81.0,0,120,1.0,53.0
1229,69.0,120,120,1.0,53.0
1230,62.0,0,360,4.0,54.0
1231,55.0,0,360,4.0,54.0
1232,36.0,120,360,5.0,54.0
1233,71.0,120,120,1.0,52.0
1234,83.0,0,120,1.0,52.0
1235,65.0,0,360,4.0,54.0
1236,84.0,0,120,1.0,52.0
1237,72.0,120,120,1.0,52.0
1238,74.0,120,120,1.0,51.0
1239,86.0,0,120,1.0,51.0
1240,65.0,0,234,4.0,51.0
1241,48.0,0,234,5.0,51.0
1242,55.0,0,234,4.0,51.0
1243,62.0,0,234,4.0,51.0
1244,88.0,0,120,1.0,50.0
1245,76.0,120,120,1.0,50.0
1246,89.0,120,120,1.0,50.0
1247,77.0,0,120,1.0,50.0
1248,55.0,0,78,4.0,49.0
1249,65.0,0,78,4.0,49.0
1250,62.0,0,78,4.0,49.0
1251,48.0,120,78,5.0,49.0
1252,74.0,0,120,1.0,49.0
1253,86.0,0,120,1.0,49.0
1254,76.0,0,360,1.0,48.0
1255,88.0,0,360,1.0,48.0
1256,36.0,120,360,5.0,48.0
1257,60.0,0,360,4.0,48.0
1258,55.0,0,360,4.0,48.0
1259,64.0,0,360,4.0,48.0
1260,55.0,0,234,4.0,44.0
1261,64.0,480,234,4.0,44.0
1262,48.0,0,234,5.0,44.0
1263,60.0,0,234,4.0,44.0
1264,60.0,0,78,4.0,42.0
1265,48.0,0,78,5.0,42.0
1266,64.0,0,78,4.0,42.0
1267,55.0,360,78,4.0,42.0
1268,79.0,0,120,1.0,42.0
1269,67.0,0,120,1.0,42.0
1270,78.0,120,120,1.0,41.0
1271,66.0,0,120,1.0,41.0
1272,36.0,0,360,5.0,42.0
1273,67.0,0,120,1.0,41.0
1274,62.0,0,360,4.0,42.0
1275,55.0,0,360,4.0,42.0
1276,59.0,120,360,4.0,42.0
1277,53.0,0,360,4.0,42.0
1278,79.0,120,120,1.0,41.0
1279,69.0,120,120,1.0,40.0
1280,81.0,0,120,1.0,40.0
1281,83.0,120,120,1.0,40.0
1282,71.0,0,120,1.0,40.0
1283,55.0,0,234,4.0,40.0
1284,48.0,0,234,5.0,40.0
1285,59.0,0,234,4.0,40.0
1286,62.0,0,234,4.0,40.0
1287,53.0,0,234,4.0,40.0
1288,84.0,120,120,1.0,39.0
1289,72.0,0,120,1.0,39.0
1290,74.0,120,120,1.0,38.0
1291,86.0,0,120,1.0,38.0
1292,59.0,0,78,4.0,38.0
1293,53.0,120,78,4.0,38.0
1294,48.0,0,78,5.0,38.0
1295,62.0,0,78,4.0,38.0
1296,55.0,0,78,4.0,38.0
1297,71.0,0,120,1.0,38.0
1298,83.0,0,120,1.0,38.0
1299,72.0,120,360,1.0,37.0
1300,84.0,0,360,1.0,37.0
1301,36.0,0,360,5.0,37.0
1302,60.0,0,360,4.0,37.0
1303,55.0,0,360,4.0,37.0
1304,52.0,0,360,4.0,37.0
1305,48.0,480,234,5.0,35.0
1306,64.0,0,234,4.0,35.0
1307,60.0,0,234,4.0,35.0
1308,55.0,0,234,4.0,35.0
1309,55.0,0,78,4.0,43.0
1310,64.0,0,78,4.0,43.0
1311,60.0,0,78,4.0,43.0
1312,48.0,360,78,5.0,43.0
1313,79.0,0,120,1.0,46.0
1314,67.0,0,120,1.0,46.0
1315,81.0,120,120,1.0,48.0
1316,69.0,0,120,1.0,48.0
1317,36.0,0,360,5.0,46.0
1318,83.0,0,120,1.0,51.0
1319,71.0,120,120,1.0,51.0
1320,55.0,120,360,4.0,46.0
1321,62.0,0,360,4.0,46.0
1322,65.0,0,360,4.0,46.0
1323,72.0,0,120,1.0,54.0
1324,84.0,120,120,1.0,54.0
1325,86.0,120,120,1.0,57.0
1326,74.0,0,120,1.0,57.0
1327,55.0,0,234,4.0,57.0
1328,65.0,0,234,4.0,57.0
1329,48.0,0,234,5.0,57.0
1330,62.0,0,234,4.0,57.0
1331,76.0,120,120,1.0,59.0
1332,88.0,0,120,1.0,59.0
1333,77.0,120,120,1.0,62.0
1334,89.0,0,120,1.0,62.0
1335,62.0,0,78,4.0,65.0
1336,55.0,0,78,4.0,65.0
1337,48.0,120,78,5.0,65.0
1338,74.0,0,120,1.0,65.0
1339,86.0,0,120,1.0,65.0
1340,65.0,0,120,4.0,65.0
1341,48.0,0,120,5.0,68.0
1342,72.0,0,120,1.0,68.0
1343,84.0,0,120,1.0,68.0
1344,71.0,0,120,1.0,71.0
1345,47.0,120,120,5.0,71.0
1346,83.0,0,120,1.0,71.0
1347,45.0,120,120,5.0,73.0
1348,81.0,0,120,1.0,73.0
1349,69.0,0,120,1.0,73.0
1350,60.0,0,360,4.0,68.0
1351,55.0,120,360,4.0,68.0
1352,64.0,0,360,4.0,68.0
1353,43.0,120,120,5.0,76.0
1354,67.0,0,120,1.0,76.0
1355,79.0,0,120,1.0,76.0
1356,41.0,0,120,5.0,79.0
1357,77.0,0,120,1.0,79.0
1358,65.0,120,120,1.0,79.0
1359,40.0,120,120,5.0,82.0
1360,64.0,0,120,1.0,82.0
1361,76.0,0,120,1.0,82.0
1362,74.0,0,120,1.0,84.0
1363,62.0,120,120,1.0,84.0
1364,38.0,0,120,5.0,84.0
1365,36.0,0,120,5.0,87.0
1366,60.0,0,120,1.0,87.0
1367,72.0,120,120,1.0,87.0
1368,55.0,120,120,5.0,90.0
1369,57.0,120,120,5.0,92.0
1370,79.0,0,360,1.0,90.0
1371,43.0,0,360,5.0,90.0
1372,59.0,120,120,5.0,93.0
1373,67.0,0,360,1.0,90.0
1374,60.0,120,120,5.0,93.0
1375,83.0,120,80,1.0,94.0
1376,71.0,0,80,1.0,94.0
1377,62.0,0,120,5.0,94.0
1378,84.0,80,80,1.0,94.0
1379,72.0,0,80,1.0,94.0
1380,31.0,0,234,5.0,94.0
1381,71.0,40,80,1.0,95.0
1382,83.0,0,80,1.0,95.0
1383,64.0,40,120,5.0,94.0
1384,65.0,0,120,5.0,95.0
1385,69.0,80,120,1.0,95.0
1386,81.0,0,120,1.0,95.0
1387,31.0,0,78,5.0,96.0
1388,71.0,0,120,1.0,96.0
1389,83.0,0,120,1.0,96.0
1390,62.0,120,120,5.0,96.0
1391,60.0,0,360,5.0,96.0
1392,36.0,0,360,5.0,96.0
1393,84.0,0,360,1.0,96.0
1394,72.0,120,360,1.0,96.0
1395,36.0,0,120,5.0,96.0
1396,48.0,0,120,5.0,96.0
1397,31.0,0,120,5.0,94.0
1398,43.0,120,120,5.0,94.0
1399,60.0,0,360,2.0,96.0
1400,72.0,0,360,2.0,96.0
1401,64.0,0,360,2.0,96.0
1402,67.0,480,360,2.0,96.0
1403,88.0,0,360,1.0,96.0
1404,76.0,0,360,1.0,96.0
1405,84.0,0,360,2.0,96.0
1406,48.0,120,120,5.0,92.0
1407,36.0,0,120,5.0,92.0
1408,79.0,0,360,2.0,96.0
1409,43.0,0,120,5.0,91.0
1410,31.0,120,120,5.0,91.0
1411,48.0,0,360,5.0,89.0
1412,36.0,0,360,5.0,89.0
1413,79.0,0,360,2.0,89.0
1414,76.0,120,360,2.0,89.0
1415,84.0,0,360,1.0,89.0
1416,60.0,0,360,2.0,89.0
1417,67.0,0,360,2.0,89.0
1418,64.0,0,360,2.0,89.0
1419,72.0,0,360,1.0,89.0
1420,67.0,480,240,1.0,44.0
1421,69.0,240,120,1.0,45.0
1422,71.0,120,120,1.0,46.0
1423,52.0,0,160,3.0,41.0
1424,55.0,160,160,3.0,42.0
1425,60.0,160,160,3.0,44.0
1426,52.0,160,160,3.0,45.0
1427,55.0,160,160,3.0,46.0
1428,60.0,160,160,3.0,47.0
1429,48.0,0,960,5.0,49.0
1430,72.0,120,960,1.0,46.0
1431,55.0,160,160,3.0,48.0
1432,59.0,160,160,3.0,49.0
1433,43.0,0,480,5.0,55.0
1434,62.0,160,160,3.0,50.0
1435,74.0,0,480,1.0,50.0
1436,55.0,0,160,3.0,51.0
1437,61.0,160,160,3.0,52.0
1438,40.0,160,480,5.0,57.0
1439,64.0,160,160,3.0,53.0
1440,76.0,0,480,1.0,52.0
1441,57.0,0,160,3.0,53.0
1442,62.0,160,160,3.0,53.0
1443,65.0,160,160,3.0,53.0
1444,53.0,160,160,3.0,52.0
1445,57.0,160,160,3.0,52.0
1446,62.0,160,160,3.0,51.0
1447,38.0,0,960,5.0,61.0
1448,77.0,160,960,1.0,60.0
1449,50.0,0,160,3.0,51.0
1450,57.0,160,160,3.0,51.0
1451,62.0,160,160,3.0,50.0
1452,41.0,160,480,5.0,58.0
1453,50.0,160,160,3.0,50.0
1454,74.0,0,720,1.0,54.0
1455,57.0,160,160,3.0,50.0
1456,60.0,80,160,3.0,49.0
1457,72.0,80,240,1.0,52.0
1458,42.0,0,480,5.0,56.0
1459,71.0,0,80,1.0,51.0
1460,72.0,80,80,1.0,51.0
1461,50.0,160,160,3.0,49.0
1462,71.0,80,80,1.0,51.0
1463,55.0,0,160,3.0,48.0
1464,69.0,80,120,1.0,51.0
1465,59.0,80,160,3.0,48.0
1466,71.0,40,120,1.0,50.0
1467,47.0,120,160,3.0,48.0
1468,74.0,0,240,1.0,50.0
1469,50.0,160,160,3.0,47.0
1470,55.0,80,160,3.0,47.0
1471,43.0,0,960,5.0,54.0
1472,71.0,80,240,1.0,49.0
1473,47.0,160,160,3.0,47.0
1474,50.0,160,160,3.0,46.0
1475,67.0,0,360,1.0,49.0
1476,55.0,160,160,3.0,46.0
1477,47.0,160,160,3.0,45.0
1478,50.0,160,160,3.0,45.0
1479,79.0,0,360,1.0,47.0
1480,77.0,40,75,1.0,46.0
1481,55.0,160,160,3.0,45.0
1482,31.0,0,960,5.0,51.0
1483,77.0,80,65,1.0,46.0
1484,48.0,0,160,3.0,44.0
1485,52.0,160,160,3.0,44.0
1486,76.0,0,360,1.0,46.0
1487,55.0,160,160,3.0,44.0
1488,74.0,40,120,1.0,45.0
1489,48.0,120,160,3.0,43.0
1490,52.0,160,160,3.0,43.0
1491,76.0,0,360,1.0,44.0
1492,36.0,40,960,5.0,47.0
1493,55.0,160,160,3.0,42.0
1494,77.0,40,120,1.0,43.0
1495,48.0,0,160,3.0,42.0
1496,52.0,160,160,3.0,42.0
1497,79.0,0,360,1.0,43.0
1498,55.0,160,160,3.0,41.0
1499,40.0,120,480,5.0,48.0
1500,50.0,0,160,3.0,41.0
1501,79.0,160,240,1.0,42.0
1502,67.0,0,240,2.0,42.0
1503,53.0,160,160,3.0,41.0
1504,69.0,0,120,2.0,43.0
1505,81.0,80,120,1.0,43.0
1506,71.0,0,120,2.0,43.0
1507,43.0,0,480,5.0,49.0
1508,83.0,40,120,1.0,43.0
1509,55.0,80,160,3.0,40.0
1510,52.0,0,160,3.0,40.0
1511,55.0,160,160,3.0,39.0
1512,48.0,0,480,5.0,51.0
1513,52.0,160,160,3.0,40.0
1514,48.0,160,160,3.0,40.0
1515,52.0,160,160,3.0,41.0
1516,55.0,160,160,3.0,42.0
1517,72.0,120,960,2.0,44.0
1518,36.0,0,480,5.0,53.0
1519,84.0,0,960,1.0,44.0
1520,47.0,0,160,3.0,43.0
1521,50.0,160,160,3.0,44.0
1522,55.0,160,160,3.0,45.0
1523,74.0,0,480,2.0,47.0
1524,43.0,0,480,5.0,55.0
1525,86.0,160,480,1.0,47.0
1526,49.0,160,160,3.0,45.0
1527,55.0,160,160,3.0,46.0
1528,76.0,0,480,2.0,49.0
1529,40.0,0,480,5.0,57.0
1530,57.0,160,160,3.0,47.0
1531,88.0,0,480,1.0,49.0
1532,50.0,0,160,3.0,47.0
1533,53.0,160,160,3.0,47.0
1534,57.0,160,160,3.0,47.0
1535,50.0,160,160,3.0,46.0
1536,53.0,160,160,3.0,46.0
1537,38.0,0,960,5.0,61.0
1538,77.0,0,960,2.0,53.0
1539,57.0,160,160,3.0,46.0
1540,89.0,160,960,1.0,53.0
1541,50.0,0,160,3.0,45.0
1542,57.0,160,160,3.0,45.0
1543,62.0,160,160,3.0,44.0
1544,41.0,0,480,5.0,58.0
1545,50.0,160,160,3.0,44.0
1546,86.0,0,720,1.0,50.0
1547,74.0,160,720,2.0,50.0
1548,57.0,160,160,3.0,44.0
1549,42.0,0,480,5.0,57.0
1550,84.0,0,240,1.0,48.0
1551,60.0,80,160,3.0,43.0
1552,72.0,80,240,2.0,48.0
1553,71.0,0,80,2.0,47.0
1554,83.0,0,80,1.0,47.0
1555,72.0,0,80,2.0,47.0
1556,50.0,0,160,3.0,43.0
1557,84.0,80,80,1.0,47.0
1558,83.0,80,80,1.0,47.0
1559,71.0,0,80,2.0,47.0
1560,55.0,0,160,3.0,43.0
1561,69.0,0,120,2.0,46.0
1562,81.0,80,120,1.0,46.0
1563,71.0,40,120,2.0,46.0
1564,83.0,0,120,1.0,46.0
1565,59.0,80,160,3.0,42.0
1566,50.0,120,160,3.0,42.0
1567,72.0,0,240,2.0,46.0
1568,84.0,0,240,1.0,46.0
1569,55.0,160,160,3.0,42.0
1570,74.0,0,240,2.0,45.0
1571,43.0,160,960,5.0,55.0
1572,86.0,80,240,1.0,45.0
1573,59.0,80,160,3.0,41.0
1574,67.0,0,80,2.0,44.0
1575,79.0,0,80,1.0,44.0
1576,81.0,80,80,1.0,44.0
1577,69.0,0,80,2.0,44.0
1578,50.0,160,160,3.0,41.0
1579,79.0,0,80,1.0,44.0
1580,67.0,0,80,2.0,44.0
1581,53.0,80,160,3.0,40.0
1582,78.0,80,120,1.0,43.0
1583,66.0,0,120,2.0,43.0
1584,67.0,0,120,2.0,43.0
1585,79.0,40,120,1.0,43.0
1586,55.0,80,160,3.0,40.0
1587,50.0,0,160,3.0,40.0
1588,69.0,120,240,2.0,43.0
1589,81.0,0,240,1.0,43.0
1590,53.0,160,160,3.0,39.0
1591,71.0,80,240,2.0,42.0
1592,55.0,80,160,3.0,39.0
1593,83.0,0,240,1.0,42.0
1594,31.0,0,960,5.0,54.0
1595,47.0,0,160,3.0,39.0
1596,53.0,160,160,3.0,38.0
1597,36.0,0,480,5.0,51.0
1598,55.0,160,160,3.0,38.0
1599,47.0,0,160,3.0,38.0
1600,53.0,160,160,3.0,37.0
1601,55.0,0,0,3.0,37.0
1602,74.0,0,960,2.0,41.0
1603,86.0,160,960,1.0,41.0
1604,31.0,160,480,5.0,50.0
1605,84.0,0,360,1.0,38.0
1606,36.0,0,360,5.0,49.0
1607,52.0,0,360,3.0,37.0
1608,48.0,160,360,3.0,37.0
1609,72.0,0,360,2.0,38.0
1610,67.0,480,240,1.0,44.0
1611,69.0,240,120,1.0,45.0
1612,71.0,120,120,1.0,46.0
1613,52.0,0,160,3.0,41.0
1614,55.0,160,160,3.0,42.0
1615,60.0,160,160,3.0,44.0
1616,52.0,160,160,3.0,45.0
1617,55.0,160,160,3.0,46.0
1618,60.0,160,160,3.0,47.0
1619,48.0,120,960,5.0,49.0
1620,72.0,0,960,1.0,46.0
1621,55.0,0,160,3.0,48.0
1622,59.0,160,160,3.0,49.0
1623,62.0,160,160,3.0,50.0
1624,74.0,160,480,1.0,50.0
1625,43.0,0,480,5.0,55.0
1626,55.0,160,160,3.0,51.0
1627,61.0,160,160,3.0,52.0
1628,64.0,160,160,3.0,53.0
1629,76.0,0,480,1.0,52.0
1630,40.0,0,480,5.0,57.0
1631,57.0,0,160,3.0,53.0
1632,62.0,160,160,3.0,53.0
1633,65.0,160,160,3.0,53.0
1634,53.0,160,160,3.0,52.0
1635,57.0,160,160,3.0,52.0
1636,77.0,160,960,1.0,60.0
1637,62.0,160,160,3.0,51.0
1638,38.0,0,960,5.0,61.0
1639,50.0,0,160,3.0,51.0
1640,57.0,160,160,3.0,51.0
1641,62.0,160,160,3.0,50.0
1642,41.0,0,480,5.0,58.0
1643,50.0,0,160,3.0,50.0
1644,74.0,160,720,1.0,54.0
1645,57.0,160,160,3.0,50.0
1646,60.0,80,160,3.0,49.0
1647,72.0,80,240,1.0,52.0
1648,42.0,160,480,5.0,56.0
1649,71.0,0,80,1.0,51.0
1650,50.0,160,160,3.0,49.0
1651,72.0,80,80,1.0,51.0
1652,71.0,80,80,1.0,51.0
1653,55.0,0,160,3.0,48.0
1654,69.0,80,120,1.0,51.0
1655,59.0,80,160,3.0,48.0
1656,71.0,40,120,1.0,50.0
1657,47.0,120,160,3.0,48.0
1658,74.0,0,240,1.0,50.0
1659,50.0,160,160,3.0,47.0
1660,55.0,80,160,3.0,47.0
1661,71.0,80,240,1.0,49.0
1662,43.0,0,960,5.0,54.0
1663,47.0,160,160,3.0,47.0
1664,50.0,160,160,3.0,46.0
1665,67.0,0,360,1.0,49.0
1666,55.0,160,160,3.0,46.0
1667,47.0,0,160,3.0,45.0
1668,50.0,160,160,3.0,45.0
1669,79.0,160,360,1.0,47.0
1670,77.0,40,75,1.0,46.0
1671,31.0,0,960,5.0,51.0
1672,55.0,160,160,3.0,45.0
1673,77.0,80,65,1.0,46.0
1674,48.0,0,160,3.0,44.0
1675,52.0,160,160,3.0,44.0
1676,76.0,40,360,1.0,46.0
1677,74.0,40,120,1.0,45.0
1678,55.0,160,160,3.0,44.0
1679,48.0,0,160,3.0,43.0
1680,52.0,160,160,3.0,43.0
1681,76.0,120,360,1.0,44.0
1682,77.0,40,120,1.0,43.0
1683,36.0,0,960,5.0,47.0
1684,55.0,160,160,3.0,42.0
1685,48.0,0,160,3.0,42.0
1686,52.0,160,160,3.0,42.0
1687,79.0,0,360,1.0,43.0
1688,55.0,160,160,3.0,41.0
1689,40.0,120,480,5.0,48.0
1690,50.0,0,160,3.0,41.0
1691,67.0,0,240,2.0,42.0
1692,79.0,160,240,1.0,42.0
1693,53.0,160,160,3.0,41.0
1694,69.0,80,120,2.0,43.0
1695,81.0,0,120,1.0,43.0
1696,43.0,0,480,5.0,49.0
1697,83.0,40,120,1.0,43.0
1698,55.0,80,160,3.0,40.0
1699,71.0,0,120,2.0,43.0
1700,52.0,0,160,3.0,40.0
1701,55.0,160,160,3.0,39.0
1702,48.0,0,480,5.0,51.0
1703,52.0,160,160,3.0,40.0
1704,48.0,160,160,3.0,40.0
1705,52.0,160,160,3.0,41.0
1706,84.0,0,960,1.0,44.0
1707,36.0,0,480,5.0,53.0
1708,55.0,160,160,3.0,42.0
1709,72.0,120,960,2.0,44.0
1710,47.0,0,160,3.0,43.0
1711,50.0,160,160,3.0,44.0
1712,86.0,160,480,1.0,47.0
1713,74.0,0,480,2.0,47.0
1714,55.0,160,160,3.0,45.0
1715,43.0,0,480,5.0,55.0
1716,49.0,0,160,3.0,45.0
1717,55.0,160,160,3.0,46.0
1718,40.0,0,480,5.0,57.0
1719,88.0,160,480,1.0,49.0
1720,76.0,0,480,2.0,49.0
1721,57.0,160,160,3.0,47.0
1722,50.0,0,160,3.0,47.0
1723,53.0,160,160,3.0,47.0
1724,57.0,160,160,3.0,47.0
1725,50.0,160,160,3.0,46.0
1726,53.0,160,160,3.0,46.0
1727,77.0,0,960,2.0,53.0
1728,57.0,160,160,3.0,46.0
1729,89.0,0,960,1.0,53.0
1730,38.0,160,960,5.0,61.0
1731,50.0,0,160,3.0,45.0
1732,57.0,160,160,3.0,45.0
1733,62.0,160,160,3.0,44.0
1734,41.0,0,480,5.0,58.0
1735,50.0,0,160,3.0,44.0
1736,74.0,160,720,2.0,50.0
1737,86.0,0,720,1.0,50.0
1738,57.0,160,160,3.0,44.0
1739,42.0,160,480,5.0,57.0
1740,72.0,80,240,2.0,48.0
1741,60.0,80,160,3.0,43.0
1742,84.0,0,240,1.0,48.0
1743,71.0,0,80,2.0,47.0
1744,83.0,0,80,1.0,47.0
1745,50.0,0,160,3.0,43.0
1746,84.0,0,80,1.0,47.0
1747,72.0,80,80,2.0,47.0
1748,71.0,0,80,2.0,47.0
1749,83.0,80,80,1.0,47.0
1750,55.0,0,160,3.0,43.0
1751,81.0,0,120,1.0,46.0
1752,69.0,80,120,2.0,46.0
1753,71.0,0,120,2.0,46.0
1754,83.0,40,120,1.0,46.0
1755,59.0,80,160,3.0,42.0
1756,50.0,0,160,3.0,42.0
1757,84.0,0,240,1.0,46.0
1758,72.0,120,240,2.0,46.0
1759,55.0,160,160,3.0,42.0
1760,74.0,80,240,2.0,45.0
1761,86.0,0,240,1.0,45.0
1762,59.0,80,160,3.0,41.0
1763,43.0,160,960,5.0,55.0
1764,79.0,0,80,1.0,44.0
1765,67.0,0,80,2.0,44.0
1766,69.0,0,80,2.0,44.0
1767,81.0,80,80,1.0,44.0
1768,50.0,160,160,3.0,41.0
1769,79.0,0,80,1.0,44.0
1770,67.0,80,80,2.0,44.0
1771,53.0,0,160,3.0,40.0
1772,78.0,80,120,1.0,43.0
1773,66.0,0,120,2.0,43.0
1774,79.0,40,120,1.0,43.0
1775,55.0,80,160,3.0,40.0
1776,67.0,0,120,2.0,43.0
1777,50.0,0,160,3.0,40.0
1778,69.0,120,240,2.0,43.0
1779,81.0,0,240,1.0,43.0
1780,53.0,160,160,3.0,39.0
1781,55.0,80,160,3.0,39.0
1782,71.0,80,240,2.0,42.0
1783,31.0,0,960,5.0,54.0
1784,83.0,0,240,1.0,42.0
1785,47.0,0,160,3.0,39.0
1786,53.0,160,160,3.0,38.0
1787,55.0,160,160,3.0,38.0
1788,36.0,0,480,5.0,51.0
1789,47.0,0,160,3.0,38.0
1790,53.0,160,160,3.0,37.0
1791,55.0,160,160,3.0,37.0
1792,86.0,0,960,1.0,41.0
1793,74.0,160,960,2.0,41.0
1794,31.0,160,480,5.0,50.0
1795,84.0,0,360,1.0,38.0
1796,55.0,0,360,3.0,37.0
1797,48.0,160,360,3.0,37.0
1798,52.0,0,360,3.0,37.0
1799,36.0,0,360,5.0,49.0
1800,72.0,0,360,2.0,38.0
1801,55.0,0,160,3.0,38.0
1802,67.0,0,160,3.0,38.0
1803,36.0,480,240,5.0,49.0
1804,58.0,0,160,3.0,38.0
1805,70.0,160,160,3.0,38.0
1806,38.0,80,120,5.0,50.0
1807,40.0,40,120,5.0,50.0
1808,72.0,80,160,3.0,38.0
1809,60.0,0,160,3.0,38.0
1810,65.0,0,160,3.0,39.0
1811,53.0,0,160,3.0,39.0
1812,69.0,0,160,3.0,39.0
1813,57.0,160,160,3.0,39.0
1814,60.0,160,160,3.0,39.0
1815,72.0,0,160,3.0,39.0
1816,53.0,160,160,3.0,39.0
1817,65.0,0,160,3.0,39.0
1818,69.0,0,160,3.0,39.0
1819,57.0,160,160,3.0,39.0
1820,72.0,0,160,3.0,40.0
1821,41.0,120,960,5.0,50.0
1822,60.0,160,160,3.0,40.0
1823,53.0,0,160,3.0,40.0
1824,65.0,0,160,3.0,40.0
1825,57.0,160,160,3.0,40.0
1826,69.0,0,160,3.0,40.0
1827,60.0,0,160,3.0,40.0
1828,72.0,160,160,3.0,40.0
1829,43.0,160,480,5.0,54.0
1830,53.0,160,160,3.0,40.0
1831,65.0,0,160,3.0,40.0
1832,69.0,0,160,3.0,41.0
1833,57.0,160,160,3.0,41.0
1834,45.0,0,480,5.0,56.0
1835,60.0,0,160,3.0,41.0
1836,72.0,160,160,3.0,41.0
1837,64.0,0,160,3.0,41.0
1838,52.0,160,160,3.0,41.0
1839,67.0,0,160,3.0,41.0
1840,55.0,160,160,3.0,41.0
1841,72.0,0,160,3.0,41.0
1842,60.0,160,160,3.0,41.0
1843,64.0,160,160,3.0,42.0
1844,52.0,0,160,3.0,42.0
1845,67.0,160,160,3.0,42.0
1846,55.0,0,160,3.0,42.0
1847,46.0,0,960,5.0,63.0
1848,60.0,0,160,3.0,42.0
1849,72.0,160,160,3.0,42.0
1850,52.0,0,160,3.0,42.0
1851,64.0,160,160,3.0,42.0
1852,55.0,0,160,3.0,42.0
1853,67.0,160,160,3.0,42.0
1854,60.0,0,160,3.0,43.0
1855,72.0,160,160,3.0,43.0
1856,53.0,0,160,3.0,43.0
1857,65.0,160,160,3.0,43.0
1858,43.0,0,720,5.0,56.0
1859,57.0,160,160,3.0,43.0
1860,69.0,0,160,3.0,43.0
1861,41.0,80,240,5.0,54.0
1862,72.0,80,160,3.0,43.0
1863,60.0,0,160,3.0,43.0
1864,40.0,160,80,5.0,49.0
1865,41.0,80,80,5.0,50.0
1866,55.0,0,160,3.0,43.0
1867,67.0,0,160,3.0,43.0
1868,40.0,80,80,5.0,51.0
1869,70.0,0,160,3.0,43.0
1870,58.0,0,160,3.0,43.0
1871,38.0,80,120,5.0,53.0
1872,72.0,0,160,3.0,44.0
1873,40.0,40,120,5.0,55.0
1874,60.0,80,160,3.0,44.0
1875,55.0,0,160,3.0,44.0
1876,67.0,120,160,3.0,44.0
1877,43.0,0,240,5.0,57.0
1878,58.0,160,160,3.0,44.0
1879,70.0,0,160,3.0,44.0
1880,84.0,0,960,1.0,46.0
1881,72.0,0,160,3.0,44.0
1882,40.0,80,240,5.0,57.0
1883,60.0,80,160,3.0,44.0
1884,64.0,160,160,3.0,44.0
1885,52.0,0,160,3.0,44.0
1886,67.0,0,160,3.0,45.0
1887,55.0,160,160,3.0,45.0
1888,36.0,0,360,5.0,58.0
1889,86.0,0,480,1.0,48.0
1890,60.0,160,160,3.0,45.0
1891,64.0,0,160,3.0,45.0
1892,52.0,0,160,3.0,45.0
1893,67.0,0,160,3.0,45.0
1894,55.0,160,160,3.0,45.0
1895,48.0,0,360,5.0,59.0
1896,46.0,40,80,5.0,59.0
1897,88.0,160,480,1.0,49.0
1898,60.0,0,160,3.0,45.0
1899,72.0,160,160,3.0,45.0
1900,46.0,80,75,5.0,60.0
1901,53.0,0,160,3.0,46.0
1902,65.0,0,160,3.0,46.0
1903,57.0,160,160,3.0,46.0
1904,69.0,0,160,3.0,46.0
1905,45.0,40,360,5.0,60.0
1906,43.0,40,120,5.0,60.0
1907,60.0,0,160,3.0,46.0
1908,72.0,160,160,3.0,46.0
1909,65.0,0,160,3.0,46.0
1910,53.0,0,160,3.0,46.0
1911,89.0,0,720,1.0,50.0
1912,69.0,160,160,3.0,46.0
1913,57.0,0,160,3.0,46.0
1914,45.0,120,360,5.0,61.0
1915,88.0,80,120,1.0,51.0
1916,46.0,0,120,5.0,61.0
1917,86.0,40,120,1.0,51.0
1918,60.0,0,160,3.0,47.0
1919,72.0,80,160,3.0,47.0
1920,84.0,0,120,1.0,51.0
1921,64.0,0,160,3.0,47.0
1922,52.0,0,160,3.0,47.0
1923,55.0,160,160,3.0,47.0
1924,67.0,0,160,3.0,47.0
1925,84.0,80,120,1.0,52.0
1926,48.0,120,360,5.0,60.0
1927,60.0,0,160,3.0,47.0
1928,72.0,80,160,3.0,47.0
1929,84.0,0,120,1.0,52.0
1930,67.0,0,160,3.0,47.0
1931,55.0,0,160,3.0,47.0
1932,36.0,160,240,5.0,62.0
1933,70.0,160,160,3.0,48.0
1934,58.0,0,160,3.0,48.0
1935,84.0,80,120,1.0,53.0
1936,38.0,0,120,5.0,63.0
1937,72.0,0,160,3.0,48.0
1938,60.0,80,160,3.0,48.0
1939,40.0,40,120,5.0,63.0
1940,53.0,0,160,3.0,48.0
1941,65.0,120,160,3.0,48.0
1942,57.0,0,160,3.0,48.0
1943,69.0,160,160,3.0,48.0
1944,84.0,0,480,1.0,53.0
1945,72.0,160,160,3.0,48.0
1946,60.0,0,160,3.0,48.0
1947,65.0,0,160,3.0,49.0
1948,53.0,0,160,3.0,49.0
1949,57.0,160,160,3.0,49.0
1950,69.0,0,160,3.0,49.0
1951,81.0,160,360,1.0,54.0
1952,72.0,160,160,3.0,49.0
1953,41.0,0,960,5.0,63.0
1954,60.0,0,160,3.0,49.0
1955,65.0,0,160,3.0,49.0
1956,53.0,160,160,3.0,49.0
1957,69.0,0,160,3.0,49.0
1958,57.0,160,160,3.0,49.0
1959,81.0,80,156,1.0,55.0
1960,72.0,80,160,3.0,50.0
1961,43.0,0,480,5.0,65.0
1962,60.0,0,160,3.0,50.0
1963,65.0,0,160,3.0,50.0
1964,53.0,160,160,3.0,50.0
1965,81.0,0,234,1.0,56.0
1966,69.0,0,160,3.0,50.0
1967,57.0,160,160,3.0,50.0
1968,79.0,40,78,1.0,56.0
1969,45.0,0,480,5.0,66.0
1970,72.0,160,160,3.0,50.0
1971,60.0,0,160,3.0,50.0
1972,53.0,0,160,3.0,50.0
1973,65.0,0,160,3.0,50.0
1974,57.0,0,160,3.0,51.0
1975,69.0,160,160,3.0,51.0
1976,74.0,160,160,3.0,51.0
1977,62.0,0,160,3.0,51.0
1978,53.0,160,160,3.0,51.0
1979,65.0,0,160,3.0,51.0
1980,69.0,0,160,3.0,51.0
1981,57.0,160,160,3.0,51.0
1982,62.0,0,160,3.0,51.0
1983,38.0,120,960,5.0,68.0
1984,74.0,160,160,3.0,51.0
1985,77.0,0,960,1.0,57.0
1986,67.0,160,160,3.0,52.0
1987,55.0,0,160,3.0,52.0
1988,57.0,160,160,3.0,52.0
1989,69.0,0,160,3.0,52.0
1990,40.0,0,480,5.0,68.0
1991,79.0,0,480,1.0,58.0
1992,61.0,0,160,3.0,52.0
1993,73.0,160,160,3.0,52.0
1994,65.0,160,160,3.0,52.0
1995,53.0,0,160,3.0,52.0
1996,57.0,0,160,3.0,52.0
1997,69.0,160,160,3.0,52.0
1998,81.0,0,480,1.0,59.0
1999,41.0,0,480,5.0,69.0
2000,62.0,160,160,3.0,53.0
2001,74.0,0,160,3.0,53.0
2002,65.0,0,160,3.0,53.0
2003,53.0,0,160,3.0,53.0
2004,55.0,160,160,3.0,53.0
2005,67.0,0,160,3.0,53.0
2006,74.0,160,360,1.0,60.0
2007,43.0,0,360,5.0,70.0
2008,53.0,0,160,3.0,53.0
2009,71.0,160,160,3.0,53.0
2010,83.0,0,80,1.0,68.0
2011,84.0,80,80,1.0,61.0
2012,65.0,0,160,3.0,53.0
2013,50.0,0,160,3.0,53.0
2014,83.0,80,80,1.0,61.0
2015,67.0,0,160,3.0,53.0
2016,53.0,0,160,3.0,53.0
2017,81.0,80,120,1.0,62.0
2018,55.0,80,160,3.0,54.0
2019,31.0,160,480,5.0,78.0
2020,71.0,0,160,3.0,54.0
2021,83.0,40,120,1.0,62.0
2022,64.0,0,160,3.0,54.0
2023,48.0,0,160,3.0,54.0
2024,52.0,0,160,3.0,54.0
2025,67.0,160,160,3.0,54.0
2026,84.0,0,360,1.0,62.0
2027,36.0,120,360,5.0,72.0
2028,55.0,0,160,3.0,54.0
2029,72.0,160,160,3.0,54.0
2030,48.0,0,160,3.0,54.0
2031,60.0,0,160,3.0,54.0
2032,64.0,0,160,3.0,55.0
2033,52.0,160,160,3.0,55.0
2034,40.0,160,360,5.0,81.0
2035,36.0,40,120,5.0,73.0
2036,72.0,0,480,2.0,71.0
2037,67.0,160,160,3.0,55.0
2038,76.0,0,480,1.0,71.0
2039,55.0,0,160,3.0,55.0
2040,47.0,0,160,3.0,55.0
2041,59.0,0,160,3.0,55.0
2042,50.0,0,160,3.0,55.0
2043,62.0,160,160,3.0,55.0
2044,71.0,0,360,2.0,64.0
2045,43.0,120,360,5.0,74.0
2046,74.0,0,360,1.0,64.0
2047,67.0,0,160,3.0,55.0
2048,55.0,160,160,3.0,55.0
2049,83.0,0,80,1.0,70.0
2050,50.0,160,160,3.0,56.0
2051,84.0,80,80,1.0,65.0
2052,65.0,0,160,3.0,56.0
2053,83.0,0,80,1.0,65.0
2054,67.0,80,160,3.0,56.0
2055,53.0,0,160,3.0,56.0
2056,81.0,80,120,1.0,65.0
2057,71.0,0,160,3.0,56.0
2058,55.0,80,160,3.0,56.0
2059,83.0,40,120,1.0,65.0
2060,31.0,0,480,5.0,80.0
2061,48.0,0,160,3.0,56.0
2062,64.0,120,160,3.0,56.0
2063,67.0,0,160,3.0,56.0
2064,52.0,160,160,3.0,56.0
2065,36.0,0,360,5.0,75.0
2066,84.0,0,360,1.0,65.0
2067,55.0,160,160,3.0,57.0
2068,72.0,0,160,3.0,57.0
2069,60.0,0,160,3.0,57.0
2070,48.0,0,160,3.0,57.0
2071,52.0,0,160,3.0,57.0
2072,64.0,160,160,3.0,57.0
2073,40.0,160,360,5.0,83.0
2074,72.0,0,480,2.0,73.0
2075,36.0,40,120,5.0,80.0
2076,67.0,0,0,3.0,57.0
2077,76.0,0,480,1.0,73.0
2078,55.0,120,0,3.0,57.0
2079,43.0,0,360,5.0,68.0
2080,47.0,0,360,3.0,57.0
2081,71.0,0,360,2.0,68.0
2082,31.0,0,360,5.0,78.0
2083,50.0,0,360,3.0,57.0
2084,62.0,0,360,3.0,57.0
2085,59.0,0,360,3.0,57.0
2086,74.0,0,360,1.0,68.0
2087,86.0,480,360,1.0,75.0
2088,83.0,360,120,1.0,67.0
2089,79.0,120,360,1.0,64.0
2090,62.0,480,360,2.0,54.0
2091,38.0,0,360,5.0,54.0
2092,50.0,0,360,5.0,54.0
2093,74.0,0,360,1.0,54.0
2094,71.0,360,120,1.0,45.0
2095,47.0,0,120,5.0,45.0
2096,35.0,0,120,5.0,45.0
2097,59.0,0,120,2.0,45.0
2098,55.0,0,2887,2.0,43.0
2099,67.0,0,2887,1.0,43.0
2100,67.0,0,234,2.0,47.0
2101,52.0,3360,234,2.0,47.0
2102,60.0,0,234,1.0,47.0
2103,72.0,0,234,1.0,47.0
2104,74.0,0,78,1.0,49.0
2105,71.0,0,78,2.0,49.0
2106,55.0,360,78,2.0,49.0
2107,62.0,0,78,1.0,49.0
2108,43.0,120,3840,5.0,43.0
2109,31.0,0,3840,5.0,43.0
2110,36.0,480,120,5.0,46.0
2111,48.0,0,120,5.0,46.0
2112,43.0,120,120,5.0,45.0
2113,31.0,0,120,5.0,45.0
2114,36.0,0,120,5.0,43.0
2115,48.0,120,120,5.0,43.0
2116,31.0,0,120,5.0,42.0
2117,43.0,120,120,5.0,42.0
2118,36.0,0,360,5.0,40.0
2119,48.0,120,360,5.0,40.0
2120,60.0,120,1440,2.0,50.0
2121,72.0,0,1440,2.0,50.0
2122,64.0,0,1440,1.0,50.0
2123,76.0,0,1440,1.0,50.0
2124,60.0,0,234,1.0,42.0
2125,67.0,0,234,2.0,42.0
2126,52.0,480,234,2.0,42.0
2127,72.0,0,234,1.0,42.0
2128,62.0,0,78,1.0,44.0
2129,71.0,360,78,2.0,44.0
2130,74.0,0,78,1.0,44.0
2131,55.0,0,78,2.0,44.0
2132,36.0,480,120,5.0,43.0
2133,48.0,0,120,5.0,43.0
2134,43.0,120,120,5.0,42.0
2135,31.0,0,120,5.0,42.0
2136,36.0,0,120,5.0,41.0
2137,48.0,120,120,5.0,41.0
2138,31.0,120,120,5.0,40.0
2139,43.0,0,120,5.0,40.0
2140,48.0,0,360,5.0,38.0
2141,36.0,120,360,5.0,38.0
2142,60.0,0,1440,2.0,47.0
2143,64.0,0,1440,1.0,47.0
2144,72.0,0,1440,2.0,47.0
2145,76.0,0,0,1.0,49.0
2146,48.0,0,234,5.0,49.0
2147,64.0,480,234,1.0,49.0
2148,60.0,0,234,4.0,49.0
2149,62.0,360,78,4.0,51.0
2150,77.0,0,78,1.0,51.0
2151,48.0,0,78,5.0,51.0
2152,65.0,0,78,1.0,51.0
2153,67.0,0,480,1.0,52.0
2154,79.0,120,480,1.0,52.0
2155,48.0,0,0,5.0,55.0
2156,64.0,480,0,4.0,55.0
2157,81.0,0,234,1.0,55.0
2158,69.0,0,234,1.0,55.0
2159,62.0,0,78,4.0,57.0
2160,83.0,0,78,1.0,57.0
2161,71.0,0,78,1.0,57.0
2162,47.0,360,78,5.0,57.0
2163,84.0,120,480,1.0,58.0
2164,72.0,0,480,1.0,58.0
2165,60.0,0,480,4.0,58.0
2166,45.0,0,480,5.0,58.0
2167,50.0,0,234,5.0,61.0
2168,54.0,0,234,4.0,61.0
2169,60.0,0,234,4.0,61.0
2170,81.0,0,234,1.0,61.0
2171,69.0,480,234,1.0,61.0
2172,78.0,0,78,1.0,63.0
2173,57.0,0,78,4.0,63.0
2174,60.0,360,78,4.0,63.0
2175,50.0,0,78,5.0,63.0
2176,66.0,0,78,1.0,63.0
2177,79.0,0,360,1.0,64.0
2178,67.0,0,360,1.0,64.0
2179,59.0,0,360,4.0,64.0
2180,43.0,120,360,5.0,64.0
2181,55.0,0,360,4.0,64.0
2182,71.0,0,360,2.0,59.0
2183,74.0,0,360,2.0,59.0
2184,59.0,0,360,4.0,59.0
2185,50.0,0,360,4.0,59.0
2186,55.0,0,360,4.0,59.0
2187,62.0,480,360,2.0,59.0
2188,79.0,0,360,1.0,59.0
2189,43.0,0,360,5.0,59.0
2190,67.0,0,360,1.0,59.0
2191,59.0,0,360,4.0,53.0
2192,50.0,0,360,4.0,53.0
2193,62.0,0,360,2.0,53.0
2194,74.0,0,360,2.0,53.0
2195,71.0,0,360,2.0,53.0
2196,55.0,480,360,4.0,53.0
2197,43.0,0,360,5.0,53.0
2198,79.0,0,360,1.0,53.0
2199,67.0,0,360,1.0,53.0
2200,52.0,0,360,4.0,49.0
2201,48.0,0,360,5.0,49.0
2202,36.0,480,360,5.0,49.0
2203,60.0,0,360,4.0,49.0
2204,55.0,0,0,4.0,51.0
2205,62.0,0,120,4.0,51.0
2206,59.0,0,120,4.0,51.0
2207,43.0,0,120,5.0,51.0
2208,31.0,360,120,5.0,51.0
2209,72.0,480,120,2.0,47.0
2210,84.0,0,120,1.0,47.0
2211,79.0,0,120,1.0,46.0
2212,67.0,120,120,2.0,46.0
2213,84.0,120,120,1.0,45.0
2214,72.0,0,120,2.0,45.0
2215,67.0,120,120,2.0,44.0
2216,79.0,0,120,1.0,44.0
2217,84.0,120,360,1.0,43.0
2218,72.0,0,360,2.0,43.0
2219,60.0,0,1440,4.0,53.0
2220,55.0,0,1440,4.0,53.0
2221,36.0,0,1440,5.0,53.0
2222,48.0,0,1440,5.0,53.0
2223,64.0,120,1440,4.0,53.0
2224,48.0,0,360,5.0,44.0
2225,60.0,0,360,4.0,44.0
2226,55.0,0,0,4.0,46.0
2227,52.0,480,360,4.0,44.0
2228,36.0,0,360,5.0,44.0
2229,31.0,0,120,5.0,46.0
2230,43.0,360,120,5.0,46.0
2231,59.0,0,120,4.0,46.0
2232,62.0,0,120,4.0,46.0
2233,72.0,0,120,2.0,46.0
2234,84.0,480,120,1.0,46.0
2235,79.0,0,120,1.0,45.0
2236,67.0,120,120,2.0,45.0
2237,72.0,120,120,2.0,44.0
2238,84.0,0,120,1.0,44.0
2239,67.0,120,120,2.0,43.0
2240,79.0,0,120,1.0,43.0
2241,84.0,0,360,1.0,43.0
2242,72.0,120,360,2.0,43.0
2243,55.0,0,1344,4.0,49.0
2244,64.0,0,1344,4.0,49.0
2245,36.0,0,1344,5.0,49.0
2246,48.0,0,1344,5.0,49.0
2247,60.0,120,1344,4.0,49.0
2248,48.0,0,178,5.0,50.0
2249,64.0,0,178,2.0,50.0
2250,52.0,480,178,4.0,50.0
2251,36.0,0,178,5.0,50.0
2252,48.0,0,78,5.0,52.0
2253,53.0,0,78,4.0,52.0
2254,50.0,360,78,4.0,52.0
2255,65.0,0,78,2.0,52.0
2256,36.0,0,78,5.0,52.0
2257,88.0,240,0,1.0,55.0
2258,36.0,120,480,5.0,53.0
2259,48.0,240,0,5.0,56.0
2260,52.0,0,480,4.0,53.0
2261,67.0,0,480,2.0,53.0
2262,55.0,0,480,4.0,53.0
2263,36.0,0,202,5.0,56.0
2264,57.0,0,202,4.0,56.0
2265,52.0,0,202,4.0,56.0
2266,69.0,0,202,2.0,56.0
2267,88.0,240,0,1.0,58.0
2268,59.0,0,78,4.0,59.0
2269,50.0,0,78,4.0,59.0
2270,35.0,0,78,5.0,59.0
2271,47.0,0,78,5.0,59.0
2272,71.0,120,78,2.0,59.0
2273,86.0,0,120,1.0,59.0
2274,84.0,120,120,1.0,60.0
2275,83.0,120,120,1.0,60.0
2276,81.0,120,120,1.0,61.0
2277,55.0,0,480,4.0,60.0
2278,52.0,0,480,4.0,60.0
2279,60.0,0,480,4.0,60.0
2280,79.0,120,120,1.0,62.0
2281,33.0,0,480,5.0,60.0
2282,45.0,0,480,5.0,60.0
2283,72.0,0,480,2.0,60.0
2284,78.0,0,40,1.0,63.0
2285,79.0,40,40,1.0,63.0
2286,78.0,40,40,1.0,63.0
2287,76.0,40,60,1.0,63.0
2288,69.0,0,234,2.0,63.0
2289,57.0,120,234,4.0,63.0
2290,78.0,60,60,1.0,64.0
2291,81.0,60,120,1.0,64.0
2292,66.0,0,78,2.0,65.0
2293,54.0,0,78,4.0,65.0
2294,38.0,0,480,5.0,63.0
2295,50.0,0,480,5.0,63.0
2296,84.0,120,120,1.0,65.0
2297,83.0,0,120,1.0,61.0
2298,31.0,0,360,5.0,61.0
2299,67.0,0,360,2.0,61.0
2300,55.0,120,360,4.0,61.0
2301,86.0,240,120,1.0,59.0
2302,43.0,0,360,5.0,61.0
2303,83.0,120,120,1.0,58.0
2304,79.0,0,120,1.0,57.0
2305,55.0,0,360,4.0,57.0
2306,59.0,0,360,4.0,57.0
2307,43.0,0,360,5.0,57.0
2308,31.0,0,360,5.0,57.0
2309,86.0,240,120,1.0,54.0
2310,62.0,120,360,4.0,57.0
2311,67.0,0,360,2.0,57.0
2312,83.0,120,120,1.0,53.0
2313,55.0,0,360,4.0,52.0
2314,67.0,0,360,2.0,52.0
2315,43.0,0,360,5.0,52.0
2316,31.0,120,360,5.0,52.0
2317,79.0,0,360,1.0,52.0
2318,59.0,0,360,4.0,52.0
2319,62.0,0,360,4.0,52.0
2320,79.0,480,234,1.0,47.0
2321,67.0,0,234,1.0,47.0
2322,81.0,0,78,1.0,46.0
2323,69.0,360,78,1.0,46.0
2324,50.0,0,120,3.0,47.0
2325,55.0,120,120,3.0,47.0
2326,58.0,120,120,3.0,47.0
2327,55.0,120,120,3.0,47.0
2328,31.0,0,480,5.0,46.0
2329,43.0,0,480,5.0,46.0
2330,70.0,0,480,1.0,46.0
2331,82.0,120,480,1.0,46.0
2332,50.0,120,120,3.0,47.0
2333,55.0,120,120,3.0,48.0
2334,82.0,0,360,1.0,48.0
2335,58.0,120,120,3.0,48.0
2336,70.0,0,360,1.0,48.0
2337,55.0,0,120,3.0,48.0
2338,69.0,0,120,1.0,49.0
2339,81.0,120,120,1.0,49.0
2340,50.0,0,120,3.0,48.0
2341,55.0,120,120,3.0,48.0
2342,79.0,0,360,1.0,49.0
2343,67.0,0,360,1.0,49.0
2344,62.0,120,120,3.0,50.0
2345,55.0,0,120,3.0,49.0
2346,34.0,120,480,5.0,49.0
2347,46.0,0,480,5.0,49.0
2348,65.0,120,120,1.0,50.0
2349,77.0,0,120,1.0,50.0
2350,50.0,120,120,3.0,49.0
2351,56.0,120,120,3.0,49.0
2352,76.0,0,360,1.0,50.0
2353,64.0,0,360,1.0,50.0
2354,62.0,120,120,3.0,51.0
2355,74.0,0,120,1.0,51.0
2356,64.0,0,0,1.0,52.0
2357,56.0,120,120,3.0,50.0
2358,52.0,0,120,3.0,50.0
2359,73.0,0,234,1.0,52.0
2360,57.0,120,120,3.0,50.0
2361,61.0,120,120,3.0,50.0
2362,76.0,0,78,1.0,53.0
2363,45.0,0,480,5.0,52.0
2364,33.0,120,480,5.0,52.0
2365,57.0,120,120,3.0,50.0
2366,52.0,0,120,3.0,51.0
2367,57.0,120,120,3.0,51.0
2368,61.0,120,120,3.0,51.0
2369,57.0,120,120,3.0,51.0
2370,55.0,120,120,3.0,51.0
2371,81.0,120,720,1.0,53.0
2372,57.0,120,120,3.0,52.0
2373,82.0,120,120,1.0,55.0
2374,61.0,0,120,3.0,52.0
2375,57.0,120,120,3.0,52.0
2376,81.0,0,0,1.0,56.0
2377,38.0,0,120,3.0,52.0
2378,57.0,0,234,5.0,56.0
2379,53.0,0,234,5.0,56.0
2380,62.0,120,234,5.0,56.0
2381,79.0,0,120,1.0,56.0
2382,45.0,120,120,3.0,52.0
2383,33.0,0,120,3.0,53.0
2384,77.0,120,120,1.0,56.0
2385,57.0,0,78,5.0,57.0
2386,61.0,0,78,5.0,57.0
2387,64.0,0,78,5.0,57.0
2388,76.0,0,120,1.0,57.0
2389,45.0,120,120,3.0,53.0
2390,38.0,0,120,3.0,53.0
2391,45.0,120,120,3.0,53.0
2392,74.0,0,360,1.0,57.0
2393,50.0,120,120,3.0,53.0
2394,45.0,120,120,3.0,54.0
2395,38.0,0,120,3.0,54.0
2396,74.0,120,234,1.0,58.0
2397,86.0,0,234,1.0,58.0
2398,45.0,120,120,3.0,54.0
2399,50.0,120,120,3.0,54.0
2400,76.0,0,78,1.0,60.0
2401,73.0,120,78,2.0,60.0
2402,88.0,0,78,1.0,60.0
2403,85.0,0,78,2.0,60.0
2404,45.0,0,120,3.0,54.0
2405,38.0,0,120,3.0,55.0
2406,45.0,120,120,3.0,55.0
2407,89.0,0,360,1.0,60.0
2408,77.0,0,360,1.0,60.0
2409,86.0,120,360,2.0,60.0
2410,74.0,0,360,2.0,60.0
2411,50.0,120,120,3.0,55.0
2412,62.0,120,1440,5.0,57.0
2413,57.0,0,0,5.0,61.0
2414,45.0,120,120,3.0,55.0
2415,65.0,0,1440,5.0,57.0
2416,38.0,0,120,3.0,55.0
2417,53.0,0,234,5.0,61.0
2418,62.0,120,234,5.0,61.0
2419,45.0,120,120,3.0,56.0
2420,33.0,120,120,3.0,56.0
2421,61.0,0,78,5.0,62.0
2422,64.0,0,78,5.0,62.0
2423,57.0,0,78,5.0,62.0
2424,45.0,120,120,3.0,56.0
2425,38.0,0,120,3.0,56.0
2426,45.0,120,120,3.0,56.0
2427,50.0,120,120,3.0,57.0
2428,45.0,120,120,3.0,57.0
2429,38.0,120,120,3.0,57.0
2430,86.0,0,234,1.0,64.0
2431,74.0,0,234,1.0,64.0
2432,45.0,120,120,3.0,57.0
2433,50.0,120,120,3.0,57.0
2434,85.0,0,78,2.0,65.0
2435,88.0,120,78,1.0,65.0
2436,76.0,0,78,1.0,65.0
2437,73.0,0,78,2.0,65.0
2438,45.0,0,120,3.0,58.0
2439,38.0,120,120,3.0,58.0
2440,45.0,120,120,3.0,58.0
2441,74.0,0,360,2.0,65.0
2442,86.0,0,360,2.0,65.0
2443,77.0,0,360,1.0,65.0
2444,89.0,0,360,1.0,65.0
2445,50.0,120,120,3.0,58.0
2446,45.0,120,120,3.0,58.0
2447,62.0,0,1440,5.0,63.0
2448,65.0,120,1440,5.0,63.0
2449,57.0,0,1440,5.0,63.0
2450,38.0,120,120,3.0,59.0
2451,77.0,0,234,1.0,67.0
2452,65.0,0,234,1.0,67.0
2453,50.0,120,120,3.0,59.0
2454,36.0,120,120,3.0,59.0
2455,79.0,0,78,1.0,68.0
2456,76.0,0,78,2.0,68.0
2457,67.0,0,78,1.0,68.0
2458,64.0,120,78,2.0,68.0
2459,48.0,0,120,3.0,59.0
2460,29.0,0,120,3.0,59.0
2461,36.0,120,120,3.0,60.0
2462,41.0,120,120,3.0,60.0
2463,36.0,120,120,3.0,60.0
2464,29.0,0,120,3.0,60.0
2465,45.0,120,234,5.0,69.0
2466,53.0,0,234,5.0,69.0
2467,36.0,120,120,3.0,61.0
2468,41.0,120,120,3.0,61.0
2469,48.0,0,78,5.0,71.0
2470,55.0,0,78,5.0,71.0
2471,36.0,120,120,3.0,61.0
2472,29.0,120,120,3.0,61.0
2473,36.0,120,120,3.0,61.0
2474,57.0,0,360,5.0,71.0
2475,41.0,120,120,3.0,62.0
2476,53.0,0,360,5.0,71.0
2477,36.0,120,120,3.0,62.0
2478,69.0,120,1440,1.0,68.0
2479,81.0,0,1440,1.0,68.0
2480,77.0,0,1440,2.0,68.0
2481,65.0,0,1440,2.0,68.0
2482,29.0,120,120,3.0,62.0
2483,65.0,0,234,1.0,72.0
2484,77.0,0,234,1.0,72.0
2485,36.0,120,120,3.0,62.0
2486,41.0,120,120,3.0,62.0
2487,76.0,0,78,2.0,73.0
2488,64.0,120,78,2.0,73.0
2489,67.0,0,78,1.0,73.0
2490,79.0,0,78,1.0,73.0
2491,36.0,0,120,3.0,63.0
2492,29.0,120,120,3.0,63.0
2493,36.0,120,120,3.0,63.0
2494,81.0,0,360,1.0,74.0
2495,69.0,0,360,1.0,74.0
2496,77.0,0,360,2.0,74.0
2497,41.0,120,120,3.0,63.0
2498,65.0,0,360,2.0,74.0
2499,36.0,120,120,3.0,63.0
2500,29.0,0,120,3.0,64.0
2501,77.0,120,234,1.0,75.0
2502,65.0,0,234,1.0,75.0
2503,53.0,0,234,5.0,75.0
2504,45.0,0,234,5.0,75.0
2505,36.0,120,120,3.0,64.0
2506,41.0,120,120,3.0,64.0
2507,64.0,0,78,2.0,76.0
2508,55.0,120,78,5.0,76.0
2509,48.0,0,78,5.0,76.0
2510,76.0,0,78,2.0,76.0
2511,79.0,0,78,1.0,76.0
2512,67.0,0,78,1.0,76.0
2513,36.0,0,120,3.0,64.0
2514,29.0,0,120,3.0,64.0
2515,36.0,120,120,3.0,65.0
2516,65.0,120,360,2.0,76.0
2517,57.0,0,360,5.0,76.0
2518,53.0,0,360,5.0,76.0
2519,81.0,0,360,1.0,76.0
2520,69.0,0,360,1.0,76.0
2521,77.0,0,360,2.0,76.0
2522,41.0,120,120,3.0,65.0
2523,36.0,120,120,3.0,65.0
2524,29.0,0,120,3.0,65.0
2525,77.0,0,234,1.0,77.0
2526,65.0,0,234,1.0,77.0
2527,53.0,120,234,5.0,77.0
2528,45.0,0,234,5.0,77.0
2529,36.0,120,120,3.0,65.0
2530,41.0,120,120,3.0,66.0
2531,79.0,0,78,1.0,83.0
2532,55.0,0,78,5.0,83.0
2533,48.0,0,78,5.0,83.0
2534,67.0,0,78,1.0,83.0
2535,76.0,120,78,2.0,83.0
2536,64.0,0,78,2.0,83.0
2537,36.0,0,120,3.0,66.0
2538,77.0,0,360,2.0,86.0
2539,81.0,0,360,1.0,86.0
2540,69.0,0,360,1.0,86.0
2541,57.0,0,360,5.0,86.0
2542,65.0,120,360,2.0,86.0
2543,53.0,0,360,5.0,86.0
2544,50.0,480,234,5.0,79.0
2545,62.0,0,234,1.0,79.0
2546,74.0,0,234,1.0,79.0
2547,38.0,0,234,5.0,79.0
2548,40.0,0,78,5.0,81.0
2549,64.0,0,78,1.0,81.0
2550,76.0,360,78,1.0,81.0
2551,52.0,0,78,5.0,81.0
2552,53.0,0,360,5.0,86.0
2553,41.0,0,360,5.0,86.0
2554,77.0,0,360,1.0,86.0
2555,65.0,120,360,1.0,86.0
2556,35.0,0,234,5.0,79.0
2557,47.0,480,234,5.0,79.0
2558,59.0,0,234,1.0,79.0
2559,71.0,0,234,1.0,79.0
2560,60.0,360,78,1.0,82.0
2561,72.0,0,78,1.0,82.0
2562,36.0,0,78,5.0,82.0
2563,48.0,0,78,5.0,82.0
2564,50.0,0,120,3.0,81.0
2565,47.0,120,120,3.0,80.0
2566,38.0,120,360,5.0,83.0
2567,50.0,120,120,3.0,79.0
2568,74.0,0,360,1.0,83.0
2569,62.0,0,360,1.0,83.0
2570,47.0,120,120,3.0,78.0
2571,43.0,0,120,3.0,77.0
2572,55.0,120,234,2.0,80.0
2573,67.0,0,234,2.0,80.0
2574,47.0,120,120,3.0,77.0
2575,31.0,0,360,5.0,80.0
2576,50.0,120,120,3.0,76.0
2577,55.0,120,78,2.0,78.0
2578,67.0,0,78,2.0,78.0
2579,47.0,0,120,3.0,75.0
2580,43.0,0,120,3.0,74.0
2581,47.0,120,120,3.0,75.0
2582,67.0,120,360,2.0,78.0
2583,50.0,120,120,3.0,76.0
2584,55.0,0,360,2.0,78.0
2585,47.0,120,120,3.0,77.0
2586,43.0,0,120,3.0,79.0
2587,31.0,0,234,5.0,83.0
2588,47.0,120,120,3.0,80.0
2589,50.0,120,120,3.0,81.0
2590,55.0,0,360,2.0,83.0
2591,62.0,0,360,1.0,83.0
2592,71.0,120,360,2.0,83.0
2593,74.0,0,360,1.0,83.0
2594,31.0,0,78,5.0,86.0
2595,47.0,120,120,3.0,83.0
2596,43.0,120,120,3.0,89.0
2597,48.0,120,120,3.0,89.0
2598,36.0,0,360,5.0,92.0
2599,52.0,120,120,3.0,88.0
2600,48.0,120,120,3.0,88.0
2601,43.0,120,120,3.0,88.0
2602,48.0,120,120,3.0,87.0
2603,64.0,0,720,1.0,92.0
2604,76.0,0,720,1.0,92.0
2605,60.0,0,720,2.0,92.0
2606,72.0,0,720,2.0,92.0
2607,52.0,0,120,3.0,87.0
2608,36.0,0,360,5.0,90.0
2609,62.0,0,240,1.0,90.0
2610,74.0,0,240,1.0,90.0
2611,48.0,120,120,3.0,87.0
2612,59.0,120,240,2.0,90.0
2613,71.0,0,240,2.0,90.0
2614,43.0,0,120,3.0,86.0
2615,60.0,0,240,1.0,89.0
2616,72.0,0,240,1.0,89.0
2617,48.0,120,120,3.0,86.0
2618,52.0,120,240,2.0,89.0
2619,67.0,0,240,2.0,89.0
2620,52.0,0,120,3.0,85.0
2621,76.0,120,156,1.0,88.0
2622,64.0,0,156,1.0,88.0
2623,72.0,0,156,2.0,88.0
2624,60.0,0,156,2.0,88.0
2625,48.0,120,120,3.0,85.0
2626,43.0,120,120,3.0,85.0
2627,76.0,0,156,2.0,88.0
2628,67.0,0,156,1.0,88.0
2629,79.0,0,156,1.0,88.0
2630,64.0,0,156,2.0,88.0
2631,36.0,0,234,5.0,88.0
2632,48.0,120,120,3.0,84.0
2633,52.0,120,120,3.0,84.0
2634,60.0,0,156,2.0,87.0
2635,72.0,0,156,2.0,87.0
2636,64.0,0,156,1.0,87.0
2637,76.0,0,156,1.0,87.0
2638,36.0,120,78,5.0,87.0
2639,48.0,0,120,3.0,83.0
2640,43.0,120,120,3.0,83.0
2641,47.0,120,120,3.0,83.0
2642,31.0,0,360,5.0,86.0
2643,50.0,120,120,3.0,82.0
2644,74.0,0,360,1.0,86.0
2645,62.0,0,360,1.0,86.0
2646,71.0,0,360,2.0,86.0
2647,59.0,0,360,2.0,86.0
2648,47.0,120,120,3.0,82.0
2649,43.0,0,120,3.0,81.0
2650,67.0,0,234,2.0,85.0
2651,55.0,120,234,2.0,85.0
2652,47.0,120,120,3.0,81.0
2653,50.0,120,120,3.0,81.0
2654,31.0,0,360,5.0,85.0
2655,55.0,120,78,2.0,84.0
2656,67.0,0,78,2.0,84.0
2657,47.0,0,120,3.0,80.0
2658,43.0,0,120,3.0,78.0
2659,47.0,120,120,3.0,80.0
2660,55.0,0,360,2.0,84.0
2661,50.0,120,120,3.0,81.0
2662,67.0,120,360,2.0,84.0
2663,47.0,120,120,3.0,82.0
2664,43.0,0,120,3.0,84.0
2665,31.0,0,234,5.0,89.0
2666,47.0,120,120,3.0,85.0
2667,55.0,0,360,2.0,89.0
2668,74.0,120,360,1.0,89.0
2669,62.0,0,360,1.0,89.0
2670,71.0,0,360,2.0,89.0
2671,50.0,120,120,3.0,87.0
2672,31.0,120,78,5.0,93.0
2673,47.0,0,120,3.0,88.0
2674,43.0,0,120,3.0,91.0
2675,48.0,120,120,3.0,91.0
2676,36.0,0,360,5.0,99.0
2677,52.0,120,120,3.0,91.0
2678,48.0,120,120,3.0,90.0
2679,43.0,0,120,3.0,90.0
2680,60.0,0,720,2.0,99.0
2681,72.0,0,720,2.0,99.0
2682,76.0,120,720,1.0,99.0
2683,64.0,0,720,1.0,99.0
2684,48.0,120,120,3.0,90.0
2685,36.0,120,360,5.0,97.0
2686,52.0,0,120,3.0,89.0
2687,62.0,0,240,1.0,96.0
2688,59.0,0,240,2.0,96.0
2689,71.0,120,240,2.0,96.0
2690,48.0,120,120,3.0,89.0
2691,74.0,0,240,1.0,96.0
2692,43.0,0,120,3.0,89.0
2693,67.0,0,240,2.0,96.0
2694,48.0,120,120,3.0,88.0
2695,72.0,0,240,1.0,96.0
2696,60.0,120,240,1.0,96.0
2697,52.0,0,240,2.0,96.0
2698,52.0,0,120,3.0,88.0
2699,76.0,120,156,1.0,95.0
2700,64.0,0,156,1.0,95.0
2701,72.0,0,156,2.0,95.0
2702,60.0,0,156,2.0,95.0
2703,48.0,120,120,3.0,87.0
2704,43.0,0,120,3.0,87.0
2705,76.0,120,156,2.0,95.0
2706,64.0,0,156,2.0,95.0
2707,79.0,0,156,1.0,95.0
2708,67.0,0,156,1.0,95.0
2709,36.0,0,234,5.0,95.0
2710,48.0,120,120,3.0,87.0
2711,52.0,0,120,3.0,86.0
2712,64.0,120,156,1.0,94.0
2713,76.0,0,156,1.0,94.0
2714,60.0,0,156,2.0,94.0
2715,72.0,0,156,2.0,94.0
2716,36.0,120,78,5.0,94.0
2717,48.0,0,120,3.0,86.0
2718,71.0,0,360,2.0,97.0
2719,59.0,0,360,2.0,97.0
2720,31.0,120,360,5.0,97.0
2721,74.0,0,360,1.0,97.0
2722,62.0,0,360,1.0,97.0
2723,36.0,0,234,5.0,93.0
2724,48.0,0,234,5.0,93.0
2725,55.0,0,234,4.0,93.0
2726,64.0,0,234,4.0,93.0
2727,60.0,480,234,4.0,93.0
2728,36.0,0,78,5.0,91.0
2729,48.0,360,78,5.0,91.0
2730,55.0,0,78,4.0,91.0
2731,60.0,0,78,4.0,91.0
2732,64.0,0,78,4.0,91.0
2733,43.0,0,360,5.0,90.0
2734,31.0,0,360,5.0,90.0
2735,59.0,120,360,4.0,90.0
2736,62.0,0,360,4.0,90.0
2737,55.0,0,360,4.0,90.0
2738,43.0,0,234,5.0,96.0
2739,73.0,0,234,2.0,96.0
2740,67.0,0,234,2.0,96.0
2741,85.0,0,234,2.0,96.0
2742,64.0,0,234,4.0,96.0
2743,55.0,0,234,4.0,96.0
2744,76.0,480,234,1.0,96.0
2745,31.0,0,234,5.0,96.0
2746,88.0,0,234,1.0,96.0
2747,61.0,0,234,4.0,96.0
2748,61.0,0,78,4.0,102.0
2749,64.0,0,78,4.0,102.0
2750,55.0,0,78,4.0,102.0
2751,85.0,0,78,2.0,102.0
2752,73.0,360,78,2.0,102.0
2753,88.0,0,78,1.0,102.0
2754,43.0,0,78,5.0,102.0
2755,31.0,0,78,5.0,102.0
2756,67.0,0,78,2.0,102.0
2757,76.0,0,78,1.0,102.0
2758,31.0,120,0,5.0,103.0
2759,86.0,80,380,1.0,103.0
2760,43.0,0,340,5.0,103.0
2761,67.0,0,355,2.0,103.0
2762,62.0,0,360,4.0,103.0
2763,65.0,0,360,4.0,103.0
2764,55.0,0,360,4.0,103.0
2765,77.0,40,360,1.0,103.0
2766,33.0,120,120,5.0,100.0
2767,74.0,0,365,2.0,103.0
2768,35.0,120,120,5.0,97.0
2769,89.0,0,600,1.0,103.0
2770,36.0,120,120,5.0,94.0
2771,38.0,120,120,5.0,92.0
2772,88.0,0,120,1.0,92.0
2773,86.0,120,120,1.0,89.0
2774,40.0,0,120,5.0,89.0
2775,42.0,0,120,5.0,86.0
2776,84.0,120,120,1.0,86.0
2777,83.0,120,120,1.0,83.0
2778,43.0,0,120,5.0,83.0
2779,81.0,120,120,1.0,79.0
2780,42.0,0,120,5.0,79.0
2781,79.0,120,120,1.0,75.0
2782,43.0,0,120,5.0,75.0
2783,77.0,0,120,1.0,71.0
2784,45.0,120,120,5.0,71.0
2785,76.0,0,120,1.0,68.0
2786,43.0,0,120,5.0,68.0
2787,60.0,120,234,1.0,68.0
2788,52.0,0,234,2.0,68.0
2789,74.0,0,120,1.0,64.0
2790,41.0,120,120,5.0,64.0
2791,72.0,0,120,1.0,60.0
2792,40.0,120,120,5.0,60.0
2793,62.0,0,78,1.0,57.0
2794,55.0,0,78,2.0,57.0
2795,74.0,120,120,1.0,57.0
2796,38.0,0,120,5.0,57.0
2797,36.0,0,0,5.0,50.0
2798,48.0,480,120,5.0,50.0
2799,31.0,0,120,5.0,48.0
2800,43.0,120,120,5.0,48.0
2801,36.0,0,120,5.0,47.0
2802,48.0,120,120,5.0,47.0
2803,43.0,0,120,5.0,45.0
2804,31.0,120,120,5.0,45.0
2805,36.0,120,360,5.0,44.0
2806,48.0,0,360,5.0,44.0
2807,60.0,0,1440,2.0,55.0
2808,72.0,0,1440,2.0,55.0
2809,64.0,120,1440,1.0,55.0
2810,76.0,0,1440,1.0,55.0
2811,72.0,0,234,1.0,45.0
2812,67.0,0,234,2.0,45.0
2813,52.0,480,234,2.0,45.0
2814,60.0,0,234,1.0,45.0
2815,71.0,0,78,2.0,48.0
2816,55.0,360,78,2.0,48.0
2817,74.0,0,78,1.0,48.0
2818,62.0,0,78,1.0,48.0
2819,36.0,0,120,5.0,48.0
2820,48.0,480,120,5.0,48.0
2821,31.0,0,120,5.0,47.0
2822,43.0,120,120,5.0,47.0
2823,48.0,120,120,5.0,46.0
2824,36.0,0,120,5.0,46.0
2825,43.0,0,120,5.0,45.0
2826,31.0,120,120,5.0,45.0
2827,48.0,0,360,5.0,43.0
2828,36.0,120,360,5.0,43.0
2829,64.0,480,0,1.0,47.0
2830,60.0,0,1440,2.0,51.0
2831,76.0,120,1440,1.0,51.0
2832,72.0,0,0,2.0,47.0
2833,76.0,0,234,1.0,47.0
2834,48.0,0,234,5.0,47.0
2835,60.0,0,234,2.0,47.0
2836,36.0,0,235,5.0,47.0
2837,52.0,0,235,4.0,47.0
2838,77.0,0,78,1.0,49.0
2839,65.0,0,78,1.0,49.0
2840,74.0,0,78,2.0,49.0
2841,50.0,0,78,4.0,49.0
2842,62.0,0,78,2.0,49.0
2843,53.0,0,78,4.0,49.0
2844,48.0,360,78,5.0,49.0
2845,36.0,0,78,5.0,49.0
2846,48.0,0,0,5.0,52.0
2847,79.0,120,480,1.0,50.0
2848,36.0,0,0,5.0,52.0
2849,67.0,0,480,1.0,50.0
2850,52.0,0,480,4.0,50.0
2851,55.0,0,480,4.0,50.0
2852,64.0,0,0,2.0,52.0
2853,76.0,0,0,2.0,52.0
2854,81.0,480,234,1.0,52.0
2855,69.0,0,234,1.0,52.0
2856,52.0,0,235,4.0,52.0
2857,57.0,0,235,4.0,52.0
2858,35.0,0,78,5.0,54.0
2859,47.0,360,78,5.0,54.0
2860,62.0,0,78,2.0,54.0
2861,74.0,0,78,2.0,54.0
2862,59.0,0,78,4.0,54.0
2863,50.0,0,78,4.0,54.0
2864,71.0,0,78,1.0,54.0
2865,83.0,0,78,1.0,54.0
2866,52.0,0,480,4.0,55.0
2867,76.0,120,480,2.0,55.0
2868,60.0,0,480,4.0,55.0
2869,64.0,0,480,2.0,55.0
2870,45.0,0,480,5.0,55.0
2871,72.0,0,480,1.0,55.0
2872,84.0,0,480,1.0,55.0
2873,33.0,0,480,5.0,55.0
2874,72.0,0,234,2.0,57.0
2875,81.0,0,234,1.0,57.0
2876,60.0,0,234,2.0,57.0
2877,69.0,0,234,1.0,57.0
2878,48.0,0,234,4.0,57.0
2879,57.0,480,235,4.0,57.0
2880,38.0,0,235,5.0,57.0
2881,54.0,0,78,4.0,59.0
2882,45.0,360,78,4.0,59.0
2883,38.0,0,78,5.0,59.0
2884,78.0,0,78,1.0,59.0
2885,66.0,0,78,1.0,59.0
2886,69.0,0,78,2.0,59.0
2887,57.0,0,78,2.0,59.0
2888,79.0,0,360,1.0,61.0
2889,67.0,0,360,1.0,61.0
2890,55.0,120,360,4.0,61.0
2891,59.0,0,360,2.0,61.0
2892,47.0,0,360,4.0,61.0
2893,71.0,0,360,2.0,61.0
2894,31.0,0,360,5.0,61.0
2895,79.0,480,360,1.0,58.0
2896,62.0,0,360,2.0,58.0
2897,59.0,0,360,2.0,58.0
2898,31.0,0,360,5.0,58.0
2899,71.0,0,360,2.0,58.0
2900,43.0,0,360,5.0,58.0
2901,67.0,0,360,1.0,58.0
2902,55.0,0,360,4.0,58.0
2903,50.0,0,360,4.0,58.0
2904,47.0,0,360,4.0,58.0
2905,74.0,0,360,2.0,58.0
2906,74.0,0,360,2.0,55.0
2907,55.0,0,360,4.0,55.0
2908,67.0,0,360,1.0,55.0
2909,79.0,0,360,1.0,55.0
2910,50.0,0,360,4.0,55.0
2911,47.0,0,360,4.0,55.0
2912,59.0,480,360,2.0,55.0
2913,31.0,0,360,5.0,55.0
2914,43.0,0,360,5.0,55.0
2915,71.0,0,360,2.0,55.0
2916,62.0,0,360,2.0,55.0
2917,62.0,0,234,4.0,48.0
2918,59.0,480,234,4.0,48.0
2919,43.0,0,234,5.0,48.0
2920,47.0,0,234,4.0,48.0
2921,55.0,0,234,5.0,48.0
2922,50.0,0,234,4.0,48.0
2923,52.0,0,78,4.0,50.0
2924,48.0,0,78,4.0,50.0
2925,60.0,360,78,4.0,50.0
2926,64.0,0,78,4.0,50.0
2927,55.0,0,78,5.0,50.0
2928,43.0,0,78,5.0,50.0
2929,77.0,480,234,1.0,55.0
2930,89.0,0,234,1.0,55.0
2931,74.0,0,234,2.0,55.0
2932,86.0,0,234,2.0,55.0
2933,84.0,0,78,2.0,57.0
2934,72.0,360,78,2.0,57.0
2935,76.0,0,78,1.0,57.0
2936,88.0,0,78,1.0,57.0
2937,65.0,0,1440,4.0,51.0
2938,62.0,0,0,4.0,61.0
2939,50.0,480,0,4.0,61.0
2940,53.0,0,1440,4.0,51.0
2941,43.0,0,0,5.0,61.0
2942,55.0,0,0,5.0,61.0
2943,47.0,0,234,4.0,61.0
2944,59.0,0,234,4.0,61.0
2945,60.0,0,78,4.0,64.0
2946,48.0,0,78,4.0,64.0
2947,52.0,0,78,4.0,64.0
2948,64.0,0,78,4.0,64.0
2949,43.0,360,78,5.0,64.0
2950,55.0,0,78,5.0,64.0
2951,53.0,0,360,4.0,65.0
2952,62.0,0,360,4.0,65.0
2953,50.0,0,360,4.0,65.0
2954,65.0,0,360,4.0,65.0
2955,43.0,0,360,5.0,65.0
2956,55.0,120,360,5.0,65.0
2957,74.0,120,1440,1.0,58.0
2958,71.0,0,1440,2.0,58.0
2959,86.0,0,1440,1.0,58.0
2960,83.0,0,1440,2.0,58.0
2961,89.0,480,234,1.0,68.0
2962,77.0,0,234,1.0,68.0
2963,86.0,0,234,2.0,68.0
2964,74.0,0,234,2.0,68.0
2965,50.0,0,234,4.0,68.0
2966,44.0,0,234,5.0,68.0
2967,47.0,0,234,4.0,68.0
2968,56.0,0,234,5.0,68.0
2969,62.0,0,234,4.0,68.0
2970,59.0,0,234,4.0,68.0
2971,48.0,0,78,4.0,70.0
2972,56.0,0,78,5.0,70.0
2973,88.0,0,78,1.0,70.0
2974,60.0,0,78,4.0,70.0
2975,76.0,0,78,1.0,70.0
2976,64.0,0,78,4.0,70.0
2977,84.0,0,78,2.0,70.0
2978,72.0,0,78,2.0,70.0
2979,44.0,0,78,5.0,70.0
2980,52.0,360,78,4.0,70.0
2981,83.0,0,360,2.0,71.0
2982,62.0,0,360,4.0,71.0
2983,71.0,0,360,2.0,71.0
2984,50.0,0,360,4.0,71.0
2985,65.0,120,360,4.0,71.0
2986,86.0,0,360,1.0,71.0
2987,74.0,0,360,1.0,71.0
2988,56.0,0,360,5.0,71.0
2989,53.0,0,360,4.0,71.0
2990,44.0,0,360,5.0,71.0
2991,56.0,0,234,5.0,75.0
2992,44.0,0,234,5.0,75.0
2993,52.0,0,234,4.0,75.0
2994,71.0,0,234,2.0,75.0
2995,64.0,0,234,4.0,75.0
2996,59.0,0,234,4.0,75.0
2997,47.0,0,234,4.0,75.0
2998,76.0,480,234,1.0,75.0
2999,88.0,0,234,1.0,75.0
3000,83.0,0,234,2.0,75.0
3001,74.0,0,78,1.0,77.0
3002,71.0,0,78,2.0,77.0
3003,83.0,0,78,2.0,77.0
3004,86.0,0,78,1.0,77.0
3005,44.0,0,78,5.0,77.0
3006,47.0,0,78,4.0,77.0
3007,52.0,0,78,4.0,77.0
3008,64.0,0,78,4.0,77.0
3009,59.0,360,78,4.0,77.0
3010,56.0,0,78,5.0,77.0
3011,72.0,0,104,1.0,85.0
3012,84.0,0,104,1.0,85.0
3013,57.0,0,160,4.0,85.0
3014,83.0,0,104,1.0,84.0
3015,71.0,160,104,1.0,84.0
3016,60.0,0,160,4.0,84.0
3017,45.0,120,360,5.0,85.0
3018,52.0,0,360,4.0,85.0
3019,48.0,0,360,4.0,85.0
3020,72.0,160,104,1.0,83.0
3021,84.0,0,104,1.0,83.0
3022,64.0,0,160,4.0,83.0
3023,74.0,0,104,1.0,81.0
3024,86.0,0,104,1.0,81.0
3025,57.0,0,160,4.0,81.0
3026,41.0,160,234,5.0,81.0
3027,88.0,0,104,1.0,80.0
3028,76.0,160,104,1.0,80.0
3029,62.0,0,160,4.0,80.0
3030,89.0,0,104,1.0,78.0
3031,77.0,0,104,1.0,78.0
3032,41.0,40,78,5.0,78.0
3033,65.0,160,160,4.0,78.0
3034,76.0,0,104,1.0,77.0
3035,88.0,0,104,1.0,77.0
3036,55.0,0,160,4.0,77.0
3037,74.0,0,104,1.0,75.0
3038,86.0,0,104,1.0,75.0
3039,60.0,160,160,4.0,75.0
3040,43.0,120,360,5.0,77.0
3041,84.0,0,104,1.0,74.0
3042,72.0,160,104,1.0,74.0
3043,64.0,0,160,4.0,74.0
3044,79.0,0,104,1.0,73.0
3045,67.0,0,104,1.0,73.0
3046,53.0,160,160,4.0,73.0
3047,31.0,0,234,5.0,73.0
3048,81.0,0,104,1.0,71.0
3049,69.0,0,104,1.0,71.0
3050,55.0,160,160,4.0,71.0
3051,71.0,160,104,1.0,70.0
3052,83.0,0,104,1.0,70.0
3053,31.0,40,78,5.0,67.0
3054,62.0,0,160,4.0,70.0
3055,43.0,120,120,3.0,60.0
3056,60.0,120,360,4.0,66.0
3057,48.0,120,120,3.0,60.0
3058,55.0,0,360,4.0,66.0
3059,52.0,0,360,4.0,66.0
3060,72.0,0,360,1.0,66.0
3061,84.0,0,360,1.0,66.0
3062,43.0,120,120,3.0,59.0
3063,36.0,0,0,5.0,59.0
3064,43.0,120,120,3.0,58.0
3065,48.0,120,120,3.0,58.0
3066,63.0,120,360,1.0,59.0
3067,75.0,0,360,1.0,59.0
3068,62.0,0,120,1.0,58.0
3069,74.0,120,120,1.0,58.0
3070,43.0,0,120,3.0,57.0
3071,43.0,120,120,3.0,56.0
3072,48.0,120,120,3.0,56.0
3073,72.0,120,360,1.0,57.0
3074,60.0,0,360,1.0,57.0
3075,36.0,0,480,5.0,57.0
3076,43.0,120,120,3.0,55.0
3077,74.0,120,234,1.0,55.0
3078,62.0,0,234,1.0,55.0
3079,79.0,0,234,2.0,55.0
3080,43.0,120,120,3.0,55.0
3081,47.0,120,120,3.0,54.0
3082,79.0,0,78,2.0,54.0
3083,74.0,0,78,1.0,54.0
3084,62.0,0,78,1.0,54.0
3085,43.0,120,120,3.0,54.0
3086,31.0,0,480,5.0,55.0
3087,43.0,120,120,3.0,53.0
3088,64.0,120,360,1.0,54.0
3089,79.0,0,360,2.0,54.0
3090,76.0,0,360,1.0,54.0
3091,48.0,120,120,3.0,52.0
3092,36.0,0,480,5.0,54.0
3093,43.0,120,120,3.0,52.0
3094,43.0,120,120,3.0,51.0
3095,64.0,120,360,1.0,52.0
3096,76.0,0,360,1.0,52.0
3097,48.0,120,120,3.0,50.0
3098,43.0,0,120,3.0,50.0
3099,74.0,120,120,1.0,50.0
3100,62.0,0,120,1.0,50.0
3101,36.0,0,480,5.0,52.0
3102,43.0,120,120,3.0,49.0
3103,60.0,120,360,1.0,50.0
3104,48.0,120,120,3.0,48.0
3105,72.0,0,360,1.0,50.0
3106,43.0,120,120,3.0,48.0
3107,36.0,0,480,5.0,50.0
3108,62.0,0,234,1.0,48.0
3109,79.0,0,234,2.0,48.0
3110,74.0,120,234,1.0,48.0
3111,43.0,120,120,3.0,47.0
3112,47.0,120,120,3.0,47.0
3113,62.0,0,78,1.0,48.0
3114,79.0,0,78,2.0,48.0
3115,74.0,120,78,1.0,48.0
3116,43.0,0,120,3.0,46.0
3117,31.0,0,480,5.0,48.0
3118,43.0,120,120,3.0,45.0
3119,79.0,0,360,2.0,48.0
3120,63.0,120,360,1.0,48.0
3121,75.0,0,360,1.0,48.0
3122,48.0,120,120,3.0,44.0
3123,43.0,120,120,3.0,45.0
3124,36.0,0,480,5.0,48.0
3125,48.0,0,120,3.0,45.0
3126,53.0,120,120,3.0,46.0
3127,60.0,120,120,3.0,46.0
3128,87.0,0,360,1.0,50.0
3129,75.0,0,360,1.0,50.0
3130,44.0,120,480,5.0,50.0
3131,32.0,0,480,5.0,50.0
3132,86.0,0,120,1.0,52.0
3133,53.0,120,120,3.0,47.0
3134,74.0,0,120,1.0,52.0
3135,48.0,0,120,3.0,47.0
3136,55.0,120,120,3.0,48.0
3137,60.0,120,120,3.0,48.0
3138,72.0,0,360,1.0,53.0
3139,84.0,120,360,1.0,53.0
3140,55.0,120,120,3.0,49.0
3141,43.0,0,480,5.0,53.0
3142,31.0,0,480,5.0,53.0
3143,48.0,0,120,3.0,49.0
3144,86.0,0,234,1.0,55.0
3145,74.0,120,234,1.0,55.0
3146,56.0,120,120,3.0,50.0
3147,60.0,120,120,3.0,50.0
3148,74.0,0,78,1.0,56.0
3149,86.0,120,78,1.0,56.0
3150,56.0,0,120,3.0,51.0
3151,41.0,0,480,5.0,55.0
3152,29.0,0,480,5.0,55.0
3153,48.0,120,120,3.0,51.0
3154,55.0,120,120,3.0,52.0
3155,76.0,0,360,1.0,57.0
3156,88.0,0,360,1.0,57.0
3157,60.0,120,120,3.0,52.0
3158,55.0,120,120,3.0,53.0
3159,43.0,0,480,5.0,57.0
3160,31.0,0,480,5.0,57.0
3161,48.0,120,120,3.0,53.0
3162,54.0,120,120,3.0,54.0
3163,88.0,0,360,1.0,59.0
3164,60.0,120,120,3.0,54.0
3165,76.0,0,360,1.0,59.0
3166,33.0,0,480,5.0,59.0
3167,45.0,0,480,5.0,59.0
3168,74.0,0,120,1.0,61.0
3169,86.0,120,120,1.0,61.0
3170,54.0,0,120,3.0,55.0
3171,48.0,0,120,3.0,56.0
3172,55.0,120,120,3.0,56.0
3173,72.0,0,360,1.0,61.0
3174,84.0,0,360,1.0,61.0
3175,60.0,120,120,3.0,57.0
3176,55.0,120,120,3.0,57.0
3177,31.0,0,480,5.0,61.0
3178,43.0,120,480,5.0,61.0
3179,48.0,120,120,3.0,58.0
3180,86.0,0,234,1.0,64.0
3181,74.0,0,234,1.0,64.0
3182,57.0,120,120,3.0,58.0
3183,60.0,120,120,3.0,59.0
3184,74.0,0,78,1.0,65.0
3185,86.0,0,78,1.0,65.0
3186,57.0,120,120,3.0,59.0
3187,42.0,0,480,5.0,64.0
3188,30.0,0,480,5.0,64.0
3189,48.0,120,120,3.0,60.0
3190,55.0,120,120,3.0,60.0
3191,60.0,120,120,3.0,61.0
3192,31.0,0,360,5.0,66.0
3193,76.0,0,360,1.0,66.0
3194,88.0,0,360,1.0,66.0
3195,43.0,0,360,5.0,66.0
3196,55.0,120,120,3.0,61.0
3197,52.0,0,120,3.0,62.0
3198,44.0,0,234,5.0,68.0
3199,32.0,0,234,5.0,68.0
3200,59.0,120,120,3.0,62.0
3201,88.0,0,360,1.0,68.0
3202,76.0,120,360,1.0,68.0
3203,62.0,120,120,3.0,63.0
3204,32.0,0,78,5.0,70.0
3205,44.0,120,78,5.0,70.0
3206,74.0,0,120,1.0,70.0
3207,86.0,0,120,1.0,70.0
3208,59.0,0,120,3.0,63.0
3209,52.0,0,120,3.0,64.0
3210,57.0,120,120,3.0,64.0
3211,60.0,120,120,3.0,65.0
3212,33.0,0,360,5.0,70.0
3213,45.0,0,360,5.0,70.0
3214,84.0,0,360,1.0,70.0
3215,72.0,120,360,1.0,70.0
3216,57.0,120,120,3.0,65.0
3217,48.0,0,120,3.0,66.0
3218,40.0,0,234,5.0,72.0
3219,55.0,120,120,3.0,67.0
3220,58.0,120,120,3.0,67.0
3221,84.0,120,360,1.0,72.0
3222,72.0,0,360,1.0,72.0
3223,40.0,120,78,5.0,74.0
3224,55.0,0,120,3.0,68.0
3225,82.0,0,120,1.0,74.0
3226,70.0,0,120,1.0,74.0
3227,48.0,120,120,3.0,68.0
3228,53.0,120,120,3.0,69.0
3229,57.0,120,120,3.0,69.0
3230,41.0,0,360,5.0,74.0
3231,81.0,0,360,1.0,74.0
3232,69.0,0,360,1.0,74.0
3233,53.0,120,120,3.0,70.0
3234,52.0,120,120,3.0,70.0
3235,37.0,0,234,5.0,76.0
3236,55.0,120,120,3.0,71.0
3237,57.0,120,120,3.0,71.0
3238,69.0,0,360,1.0,76.0
3239,81.0,0,360,1.0,76.0
3240,37.0,0,78,5.0,78.0
3241,52.0,0,120,3.0,72.0
3242,79.0,0,120,1.0,78.0
3243,67.0,120,120,1.0,78.0
3244,38.0,120,120,5.0,79.0
3245,50.0,0,120,3.0,72.0
3246,65.0,0,120,1.0,79.0
3247,77.0,0,120,1.0,79.0
3248,57.0,120,120,3.0,73.0
3249,55.0,0,120,3.0,73.0
3250,40.0,120,120,5.0,80.0
3251,49.0,0,120,3.0,73.0
3252,64.0,0,120,1.0,80.0
3253,76.0,0,120,1.0,80.0
3254,57.0,120,120,3.0,74.0
3255,41.0,0,120,5.0,81.0
3256,74.0,120,120,1.0,81.0
3257,53.0,0,120,3.0,74.0
3258,50.0,0,120,3.0,74.0
3259,62.0,0,120,1.0,81.0
3260,57.0,120,120,3.0,75.0
3261,50.0,0,120,3.0,75.0
3262,60.0,0,120,1.0,82.0
3263,72.0,120,120,1.0,82.0
3264,42.0,0,120,5.0,82.0
3265,57.0,120,120,3.0,76.0
3266,71.0,0,120,1.0,83.0
3267,43.0,0,120,5.0,83.0
3268,50.0,0,120,3.0,76.0
3269,59.0,120,120,1.0,83.0
3270,55.0,120,120,3.0,77.0
3271,83.0,0,120,1.0,84.0
3272,71.0,0,120,1.0,84.0
3273,43.0,120,120,3.0,78.0
3274,41.0,0,120,5.0,84.0
3275,55.0,120,120,3.0,78.0
3276,40.0,0,120,5.0,85.0
3277,43.0,0,120,3.0,79.0
3278,72.0,120,120,1.0,85.0
3279,84.0,0,120,1.0,85.0
3280,55.0,120,120,3.0,79.0
3281,69.0,0,120,2.0,86.0
3282,72.0,0,120,2.0,86.0
3283,74.0,0,120,1.0,86.0
3284,41.0,0,120,5.0,86.0
3285,86.0,0,120,1.0,86.0
3286,45.0,120,120,3.0,80.0
3287,57.0,120,120,3.0,80.0
3288,43.0,0,120,3.0,81.0
3289,72.0,120,180,2.0,89.0
3290,84.0,0,180,2.0,89.0
3291,76.0,0,180,1.0,89.0
3292,88.0,0,180,1.0,89.0
3293,31.0,0,180,5.0,89.0
3294,67.0,0,180,2.0,89.0
3295,48.0,120,120,3.0,81.0
3296,52.0,120,120,3.0,79.0
3297,55.0,120,120,3.0,78.0
3298,43.0,0,120,3.0,77.0
3299,86.0,0,180,1.0,84.0
3300,74.0,0,180,1.0,84.0
3301,71.0,0,180,2.0,84.0
3302,67.0,120,180,2.0,84.0
3303,65.0,0,180,2.0,84.0
3304,31.0,0,180,5.0,84.0
3305,83.0,0,180,2.0,84.0
3306,47.0,120,120,3.0,75.0
3307,50.0,120,120,3.0,74.0
3308,55.0,120,120,3.0,73.0
3309,67.0,0,360,2.0,80.0
3310,36.0,0,360,5.0,80.0
3311,48.0,0,360,5.0,80.0
3312,84.0,0,360,1.0,80.0
3313,72.0,120,360,1.0,80.0
3314,64.0,0,360,2.0,80.0
3315,64.0,480,234,4.0,57.0
3316,60.0,0,234,4.0,57.0
3317,55.0,0,234,4.0,57.0
3318,48.0,0,234,5.0,57.0
3319,60.0,0,78,4.0,55.0
3320,55.0,360,78,4.0,55.0
3321,48.0,0,78,5.0,55.0
3322,64.0,0,78,4.0,55.0
3323,79.0,120,120,1.0,54.0
3324,67.0,0,120,1.0,54.0
3325,69.0,0,120,1.0,53.0
3326,81.0,120,120,1.0,53.0
3327,62.0,0,360,4.0,54.0
3328,65.0,0,360,4.0,54.0
3329,55.0,0,360,4.0,54.0
3330,83.0,120,120,1.0,52.0
3331,71.0,0,120,1.0,52.0
3332,36.0,0,360,5.0,54.0
3333,84.0,120,120,1.0,52.0
3334,72.0,0,120,1.0,52.0
3335,74.0,0,120,1.0,51.0
3336,86.0,120,120,1.0,51.0
3337,65.0,0,234,4.0,51.0
3338,55.0,0,234,4.0,51.0
3339,48.0,0,234,5.0,51.0
3340,62.0,0,234,4.0,51.0
3341,88.0,0,120,1.0,50.0
3342,76.0,120,120,1.0,50.0
3343,77.0,120,120,1.0,50.0
3344,89.0,0,120,1.0,50.0
3345,55.0,0,78,4.0,49.0
3346,62.0,0,78,4.0,49.0
3347,48.0,0,78,5.0,49.0
3348,65.0,0,78,4.0,49.0
3349,86.0,0,120,1.0,49.0
3350,74.0,120,120,1.0,49.0
3351,36.0,0,360,5.0,48.0
3352,64.0,120,360,4.0,48.0
3353,76.0,0,360,1.0,48.0
3354,60.0,0,360,4.0,48.0
3355,88.0,0,360,1.0,48.0
3356,55.0,0,360,4.0,48.0
3357,48.0,480,234,5.0,44.0
3358,60.0,0,234,4.0,44.0
3359,55.0,0,234,4.0,44.0
3360,64.0,0,234,4.0,44.0
3361,55.0,0,78,4.0,42.0
3362,60.0,0,78,4.0,42.0
3363,64.0,360,78,4.0,42.0
3364,48.0,0,78,5.0,42.0
3365,79.0,0,120,1.0,42.0
3366,67.0,120,120,1.0,42.0
3367,66.0,0,120,1.0,41.0
3368,78.0,120,120,1.0,41.0
3369,36.0,0,360,5.0,42.0
3370,53.0,0,360,4.0,42.0
3371,59.0,0,360,4.0,42.0
3372,79.0,0,120,1.0,41.0
3373,55.0,0,360,4.0,42.0
3374,62.0,0,360,4.0,42.0
3375,67.0,120,120,1.0,41.0
3376,81.0,0,120,1.0,40.0
3377,69.0,120,120,1.0,40.0
3378,71.0,0,120,1.0,40.0
3379,83.0,0,120,1.0,40.0
3380,62.0,120,234,4.0,40.0
3381,55.0,0,234,4.0,40.0
3382,53.0,0,234,4.0,40.0
3383,48.0,0,234,5.0,40.0
3384,59.0,0,234,4.0,40.0
3385,72.0,120,120,1.0,39.0
3386,84.0,0,120,1.0,39.0
3387,86.0,0,120,1.0,38.0
3388,74.0,120,120,1.0,38.0
3389,53.0,0,78,4.0,38.0
3390,48.0,0,78,5.0,38.0
3391,59.0,0,78,4.0,38.0
3392,62.0,0,78,4.0,38.0
3393,55.0,0,78,4.0,38.0
3394,71.0,120,120,1.0,38.0
3395,83.0,0,120,1.0,38.0
3396,60.0,0,360,4.0,37.0
3397,55.0,0,360,4.0,37.0
3398,52.0,0,360,4.0,37.0
3399,72.0,120,360,1.0,37.0
3400,84.0,0,360,1.0,37.0
3401,36.0,0,360,5.0,37.0
3402,48.0,0,234,5.0,35.0
3403,55.0,480,234,4.0,35.0
3404,60.0,0,234,4.0,35.0
3405,64.0,0,234,4.0,35.0
3406,64.0,0,78,4.0,43.0
3407,55.0,0,78,4.0,43.0
3408,48.0,360,78,5.0,43.0
3409,60.0,0,78,4.0,43.0
3410,67.0,0,120,1.0,46.0
3411,79.0,0,120,1.0,46.0
3412,81.0,0,120,1.0,48.0
3413,69.0,120,120,1.0,48.0
3414,83.0,0,120,1.0,51.0
3415,71.0,120,120,1.0,51.0
3416,62.0,120,360,4.0,46.0
3417,65.0,0,360,4.0,46.0
3418,55.0,0,360,4.0,46.0
3419,36.0,0,360,5.0,46.0
3420,72.0,0,120,1.0,54.0
3421,84.0,120,120,1.0,54.0
3422,86.0,0,120,1.0,57.0
3423,74.0,0,120,1.0,57.0
3424,48.0,0,234,5.0,57.0
3425,62.0,0,234,4.0,57.0
3426,55.0,120,234,4.0,57.0
3427,65.0,0,234,4.0,57.0
3428,88.0,120,120,1.0,59.0
3429,76.0,0,120,1.0,59.0
3430,77.0,120,120,1.0,62.0
3431,89.0,0,120,1.0,62.0
3432,55.0,0,78,4.0,65.0
3433,62.0,0,78,4.0,65.0
3434,48.0,0,78,5.0,65.0
3435,86.0,0,120,1.0,65.0
3436,74.0,0,120,1.0,65.0
3437,65.0,120,120,4.0,65.0
3438,84.0,0,120,1.0,68.0
3439,48.0,0,120,5.0,68.0
3440,72.0,120,120,1.0,68.0
3441,71.0,0,120,1.0,71.0
3442,47.0,0,120,5.0,71.0
3443,83.0,120,120,1.0,71.0
3444,45.0,0,120,5.0,73.0
3445,55.0,0,360,4.0,68.0
3446,60.0,0,360,4.0,68.0
3447,64.0,0,360,4.0,68.0
3448,81.0,120,120,1.0,73.0
3449,69.0,0,120,1.0,73.0
3450,67.0,0,120,1.0,76.0
3451,43.0,120,120,5.0,76.0
3452,79.0,0,120,1.0,76.0
3453,41.0,120,120,5.0,79.0
3454,77.0,0,120,1.0,79.0
3455,65.0,0,120,1.0,79.0
3456,64.0,0,120,1.0,82.0
3457,76.0,0,120,1.0,82.0
3458,40.0,120,120,5.0,82.0
3459,74.0,120,120,1.0,84.0
3460,62.0,0,120,1.0,84.0
3461,38.0,0,120,5.0,84.0
3462,36.0,0,120,5.0,87.0
3463,72.0,0,120,1.0,87.0
3464,60.0,120,120,1.0,87.0
3465,55.0,120,120,5.0,90.0
3466,57.0,120,120,5.0,92.0
3467,79.0,0,360,1.0,90.0
3468,67.0,0,360,1.0,90.0
3469,59.0,120,120,5.0,93.0
3470,43.0,0,360,5.0,90.0
3471,60.0,120,120,5.0,93.0
3472,83.0,0,80,1.0,94.0
3473,71.0,0,80,1.0,94.0
3474,62.0,0,120,5.0,94.0
3475,84.0,80,80,1.0,94.0
3476,72.0,0,80,1.0,94.0
3477,31.0,120,234,5.0,94.0
3478,64.0,40,120,5.0,94.0
3479,83.0,0,80,1.0,95.0
3480,71.0,40,80,1.0,95.0
3481,81.0,80,120,1.0,95.0
3482,69.0,0,120,1.0,95.0
3483,65.0,0,120,5.0,95.0
3484,31.0,0,78,5.0,96.0
3485,83.0,120,120,1.0,96.0
3486,71.0,0,120,1.0,96.0
3487,62.0,0,120,5.0,96.0
3488,84.0,0,360,1.0,96.0
3489,36.0,0,360,5.0,96.0
3490,60.0,0,360,5.0,96.0
3491,72.0,120,360,1.0,96.0
3492,48.0,480,120,5.0,96.0
3493,36.0,0,120,5.0,96.0
3494,31.0,0,120,5.0,94.0
3495,43.0,120,120,5.0,94.0
3496,76.0,0,360,1.0,96.0
3497,88.0,0,360,1.0,96.0
3498,64.0,0,360,2.0,96.0
3499,79.0,0,360,2.0,96.0
3500,67.0,0,360,2.0,96.0
3501,72.0,0,360,2.0,96.0
3502,60.0,0,360,2.0,96.0
3503,36.0,0,120,5.0,92.0
3504,48.0,120,120,5.0,92.0
3505,84.0,0,360,2.0,96.0
3506,43.0,0,120,5.0,91.0
3507,31.0,120,120,5.0,91.0
3508,84.0,0,360,1.0,89.0
3509,72.0,0,360,1.0,89.0
3510,76.0,0,360,2.0,89.0
3511,79.0,0,360,2.0,89.0
3512,48.0,120,360,5.0,89.0
3513,67.0,0,360,2.0,89.0
3514,60.0,0,360,2.0,89.0
3515,36.0,0,360,5.0,89.0
3516,64.0,0,360,2.0,89.0
3517,51.0,1920,78,4.0,46.0
3518,46.0,120,78,4.0,46.0
3519,43.0,120,78,4.0,46.0
3520,39.0,0,360,5.0,46.0
3521,46.0,120,78,4.0,46.0
3522,51.0,120,78,4.0,47.0
3523,46.0,120,78,4.0,47.0
3524,43.0,120,78,4.0,47.0
3525,39.0,0,360,5.0,47.0
3526,46.0,120,78,4.0,48.0
3527,39.0,60,48,5.0,48.0
3528,51.0,0,78,4.0,48.0
3529,46.0,120,78,4.0,48.0
3530,43.0,0,78,4.0,48.0
3531,46.0,120,78,4.0,49.0
3532,55.0,0,240,2.0,46.0
3533,70.0,0,0,2.0,47.0
3534,75.0,0,240,1.0,46.0
3535,63.0,120,240,1.0,46.0
3536,51.0,0,78,4.0,49.0
3537,46.0,120,78,4.0,49.0
3538,67.0,0,240,1.0,47.0
3539,63.0,120,240,2.0,47.0
3540,79.0,0,240,1.0,47.0
3541,51.0,0,78,4.0,50.0
3542,55.0,120,78,4.0,50.0
3543,75.0,0,240,1.0,47.0
3544,55.0,120,240,2.0,47.0
3545,70.0,0,240,2.0,47.0
3546,39.0,60,960,5.0,48.0
3547,63.0,0,240,1.0,47.0
3548,53.0,120,78,4.0,50.0
3549,50.0,120,78,4.0,50.0
3550,46.0,120,78,4.0,51.0
3551,34.0,0,360,5.0,50.0
3552,50.0,120,78,4.0,51.0
3553,53.0,120,78,4.0,51.0
3554,50.0,120,78,4.0,51.0
3555,46.0,120,78,4.0,52.0
3556,34.0,0,360,5.0,51.0
3557,50.0,120,78,4.0,52.0
3558,34.0,60,48,5.0,52.0
3559,53.0,0,78,4.0,52.0
3560,50.0,120,78,4.0,53.0
3561,46.0,120,78,4.0,53.0
3562,50.0,120,78,4.0,53.0
3563,74.0,0,0,2.0,52.0
3564,65.0,0,240,1.0,51.0
3565,58.0,0,240,2.0,51.0
3566,77.0,0,240,1.0,51.0
3567,53.0,120,78,4.0,53.0
3568,50.0,120,78,4.0,54.0
3569,80.0,0,240,1.0,52.0
3570,65.0,0,240,2.0,52.0
3571,68.0,0,240,1.0,52.0
3572,53.0,0,78,4.0,54.0
3573,56.0,120,78,4.0,54.0
3574,58.0,120,240,2.0,53.0
3575,65.0,0,240,1.0,53.0
3576,77.0,0,240,1.0,53.0
3577,74.0,0,240,2.0,53.0
3578,34.0,60,960,5.0,52.0
3579,63.0,0,78,4.0,53.0
3580,39.0,0,156,5.0,54.0
3581,55.0,0,156,4.0,54.0
3582,58.0,120,78,4.0,54.0
3583,55.0,0,78,4.0,54.0
3584,75.0,0,360,1.0,53.0
3585,67.0,120,360,2.0,53.0
3586,43.0,0,156,4.0,55.0
3587,51.0,0,156,4.0,55.0
3588,46.0,120,156,4.0,55.0
3589,58.0,120,78,4.0,55.0
3590,63.0,0,78,4.0,55.0
3591,39.0,0,156,5.0,56.0
3592,58.0,120,78,4.0,55.0
3593,55.0,120,78,4.0,56.0
3594,67.0,120,360,2.0,55.0
3595,75.0,0,360,1.0,55.0
3596,43.0,0,156,4.0,56.0
3597,51.0,0,156,4.0,56.0
3598,46.0,0,156,4.0,56.0
3599,58.0,120,78,4.0,56.0
3600,75.0,0,48,1.0,56.0
3601,67.0,60,48,2.0,56.0
3602,63.0,0,78,4.0,56.0
3603,58.0,120,78,4.0,57.0
3604,55.0,120,78,4.0,57.0
3605,75.0,60,360,1.0,56.0
3606,67.0,0,360,2.0,56.0
3607,58.0,120,78,4.0,57.0
3608,51.0,0,240,5.0,57.0
3609,77.0,60,60,1.0,57.0
3610,39.0,0,240,5.0,57.0
3611,63.0,60,78,4.0,58.0
3612,75.0,0,120,1.0,58.0
3613,58.0,0,78,4.0,58.0
3614,74.0,120,120,1.0,58.0
3615,55.0,0,240,5.0,58.0
3616,43.0,0,240,5.0,58.0
3617,63.0,0,78,4.0,58.0
3618,75.0,120,120,1.0,58.0
3619,67.0,120,78,4.0,59.0
3620,51.0,0,240,5.0,58.0
3621,39.0,0,240,5.0,58.0
3622,79.0,0,120,1.0,59.0
3623,65.0,0,78,4.0,59.0
3624,34.0,0,156,5.0,59.0
3625,46.0,120,156,4.0,59.0
3626,62.0,120,78,4.0,59.0
3627,58.0,0,78,4.0,60.0
3628,77.0,0,360,1.0,59.0
3629,46.0,120,156,4.0,59.0
3630,53.0,0,156,4.0,59.0
3631,50.0,0,156,4.0,59.0
3632,62.0,120,78,4.0,60.0
3633,65.0,0,78,4.0,60.0
3634,34.0,0,156,5.0,60.0
3635,62.0,120,78,4.0,61.0
3636,58.0,0,78,4.0,61.0
3637,77.0,120,360,1.0,60.0
3638,46.0,0,156,4.0,61.0
3639,53.0,0,156,4.0,61.0
3640,50.0,120,156,4.0,61.0
3641,62.0,120,78,4.0,62.0
3642,77.0,60,48,1.0,62.0
3643,65.0,0,78,4.0,62.0
3644,62.0,120,78,4.0,62.0
3645,58.0,120,78,4.0,63.0
3646,77.0,60,360,1.0,62.0
3647,62.0,120,78,4.0,63.0
3648,34.0,0,240,5.0,62.0
3649,46.0,0,240,5.0,62.0
3650,79.0,60,60,1.0,63.0
3651,77.0,0,120,1.0,63.0
3652,65.0,0,127,1.0,63.0
3653,38.0,0,240,5.0,62.0
3654,76.0,0,120,1.0,63.0
3655,50.0,60,240,5.0,62.0
3656,64.0,120,127,1.0,54.0
3657,77.0,0,120,1.0,63.0
3658,65.0,120,127,1.0,54.0
3659,46.0,0,240,5.0,63.0
3660,34.0,0,240,5.0,63.0
3661,80.0,120,120,1.0,63.0
3662,68.0,0,127,1.0,54.0
3663,51.0,0,120,4.0,64.0
3664,67.0,0,240,1.0,64.0
3665,79.0,0,240,1.0,64.0
3666,75.0,120,240,4.0,64.0
3667,63.0,0,240,4.0,64.0
3668,51.0,120,120,4.0,66.0
3669,55.0,0,120,4.0,66.0
3670,39.0,0,240,5.0,64.0
3671,68.0,0,120,1.0,67.0
3672,65.0,0,120,4.0,67.0
3673,77.0,0,120,4.0,67.0
3674,53.0,0,120,4.0,67.0
3675,56.0,120,120,4.0,67.0
3676,80.0,0,120,1.0,67.0
3677,51.0,0,180,5.0,67.0
3678,67.0,0,120,4.0,69.0
3679,79.0,0,120,4.0,69.0
3680,58.0,0,120,4.0,69.0
3681,55.0,0,120,4.0,69.0
3682,70.0,0,120,1.0,69.0
3683,51.0,60,60,5.0,70.0
3684,82.0,120,120,1.0,69.0
3685,68.0,0,120,4.0,70.0
3686,72.0,0,120,1.0,70.0
3687,84.0,0,120,1.0,70.0
3688,56.0,60,120,4.0,70.0
3689,80.0,0,120,4.0,70.0
3690,60.0,0,120,4.0,70.0
3691,51.0,120,0,5.0,73.0
3692,86.0,120,120,1.0,72.0
3693,74.0,0,120,1.0,72.0
3694,62.0,0,120,4.0,72.0
3695,70.0,0,120,4.0,72.0
3696,82.0,0,120,4.0,72.0
3697,58.0,0,120,4.0,72.0
3698,87.0,0,120,1.0,73.0
3699,63.0,0,120,4.0,73.0
3700,60.0,0,0,4.0,75.0
3701,72.0,0,120,4.0,73.0
3702,84.0,0,120,4.0,73.0
3703,75.0,0,120,1.0,73.0
3704,72.0,0,120,1.0,75.0
3705,51.0,0,0,5.0,78.0
3706,84.0,0,120,1.0,75.0
3707,56.0,120,120,4.0,75.0
3708,68.0,0,120,4.0,75.0
3709,80.0,0,120,4.0,75.0
3710,67.0,0,480,4.0,78.0
3711,79.0,0,480,4.0,78.0
3712,58.0,0,480,4.0,78.0
3713,55.0,0,480,4.0,78.0
3714,82.0,0,480,1.0,78.0
3715,70.0,120,480,1.0,78.0
3716,55.0,0,240,4.0,87.0
3717,75.0,480,240,4.0,87.0
3718,51.0,0,240,4.0,87.0
3719,39.0,0,240,5.0,87.0
3720,79.0,0,240,1.0,87.0
3721,67.0,0,240,1.0,87.0
3722,63.0,0,240,4.0,87.0
3723,51.0,360,120,4.0,94.0
3724,39.0,0,120,5.0,94.0
3725,55.0,0,120,4.0,94.0
3726,79.0,0,120,1.0,94.0
3727,67.0,0,120,1.0,94.0
3728,29.0,120,240,5.0,101.0
3729,65.0,0,240,1.0,101.0
3730,77.0,0,240,1.0,101.0
3731,50.0,0,240,4.0,101.0
3732,53.0,240,0,4.0,99.0
3733,46.0,0,240,4.0,101.0
3734,41.0,0,180,5.0,99.0
3735,53.0,180,0,4.0,97.0
3736,50.0,0,180,4.0,99.0
3737,58.0,0,180,4.0,99.0
3738,82.0,0,180,1.0,99.0
3739,70.0,0,180,1.0,99.0
3740,41.0,0,60,5.0,97.0
3741,50.0,0,60,4.0,97.0
3742,58.0,0,60,4.0,97.0
3743,86.0,0,60,1.0,97.0
3744,74.0,0,60,1.0,97.0
3745,57.0,0,120,4.0,97.0
3746,89.0,60,120,1.0,97.0
3747,48.0,0,120,4.0,97.0
3748,51.0,0,120,4.0,97.0
3749,77.0,0,120,1.0,97.0
3750,29.0,0,120,5.0,97.0
3751,89.0,0,120,1.0,92.0
3752,77.0,240,120,1.0,92.0
3753,51.0,0,120,4.0,92.0
3754,48.0,0,120,4.0,92.0
3755,57.0,0,120,4.0,92.0
3756,41.0,0,120,5.0,92.0
3757,82.0,0,360,1.0,96.0
3758,70.0,0,360,1.0,96.0
3759,58.0,0,720,4.0,96.0
3760,34.0,0,720,5.0,96.0
3761,46.0,240,720,5.0,96.0
3762,36.0,0,240,5.0,55.0
3763,48.0,0,240,5.0,55.0
3764,60.0,720,240,4.0,55.0
3765,61.0,0,120,4.0,37.0
3766,56.0,120,120,4.0,37.0
3767,53.0,120,120,4.0,37.0
3768,37.0,0,0,5.0,35.0
3769,49.0,0,0,5.0,35.0
3770,73.0,120,0,1.0,35.0
3771,56.0,120,120,4.0,38.0
3772,61.0,0,120,4.0,38.0
3773,56.0,120,120,4.0,38.0
3774,53.0,120,120,4.0,39.0
3775,56.0,120,120,4.0,39.0
3776,49.0,60,0,5.0,37.0
3777,37.0,0,0,5.0,37.0
3778,73.0,0,0,1.0,37.0
3779,61.0,0,120,4.0,40.0
3780,56.0,120,120,4.0,40.0
3781,53.0,120,120,4.0,40.0
3782,73.0,0,0,1.0,38.0
3783,56.0,120,120,4.0,41.0
3784,61.0,120,120,4.0,41.0
3785,75.0,120,120,1.0,38.0
3786,63.0,0,120,4.0,41.0
3787,77.0,120,120,1.0,39.0
3788,65.0,0,120,4.0,42.0
3789,79.0,0,120,1.0,39.0
3790,67.0,120,120,4.0,42.0
3791,68.0,120,120,4.0,42.0
3792,63.0,120,120,4.0,43.0
3793,60.0,120,120,4.0,43.0
3794,80.0,0,480,1.0,40.0
3795,44.0,0,480,5.0,40.0
3796,32.0,0,480,5.0,40.0
3797,63.0,120,120,4.0,43.0
3798,68.0,0,120,4.0,44.0
3799,63.0,120,120,4.0,44.0
3800,80.0,120,360,1.0,41.0
3801,60.0,120,120,4.0,45.0
3802,32.0,0,360,5.0,41.0
3803,44.0,0,360,5.0,41.0
3804,80.0,0,0,1.0,42.0
3805,44.0,60,0,5.0,42.0
3806,32.0,0,0,5.0,42.0
3807,63.0,120,120,4.0,45.0
3808,68.0,0,120,4.0,44.0
3809,63.0,120,120,4.0,46.0
3810,60.0,120,120,4.0,47.0
3811,63.0,120,120,4.0,48.0
3812,80.0,120,0,1.0,44.0
3813,68.0,0,120,4.0,50.0
3814,79.0,120,120,1.0,44.0
3815,67.0,0,120,4.0,51.0
3816,65.0,120,120,4.0,51.0
3817,77.0,0,120,1.0,45.0
3818,63.0,120,120,4.0,55.0
3819,75.0,0,120,1.0,45.0
3820,68.0,0,0,2.0,50.0
3821,65.0,480,0,2.0,50.0
3822,74.0,0,0,1.0,50.0
3823,53.0,0,480,4.0,44.0
3824,34.0,0,0,5.0,50.0
3825,46.0,0,0,5.0,50.0
3826,56.0,0,0,4.0,50.0
3827,62.0,0,0,4.0,50.0
3828,74.0,0,0,1.0,51.0
3829,68.0,0,0,2.0,51.0
3830,65.0,0,0,2.0,51.0
3831,53.0,0,0,4.0,51.0
3832,75.0,40,40,1.0,53.0
3833,74.0,40,40,1.0,54.0
3834,72.0,40,60,1.0,55.0
3835,74.0,60,60,1.0,58.0
3836,47.0,0,240,5.0,51.0
3837,35.0,240,240,5.0,51.0
3838,56.0,0,240,4.0,51.0
3839,62.0,0,240,4.0,51.0
3840,67.0,0,120,2.0,60.0
3841,75.0,60,120,1.0,60.0
3842,51.0,0,240,4.0,60.0
3843,63.0,0,240,4.0,60.0
3844,55.0,0,240,4.0,60.0
3845,48.0,240,0,5.0,59.0
3846,36.0,0,0,5.0,59.0
3847,51.0,0,120,4.0,59.0
3848,55.0,0,120,4.0,59.0
3849,75.0,0,120,1.0,59.0
3850,67.0,0,120,2.0,59.0
3851,63.0,0,120,4.0,59.0
3852,75.0,0,120,1.0,61.0
3853,48.0,0,120,5.0,61.0
3854,51.0,480,120,4.0,61.0
3855,55.0,0,120,4.0,61.0
3856,67.0,0,120,2.0,61.0
3857,36.0,0,120,5.0,61.0
3858,77.0,120,120,1.0,63.0
3859,63.0,0,360,2.0,66.0
3860,75.0,0,360,2.0,66.0
3861,51.0,0,360,4.0,66.0
3862,55.0,0,360,4.0,66.0
3863,48.0,0,360,5.0,66.0
3864,36.0,0,360,5.0,66.0
3865,67.0,120,360,1.0,66.0
3866,79.0,0,360,1.0,66.0
3867,79.0,420,60,1.0,67.0
3868,67.0,0,60,1.0,67.0
3869,51.0,0,60,4.0,67.0
3870,55.0,0,60,4.0,67.0
3871,75.0,0,60,2.0,67.0
3872,63.0,0,0,2.0,68.0
3873,36.0,0,60,5.0,67.0
3874,48.0,0,60,5.0,67.0
3875,75.0,0,360,2.0,68.0
3876,29.0,0,360,5.0,68.0
3877,81.0,0,360,1.0,68.0
3878,69.0,60,360,1.0,68.0
3879,41.0,0,360,5.0,68.0
3880,51.0,0,360,4.0,68.0
3881,60.0,0,360,4.0,68.0
3882,41.0,420,60,5.0,69.0
3883,51.0,0,60,4.0,69.0
3884,29.0,0,60,5.0,69.0
3885,63.0,0,60,2.0,69.0
3886,75.0,0,60,2.0,69.0
3887,60.0,0,60,4.0,69.0
3888,69.0,0,60,1.0,69.0
3889,81.0,0,60,1.0,69.0
3890,62.0,80,0,3.0,62.0
3891,46.0,0,240,5.0,69.0
3892,34.0,0,240,5.0,69.0
3893,65.0,80,80,3.0,63.0
3894,58.0,0,240,5.0,69.0
3895,50.0,0,240,5.0,69.0
3896,70.0,0,80,3.0,63.0
3897,65.0,80,80,3.0,63.0
3898,53.0,0,180,5.0,70.0
3899,41.0,80,180,5.0,70.0
3900,70.0,0,480,1.0,62.0
3901,74.0,60,480,2.0,73.0
3902,62.0,80,80,3.0,64.0
3903,50.0,0,60,5.0,71.0
3904,82.0,0,480,1.0,73.0
3905,38.0,20,60,5.0,71.0
3906,58.0,0,80,3.0,64.0
3907,63.0,80,80,3.0,64.0
3908,67.0,80,80,3.0,65.0
3909,46.0,60,240,5.0,71.0
3910,34.0,0,240,5.0,71.0
3911,70.0,80,80,3.0,65.0
3912,67.0,80,80,3.0,65.0
3913,63.0,80,80,3.0,66.0
3914,44.0,0,240,5.0,72.0
3915,32.0,0,255,5.0,72.0
3916,58.0,80,80,3.0,66.0
3917,63.0,80,80,3.0,66.0
3918,67.0,80,80,3.0,66.0
3919,82.0,0,480,1.0,85.0
3920,43.0,0,240,5.0,73.0
3921,31.0,0,240,5.0,73.0
3922,58.0,0,80,3.0,67.0
3923,63.0,80,80,3.0,67.0
3924,87.0,80,180,1.0,77.0
3925,82.0,20,60,1.0,78.0
3926,67.0,80,80,3.0,67.0
3927,58.0,60,80,3.0,68.0
3928,62.0,80,80,3.0,68.0
3929,65.0,80,80,3.0,68.0
3930,79.0,0,240,1.0,78.0
3931,70.0,0,80,3.0,69.0
3932,39.0,80,120,5.0,76.0
3933,51.0,0,120,5.0,76.0
3934,65.0,80,80,3.0,69.0
3935,53.0,40,60,5.0,77.0
3936,41.0,0,60,5.0,76.0
3937,55.0,20,60,5.0,77.0
3938,75.0,0,240,1.0,79.0
3939,62.0,40,80,3.0,69.0
3940,43.0,0,60,5.0,77.0
3941,58.0,0,80,3.0,70.0
3942,62.0,80,80,3.0,70.0
3943,65.0,80,80,3.0,70.0
3944,70.0,0,240,1.0,80.0
3945,56.0,0,240,5.0,77.0
3946,44.0,60,240,5.0,77.0
3947,70.0,0,80,3.0,70.0
3948,41.0,80,120,5.0,78.0
3949,53.0,0,120,5.0,78.0
3950,65.0,80,80,3.0,71.0
3951,62.0,80,80,3.0,71.0
3952,50.0,20,60,5.0,79.0
3953,38.0,0,60,5.0,79.0
3954,58.0,0,80,3.0,71.0
3955,62.0,80,80,3.0,72.0
3956,65.0,80,80,3.0,72.0
3957,34.0,60,240,5.0,79.0
3958,46.0,0,240,5.0,79.0
3959,70.0,80,80,3.0,72.0
3960,65.0,80,80,3.0,73.0
3961,62.0,80,80,3.0,73.0
3962,44.0,0,240,5.0,80.0
3963,32.0,0,240,5.0,80.0
3964,63.0,0,80,3.0,73.0
3965,67.0,80,80,3.0,74.0
3966,82.0,0,480,1.0,93.0
3967,31.0,80,240,5.0,81.0
3968,70.0,80,80,3.0,74.0
3969,43.0,0,240,5.0,81.0
3970,87.0,0,180,1.0,83.0
3971,51.0,0,180,5.0,83.0
3972,63.0,0,180,5.0,83.0
3973,75.0,80,180,2.0,83.0
3974,82.0,180,60,1.0,81.0
3975,70.0,0,60,2.0,81.0
3976,58.0,0,60,5.0,81.0
3977,46.0,0,60,5.0,81.0
3978,67.0,0,120,2.0,80.0
3979,79.0,60,120,1.0,80.0
3980,43.0,0,120,5.0,80.0
3981,55.0,0,120,5.0,80.0
3982,51.0,0,120,5.0,78.0
3983,39.0,240,120,5.0,78.0
3984,63.0,0,120,2.0,78.0
3985,75.0,0,120,1.0,78.0
3986,70.0,0,240,1.0,65.0
3987,34.0,0,240,5.0,65.0
3988,46.0,0,240,5.0,65.0
3989,58.0,240,240,2.0,65.0
3990,53.0,0,240,4.0,30.0
3991,50.0,0,240,4.0,30.0
3992,58.0,240,240,4.0,30.0
3993,69.0,120,120,1.0,31.0
3994,46.0,0,240,5.0,32.0
3995,34.0,120,240,5.0,32.0
3996,70.0,0,360,1.0,32.0
3997,58.0,0,240,4.0,34.0
3998,69.0,120,120,1.0,34.0
3999,50.0,240,240,4.0,34.0
4000,53.0,0,240,4.0,34.0
4001,70.0,120,120,1.0,35.0
4002,69.0,120,120,1.0,36.0
4003,46.0,0,240,5.0,35.0
4004,34.0,0,240,5.0,35.0
4005,70.0,120,120,1.0,37.0
4006,53.0,0,240,4.0,37.0
4007,50.0,0,240,4.0,37.0
4008,58.0,0,240,4.0,37.0
4009,69.0,120,120,1.0,38.0
4010,70.0,120,120,1.0,39.0
4011,72.0,120,120,1.0,39.0
4012,74.0,120,120,1.0,40.0
4013,75.0,120,120,1.0,41.0
4014,77.0,120,120,1.0,42.0
4015,73.0,120,120,1.0,43.0
4016,74.0,120,120,1.0,44.0
4017,76.0,120,120,1.0,44.0
4018,77.0,120,120,1.0,47.0
4019,46.0,120,120,4.0,45.0
4020,79.0,0,120,1.0,45.0
4021,80.0,120,120,1.0,43.0
4022,48.0,0,120,4.0,43.0
4023,77.0,120,120,1.0,41.0
4024,50.0,0,120,4.0,41.0
4025,63.0,0,78,2.0,42.0
4026,58.0,120,78,2.0,42.0
4027,51.0,120,240,4.0,42.0
4028,39.0,0,240,5.0,42.0
4029,55.0,120,78,2.0,43.0
4030,58.0,120,78,2.0,43.0
4031,46.0,0,240,4.0,43.0
4032,43.0,0,240,4.0,43.0
4033,75.0,0,480,1.0,42.0
4034,51.0,0,240,4.0,43.0
4035,63.0,0,78,2.0,44.0
4036,58.0,120,78,2.0,44.0
4037,39.0,120,240,5.0,44.0
4038,55.0,0,78,2.0,45.0
4039,75.0,0,360,1.0,44.0
4040,58.0,120,78,2.0,45.0
4041,51.0,120,240,4.0,45.0
4042,43.0,0,240,4.0,45.0
4043,75.0,0,0,1.0,46.0
4044,46.0,0,240,4.0,45.0
4045,63.0,60,78,2.0,46.0
4046,58.0,120,78,2.0,46.0
4047,55.0,0,78,2.0,47.0
4048,58.0,120,78,2.0,47.0
4049,77.0,80,40,1.0,47.0
4050,39.0,0,240,5.0,47.0
4051,51.0,120,240,4.0,47.0
4052,63.0,40,78,2.0,47.0
4053,75.0,0,120,1.0,47.0
4054,58.0,0,78,2.0,48.0
4055,55.0,0,240,4.0,47.0
4056,43.0,0,240,5.0,47.0
4057,74.0,120,120,1.0,48.0
4058,63.0,120,78,2.0,48.0
4059,75.0,0,120,1.0,48.0
4060,67.0,120,78,2.0,49.0
4061,51.0,0,240,4.0,48.0
4062,79.0,0,120,1.0,49.0
4063,39.0,0,240,5.0,48.0
4064,65.0,120,78,2.0,49.0
4065,62.0,120,78,2.0,50.0
4066,46.0,0,0,4.0,50.0
4067,34.0,0,240,5.0,49.0
4068,58.0,0,78,2.0,50.0
4069,62.0,120,78,2.0,51.0
4070,53.0,120,240,4.0,50.0
4071,50.0,0,240,4.0,50.0
4072,77.0,0,0,1.0,51.0
4073,65.0,0,78,2.0,51.0
4074,62.0,120,78,2.0,52.0
4075,34.0,120,240,5.0,51.0
4076,58.0,120,78,2.0,52.0
4077,62.0,120,78,2.0,53.0
4078,46.0,0,240,4.0,52.0
4079,53.0,0,240,4.0,52.0
4080,50.0,0,240,4.0,52.0
4081,77.0,60,0,1.0,53.0
4082,65.0,0,78,2.0,53.0
4083,62.0,120,78,2.0,54.0
4084,58.0,0,78,2.0,54.0
4085,62.0,120,78,2.0,54.0
4086,77.0,40,0,1.0,55.0
4087,79.0,80,40,1.0,55.0
4088,46.0,0,240,4.0,54.0
4089,34.0,120,240,5.0,54.0
4090,65.0,0,120,2.0,55.0
4091,64.0,120,120,2.0,55.0
4092,50.0,0,240,4.0,55.0
4093,76.0,0,120,1.0,55.0
4094,38.0,0,240,5.0,55.0
4095,65.0,0,120,2.0,56.0
4096,77.0,0,120,1.0,56.0
4097,46.0,120,240,4.0,56.0
4098,34.0,0,240,5.0,56.0
4099,80.0,0,120,1.0,56.0
4100,68.0,120,120,2.0,56.0
4101,51.0,0,78,4.0,57.0
4102,39.0,120,78,5.0,57.0
4103,79.0,0,96,1.0,57.0
4104,67.0,0,96,2.0,57.0
4105,46.0,0,78,4.0,57.0
4106,34.0,0,78,5.0,57.0
4107,70.0,0,96,2.0,57.0
4108,82.0,120,96,1.0,57.0
4109,43.0,0,78,4.0,58.0
4110,31.0,120,78,5.0,58.0
4111,82.0,0,96,1.0,58.0
4112,70.0,0,96,2.0,58.0
4113,46.0,120,78,4.0,58.0
4114,34.0,0,78,5.0,58.0
4115,82.0,0,96,1.0,58.0
4116,70.0,0,96,2.0,58.0
4117,51.0,0,78,4.0,59.0
4118,39.0,0,78,5.0,59.0
4119,82.0,120,96,1.0,59.0
4120,70.0,0,96,2.0,59.0
4121,34.0,0,78,5.0,59.0
4122,46.0,0,78,4.0,59.0
4123,82.0,0,96,1.0,59.0
4124,70.0,120,96,2.0,59.0
4125,31.0,0,78,5.0,60.0
4126,43.0,0,78,4.0,60.0
4127,82.0,0,96,1.0,60.0
4128,70.0,120,96,2.0,60.0
4129,46.0,0,78,4.0,60.0
4130,34.0,0,78,5.0,60.0
4131,70.0,120,96,2.0,60.0
4132,82.0,0,96,1.0,60.0
4133,51.0,0,78,4.0,61.0
4134,39.0,0,78,5.0,61.0
4135,82.0,0,96,1.0,61.0
4136,70.0,120,96,2.0,61.0
4137,34.0,0,78,5.0,61.0
4138,46.0,0,78,4.0,61.0
4139,82.0,0,96,1.0,61.0
4140,70.0,120,96,2.0,61.0
4141,43.0,120,78,4.0,62.0
4142,31.0,0,78,5.0,62.0
4143,70.0,0,96,2.0,62.0
4144,82.0,0,96,1.0,62.0
4145,46.0,0,78,4.0,62.0
4146,34.0,0,78,5.0,62.0
4147,82.0,0,96,1.0,62.0
4148,70.0,120,96,2.0,62.0
4149,51.0,120,78,4.0,62.0
4150,39.0,0,78,5.0,62.0
4151,82.0,0,96,1.0,62.0
4152,70.0,0,96,2.0,62.0
4153,34.0,120,78,5.0,63.0
4154,46.0,0,78,4.0,63.0
4155,70.0,0,96,2.0,63.0
4156,82.0,0,96,1.0,63.0
4157,39.0,0,78,5.0,63.0
4158,51.0,120,78,4.0,63.0
4159,70.0,0,96,2.0,63.0
4160,82.0,0,96,1.0,63.0
4161,43.0,120,78,5.0,64.0
4162,55.0,0,78,4.0,64.0
4163,82.0,0,96,1.0,64.0
4164,70.0,0,96,2.0,64.0
4165,53.0,0,78,4.0,64.0
4166,41.0,0,78,5.0,64.0
4167,82.0,0,96,1.0,64.0
4168,70.0,120,96,2.0,64.0
4169,50.0,120,78,4.0,65.0
4170,38.0,0,78,5.0,65.0
4171,82.0,0,96,1.0,65.0
4172,70.0,0,96,2.0,65.0
4173,46.0,0,78,4.0,65.0
4174,34.0,0,78,5.0,65.0
4175,82.0,0,96,1.0,65.0
4176,70.0,120,96,2.0,65.0
4177,38.0,0,78,5.0,66.0
4178,50.0,120,78,4.0,66.0
4179,70.0,0,96,2.0,66.0
4180,82.0,0,96,1.0,66.0
4181,53.0,0,78,4.0,66.0
4182,41.0,0,78,5.0,66.0
4183,70.0,0,96,2.0,66.0
4184,82.0,120,96,1.0,66.0
4185,38.0,0,78,5.0,67.0
4186,50.0,0,78,4.0,67.0
4187,82.0,120,96,1.0,67.0
4188,70.0,0,96,2.0,67.0
4189,34.0,120,78,5.0,67.0
4190,46.0,0,78,4.0,67.0
4191,82.0,0,96,1.0,67.0
4192,70.0,0,96,2.0,67.0
4193,38.0,0,78,5.0,68.0
4194,50.0,0,78,4.0,68.0
4195,70.0,120,96,2.0,68.0
4196,82.0,0,96,1.0,68.0
4197,53.0,0,78,4.0,68.0
4198,41.0,120,78,5.0,68.0
4199,70.0,0,96,2.0,68.0
4200,82.0,0,96,1.0,68.0
4201,50.0,0,78,4.0,69.0
4202,38.0,0,78,5.0,69.0
4203,70.0,0,96,2.0,69.0
4204,82.0,120,96,1.0,69.0
4205,46.0,0,78,4.0,69.0
4206,34.0,0,78,5.0,69.0
4207,70.0,120,96,2.0,69.0
4208,82.0,0,96,1.0,69.0
4209,50.0,0,78,4.0,69.0
4210,38.0,120,78,5.0,69.0
4211,70.0,0,96,2.0,69.0
4212,82.0,0,96,1.0,69.0
4213,53.0,120,78,4.0,70.0
4214,41.0,0,78,5.0,70.0
4215,82.0,0,96,1.0,70.0
4216,70.0,0,96,2.0,70.0
4217,50.0,120,78,4.0,70.0
4218,38.0,0,78,5.0,70.0
4219,70.0,0,96,2.0,70.0
4220,82.0,0,96,1.0,70.0
4221,41.0,120,78,5.0,71.0
4222,53.0,0,78,4.0,71.0
4223,70.0,0,96,2.0,71.0
4224,82.0,0,96,1.0,71.0
4225,56.0,0,78,4.0,72.0
4226,44.0,0,78,5.0,72.0
4227,82.0,120,96,1.0,72.0
4228,70.0,0,96,2.0,72.0
4229,70.0,120,96,2.0,72.0
4230,82.0,0,96,1.0,72.0
4231,39.0,0,0,5.0,73.0
4232,55.0,0,0,4.0,73.0
4233,87.0,120,96,1.0,73.0
4234,75.0,0,96,2.0,73.0
4235,51.0,0,120,4.0,73.0
4236,75.0,0,96,2.0,73.0
4237,87.0,0,96,1.0,73.0
4238,56.0,0,120,4.0,73.0
4239,41.0,120,120,5.0,73.0
4240,51.0,0,0,4.0,74.0
4241,75.0,0,96,2.0,74.0
4242,87.0,120,96,1.0,74.0
4243,43.0,0,120,5.0,74.0
4244,58.0,0,120,4.0,74.0
4245,87.0,0,96,1.0,74.0
4246,75.0,0,96,2.0,74.0
4247,51.0,0,120,4.0,74.0
4248,60.0,120,120,4.0,74.0
4249,44.0,0,120,5.0,74.0
4250,75.0,0,96,2.0,75.0
4251,87.0,0,96,1.0,75.0
4252,51.0,0,120,4.0,75.0
4253,46.0,0,120,5.0,75.0
4254,62.0,120,120,4.0,75.0
4255,75.0,0,96,2.0,75.0
4256,87.0,120,96,1.0,75.0
4257,48.0,0,120,5.0,75.0
4258,51.0,0,120,4.0,75.0
4259,63.0,0,120,4.0,75.0
4260,87.0,120,96,1.0,75.0
4261,75.0,0,96,2.0,75.0
4262,51.0,0,120,4.0,75.0
4263,44.0,0,120,5.0,75.0
4264,60.0,0,120,4.0,75.0
4265,75.0,0,120,2.0,76.0
4266,87.0,0,120,1.0,76.0
4267,86.0,120,120,1.0,76.0
4268,74.0,0,120,2.0,76.0
4269,87.0,0,120,1.0,77.0
4270,75.0,120,120,2.0,77.0
4271,58.0,120,480,4.0,76.0
4272,51.0,0,480,4.0,76.0
4273,86.0,120,120,1.0,77.0
4274,43.0,0,480,5.0,76.0
4275,74.0,0,120,2.0,77.0
4276,75.0,0,120,2.0,78.0
4277,87.0,0,120,1.0,78.0
4278,74.0,120,120,2.0,78.0
4279,55.0,120,240,4.0,78.0
4280,58.0,120,0,4.0,79.0
4281,86.0,0,120,1.0,78.0
4282,39.0,0,240,5.0,78.0
4283,31.0,0,120,5.0,79.0
4284,43.0,0,120,5.0,79.0
4285,75.0,0,120,2.0,79.0
4286,61.0,0,120,4.0,79.0
4287,87.0,0,120,1.0,79.0
4288,31.0,0,60,5.0,79.0
4289,88.0,120,120,1.0,79.0
4290,58.0,0,60,4.0,79.0
4291,61.0,60,60,4.0,79.0
4292,76.0,0,120,2.0,79.0
4293,43.0,0,60,5.0,79.0
4294,56.0,60,156,4.0,80.0
4295,60.0,0,156,4.0,80.0
4296,77.0,0,156,1.0,80.0
4297,32.0,0,156,5.0,80.0
4298,44.0,0,156,5.0,80.0
4299,89.0,0,156,1.0,80.0
4300,77.0,0,144,1.0,86.0
4301,44.0,0,144,5.0,86.0
4302,60.0,0,144,4.0,86.0
4303,56.0,0,144,4.0,86.0
4304,89.0,0,144,1.0,86.0
4305,32.0,240,144,5.0,86.0
4306,56.0,0,48,4.0,81.0
4307,44.0,180,48,5.0,81.0
4308,32.0,0,48,5.0,81.0
4309,77.0,0,48,1.0,81.0
4310,89.0,0,48,1.0,81.0
4311,60.0,0,48,4.0,81.0
4312,34.0,0,156,5.0,81.0
4313,46.0,0,156,5.0,81.0
4314,80.0,60,156,2.0,81.0
4315,65.0,0,156,2.0,81.0
4316,68.0,0,156,2.0,81.0
4317,53.0,0,156,4.0,81.0
4318,56.0,0,156,4.0,81.0
4319,86.0,0,156,1.0,81.0
4320,74.0,0,156,1.0,81.0
4321,46.0,0,144,5.0,91.0
4322,56.0,0,144,4.0,91.0
4323,34.0,0,144,5.0,91.0
4324,53.0,0,144,4.0,91.0
4325,74.0,0,144,1.0,91.0
4326,86.0,0,144,1.0,91.0
4327,65.0,0,144,2.0,91.0
4328,68.0,0,144,2.0,91.0
4329,80.0,240,144,2.0,91.0
4330,56.0,180,48,4.0,83.0
4331,68.0,0,48,2.0,83.0
4332,65.0,0,48,2.0,83.0
4333,80.0,0,48,2.0,83.0
4334,86.0,0,48,1.0,83.0
4335,34.0,0,48,5.0,83.0
4336,46.0,0,48,5.0,83.0
4337,74.0,0,48,1.0,83.0
4338,53.0,0,48,4.0,83.0
4339,63.0,0,0,2.0,86.0
4340,67.0,60,120,2.0,90.0
4341,79.0,0,120,2.0,90.0
4342,87.0,0,120,1.0,90.0
4343,75.0,0,120,1.0,90.0
4344,51.0,0,120,4.0,90.0
4345,39.0,0,0,5.0,86.0
4346,55.0,120,0,4.0,86.0
4347,67.0,0,120,1.0,86.0
4348,75.0,0,120,2.0,86.0
4349,79.0,0,120,1.0,86.0
4350,51.0,0,120,4.0,86.0
4351,77.0,0,120,2.0,87.0
4352,53.0,0,120,4.0,87.0
4353,39.0,0,120,5.0,87.0
4354,56.0,0,120,4.0,87.0
4355,68.0,0,120,1.0,87.0
4356,80.0,0,120,1.0,87.0
4357,65.0,120,120,2.0,87.0
4358,82.0,0,120,1.0,88.0
4359,70.0,0,120,1.0,88.0
4360,79.0,120,120,2.0,88.0
4361,67.0,0,120,2.0,88.0
4362,39.0,0,0,5.0,89.0
4363,55.0,0,120,4.0,88.0
4364,58.0,0,120,4.0,88.0
4365,84.0,0,120,1.0,89.0
4366,72.0,120,120,1.0,89.0
4367,56.0,0,120,4.0,89.0
4368,60.0,0,120,4.0,89.0
4369,68.0,0,120,2.0,89.0
4370,51.0,0,0,5.0,91.0
4371,39.0,0,0,5.0,91.0
4372,80.0,0,120,2.0,89.0
4373,58.0,0,120,4.0,91.0
4374,70.0,0,120,2.0,91.0
4375,82.0,0,120,2.0,91.0
4376,86.0,0,120,1.0,91.0
4377,62.0,120,120,4.0,91.0
4378,74.0,0,120,1.0,91.0
4379,75.0,0,120,1.0,92.0
4380,87.0,0,120,1.0,92.0
4381,51.0,0,120,5.0,92.0
4382,63.0,0,120,4.0,92.0
4383,84.0,120,120,2.0,92.0
4384,72.0,0,120,2.0,92.0
4385,39.0,0,120,5.0,92.0
4386,60.0,0,0,4.0,93.0
4387,68.0,0,120,2.0,93.0
4388,80.0,0,120,2.0,93.0
4389,51.0,0,0,5.0,95.0
4390,39.0,0,0,5.0,95.0
4391,72.0,0,120,1.0,93.0
4392,84.0,120,120,1.0,93.0
4393,56.0,0,120,4.0,93.0
4394,58.0,0,480,4.0,95.0
4395,55.0,0,480,4.0,95.0
4396,82.0,0,480,1.0,95.0
4397,79.0,120,480,2.0,95.0
4398,67.0,0,480,2.0,95.0
4399,39.0,0,0,5.0,80.0
4400,70.0,0,480,1.0,95.0
4401,67.0,0,0,1.0,85.0
4402,79.0,240,0,1.0,85.0
4403,55.0,0,240,4.0,80.0
4404,51.0,0,240,4.0,80.0
4405,75.0,480,240,2.0,80.0
4406,63.0,0,240,2.0,80.0
4407,79.0,0,48,1.0,89.0
4408,67.0,180,48,1.0,89.0
4409,67.0,0,0,1.0,75.0
4410,79.0,720,0,1.0,75.0
4411,71.0,0,720,2.0,92.0
4412,74.0,60,720,2.0,92.0
4413,59.0,0,720,2.0,92.0
4414,62.0,0,720,2.0,92.0
4415,65.0,0,60,1.0,74.0
4416,77.0,60,60,1.0,74.0
4417,63.0,0,60,1.0,72.0
4418,75.0,60,60,1.0,72.0
4419,31.0,0,960,5.0,92.0
4420,43.0,0,960,5.0,92.0
4421,74.0,60,60,1.0,71.0
4422,55.0,0,960,4.0,92.0
4423,62.0,0,60,1.0,71.0
4424,50.0,0,960,4.0,92.0
4425,47.0,0,960,4.0,92.0
4426,55.0,0,156,4.0,70.0
4427,51.0,0,156,4.0,70.0
4428,48.0,0,156,5.0,70.0
4429,36.0,60,156,5.0,70.0
4430,75.0,0,240,1.0,70.0
4431,63.0,0,240,1.0,70.0
4432,60.0,0,156,4.0,72.0
4433,56.0,240,156,4.0,72.0
4434,32.0,0,156,5.0,72.0
4435,44.0,0,156,5.0,72.0
4436,80.0,0,180,2.0,72.0
4437,72.0,0,180,1.0,72.0
4438,84.0,0,180,1.0,72.0
4439,68.0,0,180,2.0,72.0
4440,65.0,0,60,2.0,69.0
4441,77.0,180,60,2.0,69.0
4442,68.0,0,60,1.0,69.0
4443,80.0,0,60,1.0,69.0
4444,63.0,60,120,2.0,68.0
4445,79.0,0,120,1.0,68.0
4446,67.0,0,120,1.0,68.0
4447,75.0,0,120,2.0,68.0
4448,34.0,0,156,5.0,68.0
4449,46.0,0,156,5.0,68.0
4450,55.0,0,156,4.0,68.0
4451,58.0,0,156,4.0,68.0
4452,77.0,0,120,1.0,64.0
4453,62.0,0,120,2.0,64.0
4454,74.0,0,120,2.0,64.0
4455,65.0,0,120,1.0,64.0
4456,34.0,240,156,5.0,64.0
4457,58.0,0,156,4.0,64.0
4458,46.0,0,156,5.0,64.0
4459,74.0,0,720,2.0,79.0
4460,67.0,240,720,1.0,79.0
4461,79.0,0,720,1.0,79.0
4462,59.0,0,720,2.0,79.0
4463,62.0,0,720,2.0,79.0
4464,71.0,0,720,2.0,79.0
4465,67.0,0,60,1.0,64.0
4466,79.0,720,60,1.0,64.0
4467,77.0,0,60,1.0,63.0
4468,65.0,60,60,1.0,63.0
4469,63.0,0,60,1.0,61.0
4470,75.0,60,60,1.0,61.0
4471,55.0,0,960,4.0,79.0
4472,50.0,0,960,4.0,79.0
4473,31.0,0,960,5.0,79.0
4474,43.0,0,960,5.0,79.0
4475,62.0,60,60,1.0,59.0
4476,74.0,0,60,1.0,59.0
4477,47.0,0,960,4.0,79.0
4478,48.0,0,240,2.0,58.0
4479,55.0,0,240,4.0,58.0
4480,51.0,0,240,4.0,58.0
4481,36.0,0,240,5.0,58.0
4482,63.0,0,240,1.0,58.0
4483,75.0,0,0,1.0,68.0
4484,48.0,60,240,5.0,58.0
4485,51.0,0,240,4.0,68.0
4486,60.0,0,240,4.0,68.0
4487,55.0,0,240,4.0,68.0
4488,87.0,0,480,1.0,68.0
4489,84.0,240,480,2.0,68.0
4490,72.0,0,480,2.0,68.0
4491,32.0,0,240,5.0,63.0
4492,44.0,240,240,5.0,63.0
4493,74.0,0,120,1.0,60.0
4494,86.0,0,120,1.0,60.0
4495,70.0,0,120,2.0,60.0
4496,82.0,0,120,2.0,60.0
4497,72.0,0,78,1.0,58.0
4498,68.0,0,78,2.0,58.0
4499,80.0,0,78,2.0,58.0
4500,84.0,120,78,1.0,58.0
4501,60.0,0,240,4.0,60.0
4502,51.0,0,240,4.0,60.0
4503,56.0,240,240,4.0,60.0
4504,80.0,0,120,2.0,57.0
4505,68.0,0,120,2.0,57.0
4506,72.0,0,120,1.0,57.0
4507,84.0,120,120,1.0,57.0
4508,67.0,0,78,2.0,55.0
4509,79.0,0,78,2.0,55.0
4510,70.0,0,78,1.0,55.0
4511,82.0,120,78,1.0,55.0
4512,46.0,0,240,5.0,57.0
4513,34.0,0,240,5.0,57.0
4514,68.0,0,78,1.0,54.0
4515,80.0,0,78,1.0,54.0
4516,77.0,0,78,2.0,54.0
4517,65.0,0,78,2.0,54.0
4518,63.0,120,78,2.0,52.0
4519,79.0,0,78,1.0,52.0
4520,67.0,0,78,1.0,52.0
4521,75.0,0,78,2.0,52.0
4522,55.0,120,240,4.0,54.0
4523,58.0,0,240,4.0,54.0
4524,51.0,0,240,4.0,54.0
4525,82.0,0,120,1.0,51.0
4526,79.0,0,120,2.0,51.0
4527,67.0,0,120,2.0,51.0
4528,70.0,0,120,1.0,51.0
4529,80.0,0,78,1.0,49.0
4530,68.0,120,78,1.0,49.0
4531,77.0,0,78,2.0,49.0
4532,65.0,0,78,2.0,49.0
4533,46.0,0,240,5.0,51.0
4534,34.0,120,240,5.0,51.0
4535,63.0,0,78,2.0,47.0
4536,79.0,0,78,1.0,47.0
4537,75.0,120,78,2.0,47.0
4538,67.0,0,78,1.0,47.0
4539,62.0,0,78,2.0,46.0
4540,74.0,0,78,2.0,46.0
4541,77.0,120,78,1.0,46.0
4542,65.0,0,78,1.0,46.0
4543,56.0,0,240,4.0,47.0
4544,58.0,120,0,4.0,48.0
4545,75.0,0,78,1.0,48.0
4546,63.0,0,78,1.0,48.0
4547,70.0,120,78,2.0,47.0
4548,82.0,0,78,1.0,47.0
4549,55.0,0,240,4.0,48.0
4550,39.0,0,240,5.0,48.0
4551,51.0,0,240,5.0,48.0
4552,79.0,0,78,1.0,47.0
4553,67.0,120,78,2.0,47.0
4554,82.0,120,78,1.0,47.0
4555,70.0,0,78,2.0,47.0
4556,87.0,120,78,1.0,47.0
4557,75.0,0,78,2.0,47.0
4558,82.0,0,78,1.0,46.0
4559,70.0,120,78,2.0,46.0
4560,79.0,120,78,1.0,46.0
4561,67.0,0,78,2.0,46.0
4562,70.0,0,78,2.0,46.0
4563,82.0,120,78,1.0,46.0
4564,74.0,0,78,2.0,46.0
4565,86.0,0,78,1.0,46.0
4566,82.0,120,78,1.0,46.0
4567,70.0,0,78,2.0,46.0
4568,80.0,120,78,1.0,45.0
4569,68.0,0,78,2.0,45.0
4570,82.0,120,78,1.0,45.0
4571,70.0,0,78,2.0,45.0
4572,62.0,0,480,4.0,46.0
4573,53.0,0,0,4.0,45.0
4574,58.0,0,0,4.0,45.0
4575,65.0,0,480,4.0,46.0
4576,46.0,0,0,5.0,54.0
4577,86.0,120,78,1.0,45.0
4578,74.0,0,78,2.0,45.0
4579,82.0,120,78,1.0,45.0
4580,70.0,0,78,2.0,45.0
4581,68.0,0,78,2.0,44.0
4582,80.0,120,78,1.0,44.0
4583,65.0,0,360,4.0,45.0
4584,62.0,0,360,4.0,45.0
4585,70.0,0,78,2.0,44.0
4586,82.0,120,78,1.0,44.0
4587,65.0,0,60,4.0,44.0
4588,58.0,0,60,4.0,44.0
4589,62.0,60,60,4.0,44.0
4590,53.0,0,60,4.0,44.0
4591,46.0,0,60,5.0,44.0
4592,75.0,0,78,2.0,44.0
4593,87.0,0,78,1.0,44.0
4594,70.0,120,78,2.0,44.0
4595,82.0,0,78,1.0,44.0
4596,67.0,0,240,4.0,44.0
4597,63.0,0,240,4.0,44.0
4598,55.0,0,240,4.0,44.0
4599,58.0,0,240,4.0,44.0
4600,51.0,60,240,5.0,49.0
4601,67.0,0,78,2.0,44.0
4602,79.0,0,78,1.0,44.0
4603,82.0,120,78,1.0,43.0
4604,70.0,0,78,2.0,43.0
4605,75.0,120,78,2.0,43.0
4606,87.0,0,78,1.0,43.0
4607,70.0,120,78,2.0,43.0
4608,82.0,0,78,1.0,43.0
4609,58.0,120,480,5.0,59.0
4610,79.0,120,78,1.0,43.0
4611,67.0,0,78,2.0,43.0
4612,55.0,0,180,5.0,48.0
4613,82.0,0,78,1.0,42.0
4614,70.0,120,78,2.0,42.0
4615,51.0,60,60,5.0,47.0
4616,86.0,0,78,1.0,42.0
4617,74.0,0,78,2.0,42.0
4618,70.0,0,78,2.0,42.0
4619,82.0,120,78,1.0,42.0
4620,68.0,120,78,2.0,42.0
4621,80.0,0,78,1.0,42.0
4622,82.0,120,78,1.0,42.0
4623,70.0,0,78,2.0,42.0
4624,58.0,0,480,4.0,42.0
4625,56.0,0,480,4.0,42.0
4626,65.0,0,0,4.0,41.0
4627,62.0,0,0,4.0,41.0
4628,53.0,0,0,4.0,41.0
4629,46.0,0,480,5.0,47.0
4630,86.0,0,78,1.0,41.0
4631,74.0,0,78,2.0,41.0
4632,70.0,120,78,2.0,41.0
4633,82.0,0,78,1.0,41.0
4634,68.0,120,78,2.0,41.0
4635,80.0,0,78,1.0,41.0
4636,56.0,0,360,4.0,41.0
4637,58.0,120,360,4.0,41.0
4638,46.0,0,360,5.0,46.0
4639,82.0,120,78,1.0,41.0
4640,70.0,0,78,2.0,41.0
4641,58.0,0,0,4.0,40.0
4642,53.0,0,60,4.0,41.0
4643,46.0,60,60,5.0,46.0
4644,62.0,0,60,4.0,41.0
4645,56.0,0,60,4.0,41.0
4646,65.0,0,60,4.0,41.0
4647,51.0,0,78,4.0,40.0
4648,55.0,60,78,4.0,40.0
4649,39.0,0,78,5.0,45.0
4650,63.0,0,78,4.0,40.0
4651,46.0,0,78,5.0,40.0
4652,58.0,120,78,4.0,40.0
4653,43.0,0,78,5.0,40.0
4654,55.0,120,78,4.0,40.0
4655,46.0,120,78,5.0,40.0
4656,58.0,0,78,4.0,40.0
4657,79.0,0,480,2.0,40.0
4658,67.0,0,480,2.0,40.0
4659,87.0,0,480,1.0,40.0
4660,75.0,0,480,2.0,40.0
4661,51.0,0,78,5.0,40.0
4662,63.0,120,78,4.0,40.0
4663,58.0,0,78,4.0,39.0
4664,46.0,120,78,5.0,39.0
4665,43.0,120,78,5.0,39.0
4666,55.0,0,78,4.0,39.0
4667,46.0,120,78,5.0,39.0
4668,58.0,0,78,4.0,39.0
4669,34.0,0,78,5.0,39.0
4670,62.0,120,78,4.0,39.0
4671,50.0,0,78,4.0,39.0
4672,58.0,0,78,4.0,38.0
4673,46.0,120,78,5.0,38.0
4674,56.0,0,78,4.0,38.0
4675,44.0,120,78,5.0,38.0
4676,58.0,120,78,4.0,38.0
4677,46.0,0,78,5.0,38.0
4678,70.0,120,0,2.0,38.0
4679,74.0,0,480,2.0,39.0
4680,77.0,0,480,1.0,39.0
4681,65.0,0,480,1.0,39.0
4682,62.0,0,78,4.0,38.0
4683,50.0,0,78,4.0,38.0
4684,34.0,0,78,5.0,38.0
4685,46.0,120,78,5.0,38.0
4686,58.0,0,78,4.0,38.0
4687,56.0,0,78,4.0,37.0
4688,44.0,120,78,5.0,37.0
4689,74.0,0,360,2.0,38.0
4690,65.0,0,360,1.0,38.0
4691,77.0,0,360,1.0,38.0
4692,46.0,120,78,5.0,37.0
4693,58.0,0,78,4.0,37.0
4694,65.0,0,60,1.0,37.0
4695,77.0,0,60,1.0,37.0
4696,70.0,0,60,2.0,37.0
4697,74.0,60,60,2.0,37.0
4698,39.0,0,78,5.0,37.0
4699,63.0,60,78,4.0,37.0
4700,51.0,0,78,4.0,37.0
4701,46.0,0,78,5.0,37.0
4702,58.0,120,78,4.0,37.0
4703,75.0,0,240,2.0,37.0
4704,70.0,0,240,2.0,37.0
4705,67.0,0,240,1.0,37.0
4706,79.0,0,240,1.0,37.0
4707,43.0,120,78,5.0,43.0
4708,55.0,0,78,4.0,43.0
4709,58.0,0,78,4.0,36.0
4710,46.0,120,78,5.0,36.0
4711,63.0,0,78,4.0,36.0
4712,39.0,120,78,5.0,36.0
4713,51.0,0,78,4.0,36.0
4714,46.0,120,78,5.0,36.0
4715,58.0,0,78,4.0,36.0
4716,70.0,0,480,1.0,53.0
4717,82.0,0,480,1.0,53.0
4718,43.0,120,78,5.0,36.0
4719,55.0,0,78,4.0,36.0
4720,79.0,0,180,1.0,36.0
4721,67.0,0,180,1.0,36.0
4722,46.0,0,78,5.0,35.0
4723,58.0,120,78,4.0,35.0
4724,63.0,60,60,1.0,35.0
4725,75.0,0,60,1.0,35.0
4726,34.0,0,78,5.0,35.0
4727,62.0,0,78,4.0,35.0
4728,50.0,0,78,4.0,35.0
4729,58.0,120,78,4.0,35.0
4730,46.0,0,78,5.0,35.0
4731,56.0,120,78,4.0,35.0
4732,44.0,0,78,5.0,35.0
4733,58.0,0,78,4.0,34.0
4734,46.0,120,78,5.0,34.0
4735,77.0,0,480,1.0,35.0
4736,70.0,0,0,2.0,34.0
4737,74.0,120,0,2.0,34.0
4738,65.0,0,0,1.0,34.0
4739,34.0,0,78,5.0,34.0
4740,50.0,0,78,4.0,34.0
4741,62.0,0,78,4.0,34.0
4742,46.0,120,78,5.0,34.0
4743,58.0,0,78,4.0,34.0
4744,44.0,0,78,5.0,34.0
4745,56.0,120,78,4.0,34.0
4746,77.0,0,360,1.0,34.0
4747,46.0,0,78,5.0,34.0
4748,58.0,120,78,4.0,34.0
4749,74.0,60,60,2.0,33.0
4750,70.0,0,0,2.0,33.0
4751,77.0,0,60,1.0,33.0
4752,65.0,0,60,1.0,33.0
4753,55.0,0,78,4.0,33.0
4754,39.0,0,78,5.0,33.0
4755,67.0,60,192,2.0,33.0
4756,75.0,0,192,1.0,33.0
4757,39.0,120,78,5.0,33.0
4758,51.0,0,78,4.0,33.0
4759,55.0,120,78,4.0,33.0
4760,43.0,0,78,5.0,33.0
4761,87.0,0,96,1.0,33.0
4762,82.0,0,96,2.0,33.0
4763,67.0,0,96,2.0,33.0
4764,70.0,0,96,2.0,33.0
4765,79.0,0,96,2.0,33.0
4766,46.0,120,78,5.0,33.0
4767,58.0,0,78,4.0,33.0
4768,87.0,0,48,1.0,33.0
4769,82.0,0,48,2.0,33.0
4770,79.0,60,48,2.0,33.0
4771,67.0,0,48,2.0,33.0
4772,70.0,0,48,2.0,33.0
4773,51.0,0,78,4.0,32.0
4774,39.0,0,78,5.0,32.0
4775,87.0,0,192,1.0,32.0
4776,75.0,60,192,2.0,32.0
4777,79.0,0,192,2.0,32.0
4778,67.0,0,192,2.0,32.0
4779,63.0,0,192,2.0,32.0
4780,39.0,120,78,5.0,32.0
4781,51.0,0,78,4.0,32.0
4782,55.0,0,78,4.0,32.0
4783,43.0,0,78,5.0,32.0
4784,79.0,0,144,2.0,32.0
4785,82.0,0,144,2.0,32.0
4786,67.0,0,144,2.0,32.0
4787,87.0,120,144,1.0,32.0
4788,70.0,0,144,2.0,32.0
4789,46.0,120,78,5.0,32.0
4790,58.0,0,78,4.0,32.0
4791,82.0,0,48,2.0,32.0
4792,70.0,0,48,2.0,32.0
4793,87.0,60,48,1.0,32.0
4794,79.0,0,48,2.0,32.0
4795,67.0,0,48,2.0,32.0
4796,67.0,0,156,2.0,32.0
4797,63.0,0,156,2.0,32.0
4798,79.0,0,156,2.0,32.0
4799,75.0,60,156,2.0,32.0
4800,51.0,0,156,4.0,32.0
4801,39.0,0,156,5.0,32.0
4802,87.0,0,156,1.0,32.0
4803,79.0,0,156,2.0,31.0
4804,63.0,0,156,2.0,31.0
4805,87.0,0,156,1.0,31.0
4806,39.0,0,156,5.0,31.0
4807,51.0,240,156,4.0,31.0
4808,75.0,0,156,2.0,31.0
4809,63.0,0,156,2.0,31.0
4810,39.0,0,156,5.0,31.0
4811,75.0,0,156,2.0,31.0
4812,79.0,0,156,2.0,31.0
4813,51.0,0,156,4.0,31.0
4814,87.0,240,156,1.0,31.0
4815,32.0,400,40,5.0,72.0
4816,31.0,40,40,5.0,75.0
4817,32.0,40,156,5.0,79.0
4818,32.0,240,156,5.0,60.0
4819,32.0,160,40,5.0,70.0
4820,31.0,40,40,5.0,72.0
4821,32.0,40,156,5.0,75.0
4822,32.0,240,156,5.0,58.0
4823,32.0,160,40,5.0,69.0
4824,31.0,40,40,5.0,71.0
4825,32.0,40,156,5.0,74.0
4826,32.0,240,156,5.0,57.0
4827,32.0,240,156,5.0,56.0
4828,60.0,0,120,4.0,55.0
4829,32.0,240,156,5.0,55.0
4830,63.0,120,120,4.0,55.0
4831,53.0,120,120,4.0,54.0
4832,32.0,0,156,5.0,54.0
4833,61.0,120,120,4.0,54.0
4834,56.0,120,120,4.0,53.0
4835,32.0,0,156,5.0,53.0
4836,65.0,120,120,4.0,53.0
4837,55.0,120,120,4.0,52.0
4838,32.0,0,156,5.0,52.0
4839,63.0,120,120,4.0,52.0
4840,58.0,0,120,4.0,51.0
4841,32.0,120,156,5.0,51.0
4842,61.0,120,120,4.0,51.0
4843,68.0,120,80,2.0,50.0
4844,80.0,0,80,1.0,50.0
4845,32.0,0,156,5.0,50.0
4846,63.0,80,80,2.0,50.0
4847,75.0,0,80,1.0,50.0
4848,68.0,0,80,2.0,50.0
4849,56.0,0,240,4.0,50.0
4850,60.0,0,240,4.0,50.0
4851,80.0,80,80,1.0,50.0
4852,84.0,0,80,1.0,49.0
4853,72.0,80,80,2.0,49.0
4854,32.0,0,156,5.0,49.0
4855,80.0,80,80,1.0,49.0
4856,68.0,0,80,2.0,49.0
4857,72.0,80,80,2.0,49.0
4858,84.0,0,80,1.0,49.0
4859,32.0,0,156,5.0,49.0
4860,32.0,240,156,5.0,48.0
4861,32.0,160,40,5.0,65.0
4862,31.0,40,40,5.0,69.0
4863,75.0,0,480,2.0,49.0
4864,87.0,80,480,1.0,49.0
4865,32.0,40,156,5.0,73.0
4866,32.0,240,156,5.0,58.0
4867,32.0,160,40,5.0,64.0
4868,31.0,40,40,5.0,67.0
4869,32.0,40,156,5.0,70.0
4870,32.0,240,156,5.0,53.0
4871,32.0,160,40,5.0,61.0
4872,31.0,40,40,5.0,64.0
4873,32.0,40,156,5.0,66.0
4874,32.0,240,156,5.0,55.0
4875,32.0,240,156,5.0,54.0
4876,54.0,240,120,4.0,53.0
4877,32.0,0,156,5.0,53.0
4878,63.0,120,120,4.0,52.0
4879,53.0,120,120,4.0,52.0
4880,32.0,0,156,5.0,52.0
4881,61.0,120,120,4.0,51.0
4882,49.0,120,120,4.0,51.0
4883,32.0,0,156,5.0,51.0
4884,58.0,120,120,4.0,50.0
4885,46.0,120,120,4.0,50.0
4886,32.0,0,156,5.0,50.0
4887,55.0,120,120,4.0,49.0
4888,49.0,0,120,4.0,49.0
4889,32.0,120,156,5.0,49.0
4890,58.0,120,120,4.0,49.0
4891,80.0,120,80,1.0,48.0
4892,68.0,0,80,2.0,48.0
4893,32.0,0,156,5.0,48.0
4894,63.0,0,80,2.0,48.0
4895,75.0,80,80,1.0,48.0
4896,80.0,0,80,1.0,47.0
4897,68.0,80,80,2.0,47.0
4898,56.0,0,240,4.0,48.0
4899,72.0,0,80,2.0,47.0
4900,84.0,0,80,1.0,47.0
4901,32.0,80,156,5.0,47.0
4902,75.0,80,80,2.0,47.0
4903,87.0,0,80,1.0,47.0
4904,72.0,80,80,2.0,46.0
4905,48.0,0,480,4.0,48.0
4906,84.0,0,80,1.0,46.0
4907,32.0,0,156,5.0,46.0
4908,80.0,80,240,1.0,46.0
4909,68.0,0,240,2.0,46.0
4910,32.0,400,40,5.0,72.0
4911,31.0,40,40,5.0,75.0
4912,32.0,40,156,5.0,79.0
4913,32.0,240,156,5.0,60.0
4914,32.0,160,40,5.0,70.0
4915,31.0,40,40,5.0,72.0
4916,32.0,40,156,5.0,75.0
4917,32.0,240,156,5.0,58.0
4918,32.0,160,40,5.0,69.0
4919,31.0,40,40,5.0,71.0
4920,32.0,40,156,5.0,74.0
4921,32.0,240,156,5.0,57.0
4922,32.0,240,156,5.0,56.0
4923,60.0,240,120,4.0,55.0
4924,32.0,0,156,5.0,55.0
4925,63.0,120,120,4.0,55.0
4926,53.0,0,120,4.0,54.0
4927,32.0,120,156,5.0,54.0
4928,61.0,120,120,4.0,54.0
4929,56.0,120,120,4.0,53.0
4930,32.0,0,156,5.0,53.0
4931,65.0,120,120,4.0,53.0
4932,55.0,0,120,4.0,52.0
4933,32.0,120,156,5.0,52.0
4934,63.0,120,120,4.0,52.0
4935,58.0,120,120,4.0,51.0
4936,32.0,0,156,5.0,51.0
4937,61.0,120,120,4.0,51.0
4938,80.0,0,80,1.0,50.0
4939,68.0,0,80,2.0,50.0
4940,32.0,120,156,5.0,50.0
4941,63.0,0,80,2.0,50.0
4942,75.0,80,80,1.0,50.0
4943,56.0,0,240,4.0,50.0
4944,60.0,0,240,4.0,50.0
4945,80.0,0,80,1.0,50.0
4946,68.0,80,80,2.0,50.0
4947,72.0,0,80,2.0,49.0
4948,84.0,0,80,1.0,49.0
4949,32.0,80,156,5.0,49.0
4950,68.0,80,80,2.0,49.0
4951,80.0,0,80,1.0,49.0
4952,72.0,80,80,2.0,49.0
4953,84.0,0,80,1.0,49.0
4954,32.0,0,156,5.0,49.0
4955,32.0,240,156,5.0,48.0
4956,32.0,160,40,5.0,65.0
4957,87.0,0,480,1.0,49.0
4958,75.0,80,480,2.0,49.0
4959,31.0,40,40,5.0,69.0
4960,32.0,40,156,5.0,73.0
4961,32.0,240,156,5.0,58.0
4962,32.0,160,40,5.0,64.0
4963,31.0,40,40,5.0,67.0
4964,32.0,40,156,5.0,70.0
4965,32.0,240,156,5.0,53.0
4966,32.0,160,40,5.0,61.0
4967,31.0,40,40,5.0,64.0
4968,32.0,40,156,5.0,66.0
4969,32.0,240,156,5.0,55.0
4970,32.0,240,156,5.0,54.0
4971,54.0,240,120,4.0,53.0
4972,32.0,0,156,5.0,53.0
4973,63.0,120,120,4.0,52.0
4974,53.0,0,120,4.0,52.0
4975,32.0,120,156,5.0,52.0
4976,61.0,120,120,4.0,51.0
4977,49.0,120,120,4.0,51.0
4978,32.0,0,156,5.0,51.0
4979,58.0,120,120,4.0,50.0
4980,46.0,0,120,4.0,50.0
4981,32.0,120,156,5.0,50.0
4982,55.0,120,120,4.0,49.0
4983,49.0,120,120,4.0,49.0
4984,32.0,0,156,5.0,49.0
4985,58.0,120,120,4.0,49.0
4986,80.0,0,80,1.0,48.0
4987,68.0,120,80,2.0,48.0
4988,32.0,0,156,5.0,48.0
4989,75.0,0,80,1.0,48.0
4990,63.0,80,80,2.0,48.0
4991,68.0,80,80,2.0,47.0
4992,56.0,0,240,4.0,48.0
4993,80.0,0,80,1.0,47.0
4994,84.0,0,80,1.0,47.0
4995,72.0,80,80,2.0,47.0
4996,32.0,0,156,5.0,47.0
4997,87.0,0,80,1.0,47.0
4998,75.0,80,80,2.0,47.0
4999,72.0,0,80,2.0,46.0
5000,48.0,0,480,4.0,48.0
5001,84.0,80,80,1.0,46.0
5002,32.0,0,156,5.0,46.0
5003,68.0,0,240,2.0,46.0
5004,80.0,80,240,1.0,46.0
5005,58.0,0,80,2.0,73.0
5006,34.0,0,80,5.0,73.0
5007,46.0,240,80,4.0,73.0
5008,70.0,0,80,1.0,73.0
5009,48.0,0,80,4.0,76.0
5010,72.0,0,80,1.0,76.0
5011,36.0,0,80,5.0,76.0
5012,60.0,80,80,2.0,76.0
5013,50.0,0,80,4.0,80.0
5014,74.0,80,80,1.0,80.0
5015,62.0,0,80,2.0,80.0
5016,38.0,0,80,5.0,80.0
5017,63.0,80,78,2.0,83.0
5018,51.0,0,78,4.0,83.0
5019,75.0,0,78,1.0,83.0
5020,39.0,0,78,5.0,83.0
5021,34.0,0,78,5.0,76.0
5022,58.0,0,78,2.0,76.0
5023,46.0,120,78,4.0,76.0
5024,70.0,0,78,1.0,76.0
5025,36.0,0,78,5.0,76.0
5026,72.0,120,78,1.0,76.0
5027,60.0,0,78,2.0,76.0
5028,48.0,0,78,4.0,76.0
5029,38.0,0,78,5.0,77.0
5030,50.0,0,78,4.0,77.0
5031,62.0,0,78,2.0,77.0
5032,74.0,120,78,1.0,77.0
5033,63.0,0,78,2.0,78.0
5034,75.0,120,78,1.0,78.0
5035,39.0,0,78,5.0,78.0
5036,51.0,0,78,4.0,78.0
5037,41.0,0,78,5.0,78.0
5038,65.0,0,78,2.0,78.0
5039,77.0,0,78,1.0,78.0
5040,53.0,120,78,4.0,78.0
5041,55.0,120,78,4.0,79.0
5042,67.0,0,78,2.0,79.0
5043,79.0,0,78,1.0,79.0
5044,43.0,0,78,5.0,79.0
5045,68.0,0,78,2.0,79.0
5046,80.0,0,78,1.0,79.0
5047,56.0,120,78,4.0,79.0
5048,44.0,0,78,5.0,79.0
5049,58.0,0,78,4.0,80.0
5050,82.0,0,78,1.0,80.0
5051,70.0,0,78,2.0,80.0
5052,46.0,120,78,5.0,80.0
5053,75.0,120,78,1.0,81.0
5054,39.0,0,78,5.0,81.0
5055,51.0,0,78,4.0,81.0
5056,63.0,0,78,2.0,81.0
5057,65.0,0,78,2.0,81.0
5058,41.0,0,78,5.0,81.0
5059,77.0,120,78,1.0,81.0
5060,53.0,0,78,4.0,81.0
5061,43.0,120,78,5.0,82.0
5062,55.0,0,78,4.0,82.0
5063,67.0,0,78,2.0,82.0
5064,79.0,0,78,1.0,82.0
5065,80.0,0,78,1.0,82.0
5066,44.0,0,78,5.0,82.0
5067,56.0,0,78,4.0,82.0
5068,68.0,120,78,2.0,82.0
5069,46.0,0,78,5.0,83.0
5070,58.0,0,78,4.0,83.0
5071,82.0,0,78,1.0,83.0
5072,70.0,120,78,2.0,83.0
5073,48.0,0,78,5.0,84.0
5074,84.0,0,78,1.0,84.0
5075,72.0,120,78,2.0,84.0
5076,60.0,0,78,4.0,84.0
5077,86.0,0,78,1.0,84.0
5078,74.0,120,78,2.0,84.0
5079,50.0,0,78,5.0,84.0
5080,62.0,0,78,4.0,84.0
5081,63.0,0,78,4.0,85.0
5082,51.0,0,78,5.0,85.0
5083,75.0,120,78,2.0,85.0
5084,87.0,0,78,1.0,85.0
5085,58.0,0,78,4.0,85.0
5086,82.0,0,78,1.0,85.0
5087,70.0,0,78,2.0,85.0
5088,46.0,120,78,5.0,85.0
5089,87.0,0,78,1.0,86.0
5090,51.0,120,78,5.0,86.0
5091,75.0,0,78,2.0,86.0
5092,63.0,0,78,4.0,86.0
5093,82.0,120,78,1.0,87.0
5094,70.0,0,78,2.0,87.0
5095,46.0,0,78,5.0,87.0
5096,58.0,0,78,4.0,87.0
5097,63.0,0,78,4.0,87.0
5098,51.0,0,78,5.0,87.0
5099,87.0,0,78,1.0,87.0
5100,75.0,120,78,2.0,87.0
5101,46.0,0,78,5.0,88.0
5102,58.0,120,78,4.0,88.0
5103,82.0,0,78,1.0,88.0
5104,70.0,0,78,2.0,88.0
5105,87.0,120,78,1.0,88.0
5106,63.0,0,78,4.0,88.0
5107,51.0,0,78,5.0,88.0
5108,75.0,0,78,2.0,88.0
5109,58.0,120,78,4.0,89.0
5110,70.0,0,78,2.0,89.0
5111,46.0,0,78,5.0,89.0
5112,82.0,0,78,1.0,89.0
5113,85.0,0,960,1.0,97.0
5114,85.0,960,60,1.0,89.0
5115,84.0,60,60,1.0,89.0
5116,82.0,60,60,1.0,88.0
5117,80.0,60,60,1.0,88.0
5118,55.0,120,1920,4.0,97.0
5119,51.0,0,1920,4.0,97.0
5120,79.0,60,720,1.0,82.0
5121,39.0,0,1920,5.0,97.0
5122,58.0,0,1920,4.0,97.0
5123,61.0,0,1920,4.0,97.0
5124,67.0,0,1920,2.0,97.0
5125,73.0,0,1920,2.0,97.0
5126,70.0,0,1920,2.0,97.0
5127,32.0,1600,40,5.0,74.0
5128,31.0,40,40,5.0,76.0
5129,32.0,40,156,5.0,78.0
5130,32.0,240,156,5.0,64.0
5131,32.0,160,40,5.0,70.0
5132,31.0,40,40,5.0,72.0
5133,32.0,40,156,5.0,76.0
5134,32.0,240,156,5.0,62.0
5135,32.0,160,40,5.0,66.0
5136,31.0,40,40,5.0,68.0
5137,32.0,40,156,5.0,73.0
5138,32.0,240,156,5.0,62.0
5139,75.0,0,240,1.0,62.0
5140,72.0,0,240,2.0,62.0
5141,60.0,0,240,2.0,62.0
5142,63.0,0,240,2.0,62.0
5143,32.0,240,156,5.0,61.0
5144,60.0,0,80,4.0,60.0
5145,32.0,0,156,5.0,60.0
5146,63.0,80,80,4.0,60.0
5147,87.0,240,240,1.0,60.0
5148,78.0,0,240,2.0,60.0
5149,60.0,80,80,4.0,60.0
5150,75.0,0,240,2.0,60.0
5151,66.0,0,240,2.0,60.0
5152,53.0,0,80,4.0,59.0
5153,32.0,80,156,5.0,59.0
5154,61.0,80,80,4.0,59.0
5155,53.0,80,80,4.0,59.0
5156,65.0,0,80,4.0,57.0
5157,32.0,0,156,5.0,58.0
5158,56.0,80,80,4.0,58.0
5159,85.0,0,240,1.0,58.0
5160,65.0,80,80,4.0,57.0
5161,65.0,80,240,2.0,58.0
5162,73.0,0,240,2.0,58.0
5163,77.0,0,240,2.0,58.0
5164,55.0,80,80,4.0,57.0
5165,32.0,0,156,5.0,57.0
5166,63.0,80,80,4.0,57.0
5167,55.0,80,80,4.0,56.0
5168,61.0,0,80,4.0,56.0
5169,32.0,80,156,5.0,56.0
5170,58.0,80,80,4.0,56.0
5171,73.0,0,240,2.0,56.0
5172,61.0,80,80,4.0,55.0
5173,70.0,0,240,2.0,56.0
5174,79.0,0,240,2.0,56.0
5175,67.0,0,240,2.0,56.0
5176,82.0,0,240,1.0,56.0
5177,68.0,0,80,2.0,55.0
5178,80.0,0,80,2.0,55.0
5179,84.0,80,80,1.0,55.0
5180,72.0,0,80,2.0,55.0
5181,32.0,0,156,5.0,55.0
5182,75.0,0,80,1.0,55.0
5183,63.0,80,80,2.0,55.0
5184,60.0,0,240,4.0,55.0
5185,80.0,80,80,1.0,54.0
5186,56.0,0,240,4.0,55.0
5187,68.0,0,80,2.0,54.0
5188,72.0,80,80,2.0,54.0
5189,84.0,0,80,1.0,54.0
5190,32.0,0,156,5.0,54.0
5191,80.0,80,80,1.0,54.0
5192,68.0,0,80,2.0,54.0
5193,72.0,0,80,2.0,53.0
5194,84.0,80,80,1.0,53.0
5195,32.0,80,156,5.0,53.0
5196,87.0,0,240,1.0,53.0
5197,75.0,0,240,2.0,53.0
5198,32.0,240,156,5.0,52.0
5199,32.0,160,40,5.0,67.0
5200,31.0,40,40,5.0,70.0
5201,32.0,40,156,5.0,72.0
5202,32.0,240,156,5.0,53.0
5203,32.0,160,40,5.0,63.0
5204,31.0,40,40,5.0,66.0
5205,32.0,40,156,5.0,69.0
5206,32.0,240,156,5.0,51.0
5207,32.0,160,40,5.0,60.0
5208,31.0,40,40,5.0,62.0
5209,32.0,40,156,5.0,66.0
5210,32.0,0,156,5.0,50.0
5211,72.0,0,240,2.0,50.0
5212,60.0,240,240,2.0,50.0
5213,63.0,0,240,2.0,50.0
5214,75.0,0,240,1.0,50.0
5215,32.0,240,156,5.0,49.0
5216,54.0,240,80,4.0,49.0
5217,32.0,0,156,5.0,49.0
5218,62.0,80,85,4.0,49.0
5219,72.0,0,240,2.0,49.0
5220,84.0,0,240,1.0,49.0
5221,75.0,0,240,2.0,49.0
5222,63.0,0,240,2.0,49.0
5223,54.0,80,80,4.0,48.0
5224,61.0,0,80,4.0,48.0
5225,32.0,80,156,5.0,48.0
5226,53.0,80,80,4.0,48.0
5227,61.0,80,80,4.0,48.0
5228,49.0,0,80,4.0,47.0
5229,32.0,0,156,5.0,47.0
5230,58.0,80,80,4.0,47.0
5231,85.0,0,240,1.0,47.0
5232,49.0,80,80,4.0,47.0
5233,65.0,0,240,2.0,47.0
5234,77.0,80,240,2.0,47.0
5235,73.0,0,240,2.0,47.0
5236,55.0,80,80,4.0,47.0
5237,32.0,0,156,5.0,47.0
5238,46.0,80,80,4.0,46.0
5239,55.0,80,80,4.0,46.0
5240,49.0,0,80,4.0,46.0
5241,32.0,0,156,5.0,46.0
5242,58.0,80,80,4.0,46.0
5243,67.0,0,240,2.0,46.0
5244,70.0,0,240,2.0,46.0
5245,49.0,80,80,4.0,46.0
5246,58.0,80,240,2.0,46.0
5247,79.0,0,240,1.0,46.0
5248,80.0,0,80,1.0,45.0
5249,68.0,0,80,2.0,45.0
5250,63.0,0,80,2.0,45.0
5251,75.0,80,80,1.0,45.0
5252,80.0,0,80,1.0,45.0
5253,68.0,80,80,2.0,45.0
5254,72.0,0,80,2.0,45.0
5255,84.0,80,80,1.0,45.0
5256,87.0,0,80,1.0,44.0
5257,75.0,80,80,2.0,44.0
5258,84.0,80,80,1.0,44.0
5259,72.0,0,80,2.0,44.0
5260,32.0,80,480,5.0,45.0
5261,48.0,0,480,4.0,45.0
5262,36.0,0,480,4.0,45.0
5263,56.0,0,600,4.0,45.0
5264,55.0,120,120,4.0,46.0
5265,68.0,80,240,2.0,44.0
5266,80.0,0,240,1.0,44.0
5267,46.0,0,80,4.0,73.0
5268,70.0,0,80,1.0,73.0
5269,58.0,120,80,2.0,73.0
5270,60.0,0,80,2.0,76.0
5271,36.0,0,80,5.0,76.0
5272,48.0,80,80,4.0,76.0
5273,72.0,0,80,1.0,76.0
5274,50.0,0,480,4.0,44.0
5275,38.0,0,80,5.0,80.0
5276,62.0,80,80,2.0,80.0
5277,34.0,0,480,5.0,44.0
5278,74.0,0,80,1.0,80.0
5279,37.0,0,480,4.0,44.0
5280,51.0,80,78,4.0,83.0
5281,75.0,0,78,1.0,83.0
5282,63.0,0,78,2.0,83.0
5283,39.0,0,78,5.0,83.0
5284,58.0,0,78,2.0,76.0
5285,70.0,0,78,1.0,76.0
5286,34.0,0,78,5.0,76.0
5287,46.0,120,78,4.0,76.0
5288,48.0,0,78,4.0,76.0
5289,72.0,0,78,1.0,76.0
5290,60.0,0,78,2.0,76.0
5291,36.0,120,78,5.0,76.0
5292,62.0,0,78,2.0,77.0
5293,74.0,0,78,1.0,77.0
5294,38.0,0,78,5.0,77.0
5295,50.0,120,78,4.0,77.0
5296,39.0,0,78,5.0,78.0
5297,51.0,0,78,4.0,78.0
5298,63.0,0,78,2.0,78.0
5299,75.0,120,78,1.0,78.0
5300,77.0,0,78,1.0,78.0
5301,53.0,120,78,4.0,78.0
5302,41.0,0,78,5.0,78.0
5303,65.0,0,78,2.0,78.0
5304,55.0,0,78,4.0,79.0
5305,79.0,120,78,1.0,79.0
5306,43.0,0,78,5.0,79.0
5307,67.0,0,78,2.0,79.0
5308,68.0,0,78,2.0,79.0
5309,44.0,120,78,5.0,79.0
5310,56.0,0,78,4.0,79.0
5311,80.0,0,78,1.0,79.0
5312,58.0,120,78,4.0,80.0
5313,82.0,0,78,1.0,80.0
5314,46.0,0,78,5.0,80.0
5315,70.0,0,78,2.0,80.0
5316,63.0,0,78,2.0,81.0
5317,39.0,120,78,5.0,81.0
5318,51.0,0,78,4.0,81.0
5319,75.0,0,78,1.0,81.0
5320,41.0,0,78,5.0,81.0
5321,77.0,0,78,1.0,81.0
5322,65.0,120,78,2.0,81.0
5323,53.0,0,78,4.0,81.0
5324,43.0,120,78,5.0,82.0
5325,67.0,0,78,2.0,82.0
5326,55.0,0,78,4.0,82.0
5327,79.0,0,78,1.0,82.0
5328,80.0,0,78,1.0,82.0
5329,68.0,0,78,2.0,82.0
5330,44.0,0,78,5.0,82.0
5331,56.0,120,78,4.0,82.0
5332,46.0,0,78,5.0,83.0
5333,58.0,0,78,4.0,83.0
5334,82.0,0,78,1.0,83.0
5335,70.0,120,78,2.0,83.0
5336,84.0,0,78,1.0,84.0
5337,48.0,120,78,5.0,84.0
5338,72.0,0,78,2.0,84.0
5339,60.0,0,78,4.0,84.0
5340,62.0,0,78,4.0,84.0
5341,86.0,0,78,1.0,84.0
5342,50.0,120,78,5.0,84.0
5343,74.0,0,78,2.0,84.0
5344,75.0,0,78,2.0,85.0
5345,63.0,0,78,4.0,85.0
5346,51.0,0,78,5.0,85.0
5347,87.0,120,78,1.0,85.0
5348,46.0,0,78,5.0,85.0
5349,82.0,0,78,1.0,85.0
5350,58.0,120,78,4.0,85.0
5351,70.0,0,78,2.0,85.0
5352,51.0,0,78,5.0,86.0
5353,75.0,120,78,2.0,86.0
5354,63.0,0,78,4.0,86.0
5355,87.0,0,78,1.0,86.0
5356,58.0,0,78,4.0,87.0
5357,82.0,120,78,1.0,87.0
5358,46.0,0,78,5.0,87.0
5359,70.0,0,78,2.0,87.0
5360,87.0,120,78,1.0,87.0
5361,63.0,0,78,4.0,87.0
5362,51.0,0,78,5.0,87.0
5363,75.0,0,78,2.0,87.0
5364,46.0,0,78,5.0,88.0
5365,70.0,0,78,2.0,88.0
5366,82.0,0,78,1.0,88.0
5367,58.0,120,78,4.0,88.0
5368,75.0,120,78,2.0,88.0
5369,51.0,0,78,5.0,88.0
5370,87.0,0,78,1.0,88.0
5371,63.0,0,78,4.0,88.0
5372,46.0,0,78,5.0,89.0
5373,70.0,120,78,2.0,89.0
5374,82.0,0,78,1.0,89.0
5375,58.0,0,78,4.0,89.0
5376,85.0,960,0,1.0,89.0
5377,84.0,60,60,1.0,89.0
5378,82.0,60,60,1.0,88.0
5379,80.0,60,60,1.0,88.0
5380,39.0,0,1920,5.0,97.0
5381,70.0,0,1920,2.0,97.0
5382,58.0,120,1920,4.0,97.0
5383,51.0,0,1920,4.0,97.0
5384,55.0,0,1920,4.0,97.0
5385,67.0,0,1920,2.0,97.0
5386,73.0,0,1920,2.0,97.0
5387,79.0,60,720,1.0,82.0
5388,61.0,0,1920,4.0,97.0
5389,32.0,1600,40,5.0,74.0
5390,31.0,40,40,5.0,76.0
5391,32.0,40,156,5.0,78.0
5392,32.0,240,156,5.0,64.0
5393,32.0,160,40,5.0,70.0
5394,31.0,40,40,5.0,72.0
5395,32.0,40,156,5.0,76.0
5396,32.0,240,156,5.0,62.0
5397,32.0,160,40,5.0,66.0
5398,31.0,40,40,5.0,68.0
5399,32.0,40,156,5.0,73.0
5400,32.0,240,156,5.0,62.0
5401,60.0,0,240,2.0,62.0
5402,63.0,0,240,2.0,62.0
5403,72.0,0,240,2.0,62.0
5404,75.0,0,240,1.0,62.0
5405,32.0,240,156,5.0,61.0
5406,60.0,0,80,4.0,60.0
5407,32.0,0,156,5.0,60.0
5408,63.0,80,80,4.0,60.0
5409,60.0,80,80,4.0,60.0
5410,66.0,0,240,2.0,60.0
5411,75.0,0,240,2.0,60.0
5412,78.0,240,240,2.0,60.0
5413,87.0,0,240,1.0,60.0
5414,53.0,0,80,4.0,59.0
5415,32.0,80,156,5.0,59.0
5416,61.0,80,80,4.0,59.0
5417,53.0,80,80,4.0,59.0
5418,65.0,0,80,4.0,57.0
5419,32.0,0,156,5.0,58.0
5420,56.0,80,80,4.0,58.0
5421,85.0,0,240,1.0,58.0
5422,65.0,80,80,4.0,57.0
5423,65.0,0,240,2.0,58.0
5424,73.0,80,240,2.0,58.0
5425,77.0,0,240,2.0,58.0
5426,55.0,0,80,4.0,57.0
5427,32.0,80,156,5.0,57.0
5428,63.0,80,80,4.0,57.0
5429,55.0,80,80,4.0,56.0
5430,61.0,80,80,4.0,56.0
5431,32.0,0,156,5.0,56.0
5432,58.0,80,80,4.0,56.0
5433,61.0,80,80,4.0,55.0
5434,70.0,0,240,2.0,56.0
5435,82.0,0,240,1.0,56.0
5436,79.0,0,240,2.0,56.0
5437,73.0,0,240,2.0,56.0
5438,67.0,0,240,2.0,56.0
5439,84.0,0,80,1.0,55.0
5440,72.0,0,80,2.0,55.0
5441,68.0,0,80,2.0,55.0
5442,80.0,0,80,2.0,55.0
5443,32.0,0,156,5.0,55.0
5444,75.0,80,80,1.0,55.0
5445,63.0,0,80,2.0,55.0
5446,80.0,0,80,1.0,54.0
5447,60.0,0,240,4.0,55.0
5448,68.0,80,80,2.0,54.0
5449,56.0,80,240,4.0,55.0
5450,84.0,0,80,1.0,54.0
5451,72.0,0,80,2.0,54.0
5452,32.0,80,156,5.0,54.0
5453,80.0,80,80,1.0,54.0
5454,68.0,0,80,2.0,54.0
5455,72.0,0,80,2.0,53.0
5456,84.0,80,80,1.0,53.0
5457,32.0,0,156,5.0,53.0
5458,75.0,80,240,2.0,53.0
5459,87.0,0,240,1.0,53.0
5460,32.0,240,156,5.0,52.0
5461,32.0,160,40,5.0,67.0
5462,31.0,40,40,5.0,70.0
5463,32.0,40,156,5.0,72.0
5464,32.0,240,156,5.0,53.0
5465,32.0,160,40,5.0,63.0
5466,31.0,40,40,5.0,66.0
5467,32.0,40,156,5.0,69.0
5468,32.0,240,156,5.0,51.0
5469,32.0,160,40,5.0,60.0
5470,31.0,40,40,5.0,62.0
5471,32.0,40,156,5.0,66.0
5472,32.0,0,156,5.0,50.0
5473,63.0,0,240,2.0,50.0
5474,60.0,0,240,2.0,50.0
5475,72.0,0,240,2.0,50.0
5476,75.0,240,240,1.0,50.0
5477,32.0,240,156,5.0,49.0
5478,54.0,0,80,4.0,49.0
5479,32.0,0,156,5.0,49.0
5480,62.0,80,85,4.0,49.0
5481,72.0,0,240,2.0,49.0
5482,63.0,0,240,2.0,49.0
5483,75.0,0,240,2.0,49.0
5484,84.0,240,240,1.0,49.0
5485,54.0,80,80,4.0,48.0
5486,61.0,80,80,4.0,48.0
5487,32.0,0,156,5.0,48.0
5488,53.0,80,80,4.0,48.0
5489,61.0,80,80,4.0,48.0
5490,49.0,0,80,4.0,47.0
5491,32.0,80,156,5.0,47.0
5492,58.0,80,80,4.0,47.0
5493,73.0,0,240,2.0,47.0
5494,65.0,0,240,2.0,47.0
5495,49.0,80,80,4.0,47.0
5496,85.0,0,240,1.0,47.0
5497,77.0,0,240,2.0,47.0
5498,55.0,0,80,4.0,47.0
5499,32.0,80,156,5.0,47.0
5500,46.0,80,80,4.0,46.0
5501,55.0,80,80,4.0,46.0
5502,49.0,0,80,4.0,46.0
5503,32.0,0,156,5.0,46.0
5504,58.0,80,80,4.0,46.0
5505,49.0,80,80,4.0,46.0
5506,70.0,0,240,2.0,46.0
5507,67.0,0,240,2.0,46.0
5508,58.0,0,240,2.0,46.0
5509,79.0,80,240,1.0,46.0
5510,80.0,0,80,1.0,45.0
5511,68.0,80,80,2.0,45.0
5512,75.0,80,80,1.0,45.0
5513,63.0,0,80,2.0,45.0
5514,80.0,80,80,1.0,45.0
5515,68.0,0,80,2.0,45.0
5516,84.0,80,80,1.0,45.0
5517,72.0,0,80,2.0,45.0
5518,75.0,80,80,2.0,44.0
5519,87.0,0,80,1.0,44.0
5520,48.0,0,480,4.0,45.0
5521,44.0,0,480,4.0,45.0
5522,84.0,0,80,1.0,44.0
5523,72.0,80,80,2.0,44.0
5524,32.0,0,480,5.0,45.0
5525,56.0,0,600,4.0,45.0
5526,68.0,0,240,2.0,44.0
5527,80.0,0,240,1.0,44.0
5528,55.0,120,120,4.0,46.0
5529,56.0,120,120,4.0,49.0
5530,34.0,0,1200,5.0,44.0
5531,50.0,0,1275,4.0,44.0
5532,53.0,120,922,4.0,48.0
5533,46.0,80,1282,4.0,44.0
5534,51.0,0,78,4.0,46.0
5535,46.0,120,78,4.0,46.0
5536,43.0,120,78,4.0,46.0
5537,39.0,1080,360,5.0,46.0
5538,46.0,120,78,4.0,46.0
5539,51.0,0,78,4.0,47.0
5540,46.0,120,78,4.0,47.0
5541,43.0,120,78,4.0,47.0
5542,39.0,120,360,5.0,47.0
5543,46.0,120,78,4.0,48.0
5544,39.0,60,48,5.0,48.0
5545,51.0,0,78,4.0,48.0
5546,46.0,120,78,4.0,48.0
5547,43.0,0,78,4.0,48.0
5548,46.0,120,78,4.0,49.0
5549,70.0,0,0,2.0,47.0
5550,55.0,0,240,2.0,46.0
5551,75.0,120,240,1.0,46.0
5552,63.0,0,240,1.0,46.0
5553,51.0,0,78,4.0,49.0
5554,46.0,120,78,4.0,49.0
5555,79.0,0,240,1.0,47.0
5556,63.0,120,240,2.0,47.0
5557,67.0,0,240,1.0,47.0
5558,51.0,0,78,4.0,50.0
5559,55.0,120,78,4.0,50.0
5560,55.0,0,240,2.0,47.0
5561,70.0,0,240,2.0,47.0
5562,39.0,60,960,5.0,48.0
5563,75.0,0,240,1.0,47.0
5564,63.0,120,240,1.0,47.0
5565,53.0,120,78,4.0,50.0
5566,50.0,120,78,4.0,50.0
5567,46.0,120,78,4.0,51.0
5568,34.0,0,360,5.0,50.0
5569,50.0,120,78,4.0,51.0
5570,53.0,120,78,4.0,51.0
5571,50.0,120,78,4.0,51.0
5572,46.0,120,78,4.0,52.0
5573,34.0,0,360,5.0,51.0
5574,50.0,120,78,4.0,52.0
5575,34.0,60,48,5.0,52.0
5576,53.0,0,78,4.0,52.0
5577,50.0,120,78,4.0,53.0
5578,46.0,120,78,4.0,53.0
5579,50.0,120,78,4.0,53.0
5580,74.0,0,240,2.0,51.0
5581,58.0,0,240,2.0,51.0
5582,77.0,0,240,1.0,51.0
5583,65.0,0,240,1.0,51.0
5584,53.0,0,78,4.0,53.0
5585,50.0,120,78,4.0,54.0
5586,68.0,0,240,1.0,52.0
5587,80.0,0,240,1.0,52.0
5588,65.0,0,240,2.0,52.0
5589,74.0,120,240,2.0,52.0
5590,53.0,0,78,4.0,54.0
5591,56.0,120,78,4.0,54.0
5592,34.0,60,960,5.0,52.0
5593,58.0,0,240,2.0,53.0
5594,74.0,0,240,2.0,53.0
5595,77.0,120,240,1.0,53.0
5596,65.0,0,240,1.0,53.0
5597,63.0,0,78,4.0,53.0
5598,55.0,0,156,4.0,54.0
5599,39.0,120,156,5.0,54.0
5600,58.0,120,78,4.0,54.0
5601,55.0,0,78,4.0,54.0
5602,67.0,0,360,2.0,53.0
5603,75.0,0,360,1.0,53.0
5604,43.0,0,156,4.0,55.0
5605,51.0,120,156,4.0,55.0
5606,46.0,0,156,4.0,55.0
5607,58.0,120,78,4.0,55.0
5608,63.0,0,78,4.0,55.0
5609,39.0,0,156,5.0,56.0
5610,58.0,120,78,4.0,55.0
5611,55.0,0,78,4.0,56.0
5612,75.0,0,360,1.0,55.0
5613,67.0,120,360,2.0,55.0
5614,51.0,120,156,4.0,56.0
5615,46.0,0,156,4.0,56.0
5616,43.0,0,156,4.0,56.0
5617,58.0,120,78,4.0,56.0
5618,67.0,0,48,2.0,56.0
5619,75.0,60,48,1.0,56.0
5620,63.0,60,78,4.0,56.0
5621,58.0,120,78,4.0,57.0
5622,55.0,120,78,4.0,57.0
5623,67.0,0,360,2.0,56.0
5624,75.0,0,360,1.0,56.0
5625,58.0,120,78,4.0,57.0
5626,39.0,0,240,5.0,57.0
5627,51.0,0,240,5.0,57.0
5628,77.0,60,60,1.0,57.0
5629,63.0,60,78,4.0,58.0
5630,75.0,0,120,1.0,58.0
5631,58.0,0,78,4.0,58.0
5632,43.0,0,240,5.0,58.0
5633,55.0,0,240,5.0,58.0
5634,74.0,120,120,1.0,58.0
5635,63.0,120,78,4.0,58.0
5636,75.0,0,120,1.0,58.0
5637,67.0,120,78,4.0,59.0
5638,39.0,0,240,5.0,58.0
5639,79.0,0,120,1.0,59.0
5640,51.0,0,240,5.0,58.0
5641,65.0,0,78,4.0,59.0
5642,34.0,120,156,5.0,59.0
5643,46.0,0,156,4.0,59.0
5644,62.0,120,78,4.0,59.0
5645,58.0,120,78,4.0,60.0
5646,77.0,0,360,1.0,59.0
5647,46.0,0,156,4.0,59.0
5648,53.0,0,156,4.0,59.0
5649,50.0,0,156,4.0,59.0
5650,62.0,120,78,4.0,60.0
5651,65.0,0,78,4.0,60.0
5652,34.0,120,156,5.0,60.0
5653,62.0,120,78,4.0,61.0
5654,58.0,0,78,4.0,61.0
5655,77.0,0,360,1.0,60.0
5656,53.0,0,156,4.0,61.0
5657,46.0,0,156,4.0,61.0
5658,50.0,120,156,4.0,61.0
5659,62.0,120,78,4.0,62.0
5660,77.0,60,48,1.0,62.0
5661,65.0,0,78,4.0,62.0
5662,62.0,120,78,4.0,62.0
5663,58.0,0,78,4.0,63.0
5664,77.0,60,360,1.0,62.0
5665,62.0,120,78,4.0,63.0
5666,79.0,60,60,1.0,63.0
5667,34.0,0,240,5.0,62.0
5668,46.0,120,240,5.0,62.0
5669,77.0,0,120,1.0,63.0
5670,65.0,60,127,1.0,63.0
5671,76.0,0,120,1.0,63.0
5672,50.0,0,240,5.0,62.0
5673,38.0,0,240,5.0,62.0
5674,64.0,120,127,1.0,54.0
5675,77.0,0,120,1.0,63.0
5676,65.0,120,127,1.0,54.0
5677,34.0,0,240,5.0,63.0
5678,46.0,0,240,5.0,63.0
5679,80.0,120,120,1.0,63.0
5680,68.0,0,127,1.0,54.0
5681,51.0,120,0,4.0,66.0
5682,75.0,0,240,4.0,64.0
5683,63.0,120,240,4.0,64.0
5684,39.0,0,240,5.0,64.0
5685,79.0,0,240,1.0,64.0
5686,67.0,0,240,1.0,64.0
5687,55.0,0,120,4.0,66.0
5688,80.0,0,120,1.0,67.0
5689,68.0,0,120,1.0,67.0
5690,65.0,0,120,4.0,67.0
5691,53.0,0,120,4.0,67.0
5692,56.0,120,120,4.0,67.0
5693,77.0,0,120,4.0,67.0
5694,51.0,60,0,5.0,70.0
5695,51.0,0,0,5.0,70.0
5696,55.0,0,120,4.0,69.0
5697,82.0,120,120,1.0,69.0
5698,79.0,0,120,4.0,69.0
5699,67.0,0,120,4.0,69.0
5700,58.0,0,120,4.0,69.0
5701,70.0,0,120,1.0,69.0
5702,60.0,0,120,4.0,70.0
5703,68.0,0,120,4.0,70.0
5704,80.0,0,120,4.0,70.0
5705,56.0,0,120,4.0,70.0
5706,72.0,0,120,1.0,70.0
5707,84.0,60,120,1.0,70.0
5708,58.0,0,120,4.0,72.0
5709,82.0,0,120,4.0,72.0
5710,70.0,120,120,4.0,72.0
5711,62.0,0,120,4.0,72.0
5712,74.0,0,120,1.0,72.0
5713,86.0,0,120,1.0,72.0
5714,51.0,0,0,5.0,73.0
5715,63.0,0,120,4.0,73.0
5716,60.0,0,120,4.0,73.0
5717,87.0,120,120,1.0,73.0
5718,75.0,0,120,1.0,73.0
5719,72.0,0,120,4.0,73.0
5720,84.0,0,120,4.0,73.0
5721,84.0,0,120,1.0,75.0
5722,72.0,120,120,1.0,75.0
5723,80.0,0,120,4.0,75.0
5724,68.0,0,120,4.0,75.0
5725,60.0,0,120,4.0,75.0
5726,51.0,120,0,5.0,78.0
5727,56.0,0,120,4.0,75.0
5728,82.0,0,480,1.0,78.0
5729,70.0,0,480,1.0,78.0
5730,67.0,0,480,4.0,78.0
5731,79.0,0,480,4.0,78.0
5732,55.0,0,480,4.0,78.0
5733,58.0,0,480,4.0,78.0
5734,63.0,0,240,4.0,87.0
5735,79.0,480,240,1.0,87.0
5736,67.0,0,240,1.0,87.0
5737,39.0,0,240,5.0,87.0
5738,55.0,0,240,4.0,87.0
5739,51.0,0,240,4.0,87.0
5740,75.0,0,240,4.0,87.0
5741,39.0,0,120,5.0,94.0
5742,51.0,0,120,4.0,94.0
5743,67.0,360,120,1.0,94.0
5744,79.0,0,120,1.0,94.0
5745,55.0,0,120,4.0,94.0
5746,65.0,0,240,1.0,101.0
5747,77.0,120,240,1.0,101.0
5748,29.0,0,240,5.0,101.0
5749,46.0,0,240,4.0,101.0
5750,53.0,0,240,4.0,101.0
5751,50.0,0,0,4.0,99.0
5752,53.0,0,0,4.0,97.0
5753,58.0,0,0,4.0,97.0
5754,70.0,0,180,1.0,99.0
5755,82.0,240,180,1.0,99.0
5756,50.0,0,0,4.0,97.0
5757,41.0,0,0,5.0,97.0
5758,74.0,0,60,1.0,97.0
5759,86.0,180,60,1.0,97.0
5760,29.0,0,120,5.0,97.0
5761,48.0,60,120,4.0,97.0
5762,89.0,0,120,1.0,97.0
5763,57.0,0,120,4.0,97.0
5764,51.0,0,120,4.0,97.0
5765,77.0,0,120,1.0,97.0
5766,57.0,0,120,4.0,92.0
5767,41.0,0,120,5.0,92.0
5768,48.0,0,120,4.0,92.0
5769,51.0,0,120,4.0,92.0
5770,77.0,240,120,1.0,92.0
5771,89.0,0,120,1.0,92.0
5772,82.0,0,360,1.0,96.0
5773,70.0,0,360,1.0,96.0
5774,34.0,0,720,5.0,96.0
5775,58.0,240,720,4.0,96.0
5776,46.0,0,720,5.0,96.0
5777,48.0,720,240,5.0,55.0
5778,36.0,0,240,5.0,55.0
5779,60.0,0,240,4.0,55.0
5780,61.0,0,120,4.0,37.0
5781,56.0,120,120,4.0,37.0
5782,53.0,120,120,4.0,37.0
5783,56.0,120,120,4.0,38.0
5784,37.0,0,480,5.0,39.0
5785,49.0,240,480,5.0,39.0
5786,73.0,0,480,1.0,39.0
5787,61.0,120,120,4.0,38.0
5788,56.0,120,120,4.0,38.0
5789,53.0,120,120,4.0,39.0
5790,49.0,0,360,5.0,35.0
5791,37.0,0,360,5.0,35.0
5792,73.0,0,360,1.0,35.0
5793,56.0,120,120,4.0,39.0
5794,73.0,60,60,1.0,37.0
5795,49.0,0,0,5.0,37.0
5796,37.0,0,0,5.0,37.0
5797,61.0,60,120,4.0,40.0
5798,56.0,120,120,4.0,40.0
5799,53.0,120,120,4.0,40.0
5800,56.0,120,120,4.0,41.0
5801,73.0,0,480,1.0,37.0
5802,61.0,120,120,4.0,41.0
5803,73.0,0,120,1.0,38.0
5804,63.0,120,120,4.0,41.0
5805,75.0,0,120,1.0,38.0
5806,65.0,120,120,4.0,42.0
5807,77.0,0,120,1.0,39.0
5808,79.0,120,120,1.0,39.0
5809,67.0,0,120,4.0,42.0
5810,68.0,0,120,4.0,42.0
5811,63.0,120,120,4.0,43.0
5812,60.0,120,120,4.0,43.0
5813,32.0,0,480,5.0,40.0
5814,44.0,0,480,5.0,40.0
5815,63.0,120,120,4.0,43.0
5816,80.0,120,0,1.0,41.0
5817,68.0,0,120,4.0,44.0
5818,63.0,120,120,4.0,44.0
5819,60.0,120,120,4.0,45.0
5820,32.0,0,360,5.0,41.0
5821,44.0,0,360,5.0,41.0
5822,63.0,120,120,4.0,45.0
5823,80.0,0,0,1.0,42.0
5824,32.0,60,0,5.0,42.0
5825,44.0,0,0,5.0,42.0
5826,68.0,0,120,4.0,44.0
5827,63.0,120,120,4.0,46.0
5828,60.0,120,120,4.0,47.0
5829,80.0,120,0,1.0,44.0
5830,63.0,120,120,4.0,48.0
5831,68.0,0,120,4.0,50.0
5832,67.0,120,120,4.0,51.0
5833,79.0,0,120,1.0,44.0
5834,65.0,0,120,4.0,51.0
5835,77.0,120,120,1.0,45.0
5836,75.0,0,120,1.0,45.0
5837,63.0,120,120,4.0,55.0
5838,65.0,0,480,2.0,44.0
5839,68.0,0,480,2.0,44.0
5840,34.0,0,480,5.0,44.0
5841,62.0,0,0,4.0,50.0
5842,74.0,0,480,1.0,44.0
5843,53.0,0,480,4.0,44.0
5844,56.0,480,0,4.0,50.0
5845,46.0,0,0,5.0,50.0
5846,74.0,0,240,1.0,50.0
5847,53.0,0,240,4.0,50.0
5848,34.0,0,240,5.0,50.0
5849,68.0,0,240,2.0,50.0
5850,65.0,0,240,2.0,50.0
5851,74.0,0,40,1.0,51.0
5852,75.0,40,40,1.0,53.0
5853,74.0,40,40,1.0,54.0
5854,72.0,40,60,1.0,55.0
5855,74.0,60,60,1.0,58.0
5856,53.0,0,240,4.0,51.0
5857,56.0,0,240,4.0,51.0
5858,35.0,240,240,5.0,51.0
5859,62.0,0,240,4.0,51.0
5860,65.0,0,240,2.0,51.0
5861,68.0,0,240,2.0,51.0
5862,47.0,0,240,5.0,51.0
5863,75.0,60,120,1.0,60.0
5864,67.0,0,120,2.0,60.0
5865,48.0,0,240,5.0,60.0
5866,55.0,0,240,4.0,60.0
5867,36.0,0,0,5.0,59.0
5868,63.0,0,240,4.0,60.0
5869,51.0,0,240,4.0,60.0
5870,75.0,0,120,1.0,59.0
5871,63.0,0,120,4.0,59.0
5872,55.0,0,120,4.0,59.0
5873,67.0,0,120,2.0,59.0
5874,48.0,240,120,5.0,59.0
5875,51.0,0,120,4.0,59.0
5876,75.0,0,120,1.0,61.0
5877,51.0,0,120,4.0,61.0
5878,55.0,0,120,4.0,61.0
5879,67.0,0,120,2.0,61.0
5880,48.0,480,120,5.0,61.0
5881,36.0,0,120,5.0,61.0
5882,77.0,120,120,1.0,63.0
5883,79.0,0,360,1.0,66.0
5884,48.0,0,360,5.0,66.0
5885,67.0,0,360,1.0,66.0
5886,36.0,0,360,5.0,66.0
5887,75.0,0,360,2.0,66.0
5888,55.0,0,360,4.0,66.0
5889,51.0,120,360,4.0,66.0
5890,63.0,0,360,2.0,66.0
5891,75.0,0,0,2.0,68.0
5892,63.0,0,60,2.0,67.0
5893,51.0,0,60,4.0,67.0
5894,79.0,0,60,1.0,67.0
5895,55.0,0,60,4.0,67.0
5896,67.0,420,60,1.0,67.0
5897,36.0,0,60,5.0,67.0
5898,48.0,0,60,5.0,67.0
5899,41.0,0,360,5.0,68.0
5900,60.0,0,360,4.0,68.0
5901,51.0,0,360,4.0,68.0
5902,81.0,0,360,1.0,68.0
5903,69.0,0,360,1.0,68.0
5904,63.0,0,360,2.0,68.0
5905,29.0,60,360,5.0,68.0
5906,60.0,0,60,4.0,69.0
5907,51.0,0,60,4.0,69.0
5908,75.0,0,60,2.0,69.0
5909,63.0,0,60,2.0,69.0
5910,81.0,0,60,1.0,69.0
5911,41.0,0,60,5.0,69.0
5912,29.0,420,60,5.0,69.0
5913,69.0,0,60,1.0,69.0
5914,62.0,80,0,3.0,62.0
5915,65.0,80,80,3.0,63.0
5916,50.0,0,240,5.0,69.0
5917,58.0,0,240,5.0,69.0
5918,34.0,0,240,5.0,69.0
5919,46.0,0,240,5.0,69.0
5920,70.0,80,80,3.0,63.0
5921,65.0,80,80,3.0,63.0
5922,53.0,0,180,5.0,70.0
5923,41.0,0,180,5.0,70.0
5924,62.0,80,80,3.0,64.0
5925,74.0,0,480,2.0,73.0
5926,82.0,60,480,1.0,73.0
5927,38.0,0,60,5.0,71.0
5928,50.0,20,60,5.0,71.0
5929,70.0,0,480,1.0,62.0
5930,58.0,0,80,3.0,64.0
5931,63.0,80,80,3.0,64.0
5932,34.0,60,240,5.0,71.0
5933,46.0,0,240,5.0,71.0
5934,67.0,80,80,3.0,65.0
5935,70.0,0,80,3.0,65.0
5936,67.0,80,80,3.0,65.0
5937,63.0,80,80,3.0,66.0
5938,44.0,80,240,5.0,72.0
5939,32.0,0,255,5.0,72.0
5940,58.0,80,80,3.0,66.0
5941,63.0,80,80,3.0,66.0
5942,31.0,0,240,5.0,73.0
5943,43.0,0,240,5.0,73.0
5944,82.0,0,480,1.0,85.0
5945,67.0,80,80,3.0,66.0
5946,58.0,0,80,3.0,67.0
5947,63.0,80,80,3.0,67.0
5948,87.0,80,180,1.0,77.0
5949,67.0,80,80,3.0,67.0
5950,82.0,20,60,1.0,78.0
5951,58.0,0,80,3.0,68.0
5952,62.0,80,80,3.0,68.0
5953,79.0,60,240,1.0,78.0
5954,65.0,80,80,3.0,68.0
5955,70.0,0,80,3.0,69.0
5956,51.0,0,120,5.0,76.0
5957,39.0,0,120,5.0,76.0
5958,65.0,80,80,3.0,69.0
5959,53.0,0,60,5.0,77.0
5960,41.0,40,60,5.0,76.0
5961,43.0,20,60,5.0,77.0
5962,62.0,40,80,3.0,69.0
5963,75.0,80,240,1.0,79.0
5964,55.0,0,60,5.0,77.0
5965,58.0,60,80,3.0,70.0
5966,62.0,80,80,3.0,70.0
5967,56.0,0,240,5.0,77.0
5968,44.0,0,240,5.0,77.0
5969,70.0,0,240,1.0,80.0
5970,65.0,80,80,3.0,70.0
5971,70.0,0,80,3.0,70.0
5972,41.0,0,120,5.0,78.0
5973,53.0,80,120,5.0,78.0
5974,65.0,80,80,3.0,71.0
5975,50.0,0,60,5.0,79.0
5976,62.0,80,80,3.0,71.0
5977,38.0,20,60,5.0,79.0
5978,58.0,0,80,3.0,71.0
5979,62.0,80,80,3.0,72.0
5980,34.0,0,240,5.0,79.0
5981,46.0,60,240,5.0,79.0
5982,65.0,80,80,3.0,72.0
5983,70.0,0,80,3.0,72.0
5984,65.0,80,80,3.0,73.0
5985,32.0,0,240,5.0,80.0
5986,44.0,0,240,5.0,80.0
5987,62.0,80,80,3.0,73.0
5988,63.0,0,80,3.0,73.0
5989,67.0,80,80,3.0,74.0
5990,70.0,80,80,3.0,74.0
5991,31.0,80,240,5.0,81.0
5992,43.0,0,240,5.0,81.0
5993,82.0,80,480,1.0,93.0
5994,87.0,0,180,1.0,83.0
5995,63.0,0,180,5.0,83.0
5996,51.0,0,180,5.0,83.0
5997,75.0,80,180,2.0,83.0
5998,58.0,0,60,5.0,81.0
5999,46.0,0,60,5.0,81.0
6000,82.0,180,60,1.0,81.0
6001,70.0,0,60,2.0,81.0
6002,67.0,0,120,2.0,80.0
6003,79.0,0,120,1.0,80.0
6004,55.0,0,120,5.0,80.0
6005,43.0,60,120,5.0,80.0
6006,75.0,0,120,1.0,78.0
6007,51.0,0,120,5.0,78.0
6008,39.0,240,120,5.0,78.0
6009,63.0,0,120,2.0,78.0
6010,46.0,0,240,5.0,65.0
6011,34.0,0,240,5.0,65.0
6012,70.0,0,240,1.0,65.0
6013,58.0,240,240,2.0,65.0
6014,58.0,0,240,4.0,30.0
6015,50.0,240,240,4.0,30.0
6016,69.0,120,120,1.0,31.0
6017,53.0,0,240,4.0,30.0
6018,46.0,120,240,5.0,32.0
6019,34.0,0,240,5.0,32.0
6020,70.0,0,360,1.0,32.0
6021,58.0,0,240,4.0,34.0
6022,50.0,0,240,4.0,34.0
6023,53.0,240,240,4.0,34.0
6024,69.0,120,120,1.0,34.0
6025,70.0,120,120,1.0,35.0
6026,69.0,120,120,1.0,36.0
6027,46.0,0,240,5.0,35.0
6028,34.0,0,240,5.0,35.0
6029,70.0,0,120,1.0,37.0
6030,50.0,120,240,4.0,37.0
6031,53.0,0,240,4.0,37.0
6032,69.0,120,120,1.0,38.0
6033,58.0,0,240,4.0,37.0
6034,70.0,120,120,1.0,39.0
6035,72.0,120,120,1.0,39.0
6036,74.0,120,120,1.0,40.0
6037,75.0,120,120,1.0,41.0
6038,77.0,120,120,1.0,42.0
6039,73.0,120,120,1.0,43.0
6040,74.0,120,120,1.0,44.0
6041,76.0,120,120,1.0,44.0
6042,77.0,120,120,1.0,47.0
6043,79.0,120,120,1.0,45.0
6044,46.0,0,120,4.0,45.0
6045,48.0,0,120,4.0,43.0
6046,80.0,120,120,1.0,43.0
6047,50.0,120,120,4.0,41.0
6048,77.0,0,120,1.0,41.0
6049,63.0,0,78,2.0,42.0
6050,58.0,120,78,2.0,42.0
6051,51.0,0,240,4.0,42.0
6052,39.0,0,240,5.0,42.0
6053,55.0,0,78,2.0,43.0
6054,58.0,120,78,2.0,43.0
6055,51.0,0,240,4.0,43.0
6056,43.0,0,240,4.0,43.0
6057,46.0,120,240,4.0,43.0
6058,75.0,120,480,1.0,42.0
6059,63.0,0,78,2.0,44.0
6060,58.0,120,78,2.0,44.0
6061,39.0,120,240,5.0,44.0
6062,55.0,0,78,2.0,45.0
6063,75.0,0,360,1.0,44.0
6064,58.0,120,78,2.0,45.0
6065,51.0,0,240,4.0,45.0
6066,43.0,0,240,4.0,45.0
6067,75.0,60,60,1.0,45.0
6068,46.0,120,240,4.0,45.0
6069,63.0,60,78,2.0,46.0
6070,58.0,120,78,2.0,46.0
6071,55.0,120,78,2.0,47.0
6072,58.0,120,78,2.0,47.0
6073,51.0,0,240,4.0,47.0
6074,75.0,0,480,1.0,46.0
6075,77.0,80,40,1.0,47.0
6076,39.0,0,240,5.0,47.0
6077,63.0,40,78,2.0,47.0
6078,75.0,0,120,1.0,47.0
6079,58.0,0,78,2.0,48.0
6080,43.0,0,240,5.0,47.0
6081,55.0,0,240,4.0,47.0
6082,74.0,120,120,1.0,48.0
6083,63.0,120,78,2.0,48.0
6084,75.0,0,120,1.0,48.0
6085,67.0,0,78,2.0,49.0
6086,79.0,120,120,1.0,49.0
6087,39.0,0,240,5.0,48.0
6088,51.0,0,240,4.0,48.0
6089,65.0,0,78,2.0,49.0
6090,62.0,120,78,2.0,50.0
6091,46.0,0,240,4.0,49.0
6092,34.0,0,240,5.0,49.0
6093,58.0,0,78,2.0,50.0
6094,62.0,120,78,2.0,51.0
6095,46.0,0,240,4.0,50.0
6096,53.0,120,240,4.0,50.0
6097,77.0,120,0,1.0,51.0
6098,50.0,0,240,4.0,50.0
6099,65.0,0,78,2.0,51.0
6100,62.0,120,78,2.0,52.0
6101,34.0,0,240,5.0,51.0
6102,58.0,0,78,2.0,52.0
6103,62.0,120,78,2.0,53.0
6104,46.0,0,240,4.0,52.0
6105,53.0,120,240,4.0,52.0
6106,77.0,60,60,1.0,53.0
6107,50.0,0,240,4.0,52.0
6108,65.0,60,78,2.0,53.0
6109,62.0,120,78,2.0,54.0
6110,58.0,0,78,2.0,54.0
6111,62.0,120,78,2.0,54.0
6112,77.0,0,480,1.0,53.0
6113,79.0,80,40,1.0,55.0
6114,34.0,120,240,5.0,54.0
6115,46.0,0,240,4.0,54.0
6116,65.0,40,120,2.0,55.0
6117,77.0,0,120,1.0,55.0
6118,50.0,0,240,4.0,55.0
6119,38.0,0,240,5.0,55.0
6120,64.0,120,120,2.0,55.0
6121,76.0,0,120,1.0,55.0
6122,65.0,120,120,2.0,56.0
6123,77.0,0,120,1.0,56.0
6124,80.0,120,120,1.0,56.0
6125,46.0,0,240,4.0,56.0
6126,34.0,0,240,5.0,56.0
6127,68.0,0,120,2.0,56.0
6128,39.0,0,78,5.0,57.0
6129,51.0,0,78,4.0,57.0
6130,79.0,120,96,1.0,57.0
6131,67.0,0,96,2.0,57.0
6132,46.0,0,78,4.0,57.0
6133,34.0,0,78,5.0,57.0
6134,82.0,0,96,1.0,57.0
6135,70.0,120,96,2.0,57.0
6136,31.0,0,78,5.0,58.0
6137,43.0,0,78,4.0,58.0
6138,70.0,120,96,2.0,58.0
6139,82.0,0,96,1.0,58.0
6140,34.0,0,78,5.0,58.0
6141,46.0,0,78,4.0,58.0
6142,70.0,120,96,2.0,58.0
6143,82.0,0,96,1.0,58.0
6144,39.0,0,78,5.0,59.0
6145,51.0,0,78,4.0,59.0
6146,82.0,0,96,1.0,59.0
6147,70.0,120,96,2.0,59.0
6148,46.0,0,78,4.0,59.0
6149,34.0,0,78,5.0,59.0
6150,82.0,0,96,1.0,59.0
6151,70.0,120,96,2.0,59.0
6152,31.0,0,78,5.0,60.0
6153,43.0,0,78,4.0,60.0
6154,70.0,120,96,2.0,60.0
6155,82.0,0,96,1.0,60.0
6156,46.0,0,78,4.0,60.0
6157,34.0,0,78,5.0,60.0
6158,82.0,0,96,1.0,60.0
6159,70.0,120,96,2.0,60.0
6160,51.0,0,78,4.0,61.0
6161,39.0,0,78,5.0,61.0
6162,70.0,0,96,2.0,61.0
6163,82.0,120,96,1.0,61.0
6164,34.0,0,78,5.0,61.0
6165,46.0,0,78,4.0,61.0
6166,82.0,120,96,1.0,61.0
6167,70.0,0,96,2.0,61.0
6168,31.0,0,78,5.0,62.0
6169,43.0,0,78,4.0,62.0
6170,70.0,120,96,2.0,62.0
6171,82.0,0,96,1.0,62.0
6172,46.0,120,78,4.0,62.0
6173,34.0,0,78,5.0,62.0
6174,70.0,0,96,2.0,62.0
6175,82.0,0,96,1.0,62.0
6176,39.0,0,78,5.0,62.0
6177,51.0,0,78,4.0,62.0
6178,82.0,0,96,1.0,62.0
6179,70.0,120,96,2.0,62.0
6180,34.0,0,78,5.0,63.0
6181,46.0,120,78,4.0,63.0
6182,82.0,0,96,1.0,63.0
6183,70.0,0,96,2.0,63.0
6184,51.0,0,78,4.0,63.0
6185,39.0,0,78,5.0,63.0
6186,70.0,0,96,2.0,63.0
6187,82.0,120,96,1.0,63.0
6188,43.0,0,78,5.0,64.0
6189,55.0,0,78,4.0,64.0
6190,70.0,0,96,2.0,64.0
6191,82.0,120,96,1.0,64.0
6192,53.0,0,78,4.0,64.0
6193,41.0,120,78,5.0,64.0
6194,70.0,0,96,2.0,64.0
6195,82.0,0,96,1.0,64.0
6196,38.0,0,78,5.0,65.0
6197,50.0,120,78,4.0,65.0
6198,82.0,0,96,1.0,65.0
6199,70.0,0,96,2.0,65.0
6200,46.0,0,78,4.0,65.0
6201,34.0,120,78,5.0,65.0
6202,70.0,0,96,2.0,65.0
6203,82.0,0,96,1.0,65.0
6204,38.0,0,78,5.0,66.0
6205,50.0,0,78,4.0,66.0
6206,70.0,120,96,2.0,66.0
6207,82.0,0,96,1.0,66.0
6208,41.0,120,78,5.0,66.0
6209,53.0,0,78,4.0,66.0
6210,70.0,0,96,2.0,66.0
6211,82.0,0,96,1.0,66.0
6212,38.0,120,78,5.0,67.0
6213,50.0,0,78,4.0,67.0
6214,70.0,0,96,2.0,67.0
6215,82.0,0,96,1.0,67.0
6216,46.0,120,78,4.0,67.0
6217,34.0,0,78,5.0,67.0
6218,82.0,0,96,1.0,67.0
6219,70.0,0,96,2.0,67.0
6220,50.0,0,78,4.0,68.0
6221,38.0,120,78,5.0,68.0
6222,70.0,0,96,2.0,68.0
6223,82.0,0,96,1.0,68.0
6224,41.0,0,78,5.0,68.0
6225,53.0,120,78,4.0,68.0
6226,70.0,0,96,2.0,68.0
6227,82.0,0,96,1.0,68.0
6228,38.0,0,78,5.0,69.0
6229,50.0,0,78,4.0,69.0
6230,82.0,120,96,1.0,69.0
6231,70.0,0,96,2.0,69.0
6232,34.0,0,78,5.0,69.0
6233,46.0,0,78,4.0,69.0
6234,70.0,120,96,2.0,69.0
6235,82.0,0,96,1.0,69.0
6236,38.0,0,78,5.0,69.0
6237,50.0,120,78,4.0,69.0
6238,70.0,0,96,2.0,69.0
6239,82.0,0,96,1.0,69.0
6240,53.0,0,78,4.0,70.0
6241,41.0,120,78,5.0,70.0
6242,82.0,0,96,1.0,70.0
6243,70.0,0,96,2.0,70.0
6244,50.0,120,78,4.0,70.0
6245,38.0,0,78,5.0,70.0
6246,82.0,0,96,1.0,70.0
6247,70.0,0,96,2.0,70.0
6248,41.0,0,78,5.0,71.0
6249,53.0,0,78,4.0,71.0
6250,82.0,0,96,1.0,71.0
6251,70.0,120,96,2.0,71.0
6252,56.0,0,78,4.0,72.0
6253,44.0,0,78,5.0,72.0
6254,70.0,0,96,2.0,72.0
6255,82.0,120,96,1.0,72.0
6256,70.0,120,96,2.0,72.0
6257,82.0,0,96,1.0,72.0
6258,55.0,0,0,4.0,73.0
6259,39.0,0,120,5.0,72.0
6260,87.0,0,96,1.0,73.0
6261,75.0,120,96,2.0,73.0
6262,51.0,120,0,4.0,73.0
6263,39.0,0,120,5.0,73.0
6264,75.0,0,96,2.0,73.0
6265,87.0,0,96,1.0,73.0
6266,41.0,0,120,5.0,73.0
6267,51.0,120,0,4.0,74.0
6268,56.0,0,120,4.0,73.0
6269,75.0,0,96,2.0,74.0
6270,87.0,0,96,1.0,74.0
6271,58.0,0,120,4.0,74.0
6272,43.0,0,120,5.0,74.0
6273,51.0,0,0,4.0,74.0
6274,87.0,0,96,1.0,74.0
6275,75.0,0,96,2.0,74.0
6276,60.0,0,120,4.0,74.0
6277,44.0,120,120,5.0,74.0
6278,87.0,0,96,1.0,75.0
6279,75.0,0,96,2.0,75.0
6280,46.0,0,120,5.0,75.0
6281,62.0,0,120,4.0,75.0
6282,51.0,0,0,4.0,75.0
6283,75.0,0,96,2.0,75.0
6284,87.0,120,96,1.0,75.0
6285,48.0,0,120,5.0,75.0
6286,63.0,0,120,4.0,75.0
6287,51.0,0,0,4.0,75.0
6288,87.0,0,96,1.0,75.0
6289,75.0,0,96,2.0,75.0
6290,44.0,0,120,5.0,75.0
6291,51.0,120,0,4.0,76.0
6292,60.0,120,120,4.0,75.0
6293,75.0,0,120,2.0,76.0
6294,87.0,0,120,1.0,76.0
6295,74.0,120,120,2.0,76.0
6296,86.0,0,120,1.0,76.0
6297,87.0,0,120,1.0,77.0
6298,75.0,120,120,2.0,77.0
6299,58.0,0,480,4.0,76.0
6300,86.0,0,120,1.0,77.0
6301,74.0,120,120,2.0,77.0
6302,43.0,0,480,5.0,76.0
6303,75.0,120,120,2.0,78.0
6304,87.0,0,120,1.0,78.0
6305,74.0,120,120,2.0,78.0
6306,39.0,0,240,5.0,78.0
6307,86.0,0,120,1.0,78.0
6308,58.0,0,0,4.0,79.0
6309,55.0,0,240,4.0,78.0
6310,75.0,0,120,2.0,79.0
6311,61.0,0,120,4.0,79.0
6312,87.0,0,120,1.0,79.0
6313,31.0,120,120,5.0,79.0
6314,43.0,0,120,5.0,79.0
6315,61.0,0,60,4.0,79.0
6316,31.0,0,60,5.0,79.0
6317,43.0,0,60,5.0,79.0
6318,58.0,60,60,4.0,79.0
6319,88.0,0,120,1.0,79.0
6320,76.0,120,120,2.0,79.0
6321,32.0,0,156,5.0,80.0
6322,44.0,0,156,5.0,80.0
6323,77.0,0,156,1.0,80.0
6324,56.0,0,156,4.0,80.0
6325,60.0,60,156,4.0,80.0
6326,89.0,0,156,1.0,80.0
6327,44.0,0,144,5.0,86.0
6328,32.0,0,144,5.0,86.0
6329,89.0,0,144,1.0,86.0
6330,77.0,0,144,1.0,86.0
6331,60.0,240,144,4.0,86.0
6332,56.0,0,144,4.0,86.0
6333,89.0,0,48,1.0,81.0
6334,60.0,0,48,4.0,81.0
6335,56.0,180,48,4.0,81.0
6336,77.0,0,48,1.0,81.0
6337,32.0,0,48,5.0,81.0
6338,44.0,0,48,5.0,81.0
6339,74.0,0,156,1.0,81.0
6340,86.0,0,156,1.0,81.0
6341,53.0,0,156,4.0,81.0
6342,56.0,0,156,4.0,81.0
6343,80.0,0,156,2.0,81.0
6344,65.0,60,156,2.0,81.0
6345,34.0,0,156,5.0,81.0
6346,46.0,0,156,5.0,81.0
6347,68.0,0,156,2.0,81.0
6348,34.0,0,144,5.0,91.0
6349,46.0,0,144,5.0,91.0
6350,65.0,0,144,2.0,91.0
6351,74.0,0,144,1.0,91.0
6352,68.0,0,144,2.0,91.0
6353,80.0,0,144,2.0,91.0
6354,86.0,240,144,1.0,91.0
6355,53.0,0,144,4.0,91.0
6356,56.0,0,144,4.0,91.0
6357,46.0,0,48,5.0,83.0
6358,34.0,0,48,5.0,83.0
6359,80.0,0,48,2.0,83.0
6360,86.0,0,48,1.0,83.0
6361,56.0,0,48,4.0,83.0
6362,74.0,0,48,1.0,83.0
6363,65.0,180,48,2.0,83.0
6364,68.0,0,48,2.0,83.0
6365,53.0,0,48,4.0,83.0
6366,39.0,0,120,5.0,90.0
6367,51.0,120,0,4.0,86.0
6368,55.0,0,0,4.0,86.0
6369,79.0,60,120,2.0,90.0
6370,67.0,0,120,2.0,90.0
6371,63.0,0,0,2.0,86.0
6372,87.0,0,120,1.0,90.0
6373,75.0,0,120,1.0,90.0
6374,79.0,0,120,1.0,86.0
6375,67.0,0,120,1.0,86.0
6376,39.0,120,0,5.0,87.0
6377,75.0,0,120,2.0,86.0
6378,77.0,0,120,2.0,87.0
6379,65.0,0,120,2.0,87.0
6380,53.0,0,120,4.0,87.0
6381,56.0,0,120,4.0,87.0
6382,68.0,0,120,1.0,87.0
6383,80.0,0,120,1.0,87.0
6384,39.0,0,120,5.0,88.0
6385,70.0,0,120,1.0,88.0
6386,58.0,0,120,4.0,88.0
6387,55.0,120,120,4.0,88.0
6388,82.0,0,120,1.0,88.0
6389,67.0,0,120,2.0,88.0
6390,79.0,0,120,2.0,88.0
6391,68.0,0,120,2.0,89.0
6392,80.0,0,120,2.0,89.0
6393,39.0,0,0,5.0,91.0
6394,60.0,120,120,4.0,89.0
6395,56.0,0,120,4.0,89.0
6396,51.0,0,0,5.0,91.0
6397,84.0,0,120,1.0,89.0
6398,72.0,0,120,1.0,89.0
6399,82.0,120,120,2.0,91.0
6400,70.0,0,120,2.0,91.0
6401,39.0,0,0,5.0,92.0
6402,51.0,0,0,5.0,92.0
6403,58.0,0,120,4.0,91.0
6404,62.0,0,120,4.0,91.0
6405,74.0,0,120,1.0,91.0
6406,86.0,0,120,1.0,91.0
6407,84.0,0,120,2.0,92.0
6408,72.0,0,120,2.0,92.0
6409,60.0,0,0,4.0,93.0
6410,63.0,0,120,4.0,92.0
6411,87.0,120,120,1.0,92.0
6412,75.0,0,120,1.0,92.0
6413,39.0,0,120,5.0,93.0
6414,51.0,0,0,5.0,95.0
6415,72.0,0,120,1.0,93.0
6416,84.0,0,120,1.0,93.0
6417,56.0,0,120,4.0,93.0
6418,80.0,0,120,2.0,93.0
6419,68.0,0,120,2.0,93.0
6420,39.0,0,0,5.0,80.0
6421,55.0,0,0,4.0,80.0
6422,58.0,0,480,4.0,95.0
6423,79.0,0,480,2.0,95.0
6424,67.0,0,480,2.0,95.0
6425,70.0,0,480,1.0,95.0
6426,82.0,0,480,1.0,95.0
6427,67.0,480,240,1.0,80.0
6428,79.0,0,240,1.0,80.0
6429,51.0,0,240,4.0,80.0
6430,63.0,0,240,2.0,80.0
6431,75.0,0,240,2.0,80.0
6432,67.0,0,144,1.0,85.0
6433,79.0,240,144,1.0,85.0
6434,67.0,0,48,1.0,89.0
6435,79.0,180,48,1.0,89.0
6436,67.0,0,720,1.0,92.0
6437,79.0,720,0,1.0,75.0
6438,62.0,60,720,2.0,92.0
6439,71.0,0,720,2.0,92.0
6440,59.0,0,720,2.0,92.0
6441,74.0,0,720,2.0,92.0
6442,67.0,0,60,1.0,75.0
6443,77.0,0,60,1.0,74.0
6444,65.0,60,60,1.0,74.0
6445,75.0,60,60,1.0,72.0
6446,63.0,0,60,1.0,72.0
6447,47.0,0,960,4.0,92.0
6448,50.0,0,960,4.0,92.0
6449,55.0,0,960,4.0,92.0
6450,43.0,0,960,5.0,92.0
6451,31.0,0,960,5.0,92.0
6452,62.0,0,60,1.0,71.0
6453,74.0,60,60,1.0,71.0
6454,48.0,0,156,5.0,70.0
6455,36.0,0,156,5.0,70.0
6456,51.0,0,156,4.0,70.0
6457,55.0,0,156,4.0,70.0
6458,75.0,0,240,1.0,70.0
6459,63.0,60,240,1.0,70.0
6460,60.0,0,156,4.0,72.0
6461,44.0,240,156,5.0,72.0
6462,56.0,0,156,4.0,72.0
6463,32.0,0,156,5.0,72.0
6464,84.0,0,180,1.0,72.0
6465,68.0,0,180,2.0,72.0
6466,80.0,0,180,2.0,72.0
6467,72.0,0,180,1.0,72.0
6468,80.0,0,60,1.0,69.0
6469,68.0,0,60,1.0,69.0
6470,65.0,0,60,2.0,69.0
6471,77.0,180,60,2.0,69.0
6472,79.0,0,120,1.0,68.0
6473,67.0,60,120,1.0,68.0
6474,75.0,0,120,2.0,68.0
6475,63.0,0,120,2.0,68.0
6476,34.0,0,156,5.0,68.0
6477,55.0,0,156,4.0,68.0
6478,58.0,0,156,4.0,68.0
6479,46.0,0,156,5.0,68.0
6480,65.0,0,120,1.0,64.0
6481,74.0,0,120,2.0,64.0
6482,77.0,0,120,1.0,64.0
6483,62.0,240,120,2.0,64.0
6484,58.0,0,156,4.0,64.0
6485,46.0,0,156,5.0,64.0
6486,34.0,0,156,5.0,64.0
6487,71.0,0,720,2.0,79.0
6488,62.0,0,720,2.0,79.0
6489,59.0,0,720,2.0,79.0
6490,74.0,0,720,2.0,79.0
6491,67.0,720,0,1.0,64.0
6492,79.0,0,720,1.0,79.0
6493,79.0,0,60,1.0,64.0
6494,77.0,60,60,1.0,63.0
6495,65.0,0,60,1.0,63.0
6496,63.0,0,60,1.0,61.0
6497,75.0,60,60,1.0,61.0
6498,47.0,0,960,4.0,79.0
6499,50.0,0,960,4.0,79.0
6500,55.0,0,960,4.0,79.0
6501,74.0,0,60,1.0,59.0
6502,62.0,60,60,1.0,59.0
6503,43.0,0,960,5.0,79.0
6504,31.0,240,960,5.0,79.0
6505,48.0,0,240,5.0,58.0
6506,36.0,0,240,5.0,58.0
6507,63.0,0,240,1.0,58.0
6508,48.0,0,240,2.0,58.0
6509,75.0,0,240,1.0,58.0
6510,51.0,0,0,4.0,68.0
6511,55.0,0,0,4.0,68.0
6512,60.0,0,240,4.0,68.0
6513,87.0,0,480,1.0,68.0
6514,75.0,0,480,1.0,68.0
6515,44.0,0,240,5.0,63.0
6516,32.0,240,240,5.0,63.0
6517,72.0,240,480,2.0,68.0
6518,84.0,0,480,2.0,68.0
6519,74.0,0,120,1.0,60.0
6520,82.0,0,120,2.0,60.0
6521,70.0,0,120,2.0,60.0
6522,86.0,0,120,1.0,60.0
6523,72.0,0,78,1.0,58.0
6524,80.0,0,78,2.0,58.0
6525,68.0,120,78,2.0,58.0
6526,84.0,0,78,1.0,58.0
6527,51.0,0,240,4.0,60.0
6528,56.0,0,240,4.0,60.0
6529,60.0,240,240,4.0,60.0
6530,72.0,0,120,1.0,57.0
6531,68.0,120,120,2.0,57.0
6532,80.0,0,120,2.0,57.0
6533,84.0,0,120,1.0,57.0
6534,79.0,0,78,2.0,55.0
6535,67.0,0,78,2.0,55.0
6536,82.0,120,78,1.0,55.0
6537,70.0,0,78,1.0,55.0
6538,34.0,0,240,5.0,57.0
6539,46.0,0,240,5.0,57.0
6540,77.0,0,78,2.0,54.0
6541,65.0,0,78,2.0,54.0
6542,68.0,0,78,1.0,54.0
6543,80.0,0,78,1.0,54.0
6544,75.0,0,78,2.0,52.0
6545,79.0,0,78,1.0,52.0
6546,67.0,0,78,1.0,52.0
6547,63.0,120,78,2.0,52.0
6548,58.0,120,240,4.0,54.0
6549,51.0,0,240,4.0,54.0
6550,55.0,0,240,4.0,54.0
6551,79.0,0,120,2.0,51.0
6552,70.0,120,120,1.0,51.0
6553,67.0,0,120,2.0,51.0
6554,82.0,0,120,1.0,51.0
6555,80.0,0,78,1.0,49.0
6556,65.0,120,78,2.0,49.0
6557,77.0,0,78,2.0,49.0
6558,68.0,0,78,1.0,49.0
6559,34.0,0,240,5.0,51.0
6560,46.0,0,240,5.0,51.0
6561,63.0,0,78,2.0,47.0
6562,75.0,0,78,2.0,47.0
6563,67.0,0,78,1.0,47.0
6564,79.0,0,78,1.0,47.0
6565,77.0,0,78,1.0,46.0
6566,65.0,120,78,1.0,46.0
6567,74.0,0,78,2.0,46.0
6568,62.0,0,78,2.0,46.0
6569,56.0,0,240,4.0,47.0
6570,58.0,0,0,4.0,48.0
6571,63.0,120,78,1.0,48.0
6572,75.0,0,78,1.0,48.0
6573,82.0,120,78,1.0,47.0
6574,70.0,0,78,2.0,47.0
6575,51.0,0,240,5.0,48.0
6576,55.0,0,240,4.0,48.0
6577,39.0,0,240,5.0,48.0
6578,67.0,120,78,2.0,47.0
6579,79.0,0,78,1.0,47.0
6580,82.0,120,78,1.0,47.0
6581,70.0,0,78,2.0,47.0
6582,75.0,120,78,2.0,47.0
6583,87.0,0,78,1.0,47.0
6584,82.0,0,78,1.0,46.0
6585,70.0,120,78,2.0,46.0
6586,79.0,0,78,1.0,46.0
6587,67.0,120,78,2.0,46.0
6588,70.0,120,78,2.0,46.0
6589,82.0,0,78,1.0,46.0
6590,74.0,120,78,2.0,46.0
6591,86.0,0,78,1.0,46.0
6592,82.0,0,78,1.0,46.0
6593,70.0,120,78,2.0,46.0
6594,68.0,0,78,2.0,45.0
6595,80.0,120,78,1.0,45.0
6596,70.0,0,78,2.0,45.0
6597,82.0,120,78,1.0,45.0
6598,62.0,0,480,4.0,46.0
6599,65.0,120,0,4.0,45.0
6600,53.0,0,0,4.0,45.0
6601,46.0,0,480,5.0,51.0
6602,58.0,0,0,4.0,45.0
6603,74.0,0,78,2.0,45.0
6604,86.0,0,78,1.0,45.0
6605,70.0,120,78,2.0,45.0
6606,82.0,0,78,1.0,45.0
6607,68.0,120,78,2.0,44.0
6608,80.0,0,78,1.0,44.0
6609,62.0,0,360,4.0,45.0
6610,46.0,0,360,5.0,54.0
6611,82.0,120,78,1.0,44.0
6612,70.0,0,78,2.0,44.0
6613,53.0,0,60,4.0,44.0
6614,62.0,0,60,4.0,44.0
6615,58.0,0,0,4.0,44.0
6616,65.0,0,60,4.0,44.0
6617,46.0,60,60,5.0,44.0
6618,75.0,0,78,2.0,44.0
6619,87.0,0,78,1.0,44.0
6620,70.0,120,78,2.0,44.0
6621,82.0,0,78,1.0,44.0
6622,67.0,60,240,4.0,44.0
6623,55.0,0,240,4.0,44.0
6624,63.0,0,240,4.0,44.0
6625,51.0,0,240,5.0,49.0
6626,79.0,120,78,1.0,44.0
6627,67.0,0,78,2.0,44.0
6628,82.0,120,78,1.0,43.0
6629,70.0,0,78,2.0,43.0
6630,87.0,120,78,1.0,43.0
6631,75.0,0,78,2.0,43.0
6632,70.0,0,78,2.0,43.0
6633,82.0,120,78,1.0,43.0
6634,58.0,0,480,5.0,59.0
6635,67.0,120,78,2.0,43.0
6636,79.0,0,78,1.0,43.0
6637,55.0,0,180,5.0,48.0
6638,82.0,0,78,1.0,42.0
6639,70.0,120,78,2.0,42.0
6640,51.0,60,60,5.0,47.0
6641,74.0,0,78,2.0,42.0
6642,86.0,60,78,1.0,42.0
6643,70.0,120,78,2.0,42.0
6644,82.0,0,78,1.0,42.0
6645,68.0,0,78,2.0,42.0
6646,80.0,120,78,1.0,42.0
6647,70.0,0,78,2.0,42.0
6648,82.0,120,78,1.0,42.0
6649,62.0,0,0,4.0,41.0
6650,56.0,0,0,4.0,41.0
6651,53.0,0,0,4.0,41.0
6652,65.0,120,0,4.0,41.0
6653,58.0,0,0,4.0,41.0
6654,46.0,0,0,5.0,46.0
6655,74.0,0,78,2.0,41.0
6656,86.0,0,78,1.0,41.0
6657,82.0,0,78,1.0,41.0
6658,70.0,120,78,2.0,41.0
6659,80.0,0,78,1.0,41.0
6660,68.0,120,78,2.0,41.0
6661,82.0,0,78,1.0,41.0
6662,70.0,120,78,2.0,41.0
6663,46.0,60,60,5.0,46.0
6664,65.0,0,60,4.0,41.0
6665,56.0,0,60,4.0,41.0
6666,53.0,0,60,4.0,41.0
6667,58.0,0,0,4.0,40.0
6668,62.0,0,60,4.0,41.0
6669,39.0,0,78,5.0,45.0
6670,63.0,0,78,4.0,40.0
6671,51.0,0,78,4.0,40.0
6672,55.0,0,78,4.0,40.0
6673,58.0,120,78,4.0,40.0
6674,46.0,0,78,5.0,40.0
6675,43.0,0,78,5.0,40.0
6676,55.0,120,78,4.0,40.0
6677,58.0,120,78,4.0,40.0
6678,46.0,0,78,5.0,40.0
6679,67.0,0,480,2.0,40.0
6680,87.0,60,480,1.0,40.0
6681,79.0,0,480,2.0,40.0
6682,75.0,0,480,2.0,40.0
6683,63.0,0,78,4.0,40.0
6684,51.0,120,78,5.0,40.0
6685,46.0,0,78,5.0,39.0
6686,58.0,120,78,4.0,39.0
6687,43.0,120,78,5.0,39.0
6688,55.0,0,78,4.0,39.0
6689,58.0,0,78,4.0,39.0
6690,46.0,120,78,5.0,39.0
6691,50.0,0,78,4.0,39.0
6692,62.0,120,78,4.0,39.0
6693,34.0,0,78,5.0,39.0
6694,58.0,0,78,4.0,38.0
6695,46.0,120,78,5.0,38.0
6696,56.0,120,78,4.0,38.0
6697,44.0,0,78,5.0,38.0
6698,58.0,120,78,4.0,38.0
6699,46.0,0,78,5.0,38.0
6700,70.0,0,480,2.0,39.0
6701,65.0,0,480,1.0,39.0
6702,74.0,0,480,2.0,39.0
6703,77.0,0,0,1.0,38.0
6704,34.0,0,78,5.0,38.0
6705,50.0,0,78,4.0,38.0
6706,62.0,0,78,4.0,38.0
6707,58.0,0,78,4.0,38.0
6708,46.0,120,78,5.0,38.0
6709,56.0,120,78,4.0,37.0
6710,44.0,0,78,5.0,37.0
6711,65.0,0,360,1.0,38.0
6712,74.0,0,360,2.0,38.0
6713,70.0,120,360,2.0,38.0
6714,58.0,120,78,4.0,37.0
6715,46.0,0,78,5.0,37.0
6716,77.0,60,60,1.0,37.0
6717,74.0,0,60,2.0,37.0
6718,70.0,0,0,2.0,37.0
6719,65.0,0,60,1.0,37.0
6720,39.0,0,78,5.0,37.0
6721,63.0,0,78,4.0,37.0
6722,51.0,0,78,4.0,37.0
6723,46.0,120,78,5.0,37.0
6724,58.0,0,78,4.0,37.0
6725,67.0,0,240,1.0,37.0
6726,79.0,0,240,1.0,37.0
6727,75.0,60,240,2.0,37.0
6728,55.0,0,78,4.0,43.0
6729,43.0,0,78,5.0,43.0
6730,58.0,120,78,4.0,36.0
6731,46.0,0,78,5.0,36.0
6732,39.0,0,78,5.0,36.0
6733,51.0,120,78,4.0,36.0
6734,63.0,0,78,4.0,36.0
6735,46.0,120,78,5.0,36.0
6736,58.0,0,78,4.0,36.0
6737,70.0,120,480,1.0,53.0
6738,82.0,0,480,1.0,53.0
6739,55.0,0,78,4.0,36.0
6740,43.0,120,78,5.0,36.0
6741,67.0,0,180,1.0,36.0
6742,79.0,0,180,1.0,36.0
6743,58.0,120,78,4.0,35.0
6744,46.0,0,78,5.0,35.0
6745,63.0,0,60,1.0,35.0
6746,75.0,60,60,1.0,35.0
6747,34.0,0,78,5.0,35.0
6748,62.0,60,78,4.0,35.0
6749,50.0,0,78,4.0,35.0
6750,46.0,120,78,5.0,35.0
6751,58.0,0,78,4.0,35.0
6752,56.0,120,78,4.0,35.0
6753,44.0,0,78,5.0,35.0
6754,58.0,0,78,4.0,34.0
6755,46.0,120,78,5.0,34.0
6756,70.0,0,480,2.0,35.0
6757,74.0,0,480,2.0,35.0
6758,65.0,0,480,1.0,35.0
6759,77.0,0,480,1.0,35.0
6760,34.0,0,78,5.0,34.0
6761,50.0,0,78,4.0,34.0
6762,62.0,0,78,4.0,34.0
6763,46.0,120,78,5.0,34.0
6764,58.0,0,78,4.0,34.0
6765,44.0,120,78,5.0,34.0
6766,56.0,0,78,4.0,34.0
6767,65.0,0,360,1.0,34.0
6768,77.0,0,360,1.0,34.0
6769,74.0,0,360,2.0,34.0
6770,70.0,120,360,2.0,34.0
6771,58.0,0,78,4.0,34.0
6772,46.0,120,78,5.0,34.0
6773,74.0,0,60,2.0,33.0
6774,70.0,0,0,2.0,33.0
6775,65.0,0,60,1.0,33.0
6776,77.0,0,60,1.0,33.0
6777,55.0,0,78,4.0,33.0
6778,39.0,0,78,5.0,33.0
6779,75.0,0,192,1.0,33.0
6780,67.0,60,192,2.0,33.0
6781,39.0,120,78,5.0,33.0
6782,51.0,0,78,4.0,33.0
6783,55.0,0,78,4.0,33.0
6784,43.0,0,78,5.0,33.0
6785,87.0,0,96,1.0,33.0
6786,70.0,120,96,2.0,33.0
6787,67.0,0,96,2.0,33.0
6788,82.0,0,96,2.0,33.0
6789,79.0,0,96,2.0,33.0
6790,58.0,120,78,4.0,33.0
6791,46.0,0,78,5.0,33.0
6792,87.0,0,48,1.0,33.0
6793,82.0,60,48,2.0,33.0
6794,79.0,0,48,2.0,33.0
6795,67.0,0,48,2.0,33.0
6796,70.0,0,48,2.0,33.0
6797,39.0,0,78,5.0,32.0
6798,51.0,0,78,4.0,32.0
6799,67.0,0,192,2.0,32.0
6800,87.0,0,192,1.0,32.0
6801,75.0,0,192,2.0,32.0
6802,79.0,0,192,2.0,32.0
6803,63.0,60,192,2.0,32.0
6804,51.0,0,78,4.0,32.0
6805,39.0,120,78,5.0,32.0
6806,43.0,0,78,5.0,32.0
6807,55.0,120,78,4.0,32.0
6808,87.0,0,144,1.0,32.0
6809,67.0,0,144,2.0,32.0
6810,79.0,0,144,2.0,32.0
6811,82.0,0,144,2.0,32.0
6812,70.0,0,144,2.0,32.0
6813,58.0,0,78,4.0,32.0
6814,46.0,120,78,5.0,32.0
6815,82.0,60,48,2.0,32.0
6816,79.0,0,48,2.0,32.0
6817,87.0,0,48,1.0,32.0
6818,67.0,0,48,2.0,32.0
6819,70.0,0,48,2.0,32.0
6820,63.0,0,156,2.0,32.0
6821,75.0,0,156,2.0,32.0
6822,87.0,0,156,1.0,32.0
6823,39.0,60,156,5.0,32.0
6824,79.0,0,156,2.0,32.0
6825,51.0,0,156,4.0,32.0
6826,67.0,0,156,2.0,32.0
6827,75.0,0,156,2.0,31.0
6828,51.0,0,156,4.0,31.0
6829,39.0,240,156,5.0,31.0
6830,87.0,0,156,1.0,31.0
6831,79.0,0,156,2.0,31.0
6832,63.0,0,156,2.0,31.0
6833,75.0,240,156,2.0,31.0
6834,79.0,0,156,2.0,31.0
6835,63.0,0,156,2.0,31.0
6836,51.0,0,156,4.0,31.0
6837,39.0,0,156,5.0,31.0
6838,87.0,0,156,1.0,31.0
6839,45.0,0,78,4.0,72.0
6840,69.0,0,78,1.0,72.0
6841,33.0,2280,78,5.0,72.0
6842,57.0,0,78,2.0,72.0
6843,45.0,0,360,4.0,80.0
6844,57.0,0,360,2.0,80.0
6845,33.0,0,360,5.0,80.0
6846,69.0,120,360,1.0,80.0
6847,38.0,480,156,5.0,74.0
6848,50.0,0,156,4.0,74.0
6849,62.0,0,156,2.0,74.0
6850,74.0,0,156,1.0,74.0
6851,33.0,0,78,5.0,75.0
6852,45.0,360,78,4.0,75.0
6853,57.0,0,78,2.0,75.0
6854,69.0,0,78,1.0,75.0
6855,57.0,0,360,2.0,82.0
6856,33.0,120,360,5.0,82.0
6857,45.0,0,360,4.0,82.0
6858,69.0,0,360,1.0,82.0
6859,38.0,0,156,5.0,77.0
6860,74.0,480,156,1.0,77.0
6861,50.0,0,156,4.0,77.0
6862,62.0,0,156,2.0,77.0
6863,69.0,0,78,1.0,78.0
6864,33.0,0,78,5.0,78.0
6865,57.0,360,78,2.0,78.0
6866,45.0,0,78,4.0,78.0
6867,45.0,0,360,4.0,85.0
6868,69.0,0,360,1.0,85.0
6869,33.0,0,360,5.0,85.0
6870,57.0,120,360,2.0,85.0
6871,50.0,0,156,4.0,80.0
6872,38.0,0,156,5.0,80.0
6873,74.0,0,156,1.0,80.0
6874,62.0,480,156,2.0,80.0
6875,42.0,0,78,5.0,81.0
6876,54.0,0,78,4.0,81.0
6877,78.0,0,78,1.0,81.0
6878,66.0,360,78,2.0,81.0
6879,69.0,0,840,2.0,87.0
6880,57.0,120,840,4.0,87.0
6881,45.0,0,840,5.0,87.0
6882,81.0,0,840,1.0,87.0
6883,79.0,0,40,1.0,59.0
6884,81.0,40,40,1.0,59.0
6885,79.0,40,40,1.0,59.0
6886,81.0,40,40,1.0,58.0
6887,79.0,40,40,1.0,58.0
6888,81.0,40,40,1.0,58.0
6889,79.0,40,40,1.0,58.0
6890,81.0,40,40,1.0,58.0
6891,79.0,40,40,1.0,58.0
6892,78.0,40,60,1.0,58.0
6893,67.0,0,480,4.0,59.0
6894,64.0,0,0,4.0,57.0
6895,79.0,60,60,1.0,57.0
6896,57.0,0,0,5.0,57.0
6897,76.0,0,156,1.0,57.0
6898,73.0,240,156,1.0,56.0
6899,67.0,60,480,4.0,57.0
6900,74.0,240,240,1.0,57.0
6901,78.0,240,156,1.0,54.0
6902,62.0,0,840,5.0,57.0
6903,69.0,240,360,1.0,51.0
6904,66.0,0,840,4.0,57.0
6905,62.0,480,40,1.0,51.0
6906,64.0,40,40,1.0,50.0
6907,62.0,40,40,1.0,50.0
6908,64.0,40,40,1.0,50.0
6909,62.0,40,40,1.0,50.0
6910,64.0,40,40,1.0,49.0
6911,62.0,40,40,1.0,49.0
6912,64.0,40,40,1.0,49.0
6913,62.0,40,40,1.0,48.0
6914,61.0,40,60,1.0,48.0
6915,62.0,60,60,1.0,48.0
6916,50.0,0,0,4.0,49.0
6917,47.0,60,0,4.0,49.0
6918,40.0,0,0,5.0,49.0
6919,59.0,0,156,1.0,49.0
6920,56.0,240,156,1.0,46.0
6921,49.0,0,522,4.0,44.0
6922,57.0,240,522,1.0,44.0
6923,45.0,0,522,5.0,44.0
6924,79.0,0,40,1.0,54.0
6925,81.0,40,40,1.0,54.0
6926,79.0,40,40,1.0,54.0
6927,81.0,40,40,1.0,54.0
6928,79.0,40,40,1.0,54.0
6929,81.0,40,40,1.0,54.0
6930,79.0,40,40,1.0,53.0
6931,81.0,40,40,1.0,53.0
6932,79.0,40,40,1.0,53.0
6933,78.0,40,60,1.0,53.0
6934,64.0,960,480,4.0,54.0
6935,67.0,60,0,4.0,53.0
6936,57.0,0,480,5.0,54.0
6937,79.0,60,60,1.0,53.0
6938,76.0,0,156,1.0,53.0
6939,73.0,240,156,1.0,52.0
6940,57.0,0,480,5.0,53.0
6941,64.0,0,480,4.0,53.0
6942,74.0,0,240,1.0,53.0
6943,78.0,240,156,1.0,50.0
6944,62.0,240,835,5.0,53.0
6945,69.0,240,360,1.0,47.0
6946,66.0,0,840,4.0,53.0
6947,55.0,0,40,1.0,47.0
6948,57.0,40,40,1.0,47.0
6949,55.0,40,40,1.0,47.0
6950,57.0,40,40,1.0,46.0
6951,55.0,40,40,1.0,46.0
6952,57.0,40,40,1.0,46.0
6953,55.0,40,40,1.0,46.0
6954,57.0,40,40,1.0,45.0
6955,55.0,40,40,1.0,45.0
6956,54.0,40,60,1.0,45.0
6957,55.0,60,60,1.0,44.0
6958,33.0,480,480,5.0,47.0
6959,40.0,0,480,4.0,47.0
6960,43.0,0,0,4.0,44.0
6961,52.0,60,240,1.0,44.0
6962,40.0,0,480,4.0,44.0
6963,49.0,240,240,1.0,45.0
6964,33.0,0,480,5.0,44.0
6965,50.0,0,480,1.0,42.0
6966,42.0,0,480,4.0,42.0
6967,38.0,240,480,5.0,42.0
6968,41.0,0,78,5.0,64.0
6969,53.0,840,78,5.0,64.0
6970,29.0,0,78,5.0,64.0
6971,53.0,0,360,5.0,64.0
6972,41.0,120,360,5.0,64.0
6973,29.0,0,360,5.0,64.0
6974,58.0,0,156,5.0,65.0
6975,34.0,0,156,5.0,65.0
6976,46.0,480,156,5.0,65.0
6977,53.0,0,78,5.0,65.0
6978,29.0,0,78,5.0,65.0
6979,41.0,360,78,5.0,65.0
6980,53.0,0,360,5.0,65.0
6981,29.0,120,360,5.0,65.0
6982,41.0,0,360,5.0,65.0
6983,34.0,0,156,5.0,66.0
6984,46.0,480,156,5.0,66.0
6985,58.0,0,156,5.0,66.0
6986,29.0,0,78,5.0,66.0
6987,41.0,360,78,5.0,66.0
6988,53.0,0,78,5.0,66.0
6989,29.0,0,360,5.0,66.0
6990,41.0,120,360,5.0,66.0
6991,53.0,0,360,5.0,66.0
6992,36.0,0,156,5.0,67.0
6993,48.0,0,156,5.0,67.0
6994,60.0,480,156,5.0,67.0
6995,41.0,360,78,5.0,67.0
6996,29.0,0,78,5.0,67.0
6997,53.0,0,78,5.0,67.0
6998,41.0,0,360,5.0,68.0
6999,29.0,0,360,5.0,68.0
7000,53.0,120,360,5.0,68.0
7001,36.0,0,156,5.0,68.0
7002,48.0,0,156,5.0,68.0
7003,60.0,480,156,5.0,68.0
7004,41.0,0,78,5.0,69.0
7005,29.0,0,78,5.0,69.0
7006,65.0,360,78,2.0,69.0
7007,53.0,0,78,5.0,69.0
7008,77.0,0,78,1.0,69.0
7009,65.0,120,160,2.0,69.0
7010,77.0,0,160,1.0,69.0
7011,74.0,0,104,1.0,69.0
7012,70.0,160,104,2.0,69.0
7013,41.0,0,360,5.0,69.0
7014,29.0,0,360,5.0,69.0
7015,53.0,0,360,5.0,69.0
7016,65.0,160,104,2.0,69.0
7017,77.0,0,104,1.0,69.0
7018,34.0,0,156,5.0,69.0
7019,58.0,0,156,5.0,69.0
7020,46.0,160,156,5.0,69.0
7021,77.0,0,160,1.0,69.0
7022,65.0,0,160,2.0,69.0
7023,70.0,160,104,2.0,70.0
7024,74.0,0,104,1.0,70.0
7025,65.0,160,104,2.0,70.0
7026,77.0,0,104,1.0,70.0
7027,41.0,40,78,5.0,70.0
7028,29.0,0,78,5.0,70.0
7029,53.0,0,78,5.0,70.0
7030,65.0,0,160,2.0,70.0
7031,77.0,120,160,1.0,70.0
7032,74.0,160,104,1.0,70.0
7033,70.0,0,104,2.0,70.0
7034,29.0,0,360,5.0,70.0
7035,41.0,0,360,5.0,70.0
7036,53.0,0,360,5.0,70.0
7037,65.0,160,104,2.0,70.0
7038,77.0,0,104,1.0,70.0
7039,34.0,0,156,5.0,71.0
7040,58.0,0,156,5.0,71.0
7041,46.0,0,156,5.0,71.0
7042,65.0,0,160,2.0,71.0
7043,77.0,160,160,1.0,71.0
7044,74.0,0,104,1.0,71.0
7045,70.0,160,104,2.0,71.0
7046,65.0,160,104,2.0,71.0
7047,77.0,0,104,1.0,71.0
7048,29.0,0,78,5.0,71.0
7049,53.0,0,78,5.0,71.0
7050,41.0,40,78,5.0,71.0
7051,77.0,0,160,1.0,71.0
7052,65.0,0,160,2.0,71.0
7053,75.0,160,104,1.0,71.0
7054,69.0,0,104,2.0,71.0
7055,53.0,0,360,5.0,71.0
7056,29.0,0,360,5.0,71.0
7057,41.0,120,360,5.0,71.0
7058,65.0,0,104,2.0,72.0
7059,77.0,160,104,1.0,72.0
7060,60.0,160,156,5.0,72.0
7061,48.0,0,156,5.0,72.0
7062,36.0,0,156,5.0,72.0
7063,65.0,0,160,2.0,72.0
7064,77.0,0,160,1.0,72.0
7065,69.0,160,104,2.0,72.0
7066,75.0,0,104,1.0,72.0
7067,77.0,0,104,1.0,72.0
7068,65.0,160,104,2.0,72.0
7069,41.0,0,78,5.0,72.0
7070,53.0,40,78,5.0,72.0
7071,29.0,0,78,5.0,72.0
7072,65.0,120,160,2.0,72.0
7073,77.0,0,160,1.0,72.0
7074,75.0,0,104,1.0,73.0
7075,69.0,160,104,2.0,73.0
7076,29.0,0,360,5.0,72.0
7077,41.0,0,360,5.0,72.0
7078,53.0,0,360,5.0,72.0
7079,77.0,0,104,1.0,73.0
7080,65.0,160,104,2.0,73.0
7081,36.0,0,156,5.0,73.0
7082,48.0,0,156,5.0,73.0
7083,60.0,0,156,5.0,73.0
7084,77.0,160,160,1.0,73.0
7085,65.0,0,160,2.0,73.0
7086,75.0,160,104,1.0,73.0
7087,69.0,0,104,2.0,73.0
7088,65.0,160,104,2.0,73.0
7089,77.0,0,104,1.0,73.0
7090,41.0,0,78,5.0,73.0
7091,53.0,0,78,5.0,73.0
7092,29.0,40,78,5.0,73.0
7093,53.0,0,160,4.0,74.0
7094,77.0,120,288,1.0,74.0
7095,58.0,160,160,4.0,74.0
7096,82.0,40,96,1.0,74.0
7097,65.0,0,480,2.0,74.0
7098,34.0,0,480,5.0,74.0
7099,46.0,0,480,5.0,74.0
7100,53.0,160,160,4.0,74.0
7101,82.0,120,40,1.0,74.0
7102,84.0,40,40,1.0,74.0
7103,82.0,40,40,1.0,74.0
7104,50.0,0,160,4.0,74.0
7105,84.0,40,40,1.0,74.0
7106,82.0,0,40,1.0,74.0
7107,84.0,40,40,1.0,74.0
7108,82.0,40,40,1.0,74.0
7109,84.0,40,40,1.0,75.0
7110,46.0,40,160,4.0,74.0
7111,82.0,40,40,1.0,75.0
7112,81.0,40,60,1.0,75.0
7113,58.0,0,160,4.0,75.0
7114,62.0,0,480,2.0,74.0
7115,70.0,0,480,2.0,74.0
7116,65.0,0,480,2.0,74.0
7117,82.0,60,60,1.0,75.0
7118,77.0,0,288,1.0,75.0
7119,58.0,160,160,4.0,75.0
7120,82.0,40,96,1.0,75.0
7121,53.0,160,160,4.0,75.0
7122,46.0,60,480,5.0,75.0
7123,34.0,0,480,5.0,75.0
7124,82.0,0,40,1.0,75.0
7125,84.0,40,40,1.0,75.0
7126,82.0,40,40,1.0,75.0
7127,50.0,120,160,4.0,75.0
7128,84.0,40,40,1.0,76.0
7129,82.0,40,40,1.0,76.0
7130,84.0,40,40,1.0,76.0
7131,82.0,40,40,1.0,76.0
7132,46.0,0,160,4.0,76.0
7133,84.0,40,40,1.0,76.0
7134,82.0,40,40,1.0,76.0
7135,81.0,40,60,1.0,76.0
7136,58.0,0,160,4.0,76.0
7137,82.0,60,60,1.0,76.0
7138,70.0,0,480,2.0,75.0
7139,62.0,0,480,2.0,75.0
7140,65.0,0,480,2.0,75.0
7141,79.0,60,288,1.0,76.0
7142,58.0,160,160,4.0,76.0
7143,79.0,0,96,2.0,76.0
7144,82.0,40,96,1.0,76.0
7145,55.0,160,160,4.0,76.0
7146,39.0,0,480,5.0,76.0
7147,51.0,120,160,4.0,77.0
7148,46.0,160,160,4.0,77.0
7149,67.0,0,0,2.0,77.0
7150,58.0,160,160,4.0,77.0
7151,70.0,0,480,2.0,77.0
7152,63.0,0,480,2.0,77.0
7153,58.0,160,160,4.0,77.0
7154,79.0,0,960,2.0,88.0
7155,55.0,160,160,4.0,78.0
7156,63.0,0,0,2.0,78.0
7157,70.0,0,0,2.0,78.0
7158,67.0,160,0,2.0,78.0
7159,39.0,160,480,5.0,77.0
7160,82.0,0,960,1.0,87.0
7161,84.0,0,120,1.0,78.0
7162,80.0,0,120,2.0,78.0
7163,51.0,0,160,4.0,78.0
7164,82.0,120,120,1.0,78.0
7165,79.0,0,120,2.0,78.0
7166,46.0,40,160,4.0,78.0
7167,81.0,80,120,1.0,78.0
7168,77.0,0,120,2.0,78.0
7169,58.0,80,160,4.0,78.0
7170,75.0,0,120,2.0,78.0
7171,79.0,40,120,1.0,78.0
7172,53.0,160,160,4.0,78.0
7173,77.0,0,360,1.0,78.0
7174,74.0,120,360,2.0,78.0
7175,65.0,0,360,2.0,78.0
7176,62.0,0,360,2.0,78.0
7177,50.0,160,160,4.0,79.0
7178,41.0,0,480,5.0,78.0
7179,46.0,160,160,4.0,79.0
7180,58.0,0,288,4.0,79.0
7181,74.0,0,288,1.0,79.0
7182,70.0,0,288,2.0,79.0
7183,62.0,0,288,2.0,79.0
7184,41.0,160,160,4.0,79.0
7185,58.0,40,96,4.0,81.0
7186,74.0,0,96,1.0,81.0
7187,70.0,0,96,2.0,81.0
7188,62.0,0,96,2.0,81.0
7189,53.0,160,160,4.0,79.0
7190,53.0,160,160,4.0,79.0
7191,60.0,0,360,2.0,80.0
7192,75.0,0,360,1.0,80.0
7193,72.0,120,360,2.0,80.0
7194,63.0,0,360,2.0,80.0
7195,48.0,160,160,4.0,78.0
7196,29.0,0,480,5.0,80.0
7197,45.0,0,160,4.0,77.0
7198,57.0,0,288,4.0,77.0
7199,60.0,0,288,2.0,77.0
7200,69.0,160,288,2.0,77.0
7201,72.0,0,288,1.0,77.0
7202,41.0,160,160,4.0,76.0
7203,65.0,0,96,2.0,74.0
7204,77.0,40,96,1.0,74.0
7205,53.0,160,160,4.0,75.0
7206,77.0,0,160,1.0,74.0
7207,65.0,120,160,2.0,74.0
7208,70.0,160,104,2.0,74.0
7209,74.0,0,104,1.0,74.0
7210,46.0,0,160,4.0,74.0
7211,50.0,0,160,4.0,74.0
7212,34.0,0,360,5.0,74.0
7213,65.0,0,104,2.0,75.0
7214,82.0,160,104,1.0,75.0
7215,53.0,0,160,4.0,75.0
7216,65.0,160,160,2.0,75.0
7217,82.0,0,160,1.0,75.0
7218,77.0,0,104,1.0,75.0
7219,70.0,0,104,2.0,75.0
7220,53.0,0,160,4.0,75.0
7221,50.0,160,160,4.0,75.0
7222,46.0,0,360,5.0,75.0
7223,77.0,160,104,1.0,76.0
7224,65.0,0,104,2.0,76.0
7225,58.0,0,160,4.0,76.0
7226,77.0,0,160,1.0,76.0
7227,65.0,0,160,2.0,76.0
7228,74.0,160,104,1.0,76.0
7229,70.0,0,104,2.0,76.0
7230,50.0,0,160,4.0,76.0
7231,46.0,0,160,4.0,76.0
7232,34.0,160,360,5.0,76.0
7233,82.0,160,104,1.0,77.0
7234,65.0,0,104,2.0,77.0
7235,53.0,0,160,4.0,77.0
7236,65.0,160,160,2.0,77.0
7237,82.0,0,160,1.0,77.0
7238,77.0,0,104,1.0,78.0
7239,70.0,160,104,2.0,78.0
7240,50.0,0,160,4.0,78.0
7241,53.0,0,160,4.0,78.0
7242,46.0,0,360,5.0,77.0
7243,67.0,0,104,2.0,78.0
7244,79.0,0,104,1.0,78.0
7245,58.0,160,160,4.0,78.0
7246,79.0,160,160,1.0,78.0
7247,67.0,0,160,2.0,78.0
7248,75.0,160,104,1.0,79.0
7249,63.0,0,104,2.0,79.0
7250,46.0,0,160,4.0,79.0
7251,51.0,0,160,4.0,79.0
7252,39.0,0,360,5.0,78.0
7253,67.0,0,104,2.0,79.0
7254,70.0,0,104,2.0,79.0
7255,82.0,160,104,1.0,79.0
7256,55.0,0,160,4.0,79.0
7257,55.0,160,160,4.0,80.0
7258,51.0,0,360,5.0,79.0
7259,58.0,160,160,4.0,80.0
7260,82.0,160,720,1.0,89.0
7261,70.0,0,720,2.0,89.0
7262,67.0,0,720,2.0,89.0
7263,55.0,160,160,4.0,81.0
7264,81.0,80,120,1.0,81.0
7265,69.0,0,120,2.0,81.0
7266,51.0,160,360,5.0,81.0
7267,58.0,80,160,4.0,81.0
7268,82.0,40,120,1.0,81.0
7269,70.0,0,120,2.0,81.0
7270,84.0,0,120,1.0,82.0
7271,72.0,0,120,2.0,82.0
7272,82.0,120,120,1.0,82.0
7273,70.0,0,120,2.0,82.0
7274,51.0,40,160,4.0,82.0
7275,55.0,0,160,4.0,82.0
7276,69.0,0,120,2.0,82.0
7277,39.0,120,360,5.0,82.0
7278,81.0,80,120,1.0,82.0
7279,79.0,0,120,1.0,82.0
7280,67.0,40,120,2.0,82.0
7281,58.0,80,160,4.0,82.0
7282,53.0,0,160,4.0,83.0
7283,50.0,160,160,4.0,83.0
7284,65.0,0,360,2.0,83.0
7285,41.0,0,360,5.0,83.0
7286,77.0,120,360,1.0,83.0
7287,58.0,160,160,4.0,84.0
7288,86.0,0,288,1.0,84.0
7289,70.0,0,288,2.0,84.0
7290,74.0,0,288,2.0,84.0
7291,82.0,0,288,2.0,84.0
7292,46.0,160,160,4.0,84.0
7293,50.0,0,160,4.0,84.0
7294,41.0,0,360,5.0,84.0
7295,29.0,160,360,5.0,84.0
7296,86.0,0,96,1.0,85.0
7297,82.0,0,96,2.0,85.0
7298,74.0,0,96,2.0,85.0
7299,70.0,40,96,2.0,85.0
7300,53.0,160,160,4.0,85.0
7301,87.0,120,288,1.0,85.0
7302,84.0,0,288,2.0,85.0
7303,75.0,0,288,2.0,85.0
7304,72.0,0,288,2.0,85.0
7305,48.0,0,160,4.0,84.0
7306,45.0,160,160,4.0,84.0
7307,41.0,0,360,5.0,85.0
7308,29.0,0,360,5.0,85.0
7309,72.0,0,96,2.0,83.0
7310,75.0,40,96,2.0,83.0
7311,84.0,0,96,2.0,83.0
7312,87.0,0,96,1.0,83.0
7313,53.0,160,160,4.0,83.0
7314,84.0,0,288,1.0,82.0
7315,72.0,0,288,2.0,82.0
7316,69.0,0,288,2.0,82.0
7317,81.0,0,288,2.0,82.0
7318,51.0,160,160,4.0,81.0
7319,29.0,0,360,5.0,82.0
7320,41.0,120,360,5.0,82.0
7321,72.0,0,96,2.0,80.0
7322,81.0,0,96,2.0,80.0
7323,69.0,0,96,2.0,80.0
7324,84.0,40,96,1.0,80.0
7325,53.0,160,160,4.0,80.0
7326,50.0,0,104,4.0,80.0
7327,53.0,160,104,4.0,80.0
7328,82.0,120,360,1.0,80.0
7329,34.0,0,360,5.0,80.0
7330,46.0,0,360,5.0,80.0
7331,70.0,0,360,2.0,80.0
7332,58.0,160,104,4.0,81.0
7333,51.0,0,104,4.0,81.0
7334,75.0,160,160,2.0,81.0
7335,84.0,0,160,1.0,81.0
7336,39.0,0,234,5.0,81.0
7337,55.0,0,104,4.0,82.0
7338,86.0,0,160,1.0,82.0
7339,77.0,160,160,2.0,82.0
7340,60.0,0,104,4.0,82.0
7341,39.0,40,78,5.0,83.0
7342,87.0,160,160,1.0,82.0
7343,79.0,0,160,2.0,82.0
7344,50.0,120,104,4.0,83.0
7345,77.0,0,160,2.0,83.0
7346,86.0,0,160,1.0,83.0
7347,53.0,0,104,4.0,83.0
7348,75.0,160,160,2.0,83.0
7349,84.0,0,160,1.0,83.0
7350,41.0,0,360,5.0,83.0
7351,58.0,0,104,4.0,84.0
7352,82.0,0,160,1.0,84.0
7353,74.0,160,160,2.0,84.0
7354,48.0,0,104,4.0,84.0
7355,72.0,0,160,2.0,84.0
7356,81.0,0,160,1.0,84.0
7357,29.0,160,234,5.0,84.0
7358,53.0,0,104,4.0,85.0
7359,74.0,0,160,2.0,85.0
7360,82.0,160,160,1.0,85.0
7361,57.0,160,104,4.0,85.0
7362,29.0,40,78,5.0,85.0
7363,84.0,0,160,1.0,85.0
7364,75.0,0,160,2.0,85.0
7365,50.0,0,104,4.0,86.0
7366,74.0,0,160,2.0,86.0
7367,82.0,120,160,1.0,86.0
7368,53.0,160,104,4.0,86.0
7369,72.0,0,160,2.0,86.0
7370,81.0,0,160,1.0,86.0
7371,34.0,0,360,5.0,86.0
7372,58.0,0,104,4.0,87.0
7373,82.0,0,160,1.0,87.0
7374,74.0,160,160,2.0,87.0
7375,51.0,0,104,4.0,87.0
7376,84.0,0,160,1.0,87.0
7377,75.0,0,160,2.0,87.0
7378,39.0,160,234,5.0,87.0
7379,55.0,0,104,4.0,88.0
7380,77.0,160,160,2.0,88.0
7381,86.0,0,160,1.0,88.0
7382,60.0,0,104,4.0,88.0
7383,39.0,40,78,5.0,88.0
7384,79.0,0,160,2.0,88.0
7385,87.0,160,160,1.0,88.0
7386,50.0,120,104,4.0,89.0
7387,77.0,0,160,2.0,89.0
7388,86.0,0,160,1.0,89.0
7389,53.0,0,104,4.0,89.0
7390,75.0,0,160,2.0,89.0
7391,84.0,160,160,1.0,89.0
7392,41.0,0,360,5.0,89.0
7393,58.0,160,104,4.0,90.0
7394,74.0,0,160,2.0,90.0
7395,82.0,0,160,1.0,90.0
7396,48.0,0,104,4.0,90.0
7397,81.0,160,160,1.0,90.0
7398,72.0,0,160,2.0,90.0
7399,29.0,0,234,5.0,90.0
7400,53.0,160,104,4.0,91.0
7401,82.0,0,160,1.0,91.0
7402,74.0,0,160,2.0,91.0
7403,57.0,0,104,4.0,91.0
7404,29.0,40,78,5.0,91.0
7405,84.0,0,160,1.0,91.0
7406,75.0,160,160,2.0,91.0
7407,82.0,120,160,1.0,90.0
7408,86.0,160,160,1.0,90.0
7409,58.0,0,480,4.0,90.0
7410,34.0,0,480,5.0,90.0
7411,82.0,160,160,1.0,91.0
7412,50.0,0,480,4.0,90.0
7413,53.0,0,480,4.0,90.0
7414,77.0,160,160,1.0,91.0
7415,74.0,160,160,1.0,92.0
7416,77.0,160,160,1.0,92.0
7417,82.0,0,160,1.0,92.0
7418,86.0,160,160,1.0,93.0
7419,46.0,0,480,5.0,92.0
7420,34.0,0,480,5.0,92.0
7421,53.0,160,480,4.0,92.0
7422,58.0,0,480,4.0,92.0
7423,82.0,160,160,1.0,93.0
7424,50.0,0,480,4.0,92.0
7425,77.0,160,160,1.0,94.0
7426,74.0,160,160,1.0,94.0
7427,77.0,160,160,1.0,95.0
7428,82.0,0,480,1.0,95.0
7429,62.0,0,480,2.0,95.0
7430,70.0,160,480,2.0,95.0
7431,46.0,0,480,5.0,95.0
7432,53.0,0,480,4.0,95.0
7433,58.0,0,480,4.0,95.0
7434,50.0,0,480,4.0,95.0
7435,65.0,0,480,2.0,95.0
7436,34.0,0,480,5.0,95.0
7437,58.0,960,128,4.0,49.0
7438,57.0,160,128,4.0,48.0
7439,55.0,160,128,4.0,48.0
7440,53.0,160,128,4.0,48.0
7441,52.0,160,128,4.0,47.0
7442,50.0,160,128,4.0,47.0
7443,33.0,0,360,5.0,46.0
7444,45.0,160,360,5.0,46.0
7445,49.0,0,360,4.0,46.0
7446,52.0,480,288,4.0,45.0
7447,52.0,360,96,4.0,44.0
7448,33.0,120,360,5.0,44.0
7449,45.0,0,360,4.0,44.0
7450,52.0,480,288,4.0,43.0
7451,52.0,360,96,4.0,42.0
7452,49.0,0,360,4.0,41.0
7453,45.0,0,360,5.0,41.0
7454,33.0,120,360,5.0,41.0
7455,52.0,480,240,4.0,39.0
7456,82.0,480,128,1.0,51.0
7457,81.0,160,128,1.0,51.0
7458,79.0,160,128,1.0,50.0
7459,77.0,160,128,1.0,50.0
7460,76.0,160,128,1.0,49.0
7461,74.0,160,128,1.0,49.0
7462,64.0,160,360,5.0,49.0
7463,57.0,0,360,4.0,49.0
7464,67.0,0,360,5.0,49.0
7465,73.0,0,360,1.0,49.0
7466,76.0,480,288,1.0,47.0
7467,55.0,0,288,4.0,47.0
7468,76.0,0,96,1.0,46.0
7469,55.0,360,96,4.0,46.0
7470,67.0,0,360,5.0,46.0
7471,57.0,0,360,5.0,46.0
7472,64.0,120,360,5.0,46.0
7473,69.0,0,360,1.0,46.0
7474,52.0,0,360,4.0,46.0
7475,49.0,480,288,4.0,45.0
7476,76.0,0,288,1.0,45.0
7477,49.0,360,96,4.0,44.0
7478,76.0,0,96,1.0,44.0
7479,73.0,0,360,1.0,43.0
7480,67.0,0,360,5.0,43.0
7481,64.0,0,360,5.0,43.0
7482,57.0,120,360,5.0,43.0
7483,45.0,0,360,4.0,43.0
7484,76.0,480,240,1.0,41.0
7485,55.0,0,240,4.0,41.0
7486,55.0,360,96,4.0,51.0
7487,58.0,120,128,4.0,51.0
7488,57.0,160,128,4.0,51.0
7489,55.0,160,128,4.0,51.0
7490,53.0,160,128,4.0,50.0
7491,52.0,160,128,4.0,50.0
7492,50.0,160,128,4.0,50.0
7493,70.0,0,128,2.0,50.0
7494,69.0,160,128,2.0,50.0
7495,45.0,0,360,5.0,50.0
7496,49.0,160,360,4.0,50.0
7497,33.0,0,360,5.0,50.0
7498,67.0,160,128,2.0,49.0
7499,65.0,160,128,2.0,49.0
7500,52.0,0,240,4.0,49.0
7501,64.0,160,128,2.0,49.0
7502,62.0,160,128,2.0,49.0
7503,82.0,0,128,1.0,48.0
7504,81.0,160,128,1.0,48.0
7505,61.0,160,360,2.0,48.0
7506,79.0,160,128,1.0,48.0
7507,77.0,0,128,1.0,48.0
7508,64.0,160,245,2.0,48.0
7509,55.0,0,288,4.0,48.0
7510,76.0,160,128,1.0,48.0
7511,74.0,160,128,1.0,47.0
7512,55.0,40,96,4.0,47.0
7513,58.0,120,128,4.0,47.0
7514,57.0,160,128,4.0,47.0
7515,73.0,0,360,1.0,47.0
7516,55.0,160,128,4.0,47.0
7517,53.0,160,128,4.0,46.0
7518,76.0,0,235,1.0,46.0
7519,52.0,160,128,4.0,46.0
7520,50.0,160,128,4.0,46.0
7521,46.0,160,128,5.0,46.0
7522,45.0,160,128,5.0,48.0
7523,49.0,0,360,4.0,46.0
7524,43.0,160,128,5.0,49.0
7525,41.0,0,128,5.0,50.0
7526,52.0,160,245,4.0,50.0
7527,40.0,160,128,5.0,51.0
7528,38.0,160,128,5.0,52.0
7529,37.0,160,360,5.0,55.0
7530,40.0,480,235,5.0,51.0
7531,45.0,0,360,4.0,95.0
7532,33.0,1920,360,5.0,95.0
7533,81.0,0,360,1.0,95.0
7534,57.0,0,360,2.0,95.0
7535,69.0,0,360,2.0,95.0
7536,33.0,0,78,5.0,74.0
7537,69.0,1320,78,1.0,74.0
7538,45.0,0,78,4.0,74.0
7539,57.0,0,78,2.0,74.0
7540,33.0,120,360,5.0,81.0
7541,45.0,0,360,4.0,81.0
7542,69.0,0,360,1.0,81.0
7543,57.0,0,360,2.0,81.0
7544,50.0,0,156,4.0,76.0
7545,62.0,0,156,2.0,76.0
7546,74.0,0,156,1.0,76.0
7547,38.0,480,156,5.0,76.0
7548,57.0,360,78,2.0,77.0
7549,69.0,0,78,1.0,77.0
7550,45.0,0,78,4.0,77.0
7551,33.0,0,78,5.0,77.0
7552,57.0,120,360,2.0,81.0
7553,69.0,0,360,1.0,81.0
7554,45.0,0,360,4.0,81.0
7555,33.0,0,360,5.0,81.0
7556,74.0,480,156,1.0,79.0
7557,38.0,0,156,5.0,79.0
7558,50.0,0,156,4.0,79.0
7559,62.0,0,156,2.0,79.0
7560,57.0,0,78,2.0,80.0
7561,45.0,360,78,4.0,80.0
7562,33.0,0,78,5.0,80.0
7563,69.0,0,78,1.0,80.0
7564,69.0,0,360,1.0,85.0
7565,33.0,120,360,5.0,85.0
7566,45.0,0,360,4.0,85.0
7567,57.0,0,360,2.0,85.0
7568,38.0,0,156,5.0,82.0
7569,50.0,0,156,4.0,82.0
7570,74.0,480,156,1.0,82.0
7571,62.0,0,156,2.0,82.0
7572,66.0,0,78,2.0,83.0
7573,78.0,360,78,1.0,83.0
7574,54.0,0,78,4.0,83.0
7575,42.0,0,78,5.0,83.0
7576,69.0,0,960,2.0,87.0
7577,57.0,120,960,4.0,87.0
7578,45.0,0,960,5.0,87.0
7579,81.0,0,960,1.0,87.0
7580,55.0,960,40,1.0,53.0
7581,57.0,40,40,1.0,53.0
7582,55.0,40,40,1.0,53.0
7583,57.0,40,40,1.0,53.0
7584,55.0,40,40,1.0,53.0
7585,57.0,40,40,1.0,53.0
7586,55.0,40,40,1.0,52.0
7587,57.0,40,40,1.0,52.0
7588,55.0,40,40,1.0,52.0
7589,54.0,40,60,1.0,52.0
7590,55.0,60,60,1.0,52.0
7591,40.0,0,480,4.0,53.0
7592,43.0,0,480,4.0,53.0
7593,33.0,60,0,5.0,51.0
7594,52.0,0,156,1.0,51.0
7595,49.0,240,156,1.0,51.0
7596,43.0,0,480,4.0,51.0
7597,40.0,0,480,4.0,51.0
7598,50.0,240,240,1.0,50.0
7599,54.0,240,156,1.0,48.0
7600,42.0,0,960,4.0,50.0
7601,45.0,240,480,1.0,46.0
7602,38.0,0,960,5.0,50.0
7603,86.0,480,40,1.0,51.0
7604,88.0,40,40,1.0,51.0
7605,86.0,40,40,1.0,51.0
7606,88.0,40,40,1.0,51.0
7607,86.0,40,40,1.0,50.0
7608,88.0,40,40,1.0,50.0
7609,86.0,40,40,1.0,50.0
7610,88.0,40,40,1.0,50.0
7611,86.0,40,40,1.0,50.0
7612,85.0,40,60,1.0,50.0
7613,74.0,0,480,4.0,51.0
7614,71.0,0,480,4.0,51.0
7615,86.0,60,60,1.0,50.0
7616,64.0,0,480,5.0,51.0
7617,83.0,0,156,1.0,50.0
7618,80.0,240,156,1.0,48.0
7619,74.0,60,480,4.0,50.0
7620,71.0,0,480,4.0,50.0
7621,64.0,0,480,5.0,50.0
7622,69.0,0,960,5.0,46.0
7623,73.0,240,960,4.0,46.0
7624,81.0,0,960,1.0,46.0
7625,55.0,0,40,1.0,47.0
7626,57.0,40,40,1.0,47.0
7627,55.0,40,40,1.0,47.0
7628,57.0,40,40,1.0,47.0
7629,55.0,40,40,1.0,47.0
7630,57.0,40,40,1.0,46.0
7631,55.0,40,40,1.0,46.0
7632,57.0,40,40,1.0,46.0
7633,55.0,40,40,1.0,46.0
7634,54.0,40,60,1.0,46.0
7635,55.0,60,60,1.0,46.0
7636,40.0,960,480,4.0,47.0
7637,43.0,0,480,4.0,47.0
7638,33.0,0,0,5.0,45.0
7639,52.0,0,156,1.0,45.0
7640,49.0,240,156,1.0,45.0
7641,43.0,60,480,4.0,45.0
7642,40.0,0,480,4.0,45.0
7643,50.0,0,240,1.0,44.0
7644,54.0,240,156,1.0,42.0
7645,45.0,240,480,1.0,40.0
7646,38.0,0,960,5.0,44.0
7647,42.0,240,960,4.0,44.0
7648,79.0,480,40,1.0,45.0
7649,81.0,40,40,1.0,45.0
7650,79.0,40,40,1.0,45.0
7651,81.0,40,40,1.0,45.0
7652,79.0,40,40,1.0,45.0
7653,81.0,40,40,1.0,45.0
7654,79.0,40,40,1.0,45.0
7655,81.0,40,40,1.0,45.0
7656,79.0,40,40,1.0,45.0
7657,78.0,40,60,1.0,45.0
7658,79.0,60,60,1.0,44.0
7659,64.0,0,0,4.0,44.0
7660,67.0,0,0,4.0,44.0
7661,57.0,0,480,5.0,45.0
7662,76.0,60,240,1.0,44.0
7663,57.0,0,480,5.0,44.0
7664,73.0,240,240,1.0,44.0
7665,74.0,0,160,1.0,43.0
7666,69.0,160,104,1.0,43.0
7667,78.0,160,104,1.0,42.0
7668,62.0,0,480,5.0,43.0
7669,66.0,240,480,4.0,43.0
7670,78.0,160,160,1.0,47.0
7671,74.0,160,104,1.0,53.0
7672,81.0,160,104,1.0,59.0
7673,69.0,0,104,2.0,59.0
7674,33.0,40,78,4.0,60.0
7675,45.0,0,78,5.0,60.0
7676,81.0,0,160,1.0,64.0
7677,69.0,120,160,2.0,64.0
7678,78.0,160,104,1.0,64.0
7679,74.0,0,104,2.0,64.0
7680,33.0,0,360,4.0,64.0
7681,45.0,0,360,5.0,64.0
7682,81.0,160,104,1.0,64.0
7683,69.0,0,104,2.0,64.0
7684,81.0,160,160,1.0,65.0
7685,69.0,0,160,2.0,65.0
7686,38.0,0,234,4.0,65.0
7687,50.0,0,234,5.0,65.0
7688,78.0,160,104,1.0,65.0
7689,74.0,0,104,2.0,65.0
7690,69.0,160,104,2.0,65.0
7691,81.0,0,104,1.0,65.0
7692,33.0,40,78,4.0,65.0
7693,45.0,0,78,5.0,65.0
7694,69.0,0,160,2.0,65.0
7695,81.0,120,160,1.0,65.0
7696,73.0,0,104,2.0,66.0
7697,79.0,160,104,1.0,66.0
7698,33.0,0,360,4.0,65.0
7699,45.0,0,360,5.0,65.0
7700,69.0,160,104,2.0,66.0
7701,81.0,0,104,1.0,66.0
7702,81.0,160,160,1.0,66.0
7703,69.0,0,160,2.0,66.0
7704,52.0,0,234,5.0,66.0
7705,40.0,0,234,4.0,66.0
7706,73.0,0,104,2.0,66.0
7707,79.0,160,104,1.0,66.0
7708,69.0,0,104,2.0,67.0
7709,81.0,160,104,1.0,67.0
7710,45.0,40,78,5.0,67.0
7711,33.0,0,78,4.0,67.0
7712,81.0,120,160,1.0,67.0
7713,69.0,0,160,2.0,67.0
7714,73.0,160,104,2.0,67.0
7715,76.0,0,104,1.0,67.0
7716,45.0,0,360,5.0,67.0
7717,33.0,0,360,4.0,67.0
7718,81.0,160,104,1.0,68.0
7719,69.0,0,104,2.0,68.0
7720,81.0,0,160,1.0,68.0
7721,69.0,0,160,2.0,68.0
7722,43.0,0,234,4.0,68.0
7723,55.0,160,234,5.0,68.0
7724,73.0,160,104,2.0,68.0
7725,76.0,0,104,1.0,68.0
7726,81.0,0,104,1.0,68.0
7727,69.0,160,104,2.0,68.0
7728,45.0,0,78,5.0,68.0
7729,33.0,40,78,4.0,68.0
7730,69.0,120,160,2.0,69.0
7731,81.0,0,160,1.0,69.0
7732,74.0,160,104,2.0,69.0
7733,78.0,0,104,1.0,69.0
7734,45.0,0,360,5.0,69.0
7735,33.0,0,360,4.0,69.0
7736,69.0,0,104,2.0,69.0
7737,81.0,160,104,1.0,69.0
7738,81.0,0,160,1.0,69.0
7739,69.0,0,160,2.0,69.0
7740,42.0,160,234,4.0,69.0
7741,54.0,0,234,5.0,69.0
7742,78.0,160,104,1.0,70.0
7743,74.0,0,104,2.0,70.0
7744,69.0,160,104,2.0,70.0
7745,81.0,0,104,1.0,70.0
7746,33.0,40,78,4.0,70.0
7747,45.0,0,78,5.0,70.0
7748,81.0,0,160,1.0,70.0
7749,69.0,0,160,2.0,70.0
7750,78.0,160,104,1.0,70.0
7751,74.0,0,104,2.0,70.0
7752,45.0,0,360,5.0,70.0
7753,33.0,120,360,4.0,70.0
7754,69.0,0,104,2.0,71.0
7755,81.0,160,104,1.0,71.0
7756,69.0,0,160,2.0,71.0
7757,81.0,0,160,1.0,71.0
7758,38.0,0,234,4.0,71.0
7759,50.0,160,234,5.0,71.0
7760,74.0,160,104,2.0,71.0
7761,78.0,0,104,1.0,71.0
7762,81.0,0,104,1.0,71.0
7763,69.0,160,104,2.0,71.0
7764,45.0,0,78,5.0,71.0
7765,33.0,40,78,4.0,71.0
7766,81.0,0,160,1.0,72.0
7767,69.0,0,160,2.0,72.0
7768,73.0,0,104,2.0,72.0
7769,79.0,160,104,1.0,72.0
7770,45.0,0,360,5.0,72.0
7771,33.0,120,360,4.0,72.0
7772,81.0,0,104,1.0,72.0
7773,69.0,160,104,2.0,72.0
7774,69.0,0,160,2.0,72.0
7775,81.0,0,160,1.0,72.0
7776,52.0,160,234,5.0,72.0
7777,40.0,0,234,4.0,72.0
7778,79.0,0,104,1.0,73.0
7779,73.0,160,104,2.0,73.0
7780,81.0,160,104,1.0,73.0
7781,69.0,0,104,2.0,73.0
7782,45.0,40,78,5.0,73.0
7783,33.0,0,78,4.0,73.0
7784,69.0,0,160,2.0,73.0
7785,81.0,120,160,1.0,73.0
7786,73.0,160,104,2.0,73.0
7787,76.0,0,104,1.0,73.0
7788,33.0,0,360,4.0,73.0
7789,45.0,0,360,5.0,73.0
7790,69.0,160,104,2.0,74.0
7791,81.0,0,104,1.0,74.0
7792,81.0,160,160,1.0,74.0
7793,69.0,0,160,2.0,74.0
7794,43.0,0,234,4.0,74.0
7795,55.0,0,234,5.0,74.0
7796,73.0,160,104,2.0,74.0
7797,76.0,0,104,1.0,74.0
7798,81.0,0,104,1.0,74.0
7799,69.0,160,104,2.0,74.0
7800,33.0,40,78,4.0,75.0
7801,45.0,0,78,5.0,75.0
7802,42.0,0,160,4.0,75.0
7803,38.0,160,104,4.0,75.0
7804,69.0,0,360,2.0,75.0
7805,81.0,120,360,1.0,75.0
7806,45.0,160,104,4.0,75.0
7807,45.0,160,160,4.0,76.0
7808,42.0,160,104,4.0,76.0
7809,50.0,160,104,4.0,76.0
7810,86.0,40,78,1.0,76.0
7811,74.0,0,78,2.0,76.0
7812,62.0,0,160,5.0,76.0
7813,60.0,160,104,5.0,77.0
7814,54.0,0,104,5.0,77.0
7815,86.0,0,360,1.0,76.0
7816,38.0,0,360,4.0,76.0
7817,74.0,120,360,2.0,76.0
7818,62.0,160,104,5.0,77.0
7819,62.0,0,160,5.0,77.0
7820,69.0,160,234,2.0,77.0
7821,81.0,0,234,1.0,77.0
7822,54.0,160,104,5.0,77.0
7823,60.0,0,104,5.0,77.0
7824,50.0,0,360,4.0,77.0
7825,62.0,160,104,5.0,78.0
7826,74.0,0,78,2.0,78.0
7827,86.0,40,78,1.0,78.0
7828,62.0,0,160,5.0,78.0
7829,55.0,0,104,5.0,78.0
7830,59.0,160,104,5.0,78.0
7831,38.0,120,360,4.0,78.0
7832,74.0,0,360,2.0,78.0
7833,86.0,0,360,1.0,78.0
7834,62.0,160,104,5.0,78.0
7835,62.0,0,160,5.0,79.0
7836,83.0,160,234,1.0,79.0
7837,71.0,0,234,2.0,79.0
7838,55.0,160,104,5.0,79.0
7839,59.0,0,104,5.0,79.0
7840,50.0,0,360,4.0,79.0
7841,62.0,160,104,5.0,79.0
7842,88.0,0,78,1.0,79.0
7843,76.0,40,78,2.0,79.0
7844,86.0,0,128,1.0,79.0
7845,74.0,0,128,2.0,79.0
7846,64.0,120,160,5.0,79.0
7847,57.0,0,104,5.0,80.0
7848,55.0,160,104,5.0,80.0
7849,85.0,0,128,1.0,80.0
7850,73.0,0,128,2.0,80.0
7851,38.0,0,360,4.0,79.0
7852,64.0,160,104,5.0,80.0
7853,71.0,0,128,2.0,80.0
7854,83.0,0,128,1.0,80.0
7855,69.0,0,128,2.0,80.0
7856,81.0,0,128,1.0,80.0
7857,64.0,0,160,5.0,80.0
7858,55.0,160,104,5.0,80.0
7859,57.0,0,104,5.0,80.0
7860,71.0,0,128,2.0,80.0
7861,83.0,0,128,1.0,80.0
7862,50.0,160,360,4.0,80.0
7863,64.0,0,104,5.0,81.0
7864,73.0,160,128,2.0,81.0
7865,85.0,0,128,1.0,81.0
7866,62.0,160,160,5.0,81.0
7867,57.0,0,104,5.0,81.0
7868,54.0,160,104,5.0,81.0
7869,38.0,0,360,4.0,81.0
7870,74.0,0,360,2.0,81.0
7871,86.0,0,360,1.0,81.0
7872,62.0,160,104,5.0,81.0
7873,62.0,0,160,5.0,82.0
7874,69.0,160,234,2.0,82.0
7875,81.0,0,234,1.0,82.0
7876,57.0,0,104,5.0,82.0
7877,54.0,160,104,5.0,82.0
7878,50.0,0,360,4.0,82.0
7879,62.0,160,104,5.0,82.0
7880,74.0,40,78,2.0,82.0
7881,86.0,0,78,1.0,82.0
7882,62.0,0,160,5.0,82.0
7883,74.0,120,234,2.0,82.0
7884,86.0,0,234,1.0,82.0
7885,54.0,0,104,5.0,83.0
7886,60.0,160,104,5.0,83.0
7887,38.0,0,360,4.0,82.0
7888,62.0,160,104,5.0,83.0
7889,62.0,160,160,5.0,83.0
7890,69.0,0,234,2.0,83.0
7891,81.0,0,234,1.0,83.0
7892,54.0,0,104,5.0,84.0
7893,60.0,160,104,5.0,84.0
7894,50.0,0,360,4.0,83.0
7895,62.0,160,104,5.0,84.0
7896,86.0,40,78,1.0,84.0
7897,74.0,0,78,2.0,84.0
7898,62.0,120,160,5.0,84.0
7899,74.0,0,234,2.0,84.0
7900,86.0,0,234,1.0,84.0
7901,55.0,0,104,5.0,84.0
7902,59.0,160,104,5.0,84.0
7903,38.0,0,360,4.0,84.0
7904,62.0,160,104,5.0,85.0
7905,62.0,160,160,5.0,85.0
7906,83.0,0,234,1.0,85.0
7907,71.0,0,234,2.0,85.0
7908,55.0,160,104,5.0,85.0
7909,59.0,0,104,5.0,85.0
7910,50.0,0,360,4.0,85.0
7911,62.0,160,104,5.0,85.0
7912,76.0,0,78,2.0,85.0
7913,88.0,40,78,1.0,85.0
7914,86.0,0,128,1.0,86.0
7915,74.0,0,128,2.0,86.0
7916,64.0,120,160,5.0,86.0
7917,55.0,0,104,5.0,86.0
7918,57.0,0,104,5.0,86.0
7919,85.0,0,128,1.0,86.0
7920,73.0,160,128,2.0,86.0
7921,38.0,0,360,4.0,86.0
7922,64.0,160,104,5.0,86.0
7923,83.0,0,128,1.0,86.0
7924,71.0,0,128,2.0,86.0
7925,81.0,0,128,1.0,86.0
7926,69.0,160,128,2.0,86.0
7927,64.0,0,160,5.0,86.0
7928,55.0,0,104,5.0,87.0
7929,57.0,0,104,5.0,87.0
7930,83.0,0,128,1.0,87.0
7931,71.0,160,128,2.0,87.0
7932,50.0,0,360,4.0,86.0
7933,64.0,160,104,5.0,87.0
7934,85.0,0,128,1.0,87.0
7935,73.0,0,128,2.0,87.0
7936,74.0,0,360,2.0,87.0
7937,38.0,160,360,4.0,87.0
7938,62.0,0,360,5.0,87.0
7939,57.0,0,360,5.0,87.0
7940,54.0,0,360,5.0,87.0
7941,86.0,0,360,1.0,87.0
7942,33.0,840,78,5.0,89.0
7943,45.0,0,78,5.0,89.0
7944,33.0,0,360,4.0,92.0
7945,45.0,120,360,5.0,92.0
7946,62.0,0,360,2.0,60.0
7947,69.0,960,360,2.0,60.0
7948,66.0,0,360,2.0,60.0
7949,74.0,0,360,2.0,60.0
7950,81.0,0,360,1.0,60.0
7951,78.0,0,360,2.0,60.0
7952,45.0,840,78,5.0,79.0
7953,33.0,0,78,4.0,79.0
7954,33.0,120,360,4.0,82.0
7955,45.0,0,360,5.0,82.0
7956,78.0,960,360,2.0,47.0
7957,81.0,0,360,1.0,47.0
7958,69.0,0,360,2.0,47.0
7959,62.0,0,360,2.0,47.0
7960,66.0,0,360,2.0,47.0
7961,74.0,0,360,2.0,47.0
7962,33.0,0,78,4.0,82.0
7963,45.0,840,78,5.0,82.0
7964,45.0,120,360,5.0,87.0
7965,33.0,0,360,4.0,87.0
7966,50.0,480,156,5.0,87.0
7967,38.0,0,156,4.0,87.0
7968,33.0,0,78,4.0,88.0
7969,45.0,360,78,5.0,88.0
7970,74.0,0,234,2.0,94.0
7971,78.0,120,234,2.0,94.0
7972,81.0,0,234,1.0,94.0
7973,62.0,0,234,2.0,94.0
7974,66.0,0,234,2.0,94.0
7975,69.0,0,234,2.0,94.0
7976,45.0,0,360,5.0,94.0
7977,33.0,0,360,4.0,94.0
7978,50.0,480,156,5.0,96.0
7979,38.0,0,156,4.0,96.0
7980,74.0,0,234,2.0,96.0
7981,81.0,0,234,1.0,96.0
7982,66.0,0,234,2.0,96.0
7983,62.0,0,234,2.0,96.0
7984,69.0,0,234,2.0,96.0
7985,78.0,0,234,2.0,96.0
7986,45.0,0,78,5.0,99.0
7987,33.0,0,78,4.0,99.0
7988,81.0,0,78,1.0,99.0
7989,64.0,0,78,2.0,99.0
7990,69.0,0,78,2.0,99.0
7991,67.0,0,78,2.0,99.0
7992,76.0,0,78,2.0,99.0
7993,57.0,0,78,2.0,99.0
7994,73.0,360,78,2.0,99.0
7995,45.0,0,960,5.0,104.0
7996,33.0,0,960,4.0,104.0
7997,76.0,0,960,2.0,104.0
7998,69.0,0,0,2.0,88.0
7999,64.0,0,960,2.0,104.0
8000,73.0,0,960,2.0,104.0
8001,67.0,0,960,2.0,104.0
8002,57.0,0,0,2.0,88.0
8003,81.0,120,960,1.0,104.0
8004,61.0,0,960,2.0,104.0
8005,62.0,0,360,2.0,88.0
8006,50.0,0,360,5.0,88.0
8007,66.0,0,360,2.0,88.0
8008,74.0,0,360,1.0,88.0
8009,38.0,960,360,4.0,88.0
8010,45.0,2400,80,4.0,45.0
8011,47.0,80,80,4.0,45.0
8012,49.0,80,80,4.0,46.0
8013,50.0,80,120,4.0,47.0
8014,52.0,120,120,4.0,48.0
8015,50.0,120,960,5.0,52.0
8016,54.0,0,960,4.0,52.0
8017,46.0,960,480,5.0,50.0
8018,49.0,0,480,4.0,50.0
8019,50.0,480,480,4.0,49.0
8020,47.0,480,0,5.0,48.0
8021,62.0,0,960,4.0,48.0
8022,44.0,0,960,5.0,48.0
8023,77.0,0,960,1.0,48.0
8024,76.0,0,960,1.0,46.0
8025,61.0,0,960,4.0,46.0
8026,43.0,960,960,4.0,46.0
8027,46.0,0,960,5.0,46.0
8028,74.0,960,240,1.0,46.0
8029,42.0,0,480,4.0,46.0
8030,62.0,0,480,4.0,46.0
8031,69.0,240,480,2.0,48.0
8032,81.0,0,480,1.0,48.0
8033,45.0,0,960,5.0,46.0
8034,59.0,240,480,4.0,50.0
8035,41.0,0,480,4.0,50.0
8036,81.0,240,0,1.0,54.0
8037,69.0,0,0,2.0,54.0
8038,40.0,0,480,4.0,53.0
8039,61.0,240,480,4.0,53.0
8040,45.0,240,0,5.0,56.0
8041,71.0,0,240,2.0,58.0
8042,83.0,240,240,1.0,58.0
8043,39.0,0,480,4.0,56.0
8044,66.0,0,480,4.0,56.0
8045,73.0,240,240,2.0,65.0
8046,85.0,0,240,1.0,65.0
8047,64.0,0,240,5.0,65.0
8048,45.0,0,240,5.0,65.0
8049,49.0,0,156,5.0,64.0
8050,76.0,240,240,1.0,64.0
8051,69.0,0,240,2.0,64.0
8052,40.0,0,480,4.0,65.0
8053,52.0,0,156,5.0,56.0
8054,45.0,0,156,5.0,56.0
8055,74.0,240,240,1.0,56.0
8056,68.0,0,240,2.0,56.0
8057,45.0,0,156,5.0,49.0
8058,52.0,0,156,5.0,49.0
8059,71.0,240,240,1.0,49.0
8060,62.0,0,240,2.0,49.0
8061,61.0,0,360,2.0,45.0
8062,45.0,0,360,5.0,45.0
8063,33.0,240,360,4.0,45.0
8064,69.0,0,360,1.0,45.0
8065,69.0,480,80,1.0,44.0
8066,71.0,80,80,1.0,45.0
8067,73.0,80,80,1.0,46.0
8068,74.0,80,120,1.0,47.0
8069,76.0,120,120,1.0,48.0
8070,78.0,120,960,1.0,51.0
8071,69.0,0,960,2.0,51.0
8072,38.0,0,960,5.0,51.0
8073,62.0,0,960,4.0,51.0
8074,54.0,0,960,4.0,51.0
8075,57.0,0,960,4.0,51.0
8076,50.0,0,960,5.0,51.0
8077,61.0,0,480,4.0,50.0
8078,67.0,960,480,2.0,50.0
8079,73.0,0,480,1.0,50.0
8080,46.0,0,480,5.0,50.0
8081,52.0,0,480,4.0,50.0
8082,55.0,0,480,4.0,50.0
8083,34.0,0,480,5.0,50.0
8084,74.0,0,480,1.0,49.0
8085,47.0,0,480,5.0,49.0
8086,35.0,0,480,5.0,49.0
8087,66.0,0,480,2.0,49.0
8088,62.0,0,480,4.0,49.0
8089,54.0,0,480,4.0,49.0
8090,50.0,0,0,4.0,48.0
8091,71.0,0,960,1.0,48.0
8092,44.0,0,960,5.0,48.0
8093,32.0,0,0,5.0,51.0
8094,59.0,0,0,4.0,51.0
8095,50.0,0,0,4.0,51.0
8096,65.0,0,960,2.0,48.0
8097,62.0,0,960,2.0,48.0
8098,53.0,960,0,4.0,51.0
8099,65.0,0,960,2.0,51.0
8100,44.0,0,960,5.0,51.0
8101,71.0,0,0,1.0,55.0
8102,73.0,920,40,1.0,55.0
8103,62.0,40,0,2.0,55.0
8104,70.0,360,120,1.0,59.0
8105,71.0,120,360,1.0,60.0
8106,73.0,360,120,1.0,64.0
8107,42.0,0,0,5.0,65.0
8108,66.0,0,960,2.0,55.0
8109,30.0,0,0,5.0,65.0
8110,54.0,0,960,4.0,55.0
8111,50.0,0,960,4.0,55.0
8112,59.0,0,960,4.0,55.0
8113,59.0,0,480,4.0,65.0
8114,71.0,0,480,2.0,65.0
8115,66.0,0,480,4.0,65.0
8116,62.0,0,480,4.0,65.0
8117,30.0,0,0,5.0,63.0
8118,54.0,0,480,4.0,65.0
8119,74.0,120,480,1.0,65.0
8120,42.0,0,480,5.0,63.0
8121,61.0,0,480,4.0,63.0
8122,70.0,0,480,2.0,63.0
8123,58.0,0,480,4.0,63.0
8124,52.0,0,480,4.0,63.0
8125,73.0,0,480,1.0,63.0
8126,64.0,480,480,4.0,63.0
8127,71.0,0,480,1.0,60.0
8128,62.0,480,480,2.0,60.0
8129,66.0,0,480,2.0,60.0
8130,54.0,0,480,4.0,60.0
8131,47.0,0,480,5.0,60.0
8132,35.0,0,480,5.0,60.0
8133,59.0,0,480,4.0,60.0
8134,50.0,0,480,4.0,60.0
8135,73.0,0,600,1.0,72.0
8136,71.0,600,120,1.0,66.0
8137,69.0,120,120,1.0,65.0
8138,67.0,0,960,2.0,72.0
8139,64.0,0,960,2.0,72.0
8140,61.0,120,0,2.0,64.0
8141,52.0,0,0,4.0,64.0
8142,45.0,0,0,5.0,64.0
8143,33.0,0,0,5.0,64.0
8144,71.0,120,120,1.0,65.0
8145,55.0,0,0,4.0,64.0
8146,73.0,0,120,1.0,64.0
8147,74.0,120,120,1.0,64.0
8148,76.0,120,120,1.0,63.0
8149,78.0,120,120,1.0,63.0
8150,67.0,0,0,2.0,63.0
8151,64.0,0,0,2.0,63.0
8152,61.0,0,0,2.0,63.0
8153,55.0,0,0,4.0,63.0
8154,52.0,0,0,4.0,63.0
8155,33.0,0,0,5.0,63.0
8156,79.0,120,120,1.0,63.0
8157,78.0,120,120,1.0,62.0
8158,81.0,120,120,1.0,62.0
8159,45.0,0,0,5.0,61.0
8160,64.0,120,0,2.0,61.0
8161,33.0,0,0,5.0,61.0
8162,79.0,120,120,1.0,61.0
8163,83.0,0,120,1.0,61.0
8164,81.0,120,120,1.0,60.0
8165,79.0,120,120,1.0,60.0
8166,57.0,0,480,4.0,61.0
8167,55.0,0,480,4.0,61.0
8168,52.0,0,480,4.0,61.0
8169,78.0,120,120,1.0,59.0
8170,67.0,0,0,2.0,59.0
8171,76.0,0,120,1.0,59.0
8172,74.0,120,120,1.0,59.0
8173,73.0,120,120,1.0,58.0
8174,45.0,0,480,5.0,59.0
8175,33.0,0,480,5.0,59.0
8176,71.0,120,120,1.0,58.0
8177,64.0,0,480,2.0,59.0
8178,67.0,0,0,2.0,57.0
8179,52.0,0,480,4.0,59.0
8180,57.0,0,480,4.0,59.0
8181,55.0,120,480,4.0,59.0
8182,69.0,120,120,1.0,57.0
8183,71.0,120,120,1.0,57.0
8184,72.0,120,120,1.0,56.0
8185,73.0,120,120,1.0,56.0
8186,64.0,0,480,2.0,57.0
8187,52.0,0,480,4.0,57.0
8188,55.0,0,480,4.0,57.0
8189,33.0,0,480,5.0,57.0
8190,45.0,0,480,5.0,57.0
8191,57.0,0,0,4.0,55.0
8192,74.0,0,480,1.0,55.0
8193,62.0,0,480,2.0,55.0
8194,38.0,120,480,5.0,55.0
8195,66.0,0,0,2.0,51.0
8196,54.0,0,480,4.0,55.0
8197,50.0,0,0,4.0,51.0
8198,78.0,480,480,2.0,51.0
8199,69.0,0,480,2.0,51.0
8200,38.0,0,0,5.0,46.0
8201,86.0,0,480,1.0,51.0
8202,54.0,0,0,4.0,46.0
8203,45.0,0,480,4.0,51.0
8204,81.0,0,480,2.0,51.0
8205,62.0,480,360,2.0,46.0
8206,66.0,0,360,2.0,46.0
8207,78.0,0,360,2.0,46.0
8208,86.0,0,360,1.0,46.0
8209,74.0,0,360,2.0,46.0
8210,50.0,0,360,4.0,46.0
8211,46.0,0,360,4.0,46.0
8212,45.0,480,80,4.0,45.0
8213,47.0,80,80,4.0,45.0
8214,49.0,80,80,4.0,46.0
8215,50.0,80,120,4.0,47.0
8216,52.0,120,120,4.0,48.0
8217,54.0,0,960,4.0,52.0
8218,50.0,120,960,5.0,52.0
8219,49.0,0,480,4.0,50.0
8220,46.0,960,480,5.0,50.0
8221,47.0,0,0,5.0,48.0
8222,50.0,480,480,4.0,49.0
8223,77.0,480,960,1.0,48.0
8224,62.0,0,960,4.0,48.0
8225,44.0,0,960,5.0,48.0
8226,61.0,0,960,4.0,46.0
8227,43.0,0,960,4.0,46.0
8228,76.0,960,960,1.0,46.0
8229,46.0,0,960,5.0,46.0
8230,74.0,0,240,1.0,46.0
8231,42.0,960,480,4.0,46.0
8232,62.0,0,480,4.0,46.0
8233,81.0,240,0,1.0,51.0
8234,69.0,240,480,2.0,48.0
8235,45.0,0,960,5.0,46.0
8236,59.0,0,480,4.0,50.0
8237,41.0,240,480,4.0,50.0
8238,81.0,240,0,1.0,54.0
8239,69.0,0,0,2.0,54.0
8240,40.0,0,480,4.0,53.0
8241,61.0,0,480,4.0,53.0
8242,45.0,0,0,5.0,56.0
8243,83.0,0,240,1.0,58.0
8244,39.0,240,480,4.0,56.0
8245,71.0,240,240,2.0,58.0
8246,66.0,0,480,4.0,56.0
8247,64.0,0,240,5.0,65.0
8248,45.0,0,240,5.0,65.0
8249,85.0,0,240,1.0,65.0
8250,73.0,240,240,2.0,65.0
8251,49.0,240,156,5.0,64.0
8252,76.0,0,240,1.0,64.0
8253,40.0,0,480,4.0,65.0
8254,69.0,0,240,2.0,64.0
8255,52.0,240,156,5.0,56.0
8256,45.0,0,156,5.0,56.0
8257,74.0,0,240,1.0,56.0
8258,68.0,0,240,2.0,56.0
8259,52.0,0,156,5.0,49.0
8260,45.0,0,156,5.0,49.0
8261,62.0,0,240,2.0,49.0
8262,71.0,240,240,1.0,49.0
8263,69.0,0,360,1.0,45.0
8264,33.0,0,360,4.0,45.0
8265,61.0,240,360,2.0,45.0
8266,45.0,0,360,5.0,45.0
8267,69.0,480,80,1.0,44.0
8268,71.0,80,80,1.0,45.0
8269,73.0,80,80,1.0,46.0
8270,74.0,80,120,1.0,47.0
8271,76.0,120,120,1.0,48.0
8272,54.0,0,960,4.0,51.0
8273,38.0,0,960,5.0,51.0
8274,57.0,0,960,4.0,51.0
8275,62.0,120,960,4.0,51.0
8276,78.0,0,960,1.0,51.0
8277,69.0,0,960,2.0,51.0
8278,50.0,0,960,5.0,51.0
8279,46.0,960,480,5.0,50.0
8280,34.0,0,480,5.0,50.0
8281,67.0,0,480,2.0,50.0
8282,55.0,0,480,4.0,50.0
8283,61.0,0,480,4.0,50.0
8284,73.0,0,480,1.0,50.0
8285,52.0,0,480,4.0,50.0
8286,47.0,0,480,5.0,49.0
8287,35.0,480,480,5.0,49.0
8288,66.0,0,480,2.0,49.0
8289,74.0,0,480,1.0,49.0
8290,54.0,0,480,4.0,49.0
8291,50.0,0,480,4.0,49.0
8292,62.0,0,480,4.0,49.0
8293,53.0,0,960,4.0,48.0
8294,71.0,0,960,1.0,48.0
8295,65.0,0,0,2.0,51.0
8296,62.0,960,0,2.0,51.0
8297,50.0,0,960,4.0,48.0
8298,59.0,0,0,4.0,51.0
8299,44.0,0,960,5.0,48.0
8300,32.0,480,960,5.0,48.0
8301,73.0,920,40,1.0,55.0
8302,53.0,0,960,4.0,51.0
8303,50.0,0,960,4.0,51.0
8304,44.0,0,960,5.0,51.0
8305,32.0,0,960,5.0,51.0
8306,71.0,0,960,1.0,51.0
8307,62.0,0,0,2.0,55.0
8308,71.0,0,360,1.0,55.0
8309,70.0,360,120,1.0,59.0
8310,71.0,120,360,1.0,60.0
8311,73.0,360,120,1.0,64.0
8312,66.0,0,960,2.0,55.0
8313,59.0,0,960,4.0,55.0
8314,50.0,40,960,4.0,55.0
8315,54.0,0,960,4.0,55.0
8316,30.0,0,0,5.0,65.0
8317,42.0,0,0,5.0,65.0
8318,74.0,0,480,1.0,65.0
8319,59.0,0,480,4.0,65.0
8320,54.0,0,480,4.0,65.0
8321,66.0,0,480,4.0,65.0
8322,62.0,0,480,4.0,65.0
8323,71.0,120,480,2.0,65.0
8324,52.0,0,480,4.0,63.0
8325,30.0,0,480,5.0,63.0
8326,73.0,480,480,1.0,63.0
8327,58.0,0,480,4.0,63.0
8328,64.0,0,480,4.0,63.0
8329,61.0,0,480,4.0,63.0
8330,42.0,0,480,5.0,63.0
8331,70.0,0,480,2.0,63.0
8332,71.0,0,480,1.0,60.0
8333,54.0,0,480,4.0,60.0
8334,59.0,0,480,4.0,60.0
8335,50.0,0,480,4.0,60.0
8336,66.0,0,480,2.0,60.0
8337,62.0,0,480,2.0,60.0
8338,47.0,0,480,5.0,60.0
8339,35.0,480,480,5.0,60.0
8340,73.0,480,600,1.0,72.0
8341,71.0,600,120,1.0,66.0
8342,69.0,120,120,1.0,65.0
8343,64.0,0,960,2.0,72.0
8344,67.0,0,960,2.0,72.0
8345,61.0,0,960,2.0,72.0
8346,71.0,120,120,1.0,65.0
8347,55.0,0,960,4.0,72.0
8348,33.0,0,0,5.0,64.0
8349,45.0,0,0,5.0,64.0
8350,52.0,0,0,4.0,64.0
8351,73.0,0,120,1.0,64.0
8352,74.0,120,120,1.0,64.0
8353,76.0,120,120,1.0,63.0
8354,52.0,0,0,4.0,63.0
8355,45.0,0,0,5.0,63.0
8356,67.0,0,480,2.0,64.0
8357,64.0,120,480,2.0,64.0
8358,61.0,0,480,2.0,64.0
8359,78.0,120,120,1.0,63.0
8360,55.0,120,0,4.0,63.0
8361,79.0,0,120,1.0,63.0
8362,78.0,120,120,1.0,62.0
8363,81.0,120,120,1.0,62.0
8364,33.0,0,480,5.0,63.0
8365,61.0,0,480,2.0,63.0
8366,79.0,120,120,1.0,61.0
8367,55.0,120,0,4.0,61.0
8368,64.0,0,0,2.0,61.0
8369,67.0,0,0,2.0,61.0
8370,83.0,0,120,1.0,61.0
8371,81.0,120,120,1.0,60.0
8372,79.0,120,120,1.0,60.0
8373,64.0,120,0,2.0,59.0
8374,78.0,120,120,1.0,59.0
8375,45.0,0,0,5.0,59.0
8376,57.0,0,480,4.0,61.0
8377,52.0,0,480,4.0,61.0
8378,33.0,0,0,5.0,59.0
8379,76.0,0,120,1.0,59.0
8380,74.0,120,120,1.0,59.0
8381,73.0,120,120,1.0,58.0
8382,52.0,120,0,4.0,57.0
8383,55.0,0,0,4.0,57.0
8384,57.0,0,0,4.0,57.0
8385,67.0,0,480,2.0,59.0
8386,71.0,120,120,1.0,58.0
8387,64.0,0,0,2.0,57.0
8388,69.0,0,120,1.0,57.0
8389,71.0,120,120,1.0,57.0
8390,72.0,120,120,1.0,56.0
8391,33.0,0,480,5.0,57.0
8392,57.0,0,0,4.0,55.0
8393,45.0,0,480,5.0,57.0
8394,73.0,120,120,1.0,56.0
8395,67.0,0,480,2.0,57.0
8396,74.0,0,480,1.0,55.0
8397,38.0,0,480,5.0,55.0
8398,66.0,0,0,2.0,51.0
8399,62.0,0,480,2.0,55.0
8400,50.0,120,480,4.0,55.0
8401,54.0,0,480,4.0,55.0
8402,54.0,0,480,4.0,51.0
8403,81.0,0,480,2.0,51.0
8404,69.0,0,480,2.0,51.0
8405,78.0,0,480,2.0,51.0
8406,66.0,0,0,2.0,46.0
8407,86.0,480,0,1.0,46.0
8408,45.0,0,480,4.0,51.0
8409,50.0,0,480,4.0,51.0
8410,38.0,0,0,5.0,46.0
8411,62.0,0,480,2.0,46.0
8412,54.0,0,480,4.0,46.0
8413,45.0,0,480,4.0,46.0
8414,78.0,0,480,2.0,46.0
8415,74.0,0,480,2.0,46.0
8416,50.0,0,480,4.0,46.0
8417,50.0,720,64,5.0,87.0
8418,50.0,80,64,5.0,89.0
8419,50.0,80,64,5.0,92.0
8420,26.0,0,360,4.0,94.0
8421,38.0,0,360,5.0,94.0
8422,50.0,80,360,5.0,94.0
8423,54.0,720,64,5.0,94.0
8424,54.0,80,64,5.0,96.0
8425,54.0,80,64,5.0,97.0
8426,30.0,0,360,4.0,99.0
8427,54.0,80,360,5.0,99.0
8428,42.0,0,360,5.0,99.0
8429,57.0,720,64,5.0,99.0
8430,57.0,80,64,5.0,100.0
8431,57.0,80,64,5.0,102.0
8432,57.0,0,192,5.0,104.0
8433,33.0,80,192,4.0,104.0
8434,45.0,0,192,5.0,104.0
8435,45.0,0,192,5.0,95.0
8436,57.0,240,192,5.0,95.0
8437,57.0,240,192,5.0,89.0
8438,45.0,0,192,5.0,89.0
8439,57.0,240,192,5.0,85.0
8440,45.0,0,192,5.0,85.0
8441,45.0,0,192,5.0,81.0
8442,57.0,240,192,5.0,81.0
8443,45.0,0,192,5.0,76.0
8444,57.0,240,192,5.0,76.0
8445,57.0,0,192,5.0,74.0
8446,45.0,240,192,5.0,74.0
8447,45.0,240,192,5.0,71.0
8448,57.0,0,192,5.0,71.0
8449,55.0,0,192,4.0,69.0
8450,52.0,0,192,4.0,69.0
8451,57.0,240,192,5.0,69.0
8452,45.0,0,192,5.0,69.0
8453,69.0,240,120,1.0,72.0
8454,55.0,0,192,4.0,72.0
8455,52.0,0,192,4.0,72.0
8456,57.0,0,192,5.0,72.0
8457,45.0,0,192,5.0,72.0
8458,73.0,120,120,1.0,73.0
8459,76.0,120,120,1.0,75.0
8460,55.0,0,192,4.0,75.0
8461,52.0,0,192,4.0,75.0
8462,57.0,0,192,5.0,75.0
8463,45.0,0,192,5.0,75.0
8464,73.0,120,120,1.0,76.0
8465,52.0,0,192,4.0,77.0
8466,55.0,0,192,4.0,77.0
8467,81.0,0,192,1.0,77.0
8468,67.0,0,192,2.0,77.0
8469,64.0,0,192,2.0,77.0
8470,61.0,0,192,2.0,77.0
8471,45.0,120,192,5.0,77.0
8472,57.0,0,192,5.0,77.0
8473,50.0,240,192,4.0,79.0
8474,57.0,0,192,5.0,79.0
8475,54.0,0,192,4.0,79.0
8476,45.0,0,192,5.0,79.0
8477,69.0,0,120,1.0,82.0
8478,54.0,0,192,4.0,82.0
8479,45.0,0,192,5.0,82.0
8480,57.0,240,192,5.0,82.0
8481,50.0,0,192,4.0,82.0
8482,74.0,120,120,1.0,83.0
8483,78.0,0,120,1.0,84.0
8484,57.0,0,192,5.0,84.0
8485,45.0,0,192,5.0,84.0
8486,50.0,120,192,4.0,84.0
8487,54.0,0,192,4.0,84.0
8488,74.0,120,120,1.0,85.0
8489,62.0,0,192,2.0,86.0
8490,45.0,0,192,5.0,86.0
8491,66.0,0,192,2.0,86.0
8492,81.0,120,192,1.0,86.0
8493,54.0,0,192,4.0,86.0
8494,50.0,0,192,4.0,86.0
8495,57.0,0,192,5.0,86.0
8496,57.0,240,192,5.0,89.0
8497,55.0,0,192,4.0,89.0
8498,52.0,0,192,4.0,89.0
8499,45.0,0,192,5.0,89.0
8500,76.0,0,120,1.0,91.0
8501,64.0,240,120,2.0,91.0
8502,52.0,0,192,4.0,91.0
8503,45.0,0,192,5.0,91.0
8504,55.0,0,192,4.0,91.0
8505,57.0,0,192,5.0,91.0
8506,79.0,0,120,1.0,92.0
8507,67.0,120,120,2.0,92.0
8508,73.0,0,120,2.0,93.0
8509,85.0,120,120,1.0,93.0
8510,52.0,0,192,4.0,93.0
8511,55.0,0,192,4.0,93.0
8512,57.0,0,192,5.0,93.0
8513,45.0,0,192,5.0,93.0
8514,67.0,120,120,2.0,94.0
8515,79.0,0,120,1.0,94.0
8516,88.0,0,120,1.0,96.0
8517,76.0,0,120,2.0,96.0
8518,52.0,120,192,4.0,96.0
8519,55.0,0,192,4.0,96.0
8520,45.0,0,192,5.0,96.0
8521,57.0,0,192,5.0,96.0
8522,85.0,0,120,1.0,97.0
8523,73.0,120,120,2.0,97.0
8524,74.0,0,360,2.0,99.0
8525,50.0,0,360,5.0,99.0
8526,57.0,0,360,4.0,99.0
8527,54.0,0,360,4.0,99.0
8528,38.0,0,360,5.0,99.0
8529,86.0,120,360,1.0,99.0
8530,50.0,720,64,5.0,87.0
8531,50.0,80,64,5.0,89.0
8532,50.0,80,64,5.0,92.0
8533,26.0,0,360,4.0,94.0
8534,38.0,0,360,5.0,94.0
8535,50.0,80,360,5.0,94.0
8536,54.0,720,64,5.0,94.0
8537,54.0,80,64,5.0,96.0
8538,54.0,80,64,5.0,97.0
8539,30.0,80,360,4.0,99.0
8540,54.0,0,360,5.0,99.0
8541,42.0,0,360,5.0,99.0
8542,57.0,720,64,5.0,99.0
8543,57.0,80,64,5.0,100.0
8544,57.0,80,64,5.0,102.0
8545,57.0,0,192,5.0,104.0
8546,45.0,80,192,5.0,104.0
8547,33.0,0,192,4.0,104.0
8548,57.0,0,192,5.0,95.0
8549,45.0,240,192,5.0,95.0
8550,57.0,240,192,5.0,89.0
8551,45.0,0,192,5.0,89.0
8552,57.0,240,192,5.0,85.0
8553,45.0,0,192,5.0,85.0
8554,45.0,240,192,5.0,81.0
8555,57.0,0,192,5.0,81.0
8556,45.0,0,192,5.0,76.0
8557,57.0,240,192,5.0,76.0
8558,45.0,0,192,5.0,74.0
8559,57.0,240,192,5.0,74.0
8560,57.0,0,192,5.0,71.0
8561,45.0,240,192,5.0,71.0
8562,57.0,0,192,5.0,69.0
8563,45.0,0,192,5.0,69.0
8564,52.0,0,192,4.0,69.0
8565,55.0,240,192,4.0,69.0
8566,69.0,0,120,1.0,72.0
8567,55.0,0,192,4.0,72.0
8568,57.0,0,192,5.0,72.0
8569,45.0,0,192,5.0,72.0
8570,52.0,240,192,4.0,72.0
8571,73.0,120,120,1.0,73.0
8572,76.0,0,120,1.0,75.0
8573,55.0,0,192,4.0,75.0
8574,52.0,120,192,4.0,75.0
8575,45.0,0,192,5.0,75.0
8576,57.0,0,192,5.0,75.0
8577,73.0,120,120,1.0,76.0
8578,45.0,0,192,5.0,77.0
8579,64.0,0,192,2.0,77.0
8580,57.0,0,192,5.0,77.0
8581,61.0,0,192,2.0,77.0
8582,52.0,0,192,4.0,77.0
8583,81.0,120,192,1.0,77.0
8584,67.0,0,192,2.0,77.0
8585,55.0,0,192,4.0,77.0
8586,54.0,0,192,4.0,79.0
8587,50.0,0,192,4.0,79.0
8588,57.0,0,192,5.0,79.0
8589,45.0,240,192,5.0,79.0
8590,69.0,0,120,1.0,82.0
8591,57.0,0,192,5.0,82.0
8592,45.0,0,192,5.0,82.0
8593,50.0,240,192,4.0,82.0
8594,54.0,0,192,4.0,82.0
8595,74.0,120,120,1.0,83.0
8596,78.0,0,120,1.0,84.0
8597,45.0,0,192,5.0,84.0
8598,50.0,120,192,4.0,84.0
8599,57.0,0,192,5.0,84.0
8600,54.0,0,192,4.0,84.0
8601,74.0,120,120,1.0,85.0
8602,81.0,0,192,1.0,86.0
8603,66.0,0,192,2.0,86.0
8604,62.0,0,192,2.0,86.0
8605,50.0,120,192,4.0,86.0
8606,54.0,0,192,4.0,86.0
8607,45.0,0,192,5.0,86.0
8608,57.0,0,192,5.0,86.0
8609,55.0,0,192,4.0,89.0
8610,52.0,0,192,4.0,89.0
8611,57.0,0,192,5.0,89.0
8612,45.0,240,192,5.0,89.0
8613,64.0,0,120,2.0,91.0
8614,76.0,240,120,1.0,91.0
8615,55.0,0,192,4.0,91.0
8616,45.0,0,192,5.0,91.0
8617,52.0,0,192,4.0,91.0
8618,57.0,0,192,5.0,91.0
8619,79.0,120,120,1.0,92.0
8620,67.0,0,120,2.0,92.0
8621,73.0,0,120,2.0,93.0
8622,85.0,120,120,1.0,93.0
8623,45.0,0,192,5.0,93.0
8624,55.0,0,192,4.0,93.0
8625,52.0,0,192,4.0,93.0
8626,57.0,0,192,5.0,93.0
8627,67.0,120,120,2.0,94.0
8628,79.0,0,120,1.0,94.0
8629,88.0,0,120,1.0,96.0
8630,76.0,0,120,2.0,96.0
8631,45.0,0,192,5.0,96.0
8632,52.0,0,192,4.0,96.0
8633,55.0,120,192,4.0,96.0
8634,57.0,0,192,5.0,96.0
8635,85.0,0,120,1.0,97.0
8636,73.0,120,120,2.0,97.0
8637,54.0,0,360,4.0,99.0
8638,50.0,0,360,5.0,99.0
8639,38.0,0,360,5.0,99.0
8640,86.0,120,360,1.0,99.0
8641,57.0,0,360,4.0,99.0
8642,74.0,0,360,2.0,99.0
8643,54.0,720,64,5.0,83.0
8644,54.0,80,64,5.0,85.0
8645,54.0,80,64,5.0,87.0
8646,42.0,80,360,5.0,89.0
8647,54.0,0,360,5.0,89.0
8648,30.0,0,360,4.0,89.0
8649,57.0,720,64,5.0,88.0
8650,57.0,80,64,5.0,90.0
8651,57.0,80,64,5.0,92.0
8652,45.0,80,360,5.0,94.0
8653,57.0,0,360,5.0,94.0
8654,33.0,0,360,4.0,94.0
8655,61.0,720,64,5.0,95.0
8656,61.0,80,64,5.0,97.0
8657,61.0,80,64,5.0,99.0
8658,61.0,0,192,5.0,101.0
8659,37.0,0,192,4.0,101.0
8660,49.0,80,192,5.0,101.0
8661,49.0,240,192,5.0,73.0
8662,61.0,0,192,5.0,73.0
8663,49.0,0,192,5.0,64.0
8664,61.0,240,192,5.0,64.0
8665,61.0,240,192,5.0,55.0
8666,49.0,0,192,5.0,55.0
8667,61.0,0,192,5.0,51.0
8668,49.0,240,192,5.0,51.0
8669,61.0,0,192,5.0,48.0
8670,49.0,240,192,5.0,48.0
8671,49.0,0,192,5.0,46.0
8672,61.0,240,192,5.0,46.0
8673,61.0,0,192,5.0,44.0
8674,49.0,240,192,5.0,44.0
8675,49.0,0,192,5.0,44.0
8676,56.0,0,192,4.0,44.0
8677,59.0,240,192,4.0,44.0
8678,61.0,0,192,5.0,44.0
8679,73.0,240,120,1.0,45.0
8680,59.0,0,192,4.0,45.0
8681,56.0,0,192,4.0,45.0
8682,61.0,0,192,5.0,45.0
8683,49.0,0,192,5.0,45.0
8684,77.0,120,120,1.0,45.0
8685,80.0,0,120,1.0,46.0
8686,56.0,0,192,4.0,46.0
8687,59.0,0,192,4.0,46.0
8688,61.0,120,192,5.0,46.0
8689,49.0,0,192,5.0,46.0
8690,77.0,120,120,1.0,46.0
8691,61.0,0,192,5.0,47.0
8692,49.0,0,192,5.0,47.0
8693,73.0,0,192,2.0,47.0
8694,56.0,0,192,4.0,47.0
8695,59.0,120,192,4.0,47.0
8696,85.0,0,192,1.0,47.0
8697,54.0,0,192,4.0,48.0
8698,57.0,0,192,4.0,48.0
8699,61.0,0,192,5.0,48.0
8700,49.0,240,192,5.0,48.0
8701,73.0,240,120,1.0,49.0
8702,54.0,0,192,4.0,49.0
8703,49.0,0,192,5.0,49.0
8704,61.0,0,192,5.0,49.0
8705,57.0,0,192,4.0,49.0
8706,78.0,120,120,1.0,49.0
8707,81.0,0,120,1.0,50.0
8708,54.0,0,192,4.0,50.0
8709,61.0,120,192,5.0,50.0
8710,49.0,0,192,5.0,50.0
8711,57.0,0,192,4.0,50.0
8712,78.0,120,120,1.0,50.0
8713,61.0,0,192,5.0,51.0
8714,54.0,0,192,4.0,51.0
8715,73.0,0,192,2.0,51.0
8716,85.0,0,192,1.0,51.0
8717,57.0,120,192,4.0,51.0
8718,49.0,0,192,5.0,51.0
8719,61.0,0,192,5.0,52.0
8720,59.0,0,192,4.0,52.0
8721,49.0,240,192,5.0,52.0
8722,56.0,0,192,4.0,52.0
8723,73.0,0,120,1.0,53.0
8724,59.0,0,192,4.0,53.0
8725,56.0,240,192,4.0,53.0
8726,49.0,0,192,5.0,53.0
8727,61.0,0,192,5.0,53.0
8728,77.0,120,120,1.0,53.0
8729,80.0,0,120,1.0,53.0
8730,56.0,0,192,4.0,53.0
8731,59.0,0,192,4.0,53.0
8732,49.0,0,192,5.0,53.0
8733,61.0,120,192,5.0,53.0
8734,77.0,120,120,1.0,54.0
8735,49.0,0,192,5.0,54.0
8736,61.0,0,192,5.0,54.0
8737,73.0,120,192,2.0,54.0
8738,85.0,0,192,1.0,54.0
8739,59.0,0,192,4.0,54.0
8740,56.0,0,192,4.0,54.0
8741,42.0,0,192,5.0,55.0
8742,61.0,240,192,4.0,55.0
8743,54.0,0,192,5.0,55.0
8744,54.0,0,192,4.0,55.0
8745,57.0,0,192,4.0,55.0
8746,69.0,0,120,2.0,56.0
8747,81.0,0,120,1.0,56.0
8748,57.0,0,192,4.0,56.0
8749,59.0,0,192,4.0,56.0
8750,54.0,0,192,5.0,56.0
8751,42.0,240,192,5.0,56.0
8752,68.0,120,120,2.0,58.0
8753,80.0,0,120,1.0,58.0
8754,81.0,120,120,1.0,60.0
8755,69.0,0,120,2.0,60.0
8756,57.0,0,192,4.0,60.0
8757,59.0,0,192,4.0,60.0
8758,42.0,0,192,5.0,60.0
8759,54.0,0,192,5.0,60.0
8760,71.0,120,120,2.0,62.0
8761,83.0,0,120,1.0,62.0
8762,73.0,120,120,2.0,66.0
8763,85.0,0,120,1.0,66.0
8764,54.0,0,192,5.0,66.0
8765,42.0,0,192,5.0,66.0
8766,57.0,0,192,4.0,66.0
8767,59.0,0,192,4.0,66.0
8768,87.0,0,120,1.0,70.0
8769,75.0,120,120,2.0,70.0
8770,59.0,0,192,4.0,77.0
8771,40.0,0,192,5.0,77.0
8772,76.0,0,192,2.0,77.0
8773,88.0,120,192,1.0,77.0
8774,52.0,0,192,5.0,77.0
8775,56.0,0,192,4.0,77.0
8776,76.0,240,120,1.0,51.0
8777,52.0,0,192,5.0,51.0
8778,40.0,0,192,5.0,51.0
8779,62.0,0,192,4.0,51.0
8780,56.0,0,192,4.0,51.0
8781,59.0,0,192,4.0,51.0
8782,80.0,120,120,1.0,51.0
8783,83.0,0,120,1.0,52.0
8784,52.0,0,192,5.0,52.0
8785,59.0,0,192,4.0,52.0
8786,56.0,0,192,4.0,52.0
8787,62.0,0,192,4.0,52.0
8788,40.0,120,192,5.0,52.0
8789,80.0,120,120,1.0,52.0
8790,56.0,0,192,4.0,53.0
8791,59.0,0,192,4.0,53.0
8792,62.0,0,192,4.0,53.0
8793,68.0,0,192,2.0,53.0
8794,74.0,0,192,2.0,53.0
8795,40.0,0,192,5.0,53.0
8796,52.0,0,192,5.0,53.0
8797,88.0,120,192,1.0,53.0
8798,57.0,0,192,4.0,54.0
8799,61.0,0,192,4.0,54.0
8800,40.0,240,192,5.0,54.0
8801,52.0,0,192,5.0,54.0
8802,76.0,0,120,1.0,56.0
8803,57.0,240,192,4.0,56.0
8804,61.0,0,192,4.0,56.0
8805,40.0,0,192,5.0,56.0
8806,52.0,0,192,5.0,56.0
8807,81.0,120,120,1.0,56.0
8808,85.0,0,120,1.0,57.0
8809,40.0,0,192,5.0,57.0
8810,52.0,120,192,5.0,57.0
8811,61.0,0,192,4.0,57.0
8812,57.0,0,192,4.0,57.0
8813,81.0,120,120,1.0,58.0
8814,73.0,0,192,2.0,58.0
8815,69.0,0,192,2.0,58.0
8816,88.0,0,192,1.0,58.0
8817,61.0,0,192,4.0,58.0
8818,40.0,0,192,5.0,58.0
8819,52.0,120,192,5.0,58.0
8820,57.0,0,192,4.0,58.0
8821,56.0,0,192,4.0,61.0
8822,62.0,240,192,4.0,61.0
8823,40.0,0,192,5.0,61.0
8824,52.0,0,192,5.0,61.0
8825,80.0,0,120,1.0,64.0
8826,52.0,0,192,5.0,64.0
8827,40.0,0,192,5.0,64.0
8828,50.0,0,192,4.0,64.0
8829,59.0,0,192,4.0,64.0
8830,56.0,0,192,4.0,64.0
8831,74.0,0,192,2.0,67.0
8832,68.0,240,192,2.0,67.0
8833,86.0,120,120,1.0,65.0
8834,59.0,0,192,4.0,67.0
8835,50.0,0,192,4.0,67.0
8836,40.0,0,192,5.0,67.0
8837,52.0,0,192,5.0,67.0
8838,56.0,120,192,4.0,67.0
8839,80.0,0,120,1.0,69.0
8840,59.0,0,192,4.0,69.0
8841,56.0,0,192,4.0,69.0
8842,50.0,0,192,4.0,69.0
8843,40.0,0,192,5.0,69.0
8844,52.0,240,192,5.0,69.0
8845,68.0,0,192,2.0,69.0
8846,74.0,0,192,2.0,69.0
8847,86.0,120,120,1.0,71.0
8848,59.0,0,192,4.0,72.0
8849,56.0,120,192,4.0,72.0
8850,52.0,0,192,5.0,72.0
8851,40.0,0,192,5.0,72.0
8852,50.0,0,192,4.0,72.0
8853,80.0,0,120,1.0,75.0
8854,40.0,0,192,5.0,75.0
8855,59.0,240,192,4.0,75.0
8856,68.0,0,192,2.0,75.0
8857,71.0,0,192,2.0,75.0
8858,50.0,0,192,4.0,75.0
8859,52.0,0,192,5.0,75.0
8860,56.0,0,192,4.0,75.0
8861,83.0,120,120,1.0,76.0
8862,40.0,0,192,5.0,78.0
8863,52.0,0,192,5.0,78.0
8864,59.0,0,192,4.0,78.0
8865,50.0,120,192,4.0,78.0
8866,56.0,0,192,4.0,78.0
8867,80.0,0,120,1.0,81.0
8868,59.0,0,192,4.0,81.0
8869,50.0,0,192,4.0,81.0
8870,52.0,240,192,5.0,81.0
8871,40.0,0,192,5.0,81.0
8872,68.0,0,192,2.0,81.0
8873,71.0,0,192,2.0,81.0
8874,56.0,0,192,4.0,81.0
8875,83.0,120,120,1.0,82.0
8876,81.0,0,120,1.0,82.0
8877,88.0,120,120,1.0,82.0
8878,86.0,120,120,1.0,83.0
8879,33.0,120,360,4.0,82.0
8880,45.0,0,360,4.0,82.0
8881,52.0,0,360,4.0,82.0
8882,49.0,0,360,4.0,82.0
8883,57.0,0,360,4.0,82.0
8884,69.0,0,480,2.0,82.0
8885,85.0,120,120,1.0,83.0
8886,83.0,120,120,1.0,84.0
8887,81.0,120,120,1.0,84.0
8888,45.0,120,64,4.0,84.0
8889,80.0,0,120,1.0,84.0
8890,45.0,80,64,4.0,85.0
8891,45.0,40,64,4.0,85.0
8892,78.0,40,120,1.0,85.0
8893,76.0,0,120,1.0,85.0
8894,81.0,120,120,1.0,86.0
8895,33.0,0,360,4.0,85.0
8896,80.0,120,120,1.0,86.0
8897,45.0,80,360,4.0,85.0
8898,78.0,120,120,1.0,87.0
8899,76.0,120,120,1.0,87.0
8900,74.0,120,120,1.0,88.0
8901,45.0,120,64,4.0,88.0
8902,73.0,0,120,1.0,88.0
8903,45.0,80,64,4.0,88.0
8904,45.0,40,64,4.0,89.0
8905,71.0,40,120,1.0,89.0
8906,69.0,0,120,1.0,89.0
8907,76.0,120,120,1.0,90.0
8908,37.0,80,360,4.0,89.0
8909,74.0,120,120,1.0,90.0
8910,45.0,0,360,4.0,89.0
8911,73.0,120,120,1.0,90.0
8912,71.0,120,120,1.0,91.0
8913,69.0,120,120,1.0,91.0
8914,49.0,120,64,4.0,92.0
8915,68.0,0,120,1.0,92.0
8916,49.0,80,64,4.0,92.0
8917,49.0,40,64,4.0,92.0
8918,66.0,40,120,1.0,92.0
8919,64.0,80,120,1.0,91.0
8920,52.0,0,192,4.0,91.0
8921,40.0,0,192,4.0,91.0
8922,69.0,120,120,1.0,89.0
8923,68.0,0,120,1.0,88.0
8924,52.0,0,192,4.0,88.0
8925,40.0,120,192,4.0,88.0
8926,66.0,120,120,1.0,86.0
8927,64.0,120,120,1.0,84.0
8928,40.0,0,192,4.0,84.0
8929,52.0,0,192,4.0,84.0
8930,62.0,120,120,1.0,84.0
8931,61.0,0,120,1.0,83.0
8932,52.0,120,192,4.0,83.0
8933,40.0,0,192,4.0,83.0
8934,59.0,120,120,1.0,82.0
8935,45.0,120,120,4.0,80.0
8936,52.0,120,120,5.0,79.0
8937,57.0,0,360,1.0,80.0
8938,50.0,120,120,5.0,77.0
8939,49.0,120,120,5.0,76.0
8940,47.0,120,120,5.0,75.0
8941,45.0,120,120,5.0,74.0
8942,44.0,0,120,5.0,73.0
8943,69.0,0,192,2.0,73.0
8944,81.0,120,192,1.0,73.0
8945,42.0,120,120,5.0,73.0
8946,40.0,0,120,5.0,72.0
8947,69.0,0,192,2.0,72.0
8948,81.0,120,192,1.0,72.0
8949,45.0,0,120,5.0,73.0
8950,57.0,120,120,5.0,73.0
8951,56.0,0,120,5.0,75.0
8952,44.0,0,120,5.0,75.0
8953,69.0,0,192,2.0,75.0
8954,81.0,120,192,1.0,75.0
8955,54.0,0,120,5.0,76.0
8956,42.0,120,120,5.0,76.0
8957,40.0,0,120,5.0,78.0
8958,52.0,0,120,5.0,78.0
8959,81.0,120,192,1.0,78.0
8960,69.0,0,192,2.0,78.0
8961,50.0,120,120,5.0,81.0
8962,38.0,0,120,5.0,81.0
8963,49.0,0,120,5.0,84.0
8964,37.0,0,120,5.0,84.0
8965,69.0,0,192,2.0,84.0
8966,81.0,120,192,1.0,84.0
8967,47.0,120,120,5.0,87.0
8968,35.0,0,120,5.0,87.0
8969,81.0,0,80,1.0,97.0
8970,69.0,120,80,2.0,97.0
8971,33.0,0,80,5.0,97.0
8972,45.0,0,80,5.0,97.0
8973,35.0,0,80,5.0,95.0
8974,47.0,0,80,5.0,95.0
8975,71.0,80,80,2.0,95.0
8976,83.0,0,80,1.0,95.0
8977,69.0,0,80,2.0,93.0
8978,45.0,0,80,5.0,93.0
8979,33.0,80,80,5.0,93.0
8980,81.0,0,80,1.0,93.0
8981,71.0,0,80,2.0,91.0
8982,35.0,80,80,5.0,91.0
8983,47.0,0,80,5.0,91.0
8984,83.0,0,80,1.0,91.0
8985,69.0,0,80,2.0,89.0
8986,81.0,80,80,1.0,89.0
8987,45.0,0,80,5.0,89.0
8988,33.0,0,80,5.0,89.0
8989,83.0,0,80,1.0,88.0
8990,71.0,0,80,2.0,88.0
8991,35.0,0,80,5.0,88.0
8992,47.0,80,80,5.0,88.0
8993,69.0,0,80,2.0,87.0
8994,45.0,80,80,5.0,87.0
8995,81.0,0,80,1.0,87.0
8996,33.0,0,80,5.0,87.0
8997,83.0,0,80,1.0,85.0
8998,71.0,0,80,2.0,85.0
8999,35.0,0,80,5.0,85.0
9000,47.0,80,80,5.0,85.0
9001,45.0,0,80,5.0,84.0
9002,69.0,0,80,2.0,84.0
9003,81.0,80,80,1.0,84.0
9004,33.0,0,80,5.0,84.0
9005,47.0,0,80,5.0,83.0
9006,35.0,80,80,5.0,83.0
9007,83.0,0,80,1.0,83.0
9008,71.0,0,80,2.0,83.0
9009,81.0,0,80,1.0,82.0
9010,69.0,0,80,2.0,82.0
9011,45.0,80,80,5.0,82.0
9012,33.0,0,80,5.0,82.0
9013,71.0,80,80,2.0,81.0
9014,83.0,0,80,1.0,81.0
9015,47.0,0,80,5.0,81.0
9016,35.0,0,80,5.0,81.0
9017,33.0,0,80,5.0,80.0
9018,69.0,0,80,2.0,80.0
9019,81.0,80,80,1.0,80.0
9020,45.0,0,80,5.0,80.0
9021,47.0,0,80,5.0,81.0
9022,35.0,80,80,5.0,81.0
9023,71.0,0,80,2.0,81.0
9024,83.0,0,80,1.0,81.0
9025,69.0,0,80,2.0,80.0
9026,81.0,0,80,1.0,80.0
9027,33.0,0,80,5.0,80.0
9028,45.0,80,80,5.0,80.0
9029,83.0,0,80,1.0,79.0
9030,35.0,80,80,5.0,79.0
9031,47.0,0,80,5.0,79.0
9032,71.0,0,80,2.0,79.0
9033,33.0,0,80,5.0,78.0
9034,69.0,0,80,2.0,78.0
9035,81.0,80,80,1.0,78.0
9036,45.0,0,80,5.0,78.0
9037,83.0,0,80,1.0,77.0
9038,47.0,0,80,5.0,77.0
9039,35.0,80,80,5.0,77.0
9040,71.0,0,80,2.0,77.0
9041,33.0,0,80,5.0,76.0
9042,45.0,0,80,5.0,76.0
9043,81.0,80,80,1.0,76.0
9044,69.0,0,80,2.0,76.0
9045,83.0,0,80,1.0,76.0
9046,71.0,0,80,2.0,76.0
9047,35.0,0,80,5.0,76.0
9048,47.0,80,80,5.0,76.0
9049,69.0,80,80,2.0,75.0
9050,81.0,0,80,1.0,75.0
9051,33.0,0,80,5.0,75.0
9052,45.0,0,80,5.0,75.0
9053,83.0,0,80,1.0,75.0
9054,35.0,80,80,5.0,75.0
9055,47.0,0,80,5.0,75.0
9056,71.0,0,80,2.0,75.0
9057,69.0,0,80,2.0,75.0
9058,45.0,0,80,5.0,75.0
9059,33.0,0,80,5.0,75.0
9060,81.0,80,80,1.0,75.0
9061,71.0,80,80,2.0,74.0
9062,83.0,0,80,1.0,74.0
9063,35.0,0,80,5.0,74.0
9064,47.0,0,80,5.0,74.0
9065,69.0,0,80,2.0,75.0
9066,81.0,80,80,1.0,75.0
9067,45.0,0,80,5.0,75.0
9068,33.0,0,80,5.0,75.0
9069,71.0,0,80,2.0,74.0
9070,47.0,0,80,5.0,74.0
9071,83.0,0,80,1.0,74.0
9072,35.0,80,80,5.0,74.0
9073,81.0,80,80,1.0,72.0
9074,33.0,0,80,5.0,72.0
9075,45.0,0,80,5.0,72.0
9076,69.0,0,80,2.0,72.0
9077,32.0,0,120,5.0,71.0
9078,44.0,0,120,5.0,71.0
9079,68.0,0,120,2.0,71.0
9080,80.0,80,120,1.0,71.0
9081,45.0,0,120,5.0,69.0
9082,33.0,120,120,5.0,69.0
9083,81.0,0,120,1.0,69.0
9084,69.0,0,120,2.0,69.0
9085,33.0,0,78,5.0,72.0
9086,69.0,0,78,1.0,72.0
9087,57.0,0,78,2.0,72.0
9088,45.0,1440,78,4.0,72.0
9089,57.0,0,360,2.0,80.0
9090,69.0,0,360,1.0,80.0
9091,45.0,120,360,4.0,80.0
9092,33.0,0,360,5.0,80.0
9093,50.0,0,156,4.0,74.0
9094,62.0,0,156,2.0,74.0
9095,74.0,480,156,1.0,74.0
9096,38.0,0,156,5.0,74.0
9097,33.0,0,78,5.0,75.0
9098,69.0,0,78,1.0,75.0
9099,57.0,360,78,2.0,75.0
9100,45.0,0,78,4.0,75.0
9101,33.0,0,360,5.0,82.0
9102,45.0,0,360,4.0,82.0
9103,69.0,0,360,1.0,82.0
9104,57.0,120,360,2.0,82.0
9105,50.0,0,156,4.0,77.0
9106,38.0,0,156,5.0,77.0
9107,62.0,0,156,2.0,77.0
9108,74.0,480,156,1.0,77.0
9109,57.0,360,78,2.0,78.0
9110,33.0,0,78,5.0,78.0
9111,69.0,0,78,1.0,78.0
9112,45.0,0,78,4.0,78.0
9113,57.0,0,360,2.0,85.0
9114,45.0,0,360,4.0,85.0
9115,69.0,120,360,1.0,85.0
9116,33.0,0,360,5.0,85.0
9117,74.0,0,156,1.0,80.0
9118,38.0,0,156,5.0,80.0
9119,62.0,480,156,2.0,80.0
9120,50.0,0,156,4.0,80.0
9121,78.0,360,78,1.0,81.0
9122,66.0,0,78,2.0,81.0
9123,42.0,0,78,5.0,81.0
9124,54.0,0,78,4.0,81.0
9125,69.0,0,840,2.0,87.0
9126,57.0,120,840,4.0,87.0
9127,45.0,0,840,5.0,87.0
9128,81.0,0,840,1.0,87.0
9129,79.0,960,40,1.0,59.0
9130,81.0,40,40,1.0,59.0
9131,79.0,40,40,1.0,59.0
9132,81.0,40,40,1.0,58.0
9133,79.0,40,40,1.0,58.0
9134,81.0,40,40,1.0,58.0
9135,79.0,40,40,1.0,58.0
9136,81.0,40,40,1.0,58.0
9137,79.0,40,40,1.0,58.0
9138,78.0,40,60,1.0,58.0
9139,57.0,0,480,5.0,59.0
9140,79.0,60,60,1.0,57.0
9141,67.0,0,0,4.0,57.0
9142,64.0,60,0,4.0,57.0
9143,76.0,0,156,1.0,57.0
9144,73.0,240,156,1.0,56.0
9145,57.0,0,480,5.0,57.0
9146,74.0,0,240,1.0,57.0
9147,78.0,240,156,1.0,54.0
9148,66.0,0,840,4.0,57.0
9149,69.0,240,360,1.0,51.0
9150,62.0,240,840,5.0,57.0
9151,62.0,0,40,1.0,51.0
9152,64.0,40,40,1.0,50.0
9153,62.0,40,40,1.0,50.0
9154,64.0,40,40,1.0,50.0
9155,62.0,40,40,1.0,50.0
9156,64.0,40,40,1.0,49.0
9157,62.0,40,40,1.0,49.0
9158,64.0,40,40,1.0,49.0
9159,62.0,40,40,1.0,48.0
9160,61.0,40,60,1.0,48.0
9161,62.0,60,60,1.0,48.0
9162,40.0,60,0,5.0,49.0
9163,47.0,480,480,4.0,51.0
9164,50.0,0,0,4.0,49.0
9165,59.0,0,156,1.0,49.0
9166,56.0,240,156,1.0,46.0
9167,47.0,0,480,4.0,49.0
9168,49.0,240,522,4.0,44.0
9169,57.0,0,522,1.0,44.0
9170,45.0,0,522,5.0,44.0
9171,79.0,0,40,1.0,54.0
9172,81.0,40,40,1.0,54.0
9173,79.0,40,40,1.0,54.0
9174,81.0,40,40,1.0,54.0
9175,79.0,40,40,1.0,54.0
9176,81.0,40,40,1.0,54.0
9177,79.0,40,40,1.0,53.0
9178,81.0,40,40,1.0,53.0
9179,79.0,40,40,1.0,53.0
9180,78.0,40,60,1.0,53.0
9181,67.0,0,0,4.0,53.0
9182,64.0,60,0,4.0,53.0
9183,79.0,60,60,1.0,53.0
9184,57.0,0,480,5.0,54.0
9185,76.0,0,156,1.0,53.0
9186,73.0,240,156,1.0,52.0
9187,57.0,0,480,5.0,53.0
9188,74.0,0,240,1.0,53.0
9189,78.0,240,156,1.0,50.0
9190,62.0,240,835,5.0,53.0
9191,66.0,0,840,4.0,53.0
9192,69.0,240,360,1.0,47.0
9193,55.0,0,40,1.0,47.0
9194,57.0,40,40,1.0,47.0
9195,55.0,40,40,1.0,47.0
9196,57.0,40,40,1.0,46.0
9197,55.0,40,40,1.0,46.0
9198,57.0,40,40,1.0,46.0
9199,55.0,40,40,1.0,46.0
9200,57.0,40,40,1.0,45.0
9201,55.0,40,40,1.0,45.0
9202,54.0,40,60,1.0,45.0
9203,43.0,480,480,4.0,47.0
9204,40.0,0,480,4.0,47.0
9205,33.0,0,480,5.0,47.0
9206,55.0,60,60,1.0,44.0
9207,52.0,0,240,1.0,44.0
9208,49.0,240,240,1.0,45.0
9209,33.0,0,480,5.0,44.0
9210,43.0,60,480,4.0,44.0
9211,40.0,0,480,4.0,44.0
9212,42.0,240,480,4.0,42.0
9213,38.0,0,480,5.0,42.0
9214,50.0,0,480,1.0,42.0
9215,53.0,0,78,5.0,64.0
9216,41.0,0,78,5.0,64.0
9217,29.0,840,78,5.0,64.0
9218,41.0,0,360,5.0,64.0
9219,29.0,120,360,5.0,64.0
9220,53.0,0,360,5.0,64.0
9221,46.0,480,156,5.0,65.0
9222,34.0,0,156,5.0,65.0
9223,58.0,0,156,5.0,65.0
9224,53.0,0,78,5.0,65.0
9225,29.0,360,78,5.0,65.0
9226,41.0,0,78,5.0,65.0
9227,53.0,0,360,5.0,65.0
9228,29.0,120,360,5.0,65.0
9229,41.0,0,360,5.0,65.0
9230,34.0,0,156,5.0,66.0
9231,46.0,480,156,5.0,66.0
9232,58.0,0,156,5.0,66.0
9233,29.0,0,78,5.0,66.0
9234,41.0,0,78,5.0,66.0
9235,53.0,360,78,5.0,66.0
9236,53.0,0,360,5.0,66.0
9237,29.0,0,360,5.0,66.0
9238,41.0,120,360,5.0,66.0
9239,48.0,0,156,5.0,67.0
9240,60.0,0,156,5.0,67.0
9241,36.0,480,156,5.0,67.0
9242,41.0,0,78,5.0,67.0
9243,29.0,360,78,5.0,67.0
9244,53.0,0,78,5.0,67.0
9245,53.0,120,360,5.0,68.0
9246,41.0,0,360,5.0,68.0
9247,29.0,0,360,5.0,68.0
9248,60.0,0,156,5.0,68.0
9249,48.0,0,156,5.0,68.0
9250,36.0,480,156,5.0,68.0
9251,29.0,360,78,5.0,69.0
9252,41.0,0,78,5.0,69.0
9253,53.0,0,78,5.0,69.0
9254,65.0,0,78,2.0,69.0
9255,77.0,0,78,1.0,69.0
9256,77.0,120,160,1.0,69.0
9257,65.0,0,160,2.0,69.0
9258,70.0,0,104,2.0,69.0
9259,74.0,160,104,1.0,69.0
9260,53.0,0,360,5.0,69.0
9261,29.0,0,360,5.0,69.0
9262,41.0,0,360,5.0,69.0
9263,77.0,0,104,1.0,69.0
9264,65.0,160,104,2.0,69.0
9265,58.0,160,156,5.0,69.0
9266,34.0,0,156,5.0,69.0
9267,46.0,0,156,5.0,69.0
9268,65.0,0,160,2.0,69.0
9269,77.0,0,160,1.0,69.0
9270,70.0,160,104,2.0,70.0
9271,74.0,0,104,1.0,70.0
9272,77.0,0,104,1.0,70.0
9273,65.0,160,104,2.0,70.0
9274,29.0,40,78,5.0,70.0
9275,53.0,0,78,5.0,70.0
9276,41.0,0,78,5.0,70.0
9277,77.0,0,160,1.0,70.0
9278,65.0,0,160,2.0,70.0
9279,74.0,160,104,1.0,70.0
9280,70.0,0,104,2.0,70.0
9281,53.0,0,360,5.0,70.0
9282,41.0,120,360,5.0,70.0
9283,29.0,0,360,5.0,70.0
9284,77.0,160,104,1.0,70.0
9285,65.0,0,104,2.0,70.0
9286,58.0,160,156,5.0,71.0
9287,34.0,0,156,5.0,71.0
9288,46.0,0,156,5.0,71.0
9289,65.0,0,160,2.0,71.0
9290,77.0,0,160,1.0,71.0
9291,70.0,160,104,2.0,71.0
9292,74.0,0,104,1.0,71.0
9293,65.0,0,104,2.0,71.0
9294,77.0,160,104,1.0,71.0
9295,41.0,0,78,5.0,71.0
9296,53.0,40,78,5.0,71.0
9297,29.0,0,78,5.0,71.0
9298,77.0,0,160,1.0,71.0
9299,65.0,0,160,2.0,71.0
9300,75.0,160,104,1.0,71.0
9301,69.0,0,104,2.0,71.0
9302,29.0,120,360,5.0,71.0
9303,53.0,0,360,5.0,71.0
9304,41.0,0,360,5.0,71.0
9305,65.0,0,104,2.0,72.0
9306,77.0,160,104,1.0,72.0
9307,60.0,0,156,5.0,72.0
9308,48.0,0,156,5.0,72.0
9309,36.0,0,156,5.0,72.0
9310,65.0,0,160,2.0,72.0
9311,77.0,160,160,1.0,72.0
9312,69.0,0,104,2.0,72.0
9313,75.0,160,104,1.0,72.0
9314,77.0,0,104,1.0,72.0
9315,65.0,160,104,2.0,72.0
9316,53.0,0,78,5.0,72.0
9317,41.0,0,78,5.0,72.0
9318,29.0,40,78,5.0,72.0
9319,77.0,120,160,1.0,72.0
9320,65.0,0,160,2.0,72.0
9321,69.0,0,104,2.0,73.0
9322,75.0,160,104,1.0,73.0
9323,41.0,0,360,5.0,72.0
9324,29.0,0,360,5.0,72.0
9325,53.0,0,360,5.0,72.0
9326,65.0,0,104,2.0,73.0
9327,77.0,160,104,1.0,73.0
9328,36.0,0,156,5.0,73.0
9329,48.0,0,156,5.0,73.0
9330,60.0,160,156,5.0,73.0
9331,77.0,0,160,1.0,73.0
9332,65.0,0,160,2.0,73.0
9333,69.0,0,104,2.0,73.0
9334,75.0,160,104,1.0,73.0
9335,65.0,0,104,2.0,73.0
9336,77.0,160,104,1.0,73.0
9337,29.0,40,78,5.0,73.0
9338,41.0,0,78,5.0,73.0
9339,53.0,0,78,5.0,73.0
9340,53.0,120,160,4.0,74.0
9341,77.0,0,288,1.0,74.0
9342,58.0,160,160,4.0,74.0
9343,82.0,40,96,1.0,74.0
9344,53.0,160,160,4.0,74.0
9345,46.0,0,480,5.0,74.0
9346,34.0,0,480,5.0,74.0
9347,65.0,0,0,2.0,74.0
9348,82.0,0,40,1.0,74.0
9349,84.0,40,40,1.0,74.0
9350,82.0,40,40,1.0,74.0
9351,50.0,0,160,4.0,74.0
9352,84.0,40,40,1.0,74.0
9353,82.0,0,40,1.0,74.0
9354,84.0,40,40,1.0,74.0
9355,82.0,40,40,1.0,74.0
9356,84.0,40,40,1.0,75.0
9357,46.0,40,160,4.0,74.0
9358,82.0,40,40,1.0,75.0
9359,81.0,40,60,1.0,75.0
9360,82.0,60,60,1.0,75.0
9361,58.0,0,160,4.0,75.0
9362,70.0,0,480,2.0,74.0
9363,62.0,120,480,2.0,74.0
9364,77.0,0,288,1.0,75.0
9365,58.0,160,160,4.0,75.0
9366,82.0,40,96,1.0,75.0
9367,46.0,0,480,5.0,75.0
9368,53.0,160,160,4.0,75.0
9369,34.0,60,480,5.0,75.0
9370,82.0,0,40,1.0,75.0
9371,84.0,40,40,1.0,75.0
9372,82.0,40,40,1.0,75.0
9373,50.0,0,160,4.0,75.0
9374,84.0,40,40,1.0,76.0
9375,82.0,0,40,1.0,76.0
9376,84.0,40,40,1.0,76.0
9377,82.0,40,40,1.0,76.0
9378,84.0,40,40,1.0,76.0
9379,46.0,40,160,4.0,76.0
9380,82.0,0,40,1.0,76.0
9381,81.0,40,60,1.0,76.0
9382,62.0,0,480,2.0,75.0
9383,70.0,0,480,2.0,75.0
9384,82.0,60,60,1.0,76.0
9385,65.0,120,480,2.0,75.0
9386,58.0,40,160,4.0,76.0
9387,79.0,0,288,1.0,76.0
9388,58.0,160,160,4.0,76.0
9389,82.0,40,96,1.0,76.0
9390,79.0,0,96,2.0,76.0
9391,55.0,160,160,4.0,76.0
9392,39.0,60,480,5.0,76.0
9393,51.0,0,160,4.0,77.0
9394,46.0,160,160,4.0,77.0
9395,63.0,0,480,2.0,77.0
9396,70.0,0,480,2.0,77.0
9397,67.0,0,480,2.0,77.0
9398,58.0,160,160,4.0,77.0
9399,58.0,160,160,4.0,77.0
9400,63.0,0,480,2.0,77.0
9401,70.0,160,480,2.0,77.0
9402,67.0,0,480,2.0,77.0
9403,79.0,120,960,2.0,88.0
9404,55.0,160,160,4.0,78.0
9405,39.0,0,480,5.0,77.0
9406,82.0,0,960,1.0,87.0
9407,80.0,0,120,2.0,78.0
9408,84.0,0,120,1.0,78.0
9409,51.0,0,160,4.0,78.0
9410,82.0,120,120,1.0,78.0
9411,79.0,0,120,2.0,78.0
9412,46.0,40,160,4.0,78.0
9413,81.0,0,120,1.0,78.0
9414,77.0,80,120,2.0,78.0
9415,70.0,0,480,2.0,78.0
9416,75.0,40,120,2.0,78.0
9417,58.0,80,160,4.0,78.0
9418,63.0,0,480,2.0,78.0
9419,67.0,160,480,2.0,78.0
9420,79.0,0,120,1.0,78.0
9421,53.0,160,160,4.0,78.0
9422,77.0,0,360,1.0,78.0
9423,65.0,0,360,2.0,78.0
9424,74.0,120,360,2.0,78.0
9425,62.0,0,360,2.0,78.0
9426,41.0,0,480,5.0,78.0
9427,50.0,160,160,4.0,79.0
9428,46.0,0,160,4.0,79.0
9429,58.0,0,288,4.0,79.0
9430,74.0,0,288,1.0,79.0
9431,70.0,160,288,2.0,79.0
9432,62.0,0,288,2.0,79.0
9433,41.0,160,160,4.0,79.0
9434,70.0,0,96,2.0,81.0
9435,62.0,0,96,2.0,81.0
9436,74.0,40,96,1.0,81.0
9437,58.0,0,96,4.0,81.0
9438,53.0,160,160,4.0,79.0
9439,53.0,160,160,4.0,79.0
9440,72.0,0,360,2.0,80.0
9441,60.0,0,360,2.0,80.0
9442,75.0,0,360,1.0,80.0
9443,63.0,120,360,2.0,80.0
9444,29.0,0,480,5.0,80.0
9445,48.0,160,160,4.0,78.0
9446,45.0,0,160,4.0,77.0
9447,72.0,0,288,1.0,77.0
9448,60.0,0,288,2.0,77.0
9449,57.0,160,288,4.0,77.0
9450,69.0,0,288,2.0,77.0
9451,41.0,160,160,4.0,76.0
9452,77.0,40,96,1.0,74.0
9453,65.0,0,96,2.0,74.0
9454,53.0,160,160,4.0,75.0
9455,77.0,120,160,1.0,74.0
9456,65.0,0,160,2.0,74.0
9457,70.0,0,104,2.0,74.0
9458,74.0,160,104,1.0,74.0
9459,46.0,0,160,4.0,74.0
9460,50.0,0,160,4.0,74.0
9461,34.0,0,360,5.0,74.0
9462,82.0,0,104,1.0,75.0
9463,65.0,160,104,2.0,75.0
9464,53.0,0,160,4.0,75.0
9465,65.0,0,160,2.0,75.0
9466,82.0,0,160,1.0,75.0
9467,77.0,0,104,1.0,75.0
9468,70.0,0,104,2.0,75.0
9469,50.0,160,160,4.0,75.0
9470,53.0,0,160,4.0,75.0
9471,46.0,160,360,5.0,75.0
9472,77.0,0,104,1.0,76.0
9473,65.0,160,104,2.0,76.0
9474,58.0,0,160,4.0,76.0
9475,77.0,0,160,1.0,76.0
9476,65.0,160,160,2.0,76.0
9477,70.0,0,104,2.0,76.0
9478,74.0,0,104,1.0,76.0
9479,50.0,0,160,4.0,76.0
9480,46.0,160,160,4.0,76.0
9481,34.0,0,360,5.0,76.0
9482,65.0,0,104,2.0,77.0
9483,82.0,160,104,1.0,77.0
9484,53.0,0,160,4.0,77.0
9485,82.0,160,160,1.0,77.0
9486,65.0,0,160,2.0,77.0
9487,77.0,0,104,1.0,78.0
9488,70.0,160,104,2.0,78.0
9489,53.0,0,160,4.0,78.0
9490,50.0,0,160,4.0,78.0
9491,46.0,0,360,5.0,77.0
9492,79.0,160,104,1.0,78.0
9493,67.0,0,104,2.0,78.0
9494,58.0,0,160,4.0,78.0
9495,79.0,160,160,1.0,78.0
9496,67.0,0,160,2.0,78.0
9497,63.0,0,104,2.0,79.0
9498,75.0,0,104,1.0,79.0
9499,46.0,0,160,4.0,79.0
9500,51.0,160,160,4.0,79.0
9501,39.0,0,360,5.0,78.0
9502,82.0,0,104,1.0,79.0
9503,70.0,0,104,2.0,79.0
9504,67.0,0,104,2.0,79.0
9505,55.0,160,160,4.0,79.0
9506,55.0,160,160,4.0,80.0
9507,51.0,160,360,5.0,79.0
9508,58.0,160,160,4.0,80.0
9509,67.0,0,720,2.0,89.0
9510,70.0,0,720,2.0,89.0
9511,82.0,0,720,1.0,89.0
9512,55.0,160,160,4.0,81.0
9513,69.0,80,120,2.0,81.0
9514,81.0,0,120,1.0,81.0
9515,51.0,160,360,5.0,81.0
9516,58.0,80,160,4.0,81.0
9517,70.0,0,120,2.0,81.0
9518,82.0,40,120,1.0,81.0
9519,72.0,0,120,2.0,82.0
9520,84.0,0,120,1.0,82.0
9521,82.0,0,120,1.0,82.0
9522,70.0,120,120,2.0,82.0
9523,55.0,0,160,4.0,82.0
9524,51.0,40,160,4.0,82.0
9525,81.0,0,120,1.0,82.0
9526,69.0,80,120,2.0,82.0
9527,39.0,120,360,5.0,82.0
9528,79.0,0,120,1.0,82.0
9529,67.0,40,120,2.0,82.0
9530,58.0,80,160,4.0,82.0
9531,50.0,160,160,4.0,83.0
9532,53.0,0,160,4.0,83.0
9533,41.0,120,360,5.0,83.0
9534,77.0,0,360,1.0,83.0
9535,65.0,0,360,2.0,83.0
9536,58.0,160,160,4.0,84.0
9537,86.0,0,288,1.0,84.0
9538,70.0,0,288,2.0,84.0
9539,74.0,0,288,2.0,84.0
9540,82.0,0,288,2.0,84.0
9541,50.0,0,160,4.0,84.0
9542,46.0,160,160,4.0,84.0
9543,29.0,160,360,5.0,84.0
9544,41.0,0,360,5.0,84.0
9545,86.0,0,96,1.0,85.0
9546,82.0,40,96,2.0,85.0
9547,74.0,0,96,2.0,85.0
9548,70.0,0,96,2.0,85.0
9549,53.0,160,160,4.0,85.0
9550,75.0,0,288,2.0,85.0
9551,84.0,0,288,2.0,85.0
9552,72.0,120,288,2.0,85.0
9553,87.0,0,288,1.0,85.0
9554,48.0,0,160,4.0,84.0
9555,45.0,160,160,4.0,84.0
9556,29.0,0,360,5.0,85.0
9557,41.0,0,360,5.0,85.0
9558,87.0,40,96,1.0,83.0
9559,84.0,0,96,2.0,83.0
9560,72.0,0,96,2.0,83.0
9561,75.0,0,96,2.0,83.0
9562,53.0,160,160,4.0,83.0
9563,84.0,0,288,1.0,82.0
9564,81.0,120,288,2.0,82.0
9565,69.0,0,288,2.0,82.0
9566,72.0,0,288,2.0,82.0
9567,51.0,160,160,4.0,81.0
9568,41.0,0,360,5.0,82.0
9569,29.0,0,360,5.0,82.0
9570,69.0,0,96,2.0,80.0
9571,84.0,0,96,1.0,80.0
9572,72.0,40,96,2.0,80.0
9573,81.0,0,96,2.0,80.0
9574,53.0,160,160,4.0,80.0
9575,50.0,0,104,4.0,80.0
9576,53.0,160,104,4.0,80.0
9577,70.0,0,360,2.0,80.0
9578,82.0,120,360,1.0,80.0
9579,34.0,0,360,5.0,80.0
9580,46.0,0,360,5.0,80.0
9581,58.0,160,104,4.0,81.0
9582,51.0,0,104,4.0,81.0
9583,75.0,160,160,2.0,81.0
9584,84.0,0,160,1.0,81.0
9585,39.0,0,234,5.0,81.0
9586,55.0,160,104,4.0,82.0
9587,77.0,0,160,2.0,82.0
9588,86.0,0,160,1.0,82.0
9589,60.0,0,104,4.0,82.0
9590,39.0,40,78,5.0,83.0
9591,87.0,160,160,1.0,82.0
9592,79.0,0,160,2.0,82.0
9593,50.0,0,104,4.0,83.0
9594,77.0,0,160,2.0,83.0
9595,86.0,120,160,1.0,83.0
9596,53.0,0,104,4.0,83.0
9597,84.0,160,160,1.0,83.0
9598,75.0,0,160,2.0,83.0
9599,41.0,0,360,5.0,83.0
9600,58.0,0,104,4.0,84.0
9601,82.0,160,160,1.0,84.0
9602,74.0,0,160,2.0,84.0
9603,48.0,0,104,4.0,84.0
9604,72.0,0,160,2.0,84.0
9605,81.0,0,160,1.0,84.0
9606,29.0,160,234,5.0,84.0
9607,53.0,160,104,4.0,85.0
9608,82.0,0,160,1.0,85.0
9609,74.0,0,160,2.0,85.0
9610,57.0,0,104,4.0,85.0
9611,29.0,40,78,5.0,85.0
9612,84.0,160,160,1.0,85.0
9613,75.0,0,160,2.0,85.0
9614,50.0,120,104,4.0,86.0
9615,82.0,0,160,1.0,86.0
9616,74.0,0,160,2.0,86.0
9617,53.0,0,104,4.0,86.0
9618,81.0,160,160,1.0,86.0
9619,72.0,0,160,2.0,86.0
9620,34.0,0,360,5.0,86.0
9621,58.0,0,104,4.0,87.0
9622,74.0,0,160,2.0,87.0
9623,82.0,160,160,1.0,87.0
9624,51.0,0,104,4.0,87.0
9625,75.0,0,160,2.0,87.0
9626,84.0,0,160,1.0,87.0
9627,39.0,160,234,5.0,87.0
9628,55.0,0,104,4.0,88.0
9629,77.0,160,160,2.0,88.0
9630,86.0,0,160,1.0,88.0
9631,60.0,160,104,4.0,88.0
9632,39.0,40,78,5.0,88.0
9633,79.0,0,160,2.0,88.0
9634,87.0,0,160,1.0,88.0
9635,50.0,120,104,4.0,89.0
9636,77.0,0,160,2.0,89.0
9637,86.0,0,160,1.0,89.0
9638,53.0,0,104,4.0,89.0
9639,75.0,160,160,2.0,89.0
9640,84.0,0,160,1.0,89.0
9641,41.0,0,360,5.0,89.0
9642,58.0,0,104,4.0,90.0
9643,74.0,160,160,2.0,90.0
9644,82.0,0,160,1.0,90.0
9645,48.0,160,104,4.0,90.0
9646,72.0,0,160,2.0,90.0
9647,81.0,0,160,1.0,90.0
9648,29.0,0,234,5.0,90.0
9649,53.0,0,104,4.0,91.0
9650,82.0,0,160,1.0,91.0
9651,74.0,160,160,2.0,91.0
9652,57.0,0,104,4.0,91.0
9653,29.0,40,78,5.0,91.0
9654,75.0,160,160,2.0,91.0
9655,84.0,0,160,1.0,91.0
9656,82.0,0,160,1.0,90.0
9657,86.0,160,160,1.0,90.0
9658,58.0,0,480,4.0,90.0
9659,53.0,0,480,4.0,90.0
9660,50.0,0,480,4.0,90.0
9661,34.0,120,480,5.0,90.0
9662,82.0,160,160,1.0,91.0
9663,77.0,160,160,1.0,91.0
9664,74.0,160,160,1.0,92.0
9665,77.0,160,160,1.0,92.0
9666,82.0,0,160,1.0,92.0
9667,86.0,160,160,1.0,93.0
9668,34.0,0,480,5.0,92.0
9669,53.0,0,480,4.0,92.0
9670,46.0,0,480,5.0,92.0
9671,82.0,160,160,1.0,93.0
9672,58.0,160,480,4.0,92.0
9673,50.0,0,480,4.0,92.0
9674,77.0,160,160,1.0,94.0
9675,74.0,160,160,1.0,94.0
9676,77.0,160,160,1.0,95.0
9677,58.0,0,480,4.0,95.0
9678,34.0,0,480,5.0,95.0
9679,82.0,160,480,1.0,95.0
9680,50.0,0,480,4.0,95.0
9681,65.0,0,480,2.0,95.0
9682,62.0,0,480,2.0,95.0
9683,70.0,0,480,2.0,95.0
9684,46.0,0,480,5.0,95.0
9685,53.0,0,480,4.0,95.0
9686,58.0,960,128,4.0,49.0
9687,57.0,160,128,4.0,48.0
9688,55.0,160,128,4.0,48.0
9689,53.0,160,128,4.0,48.0
9690,52.0,160,128,4.0,47.0
9691,50.0,160,128,4.0,47.0
9692,49.0,0,360,4.0,46.0
9693,33.0,0,360,5.0,46.0
9694,45.0,160,360,5.0,46.0
9695,52.0,480,288,4.0,45.0
9696,52.0,360,96,4.0,44.0
9697,45.0,120,360,4.0,44.0
9698,33.0,0,360,5.0,44.0
9699,52.0,480,288,4.0,43.0
9700,52.0,360,96,4.0,42.0
9701,49.0,0,360,4.0,41.0
9702,45.0,0,360,5.0,41.0
9703,33.0,120,360,5.0,41.0
9704,52.0,480,240,4.0,39.0
9705,82.0,480,128,1.0,51.0
9706,81.0,160,128,1.0,51.0
9707,79.0,160,128,1.0,50.0
9708,77.0,160,128,1.0,50.0
9709,76.0,160,128,1.0,49.0
9710,74.0,160,128,1.0,49.0
9711,64.0,160,360,5.0,49.0
9712,67.0,0,360,5.0,49.0
9713,73.0,0,360,1.0,49.0
9714,57.0,0,360,4.0,49.0
9715,76.0,0,288,1.0,47.0
9716,55.0,480,288,4.0,47.0
9717,55.0,360,96,4.0,46.0
9718,76.0,0,96,1.0,46.0
9719,52.0,0,360,4.0,46.0
9720,69.0,0,360,1.0,46.0
9721,67.0,0,360,5.0,46.0
9722,64.0,120,360,5.0,46.0
9723,57.0,0,360,5.0,46.0
9724,76.0,480,288,1.0,45.0
9725,49.0,0,288,4.0,45.0
9726,76.0,360,96,1.0,44.0
9727,49.0,0,96,4.0,44.0
9728,45.0,120,360,4.0,43.0
9729,64.0,0,360,5.0,43.0
9730,73.0,0,360,1.0,43.0
9731,57.0,0,360,5.0,43.0
9732,67.0,0,360,5.0,43.0
9733,76.0,0,240,1.0,41.0
9734,55.0,480,240,4.0,41.0
9735,55.0,360,96,4.0,51.0
9736,58.0,120,128,4.0,51.0
9737,57.0,160,128,4.0,51.0
9738,55.0,160,128,4.0,51.0
9739,53.0,160,128,4.0,50.0
9740,52.0,160,128,4.0,50.0
9741,50.0,160,128,4.0,50.0
9742,70.0,160,128,2.0,50.0
9743,69.0,160,128,2.0,50.0
9744,45.0,0,360,5.0,50.0
9745,33.0,0,360,5.0,50.0
9746,49.0,0,360,4.0,50.0
9747,67.0,160,128,2.0,49.0
9748,65.0,0,128,2.0,49.0
9749,52.0,160,240,4.0,49.0
9750,64.0,160,128,2.0,49.0
9751,62.0,160,128,2.0,49.0
9752,82.0,160,128,1.0,48.0
9753,81.0,160,128,1.0,48.0
9754,61.0,0,360,2.0,48.0
9755,79.0,160,128,1.0,48.0
9756,77.0,0,128,1.0,48.0
9757,64.0,160,245,2.0,48.0
9758,76.0,160,128,1.0,48.0
9759,55.0,0,288,4.0,48.0
9760,74.0,160,128,1.0,47.0
9761,55.0,40,96,4.0,47.0
9762,58.0,0,128,4.0,47.0
9763,57.0,160,128,4.0,47.0
9764,73.0,120,360,1.0,47.0
9765,55.0,160,128,4.0,47.0
9766,53.0,160,128,4.0,46.0
9767,76.0,0,235,1.0,46.0
9768,52.0,160,128,4.0,46.0
9769,50.0,160,128,4.0,46.0
9770,46.0,0,128,5.0,46.0
9771,45.0,160,128,5.0,48.0
9772,49.0,160,360,4.0,46.0
9773,43.0,160,128,5.0,49.0
9774,41.0,160,128,5.0,50.0
9775,52.0,0,245,4.0,50.0
9776,40.0,160,128,5.0,51.0
9777,38.0,160,128,5.0,52.0
9778,37.0,160,360,5.0,55.0
9779,40.0,480,235,5.0,51.0
9780,81.0,0,360,1.0,95.0
9781,57.0,0,360,2.0,95.0
9782,69.0,0,360,2.0,95.0
9783,33.0,0,360,5.0,95.0
9784,45.0,1920,360,4.0,95.0
9785,33.0,0,78,5.0,74.0
9786,57.0,1320,78,2.0,74.0
9787,69.0,0,78,1.0,74.0
9788,45.0,0,78,4.0,74.0
9789,69.0,120,360,1.0,81.0
9790,57.0,0,360,2.0,81.0
9791,45.0,0,360,4.0,81.0
9792,33.0,0,360,5.0,81.0
9793,50.0,0,156,4.0,76.0
9794,38.0,480,156,5.0,76.0
9795,62.0,0,156,2.0,76.0
9796,74.0,0,156,1.0,76.0
9797,33.0,0,78,5.0,77.0
9798,45.0,0,78,4.0,77.0
9799,69.0,360,78,1.0,77.0
9800,57.0,0,78,2.0,77.0
9801,33.0,0,360,5.0,81.0
9802,69.0,120,360,1.0,81.0
9803,57.0,0,360,2.0,81.0
9804,45.0,0,360,4.0,81.0
9805,50.0,0,156,4.0,79.0
9806,62.0,480,156,2.0,79.0
9807,38.0,0,156,5.0,79.0
9808,74.0,0,156,1.0,79.0
9809,45.0,0,78,4.0,80.0
9810,33.0,0,78,5.0,80.0
9811,57.0,360,78,2.0,80.0
9812,69.0,0,78,1.0,80.0
9813,33.0,0,360,5.0,85.0
9814,57.0,0,360,2.0,85.0
9815,69.0,0,360,1.0,85.0
9816,45.0,120,360,4.0,85.0
9817,62.0,480,156,2.0,82.0
9818,50.0,0,156,4.0,82.0
9819,74.0,0,156,1.0,82.0
9820,38.0,0,156,5.0,82.0
9821,66.0,360,78,2.0,83.0
9822,42.0,0,78,5.0,83.0
9823,78.0,0,78,1.0,83.0
9824,54.0,0,78,4.0,83.0
9825,81.0,0,960,1.0,87.0
9826,45.0,0,960,5.0,87.0
9827,57.0,0,960,4.0,87.0
9828,69.0,120,960,2.0,87.0
9829,55.0,0,40,1.0,53.0
9830,57.0,40,40,1.0,53.0
9831,55.0,40,40,1.0,53.0
9832,57.0,40,40,1.0,53.0
9833,55.0,40,40,1.0,53.0
9834,57.0,40,40,1.0,53.0
9835,55.0,40,40,1.0,52.0
9836,57.0,40,40,1.0,52.0
9837,55.0,40,40,1.0,52.0
9838,54.0,40,60,1.0,52.0
9839,33.0,960,480,5.0,53.0
9840,40.0,60,0,4.0,51.0
9841,43.0,0,0,4.0,51.0
9842,55.0,60,60,1.0,52.0
9843,52.0,0,156,1.0,51.0
9844,49.0,240,156,1.0,51.0
9845,33.0,0,480,5.0,51.0
9846,50.0,240,240,1.0,50.0
9847,54.0,240,156,1.0,48.0
9848,38.0,0,960,5.0,50.0
9849,45.0,240,480,1.0,46.0
9850,42.0,0,960,4.0,50.0
9851,86.0,0,40,1.0,51.0
9852,88.0,40,40,1.0,51.0
9853,86.0,40,40,1.0,51.0
9854,88.0,40,40,1.0,51.0
9855,86.0,40,40,1.0,50.0
9856,88.0,40,40,1.0,50.0
9857,86.0,40,40,1.0,50.0
9858,88.0,40,40,1.0,50.0
9859,86.0,40,40,1.0,50.0
9860,85.0,40,60,1.0,50.0
9861,64.0,0,480,5.0,51.0
9862,71.0,0,480,4.0,51.0
9863,74.0,60,0,4.0,50.0
9864,86.0,60,60,1.0,50.0
9865,83.0,0,156,1.0,50.0
9866,80.0,240,156,1.0,48.0
9867,71.0,0,480,4.0,50.0
9868,64.0,0,480,5.0,50.0
9869,81.0,0,960,1.0,46.0
9870,69.0,240,960,5.0,46.0
9871,73.0,0,960,4.0,46.0
9872,55.0,0,40,1.0,47.0
9873,57.0,40,40,1.0,47.0
9874,55.0,40,40,1.0,47.0
9875,57.0,40,40,1.0,47.0
9876,55.0,40,40,1.0,47.0
9877,57.0,40,40,1.0,46.0
9878,55.0,40,40,1.0,46.0
9879,57.0,40,40,1.0,46.0
9880,55.0,40,40,1.0,46.0
9881,54.0,40,60,1.0,46.0
9882,40.0,960,480,4.0,47.0
9883,43.0,0,480,4.0,47.0
9884,55.0,60,60,1.0,46.0
9885,33.0,0,0,5.0,45.0
9886,52.0,0,156,1.0,45.0
9887,49.0,240,156,1.0,45.0
9888,40.0,0,480,4.0,45.0
9889,43.0,60,480,4.0,45.0
9890,50.0,0,240,1.0,44.0
9891,54.0,240,156,1.0,42.0
9892,38.0,0,960,5.0,44.0
9893,45.0,240,480,1.0,40.0
9894,42.0,240,960,4.0,44.0
9895,79.0,0,40,1.0,45.0
9896,81.0,40,40,1.0,45.0
9897,79.0,40,40,1.0,45.0
9898,81.0,40,40,1.0,45.0
9899,79.0,40,40,1.0,45.0
9900,81.0,40,40,1.0,45.0
9901,79.0,40,40,1.0,45.0
9902,81.0,40,40,1.0,45.0
9903,79.0,40,40,1.0,45.0
9904,78.0,40,60,1.0,45.0
9905,67.0,0,480,4.0,45.0
9906,57.0,0,0,5.0,44.0
9907,79.0,60,60,1.0,44.0
9908,64.0,60,0,4.0,44.0
9909,76.0,0,240,1.0,44.0
9910,67.0,0,480,4.0,44.0
9911,73.0,240,240,1.0,44.0
9912,74.0,0,160,1.0,43.0
9913,69.0,160,104,1.0,43.0
9914,78.0,160,104,1.0,42.0
9915,62.0,0,480,5.0,43.0
9916,66.0,240,480,4.0,43.0
9917,78.0,160,160,1.0,47.0
9918,74.0,160,104,1.0,53.0
9919,69.0,160,104,2.0,59.0
9920,81.0,0,104,1.0,59.0
9921,33.0,40,78,4.0,60.0
9922,45.0,0,78,5.0,60.0
9923,69.0,0,160,2.0,64.0
9924,81.0,0,160,1.0,64.0
9925,74.0,160,104,2.0,64.0
9926,78.0,0,104,1.0,64.0
9927,45.0,120,360,5.0,64.0
9928,33.0,0,360,4.0,64.0
9929,81.0,160,104,1.0,64.0
9930,69.0,0,104,2.0,64.0
9931,81.0,0,160,1.0,65.0
9932,69.0,160,160,2.0,65.0
9933,38.0,0,234,4.0,65.0
9934,50.0,0,234,5.0,65.0
9935,78.0,160,104,1.0,65.0
9936,74.0,0,104,2.0,65.0
9937,81.0,160,104,1.0,65.0
9938,69.0,0,104,2.0,65.0
9939,33.0,40,78,4.0,65.0
9940,45.0,0,78,5.0,65.0
9941,69.0,120,160,2.0,65.0
9942,81.0,0,160,1.0,65.0
9943,73.0,160,104,2.0,66.0
9944,79.0,0,104,1.0,66.0
9945,45.0,0,360,5.0,65.0
9946,33.0,0,360,4.0,65.0
9947,69.0,0,104,2.0,66.0
9948,81.0,160,104,1.0,66.0
9949,69.0,0,160,2.0,66.0
9950,81.0,0,160,1.0,66.0
9951,40.0,0,234,4.0,66.0
9952,52.0,160,234,5.0,66.0
9953,73.0,0,104,2.0,66.0
9954,79.0,160,104,1.0,66.0
9955,81.0,0,104,1.0,67.0
9956,69.0,160,104,2.0,67.0
9957,33.0,0,78,4.0,67.0
9958,45.0,40,78,5.0,67.0
9959,69.0,120,160,2.0,67.0
9960,81.0,0,160,1.0,67.0
9961,73.0,160,104,2.0,67.0
9962,76.0,0,104,1.0,67.0
9963,45.0,0,360,5.0,67.0
9964,33.0,0,360,4.0,67.0
9965,69.0,160,104,2.0,68.0
9966,81.0,0,104,1.0,68.0
9967,69.0,0,160,2.0,68.0
9968,81.0,0,160,1.0,68.0
9969,43.0,0,234,4.0,68.0
9970,55.0,160,234,5.0,68.0
9971,76.0,160,104,1.0,68.0
9972,73.0,0,104,2.0,68.0
9973,81.0,160,104,1.0,68.0
9974,69.0,0,104,2.0,68.0
9975,45.0,40,78,5.0,68.0
9976,33.0,0,78,4.0,68.0
9977,69.0,0,160,2.0,69.0
9978,81.0,0,160,1.0,69.0
9979,78.0,160,104,1.0,69.0
9980,74.0,0,104,2.0,69.0
9981,33.0,0,360,4.0,69.0
9982,45.0,120,360,5.0,69.0
9983,81.0,0,104,1.0,69.0
9984,69.0,160,104,2.0,69.0
9985,69.0,160,160,2.0,69.0
9986,81.0,0,160,1.0,69.0
9987,54.0,0,234,5.0,69.0
9988,42.0,0,234,4.0,69.0
9989,74.0,160,104,2.0,70.0
9990,78.0,0,104,1.0,70.0
9991,69.0,160,104,2.0,70.0
9992,81.0,0,104,1.0,70.0
9993,45.0,40,78,5.0,70.0
9994,33.0,0,78,4.0,70.0
9995,81.0,120,160,1.0,70.0
9996,69.0,0,160,2.0,70.0
9997,78.0,160,104,1.0,70.0
9998,74.0,0,104,2.0,70.0
9999,45.0,0,360,5.0,70.0
10000,33.0,0,360,4.0,70.0
10001,69.0,0,104,2.0,71.0
10002,81.0,160,104,1.0,71.0
10003,69.0,160,160,2.0,71.0
10004,81.0,0,160,1.0,71.0
10005,38.0,0,234,4.0,71.0
10006,50.0,0,234,5.0,71.0
10007,78.0,160,104,1.0,71.0
10008,74.0,0,104,2.0,71.0
10009,69.0,0,104,2.0,71.0
10010,81.0,160,104,1.0,71.0
10011,45.0,0,78,5.0,71.0
10012,33.0,40,78,4.0,71.0
10013,69.0,120,160,2.0,72.0
10014,81.0,0,160,1.0,72.0
10015,79.0,160,104,1.0,72.0
10016,73.0,0,104,2.0,72.0
10017,45.0,0,360,5.0,72.0
10018,33.0,0,360,4.0,72.0
10019,69.0,160,104,2.0,72.0
10020,81.0,0,104,1.0,72.0
10021,81.0,0,160,1.0,72.0
10022,69.0,0,160,2.0,72.0
10023,40.0,160,234,4.0,72.0
10024,52.0,0,234,5.0,72.0
10025,79.0,160,104,1.0,73.0
10026,73.0,0,104,2.0,73.0
10027,69.0,0,104,2.0,73.0
10028,81.0,160,104,1.0,73.0
10029,45.0,40,78,5.0,73.0
10030,33.0,0,78,4.0,73.0
10031,69.0,0,160,2.0,73.0
10032,81.0,0,160,1.0,73.0
10033,76.0,160,104,1.0,73.0
10034,73.0,0,104,2.0,73.0
10035,45.0,120,360,5.0,73.0
10036,33.0,0,360,4.0,73.0
10037,69.0,160,104,2.0,74.0
10038,81.0,0,104,1.0,74.0
10039,69.0,160,160,2.0,74.0
10040,81.0,0,160,1.0,74.0
10041,43.0,0,234,4.0,74.0
10042,55.0,0,234,5.0,74.0
10043,76.0,160,104,1.0,74.0
10044,73.0,0,104,2.0,74.0
10045,81.0,160,104,1.0,74.0
10046,69.0,0,104,2.0,74.0
10047,45.0,40,78,5.0,75.0
10048,33.0,0,78,4.0,75.0
10049,42.0,120,160,4.0,75.0
10050,38.0,160,104,4.0,75.0
10051,69.0,0,360,2.0,75.0
10052,81.0,0,360,1.0,75.0
10053,45.0,160,104,4.0,75.0
10054,45.0,160,160,4.0,76.0
10055,42.0,160,104,4.0,76.0
10056,50.0,160,104,4.0,76.0
10057,74.0,0,78,2.0,76.0
10058,86.0,40,78,1.0,76.0
10059,62.0,0,160,5.0,76.0
10060,54.0,160,104,5.0,77.0
10061,60.0,0,104,5.0,77.0
10062,86.0,0,360,1.0,76.0
10063,38.0,0,360,4.0,76.0
10064,74.0,120,360,2.0,76.0
10065,62.0,160,104,5.0,77.0
10066,62.0,0,160,5.0,77.0
10067,69.0,0,234,2.0,77.0
10068,81.0,160,234,1.0,77.0
10069,54.0,0,104,5.0,77.0
10070,60.0,160,104,5.0,77.0
10071,50.0,0,360,4.0,77.0
10072,62.0,160,104,5.0,78.0
10073,74.0,40,78,2.0,78.0
10074,86.0,0,78,1.0,78.0
10075,62.0,0,160,5.0,78.0
10076,59.0,0,104,5.0,78.0
10077,55.0,160,104,5.0,78.0
10078,38.0,0,360,4.0,78.0
10079,74.0,120,360,2.0,78.0
10080,86.0,0,360,1.0,78.0
10081,62.0,160,104,5.0,78.0
10082,62.0,0,160,5.0,79.0
10083,71.0,160,234,2.0,79.0
10084,83.0,0,234,1.0,79.0
10085,59.0,160,104,5.0,79.0
10086,55.0,0,104,5.0,79.0
10087,50.0,0,360,4.0,79.0
10088,62.0,160,104,5.0,79.0
10089,76.0,40,78,2.0,79.0
10090,88.0,0,78,1.0,79.0
10091,86.0,0,128,1.0,79.0
10092,74.0,0,128,2.0,79.0
10093,64.0,0,160,5.0,79.0
10094,55.0,0,104,5.0,80.0
10095,57.0,0,104,5.0,80.0
10096,85.0,0,128,1.0,80.0
10097,73.0,160,128,2.0,80.0
10098,38.0,120,360,4.0,79.0
10099,64.0,0,104,5.0,80.0
10100,83.0,160,128,1.0,80.0
10101,71.0,0,128,2.0,80.0
10102,69.0,0,128,2.0,80.0
10103,81.0,160,128,1.0,80.0
10104,64.0,0,160,5.0,80.0
10105,55.0,0,104,5.0,80.0
10106,57.0,160,104,5.0,80.0
10107,83.0,0,128,1.0,80.0
10108,71.0,0,128,2.0,80.0
10109,50.0,0,360,4.0,80.0
10110,64.0,0,104,5.0,81.0
10111,73.0,0,128,2.0,81.0
10112,85.0,160,128,1.0,81.0
10113,62.0,160,160,5.0,81.0
10114,54.0,0,104,5.0,81.0
10115,57.0,160,104,5.0,81.0
10116,74.0,0,360,2.0,81.0
10117,38.0,0,360,4.0,81.0
10118,86.0,0,360,1.0,81.0
10119,62.0,160,104,5.0,81.0
10120,62.0,0,160,5.0,82.0
10121,81.0,0,234,1.0,82.0
10122,69.0,0,234,2.0,82.0
10123,57.0,0,104,5.0,82.0
10124,54.0,160,104,5.0,82.0
10125,50.0,160,360,4.0,82.0
10126,62.0,160,104,5.0,82.0
10127,86.0,40,78,1.0,82.0
10128,74.0,0,78,2.0,82.0
10129,62.0,0,160,5.0,82.0
10130,74.0,0,234,2.0,82.0
10131,86.0,120,234,1.0,82.0
10132,60.0,160,104,5.0,83.0
10133,54.0,0,104,5.0,83.0
10134,38.0,0,360,4.0,82.0
10135,62.0,160,104,5.0,83.0
10136,62.0,0,160,5.0,83.0
10137,81.0,0,234,1.0,83.0
10138,69.0,0,234,2.0,83.0
10139,54.0,0,104,5.0,84.0
10140,60.0,160,104,5.0,84.0
10141,50.0,160,360,4.0,83.0
10142,62.0,160,104,5.0,84.0
10143,74.0,0,78,2.0,84.0
10144,86.0,40,78,1.0,84.0
10145,62.0,0,160,5.0,84.0
10146,86.0,120,234,1.0,84.0
10147,74.0,0,234,2.0,84.0
10148,59.0,0,104,5.0,84.0
10149,55.0,160,104,5.0,84.0
10150,38.0,0,360,4.0,84.0
10151,62.0,160,104,5.0,85.0
10152,62.0,160,160,5.0,85.0
10153,83.0,0,234,1.0,85.0
10154,71.0,0,234,2.0,85.0
10155,59.0,160,104,5.0,85.0
10156,55.0,0,104,5.0,85.0
10157,50.0,0,360,4.0,85.0
10158,62.0,160,104,5.0,85.0
10159,88.0,40,78,1.0,85.0
10160,76.0,0,78,2.0,85.0
10161,86.0,120,128,1.0,86.0
10162,74.0,0,128,2.0,86.0
10163,64.0,0,160,5.0,86.0
10164,57.0,0,104,5.0,86.0
10165,55.0,0,104,5.0,86.0
10166,73.0,160,128,2.0,86.0
10167,85.0,0,128,1.0,86.0
10168,38.0,0,360,4.0,86.0
10169,64.0,160,104,5.0,86.0
10170,71.0,0,128,2.0,86.0
10171,83.0,0,128,1.0,86.0
10172,69.0,160,128,2.0,86.0
10173,81.0,0,128,1.0,86.0
10174,64.0,0,160,5.0,86.0
10175,57.0,0,104,5.0,87.0
10176,55.0,0,104,5.0,87.0
10177,83.0,0,128,1.0,87.0
10178,71.0,160,128,2.0,87.0
10179,50.0,0,360,4.0,86.0
10180,64.0,0,104,5.0,87.0
10181,85.0,160,128,1.0,87.0
10182,73.0,0,128,2.0,87.0
10183,62.0,0,360,5.0,87.0
10184,57.0,0,360,5.0,87.0
10185,74.0,160,360,2.0,87.0
10186,54.0,0,360,5.0,87.0
10187,86.0,0,360,1.0,87.0
10188,38.0,0,360,4.0,87.0
10189,33.0,840,78,5.0,89.0
10190,45.0,0,78,5.0,89.0
10191,33.0,0,360,4.0,92.0
10192,45.0,120,360,5.0,92.0
10193,78.0,0,360,2.0,60.0
10194,66.0,0,360,2.0,60.0
10195,74.0,960,360,2.0,60.0
10196,69.0,0,360,2.0,60.0
10197,81.0,0,360,1.0,60.0
10198,62.0,0,360,2.0,60.0
10199,33.0,0,78,4.0,79.0
10200,45.0,840,78,5.0,79.0
10201,45.0,0,360,5.0,82.0
10202,33.0,120,360,4.0,82.0
10203,81.0,960,360,1.0,47.0
10204,74.0,0,360,2.0,47.0
10205,66.0,0,360,2.0,47.0
10206,78.0,0,360,2.0,47.0
10207,62.0,0,360,2.0,47.0
10208,69.0,0,360,2.0,47.0
10209,45.0,840,78,5.0,82.0
10210,33.0,0,78,4.0,82.0
10211,33.0,120,360,4.0,87.0
10212,45.0,0,360,5.0,87.0
10213,50.0,480,156,5.0,87.0
10214,38.0,0,156,4.0,87.0
10215,45.0,360,78,5.0,88.0
10216,33.0,0,78,4.0,88.0
10217,78.0,0,234,2.0,94.0
10218,74.0,0,234,2.0,94.0
10219,69.0,0,234,2.0,94.0
10220,62.0,0,234,2.0,94.0
10221,81.0,120,234,1.0,94.0
10222,66.0,0,234,2.0,94.0
10223,45.0,0,360,5.0,94.0
10224,33.0,0,360,4.0,94.0
10225,38.0,0,156,4.0,96.0
10226,50.0,0,156,5.0,96.0
10227,69.0,0,234,2.0,96.0
10228,66.0,480,234,2.0,96.0
10229,74.0,0,234,2.0,96.0
10230,62.0,0,234,2.0,96.0
10231,81.0,0,234,1.0,96.0
10232,78.0,0,234,2.0,96.0
10233,45.0,0,78,5.0,99.0
10234,57.0,0,78,2.0,99.0
10235,73.0,0,78,2.0,99.0
10236,76.0,0,78,2.0,99.0
10237,64.0,360,78,2.0,99.0
10238,81.0,0,78,1.0,99.0
10239,33.0,0,78,4.0,99.0
10240,67.0,0,78,2.0,99.0
10241,69.0,0,78,2.0,99.0
10242,45.0,0,960,5.0,104.0
10243,33.0,0,960,4.0,104.0
10244,73.0,0,960,2.0,104.0
10245,57.0,0,0,2.0,88.0
10246,67.0,0,960,2.0,104.0
10247,76.0,0,960,2.0,104.0
10248,81.0,120,960,1.0,104.0
10249,61.0,0,960,2.0,104.0
10250,69.0,0,0,2.0,88.0
10251,64.0,0,960,2.0,104.0
10252,38.0,0,360,4.0,88.0
10253,74.0,0,360,1.0,88.0
10254,50.0,960,360,5.0,88.0
10255,62.0,0,360,2.0,88.0
10256,66.0,0,360,2.0,88.0
