tick,type,time,meta,track,numerator,denominator,clocks_per_click,notated_32nd_notes_per_beat,key,tempo,program,channel,control,value,note,velocity
0,track_name,0,1,0,,,,,,,,,,,,
0,control_change,0,0,7,,,,,,,,7,10,25,,
0,control_change,0,0,7,,,,,,,,7,10,64,,
0,control_change,0,0,7,,,,,,,,7,7,90,,
0,program_change,0,0,7,,,,,,,47,7,,,,
0,track_name,0,1,7,,,,,,,,,,,,
0,control_change,0,0,6,,,,,,,,6,10,110,,
0,control_change,0,0,6,,,,,,,,6,10,99,,
0,control_change,0,0,6,,,,,,,,6,7,90,,
0,program_change,0,0,6,,,,,,,61,6,,,,
0,track_name,0,1,6,,,,,,,,,,,,
0,control_change,0,0,5,,,,,,,,5,10,25,,
0,control_change,0,0,5,,,,,,,,5,10,33,,
0,control_change,0,0,5,,,,,,,,5,7,90,,
0,track_name,0,1,8,,,,,,,,,,,,
0,program_change,0,0,5,,,,,,,60,5,,,,
0,control_change,0,0,4,,,,,,,,3,10,74,,
0,control_change,0,0,4,,,,,,,,3,10,94,,
0,control_change,0,0,4,,,,,,,,3,7,90,,
0,program_change,0,0,4,,,,,,,70,3,,,,
0,track_name,0,1,4,,,,,,,,,,,,
0,control_change,0,0,3,,,,,,,,2,10,54,,
0,control_change,0,0,3,,,,,,,,2,10,54,,
0,control_change,0,0,3,,,,,,,,2,7,90,,
0,program_change,0,0,3,,,,,,,71,2,,,,
0,track_name,0,1,3,,,,,,,,,,,,
0,control_change,0,0,2,,,,,,,,1,10,74,,
0,control_change,0,0,2,,,,,,,,1,10,77,,
0,control_change,0,0,2,,,,,,,,1,7,90,,
0,track_name,0,1,5,,,,,,,,,,,,
0,program_change,0,0,8,,,,,,,48,4,,,,
0,control_change,0,0,8,,,,,,,,4,7,100,,
0,control_change,0,0,8,,,,,,,,4,10,38,,
0,track_name,0,1,16,,,,,,,,,,,,
0,end_of_track,0,1,15,,,,,,,,,,,,
0,track_name,0,1,15,,,,,,,,,,,,
0,end_of_track,0,1,14,,,,,,,,,,,,
0,track_name,0,1,14,,,,,,,,,,,,
0,end_of_track,0,1,13,,,,,,,,,,,,
0,control_change,0,0,13,,,,,,,,9,10,64,,
0,control_change,0,0,12,,,,,,,,11,10,90,,
0,control_change,0,0,12,,,,,,,,11,10,63,,
0,control_change,0,0,12,,,,,,,,11,7,127,,
0,program_change,0,0,12,,,,,,,48,11,,,,
0,track_name,0,1,12,,,,,,,,,,,,
0,control_change,0,0,11,,,,,,,,10,10,80,,
0,control_change,0,0,11,,,,,,,,10,10,95,,
0,control_change,0,0,11,,,,,,,,10,7,127,,
0,program_change,0,0,11,,,,,,,48,10,,,,
0,track_name,0,1,11,,,,,,,,,,,,
0,control_change,0,0,10,,,,,,,,8,10,66,,
0,control_change,0,0,10,,,,,,,,8,10,83,,
0,control_change,0,0,10,,,,,,,,8,7,122,,
0,program_change,0,0,10,,,,,,,48,8,,,,
0,track_name,0,1,10,,,,,,,,,,,,
0,control_change,0,0,9,,,,,,,,8,10,25,,
0,control_change,0,0,9,,,,,,,,8,10,46,,
0,control_change,0,0,9,,,,,,,,8,7,105,,
0,program_change,0,0,9,,,,,,,48,8,,,,
0,track_name,0,1,9,,,,,,,,,,,,
0,end_of_track,0,1,16,,,,,,,,,,,,
0,control_change,0,0,8,,,,,,,,4,10,35,,
0,program_change,0,0,2,,,,,,,68,1,,,,
0,track_name,0,1,2,,,,,,,,,,,,
0,end_of_track,0,1,17,,,,,,,,,,,,
0,set_tempo,0,1,0,,,,,,750000,,,,,,
0,program_change,0,0,1,,,,,,,73,0,,,,
0,track_name,0,1,1,,,,,,,,,,,,
0,key_signature,0,1,0,,,,,C,,,,,,,
0,control_change,0,0,1,,,,,,,,0,10,40,,
0,control_change,0,0,1,,,,,,,,0,7,90,,
0,control_change,0,0,1,,,,,,,,0,10,54,,
0,time_signature,0,1,0,4,2,48,8,,,,,,,,
960,note_on,0,0,10,,,,,,,,8,,,55,127
960,note_on,960,0,11,,,,,,,,10,,,46,127
960,note_on,960,0,1,,,,,,,,0,,,76,64
960,note_on,0,0,1,,,,,,,,0,,,84,64
960,note_on,0,0,6,,,,,,,,6,,,60,64
960,note_on,960,0,6,,,,,,,,6,,,72,64
960,note_on,0,0,3,,,,,,,,2,,,64,80
960,note_on,960,0,12,,,,,,,,11,,,34,96
960,note_on,960,0,10,,,,,,,,8,,,58,127
960,note_on,960,0,4,,,,,,,,3,,,46,96
960,note_on,960,0,3,,,,,,,,2,,,72,80
960,note_on,0,0,8,,,,,,,,4,,,64,127
960,note_on,960,0,2,,,,,,,,1,,,76,64
960,note_on,960,0,9,,,,,,,,8,,,64,127
960,note_on,0,0,2,,,,,,,,1,,,72,64
960,note_on,960,0,7,,,,,,,,7,,,48,64
960,note_on,0,0,5,,,,,,,,5,,,48,64
960,note_on,960,0,5,,,,,,,,5,,,60,64
960,note_on,960,0,8,,,,,,,,4,,,60,127
960,note_on,0,0,9,,,,,,,,8,,,55,127
1094,note_on,134,0,1,,,,,,,,0,,,84,0
1096,note_on,2,0,1,,,,,,,,0,,,76,0
1104,note_on,144,0,10,,,,,,,,8,,,55,0
1114,note_on,154,0,8,,,,,,,,4,,,60,0
1124,note_on,20,0,10,,,,,,,,8,,,58,0
1140,note_on,26,0,8,,,,,,,,4,,,64,0
1160,note_on,200,0,11,,,,,,,,10,,,46,0
1160,note_on,200,0,12,,,,,,,,11,,,34,0
1160,note_on,200,0,4,,,,,,,,3,,,46,0
1160,note_on,0,0,9,,,,,,,,8,,,64,0
1160,note_on,200,0,9,,,,,,,,8,,,55,0
1162,note_on,202,0,2,,,,,,,,1,,,72,0
1172,note_on,10,0,2,,,,,,,,1,,,76,0
1200,note_on,240,0,6,,,,,,,,6,,,60,0
1200,note_on,0,0,3,,,,,,,,2,,,72,0
1200,note_on,240,0,5,,,,,,,,5,,,48,0
1200,note_on,240,0,3,,,,,,,,2,,,64,0
1200,note_on,240,0,7,,,,,,,,7,,,48,0
1200,note_on,0,0,6,,,,,,,,6,,,72,0
1200,note_on,0,0,5,,,,,,,,5,,,60,0
3840,note_on,2744,0,1,,,,,,,,0,,,77,64
3840,note_on,2680,0,4,,,,,,,,3,,,45,96
3840,note_on,2700,0,8,,,,,,,,4,,,65,127
3840,note_on,2680,0,9,,,,,,,,8,,,65,127
3840,note_on,2640,0,3,,,,,,,,2,,,72,80
3840,note_on,0,0,3,,,,,,,,2,,,65,80
3840,note_on,0,0,9,,,,,,,,8,,,57,127
3840,time_signature,3840,1,0,3,2,48,8,,,,,,,,
3840,note_on,0,0,8,,,,,,,,4,,,60,127
3840,note_on,0,0,6,,,,,,,,6,,,72,64
3840,note_on,2640,0,6,,,,,,,,6,,,60,64
3840,note_on,0,0,2,,,,,,,,1,,,77,64
3840,note_on,2640,0,5,,,,,,,,5,,,48,64
3840,note_on,2716,0,10,,,,,,,,8,,,57,127
3840,note_on,2680,0,11,,,,,,,,10,,,45,127
3840,note_on,2668,0,2,,,,,,,,1,,,72,64
3840,note_on,0,0,1,,,,,,,,0,,,84,64
3840,note_on,2640,0,7,,,,,,,,7,,,48,64
3840,note_on,2680,0,12,,,,,,,,11,,,33,96
3840,note_on,0,0,5,,,,,,,,5,,,60,64
4000,note_on,160,0,10,,,,,,,,8,,,57,0
4002,note_on,162,0,1,,,,,,,,0,,,77,0
4012,note_on,172,0,2,,,,,,,,1,,,72,0
4020,note_on,8,0,2,,,,,,,,1,,,77,0
4022,note_on,20,0,1,,,,,,,,0,,,84,0
4024,note_on,184,0,9,,,,,,,,8,,,65,0
4030,note_on,6,0,9,,,,,,,,8,,,57,0
4036,note_on,196,0,8,,,,,,,,4,,,60,0
4050,note_on,210,0,11,,,,,,,,10,,,45,0
4050,note_on,210,0,12,,,,,,,,11,,,33,0
4050,note_on,210,0,4,,,,,,,,3,,,45,0
4056,note_on,20,0,8,,,,,,,,4,,,65,0
4080,note_on,0,0,6,,,,,,,,6,,,60,0
4080,note_on,0,0,3,,,,,,,,2,,,72,0
4080,note_on,240,0,6,,,,,,,,6,,,72,0
4080,note_on,240,0,3,,,,,,,,2,,,65,0
4200,note_on,360,0,7,,,,,,,,7,,,48,0
4200,note_on,360,0,5,,,,,,,,5,,,60,0
4200,note_on,0,0,5,,,,,,,,5,,,48,0
6720,note_on,2700,0,2,,,,,,,,1,,,72,64
6720,note_on,0,0,2,,,,,,,,1,,,78,64
6720,note_on,2670,0,4,,,,,,,,3,,,44,96
6720,note_on,2690,0,9,,,,,,,,8,,,66,127
6720,note_on,0,0,9,,,,,,,,8,,,56,127
6720,note_on,2720,0,10,,,,,,,,8,,,56,127
6720,note_on,2664,0,8,,,,,,,,4,,,60,127
6720,note_on,0,0,8,,,,,,,,4,,,66,127
6720,note_on,0,0,3,,,,,,,,2,,,66,80
6720,note_on,2640,0,3,,,,,,,,2,,,72,80
6720,note_on,2520,0,7,,,,,,,,7,,,48,64
6720,note_on,2640,0,6,,,,,,,,6,,,72,64
6720,note_on,2670,0,11,,,,,,,,10,,,44,127
6720,note_on,2520,0,5,,,,,,,,5,,,48,64
6720,note_on,0,0,5,,,,,,,,5,,,60,64
6720,note_on,2698,0,1,,,,,,,,0,,,84,64
6720,note_on,0,0,6,,,,,,,,6,,,60,64
6720,note_on,2670,0,12,,,,,,,,11,,,32,96
6854,note_on,134,0,5,,,,,,,,5,,,60,0
6854,note_on,0,0,5,,,,,,,,5,,,48,0
6854,note_on,134,0,7,,,,,,,,7,,,48,0
6854,note_on,0,0,6,,,,,,,,6,,,72,0
6854,note_on,134,0,6,,,,,,,,6,,,60,0
6862,note_on,142,0,2,,,,,,,,1,,,72,0
6864,note_on,144,0,10,,,,,,,,8,,,56,0
6866,note_on,4,0,2,,,,,,,,1,,,78,0
6872,note_on,152,0,1,,,,,,,,0,,,84,0
6880,note_on,160,0,8,,,,,,,,4,,,60,0
6886,note_on,6,0,8,,,,,,,,4,,,66,0
6892,note_on,172,0,9,,,,,,,,8,,,56,0
6900,note_on,8,0,9,,,,,,,,8,,,66,0
6960,note_on,240,0,3,,,,,,,,2,,,66,0
6960,note_on,0,0,3,,,,,,,,2,,,72,0
6990,note_on,270,0,11,,,,,,,,10,,,44,0
6990,note_on,270,0,4,,,,,,,,3,,,44,0
6990,note_on,270,0,12,,,,,,,,11,,,32,0
7680,note_on,0,0,1,,,,,,,,0,,,90,64
7680,note_on,690,0,12,,,,,,,,11,,,44,96
7680,note_on,826,0,7,,,,,,,,7,,,48,64
7680,note_on,0,0,9,,,,,,,,8,,,72,127
7680,note_on,826,0,6,,,,,,,,6,,,72,64
7680,note_on,0,0,6,,,,,,,,6,,,60,64
7680,note_on,720,0,3,,,,,,,,2,,,72,80
7680,note_on,0,0,3,,,,,,,,2,,,66,80
7680,note_on,780,0,9,,,,,,,,8,,,78,127
7680,note_on,814,0,2,,,,,,,,1,,,78,64
7680,note_on,826,0,5,,,,,,,,5,,,60,64
7680,note_on,0,0,5,,,,,,,,5,,,48,64
7680,note_on,0,0,8,,,,,,,,4,,,60,127
7680,note_on,690,0,11,,,,,,,,10,,,56,127
7680,note_on,0,0,2,,,,,,,,1,,,72,64
7680,note_on,816,0,10,,,,,,,,8,,,56,127
7680,note_on,690,0,4,,,,,,,,3,,,56,96
7680,note_on,794,0,8,,,,,,,,4,,,72,127
7680,note_on,808,0,1,,,,,,,,0,,,84,64
7784,note_on,104,0,6,,,,,,,,6,,,60,0
7784,note_on,104,0,5,,,,,,,,5,,,48,0
7784,note_on,0,0,5,,,,,,,,5,,,60,0
7784,note_on,0,0,6,,,,,,,,6,,,72,0
7784,note_on,104,0,7,,,,,,,,7,,,48,0
7806,note_on,126,0,1,,,,,,,,0,,,84,0
7814,note_on,134,0,2,,,,,,,,1,,,72,0
7822,note_on,142,0,10,,,,,,,,8,,,56,0
7826,note_on,20,0,1,,,,,,,,0,,,90,0
7830,note_on,16,0,2,,,,,,,,1,,,78,0
7834,note_on,154,0,11,,,,,,,,10,,,56,0
7834,note_on,154,0,4,,,,,,,,3,,,56,0
7834,note_on,154,0,12,,,,,,,,11,,,44,0
7850,note_on,170,0,9,,,,,,,,8,,,72,0
7856,note_on,176,0,8,,,,,,,,4,,,60,0
7864,note_on,14,0,9,,,,,,,,8,,,78,0
7894,note_on,38,0,8,,,,,,,,4,,,72,0
7920,note_on,0,0,3,,,,,,,,2,,,72,0
7920,note_on,240,0,3,,,,,,,,2,,,66,0
8640,note_on,856,0,5,,,,,,,,5,,,60,64
8640,note_on,0,0,5,,,,,,,,5,,,48,64
8640,note_on,0,0,2,,,,,,,,1,,,72,64
8640,note_on,0,0,9,,,,,,,,8,,,72,127
8640,note_on,818,0,10,,,,,,,,8,,,56,127
8640,note_on,806,0,4,,,,,,,,3,,,56,96
8640,note_on,806,0,11,,,,,,,,10,,,56,127
8640,note_on,0,0,8,,,,,,,,4,,,60,127
8640,note_on,0,0,3,,,,,,,,2,,,72,80
8640,note_on,720,0,3,,,,,,,,2,,,66,80
8640,note_on,746,0,8,,,,,,,,4,,,72,127
8640,note_on,776,0,9,,,,,,,,8,,,78,127
8640,note_on,810,0,2,,,,,,,,1,,,78,64
8640,note_on,0,0,6,,,,,,,,6,,,72,64
8640,note_on,856,0,6,,,,,,,,6,,,60,64
8640,note_on,0,0,1,,,,,,,,0,,,84,64
8640,note_on,814,0,1,,,,,,,,0,,,90,64
8640,note_on,856,0,7,,,,,,,,7,,,48,64
8640,note_on,806,0,12,,,,,,,,11,,,44,96
8752,note_on,112,0,6,,,,,,,,6,,,72,0
8752,note_on,112,0,5,,,,,,,,5,,,48,0
8752,note_on,0,0,5,,,,,,,,5,,,60,0
8752,note_on,0,0,6,,,,,,,,6,,,60,0
8752,note_on,112,0,7,,,,,,,,7,,,48,0
8772,note_on,132,0,10,,,,,,,,8,,,56,0
8780,note_on,140,0,4,,,,,,,,3,,,56,0
8780,note_on,140,0,12,,,,,,,,11,,,44,0
8780,note_on,140,0,11,,,,,,,,10,,,56,0
8784,note_on,144,0,2,,,,,,,,1,,,72,0
8786,note_on,2,0,2,,,,,,,,1,,,78,0
8790,note_on,150,0,8,,,,,,,,4,,,60,0
8790,note_on,150,0,1,,,,,,,,0,,,84,0
8794,note_on,4,0,1,,,,,,,,0,,,90,0
8802,note_on,162,0,9,,,,,,,,8,,,72,0
8804,note_on,2,0,9,,,,,,,,8,,,78,0
8824,note_on,34,0,8,,,,,,,,4,,,72,0
8880,note_on,240,0,3,,,,,,,,2,,,72,0
8880,note_on,0,0,3,,,,,,,,2,,,66,0
9600,note_on,776,0,8,,,,,,,,4,,,59,127
9600,note_on,0,0,8,,,,,,,,4,,,71,127
9600,note_on,848,0,6,,,,,,,,6,,,67,64
9600,note_on,848,0,5,,,,,,,,5,,,43,64
9600,note_on,0,0,5,,,,,,,,5,,,55,64
9600,note_on,720,0,3,,,,,,,,2,,,67,96
9600,note_on,0,0,3,,,,,,,,2,,,71,96
9600,note_on,0,0,9,,,,,,,,8,,,79,127
9600,note_on,796,0,9,,,,,,,,8,,,71,127
9600,note_on,828,0,10,,,,,,,,8,,,62,127
9600,note_on,0,0,1,,,,,,,,0,,,91,64
9600,note_on,806,0,1,,,,,,,,0,,,83,64
9600,note_on,820,0,12,,,,,,,,11,,,43,96
9600,time_signature,5760,1,0,5,2,48,8,,,,,,,,
9600,note_on,848,0,7,,,,,,,,7,,,43,64
9600,note_on,814,0,2,,,,,,,,1,,,71,64
9600,note_on,0,0,10,,,,,,,,8,,,55,127
9600,note_on,0,0,6,,,,,,,,6,,,55,64
9600,note_on,820,0,11,,,,,,,,10,,,55,127
9600,note_on,820,0,4,,,,,,,,3,,,55,96
9600,note_on,0,0,2,,,,,,,,1,,,79,64
9690,note_on,0,0,6,,,,,,,,6,,,67,0
9690,note_on,90,0,6,,,,,,,,6,,,55,0
9690,note_on,90,0,5,,,,,,,,5,,,55,0
9690,note_on,0,0,5,,,,,,,,5,,,43,0
9690,note_on,90,0,7,,,,,,,,7,,,43,0
9724,note_on,124,0,8,,,,,,,,4,,,59,0
9762,note_on,38,0,8,,,,,,,,4,,,71,0
9772,note_on,172,0,2,,,,,,,,1,,,79,0
9776,note_on,4,0,2,,,,,,,,1,,,71,0
9778,note_on,178,0,4,,,,,,,,3,,,55,0
9778,note_on,178,0,11,,,,,,,,10,,,55,0
9778,note_on,178,0,12,,,,,,,,11,,,43,0
9784,note_on,184,0,1,,,,,,,,0,,,83,0
9786,note_on,186,0,10,,,,,,,,8,,,62,0
9786,note_on,2,0,1,,,,,,,,0,,,91,0
9794,note_on,8,0,10,,,,,,,,8,,,55,0
9802,note_on,202,0,9,,,,,,,,8,,,79,0
9804,note_on,2,0,9,,,,,,,,8,,,71,0
9840,note_on,0,0,3,,,,,,,,2,,,67,0
9840,note_on,240,0,3,,,,,,,,2,,,71,0
10440,note_on,600,0,3,,,,,,,,2,,,55,96
10440,note_on,636,0,9,,,,,,,,8,,,55,127
10440,note_on,750,0,7,,,,,,,,7,,,43,64
10440,note_on,0,0,6,,,,,,,,6,,,55,64
10440,note_on,0,0,2,,,,,,,,1,,,79,64
10440,note_on,662,0,4,,,,,,,,3,,,43,96
10440,note_on,662,0,11,,,,,,,,10,,,43,127
10440,note_on,662,0,12,,,,,,,,11,,,31,96
10440,note_on,0,0,5,,,,,,,,5,,,55,64
10440,note_on,750,0,5,,,,,,,,5,,,43,64
10440,note_on,646,0,10,,,,,,,,8,,,55,127
10440,note_on,678,0,8,,,,,,,,4,,,55,127
10440,note_on,664,0,2,,,,,,,,1,,,67,64
10440,note_on,750,0,6,,,,,,,,6,,,67,64
10440,note_on,654,0,1,,,,,,,,0,,,79,64
10512,note_on,72,0,1,,,,,,,,0,,,79,0
10522,note_on,82,0,2,,,,,,,,1,,,67,0
10528,note_on,6,0,2,,,,,,,,1,,,79,0
10530,note_on,90,0,9,,,,,,,,8,,,55,0
10530,note_on,90,0,3,,,,,,,,2,,,55,0
10536,note_on,96,0,7,,,,,,,,7,,,43,0
10536,note_on,0,0,6,,,,,,,,6,,,67,0
10536,note_on,96,0,4,,,,,,,,3,,,43,0
10536,note_on,0,0,5,,,,,,,,5,,,43,0
10536,note_on,96,0,5,,,,,,,,5,,,55,0
10536,note_on,96,0,12,,,,,,,,11,,,31,0
10536,note_on,96,0,6,,,,,,,,6,,,55,0
10536,note_on,96,0,11,,,,,,,,10,,,43,0
10554,note_on,114,0,10,,,,,,,,8,,,55,0
10554,note_on,114,0,8,,,,,,,,4,,,55,0
10560,note_on,30,0,9,,,,,,,,8,,,55,127
10560,note_on,24,0,7,,,,,,,,7,,,43,80
10560,note_on,24,0,6,,,,,,,,6,,,55,64
10560,note_on,24,0,4,,,,,,,,3,,,43,96
10560,note_on,30,0,3,,,,,,,,2,,,55,96
10560,note_on,24,0,11,,,,,,,,10,,,43,127
10560,note_on,0,0,6,,,,,,,,6,,,67,64
10560,note_on,6,0,8,,,,,,,,4,,,55,127
10560,note_on,48,0,1,,,,,,,,0,,,79,64
10560,note_on,0,0,2,,,,,,,,1,,,67,64
10560,note_on,32,0,2,,,,,,,,1,,,79,64
10560,note_on,6,0,10,,,,,,,,8,,,55,127
10560,note_on,24,0,12,,,,,,,,11,,,31,96
10560,note_on,0,0,5,,,,,,,,5,,,43,64
10560,note_on,24,0,5,,,,,,,,5,,,55,64
10608,note_on,48,0,7,,,,,,,,7,,,43,0
10620,note_on,12,0,7,,,,,,,,7,,,43,80
10668,note_on,48,0,7,,,,,,,,7,,,43,0
10680,note_on,12,0,7,,,,,,,,7,,,43,80
10728,note_on,48,0,7,,,,,,,,7,,,43,0
10740,note_on,12,0,7,,,,,,,,7,,,43,80
10788,note_on,48,0,7,,,,,,,,7,,,43,0
10800,note_on,12,0,7,,,,,,,,7,,,43,80
10848,note_on,48,0,7,,,,,,,,7,,,43,0
10860,note_on,12,0,7,,,,,,,,7,,,43,80
10908,note_on,48,0,7,,,,,,,,7,,,43,0
10920,note_on,12,0,7,,,,,,,,7,,,43,80
10968,note_on,48,0,7,,,,,,,,7,,,43,0
10980,note_on,12,0,7,,,,,,,,7,,,43,80
11028,note_on,48,0,7,,,,,,,,7,,,43,0
11040,note_on,12,0,7,,,,,,,,7,,,43,80
11088,note_on,48,0,7,,,,,,,,7,,,43,0
11100,note_on,12,0,7,,,,,,,,7,,,43,80
11148,note_on,48,0,7,,,,,,,,7,,,43,0
11160,note_on,12,0,7,,,,,,,,7,,,43,80
11208,note_on,48,0,7,,,,,,,,7,,,43,0
11220,note_on,12,0,7,,,,,,,,7,,,43,80
11268,note_on,48,0,7,,,,,,,,7,,,43,0
11280,note_on,12,0,7,,,,,,,,7,,,43,80
11328,note_on,48,0,7,,,,,,,,7,,,43,0
11340,note_on,12,0,7,,,,,,,,7,,,43,80
11388,note_on,48,0,7,,,,,,,,7,,,43,0
11400,note_on,12,0,7,,,,,,,,7,,,43,80
11448,note_on,48,0,7,,,,,,,,7,,,43,0
11460,note_on,12,0,7,,,,,,,,7,,,43,80
11508,note_on,48,0,7,,,,,,,,7,,,43,0
11520,note_on,12,0,7,,,,,,,,7,,,43,80
11568,note_on,48,0,7,,,,,,,,7,,,43,0
11580,note_on,12,0,7,,,,,,,,7,,,43,80
11628,note_on,48,0,7,,,,,,,,7,,,43,0
11640,note_on,12,0,7,,,,,,,,7,,,43,80
11688,note_on,48,0,7,,,,,,,,7,,,43,0
11700,note_on,12,0,7,,,,,,,,7,,,43,80
11748,note_on,48,0,7,,,,,,,,7,,,43,0
11760,note_on,12,0,7,,,,,,,,7,,,43,80
11808,note_on,48,0,7,,,,,,,,7,,,43,0
11820,note_on,12,0,7,,,,,,,,7,,,43,80
11868,note_on,48,0,7,,,,,,,,7,,,43,0
11880,note_on,12,0,7,,,,,,,,7,,,43,80
11880,note_on,0,0,7,,,,,,,,7,,,43,80
11880,note_on,0,0,7,,,,,,,,7,,,43,80
11928,note_on,48,0,7,,,,,,,,7,,,43,0
11928,note_on,0,0,7,,,,,,,,7,,,43,0
11928,note_on,0,0,7,,,,,,,,7,,,43,0
11940,note_on,12,0,7,,,,,,,,7,,,43,80
11988,note_on,48,0,7,,,,,,,,7,,,43,0
12000,note_on,12,0,7,,,,,,,,7,,,43,80
12048,note_on,48,0,7,,,,,,,,7,,,43,0
12060,note_on,12,0,7,,,,,,,,7,,,43,80
12108,note_on,48,0,7,,,,,,,,7,,,43,0
12120,note_on,12,0,7,,,,,,,,7,,,43,80
12168,note_on,48,0,7,,,,,,,,7,,,43,0
12180,note_on,12,0,7,,,,,,,,7,,,43,80
12228,note_on,48,0,7,,,,,,,,7,,,43,0
12240,note_on,12,0,7,,,,,,,,7,,,43,80
12288,note_on,48,0,7,,,,,,,,7,,,43,0
12300,note_on,12,0,7,,,,,,,,7,,,43,80
12348,note_on,48,0,7,,,,,,,,7,,,43,0
12360,note_on,12,0,7,,,,,,,,7,,,43,80
12408,note_on,48,0,7,,,,,,,,7,,,43,0
12420,note_on,12,0,7,,,,,,,,7,,,43,80
12468,note_on,48,0,7,,,,,,,,7,,,43,0
12480,note_on,12,0,7,,,,,,,,7,,,43,80
12528,note_on,48,0,7,,,,,,,,7,,,43,0
12540,note_on,12,0,7,,,,,,,,7,,,43,80
12588,note_on,48,0,7,,,,,,,,7,,,43,0
12706,note_on,0,0,5,,,,,,,,5,,,55,0
12706,note_on,2146,0,5,,,,,,,,5,,,43,0
12706,note_on,2146,0,6,,,,,,,,6,,,67,0
12706,note_on,0,0,6,,,,,,,,6,,,55,0
12840,note_on,0,0,2,,,,,,,,1,,,79,0
12840,note_on,2280,0,8,,,,,,,,4,,,55,0
12840,note_on,2280,0,10,,,,,,,,8,,,55,0
12840,note_on,2280,0,4,,,,,,,,3,,,43,0
12840,note_on,2280,0,2,,,,,,,,1,,,67,0
12840,note_on,2280,0,12,,,,,,,,11,,,31,0
12840,note_on,2280,0,9,,,,,,,,8,,,55,0
12840,note_on,2280,0,3,,,,,,,,2,,,55,0
12840,note_on,2280,0,1,,,,,,,,0,,,79,0
12840,note_on,2280,0,11,,,,,,,,10,,,43,0
14400,note_on,0,0,10,,,,,,,,8,,,52,96
14400,time_signature,4800,1,0,3,2,48,8,,,,,,,,
14400,note_on,1812,0,7,,,,,,,,7,,,48,64
14400,note_on,1560,0,12,,,,,,,,11,,,36,64
14400,note_on,1560,0,2,,,,,,,,1,,,67,64
14400,note_on,1560,0,11,,,,,,,,10,,,48,96
14400,note_on,1694,0,5,,,,,,,,5,,,55,64
14400,note_on,1560,0,9,,,,,,,,8,,,55,96
14400,note_on,1560,0,10,,,,,,,,8,,,48,96
14400,note_on,0,0,8,,,,,,,,4,,,67,80
14400,note_on,0,0,8,,,,,,,,4,,,55,80
14400,control_change,1560,0,8,,,,,,,,4,7,60,,
14416,control_change,16,0,10,,,,,,,,8,7,60,,
14416,control_change,16,0,12,,,,,,,,11,7,60,,
14416,control_change,16,0,11,,,,,,,,10,7,60,,
14436,control_change,36,0,9,,,,,,,,8,7,60,,
14530,note_on,130,0,7,,,,,,,,7,,,48,0
15260,note_on,844,0,10,,,,,,,,8,,,52,0
15288,note_on,28,0,10,,,,,,,,8,,,48,0
15360,note_on,924,0,9,,,,,,,,8,,,60,96
15360,note_on,72,0,10,,,,,,,,8,,,52,96
15360,note_on,960,0,5,,,,,,,,5,,,55,0
15360,note_on,0,0,5,,,,,,,,5,,,60,64
15360,note_on,0,0,2,,,,,,,,1,,,72,64
15360,note_on,0,0,2,,,,,,,,1,,,67,64
15360,note_on,960,0,2,,,,,,,,1,,,67,0
15360,note_on,0,0,5,,,,,,,,5,,,52,64
15360,note_on,0,0,10,,,,,,,,8,,,55,96
15457,note_on,97,0,9,,,,,,,,8,,,55,0
16058,note_on,1658,0,8,,,,,,,,4,,,67,0
16058,note_on,0,0,8,,,,,,,,4,,,55,0
16320,note_on,1790,0,7,,,,,,,,7,,,43,64
16320,note_on,1904,0,11,,,,,,,,10,,,43,96
16320,note_on,0,0,5,,,,,,,,5,,,62,64
16320,note_on,863,0,9,,,,,,,,8,,,59,96
16320,note_on,0,0,9,,,,,,,,8,,,62,96
16320,note_on,1904,0,12,,,,,,,,11,,,31,64
16320,note_on,0,0,5,,,,,,,,5,,,55,64
16320,note_on,262,0,8,,,,,,,,4,,,67,80
16320,note_on,960,0,5,,,,,,,,5,,,52,0
16320,note_on,0,0,8,,,,,,,,4,,,55,80
16320,note_on,0,0,10,,,,,,,,8,,,59,96
16320,note_on,960,0,10,,,,,,,,8,,,50,96
16320,note_on,0,0,2,,,,,,,,1,,,71,64
16320,note_on,0,0,2,,,,,,,,1,,,74,64
16320,note_on,0,0,2,,,,,,,,1,,,67,0
16320,note_on,960,0,2,,,,,,,,1,,,72,0
16320,note_on,0,0,5,,,,,,,,5,,,60,0
16332,note_on,12,0,12,,,,,,,,11,,,36,0
16332,note_on,12,0,11,,,,,,,,10,,,48,0
16368,note_on,48,0,10,,,,,,,,8,,,52,0
16390,note_on,22,0,10,,,,,,,,8,,,55,0
16447,note_on,127,0,9,,,,,,,,8,,,60,0
16486,note_on,166,0,7,,,,,,,,7,,,43,0
17149,note_on,0,0,8,,,,,,,,4,,,67,0
17149,note_on,829,0,8,,,,,,,,4,,,55,0
17280,note_on,833,0,9,,,,,,,,8,,,60,96
17280,note_on,0,0,10,,,,,,,,8,,,52,96
17280,note_on,890,0,10,,,,,,,,8,,,59,0
17280,note_on,0,0,9,,,,,,,,8,,,64,96
17280,note_on,0,0,10,,,,,,,,8,,,60,96
17280,note_on,0,0,5,,,,,,,,5,,,60,64
17280,note_on,960,0,5,,,,,,,,5,,,62,0
17280,note_on,0,0,5,,,,,,,,5,,,55,0
17280,note_on,0,0,5,,,,,,,,5,,,64,64
17280,note_on,0,0,2,,,,,,,,1,,,72,64
17280,note_on,0,0,2,,,,,,,,1,,,76,64
17280,note_on,948,0,12,,,,,,,,11,,,36,64
17280,note_on,0,0,8,,,,,,,,4,,,67,80
17280,control_change,131,0,8,,,,,,,,4,7,60,,
17280,note_on,0,0,8,,,,,,,,4,,,55,80
17280,note_on,0,0,2,,,,,,,,1,,,74,0
17280,note_on,960,0,2,,,,,,,,1,,,71,0
17280,note_on,794,0,7,,,,,,,,7,,,48,64
17280,note_on,948,0,11,,,,,,,,10,,,48,96
17314,note_on,34,0,10,,,,,,,,8,,,50,0
17360,note_on,80,0,11,,,,,,,,10,,,43,0
17360,note_on,80,0,12,,,,,,,,11,,,31,0
17461,note_on,181,0,9,,,,,,,,8,,,62,0
17468,note_on,7,0,9,,,,,,,,8,,,59,0
17476,note_on,196,0,7,,,,,,,,7,,,48,0
18080,note_on,800,0,5,,,,,,,,5,,,62,64
18080,note_on,800,0,2,,,,,,,,1,,,74,64
18080,note_on,0,0,2,,,,,,,,1,,,71,64
18080,note_on,0,0,5,,,,,,,,5,,,55,64
18120,note_on,40,0,2,,,,,,,,1,,,72,0
18120,note_on,0,0,5,,,,,,,,5,,,64,0
18120,note_on,0,0,2,,,,,,,,1,,,76,0
18120,note_on,40,0,5,,,,,,,,5,,,60,0
18200,note_on,0,0,5,,,,,,,,5,,,55,0
18200,note_on,80,0,5,,,,,,,,5,,,62,0
18240,note_on,120,0,2,,,,,,,,1,,,72,64
18240,note_on,0,0,5,,,,,,,,5,,,52,64
18240,note_on,0,0,2,,,,,,,,1,,,67,64
18240,note_on,40,0,5,,,,,,,,5,,,60,64
18249,note_on,0,0,2,,,,,,,,1,,,71,0
18249,note_on,9,0,2,,,,,,,,1,,,74,0
18938,note_on,0,0,8,,,,,,,,4,,,67,0
18938,note_on,1658,0,8,,,,,,,,4,,,55,0
18992,note_on,1632,0,11,,,,,,,,10,,,48,0
18992,note_on,1632,0,12,,,,,,,,11,,,36,0
19110,note_on,1796,0,10,,,,,,,,8,,,60,0
19114,note_on,4,0,10,,,,,,,,8,,,52,0
19200,note_on,0,0,9,,,,,,,,8,,,60,96
19200,note_on,1732,0,9,,,,,,,,8,,,64,96
19200,note_on,208,0,12,,,,,,,,11,,,36,64
19200,note_on,208,0,11,,,,,,,,10,,,48,96
19200,note_on,86,0,10,,,,,,,,8,,,52,96
19200,note_on,0,0,10,,,,,,,,8,,,60,96
19200,note_on,0,0,8,,,,,,,,4,,,55,80
19200,note_on,262,0,8,,,,,,,,4,,,67,80
19224,note_on,984,0,5,,,,,,,,5,,,60,0
19224,note_on,975,0,2,,,,,,,,1,,,72,0
19240,note_on,16,0,2,,,,,,,,1,,,67,0
19240,note_on,16,0,5,,,,,,,,5,,,52,0
19307,note_on,107,0,9,,,,,,,,8,,,64,0
19314,note_on,7,0,9,,,,,,,,8,,,60,0
20029,note_on,0,0,8,,,,,,,,4,,,67,0
20029,note_on,829,0,8,,,,,,,,4,,,55,0
20160,note_on,0,0,10,,,,,,,,8,,,50,96
20160,note_on,960,0,10,,,,,,,,8,,,55,96
20160,note_on,0,0,8,,,,,,,,4,,,67,80
20160,note_on,0,0,8,,,,,,,,4,,,55,80
20160,control_change,131,0,8,,,,,,,,4,7,60,,
20160,note_on,920,0,2,,,,,,,,1,,,74,64
20160,note_on,846,0,9,,,,,,,,8,,,62,96
20160,note_on,960,0,12,,,,,,,,11,,,35,64
20160,note_on,920,0,5,,,,,,,,5,,,62,64
20160,note_on,0,0,5,,,,,,,,5,,,55,64
20160,note_on,0,0,2,,,,,,,,1,,,67,64
20160,note_on,960,0,11,,,,,,,,10,,,47,96
20170,note_on,10,0,10,,,,,,,,8,,,60,0
20172,note_on,12,0,11,,,,,,,,10,,,48,0
20172,note_on,12,0,12,,,,,,,,11,,,36,0
20188,note_on,18,0,10,,,,,,,,8,,,52,0
20289,note_on,0,0,9,,,,,,,,8,,,60,0
20289,note_on,129,0,9,,,,,,,,8,,,64,0
20896,note_on,724,0,12,,,,,,,,11,,,35,0
20896,note_on,724,0,11,,,,,,,,10,,,47,0
21090,note_on,930,0,2,,,,,,,,1,,,67,0
21090,note_on,930,0,5,,,,,,,,5,,,55,0
21120,note_on,224,0,12,,,,,,,,11,,,31,64
21120,note_on,0,0,5,,,,,,,,5,,,62,64
21120,note_on,224,0,11,,,,,,,,10,,,43,96
21120,note_on,831,0,9,,,,,,,,8,,,65,96
21120,note_on,0,0,5,,,,,,,,5,,,65,64
21120,note_on,932,0,10,,,,,,,,8,,,62,96
21120,note_on,30,0,5,,,,,,,,5,,,62,0
21120,note_on,30,0,2,,,,,,,,1,,,74,0
21120,note_on,3644,0,7,,,,,,,,7,,,43,64
21120,note_on,0,0,2,,,,,,,,1,,,77,64
21120,note_on,0,0,2,,,,,,,,1,,,74,64
21160,note_on,40,0,10,,,,,,,,8,,,55,0
21177,note_on,57,0,9,,,,,,,,8,,,62,0
21612,note_on,492,0,7,,,,,,,,7,,,43,0
21818,note_on,0,0,8,,,,,,,,4,,,55,0
21818,note_on,1658,0,8,,,,,,,,4,,,67,0
22032,note_on,0,0,5,,,,,,,,5,,,65,0
22032,note_on,912,0,5,,,,,,,,5,,,62,0
22080,note_on,262,0,8,,,,,,,,4,,,67,80
22080,note_on,0,0,8,,,,,,,,4,,,55,80
22080,note_on,468,0,7,,,,,,,,7,,,48,64
22080,note_on,920,0,10,,,,,,,,8,,,62,0
22080,note_on,48,0,5,,,,,,,,5,,,65,64
22080,note_on,0,0,10,,,,,,,,8,,,62,96
22080,note_on,960,0,11,,,,,,,,10,,,48,96
22080,note_on,0,0,10,,,,,,,,8,,,52,96
22080,note_on,0,0,9,,,,,,,,8,,,65,96
22080,note_on,960,0,2,,,,,,,,1,,,74,0
22080,note_on,0,0,2,,,,,,,,1,,,77,0
22080,note_on,0,0,2,,,,,,,,1,,,77,64
22080,note_on,0,0,2,,,,,,,,1,,,74,64
22080,note_on,0,0,5,,,,,,,,5,,,62,64
22080,note_on,960,0,12,,,,,,,,11,,,36,64
22080,note_on,903,0,9,,,,,,,,8,,,65,0
22116,note_on,36,0,10,,,,,,,,8,,,50,0
22118,note_on,38,0,11,,,,,,,,10,,,43,0
22118,note_on,38,0,12,,,,,,,,11,,,31,0
22320,note_on,240,0,5,,,,,,,,5,,,64,64
22320,note_on,204,0,10,,,,,,,,8,,,60,96
22320,note_on,0,0,2,,,,,,,,1,,,72,64
22320,note_on,240,0,2,,,,,,,,1,,,76,64
22320,note_on,0,0,5,,,,,,,,5,,,60,64
22320,note_on,240,0,9,,,,,,,,8,,,64,96
22342,note_on,22,0,5,,,,,,,,5,,,65,0
22342,note_on,22,0,2,,,,,,,,1,,,77,0
22376,note_on,56,0,10,,,,,,,,8,,,62,0
22394,note_on,52,0,2,,,,,,,,1,,,74,0
22394,note_on,52,0,5,,,,,,,,5,,,62,0
22403,note_on,83,0,9,,,,,,,,8,,,65,0
22496,note_on,416,0,7,,,,,,,,7,,,48,0
22560,note_on,184,0,10,,,,,,,,8,,,59,96
22560,note_on,166,0,2,,,,,,,,1,,,74,64
22560,note_on,0,0,2,,,,,,,,1,,,71,64
22560,note_on,157,0,9,,,,,,,,8,,,62,96
22560,note_on,166,0,5,,,,,,,,5,,,59,64
22560,note_on,0,0,5,,,,,,,,5,,,62,64
22566,note_on,6,0,5,,,,,,,,5,,,60,0
22566,note_on,6,0,2,,,,,,,,1,,,72,0
22588,note_on,28,0,10,,,,,,,,8,,,60,0
22624,note_on,58,0,2,,,,,,,,1,,,76,0
22624,note_on,58,0,5,,,,,,,,5,,,64,0
22672,note_on,112,0,9,,,,,,,,8,,,64,0
22800,note_on,128,0,9,,,,,,,,8,,,64,96
22800,note_on,212,0,10,,,,,,,,8,,,60,96
22800,note_on,176,0,2,,,,,,,,1,,,72,64
22800,note_on,0,0,2,,,,,,,,1,,,76,64
22800,note_on,0,0,5,,,,,,,,5,,,60,64
22800,note_on,176,0,5,,,,,,,,5,,,64,64
22826,note_on,26,0,5,,,,,,,,5,,,59,0
22826,note_on,26,0,2,,,,,,,,1,,,71,0
22830,note_on,30,0,10,,,,,,,,8,,,59,0
22872,note_on,46,0,2,,,,,,,,1,,,74,0
22872,note_on,46,0,5,,,,,,,,5,,,62,0
22880,note_on,80,0,9,,,,,,,,8,,,62,0
22909,note_on,829,0,8,,,,,,,,4,,,55,0
22909,note_on,0,0,8,,,,,,,,4,,,67,0
23040,note_on,160,0,9,,,,,,,,8,,,62,96
23040,note_on,922,0,12,,,,,,,,11,,,31,64
23040,note_on,544,0,7,,,,,,,,7,,,43,64
23040,note_on,168,0,5,,,,,,,,5,,,62,64
23040,note_on,0,0,5,,,,,,,,5,,,55,64
23040,note_on,168,0,2,,,,,,,,1,,,74,64
23040,note_on,0,0,8,,,,,,,,4,,,55,96
23040,note_on,131,0,8,,,,,,,,4,,,67,96
23040,note_on,0,0,2,,,,,,,,1,,,71,64
23040,note_on,922,0,11,,,,,,,,10,,,43,96
23040,note_on,210,0,10,,,,,,,,8,,,50,96
23040,note_on,0,0,10,,,,,,,,8,,,59,96
23050,note_on,10,0,12,,,,,,,,11,,,36,0
23050,note_on,10,0,11,,,,,,,,10,,,48,0
23056,note_on,0,0,5,,,,,,,,5,,,60,0
23056,note_on,0,0,2,,,,,,,,1,,,76,0
23056,note_on,16,0,2,,,,,,,,1,,,72,0
23056,note_on,16,0,5,,,,,,,,5,,,64,0
23066,note_on,26,0,9,,,,,,,,8,,,64,0
23090,note_on,50,0,10,,,,,,,,8,,,60,0
23156,note_on,66,0,10,,,,,,,,8,,,52,0
23514,note_on,474,0,7,,,,,,,,7,,,43,0
24000,note_on,934,0,9,,,,,,,,8,,,55,96
24057,note_on,57,0,9,,,,,,,,8,,,62,0
24164,note_on,1114,0,12,,,,,,,,11,,,31,0
24164,note_on,1114,0,11,,,,,,,,10,,,43,0
24430,note_on,1274,0,10,,,,,,,,8,,,59,0
24454,note_on,397,0,9,,,,,,,,8,,,55,0
24465,note_on,1425,0,8,,,,,,,,4,,,67,0
24469,note_on,4,0,8,,,,,,,,4,,,55,0
24480,note_on,316,0,12,,,,,,,,11,,,31,64
24480,note_on,26,0,9,,,,,,,,8,,,55,96
24480,note_on,11,0,8,,,,,,,,4,,,67,96
24480,note_on,316,0,11,,,,,,,,10,,,43,96
24480,note_on,50,0,10,,,,,,,,8,,,55,96
24502,note_on,22,0,10,,,,,,,,8,,,50,0
24714,note_on,234,0,12,,,,,,,,11,,,31,0
24714,note_on,234,0,11,,,,,,,,10,,,43,0
24840,note_on,1784,0,5,,,,,,,,5,,,62,0
24840,note_on,0,0,5,,,,,,,,5,,,55,0
24870,note_on,390,0,8,,,,,,,,4,,,67,0
24910,note_on,408,0,10,,,,,,,,8,,,55,0
24911,note_on,431,0,9,,,,,,,,8,,,55,0
24960,note_on,90,0,8,,,,,,,,4,,,67,96
24960,note_on,1904,0,2,,,,,,,,1,,,74,0
24960,note_on,246,0,11,,,,,,,,10,,,43,96
24960,note_on,246,0,12,,,,,,,,11,,,31,64
24960,note_on,0,0,2,,,,,,,,1,,,71,64
24960,note_on,49,0,9,,,,,,,,8,,,55,96
24960,note_on,0,0,2,,,,,,,,1,,,75,64
24960,note_on,50,0,10,,,,,,,,8,,,55,96
24960,note_on,0,0,2,,,,,,,,1,,,71,0
25178,note_on,218,0,11,,,,,,,,10,,,43,0
25178,note_on,218,0,12,,,,,,,,11,,,31,0
25322,note_on,362,0,8,,,,,,,,4,,,67,0
25380,note_on,420,0,10,,,,,,,,8,,,55,0
25440,note_on,262,0,12,,,,,,,,11,,,31,64
25440,note_on,60,0,10,,,,,,,,8,,,55,96
25440,note_on,118,0,8,,,,,,,,4,,,67,96
25440,note_on,262,0,11,,,,,,,,10,,,43,96
25500,note_on,540,0,9,,,,,,,,8,,,55,0
25702,note_on,262,0,12,,,,,,,,11,,,31,0
25702,note_on,262,0,11,,,,,,,,10,,,43,0
25920,note_on,0,0,8,,,,,,,,4,,,64,96
25920,note_on,0,0,2,,,,,,,,1,,,72,64
25920,note_on,960,0,2,,,,,,,,1,,,75,0
25920,note_on,420,0,9,,,,,,,,8,,,64,96
25920,note_on,480,0,8,,,,,,,,4,,,55,96
25920,note_on,218,0,11,,,,,,,,10,,,48,96
25920,note_on,0,0,2,,,,,,,,1,,,76,64
25920,note_on,0,0,5,,,,,,,,5,,,52,80
25920,note_on,1080,0,5,,,,,,,,5,,,60,80
25920,note_on,2406,0,7,,,,,,,,7,,,48,64
25920,note_on,218,0,12,,,,,,,,11,,,36,64
25920,note_on,13214,0,6,,,,,,,,6,,,60,40
25920,note_on,0,0,6,,,,,,,,6,,,72,40
26006,note_on,566,0,10,,,,,,,,8,,,55,0
26012,note_on,92,0,8,,,,,,,,4,,,67,0
26036,note_on,116,0,2,,,,,,,,1,,,71,0
26040,note_on,34,0,10,,,,,,,,8,,,48,96
26040,note_on,0,0,10,,,,,,,,8,,,52,96
26040,note_on,120,0,9,,,,,,,,8,,,60,96
26642,note_on,722,0,7,,,,,,,,7,,,48,0
26642,note_on,0,0,6,,,,,,,,6,,,60,0
26642,note_on,722,0,6,,,,,,,,6,,,72,0
26880,note_on,844,0,2,,,,,,,,1,,,79,83
26880,note_on,960,0,12,,,,,,,,11,,,40,64
26880,note_on,868,0,8,,,,,,,,4,,,67,125
26880,note_on,960,0,11,,,,,,,,10,,,52,96
26962,note_on,82,0,11,,,,,,,,10,,,48,0
26962,note_on,82,0,12,,,,,,,,11,,,36,0
26972,note_on,92,0,2,,,,,,,,1,,,76,0
27045,note_on,165,0,8,,,,,,,,4,,,64,0
27840,note_on,1800,0,10,,,,,,,,8,,,50,96
27840,note_on,0,0,5,,,,,,,,5,,,55,80
27840,note_on,0,0,5,,,,,,,,5,,,60,0
27840,note_on,1920,0,5,,,,,,,,5,,,52,0
27840,note_on,1800,0,9,,,,,,,,8,,,59,96
27840,note_on,878,0,11,,,,,,,,10,,,55,96
27840,note_on,0,0,5,,,,,,,,5,,,62,80
27840,note_on,878,0,12,,,,,,,,11,,,43,64
27840,note_on,0,0,10,,,,,,,,8,,,53,96
27840,note_on,1198,0,7,,,,,,,,7,,,43,64
27840,note_on,1198,0,6,,,,,,,,6,,,55,40
27840,note_on,0,0,6,,,,,,,,6,,,67,40
27840,note_on,868,0,2,,,,,,,,1,,,67,64
27844,note_on,4,0,10,,,,,,,,8,,,52,0
27868,note_on,24,0,10,,,,,,,,8,,,48,0
27872,note_on,32,0,11,,,,,,,,10,,,52,0
27872,note_on,32,0,12,,,,,,,,11,,,40,0
27894,note_on,54,0,2,,,,,,,,1,,,72,0
28033,note_on,193,0,9,,,,,,,,8,,,64,0
28105,note_on,72,0,9,,,,,,,,8,,,60,0
28296,note_on,456,0,7,,,,,,,,7,,,43,0
28296,note_on,0,0,6,,,,,,,,6,,,55,0
28296,note_on,456,0,6,,,,,,,,6,,,67,0
28320,note_on,215,0,9,,,,,,,,8,,,62,96
28320,note_on,1275,0,8,,,,,,,,4,,,65,96
28320,note_on,0,0,2,,,,,,,,1,,,74,64
28320,note_on,426,0,2,,,,,,,,1,,,77,64
28376,note_on,56,0,2,,,,,,,,1,,,79,0
28463,note_on,143,0,9,,,,,,,,8,,,59,0
28504,note_on,184,0,8,,,,,,,,4,,,67,0
28574,note_on,198,0,2,,,,,,,,1,,,67,0
28766,note_on,894,0,12,,,,,,,,11,,,43,0
28766,note_on,894,0,11,,,,,,,,10,,,55,0
28800,note_on,932,0,10,,,,,,,,8,,,48,96
28800,note_on,0,0,10,,,,,,,,8,,,52,100
28800,note_on,504,0,7,,,,,,,,7,,,48,64
28800,note_on,0,0,2,,,,,,,,1,,,76,64
28800,note_on,0,0,5,,,,,,,,5,,,64,80
28800,note_on,0,0,5,,,,,,,,5,,,55,0
28800,note_on,34,0,12,,,,,,,,11,,,36,64
28800,note_on,0,0,8,,,,,,,,4,,,64,96
28800,note_on,296,0,8,,,,,,,,4,,,55,96
28800,note_on,337,0,9,,,,,,,,8,,,64,96
28800,note_on,0,0,9,,,,,,,,8,,,60,96
28800,note_on,0,0,5,,,,,,,,5,,,60,80
28800,note_on,34,0,11,,,,,,,,10,,,48,96
28800,note_on,960,0,5,,,,,,,,5,,,62,0
28800,note_on,226,0,2,,,,,,,,1,,,72,64
28800,note_on,504,0,6,,,,,,,,6,,,60,40
28800,note_on,0,0,6,,,,,,,,6,,,72,40
28816,note_on,16,0,8,,,,,,,,4,,,55,0
28834,note_on,34,0,10,,,,,,,,8,,,50,0
28840,note_on,6,0,10,,,,,,,,8,,,53,0
28856,note_on,56,0,2,,,,,,,,1,,,77,0
28864,note_on,8,0,2,,,,,,,,1,,,74,0
28946,note_on,130,0,8,,,,,,,,4,,,65,0
28946,note_on,146,0,9,,,,,,,,8,,,62,0
29300,note_on,500,0,7,,,,,,,,7,,,48,0
29300,note_on,500,0,6,,,,,,,,6,,,72,0
29300,note_on,0,0,6,,,,,,,,6,,,60,0
29520,note_on,656,0,2,,,,,,,,1,,,79,64
29562,note_on,0,0,8,,,,,,,,4,,,64,0
29562,note_on,616,0,8,,,,,,,,4,,,55,0
29600,note_on,38,0,8,,,,,,,,4,,,67,96
29602,note_on,82,0,2,,,,,,,,1,,,76,0
29720,note_on,120,0,8,,,,,,,,4,,,67,96
29723,note_on,3,0,8,,,,,,,,4,,,67,0
29734,note_on,132,0,2,,,,,,,,1,,,79,0
29760,note_on,0,0,5,,,,,,,,5,,,52,80
29760,note_on,960,0,11,,,,,,,,10,,,52,96
29760,note_on,960,0,5,,,,,,,,5,,,60,0
29760,note_on,0,0,5,,,,,,,,5,,,64,0
29760,note_on,960,0,12,,,,,,,,11,,,40,64
29760,note_on,26,0,2,,,,,,,,1,,,79,83
29760,note_on,0,0,5,,,,,,,,5,,,60,80
29776,note_on,16,0,11,,,,,,,,10,,,48,0
29776,note_on,16,0,12,,,,,,,,11,,,36,0
30720,note_on,0,0,5,,,,,,,,5,,,55,80
30720,note_on,0,0,5,,,,,,,,5,,,62,80
30720,note_on,1420,0,7,,,,,,,,7,,,43,64
30720,note_on,944,0,12,,,,,,,,11,,,43,64
30720,note_on,0,0,6,,,,,,,,6,,,55,40
30720,note_on,0,0,5,,,,,,,,5,,,52,0
30720,note_on,960,0,5,,,,,,,,5,,,60,0
30720,note_on,1420,0,6,,,,,,,,6,,,67,40
30720,note_on,1774,0,9,,,,,,,,8,,,59,96
30720,note_on,944,0,11,,,,,,,,10,,,55,96
30720,note_on,1880,0,10,,,,,,,,8,,,52,0
30720,note_on,0,0,10,,,,,,,,8,,,53,96
30720,note_on,0,0,10,,,,,,,,8,,,50,96
30720,note_on,960,0,2,,,,,,,,1,,,67,64
30794,note_on,74,0,2,,,,,,,,1,,,72,0
30800,note_on,80,0,10,,,,,,,,8,,,48,0
30816,note_on,96,0,12,,,,,,,,11,,,40,0
30816,note_on,96,0,11,,,,,,,,10,,,52,0
30998,note_on,278,0,9,,,,,,,,8,,,64,0
31030,note_on,32,0,9,,,,,,,,8,,,60,0
31160,note_on,1437,0,8,,,,,,,,4,,,65,96
31190,note_on,0,0,6,,,,,,,,6,,,67,0
31190,note_on,470,0,6,,,,,,,,6,,,55,0
31190,note_on,470,0,7,,,,,,,,7,,,43,0
31200,note_on,406,0,2,,,,,,,,1,,,74,64
31200,note_on,0,0,2,,,,,,,,1,,,77,64
31200,note_on,170,0,9,,,,,,,,8,,,62,96
31264,note_on,64,0,2,,,,,,,,1,,,79,0
31330,note_on,130,0,9,,,,,,,,8,,,59,0
31344,note_on,80,0,2,,,,,,,,1,,,67,0
31363,note_on,203,0,8,,,,,,,,4,,,67,0
31596,note_on,780,0,12,,,,,,,,11,,,43,0
31596,note_on,780,0,11,,,,,,,,10,,,55,0
31680,note_on,350,0,9,,,,,,,,8,,,60,96
31680,note_on,0,0,5,,,,,,,,5,,,60,80
31680,note_on,0,0,5,,,,,,,,5,,,64,80
31680,note_on,317,0,8,,,,,,,,4,,,64,96
31680,note_on,0,0,4,,,,,,,,3,,,64,80
31680,note_on,84,0,12,,,,,,,,11,,,36,64
31680,note_on,0,0,6,,,,,,,,6,,,72,40
31680,note_on,490,0,6,,,,,,,,6,,,60,40
31680,note_on,960,0,5,,,,,,,,5,,,62,0
31680,note_on,0,0,5,,,,,,,,5,,,55,0
31680,note_on,490,0,7,,,,,,,,7,,,48,64
31680,note_on,880,0,10,,,,,,,,8,,,48,96
31680,note_on,336,0,2,,,,,,,,1,,,76,64
31680,note_on,84,0,11,,,,,,,,10,,,48,96
31680,note_on,0,0,2,,,,,,,,1,,,72,64
31680,note_on,18840,0,4,,,,,,,,3,,,60,80
31702,note_on,22,0,10,,,,,,,,8,,,50,0
31716,note_on,14,0,10,,,,,,,,8,,,53,0
31726,note_on,46,0,2,,,,,,,,1,,,77,0
31750,note_on,24,0,2,,,,,,,,1,,,74,0
31810,note_on,130,0,8,,,,,,,,4,,,65,0
31812,note_on,132,0,9,,,,,,,,8,,,62,0
32156,note_on,476,0,6,,,,,,,,6,,,72,0
32156,note_on,0,0,6,,,,,,,,6,,,60,0
32156,note_on,476,0,7,,,,,,,,7,,,48,0
32160,note_on,0,0,5,,,,,,,,5,,,64,0
32160,note_on,480,0,5,,,,,,,,5,,,60,0
32160,note_on,0,0,4,,,,,,,,3,,,60,0
32160,note_on,480,0,4,,,,,,,,3,,,64,0
32356,note_on,676,0,11,,,,,,,,10,,,48,0
32356,note_on,676,0,12,,,,,,,,11,,,36,0
32498,note_on,686,0,9,,,,,,,,8,,,60,0
32640,note_on,0,0,2,,,,,,,,1,,,81,64
32640,note_on,480,0,4,,,,,,,,3,,,53,80
32640,note_on,284,0,11,,,,,,,,10,,,41,96
32640,note_on,890,0,2,,,,,,,,1,,,69,64
32640,note_on,0,0,4,,,,,,,,3,,,60,80
32640,note_on,284,0,12,,,,,,,,11,,,29,64
32640,note_on,142,0,9,,,,,,,,8,,,57,96
32640,note_on,830,0,8,,,,,,,,4,,,69,96
32674,note_on,34,0,2,,,,,,,,1,,,72,0
32690,note_on,16,0,2,,,,,,,,1,,,76,0
32729,note_on,89,0,8,,,,,,,,4,,,64,0
33120,note_on,0,0,4,,,,,,,,3,,,61,80
33120,note_on,1404,0,10,,,,,,,,8,,,49,96
33120,note_on,480,0,4,,,,,,,,3,,,60,0
33146,note_on,26,0,10,,,,,,,,8,,,48,0
33408,note_on,768,0,12,,,,,,,,11,,,29,0
33408,note_on,768,0,11,,,,,,,,10,,,41,0
33600,note_on,480,0,4,,,,,,,,3,,,61,0
33600,note_on,192,0,11,,,,,,,,10,,,41,96
33600,note_on,454,0,10,,,,,,,,8,,,50,96
33600,note_on,910,0,2,,,,,,,,1,,,79,83
33600,note_on,871,0,8,,,,,,,,4,,,67,96
33600,note_on,0,0,4,,,,,,,,3,,,62,80
33600,note_on,192,0,12,,,,,,,,11,,,29,64
33638,note_on,38,0,2,,,,,,,,1,,,81,0
33694,note_on,94,0,10,,,,,,,,8,,,49,0
33767,note_on,167,0,8,,,,,,,,4,,,69,0
33840,note_on,202,0,2,,,,,,,,1,,,77,83
33840,note_on,73,0,8,,,,,,,,4,,,65,96
33842,note_on,2,0,2,,,,,,,,1,,,79,0
33888,note_on,46,0,2,,,,,,,,1,,,69,0
33926,note_on,86,0,8,,,,,,,,4,,,67,0
34080,note_on,154,0,8,,,,,,,,4,,,64,96
34080,note_on,192,0,2,,,,,,,,1,,,76,83
34080,note_on,0,0,2,,,,,,,,1,,,69,64
34080,note_on,386,0,10,,,,,,,,8,,,53,96
34080,note_on,0,0,5,,,,,,,,5,,,65,56
34080,note_on,0,0,4,,,,,,,,3,,,53,80
34080,note_on,0,0,4,,,,,,,,3,,,53,0
34080,note_on,480,0,4,,,,,,,,3,,,62,0
34080,note_on,1920,0,5,,,,,,,,5,,,62,56
34080,note_on,1440,0,9,,,,,,,,8,,,57,96
34080,note_on,0,0,4,,,,,,,,3,,,65,80
34089,note_on,9,0,2,,,,,,,,1,,,77,0
34122,note_on,42,0,9,,,,,,,,8,,,57,0
34162,note_on,82,0,10,,,,,,,,8,,,50,0
34168,note_on,88,0,8,,,,,,,,4,,,65,0
34266,note_on,666,0,11,,,,,,,,10,,,41,0
34266,note_on,666,0,12,,,,,,,,11,,,29,0
34320,note_on,152,0,8,,,,,,,,4,,,62,96
34320,note_on,231,0,2,,,,,,,,1,,,74,83
34329,note_on,9,0,2,,,,,,,,1,,,76,0
34384,note_on,64,0,8,,,,,,,,4,,,64,0
34493,note_on,371,0,9,,,,,,,,8,,,57,0
34560,note_on,0,0,5,,,,,,,,5,,,62,0
34560,note_on,0,0,5,,,,,,,,5,,,60,56
34560,note_on,0,0,2,,,,,,,,1,,,64,64
34560,note_on,231,0,2,,,,,,,,1,,,72,83
34560,note_on,0,0,5,,,,,,,,5,,,64,56
34560,note_on,294,0,12,,,,,,,,11,,,31,64
34560,note_on,480,0,5,,,,,,,,5,,,65,0
34560,note_on,480,0,4,,,,,,,,3,,,65,0
34560,note_on,0,0,4,,,,,,,,3,,,53,0
34560,note_on,0,0,4,,,,,,,,3,,,64,80
34560,note_on,294,0,11,,,,,,,,10,,,43,96
34560,note_on,176,0,8,,,,,,,,4,,,60,96
34560,note_on,0,0,4,,,,,,,,3,,,55,80
34560,note_on,398,0,10,,,,,,,,8,,,52,96
34560,note_on,67,0,9,,,,,,,,8,,,55,96
34569,note_on,9,0,2,,,,,,,,1,,,74,0
34579,note_on,10,0,2,,,,,,,,1,,,69,0
34640,note_on,80,0,10,,,,,,,,8,,,53,0
34654,note_on,94,0,8,,,,,,,,4,,,62,0
35040,note_on,480,0,4,,,,,,,,3,,,64,0
35040,note_on,0,0,4,,,,,,,,3,,,66,80
35468,note_on,889,0,2,,,,,,,,1,,,64,0
35520,note_on,866,0,8,,,,,,,,4,,,59,96
35520,note_on,52,0,2,,,,,,,,1,,,71,64
35520,note_on,0,0,10,,,,,,,,8,,,50,96
35520,note_on,880,0,10,,,,,,,,8,,,52,0
35520,note_on,960,0,5,,,,,,,,5,,,64,0
35520,note_on,0,0,4,,,,,,,,3,,,67,80
35520,note_on,0,0,2,,,,,,,,1,,,62,64
35520,note_on,0,0,5,,,,,,,,5,,,60,0
35520,note_on,0,0,5,,,,,,,,5,,,62,56
35520,note_on,0,0,5,,,,,,,,5,,,55,56
35520,note_on,480,0,4,,,,,,,,3,,,66,0
35558,note_on,38,0,2,,,,,,,,1,,,72,0
35646,note_on,1086,0,12,,,,,,,,11,,,31,0
35646,note_on,1086,0,11,,,,,,,,10,,,43,0
35700,note_on,180,0,8,,,,,,,,4,,,60,0
35730,note_on,1170,0,9,,,,,,,,8,,,55,0
35794,note_on,94,0,8,,,,,,,,4,,,59,0
35904,note_on,384,0,4,,,,,,,,3,,,67,0
35914,note_on,394,0,10,,,,,,,,8,,,50,0
36000,note_on,270,0,9,,,,,,,,8,,,77,67
36000,note_on,0,0,4,,,,,,,,3,,,57,56
36000,note_on,206,0,8,,,,,,,,4,,,81,67
36000,note_on,0,0,4,,,,,,,,3,,,53,56
36000,note_on,96,0,4,,,,,,,,3,,,55,0
36000,note_on,480,0,5,,,,,,,,5,,,55,0
36000,note_on,0,0,5,,,,,,,,5,,,62,0
36010,note_on,452,0,2,,,,,,,,1,,,62,0
36035,note_on,25,0,2,,,,,,,,1,,,71,0
36480,note_on,0,0,4,,,,,,,,3,,,52,56
36480,note_on,480,0,9,,,,,,,,8,,,76,67
36480,note_on,480,0,4,,,,,,,,3,,,53,0
36480,note_on,480,0,8,,,,,,,,4,,,79,67
36480,note_on,0,0,4,,,,,,,,3,,,55,56
36480,note_on,0,0,4,,,,,,,,3,,,57,0
36494,note_on,14,0,8,,,,,,,,4,,,81,0
36550,note_on,70,0,9,,,,,,,,8,,,77,0
36960,note_on,0,0,4,,,,,,,,3,,,50,56
36960,note_on,0,0,4,,,,,,,,3,,,52,0
36960,note_on,466,0,8,,,,,,,,4,,,77,67
36960,note_on,0,0,4,,,,,,,,3,,,53,56
36960,note_on,480,0,4,,,,,,,,3,,,55,0
36960,note_on,410,0,9,,,,,,,,8,,,74,67
37030,note_on,70,0,9,,,,,,,,8,,,76,0
37038,note_on,78,0,8,,,,,,,,4,,,79,0
37440,note_on,5284,0,7,,,,,,,,7,,,48,64
37440,note_on,1440,0,5,,,,,,,,5,,,60,64
37440,note_on,1794,0,12,,,,,,,,11,,,36,64
37440,note_on,0,0,1,,,,,,,,0,,,84,64
37440,note_on,24600,0,1,,,,,,,,0,,,88,64
37440,note_on,0,0,4,,,,,,,,3,,,48,64
37440,note_on,0,0,2,,,,,,,,1,,,76,64
37440,note_on,1405,0,2,,,,,,,,1,,,72,64
37440,note_on,0,0,4,,,,,,,,3,,,52,64
37440,note_on,0,0,4,,,,,,,,3,,,50,0
37440,note_on,1794,0,11,,,,,,,,10,,,48,96
37440,note_on,402,0,8,,,,,,,,4,,,76,96
37440,note_on,24600,0,3,,,,,,,,2,,,64,64
37440,note_on,0,0,3,,,,,,,,2,,,60,64
37440,note_on,0,0,5,,,,,,,,5,,,64,64
37440,note_on,410,0,9,,,,,,,,8,,,72,96
37440,note_on,480,0,4,,,,,,,,3,,,53,0
37440,note_on,1526,0,10,,,,,,,,8,,,60,96
37450,note_on,10,0,8,,,,,,,,4,,,77,0
37450,note_on,10,0,9,,,,,,,,8,,,74,0
38274,note_on,834,0,7,,,,,,,,7,,,48,0
38400,note_on,0,0,5,,,,,,,,5,,,64,64
38400,note_on,0,0,5,,,,,,,,5,,,67,64
38400,note_on,0,0,5,,,,,,,,5,,,60,0
38400,note_on,0,0,1,,,,,,,,0,,,88,64
38400,note_on,0,0,1,,,,,,,,0,,,91,64
38400,note_on,960,0,5,,,,,,,,5,,,64,0
38400,note_on,960,0,4,,,,,,,,3,,,48,0
38400,note_on,0,0,4,,,,,,,,3,,,52,0
38400,note_on,0,0,3,,,,,,,,2,,,64,64
38400,note_on,0,0,3,,,,,,,,2,,,67,64
38400,note_on,0,0,3,,,,,,,,2,,,64,0
38400,note_on,960,0,3,,,,,,,,2,,,60,0
38400,note_on,0,0,4,,,,,,,,3,,,55,64
38400,note_on,0,0,4,,,,,,,,3,,,52,64
38400,note_on,960,0,2,,,,,,,,1,,,76,0
38400,note_on,0,0,1,,,,,,,,0,,,88,0
38400,note_on,960,0,1,,,,,,,,0,,,84,0
38400,note_on,6244,0,6,,,,,,,,6,,,67,40
38400,note_on,0,0,2,,,,,,,,1,,,79,64
38400,note_on,0,0,2,,,,,,,,1,,,76,64
38400,note_on,0,0,2,,,,,,,,1,,,72,0
38400,note_on,0,0,6,,,,,,,,6,,,55,40
38426,note_on,976,0,8,,,,,,,,4,,,76,0
38454,note_on,1004,0,9,,,,,,,,8,,,72,0
38640,note_on,214,0,8,,,,,,,,4,,,79,96
38640,note_on,186,0,9,,,,,,,,8,,,67,96
38880,note_on,606,0,7,,,,,,,,7,,,48,64
38880,note_on,1440,0,10,,,,,,,,8,,,64,96
38880,note_on,240,0,8,,,,,,,,4,,,78,96
38880,note_on,1440,0,11,,,,,,,,10,,,52,96
38880,note_on,1440,0,12,,,,,,,,11,,,40,64
38880,note_on,240,0,9,,,,,,,,8,,,66,96
38890,note_on,10,0,10,,,,,,,,8,,,60,0
38930,note_on,50,0,9,,,,,,,,8,,,67,0
38954,note_on,74,0,12,,,,,,,,11,,,36,0
38954,note_on,74,0,11,,,,,,,,10,,,48,0
38964,note_on,84,0,8,,,,,,,,4,,,79,0
39040,note_on,160,0,7,,,,,,,,7,,,48,0
39120,note_on,190,0,9,,,,,,,,8,,,67,96
39120,note_on,156,0,8,,,,,,,,4,,,79,96
39162,note_on,42,0,9,,,,,,,,8,,,66,0
39196,note_on,76,0,8,,,,,,,,4,,,78,0
39360,note_on,406,0,12,,,,,,,,11,,,43,64
39360,note_on,164,0,8,,,,,,,,4,,,78,96
39360,note_on,320,0,7,,,,,,,,7,,,43,64
39360,note_on,406,0,11,,,,,,,,10,,,55,96
39360,note_on,470,0,10,,,,,,,,8,,,67,96
39360,note_on,198,0,9,,,,,,,,8,,,66,96
39392,note_on,32,0,10,,,,,,,,8,,,64,0
39404,note_on,44,0,9,,,,,,,,8,,,67,0
39434,note_on,74,0,11,,,,,,,,10,,,52,0
39434,note_on,74,0,12,,,,,,,,11,,,40,0
39438,note_on,78,0,8,,,,,,,,4,,,79,0
39510,note_on,150,0,7,,,,,,,,7,,,43,0
39552,note_on,0,0,6,,,,,,,,6,,,67,0
39552,note_on,1152,0,6,,,,,,,,6,,,55,0
39600,note_on,196,0,9,,,,,,,,8,,,67,96
39600,note_on,162,0,8,,,,,,,,4,,,79,96
39626,note_on,26,0,8,,,,,,,,4,,,78,0
39634,note_on,34,0,9,,,,,,,,8,,,66,0
39840,note_on,1440,0,5,,,,,,,,5,,,64,0
39840,note_on,0,0,6,,,,,,,,6,,,67,40
39840,note_on,0,0,5,,,,,,,,5,,,62,64
39840,note_on,0,0,5,,,,,,,,5,,,65,64
39840,note_on,0,0,5,,,,,,,,5,,,67,0
39840,note_on,330,0,7,,,,,,,,7,,,43,64
39840,note_on,288,0,6,,,,,,,,6,,,55,40
39840,note_on,1440,0,1,,,,,,,,0,,,88,0
39840,note_on,0,0,4,,,,,,,,3,,,52,0
39840,note_on,1440,0,4,,,,,,,,3,,,55,0
39840,note_on,0,0,1,,,,,,,,0,,,89,64
39840,note_on,0,0,4,,,,,,,,3,,,50,64
39840,note_on,448,0,10,,,,,,,,8,,,55,96
39840,note_on,214,0,8,,,,,,,,4,,,81,96
39840,note_on,0,0,1,,,,,,,,0,,,86,64
39840,note_on,1440,0,3,,,,,,,,2,,,64,0
39840,note_on,406,0,12,,,,,,,,11,,,31,64
39840,note_on,0,0,3,,,,,,,,2,,,67,0
39840,note_on,206,0,9,,,,,,,,8,,,69,96
39840,note_on,0,0,3,,,,,,,,2,,,62,64
39840,note_on,0,0,2,,,,,,,,1,,,77,64
39840,note_on,0,0,2,,,,,,,,1,,,74,64
39840,note_on,0,0,2,,,,,,,,1,,,76,0
39840,note_on,1440,0,2,,,,,,,,1,,,79,0
39840,note_on,0,0,3,,,,,,,,2,,,65,64
39840,note_on,0,0,4,,,,,,,,3,,,53,64
39840,note_on,406,0,11,,,,,,,,10,,,43,96
39874,note_on,34,0,10,,,,,,,,8,,,67,0
39874,note_on,34,0,1,,,,,,,,0,,,91,0
39896,note_on,56,0,9,,,,,,,,8,,,67,0
39904,note_on,64,0,12,,,,,,,,11,,,43,0
39904,note_on,64,0,11,,,,,,,,10,,,55,0
39922,note_on,82,0,8,,,,,,,,4,,,79,0
39972,note_on,132,0,7,,,,,,,,7,,,43,0
40080,note_on,158,0,8,,,,,,,,4,,,83,96
40080,note_on,184,0,9,,,,,,,,8,,,71,96
40124,note_on,44,0,9,,,,,,,,8,,,69,0
40172,note_on,92,0,8,,,,,,,,4,,,81,0
40224,note_on,384,0,6,,,,,,,,6,,,67,0
40224,note_on,0,0,6,,,,,,,,6,,,55,0
40276,note_on,436,0,4,,,,,,,,3,,,50,0
40276,note_on,436,0,5,,,,,,,,5,,,62,0
40276,note_on,436,0,2,,,,,,,,1,,,74,0
40276,note_on,436,0,3,,,,,,,,2,,,62,0
40286,note_on,10,0,3,,,,,,,,2,,,65,0
40286,note_on,10,0,5,,,,,,,,5,,,65,0
40286,note_on,10,0,4,,,,,,,,3,,,53,0
40286,note_on,10,0,2,,,,,,,,1,,,77,0
40310,note_on,436,0,1,,,,,,,,0,,,86,0
40318,note_on,146,0,8,,,,,,,,4,,,83,0
40318,note_on,8,0,1,,,,,,,,0,,,89,0
40320,note_on,34,0,4,,,,,,,,3,,,52,64
40320,note_on,446,0,10,,,,,,,,8,,,60,96
40320,note_on,2,0,8,,,,,,,,4,,,84,96
40320,note_on,0,0,4,,,,,,,,3,,,48,64
40320,note_on,0,0,3,,,,,,,,2,,,60,64
40320,note_on,34,0,3,,,,,,,,2,,,64,64
40320,note_on,196,0,9,,,,,,,,8,,,72,96
40320,note_on,0,0,5,,,,,,,,5,,,60,64
40320,note_on,96,0,6,,,,,,,,6,,,55,40
40320,note_on,0,0,1,,,,,,,,0,,,88,64
40320,note_on,2,0,1,,,,,,,,0,,,84,64
40320,note_on,348,0,7,,,,,,,,7,,,48,64
40320,note_on,0,0,6,,,,,,,,6,,,67,40
40320,note_on,34,0,2,,,,,,,,1,,,72,64
40320,note_on,0,0,2,,,,,,,,1,,,76,64
40320,note_on,34,0,5,,,,,,,,5,,,64,64
40320,note_on,416,0,12,,,,,,,,11,,,36,64
40320,note_on,416,0,11,,,,,,,,10,,,48,96
40346,note_on,26,0,10,,,,,,,,8,,,55,0
40356,note_on,36,0,11,,,,,,,,10,,,43,0
40356,note_on,36,0,12,,,,,,,,11,,,31,0
40386,note_on,66,0,9,,,,,,,,8,,,71,0
40572,note_on,252,0,7,,,,,,,,7,,,48,0
40812,note_on,426,0,9,,,,,,,,8,,,72,0
40996,note_on,676,0,8,,,,,,,,4,,,84,0
41088,note_on,768,0,6,,,,,,,,6,,,67,0
41088,note_on,0,0,6,,,,,,,,6,,,55,0
41160,note_on,0,0,4,,,,,,,,3,,,52,0
41160,note_on,0,0,1,,,,,,,,0,,,84,0
41160,note_on,840,0,4,,,,,,,,3,,,48,0
41160,note_on,840,0,1,,,,,,,,0,,,88,0
41160,note_on,0,0,4,,,,,,,,3,,,52,64
41160,note_on,840,0,3,,,,,,,,2,,,60,0
41160,note_on,0,0,1,,,,,,,,0,,,91,64
41160,note_on,0,0,5,,,,,,,,5,,,67,64
41160,note_on,0,0,4,,,,,,,,3,,,55,64
41160,note_on,840,0,5,,,,,,,,5,,,60,0
41160,note_on,0,0,1,,,,,,,,0,,,88,64
41160,note_on,0,0,3,,,,,,,,2,,,64,0
41160,note_on,0,0,3,,,,,,,,2,,,64,64
41160,note_on,0,0,5,,,,,,,,5,,,64,64
41160,note_on,0,0,3,,,,,,,,2,,,67,64
41160,note_on,0,0,2,,,,,,,,1,,,76,64
41160,note_on,0,0,2,,,,,,,,1,,,79,64
41160,note_on,0,0,2,,,,,,,,1,,,72,0
41160,note_on,840,0,2,,,,,,,,1,,,76,0
41160,note_on,0,0,5,,,,,,,,5,,,64,0
41280,note_on,0,0,2,,,,,,,,1,,,79,0
41280,note_on,120,0,2,,,,,,,,1,,,76,0
41280,note_on,0,0,2,,,,,,,,1,,,76,64
41280,note_on,0,0,2,,,,,,,,1,,,79,64
41280,note_on,120,0,4,,,,,,,,3,,,55,0
41280,note_on,0,0,5,,,,,,,,5,,,67,64
41280,note_on,0,0,5,,,,,,,,5,,,64,64
41280,note_on,120,0,3,,,,,,,,2,,,67,0
41280,note_on,0,0,3,,,,,,,,2,,,64,0
41280,note_on,0,0,3,,,,,,,,2,,,67,64
41280,note_on,0,0,3,,,,,,,,2,,,64,64
41280,note_on,0,0,4,,,,,,,,3,,,52,64
41280,note_on,0,0,4,,,,,,,,3,,,55,64
41280,note_on,0,0,4,,,,,,,,3,,,52,0
41280,note_on,0,0,5,,,,,,,,5,,,64,0
41280,note_on,120,0,5,,,,,,,,5,,,67,0
41280,note_on,120,0,1,,,,,,,,0,,,88,0
41280,note_on,0,0,1,,,,,,,,0,,,91,0
41280,note_on,0,0,1,,,,,,,,0,,,91,64
41280,note_on,0,0,1,,,,,,,,0,,,88,64
41520,note_on,708,0,9,,,,,,,,8,,,67,96
41520,note_on,524,0,8,,,,,,,,4,,,79,96
41746,note_on,226,0,8,,,,,,,,4,,,79,0
41748,note_on,1402,0,10,,,,,,,,8,,,60,0
41760,note_on,1404,0,12,,,,,,,,11,,,40,64
41760,note_on,14,0,8,,,,,,,,4,,,78,96
41760,note_on,12,0,10,,,,,,,,8,,,64,96
41760,note_on,1404,0,11,,,,,,,,10,,,52,96
41760,note_on,1188,0,7,,,,,,,,7,,,48,64
41760,note_on,0,0,6,,,,,,,,6,,,67,40
41760,note_on,672,0,6,,,,,,,,6,,,55,40
41760,note_on,240,0,9,,,,,,,,8,,,66,96
41772,note_on,12,0,12,,,,,,,,11,,,36,0
41772,note_on,12,0,11,,,,,,,,10,,,48,0
41808,note_on,48,0,9,,,,,,,,8,,,67,0
41956,note_on,196,0,7,,,,,,,,7,,,48,0
41986,note_on,226,0,8,,,,,,,,4,,,78,0
42000,note_on,192,0,9,,,,,,,,8,,,67,96
42000,note_on,14,0,8,,,,,,,,4,,,79,96
42046,note_on,46,0,9,,,,,,,,8,,,66,0
42226,note_on,466,0,10,,,,,,,,8,,,64,0
42226,note_on,226,0,8,,,,,,,,4,,,79,0
42240,note_on,468,0,12,,,,,,,,11,,,43,64
42240,note_on,194,0,9,,,,,,,,8,,,66,96
42240,note_on,14,0,8,,,,,,,,4,,,78,96
42240,note_on,284,0,7,,,,,,,,7,,,43,64
42240,note_on,468,0,11,,,,,,,,10,,,55,96
42240,note_on,14,0,10,,,,,,,,8,,,67,96
42264,note_on,24,0,11,,,,,,,,10,,,52,0
42264,note_on,24,0,12,,,,,,,,11,,,40,0
42296,note_on,56,0,9,,,,,,,,8,,,67,0
42374,note_on,134,0,7,,,,,,,,7,,,43,0
42466,note_on,226,0,8,,,,,,,,4,,,78,0
42480,note_on,14,0,8,,,,,,,,4,,,79,96
42480,note_on,184,0,9,,,,,,,,8,,,67,96
42494,note_on,14,0,9,,,,,,,,8,,,66,0
42528,note_on,768,0,6,,,,,,,,6,,,67,0
42528,note_on,0,0,6,,,,,,,,6,,,55,0
42706,note_on,226,0,8,,,,,,,,4,,,79,0
42720,note_on,456,0,12,,,,,,,,11,,,43,0
42720,note_on,0,0,2,,,,,,,,1,,,74,64
42720,note_on,0,0,2,,,,,,,,1,,,77,64
42720,note_on,0,0,2,,,,,,,,1,,,79,0
42720,note_on,1440,0,2,,,,,,,,1,,,76,0
42720,note_on,0,0,12,,,,,,,,11,,,31,64
42720,note_on,0,0,1,,,,,,,,0,,,86,64
42720,note_on,0,0,1,,,,,,,,0,,,89,64
42720,note_on,1440,0,1,,,,,,,,0,,,88,0
42720,note_on,192,0,6,,,,,,,,6,,,67,40
42720,note_on,0,0,6,,,,,,,,6,,,55,40
42720,note_on,1440,0,4,,,,,,,,3,,,52,0
42720,note_on,0,0,4,,,,,,,,3,,,55,0
42720,note_on,0,0,4,,,,,,,,3,,,50,64
42720,note_on,0,0,4,,,,,,,,3,,,53,64
42720,note_on,14,0,8,,,,,,,,4,,,81,96
42720,note_on,1440,0,5,,,,,,,,5,,,64,0
42720,note_on,1440,0,3,,,,,,,,2,,,64,0
42720,note_on,0,0,5,,,,,,,,5,,,65,64
42720,note_on,0,0,3,,,,,,,,2,,,65,64
42720,note_on,226,0,9,,,,,,,,8,,,69,96
42720,note_on,0,0,3,,,,,,,,2,,,62,64
42720,note_on,0,0,5,,,,,,,,5,,,67,0
42720,note_on,0,0,3,,,,,,,,2,,,67,0
42720,note_on,456,0,11,,,,,,,,10,,,55,0
42720,note_on,0,0,5,,,,,,,,5,,,62,64
42720,note_on,0,0,11,,,,,,,,10,,,43,96
42720,note_on,346,0,7,,,,,,,,7,,,43,64
42720,note_on,480,0,10,,,,,,,,8,,,55,96
42726,note_on,6,0,1,,,,,,,,0,,,91,0
42742,note_on,22,0,10,,,,,,,,8,,,67,0
42782,note_on,62,0,9,,,,,,,,8,,,67,0
42834,note_on,114,0,7,,,,,,,,7,,,43,0
42946,note_on,226,0,8,,,,,,,,4,,,81,0
42960,note_on,178,0,9,,,,,,,,8,,,71,96
42960,note_on,14,0,8,,,,,,,,4,,,83,96
43016,note_on,56,0,9,,,,,,,,8,,,69,0
43104,note_on,0,0,6,,,,,,,,6,,,67,0
43104,note_on,384,0,6,,,,,,,,6,,,55,0
43174,note_on,454,0,4,,,,,,,,3,,,53,0
43174,note_on,454,0,2,,,,,,,,1,,,77,0
43174,note_on,454,0,5,,,,,,,,5,,,65,0
43174,note_on,454,0,3,,,,,,,,2,,,65,0
43180,note_on,6,0,2,,,,,,,,1,,,74,0
43180,note_on,6,0,3,,,,,,,,2,,,62,0
43180,note_on,6,0,4,,,,,,,,3,,,50,0
43180,note_on,6,0,5,,,,,,,,5,,,62,0
43186,note_on,226,0,8,,,,,,,,4,,,83,0
43188,note_on,446,0,10,,,,,,,,8,,,55,0
43196,note_on,476,0,12,,,,,,,,11,,,31,0
43196,note_on,476,0,11,,,,,,,,10,,,43,0
43200,note_on,96,0,6,,,,,,,,6,,,60,40
43200,note_on,20,0,4,,,,,,,,3,,,52,64
43200,note_on,20,0,3,,,,,,,,2,,,60,64
43200,note_on,0,0,3,,,,,,,,2,,,64,64
43200,note_on,0,0,4,,,,,,,,3,,,48,64
43200,note_on,366,0,7,,,,,,,,7,,,48,64
43200,note_on,12,0,10,,,,,,,,8,,,57,96
43200,note_on,474,0,1,,,,,,,,0,,,84,64
43200,note_on,20,0,5,,,,,,,,5,,,64,64
43200,note_on,0,0,5,,,,,,,,5,,,60,64
43200,note_on,14,0,8,,,,,,,,4,,,84,96
43200,note_on,0,0,2,,,,,,,,1,,,72,64
43200,note_on,20,0,2,,,,,,,,1,,,76,64
43200,note_on,4,0,11,,,,,,,,10,,,45,96
43200,note_on,4,0,12,,,,,,,,11,,,33,64
43200,note_on,184,0,9,,,,,,,,8,,,72,96
43200,note_on,0,0,1,,,,,,,,0,,,88,64
43220,note_on,20,0,1,,,,,,,,0,,,86,0
43240,note_on,40,0,9,,,,,,,,8,,,71,0
43278,note_on,58,0,1,,,,,,,,0,,,89,0
43356,note_on,156,0,7,,,,,,,,7,,,48,0
43576,note_on,336,0,9,,,,,,,,8,,,72,0
43584,note_on,384,0,6,,,,,,,,6,,,60,0
43620,note_on,420,0,2,,,,,,,,1,,,72,0
43620,note_on,420,0,3,,,,,,,,2,,,60,0
43620,note_on,420,0,5,,,,,,,,5,,,60,0
43620,note_on,420,0,4,,,,,,,,3,,,48,0
43650,note_on,450,0,10,,,,,,,,8,,,57,0
43650,note_on,30,0,2,,,,,,,,1,,,76,0
43650,note_on,30,0,3,,,,,,,,2,,,64,0
43650,note_on,30,0,4,,,,,,,,3,,,52,0
43650,note_on,30,0,5,,,,,,,,5,,,64,0
43664,note_on,464,0,12,,,,,,,,11,,,33,0
43664,note_on,464,0,11,,,,,,,,10,,,45,0
43672,note_on,472,0,8,,,,,,,,4,,,84,0
43680,note_on,402,0,1,,,,,,,,0,,,84,0
43702,note_on,22,0,1,,,,,,,,0,,,88,0
44100,control_change,436,0,12,,,,,,,,11,7,80,,
44160,note_on,584,0,9,,,,,,,,8,,,63,96
44160,note_on,0,0,9,,,,,,,,8,,,75,96
44160,note_on,0,0,8,,,,,,,,4,,,81,96
44160,note_on,488,0,8,,,,,,,,4,,,69,96
44160,note_on,510,0,10,,,,,,,,8,,,66,96
44160,note_on,510,0,5,,,,,,,,5,,,48,80
44160,note_on,0,0,5,,,,,,,,5,,,60,80
44160,note_on,60,0,12,,,,,,,,11,,,42,83
44160,note_on,496,0,11,,,,,,,,10,,,54,125
44160,note_on,576,0,6,,,,,,,,6,,,72,80
44160,note_on,0,0,6,,,,,,,,6,,,60,80
44160,note_on,804,0,7,,,,,,,,7,,,48,108
44172,control_change,12,0,8,,,,,,,,4,7,80,,
44208,note_on,48,0,7,,,,,,,,7,,,48,0
44220,note_on,12,0,7,,,,,,,,7,,,48,106
44268,note_on,48,0,7,,,,,,,,7,,,48,0
44280,note_on,12,0,7,,,,,,,,7,,,48,104
44328,note_on,48,0,7,,,,,,,,7,,,48,0
44340,note_on,12,0,7,,,,,,,,7,,,48,102
44388,note_on,48,0,7,,,,,,,,7,,,48,0
44400,note_on,12,0,7,,,,,,,,7,,,48,99
44448,note_on,48,0,7,,,,,,,,7,,,48,0
44460,note_on,12,0,7,,,,,,,,7,,,48,97
44508,note_on,48,0,7,,,,,,,,7,,,48,0
44520,note_on,12,0,7,,,,,,,,7,,,48,95
44568,note_on,48,0,7,,,,,,,,7,,,48,0
44580,note_on,12,0,7,,,,,,,,7,,,48,93
44628,note_on,48,0,7,,,,,,,,7,,,48,0
44640,note_on,12,0,7,,,,,,,,7,,,48,91
44640,control_change,480,0,12,,,,,,,,11,7,75,,
44682,control_change,510,0,8,,,,,,,,4,7,75,,
44688,note_on,48,0,7,,,,,,,,7,,,48,0
44700,note_on,12,0,7,,,,,,,,7,,,48,89
44748,note_on,48,0,7,,,,,,,,7,,,48,0
44760,note_on,12,0,7,,,,,,,,7,,,48,87
44808,note_on,48,0,7,,,,,,,,7,,,48,0
44820,note_on,12,0,7,,,,,,,,7,,,48,85
44868,note_on,48,0,7,,,,,,,,7,,,48,0
44880,note_on,12,0,7,,,,,,,,7,,,48,82
44928,note_on,48,0,7,,,,,,,,7,,,48,0
44940,note_on,0,0,7,,,,,,,,7,,,48,80
44940,note_on,0,0,7,,,,,,,,7,,,48,80
44940,note_on,12,0,7,,,,,,,,7,,,48,80
44988,note_on,48,0,7,,,,,,,,7,,,48,0
44988,note_on,0,0,7,,,,,,,,7,,,48,0
44988,note_on,0,0,7,,,,,,,,7,,,48,0
45000,note_on,12,0,7,,,,,,,,7,,,48,78
45048,note_on,48,0,7,,,,,,,,7,,,48,0
45060,note_on,12,0,7,,,,,,,,7,,,48,76
45090,control_change,450,0,12,,,,,,,,11,7,70,,
45108,note_on,48,0,7,,,,,,,,7,,,48,0
45120,note_on,1470,0,4,,,,,,,,3,,,51,64
45120,note_on,12,0,7,,,,,,,,7,,,48,94
45120,note_on,0,0,3,,,,,,,,2,,,63,64
45120,note_on,0,0,2,,,,,,,,1,,,75,64
45120,note_on,0,0,4,,,,,,,,3,,,48,64
45120,note_on,1470,0,3,,,,,,,,2,,,60,64
45120,note_on,1470,0,2,,,,,,,,1,,,72,64
45120,note_on,1418,0,1,,,,,,,,0,,,84,64
45120,note_on,0,0,1,,,,,,,,0,,,87,64
45120,note_on,960,0,9,,,,,,,,8,,,75,0
45120,note_on,0,0,9,,,,,,,,8,,,60,96
45120,note_on,0,0,9,,,,,,,,8,,,63,0
45132,control_change,450,0,8,,,,,,,,4,7,70,,
45168,note_on,48,0,7,,,,,,,,7,,,48,0
45180,note_on,12,0,7,,,,,,,,7,,,48,72
45228,note_on,48,0,7,,,,,,,,7,,,48,0
45240,note_on,12,0,7,,,,,,,,7,,,48,70
45288,note_on,48,0,7,,,,,,,,7,,,48,0
45300,note_on,12,0,7,,,,,,,,7,,,48,68
45348,note_on,48,0,7,,,,,,,,7,,,48,0
45360,note_on,12,0,7,,,,,,,,7,,,48,65
45360,note_on,0,0,7,,,,,,,,7,,,48,65
45360,note_on,0,0,7,,,,,,,,7,,,48,65
45360,note_on,0,0,7,,,,,,,,7,,,48,65
45408,note_on,0,0,7,,,,,,,,7,,,48,0
45408,note_on,48,0,7,,,,,,,,7,,,48,0
45408,note_on,0,0,7,,,,,,,,7,,,48,0
45408,note_on,0,0,7,,,,,,,,7,,,48,0
45420,note_on,12,0,7,,,,,,,,7,,,48,63
45468,note_on,48,0,7,,,,,,,,7,,,48,0
45480,note_on,12,0,7,,,,,,,,7,,,48,61
45528,note_on,48,0,7,,,,,,,,7,,,48,0
45540,note_on,12,0,7,,,,,,,,7,,,48,59
45588,note_on,48,0,7,,,,,,,,7,,,48,0
45600,control_change,510,0,12,,,,,,,,11,7,65,,
45600,note_on,12,0,7,,,,,,,,7,,,48,57
45612,control_change,480,0,8,,,,,,,,4,7,65,,
45648,note_on,48,0,7,,,,,,,,7,,,48,0
45660,note_on,12,0,7,,,,,,,,7,,,48,55
45696,note_on,1536,0,5,,,,,,,,5,,,60,0
45696,note_on,0,0,5,,,,,,,,5,,,48,0
45696,note_on,1536,0,6,,,,,,,,6,,,60,0
45696,note_on,0,0,6,,,,,,,,6,,,72,0
45708,note_on,48,0,7,,,,,,,,7,,,48,0
45720,note_on,12,0,7,,,,,,,,7,,,48,53
45768,note_on,48,0,7,,,,,,,,7,,,48,0
45780,note_on,12,0,7,,,,,,,,7,,,48,51
45828,note_on,48,0,7,,,,,,,,7,,,48,0
45840,note_on,12,0,7,,,,,,,,7,,,48,48
45888,note_on,48,0,7,,,,,,,,7,,,48,0
45900,note_on,12,0,7,,,,,,,,7,,,48,46
45948,note_on,48,0,7,,,,,,,,7,,,48,0
45960,note_on,0,0,7,,,,,,,,7,,,48,44
45960,note_on,12,0,7,,,,,,,,7,,,48,44
46008,note_on,48,0,7,,,,,,,,7,,,48,0
46008,note_on,0,0,7,,,,,,,,7,,,48,0
46020,note_on,12,0,7,,,,,,,,7,,,48,42
46068,note_on,48,0,7,,,,,,,,7,,,48,0
46080,note_on,384,0,6,,,,,,,,6,,,55,40
46080,note_on,0,0,10,,,,,,,,8,,,67,67
46080,note_on,1920,0,10,,,,,,,,8,,,66,0
46080,note_on,0,0,12,,,,,,,,11,,,43,45
46080,control_change,0,0,12,,,,,,,,11,7,60,,
46080,note_on,480,0,12,,,,,,,,11,,,42,0
46080,note_on,468,0,8,,,,,,,,4,,,81,0
46080,note_on,0,0,8,,,,,,,,4,,,69,0
46080,note_on,0,0,8,,,,,,,,4,,,64,67
46080,note_on,384,0,5,,,,,,,,5,,,55,80
46080,note_on,0,0,5,,,,,,,,5,,,43,80
46080,note_on,960,0,1,,,,,,,,0,,,88,45
46080,note_on,0,0,11,,,,,,,,10,,,55,67
46080,note_on,0,0,6,,,,,,,,6,,,67,40
46080,note_on,960,0,2,,,,,,,,1,,,76,45
46080,note_on,1920,0,11,,,,,,,,10,,,54,0
46080,note_on,960,0,4,,,,,,,,3,,,52,45
46080,note_on,960,0,3,,,,,,,,2,,,64,45
46080,note_on,12,0,7,,,,,,,,7,,,43,64
46110,control_change,30,0,8,,,,,,,,4,7,60,,
46144,note_on,64,0,4,,,,,,,,3,,,51,0
46144,note_on,64,0,3,,,,,,,,2,,,63,0
46144,note_on,64,0,2,,,,,,,,1,,,75,0
46166,note_on,86,0,1,,,,,,,,0,,,87,0
46192,note_on,112,0,7,,,,,,,,7,,,43,0
46192,note_on,112,0,6,,,,,,,,6,,,67,0
46192,note_on,0,0,6,,,,,,,,6,,,55,0
46380,note_on,300,0,12,,,,,,,,11,,,43,0
46380,note_on,300,0,11,,,,,,,,10,,,55,0
46404,note_on,324,0,10,,,,,,,,8,,,67,0
46464,note_on,384,0,5,,,,,,,,5,,,43,0
46464,note_on,0,0,5,,,,,,,,5,,,55,0
46560,note_on,0,0,5,,,,,,,,5,,,60,80
46560,note_on,96,0,5,,,,,,,,5,,,48,80
46730,note_on,620,0,8,,,,,,,,4,,,64,0
46776,note_on,0,0,5,,,,,,,,5,,,48,0
46776,note_on,216,0,5,,,,,,,,5,,,60,0
46920,note_on,144,0,5,,,,,,,,5,,,52,80
46920,note_on,0,0,5,,,,,,,,5,,,64,80
46944,note_on,1824,0,9,,,,,,,,8,,,60,0
46992,note_on,72,0,5,,,,,,,,5,,,64,0
46992,note_on,0,0,5,,,,,,,,5,,,52,0
47040,note_on,636,0,10,,,,,,,,8,,,55,67
47040,note_on,660,0,12,,,,,,,,11,,,31,45
47040,note_on,96,0,9,,,,,,,,8,,,60,67
47040,note_on,48,0,5,,,,,,,,5,,,67,80
47040,note_on,0,0,5,,,,,,,,5,,,55,80
47040,note_on,310,0,8,,,,,,,,4,,,64,67
47040,note_on,660,0,11,,,,,,,,10,,,43,67
47378,note_on,338,0,10,,,,,,,,8,,,55,0
47398,note_on,358,0,12,,,,,,,,11,,,31,0
47398,note_on,358,0,11,,,,,,,,10,,,43,0
47424,note_on,0,0,5,,,,,,,,5,,,67,0
47424,note_on,384,0,5,,,,,,,,5,,,55,0
47520,note_on,0,0,5,,,,,,,,5,,,43,80
47520,note_on,96,0,5,,,,,,,,5,,,55,80
47520,note_on,1328,0,7,,,,,,,,7,,,43,64
47642,note_on,122,0,7,,,,,,,,7,,,43,0
47904,note_on,0,0,5,,,,,,,,5,,,55,0
47904,note_on,384,0,5,,,,,,,,5,,,43,0
48000,note_on,960,0,8,,,,,,,,4,,,65,67
48000,note_on,0,0,3,,,,,,,,2,,,65,45
48000,note_on,0,0,2,,,,,,,,1,,,74,45
48000,note_on,960,0,9,,,,,,,,8,,,60,0
48000,note_on,0,0,9,,,,,,,,8,,,62,67
48000,note_on,622,0,10,,,,,,,,8,,,55,67
48000,note_on,0,0,2,,,,,,,,1,,,77,45
48000,note_on,1856,0,2,,,,,,,,1,,,76,0
48000,note_on,0,0,4,,,,,,,,3,,,53,45
48000,note_on,0,0,3,,,,,,,,2,,,62,45
48000,note_on,602,0,11,,,,,,,,10,,,43,67
48000,note_on,1834,0,1,,,,,,,,0,,,86,45
48000,note_on,96,0,5,,,,,,,,5,,,55,80
48000,note_on,0,0,1,,,,,,,,0,,,89,45
48000,note_on,0,0,4,,,,,,,,3,,,50,45
48000,note_on,0,0,5,,,,,,,,5,,,43,80
48000,note_on,1856,0,4,,,,,,,,3,,,52,0
48000,note_on,358,0,7,,,,,,,,7,,,43,64
48000,note_on,1856,0,3,,,,,,,,2,,,64,0
48000,note_on,602,0,12,,,,,,,,11,,,31,45
48042,note_on,42,0,3,,,,,,,,2,,,60,0
48042,note_on,42,0,4,,,,,,,,3,,,48,0
48042,note_on,42,0,1,,,,,,,,0,,,84,0
48042,note_on,42,0,2,,,,,,,,1,,,72,0
48052,note_on,10,0,1,,,,,,,,0,,,88,0
48066,note_on,66,0,8,,,,,,,,4,,,64,0
48112,note_on,112,0,7,,,,,,,,7,,,43,0
48284,note_on,284,0,10,,,,,,,,8,,,55,0
48340,note_on,340,0,11,,,,,,,,10,,,43,0
48340,note_on,340,0,12,,,,,,,,11,,,31,0
48384,note_on,384,0,5,,,,,,,,5,,,43,0
48384,note_on,0,0,5,,,,,,,,5,,,55,0
48480,note_on,368,0,7,,,,,,,,7,,,43,64
48480,note_on,0,0,5,,,,,,,,5,,,55,80
48480,note_on,96,0,5,,,,,,,,5,,,43,80
48592,note_on,112,0,7,,,,,,,,7,,,43,0
48720,note_on,0,0,2,,,,,,,,1,,,71,45
48720,note_on,0,0,2,,,,,,,,1,,,74,45
48720,note_on,0,0,1,,,,,,,,0,,,86,45
48720,note_on,0,0,1,,,,,,,,0,,,83,45
48720,note_on,0,0,1,,,,,,,,0,,,89,0
48720,note_on,668,0,1,,,,,,,,0,,,86,0
48720,note_on,678,0,4,,,,,,,,3,,,53,0
48720,note_on,0,0,2,,,,,,,,1,,,77,0
48720,note_on,0,0,4,,,,,,,,3,,,50,0
48720,note_on,0,0,4,,,,,,,,3,,,47,45
48720,note_on,0,0,3,,,,,,,,2,,,59,45
48720,note_on,0,0,3,,,,,,,,2,,,62,45
48720,note_on,0,0,3,,,,,,,,2,,,62,0
48720,note_on,678,0,3,,,,,,,,2,,,65,0
48720,note_on,0,0,4,,,,,,,,3,,,50,45
48720,note_on,678,0,2,,,,,,,,1,,,74,0
48782,note_on,716,0,8,,,,,,,,4,,,65,0
48864,note_on,0,0,5,,,,,,,,5,,,43,0
48864,note_on,384,0,5,,,,,,,,5,,,55,0
48876,note_on,876,0,9,,,,,,,,8,,,62,0
48960,control_change,0,0,10,,,,,,,,8,7,100,,
48960,note_on,96,0,5,,,,,,,,5,,,48,60
48960,note_on,0,0,5,,,,,,,,5,,,60,60
48960,note_on,0,0,4,,,,,,,,3,,,52,60
48960,note_on,0,0,4,,,,,,,,3,,,48,60
48960,note_on,0,0,4,,,,,,,,3,,,50,0
48960,note_on,178,0,8,,,,,,,,4,,,60,100
48960,note_on,240,0,3,,,,,,,,2,,,59,0
48960,control_change,0,0,12,,,,,,,,11,7,100,,
48960,time_signature,34560,1,0,4,8,12,8,,,,,,,,
48960,note_on,0,0,3,,,,,,,,2,,,62,0
48960,note_on,368,0,7,,,,,,,,7,,,48,60
48960,note_on,620,0,12,,,,,,,,11,,,36,53
48960,note_on,676,0,10,,,,,,,,8,,,52,79
48960,control_change,0,0,11,,,,,,,,10,7,100,,
48960,note_on,0,0,3,,,,,,,,2,,,60,60
48960,note_on,240,0,1,,,,,,,,0,,,86,0
48960,control_change,0,0,1,,,,,,,,0,7,90,,
48960,note_on,0,0,1,,,,,,,,0,,,84,60
48960,note_on,0,0,1,,,,,,,,0,,,83,0
48960,note_on,84,0,9,,,,,,,,8,,,55,79
48960,note_on,620,0,11,,,,,,,,10,,,48,79
48960,set_tempo,0,1,0,,,,,,394737,,,,,,
48960,note_on,240,0,2,,,,,,,,1,,,71,0
48960,note_on,0,0,2,,,,,,,,1,,,74,0
48960,note_on,0,0,2,,,,,,,,1,,,72,60
48960,control_change,0,0,2,,,,,,,,1,7,90,,
48960,control_change,0,0,9,,,,,,,,8,7,100,,
48960,note_on,240,0,4,,,,,,,,3,,,47,0
49032,note_on,72,0,8,,,,,,,,4,,,60,0
49062,note_on,102,0,12,,,,,,,,11,,,36,0
49062,note_on,102,0,11,,,,,,,,10,,,48,0
49080,note_on,120,0,9,,,,,,,,8,,,55,0
49080,note_on,48,0,8,,,,,,,,4,,,55,100
49080,note_on,120,0,10,,,,,,,,8,,,52,0
49152,note_on,72,0,8,,,,,,,,4,,,55,0
49186,note_on,226,0,4,,,,,,,,3,,,52,0
49186,note_on,226,0,1,,,,,,,,0,,,84,0
49186,note_on,226,0,5,,,,,,,,5,,,60,0
49186,note_on,0,0,5,,,,,,,,5,,,48,0
49186,note_on,226,0,7,,,,,,,,7,,,48,0
49186,note_on,226,0,3,,,,,,,,2,,,60,0
49186,note_on,0,0,4,,,,,,,,3,,,48,0
49186,note_on,226,0,2,,,,,,,,1,,,72,0
49200,note_on,48,0,8,,,,,,,,4,,,57,100
49272,note_on,72,0,8,,,,,,,,4,,,57,0
49320,note_on,48,0,8,,,,,,,,4,,,59,100
49392,note_on,72,0,8,,,,,,,,4,,,59,0
49440,note_on,48,0,8,,,,,,,,4,,,60,100
49512,note_on,72,0,8,,,,,,,,4,,,60,0
49560,note_on,0,0,8,,,,,,,,4,,,62,100
49560,control_change,48,0,8,,,,,,,,4,7,80,,
49632,note_on,72,0,8,,,,,,,,4,,,62,0
49680,note_on,48,0,8,,,,,,,,4,,,64,100
49752,note_on,72,0,8,,,,,,,,4,,,64,0
49800,note_on,48,0,8,,,,,,,,4,,,62,100
49872,note_on,72,0,8,,,,,,,,4,,,62,0
49920,note_on,48,0,8,,,,,,,,4,,,60,100
49920,note_on,858,0,12,,,,,,,,11,,,36,53
49920,note_on,858,0,11,,,,,,,,10,,,48,79
49920,note_on,840,0,9,,,,,,,,8,,,55,79
49920,note_on,840,0,10,,,,,,,,8,,,52,79
49992,note_on,72,0,8,,,,,,,,4,,,60,0
50016,note_on,96,0,9,,,,,,,,8,,,55,0
50030,note_on,110,0,11,,,,,,,,10,,,48,0
50030,note_on,110,0,12,,,,,,,,11,,,36,0
50040,note_on,48,0,8,,,,,,,,4,,,55,100
50040,note_on,120,0,10,,,,,,,,8,,,52,0
50112,note_on,72,0,8,,,,,,,,4,,,55,0
50160,note_on,48,0,8,,,,,,,,4,,,57,100
50232,note_on,72,0,8,,,,,,,,4,,,57,0
50280,note_on,48,0,8,,,,,,,,4,,,59,100
50352,note_on,72,0,8,,,,,,,,4,,,59,0
50400,note_on,48,0,8,,,,,,,,4,,,60,100
50472,note_on,72,0,8,,,,,,,,4,,,60,0
50520,note_on,48,0,8,,,,,,,,4,,,62,100
50592,note_on,72,0,8,,,,,,,,4,,,62,0
50640,note_on,48,0,8,,,,,,,,4,,,64,100
50712,note_on,72,0,8,,,,,,,,4,,,64,0
50760,note_on,48,0,8,,,,,,,,4,,,62,100
50832,note_on,72,0,8,,,,,,,,4,,,62,0
50880,note_on,850,0,11,,,,,,,,10,,,48,79
50880,note_on,850,0,12,,,,,,,,11,,,36,53
50880,note_on,840,0,10,,,,,,,,8,,,52,79
50880,note_on,48,0,8,,,,,,,,4,,,60,100
50880,note_on,864,0,9,,,,,,,,8,,,55,79
50952,note_on,72,0,8,,,,,,,,4,,,60,0
50960,note_on,80,0,9,,,,,,,,8,,,55,0
50974,note_on,94,0,12,,,,,,,,11,,,36,0
50974,note_on,94,0,11,,,,,,,,10,,,48,0
51000,note_on,120,0,10,,,,,,,,8,,,52,0
51000,note_on,48,0,8,,,,,,,,4,,,55,100
51072,note_on,72,0,8,,,,,,,,4,,,55,0
51120,note_on,48,0,8,,,,,,,,4,,,57,100
51192,note_on,72,0,8,,,,,,,,4,,,57,0
51240,note_on,48,0,8,,,,,,,,4,,,59,100
51312,note_on,72,0,8,,,,,,,,4,,,59,0
51360,note_on,48,0,8,,,,,,,,4,,,60,100
51360,note_on,360,0,10,,,,,,,,8,,,52,79
51360,note_on,386,0,12,,,,,,,,11,,,36,53
51360,note_on,400,0,9,,,,,,,,8,,,55,79
51360,note_on,386,0,11,,,,,,,,10,,,48,79
51432,note_on,72,0,8,,,,,,,,4,,,60,0
51456,note_on,96,0,9,,,,,,,,8,,,55,0
51460,note_on,100,0,11,,,,,,,,10,,,48,0
51460,note_on,100,0,12,,,,,,,,11,,,36,0
51480,note_on,48,0,8,,,,,,,,4,,,62,100
51480,note_on,120,0,10,,,,,,,,8,,,52,0
51552,note_on,72,0,8,,,,,,,,4,,,62,0
51600,note_on,48,0,8,,,,,,,,4,,,64,100
51672,note_on,72,0,8,,,,,,,,4,,,64,0
51720,note_on,48,0,8,,,,,,,,4,,,65,100
51792,note_on,72,0,8,,,,,,,,4,,,65,0
51840,note_on,48,0,8,,,,,,,,4,,,67,100
51840,note_on,380,0,11,,,,,,,,10,,,48,79
51840,note_on,360,0,10,,,,,,,,8,,,52,83
51840,note_on,384,0,9,,,,,,,,8,,,55,79
51840,note_on,380,0,12,,,,,,,,11,,,36,53
51912,note_on,72,0,8,,,,,,,,4,,,67,0
51934,note_on,94,0,11,,,,,,,,10,,,48,0
51934,note_on,94,0,12,,,,,,,,11,,,36,0
51936,note_on,96,0,9,,,,,,,,8,,,55,0
51960,note_on,48,0,8,,,,,,,,4,,,66,100
51960,note_on,120,0,10,,,,,,,,8,,,52,0
52032,note_on,72,0,8,,,,,,,,4,,,66,0
52080,note_on,48,0,8,,,,,,,,4,,,69,100
52152,note_on,72,0,8,,,,,,,,4,,,69,0
52200,note_on,48,0,8,,,,,,,,4,,,67,100
52272,note_on,72,0,8,,,,,,,,4,,,67,0
52320,note_on,48,0,8,,,,,,,,4,,,65,100
52392,note_on,72,0,8,,,,,,,,4,,,65,0
52440,note_on,48,0,8,,,,,,,,4,,,64,100
52512,note_on,72,0,8,,,,,,,,4,,,64,0
52560,note_on,48,0,8,,,,,,,,4,,,62,100
52632,note_on,72,0,8,,,,,,,,4,,,62,0
52680,note_on,48,0,8,,,,,,,,4,,,60,100
52752,note_on,72,0,8,,,,,,,,4,,,60,0
52800,note_on,866,0,11,,,,,,,,10,,,48,79
52800,note_on,864,0,9,,,,,,,,8,,,57,79
52800,note_on,48,0,8,,,,,,,,4,,,62,100
52800,note_on,866,0,12,,,,,,,,11,,,36,53
52800,note_on,840,0,10,,,,,,,,8,,,53,79
52872,note_on,72,0,8,,,,,,,,4,,,62,0
52890,note_on,90,0,9,,,,,,,,8,,,57,0
52890,note_on,90,0,10,,,,,,,,8,,,53,0
52896,note_on,96,0,12,,,,,,,,11,,,36,0
52896,note_on,96,0,11,,,,,,,,10,,,48,0
52920,note_on,48,0,8,,,,,,,,4,,,57,100
52992,note_on,72,0,8,,,,,,,,4,,,57,0
53040,note_on,48,0,8,,,,,,,,4,,,59,100
53112,note_on,72,0,8,,,,,,,,4,,,59,0
53160,note_on,48,0,8,,,,,,,,4,,,61,100
53232,note_on,72,0,8,,,,,,,,4,,,61,0
53280,note_on,48,0,8,,,,,,,,4,,,62,100
53352,note_on,72,0,8,,,,,,,,4,,,62,0
53400,note_on,48,0,8,,,,,,,,4,,,64,100
53472,note_on,72,0,8,,,,,,,,4,,,64,0
53520,note_on,48,0,8,,,,,,,,4,,,65,100
53592,note_on,72,0,8,,,,,,,,4,,,65,0
53640,note_on,48,0,8,,,,,,,,4,,,64,100
53712,note_on,72,0,8,,,,,,,,4,,,64,0
53760,note_on,870,0,10,,,,,,,,8,,,53,79
53760,note_on,864,0,11,,,,,,,,10,,,48,79
53760,note_on,864,0,12,,,,,,,,11,,,36,53
53760,note_on,870,0,9,,,,,,,,8,,,62,79
53760,note_on,48,0,8,,,,,,,,4,,,62,100
53760,note_on,0,0,9,,,,,,,,8,,,57,79
53832,note_on,72,0,8,,,,,,,,4,,,62,0
53854,note_on,94,0,12,,,,,,,,11,,,36,0
53854,note_on,94,0,11,,,,,,,,10,,,48,0
53860,note_on,100,0,10,,,,,,,,8,,,53,0
53860,note_on,0,0,9,,,,,,,,8,,,62,0
53860,note_on,100,0,9,,,,,,,,8,,,57,0
53880,note_on,48,0,8,,,,,,,,4,,,57,100
53952,note_on,72,0,8,,,,,,,,4,,,57,0
54000,note_on,48,0,8,,,,,,,,4,,,59,100
54072,note_on,72,0,8,,,,,,,,4,,,59,0
54120,note_on,48,0,8,,,,,,,,4,,,61,100
54192,note_on,72,0,8,,,,,,,,4,,,61,0
54240,note_on,48,0,8,,,,,,,,4,,,62,100
54312,note_on,72,0,8,,,,,,,,4,,,62,0
54360,note_on,48,0,8,,,,,,,,4,,,64,100
54432,note_on,72,0,8,,,,,,,,4,,,64,0
54480,note_on,48,0,8,,,,,,,,4,,,65,100
54552,note_on,72,0,8,,,,,,,,4,,,65,0
54600,note_on,48,0,8,,,,,,,,4,,,64,100
54672,note_on,72,0,8,,,,,,,,4,,,64,0
54720,note_on,866,0,11,,,,,,,,10,,,47,79
54720,note_on,860,0,9,,,,,,,,8,,,55,79
54720,note_on,866,0,12,,,,,,,,11,,,35,53
54720,note_on,0,0,9,,,,,,,,8,,,62,79
54720,note_on,860,0,10,,,,,,,,8,,,53,79
54720,note_on,48,0,8,,,,,,,,4,,,62,100
54792,note_on,72,0,8,,,,,,,,4,,,62,0
54806,note_on,86,0,11,,,,,,,,10,,,47,0
54806,note_on,86,0,12,,,,,,,,11,,,35,0
54812,note_on,92,0,10,,,,,,,,8,,,53,0
54812,note_on,0,0,9,,,,,,,,8,,,55,0
54812,note_on,92,0,9,,,,,,,,8,,,62,0
54840,note_on,48,0,8,,,,,,,,4,,,62,100
54912,note_on,72,0,8,,,,,,,,4,,,62,0
54960,note_on,48,0,8,,,,,,,,4,,,64,100
55032,note_on,72,0,8,,,,,,,,4,,,64,0
55080,note_on,48,0,8,,,,,,,,4,,,65,100
55152,note_on,72,0,8,,,,,,,,4,,,65,0
55200,note_on,0,0,9,,,,,,,,8,,,55,79
55200,note_on,388,0,9,,,,,,,,8,,,62,79
55200,note_on,394,0,11,,,,,,,,10,,,47,79
55200,note_on,388,0,10,,,,,,,,8,,,53,79
55200,note_on,394,0,12,,,,,,,,11,,,35,53
55200,note_on,48,0,8,,,,,,,,4,,,67,100
55272,note_on,72,0,8,,,,,,,,4,,,67,0
55284,note_on,84,0,11,,,,,,,,10,,,47,0
55284,note_on,84,0,12,,,,,,,,11,,,35,0
55286,note_on,0,0,9,,,,,,,,8,,,62,0
55286,note_on,86,0,9,,,,,,,,8,,,55,0
55286,note_on,86,0,10,,,,,,,,8,,,53,0
55320,note_on,48,0,8,,,,,,,,4,,,69,100
55392,note_on,72,0,8,,,,,,,,4,,,69,0
55440,note_on,48,0,8,,,,,,,,4,,,71,100
55512,note_on,72,0,8,,,,,,,,4,,,71,0
55560,note_on,48,0,8,,,,,,,,4,,,72,100
55632,note_on,72,0,8,,,,,,,,4,,,72,0
55680,note_on,0,0,9,,,,,,,,8,,,55,79
55680,note_on,394,0,9,,,,,,,,8,,,62,79
55680,note_on,394,0,10,,,,,,,,8,,,53,79
55680,note_on,396,0,12,,,,,,,,11,,,35,53
55680,note_on,396,0,11,,,,,,,,10,,,47,79
55680,note_on,48,0,8,,,,,,,,4,,,74,100
55752,note_on,72,0,8,,,,,,,,4,,,74,0
55766,end_of_track,0,1,9,,,,,,,,,,,,
55766,note_on,86,0,11,,,,,,,,10,,,47,0
55766,note_on,0,0,9,,,,,,,,8,,,62,0
55766,note_on,86,0,9,,,,,,,,8,,,55,0
55766,note_on,86,0,10,,,,,,,,8,,,53,0
55766,note_on,86,0,12,,,,,,,,11,,,35,0
55800,note_on,48,0,8,,,,,,,,4,,,76,100
55872,note_on,72,0,8,,,,,,,,4,,,76,0
55920,note_on,48,0,8,,,,,,,,4,,,74,100
55992,note_on,72,0,8,,,,,,,,4,,,74,0
56040,note_on,48,0,8,,,,,,,,4,,,72,100
56112,note_on,72,0,8,,,,,,,,4,,,72,0
56160,note_on,48,0,8,,,,,,,,4,,,71,100
56232,note_on,72,0,8,,,,,,,,4,,,71,0
56280,note_on,48,0,8,,,,,,,,4,,,69,100
56352,note_on,72,0,8,,,,,,,,4,,,69,0
56400,note_on,48,0,8,,,,,,,,4,,,67,100
56472,note_on,72,0,8,,,,,,,,4,,,67,0
56520,note_on,48,0,8,,,,,,,,4,,,65,100
56592,note_on,72,0,8,,,,,,,,4,,,65,0
56640,note_on,48,0,8,,,,,,,,4,,,64,96
56640,note_on,874,0,11,,,,,,,,10,,,48,79
56640,note_on,874,0,10,,,,,,,,8,,,60,79
56640,note_on,874,0,12,,,,,,,,11,,,36,53
56640,note_on,0,0,8,,,,,,,,4,,,55,96
56714,note_on,74,0,10,,,,,,,,8,,,60,0
56716,note_on,76,0,12,,,,,,,,11,,,36,0
56716,note_on,76,0,11,,,,,,,,10,,,48,0
56724,note_on,84,0,8,,,,,,,,4,,,64,0
56730,note_on,6,0,8,,,,,,,,4,,,55,0
56760,note_on,30,0,8,,,,,,,,4,,,76,96
56844,note_on,84,0,8,,,,,,,,4,,,76,0
56880,note_on,164,0,12,,,,,,,,11,,,48,53
56880,note_on,164,0,11,,,,,,,,10,,,60,79
56880,note_on,166,0,10,,,,,,,,8,,,60,79
56880,note_on,36,0,8,,,,,,,,4,,,60,96
56880,note_on,0,0,8,,,,,,,,4,,,74,96
56964,note_on,84,0,8,,,,,,,,4,,,74,0
57000,note_on,36,0,8,,,,,,,,4,,,72,96
57084,note_on,84,0,8,,,,,,,,4,,,72,0
57120,note_on,36,0,8,,,,,,,,4,,,71,96
57204,note_on,84,0,8,,,,,,,,4,,,71,0
57240,note_on,36,0,8,,,,,,,,4,,,69,96
57294,note_on,414,0,10,,,,,,,,8,,,60,0
57302,note_on,62,0,8,,,,,,,,4,,,60,0
57324,note_on,22,0,8,,,,,,,,4,,,69,0
57360,note_on,480,0,12,,,,,,,,11,,,47,53
57360,note_on,0,0,8,,,,,,,,4,,,59,96
57360,note_on,66,0,10,,,,,,,,8,,,59,79
57360,note_on,480,0,11,,,,,,,,10,,,59,79
57360,note_on,36,0,8,,,,,,,,4,,,67,96
57392,note_on,32,0,11,,,,,,,,10,,,60,0
57392,note_on,32,0,12,,,,,,,,11,,,48,0
57442,note_on,82,0,10,,,,,,,,8,,,59,0
57444,note_on,52,0,12,,,,,,,,11,,,47,0
57444,note_on,52,0,11,,,,,,,,10,,,59,0
57444,note_on,84,0,8,,,,,,,,4,,,67,0
57450,note_on,6,0,8,,,,,,,,4,,,59,0
57480,note_on,30,0,8,,,,,,,,4,,,65,96
57564,note_on,84,0,8,,,,,,,,4,,,65,0
57600,note_on,156,0,11,,,,,,,,10,,,60,79
57600,note_on,158,0,10,,,,,,,,8,,,60,79
57600,note_on,0,0,8,,,,,,,,4,,,64,96
57600,note_on,36,0,8,,,,,,,,4,,,60,96
57600,note_on,156,0,12,,,,,,,,11,,,48,53
57674,note_on,74,0,10,,,,,,,,8,,,60,0
57680,note_on,80,0,8,,,,,,,,4,,,60,0
57682,note_on,82,0,11,,,,,,,,10,,,60,0
57682,note_on,82,0,12,,,,,,,,11,,,48,0
57684,note_on,4,0,8,,,,,,,,4,,,64,0
57720,note_on,36,0,8,,,,,,,,4,,,76,96
57804,note_on,84,0,8,,,,,,,,4,,,76,0
57840,note_on,158,0,12,,,,,,,,11,,,48,53
57840,note_on,158,0,11,,,,,,,,10,,,60,79
57840,note_on,166,0,10,,,,,,,,8,,,60,79
57840,note_on,36,0,8,,,,,,,,4,,,74,96
57840,note_on,0,0,8,,,,,,,,4,,,60,96
57924,note_on,84,0,8,,,,,,,,4,,,74,0
57960,note_on,36,0,8,,,,,,,,4,,,72,96
58034,note_on,74,0,8,,,,,,,,4,,,60,0
58044,note_on,10,0,8,,,,,,,,4,,,72,0
58080,note_on,36,0,8,,,,,,,,4,,,71,96
58164,note_on,84,0,8,,,,,,,,4,,,71,0
58182,note_on,342,0,10,,,,,,,,8,,,60,0
58200,note_on,36,0,8,,,,,,,,4,,,69,96
58244,note_on,404,0,12,,,,,,,,11,,,48,0
58244,note_on,404,0,11,,,,,,,,10,,,60,0
58284,note_on,84,0,8,,,,,,,,4,,,69,0
58320,note_on,36,0,8,,,,,,,,4,,,67,96
58320,note_on,76,0,11,,,,,,,,10,,,59,79
58320,note_on,0,0,8,,,,,,,,4,,,59,96
58320,note_on,76,0,12,,,,,,,,11,,,47,53
58320,note_on,138,0,10,,,,,,,,8,,,59,79
58390,note_on,70,0,11,,,,,,,,10,,,59,0
58390,note_on,70,0,12,,,,,,,,11,,,47,0
58404,note_on,84,0,8,,,,,,,,4,,,67,0
58406,note_on,86,0,10,,,,,,,,8,,,59,0
58414,note_on,10,0,8,,,,,,,,4,,,59,0
58440,note_on,26,0,8,,,,,,,,4,,,65,96
58524,note_on,84,0,8,,,,,,,,4,,,65,0
58560,note_on,170,0,11,,,,,,,,10,,,60,79
58560,note_on,170,0,12,,,,,,,,11,,,48,53
58560,note_on,154,0,10,,,,,,,,8,,,60,79
58560,note_on,36,0,8,,,,,,,,4,,,60,96
58560,note_on,0,0,8,,,,,,,,4,,,64,96
58632,note_on,72,0,11,,,,,,,,10,,,60,0
58632,note_on,72,0,12,,,,,,,,11,,,48,0
58634,note_on,74,0,8,,,,,,,,4,,,60,0
58640,note_on,80,0,10,,,,,,,,8,,,60,0
58644,note_on,10,0,8,,,,,,,,4,,,64,0
58680,note_on,36,0,8,,,,,,,,4,,,65,96
58764,note_on,84,0,8,,,,,,,,4,,,65,0
58800,note_on,160,0,10,,,,,,,,8,,,59,79
58800,note_on,0,0,8,,,,,,,,4,,,59,96
58800,note_on,168,0,12,,,,,,,,11,,,47,53
58800,note_on,36,0,8,,,,,,,,4,,,67,96
58800,note_on,168,0,11,,,,,,,,10,,,59,79
58870,note_on,70,0,12,,,,,,,,11,,,47,0
58870,note_on,70,0,11,,,,,,,,10,,,59,0
58884,note_on,0,0,8,,,,,,,,4,,,67,0
58884,note_on,84,0,8,,,,,,,,4,,,59,0
58886,note_on,86,0,10,,,,,,,,8,,,59,0
58920,note_on,36,0,8,,,,,,,,4,,,64,96
59004,note_on,84,0,8,,,,,,,,4,,,64,0
59040,note_on,154,0,10,,,,,,,,8,,,57,79
59040,note_on,170,0,12,,,,,,,,11,,,45,53
59040,note_on,36,0,8,,,,,,,,4,,,57,96
59040,note_on,0,0,8,,,,,,,,4,,,66,96
59040,note_on,170,0,11,,,,,,,,10,,,57,79
59120,note_on,80,0,8,,,,,,,,4,,,57,0
59124,note_on,4,0,8,,,,,,,,4,,,66,0
59126,note_on,86,0,11,,,,,,,,10,,,57,0
59126,note_on,86,0,10,,,,,,,,8,,,57,0
59126,note_on,86,0,12,,,,,,,,11,,,45,0
59160,note_on,36,0,8,,,,,,,,4,,,67,96
59244,note_on,84,0,8,,,,,,,,4,,,67,0
59280,note_on,154,0,11,,,,,,,,10,,,62,79
59280,note_on,154,0,10,,,,,,,,8,,,62,79
59280,note_on,154,0,12,,,,,,,,11,,,50,53
59280,note_on,36,0,8,,,,,,,,4,,,62,96
59280,note_on,0,0,8,,,,,,,,4,,,69,96
59346,note_on,66,0,11,,,,,,,,10,,,62,0
59346,note_on,66,0,12,,,,,,,,11,,,50,0
59360,note_on,80,0,8,,,,,,,,4,,,62,0
59364,note_on,4,0,8,,,,,,,,4,,,69,0
59370,note_on,90,0,10,,,,,,,,8,,,62,0
59400,note_on,36,0,8,,,,,,,,4,,,66,96
59484,note_on,84,0,8,,,,,,,,4,,,66,0
59520,note_on,174,0,11,,,,,,,,10,,,55,79
59520,note_on,174,0,12,,,,,,,,11,,,43,53
59520,note_on,36,0,8,,,,,,,,4,,,67,96
59520,note_on,0,0,8,,,,,,,,4,,,55,96
59520,note_on,150,0,10,,,,,,,,8,,,55,79
59594,note_on,74,0,11,,,,,,,,10,,,55,0
59594,note_on,74,0,12,,,,,,,,11,,,43,0
59604,note_on,84,0,8,,,,,,,,4,,,67,0
59606,note_on,2,0,8,,,,,,,,4,,,55,0
59612,note_on,92,0,10,,,,,,,,8,,,55,0
59640,note_on,34,0,8,,,,,,,,4,,,69,96
59724,note_on,84,0,8,,,,,,,,4,,,69,0
59760,note_on,36,0,8,,,,,,,,4,,,65,96
59844,note_on,84,0,8,,,,,,,,4,,,65,0
59880,note_on,36,0,8,,,,,,,,4,,,67,96
59964,note_on,84,0,8,,,,,,,,4,,,67,0
60000,note_on,36,0,8,,,,,,,,4,,,64,96
60084,note_on,84,0,8,,,,,,,,4,,,64,0
60120,note_on,36,0,8,,,,,,,,4,,,65,96
60204,note_on,84,0,8,,,,,,,,4,,,65,0
60240,note_on,36,0,8,,,,,,,,4,,,62,96
60324,note_on,84,0,8,,,,,,,,4,,,62,0
60360,note_on,36,0,8,,,,,,,,4,,,64,96
60444,note_on,84,0,8,,,,,,,,4,,,64,0
60480,control_change,36,0,8,,,,,,,,4,7,127,,
60480,note_on,0,0,8,,,,,,,,4,,,60,127
60480,note_on,0,0,1,,,,,,,,0,,,79,64
60480,note_on,11294,0,1,,,,,,,,0,,,84,64
60480,note_on,886,0,11,,,,,,,,10,,,48,96
60480,note_on,11294,0,3,,,,,,,,2,,,67,64
60480,note_on,0,0,3,,,,,,,,2,,,64,64
60480,note_on,886,0,12,,,,,,,,11,,,36,64
60480,note_on,11294,0,5,,,,,,,,5,,,60,64
60480,note_on,0,0,4,,,,,,,,3,,,52,64
60480,note_on,11294,0,4,,,,,,,,3,,,48,64
60480,note_on,11294,0,2,,,,,,,,1,,,76,64
60480,note_on,0,0,2,,,,,,,,1,,,72,64
60480,note_on,0,0,6,,,,,,,,6,,,72,64
60480,note_on,14288,0,6,,,,,,,,6,,,60,64
60480,note_on,11294,0,7,,,,,,,,7,,,48,64
60480,note_on,868,0,10,,,,,,,,8,,,52,96
60480,note_on,0,0,10,,,,,,,,8,,,55,96
60552,note_on,72,0,8,,,,,,,,4,,,60,0
60554,note_on,74,0,10,,,,,,,,8,,,55,0
60572,note_on,92,0,11,,,,,,,,10,,,48,0
60572,note_on,92,0,12,,,,,,,,11,,,36,0
60574,note_on,94,0,6,,,,,,,,6,,,72,0
60574,note_on,94,0,7,,,,,,,,7,,,48,0
60574,note_on,0,0,6,,,,,,,,6,,,60,0
60600,note_on,46,0,10,,,,,,,,8,,,52,96
60600,note_on,48,0,8,,,,,,,,4,,,67,127
60600,note_on,28,0,12,,,,,,,,11,,,36,64
60600,note_on,28,0,11,,,,,,,,10,,,48,96
60600,note_on,0,0,10,,,,,,,,8,,,55,96
60670,note_on,70,0,10,,,,,,,,8,,,55,0
60672,note_on,72,0,8,,,,,,,,4,,,67,0
60674,note_on,4,0,10,,,,,,,,8,,,52,0
60696,note_on,96,0,12,,,,,,,,11,,,36,0
60696,note_on,96,0,11,,,,,,,,10,,,48,0
60720,note_on,24,0,11,,,,,,,,10,,,48,96
60720,note_on,24,0,12,,,,,,,,11,,,36,64
60720,note_on,48,0,8,,,,,,,,4,,,57,127
60720,note_on,0,0,10,,,,,,,,8,,,55,96
60720,note_on,0,0,8,,,,,,,,4,,,69,127
60720,note_on,46,0,10,,,,,,,,8,,,52,96
60792,note_on,72,0,8,,,,,,,,4,,,69,0
60792,note_on,0,0,8,,,,,,,,4,,,57,0
60794,note_on,0,0,10,,,,,,,,8,,,52,0
60794,note_on,74,0,10,,,,,,,,8,,,55,0
60812,note_on,92,0,12,,,,,,,,11,,,36,0
60812,note_on,92,0,11,,,,,,,,10,,,48,0
60840,note_on,28,0,12,,,,,,,,11,,,36,64
60840,note_on,46,0,10,,,,,,,,8,,,55,96
60840,note_on,0,0,10,,,,,,,,8,,,52,96
60840,note_on,48,0,8,,,,,,,,4,,,59,127
60840,note_on,28,0,11,,,,,,,,10,,,48,96
60840,note_on,0,0,8,,,,,,,,4,,,71,127
60910,note_on,70,0,10,,,,,,,,8,,,52,0
60912,note_on,0,0,8,,,,,,,,4,,,59,0
60912,note_on,72,0,8,,,,,,,,4,,,71,0
60914,note_on,4,0,10,,,,,,,,8,,,55,0
60932,note_on,92,0,11,,,,,,,,10,,,48,0
60932,note_on,92,0,12,,,,,,,,11,,,36,0
60960,note_on,0,0,8,,,,,,,,4,,,72,127
60960,note_on,48,0,8,,,,,,,,4,,,60,127
60960,note_on,28,0,11,,,,,,,,10,,,48,96
60960,note_on,28,0,12,,,,,,,,11,,,36,64
60960,note_on,0,0,10,,,,,,,,8,,,55,96
60960,note_on,46,0,10,,,,,,,,8,,,52,96
61030,note_on,70,0,10,,,,,,,,8,,,52,0
61032,note_on,0,0,8,,,,,,,,4,,,60,0
61032,note_on,72,0,8,,,,,,,,4,,,72,0
61034,note_on,4,0,10,,,,,,,,8,,,55,0
61052,note_on,92,0,11,,,,,,,,10,,,48,0
61052,note_on,92,0,12,,,,,,,,11,,,36,0
61080,note_on,0,0,8,,,,,,,,4,,,62,127
61080,note_on,0,0,8,,,,,,,,4,,,74,127
61080,control_change,48,0,8,,,,,,,,4,7,120,,
61080,note_on,46,0,10,,,,,,,,8,,,52,96
61080,note_on,0,0,10,,,,,,,,8,,,55,96
61080,note_on,28,0,11,,,,,,,,10,,,48,96
61080,note_on,28,0,12,,,,,,,,11,,,36,64
61152,note_on,72,0,10,,,,,,,,8,,,55,0
61152,note_on,72,0,8,,,,,,,,4,,,74,0
61152,note_on,0,0,8,,,,,,,,4,,,62,0
61152,note_on,0,0,10,,,,,,,,8,,,52,0
61166,note_on,86,0,11,,,,,,,,10,,,48,0
61166,note_on,86,0,12,,,,,,,,11,,,36,0
61200,note_on,34,0,12,,,,,,,,11,,,36,64
61200,note_on,48,0,10,,,,,,,,8,,,52,96
61200,note_on,0,0,8,,,,,,,,4,,,76,127
61200,note_on,0,0,10,,,,,,,,8,,,55,96
61200,note_on,34,0,11,,,,,,,,10,,,48,96
61200,note_on,48,0,8,,,,,,,,4,,,64,127
61272,note_on,0,0,8,,,,,,,,4,,,64,0
61272,note_on,72,0,8,,,,,,,,4,,,76,0
61274,note_on,0,0,10,,,,,,,,8,,,52,0
61274,note_on,74,0,10,,,,,,,,8,,,55,0
61290,note_on,90,0,11,,,,,,,,10,,,48,0
61290,note_on,90,0,12,,,,,,,,11,,,36,0
61320,note_on,0,0,8,,,,,,,,4,,,74,127
61320,note_on,46,0,10,,,,,,,,8,,,55,96
61320,note_on,0,0,10,,,,,,,,8,,,52,96
61320,note_on,30,0,11,,,,,,,,10,,,48,96
61320,note_on,30,0,12,,,,,,,,11,,,36,64
61320,note_on,48,0,8,,,,,,,,4,,,62,127
61392,note_on,72,0,8,,,,,,,,4,,,74,0
61392,note_on,0,0,8,,,,,,,,4,,,62,0
61392,note_on,72,0,10,,,,,,,,8,,,52,0
61396,note_on,4,0,10,,,,,,,,8,,,55,0
61412,note_on,92,0,12,,,,,,,,11,,,36,0
61412,note_on,92,0,11,,,,,,,,10,,,48,0
61440,note_on,0,0,10,,,,,,,,8,,,52,96
61440,note_on,48,0,8,,,,,,,,4,,,72,127
61440,note_on,0,0,8,,,,,,,,4,,,60,127
61440,note_on,866,0,6,,,,,,,,6,,,60,64
61440,note_on,0,0,6,,,,,,,,6,,,72,64
61440,note_on,866,0,7,,,,,,,,7,,,48,64
61440,note_on,44,0,10,,,,,,,,8,,,55,96
61440,note_on,28,0,12,,,,,,,,11,,,36,64
61440,note_on,28,0,11,,,,,,,,10,,,48,96
61512,note_on,0,0,8,,,,,,,,4,,,72,0
61512,note_on,72,0,8,,,,,,,,4,,,60,0
61514,note_on,74,0,10,,,,,,,,8,,,52,0
61516,note_on,2,0,10,,,,,,,,8,,,55,0
61534,note_on,94,0,11,,,,,,,,10,,,48,0
61534,note_on,94,0,12,,,,,,,,11,,,36,0
61536,note_on,96,0,7,,,,,,,,7,,,48,0
61536,note_on,0,0,6,,,,,,,,6,,,60,0
61536,note_on,96,0,6,,,,,,,,6,,,72,0
61560,note_on,44,0,10,,,,,,,,8,,,52,96
61560,note_on,0,0,10,,,,,,,,8,,,55,96
61560,note_on,26,0,12,,,,,,,,11,,,36,64
61560,note_on,26,0,11,,,,,,,,10,,,48,96
61560,note_on,0,0,8,,,,,,,,4,,,67,127
61560,note_on,48,0,8,,,,,,,,4,,,55,127
61632,note_on,72,0,8,,,,,,,,4,,,67,0
61632,note_on,0,0,8,,,,,,,,4,,,55,0
61640,note_on,80,0,10,,,,,,,,8,,,55,0
61640,note_on,0,0,10,,,,,,,,8,,,52,0
61652,note_on,92,0,11,,,,,,,,10,,,48,0
61652,note_on,92,0,12,,,,,,,,11,,,36,0
61680,note_on,0,0,8,,,,,,,,4,,,69,127
61680,note_on,48,0,8,,,,,,,,4,,,57,127
61680,note_on,40,0,10,,,,,,,,8,,,52,96
61680,note_on,0,0,10,,,,,,,,8,,,55,96
61680,note_on,28,0,11,,,,,,,,10,,,48,96
61680,note_on,28,0,12,,,,,,,,11,,,36,64
61752,note_on,72,0,8,,,,,,,,4,,,69,0
61752,note_on,0,0,8,,,,,,,,4,,,57,0
61754,note_on,74,0,10,,,,,,,,8,,,55,0
61760,note_on,6,0,10,,,,,,,,8,,,52,0
61766,note_on,86,0,11,,,,,,,,10,,,48,0
61766,note_on,86,0,12,,,,,,,,11,,,36,0
61800,note_on,48,0,8,,,,,,,,4,,,59,127
61800,note_on,34,0,12,,,,,,,,11,,,36,64
61800,note_on,0,0,10,,,,,,,,8,,,55,96
61800,note_on,0,0,8,,,,,,,,4,,,71,127
61800,note_on,34,0,11,,,,,,,,10,,,48,96
61800,note_on,40,0,10,,,,,,,,8,,,52,96
61872,note_on,72,0,8,,,,,,,,4,,,71,0
61872,note_on,0,0,8,,,,,,,,4,,,59,0
61880,note_on,80,0,10,,,,,,,,8,,,55,0
61880,note_on,0,0,10,,,,,,,,8,,,52,0
61884,note_on,84,0,11,,,,,,,,10,,,48,0
61884,note_on,84,0,12,,,,,,,,11,,,36,0
61920,note_on,0,0,10,,,,,,,,8,,,52,96
61920,note_on,36,0,12,,,,,,,,11,,,36,64
61920,note_on,40,0,10,,,,,,,,8,,,55,96
61920,note_on,0,0,8,,,,,,,,4,,,60,127
61920,note_on,48,0,8,,,,,,,,4,,,72,127
61920,note_on,36,0,11,,,,,,,,10,,,48,96
61992,note_on,72,0,8,,,,,,,,4,,,60,0
61992,note_on,0,0,8,,,,,,,,4,,,72,0
61994,note_on,0,0,10,,,,,,,,8,,,52,0
61994,note_on,74,0,10,,,,,,,,8,,,55,0
62010,note_on,90,0,12,,,,,,,,11,,,36,0
62010,note_on,90,0,11,,,,,,,,10,,,48,0
62040,note_on,30,0,12,,,,,,,,11,,,36,64
62040,note_on,0,0,8,,,,,,,,4,,,74,127
62040,note_on,0,0,10,,,,,,,,8,,,52,96
62040,note_on,48,0,8,,,,,,,,4,,,62,127
62040,note_on,30,0,11,,,,,,,,10,,,48,96
62040,note_on,46,0,10,,,,,,,,8,,,55,96
62110,note_on,70,0,10,,,,,,,,8,,,52,0
62112,note_on,72,0,8,,,,,,,,4,,,74,0
62112,note_on,0,0,8,,,,,,,,4,,,62,0
62120,note_on,10,0,10,,,,,,,,8,,,55,0
62126,note_on,86,0,11,,,,,,,,10,,,48,0
62126,note_on,86,0,12,,,,,,,,11,,,36,0
62160,note_on,48,0,8,,,,,,,,4,,,64,127
62160,note_on,34,0,12,,,,,,,,11,,,36,64
62160,note_on,40,0,10,,,,,,,,8,,,52,96
62160,note_on,0,0,10,,,,,,,,8,,,55,96
62160,note_on,34,0,11,,,,,,,,10,,,48,96
62160,note_on,0,0,8,,,,,,,,4,,,76,127
62232,note_on,72,0,8,,,,,,,,4,,,76,0
62232,note_on,0,0,8,,,,,,,,4,,,64,0
62234,note_on,74,0,10,,,,,,,,8,,,55,0
62236,note_on,2,0,10,,,,,,,,8,,,52,0
62244,note_on,84,0,11,,,,,,,,10,,,48,0
62244,note_on,84,0,12,,,,,,,,11,,,36,0
62280,note_on,36,0,11,,,,,,,,10,,,48,96
62280,note_on,0,0,8,,,,,,,,4,,,74,127
62280,note_on,44,0,10,,,,,,,,8,,,52,96
62280,note_on,0,0,10,,,,,,,,8,,,55,96
62280,note_on,36,0,12,,,,,,,,11,,,36,64
62280,note_on,48,0,8,,,,,,,,4,,,62,127
62352,note_on,72,0,8,,,,,,,,4,,,74,0
62352,note_on,0,0,8,,,,,,,,4,,,62,0
62356,note_on,76,0,10,,,,,,,,8,,,55,0
62356,note_on,0,0,10,,,,,,,,8,,,52,0
62364,note_on,84,0,12,,,,,,,,11,,,36,0
62364,note_on,84,0,11,,,,,,,,10,,,48,0
62400,note_on,36,0,11,,,,,,,,10,,,48,96
62400,note_on,864,0,7,,,,,,,,7,,,48,64
62400,note_on,48,0,8,,,,,,,,4,,,72,127
62400,note_on,36,0,12,,,,,,,,11,,,36,64
62400,note_on,0,0,6,,,,,,,,6,,,72,64
62400,note_on,864,0,6,,,,,,,,6,,,60,64
62400,note_on,0,0,10,,,,,,,,8,,,52,96
62400,note_on,44,0,10,,,,,,,,8,,,55,96
62400,note_on,0,0,8,,,,,,,,4,,,60,127
62422,note_on,1942,0,3,,,,,,,,2,,,64,0
62422,note_on,0,0,3,,,,,,,,2,,,67,0
62446,note_on,1966,0,1,,,,,,,,0,,,79,0
62454,note_on,1974,0,2,,,,,,,,1,,,72,0
62454,note_on,0,0,2,,,,,,,,1,,,76,0
62466,note_on,20,0,1,,,,,,,,0,,,84,0
62472,note_on,72,0,8,,,,,,,,4,,,60,0
62472,note_on,0,0,8,,,,,,,,4,,,72,0
62472,note_on,72,0,10,,,,,,,,8,,,55,0
62474,note_on,1994,0,5,,,,,,,,5,,,60,0
62480,note_on,8,0,10,,,,,,,,8,,,52,0
62482,note_on,82,0,12,,,,,,,,11,,,36,0
62482,note_on,82,0,11,,,,,,,,10,,,48,0
62494,note_on,2014,0,4,,,,,,,,3,,,52,0
62496,note_on,0,0,6,,,,,,,,6,,,60,0
62496,note_on,96,0,7,,,,,,,,7,,,48,0
62496,note_on,96,0,6,,,,,,,,6,,,72,0
62500,note_on,6,0,4,,,,,,,,3,,,48,0
62520,note_on,40,0,10,,,,,,,,8,,,55,96
62520,note_on,0,0,10,,,,,,,,8,,,52,96
62520,note_on,38,0,12,,,,,,,,11,,,36,64
62520,note_on,48,0,8,,,,,,,,4,,,55,127
62520,note_on,38,0,11,,,,,,,,10,,,48,96
62520,note_on,0,0,8,,,,,,,,4,,,67,127
62592,note_on,0,0,8,,,,,,,,4,,,55,0
62592,note_on,72,0,8,,,,,,,,4,,,67,0
62592,note_on,72,0,10,,,,,,,,8,,,55,0
62596,note_on,4,0,10,,,,,,,,8,,,52,0
62606,note_on,86,0,12,,,,,,,,11,,,36,0
62606,note_on,86,0,11,,,,,,,,10,,,48,0
62640,note_on,34,0,11,,,,,,,,10,,,48,96
62640,note_on,0,0,10,,,,,,,,8,,,52,96
62640,note_on,44,0,10,,,,,,,,8,,,55,96
62640,note_on,0,0,8,,,,,,,,4,,,69,127
62640,note_on,48,0,8,,,,,,,,4,,,57,127
62640,note_on,34,0,12,,,,,,,,11,,,36,64
62712,note_on,72,0,8,,,,,,,,4,,,69,0
62712,note_on,72,0,10,,,,,,,,8,,,52,0
62712,note_on,0,0,8,,,,,,,,4,,,57,0
62716,note_on,4,0,10,,,,,,,,8,,,55,0
62726,note_on,86,0,11,,,,,,,,10,,,48,0
62726,note_on,86,0,12,,,,,,,,11,,,36,0
62760,note_on,48,0,8,,,,,,,,4,,,59,127
62760,note_on,34,0,12,,,,,,,,11,,,36,64
62760,note_on,34,0,11,,,,,,,,10,,,48,96
62760,note_on,0,0,10,,,,,,,,8,,,55,96
62760,note_on,44,0,10,,,,,,,,8,,,52,96
62760,note_on,0,0,8,,,,,,,,4,,,71,127
62832,note_on,72,0,8,,,,,,,,4,,,71,0
62832,note_on,0,0,8,,,,,,,,4,,,59,0
62834,note_on,74,0,10,,,,,,,,8,,,55,0
62834,note_on,0,0,10,,,,,,,,8,,,52,0
62842,note_on,82,0,12,,,,,,,,11,,,36,0
62842,note_on,82,0,11,,,,,,,,10,,,48,0
62880,note_on,406,0,5,,,,,,,,5,,,60,64
62880,note_on,0,0,6,,,,,,,,6,,,60,64
62880,note_on,380,0,4,,,,,,,,3,,,48,64
62880,note_on,384,0,7,,,,,,,,7,,,48,64
62880,note_on,0,0,4,,,,,,,,3,,,52,64
62880,note_on,384,0,6,,,,,,,,6,,,72,64
62880,note_on,0,0,3,,,,,,,,2,,,67,64
62880,note_on,458,0,3,,,,,,,,2,,,64,64
62880,note_on,48,0,8,,,,,,,,4,,,72,127
62880,note_on,0,0,8,,,,,,,,4,,,60,127
62880,note_on,0,0,1,,,,,,,,0,,,79,64
62880,note_on,38,0,12,,,,,,,,11,,,36,64
62880,note_on,0,0,2,,,,,,,,1,,,76,64
62880,note_on,426,0,2,,,,,,,,1,,,72,64
62880,note_on,414,0,1,,,,,,,,0,,,84,64
62880,note_on,38,0,11,,,,,,,,10,,,48,96
62880,note_on,46,0,10,,,,,,,,8,,,55,96
62880,note_on,0,0,10,,,,,,,,8,,,52,96
62934,note_on,54,0,5,,,,,,,,5,,,60,0
62944,note_on,64,0,2,,,,,,,,1,,,72,0
62950,note_on,70,0,3,,,,,,,,2,,,64,0
62950,note_on,70,0,1,,,,,,,,0,,,84,0
62950,note_on,70,0,10,,,,,,,,8,,,55,0
62952,note_on,72,0,8,,,,,,,,4,,,60,0
62952,note_on,0,0,8,,,,,,,,4,,,72,0
62954,note_on,4,0,3,,,,,,,,2,,,67,0
62954,note_on,4,0,10,,,,,,,,8,,,52,0
62960,note_on,16,0,2,,,,,,,,1,,,76,0
62960,note_on,80,0,12,,,,,,,,11,,,36,0
62960,note_on,80,0,11,,,,,,,,10,,,48,0
62962,note_on,12,0,1,,,,,,,,0,,,79,0
62972,note_on,92,0,4,,,,,,,,3,,,48,0
62976,note_on,96,0,7,,,,,,,,7,,,48,0
62976,note_on,0,0,6,,,,,,,,6,,,72,0
62976,note_on,96,0,6,,,,,,,,6,,,60,0
62986,note_on,14,0,4,,,,,,,,3,,,52,0
63000,note_on,0,0,10,,,,,,,,8,,,52,96
63000,note_on,46,0,10,,,,,,,,8,,,55,96
63000,note_on,40,0,11,,,,,,,,10,,,48,96
63000,note_on,48,0,8,,,,,,,,4,,,62,127
63000,note_on,40,0,12,,,,,,,,11,,,36,64
63000,note_on,0,0,8,,,,,,,,4,,,74,127
63072,note_on,0,0,8,,,,,,,,4,,,62,0
63072,note_on,72,0,8,,,,,,,,4,,,74,0
63076,note_on,76,0,10,,,,,,,,8,,,55,0
63076,note_on,0,0,10,,,,,,,,8,,,52,0
63084,note_on,84,0,11,,,,,,,,10,,,48,0
63084,note_on,84,0,12,,,,,,,,11,,,36,0
63120,note_on,44,0,10,,,,,,,,8,,,55,96
63120,note_on,0,0,10,,,,,,,,8,,,52,96
63120,note_on,36,0,12,,,,,,,,11,,,36,64
63120,note_on,48,0,8,,,,,,,,4,,,76,127
63120,note_on,0,0,8,,,,,,,,4,,,64,127
63120,note_on,36,0,11,,,,,,,,10,,,48,96
63192,note_on,72,0,8,,,,,,,,4,,,64,0
63192,note_on,0,0,8,,,,,,,,4,,,76,0
63194,note_on,74,0,10,,,,,,,,8,,,55,0
63194,note_on,0,0,10,,,,,,,,8,,,52,0
63210,note_on,90,0,11,,,,,,,,10,,,48,0
63210,note_on,90,0,12,,,,,,,,11,,,36,0
63240,note_on,30,0,11,,,,,,,,10,,,48,96
63240,note_on,48,0,8,,,,,,,,4,,,65,127
63240,note_on,30,0,12,,,,,,,,11,,,36,64
63240,note_on,46,0,10,,,,,,,,8,,,52,96
63240,note_on,0,0,8,,,,,,,,4,,,77,127
63240,note_on,0,0,10,,,,,,,,8,,,55,96
63312,note_on,0,0,8,,,,,,,,4,,,65,0
63312,note_on,72,0,8,,,,,,,,4,,,77,0
63320,note_on,80,0,10,,,,,,,,8,,,55,0
63320,note_on,0,0,10,,,,,,,,8,,,52,0
63330,note_on,90,0,12,,,,,,,,11,,,36,0
63330,note_on,90,0,11,,,,,,,,10,,,48,0
63360,note_on,426,0,5,,,,,,,,5,,,60,64
63360,note_on,0,0,2,,,,,,,,1,,,76,64
63360,note_on,30,0,11,,,,,,,,10,,,48,96
63360,note_on,0,0,8,,,,,,,,4,,,67,127
63360,note_on,48,0,8,,,,,,,,4,,,79,127
63360,note_on,384,0,7,,,,,,,,7,,,48,64
63360,note_on,400,0,2,,,,,,,,1,,,72,64
63360,note_on,384,0,6,,,,,,,,6,,,60,64
63360,note_on,0,0,10,,,,,,,,8,,,55,96
63360,note_on,0,0,3,,,,,,,,2,,,64,64
63360,note_on,40,0,10,,,,,,,,8,,,52,96
63360,note_on,406,0,3,,,,,,,,2,,,67,64
63360,note_on,0,0,6,,,,,,,,6,,,72,64
63360,note_on,30,0,12,,,,,,,,11,,,36,64
63360,note_on,374,0,4,,,,,,,,3,,,52,64
63360,note_on,0,0,1,,,,,,,,0,,,79,64
63360,note_on,398,0,1,,,,,,,,0,,,84,64
63360,note_on,0,0,4,,,,,,,,3,,,48,64
63414,note_on,54,0,5,,,,,,,,5,,,60,0
63424,note_on,64,0,3,,,,,,,,2,,,64,0
63432,note_on,72,0,2,,,,,,,,1,,,72,0
63432,note_on,72,0,8,,,,,,,,4,,,67,0
63432,note_on,0,0,8,,,,,,,,4,,,79,0
63434,note_on,2,0,2,,,,,,,,1,,,76,0
63434,note_on,10,0,3,,,,,,,,2,,,67,0
63440,note_on,0,0,10,,,,,,,,8,,,52,0
63440,note_on,80,0,1,,,,,,,,0,,,79,0
63440,note_on,0,0,6,,,,,,,,6,,,60,0
63440,note_on,80,0,6,,,,,,,,6,,,72,0
63440,note_on,80,0,7,,,,,,,,7,,,48,0
63440,note_on,80,0,10,,,,,,,,8,,,55,0
63442,note_on,2,0,1,,,,,,,,0,,,84,0
63442,note_on,82,0,4,,,,,,,,3,,,48,0
63450,note_on,90,0,12,,,,,,,,11,,,36,0
63450,note_on,90,0,11,,,,,,,,10,,,48,0
63456,note_on,14,0,4,,,,,,,,3,,,52,0
63480,note_on,30,0,11,,,,,,,,10,,,48,96
63480,note_on,30,0,12,,,,,,,,11,,,36,64
63480,note_on,40,0,10,,,,,,,,8,,,55,96
63480,note_on,0,0,10,,,,,,,,8,,,52,96
63480,note_on,48,0,8,,,,,,,,4,,,78,127
63480,note_on,0,0,8,,,,,,,,4,,,66,127
63552,note_on,72,0,8,,,,,,,,4,,,66,0
63552,note_on,0,0,8,,,,,,,,4,,,78,0
63560,note_on,80,0,10,,,,,,,,8,,,52,0
63562,note_on,82,0,11,,,,,,,,10,,,48,0
63562,note_on,82,0,12,,,,,,,,11,,,36,0
63562,note_on,2,0,10,,,,,,,,8,,,55,0
63600,note_on,0,0,8,,,,,,,,4,,,81,127
63600,note_on,0,0,10,,,,,,,,8,,,55,96
63600,note_on,38,0,10,,,,,,,,8,,,52,96
63600,note_on,48,0,8,,,,,,,,4,,,69,127
63600,note_on,38,0,12,,,,,,,,11,,,36,64
63600,note_on,38,0,11,,,,,,,,10,,,48,96
63672,note_on,72,0,8,,,,,,,,4,,,81,0
63672,note_on,0,0,8,,,,,,,,4,,,69,0
63674,note_on,74,0,10,,,,,,,,8,,,55,0
63680,note_on,6,0,10,,,,,,,,8,,,52,0
63684,note_on,84,0,11,,,,,,,,10,,,48,0
63684,note_on,84,0,12,,,,,,,,11,,,36,0
63720,note_on,36,0,11,,,,,,,,10,,,48,96
63720,note_on,36,0,12,,,,,,,,11,,,36,64
63720,note_on,48,0,8,,,,,,,,4,,,67,127
63720,note_on,40,0,10,,,,,,,,8,,,55,96
63720,note_on,0,0,10,,,,,,,,8,,,52,96
63720,note_on,0,0,8,,,,,,,,4,,,79,127
63792,note_on,72,0,8,,,,,,,,4,,,79,0
63792,note_on,0,0,8,,,,,,,,4,,,67,0
63792,note_on,72,0,10,,,,,,,,8,,,52,0
63796,note_on,4,0,10,,,,,,,,8,,,55,0
63800,note_on,80,0,11,,,,,,,,10,,,48,0
63800,note_on,80,0,12,,,,,,,,11,,,36,0
63840,note_on,0,0,8,,,,,,,,4,,,77,127
63840,note_on,40,0,11,,,,,,,,10,,,48,96
63840,note_on,40,0,12,,,,,,,,11,,,36,64
63840,note_on,0,0,10,,,,,,,,8,,,52,96
63840,note_on,44,0,10,,,,,,,,8,,,55,96
63840,note_on,48,0,8,,,,,,,,4,,,65,127
63912,note_on,72,0,8,,,,,,,,4,,,77,0
63912,note_on,0,0,8,,,,,,,,4,,,65,0
63914,note_on,0,0,10,,,,,,,,8,,,52,0
63914,note_on,74,0,10,,,,,,,,8,,,55,0
63924,note_on,84,0,12,,,,,,,,11,,,36,0
63924,note_on,84,0,11,,,,,,,,10,,,48,0
63960,note_on,0,0,10,,,,,,,,8,,,55,96
63960,note_on,48,0,8,,,,,,,,4,,,76,127
63960,note_on,0,0,8,,,,,,,,4,,,64,127
63960,note_on,36,0,11,,,,,,,,10,,,48,96
63960,note_on,36,0,12,,,,,,,,11,,,36,64
63960,note_on,46,0,10,,,,,,,,8,,,52,96
64030,note_on,70,0,10,,,,,,,,8,,,55,0
64032,note_on,0,0,8,,,,,,,,4,,,76,0
64032,note_on,72,0,8,,,,,,,,4,,,64,0
64034,note_on,4,0,10,,,,,,,,8,,,52,0
64044,note_on,84,0,11,,,,,,,,10,,,48,0
64044,note_on,84,0,12,,,,,,,,11,,,36,0
64080,note_on,36,0,11,,,,,,,,10,,,48,96
64080,note_on,46,0,10,,,,,,,,8,,,55,96
64080,note_on,0,0,10,,,,,,,,8,,,52,96
64080,note_on,0,0,8,,,,,,,,4,,,74,127
64080,note_on,48,0,8,,,,,,,,4,,,62,127
64080,note_on,36,0,12,,,,,,,,11,,,36,64
64146,note_on,66,0,10,,,,,,,,8,,,52,0
64152,note_on,0,0,8,,,,,,,,4,,,62,0
64152,note_on,72,0,8,,,,,,,,4,,,74,0
64156,note_on,10,0,10,,,,,,,,8,,,55,0
64170,note_on,90,0,11,,,,,,,,10,,,48,0
64170,note_on,90,0,12,,,,,,,,11,,,36,0
64200,note_on,30,0,12,,,,,,,,11,,,36,64
64200,note_on,0,0,10,,,,,,,,8,,,55,96
64200,note_on,30,0,11,,,,,,,,10,,,48,96
64200,note_on,48,0,8,,,,,,,,4,,,72,127
64200,note_on,0,0,8,,,,,,,,4,,,60,127
64200,note_on,44,0,10,,,,,,,,8,,,52,96
64272,note_on,72,0,8,,,,,,,,4,,,60,0
64272,note_on,0,0,8,,,,,,,,4,,,72,0
64274,note_on,0,0,10,,,,,,,,8,,,52,0
64274,note_on,74,0,10,,,,,,,,8,,,55,0
64284,note_on,84,0,12,,,,,,,,11,,,36,0
64284,note_on,84,0,11,,,,,,,,10,,,48,0
64320,note_on,0,0,10,,,,,,,,8,,,57,96
64320,note_on,36,0,12,,,,,,,,11,,,36,64
64320,note_on,864,0,4,,,,,,,,3,,,53,64
64320,note_on,0,0,4,,,,,,,,3,,,48,64
64320,note_on,880,0,7,,,,,,,,7,,,48,64
64320,note_on,906,0,5,,,,,,,,5,,,62,64
64320,note_on,0,0,1,,,,,,,,0,,,81,64
64320,note_on,878,0,1,,,,,,,,0,,,86,64
64320,note_on,36,0,11,,,,,,,,10,,,48,96
64320,note_on,0,0,6,,,,,,,,6,,,72,64
64320,note_on,886,0,2,,,,,,,,1,,,69,64
64320,note_on,886,0,3,,,,,,,,2,,,69,64
64320,note_on,46,0,10,,,,,,,,8,,,53,96
64320,note_on,0,0,2,,,,,,,,1,,,77,64
64320,note_on,880,0,6,,,,,,,,6,,,60,64
64320,note_on,0,0,3,,,,,,,,2,,,65,64
64320,note_on,48,0,8,,,,,,,,4,,,74,127
64320,note_on,0,0,8,,,,,,,,4,,,62,127
64394,note_on,0,0,10,,,,,,,,8,,,53,0
64394,note_on,74,0,10,,,,,,,,8,,,57,0
64400,note_on,80,0,8,,,,,,,,4,,,62,0
64404,note_on,84,0,11,,,,,,,,10,,,48,0
64404,note_on,84,0,12,,,,,,,,11,,,36,0
64404,note_on,4,0,8,,,,,,,,4,,,74,0
64412,note_on,92,0,6,,,,,,,,6,,,72,0
64412,note_on,0,0,6,,,,,,,,6,,,60,0
64412,note_on,92,0,7,,,,,,,,7,,,48,0
64440,note_on,36,0,12,,,,,,,,11,,,36,64
64440,note_on,36,0,11,,,,,,,,10,,,48,96
64440,note_on,36,0,8,,,,,,,,4,,,69,127
64440,note_on,0,0,8,,,,,,,,4,,,57,127
64440,note_on,0,0,10,,,,,,,,8,,,53,96
64440,note_on,46,0,10,,,,,,,,8,,,57,96
64506,note_on,66,0,10,,,,,,,,8,,,53,0
64520,note_on,14,0,10,,,,,,,,8,,,57,0
64524,note_on,84,0,12,,,,,,,,11,,,36,0
64524,note_on,0,0,8,,,,,,,,4,,,69,0
64524,note_on,84,0,8,,,,,,,,4,,,57,0
64524,note_on,84,0,11,,,,,,,,10,,,48,0
64560,note_on,36,0,12,,,,,,,,11,,,36,64
64560,note_on,0,0,8,,,,,,,,4,,,71,127
64560,note_on,36,0,8,,,,,,,,4,,,59,127
64560,note_on,0,0,10,,,,,,,,8,,,57,96
64560,note_on,36,0,11,,,,,,,,10,,,48,96
64560,note_on,40,0,10,,,,,,,,8,,,53,96
64634,note_on,0,0,10,,,,,,,,8,,,53,0
64634,note_on,74,0,10,,,,,,,,8,,,57,0
64640,note_on,80,0,12,,,,,,,,11,,,36,0
64640,note_on,80,0,11,,,,,,,,10,,,48,0
64642,note_on,82,0,8,,,,,,,,4,,,59,0
64644,note_on,2,0,8,,,,,,,,4,,,71,0
64680,note_on,0,0,8,,,,,,,,4,,,73,127
64680,note_on,36,0,8,,,,,,,,4,,,61,127
64680,note_on,46,0,10,,,,,,,,8,,,53,96
64680,note_on,40,0,11,,,,,,,,10,,,48,96
64680,note_on,40,0,12,,,,,,,,11,,,36,64
64680,note_on,0,0,10,,,,,,,,8,,,57,96
64754,note_on,0,0,10,,,,,,,,8,,,53,0
64754,note_on,74,0,10,,,,,,,,8,,,57,0
64760,note_on,80,0,8,,,,,,,,4,,,61,0
64764,note_on,4,0,8,,,,,,,,4,,,73,0
64766,note_on,86,0,11,,,,,,,,10,,,48,0
64766,note_on,86,0,12,,,,,,,,11,,,36,0
64800,note_on,0,0,10,,,,,,,,8,,,53,96
64800,note_on,36,0,8,,,,,,,,4,,,74,127
64800,note_on,0,0,8,,,,,,,,4,,,62,127
64800,note_on,34,0,11,,,,,,,,10,,,48,96
64800,note_on,46,0,10,,,,,,,,8,,,57,96
64800,note_on,34,0,12,,,,,,,,11,,,36,64
64872,note_on,0,0,10,,,,,,,,8,,,57,0
64872,note_on,72,0,10,,,,,,,,8,,,53,0
64880,note_on,80,0,11,,,,,,,,10,,,48,0
64880,note_on,80,0,12,,,,,,,,11,,,36,0
64884,note_on,84,0,8,,,,,,,,4,,,74,0
64896,note_on,12,0,8,,,,,,,,4,,,62,0
64920,note_on,48,0,10,,,,,,,,8,,,57,96
64920,note_on,40,0,11,,,,,,,,10,,,48,96
64920,note_on,0,0,8,,,,,,,,4,,,76,127
64920,note_on,24,0,8,,,,,,,,4,,,64,127
64920,note_on,0,0,10,,,,,,,,8,,,53,96
64920,note_on,40,0,12,,,,,,,,11,,,36,64
64990,note_on,70,0,10,,,,,,,,8,,,53,0
64994,note_on,74,0,11,,,,,,,,10,,,48,0
64994,note_on,74,0,12,,,,,,,,11,,,36,0
64996,note_on,6,0,10,,,,,,,,8,,,57,0
65004,note_on,0,0,8,,,,,,,,4,,,64,0
65004,note_on,84,0,8,,,,,,,,4,,,76,0
65040,note_on,0,0,10,,,,,,,,8,,,53,96
65040,note_on,46,0,12,,,,,,,,11,,,36,64
65040,note_on,46,0,11,,,,,,,,10,,,48,96
65040,note_on,0,0,8,,,,,,,,4,,,77,127
65040,note_on,36,0,8,,,,,,,,4,,,65,127
65040,note_on,44,0,10,,,,,,,,8,,,57,96
65112,note_on,72,0,10,,,,,,,,8,,,53,0
65114,note_on,2,0,10,,,,,,,,8,,,57,0
65116,note_on,76,0,11,,,,,,,,10,,,48,0
65116,note_on,76,0,12,,,,,,,,11,,,36,0
65124,note_on,0,0,8,,,,,,,,4,,,65,0
65124,note_on,84,0,8,,,,,,,,4,,,77,0
65160,note_on,44,0,11,,,,,,,,10,,,48,96
65160,note_on,44,0,12,,,,,,,,11,,,36,64
65160,note_on,0,0,10,,,,,,,,8,,,57,96
65160,note_on,36,0,8,,,,,,,,4,,,64,127
65160,note_on,0,0,8,,,,,,,,4,,,76,127
65160,note_on,46,0,10,,,,,,,,8,,,53,96
65234,note_on,0,0,10,,,,,,,,8,,,53,0
65234,note_on,74,0,10,,,,,,,,8,,,57,0
65236,note_on,76,0,8,,,,,,,,4,,,64,0
65244,note_on,8,0,8,,,,,,,,4,,,76,0
65244,note_on,84,0,12,,,,,,,,11,,,36,0
65244,note_on,84,0,11,,,,,,,,10,,,48,0
65280,note_on,0,0,6,,,,,,,,6,,,72,64
65280,note_on,0,0,8,,,,,,,,4,,,62,127
65280,note_on,36,0,8,,,,,,,,4,,,74,127
65280,note_on,0,0,10,,,,,,,,8,,,53,96
65280,note_on,36,0,12,,,,,,,,11,,,36,64
65280,note_on,868,0,6,,,,,,,,6,,,60,64
65280,note_on,868,0,7,,,,,,,,7,,,48,64
65280,note_on,36,0,11,,,,,,,,10,,,48,96
65280,note_on,46,0,10,,,,,,,,8,,,57,96
65354,note_on,74,0,10,,,,,,,,8,,,53,0
65360,note_on,6,0,10,,,,,,,,8,,,57,0
65364,note_on,84,0,11,,,,,,,,10,,,48,0
65364,note_on,84,0,8,,,,,,,,4,,,62,0
65364,note_on,0,0,8,,,,,,,,4,,,74,0
65364,note_on,84,0,12,,,,,,,,11,,,36,0
65374,note_on,0,0,6,,,,,,,,6,,,60,0
65374,note_on,94,0,6,,,,,,,,6,,,72,0
65374,note_on,94,0,7,,,,,,,,7,,,48,0
65400,note_on,40,0,10,,,,,,,,8,,,57,96
65400,note_on,36,0,11,,,,,,,,10,,,48,96
65400,note_on,36,0,12,,,,,,,,11,,,36,64
65400,note_on,36,0,8,,,,,,,,4,,,69,127
65400,note_on,0,0,8,,,,,,,,4,,,57,127
65400,note_on,0,0,10,,,,,,,,8,,,53,96
65470,note_on,70,0,10,,,,,,,,8,,,53,0
65474,note_on,4,0,10,,,,,,,,8,,,57,0
65480,note_on,80,0,11,,,,,,,,10,,,48,0
65480,note_on,80,0,12,,,,,,,,11,,,36,0
65484,note_on,84,0,8,,,,,,,,4,,,57,0
65484,note_on,0,0,8,,,,,,,,4,,,69,0
65520,note_on,36,0,8,,,,,,,,4,,,59,127
65520,note_on,40,0,11,,,,,,,,10,,,48,96
65520,note_on,0,0,8,,,,,,,,4,,,71,127
65520,note_on,46,0,10,,,,,,,,8,,,57,96
65520,note_on,0,0,10,,,,,,,,8,,,53,96
65520,note_on,40,0,12,,,,,,,,11,,,36,64
65590,note_on,70,0,10,,,,,,,,8,,,53,0
65594,note_on,4,0,10,,,,,,,,8,,,57,0
65604,note_on,84,0,11,,,,,,,,10,,,48,0
65604,note_on,84,0,12,,,,,,,,11,,,36,0
65604,note_on,84,0,8,,,,,,,,4,,,71,0
65604,note_on,0,0,8,,,,,,,,4,,,59,0
65640,note_on,0,0,8,,,,,,,,4,,,73,127
65640,note_on,36,0,8,,,,,,,,4,,,61,127
65640,note_on,36,0,12,,,,,,,,11,,,36,64
65640,note_on,0,0,10,,,,,,,,8,,,57,96
65640,note_on,36,0,11,,,,,,,,10,,,48,96
65640,note_on,46,0,10,,,,,,,,8,,,53,96
65712,note_on,0,0,10,,,,,,,,8,,,53,0
65712,note_on,72,0,10,,,,,,,,8,,,57,0
65716,note_on,76,0,8,,,,,,,,4,,,61,0
65722,note_on,82,0,11,,,,,,,,10,,,48,0
65722,note_on,82,0,12,,,,,,,,11,,,36,0
65724,note_on,8,0,8,,,,,,,,4,,,73,0
65760,note_on,38,0,12,,,,,,,,11,,,36,64
65760,note_on,0,0,10,,,,,,,,8,,,53,96
65760,note_on,48,0,10,,,,,,,,8,,,57,96
65760,note_on,36,0,8,,,,,,,,4,,,74,127
65760,note_on,0,0,8,,,,,,,,4,,,62,127
65760,note_on,38,0,11,,,,,,,,10,,,48,96
65840,note_on,80,0,10,,,,,,,,8,,,53,0
65840,note_on,0,0,10,,,,,,,,8,,,57,0
65844,note_on,84,0,11,,,,,,,,10,,,48,0
65844,note_on,84,0,8,,,,,,,,4,,,74,0
65844,note_on,84,0,12,,,,,,,,11,,,36,0
65854,note_on,10,0,8,,,,,,,,4,,,62,0
65880,note_on,36,0,11,,,,,,,,10,,,48,96
65880,note_on,40,0,10,,,,,,,,8,,,57,96
65880,note_on,0,0,10,,,,,,,,8,,,53,96
65880,note_on,36,0,12,,,,,,,,11,,,36,64
65880,note_on,0,0,8,,,,,,,,4,,,76,127
65880,note_on,26,0,8,,,,,,,,4,,,64,127
65950,note_on,70,0,10,,,,,,,,8,,,53,0
65954,note_on,4,0,10,,,,,,,,8,,,57,0
65956,note_on,76,0,8,,,,,,,,4,,,64,0
65964,note_on,84,0,12,,,,,,,,11,,,36,0
65964,note_on,84,0,11,,,,,,,,10,,,48,0
65964,note_on,8,0,8,,,,,,,,4,,,76,0
66000,note_on,0,0,10,,,,,,,,8,,,53,96
66000,note_on,36,0,8,,,,,,,,4,,,65,127
66000,note_on,0,0,8,,,,,,,,4,,,77,127
66000,note_on,46,0,10,,,,,,,,8,,,57,96
66000,note_on,36,0,12,,,,,,,,11,,,36,64
66000,note_on,36,0,11,,,,,,,,10,,,48,96
66020,note_on,1700,0,2,,,,,,,,1,,,69,0
66076,note_on,76,0,8,,,,,,,,4,,,65,0
66076,note_on,76,0,10,,,,,,,,8,,,53,0
66082,note_on,6,0,10,,,,,,,,8,,,57,0
66084,note_on,84,0,11,,,,,,,,10,,,48,0
66084,note_on,8,0,8,,,,,,,,4,,,77,0
66084,note_on,84,0,12,,,,,,,,11,,,36,0
66120,note_on,38,0,10,,,,,,,,8,,,57,96
66120,note_on,36,0,12,,,,,,,,11,,,36,64
66120,note_on,36,0,8,,,,,,,,4,,,64,127
66120,note_on,0,0,8,,,,,,,,4,,,76,127
66120,note_on,0,0,10,,,,,,,,8,,,53,96
66120,note_on,36,0,11,,,,,,,,10,,,48,96
66144,note_on,1824,0,4,,,,,,,,3,,,48,0
66146,note_on,0,0,3,,,,,,,,2,,,69,0
66146,note_on,1826,0,3,,,,,,,,2,,,65,0
66152,note_on,1832,0,1,,,,,,,,0,,,81,0
66156,note_on,136,0,2,,,,,,,,1,,,77,0
66192,note_on,72,0,10,,,,,,,,8,,,53,0
66194,note_on,2,0,10,,,,,,,,8,,,57,0
66194,note_on,74,0,8,,,,,,,,4,,,64,0
66204,note_on,10,0,8,,,,,,,,4,,,76,0
66206,note_on,86,0,11,,,,,,,,10,,,48,0
66206,note_on,86,0,12,,,,,,,,11,,,36,0
66240,note_on,46,0,10,,,,,,,,8,,,53,96
66240,note_on,0,0,2,,,,,,,,1,,,77,64
66240,note_on,96,0,4,,,,,,,,3,,,47,64
66240,note_on,0,0,8,,,,,,,,4,,,62,127
66240,note_on,36,0,8,,,,,,,,4,,,74,127
66240,note_on,0,0,10,,,,,,,,8,,,55,96
66240,note_on,0,0,6,,,,,,,,6,,,67,64
66240,note_on,84,0,2,,,,,,,,1,,,74,64
66240,note_on,866,0,6,,,,,,,,6,,,55,64
66240,note_on,88,0,1,,,,,,,,0,,,79,64
66240,note_on,0,0,3,,,,,,,,2,,,67,64
66240,note_on,94,0,3,,,,,,,,2,,,65,64
66240,note_on,34,0,12,,,,,,,,11,,,35,64
66240,note_on,34,0,11,,,,,,,,10,,,47,96
66240,note_on,866,0,7,,,,,,,,7,,,43,64
66252,note_on,1932,0,5,,,,,,,,5,,,62,0
66292,note_on,52,0,2,,,,,,,,1,,,74,0
66304,note_on,0,0,3,,,,,,,,2,,,65,0
66304,note_on,64,0,3,,,,,,,,2,,,67,0
66306,note_on,14,0,2,,,,,,,,1,,,77,0
66314,note_on,74,0,10,,,,,,,,8,,,53,0
66316,note_on,2,0,10,,,,,,,,8,,,55,0
66320,note_on,80,0,1,,,,,,,,0,,,79,0
66324,note_on,84,0,8,,,,,,,,4,,,62,0
66324,note_on,0,0,8,,,,,,,,4,,,74,0
66330,note_on,90,0,6,,,,,,,,6,,,67,0
66330,note_on,0,0,6,,,,,,,,6,,,55,0
66330,note_on,90,0,7,,,,,,,,7,,,43,0
66332,note_on,92,0,11,,,,,,,,10,,,47,0
66332,note_on,92,0,12,,,,,,,,11,,,35,0
66350,note_on,30,0,1,,,,,,,,0,,,86,0
66356,note_on,116,0,4,,,,,,,,3,,,47,0
66360,note_on,0,0,8,,,,,,,,4,,,74,127
66360,note_on,28,0,11,,,,,,,,10,,,47,96
66360,note_on,36,0,8,,,,,,,,4,,,62,127
66360,note_on,44,0,10,,,,,,,,8,,,53,96
66360,note_on,0,0,10,,,,,,,,8,,,55,96
66360,note_on,28,0,12,,,,,,,,11,,,35,64
66390,note_on,34,0,4,,,,,,,,3,,,53,0
66434,note_on,74,0,10,,,,,,,,8,,,53,0
66440,note_on,6,0,10,,,,,,,,8,,,55,0
66444,note_on,84,0,12,,,,,,,,11,,,35,0
66444,note_on,84,0,11,,,,,,,,10,,,47,0
66444,note_on,84,0,8,,,,,,,,4,,,74,0
66450,note_on,6,0,8,,,,,,,,4,,,62,0
66480,note_on,36,0,12,,,,,,,,11,,,35,64
66480,note_on,0,0,8,,,,,,,,4,,,64,127
66480,note_on,0,0,10,,,,,,,,8,,,53,96
66480,note_on,30,0,8,,,,,,,,4,,,76,127
66480,note_on,36,0,11,,,,,,,,10,,,47,96
66480,note_on,40,0,10,,,,,,,,8,,,55,96
66554,note_on,74,0,10,,,,,,,,8,,,53,0
66554,note_on,0,0,10,,,,,,,,8,,,55,0
66560,note_on,80,0,12,,,,,,,,11,,,35,0
66560,note_on,80,0,11,,,,,,,,10,,,47,0
66564,note_on,0,0,8,,,,,,,,4,,,76,0
66564,note_on,84,0,8,,,,,,,,4,,,64,0
66600,note_on,0,0,8,,,,,,,,4,,,65,127
66600,note_on,40,0,12,,,,,,,,11,,,35,64
66600,note_on,40,0,11,,,,,,,,10,,,47,96
66600,note_on,0,0,10,,,,,,,,8,,,55,96
66600,note_on,46,0,10,,,,,,,,8,,,53,96
66600,note_on,36,0,8,,,,,,,,4,,,77,127
66674,note_on,74,0,12,,,,,,,,11,,,35,0
66674,note_on,74,0,11,,,,,,,,10,,,47,0
66674,note_on,74,0,10,,,,,,,,8,,,55,0
66674,note_on,0,0,10,,,,,,,,8,,,53,0
66684,note_on,84,0,8,,,,,,,,4,,,77,0
66686,note_on,2,0,8,,,,,,,,4,,,65,0
66720,note_on,414,0,2,,,,,,,,1,,,74,64
66720,note_on,0,0,5,,,,,,,,5,,,62,64
66720,note_on,0,0,8,,,,,,,,4,,,67,127
66720,note_on,34,0,8,,,,,,,,4,,,79,127
66720,note_on,390,0,7,,,,,,,,7,,,43,64
66720,note_on,468,0,5,,,,,,,,5,,,55,64
66720,note_on,0,0,2,,,,,,,,1,,,77,64
66720,note_on,416,0,3,,,,,,,,2,,,67,64
66720,note_on,0,0,10,,,,,,,,8,,,53,96
66720,note_on,0,0,6,,,,,,,,6,,,55,64
66720,note_on,0,0,3,,,,,,,,2,,,65,64
66720,note_on,46,0,11,,,,,,,,10,,,47,96
66720,note_on,46,0,10,,,,,,,,8,,,55,96
66720,note_on,0,0,4,,,,,,,,3,,,47,64
66720,note_on,330,0,4,,,,,,,,3,,,53,64
66720,note_on,370,0,1,,,,,,,,0,,,86,64
66720,note_on,46,0,12,,,,,,,,11,,,35,64
66720,note_on,390,0,6,,,,,,,,6,,,67,64
66720,note_on,0,0,1,,,,,,,,0,,,79,64
66776,note_on,56,0,2,,,,,,,,1,,,74,0
66790,note_on,70,0,5,,,,,,,,5,,,55,0
66792,note_on,72,0,1,,,,,,,,0,,,86,0
66792,note_on,72,0,11,,,,,,,,10,,,47,0
66792,note_on,72,0,12,,,,,,,,11,,,35,0
66794,note_on,0,0,10,,,,,,,,8,,,55,0
66794,note_on,74,0,10,,,,,,,,8,,,53,0
66794,note_on,18,0,2,,,,,,,,1,,,77,0
66800,note_on,80,0,3,,,,,,,,2,,,65,0
66800,note_on,0,0,3,,,,,,,,2,,,67,0
66800,note_on,10,0,5,,,,,,,,5,,,62,0
66804,note_on,84,0,8,,,,,,,,4,,,79,0
66806,note_on,2,0,8,,,,,,,,4,,,67,0
66806,note_on,14,0,1,,,,,,,,0,,,79,0
66806,note_on,86,0,4,,,,,,,,3,,,53,0
66810,note_on,0,0,6,,,,,,,,6,,,67,0
66810,note_on,90,0,6,,,,,,,,6,,,55,0
66810,note_on,90,0,7,,,,,,,,7,,,43,0
66812,note_on,6,0,4,,,,,,,,3,,,47,0
66840,note_on,0,0,8,,,,,,,,4,,,81,127
66840,note_on,34,0,8,,,,,,,,4,,,69,127
66840,note_on,48,0,12,,,,,,,,11,,,35,64
66840,note_on,48,0,11,,,,,,,,10,,,47,96
66840,note_on,46,0,10,,,,,,,,8,,,55,96
66840,note_on,0,0,10,,,,,,,,8,,,53,96
66912,note_on,0,0,10,,,,,,,,8,,,55,0
66912,note_on,72,0,10,,,,,,,,8,,,53,0
66920,note_on,80,0,8,,,,,,,,4,,,69,0
66922,note_on,82,0,12,,,,,,,,11,,,35,0
66922,note_on,82,0,11,,,,,,,,10,,,47,0
66924,note_on,4,0,8,,,,,,,,4,,,81,0
66960,note_on,0,0,8,,,,,,,,4,,,83,127
66960,note_on,36,0,8,,,,,,,,4,,,71,127
66960,note_on,38,0,11,,,,,,,,10,,,47,96
66960,note_on,0,0,10,,,,,,,,8,,,53,96
66960,note_on,48,0,10,,,,,,,,8,,,55,96
66960,note_on,38,0,12,,,,,,,,11,,,35,64
67032,note_on,72,0,10,,,,,,,,8,,,53,0
67032,note_on,0,0,10,,,,,,,,8,,,55,0
67042,note_on,82,0,8,,,,,,,,4,,,71,0
67044,note_on,84,0,11,,,,,,,,10,,,47,0
67044,note_on,84,0,12,,,,,,,,11,,,35,0
67044,note_on,2,0,8,,,,,,,,4,,,83,0
67080,note_on,36,0,8,,,,,,,,4,,,72,127
67080,note_on,0,0,8,,,,,,,,4,,,84,127
67080,note_on,48,0,10,,,,,,,,8,,,55,96
67080,note_on,36,0,11,,,,,,,,10,,,47,96
67080,note_on,0,0,10,,,,,,,,8,,,53,96
67080,note_on,36,0,12,,,,,,,,11,,,35,64
67154,note_on,74,0,8,,,,,,,,4,,,72,0
67156,note_on,76,0,10,,,,,,,,8,,,53,0
67160,note_on,4,0,10,,,,,,,,8,,,55,0
67162,note_on,82,0,11,,,,,,,,10,,,47,0
67162,note_on,82,0,12,,,,,,,,11,,,35,0
67164,note_on,10,0,8,,,,,,,,4,,,84,0
67200,note_on,0,0,10,,,,,,,,8,,,53,96
67200,note_on,0,0,4,,,,,,,,3,,,53,64
67200,note_on,390,0,7,,,,,,,,7,,,43,64
67200,note_on,40,0,10,,,,,,,,8,,,55,96
67200,note_on,0,0,3,,,,,,,,2,,,67,64
67200,note_on,38,0,11,,,,,,,,10,,,47,96
67200,note_on,38,0,12,,,,,,,,11,,,35,64
67200,note_on,388,0,4,,,,,,,,3,,,47,64
67200,note_on,390,0,6,,,,,,,,6,,,55,64
67200,note_on,0,0,8,,,,,,,,4,,,86,127
67200,note_on,0,0,5,,,,,,,,5,,,55,64
67200,note_on,400,0,5,,,,,,,,5,,,62,64
67200,note_on,400,0,3,,,,,,,,2,,,65,64
67200,note_on,0,0,1,,,,,,,,0,,,86,64
67200,note_on,394,0,1,,,,,,,,0,,,79,64
67200,note_on,36,0,8,,,,,,,,4,,,74,127
67200,note_on,0,0,6,,,,,,,,6,,,67,64
67200,note_on,406,0,2,,,,,,,,1,,,74,64
67200,note_on,0,0,2,,,,,,,,1,,,77,64
67250,note_on,50,0,3,,,,,,,,2,,,67,0
67252,note_on,52,0,2,,,,,,,,1,,,74,0
67262,note_on,10,0,2,,,,,,,,1,,,77,0
67266,note_on,66,0,4,,,,,,,,3,,,53,0
67266,note_on,16,0,3,,,,,,,,2,,,65,0
67272,note_on,6,0,4,,,,,,,,3,,,47,0
67274,note_on,74,0,8,,,,,,,,4,,,74,0
67274,note_on,74,0,5,,,,,,,,5,,,62,0
67276,note_on,76,0,10,,,,,,,,8,,,55,0
67276,note_on,2,0,5,,,,,,,,5,,,55,0
67280,note_on,80,0,1,,,,,,,,0,,,86,0
67280,note_on,80,0,11,,,,,,,,10,,,47,0
67280,note_on,4,0,10,,,,,,,,8,,,53,0
67280,note_on,80,0,12,,,,,,,,11,,,35,0
67282,note_on,2,0,1,,,,,,,,0,,,79,0
67284,note_on,10,0,8,,,,,,,,4,,,86,0
67286,note_on,0,0,6,,,,,,,,6,,,55,0
67286,note_on,86,0,7,,,,,,,,7,,,43,0
67286,note_on,86,0,6,,,,,,,,6,,,67,0
67320,note_on,36,0,8,,,,,,,,4,,,84,127
67320,note_on,0,0,8,,,,,,,,4,,,72,127
67320,note_on,0,0,10,,,,,,,,8,,,53,96
67320,note_on,40,0,10,,,,,,,,8,,,55,96
67320,note_on,40,0,12,,,,,,,,11,,,35,64
67320,note_on,40,0,11,,,,,,,,10,,,47,96
67386,note_on,66,0,8,,,,,,,,4,,,72,0
67390,note_on,70,0,10,,,,,,,,8,,,53,0
67392,note_on,2,0,10,,,,,,,,8,,,55,0
67404,note_on,84,0,11,,,,,,,,10,,,47,0
67404,note_on,18,0,8,,,,,,,,4,,,84,0
67404,note_on,84,0,12,,,,,,,,11,,,35,0
67440,note_on,36,0,12,,,,,,,,11,,,35,64
67440,note_on,48,0,10,,,,,,,,8,,,53,96
67440,note_on,0,0,10,,,,,,,,8,,,55,96
67440,note_on,36,0,11,,,,,,,,10,,,47,96
67440,note_on,0,0,8,,,,,,,,4,,,83,127
67440,note_on,36,0,8,,,,,,,,4,,,71,127
67502,note_on,62,0,10,,,,,,,,8,,,55,0
67506,note_on,66,0,8,,,,,,,,4,,,71,0
67512,note_on,10,0,10,,,,,,,,8,,,53,0
67522,note_on,82,0,11,,,,,,,,10,,,47,0
67522,note_on,82,0,12,,,,,,,,11,,,35,0
67524,note_on,18,0,8,,,,,,,,4,,,83,0
67560,note_on,0,0,8,,,,,,,,4,,,81,127
67560,note_on,36,0,8,,,,,,,,4,,,69,127
67560,note_on,38,0,11,,,,,,,,10,,,47,96
67560,note_on,48,0,10,,,,,,,,8,,,53,96
67560,note_on,0,0,10,,,,,,,,8,,,55,96
67560,note_on,38,0,12,,,,,,,,11,,,35,64
67624,note_on,64,0,8,,,,,,,,4,,,69,0
67632,note_on,72,0,10,,,,,,,,8,,,55,0
67634,note_on,2,0,10,,,,,,,,8,,,53,0
67640,note_on,80,0,12,,,,,,,,11,,,35,0
67640,note_on,80,0,11,,,,,,,,10,,,47,0
67644,note_on,20,0,8,,,,,,,,4,,,81,0
67680,note_on,36,0,8,,,,,,,,4,,,79,127
67680,note_on,40,0,11,,,,,,,,10,,,47,96
67680,note_on,0,0,8,,,,,,,,4,,,67,127
67680,note_on,0,0,10,,,,,,,,8,,,53,96
67680,note_on,46,0,10,,,,,,,,8,,,55,96
67680,note_on,40,0,12,,,,,,,,11,,,35,64
67756,note_on,0,0,10,,,,,,,,8,,,55,0
67756,note_on,76,0,10,,,,,,,,8,,,53,0
67760,note_on,80,0,12,,,,,,,,11,,,35,0
67760,note_on,80,0,11,,,,,,,,10,,,47,0
67764,note_on,84,0,8,,,,,,,,4,,,79,0
67772,note_on,8,0,8,,,,,,,,4,,,67,0
67800,note_on,40,0,11,,,,,,,,10,,,47,96
67800,note_on,28,0,8,,,,,,,,4,,,65,127
67800,note_on,0,0,8,,,,,,,,4,,,77,127
67800,note_on,44,0,10,,,,,,,,8,,,53,96
67800,note_on,40,0,12,,,,,,,,11,,,35,64
67800,note_on,0,0,10,,,,,,,,8,,,55,96
67866,note_on,66,0,8,,,,,,,,4,,,65,0
67874,note_on,0,0,10,,,,,,,,8,,,53,0
67874,note_on,74,0,10,,,,,,,,8,,,55,0
67876,note_on,76,0,12,,,,,,,,11,,,35,0
67876,note_on,76,0,11,,,,,,,,10,,,47,0
67884,note_on,18,0,8,,,,,,,,4,,,77,0
67920,note_on,0,0,8,,,,,,,,4,,,76,127
67920,note_on,36,0,8,,,,,,,,4,,,64,127
67920,note_on,0,0,10,,,,,,,,8,,,55,96
67920,note_on,46,0,10,,,,,,,,8,,,53,96
67920,note_on,44,0,12,,,,,,,,11,,,35,64
67920,note_on,44,0,11,,,,,,,,10,,,47,96
67984,note_on,64,0,10,,,,,,,,8,,,55,0
67992,note_on,8,0,10,,,,,,,,8,,,53,0
67994,note_on,74,0,12,,,,,,,,11,,,35,0
67994,note_on,74,0,11,,,,,,,,10,,,47,0
68000,note_on,80,0,8,,,,,,,,4,,,64,0
68004,note_on,4,0,8,,,,,,,,4,,,76,0
68040,note_on,48,0,10,,,,,,,,8,,,53,96
68040,note_on,0,0,10,,,,,,,,8,,,55,96
68040,note_on,46,0,12,,,,,,,,11,,,35,64
68040,note_on,46,0,11,,,,,,,,10,,,47,96
68040,note_on,36,0,8,,,,,,,,4,,,62,127
68040,note_on,0,0,8,,,,,,,,4,,,74,127
68106,note_on,66,0,10,,,,,,,,8,,,55,0
68114,note_on,74,0,8,,,,,,,,4,,,62,0
68122,note_on,82,0,11,,,,,,,,10,,,47,0
68122,note_on,82,0,12,,,,,,,,11,,,35,0
68124,note_on,18,0,10,,,,,,,,8,,,53,0
68124,note_on,10,0,8,,,,,,,,4,,,74,0
68160,note_on,874,0,6,,,,,,,,6,,,60,64
68160,note_on,874,0,7,,,,,,,,7,,,48,64
68160,note_on,38,0,12,,,,,,,,11,,,36,64
68160,note_on,898,0,2,,,,,,,,1,,,76,64
68160,note_on,0,0,2,,,,,,,,1,,,72,64
68160,note_on,38,0,11,,,,,,,,10,,,48,96
68160,note_on,0,0,5,,,,,,,,5,,,64,64
68160,note_on,894,0,3,,,,,,,,2,,,64,64
68160,note_on,0,0,6,,,,,,,,6,,,72,64
68160,note_on,0,0,3,,,,,,,,2,,,67,64
68160,note_on,888,0,4,,,,,,,,3,,,52,64
68160,note_on,0,0,4,,,,,,,,3,,,48,64
68160,note_on,36,0,8,,,,,,,,4,,,64,127
68160,note_on,0,0,10,,,,,,,,8,,,52,96
68160,note_on,36,0,10,,,,,,,,8,,,55,96
68160,note_on,878,0,1,,,,,,,,0,,,88,64
68160,note_on,0,0,1,,,,,,,,0,,,79,64
68160,note_on,884,0,5,,,,,,,,5,,,60,64
68160,note_on,0,0,8,,,,,,,,4,,,76,127
68200,note_on,40,0,5,,,,,,,,5,,,60,0
68210,note_on,50,0,2,,,,,,,,1,,,76,0
68210,note_on,50,0,3,,,,,,,,2,,,64,0
68212,note_on,52,0,1,,,,,,,,0,,,88,0
68212,note_on,52,0,4,,,,,,,,3,,,52,0
68216,note_on,4,0,4,,,,,,,,3,,,48,0
68216,note_on,6,0,3,,,,,,,,2,,,67,0
68220,note_on,20,0,5,,,,,,,,5,,,64,0
68222,note_on,10,0,1,,,,,,,,0,,,79,0
68222,note_on,12,0,2,,,,,,,,1,,,72,0
68226,note_on,0,0,10,,,,,,,,8,,,52,0
68226,note_on,66,0,10,,,,,,,,8,,,55,0
68232,note_on,72,0,12,,,,,,,,11,,,36,0
68232,note_on,72,0,11,,,,,,,,10,,,48,0
68240,note_on,80,0,8,,,,,,,,4,,,64,0
68244,note_on,0,0,6,,,,,,,,6,,,60,0
68244,note_on,84,0,6,,,,,,,,6,,,72,0
68244,note_on,84,0,7,,,,,,,,7,,,48,0
68244,note_on,4,0,8,,,,,,,,4,,,76,0
68280,note_on,0,0,8,,,,,,,,4,,,76,127
68280,note_on,36,0,8,,,,,,,,4,,,88,127
68354,note_on,74,0,8,,,,,,,,4,,,76,0
68364,note_on,10,0,8,,,,,,,,4,,,88,0
68400,note_on,184,0,3,,,,,,,,2,,,64,64
68400,note_on,168,0,11,,,,,,,,10,,,60,96
68400,note_on,174,0,10,,,,,,,,8,,,72,96
68400,note_on,0,0,2,,,,,,,,1,,,76,64
68400,note_on,178,0,2,,,,,,,,1,,,79,64
68400,note_on,180,0,5,,,,,,,,5,,,55,64
68400,note_on,0,0,5,,,,,,,,5,,,67,64
68400,note_on,0,0,3,,,,,,,,2,,,67,64
68400,note_on,178,0,1,,,,,,,,0,,,88,64
68400,note_on,0,0,1,,,,,,,,0,,,79,64
68400,note_on,0,0,8,,,,,,,,4,,,86,127
68400,note_on,36,0,8,,,,,,,,4,,,74,127
68400,note_on,184,0,4,,,,,,,,3,,,64,64
68400,note_on,0,0,4,,,,,,,,3,,,60,64
68400,note_on,168,0,12,,,,,,,,11,,,48,64
68474,note_on,74,0,8,,,,,,,,4,,,74,0
68484,note_on,10,0,8,,,,,,,,4,,,86,0
68520,note_on,0,0,8,,,,,,,,4,,,84,127
68520,note_on,36,0,8,,,,,,,,4,,,72,127
68604,note_on,84,0,8,,,,,,,,4,,,84,0
68606,note_on,2,0,8,,,,,,,,4,,,72,0
68640,note_on,34,0,8,,,,,,,,4,,,71,127
68640,note_on,0,0,8,,,,,,,,4,,,83,127
68712,note_on,72,0,8,,,,,,,,4,,,71,0
68724,note_on,12,0,8,,,,,,,,4,,,83,0
68750,note_on,350,0,5,,,,,,,,5,,,55,0
68760,note_on,36,0,8,,,,,,,,4,,,81,127
68760,note_on,0,0,8,,,,,,,,4,,,69,127
68776,note_on,26,0,5,,,,,,,,5,,,67,0
68782,note_on,382,0,3,,,,,,,,2,,,64,0
68786,note_on,4,0,3,,,,,,,,2,,,67,0
68790,note_on,390,0,11,,,,,,,,10,,,60,0
68790,note_on,390,0,12,,,,,,,,11,,,48,0
68792,note_on,392,0,2,,,,,,,,1,,,79,0
68794,note_on,394,0,4,,,,,,,,3,,,64,0
68794,note_on,2,0,2,,,,,,,,1,,,76,0
68802,note_on,402,0,1,,,,,,,,0,,,88,0
68804,note_on,404,0,10,,,,,,,,8,,,72,0
68814,note_on,20,0,4,,,,,,,,3,,,60,0
68822,note_on,20,0,1,,,,,,,,0,,,79,0
68840,note_on,80,0,8,,,,,,,,4,,,69,0
68844,note_on,4,0,8,,,,,,,,4,,,81,0
68880,note_on,86,0,2,,,,,,,,1,,,74,64
68880,note_on,0,0,5,,,,,,,,5,,,55,64
68880,note_on,58,0,1,,,,,,,,0,,,79,64
68880,note_on,94,0,3,,,,,,,,2,,,67,64
68880,note_on,0,0,3,,,,,,,,2,,,62,64
68880,note_on,76,0,10,,,,,,,,8,,,71,96
68880,note_on,0,0,4,,,,,,,,3,,,59,64
68880,note_on,90,0,12,,,,,,,,11,,,47,64
68880,note_on,90,0,11,,,,,,,,10,,,59,96
68880,note_on,66,0,4,,,,,,,,3,,,62,64
68880,note_on,0,0,2,,,,,,,,1,,,79,64
68880,note_on,104,0,5,,,,,,,,5,,,67,64
68880,note_on,0,0,1,,,,,,,,0,,,86,64
68880,note_on,36,0,8,,,,,,,,4,,,67,127
68880,note_on,0,0,8,,,,,,,,4,,,79,127
68934,note_on,54,0,2,,,,,,,,1,,,74,0
68936,note_on,56,0,3,,,,,,,,2,,,67,0
68936,note_on,56,0,4,,,,,,,,3,,,62,0
68940,note_on,4,0,3,,,,,,,,2,,,62,0
68942,note_on,62,0,1,,,,,,,,0,,,86,0
68942,note_on,0,0,1,,,,,,,,0,,,79,0
68944,note_on,8,0,4,,,,,,,,3,,,59,0
68946,note_on,66,0,5,,,,,,,,5,,,67,0
68946,note_on,12,0,2,,,,,,,,1,,,79,0
68950,note_on,4,0,5,,,,,,,,5,,,55,0
68952,note_on,72,0,11,,,,,,,,10,,,59,0
68952,note_on,72,0,12,,,,,,,,11,,,47,0
68956,note_on,76,0,8,,,,,,,,4,,,67,0
68964,note_on,8,0,8,,,,,,,,4,,,79,0
68972,note_on,92,0,10,,,,,,,,8,,,71,0
69000,note_on,36,0,8,,,,,,,,4,,,77,127
69000,note_on,0,0,8,,,,,,,,4,,,65,127
69076,note_on,76,0,8,,,,,,,,4,,,65,0
69084,note_on,8,0,8,,,,,,,,4,,,77,0
69120,note_on,0,0,5,,,,,,,,5,,,64,64
69120,note_on,0,0,2,,,,,,,,1,,,76,64
69120,note_on,168,0,11,,,,,,,,10,,,60,96
69120,note_on,0,0,4,,,,,,,,3,,,64,64
69120,note_on,176,0,4,,,,,,,,3,,,60,64
69120,note_on,148,0,10,,,,,,,,8,,,72,96
69120,note_on,180,0,3,,,,,,,,2,,,64,64
69120,note_on,0,0,8,,,,,,,,4,,,76,127
69120,note_on,0,0,1,,,,,,,,0,,,76,64
69120,note_on,168,0,12,,,,,,,,11,,,48,64
69120,note_on,0,0,6,,,,,,,,6,,,72,64
69120,note_on,174,0,2,,,,,,,,1,,,79,64
69120,note_on,178,0,1,,,,,,,,0,,,88,64
69120,note_on,170,0,5,,,,,,,,5,,,52,64
69120,note_on,876,0,6,,,,,,,,6,,,60,64
69120,note_on,36,0,8,,,,,,,,4,,,64,127
69120,note_on,876,0,7,,,,,,,,7,,,48,64
69144,note_on,24,0,2,,,,,,,,1,,,79,0
69166,note_on,46,0,4,,,,,,,,3,,,60,0
69172,note_on,52,0,3,,,,,,,,2,,,64,0
69174,note_on,8,0,4,,,,,,,,3,,,64,0
69176,note_on,56,0,1,,,,,,,,0,,,88,0
69176,note_on,56,0,5,,,,,,,,5,,,52,0
69182,note_on,38,0,2,,,,,,,,1,,,76,0
69184,note_on,8,0,1,,,,,,,,0,,,76,0
69186,note_on,10,0,5,,,,,,,,5,,,64,0
69186,note_on,66,0,10,,,,,,,,8,,,72,0
69192,note_on,72,0,12,,,,,,,,11,,,48,0
69192,note_on,72,0,11,,,,,,,,10,,,60,0
69192,note_on,72,0,8,,,,,,,,4,,,64,0
69204,note_on,12,0,8,,,,,,,,4,,,76,0
69216,note_on,0,0,6,,,,,,,,6,,,60,0
69216,note_on,96,0,7,,,,,,,,7,,,48,0
69216,note_on,96,0,6,,,,,,,,6,,,72,0
69240,note_on,0,0,8,,,,,,,,4,,,72,127
69240,note_on,36,0,8,,,,,,,,4,,,84,127
69314,note_on,74,0,8,,,,,,,,4,,,72,0
69324,note_on,10,0,8,,,,,,,,4,,,84,0
69360,note_on,0,0,3,,,,,,,,2,,,72,64
69360,note_on,174,0,5,,,,,,,,5,,,52,64
69360,note_on,0,0,5,,,,,,,,5,,,64,64
69360,note_on,168,0,11,,,,,,,,10,,,57,96
69360,note_on,0,0,8,,,,,,,,4,,,83,127
69360,note_on,36,0,8,,,,,,,,4,,,71,127
69360,note_on,0,0,4,,,,,,,,3,,,57,64
69360,note_on,168,0,12,,,,,,,,11,,,45,64
69360,note_on,174,0,10,,,,,,,,8,,,69,96
69360,note_on,178,0,2,,,,,,,,1,,,72,64
69360,note_on,176,0,1,,,,,,,,0,,,76,64
69360,note_on,0,0,1,,,,,,,,0,,,84,64
69360,note_on,186,0,4,,,,,,,,3,,,60,64
69360,note_on,0,0,2,,,,,,,,1,,,76,64
69360,note_on,188,0,3,,,,,,,,2,,,64,64
69430,note_on,70,0,8,,,,,,,,4,,,71,0
69444,note_on,14,0,8,,,,,,,,4,,,83,0
69480,note_on,36,0,8,,,,,,,,4,,,69,127
69480,note_on,0,0,8,,,,,,,,4,,,81,127
69564,note_on,84,0,8,,,,,,,,4,,,81,0
69570,note_on,6,0,8,,,,,,,,4,,,69,0
69600,note_on,0,0,8,,,,,,,,4,,,79,127
69600,note_on,30,0,8,,,,,,,,4,,,67,127
69672,note_on,312,0,5,,,,,,,,5,,,52,0
69674,note_on,74,0,8,,,,,,,,4,,,67,0
69684,note_on,10,0,8,,,,,,,,4,,,79,0
69686,note_on,14,0,5,,,,,,,,5,,,64,0
69720,note_on,36,0,8,,,,,,,,4,,,77,127
69720,note_on,0,0,8,,,,,,,,4,,,65,127
69722,note_on,362,0,3,,,,,,,,2,,,64,0
69724,note_on,364,0,2,,,,,,,,1,,,72,0
69736,note_on,12,0,2,,,,,,,,1,,,76,0
69736,note_on,14,0,3,,,,,,,,2,,,72,0
69742,note_on,382,0,4,,,,,,,,3,,,60,0
69746,note_on,4,0,4,,,,,,,,3,,,57,0
69756,note_on,396,0,12,,,,,,,,11,,,45,0
69756,note_on,396,0,11,,,,,,,,10,,,57,0
69760,note_on,400,0,1,,,,,,,,0,,,76,0
69776,note_on,16,0,1,,,,,,,,0,,,84,0
69780,note_on,420,0,10,,,,,,,,8,,,69,0
69804,note_on,84,0,8,,,,,,,,4,,,65,0
69804,note_on,0,0,8,,,,,,,,4,,,77,0
69840,note_on,60,0,10,,,,,,,,8,,,68,96
69840,note_on,0,0,3,,,,,,,,2,,,64,64
69840,note_on,36,0,8,,,,,,,,4,,,64,127
69840,note_on,0,0,8,,,,,,,,4,,,76,127
69840,note_on,104,0,3,,,,,,,,2,,,71,64
69840,note_on,0,0,1,,,,,,,,0,,,76,64
69840,note_on,64,0,1,,,,,,,,0,,,83,64
69840,note_on,84,0,11,,,,,,,,10,,,56,96
69840,note_on,94,0,4,,,,,,,,3,,,59,64
69840,note_on,84,0,12,,,,,,,,11,,,44,64
69840,note_on,0,0,4,,,,,,,,3,,,56,64
69840,note_on,0,0,2,,,,,,,,1,,,76,64
69840,note_on,104,0,2,,,,,,,,1,,,71,64
69840,note_on,0,0,5,,,,,,,,5,,,52,64
69840,note_on,154,0,5,,,,,,,,5,,,64,64
69882,note_on,42,0,2,,,,,,,,1,,,71,0
69886,note_on,0,0,5,,,,,,,,5,,,64,0
69886,note_on,46,0,4,,,,,,,,3,,,59,0
69886,note_on,46,0,5,,,,,,,,5,,,52,0
69890,note_on,4,0,4,,,,,,,,3,,,56,0
69894,note_on,54,0,3,,,,,,,,2,,,71,0
69896,note_on,14,0,2,,,,,,,,1,,,76,0
69906,note_on,12,0,3,,,,,,,,2,,,64,0
69906,note_on,66,0,1,,,,,,,,0,,,83,0
69912,note_on,6,0,1,,,,,,,,0,,,76,0
69912,note_on,72,0,8,,,,,,,,4,,,64,0
69924,note_on,84,0,11,,,,,,,,10,,,56,0
69924,note_on,12,0,8,,,,,,,,4,,,76,0
69924,note_on,84,0,12,,,,,,,,11,,,44,0
69926,note_on,86,0,10,,,,,,,,8,,,68,0
69960,note_on,0,0,8,,,,,,,,4,,,62,127
69960,note_on,36,0,8,,,,,,,,4,,,74,127
70044,note_on,0,0,8,,,,,,,,4,,,74,0
70044,note_on,84,0,8,,,,,,,,4,,,62,0
70080,note_on,184,0,2,,,,,,,,1,,,72,64
70080,note_on,190,0,4,,,,,,,,3,,,60,64
70080,note_on,0,0,5,,,,,,,,5,,,48,64
70080,note_on,156,0,11,,,,,,,,10,,,57,96
70080,note_on,0,0,3,,,,,,,,2,,,72,64
70080,note_on,0,0,4,,,,,,,,3,,,57,64
70080,note_on,154,0,10,,,,,,,,8,,,69,96
70080,note_on,168,0,1,,,,,,,,0,,,72,64
70080,note_on,864,0,7,,,,,,,,7,,,48,64
70080,note_on,194,0,5,,,,,,,,5,,,60,64
70080,note_on,0,0,8,,,,,,,,4,,,72,127
70080,note_on,36,0,8,,,,,,,,4,,,60,127
70080,note_on,0,0,1,,,,,,,,0,,,84,64
70080,note_on,0,0,6,,,,,,,,6,,,72,64
70080,note_on,864,0,6,,,,,,,,6,,,60,64
70080,note_on,156,0,12,,,,,,,,11,,,45,64
70080,note_on,174,0,3,,,,,,,,2,,,60,64
70116,note_on,36,0,5,,,,,,,,5,,,60,0
70126,note_on,10,0,5,,,,,,,,5,,,48,0
70130,note_on,50,0,3,,,,,,,,2,,,72,0
70130,note_on,0,0,3,,,,,,,,2,,,60,0
70134,note_on,54,0,4,,,,,,,,3,,,57,0
70134,note_on,0,0,4,,,,,,,,3,,,60,0
70136,note_on,56,0,2,,,,,,,,1,,,72,0
70142,note_on,62,0,8,,,,,,,,4,,,60,0
70146,note_on,66,0,1,,,,,,,,0,,,72,0
70152,note_on,72,0,12,,,,,,,,11,,,45,0
70152,note_on,6,0,1,,,,,,,,0,,,84,0
70152,note_on,72,0,11,,,,,,,,10,,,57,0
70154,note_on,74,0,10,,,,,,,,8,,,69,0
70164,note_on,22,0,8,,,,,,,,4,,,72,0
70180,note_on,100,0,6,,,,,,,,6,,,72,0
70180,note_on,100,0,7,,,,,,,,7,,,48,0
70180,note_on,0,0,6,,,,,,,,6,,,60,0
70200,note_on,36,0,8,,,,,,,,4,,,81,127
70200,note_on,0,0,8,,,,,,,,4,,,69,127
70274,note_on,74,0,8,,,,,,,,4,,,69,0
70284,note_on,10,0,8,,,,,,,,4,,,81,0
70320,note_on,168,0,12,,,,,,,,11,,,41,64
70320,note_on,36,0,8,,,,,,,,4,,,67,127
70320,note_on,168,0,11,,,,,,,,10,,,53,96
70320,note_on,184,0,2,,,,,,,,1,,,81,64
70320,note_on,0,0,8,,,,,,,,4,,,79,127
70320,note_on,166,0,10,,,,,,,,8,,,65,96
70320,note_on,0,0,4,,,,,,,,3,,,57,64
70320,note_on,186,0,4,,,,,,,,3,,,53,64
70320,note_on,0,0,2,,,,,,,,1,,,72,64
70320,note_on,168,0,1,,,,,,,,0,,,72,64
70320,note_on,194,0,5,,,,,,,,5,,,60,64
70320,note_on,0,0,5,,,,,,,,5,,,48,64
70320,note_on,190,0,3,,,,,,,,2,,,72,64
70320,note_on,0,0,3,,,,,,,,2,,,69,64
70320,note_on,0,0,1,,,,,,,,0,,,81,64
70394,note_on,74,0,8,,,,,,,,4,,,67,0
70404,note_on,10,0,8,,,,,,,,4,,,79,0
70440,note_on,36,0,8,,,,,,,,4,,,65,127
70440,note_on,0,0,8,,,,,,,,4,,,77,127
70524,note_on,84,0,8,,,,,,,,4,,,77,0
70534,note_on,10,0,8,,,,,,,,4,,,65,0
70560,note_on,0,0,8,,,,,,,,4,,,64,127
70560,note_on,26,0,8,,,,,,,,4,,,76,127
70644,note_on,84,0,8,,,,,,,,4,,,76,0
70646,note_on,2,0,8,,,,,,,,4,,,64,0
70654,note_on,334,0,3,,,,,,,,2,,,72,0
70656,note_on,336,0,2,,,,,,,,1,,,81,0
70674,note_on,18,0,2,,,,,,,,1,,,72,0
70676,note_on,356,0,5,,,,,,,,5,,,60,0
70680,note_on,34,0,8,,,,,,,,4,,,62,127
70680,note_on,0,0,8,,,,,,,,4,,,74,127
70682,note_on,6,0,5,,,,,,,,5,,,48,0
70686,note_on,366,0,11,,,,,,,,10,,,53,0
70686,note_on,366,0,12,,,,,,,,11,,,41,0
70690,note_on,370,0,1,,,,,,,,0,,,72,0
70692,note_on,38,0,3,,,,,,,,2,,,69,0
70692,note_on,372,0,4,,,,,,,,3,,,53,0
70724,note_on,32,0,4,,,,,,,,3,,,57,0
70734,note_on,44,0,1,,,,,,,,0,,,81,0
70764,note_on,84,0,8,,,,,,,,4,,,74,0
70772,note_on,8,0,8,,,,,,,,4,,,62,0
70800,note_on,0,0,5,,,,,,,,5,,,48,64
70800,note_on,114,0,12,,,,,,,,11,,,40,64
70800,note_on,0,0,2,,,,,,,,1,,,82,64
70800,note_on,114,0,11,,,,,,,,10,,,52,96
70800,note_on,0,0,4,,,,,,,,3,,,52,64
70800,note_on,76,0,4,,,,,,,,3,,,55,64
70800,note_on,118,0,5,,,,,,,,5,,,60,64
70800,note_on,108,0,3,,,,,,,,2,,,72,64
70800,note_on,0,0,3,,,,,,,,2,,,67,64
70800,note_on,126,0,2,,,,,,,,1,,,72,64
70800,note_on,480,0,10,,,,,,,,8,,,64,96
70800,note_on,28,0,8,,,,,,,,4,,,60,127
70800,note_on,0,0,1,,,,,,,,0,,,82,64
70800,note_on,66,0,1,,,,,,,,0,,,72,64
70800,note_on,0,0,8,,,,,,,,4,,,72,127
70814,note_on,14,0,10,,,,,,,,8,,,65,0
70844,note_on,44,0,5,,,,,,,,5,,,60,0
70846,note_on,46,0,3,,,,,,,,2,,,72,0
70850,note_on,6,0,5,,,,,,,,5,,,48,0
70854,note_on,54,0,1,,,,,,,,0,,,72,0
70856,note_on,56,0,4,,,,,,,,3,,,55,0
70856,note_on,2,0,1,,,,,,,,0,,,82,0
70856,note_on,56,0,2,,,,,,,,1,,,72,0
70862,note_on,6,0,4,,,,,,,,3,,,52,0
70862,note_on,16,0,3,,,,,,,,2,,,67,0
70872,note_on,72,0,8,,,,,,,,4,,,60,0
70874,note_on,18,0,2,,,,,,,,1,,,82,0
70882,note_on,82,0,12,,,,,,,,11,,,40,0
70882,note_on,82,0,11,,,,,,,,10,,,52,0
70884,note_on,12,0,8,,,,,,,,4,,,72,0
70894,note_on,80,0,10,,,,,,,,8,,,64,0
70920,note_on,36,0,8,,,,,,,,4,,,70,127
70920,note_on,0,0,8,,,,,,,,4,,,58,127
71002,note_on,82,0,8,,,,,,,,4,,,58,0
71004,note_on,2,0,8,,,,,,,,4,,,70,0
71040,note_on,0,0,6,,,,,,,,6,,,60,64
71040,note_on,0,0,2,,,,,,,,1,,,81,64
71040,note_on,184,0,1,,,,,,,,0,,,72,64
71040,note_on,190,0,5,,,,,,,,5,,,60,64
71040,note_on,0,0,5,,,,,,,,5,,,48,64
71040,note_on,146,0,10,,,,,,,,8,,,65,96
71040,note_on,36,0,8,,,,,,,,4,,,57,127
71040,note_on,178,0,3,,,,,,,,2,,,69,64
71040,note_on,0,0,3,,,,,,,,2,,,72,64
71040,note_on,860,0,7,,,,,,,,7,,,48,64
71040,note_on,166,0,2,,,,,,,,1,,,72,64
71040,note_on,158,0,11,,,,,,,,10,,,53,96
71040,note_on,158,0,12,,,,,,,,11,,,41,64
71040,note_on,0,0,1,,,,,,,,0,,,81,64
71040,note_on,178,0,4,,,,,,,,3,,,53,64
71040,note_on,0,0,4,,,,,,,,3,,,57,64
71040,note_on,0,0,8,,,,,,,,4,,,69,127
71040,note_on,860,0,6,,,,,,,,6,,,72,64
71086,note_on,46,0,5,,,,,,,,5,,,48,0
71092,note_on,52,0,4,,,,,,,,3,,,57,0
71092,note_on,6,0,5,,,,,,,,5,,,60,0
71092,note_on,52,0,3,,,,,,,,2,,,69,0
71100,note_on,60,0,2,,,,,,,,1,,,72,0
71100,note_on,8,0,4,,,,,,,,3,,,53,0
71102,note_on,62,0,1,,,,,,,,0,,,81,0
71102,note_on,2,0,2,,,,,,,,1,,,81,0
71102,note_on,10,0,3,,,,,,,,2,,,72,0
71104,note_on,64,0,8,,,,,,,,4,,,69,0
71106,note_on,4,0,1,,,,,,,,0,,,72,0
71116,note_on,76,0,10,,,,,,,,8,,,65,0
71120,note_on,80,0,11,,,,,,,,10,,,53,0
71120,note_on,80,0,12,,,,,,,,11,,,41,0
71132,note_on,0,0,6,,,,,,,,6,,,72,0
71132,note_on,92,0,6,,,,,,,,6,,,60,0
71132,note_on,28,0,8,,,,,,,,4,,,57,0
71132,note_on,92,0,7,,,,,,,,7,,,48,0
71160,note_on,0,0,8,,,,,,,,4,,,55,127
71160,note_on,28,0,8,,,,,,,,4,,,67,127
71224,note_on,64,0,8,,,,,,,,4,,,55,0
71240,note_on,16,0,8,,,,,,,,4,,,67,0
71280,note_on,180,0,4,,,,,,,,3,,,53,64
71280,note_on,0,0,1,,,,,,,,0,,,88,64
71280,note_on,0,0,1,,,,,,,,0,,,81,64
71280,note_on,174,0,1,,,,,,,,0,,,89,64
71280,note_on,164,0,10,,,,,,,,8,,,62,96
71280,note_on,160,0,12,,,,,,,,11,,,38,64
71280,note_on,160,0,11,,,,,,,,10,,,50,96
71280,note_on,40,0,8,,,,,,,,4,,,55,127
71280,note_on,0,0,8,,,,,,,,4,,,53,127
71280,note_on,0,0,8,,,,,,,,4,,,65,127
71280,note_on,178,0,2,,,,,,,,1,,,81,64
71280,note_on,0,0,3,,,,,,,,2,,,69,64
71280,note_on,178,0,3,,,,,,,,2,,,65,64
71312,note_on,32,0,1,,,,,,,,0,,,89,0
71322,note_on,10,0,1,,,,,,,,0,,,81,0
71326,note_on,4,0,1,,,,,,,,0,,,88,0
71326,note_on,46,0,8,,,,,,,,4,,,55,0
71336,note_on,56,0,3,,,,,,,,2,,,69,0
71340,note_on,14,0,8,,,,,,,,4,,,53,0
71340,note_on,4,0,3,,,,,,,,2,,,65,0
71340,note_on,60,0,2,,,,,,,,1,,,81,0
71350,note_on,70,0,4,,,,,,,,3,,,53,0
71356,note_on,16,0,8,,,,,,,,4,,,65,0
71356,note_on,76,0,10,,,,,,,,8,,,62,0
71370,note_on,90,0,11,,,,,,,,10,,,50,0
71370,note_on,90,0,12,,,,,,,,11,,,38,0
71400,note_on,44,0,8,,,,,,,,4,,,64,127
71400,note_on,0,0,8,,,,,,,,4,,,52,127
71456,note_on,56,0,8,,,,,,,,4,,,52,0
71484,note_on,28,0,8,,,,,,,,4,,,64,0
71520,note_on,194,0,1,,,,,,,,0,,,77,64
71520,note_on,36,0,8,,,,,,,,4,,,62,127
71520,note_on,180,0,3,,,,,,,,2,,,65,64
71520,note_on,0,0,1,,,,,,,,0,,,86,64
71520,note_on,0,0,3,,,,,,,,2,,,62,64
71520,note_on,150,0,12,,,,,,,,11,,,41,64
71520,note_on,0,0,2,,,,,,,,1,,,74,64
71520,note_on,180,0,2,,,,,,,,1,,,77,64
71520,note_on,150,0,11,,,,,,,,10,,,53,96
71520,note_on,170,0,4,,,,,,,,3,,,50,64
71520,note_on,164,0,10,,,,,,,,8,,,65,96
71560,note_on,40,0,4,,,,,,,,3,,,50,0
71564,note_on,44,0,2,,,,,,,,1,,,77,0
71566,note_on,46,0,1,,,,,,,,0,,,77,0
71570,note_on,4,0,1,,,,,,,,0,,,86,0
71570,note_on,50,0,3,,,,,,,,2,,,65,0
71576,note_on,6,0,3,,,,,,,,2,,,62,0
71582,note_on,18,0,2,,,,,,,,1,,,74,0
71590,note_on,70,0,8,,,,,,,,4,,,62,0
71596,note_on,76,0,12,,,,,,,,11,,,41,0
71596,note_on,76,0,11,,,,,,,,10,,,53,0
71602,note_on,82,0,10,,,,,,,,8,,,65,0
71640,note_on,50,0,8,,,,,,,,4,,,64,127
71712,note_on,72,0,8,,,,,,,,4,,,64,0
71760,note_on,190,0,1,,,,,,,,0,,,76,64
71760,note_on,164,0,12,,,,,,,,11,,,42,64
71760,note_on,164,0,11,,,,,,,,10,,,54,96
71760,note_on,48,0,8,,,,,,,,4,,,60,127
71760,note_on,0,0,1,,,,,,,,0,,,84,64
71760,note_on,158,0,10,,,,,,,,8,,,66,96
71760,note_on,200,0,4,,,,,,,,3,,,54,64
71760,note_on,0,0,3,,,,,,,,2,,,60,64
71760,note_on,0,0,2,,,,,,,,1,,,76,64
71760,note_on,178,0,2,,,,,,,,1,,,72,64
71760,note_on,184,0,3,,,,,,,,2,,,64,64
71802,note_on,42,0,3,,,,,,,,2,,,64,0
71806,note_on,4,0,3,,,,,,,,2,,,60,0
71810,note_on,50,0,2,,,,,,,,1,,,72,0
71812,note_on,52,0,4,,,,,,,,3,,,54,0
71814,note_on,4,0,2,,,,,,,,1,,,76,0
71816,note_on,56,0,1,,,,,,,,0,,,76,0
71824,note_on,8,0,1,,,,,,,,0,,,84,0
71832,note_on,72,0,12,,,,,,,,11,,,42,0
71832,note_on,72,0,11,,,,,,,,10,,,54,0
71834,note_on,74,0,8,,,,,,,,4,,,60,0
71842,note_on,82,0,10,,,,,,,,8,,,66,0
71880,note_on,46,0,8,,,,,,,,4,,,62,127
71940,note_on,60,0,8,,,,,,,,4,,,62,0
72000,note_on,868,0,6,,,,,,,,6,,,55,64
72000,note_on,0,0,2,,,,,,,,1,,,74,64
72000,note_on,158,0,10,,,,,,,,8,,,67,80
72000,note_on,60,0,8,,,,,,,,4,,,59,80
72000,note_on,176,0,1,,,,,,,,0,,,74,64
72000,note_on,0,0,1,,,,,,,,0,,,83,64
72000,note_on,194,0,3,,,,,,,,2,,,62,64
72000,note_on,0,0,5,,,,,,,,5,,,43,64
72000,note_on,868,0,7,,,,,,,,7,,,43,64
72000,note_on,908,0,5,,,,,,,,5,,,55,64
72000,note_on,0,0,6,,,,,,,,6,,,67,64
72000,note_on,186,0,2,,,,,,,,1,,,71,64
72000,note_on,188,0,4,,,,,,,,3,,,55,64
72000,note_on,168,0,11,,,,,,,,10,,,43,80
72000,note_on,168,0,12,,,,,,,,11,,,31,64
72000,note_on,0,0,3,,,,,,,,2,,,59,64
72042,note_on,42,0,3,,,,,,,,2,,,59,0
72046,note_on,4,0,3,,,,,,,,2,,,62,0
72046,note_on,46,0,1,,,,,,,,0,,,74,0
72050,note_on,4,0,1,,,,,,,,0,,,83,0
72050,note_on,50,0,5,,,,,,,,5,,,43,0
72054,note_on,54,0,2,,,,,,,,1,,,74,0
72060,note_on,10,0,5,,,,,,,,5,,,55,0
72062,note_on,8,0,2,,,,,,,,1,,,71,0
72066,note_on,66,0,8,,,,,,,,4,,,59,0
72072,note_on,72,0,4,,,,,,,,3,,,55,0
72082,note_on,82,0,10,,,,,,,,8,,,67,0
72084,note_on,84,0,7,,,,,,,,7,,,43,0
72084,note_on,84,0,6,,,,,,,,6,,,67,0
72084,note_on,0,0,6,,,,,,,,6,,,55,0
72120,note_on,120,0,12,,,,,,,,11,,,43,81
72120,note_on,120,0,11,,,,,,,,10,,,55,81
72132,note_on,12,0,12,,,,,,,,11,,,31,0
72132,note_on,12,0,11,,,,,,,,10,,,43,0
72200,note_on,68,0,12,,,,,,,,11,,,43,0
72200,note_on,68,0,11,,,,,,,,10,,,55,0
72240,note_on,0,0,3,,,,,,,,2,,,71,64
72240,note_on,0,0,8,,,,,,,,4,,,65,83
72240,note_on,194,0,3,,,,,,,,2,,,65,64
72240,note_on,174,0,8,,,,,,,,4,,,62,83
72240,note_on,40,0,11,,,,,,,,10,,,55,83
72240,note_on,40,0,12,,,,,,,,11,,,43,83
72312,note_on,72,0,8,,,,,,,,4,,,62,0
72322,note_on,82,0,11,,,,,,,,10,,,55,0
72322,note_on,82,0,12,,,,,,,,11,,,43,0
72360,note_on,38,0,12,,,,,,,,11,,,43,84
72360,note_on,38,0,11,,,,,,,,10,,,55,84
72360,note_on,48,0,8,,,,,,,,4,,,60,84
72430,note_on,70,0,8,,,,,,,,4,,,60,0
72440,note_on,80,0,11,,,,,,,,10,,,55,0
72440,note_on,80,0,12,,,,,,,,11,,,43,0
72480,note_on,50,0,8,,,,,,,,4,,,59,85
72480,note_on,40,0,11,,,,,,,,10,,,55,85
72480,note_on,40,0,12,,,,,,,,11,,,43,85
72552,note_on,72,0,11,,,,,,,,10,,,55,0
72552,note_on,72,0,12,,,,,,,,11,,,43,0
72554,note_on,74,0,8,,,,,,,,4,,,59,0
72600,note_on,48,0,11,,,,,,,,10,,,55,86
72600,note_on,46,0,8,,,,,,,,4,,,55,86
72600,note_on,48,0,12,,,,,,,,11,,,43,86
72614,note_on,14,0,8,,,,,,,,4,,,65,0
72646,note_on,406,0,3,,,,,,,,2,,,65,0
72652,note_on,6,0,3,,,,,,,,2,,,71,0
72682,note_on,82,0,12,,,,,,,,11,,,43,0
72682,note_on,82,0,11,,,,,,,,10,,,55,0
72684,note_on,70,0,8,,,,,,,,4,,,55,0
72720,note_on,0,0,3,,,,,,,,2,,,65,64
72720,note_on,36,0,8,,,,,,,,4,,,65,88
72720,note_on,38,0,11,,,,,,,,10,,,55,88
72720,note_on,0,0,8,,,,,,,,4,,,57,88
72720,note_on,68,0,3,,,,,,,,2,,,71,64
72720,note_on,38,0,12,,,,,,,,11,,,43,88
72780,note_on,60,0,3,,,,,,,,2,,,71,0
72792,note_on,12,0,3,,,,,,,,2,,,65,0
72794,note_on,74,0,8,,,,,,,,4,,,65,0
72796,note_on,2,0,8,,,,,,,,4,,,57,0
72802,note_on,82,0,11,,,,,,,,10,,,55,0
72802,note_on,82,0,12,,,,,,,,11,,,43,0
72840,note_on,44,0,8,,,,,,,,4,,,59,89
72840,note_on,38,0,12,,,,,,,,11,,,43,89
72840,note_on,38,0,11,,,,,,,,10,,,55,89
72904,note_on,64,0,8,,,,,,,,4,,,59,0
72922,note_on,82,0,12,,,,,,,,11,,,43,0
72922,note_on,82,0,11,,,,,,,,10,,,55,0
72960,note_on,168,0,3,,,,,,,,2,,,72,64
72960,note_on,876,0,6,,,,,,,,6,,,67,64
72960,note_on,0,0,3,,,,,,,,2,,,64,64
72960,note_on,876,0,7,,,,,,,,7,,,43,64
72960,note_on,900,0,5,,,,,,,,5,,,43,64
72960,note_on,38,0,12,,,,,,,,11,,,31,64
72960,note_on,0,0,8,,,,,,,,4,,,60,90
72960,note_on,0,0,5,,,,,,,,5,,,55,64
72960,note_on,0,0,6,,,,,,,,6,,,55,64
72960,note_on,38,0,11,,,,,,,,10,,,43,90
72960,note_on,56,0,8,,,,,,,,4,,,64,90
73014,note_on,54,0,5,,,,,,,,5,,,55,0
73020,note_on,6,0,5,,,,,,,,5,,,43,0
73030,note_on,70,0,8,,,,,,,,4,,,60,0
73030,note_on,0,0,8,,,,,,,,4,,,64,0
73030,note_on,70,0,3,,,,,,,,2,,,64,0
73044,note_on,14,0,3,,,,,,,,2,,,72,0
73050,note_on,90,0,7,,,,,,,,7,,,43,0
73050,note_on,90,0,6,,,,,,,,6,,,55,0
73050,note_on,0,0,6,,,,,,,,6,,,67,0
73066,note_on,106,0,12,,,,,,,,11,,,31,0
73066,note_on,106,0,11,,,,,,,,10,,,43,0
73080,note_on,14,0,11,,,,,,,,10,,,55,91
73080,note_on,50,0,8,,,,,,,,4,,,59,91
73080,note_on,14,0,12,,,,,,,,11,,,43,91
73156,note_on,76,0,8,,,,,,,,4,,,59,0
73162,note_on,82,0,12,,,,,,,,11,,,43,0
73162,note_on,82,0,11,,,,,,,,10,,,55,0
73200,note_on,1128,0,4,,,,,,,,3,,,52,64
73200,note_on,0,0,4,,,,,,,,3,,,60,64
73200,note_on,1118,0,10,,,,,,,,8,,,48,93
73200,note_on,38,0,12,,,,,,,,11,,,43,93
73200,note_on,38,0,11,,,,,,,,10,,,55,93
73200,note_on,44,0,8,,,,,,,,4,,,72,93
73200,note_on,0,0,8,,,,,,,,4,,,60,93
73272,note_on,72,0,8,,,,,,,,4,,,60,0
73276,note_on,76,0,10,,,,,,,,8,,,48,0
73282,note_on,82,0,11,,,,,,,,10,,,55,0
73282,note_on,82,0,12,,,,,,,,11,,,43,0
73320,note_on,44,0,10,,,,,,,,8,,,50,94
73320,note_on,38,0,12,,,,,,,,11,,,43,94
73320,note_on,38,0,11,,,,,,,,10,,,55,94
73320,note_on,48,0,8,,,,,,,,4,,,62,94
73394,note_on,74,0,10,,,,,,,,8,,,50,0
73396,note_on,76,0,8,,,,,,,,4,,,62,0
73400,note_on,80,0,12,,,,,,,,11,,,43,0
73400,note_on,80,0,11,,,,,,,,10,,,55,0
73440,note_on,40,0,11,,,,,,,,10,,,55,95
73440,note_on,46,0,10,,,,,,,,8,,,52,95
73440,note_on,44,0,8,,,,,,,,4,,,64,95
73440,note_on,40,0,12,,,,,,,,11,,,43,95
73514,note_on,74,0,8,,,,,,,,4,,,64,0
73516,note_on,76,0,10,,,,,,,,8,,,52,0
73516,note_on,76,0,11,,,,,,,,10,,,55,0
73516,note_on,76,0,12,,,,,,,,11,,,43,0
73560,note_on,44,0,12,,,,,,,,11,,,43,96
73560,note_on,44,0,10,,,,,,,,8,,,50,96
73560,note_on,44,0,11,,,,,,,,10,,,55,96
73560,note_on,360,0,4,,,,,,,,3,,,60,0
73560,note_on,0,0,4,,,,,,,,3,,,52,0
73560,note_on,46,0,8,,,,,,,,4,,,62,96
73562,note_on,2,0,8,,,,,,,,4,,,72,0
73632,note_on,72,0,12,,,,,,,,11,,,43,0
73632,note_on,72,0,11,,,,,,,,10,,,55,0
73640,note_on,80,0,10,,,,,,,,8,,,50,0
73646,note_on,84,0,8,,,,,,,,4,,,62,0
73680,note_on,34,0,8,,,,,,,,4,,,72,98
73680,note_on,0,0,8,,,,,,,,4,,,64,98
73680,note_on,0,0,4,,,,,,,,3,,,60,64
73680,note_on,48,0,12,,,,,,,,11,,,43,98
73680,note_on,48,0,11,,,,,,,,10,,,55,98
73680,note_on,120,0,4,,,,,,,,3,,,52,64
73680,note_on,40,0,10,,,,,,,,8,,,52,98
73742,note_on,62,0,8,,,,,,,,4,,,72,0
73746,note_on,66,0,4,,,,,,,,3,,,52,0
73752,note_on,72,0,10,,,,,,,,8,,,52,0
73752,note_on,6,0,4,,,,,,,,3,,,60,0
73754,note_on,12,0,8,,,,,,,,4,,,64,0
73766,note_on,86,0,11,,,,,,,,10,,,55,0
73766,note_on,86,0,12,,,,,,,,11,,,43,0
73800,note_on,46,0,8,,,,,,,,4,,,66,99
73800,note_on,34,0,12,,,,,,,,11,,,43,99
73800,note_on,48,0,10,,,,,,,,8,,,54,99
73800,note_on,34,0,11,,,,,,,,10,,,55,99
73872,note_on,72,0,10,,,,,,,,8,,,54,0
73882,note_on,82,0,8,,,,,,,,4,,,66,0
73884,note_on,84,0,12,,,,,,,,11,,,43,0
73884,note_on,84,0,11,,,,,,,,10,,,55,0
73920,note_on,0,0,8,,,,,,,,4,,,71,100
73920,note_on,870,0,7,,,,,,,,7,,,43,64
73920,note_on,0,0,6,,,,,,,,6,,,55,64
73920,note_on,870,0,6,,,,,,,,6,,,67,64
73920,note_on,36,0,11,,,,,,,,10,,,43,100
73920,note_on,38,0,8,,,,,,,,4,,,67,100
73920,note_on,36,0,12,,,,,,,,11,,,31,64
73920,note_on,48,0,10,,,,,,,,8,,,55,100
73920,note_on,900,0,5,,,,,,,,5,,,43,64
73920,note_on,0,0,5,,,,,,,,5,,,55,64
73920,note_on,168,0,4,,,,,,,,3,,,59,64
73920,note_on,0,0,4,,,,,,,,3,,,50,64
73976,note_on,56,0,5,,,,,,,,5,,,55,0
73976,note_on,0,0,5,,,,,,,,5,,,43,0
73990,note_on,70,0,10,,,,,,,,8,,,55,0
73994,note_on,74,0,8,,,,,,,,4,,,71,0
74002,note_on,8,0,8,,,,,,,,4,,,67,0
74004,note_on,84,0,7,,,,,,,,7,,,43,0
74004,note_on,0,0,6,,,,,,,,6,,,67,0
74004,note_on,84,0,6,,,,,,,,6,,,55,0
74026,note_on,106,0,4,,,,,,,,3,,,59,0
74032,note_on,6,0,4,,,,,,,,3,,,50,0
74034,note_on,114,0,12,,,,,,,,11,,,31,0
74034,note_on,114,0,11,,,,,,,,10,,,43,0
74040,note_on,38,0,8,,,,,,,,4,,,66,101
74040,note_on,6,0,11,,,,,,,,10,,,55,101
74040,note_on,6,0,12,,,,,,,,11,,,43,101
74040,note_on,50,0,10,,,,,,,,8,,,54,101
74116,note_on,76,0,8,,,,,,,,4,,,66,0
74124,note_on,84,0,10,,,,,,,,8,,,54,0
74124,note_on,84,0,11,,,,,,,,10,,,55,0
74124,note_on,84,0,12,,,,,,,,11,,,43,0
74160,note_on,2110,0,1,,,,,,,,0,,,86,64
74160,note_on,0,0,8,,,,,,,,4,,,77,103
74160,note_on,36,0,10,,,,,,,,8,,,55,103
74160,note_on,0,0,1,,,,,,,,0,,,83,64
74160,note_on,44,0,8,,,,,,,,4,,,67,103
74160,note_on,0,0,3,,,,,,,,2,,,71,64
74160,note_on,1116,0,3,,,,,,,,2,,,65,64
74160,note_on,0,0,2,,,,,,,,1,,,74,64
74160,note_on,2098,0,2,,,,,,,,1,,,77,64
74160,note_on,36,0,11,,,,,,,,10,,,55,103
74160,note_on,36,0,12,,,,,,,,11,,,43,103
74160,note_on,128,0,4,,,,,,,,3,,,55,64
74232,note_on,72,0,4,,,,,,,,3,,,55,0
74242,note_on,82,0,10,,,,,,,,8,,,55,0
74244,note_on,84,0,11,,,,,,,,10,,,55,0
74244,note_on,84,0,12,,,,,,,,11,,,43,0
74254,note_on,94,0,8,,,,,,,,4,,,67,0
74280,note_on,26,0,8,,,,,,,,4,,,69,104
74280,note_on,36,0,11,,,,,,,,10,,,55,104
74280,note_on,36,0,12,,,,,,,,11,,,43,104
74280,note_on,38,0,10,,,,,,,,8,,,57,104
74280,note_on,48,0,4,,,,,,,,3,,,55,64
74346,note_on,66,0,4,,,,,,,,3,,,55,0
74354,note_on,74,0,8,,,,,,,,4,,,69,0
74354,note_on,74,0,10,,,,,,,,8,,,57,0
74360,note_on,80,0,12,,,,,,,,11,,,43,0
74360,note_on,80,0,11,,,,,,,,10,,,55,0
74400,note_on,54,0,4,,,,,,,,3,,,55,64
74400,note_on,46,0,8,,,,,,,,4,,,71,105
74400,note_on,46,0,10,,,,,,,,8,,,59,105
74400,note_on,40,0,11,,,,,,,,10,,,55,105
74400,note_on,40,0,12,,,,,,,,11,,,43,105
74466,note_on,66,0,4,,,,,,,,3,,,55,0
74472,note_on,72,0,10,,,,,,,,8,,,59,0
74474,note_on,74,0,8,,,,,,,,4,,,71,0
74482,note_on,82,0,12,,,,,,,,11,,,43,0
74482,note_on,82,0,11,,,,,,,,10,,,55,0
74520,note_on,38,0,11,,,,,,,,10,,,55,106
74520,note_on,54,0,4,,,,,,,,3,,,55,64
74520,note_on,46,0,8,,,,,,,,4,,,67,106
74520,note_on,38,0,12,,,,,,,,11,,,43,106
74520,note_on,48,0,10,,,,,,,,8,,,55,106
74546,note_on,386,0,2,,,,,,,,1,,,74,0
74562,note_on,16,0,2,,,,,,,,1,,,77,0
74564,note_on,404,0,1,,,,,,,,0,,,83,0
74564,note_on,404,0,3,,,,,,,,2,,,65,0
74566,note_on,2,0,3,,,,,,,,2,,,71,0
74576,note_on,56,0,8,,,,,,,,4,,,77,0
74584,note_on,20,0,1,,,,,,,,0,,,86,0
74586,note_on,66,0,4,,,,,,,,3,,,55,0
74600,note_on,80,0,11,,,,,,,,10,,,55,0
74600,note_on,80,0,12,,,,,,,,11,,,43,0
74602,note_on,26,0,8,,,,,,,,4,,,67,0
74604,note_on,84,0,10,,,,,,,,8,,,55,0
74640,note_on,56,0,1,,,,,,,,0,,,86,64
74640,note_on,40,0,11,,,,,,,,10,,,55,108
74640,note_on,36,0,10,,,,,,,,8,,,57,108
74640,note_on,0,0,1,,,,,,,,0,,,83,64
74640,note_on,40,0,12,,,,,,,,11,,,43,108
74640,note_on,54,0,4,,,,,,,,3,,,55,64
74640,note_on,0,0,3,,,,,,,,2,,,65,64
74640,note_on,78,0,2,,,,,,,,1,,,74,64
74640,note_on,0,0,2,,,,,,,,1,,,77,64
74640,note_on,74,0,3,,,,,,,,2,,,71,64
74640,note_on,38,0,8,,,,,,,,4,,,69,108
74640,note_on,0,0,8,,,,,,,,4,,,77,108
74696,note_on,56,0,2,,,,,,,,1,,,74,0
74700,note_on,60,0,4,,,,,,,,3,,,55,0
74704,note_on,8,0,2,,,,,,,,1,,,77,0
74704,note_on,64,0,3,,,,,,,,2,,,71,0
74706,note_on,66,0,1,,,,,,,,0,,,86,0
74710,note_on,6,0,3,,,,,,,,2,,,65,0
74712,note_on,6,0,1,,,,,,,,0,,,83,0
74712,note_on,72,0,8,,,,,,,,4,,,69,0
74714,note_on,74,0,10,,,,,,,,8,,,57,0
74716,note_on,76,0,12,,,,,,,,11,,,43,0
74716,note_on,76,0,11,,,,,,,,10,,,55,0
74722,note_on,10,0,8,,,,,,,,4,,,77,0
74760,note_on,44,0,12,,,,,,,,11,,,43,109
74760,note_on,60,0,4,,,,,,,,3,,,55,64
74760,note_on,38,0,8,,,,,,,,4,,,71,109
74760,note_on,44,0,11,,,,,,,,10,,,55,109
74760,note_on,46,0,10,,,,,,,,8,,,59,109
74830,note_on,70,0,4,,,,,,,,3,,,55,0
74834,note_on,74,0,10,,,,,,,,8,,,59,0
74840,note_on,80,0,8,,,,,,,,4,,,71,0
74840,note_on,80,0,12,,,,,,,,11,,,43,0
74840,note_on,80,0,11,,,,,,,,10,,,55,0
74880,note_on,40,0,12,,,,,,,,11,,,31,64
74880,note_on,0,0,8,,,,,,,,4,,,72,110
74880,note_on,40,0,8,,,,,,,,4,,,76,110
74880,note_on,50,0,4,,,,,,,,3,,,55,64
74880,note_on,0,0,3,,,,,,,,2,,,72,64
74880,note_on,0,0,2,,,,,,,,1,,,72,64
74880,note_on,0,0,5,,,,,,,,5,,,55,64
74880,note_on,904,0,5,,,,,,,,5,,,43,64
74880,note_on,170,0,3,,,,,,,,2,,,64,64
74880,note_on,0,0,1,,,,,,,,0,,,84,64
74880,note_on,168,0,1,,,,,,,,0,,,88,64
74880,note_on,0,0,6,,,,,,,,6,,,55,64
74880,note_on,876,0,6,,,,,,,,6,,,67,64
74880,note_on,40,0,11,,,,,,,,10,,,43,110
74880,note_on,46,0,10,,,,,,,,8,,,60,110
74880,note_on,176,0,2,,,,,,,,1,,,76,64
74880,note_on,876,0,7,,,,,,,,7,,,43,64
74922,note_on,42,0,2,,,,,,,,1,,,72,0
74932,note_on,52,0,1,,,,,,,,0,,,84,0
74934,note_on,12,0,2,,,,,,,,1,,,76,0
74936,note_on,56,0,5,,,,,,,,5,,,43,0
74936,note_on,4,0,1,,,,,,,,0,,,88,0
74942,note_on,6,0,5,,,,,,,,5,,,55,0
74944,note_on,64,0,3,,,,,,,,2,,,64,0
74944,note_on,64,0,4,,,,,,,,3,,,55,0
74946,note_on,2,0,3,,,,,,,,2,,,72,0
74952,note_on,72,0,10,,,,,,,,8,,,60,0
74960,note_on,80,0,8,,,,,,,,4,,,72,0
74966,note_on,6,0,8,,,,,,,,4,,,76,0
74970,note_on,90,0,7,,,,,,,,7,,,43,0
74970,note_on,90,0,6,,,,,,,,6,,,55,0
74970,note_on,0,0,6,,,,,,,,6,,,67,0
74990,note_on,110,0,11,,,,,,,,10,,,43,0
74990,note_on,110,0,12,,,,,,,,11,,,31,0
75000,note_on,56,0,4,,,,,,,,3,,,55,64
75000,note_on,34,0,8,,,,,,,,4,,,71,111
75000,note_on,10,0,12,,,,,,,,11,,,43,111
75000,note_on,10,0,11,,,,,,,,10,,,55,111
75000,note_on,48,0,10,,,,,,,,8,,,59,111
75082,note_on,82,0,12,,,,,,,,11,,,43,0
75082,note_on,82,0,11,,,,,,,,10,,,55,0
75084,note_on,84,0,4,,,,,,,,3,,,55,0
75084,note_on,84,0,10,,,,,,,,8,,,59,0
75086,note_on,86,0,8,,,,,,,,4,,,71,0
75120,note_on,186,0,2,,,,,,,,1,,,84,64
75120,note_on,0,0,1,,,,,,,,0,,,88,64
75120,note_on,34,0,8,,,,,,,,4,,,72,113
75120,note_on,0,0,3,,,,,,,,2,,,64,64
75120,note_on,174,0,3,,,,,,,,2,,,72,64
75120,note_on,184,0,1,,,,,,,,0,,,84,64
75120,note_on,0,0,8,,,,,,,,4,,,84,113
75120,note_on,0,0,2,,,,,,,,1,,,76,64
75120,note_on,36,0,10,,,,,,,,8,,,60,113
75120,note_on,36,0,4,,,,,,,,3,,,60,64
75120,note_on,38,0,11,,,,,,,,10,,,55,113
75120,note_on,38,0,12,,,,,,,,11,,,43,113
75184,note_on,64,0,4,,,,,,,,3,,,60,0
75192,note_on,72,0,8,,,,,,,,4,,,72,0
75196,note_on,76,0,10,,,,,,,,8,,,60,0
75202,note_on,82,0,11,,,,,,,,10,,,55,0
75202,note_on,82,0,12,,,,,,,,11,,,43,0
75240,note_on,44,0,10,,,,,,,,8,,,62,114
75240,note_on,38,0,12,,,,,,,,11,,,43,114
75240,note_on,48,0,8,,,,,,,,4,,,74,114
75240,note_on,0,0,4,,,,,,,,3,,,55,64
75240,note_on,56,0,4,,,,,,,,3,,,62,64
75240,note_on,38,0,11,,,,,,,,10,,,55,114
75290,note_on,50,0,4,,,,,,,,3,,,62,0
75296,note_on,6,0,4,,,,,,,,3,,,55,0
75314,note_on,74,0,8,,,,,,,,4,,,74,0
75316,note_on,76,0,10,,,,,,,,8,,,62,0
75322,note_on,82,0,11,,,,,,,,10,,,55,0
75322,note_on,82,0,12,,,,,,,,11,,,43,0
75360,note_on,44,0,10,,,,,,,,8,,,64,115
75360,note_on,38,0,11,,,,,,,,10,,,55,115
75360,note_on,0,0,4,,,,,,,,3,,,64,64
75360,note_on,64,0,4,,,,,,,,3,,,55,64
75360,note_on,38,0,12,,,,,,,,11,,,43,115
75360,note_on,46,0,8,,,,,,,,4,,,76,115
75406,note_on,46,0,4,,,,,,,,3,,,55,0
75424,note_on,64,0,8,,,,,,,,4,,,76,0
75426,note_on,20,0,4,,,,,,,,3,,,64,0
75436,note_on,76,0,10,,,,,,,,8,,,64,0
75442,note_on,82,0,11,,,,,,,,10,,,55,0
75442,note_on,322,0,2,,,,,,,,1,,,76,0
75442,note_on,82,0,12,,,,,,,,11,,,43,0
75476,note_on,34,0,2,,,,,,,,1,,,84,0
75480,note_on,38,0,12,,,,,,,,11,,,43,116
75480,note_on,38,0,11,,,,,,,,10,,,55,116
75480,note_on,56,0,8,,,,,,,,4,,,74,116
75480,note_on,54,0,4,,,,,,,,3,,,55,64
75480,note_on,0,0,4,,,,,,,,3,,,62,64
75480,note_on,44,0,10,,,,,,,,8,,,62,116
75502,note_on,382,0,3,,,,,,,,2,,,72,0
75506,note_on,26,0,8,,,,,,,,4,,,84,0
75510,note_on,8,0,3,,,,,,,,2,,,64,0
75526,note_on,406,0,1,,,,,,,,0,,,88,0
75534,note_on,8,0,1,,,,,,,,0,,,84,0
75534,note_on,54,0,4,,,,,,,,3,,,55,0
75540,note_on,6,0,4,,,,,,,,3,,,62,0
75562,note_on,82,0,11,,,,,,,,10,,,55,0
75562,note_on,82,0,10,,,,,,,,8,,,62,0
75562,note_on,82,0,12,,,,,,,,11,,,43,0
75570,note_on,64,0,8,,,,,,,,4,,,74,0
75600,note_on,30,0,8,,,,,,,,4,,,76,118
75600,note_on,0,0,8,,,,,,,,4,,,84,118
75600,note_on,66,0,1,,,,,,,,0,,,88,64
75600,note_on,38,0,10,,,,,,,,8,,,64,118
75600,note_on,0,0,1,,,,,,,,0,,,84,64
75600,note_on,0,0,3,,,,,,,,2,,,64,64
75600,note_on,60,0,4,,,,,,,,3,,,55,64
75600,note_on,0,0,2,,,,,,,,1,,,84,64
75600,note_on,0,0,4,,,,,,,,3,,,64,64
75600,note_on,90,0,3,,,,,,,,2,,,72,64
75600,note_on,38,0,11,,,,,,,,10,,,55,118
75600,note_on,124,0,2,,,,,,,,1,,,76,64
75600,note_on,38,0,12,,,,,,,,11,,,43,118
75646,note_on,46,0,4,,,,,,,,3,,,55,0
75656,note_on,10,0,4,,,,,,,,3,,,64,0
75656,note_on,56,0,3,,,,,,,,2,,,72,0
75664,note_on,64,0,2,,,,,,,,1,,,76,0
75666,note_on,10,0,3,,,,,,,,2,,,64,0
75670,note_on,6,0,2,,,,,,,,1,,,84,0
75672,note_on,72,0,1,,,,,,,,0,,,88,0
75672,note_on,72,0,10,,,,,,,,8,,,64,0
75674,note_on,2,0,1,,,,,,,,0,,,84,0
75676,note_on,76,0,11,,,,,,,,10,,,55,0
75676,note_on,76,0,12,,,,,,,,11,,,43,0
75680,note_on,80,0,8,,,,,,,,4,,,76,0
75690,note_on,10,0,8,,,,,,,,4,,,84,0
75720,note_on,44,0,12,,,,,,,,11,,,43,119
75720,note_on,64,0,4,,,,,,,,3,,,55,64
75720,note_on,30,0,8,,,,,,,,4,,,78,119
75720,note_on,0,0,4,,,,,,,,3,,,66,64
75720,note_on,44,0,11,,,,,,,,10,,,55,119
75720,note_on,48,0,10,,,,,,,,8,,,66,119
75770,note_on,50,0,4,,,,,,,,3,,,55,0
75780,note_on,10,0,4,,,,,,,,3,,,66,0
75796,note_on,76,0,12,,,,,,,,11,,,43,0
75796,note_on,76,0,11,,,,,,,,10,,,55,0
75796,note_on,76,0,10,,,,,,,,8,,,66,0
75806,note_on,86,0,8,,,,,,,,4,,,78,0
75840,note_on,0,0,8,,,,,,,,4,,,83,127
75840,note_on,870,0,6,,,,,,,,6,,,55,64
75840,note_on,0,0,6,,,,,,,,6,,,67,64
75840,note_on,44,0,12,,,,,,,,11,,,43,96
75840,note_on,870,0,7,,,,,,,,7,,,43,64
75840,note_on,44,0,10,,,,,,,,8,,,67,127
75840,note_on,34,0,8,,,,,,,,4,,,79,127
75840,note_on,170,0,2,,,,,,,,1,,,74,64
75840,note_on,0,0,2,,,,,,,,1,,,83,64
75840,note_on,0,0,4,,,,,,,,3,,,67,64
75840,note_on,44,0,11,,,,,,,,10,,,55,127
75840,note_on,60,0,4,,,,,,,,3,,,55,64
75840,note_on,174,0,3,,,,,,,,2,,,62,64
75840,note_on,0,0,3,,,,,,,,2,,,71,64
75840,note_on,898,0,5,,,,,,,,5,,,55,64
75840,note_on,0,0,5,,,,,,,,5,,,43,64
75840,note_on,0,0,1,,,,,,,,0,,,83,64
75840,note_on,166,0,1,,,,,,,,0,,,86,64
75862,note_on,22,0,5,,,,,,,,5,,,43,0
75890,note_on,50,0,1,,,,,,,,0,,,86,0
75892,note_on,52,0,2,,,,,,,,1,,,74,0
75896,note_on,34,0,5,,,,,,,,5,,,55,0
75896,note_on,4,0,2,,,,,,,,1,,,83,0
75902,note_on,62,0,4,,,,,,,,3,,,67,0
75906,note_on,16,0,1,,,,,,,,0,,,83,0
75906,note_on,4,0,4,,,,,,,,3,,,55,0
75912,note_on,72,0,3,,,,,,,,2,,,62,0
75922,note_on,82,0,8,,,,,,,,4,,,83,0
75924,note_on,0,0,6,,,,,,,,6,,,55,0
75924,note_on,84,0,12,,,,,,,,11,,,43,0
75924,note_on,84,0,7,,,,,,,,7,,,43,0
75924,note_on,84,0,11,,,,,,,,10,,,55,0
75924,note_on,84,0,6,,,,,,,,6,,,67,0
75930,note_on,90,0,10,,,,,,,,8,,,67,0
75932,note_on,10,0,8,,,,,,,,4,,,79,0
75936,note_on,24,0,3,,,,,,,,2,,,71,0
75960,note_on,30,0,10,,,,,,,,8,,,62,127
75960,note_on,28,0,8,,,,,,,,4,,,79,127
76054,note_on,94,0,10,,,,,,,,8,,,62,0
76076,note_on,116,0,8,,,,,,,,4,,,79,0
76080,note_on,156,0,11,,,,,,,,10,,,50,127
76080,note_on,174,0,4,,,,,,,,3,,,57,64
76080,note_on,184,0,2,,,,,,,,1,,,78,64
76080,note_on,0,0,2,,,,,,,,1,,,69,64
76080,note_on,26,0,10,,,,,,,,8,,,62,127
76080,note_on,0,0,8,,,,,,,,4,,,84,127
76080,note_on,0,0,8,,,,,,,,4,,,78,127
76080,note_on,4,0,8,,,,,,,,4,,,74,127
76080,note_on,144,0,3,,,,,,,,2,,,66,64
76080,note_on,174,0,1,,,,,,,,0,,,86,64
76080,note_on,0,0,1,,,,,,,,0,,,84,64
76080,note_on,184,0,5,,,,,,,,5,,,62,64
76080,note_on,156,0,12,,,,,,,,11,,,38,64
76080,note_on,0,0,3,,,,,,,,2,,,69,64
76126,note_on,46,0,5,,,,,,,,5,,,62,0
76134,note_on,54,0,2,,,,,,,,1,,,69,0
76134,note_on,0,0,2,,,,,,,,1,,,78,0
76142,note_on,62,0,1,,,,,,,,0,,,86,0
76144,note_on,2,0,1,,,,,,,,0,,,84,0
76160,note_on,80,0,4,,,,,,,,3,,,57,0
76160,note_on,80,0,8,,,,,,,,4,,,74,0
76166,note_on,6,0,8,,,,,,,,4,,,84,0
76172,note_on,92,0,11,,,,,,,,10,,,50,0
76172,note_on,92,0,12,,,,,,,,11,,,38,0
76174,note_on,94,0,3,,,,,,,,2,,,66,0
76174,note_on,94,0,10,,,,,,,,8,,,62,0
76182,note_on,16,0,8,,,,,,,,4,,,78,0
76184,note_on,10,0,3,,,,,,,,2,,,69,0
76200,note_on,26,0,10,,,,,,,,8,,,62,127
76200,note_on,18,0,8,,,,,,,,4,,,78,127
76296,note_on,96,0,10,,,,,,,,8,,,62,0
76296,note_on,96,0,8,,,,,,,,4,,,78,0
76320,note_on,176,0,1,,,,,,,,0,,,86,64
76320,note_on,148,0,11,,,,,,,,10,,,55,127
76320,note_on,0,0,1,,,,,,,,0,,,83,64
76320,note_on,148,0,12,,,,,,,,11,,,43,96
76320,note_on,24,0,10,,,,,,,,8,,,62,127
76320,note_on,136,0,3,,,,,,,,2,,,67,64
76320,note_on,0,0,3,,,,,,,,2,,,71,64
76320,note_on,24,0,8,,,,,,,,4,,,74,127
76320,note_on,0,0,2,,,,,,,,1,,,71,64
76320,note_on,0,0,2,,,,,,,,1,,,79,64
76320,note_on,186,0,2,,,,,,,,1,,,77,64
76320,note_on,160,0,4,,,,,,,,3,,,59,64
76320,note_on,0,0,8,,,,,,,,4,,,83,127
76320,note_on,0,0,4,,,,,,,,3,,,55,64
76320,note_on,0,0,8,,,,,,,,4,,,79,127
76320,note_on,194,0,5,,,,,,,,5,,,62,64
76346,note_on,26,0,2,,,,,,,,1,,,77,0
76372,note_on,26,0,2,,,,,,,,1,,,79,0
76376,note_on,56,0,4,,,,,,,,3,,,55,0
76376,note_on,0,0,4,,,,,,,,3,,,59,0
76376,note_on,4,0,2,,,,,,,,1,,,71,0
76380,note_on,60,0,5,,,,,,,,5,,,62,0
76382,note_on,62,0,1,,,,,,,,0,,,86,0
76390,note_on,8,0,1,,,,,,,,0,,,83,0
76396,note_on,76,0,8,,,,,,,,4,,,74,0
76404,note_on,84,0,11,,,,,,,,10,,,55,0
76404,note_on,84,0,12,,,,,,,,11,,,43,0
76406,note_on,10,0,8,,,,,,,,4,,,83,0
76410,note_on,90,0,3,,,,,,,,2,,,67,0
76412,note_on,6,0,8,,,,,,,,4,,,79,0
76412,note_on,92,0,10,,,,,,,,8,,,62,0
76416,note_on,6,0,3,,,,,,,,2,,,71,0
76440,note_on,28,0,8,,,,,,,,4,,,79,127
76440,note_on,28,0,10,,,,,,,,8,,,62,127
76522,note_on,82,0,10,,,,,,,,8,,,62,0
76534,note_on,94,0,8,,,,,,,,4,,,79,0
76560,note_on,180,0,5,,,,,,,,5,,,62,64
76560,note_on,0,0,3,,,,,,,,2,,,66,64
76560,note_on,184,0,4,,,,,,,,3,,,57,64
76560,note_on,0,0,4,,,,,,,,3,,,60,64
76560,note_on,184,0,2,,,,,,,,1,,,69,64
76560,note_on,0,0,2,,,,,,,,1,,,78,64
76560,note_on,0,0,8,,,,,,,,4,,,84,127
76560,note_on,26,0,8,,,,,,,,4,,,74,127
76560,note_on,144,0,3,,,,,,,,2,,,69,64
76560,note_on,0,0,8,,,,,,,,4,,,78,127
76560,note_on,156,0,11,,,,,,,,10,,,50,127
76560,note_on,170,0,1,,,,,,,,0,,,84,64
76560,note_on,38,0,10,,,,,,,,8,,,62,127
76560,note_on,156,0,12,,,,,,,,11,,,38,64
76560,note_on,0,0,1,,,,,,,,0,,,86,64
76610,note_on,50,0,2,,,,,,,,1,,,69,0
76614,note_on,54,0,5,,,,,,,,5,,,62,0
76620,note_on,0,0,1,,,,,,,,0,,,84,0
76620,note_on,60,0,1,,,,,,,,0,,,86,0
76622,note_on,62,0,4,,,,,,,,3,,,57,0
76622,note_on,12,0,2,,,,,,,,1,,,78,0
76624,note_on,64,0,3,,,,,,,,2,,,66,0
76624,note_on,0,0,3,,,,,,,,2,,,69,0
76630,note_on,8,0,4,,,,,,,,3,,,60,0
76636,note_on,76,0,8,,,,,,,,4,,,74,0
76644,note_on,8,0,8,,,,,,,,4,,,84,0
76650,note_on,90,0,10,,,,,,,,8,,,62,0
76652,note_on,8,0,8,,,,,,,,4,,,78,0
76654,note_on,94,0,12,,,,,,,,11,,,38,0
76654,note_on,94,0,11,,,,,,,,10,,,50,0
76680,note_on,30,0,10,,,,,,,,8,,,62,127
76680,note_on,28,0,8,,,,,,,,4,,,78,127
76764,note_on,84,0,10,,,,,,,,8,,,62,0
76774,note_on,94,0,8,,,,,,,,4,,,78,0
76800,note_on,36,0,10,,,,,,,,8,,,62,127
76800,note_on,178,0,2,,,,,,,,1,,,79,64
76800,note_on,0,0,6,,,,,,,,6,,,67,64
76800,note_on,176,0,3,,,,,,,,2,,,67,64
76800,note_on,876,0,6,,,,,,,,6,,,55,64
76800,note_on,0,0,2,,,,,,,,1,,,71,64
76800,note_on,146,0,12,,,,,,,,11,,,43,96
76800,note_on,876,0,7,,,,,,,,7,,,43,64
76800,note_on,0,0,3,,,,,,,,2,,,71,64
76800,note_on,0,0,4,,,,,,,,3,,,59,64
76800,note_on,170,0,4,,,,,,,,3,,,55,64
76800,note_on,0,0,8,,,,,,,,4,,,83,127
76800,note_on,0,0,8,,,,,,,,4,,,74,127
76800,note_on,146,0,11,,,,,,,,10,,,55,127
76800,note_on,26,0,8,,,,,,,,4,,,79,127
76800,note_on,180,0,1,,,,,,,,0,,,86,64
76800,note_on,0,0,1,,,,,,,,0,,,83,64
76800,note_on,186,0,5,,,,,,,,5,,,62,64
76852,note_on,52,0,1,,,,,,,,0,,,86,0
76862,note_on,62,0,2,,,,,,,,1,,,71,0
76862,note_on,0,0,2,,,,,,,,1,,,79,0
76864,note_on,64,0,5,,,,,,,,5,,,62,0
76864,note_on,0,0,4,,,,,,,,3,,,55,0
76864,note_on,64,0,4,,,,,,,,3,,,59,0
76870,note_on,70,0,3,,,,,,,,2,,,67,0
76872,note_on,72,0,8,,,,,,,,4,,,74,0
76872,note_on,2,0,3,,,,,,,,2,,,71,0
76874,note_on,22,0,1,,,,,,,,0,,,83,0
76880,note_on,80,0,11,,,,,,,,10,,,55,0
76880,note_on,80,0,12,,,,,,,,11,,,43,0
76884,note_on,12,0,8,,,,,,,,4,,,83,0
76890,note_on,90,0,10,,,,,,,,8,,,62,0
76896,note_on,12,0,8,,,,,,,,4,,,79,0
76896,note_on,96,0,7,,,,,,,,7,,,43,0
76896,note_on,0,0,6,,,,,,,,6,,,55,0
76896,note_on,96,0,6,,,,,,,,6,,,67,0
76920,note_on,24,0,8,,,,,,,,4,,,79,127
76920,note_on,30,0,10,,,,,,,,8,,,62,127
77006,note_on,86,0,10,,,,,,,,8,,,62,0
77006,note_on,86,0,8,,,,,,,,4,,,79,0
77040,note_on,0,0,2,,,,,,,,1,,,78,64
77040,note_on,178,0,2,,,,,,,,1,,,69,64
77040,note_on,166,0,1,,,,,,,,0,,,86,64
77040,note_on,160,0,12,,,,,,,,11,,,38,64
77040,note_on,0,0,1,,,,,,,,0,,,84,64
77040,note_on,0,0,3,,,,,,,,2,,,69,64
77040,note_on,0,0,8,,,,,,,,4,,,78,127
77040,note_on,160,0,11,,,,,,,,10,,,50,127
77040,note_on,176,0,4,,,,,,,,3,,,60,64
77040,note_on,0,0,4,,,,,,,,3,,,57,64
77040,note_on,34,0,10,,,,,,,,8,,,62,127
77040,note_on,168,0,3,,,,,,,,2,,,66,64
77040,note_on,34,0,8,,,,,,,,4,,,74,127
77040,note_on,0,0,8,,,,,,,,4,,,84,127
77040,note_on,176,0,5,,,,,,,,5,,,62,64
77086,note_on,46,0,2,,,,,,,,1,,,69,0
77092,note_on,52,0,5,,,,,,,,5,,,62,0
77092,note_on,52,0,1,,,,,,,,0,,,86,0
77094,note_on,54,0,3,,,,,,,,2,,,69,0
77100,note_on,60,0,4,,,,,,,,3,,,60,0
77100,note_on,6,0,3,,,,,,,,2,,,66,0
77102,note_on,16,0,2,,,,,,,,1,,,78,0
77104,note_on,4,0,4,,,,,,,,3,,,57,0
77104,note_on,12,0,1,,,,,,,,0,,,84,0
77112,note_on,72,0,8,,,,,,,,4,,,74,0
77122,note_on,10,0,8,,,,,,,,4,,,84,0
77124,note_on,2,0,8,,,,,,,,4,,,78,0
77130,note_on,90,0,10,,,,,,,,8,,,62,0
77134,note_on,94,0,12,,,,,,,,11,,,38,0
77134,note_on,94,0,11,,,,,,,,10,,,50,0
77160,note_on,30,0,10,,,,,,,,8,,,62,127
77160,note_on,36,0,8,,,,,,,,4,,,78,127
77242,note_on,82,0,10,,,,,,,,8,,,62,0
77250,note_on,90,0,8,,,,,,,,4,,,78,0
77280,note_on,176,0,1,,,,,,,,0,,,86,64
77280,note_on,178,0,2,,,,,,,,1,,,71,64
77280,note_on,0,0,1,,,,,,,,0,,,83,64
77280,note_on,188,0,5,,,,,,,,5,,,62,64
77280,note_on,0,0,2,,,,,,,,1,,,79,64
77280,note_on,38,0,10,,,,,,,,8,,,62,127
77280,note_on,176,0,4,,,,,,,,3,,,55,64
77280,note_on,30,0,8,,,,,,,,4,,,74,127
77280,note_on,146,0,12,,,,,,,,11,,,43,96
77280,note_on,146,0,11,,,,,,,,10,,,55,127
77280,note_on,0,0,8,,,,,,,,4,,,83,127
77280,note_on,0,0,4,,,,,,,,3,,,59,64
77280,note_on,180,0,3,,,,,,,,2,,,67,64
77280,note_on,0,0,8,,,,,,,,4,,,79,127
77280,note_on,0,0,3,,,,,,,,2,,,71,64
77334,note_on,54,0,1,,,,,,,,0,,,86,0
77336,note_on,56,0,2,,,,,,,,1,,,71,0
77340,note_on,60,0,3,,,,,,,,2,,,67,0
77340,note_on,60,0,5,,,,,,,,5,,,62,0
77342,note_on,6,0,2,,,,,,,,1,,,79,0
77342,note_on,62,0,4,,,,,,,,3,,,55,0
77346,note_on,12,0,1,,,,,,,,0,,,83,0
77350,note_on,8,0,4,,,,,,,,3,,,59,0
77350,note_on,10,0,3,,,,,,,,2,,,71,0
77354,note_on,74,0,8,,,,,,,,4,,,74,0
77362,note_on,8,0,8,,,,,,,,4,,,79,0
77362,note_on,82,0,10,,,,,,,,8,,,62,0
77366,note_on,4,0,8,,,,,,,,4,,,83,0
77370,note_on,90,0,11,,,,,,,,10,,,55,0
77370,note_on,90,0,12,,,,,,,,11,,,43,0
77400,note_on,38,0,10,,,,,,,,8,,,62,127
77400,note_on,34,0,8,,,,,,,,4,,,79,127
77480,note_on,80,0,10,,,,,,,,8,,,62,0
77486,note_on,86,0,8,,,,,,,,4,,,79,0
77520,note_on,0,0,8,,,,,,,,4,,,84,127
77520,note_on,170,0,4,,,,,,,,3,,,60,64
77520,note_on,0,0,4,,,,,,,,3,,,57,64
77520,note_on,0,0,8,,,,,,,,4,,,74,127
77520,note_on,180,0,5,,,,,,,,5,,,62,64
77520,note_on,40,0,10,,,,,,,,8,,,62,127
77520,note_on,150,0,11,,,,,,,,10,,,50,127
77520,note_on,174,0,1,,,,,,,,0,,,86,64
77520,note_on,178,0,2,,,,,,,,1,,,69,64
77520,note_on,170,0,3,,,,,,,,2,,,69,64
77520,note_on,0,0,3,,,,,,,,2,,,66,64
77520,note_on,150,0,12,,,,,,,,11,,,38,64
77520,note_on,0,0,2,,,,,,,,1,,,78,64
77520,note_on,0,0,1,,,,,,,,0,,,84,64
77520,note_on,34,0,8,,,,,,,,4,,,78,127
77576,note_on,56,0,2,,,,,,,,1,,,69,0
77580,note_on,60,0,3,,,,,,,,2,,,66,0
77580,note_on,0,0,4,,,,,,,,3,,,60,0
77580,note_on,60,0,5,,,,,,,,5,,,62,0
77580,note_on,60,0,4,,,,,,,,3,,,57,0
77580,note_on,0,0,3,,,,,,,,2,,,69,0
77582,note_on,62,0,1,,,,,,,,0,,,86,0
77586,note_on,10,0,2,,,,,,,,1,,,78,0
77586,note_on,4,0,1,,,,,,,,0,,,84,0
77592,note_on,72,0,8,,,,,,,,4,,,78,0
77594,note_on,2,0,8,,,,,,,,4,,,74,0
77596,note_on,76,0,10,,,,,,,,8,,,62,0
77602,note_on,8,0,8,,,,,,,,4,,,84,0
77616,note_on,96,0,11,,,,,,,,10,,,50,0
77616,note_on,96,0,12,,,,,,,,11,,,38,0
77640,note_on,44,0,10,,,,,,,,8,,,62,127
77640,note_on,38,0,8,,,,,,,,4,,,78,127
77722,note_on,82,0,10,,,,,,,,8,,,62,0
77724,note_on,84,0,8,,,,,,,,4,,,78,0
77760,note_on,864,0,6,,,,,,,,6,,,67,64
77760,note_on,174,0,1,,,,,,,,0,,,83,64
77760,note_on,174,0,2,,,,,,,,1,,,79,64
77760,note_on,0,0,2,,,,,,,,1,,,71,64
77760,note_on,144,0,11,,,,,,,,10,,,55,127
77760,note_on,0,0,4,,,,,,,,3,,,59,64
77760,note_on,180,0,4,,,,,,,,3,,,55,64
77760,note_on,38,0,10,,,,,,,,8,,,62,127
77760,note_on,0,0,6,,,,,,,,6,,,55,64
77760,set_tempo,28800,1,0,,,,,,441176,,,,,,
77760,note_on,0,0,8,,,,,,,,4,,,83,127
77760,note_on,36,0,8,,,,,,,,4,,,74,127
77760,note_on,0,0,1,,,,,,,,0,,,86,64
77760,note_on,180,0,5,,,,,,,,5,,,55,64
77760,note_on,0,0,3,,,,,,,,2,,,67,64
77760,note_on,144,0,12,,,,,,,,11,,,43,96
77760,note_on,0,0,5,,,,,,,,5,,,62,64
77760,note_on,0,0,8,,,,,,,,4,,,79,127
77760,note_on,864,0,7,,,,,,,,7,,,43,64
77760,note_on,180,0,3,,,,,,,,2,,,71,64
77816,note_on,56,0,1,,,,,,,,0,,,86,0
77826,note_on,10,0,1,,,,,,,,0,,,83,0
77826,note_on,66,0,5,,,,,,,,5,,,55,0
77830,note_on,70,0,2,,,,,,,,1,,,71,0
77830,note_on,4,0,5,,,,,,,,5,,,62,0
77846,note_on,86,0,3,,,,,,,,2,,,71,0
77846,note_on,86,0,7,,,,,,,,7,,,43,0
77846,note_on,0,0,6,,,,,,,,6,,,67,0
77846,note_on,16,0,2,,,,,,,,1,,,79,0
77846,note_on,86,0,6,,,,,,,,6,,,55,0
77850,note_on,90,0,4,,,,,,,,3,,,55,0
77852,note_on,92,0,8,,,,,,,,4,,,74,0
77852,note_on,6,0,3,,,,,,,,2,,,67,0
77852,note_on,2,0,4,,,,,,,,3,,,59,0
77856,note_on,96,0,12,,,,,,,,11,,,43,0
77856,note_on,96,0,11,,,,,,,,10,,,55,0
77856,note_on,4,0,8,,,,,,,,4,,,83,0
77866,note_on,106,0,10,,,,,,,,8,,,62,0
77882,note_on,26,0,8,,,,,,,,4,,,79,0
78240,note_on,0,0,8,,,,,,,,4,,,62,127
78240,note_on,388,0,3,,,,,,,,2,,,67,64
78240,note_on,0,0,3,,,,,,,,2,,,79,64
78240,note_on,0,0,2,,,,,,,,1,,,79,64
78240,note_on,0,0,6,,,,,,,,6,,,55,64
78240,note_on,394,0,6,,,,,,,,6,,,67,64
78240,note_on,388,0,4,,,,,,,,3,,,43,64
78240,note_on,394,0,2,,,,,,,,1,,,71,64
78240,note_on,374,0,10,,,,,,,,8,,,55,127
78240,note_on,0,0,1,,,,,,,,0,,,83,64
78240,note_on,414,0,1,,,,,,,,0,,,91,64
78240,note_on,384,0,11,,,,,,,,10,,,43,127
78240,note_on,384,0,12,,,,,,,,11,,,31,64
78240,note_on,410,0,5,,,,,,,,5,,,55,64
78240,note_on,0,0,5,,,,,,,,5,,,67,64
78240,note_on,0,0,8,,,,,,,,4,,,55,127
78240,note_on,0,0,8,,,,,,,,4,,,79,127
78240,note_on,358,0,8,,,,,,,,4,,,71,127
78240,note_on,394,0,7,,,,,,,,7,,,43,64
78290,note_on,50,0,1,,,,,,,,0,,,91,0
78310,note_on,20,0,1,,,,,,,,0,,,83,0
78314,note_on,74,0,5,,,,,,,,5,,,55,0
78320,note_on,80,0,2,,,,,,,,1,,,71,0
78322,note_on,2,0,2,,,,,,,,1,,,79,0
78324,note_on,0,0,6,,,,,,,,6,,,67,0
78324,note_on,84,0,6,,,,,,,,6,,,55,0
78324,note_on,84,0,7,,,,,,,,7,,,43,0
78324,note_on,10,0,5,,,,,,,,5,,,67,0
78336,note_on,96,0,10,,,,,,,,8,,,55,0
78340,note_on,100,0,3,,,,,,,,2,,,79,0
78340,note_on,0,0,3,,,,,,,,2,,,67,0
78350,note_on,110,0,8,,,,,,,,4,,,71,0
78354,note_on,114,0,12,,,,,,,,11,,,31,0
78354,note_on,114,0,11,,,,,,,,10,,,43,0
78360,note_on,10,0,8,,,,,,,,4,,,79,0
78364,note_on,4,0,8,,,,,,,,4,,,55,0
78366,note_on,126,0,4,,,,,,,,3,,,43,0
78376,note_on,12,0,8,,,,,,,,4,,,62,0
78720,note_on,344,0,8,,,,,,,,4,,,55,127
78720,note_on,384,0,10,,,,,,,,8,,,55,127
78720,note_on,354,0,4,,,,,,,,3,,,43,64
78720,note_on,380,0,3,,,,,,,,2,,,55,64
78720,note_on,0,0,3,,,,,,,,2,,,67,64
78720,note_on,398,0,2,,,,,,,,1,,,67,64
78720,note_on,366,0,11,,,,,,,,10,,,43,127
78720,note_on,396,0,7,,,,,,,,7,,,43,64
78720,note_on,0,0,6,,,,,,,,6,,,55,64
78720,note_on,366,0,12,,,,,,,,11,,,31,64
78720,note_on,396,0,6,,,,,,,,6,,,67,64
78720,note_on,396,0,5,,,,,,,,5,,,55,64
78720,note_on,410,0,1,,,,,,,,0,,,79,64
78786,note_on,66,0,1,,,,,,,,0,,,79,0
78796,note_on,76,0,5,,,,,,,,5,,,55,0
78800,note_on,80,0,2,,,,,,,,1,,,67,0
78806,note_on,86,0,7,,,,,,,,7,,,43,0
78806,note_on,86,0,3,,,,,,,,2,,,55,0
78806,note_on,86,0,6,,,,,,,,6,,,55,0
78806,note_on,0,0,6,,,,,,,,6,,,67,0
78814,note_on,8,0,3,,,,,,,,2,,,67,0
78814,note_on,94,0,10,,,,,,,,8,,,55,0
78820,note_on,100,0,8,,,,,,,,4,,,55,0
78832,note_on,112,0,4,,,,,,,,3,,,43,0
78842,note_on,122,0,12,,,,,,,,11,,,31,0
78842,note_on,122,0,11,,,,,,,,10,,,43,0
79680,note_on,838,0,12,,,,,,,,11,,,43,45
79680,note_on,860,0,8,,,,,,,,4,,,67,67
79680,set_tempo,1920,1,0,,,,,,394737,,,,,,
79680,note_on,866,0,10,,,,,,,,8,,,55,67
79680,note_on,838,0,11,,,,,,,,10,,,55,67
79680,note_on,880,0,2,,,,,,,,1,,,67,64
79680,note_on,848,0,4,,,,,,,,3,,,55,64
79752,note_on,72,0,8,,,,,,,,4,,,67,0
79770,note_on,90,0,10,,,,,,,,8,,,55,0
79776,note_on,96,0,12,,,,,,,,11,,,43,0
79776,note_on,96,0,11,,,,,,,,10,,,55,0
79800,note_on,120,0,4,,,,,,,,3,,,55,0
79810,note_on,130,0,2,,,,,,,,1,,,67,0
79920,note_on,0,0,1,,,,,,,,0,,,71,64
79920,note_on,1134,0,1,,,,,,,,0,,,74,64
79966,note_on,46,0,1,,,,,,,,0,,,74,0
79972,note_on,6,0,1,,,,,,,,0,,,71,0
80160,note_on,188,0,1,,,,,,,,0,,,74,64
80160,note_on,0,0,1,,,,,,,,0,,,79,64
80206,note_on,46,0,1,,,,,,,,0,,,74,0
80210,note_on,4,0,1,,,,,,,,0,,,79,0
80400,note_on,0,0,1,,,,,,,,0,,,79,64
80400,note_on,190,0,1,,,,,,,,0,,,83,64
80450,note_on,50,0,1,,,,,,,,0,,,79,0
80450,note_on,0,0,1,,,,,,,,0,,,83,0
80640,note_on,190,0,1,,,,,,,,0,,,86,64
80640,note_on,0,0,1,,,,,,,,0,,,83,64
80880,note_on,1070,0,2,,,,,,,,1,,,67,64
80952,note_on,72,0,2,,,,,,,,1,,,67,0
81120,note_on,168,0,2,,,,,,,,1,,,71,64
81176,note_on,56,0,2,,,,,,,,1,,,71,0
81360,note_on,184,0,2,,,,,,,,1,,,74,64
81416,note_on,56,0,2,,,,,,,,1,,,74,0
81600,note_on,0,0,8,,,,,,,,4,,,79,96
81600,control_change,1848,0,8,,,,,,,,4,7,60,,
81600,note_on,184,0,2,,,,,,,,1,,,79,64
81614,note_on,974,0,1,,,,,,,,0,,,86,0
81630,note_on,16,0,1,,,,,,,,0,,,83,0
81664,note_on,64,0,8,,,,,,,,4,,,79,0
81682,note_on,82,0,2,,,,,,,,1,,,79,0
81840,note_on,0,0,1,,,,,,,,0,,,86,64
81840,note_on,210,0,1,,,,,,,,0,,,83,64
82080,note_on,398,0,2,,,,,,,,1,,,75,64
82080,note_on,416,0,8,,,,,,,,4,,,75,96
82152,note_on,72,0,8,,,,,,,,4,,,75,0
82162,note_on,82,0,2,,,,,,,,1,,,75,0
82194,note_on,354,0,1,,,,,,,,0,,,83,0
82244,note_on,50,0,1,,,,,,,,0,,,86,0
82320,note_on,76,0,1,,,,,,,,0,,,84,64
82320,note_on,0,0,1,,,,,,,,0,,,81,64
82560,note_on,408,0,8,,,,,,,,4,,,76,96
82560,note_on,398,0,2,,,,,,,,1,,,76,64
82642,note_on,82,0,8,,,,,,,,4,,,76,0
82642,note_on,82,0,2,,,,,,,,1,,,76,0
82660,note_on,340,0,1,,,,,,,,0,,,84,0
82694,note_on,34,0,1,,,,,,,,0,,,81,0
82800,note_on,106,0,1,,,,,,,,0,,,83,64
82800,note_on,0,0,1,,,,,,,,0,,,79,64
83040,note_on,398,0,2,,,,,,,,1,,,72,64
83040,note_on,398,0,8,,,,,,,,4,,,72,96
83106,note_on,66,0,2,,,,,,,,1,,,72,0
83122,note_on,82,0,8,,,,,,,,4,,,72,0
83136,note_on,336,0,1,,,,,,,,0,,,83,0
83170,note_on,34,0,1,,,,,,,,0,,,79,0
83280,note_on,0,0,1,,,,,,,,0,,,81,64
83280,note_on,110,0,1,,,,,,,,0,,,84,64
83334,note_on,54,0,1,,,,,,,,0,,,84,0
83340,note_on,6,0,1,,,,,,,,0,,,81,0
83520,note_on,180,0,1,,,,,,,,0,,,81,64
83520,note_on,0,0,1,,,,,,,,0,,,78,64
83520,note_on,414,0,2,,,,,,,,1,,,74,64
83520,note_on,398,0,8,,,,,,,,4,,,74,96
83566,note_on,46,0,1,,,,,,,,0,,,81,0
83570,note_on,4,0,1,,,,,,,,0,,,78,0
83594,note_on,74,0,8,,,,,,,,4,,,74,0
83604,note_on,84,0,2,,,,,,,,1,,,74,0
83760,note_on,0,0,1,,,,,,,,0,,,74,64
83760,note_on,190,0,1,,,,,,,,0,,,78,64
83804,note_on,44,0,1,,,,,,,,0,,,78,0
83820,note_on,16,0,1,,,,,,,,0,,,74,0
84000,note_on,180,0,1,,,,,,,,0,,,81,64
84000,note_on,0,0,1,,,,,,,,0,,,78,64
84054,note_on,54,0,1,,,,,,,,0,,,81,0
84062,note_on,8,0,1,,,,,,,,0,,,78,0
84240,note_on,0,0,1,,,,,,,,0,,,81,64
84240,note_on,178,0,1,,,,,,,,0,,,84,64
84292,note_on,52,0,1,,,,,,,,0,,,81,0
84296,note_on,4,0,1,,,,,,,,0,,,84,0
84480,note_on,0,0,1,,,,,,,,0,,,84,64
84480,note_on,184,0,1,,,,,,,,0,,,88,64
84720,note_on,1116,0,2,,,,,,,,1,,,74,64
84794,note_on,74,0,2,,,,,,,,1,,,74,0
84960,note_on,166,0,2,,,,,,,,1,,,76,64
85022,note_on,62,0,2,,,,,,,,1,,,76,0
85200,note_on,178,0,2,,,,,,,,1,,,78,64
85254,note_on,54,0,2,,,,,,,,1,,,78,0
85440,note_on,186,0,2,,,,,,,,1,,,79,64
85440,note_on,1846,0,8,,,,,,,,4,,,79,96
85516,note_on,1036,0,1,,,,,,,,0,,,88,0
85526,note_on,86,0,8,,,,,,,,4,,,79,0
85526,note_on,86,0,2,,,,,,,,1,,,79,0
85556,note_on,40,0,1,,,,,,,,0,,,84,0
85680,note_on,0,0,1,,,,,,,,0,,,86,64
85680,note_on,124,0,1,,,,,,,,0,,,83,64
85920,note_on,394,0,8,,,,,,,,4,,,72,96
85920,note_on,394,0,2,,,,,,,,1,,,72,64
85954,note_on,274,0,1,,,,,,,,0,,,83,0
85972,note_on,18,0,1,,,,,,,,0,,,86,0
86006,note_on,86,0,8,,,,,,,,4,,,72,0
86012,note_on,92,0,2,,,,,,,,1,,,72,0
86160,note_on,0,0,1,,,,,,,,0,,,81,64
86160,note_on,188,0,1,,,,,,,,0,,,84,64
86400,note_on,394,0,8,,,,,,,,4,,,74,96
86400,note_on,388,0,2,,,,,,,,1,,,74,64
86480,note_on,80,0,2,,,,,,,,1,,,74,0
86482,note_on,82,0,8,,,,,,,,4,,,74,0
86496,note_on,336,0,1,,,,,,,,0,,,84,0
86502,note_on,6,0,1,,,,,,,,0,,,81,0
86640,note_on,138,0,1,,,,,,,,0,,,83,64
86640,note_on,0,0,1,,,,,,,,0,,,79,64
86880,note_on,398,0,8,,,,,,,,4,,,62,96
86880,note_on,400,0,2,,,,,,,,1,,,62,64
86956,note_on,316,0,1,,,,,,,,0,,,83,0
86956,note_on,76,0,2,,,,,,,,1,,,62,0
86964,note_on,84,0,8,,,,,,,,4,,,62,0
86980,note_on,24,0,1,,,,,,,,0,,,79,0
87120,note_on,140,0,1,,,,,,,,0,,,78,64
87120,note_on,0,0,1,,,,,,,,0,,,81,64
87174,note_on,54,0,1,,,,,,,,0,,,78,0
87180,note_on,6,0,1,,,,,,,,0,,,81,0
87360,note_on,7584,0,12,,,,,,,,11,,,43,38
87360,note_on,396,0,8,,,,,,,,4,,,67,58
87360,note_on,180,0,1,,,,,,,,0,,,83,64
87360,note_on,0,0,1,,,,,,,,0,,,79,64
87360,note_on,0,0,8,,,,,,,,4,,,55,58
87360,note_on,404,0,2,,,,,,,,1,,,67,64
87360,note_on,7584,0,11,,,,,,,,10,,,55,58
87360,note_on,7590,0,10,,,,,,,,8,,,55,58
87414,note_on,54,0,1,,,,,,,,0,,,83,0
87420,note_on,6,0,1,,,,,,,,0,,,79,0
87440,note_on,80,0,8,,,,,,,,4,,,67,0
87444,note_on,84,0,2,,,,,,,,1,,,67,0
87460,note_on,100,0,12,,,,,,,,11,,,43,0
87460,note_on,100,0,11,,,,,,,,10,,,55,0
87486,note_on,126,0,10,,,,,,,,8,,,55,0
87486,note_on,46,0,8,,,,,,,,4,,,55,0
87600,note_on,8786,0,3,,,,,,,,2,,,62,64
87600,note_on,0,0,4,,,,,,,,3,,,47,64
87600,note_on,7800,0,4,,,,,,,,3,,,50,64
87600,note_on,0,0,3,,,,,,,,2,,,59,64
87644,note_on,44,0,3,,,,,,,,2,,,62,0
87646,note_on,2,0,3,,,,,,,,2,,,59,0
87646,note_on,46,0,4,,,,,,,,3,,,47,0
87650,note_on,4,0,4,,,,,,,,3,,,50,0
87840,note_on,0,0,3,,,,,,,,2,,,62,64
87840,note_on,190,0,4,,,,,,,,3,,,55,64
87840,note_on,194,0,3,,,,,,,,2,,,67,64
87840,note_on,0,0,4,,,,,,,,3,,,50,64
87874,note_on,34,0,3,,,,,,,,2,,,67,0
87886,note_on,12,0,3,,,,,,,,2,,,62,0
87896,note_on,56,0,4,,,,,,,,3,,,50,0
87896,note_on,0,0,4,,,,,,,,3,,,55,0
88080,note_on,194,0,3,,,,,,,,2,,,67,64
88080,note_on,0,0,3,,,,,,,,2,,,71,64
88080,note_on,660,0,1,,,,,,,,0,,,74,64
88080,note_on,0,0,1,,,,,,,,0,,,71,64
88080,note_on,0,0,4,,,,,,,,3,,,55,64
88080,note_on,184,0,4,,,,,,,,3,,,59,64
88130,note_on,50,0,1,,,,,,,,0,,,74,0
88130,note_on,50,0,3,,,,,,,,2,,,67,0
88130,note_on,50,0,4,,,,,,,,3,,,55,0
88134,note_on,4,0,1,,,,,,,,0,,,71,0
88134,note_on,4,0,3,,,,,,,,2,,,71,0
88142,note_on,12,0,4,,,,,,,,3,,,59,0
88320,control_change,834,0,8,,,,,,,,4,7,90,,
88320,note_on,0,0,3,,,,,,,,2,,,71,64
88320,note_on,178,0,4,,,,,,,,3,,,62,64
88320,note_on,186,0,3,,,,,,,,2,,,74,64
88320,note_on,0,0,1,,,,,,,,0,,,79,64
88320,note_on,0,0,4,,,,,,,,3,,,59,64
88320,note_on,186,0,1,,,,,,,,0,,,74,64
88364,note_on,44,0,1,,,,,,,,0,,,74,0
88370,note_on,6,0,1,,,,,,,,0,,,79,0
88560,note_on,240,0,8,,,,,,,,4,,,55,72
88560,note_on,1100,0,11,,,,,,,,10,,,43,72
88560,note_on,1100,0,12,,,,,,,,11,,,31,64
88560,note_on,190,0,1,,,,,,,,0,,,79,64
88560,note_on,0,0,1,,,,,,,,0,,,83,64
88606,note_on,0,0,1,,,,,,,,0,,,79,0
88606,note_on,46,0,1,,,,,,,,0,,,83,0
88632,note_on,72,0,8,,,,,,,,4,,,55,0
88644,note_on,84,0,11,,,,,,,,10,,,43,0
88644,note_on,84,0,12,,,,,,,,11,,,31,0
88800,note_on,156,0,12,,,,,,,,11,,,35,64
88800,note_on,168,0,8,,,,,,,,4,,,59,72
88800,note_on,156,0,11,,,,,,,,10,,,47,72
88800,note_on,1314,0,10,,,,,,,,8,,,59,72
88800,note_on,194,0,1,,,,,,,,0,,,79,64
88800,note_on,0,0,1,,,,,,,,0,,,86,64
88852,note_on,52,0,1,,,,,,,,0,,,79,0
88874,note_on,74,0,10,,,,,,,,8,,,59,0
88874,note_on,74,0,8,,,,,,,,4,,,59,0
88886,note_on,86,0,12,,,,,,,,11,,,35,0
88886,note_on,86,0,11,,,,,,,,10,,,47,0
89040,note_on,166,0,8,,,,,,,,4,,,62,72
89040,note_on,166,0,10,,,,,,,,8,,,62,72
89040,note_on,154,0,12,,,,,,,,11,,,38,48
89040,note_on,188,0,1,,,,,,,,0,,,83,64
89040,note_on,154,0,11,,,,,,,,10,,,50,72
89096,note_on,56,0,1,,,,,,,,0,,,83,0
89106,note_on,66,0,10,,,,,,,,8,,,62,0
89114,note_on,74,0,8,,,,,,,,4,,,62,0
89122,note_on,82,0,12,,,,,,,,11,,,38,0
89122,note_on,82,0,11,,,,,,,,10,,,50,0
89280,note_on,158,0,12,,,,,,,,11,,,43,48
89280,note_on,166,0,8,,,,,,,,4,,,67,72
89280,note_on,158,0,11,,,,,,,,10,,,55,72
89280,note_on,174,0,10,,,,,,,,8,,,67,72
89354,note_on,74,0,11,,,,,,,,10,,,55,0
89354,note_on,258,0,1,,,,,,,,0,,,86,0
89354,note_on,74,0,12,,,,,,,,11,,,43,0
89356,note_on,76,0,10,,,,,,,,8,,,67,0
89362,note_on,82,0,8,,,,,,,,4,,,67,0
89520,note_on,158,0,8,,,,,,,,4,,,62,72
89520,note_on,166,0,1,,,,,,,,0,,,86,64
89520,note_on,0,0,8,,,,,,,,4,,,74,72
89520,note_on,0,0,1,,,,,,,,0,,,83,64
89582,note_on,62,0,1,,,,,,,,0,,,86,0
89586,note_on,4,0,1,,,,,,,,0,,,83,0
89590,note_on,70,0,8,,,,,,,,4,,,62,0
89592,note_on,2,0,8,,,,,,,,4,,,74,0
89760,note_on,406,0,11,,,,,,,,10,,,51,72
89760,note_on,404,0,10,,,,,,,,8,,,63,72
89760,note_on,406,0,12,,,,,,,,11,,,39,48
89760,note_on,0,0,4,,,,,,,,3,,,60,64
89760,note_on,1440,0,4,,,,,,,,3,,,59,0
89760,note_on,0,0,4,,,,,,,,3,,,62,0
89760,note_on,0,0,4,,,,,,,,3,,,57,64
89760,note_on,0,0,3,,,,,,,,2,,,69,64
89760,note_on,0,0,3,,,,,,,,2,,,74,0
89760,note_on,0,0,3,,,,,,,,2,,,72,64
89760,note_on,1440,0,3,,,,,,,,2,,,71,0
89836,note_on,76,0,11,,,,,,,,10,,,51,0
89836,note_on,76,0,12,,,,,,,,11,,,39,0
89840,note_on,80,0,10,,,,,,,,8,,,63,0
90000,note_on,0,0,8,,,,,,,,4,,,78,72
90000,note_on,414,0,1,,,,,,,,0,,,84,64
90000,note_on,0,0,1,,,,,,,,0,,,81,64
90000,note_on,408,0,8,,,,,,,,4,,,66,72
90060,note_on,60,0,1,,,,,,,,0,,,84,0
90066,note_on,6,0,1,,,,,,,,0,,,81,0
90074,note_on,74,0,8,,,,,,,,4,,,66,0
90076,note_on,2,0,8,,,,,,,,4,,,78,0
90240,note_on,480,0,3,,,,,,,,2,,,71,64
90240,note_on,0,0,3,,,,,,,,2,,,67,64
90240,note_on,404,0,11,,,,,,,,10,,,52,72
90240,note_on,480,0,4,,,,,,,,3,,,59,64
90240,note_on,0,0,4,,,,,,,,3,,,55,64
90240,note_on,404,0,12,,,,,,,,11,,,40,48
90240,note_on,400,0,10,,,,,,,,8,,,64,72
90246,note_on,6,0,3,,,,,,,,2,,,72,0
90250,note_on,10,0,4,,,,,,,,3,,,60,0
90256,note_on,10,0,3,,,,,,,,2,,,69,0
90272,note_on,22,0,4,,,,,,,,3,,,57,0
90324,note_on,84,0,12,,,,,,,,11,,,40,0
90324,note_on,84,0,10,,,,,,,,8,,,64,0
90324,note_on,84,0,11,,,,,,,,10,,,52,0
90480,note_on,0,0,1,,,,,,,,0,,,79,64
90480,note_on,414,0,1,,,,,,,,0,,,83,64
90480,note_on,404,0,8,,,,,,,,4,,,79,72
90480,note_on,0,0,8,,,,,,,,4,,,67,72
90542,note_on,62,0,1,,,,,,,,0,,,83,0
90546,note_on,4,0,1,,,,,,,,0,,,79,0
90556,note_on,76,0,8,,,,,,,,4,,,67,0
90556,note_on,0,0,8,,,,,,,,4,,,79,0
90720,note_on,0,0,4,,,,,,,,3,,,60,64
90720,note_on,448,0,4,,,,,,,,3,,,57,64
90720,note_on,396,0,12,,,,,,,,11,,,36,64
90720,note_on,396,0,10,,,,,,,,8,,,60,72
90720,note_on,0,0,3,,,,,,,,2,,,72,64
90720,note_on,396,0,11,,,,,,,,10,,,48,72
90720,note_on,464,0,3,,,,,,,,2,,,69,64
90736,note_on,16,0,4,,,,,,,,3,,,55,0
90746,note_on,26,0,3,,,,,,,,2,,,67,0
90780,note_on,34,0,3,,,,,,,,2,,,71,0
90782,note_on,46,0,4,,,,,,,,3,,,59,0
90804,note_on,84,0,10,,,,,,,,8,,,60,0
90820,note_on,100,0,11,,,,,,,,10,,,48,0
90820,note_on,100,0,12,,,,,,,,11,,,36,0
90960,note_on,0,0,1,,,,,,,,0,,,84,64
90960,note_on,414,0,1,,,,,,,,0,,,81,64
90960,note_on,404,0,8,,,,,,,,4,,,76,72
90960,note_on,0,0,8,,,,,,,,4,,,64,72
91016,note_on,56,0,1,,,,,,,,0,,,81,0
91020,note_on,4,0,1,,,,,,,,0,,,84,0
91036,note_on,76,0,8,,,,,,,,4,,,76,0
91040,note_on,4,0,8,,,,,,,,4,,,64,0
91112,note_on,332,0,3,,,,,,,,2,,,69,0
91130,note_on,348,0,4,,,,,,,,3,,,57,0
91172,note_on,60,0,3,,,,,,,,2,,,72,0
91200,note_on,70,0,4,,,,,,,,3,,,54,64
91200,note_on,0,0,4,,,,,,,,3,,,57,64
91200,note_on,396,0,10,,,,,,,,8,,,62,96
91200,note_on,0,0,1,,,,,,,,0,,,81,64
91200,note_on,160,0,8,,,,,,,,4,,,69,96
91200,note_on,380,0,11,,,,,,,,10,,,50,96
91200,note_on,0,0,3,,,,,,,,2,,,69,64
91200,note_on,28,0,3,,,,,,,,2,,,66,64
91200,note_on,380,0,12,,,,,,,,11,,,38,64
91200,note_on,180,0,1,,,,,,,,0,,,78,64
91200,note_on,0,0,8,,,,,,,,4,,,57,96
91210,note_on,10,0,4,,,,,,,,3,,,60,0
91250,note_on,50,0,1,,,,,,,,0,,,81,0
91250,note_on,0,0,1,,,,,,,,0,,,78,0
91256,note_on,56,0,3,,,,,,,,2,,,66,0
91262,note_on,6,0,3,,,,,,,,2,,,69,0
91266,note_on,56,0,4,,,,,,,,3,,,54,0
91274,note_on,8,0,4,,,,,,,,3,,,57,0
91284,note_on,84,0,8,,,,,,,,4,,,69,0
91290,note_on,90,0,10,,,,,,,,8,,,62,0
91290,note_on,90,0,12,,,,,,,,11,,,38,0
91290,note_on,6,0,8,,,,,,,,4,,,57,0
91290,note_on,90,0,11,,,,,,,,10,,,50,0
91440,note_on,0,0,4,,,,,,,,3,,,54,64
91440,note_on,166,0,4,,,,,,,,3,,,50,64
91440,note_on,178,0,3,,,,,,,,2,,,62,64
91440,note_on,0,0,3,,,,,,,,2,,,66,64
91492,note_on,52,0,3,,,,,,,,2,,,62,0
91494,note_on,2,0,3,,,,,,,,2,,,66,0
91500,note_on,60,0,4,,,,,,,,3,,,54,0
91502,note_on,2,0,4,,,,,,,,3,,,50,0
91680,note_on,0,0,4,,,,,,,,3,,,57,64
91680,note_on,178,0,4,,,,,,,,3,,,54,64
91680,note_on,186,0,3,,,,,,,,2,,,66,64
91680,note_on,0,0,3,,,,,,,,2,,,69,64
91724,note_on,44,0,3,,,,,,,,2,,,66,0
91732,note_on,52,0,4,,,,,,,,3,,,54,0
91736,note_on,12,0,3,,,,,,,,2,,,69,0
91750,note_on,18,0,4,,,,,,,,3,,,57,0
91920,note_on,0,0,3,,,,,,,,2,,,72,64
91920,note_on,184,0,3,,,,,,,,2,,,69,64
91920,note_on,0,0,4,,,,,,,,3,,,57,64
91920,note_on,170,0,4,,,,,,,,3,,,60,64
91920,note_on,670,0,1,,,,,,,,0,,,78,64
91974,note_on,54,0,1,,,,,,,,0,,,78,0
91974,note_on,54,0,3,,,,,,,,2,,,69,0
91980,note_on,6,0,3,,,,,,,,2,,,72,0
91982,note_on,62,0,4,,,,,,,,3,,,57,0
91986,note_on,4,0,4,,,,,,,,3,,,60,0
92160,note_on,0,0,1,,,,,,,,0,,,84,64
92160,note_on,0,0,4,,,,,,,,3,,,60,64
92160,note_on,0,0,3,,,,,,,,2,,,76,64
92160,note_on,180,0,3,,,,,,,,2,,,72,64
92160,note_on,186,0,1,,,,,,,,0,,,81,64
92160,note_on,174,0,4,,,,,,,,3,,,64,64
92210,note_on,50,0,1,,,,,,,,0,,,84,0
92214,note_on,4,0,1,,,,,,,,0,,,81,0
92400,note_on,0,0,1,,,,,,,,0,,,88,64
92400,note_on,1110,0,11,,,,,,,,10,,,50,72
92400,note_on,1110,0,10,,,,,,,,8,,,50,72
92400,note_on,1110,0,8,,,,,,,,4,,,62,72
92400,note_on,186,0,1,,,,,,,,0,,,84,64
92400,note_on,1110,0,12,,,,,,,,11,,,38,48
92484,note_on,84,0,8,,,,,,,,4,,,62,0
92484,note_on,84,0,12,,,,,,,,11,,,38,0
92484,note_on,84,0,11,,,,,,,,10,,,50,0
92486,note_on,86,0,10,,,,,,,,8,,,50,0
92640,note_on,154,0,10,,,,,,,,8,,,52,72
92640,note_on,156,0,11,,,,,,,,10,,,52,72
92640,note_on,156,0,8,,,,,,,,4,,,64,72
92640,note_on,156,0,12,,,,,,,,11,,,40,48
92716,note_on,76,0,8,,,,,,,,4,,,64,0
92716,note_on,76,0,11,,,,,,,,10,,,52,0
92716,note_on,76,0,12,,,,,,,,11,,,40,0
92724,note_on,84,0,10,,,,,,,,8,,,52,0
92760,note_on,36,0,10,,,,,,,,8,,,52,0
92880,note_on,164,0,8,,,,,,,,4,,,66,72
92880,note_on,120,0,10,,,,,,,,8,,,54,72
92880,note_on,164,0,11,,,,,,,,10,,,54,72
92880,note_on,164,0,12,,,,,,,,11,,,42,48
92952,note_on,72,0,10,,,,,,,,8,,,54,0
92956,note_on,76,0,8,,,,,,,,4,,,66,0
92960,note_on,80,0,12,,,,,,,,11,,,42,0
92960,note_on,80,0,11,,,,,,,,10,,,54,0
93120,note_on,168,0,10,,,,,,,,8,,,55,72
93120,note_on,160,0,12,,,,,,,,11,,,43,48
93120,note_on,164,0,8,,,,,,,,4,,,67,72
93120,note_on,160,0,11,,,,,,,,10,,,55,72
93204,note_on,84,0,11,,,,,,,,10,,,55,0
93204,note_on,84,0,8,,,,,,,,4,,,67,0
93204,note_on,84,0,12,,,,,,,,11,,,43,0
93210,note_on,90,0,10,,,,,,,,8,,,55,0
93226,note_on,826,0,1,,,,,,,,0,,,84,0
93256,note_on,1096,0,4,,,,,,,,3,,,64,0
93262,note_on,36,0,1,,,,,,,,0,,,88,0
93280,note_on,24,0,4,,,,,,,,3,,,60,0
93334,note_on,1174,0,3,,,,,,,,2,,,76,0
93342,note_on,8,0,3,,,,,,,,2,,,72,0
93360,note_on,18,0,3,,,,,,,,2,,,74,64
93360,note_on,0,0,8,,,,,,,,4,,,62,72
93360,note_on,156,0,8,,,,,,,,4,,,74,72
93360,note_on,0,0,3,,,,,,,,2,,,71,64
93360,note_on,0,0,1,,,,,,,,0,,,83,64
93360,note_on,98,0,1,,,,,,,,0,,,86,64
93360,note_on,80,0,4,,,,,,,,3,,,62,64
93360,note_on,0,0,4,,,,,,,,3,,,59,64
93410,note_on,50,0,1,,,,,,,,0,,,86,0
93420,note_on,10,0,1,,,,,,,,0,,,83,0
93436,note_on,76,0,8,,,,,,,,4,,,74,0
93444,note_on,8,0,8,,,,,,,,4,,,62,0
93600,note_on,396,0,12,,,,,,,,11,,,36,64
93600,note_on,396,0,11,,,,,,,,10,,,48,72
93600,note_on,390,0,10,,,,,,,,8,,,60,72
93682,note_on,82,0,10,,,,,,,,8,,,60,0
93694,note_on,94,0,12,,,,,,,,11,,,36,0
93694,note_on,94,0,11,,,,,,,,10,,,48,0
93752,note_on,392,0,3,,,,,,,,2,,,71,0
93774,note_on,22,0,3,,,,,,,,2,,,74,0
93794,note_on,434,0,4,,,,,,,,3,,,62,0
93806,note_on,12,0,4,,,,,,,,3,,,59,0
93840,note_on,66,0,3,,,,,,,,2,,,72,64
93840,note_on,0,0,3,,,,,,,,2,,,69,64
93840,note_on,0,0,1,,,,,,,,0,,,84,64
93840,note_on,0,0,4,,,,,,,,3,,,57,64
93840,note_on,420,0,1,,,,,,,,0,,,81,64
93840,note_on,0,0,8,,,,,,,,4,,,76,72
93840,note_on,396,0,8,,,,,,,,4,,,64,72
93840,note_on,34,0,4,,,,,,,,3,,,60,64
93894,note_on,54,0,1,,,,,,,,0,,,81,0
93900,note_on,6,0,1,,,,,,,,0,,,84,0
93914,note_on,74,0,8,,,,,,,,4,,,64,0
93916,note_on,2,0,8,,,,,,,,4,,,76,0
94080,note_on,386,0,12,,,,,,,,11,,,38,48
94080,note_on,386,0,11,,,,,,,,10,,,50,72
94080,note_on,398,0,10,,,,,,,,8,,,62,72
94154,note_on,74,0,10,,,,,,,,8,,,62,0
94166,note_on,86,0,11,,,,,,,,10,,,50,0
94166,note_on,86,0,12,,,,,,,,11,,,38,0
94210,note_on,370,0,4,,,,,,,,3,,,60,0
94236,note_on,26,0,4,,,,,,,,3,,,57,0
94254,note_on,414,0,3,,,,,,,,2,,,72,0
94280,note_on,26,0,3,,,,,,,,2,,,69,0
94320,note_on,0,0,4,,,,,,,,3,,,59,64
94320,note_on,0,0,3,,,,,,,,2,,,67,64
94320,note_on,40,0,3,,,,,,,,2,,,71,64
94320,note_on,166,0,10,,,,,,,,8,,,62,72
94320,note_on,420,0,1,,,,,,,,0,,,79,64
94320,note_on,404,0,8,,,,,,,,4,,,67,72
94320,note_on,0,0,8,,,,,,,,4,,,59,72
94320,note_on,84,0,4,,,,,,,,3,,,55,64
94320,note_on,0,0,1,,,,,,,,0,,,83,64
94374,note_on,54,0,1,,,,,,,,0,,,79,0
94382,note_on,8,0,1,,,,,,,,0,,,83,0
94392,note_on,72,0,10,,,,,,,,8,,,62,0
94394,note_on,74,0,8,,,,,,,,4,,,67,0
94402,note_on,8,0,8,,,,,,,,4,,,59,0
94560,note_on,394,0,12,,,,,,,,11,,,38,48
94560,note_on,394,0,11,,,,,,,,10,,,50,72
94650,note_on,90,0,11,,,,,,,,10,,,50,0
94650,note_on,90,0,12,,,,,,,,11,,,38,0
94694,note_on,374,0,4,,,,,,,,3,,,55,0
94700,note_on,380,0,3,,,,,,,,2,,,71,0
94734,note_on,40,0,4,,,,,,,,3,,,59,0
94740,note_on,40,0,3,,,,,,,,2,,,67,0
94800,note_on,60,0,3,,,,,,,,2,,,66,64
94800,note_on,0,0,4,,,,,,,,3,,,57,64
94800,note_on,66,0,4,,,,,,,,3,,,54,64
94800,note_on,408,0,10,,,,,,,,8,,,62,72
94800,note_on,418,0,1,,,,,,,,0,,,81,64
94800,note_on,0,0,1,,,,,,,,0,,,78,64
94800,note_on,0,0,8,,,,,,,,4,,,66,72
94800,note_on,0,0,3,,,,,,,,2,,,69,64
94800,note_on,398,0,8,,,,,,,,4,,,60,72
94852,note_on,52,0,1,,,,,,,,0,,,81,0
94860,note_on,8,0,1,,,,,,,,0,,,78,0
94870,note_on,70,0,10,,,,,,,,8,,,62,0
94876,note_on,76,0,8,,,,,,,,4,,,60,0
94880,note_on,4,0,8,,,,,,,,4,,,66,0
94890,note_on,90,0,3,,,,,,,,2,,,66,0
94894,note_on,94,0,4,,,,,,,,3,,,54,0
94914,note_on,20,0,4,,,,,,,,3,,,57,0
94920,note_on,30,0,3,,,,,,,,2,,,69,0
95040,control_change,0,0,8,,,,,,,,4,7,110,,
95040,note_on,390,0,12,,,,,,,,11,,,43,64
95040,note_on,126,0,4,,,,,,,,3,,,55,64
95040,note_on,390,0,11,,,,,,,,10,,,55,96
95040,note_on,160,0,8,,,,,,,,4,,,67,96
95040,note_on,180,0,1,,,,,,,,0,,,79,64
95040,note_on,0,0,8,,,,,,,,4,,,59,70
95040,note_on,16244,0,5,,,,,,,,5,,,62,64
95040,note_on,170,0,10,,,,,,,,8,,,55,96
95040,note_on,0,0,3,,,,,,,,2,,,62,64
95040,note_on,120,0,3,,,,,,,,2,,,74,64
95096,note_on,56,0,1,,,,,,,,0,,,79,0
95110,note_on,70,0,8,,,,,,,,4,,,67,0
95112,note_on,2,0,8,,,,,,,,4,,,59,0
95116,note_on,76,0,10,,,,,,,,8,,,55,0
95124,note_on,84,0,4,,,,,,,,3,,,55,0
95130,note_on,90,0,11,,,,,,,,10,,,55,0
95130,note_on,90,0,12,,,,,,,,11,,,43,0
95160,note_on,48,0,8,,,,,,,,4,,,59,70
95240,note_on,80,0,8,,,,,,,,4,,,59,0
95280,note_on,40,0,8,,,,,,,,4,,,74,96
95280,note_on,0,0,8,,,,,,,,4,,,62,70
95280,note_on,164,0,10,,,,,,,,8,,,62,96
95340,note_on,60,0,8,,,,,,,,4,,,74,0
95346,note_on,6,0,8,,,,,,,,4,,,62,0
95350,note_on,70,0,10,,,,,,,,8,,,62,0
95400,note_on,54,0,8,,,,,,,,4,,,62,70
95472,note_on,72,0,8,,,,,,,,4,,,62,0
95520,note_on,48,0,8,,,,,,,,4,,,79,96
95520,note_on,0,0,8,,,,,,,,4,,,55,70
95520,note_on,170,0,10,,,,,,,,8,,,67,96
95590,note_on,70,0,8,,,,,,,,4,,,79,0
95592,note_on,72,0,10,,,,,,,,8,,,67,0
95604,note_on,14,0,8,,,,,,,,4,,,55,0
95640,note_on,36,0,8,,,,,,,,4,,,59,70
95710,note_on,70,0,8,,,,,,,,4,,,59,0
95760,note_on,50,0,8,,,,,,,,4,,,83,96
95760,note_on,0,0,8,,,,,,,,4,,,62,70
95760,note_on,168,0,10,,,,,,,,8,,,71,96
95822,note_on,62,0,8,,,,,,,,4,,,83,0
95832,note_on,10,0,8,,,,,,,,4,,,62,0
95836,note_on,76,0,10,,,,,,,,8,,,71,0
95880,note_on,48,0,8,,,,,,,,4,,,59,70
95946,note_on,66,0,8,,,,,,,,4,,,59,0
96000,note_on,164,0,10,,,,,,,,8,,,74,96
96000,note_on,870,0,11,,,,,,,,10,,,59,96
96000,note_on,0,0,8,,,,,,,,4,,,55,70
96000,note_on,54,0,8,,,,,,,,4,,,86,96
96000,note_on,870,0,12,,,,,,,,11,,,47,64
96074,note_on,74,0,10,,,,,,,,8,,,74,0
96080,note_on,80,0,8,,,,,,,,4,,,55,0
96080,note_on,0,0,8,,,,,,,,4,,,86,0
96112,note_on,112,0,12,,,,,,,,11,,,47,0
96112,note_on,112,0,11,,,,,,,,10,,,59,0
96120,note_on,40,0,8,,,,,,,,4,,,59,70
96186,note_on,66,0,8,,,,,,,,4,,,59,0
96240,note_on,8796,0,2,,,,,,,,1,,,62,64
96240,note_on,54,0,8,,,,,,,,4,,,62,70
96240,note_on,1116,0,4,,,,,,,,3,,,50,64
96240,note_on,1144,0,1,,,,,,,,0,,,74,64
96292,note_on,52,0,1,,,,,,,,0,,,74,0
96306,note_on,66,0,8,,,,,,,,4,,,62,0
96316,note_on,76,0,2,,,,,,,,1,,,62,0
96342,note_on,102,0,4,,,,,,,,3,,,50,0
96360,note_on,54,0,8,,,,,,,,4,,,59,70
96434,note_on,74,0,8,,,,,,,,4,,,59,0
96480,note_on,46,0,8,,,,,,,,4,,,55,70
96480,note_on,164,0,2,,,,,,,,1,,,67,64
96480,note_on,138,0,4,,,,,,,,3,,,55,64
96480,note_on,188,0,1,,,,,,,,0,,,79,64
96530,note_on,50,0,1,,,,,,,,0,,,79,0
96532,note_on,52,0,2,,,,,,,,1,,,67,0
96552,note_on,72,0,4,,,,,,,,3,,,55,0
96560,note_on,80,0,8,,,,,,,,4,,,55,0
96600,note_on,40,0,8,,,,,,,,4,,,59,70
96674,note_on,74,0,8,,,,,,,,4,,,59,0
96720,note_on,168,0,4,,,,,,,,3,,,59,64
96720,note_on,190,0,1,,,,,,,,0,,,83,64
96720,note_on,188,0,2,,,,,,,,1,,,71,64
96720,note_on,46,0,8,,,,,,,,4,,,62,70
96772,note_on,52,0,2,,,,,,,,1,,,71,0
96774,note_on,54,0,1,,,,,,,,0,,,83,0
96790,note_on,70,0,4,,,,,,,,3,,,59,0
96790,note_on,70,0,8,,,,,,,,4,,,62,0
96840,note_on,50,0,8,,,,,,,,4,,,59,70
96914,note_on,74,0,8,,,,,,,,4,,,59,0
96960,note_on,848,0,12,,,,,,,,11,,,45,64
96960,note_on,170,0,4,,,,,,,,3,,,60,64
96960,note_on,0,0,2,,,,,,,,1,,,72,64
96960,note_on,186,0,1,,,,,,,,0,,,84,64
96960,note_on,46,0,8,,,,,,,,4,,,57,70
96960,note_on,188,0,2,,,,,,,,1,,,74,64
96960,note_on,848,0,11,,,,,,,,10,,,57,96
97032,note_on,72,0,2,,,,,,,,1,,,72,0
97044,note_on,84,0,8,,,,,,,,4,,,57,0
97054,note_on,94,0,1,,,,,,,,0,,,84,0
97062,note_on,102,0,11,,,,,,,,10,,,57,0
97062,note_on,2022,0,3,,,,,,,,2,,,74,0
97062,note_on,102,0,12,,,,,,,,11,,,45,0
97080,note_on,36,0,8,,,,,,,,4,,,60,70
97084,note_on,124,0,4,,,,,,,,3,,,60,0
97154,note_on,74,0,8,,,,,,,,4,,,60,0
97200,note_on,0,0,8,,,,,,,,4,,,62,70
97200,note_on,138,0,3,,,,,,,,2,,,69,64
97200,note_on,46,0,8,,,,,,,,4,,,74,96
97200,note_on,1126,0,10,,,,,,,,8,,,62,96
97270,note_on,70,0,8,,,,,,,,4,,,62,0
97272,note_on,2,0,8,,,,,,,,4,,,74,0
97284,note_on,84,0,10,,,,,,,,8,,,62,0
97320,note_on,48,0,8,,,,,,,,4,,,60,70
97390,note_on,70,0,8,,,,,,,,4,,,60,0
97440,note_on,156,0,10,,,,,,,,8,,,66,96
97440,note_on,50,0,8,,,,,,,,4,,,78,96
97440,note_on,0,0,8,,,,,,,,4,,,57,70
97440,note_on,240,0,3,,,,,,,,2,,,66,64
97500,note_on,60,0,3,,,,,,,,2,,,66,0
97516,note_on,76,0,10,,,,,,,,8,,,66,0
97516,note_on,76,0,8,,,,,,,,4,,,78,0
97532,note_on,16,0,8,,,,,,,,4,,,57,0
97560,note_on,28,0,8,,,,,,,,4,,,60,70
97632,note_on,72,0,8,,,,,,,,4,,,60,0
97680,note_on,48,0,8,,,,,,,,4,,,81,96
97680,note_on,0,0,8,,,,,,,,4,,,62,70
97680,note_on,164,0,10,,,,,,,,8,,,69,96
97684,note_on,184,0,3,,,,,,,,2,,,69,0
97754,note_on,74,0,10,,,,,,,,8,,,69,0
97754,note_on,74,0,8,,,,,,,,4,,,62,0
97756,note_on,2,0,8,,,,,,,,4,,,81,0
97800,note_on,44,0,8,,,,,,,,4,,,60,70
97870,note_on,70,0,8,,,,,,,,4,,,60,0
97920,note_on,858,0,12,,,,,,,,11,,,38,64
97920,note_on,50,0,8,,,,,,,,4,,,84,96
97920,note_on,0,0,8,,,,,,,,4,,,57,70
97920,note_on,858,0,11,,,,,,,,10,,,50,96
97920,note_on,166,0,10,,,,,,,,8,,,72,96
98002,note_on,82,0,10,,,,,,,,8,,,72,0
98002,note_on,82,0,8,,,,,,,,4,,,57,0
98006,note_on,4,0,8,,,,,,,,4,,,84,0
98030,note_on,110,0,11,,,,,,,,10,,,50,0
98030,note_on,110,0,12,,,,,,,,11,,,38,0
98040,note_on,34,0,8,,,,,,,,4,,,60,70
98112,note_on,72,0,8,,,,,,,,4,,,60,0
98160,note_on,476,0,3,,,,,,,,2,,,69,64
98160,note_on,1076,0,4,,,,,,,,3,,,57,64
98160,note_on,1128,0,2,,,,,,,,1,,,81,64
98160,note_on,48,0,8,,,,,,,,4,,,62,70
98162,note_on,3122,0,5,,,,,,,,5,,,62,0
98230,note_on,70,0,8,,,,,,,,4,,,62,0
98280,note_on,50,0,8,,,,,,,,4,,,60,70
98346,note_on,66,0,8,,,,,,,,4,,,60,0
98374,note_on,214,0,3,,,,,,,,2,,,62,0
98400,note_on,26,0,3,,,,,,,,2,,,66,64
98400,note_on,240,0,4,,,,,,,,3,,,54,64
98400,note_on,240,0,2,,,,,,,,1,,,78,64
98400,note_on,238,0,5,,,,,,,,5,,,62,64
98400,note_on,54,0,8,,,,,,,,4,,,57,70
98404,note_on,4,0,4,,,,,,,,3,,,57,0
98412,note_on,12,0,3,,,,,,,,2,,,69,0
98426,note_on,26,0,2,,,,,,,,1,,,81,0
98456,note_on,30,0,2,,,,,,,,1,,,78,0
98462,note_on,58,0,4,,,,,,,,3,,,54,0
98470,note_on,58,0,3,,,,,,,,2,,,66,0
98476,note_on,76,0,8,,,,,,,,4,,,57,0
98520,note_on,44,0,8,,,,,,,,4,,,60,70
98594,note_on,74,0,8,,,,,,,,4,,,60,0
98640,note_on,1586,0,1,,,,,,,,0,,,78,64
98640,note_on,0,0,1,,,,,,,,0,,,90,64
98640,note_on,178,0,4,,,,,,,,3,,,48,64
98640,note_on,170,0,3,,,,,,,,2,,,60,64
98640,note_on,184,0,2,,,,,,,,1,,,72,64
98640,note_on,46,0,8,,,,,,,,4,,,62,70
98646,note_on,246,0,5,,,,,,,,5,,,62,0
98680,note_on,40,0,2,,,,,,,,1,,,72,0
98710,note_on,70,0,3,,,,,,,,2,,,60,0
98712,note_on,72,0,4,,,,,,,,3,,,48,0
98714,note_on,74,0,8,,,,,,,,4,,,62,0
98760,note_on,46,0,8,,,,,,,,4,,,60,70
98824,note_on,64,0,8,,,,,,,,4,,,60,0
98880,note_on,240,0,1,,,,,,,,0,,,79,64
98880,note_on,0,0,1,,,,,,,,0,,,91,64
98880,note_on,200,0,2,,,,,,,,1,,,71,64
98880,note_on,170,0,3,,,,,,,,2,,,59,64
98880,note_on,850,0,12,,,,,,,,11,,,43,64
98880,note_on,168,0,4,,,,,,,,3,,,47,64
98880,note_on,850,0,11,,,,,,,,10,,,55,96
98880,note_on,56,0,8,,,,,,,,4,,,55,70
98880,note_on,234,0,5,,,,,,,,5,,,62,64
98902,note_on,22,0,1,,,,,,,,0,,,78,0
98904,note_on,2,0,1,,,,,,,,0,,,90,0
98926,note_on,22,0,1,,,,,,,,0,,,91,0
98946,note_on,66,0,8,,,,,,,,4,,,55,0
98952,note_on,26,0,1,,,,,,,,0,,,79,0
98964,note_on,84,0,4,,,,,,,,3,,,47,0
98976,note_on,96,0,11,,,,,,,,10,,,55,0
98976,note_on,96,0,12,,,,,,,,11,,,43,0
99000,note_on,54,0,8,,,,,,,,4,,,59,70
99010,note_on,130,0,3,,,,,,,,2,,,59,0
99074,note_on,74,0,8,,,,,,,,4,,,59,0
99120,note_on,1118,0,10,,,,,,,,8,,,62,96
99120,note_on,46,0,8,,,,,,,,4,,,74,96
99120,note_on,0,0,8,,,,,,,,4,,,62,70
99190,note_on,70,0,8,,,,,,,,4,,,74,0
99192,note_on,2,0,8,,,,,,,,4,,,62,0
99200,note_on,80,0,10,,,,,,,,8,,,62,0
99240,note_on,48,0,8,,,,,,,,4,,,59,70
99264,note_on,384,0,2,,,,,,,,1,,,71,0
99316,note_on,76,0,8,,,,,,,,4,,,59,0
99360,note_on,44,0,8,,,,,,,,4,,,79,96
99360,note_on,0,0,8,,,,,,,,4,,,55,70
99360,note_on,160,0,10,,,,,,,,8,,,67,96
99432,note_on,72,0,10,,,,,,,,8,,,67,0
99440,note_on,80,0,8,,,,,,,,4,,,79,0
99444,note_on,4,0,8,,,,,,,,4,,,55,0
99480,note_on,36,0,8,,,,,,,,4,,,59,70
99554,note_on,74,0,8,,,,,,,,4,,,59,0
99600,note_on,46,0,8,,,,,,,,4,,,83,96
99600,note_on,0,0,8,,,,,,,,4,,,62,70
99600,note_on,168,0,10,,,,,,,,8,,,71,96
99672,note_on,72,0,8,,,,,,,,4,,,62,0
99674,note_on,2,0,8,,,,,,,,4,,,83,0
99680,note_on,80,0,10,,,,,,,,8,,,71,0
99720,note_on,46,0,8,,,,,,,,4,,,59,70
99790,note_on,70,0,8,,,,,,,,4,,,59,0
99840,note_on,864,0,11,,,,,,,,10,,,59,96
99840,note_on,160,0,10,,,,,,,,8,,,74,96
99840,note_on,864,0,12,,,,,,,,11,,,47,64
99840,note_on,50,0,8,,,,,,,,4,,,86,96
99840,note_on,0,0,8,,,,,,,,4,,,55,70
99922,note_on,82,0,8,,,,,,,,4,,,55,0
99922,note_on,82,0,10,,,,,,,,8,,,74,0
99924,note_on,2,0,8,,,,,,,,4,,,86,0
99946,note_on,106,0,12,,,,,,,,11,,,47,0
99946,note_on,106,0,11,,,,,,,,10,,,59,0
99960,note_on,36,0,8,,,,,,,,4,,,59,70
100034,note_on,74,0,8,,,,,,,,4,,,59,0
100080,note_on,1116,0,4,,,,,,,,3,,,50,64
100080,note_on,46,0,8,,,,,,,,4,,,62,70
100080,note_on,816,0,2,,,,,,,,1,,,62,64
100080,note_on,1128,0,1,,,,,,,,0,,,74,64
100132,note_on,52,0,1,,,,,,,,0,,,74,0
100136,note_on,56,0,2,,,,,,,,1,,,62,0
100152,note_on,72,0,4,,,,,,,,3,,,50,0
100152,note_on,72,0,8,,,,,,,,4,,,62,0
100200,note_on,48,0,8,,,,,,,,4,,,59,70
100266,note_on,66,0,8,,,,,,,,4,,,59,0
100320,note_on,184,0,2,,,,,,,,1,,,67,64
100320,note_on,168,0,4,,,,,,,,3,,,55,64
100320,note_on,188,0,1,,,,,,,,0,,,79,64
100320,note_on,54,0,8,,,,,,,,4,,,55,70
100366,note_on,46,0,2,,,,,,,,1,,,67,0
100374,note_on,54,0,1,,,,,,,,0,,,79,0
100374,note_on,54,0,4,,,,,,,,3,,,55,0
100404,note_on,84,0,8,,,,,,,,4,,,55,0
100440,note_on,36,0,8,,,,,,,,4,,,59,70
100514,note_on,74,0,8,,,,,,,,4,,,59,0
100560,note_on,186,0,1,,,,,,,,0,,,83,64
100560,note_on,46,0,8,,,,,,,,4,,,62,70
100560,note_on,186,0,4,,,,,,,,3,,,59,64
100560,note_on,194,0,2,,,,,,,,1,,,71,64
100604,note_on,44,0,1,,,,,,,,0,,,83,0
100606,note_on,46,0,2,,,,,,,,1,,,71,0
100622,note_on,62,0,4,,,,,,,,3,,,59,0
100626,note_on,66,0,8,,,,,,,,4,,,62,0
100680,note_on,54,0,8,,,,,,,,4,,,59,70
100756,note_on,76,0,8,,,,,,,,4,,,59,0
100800,note_on,44,0,8,,,,,,,,4,,,57,70
100800,note_on,854,0,12,,,,,,,,11,,,45,64
100800,note_on,178,0,4,,,,,,,,3,,,60,64
100800,note_on,194,0,2,,,,,,,,1,,,72,64
100800,note_on,854,0,11,,,,,,,,10,,,57,96
100800,note_on,196,0,1,,,,,,,,0,,,84,64
100856,note_on,56,0,1,,,,,,,,0,,,84,0
100880,note_on,80,0,2,,,,,,,,1,,,72,0
100884,note_on,84,0,8,,,,,,,,4,,,57,0
100886,note_on,86,0,4,,,,,,,,3,,,60,0
100910,note_on,110,0,11,,,,,,,,10,,,57,0
100910,note_on,110,0,12,,,,,,,,11,,,45,0
100920,note_on,36,0,8,,,,,,,,4,,,60,70
101000,note_on,80,0,8,,,,,,,,4,,,60,0
101040,note_on,40,0,8,,,,,,,,4,,,74,96
101040,note_on,0,0,8,,,,,,,,4,,,62,70
101040,note_on,1118,0,10,,,,,,,,8,,,62,96
101094,note_on,54,0,8,,,,,,,,4,,,74,0
101114,note_on,20,0,8,,,,,,,,4,,,62,0
101116,note_on,76,0,10,,,,,,,,8,,,62,0
101160,note_on,46,0,8,,,,,,,,4,,,60,70
101226,note_on,66,0,8,,,,,,,,4,,,60,0
101280,note_on,0,0,8,,,,,,,,4,,,57,70
101280,note_on,164,0,10,,,,,,,,8,,,66,96
101280,note_on,54,0,8,,,,,,,,4,,,78,96
101354,note_on,74,0,8,,,,,,,,4,,,57,0
101362,note_on,8,0,8,,,,,,,,4,,,78,0
101364,note_on,84,0,10,,,,,,,,8,,,66,0
101400,note_on,38,0,8,,,,,,,,4,,,60,70
101466,note_on,66,0,8,,,,,,,,4,,,60,0
101520,note_on,54,0,8,,,,,,,,4,,,81,96
101520,note_on,156,0,10,,,,,,,,8,,,69,96
101520,note_on,0,0,8,,,,,,,,4,,,62,70
101580,note_on,60,0,8,,,,,,,,4,,,62,0
101590,note_on,70,0,10,,,,,,,,8,,,69,0
101604,note_on,24,0,8,,,,,,,,4,,,81,0
101640,note_on,36,0,8,,,,,,,,4,,,60,70
101710,note_on,70,0,8,,,,,,,,4,,,60,0
101760,note_on,50,0,8,,,,,,,,4,,,84,96
101760,note_on,170,0,10,,,,,,,,8,,,72,96
101760,note_on,850,0,11,,,,,,,,10,,,50,96
101760,note_on,850,0,12,,,,,,,,11,,,38,64
101760,note_on,0,0,8,,,,,,,,4,,,57,70
101832,note_on,72,0,8,,,,,,,,4,,,84,0
101836,note_on,76,0,10,,,,,,,,8,,,72,0
101842,note_on,10,0,8,,,,,,,,4,,,57,0
101862,note_on,102,0,12,,,,,,,,11,,,38,0
101862,note_on,102,0,11,,,,,,,,10,,,50,0
101880,note_on,38,0,8,,,,,,,,4,,,60,70
101944,note_on,3064,0,5,,,,,,,,5,,,62,0
101956,note_on,76,0,8,,,,,,,,4,,,60,0
102000,note_on,1120,0,2,,,,,,,,1,,,81,64
102000,note_on,2990,0,3,,,,,,,,2,,,69,64
102000,note_on,44,0,8,,,,,,,,4,,,62,70
102000,note_on,1114,0,4,,,,,,,,3,,,57,64
102056,note_on,56,0,8,,,,,,,,4,,,62,0
102120,note_on,64,0,8,,,,,,,,4,,,60,70
102194,note_on,74,0,8,,,,,,,,4,,,60,0
102222,note_on,222,0,3,,,,,,,,2,,,69,0
102240,note_on,240,0,2,,,,,,,,1,,,81,0
102240,note_on,0,0,2,,,,,,,,1,,,78,64
102240,note_on,0,0,4,,,,,,,,3,,,54,64
102240,note_on,240,0,4,,,,,,,,3,,,57,0
102240,note_on,46,0,8,,,,,,,,4,,,57,70
102240,note_on,18,0,3,,,,,,,,2,,,66,64
102240,note_on,296,0,5,,,,,,,,5,,,62,64
102286,note_on,46,0,3,,,,,,,,2,,,66,0
102286,note_on,46,0,2,,,,,,,,1,,,78,0
102296,note_on,56,0,4,,,,,,,,3,,,54,0
102314,note_on,74,0,8,,,,,,,,4,,,57,0
102360,note_on,46,0,8,,,,,,,,4,,,60,70
102432,note_on,72,0,8,,,,,,,,4,,,60,0
102480,note_on,0,0,1,,,,,,,,0,,,90,64
102480,note_on,1624,0,1,,,,,,,,0,,,78,64
102480,note_on,184,0,4,,,,,,,,3,,,48,64
102480,note_on,194,0,2,,,,,,,,1,,,72,64
102480,note_on,194,0,3,,,,,,,,2,,,60,64
102480,note_on,48,0,8,,,,,,,,4,,,62,70
102522,note_on,42,0,2,,,,,,,,1,,,72,0
102534,note_on,54,0,8,,,,,,,,4,,,62,0
102536,note_on,56,0,3,,,,,,,,2,,,60,0
102546,note_on,66,0,4,,,,,,,,3,,,48,0
102594,note_on,354,0,5,,,,,,,,5,,,62,0
102600,note_on,66,0,8,,,,,,,,4,,,60,70
102670,note_on,70,0,8,,,,,,,,4,,,60,0
102720,note_on,0,0,8,,,,,,,,4,,,74,96
102720,note_on,174,0,4,,,,,,,,3,,,46,64
102720,note_on,884,0,10,,,,,,,,8,,,58,96
102720,note_on,858,0,11,,,,,,,,10,,,43,96
102720,note_on,0,0,1,,,,,,,,0,,,91,64
102720,note_on,50,0,8,,,,,,,,4,,,62,96
102720,note_on,240,0,1,,,,,,,,0,,,79,64
102720,note_on,184,0,3,,,,,,,,2,,,58,64
102720,note_on,858,0,12,,,,,,,,11,,,31,64
102720,note_on,126,0,5,,,,,,,,5,,,62,64
102720,note_on,198,0,2,,,,,,,,1,,,70,64
102730,note_on,10,0,1,,,,,,,,0,,,78,0
102734,note_on,4,0,1,,,,,,,,0,,,90,0
102786,note_on,52,0,1,,,,,,,,0,,,91,0
102790,note_on,70,0,5,,,,,,,,5,,,62,0
102792,note_on,72,0,2,,,,,,,,1,,,70,0
102804,note_on,18,0,1,,,,,,,,0,,,79,0
102816,note_on,96,0,10,,,,,,,,8,,,58,0
102816,note_on,96,0,12,,,,,,,,11,,,31,0
102816,note_on,96,0,11,,,,,,,,10,,,43,0
102840,note_on,24,0,12,,,,,,,,11,,,43,64
102840,note_on,24,0,10,,,,,,,,8,,,58,96
102840,note_on,24,0,11,,,,,,,,10,,,55,96
102876,note_on,84,0,2,,,,,,,,1,,,74,0
102916,note_on,196,0,4,,,,,,,,3,,,46,0
102922,note_on,82,0,11,,,,,,,,10,,,55,0
102922,note_on,82,0,12,,,,,,,,11,,,43,0
102932,note_on,92,0,10,,,,,,,,8,,,58,0
102960,note_on,38,0,12,,,,,,,,11,,,43,64
102960,note_on,38,0,11,,,,,,,,10,,,55,96
102960,note_on,28,0,10,,,,,,,,8,,,58,96
103012,note_on,292,0,3,,,,,,,,2,,,58,0
103030,note_on,70,0,12,,,,,,,,11,,,43,0
103030,note_on,70,0,11,,,,,,,,10,,,55,0
103050,note_on,90,0,10,,,,,,,,8,,,58,0
103080,note_on,30,0,10,,,,,,,,8,,,58,96
103080,note_on,50,0,12,,,,,,,,11,,,43,64
103080,note_on,50,0,11,,,,,,,,10,,,55,96
103156,note_on,76,0,11,,,,,,,,10,,,55,0
103156,note_on,76,0,12,,,,,,,,11,,,43,0
103166,note_on,86,0,10,,,,,,,,8,,,58,0
103200,note_on,44,0,11,,,,,,,,10,,,55,96
103200,note_on,44,0,12,,,,,,,,11,,,43,64
103200,note_on,34,0,10,,,,,,,,8,,,58,96
103276,note_on,76,0,12,,,,,,,,11,,,43,0
103276,note_on,76,0,11,,,,,,,,10,,,55,0
103286,note_on,86,0,10,,,,,,,,8,,,58,0
103320,note_on,34,0,10,,,,,,,,8,,,58,96
103320,note_on,44,0,12,,,,,,,,11,,,43,64
103320,note_on,44,0,11,,,,,,,,10,,,55,96
103400,note_on,80,0,12,,,,,,,,11,,,43,0
103400,note_on,80,0,11,,,,,,,,10,,,55,0
103410,note_on,90,0,10,,,,,,,,8,,,58,0
103440,note_on,0,0,8,,,,,,,,4,,,73,96
103440,note_on,40,0,11,,,,,,,,10,,,55,96
103440,note_on,720,0,8,,,,,,,,4,,,61,96
103440,note_on,40,0,12,,,,,,,,11,,,43,64
103440,note_on,30,0,10,,,,,,,,8,,,58,96
103466,note_on,26,0,8,,,,,,,,4,,,62,0
103510,note_on,44,0,8,,,,,,,,4,,,74,0
103520,note_on,80,0,11,,,,,,,,10,,,55,0
103520,note_on,80,0,12,,,,,,,,11,,,43,0
103530,note_on,90,0,10,,,,,,,,8,,,58,0
103560,note_on,40,0,12,,,,,,,,11,,,43,64
103560,note_on,40,0,11,,,,,,,,10,,,55,96
103560,note_on,30,0,10,,,,,,,,8,,,58,96
103646,note_on,86,0,12,,,,,,,,11,,,43,0
103646,note_on,86,0,11,,,,,,,,10,,,55,0
103650,note_on,90,0,10,,,,,,,,8,,,58,0
103680,note_on,170,0,8,,,,,,,,4,,,74,96
103680,note_on,0,0,8,,,,,,,,4,,,62,96
103680,note_on,34,0,12,,,,,,,,11,,,43,64
103680,note_on,30,0,10,,,,,,,,8,,,58,96
103680,note_on,34,0,11,,,,,,,,10,,,55,96
103734,note_on,54,0,8,,,,,,,,4,,,61,0
103740,note_on,6,0,8,,,,,,,,4,,,73,0
103766,note_on,86,0,12,,,,,,,,11,,,43,0
103766,note_on,86,0,11,,,,,,,,10,,,55,0
103774,note_on,94,0,10,,,,,,,,8,,,58,0
103800,note_on,26,0,10,,,,,,,,8,,,58,96
103800,note_on,34,0,11,,,,,,,,10,,,55,96
103800,note_on,34,0,12,,,,,,,,11,,,43,64
103882,note_on,82,0,11,,,,,,,,10,,,55,0
103882,note_on,82,0,12,,,,,,,,11,,,43,0
103892,note_on,92,0,10,,,,,,,,8,,,58,0
103920,note_on,38,0,11,,,,,,,,10,,,55,96
103920,note_on,38,0,12,,,,,,,,11,,,43,64
103920,note_on,28,0,10,,,,,,,,8,,,58,96
104006,note_on,86,0,11,,,,,,,,10,,,55,0
104006,note_on,86,0,12,,,,,,,,11,,,43,0
104010,note_on,90,0,10,,,,,,,,8,,,58,0
104040,note_on,34,0,11,,,,,,,,10,,,55,96
104040,note_on,30,0,10,,,,,,,,8,,,58,96
104040,note_on,34,0,12,,,,,,,,11,,,43,64
104120,note_on,80,0,11,,,,,,,,10,,,55,0
104120,note_on,80,0,12,,,,,,,,11,,,43,0
104132,note_on,92,0,10,,,,,,,,8,,,58,0
104160,note_on,28,0,10,,,,,,,,8,,,58,96
104160,note_on,40,0,12,,,,,,,,11,,,43,64
104160,note_on,40,0,11,,,,,,,,10,,,55,96
104244,note_on,84,0,12,,,,,,,,11,,,43,0
104244,note_on,84,0,11,,,,,,,,10,,,55,0
104250,note_on,90,0,10,,,,,,,,8,,,58,0
104280,note_on,36,0,12,,,,,,,,11,,,43,64
104280,note_on,30,0,10,,,,,,,,8,,,58,96
104280,note_on,36,0,11,,,,,,,,10,,,55,96
104364,note_on,84,0,11,,,,,,,,10,,,55,0
104364,note_on,84,0,12,,,,,,,,11,,,43,0
104374,note_on,94,0,10,,,,,,,,8,,,58,0
104400,note_on,36,0,11,,,,,,,,10,,,55,96
104400,note_on,660,0,8,,,,,,,,4,,,63,96
104400,note_on,26,0,10,,,,,,,,8,,,58,96
104400,note_on,0,0,8,,,,,,,,4,,,75,96
104400,note_on,36,0,12,,,,,,,,11,,,43,64
104452,note_on,52,0,8,,,,,,,,4,,,62,0
104464,note_on,12,0,8,,,,,,,,4,,,74,0
104482,note_on,82,0,12,,,,,,,,11,,,43,0
104482,note_on,82,0,11,,,,,,,,10,,,55,0
104490,note_on,90,0,10,,,,,,,,8,,,58,0
104520,note_on,30,0,10,,,,,,,,8,,,58,96
104520,note_on,38,0,11,,,,,,,,10,,,55,96
104520,note_on,38,0,12,,,,,,,,11,,,43,64
104610,note_on,90,0,11,,,,,,,,10,,,55,0
104610,note_on,90,0,12,,,,,,,,11,,,43,0
104616,note_on,96,0,10,,,,,,,,8,,,58,0
104640,note_on,24,0,10,,,,,,,,8,,,56,96
104640,note_on,0,0,8,,,,,,,,4,,,74,96
104640,note_on,176,0,8,,,,,,,,4,,,62,96
104640,note_on,30,0,12,,,,,,,,11,,,41,64
104640,note_on,30,0,11,,,,,,,,10,,,53,96
104640,note_on,1764,0,2,,,,,,,,1,,,82,64
104696,note_on,56,0,8,,,,,,,,4,,,63,0
104706,note_on,10,0,8,,,,,,,,4,,,75,0
104726,note_on,86,0,12,,,,,,,,11,,,41,0
104726,note_on,86,0,11,,,,,,,,10,,,53,0
104734,note_on,94,0,10,,,,,,,,8,,,56,0
104760,note_on,34,0,12,,,,,,,,11,,,41,64
104760,note_on,26,0,10,,,,,,,,8,,,56,96
104760,note_on,34,0,11,,,,,,,,10,,,53,96
104844,note_on,84,0,10,,,,,,,,8,,,56,0
104844,note_on,84,0,11,,,,,,,,10,,,53,0
104844,note_on,84,0,12,,,,,,,,11,,,41,0
104880,note_on,36,0,10,,,,,,,,8,,,56,96
104880,note_on,36,0,11,,,,,,,,10,,,53,96
104880,note_on,36,0,12,,,,,,,,11,,,41,64
104964,note_on,84,0,11,,,,,,,,10,,,53,0
104964,note_on,84,0,12,,,,,,,,11,,,41,0
104972,note_on,92,0,10,,,,,,,,8,,,56,0
105000,note_on,28,0,10,,,,,,,,8,,,56,96
105000,note_on,36,0,11,,,,,,,,10,,,53,96
105000,note_on,36,0,12,,,,,,,,11,,,41,64
105084,note_on,84,0,12,,,,,,,,11,,,41,0
105084,note_on,84,0,11,,,,,,,,10,,,53,0
105084,note_on,84,0,10,,,,,,,,8,,,56,0
105120,note_on,36,0,11,,,,,,,,10,,,53,96
105120,note_on,36,0,10,,,,,,,,8,,,56,96
105120,note_on,36,0,12,,,,,,,,11,,,41,64
105202,note_on,82,0,12,,,,,,,,11,,,41,0
105202,note_on,82,0,11,,,,,,,,10,,,53,0
105202,note_on,82,0,10,,,,,,,,8,,,56,0
105240,note_on,38,0,11,,,,,,,,10,,,53,96
105240,note_on,38,0,12,,,,,,,,11,,,41,64
105240,note_on,38,0,10,,,,,,,,8,,,56,96
105316,note_on,76,0,11,,,,,,,,10,,,53,0
105316,note_on,76,0,12,,,,,,,,11,,,41,0
105322,note_on,82,0,10,,,,,,,,8,,,56,0
105360,note_on,44,0,12,,,,,,,,11,,,41,64
105360,note_on,0,0,8,,,,,,,,4,,,61,96
105360,note_on,654,0,8,,,,,,,,4,,,73,96
105360,note_on,44,0,11,,,,,,,,10,,,53,96
105360,note_on,38,0,10,,,,,,,,8,,,56,96
105414,note_on,54,0,8,,,,,,,,4,,,74,0
105426,note_on,12,0,8,,,,,,,,4,,,62,0
105432,note_on,72,0,12,,,,,,,,11,,,41,0
105432,note_on,72,0,11,,,,,,,,10,,,53,0
105436,note_on,76,0,10,,,,,,,,8,,,56,0
105480,note_on,48,0,11,,,,,,,,10,,,53,96
105480,note_on,48,0,12,,,,,,,,11,,,41,64
105480,note_on,44,0,10,,,,,,,,8,,,56,96
105560,note_on,80,0,10,,,,,,,,8,,,56,0
105560,note_on,80,0,11,,,,,,,,10,,,53,0
105560,note_on,80,0,12,,,,,,,,11,,,41,0
105600,note_on,2684,0,4,,,,,,,,3,,,58,64
105600,note_on,174,0,8,,,,,,,,4,,,74,96
105600,note_on,40,0,11,,,,,,,,10,,,53,96
105600,note_on,40,0,12,,,,,,,,11,,,41,64
105600,note_on,0,0,8,,,,,,,,4,,,62,96
105600,note_on,40,0,10,,,,,,,,8,,,56,96
105654,note_on,54,0,8,,,,,,,,4,,,73,0
105660,note_on,6,0,8,,,,,,,,4,,,61,0
105672,note_on,72,0,12,,,,,,,,11,,,41,0
105672,note_on,72,0,11,,,,,,,,10,,,53,0
105686,note_on,86,0,10,,,,,,,,8,,,56,0
105720,note_on,34,0,10,,,,,,,,8,,,56,96
105720,note_on,48,0,12,,,,,,,,11,,,41,64
105720,note_on,48,0,11,,,,,,,,10,,,53,96
105792,note_on,72,0,12,,,,,,,,11,,,41,0
105792,note_on,72,0,11,,,,,,,,10,,,53,0
105800,note_on,80,0,10,,,,,,,,8,,,56,0
105840,note_on,48,0,11,,,,,,,,10,,,53,96
105840,note_on,40,0,10,,,,,,,,8,,,56,96
105840,note_on,48,0,12,,,,,,,,11,,,41,64
105904,note_on,64,0,12,,,,,,,,11,,,41,0
105904,note_on,64,0,11,,,,,,,,10,,,53,0
105920,note_on,80,0,10,,,,,,,,8,,,56,0
105960,note_on,56,0,12,,,,,,,,11,,,41,64
105960,note_on,56,0,11,,,,,,,,10,,,53,96
105960,note_on,40,0,10,,,,,,,,8,,,56,96
106032,note_on,72,0,12,,,,,,,,11,,,41,0
106032,note_on,72,0,11,,,,,,,,10,,,53,0
106036,note_on,76,0,10,,,,,,,,8,,,56,0
106080,note_on,48,0,12,,,,,,,,11,,,41,64
106080,note_on,48,0,11,,,,,,,,10,,,53,96
106080,note_on,44,0,10,,,,,,,,8,,,56,96
106152,note_on,72,0,12,,,,,,,,11,,,41,0
106152,note_on,72,0,11,,,,,,,,10,,,53,0
106160,note_on,80,0,10,,,,,,,,8,,,56,0
106200,note_on,40,0,10,,,,,,,,8,,,56,96
106200,note_on,48,0,11,,,,,,,,10,,,53,96
106200,note_on,48,0,12,,,,,,,,11,,,41,64
106280,note_on,80,0,10,,,,,,,,8,,,56,0
106282,note_on,82,0,11,,,,,,,,10,,,53,0
106282,note_on,82,0,12,,,,,,,,11,,,41,0
106320,note_on,0,0,8,,,,,,,,4,,,75,96
106320,note_on,660,0,8,,,,,,,,4,,,63,96
106320,note_on,38,0,12,,,,,,,,11,,,39,64
106320,note_on,38,0,11,,,,,,,,10,,,51,96
106320,note_on,40,0,10,,,,,,,,8,,,56,96
106386,note_on,66,0,8,,,,,,,,4,,,62,0
106392,note_on,6,0,8,,,,,,,,4,,,74,0
106396,note_on,76,0,10,,,,,,,,8,,,56,0
106396,note_on,76,0,11,,,,,,,,10,,,51,0
106396,note_on,76,0,12,,,,,,,,11,,,39,0
106440,note_on,44,0,11,,,,,,,,10,,,51,96
106440,note_on,44,0,10,,,,,,,,8,,,56,96
106440,note_on,44,0,12,,,,,,,,11,,,39,64
106516,note_on,76,0,11,,,,,,,,10,,,51,0
106516,note_on,76,0,12,,,,,,,,11,,,39,0
106526,note_on,86,0,10,,,,,,,,8,,,56,0
106560,note_on,44,0,11,,,,,,,,10,,,50,96
106560,note_on,44,0,12,,,,,,,,11,,,38,64
106560,note_on,34,0,10,,,,,,,,8,,,53,96
106560,note_on,0,0,8,,,,,,,,4,,,65,96
106560,note_on,1920,0,2,,,,,,,,1,,,70,64
106560,note_on,168,0,8,,,,,,,,4,,,77,96
106614,note_on,54,0,8,,,,,,,,4,,,63,0
106616,note_on,2,0,8,,,,,,,,4,,,75,0
106640,note_on,80,0,11,,,,,,,,10,,,50,0
106640,note_on,80,0,12,,,,,,,,11,,,38,0
106660,note_on,100,0,10,,,,,,,,8,,,53,0
106680,note_on,40,0,11,,,,,,,,10,,,50,96
106680,note_on,40,0,12,,,,,,,,11,,,38,64
106680,note_on,20,0,10,,,,,,,,8,,,53,96
106754,note_on,74,0,11,,,,,,,,10,,,50,0
106754,note_on,74,0,12,,,,,,,,11,,,38,0
106762,note_on,82,0,10,,,,,,,,8,,,53,0
106800,note_on,46,0,12,,,,,,,,11,,,38,64
106800,note_on,46,0,11,,,,,,,,10,,,50,96
106800,note_on,38,0,10,,,,,,,,8,,,53,96
106864,note_on,64,0,11,,,,,,,,10,,,50,0
106864,note_on,64,0,12,,,,,,,,11,,,38,0
106890,note_on,90,0,10,,,,,,,,8,,,53,0
106920,note_on,56,0,12,,,,,,,,11,,,38,64
106920,note_on,56,0,11,,,,,,,,10,,,50,96
106920,note_on,30,0,10,,,,,,,,8,,,53,96
106992,note_on,72,0,12,,,,,,,,11,,,38,0
106992,note_on,72,0,11,,,,,,,,10,,,50,0
107014,note_on,94,0,10,,,,,,,,8,,,53,0
107040,note_on,48,0,11,,,,,,,,10,,,50,96
107040,note_on,26,0,10,,,,,,,,8,,,53,96
107040,note_on,48,0,12,,,,,,,,11,,,38,64
107110,note_on,70,0,11,,,,,,,,10,,,50,0
107110,note_on,70,0,12,,,,,,,,11,,,38,0
107124,note_on,84,0,10,,,,,,,,8,,,53,0
107160,note_on,50,0,11,,,,,,,,10,,,50,96
107160,note_on,50,0,12,,,,,,,,11,,,38,64
107160,note_on,36,0,10,,,,,,,,8,,,53,96
107230,note_on,70,0,12,,,,,,,,11,,,38,0
107230,note_on,70,0,11,,,,,,,,10,,,50,0
107234,note_on,74,0,10,,,,,,,,8,,,53,0
107280,note_on,0,0,8,,,,,,,,4,,,67,96
107280,note_on,46,0,10,,,,,,,,8,,,51,96
107280,note_on,50,0,12,,,,,,,,11,,,36,64
107280,note_on,50,0,11,,,,,,,,10,,,48,96
107280,note_on,664,0,8,,,,,,,,4,,,79,96
107332,note_on,52,0,8,,,,,,,,4,,,65,0
107352,note_on,20,0,8,,,,,,,,4,,,77,0
107360,note_on,80,0,10,,,,,,,,8,,,51,0
107370,note_on,90,0,12,,,,,,,,11,,,36,0
107370,note_on,90,0,11,,,,,,,,10,,,48,0
107400,note_on,40,0,10,,,,,,,,8,,,51,96
107400,note_on,30,0,11,,,,,,,,10,,,48,96
107400,note_on,30,0,12,,,,,,,,11,,,36,64
107476,note_on,76,0,10,,,,,,,,8,,,51,0
107482,note_on,82,0,11,,,,,,,,10,,,48,0
107482,note_on,82,0,12,,,,,,,,11,,,36,0
107520,note_on,44,0,10,,,,,,,,8,,,50,96
107520,note_on,168,0,8,,,,,,,,4,,,80,96
107520,note_on,38,0,11,,,,,,,,10,,,46,96
107520,note_on,0,0,8,,,,,,,,4,,,68,96
107520,note_on,38,0,12,,,,,,,,11,,,34,64
107570,note_on,50,0,8,,,,,,,,4,,,79,0
107586,note_on,16,0,8,,,,,,,,4,,,67,0
107590,note_on,70,0,12,,,,,,,,11,,,34,0
107590,note_on,70,0,11,,,,,,,,10,,,46,0
107606,note_on,86,0,10,,,,,,,,8,,,50,0
107640,note_on,50,0,12,,,,,,,,11,,,34,64
107640,note_on,50,0,11,,,,,,,,10,,,46,96
107640,note_on,34,0,10,,,,,,,,8,,,50,96
107712,note_on,72,0,10,,,,,,,,8,,,50,0
107716,note_on,76,0,11,,,,,,,,10,,,46,0
107716,note_on,76,0,12,,,,,,,,11,,,34,0
107760,note_on,44,0,11,,,,,,,,10,,,46,96
107760,note_on,48,0,10,,,,,,,,8,,,62,96
107760,note_on,44,0,12,,,,,,,,11,,,34,64
107834,note_on,74,0,11,,,,,,,,10,,,46,0
107834,note_on,74,0,12,,,,,,,,11,,,34,0
107844,note_on,84,0,10,,,,,,,,8,,,62,0
107880,note_on,36,0,10,,,,,,,,8,,,62,96
107880,note_on,46,0,12,,,,,,,,11,,,34,64
107880,note_on,46,0,11,,,,,,,,10,,,46,96
107956,note_on,76,0,11,,,,,,,,10,,,46,0
107956,note_on,76,0,12,,,,,,,,11,,,34,0
107962,note_on,82,0,10,,,,,,,,8,,,62,0
108000,note_on,38,0,10,,,,,,,,8,,,62,96
108000,note_on,44,0,11,,,,,,,,10,,,46,96
108000,note_on,44,0,12,,,,,,,,11,,,34,64
108072,note_on,72,0,11,,,,,,,,10,,,46,0
108072,note_on,72,0,12,,,,,,,,11,,,34,0
108074,note_on,74,0,10,,,,,,,,8,,,62,0
108120,note_on,48,0,11,,,,,,,,10,,,46,96
108120,note_on,46,0,10,,,,,,,,8,,,62,96
108120,note_on,48,0,12,,,,,,,,11,,,34,64
108192,note_on,72,0,10,,,,,,,,8,,,62,0
108200,note_on,80,0,11,,,,,,,,10,,,46,0
108200,note_on,80,0,12,,,,,,,,11,,,34,0
108240,note_on,40,0,11,,,,,,,,10,,,44,96
108240,note_on,40,0,12,,,,,,,,11,,,32,64
108240,note_on,2640,0,4,,,,,,,,3,,,62,64
108240,note_on,48,0,10,,,,,,,,8,,,62,96
108240,note_on,654,0,8,,,,,,,,4,,,65,96
108240,note_on,0,0,8,,,,,,,,4,,,77,96
108260,note_on,20,0,4,,,,,,,,3,,,58,0
108286,note_on,46,0,8,,,,,,,,4,,,68,0
108290,note_on,4,0,8,,,,,,,,4,,,80,0
108312,note_on,72,0,10,,,,,,,,8,,,62,0
108314,note_on,74,0,11,,,,,,,,10,,,44,0
108314,note_on,74,0,12,,,,,,,,11,,,32,0
108360,note_on,46,0,11,,,,,,,,10,,,44,96
108360,note_on,48,0,10,,,,,,,,8,,,62,96
108360,note_on,46,0,12,,,,,,,,11,,,32,64
108384,note_on,124,0,4,,,,,,,,3,,,62,0
108402,note_on,112,0,8,,,,,,,,4,,,65,0
108424,note_on,64,0,10,,,,,,,,8,,,62,0
108426,note_on,24,0,8,,,,,,,,4,,,77,0
108450,note_on,90,0,12,,,,,,,,11,,,32,0
108450,note_on,90,0,11,,,,,,,,10,,,44,0
108480,note_on,30,0,12,,,,,,,,11,,,31,64
108480,note_on,30,0,11,,,,,,,,10,,,43,96
108480,note_on,56,0,10,,,,,,,,8,,,63,96
108480,note_on,0,0,8,,,,,,,,4,,,70,73
108480,note_on,54,0,8,,,,,,,,4,,,82,73
108480,note_on,96,0,4,,,,,,,,3,,,63,64
108526,note_on,1966,0,2,,,,,,,,1,,,70,0
108554,note_on,28,0,2,,,,,,,,1,,,82,0
108562,note_on,82,0,10,,,,,,,,8,,,63,0
108606,note_on,126,0,11,,,,,,,,10,,,43,0
108606,note_on,126,0,12,,,,,,,,11,,,31,0
108634,note_on,154,0,4,,,,,,,,3,,,63,0
108720,note_on,0,0,8,,,,,,,,4,,,67,73
108720,note_on,158,0,10,,,,,,,,8,,,58,96
108720,note_on,0,0,10,,,,,,,,8,,,63,96
108720,note_on,240,0,8,,,,,,,,4,,,79,73
108756,note_on,36,0,8,,,,,,,,4,,,82,0
108760,note_on,4,0,8,,,,,,,,4,,,70,0
108766,note_on,46,0,10,,,,,,,,8,,,58,0
108772,note_on,12,0,8,,,,,,,,4,,,79,0
108786,note_on,20,0,10,,,,,,,,8,,,63,0
108796,note_on,24,0,8,,,,,,,,4,,,67,0
108960,note_on,0,0,8,,,,,,,,4,,,65,73
108960,note_on,164,0,8,,,,,,,,4,,,77,73
108960,note_on,354,0,11,,,,,,,,10,,,44,96
108960,note_on,354,0,12,,,,,,,,11,,,32,64
109062,note_on,102,0,12,,,,,,,,11,,,32,0
109062,note_on,102,0,11,,,,,,,,10,,,44,0
109200,note_on,0,0,10,,,,,,,,8,,,56,96
109200,note_on,414,0,10,,,,,,,,8,,,60,96
109200,note_on,240,0,8,,,,,,,,4,,,80,73
109200,note_on,0,0,8,,,,,,,,4,,,68,73
109224,note_on,24,0,8,,,,,,,,4,,,77,0
109236,note_on,12,0,8,,,,,,,,4,,,65,0
109272,note_on,36,0,8,,,,,,,,4,,,80,0
109276,note_on,76,0,10,,,,,,,,8,,,60,0
109282,note_on,6,0,10,,,,,,,,8,,,56,0
109284,note_on,12,0,8,,,,,,,,4,,,68,0
109440,note_on,0,0,8,,,,,,,,4,,,63,73
109440,note_on,378,0,12,,,,,,,,11,,,34,64
109440,note_on,378,0,11,,,,,,,,10,,,46,96
109440,note_on,156,0,8,,,,,,,,4,,,75,73
109524,note_on,84,0,11,,,,,,,,10,,,46,0
109524,note_on,84,0,12,,,,,,,,11,,,34,0
109680,note_on,0,0,10,,,,,,,,8,,,58,96
109680,note_on,0,0,8,,,,,,,,4,,,67,73
109680,note_on,240,0,8,,,,,,,,4,,,79,73
109680,note_on,398,0,10,,,,,,,,8,,,55,96
109724,note_on,44,0,8,,,,,,,,4,,,75,0
109730,note_on,6,0,8,,,,,,,,4,,,63,0
109754,note_on,74,0,10,,,,,,,,8,,,55,0
109756,note_on,2,0,10,,,,,,,,8,,,58,0
109756,note_on,26,0,8,,,,,,,,4,,,79,0
109756,note_on,0,0,8,,,,,,,,4,,,67,0
109920,note_on,396,0,11,,,,,,,,10,,,46,96
109920,note_on,396,0,12,,,,,,,,11,,,34,64
109920,note_on,164,0,8,,,,,,,,4,,,74,73
109920,note_on,0,0,8,,,,,,,,4,,,62,73
110004,note_on,84,0,12,,,,,,,,11,,,34,0
110004,note_on,84,0,11,,,,,,,,10,,,46,0
110160,note_on,0,0,10,,,,,,,,8,,,56,96
110160,note_on,404,0,10,,,,,,,,8,,,53,96
110160,note_on,0,0,8,,,,,,,,4,,,77,73
110160,note_on,240,0,8,,,,,,,,4,,,65,73
110194,note_on,34,0,8,,,,,,,,4,,,74,0
110216,note_on,22,0,8,,,,,,,,4,,,62,0
110226,note_on,66,0,10,,,,,,,,8,,,53,0
110226,note_on,10,0,8,,,,,,,,4,,,65,0
110236,note_on,10,0,10,,,,,,,,8,,,56,0
110236,note_on,10,0,8,,,,,,,,4,,,77,0
110400,note_on,164,0,10,,,,,,,,8,,,59,127
110400,note_on,396,0,12,,,,,,,,11,,,47,96
110400,note_on,0,0,6,,,,,,,,6,,,55,64
110400,note_on,31594,0,6,,,,,,,,6,,,67,64
110400,note_on,0,0,8,,,,,,,,4,,,77,127
110400,note_on,1766,0,4,,,,,,,,3,,,59,64
110400,note_on,1846,0,2,,,,,,,,1,,,86,64
110400,note_on,0,0,5,,,,,,,,5,,,55,64
110400,note_on,7610,0,5,,,,,,,,5,,,67,64
110400,note_on,0,0,1,,,,,,,,0,,,89,64
110400,note_on,7596,0,1,,,,,,,,0,,,91,64
110400,note_on,0,0,8,,,,,,,,4,,,79,127
110400,note_on,0,0,8,,,,,,,,4,,,74,127
110400,note_on,396,0,11,,,,,,,,10,,,59,127
110400,note_on,7388,0,3,,,,,,,,2,,,74,64
110400,control_change,164,0,8,,,,,,,,4,7,127,,
110400,note_on,0,0,3,,,,,,,,2,,,77,64
110400,note_on,31594,0,7,,,,,,,,7,,,43,64
110400,note_on,0,0,2,,,,,,,,1,,,77,64
110472,note_on,72,0,6,,,,,,,,6,,,55,0
110472,note_on,0,0,6,,,,,,,,6,,,67,0
110472,note_on,72,0,7,,,,,,,,7,,,43,0
110494,note_on,0,0,8,,,,,,,,4,,,74,0
110494,note_on,94,0,8,,,,,,,,4,,,79,0
110500,note_on,6,0,8,,,,,,,,4,,,77,0
110520,note_on,48,0,6,,,,,,,,6,,,67,64
110520,note_on,48,0,7,,,,,,,,7,,,43,64
110520,note_on,20,0,8,,,,,,,,4,,,74,127
110520,note_on,0,0,8,,,,,,,,4,,,79,127
110520,note_on,0,0,8,,,,,,,,4,,,77,127
110520,note_on,0,0,6,,,,,,,,6,,,55,64
110596,note_on,76,0,7,,,,,,,,7,,,43,0
110596,note_on,76,0,6,,,,,,,,6,,,55,0
110596,note_on,0,0,6,,,,,,,,6,,,67,0
110612,note_on,92,0,8,,,,,,,,4,,,77,0
110612,note_on,0,0,8,,,,,,,,4,,,74,0
110614,note_on,2,0,8,,,,,,,,4,,,79,0
110640,note_on,0,0,8,,,,,,,,4,,,79,127
110640,note_on,26,0,8,,,,,,,,4,,,74,127
110640,note_on,0,0,8,,,,,,,,4,,,77,127
110640,note_on,44,0,6,,,,,,,,6,,,67,64
110640,note_on,44,0,7,,,,,,,,7,,,43,64
110640,note_on,0,0,6,,,,,,,,6,,,55,64
110712,note_on,72,0,7,,,,,,,,7,,,43,0
110712,note_on,72,0,6,,,,,,,,6,,,55,0
110712,note_on,0,0,6,,,,,,,,6,,,67,0
110726,note_on,86,0,8,,,,,,,,4,,,79,0
110730,note_on,4,0,8,,,,,,,,4,,,74,0
110734,note_on,4,0,8,,,,,,,,4,,,77,0
110760,note_on,0,0,8,,,,,,,,4,,,79,127
110760,note_on,48,0,6,,,,,,,,6,,,55,64
110760,note_on,0,0,6,,,,,,,,6,,,67,64
110760,note_on,26,0,8,,,,,,,,4,,,77,127
110760,note_on,48,0,7,,,,,,,,7,,,43,64
110760,note_on,0,0,8,,,,,,,,4,,,74,127
110836,note_on,76,0,6,,,,,,,,6,,,67,0
110836,note_on,0,0,6,,,,,,,,6,,,55,0
110836,note_on,76,0,7,,,,,,,,7,,,43,0
110846,note_on,0,0,8,,,,,,,,4,,,79,0
110846,note_on,86,0,8,,,,,,,,4,,,74,0
110856,note_on,10,0,8,,,,,,,,4,,,77,0
110880,note_on,0,0,8,,,,,,,,4,,,77,127
110880,note_on,0,0,8,,,,,,,,4,,,79,127
110880,note_on,24,0,8,,,,,,,,4,,,74,127
110880,note_on,44,0,7,,,,,,,,7,,,43,64
110880,note_on,0,0,6,,,,,,,,6,,,55,64
110880,note_on,44,0,6,,,,,,,,6,,,67,64
110960,note_on,0,0,6,,,,,,,,6,,,67,0
110960,note_on,80,0,7,,,,,,,,7,,,43,0
110960,note_on,80,0,6,,,,,,,,6,,,55,0
110962,note_on,82,0,8,,,,,,,,4,,,74,0
110964,note_on,2,0,8,,,,,,,,4,,,79,0
110974,note_on,10,0,8,,,,,,,,4,,,77,0
111000,note_on,26,0,8,,,,,,,,4,,,77,127
111000,note_on,0,0,8,,,,,,,,4,,,79,127
111000,note_on,40,0,7,,,,,,,,7,,,43,64
111000,note_on,0,0,6,,,,,,,,6,,,55,64
111000,note_on,0,0,8,,,,,,,,4,,,74,127
111000,note_on,40,0,6,,,,,,,,6,,,67,64
111074,note_on,74,0,7,,,,,,,,7,,,43,0
111074,note_on,0,0,6,,,,,,,,6,,,67,0
111074,note_on,74,0,6,,,,,,,,6,,,55,0
111084,note_on,84,0,8,,,,,,,,4,,,74,0
111092,note_on,8,0,8,,,,,,,,4,,,77,0
111094,note_on,2,0,8,,,,,,,,4,,,79,0
111120,note_on,46,0,6,,,,,,,,6,,,55,64
111120,note_on,0,0,6,,,,,,,,6,,,67,64
111120,note_on,0,0,8,,,,,,,,4,,,74,127
111120,note_on,46,0,7,,,,,,,,7,,,43,64
111120,note_on,26,0,8,,,,,,,,4,,,77,127
111120,note_on,0,0,8,,,,,,,,4,,,79,127
111194,note_on,74,0,6,,,,,,,,6,,,67,0
111194,note_on,0,0,6,,,,,,,,6,,,55,0
111194,note_on,74,0,7,,,,,,,,7,,,43,0
111204,note_on,84,0,8,,,,,,,,4,,,74,0
111212,note_on,8,0,8,,,,,,,,4,,,79,0
111212,note_on,0,0,8,,,,,,,,4,,,77,0
111240,note_on,0,0,8,,,,,,,,4,,,79,127
111240,note_on,0,0,8,,,,,,,,4,,,77,127
111240,note_on,28,0,8,,,,,,,,4,,,74,127
111240,note_on,46,0,7,,,,,,,,7,,,43,64
111240,note_on,46,0,6,,,,,,,,6,,,67,64
111240,note_on,0,0,6,,,,,,,,6,,,55,64
111316,note_on,0,0,6,,,,,,,,6,,,67,0
111316,note_on,76,0,6,,,,,,,,6,,,55,0
111316,note_on,76,0,7,,,,,,,,7,,,43,0
111324,note_on,84,0,8,,,,,,,,4,,,74,0
111332,note_on,8,0,8,,,,,,,,4,,,79,0
111334,note_on,2,0,8,,,,,,,,4,,,77,0
111360,note_on,0,0,6,,,,,,,,6,,,55,64
111360,note_on,0,0,8,,,,,,,,4,,,77,127
111360,note_on,0,0,8,,,,,,,,4,,,79,127
111360,note_on,26,0,8,,,,,,,,4,,,74,127
111360,note_on,44,0,7,,,,,,,,7,,,43,64
111360,note_on,44,0,6,,,,,,,,6,,,67,64
111436,note_on,76,0,7,,,,,,,,7,,,43,0
111436,note_on,76,0,6,,,,,,,,6,,,55,0
111436,note_on,0,0,6,,,,,,,,6,,,67,0
111444,note_on,84,0,8,,,,,,,,4,,,79,0
111452,note_on,8,0,8,,,,,,,,4,,,74,0
111462,note_on,10,0,8,,,,,,,,4,,,77,0
111480,note_on,44,0,6,,,,,,,,6,,,67,64
111480,note_on,18,0,8,,,,,,,,4,,,79,127
111480,note_on,0,0,8,,,,,,,,4,,,77,127
111480,note_on,0,0,8,,,,,,,,4,,,74,127
111480,note_on,1080,0,10,,,,,,,,8,,,60,127
111480,note_on,44,0,7,,,,,,,,7,,,43,64
111480,note_on,1080,0,11,,,,,,,,10,,,60,127
111480,note_on,1080,0,4,,,,,,,,3,,,60,64
111480,note_on,0,0,6,,,,,,,,6,,,55,64
111480,note_on,1080,0,12,,,,,,,,11,,,48,96
111486,note_on,6,0,4,,,,,,,,3,,,59,0
111514,note_on,34,0,12,,,,,,,,11,,,47,0
111514,note_on,34,0,11,,,,,,,,10,,,59,0
111544,note_on,64,0,10,,,,,,,,8,,,59,0
111556,note_on,76,0,6,,,,,,,,6,,,55,0
111556,note_on,0,0,6,,,,,,,,6,,,67,0
111556,note_on,76,0,7,,,,,,,,7,,,43,0
111564,note_on,84,0,8,,,,,,,,4,,,79,0
111572,note_on,8,0,8,,,,,,,,4,,,74,0
111582,note_on,10,0,8,,,,,,,,4,,,77,0
111600,note_on,44,0,7,,,,,,,,7,,,43,64
111600,note_on,44,0,6,,,,,,,,6,,,67,64
111600,note_on,0,0,6,,,,,,,,6,,,55,64
111600,note_on,86,0,11,,,,,,,,10,,,62,127
111600,note_on,0,0,8,,,,,,,,4,,,79,127
111600,note_on,0,0,8,,,,,,,,4,,,77,127
111600,note_on,18,0,8,,,,,,,,4,,,74,127
111600,note_on,86,0,12,,,,,,,,11,,,50,96
111600,note_on,114,0,4,,,,,,,,3,,,62,64
111600,note_on,56,0,10,,,,,,,,8,,,62,127
111626,note_on,26,0,4,,,,,,,,3,,,60,0
111642,note_on,42,0,11,,,,,,,,10,,,60,0
111642,note_on,42,0,12,,,,,,,,11,,,48,0
111672,note_on,72,0,10,,,,,,,,8,,,60,0
111676,note_on,76,0,6,,,,,,,,6,,,55,0
111676,note_on,76,0,7,,,,,,,,7,,,43,0
111676,note_on,0,0,6,,,,,,,,6,,,67,0
111684,note_on,84,0,8,,,,,,,,4,,,74,0
111690,note_on,6,0,8,,,,,,,,4,,,79,0
111692,note_on,2,0,8,,,,,,,,4,,,77,0
111720,note_on,0,0,8,,,,,,,,4,,,79,127
111720,note_on,94,0,4,,,,,,,,3,,,60,64
111720,note_on,0,0,8,,,,,,,,4,,,74,127
111720,note_on,44,0,6,,,,,,,,6,,,67,64
111720,note_on,28,0,8,,,,,,,,4,,,77,127
111720,note_on,48,0,10,,,,,,,,8,,,60,127
111720,note_on,78,0,11,,,,,,,,10,,,60,127
111720,note_on,78,0,12,,,,,,,,11,,,48,96
111720,note_on,44,0,7,,,,,,,,7,,,43,64
111720,note_on,0,0,6,,,,,,,,6,,,55,64
111742,note_on,22,0,4,,,,,,,,3,,,62,0
111770,note_on,50,0,12,,,,,,,,11,,,50,0
111770,note_on,50,0,11,,,,,,,,10,,,62,0
111790,note_on,70,0,6,,,,,,,,6,,,55,0
111790,note_on,70,0,7,,,,,,,,7,,,43,0
111790,note_on,0,0,6,,,,,,,,6,,,67,0
111796,note_on,76,0,10,,,,,,,,8,,,62,0
111804,note_on,84,0,8,,,,,,,,4,,,74,0
111806,note_on,2,0,8,,,,,,,,4,,,79,0
111806,note_on,0,0,8,,,,,,,,4,,,77,0
111840,note_on,98,0,4,,,,,,,,3,,,59,64
111840,note_on,70,0,11,,,,,,,,10,,,59,127
111840,note_on,44,0,10,,,,,,,,8,,,59,127
111840,note_on,34,0,8,,,,,,,,4,,,79,127
111840,note_on,0,0,8,,,,,,,,4,,,77,127
111840,note_on,0,0,8,,,,,,,,4,,,74,127
111840,note_on,70,0,12,,,,,,,,11,,,47,96
111840,note_on,50,0,6,,,,,,,,6,,,55,64
111840,note_on,50,0,7,,,,,,,,7,,,43,64
111840,note_on,0,0,6,,,,,,,,6,,,67,64
111880,note_on,40,0,4,,,,,,,,3,,,60,0
111896,note_on,56,0,12,,,,,,,,11,,,48,0
111896,note_on,56,0,11,,,,,,,,10,,,60,0
111904,note_on,64,0,6,,,,,,,,6,,,67,0
111904,note_on,0,0,6,,,,,,,,6,,,55,0
111904,note_on,64,0,7,,,,,,,,7,,,43,0
111920,note_on,80,0,10,,,,,,,,8,,,60,0
111930,note_on,0,0,8,,,,,,,,4,,,79,0
111930,note_on,90,0,8,,,,,,,,4,,,74,0
111934,note_on,4,0,8,,,,,,,,4,,,77,0
111960,note_on,56,0,7,,,,,,,,7,,,43,64
111960,note_on,40,0,10,,,,,,,,8,,,55,127
111960,note_on,0,0,8,,,,,,,,4,,,74,127
111960,note_on,0,0,8,,,,,,,,4,,,79,127
111960,note_on,26,0,8,,,,,,,,4,,,77,127
111960,note_on,64,0,11,,,,,,,,10,,,55,127
111960,note_on,0,0,6,,,,,,,,6,,,55,64
111960,note_on,56,0,6,,,,,,,,6,,,67,64
111960,note_on,64,0,12,,,,,,,,11,,,43,96
111960,note_on,80,0,4,,,,,,,,3,,,55,64
111996,note_on,36,0,4,,,,,,,,3,,,59,0
111996,note_on,36,0,11,,,,,,,,10,,,59,0
111996,note_on,36,0,12,,,,,,,,11,,,47,0
112004,note_on,44,0,10,,,,,,,,8,,,59,0
112030,note_on,0,0,6,,,,,,,,6,,,67,0
112030,note_on,70,0,7,,,,,,,,7,,,43,0
112030,note_on,70,0,6,,,,,,,,6,,,55,0
112044,note_on,0,0,8,,,,,,,,4,,,77,0
112044,note_on,84,0,8,,,,,,,,4,,,79,0
112046,note_on,2,0,8,,,,,,,,4,,,74,0
112080,note_on,50,0,6,,,,,,,,6,,,55,64
112080,note_on,34,0,8,,,,,,,,4,,,74,127
112080,note_on,84,0,4,,,,,,,,3,,,57,64
112080,note_on,0,0,8,,,,,,,,4,,,79,127
112080,note_on,0,0,6,,,,,,,,6,,,67,64
112080,note_on,50,0,7,,,,,,,,7,,,43,64
112080,note_on,76,0,10,,,,,,,,8,,,57,127
112080,note_on,84,0,11,,,,,,,,10,,,57,127
112080,note_on,84,0,12,,,,,,,,11,,,45,96
112080,note_on,0,0,8,,,,,,,,4,,,77,127
112110,note_on,30,0,4,,,,,,,,3,,,55,0
112136,note_on,56,0,10,,,,,,,,8,,,55,0
112140,note_on,60,0,11,,,,,,,,10,,,55,0
112140,note_on,60,0,12,,,,,,,,11,,,43,0
112150,note_on,70,0,6,,,,,,,,6,,,67,0
112150,note_on,0,0,6,,,,,,,,6,,,55,0
112150,note_on,70,0,7,,,,,,,,7,,,43,0
112156,note_on,76,0,8,,,,,,,,4,,,74,0
112162,note_on,6,0,8,,,,,,,,4,,,79,0
112164,note_on,2,0,8,,,,,,,,4,,,77,0
112170,note_on,1770,0,2,,,,,,,,1,,,77,0
112200,note_on,90,0,4,,,,,,,,3,,,59,64
112200,note_on,0,0,6,,,,,,,,6,,,55,64
112200,note_on,60,0,11,,,,,,,,10,,,59,127
112200,note_on,50,0,6,,,,,,,,6,,,67,64
112200,note_on,64,0,10,,,,,,,,8,,,59,127
112200,note_on,50,0,7,,,,,,,,7,,,43,64
112200,note_on,36,0,8,,,,,,,,4,,,77,127
112200,note_on,60,0,12,,,,,,,,11,,,47,96
112200,note_on,0,0,8,,,,,,,,4,,,79,127
112200,note_on,0,0,8,,,,,,,,4,,,74,127
112204,note_on,1804,0,3,,,,,,,,2,,,77,0
112210,note_on,6,0,3,,,,,,,,2,,,74,0
112212,note_on,42,0,2,,,,,,,,1,,,86,0
112224,note_on,24,0,4,,,,,,,,3,,,57,0
112230,note_on,30,0,11,,,,,,,,10,,,57,0
112230,note_on,30,0,12,,,,,,,,11,,,45,0
112246,note_on,1846,0,1,,,,,,,,0,,,89,0
112262,note_on,62,0,10,,,,,,,,8,,,57,0
112276,note_on,0,0,8,,,,,,,,4,,,79,0
112276,note_on,76,0,8,,,,,,,,4,,,74,0
112282,note_on,6,0,8,,,,,,,,4,,,77,0
112320,note_on,90,0,11,,,,,,,,10,,,60,127
112320,note_on,0,0,3,,,,,,,,2,,,75,64
112320,note_on,74,0,1,,,,,,,,0,,,87,64
112320,note_on,90,0,12,,,,,,,,11,,,48,96
112320,note_on,110,0,3,,,,,,,,2,,,72,64
112320,note_on,0,0,8,,,,,,,,4,,,75,99
112320,control_change,38,0,8,,,,,,,,4,7,100,,
112320,note_on,96,0,4,,,,,,,,3,,,60,64
112320,note_on,0,0,2,,,,,,,,1,,,75,64
112320,note_on,108,0,2,,,,,,,,1,,,84,64
112320,note_on,58,0,10,,,,,,,,8,,,60,127
112320,note_on,0,0,8,,,,,,,,4,,,79,99
112346,note_on,26,0,4,,,,,,,,3,,,59,0
112346,note_on,146,0,6,,,,,,,,6,,,55,0
112346,note_on,0,0,6,,,,,,,,6,,,67,0
112346,note_on,146,0,7,,,,,,,,7,,,43,0
112354,note_on,34,0,1,,,,,,,,0,,,91,0
112360,note_on,40,0,10,,,,,,,,8,,,59,0
112370,note_on,50,0,12,,,,,,,,11,,,47,0
112370,note_on,50,0,11,,,,,,,,10,,,59,0
112396,note_on,1996,0,5,,,,,,,,5,,,55,0
112400,note_on,40,0,10,,,,,,,,8,,,60,0
112402,note_on,48,0,1,,,,,,,,0,,,87,0
112410,note_on,90,0,2,,,,,,,,1,,,75,0
112416,note_on,46,0,11,,,,,,,,10,,,60,0
112416,note_on,46,0,12,,,,,,,,11,,,48,0
112416,note_on,20,0,5,,,,,,,,5,,,67,0
112420,note_on,10,0,2,,,,,,,,1,,,84,0
112424,note_on,104,0,3,,,,,,,,2,,,75,0
112430,note_on,6,0,3,,,,,,,,2,,,72,0
112440,note_on,94,0,6,,,,,,,,6,,,60,64
112440,note_on,0,0,6,,,,,,,,6,,,72,64
112440,note_on,94,0,7,,,,,,,,7,,,48,64
112526,note_on,180,0,4,,,,,,,,3,,,60,0
112546,note_on,106,0,6,,,,,,,,6,,,72,0
112546,note_on,106,0,7,,,,,,,,7,,,48,0
112546,note_on,0,0,6,,,,,,,,6,,,60,0
112560,note_on,160,0,10,,,,,,,,8,,,55,96
112560,note_on,240,0,8,,,,,,,,4,,,63,68
112560,note_on,0,0,10,,,,,,,,8,,,60,96
112576,note_on,16,0,8,,,,,,,,4,,,79,0
112604,note_on,28,0,8,,,,,,,,4,,,75,0
112644,note_on,84,0,10,,,,,,,,8,,,55,0
112644,note_on,40,0,8,,,,,,,,4,,,63,0
112652,note_on,8,0,10,,,,,,,,8,,,60,0
112800,note_on,384,0,12,,,,,,,,11,,,41,64
112800,note_on,398,0,1,,,,,,,,0,,,86,64
112800,note_on,274,0,4,,,,,,,,3,,,62,64
112800,note_on,384,0,11,,,,,,,,10,,,53,96
112800,note_on,0,0,8,,,,,,,,4,,,74,68
112800,note_on,156,0,8,,,,,,,,4,,,62,68
112892,note_on,92,0,12,,,,,,,,11,,,41,0
112892,note_on,92,0,11,,,,,,,,10,,,53,0
113040,note_on,0,0,8,,,,,,,,4,,,65,68
113040,note_on,240,0,8,,,,,,,,4,,,77,68
113040,note_on,240,0,1,,,,,,,,0,,,89,64
113040,note_on,240,0,4,,,,,,,,3,,,65,64
113040,note_on,388,0,10,,,,,,,,8,,,56,96
113040,note_on,0,0,10,,,,,,,,8,,,53,96
113052,note_on,12,0,4,,,,,,,,3,,,62,0
113066,note_on,26,0,8,,,,,,,,4,,,62,0
113072,note_on,32,0,1,,,,,,,,0,,,86,0
113076,note_on,10,0,8,,,,,,,,4,,,74,0
113094,note_on,22,0,1,,,,,,,,0,,,89,0
113096,note_on,44,0,4,,,,,,,,3,,,65,0
113106,note_on,30,0,8,,,,,,,,4,,,77,0
113116,note_on,10,0,8,,,,,,,,4,,,65,0
113116,note_on,76,0,10,,,,,,,,8,,,53,0
113126,note_on,10,0,10,,,,,,,,8,,,56,0
113280,note_on,186,0,1,,,,,,,,0,,,84,64
113280,note_on,0,0,8,,,,,,,,4,,,72,68
113280,note_on,164,0,8,,,,,,,,4,,,60,68
113280,note_on,388,0,11,,,,,,,,10,,,55,96
113280,note_on,388,0,12,,,,,,,,11,,,43,64
113280,note_on,184,0,4,,,,,,,,3,,,60,64
113366,note_on,86,0,12,,,,,,,,11,,,43,0
113366,note_on,86,0,11,,,,,,,,10,,,55,0
113520,note_on,0,0,10,,,,,,,,8,,,55,96
113520,note_on,394,0,10,,,,,,,,8,,,51,96
113520,note_on,240,0,4,,,,,,,,3,,,63,64
113520,note_on,0,0,8,,,,,,,,4,,,63,68
113520,note_on,240,0,1,,,,,,,,0,,,87,64
113520,note_on,240,0,8,,,,,,,,4,,,75,68
113522,note_on,2,0,1,,,,,,,,0,,,84,0
113530,note_on,10,0,4,,,,,,,,3,,,60,0
113566,note_on,46,0,8,,,,,,,,4,,,60,0
113574,note_on,52,0,1,,,,,,,,0,,,87,0
113576,note_on,10,0,8,,,,,,,,4,,,72,0
113582,note_on,52,0,4,,,,,,,,3,,,63,0
113592,note_on,16,0,8,,,,,,,,4,,,75,0
113596,note_on,76,0,10,,,,,,,,8,,,51,0
113600,note_on,4,0,10,,,,,,,,8,,,55,0
113606,note_on,14,0,8,,,,,,,,4,,,63,0
113760,note_on,186,0,1,,,,,,,,0,,,83,64
113760,note_on,154,0,8,,,,,,,,4,,,71,68
113760,note_on,178,0,4,,,,,,,,3,,,59,64
113760,note_on,394,0,11,,,,,,,,10,,,43,96
113760,note_on,394,0,12,,,,,,,,11,,,31,64
113760,note_on,0,0,8,,,,,,,,4,,,59,68
113844,note_on,84,0,11,,,,,,,,10,,,43,0
113844,note_on,84,0,12,,,,,,,,11,,,31,0
114000,note_on,240,0,8,,,,,,,,4,,,62,68
114000,note_on,240,0,1,,,,,,,,0,,,86,64
114000,note_on,0,0,10,,,,,,,,8,,,53,96
114000,note_on,240,0,4,,,,,,,,3,,,62,64
114000,note_on,400,0,10,,,,,,,,8,,,50,96
114000,note_on,0,0,8,,,,,,,,4,,,74,68
114002,note_on,2,0,1,,,,,,,,0,,,83,0
114024,note_on,24,0,4,,,,,,,,3,,,59,0
114046,note_on,46,0,8,,,,,,,,4,,,71,0
114052,note_on,50,0,1,,,,,,,,0,,,86,0
114052,note_on,6,0,8,,,,,,,,4,,,59,0
114056,note_on,32,0,4,,,,,,,,3,,,62,0
114062,note_on,10,0,8,,,,,,,,4,,,62,0
114064,note_on,2,0,8,,,,,,,,4,,,74,0
114070,note_on,70,0,10,,,,,,,,8,,,50,0
114074,note_on,4,0,10,,,,,,,,8,,,53,0
114240,note_on,166,0,10,,,,,,,,8,,,66,127
114240,note_on,184,0,4,,,,,,,,3,,,54,64
114240,note_on,188,0,1,,,,,,,,0,,,84,64
114240,note_on,0,0,1,,,,,,,,0,,,86,64
114240,note_on,0,0,3,,,,,,,,2,,,69,64
114240,note_on,396,0,12,,,,,,,,11,,,42,96
114240,note_on,1810,0,3,,,,,,,,2,,,72,64
114240,note_on,0,0,8,,,,,,,,4,,,84,127
114240,note_on,1824,0,5,,,,,,,,5,,,62,64
114240,note_on,0,0,8,,,,,,,,4,,,74,127
114240,note_on,0,0,8,,,,,,,,4,,,86,127
114240,control_change,176,0,8,,,,,,,,4,7,127,,
114240,note_on,396,0,11,,,,,,,,10,,,54,127
114240,note_on,1820,0,2,,,,,,,,1,,,72,64
114240,note_on,0,0,2,,,,,,,,1,,,81,64
114304,note_on,64,0,8,,,,,,,,4,,,74,0
114304,note_on,0,0,8,,,,,,,,4,,,84,0
114340,note_on,36,0,8,,,,,,,,4,,,86,0
114360,note_on,20,0,8,,,,,,,,4,,,74,127
114360,note_on,0,0,8,,,,,,,,4,,,86,127
114360,note_on,0,0,8,,,,,,,,4,,,84,127
114432,note_on,72,0,8,,,,,,,,4,,,84,0
114440,note_on,8,0,8,,,,,,,,4,,,74,0
114450,note_on,10,0,8,,,,,,,,4,,,86,0
114480,note_on,0,0,8,,,,,,,,4,,,86,127
114480,note_on,30,0,8,,,,,,,,4,,,84,127
114480,note_on,0,0,8,,,,,,,,4,,,74,127
114544,note_on,64,0,8,,,,,,,,4,,,74,0
114560,note_on,16,0,8,,,,,,,,4,,,84,0
114572,note_on,12,0,8,,,,,,,,4,,,86,0
114600,note_on,28,0,8,,,,,,,,4,,,84,127
114600,note_on,0,0,8,,,,,,,,4,,,74,127
114600,note_on,0,0,8,,,,,,,,4,,,86,127
114674,note_on,74,0,8,,,,,,,,4,,,74,0
114682,note_on,8,0,8,,,,,,,,4,,,84,0
114692,note_on,10,0,8,,,,,,,,4,,,86,0
114720,note_on,0,0,8,,,,,,,,4,,,86,127
114720,note_on,28,0,8,,,,,,,,4,,,74,127
114720,note_on,0,0,8,,,,,,,,4,,,84,127
114802,note_on,82,0,8,,,,,,,,4,,,74,0
114810,note_on,8,0,8,,,,,,,,4,,,84,0
114812,note_on,2,0,8,,,,,,,,4,,,86,0
114840,note_on,0,0,8,,,,,,,,4,,,86,127
114840,note_on,0,0,8,,,,,,,,4,,,74,127
114840,note_on,28,0,8,,,,,,,,4,,,84,127
114920,note_on,80,0,8,,,,,,,,4,,,74,0
114926,note_on,6,0,8,,,,,,,,4,,,84,0
114930,note_on,4,0,8,,,,,,,,4,,,86,0
114960,note_on,30,0,8,,,,,,,,4,,,84,127
114960,note_on,0,0,8,,,,,,,,4,,,86,127
114960,note_on,0,0,8,,,,,,,,4,,,74,127
115040,note_on,80,0,8,,,,,,,,4,,,74,0
115046,note_on,6,0,8,,,,,,,,4,,,84,0
115050,note_on,4,0,8,,,,,,,,4,,,86,0
115080,note_on,30,0,8,,,,,,,,4,,,84,127
115080,note_on,0,0,8,,,,,,,,4,,,86,127
115080,note_on,0,0,8,,,,,,,,4,,,74,127
115152,note_on,72,0,8,,,,,,,,4,,,74,0
115170,note_on,18,0,8,,,,,,,,4,,,84,0
115172,note_on,2,0,8,,,,,,,,4,,,86,0
115200,note_on,28,0,8,,,,,,,,4,,,84,127
115200,note_on,0,0,8,,,,,,,,4,,,86,127
115200,note_on,0,0,8,,,,,,,,4,,,74,127
115270,note_on,70,0,8,,,,,,,,4,,,74,0
115294,note_on,24,0,8,,,,,,,,4,,,86,0
115294,note_on,0,0,8,,,,,,,,4,,,84,0
115320,note_on,1080,0,10,,,,,,,,8,,,67,127
115320,note_on,1080,0,4,,,,,,,,3,,,55,64
115320,note_on,1080,0,11,,,,,,,,10,,,55,127
115320,note_on,1080,0,12,,,,,,,,11,,,43,96
115320,note_on,26,0,8,,,,,,,,4,,,74,127
115320,note_on,0,0,8,,,,,,,,4,,,84,127
115320,note_on,0,0,8,,,,,,,,4,,,86,127
115350,note_on,30,0,4,,,,,,,,3,,,54,0
115370,note_on,50,0,11,,,,,,,,10,,,54,0
115370,note_on,50,0,12,,,,,,,,11,,,42,0
115392,note_on,72,0,10,,,,,,,,8,,,66,0
115404,note_on,84,0,8,,,,,,,,4,,,74,0
115416,note_on,12,0,8,,,,,,,,4,,,84,0
115420,note_on,4,0,8,,,,,,,,4,,,86,0
115440,note_on,20,0,8,,,,,,,,4,,,84,127
115440,note_on,48,0,10,,,,,,,,8,,,69,127
115440,note_on,70,0,12,,,,,,,,11,,,45,96
115440,note_on,90,0,4,,,,,,,,3,,,57,64
115440,note_on,70,0,11,,,,,,,,10,,,57,127
115440,note_on,0,0,8,,,,,,,,4,,,74,127
115440,note_on,0,0,8,,,,,,,,4,,,86,127
115474,note_on,34,0,4,,,,,,,,3,,,55,0
115484,note_on,44,0,10,,,,,,,,8,,,67,0
115486,note_on,46,0,11,,,,,,,,10,,,55,0
115486,note_on,46,0,12,,,,,,,,11,,,43,0
115512,note_on,72,0,8,,,,,,,,4,,,74,0
115534,note_on,22,0,8,,,,,,,,4,,,86,0
115534,note_on,0,0,8,,,,,,,,4,,,84,0
115560,note_on,26,0,8,,,,,,,,4,,,86,127
115560,note_on,0,0,8,,,,,,,,4,,,84,127
115560,note_on,86,0,4,,,,,,,,3,,,55,64
115560,note_on,74,0,12,,,,,,,,11,,,43,96
115560,note_on,0,0,8,,,,,,,,4,,,74,127
115560,note_on,74,0,11,,,,,,,,10,,,55,127
115560,note_on,76,0,10,,,,,,,,8,,,67,127
115580,note_on,20,0,4,,,,,,,,3,,,57,0
115600,note_on,40,0,10,,,,,,,,8,,,69,0
115602,note_on,42,0,11,,,,,,,,10,,,57,0
115602,note_on,42,0,12,,,,,,,,11,,,45,0
115626,note_on,66,0,8,,,,,,,,4,,,74,0
115650,note_on,24,0,8,,,,,,,,4,,,84,0
115656,note_on,6,0,8,,,,,,,,4,,,86,0
115680,note_on,78,0,12,,,,,,,,11,,,42,96
115680,note_on,80,0,10,,,,,,,,8,,,66,127
115680,note_on,100,0,4,,,,,,,,3,,,54,64
115680,note_on,78,0,11,,,,,,,,10,,,54,127
115680,note_on,24,0,8,,,,,,,,4,,,74,127
115680,note_on,0,0,8,,,,,,,,4,,,86,127
115680,note_on,0,0,8,,,,,,,,4,,,84,127
115704,note_on,24,0,4,,,,,,,,3,,,55,0
115744,note_on,64,0,8,,,,,,,,4,,,74,0
115746,note_on,66,0,10,,,,,,,,8,,,67,0
115750,note_on,70,0,12,,,,,,,,11,,,43,0
115750,note_on,70,0,11,,,,,,,,10,,,55,0
115766,note_on,22,0,8,,,,,,,,4,,,84,0
115770,note_on,4,0,8,,,,,,,,4,,,86,0
115800,note_on,50,0,12,,,,,,,,11,,,38,96
115800,note_on,96,0,4,,,,,,,,3,,,50,64
115800,note_on,50,0,11,,,,,,,,10,,,50,127
115800,note_on,54,0,10,,,,,,,,8,,,62,127
115800,note_on,0,0,8,,,,,,,,4,,,86,127
115800,note_on,0,0,8,,,,,,,,4,,,74,127
115800,note_on,30,0,8,,,,,,,,4,,,84,127
115806,note_on,6,0,4,,,,,,,,3,,,54,0
115830,note_on,30,0,11,,,,,,,,10,,,54,0
115830,note_on,30,0,12,,,,,,,,11,,,42,0
115852,note_on,52,0,10,,,,,,,,8,,,66,0
115870,note_on,70,0,8,,,,,,,,4,,,74,0
115880,note_on,10,0,8,,,,,,,,4,,,84,0
115894,note_on,14,0,8,,,,,,,,4,,,86,0
115920,note_on,0,0,8,,,,,,,,4,,,86,127
115920,note_on,114,0,4,,,,,,,,3,,,52,64
115920,note_on,68,0,10,,,,,,,,8,,,64,127
115920,note_on,90,0,12,,,,,,,,11,,,40,96
115920,note_on,90,0,11,,,,,,,,10,,,52,127
115920,note_on,0,0,8,,,,,,,,4,,,74,127
115920,note_on,26,0,8,,,,,,,,4,,,84,127
115940,note_on,20,0,4,,,,,,,,3,,,50,0
115960,note_on,40,0,12,,,,,,,,11,,,38,0
115960,note_on,40,0,11,,,,,,,,10,,,50,0
115972,note_on,52,0,10,,,,,,,,8,,,62,0
115990,note_on,70,0,8,,,,,,,,4,,,74,0
115996,note_on,6,0,8,,,,,,,,4,,,84,0
116004,note_on,8,0,8,,,,,,,,4,,,86,0
116010,note_on,1770,0,2,,,,,,,,1,,,72,0
116034,note_on,1794,0,3,,,,,,,,2,,,72,0
116040,note_on,80,0,11,,,,,,,,10,,,54,127
116040,note_on,68,0,10,,,,,,,,8,,,66,127
116040,note_on,0,0,8,,,,,,,,4,,,84,127
116040,note_on,80,0,12,,,,,,,,11,,,42,96
116040,note_on,0,0,8,,,,,,,,4,,,86,127
116040,note_on,36,0,8,,,,,,,,4,,,74,127
116040,note_on,100,0,4,,,,,,,,3,,,54,64
116056,note_on,16,0,4,,,,,,,,3,,,52,0
116062,note_on,28,0,3,,,,,,,,2,,,69,0
116062,note_on,52,0,2,,,,,,,,1,,,81,0
116070,note_on,30,0,12,,,,,,,,11,,,40,0
116070,note_on,30,0,11,,,,,,,,10,,,52,0
116072,note_on,1832,0,1,,,,,,,,0,,,84,0
116094,note_on,54,0,10,,,,,,,,8,,,64,0
116114,note_on,74,0,8,,,,,,,,4,,,74,0
116126,note_on,12,0,8,,,,,,,,4,,,84,0
116130,note_on,4,0,8,,,,,,,,4,,,86,0
116160,note_on,90,0,11,,,,,,,,10,,,55,127
116160,note_on,88,0,1,,,,,,,,0,,,82,64
116160,note_on,0,0,3,,,,,,,,2,,,67,64
116160,note_on,98,0,3,,,,,,,,2,,,70,64
116160,note_on,0,0,8,,,,,,,,4,,,82,99
116160,control_change,30,0,8,,,,,,,,4,7,80,,
116160,note_on,0,0,2,,,,,,,,1,,,82,64
116160,note_on,98,0,2,,,,,,,,1,,,70,64
116160,note_on,90,0,12,,,,,,,,11,,,43,96
116160,note_on,66,0,10,,,,,,,,8,,,67,127
116160,note_on,104,0,4,,,,,,,,3,,,55,64
116160,note_on,0,0,8,,,,,,,,4,,,74,99
116160,note_on,0,0,8,,,,,,,,4,,,86,99
116166,note_on,1926,0,5,,,,,,,,5,,,62,0
116196,note_on,36,0,1,,,,,,,,0,,,86,0
116210,note_on,50,0,4,,,,,,,,3,,,54,0
116224,note_on,64,0,11,,,,,,,,10,,,54,0
116224,note_on,64,0,12,,,,,,,,11,,,42,0
116226,note_on,66,0,2,,,,,,,,1,,,70,0
116232,note_on,6,0,2,,,,,,,,1,,,82,0
116234,note_on,74,0,10,,,,,,,,8,,,66,0
116240,note_on,44,0,1,,,,,,,,0,,,82,0
116244,note_on,10,0,10,,,,,,,,8,,,67,0
116256,note_on,96,0,3,,,,,,,,2,,,70,0
116266,note_on,10,0,3,,,,,,,,2,,,67,0
116302,note_on,92,0,4,,,,,,,,3,,,55,0
116312,note_on,88,0,11,,,,,,,,10,,,55,0
116312,note_on,88,0,12,,,,,,,,11,,,43,0
116364,note_on,204,0,8,,,,,,,,4,,,82,0
116400,note_on,0,0,8,,,,,,,,4,,,82,68
116400,note_on,0,0,10,,,,,,,,8,,,58,96
116400,note_on,36,0,8,,,,,,,,4,,,70,68
116400,note_on,156,0,10,,,,,,,,8,,,62,96
116436,note_on,36,0,8,,,,,,,,4,,,74,0
116450,note_on,14,0,8,,,,,,,,4,,,86,0
116474,note_on,24,0,8,,,,,,,,4,,,70,0
116474,note_on,74,0,10,,,,,,,,8,,,58,0
116482,note_on,8,0,10,,,,,,,,8,,,62,0
116482,note_on,8,0,8,,,,,,,,4,,,82,0
116640,note_on,328,0,12,,,,,,,,11,,,36,64
116640,note_on,158,0,8,,,,,,,,4,,,69,68
116640,note_on,408,0,2,,,,,,,,1,,,69,64
116640,note_on,0,0,8,,,,,,,,4,,,81,68
116640,note_on,0,0,4,,,,,,,,3,,,57,64
116640,note_on,338,0,4,,,,,,,,3,,,48,64
116640,note_on,328,0,11,,,,,,,,10,,,48,96
116772,note_on,132,0,12,,,,,,,,11,,,36,0
116772,note_on,132,0,11,,,,,,,,10,,,48,0
116880,note_on,240,0,2,,,,,,,,1,,,72,64
116880,note_on,240,0,8,,,,,,,,4,,,84,68
116880,note_on,398,0,10,,,,,,,,8,,,60,96
116880,note_on,0,0,10,,,,,,,,8,,,63,96
116880,note_on,240,0,4,,,,,,,,3,,,60,64
116880,note_on,0,0,8,,,,,,,,4,,,72,68
116882,note_on,2,0,4,,,,,,,,3,,,48,0
116884,note_on,4,0,2,,,,,,,,1,,,69,0
116906,note_on,24,0,4,,,,,,,,3,,,57,0
116912,note_on,32,0,8,,,,,,,,4,,,69,0
116916,note_on,4,0,8,,,,,,,,4,,,81,0
116930,note_on,46,0,2,,,,,,,,1,,,72,0
116932,note_on,26,0,4,,,,,,,,3,,,60,0
116950,note_on,34,0,8,,,,,,,,4,,,84,0
116952,note_on,2,0,8,,,,,,,,4,,,72,0
116954,note_on,74,0,10,,,,,,,,8,,,60,0
116960,note_on,6,0,10,,,,,,,,8,,,63,0
117120,note_on,188,0,4,,,,,,,,3,,,50,64
117120,note_on,0,0,4,,,,,,,,3,,,55,64
117120,note_on,190,0,2,,,,,,,,1,,,67,64
117120,note_on,0,0,8,,,,,,,,4,,,67,68
117120,note_on,348,0,11,,,,,,,,10,,,50,96
117120,note_on,168,0,8,,,,,,,,4,,,79,68
117120,note_on,348,0,12,,,,,,,,11,,,38,64
117234,note_on,114,0,11,,,,,,,,10,,,50,0
117234,note_on,114,0,12,,,,,,,,11,,,38,0
117360,note_on,240,0,4,,,,,,,,3,,,58,64
117360,note_on,0,0,8,,,,,,,,4,,,82,68
117360,note_on,400,0,10,,,,,,,,8,,,62,96
117360,note_on,240,0,8,,,,,,,,4,,,70,68
117360,note_on,240,0,2,,,,,,,,1,,,70,64
117360,note_on,0,0,10,,,,,,,,8,,,58,96
117370,note_on,10,0,2,,,,,,,,1,,,67,0
117372,note_on,12,0,4,,,,,,,,3,,,50,0
117376,note_on,4,0,4,,,,,,,,3,,,55,0
117404,note_on,44,0,8,,,,,,,,4,,,67,0
117412,note_on,36,0,4,,,,,,,,3,,,58,0
117414,note_on,44,0,2,,,,,,,,1,,,70,0
117426,note_on,22,0,8,,,,,,,,4,,,79,0
117430,note_on,4,0,8,,,,,,,,4,,,82,0
117434,note_on,74,0,10,,,,,,,,8,,,58,0
117440,note_on,6,0,10,,,,,,,,8,,,62,0
117444,note_on,14,0,8,,,,,,,,4,,,70,0
117600,note_on,366,0,12,,,,,,,,11,,,38,64
117600,note_on,188,0,4,,,,,,,,3,,,50,64
117600,note_on,0,0,4,,,,,,,,3,,,54,64
117600,note_on,186,0,2,,,,,,,,1,,,66,64
117600,note_on,156,0,8,,,,,,,,4,,,78,68
117600,note_on,0,0,8,,,,,,,,4,,,66,68
117600,note_on,366,0,11,,,,,,,,10,,,50,96
117704,note_on,104,0,11,,,,,,,,10,,,50,0
117704,note_on,104,0,12,,,,,,,,11,,,38,0
117840,note_on,240,0,2,,,,,,,,1,,,69,64
117840,note_on,240,0,8,,,,,,,,4,,,81,68
117840,note_on,0,0,8,,,,,,,,4,,,69,68
117840,note_on,240,0,4,,,,,,,,3,,,57,64
117840,note_on,0,0,10,,,,,,,,8,,,60,96
117840,note_on,400,0,10,,,,,,,,8,,,62,96
117846,note_on,6,0,2,,,,,,,,1,,,66,0
117852,note_on,12,0,4,,,,,,,,3,,,50,0
117854,note_on,2,0,4,,,,,,,,3,,,54,0
117866,note_on,26,0,8,,,,,,,,4,,,78,0
117876,note_on,30,0,2,,,,,,,,1,,,69,0
117880,note_on,14,0,8,,,,,,,,4,,,66,0
117902,note_on,22,0,8,,,,,,,,4,,,81,0
117906,note_on,52,0,4,,,,,,,,3,,,57,0
117914,note_on,74,0,10,,,,,,,,8,,,60,0
117914,note_on,0,0,10,,,,,,,,8,,,62,0
117920,note_on,18,0,8,,,,,,,,4,,,69,0
118080,note_on,0,0,8,,,,,,,,4,,,67,96
118080,note_on,0,0,8,,,,,,,,4,,,79,96
118080,control_change,160,0,8,,,,,,,,4,7,110,,
118080,note_on,0,0,4,,,,,,,,3,,,55,64
118080,note_on,204,0,2,,,,,,,,1,,,67,64
118080,note_on,376,0,11,,,,,,,,10,,,55,96
118080,note_on,376,0,12,,,,,,,,11,,,43,64
118080,note_on,166,0,10,,,,,,,,8,,,59,96
118080,note_on,0,0,10,,,,,,,,8,,,62,96
118080,note_on,174,0,4,,,,,,,,3,,,43,64
118132,note_on,52,0,2,,,,,,,,1,,,67,0
118164,note_on,0,0,8,,,,,,,,4,,,79,0
118164,note_on,84,0,8,,,,,,,,4,,,67,0
118166,note_on,86,0,10,,,,,,,,8,,,59,0
118172,note_on,6,0,10,,,,,,,,8,,,62,0
118172,note_on,92,0,4,,,,,,,,3,,,43,0
118174,note_on,94,0,12,,,,,,,,11,,,43,0
118174,note_on,94,0,11,,,,,,,,10,,,55,0
118200,note_on,36,0,8,,,,,,,,4,,,62,96
118222,note_on,50,0,4,,,,,,,,3,,,55,0
118284,note_on,84,0,8,,,,,,,,4,,,62,0
118320,note_on,36,0,8,,,,,,,,4,,,64,96
118404,note_on,84,0,8,,,,,,,,4,,,64,0
118440,note_on,36,0,8,,,,,,,,4,,,66,96
118524,note_on,84,0,8,,,,,,,,4,,,66,0
118560,note_on,36,0,8,,,,,,,,4,,,67,96
118644,note_on,84,0,8,,,,,,,,4,,,67,0
118680,note_on,36,0,8,,,,,,,,4,,,69,96
118764,note_on,84,0,8,,,,,,,,4,,,69,0
118800,note_on,0,0,3,,,,,,,,2,,,66,64
118800,note_on,2534,0,3,,,,,,,,2,,,69,64
118800,note_on,0,0,4,,,,,,,,3,,,50,64
118800,note_on,0,0,2,,,,,,,,1,,,78,64
118800,note_on,668,0,2,,,,,,,,1,,,74,64
118800,note_on,36,0,8,,,,,,,,4,,,71,96
118800,note_on,578,0,4,,,,,,,,3,,,62,64
118800,note_on,2560,0,1,,,,,,,,0,,,81,64
118842,note_on,42,0,2,,,,,,,,1,,,74,0
118860,note_on,60,0,4,,,,,,,,3,,,62,0
118860,note_on,18,0,2,,,,,,,,1,,,78,0
118870,note_on,70,0,1,,,,,,,,0,,,81,0
118872,note_on,12,0,4,,,,,,,,3,,,50,0
118874,note_on,74,0,3,,,,,,,,2,,,66,0
118874,note_on,0,0,3,,,,,,,,2,,,69,0
118884,note_on,84,0,8,,,,,,,,4,,,71,0
118920,note_on,36,0,8,,,,,,,,4,,,69,96
119004,note_on,84,0,8,,,,,,,,4,,,69,0
119040,note_on,2874,0,5,,,,,,,,5,,,62,64
119040,note_on,166,0,3,,,,,,,,2,,,67,64
119040,note_on,0,0,3,,,,,,,,2,,,71,64
119040,note_on,0,0,4,,,,,,,,3,,,50,64
119040,note_on,170,0,1,,,,,,,,0,,,83,64
119040,note_on,36,0,8,,,,,,,,4,,,67,96
119040,note_on,180,0,2,,,,,,,,1,,,79,64
119040,note_on,168,0,4,,,,,,,,3,,,62,64
119074,note_on,34,0,2,,,,,,,,1,,,79,0
119090,note_on,50,0,5,,,,,,,,5,,,62,0
119104,note_on,64,0,4,,,,,,,,3,,,62,0
119106,note_on,2,0,4,,,,,,,,3,,,50,0
119114,note_on,74,0,1,,,,,,,,0,,,83,0
119114,note_on,74,0,3,,,,,,,,2,,,67,0
119124,note_on,84,0,8,,,,,,,,4,,,67,0
119142,note_on,28,0,3,,,,,,,,2,,,71,0
119160,note_on,36,0,8,,,,,,,,4,,,62,96
119244,note_on,84,0,8,,,,,,,,4,,,62,0
119280,note_on,36,0,8,,,,,,,,4,,,64,96
119364,note_on,84,0,8,,,,,,,,4,,,64,0
119400,note_on,36,0,8,,,,,,,,4,,,66,96
119484,note_on,84,0,8,,,,,,,,4,,,66,0
119520,note_on,36,0,8,,,,,,,,4,,,67,96
119604,note_on,84,0,8,,,,,,,,4,,,67,0
119640,note_on,36,0,8,,,,,,,,4,,,69,96
119724,note_on,84,0,8,,,,,,,,4,,,69,0
119760,note_on,1586,0,12,,,,,,,,11,,,40,64
119760,note_on,1588,0,10,,,,,,,,8,,,59,96
119760,note_on,36,0,8,,,,,,,,4,,,62,96
119760,note_on,0,0,8,,,,,,,,4,,,71,96
119760,note_on,646,0,1,,,,,,,,0,,,86,64
119760,note_on,1586,0,11,,,,,,,,10,,,52,96
119830,note_on,70,0,1,,,,,,,,0,,,86,0
119844,note_on,0,0,8,,,,,,,,4,,,62,0
119844,note_on,84,0,8,,,,,,,,4,,,71,0
119844,note_on,84,0,12,,,,,,,,11,,,40,0
119844,note_on,84,0,11,,,,,,,,10,,,52,0
119850,note_on,90,0,10,,,,,,,,8,,,59,0
119880,note_on,36,0,8,,,,,,,,4,,,68,96
119964,note_on,84,0,8,,,,,,,,4,,,68,0
120000,note_on,156,0,11,,,,,,,,10,,,57,96
120000,note_on,156,0,12,,,,,,,,11,,,45,64
120000,note_on,0,0,1,,,,,,,,0,,,86,64
120000,note_on,170,0,1,,,,,,,,0,,,83,64
120000,note_on,150,0,10,,,,,,,,8,,,57,96
120000,note_on,36,0,8,,,,,,,,4,,,69,96
120000,note_on,0,0,8,,,,,,,,4,,,60,96
120056,note_on,56,0,1,,,,,,,,0,,,83,0
120062,note_on,6,0,1,,,,,,,,0,,,86,0
120074,note_on,74,0,11,,,,,,,,10,,,57,0
120074,note_on,74,0,12,,,,,,,,11,,,45,0
120084,note_on,0,0,8,,,,,,,,4,,,69,0
120084,note_on,84,0,8,,,,,,,,4,,,60,0
120100,note_on,100,0,10,,,,,,,,8,,,57,0
120120,note_on,36,0,8,,,,,,,,4,,,64,96
120204,note_on,84,0,8,,,,,,,,4,,,64,0
120240,note_on,36,0,8,,,,,,,,4,,,66,96
120324,note_on,84,0,8,,,,,,,,4,,,66,0
120360,note_on,36,0,8,,,,,,,,4,,,68,96
120444,note_on,84,0,8,,,,,,,,4,,,68,0
120480,note_on,36,0,8,,,,,,,,4,,,69,96
120564,note_on,84,0,8,,,,,,,,4,,,69,0
120600,note_on,36,0,8,,,,,,,,4,,,71,96
120684,note_on,84,0,8,,,,,,,,4,,,71,0
120720,note_on,1614,0,4,,,,,,,,3,,,52,64
120720,note_on,0,0,2,,,,,,,,1,,,71,64
120720,note_on,0,0,3,,,,,,,,2,,,68,64
120720,note_on,1578,0,3,,,,,,,,2,,,71,64
120720,note_on,658,0,1,,,,,,,,0,,,83,64
120720,note_on,0,0,4,,,,,,,,3,,,62,64
120720,note_on,1630,0,5,,,,,,,,5,,,64,64
120720,note_on,36,0,8,,,,,,,,4,,,72,96
120720,note_on,1646,0,2,,,,,,,,1,,,80,64
120776,note_on,56,0,2,,,,,,,,1,,,80,0
120780,note_on,60,0,5,,,,,,,,5,,,64,0
120782,note_on,6,0,2,,,,,,,,1,,,71,0
120786,note_on,66,0,1,,,,,,,,0,,,83,0
120792,note_on,72,0,3,,,,,,,,2,,,71,0
120804,note_on,12,0,3,,,,,,,,2,,,68,0
120804,note_on,84,0,8,,,,,,,,4,,,72,0
120804,note_on,84,0,4,,,,,,,,3,,,52,0
120810,note_on,6,0,4,,,,,,,,3,,,62,0
120840,note_on,36,0,8,,,,,,,,4,,,71,96
120924,note_on,84,0,8,,,,,,,,4,,,71,0
120960,note_on,180,0,5,,,,,,,,5,,,64,64
120960,note_on,0,0,3,,,,,,,,2,,,72,64
120960,note_on,156,0,3,,,,,,,,2,,,69,64
120960,note_on,178,0,2,,,,,,,,1,,,81,64
120960,note_on,36,0,8,,,,,,,,4,,,69,96
120960,note_on,0,0,2,,,,,,,,1,,,72,64
120960,note_on,150,0,4,,,,,,,,3,,,60,64
120960,note_on,174,0,1,,,,,,,,0,,,84,64
120960,note_on,0,0,4,,,,,,,,3,,,57,64
121022,note_on,62,0,5,,,,,,,,5,,,64,0
121026,note_on,66,0,2,,,,,,,,1,,,72,0
121036,note_on,10,0,2,,,,,,,,1,,,81,0
121036,note_on,0,0,4,,,,,,,,3,,,60,0
121036,note_on,76,0,3,,,,,,,,2,,,69,0
121036,note_on,76,0,4,,,,,,,,3,,,57,0
121044,note_on,84,0,8,,,,,,,,4,,,69,0
121046,note_on,86,0,1,,,,,,,,0,,,84,0
121056,note_on,20,0,3,,,,,,,,2,,,72,0
121080,note_on,36,0,8,,,,,,,,4,,,64,96
121164,note_on,84,0,8,,,,,,,,4,,,64,0
121200,note_on,36,0,8,,,,,,,,4,,,66,96
121284,note_on,84,0,8,,,,,,,,4,,,66,0
121320,note_on,36,0,8,,,,,,,,4,,,68,96
121404,note_on,84,0,8,,,,,,,,4,,,68,0
121440,note_on,36,0,8,,,,,,,,4,,,69,96
121524,note_on,84,0,8,,,,,,,,4,,,69,0
121560,note_on,36,0,8,,,,,,,,4,,,71,96
121644,note_on,84,0,8,,,,,,,,4,,,71,0
121680,note_on,36,0,8,,,,,,,,4,,,64,96
121680,note_on,0,0,8,,,,,,,,4,,,73,96
121680,note_on,1580,0,10,,,,,,,,8,,,61,96
121680,note_on,1606,0,12,,,,,,,,11,,,42,64
121680,note_on,1606,0,11,,,,,,,,10,,,54,96
121756,note_on,76,0,12,,,,,,,,11,,,42,0
121756,note_on,76,0,11,,,,,,,,10,,,54,0
121760,note_on,80,0,10,,,,,,,,8,,,61,0
121764,note_on,84,0,8,,,,,,,,4,,,73,0
121764,note_on,0,0,8,,,,,,,,4,,,64,0
121800,note_on,36,0,8,,,,,,,,4,,,70,96
121884,note_on,84,0,8,,,,,,,,4,,,70,0
121920,note_on,164,0,12,,,,,,,,11,,,47,64
121920,note_on,164,0,11,,,,,,,,10,,,59,96
121920,note_on,36,0,8,,,,,,,,4,,,62,96
121920,note_on,160,0,10,,,,,,,,8,,,59,96
121920,note_on,0,0,8,,,,,,,,4,,,71,96
122004,note_on,84,0,8,,,,,,,,4,,,71,0
122004,note_on,0,0,8,,,,,,,,4,,,62,0
122006,note_on,86,0,12,,,,,,,,11,,,47,0
122006,note_on,86,0,11,,,,,,,,10,,,59,0
122014,note_on,94,0,10,,,,,,,,8,,,59,0
122040,note_on,36,0,8,,,,,,,,4,,,66,96
122124,note_on,84,0,8,,,,,,,,4,,,66,0
122160,note_on,36,0,8,,,,,,,,4,,,68,96
122244,note_on,84,0,8,,,,,,,,4,,,68,0
122280,note_on,36,0,8,,,,,,,,4,,,70,96
122364,note_on,84,0,8,,,,,,,,4,,,70,0
122400,note_on,36,0,8,,,,,,,,4,,,71,96
122484,note_on,84,0,8,,,,,,,,4,,,71,0
122520,note_on,36,0,8,,,,,,,,4,,,73,96
122604,note_on,84,0,8,,,,,,,,4,,,73,0
122640,note_on,1604,0,2,,,,,,,,1,,,73,64
122640,note_on,1604,0,4,,,,,,,,3,,,66,64
122640,note_on,0,0,4,,,,,,,,3,,,54,64
122640,note_on,1594,0,1,,,,,,,,0,,,85,64
122640,note_on,0,0,2,,,,,,,,1,,,82,64
122640,note_on,36,0,8,,,,,,,,4,,,74,96
122702,note_on,62,0,2,,,,,,,,1,,,73,0
122704,note_on,64,0,1,,,,,,,,0,,,85,0
122710,note_on,8,0,2,,,,,,,,1,,,82,0
122712,note_on,72,0,4,,,,,,,,3,,,66,0
122714,note_on,2,0,4,,,,,,,,3,,,54,0
122724,note_on,84,0,8,,,,,,,,4,,,74,0
122760,note_on,36,0,8,,,,,,,,4,,,73,96
122844,note_on,84,0,8,,,,,,,,4,,,73,0
122880,note_on,170,0,2,,,,,,,,1,,,83,64
122880,note_on,0,0,2,,,,,,,,1,,,74,64
122880,note_on,176,0,1,,,,,,,,0,,,86,64
122880,note_on,166,0,4,,,,,,,,3,,,66,64
122880,note_on,0,0,4,,,,,,,,3,,,59,64
122880,note_on,36,0,8,,,,,,,,4,,,71,96
122940,note_on,60,0,2,,,,,,,,1,,,74,0
122950,note_on,70,0,1,,,,,,,,0,,,86,0
122956,note_on,16,0,2,,,,,,,,1,,,83,0
122964,note_on,84,0,4,,,,,,,,3,,,59,0
122964,note_on,0,0,4,,,,,,,,3,,,66,0
122964,note_on,84,0,8,,,,,,,,4,,,71,0
123000,note_on,36,0,8,,,,,,,,4,,,66,96
123084,note_on,84,0,8,,,,,,,,4,,,66,0
123120,note_on,36,0,8,,,,,,,,4,,,68,96
123204,note_on,84,0,8,,,,,,,,4,,,68,0
123240,note_on,36,0,8,,,,,,,,4,,,70,96
123324,note_on,84,0,8,,,,,,,,4,,,70,0
123360,note_on,36,0,8,,,,,,,,4,,,71,96
123444,note_on,84,0,8,,,,,,,,4,,,71,0
123480,note_on,36,0,8,,,,,,,,4,,,72,96
123564,note_on,84,0,8,,,,,,,,4,,,72,0
123600,note_on,1586,0,10,,,,,,,,8,,,62,96
123600,note_on,650,0,1,,,,,,,,0,,,90,64
123600,note_on,0,0,1,,,,,,,,0,,,85,64
123600,note_on,0,0,8,,,,,,,,4,,,74,96
123600,note_on,36,0,8,,,,,,,,4,,,65,96
123600,note_on,1594,0,11,,,,,,,,10,,,55,96
123600,note_on,1594,0,12,,,,,,,,11,,,43,64
123634,note_on,34,0,1,,,,,,,,0,,,90,0
123640,note_on,6,0,1,,,,,,,,0,,,85,0
123684,note_on,84,0,10,,,,,,,,8,,,62,0
123684,note_on,84,0,8,,,,,,,,4,,,74,0
123684,note_on,0,0,8,,,,,,,,4,,,65,0
123692,note_on,92,0,11,,,,,,,,10,,,55,0
123692,note_on,92,0,12,,,,,,,,11,,,43,0
123720,note_on,36,0,8,,,,,,,,4,,,71,96
123804,note_on,84,0,8,,,,,,,,4,,,71,0
123840,note_on,200,0,1,,,,,,,,0,,,86,64
123840,note_on,148,0,11,,,,,,,,10,,,60,96
123840,note_on,36,0,8,,,,,,,,4,,,72,96
123840,note_on,0,0,8,,,,,,,,4,,,64,96
123840,note_on,156,0,10,,,,,,,,8,,,60,96
123840,note_on,0,0,1,,,,,,,,0,,,90,64
123840,note_on,148,0,12,,,,,,,,11,,,48,64
123872,note_on,32,0,1,,,,,,,,0,,,86,0
123896,note_on,24,0,1,,,,,,,,0,,,90,0
123924,note_on,84,0,10,,,,,,,,8,,,60,0
123924,note_on,84,0,12,,,,,,,,11,,,48,0
123924,note_on,84,0,11,,,,,,,,10,,,60,0
123924,note_on,84,0,8,,,,,,,,4,,,64,0
123924,note_on,0,0,8,,,,,,,,4,,,72,0
123960,note_on,36,0,8,,,,,,,,4,,,67,96
124044,note_on,84,0,8,,,,,,,,4,,,67,0
124080,note_on,36,0,8,,,,,,,,4,,,69,96
124164,note_on,84,0,8,,,,,,,,4,,,69,0
124200,note_on,36,0,8,,,,,,,,4,,,71,96
124284,note_on,84,0,8,,,,,,,,4,,,71,0
124320,note_on,36,0,8,,,,,,,,4,,,72,96
124404,note_on,84,0,8,,,,,,,,4,,,72,0
124440,note_on,36,0,8,,,,,,,,4,,,74,96
124524,note_on,84,0,8,,,,,,,,4,,,74,0
124560,note_on,1604,0,2,,,,,,,,1,,,73,64
124560,note_on,664,0,1,,,,,,,,0,,,85,64
124560,note_on,1596,0,4,,,,,,,,3,,,57,64
124560,note_on,0,0,2,,,,,,,,1,,,76,64
124560,note_on,3504,0,3,,,,,,,,2,,,67,64
124560,note_on,0,0,3,,,,,,,,2,,,64,64
124560,note_on,636,0,11,,,,,,,,10,,,57,96
124560,note_on,636,0,10,,,,,,,,8,,,64,96
124560,note_on,636,0,12,,,,,,,,11,,,45,64
124560,note_on,36,0,8,,,,,,,,4,,,67,96
124560,note_on,0,0,8,,,,,,,,4,,,76,96
124620,note_on,60,0,2,,,,,,,,1,,,76,0
124620,note_on,0,0,2,,,,,,,,1,,,73,0
124624,note_on,64,0,1,,,,,,,,0,,,85,0
124626,note_on,66,0,3,,,,,,,,2,,,67,0
124630,note_on,4,0,3,,,,,,,,2,,,64,0
124632,note_on,72,0,4,,,,,,,,3,,,57,0
124644,note_on,0,0,8,,,,,,,,4,,,67,0
124644,note_on,84,0,8,,,,,,,,4,,,76,0
124650,note_on,90,0,10,,,,,,,,8,,,64,0
124652,note_on,92,0,11,,,,,,,,10,,,57,0
124652,note_on,92,0,12,,,,,,,,11,,,45,0
124680,note_on,36,0,8,,,,,,,,4,,,73,96
124764,note_on,84,0,8,,,,,,,,4,,,73,0
124800,note_on,150,0,10,,,,,,,,8,,,62,96
124800,note_on,148,0,12,,,,,,,,11,,,50,64
124800,note_on,170,0,3,,,,,,,,2,,,62,64
124800,note_on,180,0,2,,,,,,,,1,,,74,64
124800,note_on,0,0,8,,,,,,,,4,,,66,96
124800,note_on,36,0,8,,,,,,,,4,,,74,96
124800,note_on,0,0,3,,,,,,,,2,,,66,64
124800,note_on,148,0,11,,,,,,,,10,,,62,96
124800,note_on,168,0,4,,,,,,,,3,,,62,64
124800,note_on,176,0,1,,,,,,,,0,,,86,64
124800,note_on,0,0,2,,,,,,,,1,,,78,64
124866,note_on,66,0,2,,,,,,,,1,,,78,0
124872,note_on,6,0,2,,,,,,,,1,,,74,0
124872,note_on,72,0,1,,,,,,,,0,,,86,0
124876,note_on,76,0,3,,,,,,,,2,,,62,0
124880,note_on,80,0,12,,,,,,,,11,,,50,0
124880,note_on,4,0,3,,,,,,,,2,,,66,0
124880,note_on,80,0,11,,,,,,,,10,,,62,0
124882,note_on,82,0,10,,,,,,,,8,,,62,0
124882,note_on,82,0,4,,,,,,,,3,,,62,0
124884,note_on,84,0,8,,,,,,,,4,,,66,0
124884,note_on,0,0,8,,,,,,,,4,,,74,0
124920,note_on,36,0,8,,,,,,,,4,,,69,96
125004,note_on,84,0,8,,,,,,,,4,,,69,0
125040,note_on,36,0,8,,,,,,,,4,,,71,96
125124,note_on,84,0,8,,,,,,,,4,,,71,0
125160,note_on,36,0,8,,,,,,,,4,,,73,96
125244,note_on,84,0,8,,,,,,,,4,,,73,0
125280,note_on,36,0,8,,,,,,,,4,,,74,96
125364,note_on,84,0,8,,,,,,,,4,,,74,0
125400,note_on,36,0,8,,,,,,,,4,,,76,96
125484,note_on,84,0,8,,,,,,,,4,,,76,0
125520,note_on,36,0,8,,,,,,,,4,,,69,96
125520,note_on,0,0,8,,,,,,,,4,,,78,96
125520,note_on,648,0,2,,,,,,,,1,,,75,64
125520,note_on,640,0,11,,,,,,,,10,,,59,96
125520,note_on,640,0,3,,,,,,,,2,,,69,64
125520,note_on,0,0,2,,,,,,,,1,,,78,64
125520,note_on,0,0,4,,,,,,,,3,,,59,64
125520,note_on,640,0,12,,,,,,,,11,,,47,64
125520,note_on,648,0,1,,,,,,,,0,,,87,64
125520,note_on,0,0,3,,,,,,,,2,,,66,64
125520,note_on,638,0,4,,,,,,,,3,,,47,64
125520,note_on,638,0,10,,,,,,,,8,,,66,96
125570,note_on,50,0,2,,,,,,,,1,,,75,0
125574,note_on,4,0,2,,,,,,,,1,,,78,0
125586,note_on,66,0,3,,,,,,,,2,,,66,0
125586,note_on,0,0,3,,,,,,,,2,,,69,0
125586,note_on,66,0,4,,,,,,,,3,,,47,0
125596,note_on,76,0,1,,,,,,,,0,,,87,0
125596,note_on,10,0,4,,,,,,,,3,,,59,0
125600,note_on,80,0,10,,,,,,,,8,,,66,0
125604,note_on,0,0,8,,,,,,,,4,,,69,0
125604,note_on,84,0,8,,,,,,,,4,,,78,0
125614,note_on,94,0,12,,,,,,,,11,,,47,0
125614,note_on,94,0,11,,,,,,,,10,,,59,0
125640,note_on,36,0,8,,,,,,,,4,,,75,96
125724,note_on,84,0,8,,,,,,,,4,,,75,0
125760,note_on,0,0,8,,,,,,,,4,,,67,80
125760,note_on,0,0,8,,,,,,,,4,,,76,80
125760,control_change,36,0,8,,,,,,,,4,7,110,,
125760,note_on,186,0,2,,,,,,,,1,,,76,64
125760,note_on,146,0,12,,,,,,,,11,,,40,80
125760,note_on,0,0,2,,,,,,,,1,,,79,64
125760,note_on,146,0,11,,,,,,,,10,,,52,80
125760,note_on,164,0,4,,,,,,,,3,,,52,64
125760,note_on,164,0,1,,,,,,,,0,,,88,64
125760,note_on,0,0,3,,,,,,,,2,,,67,64
125760,note_on,174,0,3,,,,,,,,2,,,64,64
125760,note_on,0,0,4,,,,,,,,3,,,64,64
125760,note_on,160,0,10,,,,,,,,8,,,67,80
125812,note_on,52,0,2,,,,,,,,1,,,76,0
125830,note_on,70,0,3,,,,,,,,2,,,64,0
125834,note_on,4,0,3,,,,,,,,2,,,67,0
125836,note_on,76,0,10,,,,,,,,8,,,67,0
125836,note_on,24,0,2,,,,,,,,1,,,79,0
125840,note_on,80,0,4,,,,,,,,3,,,64,0
125846,note_on,86,0,1,,,,,,,,0,,,88,0
125852,note_on,12,0,4,,,,,,,,3,,,52,0
125856,note_on,96,0,12,,,,,,,,11,,,40,0
125856,note_on,96,0,11,,,,,,,,10,,,52,0
125862,note_on,102,0,8,,,,,,,,4,,,67,0
125880,note_on,18,0,8,,,,,,,,4,,,76,0
125880,note_on,0,0,8,,,,,,,,4,,,67,81
125880,note_on,0,0,8,,,,,,,,4,,,76,81
125980,note_on,100,0,8,,,,,,,,4,,,67,0
126000,note_on,20,0,8,,,,,,,,4,,,76,0
126000,note_on,0,0,8,,,,,,,,4,,,75,83
126000,note_on,0,0,8,,,,,,,,4,,,63,83
126000,note_on,164,0,10,,,,,,,,8,,,63,83
126000,note_on,166,0,3,,,,,,,,2,,,63,64
126000,note_on,144,0,11,,,,,,,,10,,,51,83
126000,note_on,148,0,4,,,,,,,,3,,,51,64
126000,note_on,164,0,2,,,,,,,,1,,,75,64
126000,note_on,144,0,12,,,,,,,,11,,,39,83
126056,note_on,56,0,3,,,,,,,,2,,,63,0
126064,note_on,64,0,2,,,,,,,,1,,,75,0
126080,note_on,80,0,10,,,,,,,,8,,,63,0
126086,note_on,86,0,4,,,,,,,,3,,,51,0
126092,note_on,92,0,12,,,,,,,,11,,,39,0
126092,note_on,92,0,11,,,,,,,,10,,,51,0
126094,note_on,94,0,8,,,,,,,,4,,,63,0
126120,note_on,26,0,8,,,,,,,,4,,,75,0
126120,note_on,0,0,8,,,,,,,,4,,,63,84
126120,note_on,0,0,8,,,,,,,,4,,,75,84
126222,note_on,102,0,8,,,,,,,,4,,,63,0
126240,note_on,160,0,10,,,,,,,,8,,,64,85
126240,note_on,184,0,3,,,,,,,,2,,,64,64
126240,note_on,154,0,4,,,,,,,,3,,,52,64
126240,note_on,18,0,8,,,,,,,,4,,,75,0
126240,note_on,148,0,11,,,,,,,,10,,,52,85
126240,note_on,148,0,12,,,,,,,,11,,,40,85
126240,note_on,0,0,8,,,,,,,,4,,,76,85
126240,note_on,0,0,8,,,,,,,,4,,,64,85
126240,note_on,176,0,2,,,,,,,,1,,,76,64
126314,note_on,74,0,2,,,,,,,,1,,,76,0
126314,note_on,74,0,3,,,,,,,,2,,,64,0
126322,note_on,82,0,10,,,,,,,,8,,,64,0
126332,note_on,92,0,12,,,,,,,,11,,,40,0
126332,note_on,92,0,11,,,,,,,,10,,,52,0
126336,note_on,96,0,4,,,,,,,,3,,,52,0
126342,note_on,102,0,8,,,,,,,,4,,,64,0
126360,note_on,18,0,8,,,,,,,,4,,,76,0
126360,note_on,0,0,8,,,,,,,,4,,,76,86
126360,note_on,0,0,8,,,,,,,,4,,,64,86
126460,note_on,100,0,8,,,,,,,,4,,,64,0
126480,note_on,158,0,10,,,,,,,,8,,,66,88
126480,note_on,148,0,11,,,,,,,,10,,,54,88
126480,note_on,148,0,12,,,,,,,,11,,,42,88
126480,note_on,166,0,2,,,,,,,,1,,,78,64
126480,note_on,166,0,3,,,,,,,,2,,,66,64
126480,note_on,144,0,4,,,,,,,,3,,,54,64
126480,note_on,20,0,8,,,,,,,,4,,,76,0
126480,note_on,0,0,8,,,,,,,,4,,,66,88
126480,note_on,0,0,8,,,,,,,,4,,,78,88
126540,note_on,60,0,2,,,,,,,,1,,,78,0
126542,note_on,62,0,3,,,,,,,,2,,,66,0
126566,note_on,86,0,11,,,,,,,,10,,,54,0
126566,note_on,86,0,12,,,,,,,,11,,,42,0
126570,note_on,90,0,10,,,,,,,,8,,,66,0
126572,note_on,92,0,8,,,,,,,,4,,,66,0
126576,note_on,96,0,4,,,,,,,,3,,,54,0
126600,note_on,0,0,8,,,,,,,,4,,,78,89
126600,note_on,0,0,8,,,,,,,,4,,,66,89
126600,note_on,28,0,8,,,,,,,,4,,,78,0
126692,note_on,92,0,8,,,,,,,,4,,,66,0
126720,note_on,0,0,8,,,,,,,,4,,,79,90
126720,note_on,0,0,8,,,,,,,,4,,,67,90
126720,note_on,154,0,12,,,,,,,,11,,,43,90
126720,note_on,144,0,4,,,,,,,,3,,,55,64
126720,control_change,0,0,8,,,,,,,,4,7,115,,
126720,note_on,28,0,8,,,,,,,,4,,,78,0
126720,note_on,154,0,11,,,,,,,,10,,,55,90
126720,note_on,178,0,3,,,,,,,,2,,,67,64
126720,note_on,180,0,2,,,,,,,,1,,,79,64
126720,note_on,150,0,10,,,,,,,,8,,,67,90
126780,note_on,60,0,3,,,,,,,,2,,,67,0
126784,note_on,64,0,2,,,,,,,,1,,,79,0
126802,note_on,82,0,11,,,,,,,,10,,,55,0
126802,note_on,82,0,12,,,,,,,,11,,,43,0
126804,note_on,84,0,4,,,,,,,,3,,,55,0
126812,note_on,92,0,10,,,,,,,,8,,,67,0
126814,note_on,94,0,8,,,,,,,,4,,,67,0
126840,note_on,0,0,8,,,,,,,,4,,,79,91
126840,note_on,0,0,8,,,,,,,,4,,,67,91
126840,note_on,26,0,8,,,,,,,,4,,,79,0
126936,note_on,96,0,8,,,,,,,,4,,,67,0
126960,note_on,176,0,2,,,,,,,,1,,,78,64
126960,note_on,0,0,8,,,,,,,,4,,,78,93
126960,note_on,0,0,8,,,,,,,,4,,,66,93
126960,note_on,24,0,8,,,,,,,,4,,,79,0
126960,note_on,148,0,10,,,,,,,,8,,,66,93
126960,note_on,158,0,12,,,,,,,,11,,,42,93
126960,note_on,180,0,3,,,,,,,,2,,,66,64
126960,note_on,158,0,11,,,,,,,,10,,,54,93
126960,note_on,156,0,4,,,,,,,,3,,,54,64
127022,note_on,62,0,3,,,,,,,,2,,,66,0
127026,note_on,66,0,2,,,,,,,,1,,,78,0
127032,note_on,72,0,4,,,,,,,,3,,,54,0
127042,note_on,82,0,10,,,,,,,,8,,,66,0
127046,note_on,86,0,12,,,,,,,,11,,,42,0
127046,note_on,86,0,11,,,,,,,,10,,,54,0
127054,note_on,94,0,8,,,,,,,,4,,,66,0
127080,note_on,0,0,8,,,,,,,,4,,,78,94
127080,note_on,0,0,8,,,,,,,,4,,,66,94
127080,note_on,26,0,8,,,,,,,,4,,,78,0
127170,note_on,90,0,8,,,,,,,,4,,,66,0
127200,note_on,158,0,10,,,,,,,,8,,,67,95
127200,note_on,178,0,3,,,,,,,,2,,,67,64
127200,note_on,30,0,8,,,,,,,,4,,,78,0
127200,note_on,0,0,8,,,,,,,,4,,,67,95
127200,note_on,0,0,8,,,,,,,,4,,,79,95
127200,note_on,154,0,12,,,,,,,,11,,,43,95
127200,note_on,154,0,11,,,,,,,,10,,,55,95
127200,note_on,168,0,4,,,,,,,,3,,,55,64
127200,note_on,174,0,2,,,,,,,,1,,,79,64
127254,note_on,54,0,2,,,,,,,,1,,,79,0
127272,note_on,72,0,3,,,,,,,,2,,,67,0
127272,note_on,72,0,4,,,,,,,,3,,,55,0
127276,note_on,76,0,12,,,,,,,,11,,,43,0
127276,note_on,76,0,11,,,,,,,,10,,,55,0
127292,note_on,92,0,10,,,,,,,,8,,,67,0
127292,note_on,92,0,8,,,,,,,,4,,,67,0
127320,note_on,28,0,8,,,,,,,,4,,,79,0
127320,note_on,0,0,8,,,,,,,,4,,,79,96
127320,note_on,0,0,8,,,,,,,,4,,,67,96
127422,note_on,102,0,8,,,,,,,,4,,,67,0
127440,note_on,168,0,4,,,,,,,,3,,,57,64
127440,note_on,168,0,3,,,,,,,,2,,,69,64
127440,note_on,164,0,12,,,,,,,,11,,,45,98
127440,note_on,186,0,2,,,,,,,,1,,,81,64
127440,note_on,148,0,10,,,,,,,,8,,,69,98
127440,note_on,0,0,8,,,,,,,,4,,,81,98
127440,note_on,0,0,8,,,,,,,,4,,,69,98
127440,note_on,18,0,8,,,,,,,,4,,,79,0
127440,note_on,164,0,11,,,,,,,,10,,,57,98
127496,note_on,56,0,3,,,,,,,,2,,,69,0
127512,note_on,72,0,4,,,,,,,,3,,,57,0
127512,note_on,72,0,2,,,,,,,,1,,,81,0
127524,note_on,84,0,8,,,,,,,,4,,,69,0
127532,note_on,92,0,10,,,,,,,,8,,,69,0
127534,note_on,94,0,12,,,,,,,,11,,,45,0
127534,note_on,94,0,11,,,,,,,,10,,,57,0
127560,note_on,36,0,8,,,,,,,,4,,,81,0
127560,note_on,0,0,8,,,,,,,,4,,,81,99
127560,note_on,0,0,8,,,,,,,,4,,,69,99
127650,note_on,90,0,8,,,,,,,,4,,,69,0
127680,note_on,0,0,8,,,,,,,,4,,,71,100
127680,note_on,30,0,8,,,,,,,,4,,,81,0
127680,control_change,0,0,8,,,,,,,,4,7,120,,
127680,note_on,0,0,8,,,,,,,,4,,,83,100
127680,note_on,146,0,12,,,,,,,,11,,,47,100
127680,note_on,146,0,11,,,,,,,,10,,,59,100
127680,note_on,0,0,2,,,,,,,,1,,,83,64
127680,note_on,148,0,10,,,,,,,,8,,,71,100
127680,note_on,168,0,4,,,,,,,,3,,,59,64
127680,note_on,184,0,3,,,,,,,,2,,,71,64
127680,note_on,168,0,2,,,,,,,,1,,,81,64
127706,note_on,26,0,2,,,,,,,,1,,,81,0
127742,note_on,36,0,2,,,,,,,,1,,,83,0
127746,note_on,66,0,4,,,,,,,,3,,,59,0
127752,note_on,72,0,3,,,,,,,,2,,,71,0
127766,note_on,86,0,12,,,,,,,,11,,,47,0
127766,note_on,86,0,11,,,,,,,,10,,,59,0
127770,note_on,90,0,8,,,,,,,,4,,,71,0
127772,note_on,92,0,10,,,,,,,,8,,,71,0
127800,note_on,0,0,8,,,,,,,,4,,,83,101
127800,note_on,30,0,8,,,,,,,,4,,,83,0
127800,note_on,0,0,8,,,,,,,,4,,,71,101
127886,note_on,86,0,8,,,,,,,,4,,,71,0
127920,note_on,154,0,12,,,,,,,,11,,,42,103
127920,note_on,148,0,10,,,,,,,,8,,,66,103
127920,note_on,0,0,8,,,,,,,,4,,,66,103
127920,note_on,2074,0,1,,,,,,,,0,,,78,64
127920,note_on,174,0,4,,,,,,,,3,,,54,64
127920,note_on,34,0,8,,,,,,,,4,,,83,0
127920,note_on,0,0,8,,,,,,,,4,,,78,103
127920,note_on,154,0,11,,,,,,,,10,,,54,103
127920,note_on,168,0,3,,,,,,,,2,,,66,64
127920,note_on,178,0,2,,,,,,,,1,,,78,64
127982,note_on,62,0,3,,,,,,,,2,,,66,0
127984,note_on,64,0,4,,,,,,,,3,,,54,0
127984,note_on,64,0,2,,,,,,,,1,,,78,0
127986,note_on,66,0,1,,,,,,,,0,,,78,0
128012,note_on,92,0,11,,,,,,,,10,,,54,0
128012,note_on,92,0,8,,,,,,,,4,,,66,0
128012,note_on,92,0,12,,,,,,,,11,,,42,0
128016,note_on,96,0,10,,,,,,,,8,,,66,0
128040,note_on,0,0,8,,,,,,,,4,,,78,104
128040,note_on,0,0,8,,,,,,,,4,,,66,104
128040,note_on,28,0,8,,,,,,,,4,,,78,0
128140,note_on,100,0,8,,,,,,,,4,,,66,0
128160,note_on,0,0,8,,,,,,,,4,,,67,105
128160,note_on,148,0,11,,,,,,,,10,,,55,105
128160,note_on,176,0,2,,,,,,,,1,,,79,64
128160,note_on,174,0,1,,,,,,,,0,,,79,64
128160,note_on,20,0,8,,,,,,,,4,,,78,0
128160,note_on,144,0,10,,,,,,,,8,,,67,105
128160,note_on,178,0,3,,,,,,,,2,,,67,64
128160,note_on,0,0,8,,,,,,,,4,,,79,105
128160,note_on,148,0,12,,,,,,,,11,,,43,105
128160,note_on,176,0,4,,,,,,,,3,,,55,64
128226,note_on,66,0,4,,,,,,,,3,,,55,0
128230,note_on,70,0,1,,,,,,,,0,,,79,0
128240,note_on,80,0,3,,,,,,,,2,,,67,0
128244,note_on,84,0,10,,,,,,,,8,,,67,0
128246,note_on,86,0,2,,,,,,,,1,,,79,0
128260,note_on,100,0,8,,,,,,,,4,,,67,0
128264,note_on,104,0,12,,,,,,,,11,,,43,0
128264,note_on,104,0,11,,,,,,,,10,,,55,0
128280,note_on,0,0,8,,,,,,,,4,,,67,106
128280,note_on,0,0,8,,,,,,,,4,,,79,106
128280,note_on,20,0,8,,,,,,,,4,,,79,0
128382,note_on,102,0,8,,,,,,,,4,,,67,0
128400,note_on,0,0,8,,,,,,,,4,,,69,108
128400,note_on,18,0,8,,,,,,,,4,,,79,0
128400,note_on,156,0,10,,,,,,,,8,,,69,108
128400,note_on,170,0,1,,,,,,,,0,,,81,64
128400,note_on,0,0,8,,,,,,,,4,,,81,108
128400,note_on,136,0,12,,,,,,,,11,,,45,108
128400,note_on,174,0,4,,,,,,,,3,,,57,64
128400,note_on,160,0,3,,,,,,,,2,,,69,64
128400,note_on,136,0,11,,,,,,,,10,,,57,108
128400,note_on,154,0,2,,,,,,,,1,,,81,64
128456,note_on,56,0,3,,,,,,,,2,,,69,0
128460,note_on,60,0,2,,,,,,,,1,,,81,0
128466,note_on,66,0,4,,,,,,,,3,,,57,0
128472,note_on,72,0,1,,,,,,,,0,,,81,0
128490,note_on,90,0,12,,,,,,,,11,,,45,0
128490,note_on,90,0,11,,,,,,,,10,,,57,0
128490,note_on,90,0,8,,,,,,,,4,,,69,0
128490,note_on,90,0,10,,,,,,,,8,,,69,0
128520,note_on,30,0,8,,,,,,,,4,,,81,0
128520,note_on,0,0,8,,,,,,,,4,,,81,109
128520,note_on,0,0,8,,,,,,,,4,,,69,109
128606,note_on,86,0,8,,,,,,,,4,,,69,0
128640,note_on,184,0,3,,,,,,,,2,,,71,64
128640,note_on,168,0,1,,,,,,,,0,,,83,64
128640,note_on,150,0,12,,,,,,,,11,,,47,110
128640,note_on,34,0,8,,,,,,,,4,,,81,0
128640,note_on,150,0,11,,,,,,,,10,,,59,110
128640,note_on,180,0,2,,,,,,,,1,,,83,64
128640,note_on,150,0,10,,,,,,,,8,,,71,110
128640,control_change,0,0,8,,,,,,,,4,7,123,,
128640,note_on,174,0,4,,,,,,,,3,,,59,64
128640,note_on,0,0,8,,,,,,,,4,,,83,110
128640,note_on,0,0,8,,,,,,,,4,,,71,110
128702,note_on,62,0,2,,,,,,,,1,,,83,0
128706,note_on,66,0,3,,,,,,,,2,,,71,0
128714,note_on,74,0,4,,,,,,,,3,,,59,0
128720,note_on,80,0,1,,,,,,,,0,,,83,0
128722,note_on,82,0,11,,,,,,,,10,,,59,0
128722,note_on,82,0,12,,,,,,,,11,,,47,0
128726,note_on,86,0,10,,,,,,,,8,,,71,0
128732,note_on,92,0,8,,,,,,,,4,,,71,0
128760,note_on,0,0,8,,,,,,,,4,,,71,111
128760,note_on,28,0,8,,,,,,,,4,,,83,0
128760,note_on,0,0,8,,,,,,,,4,,,83,111
128846,note_on,86,0,8,,,,,,,,4,,,71,0
128880,note_on,178,0,2,,,,,,,,1,,,81,64
128880,note_on,174,0,3,,,,,,,,2,,,69,64
128880,note_on,34,0,8,,,,,,,,4,,,83,0
128880,note_on,158,0,12,,,,,,,,11,,,45,113
128880,note_on,0,0,8,,,,,,,,4,,,69,113
128880,note_on,154,0,10,,,,,,,,8,,,69,113
128880,note_on,0,0,8,,,,,,,,4,,,81,113
128880,note_on,166,0,4,,,,,,,,3,,,57,64
128880,note_on,158,0,11,,,,,,,,10,,,57,113
128880,note_on,160,0,1,,,,,,,,0,,,81,64
128936,note_on,56,0,3,,,,,,,,2,,,69,0
128944,note_on,64,0,2,,,,,,,,1,,,81,0
128952,note_on,72,0,1,,,,,,,,0,,,81,0
128956,note_on,76,0,4,,,,,,,,3,,,57,0
128962,note_on,82,0,10,,,,,,,,8,,,69,0
128966,note_on,86,0,11,,,,,,,,10,,,57,0
128966,note_on,86,0,8,,,,,,,,4,,,69,0
128966,note_on,86,0,12,,,,,,,,11,,,45,0
129000,note_on,34,0,8,,,,,,,,4,,,81,0
129000,note_on,0,0,8,,,,,,,,4,,,69,114
129000,note_on,0,0,8,,,,,,,,4,,,81,114
129086,note_on,86,0,8,,,,,,,,4,,,69,0
129120,note_on,0,0,8,,,,,,,,4,,,71,115
129120,note_on,184,0,3,,,,,,,,2,,,71,64
129120,note_on,176,0,2,,,,,,,,1,,,83,64
129120,note_on,168,0,1,,,,,,,,0,,,83,64
129120,note_on,154,0,11,,,,,,,,10,,,59,115
129120,note_on,154,0,12,,,,,,,,11,,,47,115
129120,note_on,158,0,10,,,,,,,,8,,,71,115
129120,note_on,164,0,4,,,,,,,,3,,,59,64
129120,note_on,34,0,8,,,,,,,,4,,,81,0
129120,note_on,0,0,8,,,,,,,,4,,,83,115
129172,note_on,52,0,4,,,,,,,,3,,,59,0
129182,note_on,62,0,3,,,,,,,,2,,,71,0
129186,note_on,66,0,2,,,,,,,,1,,,83,0
129196,note_on,76,0,1,,,,,,,,0,,,83,0
129204,note_on,84,0,11,,,,,,,,10,,,59,0
129204,note_on,84,0,12,,,,,,,,11,,,47,0
129206,note_on,86,0,8,,,,,,,,4,,,71,0
129212,note_on,92,0,10,,,,,,,,8,,,71,0
129240,note_on,34,0,8,,,,,,,,4,,,83,0
129240,note_on,0,0,8,,,,,,,,4,,,71,116
129240,note_on,0,0,8,,,,,,,,4,,,83,116
129326,note_on,86,0,8,,,,,,,,4,,,71,0
129360,note_on,0,0,8,,,,,,,,4,,,72,118
129360,note_on,0,0,8,,,,,,,,4,,,84,118
129360,note_on,34,0,8,,,,,,,,4,,,83,0
129360,note_on,148,0,10,,,,,,,,8,,,72,118
129360,note_on,156,0,12,,,,,,,,11,,,48,118
129360,note_on,188,0,4,,,,,,,,3,,,60,64
129360,note_on,164,0,1,,,,,,,,0,,,84,64
129360,note_on,174,0,2,,,,,,,,1,,,84,64
129360,note_on,178,0,3,,,,,,,,2,,,72,64
129360,note_on,0,0,8,,,,,,,,4,,,71,118
129360,note_on,156,0,11,,,,,,,,10,,,60,118
129416,note_on,56,0,4,,,,,,,,3,,,60,0
129420,note_on,60,0,3,,,,,,,,2,,,72,0
129426,note_on,66,0,8,,,,,,,,4,,,71,0
129432,note_on,6,0,8,,,,,,,,4,,,72,0
129436,note_on,76,0,2,,,,,,,,1,,,84,0
129442,note_on,82,0,1,,,,,,,,0,,,84,0
129450,note_on,90,0,11,,,,,,,,10,,,60,0
129450,note_on,90,0,12,,,,,,,,11,,,48,0
129460,note_on,100,0,10,,,,,,,,8,,,72,0
129480,note_on,0,0,8,,,,,,,,4,,,72,119
129480,note_on,0,0,8,,,,,,,,4,,,84,119
129480,note_on,48,0,8,,,,,,,,4,,,84,0
129554,note_on,74,0,8,,,,,,,,4,,,72,0
129600,note_on,0,0,8,,,,,,,,4,,,74,127
129600,note_on,184,0,4,,,,,,,,3,,,62,64
129600,note_on,140,0,10,,,,,,,,8,,,74,127
129600,control_change,0,0,8,,,,,,,,4,7,127,,
129600,note_on,0,0,8,,,,,,,,4,,,86,127
129600,note_on,8578,0,5,,,,,,,,5,,,62,64
129600,note_on,158,0,1,,,,,,,,0,,,86,64
129600,note_on,46,0,8,,,,,,,,4,,,84,0
129600,note_on,0,0,8,,,,,,,,4,,,83,100
129600,note_on,150,0,11,,,,,,,,10,,,62,127
129600,note_on,164,0,2,,,,,,,,1,,,86,64
129600,note_on,180,0,3,,,,,,,,2,,,74,64
129600,note_on,150,0,12,,,,,,,,11,,,50,96
129660,note_on,60,0,2,,,,,,,,1,,,86,0
129664,note_on,64,0,4,,,,,,,,3,,,62,0
129670,note_on,70,0,3,,,,,,,,2,,,74,0
129672,note_on,72,0,12,,,,,,,,11,,,50,0
129672,note_on,72,0,11,,,,,,,,10,,,62,0
129674,note_on,74,0,10,,,,,,,,8,,,74,0
129686,note_on,86,0,8,,,,,,,,4,,,74,0
129700,note_on,14,0,8,,,,,,,,4,,,83,0
129720,note_on,20,0,8,,,,,,,,4,,,86,0
129720,note_on,0,0,8,,,,,,,,4,,,83,127
129720,note_on,0,0,8,,,,,,,,4,,,86,127
129736,note_on,136,0,1,,,,,,,,0,,,86,0
129826,note_on,106,0,8,,,,,,,,4,,,83,0
129840,note_on,168,0,12,,,,,,,,11,,,30,64
129840,note_on,168,0,11,,,,,,,,10,,,42,127
129840,note_on,14,0,8,,,,,,,,4,,,86,0
129840,note_on,0,0,8,,,,,,,,4,,,83,127
129840,note_on,180,0,2,,,,,,,,1,,,66,64
129840,note_on,0,0,4,,,,,,,,3,,,42,64
129840,note_on,176,0,4,,,,,,,,3,,,54,64
129840,note_on,166,0,10,,,,,,,,8,,,54,127
129840,note_on,0,0,8,,,,,,,,4,,,86,127
129940,note_on,100,0,8,,,,,,,,4,,,83,0
129960,note_on,0,0,8,,,,,,,,4,,,86,127
129960,note_on,0,0,8,,,,,,,,4,,,83,127
129960,note_on,20,0,8,,,,,,,,4,,,86,0
130054,note_on,94,0,8,,,,,,,,4,,,83,0
130080,note_on,240,0,11,,,,,,,,10,,,43,127
130080,note_on,240,0,10,,,,,,,,8,,,55,127
130080,note_on,26,0,8,,,,,,,,4,,,86,0
130080,note_on,240,0,12,,,,,,,,11,,,31,64
130080,note_on,0,0,4,,,,,,,,3,,,55,64
130080,note_on,240,0,4,,,,,,,,3,,,43,64
130080,note_on,240,0,2,,,,,,,,1,,,67,64
130080,note_on,0,0,8,,,,,,,,4,,,83,127
130080,note_on,0,0,8,,,,,,,,4,,,86,127
130112,note_on,32,0,4,,,,,,,,3,,,54,0
130114,note_on,34,0,2,,,,,,,,1,,,66,0
130116,note_on,4,0,4,,,,,,,,3,,,42,0
130124,note_on,44,0,10,,,,,,,,8,,,54,0
130136,note_on,56,0,11,,,,,,,,10,,,42,0
130136,note_on,56,0,12,,,,,,,,11,,,30,0
130176,note_on,96,0,8,,,,,,,,4,,,83,0
130200,note_on,0,0,8,,,,,,,,4,,,86,127
130200,note_on,0,0,8,,,,,,,,4,,,83,127
130200,note_on,24,0,8,,,,,,,,4,,,86,0
130302,note_on,102,0,8,,,,,,,,4,,,83,0
130320,note_on,204,0,4,,,,,,,,3,,,47,64
130320,note_on,184,0,12,,,,,,,,11,,,35,64
130320,note_on,206,0,2,,,,,,,,1,,,71,64
130320,note_on,0,0,4,,,,,,,,3,,,59,64
130320,note_on,184,0,11,,,,,,,,10,,,47,127
130320,note_on,0,0,8,,,,,,,,4,,,86,127
130320,note_on,0,0,8,,,,,,,,4,,,83,127
130320,note_on,18,0,8,,,,,,,,4,,,86,0
130320,note_on,196,0,10,,,,,,,,8,,,59,127
130346,note_on,0,0,4,,,,,,,,3,,,55,0
130346,note_on,26,0,4,,,,,,,,3,,,43,0
130354,note_on,34,0,2,,,,,,,,1,,,67,0
130372,note_on,52,0,11,,,,,,,,10,,,43,0
130372,note_on,52,0,12,,,,,,,,11,,,31,0
130374,note_on,54,0,10,,,,,,,,8,,,55,0
130420,note_on,100,0,8,,,,,,,,4,,,83,0
130440,note_on,0,0,8,,,,,,,,4,,,86,127
130440,note_on,0,0,8,,,,,,,,4,,,83,127
130440,note_on,20,0,8,,,,,,,,4,,,86,0
130542,note_on,102,0,8,,,,,,,,4,,,83,0
130554,note_on,200,0,2,,,,,,,,1,,,71,0
130560,note_on,188,0,11,,,,,,,,10,,,50,127
130560,note_on,188,0,12,,,,,,,,11,,,38,96
130560,note_on,0,0,8,,,,,,,,4,,,83,127
130560,note_on,18,0,8,,,,,,,,4,,,86,0
130560,note_on,6,0,2,,,,,,,,1,,,74,64
130560,note_on,186,0,10,,,,,,,,8,,,62,127
130560,note_on,214,0,4,,,,,,,,3,,,50,64
130560,note_on,0,0,4,,,,,,,,3,,,62,64
130560,note_on,0,0,8,,,,,,,,4,,,86,127
130586,note_on,26,0,4,,,,,,,,3,,,59,0
130592,note_on,6,0,4,,,,,,,,3,,,47,0
130602,note_on,42,0,12,,,,,,,,11,,,35,0
130602,note_on,42,0,11,,,,,,,,10,,,47,0
130632,note_on,72,0,10,,,,,,,,8,,,59,0
130666,note_on,106,0,8,,,,,,,,4,,,83,0
130680,note_on,14,0,8,,,,,,,,4,,,86,0
130680,note_on,0,0,8,,,,,,,,4,,,86,127
130680,note_on,0,0,8,,,,,,,,4,,,83,127
130684,note_on,1084,0,5,,,,,,,,5,,,62,0
130782,note_on,102,0,8,,,,,,,,4,,,83,0
130800,note_on,0,0,8,,,,,,,,4,,,83,127
130800,note_on,18,0,8,,,,,,,,4,,,86,0
130800,note_on,0,0,8,,,,,,,,4,,,86,127
130900,note_on,100,0,8,,,,,,,,4,,,83,0
130920,note_on,0,0,8,,,,,,,,4,,,86,127
130920,note_on,0,0,8,,,,,,,,4,,,83,127
130920,note_on,20,0,8,,,,,,,,4,,,86,0
131014,note_on,94,0,8,,,,,,,,4,,,83,0
131040,note_on,0,0,8,,,,,,,,4,,,86,127
131040,note_on,0,0,8,,,,,,,,4,,,83,127
131040,note_on,26,0,8,,,,,,,,4,,,86,0
131134,note_on,94,0,8,,,,,,,,4,,,83,0
131142,note_on,582,0,2,,,,,,,,1,,,74,0
131160,note_on,0,0,8,,,,,,,,4,,,83,127
131160,note_on,26,0,8,,,,,,,,4,,,86,0
131160,note_on,0,0,8,,,,,,,,4,,,86,127
131166,note_on,534,0,10,,,,,,,,8,,,62,0
131184,note_on,582,0,12,,,,,,,,11,,,38,0
131184,note_on,582,0,11,,,,,,,,10,,,50,0
131200,note_on,608,0,4,,,,,,,,3,,,62,0
131206,note_on,6,0,4,,,,,,,,3,,,50,0
131260,note_on,100,0,8,,,,,,,,4,,,83,0
131280,note_on,96,0,11,,,,,,,,10,,,51,127
131280,note_on,138,0,2,,,,,,,,1,,,75,64
131280,note_on,114,0,10,,,,,,,,8,,,63,127
131280,note_on,1610,0,3,,,,,,,,2,,,63,64
131280,note_on,96,0,12,,,,,,,,11,,,39,96
131280,note_on,0,0,4,,,,,,,,3,,,51,64
131280,note_on,74,0,4,,,,,,,,3,,,63,64
131280,note_on,0,0,8,,,,,,,,4,,,84,127
131280,note_on,0,0,8,,,,,,,,4,,,81,127
131280,note_on,20,0,8,,,,,,,,4,,,86,0
131366,note_on,86,0,2,,,,,,,,1,,,75,0
131372,note_on,92,0,4,,,,,,,,3,,,63,0
131376,note_on,96,0,8,,,,,,,,4,,,81,0
131380,note_on,8,0,4,,,,,,,,3,,,51,0
131382,note_on,102,0,3,,,,,,,,2,,,63,0
131400,note_on,24,0,8,,,,,,,,4,,,84,0
131400,note_on,0,0,8,,,,,,,,4,,,84,127
131400,note_on,0,0,8,,,,,,,,4,,,81,127
131404,note_on,124,0,10,,,,,,,,8,,,63,0
131422,note_on,142,0,12,,,,,,,,11,,,39,0
131422,note_on,142,0,11,,,,,,,,10,,,51,0
131494,note_on,94,0,8,,,,,,,,4,,,81,0
131520,note_on,0,0,8,,,,,,,,4,,,79,127
131520,note_on,154,0,2,,,,,,,,1,,,76,64
131520,note_on,0,0,8,,,,,,,,4,,,83,127
131520,note_on,98,0,12,,,,,,,,11,,,40,96
131520,note_on,138,0,3,,,,,,,,2,,,64,64
131520,note_on,0,0,5,,,,,,,,5,,,55,64
131520,note_on,836,0,5,,,,,,,,5,,,67,64
131520,note_on,26,0,8,,,,,,,,4,,,84,0
131520,note_on,0,0,4,,,,,,,,3,,,52,64
131520,note_on,140,0,4,,,,,,,,3,,,64,64
131520,note_on,116,0,10,,,,,,,,8,,,64,127
131520,note_on,98,0,11,,,,,,,,10,,,52,127
131612,note_on,92,0,8,,,,,,,,4,,,79,0
131620,note_on,100,0,4,,,,,,,,3,,,64,0
131640,note_on,28,0,8,,,,,,,,4,,,83,0
131640,note_on,0,0,8,,,,,,,,4,,,83,127
131640,note_on,0,0,8,,,,,,,,4,,,79,127
131692,note_on,72,0,4,,,,,,,,3,,,52,0
131730,note_on,90,0,8,,,,,,,,4,,,79,0
131760,note_on,240,0,11,,,,,,,,10,,,51,127
131760,note_on,0,0,8,,,,,,,,4,,,79,127
131760,note_on,68,0,4,,,,,,,,3,,,51,64
131760,note_on,0,0,8,,,,,,,,4,,,83,127
131760,note_on,240,0,3,,,,,,,,2,,,63,64
131760,note_on,30,0,8,,,,,,,,4,,,83,0
131760,note_on,240,0,10,,,,,,,,8,,,63,127
131760,note_on,240,0,12,,,,,,,,11,,,39,96
131760,note_on,240,0,2,,,,,,,,1,,,75,64
131790,note_on,30,0,3,,,,,,,,2,,,64,0
131796,note_on,36,0,2,,,,,,,,1,,,76,0
131810,note_on,50,0,10,,,,,,,,8,,,64,0
131820,note_on,60,0,11,,,,,,,,10,,,52,0
131820,note_on,60,0,12,,,,,,,,11,,,40,0
131846,note_on,86,0,8,,,,,,,,4,,,79,0
131880,note_on,0,0,8,,,,,,,,4,,,83,127
131880,note_on,34,0,8,,,,,,,,4,,,83,0
131880,note_on,0,0,8,,,,,,,,4,,,79,127
131962,note_on,82,0,8,,,,,,,,4,,,79,0
132000,note_on,180,0,12,,,,,,,,11,,,40,96
132000,note_on,210,0,3,,,,,,,,2,,,64,64
132000,note_on,190,0,10,,,,,,,,8,,,64,127
132000,note_on,240,0,4,,,,,,,,3,,,52,64
132000,note_on,180,0,11,,,,,,,,10,,,52,127
132000,note_on,0,0,8,,,,,,,,4,,,79,127
132000,note_on,38,0,8,,,,,,,,4,,,83,0
132000,note_on,204,0,2,,,,,,,,1,,,76,64
132000,note_on,0,0,8,,,,,,,,4,,,83,127
132016,note_on,16,0,2,,,,,,,,1,,,75,0
132020,note_on,20,0,4,,,,,,,,3,,,51,0
132022,note_on,22,0,3,,,,,,,,2,,,63,0
132070,note_on,70,0,11,,,,,,,,10,,,51,0
132070,note_on,70,0,12,,,,,,,,11,,,39,0
132072,note_on,72,0,10,,,,,,,,8,,,63,0
132084,note_on,84,0,8,,,,,,,,4,,,79,0
132120,note_on,36,0,8,,,,,,,,4,,,83,0
132120,note_on,0,0,8,,,,,,,,4,,,83,127
132120,note_on,0,0,8,,,,,,,,4,,,79,127
132206,note_on,86,0,8,,,,,,,,4,,,79,0
132240,note_on,34,0,8,,,,,,,,4,,,83,0
132240,note_on,0,0,8,,,,,,,,4,,,79,127
132240,note_on,0,0,8,,,,,,,,4,,,83,127
132240,note_on,220,0,4,,,,,,,,3,,,55,64
132240,note_on,170,0,12,,,,,,,,11,,,43,96
132240,note_on,168,0,10,,,,,,,,8,,,67,127
132240,note_on,224,0,2,,,,,,,,1,,,79,64
132240,note_on,218,0,3,,,,,,,,2,,,67,64
132240,note_on,170,0,11,,,,,,,,10,,,55,127
132244,note_on,4,0,4,,,,,,,,3,,,52,0
132266,note_on,26,0,3,,,,,,,,2,,,64,0
132294,note_on,54,0,11,,,,,,,,10,,,52,0
132294,note_on,54,0,12,,,,,,,,11,,,40,0
132300,note_on,60,0,2,,,,,,,,1,,,76,0
132322,note_on,82,0,10,,,,,,,,8,,,64,0
132326,note_on,86,0,8,,,,,,,,4,,,79,0
132360,note_on,34,0,8,,,,,,,,4,,,83,0
132360,note_on,0,0,8,,,,,,,,4,,,83,127
132360,note_on,0,0,8,,,,,,,,4,,,79,127
132440,note_on,80,0,8,,,,,,,,4,,,79,0
132460,note_on,138,0,10,,,,,,,,8,,,67,0
132480,note_on,40,0,8,,,,,,,,4,,,83,0
132480,note_on,0,0,8,,,,,,,,4,,,79,127
132480,note_on,0,0,8,,,,,,,,4,,,83,127
132480,note_on,214,0,3,,,,,,,,2,,,71,64
132480,note_on,236,0,4,,,,,,,,3,,,59,64
132480,note_on,186,0,12,,,,,,,,11,,,47,96
132480,note_on,180,0,2,,,,,,,,1,,,83,64
132480,note_on,186,0,11,,,,,,,,10,,,59,127
132480,note_on,20,0,10,,,,,,,,8,,,71,127
132496,note_on,16,0,3,,,,,,,,2,,,67,0
132516,note_on,36,0,2,,,,,,,,1,,,79,0
132522,note_on,42,0,4,,,,,,,,3,,,55,0
132526,note_on,46,0,11,,,,,,,,10,,,55,0
132526,note_on,46,0,12,,,,,,,,11,,,43,0
132552,note_on,1032,0,5,,,,,,,,5,,,55,0
132566,note_on,86,0,8,,,,,,,,4,,,79,0
132580,note_on,28,0,5,,,,,,,,5,,,67,0
132600,note_on,34,0,8,,,,,,,,4,,,83,0
132600,note_on,0,0,8,,,,,,,,4,,,83,127
132600,note_on,0,0,8,,,,,,,,4,,,79,127
132686,note_on,86,0,8,,,,,,,,4,,,79,0
132720,note_on,0,0,8,,,,,,,,4,,,79,127
132720,note_on,0,0,8,,,,,,,,4,,,83,127
132720,note_on,34,0,8,,,,,,,,4,,,83,0
132806,note_on,86,0,8,,,,,,,,4,,,79,0
132840,note_on,0,0,8,,,,,,,,4,,,83,127
132840,note_on,0,0,8,,,,,,,,4,,,79,127
132840,note_on,34,0,8,,,,,,,,4,,,83,0
132930,note_on,90,0,8,,,,,,,,4,,,79,0
132946,note_on,430,0,2,,,,,,,,1,,,83,0
132960,note_on,30,0,8,,,,,,,,4,,,83,0
132960,note_on,0,0,8,,,,,,,,4,,,83,127
132960,note_on,0,0,8,,,,,,,,4,,,79,127
132960,note_on,434,0,12,,,,,,,,11,,,47,0
132960,note_on,434,0,11,,,,,,,,10,,,59,0
133026,note_on,530,0,3,,,,,,,,2,,,71,0
133042,note_on,82,0,8,,,,,,,,4,,,79,0
133062,note_on,540,0,4,,,,,,,,3,,,59,0
133080,note_on,0,0,8,,,,,,,,4,,,83,127
133080,note_on,38,0,8,,,,,,,,4,,,83,0
133080,note_on,0,0,8,,,,,,,,4,,,79,127
133090,note_on,610,0,10,,,,,,,,8,,,71,0
133176,note_on,96,0,8,,,,,,,,4,,,79,0
133200,note_on,240,0,11,,,,,,,,10,,,59,127
133200,note_on,24,0,8,,,,,,,,4,,,83,0
133200,note_on,0,0,8,,,,,,,,4,,,78,127
133200,note_on,254,0,2,,,,,,,,1,,,71,64
133200,note_on,0,0,8,,,,,,,,4,,,81,127
133200,note_on,138,0,4,,,,,,,,3,,,59,64
133200,note_on,174,0,3,,,,,,,,2,,,71,64
133200,note_on,110,0,10,,,,,,,,8,,,71,127
133200,note_on,240,0,12,,,,,,,,11,,,47,96
133270,note_on,70,0,3,,,,,,,,2,,,71,0
133270,note_on,70,0,2,,,,,,,,1,,,71,0
133272,note_on,72,0,4,,,,,,,,3,,,59,0
133284,note_on,84,0,8,,,,,,,,4,,,78,0
133290,note_on,90,0,11,,,,,,,,10,,,59,0
133290,note_on,90,0,12,,,,,,,,11,,,47,0
133304,note_on,104,0,10,,,,,,,,8,,,71,0
133320,note_on,36,0,8,,,,,,,,4,,,81,0
133320,note_on,0,0,8,,,,,,,,4,,,81,127
133320,note_on,0,0,8,,,,,,,,4,,,78,127
133410,note_on,90,0,8,,,,,,,,4,,,78,0
133440,note_on,150,0,11,,,,,,,,10,,,60,127
133440,note_on,136,0,10,,,,,,,,8,,,72,127
133440,note_on,170,0,3,,,,,,,,2,,,72,64
133440,note_on,150,0,12,,,,,,,,11,,,48,96
133440,note_on,170,0,2,,,,,,,,1,,,72,64
133440,note_on,168,0,4,,,,,,,,3,,,60,64
133440,note_on,30,0,8,,,,,,,,4,,,81,0
133440,note_on,0,0,8,,,,,,,,4,,,79,127
133440,note_on,0,0,8,,,,,,,,4,,,76,127
133544,note_on,104,0,8,,,,,,,,4,,,76,0
133560,note_on,0,0,8,,,,,,,,4,,,76,127
133560,note_on,16,0,8,,,,,,,,4,,,79,0
133560,note_on,0,0,8,,,,,,,,4,,,79,127
133656,note_on,96,0,8,,,,,,,,4,,,76,0
133680,note_on,24,0,8,,,,,,,,4,,,79,0
133680,note_on,0,0,8,,,,,,,,4,,,76,127
133680,note_on,0,0,8,,,,,,,,4,,,79,127
133774,note_on,94,0,8,,,,,,,,4,,,76,0
133800,note_on,0,0,8,,,,,,,,4,,,79,127
133800,note_on,0,0,8,,,,,,,,4,,,76,127
133800,note_on,26,0,8,,,,,,,,4,,,79,0
133890,note_on,90,0,8,,,,,,,,4,,,76,0
133920,note_on,0,0,8,,,,,,,,4,,,81,127
133920,note_on,0,0,8,,,,,,,,4,,,84,127
133920,note_on,30,0,8,,,,,,,,4,,,79,0
134006,note_on,86,0,8,,,,,,,,4,,,81,0
134040,note_on,600,0,3,,,,,,,,2,,,69,64
134040,note_on,600,0,11,,,,,,,,10,,,57,127
134040,note_on,600,0,10,,,,,,,,8,,,69,127
134040,note_on,600,0,12,,,,,,,,11,,,45,96
134040,note_on,600,0,2,,,,,,,,1,,,69,64
134040,note_on,0,0,8,,,,,,,,4,,,81,127
134040,note_on,34,0,8,,,,,,,,4,,,84,0
134040,note_on,600,0,4,,,,,,,,3,,,57,64
134040,note_on,0,0,8,,,,,,,,4,,,84,127
134062,note_on,22,0,2,,,,,,,,1,,,72,0
134074,note_on,34,0,4,,,,,,,,3,,,60,0
134080,note_on,40,0,3,,,,,,,,2,,,72,0
134080,note_on,40,0,12,,,,,,,,11,,,48,0
134080,note_on,40,0,11,,,,,,,,10,,,60,0
134082,note_on,42,0,10,,,,,,,,8,,,72,0
134126,note_on,86,0,8,,,,,,,,4,,,81,0
134160,note_on,80,0,12,,,,,,,,11,,,47,96
134160,note_on,80,0,3,,,,,,,,2,,,71,64
134160,note_on,0,0,8,,,,,,,,4,,,84,127
134160,note_on,34,0,8,,,,,,,,4,,,84,0
134160,note_on,0,0,8,,,,,,,,4,,,81,127
134160,note_on,78,0,10,,,,,,,,8,,,71,127
134160,note_on,86,0,4,,,,,,,,3,,,59,64
134160,note_on,98,0,2,,,,,,,,1,,,71,64
134160,note_on,80,0,11,,,,,,,,10,,,59,127
134184,note_on,24,0,3,,,,,,,,2,,,69,0
134190,note_on,30,0,4,,,,,,,,3,,,57,0
134196,note_on,36,0,2,,,,,,,,1,,,69,0
134232,note_on,72,0,10,,,,,,,,8,,,69,0
134236,note_on,76,0,12,,,,,,,,11,,,45,0
134236,note_on,76,0,11,,,,,,,,10,,,57,0
134240,note_on,80,0,8,,,,,,,,4,,,81,0
134280,note_on,0,0,8,,,,,,,,4,,,81,127
134280,note_on,0,0,8,,,,,,,,4,,,84,127
134280,note_on,40,0,8,,,,,,,,4,,,84,0
134280,note_on,84,0,2,,,,,,,,1,,,72,64
134280,note_on,48,0,10,,,,,,,,8,,,72,127
134280,note_on,90,0,4,,,,,,,,3,,,60,64
134280,note_on,44,0,11,,,,,,,,10,,,60,127
134280,note_on,96,0,3,,,,,,,,2,,,72,64
134280,note_on,44,0,12,,,,,,,,11,,,48,96
134312,note_on,32,0,3,,,,,,,,2,,,71,0
134316,note_on,36,0,2,,,,,,,,1,,,71,0
134332,note_on,52,0,11,,,,,,,,10,,,59,0
134332,note_on,52,0,12,,,,,,,,11,,,47,0
134332,note_on,52,0,4,,,,,,,,3,,,59,0
134356,note_on,76,0,10,,,,,,,,8,,,71,0
134360,note_on,80,0,8,,,,,,,,4,,,81,0
134400,note_on,84,0,2,,,,,,,,1,,,74,64
134400,note_on,0,0,8,,,,,,,,4,,,79,127
134400,note_on,68,0,4,,,,,,,,3,,,62,64
134400,note_on,0,0,8,,,,,,,,4,,,83,127
134400,note_on,88,0,3,,,,,,,,2,,,74,64
134400,note_on,68,0,12,,,,,,,,11,,,50,96
134400,note_on,40,0,8,,,,,,,,4,,,84,0
134400,note_on,44,0,10,,,,,,,,8,,,74,127
134400,note_on,68,0,11,,,,,,,,10,,,62,127
134404,note_on,4,0,2,,,,,,,,1,,,72,0
134414,note_on,14,0,3,,,,,,,,2,,,72,0
134420,note_on,20,0,4,,,,,,,,3,,,60,0
134454,note_on,54,0,11,,,,,,,,10,,,60,0
134454,note_on,54,0,12,,,,,,,,11,,,48,0
134460,note_on,60,0,10,,,,,,,,8,,,72,0
134486,note_on,86,0,8,,,,,,,,4,,,79,0
134520,note_on,60,0,10,,,,,,,,8,,,73,127
134520,note_on,100,0,4,,,,,,,,3,,,61,64
134520,note_on,66,0,12,,,,,,,,11,,,49,96
134520,note_on,66,0,11,,,,,,,,10,,,61,127
134520,note_on,116,0,2,,,,,,,,1,,,73,64
134520,note_on,0,0,8,,,,,,,,4,,,79,127
134520,note_on,0,0,8,,,,,,,,4,,,83,127
134520,note_on,34,0,8,,,,,,,,4,,,83,0
134520,note_on,106,0,3,,,,,,,,2,,,73,64
134532,note_on,12,0,2,,,,,,,,1,,,74,0
134536,note_on,16,0,4,,,,,,,,3,,,62,0
134542,note_on,22,0,3,,,,,,,,2,,,74,0
134572,note_on,52,0,11,,,,,,,,10,,,62,0
134572,note_on,52,0,12,,,,,,,,11,,,50,0
134574,note_on,54,0,10,,,,,,,,8,,,74,0
134600,note_on,80,0,8,,,,,,,,4,,,79,0
134640,note_on,0,0,8,,,,,,,,4,,,83,127
134640,note_on,104,0,4,,,,,,,,3,,,62,64
134640,note_on,0,0,8,,,,,,,,4,,,79,127
134640,note_on,68,0,12,,,,,,,,11,,,50,96
134640,note_on,108,0,2,,,,,,,,1,,,74,64
134640,note_on,66,0,10,,,,,,,,8,,,74,127
134640,note_on,68,0,11,,,,,,,,10,,,62,127
134640,note_on,98,0,3,,,,,,,,2,,,74,64
134640,note_on,40,0,8,,,,,,,,4,,,83,0
134652,note_on,12,0,2,,,,,,,,1,,,73,0
134660,note_on,20,0,4,,,,,,,,3,,,61,0
134666,note_on,26,0,3,,,,,,,,2,,,73,0
134704,note_on,64,0,10,,,,,,,,8,,,73,0
134706,note_on,66,0,11,,,,,,,,10,,,61,0
134706,note_on,66,0,12,,,,,,,,11,,,49,0
134716,note_on,76,0,8,,,,,,,,4,,,79,0
134760,note_on,54,0,12,,,,,,,,11,,,49,96
134760,note_on,0,0,8,,,,,,,,4,,,83,127
134760,note_on,44,0,8,,,,,,,,4,,,83,0
134760,note_on,0,0,8,,,,,,,,4,,,79,127
134760,note_on,100,0,4,,,,,,,,3,,,61,64
134760,note_on,108,0,2,,,,,,,,1,,,73,64
134760,note_on,54,0,11,,,,,,,,10,,,61,127
134760,note_on,56,0,10,,,,,,,,8,,,73,127
134760,note_on,94,0,3,,,,,,,,2,,,73,64
134770,note_on,10,0,4,,,,,,,,3,,,62,0
134772,note_on,12,0,3,,,,,,,,2,,,74,0
134780,note_on,20,0,2,,,,,,,,1,,,74,0
134810,note_on,50,0,10,,,,,,,,8,,,74,0
134810,note_on,50,0,12,,,,,,,,11,,,50,0
134810,note_on,50,0,11,,,,,,,,10,,,62,0
134834,note_on,74,0,8,,,,,,,,4,,,79,0
134880,note_on,70,0,10,,,,,,,,8,,,74,127
134880,note_on,0,0,8,,,,,,,,4,,,78,127
134880,note_on,46,0,8,,,,,,,,4,,,83,0
134880,note_on,110,0,4,,,,,,,,3,,,62,64
134880,note_on,108,0,3,,,,,,,,2,,,74,64
134880,note_on,0,0,8,,,,,,,,4,,,81,127
134880,note_on,70,0,12,,,,,,,,11,,,50,96
134880,note_on,100,0,2,,,,,,,,1,,,74,64
134880,note_on,70,0,11,,,,,,,,10,,,62,127
134896,note_on,16,0,4,,,,,,,,3,,,61,0
134906,note_on,26,0,2,,,,,,,,1,,,73,0
134922,note_on,42,0,12,,,,,,,,11,,,49,0
134922,note_on,42,0,11,,,,,,,,10,,,61,0
134922,note_on,42,0,3,,,,,,,,2,,,73,0
134944,note_on,64,0,10,,,,,,,,8,,,73,0
134946,note_on,24,0,3,,,,,,,,2,,,74,0
134950,note_on,54,0,4,,,,,,,,3,,,62,0
134964,note_on,84,0,8,,,,,,,,4,,,78,0
134966,note_on,60,0,2,,,,,,,,1,,,74,0
134994,note_on,72,0,12,,,,,,,,11,,,50,0
134994,note_on,72,0,11,,,,,,,,10,,,62,0
135000,note_on,0,0,8,,,,,,,,4,,,78,127
135000,note_on,0,0,8,,,,,,,,4,,,81,127
135000,note_on,36,0,8,,,,,,,,4,,,81,0
135086,note_on,86,0,8,,,,,,,,4,,,78,0
135120,note_on,0,0,8,,,,,,,,4,,,81,127
135120,note_on,176,0,10,,,,,,,,8,,,62,127
135120,note_on,174,0,3,,,,,,,,2,,,60,64
135120,note_on,0,0,3,,,,,,,,2,,,62,64
135120,note_on,0,0,3,,,,,,,,2,,,74,64
135120,note_on,0,0,2,,,,,,,,1,,,74,64
135120,note_on,126,0,11,,,,,,,,10,,,50,127
135120,note_on,154,0,2,,,,,,,,1,,,62,64
135120,note_on,126,0,12,,,,,,,,11,,,38,96
135120,note_on,0,0,8,,,,,,,,4,,,78,127
135120,note_on,34,0,8,,,,,,,,4,,,81,0
135120,note_on,170,0,4,,,,,,,,3,,,50,64
135154,note_on,34,0,3,,,,,,,,2,,,60,0
135164,note_on,44,0,10,,,,,,,,8,,,74,0
135166,note_on,12,0,3,,,,,,,,2,,,62,0
135184,note_on,18,0,3,,,,,,,,2,,,74,0
135184,note_on,64,0,2,,,,,,,,1,,,62,0
135190,note_on,6,0,2,,,,,,,,1,,,74,0
135192,note_on,72,0,4,,,,,,,,3,,,50,0
135206,note_on,86,0,8,,,,,,,,4,,,78,0
135216,note_on,52,0,10,,,,,,,,8,,,62,0
135224,note_on,104,0,11,,,,,,,,10,,,50,0
135224,note_on,104,0,12,,,,,,,,11,,,38,0
135240,note_on,0,0,8,,,,,,,,4,,,78,127
135240,note_on,34,0,8,,,,,,,,4,,,81,0
135240,note_on,0,0,8,,,,,,,,4,,,81,127
135334,note_on,94,0,8,,,,,,,,4,,,78,0
135360,note_on,0,0,8,,,,,,,,4,,,86,127
135360,note_on,176,0,3,,,,,,,,2,,,67,64
135360,note_on,144,0,10,,,,,,,,8,,,55,127
135360,note_on,26,0,8,,,,,,,,4,,,81,0
135360,note_on,22814,0,7,,,,,,,,7,,,43,64
135360,note_on,0,0,1,,,,,,,,0,,,83,64
135360,note_on,136,0,12,,,,,,,,11,,,31,64
135360,note_on,0,0,8,,,,,,,,4,,,83,127
135360,note_on,5624,0,1,,,,,,,,0,,,86,64
135360,note_on,0,0,6,,,,,,,,6,,,67,64
135360,note_on,22814,0,6,,,,,,,,6,,,55,64
135360,note_on,0,0,4,,,,,,,,3,,,43,64
135360,note_on,168,0,4,,,,,,,,3,,,55,64
135360,note_on,2780,0,5,,,,,,,,5,,,62,64
135360,note_on,136,0,11,,,,,,,,10,,,43,127
135452,note_on,92,0,8,,,,,,,,4,,,83,0
135474,note_on,0,0,6,,,,,,,,6,,,55,0
135474,note_on,114,0,6,,,,,,,,6,,,67,0
135474,note_on,114,0,7,,,,,,,,7,,,43,0
135480,note_on,28,0,8,,,,,,,,4,,,86,0
135480,note_on,120,0,4,,,,,,,,3,,,57,64
135480,note_on,0,0,8,,,,,,,,4,,,86,127
135480,note_on,0,0,8,,,,,,,,4,,,83,127
135480,note_on,120,0,12,,,,,,,,11,,,33,64
135480,note_on,120,0,11,,,,,,,,10,,,45,127
135480,note_on,0,0,4,,,,,,,,3,,,45,64
135480,note_on,120,0,10,,,,,,,,8,,,57,127
135480,note_on,120,0,3,,,,,,,,2,,,69,64
135484,note_on,0,0,4,,,,,,,,3,,,55,0
135484,note_on,4,0,4,,,,,,,,3,,,43,0
135504,note_on,24,0,3,,,,,,,,2,,,67,0
135512,note_on,32,0,10,,,,,,,,8,,,55,0
135530,note_on,50,0,11,,,,,,,,10,,,43,0
135530,note_on,50,0,12,,,,,,,,11,,,31,0
135574,note_on,94,0,8,,,,,,,,4,,,83,0
135600,note_on,116,0,4,,,,,,,,3,,,55,64
135600,note_on,0,0,4,,,,,,,,3,,,43,64
135600,note_on,70,0,11,,,,,,,,10,,,43,127
135600,note_on,96,0,3,,,,,,,,2,,,67,64
135600,note_on,88,0,10,,,,,,,,8,,,55,127
135600,note_on,0,0,8,,,,,,,,4,,,86,127
135600,note_on,0,0,8,,,,,,,,4,,,83,127
135600,note_on,70,0,12,,,,,,,,11,,,31,64
135600,note_on,26,0,8,,,,,,,,4,,,86,0
135612,note_on,12,0,3,,,,,,,,2,,,69,0
135632,note_on,32,0,4,,,,,,,,3,,,45,0
135644,note_on,12,0,4,,,,,,,,3,,,57,0
135644,note_on,44,0,10,,,,,,,,8,,,57,0
135646,note_on,46,0,12,,,,,,,,11,,,33,0
135646,note_on,46,0,11,,,,,,,,10,,,45,0
135692,note_on,92,0,8,,,,,,,,4,,,83,0
135720,note_on,108,0,3,,,,,,,,2,,,66,64
135720,note_on,76,0,10,,,,,,,,8,,,54,127
135720,note_on,74,0,11,,,,,,,,10,,,42,127
135720,note_on,0,0,8,,,,,,,,4,,,86,127
135720,note_on,0,0,8,,,,,,,,4,,,83,127
135720,note_on,28,0,8,,,,,,,,4,,,86,0
135720,note_on,0,0,4,,,,,,,,3,,,54,64
135720,note_on,74,0,12,,,,,,,,11,,,30,64
135720,note_on,76,0,4,,,,,,,,3,,,42,64
135734,note_on,14,0,4,,,,,,,,3,,,43,0
135740,note_on,20,0,3,,,,,,,,2,,,67,0
135740,note_on,6,0,4,,,,,,,,3,,,55,0
135766,note_on,46,0,10,,,,,,,,8,,,55,0
135766,note_on,46,0,11,,,,,,,,10,,,43,0
135766,note_on,46,0,12,,,,,,,,11,,,31,0
135814,note_on,94,0,8,,,,,,,,4,,,83,0
135840,note_on,0,0,8,,,,,,,,4,,,83,127
135840,note_on,74,0,11,,,,,,,,10,,,43,127
135840,note_on,74,0,12,,,,,,,,11,,,31,64
135840,note_on,0,0,8,,,,,,,,4,,,86,127
135840,note_on,26,0,8,,,,,,,,4,,,86,0
135840,note_on,0,0,4,,,,,,,,3,,,55,64
135840,note_on,100,0,4,,,,,,,,3,,,43,64
135840,note_on,74,0,10,,,,,,,,8,,,55,127
135840,note_on,100,0,3,,,,,,,,2,,,67,64
135852,note_on,12,0,4,,,,,,,,3,,,54,0
135856,note_on,16,0,3,,,,,,,,2,,,66,0
135866,note_on,14,0,4,,,,,,,,3,,,42,0
135884,note_on,44,0,12,,,,,,,,11,,,30,0
135884,note_on,44,0,11,,,,,,,,10,,,42,0
135894,note_on,54,0,10,,,,,,,,8,,,54,0
135932,note_on,92,0,8,,,,,,,,4,,,83,0
135960,note_on,76,0,12,,,,,,,,11,,,33,64
135960,note_on,66,0,10,,,,,,,,8,,,57,127
135960,note_on,76,0,11,,,,,,,,10,,,45,127
135960,note_on,0,0,8,,,,,,,,4,,,86,127
135960,note_on,0,0,8,,,,,,,,4,,,83,127
135960,note_on,0,0,4,,,,,,,,3,,,45,64
135960,note_on,94,0,4,,,,,,,,3,,,57,64
135960,note_on,104,0,3,,,,,,,,2,,,69,64
135960,note_on,28,0,8,,,,,,,,4,,,86,0
135970,note_on,10,0,4,,,,,,,,3,,,43,0
135984,note_on,14,0,4,,,,,,,,3,,,55,0
135986,note_on,26,0,3,,,,,,,,2,,,67,0
136002,note_on,42,0,10,,,,,,,,8,,,55,0
136024,note_on,64,0,11,,,,,,,,10,,,43,0
136024,note_on,64,0,12,,,,,,,,11,,,31,0
136046,note_on,86,0,8,,,,,,,,4,,,83,0
136080,note_on,78,0,10,,,,,,,,8,,,59,127
136080,note_on,94,0,3,,,,,,,,2,,,71,64
136080,note_on,56,0,11,,,,,,,,10,,,47,127
136080,note_on,34,0,8,,,,,,,,4,,,86,0
136080,note_on,0,0,8,,,,,,,,4,,,86,127
136080,note_on,0,0,8,,,,,,,,4,,,83,127
136080,note_on,96,0,4,,,,,,,,3,,,47,64
136080,note_on,56,0,12,,,,,,,,11,,,35,64
136080,note_on,0,0,4,,,,,,,,3,,,59,64
136096,note_on,16,0,4,,,,,,,,3,,,57,0
136122,note_on,42,0,3,,,,,,,,2,,,69,0
136134,note_on,38,0,4,,,,,,,,3,,,45,0
136140,note_on,60,0,12,,,,,,,,11,,,33,0
136140,note_on,60,0,11,,,,,,,,10,,,45,0
136164,note_on,84,0,8,,,,,,,,4,,,83,0
136164,note_on,84,0,10,,,,,,,,8,,,57,0
136200,note_on,66,0,4,,,,,,,,3,,,48,64
136200,note_on,0,0,4,,,,,,,,3,,,60,64
136200,note_on,36,0,8,,,,,,,,4,,,86,0
136200,note_on,60,0,11,,,,,,,,10,,,48,127
136200,note_on,60,0,12,,,,,,,,11,,,36,64
136200,note_on,78,0,3,,,,,,,,2,,,72,64
136200,note_on,0,0,8,,,,,,,,4,,,83,127
136200,note_on,0,0,8,,,,,,,,4,,,86,127
136200,note_on,36,0,10,,,,,,,,8,,,60,127
136224,note_on,24,0,4,,,,,,,,3,,,47,0
136234,note_on,34,0,3,,,,,,,,2,,,71,0
136234,note_on,34,0,10,,,,,,,,8,,,59,0
136234,note_on,10,0,4,,,,,,,,3,,,59,0
136256,note_on,56,0,11,,,,,,,,10,,,47,0
136256,note_on,56,0,12,,,,,,,,11,,,35,0
136282,note_on,82,0,8,,,,,,,,4,,,83,0
136320,note_on,64,0,12,,,,,,,,11,,,38,96
136320,note_on,64,0,11,,,,,,,,10,,,50,127
136320,note_on,0,0,4,,,,,,,,3,,,50,64
136320,note_on,38,0,8,,,,,,,,4,,,86,0
136320,note_on,86,0,4,,,,,,,,3,,,62,64
136320,note_on,0,0,8,,,,,,,,4,,,86,127
136320,note_on,86,0,10,,,,,,,,8,,,62,127
136320,note_on,86,0,3,,,,,,,,2,,,74,64
136320,note_on,0,0,8,,,,,,,,4,,,83,127
136360,note_on,40,0,3,,,,,,,,2,,,72,0
136362,note_on,1002,0,5,,,,,,,,5,,,62,0
136364,note_on,44,0,4,,,,,,,,3,,,48,0
136374,note_on,10,0,4,,,,,,,,3,,,60,0
136374,note_on,54,0,10,,,,,,,,8,,,60,0
136400,note_on,80,0,8,,,,,,,,4,,,83,0
136400,note_on,80,0,11,,,,,,,,10,,,48,0
136400,note_on,80,0,12,,,,,,,,11,,,36,0
136440,note_on,40,0,8,,,,,,,,4,,,86,0
136440,note_on,0,0,8,,,,,,,,4,,,86,127
136440,note_on,0,0,8,,,,,,,,4,,,83,127
136522,note_on,82,0,8,,,,,,,,4,,,83,0
136560,note_on,38,0,8,,,,,,,,4,,,86,0
136560,note_on,0,0,8,,,,,,,,4,,,83,127
136560,note_on,0,0,8,,,,,,,,4,,,86,127
136640,note_on,80,0,8,,,,,,,,4,,,83,0
136680,note_on,0,0,8,,,,,,,,4,,,83,127
136680,note_on,0,0,8,,,,,,,,4,,,86,127
136680,note_on,40,0,8,,,,,,,,4,,,86,0
136766,note_on,86,0,8,,,,,,,,4,,,83,0
136800,note_on,0,0,8,,,,,,,,4,,,86,127
136800,note_on,0,0,8,,,,,,,,4,,,83,127
136800,note_on,34,0,8,,,,,,,,4,,,86,0
136852,note_on,492,0,3,,,,,,,,2,,,74,0
136866,note_on,492,0,4,,,,,,,,3,,,62,0
136884,note_on,84,0,8,,,,,,,,4,,,83,0
136894,note_on,28,0,4,,,,,,,,3,,,50,0
136902,note_on,1542,0,1,,,,,,,,0,,,86,0
136912,note_on,10,0,1,,,,,,,,0,,,83,0
136912,note_on,538,0,10,,,,,,,,8,,,62,0
136920,note_on,36,0,8,,,,,,,,4,,,86,0
136920,note_on,0,0,8,,,,,,,,4,,,86,127
136920,note_on,0,0,8,,,,,,,,4,,,83,127
136920,note_on,520,0,12,,,,,,,,11,,,38,0
136920,note_on,520,0,11,,,,,,,,10,,,50,0
137010,note_on,90,0,8,,,,,,,,4,,,83,0
137040,note_on,30,0,8,,,,,,,,4,,,86,0
137040,note_on,0,0,8,,,,,,,,4,,,81,127
137040,note_on,0,0,8,,,,,,,,4,,,84,127
137040,note_on,128,0,1,,,,,,,,0,,,90,64
137040,note_on,0,0,4,,,,,,,,3,,,51,64
137040,note_on,120,0,12,,,,,,,,11,,,39,96
137040,note_on,188,0,3,,,,,,,,2,,,75,64
137040,note_on,120,0,11,,,,,,,,10,,,51,127
137040,note_on,0,0,1,,,,,,,,0,,,84,64
137040,note_on,128,0,10,,,,,,,,8,,,63,127
137040,note_on,146,0,4,,,,,,,,3,,,63,64
137102,note_on,62,0,4,,,,,,,,3,,,63,0
137120,note_on,18,0,4,,,,,,,,3,,,51,0
137120,note_on,80,0,3,,,,,,,,2,,,75,0
137122,note_on,82,0,8,,,,,,,,4,,,81,0
137134,note_on,94,0,1,,,,,,,,0,,,90,0
137156,note_on,116,0,12,,,,,,,,11,,,39,0
137156,note_on,116,0,11,,,,,,,,10,,,51,0
137160,note_on,0,0,8,,,,,,,,4,,,84,127
137160,note_on,0,0,8,,,,,,,,4,,,81,127
137160,note_on,26,0,1,,,,,,,,0,,,84,0
137160,note_on,38,0,8,,,,,,,,4,,,84,0
137192,note_on,152,0,10,,,,,,,,8,,,63,0
137242,note_on,82,0,8,,,,,,,,4,,,81,0
137280,note_on,124,0,12,,,,,,,,11,,,40,96
137280,note_on,1806,0,7,,,,,,,,7,,,43,64
137280,note_on,38,0,8,,,,,,,,4,,,84,0
137280,note_on,0,0,8,,,,,,,,4,,,79,127
137280,note_on,120,0,1,,,,,,,,0,,,91,64
137280,note_on,0,0,8,,,,,,,,4,,,83,127
137280,note_on,124,0,11,,,,,,,,10,,,52,127
137280,note_on,88,0,10,,,,,,,,8,,,64,127
137280,note_on,0,0,6,,,,,,,,6,,,67,64
137280,note_on,160,0,4,,,,,,,,3,,,52,64
137280,note_on,0,0,4,,,,,,,,3,,,64,64
137280,note_on,2090,0,2,,,,,,,,1,,,76,64
137280,note_on,918,0,5,,,,,,,,5,,,67,64
137280,note_on,160,0,3,,,,,,,,2,,,76,64
137280,note_on,1806,0,6,,,,,,,,6,,,55,64
137280,note_on,0,0,1,,,,,,,,0,,,83,64
137280,note_on,0,0,5,,,,,,,,5,,,55,64
137362,note_on,82,0,8,,,,,,,,4,,,79,0
137396,note_on,116,0,7,,,,,,,,7,,,43,0
137396,note_on,116,0,6,,,,,,,,6,,,67,0
137396,note_on,0,0,6,,,,,,,,6,,,55,0
137400,note_on,120,0,10,,,,,,,,8,,,66,127
137400,note_on,120,0,4,,,,,,,,3,,,54,64
137400,note_on,120,0,11,,,,,,,,10,,,54,127
137400,note_on,120,0,3,,,,,,,,2,,,66,64
137400,note_on,120,0,12,,,,,,,,11,,,42,96
137400,note_on,38,0,8,,,,,,,,4,,,83,0
137400,note_on,0,0,8,,,,,,,,4,,,83,127
137400,note_on,0,0,8,,,,,,,,4,,,79,127
137400,note_on,120,0,2,,,,,,,,1,,,78,64
137404,note_on,4,0,4,,,,,,,,3,,,64,0
137414,note_on,14,0,3,,,,,,,,2,,,76,0
137416,note_on,12,0,4,,,,,,,,3,,,52,0
137422,note_on,22,0,2,,,,,,,,1,,,76,0
137442,note_on,42,0,12,,,,,,,,11,,,40,0
137442,note_on,42,0,11,,,,,,,,10,,,52,0
137450,note_on,50,0,10,,,,,,,,8,,,64,0
137486,note_on,86,0,8,,,,,,,,4,,,79,0
137520,note_on,104,0,4,,,,,,,,3,,,52,64
137520,note_on,70,0,10,,,,,,,,8,,,64,127
137520,note_on,98,0,2,,,,,,,,1,,,76,64
137520,note_on,78,0,12,,,,,,,,11,,,40,96
137520,note_on,0,0,8,,,,,,,,4,,,83,127
137520,note_on,106,0,3,,,,,,,,2,,,64,64
137520,note_on,34,0,8,,,,,,,,4,,,83,0
137520,note_on,78,0,11,,,,,,,,10,,,52,127
137520,note_on,0,0,8,,,,,,,,4,,,79,127
137526,note_on,6,0,3,,,,,,,,2,,,66,0
137540,note_on,20,0,4,,,,,,,,3,,,54,0
137540,note_on,20,0,2,,,,,,,,1,,,78,0
137560,note_on,40,0,11,,,,,,,,10,,,54,0
137560,note_on,40,0,12,,,,,,,,11,,,42,0
137570,note_on,50,0,10,,,,,,,,8,,,66,0
137604,note_on,84,0,8,,,,,,,,4,,,79,0
137640,note_on,100,0,2,,,,,,,,1,,,75,64
137640,note_on,70,0,10,,,,,,,,8,,,63,127
137640,note_on,0,0,8,,,,,,,,4,,,79,127
137640,note_on,100,0,4,,,,,,,,3,,,51,64
137640,note_on,0,0,8,,,,,,,,4,,,83,127
137640,note_on,80,0,11,,,,,,,,10,,,51,127
137640,note_on,114,0,3,,,,,,,,2,,,63,64
137640,note_on,80,0,12,,,,,,,,11,,,39,96
137640,note_on,36,0,8,,,,,,,,4,,,83,0
137652,note_on,12,0,3,,,,,,,,2,,,64,0
137670,note_on,30,0,2,,,,,,,,1,,,76,0
137674,note_on,34,0,4,,,,,,,,3,,,52,0
137680,note_on,40,0,10,,,,,,,,8,,,64,0
137682,note_on,42,0,11,,,,,,,,10,,,52,0
137682,note_on,42,0,12,,,,,,,,11,,,40,0
137722,note_on,82,0,8,,,,,,,,4,,,79,0
137760,note_on,86,0,4,,,,,,,,3,,,52,64
137760,note_on,0,0,8,,,,,,,,4,,,83,127
137760,note_on,108,0,3,,,,,,,,2,,,64,64
137760,note_on,80,0,10,,,,,,,,8,,,64,127
137760,note_on,78,0,12,,,,,,,,11,,,40,96
137760,note_on,0,0,8,,,,,,,,4,,,79,127
137760,note_on,38,0,8,,,,,,,,4,,,83,0
137760,note_on,90,0,2,,,,,,,,1,,,76,64
137760,note_on,78,0,11,,,,,,,,10,,,52,127
137764,note_on,4,0,3,,,,,,,,2,,,63,0
137776,note_on,16,0,2,,,,,,,,1,,,75,0
137782,note_on,22,0,4,,,,,,,,3,,,51,0
137804,note_on,44,0,11,,,,,,,,10,,,51,0
137804,note_on,44,0,12,,,,,,,,11,,,39,0
137812,note_on,52,0,10,,,,,,,,8,,,63,0
137844,note_on,84,0,8,,,,,,,,4,,,79,0
137880,note_on,0,0,3,,,,,,,,2,,,66,64
137880,note_on,68,0,10,,,,,,,,8,,,66,127
137880,note_on,36,0,8,,,,,,,,4,,,83,0
137880,note_on,0,0,8,,,,,,,,4,,,79,127
137880,note_on,0,0,8,,,,,,,,4,,,83,127
137880,note_on,104,0,2,,,,,,,,1,,,78,64
137880,note_on,116,0,3,,,,,,,,2,,,64,0
137880,note_on,76,0,11,,,,,,,,10,,,54,127
137880,note_on,76,0,12,,,,,,,,11,,,42,96
137880,note_on,98,0,4,,,,,,,,3,,,54,64
137884,note_on,4,0,4,,,,,,,,3,,,52,0
137912,note_on,32,0,10,,,,,,,,8,,,64,0
137924,note_on,44,0,2,,,,,,,,1,,,76,0
137932,note_on,52,0,11,,,,,,,,10,,,52,0
137932,note_on,52,0,12,,,,,,,,11,,,40,0
137956,note_on,76,0,8,,,,,,,,4,,,79,0
138000,note_on,120,0,3,,,,,,,,2,,,67,64
138000,note_on,88,0,10,,,,,,,,8,,,67,127
138000,note_on,116,0,4,,,,,,,,3,,,55,64
138000,note_on,68,0,11,,,,,,,,10,,,55,127
138000,note_on,76,0,2,,,,,,,,1,,,79,64
138000,note_on,44,0,8,,,,,,,,4,,,83,0
138000,note_on,0,0,8,,,,,,,,4,,,79,127
138000,note_on,68,0,12,,,,,,,,11,,,43,96
138000,note_on,0,0,8,,,,,,,,4,,,83,127
138016,note_on,16,0,4,,,,,,,,3,,,54,0
138026,note_on,26,0,3,,,,,,,,2,,,66,0
138040,note_on,40,0,2,,,,,,,,1,,,78,0
138052,note_on,52,0,10,,,,,,,,8,,,66,0
138056,note_on,56,0,11,,,,,,,,10,,,54,0
138056,note_on,56,0,12,,,,,,,,11,,,42,0
138082,note_on,82,0,8,,,,,,,,4,,,79,0
138120,note_on,0,0,8,,,,,,,,4,,,79,127
138120,note_on,94,0,3,,,,,,,,2,,,69,64
138120,note_on,80,0,2,,,,,,,,1,,,81,64
138120,note_on,0,0,8,,,,,,,,4,,,83,127
138120,note_on,104,0,4,,,,,,,,3,,,57,64
138120,note_on,68,0,10,,,,,,,,8,,,69,127
138120,note_on,64,0,11,,,,,,,,10,,,57,127
138120,note_on,38,0,8,,,,,,,,4,,,83,0
138120,note_on,64,0,12,,,,,,,,11,,,45,96
138122,note_on,2,0,2,,,,,,,,1,,,79,0
138140,note_on,20,0,3,,,,,,,,2,,,67,0
138146,note_on,26,0,4,,,,,,,,3,,,55,0
138166,note_on,46,0,12,,,,,,,,11,,,43,0
138166,note_on,46,0,10,,,,,,,,8,,,67,0
138166,note_on,46,0,11,,,,,,,,10,,,55,0
138196,note_on,76,0,8,,,,,,,,4,,,79,0
138240,note_on,0,0,8,,,,,,,,4,,,79,127
138240,note_on,74,0,10,,,,,,,,8,,,71,127
138240,note_on,94,0,4,,,,,,,,3,,,59,64
138240,note_on,100,0,3,,,,,,,,2,,,71,64
138240,note_on,44,0,8,,,,,,,,4,,,83,0
138240,note_on,0,0,8,,,,,,,,4,,,83,127
138240,note_on,74,0,11,,,,,,,,10,,,59,127
138240,note_on,74,0,12,,,,,,,,11,,,47,96
138240,note_on,118,0,2,,,,,,,,1,,,83,64
138264,note_on,24,0,4,,,,,,,,3,,,57,0
138272,note_on,32,0,3,,,,,,,,2,,,69,0
138286,note_on,46,0,10,,,,,,,,8,,,69,0
138290,note_on,50,0,2,,,,,,,,1,,,81,0
138300,note_on,60,0,11,,,,,,,,10,,,57,0
138300,note_on,60,0,12,,,,,,,,11,,,45,0
138316,note_on,76,0,8,,,,,,,,4,,,79,0
138360,note_on,44,0,8,,,,,,,,4,,,83,0
138360,note_on,0,0,8,,,,,,,,4,,,79,127
138360,note_on,0,0,8,,,,,,,,4,,,83,127
138436,note_on,76,0,8,,,,,,,,4,,,79,0
138480,note_on,0,0,8,,,,,,,,4,,,83,127
138480,note_on,44,0,8,,,,,,,,4,,,83,0
138480,note_on,0,0,8,,,,,,,,4,,,79,127
138562,note_on,82,0,8,,,,,,,,4,,,79,0
138600,note_on,0,0,8,,,,,,,,4,,,83,127
138600,note_on,0,0,8,,,,,,,,4,,,79,127
138600,note_on,38,0,8,,,,,,,,4,,,83,0
138626,note_on,1346,0,5,,,,,,,,5,,,55,0
138640,note_on,14,0,5,,,,,,,,5,,,67,0
138676,note_on,76,0,8,,,,,,,,4,,,79,0
138720,note_on,44,0,8,,,,,,,,4,,,83,0
138720,note_on,0,0,8,,,,,,,,4,,,83,127
138720,note_on,0,0,8,,,,,,,,4,,,79,127
138740,note_on,1460,0,1,,,,,,,,0,,,91,0
138772,note_on,32,0,1,,,,,,,,0,,,83,0
138774,note_on,484,0,2,,,,,,,,1,,,83,0
138790,note_on,490,0,12,,,,,,,,11,,,47,0
138790,note_on,490,0,11,,,,,,,,10,,,59,0
138790,note_on,526,0,4,,,,,,,,3,,,59,0
138796,note_on,524,0,3,,,,,,,,2,,,71,0
138804,note_on,84,0,8,,,,,,,,4,,,79,0
138832,note_on,546,0,10,,,,,,,,8,,,71,0
138840,note_on,0,0,8,,,,,,,,4,,,83,127
138840,note_on,36,0,8,,,,,,,,4,,,83,0
138840,note_on,0,0,8,,,,,,,,4,,,79,127
138922,note_on,82,0,8,,,,,,,,4,,,79,0
138960,note_on,170,0,12,,,,,,,,11,,,47,96
138960,note_on,186,0,2,,,,,,,,1,,,71,64
138960,note_on,170,0,11,,,,,,,,10,,,59,127
138960,note_on,0,0,8,,,,,,,,4,,,81,127
138960,note_on,0,0,8,,,,,,,,4,,,78,127
138960,note_on,38,0,8,,,,,,,,4,,,83,0
138960,note_on,128,0,10,,,,,,,,8,,,71,127
138960,note_on,164,0,3,,,,,,,,2,,,71,64
138960,note_on,188,0,1,,,,,,,,0,,,87,64
138960,note_on,170,0,4,,,,,,,,3,,,59,64
138960,note_on,0,0,1,,,,,,,,0,,,81,64
139022,note_on,62,0,1,,,,,,,,0,,,87,0
139022,note_on,62,0,4,,,,,,,,3,,,59,0
139026,note_on,66,0,3,,,,,,,,2,,,71,0
139032,note_on,72,0,2,,,,,,,,1,,,71,0
139034,note_on,74,0,12,,,,,,,,11,,,47,0
139034,note_on,74,0,11,,,,,,,,10,,,59,0
139042,note_on,20,0,1,,,,,,,,0,,,81,0
139042,note_on,82,0,8,,,,,,,,4,,,78,0
139070,note_on,110,0,10,,,,,,,,8,,,71,0
139080,note_on,0,0,8,,,,,,,,4,,,78,127
139080,note_on,0,0,8,,,,,,,,4,,,81,127
139080,note_on,38,0,8,,,,,,,,4,,,81,0
139166,note_on,86,0,8,,,,,,,,4,,,78,0
139200,note_on,0,0,8,,,,,,,,4,,,79,127
139200,note_on,34,0,8,,,,,,,,4,,,81,0
139200,note_on,168,0,2,,,,,,,,1,,,72,64
139200,note_on,166,0,11,,,,,,,,10,,,60,127
139200,note_on,166,0,12,,,,,,,,11,,,48,96
139200,note_on,0,0,1,,,,,,,,0,,,88,64
139200,note_on,0,0,8,,,,,,,,4,,,76,127
139200,note_on,1804,0,6,,,,,,,,6,,,72,64
139200,note_on,174,0,3,,,,,,,,2,,,72,64
139200,note_on,1804,0,7,,,,,,,,7,,,48,64
139200,note_on,130,0,10,,,,,,,,8,,,72,127
139200,note_on,178,0,4,,,,,,,,3,,,60,64
139200,note_on,158,0,1,,,,,,,,0,,,79,64
139200,note_on,0,0,6,,,,,,,,6,,,60,64
139296,note_on,0,0,6,,,,,,,,6,,,72,0
139296,note_on,96,0,6,,,,,,,,6,,,60,0
139296,note_on,96,0,7,,,,,,,,7,,,48,0
139300,note_on,100,0,8,,,,,,,,4,,,76,0
139312,note_on,112,0,2,,,,,,,,1,,,72,0
139320,note_on,20,0,8,,,,,,,,4,,,79,0
139320,note_on,120,0,11,,,,,,,,10,,,59,127
139320,note_on,120,0,12,,,,,,,,11,,,47,96
139320,note_on,120,0,4,,,,,,,,3,,,59,64
139320,note_on,120,0,10,,,,,,,,8,,,71,127
139320,note_on,0,0,8,,,,,,,,4,,,76,127
139320,note_on,0,0,8,,,,,,,,4,,,79,127
139320,note_on,120,0,3,,,,,,,,2,,,71,64
139340,note_on,20,0,4,,,,,,,,3,,,60,0
139350,note_on,30,0,3,,,,,,,,2,,,72,0
139354,note_on,34,0,10,,,,,,,,8,,,72,0
139362,note_on,42,0,11,,,,,,,,10,,,60,0
139362,note_on,42,0,12,,,,,,,,11,,,48,0
139412,note_on,92,0,8,,,,,,,,4,,,76,0
139440,note_on,86,0,10,,,,,,,,8,,,72,127
139440,note_on,0,0,8,,,,,,,,4,,,79,127
139440,note_on,100,0,4,,,,,,,,3,,,60,64
139440,note_on,28,0,8,,,,,,,,4,,,79,0
139440,note_on,0,0,8,,,,,,,,4,,,76,127
139440,note_on,78,0,12,,,,,,,,11,,,48,96
139440,note_on,90,0,3,,,,,,,,2,,,72,64
139440,note_on,78,0,11,,,,,,,,10,,,60,127
139472,note_on,32,0,4,,,,,,,,3,,,59,0
139484,note_on,44,0,3,,,,,,,,2,,,71,0
139500,note_on,60,0,12,,,,,,,,11,,,47,0
139500,note_on,60,0,11,,,,,,,,10,,,59,0
139500,note_on,60,0,10,,,,,,,,8,,,71,0
139536,note_on,96,0,8,,,,,,,,4,,,76,0
139554,note_on,354,0,1,,,,,,,,0,,,79,0
139560,note_on,60,0,10,,,,,,,,8,,,71,127
139560,note_on,88,0,4,,,,,,,,3,,,59,64
139560,note_on,0,0,8,,,,,,,,4,,,79,127
139560,note_on,0,0,8,,,,,,,,4,,,76,127
139560,note_on,76,0,3,,,,,,,,2,,,71,64
139560,note_on,60,0,11,,,,,,,,10,,,59,127
139560,note_on,60,0,12,,,,,,,,11,,,47,96
139560,note_on,24,0,8,,,,,,,,4,,,79,0
139572,note_on,12,0,4,,,,,,,,3,,,60,0
139592,note_on,32,0,3,,,,,,,,2,,,72,0
139596,note_on,36,0,10,,,,,,,,8,,,72,0
139604,note_on,50,0,1,,,,,,,,0,,,88,0
139614,note_on,54,0,12,,,,,,,,11,,,48,0
139614,note_on,54,0,11,,,,,,,,10,,,60,0
139642,note_on,82,0,8,,,,,,,,4,,,76,0
139680,note_on,66,0,12,,,,,,,,11,,,48,96
139680,note_on,38,0,8,,,,,,,,4,,,79,0
139680,note_on,0,0,8,,,,,,,,4,,,81,127
139680,note_on,368,0,2,,,,,,,,1,,,84,64
139680,note_on,88,0,3,,,,,,,,2,,,72,64
139680,note_on,0,0,2,,,,,,,,1,,,81,64
139680,note_on,1040,0,5,,,,,,,,5,,,64,64
139680,note_on,0,0,5,,,,,,,,5,,,60,64
139680,note_on,108,0,4,,,,,,,,3,,,60,64
139680,note_on,0,0,1,,,,,,,,0,,,93,64
139680,note_on,76,0,1,,,,,,,,0,,,84,64
139680,note_on,66,0,11,,,,,,,,10,,,60,127
139680,note_on,0,0,8,,,,,,,,4,,,84,127
139680,note_on,84,0,10,,,,,,,,8,,,72,127
139714,note_on,34,0,4,,,,,,,,3,,,59,0
139730,note_on,50,0,3,,,,,,,,2,,,71,0
139732,note_on,52,0,10,,,,,,,,8,,,71,0
139734,note_on,54,0,11,,,,,,,,10,,,59,0
139734,note_on,54,0,12,,,,,,,,11,,,47,0
139774,note_on,94,0,8,,,,,,,,4,,,81,0
139800,note_on,0,0,8,,,,,,,,4,,,84,127
139800,note_on,0,0,8,,,,,,,,4,,,81,127
139800,note_on,26,0,8,,,,,,,,4,,,84,0
139800,note_on,86,0,4,,,,,,,,3,,,57,64
139800,note_on,66,0,12,,,,,,,,11,,,45,96
139800,note_on,68,0,10,,,,,,,,8,,,69,127
139800,note_on,70,0,3,,,,,,,,2,,,69,64
139800,note_on,66,0,11,,,,,,,,10,,,57,127
139816,note_on,16,0,3,,,,,,,,2,,,72,0
139826,note_on,26,0,4,,,,,,,,3,,,60,0
139840,note_on,40,0,12,,,,,,,,11,,,48,0
139840,note_on,40,0,11,,,,,,,,10,,,60,0
139872,note_on,72,0,10,,,,,,,,8,,,72,0
139880,note_on,80,0,8,,,,,,,,4,,,81,0
139920,note_on,94,0,4,,,,,,,,3,,,59,64
139920,note_on,104,0,3,,,,,,,,2,,,71,64
139920,note_on,0,0,8,,,,,,,,4,,,84,127
139920,note_on,0,0,8,,,,,,,,4,,,81,127
139920,note_on,48,0,10,,,,,,,,8,,,71,127
139920,note_on,80,0,12,,,,,,,,11,,,47,96
139920,note_on,40,0,8,,,,,,,,4,,,84,0
139920,note_on,80,0,11,,,,,,,,10,,,59,127
139952,note_on,32,0,4,,,,,,,,3,,,57,0
139962,note_on,42,0,10,,,,,,,,8,,,69,0
139964,note_on,44,0,3,,,,,,,,2,,,69,0
139984,note_on,64,0,12,,,,,,,,11,,,45,0
139984,note_on,64,0,11,,,,,,,,10,,,57,0
139996,note_on,76,0,8,,,,,,,,4,,,81,0
140006,note_on,326,0,5,,,,,,,,5,,,60,0
140020,note_on,14,0,5,,,,,,,,5,,,64,0
140040,note_on,78,0,10,,,,,,,,8,,,72,127
140040,note_on,0,0,8,,,,,,,,4,,,84,127
140040,note_on,56,0,11,,,,,,,,10,,,60,127
140040,note_on,44,0,8,,,,,,,,4,,,84,0
140040,note_on,76,0,3,,,,,,,,2,,,72,64
140040,note_on,56,0,12,,,,,,,,11,,,48,96
140040,note_on,88,0,4,,,,,,,,3,,,60,64
140040,note_on,0,0,8,,,,,,,,4,,,81,127
140062,note_on,382,0,2,,,,,,,,1,,,84,0
140062,note_on,382,0,1,,,,,,,,0,,,93,0
140064,note_on,2,0,1,,,,,,,,0,,,84,0
140072,note_on,10,0,2,,,,,,,,1,,,81,0
140080,note_on,40,0,4,,,,,,,,3,,,59,0
140102,note_on,62,0,3,,,,,,,,2,,,71,0
140106,note_on,66,0,11,,,,,,,,10,,,59,0
140106,note_on,66,0,12,,,,,,,,11,,,47,0
140110,note_on,8,0,3,,,,,,,,2,,,72,0
140120,note_on,80,0,10,,,,,,,,8,,,71,0
140126,note_on,86,0,8,,,,,,,,4,,,81,0
140160,note_on,140,0,5,,,,,,,,5,,,62,64
140160,note_on,96,0,1,,,,,,,,0,,,91,64
140160,note_on,54,0,11,,,,,,,,10,,,62,127
140160,note_on,88,0,2,,,,,,,,1,,,83,64
140160,note_on,34,0,8,,,,,,,,4,,,84,0
140160,note_on,0,0,1,,,,,,,,0,,,83,64
140160,note_on,0,0,2,,,,,,,,1,,,79,64
140160,note_on,0,0,8,,,,,,,,4,,,83,127
140160,note_on,80,0,4,,,,,,,,3,,,62,64
140160,note_on,40,0,10,,,,,,,,8,,,74,127
140160,note_on,0,0,8,,,,,,,,4,,,79,127
140160,note_on,54,0,12,,,,,,,,11,,,50,96
140160,note_on,50,0,3,,,,,,,,2,,,74,64
140180,note_on,20,0,4,,,,,,,,3,,,60,0
140194,note_on,34,0,11,,,,,,,,10,,,60,0
140194,note_on,34,0,12,,,,,,,,11,,,48,0
140220,note_on,60,0,10,,,,,,,,8,,,72,0
140236,note_on,76,0,8,,,,,,,,4,,,79,0
140280,note_on,120,0,3,,,,,,,,2,,,73,64
140280,note_on,0,0,8,,,,,,,,4,,,79,127
140280,note_on,86,0,12,,,,,,,,11,,,49,96
140280,note_on,44,0,8,,,,,,,,4,,,83,0
140280,note_on,100,0,4,,,,,,,,3,,,61,64
140280,note_on,86,0,11,,,,,,,,10,,,61,127
140280,note_on,60,0,10,,,,,,,,8,,,73,127
140280,note_on,0,0,8,,,,,,,,4,,,83,127
140302,note_on,22,0,4,,,,,,,,3,,,62,0
140302,note_on,22,0,3,,,,,,,,2,,,74,0
140324,note_on,44,0,11,,,,,,,,10,,,62,0
140324,note_on,44,0,12,,,,,,,,11,,,50,0
140334,note_on,54,0,10,,,,,,,,8,,,74,0
140360,note_on,80,0,8,,,,,,,,4,,,79,0
140400,note_on,98,0,3,,,,,,,,2,,,74,64
140400,note_on,76,0,12,,,,,,,,11,,,50,96
140400,note_on,0,0,8,,,,,,,,4,,,79,127
140400,note_on,0,0,8,,,,,,,,4,,,83,127
140400,note_on,40,0,8,,,,,,,,4,,,83,0
140400,note_on,66,0,10,,,,,,,,8,,,74,127
140400,note_on,98,0,4,,,,,,,,3,,,62,64
140400,note_on,76,0,11,,,,,,,,10,,,62,127
140416,note_on,16,0,4,,,,,,,,3,,,61,0
140422,note_on,22,0,3,,,,,,,,2,,,73,0
140432,note_on,32,0,11,,,,,,,,10,,,61,0
140432,note_on,32,0,12,,,,,,,,11,,,49,0
140470,note_on,70,0,10,,,,,,,,8,,,73,0
140474,note_on,74,0,8,,,,,,,,4,,,79,0
140514,note_on,354,0,5,,,,,,,,5,,,62,0
140520,note_on,98,0,3,,,,,,,,2,,,73,64
140520,note_on,50,0,10,,,,,,,,8,,,73,127
140520,note_on,0,0,8,,,,,,,,4,,,83,127
140520,note_on,46,0,8,,,,,,,,4,,,83,0
140520,note_on,104,0,4,,,,,,,,3,,,61,64
140520,note_on,0,0,8,,,,,,,,4,,,79,127
140520,note_on,88,0,12,,,,,,,,11,,,49,96
140520,note_on,88,0,11,,,,,,,,10,,,61,127
140536,note_on,16,0,4,,,,,,,,3,,,62,0
140542,note_on,382,0,1,,,,,,,,0,,,83,0
140546,note_on,26,0,3,,,,,,,,2,,,74,0
140550,note_on,8,0,1,,,,,,,,0,,,91,0
140550,note_on,30,0,11,,,,,,,,10,,,62,0
140550,note_on,30,0,12,,,,,,,,11,,,50,0
140556,note_on,36,0,10,,,,,,,,8,,,74,0
140582,note_on,422,0,2,,,,,,,,1,,,83,0
140590,note_on,8,0,2,,,,,,,,1,,,79,0
140594,note_on,74,0,8,,,,,,,,4,,,79,0
140640,note_on,50,0,2,,,,,,,,1,,,78,64
140640,note_on,46,0,8,,,,,,,,4,,,83,0
140640,note_on,0,0,8,,,,,,,,4,,,78,127
140640,note_on,0,0,8,,,,,,,,4,,,81,127
140640,note_on,126,0,5,,,,,,,,5,,,62,64
140640,note_on,94,0,3,,,,,,,,2,,,74,64
140640,note_on,90,0,11,,,,,,,,10,,,62,127
140640,note_on,104,0,4,,,,,,,,3,,,62,64
140640,note_on,0,0,2,,,,,,,,1,,,81,64
140640,note_on,84,0,10,,,,,,,,8,,,74,127
140640,note_on,0,0,1,,,,,,,,0,,,81,64
140640,note_on,90,0,12,,,,,,,,11,,,50,96
140640,note_on,90,0,1,,,,,,,,0,,,90,64
140672,note_on,32,0,4,,,,,,,,3,,,61,0
140692,note_on,52,0,11,,,,,,,,10,,,61,0
140692,note_on,52,0,12,,,,,,,,11,,,49,0
140694,note_on,54,0,10,,,,,,,,8,,,73,0
140714,note_on,22,0,11,,,,,,,,10,,,62,0
140714,note_on,22,0,12,,,,,,,,11,,,50,0
140716,note_on,76,0,3,,,,,,,,2,,,73,0
140724,note_on,52,0,4,,,,,,,,3,,,62,0
140724,note_on,8,0,3,,,,,,,,2,,,74,0
140726,note_on,86,0,8,,,,,,,,4,,,78,0
140752,note_on,58,0,10,,,,,,,,8,,,74,0
140760,note_on,0,0,8,,,,,,,,4,,,78,127
140760,note_on,0,0,8,,,,,,,,4,,,81,127
140760,note_on,34,0,8,,,,,,,,4,,,81,0
140836,note_on,76,0,8,,,,,,,,4,,,78,0
140880,note_on,166,0,11,,,,,,,,10,,,50,127
140880,note_on,0,0,8,,,,,,,,4,,,78,127
140880,note_on,44,0,8,,,,,,,,4,,,81,0
140880,note_on,128,0,10,,,,,,,,8,,,62,127
140880,note_on,156,0,3,,,,,,,,2,,,74,64
140880,note_on,166,0,12,,,,,,,,11,,,38,96
140880,note_on,0,0,8,,,,,,,,4,,,81,127
140880,note_on,156,0,4,,,,,,,,3,,,50,64
140934,note_on,54,0,3,,,,,,,,2,,,74,0
140954,note_on,74,0,4,,,,,,,,3,,,50,0
140960,note_on,80,0,8,,,,,,,,4,,,78,0
140964,note_on,84,0,11,,,,,,,,10,,,50,0
140964,note_on,324,0,5,,,,,,,,5,,,62,0
140964,note_on,84,0,12,,,,,,,,11,,,38,0
140972,note_on,332,0,1,,,,,,,,0,,,90,0
140980,note_on,340,0,2,,,,,,,,1,,,78,0
140980,note_on,100,0,10,,,,,,,,8,,,62,0
140996,note_on,24,0,1,,,,,,,,0,,,81,0
141000,note_on,0,0,8,,,,,,,,4,,,78,127
141000,note_on,40,0,8,,,,,,,,4,,,81,0
141000,note_on,0,0,8,,,,,,,,4,,,81,127
141020,note_on,40,0,2,,,,,,,,1,,,81,0
141082,note_on,82,0,8,,,,,,,,4,,,78,0
141120,note_on,0,0,1,,,,,,,,0,,,91,64
141120,note_on,156,0,12,,,,,,,,11,,,31,64
141120,note_on,124,0,1,,,,,,,,0,,,83,64
141120,note_on,166,0,4,,,,,,,,3,,,55,64
141120,note_on,0,0,8,,,,,,,,4,,,79,127
141120,note_on,186,0,3,,,,,,,,2,,,67,64
141120,note_on,140,0,10,,,,,,,,8,,,67,127
141120,note_on,100,0,2,,,,,,,,1,,,79,64
141120,note_on,0,0,5,,,,,,,,5,,,55,64
141120,note_on,156,0,5,,,,,,,,5,,,62,64
141120,note_on,156,0,11,,,,,,,,10,,,43,127
141120,note_on,38,0,8,,,,,,,,4,,,81,0
141134,control_change,14,0,8,,,,,,,,4,7,90,,
141176,note_on,56,0,2,,,,,,,,1,,,79,0
141186,note_on,66,0,1,,,,,,,,0,,,91,0
141192,note_on,72,0,4,,,,,,,,3,,,55,0
141212,note_on,92,0,5,,,,,,,,5,,,55,0
141224,note_on,12,0,5,,,,,,,,5,,,62,0
141226,note_on,40,0,1,,,,,,,,0,,,83,0
141236,note_on,116,0,10,,,,,,,,8,,,67,0
141240,note_on,106,0,8,,,,,,,,4,,,79,0
141256,note_on,136,0,3,,,,,,,,2,,,67,0
141360,note_on,120,0,8,,,,,,,,4,,,62,96
141360,note_on,0,0,8,,,,,,,,4,,,59,96
141360,note_on,184,0,2,,,,,,,,1,,,74,64
141360,note_on,168,0,4,,,,,,,,3,,,62,64
141456,note_on,336,0,12,,,,,,,,11,,,31,0
141456,note_on,336,0,11,,,,,,,,10,,,43,0
141694,note_on,334,0,4,,,,,,,,3,,,62,0
141730,note_on,370,0,2,,,,,,,,1,,,74,0
141742,note_on,382,0,8,,,,,,,,4,,,59,0
141742,note_on,0,0,8,,,,,,,,4,,,62,0
141840,note_on,146,0,4,,,,,,,,3,,,62,64
141840,note_on,98,0,8,,,,,,,,4,,,62,96
141840,note_on,110,0,2,,,,,,,,1,,,74,64
141840,note_on,0,0,8,,,,,,,,4,,,59,96
141890,note_on,50,0,2,,,,,,,,1,,,74,0
141900,note_on,60,0,4,,,,,,,,3,,,62,0
142080,note_on,190,0,2,,,,,,,,1,,,72,64
142080,note_on,180,0,4,,,,,,,,3,,,60,64
142136,note_on,56,0,2,,,,,,,,1,,,72,0
142136,note_on,56,0,4,,,,,,,,3,,,60,0
142206,note_on,366,0,8,,,,,,,,4,,,62,0
142212,note_on,6,0,8,,,,,,,,4,,,59,0
142320,note_on,184,0,4,,,,,,,,3,,,59,64
142320,note_on,0,0,8,,,,,,,,4,,,62,96
142320,note_on,184,0,2,,,,,,,,1,,,71,64
142320,note_on,108,0,8,,,,,,,,4,,,59,96
142380,note_on,60,0,4,,,,,,,,3,,,59,0
142380,note_on,60,0,2,,,,,,,,1,,,71,0
142392,note_on,72,0,8,,,,,,,,4,,,62,0
142392,note_on,0,0,8,,,,,,,,4,,,59,0
142560,note_on,0,0,8,,,,,,,,4,,,59,96
142560,note_on,168,0,8,,,,,,,,4,,,62,96
142560,note_on,180,0,2,,,,,,,,1,,,69,64
142560,note_on,180,0,4,,,,,,,,3,,,57,64
142616,note_on,56,0,4,,,,,,,,3,,,57,0
142616,note_on,56,0,2,,,,,,,,1,,,69,0
142626,note_on,66,0,8,,,,,,,,4,,,62,0
142632,note_on,6,0,8,,,,,,,,4,,,59,0
142800,note_on,0,0,8,,,,,,,,4,,,62,96
142800,note_on,184,0,4,,,,,,,,3,,,55,64
142800,note_on,168,0,8,,,,,,,,4,,,59,96
142800,note_on,184,0,2,,,,,,,,1,,,67,64
142864,note_on,64,0,8,,,,,,,,4,,,62,0
142866,note_on,66,0,2,,,,,,,,1,,,67,0
142874,note_on,10,0,8,,,,,,,,4,,,59,0
142874,note_on,74,0,4,,,,,,,,3,,,55,0
143040,note_on,174,0,2,,,,,,,,1,,,66,64
143040,note_on,1814,0,1,,,,,,,,0,,,78,64
143040,note_on,1804,0,10,,,,,,,,8,,,60,96
143040,note_on,0,0,8,,,,,,,,4,,,62,96
143040,note_on,1584,0,12,,,,,,,,11,,,38,64
143040,note_on,0,0,8,,,,,,,,4,,,60,96
143040,note_on,166,0,8,,,,,,,,4,,,66,96
143040,note_on,1584,0,11,,,,,,,,10,,,50,96
143040,note_on,166,0,4,,,,,,,,3,,,54,64
143090,note_on,50,0,8,,,,,,,,4,,,66,0
143094,note_on,54,0,1,,,,,,,,0,,,78,0
143094,note_on,54,0,2,,,,,,,,1,,,66,0
143102,note_on,62,0,4,,,,,,,,3,,,54,0
143112,note_on,22,0,8,,,,,,,,4,,,62,0
143112,note_on,0,0,8,,,,,,,,4,,,60,0
143120,note_on,80,0,11,,,,,,,,10,,,50,0
143120,note_on,80,0,12,,,,,,,,11,,,38,0
143126,note_on,86,0,10,,,,,,,,8,,,60,0
143280,note_on,160,0,11,,,,,,,,10,,,51,96
143280,note_on,0,0,8,,,,,,,,4,,,63,96
143280,note_on,160,0,12,,,,,,,,11,,,39,64
143280,note_on,186,0,1,,,,,,,,0,,,87,64
143280,note_on,154,0,10,,,,,,,,8,,,63,96
143280,note_on,168,0,8,,,,,,,,4,,,75,96
143584,note_on,304,0,8,,,,,,,,4,,,63,0
143614,note_on,334,0,1,,,,,,,,0,,,87,0
143630,note_on,350,0,12,,,,,,,,11,,,39,0
143630,note_on,350,0,11,,,,,,,,10,,,51,0
143632,note_on,48,0,8,,,,,,,,4,,,75,0
143676,note_on,396,0,10,,,,,,,,8,,,63,0
143760,note_on,146,0,1,,,,,,,,0,,,87,64
143760,note_on,128,0,8,,,,,,,,4,,,63,96
143760,note_on,0,0,8,,,,,,,,4,,,75,96
143760,note_on,84,0,10,,,,,,,,8,,,63,96
143760,note_on,130,0,11,,,,,,,,10,,,51,96
143760,note_on,130,0,12,,,,,,,,11,,,39,64
143832,note_on,72,0,1,,,,,,,,0,,,87,0
143840,note_on,80,0,12,,,,,,,,11,,,39,0
143840,note_on,80,0,11,,,,,,,,10,,,51,0
143844,note_on,0,0,8,,,,,,,,4,,,63,0
143844,note_on,84,0,8,,,,,,,,4,,,75,0
143856,note_on,96,0,10,,,,,,,,8,,,63,0
144000,note_on,160,0,12,,,,,,,,11,,,38,64
144000,note_on,160,0,11,,,,,,,,10,,,50,96
144000,note_on,156,0,8,,,,,,,,4,,,62,96
144000,note_on,144,0,10,,,,,,,,8,,,62,96
144000,note_on,0,0,8,,,,,,,,4,,,74,96
144000,note_on,168,0,1,,,,,,,,0,,,86,64
144066,note_on,66,0,1,,,,,,,,0,,,86,0
144074,note_on,74,0,11,,,,,,,,10,,,50,0
144074,note_on,74,0,12,,,,,,,,11,,,38,0
144074,note_on,74,0,8,,,,,,,,4,,,62,0
144080,note_on,6,0,8,,,,,,,,4,,,74,0
144082,note_on,82,0,10,,,,,,,,8,,,62,0
144240,note_on,166,0,11,,,,,,,,10,,,48,96
144240,note_on,174,0,1,,,,,,,,0,,,84,64
144240,note_on,158,0,10,,,,,,,,8,,,60,96
144240,note_on,160,0,8,,,,,,,,4,,,60,96
144240,note_on,166,0,12,,,,,,,,11,,,36,64
144240,note_on,0,0,8,,,,,,,,4,,,72,96
144300,note_on,60,0,1,,,,,,,,0,,,84,0
144314,note_on,74,0,11,,,,,,,,10,,,48,0
144314,note_on,74,0,12,,,,,,,,11,,,36,0
144318,note_on,78,0,8,,,,,,,,4,,,72,0
144330,note_on,12,0,8,,,,,,,,4,,,60,0
144330,note_on,90,0,10,,,,,,,,8,,,60,0
144480,note_on,150,0,8,,,,,,,,4,,,71,96
144480,note_on,166,0,12,,,,,,,,11,,,35,64
144480,note_on,150,0,10,,,,,,,,8,,,59,96
144480,note_on,166,0,11,,,,,,,,10,,,47,96
144480,note_on,0,0,8,,,,,,,,4,,,59,96
144480,note_on,180,0,1,,,,,,,,0,,,83,64
144542,note_on,62,0,8,,,,,,,,4,,,59,0
144542,note_on,62,0,1,,,,,,,,0,,,83,0
144562,note_on,82,0,12,,,,,,,,11,,,35,0
144562,note_on,82,0,11,,,,,,,,10,,,47,0
144562,note_on,20,0,8,,,,,,,,4,,,71,0
144564,note_on,84,0,10,,,,,,,,8,,,59,0
144720,note_on,158,0,12,,,,,,,,11,,,33,64
144720,note_on,158,0,11,,,,,,,,10,,,45,96
144720,note_on,178,0,1,,,,,,,,0,,,81,64
144720,note_on,158,0,8,,,,,,,,4,,,69,96
144720,note_on,156,0,10,,,,,,,,8,,,57,96
144720,note_on,0,0,8,,,,,,,,4,,,57,96
144782,note_on,62,0,1,,,,,,,,0,,,81,0
144798,note_on,78,0,8,,,,,,,,4,,,69,0
144800,note_on,80,0,12,,,,,,,,11,,,33,0
144800,note_on,80,0,11,,,,,,,,10,,,45,0
144802,note_on,4,0,8,,,,,,,,4,,,57,0
144814,note_on,94,0,10,,,,,,,,8,,,57,0
144960,note_on,158,0,8,,,,,,,,4,,,55,96
144960,note_on,160,0,12,,,,,,,,11,,,31,64
144960,note_on,0,0,8,,,,,,,,4,,,67,96
144960,note_on,160,0,11,,,,,,,,10,,,43,96
144960,note_on,178,0,1,,,,,,,,0,,,79,64
144960,note_on,146,0,10,,,,,,,,8,,,55,96
145020,note_on,60,0,1,,,,,,,,0,,,79,0
145036,note_on,76,0,11,,,,,,,,10,,,43,0
145036,note_on,76,0,12,,,,,,,,11,,,31,0
145040,note_on,80,0,8,,,,,,,,4,,,55,0
145046,note_on,6,0,8,,,,,,,,4,,,67,0
145054,note_on,94,0,10,,,,,,,,8,,,55,0
145200,note_on,2098,0,4,,,,,,,,3,,,62,64
145200,note_on,0,0,8,,,,,,,,4,,,62,96
145200,note_on,154,0,8,,,,,,,,4,,,59,96
145200,note_on,2106,0,2,,,,,,,,1,,,74,64
145504,note_on,304,0,8,,,,,,,,4,,,62,0
145504,note_on,0,0,8,,,,,,,,4,,,59,0
145586,note_on,386,0,2,,,,,,,,1,,,74,0
145592,note_on,392,0,4,,,,,,,,3,,,62,0
145680,note_on,176,0,8,,,,,,,,4,,,62,96
145680,note_on,0,0,8,,,,,,,,4,,,59,96
145680,note_on,94,0,2,,,,,,,,1,,,74,64
145680,note_on,88,0,4,,,,,,,,3,,,62,64
145740,note_on,60,0,2,,,,,,,,1,,,74,0
145744,note_on,64,0,4,,,,,,,,3,,,62,0
145920,note_on,180,0,2,,,,,,,,1,,,72,64
145920,note_on,176,0,4,,,,,,,,3,,,60,64
145976,note_on,56,0,4,,,,,,,,3,,,60,0
145984,note_on,64,0,2,,,,,,,,1,,,72,0
146050,note_on,370,0,8,,,,,,,,4,,,62,0
146052,note_on,2,0,8,,,,,,,,4,,,59,0
146160,note_on,176,0,2,,,,,,,,1,,,71,64
146160,note_on,108,0,8,,,,,,,,4,,,59,96
146160,note_on,184,0,4,,,,,,,,3,,,59,64
146160,note_on,0,0,8,,,,,,,,4,,,62,96
146216,note_on,56,0,4,,,,,,,,3,,,59,0
146216,note_on,56,0,2,,,,,,,,1,,,71,0
146222,note_on,62,0,8,,,,,,,,4,,,62,0
146226,note_on,4,0,8,,,,,,,,4,,,59,0
146400,note_on,184,0,2,,,,,,,,1,,,69,64
146400,note_on,0,0,8,,,,,,,,4,,,62,96
146400,note_on,174,0,8,,,,,,,,4,,,59,96
146400,note_on,184,0,4,,,,,,,,3,,,57,64
146454,note_on,54,0,2,,,,,,,,1,,,69,0
146460,note_on,60,0,4,,,,,,,,3,,,57,0
146466,note_on,66,0,8,,,,,,,,4,,,59,0
146472,note_on,6,0,8,,,,,,,,4,,,62,0
146640,note_on,168,0,8,,,,,,,,4,,,59,96
146640,note_on,0,0,8,,,,,,,,4,,,62,96
146640,note_on,180,0,4,,,,,,,,3,,,55,64
146640,note_on,186,0,2,,,,,,,,1,,,67,64
146706,note_on,66,0,2,,,,,,,,1,,,67,0
146712,note_on,72,0,8,,,,,,,,4,,,62,0
146712,note_on,72,0,4,,,,,,,,3,,,55,0
146716,note_on,4,0,8,,,,,,,,4,,,59,0
146880,note_on,174,0,2,,,,,,,,1,,,66,64
146880,note_on,168,0,4,,,,,,,,3,,,54,64
146880,note_on,0,0,8,,,,,,,,4,,,66,96
146880,note_on,164,0,8,,,,,,,,4,,,62,96
146880,note_on,1844,0,11,,,,,,,,10,,,50,96
146880,note_on,0,0,8,,,,,,,,4,,,60,96
146880,note_on,1860,0,1,,,,,,,,0,,,78,64
146880,note_on,1844,0,12,,,,,,,,11,,,38,64
146880,note_on,1826,0,10,,,,,,,,8,,,60,96
146932,note_on,52,0,4,,,,,,,,3,,,54,0
146936,note_on,56,0,1,,,,,,,,0,,,78,0
146940,note_on,60,0,2,,,,,,,,1,,,66,0
146952,note_on,0,0,8,,,,,,,,4,,,62,0
146952,note_on,72,0,8,,,,,,,,4,,,60,0
146956,note_on,4,0,8,,,,,,,,4,,,66,0
146956,note_on,76,0,12,,,,,,,,11,,,38,0
146956,note_on,76,0,11,,,,,,,,10,,,50,0
146964,note_on,84,0,10,,,,,,,,8,,,60,0
147120,note_on,0,0,8,,,,,,,,4,,,63,96
147120,note_on,164,0,8,,,,,,,,4,,,75,96
147120,note_on,164,0,11,,,,,,,,10,,,51,96
147120,note_on,184,0,1,,,,,,,,0,,,87,64
147120,note_on,156,0,10,,,,,,,,8,,,63,96
147120,note_on,164,0,12,,,,,,,,11,,,39,64
147430,note_on,310,0,12,,,,,,,,11,,,39,0
147430,note_on,310,0,11,,,,,,,,10,,,51,0
147432,note_on,312,0,8,,,,,,,,4,,,63,0
147444,note_on,324,0,1,,,,,,,,0,,,87,0
147486,note_on,54,0,8,,,,,,,,4,,,75,0
147506,note_on,386,0,10,,,,,,,,8,,,63,0
147600,note_on,94,0,10,,,,,,,,8,,,63,96
147600,note_on,170,0,12,,,,,,,,11,,,39,64
147600,note_on,114,0,8,,,,,,,,4,,,63,96
147600,note_on,156,0,1,,,,,,,,0,,,87,64
147600,note_on,0,0,8,,,,,,,,4,,,75,96
147600,note_on,170,0,11,,,,,,,,10,,,51,96
147664,note_on,64,0,1,,,,,,,,0,,,87,0
147680,note_on,80,0,8,,,,,,,,4,,,63,0
147684,note_on,4,0,8,,,,,,,,4,,,75,0
147684,note_on,84,0,10,,,,,,,,8,,,63,0
147686,note_on,86,0,11,,,,,,,,10,,,51,0
147686,note_on,86,0,12,,,,,,,,11,,,39,0
147840,note_on,176,0,1,,,,,,,,0,,,86,64
147840,note_on,154,0,12,,,,,,,,11,,,38,64
147840,note_on,0,0,8,,,,,,,,4,,,62,96
147840,note_on,154,0,11,,,,,,,,10,,,50,96
147840,note_on,156,0,8,,,,,,,,4,,,74,96
147840,note_on,156,0,10,,,,,,,,8,,,62,96
147904,note_on,64,0,1,,,,,,,,0,,,86,0
147912,note_on,72,0,12,,,,,,,,11,,,38,0
147912,note_on,72,0,11,,,,,,,,10,,,50,0
147914,note_on,74,0,8,,,,,,,,4,,,62,0
147916,note_on,76,0,10,,,,,,,,8,,,62,0
147930,note_on,16,0,8,,,,,,,,4,,,74,0
148080,note_on,176,0,1,,,,,,,,0,,,84,64
148080,note_on,150,0,8,,,,,,,,4,,,60,96
148080,note_on,0,0,8,,,,,,,,4,,,72,96
148080,note_on,168,0,12,,,,,,,,11,,,36,64
148080,note_on,168,0,11,,,,,,,,10,,,48,96
148080,note_on,164,0,10,,,,,,,,8,,,60,96
148134,note_on,54,0,1,,,,,,,,0,,,84,0
148152,note_on,72,0,12,,,,,,,,11,,,36,0
148152,note_on,72,0,11,,,,,,,,10,,,48,0
148158,note_on,78,0,8,,,,,,,,4,,,72,0
148166,note_on,86,0,10,,,,,,,,8,,,60,0
148166,note_on,8,0,8,,,,,,,,4,,,60,0
148320,note_on,186,0,1,,,,,,,,0,,,83,64
148320,note_on,168,0,11,,,,,,,,10,,,47,96
148320,note_on,154,0,10,,,,,,,,8,,,59,96
148320,note_on,0,0,8,,,,,,,,4,,,59,96
148320,note_on,154,0,8,,,,,,,,4,,,71,96
148320,note_on,168,0,12,,,,,,,,11,,,35,64
148374,note_on,54,0,1,,,,,,,,0,,,83,0
148396,note_on,0,0,8,,,,,,,,4,,,71,0
148396,note_on,76,0,8,,,,,,,,4,,,59,0
148402,note_on,82,0,10,,,,,,,,8,,,59,0
148402,note_on,82,0,11,,,,,,,,10,,,47,0
148402,note_on,82,0,12,,,,,,,,11,,,35,0
148560,note_on,158,0,12,,,,,,,,11,,,33,64
148560,note_on,0,0,8,,,,,,,,4,,,57,96
148560,note_on,164,0,8,,,,,,,,4,,,69,96
148560,note_on,186,0,1,,,,,,,,0,,,81,64
148560,note_on,158,0,11,,,,,,,,10,,,45,96
148560,note_on,158,0,10,,,,,,,,8,,,57,96
148622,note_on,62,0,1,,,,,,,,0,,,81,0
148634,note_on,74,0,11,,,,,,,,10,,,45,0
148634,note_on,74,0,12,,,,,,,,11,,,33,0
148640,note_on,80,0,8,,,,,,,,4,,,69,0
148646,note_on,6,0,8,,,,,,,,4,,,57,0
148646,note_on,86,0,10,,,,,,,,8,,,57,0
148800,note_on,154,0,8,,,,,,,,4,,,68,96
148800,note_on,0,0,8,,,,,,,,4,,,56,96
148800,note_on,166,0,12,,,,,,,,11,,,32,64
148800,note_on,154,0,10,,,,,,,,8,,,56,96
148800,note_on,178,0,1,,,,,,,,0,,,80,64
148800,note_on,166,0,11,,,,,,,,10,,,44,96
148852,note_on,52,0,8,,,,,,,,4,,,68,0
148864,note_on,64,0,1,,,,,,,,0,,,80,0
148870,note_on,70,0,11,,,,,,,,10,,,44,0
148870,note_on,70,0,12,,,,,,,,11,,,32,0
148874,note_on,74,0,10,,,,,,,,8,,,56,0
148876,note_on,24,0,8,,,,,,,,4,,,56,0
149040,note_on,166,0,10,,,,,,,,8,,,65,96
149040,note_on,164,0,8,,,,,,,,4,,,77,96
149040,note_on,170,0,11,,,,,,,,10,,,53,96
149040,note_on,0,0,8,,,,,,,,4,,,65,96
149040,note_on,176,0,1,,,,,,,,0,,,89,64
149040,note_on,170,0,12,,,,,,,,11,,,41,64
149382,note_on,342,0,8,,,,,,,,4,,,77,0
149386,note_on,4,0,8,,,,,,,,4,,,65,0
149400,note_on,360,0,10,,,,,,,,8,,,65,0
149402,note_on,362,0,12,,,,,,,,11,,,41,0
149402,note_on,362,0,11,,,,,,,,10,,,53,0
149414,note_on,374,0,1,,,,,,,,0,,,89,0
149520,note_on,0,0,8,,,,,,,,4,,,77,96
149520,note_on,120,0,10,,,,,,,,8,,,65,96
149520,note_on,118,0,12,,,,,,,,11,,,41,64
149520,note_on,134,0,8,,,,,,,,4,,,65,96
149520,note_on,118,0,11,,,,,,,,10,,,53,96
149520,note_on,106,0,1,,,,,,,,0,,,89,64
149584,note_on,64,0,1,,,,,,,,0,,,89,0
149590,note_on,70,0,8,,,,,,,,4,,,65,0
149594,note_on,74,0,11,,,,,,,,10,,,53,0
149594,note_on,74,0,12,,,,,,,,11,,,41,0
149600,note_on,10,0,8,,,,,,,,4,,,77,0
149604,note_on,84,0,10,,,,,,,,8,,,65,0
149760,note_on,166,0,12,,,,,,,,11,,,40,64
149760,note_on,0,0,8,,,,,,,,4,,,64,96
149760,note_on,160,0,8,,,,,,,,4,,,76,96
149760,note_on,176,0,1,,,,,,,,0,,,88,64
149760,note_on,156,0,10,,,,,,,,8,,,64,96
149760,note_on,166,0,11,,,,,,,,10,,,52,96
149826,note_on,66,0,1,,,,,,,,0,,,88,0
149832,note_on,72,0,12,,,,,,,,11,,,40,0
149832,note_on,72,0,11,,,,,,,,10,,,52,0
149834,note_on,74,0,10,,,,,,,,8,,,64,0
149834,note_on,74,0,8,,,,,,,,4,,,64,0
149836,note_on,2,0,8,,,,,,,,4,,,76,0
150000,note_on,174,0,1,,,,,,,,0,,,86,64
150000,note_on,168,0,12,,,,,,,,11,,,38,64
150000,note_on,166,0,10,,,,,,,,8,,,62,96
150000,note_on,164,0,8,,,,,,,,4,,,62,96
150000,note_on,168,0,11,,,,,,,,10,,,50,96
150000,note_on,0,0,8,,,,,,,,4,,,74,96
150060,note_on,60,0,1,,,,,,,,0,,,86,0
150072,note_on,72,0,8,,,,,,,,4,,,74,0
150076,note_on,76,0,11,,,,,,,,10,,,50,0
150076,note_on,4,0,8,,,,,,,,4,,,62,0
150076,note_on,76,0,12,,,,,,,,11,,,38,0
150080,note_on,80,0,10,,,,,,,,8,,,62,0
150240,note_on,164,0,11,,,,,,,,10,,,48,96
150240,note_on,164,0,8,,,,,,,,4,,,72,96
150240,note_on,164,0,12,,,,,,,,11,,,36,64
150240,note_on,0,0,8,,,,,,,,4,,,60,96
150240,note_on,180,0,1,,,,,,,,0,,,84,64
150240,note_on,160,0,10,,,,,,,,8,,,60,96
150292,note_on,52,0,1,,,,,,,,0,,,84,0
150312,note_on,72,0,8,,,,,,,,4,,,72,0
150316,note_on,4,0,8,,,,,,,,4,,,60,0
150316,note_on,76,0,10,,,,,,,,8,,,60,0
150322,note_on,82,0,11,,,,,,,,10,,,48,0
150322,note_on,82,0,12,,,,,,,,11,,,36,0
150480,note_on,188,0,1,,,,,,,,0,,,83,64
150480,note_on,0,0,8,,,,,,,,4,,,59,96
150480,note_on,164,0,8,,,,,,,,4,,,71,96
150480,note_on,158,0,12,,,,,,,,11,,,35,64
150480,note_on,158,0,11,,,,,,,,10,,,47,96
150480,note_on,164,0,10,,,,,,,,8,,,59,96
150532,note_on,52,0,1,,,,,,,,0,,,83,0
150554,note_on,74,0,8,,,,,,,,4,,,59,0
150560,note_on,6,0,8,,,,,,,,4,,,71,0
150564,note_on,84,0,12,,,,,,,,11,,,35,0
150564,note_on,84,0,10,,,,,,,,8,,,59,0
150564,note_on,84,0,11,,,,,,,,10,,,47,0
150720,note_on,156,0,10,,,,,,,,8,,,58,96
150720,note_on,160,0,8,,,,,,,,4,,,70,96
150720,note_on,188,0,1,,,,,,,,0,,,82,64
150720,note_on,0,0,8,,,,,,,,4,,,58,96
150720,note_on,156,0,11,,,,,,,,10,,,46,96
150720,note_on,156,0,12,,,,,,,,11,,,34,64
150762,note_on,42,0,8,,,,,,,,4,,,70,0
150776,note_on,56,0,11,,,,,,,,10,,,46,0
150776,note_on,56,0,12,,,,,,,,11,,,34,0
150786,note_on,66,0,1,,,,,,,,0,,,82,0
150794,note_on,32,0,8,,,,,,,,4,,,58,0
150800,note_on,80,0,10,,,,,,,,8,,,58,0
150960,note_on,184,0,12,,,,,,,,11,,,43,64
150960,note_on,174,0,1,,,,,,,,0,,,91,64
150960,note_on,184,0,11,,,,,,,,10,,,55,96
150960,note_on,166,0,8,,,,,,,,4,,,79,96
150960,note_on,160,0,10,,,,,,,,8,,,67,96
150960,note_on,0,0,8,,,,,,,,4,,,67,96
151294,note_on,334,0,8,,,,,,,,4,,,79,0
151306,note_on,346,0,10,,,,,,,,8,,,67,0
151310,note_on,350,0,1,,,,,,,,0,,,91,0
151336,note_on,376,0,11,,,,,,,,10,,,55,0
151336,note_on,376,0,12,,,,,,,,11,,,43,0
151350,note_on,56,0,8,,,,,,,,4,,,67,0
151440,note_on,134,0,10,,,,,,,,8,,,67,96
151440,note_on,104,0,12,,,,,,,,11,,,43,64
151440,note_on,0,0,8,,,,,,,,4,,,67,96
151440,note_on,90,0,8,,,,,,,,4,,,79,96
151440,note_on,130,0,1,,,,,,,,0,,,91,64
151440,note_on,104,0,11,,,,,,,,10,,,55,96
151502,note_on,62,0,1,,,,,,,,0,,,91,0
151502,note_on,62,0,8,,,,,,,,4,,,67,0
151514,note_on,74,0,12,,,,,,,,11,,,43,0
151514,note_on,74,0,11,,,,,,,,10,,,55,0
151518,note_on,16,0,8,,,,,,,,4,,,79,0
151522,note_on,82,0,10,,,,,,,,8,,,67,0
151680,note_on,158,0,10,,,,,,,,8,,,65,96
151680,note_on,166,0,11,,,,,,,,10,,,53,96
151680,note_on,178,0,1,,,,,,,,0,,,89,64
151680,note_on,0,0,8,,,,,,,,4,,,77,96
151680,note_on,162,0,8,,,,,,,,4,,,65,96
151680,note_on,166,0,12,,,,,,,,11,,,41,64
151740,note_on,60,0,8,,,,,,,,4,,,77,0
151742,note_on,62,0,1,,,,,,,,0,,,89,0
151752,note_on,72,0,11,,,,,,,,10,,,53,0
151752,note_on,72,0,12,,,,,,,,11,,,41,0
151754,note_on,14,0,8,,,,,,,,4,,,65,0
151756,note_on,76,0,10,,,,,,,,8,,,65,0
151920,note_on,168,0,12,,,,,,,,11,,,40,64
151920,note_on,166,0,8,,,,,,,,4,,,64,96
151920,note_on,0,0,8,,,,,,,,4,,,76,96
151920,note_on,178,0,1,,,,,,,,0,,,88,64
151920,note_on,168,0,11,,,,,,,,10,,,52,96
151920,note_on,164,0,10,,,,,,,,8,,,64,96
151976,note_on,56,0,1,,,,,,,,0,,,88,0
151992,note_on,72,0,12,,,,,,,,11,,,40,0
151992,note_on,72,0,11,,,,,,,,10,,,52,0
151994,note_on,74,0,8,,,,,,,,4,,,64,0
152000,note_on,6,0,8,,,,,,,,4,,,76,0
152006,note_on,86,0,10,,,,,,,,8,,,64,0
152160,note_on,160,0,8,,,,,,,,4,,,74,96
152160,note_on,168,0,11,,,,,,,,10,,,50,96
152160,note_on,154,0,10,,,,,,,,8,,,62,96
152160,note_on,184,0,1,,,,,,,,0,,,86,64
152160,note_on,168,0,12,,,,,,,,11,,,38,64
152160,note_on,0,0,8,,,,,,,,4,,,62,96
152216,note_on,56,0,1,,,,,,,,0,,,86,0
152230,note_on,70,0,8,,,,,,,,4,,,62,0
152230,note_on,70,0,11,,,,,,,,10,,,50,0
152230,note_on,70,0,12,,,,,,,,11,,,38,0
152232,note_on,2,0,8,,,,,,,,4,,,74,0
152242,note_on,82,0,10,,,,,,,,8,,,62,0
152400,note_on,0,0,8,,,,,,,,4,,,60,96
152400,note_on,184,0,1,,,,,,,,0,,,84,64
152400,note_on,158,0,10,,,,,,,,8,,,60,96
152400,note_on,168,0,8,,,,,,,,4,,,72,96
152400,note_on,170,0,12,,,,,,,,11,,,36,64
152400,note_on,170,0,11,,,,,,,,10,,,48,96
152452,note_on,52,0,1,,,,,,,,0,,,84,0
152472,note_on,72,0,12,,,,,,,,11,,,36,0
152472,note_on,72,0,11,,,,,,,,10,,,48,0
152472,note_on,72,0,8,,,,,,,,4,,,72,0
152480,note_on,8,0,8,,,,,,,,4,,,60,0
152482,note_on,82,0,10,,,,,,,,8,,,60,0
152640,note_on,160,0,8,,,,,,,,4,,,71,96
152640,note_on,0,0,8,,,,,,,,4,,,59,96
152640,note_on,168,0,12,,,,,,,,11,,,35,64
152640,note_on,168,0,11,,,,,,,,10,,,47,96
152640,note_on,188,0,1,,,,,,,,0,,,83,64
152640,note_on,158,0,10,,,,,,,,8,,,59,96
152694,note_on,54,0,1,,,,,,,,0,,,83,0
152710,note_on,70,0,11,,,,,,,,10,,,47,0
152710,note_on,70,0,12,,,,,,,,11,,,35,0
152716,note_on,76,0,8,,,,,,,,4,,,71,0
152720,note_on,4,0,8,,,,,,,,4,,,59,0
152726,note_on,86,0,10,,,,,,,,8,,,59,0
152880,note_on,11624,0,3,,,,,,,,2,,,69,48
152880,note_on,5940,0,2,,,,,,,,1,,,81,48
152880,note_on,0,0,4,,,,,,,,3,,,57,48
152880,note_on,5948,0,4,,,,,,,,3,,,69,48
152880,note_on,186,0,1,,,,,,,,0,,,93,48
153232,note_on,352,0,1,,,,,,,,0,,,93,0
153232,note_on,352,0,3,,,,,,,,2,,,69,0
153250,note_on,370,0,2,,,,,,,,1,,,81,0
153254,note_on,374,0,4,,,,,,,,3,,,69,0
153266,note_on,12,0,4,,,,,,,,3,,,57,0
153360,note_on,0,0,4,,,,,,,,3,,,67,48
153360,note_on,110,0,2,,,,,,,,1,,,79,48
153360,note_on,128,0,1,,,,,,,,0,,,91,48
153360,note_on,128,0,3,,,,,,,,2,,,67,48
153360,note_on,94,0,4,,,,,,,,3,,,55,48
153414,note_on,54,0,4,,,,,,,,3,,,67,0
153414,note_on,54,0,2,,,,,,,,1,,,79,0
153416,note_on,56,0,1,,,,,,,,0,,,91,0
153416,note_on,2,0,4,,,,,,,,3,,,55,0
153420,note_on,60,0,3,,,,,,,,2,,,67,0
153600,note_on,184,0,1,,,,,,,,0,,,89,48
153600,note_on,180,0,3,,,,,,,,2,,,65,48
153600,note_on,186,0,2,,,,,,,,1,,,77,48
153600,note_on,0,0,4,,,,,,,,3,,,53,48
153600,note_on,184,0,4,,,,,,,,3,,,65,48
153640,note_on,40,0,2,,,,,,,,1,,,77,0
153644,note_on,44,0,4,,,,,,,,3,,,65,0
153646,note_on,46,0,3,,,,,,,,2,,,65,0
153650,note_on,6,0,4,,,,,,,,3,,,53,0
153654,note_on,54,0,1,,,,,,,,0,,,89,0
153840,note_on,190,0,4,,,,,,,,3,,,64,48
153840,note_on,200,0,2,,,,,,,,1,,,76,48
153840,note_on,194,0,3,,,,,,,,2,,,64,48
153840,note_on,186,0,1,,,,,,,,0,,,88,48
153840,note_on,0,0,4,,,,,,,,3,,,52,48
153886,note_on,46,0,4,,,,,,,,3,,,52,0
153890,note_on,50,0,2,,,,,,,,1,,,76,0
153890,note_on,50,0,3,,,,,,,,2,,,64,0
153892,note_on,6,0,4,,,,,,,,3,,,64,0
153902,note_on,62,0,1,,,,,,,,0,,,88,0
154080,note_on,188,0,4,,,,,,,,3,,,62,48
154080,note_on,0,0,4,,,,,,,,3,,,50,48
154080,note_on,178,0,1,,,,,,,,0,,,86,48
154080,note_on,190,0,2,,,,,,,,1,,,74,48
154080,note_on,190,0,3,,,,,,,,2,,,62,48
154122,note_on,42,0,4,,,,,,,,3,,,62,0
154126,note_on,46,0,3,,,,,,,,2,,,62,0
154132,note_on,52,0,2,,,,,,,,1,,,74,0
154132,note_on,10,0,4,,,,,,,,3,,,50,0
154136,note_on,56,0,1,,,,,,,,0,,,86,0
154320,note_on,188,0,4,,,,,,,,3,,,48,48
154320,note_on,188,0,2,,,,,,,,1,,,72,48
154320,note_on,194,0,3,,,,,,,,2,,,60,48
154320,note_on,184,0,1,,,,,,,,0,,,84,48
154320,note_on,0,0,4,,,,,,,,3,,,60,48
154354,note_on,34,0,3,,,,,,,,2,,,60,0
154364,note_on,44,0,4,,,,,,,,3,,,60,0
154366,note_on,2,0,4,,,,,,,,3,,,48,0
154374,note_on,54,0,2,,,,,,,,1,,,72,0
154380,note_on,60,0,1,,,,,,,,0,,,84,0
154560,note_on,194,0,4,,,,,,,,3,,,59,48
154560,note_on,0,0,4,,,,,,,,3,,,47,48
154560,note_on,206,0,3,,,,,,,,2,,,59,48
154560,note_on,180,0,1,,,,,,,,0,,,83,48
154560,note_on,186,0,2,,,,,,,,1,,,71,48
154602,note_on,42,0,2,,,,,,,,1,,,71,0
154612,note_on,52,0,4,,,,,,,,3,,,59,0
154616,note_on,56,0,1,,,,,,,,0,,,83,0
154616,note_on,56,0,3,,,,,,,,2,,,59,0
154620,note_on,8,0,4,,,,,,,,3,,,47,0
154800,note_on,184,0,1,,,,,,,,0,,,81,48
154800,note_on,180,0,4,,,,,,,,3,,,45,48
154800,note_on,0,0,4,,,,,,,,3,,,57,48
154800,note_on,198,0,2,,,,,,,,1,,,69,48
154800,note_on,184,0,3,,,,,,,,2,,,69,48
154834,note_on,34,0,3,,,,,,,,2,,,69,0
154842,note_on,42,0,2,,,,,,,,1,,,69,0
154850,note_on,50,0,4,,,,,,,,3,,,57,0
154852,note_on,2,0,4,,,,,,,,3,,,45,0
154854,note_on,54,0,1,,,,,,,,0,,,81,0
155040,note_on,198,0,2,,,,,,,,1,,,67,48
155040,note_on,0,0,8,,,,,,,,4,,,65,58
155040,note_on,2330,0,12,,,,,,,,11,,,43,38
155040,note_on,2320,0,8,,,,,,,,4,,,62,58
155040,note_on,2314,0,10,,,,,,,,8,,,55,58
155040,note_on,206,0,3,,,,,,,,2,,,67,48
155040,note_on,188,0,4,,,,,,,,3,,,55,48
155040,note_on,0,0,4,,,,,,,,3,,,43,48
155040,note_on,186,0,1,,,,,,,,0,,,79,48
155040,note_on,2330,0,11,,,,,,,,10,,,55,58
155084,note_on,44,0,3,,,,,,,,2,,,67,0
155084,note_on,44,0,1,,,,,,,,0,,,79,0
155090,note_on,50,0,4,,,,,,,,3,,,55,0
155092,note_on,2,0,4,,,,,,,,3,,,43,0
155094,note_on,54,0,2,,,,,,,,1,,,67,0
155134,note_on,94,0,12,,,,,,,,11,,,43,0
155134,note_on,94,0,11,,,,,,,,10,,,55,0
155162,note_on,122,0,8,,,,,,,,4,,,62,0
155172,note_on,132,0,10,,,,,,,,8,,,55,0
155194,note_on,32,0,8,,,,,,,,4,,,65,0
155280,note_on,188,0,4,,,,,,,,3,,,54,48
155280,note_on,196,0,1,,,,,,,,0,,,78,48
155280,note_on,196,0,3,,,,,,,,2,,,66,48
155280,note_on,0,0,4,,,,,,,,3,,,42,48
155280,note_on,186,0,2,,,,,,,,1,,,66,48
155322,note_on,42,0,3,,,,,,,,2,,,66,0
155326,note_on,46,0,1,,,,,,,,0,,,78,0
155326,note_on,46,0,2,,,,,,,,1,,,66,0
155332,note_on,0,0,4,,,,,,,,3,,,54,0
155332,note_on,52,0,4,,,,,,,,3,,,42,0
155520,note_on,194,0,1,,,,,,,,0,,,79,48
155520,note_on,198,0,3,,,,,,,,2,,,67,48
155520,note_on,188,0,4,,,,,,,,3,,,43,48
155520,note_on,0,0,4,,,,,,,,3,,,55,48
155520,note_on,194,0,2,,,,,,,,1,,,67,48
155570,note_on,50,0,1,,,,,,,,0,,,79,0
155572,note_on,52,0,4,,,,,,,,3,,,43,0
155576,note_on,4,0,4,,,,,,,,3,,,55,0
155576,note_on,56,0,3,,,,,,,,2,,,67,0
155580,note_on,60,0,2,,,,,,,,1,,,67,0
155760,note_on,0,0,4,,,,,,,,3,,,45,48
155760,note_on,184,0,4,,,,,,,,3,,,57,48
155760,note_on,190,0,1,,,,,,,,0,,,81,48
155760,note_on,184,0,3,,,,,,,,2,,,69,48
155760,note_on,180,0,2,,,,,,,,1,,,69,48
155806,note_on,46,0,1,,,,,,,,0,,,81,0
155810,note_on,50,0,3,,,,,,,,2,,,69,0
155810,note_on,50,0,2,,,,,,,,1,,,69,0
155814,note_on,54,0,4,,,,,,,,3,,,57,0
155816,note_on,2,0,4,,,,,,,,3,,,45,0
156000,note_on,866,0,12,,,,,,,,11,,,43,38
156000,note_on,190,0,3,,,,,,,,2,,,71,48
156000,note_on,0,0,8,,,,,,,,4,,,62,58
156000,note_on,194,0,1,,,,,,,,0,,,83,48
156000,note_on,866,0,11,,,,,,,,10,,,55,58
156000,note_on,190,0,2,,,,,,,,1,,,71,48
156000,note_on,184,0,4,,,,,,,,3,,,59,48
156000,note_on,806,0,8,,,,,,,,4,,,65,58
156000,note_on,828,0,10,,,,,,,,8,,,55,58
156000,note_on,0,0,4,,,,,,,,3,,,47,48
156052,note_on,52,0,3,,,,,,,,2,,,71,0
156052,note_on,52,0,4,,,,,,,,3,,,59,0
156052,note_on,52,0,2,,,,,,,,1,,,71,0
156056,note_on,4,0,4,,,,,,,,3,,,47,0
156060,note_on,60,0,1,,,,,,,,0,,,83,0
156092,note_on,92,0,12,,,,,,,,11,,,43,0
156092,note_on,92,0,11,,,,,,,,10,,,55,0
156134,note_on,134,0,8,,,,,,,,4,,,62,0
156186,note_on,52,0,8,,,,,,,,4,,,65,0
156212,note_on,212,0,10,,,,,,,,8,,,55,0
156240,note_on,188,0,3,,,,,,,,2,,,72,48
156240,note_on,180,0,1,,,,,,,,0,,,84,48
156240,note_on,0,0,4,,,,,,,,3,,,48,48
156240,note_on,184,0,4,,,,,,,,3,,,60,48
156240,note_on,188,0,2,,,,,,,,1,,,72,48
156292,note_on,52,0,4,,,,,,,,3,,,60,0
156292,note_on,52,0,2,,,,,,,,1,,,72,0
156294,note_on,54,0,3,,,,,,,,2,,,72,0
156302,note_on,10,0,4,,,,,,,,3,,,48,0
156306,note_on,66,0,1,,,,,,,,0,,,84,0
156480,note_on,174,0,1,,,,,,,,0,,,86,64
156480,note_on,178,0,4,,,,,,,,3,,,62,64
156480,note_on,0,0,4,,,,,,,,3,,,50,64
156480,note_on,186,0,3,,,,,,,,2,,,74,64
156480,note_on,188,0,2,,,,,,,,1,,,74,64
156526,note_on,46,0,4,,,,,,,,3,,,62,0
156540,note_on,60,0,3,,,,,,,,2,,,74,0
156542,note_on,62,0,2,,,,,,,,1,,,74,0
156546,note_on,20,0,4,,,,,,,,3,,,50,0
156554,note_on,74,0,1,,,,,,,,0,,,86,0
156720,note_on,178,0,2,,,,,,,,1,,,72,64
156720,note_on,180,0,3,,,,,,,,2,,,72,64
156720,note_on,0,0,4,,,,,,,,3,,,60,64
156720,note_on,174,0,4,,,,,,,,3,,,48,64
156720,note_on,166,0,1,,,,,,,,0,,,84,64
156770,note_on,50,0,4,,,,,,,,3,,,60,0
156772,note_on,52,0,2,,,,,,,,1,,,72,0
156782,note_on,12,0,4,,,,,,,,3,,,48,0
156782,note_on,62,0,3,,,,,,,,2,,,72,0
156786,note_on,66,0,1,,,,,,,,0,,,84,0
156960,note_on,178,0,3,,,,,,,,2,,,71,64
156960,note_on,748,0,10,,,,,,,,8,,,55,58
156960,note_on,178,0,4,,,,,,,,3,,,59,64
156960,note_on,0,0,4,,,,,,,,3,,,47,64
156960,note_on,174,0,1,,,,,,,,0,,,83,64
156960,note_on,868,0,11,,,,,,,,10,,,55,58
156960,note_on,0,0,8,,,,,,,,4,,,65,58
156960,note_on,868,0,12,,,,,,,,11,,,43,38
156960,note_on,774,0,8,,,,,,,,4,,,62,58
156960,note_on,188,0,2,,,,,,,,1,,,71,64
157006,note_on,46,0,2,,,,,,,,1,,,71,0
157014,note_on,54,0,4,,,,,,,,3,,,59,0
157016,note_on,56,0,3,,,,,,,,2,,,71,0
157020,note_on,60,0,1,,,,,,,,0,,,83,0
157022,note_on,8,0,4,,,,,,,,3,,,47,0
157060,note_on,100,0,12,,,,,,,,11,,,43,0
157060,note_on,100,0,11,,,,,,,,10,,,55,0
157142,note_on,182,0,8,,,,,,,,4,,,62,0
157150,note_on,8,0,8,,,,,,,,4,,,65,0
157176,note_on,216,0,10,,,,,,,,8,,,55,0
157200,note_on,0,0,4,,,,,,,,3,,,45,64
157200,note_on,180,0,1,,,,,,,,0,,,81,64
157200,note_on,184,0,3,,,,,,,,2,,,69,64
157200,note_on,194,0,2,,,,,,,,1,,,69,64
157200,note_on,178,0,4,,,,,,,,3,,,57,64
157242,note_on,42,0,4,,,,,,,,3,,,57,0
157252,note_on,52,0,2,,,,,,,,1,,,69,0
157260,note_on,60,0,1,,,,,,,,0,,,81,0
157260,note_on,60,0,3,,,,,,,,2,,,69,0
157272,note_on,30,0,4,,,,,,,,3,,,45,0
157440,note_on,168,0,4,,,,,,,,3,,,55,64
157440,note_on,180,0,1,,,,,,,,0,,,79,64
157440,note_on,0,0,4,,,,,,,,3,,,43,64
157440,note_on,180,0,3,,,,,,,,2,,,67,64
157440,note_on,188,0,2,,,,,,,,1,,,67,64
157502,note_on,0,0,4,,,,,,,,3,,,55,0
157502,note_on,62,0,4,,,,,,,,3,,,43,0
157502,note_on,62,0,2,,,,,,,,1,,,67,0
157506,note_on,66,0,1,,,,,,,,0,,,79,0
157512,note_on,72,0,3,,,,,,,,2,,,67,0
157680,note_on,168,0,3,,,,,,,,2,,,69,64
157680,note_on,0,0,4,,,,,,,,3,,,57,64
157680,note_on,178,0,4,,,,,,,,3,,,45,64
157680,note_on,178,0,2,,,,,,,,1,,,69,64
157680,note_on,174,0,1,,,,,,,,0,,,81,64
157734,note_on,54,0,3,,,,,,,,2,,,69,0
157734,note_on,54,0,2,,,,,,,,1,,,69,0
157736,note_on,56,0,4,,,,,,,,3,,,57,0
157742,note_on,6,0,4,,,,,,,,3,,,45,0
157746,note_on,66,0,1,,,,,,,,0,,,81,0
157920,note_on,178,0,4,,,,,,,,3,,,59,64
157920,note_on,770,0,8,,,,,,,,4,,,62,58
157920,note_on,174,0,1,,,,,,,,0,,,83,64
157920,note_on,860,0,12,,,,,,,,11,,,43,38
157920,note_on,744,0,10,,,,,,,,8,,,55,58
157920,note_on,0,0,4,,,,,,,,3,,,47,64
157920,note_on,860,0,11,,,,,,,,10,,,55,58
157920,note_on,0,0,8,,,,,,,,4,,,65,58
157920,note_on,186,0,3,,,,,,,,2,,,71,64
157920,note_on,186,0,2,,,,,,,,1,,,71,64
157970,note_on,50,0,2,,,,,,,,1,,,71,0
157974,note_on,54,0,4,,,,,,,,3,,,59,0
157976,note_on,56,0,1,,,,,,,,0,,,83,0
157980,note_on,60,0,3,,,,,,,,2,,,71,0
157986,note_on,12,0,4,,,,,,,,3,,,47,0
158016,note_on,96,0,11,,,,,,,,10,,,55,0
158016,note_on,96,0,12,,,,,,,,11,,,43,0
158074,note_on,154,0,10,,,,,,,,8,,,55,0
158080,note_on,160,0,8,,,,,,,,4,,,62,0
158120,note_on,40,0,8,,,,,,,,4,,,65,0
158160,note_on,0,0,4,,,,,,,,3,,,48,64
158160,note_on,190,0,2,,,,,,,,1,,,72,64
158160,note_on,184,0,1,,,,,,,,0,,,84,64
158160,note_on,174,0,4,,,,,,,,3,,,60,64
158160,note_on,180,0,3,,,,,,,,2,,,72,64
158214,note_on,54,0,4,,,,,,,,3,,,60,0
158220,note_on,60,0,1,,,,,,,,0,,,84,0
158222,note_on,62,0,2,,,,,,,,1,,,72,0
158222,note_on,62,0,3,,,,,,,,2,,,72,0
158226,note_on,12,0,4,,,,,,,,3,,,48,0
158400,note_on,178,0,3,,,,,,,,2,,,74,64
158400,note_on,180,0,1,,,,,,,,0,,,86,64
158400,note_on,178,0,2,,,,,,,,1,,,74,64
158400,note_on,174,0,4,,,,,,,,3,,,62,64
158400,note_on,0,0,4,,,,,,,,3,,,50,64
158400,note_on,17176,0,5,,,,,,,,5,,,43,38
158400,note_on,0,0,5,,,,,,,,5,,,55,38
158454,note_on,54,0,4,,,,,,,,3,,,62,0
158462,note_on,8,0,4,,,,,,,,3,,,50,0
158466,note_on,66,0,2,,,,,,,,1,,,74,0
158466,note_on,66,0,3,,,,,,,,2,,,74,0
158472,note_on,72,0,1,,,,,,,,0,,,86,0
158640,note_on,0,0,4,,,,,,,,3,,,60,64
158640,note_on,174,0,2,,,,,,,,1,,,72,64
158640,note_on,174,0,3,,,,,,,,2,,,72,64
158640,note_on,168,0,1,,,,,,,,0,,,84,64
158640,note_on,178,0,4,,,,,,,,3,,,48,64
158690,note_on,50,0,2,,,,,,,,1,,,72,0
158692,note_on,52,0,3,,,,,,,,2,,,72,0
158694,note_on,54,0,4,,,,,,,,3,,,60,0
158700,note_on,60,0,1,,,,,,,,0,,,84,0
158706,note_on,12,0,4,,,,,,,,3,,,48,0
158880,note_on,190,0,2,,,,,,,,1,,,71,64
158880,note_on,0,0,4,,,,,,,,3,,,47,64
158880,note_on,180,0,1,,,,,,,,0,,,83,64
158880,note_on,188,0,3,,,,,,,,2,,,71,64
158880,note_on,174,0,4,,,,,,,,3,,,59,64
158926,note_on,46,0,2,,,,,,,,1,,,71,0
158932,note_on,52,0,4,,,,,,,,3,,,59,0
158936,note_on,56,0,3,,,,,,,,2,,,71,0
158946,note_on,14,0,4,,,,,,,,3,,,47,0
158950,note_on,70,0,1,,,,,,,,0,,,83,0
159120,note_on,0,0,4,,,,,,,,3,,,57,64
159120,note_on,174,0,4,,,,,,,,3,,,45,64
159120,note_on,194,0,2,,,,,,,,1,,,81,64
159120,note_on,0,0,2,,,,,,,,1,,,69,64
159120,note_on,184,0,3,,,,,,,,2,,,69,64
159120,note_on,170,0,1,,,,,,,,0,,,81,64
159170,note_on,50,0,4,,,,,,,,3,,,57,0
159172,note_on,52,0,2,,,,,,,,1,,,81,0
159174,note_on,2,0,2,,,,,,,,1,,,69,0
159180,note_on,60,0,3,,,,,,,,2,,,69,0
159182,note_on,12,0,4,,,,,,,,3,,,45,0
159192,note_on,72,0,1,,,,,,,,0,,,81,0
159360,note_on,0,0,2,,,,,,,,1,,,67,64
159360,note_on,186,0,2,,,,,,,,1,,,79,64
159360,note_on,0,0,4,,,,,,,,3,,,55,64
159360,note_on,1240,0,8,,,,,,,,4,,,59,80
159360,note_on,180,0,3,,,,,,,,2,,,67,64
159360,note_on,168,0,1,,,,,,,,0,,,79,64
159360,note_on,178,0,4,,,,,,,,3,,,43,64
159404,note_on,44,0,2,,,,,,,,1,,,67,0
159404,note_on,0,0,2,,,,,,,,1,,,79,0
159414,note_on,54,0,1,,,,,,,,0,,,79,0
159416,note_on,56,0,4,,,,,,,,3,,,43,0
159434,note_on,18,0,4,,,,,,,,3,,,55,0
159434,note_on,74,0,3,,,,,,,,2,,,67,0
159440,note_on,0,0,8,,,,,,,,4,,,60,80
159440,note_on,80,0,8,,,,,,,,4,,,59,0
159520,note_on,0,0,8,,,,,,,,4,,,59,80
159520,note_on,80,0,8,,,,,,,,4,,,60,0
159600,note_on,0,0,8,,,,,,,,4,,,60,80
159600,note_on,186,0,1,,,,,,,,0,,,89,64
159600,note_on,0,0,4,,,,,,,,3,,,41,64
159600,note_on,166,0,4,,,,,,,,3,,,53,64
159600,note_on,0,0,2,,,,,,,,1,,,65,64
159600,note_on,166,0,3,,,,,,,,2,,,65,64
159600,note_on,80,0,8,,,,,,,,4,,,59,0
159600,note_on,196,0,2,,,,,,,,1,,,77,64
159634,note_on,34,0,2,,,,,,,,1,,,77,0
159640,note_on,6,0,2,,,,,,,,1,,,65,0
159652,note_on,52,0,4,,,,,,,,3,,,53,0
159654,note_on,2,0,4,,,,,,,,3,,,41,0
159660,note_on,60,0,3,,,,,,,,2,,,65,0
159662,note_on,62,0,1,,,,,,,,0,,,89,0
159680,note_on,80,0,8,,,,,,,,4,,,60,0
159680,note_on,0,0,8,,,,,,,,4,,,59,80
159760,note_on,80,0,8,,,,,,,,4,,,59,0
159760,note_on,0,0,8,,,,,,,,4,,,60,80
159840,note_on,200,0,2,,,,,,,,1,,,64,64
159840,note_on,0,0,4,,,,,,,,3,,,40,64
159840,note_on,186,0,4,,,,,,,,3,,,52,64
159840,note_on,0,0,8,,,,,,,,4,,,59,80
159840,note_on,0,0,2,,,,,,,,1,,,76,64
159840,note_on,80,0,8,,,,,,,,4,,,60,0
159840,note_on,178,0,1,,,,,,,,0,,,88,64
159840,note_on,180,0,3,,,,,,,,2,,,64,64
159880,note_on,40,0,2,,,,,,,,1,,,64,0
159890,note_on,10,0,2,,,,,,,,1,,,76,0
159894,note_on,54,0,4,,,,,,,,3,,,52,0
159896,note_on,2,0,4,,,,,,,,3,,,40,0
159896,note_on,56,0,1,,,,,,,,0,,,88,0
159920,note_on,0,0,8,,,,,,,,4,,,60,80
159920,note_on,80,0,8,,,,,,,,4,,,59,0
159920,note_on,80,0,3,,,,,,,,2,,,64,0
160000,note_on,80,0,8,,,,,,,,4,,,60,0
160000,note_on,0,0,8,,,,,,,,4,,,59,80
160080,note_on,184,0,4,,,,,,,,3,,,38,64
160080,note_on,190,0,2,,,,,,,,1,,,74,64
160080,note_on,0,0,2,,,,,,,,1,,,62,64
160080,note_on,160,0,3,,,,,,,,2,,,62,64
160080,note_on,80,0,8,,,,,,,,4,,,59,0
160080,note_on,0,0,4,,,,,,,,3,,,50,64
160080,note_on,184,0,1,,,,,,,,0,,,86,64
160080,note_on,0,0,8,,,,,,,,4,,,60,80
160114,note_on,34,0,2,,,,,,,,1,,,74,0
160122,note_on,8,0,2,,,,,,,,1,,,62,0
160134,note_on,0,0,4,,,,,,,,3,,,38,0
160134,note_on,54,0,4,,,,,,,,3,,,50,0
160134,note_on,54,0,3,,,,,,,,2,,,62,0
160136,note_on,56,0,1,,,,,,,,0,,,86,0
160160,note_on,80,0,8,,,,,,,,4,,,60,0
160160,note_on,0,0,8,,,,,,,,4,,,57,80
160224,note_on,1824,0,5,,,,,,,,5,,,43,0
160240,note_on,0,0,8,,,,,,,,4,,,59,80
160240,note_on,16,0,5,,,,,,,,5,,,55,0
160240,note_on,80,0,8,,,,,,,,4,,,57,0
160320,note_on,2304,0,11,,,,,,,,10,,,48,96
160320,note_on,80,0,8,,,,,,,,4,,,59,0
160320,note_on,2304,0,12,,,,,,,,11,,,36,64
160320,control_change,0,0,8,,,,,,,,4,7,110,,
160320,note_on,0,0,8,,,,,,,,4,,,55,96
160320,note_on,0,0,2,,,,,,,,1,,,60,64
160320,note_on,0,0,8,,,,,,,,4,,,60,96
160320,note_on,0,0,4,,,,,,,,3,,,36,64
160320,note_on,186,0,4,,,,,,,,3,,,48,64
160320,note_on,186,0,3,,,,,,,,2,,,60,64
160320,note_on,2246,0,10,,,,,,,,8,,,52,96
160320,note_on,0,0,5,,,,,,,,5,,,48,64
160320,note_on,80,0,5,,,,,,,,5,,,60,64
160320,note_on,184,0,1,,,,,,,,0,,,84,64
160320,note_on,198,0,2,,,,,,,,1,,,72,64
160344,note_on,24,0,2,,,,,,,,1,,,60,0
160360,note_on,16,0,2,,,,,,,,1,,,72,0
160366,note_on,0,0,5,,,,,,,,5,,,60,0
160366,note_on,46,0,5,,,,,,,,5,,,48,0
160376,note_on,56,0,1,,,,,,,,0,,,84,0
160396,note_on,76,0,4,,,,,,,,3,,,48,0
160404,note_on,84,0,8,,,,,,,,4,,,60,0
160404,note_on,84,0,12,,,,,,,,11,,,36,0
160404,note_on,84,0,11,,,,,,,,10,,,48,0
160410,note_on,6,0,8,,,,,,,,4,,,55,0
160440,note_on,30,0,8,,,,,,,,4,,,55,96
160440,note_on,120,0,10,,,,,,,,8,,,52,0
160446,note_on,126,0,3,,,,,,,,2,,,60,0
160450,note_on,54,0,4,,,,,,,,3,,,36,0
160524,note_on,84,0,8,,,,,,,,4,,,55,0
160560,note_on,36,0,8,,,,,,,,4,,,57,96
160644,note_on,84,0,8,,,,,,,,4,,,57,0
160680,note_on,36,0,8,,,,,,,,4,,,59,96
160764,note_on,84,0,8,,,,,,,,4,,,59,0
160800,note_on,36,0,8,,,,,,,,4,,,60,96
160884,note_on,84,0,8,,,,,,,,4,,,60,0
160920,note_on,36,0,8,,,,,,,,4,,,62,96
161004,note_on,84,0,8,,,,,,,,4,,,62,0
161040,note_on,36,0,8,,,,,,,,4,,,64,96
161124,note_on,84,0,8,,,,,,,,4,,,64,0
161160,note_on,36,0,8,,,,,,,,4,,,62,96
161244,note_on,84,0,8,,,,,,,,4,,,62,0
161280,note_on,0,0,8,,,,,,,,4,,,55,96
161280,note_on,36,0,8,,,,,,,,4,,,60,96
161280,note_on,876,0,11,,,,,,,,10,,,48,96
161280,note_on,876,0,12,,,,,,,,11,,,36,64
161280,note_on,840,0,10,,,,,,,,8,,,52,96
161366,note_on,86,0,11,,,,,,,,10,,,48,0
161366,note_on,86,0,12,,,,,,,,11,,,36,0
161394,note_on,0,0,8,,,,,,,,4,,,60,0
161394,note_on,114,0,8,,,,,,,,4,,,55,0
161400,note_on,120,0,10,,,,,,,,8,,,52,0
161400,note_on,6,0,8,,,,,,,,4,,,55,96
161484,note_on,84,0,8,,,,,,,,4,,,55,0
161520,note_on,36,0,8,,,,,,,,4,,,57,96
161604,note_on,84,0,8,,,,,,,,4,,,57,0
161640,note_on,36,0,8,,,,,,,,4,,,59,96
161724,note_on,84,0,8,,,,,,,,4,,,59,0
161760,note_on,36,0,8,,,,,,,,4,,,60,96
161844,note_on,84,0,8,,,,,,,,4,,,60,0
161880,note_on,36,0,8,,,,,,,,4,,,62,96
161964,note_on,84,0,8,,,,,,,,4,,,62,0
162000,note_on,36,0,8,,,,,,,,4,,,64,96
162084,note_on,84,0,8,,,,,,,,4,,,64,0
162120,note_on,36,0,8,,,,,,,,4,,,62,80
162216,note_on,96,0,8,,,,,,,,4,,,62,0
162240,note_on,874,0,12,,,,,,,,11,,,36,64
162240,note_on,840,0,10,,,,,,,,8,,,52,96
162240,note_on,874,0,11,,,,,,,,10,,,48,96
162240,note_on,24,0,8,,,,,,,,4,,,60,96
162240,note_on,0,0,8,,,,,,,,4,,,55,96
162332,note_on,92,0,12,,,,,,,,11,,,36,0
162332,note_on,92,0,11,,,,,,,,10,,,48,0
162354,note_on,114,0,8,,,,,,,,4,,,55,0
162354,note_on,0,0,8,,,,,,,,4,,,60,0
162360,note_on,6,0,8,,,,,,,,4,,,55,96
162360,note_on,120,0,10,,,,,,,,8,,,52,0
162444,note_on,84,0,8,,,,,,,,4,,,55,0
162480,note_on,36,0,8,,,,,,,,4,,,57,96
162564,note_on,84,0,8,,,,,,,,4,,,57,0
162600,note_on,36,0,8,,,,,,,,4,,,59,96
162684,note_on,84,0,8,,,,,,,,4,,,59,0
162720,note_on,36,0,8,,,,,,,,4,,,60,96
162720,note_on,0,0,8,,,,,,,,4,,,55,96
162720,note_on,388,0,11,,,,,,,,10,,,48,96
162720,note_on,360,0,10,,,,,,,,8,,,52,96
162720,note_on,388,0,12,,,,,,,,11,,,36,64
162804,note_on,84,0,8,,,,,,,,4,,,55,0
162804,note_on,0,0,8,,,,,,,,4,,,60,0
162820,note_on,100,0,11,,,,,,,,10,,,48,0
162820,note_on,100,0,12,,,,,,,,11,,,36,0
162840,note_on,120,0,10,,,,,,,,8,,,52,0
162840,note_on,36,0,8,,,,,,,,4,,,62,96
162924,note_on,84,0,8,,,,,,,,4,,,62,0
162960,note_on,36,0,8,,,,,,,,4,,,64,96
163044,note_on,84,0,8,,,,,,,,4,,,64,0
163080,note_on,36,0,8,,,,,,,,4,,,65,80
163176,note_on,96,0,8,,,,,,,,4,,,65,0
163200,note_on,380,0,11,,,,,,,,10,,,48,96
163200,note_on,360,0,10,,,,,,,,8,,,52,100
163200,note_on,380,0,12,,,,,,,,11,,,36,64
163200,note_on,0,0,8,,,,,,,,4,,,55,96
163200,note_on,24,0,8,,,,,,,,4,,,67,96
163284,note_on,84,0,8,,,,,,,,4,,,67,0
163294,note_on,94,0,12,,,,,,,,11,,,36,0
163294,note_on,94,0,11,,,,,,,,10,,,48,0
163300,note_on,100,0,10,,,,,,,,8,,,52,0
163314,note_on,30,0,8,,,,,,,,4,,,55,0
163320,note_on,6,0,8,,,,,,,,4,,,66,96
163404,note_on,84,0,8,,,,,,,,4,,,66,0
163440,note_on,36,0,8,,,,,,,,4,,,69,96
163524,note_on,84,0,8,,,,,,,,4,,,69,0
163560,note_on,36,0,8,,,,,,,,4,,,67,96
163644,note_on,84,0,8,,,,,,,,4,,,67,0
163680,note_on,36,0,8,,,,,,,,4,,,65,96
163764,note_on,84,0,8,,,,,,,,4,,,65,0
163800,note_on,36,0,8,,,,,,,,4,,,64,96
163884,note_on,84,0,8,,,,,,,,4,,,64,0
163920,note_on,36,0,8,,,,,,,,4,,,62,96
164004,note_on,84,0,8,,,,,,,,4,,,62,0
164040,note_on,36,0,8,,,,,,,,4,,,60,96
164124,note_on,84,0,8,,,,,,,,4,,,60,0
164160,note_on,866,0,12,,,,,,,,11,,,36,64
164160,note_on,860,0,10,,,,,,,,8,,,53,96
164160,note_on,866,0,11,,,,,,,,10,,,48,96
164160,note_on,0,0,8,,,,,,,,4,,,57,96
164160,note_on,36,0,8,,,,,,,,4,,,62,96
164250,note_on,90,0,12,,,,,,,,11,,,36,0
164250,note_on,90,0,11,,,,,,,,10,,,48,0
164274,note_on,114,0,8,,,,,,,,4,,,57,0
164274,note_on,0,0,8,,,,,,,,4,,,62,0
164280,note_on,6,0,8,,,,,,,,4,,,57,80
164282,note_on,122,0,10,,,,,,,,8,,,53,0
164376,note_on,96,0,8,,,,,,,,4,,,57,0
164400,note_on,24,0,8,,,,,,,,4,,,59,96
164484,note_on,84,0,8,,,,,,,,4,,,59,0
164520,note_on,36,0,8,,,,,,,,4,,,61,96
164604,note_on,84,0,8,,,,,,,,4,,,61,0
164640,note_on,36,0,8,,,,,,,,4,,,62,96
164724,note_on,84,0,8,,,,,,,,4,,,62,0
164760,note_on,36,0,8,,,,,,,,4,,,64,96
164844,note_on,84,0,8,,,,,,,,4,,,64,0
164880,note_on,36,0,8,,,,,,,,4,,,65,96
164964,note_on,84,0,8,,,,,,,,4,,,65,0
165000,note_on,36,0,8,,,,,,,,4,,,64,96
165084,note_on,84,0,8,,,,,,,,4,,,64,0
165120,note_on,870,0,12,,,,,,,,11,,,36,64
165120,note_on,838,0,10,,,,,,,,8,,,53,96
165120,note_on,36,0,8,,,,,,,,4,,,62,96
165120,note_on,0,0,8,,,,,,,,4,,,57,96
165120,note_on,870,0,11,,,,,,,,10,,,48,96
165210,note_on,90,0,12,,,,,,,,11,,,36,0
165210,note_on,90,0,11,,,,,,,,10,,,48,0
165234,note_on,114,0,8,,,,,,,,4,,,57,0
165234,note_on,0,0,8,,,,,,,,4,,,62,0
165240,note_on,6,0,8,,,,,,,,4,,,57,80
165264,note_on,144,0,10,,,,,,,,8,,,53,0
165336,note_on,96,0,8,,,,,,,,4,,,57,0
165360,note_on,24,0,8,,,,,,,,4,,,59,96
165444,note_on,84,0,8,,,,,,,,4,,,59,0
165480,note_on,36,0,8,,,,,,,,4,,,61,96
165564,note_on,84,0,8,,,,,,,,4,,,61,0
165600,note_on,36,0,8,,,,,,,,4,,,62,96
165684,note_on,84,0,8,,,,,,,,4,,,62,0
165720,note_on,36,0,8,,,,,,,,4,,,64,96
165804,note_on,84,0,8,,,,,,,,4,,,64,0
165840,note_on,36,0,8,,,,,,,,4,,,65,96
165924,note_on,84,0,8,,,,,,,,4,,,65,0
165960,note_on,36,0,8,,,,,,,,4,,,64,96
166044,note_on,84,0,8,,,,,,,,4,,,64,0
166080,note_on,870,0,11,,,,,,,,10,,,47,96
166080,note_on,816,0,10,,,,,,,,8,,,53,96
166080,note_on,36,0,8,,,,,,,,4,,,62,96
166080,note_on,0,0,8,,,,,,,,4,,,55,96
166080,note_on,870,0,12,,,,,,,,11,,,35,64
166164,note_on,84,0,11,,,,,,,,10,,,47,0
166164,note_on,84,0,12,,,,,,,,11,,,35,0
166182,note_on,0,0,8,,,,,,,,4,,,62,0
166182,note_on,102,0,8,,,,,,,,4,,,55,0
166196,note_on,116,0,10,,,,,,,,8,,,53,0
166200,note_on,18,0,8,,,,,,,,4,,,62,96
166284,note_on,84,0,8,,,,,,,,4,,,62,0
166320,note_on,36,0,8,,,,,,,,4,,,64,96
166404,note_on,84,0,8,,,,,,,,4,,,64,0
166440,note_on,36,0,8,,,,,,,,4,,,65,96
166524,note_on,84,0,8,,,,,,,,4,,,65,0
166560,note_on,396,0,12,,,,,,,,11,,,35,64
166560,note_on,0,0,8,,,,,,,,4,,,62,96
166560,note_on,0,0,8,,,,,,,,4,,,55,96
166560,note_on,396,0,11,,,,,,,,10,,,47,96
166560,note_on,36,0,8,,,,,,,,4,,,67,96
166560,note_on,364,0,10,,,,,,,,8,,,53,96
166644,note_on,84,0,8,,,,,,,,4,,,67,0
166646,note_on,86,0,11,,,,,,,,10,,,47,0
166646,note_on,86,0,12,,,,,,,,11,,,35,0
166660,note_on,16,0,8,,,,,,,,4,,,55,0
166666,note_on,6,0,8,,,,,,,,4,,,62,0
166672,note_on,112,0,10,,,,,,,,8,,,53,0
166680,note_on,14,0,8,,,,,,,,4,,,69,96
166764,note_on,84,0,8,,,,,,,,4,,,69,0
166800,note_on,36,0,8,,,,,,,,4,,,71,96
166884,note_on,84,0,8,,,,,,,,4,,,71,0
166920,note_on,36,0,8,,,,,,,,4,,,72,96
167004,note_on,84,0,8,,,,,,,,4,,,72,0
167040,note_on,0,0,8,,,,,,,,4,,,55,96
167040,note_on,0,0,8,,,,,,,,4,,,62,96
167040,note_on,368,0,10,,,,,,,,8,,,53,96
167040,note_on,394,0,11,,,,,,,,10,,,47,96
167040,note_on,394,0,12,,,,,,,,11,,,35,64
167040,note_on,36,0,8,,,,,,,,4,,,74,96
167124,note_on,84,0,8,,,,,,,,4,,,74,0
167130,note_on,6,0,8,,,,,,,,4,,,55,0
167134,note_on,94,0,11,,,,,,,,10,,,47,0
167134,note_on,94,0,12,,,,,,,,11,,,35,0
167134,note_on,4,0,8,,,,,,,,4,,,62,0
167156,note_on,116,0,10,,,,,,,,8,,,53,0
167160,note_on,26,0,8,,,,,,,,4,,,76,96
167244,note_on,84,0,8,,,,,,,,4,,,76,0
167280,note_on,36,0,8,,,,,,,,4,,,74,96
167364,note_on,84,0,8,,,,,,,,4,,,74,0
167400,note_on,36,0,8,,,,,,,,4,,,72,96
167484,note_on,84,0,8,,,,,,,,4,,,72,0
167520,note_on,36,0,8,,,,,,,,4,,,71,96
167604,note_on,84,0,8,,,,,,,,4,,,71,0
167640,note_on,36,0,8,,,,,,,,4,,,69,96
167724,note_on,84,0,8,,,,,,,,4,,,69,0
167760,note_on,36,0,8,,,,,,,,4,,,67,96
167844,note_on,84,0,8,,,,,,,,4,,,67,0
167880,note_on,36,0,8,,,,,,,,4,,,65,96
167964,note_on,84,0,8,,,,,,,,4,,,65,0
168000,note_on,7624,0,1,,,,,,,,0,,,84,64
168000,note_on,0,0,3,,,,,,,,2,,,63,64
168000,note_on,866,0,11,,,,,,,,10,,,48,96
168000,note_on,0,0,5,,,,,,,,5,,,60,64
168000,note_on,7634,0,5,,,,,,,,5,,,48,64
168000,note_on,866,0,12,,,,,,,,11,,,36,64
168000,note_on,7554,0,3,,,,,,,,2,,,67,64
168000,note_on,7640,0,2,,,,,,,,1,,,72,64
168000,note_on,0,0,1,,,,,,,,0,,,79,64
168000,note_on,0,0,2,,,,,,,,1,,,75,64
168000,control_change,36,0,8,,,,,,,,4,7,127,,
168000,note_on,0,0,8,,,,,,,,4,,,63,127
168000,note_on,0,0,10,,,,,,,,8,,,55,96
168000,note_on,844,0,10,,,,,,,,8,,,51,96
168000,note_on,7550,0,4,,,,,,,,3,,,51,64
168000,note_on,0,0,4,,,,,,,,3,,,55,64
168000,note_on,0,0,8,,,,,,,,4,,,60,127
168084,note_on,84,0,11,,,,,,,,10,,,48,0
168084,note_on,84,0,12,,,,,,,,11,,,36,0
168084,note_on,0,0,8,,,,,,,,4,,,63,0
168084,note_on,84,0,8,,,,,,,,4,,,60,0
168092,note_on,92,0,10,,,,,,,,8,,,55,0
168092,note_on,0,0,10,,,,,,,,8,,,51,0
168120,note_on,28824,0,7,,,,,,,,7,,,48,64
168120,note_on,28,0,10,,,,,,,,8,,,55,96
168120,note_on,36,0,12,,,,,,,,11,,,36,64
168120,note_on,36,0,11,,,,,,,,10,,,48,96
168120,note_on,0,0,10,,,,,,,,8,,,51,96
168120,note_on,28824,0,6,,,,,,,,6,,,60,64
168120,note_on,0,0,6,,,,,,,,6,,,72,64
168120,note_on,0,0,8,,,,,,,,4,,,55,127
168120,note_on,36,0,8,,,,,,,,4,,,67,127
168204,note_on,84,0,8,,,,,,,,4,,,67,0
168206,note_on,86,0,10,,,,,,,,8,,,51,0
168206,note_on,86,0,7,,,,,,,,7,,,48,0
168206,note_on,86,0,6,,,,,,,,6,,,72,0
168206,note_on,0,0,6,,,,,,,,6,,,60,0
168210,note_on,6,0,8,,,,,,,,4,,,55,0
168212,note_on,92,0,12,,,,,,,,11,,,36,0
168212,note_on,92,0,11,,,,,,,,10,,,48,0
168216,note_on,10,0,10,,,,,,,,8,,,55,0
168240,note_on,28,0,12,,,,,,,,11,,,36,64
168240,note_on,0,0,8,,,,,,,,4,,,69,127
168240,note_on,24,0,10,,,,,,,,8,,,55,96
168240,note_on,28,0,11,,,,,,,,10,,,48,96
168240,note_on,0,0,10,,,,,,,,8,,,51,96
168240,note_on,30,0,8,,,,,,,,4,,,57,127
168320,note_on,80,0,8,,,,,,,,4,,,57,0
168322,note_on,82,0,10,,,,,,,,8,,,51,0
168322,note_on,82,0,11,,,,,,,,10,,,48,0
168322,note_on,82,0,12,,,,,,,,11,,,36,0
168324,note_on,4,0,8,,,,,,,,4,,,69,0
168326,note_on,4,0,10,,,,,,,,8,,,55,0
168360,note_on,0,0,8,,,,,,,,4,,,71,127
168360,note_on,38,0,11,,,,,,,,10,,,48,96
168360,note_on,38,0,12,,,,,,,,11,,,36,64
168360,note_on,36,0,8,,,,,,,,4,,,59,127
168360,note_on,0,0,10,,,,,,,,8,,,55,96
168360,note_on,34,0,10,,,,,,,,8,,,51,96
168434,note_on,74,0,8,,,,,,,,4,,,59,0
168442,note_on,82,0,10,,,,,,,,8,,,51,0
168442,note_on,82,0,11,,,,,,,,10,,,48,0
168442,note_on,82,0,12,,,,,,,,11,,,36,0
168444,note_on,10,0,8,,,,,,,,4,,,71,0
168446,note_on,4,0,10,,,,,,,,8,,,55,0
168480,note_on,36,0,8,,,,,,,,4,,,72,127
168480,note_on,0,0,8,,,,,,,,4,,,60,127
168480,note_on,38,0,12,,,,,,,,11,,,36,64
168480,note_on,38,0,11,,,,,,,,10,,,48,96
168480,note_on,34,0,10,,,,,,,,8,,,51,96
168480,note_on,0,0,10,,,,,,,,8,,,55,96
168564,note_on,84,0,10,,,,,,,,8,,,51,0
168564,note_on,84,0,8,,,,,,,,4,,,72,0
168564,note_on,84,0,12,,,,,,,,11,,,36,0
168564,note_on,84,0,11,,,,,,,,10,,,48,0
168570,note_on,6,0,8,,,,,,,,4,,,60,0
168576,note_on,12,0,10,,,,,,,,8,,,55,0
168600,note_on,0,0,8,,,,,,,,4,,,74,127
168600,note_on,30,0,8,,,,,,,,4,,,62,127
168600,note_on,0,0,10,,,,,,,,8,,,51,96
168600,note_on,24,0,10,,,,,,,,8,,,55,96
168600,note_on,36,0,11,,,,,,,,10,,,48,96
168600,note_on,36,0,12,,,,,,,,11,,,36,64
168674,note_on,74,0,8,,,,,,,,4,,,62,0
168674,note_on,74,0,12,,,,,,,,11,,,36,0
168674,note_on,74,0,11,,,,,,,,10,,,48,0
168684,note_on,10,0,8,,,,,,,,4,,,74,0
168684,note_on,84,0,10,,,,,,,,8,,,51,0
168694,note_on,10,0,10,,,,,,,,8,,,55,0
168720,note_on,46,0,12,,,,,,,,11,,,36,64
168720,note_on,0,0,8,,,,,,,,4,,,63,127
168720,note_on,36,0,8,,,,,,,,4,,,75,127
168720,note_on,46,0,11,,,,,,,,10,,,48,96
168720,note_on,26,0,10,,,,,,,,8,,,55,96
168720,note_on,0,0,10,,,,,,,,8,,,51,96
168804,note_on,84,0,12,,,,,,,,11,,,36,0
168804,note_on,84,0,8,,,,,,,,4,,,75,0
168804,note_on,84,0,11,,,,,,,,10,,,48,0
168806,note_on,86,0,10,,,,,,,,8,,,51,0
168810,note_on,4,0,10,,,,,,,,8,,,55,0
168812,note_on,8,0,8,,,,,,,,4,,,63,0
168840,note_on,0,0,10,,,,,,,,8,,,51,96
168840,note_on,36,0,12,,,,,,,,11,,,36,64
168840,note_on,30,0,10,,,,,,,,8,,,55,96
168840,note_on,36,0,11,,,,,,,,10,,,48,96
168840,note_on,28,0,8,,,,,,,,4,,,62,127
168840,note_on,0,0,8,,,,,,,,4,,,74,127
168916,note_on,76,0,8,,,,,,,,4,,,62,0
168922,note_on,82,0,11,,,,,,,,10,,,48,0
168922,note_on,82,0,12,,,,,,,,11,,,36,0
168924,note_on,84,0,10,,,,,,,,8,,,51,0
168924,note_on,8,0,8,,,,,,,,4,,,74,0
168934,note_on,10,0,10,,,,,,,,8,,,55,0
168960,note_on,0,0,6,,,,,,,,6,,,72,64
168960,note_on,0,0,8,,,,,,,,4,,,72,127
168960,note_on,36,0,8,,,,,,,,4,,,60,127
168960,note_on,0,0,10,,,,,,,,8,,,55,96
168960,note_on,38,0,11,,,,,,,,10,,,48,96
168960,note_on,26,0,10,,,,,,,,8,,,51,96
168960,note_on,38,0,12,,,,,,,,11,,,36,64
168960,note_on,754,0,7,,,,,,,,7,,,48,64
168960,note_on,754,0,6,,,,,,,,6,,,60,64
169036,note_on,76,0,6,,,,,,,,6,,,72,0
169036,note_on,76,0,7,,,,,,,,7,,,48,0
169036,note_on,0,0,6,,,,,,,,6,,,60,0
169036,note_on,76,0,8,,,,,,,,4,,,60,0
169044,note_on,8,0,8,,,,,,,,4,,,72,0
169046,note_on,86,0,10,,,,,,,,8,,,51,0
169050,note_on,90,0,11,,,,,,,,10,,,48,0
169050,note_on,90,0,12,,,,,,,,11,,,36,0
169054,note_on,8,0,10,,,,,,,,8,,,55,0
169080,note_on,30,0,11,,,,,,,,10,,,48,96
169080,note_on,0,0,10,,,,,,,,8,,,51,96
169080,note_on,26,0,10,,,,,,,,8,,,55,96
169080,note_on,36,0,8,,,,,,,,4,,,67,127
169080,note_on,0,0,8,,,,,,,,4,,,55,127
169080,note_on,30,0,12,,,,,,,,11,,,36,64
169164,note_on,84,0,8,,,,,,,,4,,,55,0
169164,note_on,0,0,8,,,,,,,,4,,,67,0
169166,note_on,86,0,10,,,,,,,,8,,,51,0
169166,note_on,86,0,12,,,,,,,,11,,,36,0
169166,note_on,86,0,11,,,,,,,,10,,,48,0
169174,note_on,8,0,10,,,,,,,,8,,,55,0
169200,note_on,34,0,12,,,,,,,,11,,,36,64
169200,note_on,0,0,10,,,,,,,,8,,,55,96
169200,note_on,26,0,10,,,,,,,,8,,,51,96
169200,note_on,34,0,11,,,,,,,,10,,,48,96
169200,note_on,0,0,8,,,,,,,,4,,,69,127
169200,note_on,36,0,8,,,,,,,,4,,,57,127
169282,note_on,82,0,8,,,,,,,,4,,,57,0
169284,note_on,84,0,12,,,,,,,,11,,,36,0
169284,note_on,2,0,8,,,,,,,,4,,,69,0
169284,note_on,84,0,11,,,,,,,,10,,,48,0
169290,note_on,0,0,10,,,,,,,,8,,,51,0
169290,note_on,90,0,10,,,,,,,,8,,,55,0
169320,note_on,0,0,10,,,,,,,,8,,,51,96
169320,note_on,30,0,10,,,,,,,,8,,,55,96
169320,note_on,36,0,8,,,,,,,,4,,,59,127
169320,note_on,0,0,8,,,,,,,,4,,,71,127
169320,note_on,36,0,11,,,,,,,,10,,,48,96
169320,note_on,36,0,12,,,,,,,,11,,,36,64
169396,note_on,76,0,8,,,,,,,,4,,,59,0
169402,note_on,82,0,11,,,,,,,,10,,,48,0
169402,note_on,82,0,12,,,,,,,,11,,,36,0
169404,note_on,8,0,8,,,,,,,,4,,,71,0
169404,note_on,84,0,10,,,,,,,,8,,,51,0
169412,note_on,8,0,10,,,,,,,,8,,,55,0
169440,note_on,0,0,8,,,,,,,,4,,,60,127
169440,note_on,38,0,11,,,,,,,,10,,,48,96
169440,note_on,0,0,10,,,,,,,,8,,,55,96
169440,note_on,36,0,8,,,,,,,,4,,,72,127
169440,note_on,38,0,12,,,,,,,,11,,,36,64
169440,note_on,28,0,10,,,,,,,,8,,,51,96
169524,note_on,84,0,12,,,,,,,,11,,,36,0
169524,note_on,84,0,11,,,,,,,,10,,,48,0
169524,note_on,84,0,8,,,,,,,,4,,,72,0
169526,note_on,86,0,10,,,,,,,,8,,,51,0
169532,note_on,8,0,8,,,,,,,,4,,,60,0
169540,note_on,14,0,10,,,,,,,,8,,,55,0
169560,note_on,0,0,10,,,,,,,,8,,,51,96
169560,note_on,20,0,10,,,,,,,,8,,,55,96
169560,note_on,28,0,8,,,,,,,,4,,,62,127
169560,note_on,0,0,8,,,,,,,,4,,,74,127
169560,note_on,36,0,12,,,,,,,,11,,,36,64
169560,note_on,36,0,11,,,,,,,,10,,,48,96
169640,note_on,80,0,8,,,,,,,,4,,,62,0
169642,note_on,82,0,12,,,,,,,,11,,,36,0
169642,note_on,82,0,11,,,,,,,,10,,,48,0
169642,note_on,82,0,10,,,,,,,,8,,,51,0
169644,note_on,4,0,8,,,,,,,,4,,,74,0
169652,note_on,10,0,10,,,,,,,,8,,,55,0
169680,note_on,0,0,10,,,,,,,,8,,,51,96
169680,note_on,38,0,11,,,,,,,,10,,,48,96
169680,note_on,28,0,10,,,,,,,,8,,,55,96
169680,note_on,38,0,12,,,,,,,,11,,,36,64
169680,note_on,36,0,8,,,,,,,,4,,,63,127
169680,note_on,0,0,8,,,,,,,,4,,,75,127
169764,note_on,84,0,12,,,,,,,,11,,,36,0
169764,note_on,84,0,8,,,,,,,,4,,,75,0
169764,note_on,0,0,8,,,,,,,,4,,,63,0
169764,note_on,84,0,11,,,,,,,,10,,,48,0
169766,note_on,86,0,10,,,,,,,,8,,,51,0
169776,note_on,10,0,10,,,,,,,,8,,,55,0
169800,note_on,0,0,8,,,,,,,,4,,,74,127
169800,note_on,36,0,11,,,,,,,,10,,,48,96
169800,note_on,36,0,8,,,,,,,,4,,,62,127
169800,note_on,24,0,10,,,,,,,,8,,,55,96
169800,note_on,0,0,10,,,,,,,,8,,,51,96
169800,note_on,36,0,12,,,,,,,,11,,,36,64
169876,note_on,76,0,8,,,,,,,,4,,,62,0
169884,note_on,8,0,8,,,,,,,,4,,,74,0
169890,note_on,90,0,11,,,,,,,,10,,,48,0
169890,note_on,90,0,12,,,,,,,,11,,,36,0
169892,note_on,92,0,10,,,,,,,,8,,,51,0
169894,note_on,2,0,10,,,,,,,,8,,,55,0
169920,note_on,884,0,7,,,,,,,,7,,,48,64
169920,note_on,30,0,11,,,,,,,,10,,,48,96
169920,note_on,0,0,8,,,,,,,,4,,,72,127
169920,note_on,36,0,8,,,,,,,,4,,,60,127
169920,note_on,884,0,6,,,,,,,,6,,,60,64
169920,note_on,0,0,10,,,,,,,,8,,,51,96
169920,note_on,26,0,10,,,,,,,,8,,,55,96
169920,note_on,0,0,6,,,,,,,,6,,,72,64
169920,note_on,30,0,12,,,,,,,,11,,,36,64
169950,note_on,1950,0,5,,,,,,,,5,,,48,0
169964,note_on,14,0,5,,,,,,,,5,,,60,0
169972,note_on,1972,0,3,,,,,,,,2,,,63,0
169972,note_on,0,0,3,,,,,,,,2,,,67,0
169982,note_on,1982,0,2,,,,,,,,1,,,72,0
169984,note_on,2,0,2,,,,,,,,1,,,75,0
169986,note_on,1986,0,1,,,,,,,,0,,,79,0
169996,note_on,1996,0,4,,,,,,,,3,,,51,0
170000,note_on,0,0,6,,,,,,,,6,,,60,0
170000,note_on,80,0,7,,,,,,,,7,,,48,0
170000,note_on,80,0,6,,,,,,,,6,,,72,0
170002,note_on,6,0,4,,,,,,,,3,,,55,0
170002,note_on,82,0,8,,,,,,,,4,,,60,0
170004,note_on,2,0,8,,,,,,,,4,,,72,0
170004,note_on,84,0,11,,,,,,,,10,,,48,0
170004,note_on,84,0,12,,,,,,,,11,,,36,0
170006,note_on,20,0,1,,,,,,,,0,,,84,0
170006,note_on,86,0,10,,,,,,,,8,,,51,0
170012,note_on,6,0,10,,,,,,,,8,,,55,0
170040,note_on,36,0,12,,,,,,,,11,,,36,64
170040,note_on,36,0,11,,,,,,,,10,,,48,96
170040,note_on,0,0,10,,,,,,,,8,,,55,96
170040,note_on,28,0,10,,,,,,,,8,,,51,96
170040,note_on,36,0,8,,,,,,,,4,,,67,127
170040,note_on,0,0,8,,,,,,,,4,,,55,127
170116,note_on,76,0,8,,,,,,,,4,,,55,0
170122,note_on,82,0,11,,,,,,,,10,,,48,0
170122,note_on,82,0,12,,,,,,,,11,,,36,0
170124,note_on,8,0,8,,,,,,,,4,,,67,0
170126,note_on,86,0,10,,,,,,,,8,,,51,0
170134,note_on,8,0,10,,,,,,,,8,,,55,0
170160,note_on,36,0,8,,,,,,,,4,,,57,127
170160,note_on,0,0,8,,,,,,,,4,,,69,127
170160,note_on,38,0,12,,,,,,,,11,,,36,64
170160,note_on,26,0,10,,,,,,,,8,,,55,96
170160,note_on,38,0,11,,,,,,,,10,,,48,96
170160,note_on,0,0,10,,,,,,,,8,,,51,96
170240,note_on,80,0,8,,,,,,,,4,,,57,0
170242,note_on,82,0,12,,,,,,,,11,,,36,0
170242,note_on,82,0,11,,,,,,,,10,,,48,0
170244,note_on,4,0,8,,,,,,,,4,,,69,0
170246,note_on,86,0,10,,,,,,,,8,,,51,0
170252,note_on,6,0,10,,,,,,,,8,,,55,0
170280,note_on,38,0,11,,,,,,,,10,,,48,96
170280,note_on,28,0,10,,,,,,,,8,,,55,96
170280,note_on,0,0,10,,,,,,,,8,,,51,96
170280,note_on,0,0,8,,,,,,,,4,,,71,127
170280,note_on,36,0,8,,,,,,,,4,,,59,127
170280,note_on,38,0,12,,,,,,,,11,,,36,64
170352,note_on,72,0,8,,,,,,,,4,,,59,0
170362,note_on,82,0,10,,,,,,,,8,,,51,0
170364,note_on,84,0,11,,,,,,,,10,,,48,0
170364,note_on,84,0,12,,,,,,,,11,,,36,0
170364,note_on,12,0,8,,,,,,,,4,,,71,0
170366,note_on,4,0,10,,,,,,,,8,,,55,0
170400,note_on,0,0,10,,,,,,,,8,,,55,96
170400,note_on,0,0,4,,,,,,,,3,,,55,64
170400,note_on,0,0,5,,,,,,,,5,,,48,64
170400,note_on,0,0,3,,,,,,,,2,,,67,64
170400,note_on,394,0,1,,,,,,,,0,,,79,64
170400,note_on,34,0,10,,,,,,,,8,,,51,96
170400,note_on,0,0,1,,,,,,,,0,,,84,64
170400,note_on,36,0,12,,,,,,,,11,,,36,64
170400,note_on,36,0,11,,,,,,,,10,,,48,96
170400,note_on,436,0,5,,,,,,,,5,,,60,64
170400,note_on,400,0,6,,,,,,,,6,,,72,64
170400,note_on,0,0,6,,,,,,,,6,,,60,64
170400,note_on,428,0,3,,,,,,,,2,,,63,64
170400,note_on,398,0,4,,,,,,,,3,,,51,64
170400,note_on,0,0,2,,,,,,,,1,,,75,64
170400,note_on,416,0,2,,,,,,,,1,,,72,64
170400,note_on,400,0,7,,,,,,,,7,,,48,64
170400,note_on,36,0,8,,,,,,,,4,,,60,127
170400,note_on,0,0,8,,,,,,,,4,,,72,127
170444,note_on,0,0,5,,,,,,,,5,,,60,0
170444,note_on,44,0,5,,,,,,,,5,,,48,0
170456,note_on,56,0,2,,,,,,,,1,,,72,0
170460,note_on,60,0,1,,,,,,,,0,,,79,0
170466,note_on,10,0,2,,,,,,,,1,,,75,0
170466,note_on,66,0,7,,,,,,,,7,,,48,0
170466,note_on,66,0,6,,,,,,,,6,,,60,0
170466,note_on,0,0,6,,,,,,,,6,,,72,0
170470,note_on,70,0,8,,,,,,,,4,,,60,0
170472,note_on,72,0,4,,,,,,,,3,,,51,0
170476,note_on,4,0,4,,,,,,,,3,,,55,0
170482,note_on,82,0,10,,,,,,,,8,,,51,0
170484,note_on,84,0,12,,,,,,,,11,,,36,0
170484,note_on,84,0,11,,,,,,,,10,,,48,0
170484,note_on,14,0,8,,,,,,,,4,,,72,0
170486,note_on,86,0,3,,,,,,,,2,,,63,0
170494,note_on,12,0,10,,,,,,,,8,,,55,0
170504,note_on,18,0,3,,,,,,,,2,,,67,0
170516,note_on,56,0,1,,,,,,,,0,,,84,0
170520,note_on,0,0,8,,,,,,,,4,,,74,127
170520,note_on,36,0,8,,,,,,,,4,,,62,127
170520,note_on,36,0,12,,,,,,,,11,,,36,64
170520,note_on,26,0,10,,,,,,,,8,,,51,96
170520,note_on,0,0,10,,,,,,,,8,,,55,96
170520,note_on,36,0,11,,,,,,,,10,,,48,96
170586,note_on,66,0,8,,,,,,,,4,,,62,0
170602,note_on,82,0,11,,,,,,,,10,,,48,0
170602,note_on,82,0,12,,,,,,,,11,,,36,0
170604,note_on,18,0,8,,,,,,,,4,,,74,0
170606,note_on,86,0,10,,,,,,,,8,,,51,0
170614,note_on,8,0,10,,,,,,,,8,,,55,0
170640,note_on,26,0,10,,,,,,,,8,,,55,96
170640,note_on,0,0,8,,,,,,,,4,,,63,127
170640,note_on,38,0,11,,,,,,,,10,,,48,96
170640,note_on,38,0,12,,,,,,,,11,,,36,64
170640,note_on,0,0,10,,,,,,,,8,,,51,96
170640,note_on,36,0,8,,,,,,,,4,,,75,127
170722,note_on,82,0,12,,,,,,,,11,,,36,0
170722,note_on,82,0,11,,,,,,,,10,,,48,0
170724,note_on,84,0,8,,,,,,,,4,,,75,0
170724,note_on,84,0,10,,,,,,,,8,,,51,0
170724,note_on,0,0,10,,,,,,,,8,,,55,0
170726,note_on,2,0,8,,,,,,,,4,,,63,0
170760,note_on,38,0,12,,,,,,,,11,,,36,64
170760,note_on,34,0,8,,,,,,,,4,,,65,127
170760,note_on,0,0,8,,,,,,,,4,,,77,127
170760,note_on,0,0,10,,,,,,,,8,,,51,96
170760,note_on,36,0,10,,,,,,,,8,,,55,96
170760,note_on,38,0,11,,,,,,,,10,,,48,96
170836,note_on,76,0,8,,,,,,,,4,,,65,0
170840,note_on,80,0,12,,,,,,,,11,,,36,0
170840,note_on,80,0,11,,,,,,,,10,,,48,0
170842,note_on,82,0,10,,,,,,,,8,,,51,0
170844,note_on,8,0,8,,,,,,,,4,,,77,0
170850,note_on,8,0,10,,,,,,,,8,,,55,0
170880,note_on,404,0,4,,,,,,,,3,,,55,64
170880,note_on,40,0,11,,,,,,,,10,,,48,96
170880,note_on,0,0,10,,,,,,,,8,,,55,96
170880,note_on,30,0,10,,,,,,,,8,,,51,96
170880,note_on,414,0,2,,,,,,,,1,,,72,64
170880,note_on,0,0,2,,,,,,,,1,,,75,64
170880,note_on,0,0,5,,,,,,,,5,,,60,64
170880,note_on,0,0,4,,,,,,,,3,,,51,64
170880,note_on,376,0,3,,,,,,,,2,,,67,64
170880,note_on,0,0,6,,,,,,,,6,,,72,64
170880,note_on,0,0,3,,,,,,,,2,,,63,64
170880,note_on,0,0,8,,,,,,,,4,,,79,127
170880,note_on,36,0,8,,,,,,,,4,,,67,127
170880,note_on,414,0,7,,,,,,,,7,,,48,64
170880,note_on,414,0,6,,,,,,,,6,,,60,64
170880,note_on,364,0,1,,,,,,,,0,,,84,64
170880,note_on,0,0,1,,,,,,,,0,,,79,64
170880,note_on,40,0,12,,,,,,,,11,,,36,64
170880,note_on,436,0,5,,,,,,,,5,,,48,64
170930,note_on,50,0,5,,,,,,,,5,,,48,0
170932,note_on,2,0,5,,,,,,,,5,,,60,0
170936,note_on,56,0,2,,,,,,,,1,,,72,0
170946,note_on,0,0,6,,,,,,,,6,,,60,0
170946,note_on,66,0,6,,,,,,,,6,,,72,0
170946,note_on,66,0,7,,,,,,,,7,,,48,0
170952,note_on,16,0,2,,,,,,,,1,,,75,0
170954,note_on,74,0,12,,,,,,,,11,,,36,0
170954,note_on,74,0,4,,,,,,,,3,,,51,0
170954,note_on,74,0,11,,,,,,,,10,,,48,0
170962,note_on,82,0,8,,,,,,,,4,,,67,0
170964,note_on,2,0,8,,,,,,,,4,,,79,0
170964,note_on,84,0,1,,,,,,,,0,,,79,0
170964,note_on,10,0,4,,,,,,,,3,,,55,0
170970,note_on,90,0,10,,,,,,,,8,,,51,0
170972,note_on,2,0,10,,,,,,,,8,,,55,0
170976,note_on,96,0,3,,,,,,,,2,,,63,0
170990,note_on,14,0,3,,,,,,,,2,,,67,0
171000,note_on,46,0,12,,,,,,,,11,,,36,64
171000,note_on,36,0,8,,,,,,,,4,,,78,127
171000,note_on,0,0,8,,,,,,,,4,,,66,127
171000,note_on,46,0,11,,,,,,,,10,,,48,96
171000,note_on,28,0,10,,,,,,,,8,,,55,96
171000,note_on,0,0,10,,,,,,,,8,,,51,96
171002,note_on,38,0,1,,,,,,,,0,,,84,0
171082,note_on,82,0,8,,,,,,,,4,,,66,0
171082,note_on,82,0,12,,,,,,,,11,,,36,0
171082,note_on,82,0,11,,,,,,,,10,,,48,0
171084,note_on,2,0,8,,,,,,,,4,,,78,0
171086,note_on,86,0,10,,,,,,,,8,,,51,0
171094,note_on,8,0,10,,,,,,,,8,,,55,0
171120,note_on,26,0,10,,,,,,,,8,,,55,96
171120,note_on,38,0,11,,,,,,,,10,,,48,96
171120,note_on,38,0,12,,,,,,,,11,,,36,64
171120,note_on,0,0,8,,,,,,,,4,,,68,127
171120,note_on,36,0,8,,,,,,,,4,,,80,127
171120,note_on,0,0,10,,,,,,,,8,,,51,96
171202,note_on,82,0,11,,,,,,,,10,,,48,0
171202,note_on,82,0,12,,,,,,,,11,,,36,0
171202,note_on,82,0,10,,,,,,,,8,,,51,0
171204,note_on,84,0,8,,,,,,,,4,,,80,0
171206,note_on,4,0,10,,,,,,,,8,,,55,0
171212,note_on,8,0,8,,,,,,,,4,,,68,0
171240,note_on,28,0,8,,,,,,,,4,,,67,127
171240,note_on,38,0,12,,,,,,,,11,,,36,64
171240,note_on,34,0,10,,,,,,,,8,,,55,96
171240,note_on,38,0,11,,,,,,,,10,,,48,96
171240,note_on,0,0,8,,,,,,,,4,,,79,127
171240,note_on,0,0,10,,,,,,,,8,,,51,96
171322,note_on,82,0,10,,,,,,,,8,,,51,0
171322,note_on,82,0,11,,,,,,,,10,,,48,0
171322,note_on,82,0,8,,,,,,,,4,,,67,0
171322,note_on,82,0,12,,,,,,,,11,,,36,0
171324,note_on,2,0,8,,,,,,,,4,,,79,0
171330,note_on,8,0,10,,,,,,,,8,,,55,0
171360,note_on,0,0,10,,,,,,,,8,,,55,96
171360,note_on,30,0,10,,,,,,,,8,,,51,96
171360,note_on,38,0,12,,,,,,,,11,,,36,64
171360,note_on,0,0,8,,,,,,,,4,,,65,127
171360,note_on,38,0,11,,,,,,,,10,,,48,96
171360,note_on,36,0,8,,,,,,,,4,,,77,127
171436,note_on,76,0,10,,,,,,,,8,,,51,0
171444,note_on,84,0,11,,,,,,,,10,,,48,0
171444,note_on,84,0,8,,,,,,,,4,,,77,0
171444,note_on,84,0,12,,,,,,,,11,,,36,0
171452,note_on,16,0,10,,,,,,,,8,,,55,0
171454,note_on,10,0,8,,,,,,,,4,,,65,0
171480,note_on,0,0,8,,,,,,,,4,,,63,127
171480,note_on,26,0,8,,,,,,,,4,,,75,127
171480,note_on,0,0,10,,,,,,,,8,,,51,96
171480,note_on,36,0,12,,,,,,,,11,,,36,64
171480,note_on,36,0,11,,,,,,,,10,,,48,96
171480,note_on,28,0,10,,,,,,,,8,,,55,96
171554,note_on,74,0,10,,,,,,,,8,,,51,0
171560,note_on,80,0,12,,,,,,,,11,,,36,0
171560,note_on,80,0,11,,,,,,,,10,,,48,0
171564,note_on,84,0,8,,,,,,,,4,,,75,0
171566,note_on,2,0,8,,,,,,,,4,,,63,0
171566,note_on,12,0,10,,,,,,,,8,,,55,0
171600,note_on,34,0,10,,,,,,,,8,,,55,96
171600,note_on,34,0,8,,,,,,,,4,,,62,127
171600,note_on,0,0,10,,,,,,,,8,,,51,96
171600,note_on,40,0,11,,,,,,,,10,,,48,96
171600,note_on,0,0,8,,,,,,,,4,,,74,127
171600,note_on,40,0,12,,,,,,,,11,,,36,64
171674,note_on,74,0,10,,,,,,,,8,,,51,0
171676,note_on,76,0,12,,,,,,,,11,,,36,0
171676,note_on,76,0,11,,,,,,,,10,,,48,0
171680,note_on,80,0,8,,,,,,,,4,,,62,0
171684,note_on,4,0,8,,,,,,,,4,,,74,0
171686,note_on,12,0,10,,,,,,,,8,,,55,0
171720,note_on,44,0,11,,,,,,,,10,,,48,96
171720,note_on,0,0,10,,,,,,,,8,,,55,96
171720,note_on,34,0,10,,,,,,,,8,,,51,96
171720,note_on,44,0,12,,,,,,,,11,,,36,64
171720,note_on,36,0,8,,,,,,,,4,,,72,127
171720,note_on,0,0,8,,,,,,,,4,,,60,127
171800,note_on,80,0,11,,,,,,,,10,,,48,0
171800,note_on,80,0,12,,,,,,,,11,,,36,0
171800,note_on,80,0,10,,,,,,,,8,,,55,0
171804,note_on,84,0,8,,,,,,,,4,,,72,0
171804,note_on,4,0,10,,,,,,,,8,,,51,0
171806,note_on,2,0,8,,,,,,,,4,,,60,0
171840,note_on,850,0,3,,,,,,,,2,,,68,64
171840,note_on,0,0,3,,,,,,,,2,,,65,64
171840,note_on,888,0,2,,,,,,,,1,,,77,64
171840,note_on,0,0,2,,,,,,,,1,,,74,64
171840,note_on,34,0,8,,,,,,,,4,,,74,127
171840,note_on,0,0,10,,,,,,,,8,,,56,96
171840,note_on,0,0,8,,,,,,,,4,,,62,127
171840,note_on,838,0,1,,,,,,,,0,,,86,64
171840,note_on,0,0,1,,,,,,,,0,,,80,64
171840,note_on,876,0,4,,,,,,,,3,,,53,64
171840,note_on,0,0,4,,,,,,,,3,,,56,64
171840,note_on,36,0,10,,,,,,,,8,,,53,96
171840,note_on,40,0,12,,,,,,,,11,,,34,64
171840,note_on,40,0,11,,,,,,,,10,,,46,96
171914,note_on,74,0,8,,,,,,,,4,,,62,0
171922,note_on,82,0,11,,,,,,,,10,,,46,0
171922,note_on,82,0,12,,,,,,,,11,,,34,0
171924,note_on,84,0,10,,,,,,,,8,,,53,0
171924,note_on,10,0,8,,,,,,,,4,,,74,0
171930,note_on,6,0,10,,,,,,,,8,,,56,0
171960,note_on,36,0,8,,,,,,,,4,,,72,127
171960,note_on,0,0,10,,,,,,,,8,,,53,96
171960,note_on,0,0,8,,,,,,,,4,,,60,127
171960,note_on,30,0,10,,,,,,,,8,,,56,96
171960,note_on,38,0,11,,,,,,,,10,,,46,96
171960,note_on,38,0,12,,,,,,,,11,,,34,64
172034,note_on,74,0,10,,,,,,,,8,,,56,0
172042,note_on,82,0,11,,,,,,,,10,,,46,0
172042,note_on,82,0,12,,,,,,,,11,,,34,0
172044,note_on,84,0,8,,,,,,,,4,,,72,0
172046,note_on,2,0,8,,,,,,,,4,,,60,0
172054,note_on,20,0,10,,,,,,,,8,,,53,0
172080,note_on,0,0,8,,,,,,,,4,,,58,127
172080,note_on,0,0,10,,,,,,,,8,,,53,96
172080,note_on,38,0,11,,,,,,,,10,,,46,96
172080,note_on,26,0,10,,,,,,,,8,,,56,96
172080,note_on,38,0,12,,,,,,,,11,,,34,64
172080,note_on,34,0,8,,,,,,,,4,,,70,127
172156,note_on,76,0,10,,,,,,,,8,,,56,0
172156,note_on,76,0,8,,,,,,,,4,,,58,0
172162,note_on,82,0,12,,,,,,,,11,,,34,0
172162,note_on,82,0,11,,,,,,,,10,,,46,0
172164,note_on,8,0,8,,,,,,,,4,,,70,0
172170,note_on,14,0,10,,,,,,,,8,,,53,0
172200,note_on,0,0,8,,,,,,,,4,,,57,127
172200,note_on,36,0,8,,,,,,,,4,,,69,127
172200,note_on,38,0,12,,,,,,,,11,,,34,64
172200,note_on,38,0,11,,,,,,,,10,,,46,96
172200,note_on,0,0,10,,,,,,,,8,,,53,96
172200,note_on,30,0,10,,,,,,,,8,,,56,96
172280,note_on,80,0,10,,,,,,,,8,,,56,0
172280,note_on,80,0,12,,,,,,,,11,,,34,0
172280,note_on,80,0,11,,,,,,,,10,,,46,0
172284,note_on,84,0,8,,,,,,,,4,,,69,0
172286,note_on,6,0,10,,,,,,,,8,,,53,0
172290,note_on,6,0,8,,,,,,,,4,,,57,0
172320,note_on,40,0,12,,,,,,,,11,,,34,64
172320,note_on,30,0,8,,,,,,,,4,,,58,127
172320,note_on,0,0,8,,,,,,,,4,,,70,127
172320,note_on,0,0,10,,,,,,,,8,,,56,96
172320,note_on,34,0,10,,,,,,,,8,,,53,96
172320,note_on,40,0,11,,,,,,,,10,,,46,96
172396,note_on,76,0,8,,,,,,,,4,,,58,0
172400,note_on,80,0,11,,,,,,,,10,,,46,0
172400,note_on,80,0,12,,,,,,,,11,,,34,0
172404,note_on,84,0,10,,,,,,,,8,,,56,0
172404,note_on,8,0,8,,,,,,,,4,,,70,0
172414,note_on,10,0,10,,,,,,,,8,,,53,0
172440,note_on,40,0,11,,,,,,,,10,,,46,96
172440,note_on,36,0,8,,,,,,,,4,,,60,127
172440,note_on,0,0,8,,,,,,,,4,,,72,127
172440,note_on,26,0,10,,,,,,,,8,,,56,96
172440,note_on,40,0,12,,,,,,,,11,,,34,64
172440,note_on,0,0,10,,,,,,,,8,,,53,96
172512,note_on,72,0,8,,,,,,,,4,,,60,0
172520,note_on,80,0,11,,,,,,,,10,,,46,0
172520,note_on,80,0,12,,,,,,,,11,,,34,0
172524,note_on,84,0,10,,,,,,,,8,,,56,0
172524,note_on,12,0,8,,,,,,,,4,,,72,0
172526,note_on,2,0,10,,,,,,,,8,,,53,0
172560,note_on,0,0,10,,,,,,,,8,,,56,96
172560,note_on,34,0,10,,,,,,,,8,,,53,96
172560,note_on,40,0,11,,,,,,,,10,,,46,96
172560,note_on,0,0,8,,,,,,,,4,,,62,127
172560,note_on,36,0,8,,,,,,,,4,,,74,127
172560,note_on,40,0,12,,,,,,,,11,,,34,64
172626,note_on,66,0,8,,,,,,,,4,,,62,0
172634,note_on,74,0,11,,,,,,,,10,,,46,0
172634,note_on,74,0,12,,,,,,,,11,,,34,0
172642,note_on,82,0,10,,,,,,,,8,,,56,0
172644,note_on,18,0,8,,,,,,,,4,,,74,0
172652,note_on,10,0,10,,,,,,,,8,,,53,0
172680,note_on,28,0,10,,,,,,,,8,,,56,96
172680,note_on,0,0,10,,,,,,,,8,,,53,96
172680,note_on,46,0,11,,,,,,,,10,,,46,96
172680,note_on,36,0,8,,,,,,,,4,,,63,127
172680,note_on,0,0,8,,,,,,,,4,,,75,127
172680,note_on,46,0,12,,,,,,,,11,,,34,64
172756,note_on,76,0,8,,,,,,,,4,,,63,0
172756,note_on,76,0,12,,,,,,,,11,,,34,0
172756,note_on,76,0,11,,,,,,,,10,,,46,0
172762,note_on,82,0,10,,,,,,,,8,,,56,0
172764,note_on,8,0,8,,,,,,,,4,,,75,0
172766,note_on,4,0,10,,,,,,,,8,,,53,0
172800,note_on,44,0,11,,,,,,,,10,,,46,96
172800,note_on,0,0,8,,,,,,,,4,,,65,127
172800,note_on,36,0,8,,,,,,,,4,,,77,127
172800,note_on,44,0,12,,,,,,,,11,,,34,64
172800,note_on,34,0,10,,,,,,,,8,,,56,96
172800,note_on,0,0,10,,,,,,,,8,,,53,96
172876,note_on,76,0,11,,,,,,,,10,,,46,0
172876,note_on,76,0,12,,,,,,,,11,,,34,0
172884,note_on,84,0,8,,,,,,,,4,,,65,0
172884,note_on,0,0,8,,,,,,,,4,,,77,0
172886,note_on,86,0,10,,,,,,,,8,,,56,0
172890,note_on,4,0,10,,,,,,,,8,,,53,0
172920,note_on,0,0,8,,,,,,,,4,,,75,127
172920,note_on,36,0,8,,,,,,,,4,,,63,127
172920,note_on,44,0,12,,,,,,,,11,,,34,64
172920,note_on,30,0,10,,,,,,,,8,,,56,96
172920,note_on,44,0,11,,,,,,,,10,,,46,96
172920,note_on,0,0,10,,,,,,,,8,,,53,96
172994,note_on,74,0,11,,,,,,,,10,,,46,0
172994,note_on,74,0,12,,,,,,,,11,,,34,0
173000,note_on,80,0,8,,,,,,,,4,,,63,0
173004,note_on,84,0,10,,,,,,,,8,,,53,0
173004,note_on,4,0,8,,,,,,,,4,,,75,0
173006,note_on,2,0,10,,,,,,,,8,,,56,0
173040,note_on,46,0,11,,,,,,,,10,,,46,96
173040,note_on,46,0,12,,,,,,,,11,,,34,64
173040,note_on,36,0,8,,,,,,,,4,,,62,127
173040,note_on,0,0,8,,,,,,,,4,,,74,127
173040,note_on,0,0,10,,,,,,,,8,,,56,96
173040,note_on,34,0,10,,,,,,,,8,,,53,96
173112,note_on,72,0,12,,,,,,,,11,,,34,0
173112,note_on,72,0,11,,,,,,,,10,,,46,0
173124,note_on,84,0,8,,,,,,,,4,,,74,0
173124,note_on,0,0,8,,,,,,,,4,,,62,0
173130,note_on,90,0,10,,,,,,,,8,,,56,0
173130,note_on,0,0,10,,,,,,,,8,,,53,0
173160,note_on,48,0,12,,,,,,,,11,,,34,64
173160,note_on,30,0,10,,,,,,,,8,,,56,96
173160,note_on,0,0,10,,,,,,,,8,,,53,96
173160,note_on,0,0,8,,,,,,,,4,,,72,127
173160,note_on,48,0,11,,,,,,,,10,,,46,96
173160,note_on,36,0,8,,,,,,,,4,,,60,127
173234,note_on,74,0,11,,,,,,,,10,,,46,0
173234,note_on,74,0,12,,,,,,,,11,,,34,0
173236,note_on,76,0,8,,,,,,,,4,,,60,0
173244,note_on,84,0,10,,,,,,,,8,,,53,0
173244,note_on,8,0,8,,,,,,,,4,,,72,0
173250,note_on,6,0,10,,,,,,,,8,,,56,0
173280,note_on,36,0,8,,,,,,,,4,,,74,127
173280,note_on,0,0,10,,,,,,,,8,,,56,96
173280,note_on,46,0,11,,,,,,,,10,,,46,96
173280,note_on,0,0,8,,,,,,,,4,,,62,127
173280,note_on,46,0,12,,,,,,,,11,,,34,64
173280,note_on,30,0,10,,,,,,,,8,,,53,96
173360,note_on,80,0,12,,,,,,,,11,,,34,0
173360,note_on,80,0,11,,,,,,,,10,,,46,0
173364,note_on,84,0,8,,,,,,,,4,,,74,0
173366,note_on,2,0,8,,,,,,,,4,,,62,0
173366,note_on,86,0,10,,,,,,,,8,,,56,0
173366,note_on,0,0,10,,,,,,,,8,,,53,0
173400,note_on,0,0,8,,,,,,,,4,,,63,127
173400,note_on,34,0,8,,,,,,,,4,,,75,127
173400,note_on,40,0,12,,,,,,,,11,,,34,64
173400,note_on,34,0,10,,,,,,,,8,,,56,96
173400,note_on,0,0,10,,,,,,,,8,,,53,96
173400,note_on,40,0,11,,,,,,,,10,,,46,96
173480,note_on,80,0,12,,,,,,,,11,,,34,0
173480,note_on,80,0,11,,,,,,,,10,,,46,0
173482,note_on,82,0,10,,,,,,,,8,,,56,0
173484,note_on,84,0,8,,,,,,,,4,,,75,0
173484,note_on,2,0,10,,,,,,,,8,,,53,0
173486,note_on,2,0,8,,,,,,,,4,,,63,0
173520,note_on,40,0,11,,,,,,,,10,,,46,96
173520,note_on,0,0,10,,,,,,,,8,,,53,96
173520,note_on,40,0,12,,,,,,,,11,,,34,64
173520,note_on,0,0,8,,,,,,,,4,,,65,127
173520,note_on,36,0,10,,,,,,,,8,,,56,96
173520,note_on,34,0,8,,,,,,,,4,,,77,127
173586,note_on,66,0,11,,,,,,,,10,,,46,0
173586,note_on,66,0,12,,,,,,,,11,,,34,0
173602,note_on,82,0,10,,,,,,,,8,,,56,0
173604,note_on,84,0,8,,,,,,,,4,,,77,0
173604,note_on,2,0,10,,,,,,,,8,,,53,0
173622,note_on,18,0,8,,,,,,,,4,,,65,0
173640,note_on,54,0,12,,,,,,,,11,,,34,64
173640,note_on,0,0,10,,,,,,,,8,,,56,96
173640,note_on,36,0,10,,,,,,,,8,,,53,96
173640,note_on,54,0,11,,,,,,,,10,,,46,96
173640,note_on,18,0,8,,,,,,,,4,,,79,127
173640,note_on,0,0,8,,,,,,,,4,,,67,127
173710,note_on,70,0,12,,,,,,,,11,,,34,0
173710,note_on,70,0,11,,,,,,,,10,,,46,0
173724,note_on,0,0,10,,,,,,,,8,,,53,0
173724,note_on,84,0,8,,,,,,,,4,,,79,0
173724,note_on,84,0,10,,,,,,,,8,,,56,0
173726,note_on,2,0,8,,,,,,,,4,,,67,0
173760,note_on,0,0,8,,,,,,,,4,,,80,127
173760,note_on,0,0,10,,,,,,,,8,,,53,96
173760,note_on,36,0,10,,,,,,,,8,,,56,96
173760,note_on,50,0,11,,,,,,,,10,,,46,96
173760,note_on,50,0,12,,,,,,,,11,,,34,64
173760,note_on,34,0,8,,,,,,,,4,,,68,127
173792,note_on,1952,0,1,,,,,,,,0,,,80,0
173806,note_on,1966,0,4,,,,,,,,3,,,53,0
173812,note_on,6,0,4,,,,,,,,3,,,56,0
173824,note_on,1984,0,3,,,,,,,,2,,,65,0
173830,note_on,38,0,1,,,,,,,,0,,,86,0
173832,note_on,72,0,11,,,,,,,,10,,,46,0
173832,note_on,72,0,12,,,,,,,,11,,,34,0
173840,note_on,16,0,3,,,,,,,,2,,,68,0
173844,note_on,84,0,8,,,,,,,,4,,,80,0
173846,note_on,0,0,10,,,,,,,,8,,,56,0
173846,note_on,86,0,10,,,,,,,,8,,,53,0
173850,note_on,2010,0,2,,,,,,,,1,,,77,0
173852,note_on,8,0,8,,,,,,,,4,,,68,0
173854,note_on,4,0,2,,,,,,,,1,,,74,0
173880,note_on,48,0,12,,,,,,,,11,,,34,64
173880,note_on,48,0,11,,,,,,,,10,,,46,96
173880,note_on,28,0,8,,,,,,,,4,,,82,127
173880,note_on,0,0,8,,,,,,,,4,,,70,127
173880,note_on,34,0,10,,,,,,,,8,,,56,96
173880,note_on,0,0,10,,,,,,,,8,,,53,96
173956,note_on,76,0,11,,,,,,,,10,,,46,0
173956,note_on,76,0,12,,,,,,,,11,,,34,0
173964,note_on,84,0,8,,,,,,,,4,,,82,0
173966,note_on,86,0,10,,,,,,,,8,,,53,0
173966,note_on,2,0,8,,,,,,,,4,,,70,0
173966,note_on,0,0,10,,,,,,,,8,,,56,0
174000,note_on,0,0,8,,,,,,,,4,,,72,127
174000,note_on,34,0,8,,,,,,,,4,,,84,127
174000,note_on,44,0,12,,,,,,,,11,,,34,64
174000,note_on,0,0,10,,,,,,,,8,,,53,96
174000,note_on,34,0,10,,,,,,,,8,,,56,96
174000,note_on,44,0,11,,,,,,,,10,,,46,96
174080,note_on,80,0,12,,,,,,,,11,,,34,0
174080,note_on,80,0,8,,,,,,,,4,,,72,0
174080,note_on,80,0,11,,,,,,,,10,,,46,0
174084,note_on,4,0,8,,,,,,,,4,,,84,0
174084,note_on,84,0,10,,,,,,,,8,,,53,0
174086,note_on,2,0,10,,,,,,,,8,,,56,0
174120,note_on,0,0,8,,,,,,,,4,,,70,127
174120,note_on,36,0,8,,,,,,,,4,,,82,127
174120,note_on,40,0,11,,,,,,,,10,,,46,96
174120,note_on,34,0,10,,,,,,,,8,,,56,96
174120,note_on,40,0,12,,,,,,,,11,,,34,64
174120,note_on,0,0,10,,,,,,,,8,,,53,96
174200,note_on,80,0,12,,,,,,,,11,,,34,0
174200,note_on,80,0,11,,,,,,,,10,,,46,0
174204,note_on,84,0,8,,,,,,,,4,,,82,0
174204,note_on,84,0,10,,,,,,,,8,,,53,0
174206,note_on,2,0,8,,,,,,,,4,,,70,0
174206,note_on,2,0,10,,,,,,,,8,,,56,0
174240,note_on,34,0,8,,,,,,,,4,,,80,127
174240,note_on,40,0,12,,,,,,,,11,,,34,64
174240,note_on,0,0,3,,,,,,,,2,,,68,64
174240,note_on,400,0,3,,,,,,,,2,,,65,64
174240,note_on,410,0,1,,,,,,,,0,,,86,64
174240,note_on,0,0,1,,,,,,,,0,,,80,64
174240,note_on,0,0,8,,,,,,,,4,,,68,127
174240,note_on,40,0,11,,,,,,,,10,,,46,96
174240,note_on,34,0,10,,,,,,,,8,,,56,96
174240,note_on,0,0,10,,,,,,,,8,,,53,96
174240,note_on,386,0,2,,,,,,,,1,,,77,64
174240,note_on,0,0,2,,,,,,,,1,,,74,64
174240,note_on,0,0,4,,,,,,,,3,,,56,64
174240,note_on,428,0,4,,,,,,,,3,,,53,64
174300,note_on,60,0,4,,,,,,,,3,,,53,0
174304,note_on,64,0,2,,,,,,,,1,,,74,0
174304,note_on,0,0,2,,,,,,,,1,,,77,0
174310,note_on,10,0,4,,,,,,,,3,,,56,0
174312,note_on,72,0,12,,,,,,,,11,,,34,0
174312,note_on,72,0,11,,,,,,,,10,,,46,0
174316,note_on,76,0,3,,,,,,,,2,,,65,0
174320,note_on,80,0,1,,,,,,,,0,,,86,0
174320,note_on,80,0,10,,,,,,,,8,,,56,0
174324,note_on,84,0,8,,,,,,,,4,,,80,0
174326,note_on,10,0,3,,,,,,,,2,,,68,0
174330,note_on,10,0,1,,,,,,,,0,,,80,0
174330,note_on,10,0,10,,,,,,,,8,,,53,0
174334,note_on,10,0,8,,,,,,,,4,,,68,0
174360,note_on,0,0,8,,,,,,,,4,,,67,127
174360,note_on,26,0,8,,,,,,,,4,,,79,127
174360,note_on,48,0,12,,,,,,,,11,,,34,64
174360,note_on,48,0,11,,,,,,,,10,,,46,96
174360,note_on,0,0,10,,,,,,,,8,,,56,96
174360,note_on,30,0,10,,,,,,,,8,,,53,96
174434,note_on,74,0,11,,,,,,,,10,,,46,0
174434,note_on,74,0,12,,,,,,,,11,,,34,0
174440,note_on,80,0,10,,,,,,,,8,,,53,0
174444,note_on,84,0,8,,,,,,,,4,,,79,0
174446,note_on,6,0,10,,,,,,,,8,,,56,0
174446,note_on,2,0,8,,,,,,,,4,,,67,0
174480,note_on,46,0,12,,,,,,,,11,,,34,64
174480,note_on,46,0,11,,,,,,,,10,,,46,96
174480,note_on,34,0,10,,,,,,,,8,,,53,96
174480,note_on,34,0,8,,,,,,,,4,,,77,127
174480,note_on,0,0,8,,,,,,,,4,,,65,127
174480,note_on,0,0,10,,,,,,,,8,,,56,96
174554,note_on,74,0,12,,,,,,,,11,,,34,0
174554,note_on,74,0,11,,,,,,,,10,,,46,0
174564,note_on,84,0,8,,,,,,,,4,,,77,0
174564,note_on,84,0,10,,,,,,,,8,,,53,0
174566,note_on,2,0,10,,,,,,,,8,,,56,0
174574,note_on,10,0,8,,,,,,,,4,,,65,0
174600,note_on,0,0,8,,,,,,,,4,,,75,127
174600,note_on,46,0,11,,,,,,,,10,,,46,96
174600,note_on,34,0,10,,,,,,,,8,,,53,96
174600,note_on,46,0,12,,,,,,,,11,,,34,64
174600,note_on,26,0,8,,,,,,,,4,,,63,127
174600,note_on,0,0,10,,,,,,,,8,,,56,96
174682,note_on,82,0,12,,,,,,,,11,,,34,0
174682,note_on,82,0,11,,,,,,,,10,,,46,0
174684,note_on,0,0,8,,,,,,,,4,,,63,0
174684,note_on,84,0,10,,,,,,,,8,,,56,0
174684,note_on,84,0,8,,,,,,,,4,,,75,0
174684,note_on,0,0,10,,,,,,,,8,,,53,0
174720,note_on,0,0,10,,,,,,,,8,,,56,96
174720,note_on,0,0,8,,,,,,,,4,,,74,127
174720,note_on,410,0,4,,,,,,,,3,,,53,64
174720,note_on,0,0,4,,,,,,,,3,,,56,64
174720,note_on,416,0,2,,,,,,,,1,,,77,64
174720,note_on,390,0,1,,,,,,,,0,,,86,64
174720,note_on,0,0,1,,,,,,,,0,,,80,64
174720,note_on,36,0,10,,,,,,,,8,,,53,96
174720,note_on,36,0,8,,,,,,,,4,,,62,127
174720,note_on,38,0,11,,,,,,,,10,,,46,96
174720,note_on,38,0,12,,,,,,,,11,,,34,64
174720,note_on,394,0,3,,,,,,,,2,,,68,64
174720,note_on,0,0,3,,,,,,,,2,,,65,64
174720,note_on,0,0,2,,,,,,,,1,,,74,64
174780,note_on,60,0,4,,,,,,,,3,,,53,0
174786,note_on,0,0,2,,,,,,,,1,,,77,0
174786,note_on,66,0,2,,,,,,,,1,,,74,0
174792,note_on,72,0,3,,,,,,,,2,,,65,0
174800,note_on,20,0,4,,,,,,,,3,,,56,0
174800,note_on,80,0,11,,,,,,,,10,,,46,0
174800,note_on,80,0,12,,,,,,,,11,,,34,0
174800,note_on,80,0,1,,,,,,,,0,,,80,0
174804,note_on,12,0,3,,,,,,,,2,,,68,0
174804,note_on,84,0,8,,,,,,,,4,,,74,0
174806,note_on,86,0,10,,,,,,,,8,,,53,0
174806,note_on,6,0,1,,,,,,,,0,,,86,0
174810,note_on,4,0,10,,,,,,,,8,,,56,0
174812,note_on,8,0,8,,,,,,,,4,,,62,0
174840,note_on,0,0,8,,,,,,,,4,,,75,127
174840,note_on,28,0,8,,,,,,,,4,,,63,127
174840,note_on,30,0,10,,,,,,,,8,,,56,96
174840,note_on,0,0,10,,,,,,,,8,,,53,96
174840,note_on,40,0,11,,,,,,,,10,,,46,96
174840,note_on,40,0,12,,,,,,,,11,,,34,64
174916,note_on,76,0,8,,,,,,,,4,,,63,0
174920,note_on,80,0,12,,,,,,,,11,,,34,0
174920,note_on,80,0,11,,,,,,,,10,,,46,0
174924,note_on,0,0,10,,,,,,,,8,,,56,0
174924,note_on,84,0,10,,,,,,,,8,,,53,0
174924,note_on,8,0,8,,,,,,,,4,,,75,0
174960,note_on,40,0,11,,,,,,,,10,,,46,96
174960,note_on,0,0,10,,,,,,,,8,,,53,96
174960,note_on,40,0,12,,,,,,,,11,,,34,64
174960,note_on,36,0,10,,,,,,,,8,,,56,96
174960,note_on,36,0,8,,,,,,,,4,,,77,127
174960,note_on,0,0,8,,,,,,,,4,,,65,127
175036,note_on,76,0,12,,,,,,,,11,,,34,0
175036,note_on,76,0,11,,,,,,,,10,,,46,0
175040,note_on,80,0,8,,,,,,,,4,,,65,0
175042,note_on,0,0,10,,,,,,,,8,,,56,0
175042,note_on,82,0,10,,,,,,,,8,,,53,0
175044,note_on,4,0,8,,,,,,,,4,,,77,0
175080,note_on,38,0,10,,,,,,,,8,,,53,96
175080,note_on,0,0,10,,,,,,,,8,,,56,96
175080,note_on,44,0,12,,,,,,,,11,,,34,64
175080,note_on,44,0,11,,,,,,,,10,,,46,96
175080,note_on,36,0,8,,,,,,,,4,,,63,127
175080,note_on,0,0,8,,,,,,,,4,,,75,127
175156,note_on,76,0,11,,,,,,,,10,,,46,0
175156,note_on,76,0,12,,,,,,,,11,,,34,0
175160,note_on,80,0,8,,,,,,,,4,,,63,0
175162,note_on,82,0,10,,,,,,,,8,,,56,0
175164,note_on,2,0,10,,,,,,,,8,,,53,0
175164,note_on,4,0,8,,,,,,,,4,,,75,0
175200,note_on,44,0,12,,,,,,,,11,,,34,64
175200,note_on,0,0,8,,,,,,,,4,,,62,127
175200,note_on,36,0,10,,,,,,,,8,,,56,96
175200,note_on,0,0,10,,,,,,,,8,,,53,96
175200,note_on,36,0,8,,,,,,,,4,,,74,127
175200,note_on,44,0,11,,,,,,,,10,,,46,96
175276,note_on,76,0,11,,,,,,,,10,,,46,0
175276,note_on,76,0,12,,,,,,,,11,,,34,0
175284,note_on,84,0,10,,,,,,,,8,,,56,0
175284,note_on,84,0,8,,,,,,,,4,,,74,0
175286,note_on,2,0,8,,,,,,,,4,,,62,0
175290,note_on,6,0,10,,,,,,,,8,,,53,0
175320,note_on,0,0,10,,,,,,,,8,,,53,96
175320,note_on,34,0,8,,,,,,,,4,,,60,127
175320,note_on,44,0,11,,,,,,,,10,,,46,96
175320,note_on,0,0,8,,,,,,,,4,,,72,127
175320,note_on,44,0,12,,,,,,,,11,,,34,64
175320,note_on,30,0,10,,,,,,,,8,,,56,96
175380,note_on,60,0,8,,,,,,,,4,,,60,0
175404,note_on,0,0,10,,,,,,,,8,,,56,0
175404,note_on,24,0,8,,,,,,,,4,,,72,0
175404,note_on,84,0,10,,,,,,,,8,,,53,0
175406,note_on,86,0,12,,,,,,,,11,,,34,0
175406,note_on,86,0,11,,,,,,,,10,,,46,0
175440,note_on,0,0,10,,,,,,,,8,,,53,96
175440,note_on,34,0,11,,,,,,,,10,,,46,96
175440,note_on,34,0,12,,,,,,,,11,,,34,64
175440,note_on,36,0,8,,,,,,,,4,,,58,127
175440,note_on,0,0,8,,,,,,,,4,,,70,127
175440,note_on,36,0,10,,,,,,,,8,,,56,96
175520,note_on,80,0,8,,,,,,,,4,,,58,0
175520,note_on,80,0,10,,,,,,,,8,,,56,0
175522,note_on,82,0,12,,,,,,,,11,,,34,0
175522,note_on,82,0,11,,,,,,,,10,,,46,0
175522,note_on,2,0,10,,,,,,,,8,,,53,0
175524,note_on,4,0,8,,,,,,,,4,,,70,0
175560,note_on,0,0,8,,,,,,,,4,,,56,127
175560,note_on,36,0,8,,,,,,,,4,,,68,127
175560,note_on,38,0,12,,,,,,,,11,,,34,64
175560,note_on,38,0,11,,,,,,,,10,,,46,96
175560,note_on,38,0,10,,,,,,,,8,,,53,96
175560,note_on,0,0,10,,,,,,,,8,,,56,96
175636,note_on,76,0,11,,,,,,,,10,,,46,0
175636,note_on,76,0,12,,,,,,,,11,,,34,0
175644,note_on,84,0,8,,,,,,,,4,,,68,0
175650,note_on,6,0,8,,,,,,,,4,,,56,0
175654,note_on,94,0,10,,,,,,,,8,,,53,0
175656,note_on,2,0,10,,,,,,,,8,,,56,0
175680,note_on,876,0,3,,,,,,,,2,,,63,64
175680,note_on,0,0,4,,,,,,,,3,,,55,64
175680,note_on,880,0,4,,,,,,,,3,,,51,64
175680,note_on,24,0,10,,,,,,,,8,,,51,127
175680,note_on,0,0,10,,,,,,,,8,,,55,127
175680,note_on,0,0,1,,,,,,,,0,,,87,64
175680,note_on,894,0,2,,,,,,,,1,,,75,64
175680,note_on,44,0,11,,,,,,,,10,,,51,127
175680,note_on,30,0,8,,,,,,,,4,,,67,127
175680,note_on,0,0,8,,,,,,,,4,,,55,127
175680,note_on,0,0,2,,,,,,,,1,,,79,64
175680,note_on,44,0,12,,,,,,,,11,,,39,96
175680,note_on,874,0,1,,,,,,,,0,,,79,64
175680,note_on,0,0,3,,,,,,,,2,,,67,64
175714,note_on,34,0,2,,,,,,,,1,,,75,0
175726,note_on,12,0,2,,,,,,,,1,,,79,0
175736,note_on,56,0,4,,,,,,,,3,,,51,0
175742,note_on,62,0,1,,,,,,,,0,,,79,0
175746,note_on,10,0,4,,,,,,,,3,,,55,0
175746,note_on,66,0,3,,,,,,,,2,,,63,0
175750,note_on,8,0,1,,,,,,,,0,,,87,0
175752,note_on,6,0,3,,,,,,,,2,,,67,0
175764,note_on,84,0,8,,,,,,,,4,,,67,0
175776,note_on,96,0,12,,,,,,,,11,,,39,0
175776,note_on,96,0,11,,,,,,,,10,,,51,0
175786,note_on,22,0,8,,,,,,,,4,,,55,0
175824,note_on,144,0,10,,,,,,,,8,,,51,0
175832,note_on,8,0,10,,,,,,,,8,,,55,0
175920,note_on,194,0,2,,,,,,,,1,,,70,64
175920,note_on,0,0,2,,,,,,,,1,,,79,64
175920,note_on,174,0,4,,,,,,,,3,,,63,64
176232,note_on,0,0,2,,,,,,,,1,,,70,0
176232,note_on,312,0,2,,,,,,,,1,,,79,0
176306,note_on,386,0,4,,,,,,,,3,,,63,0
176400,note_on,168,0,2,,,,,,,,1,,,70,64
176400,note_on,0,0,2,,,,,,,,1,,,78,64
176400,note_on,94,0,4,,,,,,,,3,,,62,64
176444,note_on,44,0,2,,,,,,,,1,,,70,0
176456,note_on,12,0,2,,,,,,,,1,,,78,0
176462,note_on,62,0,4,,,,,,,,3,,,62,0
176640,note_on,184,0,2,,,,,,,,1,,,79,64
176640,note_on,0,0,2,,,,,,,,1,,,70,64
176640,control_change,854,0,8,,,,,,,,4,7,90,,
176640,note_on,178,0,4,,,,,,,,3,,,63,64
176690,note_on,50,0,2,,,,,,,,1,,,70,0
176696,note_on,6,0,2,,,,,,,,1,,,79,0
176704,note_on,64,0,4,,,,,,,,3,,,63,0
176760,note_on,120,0,8,,,,,,,,4,,,58,96
176880,note_on,0,0,2,,,,,,,,1,,,77,64
176880,note_on,176,0,4,,,,,,,,3,,,62,64
176880,note_on,120,0,8,,,,,,,,4,,,60,96
176880,note_on,184,0,2,,,,,,,,1,,,70,64
176932,note_on,52,0,2,,,,,,,,1,,,70,0
176934,note_on,2,0,2,,,,,,,,1,,,77,0
176936,note_on,56,0,8,,,,,,,,4,,,58,0
176940,note_on,60,0,4,,,,,,,,3,,,62,0
177000,note_on,64,0,8,,,,,,,,4,,,62,96
177062,note_on,62,0,8,,,,,,,,4,,,60,0
177120,note_on,186,0,2,,,,,,,,1,,,75,64
177120,note_on,0,0,2,,,,,,,,1,,,70,64
177120,note_on,180,0,4,,,,,,,,3,,,60,64
177120,note_on,58,0,8,,,,,,,,4,,,63,96
177170,note_on,50,0,2,,,,,,,,1,,,70,0
177170,note_on,0,0,2,,,,,,,,1,,,75,0
177190,note_on,70,0,8,,,,,,,,4,,,62,0
177192,note_on,72,0,4,,,,,,,,3,,,60,0
177240,note_on,50,0,8,,,,,,,,4,,,65,96
177286,note_on,46,0,8,,,,,,,,4,,,63,0
177360,note_on,74,0,8,,,,,,,,4,,,67,96
177360,note_on,168,0,4,,,,,,,,3,,,65,64
177360,note_on,1584,0,11,,,,,,,,10,,,53,96
177360,note_on,1584,0,12,,,,,,,,11,,,41,64
177360,note_on,0,0,4,,,,,,,,3,,,67,64
177360,note_on,190,0,2,,,,,,,,1,,,69,64
177360,note_on,0,0,2,,,,,,,,1,,,75,64
177402,note_on,42,0,4,,,,,,,,3,,,65,0
177406,note_on,4,0,4,,,,,,,,3,,,67,0
177406,note_on,46,0,2,,,,,,,,1,,,75,0
177406,note_on,0,0,2,,,,,,,,1,,,69,0
177424,note_on,64,0,8,,,,,,,,4,,,65,0
177440,note_on,80,0,11,,,,,,,,10,,,53,0
177440,note_on,80,0,12,,,,,,,,11,,,41,0
177480,note_on,56,0,8,,,,,,,,4,,,63,96
177520,note_on,40,0,8,,,,,,,,4,,,67,0
177600,note_on,194,0,2,,,,,,,,1,,,70,64
177600,note_on,0,0,2,,,,,,,,1,,,74,64
177600,note_on,160,0,11,,,,,,,,10,,,46,96
177600,note_on,194,0,4,,,,,,,,3,,,58,64
177600,note_on,80,0,8,,,,,,,,4,,,62,96
177600,note_on,160,0,12,,,,,,,,11,,,34,64
177630,note_on,30,0,2,,,,,,,,1,,,70,0
177640,note_on,10,0,2,,,,,,,,1,,,74,0
177640,note_on,40,0,8,,,,,,,,4,,,63,0
177672,note_on,72,0,4,,,,,,,,3,,,58,0
177674,note_on,74,0,11,,,,,,,,10,,,46,0
177674,note_on,74,0,12,,,,,,,,11,,,34,0
177690,note_on,50,0,8,,,,,,,,4,,,62,0
177840,note_on,2008,0,10,,,,,,,,8,,,53,96
177840,note_on,166,0,11,,,,,,,,10,,,58,96
177840,note_on,0,0,10,,,,,,,,8,,,61,96
177840,note_on,0,0,1,,,,,,,,0,,,85,64
177840,note_on,2090,0,1,,,,,,,,0,,,77,64
177840,note_on,150,0,8,,,,,,,,4,,,73,96
177840,note_on,166,0,12,,,,,,,,11,,,46,64
177840,note_on,2088,0,3,,,,,,,,2,,,65,64
177840,note_on,0,0,3,,,,,,,,2,,,73,64
178156,note_on,316,0,10,,,,,,,,8,,,53,0
178164,note_on,0,0,1,,,,,,,,0,,,77,0
178164,note_on,324,0,1,,,,,,,,0,,,85,0
178176,note_on,20,0,10,,,,,,,,8,,,61,0
178192,note_on,352,0,3,,,,,,,,2,,,65,0
178216,note_on,24,0,3,,,,,,,,2,,,73,0
178224,note_on,384,0,12,,,,,,,,11,,,46,0
178224,note_on,384,0,11,,,,,,,,10,,,58,0
178236,note_on,396,0,8,,,,,,,,4,,,73,0
178320,note_on,0,0,1,,,,,,,,0,,,77,64
178320,note_on,144,0,10,,,,,,,,8,,,53,96
178320,note_on,0,0,10,,,,,,,,8,,,60,96
178320,note_on,84,0,8,,,,,,,,4,,,72,96
178320,note_on,96,0,12,,,,,,,,11,,,45,64
178320,note_on,156,0,1,,,,,,,,0,,,84,64
178320,note_on,104,0,3,,,,,,,,2,,,72,64
178320,note_on,0,0,3,,,,,,,,2,,,65,64
178320,note_on,96,0,11,,,,,,,,10,,,57,96
178372,note_on,52,0,3,,,,,,,,2,,,72,0
178380,note_on,60,0,1,,,,,,,,0,,,84,0
178380,note_on,8,0,3,,,,,,,,2,,,65,0
178382,note_on,2,0,1,,,,,,,,0,,,77,0
178392,note_on,72,0,10,,,,,,,,8,,,60,0
178392,note_on,72,0,12,,,,,,,,11,,,45,0
178392,note_on,0,0,10,,,,,,,,8,,,53,0
178392,note_on,72,0,11,,,,,,,,10,,,57,0
178402,note_on,82,0,8,,,,,,,,4,,,72,0
178560,note_on,158,0,8,,,,,,,,4,,,73,96
178560,note_on,178,0,1,,,,,,,,0,,,85,64
178560,note_on,0,0,1,,,,,,,,0,,,77,64
178560,note_on,0,0,10,,,,,,,,8,,,61,96
178560,note_on,168,0,12,,,,,,,,11,,,46,64
178560,note_on,180,0,3,,,,,,,,2,,,73,64
178560,note_on,0,0,3,,,,,,,,2,,,65,64
178560,note_on,168,0,11,,,,,,,,10,,,58,96
178560,note_on,168,0,10,,,,,,,,8,,,53,96
178606,note_on,46,0,1,,,,,,,,0,,,77,0
178610,note_on,50,0,3,,,,,,,,2,,,65,0
178616,note_on,6,0,3,,,,,,,,2,,,73,0
178622,note_on,16,0,1,,,,,,,,0,,,85,0
178630,note_on,70,0,10,,,,,,,,8,,,53,0
178632,note_on,72,0,8,,,,,,,,4,,,73,0
178634,note_on,4,0,10,,,,,,,,8,,,61,0
178644,note_on,84,0,12,,,,,,,,11,,,46,0
178644,note_on,84,0,11,,,,,,,,10,,,58,0
178680,note_on,48,0,8,,,,,,,,4,,,65,96
178800,note_on,178,0,1,,,,,,,,0,,,77,64
178800,note_on,0,0,1,,,,,,,,0,,,84,64
178800,note_on,156,0,11,,,,,,,,10,,,56,96
178800,note_on,184,0,3,,,,,,,,2,,,65,64
178800,note_on,156,0,12,,,,,,,,11,,,44,64
178800,note_on,0,0,10,,,,,,,,8,,,60,96
178800,note_on,166,0,10,,,,,,,,8,,,53,96
178800,note_on,0,0,8,,,,,,,,4,,,67,96
178800,note_on,120,0,8,,,,,,,,4,,,72,96
178800,note_on,0,0,3,,,,,,,,2,,,72,64
178822,note_on,22,0,8,,,,,,,,4,,,65,0
178850,note_on,50,0,3,,,,,,,,2,,,65,0
178852,note_on,52,0,1,,,,,,,,0,,,77,0
178860,note_on,8,0,1,,,,,,,,0,,,84,0
178862,note_on,12,0,3,,,,,,,,2,,,72,0
178870,note_on,70,0,10,,,,,,,,8,,,53,0
178870,note_on,48,0,8,,,,,,,,4,,,72,0
178872,note_on,2,0,10,,,,,,,,8,,,60,0
178882,note_on,82,0,12,,,,,,,,11,,,44,0
178882,note_on,82,0,11,,,,,,,,10,,,56,0
178920,note_on,50,0,8,,,,,,,,4,,,68,96
178942,note_on,22,0,8,,,,,,,,4,,,67,0
179040,note_on,0,0,1,,,,,,,,0,,,82,64
179040,note_on,0,0,3,,,,,,,,2,,,70,64
179040,note_on,158,0,12,,,,,,,,11,,,43,64
179040,note_on,168,0,10,,,,,,,,8,,,53,96
179040,note_on,98,0,8,,,,,,,,4,,,70,96
179040,note_on,178,0,3,,,,,,,,2,,,65,64
179040,note_on,158,0,11,,,,,,,,10,,,55,96
179040,note_on,0,0,10,,,,,,,,8,,,58,96
179040,note_on,180,0,1,,,,,,,,0,,,77,64
179062,note_on,22,0,8,,,,,,,,4,,,68,0
179090,note_on,50,0,1,,,,,,,,0,,,77,0
179096,note_on,56,0,3,,,,,,,,2,,,65,0
179096,note_on,6,0,1,,,,,,,,0,,,82,0
179102,note_on,6,0,3,,,,,,,,2,,,70,0
179110,note_on,48,0,8,,,,,,,,4,,,70,0
179112,note_on,72,0,10,,,,,,,,8,,,53,0
179114,note_on,2,0,10,,,,,,,,8,,,58,0
179116,note_on,76,0,12,,,,,,,,11,,,43,0
179116,note_on,76,0,11,,,,,,,,10,,,55,0
179160,note_on,50,0,8,,,,,,,,4,,,72,96
179280,note_on,184,0,1,,,,,,,,0,,,76,64
179280,note_on,164,0,12,,,,,,,,11,,,48,64
179280,note_on,164,0,11,,,,,,,,10,,,60,96
179280,note_on,178,0,3,,,,,,,,2,,,64,64
179280,note_on,0,0,1,,,,,,,,0,,,82,64
179280,note_on,0,0,3,,,,,,,,2,,,70,64
179280,note_on,0,0,10,,,,,,,,8,,,52,100
179280,note_on,166,0,10,,,,,,,,8,,,58,96
179280,note_on,0,0,8,,,,,,,,4,,,73,96
179280,note_on,120,0,8,,,,,,,,4,,,70,96
179302,note_on,22,0,8,,,,,,,,4,,,72,0
179332,note_on,52,0,1,,,,,,,,0,,,76,0
179334,note_on,54,0,3,,,,,,,,2,,,64,0
179340,note_on,8,0,1,,,,,,,,0,,,82,0
179344,note_on,10,0,3,,,,,,,,2,,,70,0
179354,note_on,52,0,8,,,,,,,,4,,,70,0
179360,note_on,80,0,11,,,,,,,,10,,,60,0
179360,note_on,80,0,12,,,,,,,,11,,,48,0
179364,note_on,84,0,10,,,,,,,,8,,,58,0
179380,note_on,16,0,10,,,,,,,,8,,,52,0
179400,note_on,46,0,8,,,,,,,,4,,,70,96
179422,note_on,22,0,8,,,,,,,,4,,,73,0
179520,note_on,160,0,11,,,,,,,,10,,,53,96
179520,note_on,180,0,1,,,,,,,,0,,,77,64
179520,note_on,160,0,12,,,,,,,,11,,,41,64
179520,note_on,0,0,1,,,,,,,,0,,,80,64
179520,note_on,140,0,10,,,,,,,,8,,,53,96
179520,note_on,0,0,10,,,,,,,,8,,,56,96
179520,note_on,176,0,3,,,,,,,,2,,,68,64
179520,note_on,0,0,3,,,,,,,,2,,,65,64
179520,note_on,98,0,8,,,,,,,,4,,,68,96
179542,note_on,22,0,8,,,,,,,,4,,,70,0
179570,note_on,50,0,1,,,,,,,,0,,,77,0
179594,note_on,24,0,1,,,,,,,,0,,,80,0
179604,note_on,84,0,10,,,,,,,,8,,,53,0
179604,note_on,84,0,12,,,,,,,,11,,,41,0
179604,note_on,84,0,3,,,,,,,,2,,,68,0
179604,note_on,84,0,11,,,,,,,,10,,,53,0
179606,note_on,2,0,10,,,,,,,,8,,,56,0
179606,note_on,2,0,3,,,,,,,,2,,,65,0
179616,note_on,74,0,8,,,,,,,,4,,,68,0
179760,note_on,0,0,2,,,,,,,,1,,,80,64
179760,note_on,2120,0,2,,,,,,,,1,,,72,64
179760,note_on,2088,0,4,,,,,,,,3,,,65,64
180080,note_on,320,0,2,,,,,,,,1,,,72,0
180100,note_on,20,0,2,,,,,,,,1,,,80,0
180122,note_on,362,0,4,,,,,,,,3,,,65,0
180240,note_on,118,0,4,,,,,,,,3,,,64,64
180240,note_on,0,0,2,,,,,,,,1,,,72,64
180240,note_on,140,0,2,,,,,,,,1,,,79,64
180290,note_on,50,0,2,,,,,,,,1,,,79,0
180296,note_on,6,0,2,,,,,,,,1,,,72,0
180310,note_on,70,0,4,,,,,,,,3,,,64,0
180480,note_on,170,0,4,,,,,,,,3,,,65,64
180480,note_on,0,0,2,,,,,,,,1,,,72,64
180480,note_on,184,0,2,,,,,,,,1,,,80,64
180522,note_on,42,0,2,,,,,,,,1,,,72,0
180534,note_on,12,0,2,,,,,,,,1,,,80,0
180550,note_on,70,0,4,,,,,,,,3,,,65,0
180600,note_on,984,0,8,,,,,,,,4,,,60,96
180720,note_on,186,0,2,,,,,,,,1,,,72,64
180720,note_on,170,0,4,,,,,,,,3,,,63,64
180720,note_on,120,0,8,,,,,,,,4,,,62,96
180720,note_on,0,0,2,,,,,,,,1,,,79,64
180770,note_on,50,0,2,,,,,,,,1,,,72,0
180776,note_on,6,0,2,,,,,,,,1,,,79,0
180780,note_on,60,0,8,,,,,,,,4,,,60,0
180794,note_on,74,0,4,,,,,,,,3,,,63,0
180840,note_on,60,0,8,,,,,,,,4,,,63,96
180882,note_on,42,0,8,,,,,,,,4,,,62,0
180960,note_on,78,0,8,,,,,,,,4,,,65,96
180960,note_on,184,0,2,,,,,,,,1,,,72,64
180960,note_on,0,0,2,,,,,,,,1,,,77,64
180960,note_on,166,0,4,,,,,,,,3,,,62,64
181014,note_on,54,0,2,,,,,,,,1,,,72,0
181016,note_on,2,0,2,,,,,,,,1,,,77,0
181020,note_on,60,0,8,,,,,,,,4,,,63,0
181040,note_on,80,0,4,,,,,,,,3,,,62,0
181080,note_on,60,0,8,,,,,,,,4,,,67,96
181144,note_on,64,0,8,,,,,,,,4,,,65,0
181200,note_on,0,0,2,,,,,,,,1,,,77,64
181200,note_on,160,0,4,,,,,,,,3,,,67,64
181200,note_on,1594,0,10,,,,,,,,8,,,55,96
181200,note_on,1596,0,12,,,,,,,,11,,,31,64
181200,note_on,56,0,8,,,,,,,,4,,,68,96
181200,note_on,184,0,2,,,,,,,,1,,,71,64
181200,note_on,1596,0,11,,,,,,,,10,,,43,96
181252,note_on,52,0,2,,,,,,,,1,,,71,0
181254,note_on,54,0,8,,,,,,,,4,,,67,0
181256,note_on,4,0,2,,,,,,,,1,,,77,0
181264,note_on,64,0,4,,,,,,,,3,,,67,0
181284,note_on,84,0,12,,,,,,,,11,,,31,0
181284,note_on,84,0,11,,,,,,,,10,,,43,0
181290,note_on,90,0,10,,,,,,,,8,,,55,0
181320,note_on,66,0,8,,,,,,,,4,,,65,96
181340,note_on,20,0,8,,,,,,,,4,,,68,0
181440,note_on,156,0,11,,,,,,,,10,,,48,96
181440,note_on,184,0,2,,,,,,,,1,,,75,64
181440,note_on,0,0,2,,,,,,,,1,,,72,64
181440,note_on,156,0,12,,,,,,,,11,,,36,64
181440,note_on,150,0,10,,,,,,,,8,,,60,96
181440,note_on,100,0,8,,,,,,,,4,,,63,96
181440,note_on,176,0,4,,,,,,,,3,,,60,64
181476,note_on,36,0,8,,,,,,,,4,,,65,0
181494,note_on,54,0,2,,,,,,,,1,,,75,0
181496,note_on,2,0,2,,,,,,,,1,,,72,0
181506,note_on,66,0,4,,,,,,,,3,,,60,0
181512,note_on,72,0,11,,,,,,,,10,,,48,0
181512,note_on,72,0,12,,,,,,,,11,,,36,0
181514,note_on,74,0,10,,,,,,,,8,,,60,0
181630,note_on,154,0,8,,,,,,,,4,,,63,0
181680,note_on,174,0,4,,,,,,,,3,,,60,64
181680,note_on,0,0,4,,,,,,,,3,,,63,64
181680,note_on,166,0,10,,,,,,,,8,,,60,96
181680,note_on,2086,0,1,,,,,,,,0,,,87,64
181680,note_on,0,0,1,,,,,,,,0,,,79,64
181680,note_on,0,0,3,,,,,,,,2,,,75,64
181680,note_on,168,0,12,,,,,,,,11,,,48,64
181680,note_on,2074,0,3,,,,,,,,2,,,67,64
181680,note_on,168,0,11,,,,,,,,10,,,60,96
181760,note_on,80,0,10,,,,,,,,8,,,60,0
182034,note_on,354,0,4,,,,,,,,3,,,60,0
182034,note_on,354,0,1,,,,,,,,0,,,87,0
182044,note_on,364,0,3,,,,,,,,2,,,67,0
182046,note_on,12,0,4,,,,,,,,3,,,63,0
182050,note_on,16,0,1,,,,,,,,0,,,79,0
182062,note_on,18,0,3,,,,,,,,2,,,75,0
182086,note_on,406,0,11,,,,,,,,10,,,60,0
182086,note_on,406,0,12,,,,,,,,11,,,48,0
182160,note_on,74,0,11,,,,,,,,10,,,59,96
182160,note_on,110,0,1,,,,,,,,0,,,79,64
182160,note_on,400,0,10,,,,,,,,8,,,59,96
182160,note_on,0,0,3,,,,,,,,2,,,67,64
182160,note_on,114,0,4,,,,,,,,3,,,62,64
182160,note_on,0,0,4,,,,,,,,3,,,59,64
182160,note_on,98,0,3,,,,,,,,2,,,74,64
182160,note_on,0,0,1,,,,,,,,0,,,86,64
182160,note_on,74,0,12,,,,,,,,11,,,47,64
182212,note_on,52,0,1,,,,,,,,0,,,79,0
182212,note_on,52,0,3,,,,,,,,2,,,74,0
182214,note_on,54,0,4,,,,,,,,3,,,59,0
182214,note_on,2,0,1,,,,,,,,0,,,86,0
182214,note_on,0,0,4,,,,,,,,3,,,62,0
182222,note_on,10,0,3,,,,,,,,2,,,67,0
182226,note_on,66,0,11,,,,,,,,10,,,59,0
182226,note_on,66,0,12,,,,,,,,11,,,47,0
182234,note_on,74,0,10,,,,,,,,8,,,59,0
182400,note_on,174,0,11,,,,,,,,10,,,60,96
182400,note_on,0,0,4,,,,,,,,3,,,63,64
182400,note_on,0,0,1,,,,,,,,0,,,87,64
182400,note_on,186,0,4,,,,,,,,3,,,60,64
182400,note_on,186,0,1,,,,,,,,0,,,79,64
182400,note_on,174,0,12,,,,,,,,11,,,48,64
182400,note_on,178,0,3,,,,,,,,2,,,67,64
182400,note_on,166,0,10,,,,,,,,8,,,60,96
182400,note_on,0,0,3,,,,,,,,2,,,75,64
182450,note_on,50,0,4,,,,,,,,3,,,60,0
182452,note_on,52,0,3,,,,,,,,2,,,67,0
182454,note_on,54,0,1,,,,,,,,0,,,79,0
182460,note_on,10,0,4,,,,,,,,3,,,63,0
182464,note_on,12,0,3,,,,,,,,2,,,75,0
182466,note_on,12,0,1,,,,,,,,0,,,87,0
182470,note_on,70,0,11,,,,,,,,10,,,60,0
182470,note_on,70,0,12,,,,,,,,11,,,48,0
182480,note_on,80,0,10,,,,,,,,8,,,60,0
182520,note_on,890,0,8,,,,,,,,4,,,71,96
182640,note_on,160,0,10,,,,,,,,8,,,58,96
182640,note_on,180,0,4,,,,,,,,3,,,58,64
182640,note_on,120,0,8,,,,,,,,4,,,72,96
182640,note_on,170,0,12,,,,,,,,11,,,46,64
182640,note_on,0,0,4,,,,,,,,3,,,62,64
182640,note_on,170,0,11,,,,,,,,10,,,58,96
182640,note_on,174,0,1,,,,,,,,0,,,79,64
182640,note_on,0,0,1,,,,,,,,0,,,86,64
182640,note_on,176,0,3,,,,,,,,2,,,67,64
182640,note_on,0,0,3,,,,,,,,2,,,74,64
182662,note_on,22,0,8,,,,,,,,4,,,71,0
182690,note_on,50,0,3,,,,,,,,2,,,67,0
182692,note_on,52,0,1,,,,,,,,0,,,79,0
182694,note_on,4,0,3,,,,,,,,2,,,74,0
182696,note_on,56,0,4,,,,,,,,3,,,62,0
182700,note_on,4,0,4,,,,,,,,3,,,58,0
182700,note_on,8,0,1,,,,,,,,0,,,86,0
182712,note_on,72,0,12,,,,,,,,11,,,46,0
182712,note_on,72,0,11,,,,,,,,10,,,58,0
182714,note_on,74,0,10,,,,,,,,8,,,58,0
182760,note_on,98,0,8,,,,,,,,4,,,74,96
182782,note_on,22,0,8,,,,,,,,4,,,72,0
182880,note_on,166,0,10,,,,,,,,8,,,57,96
182880,note_on,0,0,3,,,,,,,,2,,,72,64
182880,note_on,186,0,3,,,,,,,,2,,,67,64
182880,note_on,180,0,1,,,,,,,,0,,,79,64
182880,note_on,168,0,11,,,,,,,,10,,,57,96
182880,note_on,11948,0,5,,,,,,,,5,,,36,64
182880,note_on,0,0,5,,,,,,,,5,,,48,64
182880,note_on,0,0,4,,,,,,,,3,,,57,64
182880,note_on,98,0,8,,,,,,,,4,,,75,96
182880,note_on,180,0,4,,,,,,,,3,,,60,64
182880,note_on,0,0,1,,,,,,,,0,,,84,64
182880,note_on,168,0,12,,,,,,,,11,,,45,64
182902,note_on,22,0,8,,,,,,,,4,,,74,0
182930,note_on,50,0,1,,,,,,,,0,,,79,0
182932,note_on,0,0,3,,,,,,,,2,,,67,0
182932,note_on,52,0,3,,,,,,,,2,,,72,0
182942,note_on,12,0,1,,,,,,,,0,,,84,0
182944,note_on,64,0,4,,,,,,,,3,,,60,0
182946,note_on,2,0,4,,,,,,,,3,,,57,0
182952,note_on,72,0,12,,,,,,,,11,,,45,0
182952,note_on,72,0,11,,,,,,,,10,,,57,0
182960,note_on,80,0,10,,,,,,,,8,,,57,0
183000,note_on,98,0,8,,,,,,,,4,,,76,96
183022,note_on,22,0,8,,,,,,,,4,,,75,0
183120,note_on,168,0,11,,,,,,,,10,,,56,96
183120,note_on,168,0,12,,,,,,,,11,,,44,64
183120,note_on,0,0,3,,,,,,,,2,,,72,64
183120,note_on,188,0,3,,,,,,,,2,,,66,64
183120,note_on,160,0,10,,,,,,,,8,,,56,96
183120,note_on,98,0,8,,,,,,,,4,,,77,96
183120,note_on,0,0,4,,,,,,,,3,,,56,64
183120,note_on,178,0,1,,,,,,,,0,,,78,64
183120,note_on,174,0,4,,,,,,,,3,,,60,64
183120,note_on,0,0,1,,,,,,,,0,,,84,64
183142,note_on,22,0,8,,,,,,,,4,,,76,0
183164,note_on,44,0,1,,,,,,,,0,,,78,0
183164,note_on,44,0,3,,,,,,,,2,,,66,0
183174,note_on,294,0,5,,,,,,,,5,,,36,0
183180,note_on,16,0,1,,,,,,,,0,,,84,0
183182,note_on,8,0,5,,,,,,,,5,,,48,0
183184,note_on,64,0,11,,,,,,,,10,,,56,0
183184,note_on,64,0,12,,,,,,,,11,,,44,0
183186,note_on,22,0,3,,,,,,,,2,,,72,0
183186,note_on,66,0,4,,,,,,,,3,,,56,0
183186,note_on,0,0,4,,,,,,,,3,,,60,0
183190,note_on,70,0,10,,,,,,,,8,,,56,0
183240,note_on,98,0,8,,,,,,,,4,,,78,96
183262,note_on,22,0,8,,,,,,,,4,,,77,0
183360,note_on,98,0,8,,,,,,,,4,,,79,80
183360,note_on,174,0,3,,,,,,,,2,,,67,64
183360,note_on,0,0,5,,,,,,,,5,,,55,64
183360,note_on,0,0,4,,,,,,,,3,,,55,64
183360,note_on,174,0,4,,,,,,,,3,,,59,64
183360,control_change,0,0,8,,,,,,,,4,7,100,,
183360,note_on,180,0,1,,,,,,,,0,,,83,64
183360,note_on,0,0,1,,,,,,,,0,,,79,64
183360,note_on,176,0,12,,,,,,,,11,,,31,64
183360,note_on,170,0,10,,,,,,,,8,,,55,80
183360,note_on,0,0,3,,,,,,,,2,,,71,64
183360,note_on,178,0,5,,,,,,,,5,,,43,64
183360,note_on,176,0,11,,,,,,,,10,,,43,80
183382,note_on,22,0,8,,,,,,,,4,,,78,0
183410,note_on,50,0,3,,,,,,,,2,,,67,0
183414,note_on,54,0,5,,,,,,,,5,,,43,0
183416,note_on,56,0,1,,,,,,,,0,,,79,0
183422,note_on,8,0,5,,,,,,,,5,,,55,0
183422,note_on,12,0,3,,,,,,,,2,,,71,0
183422,note_on,6,0,1,,,,,,,,0,,,83,0
183452,note_on,92,0,10,,,,,,,,8,,,55,0
183466,note_on,106,0,12,,,,,,,,11,,,31,0
183466,note_on,106,0,11,,,,,,,,10,,,43,0
183470,note_on,110,0,4,,,,,,,,3,,,55,0
183480,note_on,14,0,12,,,,,,,,11,,,43,81
183480,note_on,14,0,11,,,,,,,,10,,,55,81
183480,note_on,10,0,4,,,,,,,,3,,,59,0
183502,note_on,120,0,8,,,,,,,,4,,,79,0
183556,note_on,76,0,12,,,,,,,,11,,,43,0
183556,note_on,76,0,11,,,,,,,,10,,,55,0
183600,note_on,44,0,11,,,,,,,,10,,,55,82
183600,note_on,0,0,8,,,,,,,,4,,,62,82
183600,note_on,44,0,12,,,,,,,,11,,,43,82
183600,note_on,98,0,8,,,,,,,,4,,,65,82
183672,note_on,72,0,8,,,,,,,,4,,,62,0
183676,note_on,76,0,11,,,,,,,,10,,,55,0
183676,note_on,76,0,12,,,,,,,,11,,,43,0
183720,note_on,48,0,8,,,,,,,,4,,,60,83
183720,note_on,44,0,12,,,,,,,,11,,,43,83
183720,note_on,44,0,11,,,,,,,,10,,,55,83
183792,note_on,72,0,8,,,,,,,,4,,,60,0
183796,note_on,76,0,11,,,,,,,,10,,,55,0
183796,note_on,76,0,12,,,,,,,,11,,,43,0
183840,note_on,44,0,11,,,,,,,,10,,,55,85
183840,note_on,48,0,8,,,,,,,,4,,,59,85
183840,note_on,44,0,12,,,,,,,,11,,,43,85
183912,note_on,72,0,8,,,,,,,,4,,,59,0
183922,note_on,82,0,11,,,,,,,,10,,,55,0
183922,note_on,82,0,12,,,,,,,,11,,,43,0
183960,note_on,48,0,8,,,,,,,,4,,,55,86
183960,note_on,38,0,11,,,,,,,,10,,,55,86
183960,note_on,38,0,12,,,,,,,,11,,,43,86
183984,note_on,24,0,8,,,,,,,,4,,,65,0
184030,note_on,46,0,8,,,,,,,,4,,,55,0
184032,note_on,72,0,11,,,,,,,,10,,,55,0
184032,note_on,72,0,12,,,,,,,,11,,,43,0
184080,note_on,0,0,8,,,,,,,,4,,,65,87
184080,note_on,48,0,11,,,,,,,,10,,,55,87
184080,note_on,48,0,12,,,,,,,,11,,,43,87
184080,note_on,50,0,8,,,,,,,,4,,,57,87
184146,note_on,66,0,11,,,,,,,,10,,,55,0
184146,note_on,66,0,12,,,,,,,,11,,,43,0
184156,note_on,76,0,8,,,,,,,,4,,,57,0
184164,note_on,8,0,8,,,,,,,,4,,,65,0
184200,note_on,36,0,8,,,,,,,,4,,,59,88
184200,note_on,54,0,11,,,,,,,,10,,,55,88
184200,note_on,54,0,12,,,,,,,,11,,,43,88
184274,note_on,74,0,8,,,,,,,,4,,,59,0
184294,note_on,94,0,12,,,,,,,,11,,,43,0
184294,note_on,94,0,11,,,,,,,,10,,,55,0
184320,note_on,26,0,12,,,,,,,,11,,,31,64
184320,note_on,26,0,11,,,,,,,,10,,,43,90
184320,control_change,46,0,8,,,,,,,,4,7,105,,
184320,note_on,0,0,8,,,,,,,,4,,,60,90
184320,note_on,0,0,8,,,,,,,,4,,,63,90
184396,note_on,76,0,8,,,,,,,,4,,,60,0
184404,note_on,8,0,8,,,,,,,,4,,,63,0
184434,note_on,114,0,11,,,,,,,,10,,,43,0
184434,note_on,114,0,12,,,,,,,,11,,,31,0
184440,note_on,6,0,12,,,,,,,,11,,,43,91
184440,note_on,36,0,8,,,,,,,,4,,,59,91
184440,note_on,6,0,11,,,,,,,,10,,,55,91
184514,note_on,74,0,8,,,,,,,,4,,,59,0
184516,note_on,76,0,11,,,,,,,,10,,,55,0
184516,note_on,76,0,12,,,,,,,,11,,,43,0
184560,note_on,46,0,8,,,,,,,,4,,,72,92
184560,note_on,0,0,8,,,,,,,,4,,,60,92
184560,note_on,1108,0,10,,,,,,,,8,,,48,80
184560,note_on,44,0,12,,,,,,,,11,,,43,92
184560,note_on,44,0,11,,,,,,,,10,,,55,92
184632,note_on,72,0,8,,,,,,,,4,,,60,0
184636,note_on,76,0,11,,,,,,,,10,,,55,0
184636,note_on,76,0,12,,,,,,,,11,,,43,0
184660,note_on,100,0,10,,,,,,,,8,,,48,0
184680,note_on,44,0,11,,,,,,,,10,,,55,94
184680,note_on,20,0,10,,,,,,,,8,,,50,86
184680,note_on,48,0,8,,,,,,,,4,,,62,94
184680,note_on,44,0,12,,,,,,,,11,,,43,94
184754,note_on,74,0,8,,,,,,,,4,,,62,0
184760,note_on,80,0,12,,,,,,,,11,,,43,0
184760,note_on,80,0,11,,,,,,,,10,,,55,0
184762,note_on,82,0,10,,,,,,,,8,,,50,0
184800,note_on,38,0,10,,,,,,,,8,,,51,95
184800,note_on,40,0,12,,,,,,,,11,,,43,95
184800,note_on,46,0,8,,,,,,,,4,,,63,95
184800,note_on,40,0,11,,,,,,,,10,,,55,95
184870,note_on,70,0,8,,,,,,,,4,,,63,0
184876,note_on,76,0,11,,,,,,,,10,,,55,0
184876,note_on,76,0,12,,,,,,,,11,,,43,0
184886,note_on,86,0,10,,,,,,,,8,,,51,0
184920,note_on,50,0,8,,,,,,,,4,,,62,96
184920,note_on,34,0,10,,,,,,,,8,,,50,86
184920,note_on,44,0,11,,,,,,,,10,,,55,96
184920,note_on,44,0,12,,,,,,,,11,,,43,96
184944,note_on,24,0,8,,,,,,,,4,,,72,0
184994,note_on,74,0,12,,,,,,,,11,,,43,0
184994,note_on,50,0,8,,,,,,,,4,,,62,0
184994,note_on,74,0,11,,,,,,,,10,,,55,0
185006,note_on,86,0,10,,,,,,,,8,,,50,0
185040,note_on,34,0,10,,,,,,,,8,,,51,109
185040,note_on,0,0,8,,,,,,,,4,,,72,97
185040,note_on,46,0,8,,,,,,,,4,,,63,97
185040,note_on,46,0,11,,,,,,,,10,,,55,97
185040,note_on,46,0,12,,,,,,,,11,,,43,97
185106,note_on,66,0,8,,,,,,,,4,,,63,0
185120,note_on,80,0,12,,,,,,,,11,,,43,0
185120,note_on,80,0,11,,,,,,,,10,,,55,0
185122,note_on,82,0,10,,,,,,,,8,,,51,0
185124,note_on,18,0,8,,,,,,,,4,,,72,0
185160,note_on,38,0,10,,,,,,,,8,,,53,99
185160,note_on,40,0,11,,,,,,,,10,,,55,99
185160,note_on,40,0,12,,,,,,,,11,,,43,99
185160,note_on,36,0,8,,,,,,,,4,,,66,99
185234,note_on,74,0,10,,,,,,,,8,,,53,0
185234,note_on,74,0,8,,,,,,,,4,,,66,0
185244,note_on,84,0,12,,,,,,,,11,,,43,0
185244,note_on,84,0,11,,,,,,,,10,,,55,0
185280,note_on,0,0,8,,,,,,,,4,,,71,100
185280,note_on,14334,0,7,,,,,,,,7,,,43,100
185280,note_on,36,0,12,,,,,,,,11,,,31,64
185280,note_on,1858,0,5,,,,,,,,5,,,55,64
185280,note_on,0,0,5,,,,,,,,5,,,67,64
185280,note_on,14334,0,6,,,,,,,,6,,,67,64
185280,note_on,46,0,10,,,,,,,,8,,,55,100
185280,note_on,36,0,11,,,,,,,,10,,,43,100
185280,note_on,0,0,6,,,,,,,,6,,,55,64
185280,control_change,46,0,8,,,,,,,,4,7,110,,
185280,note_on,0,0,8,,,,,,,,4,,,67,100
185346,note_on,66,0,8,,,,,,,,4,,,67,0
185364,note_on,18,0,8,,,,,,,,4,,,71,0
185364,note_on,84,0,10,,,,,,,,8,,,55,0
185374,note_on,94,0,12,,,,,,,,11,,,31,0
185374,note_on,0,0,6,,,,,,,,6,,,67,0
185374,note_on,94,0,11,,,,,,,,10,,,43,0
185374,note_on,94,0,7,,,,,,,,7,,,43,0
185374,note_on,94,0,6,,,,,,,,6,,,55,0
185400,note_on,36,0,10,,,,,,,,8,,,54,101
185400,note_on,26,0,11,,,,,,,,10,,,55,101
185400,note_on,36,0,8,,,,,,,,4,,,66,101
185400,note_on,26,0,12,,,,,,,,11,,,43,101
185466,note_on,66,0,8,,,,,,,,4,,,66,0
185476,note_on,76,0,12,,,,,,,,11,,,43,0
185476,note_on,76,0,11,,,,,,,,10,,,55,0
185476,note_on,76,0,10,,,,,,,,8,,,54,0
185520,note_on,44,0,11,,,,,,,,10,,,55,102
185520,note_on,2098,0,1,,,,,,,,0,,,83,64
185520,note_on,2040,0,4,,,,,,,,3,,,62,64
185520,note_on,54,0,8,,,,,,,,4,,,77,102
185520,note_on,0,0,8,,,,,,,,4,,,67,102
185520,note_on,0,0,4,,,,,,,,3,,,65,64
185520,note_on,4024,0,2,,,,,,,,1,,,77,64
185520,note_on,44,0,10,,,,,,,,8,,,55,102
185520,note_on,44,0,12,,,,,,,,11,,,43,102
185520,note_on,0,0,2,,,,,,,,1,,,71,64
185594,note_on,74,0,11,,,,,,,,10,,,55,0
185594,note_on,74,0,12,,,,,,,,11,,,43,0
185604,note_on,84,0,8,,,,,,,,4,,,67,0
185610,note_on,90,0,10,,,,,,,,8,,,55,0
185640,note_on,46,0,11,,,,,,,,10,,,55,104
185640,note_on,30,0,10,,,,,,,,8,,,57,104
185640,note_on,46,0,12,,,,,,,,11,,,43,104
185640,note_on,36,0,8,,,,,,,,4,,,69,104
185710,note_on,70,0,8,,,,,,,,4,,,69,0
185720,note_on,80,0,12,,,,,,,,11,,,43,0
185720,note_on,80,0,11,,,,,,,,10,,,55,0
185722,note_on,82,0,10,,,,,,,,8,,,57,0
185760,note_on,40,0,11,,,,,,,,10,,,55,105
185760,note_on,40,0,12,,,,,,,,11,,,43,105
185760,note_on,50,0,8,,,,,,,,4,,,71,105
185760,note_on,38,0,10,,,,,,,,8,,,59,105
185832,note_on,72,0,12,,,,,,,,11,,,43,0
185832,note_on,72,0,11,,,,,,,,10,,,55,0
185834,note_on,74,0,8,,,,,,,,4,,,71,0
185836,note_on,76,0,10,,,,,,,,8,,,59,0
185880,note_on,48,0,11,,,,,,,,10,,,55,106
185880,note_on,44,0,10,,,,,,,,8,,,55,102
185880,note_on,48,0,12,,,,,,,,11,,,43,106
185880,note_on,46,0,8,,,,,,,,4,,,67,106
185904,note_on,24,0,8,,,,,,,,4,,,77,0
185924,note_on,404,0,2,,,,,,,,1,,,71,0
185936,note_on,416,0,4,,,,,,,,3,,,62,0
185942,note_on,6,0,4,,,,,,,,3,,,65,0
185942,note_on,18,0,2,,,,,,,,1,,,77,0
185944,note_on,424,0,1,,,,,,,,0,,,83,0
185956,note_on,76,0,11,,,,,,,,10,,,55,0
185956,note_on,76,0,12,,,,,,,,11,,,43,0
185964,note_on,60,0,8,,,,,,,,4,,,67,0
185970,note_on,90,0,10,,,,,,,,8,,,55,0
186000,note_on,44,0,11,,,,,,,,10,,,55,107
186000,note_on,0,0,2,,,,,,,,1,,,77,64
186000,note_on,58,0,2,,,,,,,,1,,,71,64
186000,note_on,36,0,8,,,,,,,,4,,,69,107
186000,note_on,0,0,8,,,,,,,,4,,,77,107
186000,note_on,44,0,12,,,,,,,,11,,,43,107
186000,note_on,56,0,1,,,,,,,,0,,,83,64
186000,note_on,58,0,4,,,,,,,,3,,,65,64
186000,note_on,0,0,4,,,,,,,,3,,,62,64
186000,note_on,30,0,10,,,,,,,,8,,,57,106
186050,note_on,50,0,2,,,,,,,,1,,,71,0
186064,note_on,64,0,4,,,,,,,,3,,,65,0
186066,note_on,2,0,4,,,,,,,,3,,,62,0
186070,note_on,20,0,2,,,,,,,,1,,,77,0
186070,note_on,70,0,8,,,,,,,,4,,,69,0
186072,note_on,72,0,1,,,,,,,,0,,,83,0
186074,note_on,74,0,10,,,,,,,,8,,,57,0
186076,note_on,76,0,12,,,,,,,,11,,,43,0
186076,note_on,76,0,11,,,,,,,,10,,,55,0
186084,note_on,14,0,8,,,,,,,,4,,,77,0
186120,note_on,46,0,10,,,,,,,,8,,,59,109
186120,note_on,44,0,11,,,,,,,,10,,,55,109
186120,note_on,36,0,8,,,,,,,,4,,,71,109
186120,note_on,44,0,12,,,,,,,,11,,,43,109
186194,note_on,74,0,8,,,,,,,,4,,,71,0
186200,note_on,80,0,10,,,,,,,,8,,,59,0
186200,note_on,80,0,11,,,,,,,,10,,,55,0
186200,note_on,80,0,12,,,,,,,,11,,,43,0
186240,note_on,170,0,2,,,,,,,,1,,,72,64
186240,note_on,0,0,8,,,,,,,,4,,,72,110
186240,note_on,0,0,6,,,,,,,,6,,,67,64
186240,note_on,866,0,6,,,,,,,,6,,,55,64
186240,note_on,0,0,2,,,,,,,,1,,,75,64
186240,note_on,168,0,1,,,,,,,,0,,,84,64
186240,control_change,46,0,8,,,,,,,,4,7,115,,
186240,note_on,174,0,4,,,,,,,,3,,,63,64
186240,note_on,0,0,8,,,,,,,,4,,,75,110
186240,note_on,40,0,11,,,,,,,,10,,,43,110
186240,note_on,40,0,10,,,,,,,,8,,,60,115
186240,note_on,866,0,7,,,,,,,,7,,,43,110
186240,note_on,0,0,4,,,,,,,,3,,,60,64
186240,note_on,40,0,12,,,,,,,,11,,,31,64
186292,note_on,52,0,2,,,,,,,,1,,,75,0
186300,note_on,60,0,4,,,,,,,,3,,,63,0
186304,note_on,4,0,4,,,,,,,,3,,,60,0
186306,note_on,66,0,8,,,,,,,,4,,,72,0
186310,note_on,18,0,2,,,,,,,,1,,,72,0
186312,note_on,72,0,1,,,,,,,,0,,,84,0
186320,note_on,80,0,10,,,,,,,,8,,,60,0
186324,note_on,18,0,8,,,,,,,,4,,,75,0
186326,note_on,86,0,11,,,,,,,,10,,,43,0
186326,note_on,86,0,12,,,,,,,,11,,,31,0
186336,note_on,96,0,7,,,,,,,,7,,,43,0
186336,note_on,0,0,6,,,,,,,,6,,,55,0
186336,note_on,96,0,6,,,,,,,,6,,,67,0
186360,note_on,40,0,10,,,,,,,,8,,,59,109
186360,note_on,34,0,11,,,,,,,,10,,,55,111
186360,note_on,34,0,12,,,,,,,,11,,,43,111
186360,note_on,36,0,8,,,,,,,,4,,,71,111
186436,note_on,76,0,8,,,,,,,,4,,,71,0
186442,note_on,82,0,11,,,,,,,,10,,,55,0
186442,note_on,82,0,12,,,,,,,,11,,,43,0
186450,note_on,90,0,10,,,,,,,,8,,,59,0
186480,note_on,0,0,1,,,,,,,,0,,,84,64
186480,note_on,38,0,12,,,,,,,,11,,,43,112
186480,note_on,176,0,4,,,,,,,,3,,,60,64
186480,note_on,170,0,2,,,,,,,,1,,,75,64
186480,note_on,0,0,3,,,,,,,,2,,,72,64
186480,note_on,0,0,2,,,,,,,,1,,,84,64
186480,note_on,44,0,8,,,,,,,,4,,,84,112
186480,note_on,0,0,8,,,,,,,,4,,,72,112
186480,note_on,30,0,10,,,,,,,,8,,,60,112
186480,note_on,3058,0,3,,,,,,,,2,,,75,64
186480,note_on,0,0,4,,,,,,,,3,,,63,64
186480,note_on,168,0,1,,,,,,,,0,,,87,64
186480,note_on,38,0,11,,,,,,,,10,,,55,112
186546,note_on,66,0,8,,,,,,,,4,,,72,0
186550,note_on,70,0,11,,,,,,,,10,,,55,0
186550,note_on,70,0,12,,,,,,,,11,,,43,0
186554,note_on,74,0,10,,,,,,,,8,,,60,0
186600,note_on,46,0,10,,,,,,,,8,,,62,127
186600,note_on,50,0,12,,,,,,,,11,,,43,114
186600,note_on,54,0,8,,,,,,,,4,,,74,114
186600,note_on,50,0,11,,,,,,,,10,,,55,114
186666,note_on,66,0,8,,,,,,,,4,,,74,0
186672,note_on,72,0,10,,,,,,,,8,,,62,0
186676,note_on,76,0,11,,,,,,,,10,,,55,0
186676,note_on,76,0,12,,,,,,,,11,,,43,0
186720,note_on,48,0,10,,,,,,,,8,,,63,112
186720,note_on,54,0,8,,,,,,,,4,,,75,115
186720,note_on,44,0,11,,,,,,,,10,,,55,115
186720,note_on,44,0,12,,,,,,,,11,,,43,115
186786,note_on,66,0,8,,,,,,,,4,,,75,0
186794,note_on,74,0,10,,,,,,,,8,,,63,0
186804,note_on,84,0,12,,,,,,,,11,,,43,0
186804,note_on,84,0,11,,,,,,,,10,,,55,0
186834,note_on,354,0,2,,,,,,,,1,,,75,0
186840,note_on,36,0,11,,,,,,,,10,,,55,116
186840,note_on,46,0,10,,,,,,,,8,,,62,110
186840,note_on,36,0,12,,,,,,,,11,,,43,116
186840,note_on,54,0,8,,,,,,,,4,,,74,116
186850,note_on,370,0,3,,,,,,,,2,,,72,0
186856,note_on,22,0,2,,,,,,,,1,,,84,0
186862,note_on,12,0,3,,,,,,,,2,,,75,0
186864,note_on,24,0,8,,,,,,,,4,,,84,0
186876,note_on,396,0,4,,,,,,,,3,,,60,0
186880,note_on,400,0,1,,,,,,,,0,,,84,0
186886,note_on,10,0,4,,,,,,,,3,,,63,0
186890,note_on,10,0,1,,,,,,,,0,,,87,0
186914,note_on,50,0,8,,,,,,,,4,,,74,0
186920,note_on,80,0,10,,,,,,,,8,,,62,0
186922,note_on,82,0,12,,,,,,,,11,,,43,0
186922,note_on,82,0,11,,,,,,,,10,,,55,0
186960,note_on,70,0,1,,,,,,,,0,,,87,64
186960,note_on,0,0,1,,,,,,,,0,,,84,64
186960,note_on,0,0,4,,,,,,,,3,,,63,64
186960,note_on,0,0,8,,,,,,,,4,,,84,117
186960,note_on,74,0,4,,,,,,,,3,,,60,64
186960,note_on,104,0,2,,,,,,,,1,,,75,64
186960,note_on,0,0,2,,,,,,,,1,,,84,64
186960,note_on,0,0,3,,,,,,,,2,,,75,64
186960,note_on,98,0,3,,,,,,,,2,,,72,64
186960,note_on,38,0,12,,,,,,,,11,,,43,117
186960,note_on,38,0,11,,,,,,,,10,,,55,117
186960,note_on,46,0,8,,,,,,,,4,,,75,117
186960,note_on,40,0,10,,,,,,,,8,,,63,113
187022,note_on,62,0,4,,,,,,,,3,,,60,0
187022,note_on,62,0,2,,,,,,,,1,,,75,0
187024,note_on,64,0,1,,,,,,,,0,,,87,0
187026,note_on,4,0,4,,,,,,,,3,,,63,0
187030,note_on,70,0,3,,,,,,,,2,,,72,0
187036,note_on,76,0,10,,,,,,,,8,,,63,0
187036,note_on,14,0,2,,,,,,,,1,,,84,0
187040,note_on,80,0,12,,,,,,,,11,,,43,0
187040,note_on,80,0,8,,,,,,,,4,,,75,0
187040,note_on,16,0,1,,,,,,,,0,,,84,0
187040,note_on,80,0,11,,,,,,,,10,,,55,0
187042,note_on,12,0,3,,,,,,,,2,,,75,0
187044,note_on,4,0,8,,,,,,,,4,,,84,0
187080,note_on,40,0,11,,,,,,,,10,,,55,119
187080,note_on,44,0,10,,,,,,,,8,,,66,117
187080,note_on,36,0,8,,,,,,,,4,,,78,119
187080,note_on,40,0,12,,,,,,,,11,,,43,119
187154,note_on,74,0,8,,,,,,,,4,,,78,0
187164,note_on,84,0,10,,,,,,,,8,,,66,0
187164,note_on,84,0,11,,,,,,,,10,,,55,0
187164,note_on,84,0,12,,,,,,,,11,,,43,0
187200,note_on,36,0,10,,,,,,,,8,,,67,115
187200,note_on,174,0,4,,,,,,,,3,,,59,64
187200,note_on,864,0,7,,,,,,,,7,,,43,64
187200,note_on,158,0,3,,,,,,,,2,,,71,64
187200,note_on,0,0,3,,,,,,,,2,,,74,64
187200,control_change,46,0,8,,,,,,,,4,7,127,,
187200,note_on,0,0,8,,,,,,,,4,,,79,127
187200,note_on,0,0,8,,,,,,,,4,,,83,127
187200,note_on,160,0,1,,,,,,,,0,,,86,64
187200,note_on,0,0,1,,,,,,,,0,,,83,64
187200,note_on,864,0,6,,,,,,,,6,,,55,64
187200,note_on,164,0,2,,,,,,,,1,,,74,64
187200,note_on,0,0,2,,,,,,,,1,,,83,64
187200,note_on,36,0,11,,,,,,,,10,,,55,127
187200,note_on,0,0,6,,,,,,,,6,,,67,64
187200,note_on,36,0,12,,,,,,,,11,,,43,96
187200,note_on,0,0,4,,,,,,,,3,,,62,64
187252,note_on,1972,0,5,,,,,,,,5,,,67,0
187256,note_on,4,0,5,,,,,,,,5,,,55,0
187256,note_on,56,0,4,,,,,,,,3,,,62,0
187262,note_on,6,0,4,,,,,,,,3,,,59,0
187262,note_on,62,0,1,,,,,,,,0,,,86,0
187266,note_on,0,0,3,,,,,,,,2,,,71,0
187266,note_on,66,0,3,,,,,,,,2,,,74,0
187270,note_on,70,0,2,,,,,,,,1,,,74,0
187274,note_on,12,0,1,,,,,,,,0,,,83,0
187276,note_on,76,0,10,,,,,,,,8,,,67,0
187282,note_on,82,0,11,,,,,,,,10,,,55,0
187282,note_on,12,0,2,,,,,,,,1,,,83,0
187282,note_on,82,0,12,,,,,,,,11,,,43,0
187284,note_on,84,0,8,,,,,,,,4,,,79,0
187292,note_on,92,0,6,,,,,,,,6,,,67,0
187292,note_on,92,0,7,,,,,,,,7,,,43,0
187292,note_on,0,0,6,,,,,,,,6,,,55,0
187320,note_on,0,0,8,,,,,,,,4,,,83,127
187320,note_on,36,0,8,,,,,,,,4,,,83,0
187320,note_on,0,0,8,,,,,,,,4,,,79,127
187424,note_on,104,0,8,,,,,,,,4,,,79,0
187440,note_on,0,0,2,,,,,,,,1,,,84,64
187440,note_on,0,0,8,,,,,,,,4,,,84,127
187440,note_on,0,0,8,,,,,,,,4,,,79,127
187440,note_on,158,0,11,,,,,,,,10,,,48,127
187440,note_on,16,0,8,,,,,,,,4,,,83,0
187440,note_on,184,0,5,,,,,,,,5,,,60,64
187440,note_on,0,0,5,,,,,,,,5,,,48,64
187440,note_on,0,0,6,,,,,,,,6,,,72,64
187440,note_on,148,0,6,,,,,,,,6,,,60,64
187440,note_on,158,0,2,,,,,,,,1,,,75,64
187440,note_on,164,0,10,,,,,,,,8,,,63,117
187440,note_on,148,0,7,,,,,,,,7,,,48,64
187440,note_on,178,0,4,,,,,,,,3,,,63,64
187440,note_on,166,0,1,,,,,,,,0,,,87,64
187440,note_on,0,0,1,,,,,,,,0,,,84,64
187440,note_on,158,0,12,,,,,,,,11,,,36,64
187440,note_on,0,0,4,,,,,,,,3,,,60,64
187440,note_on,174,0,3,,,,,,,,2,,,75,64
187440,note_on,0,0,3,,,,,,,,2,,,72,64
187484,note_on,44,0,5,,,,,,,,5,,,60,0
187492,note_on,52,0,1,,,,,,,,0,,,87,0
187494,note_on,54,0,3,,,,,,,,2,,,72,0
187496,note_on,12,0,5,,,,,,,,5,,,48,0
187502,note_on,62,0,4,,,,,,,,3,,,60,0
187502,note_on,0,0,4,,,,,,,,3,,,63,0
187506,note_on,14,0,1,,,,,,,,0,,,84,0
187510,note_on,16,0,3,,,,,,,,2,,,75,0
187514,note_on,74,0,2,,,,,,,,1,,,75,0
187524,note_on,10,0,2,,,,,,,,1,,,84,0
187526,note_on,86,0,11,,,,,,,,10,,,48,0
187526,note_on,86,0,12,,,,,,,,11,,,36,0
187532,note_on,92,0,8,,,,,,,,4,,,79,0
187534,note_on,94,0,10,,,,,,,,8,,,63,0
187552,note_on,0,0,6,,,,,,,,6,,,60,0
187552,note_on,112,0,6,,,,,,,,6,,,72,0
187552,note_on,112,0,7,,,,,,,,7,,,48,0
187560,note_on,0,0,8,,,,,,,,4,,,79,127
187560,note_on,26,0,10,,,,,,,,8,,,63,127
187560,note_on,0,0,8,,,,,,,,4,,,84,127
187560,note_on,28,0,8,,,,,,,,4,,,84,0
187654,note_on,94,0,8,,,,,,,,4,,,79,0
187664,note_on,104,0,10,,,,,,,,8,,,63,0
187680,note_on,156,0,2,,,,,,,,1,,,74,64
187680,note_on,0,0,5,,,,,,,,5,,,55,64
187680,note_on,0,0,8,,,,,,,,4,,,79,127
187680,note_on,26,0,8,,,,,,,,4,,,84,0
187680,note_on,174,0,1,,,,,,,,0,,,86,64
187680,note_on,178,0,4,,,,,,,,3,,,62,64
187680,note_on,0,0,2,,,,,,,,1,,,83,64
187680,note_on,0,0,1,,,,,,,,0,,,83,64
187680,note_on,0,0,6,,,,,,,,6,,,55,64
187680,note_on,184,0,5,,,,,,,,5,,,43,64
187680,note_on,154,0,12,,,,,,,,11,,,43,96
187680,note_on,154,0,11,,,,,,,,10,,,55,127
187680,note_on,0,0,3,,,,,,,,2,,,71,64
187680,note_on,128,0,6,,,,,,,,6,,,67,64
187680,note_on,0,0,8,,,,,,,,4,,,83,127
187680,note_on,0,0,4,,,,,,,,3,,,59,64
187680,note_on,16,0,10,,,,,,,,8,,,62,119
187680,note_on,128,0,7,,,,,,,,7,,,43,64
187680,note_on,170,0,3,,,,,,,,2,,,74,64
187724,note_on,44,0,5,,,,,,,,5,,,43,0
187730,note_on,6,0,5,,,,,,,,5,,,55,0
187736,note_on,56,0,3,,,,,,,,2,,,71,0
187736,note_on,0,0,3,,,,,,,,2,,,74,0
187740,note_on,60,0,4,,,,,,,,3,,,62,0
187742,note_on,62,0,1,,,,,,,,0,,,86,0
187744,note_on,64,0,2,,,,,,,,1,,,74,0
187744,note_on,4,0,4,,,,,,,,3,,,59,0
187752,note_on,10,0,1,,,,,,,,0,,,83,0
187760,note_on,16,0,2,,,,,,,,1,,,83,0
187770,note_on,90,0,8,,,,,,,,4,,,79,0
187772,note_on,92,0,12,,,,,,,,11,,,43,0
187772,note_on,92,0,11,,,,,,,,10,,,55,0
187780,note_on,0,0,6,,,,,,,,6,,,67,0
187780,note_on,100,0,6,,,,,,,,6,,,55,0
187780,note_on,100,0,10,,,,,,,,8,,,62,0
187780,note_on,100,0,7,,,,,,,,7,,,43,0
187800,note_on,0,0,8,,,,,,,,4,,,83,127
187800,note_on,0,0,8,,,,,,,,4,,,79,127
187800,note_on,20,0,10,,,,,,,,8,,,62,127
187800,note_on,30,0,8,,,,,,,,4,,,83,0
187896,note_on,96,0,8,,,,,,,,4,,,79,0
187906,note_on,106,0,10,,,,,,,,8,,,62,0
187920,note_on,0,0,5,,,,,,,,5,,,60,64
187920,note_on,0,0,1,,,,,,,,0,,,84,64
187920,note_on,168,0,1,,,,,,,,0,,,87,64
187920,note_on,148,0,12,,,,,,,,11,,,36,64
187920,note_on,190,0,5,,,,,,,,5,,,48,64
187920,note_on,148,0,11,,,,,,,,10,,,48,127
187920,note_on,0,0,4,,,,,,,,3,,,63,64
187920,note_on,24,0,8,,,,,,,,4,,,83,0
187920,note_on,0,0,8,,,,,,,,4,,,79,127
187920,note_on,0,0,8,,,,,,,,4,,,84,127
187920,note_on,140,0,7,,,,,,,,7,,,48,64
187920,note_on,140,0,6,,,,,,,,6,,,60,64
187920,note_on,160,0,2,,,,,,,,1,,,75,64
187920,note_on,0,0,3,,,,,,,,2,,,75,64
187920,note_on,184,0,3,,,,,,,,2,,,72,64
187920,note_on,0,0,6,,,,,,,,6,,,72,64
187920,note_on,0,0,2,,,,,,,,1,,,84,64
187920,note_on,176,0,4,,,,,,,,3,,,60,64
187920,note_on,14,0,10,,,,,,,,8,,,63,115
187964,note_on,44,0,5,,,,,,,,5,,,48,0
187972,note_on,8,0,5,,,,,,,,5,,,60,0
187982,note_on,62,0,4,,,,,,,,3,,,60,0
187984,note_on,64,0,3,,,,,,,,2,,,72,0
187986,note_on,4,0,4,,,,,,,,3,,,63,0
187992,note_on,72,0,1,,,,,,,,0,,,87,0
187994,note_on,74,0,2,,,,,,,,1,,,75,0
187996,note_on,12,0,3,,,,,,,,2,,,75,0
188000,note_on,6,0,2,,,,,,,,1,,,84,0
188000,note_on,8,0,1,,,,,,,,0,,,84,0
188004,note_on,84,0,11,,,,,,,,10,,,48,0
188004,note_on,84,0,12,,,,,,,,11,,,36,0
188014,note_on,94,0,8,,,,,,,,4,,,79,0
188016,note_on,96,0,10,,,,,,,,8,,,63,0
188022,note_on,0,0,6,,,,,,,,6,,,60,0
188022,note_on,102,0,7,,,,,,,,7,,,48,0
188022,note_on,102,0,6,,,,,,,,6,,,72,0
188040,note_on,24,0,10,,,,,,,,8,,,63,120
188040,note_on,0,0,8,,,,,,,,4,,,84,127
188040,note_on,26,0,8,,,,,,,,4,,,84,0
188040,note_on,0,0,8,,,,,,,,4,,,79,127
188134,note_on,94,0,8,,,,,,,,4,,,79,0
188144,note_on,104,0,10,,,,,,,,8,,,63,0
188160,note_on,26,0,8,,,,,,,,4,,,84,0
188160,note_on,0,0,8,,,,,,,,4,,,83,127
188160,note_on,160,0,2,,,,,,,,1,,,74,64
188160,note_on,0,0,2,,,,,,,,1,,,83,64
188160,note_on,0,0,8,,,,,,,,4,,,79,127
188160,note_on,174,0,4,,,,,,,,3,,,62,64
188160,note_on,138,0,6,,,,,,,,6,,,55,64
188160,note_on,0,0,4,,,,,,,,3,,,59,64
188160,note_on,0,0,5,,,,,,,,5,,,43,64
188160,note_on,188,0,5,,,,,,,,5,,,55,64
188160,note_on,0,0,3,,,,,,,,2,,,74,64
188160,note_on,164,0,3,,,,,,,,2,,,71,64
188160,note_on,156,0,12,,,,,,,,11,,,43,96
188160,note_on,138,0,7,,,,,,,,7,,,43,64
188160,note_on,16,0,10,,,,,,,,8,,,62,120
188160,note_on,0,0,6,,,,,,,,6,,,67,64
188160,note_on,0,0,1,,,,,,,,0,,,83,64
188160,note_on,160,0,1,,,,,,,,0,,,86,64
188160,note_on,156,0,11,,,,,,,,10,,,55,127
188212,note_on,0,0,5,,,,,,,,5,,,55,0
188212,note_on,52,0,5,,,,,,,,5,,,43,0
188220,note_on,60,0,1,,,,,,,,0,,,86,0
188220,note_on,60,0,4,,,,,,,,3,,,59,0
188220,note_on,0,0,4,,,,,,,,3,,,62,0
188222,note_on,0,0,3,,,,,,,,2,,,71,0
188222,note_on,62,0,3,,,,,,,,2,,,74,0
188226,note_on,66,0,2,,,,,,,,1,,,74,0
188232,note_on,12,0,1,,,,,,,,0,,,83,0
188242,note_on,16,0,2,,,,,,,,1,,,83,0
188246,note_on,86,0,11,,,,,,,,10,,,55,0
188246,note_on,86,0,12,,,,,,,,11,,,43,0
188254,note_on,94,0,10,,,,,,,,8,,,62,0
188254,note_on,94,0,6,,,,,,,,6,,,67,0
188254,note_on,0,0,6,,,,,,,,6,,,55,0
188254,note_on,94,0,7,,,,,,,,7,,,43,0
188256,note_on,96,0,8,,,,,,,,4,,,79,0
188280,note_on,26,0,10,,,,,,,,8,,,62,127
188280,note_on,24,0,8,,,,,,,,4,,,83,0
188280,note_on,0,0,8,,,,,,,,4,,,79,127
188280,note_on,0,0,8,,,,,,,,4,,,83,127
188380,note_on,100,0,8,,,,,,,,4,,,79,0
188380,note_on,100,0,10,,,,,,,,8,,,62,0
188400,note_on,180,0,4,,,,,,,,3,,,63,64
188400,note_on,146,0,6,,,,,,,,6,,,60,64
188400,note_on,158,0,2,,,,,,,,1,,,84,64
188400,note_on,20,0,8,,,,,,,,4,,,83,0
188400,note_on,0,0,8,,,,,,,,4,,,79,127
188400,note_on,0,0,8,,,,,,,,4,,,84,127
188400,note_on,20,0,10,,,,,,,,8,,,63,127
188400,note_on,0,0,2,,,,,,,,1,,,75,64
188400,note_on,188,0,5,,,,,,,,5,,,48,64
188400,note_on,0,0,5,,,,,,,,5,,,60,64
188400,note_on,0,0,6,,,,,,,,6,,,72,64
188400,note_on,154,0,11,,,,,,,,10,,,48,127
188400,note_on,0,0,3,,,,,,,,2,,,72,64
188400,note_on,178,0,3,,,,,,,,2,,,75,64
188400,note_on,0,0,4,,,,,,,,3,,,60,64
188400,note_on,146,0,7,,,,,,,,7,,,48,64
188400,note_on,154,0,12,,,,,,,,11,,,36,64
188400,note_on,0,0,1,,,,,,,,0,,,84,64
188400,note_on,168,0,1,,,,,,,,0,,,87,64
188444,note_on,44,0,5,,,,,,,,5,,,60,0
188444,note_on,0,0,5,,,,,,,,5,,,48,0
188452,note_on,52,0,3,,,,,,,,2,,,72,0
188462,note_on,62,0,4,,,,,,,,3,,,60,0
188462,note_on,0,0,4,,,,,,,,3,,,63,0
188466,note_on,66,0,2,,,,,,,,1,,,75,0
188466,note_on,66,0,1,,,,,,,,0,,,87,0
188474,note_on,22,0,3,,,,,,,,2,,,75,0
188476,note_on,10,0,1,,,,,,,,0,,,84,0
188476,note_on,10,0,2,,,,,,,,1,,,84,0
188476,note_on,76,0,12,,,,,,,,11,,,36,0
188476,note_on,76,0,11,,,,,,,,10,,,48,0
188490,note_on,90,0,10,,,,,,,,8,,,63,0
188500,note_on,100,0,8,,,,,,,,4,,,79,0
188502,note_on,102,0,6,,,,,,,,6,,,72,0
188502,note_on,0,0,6,,,,,,,,6,,,60,0
188502,note_on,102,0,7,,,,,,,,7,,,48,0
188520,note_on,30,0,10,,,,,,,,8,,,63,127
188520,note_on,20,0,8,,,,,,,,4,,,84,0
188520,note_on,0,0,8,,,,,,,,4,,,84,127
188520,note_on,0,0,8,,,,,,,,4,,,79,127
188610,note_on,90,0,10,,,,,,,,8,,,63,0
188616,note_on,96,0,8,,,,,,,,4,,,79,0
188640,note_on,164,0,1,,,,,,,,0,,,86,64
188640,note_on,0,0,4,,,,,,,,3,,,59,64
188640,note_on,30,0,10,,,,,,,,8,,,62,125
188640,note_on,138,0,7,,,,,,,,7,,,43,64
188640,note_on,0,0,3,,,,,,,,2,,,71,64
188640,note_on,166,0,3,,,,,,,,2,,,74,64
188640,note_on,196,0,5,,,,,,,,5,,,55,64
188640,note_on,0,0,2,,,,,,,,1,,,83,64
188640,note_on,0,0,5,,,,,,,,5,,,43,64
188640,note_on,164,0,12,,,,,,,,11,,,43,96
188640,note_on,0,0,8,,,,,,,,4,,,79,127
188640,note_on,24,0,8,,,,,,,,4,,,84,0
188640,note_on,0,0,8,,,,,,,,4,,,83,127
188640,note_on,164,0,11,,,,,,,,10,,,55,127
188640,note_on,178,0,4,,,,,,,,3,,,62,64
188640,note_on,138,0,6,,,,,,,,6,,,67,64
188640,note_on,164,0,2,,,,,,,,1,,,74,64
188640,note_on,0,0,1,,,,,,,,0,,,83,64
188640,note_on,0,0,6,,,,,,,,6,,,55,64
188692,note_on,52,0,5,,,,,,,,5,,,43,0
188692,note_on,0,0,5,,,,,,,,5,,,55,0
188694,note_on,54,0,3,,,,,,,,2,,,74,0
188700,note_on,6,0,3,,,,,,,,2,,,71,0
188700,note_on,60,0,4,,,,,,,,3,,,62,0
188702,note_on,62,0,2,,,,,,,,1,,,74,0
188704,note_on,4,0,4,,,,,,,,3,,,59,0
188704,note_on,64,0,1,,,,,,,,0,,,86,0
188712,note_on,8,0,1,,,,,,,,0,,,83,0
188716,note_on,14,0,2,,,,,,,,1,,,83,0
188722,note_on,82,0,11,,,,,,,,10,,,55,0
188722,note_on,82,0,12,,,,,,,,11,,,43,0
188726,note_on,86,0,10,,,,,,,,8,,,62,0
188726,note_on,0,0,6,,,,,,,,6,,,67,0
188726,note_on,86,0,6,,,,,,,,6,,,55,0
188726,note_on,86,0,7,,,,,,,,7,,,43,0
188730,note_on,90,0,8,,,,,,,,4,,,79,0
188760,note_on,0,0,8,,,,,,,,4,,,83,127
188760,note_on,30,0,8,,,,,,,,4,,,83,0
188760,note_on,34,0,10,,,,,,,,8,,,62,127
188760,note_on,0,0,8,,,,,,,,4,,,79,127
188852,note_on,92,0,10,,,,,,,,8,,,62,0
188852,note_on,92,0,8,,,,,,,,4,,,79,0
188880,note_on,28,0,10,,,,,,,,8,,,63,127
188880,note_on,188,0,5,,,,,,,,5,,,48,64
188880,note_on,0,0,5,,,,,,,,5,,,60,64
188880,note_on,158,0,12,,,,,,,,11,,,36,64
188880,note_on,0,0,1,,,,,,,,0,,,87,64
188880,note_on,168,0,1,,,,,,,,0,,,84,64
188880,note_on,154,0,7,,,,,,,,7,,,48,64
188880,note_on,176,0,4,,,,,,,,3,,,60,64
188880,note_on,28,0,8,,,,,,,,4,,,83,0
188880,note_on,0,0,8,,,,,,,,4,,,84,127
188880,note_on,158,0,11,,,,,,,,10,,,48,127
188880,note_on,180,0,3,,,,,,,,2,,,72,64
188880,note_on,0,0,3,,,,,,,,2,,,75,64
188880,note_on,0,0,4,,,,,,,,3,,,63,64
188880,note_on,164,0,2,,,,,,,,1,,,75,64
188880,note_on,0,0,2,,,,,,,,1,,,84,64
188880,note_on,0,0,8,,,,,,,,4,,,79,127
188880,note_on,154,0,6,,,,,,,,6,,,60,64
188880,note_on,0,0,6,,,,,,,,6,,,72,64
188924,note_on,44,0,5,,,,,,,,5,,,48,0
188926,note_on,2,0,5,,,,,,,,5,,,60,0
188930,note_on,50,0,3,,,,,,,,2,,,72,0
188934,note_on,54,0,4,,,,,,,,3,,,60,0
188942,note_on,62,0,2,,,,,,,,1,,,75,0
188944,note_on,10,0,4,,,,,,,,3,,,63,0
188946,note_on,16,0,3,,,,,,,,2,,,75,0
188950,note_on,70,0,1,,,,,,,,0,,,87,0
188950,note_on,0,0,1,,,,,,,,0,,,84,0
188956,note_on,76,0,11,,,,,,,,10,,,48,0
188956,note_on,76,0,12,,,,,,,,11,,,36,0
188956,note_on,14,0,2,,,,,,,,1,,,84,0
188960,note_on,80,0,10,,,,,,,,8,,,63,0
188964,note_on,84,0,8,,,,,,,,4,,,79,0
188974,note_on,94,0,7,,,,,,,,7,,,48,0
188974,note_on,94,0,6,,,,,,,,6,,,72,0
188974,note_on,0,0,6,,,,,,,,6,,,60,0
189000,note_on,40,0,10,,,,,,,,8,,,63,124
189000,note_on,0,0,8,,,,,,,,4,,,79,127
189000,note_on,0,0,8,,,,,,,,4,,,84,127
189000,note_on,36,0,8,,,,,,,,4,,,84,0
189086,note_on,86,0,8,,,,,,,,4,,,79,0
189092,note_on,92,0,10,,,,,,,,8,,,63,0
189120,note_on,0,0,4,,,,,,,,3,,,59,64
189120,note_on,176,0,4,,,,,,,,3,,,62,64
189120,set_tempo,109440,1,0,,,,,,441176,,,,,,
189120,note_on,164,0,11,,,,,,,,10,,,55,127
189120,note_on,164,0,2,,,,,,,,1,,,83,64
189120,note_on,0,0,2,,,,,,,,1,,,74,64
189120,note_on,0,0,5,,,,,,,,5,,,43,64
189120,note_on,28,0,10,,,,,,,,8,,,62,127
189120,note_on,164,0,12,,,,,,,,11,,,43,96
189120,note_on,34,0,8,,,,,,,,4,,,84,0
189120,note_on,0,0,8,,,,,,,,4,,,79,127
189120,note_on,146,0,7,,,,,,,,7,,,43,64
189120,note_on,0,0,8,,,,,,,,4,,,83,127
189120,note_on,194,0,5,,,,,,,,5,,,55,64
189120,note_on,0,0,1,,,,,,,,0,,,86,64
189120,note_on,170,0,1,,,,,,,,0,,,83,64
189120,note_on,146,0,6,,,,,,,,6,,,67,64
189120,note_on,174,0,3,,,,,,,,2,,,71,64
189120,note_on,0,0,6,,,,,,,,6,,,55,64
189120,note_on,0,0,3,,,,,,,,2,,,74,64
189166,note_on,46,0,5,,,,,,,,5,,,43,0
189166,note_on,0,0,5,,,,,,,,5,,,55,0
189184,note_on,64,0,1,,,,,,,,0,,,86,0
189190,note_on,70,0,2,,,,,,,,1,,,74,0
189200,note_on,80,0,4,,,,,,,,3,,,62,0
189204,note_on,4,0,4,,,,,,,,3,,,59,0
189206,note_on,86,0,3,,,,,,,,2,,,71,0
189210,note_on,26,0,1,,,,,,,,0,,,83,0
189212,note_on,6,0,3,,,,,,,,2,,,74,0
189214,note_on,94,0,10,,,,,,,,8,,,62,0
189214,note_on,0,0,6,,,,,,,,6,,,67,0
189214,note_on,94,0,7,,,,,,,,7,,,43,0
189214,note_on,94,0,6,,,,,,,,6,,,55,0
189216,note_on,96,0,12,,,,,,,,11,,,43,0
189216,note_on,96,0,11,,,,,,,,10,,,55,0
189224,note_on,104,0,8,,,,,,,,4,,,79,0
189226,note_on,36,0,2,,,,,,,,1,,,83,0
189240,note_on,16,0,8,,,,,,,,4,,,83,0
189600,note_on,384,0,11,,,,,,,,10,,,55,127
189600,note_on,390,0,1,,,,,,,,0,,,83,64
189600,note_on,0,0,1,,,,,,,,0,,,91,64
189600,note_on,0,0,8,,,,,,,,4,,,62,127
189600,note_on,434,0,5,,,,,,,,5,,,55,64
189600,note_on,0,0,5,,,,,,,,5,,,43,64
189600,note_on,360,0,8,,,,,,,,4,,,71,127
189600,note_on,0,0,6,,,,,,,,6,,,55,64
189600,note_on,386,0,6,,,,,,,,6,,,67,64
189600,note_on,388,0,3,,,,,,,,2,,,67,64
189600,note_on,384,0,12,,,,,,,,11,,,43,96
189600,note_on,0,0,4,,,,,,,,3,,,55,64
189600,note_on,396,0,4,,,,,,,,3,,,67,64
189600,note_on,386,0,7,,,,,,,,7,,,43,64
189600,note_on,374,0,2,,,,,,,,1,,,79,64
189600,note_on,0,0,8,,,,,,,,4,,,55,127
189600,note_on,0,0,8,,,,,,,,4,,,79,127
189600,note_on,0,0,3,,,,,,,,2,,,79,64
189600,note_on,386,0,10,,,,,,,,8,,,67,127
189654,note_on,54,0,5,,,,,,,,5,,,43,0
189654,note_on,0,0,5,,,,,,,,5,,,55,0
189672,note_on,72,0,2,,,,,,,,1,,,79,0
189684,note_on,84,0,1,,,,,,,,0,,,83,0
189684,note_on,84,0,11,,,,,,,,10,,,55,0
189684,note_on,84,0,12,,,,,,,,11,,,43,0
189692,note_on,92,0,7,,,,,,,,7,,,43,0
189692,note_on,92,0,6,,,,,,,,6,,,55,0
189692,note_on,8,0,1,,,,,,,,0,,,91,0
189692,note_on,0,0,6,,,,,,,,6,,,67,0
189694,note_on,94,0,10,,,,,,,,8,,,67,0
189696,note_on,96,0,4,,,,,,,,3,,,67,0
189696,note_on,96,0,3,,,,,,,,2,,,67,0
189702,note_on,6,0,4,,,,,,,,3,,,55,0
189714,note_on,18,0,3,,,,,,,,2,,,79,0
189720,note_on,0,0,8,,,,,,,,4,,,71,0
189720,note_on,120,0,8,,,,,,,,4,,,79,0
189764,note_on,44,0,8,,,,,,,,4,,,55,0
189774,note_on,10,0,8,,,,,,,,4,,,62,0
190080,note_on,396,0,11,,,,,,,,10,,,43,127
190080,note_on,388,0,7,,,,,,,,7,,,43,64
190080,note_on,386,0,10,,,,,,,,8,,,55,127
190080,note_on,378,0,4,,,,,,,,3,,,43,64
190080,note_on,306,0,8,,,,,,,,4,,,55,127
190080,note_on,0,0,6,,,,,,,,6,,,67,64
190080,note_on,388,0,6,,,,,,,,6,,,55,64
190080,note_on,396,0,12,,,,,,,,11,,,31,64
190080,note_on,388,0,1,,,,,,,,0,,,79,64
190080,note_on,426,0,5,,,,,,,,5,,,55,64
190080,note_on,0,0,5,,,,,,,,5,,,43,64
190080,note_on,0,0,4,,,,,,,,3,,,55,64
190080,note_on,366,0,3,,,,,,,,2,,,67,64
190080,note_on,408,0,2,,,,,,,,1,,,67,64
190134,note_on,0,0,5,,,,,,,,5,,,55,0
190134,note_on,54,0,5,,,,,,,,5,,,43,0
190154,note_on,74,0,2,,,,,,,,1,,,67,0
190160,note_on,80,0,1,,,,,,,,0,,,79,0
190162,note_on,82,0,4,,,,,,,,3,,,43,0
190166,note_on,86,0,7,,,,,,,,7,,,43,0
190166,note_on,0,0,6,,,,,,,,6,,,55,0
190166,note_on,86,0,6,,,,,,,,6,,,67,0
190170,note_on,8,0,4,,,,,,,,3,,,55,0
190176,note_on,96,0,11,,,,,,,,10,,,43,0
190176,note_on,96,0,3,,,,,,,,2,,,67,0
190176,note_on,96,0,12,,,,,,,,11,,,31,0
190180,note_on,100,0,10,,,,,,,,8,,,55,0
190200,note_on,120,0,8,,,,,,,,4,,,55,0
191040,note_on,860,0,10,,,,,,,,8,,,60,67
191040,note_on,864,0,11,,,,,,,,10,,,48,67
191040,note_on,886,0,2,,,,,,,,1,,,72,64
191040,set_tempo,1920,1,0,,,,,,394737,,,,,,
191040,note_on,840,0,8,,,,,,,,4,,,60,67
191040,note_on,864,0,12,,,,,,,,11,,,36,64
191102,note_on,62,0,2,,,,,,,,1,,,72,0
191116,note_on,76,0,11,,,,,,,,10,,,48,0
191116,note_on,76,0,12,,,,,,,,11,,,36,0
191120,note_on,80,0,8,,,,,,,,4,,,60,0
191136,note_on,96,0,10,,,,,,,,8,,,60,0
191280,note_on,1120,0,1,,,,,,,,0,,,76,64
191280,note_on,0,0,1,,,,,,,,0,,,79,64
191326,note_on,46,0,1,,,,,,,,0,,,76,0
191352,note_on,26,0,1,,,,,,,,0,,,79,0
191520,note_on,0,0,1,,,,,,,,0,,,84,64
191520,note_on,168,0,1,,,,,,,,0,,,79,64
191566,note_on,46,0,1,,,,,,,,0,,,79,0
191576,note_on,10,0,1,,,,,,,,0,,,84,0
191760,note_on,0,0,1,,,,,,,,0,,,84,64
191760,note_on,184,0,1,,,,,,,,0,,,88,64
191820,note_on,0,0,1,,,,,,,,0,,,88,0
191820,note_on,60,0,1,,,,,,,,0,,,84,0
192000,note_on,0,0,1,,,,,,,,0,,,91,64
192000,note_on,180,0,1,,,,,,,,0,,,88,64
192240,note_on,1138,0,2,,,,,,,,1,,,72,64
192296,note_on,56,0,2,,,,,,,,1,,,72,0
192480,note_on,184,0,2,,,,,,,,1,,,76,64
192534,note_on,54,0,2,,,,,,,,1,,,76,0
192720,note_on,186,0,2,,,,,,,,1,,,79,64
192776,note_on,56,0,2,,,,,,,,1,,,79,0
192960,note_on,1840,0,8,,,,,,,,4,,,72,41
192960,note_on,184,0,2,,,,,,,,1,,,84,64
192982,note_on,982,0,1,,,,,,,,0,,,88,0
192992,note_on,10,0,1,,,,,,,,0,,,91,0
193040,note_on,80,0,2,,,,,,,,1,,,84,0
193066,note_on,106,0,8,,,,,,,,4,,,72,0
193200,note_on,208,0,1,,,,,,,,0,,,88,64
193200,note_on,0,0,1,,,,,,,,0,,,91,64
193440,note_on,400,0,2,,,,,,,,1,,,80,64
193440,note_on,374,0,8,,,,,,,,4,,,68,41
193512,note_on,72,0,2,,,,,,,,1,,,80,0
193532,note_on,92,0,8,,,,,,,,4,,,68,0
193542,note_on,342,0,1,,,,,,,,0,,,88,0
193622,note_on,80,0,1,,,,,,,,0,,,91,0
193680,note_on,0,0,1,,,,,,,,0,,,89,64
193680,note_on,58,0,1,,,,,,,,0,,,86,64
193920,note_on,388,0,8,,,,,,,,4,,,69,41
193920,note_on,408,0,2,,,,,,,,1,,,81,64
193984,note_on,64,0,2,,,,,,,,1,,,81,0
194004,note_on,84,0,8,,,,,,,,4,,,69,0
194062,note_on,382,0,1,,,,,,,,0,,,86,0
194102,note_on,40,0,1,,,,,,,,0,,,89,0
194160,note_on,58,0,1,,,,,,,,0,,,84,64
194160,note_on,0,0,1,,,,,,,,0,,,88,64
194400,note_on,396,0,8,,,,,,,,4,,,65,41
194400,note_on,416,0,2,,,,,,,,1,,,77,64
194464,note_on,64,0,2,,,,,,,,1,,,77,0
194506,note_on,106,0,8,,,,,,,,4,,,65,0
194516,note_on,356,0,1,,,,,,,,0,,,84,0
194562,note_on,46,0,1,,,,,,,,0,,,88,0
194640,note_on,0,0,1,,,,,,,,0,,,89,64
194640,note_on,78,0,1,,,,,,,,0,,,86,64
194706,note_on,0,0,1,,,,,,,,0,,,86,0
194706,note_on,66,0,1,,,,,,,,0,,,89,0
194880,note_on,416,0,2,,,,,,,,1,,,79,64
194880,note_on,3764,0,12,,,,,,,,11,,,31,34
194880,note_on,3764,0,11,,,,,,,,10,,,43,50
194880,note_on,0,0,1,,,,,,,,0,,,83,64
194880,note_on,174,0,1,,,,,,,,0,,,86,64
194880,note_on,3744,0,10,,,,,,,,8,,,55,50
194880,note_on,374,0,8,,,,,,,,4,,,67,50
194942,note_on,62,0,1,,,,,,,,0,,,86,0
194944,note_on,2,0,1,,,,,,,,0,,,83,0
194952,note_on,72,0,2,,,,,,,,1,,,79,0
194980,note_on,100,0,8,,,,,,,,4,,,67,0
194994,note_on,114,0,11,,,,,,,,10,,,43,0
194994,note_on,114,0,12,,,,,,,,11,,,31,0
195044,note_on,164,0,10,,,,,,,,8,,,55,0
195120,note_on,168,0,2,,,,,,,,1,,,67,64
195120,note_on,0,0,2,,,,,,,,1,,,71,64
195154,note_on,34,0,2,,,,,,,,1,,,67,0
195156,note_on,2,0,2,,,,,,,,1,,,71,0
195360,note_on,204,0,2,,,,,,,,1,,,74,64
195360,note_on,0,0,2,,,,,,,,1,,,71,64
195400,note_on,0,0,2,,,,,,,,1,,,74,0
195400,note_on,40,0,2,,,,,,,,1,,,71,0
195600,note_on,200,0,2,,,,,,,,1,,,77,64
195600,note_on,0,0,2,,,,,,,,1,,,74,64
195646,note_on,46,0,2,,,,,,,,1,,,74,0
195650,note_on,4,0,2,,,,,,,,1,,,77,0
195840,note_on,0,0,2,,,,,,,,1,,,81,64
195840,note_on,190,0,2,,,,,,,,1,,,77,64
196080,note_on,5904,0,3,,,,,,,,2,,,67,45
196156,note_on,76,0,3,,,,,,,,2,,,67,0
196320,note_on,164,0,3,,,,,,,,2,,,69,45
196366,note_on,526,0,2,,,,,,,,1,,,81,0
196374,note_on,8,0,2,,,,,,,,1,,,77,0
196380,note_on,60,0,3,,,,,,,,2,,,69,0
196560,note_on,186,0,2,,,,,,,,1,,,77,64
196560,note_on,0,0,2,,,,,,,,1,,,81,64
196560,note_on,180,0,3,,,,,,,,2,,,71,45
196630,note_on,70,0,3,,,,,,,,2,,,71,0
196800,note_on,1820,0,8,,,,,,,,4,,,72,50
196800,note_on,170,0,3,,,,,,,,2,,,72,45
196906,note_on,106,0,3,,,,,,,,2,,,72,0
196912,note_on,112,0,8,,,,,,,,4,,,72,0
197014,note_on,454,0,2,,,,,,,,1,,,77,0
197022,note_on,8,0,2,,,,,,,,1,,,81,0
197040,note_on,0,0,2,,,,,,,,1,,,76,64
197040,note_on,18,0,2,,,,,,,,1,,,79,64
197280,note_on,374,0,3,,,,,,,,2,,,65,45
197280,note_on,368,0,8,,,,,,,,4,,,65,50
197376,note_on,96,0,3,,,,,,,,2,,,65,0
197396,note_on,116,0,8,,,,,,,,4,,,65,0
197440,note_on,400,0,2,,,,,,,,1,,,79,0
197450,note_on,10,0,2,,,,,,,,1,,,76,0
197520,note_on,70,0,2,,,,,,,,1,,,77,64
197520,note_on,0,0,2,,,,,,,,1,,,74,64
197760,note_on,384,0,3,,,,,,,,2,,,67,45
197760,note_on,364,0,8,,,,,,,,4,,,67,50
197860,note_on,100,0,3,,,,,,,,2,,,67,0
197870,note_on,110,0,8,,,,,,,,4,,,67,0
197894,note_on,374,0,2,,,,,,,,1,,,77,0
197916,note_on,22,0,2,,,,,,,,1,,,74,0
198000,note_on,84,0,2,,,,,,,,1,,,72,64
198000,note_on,0,0,2,,,,,,,,1,,,76,64
198240,note_on,380,0,3,,,,,,,,2,,,55,45
198240,note_on,370,0,8,,,,,,,,4,,,55,50
198240,note_on,0,0,3,,,,,,,,2,,,67,45
198326,note_on,86,0,3,,,,,,,,2,,,55,0
198346,note_on,20,0,3,,,,,,,,2,,,67,0
198360,note_on,120,0,8,,,,,,,,4,,,55,0
198392,note_on,392,0,2,,,,,,,,1,,,72,0
198420,note_on,28,0,2,,,,,,,,1,,,76,0
198480,note_on,60,0,2,,,,,,,,1,,,71,64
198480,note_on,0,0,2,,,,,,,,1,,,74,64
198544,note_on,64,0,2,,,,,,,,1,,,71,0
198556,note_on,12,0,2,,,,,,,,1,,,74,0
198720,note_on,360,0,8,,,,,,,,4,,,60,67
198720,note_on,3676,0,10,,,,,,,,8,,,60,67
198720,note_on,3726,0,12,,,,,,,,11,,,36,45
198720,note_on,0,0,2,,,,,,,,1,,,76,64
198720,note_on,374,0,3,,,,,,,,2,,,60,64
198720,note_on,164,0,2,,,,,,,,1,,,72,64
198720,note_on,3726,0,11,,,,,,,,10,,,48,67
198774,note_on,54,0,3,,,,,,,,2,,,60,0
198784,note_on,64,0,2,,,,,,,,1,,,72,0
198792,note_on,8,0,2,,,,,,,,1,,,76,0
198820,note_on,100,0,8,,,,,,,,4,,,60,0
198830,note_on,110,0,12,,,,,,,,11,,,36,0
198830,note_on,110,0,11,,,,,,,,10,,,48,0
198900,note_on,180,0,10,,,,,,,,8,,,60,0
198960,note_on,186,0,3,,,,,,,,2,,,64,64
198960,note_on,8826,0,5,,,,,,,,5,,,52,64
198960,note_on,0,0,5,,,,,,,,5,,,55,64
198960,note_on,0,0,3,,,,,,,,2,,,67,64
199012,note_on,52,0,3,,,,,,,,2,,,64,0
199014,note_on,2,0,3,,,,,,,,2,,,67,0
199032,note_on,72,0,5,,,,,,,,5,,,55,0
199032,note_on,0,0,5,,,,,,,,5,,,52,0
199200,note_on,0,0,3,,,,,,,,2,,,67,64
199200,note_on,186,0,3,,,,,,,,2,,,72,64
199200,note_on,168,0,5,,,,,,,,5,,,60,64
199200,note_on,0,0,5,,,,,,,,5,,,55,64
199262,note_on,0,0,3,,,,,,,,2,,,72,0
199262,note_on,62,0,3,,,,,,,,2,,,67,0
199272,note_on,72,0,5,,,,,,,,5,,,55,0
199272,note_on,0,0,5,,,,,,,,5,,,60,0
199440,note_on,0,0,3,,,,,,,,2,,,76,64
199440,note_on,168,0,5,,,,,,,,5,,,64,64
199440,note_on,0,0,5,,,,,,,,5,,,60,64
199440,note_on,178,0,3,,,,,,,,2,,,72,64
199440,note_on,4496,0,1,,,,,,,,0,,,76,64
199440,note_on,0,0,1,,,,,,,,0,,,79,64
199500,note_on,60,0,3,,,,,,,,2,,,72,0
199504,note_on,4,0,3,,,,,,,,2,,,76,0
199506,note_on,66,0,1,,,,,,,,0,,,76,0
199512,note_on,0,0,5,,,,,,,,5,,,64,0
199512,note_on,72,0,5,,,,,,,,5,,,60,0
199514,note_on,8,0,1,,,,,,,,0,,,79,0
199680,note_on,0,0,5,,,,,,,,5,,,64,64
199680,note_on,166,0,1,,,,,,,,0,,,79,64
199680,note_on,0,0,1,,,,,,,,0,,,84,64
199680,note_on,168,0,5,,,,,,,,5,,,67,64
199680,note_on,0,0,3,,,,,,,,2,,,79,64
199680,note_on,176,0,3,,,,,,,,2,,,76,64
199736,note_on,56,0,1,,,,,,,,0,,,79,0
199750,note_on,14,0,1,,,,,,,,0,,,84,0
199920,note_on,1090,0,12,,,,,,,,11,,,36,45
199920,note_on,1090,0,11,,,,,,,,10,,,48,67
199920,note_on,1100,0,8,,,,,,,,4,,,60,67
199920,note_on,1020,0,10,,,,,,,,8,,,60,67
199920,note_on,170,0,1,,,,,,,,0,,,84,64
199920,note_on,0,0,1,,,,,,,,0,,,88,64
199982,note_on,62,0,1,,,,,,,,0,,,84,0
199986,note_on,4,0,1,,,,,,,,0,,,88,0
199996,note_on,76,0,10,,,,,,,,8,,,60,0
200000,note_on,80,0,8,,,,,,,,4,,,60,0
200014,note_on,94,0,11,,,,,,,,10,,,48,0
200014,note_on,94,0,12,,,,,,,,11,,,36,0
200160,note_on,160,0,8,,,,,,,,4,,,64,67
200160,note_on,174,0,1,,,,,,,,0,,,84,64
200160,note_on,0,0,1,,,,,,,,0,,,91,64
200160,note_on,146,0,11,,,,,,,,10,,,52,67
200160,note_on,146,0,12,,,,,,,,11,,,40,45
200160,note_on,164,0,10,,,,,,,,8,,,64,67
200220,note_on,60,0,1,,,,,,,,0,,,84,0
200232,note_on,72,0,10,,,,,,,,8,,,64,0
200236,note_on,76,0,11,,,,,,,,10,,,52,0
200236,note_on,76,0,12,,,,,,,,11,,,40,0
200240,note_on,80,0,8,,,,,,,,4,,,64,0
200400,note_on,164,0,11,,,,,,,,10,,,55,67
200400,note_on,168,0,10,,,,,,,,8,,,67,67
200400,note_on,180,0,1,,,,,,,,0,,,88,64
200400,note_on,164,0,12,,,,,,,,11,,,43,45
200400,note_on,160,0,8,,,,,,,,4,,,67,67
200466,note_on,66,0,8,,,,,,,,4,,,67,0
200476,note_on,76,0,10,,,,,,,,8,,,67,0
200476,note_on,76,0,12,,,,,,,,11,,,43,0
200476,note_on,76,0,11,,,,,,,,10,,,55,0
200640,note_on,164,0,12,,,,,,,,11,,,48,45
200640,note_on,174,0,8,,,,,,,,4,,,72,67
200640,note_on,164,0,11,,,,,,,,10,,,60,67
200640,note_on,164,0,10,,,,,,,,8,,,72,67
200684,note_on,284,0,1,,,,,,,,0,,,88,0
200700,note_on,16,0,1,,,,,,,,0,,,91,0
200724,note_on,84,0,11,,,,,,,,10,,,60,0
200724,note_on,84,0,12,,,,,,,,11,,,48,0
200726,note_on,86,0,8,,,,,,,,4,,,72,0
200726,note_on,86,0,10,,,,,,,,8,,,72,0
200880,note_on,0,0,1,,,,,,,,0,,,91,64
200880,note_on,180,0,1,,,,,,,,0,,,88,64
200880,note_on,154,0,8,,,,,,,,4,,,79,67
200880,note_on,0,0,8,,,,,,,,4,,,67,67
200934,note_on,1254,0,5,,,,,,,,5,,,64,0
200944,note_on,10,0,5,,,,,,,,5,,,67,0
200950,note_on,70,0,1,,,,,,,,0,,,88,0
200962,note_on,82,0,8,,,,,,,,4,,,79,0
200980,note_on,18,0,8,,,,,,,,4,,,67,0
201000,note_on,50,0,1,,,,,,,,0,,,91,0
201120,note_on,0,0,3,,,,,,,,2,,,77,64
201120,note_on,1440,0,3,,,,,,,,2,,,76,0
201120,note_on,0,0,3,,,,,,,,2,,,74,64
201120,note_on,0,0,5,,,,,,,,5,,,62,64
201120,note_on,10950,0,4,,,,,,,,3,,,59,64
201120,note_on,176,0,5,,,,,,,,5,,,65,64
201120,note_on,396,0,12,,,,,,,,11,,,44,45
201120,note_on,394,0,10,,,,,,,,8,,,68,67
201120,note_on,396,0,11,,,,,,,,10,,,56,67
201124,note_on,4,0,3,,,,,,,,2,,,79,0
201200,note_on,80,0,10,,,,,,,,8,,,68,0
201210,note_on,90,0,12,,,,,,,,11,,,44,0
201210,note_on,90,0,11,,,,,,,,10,,,56,0
201360,note_on,380,0,8,,,,,,,,4,,,83,67
201360,note_on,0,0,8,,,,,,,,4,,,71,67
201360,note_on,360,0,1,,,,,,,,0,,,86,64
201360,note_on,0,0,1,,,,,,,,0,,,89,64
201426,note_on,66,0,1,,,,,,,,0,,,86,0
201440,note_on,80,0,8,,,,,,,,4,,,83,0
201442,note_on,2,0,8,,,,,,,,4,,,71,0
201452,note_on,26,0,1,,,,,,,,0,,,89,0
201590,note_on,466,0,3,,,,,,,,2,,,77,0
201596,note_on,476,0,5,,,,,,,,5,,,65,0
201600,note_on,0,0,3,,,,,,,,2,,,76,64
201600,note_on,480,0,4,,,,,,,,3,,,60,64
201600,note_on,4,0,5,,,,,,,,5,,,64,64
201600,note_on,0,0,5,,,,,,,,5,,,60,64
201600,note_on,10,0,3,,,,,,,,2,,,72,64
201600,note_on,390,0,11,,,,,,,,10,,,57,67
201600,note_on,400,0,10,,,,,,,,8,,,69,67
201600,note_on,390,0,12,,,,,,,,11,,,45,45
201602,note_on,2,0,5,,,,,,,,5,,,62,0
201622,note_on,22,0,3,,,,,,,,2,,,74,0
201642,note_on,42,0,4,,,,,,,,3,,,59,0
201682,note_on,82,0,10,,,,,,,,8,,,69,0
201684,note_on,84,0,12,,,,,,,,11,,,45,0
201684,note_on,84,0,11,,,,,,,,10,,,57,0
201840,note_on,3048,0,2,,,,,,,,1,,,72,64
201840,note_on,398,0,8,,,,,,,,4,,,84,67
201840,note_on,0,0,8,,,,,,,,4,,,72,67
201840,note_on,0,0,2,,,,,,,,1,,,76,64
201840,note_on,388,0,1,,,,,,,,0,,,88,64
201840,note_on,0,0,1,,,,,,,,0,,,84,64
201906,note_on,66,0,2,,,,,,,,1,,,72,0
201914,note_on,74,0,1,,,,,,,,0,,,84,0
201916,note_on,10,0,2,,,,,,,,1,,,76,0
201916,note_on,2,0,1,,,,,,,,0,,,88,0
201930,note_on,90,0,8,,,,,,,,4,,,84,0
201932,note_on,2,0,8,,,,,,,,4,,,72,0
202014,note_on,412,0,5,,,,,,,,5,,,60,0
202036,note_on,22,0,5,,,,,,,,5,,,64,0
202080,note_on,396,0,11,,,,,,,,10,,,53,67
202080,note_on,396,0,12,,,,,,,,11,,,41,45
202080,note_on,438,0,4,,,,,,,,3,,,57,64
202080,note_on,44,0,5,,,,,,,,5,,,62,64
202080,note_on,458,0,3,,,,,,,,2,,,74,64
202080,note_on,0,0,3,,,,,,,,2,,,77,64
202080,note_on,398,0,10,,,,,,,,8,,,65,67
202080,note_on,0,0,5,,,,,,,,5,,,65,64
202114,note_on,34,0,4,,,,,,,,3,,,60,0
202136,note_on,56,0,3,,,,,,,,2,,,72,0
202154,note_on,74,0,10,,,,,,,,8,,,65,0
202156,note_on,20,0,3,,,,,,,,2,,,76,0
202164,note_on,84,0,12,,,,,,,,11,,,41,0
202164,note_on,84,0,11,,,,,,,,10,,,53,0
202320,note_on,388,0,8,,,,,,,,4,,,69,67
202320,note_on,0,0,8,,,,,,,,4,,,81,67
202320,note_on,0,0,2,,,,,,,,1,,,77,64
202320,note_on,404,0,2,,,,,,,,1,,,74,64
202320,note_on,0,0,1,,,,,,,,0,,,89,64
202320,note_on,404,0,1,,,,,,,,0,,,86,64
202374,note_on,54,0,2,,,,,,,,1,,,74,0
202384,note_on,64,0,1,,,,,,,,0,,,86,0
202386,note_on,12,0,2,,,,,,,,1,,,77,0
202396,note_on,12,0,1,,,,,,,,0,,,89,0
202402,note_on,0,0,8,,,,,,,,4,,,69,0
202402,note_on,82,0,8,,,,,,,,4,,,81,0
202462,note_on,382,0,5,,,,,,,,5,,,62,0
202486,note_on,330,0,3,,,,,,,,2,,,74,0
202496,note_on,34,0,5,,,,,,,,5,,,65,0
202506,note_on,20,0,3,,,,,,,,2,,,77,0
202560,note_on,164,0,1,,,,,,,,0,,,83,64
202560,note_on,174,0,2,,,,,,,,1,,,71,64
202560,note_on,0,0,1,,,,,,,,0,,,86,64
202560,note_on,64,0,5,,,,,,,,5,,,62,64
202560,note_on,396,0,12,,,,,,,,11,,,43,45
202560,note_on,0,0,3,,,,,,,,2,,,74,45
202560,note_on,0,0,5,,,,,,,,5,,,55,64
202560,note_on,396,0,11,,,,,,,,10,,,55,67
202560,note_on,446,0,4,,,,,,,,3,,,55,64
202560,note_on,0,0,2,,,,,,,,1,,,74,64
202560,note_on,158,0,8,,,,,,,,4,,,62,67
202560,note_on,406,0,10,,,,,,,,8,,,59,67
202560,note_on,0,0,8,,,,,,,,4,,,74,67
202560,note_on,54,0,3,,,,,,,,2,,,71,45
202604,note_on,44,0,4,,,,,,,,3,,,57,0
202604,note_on,44,0,2,,,,,,,,1,,,71,0
202614,note_on,54,0,3,,,,,,,,2,,,74,0
202620,note_on,60,0,1,,,,,,,,0,,,83,0
202620,note_on,16,0,2,,,,,,,,1,,,74,0
202622,note_on,8,0,3,,,,,,,,2,,,71,0
202626,note_on,6,0,1,,,,,,,,0,,,86,0
202650,note_on,90,0,10,,,,,,,,8,,,59,0
202650,note_on,90,0,11,,,,,,,,10,,,55,0
202650,note_on,90,0,12,,,,,,,,11,,,43,0
202660,note_on,100,0,8,,,,,,,,4,,,62,0
202662,note_on,2,0,8,,,,,,,,4,,,74,0
202670,note_on,0,0,5,,,,,,,,5,,,62,0
202670,note_on,110,0,5,,,,,,,,5,,,55,0
202690,note_on,86,0,4,,,,,,,,3,,,55,0
202800,note_on,180,0,2,,,,,,,,1,,,71,64
202800,note_on,0,0,2,,,,,,,,1,,,67,64
202800,note_on,178,0,3,,,,,,,,2,,,55,45
202800,note_on,0,0,3,,,,,,,,2,,,59,45
202820,note_on,20,0,3,,,,,,,,2,,,59,0
202826,note_on,6,0,3,,,,,,,,2,,,55,0
202852,note_on,52,0,2,,,,,,,,1,,,71,0
202856,note_on,4,0,2,,,,,,,,1,,,67,0
203040,note_on,214,0,3,,,,,,,,2,,,59,45
203040,note_on,184,0,2,,,,,,,,1,,,71,64
203040,note_on,0,0,2,,,,,,,,1,,,74,64
203040,note_on,0,0,3,,,,,,,,2,,,62,45
203082,note_on,42,0,3,,,,,,,,2,,,59,0
203086,note_on,4,0,3,,,,,,,,2,,,62,0
203092,note_on,52,0,2,,,,,,,,1,,,74,0
203092,note_on,0,0,2,,,,,,,,1,,,71,0
203280,note_on,188,0,2,,,,,,,,1,,,77,64
203280,note_on,0,0,2,,,,,,,,1,,,74,64
203280,note_on,654,0,1,,,,,,,,0,,,83,64
203280,note_on,194,0,3,,,,,,,,2,,,65,45
203280,note_on,0,0,3,,,,,,,,2,,,62,45
203280,note_on,0,0,1,,,,,,,,0,,,86,64
203332,note_on,52,0,3,,,,,,,,2,,,62,0
203334,note_on,54,0,2,,,,,,,,1,,,77,0
203336,note_on,0,0,1,,,,,,,,0,,,83,0
203336,note_on,56,0,1,,,,,,,,0,,,86,0
203340,note_on,6,0,2,,,,,,,,1,,,74,0
203340,note_on,8,0,3,,,,,,,,2,,,65,0
203520,note_on,0,0,3,,,,,,,,2,,,69,45
203520,note_on,180,0,3,,,,,,,,2,,,65,45
203520,note_on,0,0,2,,,,,,,,1,,,77,64
203520,note_on,180,0,2,,,,,,,,1,,,81,64
203520,note_on,184,0,1,,,,,,,,0,,,86,64
203520,note_on,0,0,1,,,,,,,,0,,,89,64
203572,note_on,52,0,1,,,,,,,,0,,,86,0
203574,note_on,2,0,1,,,,,,,,0,,,89,0
203760,note_on,1110,0,10,,,,,,,,8,,,55,67
203760,note_on,186,0,1,,,,,,,,0,,,93,64
203760,note_on,0,0,1,,,,,,,,0,,,89,64
203760,note_on,1110,0,11,,,,,,,,10,,,55,67
203760,note_on,1110,0,12,,,,,,,,11,,,43,45
203760,note_on,1070,0,4,,,,,,,,3,,,43,64
203760,note_on,0,0,4,,,,,,,,3,,,55,64
203760,note_on,1098,0,8,,,,,,,,4,,,59,67
203830,note_on,70,0,4,,,,,,,,3,,,55,0
203834,note_on,4,0,4,,,,,,,,3,,,43,0
203840,note_on,80,0,8,,,,,,,,4,,,59,0
203842,note_on,82,0,10,,,,,,,,8,,,55,0
203860,note_on,100,0,11,,,,,,,,10,,,55,0
203860,note_on,100,0,12,,,,,,,,11,,,43,0
204000,note_on,158,0,10,,,,,,,,8,,,57,67
204000,note_on,166,0,4,,,,,,,,3,,,57,64
204000,note_on,0,0,4,,,,,,,,3,,,45,64
204000,note_on,140,0,11,,,,,,,,10,,,57,67
204000,note_on,160,0,8,,,,,,,,4,,,60,67
204000,note_on,140,0,12,,,,,,,,11,,,45,45
204072,note_on,72,0,10,,,,,,,,8,,,57,0
204074,note_on,74,0,4,,,,,,,,3,,,57,0
204080,note_on,80,0,8,,,,,,,,4,,,60,0
204090,note_on,90,0,12,,,,,,,,11,,,45,0
204090,note_on,16,0,4,,,,,,,,3,,,45,0
204090,note_on,90,0,11,,,,,,,,10,,,57,0
204240,note_on,168,0,10,,,,,,,,8,,,59,67
204240,note_on,160,0,8,,,,,,,,4,,,62,67
204240,note_on,150,0,12,,,,,,,,11,,,47,45
204240,note_on,0,0,4,,,,,,,,3,,,47,64
204240,note_on,150,0,4,,,,,,,,3,,,59,64
204240,note_on,150,0,11,,,,,,,,10,,,59,67
204312,note_on,72,0,4,,,,,,,,3,,,59,0
204316,note_on,76,0,10,,,,,,,,8,,,59,0
204316,note_on,4,0,4,,,,,,,,3,,,47,0
204320,note_on,80,0,8,,,,,,,,4,,,62,0
204324,note_on,84,0,11,,,,,,,,10,,,59,0
204324,note_on,84,0,12,,,,,,,,11,,,47,0
204480,note_on,156,0,11,,,,,,,,10,,,60,67
204480,note_on,160,0,8,,,,,,,,4,,,64,67
204480,note_on,0,0,4,,,,,,,,3,,,60,64
204480,note_on,164,0,4,,,,,,,,3,,,48,64
204480,note_on,156,0,12,,,,,,,,11,,,48,45
204480,note_on,164,0,10,,,,,,,,8,,,60,67
204550,note_on,70,0,10,,,,,,,,8,,,60,0
204560,note_on,80,0,11,,,,,,,,10,,,60,0
204560,note_on,80,0,12,,,,,,,,11,,,48,0
204560,note_on,800,0,1,,,,,,,,0,,,93,0
204562,note_on,82,0,8,,,,,,,,4,,,64,0
204564,note_on,4,0,1,,,,,,,,0,,,89,0
204570,note_on,90,0,4,,,,,,,,3,,,60,0
204574,note_on,1054,0,2,,,,,,,,1,,,81,0
204582,note_on,8,0,2,,,,,,,,1,,,77,0
204590,note_on,20,0,4,,,,,,,,3,,,48,0
204720,note_on,138,0,2,,,,,,,,1,,,79,64
204720,note_on,0,0,3,,,,,,,,2,,,67,45
204720,note_on,156,0,1,,,,,,,,0,,,88,64
204720,note_on,0,0,1,,,,,,,,0,,,91,64
204720,note_on,1200,0,3,,,,,,,,2,,,64,45
204720,note_on,158,0,8,,,,,,,,4,,,76,67
204720,note_on,0,0,2,,,,,,,,1,,,76,64
204720,note_on,0,0,8,,,,,,,,4,,,64,67
204732,note_on,12,0,3,,,,,,,,2,,,69,0
204752,note_on,20,0,3,,,,,,,,2,,,65,0
204774,note_on,54,0,1,,,,,,,,0,,,88,0
204780,note_on,6,0,1,,,,,,,,0,,,91,0
204796,note_on,76,0,8,,,,,,,,4,,,64,0
204796,note_on,0,0,8,,,,,,,,4,,,76,0
204960,note_on,410,0,10,,,,,,,,8,,,65,67
204960,note_on,0,0,4,,,,,,,,3,,,57,64
204960,note_on,400,0,11,,,,,,,,10,,,53,67
204960,note_on,370,0,4,,,,,,,,3,,,53,64
204960,note_on,400,0,12,,,,,,,,11,,,41,45
205024,note_on,304,0,2,,,,,,,,1,,,79,0
205032,note_on,8,0,2,,,,,,,,1,,,76,0
205032,note_on,72,0,4,,,,,,,,3,,,53,0
205044,note_on,84,0,12,,,,,,,,11,,,41,0
205044,note_on,84,0,11,,,,,,,,10,,,53,0
205046,note_on,86,0,10,,,,,,,,8,,,65,0
205120,note_on,368,0,3,,,,,,,,2,,,67,0
205126,note_on,6,0,3,,,,,,,,2,,,64,0
205200,note_on,0,0,2,,,,,,,,1,,,77,64
205200,note_on,420,0,1,,,,,,,,0,,,86,64
205200,note_on,168,0,2,,,,,,,,1,,,74,64
205200,note_on,404,0,8,,,,,,,,4,,,69,67
205200,note_on,0,0,1,,,,,,,,0,,,89,64
205200,note_on,0,0,3,,,,,,,,2,,,62,45
205200,note_on,74,0,3,,,,,,,,2,,,65,45
205200,note_on,0,0,8,,,,,,,,4,,,81,67
205262,note_on,62,0,1,,,,,,,,0,,,86,0
205270,note_on,8,0,1,,,,,,,,0,,,89,0
205276,note_on,76,0,8,,,,,,,,4,,,69,0
205304,note_on,28,0,8,,,,,,,,4,,,81,0
205440,note_on,408,0,4,,,,,,,,3,,,55,64
205440,note_on,396,0,12,,,,,,,,11,,,43,45
205440,note_on,394,0,10,,,,,,,,8,,,52,67
205440,note_on,396,0,11,,,,,,,,10,,,55,67
205480,note_on,40,0,4,,,,,,,,3,,,57,0
205492,note_on,292,0,2,,,,,,,,1,,,74,0
205512,note_on,20,0,2,,,,,,,,1,,,77,0
205520,note_on,80,0,12,,,,,,,,11,,,43,0
205520,note_on,80,0,11,,,,,,,,10,,,55,0
205560,note_on,120,0,10,,,,,,,,8,,,52,0
205624,note_on,424,0,3,,,,,,,,2,,,65,0
205632,note_on,8,0,3,,,,,,,,2,,,62,0
205680,note_on,410,0,1,,,,,,,,0,,,88,64
205680,note_on,168,0,2,,,,,,,,1,,,72,64
205680,note_on,0,0,1,,,,,,,,0,,,84,64
205680,note_on,48,0,3,,,,,,,,2,,,60,45
205680,note_on,0,0,2,,,,,,,,1,,,76,64
205680,note_on,0,0,3,,,,,,,,2,,,64,45
205680,note_on,0,0,8,,,,,,,,4,,,55,67
205680,note_on,376,0,8,,,,,,,,4,,,60,67
205736,note_on,56,0,1,,,,,,,,0,,,84,0
205744,note_on,8,0,1,,,,,,,,0,,,88,0
205762,note_on,82,0,8,,,,,,,,4,,,60,0
205766,note_on,4,0,8,,,,,,,,4,,,55,0
205920,note_on,400,0,12,,,,,,,,11,,,31,45
205920,note_on,360,0,10,,,,,,,,8,,,53,67
205920,note_on,400,0,11,,,,,,,,10,,,43,67
205920,note_on,0,0,4,,,,,,,,3,,,53,64
205920,note_on,440,0,4,,,,,,,,3,,,43,64
205950,note_on,30,0,4,,,,,,,,3,,,55,0
205980,note_on,30,0,4,,,,,,,,3,,,43,0
205982,note_on,302,0,2,,,,,,,,1,,,72,0
205992,note_on,10,0,2,,,,,,,,1,,,76,0
206004,note_on,84,0,12,,,,,,,,11,,,31,0
206004,note_on,84,0,11,,,,,,,,10,,,43,0
206006,note_on,86,0,10,,,,,,,,8,,,53,0
206062,note_on,382,0,3,,,,,,,,2,,,64,0
206084,note_on,22,0,3,,,,,,,,2,,,60,0
206160,note_on,416,0,1,,,,,,,,0,,,83,64
206160,note_on,0,0,1,,,,,,,,0,,,86,64
206160,note_on,0,0,3,,,,,,,,2,,,62,45
206160,note_on,76,0,3,,,,,,,,2,,,59,45
206160,note_on,394,0,8,,,,,,,,4,,,55,67
206160,note_on,0,0,2,,,,,,,,1,,,74,64
206160,note_on,168,0,2,,,,,,,,1,,,71,64
206160,note_on,0,0,8,,,,,,,,4,,,59,67
206204,note_on,44,0,2,,,,,,,,1,,,71,0
206206,note_on,2,0,2,,,,,,,,1,,,74,0
206212,note_on,52,0,1,,,,,,,,0,,,83,0
206220,note_on,8,0,1,,,,,,,,0,,,86,0
206230,note_on,70,0,3,,,,,,,,2,,,59,0
206236,note_on,6,0,3,,,,,,,,2,,,62,0
206242,note_on,0,0,8,,,,,,,,4,,,55,0
206242,note_on,82,0,8,,,,,,,,4,,,59,0
206400,note_on,394,0,10,,,,,,,,8,,,52,96
206400,note_on,0,0,2,,,,,,,,1,,,72,64
206400,note_on,396,0,11,,,,,,,,10,,,48,96
206400,note_on,0,0,4,,,,,,,,3,,,48,64
206400,note_on,420,0,4,,,,,,,,3,,,52,64
206400,note_on,180,0,1,,,,,,,,0,,,84,64
206400,control_change,158,0,8,,,,,,,,4,7,115,,
206400,note_on,0,0,8,,,,,,,,4,,,55,96
206400,note_on,0,0,8,,,,,,,,4,,,60,96
206400,note_on,194,0,2,,,,,,,,1,,,64,64
206400,note_on,0,0,5,,,,,,,,5,,,55,64
206400,note_on,3730,0,5,,,,,,,,5,,,43,64
206400,note_on,164,0,3,,,,,,,,2,,,60,64
206400,note_on,396,0,12,,,,,,,,11,,,36,64
206426,note_on,26,0,4,,,,,,,,3,,,53,0
206454,note_on,54,0,1,,,,,,,,0,,,84,0
206474,note_on,74,0,8,,,,,,,,4,,,55,0
206476,note_on,2,0,8,,,,,,,,4,,,60,0
206484,note_on,84,0,12,,,,,,,,11,,,36,0
206484,note_on,84,0,11,,,,,,,,10,,,48,0
206504,note_on,104,0,3,,,,,,,,2,,,60,0
206520,note_on,120,0,10,,,,,,,,8,,,52,96
206522,note_on,96,0,4,,,,,,,,3,,,48,0
206524,note_on,2,0,4,,,,,,,,3,,,52,0
206536,note_on,136,0,2,,,,,,,,1,,,64,0
206554,note_on,18,0,2,,,,,,,,1,,,72,0
206606,note_on,86,0,10,,,,,,,,8,,,52,0
206640,note_on,0,0,8,,,,,,,,4,,,55,96
206640,note_on,34,0,10,,,,,,,,8,,,55,96
206640,note_on,164,0,8,,,,,,,,4,,,67,96
206712,note_on,72,0,10,,,,,,,,8,,,55,0
206720,note_on,80,0,8,,,,,,,,4,,,55,0
206726,note_on,6,0,8,,,,,,,,4,,,67,0
206760,note_on,48,0,10,,,,,,,,8,,,52,96
206834,note_on,74,0,10,,,,,,,,8,,,52,0
206880,note_on,46,0,10,,,,,,,,8,,,48,96
206880,note_on,154,0,8,,,,,,,,4,,,60,96
206880,note_on,0,0,8,,,,,,,,4,,,72,96
206956,note_on,76,0,8,,,,,,,,4,,,60,0
206956,note_on,76,0,10,,,,,,,,8,,,48,0
206964,note_on,8,0,8,,,,,,,,4,,,72,0
207000,note_on,44,0,10,,,,,,,,8,,,52,96
207074,note_on,74,0,10,,,,,,,,8,,,52,0
207120,note_on,156,0,8,,,,,,,,4,,,64,96
207120,note_on,46,0,10,,,,,,,,8,,,55,96
207120,note_on,0,0,8,,,,,,,,4,,,76,96
207190,note_on,70,0,10,,,,,,,,8,,,55,0
207196,note_on,76,0,8,,,,,,,,4,,,64,0
207212,note_on,16,0,8,,,,,,,,4,,,76,0
207240,note_on,50,0,10,,,,,,,,8,,,52,96
207320,note_on,80,0,10,,,,,,,,8,,,52,0
207360,note_on,148,0,8,,,,,,,,4,,,79,96
207360,note_on,856,0,3,,,,,,,,2,,,60,53
207360,note_on,0,0,3,,,,,,,,2,,,72,53
207360,note_on,876,0,11,,,,,,,,10,,,52,96
207360,note_on,40,0,10,,,,,,,,8,,,48,96
207360,note_on,0,0,8,,,,,,,,4,,,67,96
207360,note_on,876,0,12,,,,,,,,11,,,40,64
207442,note_on,82,0,8,,,,,,,,4,,,67,0
207444,note_on,84,0,10,,,,,,,,8,,,48,0
207454,note_on,12,0,8,,,,,,,,4,,,79,0
207466,note_on,106,0,11,,,,,,,,10,,,52,0
207466,note_on,106,0,12,,,,,,,,11,,,40,0
207480,note_on,36,0,10,,,,,,,,8,,,52,96
207556,note_on,76,0,10,,,,,,,,8,,,52,0
207600,note_on,1046,0,2,,,,,,,,1,,,67,64
207600,note_on,44,0,10,,,,,,,,8,,,55,96
207600,note_on,1146,0,1,,,,,,,,0,,,79,64
207600,note_on,1076,0,4,,,,,,,,3,,,55,64
207666,note_on,66,0,2,,,,,,,,1,,,67,0
207666,note_on,66,0,1,,,,,,,,0,,,79,0
207674,note_on,74,0,10,,,,,,,,8,,,55,0
207686,note_on,86,0,4,,,,,,,,3,,,55,0
207720,note_on,46,0,10,,,,,,,,8,,,52,96
207800,note_on,80,0,10,,,,,,,,8,,,52,0
207840,note_on,174,0,2,,,,,,,,1,,,72,64
207840,note_on,174,0,1,,,,,,,,0,,,84,64
207840,note_on,40,0,10,,,,,,,,8,,,48,96
207840,note_on,154,0,4,,,,,,,,3,,,60,64
207900,note_on,60,0,2,,,,,,,,1,,,72,0
207906,note_on,66,0,1,,,,,,,,0,,,84,0
207910,note_on,70,0,4,,,,,,,,3,,,60,0
207922,note_on,82,0,10,,,,,,,,8,,,48,0
207960,note_on,38,0,10,,,,,,,,8,,,52,96
208034,note_on,74,0,10,,,,,,,,8,,,52,0
208080,note_on,174,0,1,,,,,,,,0,,,88,64
208080,note_on,170,0,4,,,,,,,,3,,,64,64
208080,note_on,180,0,2,,,,,,,,1,,,76,64
208080,note_on,46,0,10,,,,,,,,8,,,55,96
208144,note_on,64,0,2,,,,,,,,1,,,76,0
208146,note_on,66,0,10,,,,,,,,8,,,55,0
208146,note_on,66,0,1,,,,,,,,0,,,88,0
208162,note_on,82,0,4,,,,,,,,3,,,64,0
208200,note_on,54,0,10,,,,,,,,8,,,52,96
208220,note_on,860,0,3,,,,,,,,2,,,60,0
208280,note_on,80,0,10,,,,,,,,8,,,52,0
208294,note_on,74,0,3,,,,,,,,2,,,72,0
208320,note_on,26,0,3,,,,,,,,2,,,59,53
208320,note_on,40,0,10,,,,,,,,8,,,50,96
208320,note_on,0,0,3,,,,,,,,2,,,71,53
208320,note_on,854,0,12,,,,,,,,11,,,38,64
208320,note_on,174,0,1,,,,,,,,0,,,89,64
208320,note_on,176,0,2,,,,,,,,1,,,77,64
208320,note_on,158,0,4,,,,,,,,3,,,65,64
208320,note_on,854,0,11,,,,,,,,10,,,50,96
208396,note_on,76,0,4,,,,,,,,3,,,65,0
208402,note_on,82,0,1,,,,,,,,0,,,89,0
208406,note_on,86,0,10,,,,,,,,8,,,50,0
208414,note_on,94,0,12,,,,,,,,11,,,38,0
208414,note_on,94,0,11,,,,,,,,10,,,50,0
208432,note_on,112,0,2,,,,,,,,1,,,77,0
208440,note_on,34,0,10,,,,,,,,8,,,53,96
208512,note_on,72,0,10,,,,,,,,8,,,53,0
208560,note_on,0,0,8,,,,,,,,4,,,55,96
208560,note_on,1106,0,8,,,,,,,,4,,,67,96
208560,note_on,48,0,10,,,,,,,,8,,,55,96
208640,note_on,80,0,8,,,,,,,,4,,,55,0
208644,note_on,84,0,10,,,,,,,,8,,,55,0
208654,note_on,14,0,8,,,,,,,,4,,,67,0
208680,note_on,36,0,10,,,,,,,,8,,,53,96
208760,note_on,80,0,10,,,,,,,,8,,,53,0
208800,note_on,146,0,8,,,,,,,,4,,,59,96
208800,note_on,40,0,10,,,,,,,,8,,,50,96
208800,note_on,0,0,8,,,,,,,,4,,,71,96
208876,note_on,76,0,8,,,,,,,,4,,,59,0
208882,note_on,6,0,8,,,,,,,,4,,,71,0
208886,note_on,86,0,10,,,,,,,,8,,,50,0
208920,note_on,34,0,10,,,,,,,,8,,,53,96
209000,note_on,80,0,10,,,,,,,,8,,,53,0
209040,note_on,40,0,10,,,,,,,,8,,,55,96
209040,note_on,0,0,8,,,,,,,,4,,,74,96
209040,note_on,158,0,8,,,,,,,,4,,,62,96
209112,note_on,72,0,10,,,,,,,,8,,,55,0
209112,note_on,72,0,8,,,,,,,,4,,,62,0
209126,note_on,14,0,8,,,,,,,,4,,,74,0
209160,note_on,48,0,10,,,,,,,,8,,,53,96
209236,note_on,76,0,10,,,,,,,,8,,,53,0
209280,note_on,154,0,8,,,,,,,,4,,,77,96
209280,note_on,0,0,8,,,,,,,,4,,,65,96
209280,note_on,866,0,12,,,,,,,,11,,,31,64
209280,note_on,44,0,10,,,,,,,,8,,,50,96
209280,note_on,866,0,11,,,,,,,,10,,,43,96
209364,note_on,84,0,10,,,,,,,,8,,,50,0
209372,note_on,92,0,8,,,,,,,,4,,,65,0
209372,note_on,92,0,12,,,,,,,,11,,,31,0
209372,note_on,92,0,11,,,,,,,,10,,,43,0
209384,note_on,12,0,8,,,,,,,,4,,,77,0
209400,note_on,36,0,10,,,,,,,,8,,,53,96
209474,note_on,74,0,10,,,,,,,,8,,,53,0
209520,note_on,1118,0,1,,,,,,,,0,,,86,64
209520,note_on,1124,0,4,,,,,,,,3,,,62,64
209520,note_on,1088,0,2,,,,,,,,1,,,74,64
209520,note_on,46,0,10,,,,,,,,8,,,55,96
209594,note_on,74,0,10,,,,,,,,8,,,55,0
209610,note_on,3210,0,5,,,,,,,,5,,,43,0
209612,note_on,2,0,5,,,,,,,,5,,,55,0
209640,note_on,46,0,10,,,,,,,,8,,,53,96
209714,note_on,74,0,10,,,,,,,,8,,,53,0
209760,note_on,0,0,5,,,,,,,,5,,,55,64
209760,note_on,148,0,5,,,,,,,,5,,,43,64
209760,note_on,240,0,2,,,,,,,,1,,,71,64
209760,note_on,240,0,4,,,,,,,,3,,,59,64
209760,note_on,240,0,1,,,,,,,,0,,,83,64
209760,note_on,46,0,10,,,,,,,,8,,,50,96
209762,note_on,2,0,4,,,,,,,,3,,,62,0
209762,note_on,2,0,1,,,,,,,,0,,,86,0
209776,note_on,16,0,2,,,,,,,,1,,,74,0
209806,note_on,44,0,1,,,,,,,,0,,,83,0
209812,note_on,36,0,2,,,,,,,,1,,,71,0
209814,note_on,52,0,4,,,,,,,,3,,,59,0
209840,note_on,80,0,10,,,,,,,,8,,,50,0
209880,note_on,40,0,10,,,,,,,,8,,,53,96
209952,note_on,72,0,10,,,,,,,,8,,,53,0
210000,note_on,48,0,10,,,,,,,,8,,,55,96
210000,note_on,188,0,2,,,,,,,,1,,,65,64
210000,note_on,186,0,4,,,,,,,,3,,,53,64
210000,note_on,194,0,1,,,,,,,,0,,,77,64
210036,note_on,1716,0,3,,,,,,,,2,,,59,0
210046,note_on,46,0,1,,,,,,,,0,,,77,0
210052,note_on,52,0,2,,,,,,,,1,,,65,0
210070,note_on,70,0,4,,,,,,,,3,,,53,0
210076,note_on,316,0,5,,,,,,,,5,,,43,0
210076,note_on,76,0,10,,,,,,,,8,,,55,0
210080,note_on,4,0,5,,,,,,,,5,,,55,0
210120,note_on,44,0,10,,,,,,,,8,,,53,96
210164,note_on,128,0,3,,,,,,,,2,,,71,0
210200,note_on,80,0,10,,,,,,,,8,,,53,0
210240,note_on,0,0,3,,,,,,,,2,,,72,53
210240,note_on,868,0,12,,,,,,,,11,,,36,64
210240,note_on,40,0,10,,,,,,,,8,,,48,96
210240,note_on,868,0,11,,,,,,,,10,,,48,96
210240,note_on,188,0,2,,,,,,,,1,,,64,64
210240,note_on,0,0,5,,,,,,,,5,,,55,64
210240,note_on,160,0,5,,,,,,,,5,,,43,64
210240,note_on,194,0,1,,,,,,,,0,,,76,64
210240,note_on,170,0,4,,,,,,,,3,,,52,64
210240,note_on,76,0,3,,,,,,,,2,,,60,53
210292,note_on,52,0,1,,,,,,,,0,,,76,0
210296,note_on,56,0,2,,,,,,,,1,,,64,0
210322,note_on,82,0,4,,,,,,,,3,,,52,0
210334,note_on,94,0,10,,,,,,,,8,,,48,0
210346,note_on,106,0,12,,,,,,,,11,,,36,0
210346,note_on,106,0,11,,,,,,,,10,,,48,0
210360,note_on,26,0,10,,,,,,,,8,,,52,96
210436,note_on,76,0,10,,,,,,,,8,,,52,0
210480,note_on,0,0,8,,,,,,,,4,,,55,96
210480,note_on,44,0,10,,,,,,,,8,,,55,96
210480,note_on,1096,0,8,,,,,,,,4,,,67,96
210556,note_on,76,0,10,,,,,,,,8,,,55,0
210572,note_on,92,0,8,,,,,,,,4,,,55,0
210580,note_on,8,0,8,,,,,,,,4,,,67,0
210600,note_on,44,0,10,,,,,,,,8,,,52,96
210674,note_on,74,0,10,,,,,,,,8,,,52,0
210720,note_on,140,0,8,,,,,,,,4,,,60,96
210720,note_on,46,0,10,,,,,,,,8,,,48,96
210720,note_on,0,0,8,,,,,,,,4,,,72,96
210800,note_on,80,0,8,,,,,,,,4,,,60,0
210802,note_on,2,0,8,,,,,,,,4,,,72,0
210802,note_on,82,0,10,,,,,,,,8,,,48,0
210840,note_on,38,0,10,,,,,,,,8,,,52,96
210912,note_on,72,0,10,,,,,,,,8,,,52,0
210960,note_on,48,0,10,,,,,,,,8,,,55,96
210960,note_on,0,0,8,,,,,,,,4,,,76,96
210960,note_on,158,0,8,,,,,,,,4,,,64,96
211036,note_on,76,0,10,,,,,,,,8,,,55,0
211044,note_on,84,0,8,,,,,,,,4,,,64,0
211060,note_on,16,0,8,,,,,,,,4,,,76,0
211080,note_on,44,0,10,,,,,,,,8,,,52,96
211160,note_on,80,0,10,,,,,,,,8,,,52,0
211200,note_on,140,0,8,,,,,,,,4,,,79,96
211200,note_on,854,0,12,,,,,,,,11,,,40,64
211200,note_on,40,0,10,,,,,,,,8,,,48,96
211200,note_on,0,0,8,,,,,,,,4,,,67,96
211200,note_on,854,0,11,,,,,,,,10,,,52,96
211284,note_on,84,0,10,,,,,,,,8,,,48,0
211286,note_on,86,0,8,,,,,,,,4,,,67,0
211292,note_on,6,0,8,,,,,,,,4,,,79,0
211304,note_on,104,0,11,,,,,,,,10,,,52,0
211304,note_on,104,0,12,,,,,,,,11,,,40,0
211320,note_on,36,0,10,,,,,,,,8,,,52,96
211390,note_on,70,0,10,,,,,,,,8,,,52,0
211440,note_on,1144,0,2,,,,,,,,1,,,67,64
211440,note_on,1148,0,1,,,,,,,,0,,,79,64
211440,note_on,1118,0,4,,,,,,,,3,,,55,64
211440,note_on,50,0,10,,,,,,,,8,,,55,96
211504,note_on,64,0,1,,,,,,,,0,,,79,0
211504,note_on,64,0,2,,,,,,,,1,,,67,0
211510,note_on,70,0,10,,,,,,,,8,,,55,0
211522,note_on,82,0,4,,,,,,,,3,,,55,0
211560,note_on,50,0,10,,,,,,,,8,,,52,96
211642,note_on,82,0,10,,,,,,,,8,,,52,0
211680,note_on,176,0,1,,,,,,,,0,,,84,64
211680,note_on,176,0,2,,,,,,,,1,,,72,64
211680,note_on,158,0,4,,,,,,,,3,,,60,64
211680,note_on,38,0,10,,,,,,,,8,,,48,96
211722,note_on,42,0,2,,,,,,,,1,,,72,0
211726,note_on,46,0,1,,,,,,,,0,,,84,0
211736,note_on,56,0,4,,,,,,,,3,,,60,0
211766,note_on,86,0,10,,,,,,,,8,,,48,0
211800,note_on,34,0,10,,,,,,,,8,,,52,96
211870,note_on,70,0,10,,,,,,,,8,,,52,0
211920,note_on,184,0,4,,,,,,,,3,,,64,64
211920,note_on,198,0,2,,,,,,,,1,,,76,64
211920,note_on,50,0,10,,,,,,,,8,,,55,96
211920,note_on,194,0,1,,,,,,,,0,,,88,64
211970,note_on,50,0,1,,,,,,,,0,,,88,0
211982,note_on,62,0,4,,,,,,,,3,,,64,0
211984,note_on,64,0,2,,,,,,,,1,,,76,0
211986,note_on,66,0,10,,,,,,,,8,,,55,0
212036,note_on,1796,0,3,,,,,,,,2,,,60,0
212040,note_on,54,0,10,,,,,,,,8,,,52,96
212096,note_on,60,0,3,,,,,,,,2,,,72,0
212112,note_on,72,0,10,,,,,,,,8,,,52,0
212160,note_on,0,0,3,,,,,,,,2,,,71,53
212160,note_on,190,0,1,,,,,,,,0,,,89,64
212160,note_on,856,0,11,,,,,,,,10,,,50,96
212160,note_on,856,0,12,,,,,,,,11,,,38,64
212160,note_on,178,0,4,,,,,,,,3,,,65,64
212160,note_on,48,0,10,,,,,,,,8,,,50,96
212160,note_on,64,0,3,,,,,,,,2,,,59,53
212160,note_on,176,0,2,,,,,,,,1,,,77,64
212230,note_on,70,0,1,,,,,,,,0,,,89,0
212232,note_on,72,0,2,,,,,,,,1,,,77,0
212246,note_on,86,0,10,,,,,,,,8,,,50,0
212260,note_on,100,0,11,,,,,,,,10,,,50,0
212260,note_on,100,0,12,,,,,,,,11,,,38,0
212280,note_on,120,0,4,,,,,,,,3,,,65,0
212280,note_on,34,0,10,,,,,,,,8,,,53,96
212352,note_on,72,0,10,,,,,,,,8,,,53,0
212400,note_on,0,0,8,,,,,,,,4,,,55,96
212400,note_on,1108,0,8,,,,,,,,4,,,67,96
212400,note_on,48,0,10,,,,,,,,8,,,55,96
212476,note_on,76,0,10,,,,,,,,8,,,55,0
212490,note_on,0,0,8,,,,,,,,4,,,67,0
212490,note_on,90,0,8,,,,,,,,4,,,55,0
212520,note_on,44,0,10,,,,,,,,8,,,53,96
212586,note_on,66,0,10,,,,,,,,8,,,53,0
212640,note_on,54,0,10,,,,,,,,8,,,50,96
212640,note_on,0,0,8,,,,,,,,4,,,59,96
212640,note_on,150,0,8,,,,,,,,4,,,71,96
212714,note_on,74,0,8,,,,,,,,4,,,71,0
212716,note_on,2,0,8,,,,,,,,4,,,59,0
212722,note_on,82,0,10,,,,,,,,8,,,50,0
212760,note_on,38,0,10,,,,,,,,8,,,53,96
212832,note_on,72,0,10,,,,,,,,8,,,53,0
212880,note_on,48,0,10,,,,,,,,8,,,55,96
212880,note_on,0,0,8,,,,,,,,4,,,74,96
212880,note_on,164,0,8,,,,,,,,4,,,62,96
212940,note_on,60,0,10,,,,,,,,8,,,55,0
212950,note_on,70,0,8,,,,,,,,4,,,62,0
212960,note_on,10,0,8,,,,,,,,4,,,74,0
213000,note_on,60,0,10,,,,,,,,8,,,53,96
213072,note_on,72,0,10,,,,,,,,8,,,53,0
213120,note_on,860,0,11,,,,,,,,10,,,43,96
213120,note_on,0,0,8,,,,,,,,4,,,65,96
213120,note_on,160,0,8,,,,,,,,4,,,77,96
213120,note_on,860,0,12,,,,,,,,11,,,31,64
213120,note_on,48,0,10,,,,,,,,8,,,50,96
213196,note_on,76,0,10,,,,,,,,8,,,50,0
213202,note_on,82,0,8,,,,,,,,4,,,65,0
213204,note_on,2,0,8,,,,,,,,4,,,77,0
213212,note_on,92,0,12,,,,,,,,11,,,31,0
213212,note_on,92,0,11,,,,,,,,10,,,43,0
213240,note_on,44,0,10,,,,,,,,8,,,53,96
213310,note_on,70,0,10,,,,,,,,8,,,53,0
213360,note_on,50,0,10,,,,,,,,8,,,55,96
213360,note_on,1080,0,4,,,,,,,,3,,,62,64
213360,note_on,1128,0,2,,,,,,,,1,,,74,64
213360,note_on,1130,0,1,,,,,,,,0,,,86,64
213430,note_on,70,0,10,,,,,,,,8,,,55,0
213462,note_on,3222,0,5,,,,,,,,5,,,43,0
213466,note_on,4,0,5,,,,,,,,5,,,55,0
213480,note_on,50,0,10,,,,,,,,8,,,53,96
213554,note_on,74,0,10,,,,,,,,8,,,53,0
213584,note_on,224,0,4,,,,,,,,3,,,62,0
213594,note_on,234,0,2,,,,,,,,1,,,74,0
213600,note_on,240,0,1,,,,,,,,0,,,83,64
213600,note_on,16,0,4,,,,,,,,3,,,59,64
213600,note_on,0,0,5,,,,,,,,5,,,43,64
213600,note_on,134,0,5,,,,,,,,5,,,55,64
213600,note_on,6,0,2,,,,,,,,1,,,71,64
213600,note_on,46,0,10,,,,,,,,8,,,50,96
213616,note_on,16,0,1,,,,,,,,0,,,86,0
213652,note_on,36,0,1,,,,,,,,0,,,83,0
213656,note_on,56,0,2,,,,,,,,1,,,71,0
213660,note_on,60,0,4,,,,,,,,3,,,59,0
213672,note_on,72,0,10,,,,,,,,8,,,50,0
213720,note_on,48,0,10,,,,,,,,8,,,53,96
213792,note_on,72,0,10,,,,,,,,8,,,53,0
213840,note_on,180,0,4,,,,,,,,3,,,53,64
213840,note_on,188,0,1,,,,,,,,0,,,77,64
213840,note_on,184,0,2,,,,,,,,1,,,65,64
213840,note_on,48,0,10,,,,,,,,8,,,55,96
213906,note_on,66,0,1,,,,,,,,0,,,77,0
213906,note_on,66,0,10,,,,,,,,8,,,55,0
213906,note_on,66,0,2,,,,,,,,1,,,65,0
213916,note_on,76,0,4,,,,,,,,3,,,53,0
213960,note_on,54,0,10,,,,,,,,8,,,53,96
213980,note_on,1820,0,3,,,,,,,,2,,,59,0
213996,note_on,0,0,5,,,,,,,,5,,,55,0
213996,note_on,396,0,5,,,,,,,,5,,,43,0
214026,note_on,66,0,10,,,,,,,,8,,,53,0
214036,note_on,56,0,3,,,,,,,,2,,,71,0
214080,note_on,54,0,10,,,,,,,,8,,,51,96
214080,note_on,876,0,8,,,,,,,,4,,,67,96
214080,note_on,44,0,3,,,,,,,,2,,,72,64
214080,note_on,868,0,11,,,,,,,,10,,,48,96
214080,note_on,0,0,3,,,,,,,,2,,,60,64
214080,note_on,164,0,4,,,,,,,,3,,,51,64
214080,note_on,84,0,5,,,,,,,,5,,,55,64
214080,note_on,0,0,5,,,,,,,,5,,,43,64
214080,note_on,174,0,1,,,,,,,,0,,,75,64
214080,note_on,0,0,8,,,,,,,,4,,,79,96
214080,note_on,174,0,2,,,,,,,,1,,,63,64
214080,note_on,868,0,12,,,,,,,,11,,,36,64
214142,note_on,62,0,5,,,,,,,,5,,,43,0
214146,note_on,4,0,5,,,,,,,,5,,,55,0
214162,note_on,82,0,2,,,,,,,,1,,,63,0
214186,note_on,106,0,1,,,,,,,,0,,,75,0
214194,note_on,114,0,11,,,,,,,,10,,,48,0
214194,note_on,114,0,12,,,,,,,,11,,,36,0
214200,note_on,6,0,12,,,,,,,,11,,,48,64
214200,note_on,6,0,11,,,,,,,,10,,,60,96
214200,note_on,120,0,10,,,,,,,,8,,,63,96
214210,note_on,10,0,10,,,,,,,,8,,,51,0
214210,note_on,130,0,4,,,,,,,,3,,,51,0
214240,note_on,160,0,3,,,,,,,,2,,,60,0
214244,note_on,4,0,3,,,,,,,,2,,,72,0
214274,note_on,74,0,11,,,,,,,,10,,,60,0
214274,note_on,74,0,12,,,,,,,,11,,,48,0
214284,note_on,74,0,10,,,,,,,,8,,,63,0
214320,note_on,36,0,10,,,,,,,,8,,,63,96
214320,note_on,46,0,11,,,,,,,,10,,,60,96
214320,note_on,46,0,12,,,,,,,,11,,,48,64
214400,note_on,80,0,12,,,,,,,,11,,,48,0
214400,note_on,80,0,11,,,,,,,,10,,,60,0
214406,note_on,86,0,10,,,,,,,,8,,,63,0
214440,note_on,40,0,11,,,,,,,,10,,,60,96
214440,note_on,34,0,10,,,,,,,,8,,,63,96
214440,note_on,40,0,12,,,,,,,,11,,,48,64
214514,note_on,74,0,10,,,,,,,,8,,,63,0
214516,note_on,76,0,12,,,,,,,,11,,,48,0
214516,note_on,76,0,11,,,,,,,,10,,,60,0
214560,note_on,44,0,11,,,,,,,,10,,,60,96
214560,note_on,46,0,10,,,,,,,,8,,,63,96
214560,note_on,44,0,12,,,,,,,,11,,,48,64
214636,note_on,76,0,11,,,,,,,,10,,,60,0
214636,note_on,76,0,12,,,,,,,,11,,,48,0
214646,note_on,86,0,10,,,,,,,,8,,,63,0
214680,note_on,34,0,10,,,,,,,,8,,,63,96
214680,note_on,44,0,11,,,,,,,,10,,,60,96
214680,note_on,44,0,12,,,,,,,,11,,,48,64
214760,note_on,80,0,12,,,,,,,,11,,,48,0
214760,note_on,80,0,11,,,,,,,,10,,,60,0
214762,note_on,82,0,10,,,,,,,,8,,,63,0
214800,note_on,40,0,12,,,,,,,,11,,,48,64
214800,note_on,40,0,11,,,,,,,,10,,,60,96
214800,note_on,0,0,8,,,,,,,,4,,,66,96
214800,note_on,38,0,10,,,,,,,,8,,,63,96
214800,note_on,720,0,8,,,,,,,,4,,,78,96
214866,note_on,66,0,8,,,,,,,,4,,,67,0
214874,note_on,8,0,8,,,,,,,,4,,,79,0
214880,note_on,80,0,10,,,,,,,,8,,,63,0
214884,note_on,84,0,12,,,,,,,,11,,,48,0
214884,note_on,84,0,11,,,,,,,,10,,,60,0
214920,note_on,40,0,10,,,,,,,,8,,,63,96
214920,note_on,36,0,12,,,,,,,,11,,,48,64
214920,note_on,36,0,11,,,,,,,,10,,,60,96
215000,note_on,80,0,10,,,,,,,,8,,,63,0
215006,note_on,86,0,11,,,,,,,,10,,,60,0
215006,note_on,86,0,12,,,,,,,,11,,,48,0
215040,note_on,0,0,8,,,,,,,,4,,,79,96
215040,note_on,40,0,10,,,,,,,,8,,,63,96
215040,note_on,34,0,11,,,,,,,,10,,,60,96
215040,note_on,166,0,8,,,,,,,,4,,,67,96
215040,note_on,878,0,2,,,,,,,,1,,,75,64
215040,note_on,34,0,12,,,,,,,,11,,,48,64
215040,note_on,830,0,4,,,,,,,,3,,,63,64
215090,note_on,50,0,8,,,,,,,,4,,,78,0
215116,note_on,26,0,8,,,,,,,,4,,,66,0
215122,note_on,82,0,11,,,,,,,,10,,,60,0
215122,note_on,82,0,12,,,,,,,,11,,,48,0
215124,note_on,84,0,10,,,,,,,,8,,,63,0
215160,note_on,38,0,11,,,,,,,,10,,,60,96
215160,note_on,38,0,12,,,,,,,,11,,,48,64
215160,note_on,36,0,10,,,,,,,,8,,,63,96
215242,note_on,82,0,11,,,,,,,,10,,,60,0
215242,note_on,82,0,10,,,,,,,,8,,,63,0
215242,note_on,82,0,12,,,,,,,,11,,,48,0
215280,note_on,38,0,10,,,,,,,,8,,,63,96
215280,note_on,38,0,12,,,,,,,,11,,,48,64
215280,note_on,38,0,11,,,,,,,,10,,,60,96
215360,note_on,80,0,10,,,,,,,,8,,,63,0
215366,note_on,86,0,12,,,,,,,,11,,,48,0
215366,note_on,86,0,11,,,,,,,,10,,,60,0
215400,note_on,40,0,10,,,,,,,,8,,,63,96
215400,note_on,34,0,11,,,,,,,,10,,,60,96
215400,note_on,34,0,12,,,,,,,,11,,,48,64
215482,note_on,82,0,10,,,,,,,,8,,,63,0
215482,note_on,82,0,11,,,,,,,,10,,,60,0
215482,note_on,82,0,12,,,,,,,,11,,,48,0
215520,note_on,38,0,10,,,,,,,,8,,,63,96
215520,note_on,38,0,12,,,,,,,,11,,,48,64
215520,note_on,38,0,11,,,,,,,,10,,,60,96
215604,note_on,84,0,12,,,,,,,,11,,,48,0
215604,note_on,84,0,10,,,,,,,,8,,,63,0
215604,note_on,84,0,11,,,,,,,,10,,,60,0
215640,note_on,36,0,11,,,,,,,,10,,,60,96
215640,note_on,36,0,10,,,,,,,,8,,,63,96
215640,note_on,36,0,12,,,,,,,,11,,,48,64
215720,note_on,80,0,12,,,,,,,,11,,,48,0
215720,note_on,80,0,11,,,,,,,,10,,,60,0
215724,note_on,84,0,10,,,,,,,,8,,,63,0
215760,note_on,36,0,10,,,,,,,,8,,,63,96
215760,note_on,644,0,8,,,,,,,,4,,,80,96
215760,note_on,0,0,8,,,,,,,,4,,,68,96
215760,note_on,40,0,11,,,,,,,,10,,,60,96
215760,note_on,40,0,12,,,,,,,,11,,,48,64
215830,note_on,70,0,8,,,,,,,,4,,,67,0
215840,note_on,80,0,12,,,,,,,,11,,,48,0
215840,note_on,80,0,11,,,,,,,,10,,,60,0
215844,note_on,14,0,8,,,,,,,,4,,,79,0
215846,note_on,86,0,10,,,,,,,,8,,,63,0
215880,note_on,40,0,11,,,,,,,,10,,,60,96
215880,note_on,40,0,12,,,,,,,,11,,,48,64
215880,note_on,34,0,10,,,,,,,,8,,,63,96
215970,note_on,90,0,12,,,,,,,,11,,,48,0
215970,note_on,90,0,11,,,,,,,,10,,,60,0
215972,note_on,92,0,10,,,,,,,,8,,,63,0
216000,note_on,30,0,12,,,,,,,,11,,,46,64
216000,note_on,28,0,10,,,,,,,,8,,,61,96
216000,note_on,30,0,11,,,,,,,,10,,,58,96
216000,note_on,1814,0,1,,,,,,,,0,,,87,64
216000,note_on,0,0,8,,,,,,,,4,,,67,96
216000,note_on,156,0,8,,,,,,,,4,,,79,96
216000,note_on,960,0,4,,,,,,,,3,,,61,64
216066,note_on,66,0,8,,,,,,,,4,,,80,0
216072,note_on,6,0,8,,,,,,,,4,,,68,0
216086,note_on,86,0,10,,,,,,,,8,,,61,0
216086,note_on,86,0,12,,,,,,,,11,,,46,0
216086,note_on,86,0,11,,,,,,,,10,,,58,0
216120,note_on,34,0,10,,,,,,,,8,,,61,96
216120,note_on,34,0,12,,,,,,,,11,,,46,64
216120,note_on,34,0,11,,,,,,,,10,,,58,96
216202,note_on,82,0,11,,,,,,,,10,,,58,0
216202,note_on,82,0,12,,,,,,,,11,,,46,0
216206,note_on,86,0,10,,,,,,,,8,,,61,0
216240,note_on,38,0,12,,,,,,,,11,,,46,64
216240,note_on,34,0,10,,,,,,,,8,,,61,96
216240,note_on,38,0,11,,,,,,,,10,,,58,96
216316,note_on,76,0,10,,,,,,,,8,,,61,0
216320,note_on,80,0,12,,,,,,,,11,,,46,0
216320,note_on,80,0,11,,,,,,,,10,,,58,0
216360,note_on,40,0,12,,,,,,,,11,,,46,64
216360,note_on,40,0,11,,,,,,,,10,,,58,96
216360,note_on,44,0,10,,,,,,,,8,,,61,96
216440,note_on,80,0,11,,,,,,,,10,,,58,0
216440,note_on,80,0,12,,,,,,,,11,,,46,0
216442,note_on,82,0,10,,,,,,,,8,,,61,0
216480,note_on,38,0,10,,,,,,,,8,,,61,96
216480,note_on,40,0,11,,,,,,,,10,,,58,96
216480,note_on,40,0,12,,,,,,,,11,,,46,64
216560,note_on,80,0,11,,,,,,,,10,,,58,0
216560,note_on,80,0,10,,,,,,,,8,,,61,0
216560,note_on,80,0,12,,,,,,,,11,,,46,0
216600,note_on,40,0,12,,,,,,,,11,,,46,64
216600,note_on,40,0,10,,,,,,,,8,,,61,96
216600,note_on,40,0,11,,,,,,,,10,,,58,96
216680,note_on,80,0,10,,,,,,,,8,,,61,0
216680,note_on,80,0,11,,,,,,,,10,,,58,0
216680,note_on,80,0,12,,,,,,,,11,,,46,0
216720,note_on,40,0,12,,,,,,,,11,,,46,64
216720,note_on,40,0,10,,,,,,,,8,,,61,96
216720,note_on,648,0,8,,,,,,,,4,,,78,96
216720,note_on,0,0,8,,,,,,,,4,,,66,96
216720,note_on,40,0,11,,,,,,,,10,,,58,96
216752,note_on,32,0,8,,,,,,,,4,,,67,0
216800,note_on,80,0,11,,,,,,,,10,,,58,0
216800,note_on,80,0,12,,,,,,,,11,,,46,0
216804,note_on,84,0,10,,,,,,,,8,,,61,0
216814,note_on,62,0,8,,,,,,,,4,,,79,0
216840,note_on,40,0,11,,,,,,,,10,,,58,96
216840,note_on,40,0,12,,,,,,,,11,,,46,64
216840,note_on,36,0,10,,,,,,,,8,,,61,96
216922,note_on,82,0,11,,,,,,,,10,,,58,0
216922,note_on,82,0,10,,,,,,,,8,,,61,0
216922,note_on,82,0,12,,,,,,,,11,,,46,0
216960,note_on,38,0,10,,,,,,,,8,,,61,96
216960,note_on,38,0,11,,,,,,,,10,,,58,96
216960,note_on,38,0,12,,,,,,,,11,,,46,64
216960,note_on,0,0,8,,,,,,,,4,,,67,96
216960,note_on,146,0,8,,,,,,,,4,,,79,96
217020,note_on,60,0,8,,,,,,,,4,,,78,0
217024,note_on,4,0,8,,,,,,,,4,,,66,0
217042,note_on,82,0,10,,,,,,,,8,,,61,0
217050,note_on,90,0,11,,,,,,,,10,,,58,0
217050,note_on,90,0,12,,,,,,,,11,,,46,0
217080,note_on,38,0,10,,,,,,,,8,,,61,96
217080,note_on,30,0,12,,,,,,,,11,,,46,64
217080,note_on,30,0,11,,,,,,,,10,,,58,96
217164,note_on,84,0,10,,,,,,,,8,,,61,0
217170,note_on,90,0,12,,,,,,,,11,,,46,0
217170,note_on,90,0,11,,,,,,,,10,,,58,0
217200,note_on,30,0,12,,,,,,,,11,,,46,64
217200,note_on,30,0,11,,,,,,,,10,,,58,96
217200,note_on,36,0,10,,,,,,,,8,,,61,96
217276,note_on,76,0,11,,,,,,,,10,,,58,0
217276,note_on,76,0,12,,,,,,,,11,,,46,0
217282,note_on,82,0,10,,,,,,,,8,,,61,0
217320,note_on,44,0,11,,,,,,,,10,,,58,96
217320,note_on,44,0,12,,,,,,,,11,,,46,64
217320,note_on,38,0,10,,,,,,,,8,,,61,96
217402,note_on,82,0,10,,,,,,,,8,,,61,0
217406,note_on,86,0,11,,,,,,,,10,,,58,0
217406,note_on,86,0,12,,,,,,,,11,,,46,0
217440,note_on,38,0,10,,,,,,,,8,,,61,96
217440,note_on,34,0,12,,,,,,,,11,,,46,64
217440,note_on,34,0,11,,,,,,,,10,,,58,96
217522,note_on,82,0,10,,,,,,,,8,,,61,0
217530,note_on,90,0,11,,,,,,,,10,,,58,0
217530,note_on,90,0,12,,,,,,,,11,,,46,0
217560,note_on,38,0,10,,,,,,,,8,,,61,96
217560,note_on,30,0,11,,,,,,,,10,,,58,96
217560,note_on,30,0,12,,,,,,,,11,,,46,64
217646,note_on,86,0,11,,,,,,,,10,,,58,0
217646,note_on,86,0,12,,,,,,,,11,,,46,0
217656,note_on,96,0,10,,,,,,,,8,,,61,0
217672,note_on,1672,0,4,,,,,,,,3,,,61,0
217680,note_on,34,0,12,,,,,,,,11,,,44,64
217680,note_on,34,0,11,,,,,,,,10,,,56,96
217680,note_on,656,0,8,,,,,,,,4,,,68,96
217680,note_on,0,0,8,,,,,,,,4,,,80,96
217680,note_on,24,0,10,,,,,,,,8,,,60,96
217680,note_on,8,0,4,,,,,,,,3,,,60,64
217754,note_on,74,0,8,,,,,,,,4,,,79,0
217756,note_on,2,0,8,,,,,,,,4,,,67,0
217766,note_on,86,0,12,,,,,,,,11,,,44,0
217766,note_on,86,0,11,,,,,,,,10,,,56,0
217772,note_on,92,0,10,,,,,,,,8,,,60,0
217800,note_on,28,0,10,,,,,,,,8,,,60,96
217800,note_on,34,0,11,,,,,,,,10,,,56,96
217800,note_on,34,0,12,,,,,,,,11,,,44,64
217870,note_on,70,0,12,,,,,,,,11,,,44,0
217870,note_on,70,0,11,,,,,,,,10,,,56,0
217900,note_on,100,0,10,,,,,,,,8,,,60,0
217920,note_on,50,0,11,,,,,,,,10,,,55,96
217920,note_on,20,0,10,,,,,,,,8,,,58,96
217920,note_on,164,0,8,,,,,,,,4,,,82,96
217920,note_on,240,0,4,,,,,,,,3,,,58,64
217920,note_on,50,0,12,,,,,,,,11,,,43,64
217920,note_on,0,0,8,,,,,,,,4,,,70,96
217980,note_on,60,0,8,,,,,,,,4,,,68,0
218002,note_on,22,0,8,,,,,,,,4,,,80,0
218004,note_on,84,0,11,,,,,,,,10,,,55,0
218004,note_on,84,0,4,,,,,,,,3,,,60,0
218004,note_on,84,0,12,,,,,,,,11,,,43,0
218014,note_on,94,0,10,,,,,,,,8,,,58,0
218040,note_on,26,0,10,,,,,,,,8,,,58,96
218040,note_on,36,0,12,,,,,,,,11,,,43,64
218040,note_on,36,0,11,,,,,,,,10,,,55,96
218112,note_on,72,0,12,,,,,,,,11,,,43,0
218112,note_on,72,0,11,,,,,,,,10,,,55,0
218126,note_on,86,0,10,,,,,,,,8,,,58,0
218160,note_on,48,0,12,,,,,,,,11,,,43,64
218160,note_on,48,0,11,,,,,,,,10,,,55,96
218160,note_on,34,0,10,,,,,,,,8,,,58,96
218194,note_on,190,0,4,,,,,,,,3,,,63,0
218232,note_on,72,0,11,,,,,,,,10,,,55,0
218232,note_on,72,0,12,,,,,,,,11,,,43,0
218246,note_on,86,0,10,,,,,,,,8,,,58,0
218280,note_on,34,0,10,,,,,,,,8,,,58,96
218280,note_on,86,0,4,,,,,,,,3,,,63,64
218280,note_on,48,0,11,,,,,,,,10,,,55,96
218280,note_on,48,0,12,,,,,,,,11,,,43,64
218360,note_on,80,0,10,,,,,,,,8,,,58,0
218360,note_on,80,0,12,,,,,,,,11,,,43,0
218360,note_on,80,0,11,,,,,,,,10,,,55,0
218400,note_on,40,0,10,,,,,,,,8,,,58,96
218400,note_on,40,0,11,,,,,,,,10,,,55,96
218400,note_on,40,0,12,,,,,,,,11,,,43,64
218472,note_on,72,0,12,,,,,,,,11,,,43,0
218472,note_on,72,0,11,,,,,,,,10,,,55,0
218482,note_on,82,0,10,,,,,,,,8,,,58,0
218520,note_on,48,0,11,,,,,,,,10,,,55,96
218520,note_on,48,0,12,,,,,,,,11,,,43,64
218520,note_on,38,0,10,,,,,,,,8,,,58,96
218596,note_on,76,0,11,,,,,,,,10,,,55,0
218596,note_on,76,0,12,,,,,,,,11,,,43,0
218614,note_on,94,0,10,,,,,,,,8,,,58,0
218640,note_on,360,0,4,,,,,,,,3,,,56,64
218640,note_on,44,0,12,,,,,,,,11,,,41,64
218640,note_on,0,0,8,,,,,,,,4,,,84,96
218640,note_on,26,0,10,,,,,,,,8,,,56,96
218640,note_on,44,0,11,,,,,,,,10,,,53,96
218640,note_on,638,0,8,,,,,,,,4,,,72,96
218676,note_on,36,0,4,,,,,,,,3,,,58,0
218680,note_on,40,0,8,,,,,,,,4,,,82,0
218706,note_on,26,0,8,,,,,,,,4,,,70,0
218722,note_on,82,0,12,,,,,,,,11,,,41,0
218722,note_on,82,0,11,,,,,,,,10,,,53,0
218726,note_on,86,0,10,,,,,,,,8,,,56,0
218760,note_on,34,0,10,,,,,,,,8,,,56,96
218760,note_on,38,0,12,,,,,,,,11,,,41,64
218760,note_on,38,0,11,,,,,,,,10,,,53,96
218840,note_on,80,0,11,,,,,,,,10,,,53,0
218840,note_on,80,0,12,,,,,,,,11,,,41,0
218850,note_on,90,0,10,,,,,,,,8,,,56,0
218880,note_on,40,0,11,,,,,,,,10,,,51,96
218880,note_on,204,0,4,,,,,,,,3,,,55,64
218880,note_on,0,0,8,,,,,,,,4,,,85,96
218880,note_on,174,0,8,,,,,,,,4,,,73,96
218880,note_on,40,0,12,,,,,,,,11,,,39,64
218880,note_on,30,0,10,,,,,,,,8,,,55,96
218910,note_on,30,0,4,,,,,,,,3,,,56,0
218944,note_on,64,0,8,,,,,,,,4,,,72,0
218964,note_on,20,0,8,,,,,,,,4,,,84,0
218966,note_on,86,0,11,,,,,,,,10,,,51,0
218966,note_on,86,0,12,,,,,,,,11,,,39,0
218980,note_on,100,0,10,,,,,,,,8,,,55,0
219000,note_on,34,0,12,,,,,,,,11,,,39,64
219000,note_on,20,0,10,,,,,,,,8,,,55,96
219000,note_on,34,0,11,,,,,,,,10,,,51,96
219082,note_on,82,0,11,,,,,,,,10,,,51,0
219082,note_on,82,0,12,,,,,,,,11,,,39,0
219086,note_on,86,0,10,,,,,,,,8,,,55,0
219120,note_on,34,0,10,,,,,,,,8,,,55,96
219120,note_on,38,0,11,,,,,,,,10,,,51,96
219120,note_on,38,0,12,,,,,,,,11,,,39,64
219196,note_on,76,0,12,,,,,,,,11,,,39,0
219196,note_on,76,0,11,,,,,,,,10,,,51,0
219200,note_on,80,0,10,,,,,,,,8,,,55,0
219240,note_on,40,0,10,,,,,,,,8,,,55,96
219240,note_on,44,0,12,,,,,,,,11,,,39,64
219240,note_on,44,0,11,,,,,,,,10,,,51,96
219320,note_on,80,0,12,,,,,,,,11,,,39,0
219320,note_on,80,0,11,,,,,,,,10,,,51,0
219322,note_on,82,0,10,,,,,,,,8,,,55,0
219360,note_on,38,0,10,,,,,,,,8,,,55,96
219360,note_on,40,0,11,,,,,,,,10,,,51,96
219360,note_on,40,0,12,,,,,,,,11,,,39,64
219434,note_on,74,0,10,,,,,,,,8,,,55,0
219434,note_on,74,0,11,,,,,,,,10,,,51,0
219434,note_on,74,0,12,,,,,,,,11,,,39,0
219480,note_on,46,0,12,,,,,,,,11,,,39,64
219480,note_on,46,0,11,,,,,,,,10,,,51,96
219480,note_on,46,0,10,,,,,,,,8,,,55,96
219524,note_on,614,0,4,,,,,,,,3,,,55,0
219560,note_on,80,0,12,,,,,,,,11,,,39,0
219560,note_on,80,0,11,,,,,,,,10,,,51,0
219562,note_on,82,0,10,,,,,,,,8,,,55,0
219600,note_on,0,0,8,,,,,,,,4,,,82,96
219600,note_on,636,0,8,,,,,,,,4,,,70,96
219600,note_on,76,0,4,,,,,,,,3,,,55,64
219600,note_on,40,0,12,,,,,,,,11,,,37,64
219600,note_on,40,0,11,,,,,,,,10,,,49,96
219636,note_on,36,0,8,,,,,,,,4,,,85,0
219682,note_on,82,0,12,,,,,,,,11,,,37,0
219682,note_on,82,0,11,,,,,,,,10,,,49,0
219702,note_on,66,0,8,,,,,,,,4,,,73,0
219720,note_on,38,0,11,,,,,,,,10,,,49,96
219720,note_on,158,0,10,,,,,,,,8,,,67,96
219720,note_on,38,0,12,,,,,,,,11,,,37,64
219724,note_on,124,0,4,,,,,,,,3,,,55,0
219736,note_on,34,0,8,,,,,,,,4,,,70,0
219742,note_on,6,0,8,,,,,,,,4,,,82,0
219802,note_on,82,0,12,,,,,,,,11,,,37,0
219802,note_on,82,0,11,,,,,,,,10,,,49,0
219810,note_on,90,0,10,,,,,,,,8,,,67,0
219840,note_on,30,0,10,,,,,,,,8,,,68,96
219840,note_on,38,0,11,,,,,,,,10,,,48,96
219840,note_on,38,0,12,,,,,,,,11,,,36,64
219840,note_on,0,0,8,,,,,,,,4,,,87,68
219840,note_on,0,0,8,,,,,,,,4,,,75,68
219840,note_on,116,0,4,,,,,,,,3,,,56,64
219840,control_change,98,0,8,,,,,,,,4,7,90,,
219870,note_on,4830,0,2,,,,,,,,1,,,75,0
219890,note_on,3890,0,1,,,,,,,,0,,,87,0
219926,note_on,86,0,10,,,,,,,,8,,,68,0
219972,note_on,132,0,4,,,,,,,,3,,,56,0
220004,note_on,164,0,12,,,,,,,,11,,,36,0
220004,note_on,164,0,11,,,,,,,,10,,,48,0
220032,note_on,60,0,4,,,,,,,,3,,,63,0
220080,note_on,240,0,8,,,,,,,,4,,,84,68
220080,note_on,0,0,8,,,,,,,,4,,,72,68
220080,note_on,0,0,10,,,,,,,,8,,,68,96
220080,note_on,154,0,10,,,,,,,,8,,,63,96
220106,note_on,26,0,8,,,,,,,,4,,,75,0
220122,note_on,16,0,8,,,,,,,,4,,,87,0
220164,note_on,42,0,8,,,,,,,,4,,,72,0
220164,note_on,84,0,10,,,,,,,,8,,,63,0
220166,note_on,2,0,8,,,,,,,,4,,,84,0
220184,note_on,20,0,10,,,,,,,,8,,,68,0
220320,note_on,316,0,11,,,,,,,,10,,,49,96
220320,note_on,316,0,12,,,,,,,,11,,,37,64
220320,note_on,154,0,8,,,,,,,,4,,,82,68
220320,note_on,0,0,8,,,,,,,,4,,,70,68
220470,note_on,150,0,12,,,,,,,,11,,,37,0
220470,note_on,150,0,11,,,,,,,,10,,,49,0
220560,note_on,0,0,10,,,,,,,,8,,,61,96
220560,note_on,376,0,10,,,,,,,,8,,,65,96
220560,note_on,0,0,8,,,,,,,,4,,,85,68
220560,note_on,240,0,8,,,,,,,,4,,,73,68
220602,note_on,42,0,8,,,,,,,,4,,,82,0
220606,note_on,4,0,8,,,,,,,,4,,,70,0
220632,note_on,26,0,8,,,,,,,,4,,,73,0
220634,note_on,0,0,10,,,,,,,,8,,,65,0
220634,note_on,2,0,8,,,,,,,,4,,,85,0
220634,note_on,74,0,10,,,,,,,,8,,,61,0
220800,note_on,330,0,12,,,,,,,,11,,,39,64
220800,note_on,166,0,8,,,,,,,,4,,,68,68
220800,note_on,0,0,8,,,,,,,,4,,,80,68
220800,note_on,330,0,11,,,,,,,,10,,,51,96
220922,note_on,122,0,11,,,,,,,,10,,,51,0
220922,note_on,122,0,12,,,,,,,,11,,,39,0
221040,note_on,240,0,8,,,,,,,,4,,,72,68
221040,note_on,406,0,10,,,,,,,,8,,,63,96
221040,note_on,0,0,10,,,,,,,,8,,,60,96
221040,note_on,0,0,8,,,,,,,,4,,,84,68
221086,note_on,46,0,8,,,,,,,,4,,,80,0
221086,note_on,0,0,8,,,,,,,,4,,,68,0
221120,note_on,0,0,8,,,,,,,,4,,,84,0
221120,note_on,34,0,8,,,,,,,,4,,,72,0
221126,note_on,86,0,10,,,,,,,,8,,,63,0
221130,note_on,4,0,10,,,,,,,,8,,,60,0
221280,note_on,160,0,8,,,,,,,,4,,,79,68
221280,note_on,358,0,12,,,,,,,,11,,,39,64
221280,note_on,358,0,11,,,,,,,,10,,,51,96
221280,note_on,0,0,8,,,,,,,,4,,,67,68
221416,note_on,136,0,12,,,,,,,,11,,,39,0
221416,note_on,136,0,11,,,,,,,,10,,,51,0
221520,note_on,0,0,8,,,,,,,,4,,,82,68
221520,note_on,240,0,8,,,,,,,,4,,,70,68
221520,note_on,390,0,10,,,,,,,,8,,,58,96
221520,note_on,0,0,10,,,,,,,,8,,,61,96
221574,note_on,54,0,8,,,,,,,,4,,,79,0
221584,note_on,10,0,8,,,,,,,,4,,,67,0
221586,note_on,2,0,8,,,,,,,,4,,,70,0
221592,note_on,72,0,10,,,,,,,,8,,,58,0
221592,note_on,6,0,8,,,,,,,,4,,,82,0
221596,note_on,4,0,10,,,,,,,,8,,,61,0
221760,note_on,0,0,8,,,,,,,,4,,,82,96
221760,note_on,31594,0,6,,,,,,,,6,,,72,64
221760,note_on,0,0,8,,,,,,,,4,,,84,96
221760,note_on,1728,0,4,,,,,,,,3,,,52,64
221760,control_change,168,0,8,,,,,,,,4,7,127,,
221760,note_on,0,0,6,,,,,,,,6,,,60,64
221760,note_on,344,0,11,,,,,,,,10,,,52,96
221760,note_on,0,0,8,,,,,,,,4,,,72,96
221760,note_on,1870,0,1,,,,,,,,0,,,84,64
221760,note_on,0,0,1,,,,,,,,0,,,82,64
221760,note_on,7614,0,5,,,,,,,,5,,,60,64
221760,note_on,7516,0,3,,,,,,,,2,,,72,64
221760,note_on,0,0,3,,,,,,,,2,,,67,64
221760,note_on,0,0,5,,,,,,,,5,,,48,64
221760,note_on,0,0,2,,,,,,,,1,,,70,64
221760,note_on,1890,0,2,,,,,,,,1,,,79,64
221760,note_on,344,0,12,,,,,,,,11,,,40,64
221760,note_on,164,0,10,,,,,,,,8,,,64,96
221760,note_on,31594,0,7,,,,,,,,7,,,48,64
221830,note_on,70,0,7,,,,,,,,7,,,48,0
221830,note_on,0,0,6,,,,,,,,6,,,72,0
221830,note_on,70,0,6,,,,,,,,6,,,60,0
221840,note_on,80,0,8,,,,,,,,4,,,72,0
221842,note_on,2,0,8,,,,,,,,4,,,84,0
221866,note_on,24,0,8,,,,,,,,4,,,82,0
221880,note_on,0,0,8,,,,,,,,4,,,84,96
221880,note_on,0,0,8,,,,,,,,4,,,72,96
221880,note_on,14,0,8,,,,,,,,4,,,82,96
221880,note_on,50,0,6,,,,,,,,6,,,72,64
221880,note_on,0,0,6,,,,,,,,6,,,60,64
221880,note_on,50,0,7,,,,,,,,7,,,48,64
221960,note_on,80,0,6,,,,,,,,6,,,60,0
221960,note_on,0,0,6,,,,,,,,6,,,72,0
221960,note_on,80,0,7,,,,,,,,7,,,48,0
221962,note_on,82,0,8,,,,,,,,4,,,72,0
221972,note_on,10,0,8,,,,,,,,4,,,82,0
221980,note_on,8,0,8,,,,,,,,4,,,84,0
222000,note_on,40,0,7,,,,,,,,7,,,48,64
222000,note_on,40,0,6,,,,,,,,6,,,72,64
222000,note_on,0,0,6,,,,,,,,6,,,60,64
222000,note_on,20,0,8,,,,,,,,4,,,82,96
222000,note_on,0,0,8,,,,,,,,4,,,84,96
222000,note_on,0,0,8,,,,,,,,4,,,72,96
222072,note_on,72,0,7,,,,,,,,7,,,48,0
222072,note_on,72,0,6,,,,,,,,6,,,60,0
222072,note_on,0,0,6,,,,,,,,6,,,72,0
222082,note_on,82,0,8,,,,,,,,4,,,72,0
222090,note_on,8,0,8,,,,,,,,4,,,82,0
222100,note_on,10,0,8,,,,,,,,4,,,84,0
222120,note_on,0,0,8,,,,,,,,4,,,82,96
222120,note_on,20,0,8,,,,,,,,4,,,84,96
222120,note_on,48,0,7,,,,,,,,7,,,48,64
222120,note_on,48,0,6,,,,,,,,6,,,60,64
222120,note_on,0,0,6,,,,,,,,6,,,72,64
222120,note_on,0,0,8,,,,,,,,4,,,72,96
222192,note_on,72,0,7,,,,,,,,7,,,48,0
222192,note_on,72,0,6,,,,,,,,6,,,72,0
222192,note_on,0,0,6,,,,,,,,6,,,60,0
222204,note_on,84,0,8,,,,,,,,4,,,72,0
222214,note_on,10,0,8,,,,,,,,4,,,82,0
222216,note_on,2,0,8,,,,,,,,4,,,84,0
222240,note_on,0,0,8,,,,,,,,4,,,82,96
222240,note_on,0,0,6,,,,,,,,6,,,60,64
222240,note_on,48,0,6,,,,,,,,6,,,72,64
222240,note_on,0,0,8,,,,,,,,4,,,84,96
222240,note_on,24,0,8,,,,,,,,4,,,72,96
222240,note_on,48,0,7,,,,,,,,7,,,48,64
222316,note_on,0,0,6,,,,,,,,6,,,72,0
222316,note_on,76,0,7,,,,,,,,7,,,48,0
222316,note_on,76,0,6,,,,,,,,6,,,60,0
222326,note_on,86,0,8,,,,,,,,4,,,72,0
222334,note_on,8,0,8,,,,,,,,4,,,84,0
222336,note_on,2,0,8,,,,,,,,4,,,82,0
222360,note_on,0,0,8,,,,,,,,4,,,84,96
222360,note_on,0,0,8,,,,,,,,4,,,82,96
222360,note_on,24,0,8,,,,,,,,4,,,72,96
222360,note_on,44,0,6,,,,,,,,6,,,72,64
222360,note_on,0,0,6,,,,,,,,6,,,60,64
222360,note_on,44,0,7,,,,,,,,7,,,48,64
222426,note_on,66,0,6,,,,,,,,6,,,60,0
222426,note_on,0,0,6,,,,,,,,6,,,72,0
222426,note_on,66,0,7,,,,,,,,7,,,48,0
222446,note_on,86,0,8,,,,,,,,4,,,82,0
222452,note_on,6,0,8,,,,,,,,4,,,72,0
222456,note_on,4,0,8,,,,,,,,4,,,84,0
222480,note_on,54,0,7,,,,,,,,7,,,48,64
222480,note_on,0,0,8,,,,,,,,4,,,72,96
222480,note_on,24,0,8,,,,,,,,4,,,84,96
222480,note_on,0,0,8,,,,,,,,4,,,82,96
222480,note_on,0,0,6,,,,,,,,6,,,72,64
222480,note_on,54,0,6,,,,,,,,6,,,60,64
222560,note_on,0,0,6,,,,,,,,6,,,60,0
222560,note_on,80,0,7,,,,,,,,7,,,48,0
222560,note_on,80,0,6,,,,,,,,6,,,72,0
222570,note_on,90,0,8,,,,,,,,4,,,72,0
222572,note_on,2,0,8,,,,,,,,4,,,82,0
222574,note_on,2,0,8,,,,,,,,4,,,84,0
222600,note_on,0,0,8,,,,,,,,4,,,84,96
222600,note_on,0,0,8,,,,,,,,4,,,82,96
222600,note_on,26,0,8,,,,,,,,4,,,72,96
222600,note_on,40,0,6,,,,,,,,6,,,72,64
222600,note_on,0,0,6,,,,,,,,6,,,60,64
222600,note_on,40,0,7,,,,,,,,7,,,48,64
222664,note_on,0,0,6,,,,,,,,6,,,72,0
222664,note_on,64,0,6,,,,,,,,6,,,60,0
222664,note_on,64,0,7,,,,,,,,7,,,48,0
222690,note_on,0,0,8,,,,,,,,4,,,72,0
222690,note_on,90,0,8,,,,,,,,4,,,82,0
222696,note_on,6,0,8,,,,,,,,4,,,84,0
222720,note_on,24,0,8,,,,,,,,4,,,82,96
222720,note_on,0,0,8,,,,,,,,4,,,84,96
222720,note_on,56,0,6,,,,,,,,6,,,72,64
222720,note_on,0,0,6,,,,,,,,6,,,60,64
222720,note_on,56,0,7,,,,,,,,7,,,48,64
222720,note_on,0,0,8,,,,,,,,4,,,72,96
222792,note_on,72,0,7,,,,,,,,7,,,48,0
222792,note_on,72,0,6,,,,,,,,6,,,60,0
222792,note_on,0,0,6,,,,,,,,6,,,72,0
222806,note_on,86,0,8,,,,,,,,4,,,72,0
222810,note_on,4,0,8,,,,,,,,4,,,82,0
222826,note_on,16,0,8,,,,,,,,4,,,84,0
222840,note_on,1080,0,12,,,,,,,,11,,,41,64
222840,note_on,48,0,6,,,,,,,,6,,,72,64
222840,note_on,0,0,6,,,,,,,,6,,,60,64
222840,note_on,1080,0,11,,,,,,,,10,,,53,96
222840,note_on,1080,0,10,,,,,,,,8,,,65,96
222840,note_on,1080,0,4,,,,,,,,3,,,53,64
222840,note_on,48,0,7,,,,,,,,7,,,48,64
222840,note_on,0,0,8,,,,,,,,4,,,82,96
222840,note_on,0,0,8,,,,,,,,4,,,84,96
222840,note_on,14,0,8,,,,,,,,4,,,72,96
222872,note_on,32,0,4,,,,,,,,3,,,52,0
222882,note_on,42,0,11,,,,,,,,10,,,52,0
222882,note_on,42,0,12,,,,,,,,11,,,40,0
222904,note_on,64,0,7,,,,,,,,7,,,48,0
222904,note_on,0,0,6,,,,,,,,6,,,72,0
222904,note_on,64,0,6,,,,,,,,6,,,60,0
222916,note_on,76,0,8,,,,,,,,4,,,72,0
222924,note_on,8,0,8,,,,,,,,4,,,82,0
222936,note_on,96,0,10,,,,,,,,8,,,64,0
222944,note_on,20,0,8,,,,,,,,4,,,84,0
222960,note_on,0,0,6,,,,,,,,6,,,60,64
222960,note_on,24,0,10,,,,,,,,8,,,67,96
222960,note_on,56,0,6,,,,,,,,6,,,72,64
222960,note_on,56,0,7,,,,,,,,7,,,48,64
222960,note_on,78,0,12,,,,,,,,11,,,43,64
222960,note_on,88,0,4,,,,,,,,3,,,55,64
222960,note_on,78,0,11,,,,,,,,10,,,55,96
222960,note_on,0,0,8,,,,,,,,4,,,84,96
222960,note_on,0,0,8,,,,,,,,4,,,82,96
222960,note_on,16,0,8,,,,,,,,4,,,72,96
222982,note_on,22,0,4,,,,,,,,3,,,53,0
223012,note_on,52,0,11,,,,,,,,10,,,53,0
223012,note_on,52,0,12,,,,,,,,11,,,41,0
223032,note_on,72,0,10,,,,,,,,8,,,65,0
223042,note_on,82,0,8,,,,,,,,4,,,72,0
223044,note_on,84,0,6,,,,,,,,6,,,60,0
223044,note_on,0,0,6,,,,,,,,6,,,72,0
223044,note_on,84,0,7,,,,,,,,7,,,48,0
223046,note_on,4,0,8,,,,,,,,4,,,82,0
223060,note_on,14,0,8,,,,,,,,4,,,84,0
223080,note_on,48,0,10,,,,,,,,8,,,65,96
223080,note_on,68,0,11,,,,,,,,10,,,53,96
223080,note_on,20,0,8,,,,,,,,4,,,84,96
223080,note_on,68,0,12,,,,,,,,11,,,41,64
223080,note_on,0,0,8,,,,,,,,4,,,82,96
223080,note_on,36,0,7,,,,,,,,7,,,48,64
223080,note_on,0,0,8,,,,,,,,4,,,72,96
223080,note_on,98,0,4,,,,,,,,3,,,53,64
223080,note_on,0,0,6,,,,,,,,6,,,60,64
223080,note_on,36,0,6,,,,,,,,6,,,72,64
223110,note_on,30,0,4,,,,,,,,3,,,55,0
223136,note_on,56,0,11,,,,,,,,10,,,55,0
223136,note_on,56,0,12,,,,,,,,11,,,43,0
223144,note_on,64,0,7,,,,,,,,7,,,48,0
223144,note_on,64,0,6,,,,,,,,6,,,60,0
223144,note_on,0,0,6,,,,,,,,6,,,72,0
223162,note_on,82,0,8,,,,,,,,4,,,72,0
223164,note_on,2,0,8,,,,,,,,4,,,82,0
223166,note_on,86,0,10,,,,,,,,8,,,67,0
223184,note_on,20,0,8,,,,,,,,4,,,84,0
223200,note_on,56,0,7,,,,,,,,7,,,48,64
223200,note_on,64,0,11,,,,,,,,10,,,52,96
223200,note_on,0,0,6,,,,,,,,6,,,72,64
223200,note_on,64,0,12,,,,,,,,11,,,40,64
223200,note_on,56,0,6,,,,,,,,6,,,60,64
223200,note_on,0,0,8,,,,,,,,4,,,72,96
223200,note_on,16,0,8,,,,,,,,4,,,82,96
223200,note_on,90,0,4,,,,,,,,3,,,52,64
223200,note_on,0,0,8,,,,,,,,4,,,84,96
223200,note_on,34,0,10,,,,,,,,8,,,64,96
223232,note_on,32,0,4,,,,,,,,3,,,53,0
223256,note_on,56,0,12,,,,,,,,11,,,41,0
223256,note_on,56,0,11,,,,,,,,10,,,53,0
223266,note_on,0,0,6,,,,,,,,6,,,60,0
223266,note_on,66,0,6,,,,,,,,6,,,72,0
223266,note_on,66,0,7,,,,,,,,7,,,48,0
223272,note_on,72,0,10,,,,,,,,8,,,65,0
223280,note_on,80,0,8,,,,,,,,4,,,72,0
223286,note_on,6,0,8,,,,,,,,4,,,82,0
223302,note_on,16,0,8,,,,,,,,4,,,84,0
223320,note_on,54,0,6,,,,,,,,6,,,72,64
223320,note_on,54,0,7,,,,,,,,7,,,48,64
223320,note_on,64,0,12,,,,,,,,11,,,36,64
223320,note_on,48,0,10,,,,,,,,8,,,60,96
223320,note_on,0,0,6,,,,,,,,6,,,60,64
223320,note_on,64,0,11,,,,,,,,10,,,48,96
223320,note_on,0,0,8,,,,,,,,4,,,84,96
223320,note_on,0,0,8,,,,,,,,4,,,82,96
223320,note_on,18,0,8,,,,,,,,4,,,72,96
223320,note_on,88,0,4,,,,,,,,3,,,48,64
223342,note_on,22,0,4,,,,,,,,3,,,52,0
223364,note_on,44,0,10,,,,,,,,8,,,64,0
223366,note_on,46,0,11,,,,,,,,10,,,52,0
223366,note_on,46,0,12,,,,,,,,11,,,40,0
223394,note_on,74,0,8,,,,,,,,4,,,72,0
223400,note_on,80,0,7,,,,,,,,7,,,48,0
223400,note_on,0,0,6,,,,,,,,6,,,72,0
223400,note_on,80,0,6,,,,,,,,6,,,60,0
223406,note_on,12,0,8,,,,,,,,4,,,82,0
223420,note_on,14,0,8,,,,,,,,4,,,84,0
223440,note_on,0,0,8,,,,,,,,4,,,84,96
223440,note_on,74,0,11,,,,,,,,10,,,50,96
223440,note_on,0,0,8,,,,,,,,4,,,82,96
223440,note_on,20,0,8,,,,,,,,4,,,72,96
223440,note_on,40,0,7,,,,,,,,7,,,48,64
223440,note_on,0,0,6,,,,,,,,6,,,72,64
223440,note_on,40,0,6,,,,,,,,6,,,60,64
223440,note_on,98,0,4,,,,,,,,3,,,50,64
223440,note_on,74,0,12,,,,,,,,11,,,38,64
223440,note_on,76,0,10,,,,,,,,8,,,62,96
223472,note_on,32,0,4,,,,,,,,3,,,48,0
223482,note_on,42,0,10,,,,,,,,8,,,60,0
223504,note_on,64,0,12,,,,,,,,11,,,36,0
223504,note_on,64,0,11,,,,,,,,10,,,48,0
223504,note_on,1744,0,2,,,,,,,,1,,,70,0
223512,note_on,72,0,7,,,,,,,,7,,,48,0
223512,note_on,0,0,6,,,,,,,,6,,,60,0
223512,note_on,72,0,6,,,,,,,,6,,,72,0
223516,note_on,76,0,8,,,,,,,,4,,,72,0
223524,note_on,8,0,8,,,,,,,,4,,,82,0
223540,note_on,36,0,2,,,,,,,,1,,,79,0
223542,note_on,18,0,8,,,,,,,,4,,,84,0
223560,note_on,48,0,6,,,,,,,,6,,,72,64
223560,note_on,56,0,11,,,,,,,,10,,,52,96
223560,note_on,88,0,4,,,,,,,,3,,,52,64
223560,note_on,18,0,8,,,,,,,,4,,,84,96
223560,note_on,78,0,10,,,,,,,,8,,,64,96
223560,note_on,48,0,7,,,,,,,,7,,,48,64
223560,note_on,0,0,8,,,,,,,,4,,,82,96
223560,note_on,56,0,12,,,,,,,,11,,,40,64
223560,note_on,0,0,8,,,,,,,,4,,,72,96
223560,note_on,0,0,6,,,,,,,,6,,,60,64
223566,note_on,1806,0,1,,,,,,,,0,,,82,0
223574,note_on,14,0,4,,,,,,,,3,,,50,0
223602,note_on,42,0,10,,,,,,,,8,,,62,0
223620,note_on,60,0,12,,,,,,,,11,,,38,0
223620,note_on,60,0,11,,,,,,,,10,,,50,0
223634,note_on,74,0,8,,,,,,,,4,,,72,0
223642,note_on,8,0,8,,,,,,,,4,,,82,0
223644,note_on,0,0,6,,,,,,,,6,,,72,0
223644,note_on,84,0,6,,,,,,,,6,,,60,0
223644,note_on,84,0,7,,,,,,,,7,,,48,0
223660,note_on,18,0,8,,,,,,,,4,,,84,0
223662,note_on,1902,0,3,,,,,,,,2,,,67,0
223680,note_on,78,0,10,,,,,,,,8,,,65,96
223680,note_on,0,0,2,,,,,,,,1,,,77,64
223680,note_on,18,0,3,,,,,,,,2,,,68,64
223680,note_on,106,0,4,,,,,,,,3,,,53,64
223680,note_on,140,0,2,,,,,,,,1,,,68,64
223680,note_on,60,0,11,,,,,,,,10,,,53,96
223680,note_on,0,0,8,,,,,,,,4,,,84,68
223680,control_change,20,0,8,,,,,,,,4,7,90,,
223680,note_on,0,0,6,,,,,,,,6,,,72,64
223680,note_on,36,0,6,,,,,,,,6,,,60,64
223680,note_on,60,0,12,,,,,,,,11,,,41,64
223680,note_on,114,0,1,,,,,,,,0,,,80,64
223680,note_on,0,0,8,,,,,,,,4,,,72,68
223680,note_on,0,0,8,,,,,,,,4,,,80,68
223680,note_on,36,0,7,,,,,,,,7,,,48,64
223712,note_on,32,0,4,,,,,,,,3,,,52,0
223720,note_on,40,0,10,,,,,,,,8,,,64,0
223722,note_on,42,0,12,,,,,,,,11,,,40,0
223722,note_on,42,0,11,,,,,,,,10,,,52,0
223736,note_on,56,0,1,,,,,,,,0,,,84,0
223740,note_on,60,0,7,,,,,,,,7,,,48,0
223740,note_on,60,0,6,,,,,,,,6,,,72,0
223740,note_on,0,0,6,,,,,,,,6,,,60,0
223756,note_on,36,0,10,,,,,,,,8,,,65,0
223760,note_on,2000,0,5,,,,,,,,5,,,48,0
223766,note_on,6,0,5,,,,,,,,5,,,60,0
223766,note_on,30,0,1,,,,,,,,0,,,80,0
223774,note_on,94,0,2,,,,,,,,1,,,68,0
223784,note_on,10,0,2,,,,,,,,1,,,77,0
223810,note_on,98,0,4,,,,,,,,3,,,53,0
223822,note_on,142,0,3,,,,,,,,2,,,72,0
223830,note_on,108,0,12,,,,,,,,11,,,41,0
223830,note_on,108,0,11,,,,,,,,10,,,53,0
223834,note_on,12,0,3,,,,,,,,2,,,68,0
223892,note_on,212,0,8,,,,,,,,4,,,80,0
223920,note_on,164,0,10,,,,,,,,8,,,60,96
223920,note_on,28,0,8,,,,,,,,4,,,80,68
223920,note_on,0,0,8,,,,,,,,4,,,68,68
223950,note_on,30,0,8,,,,,,,,4,,,72,0
223974,note_on,24,0,8,,,,,,,,4,,,84,0
223986,note_on,12,0,8,,,,,,,,4,,,68,0
223992,note_on,6,0,8,,,,,,,,4,,,80,0
224006,note_on,86,0,10,,,,,,,,8,,,60,0
224160,note_on,330,0,12,,,,,,,,11,,,34,64
224160,note_on,330,0,11,,,,,,,,10,,,46,96
224160,note_on,350,0,4,,,,,,,,3,,,46,64
224160,note_on,0,0,4,,,,,,,,3,,,55,64
224160,note_on,0,0,8,,,,,,,,4,,,79,68
224160,note_on,326,0,3,,,,,,,,2,,,67,64
224160,note_on,168,0,8,,,,,,,,4,,,67,68
224330,note_on,170,0,11,,,,,,,,10,,,46,0
224330,note_on,170,0,12,,,,,,,,11,,,34,0
224380,note_on,220,0,4,,,,,,,,3,,,46,0
224400,note_on,240,0,3,,,,,,,,2,,,70,64
224400,note_on,20,0,4,,,,,,,,3,,,58,64
224400,note_on,240,0,8,,,,,,,,4,,,70,68
224400,note_on,394,0,10,,,,,,,,8,,,61,96
224400,note_on,0,0,10,,,,,,,,8,,,58,96
224400,note_on,0,0,8,,,,,,,,4,,,82,68
224412,note_on,12,0,4,,,,,,,,3,,,55,0
224430,note_on,30,0,8,,,,,,,,4,,,67,0
224434,note_on,4,0,8,,,,,,,,4,,,79,0
224440,note_on,40,0,3,,,,,,,,2,,,67,0
224454,note_on,20,0,8,,,,,,,,4,,,70,0
224456,note_on,44,0,4,,,,,,,,3,,,58,0
224464,note_on,64,0,10,,,,,,,,8,,,58,0
224466,note_on,26,0,3,,,,,,,,2,,,70,0
224474,note_on,20,0,8,,,,,,,,4,,,82,0
224476,note_on,12,0,10,,,,,,,,8,,,61,0
224640,note_on,0,0,8,,,,,,,,4,,,77,68
224640,note_on,166,0,8,,,,,,,,4,,,65,68
224640,note_on,310,0,11,,,,,,,,10,,,48,96
224640,note_on,174,0,3,,,,,,,,2,,,65,64
224640,note_on,184,0,4,,,,,,,,3,,,48,64
224640,note_on,0,0,4,,,,,,,,3,,,53,64
224640,note_on,310,0,12,,,,,,,,11,,,36,64
224796,note_on,156,0,11,,,,,,,,10,,,48,0
224796,note_on,156,0,12,,,,,,,,11,,,36,0
224874,note_on,234,0,4,,,,,,,,3,,,48,0
224880,note_on,6,0,4,,,,,,,,3,,,56,64
224880,note_on,0,0,10,,,,,,,,8,,,56,96
224880,note_on,404,0,10,,,,,,,,8,,,60,96
224880,note_on,240,0,8,,,,,,,,4,,,80,68
224880,note_on,0,0,8,,,,,,,,4,,,68,68
224880,note_on,240,0,3,,,,,,,,2,,,68,64
224896,note_on,16,0,4,,,,,,,,3,,,53,0
224906,note_on,26,0,3,,,,,,,,2,,,65,0
224922,note_on,42,0,8,,,,,,,,4,,,77,0
224932,note_on,36,0,4,,,,,,,,3,,,56,0
224942,note_on,20,0,8,,,,,,,,4,,,65,0
224942,note_on,0,0,8,,,,,,,,4,,,68,0
224944,note_on,38,0,3,,,,,,,,2,,,68,0
224946,note_on,66,0,10,,,,,,,,8,,,56,0
224960,note_on,14,0,10,,,,,,,,8,,,60,0
224966,note_on,24,0,8,,,,,,,,4,,,80,0
225120,note_on,324,0,12,,,,,,,,11,,,36,64
225120,note_on,176,0,3,,,,,,,,2,,,64,64
225120,note_on,0,0,8,,,,,,,,4,,,76,68
225120,note_on,0,0,4,,,,,,,,3,,,52,64
225120,note_on,188,0,4,,,,,,,,3,,,48,64
225120,note_on,154,0,8,,,,,,,,4,,,64,68
225120,note_on,324,0,11,,,,,,,,10,,,48,96
225294,note_on,174,0,11,,,,,,,,10,,,48,0
225294,note_on,174,0,12,,,,,,,,11,,,36,0
225360,note_on,0,0,8,,,,,,,,4,,,79,68
225360,note_on,240,0,8,,,,,,,,4,,,67,68
225360,note_on,0,0,10,,,,,,,,8,,,60,96
225360,note_on,240,0,3,,,,,,,,2,,,67,64
225360,note_on,240,0,4,,,,,,,,3,,,55,64
225360,note_on,400,0,10,,,,,,,,8,,,58,96
225362,note_on,2,0,4,,,,,,,,3,,,48,0
225372,note_on,10,0,4,,,,,,,,3,,,52,0
225400,note_on,40,0,8,,,,,,,,4,,,64,0
225410,note_on,50,0,3,,,,,,,,2,,,64,0
225416,note_on,16,0,8,,,,,,,,4,,,76,0
225416,note_on,0,0,8,,,,,,,,4,,,67,0
225422,note_on,50,0,4,,,,,,,,3,,,55,0
225424,note_on,14,0,3,,,,,,,,2,,,67,0
225430,note_on,70,0,10,,,,,,,,8,,,58,0
225434,note_on,4,0,10,,,,,,,,8,,,60,0
225452,note_on,36,0,8,,,,,,,,4,,,79,0
225600,note_on,0,0,2,,,,,,,,1,,,86,64
225600,note_on,1834,0,1,,,,,,,,0,,,89,64
225600,note_on,0,0,8,,,,,,,,4,,,74,96
225600,note_on,0,0,1,,,,,,,,0,,,91,64
225600,note_on,0,0,8,,,,,,,,4,,,77,96
225600,control_change,148,0,8,,,,,,,,4,7,127,,
225600,note_on,166,0,10,,,,,,,,8,,,59,96
225600,note_on,306,0,12,,,,,,,,11,,,35,64
225600,note_on,306,0,11,,,,,,,,10,,,47,96
225600,note_on,178,0,4,,,,,,,,3,,,47,64
225600,note_on,1834,0,5,,,,,,,,5,,,55,64
225600,note_on,0,0,5,,,,,,,,5,,,67,64
225600,note_on,176,0,3,,,,,,,,2,,,74,64
225600,note_on,0,0,3,,,,,,,,2,,,65,64
225600,note_on,0,0,8,,,,,,,,4,,,79,96
225600,note_on,1816,0,2,,,,,,,,1,,,77,64
225676,note_on,76,0,8,,,,,,,,4,,,74,0
225684,note_on,8,0,8,,,,,,,,4,,,77,0
225692,note_on,8,0,8,,,,,,,,4,,,79,0
225720,note_on,0,0,8,,,,,,,,4,,,74,96
225720,note_on,0,0,8,,,,,,,,4,,,79,96
225720,note_on,28,0,8,,,,,,,,4,,,77,96
225804,note_on,84,0,8,,,,,,,,4,,,74,0
225810,note_on,6,0,8,,,,,,,,4,,,77,0
225812,note_on,2,0,8,,,,,,,,4,,,79,0
225840,note_on,28,0,8,,,,,,,,4,,,77,96
225840,note_on,0,0,8,,,,,,,,4,,,79,96
225840,note_on,0,0,8,,,,,,,,4,,,74,96
225922,note_on,0,0,8,,,,,,,,4,,,77,0
225922,note_on,82,0,8,,,,,,,,4,,,74,0
225930,note_on,8,0,8,,,,,,,,4,,,79,0
225960,note_on,0,0,8,,,,,,,,4,,,77,96
225960,note_on,0,0,8,,,,,,,,4,,,79,96
225960,note_on,30,0,8,,,,,,,,4,,,74,96
226042,note_on,0,0,8,,,,,,,,4,,,74,0
226042,note_on,82,0,8,,,,,,,,4,,,77,0
226056,note_on,14,0,8,,,,,,,,4,,,79,0
226080,note_on,24,0,8,,,,,,,,4,,,74,96
226080,note_on,0,0,8,,,,,,,,4,,,77,96
226080,note_on,0,0,8,,,,,,,,4,,,79,96
226152,note_on,72,0,8,,,,,,,,4,,,74,0
226156,note_on,4,0,8,,,,,,,,4,,,77,0
226182,note_on,26,0,8,,,,,,,,4,,,79,0
226200,note_on,0,0,8,,,,,,,,4,,,79,96
226200,note_on,18,0,8,,,,,,,,4,,,74,96
226200,note_on,0,0,8,,,,,,,,4,,,77,96
226276,note_on,76,0,8,,,,,,,,4,,,77,0
226284,note_on,8,0,8,,,,,,,,4,,,74,0
226300,note_on,16,0,8,,,,,,,,4,,,79,0
226320,note_on,0,0,8,,,,,,,,4,,,77,96
226320,note_on,20,0,8,,,,,,,,4,,,74,96
226320,note_on,0,0,8,,,,,,,,4,,,79,96
226396,note_on,76,0,8,,,,,,,,4,,,77,0
226404,note_on,8,0,8,,,,,,,,4,,,74,0
226420,note_on,16,0,8,,,,,,,,4,,,79,0
226440,note_on,0,0,8,,,,,,,,4,,,77,96
226440,note_on,0,0,8,,,,,,,,4,,,79,96
226440,note_on,20,0,8,,,,,,,,4,,,74,96
226522,note_on,82,0,8,,,,,,,,4,,,77,0
226522,note_on,0,0,8,,,,,,,,4,,,74,0
226536,note_on,14,0,8,,,,,,,,4,,,79,0
226560,note_on,24,0,8,,,,,,,,4,,,79,96
226560,note_on,0,0,8,,,,,,,,4,,,77,96
226560,note_on,0,0,8,,,,,,,,4,,,74,96
226640,note_on,80,0,8,,,,,,,,4,,,74,0
226642,note_on,2,0,8,,,,,,,,4,,,77,0
226660,note_on,18,0,8,,,,,,,,4,,,79,0
226680,note_on,1080,0,4,,,,,,,,3,,,48,64
226680,note_on,1080,0,10,,,,,,,,8,,,60,96
226680,note_on,0,0,8,,,,,,,,4,,,77,96
226680,note_on,0,0,8,,,,,,,,4,,,74,96
226680,note_on,20,0,8,,,,,,,,4,,,79,96
226680,note_on,1080,0,12,,,,,,,,11,,,36,64
226680,note_on,1080,0,11,,,,,,,,10,,,48,96
226734,note_on,54,0,10,,,,,,,,8,,,59,0
226734,note_on,54,0,12,,,,,,,,11,,,35,0
226734,note_on,54,0,11,,,,,,,,10,,,47,0
226746,note_on,66,0,4,,,,,,,,3,,,47,0
226760,note_on,80,0,8,,,,,,,,4,,,74,0
226764,note_on,4,0,8,,,,,,,,4,,,77,0
226780,note_on,16,0,8,,,,,,,,4,,,79,0
226800,note_on,66,0,11,,,,,,,,10,,,50,96
226800,note_on,66,0,10,,,,,,,,8,,,62,96
226800,note_on,54,0,4,,,,,,,,3,,,50,64
226800,note_on,0,0,8,,,,,,,,4,,,74,96
226800,note_on,66,0,12,,,,,,,,11,,,38,64
226800,note_on,0,0,8,,,,,,,,4,,,77,96
226800,note_on,20,0,8,,,,,,,,4,,,79,96
226830,note_on,30,0,4,,,,,,,,3,,,48,0
226856,note_on,56,0,10,,,,,,,,8,,,60,0
226860,note_on,60,0,12,,,,,,,,11,,,36,0
226860,note_on,60,0,11,,,,,,,,10,,,48,0
226874,note_on,74,0,8,,,,,,,,4,,,74,0
226884,note_on,10,0,8,,,,,,,,4,,,77,0
226894,note_on,10,0,8,,,,,,,,4,,,79,0
226920,note_on,60,0,12,,,,,,,,11,,,36,64
226920,note_on,64,0,10,,,,,,,,8,,,60,96
226920,note_on,90,0,4,,,,,,,,3,,,48,64
226920,note_on,60,0,11,,,,,,,,10,,,48,96
226920,note_on,26,0,8,,,,,,,,4,,,79,96
226920,note_on,0,0,8,,,,,,,,4,,,74,96
226920,note_on,0,0,8,,,,,,,,4,,,77,96
226972,note_on,52,0,4,,,,,,,,3,,,50,0
226982,note_on,62,0,10,,,,,,,,8,,,62,0
226986,note_on,66,0,12,,,,,,,,11,,,38,0
226986,note_on,66,0,11,,,,,,,,10,,,50,0
226994,note_on,74,0,8,,,,,,,,4,,,74,0
226996,note_on,2,0,8,,,,,,,,4,,,77,0
227014,note_on,18,0,8,,,,,,,,4,,,79,0
227040,note_on,58,0,10,,,,,,,,8,,,59,96
227040,note_on,54,0,12,,,,,,,,11,,,35,64
227040,note_on,0,0,8,,,,,,,,4,,,79,96
227040,note_on,0,0,8,,,,,,,,4,,,74,96
227040,note_on,68,0,4,,,,,,,,3,,,47,64
227040,note_on,54,0,11,,,,,,,,10,,,47,96
227040,note_on,26,0,8,,,,,,,,4,,,77,96
227082,note_on,42,0,4,,,,,,,,3,,,48,0
227096,note_on,56,0,11,,,,,,,,10,,,48,0
227096,note_on,56,0,12,,,,,,,,11,,,36,0
227114,note_on,74,0,8,,,,,,,,4,,,74,0
227116,note_on,2,0,8,,,,,,,,4,,,77,0
227122,note_on,82,0,10,,,,,,,,8,,,60,0
227126,note_on,10,0,8,,,,,,,,4,,,79,0
227160,note_on,38,0,10,,,,,,,,8,,,55,96
227160,note_on,34,0,8,,,,,,,,4,,,77,96
227160,note_on,0,0,8,,,,,,,,4,,,74,96
227160,note_on,0,0,8,,,,,,,,4,,,79,96
227160,note_on,64,0,11,,,,,,,,10,,,43,96
227160,note_on,78,0,4,,,,,,,,3,,,43,64
227160,note_on,64,0,12,,,,,,,,11,,,31,64
227194,note_on,34,0,4,,,,,,,,3,,,47,0
227200,note_on,40,0,10,,,,,,,,8,,,59,0
227204,note_on,44,0,11,,,,,,,,10,,,47,0
227204,note_on,44,0,12,,,,,,,,11,,,35,0
227240,note_on,80,0,8,,,,,,,,4,,,74,0
227240,note_on,0,0,8,,,,,,,,4,,,77,0
227244,note_on,4,0,8,,,,,,,,4,,,79,0
227280,note_on,76,0,11,,,,,,,,10,,,45,96
227280,note_on,0,0,8,,,,,,,,4,,,79,96
227280,note_on,76,0,12,,,,,,,,11,,,33,64
227280,note_on,0,0,8,,,,,,,,4,,,74,96
227280,note_on,86,0,4,,,,,,,,3,,,45,64
227280,note_on,80,0,10,,,,,,,,8,,,57,96
227280,note_on,36,0,8,,,,,,,,4,,,77,96
227304,note_on,1704,0,2,,,,,,,,1,,,77,0
227310,note_on,30,0,4,,,,,,,,3,,,43,0
227344,note_on,64,0,10,,,,,,,,8,,,55,0
227344,note_on,1744,0,3,,,,,,,,2,,,74,0
227352,note_on,72,0,11,,,,,,,,10,,,43,0
227352,note_on,72,0,12,,,,,,,,11,,,31,0
227354,note_on,74,0,8,,,,,,,,4,,,74,0
227354,note_on,0,0,8,,,,,,,,4,,,77,0
227370,note_on,16,0,8,,,,,,,,4,,,79,0
227400,note_on,30,0,8,,,,,,,,4,,,74,96
227400,note_on,0,0,8,,,,,,,,4,,,79,96
227400,note_on,48,0,12,,,,,,,,11,,,35,64
227400,note_on,90,0,4,,,,,,,,3,,,47,64
227400,note_on,0,0,8,,,,,,,,4,,,77,96
227400,note_on,48,0,11,,,,,,,,10,,,47,96
227400,note_on,56,0,10,,,,,,,,8,,,59,96
227410,note_on,10,0,4,,,,,,,,3,,,45,0
227412,note_on,108,0,2,,,,,,,,1,,,86,0
227424,note_on,1824,0,1,,,,,,,,0,,,89,0
227454,note_on,54,0,12,,,,,,,,11,,,33,0
227454,note_on,54,0,11,,,,,,,,10,,,45,0
227460,note_on,60,0,10,,,,,,,,8,,,57,0
227462,note_on,118,0,3,,,,,,,,2,,,65,0
227470,note_on,70,0,8,,,,,,,,4,,,74,0
227472,note_on,2,0,8,,,,,,,,4,,,77,0
227486,note_on,14,0,8,,,,,,,,4,,,79,0
227504,note_on,44,0,10,,,,,,,,8,,,59,0
227520,control_change,34,0,8,,,,,,,,4,7,90,,
227520,note_on,66,0,12,,,,,,,,11,,,36,64
227520,note_on,108,0,2,,,,,,,,1,,,84,64
227520,note_on,0,0,2,,,,,,,,1,,,75,64
227520,note_on,0,0,8,,,,,,,,4,,,79,68
227520,note_on,66,0,11,,,,,,,,10,,,48,96
227520,note_on,110,0,4,,,,,,,,3,,,48,64
227520,note_on,96,0,1,,,,,,,,0,,,87,64
227520,note_on,58,0,3,,,,,,,,2,,,63,64
227520,note_on,0,0,3,,,,,,,,2,,,72,64
227520,note_on,0,0,8,,,,,,,,4,,,75,68
227520,note_on,16,0,10,,,,,,,,8,,,60,96
227550,note_on,30,0,1,,,,,,,,0,,,91,0
227566,note_on,46,0,4,,,,,,,,3,,,47,0
227574,note_on,54,0,11,,,,,,,,10,,,47,0
227574,note_on,54,0,12,,,,,,,,11,,,35,0
227594,note_on,74,0,10,,,,,,,,8,,,60,0
227594,note_on,1994,0,5,,,,,,,,5,,,55,0
227602,note_on,8,0,5,,,,,,,,5,,,67,0
227606,note_on,56,0,1,,,,,,,,0,,,87,0
227616,note_on,96,0,2,,,,,,,,1,,,75,0
227636,note_on,116,0,3,,,,,,,,2,,,63,0
227636,note_on,20,0,2,,,,,,,,1,,,84,0
227640,note_on,66,0,11,,,,,,,,10,,,48,0
227640,note_on,66,0,12,,,,,,,,11,,,36,0
227664,note_on,28,0,3,,,,,,,,2,,,72,0
227686,note_on,120,0,4,,,,,,,,3,,,48,0
227760,note_on,166,0,10,,,,,,,,8,,,55,96
227760,note_on,240,0,8,,,,,,,,4,,,63,68
227796,note_on,0,0,8,,,,,,,,4,,,75,0
227796,note_on,36,0,8,,,,,,,,4,,,79,0
227840,note_on,44,0,8,,,,,,,,4,,,63,0
227842,note_on,82,0,10,,,,,,,,8,,,55,0
228000,note_on,314,0,4,,,,,,,,3,,,62,64
228000,note_on,0,0,4,,,,,,,,3,,,53,64
228000,note_on,0,0,8,,,,,,,,4,,,62,68
228000,note_on,160,0,8,,,,,,,,4,,,74,68
228000,note_on,394,0,1,,,,,,,,0,,,86,64
228000,note_on,360,0,12,,,,,,,,11,,,41,64
228000,note_on,360,0,11,,,,,,,,10,,,53,96
228000,note_on,364,0,2,,,,,,,,1,,,74,64
228114,note_on,114,0,12,,,,,,,,11,,,41,0
228114,note_on,114,0,11,,,,,,,,10,,,53,0
228240,note_on,240,0,4,,,,,,,,3,,,65,64
228240,note_on,240,0,8,,,,,,,,4,,,65,68
228240,note_on,240,0,2,,,,,,,,1,,,77,64
228240,note_on,0,0,10,,,,,,,,8,,,56,96
228240,note_on,398,0,10,,,,,,,,8,,,53,96
228240,note_on,0,0,8,,,,,,,,4,,,77,68
228240,note_on,240,0,1,,,,,,,,0,,,89,64
228254,note_on,14,0,1,,,,,,,,0,,,86,0
228254,note_on,14,0,2,,,,,,,,1,,,74,0
228256,note_on,16,0,4,,,,,,,,3,,,53,0
228256,note_on,0,0,4,,,,,,,,3,,,62,0
228264,note_on,24,0,8,,,,,,,,4,,,74,0
228274,note_on,10,0,8,,,,,,,,4,,,62,0
228282,note_on,28,0,2,,,,,,,,1,,,77,0
228286,note_on,32,0,1,,,,,,,,0,,,89,0
228294,note_on,38,0,4,,,,,,,,3,,,65,0
228306,note_on,32,0,8,,,,,,,,4,,,65,0
228314,note_on,8,0,8,,,,,,,,4,,,77,0
228320,note_on,80,0,10,,,,,,,,8,,,53,0
228324,note_on,4,0,10,,,,,,,,8,,,56,0
228480,note_on,186,0,4,,,,,,,,3,,,55,64
228480,note_on,366,0,11,,,,,,,,10,,,55,96
228480,note_on,0,0,8,,,,,,,,4,,,60,68
228480,note_on,166,0,8,,,,,,,,4,,,72,68
228480,note_on,366,0,12,,,,,,,,11,,,43,64
228480,note_on,194,0,1,,,,,,,,0,,,84,64
228480,note_on,0,0,4,,,,,,,,3,,,60,64
228480,note_on,198,0,2,,,,,,,,1,,,72,64
228600,note_on,120,0,12,,,,,,,,11,,,43,0
228600,note_on,120,0,11,,,,,,,,10,,,55,0
228720,note_on,240,0,2,,,,,,,,1,,,75,64
228720,note_on,396,0,10,,,,,,,,8,,,51,96
228720,note_on,240,0,8,,,,,,,,4,,,75,68
228720,note_on,0,0,10,,,,,,,,8,,,55,96
228720,note_on,240,0,4,,,,,,,,3,,,63,64
228720,note_on,0,0,8,,,,,,,,4,,,63,68
228720,note_on,240,0,1,,,,,,,,0,,,87,64
228726,note_on,6,0,4,,,,,,,,3,,,55,0
228732,note_on,12,0,2,,,,,,,,1,,,72,0
228740,note_on,20,0,1,,,,,,,,0,,,84,0
228750,note_on,24,0,4,,,,,,,,3,,,60,0
228760,note_on,40,0,8,,,,,,,,4,,,60,0
228774,note_on,24,0,4,,,,,,,,3,,,63,0
228774,note_on,14,0,8,,,,,,,,4,,,72,0
228774,note_on,42,0,2,,,,,,,,1,,,75,0
228784,note_on,44,0,1,,,,,,,,0,,,87,0
228792,note_on,72,0,10,,,,,,,,8,,,55,0
228794,note_on,20,0,8,,,,,,,,4,,,63,0
228796,note_on,4,0,10,,,,,,,,8,,,51,0
228796,note_on,2,0,8,,,,,,,,4,,,75,0
228960,note_on,186,0,2,,,,,,,,1,,,71,64
228960,note_on,0,0,8,,,,,,,,4,,,71,68
228960,note_on,360,0,12,,,,,,,,11,,,31,64
228960,note_on,164,0,8,,,,,,,,4,,,59,68
228960,note_on,176,0,1,,,,,,,,0,,,83,64
228960,note_on,0,0,4,,,,,,,,3,,,43,64
228960,note_on,186,0,4,,,,,,,,3,,,59,64
228960,note_on,360,0,11,,,,,,,,10,,,43,96
229084,note_on,124,0,12,,,,,,,,11,,,31,0
229084,note_on,124,0,11,,,,,,,,10,,,43,0
229196,note_on,236,0,1,,,,,,,,0,,,83,0
229200,note_on,240,0,4,,,,,,,,3,,,62,64
229200,note_on,240,0,8,,,,,,,,4,,,74,68
229200,note_on,404,0,10,,,,,,,,8,,,55,96
229200,note_on,0,0,10,,,,,,,,8,,,53,96
229200,note_on,4,0,1,,,,,,,,0,,,86,64
229200,note_on,0,0,8,,,,,,,,4,,,62,68
229200,note_on,240,0,2,,,,,,,,1,,,74,64
229206,note_on,6,0,2,,,,,,,,1,,,71,0
229210,note_on,10,0,4,,,,,,,,3,,,59,0
229214,note_on,4,0,4,,,,,,,,3,,,43,0
229222,note_on,22,0,8,,,,,,,,4,,,59,0
229232,note_on,10,0,8,,,,,,,,4,,,71,0
229250,note_on,50,0,1,,,,,,,,0,,,86,0
229260,note_on,54,0,2,,,,,,,,1,,,74,0
229260,note_on,46,0,4,,,,,,,,3,,,62,0
229266,note_on,0,0,10,,,,,,,,8,,,55,0
229266,note_on,66,0,10,,,,,,,,8,,,53,0
229276,note_on,44,0,8,,,,,,,,4,,,74,0
229280,note_on,4,0,8,,,,,,,,4,,,62,0
229440,note_on,356,0,12,,,,,,,,11,,,36,64
229440,note_on,180,0,4,,,,,,,,3,,,48,64
229440,note_on,0,0,4,,,,,,,,3,,,60,64
229440,note_on,190,0,1,,,,,,,,0,,,84,64
229440,note_on,356,0,11,,,,,,,,10,,,48,96
229440,note_on,180,0,2,,,,,,,,1,,,72,64
229440,note_on,174,0,10,,,,,,,,8,,,55,96
229440,note_on,0,0,10,,,,,,,,8,,,52,100
229440,note_on,160,0,8,,,,,,,,4,,,72,96
229440,note_on,0,0,8,,,,,,,,4,,,60,96
229500,note_on,60,0,1,,,,,,,,0,,,84,0
229512,note_on,72,0,2,,,,,,,,1,,,72,0
229520,note_on,80,0,10,,,,,,,,8,,,55,0
229522,note_on,2,0,10,,,,,,,,8,,,52,0
229524,note_on,84,0,8,,,,,,,,4,,,72,0
229534,note_on,10,0,8,,,,,,,,4,,,60,0
229540,note_on,18,0,10,,,,,,,,8,,,52,0
229546,note_on,106,0,11,,,,,,,,10,,,48,0
229546,note_on,106,0,12,,,,,,,,11,,,36,0
229550,note_on,110,0,4,,,,,,,,3,,,60,0
229560,note_on,26,0,8,,,,,,,,4,,,67,96
229576,note_on,26,0,4,,,,,,,,3,,,48,0
229644,note_on,84,0,8,,,,,,,,4,,,67,0
229680,note_on,36,0,8,,,,,,,,4,,,69,96
229764,note_on,84,0,8,,,,,,,,4,,,69,0
229800,note_on,36,0,8,,,,,,,,4,,,71,96
229884,note_on,84,0,8,,,,,,,,4,,,71,0
229920,note_on,36,0,8,,,,,,,,4,,,72,96
230004,note_on,84,0,8,,,,,,,,4,,,72,0
230040,note_on,36,0,8,,,,,,,,4,,,74,96
230124,note_on,84,0,8,,,,,,,,4,,,74,0
230160,note_on,36,0,8,,,,,,,,4,,,76,96
230160,note_on,660,0,1,,,,,,,,0,,,83,64
230160,note_on,584,0,4,,,,,,,,3,,,62,64
230160,note_on,6420,0,7,,,,,,,,7,,,43,64
230160,note_on,0,0,5,,,,,,,,5,,,55,64
230160,note_on,2558,0,5,,,,,,,,5,,,43,64
230160,note_on,0,0,6,,,,,,,,6,,,67,64
230160,note_on,6420,0,6,,,,,,,,6,,,55,64
230160,note_on,0,0,3,,,,,,,,2,,,65,64
230160,note_on,648,0,2,,,,,,,,1,,,77,64
230160,note_on,0,0,2,,,,,,,,1,,,74,64
230160,note_on,0,0,4,,,,,,,,3,,,59,64
230160,note_on,2496,0,3,,,,,,,,2,,,62,64
230174,note_on,14,0,2,,,,,,,,1,,,77,0
230182,note_on,8,0,2,,,,,,,,1,,,74,0
230206,note_on,46,0,5,,,,,,,,5,,,43,0
230216,note_on,10,0,5,,,,,,,,5,,,55,0
230224,note_on,64,0,1,,,,,,,,0,,,83,0
230242,note_on,82,0,4,,,,,,,,3,,,62,0
230244,note_on,0,0,6,,,,,,,,6,,,55,0
230244,note_on,84,0,8,,,,,,,,4,,,76,0
230244,note_on,84,0,6,,,,,,,,6,,,67,0
230244,note_on,84,0,3,,,,,,,,2,,,62,0
230244,note_on,84,0,7,,,,,,,,7,,,43,0
230250,note_on,6,0,3,,,,,,,,2,,,65,0
230254,note_on,12,0,4,,,,,,,,3,,,59,0
230280,note_on,36,0,8,,,,,,,,4,,,74,96
230364,note_on,84,0,8,,,,,,,,4,,,74,0
230400,note_on,146,0,4,,,,,,,,3,,,60,64
230400,note_on,0,0,4,,,,,,,,3,,,64,64
230400,note_on,0,0,2,,,,,,,,1,,,72,64
230400,note_on,36,0,8,,,,,,,,4,,,72,96
230400,note_on,0,0,6,,,,,,,,6,,,72,64
230400,note_on,156,0,6,,,,,,,,6,,,60,64
230400,note_on,156,0,7,,,,,,,,7,,,48,64
230400,note_on,184,0,5,,,,,,,,5,,,43,64
230400,note_on,0,0,5,,,,,,,,5,,,55,64
230400,note_on,150,0,3,,,,,,,,2,,,60,64
230400,note_on,0,0,3,,,,,,,,2,,,64,64
230400,note_on,176,0,1,,,,,,,,0,,,84,64
230400,note_on,218,0,2,,,,,,,,1,,,76,64
230446,note_on,46,0,5,,,,,,,,5,,,43,0
230450,note_on,4,0,5,,,,,,,,5,,,55,0
230450,note_on,50,0,2,,,,,,,,1,,,72,0
230454,note_on,4,0,2,,,,,,,,1,,,76,0
230464,note_on,64,0,1,,,,,,,,0,,,84,0
230484,note_on,84,0,3,,,,,,,,2,,,64,0
230484,note_on,84,0,8,,,,,,,,4,,,72,0
230484,note_on,84,0,4,,,,,,,,3,,,60,0
230490,note_on,6,0,3,,,,,,,,2,,,60,0
230492,note_on,8,0,4,,,,,,,,3,,,64,0
230496,note_on,0,0,6,,,,,,,,6,,,60,0
230496,note_on,96,0,6,,,,,,,,6,,,72,0
230496,note_on,96,0,7,,,,,,,,7,,,48,0
230520,note_on,36,0,8,,,,,,,,4,,,67,96
230604,note_on,84,0,8,,,,,,,,4,,,67,0
230640,note_on,36,0,8,,,,,,,,4,,,69,96
230724,note_on,84,0,8,,,,,,,,4,,,69,0
230760,note_on,36,0,8,,,,,,,,4,,,71,96
230844,note_on,84,0,8,,,,,,,,4,,,71,0
230880,note_on,36,0,8,,,,,,,,4,,,72,96
230964,note_on,84,0,8,,,,,,,,4,,,72,0
231000,note_on,36,0,8,,,,,,,,4,,,74,96
231084,note_on,84,0,8,,,,,,,,4,,,74,0
231120,note_on,0,0,8,,,,,,,,4,,,76,96
231120,note_on,1574,0,11,,,,,,,,10,,,45,96
231120,note_on,0,0,8,,,,,,,,4,,,57,96
231120,note_on,36,0,8,,,,,,,,4,,,67,96
231120,note_on,1574,0,12,,,,,,,,11,,,33,64
231120,note_on,1580,0,10,,,,,,,,8,,,57,96
231200,note_on,80,0,10,,,,,,,,8,,,57,0
231202,note_on,0,0,8,,,,,,,,4,,,67,0
231202,note_on,82,0,8,,,,,,,,4,,,57,0
231204,note_on,2,0,8,,,,,,,,4,,,76,0
231212,note_on,92,0,11,,,,,,,,10,,,45,0
231212,note_on,92,0,12,,,,,,,,11,,,33,0
231240,note_on,36,0,8,,,,,,,,4,,,73,96
231324,note_on,84,0,8,,,,,,,,4,,,73,0
231360,note_on,0,0,8,,,,,,,,4,,,57,96
231360,note_on,148,0,11,,,,,,,,10,,,50,96
231360,note_on,160,0,10,,,,,,,,8,,,62,96
231360,note_on,36,0,8,,,,,,,,4,,,65,96
231360,note_on,148,0,12,,,,,,,,11,,,38,64
231360,note_on,0,0,8,,,,,,,,4,,,74,96
231434,note_on,74,0,10,,,,,,,,8,,,62,0
231444,note_on,84,0,8,,,,,,,,4,,,74,0
231444,note_on,0,0,8,,,,,,,,4,,,65,0
231450,note_on,6,0,8,,,,,,,,4,,,57,0
231460,note_on,100,0,11,,,,,,,,10,,,50,0
231460,note_on,100,0,12,,,,,,,,11,,,38,0
231480,note_on,30,0,8,,,,,,,,4,,,69,96
231564,note_on,84,0,8,,,,,,,,4,,,69,0
231600,note_on,36,0,8,,,,,,,,4,,,71,96
231684,note_on,84,0,8,,,,,,,,4,,,71,0
231720,note_on,36,0,8,,,,,,,,4,,,73,96
231804,note_on,84,0,8,,,,,,,,4,,,73,0
231840,note_on,36,0,8,,,,,,,,4,,,74,96
231924,note_on,84,0,8,,,,,,,,4,,,74,0
231960,note_on,36,0,8,,,,,,,,4,,,76,96
232044,note_on,84,0,8,,,,,,,,4,,,76,0
232080,note_on,1588,0,4,,,,,,,,3,,,45,64
232080,note_on,0,0,4,,,,,,,,3,,,57,64
232080,note_on,0,0,1,,,,,,,,0,,,85,64
232080,note_on,1616,0,1,,,,,,,,0,,,79,64
232080,note_on,1590,0,3,,,,,,,,2,,,61,64
232080,note_on,1626,0,2,,,,,,,,1,,,76,64
232080,note_on,0,0,3,,,,,,,,2,,,64,64
232080,note_on,0,0,2,,,,,,,,1,,,73,64
232080,note_on,36,0,8,,,,,,,,4,,,77,96
232120,note_on,40,0,1,,,,,,,,0,,,79,0
232136,note_on,16,0,1,,,,,,,,0,,,85,0
232136,note_on,56,0,2,,,,,,,,1,,,76,0
232142,note_on,6,0,2,,,,,,,,1,,,73,0
232162,note_on,82,0,4,,,,,,,,3,,,45,0
232164,note_on,84,0,8,,,,,,,,4,,,77,0
232164,note_on,84,0,3,,,,,,,,2,,,61,0
232164,note_on,2,0,4,,,,,,,,3,,,57,0
232176,note_on,12,0,3,,,,,,,,2,,,64,0
232200,note_on,36,0,8,,,,,,,,4,,,76,96
232284,note_on,84,0,8,,,,,,,,4,,,76,0
232320,note_on,144,0,3,,,,,,,,2,,,62,64
232320,note_on,0,0,3,,,,,,,,2,,,65,64
232320,note_on,184,0,1,,,,,,,,0,,,77,64
232320,note_on,0,0,4,,,,,,,,3,,,50,64
232320,note_on,156,0,4,,,,,,,,3,,,62,64
232320,note_on,0,0,2,,,,,,,,1,,,77,64
232320,note_on,178,0,2,,,,,,,,1,,,74,64
232320,note_on,0,0,1,,,,,,,,0,,,86,64
232320,note_on,36,0,8,,,,,,,,4,,,74,96
232360,note_on,40,0,1,,,,,,,,0,,,77,0
232382,note_on,22,0,1,,,,,,,,0,,,86,0
232382,note_on,62,0,2,,,,,,,,1,,,74,0
232396,note_on,14,0,2,,,,,,,,1,,,77,0
232400,note_on,80,0,4,,,,,,,,3,,,62,0
232402,note_on,2,0,4,,,,,,,,3,,,50,0
232404,note_on,84,0,8,,,,,,,,4,,,74,0
232406,note_on,86,0,3,,,,,,,,2,,,62,0
232414,note_on,8,0,3,,,,,,,,2,,,65,0
232440,note_on,36,0,8,,,,,,,,4,,,69,96
232524,note_on,84,0,8,,,,,,,,4,,,69,0
232560,note_on,36,0,8,,,,,,,,4,,,71,96
232644,note_on,84,0,8,,,,,,,,4,,,71,0
232680,note_on,36,0,8,,,,,,,,4,,,73,96
232764,note_on,84,0,8,,,,,,,,4,,,73,0
232800,note_on,36,0,8,,,,,,,,4,,,74,96
232884,note_on,84,0,8,,,,,,,,4,,,74,0
232920,note_on,36,0,8,,,,,,,,4,,,76,96
233004,note_on,84,0,8,,,,,,,,4,,,76,0
233040,note_on,1580,0,11,,,,,,,,10,,,47,96
233040,note_on,0,0,8,,,,,,,,4,,,78,96
233040,note_on,36,0,8,,,,,,,,4,,,59,96
233040,note_on,0,0,8,,,,,,,,4,,,69,96
233040,note_on,1606,0,10,,,,,,,,8,,,59,96
233040,note_on,1580,0,12,,,,,,,,11,,,35,64
233122,note_on,82,0,8,,,,,,,,4,,,59,0
233124,note_on,2,0,8,,,,,,,,4,,,78,0
233126,note_on,2,0,8,,,,,,,,4,,,69,0
233130,note_on,90,0,10,,,,,,,,8,,,59,0
233146,note_on,106,0,11,,,,,,,,10,,,47,0
233146,note_on,106,0,12,,,,,,,,11,,,35,0
233160,note_on,34,0,8,,,,,,,,4,,,75,96
233244,note_on,84,0,8,,,,,,,,4,,,75,0
233280,note_on,0,0,8,,,,,,,,4,,,76,96
233280,note_on,0,0,8,,,,,,,,4,,,67,96
233280,note_on,134,0,12,,,,,,,,11,,,40,64
233280,note_on,150,0,10,,,,,,,,8,,,64,96
233280,note_on,36,0,8,,,,,,,,4,,,59,96
233280,note_on,134,0,11,,,,,,,,10,,,52,96
233360,note_on,80,0,10,,,,,,,,8,,,64,0
233364,note_on,0,0,8,,,,,,,,4,,,59,0
233364,note_on,84,0,8,,,,,,,,4,,,76,0
233374,note_on,10,0,8,,,,,,,,4,,,67,0
233376,note_on,96,0,12,,,,,,,,11,,,40,0
233376,note_on,96,0,11,,,,,,,,10,,,52,0
233400,note_on,26,0,8,,,,,,,,4,,,71,96
233484,note_on,84,0,8,,,,,,,,4,,,71,0
233520,note_on,36,0,8,,,,,,,,4,,,73,96
233604,note_on,84,0,8,,,,,,,,4,,,73,0
233640,note_on,36,0,8,,,,,,,,4,,,75,96
233724,note_on,84,0,8,,,,,,,,4,,,75,0
233760,note_on,36,0,8,,,,,,,,4,,,76,96
233844,note_on,84,0,8,,,,,,,,4,,,76,0
233880,note_on,36,0,8,,,,,,,,4,,,78,96
233964,note_on,84,0,8,,,,,,,,4,,,78,0
234000,note_on,0,0,4,,,,,,,,3,,,59,64
234000,note_on,0,0,1,,,,,,,,0,,,87,64
234000,note_on,1618,0,1,,,,,,,,0,,,81,64
234000,note_on,36,0,8,,,,,,,,4,,,79,96
234000,note_on,0,0,3,,,,,,,,2,,,66,64
234000,note_on,1586,0,3,,,,,,,,2,,,69,64
234000,note_on,1598,0,4,,,,,,,,3,,,47,64
234000,note_on,1604,0,2,,,,,,,,1,,,78,64
234000,note_on,0,0,2,,,,,,,,1,,,75,64
234052,note_on,52,0,1,,,,,,,,0,,,81,0
234056,note_on,4,0,1,,,,,,,,0,,,87,0
234060,note_on,60,0,2,,,,,,,,1,,,75,0
234060,note_on,0,0,2,,,,,,,,1,,,78,0
234062,note_on,62,0,4,,,,,,,,3,,,47,0
234064,note_on,64,0,3,,,,,,,,2,,,69,0
234066,note_on,2,0,3,,,,,,,,2,,,66,0
234082,note_on,20,0,4,,,,,,,,3,,,59,0
234084,note_on,84,0,8,,,,,,,,4,,,79,0
234120,note_on,36,0,8,,,,,,,,4,,,78,96
234204,note_on,84,0,8,,,,,,,,4,,,78,0
234240,note_on,174,0,3,,,,,,,,2,,,67,64
234240,note_on,36,0,8,,,,,,,,4,,,76,96
234240,note_on,0,0,3,,,,,,,,2,,,64,64
234240,note_on,0,0,1,,,,,,,,0,,,88,64
234240,note_on,184,0,1,,,,,,,,0,,,79,64
234240,note_on,180,0,2,,,,,,,,1,,,79,64
234240,note_on,0,0,2,,,,,,,,1,,,76,64
234240,note_on,0,0,4,,,,,,,,3,,,52,64
234240,note_on,158,0,4,,,,,,,,3,,,64,64
234292,note_on,52,0,1,,,,,,,,0,,,79,0
234304,note_on,12,0,1,,,,,,,,0,,,88,0
234310,note_on,70,0,3,,,,,,,,2,,,67,0
234310,note_on,70,0,2,,,,,,,,1,,,79,0
234312,note_on,2,0,3,,,,,,,,2,,,64,0
234312,note_on,2,0,2,,,,,,,,1,,,76,0
234322,note_on,82,0,4,,,,,,,,3,,,64,0
234324,note_on,2,0,4,,,,,,,,3,,,52,0
234324,note_on,84,0,8,,,,,,,,4,,,76,0
234360,note_on,36,0,8,,,,,,,,4,,,71,96
234444,note_on,84,0,8,,,,,,,,4,,,71,0
234480,note_on,36,0,8,,,,,,,,4,,,73,96
234564,note_on,84,0,8,,,,,,,,4,,,73,0
234600,note_on,36,0,8,,,,,,,,4,,,75,96
234684,note_on,84,0,8,,,,,,,,4,,,75,0
234720,note_on,36,0,8,,,,,,,,4,,,76,96
234804,note_on,84,0,8,,,,,,,,4,,,76,0
234840,note_on,36,0,8,,,,,,,,4,,,77,96
234924,note_on,84,0,8,,,,,,,,4,,,77,0
234960,note_on,1584,0,11,,,,,,,,10,,,48,96
234960,note_on,1600,0,10,,,,,,,,8,,,60,96
234960,note_on,36,0,8,,,,,,,,4,,,67,96
234960,note_on,0,0,8,,,,,,,,4,,,70,96
234960,note_on,0,0,8,,,,,,,,4,,,79,96
234960,note_on,1584,0,12,,,,,,,,11,,,36,64
235036,note_on,76,0,8,,,,,,,,4,,,67,0
235040,note_on,80,0,10,,,,,,,,8,,,60,0
235042,note_on,6,0,8,,,,,,,,4,,,70,0
235044,note_on,2,0,8,,,,,,,,4,,,79,0
235062,note_on,102,0,11,,,,,,,,10,,,48,0
235062,note_on,102,0,12,,,,,,,,11,,,36,0
235080,note_on,36,0,8,,,,,,,,4,,,76,96
235164,note_on,84,0,8,,,,,,,,4,,,76,0
235200,control_change,36,0,8,,,,,,,,4,7,95,,
235200,note_on,0,0,8,,,,,,,,4,,,69,96
235200,note_on,0,0,8,,,,,,,,4,,,77,96
235200,note_on,0,0,8,,,,,,,,4,,,65,96
235200,note_on,138,0,12,,,,,,,,11,,,41,64
235200,note_on,160,0,10,,,,,,,,8,,,60,96
235200,note_on,138,0,11,,,,,,,,10,,,53,96
235282,note_on,82,0,10,,,,,,,,8,,,60,0
235284,note_on,84,0,8,,,,,,,,4,,,77,0
235284,note_on,0,0,8,,,,,,,,4,,,69,0
235286,note_on,2,0,8,,,,,,,,4,,,65,0
235292,note_on,92,0,12,,,,,,,,11,,,41,0
235292,note_on,92,0,11,,,,,,,,10,,,53,0
235320,note_on,34,0,8,,,,,,,,4,,,72,96
235404,note_on,84,0,8,,,,,,,,4,,,72,0
235440,note_on,36,0,8,,,,,,,,4,,,74,96
235524,note_on,84,0,8,,,,,,,,4,,,74,0
235560,note_on,36,0,8,,,,,,,,4,,,76,96
235644,note_on,84,0,8,,,,,,,,4,,,76,0
235680,note_on,36,0,8,,,,,,,,4,,,77,96
235764,note_on,84,0,8,,,,,,,,4,,,77,0
235800,note_on,36,0,8,,,,,,,,4,,,79,96
235884,note_on,84,0,8,,,,,,,,4,,,79,0
235920,note_on,1608,0,3,,,,,,,,2,,,69,64
235920,note_on,5470,0,5,,,,,,,,5,,,50,64
235920,note_on,1608,0,2,,,,,,,,1,,,72,64
235920,note_on,0,0,2,,,,,,,,1,,,81,64
235920,note_on,628,0,11,,,,,,,,10,,,50,96
235920,note_on,1596,0,4,,,,,,,,3,,,62,64
235920,note_on,0,0,3,,,,,,,,2,,,66,64
235920,note_on,628,0,12,,,,,,,,11,,,38,64
235920,note_on,0,0,1,,,,,,,,0,,,90,64
235920,note_on,1616,0,1,,,,,,,,0,,,84,64
235920,note_on,638,0,10,,,,,,,,8,,,69,96
235920,note_on,36,0,8,,,,,,,,4,,,72,96
235920,note_on,0,0,8,,,,,,,,4,,,62,96
235920,note_on,0,0,8,,,,,,,,4,,,81,96
235964,note_on,44,0,1,,,,,,,,0,,,84,0
235966,note_on,46,0,5,,,,,,,,5,,,50,0
235966,note_on,2,0,1,,,,,,,,0,,,90,0
235976,note_on,56,0,4,,,,,,,,3,,,62,0
235980,note_on,60,0,2,,,,,,,,1,,,72,0
235986,note_on,6,0,2,,,,,,,,1,,,81,0
235990,note_on,70,0,3,,,,,,,,2,,,69,0
235994,note_on,74,0,10,,,,,,,,8,,,69,0
235994,note_on,4,0,3,,,,,,,,2,,,66,0
236000,note_on,80,0,8,,,,,,,,4,,,62,0
236000,note_on,0,0,8,,,,,,,,4,,,72,0
236004,note_on,4,0,8,,,,,,,,4,,,81,0
236012,note_on,92,0,12,,,,,,,,11,,,38,0
236012,note_on,92,0,11,,,,,,,,10,,,50,0
236040,note_on,36,0,8,,,,,,,,4,,,78,96
236124,note_on,84,0,8,,,,,,,,4,,,78,0
236160,note_on,194,0,5,,,,,,,,5,,,50,64
236160,note_on,0,0,8,,,,,,,,4,,,79,96
236160,control_change,36,0,8,,,,,,,,4,7,100,,
236160,note_on,194,0,1,,,,,,,,0,,,83,64
236160,note_on,0,0,1,,,,,,,,0,,,91,64
236160,note_on,174,0,2,,,,,,,,1,,,71,64
236160,note_on,0,0,2,,,,,,,,1,,,79,64
236160,note_on,0,0,8,,,,,,,,4,,,71,96
236160,note_on,0,0,4,,,,,,,,3,,,67,64
236160,note_on,148,0,11,,,,,,,,10,,,55,96
236160,note_on,184,0,4,,,,,,,,3,,,55,64
236160,note_on,148,0,12,,,,,,,,11,,,43,64
236160,note_on,0,0,8,,,,,,,,4,,,62,96
236160,note_on,0,0,3,,,,,,,,2,,,67,64
236160,note_on,166,0,3,,,,,,,,2,,,71,64
236160,note_on,166,0,10,,,,,,,,8,,,67,96
236206,note_on,46,0,5,,,,,,,,5,,,50,0
236210,note_on,50,0,1,,,,,,,,0,,,83,0
236222,note_on,12,0,1,,,,,,,,0,,,91,0
236226,note_on,66,0,4,,,,,,,,3,,,55,0
236226,note_on,66,0,2,,,,,,,,1,,,71,0
236234,note_on,74,0,8,,,,,,,,4,,,62,0
236236,note_on,10,0,4,,,,,,,,3,,,67,0
236236,note_on,10,0,2,,,,,,,,1,,,79,0
236240,note_on,6,0,8,,,,,,,,4,,,71,0
236240,note_on,80,0,10,,,,,,,,8,,,67,0
236242,note_on,82,0,3,,,,,,,,2,,,67,0
236242,note_on,0,0,3,,,,,,,,2,,,71,0
236244,note_on,4,0,8,,,,,,,,4,,,79,0
236256,note_on,96,0,12,,,,,,,,11,,,43,0
236256,note_on,96,0,11,,,,,,,,10,,,55,0
236280,note_on,36,0,8,,,,,,,,4,,,74,96
236280,note_on,0,0,8,,,,,,,,4,,,62,96
236364,note_on,84,0,8,,,,,,,,4,,,74,0
236370,note_on,6,0,8,,,,,,,,4,,,62,0
236400,note_on,30,0,8,,,,,,,,4,,,64,96
236400,note_on,0,0,8,,,,,,,,4,,,76,96
236476,note_on,76,0,8,,,,,,,,4,,,64,0
236484,note_on,8,0,8,,,,,,,,4,,,76,0
236520,note_on,36,0,8,,,,,,,,4,,,66,96
236520,note_on,0,0,8,,,,,,,,4,,,78,96
236592,note_on,72,0,8,,,,,,,,4,,,66,0
236604,note_on,12,0,8,,,,,,,,4,,,78,0
236640,note_on,36,0,8,,,,,,,,4,,,67,96
236640,note_on,0,0,8,,,,,,,,4,,,79,96
236724,note_on,0,0,8,,,,,,,,4,,,67,0
236724,note_on,84,0,8,,,,,,,,4,,,79,0
236760,note_on,0,0,8,,,,,,,,4,,,69,96
236760,note_on,36,0,8,,,,,,,,4,,,81,96
236832,note_on,72,0,8,,,,,,,,4,,,69,0
236844,note_on,12,0,8,,,,,,,,4,,,81,0
236880,note_on,638,0,3,,,,,,,,2,,,71,64
236880,note_on,0,0,3,,,,,,,,2,,,74,64
236880,note_on,624,0,12,,,,,,,,11,,,40,64
236880,note_on,674,0,5,,,,,,,,5,,,52,64
236880,note_on,0,0,2,,,,,,,,1,,,83,64
236880,note_on,644,0,4,,,,,,,,3,,,64,64
236880,note_on,640,0,10,,,,,,,,8,,,64,96
236880,note_on,0,0,4,,,,,,,,3,,,52,64
236880,note_on,644,0,2,,,,,,,,1,,,74,64
236880,note_on,658,0,1,,,,,,,,0,,,86,64
236880,note_on,624,0,11,,,,,,,,10,,,52,96
236880,note_on,36,0,8,,,,,,,,4,,,71,96
236880,note_on,0,0,8,,,,,,,,4,,,83,96
236880,note_on,0,0,1,,,,,,,,0,,,92,64
236932,note_on,52,0,1,,,,,,,,0,,,86,0
236932,note_on,52,0,5,,,,,,,,5,,,52,0
236934,note_on,2,0,1,,,,,,,,0,,,92,0
236940,note_on,60,0,4,,,,,,,,3,,,64,0
236946,note_on,66,0,3,,,,,,,,2,,,71,0
236946,note_on,66,0,2,,,,,,,,1,,,74,0
236952,note_on,72,0,8,,,,,,,,4,,,71,0
236956,note_on,16,0,4,,,,,,,,3,,,52,0
236960,note_on,14,0,3,,,,,,,,2,,,74,0
236962,note_on,82,0,10,,,,,,,,8,,,64,0
236964,note_on,12,0,8,,,,,,,,4,,,83,0
236966,note_on,20,0,2,,,,,,,,1,,,83,0
236976,note_on,96,0,12,,,,,,,,11,,,40,0
236976,note_on,96,0,11,,,,,,,,10,,,52,0
237000,note_on,0,0,8,,,,,,,,4,,,68,96
237000,note_on,36,0,8,,,,,,,,4,,,80,96
237084,note_on,84,0,8,,,,,,,,4,,,68,0
237084,note_on,0,0,8,,,,,,,,4,,,80,0
237120,note_on,164,0,4,,,,,,,,3,,,57,64
237120,note_on,144,0,11,,,,,,,,10,,,57,96
237120,note_on,0,0,2,,,,,,,,1,,,72,64
237120,note_on,186,0,1,,,,,,,,0,,,93,64
237120,note_on,0,0,1,,,,,,,,0,,,84,64
237120,note_on,0,0,8,,,,,,,,4,,,69,96
237120,note_on,0,0,3,,,,,,,,2,,,72,64
237120,note_on,160,0,3,,,,,,,,2,,,69,64
237120,control_change,36,0,8,,,,,,,,4,7,105,,
237120,note_on,0,0,8,,,,,,,,4,,,81,96
237120,note_on,144,0,12,,,,,,,,11,,,45,64
237120,note_on,188,0,5,,,,,,,,5,,,52,64
237120,note_on,154,0,2,,,,,,,,1,,,81,64
237120,note_on,158,0,10,,,,,,,,8,,,69,96
237174,note_on,54,0,1,,,,,,,,0,,,84,0
237180,note_on,60,0,5,,,,,,,,5,,,52,0
237190,note_on,70,0,2,,,,,,,,1,,,72,0
237200,note_on,80,0,3,,,,,,,,2,,,69,0
237202,note_on,82,0,4,,,,,,,,3,,,57,0
237202,note_on,2,0,3,,,,,,,,2,,,72,0
237202,note_on,82,0,10,,,,,,,,8,,,69,0
237204,note_on,14,0,2,,,,,,,,1,,,81,0
237214,note_on,94,0,12,,,,,,,,11,,,45,0
237214,note_on,94,0,11,,,,,,,,10,,,57,0
237220,note_on,100,0,8,,,,,,,,4,,,69,0
237226,note_on,52,0,1,,,,,,,,0,,,93,0
237240,note_on,0,0,8,,,,,,,,4,,,81,96
237240,note_on,0,0,8,,,,,,,,4,,,69,96
237240,note_on,20,0,8,,,,,,,,4,,,81,0
237342,note_on,102,0,8,,,,,,,,4,,,69,0
237360,note_on,158,0,10,,,,,,,,8,,,68,96
237360,note_on,18,0,8,,,,,,,,4,,,81,0
237360,note_on,0,0,8,,,,,,,,4,,,68,96
237360,note_on,0,0,8,,,,,,,,4,,,80,96
237360,note_on,146,0,11,,,,,,,,10,,,56,96
237360,note_on,146,0,12,,,,,,,,11,,,44,64
237360,note_on,158,0,4,,,,,,,,3,,,56,64
237426,note_on,66,0,4,,,,,,,,3,,,56,0
237452,note_on,92,0,8,,,,,,,,4,,,68,0
237454,note_on,94,0,10,,,,,,,,8,,,68,0
237462,note_on,102,0,12,,,,,,,,11,,,44,0
237462,note_on,102,0,11,,,,,,,,10,,,56,0
237480,note_on,0,0,8,,,,,,,,4,,,68,96
237480,note_on,0,0,8,,,,,,,,4,,,80,96
237480,note_on,28,0,8,,,,,,,,4,,,80,0
237580,note_on,100,0,8,,,,,,,,4,,,68,0
237600,note_on,138,0,12,,,,,,,,11,,,45,64
237600,note_on,138,0,11,,,,,,,,10,,,57,96
237600,note_on,0,0,8,,,,,,,,4,,,69,96
237600,note_on,0,0,8,,,,,,,,4,,,81,96
237600,note_on,174,0,4,,,,,,,,3,,,57,64
237600,note_on,20,0,8,,,,,,,,4,,,80,0
237600,note_on,146,0,10,,,,,,,,8,,,69,96
237680,note_on,80,0,4,,,,,,,,3,,,57,0
237680,note_on,80,0,10,,,,,,,,8,,,69,0
237694,note_on,94,0,8,,,,,,,,4,,,69,0
237696,note_on,96,0,11,,,,,,,,10,,,57,0
237696,note_on,96,0,12,,,,,,,,11,,,45,0
237720,note_on,0,0,8,,,,,,,,4,,,81,96
237720,note_on,0,0,8,,,,,,,,4,,,69,96
237720,note_on,26,0,8,,,,,,,,4,,,81,0
237816,note_on,96,0,8,,,,,,,,4,,,69,0
237840,note_on,144,0,11,,,,,,,,10,,,59,96
237840,note_on,144,0,12,,,,,,,,11,,,47,64
237840,note_on,0,0,8,,,,,,,,4,,,71,96
237840,note_on,0,0,8,,,,,,,,4,,,83,96
237840,note_on,24,0,8,,,,,,,,4,,,81,0
237840,note_on,160,0,10,,,,,,,,8,,,71,96
237840,note_on,160,0,4,,,,,,,,3,,,59,64
237910,note_on,70,0,4,,,,,,,,3,,,59,0
237922,note_on,82,0,10,,,,,,,,8,,,71,0
237926,note_on,86,0,8,,,,,,,,4,,,71,0
237926,note_on,86,0,11,,,,,,,,10,,,59,0
237926,note_on,86,0,12,,,,,,,,11,,,47,0
237960,note_on,34,0,8,,,,,,,,4,,,83,0
237960,note_on,0,0,8,,,,,,,,4,,,83,96
237960,note_on,0,0,8,,,,,,,,4,,,71,96
238052,note_on,92,0,8,,,,,,,,4,,,71,0
238080,control_change,0,0,8,,,,,,,,4,7,110,,
238080,note_on,158,0,10,,,,,,,,8,,,72,96
238080,note_on,170,0,4,,,,,,,,3,,,60,64
238080,note_on,28,0,8,,,,,,,,4,,,83,0
238080,note_on,154,0,11,,,,,,,,10,,,60,96
238080,note_on,154,0,12,,,,,,,,11,,,48,64
238080,note_on,0,0,8,,,,,,,,4,,,84,96
238080,note_on,0,0,8,,,,,,,,4,,,72,96
238152,note_on,72,0,4,,,,,,,,3,,,60,0
238162,note_on,82,0,10,,,,,,,,8,,,72,0
238172,note_on,92,0,11,,,,,,,,10,,,60,0
238172,note_on,92,0,12,,,,,,,,11,,,48,0
238176,note_on,96,0,8,,,,,,,,4,,,72,0
238200,note_on,0,0,8,,,,,,,,4,,,84,96
238200,note_on,0,0,8,,,,,,,,4,,,72,96
238200,note_on,24,0,8,,,,,,,,4,,,84,0
238290,note_on,90,0,8,,,,,,,,4,,,72,0
238320,note_on,158,0,10,,,,,,,,8,,,71,96
238320,note_on,0,0,8,,,,,,,,4,,,71,96
238320,note_on,30,0,8,,,,,,,,4,,,84,0
238320,note_on,148,0,11,,,,,,,,10,,,59,96
238320,note_on,0,0,8,,,,,,,,4,,,83,96
238320,note_on,148,0,12,,,,,,,,11,,,47,64
238320,note_on,168,0,4,,,,,,,,3,,,59,64
238390,note_on,70,0,4,,,,,,,,3,,,59,0
238406,note_on,86,0,10,,,,,,,,8,,,71,0
238420,note_on,100,0,8,,,,,,,,4,,,71,0
238420,note_on,100,0,11,,,,,,,,10,,,59,0
238420,note_on,100,0,12,,,,,,,,11,,,47,0
238440,note_on,0,0,8,,,,,,,,4,,,83,96
238440,note_on,20,0,8,,,,,,,,4,,,83,0
238440,note_on,0,0,8,,,,,,,,4,,,71,96
238532,note_on,92,0,8,,,,,,,,4,,,71,0
238560,note_on,170,0,4,,,,,,,,3,,,60,64
238560,note_on,140,0,12,,,,,,,,11,,,48,64
238560,note_on,154,0,10,,,,,,,,8,,,72,96
238560,note_on,140,0,11,,,,,,,,10,,,60,96
238560,note_on,28,0,8,,,,,,,,4,,,83,0
238560,note_on,0,0,8,,,,,,,,4,,,84,96
238560,note_on,0,0,8,,,,,,,,4,,,72,96
238626,note_on,66,0,4,,,,,,,,3,,,60,0
238646,note_on,86,0,8,,,,,,,,4,,,72,0
238650,note_on,90,0,11,,,,,,,,10,,,60,0
238650,note_on,90,0,12,,,,,,,,11,,,48,0
238650,note_on,90,0,10,,,,,,,,8,,,72,0
238680,note_on,0,0,8,,,,,,,,4,,,84,96
238680,note_on,0,0,8,,,,,,,,4,,,72,96
238680,note_on,34,0,8,,,,,,,,4,,,84,0
238770,note_on,90,0,8,,,,,,,,4,,,72,0
238800,note_on,174,0,4,,,,,,,,3,,,62,64
238800,note_on,30,0,8,,,,,,,,4,,,84,0
238800,note_on,0,0,8,,,,,,,,4,,,74,96
238800,note_on,0,0,8,,,,,,,,4,,,86,96
238800,note_on,150,0,11,,,,,,,,10,,,62,96
238800,note_on,150,0,12,,,,,,,,11,,,50,64
238800,note_on,150,0,10,,,,,,,,8,,,74,96
238880,note_on,80,0,4,,,,,,,,3,,,62,0
238886,note_on,86,0,10,,,,,,,,8,,,74,0
238894,note_on,94,0,8,,,,,,,,4,,,74,0
238894,note_on,94,0,11,,,,,,,,10,,,62,0
238894,note_on,94,0,12,,,,,,,,11,,,50,0
238920,note_on,0,0,8,,,,,,,,4,,,74,96
238920,note_on,0,0,8,,,,,,,,4,,,86,96
238920,note_on,26,0,8,,,,,,,,4,,,86,0
239010,note_on,90,0,8,,,,,,,,4,,,74,0
239040,control_change,0,0,8,,,,,,,,4,7,115,,
239040,note_on,146,0,11,,,,,,,,10,,,64,96
239040,note_on,154,0,10,,,,,,,,8,,,76,96
239040,note_on,160,0,4,,,,,,,,3,,,64,64
239040,note_on,146,0,12,,,,,,,,11,,,52,64
239040,note_on,30,0,8,,,,,,,,4,,,86,0
239040,note_on,0,0,8,,,,,,,,4,,,88,96
239040,note_on,0,0,8,,,,,,,,4,,,76,96
239112,note_on,72,0,4,,,,,,,,3,,,64,0
239116,note_on,76,0,10,,,,,,,,8,,,76,0
239130,note_on,90,0,11,,,,,,,,10,,,64,0
239130,note_on,90,0,12,,,,,,,,11,,,52,0
239134,note_on,94,0,8,,,,,,,,4,,,76,0
239160,note_on,0,0,8,,,,,,,,4,,,88,96
239160,note_on,0,0,8,,,,,,,,4,,,76,96
239160,note_on,26,0,8,,,,,,,,4,,,88,0
239250,note_on,90,0,8,,,,,,,,4,,,76,0
239280,note_on,0,0,3,,,,,,,,2,,,71,64
239280,note_on,164,0,10,,,,,,,,8,,,59,96
239280,note_on,150,0,12,,,,,,,,11,,,35,64
239280,note_on,2078,0,3,,,,,,,,2,,,59,64
239280,note_on,0,0,8,,,,,,,,4,,,71,96
239280,note_on,2054,0,1,,,,,,,,0,,,83,64
239280,note_on,2076,0,2,,,,,,,,1,,,71,64
239280,note_on,0,0,8,,,,,,,,4,,,83,96
239280,note_on,150,0,11,,,,,,,,10,,,47,96
239280,note_on,0,0,4,,,,,,,,3,,,47,64
239280,note_on,168,0,4,,,,,,,,3,,,59,64
239280,note_on,30,0,8,,,,,,,,4,,,88,0
239354,note_on,74,0,4,,,,,,,,3,,,59,0
239360,note_on,80,0,1,,,,,,,,0,,,83,0
239362,note_on,8,0,4,,,,,,,,3,,,47,0
239364,note_on,84,0,3,,,,,,,,2,,,59,0
239366,note_on,86,0,2,,,,,,,,1,,,71,0
239372,note_on,92,0,8,,,,,,,,4,,,71,0
239372,note_on,92,0,10,,,,,,,,8,,,59,0
239382,note_on,18,0,3,,,,,,,,2,,,71,0
239386,note_on,106,0,12,,,,,,,,11,,,35,0
239386,note_on,106,0,11,,,,,,,,10,,,47,0
239400,note_on,0,0,8,,,,,,,,4,,,71,96
239400,note_on,28,0,8,,,,,,,,4,,,83,0
239400,note_on,0,0,8,,,,,,,,4,,,83,96
239496,note_on,96,0,8,,,,,,,,4,,,71,0
239520,note_on,0,0,8,,,,,,,,4,,,72,96
239520,note_on,24,0,8,,,,,,,,4,,,83,0
239520,note_on,160,0,1,,,,,,,,0,,,84,64
239520,note_on,148,0,10,,,,,,,,8,,,60,96
239520,note_on,138,0,3,,,,,,,,2,,,60,64
239520,note_on,0,0,4,,,,,,,,3,,,48,64
239520,note_on,154,0,2,,,,,,,,1,,,72,64
239520,note_on,134,0,11,,,,,,,,10,,,48,96
239520,note_on,0,0,8,,,,,,,,4,,,84,96
239520,note_on,0,0,3,,,,,,,,2,,,72,64
239520,note_on,158,0,4,,,,,,,,3,,,60,64
239520,note_on,134,0,12,,,,,,,,11,,,36,64
239580,note_on,60,0,4,,,,,,,,3,,,60,0
239590,note_on,10,0,4,,,,,,,,3,,,48,0
239592,note_on,72,0,3,,,,,,,,2,,,60,0
239592,note_on,72,0,1,,,,,,,,0,,,84,0
239596,note_on,4,0,3,,,,,,,,2,,,72,0
239600,note_on,80,0,10,,,,,,,,8,,,60,0
239600,note_on,80,0,2,,,,,,,,1,,,72,0
239602,note_on,82,0,8,,,,,,,,4,,,72,0
239612,note_on,92,0,12,,,,,,,,11,,,36,0
239612,note_on,92,0,11,,,,,,,,10,,,48,0
239640,note_on,0,0,8,,,,,,,,4,,,72,96
239640,note_on,0,0,8,,,,,,,,4,,,84,96
239640,note_on,38,0,8,,,,,,,,4,,,84,0
239720,note_on,80,0,8,,,,,,,,4,,,72,0
239760,note_on,0,0,3,,,,,,,,2,,,74,64
239760,note_on,160,0,10,,,,,,,,8,,,62,96
239760,note_on,148,0,11,,,,,,,,10,,,50,96
239760,note_on,40,0,8,,,,,,,,4,,,84,0
239760,note_on,0,0,4,,,,,,,,3,,,62,64
239760,note_on,170,0,4,,,,,,,,3,,,50,64
239760,note_on,0,0,8,,,,,,,,4,,,74,96
239760,note_on,164,0,3,,,,,,,,2,,,62,64
239760,note_on,160,0,2,,,,,,,,1,,,74,64
239760,note_on,148,0,12,,,,,,,,11,,,38,64
239760,note_on,0,0,8,,,,,,,,4,,,86,96
239760,note_on,168,0,1,,,,,,,,0,,,86,64
239820,note_on,60,0,4,,,,,,,,3,,,50,0
239830,note_on,70,0,3,,,,,,,,2,,,62,0
239834,note_on,14,0,4,,,,,,,,3,,,62,0
239836,note_on,76,0,10,,,,,,,,8,,,62,0
239840,note_on,80,0,2,,,,,,,,1,,,74,0
239842,note_on,12,0,3,,,,,,,,2,,,74,0
239842,note_on,82,0,8,,,,,,,,4,,,74,0
239842,note_on,82,0,1,,,,,,,,0,,,86,0
239846,note_on,86,0,12,,,,,,,,11,,,38,0
239846,note_on,86,0,11,,,,,,,,10,,,50,0
239880,note_on,0,0,8,,,,,,,,4,,,74,96
239880,note_on,0,0,8,,,,,,,,4,,,86,96
239880,note_on,38,0,8,,,,,,,,4,,,86,0
239956,note_on,76,0,8,,,,,,,,4,,,74,0
240000,note_on,154,0,11,,,,,,,,10,,,52,96
240000,note_on,154,0,12,,,,,,,,11,,,40,64
240000,note_on,0,0,4,,,,,,,,3,,,52,64
240000,note_on,166,0,4,,,,,,,,3,,,64,64
240000,note_on,164,0,10,,,,,,,,8,,,64,96
240000,note_on,0,0,3,,,,,,,,2,,,76,64
240000,note_on,158,0,3,,,,,,,,2,,,64,64
240000,note_on,158,0,1,,,,,,,,0,,,88,64
240000,note_on,0,0,8,,,,,,,,4,,,76,96
240000,note_on,0,0,8,,,,,,,,4,,,88,96
240000,control_change,0,0,8,,,,,,,,4,7,120,,
240000,note_on,44,0,8,,,,,,,,4,,,86,0
240000,note_on,160,0,2,,,,,,,,1,,,76,64
240064,note_on,64,0,4,,,,,,,,3,,,52,0
240064,note_on,0,0,4,,,,,,,,3,,,64,0
240072,note_on,72,0,3,,,,,,,,2,,,64,0
240072,note_on,72,0,2,,,,,,,,1,,,76,0
240082,note_on,82,0,10,,,,,,,,8,,,64,0
240084,note_on,84,0,1,,,,,,,,0,,,88,0
240084,note_on,12,0,3,,,,,,,,2,,,76,0
240086,note_on,86,0,12,,,,,,,,11,,,40,0
240086,note_on,86,0,8,,,,,,,,4,,,76,0
240086,note_on,86,0,11,,,,,,,,10,,,52,0
240120,note_on,34,0,8,,,,,,,,4,,,88,0
240120,note_on,0,0,8,,,,,,,,4,,,76,96
240120,note_on,0,0,8,,,,,,,,4,,,88,96
240212,note_on,92,0,8,,,,,,,,4,,,76,0
240240,note_on,28,0,8,,,,,,,,4,,,88,0
240240,note_on,0,0,4,,,,,,,,3,,,62,64
240240,note_on,176,0,4,,,,,,,,3,,,50,64
240240,note_on,154,0,12,,,,,,,,11,,,38,64
240240,note_on,0,0,3,,,,,,,,2,,,74,64
240240,note_on,156,0,3,,,,,,,,2,,,62,64
240240,note_on,168,0,2,,,,,,,,1,,,74,64
240240,note_on,156,0,1,,,,,,,,0,,,86,64
240240,note_on,154,0,11,,,,,,,,10,,,50,96
240240,note_on,158,0,10,,,,,,,,8,,,62,96
240240,note_on,0,0,8,,,,,,,,4,,,86,96
240240,note_on,0,0,8,,,,,,,,4,,,74,96
240300,note_on,60,0,4,,,,,,,,3,,,50,0
240300,note_on,60,0,2,,,,,,,,1,,,74,0
240304,note_on,4,0,4,,,,,,,,3,,,62,0
240304,note_on,64,0,3,,,,,,,,2,,,62,0
240314,note_on,74,0,1,,,,,,,,0,,,86,0
240314,note_on,74,0,10,,,,,,,,8,,,62,0
240316,note_on,12,0,3,,,,,,,,2,,,74,0
240320,note_on,80,0,8,,,,,,,,4,,,74,0
240334,note_on,94,0,12,,,,,,,,11,,,38,0
240334,note_on,94,0,11,,,,,,,,10,,,50,0
240360,note_on,40,0,8,,,,,,,,4,,,86,0
240360,note_on,0,0,8,,,,,,,,4,,,86,96
240360,note_on,0,0,8,,,,,,,,4,,,74,96
240444,note_on,84,0,8,,,,,,,,4,,,74,0
240480,note_on,176,0,4,,,,,,,,3,,,64,64
240480,note_on,166,0,10,,,,,,,,8,,,64,96
240480,note_on,180,0,2,,,,,,,,1,,,76,64
240480,note_on,0,0,8,,,,,,,,4,,,76,96
240480,note_on,146,0,11,,,,,,,,10,,,52,96
240480,note_on,164,0,3,,,,,,,,2,,,64,64
240480,note_on,146,0,12,,,,,,,,11,,,40,64
240480,note_on,0,0,8,,,,,,,,4,,,88,96
240480,note_on,0,0,4,,,,,,,,3,,,52,64
240480,note_on,36,0,8,,,,,,,,4,,,86,0
240480,note_on,0,0,3,,,,,,,,2,,,76,64
240480,note_on,166,0,1,,,,,,,,0,,,88,64
240534,note_on,54,0,4,,,,,,,,3,,,64,0
240542,note_on,62,0,2,,,,,,,,1,,,76,0
240544,note_on,10,0,4,,,,,,,,3,,,52,0
240546,note_on,66,0,3,,,,,,,,2,,,64,0
240560,note_on,80,0,8,,,,,,,,4,,,76,0
240560,note_on,80,0,10,,,,,,,,8,,,64,0
240564,note_on,84,0,1,,,,,,,,0,,,88,0
240564,note_on,18,0,3,,,,,,,,2,,,76,0
240566,note_on,86,0,12,,,,,,,,11,,,40,0
240566,note_on,86,0,11,,,,,,,,10,,,52,0
240600,note_on,40,0,8,,,,,,,,4,,,88,0
240600,note_on,0,0,8,,,,,,,,4,,,88,96
240600,note_on,0,0,8,,,,,,,,4,,,76,96
240674,note_on,74,0,8,,,,,,,,4,,,76,0
240720,note_on,0,0,8,,,,,,,,4,,,89,96
240720,note_on,178,0,2,,,,,,,,1,,,77,64
240720,note_on,154,0,12,,,,,,,,11,,,41,64
240720,note_on,0,0,8,,,,,,,,4,,,77,96
240720,note_on,46,0,8,,,,,,,,4,,,88,0
240720,note_on,176,0,4,,,,,,,,3,,,53,64
240720,note_on,154,0,11,,,,,,,,10,,,53,96
240720,note_on,156,0,3,,,,,,,,2,,,65,64
240720,note_on,156,0,1,,,,,,,,0,,,89,64
240720,note_on,160,0,10,,,,,,,,8,,,65,96
240720,note_on,0,0,4,,,,,,,,3,,,65,64
240720,note_on,0,0,3,,,,,,,,2,,,77,64
240780,note_on,60,0,4,,,,,,,,3,,,53,0
240790,note_on,70,0,1,,,,,,,,0,,,89,0
240792,note_on,72,0,3,,,,,,,,2,,,65,0
240792,note_on,12,0,4,,,,,,,,3,,,65,0
240794,note_on,74,0,2,,,,,,,,1,,,77,0
240796,note_on,76,0,8,,,,,,,,4,,,77,0
240804,note_on,12,0,3,,,,,,,,2,,,77,0
240806,note_on,86,0,11,,,,,,,,10,,,53,0
240806,note_on,86,0,10,,,,,,,,8,,,65,0
240806,note_on,86,0,12,,,,,,,,11,,,41,0
240840,note_on,44,0,8,,,,,,,,4,,,89,0
240840,note_on,0,0,8,,,,,,,,4,,,77,96
240840,note_on,0,0,8,,,,,,,,4,,,89,96
240916,note_on,76,0,8,,,,,,,,4,,,77,0
240960,note_on,10464,0,7,,,,,,,,7,,,48,64
240960,note_on,0,0,4,,,,,,,,3,,,55,64
240960,note_on,166,0,2,,,,,,,,1,,,79,64
240960,note_on,154,0,10,,,,,,,,8,,,67,96
240960,note_on,168,0,4,,,,,,,,3,,,67,64
240960,note_on,154,0,11,,,,,,,,10,,,55,96
240960,note_on,0,0,6,,,,,,,,6,,,60,64
240960,note_on,0,0,8,,,,,,,,4,,,79,96
240960,note_on,154,0,12,,,,,,,,11,,,43,64
240960,control_change,0,0,8,,,,,,,,4,7,127,,
240960,note_on,44,0,8,,,,,,,,4,,,89,0
240960,note_on,0,0,8,,,,,,,,4,,,91,96
240960,note_on,0,0,8,,,,,,,,4,,,88,100
240960,note_on,0,0,3,,,,,,,,2,,,79,64
240960,note_on,156,0,3,,,,,,,,2,,,67,64
240960,note_on,0,0,1,,,,,,,,0,,,91,64
240960,note_on,170,0,1,,,,,,,,0,,,88,64
240960,note_on,10464,0,6,,,,,,,,6,,,72,64
240960,note_on,0,0,5,,,,,,,,5,,,67,64
240960,note_on,3780,0,5,,,,,,,,5,,,55,64
241012,note_on,52,0,4,,,,,,,,3,,,55,0
241016,note_on,56,0,2,,,,,,,,1,,,79,0
241020,note_on,8,0,4,,,,,,,,3,,,67,0
241036,note_on,76,0,10,,,,,,,,8,,,67,0
241044,note_on,84,0,11,,,,,,,,10,,,55,0
241044,note_on,84,0,12,,,,,,,,11,,,43,0
241050,note_on,90,0,8,,,,,,,,4,,,79,0
241052,note_on,92,0,3,,,,,,,,2,,,67,0
241054,note_on,94,0,7,,,,,,,,7,,,48,0
241054,note_on,94,0,6,,,,,,,,6,,,60,0
241054,note_on,0,0,6,,,,,,,,6,,,72,0
241060,note_on,10,0,8,,,,,,,,4,,,88,0
241070,note_on,18,0,3,,,,,,,,2,,,79,0
241080,note_on,20,0,8,,,,,,,,4,,,91,0
241080,note_on,0,0,8,,,,,,,,4,,,88,96
241080,note_on,0,0,8,,,,,,,,4,,,91,96
241080,note_on,0,0,8,,,,,,,,4,,,88,100
241180,note_on,100,0,8,,,,,,,,4,,,88,0
241186,note_on,6,0,8,,,,,,,,4,,,88,0
241200,note_on,0,0,8,,,,,,,,4,,,91,96
241200,note_on,184,0,2,,,,,,,,1,,,71,64
241200,note_on,180,0,4,,,,,,,,3,,,47,64
241200,note_on,0,0,4,,,,,,,,3,,,59,64
241200,note_on,0,0,8,,,,,,,,4,,,88,96
241200,note_on,164,0,10,,,,,,,,8,,,59,96
241200,note_on,14,0,8,,,,,,,,4,,,91,0
241200,note_on,156,0,12,,,,,,,,11,,,35,64
241200,note_on,156,0,11,,,,,,,,10,,,47,96
241300,note_on,100,0,8,,,,,,,,4,,,88,0
241320,note_on,0,0,8,,,,,,,,4,,,91,96
241320,note_on,20,0,8,,,,,,,,4,,,91,0
241320,note_on,0,0,8,,,,,,,,4,,,88,96
241420,note_on,100,0,8,,,,,,,,4,,,88,0
241440,note_on,240,0,11,,,,,,,,10,,,48,96
241440,note_on,240,0,12,,,,,,,,11,,,36,64
241440,note_on,240,0,4,,,,,,,,3,,,60,64
241440,note_on,20,0,8,,,,,,,,4,,,91,0
241440,note_on,0,0,8,,,,,,,,4,,,88,96
241440,note_on,0,0,8,,,,,,,,4,,,91,96
241440,note_on,240,0,2,,,,,,,,1,,,72,64
241440,note_on,240,0,10,,,,,,,,8,,,60,96
241440,note_on,0,0,4,,,,,,,,3,,,48,64
241454,note_on,14,0,4,,,,,,,,3,,,47,0
241470,note_on,30,0,2,,,,,,,,1,,,71,0
241484,note_on,30,0,4,,,,,,,,3,,,59,0
241514,note_on,74,0,10,,,,,,,,8,,,59,0
241526,note_on,86,0,11,,,,,,,,10,,,47,0
241526,note_on,86,0,12,,,,,,,,11,,,35,0
241536,note_on,96,0,8,,,,,,,,4,,,88,0
241560,note_on,24,0,8,,,,,,,,4,,,91,0
241560,note_on,0,0,8,,,,,,,,4,,,91,96
241560,note_on,0,0,8,,,,,,,,4,,,88,96
241650,note_on,90,0,8,,,,,,,,4,,,88,0
241680,note_on,166,0,10,,,,,,,,8,,,64,96
241680,note_on,154,0,12,,,,,,,,11,,,40,64
241680,note_on,210,0,2,,,,,,,,1,,,76,64
241680,note_on,0,0,4,,,,,,,,3,,,52,64
241680,note_on,0,0,8,,,,,,,,4,,,91,96
241680,note_on,154,0,11,,,,,,,,10,,,52,96
241680,note_on,196,0,4,,,,,,,,3,,,64,64
241680,note_on,0,0,8,,,,,,,,4,,,88,96
241680,note_on,30,0,8,,,,,,,,4,,,91,0
241704,note_on,24,0,4,,,,,,,,3,,,60,0
241724,note_on,44,0,2,,,,,,,,1,,,72,0
241730,note_on,26,0,4,,,,,,,,3,,,48,0
241750,note_on,70,0,10,,,,,,,,8,,,60,0
241760,note_on,80,0,12,,,,,,,,11,,,36,0
241760,note_on,80,0,11,,,,,,,,10,,,48,0
241774,note_on,94,0,8,,,,,,,,4,,,88,0
241800,note_on,0,0,8,,,,,,,,4,,,91,96
241800,note_on,26,0,8,,,,,,,,4,,,91,0
241800,note_on,0,0,8,,,,,,,,4,,,88,96
241892,note_on,92,0,8,,,,,,,,4,,,88,0
241912,note_on,182,0,4,,,,,,,,3,,,64,0
241920,note_on,170,0,10,,,,,,,,8,,,67,96
241920,note_on,0,0,4,,,,,,,,3,,,67,64
241920,note_on,8,0,4,,,,,,,,3,,,55,64
241920,note_on,160,0,11,,,,,,,,10,,,55,96
241920,note_on,28,0,8,,,,,,,,4,,,91,0
241920,note_on,0,0,8,,,,,,,,4,,,88,96
241920,note_on,196,0,2,,,,,,,,1,,,79,64
241920,note_on,0,0,8,,,,,,,,4,,,91,96
241920,note_on,0,0,3,,,,,,,,2,,,79,64
241920,note_on,160,0,12,,,,,,,,11,,,43,64
241920,note_on,850,0,3,,,,,,,,2,,,76,64
241926,note_on,6,0,4,,,,,,,,3,,,52,0
241940,note_on,980,0,5,,,,,,,,5,,,55,0
241946,note_on,26,0,2,,,,,,,,1,,,76,0
241954,note_on,34,0,10,,,,,,,,8,,,64,0
241956,note_on,16,0,5,,,,,,,,5,,,67,0
241972,note_on,52,0,11,,,,,,,,10,,,52,0
241972,note_on,52,0,12,,,,,,,,11,,,40,0
242014,note_on,94,0,8,,,,,,,,4,,,88,0
242040,note_on,0,0,8,,,,,,,,4,,,88,96
242040,note_on,0,0,8,,,,,,,,4,,,91,96
242040,note_on,26,0,8,,,,,,,,4,,,91,0
242140,note_on,100,0,8,,,,,,,,4,,,88,0
242160,note_on,0,0,8,,,,,,,,4,,,91,96
242160,note_on,20,0,8,,,,,,,,4,,,91,0
242160,note_on,0,0,8,,,,,,,,4,,,88,96
242254,note_on,94,0,8,,,,,,,,4,,,88,0
242280,note_on,26,0,8,,,,,,,,4,,,91,0
242280,note_on,0,0,8,,,,,,,,4,,,88,96
242280,note_on,0,0,8,,,,,,,,4,,,91,96
242374,note_on,94,0,8,,,,,,,,4,,,88,0
242400,note_on,26,0,8,,,,,,,,4,,,91,0
242400,note_on,0,0,8,,,,,,,,4,,,91,96
242400,note_on,0,0,8,,,,,,,,4,,,88,96
242476,note_on,1516,0,1,,,,,,,,0,,,88,0
242494,note_on,94,0,8,,,,,,,,4,,,88,0
242520,note_on,0,0,8,,,,,,,,4,,,88,96
242520,note_on,0,0,8,,,,,,,,4,,,91,96
242520,note_on,26,0,8,,,,,,,,4,,,91,0
242524,note_on,578,0,2,,,,,,,,1,,,79,0
242532,note_on,612,0,3,,,,,,,,2,,,76,0
242536,note_on,4,0,3,,,,,,,,2,,,79,0
242540,note_on,614,0,4,,,,,,,,3,,,55,0
242554,note_on,78,0,1,,,,,,,,0,,,91,0
242606,note_on,634,0,12,,,,,,,,11,,,43,0
242606,note_on,634,0,11,,,,,,,,10,,,55,0
242626,note_on,106,0,8,,,,,,,,4,,,88,0
242632,note_on,678,0,10,,,,,,,,8,,,67,0
242640,note_on,116,0,2,,,,,,,,1,,,80,64
242640,note_on,0,0,8,,,,,,,,4,,,86,96
242640,note_on,100,0,4,,,,,,,,3,,,67,0
242640,note_on,14,0,8,,,,,,,,4,,,91,0
242640,note_on,0,0,4,,,,,,,,3,,,68,64
242640,note_on,0,0,4,,,,,,,,3,,,56,64
242640,note_on,0,0,3,,,,,,,,2,,,74,64
242640,note_on,86,0,1,,,,,,,,0,,,86,64
242640,note_on,34,0,11,,,,,,,,10,,,56,96
242640,note_on,0,0,8,,,,,,,,4,,,89,96
242640,note_on,8,0,10,,,,,,,,8,,,68,96
242640,note_on,104,0,3,,,,,,,,2,,,77,64
242640,note_on,0,0,1,,,,,,,,0,,,89,64
242640,note_on,34,0,12,,,,,,,,11,,,44,64
242726,note_on,86,0,11,,,,,,,,10,,,56,0
242726,note_on,86,0,12,,,,,,,,11,,,44,0
242730,note_on,90,0,4,,,,,,,,3,,,68,0
242730,note_on,90,0,8,,,,,,,,4,,,86,0
242734,note_on,4,0,4,,,,,,,,3,,,56,0
242740,note_on,100,0,2,,,,,,,,1,,,80,0
242742,note_on,102,0,10,,,,,,,,8,,,68,0
242760,note_on,30,0,8,,,,,,,,4,,,89,0
242760,note_on,0,0,8,,,,,,,,4,,,89,96
242760,note_on,0,0,8,,,,,,,,4,,,86,96
242794,note_on,0,0,3,,,,,,,,2,,,77,0
242794,note_on,154,0,3,,,,,,,,2,,,74,0
242796,note_on,156,0,1,,,,,,,,0,,,86,0
242822,note_on,26,0,1,,,,,,,,0,,,89,0
242850,note_on,90,0,8,,,,,,,,4,,,86,0
242880,note_on,0,0,5,,,,,,,,5,,,52,64
242880,note_on,154,0,12,,,,,,,,11,,,45,64
242880,note_on,1826,0,6,,,,,,,,6,,,72,64
242880,note_on,0,0,6,,,,,,,,6,,,60,64
242880,note_on,86,0,3,,,,,,,,2,,,72,64
242880,note_on,154,0,11,,,,,,,,10,,,57,96
242880,note_on,140,0,2,,,,,,,,1,,,81,64
242880,note_on,0,0,3,,,,,,,,2,,,76,64
242880,note_on,924,0,5,,,,,,,,5,,,64,64
242880,note_on,1826,0,7,,,,,,,,7,,,48,64
242880,note_on,0,0,8,,,,,,,,4,,,88,96
242880,note_on,0,0,1,,,,,,,,0,,,84,64
242880,note_on,58,0,1,,,,,,,,0,,,88,64
242880,note_on,30,0,8,,,,,,,,4,,,89,0
242880,note_on,0,0,4,,,,,,,,3,,,57,64
242880,note_on,146,0,4,,,,,,,,3,,,69,64
242880,note_on,138,0,10,,,,,,,,8,,,69,96
242880,note_on,0,0,8,,,,,,,,4,,,84,96
242960,note_on,80,0,4,,,,,,,,3,,,69,0
242962,note_on,82,0,3,,,,,,,,2,,,72,0
242962,note_on,2,0,4,,,,,,,,3,,,57,0
242964,note_on,2,0,3,,,,,,,,2,,,76,0
242966,note_on,86,0,2,,,,,,,,1,,,81,0
242966,note_on,86,0,11,,,,,,,,10,,,57,0
242966,note_on,86,0,12,,,,,,,,11,,,45,0
242970,note_on,90,0,8,,,,,,,,4,,,84,0
242980,note_on,0,0,6,,,,,,,,6,,,72,0
242980,note_on,100,0,7,,,,,,,,7,,,48,0
242980,note_on,100,0,6,,,,,,,,6,,,60,0
243000,note_on,0,0,8,,,,,,,,4,,,88,96
243000,note_on,0,0,8,,,,,,,,4,,,84,96
243000,note_on,30,0,8,,,,,,,,4,,,88,0
243034,note_on,154,0,1,,,,,,,,0,,,88,0
243090,note_on,90,0,8,,,,,,,,4,,,84,0
243120,note_on,0,0,8,,,,,,,,4,,,88,96
243120,note_on,0,0,8,,,,,,,,4,,,84,96
243120,note_on,30,0,8,,,,,,,,4,,,88,0
243120,note_on,154,0,11,,,,,,,,10,,,56,96
243120,note_on,154,0,12,,,,,,,,11,,,44,64
243120,note_on,240,0,10,,,,,,,,8,,,68,96
243120,note_on,86,0,1,,,,,,,,0,,,80,64
243120,note_on,156,0,3,,,,,,,,2,,,68,64
243120,note_on,0,0,3,,,,,,,,2,,,56,64
243170,note_on,50,0,10,,,,,,,,8,,,69,0
243192,note_on,72,0,1,,,,,,,,0,,,84,0
243214,note_on,94,0,8,,,,,,,,4,,,84,0
243240,note_on,0,0,4,,,,,,,,3,,,46,64
243240,note_on,0,0,4,,,,,,,,3,,,44,64
243240,note_on,278,0,4,,,,,,,,3,,,56,64
243240,note_on,0,0,8,,,,,,,,4,,,84,96
243240,note_on,0,0,8,,,,,,,,4,,,88,96
243240,note_on,0,0,1,,,,,,,,0,,,80,64
243240,note_on,48,0,1,,,,,,,,0,,,80,0
243240,note_on,26,0,8,,,,,,,,4,,,88,0
243274,note_on,34,0,4,,,,,,,,3,,,46,0
243332,note_on,92,0,8,,,,,,,,4,,,84,0
243340,note_on,220,0,3,,,,,,,,2,,,56,0
243350,note_on,10,0,3,,,,,,,,2,,,68,0
243360,note_on,190,0,10,,,,,,,,8,,,69,96
243360,note_on,0,0,8,,,,,,,,4,,,88,96
243360,note_on,28,0,8,,,,,,,,4,,,88,0
243360,note_on,0,0,8,,,,,,,,4,,,84,96
243360,note_on,10,0,3,,,,,,,,2,,,57,64
243360,note_on,0,0,4,,,,,,,,3,,,57,64
243360,note_on,86,0,4,,,,,,,,3,,,45,64
243360,note_on,120,0,1,,,,,,,,0,,,81,64
243360,note_on,240,0,12,,,,,,,,11,,,45,64
243360,note_on,240,0,11,,,,,,,,10,,,57,96
243360,note_on,0,0,3,,,,,,,,2,,,69,64
243396,note_on,36,0,11,,,,,,,,10,,,56,0
243396,note_on,36,0,12,,,,,,,,11,,,44,0
243404,note_on,44,0,4,,,,,,,,3,,,44,0
243422,note_on,62,0,10,,,,,,,,8,,,68,0
243442,note_on,82,0,8,,,,,,,,4,,,84,0
243442,note_on,38,0,4,,,,,,,,3,,,56,0
243454,note_on,94,0,1,,,,,,,,0,,,80,0
243480,note_on,0,0,8,,,,,,,,4,,,84,96
243480,note_on,0,0,8,,,,,,,,4,,,88,96
243480,note_on,38,0,8,,,,,,,,4,,,88,0
243512,note_on,70,0,4,,,,,,,,3,,,45,0
243524,note_on,164,0,3,,,,,,,,2,,,57,0
243530,note_on,18,0,4,,,,,,,,3,,,57,0
243536,note_on,12,0,3,,,,,,,,2,,,69,0
243564,note_on,84,0,8,,,,,,,,4,,,84,0
243600,note_on,70,0,4,,,,,,,,3,,,48,64
243600,note_on,204,0,11,,,,,,,,10,,,60,96
243600,note_on,204,0,12,,,,,,,,11,,,48,64
243600,note_on,0,0,3,,,,,,,,2,,,72,64
243600,note_on,64,0,3,,,,,,,,2,,,60,64
243600,note_on,146,0,1,,,,,,,,0,,,84,64
243600,note_on,178,0,10,,,,,,,,8,,,72,96
243600,note_on,0,0,8,,,,,,,,4,,,88,96
243600,note_on,0,0,8,,,,,,,,4,,,84,96
243600,note_on,36,0,8,,,,,,,,4,,,88,0
243600,note_on,0,0,4,,,,,,,,3,,,60,64
243614,note_on,14,0,1,,,,,,,,0,,,81,0
243652,note_on,52,0,11,,,,,,,,10,,,57,0
243652,note_on,52,0,12,,,,,,,,11,,,45,0
243670,note_on,70,0,10,,,,,,,,8,,,69,0
243694,note_on,94,0,8,,,,,,,,4,,,84,0
243720,note_on,26,0,8,,,,,,,,4,,,88,0
243720,note_on,0,0,8,,,,,,,,4,,,88,96
243720,note_on,0,0,8,,,,,,,,4,,,84,96
243732,note_on,132,0,4,,,,,,,,3,,,48,0
243750,note_on,18,0,4,,,,,,,,3,,,60,0
243752,note_on,152,0,3,,,,,,,,2,,,60,0
243762,note_on,10,0,3,,,,,,,,2,,,72,0
243806,note_on,86,0,8,,,,,,,,4,,,84,0
243840,note_on,874,0,2,,,,,,,,1,,,76,64
243840,note_on,78,0,3,,,,,,,,2,,,64,64
243840,note_on,226,0,1,,,,,,,,0,,,88,64
243840,note_on,188,0,12,,,,,,,,11,,,52,64
243840,note_on,170,0,10,,,,,,,,8,,,76,96
243840,note_on,90,0,4,,,,,,,,3,,,64,64
243840,note_on,0,0,4,,,,,,,,3,,,52,64
243840,note_on,0,0,8,,,,,,,,4,,,88,96
243840,note_on,0,0,8,,,,,,,,4,,,84,96
243840,note_on,34,0,8,,,,,,,,4,,,88,0
243840,note_on,0,0,3,,,,,,,,2,,,76,64
243840,note_on,188,0,11,,,,,,,,10,,,64,96
243856,note_on,16,0,1,,,,,,,,0,,,84,0
243870,note_on,30,0,10,,,,,,,,8,,,72,0
243872,note_on,992,0,5,,,,,,,,5,,,52,0
243890,note_on,50,0,12,,,,,,,,11,,,48,0
243890,note_on,50,0,11,,,,,,,,10,,,60,0
243892,note_on,20,0,5,,,,,,,,5,,,64,0
243936,note_on,96,0,8,,,,,,,,4,,,84,0
243960,note_on,24,0,8,,,,,,,,4,,,88,0
243960,note_on,0,0,8,,,,,,,,4,,,84,96
243960,note_on,0,0,8,,,,,,,,4,,,88,96
244054,note_on,94,0,8,,,,,,,,4,,,84,0
244080,note_on,0,0,8,,,,,,,,4,,,88,96
244080,note_on,0,0,8,,,,,,,,4,,,84,96
244080,note_on,26,0,8,,,,,,,,4,,,88,0
244170,note_on,90,0,8,,,,,,,,4,,,84,0
244200,note_on,360,0,4,,,,,,,,3,,,60,64
244200,note_on,30,0,8,,,,,,,,4,,,88,0
244200,note_on,0,0,8,,,,,,,,4,,,88,96
244200,note_on,0,0,8,,,,,,,,4,,,84,96
244290,note_on,90,0,8,,,,,,,,4,,,84,0
244320,note_on,30,0,8,,,,,,,,4,,,88,0
244320,note_on,0,0,8,,,,,,,,4,,,84,96
244320,note_on,0,0,8,,,,,,,,4,,,88,96
244374,note_on,174,0,4,,,,,,,,3,,,60,0
244390,note_on,534,0,1,,,,,,,,0,,,88,0
244394,note_on,524,0,10,,,,,,,,8,,,76,0
244404,note_on,84,0,8,,,,,,,,4,,,84,0
244410,note_on,36,0,4,,,,,,,,3,,,64,0
244412,note_on,2,0,4,,,,,,,,3,,,52,0
244426,note_on,536,0,11,,,,,,,,10,,,64,0
244426,note_on,536,0,12,,,,,,,,11,,,52,0
244434,note_on,594,0,3,,,,,,,,2,,,64,0
244440,note_on,0,0,8,,,,,,,,4,,,84,96
244440,note_on,36,0,8,,,,,,,,4,,,88,0
244440,note_on,0,0,8,,,,,,,,4,,,88,96
244444,note_on,604,0,2,,,,,,,,1,,,76,0
244460,note_on,26,0,3,,,,,,,,2,,,76,0
244526,note_on,86,0,8,,,,,,,,4,,,84,0
244560,note_on,166,0,10,,,,,,,,8,,,64,96
244560,note_on,134,0,12,,,,,,,,11,,,40,64
244560,note_on,0,0,3,,,,,,,,2,,,76,64
244560,note_on,100,0,3,,,,,,,,2,,,64,64
244560,note_on,170,0,1,,,,,,,,0,,,76,64
244560,note_on,0,0,8,,,,,,,,4,,,83,96
244560,note_on,148,0,4,,,,,,,,3,,,59,64
244560,note_on,0,0,4,,,,,,,,3,,,62,64
244560,note_on,34,0,8,,,,,,,,4,,,88,0
244560,note_on,116,0,2,,,,,,,,1,,,80,64
244560,note_on,134,0,11,,,,,,,,10,,,52,96
244560,note_on,0,0,8,,,,,,,,4,,,86,96
244630,note_on,70,0,3,,,,,,,,2,,,64,0
244642,note_on,82,0,11,,,,,,,,10,,,52,0
244642,note_on,82,0,12,,,,,,,,11,,,40,0
244646,note_on,86,0,8,,,,,,,,4,,,83,0
244650,note_on,90,0,1,,,,,,,,0,,,76,0
244652,note_on,92,0,4,,,,,,,,3,,,62,0
244652,note_on,0,0,4,,,,,,,,3,,,59,0
244654,note_on,24,0,3,,,,,,,,2,,,76,0
244660,note_on,100,0,10,,,,,,,,8,,,64,0
244672,note_on,112,0,2,,,,,,,,1,,,80,0
244680,note_on,34,0,8,,,,,,,,4,,,86,0
244680,note_on,0,0,8,,,,,,,,4,,,83,96
244680,note_on,0,0,8,,,,,,,,4,,,86,96
244764,note_on,84,0,8,,,,,,,,4,,,83,0
244800,note_on,0,0,4,,,,,,,,3,,,57,64
244800,note_on,36,0,8,,,,,,,,4,,,86,0
244800,note_on,140,0,10,,,,,,,,8,,,65,96
244800,note_on,158,0,11,,,,,,,,10,,,53,96
244800,note_on,0,0,8,,,,,,,,4,,,84,96
244800,note_on,0,0,8,,,,,,,,4,,,81,96
244800,note_on,150,0,1,,,,,,,,0,,,77,64
244800,note_on,158,0,12,,,,,,,,11,,,41,64
244800,note_on,148,0,4,,,,,,,,3,,,60,64
244800,note_on,0,0,3,,,,,,,,2,,,77,64
244800,note_on,146,0,3,,,,,,,,2,,,65,64
244800,note_on,128,0,2,,,,,,,,1,,,81,64
244906,note_on,106,0,8,,,,,,,,4,,,81,0
244920,note_on,14,0,8,,,,,,,,4,,,84,0
244920,note_on,0,0,8,,,,,,,,4,,,84,96
244920,note_on,0,0,8,,,,,,,,4,,,81,96
244970,note_on,170,0,2,,,,,,,,1,,,81,0
245022,note_on,102,0,8,,,,,,,,4,,,81,0
245024,note_on,224,0,4,,,,,,,,3,,,57,0
245024,note_on,0,0,4,,,,,,,,3,,,60,0
245040,note_on,0,0,8,,,,,,,,4,,,81,96
245040,note_on,0,0,8,,,,,,,,4,,,84,96
245040,note_on,18,0,8,,,,,,,,4,,,84,0
245130,note_on,90,0,8,,,,,,,,4,,,81,0
245160,note_on,30,0,8,,,,,,,,4,,,84,0
245160,note_on,0,0,8,,,,,,,,4,,,81,96
245160,note_on,0,0,8,,,,,,,,4,,,84,96
245250,note_on,90,0,8,,,,,,,,4,,,81,0
245280,note_on,0,0,4,,,,,,,,3,,,53,64
245280,note_on,30,0,8,,,,,,,,4,,,84,0
245280,note_on,0,0,8,,,,,,,,4,,,89,96
245280,note_on,0,0,8,,,,,,,,4,,,86,96
245280,note_on,0,0,5,,,,,,,,5,,,62,64
245280,note_on,1388,0,5,,,,,,,,5,,,65,64
245280,note_on,256,0,4,,,,,,,,3,,,65,64
245280,note_on,0,0,6,,,,,,,,6,,,77,64
245280,note_on,2300,0,6,,,,,,,,6,,,74,64
245380,note_on,100,0,8,,,,,,,,4,,,86,0
245396,note_on,596,0,1,,,,,,,,0,,,77,0
245400,note_on,0,0,8,,,,,,,,4,,,89,96
245400,note_on,600,0,12,,,,,,,,11,,,38,64
245400,note_on,0,0,4,,,,,,,,3,,,50,64
245400,note_on,4,0,1,,,,,,,,0,,,74,64
245400,note_on,600,0,10,,,,,,,,8,,,62,96
245400,note_on,0,0,8,,,,,,,,4,,,86,96
245400,note_on,20,0,8,,,,,,,,4,,,89,0
245400,note_on,120,0,4,,,,,,,,3,,,62,64
245400,note_on,600,0,3,,,,,,,,2,,,62,64
245400,note_on,600,0,11,,,,,,,,10,,,50,96
245400,note_on,0,0,3,,,,,,,,2,,,74,64
245406,note_on,6,0,3,,,,,,,,2,,,77,0
245422,note_on,22,0,4,,,,,,,,3,,,53,0
245422,note_on,0,0,4,,,,,,,,3,,,65,0
245440,note_on,34,0,3,,,,,,,,2,,,65,0
245456,note_on,56,0,12,,,,,,,,11,,,41,0
245456,note_on,56,0,11,,,,,,,,10,,,53,0
245466,note_on,66,0,10,,,,,,,,8,,,65,0
245494,note_on,94,0,8,,,,,,,,4,,,86,0
245520,note_on,98,0,4,,,,,,,,3,,,52,64
245520,note_on,0,0,4,,,,,,,,3,,,64,64
245520,note_on,120,0,1,,,,,,,,0,,,76,64
245520,note_on,80,0,3,,,,,,,,2,,,76,64
245520,note_on,26,0,8,,,,,,,,4,,,89,0
245520,note_on,64,0,11,,,,,,,,10,,,52,96
245520,note_on,0,0,8,,,,,,,,4,,,86,96
245520,note_on,0,0,3,,,,,,,,2,,,64,64
245520,note_on,0,0,8,,,,,,,,4,,,89,96
245520,note_on,54,0,10,,,,,,,,8,,,64,96
245520,note_on,64,0,12,,,,,,,,11,,,40,64
245530,note_on,10,0,3,,,,,,,,2,,,62,0
245552,note_on,32,0,4,,,,,,,,3,,,62,0
245554,note_on,24,0,3,,,,,,,,2,,,74,0
245554,note_on,2,0,4,,,,,,,,3,,,50,0
245560,note_on,40,0,1,,,,,,,,0,,,74,0
245594,note_on,74,0,12,,,,,,,,11,,,38,0
245594,note_on,74,0,11,,,,,,,,10,,,50,0
245600,note_on,80,0,10,,,,,,,,8,,,62,0
245610,note_on,90,0,8,,,,,,,,4,,,86,0
245622,note_on,342,0,6,,,,,,,,6,,,74,0
245622,note_on,342,0,5,,,,,,,,5,,,62,0
245626,note_on,4,0,6,,,,,,,,6,,,77,0
245626,note_on,4,0,5,,,,,,,,5,,,65,0
245640,note_on,86,0,3,,,,,,,,2,,,65,64
245640,note_on,80,0,1,,,,,,,,0,,,77,64
245640,note_on,0,0,3,,,,,,,,2,,,77,64
245640,note_on,86,0,4,,,,,,,,3,,,65,64
245640,note_on,46,0,12,,,,,,,,11,,,41,64
245640,note_on,0,0,8,,,,,,,,4,,,86,96
245640,note_on,0,0,8,,,,,,,,4,,,89,96
245640,note_on,30,0,8,,,,,,,,4,,,89,0
245640,note_on,46,0,11,,,,,,,,10,,,53,96
245640,note_on,40,0,10,,,,,,,,8,,,65,96
245640,note_on,0,0,4,,,,,,,,3,,,53,64
245666,note_on,26,0,3,,,,,,,,2,,,76,0
245674,note_on,34,0,4,,,,,,,,3,,,52,0
245680,note_on,6,0,4,,,,,,,,3,,,64,0
245684,note_on,18,0,3,,,,,,,,2,,,64,0
245690,note_on,50,0,1,,,,,,,,0,,,76,0
245714,note_on,74,0,11,,,,,,,,10,,,52,0
245714,note_on,74,0,12,,,,,,,,11,,,40,0
245720,note_on,80,0,10,,,,,,,,8,,,64,0
245734,note_on,94,0,8,,,,,,,,4,,,86,0
245760,note_on,0,0,3,,,,,,,,2,,,67,64
245760,note_on,134,0,6,,,,,,,,6,,,72,64
245760,note_on,0,0,8,,,,,,,,4,,,88,96
245760,note_on,0,0,8,,,,,,,,4,,,84,96
245760,note_on,26,0,8,,,,,,,,4,,,89,0
245760,note_on,0,0,6,,,,,,,,6,,,76,64
245760,note_on,80,0,4,,,,,,,,3,,,55,64
245760,note_on,76,0,3,,,,,,,,2,,,79,64
245760,note_on,46,0,11,,,,,,,,10,,,55,96
245760,note_on,40,0,10,,,,,,,,8,,,67,96
245760,note_on,70,0,1,,,,,,,,0,,,79,64
245760,note_on,0,0,4,,,,,,,,3,,,67,64
245760,note_on,0,0,5,,,,,,,,5,,,64,64
245760,note_on,134,0,5,,,,,,,,5,,,60,64
245760,note_on,46,0,12,,,,,,,,11,,,43,64
245776,note_on,16,0,4,,,,,,,,3,,,65,0
245776,note_on,16,0,3,,,,,,,,2,,,65,0
245794,note_on,18,0,3,,,,,,,,2,,,77,0
245800,note_on,40,0,1,,,,,,,,0,,,77,0
245804,note_on,44,0,11,,,,,,,,10,,,53,0
245804,note_on,44,0,12,,,,,,,,11,,,41,0
245806,note_on,30,0,4,,,,,,,,3,,,53,0
245814,note_on,54,0,10,,,,,,,,8,,,65,0
245850,note_on,90,0,8,,,,,,,,4,,,84,0
245880,note_on,0,0,3,,,,,,,,2,,,78,64
245880,note_on,74,0,4,,,,,,,,3,,,66,64
245880,note_on,66,0,10,,,,,,,,8,,,66,96
245880,note_on,80,0,1,,,,,,,,0,,,78,64
245880,note_on,30,0,8,,,,,,,,4,,,88,0
245880,note_on,0,0,8,,,,,,,,4,,,84,96
245880,note_on,0,0,8,,,,,,,,4,,,88,96
245880,note_on,0,0,4,,,,,,,,3,,,54,64
245880,note_on,76,0,12,,,,,,,,11,,,42,64
245880,note_on,76,0,11,,,,,,,,10,,,54,96
245880,note_on,2900,0,7,,,,,,,,7,,,43,64
245880,note_on,86,0,3,,,,,,,,2,,,66,64
245896,note_on,16,0,3,,,,,,,,2,,,67,0
245902,note_on,22,0,4,,,,,,,,3,,,55,0
245910,note_on,8,0,4,,,,,,,,3,,,67,0
245910,note_on,14,0,3,,,,,,,,2,,,79,0
245920,note_on,40,0,1,,,,,,,,0,,,79,0
245924,note_on,44,0,10,,,,,,,,8,,,67,0
245932,note_on,52,0,11,,,,,,,,10,,,55,0
245932,note_on,52,0,12,,,,,,,,11,,,43,0
245962,note_on,82,0,7,,,,,,,,7,,,43,0
245970,note_on,90,0,8,,,,,,,,4,,,84,0
246000,note_on,0,0,4,,,,,,,,3,,,55,64
246000,note_on,0,0,3,,,,,,,,2,,,79,64
246000,note_on,90,0,3,,,,,,,,2,,,67,64
246000,note_on,76,0,10,,,,,,,,8,,,67,96
246000,note_on,30,0,8,,,,,,,,4,,,88,0
246000,note_on,80,0,1,,,,,,,,0,,,79,64
246000,note_on,38,0,7,,,,,,,,7,,,43,64
246000,note_on,90,0,4,,,,,,,,3,,,67,64
246000,note_on,68,0,11,,,,,,,,10,,,55,96
246000,note_on,0,0,8,,,,,,,,4,,,88,96
246000,note_on,0,0,8,,,,,,,,4,,,84,96
246000,note_on,68,0,12,,,,,,,,11,,,43,64
246012,note_on,12,0,1,,,,,,,,0,,,78,0
246016,note_on,16,0,4,,,,,,,,3,,,54,0
246024,note_on,8,0,4,,,,,,,,3,,,66,0
246032,note_on,32,0,3,,,,,,,,2,,,66,0
246032,note_on,0,0,3,,,,,,,,2,,,78,0
246050,note_on,50,0,11,,,,,,,,10,,,54,0
246050,note_on,50,0,12,,,,,,,,11,,,42,0
246072,note_on,72,0,10,,,,,,,,8,,,66,0
246082,note_on,82,0,8,,,,,,,,4,,,84,0
246092,note_on,92,0,7,,,,,,,,7,,,43,0
246106,note_on,346,0,6,,,,,,,,6,,,76,0
246106,note_on,346,0,5,,,,,,,,5,,,64,0
246112,note_on,80,0,3,,,,,,,,2,,,67,0
246120,note_on,28,0,7,,,,,,,,7,,,43,64
246120,note_on,96,0,4,,,,,,,,3,,,55,0
246120,note_on,0,0,4,,,,,,,,3,,,54,64
246120,note_on,0,0,4,,,,,,,,3,,,66,64
246120,note_on,48,0,10,,,,,,,,8,,,66,96
246120,note_on,108,0,1,,,,,,,,0,,,78,64
246120,note_on,38,0,8,,,,,,,,4,,,88,0
246120,note_on,70,0,11,,,,,,,,10,,,54,96
246120,note_on,0,0,8,,,,,,,,4,,,88,96
246120,note_on,8,0,3,,,,,,,,2,,,66,64
246120,note_on,0,0,3,,,,,,,,2,,,78,64
246120,note_on,0,0,8,,,,,,,,4,,,84,96
246120,note_on,70,0,12,,,,,,,,11,,,42,64
246126,note_on,6,0,1,,,,,,,,0,,,79,0
246126,note_on,6,0,4,,,,,,,,3,,,67,0
246146,note_on,26,0,3,,,,,,,,2,,,79,0
246162,note_on,56,0,6,,,,,,,,6,,,72,0
246162,note_on,56,0,5,,,,,,,,5,,,60,0
246164,note_on,44,0,12,,,,,,,,11,,,43,0
246164,note_on,44,0,10,,,,,,,,8,,,67,0
246164,note_on,44,0,11,,,,,,,,10,,,55,0
246204,note_on,84,0,7,,,,,,,,7,,,43,0
246204,note_on,84,0,8,,,,,,,,4,,,84,0
246240,note_on,114,0,4,,,,,,,,3,,,67,64
246240,note_on,78,0,5,,,,,,,,5,,,62,64
246240,note_on,0,0,4,,,,,,,,3,,,55,64
246240,note_on,0,0,5,,,,,,,,5,,,55,64
246240,note_on,0,0,8,,,,,,,,4,,,83,96
246240,note_on,78,0,6,,,,,,,,6,,,67,64
246240,note_on,76,0,11,,,,,,,,10,,,55,96
246240,note_on,114,0,1,,,,,,,,0,,,79,64
246240,note_on,36,0,8,,,,,,,,4,,,88,0
246240,note_on,76,0,12,,,,,,,,11,,,43,64
246240,note_on,0,0,3,,,,,,,,2,,,67,64
246240,note_on,94,0,3,,,,,,,,2,,,79,64
246240,note_on,0,0,8,,,,,,,,4,,,86,96
246240,note_on,76,0,10,,,,,,,,8,,,67,96
246240,note_on,0,0,6,,,,,,,,6,,,74,64
246240,note_on,36,0,7,,,,,,,,7,,,43,64
246250,note_on,10,0,4,,,,,,,,3,,,66,0
246256,note_on,16,0,3,,,,,,,,2,,,78,0
246266,note_on,16,0,4,,,,,,,,3,,,54,0
246270,note_on,30,0,1,,,,,,,,0,,,78,0
246294,note_on,54,0,10,,,,,,,,8,,,66,0
246296,note_on,40,0,3,,,,,,,,2,,,66,0
246310,note_on,70,0,11,,,,,,,,10,,,54,0
246310,note_on,70,0,12,,,,,,,,11,,,42,0
246314,note_on,74,0,7,,,,,,,,7,,,43,0
246314,note_on,44,0,1,,,,,,,,0,,,79,0
246314,note_on,48,0,4,,,,,,,,3,,,67,0
246316,note_on,22,0,10,,,,,,,,8,,,67,0
246320,note_on,24,0,3,,,,,,,,2,,,79,0
246322,note_on,8,0,4,,,,,,,,3,,,55,0
246332,note_on,12,0,3,,,,,,,,2,,,67,0
246336,note_on,96,0,8,,,,,,,,4,,,83,0
246350,note_on,40,0,12,,,,,,,,11,,,43,0
246350,note_on,40,0,11,,,,,,,,10,,,55,0
246360,note_on,0,0,8,,,,,,,,4,,,86,96
246360,note_on,24,0,8,,,,,,,,4,,,86,0
246360,note_on,0,0,8,,,,,,,,4,,,83,96
246360,note_on,46,0,7,,,,,,,,7,,,43,64
246442,note_on,82,0,7,,,,,,,,7,,,43,0
246450,note_on,90,0,8,,,,,,,,4,,,83,0
246480,note_on,130,0,11,,,,,,,,10,,,43,96
246480,note_on,158,0,4,,,,,,,,3,,,55,64
246480,note_on,0,0,3,,,,,,,,2,,,67,64
246480,note_on,164,0,10,,,,,,,,8,,,55,96
246480,note_on,166,0,1,,,,,,,,0,,,67,64
246480,note_on,30,0,8,,,,,,,,4,,,86,0
246480,note_on,0,0,8,,,,,,,,4,,,83,96
246480,note_on,0,0,8,,,,,,,,4,,,86,96
246480,note_on,148,0,3,,,,,,,,2,,,55,64
246480,note_on,38,0,7,,,,,,,,7,,,43,64
246480,note_on,0,0,4,,,,,,,,3,,,43,64
246480,note_on,130,0,12,,,,,,,,11,,,31,64
246536,note_on,0,0,5,,,,,,,,5,,,62,0
246536,note_on,0,0,6,,,,,,,,6,,,67,0
246536,note_on,296,0,6,,,,,,,,6,,,74,0
246536,note_on,296,0,5,,,,,,,,5,,,55,0
246540,note_on,60,0,1,,,,,,,,0,,,67,0
246544,note_on,64,0,3,,,,,,,,2,,,55,0
246544,note_on,64,0,4,,,,,,,,3,,,43,0
246546,note_on,2,0,4,,,,,,,,3,,,55,0
246550,note_on,6,0,3,,,,,,,,2,,,67,0
246560,note_on,80,0,10,,,,,,,,8,,,55,0
246566,note_on,86,0,8,,,,,,,,4,,,83,0
246570,note_on,90,0,7,,,,,,,,7,,,43,0
246576,note_on,96,0,12,,,,,,,,11,,,31,0
246576,note_on,96,0,11,,,,,,,,10,,,43,0
246600,note_on,30,0,7,,,,,,,,7,,,43,64
246600,note_on,0,0,8,,,,,,,,4,,,83,96
246600,note_on,0,0,8,,,,,,,,4,,,86,96
246600,note_on,34,0,8,,,,,,,,4,,,86,0
246674,note_on,74,0,7,,,,,,,,7,,,43,0
246692,note_on,92,0,8,,,,,,,,4,,,83,0
246720,note_on,160,0,10,,,,,,,,8,,,60,96
246720,note_on,180,0,1,,,,,,,,0,,,91,64
246720,note_on,0,0,8,,,,,,,,4,,,88,96
246720,note_on,0,0,1,,,,,,,,0,,,88,64
246720,note_on,0,0,5,,,,,,,,5,,,60,64
246720,note_on,184,0,5,,,,,,,,5,,,48,64
246720,note_on,46,0,7,,,,,,,,7,,,48,64
246720,note_on,184,0,6,,,,,,,,6,,,72,64
246720,note_on,0,0,6,,,,,,,,6,,,60,64
246720,note_on,28,0,8,,,,,,,,4,,,86,0
246720,note_on,144,0,11,,,,,,,,10,,,48,96
246720,note_on,144,0,12,,,,,,,,11,,,36,64
246720,note_on,174,0,4,,,,,,,,3,,,48,64
246720,note_on,1750,0,2,,,,,,,,1,,,79,64
246720,note_on,0,0,2,,,,,,,,1,,,76,64
246720,note_on,170,0,3,,,,,,,,2,,,60,64
246720,note_on,0,0,8,,,,,,,,4,,,91,96
246720,note_on,0,0,3,,,,,,,,2,,,72,64
246812,note_on,92,0,8,,,,,,,,4,,,88,0
246820,note_on,100,0,7,,,,,,,,7,,,48,0
246840,note_on,120,0,11,,,,,,,,10,,,50,96
246840,note_on,120,0,12,,,,,,,,11,,,38,64
246840,note_on,120,0,3,,,,,,,,2,,,74,64
246840,note_on,120,0,4,,,,,,,,3,,,50,64
246840,note_on,120,0,10,,,,,,,,8,,,62,96
246840,note_on,28,0,8,,,,,,,,4,,,91,0
246840,note_on,0,0,8,,,,,,,,4,,,88,96
246840,note_on,0,0,3,,,,,,,,2,,,62,64
246840,note_on,0,0,8,,,,,,,,4,,,91,96
246862,note_on,22,0,4,,,,,,,,3,,,48,0
246870,note_on,30,0,3,,,,,,,,2,,,60,0
246880,note_on,10,0,3,,,,,,,,2,,,72,0
246890,note_on,50,0,12,,,,,,,,11,,,36,0
246890,note_on,50,0,11,,,,,,,,10,,,48,0
246890,note_on,50,0,10,,,,,,,,8,,,60,0
246924,note_on,84,0,8,,,,,,,,4,,,88,0
246960,note_on,80,0,3,,,,,,,,2,,,72,64
246960,note_on,70,0,11,,,,,,,,10,,,48,96
246960,note_on,0,0,3,,,,,,,,2,,,60,64
246960,note_on,0,0,8,,,,,,,,4,,,91,96
246960,note_on,0,0,8,,,,,,,,4,,,88,96
246960,note_on,70,0,10,,,,,,,,8,,,60,96
246960,note_on,98,0,4,,,,,,,,3,,,48,64
246960,note_on,70,0,12,,,,,,,,11,,,36,64
246960,note_on,36,0,8,,,,,,,,4,,,91,0
246980,note_on,20,0,3,,,,,,,,2,,,62,0
246986,note_on,26,0,4,,,,,,,,3,,,50,0
246986,note_on,6,0,3,,,,,,,,2,,,74,0
247014,note_on,54,0,11,,,,,,,,10,,,50,0
247014,note_on,54,0,12,,,,,,,,11,,,38,0
247022,note_on,62,0,10,,,,,,,,8,,,62,0
247046,note_on,86,0,8,,,,,,,,4,,,88,0
247080,note_on,94,0,3,,,,,,,,2,,,71,64
247080,note_on,66,0,11,,,,,,,,10,,,47,96
247080,note_on,58,0,10,,,,,,,,8,,,59,96
247080,note_on,66,0,12,,,,,,,,11,,,35,64
247080,note_on,0,0,3,,,,,,,,2,,,59,64
247080,note_on,34,0,8,,,,,,,,4,,,91,0
247080,note_on,94,0,4,,,,,,,,3,,,47,64
247080,note_on,0,0,8,,,,,,,,4,,,88,96
247080,note_on,0,0,8,,,,,,,,4,,,91,96
247102,note_on,22,0,3,,,,,,,,2,,,72,0
247106,note_on,4,0,3,,,,,,,,2,,,60,0
247112,note_on,32,0,4,,,,,,,,3,,,48,0
247124,note_on,44,0,10,,,,,,,,8,,,60,0
247136,note_on,56,0,11,,,,,,,,10,,,48,0
247136,note_on,56,0,12,,,,,,,,11,,,36,0
247164,note_on,84,0,8,,,,,,,,4,,,88,0
247200,note_on,88,0,4,,,,,,,,3,,,48,64
247200,note_on,94,0,3,,,,,,,,2,,,72,64
247200,note_on,76,0,10,,,,,,,,8,,,60,96
247200,note_on,64,0,11,,,,,,,,10,,,48,96
247200,note_on,0,0,8,,,,,,,,4,,,91,96
247200,note_on,0,0,8,,,,,,,,4,,,88,96
247200,note_on,0,0,3,,,,,,,,2,,,60,64
247200,note_on,64,0,12,,,,,,,,11,,,36,64
247200,note_on,36,0,8,,,,,,,,4,,,91,0
247226,note_on,26,0,11,,,,,,,,10,,,47,0
247226,note_on,26,0,12,,,,,,,,11,,,35,0
247234,note_on,34,0,3,,,,,,,,2,,,59,0
247236,note_on,2,0,3,,,,,,,,2,,,71,0
247240,note_on,40,0,10,,,,,,,,8,,,59,0
247240,note_on,40,0,4,,,,,,,,3,,,47,0
247282,note_on,82,0,8,,,,,,,,4,,,88,0
247284,note_on,564,0,6,,,,,,,,6,,,60,0
247284,note_on,564,0,5,,,,,,,,5,,,48,0
247286,note_on,2,0,6,,,,,,,,6,,,72,0
247286,note_on,2,0,5,,,,,,,,5,,,60,0
247320,note_on,94,0,12,,,,,,,,11,,,38,64
247320,note_on,80,0,10,,,,,,,,8,,,62,96
247320,note_on,94,0,11,,,,,,,,10,,,50,96
247320,note_on,0,0,8,,,,,,,,4,,,91,96
247320,note_on,0,0,8,,,,,,,,4,,,88,96
247320,note_on,0,0,3,,,,,,,,2,,,74,64
247320,note_on,80,0,4,,,,,,,,3,,,50,64
247320,note_on,84,0,3,,,,,,,,2,,,60,0
247320,note_on,38,0,8,,,,,,,,4,,,91,0
247320,note_on,0,0,3,,,,,,,,2,,,62,64
247342,note_on,22,0,4,,,,,,,,3,,,48,0
247356,note_on,36,0,10,,,,,,,,8,,,60,0
247364,note_on,44,0,3,,,,,,,,2,,,72,0
247366,note_on,46,0,11,,,,,,,,10,,,48,0
247366,note_on,46,0,12,,,,,,,,11,,,36,0
247406,note_on,86,0,8,,,,,,,,4,,,88,0
247440,note_on,154,0,5,,,,,,,,5,,,64,64
247440,note_on,84,0,10,,,,,,,,8,,,64,96
247440,note_on,98,0,4,,,,,,,,3,,,52,64
247440,note_on,76,0,3,,,,,,,,2,,,64,64
247440,note_on,0,0,6,,,,,,,,6,,,76,64
247440,note_on,154,0,6,,,,,,,,6,,,64,64
247440,note_on,0,0,3,,,,,,,,2,,,76,64
247440,note_on,34,0,8,,,,,,,,4,,,91,0
247440,note_on,0,0,8,,,,,,,,4,,,88,96
247440,note_on,0,0,8,,,,,,,,4,,,91,96
247440,note_on,0,0,5,,,,,,,,5,,,52,64
247440,note_on,74,0,11,,,,,,,,10,,,52,96
247440,note_on,74,0,12,,,,,,,,11,,,40,64
247476,note_on,36,0,4,,,,,,,,3,,,50,0
247490,note_on,50,0,10,,,,,,,,8,,,62,0
247492,note_on,52,0,12,,,,,,,,11,,,38,0
247492,note_on,52,0,5,,,,,,,,5,,,52,0
247492,note_on,52,0,11,,,,,,,,10,,,50,0
247492,note_on,52,0,6,,,,,,,,6,,,64,0
247496,note_on,56,0,3,,,,,,,,2,,,74,0
247506,note_on,14,0,5,,,,,,,,5,,,64,0
247506,note_on,14,0,6,,,,,,,,6,,,76,0
247510,note_on,14,0,3,,,,,,,,2,,,62,0
247526,note_on,86,0,8,,,,,,,,4,,,88,0
247560,note_on,0,0,8,,,,,,,,4,,,88,96
247560,note_on,0,0,8,,,,,,,,4,,,91,96
247560,note_on,68,0,12,,,,,,,,11,,,41,64
247560,note_on,34,0,8,,,,,,,,4,,,91,0
247560,note_on,84,0,4,,,,,,,,3,,,53,64
247560,note_on,70,0,10,,,,,,,,8,,,65,96
247560,note_on,68,0,11,,,,,,,,10,,,53,96
247560,note_on,50,0,3,,,,,,,,2,,,77,64
247560,note_on,0,0,3,,,,,,,,2,,,65,64
247582,note_on,22,0,4,,,,,,,,3,,,52,0
247600,note_on,40,0,3,,,,,,,,2,,,64,0
247604,note_on,4,0,3,,,,,,,,2,,,76,0
247622,note_on,62,0,10,,,,,,,,8,,,64,0
247626,note_on,66,0,12,,,,,,,,11,,,40,0
247626,note_on,66,0,11,,,,,,,,10,,,52,0
247654,note_on,94,0,8,,,,,,,,4,,,88,0
247680,note_on,26,0,8,,,,,,,,4,,,91,0
247680,note_on,0,0,3,,,,,,,,2,,,67,64
247680,note_on,98,0,4,,,,,,,,3,,,55,64
247680,note_on,0,0,8,,,,,,,,4,,,91,96
247680,note_on,0,0,6,,,,,,,,6,,,67,64
247680,note_on,174,0,6,,,,,,,,6,,,79,64
247680,note_on,54,0,12,,,,,,,,11,,,43,64
247680,note_on,58,0,10,,,,,,,,8,,,67,96
247680,note_on,54,0,11,,,,,,,,10,,,55,96
247680,note_on,76,0,3,,,,,,,,2,,,79,64
247680,note_on,0,0,8,,,,,,,,4,,,88,96
247690,note_on,10,0,3,,,,,,,,2,,,77,0
247706,note_on,16,0,3,,,,,,,,2,,,65,0
247716,note_on,36,0,4,,,,,,,,3,,,53,0
247724,note_on,44,0,10,,,,,,,,8,,,65,0
247736,note_on,56,0,6,,,,,,,,6,,,67,0
247740,note_on,60,0,11,,,,,,,,10,,,53,0
247740,note_on,60,0,12,,,,,,,,11,,,41,0
247742,note_on,6,0,6,,,,,,,,6,,,79,0
247770,note_on,90,0,8,,,,,,,,4,,,88,0
247800,note_on,30,0,8,,,,,,,,4,,,91,0
247800,note_on,0,0,8,,,,,,,,4,,,88,96
247800,note_on,0,0,8,,,,,,,,4,,,91,96
247884,note_on,84,0,8,,,,,,,,4,,,88,0
247920,note_on,0,0,8,,,,,,,,4,,,88,96
247920,note_on,36,0,8,,,,,,,,4,,,91,0
247920,note_on,0,0,8,,,,,,,,4,,,91,96
248010,note_on,90,0,8,,,,,,,,4,,,88,0
248040,note_on,30,0,8,,,,,,,,4,,,91,0
248040,note_on,0,0,8,,,,,,,,4,,,88,96
248040,note_on,0,0,8,,,,,,,,4,,,91,96
248124,note_on,84,0,8,,,,,,,,4,,,88,0
248160,note_on,0,0,8,,,,,,,,4,,,91,96
248160,note_on,0,0,8,,,,,,,,4,,,88,96
248160,note_on,36,0,8,,,,,,,,4,,,91,0
248214,note_on,1494,0,1,,,,,,,,0,,,91,0
248244,note_on,84,0,8,,,,,,,,4,,,88,0
248252,note_on,1532,0,2,,,,,,,,1,,,79,0
248266,note_on,14,0,2,,,,,,,,1,,,76,0
248276,note_on,536,0,11,,,,,,,,10,,,55,0
248276,note_on,536,0,12,,,,,,,,11,,,43,0
248280,note_on,0,0,8,,,,,,,,4,,,91,96
248280,note_on,36,0,8,,,,,,,,4,,,91,0
248280,note_on,0,0,8,,,,,,,,4,,,88,96
248284,note_on,560,0,10,,,,,,,,8,,,67,0
248284,note_on,70,0,1,,,,,,,,0,,,88,0
248300,note_on,584,0,4,,,,,,,,3,,,55,0
248332,note_on,626,0,3,,,,,,,,2,,,79,0
248366,note_on,86,0,8,,,,,,,,4,,,88,0
248372,note_on,40,0,3,,,,,,,,2,,,67,0
248400,note_on,0,0,1,,,,,,,,0,,,86,64
248400,note_on,116,0,10,,,,,,,,8,,,68,96
248400,note_on,28,0,3,,,,,,,,2,,,68,64
248400,note_on,0,0,3,,,,,,,,2,,,80,64
248400,note_on,124,0,11,,,,,,,,10,,,56,96
248400,note_on,894,0,5,,,,,,,,5,,,65,64
248400,note_on,0,0,5,,,,,,,,5,,,62,64
248400,note_on,116,0,1,,,,,,,,0,,,89,64
248400,note_on,0,0,2,,,,,,,,1,,,74,64
248400,note_on,34,0,8,,,,,,,,4,,,91,0
248400,note_on,0,0,8,,,,,,,,4,,,89,96
248400,note_on,134,0,2,,,,,,,,1,,,77,64
248400,note_on,124,0,12,,,,,,,,11,,,44,64
248400,note_on,0,0,8,,,,,,,,4,,,86,96
248400,note_on,100,0,4,,,,,,,,3,,,56,64
248476,note_on,76,0,1,,,,,,,,0,,,89,0
248480,note_on,80,0,10,,,,,,,,8,,,68,0
248492,note_on,92,0,8,,,,,,,,4,,,86,0
248502,note_on,102,0,11,,,,,,,,10,,,56,0
248502,note_on,102,0,12,,,,,,,,11,,,44,0
248512,note_on,36,0,1,,,,,,,,0,,,86,0
248516,note_on,116,0,4,,,,,,,,3,,,56,0
248520,note_on,28,0,8,,,,,,,,4,,,89,0
248520,note_on,0,0,8,,,,,,,,4,,,86,96
248520,note_on,0,0,8,,,,,,,,4,,,89,96
248526,note_on,126,0,5,,,,,,,,5,,,65,0
248526,note_on,126,0,2,,,,,,,,1,,,77,0
248552,note_on,26,0,5,,,,,,,,5,,,62,0
248552,note_on,26,0,2,,,,,,,,1,,,74,0
248604,note_on,204,0,3,,,,,,,,2,,,80,0
248610,note_on,90,0,8,,,,,,,,4,,,86,0
248640,note_on,36,0,3,,,,,,,,2,,,69,64
248640,note_on,138,0,11,,,,,,,,10,,,57,96
248640,note_on,0,0,6,,,,,,,,6,,,76,80
248640,note_on,898,0,6,,,,,,,,6,,,64,80
248640,note_on,0,0,5,,,,,,,,5,,,60,64
248640,note_on,1820,0,7,,,,,,,,7,,,48,64
248640,note_on,0,0,3,,,,,,,,2,,,81,64
248640,note_on,88,0,5,,,,,,,,5,,,64,64
248640,note_on,0,0,1,,,,,,,,0,,,88,64
248640,note_on,30,0,8,,,,,,,,4,,,89,0
248640,note_on,0,0,8,,,,,,,,4,,,88,96
248640,note_on,124,0,4,,,,,,,,3,,,57,64
248640,note_on,160,0,10,,,,,,,,8,,,69,96
248640,note_on,0,0,8,,,,,,,,4,,,84,96
248640,note_on,88,0,2,,,,,,,,1,,,76,64
248640,note_on,0,0,2,,,,,,,,1,,,72,64
248640,note_on,138,0,12,,,,,,,,11,,,45,64
248640,note_on,128,0,1,,,,,,,,0,,,84,64
248676,note_on,36,0,3,,,,,,,,2,,,68,0
248734,note_on,94,0,8,,,,,,,,4,,,84,0
248734,note_on,94,0,7,,,,,,,,7,,,48,0
248754,note_on,78,0,3,,,,,,,,2,,,81,0
248760,note_on,120,0,12,,,,,,,,11,,,47,64
248760,note_on,120,0,10,,,,,,,,8,,,71,96
248760,note_on,26,0,8,,,,,,,,4,,,88,0
248760,note_on,6,0,3,,,,,,,,2,,,71,64
248760,note_on,120,0,11,,,,,,,,10,,,59,96
248760,note_on,0,0,8,,,,,,,,4,,,84,96
248760,note_on,0,0,8,,,,,,,,4,,,88,96
248790,note_on,150,0,4,,,,,,,,3,,,57,0
248806,note_on,46,0,3,,,,,,,,2,,,69,0
248812,note_on,172,0,1,,,,,,,,0,,,84,0
248814,note_on,54,0,10,,,,,,,,8,,,69,0
248822,note_on,10,0,1,,,,,,,,0,,,88,0
248822,note_on,62,0,12,,,,,,,,11,,,45,0
248822,note_on,62,0,11,,,,,,,,10,,,57,0
248850,note_on,90,0,8,,,,,,,,4,,,84,0
248880,note_on,0,0,8,,,,,,,,4,,,88,96
248880,note_on,66,0,10,,,,,,,,8,,,69,96
248880,note_on,58,0,12,,,,,,,,11,,,45,64
248880,note_on,30,0,8,,,,,,,,4,,,88,0
248880,note_on,58,0,11,,,,,,,,10,,,57,96
248880,note_on,0,0,8,,,,,,,,4,,,84,96
248880,note_on,58,0,1,,,,,,,,0,,,81,64
248880,note_on,74,0,3,,,,,,,,2,,,69,64
248912,note_on,32,0,3,,,,,,,,2,,,71,0
248914,note_on,34,0,11,,,,,,,,10,,,59,0
248914,note_on,34,0,12,,,,,,,,11,,,47,0
248934,note_on,54,0,10,,,,,,,,8,,,71,0
248966,note_on,86,0,8,,,,,,,,4,,,84,0
249000,note_on,86,0,12,,,,,,,,11,,,44,64
249000,note_on,34,0,8,,,,,,,,4,,,88,0
249000,note_on,0,0,8,,,,,,,,4,,,88,96
249000,note_on,120,0,1,,,,,,,,0,,,80,64
249000,note_on,0,0,8,,,,,,,,4,,,84,96
249000,note_on,86,0,11,,,,,,,,10,,,56,96
249000,note_on,88,0,3,,,,,,,,2,,,68,64
249000,note_on,66,0,10,,,,,,,,8,,,68,96
249016,note_on,16,0,3,,,,,,,,2,,,69,0
249026,note_on,26,0,1,,,,,,,,0,,,81,0
249042,note_on,42,0,10,,,,,,,,8,,,69,0
249050,note_on,50,0,12,,,,,,,,11,,,45,0
249050,note_on,50,0,11,,,,,,,,10,,,57,0
249080,note_on,80,0,8,,,,,,,,4,,,84,0
249120,note_on,0,0,8,,,,,,,,4,,,88,96
249120,note_on,40,0,8,,,,,,,,4,,,88,0
249120,note_on,78,0,10,,,,,,,,8,,,69,96
249120,note_on,0,0,8,,,,,,,,4,,,84,96
249120,note_on,70,0,11,,,,,,,,10,,,57,96
249120,note_on,330,0,4,,,,,,,,3,,,64,64
249120,note_on,104,0,3,,,,,,,,2,,,69,64
249120,note_on,70,0,12,,,,,,,,11,,,45,64
249120,note_on,0,0,4,,,,,,,,3,,,60,64
249120,note_on,94,0,1,,,,,,,,0,,,81,64
249134,note_on,14,0,3,,,,,,,,2,,,68,0
249136,note_on,16,0,1,,,,,,,,0,,,80,0
249166,note_on,46,0,11,,,,,,,,10,,,56,0
249166,note_on,46,0,12,,,,,,,,11,,,44,0
249176,note_on,56,0,10,,,,,,,,8,,,68,0
249204,note_on,84,0,8,,,,,,,,4,,,84,0
249240,note_on,106,0,3,,,,,,,,2,,,71,64
249240,note_on,0,0,8,,,,,,,,4,,,84,96
249240,note_on,36,0,8,,,,,,,,4,,,88,0
249240,note_on,74,0,11,,,,,,,,10,,,59,96
249240,note_on,74,0,12,,,,,,,,11,,,47,64
249240,note_on,104,0,1,,,,,,,,0,,,83,64
249240,note_on,64,0,10,,,,,,,,8,,,71,96
249240,note_on,0,0,8,,,,,,,,4,,,88,96
249270,note_on,30,0,1,,,,,,,,0,,,81,0
249272,note_on,32,0,3,,,,,,,,2,,,69,0
249280,note_on,40,0,10,,,,,,,,8,,,69,0
249294,note_on,54,0,11,,,,,,,,10,,,57,0
249294,note_on,54,0,12,,,,,,,,11,,,45,0
249304,note_on,664,0,2,,,,,,,,1,,,72,0
249322,note_on,18,0,2,,,,,,,,1,,,76,0
249324,note_on,84,0,8,,,,,,,,4,,,84,0
249360,note_on,80,0,10,,,,,,,,8,,,72,96
249360,note_on,36,0,8,,,,,,,,4,,,88,0
249360,note_on,0,0,8,,,,,,,,4,,,84,96
249360,note_on,0,0,8,,,,,,,,4,,,88,96
249360,note_on,66,0,12,,,,,,,,11,,,48,64
249360,note_on,66,0,11,,,,,,,,10,,,60,96
249360,note_on,90,0,1,,,,,,,,0,,,84,64
249360,note_on,88,0,3,,,,,,,,2,,,72,64
249392,note_on,32,0,3,,,,,,,,2,,,71,0
249410,note_on,50,0,1,,,,,,,,0,,,83,0
249434,note_on,74,0,10,,,,,,,,8,,,71,0
249436,note_on,76,0,8,,,,,,,,4,,,84,0
249440,note_on,80,0,12,,,,,,,,11,,,47,0
249440,note_on,80,0,11,,,,,,,,10,,,59,0
249480,note_on,46,0,10,,,,,,,,8,,,74,96
249480,note_on,70,0,1,,,,,,,,0,,,86,64
249480,note_on,88,0,3,,,,,,,,2,,,74,64
249480,note_on,40,0,12,,,,,,,,11,,,50,64
249480,note_on,44,0,8,,,,,,,,4,,,88,0
249480,note_on,0,0,8,,,,,,,,4,,,88,96
249480,note_on,0,0,8,,,,,,,,4,,,84,96
249480,note_on,40,0,11,,,,,,,,10,,,62,96
249512,note_on,32,0,1,,,,,,,,0,,,84,0
249520,note_on,40,0,3,,,,,,,,2,,,72,0
249530,note_on,50,0,10,,,,,,,,8,,,72,0
249536,note_on,56,0,11,,,,,,,,10,,,60,0
249536,note_on,56,0,12,,,,,,,,11,,,48,0
249554,note_on,74,0,8,,,,,,,,4,,,84,0
249600,note_on,0,0,8,,,,,,,,4,,,84,96
249600,note_on,866,0,7,,,,,,,,7,,,48,64
249600,note_on,64,0,12,,,,,,,,11,,,52,64
249600,note_on,88,0,1,,,,,,,,0,,,88,64
249600,note_on,0,0,8,,,,,,,,4,,,88,96
249600,note_on,278,0,2,,,,,,,,1,,,72,64
249600,note_on,46,0,8,,,,,,,,4,,,88,0
249600,note_on,80,0,3,,,,,,,,2,,,76,64
249600,note_on,70,0,10,,,,,,,,8,,,76,96
249600,note_on,0,0,2,,,,,,,,1,,,76,64
249600,note_on,64,0,11,,,,,,,,10,,,64,96
249636,note_on,36,0,3,,,,,,,,2,,,74,0
249654,note_on,54,0,12,,,,,,,,11,,,50,0
249654,note_on,54,0,11,,,,,,,,10,,,62,0
249662,note_on,62,0,1,,,,,,,,0,,,86,0
249670,note_on,70,0,10,,,,,,,,8,,,74,0
249682,note_on,82,0,8,,,,,,,,4,,,84,0
249686,note_on,86,0,7,,,,,,,,7,,,48,0
249720,note_on,0,0,8,,,,,,,,4,,,84,96
249720,note_on,0,0,8,,,,,,,,4,,,88,96
249720,note_on,38,0,8,,,,,,,,4,,,88,0
249792,note_on,1152,0,6,,,,,,,,6,,,76,0
249792,note_on,0,0,6,,,,,,,,6,,,64,0
249796,note_on,76,0,8,,,,,,,,4,,,84,0
249826,note_on,0,0,5,,,,,,,,5,,,64,0
249826,note_on,1186,0,5,,,,,,,,5,,,60,0
249840,note_on,0,0,8,,,,,,,,4,,,84,96
249840,note_on,0,0,8,,,,,,,,4,,,88,96
249840,note_on,44,0,8,,,,,,,,4,,,88,0
249926,note_on,86,0,8,,,,,,,,4,,,84,0
249960,note_on,34,0,8,,,,,,,,4,,,88,0
249960,note_on,0,0,8,,,,,,,,4,,,88,96
249960,note_on,0,0,8,,,,,,,,4,,,84,96
250042,note_on,82,0,8,,,,,,,,4,,,84,0
250060,note_on,390,0,10,,,,,,,,8,,,76,0
250080,note_on,0,0,8,,,,,,,,4,,,88,96
250080,note_on,38,0,8,,,,,,,,4,,,88,0
250080,note_on,0,0,8,,,,,,,,4,,,84,96
250152,note_on,1032,0,4,,,,,,,,3,,,64,0
250156,note_on,502,0,12,,,,,,,,11,,,52,0
250156,note_on,502,0,11,,,,,,,,10,,,64,0
250160,note_on,560,0,2,,,,,,,,1,,,72,0
250164,note_on,84,0,8,,,,,,,,4,,,84,0
250196,note_on,44,0,4,,,,,,,,3,,,60,0
250200,note_on,36,0,8,,,,,,,,4,,,88,0
250200,note_on,0,0,8,,,,,,,,4,,,88,96
250200,note_on,0,0,8,,,,,,,,4,,,84,96
250212,note_on,576,0,3,,,,,,,,2,,,76,0
250224,note_on,64,0,2,,,,,,,,1,,,76,0
250226,note_on,564,0,1,,,,,,,,0,,,88,0
250284,note_on,84,0,8,,,,,,,,4,,,84,0
250320,note_on,164,0,12,,,,,,,,11,,,40,64
250320,note_on,96,0,2,,,,,,,,1,,,80,64
250320,note_on,0,0,2,,,,,,,,1,,,71,64
250320,note_on,260,0,10,,,,,,,,8,,,64,96
250320,note_on,36,0,8,,,,,,,,4,,,88,0
250320,note_on,0,0,8,,,,,,,,4,,,83,96
250320,note_on,0,0,8,,,,,,,,4,,,86,96
250320,note_on,0,0,3,,,,,,,,2,,,64,64
250320,note_on,108,0,3,,,,,,,,2,,,76,64
250320,note_on,124,0,4,,,,,,,,3,,,62,64
250320,note_on,0,0,4,,,,,,,,3,,,59,64
250320,note_on,164,0,11,,,,,,,,10,,,52,96
250320,note_on,94,0,1,,,,,,,,0,,,92,64
250320,note_on,0,0,1,,,,,,,,0,,,86,64
250402,note_on,82,0,1,,,,,,,,0,,,92,0
250402,note_on,82,0,10,,,,,,,,8,,,64,0
250402,note_on,82,0,8,,,,,,,,4,,,83,0
250406,note_on,86,0,11,,,,,,,,10,,,52,0
250406,note_on,86,0,12,,,,,,,,11,,,40,0
250414,note_on,94,0,2,,,,,,,,1,,,71,0
250416,note_on,96,0,3,,,,,,,,2,,,76,0
250422,note_on,6,0,3,,,,,,,,2,,,64,0
250422,note_on,8,0,2,,,,,,,,1,,,80,0
250430,note_on,110,0,4,,,,,,,,3,,,62,0
250432,note_on,30,0,1,,,,,,,,0,,,86,0
250440,note_on,38,0,8,,,,,,,,4,,,86,0
250440,note_on,0,0,8,,,,,,,,4,,,83,96
250440,note_on,0,0,8,,,,,,,,4,,,86,96
250464,note_on,34,0,4,,,,,,,,3,,,59,0
250532,note_on,92,0,8,,,,,,,,4,,,83,0
250560,note_on,0,0,3,,,,,,,,2,,,65,64
250560,note_on,874,0,7,,,,,,,,7,,,48,64
250560,note_on,154,0,11,,,,,,,,10,,,53,96
250560,note_on,0,0,1,,,,,,,,0,,,93,64
250560,note_on,0,0,4,,,,,,,,3,,,57,64
250560,note_on,96,0,4,,,,,,,,3,,,60,64
250560,note_on,158,0,10,,,,,,,,8,,,65,96
250560,note_on,128,0,1,,,,,,,,0,,,84,64
250560,note_on,138,0,3,,,,,,,,2,,,77,64
250560,note_on,154,0,12,,,,,,,,11,,,41,64
250560,note_on,28,0,8,,,,,,,,4,,,86,0
250560,note_on,0,0,8,,,,,,,,4,,,84,96
250560,note_on,0,0,8,,,,,,,,4,,,81,96
250560,note_on,0,0,2,,,,,,,,1,,,81,64
250560,note_on,138,0,2,,,,,,,,1,,,69,64
250656,note_on,96,0,7,,,,,,,,7,,,48,0
250656,note_on,96,0,8,,,,,,,,4,,,81,0
250680,note_on,0,0,8,,,,,,,,4,,,81,96
250680,note_on,120,0,11,,,,,,,,10,,,52,96
250680,note_on,24,0,8,,,,,,,,4,,,84,0
250680,note_on,0,0,8,,,,,,,,4,,,84,96
250680,note_on,120,0,12,,,,,,,,11,,,40,64
250680,note_on,120,0,3,,,,,,,,2,,,76,64
250680,note_on,0,0,3,,,,,,,,2,,,64,64
250680,note_on,120,0,10,,,,,,,,8,,,64,96
250690,note_on,10,0,3,,,,,,,,2,,,65,0
250704,note_on,24,0,12,,,,,,,,11,,,41,0
250704,note_on,24,0,11,,,,,,,,10,,,53,0
250714,note_on,24,0,3,,,,,,,,2,,,77,0
250726,note_on,46,0,10,,,,,,,,8,,,65,0
250756,note_on,196,0,2,,,,,,,,1,,,69,0
250766,note_on,10,0,2,,,,,,,,1,,,81,0
250774,note_on,94,0,8,,,,,,,,4,,,81,0
250800,note_on,96,0,11,,,,,,,,10,,,53,96
250800,note_on,96,0,12,,,,,,,,11,,,41,64
250800,note_on,86,0,3,,,,,,,,2,,,65,64
250800,note_on,26,0,8,,,,,,,,4,,,84,0
250800,note_on,0,0,8,,,,,,,,4,,,84,96
250800,note_on,0,0,8,,,,,,,,4,,,81,96
250800,note_on,0,0,3,,,,,,,,2,,,77,64
250800,note_on,74,0,10,,,,,,,,8,,,65,96
250810,note_on,10,0,3,,,,,,,,2,,,64,0
250834,note_on,24,0,3,,,,,,,,2,,,76,0
250860,note_on,300,0,4,,,,,,,,3,,,57,0
250862,note_on,62,0,10,,,,,,,,8,,,64,0
250866,note_on,66,0,12,,,,,,,,11,,,40,0
250866,note_on,66,0,11,,,,,,,,10,,,52,0
250872,note_on,12,0,4,,,,,,,,3,,,60,0
250884,note_on,324,0,1,,,,,,,,0,,,93,0
250886,note_on,86,0,8,,,,,,,,4,,,81,0
250920,note_on,54,0,11,,,,,,,,10,,,52,96
250920,note_on,54,0,12,,,,,,,,11,,,40,64
250920,note_on,58,0,10,,,,,,,,8,,,64,96
250920,note_on,0,0,3,,,,,,,,2,,,64,64
250920,note_on,86,0,3,,,,,,,,2,,,76,64
250920,note_on,34,0,8,,,,,,,,4,,,84,0
250920,note_on,0,0,8,,,,,,,,4,,,84,96
250920,note_on,0,0,8,,,,,,,,4,,,81,96
250924,note_on,4,0,3,,,,,,,,2,,,65,0
250932,note_on,8,0,3,,,,,,,,2,,,77,0
250964,note_on,44,0,12,,,,,,,,11,,,41,0
250964,note_on,44,0,11,,,,,,,,10,,,53,0
250966,note_on,46,0,10,,,,,,,,8,,,65,0
250970,note_on,86,0,1,,,,,,,,0,,,84,0
251004,note_on,84,0,8,,,,,,,,4,,,81,0
251040,note_on,36,0,8,,,,,,,,4,,,84,0
251040,note_on,0,0,8,,,,,,,,4,,,86,96
251040,note_on,0,0,8,,,,,,,,4,,,89,96
251040,note_on,1248,0,6,,,,,,,,6,,,77,64
251040,note_on,0,0,6,,,,,,,,6,,,74,64
251040,note_on,70,0,1,,,,,,,,0,,,86,64
251040,note_on,0,0,1,,,,,,,,0,,,89,64
251040,note_on,384,0,7,,,,,,,,7,,,48,64
251040,note_on,0,0,3,,,,,,,,2,,,77,64
251040,note_on,74,0,10,,,,,,,,8,,,65,96
251040,note_on,0,0,5,,,,,,,,5,,,65,64
251040,note_on,76,0,12,,,,,,,,11,,,41,64
251040,note_on,108,0,3,,,,,,,,2,,,65,64
251040,note_on,168,0,4,,,,,,,,3,,,53,64
251040,note_on,76,0,11,,,,,,,,10,,,53,96
251040,note_on,1214,0,5,,,,,,,,5,,,62,64
251046,note_on,6,0,3,,,,,,,,2,,,64,0
251066,note_on,20,0,3,,,,,,,,2,,,76,0
251094,note_on,54,0,11,,,,,,,,10,,,52,0
251094,note_on,54,0,12,,,,,,,,11,,,40,0
251104,note_on,64,0,10,,,,,,,,8,,,64,0
251122,note_on,82,0,7,,,,,,,,7,,,48,0
251130,note_on,90,0,8,,,,,,,,4,,,86,0
251160,note_on,66,0,11,,,,,,,,10,,,50,96
251160,note_on,94,0,3,,,,,,,,2,,,62,64
251160,note_on,56,0,10,,,,,,,,8,,,62,96
251160,note_on,0,0,3,,,,,,,,2,,,74,64
251160,note_on,0,0,8,,,,,,,,4,,,89,96
251160,note_on,120,0,4,,,,,,,,3,,,53,0
251160,note_on,66,0,12,,,,,,,,11,,,38,64
251160,note_on,0,0,8,,,,,,,,4,,,86,96
251160,note_on,0,0,4,,,,,,,,3,,,50,64
251160,note_on,30,0,8,,,,,,,,4,,,89,0
251174,note_on,14,0,3,,,,,,,,2,,,77,0
251194,note_on,34,0,11,,,,,,,,10,,,53,0
251194,note_on,34,0,12,,,,,,,,11,,,41,0
251196,note_on,22,0,3,,,,,,,,2,,,65,0
251212,note_on,52,0,10,,,,,,,,8,,,65,0
251246,note_on,86,0,8,,,,,,,,4,,,86,0
251280,note_on,86,0,11,,,,,,,,10,,,52,96
251280,note_on,84,0,3,,,,,,,,2,,,64,64
251280,note_on,0,0,3,,,,,,,,2,,,76,64
251280,note_on,34,0,8,,,,,,,,4,,,89,0
251280,note_on,68,0,10,,,,,,,,8,,,64,96
251280,note_on,0,0,8,,,,,,,,4,,,86,96
251280,note_on,120,0,4,,,,,,,,3,,,52,64
251280,note_on,0,0,8,,,,,,,,4,,,89,96
251280,note_on,86,0,12,,,,,,,,11,,,40,64
251300,note_on,20,0,3,,,,,,,,2,,,62,0
251306,note_on,26,0,4,,,,,,,,3,,,50,0
251310,note_on,10,0,3,,,,,,,,2,,,74,0
251324,note_on,284,0,1,,,,,,,,0,,,89,0
251342,note_on,62,0,10,,,,,,,,8,,,62,0
251344,note_on,64,0,12,,,,,,,,11,,,38,0
251344,note_on,64,0,11,,,,,,,,10,,,50,0
251364,note_on,84,0,8,,,,,,,,4,,,86,0
251400,note_on,94,0,4,,,,,,,,3,,,53,64
251400,note_on,36,0,8,,,,,,,,4,,,89,0
251400,note_on,0,0,8,,,,,,,,4,,,89,96
251400,note_on,0,0,8,,,,,,,,4,,,86,96
251400,note_on,56,0,12,,,,,,,,11,,,41,64
251400,note_on,0,0,3,,,,,,,,2,,,65,64
251400,note_on,90,0,3,,,,,,,,2,,,77,64
251400,note_on,58,0,10,,,,,,,,8,,,65,96
251400,note_on,56,0,11,,,,,,,,10,,,53,96
251404,note_on,80,0,1,,,,,,,,0,,,86,0
251420,note_on,20,0,3,,,,,,,,2,,,64,0
251432,note_on,32,0,4,,,,,,,,3,,,52,0
251436,note_on,16,0,3,,,,,,,,2,,,76,0
251460,note_on,60,0,11,,,,,,,,10,,,52,0
251460,note_on,60,0,12,,,,,,,,11,,,40,0
251474,note_on,434,0,5,,,,,,,,5,,,65,0
251474,note_on,434,0,6,,,,,,,,6,,,77,0
251480,note_on,6,0,5,,,,,,,,5,,,62,0
251480,note_on,6,0,6,,,,,,,,6,,,74,0
251480,note_on,44,0,3,,,,,,,,2,,,65,0
251486,note_on,86,0,10,,,,,,,,8,,,64,0
251486,note_on,86,0,8,,,,,,,,4,,,86,0
251520,note_on,0,0,5,,,,,,,,5,,,60,64
251520,note_on,40,0,6,,,,,,,,6,,,76,64
251520,note_on,0,0,6,,,,,,,,6,,,72,64
251520,note_on,34,0,10,,,,,,,,8,,,67,96
251520,note_on,60,0,11,,,,,,,,10,,,55,96
251520,note_on,116,0,1,,,,,,,,0,,,88,64
251520,note_on,34,0,8,,,,,,,,4,,,89,0
251520,note_on,0,0,8,,,,,,,,4,,,88,96
251520,note_on,0,0,8,,,,,,,,4,,,84,96
251520,note_on,0,0,1,,,,,,,,0,,,84,64
251520,note_on,398,0,7,,,,,,,,7,,,43,64
251520,note_on,60,0,12,,,,,,,,11,,,43,64
251520,note_on,40,0,5,,,,,,,,5,,,64,64
251520,note_on,40,0,3,,,,,,,,2,,,67,64
251520,note_on,0,0,3,,,,,,,,2,,,79,64
251520,note_on,88,0,4,,,,,,,,3,,,55,64
251536,note_on,16,0,3,,,,,,,,2,,,77,0
251540,note_on,20,0,4,,,,,,,,3,,,53,0
251550,note_on,30,0,11,,,,,,,,10,,,53,0
251550,note_on,30,0,12,,,,,,,,11,,,41,0
251576,note_on,56,0,10,,,,,,,,8,,,65,0
251610,note_on,90,0,8,,,,,,,,4,,,84,0
251622,note_on,102,0,7,,,,,,,,7,,,43,0
251632,note_on,96,0,3,,,,,,,,2,,,67,0
251640,note_on,64,0,10,,,,,,,,8,,,66,96
251640,note_on,100,0,4,,,,,,,,3,,,54,64
251640,note_on,0,0,8,,,,,,,,4,,,88,96
251640,note_on,0,0,8,,,,,,,,4,,,84,96
251640,note_on,30,0,8,,,,,,,,4,,,88,0
251640,note_on,18,0,7,,,,,,,,7,,,43,64
251640,note_on,90,0,12,,,,,,,,11,,,42,64
251640,note_on,0,0,3,,,,,,,,2,,,78,64
251640,note_on,8,0,3,,,,,,,,2,,,66,64
251640,note_on,90,0,11,,,,,,,,10,,,54,96
251666,note_on,26,0,3,,,,,,,,2,,,79,0
251670,note_on,30,0,4,,,,,,,,3,,,55,0
251696,note_on,56,0,12,,,,,,,,11,,,43,0
251696,note_on,56,0,11,,,,,,,,10,,,55,0
251702,note_on,62,0,10,,,,,,,,8,,,67,0
251716,note_on,76,0,7,,,,,,,,7,,,43,0
251722,note_on,82,0,8,,,,,,,,4,,,84,0
251760,note_on,90,0,4,,,,,,,,3,,,55,64
251760,note_on,94,0,3,,,,,,,,2,,,67,64
251760,note_on,38,0,8,,,,,,,,4,,,88,0
251760,note_on,0,0,8,,,,,,,,4,,,88,96
251760,note_on,58,0,10,,,,,,,,8,,,67,96
251760,note_on,0,0,8,,,,,,,,4,,,84,96
251760,note_on,44,0,7,,,,,,,,7,,,43,64
251760,note_on,64,0,12,,,,,,,,11,,,43,64
251760,note_on,64,0,11,,,,,,,,10,,,55,96
251760,note_on,0,0,3,,,,,,,,2,,,79,64
251762,note_on,2,0,3,,,,,,,,2,,,78,0
251766,note_on,4,0,3,,,,,,,,2,,,66,0
251766,note_on,6,0,4,,,,,,,,3,,,54,0
251806,note_on,46,0,12,,,,,,,,11,,,42,0
251806,note_on,46,0,11,,,,,,,,10,,,54,0
251824,note_on,64,0,10,,,,,,,,8,,,66,0
251840,note_on,80,0,7,,,,,,,,7,,,43,0
251842,note_on,82,0,8,,,,,,,,4,,,84,0
251852,note_on,332,0,1,,,,,,,,0,,,88,0
251870,note_on,104,0,3,,,,,,,,2,,,67,0
251880,note_on,40,0,7,,,,,,,,7,,,43,64
251880,note_on,74,0,11,,,,,,,,10,,,54,96
251880,note_on,56,0,10,,,,,,,,8,,,66,96
251880,note_on,0,0,8,,,,,,,,4,,,84,96
251880,note_on,0,0,8,,,,,,,,4,,,88,96
251880,note_on,38,0,8,,,,,,,,4,,,88,0
251880,note_on,10,0,3,,,,,,,,2,,,78,64
251880,note_on,0,0,3,,,,,,,,2,,,66,64
251880,note_on,114,0,4,,,,,,,,3,,,54,64
251880,note_on,74,0,12,,,,,,,,11,,,42,64
251896,note_on,44,0,1,,,,,,,,0,,,84,0
251904,note_on,24,0,4,,,,,,,,3,,,55,0
251912,note_on,32,0,11,,,,,,,,10,,,55,0
251912,note_on,32,0,12,,,,,,,,11,,,43,0
251912,note_on,32,0,3,,,,,,,,2,,,79,0
251924,note_on,404,0,5,,,,,,,,5,,,64,0
251924,note_on,404,0,6,,,,,,,,6,,,76,0
251924,note_on,44,0,10,,,,,,,,8,,,67,0
251930,note_on,6,0,6,,,,,,,,6,,,72,0
251930,note_on,6,0,5,,,,,,,,5,,,60,0
251936,note_on,32,0,4,,,,,,,,3,,,54,0
251956,note_on,76,0,7,,,,,,,,7,,,43,0
251962,note_on,82,0,8,,,,,,,,4,,,84,0
252000,note_on,38,0,8,,,,,,,,4,,,88,0
252000,note_on,88,0,12,,,,,,,,11,,,43,64
252000,note_on,0,0,5,,,,,,,,5,,,55,64
252000,note_on,70,0,5,,,,,,,,5,,,62,64
252000,note_on,0,0,8,,,,,,,,4,,,86,96
252000,note_on,104,0,1,,,,,,,,0,,,86,64
252000,note_on,0,0,1,,,,,,,,0,,,83,64
252000,note_on,44,0,7,,,,,,,,7,,,43,64
252000,note_on,76,0,10,,,,,,,,8,,,67,96
252000,note_on,0,0,6,,,,,,,,6,,,74,64
252000,note_on,88,0,11,,,,,,,,10,,,55,96
252000,note_on,70,0,6,,,,,,,,6,,,67,64
252000,note_on,64,0,4,,,,,,,,3,,,55,64
252000,note_on,88,0,3,,,,,,,,2,,,79,64
252000,note_on,0,0,3,,,,,,,,2,,,67,64
252000,note_on,0,0,8,,,,,,,,4,,,83,96
252020,note_on,20,0,3,,,,,,,,2,,,66,0
252034,note_on,14,0,3,,,,,,,,2,,,78,0
252054,note_on,54,0,10,,,,,,,,8,,,66,0
252054,note_on,54,0,11,,,,,,,,10,,,54,0
252054,note_on,54,0,12,,,,,,,,11,,,42,0
252084,note_on,84,0,8,,,,,,,,4,,,83,0
252094,note_on,60,0,3,,,,,,,,2,,,79,0
252096,note_on,96,0,7,,,,,,,,7,,,43,0
252114,note_on,60,0,11,,,,,,,,10,,,55,0
252114,note_on,60,0,12,,,,,,,,11,,,43,0
252116,note_on,22,0,3,,,,,,,,2,,,67,0
252120,note_on,36,0,8,,,,,,,,4,,,86,0
252120,note_on,24,0,7,,,,,,,,7,,,43,64
252120,note_on,0,0,8,,,,,,,,4,,,86,96
252120,note_on,0,0,8,,,,,,,,4,,,83,96
252130,note_on,130,0,4,,,,,,,,3,,,55,0
252142,note_on,88,0,10,,,,,,,,8,,,67,0
252200,note_on,80,0,8,,,,,,,,4,,,83,0
252210,note_on,90,0,7,,,,,,,,7,,,43,0
252240,note_on,0,0,3,,,,,,,,2,,,67,64
252240,note_on,124,0,3,,,,,,,,2,,,55,64
252240,note_on,110,0,4,,,,,,,,3,,,43,64
252240,note_on,30,0,7,,,,,,,,7,,,43,64
252240,note_on,126,0,11,,,,,,,,10,,,43,96
252240,note_on,98,0,10,,,,,,,,8,,,55,96
252240,note_on,40,0,8,,,,,,,,4,,,86,0
252240,note_on,0,0,8,,,,,,,,4,,,86,96
252240,note_on,126,0,12,,,,,,,,11,,,31,64
252240,note_on,0,0,8,,,,,,,,4,,,83,96
252320,note_on,80,0,10,,,,,,,,8,,,55,0
252322,note_on,322,0,1,,,,,,,,0,,,86,0
252326,note_on,86,0,8,,,,,,,,4,,,83,0
252330,note_on,0,0,5,,,,,,,,5,,,62,0
252330,note_on,0,0,6,,,,,,,,6,,,67,0
252330,note_on,330,0,6,,,,,,,,6,,,74,0
252330,note_on,330,0,5,,,,,,,,5,,,55,0
252332,note_on,92,0,4,,,,,,,,3,,,43,0
252334,note_on,94,0,7,,,,,,,,7,,,43,0
252340,note_on,100,0,3,,,,,,,,2,,,55,0
252350,note_on,110,0,12,,,,,,,,11,,,31,0
252350,note_on,110,0,11,,,,,,,,10,,,43,0
252352,note_on,12,0,3,,,,,,,,2,,,67,0
252360,note_on,0,0,8,,,,,,,,4,,,83,96
252360,note_on,26,0,7,,,,,,,,7,,,43,64
252360,note_on,0,0,8,,,,,,,,4,,,86,96
252360,note_on,34,0,8,,,,,,,,4,,,86,0
252376,note_on,54,0,1,,,,,,,,0,,,83,0
252434,note_on,74,0,7,,,,,,,,7,,,43,0
252442,note_on,82,0,8,,,,,,,,4,,,83,0
252480,note_on,0,0,8,,,,,,,,4,,,84,125
252480,note_on,38,0,8,,,,,,,,4,,,86,0
252480,note_on,46,0,7,,,,,,,,7,,,48,64
252480,control_change,0,0,8,,,,,,,,4,7,80,,
252480,note_on,160,0,10,,,,,,,,8,,,60,96
252480,note_on,128,0,3,,,,,,,,2,,,72,64
252480,note_on,0,0,3,,,,,,,,2,,,60,64
252480,note_on,148,0,4,,,,,,,,3,,,48,64
252480,note_on,104,0,1,,,,,,,,0,,,84,64
252480,note_on,130,0,12,,,,,,,,11,,,36,64
252480,note_on,0,0,5,,,,,,,,5,,,52,64
252480,note_on,150,0,5,,,,,,,,5,,,60,64
252480,note_on,130,0,11,,,,,,,,10,,,48,96
252480,note_on,150,0,6,,,,,,,,6,,,60,64
252480,note_on,0,0,6,,,,,,,,6,,,72,64
252534,note_on,54,0,5,,,,,,,,5,,,52,0
252536,note_on,2,0,5,,,,,,,,5,,,60,0
252550,note_on,70,0,3,,,,,,,,2,,,72,0
252550,note_on,70,0,4,,,,,,,,3,,,48,0
252552,note_on,72,0,10,,,,,,,,8,,,60,0
252556,note_on,76,0,1,,,,,,,,0,,,84,0
252564,note_on,0,0,6,,,,,,,,6,,,60,0
252564,note_on,84,0,6,,,,,,,,6,,,72,0
252564,note_on,84,0,7,,,,,,,,7,,,48,0
252570,note_on,20,0,3,,,,,,,,2,,,60,0
252580,note_on,100,0,12,,,,,,,,11,,,36,0
252580,note_on,100,0,11,,,,,,,,10,,,48,0
252600,note_on,120,0,8,,,,,,,,4,,,84,0
252720,note_on,120,0,8,,,,,,,,4,,,55,67
252720,note_on,170,0,4,,,,,,,,3,,,67,64
252720,note_on,168,0,10,,,,,,,,8,,,52,67
252720,note_on,1954,0,2,,,,,,,,1,,,79,64
253052,note_on,332,0,8,,,,,,,,4,,,55,0
253070,note_on,350,0,4,,,,,,,,3,,,67,0
253080,note_on,360,0,2,,,,,,,,1,,,79,0
253200,note_on,130,0,4,,,,,,,,3,,,67,64
253200,note_on,480,0,10,,,,,,,,8,,,52,67
253200,note_on,120,0,2,,,,,,,,1,,,79,64
253200,note_on,148,0,8,,,,,,,,4,,,55,67
253260,note_on,60,0,4,,,,,,,,3,,,67,0
253262,note_on,62,0,2,,,,,,,,1,,,79,0
253440,note_on,178,0,2,,,,,,,,1,,,77,64
253440,note_on,180,0,4,,,,,,,,3,,,65,64
253490,note_on,50,0,2,,,,,,,,1,,,77,0
253510,note_on,70,0,4,,,,,,,,3,,,65,0
253514,note_on,314,0,10,,,,,,,,8,,,52,0
253566,note_on,366,0,8,,,,,,,,4,,,55,0
253680,note_on,170,0,4,,,,,,,,3,,,64,64
253680,note_on,166,0,10,,,,,,,,8,,,52,67
253680,note_on,114,0,8,,,,,,,,4,,,55,67
253680,note_on,190,0,2,,,,,,,,1,,,76,64
253724,note_on,44,0,2,,,,,,,,1,,,76,0
253744,note_on,64,0,4,,,,,,,,3,,,64,0
253746,note_on,66,0,8,,,,,,,,4,,,55,0
253760,note_on,80,0,10,,,,,,,,8,,,52,0
253920,note_on,160,0,10,,,,,,,,8,,,52,67
253920,note_on,196,0,2,,,,,,,,1,,,74,64
253920,note_on,174,0,8,,,,,,,,4,,,55,67
253920,note_on,176,0,4,,,,,,,,3,,,62,64
253966,note_on,46,0,2,,,,,,,,1,,,74,0
253984,note_on,64,0,8,,,,,,,,4,,,55,0
253992,note_on,72,0,4,,,,,,,,3,,,62,0
253994,note_on,74,0,10,,,,,,,,8,,,52,0
254160,note_on,166,0,10,,,,,,,,8,,,52,67
254160,note_on,168,0,4,,,,,,,,3,,,60,64
254160,note_on,176,0,8,,,,,,,,4,,,55,67
254160,note_on,194,0,2,,,,,,,,1,,,72,64
254204,note_on,44,0,2,,,,,,,,1,,,72,0
254220,note_on,60,0,4,,,,,,,,3,,,60,0
254230,note_on,70,0,8,,,,,,,,4,,,55,0
254240,note_on,80,0,10,,,,,,,,8,,,52,0
254400,note_on,160,0,10,,,,,,,,8,,,53,67
254400,note_on,1820,0,12,,,,,,,,11,,,43,45
254400,note_on,170,0,8,,,,,,,,4,,,55,67
254400,note_on,0,0,8,,,,,,,,4,,,71,67
254400,note_on,1820,0,11,,,,,,,,10,,,55,67
254400,note_on,180,0,4,,,,,,,,3,,,59,64
254400,note_on,196,0,2,,,,,,,,1,,,71,64
254450,note_on,50,0,2,,,,,,,,1,,,71,0
254464,note_on,64,0,8,,,,,,,,4,,,55,0
254472,note_on,72,0,11,,,,,,,,10,,,55,0
254472,note_on,72,0,12,,,,,,,,11,,,43,0
254472,note_on,72,0,10,,,,,,,,8,,,53,0
254482,note_on,18,0,8,,,,,,,,4,,,71,0
254492,note_on,92,0,4,,,,,,,,3,,,59,0
254640,note_on,168,0,12,,,,,,,,11,,,44,64
254640,note_on,0,0,8,,,,,,,,4,,,80,96
254640,note_on,168,0,10,,,,,,,,8,,,56,96
254640,note_on,158,0,8,,,,,,,,4,,,68,96
254640,note_on,168,0,11,,,,,,,,10,,,56,96
254976,note_on,336,0,12,,,,,,,,11,,,44,0
254976,note_on,336,0,11,,,,,,,,10,,,56,0
255000,note_on,360,0,8,,,,,,,,4,,,68,0
255000,note_on,360,0,10,,,,,,,,8,,,56,0
255022,note_on,22,0,8,,,,,,,,4,,,80,0
255120,note_on,144,0,12,,,,,,,,11,,,44,64
255120,note_on,0,0,8,,,,,,,,4,,,80,96
255120,note_on,98,0,8,,,,,,,,4,,,68,96
255120,note_on,120,0,10,,,,,,,,8,,,56,96
255120,note_on,144,0,11,,,,,,,,10,,,56,96
255182,note_on,62,0,8,,,,,,,,4,,,68,0
255194,note_on,74,0,11,,,,,,,,10,,,56,0
255194,note_on,74,0,12,,,,,,,,11,,,44,0
255196,note_on,14,0,8,,,,,,,,4,,,80,0
255200,note_on,80,0,10,,,,,,,,8,,,56,0
255360,note_on,166,0,12,,,,,,,,11,,,43,64
255360,note_on,166,0,11,,,,,,,,10,,,55,96
255360,note_on,164,0,8,,,,,,,,4,,,79,96
255360,note_on,0,0,8,,,,,,,,4,,,67,96
255360,note_on,2804,0,1,,,,,,,,0,,,83,80
255360,note_on,160,0,10,,,,,,,,8,,,55,96
255422,note_on,62,0,8,,,,,,,,4,,,67,0
255432,note_on,72,0,10,,,,,,,,8,,,55,0
255432,note_on,72,0,12,,,,,,,,11,,,43,0
255432,note_on,72,0,11,,,,,,,,10,,,55,0
255432,note_on,10,0,8,,,,,,,,4,,,79,0
255440,note_on,80,0,1,,,,,,,,0,,,83,0
255440,note_on,0,0,1,,,,,,,,0,,,84,80
255520,note_on,80,0,1,,,,,,,,0,,,84,0
255520,note_on,0,0,1,,,,,,,,0,,,83,80
255600,note_on,168,0,10,,,,,,,,8,,,53,96
255600,note_on,168,0,11,,,,,,,,10,,,53,96
255600,note_on,168,0,12,,,,,,,,11,,,41,64
255600,note_on,80,0,1,,,,,,,,0,,,83,0
255600,note_on,0,0,1,,,,,,,,0,,,84,80
255600,note_on,168,0,8,,,,,,,,4,,,77,96
255600,note_on,0,0,8,,,,,,,,4,,,65,96
255666,note_on,66,0,8,,,,,,,,4,,,65,0
255670,note_on,70,0,10,,,,,,,,8,,,53,0
255672,note_on,72,0,12,,,,,,,,11,,,41,0
255672,note_on,72,0,11,,,,,,,,10,,,53,0
255672,note_on,6,0,8,,,,,,,,4,,,77,0
255680,note_on,80,0,1,,,,,,,,0,,,84,0
255680,note_on,0,0,1,,,,,,,,0,,,83,80
255760,note_on,80,0,1,,,,,,,,0,,,83,0
255760,note_on,0,0,1,,,,,,,,0,,,84,80
255840,note_on,168,0,12,,,,,,,,11,,,40,64
255840,note_on,168,0,11,,,,,,,,10,,,52,96
255840,note_on,168,0,8,,,,,,,,4,,,64,96
255840,note_on,80,0,1,,,,,,,,0,,,84,0
255840,note_on,0,0,8,,,,,,,,4,,,76,96
255840,note_on,0,0,1,,,,,,,,0,,,83,80
255840,note_on,170,0,10,,,,,,,,8,,,52,96
255904,note_on,64,0,8,,,,,,,,4,,,64,0
255906,note_on,2,0,8,,,,,,,,4,,,76,0
255912,note_on,72,0,10,,,,,,,,8,,,52,0
255916,note_on,76,0,11,,,,,,,,10,,,52,0
255916,note_on,76,0,12,,,,,,,,11,,,40,0
255920,note_on,80,0,1,,,,,,,,0,,,83,0
255920,note_on,0,0,1,,,,,,,,0,,,84,80
256000,note_on,0,0,1,,,,,,,,0,,,83,80
256000,note_on,80,0,1,,,,,,,,0,,,84,0
256080,note_on,164,0,12,,,,,,,,11,,,38,64
256080,note_on,0,0,8,,,,,,,,4,,,74,96
256080,note_on,174,0,8,,,,,,,,4,,,62,96
256080,note_on,168,0,10,,,,,,,,8,,,50,96
256080,note_on,164,0,11,,,,,,,,10,,,50,96
256080,note_on,80,0,1,,,,,,,,0,,,83,0
256080,note_on,0,0,1,,,,,,,,0,,,84,80
256144,note_on,64,0,8,,,,,,,,4,,,62,0
256152,note_on,72,0,10,,,,,,,,8,,,50,0
256152,note_on,8,0,8,,,,,,,,4,,,74,0
256160,note_on,0,0,1,,,,,,,,0,,,81,80
256160,note_on,80,0,1,,,,,,,,0,,,84,0
256162,note_on,82,0,11,,,,,,,,10,,,50,0
256162,note_on,82,0,12,,,,,,,,11,,,38,0
256240,note_on,80,0,1,,,,,,,,0,,,81,0
256240,note_on,0,0,1,,,,,,,,0,,,83,80
256320,note_on,0,0,8,,,,,,,,4,,,72,96
256320,note_on,168,0,10,,,,,,,,8,,,48,96
256320,note_on,158,0,11,,,,,,,,10,,,48,96
256320,note_on,158,0,12,,,,,,,,11,,,36,64
256320,note_on,168,0,8,,,,,,,,4,,,60,96
256320,note_on,80,0,1,,,,,,,,0,,,83,0
256320,note_on,0,0,1,,,,,,,,0,,,83,64
256320,note_on,0,0,1,,,,,,,,0,,,84,64
256322,note_on,2,0,1,,,,,,,,0,,,83,0
256386,note_on,66,0,8,,,,,,,,4,,,60,0
256386,note_on,66,0,10,,,,,,,,8,,,48,0
256390,note_on,4,0,8,,,,,,,,4,,,72,0
256394,note_on,72,0,1,,,,,,,,0,,,84,0
256406,note_on,86,0,11,,,,,,,,10,,,48,0
256406,note_on,86,0,12,,,,,,,,11,,,36,0
256560,note_on,2110,0,2,,,,,,,,1,,,79,64
256560,note_on,170,0,8,,,,,,,,4,,,55,67
256560,note_on,2068,0,4,,,,,,,,3,,,67,64
256560,note_on,174,0,10,,,,,,,,8,,,52,67
256844,note_on,284,0,10,,,,,,,,8,,,52,0
256856,note_on,296,0,8,,,,,,,,4,,,55,0
256926,note_on,366,0,4,,,,,,,,3,,,67,0
256944,note_on,384,0,2,,,,,,,,1,,,79,0
257040,note_on,114,0,4,,,,,,,,3,,,67,64
257040,note_on,96,0,2,,,,,,,,1,,,79,64
257040,note_on,184,0,8,,,,,,,,4,,,55,67
257040,note_on,196,0,10,,,,,,,,8,,,52,67
257096,note_on,56,0,2,,,,,,,,1,,,79,0
257104,note_on,64,0,4,,,,,,,,3,,,67,0
257280,note_on,176,0,4,,,,,,,,3,,,65,64
257280,note_on,184,0,2,,,,,,,,1,,,77,64
257340,note_on,60,0,4,,,,,,,,3,,,65,0
257346,note_on,66,0,2,,,,,,,,1,,,77,0
257380,note_on,340,0,8,,,,,,,,4,,,55,0
257412,note_on,372,0,10,,,,,,,,8,,,52,0
257520,note_on,140,0,8,,,,,,,,4,,,55,67
257520,note_on,180,0,4,,,,,,,,3,,,64,64
257520,note_on,174,0,2,,,,,,,,1,,,76,64
257520,note_on,108,0,10,,,,,,,,8,,,52,67
257574,note_on,54,0,2,,,,,,,,1,,,76,0
257576,note_on,56,0,4,,,,,,,,3,,,64,0
257586,note_on,66,0,8,,,,,,,,4,,,55,0
257594,note_on,74,0,10,,,,,,,,8,,,52,0
257760,note_on,174,0,8,,,,,,,,4,,,55,67
257760,note_on,184,0,4,,,,,,,,3,,,62,64
257760,note_on,166,0,10,,,,,,,,8,,,52,67
257760,note_on,186,0,2,,,,,,,,1,,,74,64
257816,note_on,56,0,2,,,,,,,,1,,,74,0
257816,note_on,56,0,4,,,,,,,,3,,,62,0
257826,note_on,66,0,8,,,,,,,,4,,,55,0
257830,note_on,70,0,10,,,,,,,,8,,,52,0
258000,note_on,170,0,10,,,,,,,,8,,,52,67
258000,note_on,184,0,4,,,,,,,,3,,,60,64
258000,note_on,174,0,8,,,,,,,,4,,,55,67
258000,note_on,184,0,2,,,,,,,,1,,,72,64
258056,note_on,56,0,2,,,,,,,,1,,,72,0
258060,note_on,60,0,4,,,,,,,,3,,,60,0
258064,note_on,64,0,8,,,,,,,,4,,,55,0
258066,note_on,66,0,10,,,,,,,,8,,,52,0
258240,note_on,174,0,10,,,,,,,,8,,,53,67
258240,note_on,176,0,8,,,,,,,,4,,,55,67
258240,note_on,0,0,8,,,,,,,,4,,,71,67
258240,note_on,184,0,2,,,,,,,,1,,,71,64
258240,note_on,1834,0,11,,,,,,,,10,,,55,67
258240,note_on,180,0,4,,,,,,,,3,,,59,64
258240,note_on,1834,0,12,,,,,,,,11,,,43,45
258292,note_on,52,0,2,,,,,,,,1,,,71,0
258300,note_on,60,0,4,,,,,,,,3,,,59,0
258306,note_on,66,0,8,,,,,,,,4,,,55,0
258312,note_on,72,0,12,,,,,,,,11,,,43,0
258312,note_on,72,0,11,,,,,,,,10,,,55,0
258312,note_on,72,0,10,,,,,,,,8,,,53,0
258314,note_on,8,0,8,,,,,,,,4,,,71,0
258480,note_on,166,0,8,,,,,,,,4,,,68,96
258480,note_on,168,0,12,,,,,,,,11,,,44,64
258480,note_on,0,0,8,,,,,,,,4,,,80,96
258480,note_on,168,0,10,,,,,,,,8,,,56,96
258480,note_on,168,0,11,,,,,,,,10,,,56,96
258824,note_on,344,0,12,,,,,,,,11,,,44,0
258824,note_on,344,0,11,,,,,,,,10,,,56,0
258830,note_on,350,0,10,,,,,,,,8,,,56,0
258846,note_on,366,0,8,,,,,,,,4,,,68,0
258892,note_on,46,0,8,,,,,,,,4,,,80,0
258960,note_on,136,0,11,,,,,,,,10,,,56,96
258960,note_on,130,0,10,,,,,,,,8,,,56,96
258960,note_on,136,0,12,,,,,,,,11,,,44,64
258960,note_on,0,0,8,,,,,,,,4,,,80,96
258960,note_on,68,0,8,,,,,,,,4,,,68,96
259026,note_on,66,0,8,,,,,,,,4,,,68,0
259036,note_on,76,0,10,,,,,,,,8,,,56,0
259042,note_on,82,0,12,,,,,,,,11,,,44,0
259042,note_on,82,0,11,,,,,,,,10,,,56,0
259044,note_on,18,0,8,,,,,,,,4,,,80,0
259200,note_on,164,0,10,,,,,,,,8,,,55,96
259200,note_on,156,0,8,,,,,,,,4,,,67,96
259200,note_on,0,0,8,,,,,,,,4,,,79,96
259200,note_on,158,0,11,,,,,,,,10,,,55,96
259200,note_on,158,0,12,,,,,,,,11,,,43,64
259272,note_on,72,0,8,,,,,,,,4,,,67,0
259272,note_on,72,0,10,,,,,,,,8,,,55,0
259274,note_on,2,0,8,,,,,,,,4,,,79,0
259280,note_on,80,0,12,,,,,,,,11,,,43,0
259280,note_on,80,0,11,,,,,,,,10,,,55,0
259440,note_on,166,0,8,,,,,,,,4,,,65,96
259440,note_on,160,0,12,,,,,,,,11,,,41,64
259440,note_on,168,0,10,,,,,,,,8,,,53,96
259440,note_on,160,0,11,,,,,,,,10,,,53,96
259440,note_on,0,0,8,,,,,,,,4,,,77,96
259506,note_on,66,0,10,,,,,,,,8,,,53,0
259510,note_on,70,0,8,,,,,,,,4,,,65,0
259512,note_on,72,0,12,,,,,,,,11,,,41,0
259512,note_on,72,0,11,,,,,,,,10,,,53,0
259514,note_on,4,0,8,,,,,,,,4,,,77,0
259680,note_on,174,0,10,,,,,,,,8,,,52,96
259680,note_on,166,0,8,,,,,,,,4,,,64,96
259680,note_on,168,0,11,,,,,,,,10,,,52,96
259680,note_on,0,0,8,,,,,,,,4,,,76,96
259680,note_on,168,0,12,,,,,,,,11,,,40,64
259754,note_on,74,0,8,,,,,,,,4,,,64,0
259760,note_on,80,0,12,,,,,,,,11,,,40,0
259760,note_on,80,0,11,,,,,,,,10,,,52,0
259760,note_on,80,0,10,,,,,,,,8,,,52,0
259760,note_on,6,0,8,,,,,,,,4,,,76,0
259920,note_on,160,0,10,,,,,,,,8,,,50,96
259920,note_on,0,0,8,,,,,,,,4,,,74,96
259920,note_on,160,0,11,,,,,,,,10,,,50,96
259920,note_on,160,0,8,,,,,,,,4,,,62,96
259920,note_on,160,0,12,,,,,,,,11,,,38,64
259994,note_on,0,0,8,,,,,,,,4,,,62,0
259994,note_on,74,0,10,,,,,,,,8,,,50,0
259994,note_on,74,0,8,,,,,,,,4,,,74,0
260002,note_on,82,0,11,,,,,,,,10,,,50,0
260002,note_on,82,0,12,,,,,,,,11,,,38,0
260160,note_on,158,0,11,,,,,,,,10,,,49,96
260160,note_on,158,0,12,,,,,,,,11,,,37,64
260160,note_on,0,0,8,,,,,,,,4,,,73,96
260160,note_on,166,0,8,,,,,,,,4,,,61,96
260160,note_on,166,0,10,,,,,,,,8,,,49,96
260226,note_on,66,0,10,,,,,,,,8,,,49,0
260230,note_on,70,0,8,,,,,,,,4,,,61,0
260234,note_on,74,0,12,,,,,,,,11,,,37,0
260234,note_on,74,0,11,,,,,,,,10,,,49,0
260234,note_on,4,0,8,,,,,,,,4,,,73,0
260400,note_on,166,0,12,,,,,,,,11,,,46,64
260400,note_on,166,0,11,,,,,,,,10,,,58,96
260400,note_on,0,0,8,,,,,,,,4,,,82,96
260400,note_on,166,0,8,,,,,,,,4,,,70,96
260400,note_on,174,0,10,,,,,,,,8,,,58,96
260722,note_on,322,0,10,,,,,,,,8,,,58,0
260790,note_on,390,0,8,,,,,,,,4,,,70,0
260792,note_on,2,0,8,,,,,,,,4,,,82,0
260794,note_on,394,0,12,,,,,,,,11,,,46,0
260794,note_on,394,0,11,,,,,,,,10,,,58,0
260880,note_on,86,0,11,,,,,,,,10,,,58,96
260880,note_on,0,0,8,,,,,,,,4,,,82,96
260880,note_on,88,0,8,,,,,,,,4,,,70,96
260880,note_on,86,0,12,,,,,,,,11,,,46,64
260880,note_on,158,0,10,,,,,,,,8,,,58,96
260952,note_on,72,0,10,,,,,,,,8,,,58,0
260954,note_on,74,0,8,,,,,,,,4,,,70,0
260956,note_on,2,0,8,,,,,,,,4,,,82,0
260956,note_on,76,0,11,,,,,,,,10,,,58,0
260956,note_on,76,0,12,,,,,,,,11,,,46,0
261120,note_on,164,0,11,,,,,,,,10,,,57,96
261120,note_on,168,0,10,,,,,,,,8,,,57,96
261120,note_on,164,0,8,,,,,,,,4,,,69,96
261120,note_on,0,0,8,,,,,,,,4,,,81,96
261120,note_on,164,0,12,,,,,,,,11,,,45,64
261190,note_on,70,0,8,,,,,,,,4,,,69,0
261194,note_on,74,0,11,,,,,,,,10,,,57,0
261194,note_on,74,0,12,,,,,,,,11,,,45,0
261196,note_on,6,0,8,,,,,,,,4,,,81,0
261196,note_on,76,0,10,,,,,,,,8,,,57,0
261360,note_on,166,0,11,,,,,,,,10,,,55,96
261360,note_on,164,0,10,,,,,,,,8,,,55,96
261360,note_on,166,0,12,,,,,,,,11,,,43,64
261360,note_on,164,0,8,,,,,,,,4,,,67,96
261360,note_on,0,0,8,,,,,,,,4,,,79,96
261432,note_on,72,0,8,,,,,,,,4,,,67,0
261434,note_on,74,0,12,,,,,,,,11,,,43,0
261434,note_on,74,0,11,,,,,,,,10,,,55,0
261434,note_on,74,0,10,,,,,,,,8,,,55,0
261442,note_on,10,0,8,,,,,,,,4,,,79,0
261600,note_on,166,0,12,,,,,,,,11,,,41,64
261600,note_on,166,0,11,,,,,,,,10,,,53,96
261600,note_on,166,0,10,,,,,,,,8,,,53,96
261600,note_on,158,0,8,,,,,,,,4,,,65,96
261600,note_on,0,0,8,,,,,,,,4,,,77,96
261672,note_on,72,0,8,,,,,,,,4,,,77,0
261672,note_on,72,0,11,,,,,,,,10,,,53,0
261672,note_on,72,0,12,,,,,,,,11,,,41,0
261672,note_on,0,0,8,,,,,,,,4,,,65,0
261674,note_on,74,0,10,,,,,,,,8,,,53,0
261840,note_on,0,0,8,,,,,,,,4,,,64,96
261840,note_on,168,0,11,,,,,,,,10,,,52,96
261840,note_on,166,0,10,,,,,,,,8,,,53,96
261840,note_on,0,0,10,,,,,,,,8,,,52,96
261840,note_on,168,0,12,,,,,,,,11,,,40,64
261840,note_on,168,0,8,,,,,,,,4,,,76,96
261890,note_on,50,0,10,,,,,,,,8,,,53,0
261910,note_on,70,0,8,,,,,,,,4,,,76,0
261914,note_on,4,0,8,,,,,,,,4,,,64,0
261914,note_on,74,0,11,,,,,,,,10,,,52,0
261914,note_on,24,0,10,,,,,,,,8,,,52,0
261914,note_on,74,0,12,,,,,,,,11,,,40,0
262080,note_on,166,0,11,,,,,,,,10,,,51,96
262080,note_on,0,0,8,,,,,,,,4,,,63,96
262080,note_on,0,0,8,,,,,,,,4,,,75,96
262080,note_on,166,0,10,,,,,,,,8,,,51,96
262080,control_change,166,0,8,,,,,,,,4,7,95,,
262080,note_on,166,0,12,,,,,,,,11,,,39,64
262154,note_on,74,0,11,,,,,,,,10,,,51,0
262154,note_on,74,0,8,,,,,,,,4,,,75,0
262154,note_on,74,0,12,,,,,,,,11,,,39,0
262154,note_on,0,0,8,,,,,,,,4,,,63,0
262156,note_on,76,0,10,,,,,,,,8,,,51,0
262320,note_on,164,0,10,,,,,,,,8,,,60,96
262320,note_on,166,0,8,,,,,,,,4,,,72,96
262320,note_on,4028,0,2,,,,,,,,1,,,72,64
262320,note_on,0,0,8,,,,,,,,4,,,84,96
262320,note_on,166,0,12,,,,,,,,11,,,48,64
262320,note_on,166,0,11,,,,,,,,10,,,60,96
262320,note_on,5926,0,1,,,,,,,,0,,,84,64
262670,note_on,350,0,8,,,,,,,,4,,,72,0
262680,note_on,360,0,10,,,,,,,,8,,,60,0
262692,note_on,372,0,12,,,,,,,,11,,,48,0
262692,note_on,372,0,11,,,,,,,,10,,,60,0
262696,note_on,376,0,1,,,,,,,,0,,,84,0
262696,note_on,376,0,2,,,,,,,,1,,,72,0
262714,note_on,44,0,8,,,,,,,,4,,,84,0
262800,note_on,104,0,2,,,,,,,,1,,,72,64
262800,note_on,104,0,1,,,,,,,,0,,,84,64
262800,note_on,86,0,8,,,,,,,,4,,,72,96
262800,note_on,0,0,8,,,,,,,,4,,,84,96
262800,note_on,108,0,12,,,,,,,,11,,,48,64
262800,note_on,108,0,11,,,,,,,,10,,,60,96
262800,note_on,120,0,10,,,,,,,,8,,,60,96
262862,note_on,62,0,1,,,,,,,,0,,,84,0
262864,note_on,64,0,2,,,,,,,,1,,,72,0
262870,note_on,70,0,8,,,,,,,,4,,,72,0
262874,note_on,74,0,12,,,,,,,,11,,,48,0
262874,note_on,74,0,11,,,,,,,,10,,,60,0
262880,note_on,10,0,8,,,,,,,,4,,,84,0
262886,note_on,86,0,10,,,,,,,,8,,,60,0
263040,control_change,160,0,8,,,,,,,,4,7,100,,
263040,note_on,0,0,8,,,,,,,,4,,,76,96
263040,note_on,166,0,12,,,,,,,,11,,,40,64
263040,note_on,154,0,10,,,,,,,,8,,,52,96
263040,note_on,0,0,8,,,,,,,,4,,,64,96
263040,note_on,166,0,11,,,,,,,,10,,,52,96
263112,note_on,72,0,12,,,,,,,,11,,,40,0
263112,note_on,72,0,11,,,,,,,,10,,,52,0
263114,note_on,74,0,8,,,,,,,,4,,,64,0
263122,note_on,82,0,10,,,,,,,,8,,,52,0
263126,note_on,12,0,8,,,,,,,,4,,,76,0
263280,note_on,158,0,10,,,,,,,,8,,,61,96
263280,note_on,418,0,1,,,,,,,,0,,,85,64
263280,note_on,416,0,2,,,,,,,,1,,,73,64
263280,note_on,4980,0,4,,,,,,,,3,,,61,64
263280,note_on,168,0,12,,,,,,,,11,,,49,64
263280,note_on,168,0,11,,,,,,,,10,,,61,96
263280,note_on,154,0,8,,,,,,,,4,,,73,96
263280,note_on,0,0,8,,,,,,,,4,,,85,96
263620,note_on,340,0,10,,,,,,,,8,,,61,0
263636,note_on,356,0,11,,,,,,,,10,,,61,0
263636,note_on,356,0,12,,,,,,,,11,,,49,0
263640,note_on,360,0,4,,,,,,,,3,,,61,0
263650,note_on,370,0,2,,,,,,,,1,,,73,0
263650,note_on,370,0,8,,,,,,,,4,,,73,0
263652,note_on,2,0,8,,,,,,,,4,,,85,0
263672,note_on,392,0,1,,,,,,,,0,,,85,0
263760,note_on,110,0,2,,,,,,,,1,,,73,64
263760,note_on,120,0,4,,,,,,,,3,,,61,64
263760,note_on,0,0,8,,,,,,,,4,,,73,96
263760,note_on,140,0,10,,,,,,,,8,,,61,96
263760,note_on,108,0,8,,,,,,,,4,,,85,96
263760,note_on,124,0,12,,,,,,,,11,,,49,64
263760,note_on,124,0,11,,,,,,,,10,,,61,96
263760,note_on,88,0,1,,,,,,,,0,,,85,64
263812,note_on,52,0,2,,,,,,,,1,,,73,0
263822,note_on,62,0,1,,,,,,,,0,,,85,0
263826,note_on,66,0,4,,,,,,,,3,,,61,0
263844,note_on,84,0,8,,,,,,,,4,,,85,0
263846,note_on,86,0,10,,,,,,,,8,,,61,0
263852,note_on,8,0,8,,,,,,,,4,,,73,0
263854,note_on,94,0,12,,,,,,,,11,,,49,0
263854,note_on,94,0,11,,,,,,,,10,,,61,0
264000,note_on,146,0,11,,,,,,,,10,,,53,96
264000,note_on,154,0,10,,,,,,,,8,,,53,96
264000,note_on,0,0,8,,,,,,,,4,,,65,96
264000,note_on,0,0,8,,,,,,,,4,,,77,96
264000,control_change,148,0,8,,,,,,,,4,7,105,,
264000,note_on,146,0,12,,,,,,,,11,,,41,64
264050,note_on,50,0,8,,,,,,,,4,,,77,0
264076,note_on,26,0,8,,,,,,,,4,,,65,0
264084,note_on,84,0,10,,,,,,,,8,,,53,0
264090,note_on,90,0,12,,,,,,,,11,,,41,0
264090,note_on,90,0,11,,,,,,,,10,,,53,0
264240,note_on,418,0,1,,,,,,,,0,,,86,64
264240,note_on,150,0,12,,,,,,,,11,,,50,64
264240,note_on,428,0,2,,,,,,,,1,,,74,64
264240,note_on,164,0,8,,,,,,,,4,,,86,96
264240,note_on,414,0,4,,,,,,,,3,,,62,64
264240,note_on,150,0,11,,,,,,,,10,,,62,96
264240,note_on,156,0,10,,,,,,,,8,,,62,96
264240,note_on,0,0,8,,,,,,,,4,,,74,96
264576,note_on,336,0,1,,,,,,,,0,,,86,0
264584,note_on,344,0,11,,,,,,,,10,,,62,0
264584,note_on,344,0,12,,,,,,,,11,,,50,0
264594,note_on,354,0,10,,,,,,,,8,,,62,0
264594,note_on,354,0,8,,,,,,,,4,,,86,0
264600,note_on,360,0,4,,,,,,,,3,,,62,0
264612,note_on,372,0,2,,,,,,,,1,,,74,0
264626,note_on,32,0,8,,,,,,,,4,,,74,0
264720,note_on,136,0,11,,,,,,,,10,,,62,96
264720,note_on,144,0,1,,,,,,,,0,,,86,64
264720,note_on,94,0,8,,,,,,,,4,,,74,96
264720,note_on,120,0,4,,,,,,,,3,,,62,64
264720,note_on,126,0,10,,,,,,,,8,,,62,96
264720,note_on,108,0,2,,,,,,,,1,,,74,64
264720,note_on,136,0,12,,,,,,,,11,,,50,64
264720,note_on,0,0,8,,,,,,,,4,,,86,96
264772,note_on,52,0,2,,,,,,,,1,,,74,0
264786,note_on,66,0,4,,,,,,,,3,,,62,0
264790,note_on,70,0,1,,,,,,,,0,,,86,0
264796,note_on,76,0,10,,,,,,,,8,,,62,0
264800,note_on,80,0,8,,,,,,,,4,,,74,0
264804,note_on,84,0,12,,,,,,,,11,,,50,0
264804,note_on,84,0,11,,,,,,,,10,,,62,0
264804,note_on,4,0,8,,,,,,,,4,,,86,0
264960,note_on,156,0,12,,,,,,,,11,,,42,64
264960,note_on,156,0,11,,,,,,,,10,,,54,96
264960,note_on,0,0,8,,,,,,,,4,,,66,96
264960,control_change,156,0,8,,,,,,,,4,7,110,,
264960,note_on,0,0,8,,,,,,,,4,,,78,96
264960,note_on,164,0,10,,,,,,,,8,,,54,96
265044,note_on,84,0,10,,,,,,,,8,,,54,0
265044,note_on,84,0,8,,,,,,,,4,,,78,0
265044,note_on,0,0,8,,,,,,,,4,,,66,0
265052,note_on,92,0,12,,,,,,,,11,,,42,0
265052,note_on,92,0,11,,,,,,,,10,,,54,0
265200,note_on,428,0,2,,,,,,,,1,,,75,64
265200,note_on,148,0,12,,,,,,,,11,,,51,64
265200,note_on,414,0,4,,,,,,,,3,,,63,64
265200,note_on,0,0,8,,,,,,,,4,,,75,96
265200,note_on,410,0,1,,,,,,,,0,,,87,64
265200,note_on,148,0,11,,,,,,,,10,,,63,96
265200,note_on,156,0,10,,,,,,,,8,,,63,96
265200,note_on,156,0,8,,,,,,,,4,,,87,96
265496,note_on,296,0,10,,,,,,,,8,,,63,0
265514,note_on,314,0,2,,,,,,,,1,,,75,0
265560,note_on,360,0,11,,,,,,,,10,,,63,0
265560,note_on,360,0,12,,,,,,,,11,,,51,0
265564,note_on,364,0,4,,,,,,,,3,,,63,0
265580,note_on,380,0,8,,,,,,,,4,,,87,0
265590,note_on,390,0,1,,,,,,,,0,,,87,0
265592,note_on,12,0,8,,,,,,,,4,,,75,0
265680,note_on,88,0,8,,,,,,,,4,,,75,96
265680,note_on,116,0,4,,,,,,,,3,,,63,64
265680,note_on,120,0,12,,,,,,,,11,,,51,64
265680,note_on,166,0,2,,,,,,,,1,,,75,64
265680,note_on,90,0,1,,,,,,,,0,,,87,64
265680,note_on,184,0,10,,,,,,,,8,,,63,96
265680,note_on,120,0,11,,,,,,,,10,,,63,96
265680,note_on,0,0,8,,,,,,,,4,,,87,96
265744,note_on,64,0,2,,,,,,,,1,,,75,0
265746,note_on,66,0,4,,,,,,,,3,,,63,0
265750,note_on,70,0,1,,,,,,,,0,,,87,0
265756,note_on,76,0,11,,,,,,,,10,,,63,0
265756,note_on,76,0,12,,,,,,,,11,,,51,0
265764,note_on,84,0,10,,,,,,,,8,,,63,0
265764,note_on,84,0,8,,,,,,,,4,,,75,0
265786,note_on,22,0,8,,,,,,,,4,,,87,0
265920,note_on,156,0,10,,,,,,,,8,,,66,96
265920,note_on,164,0,11,,,,,,,,10,,,54,96
265920,note_on,0,0,8,,,,,,,,4,,,87,125
265920,note_on,0,0,8,,,,,,,,4,,,84,125
265920,note_on,0,0,8,,,,,,,,4,,,75,125
265920,control_change,134,0,8,,,,,,,,4,7,115,,
265920,note_on,174,0,4,,,,,,,,3,,,54,64
265920,note_on,164,0,12,,,,,,,,11,,,42,64
265920,note_on,0,0,3,,,,,,,,2,,,75,64
265920,note_on,176,0,2,,,,,,,,1,,,80,64
265920,note_on,13350,0,3,,,,,,,,2,,,72,64
265994,note_on,74,0,8,,,,,,,,4,,,75,0
266016,note_on,22,0,8,,,,,,,,4,,,84,0
266024,note_on,8,0,8,,,,,,,,4,,,87,0
266040,note_on,16,0,8,,,,,,,,4,,,84,96
266040,note_on,0,0,8,,,,,,,,4,,,75,96
266040,note_on,0,0,8,,,,,,,,4,,,87,96
266120,note_on,80,0,8,,,,,,,,4,,,75,0
266140,note_on,20,0,8,,,,,,,,4,,,84,0
266146,note_on,6,0,8,,,,,,,,4,,,87,0
266160,note_on,0,0,8,,,,,,,,4,,,87,96
266160,note_on,0,0,8,,,,,,,,4,,,75,96
266160,note_on,14,0,8,,,,,,,,4,,,84,96
266242,note_on,82,0,8,,,,,,,,4,,,75,0
266252,note_on,10,0,8,,,,,,,,4,,,84,0
266262,note_on,10,0,8,,,,,,,,4,,,87,0
266280,note_on,18,0,8,,,,,,,,4,,,84,96
266280,note_on,0,0,8,,,,,,,,4,,,87,96
266280,note_on,0,0,8,,,,,,,,4,,,75,96
266356,note_on,76,0,8,,,,,,,,4,,,75,0
266376,note_on,20,0,8,,,,,,,,4,,,84,0
266380,note_on,4,0,8,,,,,,,,4,,,87,0
266400,note_on,0,0,8,,,,,,,,4,,,84,96
266400,note_on,0,0,8,,,,,,,,4,,,87,96
266400,note_on,20,0,8,,,,,,,,4,,,75,96
266476,note_on,76,0,8,,,,,,,,4,,,75,0
266494,note_on,18,0,8,,,,,,,,4,,,84,0
266496,note_on,2,0,8,,,,,,,,4,,,87,0
266520,note_on,0,0,8,,,,,,,,4,,,75,96
266520,note_on,24,0,8,,,,,,,,4,,,84,96
266520,note_on,0,0,8,,,,,,,,4,,,87,96
266594,note_on,74,0,8,,,,,,,,4,,,75,0
266610,note_on,16,0,8,,,,,,,,4,,,84,0
266622,note_on,12,0,8,,,,,,,,4,,,87,0
266640,note_on,0,0,8,,,,,,,,4,,,87,96
266640,note_on,18,0,8,,,,,,,,4,,,84,96
266640,note_on,0,0,8,,,,,,,,4,,,75,96
266722,note_on,82,0,8,,,,,,,,4,,,75,0
266730,note_on,8,0,8,,,,,,,,4,,,84,0
266734,note_on,4,0,8,,,,,,,,4,,,87,0
266760,note_on,26,0,8,,,,,,,,4,,,84,96
266760,note_on,0,0,8,,,,,,,,4,,,75,96
266760,note_on,0,0,8,,,,,,,,4,,,87,96
266840,note_on,80,0,8,,,,,,,,4,,,75,0
266856,note_on,16,0,8,,,,,,,,4,,,84,0
266862,note_on,6,0,8,,,,,,,,4,,,87,0
266880,note_on,0,0,8,,,,,,,,4,,,87,96
266880,note_on,1130,0,1,,,,,,,,0,,,92,64
266880,note_on,0,0,8,,,,,,,,4,,,84,96
266880,note_on,18,0,8,,,,,,,,4,,,75,96
266956,note_on,76,0,8,,,,,,,,4,,,75,0
266966,note_on,10,0,8,,,,,,,,4,,,84,0
266980,note_on,1060,0,4,,,,,,,,3,,,54,0
266986,note_on,20,0,8,,,,,,,,4,,,87,0
267000,note_on,14,0,8,,,,,,,,4,,,84,96
267000,note_on,0,0,8,,,,,,,,4,,,87,96
267000,note_on,0,0,8,,,,,,,,4,,,75,96
267010,note_on,1090,0,11,,,,,,,,10,,,54,0
267010,note_on,1090,0,12,,,,,,,,11,,,42,0
267082,note_on,82,0,8,,,,,,,,4,,,75,0
267082,note_on,1162,0,10,,,,,,,,8,,,66,0
267092,note_on,10,0,8,,,,,,,,4,,,84,0
267112,note_on,20,0,8,,,,,,,,4,,,87,0
267120,note_on,8,0,8,,,,,,,,4,,,87,96
267120,note_on,0,0,8,,,,,,,,4,,,84,96
267120,note_on,140,0,4,,,,,,,,3,,,54,64
267120,note_on,110,0,12,,,,,,,,11,,,42,64
267120,note_on,110,0,11,,,,,,,,10,,,54,96
267120,note_on,38,0,10,,,,,,,,8,,,66,96
267120,note_on,0,0,8,,,,,,,,4,,,75,96
267202,note_on,82,0,8,,,,,,,,4,,,75,0
267210,note_on,8,0,8,,,,,,,,4,,,84,0
267220,note_on,10,0,8,,,,,,,,4,,,87,0
267240,note_on,20,0,8,,,,,,,,4,,,87,96
267240,note_on,0,0,8,,,,,,,,4,,,75,96
267240,note_on,0,0,8,,,,,,,,4,,,84,96
267324,note_on,84,0,8,,,,,,,,4,,,75,0
267330,note_on,6,0,8,,,,,,,,4,,,87,0
267334,note_on,4,0,8,,,,,,,,4,,,84,0
267360,note_on,480,0,1,,,,,,,,0,,,87,64
267360,note_on,0,0,8,,,,,,,,4,,,84,96
267360,note_on,0,0,8,,,,,,,,4,,,87,96
267360,note_on,240,0,11,,,,,,,,10,,,56,96
267360,note_on,240,0,12,,,,,,,,11,,,44,64
267360,note_on,240,0,4,,,,,,,,3,,,56,64
267360,note_on,26,0,8,,,,,,,,4,,,75,96
267360,note_on,240,0,10,,,,,,,,8,,,68,96
267392,note_on,32,0,4,,,,,,,,3,,,54,0
267420,note_on,60,0,10,,,,,,,,8,,,66,0
267434,note_on,74,0,8,,,,,,,,4,,,75,0
267436,note_on,76,0,11,,,,,,,,10,,,54,0
267436,note_on,76,0,12,,,,,,,,11,,,42,0
267446,note_on,12,0,8,,,,,,,,4,,,87,0
267454,note_on,8,0,8,,,,,,,,4,,,84,0
267480,note_on,26,0,8,,,,,,,,4,,,87,96
267480,note_on,0,0,8,,,,,,,,4,,,84,96
267480,note_on,0,0,8,,,,,,,,4,,,75,96
267562,note_on,82,0,8,,,,,,,,4,,,75,0
267570,note_on,8,0,8,,,,,,,,4,,,87,0
267572,note_on,2,0,8,,,,,,,,4,,,84,0
267600,note_on,164,0,12,,,,,,,,11,,,42,64
267600,note_on,180,0,10,,,,,,,,8,,,66,96
267600,note_on,208,0,4,,,,,,,,3,,,54,64
267600,note_on,164,0,11,,,,,,,,10,,,54,96
267600,note_on,0,0,8,,,,,,,,4,,,87,96
267600,note_on,28,0,8,,,,,,,,4,,,75,96
267600,note_on,0,0,8,,,,,,,,4,,,84,96
267630,note_on,30,0,4,,,,,,,,3,,,56,0
267664,note_on,64,0,11,,,,,,,,10,,,56,0
267664,note_on,64,0,12,,,,,,,,11,,,44,0
267672,note_on,72,0,10,,,,,,,,8,,,68,0
267682,note_on,82,0,8,,,,,,,,4,,,75,0
267684,note_on,2,0,8,,,,,,,,4,,,84,0
267690,note_on,6,0,8,,,,,,,,4,,,87,0
267720,note_on,0,0,8,,,,,,,,4,,,87,96
267720,note_on,30,0,8,,,,,,,,4,,,84,96
267720,note_on,0,0,8,,,,,,,,4,,,75,96
267744,note_on,384,0,1,,,,,,,,0,,,87,0
267782,note_on,1862,0,3,,,,,,,,2,,,72,0
267800,note_on,80,0,8,,,,,,,,4,,,75,0
267802,note_on,20,0,3,,,,,,,,2,,,75,0
267812,note_on,12,0,8,,,,,,,,4,,,84,0
267820,note_on,8,0,8,,,,,,,,4,,,87,0
267836,note_on,164,0,10,,,,,,,,8,,,66,0
267840,note_on,20,0,8,,,,,,,,4,,,77,96
267840,note_on,38,0,3,,,,,,,,2,,,77,64
267840,note_on,0,0,3,,,,,,,,2,,,73,64
267840,note_on,1920,0,2,,,,,,,,1,,,77,64
267840,note_on,176,0,12,,,,,,,,11,,,41,64
267840,note_on,210,0,4,,,,,,,,3,,,53,64
267840,note_on,176,0,11,,,,,,,,10,,,53,96
267840,note_on,96,0,1,,,,,,,,0,,,89,64
267840,note_on,0,0,8,,,,,,,,4,,,89,96
267840,note_on,0,0,8,,,,,,,,4,,,85,96
267840,note_on,4,0,10,,,,,,,,8,,,65,96
267886,note_on,46,0,4,,,,,,,,3,,,54,0
267896,note_on,56,0,12,,,,,,,,11,,,42,0
267896,note_on,56,0,11,,,,,,,,10,,,54,0
267934,note_on,94,0,8,,,,,,,,4,,,89,0
267936,note_on,2,0,8,,,,,,,,4,,,77,0
267942,note_on,6,0,8,,,,,,,,4,,,85,0
267960,note_on,18,0,8,,,,,,,,4,,,85,96
267960,note_on,0,0,8,,,,,,,,4,,,77,96
267960,note_on,120,0,2,,,,,,,,1,,,77,0
267960,note_on,0,0,8,,,,,,,,4,,,89,96
267990,note_on,150,0,1,,,,,,,,0,,,89,0
267994,note_on,34,0,2,,,,,,,,1,,,80,0
268024,note_on,184,0,10,,,,,,,,8,,,65,0
268040,note_on,80,0,8,,,,,,,,4,,,77,0
268044,note_on,204,0,3,,,,,,,,2,,,73,0
268044,note_on,0,0,3,,,,,,,,2,,,77,0
268046,note_on,160,0,4,,,,,,,,3,,,53,0
268046,note_on,6,0,8,,,,,,,,4,,,85,0
268052,note_on,6,0,8,,,,,,,,4,,,89,0
268080,note_on,0,0,8,,,,,,,,4,,,89,96
268080,note_on,0,0,8,,,,,,,,4,,,85,96
268080,note_on,28,0,8,,,,,,,,4,,,77,96
268134,note_on,144,0,1,,,,,,,,0,,,92,0
268140,note_on,244,0,11,,,,,,,,10,,,53,0
268140,note_on,244,0,12,,,,,,,,11,,,41,0
268166,note_on,0,0,8,,,,,,,,4,,,77,0
268166,note_on,86,0,8,,,,,,,,4,,,85,0
268170,note_on,4,0,8,,,,,,,,4,,,89,0
268200,note_on,0,0,8,,,,,,,,4,,,89,96
268200,note_on,0,0,8,,,,,,,,4,,,77,96
268200,note_on,30,0,8,,,,,,,,4,,,85,96
268286,note_on,86,0,8,,,,,,,,4,,,77,0
268292,note_on,6,0,8,,,,,,,,4,,,85,0
268300,note_on,8,0,8,,,,,,,,4,,,89,0
268320,note_on,326,0,2,,,,,,,,1,,,75,64
268320,note_on,20,0,8,,,,,,,,4,,,85,125
268320,note_on,0,0,8,,,,,,,,4,,,75,125
268320,note_on,0,0,8,,,,,,,,4,,,84,125
268320,note_on,0,0,8,,,,,,,,4,,,87,125
268320,note_on,0,0,2,,,,,,,,1,,,80,64
268320,note_on,296,0,10,,,,,,,,8,,,66,96
268320,note_on,274,0,4,,,,,,,,3,,,54,64
268320,note_on,186,0,1,,,,,,,,0,,,87,64
268320,note_on,0,0,1,,,,,,,,0,,,92,64
268320,note_on,180,0,12,,,,,,,,11,,,42,64
268320,note_on,0,0,3,,,,,,,,2,,,72,64
268320,note_on,276,0,3,,,,,,,,2,,,63,64
268320,note_on,180,0,11,,,,,,,,10,,,54,96
268364,note_on,44,0,8,,,,,,,,4,,,85,0
268402,note_on,38,0,8,,,,,,,,4,,,75,0
268412,note_on,10,0,8,,,,,,,,4,,,84,0
268414,note_on,2,0,8,,,,,,,,4,,,87,0
268440,note_on,0,0,8,,,,,,,,4,,,75,96
268440,note_on,0,0,8,,,,,,,,4,,,87,96
268440,note_on,26,0,8,,,,,,,,4,,,84,96
268522,note_on,82,0,8,,,,,,,,4,,,75,0
268522,note_on,0,0,8,,,,,,,,4,,,84,0
268526,note_on,4,0,8,,,,,,,,4,,,87,0
268560,note_on,34,0,8,,,,,,,,4,,,84,96
268560,note_on,0,0,8,,,,,,,,4,,,87,96
268560,note_on,0,0,8,,,,,,,,4,,,75,96
268642,note_on,82,0,8,,,,,,,,4,,,75,0
268644,note_on,2,0,8,,,,,,,,4,,,84,0
268652,note_on,8,0,8,,,,,,,,4,,,87,0
268680,note_on,0,0,8,,,,,,,,4,,,75,96
268680,note_on,0,0,8,,,,,,,,4,,,84,96
268680,note_on,28,0,8,,,,,,,,4,,,87,96
268766,note_on,86,0,8,,,,,,,,4,,,75,0
268766,note_on,0,0,8,,,,,,,,4,,,87,0
268772,note_on,6,0,8,,,,,,,,4,,,84,0
268800,note_on,28,0,8,,,,,,,,4,,,75,96
268800,note_on,0,0,8,,,,,,,,4,,,84,96
268800,note_on,0,0,8,,,,,,,,4,,,87,96
268882,note_on,82,0,8,,,,,,,,4,,,75,0
268890,note_on,8,0,8,,,,,,,,4,,,84,0
268892,note_on,2,0,8,,,,,,,,4,,,87,0
268910,note_on,590,0,10,,,,,,,,8,,,66,0
268920,note_on,28,0,8,,,,,,,,4,,,84,96
268920,note_on,0,0,8,,,,,,,,4,,,87,96
268920,note_on,0,0,8,,,,,,,,4,,,75,96
269000,note_on,80,0,8,,,,,,,,4,,,75,0
269004,note_on,4,0,8,,,,,,,,4,,,84,0
269012,note_on,692,0,4,,,,,,,,3,,,54,0
269012,note_on,8,0,8,,,,,,,,4,,,87,0
269014,note_on,694,0,11,,,,,,,,10,,,54,0
269014,note_on,694,0,12,,,,,,,,11,,,42,0
269040,note_on,130,0,10,,,,,,,,8,,,66,96
269040,note_on,26,0,11,,,,,,,,10,,,54,96
269040,note_on,28,0,4,,,,,,,,3,,,54,64
269040,note_on,26,0,12,,,,,,,,11,,,42,64
269040,note_on,28,0,8,,,,,,,,4,,,87,96
269040,note_on,0,0,8,,,,,,,,4,,,84,96
269040,note_on,0,0,8,,,,,,,,4,,,75,96
269114,note_on,794,0,1,,,,,,,,0,,,87,0
269122,note_on,82,0,8,,,,,,,,4,,,75,0
269126,note_on,4,0,8,,,,,,,,4,,,84,0
269132,note_on,6,0,8,,,,,,,,4,,,87,0
269140,note_on,26,0,1,,,,,,,,0,,,92,0
269160,note_on,28,0,8,,,,,,,,4,,,75,96
269160,note_on,0,0,8,,,,,,,,4,,,84,96
269160,note_on,0,0,8,,,,,,,,4,,,87,96
269184,note_on,864,0,3,,,,,,,,2,,,63,0
269192,note_on,872,0,2,,,,,,,,1,,,75,0
269202,note_on,18,0,3,,,,,,,,2,,,72,0
269202,note_on,10,0,2,,,,,,,,1,,,80,0
269246,note_on,0,0,8,,,,,,,,4,,,75,0
269246,note_on,86,0,8,,,,,,,,4,,,84,0
269254,note_on,8,0,8,,,,,,,,4,,,87,0
269280,note_on,240,0,10,,,,,,,,8,,,68,96
269280,note_on,0,0,2,,,,,,,,1,,,75,64
269280,note_on,78,0,2,,,,,,,,1,,,80,64
269280,note_on,78,0,3,,,,,,,,2,,,63,64
269280,note_on,240,0,4,,,,,,,,3,,,56,64
269280,note_on,140,0,1,,,,,,,,0,,,87,64
269280,note_on,240,0,12,,,,,,,,11,,,44,64
269280,note_on,240,0,11,,,,,,,,10,,,56,96
269280,note_on,0,0,1,,,,,,,,0,,,92,64
269280,note_on,0,0,8,,,,,,,,4,,,87,96
269280,note_on,0,0,8,,,,,,,,4,,,84,96
269280,note_on,26,0,8,,,,,,,,4,,,75,96
269280,note_on,0,0,3,,,,,,,,2,,,72,64
269310,note_on,30,0,4,,,,,,,,3,,,54,0
269342,note_on,62,0,10,,,,,,,,8,,,66,0
269356,note_on,76,0,12,,,,,,,,11,,,42,0
269356,note_on,76,0,11,,,,,,,,10,,,54,0
269362,note_on,82,0,8,,,,,,,,4,,,75,0
269366,note_on,4,0,8,,,,,,,,4,,,84,0
269374,note_on,8,0,8,,,,,,,,4,,,87,0
269400,note_on,0,0,8,,,,,,,,4,,,87,96
269400,note_on,0,0,8,,,,,,,,4,,,75,96
269400,note_on,26,0,8,,,,,,,,4,,,84,96
269476,note_on,76,0,8,,,,,,,,4,,,75,0
269484,note_on,8,0,8,,,,,,,,4,,,84,0
269494,note_on,10,0,8,,,,,,,,4,,,87,0
269520,note_on,0,0,8,,,,,,,,4,,,87,96
269520,note_on,164,0,12,,,,,,,,11,,,42,64
269520,note_on,210,0,4,,,,,,,,3,,,54,64
269520,note_on,26,0,8,,,,,,,,4,,,84,96
269520,note_on,178,0,10,,,,,,,,8,,,66,96
269520,note_on,164,0,11,,,,,,,,10,,,54,96
269520,note_on,0,0,8,,,,,,,,4,,,75,96
269542,note_on,22,0,4,,,,,,,,3,,,56,0
269572,note_on,52,0,10,,,,,,,,8,,,68,0
269576,note_on,56,0,12,,,,,,,,11,,,44,0
269576,note_on,56,0,11,,,,,,,,10,,,56,0
269596,note_on,0,0,8,,,,,,,,4,,,84,0
269596,note_on,76,0,8,,,,,,,,4,,,75,0
269602,note_on,322,0,1,,,,,,,,0,,,87,0
269606,note_on,10,0,8,,,,,,,,4,,,87,0
269614,note_on,334,0,3,,,,,,,,2,,,63,0
269640,note_on,34,0,8,,,,,,,,4,,,84,96
269640,note_on,0,0,8,,,,,,,,4,,,87,96
269640,note_on,0,0,8,,,,,,,,4,,,75,96
269690,note_on,76,0,3,,,,,,,,2,,,72,0
269712,note_on,432,0,2,,,,,,,,1,,,75,0
269716,note_on,76,0,8,,,,,,,,4,,,75,0
269730,note_on,14,0,8,,,,,,,,4,,,84,0
269736,note_on,6,0,8,,,,,,,,4,,,87,0
269760,note_on,184,0,11,,,,,,,,10,,,53,96
269760,note_on,48,0,2,,,,,,,,1,,,77,64
269760,note_on,158,0,1,,,,,,,,0,,,89,64
269760,note_on,0,0,8,,,,,,,,4,,,85,96
269760,note_on,218,0,4,,,,,,,,3,,,53,64
269760,note_on,184,0,12,,,,,,,,11,,,41,64
269760,note_on,188,0,10,,,,,,,,8,,,65,96
269760,note_on,24,0,8,,,,,,,,4,,,89,96
269760,note_on,70,0,3,,,,,,,,2,,,65,64
269760,note_on,0,0,8,,,,,,,,4,,,77,96
269760,note_on,0,0,3,,,,,,,,2,,,73,64
269820,note_on,60,0,4,,,,,,,,3,,,54,0
269836,note_on,76,0,11,,,,,,,,10,,,54,0
269836,note_on,76,0,12,,,,,,,,11,,,42,0
269842,note_on,82,0,8,,,,,,,,4,,,77,0
269846,note_on,4,0,8,,,,,,,,4,,,85,0
269854,note_on,8,0,8,,,,,,,,4,,,89,0
269860,note_on,100,0,10,,,,,,,,8,,,66,0
269880,note_on,26,0,8,,,,,,,,4,,,85,96
269880,note_on,0,0,8,,,,,,,,4,,,89,96
269880,note_on,0,0,8,,,,,,,,4,,,77,96
269936,note_on,176,0,3,,,,,,,,2,,,73,0
269956,note_on,20,0,3,,,,,,,,2,,,65,0
269960,note_on,80,0,8,,,,,,,,4,,,77,0
269964,note_on,4,0,8,,,,,,,,4,,,85,0
269970,note_on,6,0,8,,,,,,,,4,,,89,0
269972,note_on,136,0,12,,,,,,,,11,,,41,0
269972,note_on,136,0,11,,,,,,,,10,,,53,0
269974,note_on,154,0,4,,,,,,,,3,,,53,0
269980,note_on,120,0,10,,,,,,,,8,,,65,0
270000,note_on,0,0,8,,,,,,,,4,,,89,96
270000,note_on,0,0,8,,,,,,,,4,,,77,96
270000,note_on,30,0,8,,,,,,,,4,,,85,96
270042,note_on,282,0,1,,,,,,,,0,,,89,0
270046,note_on,286,0,2,,,,,,,,1,,,80,0
270052,note_on,6,0,2,,,,,,,,1,,,77,0
270076,note_on,76,0,8,,,,,,,,4,,,77,0
270084,note_on,8,0,8,,,,,,,,4,,,85,0
270090,note_on,6,0,8,,,,,,,,4,,,89,0
270114,note_on,72,0,1,,,,,,,,0,,,92,0
270120,note_on,0,0,8,,,,,,,,4,,,85,96
270120,note_on,0,0,8,,,,,,,,4,,,89,96
270120,note_on,30,0,8,,,,,,,,4,,,77,96
270200,note_on,80,0,8,,,,,,,,4,,,85,0
270204,note_on,4,0,8,,,,,,,,4,,,77,0
270214,note_on,10,0,8,,,,,,,,4,,,89,0
270240,note_on,0,0,8,,,,,,,,4,,,87,127
270240,note_on,26,0,8,,,,,,,,4,,,75,127
270240,note_on,266,0,4,,,,,,,,3,,,54,64
270240,note_on,17676,0,7,,,,,,,,7,,,48,96
270240,note_on,268,0,12,,,,,,,,11,,,42,96
270240,note_on,284,0,3,,,,,,,,2,,,63,64
270240,note_on,0,0,3,,,,,,,,2,,,72,64
270240,note_on,126,0,1,,,,,,,,0,,,93,64
270240,note_on,0,0,1,,,,,,,,0,,,87,64
270240,note_on,0,0,8,,,,,,,,4,,,84,127
270240,note_on,0,0,10,,,,,,,,8,,,69,127
270240,note_on,260,0,10,,,,,,,,8,,,66,127
270240,note_on,268,0,11,,,,,,,,10,,,54,127
270240,note_on,0,0,2,,,,,,,,1,,,75,64
270240,note_on,188,0,2,,,,,,,,1,,,81,64
270240,note_on,17676,0,6,,,,,,,,6,,,60,80
270240,note_on,0,0,6,,,,,,,,6,,,72,80
270240,note_on,17704,0,5,,,,,,,,5,,,48,64
270240,note_on,0,0,5,,,,,,,,5,,,60,64
270310,note_on,70,0,7,,,,,,,,7,,,48,0
270322,note_on,82,0,8,,,,,,,,4,,,75,0
270334,note_on,12,0,8,,,,,,,,4,,,87,0
270334,note_on,0,0,8,,,,,,,,4,,,84,0
270360,note_on,50,0,7,,,,,,,,7,,,48,96
270360,note_on,0,0,8,,,,,,,,4,,,87,127
270360,note_on,0,0,8,,,,,,,,4,,,84,127
270360,note_on,26,0,8,,,,,,,,4,,,75,127
270430,note_on,70,0,7,,,,,,,,7,,,48,0
270434,note_on,74,0,8,,,,,,,,4,,,75,0
270436,note_on,2,0,8,,,,,,,,4,,,84,0
270450,note_on,14,0,8,,,,,,,,4,,,87,0
270480,note_on,50,0,7,,,,,,,,7,,,48,96
270480,note_on,0,0,8,,,,,,,,4,,,87,127
270480,note_on,30,0,8,,,,,,,,4,,,84,127
270480,note_on,0,0,8,,,,,,,,4,,,75,127
270550,note_on,70,0,7,,,,,,,,7,,,48,0
270562,note_on,0,0,8,,,,,,,,4,,,84,0
270562,note_on,82,0,8,,,,,,,,4,,,75,0
270572,note_on,10,0,8,,,,,,,,4,,,87,0
270600,note_on,0,0,8,,,,,,,,4,,,75,127
270600,note_on,0,0,8,,,,,,,,4,,,84,127
270600,note_on,28,0,8,,,,,,,,4,,,87,127
270600,note_on,50,0,7,,,,,,,,7,,,48,96
270664,note_on,64,0,7,,,,,,,,7,,,48,0
270676,note_on,76,0,8,,,,,,,,4,,,75,0
270682,note_on,6,0,8,,,,,,,,4,,,84,0
270692,note_on,10,0,8,,,,,,,,4,,,87,0
270720,note_on,56,0,7,,,,,,,,7,,,48,96
270720,note_on,28,0,8,,,,,,,,4,,,84,127
270720,note_on,0,0,8,,,,,,,,4,,,87,127
270720,note_on,0,0,8,,,,,,,,4,,,75,127
270782,note_on,62,0,7,,,,,,,,7,,,48,0
270782,note_on,542,0,10,,,,,,,,8,,,66,0
270790,note_on,8,0,10,,,,,,,,8,,,69,0
270800,note_on,560,0,2,,,,,,,,1,,,75,0
270802,note_on,2,0,2,,,,,,,,1,,,81,0
270802,note_on,82,0,8,,,,,,,,4,,,75,0
270810,note_on,8,0,8,,,,,,,,4,,,84,0
270812,note_on,2,0,8,,,,,,,,4,,,87,0
270820,note_on,580,0,1,,,,,,,,0,,,93,0
270826,note_on,6,0,1,,,,,,,,0,,,87,0
270832,note_on,592,0,5,,,,,,,,5,,,48,0
270840,note_on,0,0,8,,,,,,,,4,,,87,127
270840,note_on,0,0,8,,,,,,,,4,,,84,127
270840,note_on,58,0,7,,,,,,,,7,,,48,96
270840,note_on,28,0,8,,,,,,,,4,,,75,127
270844,note_on,12,0,5,,,,,,,,5,,,60,0
270846,note_on,606,0,3,,,,,,,,2,,,63,0
270860,note_on,14,0,3,,,,,,,,2,,,72,0
270866,note_on,626,0,4,,,,,,,,3,,,54,0
270910,note_on,70,0,7,,,,,,,,7,,,48,0
270912,note_on,0,0,6,,,,,,,,6,,,60,0
270912,note_on,672,0,6,,,,,,,,6,,,72,0
270922,note_on,682,0,11,,,,,,,,10,,,54,0
270922,note_on,682,0,12,,,,,,,,11,,,42,0
270922,note_on,82,0,8,,,,,,,,4,,,75,0
270926,note_on,0,0,8,,,,,,,,4,,,84,0
270926,note_on,4,0,8,,,,,,,,4,,,87,0
270960,note_on,38,0,12,,,,,,,,11,,,42,96
270960,note_on,0,0,2,,,,,,,,1,,,81,64
270960,note_on,0,0,6,,,,,,,,6,,,72,80
270960,note_on,48,0,6,,,,,,,,6,,,60,80
270960,note_on,158,0,2,,,,,,,,1,,,75,64
270960,note_on,0,0,5,,,,,,,,5,,,60,64
270960,note_on,38,0,11,,,,,,,,10,,,54,127
270960,note_on,94,0,4,,,,,,,,3,,,54,64
270960,note_on,116,0,5,,,,,,,,5,,,48,64
270960,note_on,50,0,7,,,,,,,,7,,,48,96
270960,note_on,0,0,1,,,,,,,,0,,,87,64
270960,note_on,134,0,1,,,,,,,,0,,,93,64
270960,note_on,0,0,8,,,,,,,,4,,,87,127
270960,note_on,170,0,10,,,,,,,,8,,,69,127
270960,note_on,0,0,3,,,,,,,,2,,,72,64
270960,note_on,100,0,3,,,,,,,,2,,,63,64
270960,note_on,0,0,10,,,,,,,,8,,,66,127
270960,note_on,0,0,8,,,,,,,,4,,,84,127
270960,note_on,34,0,8,,,,,,,,4,,,75,127
271012,note_on,52,0,5,,,,,,,,5,,,48,0
271014,note_on,54,0,2,,,,,,,,1,,,75,0
271020,note_on,8,0,5,,,,,,,,5,,,60,0
271024,note_on,64,0,3,,,,,,,,2,,,63,0
271024,note_on,64,0,4,,,,,,,,3,,,54,0
271026,note_on,0,0,1,,,,,,,,0,,,93,0
271026,note_on,66,0,1,,,,,,,,0,,,87,0
271026,note_on,12,0,2,,,,,,,,1,,,81,0
271032,note_on,72,0,10,,,,,,,,8,,,66,0
271032,note_on,72,0,8,,,,,,,,4,,,75,0
271040,note_on,80,0,12,,,,,,,,11,,,42,0
271040,note_on,80,0,11,,,,,,,,10,,,54,0
271042,note_on,82,0,7,,,,,,,,7,,,48,0
271042,note_on,10,0,10,,,,,,,,8,,,69,0
271046,note_on,14,0,8,,,,,,,,4,,,87,0
271046,note_on,0,0,8,,,,,,,,4,,,84,0
271050,note_on,26,0,3,,,,,,,,2,,,72,0
271080,note_on,0,0,8,,,,,,,,4,,,75,127
271080,note_on,0,0,8,,,,,,,,4,,,84,127
271080,note_on,34,0,8,,,,,,,,4,,,87,127
271152,note_on,0,0,6,,,,,,,,6,,,60,0
271152,note_on,192,0,6,,,,,,,,6,,,72,0
271160,note_on,80,0,8,,,,,,,,4,,,75,0
271166,note_on,6,0,8,,,,,,,,4,,,84,0
271170,note_on,4,0,8,,,,,,,,4,,,87,0
271200,note_on,0,0,8,,,,,,,,4,,,87,127
271200,note_on,0,0,8,,,,,,,,4,,,84,127
271200,note_on,30,0,8,,,,,,,,4,,,75,127
271200,note_on,160,0,12,,,,,,,,11,,,42,96
271200,note_on,150,0,3,,,,,,,,2,,,63,64
271200,note_on,48,0,6,,,,,,,,6,,,60,80
271200,note_on,0,0,5,,,,,,,,5,,,60,64
271200,note_on,0,0,10,,,,,,,,8,,,69,127
271200,note_on,158,0,10,,,,,,,,8,,,66,127
271200,note_on,174,0,1,,,,,,,,0,,,87,64
271200,note_on,0,0,6,,,,,,,,6,,,72,80
271200,note_on,0,0,3,,,,,,,,2,,,72,64
271200,note_on,176,0,4,,,,,,,,3,,,54,64
271200,note_on,0,0,1,,,,,,,,0,,,93,64
271200,note_on,180,0,5,,,,,,,,5,,,48,64
271200,note_on,158,0,7,,,,,,,,7,,,48,96
271200,note_on,0,0,2,,,,,,,,1,,,81,64
271200,note_on,160,0,11,,,,,,,,10,,,54,127
271200,note_on,174,0,2,,,,,,,,1,,,75,64
271246,note_on,46,0,2,,,,,,,,1,,,75,0
271250,note_on,50,0,5,,,,,,,,5,,,48,0
271254,note_on,4,0,5,,,,,,,,5,,,60,0
271256,note_on,56,0,3,,,,,,,,2,,,63,0
271260,note_on,60,0,4,,,,,,,,3,,,54,0
271262,note_on,16,0,2,,,,,,,,1,,,81,0
271264,note_on,64,0,1,,,,,,,,0,,,87,0
271270,note_on,0,0,10,,,,,,,,8,,,66,0
271270,note_on,70,0,10,,,,,,,,8,,,69,0
271274,note_on,74,0,8,,,,,,,,4,,,75,0
271274,note_on,10,0,1,,,,,,,,0,,,93,0
271276,note_on,20,0,3,,,,,,,,2,,,72,0
271280,note_on,80,0,11,,,,,,,,10,,,54,0
271280,note_on,80,0,12,,,,,,,,11,,,42,0
271290,note_on,16,0,8,,,,,,,,4,,,87,0
271292,note_on,2,0,8,,,,,,,,4,,,84,0
271292,note_on,92,0,7,,,,,,,,7,,,48,0
271320,note_on,28,0,8,,,,,,,,4,,,84,127
271320,note_on,0,0,8,,,,,,,,4,,,87,127
271320,note_on,0,0,8,,,,,,,,4,,,75,127
271392,note_on,0,0,6,,,,,,,,6,,,60,0
271392,note_on,192,0,6,,,,,,,,6,,,72,0
271400,note_on,80,0,8,,,,,,,,4,,,75,0
271402,note_on,2,0,8,,,,,,,,4,,,84,0
271404,note_on,2,0,8,,,,,,,,4,,,87,0
271440,note_on,0,0,8,,,,,,,,4,,,75,127
271440,note_on,178,0,2,,,,,,,,1,,,75,64
271440,note_on,0,0,2,,,,,,,,1,,,81,64
271440,note_on,48,0,6,,,,,,,,6,,,72,80
271440,note_on,0,0,5,,,,,,,,5,,,48,64
271440,note_on,186,0,5,,,,,,,,5,,,60,64
271440,note_on,180,0,4,,,,,,,,3,,,54,64
271440,note_on,0,0,8,,,,,,,,4,,,87,127
271440,note_on,36,0,8,,,,,,,,4,,,84,127
271440,note_on,148,0,7,,,,,,,,7,,,48,96
271440,note_on,160,0,12,,,,,,,,11,,,42,96
271440,note_on,0,0,3,,,,,,,,2,,,63,64
271440,note_on,164,0,3,,,,,,,,2,,,72,64
271440,note_on,170,0,10,,,,,,,,8,,,69,127
271440,note_on,0,0,1,,,,,,,,0,,,93,64
271440,note_on,166,0,1,,,,,,,,0,,,87,64
271440,note_on,160,0,11,,,,,,,,10,,,54,127
271440,note_on,0,0,10,,,,,,,,8,,,66,127
271440,note_on,0,0,6,,,,,,,,6,,,60,80
271482,note_on,42,0,2,,,,,,,,1,,,75,0
271490,note_on,50,0,5,,,,,,,,5,,,60,0
271492,note_on,52,0,3,,,,,,,,2,,,63,0
271492,note_on,2,0,5,,,,,,,,5,,,48,0
271500,note_on,60,0,4,,,,,,,,3,,,54,0
271502,note_on,10,0,3,,,,,,,,2,,,72,0
271504,note_on,64,0,10,,,,,,,,8,,,69,0
271510,note_on,6,0,10,,,,,,,,8,,,66,0
271512,note_on,30,0,2,,,,,,,,1,,,81,0
271512,note_on,72,0,1,,,,,,,,0,,,87,0
271514,note_on,2,0,1,,,,,,,,0,,,93,0
271516,note_on,76,0,7,,,,,,,,7,,,48,0
271520,note_on,0,0,8,,,,,,,,4,,,84,0
271520,note_on,80,0,8,,,,,,,,4,,,75,0
271526,note_on,86,0,11,,,,,,,,10,,,54,0
271526,note_on,6,0,8,,,,,,,,4,,,87,0
271526,note_on,86,0,12,,,,,,,,11,,,42,0
271560,note_on,0,0,8,,,,,,,,4,,,75,127
271560,note_on,34,0,8,,,,,,,,4,,,84,127
271560,note_on,0,0,8,,,,,,,,4,,,87,127
271632,note_on,0,0,6,,,,,,,,6,,,72,0
271632,note_on,192,0,6,,,,,,,,6,,,60,0
271644,note_on,0,0,8,,,,,,,,4,,,84,0
271644,note_on,84,0,8,,,,,,,,4,,,75,0
271646,note_on,2,0,8,,,,,,,,4,,,87,0
271680,note_on,0,0,1,,,,,,,,0,,,91,64
271680,note_on,166,0,1,,,,,,,,0,,,88,64
271680,note_on,0,0,5,,,,,,,,5,,,48,64
271680,note_on,154,0,12,,,,,,,,11,,,43,96
271680,note_on,0,0,4,,,,,,,,3,,,55,64
271680,note_on,180,0,4,,,,,,,,3,,,43,64
271680,note_on,154,0,11,,,,,,,,10,,,55,127
271680,note_on,188,0,5,,,,,,,,5,,,60,64
271680,note_on,168,0,2,,,,,,,,1,,,79,64
271680,note_on,0,0,2,,,,,,,,1,,,76,64
271680,note_on,170,0,10,,,,,,,,8,,,55,127
271680,note_on,0,0,8,,,,,,,,4,,,76,127
271680,control_change,34,0,8,,,,,,,,4,7,127,,
271680,note_on,48,0,6,,,,,,,,6,,,72,64
271680,note_on,0,0,8,,,,,,,,4,,,88,127
271680,note_on,164,0,7,,,,,,,,7,,,48,96
271680,note_on,0,0,6,,,,,,,,6,,,60,64
271680,note_on,0,0,8,,,,,,,,4,,,84,127
271680,note_on,178,0,3,,,,,,,,2,,,64,64
271680,note_on,0,0,3,,,,,,,,2,,,72,64
271754,note_on,74,0,7,,,,,,,,7,,,48,0
271766,note_on,86,0,8,,,,,,,,4,,,88,0
271766,note_on,0,0,8,,,,,,,,4,,,84,0
271766,note_on,0,0,8,,,,,,,,4,,,76,0
271770,note_on,90,0,12,,,,,,,,11,,,43,0
271770,note_on,90,0,11,,,,,,,,10,,,55,0
271800,note_on,46,0,7,,,,,,,,7,,,48,96
271800,note_on,30,0,11,,,,,,,,10,,,55,127
271800,note_on,30,0,12,,,,,,,,11,,,43,96
271800,note_on,120,0,10,,,,,,,,8,,,67,127
271800,note_on,34,0,8,,,,,,,,4,,,88,127
271800,note_on,0,0,8,,,,,,,,4,,,84,127
271832,note_on,32,0,10,,,,,,,,8,,,55,0
271866,note_on,66,0,7,,,,,,,,7,,,48,0
271886,note_on,86,0,8,,,,,,,,4,,,88,0
271890,note_on,90,0,12,,,,,,,,11,,,43,0
271890,note_on,90,0,11,,,,,,,,10,,,55,0
271892,note_on,6,0,8,,,,,,,,4,,,84,0
271896,note_on,64,0,10,,,,,,,,8,,,67,0
271920,note_on,30,0,11,,,,,,,,10,,,55,127
271920,note_on,54,0,7,,,,,,,,7,,,48,96
271920,note_on,30,0,12,,,,,,,,11,,,43,96
271920,note_on,24,0,10,,,,,,,,8,,,67,127
271920,note_on,28,0,8,,,,,,,,4,,,88,127
271920,note_on,0,0,8,,,,,,,,4,,,84,127
271982,note_on,62,0,7,,,,,,,,7,,,48,0
272002,note_on,82,0,10,,,,,,,,8,,,67,0
272004,note_on,84,0,12,,,,,,,,11,,,43,0
272004,note_on,84,0,11,,,,,,,,10,,,55,0
272010,note_on,90,0,8,,,,,,,,4,,,88,0
272012,note_on,2,0,8,,,,,,,,4,,,84,0
272040,note_on,28,0,8,,,,,,,,4,,,84,127
272040,note_on,0,0,8,,,,,,,,4,,,88,127
272040,note_on,58,0,7,,,,,,,,7,,,48,96
272040,note_on,38,0,10,,,,,,,,8,,,67,127
272040,note_on,36,0,11,,,,,,,,10,,,55,127
272040,note_on,36,0,12,,,,,,,,11,,,43,96
272106,note_on,66,0,7,,,,,,,,7,,,48,0
272122,note_on,82,0,11,,,,,,,,10,,,55,0
272122,note_on,82,0,12,,,,,,,,11,,,43,0
272126,note_on,86,0,8,,,,,,,,4,,,88,0
272134,note_on,8,0,8,,,,,,,,4,,,84,0
272134,note_on,94,0,10,,,,,,,,8,,,67,0
272160,note_on,38,0,12,,,,,,,,11,,,43,96
272160,note_on,38,0,11,,,,,,,,10,,,55,127
272160,note_on,54,0,7,,,,,,,,7,,,48,96
272160,note_on,26,0,10,,,,,,,,8,,,67,127
272160,note_on,0,0,8,,,,,,,,4,,,84,127
272160,note_on,26,0,8,,,,,,,,4,,,88,127
272230,note_on,70,0,7,,,,,,,,7,,,48,0
272244,note_on,84,0,12,,,,,,,,11,,,43,0
272244,note_on,84,0,11,,,,,,,,10,,,55,0
272246,note_on,86,0,8,,,,,,,,4,,,88,0
272250,note_on,90,0,10,,,,,,,,8,,,67,0
272250,note_on,4,0,8,,,,,,,,4,,,84,0
272280,note_on,0,0,8,,,,,,,,4,,,84,127
272280,note_on,30,0,8,,,,,,,,4,,,88,127
272280,note_on,36,0,11,,,,,,,,10,,,55,127
272280,note_on,30,0,10,,,,,,,,8,,,67,127
272280,note_on,36,0,12,,,,,,,,11,,,43,96
272280,note_on,50,0,7,,,,,,,,7,,,48,96
272346,note_on,66,0,7,,,,,,,,7,,,48,0
272362,note_on,82,0,8,,,,,,,,4,,,88,0
272362,note_on,82,0,11,,,,,,,,10,,,55,0
272362,note_on,82,0,12,,,,,,,,11,,,43,0
272370,note_on,8,0,8,,,,,,,,4,,,84,0
272370,note_on,90,0,10,,,,,,,,8,,,67,0
272400,note_on,38,0,11,,,,,,,,10,,,55,127
272400,note_on,30,0,8,,,,,,,,4,,,84,127
272400,note_on,0,0,8,,,,,,,,4,,,88,127
272400,note_on,54,0,7,,,,,,,,7,,,48,96
272400,note_on,38,0,12,,,,,,,,11,,,43,96
272400,note_on,30,0,10,,,,,,,,8,,,67,127
272470,note_on,70,0,7,,,,,,,,7,,,48,0
272480,note_on,80,0,11,,,,,,,,10,,,55,0
272480,note_on,80,0,10,,,,,,,,8,,,67,0
272480,note_on,80,0,8,,,,,,,,4,,,84,0
272480,note_on,80,0,12,,,,,,,,11,,,43,0
272490,note_on,10,0,8,,,,,,,,4,,,88,0
272520,note_on,30,0,8,,,,,,,,4,,,88,127
272520,note_on,0,0,8,,,,,,,,4,,,84,127
272520,note_on,40,0,11,,,,,,,,10,,,55,127
272520,note_on,40,0,12,,,,,,,,11,,,43,96
272520,note_on,840,0,2,,,,,,,,1,,,79,0
272520,note_on,50,0,7,,,,,,,,7,,,48,96
272520,note_on,40,0,10,,,,,,,,8,,,67,127
272536,note_on,856,0,6,,,,,,,,6,,,60,0
272536,note_on,856,0,5,,,,,,,,5,,,48,0
272542,note_on,6,0,6,,,,,,,,6,,,72,0
272542,note_on,6,0,5,,,,,,,,5,,,60,0
272542,note_on,862,0,1,,,,,,,,0,,,88,0
272544,note_on,24,0,2,,,,,,,,1,,,76,0
272546,note_on,866,0,3,,,,,,,,2,,,72,0
272560,note_on,18,0,1,,,,,,,,0,,,91,0
272584,note_on,64,0,7,,,,,,,,7,,,48,0
272596,note_on,76,0,11,,,,,,,,10,,,55,0
272596,note_on,916,0,4,,,,,,,,3,,,55,0
272596,note_on,76,0,12,,,,,,,,11,,,43,0
272602,note_on,56,0,3,,,,,,,,2,,,64,0
272612,note_on,92,0,10,,,,,,,,8,,,67,0
272612,note_on,92,0,8,,,,,,,,4,,,88,0
272616,note_on,4,0,8,,,,,,,,4,,,84,0
272624,note_on,28,0,4,,,,,,,,3,,,43,0
272640,note_on,96,0,2,,,,,,,,1,,,77,64
272640,note_on,0,0,2,,,,,,,,1,,,72,64
272640,note_on,44,0,12,,,,,,,,11,,,44,96
272640,note_on,98,0,6,,,,,,,,6,,,72,64
272640,note_on,0,0,6,,,,,,,,6,,,60,64
272640,note_on,98,0,5,,,,,,,,5,,,60,64
272640,note_on,0,0,5,,,,,,,,5,,,48,64
272640,note_on,38,0,3,,,,,,,,2,,,65,64
272640,note_on,0,0,4,,,,,,,,3,,,56,64
272640,note_on,0,0,3,,,,,,,,2,,,72,64
272640,note_on,44,0,11,,,,,,,,10,,,56,127
272640,note_on,24,0,8,,,,,,,,4,,,89,127
272640,note_on,56,0,7,,,,,,,,7,,,48,96
272640,note_on,0,0,1,,,,,,,,0,,,84,64
272640,note_on,80,0,1,,,,,,,,0,,,89,64
272640,note_on,28,0,10,,,,,,,,8,,,56,127
272640,note_on,16,0,4,,,,,,,,3,,,44,64
272640,note_on,0,0,8,,,,,,,,4,,,72,127
272714,note_on,74,0,7,,,,,,,,7,,,48,0
272730,note_on,90,0,12,,,,,,,,11,,,44,0
272730,note_on,90,0,11,,,,,,,,10,,,56,0
272734,note_on,0,0,8,,,,,,,,4,,,89,0
272734,note_on,94,0,8,,,,,,,,4,,,72,0
272746,note_on,106,0,10,,,,,,,,8,,,56,0
272760,note_on,14,0,10,,,,,,,,8,,,68,127
272760,note_on,26,0,8,,,,,,,,4,,,89,127
272760,note_on,30,0,12,,,,,,,,11,,,44,96
272760,note_on,46,0,7,,,,,,,,7,,,48,96
272760,note_on,0,0,8,,,,,,,,4,,,84,127
272760,note_on,30,0,11,,,,,,,,10,,,56,127
272830,note_on,70,0,7,,,,,,,,7,,,48,0
272842,note_on,82,0,12,,,,,,,,11,,,44,0
272842,note_on,82,0,11,,,,,,,,10,,,56,0
272854,note_on,94,0,8,,,,,,,,4,,,89,0
272856,note_on,2,0,8,,,,,,,,4,,,84,0
272874,note_on,114,0,10,,,,,,,,8,,,68,0
272880,note_on,38,0,12,,,,,,,,11,,,44,96
272880,note_on,6,0,10,,,,,,,,8,,,68,127
272880,note_on,38,0,11,,,,,,,,10,,,56,127
272880,note_on,50,0,7,,,,,,,,7,,,48,96
272880,note_on,0,0,8,,,,,,,,4,,,89,127
272880,note_on,24,0,8,,,,,,,,4,,,84,127
272950,note_on,70,0,7,,,,,,,,7,,,48,0
272964,note_on,84,0,12,,,,,,,,11,,,44,0
272964,note_on,84,0,11,,,,,,,,10,,,56,0
272966,note_on,86,0,10,,,,,,,,8,,,68,0
272974,note_on,0,0,8,,,,,,,,4,,,84,0
272974,note_on,94,0,8,,,,,,,,4,,,89,0
273000,note_on,36,0,11,,,,,,,,10,,,56,127
273000,note_on,34,0,10,,,,,,,,8,,,68,127
273000,note_on,0,0,8,,,,,,,,4,,,89,127
273000,note_on,26,0,8,,,,,,,,4,,,84,127
273000,note_on,36,0,12,,,,,,,,11,,,44,96
273000,note_on,50,0,7,,,,,,,,7,,,48,96
273062,note_on,62,0,7,,,,,,,,7,,,48,0
273084,note_on,84,0,10,,,,,,,,8,,,68,0
273084,note_on,84,0,11,,,,,,,,10,,,56,0
273084,note_on,84,0,12,,,,,,,,11,,,44,0
273092,note_on,92,0,8,,,,,,,,4,,,89,0
273100,note_on,8,0,8,,,,,,,,4,,,84,0
273120,note_on,0,0,8,,,,,,,,4,,,89,127
273120,note_on,36,0,11,,,,,,,,10,,,56,127
273120,note_on,36,0,10,,,,,,,,8,,,68,127
273120,note_on,36,0,12,,,,,,,,11,,,44,96
273120,note_on,58,0,7,,,,,,,,7,,,48,96
273120,note_on,20,0,8,,,,,,,,4,,,84,127
273194,note_on,74,0,7,,,,,,,,7,,,48,0
273204,note_on,84,0,10,,,,,,,,8,,,68,0
273206,note_on,86,0,11,,,,,,,,10,,,56,0
273206,note_on,86,0,12,,,,,,,,11,,,44,0
273210,note_on,90,0,8,,,,,,,,4,,,84,0
273214,note_on,4,0,8,,,,,,,,4,,,89,0
273240,note_on,36,0,10,,,,,,,,8,,,68,127
273240,note_on,34,0,11,,,,,,,,10,,,56,127
273240,note_on,26,0,8,,,,,,,,4,,,84,127
273240,note_on,0,0,8,,,,,,,,4,,,89,127
273240,note_on,46,0,7,,,,,,,,7,,,48,96
273240,note_on,34,0,12,,,,,,,,11,,,44,96
273310,note_on,70,0,7,,,,,,,,7,,,48,0
273324,note_on,84,0,11,,,,,,,,10,,,56,0
273324,note_on,84,0,12,,,,,,,,11,,,44,0
273326,note_on,86,0,8,,,,,,,,4,,,84,0
273326,note_on,86,0,10,,,,,,,,8,,,68,0
273332,note_on,6,0,8,,,,,,,,4,,,89,0
273360,note_on,0,0,8,,,,,,,,4,,,89,127
273360,note_on,36,0,12,,,,,,,,11,,,44,96
273360,note_on,28,0,8,,,,,,,,4,,,84,127
273360,note_on,34,0,10,,,,,,,,8,,,68,127
273360,note_on,50,0,7,,,,,,,,7,,,48,96
273360,note_on,36,0,11,,,,,,,,10,,,56,127
273426,note_on,66,0,7,,,,,,,,7,,,48,0
273446,note_on,86,0,11,,,,,,,,10,,,56,0
273446,note_on,0,0,8,,,,,,,,4,,,84,0
273446,note_on,86,0,10,,,,,,,,8,,,68,0
273446,note_on,86,0,12,,,,,,,,11,,,44,0
273446,note_on,86,0,8,,,,,,,,4,,,89,0
273480,note_on,34,0,10,,,,,,,,8,,,68,127
273480,note_on,34,0,8,,,,,,,,4,,,84,127
273480,note_on,0,0,8,,,,,,,,4,,,89,127
273480,note_on,34,0,12,,,,,,,,11,,,44,96
273480,note_on,34,0,11,,,,,,,,10,,,56,127
273480,note_on,54,0,7,,,,,,,,7,,,48,96
273482,note_on,842,0,3,,,,,,,,2,,,65,0
273504,note_on,864,0,5,,,,,,,,5,,,48,0
273504,note_on,864,0,6,,,,,,,,6,,,60,0
273504,note_on,0,0,2,,,,,,,,1,,,77,0
273504,note_on,864,0,2,,,,,,,,1,,,72,0
273510,note_on,28,0,3,,,,,,,,2,,,72,0
273510,note_on,6,0,6,,,,,,,,6,,,72,0
273510,note_on,6,0,5,,,,,,,,5,,,60,0
273524,note_on,884,0,1,,,,,,,,0,,,89,0
273536,note_on,12,0,1,,,,,,,,0,,,84,0
273540,note_on,900,0,4,,,,,,,,3,,,56,0
273542,note_on,62,0,7,,,,,,,,7,,,48,0
273544,note_on,4,0,4,,,,,,,,3,,,44,0
273562,note_on,82,0,8,,,,,,,,4,,,84,0
273570,note_on,90,0,11,,,,,,,,10,,,56,0
273570,note_on,90,0,12,,,,,,,,11,,,44,0
273574,note_on,12,0,8,,,,,,,,4,,,89,0
273576,note_on,96,0,10,,,,,,,,8,,,68,0
273600,note_on,0,0,1,,,,,,,,0,,,90,64
273600,note_on,96,0,2,,,,,,,,1,,,84,64
273600,note_on,90,0,3,,,,,,,,2,,,66,64
273600,note_on,0,0,3,,,,,,,,2,,,75,64
273600,note_on,0,0,2,,,,,,,,1,,,72,64
273600,note_on,26,0,8,,,,,,,,4,,,87,127
273600,note_on,0,0,8,,,,,,,,4,,,90,127
273600,note_on,58,0,7,,,,,,,,7,,,48,96
273600,note_on,30,0,11,,,,,,,,10,,,57,127
273600,note_on,0,0,6,,,,,,,,6,,,72,64
273600,note_on,90,0,6,,,,,,,,6,,,60,64
273600,note_on,56,0,4,,,,,,,,3,,,45,64
273600,note_on,0,0,4,,,,,,,,3,,,57,64
273600,note_on,90,0,5,,,,,,,,5,,,48,64
273600,note_on,0,0,5,,,,,,,,5,,,60,64
273600,note_on,64,0,1,,,,,,,,0,,,87,64
273600,note_on,30,0,12,,,,,,,,11,,,45,96
273600,note_on,24,0,10,,,,,,,,8,,,57,127
273660,note_on,60,0,7,,,,,,,,7,,,48,0
273684,note_on,84,0,8,,,,,,,,4,,,90,0
273686,note_on,86,0,11,,,,,,,,10,,,57,0
273686,note_on,86,0,12,,,,,,,,11,,,45,0
273694,note_on,10,0,8,,,,,,,,4,,,87,0
273720,note_on,34,0,11,,,,,,,,10,,,57,127
273720,note_on,120,0,10,,,,,,,,8,,,69,127
273720,note_on,34,0,12,,,,,,,,11,,,45,96
273720,note_on,0,0,8,,,,,,,,4,,,87,127
273720,note_on,60,0,7,,,,,,,,7,,,48,96
273720,note_on,26,0,8,,,,,,,,4,,,90,127
273760,note_on,40,0,10,,,,,,,,8,,,57,0
273790,note_on,70,0,7,,,,,,,,7,,,48,0
273804,note_on,84,0,11,,,,,,,,10,,,57,0
273804,note_on,84,0,12,,,,,,,,11,,,45,0
273806,note_on,86,0,8,,,,,,,,4,,,90,0
273816,note_on,56,0,10,,,,,,,,8,,,69,0
273816,note_on,10,0,8,,,,,,,,4,,,87,0
273840,note_on,24,0,10,,,,,,,,8,,,69,127
273840,note_on,50,0,7,,,,,,,,7,,,48,96
273840,note_on,0,0,8,,,,,,,,4,,,87,127
273840,note_on,24,0,8,,,,,,,,4,,,90,127
273840,note_on,36,0,11,,,,,,,,10,,,57,127
273840,note_on,36,0,12,,,,,,,,11,,,45,96
273906,note_on,66,0,7,,,,,,,,7,,,48,0
273916,note_on,76,0,8,,,,,,,,4,,,90,0
273922,note_on,82,0,11,,,,,,,,10,,,57,0
273922,note_on,82,0,10,,,,,,,,8,,,69,0
273922,note_on,82,0,12,,,,,,,,11,,,45,0
273940,note_on,24,0,8,,,,,,,,4,,,87,0
273960,note_on,0,0,8,,,,,,,,4,,,90,127
273960,note_on,20,0,8,,,,,,,,4,,,87,127
273960,note_on,38,0,10,,,,,,,,8,,,69,127
273960,note_on,38,0,12,,,,,,,,11,,,45,96
273960,note_on,38,0,11,,,,,,,,10,,,57,127
273960,note_on,54,0,7,,,,,,,,7,,,48,96
274034,note_on,74,0,7,,,,,,,,7,,,48,0
274042,note_on,82,0,10,,,,,,,,8,,,69,0
274044,note_on,84,0,8,,,,,,,,4,,,90,0
274046,note_on,86,0,11,,,,,,,,10,,,57,0
274046,note_on,86,0,12,,,,,,,,11,,,45,0
274052,note_on,8,0,8,,,,,,,,4,,,87,0
274080,note_on,34,0,11,,,,,,,,10,,,57,127
274080,note_on,28,0,8,,,,,,,,4,,,90,127
274080,note_on,46,0,7,,,,,,,,7,,,48,96
274080,note_on,38,0,10,,,,,,,,8,,,69,127
274080,note_on,34,0,12,,,,,,,,11,,,45,96
274080,note_on,0,0,8,,,,,,,,4,,,87,127
274156,note_on,76,0,7,,,,,,,,7,,,48,0
274160,note_on,80,0,12,,,,,,,,11,,,45,0
274160,note_on,80,0,11,,,,,,,,10,,,57,0
274160,note_on,80,0,10,,,,,,,,8,,,69,0
274164,note_on,84,0,8,,,,,,,,4,,,90,0
274166,note_on,2,0,8,,,,,,,,4,,,87,0
274200,note_on,40,0,11,,,,,,,,10,,,57,127
274200,note_on,40,0,10,,,,,,,,8,,,69,127
274200,note_on,44,0,7,,,,,,,,7,,,48,96
274200,note_on,40,0,12,,,,,,,,11,,,45,96
274200,note_on,34,0,8,,,,,,,,4,,,90,127
274200,note_on,0,0,8,,,,,,,,4,,,87,127
274274,note_on,74,0,7,,,,,,,,7,,,48,0
274284,note_on,84,0,12,,,,,,,,11,,,45,0
274284,note_on,84,0,11,,,,,,,,10,,,57,0
274284,note_on,84,0,8,,,,,,,,4,,,90,0
274286,note_on,86,0,10,,,,,,,,8,,,69,0
274294,note_on,10,0,8,,,,,,,,4,,,87,0
274320,note_on,46,0,7,,,,,,,,7,,,48,96
274320,note_on,0,0,8,,,,,,,,4,,,87,127
274320,note_on,36,0,12,,,,,,,,11,,,45,96
274320,note_on,26,0,8,,,,,,,,4,,,90,127
274320,note_on,36,0,11,,,,,,,,10,,,57,127
274320,note_on,34,0,10,,,,,,,,8,,,69,127
274390,note_on,70,0,7,,,,,,,,7,,,48,0
274400,note_on,80,0,12,,,,,,,,11,,,45,0
274400,note_on,80,0,11,,,,,,,,10,,,57,0
274402,note_on,82,0,8,,,,,,,,4,,,90,0
274404,note_on,84,0,10,,,,,,,,8,,,69,0
274412,note_on,10,0,8,,,,,,,,4,,,87,0
274440,note_on,0,0,8,,,,,,,,4,,,90,127
274440,note_on,36,0,10,,,,,,,,8,,,69,127
274440,note_on,40,0,12,,,,,,,,11,,,45,96
274440,note_on,50,0,7,,,,,,,,7,,,48,96
274440,note_on,28,0,8,,,,,,,,4,,,87,127
274440,note_on,40,0,11,,,,,,,,10,,,57,127
274460,note_on,860,0,1,,,,,,,,0,,,87,0
274480,note_on,880,0,4,,,,,,,,3,,,57,0
274496,note_on,36,0,1,,,,,,,,0,,,90,0
274510,note_on,70,0,7,,,,,,,,7,,,48,0
274512,note_on,32,0,4,,,,,,,,3,,,45,0
274524,note_on,84,0,12,,,,,,,,11,,,45,0
274524,note_on,84,0,11,,,,,,,,10,,,57,0
274530,note_on,930,0,3,,,,,,,,2,,,66,0
274534,note_on,94,0,10,,,,,,,,8,,,69,0
274534,note_on,94,0,8,,,,,,,,4,,,87,0
274540,note_on,6,0,8,,,,,,,,4,,,90,0
274556,note_on,26,0,3,,,,,,,,2,,,75,0
274560,note_on,50,0,7,,,,,,,,7,,,43,96
274560,note_on,0,0,1,,,,,,,,0,,,91,64
274560,note_on,0,0,3,,,,,,,,2,,,76,64
274560,note_on,36,0,12,,,,,,,,11,,,43,96
274560,note_on,0,0,12,,,,,,,,11,,,45,96
274560,note_on,26,0,10,,,,,,,,8,,,67,127
274560,note_on,64,0,1,,,,,,,,0,,,88,64
274560,note_on,20,0,8,,,,,,,,4,,,88,127
274560,note_on,4,0,3,,,,,,,,2,,,67,64
274560,note_on,48,0,4,,,,,,,,3,,,43,64
274560,note_on,0,0,8,,,,,,,,4,,,91,127
274560,note_on,0,0,4,,,,,,,,3,,,55,64
274560,note_on,36,0,11,,,,,,,,10,,,57,127
274560,note_on,0,0,11,,,,,,,,10,,,55,127
274616,note_on,56,0,11,,,,,,,,10,,,57,0
274616,note_on,56,0,12,,,,,,,,11,,,45,0
274630,note_on,14,0,12,,,,,,,,11,,,43,0
274630,note_on,14,0,11,,,,,,,,10,,,55,0
274630,note_on,70,0,7,,,,,,,,7,,,43,0
274650,note_on,90,0,10,,,,,,,,8,,,67,0
274650,note_on,90,0,8,,,,,,,,4,,,91,0
274660,note_on,10,0,8,,,,,,,,4,,,88,0
274680,note_on,20,0,8,,,,,,,,4,,,91,127
274680,note_on,50,0,12,,,,,,,,11,,,43,96
274680,note_on,50,0,7,,,,,,,,7,,,43,96
274680,note_on,30,0,10,,,,,,,,8,,,67,127
274680,note_on,0,0,8,,,,,,,,4,,,88,127
274680,note_on,50,0,11,,,,,,,,10,,,55,127
274744,note_on,64,0,7,,,,,,,,7,,,43,0
274762,note_on,82,0,12,,,,,,,,11,,,43,0
274762,note_on,82,0,11,,,,,,,,10,,,55,0
274764,note_on,84,0,8,,,,,,,,4,,,91,0
274766,note_on,86,0,10,,,,,,,,8,,,67,0
274766,note_on,2,0,8,,,,,,,,4,,,88,0
274800,note_on,34,0,10,,,,,,,,8,,,67,127
274800,note_on,38,0,12,,,,,,,,11,,,43,96
274800,note_on,0,0,8,,,,,,,,4,,,91,127
274800,note_on,34,0,8,,,,,,,,4,,,88,127
274800,note_on,56,0,7,,,,,,,,7,,,43,96
274800,note_on,38,0,11,,,,,,,,10,,,55,127
274864,note_on,64,0,7,,,,,,,,7,,,43,0
274872,note_on,72,0,12,,,,,,,,11,,,43,0
274872,note_on,72,0,11,,,,,,,,10,,,55,0
274874,note_on,74,0,8,,,,,,,,4,,,88,0
274880,note_on,6,0,8,,,,,,,,4,,,91,0
274880,note_on,80,0,10,,,,,,,,8,,,67,0
274890,note_on,1290,0,6,,,,,,,,6,,,72,0
274890,note_on,1290,0,5,,,,,,,,5,,,60,0
274892,note_on,1292,0,2,,,,,,,,1,,,72,0
274904,note_on,344,0,3,,,,,,,,2,,,76,0
274920,note_on,56,0,7,,,,,,,,7,,,43,96
274920,note_on,48,0,11,,,,,,,,10,,,55,127
274920,note_on,40,0,10,,,,,,,,8,,,67,127
274920,note_on,0,0,8,,,,,,,,4,,,88,127
274920,note_on,40,0,8,,,,,,,,4,,,91,127
274920,note_on,48,0,12,,,,,,,,11,,,43,96
274924,note_on,32,0,2,,,,,,,,1,,,84,0
274944,note_on,54,0,6,,,,,,,,6,,,60,0
274944,note_on,54,0,5,,,,,,,,5,,,48,0
274972,note_on,68,0,3,,,,,,,,2,,,67,0
274974,note_on,54,0,7,,,,,,,,7,,,43,0
274980,note_on,60,0,12,,,,,,,,11,,,43,0
274980,note_on,60,0,11,,,,,,,,10,,,55,0
274992,note_on,432,0,1,,,,,,,,0,,,88,0
274992,note_on,432,0,4,,,,,,,,3,,,55,0
275002,note_on,82,0,10,,,,,,,,8,,,67,0
275010,note_on,90,0,8,,,,,,,,4,,,88,0
275012,note_on,2,0,8,,,,,,,,4,,,91,0
275014,note_on,22,0,4,,,,,,,,3,,,43,0
275014,note_on,22,0,1,,,,,,,,0,,,91,0
275040,note_on,26,0,1,,,,,,,,0,,,83,64
275040,note_on,0,0,8,,,,,,,,4,,,83,127
275040,note_on,116,0,2,,,,,,,,1,,,77,64
275040,note_on,0,0,2,,,,,,,,1,,,74,64
275040,note_on,28,0,8,,,,,,,,4,,,77,127
275040,note_on,60,0,12,,,,,,,,11,,,31,96
275040,note_on,26,0,4,,,,,,,,3,,,55,64
275040,note_on,0,0,1,,,,,,,,0,,,77,64
275040,note_on,0,0,4,,,,,,,,3,,,43,64
275040,note_on,66,0,7,,,,,,,,7,,,43,96
275040,note_on,68,0,3,,,,,,,,2,,,65,64
275040,note_on,0,0,6,,,,,,,,6,,,74,64
275040,note_on,0,0,3,,,,,,,,2,,,71,64
275040,note_on,38,0,10,,,,,,,,8,,,62,127
275040,note_on,0,0,5,,,,,,,,5,,,55,64
275040,note_on,96,0,5,,,,,,,,5,,,62,64
275040,note_on,60,0,11,,,,,,,,10,,,43,127
275040,note_on,96,0,6,,,,,,,,6,,,67,64
275100,note_on,60,0,7,,,,,,,,7,,,43,0
275120,note_on,80,0,10,,,,,,,,8,,,62,0
275120,note_on,80,0,11,,,,,,,,10,,,43,0
275120,note_on,80,0,12,,,,,,,,11,,,31,0
275132,note_on,92,0,8,,,,,,,,4,,,77,0
275136,note_on,4,0,8,,,,,,,,4,,,83,0
275160,note_on,40,0,10,,,,,,,,8,,,62,127
275160,note_on,40,0,12,,,,,,,,11,,,31,96
275160,note_on,60,0,7,,,,,,,,7,,,43,96
275160,note_on,40,0,11,,,,,,,,10,,,43,127
275160,note_on,0,0,8,,,,,,,,4,,,77,127
275160,note_on,24,0,8,,,,,,,,4,,,83,127
275220,note_on,60,0,7,,,,,,,,7,,,43,0
275236,note_on,76,0,10,,,,,,,,8,,,62,0
275242,note_on,82,0,12,,,,,,,,11,,,31,0
275242,note_on,82,0,11,,,,,,,,10,,,43,0
275244,note_on,84,0,8,,,,,,,,4,,,77,0
275250,note_on,6,0,8,,,,,,,,4,,,83,0
275280,note_on,38,0,12,,,,,,,,11,,,31,96
275280,note_on,60,0,7,,,,,,,,7,,,43,96
275280,note_on,0,0,8,,,,,,,,4,,,83,127
275280,note_on,44,0,10,,,,,,,,8,,,62,127
275280,note_on,38,0,11,,,,,,,,10,,,43,127
275280,note_on,30,0,8,,,,,,,,4,,,77,127
275346,note_on,66,0,7,,,,,,,,7,,,43,0
275346,note_on,66,0,8,,,,,,,,4,,,77,0
275356,note_on,76,0,11,,,,,,,,10,,,43,0
275356,note_on,76,0,12,,,,,,,,11,,,31,0
275360,note_on,80,0,10,,,,,,,,8,,,62,0
275372,note_on,332,0,6,,,,,,,,6,,,74,0
275372,note_on,332,0,5,,,,,,,,5,,,62,0
275374,note_on,28,0,8,,,,,,,,4,,,83,0
275376,note_on,4,0,6,,,,,,,,6,,,67,0
275376,note_on,4,0,5,,,,,,,,5,,,55,0
275382,note_on,342,0,2,,,,,,,,1,,,77,0
275400,note_on,40,0,10,,,,,,,,8,,,62,127
275400,note_on,44,0,11,,,,,,,,10,,,43,127
275400,note_on,18,0,2,,,,,,,,1,,,74,0
275400,note_on,44,0,12,,,,,,,,11,,,31,96
275400,note_on,26,0,8,,,,,,,,4,,,83,127
275400,note_on,0,0,8,,,,,,,,4,,,77,127
275400,note_on,54,0,7,,,,,,,,7,,,43,96
275414,note_on,374,0,4,,,,,,,,3,,,55,0
275426,note_on,386,0,1,,,,,,,,0,,,83,0
275444,note_on,30,0,4,,,,,,,,3,,,43,0
275454,note_on,28,0,1,,,,,,,,0,,,77,0
275484,note_on,444,0,3,,,,,,,,2,,,65,0
275484,note_on,84,0,10,,,,,,,,8,,,62,0
275486,note_on,86,0,12,,,,,,,,11,,,31,0
275486,note_on,86,0,8,,,,,,,,4,,,83,0
275486,note_on,86,0,11,,,,,,,,10,,,43,0
275490,note_on,90,0,7,,,,,,,,7,,,43,0
275494,note_on,8,0,8,,,,,,,,4,,,77,0
275512,note_on,28,0,3,,,,,,,,2,,,71,0
275520,note_on,34,0,11,,,,,,,,10,,,48,96
275520,note_on,30,0,7,,,,,,,,7,,,48,64
275520,note_on,36,0,10,,,,,,,,8,,,60,96
275520,note_on,0,0,8,,,,,,,,4,,,84,96
275520,note_on,0,0,2,,,,,,,,1,,,76,64
275520,note_on,0,0,5,,,,,,,,5,,,60,64
275520,note_on,26,0,8,,,,,,,,4,,,76,96
275520,note_on,66,0,1,,,,,,,,0,,,76,64
275520,note_on,34,0,12,,,,,,,,11,,,36,64
275520,note_on,0,0,1,,,,,,,,0,,,84,64
275520,note_on,8,0,3,,,,,,,,2,,,72,64
275520,note_on,0,0,4,,,,,,,,3,,,60,64
275520,note_on,76,0,4,,,,,,,,3,,,48,64
275520,note_on,120,0,2,,,,,,,,1,,,72,64
275520,note_on,0,0,6,,,,,,,,6,,,72,64
275520,note_on,144,0,5,,,,,,,,5,,,52,64
275520,note_on,144,0,6,,,,,,,,6,,,60,64
275520,note_on,0,0,3,,,,,,,,2,,,64,64
275576,note_on,56,0,8,,,,,,,,4,,,76,0
275604,note_on,28,0,8,,,,,,,,4,,,84,0
275606,note_on,86,0,1,,,,,,,,0,,,76,0
275606,note_on,86,0,2,,,,,,,,1,,,76,0
275610,note_on,4,0,2,,,,,,,,1,,,72,0
275614,note_on,94,0,7,,,,,,,,7,,,48,0
275614,note_on,0,0,6,,,,,,,,6,,,60,0
275614,note_on,94,0,6,,,,,,,,6,,,72,0
275616,note_on,96,0,3,,,,,,,,2,,,64,0
275616,note_on,10,0,1,,,,,,,,0,,,84,0
275620,note_on,100,0,4,,,,,,,,3,,,48,0
275624,note_on,4,0,4,,,,,,,,3,,,60,0
275626,note_on,10,0,3,,,,,,,,2,,,72,0
275632,note_on,112,0,5,,,,,,,,5,,,52,0
275636,note_on,4,0,5,,,,,,,,5,,,60,0
275640,note_on,0,0,8,,,,,,,,4,,,67,96
275640,note_on,36,0,8,,,,,,,,4,,,55,96
275722,note_on,82,0,8,,,,,,,,4,,,55,0
275724,note_on,2,0,8,,,,,,,,4,,,67,0
275760,note_on,0,0,8,,,,,,,,4,,,69,96
275760,note_on,36,0,8,,,,,,,,4,,,57,96
275840,note_on,80,0,8,,,,,,,,4,,,57,0
275844,note_on,4,0,8,,,,,,,,4,,,69,0
275880,note_on,36,0,8,,,,,,,,4,,,71,96
275880,note_on,0,0,8,,,,,,,,4,,,59,96
275960,note_on,80,0,8,,,,,,,,4,,,59,0
275964,note_on,4,0,8,,,,,,,,4,,,71,0
276000,note_on,384,0,1,,,,,,,,0,,,84,64
276000,note_on,386,0,6,,,,,,,,6,,,72,64
276000,note_on,0,0,6,,,,,,,,6,,,60,64
276000,note_on,386,0,7,,,,,,,,7,,,48,64
276000,note_on,376,0,4,,,,,,,,3,,,48,64
276000,note_on,0,0,4,,,,,,,,3,,,60,64
276000,note_on,0,0,8,,,,,,,,4,,,72,96
276000,note_on,36,0,8,,,,,,,,4,,,60,96
276000,note_on,0,0,3,,,,,,,,2,,,72,64
276000,note_on,374,0,3,,,,,,,,2,,,64,64
276000,note_on,364,0,5,,,,,,,,5,,,48,64
276000,note_on,0,0,5,,,,,,,,5,,,60,64
276000,note_on,390,0,2,,,,,,,,1,,,72,64
276000,note_on,0,0,2,,,,,,,,1,,,76,64
276072,note_on,72,0,8,,,,,,,,4,,,60,0
276084,note_on,12,0,8,,,,,,,,4,,,72,0
276084,note_on,84,0,1,,,,,,,,0,,,84,0
276112,note_on,112,0,6,,,,,,,,6,,,60,0
276112,note_on,112,0,7,,,,,,,,7,,,48,0
276112,note_on,0,0,6,,,,,,,,6,,,72,0
276120,note_on,0,0,8,,,,,,,,4,,,74,96
276120,note_on,36,0,8,,,,,,,,4,,,62,96
276190,note_on,70,0,8,,,,,,,,4,,,62,0
276204,note_on,14,0,8,,,,,,,,4,,,74,0
276222,note_on,702,0,10,,,,,,,,8,,,60,0
276240,note_on,36,0,8,,,,,,,,4,,,64,96
276240,note_on,0,0,8,,,,,,,,4,,,76,96
276312,note_on,72,0,8,,,,,,,,4,,,64,0
276324,note_on,12,0,8,,,,,,,,4,,,76,0
276326,note_on,326,0,5,,,,,,,,5,,,48,0
276342,note_on,16,0,5,,,,,,,,5,,,60,0
276360,note_on,36,0,8,,,,,,,,4,,,74,96
276360,note_on,0,0,8,,,,,,,,4,,,62,96
276366,note_on,366,0,2,,,,,,,,1,,,72,0
276366,note_on,366,0,4,,,,,,,,3,,,48,0
276370,note_on,4,0,4,,,,,,,,3,,,60,0
276376,note_on,10,0,2,,,,,,,,1,,,76,0
276382,note_on,862,0,11,,,,,,,,10,,,48,0
276382,note_on,862,0,12,,,,,,,,11,,,36,0
276392,note_on,392,0,3,,,,,,,,2,,,64,0
276402,note_on,10,0,3,,,,,,,,2,,,72,0
276430,note_on,70,0,8,,,,,,,,4,,,62,0
276444,note_on,14,0,8,,,,,,,,4,,,74,0
276480,note_on,98,0,12,,,,,,,,11,,,33,64
276480,note_on,0,0,8,,,,,,,,4,,,73,96
276480,note_on,36,0,8,,,,,,,,4,,,61,96
276480,note_on,98,0,11,,,,,,,,10,,,45,96
276480,note_on,258,0,10,,,,,,,,8,,,57,96
276560,note_on,80,0,8,,,,,,,,4,,,61,0
276564,note_on,4,0,8,,,,,,,,4,,,73,0
276600,note_on,0,0,8,,,,,,,,4,,,71,96
276600,note_on,36,0,8,,,,,,,,4,,,59,96
276674,note_on,74,0,8,,,,,,,,4,,,59,0
276684,note_on,10,0,8,,,,,,,,4,,,71,0
276720,note_on,36,0,8,,,,,,,,4,,,57,96
276720,note_on,0,0,8,,,,,,,,4,,,69,96
276804,note_on,84,0,8,,,,,,,,4,,,69,0
276804,note_on,0,0,8,,,,,,,,4,,,57,0
276840,note_on,0,0,8,,,,,,,,4,,,71,96
276840,note_on,36,0,8,,,,,,,,4,,,59,96
276914,note_on,74,0,8,,,,,,,,4,,,59,0
276924,note_on,10,0,8,,,,,,,,4,,,71,0
276960,note_on,0,0,8,,,,,,,,4,,,73,96
276960,note_on,36,0,8,,,,,,,,4,,,61,96
276960,note_on,618,0,5,,,,,,,,5,,,52,64
276960,note_on,584,0,2,,,,,,,,1,,,73,64
276960,note_on,0,0,4,,,,,,,,3,,,45,64
276960,note_on,0,0,3,,,,,,,,2,,,73,64
276960,note_on,876,0,1,,,,,,,,0,,,85,64
276960,note_on,558,0,3,,,,,,,,2,,,64,64
276960,note_on,0,0,5,,,,,,,,5,,,64,64
276960,note_on,0,0,2,,,,,,,,1,,,76,64
276960,note_on,590,0,4,,,,,,,,3,,,57,64
277042,note_on,82,0,8,,,,,,,,4,,,61,0
277044,note_on,2,0,8,,,,,,,,4,,,73,0
277080,note_on,36,0,8,,,,,,,,4,,,74,96
277080,note_on,0,0,8,,,,,,,,4,,,62,96
277160,note_on,80,0,8,,,,,,,,4,,,62,0
277164,note_on,4,0,8,,,,,,,,4,,,74,0
277190,note_on,230,0,1,,,,,,,,0,,,85,0
277200,note_on,0,0,8,,,,,,,,4,,,64,96
277200,note_on,36,0,8,,,,,,,,4,,,76,96
277276,note_on,76,0,8,,,,,,,,4,,,64,0
277284,note_on,8,0,8,,,,,,,,4,,,76,0
277320,note_on,0,0,8,,,,,,,,4,,,61,96
277320,note_on,36,0,8,,,,,,,,4,,,73,96
277346,note_on,386,0,5,,,,,,,,5,,,52,0
277352,note_on,872,0,11,,,,,,,,10,,,45,0
277352,note_on,872,0,12,,,,,,,,11,,,33,0
277372,note_on,892,0,10,,,,,,,,8,,,57,0
277372,note_on,412,0,3,,,,,,,,2,,,64,0
277386,note_on,40,0,5,,,,,,,,5,,,64,0
277396,note_on,0,0,4,,,,,,,,3,,,57,0
277396,note_on,24,0,3,,,,,,,,2,,,73,0
277396,note_on,436,0,4,,,,,,,,3,,,45,0
277396,note_on,76,0,8,,,,,,,,4,,,61,0
277404,note_on,8,0,8,,,,,,,,4,,,73,0
277412,note_on,452,0,2,,,,,,,,1,,,73,0
277420,note_on,8,0,2,,,,,,,,1,,,76,0
277440,note_on,88,0,11,,,,,,,,10,,,50,96
277440,note_on,0,0,8,,,,,,,,4,,,74,96
277440,note_on,36,0,8,,,,,,,,4,,,62,96
277440,note_on,68,0,10,,,,,,,,8,,,62,96
277440,note_on,88,0,12,,,,,,,,11,,,38,64
277514,note_on,74,0,8,,,,,,,,4,,,62,0
277524,note_on,10,0,8,,,,,,,,4,,,74,0
277560,note_on,36,0,8,,,,,,,,4,,,57,96
277560,note_on,0,0,8,,,,,,,,4,,,69,96
277644,note_on,0,0,8,,,,,,,,4,,,57,0
277644,note_on,84,0,8,,,,,,,,4,,,69,0
277680,note_on,0,0,8,,,,,,,,4,,,71,96
277680,note_on,36,0,8,,,,,,,,4,,,59,96
277756,note_on,76,0,8,,,,,,,,4,,,59,0
277764,note_on,8,0,8,,,,,,,,4,,,71,0
277800,note_on,0,0,8,,,,,,,,4,,,73,96
277800,note_on,36,0,8,,,,,,,,4,,,61,96
277880,note_on,80,0,8,,,,,,,,4,,,61,0
277884,note_on,4,0,8,,,,,,,,4,,,73,0
277920,note_on,534,0,5,,,,,,,,5,,,62,64
277920,note_on,524,0,4,,,,,,,,3,,,50,64
277920,note_on,0,0,4,,,,,,,,3,,,62,64
277920,note_on,730,0,1,,,,,,,,0,,,86,64
277920,note_on,524,0,3,,,,,,,,2,,,74,64
277920,note_on,0,0,3,,,,,,,,2,,,65,64
277920,note_on,0,0,5,,,,,,,,5,,,65,64
277920,note_on,36,0,8,,,,,,,,4,,,74,96
277920,note_on,0,0,8,,,,,,,,4,,,62,96
277920,note_on,500,0,2,,,,,,,,1,,,74,64
277920,note_on,0,0,2,,,,,,,,1,,,77,64
278004,note_on,84,0,8,,,,,,,,4,,,74,0
278006,note_on,2,0,8,,,,,,,,4,,,62,0
278040,note_on,34,0,8,,,,,,,,4,,,76,96
278040,note_on,0,0,8,,,,,,,,4,,,64,96
278120,note_on,80,0,8,,,,,,,,4,,,64,0
278124,note_on,4,0,8,,,,,,,,4,,,76,0
278160,note_on,36,0,8,,,,,,,,4,,,77,96
278160,note_on,0,0,8,,,,,,,,4,,,65,96
278174,note_on,254,0,1,,,,,,,,0,,,86,0
278234,note_on,74,0,8,,,,,,,,4,,,65,0
278244,note_on,10,0,8,,,,,,,,4,,,77,0
278280,note_on,36,0,8,,,,,,,,4,,,74,96
278280,note_on,0,0,8,,,,,,,,4,,,62,96
278292,note_on,852,0,12,,,,,,,,11,,,38,0
278292,note_on,852,0,11,,,,,,,,10,,,50,0
278324,note_on,404,0,5,,,,,,,,5,,,62,0
278324,note_on,884,0,10,,,,,,,,8,,,62,0
278334,note_on,10,0,5,,,,,,,,5,,,65,0
278354,note_on,434,0,4,,,,,,,,3,,,50,0
278354,note_on,0,0,2,,,,,,,,1,,,74,0
278354,note_on,434,0,2,,,,,,,,1,,,77,0
278356,note_on,76,0,8,,,,,,,,4,,,62,0
278364,note_on,8,0,8,,,,,,,,4,,,74,0
278366,note_on,12,0,4,,,,,,,,3,,,62,0
278374,note_on,454,0,3,,,,,,,,2,,,74,0
278376,note_on,2,0,3,,,,,,,,2,,,65,0
278400,note_on,36,0,8,,,,,,,,4,,,59,96
278400,note_on,108,0,12,,,,,,,,11,,,31,64
278400,note_on,0,0,8,,,,,,,,4,,,71,96
278400,note_on,108,0,11,,,,,,,,10,,,43,96
278400,note_on,76,0,10,,,,,,,,8,,,55,96
278474,note_on,74,0,8,,,,,,,,4,,,59,0
278484,note_on,10,0,8,,,,,,,,4,,,71,0
278520,note_on,0,0,8,,,,,,,,4,,,69,96
278520,note_on,36,0,8,,,,,,,,4,,,57,96
278602,note_on,82,0,8,,,,,,,,4,,,57,0
278604,note_on,2,0,8,,,,,,,,4,,,69,0
278640,note_on,36,0,8,,,,,,,,4,,,67,96
278640,note_on,0,0,8,,,,,,,,4,,,55,96
278720,note_on,80,0,8,,,,,,,,4,,,55,0
278724,note_on,4,0,8,,,,,,,,4,,,67,0
278760,note_on,0,0,8,,,,,,,,4,,,57,96
278760,note_on,36,0,8,,,,,,,,4,,,69,96
278834,note_on,74,0,8,,,,,,,,4,,,57,0
278844,note_on,10,0,8,,,,,,,,4,,,69,0
278880,note_on,2768,0,7,,,,,,,,7,,,43,64
278880,note_on,0,0,4,,,,,,,,3,,,43,64
278880,note_on,526,0,2,,,,,,,,1,,,71,64
278880,note_on,0,0,6,,,,,,,,6,,,55,64
278880,note_on,2768,0,6,,,,,,,,6,,,67,64
278880,note_on,0,0,5,,,,,,,,5,,,62,64
278880,note_on,0,0,2,,,,,,,,1,,,74,64
278880,note_on,514,0,4,,,,,,,,3,,,55,64
278880,note_on,546,0,5,,,,,,,,5,,,55,64
278880,note_on,706,0,1,,,,,,,,0,,,83,64
278880,note_on,36,0,8,,,,,,,,4,,,59,96
278880,note_on,504,0,3,,,,,,,,2,,,62,64
278880,note_on,0,0,3,,,,,,,,2,,,71,64
278880,note_on,0,0,8,,,,,,,,4,,,71,96
278952,note_on,72,0,8,,,,,,,,4,,,59,0
278964,note_on,12,0,8,,,,,,,,4,,,71,0
278994,note_on,114,0,7,,,,,,,,7,,,43,0
278994,note_on,0,0,6,,,,,,,,6,,,67,0
278994,note_on,114,0,6,,,,,,,,6,,,55,0
279000,note_on,0,0,8,,,,,,,,4,,,72,96
279000,note_on,36,0,8,,,,,,,,4,,,60,96
279072,note_on,72,0,8,,,,,,,,4,,,60,0
279084,note_on,12,0,8,,,,,,,,4,,,72,0
279120,note_on,0,0,8,,,,,,,,4,,,74,96
279120,note_on,36,0,8,,,,,,,,4,,,62,96
279184,note_on,304,0,1,,,,,,,,0,,,83,0
279186,note_on,66,0,8,,,,,,,,4,,,62,0
279204,note_on,18,0,8,,,,,,,,4,,,74,0
279240,note_on,36,0,8,,,,,,,,4,,,71,96
279240,note_on,0,0,8,,,,,,,,4,,,59,96
279282,note_on,882,0,11,,,,,,,,10,,,43,0
279282,note_on,882,0,12,,,,,,,,11,,,31,0
279300,note_on,60,0,8,,,,,,,,4,,,59,0
279306,note_on,426,0,5,,,,,,,,5,,,55,0
279310,note_on,910,0,10,,,,,,,,8,,,55,0
279316,note_on,436,0,3,,,,,,,,2,,,62,0
279322,note_on,16,0,5,,,,,,,,5,,,62,0
279322,note_on,442,0,2,,,,,,,,1,,,71,0
279324,note_on,24,0,8,,,,,,,,4,,,71,0
279326,note_on,10,0,3,,,,,,,,2,,,71,0
279336,note_on,14,0,2,,,,,,,,1,,,74,0
279342,note_on,462,0,4,,,,,,,,3,,,43,0
279360,note_on,0,0,8,,,,,,,,4,,,72,96
279360,note_on,36,0,8,,,,,,,,4,,,60,96
279360,note_on,78,0,12,,,,,,,,11,,,36,64
279360,note_on,78,0,11,,,,,,,,10,,,48,96
279360,note_on,50,0,10,,,,,,,,8,,,60,96
279366,note_on,24,0,4,,,,,,,,3,,,55,0
279434,note_on,74,0,8,,,,,,,,4,,,60,0
279444,note_on,10,0,8,,,,,,,,4,,,72,0
279480,note_on,36,0,8,,,,,,,,4,,,67,96
279480,note_on,0,0,8,,,,,,,,4,,,55,96
279560,note_on,80,0,8,,,,,,,,4,,,55,0
279564,note_on,4,0,8,,,,,,,,4,,,67,0
279600,note_on,36,0,8,,,,,,,,4,,,69,96
279600,note_on,0,0,8,,,,,,,,4,,,57,96
279680,note_on,80,0,8,,,,,,,,4,,,57,0
279684,note_on,4,0,8,,,,,,,,4,,,69,0
279720,note_on,0,0,8,,,,,,,,4,,,59,96
279720,note_on,36,0,8,,,,,,,,4,,,71,96
279794,note_on,74,0,8,,,,,,,,4,,,59,0
279804,note_on,10,0,8,,,,,,,,4,,,71,0
279840,note_on,0,0,8,,,,,,,,4,,,60,96
279840,note_on,656,0,1,,,,,,,,0,,,84,64
279840,note_on,0,0,1,,,,,,,,0,,,88,64
279840,note_on,474,0,4,,,,,,,,3,,,60,64
279840,note_on,0,0,4,,,,,,,,3,,,48,64
279840,note_on,0,0,6,,,,,,,,6,,,60,64
279840,note_on,0,0,5,,,,,,,,5,,,60,64
279840,note_on,846,0,7,,,,,,,,7,,,48,64
279840,note_on,0,0,2,,,,,,,,1,,,72,64
279840,note_on,504,0,2,,,,,,,,1,,,76,64
279840,note_on,514,0,3,,,,,,,,2,,,64,64
279840,note_on,846,0,6,,,,,,,,6,,,72,64
279840,note_on,36,0,8,,,,,,,,4,,,72,96
279840,note_on,0,0,3,,,,,,,,2,,,60,64
279840,note_on,518,0,5,,,,,,,,5,,,64,64
279924,note_on,84,0,8,,,,,,,,4,,,72,0
279926,note_on,2,0,8,,,,,,,,4,,,60,0
279960,note_on,34,0,8,,,,,,,,4,,,62,96
279960,note_on,0,0,8,,,,,,,,4,,,74,96
280030,note_on,70,0,8,,,,,,,,4,,,62,0
280044,note_on,14,0,8,,,,,,,,4,,,74,0
280080,note_on,0,0,8,,,,,,,,4,,,64,96
280080,note_on,36,0,8,,,,,,,,4,,,76,96
280152,note_on,72,0,8,,,,,,,,4,,,64,0
280164,note_on,12,0,8,,,,,,,,4,,,76,0
280200,note_on,36,0,8,,,,,,,,4,,,74,96
280200,note_on,0,0,8,,,,,,,,4,,,62,96
280202,note_on,362,0,1,,,,,,,,0,,,84,0
280232,note_on,872,0,10,,,,,,,,8,,,60,0
280240,note_on,880,0,12,,,,,,,,11,,,36,0
280240,note_on,880,0,11,,,,,,,,10,,,48,0
280246,note_on,406,0,5,,,,,,,,5,,,60,0
280260,note_on,420,0,4,,,,,,,,3,,,48,0
280260,note_on,58,0,1,,,,,,,,0,,,88,0
280266,note_on,66,0,8,,,,,,,,4,,,62,0
280270,note_on,10,0,4,,,,,,,,3,,,60,0
280270,note_on,24,0,5,,,,,,,,5,,,64,0
280276,note_on,436,0,2,,,,,,,,1,,,76,0
280284,note_on,18,0,8,,,,,,,,4,,,74,0
280286,note_on,10,0,2,,,,,,,,1,,,72,0
280290,note_on,450,0,6,,,,,,,,6,,,60,0
280290,note_on,0,0,6,,,,,,,,6,,,72,0
280290,note_on,450,0,7,,,,,,,,7,,,48,0
280294,note_on,454,0,3,,,,,,,,2,,,64,0
280300,note_on,6,0,3,,,,,,,,2,,,60,0
280320,note_on,88,0,10,,,,,,,,8,,,57,96
280320,note_on,80,0,11,,,,,,,,10,,,45,96
280320,note_on,80,0,12,,,,,,,,11,,,33,64
280320,note_on,0,0,8,,,,,,,,4,,,73,96
280320,note_on,36,0,8,,,,,,,,4,,,61,96
280396,note_on,76,0,8,,,,,,,,4,,,61,0
280404,note_on,8,0,8,,,,,,,,4,,,73,0
280440,note_on,0,0,8,,,,,,,,4,,,71,96
280440,note_on,36,0,8,,,,,,,,4,,,59,96
280506,note_on,66,0,8,,,,,,,,4,,,59,0
280524,note_on,18,0,8,,,,,,,,4,,,71,0
280560,note_on,0,0,8,,,,,,,,4,,,69,96
280560,note_on,36,0,8,,,,,,,,4,,,57,96
280640,note_on,80,0,8,,,,,,,,4,,,57,0
280644,note_on,4,0,8,,,,,,,,4,,,69,0
280680,note_on,36,0,8,,,,,,,,4,,,59,96
280680,note_on,0,0,8,,,,,,,,4,,,71,96
280746,note_on,66,0,8,,,,,,,,4,,,59,0
280764,note_on,18,0,8,,,,,,,,4,,,71,0
280800,note_on,530,0,4,,,,,,,,3,,,45,64
280800,note_on,540,0,1,,,,,,,,0,,,85,64
280800,note_on,0,0,1,,,,,,,,0,,,88,64
280800,note_on,530,0,5,,,,,,,,5,,,64,64
280800,note_on,0,0,2,,,,,,,,1,,,73,64
280800,note_on,514,0,2,,,,,,,,1,,,76,64
280800,note_on,0,0,4,,,,,,,,3,,,57,64
280800,note_on,500,0,3,,,,,,,,2,,,64,64
280800,note_on,0,0,3,,,,,,,,2,,,61,64
280800,note_on,0,0,8,,,,,,,,4,,,73,96
280800,note_on,36,0,8,,,,,,,,4,,,61,96
280882,note_on,82,0,8,,,,,,,,4,,,61,0
280884,note_on,2,0,8,,,,,,,,4,,,73,0
280920,note_on,36,0,8,,,,,,,,4,,,74,96
280920,note_on,0,0,8,,,,,,,,4,,,62,96
280992,note_on,72,0,8,,,,,,,,4,,,62,0
281004,note_on,12,0,8,,,,,,,,4,,,74,0
281040,note_on,0,0,8,,,,,,,,4,,,64,96
281040,note_on,36,0,8,,,,,,,,4,,,76,96
281120,note_on,80,0,8,,,,,,,,4,,,64,0
281124,note_on,4,0,8,,,,,,,,4,,,76,0
281160,note_on,0,0,8,,,,,,,,4,,,61,96
281160,note_on,36,0,8,,,,,,,,4,,,73,96
281190,note_on,870,0,11,,,,,,,,10,,,45,0
281190,note_on,870,0,12,,,,,,,,11,,,33,0
281196,note_on,396,0,5,,,,,,,,5,,,64,0
281230,note_on,430,0,3,,,,,,,,2,,,64,0
281236,note_on,6,0,3,,,,,,,,2,,,61,0
281240,note_on,80,0,8,,,,,,,,4,,,61,0
281244,note_on,4,0,8,,,,,,,,4,,,73,0
281246,note_on,446,0,4,,,,,,,,3,,,45,0
281252,note_on,932,0,10,,,,,,,,8,,,57,0
281254,note_on,454,0,1,,,,,,,,0,,,85,0
281254,note_on,8,0,4,,,,,,,,3,,,57,0
281256,note_on,456,0,2,,,,,,,,1,,,76,0
281262,note_on,6,0,2,,,,,,,,1,,,73,0
281280,note_on,26,0,1,,,,,,,,0,,,88,0
281280,note_on,28,0,10,,,,,,,,8,,,62,96
281280,note_on,36,0,8,,,,,,,,4,,,62,96
281280,note_on,90,0,11,,,,,,,,10,,,50,96
281280,note_on,0,0,8,,,,,,,,4,,,74,96
281280,note_on,90,0,12,,,,,,,,11,,,38,64
281354,note_on,74,0,8,,,,,,,,4,,,62,0
281364,note_on,10,0,8,,,,,,,,4,,,74,0
281400,note_on,36,0,8,,,,,,,,4,,,57,96
281400,note_on,0,0,8,,,,,,,,4,,,69,96
281482,note_on,82,0,8,,,,,,,,4,,,57,0
281484,note_on,2,0,8,,,,,,,,4,,,69,0
281520,note_on,0,0,8,,,,,,,,4,,,71,96
281520,note_on,36,0,8,,,,,,,,4,,,59,96
281594,note_on,74,0,8,,,,,,,,4,,,59,0
281604,note_on,10,0,8,,,,,,,,4,,,71,0
281640,note_on,0,0,8,,,,,,,,4,,,73,96
281640,note_on,36,0,8,,,,,,,,4,,,61,96
281720,note_on,80,0,8,,,,,,,,4,,,61,0
281724,note_on,4,0,8,,,,,,,,4,,,73,0
281760,note_on,524,0,3,,,,,,,,2,,,65,64
281760,note_on,0,0,3,,,,,,,,2,,,62,64
281760,note_on,0,0,2,,,,,,,,1,,,77,64
281760,note_on,0,0,4,,,,,,,,3,,,62,64
281760,note_on,36,0,8,,,,,,,,4,,,74,96
281760,note_on,506,0,4,,,,,,,,3,,,50,64
281760,note_on,498,0,2,,,,,,,,1,,,74,64
281760,note_on,0,0,1,,,,,,,,0,,,89,64
281760,note_on,480,0,1,,,,,,,,0,,,86,64
281760,note_on,0,0,5,,,,,,,,5,,,65,64
281760,note_on,564,0,5,,,,,,,,5,,,62,64
281760,note_on,0,0,8,,,,,,,,4,,,62,96
281844,note_on,84,0,8,,,,,,,,4,,,74,0
281846,note_on,2,0,8,,,,,,,,4,,,62,0
281880,note_on,34,0,8,,,,,,,,4,,,76,96
281880,note_on,0,0,8,,,,,,,,4,,,64,96
281946,note_on,66,0,8,,,,,,,,4,,,64,0
281964,note_on,18,0,8,,,,,,,,4,,,76,0
282000,note_on,0,0,8,,,,,,,,4,,,65,96
282000,note_on,36,0,8,,,,,,,,4,,,77,96
282080,note_on,80,0,8,,,,,,,,4,,,65,0
282084,note_on,4,0,8,,,,,,,,4,,,77,0
282116,note_on,836,0,11,,,,,,,,10,,,50,0
282116,note_on,836,0,12,,,,,,,,11,,,38,0
282120,note_on,36,0,8,,,,,,,,4,,,74,96
282120,note_on,0,0,8,,,,,,,,4,,,62,96
282150,note_on,390,0,5,,,,,,,,5,,,62,0
282152,note_on,2,0,5,,,,,,,,5,,,65,0
282182,note_on,902,0,10,,,,,,,,8,,,62,0
282196,note_on,76,0,8,,,,,,,,4,,,62,0
282204,note_on,8,0,8,,,,,,,,4,,,74,0
282210,note_on,450,0,2,,,,,,,,1,,,74,0
282214,note_on,4,0,2,,,,,,,,1,,,77,0
282220,note_on,0,0,4,,,,,,,,3,,,50,0
282220,note_on,460,0,3,,,,,,,,2,,,65,0
282220,note_on,460,0,4,,,,,,,,3,,,62,0
282224,note_on,464,0,1,,,,,,,,0,,,86,0
282230,note_on,10,0,3,,,,,,,,2,,,62,0
282240,note_on,124,0,11,,,,,,,,10,,,43,96
282240,note_on,36,0,8,,,,,,,,4,,,59,96
282240,note_on,58,0,10,,,,,,,,8,,,55,96
282240,note_on,124,0,12,,,,,,,,11,,,31,64
282240,note_on,16,0,1,,,,,,,,0,,,89,0
282240,note_on,0,0,8,,,,,,,,4,,,71,96
282320,note_on,80,0,8,,,,,,,,4,,,59,0
282324,note_on,4,0,8,,,,,,,,4,,,71,0
282360,note_on,0,0,8,,,,,,,,4,,,57,96
282360,note_on,36,0,8,,,,,,,,4,,,69,96
282440,note_on,80,0,8,,,,,,,,4,,,57,0
282444,note_on,4,0,8,,,,,,,,4,,,69,0
282480,note_on,36,0,8,,,,,,,,4,,,55,96
282480,note_on,0,0,8,,,,,,,,4,,,67,96
282564,note_on,84,0,8,,,,,,,,4,,,67,0
282566,note_on,2,0,8,,,,,,,,4,,,55,0
282600,note_on,34,0,8,,,,,,,,4,,,69,96
282600,note_on,0,0,8,,,,,,,,4,,,57,96
282674,note_on,74,0,8,,,,,,,,4,,,57,0
282684,note_on,10,0,8,,,,,,,,4,,,69,0
282720,note_on,490,0,3,,,,,,,,2,,,59,64
282720,note_on,0,0,5,,,,,,,,5,,,62,64
282720,note_on,0,0,3,,,,,,,,2,,,62,64
282720,note_on,0,0,8,,,,,,,,4,,,71,96
282720,note_on,500,0,4,,,,,,,,3,,,43,64
282720,note_on,568,0,5,,,,,,,,5,,,55,64
282720,note_on,480,0,1,,,,,,,,0,,,86,64
282720,note_on,0,0,1,,,,,,,,0,,,83,64
282720,note_on,0,0,6,,,,,,,,6,,,55,64
282720,note_on,506,0,2,,,,,,,,1,,,71,64
282720,note_on,2430,0,6,,,,,,,,6,,,67,64
282720,note_on,0,0,2,,,,,,,,1,,,74,64
282720,note_on,2430,0,7,,,,,,,,7,,,43,64
282720,note_on,36,0,8,,,,,,,,4,,,59,96
282720,note_on,0,0,4,,,,,,,,3,,,55,64
282794,note_on,74,0,8,,,,,,,,4,,,59,0
282804,note_on,10,0,8,,,,,,,,4,,,71,0
282840,note_on,36,0,8,,,,,,,,4,,,60,96
282840,note_on,0,0,8,,,,,,,,4,,,72,96
282846,note_on,126,0,7,,,,,,,,7,,,43,0
282846,note_on,126,0,6,,,,,,,,6,,,55,0
282846,note_on,0,0,6,,,,,,,,6,,,67,0
282914,note_on,74,0,8,,,,,,,,4,,,60,0
282924,note_on,10,0,8,,,,,,,,4,,,72,0
282960,note_on,0,0,8,,,,,,,,4,,,74,96
282960,note_on,36,0,8,,,,,,,,4,,,62,96
283032,note_on,72,0,8,,,,,,,,4,,,62,0
283044,note_on,12,0,8,,,,,,,,4,,,74,0
283046,note_on,326,0,5,,,,,,,,5,,,55,0
283064,note_on,18,0,5,,,,,,,,5,,,62,0
283070,note_on,350,0,2,,,,,,,,1,,,71,0
283080,note_on,36,0,8,,,,,,,,4,,,71,96
283080,note_on,0,0,8,,,,,,,,4,,,59,96
283082,note_on,12,0,2,,,,,,,,1,,,74,0
283084,note_on,364,0,1,,,,,,,,0,,,86,0
283100,note_on,380,0,3,,,,,,,,2,,,59,0
283106,note_on,386,0,4,,,,,,,,3,,,43,0
283112,note_on,28,0,1,,,,,,,,0,,,83,0
283114,note_on,14,0,3,,,,,,,,2,,,62,0
283122,note_on,16,0,4,,,,,,,,3,,,55,0
283140,note_on,900,0,10,,,,,,,,8,,,55,0
283146,note_on,66,0,8,,,,,,,,4,,,59,0
283160,note_on,920,0,12,,,,,,,,11,,,31,0
283160,note_on,920,0,11,,,,,,,,10,,,43,0
283164,note_on,18,0,8,,,,,,,,4,,,71,0
283200,note_on,0,0,5,,,,,,,,5,,,64,64
283200,note_on,136,0,5,,,,,,,,5,,,60,64
283200,note_on,40,0,12,,,,,,,,11,,,36,64
283200,note_on,86,0,3,,,,,,,,2,,,60,64
283200,note_on,60,0,10,,,,,,,,8,,,60,96
283200,note_on,118,0,2,,,,,,,,1,,,76,64
283200,note_on,0,0,2,,,,,,,,1,,,72,64
283200,note_on,354,0,6,,,,,,,,6,,,72,64
283200,note_on,88,0,1,,,,,,,,0,,,84,64
283200,note_on,0,0,1,,,,,,,,0,,,88,64
283200,note_on,40,0,11,,,,,,,,10,,,48,96
283200,note_on,78,0,4,,,,,,,,3,,,60,64
283200,note_on,0,0,4,,,,,,,,3,,,48,64
283200,note_on,354,0,7,,,,,,,,7,,,48,64
283200,note_on,36,0,8,,,,,,,,4,,,60,96
283200,note_on,0,0,8,,,,,,,,4,,,72,96
283200,note_on,0,0,3,,,,,,,,2,,,64,64
283200,note_on,0,0,6,,,,,,,,6,,,76,64
283272,note_on,72,0,8,,,,,,,,4,,,60,0
283284,note_on,12,0,8,,,,,,,,4,,,72,0
283320,note_on,36,0,8,,,,,,,,4,,,74,96
283320,note_on,0,0,8,,,,,,,,4,,,62,96
283324,note_on,124,0,7,,,,,,,,7,,,48,0
283392,note_on,72,0,8,,,,,,,,4,,,62,0
283404,note_on,12,0,8,,,,,,,,4,,,74,0
283440,note_on,36,0,8,,,,,,,,4,,,76,96
283440,note_on,0,0,8,,,,,,,,4,,,64,96
283516,note_on,76,0,8,,,,,,,,4,,,64,0
283524,note_on,8,0,8,,,,,,,,4,,,76,0
283526,note_on,326,0,6,,,,,,,,6,,,72,0
283526,note_on,326,0,5,,,,,,,,5,,,60,0
283532,note_on,332,0,2,,,,,,,,1,,,76,0
283546,note_on,14,0,2,,,,,,,,1,,,72,0
283550,note_on,24,0,6,,,,,,,,6,,,76,0
283550,note_on,24,0,5,,,,,,,,5,,,64,0
283552,note_on,352,0,1,,,,,,,,0,,,84,0
283554,note_on,354,0,12,,,,,,,,11,,,36,0
283554,note_on,354,0,11,,,,,,,,10,,,48,0
283560,note_on,36,0,8,,,,,,,,4,,,72,96
283560,note_on,0,0,8,,,,,,,,4,,,60,96
283574,note_on,0,0,3,,,,,,,,2,,,60,0
283574,note_on,374,0,3,,,,,,,,2,,,64,0
283584,note_on,32,0,1,,,,,,,,0,,,88,0
283590,note_on,390,0,4,,,,,,,,3,,,60,0
283602,note_on,12,0,4,,,,,,,,3,,,48,0
283630,note_on,430,0,10,,,,,,,,8,,,60,0
283634,note_on,74,0,8,,,,,,,,4,,,60,0
283644,note_on,10,0,8,,,,,,,,4,,,72,0
283680,note_on,126,0,11,,,,,,,,10,,,45,96
283680,note_on,0,0,8,,,,,,,,4,,,73,96
283680,note_on,130,0,5,,,,,,,,5,,,64,64
283680,note_on,50,0,10,,,,,,,,8,,,57,96
283680,note_on,106,0,3,,,,,,,,2,,,61,64
283680,note_on,0,0,3,,,,,,,,2,,,64,64
283680,note_on,126,0,12,,,,,,,,11,,,33,64
283680,note_on,134,0,2,,,,,,,,1,,,73,64
283680,note_on,0,0,2,,,,,,,,1,,,76,64
283680,note_on,0,0,4,,,,,,,,3,,,57,64
283680,note_on,0,0,1,,,,,,,,0,,,88,64
283680,note_on,36,0,8,,,,,,,,4,,,61,96
283680,note_on,78,0,4,,,,,,,,3,,,45,64
283680,note_on,130,0,6,,,,,,,,6,,,76,64
283680,note_on,96,0,1,,,,,,,,0,,,85,64
283760,note_on,80,0,8,,,,,,,,4,,,61,0
283764,note_on,4,0,8,,,,,,,,4,,,73,0
283800,note_on,36,0,8,,,,,,,,4,,,62,96
283800,note_on,0,0,8,,,,,,,,4,,,74,96
283874,note_on,74,0,8,,,,,,,,4,,,62,0
283884,note_on,10,0,8,,,,,,,,4,,,74,0
283920,note_on,36,0,8,,,,,,,,4,,,64,96
283920,note_on,0,0,8,,,,,,,,4,,,76,96
283990,note_on,70,0,8,,,,,,,,4,,,64,0
283994,note_on,314,0,10,,,,,,,,8,,,57,0
283994,note_on,314,0,2,,,,,,,,1,,,73,0
284000,note_on,320,0,6,,,,,,,,6,,,76,0
284000,note_on,320,0,5,,,,,,,,5,,,64,0
284004,note_on,14,0,8,,,,,,,,4,,,76,0
284012,note_on,18,0,2,,,,,,,,1,,,76,0
284040,note_on,0,0,8,,,,,,,,4,,,73,96
284040,note_on,36,0,8,,,,,,,,4,,,61,96
284046,note_on,366,0,11,,,,,,,,10,,,45,0
284046,note_on,366,0,12,,,,,,,,11,,,33,0
284064,note_on,384,0,3,,,,,,,,2,,,61,0
284082,note_on,402,0,1,,,,,,,,0,,,85,0
284082,note_on,18,0,3,,,,,,,,2,,,64,0
284094,note_on,414,0,4,,,,,,,,3,,,45,0
284100,note_on,6,0,4,,,,,,,,3,,,57,0
284102,note_on,20,0,1,,,,,,,,0,,,88,0
284122,note_on,82,0,8,,,,,,,,4,,,61,0
284124,note_on,2,0,8,,,,,,,,4,,,73,0
284160,note_on,0,0,1,,,,,,,,0,,,89,64
284160,note_on,0,0,6,,,,,,,,6,,,77,64
284160,note_on,160,0,6,,,,,,,,6,,,74,64
284160,note_on,114,0,11,,,,,,,,10,,,50,96
284160,note_on,0,0,8,,,,,,,,4,,,74,96
284160,note_on,58,0,1,,,,,,,,0,,,86,64
284160,note_on,148,0,2,,,,,,,,1,,,77,64
284160,note_on,36,0,8,,,,,,,,4,,,62,96
284160,note_on,114,0,12,,,,,,,,11,,,38,64
284160,note_on,0,0,2,,,,,,,,1,,,74,64
284160,note_on,0,0,4,,,,,,,,3,,,50,64
284160,note_on,78,0,3,,,,,,,,2,,,62,64
284160,note_on,0,0,3,,,,,,,,2,,,65,64
284160,note_on,60,0,4,,,,,,,,3,,,62,64
284160,note_on,166,0,10,,,,,,,,8,,,62,96
284160,note_on,160,0,5,,,,,,,,5,,,62,64
284160,note_on,0,0,5,,,,,,,,5,,,65,64
284236,note_on,76,0,8,,,,,,,,4,,,62,0
284244,note_on,8,0,8,,,,,,,,4,,,74,0
284280,note_on,36,0,8,,,,,,,,4,,,76,96
284280,note_on,0,0,8,,,,,,,,4,,,64,96
284360,note_on,80,0,8,,,,,,,,4,,,64,0
284364,note_on,4,0,8,,,,,,,,4,,,76,0
284400,note_on,36,0,8,,,,,,,,4,,,77,96
284400,note_on,0,0,8,,,,,,,,4,,,65,96
284470,note_on,70,0,8,,,,,,,,4,,,65,0
284470,note_on,310,0,2,,,,,,,,1,,,77,0
284474,note_on,4,0,2,,,,,,,,1,,,74,0
284484,note_on,14,0,8,,,,,,,,4,,,77,0
284496,note_on,336,0,5,,,,,,,,5,,,62,0
284496,note_on,336,0,6,,,,,,,,6,,,74,0
284504,note_on,344,0,11,,,,,,,,10,,,50,0
284504,note_on,344,0,12,,,,,,,,11,,,38,0
284510,note_on,350,0,1,,,,,,,,0,,,86,0
284520,note_on,0,0,8,,,,,,,,4,,,62,96
284520,note_on,36,0,8,,,,,,,,4,,,74,96
284532,note_on,372,0,3,,,,,,,,2,,,62,0
284532,note_on,372,0,4,,,,,,,,3,,,62,0
284554,note_on,44,0,1,,,,,,,,0,,,89,0
284566,note_on,406,0,10,,,,,,,,8,,,62,0
284574,note_on,78,0,6,,,,,,,,6,,,77,0
284574,note_on,78,0,5,,,,,,,,5,,,65,0
284576,note_on,44,0,4,,,,,,,,3,,,50,0
284596,note_on,76,0,8,,,,,,,,4,,,62,0
284602,note_on,70,0,3,,,,,,,,2,,,65,0
284604,note_on,8,0,8,,,,,,,,4,,,74,0
284640,note_on,136,0,12,,,,,,,,11,,,31,64
284640,note_on,74,0,10,,,,,,,,8,,,55,96
284640,note_on,0,0,5,,,,,,,,5,,,62,64
284640,note_on,66,0,6,,,,,,,,6,,,67,64
284640,note_on,66,0,5,,,,,,,,5,,,55,64
284640,note_on,38,0,3,,,,,,,,2,,,59,64
284640,note_on,1316,0,7,,,,,,,,7,,,43,64
284640,note_on,0,0,4,,,,,,,,3,,,55,64
284640,note_on,64,0,4,,,,,,,,3,,,43,64
284640,note_on,0,0,6,,,,,,,,6,,,74,64
284640,note_on,0,0,3,,,,,,,,2,,,62,64
284640,note_on,86,0,1,,,,,,,,0,,,83,64
284640,note_on,0,0,8,,,,,,,,4,,,59,96
284640,note_on,36,0,8,,,,,,,,4,,,71,96
284640,note_on,136,0,11,,,,,,,,10,,,43,96
284640,note_on,0,0,2,,,,,,,,1,,,74,64
284640,note_on,166,0,2,,,,,,,,1,,,71,64
284640,note_on,0,0,1,,,,,,,,0,,,86,64
284724,note_on,84,0,8,,,,,,,,4,,,71,0
284726,note_on,2,0,8,,,,,,,,4,,,59,0
284760,note_on,34,0,8,,,,,,,,4,,,72,96
284760,note_on,0,0,8,,,,,,,,4,,,60,96
284776,note_on,136,0,7,,,,,,,,7,,,43,0
284834,note_on,74,0,8,,,,,,,,4,,,60,0
284844,note_on,10,0,8,,,,,,,,4,,,72,0
284880,note_on,0,0,8,,,,,,,,4,,,74,96
284880,note_on,36,0,8,,,,,,,,4,,,62,96
284922,note_on,282,0,3,,,,,,,,2,,,59,0
284924,note_on,284,0,2,,,,,,,,1,,,71,0
284936,note_on,296,0,4,,,,,,,,3,,,43,0
284952,note_on,72,0,8,,,,,,,,4,,,62,0
284964,note_on,12,0,8,,,,,,,,4,,,74,0
284966,note_on,326,0,5,,,,,,,,5,,,55,0
284966,note_on,326,0,6,,,,,,,,6,,,67,0
284966,note_on,30,0,4,,,,,,,,3,,,55,0
284976,note_on,52,0,2,,,,,,,,1,,,74,0
284986,note_on,346,0,10,,,,,,,,8,,,55,0
284996,note_on,356,0,1,,,,,,,,0,,,83,0
285000,note_on,36,0,8,,,,,,,,4,,,59,96
285000,note_on,0,0,8,,,,,,,,4,,,71,96
285012,note_on,372,0,12,,,,,,,,11,,,31,0
285012,note_on,46,0,6,,,,,,,,6,,,74,0
285012,note_on,372,0,11,,,,,,,,10,,,43,0
285012,note_on,46,0,5,,,,,,,,5,,,62,0
285042,note_on,120,0,3,,,,,,,,2,,,62,0
285044,note_on,48,0,1,,,,,,,,0,,,86,0
285084,note_on,84,0,8,,,,,,,,4,,,71,0
285086,note_on,2,0,8,,,,,,,,4,,,59,0
285120,note_on,134,0,10,,,,,,,,8,,,60,96
285120,note_on,108,0,11,,,,,,,,10,,,48,96
285120,note_on,108,0,6,,,,,,,,6,,,72,80
285120,note_on,0,0,6,,,,,,,,6,,,76,80
285120,note_on,78,0,3,,,,,,,,2,,,64,64
285120,note_on,0,0,3,,,,,,,,2,,,60,64
285120,note_on,108,0,12,,,,,,,,11,,,36,64
285120,note_on,76,0,1,,,,,,,,0,,,84,64
285120,note_on,0,0,5,,,,,,,,5,,,64,64
285120,note_on,154,0,4,,,,,,,,3,,,48,64
285120,note_on,144,0,2,,,,,,,,1,,,72,64
285120,note_on,344,0,7,,,,,,,,7,,,48,64
285120,note_on,108,0,5,,,,,,,,5,,,60,64
285120,note_on,0,0,2,,,,,,,,1,,,76,64
285120,note_on,0,0,8,,,,,,,,4,,,60,96
285120,note_on,34,0,8,,,,,,,,4,,,72,96
285120,note_on,0,0,1,,,,,,,,0,,,88,64
285120,note_on,0,0,4,,,,,,,,3,,,60,64
285174,note_on,54,0,4,,,,,,,,3,,,48,0
285176,note_on,56,0,3,,,,,,,,2,,,60,0
285180,note_on,60,0,1,,,,,,,,0,,,84,0
285180,note_on,6,0,4,,,,,,,,3,,,60,0
285182,note_on,6,0,3,,,,,,,,2,,,64,0
285192,note_on,0,0,2,,,,,,,,1,,,72,0
285192,note_on,72,0,2,,,,,,,,1,,,76,0
285200,note_on,80,0,8,,,,,,,,4,,,60,0
285200,note_on,80,0,7,,,,,,,,7,,,48,0
285204,note_on,4,0,8,,,,,,,,4,,,72,0
285216,note_on,0,0,6,,,,,,,,6,,,72,0
285216,note_on,96,0,6,,,,,,,,6,,,76,0
285216,note_on,96,0,5,,,,,,,,5,,,64,0
285216,note_on,0,0,5,,,,,,,,5,,,60,0
285220,note_on,100,0,10,,,,,,,,8,,,60,0
285220,note_on,100,0,11,,,,,,,,10,,,48,0
285220,note_on,100,0,12,,,,,,,,11,,,36,0
285236,note_on,56,0,1,,,,,,,,0,,,88,0
285240,note_on,40,0,7,,,,,,,,7,,,48,64
285240,note_on,20,0,12,,,,,,,,11,,,36,64
285240,note_on,36,0,8,,,,,,,,4,,,62,96
285240,note_on,0,0,8,,,,,,,,4,,,74,96
285240,note_on,20,0,11,,,,,,,,10,,,48,96
285240,note_on,20,0,10,,,,,,,,8,,,60,100
285304,note_on,64,0,7,,,,,,,,7,,,48,0
285320,note_on,80,0,8,,,,,,,,4,,,62,0
285324,note_on,4,0,8,,,,,,,,4,,,74,0
285330,note_on,90,0,12,,,,,,,,11,,,36,0
285330,note_on,90,0,11,,,,,,,,10,,,48,0
285340,note_on,100,0,10,,,,,,,,8,,,60,0
285360,note_on,36,0,8,,,,,,,,4,,,64,96
285360,note_on,178,0,3,,,,,,,,2,,,72,64
285360,note_on,0,0,3,,,,,,,,2,,,64,64
285360,note_on,20,0,10,,,,,,,,8,,,60,96
285360,note_on,0,0,6,,,,,,,,6,,,76,80
285360,note_on,144,0,6,,,,,,,,6,,,64,80
285360,note_on,0,0,8,,,,,,,,4,,,76,96
285360,note_on,0,0,2,,,,,,,,1,,,72,64
285360,note_on,30,0,12,,,,,,,,11,,,36,64
285360,note_on,168,0,2,,,,,,,,1,,,76,64
285360,note_on,144,0,5,,,,,,,,5,,,64,64
285360,note_on,0,0,5,,,,,,,,5,,,52,64
285360,note_on,30,0,11,,,,,,,,10,,,48,96
285360,note_on,180,0,4,,,,,,,,3,,,48,64
285360,note_on,0,0,4,,,,,,,,3,,,60,64
285360,note_on,56,0,7,,,,,,,,7,,,48,64
285360,note_on,124,0,1,,,,,,,,0,,,84,64
285360,note_on,0,0,1,,,,,,,,0,,,88,64
285400,note_on,40,0,4,,,,,,,,3,,,48,0
285420,note_on,0,0,2,,,,,,,,1,,,76,0
285420,note_on,20,0,4,,,,,,,,3,,,60,0
285420,note_on,60,0,2,,,,,,,,1,,,72,0
285422,note_on,62,0,7,,,,,,,,7,,,48,0
285422,note_on,62,0,1,,,,,,,,0,,,84,0
285426,note_on,66,0,8,,,,,,,,4,,,64,0
285426,note_on,66,0,3,,,,,,,,2,,,64,0
285432,note_on,6,0,3,,,,,,,,2,,,72,0
285444,note_on,18,0,8,,,,,,,,4,,,76,0
285446,note_on,86,0,10,,,,,,,,8,,,60,0
285450,note_on,90,0,12,,,,,,,,11,,,36,0
285450,note_on,90,0,11,,,,,,,,10,,,48,0
285456,note_on,96,0,6,,,,,,,,6,,,76,0
285456,note_on,96,0,5,,,,,,,,5,,,52,0
285456,note_on,0,0,5,,,,,,,,5,,,64,0
285456,note_on,0,0,6,,,,,,,,6,,,64,0
285460,note_on,38,0,1,,,,,,,,0,,,88,0
285480,note_on,30,0,12,,,,,,,,11,,,36,64
285480,note_on,0,0,8,,,,,,,,4,,,60,96
285480,note_on,36,0,8,,,,,,,,4,,,72,96
285480,note_on,34,0,10,,,,,,,,8,,,60,96
285480,note_on,58,0,7,,,,,,,,7,,,48,64
285480,note_on,30,0,11,,,,,,,,10,,,48,96
285540,note_on,60,0,7,,,,,,,,7,,,48,0
285550,note_on,70,0,8,,,,,,,,4,,,60,0
285564,note_on,14,0,8,,,,,,,,4,,,72,0
285570,note_on,90,0,11,,,,,,,,10,,,48,0
285570,note_on,90,0,12,,,,,,,,11,,,36,0
285572,note_on,92,0,10,,,,,,,,8,,,60,0
285600,note_on,0,0,3,,,,,,,,2,,,64,64
285600,note_on,28,0,10,,,,,,,,8,,,57,96
285600,note_on,0,0,5,,,,,,,,5,,,52,64
285600,note_on,144,0,5,,,,,,,,5,,,64,64
285600,note_on,0,0,2,,,,,,,,1,,,76,64
285600,note_on,180,0,2,,,,,,,,1,,,73,64
285600,note_on,0,0,6,,,,,,,,6,,,76,80
285600,note_on,144,0,6,,,,,,,,6,,,64,80
285600,note_on,0,0,4,,,,,,,,3,,,57,64
285600,note_on,0,0,4,,,,,,,,3,,,45,64
285600,note_on,180,0,4,,,,,,,,3,,,47,64
285600,note_on,0,0,8,,,,,,,,4,,,61,96
285600,note_on,30,0,12,,,,,,,,11,,,33,64
285600,note_on,168,0,3,,,,,,,,2,,,73,64
285600,note_on,30,0,11,,,,,,,,10,,,45,96
285600,note_on,36,0,8,,,,,,,,4,,,73,96
285600,note_on,0,0,1,,,,,,,,0,,,88,64
285600,note_on,140,0,1,,,,,,,,0,,,85,64
285630,note_on,30,0,4,,,,,,,,3,,,47,0
285652,note_on,52,0,3,,,,,,,,2,,,64,0
285652,note_on,22,0,4,,,,,,,,3,,,45,0
285656,note_on,4,0,3,,,,,,,,2,,,73,0
285662,note_on,62,0,2,,,,,,,,1,,,73,0
285666,note_on,14,0,4,,,,,,,,3,,,57,0
285666,note_on,4,0,2,,,,,,,,1,,,76,0
285670,note_on,70,0,1,,,,,,,,0,,,85,0
285682,note_on,82,0,8,,,,,,,,4,,,61,0
285684,note_on,2,0,8,,,,,,,,4,,,73,0
285686,note_on,16,0,1,,,,,,,,0,,,88,0
285696,note_on,0,0,5,,,,,,,,5,,,64,0
285696,note_on,96,0,6,,,,,,,,6,,,76,0
285696,note_on,96,0,5,,,,,,,,5,,,52,0
285696,note_on,0,0,6,,,,,,,,6,,,64,0
285700,note_on,100,0,12,,,,,,,,11,,,33,0
285700,note_on,100,0,11,,,,,,,,10,,,45,0
285704,note_on,104,0,10,,,,,,,,8,,,57,0
285720,note_on,20,0,12,,,,,,,,11,,,33,64
285720,note_on,20,0,11,,,,,,,,10,,,45,96
285720,note_on,16,0,10,,,,,,,,8,,,57,96
285720,note_on,0,0,8,,,,,,,,4,,,62,96
285720,note_on,36,0,8,,,,,,,,4,,,74,96
285800,note_on,80,0,8,,,,,,,,4,,,62,0
285804,note_on,4,0,8,,,,,,,,4,,,74,0
285816,note_on,96,0,10,,,,,,,,8,,,57,0
285816,note_on,96,0,12,,,,,,,,11,,,33,0
285816,note_on,96,0,11,,,,,,,,10,,,45,0
285840,note_on,24,0,10,,,,,,,,8,,,57,96
285840,note_on,0,0,5,,,,,,,,5,,,52,64
285840,note_on,144,0,5,,,,,,,,5,,,64,64
285840,note_on,184,0,3,,,,,,,,2,,,64,64
285840,note_on,174,0,4,,,,,,,,3,,,45,64
285840,note_on,0,0,4,,,,,,,,3,,,57,64
285840,note_on,0,0,3,,,,,,,,2,,,73,64
285840,note_on,0,0,2,,,,,,,,1,,,76,64
285840,note_on,24,0,11,,,,,,,,10,,,45,96
285840,note_on,154,0,1,,,,,,,,0,,,88,64
285840,note_on,0,0,1,,,,,,,,0,,,85,64
285840,note_on,0,0,6,,,,,,,,6,,,64,80
285840,note_on,24,0,12,,,,,,,,11,,,33,64
285840,note_on,0,0,8,,,,,,,,4,,,64,96
285840,note_on,36,0,8,,,,,,,,4,,,76,96
285840,note_on,144,0,6,,,,,,,,6,,,76,80
285840,note_on,174,0,2,,,,,,,,1,,,73,64
285886,note_on,46,0,4,,,,,,,,3,,,45,0
285894,note_on,8,0,4,,,,,,,,3,,,57,0
285896,note_on,56,0,3,,,,,,,,2,,,64,0
285904,note_on,64,0,2,,,,,,,,1,,,73,0
285906,note_on,2,0,2,,,,,,,,1,,,76,0
285912,note_on,16,0,3,,,,,,,,2,,,73,0
285914,note_on,74,0,8,,,,,,,,4,,,64,0
285914,note_on,74,0,1,,,,,,,,0,,,85,0
285924,note_on,10,0,8,,,,,,,,4,,,76,0
285924,note_on,84,0,12,,,,,,,,11,,,33,0
285924,note_on,84,0,11,,,,,,,,10,,,45,0
285930,note_on,90,0,10,,,,,,,,8,,,57,0
285932,note_on,18,0,1,,,,,,,,0,,,88,0
285936,note_on,96,0,5,,,,,,,,5,,,52,0
285936,note_on,0,0,5,,,,,,,,5,,,64,0
285936,note_on,96,0,6,,,,,,,,6,,,64,0
285936,note_on,0,0,6,,,,,,,,6,,,76,0
285960,note_on,30,0,10,,,,,,,,8,,,57,96
285960,note_on,36,0,11,,,,,,,,10,,,45,96
285960,note_on,36,0,12,,,,,,,,11,,,33,64
285960,note_on,0,0,8,,,,,,,,4,,,61,96
285960,note_on,36,0,8,,,,,,,,4,,,73,96
286032,note_on,72,0,8,,,,,,,,4,,,61,0
286044,note_on,12,0,8,,,,,,,,4,,,73,0
286054,note_on,94,0,12,,,,,,,,11,,,33,0
286054,note_on,94,0,11,,,,,,,,10,,,45,0
286056,note_on,96,0,10,,,,,,,,8,,,57,0
286080,note_on,0,0,3,,,,,,,,2,,,65,64
286080,note_on,36,0,8,,,,,,,,4,,,74,96
286080,note_on,144,0,6,,,,,,,,6,,,74,80
286080,note_on,0,0,8,,,,,,,,4,,,62,96
286080,note_on,24,0,10,,,,,,,,8,,,62,96
286080,note_on,186,0,4,,,,,,,,3,,,50,64
286080,note_on,168,0,3,,,,,,,,2,,,74,64
286080,note_on,26,0,12,,,,,,,,11,,,38,64
286080,note_on,0,0,4,,,,,,,,3,,,62,64
286080,note_on,0,0,2,,,,,,,,1,,,74,64
286080,note_on,174,0,2,,,,,,,,1,,,77,64
286080,note_on,144,0,5,,,,,,,,5,,,62,64
286080,note_on,0,0,6,,,,,,,,6,,,77,80
286080,note_on,0,0,5,,,,,,,,5,,,65,64
286080,note_on,0,0,1,,,,,,,,0,,,89,64
286080,note_on,26,0,11,,,,,,,,10,,,50,96
286080,note_on,148,0,1,,,,,,,,0,,,86,64
286144,note_on,0,0,2,,,,,,,,1,,,77,0
286144,note_on,64,0,2,,,,,,,,1,,,74,0
286144,note_on,64,0,3,,,,,,,,2,,,65,0
286150,note_on,6,0,3,,,,,,,,2,,,74,0
286152,note_on,72,0,1,,,,,,,,0,,,86,0
286154,note_on,74,0,8,,,,,,,,4,,,62,0
286156,note_on,76,0,4,,,,,,,,3,,,50,0
286162,note_on,6,0,4,,,,,,,,3,,,62,0
286164,note_on,10,0,8,,,,,,,,4,,,74,0
286172,note_on,92,0,12,,,,,,,,11,,,38,0
286172,note_on,20,0,1,,,,,,,,0,,,89,0
286172,note_on,92,0,11,,,,,,,,10,,,50,0
286176,note_on,96,0,5,,,,,,,,5,,,65,0
286176,note_on,96,0,10,,,,,,,,8,,,62,0
286176,note_on,0,0,5,,,,,,,,5,,,62,0
286176,note_on,0,0,6,,,,,,,,6,,,74,0
286176,note_on,96,0,6,,,,,,,,6,,,77,0
286200,note_on,28,0,11,,,,,,,,10,,,50,96
286200,note_on,0,0,8,,,,,,,,4,,,64,96
286200,note_on,24,0,10,,,,,,,,8,,,62,96
286200,note_on,36,0,8,,,,,,,,4,,,76,96
286200,note_on,28,0,12,,,,,,,,11,,,38,64
286274,note_on,74,0,8,,,,,,,,4,,,64,0
286284,note_on,10,0,8,,,,,,,,4,,,76,0
286290,note_on,90,0,10,,,,,,,,8,,,62,0
286294,note_on,94,0,12,,,,,,,,11,,,38,0
286294,note_on,94,0,11,,,,,,,,10,,,50,0
286320,note_on,0,0,2,,,,,,,,1,,,77,64
286320,note_on,30,0,10,,,,,,,,8,,,62,96
286320,note_on,158,0,4,,,,,,,,3,,,50,64
286320,note_on,0,0,4,,,,,,,,3,,,62,64
286320,note_on,0,0,5,,,,,,,,5,,,65,64
286320,note_on,144,0,5,,,,,,,,5,,,62,64
286320,note_on,144,0,6,,,,,,,,6,,,74,80
286320,note_on,0,0,8,,,,,,,,4,,,65,96
286320,note_on,36,0,8,,,,,,,,4,,,77,96
286320,note_on,0,0,6,,,,,,,,6,,,77,80
286320,note_on,26,0,11,,,,,,,,10,,,50,96
286320,note_on,26,0,12,,,,,,,,11,,,38,64
286320,note_on,148,0,1,,,,,,,,0,,,86,64
286320,note_on,0,0,1,,,,,,,,0,,,89,64
286320,note_on,170,0,3,,,,,,,,2,,,65,64
286320,note_on,176,0,2,,,,,,,,1,,,74,64
286320,note_on,0,0,3,,,,,,,,2,,,74,64
286372,note_on,52,0,4,,,,,,,,3,,,62,0
286374,note_on,54,0,3,,,,,,,,2,,,74,0
286374,note_on,0,0,3,,,,,,,,2,,,65,0
286382,note_on,10,0,4,,,,,,,,3,,,50,0
286384,note_on,64,0,2,,,,,,,,1,,,77,0
286384,note_on,0,0,2,,,,,,,,1,,,74,0
286390,note_on,70,0,8,,,,,,,,4,,,65,0
286396,note_on,76,0,11,,,,,,,,10,,,50,0
286396,note_on,76,0,12,,,,,,,,11,,,38,0
286400,note_on,80,0,1,,,,,,,,0,,,86,0
286404,note_on,84,0,10,,,,,,,,8,,,62,0
286404,note_on,14,0,8,,,,,,,,4,,,77,0
286412,note_on,12,0,1,,,,,,,,0,,,89,0
286416,note_on,0,0,5,,,,,,,,5,,,62,0
286416,note_on,96,0,5,,,,,,,,5,,,65,0
286416,note_on,96,0,6,,,,,,,,6,,,77,0
286416,note_on,0,0,6,,,,,,,,6,,,74,0
286440,note_on,36,0,8,,,,,,,,4,,,74,96
286440,note_on,44,0,12,,,,,,,,11,,,38,64
286440,note_on,36,0,10,,,,,,,,8,,,62,96
286440,note_on,0,0,8,,,,,,,,4,,,62,96
286440,note_on,44,0,11,,,,,,,,10,,,50,96
286516,note_on,76,0,8,,,,,,,,4,,,62,0
286524,note_on,8,0,8,,,,,,,,4,,,74,0
286524,note_on,84,0,10,,,,,,,,8,,,62,0
286532,note_on,92,0,11,,,,,,,,10,,,50,0
286532,note_on,92,0,12,,,,,,,,11,,,38,0
286560,note_on,0,0,5,,,,,,,,5,,,62,64
286560,note_on,144,0,5,,,,,,,,5,,,55,64
286560,note_on,0,0,6,,,,,,,,6,,,74,80
286560,note_on,0,0,4,,,,,,,,3,,,55,64
286560,note_on,186,0,3,,,,,,,,2,,,62,64
286560,note_on,0,0,3,,,,,,,,2,,,71,64
286560,note_on,178,0,4,,,,,,,,3,,,43,64
286560,note_on,144,0,6,,,,,,,,6,,,67,80
286560,note_on,1020,0,7,,,,,,,,7,,,43,64
286560,note_on,0,0,1,,,,,,,,0,,,83,64
286560,note_on,0,0,2,,,,,,,,1,,,71,64
286560,note_on,28,0,12,,,,,,,,11,,,31,64
286560,note_on,36,0,8,,,,,,,,4,,,71,96
286560,note_on,36,0,10,,,,,,,,8,,,55,96
286560,note_on,176,0,2,,,,,,,,1,,,74,64
286560,note_on,148,0,1,,,,,,,,0,,,86,64
286560,note_on,28,0,11,,,,,,,,10,,,43,96
286560,note_on,0,0,8,,,,,,,,4,,,59,96
286610,note_on,50,0,4,,,,,,,,3,,,43,0
286620,note_on,10,0,4,,,,,,,,3,,,55,0
286620,note_on,60,0,3,,,,,,,,2,,,62,0
286624,note_on,64,0,7,,,,,,,,7,,,43,0
286630,note_on,70,0,2,,,,,,,,1,,,74,0
286630,note_on,10,0,3,,,,,,,,2,,,71,0
286632,note_on,2,0,2,,,,,,,,1,,,71,0
286644,note_on,84,0,8,,,,,,,,4,,,59,0
286644,note_on,0,0,8,,,,,,,,4,,,71,0
286646,note_on,86,0,1,,,,,,,,0,,,83,0
286654,note_on,8,0,1,,,,,,,,0,,,86,0
286654,note_on,94,0,10,,,,,,,,8,,,55,0
286656,note_on,0,0,5,,,,,,,,5,,,55,0
286656,note_on,0,0,6,,,,,,,,6,,,67,0
286656,note_on,96,0,5,,,,,,,,5,,,62,0
286656,note_on,96,0,6,,,,,,,,6,,,74,0
286664,note_on,104,0,11,,,,,,,,10,,,43,0
286664,note_on,104,0,12,,,,,,,,11,,,31,0
286680,note_on,26,0,10,,,,,,,,8,,,55,96
286680,note_on,16,0,11,,,,,,,,10,,,43,96
286680,note_on,16,0,12,,,,,,,,11,,,31,64
286680,note_on,0,0,8,,,,,,,,4,,,60,96
286680,note_on,56,0,7,,,,,,,,7,,,43,64
286680,note_on,36,0,8,,,,,,,,4,,,72,96
286744,note_on,64,0,7,,,,,,,,7,,,43,0
286760,note_on,80,0,8,,,,,,,,4,,,60,0
286764,note_on,4,0,8,,,,,,,,4,,,72,0
286764,note_on,84,0,10,,,,,,,,8,,,55,0
286784,note_on,104,0,12,,,,,,,,11,,,31,0
286784,note_on,104,0,11,,,,,,,,10,,,43,0
286800,note_on,144,0,5,,,,,,,,5,,,62,64
286800,note_on,0,0,2,,,,,,,,1,,,71,64
286800,note_on,146,0,1,,,,,,,,0,,,83,64
286800,note_on,56,0,7,,,,,,,,7,,,43,64
286800,note_on,36,0,8,,,,,,,,4,,,62,96
286800,note_on,0,0,8,,,,,,,,4,,,74,96
286800,note_on,144,0,6,,,,,,,,6,,,74,80
286800,note_on,0,0,5,,,,,,,,5,,,55,64
286800,note_on,0,0,6,,,,,,,,6,,,67,80
286800,note_on,16,0,12,,,,,,,,11,,,31,64
286800,note_on,36,0,10,,,,,,,,8,,,55,96
286800,note_on,180,0,4,,,,,,,,3,,,55,64
286800,note_on,170,0,3,,,,,,,,2,,,62,64
286800,note_on,0,0,4,,,,,,,,3,,,43,64
286800,note_on,16,0,11,,,,,,,,10,,,43,96
286800,note_on,168,0,2,,,,,,,,1,,,74,64
286800,note_on,0,0,3,,,,,,,,2,,,71,64
286800,note_on,0,0,1,,,,,,,,0,,,86,64
286850,note_on,50,0,4,,,,,,,,3,,,55,0
286854,note_on,54,0,3,,,,,,,,2,,,62,0
286860,note_on,60,0,2,,,,,,,,1,,,71,0
286864,note_on,14,0,4,,,,,,,,3,,,43,0
286864,note_on,64,0,7,,,,,,,,7,,,43,0
286864,note_on,10,0,3,,,,,,,,2,,,71,0
286870,note_on,10,0,2,,,,,,,,1,,,74,0
286876,note_on,76,0,8,,,,,,,,4,,,62,0
286880,note_on,80,0,1,,,,,,,,0,,,83,0
286884,note_on,8,0,8,,,,,,,,4,,,74,0
286886,note_on,86,0,12,,,,,,,,11,,,31,0
286886,note_on,86,0,11,,,,,,,,10,,,43,0
286886,note_on,86,0,10,,,,,,,,8,,,55,0
286890,note_on,10,0,1,,,,,,,,0,,,86,0
286896,note_on,96,0,5,,,,,,,,5,,,55,0
286896,note_on,96,0,6,,,,,,,,6,,,67,0
286896,note_on,0,0,5,,,,,,,,5,,,62,0
286896,note_on,0,0,6,,,,,,,,6,,,74,0
286920,note_on,0,0,8,,,,,,,,4,,,71,96
286920,note_on,56,0,7,,,,,,,,7,,,43,64
286920,note_on,34,0,10,,,,,,,,8,,,55,96
286920,note_on,34,0,11,,,,,,,,10,,,43,96
286920,note_on,34,0,12,,,,,,,,11,,,31,64
286920,note_on,36,0,8,,,,,,,,4,,,59,96
287000,note_on,80,0,7,,,,,,,,7,,,43,0
287000,note_on,80,0,8,,,,,,,,4,,,59,0
287004,note_on,4,0,8,,,,,,,,4,,,71,0
287012,note_on,92,0,10,,,,,,,,8,,,55,0
287022,note_on,102,0,11,,,,,,,,10,,,43,0
287022,note_on,102,0,12,,,,,,,,11,,,31,0
287040,note_on,0,0,6,,,,,,,,6,,,72,64
287040,note_on,0,0,3,,,,,,,,2,,,64,64
287040,note_on,176,0,3,,,,,,,,2,,,72,64
287040,note_on,0,0,5,,,,,,,,5,,,60,64
287040,note_on,0,0,8,,,,,,,,4,,,60,127
287040,note_on,40,0,7,,,,,,,,7,,,48,64
287040,note_on,150,0,1,,,,,,,,0,,,84,64
287040,note_on,28,0,10,,,,,,,,8,,,60,96
287040,note_on,176,0,4,,,,,,,,3,,,60,64
287040,note_on,0,0,4,,,,,,,,3,,,48,64
287040,note_on,170,0,2,,,,,,,,1,,,72,64
287040,note_on,18,0,12,,,,,,,,11,,,36,64
287040,note_on,36,0,8,,,,,,,,4,,,72,127
287040,note_on,144,0,6,,,,,,,,6,,,64,64
287040,note_on,18,0,11,,,,,,,,10,,,48,96
287040,note_on,144,0,5,,,,,,,,5,,,52,64
287100,note_on,60,0,6,,,,,,,,6,,,64,0
287100,note_on,60,0,5,,,,,,,,5,,,52,0
287110,note_on,10,0,5,,,,,,,,5,,,60,0
287110,note_on,10,0,6,,,,,,,,6,,,72,0
287114,note_on,74,0,8,,,,,,,,4,,,60,0
287122,note_on,82,0,4,,,,,,,,3,,,60,0
287126,note_on,86,0,3,,,,,,,,2,,,64,0
287140,note_on,100,0,7,,,,,,,,7,,,48,0
287140,note_on,14,0,3,,,,,,,,2,,,72,0
287160,note_on,0,0,8,,,,,,,,4,,,72,127
287160,note_on,0,0,8,,,,,,,,4,,,60,127
287160,note_on,46,0,8,,,,,,,,4,,,72,0
287174,note_on,134,0,1,,,,,,,,0,,,84,0
287182,note_on,60,0,4,,,,,,,,3,,,48,0
287206,note_on,166,0,2,,,,,,,,1,,,72,0
287246,note_on,86,0,8,,,,,,,,4,,,60,0
287280,note_on,0,0,8,,,,,,,,4,,,62,127
287280,note_on,34,0,8,,,,,,,,4,,,72,0
287280,note_on,0,0,8,,,,,,,,4,,,74,127
287364,note_on,84,0,8,,,,,,,,4,,,62,0
287400,note_on,36,0,8,,,,,,,,4,,,74,0
287400,note_on,0,0,8,,,,,,,,4,,,64,127
287400,note_on,0,0,8,,,,,,,,4,,,76,127
287490,note_on,90,0,8,,,,,,,,4,,,64,0
287520,note_on,338,0,4,,,,,,,,3,,,60,64
287520,note_on,0,0,6,,,,,,,,6,,,60,64
287520,note_on,0,0,5,,,,,,,,5,,,60,64
287520,note_on,410,0,6,,,,,,,,6,,,72,64
287520,note_on,0,0,4,,,,,,,,3,,,48,64
287520,note_on,380,0,3,,,,,,,,2,,,72,64
287520,note_on,314,0,2,,,,,,,,1,,,84,64
287520,note_on,0,0,8,,,,,,,,4,,,65,127
287520,note_on,30,0,8,,,,,,,,4,,,76,0
287520,note_on,410,0,5,,,,,,,,5,,,48,64
287520,note_on,380,0,7,,,,,,,,7,,,48,64
287520,note_on,0,0,8,,,,,,,,4,,,77,127
287582,note_on,62,0,7,,,,,,,,7,,,48,0
287616,note_on,96,0,8,,,,,,,,4,,,65,0
287640,note_on,58,0,7,,,,,,,,7,,,48,64
287640,note_on,0,0,8,,,,,,,,4,,,79,127
287640,note_on,24,0,8,,,,,,,,4,,,77,0
287640,note_on,0,0,8,,,,,,,,4,,,67,127
287700,note_on,60,0,7,,,,,,,,7,,,48,0
287746,note_on,106,0,8,,,,,,,,4,,,67,0
287760,note_on,0,0,8,,,,,,,,4,,,69,127
287760,note_on,0,0,8,,,,,,,,4,,,81,127
287760,note_on,60,0,7,,,,,,,,7,,,48,64
287760,note_on,14,0,8,,,,,,,,4,,,79,0
287830,note_on,70,0,7,,,,,,,,7,,,48,0
287854,note_on,94,0,8,,,,,,,,4,,,69,0
287880,note_on,26,0,8,,,,,,,,4,,,81,0
287880,note_on,0,0,8,,,,,,,,4,,,83,127
287880,note_on,0,0,8,,,,,,,,4,,,71,127
287880,note_on,50,0,7,,,,,,,,7,,,48,64
287952,note_on,72,0,7,,,,,,,,7,,,48,0
287974,note_on,94,0,8,,,,,,,,4,,,71,0
288000,note_on,26,0,8,,,,,,,,4,,,83,0
288000,note_on,0,0,8,,,,,,,,4,,,84,89
288000,note_on,0,0,8,,,,,,,,4,,,72,89
288000,note_on,48,0,7,,,,,,,,7,,,48,64
288084,note_on,564,0,2,,,,,,,,1,,,84,0
288090,note_on,90,0,7,,,,,,,,7,,,48,0
288124,note_on,1084,0,12,,,,,,,,11,,,36,0
288124,note_on,1084,0,11,,,,,,,,10,,,48,0
288142,note_on,622,0,3,,,,,,,,2,,,72,0
288146,note_on,626,0,4,,,,,,,,3,,,60,0
288162,note_on,16,0,4,,,,,,,,3,,,48,0
288212,note_on,1172,0,10,,,,,,,,8,,,60,0
288240,note_on,0,0,4,,,,,,,,3,,,60,64
288240,note_on,116,0,12,,,,,,,,11,,,48,64
288240,note_on,98,0,3,,,,,,,,2,,,72,64
288240,note_on,156,0,2,,,,,,,,1,,,84,64
288240,note_on,78,0,4,,,,,,,,3,,,48,64
288240,note_on,116,0,11,,,,,,,,10,,,60,96
288240,note_on,150,0,7,,,,,,,,7,,,48,64
288240,note_on,28,0,10,,,,,,,,8,,,72,96
288300,note_on,60,0,2,,,,,,,,1,,,84,0
288300,note_on,60,0,3,,,,,,,,2,,,72,0
288304,note_on,64,0,4,,,,,,,,3,,,60,0
288320,note_on,80,0,7,,,,,,,,7,,,48,0
288320,note_on,16,0,4,,,,,,,,3,,,48,0
288330,note_on,90,0,10,,,,,,,,8,,,72,0
288332,note_on,92,0,12,,,,,,,,11,,,48,0
288332,note_on,92,0,11,,,,,,,,10,,,60,0
288480,note_on,0,0,4,,,,,,,,3,,,59,64
288480,note_on,150,0,10,,,,,,,,8,,,71,96
288480,note_on,160,0,4,,,,,,,,3,,,47,64
288480,note_on,180,0,2,,,,,,,,1,,,83,64
288480,note_on,160,0,7,,,,,,,,7,,,48,64
288480,note_on,148,0,12,,,,,,,,11,,,47,64
288480,note_on,148,0,11,,,,,,,,10,,,59,96
288480,note_on,180,0,3,,,,,,,,2,,,71,64
288534,note_on,54,0,3,,,,,,,,2,,,71,0
288540,note_on,60,0,2,,,,,,,,1,,,83,0
288546,note_on,66,0,4,,,,,,,,3,,,47,0
288556,note_on,10,0,4,,,,,,,,3,,,59,0
288564,note_on,84,0,11,,,,,,,,10,,,59,0
288564,note_on,84,0,12,,,,,,,,11,,,47,0
288566,note_on,86,0,10,,,,,,,,8,,,71,0
288572,note_on,92,0,7,,,,,,,,7,,,48,0
288720,note_on,156,0,11,,,,,,,,10,,,57,96
288720,note_on,148,0,7,,,,,,,,7,,,48,64
288720,note_on,186,0,3,,,,,,,,2,,,69,64
288720,note_on,180,0,2,,,,,,,,1,,,81,64
288720,note_on,156,0,12,,,,,,,,11,,,45,64
288720,note_on,0,0,4,,,,,,,,3,,,45,64
288720,note_on,164,0,4,,,,,,,,3,,,57,64
288720,note_on,154,0,10,,,,,,,,8,,,69,96
288766,note_on,46,0,3,,,,,,,,2,,,69,0
288772,note_on,52,0,2,,,,,,,,1,,,81,0
288794,note_on,74,0,4,,,,,,,,3,,,57,0
288810,note_on,90,0,12,,,,,,,,11,,,45,0
288810,note_on,90,0,10,,,,,,,,8,,,69,0
288810,note_on,90,0,7,,,,,,,,7,,,48,0
288810,note_on,90,0,11,,,,,,,,10,,,57,0
288812,note_on,18,0,4,,,,,,,,3,,,45,0
288960,note_on,0,0,3,,,,,,,,2,,,67,64
288960,note_on,150,0,7,,,,,,,,7,,,48,64
288960,note_on,0,0,4,,,,,,,,3,,,43,64
288960,note_on,194,0,3,,,,,,,,2,,,79,64
288960,note_on,150,0,12,,,,,,,,11,,,43,64
288960,note_on,148,0,4,,,,,,,,3,,,55,64
288960,note_on,150,0,11,,,,,,,,10,,,55,96
288960,note_on,188,0,2,,,,,,,,1,,,79,64
288960,note_on,150,0,10,,,,,,,,8,,,67,96
289054,note_on,94,0,7,,,,,,,,7,,,48,0
289080,note_on,0,0,8,,,,,,,,4,,,71,89
289080,note_on,1080,0,8,,,,,,,,4,,,83,89
289100,note_on,1580,0,5,,,,,,,,5,,,48,0
289100,note_on,1580,0,6,,,,,,,,6,,,60,0
289104,note_on,24,0,8,,,,,,,,4,,,84,0
289116,note_on,16,0,6,,,,,,,,6,,,72,0
289116,note_on,16,0,5,,,,,,,,5,,,60,0
289152,note_on,48,0,8,,,,,,,,4,,,72,0
289200,note_on,48,0,8,,,,,,,,4,,,72,89
289200,note_on,0,0,8,,,,,,,,4,,,84,89
289222,note_on,22,0,8,,,,,,,,4,,,83,0
289284,note_on,62,0,8,,,,,,,,4,,,71,0
289320,note_on,0,0,8,,,,,,,,4,,,83,89
289320,note_on,36,0,8,,,,,,,,4,,,71,89
289342,note_on,22,0,8,,,,,,,,4,,,84,0
289376,note_on,34,0,8,,,,,,,,4,,,72,0
289440,note_on,0,0,5,,,,,,,,5,,,48,64
289440,note_on,324,0,5,,,,,,,,5,,,60,64
289440,note_on,386,0,7,,,,,,,,7,,,48,64
289440,note_on,2266,0,1,,,,,,,,0,,,91,64
289440,note_on,0,0,6,,,,,,,,6,,,60,64
289440,note_on,324,0,6,,,,,,,,6,,,72,64
289440,note_on,64,0,8,,,,,,,,4,,,72,89
289440,note_on,0,0,8,,,,,,,,4,,,84,89
289462,note_on,22,0,8,,,,,,,,4,,,83,0
289500,note_on,38,0,8,,,,,,,,4,,,71,0
289510,note_on,70,0,7,,,,,,,,7,,,48,0
289560,note_on,0,0,8,,,,,,,,4,,,71,89
289560,note_on,50,0,7,,,,,,,,7,,,48,64
289560,note_on,60,0,8,,,,,,,,4,,,83,89
289582,note_on,22,0,8,,,,,,,,4,,,84,0
289610,note_on,28,0,8,,,,,,,,4,,,72,0
289634,note_on,74,0,7,,,,,,,,7,,,48,0
289680,note_on,70,0,8,,,,,,,,4,,,84,89
289680,note_on,0,0,8,,,,,,,,4,,,72,89
289680,note_on,46,0,7,,,,,,,,7,,,48,64
289702,note_on,22,0,8,,,,,,,,4,,,83,0
289750,note_on,48,0,8,,,,,,,,4,,,71,0
289754,note_on,74,0,7,,,,,,,,7,,,48,0
289800,note_on,50,0,8,,,,,,,,4,,,83,89
289800,note_on,0,0,8,,,,,,,,4,,,71,89
289800,note_on,46,0,7,,,,,,,,7,,,48,64
289822,note_on,22,0,8,,,,,,,,4,,,84,0
289844,note_on,22,0,8,,,,,,,,4,,,72,0
289872,note_on,72,0,7,,,,,,,,7,,,48,0
289920,note_on,0,0,8,,,,,,,,4,,,72,89
289920,note_on,48,0,7,,,,,,,,7,,,48,64
289920,note_on,0,0,8,,,,,,,,4,,,84,89
289920,note_on,76,0,8,,,,,,,,4,,,71,0
289942,note_on,22,0,8,,,,,,,,4,,,83,0
290002,note_on,82,0,7,,,,,,,,7,,,48,0
290010,note_on,1050,0,12,,,,,,,,11,,,43,0
290010,note_on,1050,0,11,,,,,,,,10,,,55,0
290012,note_on,572,0,1,,,,,,,,0,,,91,0
290014,note_on,1054,0,2,,,,,,,,1,,,79,0
290042,note_on,1082,0,3,,,,,,,,2,,,67,0
290052,note_on,1092,0,10,,,,,,,,8,,,67,0
290056,note_on,1096,0,4,,,,,,,,3,,,55,0
290062,note_on,20,0,3,,,,,,,,2,,,79,0
290104,note_on,48,0,4,,,,,,,,3,,,43,0
290160,note_on,0,0,4,,,,,,,,3,,,57,64
290160,note_on,98,0,3,,,,,,,,2,,,81,64
290160,note_on,0,0,3,,,,,,,,2,,,69,64
290160,note_on,148,0,1,,,,,,,,0,,,93,64
290160,note_on,56,0,4,,,,,,,,3,,,45,64
290160,note_on,150,0,11,,,,,,,,10,,,57,96
290160,note_on,108,0,10,,,,,,,,8,,,69,96
290160,note_on,150,0,12,,,,,,,,11,,,45,64
290160,note_on,146,0,2,,,,,,,,1,,,81,64
290160,note_on,158,0,7,,,,,,,,7,,,48,64
290216,note_on,0,0,3,,,,,,,,2,,,81,0
290216,note_on,56,0,3,,,,,,,,2,,,69,0
290220,note_on,60,0,2,,,,,,,,1,,,81,0
290222,note_on,62,0,4,,,,,,,,3,,,57,0
290234,note_on,12,0,4,,,,,,,,3,,,45,0
290234,note_on,74,0,12,,,,,,,,11,,,45,0
290234,note_on,74,0,11,,,,,,,,10,,,57,0
290236,note_on,76,0,1,,,,,,,,0,,,93,0
290242,note_on,82,0,7,,,,,,,,7,,,48,0
290244,note_on,84,0,10,,,,,,,,8,,,69,0
290400,note_on,156,0,10,,,,,,,,8,,,67,96
290400,note_on,166,0,12,,,,,,,,11,,,43,64
290400,note_on,158,0,7,,,,,,,,7,,,48,64
290400,note_on,180,0,2,,,,,,,,1,,,79,64
290400,note_on,164,0,1,,,,,,,,0,,,91,64
290400,note_on,0,0,3,,,,,,,,2,,,79,64
290400,note_on,184,0,3,,,,,,,,2,,,67,64
290400,note_on,166,0,4,,,,,,,,3,,,55,64
290400,note_on,0,0,4,,,,,,,,3,,,43,64
290400,note_on,166,0,11,,,,,,,,10,,,55,96
290456,note_on,56,0,3,,,,,,,,2,,,67,0
290460,note_on,60,0,2,,,,,,,,1,,,79,0
290464,note_on,64,0,4,,,,,,,,3,,,55,0
290466,note_on,10,0,3,,,,,,,,2,,,79,0
290472,note_on,72,0,1,,,,,,,,0,,,91,0
290476,note_on,76,0,11,,,,,,,,10,,,55,0
290476,note_on,76,0,12,,,,,,,,11,,,43,0
290480,note_on,80,0,7,,,,,,,,7,,,48,0
290480,note_on,16,0,4,,,,,,,,3,,,43,0
290490,note_on,90,0,10,,,,,,,,8,,,67,0
290640,note_on,160,0,7,,,,,,,,7,,,48,64
290640,note_on,0,0,4,,,,,,,,3,,,53,64
290640,note_on,180,0,2,,,,,,,,1,,,77,64
290640,note_on,160,0,4,,,,,,,,3,,,41,64
290640,note_on,164,0,11,,,,,,,,10,,,53,96
290640,note_on,164,0,12,,,,,,,,11,,,41,64
290640,note_on,0,0,3,,,,,,,,2,,,77,64
290640,note_on,150,0,10,,,,,,,,8,,,65,96
290640,note_on,168,0,1,,,,,,,,0,,,89,64
290640,note_on,174,0,3,,,,,,,,2,,,65,64
290700,note_on,60,0,3,,,,,,,,2,,,65,0
290702,note_on,62,0,2,,,,,,,,1,,,77,0
290704,note_on,64,0,1,,,,,,,,0,,,89,0
290704,note_on,64,0,4,,,,,,,,3,,,53,0
290710,note_on,10,0,3,,,,,,,,2,,,77,0
290716,note_on,12,0,4,,,,,,,,3,,,41,0
290720,note_on,80,0,12,,,,,,,,11,,,41,0
290720,note_on,80,0,11,,,,,,,,10,,,53,0
290730,note_on,90,0,7,,,,,,,,7,,,48,0
290730,note_on,90,0,10,,,,,,,,8,,,65,0
290880,note_on,150,0,10,,,,,,,,8,,,64,96
290880,note_on,176,0,1,,,,,,,,0,,,88,64
290880,note_on,160,0,11,,,,,,,,10,,,52,96
290880,note_on,164,0,4,,,,,,,,3,,,52,64
290880,note_on,0,0,4,,,,,,,,3,,,40,64
290880,note_on,150,0,7,,,,,,,,7,,,48,64
290880,note_on,170,0,3,,,,,,,,2,,,64,64
290880,note_on,0,0,3,,,,,,,,2,,,76,64
290880,note_on,178,0,2,,,,,,,,1,,,76,64
290880,note_on,160,0,12,,,,,,,,11,,,40,64
290964,note_on,84,0,7,,,,,,,,7,,,48,0
291000,note_on,0,0,8,,,,,,,,4,,,83,89
291000,note_on,1058,0,8,,,,,,,,4,,,71,89
291024,note_on,24,0,8,,,,,,,,4,,,84,0
291050,note_on,26,0,8,,,,,,,,4,,,72,0
291052,note_on,1612,0,5,,,,,,,,5,,,60,0
291052,note_on,1612,0,6,,,,,,,,6,,,72,0
291062,note_on,10,0,5,,,,,,,,5,,,48,0
291062,note_on,10,0,6,,,,,,,,6,,,60,0
291120,note_on,70,0,8,,,,,,,,4,,,84,89
291120,note_on,0,0,8,,,,,,,,4,,,72,89
291142,note_on,22,0,8,,,,,,,,4,,,83,0
291162,note_on,20,0,8,,,,,,,,4,,,71,0
291240,note_on,78,0,8,,,,,,,,4,,,71,89
291240,note_on,0,0,8,,,,,,,,4,,,83,89
291262,note_on,22,0,8,,,,,,,,4,,,84,0
291294,note_on,32,0,8,,,,,,,,4,,,72,0
291360,note_on,396,0,7,,,,,,,,7,,,48,64
291360,note_on,66,0,8,,,,,,,,4,,,72,89
291360,note_on,298,0,6,,,,,,,,6,,,60,64
291360,note_on,298,0,5,,,,,,,,5,,,48,64
291360,note_on,0,0,5,,,,,,,,5,,,60,64
291360,note_on,0,0,6,,,,,,,,6,,,72,64
291360,note_on,0,0,8,,,,,,,,4,,,84,89
291382,note_on,22,0,8,,,,,,,,4,,,83,0
291412,note_on,30,0,8,,,,,,,,4,,,71,0
291432,note_on,72,0,7,,,,,,,,7,,,48,0
291480,note_on,48,0,7,,,,,,,,7,,,48,64
291480,note_on,0,0,8,,,,,,,,4,,,83,89
291480,note_on,68,0,8,,,,,,,,4,,,71,89
291502,note_on,22,0,8,,,,,,,,4,,,84,0
291530,note_on,28,0,8,,,,,,,,4,,,72,0
291554,note_on,74,0,7,,,,,,,,7,,,48,0
291600,note_on,46,0,7,,,,,,,,7,,,48,64
291600,note_on,70,0,8,,,,,,,,4,,,72,89
291600,note_on,0,0,8,,,,,,,,4,,,84,89
291622,note_on,22,0,8,,,,,,,,4,,,83,0
291666,note_on,44,0,8,,,,,,,,4,,,71,0
291672,note_on,72,0,7,,,,,,,,7,,,48,0
291720,note_on,48,0,7,,,,,,,,7,,,48,64
291720,note_on,54,0,8,,,,,,,,4,,,83,89
291720,note_on,0,0,8,,,,,,,,4,,,71,89
291742,note_on,22,0,8,,,,,,,,4,,,84,0
291764,note_on,22,0,8,,,,,,,,4,,,72,0
291794,note_on,74,0,7,,,,,,,,7,,,48,0
291840,note_on,46,0,7,,,,,,,,7,,,48,64
291840,note_on,76,0,8,,,,,,,,4,,,84,89
291840,note_on,0,0,8,,,,,,,,4,,,72,89
291862,note_on,22,0,8,,,,,,,,4,,,83,0
291880,note_on,1000,0,12,,,,,,,,11,,,40,0
291880,note_on,1000,0,11,,,,,,,,10,,,52,0
291890,note_on,28,0,8,,,,,,,,4,,,71,0
291924,note_on,84,0,7,,,,,,,,7,,,48,0
291942,note_on,1062,0,3,,,,,,,,2,,,64,0
291946,note_on,1066,0,1,,,,,,,,0,,,88,0
291960,note_on,18,0,3,,,,,,,,2,,,76,0
291960,note_on,70,0,8,,,,,,,,4,,,71,89
291960,note_on,0,0,8,,,,,,,,4,,,83,89
291972,note_on,1092,0,4,,,,,,,,3,,,52,0
291972,note_on,1092,0,2,,,,,,,,1,,,76,0
291984,note_on,24,0,8,,,,,,,,4,,,84,0
291990,note_on,18,0,4,,,,,,,,3,,,40,0
292004,note_on,20,0,8,,,,,,,,4,,,72,0
292026,note_on,1146,0,10,,,,,,,,8,,,64,0
292080,note_on,90,0,4,,,,,,,,3,,,53,64
292080,note_on,0,0,4,,,,,,,,3,,,41,64
292080,note_on,0,0,3,,,,,,,,2,,,77,64
292080,note_on,120,0,3,,,,,,,,2,,,65,64
292080,note_on,0,0,8,,,,,,,,4,,,84,89
292080,note_on,76,0,8,,,,,,,,4,,,72,89
292080,note_on,134,0,1,,,,,,,,0,,,89,64
292080,note_on,200,0,11,,,,,,,,10,,,53,96
292080,note_on,108,0,2,,,,,,,,1,,,77,64
292080,note_on,200,0,12,,,,,,,,11,,,41,64
292080,note_on,156,0,7,,,,,,,,7,,,48,64
292080,note_on,54,0,10,,,,,,,,8,,,65,96
292102,note_on,22,0,8,,,,,,,,4,,,83,0
292122,note_on,20,0,8,,,,,,,,4,,,71,0
292132,note_on,52,0,3,,,,,,,,2,,,77,0
292132,note_on,0,0,3,,,,,,,,2,,,65,0
292140,note_on,60,0,1,,,,,,,,0,,,89,0
292140,note_on,60,0,2,,,,,,,,1,,,77,0
292146,note_on,66,0,4,,,,,,,,3,,,53,0
292160,note_on,80,0,12,,,,,,,,11,,,41,0
292160,note_on,80,0,11,,,,,,,,10,,,53,0
292160,note_on,80,0,7,,,,,,,,7,,,48,0
292160,note_on,14,0,4,,,,,,,,3,,,41,0
292162,note_on,82,0,10,,,,,,,,8,,,65,0
292200,note_on,78,0,8,,,,,,,,4,,,83,89
292200,note_on,0,0,8,,,,,,,,4,,,71,89
292222,note_on,22,0,8,,,,,,,,4,,,84,0
292252,note_on,30,0,8,,,,,,,,4,,,72,0
292320,note_on,180,0,2,,,,,,,,1,,,76,64
292320,note_on,158,0,10,,,,,,,,8,,,64,96
292320,note_on,160,0,4,,,,,,,,3,,,52,64
292320,note_on,0,0,4,,,,,,,,3,,,40,64
292320,note_on,160,0,7,,,,,,,,7,,,48,64
292320,note_on,160,0,12,,,,,,,,11,,,40,64
292320,note_on,180,0,1,,,,,,,,0,,,88,64
292320,note_on,160,0,11,,,,,,,,10,,,52,96
292320,note_on,0,0,3,,,,,,,,2,,,64,64
292320,note_on,0,0,8,,,,,,,,4,,,72,89
292320,note_on,68,0,8,,,,,,,,4,,,84,89
292320,note_on,188,0,3,,,,,,,,2,,,76,64
292342,note_on,22,0,8,,,,,,,,4,,,83,0
292356,note_on,14,0,8,,,,,,,,4,,,71,0
292376,note_on,56,0,2,,,,,,,,1,,,76,0
292376,note_on,56,0,3,,,,,,,,2,,,76,0
292380,note_on,4,0,3,,,,,,,,2,,,64,0
292386,note_on,66,0,1,,,,,,,,0,,,88,0
292390,note_on,70,0,7,,,,,,,,7,,,48,0
292394,note_on,74,0,4,,,,,,,,3,,,52,0
292400,note_on,80,0,12,,,,,,,,11,,,40,0
292400,note_on,80,0,11,,,,,,,,10,,,52,0
292400,note_on,80,0,10,,,,,,,,8,,,64,0
292410,note_on,16,0,4,,,,,,,,3,,,40,0
292440,note_on,84,0,8,,,,,,,,4,,,71,89
292440,note_on,0,0,8,,,,,,,,4,,,83,89
292462,note_on,22,0,8,,,,,,,,4,,,84,0
292482,note_on,20,0,8,,,,,,,,4,,,72,0
292560,note_on,160,0,10,,,,,,,,8,,,62,96
292560,note_on,0,0,3,,,,,,,,2,,,62,64
292560,note_on,180,0,3,,,,,,,,2,,,74,64
292560,note_on,184,0,2,,,,,,,,1,,,74,64
292560,note_on,0,0,4,,,,,,,,3,,,50,64
292560,note_on,150,0,4,,,,,,,,3,,,38,64
292560,note_on,170,0,7,,,,,,,,7,,,48,64
292560,note_on,174,0,1,,,,,,,,0,,,86,64
292560,note_on,78,0,8,,,,,,,,4,,,84,89
292560,note_on,0,0,8,,,,,,,,4,,,72,89
292560,note_on,160,0,12,,,,,,,,11,,,38,64
292560,note_on,160,0,11,,,,,,,,10,,,50,96
292582,note_on,22,0,8,,,,,,,,4,,,83,0
292594,note_on,12,0,8,,,,,,,,4,,,71,0
292612,note_on,0,0,3,,,,,,,,2,,,74,0
292612,note_on,52,0,3,,,,,,,,2,,,62,0
292616,note_on,56,0,2,,,,,,,,1,,,74,0
292624,note_on,64,0,4,,,,,,,,3,,,38,0
292624,note_on,64,0,1,,,,,,,,0,,,86,0
292626,note_on,66,0,7,,,,,,,,7,,,48,0
292630,note_on,6,0,4,,,,,,,,3,,,50,0
292634,note_on,74,0,10,,,,,,,,8,,,62,0
292644,note_on,84,0,12,,,,,,,,11,,,38,0
292644,note_on,84,0,11,,,,,,,,10,,,50,0
292680,note_on,86,0,8,,,,,,,,4,,,83,89
292680,note_on,0,0,8,,,,,,,,4,,,71,89
292702,note_on,22,0,8,,,,,,,,4,,,84,0
292726,note_on,24,0,8,,,,,,,,4,,,72,0
292800,note_on,170,0,4,,,,,,,,3,,,36,64
292800,note_on,0,0,4,,,,,,,,3,,,48,64
292800,note_on,156,0,12,,,,,,,,11,,,36,64
292800,note_on,184,0,2,,,,,,,,1,,,72,64
292800,note_on,188,0,3,,,,,,,,2,,,72,64
292800,note_on,166,0,10,,,,,,,,8,,,60,96
292800,note_on,74,0,8,,,,,,,,4,,,84,89
292800,note_on,0,0,8,,,,,,,,4,,,72,89
292800,note_on,0,0,3,,,,,,,,2,,,60,64
292800,note_on,156,0,11,,,,,,,,10,,,48,96
292800,note_on,176,0,1,,,,,,,,0,,,84,64
292800,note_on,174,0,7,,,,,,,,7,,,48,64
292822,note_on,22,0,8,,,,,,,,4,,,83,0
292852,note_on,0,0,3,,,,,,,,2,,,72,0
292852,note_on,52,0,3,,,,,,,,2,,,60,0
292856,note_on,34,0,8,,,,,,,,4,,,71,0
292862,note_on,62,0,2,,,,,,,,1,,,72,0
292872,note_on,1512,0,5,,,,,,,,5,,,48,0
292872,note_on,1512,0,6,,,,,,,,6,,,60,0
292874,note_on,74,0,1,,,,,,,,0,,,84,0
292874,note_on,2,0,6,,,,,,,,6,,,72,0
292874,note_on,2,0,5,,,,,,,,5,,,60,0
292876,note_on,76,0,4,,,,,,,,3,,,48,0
292886,note_on,86,0,10,,,,,,,,8,,,60,0
292894,note_on,94,0,7,,,,,,,,7,,,48,0
292916,note_on,40,0,4,,,,,,,,3,,,36,0
292920,note_on,26,0,7,,,,,,,,7,,,48,64
292920,note_on,64,0,8,,,,,,,,4,,,83,89
292920,note_on,0,0,8,,,,,,,,4,,,71,89
292920,note_on,120,0,12,,,,,,,,11,,,36,0
292920,note_on,120,0,11,,,,,,,,10,,,48,0
292944,note_on,24,0,8,,,,,,,,4,,,84,0
292962,note_on,18,0,8,,,,,,,,4,,,72,0
292992,note_on,72,0,7,,,,,,,,7,,,48,0
293040,note_on,120,0,11,,,,,,,,10,,,53,96
293040,note_on,154,0,10,,,,,,,,8,,,65,96
293040,note_on,178,0,2,,,,,,,,1,,,81,64
293040,note_on,48,0,7,,,,,,,,7,,,48,64
293040,note_on,124,0,4,,,,,,,,3,,,53,64
293040,note_on,120,0,12,,,,,,,,11,,,41,64
293040,note_on,188,0,3,,,,,,,,2,,,69,64
293040,note_on,166,0,6,,,,,,,,6,,,60,64
293040,note_on,0,0,8,,,,,,,,4,,,72,89
293040,note_on,78,0,8,,,,,,,,4,,,84,89
293040,note_on,166,0,1,,,,,,,,0,,,81,64
293040,note_on,0,0,1,,,,,,,,0,,,93,64
293040,note_on,166,0,5,,,,,,,,5,,,60,64
293040,note_on,0,0,5,,,,,,,,5,,,48,64
293040,note_on,0,0,6,,,,,,,,6,,,72,64
293040,note_on,0,0,4,,,,,,,,3,,,57,64
293062,note_on,22,0,8,,,,,,,,4,,,83,0
293094,note_on,32,0,8,,,,,,,,4,,,71,0
293094,note_on,54,0,3,,,,,,,,2,,,69,0
293096,note_on,56,0,7,,,,,,,,7,,,48,0
293096,note_on,56,0,6,,,,,,,,6,,,60,0
293096,note_on,56,0,5,,,,,,,,5,,,48,0
293096,note_on,56,0,1,,,,,,,,0,,,93,0
293102,note_on,6,0,5,,,,,,,,5,,,60,0
293102,note_on,62,0,4,,,,,,,,3,,,57,0
293102,note_on,6,0,6,,,,,,,,6,,,72,0
293106,note_on,66,0,2,,,,,,,,1,,,81,0
293110,note_on,8,0,4,,,,,,,,3,,,53,0
293116,note_on,20,0,1,,,,,,,,0,,,81,0
293120,note_on,80,0,11,,,,,,,,10,,,53,0
293120,note_on,80,0,12,,,,,,,,11,,,41,0
293120,note_on,80,0,10,,,,,,,,8,,,65,0
293160,note_on,64,0,7,,,,,,,,7,,,48,64
293160,note_on,66,0,8,,,,,,,,4,,,71,89
293160,note_on,0,0,8,,,,,,,,4,,,83,89
293182,note_on,22,0,8,,,,,,,,4,,,84,0
293202,note_on,20,0,8,,,,,,,,4,,,72,0
293236,note_on,76,0,7,,,,,,,,7,,,48,0
293280,note_on,160,0,11,,,,,,,,10,,,52,96
293280,note_on,186,0,3,,,,,,,,2,,,67,64
293280,note_on,160,0,10,,,,,,,,8,,,64,96
293280,note_on,44,0,7,,,,,,,,7,,,48,64
293280,note_on,160,0,12,,,,,,,,11,,,40,64
293280,note_on,78,0,8,,,,,,,,4,,,84,89
293280,note_on,0,0,5,,,,,,,,5,,,60,64
293280,note_on,0,0,8,,,,,,,,4,,,72,89
293280,note_on,170,0,4,,,,,,,,3,,,55,64
293280,note_on,178,0,5,,,,,,,,5,,,48,64
293280,note_on,164,0,1,,,,,,,,0,,,91,64
293280,note_on,178,0,6,,,,,,,,6,,,60,64
293280,note_on,174,0,2,,,,,,,,1,,,79,64
293280,note_on,0,0,4,,,,,,,,3,,,52,64
293280,note_on,0,0,1,,,,,,,,0,,,79,64
293280,note_on,0,0,6,,,,,,,,6,,,72,64
293302,note_on,22,0,8,,,,,,,,4,,,83,0
293330,note_on,50,0,3,,,,,,,,2,,,67,0
293330,note_on,50,0,5,,,,,,,,5,,,48,0
293330,note_on,50,0,6,,,,,,,,6,,,60,0
293332,note_on,30,0,8,,,,,,,,4,,,71,0
293336,note_on,56,0,4,,,,,,,,3,,,55,0
293336,note_on,56,0,1,,,,,,,,0,,,91,0
293340,note_on,10,0,5,,,,,,,,5,,,60,0
293340,note_on,10,0,6,,,,,,,,6,,,72,0
293342,note_on,62,0,2,,,,,,,,1,,,79,0
293344,note_on,8,0,1,,,,,,,,0,,,79,0
293352,note_on,16,0,4,,,,,,,,3,,,52,0
293356,note_on,76,0,10,,,,,,,,8,,,64,0
293362,note_on,82,0,11,,,,,,,,10,,,52,0
293362,note_on,82,0,12,,,,,,,,11,,,40,0
293374,note_on,94,0,7,,,,,,,,7,,,48,0
293400,note_on,26,0,7,,,,,,,,7,,,48,64
293400,note_on,68,0,8,,,,,,,,4,,,71,89
293400,note_on,0,0,8,,,,,,,,4,,,83,89
293422,note_on,22,0,8,,,,,,,,4,,,84,0
293442,note_on,20,0,8,,,,,,,,4,,,72,0
293480,note_on,80,0,7,,,,,,,,7,,,48,0
293520,note_on,0,0,8,,,,,,,,4,,,84,89
293520,note_on,0,0,6,,,,,,,,6,,,60,64
293520,note_on,180,0,6,,,,,,,,6,,,72,64
293520,note_on,168,0,4,,,,,,,,3,,,53,64
293520,note_on,158,0,11,,,,,,,,10,,,50,96
293520,note_on,180,0,5,,,,,,,,5,,,48,64
293520,note_on,190,0,3,,,,,,,,2,,,65,64
293520,note_on,40,0,7,,,,,,,,7,,,48,64
293520,note_on,0,0,5,,,,,,,,5,,,60,64
293520,note_on,0,0,1,,,,,,,,0,,,89,64
293520,note_on,78,0,8,,,,,,,,4,,,72,89
293520,note_on,176,0,1,,,,,,,,0,,,77,64
293520,note_on,158,0,12,,,,,,,,11,,,38,64
293520,note_on,164,0,10,,,,,,,,8,,,62,96
293520,note_on,178,0,2,,,,,,,,1,,,77,64
293520,note_on,0,0,4,,,,,,,,3,,,50,64
293542,note_on,22,0,8,,,,,,,,4,,,83,0
293564,note_on,44,0,3,,,,,,,,2,,,65,0
293564,note_on,22,0,8,,,,,,,,4,,,71,0
293570,note_on,50,0,4,,,,,,,,3,,,53,0
293574,note_on,54,0,6,,,,,,,,6,,,60,0
293574,note_on,54,0,5,,,,,,,,5,,,48,0
293582,note_on,62,0,2,,,,,,,,1,,,77,0
293584,note_on,64,0,1,,,,,,,,0,,,77,0
293584,note_on,10,0,6,,,,,,,,6,,,72,0
293584,note_on,10,0,5,,,,,,,,5,,,60,0
293586,note_on,2,0,1,,,,,,,,0,,,89,0
293590,note_on,20,0,4,,,,,,,,3,,,50,0
293594,note_on,74,0,7,,,,,,,,7,,,48,0
293602,note_on,82,0,10,,,,,,,,8,,,62,0
293612,note_on,92,0,11,,,,,,,,10,,,50,0
293612,note_on,92,0,12,,,,,,,,11,,,38,0
293640,note_on,46,0,7,,,,,,,,7,,,48,64
293640,note_on,76,0,8,,,,,,,,4,,,83,89
293640,note_on,0,0,8,,,,,,,,4,,,71,89
293662,note_on,22,0,8,,,,,,,,4,,,84,0
293680,note_on,18,0,8,,,,,,,,4,,,72,0
293704,note_on,64,0,7,,,,,,,,7,,,48,0
293760,note_on,0,0,4,,,,,,,,3,,,48,64
293760,note_on,0,0,1,,,,,,,,0,,,76,64
293760,note_on,170,0,4,,,,,,,,3,,,52,64
293760,note_on,148,0,12,,,,,,,,11,,,36,64
293760,note_on,176,0,6,,,,,,,,6,,,72,64
293760,note_on,0,0,6,,,,,,,,6,,,60,64
293760,note_on,56,0,7,,,,,,,,7,,,48,64
293760,note_on,174,0,1,,,,,,,,0,,,88,64
293760,note_on,148,0,11,,,,,,,,10,,,48,96
293760,note_on,196,0,3,,,,,,,,2,,,64,64
293760,note_on,80,0,8,,,,,,,,4,,,84,89
293760,note_on,0,0,8,,,,,,,,4,,,72,89
293760,note_on,178,0,2,,,,,,,,1,,,76,64
293760,note_on,158,0,10,,,,,,,,8,,,60,96
293760,note_on,176,0,5,,,,,,,,5,,,48,64
293760,note_on,0,0,5,,,,,,,,5,,,60,64
293782,note_on,22,0,8,,,,,,,,4,,,83,0
293816,note_on,56,0,4,,,,,,,,3,,,48,0
293820,note_on,0,0,5,,,,,,,,5,,,48,0
293820,note_on,60,0,3,,,,,,,,2,,,64,0
293820,note_on,0,0,6,,,,,,,,6,,,72,0
293820,note_on,60,0,5,,,,,,,,5,,,60,0
293820,note_on,60,0,6,,,,,,,,6,,,60,0
293820,note_on,38,0,8,,,,,,,,4,,,71,0
293822,note_on,6,0,4,,,,,,,,3,,,52,0
293830,note_on,70,0,1,,,,,,,,0,,,76,0
293832,note_on,72,0,2,,,,,,,,1,,,76,0
293834,note_on,4,0,1,,,,,,,,0,,,88,0
293844,note_on,84,0,10,,,,,,,,8,,,60,0
293860,note_on,100,0,7,,,,,,,,7,,,48,0
293880,note_on,120,0,12,,,,,,,,11,,,36,0
293880,note_on,60,0,8,,,,,,,,4,,,83,89
293880,note_on,120,0,11,,,,,,,,10,,,48,0
293880,note_on,0,0,8,,,,,,,,4,,,71,89
293880,note_on,20,0,7,,,,,,,,7,,,48,64
293904,note_on,24,0,8,,,,,,,,4,,,84,0
293916,note_on,12,0,8,,,,,,,,4,,,72,0
293944,note_on,64,0,7,,,,,,,,7,,,48,0
294000,note_on,156,0,10,,,,,,,,8,,,65,96
294000,note_on,120,0,12,,,,,,,,11,,,41,64
294000,note_on,0,0,1,,,,,,,,0,,,81,64
294000,note_on,166,0,1,,,,,,,,0,,,93,64
294000,note_on,168,0,2,,,,,,,,1,,,81,64
294000,note_on,178,0,4,,,,,,,,3,,,57,64
294000,note_on,120,0,11,,,,,,,,10,,,53,96
294000,note_on,0,0,8,,,,,,,,4,,,72,89
294000,note_on,56,0,7,,,,,,,,7,,,48,64
294000,note_on,0,0,4,,,,,,,,3,,,53,64
294000,note_on,84,0,8,,,,,,,,4,,,84,89
294000,note_on,180,0,5,,,,,,,,5,,,48,64
294000,note_on,180,0,3,,,,,,,,2,,,69,64
294000,note_on,0,0,5,,,,,,,,5,,,60,64
294000,note_on,0,0,6,,,,,,,,6,,,72,64
294000,note_on,180,0,6,,,,,,,,6,,,60,64
294022,note_on,22,0,8,,,,,,,,4,,,83,0
294044,note_on,22,0,8,,,,,,,,4,,,71,0
294050,note_on,50,0,6,,,,,,,,6,,,60,0
294050,note_on,50,0,5,,,,,,,,5,,,48,0
294060,note_on,60,0,3,,,,,,,,2,,,69,0
294062,note_on,62,0,4,,,,,,,,3,,,53,0
294062,note_on,62,0,1,,,,,,,,0,,,81,0
294066,note_on,66,0,2,,,,,,,,1,,,81,0
294070,note_on,8,0,1,,,,,,,,0,,,93,0
294070,note_on,20,0,6,,,,,,,,6,,,72,0
294070,note_on,20,0,5,,,,,,,,5,,,60,0
294080,note_on,18,0,4,,,,,,,,3,,,57,0
294080,note_on,80,0,7,,,,,,,,7,,,48,0
294084,note_on,84,0,12,,,,,,,,11,,,41,0
294084,note_on,84,0,11,,,,,,,,10,,,53,0
294084,note_on,84,0,10,,,,,,,,8,,,65,0
294120,note_on,40,0,7,,,,,,,,7,,,48,64
294120,note_on,76,0,8,,,,,,,,4,,,71,89
294120,note_on,0,0,8,,,,,,,,4,,,83,89
294142,note_on,22,0,8,,,,,,,,4,,,84,0
294154,note_on,12,0,8,,,,,,,,4,,,72,0
294190,note_on,70,0,7,,,,,,,,7,,,48,0
294240,note_on,156,0,12,,,,,,,,11,,,40,64
294240,note_on,170,0,6,,,,,,,,6,,,60,64
294240,note_on,170,0,5,,,,,,,,5,,,48,64
294240,note_on,170,0,1,,,,,,,,0,,,79,64
294240,note_on,0,0,6,,,,,,,,6,,,72,64
294240,note_on,0,0,5,,,,,,,,5,,,60,64
294240,note_on,156,0,11,,,,,,,,10,,,52,96
294240,note_on,0,0,1,,,,,,,,0,,,91,64
294240,note_on,86,0,8,,,,,,,,4,,,84,89
294240,note_on,50,0,7,,,,,,,,7,,,48,64
294240,note_on,180,0,3,,,,,,,,2,,,67,64
294240,note_on,0,0,8,,,,,,,,4,,,72,89
294240,note_on,160,0,4,,,,,,,,3,,,55,64
294240,note_on,156,0,10,,,,,,,,8,,,64,96
294240,note_on,0,0,4,,,,,,,,3,,,52,64
294240,note_on,174,0,2,,,,,,,,1,,,79,64
294262,note_on,22,0,8,,,,,,,,4,,,83,0
294292,note_on,30,0,8,,,,,,,,4,,,71,0
294300,note_on,60,0,5,,,,,,,,5,,,48,0
294300,note_on,60,0,6,,,,,,,,6,,,60,0
294302,note_on,62,0,1,,,,,,,,0,,,79,0
294302,note_on,62,0,2,,,,,,,,1,,,79,0
294302,note_on,62,0,3,,,,,,,,2,,,67,0
294304,note_on,2,0,1,,,,,,,,0,,,91,0
294306,note_on,6,0,5,,,,,,,,5,,,60,0
294306,note_on,66,0,4,,,,,,,,3,,,55,0
294306,note_on,6,0,6,,,,,,,,6,,,72,0
294314,note_on,8,0,4,,,,,,,,3,,,52,0
294316,note_on,76,0,10,,,,,,,,8,,,64,0
294324,note_on,84,0,11,,,,,,,,10,,,52,0
294324,note_on,84,0,12,,,,,,,,11,,,40,0
294326,note_on,86,0,7,,,,,,,,7,,,48,0
294360,note_on,34,0,7,,,,,,,,7,,,48,64
294360,note_on,68,0,8,,,,,,,,4,,,83,89
294360,note_on,0,0,8,,,,,,,,4,,,71,89
294382,note_on,22,0,8,,,,,,,,4,,,84,0
294404,note_on,22,0,8,,,,,,,,4,,,72,0
294430,note_on,70,0,7,,,,,,,,7,,,48,0
294480,note_on,0,0,4,,,,,,,,3,,,53,64
294480,note_on,0,0,8,,,,,,,,4,,,72,89
294480,note_on,174,0,5,,,,,,,,5,,,60,64
294480,note_on,0,0,5,,,,,,,,5,,,48,64
294480,note_on,76,0,8,,,,,,,,4,,,84,89
294480,note_on,166,0,4,,,,,,,,3,,,50,64
294480,note_on,156,0,11,,,,,,,,10,,,50,96
294480,note_on,176,0,1,,,,,,,,0,,,77,64
294480,note_on,178,0,3,,,,,,,,2,,,65,64
294480,note_on,156,0,12,,,,,,,,11,,,38,64
294480,note_on,50,0,7,,,,,,,,7,,,48,64
294480,note_on,164,0,10,,,,,,,,8,,,62,96
294480,note_on,178,0,2,,,,,,,,1,,,77,64
294480,note_on,174,0,6,,,,,,,,6,,,72,64
294480,note_on,0,0,6,,,,,,,,6,,,60,64
294480,note_on,0,0,1,,,,,,,,0,,,89,64
294502,note_on,22,0,8,,,,,,,,4,,,83,0
294526,note_on,24,0,8,,,,,,,,4,,,71,0
294536,note_on,56,0,2,,,,,,,,1,,,77,0
294540,note_on,60,0,4,,,,,,,,3,,,53,0
294540,note_on,60,0,5,,,,,,,,5,,,48,0
294540,note_on,60,0,6,,,,,,,,6,,,60,0
294542,note_on,2,0,5,,,,,,,,5,,,60,0
294542,note_on,2,0,6,,,,,,,,6,,,72,0
294544,note_on,4,0,4,,,,,,,,3,,,50,0
294546,note_on,66,0,1,,,,,,,,0,,,77,0
294546,note_on,66,0,3,,,,,,,,2,,,65,0
294554,note_on,8,0,1,,,,,,,,0,,,89,0
294556,note_on,76,0,7,,,,,,,,7,,,48,0
294564,note_on,84,0,10,,,,,,,,8,,,62,0
294584,note_on,104,0,11,,,,,,,,10,,,50,0
294584,note_on,104,0,12,,,,,,,,11,,,38,0
294600,note_on,74,0,8,,,,,,,,4,,,71,89
294600,note_on,44,0,7,,,,,,,,7,,,48,64
294600,note_on,0,0,8,,,,,,,,4,,,83,89
294622,note_on,22,0,8,,,,,,,,4,,,84,0
294636,note_on,14,0,8,,,,,,,,4,,,72,0
294674,note_on,74,0,7,,,,,,,,7,,,48,0
294720,note_on,0,0,4,,,,,,,,3,,,48,64
294720,note_on,176,0,4,,,,,,,,3,,,52,64
294720,note_on,166,0,1,,,,,,,,0,,,88,64
294720,note_on,156,0,10,,,,,,,,8,,,60,96
294720,note_on,178,0,6,,,,,,,,6,,,60,64
294720,note_on,0,0,6,,,,,,,,6,,,72,64
294720,note_on,174,0,3,,,,,,,,2,,,64,64
294720,note_on,178,0,5,,,,,,,,5,,,60,64
294720,note_on,184,0,2,,,,,,,,1,,,76,64
294720,note_on,0,0,1,,,,,,,,0,,,76,64
294720,note_on,136,0,11,,,,,,,,10,,,48,96
294720,note_on,0,0,5,,,,,,,,5,,,48,64
294720,note_on,84,0,8,,,,,,,,4,,,84,89
294720,note_on,136,0,12,,,,,,,,11,,,36,64
294720,note_on,0,0,8,,,,,,,,4,,,72,89
294720,note_on,46,0,7,,,,,,,,7,,,48,64
294742,note_on,22,0,8,,,,,,,,4,,,83,0
294772,note_on,30,0,8,,,,,,,,4,,,71,0
294780,note_on,60,0,6,,,,,,,,6,,,60,0
294780,note_on,60,0,1,,,,,,,,0,,,76,0
294780,note_on,60,0,5,,,,,,,,5,,,48,0
294784,note_on,64,0,4,,,,,,,,3,,,48,0
294784,note_on,4,0,6,,,,,,,,6,,,72,0
294784,note_on,4,0,5,,,,,,,,5,,,60,0
294790,note_on,6,0,4,,,,,,,,3,,,52,0
294792,note_on,72,0,2,,,,,,,,1,,,76,0
294794,note_on,74,0,3,,,,,,,,2,,,64,0
294804,note_on,24,0,1,,,,,,,,0,,,88,0
294812,note_on,92,0,7,,,,,,,,7,,,48,0
294814,note_on,94,0,10,,,,,,,,8,,,60,0
294832,note_on,112,0,12,,,,,,,,11,,,36,0
294832,note_on,112,0,11,,,,,,,,10,,,48,0
294840,note_on,68,0,8,,,,,,,,4,,,83,89
294840,note_on,28,0,7,,,,,,,,7,,,48,64
294840,note_on,0,0,8,,,,,,,,4,,,71,89
294864,note_on,24,0,8,,,,,,,,4,,,84,0
294886,note_on,22,0,8,,,,,,,,4,,,72,0
294910,note_on,70,0,7,,,,,,,,7,,,48,0
294960,note_on,146,0,10,,,,,,,,8,,,65,96
294960,note_on,0,0,4,,,,,,,,3,,,53,64
294960,note_on,166,0,3,,,,,,,,2,,,69,64
294960,note_on,176,0,5,,,,,,,,5,,,48,64
294960,note_on,50,0,7,,,,,,,,7,,,48,64
294960,note_on,0,0,5,,,,,,,,5,,,60,64
294960,note_on,176,0,6,,,,,,,,6,,,60,64
294960,note_on,170,0,4,,,,,,,,3,,,57,64
294960,note_on,0,0,8,,,,,,,,4,,,72,89
294960,note_on,156,0,1,,,,,,,,0,,,93,64
294960,note_on,0,0,1,,,,,,,,0,,,81,64
294960,note_on,128,0,11,,,,,,,,10,,,53,96
294960,note_on,0,0,6,,,,,,,,6,,,72,64
294960,note_on,168,0,2,,,,,,,,1,,,81,64
294960,note_on,74,0,8,,,,,,,,4,,,84,89
294960,note_on,128,0,12,,,,,,,,11,,,41,64
294982,note_on,22,0,8,,,,,,,,4,,,83,0
295014,note_on,32,0,8,,,,,,,,4,,,71,0
295020,note_on,60,0,5,,,,,,,,5,,,48,0
295020,note_on,60,0,6,,,,,,,,6,,,60,0
295026,note_on,66,0,2,,,,,,,,1,,,81,0
295026,note_on,66,0,1,,,,,,,,0,,,81,0
295030,note_on,10,0,5,,,,,,,,5,,,60,0
295030,note_on,10,0,6,,,,,,,,6,,,72,0
295032,note_on,72,0,3,,,,,,,,2,,,69,0
295034,note_on,8,0,1,,,,,,,,0,,,93,0
295034,note_on,74,0,4,,,,,,,,3,,,53,0
295040,note_on,6,0,4,,,,,,,,3,,,57,0
295040,note_on,80,0,10,,,,,,,,8,,,65,0
295042,note_on,82,0,7,,,,,,,,7,,,48,0
295046,note_on,86,0,11,,,,,,,,10,,,53,0
295046,note_on,86,0,12,,,,,,,,11,,,41,0
295080,note_on,38,0,7,,,,,,,,7,,,48,64
295080,note_on,0,0,8,,,,,,,,4,,,83,89
295080,note_on,66,0,8,,,,,,,,4,,,71,89
295102,note_on,22,0,8,,,,,,,,4,,,84,0
295110,note_on,8,0,8,,,,,,,,4,,,72,0
295156,note_on,76,0,7,,,,,,,,7,,,48,0
295200,note_on,0,0,8,,,,,,,,4,,,72,89
295200,note_on,160,0,4,,,,,,,,3,,,55,64
295200,note_on,166,0,1,,,,,,,,0,,,79,64
295200,note_on,0,0,6,,,,,,,,6,,,72,64
295200,note_on,0,0,4,,,,,,,,3,,,52,64
295200,note_on,174,0,2,,,,,,,,1,,,79,64
295200,note_on,0,0,1,,,,,,,,0,,,91,64
295200,note_on,44,0,7,,,,,,,,7,,,48,64
295200,note_on,154,0,12,,,,,,,,11,,,40,64
295200,note_on,160,0,10,,,,,,,,8,,,64,96
295200,note_on,154,0,11,,,,,,,,10,,,52,96
295200,note_on,90,0,8,,,,,,,,4,,,84,89
295200,note_on,170,0,5,,,,,,,,5,,,48,64
295200,note_on,0,0,5,,,,,,,,5,,,60,64
295200,note_on,168,0,3,,,,,,,,2,,,67,64
295200,note_on,170,0,6,,,,,,,,6,,,60,64
295222,note_on,22,0,8,,,,,,,,4,,,83,0
295250,note_on,50,0,6,,,,,,,,6,,,60,0
295250,note_on,50,0,5,,,,,,,,5,,,48,0
295256,note_on,34,0,8,,,,,,,,4,,,71,0
295262,note_on,62,0,3,,,,,,,,2,,,67,0
295264,note_on,64,0,1,,,,,,,,0,,,79,0
295264,note_on,0,0,4,,,,,,,,3,,,55,0
295264,note_on,64,0,4,,,,,,,,3,,,52,0
295270,note_on,20,0,5,,,,,,,,5,,,60,0
295270,note_on,20,0,6,,,,,,,,6,,,72,0
295272,note_on,72,0,2,,,,,,,,1,,,79,0
295274,note_on,10,0,1,,,,,,,,0,,,91,0
295280,note_on,80,0,10,,,,,,,,8,,,64,0
295286,note_on,86,0,7,,,,,,,,7,,,48,0
295292,note_on,92,0,11,,,,,,,,10,,,52,0
295292,note_on,92,0,12,,,,,,,,11,,,40,0
295320,note_on,0,0,8,,,,,,,,4,,,71,89
295320,note_on,34,0,7,,,,,,,,7,,,48,64
295320,note_on,64,0,8,,,,,,,,4,,,83,89
295342,note_on,22,0,8,,,,,,,,4,,,84,0
295360,note_on,18,0,8,,,,,,,,4,,,72,0
295390,note_on,70,0,7,,,,,,,,7,,,48,0
295440,note_on,176,0,4,,,,,,,,3,,,50,64
295440,note_on,0,0,4,,,,,,,,3,,,53,64
295440,note_on,170,0,5,,,,,,,,5,,,60,64
295440,note_on,160,0,10,,,,,,,,8,,,62,96
295440,note_on,148,0,11,,,,,,,,10,,,50,96
295440,note_on,0,0,8,,,,,,,,4,,,72,89
295440,note_on,80,0,8,,,,,,,,4,,,84,89
295440,note_on,170,0,6,,,,,,,,6,,,72,64
295440,note_on,178,0,3,,,,,,,,2,,,65,64
295440,note_on,50,0,7,,,,,,,,7,,,48,64
295440,note_on,166,0,1,,,,,,,,0,,,77,64
295440,note_on,0,0,1,,,,,,,,0,,,89,64
295440,note_on,0,0,5,,,,,,,,5,,,48,64
295440,note_on,0,0,6,,,,,,,,6,,,60,64
295440,note_on,148,0,12,,,,,,,,11,,,38,64
295440,note_on,168,0,2,,,,,,,,1,,,77,64
295462,note_on,22,0,8,,,,,,,,4,,,83,0
295490,note_on,28,0,8,,,,,,,,4,,,71,0
295500,note_on,60,0,5,,,,,,,,5,,,48,0
295500,note_on,60,0,4,,,,,,,,3,,,53,0
295500,note_on,60,0,6,,,,,,,,6,,,60,0
295504,note_on,4,0,4,,,,,,,,3,,,50,0
295506,note_on,66,0,1,,,,,,,,0,,,77,0
295506,note_on,6,0,6,,,,,,,,6,,,72,0
295506,note_on,6,0,5,,,,,,,,5,,,60,0
295506,note_on,66,0,3,,,,,,,,2,,,65,0
295516,note_on,10,0,1,,,,,,,,0,,,89,0
295520,note_on,80,0,7,,,,,,,,7,,,48,0
295524,note_on,84,0,2,,,,,,,,1,,,77,0
295530,note_on,90,0,10,,,,,,,,8,,,62,0
295544,note_on,104,0,12,,,,,,,,11,,,38,0
295544,note_on,104,0,11,,,,,,,,10,,,50,0
295560,note_on,70,0,8,,,,,,,,4,,,71,89
295560,note_on,40,0,7,,,,,,,,7,,,48,64
295560,note_on,0,0,8,,,,,,,,4,,,83,89
295582,note_on,22,0,8,,,,,,,,4,,,84,0
295596,note_on,14,0,8,,,,,,,,4,,,72,0
295630,note_on,70,0,7,,,,,,,,7,,,48,0
295680,note_on,156,0,2,,,,,,,,1,,,76,64
295680,note_on,0,0,8,,,,,,,,4,,,72,89
295680,note_on,174,0,3,,,,,,,,2,,,64,64
295680,note_on,84,0,8,,,,,,,,4,,,84,89
295680,note_on,0,0,5,,,,,,,,5,,,48,64
295680,note_on,174,0,5,,,,,,,,5,,,60,64
295680,note_on,150,0,10,,,,,,,,8,,,60,96
295680,note_on,0,0,4,,,,,,,,3,,,48,64
295680,note_on,176,0,4,,,,,,,,3,,,52,64
295680,note_on,136,0,12,,,,,,,,11,,,36,64
295680,note_on,50,0,7,,,,,,,,7,,,48,64
295680,note_on,164,0,1,,,,,,,,0,,,88,64
295680,note_on,174,0,6,,,,,,,,6,,,60,64
295680,note_on,0,0,6,,,,,,,,6,,,72,64
295680,note_on,0,0,1,,,,,,,,0,,,76,64
295680,note_on,136,0,11,,,,,,,,10,,,48,96
295702,note_on,22,0,8,,,,,,,,4,,,83,0
295730,note_on,28,0,8,,,,,,,,4,,,71,0
295740,note_on,60,0,5,,,,,,,,5,,,48,0
295740,note_on,60,0,6,,,,,,,,6,,,60,0
295740,note_on,60,0,4,,,,,,,,3,,,48,0
295744,note_on,4,0,6,,,,,,,,6,,,72,0
295744,note_on,4,0,5,,,,,,,,5,,,60,0
295744,note_on,4,0,4,,,,,,,,3,,,52,0
295750,note_on,70,0,2,,,,,,,,1,,,76,0
295754,note_on,74,0,3,,,,,,,,2,,,64,0
295754,note_on,74,0,1,,,,,,,,0,,,76,0
295760,note_on,6,0,1,,,,,,,,0,,,88,0
295772,note_on,92,0,7,,,,,,,,7,,,48,0
295776,note_on,96,0,10,,,,,,,,8,,,60,0
295786,note_on,106,0,12,,,,,,,,11,,,36,0
295786,note_on,106,0,11,,,,,,,,10,,,48,0
295800,note_on,28,0,7,,,,,,,,7,,,48,64
295800,note_on,70,0,8,,,,,,,,4,,,83,89
295800,note_on,0,0,8,,,,,,,,4,,,71,89
295824,note_on,24,0,8,,,,,,,,4,,,84,0
295836,note_on,12,0,8,,,,,,,,4,,,72,0
295872,note_on,72,0,7,,,,,,,,7,,,48,0
295920,note_on,134,0,11,,,,,,,,10,,,53,96
295920,note_on,0,0,8,,,,,,,,4,,,72,89
295920,note_on,0,0,1,,,,,,,,0,,,81,64
295920,note_on,0,0,5,,,,,,,,5,,,60,64
295920,note_on,176,0,5,,,,,,,,5,,,48,64
295920,note_on,176,0,4,,,,,,,,3,,,53,64
295920,note_on,144,0,10,,,,,,,,8,,,65,96
295920,note_on,170,0,2,,,,,,,,1,,,81,64
295920,note_on,84,0,8,,,,,,,,4,,,84,89
295920,note_on,0,0,4,,,,,,,,3,,,57,64
295920,note_on,160,0,1,,,,,,,,0,,,93,64
295920,note_on,0,0,6,,,,,,,,6,,,72,64
295920,note_on,176,0,6,,,,,,,,6,,,60,64
295920,note_on,48,0,7,,,,,,,,7,,,48,64
295920,note_on,134,0,12,,,,,,,,11,,,41,64
295920,note_on,166,0,3,,,,,,,,2,,,69,64
295942,note_on,22,0,8,,,,,,,,4,,,83,0
295970,note_on,28,0,8,,,,,,,,4,,,71,0
295980,note_on,60,0,6,,,,,,,,6,,,60,0
295980,note_on,60,0,5,,,,,,,,5,,,48,0
295984,note_on,4,0,6,,,,,,,,6,,,72,0
295984,note_on,4,0,5,,,,,,,,5,,,60,0
295986,note_on,66,0,1,,,,,,,,0,,,81,0
295992,note_on,72,0,3,,,,,,,,2,,,69,0
295992,note_on,72,0,7,,,,,,,,7,,,48,0
295994,note_on,74,0,2,,,,,,,,1,,,81,0
295994,note_on,8,0,1,,,,,,,,0,,,93,0
295996,note_on,0,0,4,,,,,,,,3,,,53,0
295996,note_on,76,0,4,,,,,,,,3,,,57,0
296010,note_on,90,0,10,,,,,,,,8,,,65,0
296012,note_on,92,0,11,,,,,,,,10,,,53,0
296012,note_on,92,0,12,,,,,,,,11,,,41,0
296040,note_on,70,0,8,,,,,,,,4,,,71,89
296040,note_on,0,0,8,,,,,,,,4,,,83,89
296040,note_on,48,0,7,,,,,,,,7,,,48,64
296062,note_on,22,0,8,,,,,,,,4,,,84,0
296072,note_on,10,0,8,,,,,,,,4,,,72,0
296114,note_on,74,0,7,,,,,,,,7,,,48,0
296160,note_on,176,0,6,,,,,,,,6,,,60,64
296160,note_on,0,0,6,,,,,,,,6,,,72,64
296160,note_on,150,0,10,,,,,,,,8,,,64,96
296160,note_on,148,0,12,,,,,,,,11,,,40,64
296160,note_on,46,0,7,,,,,,,,7,,,48,64
296160,note_on,166,0,2,,,,,,,,1,,,79,64
296160,note_on,0,0,4,,,,,,,,3,,,52,64
296160,note_on,148,0,11,,,,,,,,10,,,52,96
296160,note_on,176,0,5,,,,,,,,5,,,48,64
296160,note_on,0,0,5,,,,,,,,5,,,60,64
296160,note_on,88,0,8,,,,,,,,4,,,84,89
296160,note_on,0,0,1,,,,,,,,0,,,91,64
296160,note_on,166,0,1,,,,,,,,0,,,79,64
296160,note_on,0,0,8,,,,,,,,4,,,72,89
296160,note_on,168,0,3,,,,,,,,2,,,67,64
296160,note_on,164,0,4,,,,,,,,3,,,55,64
296182,note_on,22,0,8,,,,,,,,4,,,83,0
296210,note_on,50,0,5,,,,,,,,5,,,48,0
296210,note_on,50,0,6,,,,,,,,6,,,60,0
296212,note_on,30,0,8,,,,,,,,4,,,71,0
296224,note_on,64,0,2,,,,,,,,1,,,79,0
296226,note_on,66,0,7,,,,,,,,7,,,48,0
296226,note_on,66,0,4,,,,,,,,3,,,52,0
296226,note_on,0,0,4,,,,,,,,3,,,55,0
296230,note_on,20,0,6,,,,,,,,6,,,72,0
296230,note_on,70,0,1,,,,,,,,0,,,79,0
296230,note_on,20,0,5,,,,,,,,5,,,60,0
296230,note_on,70,0,3,,,,,,,,2,,,67,0
296234,note_on,4,0,1,,,,,,,,0,,,91,0
296246,note_on,86,0,10,,,,,,,,8,,,64,0
296256,note_on,96,0,12,,,,,,,,11,,,40,0
296256,note_on,96,0,11,,,,,,,,10,,,52,0
296280,note_on,0,0,8,,,,,,,,4,,,71,89
296280,note_on,68,0,8,,,,,,,,4,,,83,89
296280,note_on,54,0,7,,,,,,,,7,,,48,64
296302,note_on,22,0,8,,,,,,,,4,,,84,0
296312,note_on,10,0,8,,,,,,,,4,,,72,0
296356,note_on,76,0,7,,,,,,,,7,,,48,0
296400,note_on,170,0,5,,,,,,,,5,,,60,64
296400,note_on,170,0,3,,,,,,,,2,,,65,64
296400,note_on,0,0,6,,,,,,,,6,,,60,64
296400,note_on,144,0,11,,,,,,,,10,,,50,96
296400,note_on,0,0,4,,,,,,,,3,,,50,64
296400,note_on,174,0,4,,,,,,,,3,,,53,64
296400,note_on,176,0,2,,,,,,,,1,,,77,64
296400,note_on,144,0,12,,,,,,,,11,,,38,64
296400,note_on,154,0,10,,,,,,,,8,,,62,96
296400,note_on,170,0,6,,,,,,,,6,,,72,64
296400,note_on,44,0,7,,,,,,,,7,,,48,64
296400,note_on,0,0,8,,,,,,,,4,,,72,89
296400,note_on,166,0,1,,,,,,,,0,,,77,64
296400,note_on,0,0,1,,,,,,,,0,,,89,64
296400,note_on,88,0,8,,,,,,,,4,,,84,89
296400,note_on,0,0,5,,,,,,,,5,,,48,64
296422,note_on,22,0,8,,,,,,,,4,,,83,0
296440,note_on,18,0,8,,,,,,,,4,,,71,0
296452,note_on,52,0,6,,,,,,,,6,,,60,0
296452,note_on,52,0,5,,,,,,,,5,,,48,0
296462,note_on,10,0,5,,,,,,,,5,,,60,0
296462,note_on,62,0,3,,,,,,,,2,,,65,0
296462,note_on,10,0,6,,,,,,,,6,,,72,0
296464,note_on,64,0,1,,,,,,,,0,,,77,0
296466,note_on,66,0,2,,,,,,,,1,,,77,0
296474,note_on,74,0,4,,,,,,,,3,,,50,0
296476,note_on,2,0,4,,,,,,,,3,,,53,0
296480,note_on,16,0,1,,,,,,,,0,,,89,0
296480,note_on,80,0,7,,,,,,,,7,,,48,0
296492,note_on,92,0,10,,,,,,,,8,,,62,0
296494,note_on,94,0,11,,,,,,,,10,,,50,0
296494,note_on,94,0,12,,,,,,,,11,,,38,0
296520,note_on,80,0,8,,,,,,,,4,,,71,89
296520,note_on,0,0,8,,,,,,,,4,,,83,89
296520,note_on,40,0,7,,,,,,,,7,,,48,64
296542,note_on,22,0,8,,,,,,,,4,,,84,0
296552,note_on,10,0,8,,,,,,,,4,,,72,0
296584,note_on,64,0,7,,,,,,,,7,,,48,0
296640,note_on,178,0,3,,,,,,,,2,,,64,64
296640,note_on,146,0,11,,,,,,,,10,,,48,96
296640,note_on,178,0,5,,,,,,,,5,,,48,64
296640,note_on,0,0,5,,,,,,,,5,,,60,64
296640,note_on,0,0,4,,,,,,,,3,,,48,64
296640,note_on,148,0,10,,,,,,,,8,,,60,96
296640,note_on,0,0,8,,,,,,,,4,,,84,89
296640,note_on,88,0,8,,,,,,,,4,,,72,89
296640,note_on,0,0,1,,,,,,,,0,,,88,64
296640,note_on,160,0,1,,,,,,,,0,,,76,64
296640,note_on,56,0,7,,,,,,,,7,,,48,64
296640,note_on,174,0,2,,,,,,,,1,,,76,64
296640,note_on,0,0,6,,,,,,,,6,,,60,64
296640,note_on,164,0,4,,,,,,,,3,,,52,64
296640,note_on,146,0,12,,,,,,,,11,,,36,64
296640,set_tempo,105600,1,0,,,,,,441176,,,,,,
296640,note_on,178,0,6,,,,,,,,6,,,72,64
296662,note_on,22,0,8,,,,,,,,4,,,83,0
296670,note_on,8,0,8,,,,,,,,4,,,71,0
296776,note_on,136,0,12,,,,,,,,11,,,36,0
296832,note_on,192,0,6,,,,,,,,6,,,60,0
296832,note_on,192,0,11,,,,,,,,10,,,48,0
296832,note_on,0,0,6,,,,,,,,6,,,72,0
296832,note_on,0,0,5,,,,,,,,5,,,48,0
296832,note_on,0,0,1,,,,,,,,0,,,76,0
296832,note_on,192,0,7,,,,,,,,7,,,48,0
296832,note_on,192,0,2,,,,,,,,1,,,76,0
296832,note_on,162,0,8,,,,,,,,4,,,72,0
296832,note_on,0,0,8,,,,,,,,4,,,84,0
296832,note_on,192,0,3,,,,,,,,2,,,64,0
296832,note_on,192,0,10,,,,,,,,8,,,60,0
296832,note_on,192,0,5,,,,,,,,5,,,60,0
296832,note_on,192,0,4,,,,,,,,3,,,48,0
296832,note_on,192,0,1,,,,,,,,0,,,88,0
296832,note_on,0,0,4,,,,,,,,3,,,52,0
297120,note_on,288,0,4,,,,,,,,3,,,60,64
297120,note_on,0,0,4,,,,,,,,3,,,48,64
297120,note_on,288,0,6,,,,,,,,6,,,72,64
297120,note_on,288,0,3,,,,,,,,2,,,72,64
297120,note_on,0,0,3,,,,,,,,2,,,64,64
297120,note_on,0,0,6,,,,,,,,6,,,60,64
297120,note_on,0,0,1,,,,,,,,0,,,76,64
297120,note_on,0,0,5,,,,,,,,5,,,60,64
297120,note_on,288,0,5,,,,,,,,5,,,52,64
297120,note_on,288,0,2,,,,,,,,1,,,72,64
297120,note_on,288,0,7,,,,,,,,7,,,48,64
297120,note_on,288,0,1,,,,,,,,0,,,84,64
297120,note_on,0,0,2,,,,,,,,1,,,76,64
297312,note_on,192,0,3,,,,,,,,2,,,64,0
297312,note_on,0,0,3,,,,,,,,2,,,72,0
297312,note_on,192,0,5,,,,,,,,5,,,60,0
297312,note_on,0,0,2,,,,,,,,1,,,72,0
297312,note_on,192,0,7,,,,,,,,7,,,48,0
297312,note_on,192,0,6,,,,,,,,6,,,60,0
297312,note_on,0,0,5,,,,,,,,5,,,52,0
297312,note_on,192,0,4,,,,,,,,3,,,48,0
297312,note_on,0,0,4,,,,,,,,3,,,60,0
297312,note_on,0,0,1,,,,,,,,0,,,84,0
297312,note_on,192,0,1,,,,,,,,0,,,76,0
297312,note_on,192,0,2,,,,,,,,1,,,76,0
297312,note_on,0,0,6,,,,,,,,6,,,72,0
297600,note_on,768,0,10,,,,,,,,8,,,60,96
297600,note_on,768,0,11,,,,,,,,10,,,60,96
297600,note_on,768,0,8,,,,,,,,4,,,76,127
297600,note_on,0,0,8,,,,,,,,4,,,67,127
297600,note_on,824,0,12,,,,,,,,11,,,48,64
297600,note_on,0,0,8,,,,,,,,4,,,84,127
297792,note_on,0,0,8,,,,,,,,4,,,76,0
297792,note_on,192,0,10,,,,,,,,8,,,60,0
297792,note_on,192,0,12,,,,,,,,11,,,48,0
297792,note_on,192,0,8,,,,,,,,4,,,67,0
297792,note_on,192,0,11,,,,,,,,10,,,60,0
297792,note_on,0,0,8,,,,,,,,4,,,84,0
298080,note_on,768,0,5,,,,,,,,5,,,60,64
298080,note_on,0,0,4,,,,,,,,3,,,60,64
298080,note_on,768,0,4,,,,,,,,3,,,48,64
298080,note_on,768,0,6,,,,,,,,6,,,72,64
298080,note_on,0,0,5,,,,,,,,5,,,64,64
298080,note_on,0,0,2,,,,,,,,1,,,84,64
298080,note_on,0,0,1,,,,,,,,0,,,84,64
298080,note_on,768,0,2,,,,,,,,1,,,76,64
298080,note_on,768,0,3,,,,,,,,2,,,72,64
298080,note_on,0,0,3,,,,,,,,2,,,76,64
298080,note_on,768,0,1,,,,,,,,0,,,88,64
298080,note_on,0,0,6,,,,,,,,6,,,60,64
298080,note_on,768,0,7,,,,,,,,7,,,48,64
298272,note_on,0,0,1,,,,,,,,0,,,88,0
298272,note_on,0,0,4,,,,,,,,3,,,48,0
298272,note_on,192,0,5,,,,,,,,5,,,64,0
298272,note_on,0,0,3,,,,,,,,2,,,72,0
298272,note_on,192,0,7,,,,,,,,7,,,48,0
298272,note_on,0,0,2,,,,,,,,1,,,76,0
298272,note_on,192,0,2,,,,,,,,1,,,84,0
298272,note_on,192,0,1,,,,,,,,0,,,84,0
298272,note_on,192,0,3,,,,,,,,2,,,76,0
298272,note_on,192,0,6,,,,,,,,6,,,60,0
298272,note_on,0,0,6,,,,,,,,6,,,72,0
298272,note_on,0,0,5,,,,,,,,5,,,60,0
298272,note_on,192,0,4,,,,,,,,3,,,60,0
298560,note_on,768,0,12,,,,,,,,11,,,48,64
298560,note_on,768,0,11,,,,,,,,10,,,60,96
298560,note_on,768,0,8,,,,,,,,4,,,72,127
298560,note_on,0,0,8,,,,,,,,4,,,79,127
298560,note_on,0,0,8,,,,,,,,4,,,64,127
298560,note_on,768,0,10,,,,,,,,8,,,60,96
298752,note_on,192,0,10,,,,,,,,8,,,60,0
298752,note_on,0,0,8,,,,,,,,4,,,72,0
298752,note_on,0,0,8,,,,,,,,4,,,79,0
298752,note_on,192,0,8,,,,,,,,4,,,64,0
298752,note_on,192,0,12,,,,,,,,11,,,48,0
298752,note_on,192,0,11,,,,,,,,10,,,60,0
299040,note_on,0,0,3,,,,,,,,2,,,79,64
299040,note_on,768,0,3,,,,,,,,2,,,76,64
299040,note_on,768,0,5,,,,,,,,5,,,64,64
299040,note_on,768,0,7,,,,,,,,7,,,48,64
299040,note_on,768,0,6,,,,,,,,6,,,72,64
299040,note_on,0,0,6,,,,,,,,6,,,60,64
299040,note_on,768,0,4,,,,,,,,3,,,60,64
299040,note_on,0,0,4,,,,,,,,3,,,48,64
299040,note_on,768,0,2,,,,,,,,1,,,84,64
299040,note_on,0,0,1,,,,,,,,0,,,91,64
299040,note_on,768,0,1,,,,,,,,0,,,84,64
299040,note_on,0,0,2,,,,,,,,1,,,76,64
299040,note_on,0,0,5,,,,,,,,5,,,67,64
299232,note_on,192,0,5,,,,,,,,5,,,67,0
299232,note_on,192,0,6,,,,,,,,6,,,60,0
299232,note_on,0,0,5,,,,,,,,5,,,64,0
299232,note_on,192,0,7,,,,,,,,7,,,48,0
299232,note_on,192,0,2,,,,,,,,1,,,76,0
299232,note_on,0,0,2,,,,,,,,1,,,84,0
299232,note_on,192,0,3,,,,,,,,2,,,79,0
299232,note_on,0,0,3,,,,,,,,2,,,76,0
299232,note_on,0,0,6,,,,,,,,6,,,72,0
299232,note_on,192,0,1,,,,,,,,0,,,91,0
299232,note_on,0,0,4,,,,,,,,3,,,60,0
299232,note_on,192,0,4,,,,,,,,3,,,48,0
299232,note_on,0,0,1,,,,,,,,0,,,84,0
299520,note_on,768,0,12,,,,,,,,11,,,36,64
299520,note_on,768,0,11,,,,,,,,10,,,48,96
299520,note_on,0,0,8,,,,,,,,4,,,76,127
299520,note_on,768,0,8,,,,,,,,4,,,67,127
299520,note_on,768,0,10,,,,,,,,8,,,60,96
299520,note_on,0,0,8,,,,,,,,4,,,60,127
299634,note_on,114,0,12,,,,,,,,11,,,36,0
299712,note_on,192,0,10,,,,,,,,8,,,60,0
299712,note_on,192,0,8,,,,,,,,4,,,60,0
299712,note_on,0,0,8,,,,,,,,4,,,76,0
299712,note_on,192,0,11,,,,,,,,10,,,48,0
299712,note_on,0,0,8,,,,,,,,4,,,67,0
300000,note_on,768,0,6,,,,,,,,6,,,72,64
300000,note_on,0,0,6,,,,,,,,6,,,60,64
300000,note_on,768,0,1,,,,,,,,0,,,84,64
300000,note_on,0,0,2,,,,,,,,1,,,84,64
300000,note_on,768,0,5,,,,,,,,5,,,64,64
300000,note_on,0,0,5,,,,,,,,5,,,60,64
300000,note_on,0,0,4,,,,,,,,3,,,48,64
300000,note_on,768,0,4,,,,,,,,3,,,60,64
300000,note_on,768,0,2,,,,,,,,1,,,76,64
300000,note_on,768,0,7,,,,,,,,7,,,48,64
300000,note_on,0,0,1,,,,,,,,0,,,88,64
300000,note_on,0,0,3,,,,,,,,2,,,76,64
300000,note_on,768,0,3,,,,,,,,2,,,67,64
300192,note_on,192,0,2,,,,,,,,1,,,84,0
300192,note_on,0,0,1,,,,,,,,0,,,84,0
300192,note_on,192,0,6,,,,,,,,6,,,60,0
300192,note_on,0,0,6,,,,,,,,6,,,72,0
300192,note_on,0,0,5,,,,,,,,5,,,64,0
300192,note_on,0,0,2,,,,,,,,1,,,76,0
300192,note_on,192,0,1,,,,,,,,0,,,88,0
300192,note_on,192,0,3,,,,,,,,2,,,76,0
300192,note_on,192,0,5,,,,,,,,5,,,60,0
300192,note_on,192,0,7,,,,,,,,7,,,48,0
300192,note_on,0,0,4,,,,,,,,3,,,60,0
300192,note_on,192,0,4,,,,,,,,3,,,48,0
300192,note_on,0,0,3,,,,,,,,2,,,67,0
300480,note_on,288,0,4,,,,,,,,3,,,60,64
300480,note_on,846,0,12,,,,,,,,11,,,36,64
300480,note_on,288,0,5,,,,,,,,5,,,52,64
300480,note_on,0,0,6,,,,,,,,6,,,60,64
300480,note_on,288,0,6,,,,,,,,6,,,72,64
300480,note_on,288,0,3,,,,,,,,2,,,64,64
300480,note_on,0,0,3,,,,,,,,2,,,72,64
300480,note_on,0,0,4,,,,,,,,3,,,48,64
300480,note_on,0,0,2,,,,,,,,1,,,84,64
300480,note_on,288,0,1,,,,,,,,0,,,84,64
300480,note_on,0,0,1,,,,,,,,0,,,76,64
300480,note_on,0,0,5,,,,,,,,5,,,60,64
300480,note_on,0,0,8,,,,,,,,4,,,72,127
300480,note_on,768,0,11,,,,,,,,10,,,48,96
300480,note_on,0,0,8,,,,,,,,4,,,64,127
300480,note_on,768,0,10,,,,,,,,8,,,64,96
300480,note_on,288,0,2,,,,,,,,1,,,76,64
300480,note_on,0,0,10,,,,,,,,8,,,72,96
300480,note_on,288,0,7,,,,,,,,7,,,48,64
300480,note_on,768,0,8,,,,,,,,4,,,55,127
300584,note_on,104,0,12,,,,,,,,11,,,36,0
300672,note_on,0,0,8,,,,,,,,4,,,55,0
300672,note_on,0,0,8,,,,,,,,4,,,64,0
300672,note_on,192,0,8,,,,,,,,4,,,72,0
300672,note_on,192,0,3,,,,,,,,2,,,72,0
300672,note_on,0,0,3,,,,,,,,2,,,64,0
300672,note_on,192,0,4,,,,,,,,3,,,48,0
300672,note_on,0,0,4,,,,,,,,3,,,60,0
300672,note_on,0,0,5,,,,,,,,5,,,52,0
300672,note_on,192,0,5,,,,,,,,5,,,60,0
300672,note_on,192,0,10,,,,,,,,8,,,72,0
300672,note_on,0,0,2,,,,,,,,1,,,76,0
300672,note_on,0,0,10,,,,,,,,8,,,64,0
300672,note_on,192,0,6,,,,,,,,6,,,60,0
300672,note_on,192,0,7,,,,,,,,7,,,48,0
300672,note_on,192,0,2,,,,,,,,1,,,84,0
300672,note_on,0,0,1,,,,,,,,0,,,84,0
300672,note_on,192,0,1,,,,,,,,0,,,76,0
300672,note_on,192,0,11,,,,,,,,10,,,48,0
300672,note_on,0,0,6,,,,,,,,6,,,72,0
301440,note_on,0,0,10,,,,,,,,8,,,60,96
301440,note_on,768,0,4,,,,,,,,3,,,64,64
301440,note_on,0,0,4,,,,,,,,3,,,55,64
301440,note_on,768,0,7,,,,,,,,7,,,48,64
301440,note_on,0,0,5,,,,,,,,5,,,64,64
301440,note_on,768,0,5,,,,,,,,5,,,60,64
301440,note_on,768,0,1,,,,,,,,0,,,88,64
301440,note_on,768,0,8,,,,,,,,4,,,76,127
301440,note_on,0,0,1,,,,,,,,0,,,84,64
301440,note_on,856,0,12,,,,,,,,11,,,36,64
301440,note_on,768,0,2,,,,,,,,1,,,76,64
301440,note_on,0,0,2,,,,,,,,1,,,79,64
301440,note_on,768,0,10,,,,,,,,8,,,48,96
301440,note_on,0,0,8,,,,,,,,4,,,67,127
301440,note_on,768,0,11,,,,,,,,10,,,48,96
301440,note_on,0,0,3,,,,,,,,2,,,76,64
301440,note_on,0,0,8,,,,,,,,4,,,84,127
301440,note_on,0,0,6,,,,,,,,6,,,60,64
301440,note_on,768,0,6,,,,,,,,6,,,72,64
301440,note_on,768,0,3,,,,,,,,2,,,67,64
301544,note_on,104,0,12,,,,,,,,11,,,36,0
301632,note_on,192,0,4,,,,,,,,3,,,55,0
301632,note_on,192,0,8,,,,,,,,4,,,67,0
301632,note_on,192,0,7,,,,,,,,7,,,48,0
301632,note_on,0,0,8,,,,,,,,4,,,84,0
301632,note_on,0,0,8,,,,,,,,4,,,76,0
301632,note_on,0,0,1,,,,,,,,0,,,88,0
301632,note_on,0,0,4,,,,,,,,3,,,64,0
301632,note_on,192,0,1,,,,,,,,0,,,84,0
301632,note_on,0,0,10,,,,,,,,8,,,48,0
301632,note_on,192,0,10,,,,,,,,8,,,60,0
301632,note_on,0,0,3,,,,,,,,2,,,67,0
301632,note_on,192,0,5,,,,,,,,5,,,64,0
301632,note_on,192,0,3,,,,,,,,2,,,76,0
301632,note_on,192,0,6,,,,,,,,6,,,60,0
301632,note_on,0,0,6,,,,,,,,6,,,72,0
301632,note_on,0,0,2,,,,,,,,1,,,76,0
301632,note_on,192,0,2,,,,,,,,1,,,79,0
301632,note_on,192,0,11,,,,,,,,10,,,48,0
301632,note_on,0,0,5,,,,,,,,5,,,60,0
302400,note_on,0,0,5,,,,,,,,5,,,60,64
302400,note_on,768,0,5,,,,,,,,5,,,52,64
302400,note_on,856,0,12,,,,,,,,11,,,36,64
302400,note_on,768,0,8,,,,,,,,4,,,64,127
302400,note_on,0,0,4,,,,,,,,3,,,52,64
302400,note_on,768,0,7,,,,,,,,7,,,48,64
302400,note_on,768,0,11,,,,,,,,10,,,48,96
302400,note_on,0,0,8,,,,,,,,4,,,55,127
302400,note_on,768,0,10,,,,,,,,8,,,48,96
302400,note_on,768,0,4,,,,,,,,3,,,60,64
302400,note_on,768,0,1,,,,,,,,0,,,76,64
302400,note_on,768,0,6,,,,,,,,6,,,72,64
302400,note_on,0,0,6,,,,,,,,6,,,60,64
302400,note_on,0,0,3,,,,,,,,2,,,72,64
302400,note_on,768,0,3,,,,,,,,2,,,64,64
302400,note_on,768,0,2,,,,,,,,1,,,72,64
302400,note_on,0,0,2,,,,,,,,1,,,76,64
302400,note_on,0,0,8,,,,,,,,4,,,72,127
302400,note_on,0,0,1,,,,,,,,0,,,84,64
302520,note_on,0,0,4,,,,,,,,3,,,60,0
302520,note_on,120,0,4,,,,,,,,3,,,52,0
302520,note_on,0,0,5,,,,,,,,5,,,52,0
302520,note_on,120,0,5,,,,,,,,5,,,60,0
302520,note_on,0,0,1,,,,,,,,0,,,76,0
302520,note_on,0,0,3,,,,,,,,2,,,64,0
302520,note_on,0,0,6,,,,,,,,6,,,72,0
302520,note_on,120,0,6,,,,,,,,6,,,60,0
302520,note_on,120,0,3,,,,,,,,2,,,72,0
302520,note_on,120,0,2,,,,,,,,1,,,76,0
302520,note_on,0,0,2,,,,,,,,1,,,72,0
302520,note_on,120,0,1,,,,,,,,0,,,84,0
302520,note_on,120,0,7,,,,,,,,7,,,48,0
302568,note_on,168,0,10,,,,,,,,8,,,48,0
302568,note_on,0,0,8,,,,,,,,4,,,64,0
302568,note_on,0,0,8,,,,,,,,4,,,55,0
302568,note_on,168,0,8,,,,,,,,4,,,72,0
302568,note_on,168,0,12,,,,,,,,11,,,36,0
302568,note_on,168,0,11,,,,,,,,10,,,48,0
303360,note_on,840,0,6,,,,,,,,6,,,72,96
303360,note_on,840,0,3,,,,,,,,2,,,64,96
303360,note_on,0,0,6,,,,,,,,6,,,60,96
303360,note_on,840,0,1,,,,,,,,0,,,84,96
303360,note_on,840,0,4,,,,,,,,3,,,60,96
303360,note_on,0,0,4,,,,,,,,3,,,48,96
303360,note_on,792,0,10,,,,,,,,8,,,48,127
303360,note_on,792,0,11,,,,,,,,10,,,48,127
303360,note_on,840,0,2,,,,,,,,1,,,76,96
303360,note_on,0,0,3,,,,,,,,2,,,72,96
303360,note_on,0,0,2,,,,,,,,1,,,84,96
303360,note_on,840,0,5,,,,,,,,5,,,52,96
303360,note_on,0,0,5,,,,,,,,5,,,60,96
303360,note_on,0,0,8,,,,,,,,4,,,48,127
303360,set_tempo,6720,1,0,,,,,,476190,,,,,,
303360,note_on,792,0,12,,,,,,,,11,,,36,96
303360,end_of_track,0,1,0,,,,,,,,,,,,
303360,note_on,840,0,7,,,,,,,,7,,,48,127
303360,note_on,792,0,8,,,,,,,,4,,,60,127
303472,note_on,112,0,12,,,,,,,,11,,,36,0
303480,note_on,120,0,6,,,,,,,,6,,,60,0
303480,note_on,120,0,1,,,,,,,,0,,,84,0
303480,note_on,120,0,10,,,,,,,,8,,,48,0
303480,note_on,0,0,3,,,,,,,,2,,,64,0
303480,note_on,120,0,7,,,,,,,,7,,,48,0
303480,note_on,120,0,5,,,,,,,,5,,,60,0
303480,note_on,0,0,6,,,,,,,,6,,,72,0
303480,note_on,120,0,4,,,,,,,,3,,,48,0
303480,note_on,0,0,4,,,,,,,,3,,,60,0
303480,note_on,120,0,11,,,,,,,,10,,,48,0
303480,note_on,120,0,2,,,,,,,,1,,,84,0
303480,note_on,120,0,3,,,,,,,,2,,,72,0
303480,note_on,0,0,5,,,,,,,,5,,,52,0
303480,note_on,0,0,2,,,,,,,,1,,,76,0
303600,note_on,240,0,8,,,,,,,,4,,,48,0
303600,note_on,0,0,8,,,,,,,,4,,,60,0
303840,note_on,0,0,2,,,,,,,,1,,,84,96
303840,note_on,360,0,2,,,,,,,,1,,,76,96
303840,note_on,360,0,3,,,,,,,,2,,,64,96
303840,note_on,0,0,3,,,,,,,,2,,,72,96
303840,note_on,360,0,11,,,,,,,,10,,,48,127
303840,note_on,360,0,10,,,,,,,,8,,,48,127
303840,note_on,240,0,8,,,,,,,,4,,,60,127
303840,note_on,0,0,8,,,,,,,,4,,,48,127
303840,note_on,360,0,7,,,,,,,,7,,,48,127
303840,note_on,360,0,1,,,,,,,,0,,,84,96
303840,note_on,360,0,6,,,,,,,,6,,,72,96
303840,note_on,368,0,12,,,,,,,,11,,,36,96
303840,note_on,0,0,4,,,,,,,,3,,,48,96
303840,note_on,360,0,4,,,,,,,,3,,,60,96
303840,note_on,0,0,6,,,,,,,,6,,,60,96
303840,note_on,360,0,5,,,,,,,,5,,,52,96
303840,note_on,0,0,5,,,,,,,,5,,,60,96
303946,note_on,106,0,12,,,,,,,,11,,,36,0
303960,note_on,120,0,7,,,,,,,,7,,,48,0
303960,note_on,0,0,4,,,,,,,,3,,,60,0
303960,note_on,120,0,4,,,,,,,,3,,,48,0
303960,note_on,120,0,11,,,,,,,,10,,,48,0
303960,note_on,0,0,5,,,,,,,,5,,,52,0
303960,note_on,120,0,2,,,,,,,,1,,,84,0
303960,note_on,120,0,5,,,,,,,,5,,,60,0
303960,note_on,120,0,1,,,,,,,,0,,,84,0
303960,note_on,120,0,10,,,,,,,,8,,,48,0
303960,note_on,120,0,3,,,,,,,,2,,,72,0
303960,note_on,120,0,6,,,,,,,,6,,,60,0
303960,note_on,0,0,3,,,,,,,,2,,,64,0
303960,note_on,0,0,6,,,,,,,,6,,,72,0
303960,note_on,0,0,2,,,,,,,,1,,,76,0
304080,note_on,0,0,8,,,,,,,,4,,,60,0
304080,note_on,240,0,8,,,,,,,,4,,,48,0
304320,note_on,374,0,12,,,,,,,,11,,,36,96
304320,note_on,0,0,5,,,,,,,,5,,,60,96
304320,note_on,360,0,5,,,,,,,,5,,,52,96
304320,note_on,0,0,2,,,,,,,,1,,,76,96
304320,note_on,0,0,8,,,,,,,,4,,,48,127
304320,note_on,240,0,8,,,,,,,,4,,,60,127
304320,note_on,360,0,2,,,,,,,,1,,,84,96
304320,note_on,360,0,10,,,,,,,,8,,,60,127
304320,note_on,360,0,3,,,,,,,,2,,,64,96
304320,note_on,360,0,11,,,,,,,,10,,,48,127
304320,note_on,360,0,6,,,,,,,,6,,,72,96
304320,note_on,0,0,6,,,,,,,,6,,,60,96
304320,note_on,360,0,7,,,,,,,,7,,,48,127
304320,note_on,360,0,4,,,,,,,,3,,,60,96
304320,note_on,360,0,1,,,,,,,,0,,,84,96
304320,note_on,0,0,4,,,,,,,,3,,,48,96
304320,note_on,0,0,3,,,,,,,,2,,,72,96
304420,end_of_track,0,1,12,,,,,,,,,,,,
304420,note_on,100,0,12,,,,,,,,11,,,36,0
304440,note_on,120,0,3,,,,,,,,2,,,72,0
304440,note_on,120,0,5,,,,,,,,5,,,60,0
304440,note_on,120,0,2,,,,,,,,1,,,76,0
304440,note_on,120,0,11,,,,,,,,10,,,48,0
304440,end_of_track,0,1,11,,,,,,,,,,,,
304440,note_on,0,0,2,,,,,,,,1,,,84,0
304440,end_of_track,0,1,2,,,,,,,,,,,,
304440,note_on,120,0,6,,,,,,,,6,,,60,0
304440,note_on,0,0,6,,,,,,,,6,,,72,0
304440,end_of_track,0,1,6,,,,,,,,,,,,
304440,note_on,120,0,7,,,,,,,,7,,,48,0
304440,end_of_track,0,1,7,,,,,,,,,,,,
304440,note_on,0,0,4,,,,,,,,3,,,60,0
304440,note_on,120,0,4,,,,,,,,3,,,48,0
304440,end_of_track,0,1,5,,,,,,,,,,,,
304440,note_on,120,0,1,,,,,,,,0,,,84,0
304440,end_of_track,0,1,1,,,,,,,,,,,,
304440,end_of_track,0,1,10,,,,,,,,,,,,
304440,note_on,0,0,10,,,,,,,,8,,,52,0
304440,note_on,120,0,10,,,,,,,,8,,,60,0
304440,end_of_track,0,1,3,,,,,,,,,,,,
304440,note_on,0,0,3,,,,,,,,2,,,64,0
304440,end_of_track,0,1,4,,,,,,,,,,,,
304440,note_on,0,0,5,,,,,,,,5,,,52,0
304560,end_of_track,0,1,8,,,,,,,,,,,,
304560,note_on,0,0,8,,,,,,,,4,,,60,0
304560,note_on,240,0,8,,,,,,,,4,,,48,0
