,note,step,duration,channel,velocity
0,60.0,0,150,10.0,64.0
1,60.0,0,150,3.0,64.0
2,84.0,0,150,0.0,64.0
3,48.0,0,150,5.0,64.0
4,60.0,0,150,15.0,64.0
5,48.0,0,150,15.0,64.0
6,48.0,0,150,11.0,64.0
7,72.0,0,150,1.0,64.0
8,48.0,0,150,10.0,64.0
9,72.0,0,150,2.0,64.0
10,72.0,240,150,7.0,64.0
11,55.0,0,150,8.0,64.0
12,60.0,0,150,4.0,64.0
13,48.0,0,150,4.0,64.0
14,48.0,1680,390,6.0,64.0
15,36.0,0,150,12.0,64.0
16,52.0,0,150,4.0,64.0
17,64.0,0,150,1.0,64.0
18,72.0,0,150,5.0,64.0
19,60.0,0,150,5.0,64.0
20,64.0,0,150,2.0,64.0
21,64.0,0,150,3.0,64.0
22,64.0,0,150,7.0,64.0
23,62.0,0,150,15.0,64.0
24,59.0,0,150,5.0,64.0
25,47.0,0,150,11.0,64.0
26,86.0,240,150,0.0,64.0
27,91.0,0,150,0.0,64.0
28,74.0,0,150,7.0,64.0
29,43.0,1680,390,6.0,64.0
30,74.0,0,150,2.0,64.0
31,79.0,0,150,2.0,64.0
32,55.0,0,150,5.0,64.0
33,74.0,0,150,1.0,64.0
34,62.0,0,150,5.0,64.0
35,62.0,0,150,4.0,64.0
36,55.0,0,150,4.0,64.0
37,67.0,0,150,4.0,64.0
38,35.0,0,150,12.0,64.0
39,55.0,0,150,8.0,64.0
40,79.0,0,150,1.0,64.0
41,67.0,0,150,5.0,64.0
42,67.0,0,150,7.0,64.0
43,79.0,0,150,7.0,64.0
44,59.0,0,150,15.0,64.0
45,62.0,0,150,10.0,64.0
46,59.0,0,150,3.0,64.0
47,67.0,0,150,15.0,64.0
48,59.0,0,150,10.0,64.0
49,62.0,0,150,3.0,64.0
50,84.0,0,150,0.0,64.0
51,88.0,0,150,0.0,64.0
52,64.0,0,150,10.0,64.0
53,76.0,0,150,2.0,64.0
54,72.0,0,150,2.0,64.0
55,76.0,0,150,1.0,64.0
56,64.0,0,150,1.0,64.0
57,60.0,0,150,3.0,64.0
58,72.0,0,150,5.0,64.0
59,60.0,240,150,10.0,64.0
60,64.0,0,150,3.0,64.0
61,48.0,720,390,6.0,64.0
62,55.0,0,150,8.0,64.0
63,64.0,0,150,5.0,64.0
64,60.0,0,150,5.0,64.0
65,36.0,0,150,12.0,64.0
66,52.0,0,150,4.0,64.0
67,64.0,0,150,4.0,64.0
68,48.0,0,150,11.0,64.0
69,60.0,0,150,15.0,64.0
70,72.0,0,150,7.0,64.0
71,64.0,0,150,7.0,64.0
72,76.0,0,150,7.0,64.0
73,64.0,0,150,15.0,64.0
74,81.0,0,150,7.0,64.0
75,65.0,0,150,8.0,64.0
76,48.0,720,390,6.0,64.0
77,72.0,0,150,5.0,64.0
78,29.0,0,150,12.0,64.0
79,53.0,0,150,15.0,64.0
80,65.0,0,150,15.0,64.0
81,60.0,0,150,15.0,64.0
82,69.0,0,150,2.0,64.0
83,53.0,0,150,5.0,64.0
84,41.0,0,150,11.0,64.0
85,65.0,0,150,5.0,64.0
86,69.0,0,150,7.0,64.0
87,69.0,0,150,1.0,64.0
88,60.0,0,150,5.0,64.0
89,48.0,0,150,4.0,64.0
90,60.0,240,150,4.0,64.0
91,81.0,0,150,1.0,64.0
92,77.0,0,150,2.0,64.0
93,65.0,0,150,3.0,64.0
94,84.0,0,150,0.0,64.0
95,93.0,0,150,0.0,64.0
96,53.0,0,150,3.0,64.0
97,53.0,0,150,10.0,64.0
98,71.0,0,150,1.0,64.0
99,43.0,0,150,4.0,64.0
100,43.0,0,150,11.0,64.0
101,67.0,0,150,5.0,64.0
102,71.0,0,150,7.0,64.0
103,62.0,0,150,7.0,64.0
104,55.0,0,150,8.0,64.0
105,55.0,0,150,10.0,64.0
106,62.0,0,150,15.0,64.0
107,83.0,0,150,0.0,64.0
108,55.0,0,150,5.0,64.0
109,31.0,0,150,12.0,64.0
110,59.0,0,150,5.0,64.0
111,62.0,0,150,5.0,64.0
112,43.0,516,390,6.0,64.0
113,71.0,0,150,2.0,64.0
114,55.0,0,150,15.0,64.0
115,55.0,0,150,3.0,64.0
116,55.0,0,150,4.0,64.0
117,62.0,0,150,2.0,64.0
118,59.0,0,150,15.0,64.0
119,67.0,0,150,3.0,64.0
120,59.0,36,60,2.0,64.0
121,55.0,0,60,2.0,64.0
122,43.0,384,90,6.0,64.0
123,55.0,0,60,5.0,64.0
124,59.0,0,60,5.0,64.0
125,67.0,0,60,5.0,64.0
126,59.0,0,60,15.0,64.0
127,55.0,0,60,15.0,64.0
128,43.0,192,390,6.0,64.0
129,60.0,0,360,5.0,64.0
130,57.0,0,360,5.0,64.0
131,60.0,0,360,15.0,64.0
132,57.0,0,360,15.0,64.0
133,57.0,0,360,2.0,64.0
134,60.0,0,360,2.0,64.0
135,67.0,24,360,5.0,64.0
136,55.0,0,360,5.0,64.0
137,43.0,0,390,6.0,64.0
138,67.0,0,360,5.0,64.0
139,59.0,0,360,2.0,64.0
140,55.0,0,360,5.0,64.0
141,67.0,120,90,1.0,64.0
142,62.0,0,360,2.0,64.0
143,55.0,0,90,3.0,64.0
144,67.0,0,90,0.0,64.0
145,62.0,0,360,5.0,64.0
146,59.0,0,360,5.0,64.0
147,59.0,24,360,15.0,64.0
148,62.0,0,360,15.0,64.0
149,69.0,0,90,1.0,64.0
150,57.0,0,90,3.0,64.0
151,69.0,88,90,0.0,64.0
152,71.0,56,60,1.0,64.0
153,59.0,0,60,3.0,64.0
154,71.0,0,60,0.0,64.0
155,72.0,80,60,1.0,64.0
156,60.0,0,60,3.0,64.0
157,72.0,0,60,0.0,64.0
158,62.0,0,60,3.0,64.0
159,74.0,400,60,0.0,64.0
160,74.0,0,60,1.0,64.0
161,76.0,0,810,1.0,64.0
162,48.0,0,450,15.0,64.0
163,64.0,0,450,15.0,64.0
164,60.0,0,450,15.0,64.0
165,60.0,0,450,5.0,64.0
166,64.0,0,390,5.0,64.0
167,48.0,0,390,6.0,64.0
168,76.0,0,810,0.0,64.0
169,64.0,0,810,3.0,64.0
170,60.0,66,810,4.0,64.0
171,64.0,0,810,4.0,64.0
172,55.0,0,810,3.0,64.0
173,55.0,66,390,5.0,64.0
174,67.0,0,660,2.0,64.0
175,64.0,126,660,2.0,64.0
176,48.0,222,450,5.0,64.0
177,64.0,0,390,13.0,64.0
178,60.0,0,390,13.0,64.0
179,52.0,0,390,14.0,64.0
180,36.0,0,390,14.0,64.0
181,48.0,72,390,14.0,64.0
182,62.0,0,90,3.0,64.0
183,53.0,0,90,3.0,64.0
184,48.0,0,90,6.0,64.0
185,74.0,216,90,1.0,64.0
186,65.0,0,90,2.0,64.0
187,74.0,0,90,0.0,64.0
188,62.0,0,90,2.0,64.0
189,60.0,0,90,5.0,64.0
190,55.0,0,90,4.0,64.0
191,62.0,0,90,4.0,64.0
192,52.0,0,480,4.0,64.0
193,57.0,0,390,14.0,64.0
194,60.0,0,390,13.0,64.0
195,60.0,192,480,2.0,64.0
196,64.0,0,480,2.0,64.0
197,60.0,192,180,5.0,64.0
198,48.0,0,180,6.0,64.0
199,60.0,0,480,4.0,64.0
200,45.0,0,390,14.0,64.0
201,52.0,96,390,14.0,64.0
202,72.0,0,480,0.0,64.0
203,52.0,0,480,3.0,64.0
204,60.0,0,480,3.0,64.0
205,72.0,0,480,1.0,64.0
206,62.0,192,480,4.0,64.0
207,62.0,0,480,3.0,64.0
208,59.0,0,480,3.0,64.0
209,55.0,0,480,4.0,64.0
210,43.0,0,390,14.0,64.0
211,59.0,96,390,13.0,64.0
212,53.0,0,390,14.0,64.0
213,55.0,0,390,14.0,64.0
214,55.0,192,180,5.0,64.0
215,62.0,0,390,13.0,64.0
216,43.0,0,180,6.0,64.0
217,74.0,0,480,0.0,64.0
218,71.0,0,480,2.0,64.0
219,62.0,0,480,2.0,64.0
220,74.0,0,480,1.0,64.0
221,76.0,0,480,0.0,64.0
222,43.0,288,180,6.0,64.0
223,64.0,0,480,2.0,64.0
224,60.0,0,480,4.0,64.0
225,55.0,0,180,5.0,64.0
226,64.0,0,480,4.0,64.0
227,72.0,0,480,2.0,64.0
228,76.0,0,480,1.0,64.0
229,60.0,0,480,3.0,64.0
230,64.0,180,480,3.0,64.0
231,55.0,108,180,5.0,64.0
232,77.0,24,360,0.0,64.0
233,55.0,0,390,13.0,64.0
234,43.0,72,300,6.0,64.0
235,64.0,0,390,13.0,64.0
236,55.0,72,390,14.0,64.0
237,43.0,0,390,14.0,64.0
238,60.0,0,390,13.0,64.0
239,77.0,0,360,1.0,64.0
240,65.0,0,360,4.0,64.0
241,62.0,0,360,4.0,64.0
242,62.0,0,360,3.0,64.0
243,65.0,0,360,3.0,64.0
244,74.0,0,360,2.0,64.0
245,65.0,0,360,2.0,64.0
246,60.0,0,90,4.0,64.0
247,64.0,216,90,3.0,64.0
248,60.0,0,90,3.0,64.0
249,64.0,0,90,4.0,64.0
250,76.0,0,90,0.0,64.0
251,64.0,0,90,2.0,64.0
252,72.0,0,90,2.0,64.0
253,76.0,0,90,1.0,64.0
254,43.0,0,90,6.0,64.0
255,55.0,0,90,5.0,64.0
256,64.0,0,480,3.0,64.0
257,60.0,0,480,3.0,64.0
258,43.0,288,180,6.0,64.0
259,64.0,0,480,2.0,64.0
260,72.0,0,480,2.0,64.0
261,76.0,0,480,0.0,64.0
262,55.0,0,180,5.0,64.0
263,76.0,192,480,1.0,64.0
264,60.0,0,480,4.0,64.0
265,64.0,0,480,4.0,64.0
266,55.0,192,180,5.0,64.0
267,71.0,0,390,2.0,64.0
268,55.0,0,390,4.0,64.0
269,62.0,0,390,4.0,64.0
270,43.0,0,180,6.0,64.0
271,59.0,0,390,3.0,64.0
272,74.0,0,390,0.0,64.0
273,62.0,0,390,3.0,64.0
274,55.0,0,390,13.0,64.0
275,62.0,0,390,2.0,64.0
276,74.0,480,390,1.0,64.0
277,43.0,0,390,14.0,64.0
278,31.0,0,390,14.0,64.0
279,62.0,0,390,13.0,64.0
280,59.0,0,390,13.0,64.0
281,62.0,0,810,2.0,64.0
282,77.0,0,810,0.0,64.0
283,55.0,0,390,5.0,64.0
284,65.0,0,810,4.0,64.0
285,62.0,0,810,4.0,64.0
286,77.0,0,810,1.0,64.0
287,74.0,66,810,1.0,64.0
288,65.0,0,810,3.0,64.0
289,62.0,0,810,3.0,64.0
290,67.0,414,390,5.0,64.0
291,43.0,0,390,6.0,64.0
292,65.0,0,810,2.0,64.0
293,43.0,72,390,14.0,64.0
294,31.0,0,390,14.0,64.0
295,62.0,0,390,13.0,64.0
296,59.0,0,390,13.0,64.0
297,55.0,0,390,13.0,64.0
298,60.0,0,90,4.0,64.0
299,72.0,0,90,1.0,64.0
300,55.0,0,90,5.0,64.0
301,76.0,0,90,1.0,64.0
302,60.0,0,90,3.0,64.0
303,76.0,216,90,0.0,64.0
304,60.0,0,90,2.0,64.0
305,64.0,0,90,2.0,64.0
306,67.0,0,90,5.0,64.0
307,64.0,0,90,3.0,64.0
308,64.0,0,90,4.0,64.0
309,43.0,0,90,6.0,64.0
310,74.0,0,480,1.0,64.0
311,43.0,0,180,6.0,64.0
312,62.0,0,480,4.0,64.0
313,55.0,288,180,5.0,64.0
314,67.0,0,180,5.0,64.0
315,74.0,0,480,0.0,64.0
316,71.0,0,480,1.0,64.0
317,55.0,0,480,4.0,64.0
318,62.0,0,480,2.0,64.0
319,59.0,0,480,3.0,64.0
320,62.0,192,480,3.0,64.0
321,59.0,0,480,2.0,64.0
322,67.0,192,180,5.0,64.0
323,64.0,0,390,13.0,64.0
324,55.0,0,180,5.0,64.0
325,60.0,0,480,2.0,64.0
326,55.0,0,390,13.0,64.0
327,64.0,0,480,2.0,64.0
328,72.0,0,480,1.0,64.0
329,48.0,0,180,6.0,64.0
330,76.0,0,480,1.0,64.0
331,60.0,0,480,4.0,64.0
332,64.0,0,480,4.0,64.0
333,60.0,0,390,13.0,64.0
334,76.0,0,480,0.0,64.0
335,36.0,96,390,14.0,64.0
336,48.0,0,390,14.0,64.0
337,60.0,192,480,3.0,64.0
338,64.0,0,15,3.0,64.0
339,31.0,0,390,14.0,64.0
340,43.0,0,390,14.0,64.0
341,60.0,96,390,13.0,64.0
342,55.0,0,390,13.0,64.0
343,64.0,0,390,13.0,64.0
344,79.0,0,480,0.0,64.0
345,64.0,0,480,2.0,64.0
346,67.0,180,480,2.0,64.0
347,76.0,0,480,1.0,64.0
348,79.0,0,480,1.0,64.0
349,67.0,0,480,4.0,64.0
350,64.0,0,480,4.0,64.0
351,43.0,192,180,6.0,64.0
352,67.0,0,180,5.0,64.0
353,55.0,0,180,5.0,64.0
354,67.0,0,480,3.0,64.0
355,62.0,0,360,4.0,64.0
356,65.0,0,360,4.0,64.0
357,62.0,0,360,2.0,64.0
358,43.0,0,390,14.0,64.0
359,65.0,0,390,13.0,64.0
360,62.0,0,390,13.0,64.0
361,65.0,0,360,2.0,64.0
362,31.0,0,390,14.0,64.0
363,55.0,72,390,13.0,64.0
364,77.0,0,360,0.0,64.0
365,62.0,24,360,3.0,64.0
366,55.0,0,180,5.0,64.0
367,77.0,0,360,1.0,64.0
368,65.0,0,360,3.0,64.0
369,74.0,0,360,1.0,64.0
370,67.0,108,180,5.0,64.0
371,43.0,72,300,6.0,64.0
372,72.0,0,90,1.0,64.0
373,76.0,0,90,1.0,64.0
374,76.0,0,90,0.0,64.0
375,60.0,0,90,2.0,64.0
376,67.0,216,90,5.0,64.0
377,55.0,0,90,5.0,64.0
378,64.0,0,90,2.0,64.0
379,60.0,0,90,3.0,64.0
380,60.0,0,90,4.0,64.0
381,64.0,0,90,4.0,64.0
382,64.0,0,90,3.0,64.0
383,43.0,0,90,6.0,64.0
384,55.0,0,390,2.0,64.0
385,60.0,0,390,3.0,64.0
386,64.0,0,390,4.0,64.0
387,48.0,192,180,6.0,64.0
388,55.0,0,180,5.0,64.0
389,67.0,0,390,15.0,64.0
390,60.0,0,390,13.0,64.0
391,48.0,0,390,15.0,64.0
392,55.0,0,390,15.0,64.0
393,67.0,0,390,2.0,64.0
394,55.0,0,390,13.0,64.0
395,76.0,0,390,0.0,64.0
396,48.0,0,390,14.0,64.0
397,36.0,276,390,14.0,64.0
398,48.0,0,390,2.0,64.0
399,76.0,0,390,1.0,64.0
400,72.0,0,390,1.0,64.0
401,64.0,0,390,3.0,64.0
402,67.0,0,180,5.0,64.0
403,48.0,0,390,5.0,64.0
404,64.0,0,390,13.0,64.0
405,60.0,0,390,4.0,64.0
406,48.0,0,300,2.0,64.0
407,55.0,0,300,2.0,64.0
408,65.0,0,300,2.0,64.0
409,67.0,0,180,5.0,64.0
410,48.0,0,300,15.0,64.0
411,48.0,0,300,5.0,64.0
412,55.0,108,180,5.0,64.0
413,65.0,0,300,5.0,64.0
414,65.0,0,300,15.0,64.0
415,55.0,168,300,15.0,64.0
416,48.0,0,90,2.0,64.0
417,64.0,0,90,2.0,64.0
418,55.0,0,90,2.0,64.0
419,64.0,0,90,15.0,64.0
420,48.0,0,90,15.0,64.0
421,67.0,0,90,5.0,64.0
422,64.0,0,90,5.0,64.0
423,55.0,0,90,15.0,64.0
424,55.0,0,90,5.0,64.0
425,48.0,0,90,5.0,64.0
426,47.0,0,450,5.0,64.0
427,62.0,0,450,5.0,64.0
428,79.0,0,960,1.0,64.0
429,74.0,0,960,2.0,64.0
430,62.0,480,960,2.0,64.0
431,67.0,0,180,5.0,64.0
432,55.0,258,180,5.0,64.0
433,59.0,0,960,3.0,64.0
434,47.0,0,960,3.0,64.0
435,47.0,0,450,15.0,64.0
436,55.0,0,450,15.0,64.0
437,62.0,222,450,15.0,64.0
438,79.0,0,960,0.0,64.0
439,59.0,0,390,14.0,64.0
440,67.0,96,390,13.0,64.0
441,62.0,0,390,13.0,64.0
442,74.0,0,390,13.0,64.0
443,55.0,0,180,5.0,64.0
444,67.0,192,180,5.0,64.0
445,47.0,0,390,14.0,64.0
446,81.0,480,960,0.0,64.0
447,45.0,0,960,3.0,64.0
448,57.0,0,960,3.0,64.0
449,81.0,0,960,1.0,64.0
450,64.0,192,480,2.0,64.0
451,72.0,0,960,2.0,64.0
452,66.0,0,390,13.0,64.0
453,72.0,192,180,5.0,64.0
454,60.0,0,180,5.0,64.0
455,62.0,96,390,13.0,64.0
456,72.0,0,390,13.0,64.0
457,57.0,0,390,14.0,64.0
458,45.0,0,390,14.0,64.0
459,66.0,0,480,2.0,64.0
460,83.0,0,1440,1.0,64.0
461,43.0,0,480,3.0,64.0
462,67.0,0,720,2.0,64.0
463,83.0,0,1440,0.0,64.0
464,71.0,0,1440,2.0,64.0
465,71.0,0,180,13.0,64.0
466,67.0,0,180,13.0,64.0
467,59.0,0,240,3.0,64.0
468,43.0,0,180,14.0,64.0
469,55.0,48,180,14.0,64.0
470,55.0,192,15,3.0,64.0
471,62.0,0,180,13.0,64.0
472,55.0,0,180,5.0,64.0
473,67.0,0,180,5.0,64.0
474,69.0,0,180,13.0,64.0
475,57.0,0,240,3.0,64.0
476,54.0,0,240,3.0,64.0
477,54.0,48,180,14.0,64.0
478,42.0,0,180,14.0,64.0
479,69.0,384,240,2.0,64.0
480,63.0,0,180,13.0,64.0
481,71.0,0,180,13.0,64.0
482,55.0,0,480,3.0,64.0
483,67.0,0,390,13.0,64.0
484,52.0,0,480,3.0,64.0
485,40.0,96,390,14.0,64.0
486,67.0,192,480,2.0,64.0
487,52.0,0,390,14.0,64.0
488,71.0,0,390,13.0,64.0
489,64.0,0,390,13.0,64.0
490,60.0,0,180,5.0,64.0
491,84.0,0,960,1.0,64.0
492,45.0,0,960,3.0,64.0
493,72.0,576,390,13.0,64.0
494,64.0,0,390,13.0,64.0
495,69.0,0,390,13.0,64.0
496,57.0,240,960,3.0,64.0
497,72.0,192,180,5.0,64.0
498,64.0,0,1440,2.0,64.0
499,33.0,0,390,14.0,64.0
500,45.0,0,390,14.0,64.0
501,72.0,0,960,2.0,64.0
502,84.0,0,960,0.0,64.0
503,71.0,0,390,13.0,64.0
504,67.0,0,240,2.0,64.0
505,59.0,0,480,3.0,64.0
506,47.0,864,480,3.0,64.0
507,79.0,144,240,0.0,64.0
508,47.0,0,390,14.0,64.0
509,35.0,0,390,14.0,64.0
510,79.0,0,240,1.0,64.0
511,64.0,96,390,13.0,64.0
512,67.0,0,390,13.0,64.0
513,81.0,0,240,1.0,64.0
514,69.0,0,240,2.0,64.0
515,81.0,0,240,0.0,64.0
516,71.0,0,960,2.0,64.0
517,83.0,384,960,0.0,64.0
518,83.0,0,960,1.0,64.0
519,47.0,0,960,3.0,64.0
520,59.0,0,960,3.0,64.0
521,35.0,0,390,14.0,64.0
522,71.0,0,390,13.0,64.0
523,59.0,0,390,13.0,64.0
524,47.0,96,390,14.0,64.0
525,76.0,0,390,1.0,64.0
526,40.0,0,390,14.0,64.0
527,52.0,0,390,14.0,64.0
528,64.0,0,390,2.0,64.0
529,52.0,0,390,3.0,64.0
530,64.0,0,390,13.0,64.0
531,76.0,384,390,0.0,64.0
532,67.0,0,300,5.0,64.0
533,55.0,168,300,5.0,64.0
534,52.0,0,300,5.0,64.0
535,52.0,0,300,15.0,64.0
536,52.0,0,300,2.0,64.0
537,55.0,0,300,2.0,64.0
538,64.0,0,300,5.0,64.0
539,55.0,0,300,15.0,64.0
540,52.0,0,90,2.0,64.0
541,55.0,0,90,2.0,64.0
542,52.0,0,90,5.0,64.0
543,55.0,0,90,5.0,64.0
544,52.0,0,90,15.0,64.0
545,55.0,0,90,15.0,64.0
546,67.0,0,90,5.0,64.0
547,64.0,216,90,5.0,64.0
548,67.0,0,180,5.0,64.0
549,55.0,0,180,2.0,64.0
550,52.0,0,180,2.0,64.0
551,52.0,0,180,5.0,64.0
552,64.0,128,180,5.0,64.0
553,55.0,0,180,15.0,64.0
554,52.0,0,180,15.0,64.0
555,55.0,0,180,5.0,64.0
556,67.0,80,90,1.0,64.0
557,69.0,80,90,1.0,64.0
558,71.0,96,90,1.0,64.0
559,55.0,0,180,2.0,64.0
560,64.0,0,180,5.0,64.0
561,67.0,0,180,5.0,64.0
562,52.0,24,180,2.0,64.0
563,72.0,96,90,1.0,64.0
564,55.0,0,180,5.0,64.0
565,52.0,0,180,15.0,64.0
566,52.0,0,180,5.0,64.0
567,55.0,0,180,15.0,64.0
568,74.0,120,90,1.0,64.0
569,76.0,120,90,1.0,64.0
570,77.0,216,90,1.0,64.0
571,52.0,0,180,15.0,64.0
572,67.0,0,180,5.0,64.0
573,79.0,0,960,0.0,64.0
574,64.0,0,960,2.0,64.0
575,67.0,0,960,2.0,64.0
576,64.0,0,180,5.0,64.0
577,55.0,0,180,15.0,64.0
578,52.0,0,960,3.0,64.0
579,55.0,0,960,3.0,64.0
580,55.0,576,180,5.0,64.0
581,52.0,0,180,5.0,64.0
582,79.0,192,960,1.0,64.0
583,64.0,0,390,13.0,64.0
584,64.0,72,390,14.0,64.0
585,60.0,96,300,5.0,64.0
586,60.0,0,390,13.0,64.0
587,52.0,0,390,14.0,64.0
588,48.0,0,300,6.0,64.0
589,67.0,0,390,13.0,64.0
590,60.0,24,90,5.0,64.0
591,48.0,0,90,6.0,64.0
592,60.0,288,180,5.0,64.0
593,69.0,192,480,2.0,64.0
594,65.0,0,480,2.0,64.0
595,57.0,0,480,3.0,64.0
596,53.0,0,480,3.0,64.0
597,81.0,0,480,1.0,64.0
598,48.0,0,180,6.0,64.0
599,81.0,0,480,0.0,64.0
600,79.0,0,480,0.0,64.0
601,48.0,192,180,6.0,64.0
602,60.0,0,180,5.0,64.0
603,64.0,96,390,13.0,64.0
604,67.0,0,390,13.0,64.0
605,60.0,0,390,13.0,64.0
606,48.0,0,390,14.0,64.0
607,79.0,0,480,1.0,64.0
608,36.0,0,390,14.0,64.0
609,55.0,0,480,3.0,64.0
610,67.0,192,480,2.0,64.0
611,64.0,0,480,2.0,64.0
612,52.0,0,480,3.0,64.0
613,77.0,0,390,1.0,64.0
614,48.0,192,180,6.0,64.0
615,53.0,0,390,3.0,64.0
616,50.0,0,390,3.0,64.0
617,65.0,0,390,2.0,64.0
618,60.0,288,390,2.0,64.0
619,60.0,0,180,5.0,64.0
620,77.0,0,390,0.0,64.0
621,52.0,0,390,3.0,64.0
622,48.0,192,180,6.0,64.0
623,76.0,0,390,1.0,64.0
624,60.0,0,180,5.0,64.0
625,60.0,0,390,14.0,64.0
626,76.0,0,390,0.0,64.0
627,64.0,0,390,13.0,64.0
628,60.0,0,390,13.0,64.0
629,64.0,0,390,2.0,64.0
630,60.0,0,390,2.0,64.0
631,48.0,480,390,14.0,64.0
632,48.0,0,390,3.0,64.0
633,57.0,384,480,2.0,64.0
634,53.0,0,870,3.0,64.0
635,77.0,0,870,0.0,64.0
636,53.0,96,390,13.0,64.0
637,57.0,0,390,13.0,64.0
638,65.0,0,390,13.0,64.0
639,65.0,0,870,2.0,64.0
640,50.0,0,390,14.0,64.0
641,62.0,0,390,14.0,64.0
642,77.0,288,870,1.0,64.0
643,62.0,0,390,2.0,64.0
644,74.0,0,390,1.0,64.0
645,62.0,0,390,13.0,64.0
646,57.0,0,390,13.0,64.0
647,48.0,0,390,14.0,64.0
648,65.0,0,390,13.0,64.0
649,60.0,0,390,14.0,64.0
650,59.0,0,390,14.0,64.0
651,74.0,0,720,1.0,64.0
652,55.0,0,390,13.0,64.0
653,62.0,0,780,4.0,64.0
654,55.0,0,780,4.0,64.0
655,62.0,0,720,2.0,64.0
656,65.0,0,720,2.0,64.0
657,47.0,0,390,14.0,64.0
658,67.0,0,180,5.0,64.0
659,55.0,0,180,5.0,64.0
660,77.0,0,720,1.0,64.0
661,62.0,0,390,13.0,64.0
662,77.0,0,720,0.0,64.0
663,53.0,0,720,3.0,64.0
664,50.0,48,720,3.0,64.0
665,43.0,192,180,6.0,64.0
666,65.0,336,390,13.0,64.0
667,67.0,72,300,5.0,64.0
668,43.0,0,390,14.0,64.0
669,55.0,0,390,14.0,64.0
670,62.0,72,390,13.0,64.0
671,65.0,0,390,13.0,64.0
672,43.0,0,300,6.0,64.0
673,55.0,0,300,5.0,64.0
674,55.0,0,390,13.0,64.0
675,79.0,24,120,1.0,64.0
676,64.0,0,120,2.0,64.0
677,67.0,0,120,2.0,64.0
678,76.0,0,120,1.0,64.0
679,52.0,0,120,3.0,64.0
680,79.0,0,120,0.0,64.0
681,55.0,0,120,3.0,64.0
682,81.0,0,120,0.0,64.0
683,69.0,0,120,2.0,64.0
684,65.0,0,120,2.0,64.0
685,43.0,24,90,6.0,64.0
686,57.0,0,120,3.0,64.0
687,67.0,0,90,5.0,64.0
688,77.0,192,120,1.0,64.0
689,81.0,0,120,1.0,64.0
690,55.0,0,90,5.0,64.0
691,53.0,0,120,3.0,64.0
692,67.0,0,390,2.0,64.0
693,55.0,0,180,5.0,64.0
694,67.0,0,180,5.0,64.0
695,64.0,0,390,2.0,64.0
696,79.0,0,390,0.0,64.0
697,52.0,0,390,3.0,64.0
698,55.0,0,390,4.0,64.0
699,64.0,288,390,4.0,64.0
700,55.0,0,390,3.0,64.0
701,76.0,0,390,1.0,64.0
702,79.0,0,390,1.0,64.0
703,43.0,192,180,6.0,64.0
704,43.0,0,390,14.0,64.0
705,55.0,0,390,14.0,64.0
706,77.0,0,390,1.0,64.0
707,43.0,192,180,6.0,64.0
708,55.0,0,180,5.0,64.0
709,67.0,0,180,5.0,64.0
710,50.0,0,390,3.0,64.0
711,53.0,0,390,3.0,64.0
712,65.0,0,390,2.0,64.0
713,77.0,0,390,0.0,64.0
714,62.0,288,390,13.0,64.0
715,65.0,0,390,13.0,64.0
716,55.0,0,390,4.0,64.0
717,55.0,0,390,13.0,64.0
718,62.0,0,390,2.0,64.0
719,62.0,0,390,4.0,64.0
720,74.0,0,390,1.0,64.0
721,52.0,0,390,3.0,64.0
722,48.0,0,390,3.0,64.0
723,60.0,0,180,5.0,64.0
724,60.0,0,390,4.0,64.0
725,64.0,0,390,4.0,64.0
726,64.0,0,390,2.0,64.0
727,76.0,288,390,0.0,64.0
728,60.0,0,390,2.0,64.0
729,76.0,0,390,1.0,64.0
730,72.0,0,390,1.0,64.0
731,67.0,0,180,5.0,64.0
732,48.0,192,180,6.0,64.0
733,55.0,0,180,5.0,64.0
734,67.0,0,180,5.0,64.0
735,62.0,0,390,4.0,64.0
736,55.0,0,390,4.0,64.0
737,55.0,0,390,14.0,64.0
738,43.0,0,390,14.0,64.0
739,71.0,288,390,1.0,64.0
740,74.0,0,390,1.0,64.0
741,47.0,0,390,3.0,64.0
742,50.0,0,390,3.0,64.0
743,55.0,0,390,13.0,64.0
744,74.0,0,390,0.0,64.0
745,59.0,0,390,13.0,64.0
746,65.0,0,390,13.0,64.0
747,62.0,0,390,2.0,64.0
748,59.0,0,390,2.0,64.0
749,62.0,0,390,13.0,64.0
750,43.0,192,180,6.0,64.0
751,72.0,0,480,1.0,64.0
752,64.0,14,240,4.0,64.0
753,48.0,82,390,14.0,64.0
754,76.0,0,480,0.0,64.0
755,60.0,0,240,4.0,64.0
756,67.0,0,180,5.0,64.0
757,60.0,34,180,5.0,64.0
758,76.0,192,480,1.0,64.0
759,48.0,0,180,6.0,64.0
760,36.0,0,390,14.0,64.0
761,64.0,144,240,2.0,64.0
762,60.0,0,240,2.0,64.0
763,60.0,0,390,13.0,64.0
764,55.0,0,390,13.0,64.0
765,64.0,0,390,13.0,64.0
766,52.0,0,240,3.0,64.0
767,48.0,0,240,3.0,64.0
768,46.0,0,240,3.0,64.0
769,58.0,0,240,3.0,64.0
770,60.0,14,240,4.0,64.0
771,48.0,0,240,4.0,64.0
772,72.0,0,480,2.0,64.0
773,60.0,0,480,2.0,64.0
774,60.0,34,180,5.0,64.0
775,48.0,0,180,6.0,64.0
776,45.0,0,240,3.0,64.0
777,48.0,0,240,4.0,64.0
778,57.0,0,240,3.0,64.0
779,60.0,14,240,4.0,64.0
780,77.0,0,240,1.0,64.0
781,74.0,0,240,1.0,64.0
782,77.0,192,240,0.0,64.0
783,79.0,0,240,1.0,64.0
784,58.0,0,240,2.0,64.0
785,70.0,0,240,2.0,64.0
786,79.0,0,240,0.0,64.0
787,48.0,14,240,4.0,64.0
788,60.0,0,240,4.0,64.0
789,60.0,0,180,5.0,64.0
790,43.0,0,240,3.0,64.0
791,55.0,384,240,3.0,64.0
792,48.0,34,180,6.0,64.0
793,76.0,0,240,1.0,64.0
794,57.0,96,390,2.0,64.0
795,72.0,0,390,1.0,64.0
796,81.0,96,870,1.0,64.0
797,69.0,0,870,2.0,64.0
798,60.0,0,390,5.0,64.0
799,81.0,96,780,0.0,64.0
800,48.0,0,390,4.0,64.0
801,60.0,0,390,4.0,64.0
802,41.0,288,480,3.0,64.0
803,53.0,0,480,3.0,64.0
804,60.0,0,390,5.0,64.0
805,77.0,0,870,1.0,64.0
806,65.0,0,390,4.0,64.0
807,65.0,96,870,2.0,64.0
808,60.0,0,390,8.0,64.0
809,53.0,0,480,3.0,64.0
810,65.0,384,480,3.0,64.0
811,69.0,0,390,7.0,64.0
812,41.0,0,390,12.0,64.0
813,53.0,0,390,11.0,64.0
814,53.0,0,390,10.0,64.0
815,50.0,288,480,3.0,64.0
816,62.0,0,480,3.0,64.0
817,71.0,30,930,2.0,64.0
818,83.0,0,780,0.0,64.0
819,83.0,0,930,1.0,64.0
820,55.0,0,780,4.0,64.0
821,62.0,96,780,4.0,64.0
822,50.0,0,390,10.0,64.0
823,71.0,0,390,7.0,64.0
824,59.0,0,390,8.0,64.0
825,55.0,0,390,11.0,64.0
826,67.0,384,480,3.0,64.0
827,53.0,0,390,10.0,64.0
828,62.0,0,450,2.0,64.0
829,43.0,66,390,12.0,64.0
830,55.0,0,390,5.0,64.0
831,67.0,0,390,5.0,64.0
832,74.0,0,450,1.0,64.0
833,55.0,0,480,3.0,64.0
834,72.0,0,1830,2.0,64.0
835,84.0,0,1380,0.0,64.0
836,66.0,0,1830,2.0,64.0
837,57.0,0,1830,3.0,64.0
838,48.0,0,390,6.0,64.0
839,45.0,0,1830,3.0,64.0
840,72.0,322,390,5.0,64.0
841,48.0,0,1380,4.0,64.0
842,60.0,0,390,5.0,64.0
843,60.0,0,1380,4.0,64.0
844,84.0,0,1380,1.0,64.0
845,72.0,312,1380,1.0,64.0
846,72.0,0,390,7.0,64.0
847,45.0,0,390,11.0,64.0
848,62.0,0,390,7.0,64.0
849,48.0,72,390,10.0,64.0
850,54.0,0,390,10.0,64.0
851,62.0,0,390,8.0,64.0
852,60.0,0,390,8.0,64.0
853,60.0,96,300,5.0,64.0
854,72.0,0,300,5.0,64.0
855,33.0,0,390,12.0,64.0
856,48.0,62,240,6.0,64.0
857,60.0,0,90,5.0,64.0
858,48.0,408,90,6.0,64.0
859,72.0,0,90,5.0,64.0
860,60.0,0,390,5.0,64.0
861,72.0,0,390,5.0,64.0
862,48.0,24,390,6.0,64.0
863,54.0,0,390,10.0,64.0
864,48.0,0,390,10.0,64.0
865,72.0,144,240,1.0,64.0
866,33.0,0,390,12.0,64.0
867,72.0,48,390,7.0,64.0
868,48.0,0,390,6.0,64.0
869,60.0,0,390,8.0,64.0
870,62.0,0,390,8.0,64.0
871,72.0,0,240,0.0,64.0
872,62.0,0,390,7.0,64.0
873,48.0,0,390,4.0,64.0
874,45.0,0,390,11.0,64.0
875,60.0,0,390,5.0,64.0
876,72.0,0,390,5.0,64.0
877,60.0,0,390,4.0,64.0
878,74.0,0,180,0.0,64.0
879,74.0,432,180,1.0,64.0
880,72.0,0,900,2.0,64.0
881,67.0,24,900,2.0,64.0
882,55.0,0,900,3.0,64.0
883,60.0,0,900,4.0,64.0
884,64.0,0,900,4.0,64.0
885,43.0,0,900,3.0,64.0
886,55.0,0,390,5.0,64.0
887,67.0,0,390,5.0,64.0
888,76.0,0,900,1.0,64.0
889,76.0,0,900,0.0,64.0
890,43.0,384,390,6.0,64.0
891,31.0,0,390,12.0,64.0
892,43.0,48,390,11.0,64.0
893,64.0,0,390,7.0,64.0
894,55.0,0,300,5.0,64.0
895,48.0,0,390,10.0,64.0
896,60.0,0,390,8.0,64.0
897,67.0,0,300,5.0,64.0
898,43.0,96,300,6.0,64.0
899,55.0,0,390,10.0,64.0
900,55.0,0,90,5.0,64.0
901,67.0,408,90,5.0,64.0
902,43.0,0,90,6.0,64.0
903,65.0,0,720,2.0,64.0
904,43.0,0,780,3.0,64.0
905,74.0,0,720,0.0,64.0
906,71.0,48,720,2.0,64.0
907,67.0,0,390,5.0,64.0
908,43.0,0,390,6.0,64.0
909,74.0,0,720,1.0,64.0
910,55.0,0,720,4.0,64.0
911,55.0,336,390,5.0,64.0
912,62.0,0,720,4.0,64.0
913,55.0,96,780,3.0,64.0
914,43.0,0,390,6.0,64.0
915,31.0,48,390,12.0,64.0
916,67.0,0,390,5.0,64.0
917,55.0,0,390,5.0,64.0
918,62.0,0,390,7.0,64.0
919,59.0,0,390,8.0,64.0
920,43.0,0,390,11.0,64.0
921,53.0,0,390,10.0,64.0
922,72.0,0,180,2.0,64.0
923,64.0,432,180,2.0,64.0
924,72.0,0,180,0.0,64.0
925,72.0,0,180,1.0,64.0
926,52.0,0,180,4.0,64.0
927,60.0,0,180,4.0,64.0
928,52.0,0,390,4.0,64.0
929,72.0,0,390,1.0,64.0
930,60.0,0,390,4.0,64.0
931,72.0,0,390,2.0,64.0
932,72.0,0,390,0.0,64.0
933,64.0,0,390,2.0,64.0
934,52.0,0,390,3.0,64.0
935,48.0,0,390,3.0,64.0
936,48.0,480,390,6.0,64.0
937,60.0,0,390,5.0,64.0
938,60.0,0,390,2.0,64.0
939,64.0,0,390,5.0,64.0
940,60.0,0,390,5.0,64.0
941,60.0,0,390,8.0,64.0
942,43.0,672,390,5.0,64.0
943,43.0,0,390,2.0,64.0
944,64.0,0,390,2.0,64.0
945,52.0,0,390,10.0,64.0
946,36.0,0,390,12.0,64.0
947,48.0,0,390,11.0,64.0
948,60.0,0,390,7.0,64.0
949,43.0,0,570,2.0,64.0
950,59.0,0,570,2.0,64.0
951,59.0,0,570,5.0,64.0
952,43.0,120,570,5.0,64.0
953,62.0,0,570,5.0,64.0
954,62.0,0,570,2.0,64.0
955,79.0,0,90,0.0,64.0
956,67.0,0,90,1.0,64.0
957,67.0,0,90,7.0,64.0
958,69.0,0,90,7.0,64.0
959,69.0,88,90,1.0,64.0
960,81.0,0,90,0.0,64.0
961,60.0,0,180,2.0,64.0
962,71.0,80,60,7.0,64.0
963,43.0,32,180,5.0,64.0
964,60.0,0,180,5.0,64.0
965,83.0,0,60,0.0,64.0
966,71.0,0,60,1.0,64.0
967,43.0,0,180,2.0,64.0
968,72.0,0,60,1.0,64.0
969,72.0,48,60,7.0,64.0
970,84.0,0,60,0.0,64.0
971,74.0,130,60,1.0,64.0
972,86.0,0,60,0.0,64.0
973,74.0,0,60,7.0,64.0
974,55.0,0,120,8.0,64.0
975,60.0,0,810,10.0,64.0
976,67.0,102,690,8.0,64.0
977,64.0,126,120,8.0,64.0
978,72.0,0,240,5.0,64.0
979,60.0,0,810,4.0,64.0
980,76.0,0,810,7.0,64.0
981,48.0,0,810,11.0,64.0
982,48.0,0,810,3.0,64.0
983,55.0,0,810,3.0,64.0
984,60.0,0,810,2.0,64.0
985,36.0,0,810,12.0,64.0
986,64.0,102,810,2.0,64.0
987,84.0,0,810,0.0,64.0
988,88.0,0,810,0.0,64.0
989,60.0,0,240,5.0,64.0
990,64.0,0,810,4.0,64.0
991,48.0,144,240,6.0,64.0
992,48.0,0,390,5.0,64.0
993,76.0,0,810,1.0,64.0
994,72.0,0,810,1.0,64.0
995,59.0,0,90,2.0,64.0
996,62.0,0,90,2.0,64.0
997,74.0,0,90,1.0,64.0
998,55.0,36,60,5.0,64.0
999,67.0,0,60,5.0,64.0
1000,43.0,0,90,3.0,64.0
1001,65.0,0,90,8.0,64.0
1002,59.0,0,90,10.0,64.0
1003,55.0,0,90,11.0,64.0
1004,74.0,0,90,7.0,64.0
1005,71.0,0,90,1.0,64.0
1006,43.0,0,90,12.0,64.0
1007,43.0,0,60,6.0,64.0
1008,55.0,144,90,4.0,64.0
1009,62.0,0,90,4.0,64.0
1010,83.0,0,90,0.0,64.0
1011,55.0,0,90,3.0,64.0
1012,86.0,0,90,0.0,64.0
1013,52.0,0,480,4.0,64.0
1014,60.0,0,480,4.0,64.0
1015,45.0,0,480,3.0,64.0
1016,57.0,0,480,3.0,64.0
1017,81.0,0,480,0.0,64.0
1018,84.0,0,480,0.0,64.0
1019,57.0,0,480,2.0,64.0
1020,60.0,0,480,2.0,64.0
1021,64.0,0,480,8.0,64.0
1022,57.0,0,480,11.0,64.0
1023,72.0,120,480,7.0,64.0
1024,60.0,0,120,5.0,64.0
1025,48.0,360,120,6.0,64.0
1026,72.0,0,120,5.0,64.0
1027,60.0,0,480,10.0,64.0
1028,69.0,0,480,1.0,64.0
1029,45.0,0,480,12.0,64.0
1030,72.0,0,480,1.0,64.0
1031,43.0,0,120,6.0,64.0
1032,71.0,0,480,8.0,64.0
1033,55.0,0,120,5.0,64.0
1034,67.0,360,120,5.0,64.0
1035,74.0,0,480,1.0,64.0
1036,71.0,0,480,1.0,64.0
1037,43.0,0,480,3.0,64.0
1038,86.0,0,480,0.0,64.0
1039,55.0,0,480,3.0,64.0
1040,83.0,120,480,0.0,64.0
1041,55.0,0,480,4.0,64.0
1042,62.0,0,480,4.0,64.0
1043,62.0,0,480,2.0,64.0
1044,59.0,0,480,2.0,64.0
1045,59.0,0,480,10.0,64.0
1046,74.0,0,480,7.0,64.0
1047,88.0,0,480,0.0,64.0
1048,43.0,120,120,6.0,64.0
1049,60.0,240,240,3.0,64.0
1050,55.0,0,15,11.0,64.0
1051,67.0,0,120,5.0,64.0
1052,84.0,0,480,0.0,64.0
1053,72.0,0,480,1.0,64.0
1054,64.0,0,480,2.0,64.0
1055,43.0,0,15,12.0,64.0
1056,55.0,0,120,5.0,64.0
1057,60.0,0,480,2.0,64.0
1058,76.0,120,480,1.0,64.0
1059,60.0,0,480,4.0,64.0
1060,76.0,0,480,7.0,64.0
1061,72.0,0,480,8.0,64.0
1062,64.0,0,480,4.0,64.0
1063,55.0,0,240,3.0,64.0
1064,55.0,0,15,10.0,64.0
1065,62.0,0,360,4.0,64.0
1066,72.0,0,120,5.0,64.0
1067,36.0,0,450,12.0,64.0
1068,48.0,6,450,11.0,64.0
1069,74.0,0,360,8.0,64.0
1070,65.0,0,360,2.0,64.0
1071,62.0,0,360,2.0,64.0
1072,60.0,0,120,5.0,64.0
1073,59.0,120,240,3.0,64.0
1074,65.0,0,360,4.0,64.0
1075,77.0,0,360,7.0,64.0
1076,89.0,0,360,0.0,64.0
1077,86.0,0,360,0.0,64.0
1078,48.0,120,120,6.0,64.0
1079,77.0,90,360,1.0,64.0
1080,74.0,0,360,1.0,64.0
1081,60.0,120,240,3.0,64.0
1082,60.0,0,90,2.0,64.0
1083,88.0,0,90,0.0,64.0
1084,55.0,0,15,10.0,64.0
1085,64.0,0,90,2.0,64.0
1086,76.0,0,90,7.0,64.0
1087,84.0,24,90,0.0,64.0
1088,72.0,0,90,8.0,64.0
1089,76.0,0,90,1.0,64.0
1090,64.0,0,90,4.0,64.0
1091,60.0,0,90,4.0,64.0
1092,72.0,0,90,1.0,64.0
1093,76.0,0,480,7.0,64.0
1094,60.0,120,480,4.0,64.0
1095,64.0,0,480,4.0,64.0
1096,60.0,0,480,2.0,64.0
1097,64.0,0,480,2.0,64.0
1098,43.0,0,480,11.0,64.0
1099,31.0,0,480,12.0,64.0
1100,43.0,120,120,6.0,64.0
1101,72.0,0,480,8.0,64.0
1102,88.0,0,480,0.0,64.0
1103,64.0,240,240,3.0,64.0
1104,84.0,0,480,0.0,64.0
1105,67.0,0,120,5.0,64.0
1106,55.0,0,120,5.0,64.0
1107,72.0,0,480,1.0,64.0
1108,76.0,0,480,1.0,64.0
1109,60.0,0,240,3.0,64.0
1110,86.0,0,390,0.0,64.0
1111,83.0,0,390,0.0,64.0
1112,55.0,0,120,5.0,64.0
1113,67.0,0,120,5.0,64.0
1114,55.0,0,390,4.0,64.0
1115,55.0,0,390,11.0,64.0
1116,74.0,0,390,1.0,64.0
1117,43.0,0,390,12.0,64.0
1118,62.0,0,390,4.0,64.0
1119,43.0,120,120,6.0,64.0
1120,71.0,0,390,8.0,64.0
1121,71.0,0,390,1.0,64.0
1122,55.0,0,15,10.0,64.0
1123,59.0,0,390,2.0,64.0
1124,62.0,0,390,2.0,64.0
1125,74.0,96,390,7.0,64.0
1126,67.0,144,240,3.0,64.0
1127,55.0,120,240,3.0,64.0
1128,53.0,0,240,3.0,64.0
1129,48.0,120,120,6.0,64.0
1130,65.0,0,810,2.0,64.0
1131,57.0,0,810,2.0,64.0
1132,53.0,240,240,10.0,64.0
1133,77.0,0,810,7.0,64.0
1134,72.0,0,120,5.0,64.0
1135,41.0,0,900,12.0,64.0
1136,60.0,0,120,5.0,64.0
1137,89.0,0,810,0.0,64.0
1138,69.0,0,810,1.0,64.0
1139,77.0,0,810,1.0,64.0
1140,81.0,0,810,0.0,64.0
1141,53.0,36,900,11.0,64.0
1142,60.0,102,810,4.0,64.0
1143,65.0,0,810,4.0,64.0
1144,69.0,0,810,8.0,64.0
1145,65.0,0,240,3.0,64.0
1146,65.0,240,240,10.0,64.0
1147,60.0,78,240,3.0,64.0
1148,60.0,0,240,10.0,64.0
1149,57.0,120,240,10.0,64.0
1150,57.0,0,240,3.0,64.0
1151,64.0,0,90,2.0,64.0
1152,88.0,24,90,0.0,64.0
1153,84.0,0,90,0.0,64.0
1154,76.0,0,90,7.0,64.0
1155,76.0,0,90,1.0,64.0
1156,60.0,0,90,4.0,64.0
1157,60.0,0,90,2.0,64.0
1158,72.0,0,90,1.0,64.0
1159,64.0,0,90,4.0,64.0
1160,72.0,0,90,8.0,64.0
1161,55.0,0,480,4.0,64.0
1162,74.0,0,480,7.0,64.0
1163,86.0,0,480,0.0,64.0
1164,83.0,0,480,0.0,64.0
1165,71.0,120,480,8.0,64.0
1166,62.0,0,480,4.0,64.0
1167,43.0,0,480,12.0,64.0
1168,62.0,0,480,2.0,64.0
1169,43.0,0,120,6.0,64.0
1170,55.0,0,480,11.0,64.0
1171,59.0,240,240,10.0,64.0
1172,71.0,0,480,1.0,64.0
1173,74.0,0,480,1.0,64.0
1174,59.0,0,480,2.0,64.0
1175,55.0,120,120,5.0,64.0
1176,67.0,0,120,5.0,64.0
1177,55.0,0,240,10.0,64.0
1178,59.0,0,15,3.0,64.0
1179,62.0,0,240,3.0,64.0
1180,76.0,0,480,1.0,64.0
1181,72.0,0,480,1.0,64.0
1182,72.0,0,480,8.0,64.0
1183,60.0,0,120,5.0,64.0
1184,72.0,0,120,5.0,64.0
1185,48.0,120,120,6.0,64.0
1186,88.0,0,480,0.0,64.0
1187,84.0,0,480,0.0,64.0
1188,55.0,0,240,3.0,64.0
1189,55.0,0,240,10.0,64.0
1190,60.0,0,480,2.0,64.0
1191,36.0,0,480,12.0,64.0
1192,48.0,0,480,11.0,64.0
1193,60.0,0,480,4.0,64.0
1194,76.0,0,480,7.0,64.0
1195,60.0,240,15,3.0,64.0
1196,60.0,0,240,10.0,64.0
1197,31.0,180,480,12.0,64.0
1198,64.0,0,15,2.0,64.0
1199,55.0,0,240,10.0,64.0
1200,67.0,0,480,2.0,64.0
1201,79.0,0,480,1.0,64.0
1202,67.0,0,480,4.0,64.0
1203,91.0,0,480,0.0,64.0
1204,67.0,0,240,5.0,64.0
1205,76.0,0,480,8.0,64.0
1206,79.0,0,480,7.0,64.0
1207,64.0,0,15,3.0,64.0
1208,64.0,0,15,4.0,64.0
1209,67.0,48,180,3.0,64.0
1210,43.0,48,390,6.0,64.0
1211,55.0,144,240,5.0,64.0
1212,43.0,0,480,11.0,64.0
1213,76.0,0,480,1.0,64.0
1214,64.0,48,180,3.0,64.0
1215,60.0,0,240,10.0,64.0
1216,60.0,0,180,3.0,64.0
1217,65.0,0,360,4.0,64.0
1218,89.0,0,360,0.0,64.0
1219,74.0,0,360,8.0,64.0
1220,55.0,48,240,10.0,64.0
1221,43.0,72,300,6.0,64.0
1222,62.0,0,360,4.0,64.0
1223,65.0,0,300,3.0,64.0
1224,62.0,0,300,3.0,64.0
1225,77.0,0,360,7.0,64.0
1226,77.0,0,360,1.0,64.0
1227,62.0,0,360,2.0,64.0
1228,55.0,0,450,11.0,64.0
1229,74.0,60,360,1.0,64.0
1230,67.0,0,180,5.0,64.0
1231,55.0,60,180,5.0,64.0
1232,65.0,0,360,2.0,64.0
1233,43.0,6,450,12.0,64.0
1234,59.0,240,240,10.0,64.0
1235,60.0,0,90,2.0,64.0
1236,64.0,0,90,3.0,64.0
1237,60.0,0,90,3.0,64.0
1238,64.0,0,90,2.0,64.0
1239,72.0,0,90,8.0,64.0
1240,60.0,0,90,4.0,64.0
1241,88.0,0,90,0.0,64.0
1242,55.0,0,60,5.0,64.0
1243,43.0,0,90,6.0,64.0
1244,72.0,24,90,1.0,64.0
1245,76.0,0,90,1.0,64.0
1246,64.0,0,90,4.0,64.0
1247,67.0,30,60,5.0,64.0
1248,76.0,0,90,7.0,64.0
1249,60.0,0,390,3.0,64.0
1250,88.0,0,390,0.0,64.0
1251,60.0,0,720,10.0,64.0
1252,48.0,0,390,5.0,64.0
1253,64.0,0,390,3.0,64.0
1254,48.0,0,720,12.0,64.0
1255,60.0,0,390,4.0,64.0
1256,72.0,0,390,1.0,64.0
1257,67.0,0,390,15.0,64.0
1258,60.0,0,390,2.0,64.0
1259,48.0,0,390,15.0,64.0
1260,60.0,0,720,11.0,64.0
1261,64.0,0,390,4.0,64.0
1262,55.0,0,390,15.0,64.0
1263,72.0,48,720,8.0,64.0
1264,55.0,144,240,5.0,64.0
1265,67.0,0,240,5.0,64.0
1266,76.0,0,390,1.0,64.0
1267,64.0,276,390,2.0,64.0
1268,48.0,0,390,6.0,64.0
1269,76.0,0,720,7.0,64.0
1270,67.0,60,180,5.0,64.0
1271,65.0,0,300,15.0,64.0
1272,48.0,0,300,15.0,64.0
1273,55.0,0,300,15.0,64.0
1274,48.0,0,300,6.0,64.0
1275,65.0,132,300,5.0,64.0
1276,48.0,0,300,5.0,64.0
1277,55.0,0,180,5.0,64.0
1278,67.0,0,60,5.0,64.0
1279,48.0,0,90,6.0,64.0
1280,64.0,0,90,5.0,64.0
1281,55.0,36,60,5.0,64.0
1282,48.0,264,90,5.0,64.0
1283,48.0,0,90,15.0,64.0
1284,64.0,0,90,15.0,64.0
1285,55.0,0,90,15.0,64.0
1286,55.0,0,450,15.0,64.0
1287,62.0,0,450,15.0,64.0
1288,79.0,0,960,0.0,64.0
1289,67.0,0,960,2.0,64.0
1290,62.0,0,960,2.0,64.0
1291,47.0,0,930,12.0,64.0
1292,79.0,240,960,1.0,64.0
1293,74.0,0,960,1.0,64.0
1294,47.0,0,450,15.0,64.0
1295,62.0,0,930,10.0,64.0
1296,67.0,0,390,5.0,64.0
1297,62.0,144,240,3.0,64.0
1298,62.0,30,450,5.0,64.0
1299,47.0,0,450,5.0,64.0
1300,55.0,0,390,5.0,64.0
1301,79.0,0,960,7.0,64.0
1302,43.0,0,390,6.0,64.0
1303,62.0,0,390,4.0,64.0
1304,67.0,66,390,4.0,64.0
1305,67.0,38,930,8.0,64.0
1306,59.0,0,930,11.0,64.0
1307,59.0,240,240,3.0,64.0
1308,43.0,0,390,6.0,64.0
1309,67.0,0,390,4.0,64.0
1310,62.0,0,390,4.0,64.0
1311,67.0,0,390,5.0,64.0
1312,55.0,58,390,5.0,64.0
1313,55.0,144,240,3.0,64.0
1314,50.0,0,240,3.0,64.0
1315,81.0,0,960,1.0,64.0
1316,48.0,220,240,3.0,64.0
1317,60.0,240,480,2.0,64.0
1318,57.0,18,930,11.0,64.0
1319,69.0,0,960,2.0,64.0
1320,72.0,0,930,8.0,64.0
1321,72.0,0,480,1.0,64.0
1322,45.0,0,930,12.0,64.0
1323,81.0,0,960,0.0,64.0
1324,64.0,20,450,10.0,64.0
1325,81.0,0,960,7.0,64.0
1326,60.0,0,240,3.0,64.0
1327,74.0,0,480,1.0,64.0
1328,57.0,144,240,3.0,64.0
1329,72.0,0,390,5.0,64.0
1330,48.0,58,390,6.0,64.0
1331,66.0,20,450,10.0,64.0
1332,60.0,0,390,5.0,64.0
1333,62.0,0,390,4.0,64.0
1334,62.0,240,480,2.0,64.0
1335,60.0,0,240,3.0,64.0
1336,67.0,20,450,10.0,64.0
1337,67.0,0,390,5.0,64.0
1338,55.0,0,390,5.0,64.0
1339,83.0,0,1440,1.0,64.0
1340,83.0,240,1440,7.0,64.0
1341,55.0,76,390,4.0,64.0
1342,67.0,0,390,4.0,64.0
1343,74.0,0,480,1.0,64.0
1344,43.0,0,390,6.0,64.0
1345,43.0,0,690,12.0,64.0
1346,83.0,0,1440,0.0,64.0
1347,55.0,0,690,11.0,64.0
1348,59.0,144,240,3.0,64.0
1349,71.0,28,690,8.0,64.0
1350,62.0,212,480,2.0,64.0
1351,71.0,0,1440,2.0,64.0
1352,55.0,0,240,3.0,64.0
1353,59.0,220,240,3.0,64.0
1354,75.0,0,480,1.0,64.0
1355,63.0,240,480,2.0,64.0
1356,69.0,10,450,10.0,64.0
1357,54.0,0,240,3.0,64.0
1358,54.0,0,240,11.0,64.0
1359,69.0,0,240,8.0,64.0
1360,42.0,10,240,12.0,64.0
1361,64.0,0,480,2.0,64.0
1362,67.0,0,390,5.0,64.0
1363,52.0,20,450,11.0,64.0
1364,55.0,76,390,5.0,64.0
1365,59.0,144,240,3.0,64.0
1366,52.0,0,390,4.0,64.0
1367,71.0,0,450,10.0,64.0
1368,67.0,0,450,8.0,64.0
1369,43.0,0,390,6.0,64.0
1370,40.0,0,450,12.0,64.0
1371,52.0,0,240,3.0,64.0
1372,60.0,0,390,5.0,64.0
1373,48.0,0,390,6.0,64.0
1374,72.0,0,390,5.0,64.0
1375,84.0,0,960,0.0,64.0
1376,72.0,0,930,10.0,64.0
1377,72.0,0,960,2.0,64.0
1378,64.0,0,1440,2.0,64.0
1379,45.0,0,930,11.0,64.0
1380,52.0,96,390,4.0,64.0
1381,33.0,0,930,12.0,64.0
1382,76.0,0,15,1.0,64.0
1383,64.0,20,930,8.0,64.0
1384,64.0,0,390,4.0,64.0
1385,84.0,0,960,1.0,64.0
1386,84.0,230,960,7.0,64.0
1387,57.0,144,240,3.0,64.0
1388,45.0,240,240,3.0,64.0
1389,64.0,0,390,4.0,64.0
1390,52.0,76,390,4.0,64.0
1391,57.0,144,240,3.0,64.0
1392,45.0,0,240,3.0,64.0
1393,59.0,144,240,3.0,64.0
1394,64.0,10,450,8.0,64.0
1395,43.0,0,390,6.0,64.0
1396,55.0,0,390,5.0,64.0
1397,64.0,76,390,4.0,64.0
1398,67.0,0,240,2.0,64.0
1399,67.0,10,240,10.0,64.0
1400,79.0,0,240,0.0,64.0
1401,52.0,0,390,4.0,64.0
1402,67.0,0,390,5.0,64.0
1403,35.0,20,1380,12.0,64.0
1404,76.0,0,15,1.0,64.0
1405,79.0,0,240,1.0,64.0
1406,79.0,0,240,7.0,64.0
1407,47.0,0,1380,11.0,64.0
1408,81.0,0,240,7.0,64.0
1409,47.0,0,240,3.0,64.0
1410,69.0,10,240,10.0,64.0
1411,69.0,0,240,2.0,64.0
1412,81.0,240,240,0.0,64.0
1413,81.0,0,240,1.0,64.0
1414,59.0,0,960,2.0,64.0
1415,71.0,0,960,2.0,64.0
1416,59.0,0,930,8.0,64.0
1417,83.0,0,960,7.0,64.0
1418,83.0,384,960,0.0,64.0
1419,71.0,0,960,1.0,64.0
1420,71.0,38,930,10.0,64.0
1421,83.0,0,960,1.0,64.0
1422,59.0,240,240,3.0,64.0
1423,47.0,240,240,3.0,64.0
1424,59.0,182,240,3.0,64.0
1425,47.0,0,240,3.0,64.0
1426,52.0,0,390,11.0,64.0
1427,64.0,0,390,1.0,64.0
1428,52.0,0,390,2.0,64.0
1429,76.0,0,390,7.0,64.0
1430,76.0,0,390,1.0,64.0
1431,40.0,0,390,3.0,64.0
1432,64.0,384,390,8.0,64.0
1433,76.0,0,390,0.0,64.0
1434,40.0,0,390,12.0,64.0
1435,64.0,0,390,4.0,64.0
1436,52.0,0,390,4.0,64.0
1437,52.0,0,390,3.0,64.0
1438,64.0,0,300,5.0,64.0
1439,64.0,0,300,2.0,64.0
1440,67.0,0,300,2.0,64.0
1441,52.0,0,300,5.0,64.0
1442,67.0,0,300,5.0,64.0
1443,55.0,0,300,5.0,64.0
1444,64.0,0,90,5.0,64.0
1445,64.0,0,90,2.0,64.0
1446,67.0,0,90,2.0,64.0
1447,67.0,0,90,5.0,64.0
1448,55.0,344,90,5.0,64.0
1449,52.0,0,90,5.0,64.0
1450,67.0,0,390,2.0,64.0
1451,67.0,0,390,5.0,64.0
1452,55.0,0,390,5.0,64.0
1453,64.0,0,390,5.0,64.0
1454,52.0,16,390,5.0,64.0
1455,64.0,0,390,2.0,64.0
1456,67.0,64,90,7.0,64.0
1457,67.0,0,90,1.0,64.0
1458,69.0,0,90,7.0,64.0
1459,69.0,80,90,1.0,64.0
1460,71.0,0,90,7.0,64.0
1461,71.0,96,90,1.0,64.0
1462,72.0,0,90,7.0,64.0
1463,52.0,0,390,5.0,64.0
1464,55.0,0,390,5.0,64.0
1465,72.0,120,90,1.0,64.0
1466,64.0,0,390,5.0,64.0
1467,67.0,0,390,5.0,64.0
1468,67.0,0,390,2.0,64.0
1469,64.0,24,360,2.0,64.0
1470,74.0,120,90,7.0,64.0
1471,74.0,0,90,1.0,64.0
1472,76.0,24,90,7.0,64.0
1473,76.0,0,90,1.0,64.0
1474,77.0,216,90,1.0,64.0
1475,77.0,0,90,7.0,64.0
1476,67.0,0,960,4.0,64.0
1477,67.0,0,960,2.0,64.0
1478,48.0,384,390,6.0,64.0
1479,67.0,96,180,5.0,64.0
1480,52.0,96,300,10.0,64.0
1481,64.0,0,180,5.0,64.0
1482,72.0,192,780,8.0,64.0
1483,40.0,0,780,12.0,64.0
1484,79.0,0,960,7.0,64.0
1485,64.0,0,960,2.0,64.0
1486,79.0,0,960,1.0,64.0
1487,52.0,0,780,11.0,64.0
1488,48.0,0,960,4.0,64.0
1489,55.0,192,960,3.0,64.0
1490,52.0,0,960,3.0,64.0
1491,91.0,0,960,0.0,64.0
1492,64.0,0,300,10.0,64.0
1493,69.0,0,480,2.0,64.0
1494,93.0,0,480,0.0,64.0
1495,84.0,0,480,0.0,64.0
1496,48.0,192,780,11.0,64.0
1497,72.0,0,480,1.0,64.0
1498,81.0,0,480,1.0,64.0
1499,65.0,288,480,2.0,64.0
1500,36.0,0,780,12.0,64.0
1501,57.0,0,480,3.0,64.0
1502,53.0,0,480,3.0,64.0
1503,81.0,0,480,7.0,64.0
1504,60.0,0,480,4.0,64.0
1505,69.0,0,480,4.0,64.0
1506,72.0,0,180,5.0,64.0
1507,60.0,192,180,5.0,64.0
1508,48.0,96,390,6.0,64.0
1509,72.0,0,780,8.0,64.0
1510,65.0,0,480,10.0,64.0
1511,79.0,0,480,7.0,64.0
1512,67.0,0,480,2.0,64.0
1513,91.0,0,480,0.0,64.0
1514,60.0,0,480,4.0,64.0
1515,67.0,0,480,4.0,64.0
1516,79.0,0,480,1.0,64.0
1517,64.0,0,480,10.0,64.0
1518,64.0,192,480,2.0,64.0
1519,52.0,0,480,3.0,64.0
1520,55.0,0,480,3.0,64.0
1521,64.0,0,480,4.0,64.0
1522,76.0,0,480,1.0,64.0
1523,60.0,0,390,4.0,64.0
1524,65.0,0,390,4.0,64.0
1525,84.0,0,15,0.0,64.0
1526,72.0,0,390,8.0,64.0
1527,89.0,0,390,0.0,64.0
1528,36.0,0,390,12.0,64.0
1529,72.0,192,180,5.0,64.0
1530,77.0,0,390,7.0,64.0
1531,48.0,0,390,6.0,64.0
1532,69.0,0,390,10.0,64.0
1533,48.0,0,390,3.0,64.0
1534,53.0,0,390,3.0,64.0
1535,60.0,0,180,5.0,64.0
1536,77.0,0,390,1.0,64.0
1537,72.0,0,390,1.0,64.0
1538,48.0,288,390,11.0,64.0
1539,60.0,0,390,2.0,64.0
1540,65.0,0,390,2.0,64.0
1541,72.0,192,180,5.0,64.0
1542,67.0,0,390,10.0,64.0
1543,72.0,0,390,8.0,64.0
1544,48.0,0,390,3.0,64.0
1545,48.0,0,390,6.0,64.0
1546,52.0,480,390,3.0,64.0
1547,76.0,0,390,1.0,64.0
1548,76.0,0,390,7.0,64.0
1549,72.0,0,390,1.0,64.0
1550,48.0,0,390,12.0,64.0
1551,60.0,0,180,5.0,64.0
1552,64.0,0,390,2.0,64.0
1553,60.0,0,390,2.0,64.0
1554,60.0,0,390,11.0,64.0
1555,88.0,0,390,0.0,64.0
1556,84.0,0,390,0.0,64.0
1557,64.0,0,390,4.0,64.0
1558,60.0,0,390,4.0,64.0
1559,65.0,0,870,4.0,64.0
1560,57.0,0,480,4.0,64.0
1561,62.0,0,480,11.0,64.0
1562,77.0,0,870,7.0,64.0
1563,50.0,0,480,12.0,64.0
1564,65.0,0,870,2.0,64.0
1565,57.0,192,480,2.0,64.0
1566,53.0,96,870,3.0,64.0
1567,69.0,0,480,1.0,64.0
1568,77.0,0,870,1.0,64.0
1569,81.0,96,390,0.0,64.0
1570,89.0,0,870,0.0,64.0
1571,65.0,0,960,10.0,64.0
1572,69.0,0,960,8.0,64.0
1573,48.0,0,390,6.0,64.0
1574,60.0,192,180,5.0,64.0
1575,72.0,0,180,5.0,64.0
1576,48.0,30,480,12.0,64.0
1577,50.0,0,15,3.0,64.0
1578,60.0,0,480,11.0,64.0
1579,74.0,0,390,1.0,64.0
1580,86.0,0,390,0.0,64.0
1581,62.0,0,390,4.0,64.0
1582,62.0,0,390,2.0,64.0
1583,59.0,0,390,11.0,64.0
1584,89.0,0,720,0.0,64.0
1585,86.0,0,720,0.0,64.0
1586,77.0,30,30,7.0,64.0
1587,62.0,0,390,3.0,64.0
1588,62.0,0,720,2.0,64.0
1589,65.0,0,720,2.0,64.0
1590,55.0,0,780,4.0,64.0
1591,65.0,0,780,4.0,64.0
1592,62.0,0,780,4.0,64.0
1593,67.0,72,780,8.0,64.0
1594,77.0,0,720,1.0,64.0
1595,74.0,0,720,1.0,64.0
1596,47.0,0,390,12.0,64.0
1597,62.0,6,390,10.0,64.0
1598,79.0,30,30,7.0,64.0
1599,77.0,30,30,7.0,64.0
1600,79.0,30,30,7.0,64.0
1601,77.0,30,30,7.0,64.0
1602,79.0,30,30,7.0,64.0
1603,77.0,30,30,7.0,64.0
1604,79.0,30,30,7.0,64.0
1605,77.0,30,30,7.0,64.0
1606,79.0,30,30,7.0,64.0
1607,77.0,30,30,7.0,64.0
1608,79.0,24,30,7.0,64.0
1609,77.0,30,30,7.0,64.0
1610,79.0,30,30,7.0,64.0
1611,77.0,30,30,7.0,64.0
1612,79.0,192,30,7.0,64.0
1613,72.0,0,180,5.0,64.0
1614,45.0,0,390,12.0,64.0
1615,48.0,0,390,6.0,64.0
1616,60.0,48,180,5.0,64.0
1617,60.0,0,390,3.0,64.0
1618,60.0,0,390,10.0,64.0
1619,77.0,48,240,7.0,64.0
1620,57.0,96,390,11.0,64.0
1621,67.0,0,120,2.0,64.0
1622,76.0,24,120,1.0,64.0
1623,88.0,0,120,0.0,64.0
1624,64.0,0,120,2.0,64.0
1625,91.0,0,120,0.0,64.0
1626,79.0,0,120,7.0,64.0
1627,79.0,0,120,1.0,64.0
1628,69.0,0,120,2.0,64.0
1629,65.0,0,120,2.0,64.0
1630,81.0,0,120,7.0,64.0
1631,93.0,0,120,0.0,64.0
1632,89.0,30,120,0.0,64.0
1633,81.0,0,120,1.0,64.0
1634,77.0,0,120,1.0,64.0
1635,59.0,0,30,11.0,64.0
1636,76.0,0,390,1.0,64.0
1637,79.0,0,390,1.0,64.0
1638,67.0,0,180,5.0,64.0
1639,55.0,0,390,4.0,64.0
1640,62.0,0,390,4.0,64.0
1641,64.0,24,360,2.0,64.0
1642,43.0,0,390,6.0,64.0
1643,47.0,0,30,12.0,64.0
1644,55.0,18,180,5.0,64.0
1645,62.0,0,390,8.0,64.0
1646,67.0,0,390,2.0,64.0
1647,67.0,0,390,4.0,64.0
1648,88.0,0,390,0.0,64.0
1649,91.0,0,390,0.0,64.0
1650,62.0,30,30,3.0,64.0
1651,79.0,6,390,7.0,64.0
1652,62.0,0,30,10.0,64.0
1653,64.0,0,30,10.0,64.0
1654,48.0,30,30,12.0,64.0
1655,64.0,0,30,3.0,64.0
1656,60.0,0,30,11.0,64.0
1657,62.0,0,30,3.0,64.0
1658,47.0,0,30,12.0,64.0
1659,59.0,0,30,11.0,64.0
1660,62.0,30,30,10.0,64.0
1661,64.0,0,30,3.0,64.0
1662,64.0,0,30,10.0,64.0
1663,60.0,30,30,11.0,64.0
1664,48.0,0,30,12.0,64.0
1665,62.0,0,30,10.0,64.0
1666,47.0,30,30,12.0,64.0
1667,59.0,0,30,11.0,64.0
1668,62.0,0,30,3.0,64.0
1669,48.0,12,30,12.0,64.0
1670,64.0,0,30,3.0,64.0
1671,60.0,0,30,11.0,64.0
1672,64.0,0,30,10.0,64.0
1673,62.0,0,30,3.0,64.0
1674,59.0,0,30,11.0,64.0
1675,47.0,0,30,12.0,64.0
1676,62.0,30,30,10.0,64.0
1677,60.0,30,30,11.0,64.0
1678,48.0,0,30,12.0,64.0
1679,64.0,0,30,10.0,64.0
1680,64.0,0,30,3.0,64.0
1681,47.0,0,30,12.0,64.0
1682,62.0,30,30,10.0,64.0
1683,59.0,0,30,11.0,64.0
1684,62.0,0,30,3.0,64.0
1685,64.0,0,30,3.0,64.0
1686,48.0,30,30,12.0,64.0
1687,64.0,0,30,10.0,64.0
1688,60.0,0,30,11.0,64.0
1689,62.0,0,30,3.0,64.0
1690,59.0,0,30,11.0,64.0
1691,62.0,30,30,10.0,64.0
1692,47.0,0,30,12.0,64.0
1693,64.0,0,30,3.0,64.0
1694,64.0,0,30,10.0,64.0
1695,60.0,0,30,11.0,64.0
1696,48.0,0,30,12.0,64.0
1697,47.0,0,30,12.0,64.0
1698,62.0,0,30,10.0,64.0
1699,62.0,0,30,3.0,64.0
1700,59.0,30,30,11.0,64.0
1701,64.0,0,30,10.0,64.0
1702,48.0,30,30,12.0,64.0
1703,60.0,0,30,11.0,64.0
1704,64.0,0,30,3.0,64.0
1705,59.0,0,30,11.0,64.0
1706,62.0,30,30,3.0,64.0
1707,47.0,0,30,12.0,64.0
1708,62.0,0,30,10.0,64.0
1709,48.0,0,30,12.0,64.0
1710,64.0,0,30,10.0,64.0
1711,60.0,0,30,11.0,64.0
1712,64.0,30,30,3.0,64.0
1713,55.0,0,390,4.0,64.0
1714,47.0,0,30,12.0,64.0
1715,59.0,0,30,11.0,64.0
1716,62.0,30,30,10.0,64.0
1717,65.0,0,390,4.0,64.0
1718,67.0,0,180,5.0,64.0
1719,77.0,0,390,7.0,64.0
1720,62.0,0,390,4.0,64.0
1721,55.0,18,180,5.0,64.0
1722,86.0,0,390,0.0,64.0
1723,77.0,6,390,1.0,64.0
1724,89.0,0,390,0.0,64.0
1725,74.0,0,390,8.0,64.0
1726,62.0,0,30,3.0,64.0
1727,43.0,0,390,6.0,64.0
1728,74.0,0,390,1.0,64.0
1729,65.0,0,390,2.0,64.0
1730,62.0,0,390,2.0,64.0
1731,60.0,30,30,11.0,64.0
1732,48.0,0,30,12.0,64.0
1733,64.0,0,30,10.0,64.0
1734,64.0,0,30,3.0,64.0
1735,59.0,0,30,11.0,64.0
1736,62.0,0,30,10.0,64.0
1737,47.0,0,30,12.0,64.0
1738,62.0,30,30,3.0,64.0
1739,64.0,0,30,10.0,64.0
1740,48.0,0,30,12.0,64.0
1741,60.0,30,30,11.0,64.0
1742,64.0,0,30,3.0,64.0
1743,62.0,0,30,3.0,64.0
1744,59.0,30,30,11.0,64.0
1745,47.0,0,30,12.0,64.0
1746,62.0,0,30,10.0,64.0
1747,48.0,12,30,12.0,64.0
1748,64.0,0,30,3.0,64.0
1749,60.0,0,30,11.0,64.0
1750,64.0,0,30,10.0,64.0
1751,59.0,0,30,11.0,64.0
1752,47.0,0,30,12.0,64.0
1753,62.0,30,30,3.0,64.0
1754,62.0,0,30,10.0,64.0
1755,48.0,0,30,12.0,64.0
1756,64.0,30,30,10.0,64.0
1757,60.0,0,30,11.0,64.0
1758,64.0,0,30,3.0,64.0
1759,62.0,30,30,10.0,64.0
1760,47.0,0,30,12.0,64.0
1761,59.0,0,30,11.0,64.0
1762,62.0,0,30,3.0,64.0
1763,64.0,30,30,10.0,64.0
1764,60.0,0,30,11.0,64.0
1765,64.0,0,30,3.0,64.0
1766,48.0,0,30,12.0,64.0
1767,47.0,30,30,12.0,64.0
1768,59.0,0,30,11.0,64.0
1769,62.0,0,30,10.0,64.0
1770,62.0,0,30,3.0,64.0
1771,64.0,0,30,3.0,64.0
1772,64.0,0,30,10.0,64.0
1773,60.0,24,30,11.0,64.0
1774,48.0,0,30,12.0,64.0
1775,47.0,0,30,12.0,64.0
1776,62.0,0,30,3.0,64.0
1777,62.0,0,30,10.0,64.0
1778,59.0,30,30,11.0,64.0
1779,60.0,0,30,11.0,64.0
1780,48.0,30,30,12.0,64.0
1781,64.0,0,30,10.0,64.0
1782,64.0,0,30,3.0,64.0
1783,60.0,0,30,3.0,64.0
1784,60.0,30,30,10.0,64.0
1785,45.0,0,30,12.0,64.0
1786,57.0,0,30,11.0,64.0
1787,62.0,0,30,3.0,64.0
1788,59.0,192,30,11.0,64.0
1789,47.0,0,30,12.0,64.0
1790,62.0,0,30,10.0,64.0
1791,64.0,0,390,2.0,64.0
1792,64.0,288,390,3.0,64.0
1793,60.0,0,390,2.0,64.0
1794,60.0,192,180,5.0,64.0
1795,48.0,0,390,12.0,64.0
1796,64.0,0,390,4.0,64.0
1797,72.0,0,180,5.0,64.0
1798,64.0,0,390,10.0,64.0
1799,55.0,0,1380,4.0,64.0
1800,60.0,0,390,4.0,64.0
1801,84.0,0,390,0.0,64.0
1802,88.0,0,390,0.0,64.0
1803,48.0,0,390,6.0,64.0
1804,72.0,0,390,1.0,64.0
1805,76.0,0,390,1.0,64.0
1806,60.0,0,390,11.0,64.0
1807,76.0,0,390,7.0,64.0
1808,67.0,0,390,8.0,64.0
1809,55.0,0,390,11.0,64.0
1810,74.0,0,390,1.0,64.0
1811,71.0,0,390,1.0,64.0
1812,65.0,0,390,10.0,64.0
1813,65.0,0,390,4.0,64.0
1814,62.0,0,390,4.0,64.0
1815,74.0,192,390,7.0,64.0
1816,71.0,0,390,8.0,64.0
1817,43.0,0,390,12.0,64.0
1818,55.0,192,180,5.0,64.0
1819,67.0,0,180,5.0,64.0
1820,86.0,0,390,0.0,64.0
1821,83.0,0,390,0.0,64.0
1822,62.0,0,390,2.0,64.0
1823,59.0,0,390,2.0,64.0
1824,43.0,0,390,6.0,64.0
1825,65.0,0,390,3.0,64.0
1826,60.0,0,900,4.0,64.0
1827,48.0,48,180,6.0,64.0
1828,60.0,0,90,5.0,64.0
1829,84.0,0,480,0.0,64.0
1830,88.0,0,480,0.0,64.0
1831,64.0,0,240,10.0,64.0
1832,72.0,96,90,5.0,64.0
1833,76.0,0,480,7.0,64.0
1834,48.0,0,240,11.0,64.0
1835,64.0,0,480,2.0,64.0
1836,64.0,24,420,4.0,64.0
1837,72.0,0,480,1.0,64.0
1838,60.0,0,480,2.0,64.0
1839,76.0,0,480,1.0,64.0
1840,64.0,48,240,3.0,64.0
1841,36.0,0,240,12.0,64.0
1842,67.0,0,240,8.0,64.0
1843,67.0,96,240,10.0,64.0
1844,48.0,18,90,6.0,64.0
1845,48.0,0,120,12.0,64.0
1846,67.0,0,240,3.0,64.0
1847,60.0,54,120,11.0,64.0
1848,72.0,0,60,5.0,64.0
1849,48.0,48,660,4.0,64.0
1850,60.0,48,60,5.0,64.0
1851,72.0,0,240,8.0,64.0
1852,48.0,18,90,6.0,64.0
1853,60.0,0,60,5.0,64.0
1854,58.0,0,120,11.0,64.0
1855,72.0,24,60,5.0,64.0
1856,46.0,6,120,12.0,64.0
1857,77.0,96,240,7.0,64.0
1858,72.0,0,90,5.0,64.0
1859,48.0,48,180,6.0,64.0
1860,60.0,96,90,5.0,64.0
1861,74.0,0,240,1.0,64.0
1862,89.0,0,240,0.0,64.0
1863,77.0,0,240,1.0,64.0
1864,74.0,0,240,8.0,64.0
1865,86.0,0,240,0.0,64.0
1866,65.0,0,180,4.0,64.0
1867,65.0,0,240,3.0,64.0
1868,65.0,0,240,10.0,64.0
1869,65.0,0,240,2.0,64.0
1870,57.0,0,240,11.0,64.0
1871,62.0,0,240,2.0,64.0
1872,45.0,0,240,12.0,64.0
1873,76.0,192,240,8.0,64.0
1874,67.0,0,180,4.0,64.0
1875,43.0,0,240,12.0,64.0
1876,55.0,0,240,11.0,64.0
1877,67.0,0,240,2.0,64.0
1878,64.0,0,240,3.0,64.0
1879,64.0,0,240,2.0,64.0
1880,88.0,0,240,0.0,64.0
1881,91.0,0,240,0.0,64.0
1882,79.0,0,240,7.0,64.0
1883,64.0,0,240,10.0,64.0
1884,76.0,0,240,1.0,64.0
1885,79.0,0,240,1.0,64.0
1886,60.0,0,90,5.0,64.0
1887,72.0,96,90,5.0,64.0
1888,48.0,0,180,6.0,64.0
1889,65.0,0,780,4.0,64.0
1890,60.0,96,780,4.0,64.0
1891,60.0,0,180,5.0,64.0
1892,72.0,192,180,5.0,64.0
1893,72.0,0,390,1.0,64.0
1894,81.0,0,870,1.0,64.0
1895,93.0,0,870,0.0,64.0
1896,84.0,0,390,0.0,64.0
1897,53.0,0,870,11.0,64.0
1898,48.0,0,390,6.0,64.0
1899,65.0,0,870,3.0,64.0
1900,65.0,0,870,10.0,64.0
1901,69.0,0,870,2.0,64.0
1902,81.0,0,870,7.0,64.0
1903,72.0,0,870,8.0,64.0
1904,60.0,288,390,2.0,64.0
1905,41.0,0,870,12.0,64.0
1906,72.0,0,390,7.0,64.0
1907,72.0,96,180,5.0,64.0
1908,65.0,0,870,2.0,64.0
1909,77.0,0,870,1.0,64.0
1910,48.0,480,390,6.0,64.0
1911,89.0,0,870,0.0,64.0
1912,60.0,0,180,5.0,64.0
1913,77.0,0,870,7.0,64.0
1914,95.0,0,930,0.0,64.0
1915,65.0,0,390,10.0,64.0
1916,83.0,0,930,7.0,64.0
1917,38.0,288,390,12.0,64.0
1918,83.0,0,930,1.0,64.0
1919,62.0,0,390,4.0,64.0
1920,71.0,0,930,2.0,64.0
1921,65.0,0,390,3.0,64.0
1922,74.0,0,390,8.0,64.0
1923,50.0,0,390,11.0,64.0
1924,65.0,0,390,4.0,64.0
1925,62.0,0,450,3.0,64.0
1926,65.0,0,450,8.0,64.0
1927,62.0,0,450,2.0,64.0
1928,43.0,0,450,12.0,64.0
1929,43.0,66,390,6.0,64.0
1930,74.0,0,450,1.0,64.0
1931,55.0,0,390,4.0,64.0
1932,62.0,0,390,4.0,64.0
1933,67.0,0,180,5.0,64.0
1934,74.0,0,450,7.0,64.0
1935,55.0,192,180,5.0,64.0
1936,62.0,222,450,10.0,64.0
1937,86.0,0,450,0.0,64.0
1938,55.0,0,450,11.0,64.0
1939,84.0,0,1380,1.0,64.0
1940,72.0,0,1380,1.0,64.0
1941,66.0,0,1380,8.0,64.0
1942,62.0,0,1380,3.0,64.0
1943,60.0,0,1380,3.0,64.0
1944,45.0,174,450,11.0,64.0
1945,48.0,66,390,6.0,64.0
1946,60.0,0,180,5.0,64.0
1947,84.0,0,1380,0.0,64.0
1948,48.0,0,1260,4.0,64.0
1949,60.0,0,1260,4.0,64.0
1950,96.0,0,1380,0.0,64.0
1951,72.0,192,180,5.0,64.0
1952,60.0,0,1380,2.0,64.0
1953,72.0,12,1380,2.0,64.0
1954,60.0,0,1380,10.0,64.0
1955,62.0,0,1380,10.0,64.0
1956,84.0,0,1380,7.0,64.0
1957,72.0,0,1380,7.0,64.0
1958,33.0,0,450,12.0,64.0
1959,48.0,120,300,6.0,64.0
1960,72.0,144,150,5.0,64.0
1961,62.0,0,780,4.0,64.0
1962,45.0,36,900,12.0,64.0
1963,60.0,0,150,5.0,64.0
1964,57.0,0,900,11.0,64.0
1965,60.0,0,60,5.0,64.0
1966,72.0,48,60,5.0,64.0
1967,48.0,120,90,6.0,64.0
1968,72.0,0,90,5.0,64.0
1969,48.0,96,180,6.0,64.0
1970,60.0,96,90,5.0,64.0
1971,48.0,72,90,6.0,64.0
1972,72.0,48,60,5.0,64.0
1973,60.0,0,60,5.0,64.0
1974,60.0,0,60,5.0,64.0
1975,72.0,0,60,5.0,64.0
1976,48.0,120,90,6.0,64.0
1977,33.0,0,390,12.0,64.0
1978,60.0,0,450,10.0,64.0
1979,72.0,0,240,1.0,64.0
1980,62.0,0,450,10.0,64.0
1981,72.0,0,240,7.0,64.0
1982,45.0,48,390,11.0,64.0
1983,60.0,96,90,5.0,64.0
1984,60.0,0,240,2.0,64.0
1985,72.0,0,90,5.0,64.0
1986,66.0,126,450,8.0,64.0
1987,84.0,96,240,0.0,64.0
1988,62.0,0,450,3.0,64.0
1989,60.0,0,450,3.0,64.0
1990,60.0,0,390,4.0,64.0
1991,48.0,0,390,4.0,64.0
1992,62.0,0,390,4.0,64.0
1993,48.0,48,180,6.0,64.0
1994,48.0,18,180,6.0,64.0
1995,62.0,0,180,2.0,64.0
1996,60.0,48,90,5.0,64.0
1997,74.0,0,180,1.0,64.0
1998,86.0,0,180,0.0,64.0
1999,72.0,0,90,5.0,64.0
2000,74.0,0,180,7.0,64.0
2001,88.0,0,900,0.0,64.0
2002,60.0,0,900,2.0,64.0
2003,64.0,0,900,2.0,64.0
2004,60.0,0,900,4.0,64.0
2005,60.0,48,240,10.0,64.0
2006,84.0,0,900,0.0,64.0
2007,67.0,96,90,5.0,64.0
2008,43.0,0,780,11.0,64.0
2009,76.0,0,900,1.0,64.0
2010,43.0,48,180,6.0,64.0
2011,67.0,0,720,8.0,64.0
2012,60.0,0,240,3.0,64.0
2013,76.0,0,900,7.0,64.0
2014,31.0,48,780,12.0,64.0
2015,72.0,0,900,1.0,64.0
2016,64.0,0,900,4.0,64.0
2017,55.0,0,90,5.0,64.0
2018,55.0,96,240,3.0,64.0
2019,55.0,0,240,10.0,64.0
2020,67.0,0,60,5.0,64.0
2021,55.0,48,60,5.0,64.0
2022,43.0,72,90,6.0,64.0
2023,67.0,48,60,5.0,64.0
2024,43.0,24,90,6.0,64.0
2025,55.0,0,60,5.0,64.0
2026,43.0,48,180,6.0,64.0
2027,60.0,0,240,10.0,64.0
2028,67.0,96,90,5.0,64.0
2029,60.0,48,240,3.0,64.0
2030,55.0,0,90,5.0,64.0
2031,60.0,48,180,8.0,64.0
2032,64.0,96,240,10.0,64.0
2033,64.0,0,240,3.0,64.0
2034,67.0,96,90,5.0,64.0
2035,55.0,0,90,5.0,64.0
2036,43.0,0,180,6.0,64.0
2037,67.0,0,90,5.0,64.0
2038,86.0,0,720,0.0,64.0
2039,55.0,96,90,5.0,64.0
2040,43.0,96,180,6.0,64.0
2041,55.0,0,720,4.0,64.0
2042,83.0,48,720,0.0,64.0
2043,43.0,48,780,11.0,64.0
2044,74.0,0,720,7.0,64.0
2045,31.0,0,780,12.0,64.0
2046,71.0,0,720,1.0,64.0
2047,74.0,0,720,1.0,64.0
2048,62.0,0,720,4.0,64.0
2049,65.0,0,720,3.0,64.0
2050,65.0,0,720,10.0,64.0
2051,62.0,0,720,2.0,64.0
2052,59.0,96,570,8.0,64.0
2053,59.0,0,720,2.0,64.0
2054,43.0,72,90,6.0,64.0
2055,55.0,0,60,5.0,64.0
2056,67.0,48,60,5.0,64.0
2057,43.0,120,90,6.0,64.0
2058,67.0,48,60,5.0,64.0
2059,55.0,0,60,5.0,64.0
2060,55.0,0,90,5.0,64.0
2061,67.0,0,90,5.0,64.0
2062,43.0,48,180,6.0,64.0
2063,64.0,0,180,10.0,64.0
2064,67.0,0,90,5.0,64.0
2065,60.0,0,180,2.0,64.0
2066,72.0,0,180,7.0,64.0
2067,84.0,0,180,0.0,64.0
2068,60.0,0,180,4.0,64.0
2069,52.0,0,180,4.0,64.0
2070,72.0,0,180,1.0,64.0
2071,55.0,96,90,5.0,64.0
2072,43.0,0,180,6.0,64.0
2073,60.0,432,180,8.0,64.0
2074,64.0,0,180,3.0,64.0
2075,36.0,0,390,12.0,64.0
2076,48.0,384,390,11.0,64.0
2077,72.0,0,390,7.0,64.0
2078,64.0,0,390,3.0,64.0
2079,48.0,0,390,6.0,64.0
2080,64.0,0,390,10.0,64.0
2081,60.0,0,390,2.0,64.0
2082,84.0,0,390,0.0,64.0
2083,60.0,0,390,5.0,64.0
2084,64.0,0,390,5.0,64.0
2085,60.0,0,390,4.0,64.0
2086,52.0,0,390,4.0,64.0
2087,60.0,0,390,8.0,64.0
2088,72.0,0,390,1.0,64.0
2089,67.0,0,300,5.0,64.0
2090,55.0,0,300,5.0,64.0
2091,60.0,72,390,5.0,64.0
2092,43.0,96,300,6.0,64.0
2093,43.0,0,390,5.0,64.0
2094,64.0,0,390,5.0,64.0
2095,67.0,408,90,5.0,64.0
2096,55.0,0,90,5.0,64.0
2097,43.0,0,90,6.0,64.0
2098,43.0,0,390,6.0,64.0
2099,59.0,288,570,5.0,64.0
2100,62.0,0,570,5.0,64.0
2101,43.0,0,570,5.0,64.0
2102,55.0,192,390,5.0,64.0
2103,67.0,0,390,5.0,64.0
2104,67.0,0,390,5.0,64.0
2105,43.0,48,390,6.0,64.0
2106,55.0,0,390,5.0,64.0
2107,60.0,144,180,5.0,64.0
2108,43.0,0,180,5.0,64.0
2109,72.0,0,150,1.0,64.0
2110,64.0,0,150,7.0,64.0
2111,72.0,0,150,7.0,64.0
2112,60.0,0,150,4.0,64.0
2113,48.0,144,150,4.0,64.0
2114,72.0,0,150,2.0,64.0
2115,84.0,0,150,0.0,64.0
2116,36.0,0,150,12.0,64.0
2117,48.0,24,390,6.0,64.0
2118,48.0,0,150,11.0,64.0
2119,60.0,0,150,8.0,64.0
2120,55.0,0,150,8.0,64.0
2121,60.0,48,90,5.0,64.0
2122,48.0,0,390,5.0,64.0
2123,48.0,0,390,14.0,64.0
2124,48.0,0,150,3.0,64.0
2125,67.0,96,60,5.0,64.0
2126,67.0,168,60,5.0,64.0
2127,72.0,240,90,5.0,64.0
2128,67.0,240,90,5.0,64.0
2129,72.0,240,90,5.0,64.0
2130,67.0,120,90,5.0,64.0
2131,48.0,0,90,14.0,64.0
2132,48.0,120,90,14.0,64.0
2133,64.0,96,90,5.0,64.0
2134,48.0,144,180,14.0,64.0
2135,67.0,96,90,5.0,64.0
2136,48.0,144,180,14.0,64.0
2137,64.0,0,150,7.0,64.0
2138,76.0,0,150,7.0,64.0
2139,72.0,0,150,2.0,64.0
2140,72.0,0,150,7.0,64.0
2141,76.0,0,150,1.0,64.0
2142,36.0,0,150,12.0,64.0
2143,64.0,0,150,4.0,64.0
2144,84.0,0,150,0.0,64.0
2145,48.0,24,390,14.0,64.0
2146,48.0,144,150,4.0,64.0
2147,88.0,0,150,0.0,64.0
2148,48.0,0,150,3.0,64.0
2149,48.0,0,150,11.0,64.0
2150,60.0,0,150,8.0,64.0
2151,55.0,0,150,8.0,64.0
2152,72.0,0,150,1.0,64.0
2153,76.0,0,150,2.0,64.0
2154,60.0,0,150,4.0,64.0
2155,60.0,48,90,5.0,64.0
2156,67.0,96,60,5.0,64.0
2157,72.0,0,60,5.0,64.0
2158,67.0,0,60,5.0,64.0
2159,72.0,168,60,5.0,64.0
2160,76.0,240,90,5.0,64.0
2161,72.0,0,90,5.0,64.0
2162,72.0,0,90,5.0,64.0
2163,67.0,240,90,5.0,64.0
2164,72.0,0,90,5.0,64.0
2165,76.0,240,90,5.0,64.0
2166,72.0,120,90,5.0,64.0
2167,48.0,0,90,14.0,64.0
2168,67.0,0,90,5.0,64.0
2169,48.0,120,90,14.0,64.0
2170,67.0,0,90,5.0,64.0
2171,48.0,144,180,14.0,64.0
2172,64.0,96,90,5.0,64.0
2173,72.0,0,90,5.0,64.0
2174,48.0,192,180,14.0,64.0
2175,67.0,96,90,5.0,64.0
2176,88.0,0,150,0.0,64.0
2177,84.0,144,150,0.0,64.0
2178,48.0,0,150,3.0,64.0
2179,48.0,0,150,4.0,64.0
2180,76.0,0,150,7.0,64.0
2181,64.0,0,150,7.0,64.0
2182,72.0,0,150,7.0,64.0
2183,64.0,0,150,4.0,64.0
2184,60.0,0,150,4.0,64.0
2185,55.0,0,150,8.0,64.0
2186,48.0,24,390,14.0,64.0
2187,36.0,0,150,12.0,64.0
2188,48.0,0,150,11.0,64.0
2189,76.0,0,150,1.0,64.0
2190,72.0,0,150,2.0,64.0
2191,76.0,0,150,2.0,64.0
2192,60.0,0,150,8.0,64.0
2193,72.0,0,150,1.0,64.0
2194,72.0,96,60,5.0,64.0
2195,76.0,0,60,5.0,64.0
2196,76.0,168,60,5.0,64.0
2197,72.0,0,60,5.0,64.0
2198,72.0,240,90,5.0,64.0
2199,76.0,0,90,5.0,64.0
2200,76.0,0,90,5.0,64.0
2201,48.0,120,90,14.0,64.0
2202,72.0,0,90,5.0,64.0
2203,48.0,120,90,14.0,64.0
2204,48.0,0,150,11.0,64.0
2205,72.0,0,150,2.0,64.0
2206,76.0,0,150,2.0,64.0
2207,48.0,144,150,3.0,64.0
2208,64.0,0,150,4.0,64.0
2209,48.0,0,150,4.0,64.0
2210,60.0,0,150,4.0,64.0
2211,88.0,0,150,0.0,64.0
2212,72.0,48,90,5.0,64.0
2213,76.0,0,90,5.0,64.0
2214,60.0,0,150,10.0,64.0
2215,67.0,0,150,8.0,64.0
2216,84.0,0,150,0.0,64.0
2217,36.0,0,150,12.0,64.0
2218,55.0,0,150,8.0,64.0
2219,84.0,0,150,7.0,64.0
2220,76.0,0,150,7.0,64.0
2221,48.0,24,390,14.0,64.0
2222,64.0,0,150,7.0,64.0
2223,72.0,0,150,1.0,64.0
2224,76.0,0,150,1.0,64.0
2225,79.0,0,60,5.0,64.0
2226,76.0,96,60,5.0,64.0
2227,76.0,0,60,5.0,64.0
2228,79.0,168,60,5.0,64.0
2229,76.0,0,90,5.0,64.0
2230,79.0,240,90,5.0,64.0
2231,76.0,120,90,5.0,64.0
2232,79.0,0,90,5.0,64.0
2233,48.0,0,90,14.0,64.0
2234,48.0,120,90,14.0,64.0
2235,77.0,0,150,2.0,64.0
2236,43.0,192,390,14.0,64.0
2237,35.0,0,150,12.0,64.0
2238,77.0,0,150,1.0,64.0
2239,74.0,0,150,1.0,64.0
2240,74.0,0,150,2.0,64.0
2241,86.0,0,150,0.0,64.0
2242,65.0,0,150,4.0,64.0
2243,74.0,0,150,10.0,64.0
2244,89.0,0,150,0.0,64.0
2245,43.0,0,150,4.0,64.0
2246,62.0,0,150,4.0,64.0
2247,55.0,0,150,8.0,64.0
2248,67.0,0,150,8.0,64.0
2249,65.0,0,150,10.0,64.0
2250,86.0,0,150,7.0,64.0
2251,77.0,0,150,7.0,64.0
2252,47.0,192,150,3.0,64.0
2253,79.0,0,90,5.0,64.0
2254,74.0,48,90,5.0,64.0
2255,47.0,0,150,11.0,64.0
2256,55.0,0,150,10.0,64.0
2257,74.0,0,90,5.0,64.0
2258,77.0,48,90,5.0,64.0
2259,55.0,192,150,10.0,64.0
2260,74.0,0,90,5.0,64.0
2261,72.0,0,150,10.0,64.0
2262,48.0,0,150,4.0,64.0
2263,67.0,0,150,8.0,64.0
2264,64.0,0,150,4.0,64.0
2265,84.0,0,150,0.0,64.0
2266,88.0,0,150,0.0,64.0
2267,60.0,0,150,4.0,64.0
2268,77.0,48,90,5.0,64.0
2269,84.0,0,150,7.0,64.0
2270,55.0,0,150,8.0,64.0
2271,72.0,0,150,1.0,64.0
2272,64.0,0,150,10.0,64.0
2273,48.0,0,150,11.0,64.0
2274,48.0,240,390,14.0,64.0
2275,76.0,0,150,2.0,64.0
2276,76.0,0,150,7.0,64.0
2277,36.0,0,150,12.0,64.0
2278,76.0,0,150,1.0,64.0
2279,48.0,0,150,3.0,64.0
2280,72.0,0,150,2.0,64.0
2281,76.0,0,90,5.0,64.0
2282,72.0,48,90,5.0,64.0
2283,71.0,0,150,10.0,64.0
2284,55.0,0,150,10.0,64.0
2285,62.0,0,150,4.0,64.0
2286,74.0,0,150,2.0,64.0
2287,43.0,0,150,11.0,64.0
2288,62.0,0,150,10.0,64.0
2289,43.0,144,180,14.0,64.0
2290,71.0,0,150,2.0,64.0
2291,31.0,48,150,12.0,64.0
2292,74.0,0,150,7.0,64.0
2293,67.0,0,570,5.0,64.0
2294,43.0,0,150,4.0,64.0
2295,55.0,0,150,4.0,64.0
2296,67.0,0,150,8.0,64.0
2297,55.0,0,150,8.0,64.0
2298,83.0,0,150,7.0,64.0
2299,43.0,0,150,3.0,64.0
2300,83.0,0,150,0.0,64.0
2301,86.0,0,150,0.0,64.0
2302,71.0,0,150,1.0,64.0
2303,74.0,0,150,1.0,64.0
2304,74.0,96,570,5.0,64.0
2305,43.0,120,90,14.0,64.0
2306,43.0,120,90,14.0,64.0
2307,43.0,240,180,14.0,64.0
2308,43.0,144,180,14.0,64.0
2309,36.0,0,150,12.0,64.0
2310,72.0,36,150,1.0,64.0
2311,48.0,0,150,11.0,64.0
2312,60.0,0,150,8.0,64.0
2313,72.0,0,150,2.0,64.0
2314,64.0,0,150,7.0,64.0
2315,84.0,0,150,0.0,64.0
2316,60.0,0,150,4.0,64.0
2317,48.0,0,150,4.0,64.0
2318,60.0,48,90,13.0,64.0
2319,48.0,24,390,14.0,64.0
2320,48.0,0,390,6.0,64.0
2321,55.0,0,150,8.0,64.0
2322,72.0,0,150,7.0,64.0
2323,60.0,108,60,3.0,64.0
2324,67.0,12,60,13.0,64.0
2325,59.0,84,60,3.0,64.0
2326,57.0,120,60,3.0,64.0
2327,67.0,12,60,13.0,64.0
2328,72.0,84,90,13.0,64.0
2329,55.0,36,60,3.0,64.0
2330,53.0,120,60,3.0,64.0
2331,67.0,84,90,13.0,64.0
2332,52.0,36,60,3.0,64.0
2333,50.0,120,60,3.0,64.0
2334,72.0,84,90,13.0,64.0
2335,48.0,36,60,3.0,64.0
2336,50.0,120,60,3.0,64.0
2337,52.0,36,60,3.0,64.0
2338,48.0,0,90,6.0,64.0
2339,67.0,84,90,13.0,64.0
2340,48.0,84,90,6.0,64.0
2341,53.0,36,60,3.0,64.0
2342,64.0,84,90,13.0,64.0
2343,55.0,36,60,3.0,64.0
2344,48.0,108,180,6.0,64.0
2345,57.0,12,60,3.0,64.0
2346,59.0,36,60,3.0,64.0
2347,67.0,84,90,13.0,64.0
2348,48.0,144,180,6.0,64.0
2349,60.0,12,60,3.0,64.0
2350,48.0,36,150,11.0,64.0
2351,55.0,0,150,8.0,64.0
2352,64.0,0,150,7.0,64.0
2353,88.0,0,150,0.0,64.0
2354,84.0,0,150,0.0,64.0
2355,76.0,0,150,7.0,64.0
2356,60.0,0,150,4.0,64.0
2357,64.0,0,150,4.0,64.0
2358,72.0,0,150,2.0,64.0
2359,76.0,0,150,2.0,64.0
2360,48.0,24,390,6.0,64.0
2361,36.0,0,150,12.0,64.0
2362,72.0,0,150,1.0,64.0
2363,76.0,0,150,1.0,64.0
2364,48.0,0,120,3.0,64.0
2365,72.0,0,150,7.0,64.0
2366,60.0,24,90,13.0,64.0
2367,60.0,0,150,8.0,64.0
2368,52.0,24,120,3.0,64.0
2369,48.0,0,150,4.0,64.0
2370,64.0,0,60,3.0,64.0
2371,60.0,108,60,3.0,64.0
2372,72.0,0,60,13.0,64.0
2373,67.0,12,60,13.0,64.0
2374,62.0,0,60,3.0,64.0
2375,59.0,84,60,3.0,64.0
2376,72.0,12,60,13.0,64.0
2377,60.0,120,60,3.0,64.0
2378,67.0,0,60,13.0,64.0
2379,57.0,0,60,3.0,64.0
2380,76.0,84,90,13.0,64.0
2381,72.0,0,90,13.0,64.0
2382,55.0,0,60,3.0,64.0
2383,59.0,36,60,3.0,64.0
2384,53.0,120,60,3.0,64.0
2385,57.0,0,60,3.0,64.0
2386,72.0,84,90,13.0,64.0
2387,67.0,0,90,13.0,64.0
2388,52.0,0,60,3.0,64.0
2389,55.0,36,60,3.0,64.0
2390,50.0,120,60,3.0,64.0
2391,53.0,0,60,3.0,64.0
2392,72.0,0,90,13.0,64.0
2393,76.0,84,90,13.0,64.0
2394,48.0,0,60,3.0,64.0
2395,52.0,36,60,3.0,64.0
2396,53.0,120,60,3.0,64.0
2397,50.0,0,60,3.0,64.0
2398,48.0,84,90,6.0,64.0
2399,52.0,36,60,3.0,64.0
2400,55.0,0,60,3.0,64.0
2401,67.0,0,90,13.0,64.0
2402,72.0,0,90,13.0,64.0
2403,57.0,0,60,3.0,64.0
2404,48.0,84,90,6.0,64.0
2405,53.0,36,60,3.0,64.0
2406,64.0,0,90,13.0,64.0
2407,67.0,84,90,13.0,64.0
2408,59.0,36,60,3.0,64.0
2409,55.0,0,60,3.0,64.0
2410,48.0,108,180,6.0,64.0
2411,60.0,12,60,3.0,64.0
2412,57.0,0,60,3.0,64.0
2413,72.0,84,90,13.0,64.0
2414,67.0,0,90,13.0,64.0
2415,59.0,36,60,3.0,64.0
2416,62.0,0,60,3.0,64.0
2417,48.0,108,180,6.0,64.0
2418,64.0,12,60,3.0,64.0
2419,60.0,0,60,3.0,64.0
2420,72.0,0,150,2.0,64.0
2421,76.0,0,150,2.0,64.0
2422,60.0,0,150,8.0,64.0
2423,55.0,0,150,8.0,64.0
2424,64.0,0,150,4.0,64.0
2425,48.0,24,390,6.0,64.0
2426,60.0,0,150,4.0,64.0
2427,76.0,36,150,7.0,64.0
2428,48.0,0,150,11.0,64.0
2429,60.0,84,60,3.0,64.0
2430,84.0,0,150,0.0,64.0
2431,76.0,0,150,1.0,64.0
2432,72.0,0,150,7.0,64.0
2433,72.0,0,150,1.0,64.0
2434,36.0,0,150,12.0,64.0
2435,48.0,0,150,4.0,64.0
2436,88.0,0,150,0.0,64.0
2437,64.0,0,150,7.0,64.0
2438,67.0,108,60,3.0,64.0
2439,76.0,0,60,13.0,64.0
2440,65.0,84,60,3.0,64.0
2441,72.0,12,60,13.0,64.0
2442,76.0,0,60,13.0,64.0
2443,72.0,12,60,13.0,64.0
2444,64.0,120,60,3.0,64.0
2445,62.0,36,60,3.0,64.0
2446,76.0,84,90,13.0,64.0
2447,72.0,0,90,13.0,64.0
2448,60.0,120,60,3.0,64.0
2449,48.0,0,90,6.0,64.0
2450,59.0,36,60,3.0,64.0
2451,72.0,0,90,13.0,64.0
2452,76.0,84,90,13.0,64.0
2453,48.0,84,90,6.0,64.0
2454,57.0,36,60,3.0,64.0
2455,76.0,0,150,1.0,64.0
2456,48.0,24,390,6.0,64.0
2457,67.0,0,150,8.0,64.0
2458,55.0,0,150,8.0,64.0
2459,72.0,0,150,1.0,64.0
2460,60.0,36,150,4.0,64.0
2461,84.0,0,150,0.0,64.0
2462,48.0,0,150,4.0,64.0
2463,64.0,0,150,4.0,64.0
2464,55.0,36,60,3.0,64.0
2465,88.0,0,150,0.0,64.0
2466,72.0,0,150,2.0,64.0
2467,76.0,0,90,13.0,64.0
2468,76.0,0,150,2.0,64.0
2469,64.0,0,150,7.0,64.0
2470,76.0,0,150,7.0,64.0
2471,36.0,0,150,12.0,64.0
2472,72.0,48,90,13.0,64.0
2473,84.0,0,150,7.0,64.0
2474,48.0,0,150,11.0,64.0
2475,60.0,0,150,10.0,64.0
2476,53.0,108,60,3.0,64.0
2477,76.0,0,60,13.0,64.0
2478,79.0,12,60,13.0,64.0
2479,52.0,84,60,3.0,64.0
2480,79.0,0,60,13.0,64.0
2481,50.0,120,60,3.0,64.0
2482,76.0,12,60,13.0,64.0
2483,76.0,0,90,13.0,64.0
2484,48.0,36,60,3.0,64.0
2485,79.0,84,90,13.0,64.0
2486,50.0,120,60,3.0,64.0
2487,76.0,0,90,13.0,64.0
2488,48.0,84,90,6.0,64.0
2489,79.0,0,90,13.0,64.0
2490,52.0,36,60,3.0,64.0
2491,48.0,84,90,6.0,64.0
2492,48.0,36,60,3.0,64.0
2493,77.0,0,150,2.0,64.0
2494,77.0,0,150,7.0,64.0
2495,55.0,0,150,10.0,64.0
2496,74.0,0,150,2.0,64.0
2497,43.0,36,390,6.0,64.0
2498,62.0,0,150,4.0,64.0
2499,65.0,0,150,4.0,64.0
2500,67.0,0,150,8.0,64.0
2501,55.0,0,150,8.0,64.0
2502,47.0,0,150,11.0,64.0
2503,74.0,0,150,10.0,64.0
2504,35.0,0,150,12.0,64.0
2505,47.0,36,60,3.0,64.0
2506,43.0,0,150,4.0,64.0
2507,89.0,0,150,0.0,64.0
2508,86.0,0,150,7.0,64.0
2509,79.0,0,90,13.0,64.0
2510,74.0,0,150,1.0,64.0
2511,77.0,0,150,1.0,64.0
2512,65.0,0,150,10.0,64.0
2513,86.0,36,150,0.0,64.0
2514,74.0,48,90,13.0,64.0
2515,43.0,120,60,3.0,64.0
2516,77.0,48,90,13.0,64.0
2517,74.0,0,90,13.0,64.0
2518,45.0,36,60,3.0,64.0
2519,47.0,120,60,3.0,64.0
2520,48.0,0,150,11.0,64.0
2521,48.0,36,390,6.0,64.0
2522,48.0,36,60,3.0,64.0
2523,36.0,0,150,12.0,64.0
2524,76.0,0,150,2.0,64.0
2525,64.0,0,150,10.0,64.0
2526,72.0,36,150,10.0,64.0
2527,84.0,0,150,0.0,64.0
2528,88.0,0,150,0.0,64.0
2529,72.0,0,150,1.0,64.0
2530,72.0,0,150,2.0,64.0
2531,76.0,0,150,1.0,64.0
2532,74.0,0,90,13.0,64.0
2533,77.0,48,90,13.0,64.0
2534,76.0,0,150,7.0,64.0
2535,55.0,0,150,8.0,64.0
2536,67.0,0,150,8.0,64.0
2537,60.0,0,150,4.0,64.0
2538,48.0,0,150,4.0,64.0
2539,55.0,0,150,10.0,64.0
2540,64.0,0,150,4.0,64.0
2541,84.0,0,150,7.0,64.0
2542,50.0,120,60,3.0,64.0
2543,76.0,0,90,13.0,64.0
2544,52.0,36,60,3.0,64.0
2545,72.0,48,90,13.0,64.0
2546,53.0,120,60,3.0,64.0
2547,67.0,0,150,8.0,64.0
2548,43.0,108,180,6.0,64.0
2549,83.0,0,150,7.0,64.0
2550,71.0,0,150,1.0,64.0
2551,74.0,0,150,7.0,64.0
2552,55.0,36,150,8.0,64.0
2553,74.0,0,150,1.0,64.0
2554,74.0,0,150,2.0,64.0
2555,43.0,0,150,11.0,64.0
2556,55.0,84,60,3.0,64.0
2557,71.0,0,150,10.0,64.0
2558,55.0,0,150,10.0,64.0
2559,55.0,0,150,4.0,64.0
2560,67.0,84,570,13.0,64.0
2561,74.0,0,570,13.0,64.0
2562,83.0,0,150,0.0,64.0
2563,86.0,0,150,0.0,64.0
2564,71.0,0,150,2.0,64.0
2565,62.0,0,150,10.0,64.0
2566,43.0,0,150,4.0,64.0
2567,62.0,0,150,4.0,64.0
2568,31.0,0,150,12.0,64.0
2569,57.0,12,60,3.0,64.0
2570,43.0,84,90,6.0,64.0
2571,59.0,36,60,3.0,64.0
2572,60.0,36,60,3.0,64.0
2573,43.0,84,90,6.0,64.0
2574,62.0,36,60,3.0,64.0
2575,43.0,108,180,6.0,64.0
2576,60.0,12,60,3.0,64.0
2577,43.0,96,180,6.0,64.0
2578,59.0,120,60,3.0,64.0
2579,57.0,12,60,3.0,64.0
2580,83.0,0,150,0.0,64.0
2581,86.0,0,150,0.0,64.0
2582,31.0,0,150,12.0,64.0
2583,55.0,96,60,3.0,64.0
2584,83.0,0,150,7.0,64.0
2585,43.0,0,150,11.0,64.0
2586,74.0,0,150,2.0,64.0
2587,71.0,24,150,1.0,64.0
2588,62.0,0,150,4.0,64.0
2589,55.0,0,150,8.0,64.0
2590,67.0,0,150,8.0,64.0
2591,74.0,0,150,7.0,64.0
2592,43.0,24,390,6.0,64.0
2593,71.0,0,150,10.0,64.0
2594,55.0,0,150,10.0,64.0
2595,62.0,0,150,10.0,64.0
2596,71.0,0,150,2.0,64.0
2597,43.0,0,390,14.0,64.0
2598,55.0,0,150,4.0,64.0
2599,74.0,0,150,1.0,64.0
2600,57.0,120,60,3.0,64.0
2601,67.0,0,60,5.0,64.0
2602,74.0,96,60,5.0,64.0
2603,59.0,0,60,3.0,64.0
2604,67.0,0,60,5.0,64.0
2605,74.0,0,60,5.0,64.0
2606,60.0,120,60,3.0,64.0
2607,62.0,48,60,3.0,64.0
2608,67.0,72,90,5.0,64.0
2609,74.0,0,90,5.0,64.0
2610,60.0,120,60,3.0,64.0
2611,76.0,72,90,5.0,64.0
2612,72.0,0,90,5.0,64.0
2613,59.0,48,60,3.0,64.0
2614,57.0,120,60,3.0,64.0
2615,74.0,0,570,5.0,64.0
2616,55.0,120,60,3.0,64.0
2617,77.0,72,570,5.0,64.0
2618,53.0,120,60,3.0,64.0
2619,43.0,72,90,14.0,64.0
2620,52.0,48,60,3.0,64.0
2621,50.0,48,60,3.0,64.0
2622,43.0,72,90,14.0,64.0
2623,48.0,48,60,3.0,64.0
2624,43.0,96,180,14.0,64.0
2625,47.0,24,60,3.0,64.0
2626,43.0,96,180,14.0,64.0
2627,45.0,120,60,3.0,64.0
2628,43.0,24,60,3.0,64.0
2629,48.0,96,60,3.0,64.0
2630,84.0,0,150,0.0,64.0
2631,60.0,0,150,4.0,64.0
2632,64.0,0,150,4.0,64.0
2633,88.0,24,150,0.0,64.0
2634,55.0,0,150,8.0,64.0
2635,64.0,0,150,10.0,64.0
2636,72.0,0,150,10.0,64.0
2637,55.0,0,150,10.0,64.0
2638,76.0,0,150,1.0,64.0
2639,72.0,0,150,1.0,64.0
2640,48.0,24,390,14.0,64.0
2641,76.0,0,150,2.0,64.0
2642,84.0,0,150,7.0,64.0
2643,76.0,0,150,7.0,64.0
2644,48.0,0,150,11.0,64.0
2645,67.0,0,150,8.0,64.0
2646,36.0,0,150,12.0,64.0
2647,72.0,0,150,2.0,64.0
2648,50.0,120,60,3.0,64.0
2649,72.0,0,60,5.0,64.0
2650,52.0,96,60,3.0,64.0
2651,76.0,0,60,5.0,64.0
2652,72.0,0,60,5.0,64.0
2653,76.0,0,60,5.0,64.0
2654,53.0,120,60,3.0,64.0
2655,55.0,48,60,3.0,64.0
2656,76.0,0,90,5.0,64.0
2657,72.0,72,90,5.0,64.0
2658,53.0,120,60,3.0,64.0
2659,74.0,0,90,5.0,64.0
2660,77.0,72,90,5.0,64.0
2661,52.0,48,60,3.0,64.0
2662,50.0,120,60,3.0,64.0
2663,76.0,72,570,5.0,64.0
2664,79.0,0,570,5.0,64.0
2665,48.0,120,60,3.0,64.0
2666,50.0,120,60,3.0,64.0
2667,48.0,72,90,14.0,64.0
2668,52.0,48,60,3.0,64.0
2669,48.0,72,90,14.0,64.0
2670,53.0,48,60,3.0,64.0
2671,48.0,96,180,14.0,64.0
2672,55.0,48,60,3.0,64.0
2673,57.0,24,60,3.0,64.0
2674,59.0,120,60,3.0,64.0
2675,48.0,96,180,14.0,64.0
2676,60.0,24,60,3.0,64.0
2677,72.0,0,150,10.0,64.0
2678,48.0,0,150,11.0,64.0
2679,64.0,0,150,10.0,64.0
2680,55.0,0,150,10.0,64.0
2681,60.0,0,150,4.0,64.0
2682,48.0,24,390,14.0,64.0
2683,84.0,0,150,7.0,64.0
2684,88.0,0,150,0.0,64.0
2685,84.0,0,150,0.0,64.0
2686,72.0,24,150,2.0,64.0
2687,76.0,0,150,2.0,64.0
2688,64.0,0,150,4.0,64.0
2689,76.0,0,90,5.0,64.0
2690,76.0,0,150,7.0,64.0
2691,79.0,48,90,5.0,64.0
2692,36.0,0,150,12.0,64.0
2693,48.0,48,60,3.0,64.0
2694,76.0,0,150,1.0,64.0
2695,72.0,0,150,1.0,64.0
2696,67.0,0,150,8.0,64.0
2697,55.0,0,150,8.0,64.0
2698,60.0,120,60,3.0,64.0
2699,72.0,0,60,5.0,64.0
2700,76.0,0,60,5.0,64.0
2701,59.0,96,60,3.0,64.0
2702,57.0,120,60,3.0,64.0
2703,76.0,0,60,5.0,64.0
2704,72.0,0,60,5.0,64.0
2705,72.0,72,90,5.0,64.0
2706,76.0,0,90,5.0,64.0
2707,55.0,48,60,3.0,64.0
2708,60.0,120,60,3.0,64.0
2709,72.0,0,90,5.0,64.0
2710,48.0,0,90,14.0,64.0
2711,59.0,48,60,3.0,64.0
2712,76.0,72,90,5.0,64.0
2713,48.0,72,90,14.0,64.0
2714,57.0,48,60,3.0,64.0
2715,52.0,0,150,4.0,64.0
2716,67.0,0,150,8.0,64.0
2717,72.0,0,90,5.0,64.0
2718,76.0,24,90,5.0,64.0
2719,76.0,0,150,7.0,64.0
2720,84.0,0,150,7.0,64.0
2721,72.0,0,150,1.0,64.0
2722,64.0,0,150,1.0,64.0
2723,48.0,0,150,11.0,64.0
2724,36.0,0,150,12.0,64.0
2725,60.0,0,150,4.0,64.0
2726,55.0,0,150,10.0,64.0
2727,72.0,0,150,10.0,64.0
2728,55.0,0,150,8.0,64.0
2729,64.0,24,120,2.0,64.0
2730,55.0,48,60,3.0,64.0
2731,76.0,0,150,0.0,64.0
2732,84.0,24,150,0.0,64.0
2733,48.0,24,390,14.0,64.0
2734,64.0,0,150,10.0,64.0
2735,72.0,0,150,2.0,64.0
2736,57.0,120,60,3.0,64.0
2737,64.0,0,60,5.0,64.0
2738,59.0,96,60,3.0,64.0
2739,72.0,0,60,5.0,64.0
2740,64.0,0,60,5.0,64.0
2741,72.0,120,60,5.0,64.0
2742,60.0,0,60,3.0,64.0
2743,62.0,48,60,3.0,64.0
2744,72.0,72,90,5.0,64.0
2745,64.0,0,90,5.0,64.0
2746,64.0,120,60,3.0,64.0
2747,48.0,0,90,14.0,64.0
2748,62.0,48,60,3.0,64.0
2749,64.0,72,90,5.0,64.0
2750,72.0,0,90,5.0,64.0
2751,60.0,48,60,3.0,64.0
2752,48.0,72,90,14.0,64.0
2753,74.0,0,150,2.0,64.0
2754,77.0,0,150,7.0,64.0
2755,86.0,24,150,7.0,64.0
2756,74.0,0,390,5.0,64.0
2757,59.0,96,60,3.0,64.0
2758,67.0,0,150,8.0,64.0
2759,55.0,0,150,8.0,64.0
2760,31.0,0,150,12.0,64.0
2761,62.0,0,150,4.0,64.0
2762,55.0,0,150,4.0,64.0
2763,86.0,0,150,0.0,64.0
2764,74.0,0,150,1.0,64.0
2765,43.0,0,150,11.0,64.0
2766,43.0,24,390,14.0,64.0
2767,71.0,0,150,10.0,64.0
2768,55.0,0,150,10.0,64.0
2769,62.0,0,150,10.0,64.0
2770,83.0,0,150,0.0,64.0
2771,71.0,0,150,2.0,64.0
2772,71.0,0,150,1.0,64.0
2773,67.0,0,390,5.0,64.0
2774,60.0,120,60,3.0,64.0
2775,62.0,96,60,3.0,64.0
2776,64.0,120,60,3.0,64.0
2777,86.0,0,150,7.0,64.0
2778,77.0,0,150,7.0,64.0
2779,65.0,96,60,3.0,64.0
2780,55.0,0,150,4.0,64.0
2781,71.0,0,150,10.0,64.0
2782,55.0,0,150,10.0,64.0
2783,74.0,0,150,1.0,64.0
2784,74.0,0,150,2.0,64.0
2785,62.0,0,150,4.0,64.0
2786,71.0,0,150,1.0,64.0
2787,86.0,0,150,0.0,64.0
2788,55.0,0,150,8.0,64.0
2789,67.0,0,150,8.0,64.0
2790,71.0,24,150,2.0,64.0
2791,83.0,0,150,0.0,64.0
2792,62.0,0,150,10.0,64.0
2793,43.0,0,150,11.0,64.0
2794,43.0,120,300,14.0,64.0
2795,74.0,0,150,5.0,64.0
2796,67.0,0,150,5.0,64.0
2797,31.0,0,150,12.0,64.0
2798,55.0,120,60,3.0,64.0
2799,57.0,0,60,3.0,64.0
2800,43.0,72,90,14.0,64.0
2801,74.0,0,60,5.0,64.0
2802,59.0,0,60,3.0,64.0
2803,67.0,48,60,5.0,64.0
2804,84.0,0,150,0.0,64.0
2805,84.0,0,150,7.0,64.0
2806,76.0,0,150,7.0,64.0
2807,72.0,0,150,1.0,64.0
2808,52.0,0,150,4.0,64.0
2809,48.0,0,150,11.0,64.0
2810,64.0,0,150,10.0,64.0
2811,72.0,0,150,2.0,64.0
2812,60.0,0,150,4.0,64.0
2813,55.0,0,150,10.0,64.0
2814,48.0,96,180,14.0,64.0
2815,76.0,24,150,0.0,64.0
2816,72.0,72,570,5.0,64.0
2817,67.0,0,150,8.0,64.0
2818,55.0,0,150,8.0,64.0
2819,64.0,0,570,5.0,64.0
2820,72.0,0,150,10.0,64.0
2821,60.0,96,60,3.0,64.0
2822,64.0,0,150,1.0,64.0
2823,36.0,0,150,12.0,64.0
2824,59.0,24,60,3.0,64.0
2825,48.0,72,90,14.0,64.0
2826,57.0,48,60,3.0,64.0
2827,48.0,72,90,14.0,64.0
2828,55.0,48,60,3.0,64.0
2829,53.0,48,60,3.0,64.0
2830,48.0,96,180,14.0,64.0
2831,52.0,24,60,3.0,64.0
2832,48.0,96,180,14.0,64.0
2833,50.0,120,60,3.0,64.0
2834,48.0,24,60,3.0,64.0
2835,55.0,0,150,10.0,64.0
2836,83.0,0,150,0.0,64.0
2837,86.0,0,150,0.0,64.0
2838,43.0,24,150,11.0,64.0
2839,71.0,0,150,2.0,64.0
2840,43.0,0,390,6.0,64.0
2841,71.0,0,150,1.0,64.0
2842,74.0,0,150,1.0,64.0
2843,62.0,0,150,10.0,64.0
2844,74.0,0,150,2.0,64.0
2845,43.0,96,60,3.0,64.0
2846,55.0,0,150,8.0,64.0
2847,67.0,0,150,8.0,64.0
2848,83.0,0,150,7.0,64.0
2849,74.0,0,150,7.0,64.0
2850,43.0,24,390,14.0,64.0
2851,62.0,0,150,4.0,64.0
2852,31.0,0,150,12.0,64.0
2853,71.0,0,150,10.0,64.0
2854,55.0,0,150,4.0,64.0
2855,55.0,120,60,3.0,64.0
2856,53.0,96,60,3.0,64.0
2857,67.0,0,60,13.0,64.0
2858,74.0,0,60,13.0,64.0
2859,74.0,0,60,13.0,64.0
2860,67.0,0,60,13.0,64.0
2861,52.0,120,60,3.0,64.0
2862,74.0,72,90,13.0,64.0
2863,67.0,0,90,13.0,64.0
2864,50.0,48,60,3.0,64.0
2865,48.0,120,60,3.0,64.0
2866,72.0,0,90,13.0,64.0
2867,47.0,48,60,3.0,64.0
2868,76.0,72,90,13.0,64.0
2869,45.0,120,60,3.0,64.0
2870,77.0,72,570,13.0,64.0
2871,74.0,0,570,13.0,64.0
2872,43.0,120,60,3.0,64.0
2873,45.0,120,60,3.0,64.0
2874,47.0,48,60,3.0,64.0
2875,43.0,72,90,6.0,64.0
2876,43.0,72,90,6.0,64.0
2877,48.0,48,60,3.0,64.0
2878,43.0,96,180,6.0,64.0
2879,50.0,48,60,3.0,64.0
2880,52.0,24,60,3.0,64.0
2881,53.0,120,60,3.0,64.0
2882,43.0,96,180,6.0,64.0
2883,55.0,24,60,3.0,64.0
2884,88.0,0,150,0.0,64.0
2885,76.0,0,150,1.0,64.0
2886,72.0,0,150,1.0,64.0
2887,72.0,0,150,2.0,64.0
2888,76.0,0,150,2.0,64.0
2889,67.0,0,150,8.0,64.0
2890,55.0,0,150,8.0,64.0
2891,76.0,0,150,7.0,64.0
2892,84.0,0,150,7.0,64.0
2893,36.0,0,150,12.0,64.0
2894,48.0,24,390,6.0,64.0
2895,48.0,0,150,11.0,64.0
2896,48.0,96,60,3.0,64.0
2897,60.0,0,150,4.0,64.0
2898,64.0,24,150,4.0,64.0
2899,84.0,0,150,0.0,64.0
2900,55.0,0,150,10.0,64.0
2901,72.0,0,150,10.0,64.0
2902,64.0,0,150,10.0,64.0
2903,60.0,120,60,3.0,64.0
2904,59.0,96,60,3.0,64.0
2905,72.0,0,60,13.0,64.0
2906,76.0,0,60,13.0,64.0
2907,57.0,0,60,3.0,64.0
2908,72.0,0,60,13.0,64.0
2909,76.0,120,60,13.0,64.0
2910,55.0,48,60,3.0,64.0
2911,72.0,0,90,13.0,64.0
2912,76.0,72,90,13.0,64.0
2913,53.0,120,60,3.0,64.0
2914,77.0,72,90,13.0,64.0
2915,74.0,0,90,13.0,64.0
2916,52.0,48,60,3.0,64.0
2917,50.0,120,60,3.0,64.0
2918,79.0,72,570,13.0,64.0
2919,48.0,120,60,3.0,64.0
2920,76.0,0,570,13.0,64.0
2921,50.0,120,60,3.0,64.0
2922,52.0,48,60,3.0,64.0
2923,48.0,72,90,6.0,64.0
2924,48.0,72,90,6.0,64.0
2925,53.0,48,60,3.0,64.0
2926,48.0,96,180,6.0,64.0
2927,55.0,48,60,3.0,64.0
2928,57.0,24,60,3.0,64.0
2929,48.0,96,180,6.0,64.0
2930,59.0,120,60,3.0,64.0
2931,60.0,24,60,3.0,64.0
2932,76.0,0,150,2.0,64.0
2933,36.0,0,150,12.0,64.0
2934,84.0,0,150,0.0,64.0
2935,72.0,0,150,2.0,64.0
2936,64.0,0,150,10.0,64.0
2937,72.0,0,150,10.0,64.0
2938,55.0,0,150,10.0,64.0
2939,88.0,0,150,0.0,64.0
2940,48.0,0,150,11.0,64.0
2941,55.0,48,60,3.0,64.0
2942,84.0,24,150,7.0,64.0
2943,76.0,0,90,13.0,64.0
2944,79.0,48,90,13.0,64.0
2945,72.0,0,150,1.0,64.0
2946,76.0,0,150,7.0,64.0
2947,67.0,0,150,8.0,64.0
2948,64.0,0,150,4.0,64.0
2949,55.0,0,150,8.0,64.0
2950,48.0,24,390,6.0,64.0
2951,76.0,0,150,1.0,64.0
2952,60.0,0,150,4.0,64.0
2953,60.0,120,60,3.0,64.0
2954,59.0,0,60,3.0,64.0
2955,72.0,0,60,13.0,64.0
2956,76.0,96,60,13.0,64.0
2957,76.0,120,60,13.0,64.0
2958,72.0,0,60,13.0,64.0
2959,57.0,0,60,3.0,64.0
2960,76.0,72,90,13.0,64.0
2961,72.0,0,90,13.0,64.0
2962,55.0,48,60,3.0,64.0
2963,60.0,120,60,3.0,64.0
2964,76.0,0,90,13.0,64.0
2965,59.0,48,60,3.0,64.0
2966,72.0,72,90,13.0,64.0
2967,48.0,0,90,6.0,64.0
2968,48.0,72,90,6.0,64.0
2969,57.0,48,60,3.0,64.0
2970,55.0,48,60,3.0,64.0
2971,72.0,0,150,1.0,64.0
2972,72.0,24,90,13.0,64.0
2973,67.0,24,150,8.0,64.0
2974,55.0,0,150,8.0,64.0
2975,72.0,0,150,10.0,64.0
2976,48.0,0,150,11.0,64.0
2977,76.0,0,90,13.0,64.0
2978,55.0,0,150,10.0,64.0
2979,64.0,0,150,1.0,64.0
2980,64.0,0,150,10.0,64.0
2981,36.0,0,150,12.0,64.0
2982,72.0,0,150,2.0,64.0
2983,60.0,0,150,4.0,64.0
2984,52.0,0,150,4.0,64.0
2985,76.0,0,150,7.0,64.0
2986,84.0,0,150,7.0,64.0
2987,64.0,24,120,2.0,64.0
2988,76.0,0,150,0.0,64.0
2989,84.0,0,150,0.0,64.0
2990,48.0,24,390,6.0,64.0
2991,57.0,120,60,3.0,64.0
2992,59.0,0,60,3.0,64.0
2993,64.0,96,60,13.0,64.0
2994,72.0,0,60,13.0,64.0
2995,64.0,0,60,13.0,64.0
2996,72.0,0,60,13.0,64.0
2997,60.0,120,60,3.0,64.0
2998,72.0,72,90,13.0,64.0
2999,62.0,48,60,3.0,64.0
3000,64.0,0,90,13.0,64.0
3001,64.0,120,60,3.0,64.0
3002,64.0,0,90,13.0,64.0
3003,72.0,72,90,13.0,64.0
3004,62.0,48,60,3.0,64.0
3005,48.0,0,90,6.0,64.0
3006,48.0,72,90,6.0,64.0
3007,60.0,48,60,3.0,64.0
3008,43.0,0,390,6.0,64.0
3009,31.0,0,150,12.0,64.0
3010,77.0,0,150,7.0,64.0
3011,55.0,0,150,4.0,64.0
3012,59.0,96,60,3.0,64.0
3013,55.0,0,150,10.0,64.0
3014,62.0,0,150,10.0,64.0
3015,43.0,0,150,11.0,64.0
3016,86.0,0,150,7.0,64.0
3017,71.0,0,150,10.0,64.0
3018,86.0,0,150,0.0,64.0
3019,62.0,0,150,4.0,64.0
3020,74.0,0,150,1.0,64.0
3021,74.0,0,150,2.0,64.0
3022,71.0,0,150,2.0,64.0
3023,55.0,0,150,8.0,64.0
3024,67.0,0,150,8.0,64.0
3025,83.0,0,150,0.0,64.0
3026,67.0,0,390,13.0,64.0
3027,71.0,24,150,1.0,64.0
3028,74.0,24,390,13.0,64.0
3029,60.0,120,60,3.0,64.0
3030,62.0,96,60,3.0,64.0
3031,64.0,120,60,3.0,64.0
3032,62.0,0,150,10.0,64.0
3033,43.0,120,300,6.0,64.0
3034,71.0,0,150,10.0,64.0
3035,55.0,24,150,10.0,64.0
3036,62.0,0,150,4.0,64.0
3037,67.0,0,150,13.0,64.0
3038,65.0,96,60,3.0,64.0
3039,77.0,0,150,7.0,64.0
3040,86.0,0,150,7.0,64.0
3041,74.0,0,150,2.0,64.0
3042,74.0,0,150,1.0,64.0
3043,71.0,0,150,1.0,64.0
3044,74.0,0,150,13.0,64.0
3045,71.0,0,150,2.0,64.0
3046,55.0,0,150,4.0,64.0
3047,43.0,0,150,11.0,64.0
3048,55.0,0,150,8.0,64.0
3049,67.0,0,150,8.0,64.0
3050,31.0,0,150,12.0,64.0
3051,83.0,0,150,0.0,64.0
3052,86.0,0,150,0.0,64.0
3053,55.0,120,60,3.0,64.0
3054,57.0,0,60,3.0,64.0
3055,74.0,48,60,13.0,64.0
3056,67.0,0,60,13.0,64.0
3057,59.0,0,60,3.0,64.0
3058,43.0,72,90,6.0,64.0
3059,64.0,0,150,1.0,64.0
3060,55.0,0,150,8.0,64.0
3061,84.0,0,150,7.0,64.0
3062,72.0,0,150,1.0,64.0
3063,60.0,96,60,3.0,64.0
3064,67.0,0,150,8.0,64.0
3065,48.0,96,180,6.0,64.0
3066,76.0,0,150,7.0,64.0
3067,52.0,0,150,4.0,64.0
3068,76.0,0,150,0.0,64.0
3069,72.0,0,150,2.0,64.0
3070,64.0,0,150,2.0,64.0
3071,55.0,0,150,10.0,64.0
3072,72.0,0,150,10.0,64.0
3073,64.0,0,150,10.0,64.0
3074,48.0,0,150,11.0,64.0
3075,72.0,72,570,13.0,64.0
3076,60.0,0,150,4.0,64.0
3077,36.0,0,150,12.0,64.0
3078,84.0,24,150,0.0,64.0
3079,64.0,0,570,13.0,64.0
3080,55.0,24,60,3.0,64.0
3081,57.0,120,60,3.0,64.0
3082,59.0,120,60,3.0,64.0
3083,60.0,48,60,3.0,64.0
3084,62.0,120,60,3.0,64.0
3085,64.0,120,60,3.0,64.0
3086,60.0,120,60,3.0,64.0
3087,59.0,96,60,3.0,64.0
3088,43.0,0,390,14.0,64.0
3089,67.0,0,390,5.0,64.0
3090,55.0,24,390,10.0,64.0
3091,31.0,0,390,12.0,64.0
3092,55.0,24,150,4.0,64.0
3093,62.0,0,150,4.0,64.0
3094,74.0,0,390,8.0,64.0
3095,65.0,0,390,7.0,64.0
3096,74.0,0,390,5.0,64.0
3097,43.0,0,390,11.0,64.0
3098,60.0,120,60,3.0,64.0
3099,62.0,96,60,3.0,64.0
3100,64.0,120,60,3.0,64.0
3101,31.0,0,150,12.0,64.0
3102,55.0,0,150,4.0,64.0
3103,67.0,0,150,5.0,64.0
3104,74.0,24,150,5.0,64.0
3105,62.0,0,150,4.0,64.0
3106,43.0,0,300,14.0,64.0
3107,65.0,96,60,3.0,64.0
3108,65.0,0,150,7.0,64.0
3109,55.0,0,150,10.0,64.0
3110,74.0,0,150,8.0,64.0
3111,43.0,0,150,11.0,64.0
3112,55.0,120,60,3.0,64.0
3113,57.0,120,60,3.0,64.0
3114,59.0,48,60,3.0,64.0
3115,65.0,0,60,7.0,64.0
3116,74.0,0,60,5.0,64.0
3117,67.0,0,60,5.0,64.0
3118,31.0,0,60,12.0,64.0
3119,43.0,0,60,11.0,64.0
3120,74.0,0,60,8.0,64.0
3121,55.0,0,60,10.0,64.0
3122,43.0,72,90,14.0,64.0
3123,36.0,0,570,12.0,64.0
3124,64.0,0,570,7.0,64.0
3125,60.0,24,150,4.0,64.0
3126,52.0,0,150,4.0,64.0
3127,60.0,96,60,3.0,64.0
3128,48.0,96,180,14.0,64.0
3129,64.0,0,570,5.0,64.0
3130,48.0,0,570,11.0,64.0
3131,72.0,0,570,5.0,64.0
3132,72.0,72,570,8.0,64.0
3133,55.0,0,570,10.0,64.0
3134,59.0,24,60,3.0,64.0
3135,57.0,120,60,3.0,64.0
3136,55.0,120,60,3.0,64.0
3137,53.0,48,60,3.0,64.0
3138,52.0,120,60,3.0,64.0
3139,50.0,120,60,3.0,64.0
3140,48.0,456,60,3.0,64.0
3141,43.0,384,390,3.0,64.0
3142,55.0,0,390,4.0,64.0
3143,62.0,0,390,4.0,64.0
3144,62.0,120,300,4.0,64.0
3145,55.0,0,300,4.0,64.0
3146,55.0,456,60,4.0,64.0
3147,62.0,0,60,4.0,64.0
3148,62.0,0,390,4.0,64.0
3149,55.0,480,390,4.0,64.0
3150,55.0,0,390,4.0,64.0
3151,62.0,168,390,4.0,64.0
3152,59.0,240,60,10.0,64.0
3153,79.0,12,540,7.0,64.0
3154,55.0,0,60,11.0,64.0
3155,55.0,24,5190,4.0,64.0
3156,62.0,24,4230,4.0,64.0
3157,43.0,0,60,12.0,64.0
3158,43.0,0,60,12.0,64.0
3159,55.0,228,60,11.0,64.0
3160,59.0,0,60,10.0,64.0
3161,43.0,108,60,12.0,64.0
3162,55.0,0,60,11.0,64.0
3163,59.0,0,60,10.0,64.0
3164,83.0,120,60,7.0,64.0
3165,59.0,108,60,10.0,64.0
3166,43.0,0,60,12.0,64.0
3167,55.0,0,60,11.0,64.0
3168,81.0,12,60,7.0,64.0
3169,79.0,120,60,7.0,64.0
3170,43.0,0,60,12.0,64.0
3171,60.0,0,60,10.0,64.0
3172,57.0,0,60,10.0,64.0
3173,55.0,108,60,11.0,64.0
3174,78.0,12,60,7.0,64.0
3175,79.0,120,60,7.0,64.0
3176,43.0,0,60,12.0,64.0
3177,60.0,108,60,10.0,64.0
3178,57.0,0,60,10.0,64.0
3179,81.0,12,60,7.0,64.0
3180,55.0,0,60,11.0,64.0
3181,83.0,120,60,7.0,64.0
3182,57.0,0,60,10.0,64.0
3183,55.0,0,60,11.0,64.0
3184,60.0,0,60,10.0,64.0
3185,43.0,108,60,12.0,64.0
3186,86.0,12,60,7.0,64.0
3187,84.0,120,60,7.0,64.0
3188,43.0,108,60,12.0,64.0
3189,60.0,0,60,10.0,64.0
3190,81.0,12,60,7.0,64.0
3191,55.0,0,60,11.0,64.0
3192,57.0,0,60,10.0,64.0
3193,86.0,120,60,7.0,64.0
3194,55.0,0,60,11.0,64.0
3195,43.0,0,60,12.0,64.0
3196,59.0,108,60,10.0,64.0
3197,86.0,12,60,7.0,64.0
3198,67.0,0,540,8.0,64.0
3199,86.0,120,60,7.0,64.0
3200,84.0,12,60,7.0,64.0
3201,55.0,108,60,11.0,64.0
3202,59.0,0,60,10.0,64.0
3203,43.0,0,60,12.0,64.0
3204,83.0,120,60,7.0,64.0
3205,59.0,0,60,10.0,64.0
3206,62.0,108,60,10.0,64.0
3207,81.0,12,60,7.0,64.0
3208,55.0,0,60,11.0,64.0
3209,43.0,0,60,12.0,64.0
3210,79.0,120,60,7.0,64.0
3211,71.0,0,60,8.0,64.0
3212,69.0,12,60,8.0,64.0
3213,62.0,0,60,10.0,64.0
3214,59.0,0,60,10.0,64.0
3215,78.0,0,60,7.0,64.0
3216,43.0,0,60,12.0,64.0
3217,55.0,108,60,11.0,64.0
3218,79.0,0,60,7.0,64.0
3219,67.0,120,60,8.0,64.0
3220,66.0,0,60,8.0,64.0
3221,55.0,108,60,11.0,64.0
3222,57.0,0,60,10.0,64.0
3223,60.0,0,60,10.0,64.0
3224,81.0,12,60,7.0,64.0
3225,43.0,0,60,12.0,64.0
3226,67.0,0,60,8.0,64.0
3227,79.0,120,60,7.0,64.0
3228,78.0,0,60,7.0,64.0
3229,69.0,12,60,8.0,64.0
3230,55.0,0,60,11.0,64.0
3231,43.0,108,60,12.0,64.0
3232,60.0,0,60,10.0,64.0
3233,57.0,0,60,10.0,64.0
3234,76.0,0,60,7.0,64.0
3235,71.0,120,60,8.0,64.0
3236,55.0,108,60,11.0,64.0
3237,43.0,0,60,12.0,64.0
3238,57.0,0,60,10.0,64.0
3239,60.0,0,60,10.0,64.0
3240,74.0,12,60,7.0,64.0
3241,74.0,120,60,7.0,64.0
3242,72.0,0,60,8.0,64.0
3243,57.0,0,60,10.0,64.0
3244,55.0,108,60,11.0,64.0
3245,76.0,12,60,7.0,64.0
3246,69.0,0,60,8.0,64.0
3247,60.0,0,60,10.0,64.0
3248,43.0,0,60,12.0,64.0
3249,74.0,0,60,8.0,64.0
3250,78.0,108,60,7.0,64.0
3251,79.0,12,60,7.0,64.0
3252,43.0,0,60,12.0,64.0
3253,55.0,0,60,11.0,64.0
3254,71.0,0,60,8.0,64.0
3255,74.0,12,60,1.0,64.0
3256,59.0,96,60,10.0,64.0
3257,74.0,108,60,8.0,64.0
3258,77.0,12,60,1.0,64.0
3259,83.0,0,60,7.0,64.0
3260,43.0,0,60,12.0,64.0
3261,72.0,0,60,8.0,64.0
3262,81.0,12,60,7.0,64.0
3263,76.0,12,60,1.0,64.0
3264,55.0,72,60,11.0,64.0
3265,67.0,0,60,10.0,64.0
3266,71.0,108,60,8.0,64.0
3267,79.0,0,60,7.0,64.0
3268,74.0,12,60,1.0,64.0
3269,81.0,0,60,7.0,64.0
3270,64.0,24,390,4.0,64.0
3271,55.0,0,60,11.0,64.0
3272,76.0,12,60,1.0,64.0
3273,67.0,96,60,10.0,64.0
3274,72.0,12,60,8.0,64.0
3275,43.0,0,60,12.0,64.0
3276,79.0,12,60,1.0,64.0
3277,84.0,0,60,7.0,64.0
3278,76.0,108,60,8.0,64.0
3279,77.0,12,60,1.0,64.0
3280,83.0,12,60,7.0,64.0
3281,55.0,0,60,11.0,64.0
3282,74.0,0,60,8.0,64.0
3283,43.0,0,60,12.0,64.0
3284,67.0,72,60,10.0,64.0
3285,81.0,0,60,7.0,64.0
3286,76.0,12,60,1.0,64.0
3287,72.0,108,60,8.0,64.0
3288,65.0,0,390,4.0,64.0
3289,77.0,12,60,1.0,64.0
3290,83.0,0,60,7.0,64.0
3291,74.0,12,60,8.0,64.0
3292,67.0,0,60,10.0,64.0
3293,43.0,0,60,12.0,64.0
3294,55.0,96,60,11.0,64.0
3295,77.0,108,60,8.0,64.0
3296,86.0,0,60,7.0,64.0
3297,81.0,12,60,1.0,64.0
3298,43.0,0,60,12.0,64.0
3299,84.0,0,60,7.0,64.0
3300,76.0,12,60,8.0,64.0
3301,55.0,72,60,11.0,64.0
3302,79.0,12,60,1.0,64.0
3303,67.0,0,60,10.0,64.0
3304,83.0,0,60,7.0,64.0
3305,74.0,108,60,8.0,64.0
3306,77.0,12,60,1.0,64.0
3307,76.0,12,60,1.0,64.0
3308,55.0,24,390,4.0,64.0
3309,81.0,0,60,7.0,64.0
3310,67.0,96,60,10.0,64.0
3311,43.0,0,60,12.0,64.0
3312,55.0,0,60,11.0,64.0
3313,72.0,12,60,8.0,64.0
3314,67.0,0,390,4.0,64.0
3315,79.0,0,60,7.0,64.0
3316,71.0,108,60,8.0,64.0
3317,74.0,12,60,1.0,64.0
3318,43.0,0,60,12.0,64.0
3319,76.0,12,60,1.0,64.0
3320,72.0,12,60,8.0,64.0
3321,55.0,0,60,11.0,64.0
3322,81.0,0,60,7.0,64.0
3323,67.0,72,60,10.0,64.0
3324,77.0,12,60,1.0,64.0
3325,74.0,108,60,8.0,64.0
3326,83.0,0,60,7.0,64.0
3327,84.0,96,60,7.0,64.0
3328,60.0,0,540,3.0,64.0
3329,72.0,0,960,5.0,64.0
3330,76.0,24,60,1.0,64.0
3331,67.0,0,60,10.0,64.0
3332,43.0,0,60,12.0,64.0
3333,60.0,48,960,5.0,64.0
3334,55.0,0,60,11.0,64.0
3335,76.0,0,60,8.0,64.0
3336,64.0,0,960,4.0,64.0
3337,60.0,0,960,4.0,64.0
3338,79.0,120,60,1.0,64.0
3339,55.0,96,60,11.0,64.0
3340,43.0,0,60,12.0,64.0
3341,64.0,0,60,7.0,64.0
3342,60.0,0,60,8.0,64.0
3343,77.0,24,60,1.0,64.0
3344,76.0,120,60,1.0,64.0
3345,43.0,0,60,12.0,64.0
3346,64.0,0,60,7.0,64.0
3347,60.0,96,60,8.0,64.0
3348,55.0,0,60,11.0,64.0
3349,74.0,24,60,1.0,64.0
3350,72.0,0,60,1.0,64.0
3351,64.0,120,60,3.0,64.0
3352,43.0,0,60,12.0,64.0
3353,64.0,0,60,7.0,64.0
3354,60.0,0,60,8.0,64.0
3355,55.0,96,60,11.0,64.0
3356,71.0,0,60,1.0,64.0
3357,62.0,24,60,3.0,64.0
3358,60.0,72,60,3.0,64.0
3359,72.0,0,60,1.0,64.0
3360,55.0,24,780,5.0,64.0
3361,59.0,24,60,3.0,64.0
3362,59.0,0,60,8.0,64.0
3363,74.0,0,60,1.0,64.0
3364,65.0,0,780,4.0,64.0
3365,55.0,0,60,11.0,64.0
3366,62.0,0,60,7.0,64.0
3367,65.0,96,60,7.0,64.0
3368,67.0,0,780,5.0,64.0
3369,43.0,0,60,12.0,64.0
3370,62.0,0,780,4.0,64.0
3371,60.0,0,60,3.0,64.0
3372,72.0,120,60,1.0,64.0
3373,59.0,96,60,8.0,64.0
3374,43.0,0,60,12.0,64.0
3375,55.0,0,60,11.0,64.0
3376,62.0,0,60,7.0,64.0
3377,65.0,0,60,7.0,64.0
3378,62.0,24,60,3.0,64.0
3379,71.0,0,60,1.0,64.0
3380,64.0,0,60,3.0,64.0
3381,69.0,120,60,1.0,64.0
3382,67.0,24,60,3.0,64.0
3383,67.0,0,60,1.0,64.0
3384,59.0,0,60,8.0,64.0
3385,55.0,0,60,11.0,64.0
3386,43.0,96,60,12.0,64.0
3387,65.0,0,60,7.0,64.0
3388,62.0,0,60,7.0,64.0
3389,65.0,0,60,3.0,64.0
3390,67.0,120,60,1.0,64.0
3391,69.0,0,60,1.0,64.0
3392,55.0,0,60,11.0,64.0
3393,62.0,96,60,7.0,64.0
3394,65.0,0,60,7.0,64.0
3395,62.0,0,60,3.0,64.0
3396,43.0,0,60,12.0,64.0
3397,59.0,0,60,8.0,64.0
3398,71.0,120,60,1.0,64.0
3399,67.0,0,60,3.0,64.0
3400,64.0,48,960,4.0,64.0
3401,60.0,0,960,4.0,64.0
3402,48.0,0,540,11.0,64.0
3403,67.0,0,4020,5.0,64.0
3404,55.0,96,4020,5.0,64.0
3405,55.0,0,60,10.0,64.0
3406,60.0,0,60,8.0,64.0
3407,64.0,96,60,7.0,64.0
3408,36.0,0,540,12.0,64.0
3409,67.0,0,60,3.0,64.0
3410,72.0,24,60,1.0,64.0
3411,67.0,0,60,3.0,64.0
3412,79.0,120,60,1.0,64.0
3413,65.0,24,60,3.0,64.0
3414,52.0,0,60,10.0,64.0
3415,67.0,96,60,7.0,64.0
3416,79.0,0,60,1.0,64.0
3417,48.0,0,60,10.0,64.0
3418,55.0,0,60,8.0,64.0
3419,79.0,120,60,1.0,64.0
3420,64.0,0,60,3.0,64.0
3421,55.0,96,60,8.0,64.0
3422,62.0,0,60,3.0,64.0
3423,67.0,0,60,7.0,64.0
3424,52.0,0,60,10.0,64.0
3425,79.0,24,60,1.0,64.0
3426,48.0,0,60,10.0,64.0
3427,60.0,0,60,3.0,64.0
3428,79.0,120,60,1.0,64.0
3429,52.0,0,60,11.0,64.0
3430,40.0,0,60,12.0,64.0
3431,55.0,0,60,8.0,64.0
3432,59.0,0,60,3.0,64.0
3433,79.0,0,60,1.0,64.0
3434,48.0,96,60,10.0,64.0
3435,52.0,0,60,10.0,64.0
3436,67.0,0,60,7.0,64.0
3437,38.0,24,60,12.0,64.0
3438,50.0,0,60,11.0,64.0
3439,48.0,0,60,11.0,64.0
3440,60.0,0,60,3.0,64.0
3441,36.0,72,60,12.0,64.0
3442,79.0,0,60,1.0,64.0
3443,79.0,0,60,1.0,64.0
3444,55.0,96,60,8.0,64.0
3445,47.0,24,60,11.0,64.0
3446,62.0,0,60,3.0,64.0
3447,50.0,0,60,10.0,64.0
3448,67.0,0,60,7.0,64.0
3449,35.0,0,60,12.0,64.0
3450,53.0,0,60,10.0,64.0
3451,62.0,0,780,4.0,64.0
3452,55.0,0,780,4.0,64.0
3453,79.0,0,60,1.0,64.0
3454,36.0,0,60,12.0,64.0
3455,48.0,120,60,11.0,64.0
3456,60.0,0,60,3.0,64.0
3457,59.0,0,60,3.0,64.0
3458,55.0,0,60,8.0,64.0
3459,67.0,96,60,7.0,64.0
3460,38.0,0,60,12.0,64.0
3461,50.0,0,60,10.0,64.0
3462,53.0,0,60,10.0,64.0
3463,50.0,24,60,11.0,64.0
3464,79.0,0,60,1.0,64.0
3465,40.0,0,60,12.0,64.0
3466,57.0,0,60,3.0,64.0
3467,79.0,120,60,1.0,64.0
3468,52.0,0,60,11.0,64.0
3469,79.0,0,60,1.0,64.0
3470,67.0,0,60,7.0,64.0
3471,55.0,0,60,11.0,64.0
3472,43.0,24,60,12.0,64.0
3473,55.0,0,60,3.0,64.0
3474,55.0,96,60,8.0,64.0
3475,55.0,120,60,3.0,64.0
3476,79.0,0,60,1.0,64.0
3477,41.0,0,60,12.0,64.0
3478,53.0,0,60,11.0,64.0
3479,67.0,96,60,7.0,64.0
3480,50.0,0,60,11.0,64.0
3481,57.0,0,60,3.0,64.0
3482,79.0,24,60,1.0,64.0
3483,55.0,0,60,8.0,64.0
3484,38.0,0,60,12.0,64.0
3485,55.0,0,60,11.0,64.0
3486,43.0,0,60,12.0,64.0
3487,79.0,0,60,1.0,64.0
3488,59.0,120,60,3.0,64.0
3489,52.0,0,60,11.0,64.0
3490,67.0,0,60,7.0,64.0
3491,60.0,24,60,3.0,64.0
3492,55.0,0,1980,4.0,64.0
3493,67.0,0,1980,4.0,64.0
3494,40.0,0,60,12.0,64.0
3495,55.0,0,60,3.0,64.0
3496,55.0,96,60,8.0,64.0
3497,79.0,0,60,1.0,64.0
3498,36.0,0,60,12.0,64.0
3499,48.0,0,60,11.0,64.0
3500,55.0,120,60,3.0,64.0
3501,79.0,0,60,1.0,64.0
3502,64.0,0,60,3.0,64.0
3503,62.0,0,60,3.0,64.0
3504,55.0,96,60,8.0,64.0
3505,55.0,24,60,3.0,64.0
3506,50.0,0,60,11.0,64.0
3507,79.0,0,60,1.0,64.0
3508,38.0,0,60,12.0,64.0
3509,67.0,0,60,7.0,64.0
3510,79.0,0,60,1.0,64.0
3511,60.0,0,60,3.0,64.0
3512,40.0,120,60,12.0,64.0
3513,52.0,0,60,11.0,64.0
3514,55.0,0,60,3.0,64.0
3515,67.0,0,60,7.0,64.0
3516,53.0,0,60,11.0,64.0
3517,55.0,0,60,3.0,64.0
3518,41.0,0,60,12.0,64.0
3519,55.0,96,60,8.0,64.0
3520,79.0,0,60,1.0,64.0
3521,62.0,24,60,3.0,64.0
3522,50.0,0,60,11.0,64.0
3523,38.0,120,60,12.0,64.0
3524,79.0,0,60,1.0,64.0
3525,65.0,0,60,3.0,64.0
3526,55.0,0,60,3.0,64.0
3527,52.0,0,60,11.0,64.0
3528,55.0,0,60,3.0,64.0
3529,64.0,0,60,3.0,64.0
3530,40.0,24,60,12.0,64.0
3531,55.0,0,60,8.0,64.0
3532,67.0,96,60,7.0,64.0
3533,79.0,0,60,1.0,64.0
3534,55.0,0,60,3.0,64.0
3535,62.0,120,60,3.0,64.0
3536,53.0,0,60,11.0,64.0
3537,79.0,0,60,1.0,64.0
3538,41.0,0,60,12.0,64.0
3539,43.0,0,60,12.0,64.0
3540,64.0,0,60,3.0,64.0
3541,55.0,24,60,3.0,64.0
3542,67.0,0,60,7.0,64.0
3543,55.0,96,60,8.0,64.0
3544,79.0,0,60,1.0,64.0
3545,55.0,0,60,11.0,64.0
3546,52.0,120,60,11.0,64.0
3547,40.0,0,60,12.0,64.0
3548,79.0,0,60,1.0,64.0
3549,67.0,0,60,3.0,64.0
3550,55.0,0,60,3.0,64.0
3551,53.0,0,60,11.0,64.0
3552,65.0,0,60,3.0,64.0
3553,55.0,0,60,3.0,64.0
3554,41.0,0,60,12.0,64.0
3555,55.0,0,60,8.0,64.0
3556,67.0,96,60,7.0,64.0
3557,79.0,24,60,1.0,64.0
3558,79.0,0,60,1.0,64.0
3559,64.0,0,60,3.0,64.0
3560,55.0,0,60,3.0,64.0
3561,43.0,120,60,12.0,64.0
3562,55.0,0,60,11.0,64.0
3563,67.0,0,60,7.0,64.0
3564,79.0,0,60,1.0,64.0
3565,57.0,24,60,3.0,64.0
3566,55.0,96,60,8.0,64.0
3567,53.0,0,60,11.0,64.0
3568,62.0,0,60,3.0,64.0
3569,41.0,0,60,12.0,64.0
3570,55.0,0,60,3.0,64.0
3571,52.0,120,60,11.0,64.0
3572,40.0,0,60,12.0,64.0
3573,79.0,0,60,1.0,64.0
3574,60.0,0,60,3.0,64.0
3575,79.0,0,60,1.0,64.0
3576,59.0,24,60,3.0,64.0
3577,53.0,0,60,3.0,64.0
3578,38.0,0,60,12.0,64.0
3579,67.0,96,60,7.0,64.0
3580,55.0,0,60,8.0,64.0
3581,50.0,0,60,11.0,64.0
3582,79.0,0,60,1.0,64.0
3583,60.0,0,60,3.0,64.0
3584,48.0,0,60,11.0,64.0
3585,36.0,0,60,12.0,64.0
3586,52.0,120,60,3.0,64.0
3587,31.0,0,540,12.0,64.0
3588,79.0,0,60,1.0,64.0
3589,67.0,0,540,7.0,64.0
3590,62.0,0,60,3.0,64.0
3591,55.0,0,540,8.0,64.0
3592,43.0,120,540,11.0,64.0
3593,59.0,120,60,3.0,64.0
3594,62.0,24,60,3.0,64.0
3595,62.0,0,60,4.0,64.0
3596,74.0,0,60,1.0,64.0
3597,86.0,0,60,0.0,64.0
3598,74.0,0,60,2.0,64.0
3599,74.0,0,60,1.0,64.0
3600,62.0,0,60,4.0,64.0
3601,84.0,0,60,0.0,64.0
3602,72.0,120,60,2.0,64.0
3603,60.0,0,60,3.0,64.0
3604,71.0,0,60,2.0,64.0
3605,74.0,0,60,1.0,64.0
3606,83.0,120,60,0.0,64.0
3607,62.0,0,60,4.0,64.0
3608,59.0,0,60,3.0,64.0
3609,74.0,0,60,1.0,64.0
3610,62.0,0,60,4.0,64.0
3611,69.0,0,60,2.0,64.0
3612,81.0,0,60,0.0,64.0
3613,57.0,0,60,3.0,64.0
3614,55.0,0,60,3.0,64.0
3615,47.0,0,60,11.0,64.0
3616,35.0,0,60,12.0,64.0
3617,62.0,120,60,4.0,64.0
3618,67.0,0,60,2.0,64.0
3619,74.0,0,60,1.0,64.0
3620,71.0,0,60,7.0,64.0
3621,59.0,0,60,8.0,64.0
3622,79.0,0,60,0.0,64.0
3623,45.0,0,60,11.0,64.0
3624,57.0,0,60,8.0,64.0
3625,69.0,0,60,7.0,64.0
3626,66.0,0,60,2.0,64.0
3627,33.0,0,60,12.0,64.0
3628,78.0,0,60,0.0,64.0
3629,74.0,120,60,1.0,64.0
3630,54.0,0,60,3.0,64.0
3631,62.0,0,60,4.0,64.0
3632,31.0,0,60,12.0,64.0
3633,67.0,0,60,2.0,64.0
3634,55.0,120,60,3.0,64.0
3635,62.0,0,60,4.0,64.0
3636,67.0,0,60,7.0,64.0
3637,43.0,0,60,11.0,64.0
3638,55.0,0,60,8.0,64.0
3639,74.0,0,60,1.0,64.0
3640,79.0,0,60,0.0,64.0
3641,57.0,0,60,3.0,64.0
3642,81.0,0,60,0.0,64.0
3643,62.0,0,60,4.0,64.0
3644,54.0,0,60,8.0,64.0
3645,74.0,0,60,1.0,64.0
3646,66.0,0,60,7.0,64.0
3647,69.0,0,60,2.0,64.0
3648,42.0,0,60,11.0,64.0
3649,30.0,120,60,12.0,64.0
3650,31.0,0,60,12.0,64.0
3651,43.0,0,60,11.0,64.0
3652,74.0,0,60,1.0,64.0
3653,55.0,0,60,8.0,64.0
3654,67.0,0,60,7.0,64.0
3655,79.0,0,60,0.0,64.0
3656,67.0,0,60,2.0,64.0
3657,55.0,120,60,3.0,64.0
3658,62.0,0,60,4.0,64.0
3659,66.0,0,60,2.0,64.0
3660,33.0,0,60,12.0,64.0
3661,57.0,120,60,8.0,64.0
3662,45.0,0,60,11.0,64.0
3663,54.0,0,60,3.0,64.0
3664,74.0,0,60,1.0,64.0
3665,69.0,0,60,7.0,64.0
3666,62.0,0,60,4.0,64.0
3667,78.0,0,60,0.0,64.0
3668,74.0,0,60,1.0,64.0
3669,71.0,0,60,7.0,64.0
3670,52.0,0,60,3.0,64.0
3671,76.0,0,60,0.0,64.0
3672,35.0,0,60,12.0,64.0
3673,62.0,120,60,4.0,64.0
3674,64.0,0,60,2.0,64.0
3675,47.0,0,60,11.0,64.0
3676,59.0,0,60,8.0,64.0
3677,74.0,0,60,7.0,64.0
3678,62.0,0,60,2.0,64.0
3679,74.0,0,60,1.0,64.0
3680,50.0,120,60,11.0,64.0
3681,38.0,0,60,12.0,64.0
3682,62.0,0,60,4.0,64.0
3683,74.0,0,60,0.0,64.0
3684,50.0,0,60,3.0,64.0
3685,62.0,0,60,8.0,64.0
3686,36.0,0,60,12.0,64.0
3687,72.0,0,60,7.0,64.0
3688,62.0,120,60,2.0,64.0
3689,60.0,0,60,8.0,64.0
3690,74.0,0,60,1.0,64.0
3691,48.0,0,60,11.0,64.0
3692,62.0,0,60,4.0,64.0
3693,62.0,0,60,3.0,64.0
3694,86.0,0,60,0.0,64.0
3695,69.0,0,60,7.0,64.0
3696,33.0,0,60,12.0,64.0
3697,45.0,0,60,11.0,64.0
3698,62.0,0,60,4.0,64.0
3699,64.0,0,60,3.0,64.0
3700,88.0,0,60,0.0,64.0
3701,57.0,0,60,8.0,64.0
3702,74.0,0,60,1.0,64.0
3703,64.0,120,60,2.0,64.0
3704,38.0,120,60,12.0,64.0
3705,66.0,0,60,3.0,64.0
3706,62.0,0,60,4.0,64.0
3707,66.0,0,60,2.0,64.0
3708,50.0,0,60,11.0,64.0
3709,62.0,0,60,8.0,64.0
3710,74.0,0,60,7.0,64.0
3711,74.0,0,60,1.0,64.0
3712,90.0,0,60,0.0,64.0
3713,62.0,0,60,4.0,64.0
3714,59.0,0,60,8.0,64.0
3715,74.0,0,60,5.0,64.0
3716,79.0,0,60,0.0,64.0
3717,74.0,0,60,1.0,64.0
3718,59.0,120,60,3.0,64.0
3719,67.0,0,60,3.0,64.0
3720,35.0,0,60,12.0,64.0
3721,67.0,0,60,2.0,64.0
3722,47.0,0,60,11.0,64.0
3723,71.0,0,60,7.0,64.0
3724,91.0,0,60,0.0,64.0
3725,55.0,0,60,2.0,64.0
3726,67.0,0,60,5.0,64.0
3727,55.0,0,60,5.0,64.0
3728,40.0,0,60,12.0,64.0
3729,52.0,0,60,3.0,64.0
3730,67.0,0,60,4.0,64.0
3731,91.0,0,60,0.0,64.0
3732,55.0,0,60,2.0,64.0
3733,67.0,0,60,2.0,64.0
3734,67.0,0,60,1.0,64.0
3735,79.0,0,60,1.0,64.0
3736,55.0,0,60,4.0,64.0
3737,79.0,0,60,0.0,64.0
3738,76.0,0,60,7.0,64.0
3739,52.0,0,60,11.0,64.0
3740,64.0,120,60,8.0,64.0
3741,62.0,0,60,8.0,64.0
3742,67.0,0,60,2.0,64.0
3743,55.0,0,60,2.0,64.0
3744,79.0,0,60,1.0,64.0
3745,67.0,0,60,1.0,64.0
3746,50.0,0,60,11.0,64.0
3747,38.0,0,60,12.0,64.0
3748,50.0,0,60,3.0,64.0
3749,67.0,0,60,5.0,64.0
3750,67.0,0,60,4.0,64.0
3751,55.0,120,60,4.0,64.0
3752,79.0,0,60,0.0,64.0
3753,91.0,0,60,0.0,64.0
3754,74.0,0,60,7.0,64.0
3755,55.0,0,60,5.0,64.0
3756,67.0,0,60,5.0,64.0
3757,55.0,0,60,2.0,64.0
3758,67.0,0,60,2.0,64.0
3759,55.0,0,60,5.0,64.0
3760,67.0,0,60,4.0,64.0
3761,55.0,0,60,4.0,64.0
3762,59.0,0,60,8.0,64.0
3763,47.0,0,60,11.0,64.0
3764,67.0,0,60,1.0,64.0
3765,79.0,120,60,1.0,64.0
3766,47.0,0,60,3.0,64.0
3767,91.0,0,60,0.0,64.0
3768,71.0,0,60,7.0,64.0
3769,35.0,0,60,12.0,64.0
3770,79.0,0,60,0.0,64.0
3771,67.0,120,60,4.0,64.0
3772,55.0,0,60,4.0,64.0
3773,55.0,0,60,2.0,64.0
3774,67.0,0,60,2.0,64.0
3775,77.0,0,60,7.0,64.0
3776,67.0,0,60,1.0,64.0
3777,53.0,0,60,3.0,64.0
3778,65.0,0,60,8.0,64.0
3779,79.0,0,60,0.0,64.0
3780,41.0,0,60,12.0,64.0
3781,79.0,0,60,1.0,64.0
3782,91.0,0,60,0.0,64.0
3783,67.0,0,60,5.0,64.0
3784,53.0,0,60,11.0,64.0
3785,55.0,0,60,5.0,64.0
3786,64.0,0,60,8.0,64.0
3787,79.0,0,60,1.0,64.0
3788,67.0,0,60,2.0,64.0
3789,55.0,0,60,2.0,64.0
3790,67.0,0,60,1.0,64.0
3791,52.0,0,60,3.0,64.0
3792,55.0,0,60,4.0,64.0
3793,76.0,0,60,7.0,64.0
3794,55.0,0,60,5.0,64.0
3795,52.0,0,60,11.0,64.0
3796,79.0,120,60,0.0,64.0
3797,91.0,0,60,0.0,64.0
3798,40.0,0,60,12.0,64.0
3799,67.0,0,60,5.0,64.0
3800,67.0,0,60,4.0,64.0
3801,67.0,0,60,5.0,64.0
3802,67.0,0,60,1.0,64.0
3803,79.0,0,60,1.0,64.0
3804,48.0,0,60,11.0,64.0
3805,60.0,0,60,8.0,64.0
3806,91.0,120,60,0.0,64.0
3807,79.0,0,60,0.0,64.0
3808,36.0,0,60,12.0,64.0
3809,67.0,0,60,4.0,64.0
3810,55.0,0,60,4.0,64.0
3811,72.0,0,60,7.0,64.0
3812,55.0,0,60,2.0,64.0
3813,67.0,0,60,2.0,64.0
3814,55.0,0,60,5.0,64.0
3815,48.0,0,60,3.0,64.0
3816,55.0,0,60,2.0,64.0
3817,79.0,0,60,1.0,64.0
3818,79.0,0,60,0.0,64.0
3819,67.0,0,60,5.0,64.0
3820,53.0,0,60,3.0,64.0
3821,55.0,0,60,5.0,64.0
3822,77.0,0,60,7.0,64.0
3823,67.0,0,60,1.0,64.0
3824,67.0,0,60,2.0,64.0
3825,91.0,0,60,0.0,64.0
3826,41.0,0,60,12.0,64.0
3827,53.0,0,60,11.0,64.0
3828,67.0,0,60,4.0,64.0
3829,55.0,120,60,4.0,64.0
3830,65.0,0,60,8.0,64.0
3831,50.0,0,60,3.0,64.0
3832,38.0,0,60,12.0,64.0
3833,55.0,120,60,5.0,64.0
3834,67.0,0,60,5.0,64.0
3835,50.0,0,60,11.0,64.0
3836,55.0,0,60,4.0,64.0
3837,67.0,0,60,4.0,64.0
3838,55.0,0,60,2.0,64.0
3839,67.0,0,60,2.0,64.0
3840,74.0,0,60,7.0,64.0
3841,79.0,0,60,1.0,64.0
3842,67.0,0,60,1.0,64.0
3843,79.0,0,60,0.0,64.0
3844,62.0,0,60,8.0,64.0
3845,91.0,0,60,0.0,64.0
3846,55.0,0,60,11.0,64.0
3847,67.0,0,60,8.0,64.0
3848,55.0,0,60,3.0,64.0
3849,79.0,0,60,7.0,64.0
3850,79.0,120,60,1.0,64.0
3851,55.0,0,60,5.0,64.0
3852,79.0,0,60,0.0,64.0
3853,67.0,0,60,1.0,64.0
3854,91.0,0,60,0.0,64.0
3855,67.0,0,60,2.0,64.0
3856,55.0,0,60,2.0,64.0
3857,43.0,0,60,12.0,64.0
3858,67.0,0,60,5.0,64.0
3859,67.0,0,60,4.0,64.0
3860,55.0,0,60,4.0,64.0
3861,65.0,0,60,8.0,64.0
3862,41.0,120,60,12.0,64.0
3863,77.0,0,60,7.0,64.0
3864,53.0,0,60,3.0,64.0
3865,67.0,0,60,5.0,64.0
3866,91.0,0,60,0.0,64.0
3867,79.0,0,60,1.0,64.0
3868,79.0,0,60,0.0,64.0
3869,67.0,0,60,4.0,64.0
3870,67.0,0,60,2.0,64.0
3871,55.0,0,60,2.0,64.0
3872,53.0,0,60,11.0,64.0
3873,67.0,0,60,1.0,64.0
3874,55.0,0,60,4.0,64.0
3875,55.0,0,60,5.0,64.0
3876,62.0,0,60,8.0,64.0
3877,79.0,0,60,1.0,64.0
3878,67.0,0,60,1.0,64.0
3879,67.0,0,60,5.0,64.0
3880,50.0,0,60,3.0,64.0
3881,79.0,0,60,0.0,64.0
3882,91.0,0,60,0.0,64.0
3883,67.0,0,60,4.0,64.0
3884,55.0,0,60,4.0,64.0
3885,55.0,0,60,2.0,64.0
3886,38.0,0,60,12.0,64.0
3887,67.0,0,60,2.0,64.0
3888,55.0,0,60,5.0,64.0
3889,74.0,0,60,7.0,64.0
3890,50.0,120,60,11.0,64.0
3891,45.0,0,60,12.0,64.0
3892,91.0,0,60,0.0,64.0
3893,79.0,0,60,0.0,64.0
3894,55.0,0,60,5.0,64.0
3895,69.0,0,60,8.0,64.0
3896,67.0,0,60,5.0,64.0
3897,55.0,0,60,4.0,64.0
3898,67.0,0,60,4.0,64.0
3899,57.0,120,60,11.0,64.0
3900,81.0,0,60,7.0,64.0
3901,57.0,0,60,3.0,64.0
3902,55.0,0,60,2.0,64.0
3903,67.0,0,60,2.0,64.0
3904,79.0,0,60,1.0,64.0
3905,67.0,0,60,1.0,64.0
3906,55.0,0,60,2.0,64.0
3907,91.0,0,60,0.0,64.0
3908,43.0,0,60,12.0,64.0
3909,79.0,0,60,1.0,64.0
3910,67.0,0,60,1.0,64.0
3911,67.0,120,60,2.0,64.0
3912,79.0,0,60,0.0,64.0
3913,79.0,0,60,7.0,64.0
3914,67.0,0,60,5.0,64.0
3915,55.0,0,60,5.0,64.0
3916,55.0,0,60,4.0,64.0
3917,67.0,0,60,4.0,64.0
3918,55.0,0,60,3.0,64.0
3919,55.0,0,60,11.0,64.0
3920,67.0,0,60,8.0,64.0
3921,40.0,0,60,12.0,64.0
3922,67.0,0,60,1.0,64.0
3923,79.0,0,60,1.0,64.0
3924,76.0,120,60,7.0,64.0
3925,52.0,0,60,11.0,64.0
3926,64.0,0,60,8.0,64.0
3927,55.0,0,60,5.0,64.0
3928,79.0,0,60,0.0,64.0
3929,52.0,0,60,3.0,64.0
3930,67.0,0,60,2.0,64.0
3931,55.0,0,60,4.0,64.0
3932,67.0,0,60,4.0,64.0
3933,55.0,0,60,2.0,64.0
3934,91.0,0,60,0.0,64.0
3935,67.0,0,60,5.0,64.0
3936,67.0,0,60,1.0,64.0
3937,69.0,0,60,8.0,64.0
3938,57.0,0,60,11.0,64.0
3939,67.0,0,60,2.0,64.0
3940,55.0,0,60,2.0,64.0
3941,79.0,0,60,1.0,64.0
3942,91.0,0,60,0.0,64.0
3943,67.0,0,60,4.0,64.0
3944,55.0,0,60,5.0,64.0
3945,67.0,0,60,5.0,64.0
3946,45.0,0,60,12.0,64.0
3947,79.0,0,60,0.0,64.0
3948,81.0,120,60,7.0,64.0
3949,55.0,0,60,4.0,64.0
3950,57.0,0,60,3.0,64.0
3951,79.0,0,60,0.0,64.0
3952,53.0,0,60,11.0,64.0
3953,67.0,0,60,2.0,64.0
3954,53.0,0,60,3.0,64.0
3955,55.0,0,60,2.0,64.0
3956,41.0,0,60,12.0,64.0
3957,55.0,0,60,4.0,64.0
3958,55.0,120,60,5.0,64.0
3959,67.0,0,60,1.0,64.0
3960,79.0,0,60,1.0,64.0
3961,91.0,0,60,0.0,64.0
3962,65.0,0,60,8.0,64.0
3963,67.0,0,60,5.0,64.0
3964,77.0,0,60,7.0,64.0
3965,67.0,0,60,4.0,64.0
3966,79.0,0,60,0.0,64.0
3967,59.0,0,60,11.0,64.0
3968,55.0,120,60,5.0,64.0
3969,67.0,0,60,5.0,64.0
3970,91.0,0,60,0.0,64.0
3971,71.0,0,60,8.0,64.0
3972,59.0,0,60,3.0,64.0
3973,83.0,0,60,7.0,64.0
3974,55.0,0,60,4.0,64.0
3975,79.0,0,60,1.0,64.0
3976,67.0,0,60,1.0,64.0
3977,47.0,0,60,12.0,64.0
3978,67.0,0,60,4.0,64.0
3979,55.0,0,60,2.0,64.0
3980,67.0,0,60,2.0,64.0
3981,67.0,0,60,5.0,64.0
3982,79.0,120,60,1.0,64.0
3983,57.0,0,60,3.0,64.0
3984,69.0,0,60,8.0,64.0
3985,67.0,0,60,4.0,64.0
3986,55.0,0,60,4.0,64.0
3987,91.0,0,60,0.0,64.0
3988,79.0,0,60,0.0,64.0
3989,81.0,0,60,7.0,64.0
3990,67.0,0,60,2.0,64.0
3991,55.0,0,60,2.0,64.0
3992,45.0,0,60,12.0,64.0
3993,55.0,0,60,5.0,64.0
3994,57.0,0,60,11.0,64.0
3995,67.0,0,60,1.0,64.0
3996,55.0,0,60,5.0,64.0
3997,91.0,0,60,0.0,64.0
3998,79.0,0,60,0.0,64.0
3999,65.0,120,60,8.0,64.0
4000,67.0,0,60,2.0,64.0
4001,55.0,0,60,2.0,64.0
4002,55.0,0,60,4.0,64.0
4003,79.0,0,60,1.0,64.0
4004,67.0,0,60,1.0,64.0
4005,41.0,0,60,12.0,64.0
4006,53.0,0,60,3.0,64.0
4007,77.0,0,60,7.0,64.0
4008,53.0,0,60,11.0,64.0
4009,67.0,0,60,4.0,64.0
4010,67.0,0,60,5.0,64.0
4011,67.0,0,60,5.0,64.0
4012,79.0,0,60,0.0,64.0
4013,84.0,0,60,7.0,64.0
4014,91.0,0,60,0.0,64.0
4015,48.0,0,60,12.0,64.0
4016,72.0,0,60,8.0,64.0
4017,55.0,0,60,4.0,64.0
4018,60.0,0,60,3.0,64.0
4019,67.0,120,60,1.0,64.0
4020,60.0,0,60,11.0,64.0
4021,79.0,0,60,1.0,64.0
4022,67.0,0,60,4.0,64.0
4023,67.0,0,60,2.0,64.0
4024,55.0,0,60,2.0,64.0
4025,55.0,0,60,5.0,64.0
4026,79.0,0,60,1.0,64.0
4027,71.0,0,60,8.0,64.0
4028,67.0,0,60,2.0,64.0
4029,55.0,0,60,4.0,64.0
4030,83.0,0,60,7.0,64.0
4031,67.0,0,60,4.0,64.0
4032,67.0,0,60,1.0,64.0
4033,59.0,0,60,3.0,64.0
4034,59.0,120,60,11.0,64.0
4035,47.0,0,60,12.0,64.0
4036,67.0,0,60,5.0,64.0
4037,55.0,0,60,2.0,64.0
4038,55.0,0,60,5.0,64.0
4039,79.0,0,60,0.0,64.0
4040,91.0,0,60,0.0,64.0
4041,67.0,0,60,2.0,64.0
4042,55.0,0,60,11.0,64.0
4043,43.0,0,60,12.0,64.0
4044,67.0,0,60,1.0,64.0
4045,67.0,0,60,4.0,64.0
4046,55.0,0,60,4.0,64.0
4047,55.0,0,60,2.0,64.0
4048,55.0,0,60,3.0,64.0
4049,67.0,0,60,5.0,64.0
4050,55.0,0,60,5.0,64.0
4051,79.0,0,60,1.0,64.0
4052,79.0,0,60,7.0,64.0
4053,79.0,0,60,0.0,64.0
4054,91.0,0,60,0.0,64.0
4055,67.0,120,60,8.0,64.0
4056,60.0,0,60,11.0,64.0
4057,55.0,0,60,4.0,64.0
4058,67.0,0,60,4.0,64.0
4059,84.0,0,60,7.0,64.0
4060,72.0,0,60,8.0,64.0
4061,67.0,0,60,1.0,64.0
4062,79.0,0,60,1.0,64.0
4063,48.0,0,60,12.0,64.0
4064,55.0,120,60,5.0,64.0
4065,67.0,0,60,5.0,64.0
4066,79.0,0,60,0.0,64.0
4067,60.0,0,60,3.0,64.0
4068,67.0,0,60,2.0,64.0
4069,91.0,0,60,0.0,64.0
4070,55.0,0,60,2.0,64.0
4071,45.0,0,60,11.0,64.0
4072,55.0,0,60,2.0,64.0
4073,67.0,0,60,1.0,64.0
4074,79.0,0,60,1.0,64.0
4075,57.0,0,60,3.0,64.0
4076,91.0,120,60,0.0,64.0
4077,79.0,0,60,0.0,64.0
4078,55.0,0,60,5.0,64.0
4079,67.0,0,60,5.0,64.0
4080,67.0,0,60,2.0,64.0
4081,57.0,0,60,8.0,64.0
4082,69.0,0,60,7.0,64.0
4083,33.0,0,60,12.0,64.0
4084,55.0,0,60,4.0,64.0
4085,67.0,0,60,4.0,64.0
4086,55.0,0,60,2.0,64.0
4087,67.0,0,60,2.0,64.0
4088,74.0,0,60,7.0,64.0
4089,62.0,0,60,8.0,64.0
4090,38.0,0,60,12.0,64.0
4091,55.0,0,60,4.0,64.0
4092,79.0,0,60,1.0,64.0
4093,55.0,0,60,5.0,64.0
4094,91.0,0,60,0.0,64.0
4095,67.0,0,60,5.0,64.0
4096,62.0,0,60,3.0,64.0
4097,79.0,0,60,0.0,64.0
4098,67.0,0,60,4.0,64.0
4099,50.0,0,60,11.0,64.0
4100,67.0,120,60,1.0,64.0
4101,72.0,120,60,7.0,64.0
4102,55.0,0,60,5.0,64.0
4103,55.0,0,60,2.0,64.0
4104,60.0,0,60,8.0,64.0
4105,67.0,0,60,2.0,64.0
4106,67.0,0,60,5.0,64.0
4107,48.0,0,60,11.0,64.0
4108,67.0,0,60,1.0,64.0
4109,91.0,0,60,0.0,64.0
4110,79.0,0,60,0.0,64.0
4111,36.0,0,60,12.0,64.0
4112,67.0,0,60,4.0,64.0
4113,55.0,0,60,4.0,64.0
4114,79.0,0,60,1.0,64.0
4115,60.0,0,60,3.0,64.0
4116,67.0,0,60,2.0,64.0
4117,55.0,0,60,2.0,64.0
4118,79.0,0,60,0.0,64.0
4119,57.0,0,60,3.0,64.0
4120,69.0,0,60,7.0,64.0
4121,55.0,0,60,4.0,64.0
4122,45.0,120,60,11.0,64.0
4123,57.0,0,60,8.0,64.0
4124,67.0,0,60,4.0,64.0
4125,67.0,0,60,1.0,64.0
4126,79.0,0,60,1.0,64.0
4127,91.0,0,60,0.0,64.0
4128,67.0,0,60,5.0,64.0
4129,55.0,0,60,5.0,64.0
4130,33.0,0,60,12.0,64.0
4131,64.0,0,60,8.0,64.0
4132,55.0,0,60,5.0,64.0
4133,79.0,120,60,1.0,64.0
4134,67.0,0,60,1.0,64.0
4135,67.0,0,60,5.0,64.0
4136,52.0,0,60,11.0,64.0
4137,55.0,0,60,2.0,64.0
4138,76.0,0,60,7.0,64.0
4139,55.0,0,60,4.0,64.0
4140,40.0,0,60,12.0,64.0
4141,91.0,0,60,0.0,64.0
4142,79.0,0,60,0.0,64.0
4143,67.0,0,60,2.0,64.0
4144,64.0,0,60,3.0,64.0
4145,67.0,0,60,4.0,64.0
4146,67.0,0,60,1.0,64.0
4147,62.0,0,60,3.0,64.0
4148,67.0,0,60,4.0,64.0
4149,62.0,0,60,8.0,64.0
4150,55.0,0,60,4.0,64.0
4151,67.0,0,60,2.0,64.0
4152,79.0,0,60,1.0,64.0
4153,55.0,0,60,2.0,64.0
4154,91.0,0,60,0.0,64.0
4155,67.0,0,60,5.0,64.0
4156,55.0,0,60,5.0,64.0
4157,38.0,0,60,12.0,64.0
4158,74.0,120,60,7.0,64.0
4159,50.0,0,60,11.0,64.0
4160,79.0,0,60,0.0,64.0
4161,55.0,0,60,5.0,64.0
4162,59.0,0,60,8.0,64.0
4163,67.0,0,60,5.0,64.0
4164,59.0,0,60,3.0,64.0
4165,91.0,0,60,0.0,64.0
4166,35.0,0,60,12.0,64.0
4167,47.0,0,60,11.0,64.0
4168,71.0,0,60,7.0,64.0
4169,79.0,120,60,0.0,64.0
4170,67.0,0,60,1.0,64.0
4171,79.0,0,60,1.0,64.0
4172,67.0,0,60,2.0,64.0
4173,55.0,0,60,2.0,64.0
4174,55.0,0,60,4.0,64.0
4175,67.0,0,60,4.0,64.0
4176,67.0,0,60,2.0,64.0
4177,40.0,0,60,12.0,64.0
4178,79.0,120,60,1.0,64.0
4179,67.0,0,60,1.0,64.0
4180,67.0,0,60,5.0,64.0
4181,67.0,0,60,4.0,64.0
4182,55.0,0,60,4.0,64.0
4183,79.0,0,60,0.0,64.0
4184,91.0,0,60,0.0,64.0
4185,52.0,0,60,11.0,64.0
4186,64.0,0,60,3.0,64.0
4187,76.0,0,60,7.0,64.0
4188,64.0,0,60,8.0,64.0
4189,55.0,0,60,5.0,64.0
4190,55.0,0,60,2.0,64.0
4191,67.0,0,60,5.0,64.0
4192,72.0,0,60,7.0,64.0
4193,67.0,0,60,2.0,64.0
4194,55.0,0,60,2.0,64.0
4195,48.0,120,60,12.0,64.0
4196,60.0,0,60,3.0,64.0
4197,91.0,0,60,0.0,64.0
4198,79.0,0,60,0.0,64.0
4199,67.0,0,60,1.0,64.0
4200,55.0,0,60,5.0,64.0
4201,79.0,0,60,1.0,64.0
4202,67.0,0,60,4.0,64.0
4203,55.0,0,60,4.0,64.0
4204,60.0,0,60,8.0,64.0
4205,65.0,0,60,3.0,64.0
4206,67.0,0,60,1.0,64.0
4207,77.0,0,60,7.0,64.0
4208,79.0,0,60,1.0,64.0
4209,65.0,0,60,8.0,64.0
4210,67.0,0,60,5.0,64.0
4211,53.0,0,60,12.0,64.0
4212,91.0,0,60,0.0,64.0
4213,79.0,0,60,0.0,64.0
4214,67.0,0,60,2.0,64.0
4215,55.0,0,60,2.0,64.0
4216,55.0,0,60,5.0,64.0
4217,67.0,0,60,4.0,64.0
4218,55.0,120,60,4.0,64.0
4219,52.0,0,60,12.0,64.0
4220,79.0,0,60,0.0,64.0
4221,55.0,0,60,5.0,64.0
4222,67.0,120,60,5.0,64.0
4223,64.0,0,60,3.0,64.0
4224,76.0,0,60,7.0,64.0
4225,64.0,0,60,8.0,64.0
4226,79.0,0,60,1.0,64.0
4227,67.0,0,60,1.0,64.0
4228,55.0,0,60,4.0,64.0
4229,67.0,0,60,4.0,64.0
4230,67.0,0,60,2.0,64.0
4231,91.0,0,60,0.0,64.0
4232,55.0,0,60,2.0,64.0
4233,48.0,0,60,12.0,64.0
4234,60.0,0,60,3.0,64.0
4235,91.0,0,60,0.0,64.0
4236,79.0,0,60,0.0,64.0
4237,67.0,0,60,4.0,64.0
4238,55.0,0,60,5.0,64.0
4239,67.0,0,60,5.0,64.0
4240,55.0,0,60,4.0,64.0
4241,72.0,0,60,7.0,64.0
4242,67.0,0,60,1.0,64.0
4243,79.0,0,60,1.0,64.0
4244,55.0,0,60,2.0,64.0
4245,60.0,120,60,8.0,64.0
4246,67.0,0,60,2.0,64.0
4247,67.0,0,60,1.0,64.0
4248,55.0,0,60,4.0,64.0
4249,79.0,0,60,0.0,64.0
4250,91.0,0,60,0.0,64.0
4251,67.0,0,60,3.0,64.0
4252,79.0,0,60,1.0,64.0
4253,67.0,0,60,8.0,64.0
4254,55.0,0,60,2.0,64.0
4255,67.0,0,60,4.0,64.0
4256,55.0,120,60,5.0,64.0
4257,67.0,0,60,2.0,64.0
4258,67.0,0,60,5.0,64.0
4259,55.0,0,60,12.0,64.0
4260,79.0,0,60,7.0,64.0
4261,65.0,0,60,3.0,64.0
4262,77.0,120,60,7.0,64.0
4263,91.0,0,60,0.0,64.0
4264,79.0,0,60,0.0,64.0
4265,55.0,0,60,4.0,64.0
4266,67.0,0,60,2.0,64.0
4267,55.0,0,60,2.0,64.0
4268,67.0,0,60,1.0,64.0
4269,65.0,0,60,8.0,64.0
4270,53.0,0,60,12.0,64.0
4271,55.0,0,60,5.0,64.0
4272,79.0,0,60,1.0,64.0
4273,67.0,0,60,5.0,64.0
4274,67.0,0,60,4.0,64.0
4275,67.0,0,60,4.0,64.0
4276,62.0,0,60,8.0,64.0
4277,55.0,0,60,4.0,64.0
4278,79.0,0,60,0.0,64.0
4279,91.0,0,60,0.0,64.0
4280,55.0,0,60,5.0,64.0
4281,67.0,0,60,5.0,64.0
4282,74.0,0,60,7.0,64.0
4283,79.0,0,60,1.0,64.0
4284,62.0,0,60,3.0,64.0
4285,67.0,0,60,1.0,64.0
4286,67.0,0,60,2.0,64.0
4287,55.0,120,60,2.0,64.0
4288,50.0,0,60,12.0,64.0
4289,79.0,0,60,1.0,64.0
4290,67.0,0,60,1.0,64.0
4291,67.0,0,60,4.0,64.0
4292,67.0,0,60,8.0,64.0
4293,55.0,120,60,4.0,64.0
4294,79.0,0,60,7.0,64.0
4295,91.0,0,60,0.0,64.0
4296,67.0,0,60,2.0,64.0
4297,67.0,0,60,3.0,64.0
4298,67.0,0,60,5.0,64.0
4299,55.0,0,60,2.0,64.0
4300,55.0,0,60,5.0,64.0
4301,79.0,0,60,0.0,64.0
4302,55.0,0,60,12.0,64.0
4303,79.0,0,60,1.0,64.0
4304,55.0,0,60,5.0,64.0
4305,67.0,0,60,5.0,64.0
4306,55.0,0,60,4.0,64.0
4307,67.0,0,60,4.0,64.0
4308,64.0,0,60,8.0,64.0
4309,52.0,0,60,12.0,64.0
4310,64.0,0,60,3.0,64.0
4311,76.0,0,60,7.0,64.0
4312,79.0,120,60,0.0,64.0
4313,67.0,0,60,2.0,64.0
4314,55.0,0,60,2.0,64.0
4315,67.0,0,60,1.0,64.0
4316,91.0,0,60,0.0,64.0
4317,67.0,0,60,1.0,64.0
4318,67.0,0,60,5.0,64.0
4319,81.0,0,60,7.0,64.0
4320,55.0,120,60,5.0,64.0
4321,67.0,0,60,4.0,64.0
4322,55.0,0,60,4.0,64.0
4323,69.0,0,60,8.0,64.0
4324,57.0,0,60,12.0,64.0
4325,67.0,0,60,2.0,64.0
4326,79.0,0,60,0.0,64.0
4327,55.0,0,60,2.0,64.0
4328,79.0,0,60,1.0,64.0
4329,69.0,0,60,3.0,64.0
4330,91.0,0,60,0.0,64.0
4331,91.0,0,60,0.0,64.0
4332,67.0,0,60,8.0,64.0
4333,79.0,0,60,0.0,64.0
4334,79.0,120,60,7.0,64.0
4335,79.0,0,60,1.0,64.0
4336,67.0,0,60,1.0,64.0
4337,67.0,0,60,4.0,64.0
4338,55.0,0,60,5.0,64.0
4339,67.0,0,60,5.0,64.0
4340,55.0,0,60,12.0,64.0
4341,67.0,0,60,2.0,64.0
4342,55.0,0,60,2.0,64.0
4343,67.0,0,60,3.0,64.0
4344,55.0,0,60,4.0,64.0
4345,79.0,0,60,0.0,64.0
4346,55.0,0,60,5.0,64.0
4347,55.0,0,60,2.0,64.0
4348,67.0,0,60,2.0,64.0
4349,64.0,0,60,3.0,64.0
4350,67.0,0,60,5.0,64.0
4351,52.0,0,60,12.0,64.0
4352,67.0,0,60,4.0,64.0
4353,55.0,0,60,4.0,64.0
4354,67.0,0,60,1.0,64.0
4355,76.0,96,60,7.0,64.0
4356,91.0,0,60,0.0,64.0
4357,64.0,0,60,8.0,64.0
4358,79.0,0,60,1.0,64.0
4359,65.0,0,2790,2.0,64.0
4360,81.0,0,60,7.0,64.0
4361,69.0,0,2790,2.0,64.0
4362,67.0,36,660,5.0,64.0
4363,93.0,0,2790,0.0,64.0
4364,43.0,24,20,6.0,64.0
4365,77.0,0,2790,1.0,64.0
4366,89.0,0,2790,0.0,64.0
4367,57.0,6,60,10.0,64.0
4368,81.0,0,2790,1.0,64.0
4369,31.0,0,60,12.0,64.0
4370,53.0,0,60,10.0,64.0
4371,57.0,0,540,3.0,64.0
4372,55.0,0,660,5.0,64.0
4373,65.0,0,60,8.0,64.0
4374,69.0,0,60,8.0,64.0
4375,55.0,0,2010,4.0,64.0
4376,65.0,12,2010,4.0,64.0
4377,43.0,24,2790,4.0,64.0
4378,53.0,0,540,3.0,64.0
4379,43.0,0,60,11.0,64.0
4380,43.0,30,20,6.0,64.0
4381,57.0,0,60,10.0,64.0
4382,53.0,0,60,10.0,64.0
4383,31.0,0,60,12.0,64.0
4384,81.0,0,60,7.0,64.0
4385,69.0,6,60,8.0,64.0
4386,65.0,0,60,8.0,64.0
4387,43.0,24,20,6.0,64.0
4388,43.0,0,60,11.0,64.0
4389,43.0,30,20,6.0,64.0
4390,31.0,0,60,12.0,64.0
4391,57.0,0,60,10.0,64.0
4392,53.0,6,60,10.0,64.0
4393,81.0,0,60,7.0,64.0
4394,65.0,0,60,8.0,64.0
4395,69.0,0,60,8.0,64.0
4396,43.0,24,20,6.0,64.0
4397,43.0,0,60,11.0,64.0
4398,43.0,30,20,6.0,64.0
4399,69.0,0,60,8.0,64.0
4400,53.0,0,60,10.0,64.0
4401,57.0,0,60,10.0,64.0
4402,31.0,0,60,12.0,64.0
4403,43.0,0,60,11.0,64.0
4404,81.0,6,60,7.0,64.0
4405,65.0,0,60,8.0,64.0
4406,43.0,24,20,6.0,64.0
4407,43.0,30,20,6.0,64.0
4408,43.0,0,60,11.0,64.0
4409,69.0,0,60,8.0,64.0
4410,65.0,0,60,8.0,64.0
4411,43.0,24,20,6.0,64.0
4412,81.0,0,60,7.0,64.0
4413,53.0,0,60,10.0,64.0
4414,57.0,6,60,10.0,64.0
4415,31.0,0,60,12.0,64.0
4416,43.0,30,20,6.0,64.0
4417,53.0,6,60,10.0,64.0
4418,31.0,0,60,12.0,64.0
4419,43.0,0,60,11.0,64.0
4420,57.0,0,60,10.0,64.0
4421,69.0,0,60,8.0,64.0
4422,65.0,0,60,8.0,64.0
4423,43.0,24,20,6.0,64.0
4424,81.0,0,60,7.0,64.0
4425,43.0,30,20,6.0,64.0
4426,69.0,0,60,8.0,64.0
4427,43.0,0,60,11.0,64.0
4428,65.0,6,60,8.0,64.0
4429,57.0,0,60,10.0,64.0
4430,53.0,0,60,10.0,64.0
4431,31.0,0,60,12.0,64.0
4432,43.0,24,20,6.0,64.0
4433,81.0,0,60,7.0,64.0
4434,43.0,30,20,6.0,64.0
4435,31.0,0,60,12.0,64.0
4436,43.0,0,60,11.0,64.0
4437,57.0,0,60,10.0,64.0
4438,69.0,0,60,8.0,64.0
4439,53.0,0,60,10.0,64.0
4440,43.0,24,20,6.0,64.0
4441,81.0,6,60,7.0,64.0
4442,65.0,0,60,8.0,64.0
4443,43.0,0,20,6.0,64.0
4444,57.0,0,60,10.0,64.0
4445,53.0,12,60,10.0,64.0
4446,43.0,0,60,11.0,64.0
4447,43.0,24,390,6.0,64.0
4448,69.0,0,60,8.0,64.0
4449,81.0,48,60,7.0,64.0
4450,65.0,0,60,8.0,64.0
4451,31.0,0,60,12.0,64.0
4452,65.0,0,60,8.0,64.0
4453,69.0,0,60,8.0,64.0
4454,57.0,0,60,10.0,64.0
4455,43.0,60,60,11.0,64.0
4456,31.0,0,60,12.0,64.0
4457,53.0,0,60,10.0,64.0
4458,69.0,0,60,8.0,64.0
4459,65.0,0,60,8.0,64.0
4460,47.0,0,60,3.0,64.0
4461,43.0,0,60,11.0,64.0
4462,57.0,0,60,10.0,64.0
4463,53.0,0,60,10.0,64.0
4464,71.0,12,60,7.0,64.0
4465,31.0,12,60,12.0,64.0
4466,43.0,0,60,11.0,64.0
4467,69.0,0,60,8.0,64.0
4468,31.0,0,60,12.0,64.0
4469,53.0,60,60,10.0,64.0
4470,57.0,0,60,10.0,64.0
4471,65.0,0,60,8.0,64.0
4472,43.0,0,60,11.0,64.0
4473,72.0,48,60,7.0,64.0
4474,65.0,0,60,8.0,64.0
4475,69.0,0,60,8.0,64.0
4476,53.0,0,60,10.0,64.0
4477,57.0,0,60,10.0,64.0
4478,31.0,12,60,12.0,64.0
4479,48.0,0,60,3.0,64.0
4480,31.0,36,60,12.0,64.0
4481,53.0,0,60,10.0,64.0
4482,57.0,0,60,10.0,64.0
4483,69.0,0,60,8.0,64.0
4484,65.0,0,60,8.0,64.0
4485,43.0,0,60,11.0,64.0
4486,50.0,0,60,3.0,64.0
4487,43.0,0,60,11.0,64.0
4488,31.0,0,60,12.0,64.0
4489,57.0,0,60,10.0,64.0
4490,53.0,12,60,10.0,64.0
4491,74.0,48,60,7.0,64.0
4492,65.0,0,60,8.0,64.0
4493,69.0,0,60,8.0,64.0
4494,53.0,60,60,10.0,64.0
4495,57.0,0,60,10.0,64.0
4496,65.0,0,60,8.0,64.0
4497,31.0,0,60,12.0,64.0
4498,43.0,0,60,11.0,64.0
4499,69.0,0,60,8.0,64.0
4500,31.0,0,60,12.0,64.0
4501,43.0,0,60,11.0,64.0
4502,67.0,0,180,5.0,64.0
4503,55.0,48,180,5.0,64.0
4504,53.0,0,60,10.0,64.0
4505,43.0,0,300,6.0,64.0
4506,65.0,0,60,8.0,64.0
4507,69.0,60,60,8.0,64.0
4508,57.0,0,60,10.0,64.0
4509,53.0,0,60,10.0,64.0
4510,43.0,60,60,11.0,64.0
4511,57.0,0,60,10.0,64.0
4512,69.0,0,60,8.0,64.0
4513,31.0,0,60,12.0,64.0
4514,65.0,0,60,8.0,64.0
4515,31.0,0,60,12.0,64.0
4516,65.0,12,60,8.0,64.0
4517,74.0,0,60,7.0,64.0
4518,69.0,0,60,8.0,64.0
4519,57.0,0,60,10.0,64.0
4520,53.0,0,60,10.0,64.0
4521,43.0,0,60,11.0,64.0
4522,50.0,0,60,3.0,64.0
4523,53.0,0,60,10.0,64.0
4524,57.0,60,60,10.0,64.0
4525,43.0,0,60,11.0,64.0
4526,65.0,0,60,8.0,64.0
4527,69.0,0,60,8.0,64.0
4528,31.0,0,60,12.0,64.0
4529,57.0,0,60,10.0,64.0
4530,53.0,0,60,10.0,64.0
4531,43.0,0,60,11.0,64.0
4532,65.0,0,60,8.0,64.0
4533,69.0,0,60,8.0,64.0
4534,76.0,0,60,7.0,64.0
4535,52.0,48,60,3.0,64.0
4536,31.0,12,60,12.0,64.0
4537,69.0,0,60,8.0,64.0
4538,65.0,0,60,8.0,64.0
4539,43.0,0,60,11.0,64.0
4540,57.0,0,60,10.0,64.0
4541,31.0,0,60,12.0,64.0
4542,53.0,60,60,10.0,64.0
4543,31.0,0,60,12.0,64.0
4544,55.0,0,60,5.0,64.0
4545,67.0,0,60,5.0,64.0
4546,77.0,36,60,7.0,64.0
4547,53.0,0,60,10.0,64.0
4548,57.0,0,60,10.0,64.0
4549,53.0,0,60,3.0,64.0
4550,43.0,12,60,11.0,64.0
4551,69.0,0,60,8.0,64.0
4552,43.0,12,90,6.0,64.0
4553,65.0,0,60,8.0,64.0
4554,43.0,0,60,11.0,64.0
4555,53.0,60,60,10.0,64.0
4556,57.0,0,60,10.0,64.0
4557,31.0,0,60,12.0,64.0
4558,65.0,0,60,8.0,64.0
4559,69.0,0,60,8.0,64.0
4560,53.0,0,60,10.0,64.0
4561,31.0,0,60,12.0,64.0
4562,43.0,24,390,6.0,64.0
4563,65.0,0,60,8.0,64.0
4564,43.0,0,60,11.0,64.0
4565,67.0,48,120,5.0,64.0
4566,57.0,60,60,10.0,64.0
4567,69.0,0,60,8.0,64.0
4568,55.0,0,120,5.0,64.0
4569,43.0,0,60,11.0,64.0
4570,31.0,0,60,12.0,64.0
4571,57.0,0,60,10.0,64.0
4572,53.0,0,60,10.0,64.0
4573,69.0,12,60,8.0,64.0
4574,65.0,0,60,8.0,64.0
4575,43.0,0,60,11.0,64.0
4576,31.0,0,60,12.0,64.0
4577,53.0,0,60,3.0,64.0
4578,77.0,48,60,7.0,64.0
4579,69.0,0,60,8.0,64.0
4580,65.0,12,60,8.0,64.0
4581,57.0,0,60,10.0,64.0
4582,53.0,0,60,10.0,64.0
4583,53.0,0,60,10.0,64.0
4584,57.0,60,60,10.0,64.0
4585,31.0,0,60,12.0,64.0
4586,65.0,0,60,8.0,64.0
4587,69.0,0,60,8.0,64.0
4588,43.0,0,60,11.0,64.0
4589,57.0,0,60,10.0,64.0
4590,53.0,0,60,10.0,64.0
4591,65.0,0,60,8.0,64.0
4592,79.0,48,60,7.0,64.0
4593,55.0,0,60,3.0,64.0
4594,69.0,0,60,8.0,64.0
4595,31.0,12,60,12.0,64.0
4596,43.0,0,60,11.0,64.0
4597,69.0,0,60,8.0,64.0
4598,53.0,36,60,10.0,64.0
4599,65.0,0,60,8.0,64.0
4600,31.0,0,60,12.0,64.0
4601,43.0,0,60,11.0,64.0
4602,57.0,0,60,10.0,64.0
4603,53.0,0,60,10.0,64.0
4604,57.0,0,60,10.0,64.0
4605,31.0,0,60,12.0,64.0
4606,57.0,0,60,3.0,64.0
4607,65.0,0,60,8.0,64.0
4608,81.0,48,60,7.0,64.0
4609,69.0,12,60,8.0,64.0
4610,43.0,0,60,11.0,64.0
4611,57.0,0,60,10.0,64.0
4612,53.0,60,60,10.0,64.0
4613,69.0,0,60,8.0,64.0
4614,65.0,0,60,8.0,64.0
4615,31.0,0,60,12.0,64.0
4616,43.0,0,60,11.0,64.0
4617,65.0,0,60,8.0,64.0
4618,69.0,48,60,8.0,64.0
4619,31.0,0,60,12.0,64.0
4620,53.0,0,60,10.0,64.0
4621,43.0,0,60,11.0,64.0
4622,55.0,0,120,5.0,64.0
4623,67.0,48,120,5.0,64.0
4624,43.0,24,390,6.0,64.0
4625,57.0,0,60,10.0,64.0
4626,43.0,0,60,11.0,64.0
4627,65.0,0,60,8.0,64.0
4628,31.0,0,60,12.0,64.0
4629,57.0,12,60,10.0,64.0
4630,53.0,0,60,10.0,64.0
4631,69.0,0,60,8.0,64.0
4632,65.0,12,60,8.0,64.0
4633,31.0,0,60,12.0,64.0
4634,69.0,0,60,8.0,64.0
4635,53.0,0,60,10.0,64.0
4636,57.0,0,60,10.0,64.0
4637,83.0,48,60,7.0,64.0
4638,43.0,0,60,11.0,64.0
4639,59.0,0,60,3.0,64.0
4640,31.0,0,60,12.0,64.0
4641,65.0,0,60,8.0,64.0
4642,43.0,0,60,11.0,64.0
4643,53.0,0,60,10.0,64.0
4644,57.0,0,60,10.0,64.0
4645,69.0,60,60,8.0,64.0
4646,60.0,0,60,3.0,64.0
4647,31.0,0,60,12.0,64.0
4648,43.0,12,60,11.0,64.0
4649,65.0,0,60,8.0,64.0
4650,69.0,0,60,8.0,64.0
4651,84.0,48,60,7.0,64.0
4652,53.0,0,60,10.0,64.0
4653,57.0,0,60,10.0,64.0
4654,69.0,0,60,8.0,64.0
4655,31.0,0,60,12.0,64.0
4656,53.0,36,60,10.0,64.0
4657,43.0,0,60,11.0,64.0
4658,57.0,0,60,10.0,64.0
4659,65.0,0,60,8.0,64.0
4660,53.0,0,60,10.0,64.0
4661,62.0,0,60,3.0,64.0
4662,86.0,48,60,7.0,64.0
4663,57.0,0,60,10.0,64.0
4664,65.0,0,60,8.0,64.0
4665,31.0,12,60,12.0,64.0
4666,69.0,0,60,8.0,64.0
4667,43.0,0,60,11.0,64.0
4668,69.0,0,60,8.0,64.0
4669,57.0,0,60,10.0,64.0
4670,53.0,60,60,10.0,64.0
4671,31.0,0,60,12.0,64.0
4672,65.0,0,60,8.0,64.0
4673,43.0,0,60,11.0,64.0
4674,43.0,60,60,11.0,64.0
4675,65.0,0,60,8.0,64.0
4676,69.0,0,60,8.0,64.0
4677,31.0,0,60,12.0,64.0
4678,55.0,0,390,4.0,64.0
4679,65.0,0,390,4.0,64.0
4680,53.0,0,60,10.0,64.0
4681,57.0,0,60,10.0,64.0
4682,69.0,60,60,8.0,64.0
4683,31.0,0,60,12.0,64.0
4684,57.0,0,60,10.0,64.0
4685,65.0,0,60,8.0,64.0
4686,53.0,0,60,10.0,64.0
4687,43.0,0,60,11.0,64.0
4688,47.0,0,60,3.0,64.0
4689,57.0,12,60,10.0,64.0
4690,65.0,0,60,8.0,64.0
4691,53.0,0,60,10.0,64.0
4692,43.0,0,60,11.0,64.0
4693,71.0,48,60,7.0,64.0
4694,31.0,0,60,12.0,64.0
4695,69.0,0,60,8.0,64.0
4696,65.0,0,60,8.0,64.0
4697,31.0,0,60,12.0,64.0
4698,69.0,0,60,8.0,64.0
4699,43.0,0,60,11.0,64.0
4700,57.0,60,60,10.0,64.0
4701,53.0,0,60,10.0,64.0
4702,72.0,0,60,7.0,64.0
4703,31.0,0,60,12.0,64.0
4704,43.0,0,60,11.0,64.0
4705,48.0,48,60,3.0,64.0
4706,53.0,12,60,10.0,64.0
4707,57.0,0,60,10.0,64.0
4708,65.0,0,60,8.0,64.0
4709,69.0,0,60,8.0,64.0
4710,43.0,0,60,11.0,64.0
4711,69.0,0,60,8.0,64.0
4712,65.0,0,60,8.0,64.0
4713,31.0,36,60,12.0,64.0
4714,53.0,0,60,10.0,64.0
4715,57.0,0,60,10.0,64.0
4716,53.0,12,60,10.0,64.0
4717,50.0,48,60,3.0,64.0
4718,31.0,0,60,12.0,64.0
4719,57.0,0,60,10.0,64.0
4720,43.0,0,60,11.0,64.0
4721,69.0,0,60,8.0,64.0
4722,74.0,0,60,7.0,64.0
4723,65.0,0,60,8.0,64.0
4724,53.0,60,60,10.0,64.0
4725,43.0,0,60,11.0,64.0
4726,69.0,0,60,8.0,64.0
4727,65.0,0,60,8.0,64.0
4728,57.0,0,60,10.0,64.0
4729,31.0,0,60,12.0,64.0
4730,67.0,48,180,5.0,64.0
4731,55.0,0,180,5.0,64.0
4732,55.0,0,3750,4.0,64.0
4733,79.0,0,1830,1.0,64.0
4734,52.0,0,60,10.0,64.0
4735,55.0,60,60,10.0,64.0
4736,43.0,0,300,6.0,64.0
4737,43.0,0,60,11.0,64.0
4738,91.0,0,1830,0.0,64.0
4739,88.0,0,1830,0.0,64.0
4740,76.0,0,1830,1.0,64.0
4741,43.0,0,3750,4.0,64.0
4742,64.0,0,1830,4.0,64.0
4743,31.0,0,60,12.0,64.0
4744,67.0,0,60,8.0,64.0
4745,64.0,0,60,8.0,64.0
4746,67.0,0,1830,2.0,64.0
4747,64.0,24,1830,2.0,64.0
4748,67.0,0,60,8.0,64.0
4749,55.0,0,60,10.0,64.0
4750,43.0,60,60,11.0,64.0
4751,31.0,0,60,12.0,64.0
4752,52.0,0,60,10.0,64.0
4753,64.0,0,60,8.0,64.0
4754,55.0,0,60,10.0,64.0
4755,52.0,0,60,10.0,64.0
4756,67.0,12,60,8.0,64.0
4757,31.0,0,60,12.0,64.0
4758,64.0,0,60,8.0,64.0
4759,76.0,0,60,7.0,64.0
4760,52.0,0,60,3.0,64.0
4761,43.0,0,60,11.0,64.0
4762,55.0,0,60,10.0,64.0
4763,52.0,60,60,10.0,64.0
4764,64.0,0,60,8.0,64.0
4765,43.0,0,60,11.0,64.0
4766,31.0,0,60,12.0,64.0
4767,67.0,0,60,8.0,64.0
4768,55.0,0,60,10.0,64.0
4769,53.0,0,60,3.0,64.0
4770,67.0,0,60,8.0,64.0
4771,64.0,0,60,8.0,64.0
4772,52.0,0,60,10.0,64.0
4773,77.0,48,60,7.0,64.0
4774,43.0,0,60,11.0,64.0
4775,31.0,12,60,12.0,64.0
4776,31.0,0,60,12.0,64.0
4777,64.0,0,60,8.0,64.0
4778,55.0,0,60,10.0,64.0
4779,52.0,60,60,10.0,64.0
4780,43.0,0,60,11.0,64.0
4781,67.0,0,60,8.0,64.0
4782,67.0,0,60,8.0,64.0
4783,55.0,0,60,10.0,64.0
4784,43.0,12,90,6.0,64.0
4785,79.0,0,60,7.0,64.0
4786,52.0,0,60,10.0,64.0
4787,31.0,12,60,12.0,64.0
4788,55.0,0,60,5.0,64.0
4789,64.0,0,60,8.0,64.0
4790,67.0,0,60,5.0,64.0
4791,55.0,36,60,3.0,64.0
4792,43.0,0,60,11.0,64.0
4793,31.0,0,60,12.0,64.0
4794,64.0,0,60,8.0,64.0
4795,55.0,0,60,10.0,64.0
4796,67.0,0,60,8.0,64.0
4797,43.0,60,60,11.0,64.0
4798,52.0,0,60,10.0,64.0
4799,43.0,24,390,6.0,64.0
4800,55.0,0,120,5.0,64.0
4801,67.0,48,120,5.0,64.0
4802,67.0,0,60,8.0,64.0
4803,43.0,0,60,11.0,64.0
4804,31.0,60,60,12.0,64.0
4805,64.0,0,60,8.0,64.0
4806,55.0,0,60,10.0,64.0
4807,52.0,0,60,10.0,64.0
4808,64.0,0,60,8.0,64.0
4809,67.0,0,60,8.0,64.0
4810,43.0,0,60,11.0,64.0
4811,31.0,0,60,12.0,64.0
4812,52.0,0,60,10.0,64.0
4813,55.0,12,60,10.0,64.0
4814,67.0,0,60,8.0,64.0
4815,64.0,12,60,8.0,64.0
4816,55.0,0,60,10.0,64.0
4817,43.0,0,60,11.0,64.0
4818,52.0,0,60,10.0,64.0
4819,79.0,0,60,7.0,64.0
4820,31.0,0,60,12.0,64.0
4821,55.0,48,60,3.0,64.0
4822,31.0,0,60,12.0,64.0
4823,64.0,60,60,8.0,64.0
4824,67.0,0,60,8.0,64.0
4825,43.0,0,60,11.0,64.0
4826,52.0,0,60,10.0,64.0
4827,55.0,0,60,10.0,64.0
4828,81.0,0,60,7.0,64.0
4829,31.0,0,60,12.0,64.0
4830,57.0,48,60,3.0,64.0
4831,64.0,0,60,8.0,64.0
4832,67.0,0,60,8.0,64.0
4833,52.0,12,60,10.0,64.0
4834,55.0,0,60,10.0,64.0
4835,43.0,0,60,11.0,64.0
4836,55.0,0,60,10.0,64.0
4837,67.0,0,60,8.0,64.0
4838,64.0,0,60,8.0,64.0
4839,43.0,0,60,11.0,64.0
4840,52.0,36,60,10.0,64.0
4841,31.0,0,60,12.0,64.0
4842,55.0,12,60,10.0,64.0
4843,52.0,0,60,10.0,64.0
4844,64.0,0,60,8.0,64.0
4845,83.0,0,60,7.0,64.0
4846,59.0,48,60,3.0,64.0
4847,31.0,0,60,12.0,64.0
4848,67.0,0,60,8.0,64.0
4849,43.0,0,60,11.0,64.0
4850,55.0,0,60,10.0,64.0
4851,52.0,0,60,10.0,64.0
4852,64.0,0,60,8.0,64.0
4853,43.0,0,60,11.0,64.0
4854,31.0,60,60,12.0,64.0
4855,67.0,0,60,8.0,64.0
4856,55.0,0,60,10.0,64.0
4857,64.0,0,60,8.0,64.0
4858,43.0,24,390,6.0,64.0
4859,55.0,0,120,5.0,64.0
4860,43.0,0,60,11.0,64.0
4861,31.0,0,60,12.0,64.0
4862,52.0,60,60,10.0,64.0
4863,67.0,0,60,8.0,64.0
4864,67.0,48,120,5.0,64.0
4865,67.0,0,60,8.0,64.0
4866,52.0,0,60,10.0,64.0
4867,43.0,0,60,11.0,64.0
4868,64.0,0,60,8.0,64.0
4869,31.0,12,60,12.0,64.0
4870,55.0,0,60,10.0,64.0
4871,60.0,48,60,3.0,64.0
4872,84.0,0,60,7.0,64.0
4873,64.0,0,60,8.0,64.0
4874,31.0,0,60,12.0,64.0
4875,43.0,0,60,11.0,64.0
4876,52.0,0,60,10.0,64.0
4877,67.0,0,60,8.0,64.0
4878,55.0,12,60,10.0,64.0
4879,55.0,0,60,10.0,64.0
4880,52.0,0,60,10.0,64.0
4881,67.0,0,60,8.0,64.0
4882,43.0,60,60,11.0,64.0
4883,64.0,0,60,8.0,64.0
4884,31.0,0,60,12.0,64.0
4885,62.0,0,60,3.0,64.0
4886,86.0,48,60,7.0,64.0
4887,31.0,0,60,12.0,64.0
4888,43.0,0,60,11.0,64.0
4889,64.0,12,60,8.0,64.0
4890,55.0,0,60,10.0,64.0
4891,52.0,0,60,10.0,64.0
4892,67.0,0,60,8.0,64.0
4893,31.0,0,60,12.0,64.0
4894,55.0,0,60,10.0,64.0
4895,52.0,0,60,10.0,64.0
4896,43.0,0,60,11.0,64.0
4897,67.0,0,60,8.0,64.0
4898,64.0,36,60,8.0,64.0
4899,64.0,0,60,8.0,64.0
4900,31.0,12,60,12.0,64.0
4901,55.0,0,60,10.0,64.0
4902,43.0,0,60,11.0,64.0
4903,67.0,0,60,8.0,64.0
4904,64.0,48,60,3.0,64.0
4905,88.0,0,60,7.0,64.0
4906,52.0,0,60,10.0,64.0
4907,67.0,0,60,8.0,64.0
4908,43.0,0,60,11.0,64.0
4909,55.0,60,60,10.0,64.0
4910,64.0,0,60,8.0,64.0
4911,52.0,0,60,10.0,64.0
4912,31.0,0,60,12.0,64.0
4913,55.0,0,60,10.0,64.0
4914,52.0,60,60,10.0,64.0
4915,67.0,0,60,8.0,64.0
4916,64.0,0,60,8.0,64.0
4917,31.0,0,60,12.0,64.0
4918,43.0,0,60,11.0,64.0
4919,31.0,0,60,12.0,64.0
4920,67.0,0,60,8.0,64.0
4921,43.0,0,60,11.0,64.0
4922,52.0,60,60,10.0,64.0
4923,55.0,0,60,10.0,64.0
4924,64.0,0,60,8.0,64.0
4925,55.0,0,60,10.0,64.0
4926,52.0,0,60,10.0,64.0
4927,73.0,0,60,7.0,64.0
4928,31.0,0,60,12.0,64.0
4929,43.0,0,60,11.0,64.0
4930,49.0,48,60,3.0,64.0
4931,67.0,0,60,8.0,64.0
4932,64.0,12,60,8.0,64.0
4933,31.0,0,60,12.0,64.0
4934,64.0,0,60,8.0,64.0
4935,67.0,0,60,8.0,64.0
4936,43.0,60,60,11.0,64.0
4937,52.0,0,60,10.0,64.0
4938,55.0,0,60,10.0,64.0
4939,67.0,0,60,8.0,64.0
4940,74.0,48,60,7.0,64.0
4941,50.0,0,60,3.0,64.0
4942,64.0,0,60,8.0,64.0
4943,31.0,0,60,12.0,64.0
4944,52.0,0,60,10.0,64.0
4945,55.0,0,60,10.0,64.0
4946,43.0,12,60,11.0,64.0
4947,31.0,36,60,12.0,64.0
4948,67.0,0,60,8.0,64.0
4949,55.0,0,60,10.0,64.0
4950,52.0,0,60,10.0,64.0
4951,43.0,0,60,11.0,64.0
4952,64.0,0,60,8.0,64.0
4953,52.0,0,60,3.0,64.0
4954,76.0,48,60,7.0,64.0
4955,64.0,0,60,8.0,64.0
4956,43.0,0,60,11.0,64.0
4957,52.0,0,60,10.0,64.0
4958,31.0,12,60,12.0,64.0
4959,67.0,0,60,8.0,64.0
4960,55.0,0,60,10.0,64.0
4961,43.0,0,60,11.0,64.0
4962,55.0,60,60,10.0,64.0
4963,64.0,0,60,8.0,64.0
4964,67.0,0,60,8.0,64.0
4965,52.0,0,60,10.0,64.0
4966,31.0,0,60,12.0,64.0
4967,74.0,0,1830,1.0,64.0
4968,62.0,0,1830,4.0,64.0
4969,43.0,0,60,11.0,64.0
4970,31.0,0,60,12.0,64.0
4971,55.0,0,180,5.0,64.0
4972,89.0,0,1830,0.0,64.0
4973,86.0,0,1830,0.0,64.0
4974,43.0,0,300,6.0,64.0
4975,62.0,0,1830,2.0,64.0
4976,65.0,0,1830,2.0,64.0
4977,67.0,0,180,5.0,64.0
4978,77.0,24,1830,1.0,64.0
4979,50.0,0,60,10.0,64.0
4980,53.0,0,60,10.0,64.0
4981,65.0,60,60,8.0,64.0
4982,62.0,0,60,8.0,64.0
4983,65.0,0,60,8.0,64.0
4984,53.0,0,60,10.0,64.0
4985,50.0,60,60,10.0,64.0
4986,43.0,0,60,11.0,64.0
4987,31.0,0,60,12.0,64.0
4988,62.0,0,60,8.0,64.0
4989,50.0,12,60,10.0,64.0
4990,53.0,0,60,10.0,64.0
4991,43.0,0,60,11.0,64.0
4992,53.0,48,60,3.0,64.0
4993,62.0,0,60,8.0,64.0
4994,65.0,0,60,8.0,64.0
4995,31.0,0,60,12.0,64.0
4996,77.0,0,60,7.0,64.0
4997,65.0,60,60,8.0,64.0
4998,53.0,0,60,10.0,64.0
4999,50.0,0,60,10.0,64.0
5000,62.0,0,60,8.0,64.0
5001,31.0,0,60,12.0,64.0
5002,43.0,0,60,11.0,64.0
5003,55.0,48,60,3.0,64.0
5004,50.0,0,60,10.0,64.0
5005,53.0,0,60,10.0,64.0
5006,31.0,0,60,12.0,64.0
5007,65.0,0,60,8.0,64.0
5008,62.0,0,60,8.0,64.0
5009,43.0,12,60,11.0,64.0
5010,79.0,0,60,7.0,64.0
5011,50.0,0,60,10.0,64.0
5012,53.0,0,60,10.0,64.0
5013,43.0,0,60,11.0,64.0
5014,31.0,0,60,12.0,64.0
5015,62.0,0,60,8.0,64.0
5016,65.0,60,60,8.0,64.0
5017,53.0,12,60,10.0,64.0
5018,81.0,0,60,7.0,64.0
5019,43.0,12,90,6.0,64.0
5020,55.0,36,60,5.0,64.0
5021,67.0,0,60,5.0,64.0
5022,62.0,0,60,8.0,64.0
5023,57.0,0,60,3.0,64.0
5024,50.0,0,60,10.0,64.0
5025,65.0,0,60,8.0,64.0
5026,31.0,0,60,12.0,64.0
5027,43.0,0,60,11.0,64.0
5028,50.0,0,60,10.0,64.0
5029,53.0,0,60,10.0,64.0
5030,31.0,60,60,12.0,64.0
5031,62.0,0,60,8.0,64.0
5032,65.0,0,60,8.0,64.0
5033,43.0,0,60,11.0,64.0
5034,65.0,60,60,8.0,64.0
5035,55.0,48,120,5.0,64.0
5036,43.0,24,390,6.0,64.0
5037,67.0,0,120,5.0,64.0
5038,62.0,0,60,8.0,64.0
5039,43.0,0,60,11.0,64.0
5040,53.0,0,60,10.0,64.0
5041,31.0,0,60,12.0,64.0
5042,50.0,0,60,10.0,64.0
5043,31.0,0,60,12.0,64.0
5044,53.0,0,60,10.0,64.0
5045,43.0,0,60,11.0,64.0
5046,65.0,12,60,8.0,64.0
5047,62.0,0,60,8.0,64.0
5048,50.0,0,60,10.0,64.0
5049,43.0,0,60,11.0,64.0
5050,59.0,0,60,3.0,64.0
5051,65.0,0,60,8.0,64.0
5052,31.0,12,60,12.0,64.0
5053,83.0,48,60,7.0,64.0
5054,53.0,0,60,10.0,64.0
5055,50.0,0,60,10.0,64.0
5056,62.0,0,60,8.0,64.0
5057,31.0,60,60,12.0,64.0
5058,43.0,0,60,11.0,64.0
5059,65.0,0,60,8.0,64.0
5060,50.0,0,60,10.0,64.0
5061,62.0,0,60,8.0,64.0
5062,53.0,0,60,10.0,64.0
5063,31.0,0,60,12.0,64.0
5064,50.0,0,60,10.0,64.0
5065,53.0,0,60,10.0,64.0
5066,43.0,0,60,11.0,64.0
5067,84.0,48,60,7.0,64.0
5068,60.0,0,60,3.0,64.0
5069,65.0,12,60,8.0,64.0
5070,62.0,0,60,8.0,64.0
5071,31.0,0,60,12.0,64.0
5072,50.0,0,60,10.0,64.0
5073,53.0,0,60,10.0,64.0
5074,43.0,36,60,11.0,64.0
5075,65.0,0,60,8.0,64.0
5076,62.0,0,60,8.0,64.0
5077,31.0,0,60,12.0,64.0
5078,86.0,0,60,7.0,64.0
5079,43.0,0,60,11.0,64.0
5080,62.0,48,60,3.0,64.0
5081,50.0,0,60,10.0,64.0
5082,53.0,0,60,10.0,64.0
5083,65.0,0,60,8.0,64.0
5084,62.0,12,60,8.0,64.0
5085,53.0,0,60,10.0,64.0
5086,50.0,0,60,10.0,64.0
5087,31.0,60,60,12.0,64.0
5088,65.0,0,60,8.0,64.0
5089,62.0,0,60,8.0,64.0
5090,43.0,0,60,11.0,64.0
5091,31.0,0,60,12.0,64.0
5092,43.0,24,390,6.0,64.0
5093,53.0,0,60,10.0,64.0
5094,67.0,48,120,5.0,64.0
5095,62.0,60,60,8.0,64.0
5096,65.0,0,60,8.0,64.0
5097,55.0,0,120,5.0,64.0
5098,50.0,0,60,10.0,64.0
5099,43.0,0,60,11.0,64.0
5100,43.0,0,60,11.0,64.0
5101,53.0,0,60,10.0,64.0
5102,50.0,0,60,10.0,64.0
5103,62.0,12,60,8.0,64.0
5104,65.0,0,60,8.0,64.0
5105,31.0,0,60,12.0,64.0
5106,86.0,0,60,7.0,64.0
5107,50.0,12,60,10.0,64.0
5108,31.0,0,60,12.0,64.0
5109,62.0,48,60,3.0,64.0
5110,43.0,0,60,11.0,64.0
5111,53.0,0,60,10.0,64.0
5112,62.0,0,60,8.0,64.0
5113,65.0,0,60,8.0,64.0
5114,62.0,60,60,8.0,64.0
5115,50.0,0,60,10.0,64.0
5116,53.0,0,60,10.0,64.0
5117,65.0,0,60,8.0,64.0
5118,43.0,0,60,11.0,64.0
5119,31.0,0,60,12.0,64.0
5120,88.0,48,60,7.0,64.0
5121,50.0,0,60,10.0,64.0
5122,53.0,0,60,10.0,64.0
5123,64.0,0,60,3.0,64.0
5124,62.0,12,60,8.0,64.0
5125,43.0,0,60,11.0,64.0
5126,31.0,0,60,12.0,64.0
5127,65.0,0,60,8.0,64.0
5128,62.0,0,60,8.0,64.0
5129,65.0,0,60,8.0,64.0
5130,31.0,0,60,12.0,64.0
5131,43.0,36,60,11.0,64.0
5132,50.0,0,60,10.0,64.0
5133,53.0,0,60,10.0,64.0
5134,43.0,0,60,11.0,64.0
5135,31.0,0,60,12.0,64.0
5136,53.0,12,60,10.0,64.0
5137,89.0,0,60,7.0,64.0
5138,50.0,0,60,10.0,64.0
5139,65.0,0,60,8.0,64.0
5140,62.0,0,60,8.0,64.0
5141,65.0,48,60,3.0,64.0
5142,50.0,0,60,10.0,64.0
5143,53.0,0,60,10.0,64.0
5144,62.0,60,60,8.0,64.0
5145,65.0,0,60,8.0,64.0
5146,43.0,0,60,11.0,64.0
5147,31.0,0,60,12.0,64.0
5148,65.0,0,60,8.0,64.0
5149,50.0,60,60,10.0,64.0
5150,62.0,0,60,8.0,64.0
5151,43.0,0,60,11.0,64.0
5152,53.0,0,60,10.0,64.0
5153,31.0,0,60,12.0,64.0
5154,31.0,0,60,12.0,64.0
5155,50.0,0,60,10.0,64.0
5156,53.0,60,60,10.0,64.0
5157,65.0,0,60,8.0,64.0
5158,62.0,0,60,8.0,64.0
5159,43.0,0,60,11.0,64.0
5160,50.0,0,60,10.0,64.0
5161,47.0,0,60,3.0,64.0
5162,53.0,12,60,10.0,64.0
5163,62.0,0,60,8.0,64.0
5164,65.0,0,60,8.0,64.0
5165,43.0,0,60,11.0,64.0
5166,31.0,0,60,12.0,64.0
5167,71.0,48,60,7.0,64.0
5168,31.0,0,60,12.0,64.0
5169,53.0,0,60,10.0,64.0
5170,65.0,0,60,8.0,64.0
5171,43.0,60,60,11.0,64.0
5172,50.0,0,60,10.0,64.0
5173,62.0,0,60,8.0,64.0
5174,48.0,0,60,3.0,64.0
5175,31.0,0,60,12.0,64.0
5176,72.0,48,60,7.0,64.0
5177,62.0,0,60,8.0,64.0
5178,50.0,0,60,10.0,64.0
5179,65.0,12,60,8.0,64.0
5180,53.0,0,60,10.0,64.0
5181,43.0,0,60,11.0,64.0
5182,62.0,0,60,8.0,64.0
5183,53.0,0,60,10.0,64.0
5184,50.0,0,60,10.0,64.0
5185,31.0,0,60,12.0,64.0
5186,65.0,0,60,8.0,64.0
5187,43.0,36,60,11.0,64.0
5188,74.0,0,60,7.0,64.0
5189,31.0,0,60,12.0,64.0
5190,65.0,0,60,8.0,64.0
5191,62.0,0,60,8.0,64.0
5192,43.0,0,60,11.0,64.0
5193,50.0,48,60,3.0,64.0
5194,53.0,0,60,10.0,64.0
5195,50.0,12,60,10.0,64.0
5196,50.0,0,60,10.0,64.0
5197,53.0,0,60,10.0,64.0
5198,65.0,0,60,8.0,64.0
5199,62.0,60,60,8.0,64.0
5200,43.0,0,60,11.0,64.0
5201,31.0,0,60,12.0,64.0
5202,64.0,0,60,8.0,64.0
5203,76.0,0,900,1.0,64.0
5204,60.0,60,60,8.0,64.0
5205,55.0,0,900,4.0,64.0
5206,52.0,0,60,10.0,64.0
5207,43.0,48,900,4.0,64.0
5208,55.0,48,180,5.0,64.0
5209,67.0,0,180,5.0,64.0
5210,43.0,12,300,6.0,64.0
5211,72.0,0,900,1.0,64.0
5212,48.0,0,60,10.0,64.0
5213,43.0,0,60,11.0,64.0
5214,60.0,0,900,4.0,64.0
5215,88.0,0,900,0.0,64.0
5216,84.0,0,900,0.0,64.0
5217,60.0,0,900,2.0,64.0
5218,31.0,0,60,12.0,64.0
5219,64.0,48,960,2.0,64.0
5220,43.0,0,60,11.0,64.0
5221,60.0,0,60,8.0,64.0
5222,31.0,0,60,12.0,64.0
5223,64.0,60,60,8.0,64.0
5224,48.0,0,60,10.0,64.0
5225,52.0,0,60,10.0,64.0
5226,64.0,12,60,8.0,64.0
5227,48.0,0,60,10.0,64.0
5228,43.0,0,60,11.0,64.0
5229,52.0,0,60,3.0,64.0
5230,31.0,0,60,12.0,64.0
5231,76.0,0,60,7.0,64.0
5232,60.0,0,60,8.0,64.0
5233,52.0,0,60,10.0,64.0
5234,64.0,0,60,8.0,64.0
5235,60.0,0,60,8.0,64.0
5236,48.0,0,60,10.0,64.0
5237,52.0,0,60,10.0,64.0
5238,43.0,0,60,11.0,64.0
5239,31.0,60,60,12.0,64.0
5240,43.0,0,60,11.0,64.0
5241,60.0,0,60,8.0,64.0
5242,64.0,0,60,8.0,64.0
5243,31.0,0,60,12.0,64.0
5244,53.0,48,60,3.0,64.0
5245,48.0,0,60,10.0,64.0
5246,52.0,0,60,10.0,64.0
5247,77.0,0,60,7.0,64.0
5248,48.0,0,60,10.0,64.0
5249,52.0,0,60,10.0,64.0
5250,43.0,0,60,11.0,64.0
5251,31.0,0,60,12.0,64.0
5252,60.0,0,60,8.0,64.0
5253,64.0,60,60,8.0,64.0
5254,64.0,0,60,8.0,64.0
5255,55.0,0,60,5.0,64.0
5256,60.0,12,60,8.0,64.0
5257,48.0,0,60,10.0,64.0
5258,52.0,0,60,10.0,64.0
5259,43.0,0,60,11.0,64.0
5260,55.0,36,60,3.0,64.0
5261,31.0,0,60,12.0,64.0
5262,79.0,0,60,7.0,64.0
5263,67.0,0,60,5.0,64.0
5264,43.0,12,90,6.0,64.0
5265,31.0,0,60,12.0,64.0
5266,48.0,60,60,10.0,64.0
5267,60.0,0,60,8.0,64.0
5268,64.0,0,60,8.0,64.0
5269,43.0,0,60,11.0,64.0
5270,52.0,0,60,10.0,64.0
5271,67.0,48,120,5.0,64.0
5272,55.0,0,120,5.0,64.0
5273,60.0,12,90,8.0,64.0
5274,64.0,0,90,8.0,64.0
5275,31.0,48,60,12.0,64.0
5276,43.0,0,60,11.0,64.0
5277,48.0,0,60,10.0,64.0
5278,52.0,0,60,10.0,64.0
5279,43.0,24,390,6.0,64.0
5280,52.0,0,60,10.0,64.0
5281,48.0,12,60,10.0,64.0
5282,31.0,0,60,12.0,64.0
5283,43.0,0,60,11.0,64.0
5284,55.0,0,60,3.0,64.0
5285,79.0,48,60,7.0,64.0
5286,31.0,0,60,12.0,64.0
5287,43.0,12,60,11.0,64.0
5288,67.0,0,60,8.0,64.0
5289,48.0,0,60,10.0,64.0
5290,52.0,0,60,10.0,64.0
5291,43.0,0,60,11.0,64.0
5292,52.0,0,60,10.0,64.0
5293,31.0,60,60,12.0,64.0
5294,48.0,0,60,10.0,64.0
5295,43.0,0,60,11.0,64.0
5296,52.0,12,60,10.0,64.0
5297,31.0,0,60,12.0,64.0
5298,57.0,0,60,3.0,64.0
5299,81.0,48,60,7.0,64.0
5300,48.0,0,60,10.0,64.0
5301,69.0,0,60,8.0,64.0
5302,48.0,0,60,10.0,64.0
5303,52.0,36,60,10.0,64.0
5304,31.0,0,60,12.0,64.0
5305,43.0,0,60,11.0,64.0
5306,52.0,0,60,10.0,64.0
5307,48.0,12,60,10.0,64.0
5308,31.0,0,60,12.0,64.0
5309,71.0,0,60,8.0,64.0
5310,83.0,0,60,7.0,64.0
5311,59.0,0,60,3.0,64.0
5312,43.0,0,60,11.0,64.0
5313,31.0,0,60,12.0,64.0
5314,43.0,0,60,11.0,64.0
5315,48.0,12,60,10.0,64.0
5316,52.0,0,60,10.0,64.0
5317,67.0,48,120,5.0,64.0
5318,55.0,0,120,5.0,64.0
5319,43.0,0,390,6.0,64.0
5320,79.0,24,390,0.0,64.0
5321,55.0,0,60,10.0,64.0
5322,67.0,0,390,2.0,64.0
5323,76.0,0,870,2.0,64.0
5324,55.0,24,870,4.0,64.0
5325,88.0,0,870,0.0,64.0
5326,64.0,60,60,10.0,64.0
5327,31.0,0,60,12.0,64.0
5328,43.0,0,870,4.0,64.0
5329,43.0,0,60,11.0,64.0
5330,55.0,0,60,10.0,64.0
5331,64.0,0,60,10.0,64.0
5332,43.0,0,60,11.0,64.0
5333,31.0,12,60,12.0,64.0
5334,72.0,0,60,8.0,64.0
5335,64.0,0,60,10.0,64.0
5336,55.0,12,60,10.0,64.0
5337,31.0,0,60,12.0,64.0
5338,84.0,48,60,7.0,64.0
5339,43.0,0,60,11.0,64.0
5340,60.0,0,60,3.0,64.0
5341,55.0,0,60,10.0,64.0
5342,31.0,0,60,12.0,64.0
5343,64.0,60,60,10.0,64.0
5344,43.0,0,60,11.0,64.0
5345,64.0,0,60,10.0,64.0
5346,43.0,12,60,11.0,64.0
5347,74.0,0,60,8.0,64.0
5348,62.0,0,60,3.0,64.0
5349,31.0,0,60,12.0,64.0
5350,86.0,48,60,7.0,64.0
5351,55.0,0,60,10.0,64.0
5352,31.0,0,60,12.0,64.0
5353,55.0,0,60,10.0,64.0
5354,43.0,36,60,11.0,64.0
5355,64.0,0,60,10.0,64.0
5356,31.0,0,60,12.0,64.0
5357,43.0,0,60,11.0,64.0
5358,64.0,0,60,3.0,64.0
5359,88.0,48,60,7.0,64.0
5360,76.0,0,60,8.0,64.0
5361,55.0,12,60,10.0,64.0
5362,64.0,0,60,10.0,64.0
5363,64.0,0,60,10.0,64.0
5364,55.0,60,60,10.0,64.0
5365,31.0,0,60,12.0,64.0
5366,43.0,0,60,11.0,64.0
5367,64.0,0,60,10.0,64.0
5368,31.0,60,60,12.0,64.0
5369,53.0,0,60,10.0,64.0
5370,77.0,24,870,0.0,64.0
5371,65.0,0,870,2.0,64.0
5372,43.0,0,60,11.0,64.0
5373,53.0,0,60,10.0,64.0
5374,43.0,0,60,11.0,64.0
5375,64.0,0,60,10.0,64.0
5376,31.0,60,60,12.0,64.0
5377,53.0,0,90,3.0,64.0
5378,43.0,0,60,11.0,64.0
5379,77.0,12,90,7.0,64.0
5380,65.0,0,90,8.0,64.0
5381,53.0,0,60,10.0,64.0
5382,31.0,48,60,12.0,64.0
5383,64.0,0,60,10.0,64.0
5384,53.0,0,60,10.0,64.0
5385,43.0,60,60,11.0,64.0
5386,31.0,0,60,12.0,64.0
5387,64.0,0,60,10.0,64.0
5388,76.0,0,90,8.0,64.0
5389,31.0,0,60,12.0,64.0
5390,64.0,48,60,10.0,64.0
5391,64.0,12,90,3.0,64.0
5392,43.0,0,60,11.0,64.0
5393,53.0,0,60,10.0,64.0
5394,88.0,0,90,7.0,64.0
5395,43.0,36,60,11.0,64.0
5396,31.0,0,60,12.0,64.0
5397,64.0,0,60,10.0,64.0
5398,53.0,0,60,10.0,64.0
5399,31.0,0,60,12.0,64.0
5400,64.0,0,60,10.0,64.0
5401,43.0,42,60,11.0,64.0
5402,53.0,0,60,10.0,64.0
5403,62.0,0,90,3.0,64.0
5404,86.0,0,90,7.0,64.0
5405,74.0,12,90,8.0,64.0
5406,64.0,0,60,10.0,64.0
5407,53.0,0,60,10.0,64.0
5408,67.0,0,30,5.0,64.0
5409,31.0,60,60,12.0,64.0
5410,55.0,6,30,5.0,64.0
5411,43.0,0,60,11.0,64.0
5412,62.0,0,60,10.0,64.0
5413,85.0,12,90,7.0,64.0
5414,86.0,24,870,0.0,64.0
5415,73.0,0,90,8.0,64.0
5416,43.0,48,60,11.0,64.0
5417,55.0,0,780,4.0,64.0
5418,43.0,0,300,6.0,64.0
5419,43.0,0,780,4.0,64.0
5420,55.0,0,120,5.0,64.0
5421,67.0,48,120,5.0,64.0
5422,31.0,0,60,12.0,64.0
5423,53.0,0,60,10.0,64.0
5424,74.0,0,870,2.0,64.0
5425,61.0,0,90,3.0,64.0
5426,62.0,0,60,10.0,64.0
5427,53.0,12,60,10.0,64.0
5428,31.0,0,60,12.0,64.0
5429,43.0,0,60,11.0,64.0
5430,43.0,0,60,11.0,64.0
5431,74.0,12,90,8.0,64.0
5432,86.0,0,90,7.0,64.0
5433,53.0,0,60,10.0,64.0
5434,62.0,0,90,3.0,64.0
5435,62.0,0,60,10.0,64.0
5436,31.0,48,60,12.0,64.0
5437,62.0,0,60,10.0,64.0
5438,53.0,0,60,10.0,64.0
5439,43.0,0,60,11.0,64.0
5440,31.0,60,60,12.0,64.0
5441,53.0,12,90,3.0,64.0
5442,31.0,48,60,12.0,64.0
5443,65.0,0,90,8.0,64.0
5444,43.0,0,60,11.0,64.0
5445,53.0,0,60,10.0,64.0
5446,77.0,0,90,7.0,64.0
5447,62.0,0,60,10.0,64.0
5448,31.0,0,60,12.0,64.0
5449,53.0,0,60,10.0,64.0
5450,62.0,0,60,10.0,64.0
5451,43.0,36,60,11.0,64.0
5452,31.0,0,60,12.0,64.0
5453,86.0,0,90,7.0,64.0
5454,62.0,0,90,3.0,64.0
5455,43.0,48,60,11.0,64.0
5456,62.0,0,60,10.0,64.0
5457,74.0,0,90,8.0,64.0
5458,53.0,0,60,10.0,64.0
5459,43.0,12,90,6.0,64.0
5460,31.0,0,60,12.0,64.0
5461,43.0,0,60,11.0,64.0
5462,62.0,0,60,10.0,64.0
5463,53.0,60,60,10.0,64.0
5464,76.0,24,870,0.0,64.0
5465,52.0,60,60,10.0,64.0
5466,62.0,0,60,10.0,64.0
5467,43.0,0,390,6.0,64.0
5468,43.0,0,60,11.0,64.0
5469,31.0,0,60,12.0,64.0
5470,64.0,24,840,2.0,64.0
5471,43.0,0,60,11.0,64.0
5472,62.0,0,60,10.0,64.0
5473,52.0,60,60,10.0,64.0
5474,31.0,0,60,12.0,64.0
5475,64.0,0,90,8.0,64.0
5476,31.0,48,60,12.0,64.0
5477,62.0,0,60,10.0,64.0
5478,52.0,12,90,3.0,64.0
5479,76.0,0,90,7.0,64.0
5480,43.0,0,60,11.0,64.0
5481,52.0,0,60,10.0,64.0
5482,31.0,0,60,12.0,64.0
5483,43.0,0,60,11.0,64.0
5484,62.0,0,60,10.0,64.0
5485,52.0,60,60,10.0,64.0
5486,62.0,0,90,3.0,64.0
5487,43.0,0,60,11.0,64.0
5488,31.0,0,60,12.0,64.0
5489,62.0,48,60,10.0,64.0
5490,52.0,0,60,10.0,64.0
5491,86.0,0,90,7.0,64.0
5492,74.0,12,90,8.0,64.0
5493,43.0,0,60,11.0,64.0
5494,62.0,0,60,10.0,64.0
5495,52.0,0,60,10.0,64.0
5496,31.0,36,60,12.0,64.0
5497,43.0,42,60,11.0,64.0
5498,60.0,12,90,3.0,64.0
5499,62.0,0,60,10.0,64.0
5500,52.0,0,60,10.0,64.0
5501,31.0,0,60,12.0,64.0
5502,72.0,0,90,8.0,64.0
5503,84.0,0,90,7.0,64.0
5504,55.0,6,30,5.0,64.0
5505,31.0,0,60,12.0,64.0
5506,67.0,0,30,5.0,64.0
5507,62.0,0,60,10.0,64.0
5508,52.0,60,60,10.0,64.0
5509,43.0,0,60,11.0,64.0
5510,60.0,0,60,10.0,64.0
5511,52.0,0,60,10.0,64.0
5512,55.0,0,120,5.0,64.0
5513,67.0,48,120,5.0,64.0
5514,59.0,12,90,3.0,64.0
5515,55.0,0,870,4.0,64.0
5516,72.0,0,870,2.0,64.0
5517,84.0,24,870,0.0,64.0
5518,43.0,0,60,11.0,64.0
5519,71.0,0,90,8.0,64.0
5520,43.0,0,390,6.0,64.0
5521,31.0,48,60,12.0,64.0
5522,43.0,0,870,4.0,64.0
5523,83.0,0,90,7.0,64.0
5524,43.0,0,60,11.0,64.0
5525,52.0,0,60,10.0,64.0
5526,31.0,12,60,12.0,64.0
5527,60.0,0,60,10.0,64.0
5528,31.0,0,60,12.0,64.0
5529,84.0,0,90,7.0,64.0
5530,60.0,0,90,3.0,64.0
5531,72.0,12,90,8.0,64.0
5532,43.0,0,60,11.0,64.0
5533,60.0,0,60,10.0,64.0
5534,52.0,48,60,10.0,64.0
5535,43.0,60,60,11.0,64.0
5536,60.0,0,60,10.0,64.0
5537,52.0,0,60,10.0,64.0
5538,31.0,0,60,12.0,64.0
5539,31.0,0,60,12.0,64.0
5540,60.0,0,60,10.0,64.0
5541,64.0,12,90,8.0,64.0
5542,52.0,0,90,3.0,64.0
5543,76.0,0,90,7.0,64.0
5544,43.0,48,60,11.0,64.0
5545,52.0,0,60,10.0,64.0
5546,31.0,0,60,12.0,64.0
5547,43.0,12,60,11.0,64.0
5548,52.0,0,60,10.0,64.0
5549,60.0,0,60,10.0,64.0
5550,72.0,0,90,8.0,64.0
5551,84.0,12,90,7.0,64.0
5552,60.0,0,90,3.0,64.0
5553,31.0,0,60,12.0,64.0
5554,60.0,48,60,10.0,64.0
5555,52.0,0,60,10.0,64.0
5556,43.0,0,60,11.0,64.0
5557,60.0,0,60,10.0,64.0
5558,43.0,60,60,11.0,64.0
5559,31.0,0,60,12.0,64.0
5560,52.0,0,60,10.0,64.0
5561,60.0,0,60,10.0,64.0
5562,74.0,24,870,0.0,64.0
5563,31.0,60,60,12.0,64.0
5564,62.0,0,870,2.0,64.0
5565,50.0,0,60,10.0,64.0
5566,43.0,0,60,11.0,64.0
5567,50.0,0,60,10.0,64.0
5568,31.0,0,60,12.0,64.0
5569,60.0,0,60,10.0,64.0
5570,43.0,60,60,11.0,64.0
5571,74.0,12,90,7.0,64.0
5572,62.0,0,90,8.0,64.0
5573,43.0,0,60,11.0,64.0
5574,50.0,0,90,3.0,64.0
5575,60.0,48,60,10.0,64.0
5576,31.0,0,60,12.0,64.0
5577,50.0,0,60,10.0,64.0
5578,31.0,60,60,12.0,64.0
5579,43.0,0,60,11.0,64.0
5580,50.0,0,60,10.0,64.0
5581,60.0,0,60,10.0,64.0
5582,43.0,0,60,11.0,64.0
5583,50.0,48,60,10.0,64.0
5584,31.0,0,60,12.0,64.0
5585,72.0,12,90,8.0,64.0
5586,84.0,0,90,7.0,64.0
5587,60.0,0,60,10.0,64.0
5588,60.0,0,90,3.0,64.0
5589,43.0,36,60,11.0,64.0
5590,50.0,0,60,10.0,64.0
5591,60.0,0,60,10.0,64.0
5592,31.0,0,60,12.0,64.0
5593,71.0,12,90,8.0,64.0
5594,43.0,42,60,11.0,64.0
5595,83.0,0,90,7.0,64.0
5596,60.0,0,60,10.0,64.0
5597,50.0,0,60,10.0,64.0
5598,31.0,0,60,12.0,64.0
5599,59.0,0,90,3.0,64.0
5600,60.0,0,60,10.0,64.0
5601,50.0,0,60,10.0,64.0
5602,43.0,60,60,11.0,64.0
5603,55.0,0,30,5.0,64.0
5604,31.0,0,60,12.0,64.0
5605,67.0,6,30,5.0,64.0
5606,71.0,0,870,2.0,64.0
5607,43.0,0,300,6.0,64.0
5608,83.0,0,870,0.0,64.0
5609,55.0,0,780,4.0,64.0
5610,43.0,0,780,4.0,64.0
5611,82.0,0,90,7.0,64.0
5612,70.0,12,90,8.0,64.0
5613,43.0,0,60,11.0,64.0
5614,55.0,0,120,5.0,64.0
5615,67.0,48,120,5.0,64.0
5616,59.0,0,60,10.0,64.0
5617,58.0,0,90,3.0,64.0
5618,50.0,0,60,10.0,64.0
5619,31.0,48,60,12.0,64.0
5620,31.0,0,60,12.0,64.0
5621,50.0,0,60,10.0,64.0
5622,59.0,0,60,10.0,64.0
5623,43.0,12,60,11.0,64.0
5624,59.0,0,90,3.0,64.0
5625,59.0,0,60,10.0,64.0
5626,83.0,12,90,7.0,64.0
5627,71.0,0,90,8.0,64.0
5628,50.0,0,60,10.0,64.0
5629,31.0,48,60,12.0,64.0
5630,43.0,0,60,11.0,64.0
5631,43.0,0,60,11.0,64.0
5632,31.0,0,60,12.0,64.0
5633,50.0,0,60,10.0,64.0
5634,59.0,60,60,10.0,64.0
5635,62.0,12,90,8.0,64.0
5636,59.0,0,60,10.0,64.0
5637,50.0,0,60,10.0,64.0
5638,43.0,48,60,11.0,64.0
5639,74.0,0,90,7.0,64.0
5640,31.0,0,60,12.0,64.0
5641,50.0,0,90,3.0,64.0
5642,31.0,0,60,12.0,64.0
5643,43.0,0,60,11.0,64.0
5644,59.0,36,60,10.0,64.0
5645,50.0,0,60,10.0,64.0
5646,43.0,0,60,11.0,64.0
5647,50.0,48,60,10.0,64.0
5648,59.0,0,60,10.0,64.0
5649,83.0,0,90,7.0,64.0
5650,71.0,12,90,8.0,64.0
5651,31.0,0,60,12.0,64.0
5652,59.0,0,90,3.0,64.0
5653,43.0,0,90,6.0,64.0
5654,59.0,0,60,10.0,64.0
5655,50.0,0,60,10.0,64.0
5656,43.0,60,60,11.0,64.0
5657,31.0,0,60,12.0,64.0
5658,60.0,24,870,2.0,64.0
5659,43.0,24,390,6.0,64.0
5660,31.0,0,60,12.0,64.0
5661,72.0,0,870,0.0,64.0
5662,59.0,0,60,10.0,64.0
5663,48.0,0,60,10.0,64.0
5664,43.0,60,60,11.0,64.0
5665,43.0,0,60,11.0,64.0
5666,31.0,0,60,12.0,64.0
5667,48.0,0,60,10.0,64.0
5668,59.0,60,60,10.0,64.0
5669,59.0,0,60,10.0,64.0
5670,48.0,48,60,10.0,64.0
5671,60.0,0,90,8.0,64.0
5672,31.0,0,60,12.0,64.0
5673,72.0,12,90,7.0,64.0
5674,48.0,0,90,3.0,64.0
5675,43.0,0,60,11.0,64.0
5676,31.0,0,60,12.0,64.0
5677,48.0,60,60,10.0,64.0
5678,59.0,0,60,10.0,64.0
5679,43.0,0,60,11.0,64.0
5680,83.0,0,90,7.0,64.0
5681,43.0,0,60,11.0,64.0
5682,31.0,48,60,12.0,64.0
5683,59.0,0,60,10.0,64.0
5684,71.0,0,90,8.0,64.0
5685,48.0,0,60,10.0,64.0
5686,59.0,12,90,3.0,64.0
5687,48.0,36,60,10.0,64.0
5688,59.0,0,60,10.0,64.0
5689,43.0,0,60,11.0,64.0
5690,31.0,0,60,12.0,64.0
5691,81.0,0,90,7.0,64.0
5692,57.0,0,90,3.0,64.0
5693,43.0,0,60,11.0,64.0
5694,31.0,0,60,12.0,64.0
5695,59.0,42,60,10.0,64.0
5696,48.0,0,60,10.0,64.0
5697,69.0,12,90,8.0,64.0
5698,31.0,0,60,12.0,64.0
5699,43.0,0,60,11.0,64.0
5700,55.0,0,30,5.0,64.0
5701,67.0,6,30,5.0,64.0
5702,59.0,60,60,10.0,64.0
5703,48.0,0,60,10.0,64.0
5704,43.0,48,60,11.0,64.0
5705,54.0,12,90,3.0,64.0
5706,55.0,0,390,4.0,64.0
5707,43.0,0,390,4.0,64.0
5708,78.0,0,90,7.0,64.0
5709,66.0,0,90,8.0,64.0
5710,69.0,0,390,2.0,64.0
5711,43.0,2,240,6.0,64.0
5712,31.0,0,60,12.0,64.0
5713,81.0,0,390,0.0,64.0
5714,48.0,0,60,10.0,64.0
5715,57.0,0,60,10.0,64.0
5716,55.0,0,120,5.0,64.0
5717,67.0,48,120,5.0,64.0
5718,57.0,0,60,10.0,64.0
5719,43.0,12,60,11.0,64.0
5720,31.0,0,60,12.0,64.0
5721,48.0,0,60,10.0,64.0
5722,74.0,0,90,7.0,64.0
5723,31.0,0,60,12.0,64.0
5724,62.0,0,90,8.0,64.0
5725,50.0,10,90,3.0,64.0
5726,43.0,0,60,11.0,64.0
5727,57.0,48,60,10.0,64.0
5728,48.0,0,60,10.0,64.0
5729,57.0,0,60,10.0,64.0
5730,43.0,60,60,11.0,64.0
5731,31.0,0,60,12.0,64.0
5732,48.0,0,60,10.0,64.0
5733,48.0,0,90,3.0,64.0
5734,43.0,24,180,6.0,64.0
5735,31.0,0,60,12.0,64.0
5736,43.0,48,60,11.0,64.0
5737,72.0,0,90,7.0,64.0
5738,55.0,24,120,5.0,64.0
5739,60.0,12,90,8.0,64.0
5740,48.0,0,60,10.0,64.0
5741,57.0,0,60,10.0,64.0
5742,67.0,0,120,5.0,64.0
5743,43.0,0,60,11.0,64.0
5744,57.0,12,60,10.0,64.0
5745,31.0,0,60,12.0,64.0
5746,48.0,0,60,10.0,64.0
5747,69.0,12,90,7.0,64.0
5748,57.0,0,90,8.0,64.0
5749,57.0,0,60,10.0,64.0
5750,43.0,0,60,11.0,64.0
5751,48.0,24,60,10.0,64.0
5752,45.0,0,90,3.0,64.0
5753,31.0,0,60,12.0,64.0
5754,57.0,0,60,10.0,64.0
5755,43.0,0,60,11.0,64.0
5756,31.0,204,60,12.0,64.0
5757,48.0,0,60,10.0,64.0
5758,47.0,0,960,10.0,64.0
5759,59.0,0,960,8.0,64.0
5760,62.0,0,960,8.0,64.0
5761,67.0,192,180,5.0,64.0
5762,31.0,60,8580,12.0,64.0
5763,43.0,0,180,6.0,64.0
5764,59.0,0,390,2.0,64.0
5765,67.0,0,390,2.0,64.0
5766,71.0,576,390,0.0,64.0
5767,79.0,0,390,0.0,64.0
5768,50.0,480,960,10.0,64.0
5769,55.0,0,390,3.0,64.0
5770,55.0,0,180,5.0,64.0
5771,67.0,480,1440,7.0,64.0
5772,55.0,0,390,4.0,64.0
5773,43.0,0,390,4.0,64.0
5774,48.0,0,960,10.0,64.0
5775,52.0,0,960,10.0,64.0
5776,64.0,960,960,8.0,64.0
5777,60.0,0,960,8.0,64.0
5778,69.0,0,480,7.0,64.0
5779,67.0,240,1440,7.0,64.0
5780,62.0,480,960,8.0,64.0
5781,47.0,0,960,10.0,64.0
5782,50.0,0,960,10.0,64.0
5783,59.0,0,960,8.0,64.0
5784,60.0,0,1440,8.0,64.0
5785,48.0,0,1440,10.0,64.0
5786,52.0,480,1440,10.0,64.0
5787,64.0,0,1440,8.0,64.0
5788,71.0,240,240,7.0,64.0
5789,69.0,480,240,7.0,64.0
5790,67.0,240,1200,7.0,64.0
5791,47.0,0,480,10.0,64.0
5792,50.0,0,480,10.0,64.0
5793,59.0,0,480,8.0,64.0
5794,62.0,240,480,8.0,64.0
5795,48.0,480,1440,10.0,64.0
5796,52.0,0,1440,10.0,64.0
5797,64.0,0,1440,8.0,64.0
5798,60.0,0,1440,8.0,64.0
5799,76.0,120,240,7.0,64.0
5800,74.0,120,120,7.0,64.0
5801,72.0,120,120,7.0,64.0
5802,71.0,120,120,7.0,64.0
5803,69.0,480,120,7.0,64.0
5804,67.0,120,1200,7.0,64.0
5805,47.0,0,480,10.0,64.0
5806,59.0,240,480,8.0,64.0
5807,50.0,0,480,10.0,64.0
5808,62.0,0,480,8.0,64.0
5809,64.0,0,1440,8.0,64.0
5810,48.0,0,1440,10.0,64.0
5811,52.0,0,1440,10.0,64.0
5812,60.0,0,1440,8.0,64.0
5813,79.0,120,120,7.0,64.0
5814,76.0,120,120,7.0,64.0
5815,74.0,120,120,7.0,64.0
5816,72.0,120,120,7.0,64.0
5817,71.0,120,120,7.0,64.0
5818,69.0,480,15,7.0,64.0
5819,50.0,0,480,10.0,64.0
5820,47.0,0,480,10.0,64.0
5821,67.0,864,480,7.0,64.0
5822,59.0,0,1440,8.0,64.0
5823,62.0,480,1440,8.0,64.0
5824,55.0,60,1860,10.0,64.0
5825,74.0,384,1440,7.0,64.0
5826,47.0,96,390,14.0,64.0
5827,60.0,480,1920,8.0,64.0
5828,64.0,0,1920,8.0,64.0
5829,36.0,36,390,14.0,64.0
5830,76.0,864,480,7.0,64.0
5831,72.0,384,1440,7.0,64.0
5832,57.0,0,1920,10.0,64.0
5833,45.0,96,390,14.0,64.0
5834,66.0,0,960,8.0,64.0
5835,50.0,0,960,11.0,64.0
5836,74.0,480,480,7.0,64.0
5837,38.0,96,390,14.0,64.0
5838,52.0,0,960,11.0,64.0
5839,71.0,120,1080,7.0,64.0
5840,67.0,120,960,8.0,64.0
5841,55.0,384,480,10.0,64.0
5842,40.0,96,390,14.0,64.0
5843,52.0,120,960,10.0,64.0
5844,48.0,0,1080,11.0,64.0
5845,64.0,0,1080,8.0,64.0
5846,69.0,120,120,7.0,64.0
5847,68.0,120,120,7.0,64.0
5848,69.0,0,120,7.0,64.0
5849,60.0,540,600,10.0,64.0
5850,71.0,120,120,7.0,64.0
5851,36.0,36,390,14.0,64.0
5852,69.0,144,120,7.0,64.0
5853,72.0,180,180,7.0,64.0
5854,64.0,0,180,7.0,64.0
5855,62.0,0,1020,8.0,64.0
5856,59.0,444,540,10.0,64.0
5857,50.0,940,1020,11.0,64.0
5858,67.0,0,540,7.0,64.0
5859,66.0,0,480,7.0,64.0
5860,57.0,0,480,10.0,64.0
5861,38.0,36,390,14.0,64.0
5862,31.0,0,30,12.0,64.0
5863,55.0,40,30,7.0,64.0
5864,43.0,0,30,11.0,64.0
5865,33.0,0,30,12.0,64.0
5866,45.0,0,30,11.0,64.0
5867,57.0,40,30,7.0,64.0
5868,35.0,400,30,12.0,64.0
5869,59.0,0,30,7.0,64.0
5870,47.0,0,30,11.0,64.0
5871,60.0,0,480,7.0,64.0
5872,36.0,0,480,12.0,64.0
5873,48.0,0,480,11.0,64.0
5874,67.0,40,30,1.0,64.0
5875,55.0,0,30,3.0,64.0
5876,67.0,0,30,0.0,64.0
5877,69.0,0,30,0.0,64.0
5878,57.0,40,30,3.0,64.0
5879,69.0,0,30,1.0,64.0
5880,71.0,0,30,1.0,64.0
5881,59.0,240,30,3.0,64.0
5882,71.0,0,30,0.0,64.0
5883,72.0,0,240,1.0,64.0
5884,60.0,0,240,3.0,64.0
5885,72.0,180,240,0.0,64.0
5886,48.0,0,60,11.0,64.0
5887,36.0,0,60,12.0,64.0
5888,60.0,60,60,7.0,64.0
5889,35.0,0,60,12.0,64.0
5890,59.0,0,60,7.0,64.0
5891,47.0,420,60,11.0,64.0
5892,57.0,240,480,7.0,64.0
5893,45.0,0,480,11.0,64.0
5894,33.0,0,480,12.0,64.0
5895,60.0,0,60,3.0,64.0
5896,72.0,60,60,1.0,64.0
5897,72.0,0,60,0.0,64.0
5898,59.0,0,60,3.0,64.0
5899,71.0,0,60,1.0,64.0
5900,71.0,0,60,0.0,64.0
5901,69.0,160,240,0.0,64.0
5902,57.0,0,240,3.0,64.0
5903,69.0,0,240,1.0,64.0
5904,57.0,40,30,7.0,64.0
5905,45.0,0,30,11.0,64.0
5906,33.0,0,30,12.0,64.0
5907,35.0,0,30,12.0,64.0
5908,59.0,0,30,7.0,64.0
5909,47.0,40,30,11.0,64.0
5910,36.0,0,30,12.0,64.0
5911,48.0,0,30,11.0,64.0
5912,60.0,400,30,7.0,64.0
5913,50.0,240,480,11.0,64.0
5914,38.0,0,480,12.0,64.0
5915,62.0,0,480,7.0,64.0
5916,57.0,40,30,3.0,64.0
5917,69.0,0,30,1.0,64.0
5918,69.0,0,30,0.0,64.0
5919,71.0,0,30,1.0,64.0
5920,71.0,40,30,0.0,64.0
5921,59.0,0,30,3.0,64.0
5922,72.0,0,30,0.0,64.0
5923,72.0,0,30,1.0,64.0
5924,60.0,0,30,3.0,64.0
5925,62.0,0,240,3.0,64.0
5926,74.0,180,240,0.0,64.0
5927,74.0,0,240,1.0,64.0
5928,62.0,60,60,7.0,64.0
5929,50.0,0,60,11.0,64.0
5930,38.0,0,60,12.0,64.0
5931,48.0,0,60,11.0,64.0
5932,60.0,0,60,7.0,64.0
5933,36.0,420,60,12.0,64.0
5934,47.0,240,480,11.0,64.0
5935,59.0,0,480,7.0,64.0
5936,35.0,0,480,12.0,64.0
5937,62.0,60,60,3.0,64.0
5938,74.0,0,60,1.0,64.0
5939,74.0,0,60,0.0,64.0
5940,60.0,0,60,3.0,64.0
5941,72.0,0,60,1.0,64.0
5942,72.0,0,60,0.0,64.0
5943,71.0,0,240,0.0,64.0
5944,59.0,180,240,3.0,64.0
5945,71.0,0,240,1.0,64.0
5946,48.0,0,60,11.0,64.0
5947,60.0,60,60,7.0,64.0
5948,36.0,0,60,12.0,64.0
5949,50.0,420,60,11.0,64.0
5950,62.0,0,60,7.0,64.0
5951,38.0,0,60,12.0,64.0
5952,64.0,0,480,7.0,64.0
5953,40.0,0,480,12.0,64.0
5954,52.0,240,480,11.0,64.0
5955,72.0,0,60,0.0,64.0
5956,72.0,0,60,1.0,64.0
5957,60.0,60,60,3.0,64.0
5958,74.0,0,60,0.0,64.0
5959,74.0,0,60,1.0,64.0
5960,62.0,0,60,3.0,64.0
5961,76.0,0,240,1.0,64.0
5962,64.0,0,240,3.0,64.0
5963,76.0,180,240,0.0,64.0
5964,52.0,0,60,11.0,64.0
5965,40.0,0,60,12.0,64.0
5966,64.0,60,60,7.0,64.0
5967,50.0,0,60,11.0,64.0
5968,38.0,420,60,12.0,64.0
5969,62.0,0,60,7.0,64.0
5970,60.0,0,480,7.0,64.0
5971,48.0,0,480,11.0,64.0
5972,36.0,0,480,12.0,64.0
5973,76.0,0,60,1.0,64.0
5974,64.0,60,60,3.0,64.0
5975,76.0,0,60,0.0,64.0
5976,74.0,0,60,0.0,64.0
5977,62.0,0,60,3.0,64.0
5978,74.0,240,60,1.0,64.0
5979,72.0,0,240,1.0,64.0
5980,72.0,160,240,0.0,64.0
5981,60.0,0,240,3.0,64.0
5982,60.0,0,30,7.0,64.0
5983,48.0,0,30,11.0,64.0
5984,36.0,40,30,12.0,64.0
5985,62.0,40,30,7.0,64.0
5986,50.0,0,30,11.0,64.0
5987,38.0,0,30,12.0,64.0
5988,40.0,0,30,12.0,64.0
5989,52.0,400,30,11.0,64.0
5990,64.0,0,30,7.0,64.0
5991,53.0,0,480,11.0,64.0
5992,41.0,0,480,12.0,64.0
5993,65.0,0,480,7.0,64.0
5994,72.0,0,30,0.0,64.0
5995,60.0,40,30,3.0,64.0
5996,72.0,0,30,1.0,64.0
5997,74.0,40,30,0.0,64.0
5998,62.0,0,30,3.0,64.0
5999,74.0,0,30,1.0,64.0
6000,64.0,0,30,3.0,64.0
6001,76.0,0,30,0.0,64.0
6002,76.0,240,30,1.0,64.0
6003,77.0,0,240,1.0,64.0
6004,77.0,0,240,0.0,64.0
6005,65.0,180,240,3.0,64.0
6006,53.0,0,60,11.0,64.0
6007,41.0,0,60,12.0,64.0
6008,65.0,60,60,7.0,64.0
6009,52.0,240,60,11.0,64.0
6010,40.0,0,60,12.0,64.0
6011,64.0,0,60,7.0,64.0
6012,62.0,0,240,7.0,64.0
6013,38.0,120,240,12.0,64.0
6014,50.0,0,240,11.0,64.0
6015,52.0,0,120,11.0,64.0
6016,40.0,120,120,12.0,64.0
6017,64.0,0,120,7.0,64.0
6018,41.0,96,120,12.0,64.0
6019,53.0,0,120,11.0,64.0
6020,65.0,0,120,7.0,64.0
6021,67.0,240,90,7.0,64.0
6022,55.0,0,90,11.0,64.0
6023,43.0,0,90,12.0,64.0
6024,41.0,0,90,12.0,64.0
6025,53.0,0,90,11.0,64.0
6026,65.0,384,90,7.0,64.0
6027,64.0,0,240,7.0,64.0
6028,40.0,0,240,12.0,64.0
6029,52.0,120,240,11.0,64.0
6030,65.0,0,120,7.0,64.0
6031,41.0,0,120,12.0,64.0
6032,53.0,120,120,11.0,64.0
6033,67.0,96,120,7.0,64.0
6034,55.0,0,120,11.0,64.0
6035,43.0,0,120,12.0,64.0
6036,57.0,0,90,11.0,64.0
6037,45.0,0,90,12.0,64.0
6038,69.0,240,90,7.0,64.0
6039,55.0,384,90,11.0,64.0
6040,43.0,0,90,12.0,64.0
6041,67.0,0,90,7.0,64.0
6042,65.0,0,240,7.0,64.0
6043,53.0,0,240,11.0,64.0
6044,41.0,120,240,12.0,64.0
6045,55.0,0,120,11.0,64.0
6046,43.0,0,120,12.0,64.0
6047,67.0,120,120,7.0,64.0
6048,45.0,0,120,12.0,64.0
6049,69.0,96,120,7.0,64.0
6050,57.0,0,120,11.0,64.0
6051,47.0,0,90,12.0,64.0
6052,71.0,240,90,7.0,64.0
6053,59.0,0,90,11.0,64.0
6054,57.0,0,90,11.0,64.0
6055,45.0,384,90,12.0,64.0
6056,69.0,0,90,7.0,64.0
6057,55.0,120,240,11.0,64.0
6058,67.0,0,240,7.0,64.0
6059,43.0,0,240,12.0,64.0
6060,69.0,120,120,7.0,64.0
6061,45.0,0,120,12.0,64.0
6062,57.0,0,120,11.0,64.0
6063,59.0,96,120,11.0,64.0
6064,71.0,0,120,7.0,64.0
6065,47.0,0,120,12.0,64.0
6066,60.0,0,90,11.0,64.0
6067,48.0,240,90,12.0,64.0
6068,72.0,0,90,7.0,64.0
6069,71.0,0,90,7.0,64.0
6070,59.0,0,90,11.0,64.0
6071,47.0,384,90,12.0,64.0
6072,57.0,0,240,11.0,64.0
6073,45.0,0,240,12.0,64.0
6074,69.0,120,240,7.0,64.0
6075,59.0,0,120,11.0,64.0
6076,47.0,120,120,12.0,64.0
6077,71.0,0,120,7.0,64.0
6078,72.0,0,120,7.0,64.0
6079,60.0,0,120,11.0,64.0
6080,48.0,96,120,12.0,64.0
6081,62.0,240,90,11.0,64.0
6082,74.0,0,90,7.0,64.0
6083,50.0,0,90,12.0,64.0
6084,48.0,0,90,12.0,64.0
6085,72.0,384,90,7.0,64.0
6086,60.0,0,90,11.0,64.0
6087,59.0,0,240,11.0,64.0
6088,71.0,120,240,7.0,64.0
6089,47.0,0,240,12.0,64.0
6090,48.0,0,120,12.0,64.0
6091,60.0,0,120,11.0,64.0
6092,72.0,120,120,7.0,64.0
6093,50.0,0,120,12.0,64.0
6094,62.0,0,120,11.0,64.0
6095,74.0,96,120,7.0,64.0
6096,52.0,0,90,12.0,64.0
6097,76.0,240,90,7.0,64.0
6098,64.0,0,90,11.0,64.0
6099,74.0,0,90,7.0,64.0
6100,62.0,384,90,11.0,64.0
6101,50.0,0,90,12.0,64.0
6102,48.0,120,240,12.0,64.0
6103,60.0,0,240,11.0,64.0
6104,72.0,0,240,7.0,64.0
6105,62.0,0,120,11.0,64.0
6106,74.0,0,120,7.0,64.0
6107,50.0,120,120,12.0,64.0
6108,64.0,0,120,11.0,64.0
6109,76.0,96,120,7.0,64.0
6110,52.0,0,120,12.0,64.0
6111,53.0,0,90,12.0,64.0
6112,65.0,240,90,11.0,64.0
6113,77.0,0,90,7.0,64.0
6114,52.0,384,90,12.0,64.0
6115,64.0,0,90,11.0,64.0
6116,76.0,0,90,7.0,64.0
6117,62.0,0,240,11.0,64.0
6118,50.0,120,240,12.0,64.0
6119,74.0,0,240,7.0,64.0
6120,52.0,0,120,12.0,64.0
6121,64.0,120,120,11.0,64.0
6122,76.0,0,120,7.0,64.0
6123,77.0,96,120,7.0,64.0
6124,53.0,0,120,12.0,64.0
6125,65.0,0,120,11.0,64.0
6126,79.0,264,90,7.0,64.0
6127,55.0,0,90,12.0,64.0
6128,67.0,0,90,11.0,64.0
6129,55.0,0,120,12.0,64.0
6130,76.0,120,120,7.0,64.0
6131,67.0,0,120,11.0,64.0
6132,65.0,0,120,11.0,64.0
6133,53.0,0,120,12.0,64.0
6134,77.0,96,120,7.0,64.0
6135,52.0,0,90,12.0,64.0
6136,64.0,0,90,11.0,64.0
6137,79.0,264,90,7.0,64.0
6138,64.0,0,120,11.0,64.0
6139,76.0,120,120,7.0,64.0
6140,52.0,0,120,12.0,64.0
6141,62.0,0,120,11.0,64.0
6142,50.0,0,120,12.0,64.0
6143,77.0,96,120,7.0,64.0
6144,60.0,0,90,11.0,64.0
6145,48.0,0,90,12.0,64.0
6146,79.0,264,90,7.0,64.0
6147,76.0,120,120,7.0,64.0
6148,77.0,96,120,7.0,64.0
6149,79.0,264,90,7.0,64.0
6150,76.0,120,120,7.0,64.0
6151,77.0,96,120,7.0,64.0
6152,79.0,264,90,7.0,64.0
6153,76.0,120,120,7.0,64.0
6154,77.0,96,120,7.0,64.0
6155,79.0,264,90,7.0,64.0
6156,76.0,120,120,7.0,64.0
6157,77.0,96,120,7.0,64.0
6158,79.0,264,90,7.0,64.0
6159,76.0,120,120,7.0,64.0
6160,77.0,768,120,7.0,64.0
6161,79.0,0,780,1.0,64.0
6162,79.0,96,780,0.0,64.0
6163,79.0,336,870,7.0,64.0
6164,76.0,120,240,0.0,64.0
6165,76.0,0,240,7.0,64.0
6166,76.0,0,240,1.0,64.0
6167,77.0,120,120,0.0,64.0
6168,77.0,0,120,7.0,64.0
6169,77.0,0,120,1.0,64.0
6170,79.0,96,120,7.0,64.0
6171,79.0,0,120,0.0,64.0
6172,79.0,0,120,1.0,64.0
6173,72.0,0,870,8.0,64.0
6174,81.0,0,90,1.0,64.0
6175,72.0,96,870,2.0,64.0
6176,81.0,0,90,0.0,64.0
6177,81.0,240,90,7.0,64.0
6178,81.0,0,90,0.0,64.0
6179,81.0,384,90,1.0,64.0
6180,81.0,0,90,7.0,64.0
6181,74.0,0,240,1.0,64.0
6182,74.0,0,240,7.0,64.0
6183,74.0,120,240,0.0,64.0
6184,76.0,0,120,0.0,64.0
6185,76.0,0,120,7.0,64.0
6186,76.0,24,120,1.0,64.0
6187,77.0,0,120,1.0,64.0
6188,77.0,96,120,7.0,64.0
6189,77.0,0,120,0.0,64.0
6190,79.0,240,90,1.0,64.0
6191,71.0,96,870,8.0,64.0
6192,79.0,0,90,0.0,64.0
6193,71.0,0,870,2.0,64.0
6194,79.0,0,90,7.0,64.0
6195,67.0,0,90,0.0,64.0
6196,67.0,0,90,1.0,64.0
6197,67.0,384,90,7.0,64.0
6198,72.0,0,240,7.0,64.0
6199,72.0,120,240,1.0,64.0
6200,72.0,0,240,0.0,64.0
6201,74.0,0,120,0.0,64.0
6202,74.0,0,120,7.0,64.0
6203,74.0,24,120,1.0,64.0
6204,76.0,0,120,1.0,64.0
6205,76.0,96,120,0.0,64.0
6206,76.0,0,120,7.0,64.0
6207,77.0,0,90,7.0,64.0
6208,69.0,96,870,8.0,64.0
6209,69.0,0,870,2.0,64.0
6210,77.0,0,90,0.0,64.0
6211,77.0,240,90,1.0,64.0
6212,77.0,384,90,0.0,64.0
6213,77.0,0,90,7.0,64.0
6214,77.0,0,90,1.0,64.0
6215,71.0,0,240,0.0,64.0
6216,71.0,0,240,7.0,64.0
6217,71.0,120,240,1.0,64.0
6218,72.0,24,120,7.0,64.0
6219,72.0,0,120,0.0,64.0
6220,72.0,0,120,1.0,64.0
6221,74.0,96,120,0.0,64.0
6222,74.0,0,120,1.0,64.0
6223,74.0,0,120,7.0,64.0
6224,67.0,0,870,8.0,64.0
6225,76.0,0,90,1.0,64.0
6226,76.0,240,90,7.0,64.0
6227,76.0,0,90,0.0,64.0
6228,67.0,96,870,2.0,64.0
6229,64.0,0,90,0.0,64.0
6230,64.0,384,90,1.0,64.0
6231,64.0,0,90,7.0,64.0
6232,69.0,0,240,7.0,64.0
6233,69.0,120,240,0.0,64.0
6234,69.0,0,240,1.0,64.0
6235,71.0,0,120,7.0,64.0
6236,71.0,0,120,0.0,64.0
6237,71.0,24,120,1.0,64.0
6238,72.0,0,120,0.0,64.0
6239,72.0,96,120,1.0,64.0
6240,72.0,0,120,7.0,64.0
6241,74.0,240,90,0.0,64.0
6242,74.0,0,90,7.0,64.0
6243,74.0,0,90,1.0,64.0
6244,65.0,96,870,2.0,64.0
6245,65.0,0,870,8.0,64.0
6246,74.0,384,90,7.0,64.0
6247,74.0,0,90,0.0,64.0
6248,74.0,0,90,1.0,64.0
6249,67.0,0,240,0.0,64.0
6250,67.0,0,240,1.0,64.0
6251,67.0,120,240,7.0,64.0
6252,69.0,0,120,7.0,64.0
6253,69.0,24,120,1.0,64.0
6254,69.0,0,120,0.0,64.0
6255,71.0,0,120,0.0,64.0
6256,71.0,0,120,1.0,64.0
6257,71.0,240,120,7.0,64.0
6258,72.0,120,240,0.0,64.0
6259,72.0,0,240,1.0,64.0
6260,64.0,96,390,8.0,64.0
6261,72.0,0,240,7.0,64.0
6262,74.0,0,120,0.0,64.0
6263,74.0,24,120,7.0,64.0
6264,74.0,0,120,1.0,64.0
6265,76.0,0,120,0.0,64.0
6266,76.0,0,120,1.0,64.0
6267,76.0,96,120,7.0,64.0
6268,77.0,0,90,0.0,64.0
6269,55.0,0,90,5.0,64.0
6270,67.0,0,90,5.0,64.0
6271,77.0,0,90,7.0,64.0
6272,59.0,0,90,3.0,64.0
6273,62.0,0,90,2.0,64.0
6274,62.0,0,90,3.0,64.0
6275,62.0,0,90,8.0,64.0
6276,43.0,24,180,6.0,64.0
6277,77.0,0,90,1.0,64.0
6278,74.0,96,90,0.0,64.0
6279,65.0,0,90,2.0,64.0
6280,74.0,0,90,1.0,64.0
6281,55.0,120,90,8.0,64.0
6282,77.0,96,90,0.0,64.0
6283,74.0,0,90,0.0,64.0
6284,62.0,0,90,2.0,64.0
6285,62.0,0,90,3.0,64.0
6286,59.0,0,90,3.0,64.0
6287,62.0,0,90,8.0,64.0
6288,77.0,0,90,1.0,64.0
6289,76.0,0,90,7.0,64.0
6290,74.0,0,90,1.0,64.0
6291,43.0,24,180,6.0,64.0
6292,65.0,0,90,2.0,64.0
6293,67.0,0,90,5.0,64.0
6294,55.0,0,90,5.0,64.0
6295,60.0,120,90,8.0,64.0
6296,77.0,0,90,7.0,64.0
6297,74.0,0,90,0.0,64.0
6298,77.0,0,90,1.0,64.0
6299,77.0,0,90,0.0,64.0
6300,59.0,0,90,3.0,64.0
6301,62.0,0,90,3.0,64.0
6302,74.0,0,90,1.0,64.0
6303,65.0,0,90,2.0,64.0
6304,67.0,96,90,5.0,64.0
6305,62.0,0,90,2.0,64.0
6306,59.0,0,90,8.0,64.0
6307,79.0,0,90,7.0,64.0
6308,43.0,24,180,6.0,64.0
6309,55.0,0,90,5.0,64.0
6310,55.0,120,90,8.0,64.0
6311,77.0,0,90,7.0,64.0
6312,57.0,120,90,8.0,64.0
6313,59.0,120,90,8.0,64.0
6314,60.0,0,90,5.0,64.0
6315,60.0,0,90,2.0,64.0
6316,64.0,0,90,2.0,64.0
6317,67.0,0,90,5.0,64.0
6318,76.0,0,90,7.0,64.0
6319,76.0,0,90,0.0,64.0
6320,72.0,0,90,1.0,64.0
6321,72.0,0,90,0.0,64.0
6322,60.0,0,90,3.0,64.0
6323,76.0,0,90,1.0,64.0
6324,60.0,96,90,8.0,64.0
6325,64.0,0,90,3.0,64.0
6326,48.0,24,180,6.0,64.0
6327,67.0,120,90,8.0,64.0
6328,60.0,0,90,3.0,64.0
6329,64.0,0,90,3.0,64.0
6330,72.0,0,90,0.0,64.0
6331,72.0,0,90,1.0,64.0
6332,65.0,0,90,8.0,64.0
6333,74.0,0,90,7.0,64.0
6334,76.0,0,90,1.0,64.0
6335,48.0,24,180,6.0,64.0
6336,60.0,0,90,5.0,64.0
6337,76.0,0,90,0.0,64.0
6338,64.0,96,90,2.0,64.0
6339,60.0,0,90,2.0,64.0
6340,67.0,0,90,5.0,64.0
6341,76.0,0,90,7.0,64.0
6342,64.0,120,90,8.0,64.0
6343,64.0,0,90,3.0,64.0
6344,48.0,24,180,6.0,64.0
6345,62.0,0,90,8.0,64.0
6346,76.0,0,90,1.0,64.0
6347,72.0,0,90,1.0,64.0
6348,60.0,0,90,2.0,64.0
6349,64.0,0,90,2.0,64.0
6350,67.0,0,90,5.0,64.0
6351,60.0,0,90,5.0,64.0
6352,76.0,0,90,0.0,64.0
6353,72.0,0,90,0.0,64.0
6354,60.0,0,90,3.0,64.0
6355,77.0,96,90,7.0,64.0
6356,60.0,120,90,8.0,64.0
6357,59.0,120,90,8.0,64.0
6358,76.0,0,90,7.0,64.0
6359,60.0,120,90,8.0,64.0
6360,74.0,0,90,1.0,64.0
6361,77.0,0,90,0.0,64.0
6362,74.0,0,90,0.0,64.0
6363,65.0,0,90,2.0,64.0
6364,62.0,96,90,2.0,64.0
6365,59.0,0,90,3.0,64.0
6366,62.0,0,90,3.0,64.0
6367,55.0,0,90,5.0,64.0
6368,67.0,0,90,5.0,64.0
6369,62.0,0,90,8.0,64.0
6370,43.0,24,180,6.0,64.0
6371,77.0,0,90,1.0,64.0
6372,77.0,0,90,7.0,64.0
6373,55.0,120,90,8.0,64.0
6374,62.0,96,90,3.0,64.0
6375,74.0,0,90,0.0,64.0
6376,77.0,0,90,0.0,64.0
6377,76.0,0,90,7.0,64.0
6378,62.0,0,90,8.0,64.0
6379,43.0,24,180,6.0,64.0
6380,77.0,0,90,1.0,64.0
6381,59.0,0,90,3.0,64.0
6382,74.0,0,90,1.0,64.0
6383,62.0,0,90,2.0,64.0
6384,55.0,0,90,5.0,64.0
6385,67.0,0,90,5.0,64.0
6386,65.0,0,90,2.0,64.0
6387,77.0,120,90,7.0,64.0
6388,60.0,0,90,8.0,64.0
6389,59.0,0,90,3.0,64.0
6390,62.0,0,90,3.0,64.0
6391,55.0,0,90,5.0,64.0
6392,65.0,0,90,2.0,64.0
6393,62.0,0,90,2.0,64.0
6394,74.0,0,90,1.0,64.0
6395,59.0,0,90,8.0,64.0
6396,74.0,96,90,0.0,64.0
6397,77.0,0,90,1.0,64.0
6398,43.0,24,180,6.0,64.0
6399,79.0,0,90,7.0,64.0
6400,67.0,0,90,5.0,64.0
6401,77.0,0,90,0.0,64.0
6402,55.0,120,90,8.0,64.0
6403,57.0,0,90,8.0,64.0
6404,77.0,120,90,7.0,64.0
6405,59.0,120,90,8.0,64.0
6406,60.0,0,90,5.0,64.0
6407,67.0,0,90,5.0,64.0
6408,64.0,0,90,2.0,64.0
6409,76.0,0,90,1.0,64.0
6410,60.0,0,90,2.0,64.0
6411,72.0,0,90,1.0,64.0
6412,48.0,24,180,6.0,64.0
6413,60.0,0,780,11.0,64.0
6414,55.0,96,90,8.0,64.0
6415,76.0,0,90,0.0,64.0
6416,72.0,0,90,0.0,64.0
6417,60.0,48,780,3.0,64.0
6418,77.0,0,90,7.0,64.0
6419,76.0,0,90,7.0,64.0
6420,64.0,120,90,8.0,64.0
6421,64.0,120,90,8.0,64.0
6422,74.0,0,90,7.0,64.0
6423,64.0,120,90,8.0,64.0
6424,72.0,0,90,7.0,64.0
6425,64.0,120,90,8.0,64.0
6426,74.0,0,90,7.0,64.0
6427,64.0,0,90,8.0,64.0
6428,72.0,72,90,7.0,64.0
6429,64.0,120,90,8.0,64.0
6430,71.0,0,90,7.0,64.0
6431,69.0,0,90,7.0,64.0
6432,64.0,120,90,8.0,64.0
6433,59.0,96,240,3.0,64.0
6434,59.0,0,240,11.0,64.0
6435,62.0,120,90,8.0,64.0
6436,76.0,0,90,7.0,64.0
6437,62.0,24,90,8.0,64.0
6438,74.0,0,90,7.0,64.0
6439,64.0,24,90,8.0,64.0
6440,60.0,96,120,3.0,64.0
6441,60.0,0,120,11.0,64.0
6442,72.0,0,90,7.0,64.0
6443,66.0,24,90,8.0,64.0
6444,62.0,96,120,11.0,64.0
6445,62.0,0,120,3.0,64.0
6446,71.0,0,90,7.0,64.0
6447,72.0,0,90,7.0,64.0
6448,67.0,72,870,2.0,64.0
6449,67.0,0,870,4.0,64.0
6450,64.0,120,90,3.0,64.0
6451,64.0,0,90,11.0,64.0
6452,67.0,0,90,8.0,64.0
6453,67.0,0,870,10.0,64.0
6454,71.0,120,90,7.0,64.0
6455,67.0,0,90,8.0,64.0
6456,64.0,0,90,11.0,64.0
6457,64.0,120,90,3.0,64.0
6458,69.0,0,90,8.0,64.0
6459,69.0,0,90,7.0,64.0
6460,67.0,0,90,7.0,64.0
6461,71.0,120,90,8.0,64.0
6462,57.0,96,240,11.0,64.0
6463,60.0,120,90,8.0,64.0
6464,57.0,0,240,3.0,64.0
6465,72.0,0,90,7.0,64.0
6466,84.0,0,90,7.0,64.0
6467,60.0,24,90,8.0,64.0
6468,62.0,0,90,8.0,64.0
6469,59.0,0,120,3.0,64.0
6470,83.0,24,90,7.0,64.0
6471,59.0,24,120,11.0,64.0
6472,60.0,96,120,3.0,64.0
6473,60.0,0,120,11.0,64.0
6474,64.0,0,90,8.0,64.0
6475,81.0,24,90,7.0,64.0
6476,66.0,0,90,8.0,64.0
6477,66.0,0,870,10.0,64.0
6478,66.0,0,870,4.0,64.0
6479,62.0,0,90,3.0,64.0
6480,83.0,0,90,7.0,64.0
6481,62.0,120,90,11.0,64.0
6482,66.0,72,870,2.0,64.0
6483,66.0,0,90,8.0,64.0
6484,81.0,120,90,7.0,64.0
6485,79.0,0,90,7.0,64.0
6486,50.0,0,90,3.0,64.0
6487,50.0,0,90,11.0,64.0
6488,67.0,120,90,8.0,64.0
6489,69.0,120,90,8.0,64.0
6490,78.0,0,90,7.0,64.0
6491,59.0,120,90,8.0,64.0
6492,83.0,0,90,7.0,64.0
6493,55.0,96,240,11.0,64.0
6494,55.0,0,240,3.0,64.0
6495,83.0,0,90,7.0,64.0
6496,59.0,24,90,8.0,64.0
6497,60.0,24,90,8.0,64.0
6498,57.0,0,120,3.0,64.0
6499,81.0,0,90,7.0,64.0
6500,57.0,24,120,11.0,64.0
6501,79.0,0,90,7.0,64.0
6502,59.0,96,120,3.0,64.0
6503,59.0,0,120,11.0,64.0
6504,62.0,24,90,8.0,64.0
6505,64.0,0,870,4.0,64.0
6506,60.0,0,90,11.0,64.0
6507,64.0,0,870,10.0,64.0
6508,60.0,0,90,3.0,64.0
6509,81.0,0,90,7.0,64.0
6510,64.0,120,90,8.0,64.0
6511,64.0,72,870,2.0,64.0
6512,79.0,0,90,7.0,64.0
6513,64.0,120,90,8.0,64.0
6514,60.0,120,90,11.0,64.0
6515,60.0,0,90,3.0,64.0
6516,78.0,0,90,7.0,64.0
6517,66.0,0,90,8.0,64.0
6518,76.0,0,90,7.0,64.0
6519,67.0,120,90,8.0,64.0
6520,81.0,120,90,7.0,64.0
6521,54.0,96,240,11.0,64.0
6522,54.0,0,240,3.0,64.0
6523,57.0,0,90,8.0,64.0
6524,81.0,0,90,7.0,64.0
6525,57.0,24,90,8.0,64.0
6526,59.0,24,90,8.0,64.0
6527,55.0,0,120,3.0,64.0
6528,55.0,24,120,11.0,64.0
6529,79.0,0,90,7.0,64.0
6530,78.0,0,90,7.0,64.0
6531,60.0,24,90,8.0,64.0
6532,57.0,0,120,3.0,64.0
6533,57.0,96,120,11.0,64.0
6534,59.0,0,90,3.0,64.0
6535,62.0,0,90,8.0,64.0
6536,59.0,0,90,11.0,64.0
6537,79.0,120,90,7.0,64.0
6538,62.0,0,870,2.0,64.0
6539,62.0,72,870,4.0,64.0
6540,62.0,0,870,10.0,64.0
6541,78.0,0,90,7.0,64.0
6542,64.0,120,90,8.0,64.0
6543,47.0,0,90,11.0,64.0
6544,47.0,0,90,3.0,64.0
6545,66.0,0,90,8.0,64.0
6546,76.0,120,90,7.0,64.0
6547,74.0,120,90,7.0,64.0
6548,67.0,0,90,8.0,64.0
6549,52.0,96,240,3.0,64.0
6550,52.0,0,240,11.0,64.0
6551,67.0,0,90,8.0,64.0
6552,72.0,120,90,7.0,64.0
6553,67.0,24,90,8.0,64.0
6554,84.0,0,90,7.0,64.0
6555,54.0,0,120,11.0,64.0
6556,69.0,24,90,8.0,64.0
6557,54.0,24,120,3.0,64.0
6558,84.0,0,90,7.0,64.0
6559,71.0,24,90,8.0,64.0
6560,55.0,96,120,3.0,64.0
6561,84.0,0,90,7.0,64.0
6562,55.0,0,120,11.0,64.0
6563,84.0,0,90,7.0,64.0
6564,60.0,72,870,4.0,64.0
6565,57.0,0,90,11.0,64.0
6566,60.0,0,870,10.0,64.0
6567,57.0,0,90,3.0,64.0
6568,72.0,120,90,8.0,64.0
6569,60.0,0,870,2.0,64.0
6570,84.0,120,90,7.0,64.0
6571,72.0,0,90,8.0,64.0
6572,60.0,0,90,8.0,64.0
6573,57.0,120,90,11.0,64.0
6574,57.0,0,90,3.0,64.0
6575,84.0,0,90,7.0,64.0
6576,60.0,120,90,8.0,64.0
6577,84.0,0,90,7.0,64.0
6578,84.0,0,90,7.0,64.0
6579,50.0,0,240,3.0,64.0
6580,62.0,0,390,4.0,64.0
6581,50.0,96,240,11.0,64.0
6582,60.0,120,90,8.0,64.0
6583,62.0,24,90,8.0,64.0
6584,78.0,0,90,7.0,64.0
6585,52.0,0,120,3.0,64.0
6586,62.0,24,90,8.0,64.0
6587,52.0,24,120,11.0,64.0
6588,79.0,0,90,7.0,64.0
6589,54.0,96,120,3.0,64.0
6590,62.0,24,90,8.0,64.0
6591,81.0,0,90,7.0,64.0
6592,54.0,0,120,11.0,64.0
6593,62.0,120,90,8.0,64.0
6594,55.0,0,240,11.0,64.0
6595,59.0,0,390,2.0,64.0
6596,62.0,0,390,4.0,64.0
6597,59.0,0,390,10.0,64.0
6598,55.0,96,240,3.0,64.0
6599,83.0,0,90,7.0,64.0
6600,59.0,72,390,4.0,64.0
6601,62.0,24,90,8.0,64.0
6602,83.0,0,90,7.0,64.0
6603,62.0,0,90,8.0,64.0
6604,57.0,0,120,11.0,64.0
6605,57.0,24,120,3.0,64.0
6606,84.0,24,90,7.0,64.0
6607,59.0,96,120,11.0,64.0
6608,62.0,0,90,8.0,64.0
6609,59.0,0,120,3.0,64.0
6610,86.0,24,90,7.0,64.0
6611,57.0,0,90,10.0,64.0
6612,66.0,0,90,2.0,64.0
6613,69.0,0,90,2.0,64.0
6614,86.0,0,90,7.0,64.0
6615,60.0,0,90,3.0,64.0
6616,62.0,0,90,8.0,64.0
6617,86.0,120,90,0.0,64.0
6618,78.0,0,90,1.0,64.0
6619,62.0,0,90,4.0,64.0
6620,81.0,0,90,1.0,64.0
6621,60.0,0,90,11.0,64.0
6622,50.0,0,90,10.0,64.0
6623,74.0,120,90,8.0,64.0
6624,86.0,0,90,7.0,64.0
6625,57.0,0,90,10.0,64.0
6626,62.0,0,90,4.0,64.0
6627,74.0,0,90,8.0,64.0
6628,86.0,0,90,7.0,64.0
6629,69.0,0,90,2.0,64.0
6630,66.0,0,90,2.0,64.0
6631,86.0,120,90,0.0,64.0
6632,81.0,0,90,1.0,64.0
6633,59.0,0,90,3.0,64.0
6634,59.0,0,90,11.0,64.0
6635,78.0,0,90,1.0,64.0
6636,60.0,120,90,11.0,64.0
6637,74.0,0,90,8.0,64.0
6638,86.0,0,90,7.0,64.0
6639,60.0,0,90,3.0,64.0
6640,55.0,0,90,10.0,64.0
6641,74.0,120,90,8.0,64.0
6642,78.0,0,90,1.0,64.0
6643,62.0,0,90,11.0,64.0
6644,62.0,0,90,3.0,64.0
6645,81.0,0,90,1.0,64.0
6646,86.0,0,90,7.0,64.0
6647,86.0,0,90,0.0,64.0
6648,54.0,0,90,10.0,64.0
6649,69.0,0,90,2.0,64.0
6650,66.0,0,90,2.0,64.0
6651,62.0,0,90,4.0,64.0
6652,50.0,120,90,10.0,64.0
6653,86.0,0,90,7.0,64.0
6654,74.0,0,90,8.0,64.0
6655,74.0,0,90,8.0,64.0
6656,86.0,0,90,7.0,64.0
6657,60.0,120,90,11.0,64.0
6658,52.0,0,90,10.0,64.0
6659,60.0,0,90,3.0,64.0
6660,74.0,0,90,8.0,64.0
6661,86.0,0,90,7.0,64.0
6662,54.0,120,90,10.0,64.0
6663,59.0,0,90,11.0,64.0
6664,86.0,0,90,0.0,64.0
6665,59.0,0,90,3.0,64.0
6666,55.0,96,90,10.0,64.0
6667,74.0,0,90,8.0,64.0
6668,43.0,24,180,6.0,64.0
6669,55.0,0,90,5.0,64.0
6670,67.0,0,90,5.0,64.0
6671,71.0,0,90,2.0,64.0
6672,62.0,0,90,4.0,64.0
6673,79.0,0,90,1.0,64.0
6674,83.0,0,90,1.0,64.0
6675,86.0,0,90,7.0,64.0
6676,67.0,0,90,2.0,64.0
6677,74.0,120,90,8.0,64.0
6678,86.0,0,90,7.0,64.0
6679,62.0,0,90,10.0,64.0
6680,86.0,0,90,7.0,64.0
6681,74.0,0,90,8.0,64.0
6682,79.0,0,90,1.0,64.0
6683,83.0,0,90,1.0,64.0
6684,62.0,0,90,4.0,64.0
6685,57.0,96,90,3.0,64.0
6686,55.0,0,90,5.0,64.0
6687,67.0,0,90,5.0,64.0
6688,86.0,0,90,0.0,64.0
6689,57.0,0,90,11.0,64.0
6690,43.0,24,180,6.0,64.0
6691,71.0,0,90,2.0,64.0
6692,67.0,0,90,2.0,64.0
6693,60.0,0,90,10.0,64.0
6694,59.0,0,90,11.0,64.0
6695,86.0,120,90,7.0,64.0
6696,59.0,0,90,10.0,64.0
6697,59.0,0,90,3.0,64.0
6698,74.0,0,90,8.0,64.0
6699,60.0,0,90,3.0,64.0
6700,55.0,0,90,5.0,64.0
6701,67.0,0,90,2.0,64.0
6702,86.0,0,90,0.0,64.0
6703,83.0,0,90,1.0,64.0
6704,71.0,0,90,2.0,64.0
6705,86.0,0,90,7.0,64.0
6706,79.0,0,90,1.0,64.0
6707,67.0,0,90,5.0,64.0
6708,43.0,24,180,6.0,64.0
6709,60.0,0,90,11.0,64.0
6710,74.0,0,90,8.0,64.0
6711,57.0,0,90,10.0,64.0
6712,62.0,96,90,4.0,64.0
6713,74.0,120,90,8.0,64.0
6714,55.0,0,90,10.0,64.0
6715,86.0,0,90,7.0,64.0
6716,86.0,0,90,7.0,64.0
6717,59.0,120,90,3.0,64.0
6718,59.0,0,90,11.0,64.0
6719,74.0,0,90,8.0,64.0
6720,54.0,0,90,10.0,64.0
6721,55.0,0,90,10.0,64.0
6722,86.0,0,90,7.0,64.0
6723,74.0,120,90,8.0,64.0
6724,60.0,0,90,3.0,64.0
6725,60.0,0,90,11.0,64.0
6726,57.0,0,90,10.0,64.0
6727,62.0,0,90,4.0,64.0
6728,66.0,0,90,2.0,64.0
6729,69.0,0,90,2.0,64.0
6730,86.0,120,90,0.0,64.0
6731,81.0,0,90,1.0,64.0
6732,78.0,0,90,1.0,64.0
6733,86.0,0,90,7.0,64.0
6734,74.0,0,90,8.0,64.0
6735,86.0,0,90,7.0,64.0
6736,74.0,120,90,8.0,64.0
6737,50.0,0,90,10.0,64.0
6738,59.0,0,90,11.0,64.0
6739,78.0,120,90,1.0,64.0
6740,57.0,0,90,10.0,64.0
6741,74.0,0,90,8.0,64.0
6742,66.0,0,90,2.0,64.0
6743,81.0,0,90,1.0,64.0
6744,62.0,0,90,4.0,64.0
6745,86.0,0,90,0.0,64.0
6746,86.0,0,90,7.0,64.0
6747,59.0,0,90,3.0,64.0
6748,69.0,0,90,2.0,64.0
6749,60.0,0,90,3.0,64.0
6750,74.0,0,90,8.0,64.0
6751,86.0,0,90,7.0,64.0
6752,60.0,120,90,11.0,64.0
6753,55.0,0,90,10.0,64.0
6754,74.0,0,90,8.0,64.0
6755,66.0,0,90,2.0,64.0
6756,62.0,120,90,4.0,64.0
6757,69.0,0,90,2.0,64.0
6758,62.0,0,90,3.0,64.0
6759,86.0,0,90,7.0,64.0
6760,81.0,0,90,1.0,64.0
6761,78.0,0,90,1.0,64.0
6762,54.0,0,90,10.0,64.0
6763,86.0,0,90,0.0,64.0
6764,62.0,0,90,11.0,64.0
6765,50.0,120,90,10.0,64.0
6766,74.0,0,90,8.0,64.0
6767,86.0,0,90,7.0,64.0
6768,60.0,0,90,3.0,64.0
6769,60.0,120,90,11.0,64.0
6770,74.0,0,90,8.0,64.0
6771,86.0,0,90,7.0,64.0
6772,52.0,0,90,10.0,64.0
6773,86.0,0,90,7.0,64.0
6774,74.0,120,90,8.0,64.0
6775,54.0,0,90,10.0,64.0
6776,79.0,0,90,1.0,64.0
6777,83.0,96,90,1.0,64.0
6778,55.0,24,900,4.0,64.0
6779,62.0,0,90,4.0,64.0
6780,86.0,0,90,7.0,64.0
6781,59.0,72,390,3.0,64.0
6782,86.0,0,90,0.0,64.0
6783,43.0,0,390,6.0,64.0
6784,67.0,24,180,5.0,64.0
6785,43.0,48,780,12.0,64.0
6786,71.0,0,90,2.0,64.0
6787,67.0,0,90,2.0,64.0
6788,55.0,0,180,5.0,64.0
6789,74.0,0,90,8.0,64.0
6790,55.0,0,90,10.0,64.0
6791,59.0,0,390,11.0,64.0
6792,83.0,0,90,7.0,64.0
6793,71.0,120,90,8.0,64.0
6794,62.0,0,90,10.0,64.0
6795,86.0,0,90,7.0,64.0
6796,65.0,0,90,10.0,64.0
6797,62.0,48,90,4.0,64.0
6798,74.0,0,90,8.0,64.0
6799,64.0,0,90,10.0,64.0
6800,72.0,120,90,8.0,64.0
6801,84.0,0,90,7.0,64.0
6802,83.0,120,90,7.0,64.0
6803,62.0,0,90,10.0,64.0
6804,71.0,0,90,8.0,64.0
6805,55.0,48,390,11.0,64.0
6806,62.0,0,90,4.0,64.0
6807,55.0,0,390,3.0,64.0
6808,67.0,72,90,8.0,64.0
6809,59.0,0,90,10.0,64.0
6810,79.0,0,90,7.0,64.0
6811,60.0,48,90,10.0,64.0
6812,81.0,0,90,7.0,64.0
6813,69.0,0,90,8.0,64.0
6814,71.0,120,90,8.0,64.0
6815,83.0,0,90,7.0,64.0
6816,62.0,0,90,10.0,64.0
6817,60.0,72,390,8.0,64.0
6818,52.0,96,240,3.0,64.0
6819,52.0,0,240,11.0,64.0
6820,72.0,24,180,5.0,64.0
6821,55.0,96,90,10.0,64.0
6822,60.0,0,180,5.0,64.0
6823,60.0,0,1350,4.0,64.0
6824,72.0,0,480,7.0,64.0
6825,52.0,0,390,4.0,64.0
6826,40.0,0,240,12.0,64.0
6827,48.0,0,390,6.0,64.0
6828,67.0,24,90,10.0,64.0
6829,41.0,0,120,12.0,64.0
6830,53.0,0,120,3.0,64.0
6831,53.0,24,120,11.0,64.0
6832,69.0,24,90,10.0,64.0
6833,43.0,0,120,12.0,64.0
6834,71.0,24,90,10.0,64.0
6835,55.0,0,120,11.0,64.0
6836,55.0,96,120,3.0,64.0
6837,84.0,0,870,7.0,64.0
6838,57.0,0,90,11.0,64.0
6839,84.0,0,870,1.0,64.0
6840,45.0,96,90,12.0,64.0
6841,57.0,0,90,3.0,64.0
6842,48.0,48,390,6.0,64.0
6843,72.0,0,390,2.0,64.0
6844,72.0,144,180,10.0,64.0
6845,72.0,0,180,5.0,64.0
6846,84.0,72,870,0.0,64.0
6847,60.0,0,180,5.0,64.0
6848,57.0,0,90,3.0,64.0
6849,45.0,48,90,12.0,64.0
6850,57.0,0,90,11.0,64.0
6851,72.0,144,180,10.0,64.0
6852,50.0,0,240,11.0,64.0
6853,65.0,72,870,4.0,64.0
6854,50.0,96,240,3.0,64.0
6855,38.0,0,240,12.0,64.0
6856,65.0,120,90,10.0,64.0
6857,77.0,0,390,2.0,64.0
6858,65.0,48,780,3.0,64.0
6859,65.0,24,90,10.0,64.0
6860,52.0,24,120,11.0,64.0
6861,67.0,24,90,10.0,64.0
6862,52.0,0,120,3.0,64.0
6863,40.0,0,120,12.0,64.0
6864,41.0,0,120,12.0,64.0
6865,53.0,0,120,3.0,64.0
6866,53.0,96,120,11.0,64.0
6867,69.0,24,90,10.0,64.0
6868,67.0,0,180,5.0,64.0
6869,71.0,0,390,2.0,64.0
6870,43.0,0,90,12.0,64.0
6871,71.0,96,90,10.0,64.0
6872,55.0,24,180,5.0,64.0
6873,55.0,0,90,3.0,64.0
6874,83.0,0,870,1.0,64.0
6875,43.0,0,390,6.0,64.0
6876,83.0,0,870,7.0,64.0
6877,55.0,0,390,4.0,64.0
6878,83.0,0,870,0.0,64.0
6879,55.0,0,90,11.0,64.0
6880,59.0,72,90,10.0,64.0
6881,60.0,0,90,10.0,64.0
6882,31.0,48,90,12.0,64.0
6883,43.0,0,90,3.0,64.0
6884,43.0,0,90,11.0,64.0
6885,62.0,120,90,10.0,64.0
6886,36.0,96,240,12.0,64.0
6887,64.0,96,90,10.0,64.0
6888,64.0,48,780,3.0,64.0
6889,48.0,0,240,3.0,64.0
6890,60.0,24,180,5.0,64.0
6891,72.0,0,180,5.0,64.0
6892,76.0,72,390,2.0,64.0
6893,48.0,0,390,6.0,64.0
6894,64.0,0,870,4.0,64.0
6895,48.0,0,240,11.0,64.0
6896,60.0,0,390,4.0,64.0
6897,64.0,24,90,10.0,64.0
6898,38.0,0,120,12.0,64.0
6899,50.0,0,120,3.0,64.0
6900,65.0,24,90,10.0,64.0
6901,50.0,24,120,11.0,64.0
6902,52.0,96,120,3.0,64.0
6903,40.0,0,120,12.0,64.0
6904,52.0,0,120,11.0,64.0
6905,67.0,24,90,10.0,64.0
6906,41.0,96,90,12.0,64.0
6907,48.0,0,390,6.0,64.0
6908,81.0,0,870,1.0,64.0
6909,60.0,0,180,5.0,64.0
6910,69.0,72,390,2.0,64.0
6911,72.0,24,180,5.0,64.0
6912,48.0,0,390,4.0,64.0
6913,69.0,0,90,10.0,64.0
6914,53.0,0,90,11.0,64.0
6915,81.0,0,870,7.0,64.0
6916,53.0,0,90,3.0,64.0
6917,93.0,72,870,0.0,64.0
6918,57.0,72,90,10.0,64.0
6919,59.0,48,90,10.0,64.0
6920,41.0,0,90,12.0,64.0
6921,53.0,0,90,11.0,64.0
6922,53.0,0,90,3.0,64.0
6923,60.0,120,90,10.0,64.0
6924,62.0,120,90,10.0,64.0
6925,47.0,96,240,3.0,64.0
6926,62.0,48,780,3.0,64.0
6927,47.0,0,240,11.0,64.0
6928,35.0,0,240,12.0,64.0
6929,74.0,0,390,2.0,64.0
6930,62.0,0,780,4.0,64.0
6931,62.0,24,90,10.0,64.0
6932,64.0,24,90,10.0,64.0
6933,48.0,0,120,11.0,64.0
6934,36.0,0,120,12.0,64.0
6935,48.0,24,120,3.0,64.0
6936,65.0,24,90,10.0,64.0
6937,50.0,0,120,3.0,64.0
6938,50.0,0,120,11.0,64.0
6939,38.0,96,120,12.0,64.0
6940,79.0,0,870,7.0,64.0
6941,67.0,0,390,2.0,64.0
6942,43.0,72,390,6.0,64.0
6943,67.0,0,90,10.0,64.0
6944,40.0,96,90,12.0,64.0
6945,55.0,24,180,5.0,64.0
6946,91.0,0,870,0.0,64.0
6947,52.0,0,90,3.0,64.0
6948,52.0,0,90,11.0,64.0
6949,67.0,0,180,5.0,64.0
6950,79.0,0,870,1.0,64.0
6951,77.0,0,90,8.0,64.0
6952,55.0,72,90,10.0,64.0
6953,57.0,0,90,10.0,64.0
6954,28.0,48,90,12.0,64.0
6955,40.0,0,90,3.0,64.0
6956,40.0,0,90,11.0,64.0
6957,76.0,0,90,8.0,64.0
6958,74.0,120,90,8.0,64.0
6959,59.0,0,90,10.0,64.0
6960,72.0,72,390,8.0,64.0
6961,60.0,0,180,5.0,64.0
6962,72.0,0,390,2.0,64.0
6963,72.0,24,180,5.0,64.0
6964,33.0,96,240,12.0,64.0
6965,45.0,0,240,3.0,64.0
6966,48.0,0,390,6.0,64.0
6967,60.0,48,780,3.0,64.0
6968,60.0,96,90,10.0,64.0
6969,60.0,0,390,4.0,64.0
6970,45.0,0,240,11.0,64.0
6971,60.0,24,90,10.0,64.0
6972,47.0,0,120,11.0,64.0
6973,35.0,24,120,12.0,64.0
6974,62.0,24,90,10.0,64.0
6975,47.0,0,120,3.0,64.0
6976,48.0,0,120,3.0,64.0
6977,48.0,96,120,11.0,64.0
6978,64.0,24,90,10.0,64.0
6979,36.0,0,120,12.0,64.0
6980,77.0,0,870,7.0,64.0
6981,77.0,0,90,8.0,64.0
6982,65.0,0,90,10.0,64.0
6983,89.0,0,870,0.0,64.0
6984,38.0,0,90,12.0,64.0
6985,50.0,96,90,3.0,64.0
6986,50.0,0,90,11.0,64.0
6987,77.0,0,870,1.0,64.0
6988,72.0,0,180,5.0,64.0
6989,60.0,24,180,5.0,64.0
6990,48.0,0,390,4.0,64.0
6991,60.0,0,390,4.0,64.0
6992,65.0,0,390,4.0,64.0
6993,65.0,0,390,2.0,64.0
6994,48.0,72,390,6.0,64.0
6995,76.0,0,90,8.0,64.0
6996,53.0,72,90,10.0,64.0
6997,55.0,0,90,10.0,64.0
6998,50.0,48,90,3.0,64.0
6999,50.0,0,90,11.0,64.0
7000,74.0,0,90,8.0,64.0
7001,38.0,0,90,12.0,64.0
7002,72.0,120,90,8.0,64.0
7003,57.0,0,90,10.0,64.0
7004,62.0,0,390,4.0,64.0
7005,43.0,72,390,6.0,64.0
7006,55.0,0,390,4.0,64.0
7007,71.0,0,90,8.0,64.0
7008,55.0,0,180,5.0,64.0
7009,71.0,0,390,2.0,64.0
7010,59.0,96,90,10.0,64.0
7011,31.0,0,240,12.0,64.0
7012,43.0,0,240,3.0,64.0
7013,59.0,0,240,3.0,64.0
7014,43.0,96,240,11.0,64.0
7015,67.0,24,180,5.0,64.0
7016,74.0,24,90,8.0,64.0
7017,59.0,0,90,10.0,64.0
7018,72.0,0,90,8.0,64.0
7019,45.0,0,120,11.0,64.0
7020,60.0,24,90,10.0,64.0
7021,45.0,0,120,3.0,64.0
7022,60.0,0,120,3.0,64.0
7023,33.0,24,120,12.0,64.0
7024,47.0,96,120,3.0,64.0
7025,47.0,0,120,11.0,64.0
7026,62.0,0,120,3.0,64.0
7027,71.0,0,90,8.0,64.0
7028,35.0,0,120,12.0,64.0
7029,62.0,24,90,10.0,64.0
7030,64.0,96,90,10.0,64.0
7031,76.0,0,390,1.0,64.0
7032,88.0,72,390,0.0,64.0
7033,48.0,96,240,3.0,64.0
7034,64.0,0,240,3.0,64.0
7035,64.0,0,390,2.0,64.0
7036,48.0,0,240,11.0,64.0
7037,64.0,0,90,8.0,64.0
7038,76.0,0,390,7.0,64.0
7039,60.0,0,390,4.0,64.0
7040,64.0,0,390,4.0,64.0
7041,48.0,0,390,6.0,64.0
7042,72.0,0,180,5.0,64.0
7043,60.0,24,180,5.0,64.0
7044,36.0,0,240,12.0,64.0
7045,52.0,0,90,10.0,64.0
7046,67.0,24,90,8.0,64.0
7047,65.0,0,90,8.0,64.0
7048,38.0,0,120,12.0,64.0
7049,50.0,24,120,11.0,64.0
7050,53.0,24,90,10.0,64.0
7051,50.0,0,120,3.0,64.0
7052,65.0,0,120,3.0,64.0
7053,52.0,0,120,11.0,64.0
7054,64.0,24,90,8.0,64.0
7055,67.0,0,120,3.0,64.0
7056,40.0,96,120,12.0,64.0
7057,55.0,0,90,10.0,64.0
7058,52.0,0,120,3.0,64.0
7059,67.0,0,90,5.0,64.0
7060,74.0,0,90,5.0,64.0
7061,74.0,0,90,7.0,64.0
7062,43.0,24,180,6.0,64.0
7063,53.0,0,90,11.0,64.0
7064,89.0,0,90,0.0,64.0
7065,86.0,0,90,0.0,64.0
7066,71.0,0,90,2.0,64.0
7067,74.0,0,90,2.0,64.0
7068,53.0,0,90,3.0,64.0
7069,62.0,96,90,8.0,64.0
7070,74.0,0,90,1.0,64.0
7071,83.0,0,90,1.0,64.0
7072,41.0,0,90,12.0,64.0
7073,55.0,0,90,10.0,64.0
7074,55.0,0,90,10.0,64.0
7075,67.0,120,90,8.0,64.0
7076,67.0,0,90,7.0,64.0
7077,40.0,0,90,12.0,64.0
7078,71.0,0,90,2.0,64.0
7079,74.0,0,90,2.0,64.0
7080,74.0,0,90,7.0,64.0
7081,91.0,0,90,0.0,64.0
7082,52.0,96,90,3.0,64.0
7083,83.0,0,90,1.0,64.0
7084,74.0,0,90,1.0,64.0
7085,52.0,0,90,11.0,64.0
7086,43.0,24,180,6.0,64.0
7087,74.0,0,90,5.0,64.0
7088,67.0,0,90,5.0,64.0
7089,55.0,0,90,10.0,64.0
7090,67.0,0,90,8.0,64.0
7091,86.0,0,90,0.0,64.0
7092,72.0,0,90,7.0,64.0
7093,41.0,0,90,12.0,64.0
7094,53.0,120,90,11.0,64.0
7095,53.0,0,90,3.0,64.0
7096,67.0,0,90,8.0,64.0
7097,55.0,0,90,10.0,64.0
7098,43.0,24,180,6.0,64.0
7099,74.0,0,90,5.0,64.0
7100,43.0,0,90,12.0,64.0
7101,67.0,0,90,5.0,64.0
7102,74.0,0,90,1.0,64.0
7103,71.0,0,90,7.0,64.0
7104,83.0,0,90,1.0,64.0
7105,55.0,0,90,11.0,64.0
7106,71.0,0,90,2.0,64.0
7107,86.0,0,90,0.0,64.0
7108,55.0,0,90,3.0,64.0
7109,55.0,96,90,10.0,64.0
7110,67.0,0,90,8.0,64.0
7111,74.0,0,90,2.0,64.0
7112,91.0,0,90,0.0,64.0
7113,67.0,0,90,8.0,64.0
7114,67.0,120,90,7.0,64.0
7115,55.0,0,90,10.0,64.0
7116,55.0,0,90,10.0,64.0
7117,53.0,0,90,11.0,64.0
7118,41.0,0,90,12.0,64.0
7119,69.0,0,90,7.0,64.0
7120,53.0,120,90,3.0,64.0
7121,67.0,0,90,8.0,64.0
7122,55.0,0,90,10.0,64.0
7123,67.0,120,90,8.0,64.0
7124,71.0,0,90,7.0,64.0
7125,72.0,0,90,7.0,64.0
7126,52.0,0,90,11.0,64.0
7127,52.0,0,90,3.0,64.0
7128,67.0,0,90,8.0,64.0
7129,88.0,0,90,0.0,64.0
7130,84.0,0,90,1.0,64.0
7131,40.0,0,90,12.0,64.0
7132,55.0,0,90,10.0,64.0
7133,76.0,96,90,1.0,64.0
7134,60.0,0,90,5.0,64.0
7135,48.0,24,180,6.0,64.0
7136,72.0,0,90,5.0,64.0
7137,91.0,0,90,0.0,64.0
7138,76.0,0,90,2.0,64.0
7139,72.0,0,90,2.0,64.0
7140,67.0,0,90,8.0,64.0
7141,55.0,0,90,10.0,64.0
7142,79.0,120,90,7.0,64.0
7143,84.0,0,90,1.0,64.0
7144,76.0,0,90,1.0,64.0
7145,72.0,0,90,5.0,64.0
7146,50.0,0,90,3.0,64.0
7147,88.0,0,90,0.0,64.0
7148,91.0,0,90,0.0,64.0
7149,60.0,0,90,5.0,64.0
7150,48.0,24,180,6.0,64.0
7151,55.0,0,90,10.0,64.0
7152,77.0,96,90,7.0,64.0
7153,38.0,0,90,12.0,64.0
7154,50.0,0,90,11.0,64.0
7155,67.0,0,90,8.0,64.0
7156,76.0,0,90,2.0,64.0
7157,72.0,0,90,2.0,64.0
7158,55.0,120,90,10.0,64.0
7159,67.0,0,90,8.0,64.0
7160,52.0,0,90,11.0,64.0
7161,52.0,0,90,3.0,64.0
7162,76.0,0,90,7.0,64.0
7163,40.0,0,90,12.0,64.0
7164,60.0,0,90,5.0,64.0
7165,74.0,0,90,7.0,64.0
7166,53.0,0,90,11.0,64.0
7167,76.0,0,90,2.0,64.0
7168,48.0,24,180,6.0,64.0
7169,72.0,0,90,2.0,64.0
7170,72.0,0,90,5.0,64.0
7171,67.0,0,90,8.0,64.0
7172,91.0,0,90,0.0,64.0
7173,88.0,96,90,0.0,64.0
7174,41.0,0,90,12.0,64.0
7175,84.0,0,90,1.0,64.0
7176,76.0,0,90,1.0,64.0
7177,55.0,0,90,10.0,64.0
7178,53.0,0,90,3.0,64.0
7179,72.0,120,90,7.0,64.0
7180,55.0,0,90,10.0,64.0
7181,67.0,0,90,8.0,64.0
7182,52.0,0,90,3.0,64.0
7183,71.0,0,90,7.0,64.0
7184,52.0,0,90,11.0,64.0
7185,40.0,0,90,12.0,64.0
7186,67.0,0,90,8.0,64.0
7187,55.0,120,90,10.0,64.0
7188,67.0,120,90,8.0,64.0
7189,55.0,0,90,10.0,64.0
7190,72.0,0,90,7.0,64.0
7191,91.0,0,90,0.0,64.0
7192,53.0,0,90,11.0,64.0
7193,86.0,0,90,0.0,64.0
7194,53.0,0,90,3.0,64.0
7195,67.0,0,90,8.0,64.0
7196,83.0,96,90,1.0,64.0
7197,74.0,0,90,1.0,64.0
7198,74.0,0,90,2.0,64.0
7199,71.0,0,90,2.0,64.0
7200,74.0,0,90,7.0,64.0
7201,43.0,24,180,6.0,64.0
7202,41.0,0,90,12.0,64.0
7203,55.0,0,90,10.0,64.0
7204,67.0,0,90,5.0,64.0
7205,74.0,0,90,5.0,64.0
7206,55.0,120,90,10.0,64.0
7207,79.0,0,90,7.0,64.0
7208,67.0,0,90,8.0,64.0
7209,86.0,0,90,7.0,64.0
7210,74.0,0,90,2.0,64.0
7211,55.0,0,90,10.0,64.0
7212,67.0,0,90,10.0,64.0
7213,40.0,0,90,12.0,64.0
7214,86.0,0,90,0.0,64.0
7215,43.0,24,180,6.0,64.0
7216,91.0,0,90,0.0,64.0
7217,74.0,96,90,5.0,64.0
7218,67.0,0,90,5.0,64.0
7219,74.0,0,90,1.0,64.0
7220,83.0,0,90,1.0,64.0
7221,52.0,0,90,11.0,64.0
7222,74.0,0,90,8.0,64.0
7223,71.0,0,90,2.0,64.0
7224,52.0,0,90,3.0,64.0
7225,55.0,0,90,10.0,64.0
7226,67.0,0,90,10.0,64.0
7227,53.0,0,90,3.0,64.0
7228,41.0,120,90,12.0,64.0
7229,84.0,0,90,7.0,64.0
7230,72.0,0,90,8.0,64.0
7231,53.0,0,90,11.0,64.0
7232,43.0,0,90,12.0,64.0
7233,91.0,0,90,0.0,64.0
7234,86.0,0,90,0.0,64.0
7235,67.0,0,90,10.0,64.0
7236,74.0,0,90,2.0,64.0
7237,67.0,0,90,5.0,64.0
7238,71.0,0,90,2.0,64.0
7239,43.0,24,180,6.0,64.0
7240,83.0,0,90,7.0,64.0
7241,71.0,0,90,8.0,64.0
7242,55.0,0,90,11.0,64.0
7243,74.0,0,90,5.0,64.0
7244,55.0,0,90,10.0,64.0
7245,83.0,96,90,1.0,64.0
7246,74.0,0,90,1.0,64.0
7247,55.0,0,90,3.0,64.0
7248,67.0,0,90,8.0,64.0
7249,55.0,0,90,10.0,64.0
7250,79.0,120,90,7.0,64.0
7251,69.0,120,90,8.0,64.0
7252,53.0,0,90,11.0,64.0
7253,53.0,0,90,3.0,64.0
7254,55.0,0,90,10.0,64.0
7255,67.0,0,90,10.0,64.0
7256,81.0,0,90,7.0,64.0
7257,41.0,0,90,12.0,64.0
7258,83.0,0,90,7.0,64.0
7259,55.0,0,90,10.0,64.0
7260,71.0,120,90,8.0,64.0
7261,67.0,0,90,10.0,64.0
7262,84.0,0,90,7.0,64.0
7263,52.0,0,90,11.0,64.0
7264,55.0,0,90,10.0,64.0
7265,48.0,24,180,6.0,64.0
7266,67.0,0,90,10.0,64.0
7267,72.0,96,90,5.0,64.0
7268,60.0,0,90,5.0,64.0
7269,40.0,0,90,12.0,64.0
7270,52.0,0,90,3.0,64.0
7271,72.0,0,90,8.0,64.0
7272,72.0,120,90,8.0,64.0
7273,84.0,0,90,7.0,64.0
7274,67.0,0,90,10.0,64.0
7275,55.0,0,90,10.0,64.0
7276,38.0,0,90,12.0,64.0
7277,71.0,0,90,8.0,64.0
7278,65.0,120,90,10.0,64.0
7279,59.0,0,90,3.0,64.0
7280,50.0,0,90,11.0,64.0
7281,83.0,0,90,7.0,64.0
7282,72.0,0,90,8.0,64.0
7283,60.0,0,90,3.0,64.0
7284,65.0,0,90,10.0,64.0
7285,84.0,120,90,7.0,64.0
7286,86.0,6,450,7.0,64.0
7287,62.0,0,90,3.0,64.0
7288,64.0,120,90,10.0,64.0
7289,74.0,0,90,8.0,64.0
7290,48.0,0,90,11.0,64.0
7291,36.0,0,90,12.0,64.0
7292,74.0,120,90,8.0,64.0
7293,64.0,0,90,10.0,64.0
7294,76.0,0,90,8.0,64.0
7295,62.0,114,90,3.0,64.0
7296,35.0,0,90,12.0,64.0
7297,47.0,0,90,11.0,64.0
7298,62.0,0,90,10.0,64.0
7299,45.0,120,90,11.0,64.0
7300,33.0,0,90,12.0,64.0
7301,62.0,0,90,10.0,64.0
7302,78.0,0,90,8.0,64.0
7303,31.0,0,480,12.0,64.0
7304,71.0,0,240,1.0,64.0
7305,67.0,0,390,5.0,64.0
7306,55.0,0,390,5.0,64.0
7307,59.0,120,90,10.0,64.0
7308,83.0,0,240,0.0,64.0
7309,71.0,0,240,2.0,64.0
7310,83.0,96,240,7.0,64.0
7311,43.0,72,390,6.0,64.0
7312,55.0,0,480,3.0,64.0
7313,59.0,0,480,3.0,64.0
7314,55.0,0,390,4.0,64.0
7315,62.0,0,390,4.0,64.0
7316,79.0,0,90,8.0,64.0
7317,43.0,0,480,11.0,64.0
7318,71.0,24,90,10.0,64.0
7319,84.0,0,120,0.0,64.0
7320,84.0,24,120,7.0,64.0
7321,72.0,0,120,1.0,64.0
7322,72.0,0,120,2.0,64.0
7323,71.0,24,90,10.0,64.0
7324,74.0,0,120,2.0,64.0
7325,74.0,0,120,1.0,64.0
7326,71.0,24,90,10.0,64.0
7327,86.0,96,120,0.0,64.0
7328,86.0,0,120,7.0,64.0
7329,55.0,72,390,5.0,64.0
7330,71.0,0,390,2.0,64.0
7331,88.0,0,90,7.0,64.0
7332,67.0,0,390,5.0,64.0
7333,83.0,0,90,8.0,64.0
7334,55.0,0,390,4.0,64.0
7335,67.0,0,390,4.0,64.0
7336,67.0,0,870,3.0,64.0
7337,71.0,0,90,8.0,64.0
7338,55.0,72,870,12.0,64.0
7339,43.0,0,390,6.0,64.0
7340,67.0,0,870,11.0,64.0
7341,83.0,0,390,1.0,64.0
7342,71.0,120,90,10.0,64.0
7343,88.0,0,870,0.0,64.0
7344,71.0,120,90,10.0,64.0
7345,88.0,0,90,7.0,64.0
7346,71.0,48,90,10.0,64.0
7347,71.0,120,90,10.0,64.0
7348,81.0,48,780,1.0,64.0
7349,69.0,0,780,2.0,64.0
7350,81.0,96,240,7.0,64.0
7351,69.0,120,90,10.0,64.0
7352,69.0,24,90,10.0,64.0
7353,69.0,24,90,10.0,64.0
7354,83.0,24,120,7.0,64.0
7355,69.0,24,90,10.0,64.0
7356,84.0,96,120,7.0,64.0
7357,69.0,120,90,10.0,64.0
7358,66.0,0,870,3.0,64.0
7359,62.0,0,90,8.0,64.0
7360,74.0,0,90,8.0,64.0
7361,54.0,0,870,12.0,64.0
7362,66.0,72,870,11.0,64.0
7363,86.0,0,90,7.0,64.0
7364,86.0,0,870,0.0,64.0
7365,69.0,72,90,10.0,64.0
7366,74.0,120,90,7.0,64.0
7367,69.0,0,90,10.0,64.0
7368,69.0,120,90,10.0,64.0
7369,79.0,48,780,1.0,64.0
7370,79.0,96,240,7.0,64.0
7371,67.0,0,780,2.0,64.0
7372,67.0,120,90,10.0,64.0
7373,67.0,24,90,10.0,64.0
7374,67.0,24,90,10.0,64.0
7375,81.0,24,120,7.0,64.0
7376,83.0,96,120,7.0,64.0
7377,67.0,24,90,10.0,64.0
7378,55.0,0,390,5.0,64.0
7379,67.0,0,90,10.0,64.0
7380,67.0,0,390,5.0,64.0
7381,79.0,120,90,8.0,64.0
7382,43.0,72,390,6.0,64.0
7383,52.0,0,870,12.0,64.0
7384,84.0,0,90,7.0,64.0
7385,64.0,0,870,3.0,64.0
7386,64.0,72,870,4.0,64.0
7387,84.0,0,870,0.0,64.0
7388,64.0,0,870,11.0,64.0
7389,67.0,72,90,10.0,64.0
7390,84.0,48,90,7.0,64.0
7391,67.0,0,90,10.0,64.0
7392,67.0,120,90,10.0,64.0
7393,78.0,48,780,1.0,64.0
7394,78.0,96,240,7.0,64.0
7395,66.0,120,90,10.0,64.0
7396,66.0,0,780,2.0,64.0
7397,66.0,24,90,10.0,64.0
7398,79.0,24,120,7.0,64.0
7399,66.0,24,90,10.0,64.0
7400,81.0,96,120,7.0,64.0
7401,66.0,24,90,10.0,64.0
7402,71.0,120,90,8.0,64.0
7403,62.0,72,870,3.0,64.0
7404,62.0,0,870,11.0,64.0
7405,66.0,0,90,10.0,64.0
7406,50.0,0,870,12.0,64.0
7407,62.0,0,870,4.0,64.0
7408,83.0,0,90,7.0,64.0
7409,83.0,0,870,0.0,64.0
7410,66.0,72,90,10.0,64.0
7411,71.0,120,90,7.0,64.0
7412,66.0,0,90,10.0,64.0
7413,66.0,120,90,10.0,64.0
7414,64.0,120,90,10.0,64.0
7415,76.0,0,780,1.0,64.0
7416,64.0,48,780,2.0,64.0
7417,76.0,96,240,7.0,64.0
7418,64.0,24,90,10.0,64.0
7419,78.0,24,120,7.0,64.0
7420,64.0,24,90,10.0,64.0
7421,64.0,24,90,10.0,64.0
7422,79.0,96,120,7.0,64.0
7423,48.0,0,870,12.0,64.0
7424,60.0,0,870,3.0,64.0
7425,48.0,0,390,6.0,64.0
7426,81.0,72,870,0.0,64.0
7427,60.0,0,870,11.0,64.0
7428,72.0,72,390,5.0,64.0
7429,60.0,0,390,5.0,64.0
7430,48.0,0,870,4.0,64.0
7431,64.0,120,90,10.0,64.0
7432,64.0,0,90,8.0,64.0
7433,81.0,0,90,7.0,64.0
7434,76.0,0,90,8.0,64.0
7435,60.0,0,870,4.0,64.0
7436,64.0,72,90,10.0,64.0
7437,64.0,48,90,10.0,64.0
7438,81.0,0,90,7.0,64.0
7439,64.0,120,90,10.0,64.0
7440,74.0,96,240,7.0,64.0
7441,62.0,0,780,2.0,64.0
7442,74.0,48,780,1.0,64.0
7443,62.0,120,90,10.0,64.0
7444,62.0,24,90,10.0,64.0
7445,62.0,24,90,10.0,64.0
7446,76.0,24,120,7.0,64.0
7447,78.0,96,120,7.0,64.0
7448,62.0,24,90,10.0,64.0
7449,67.0,0,390,5.0,64.0
7450,55.0,120,90,8.0,64.0
7451,67.0,0,90,8.0,64.0
7452,79.0,48,240,7.0,64.0
7453,62.0,0,90,10.0,64.0
7454,55.0,0,390,5.0,64.0
7455,79.0,0,390,0.0,64.0
7456,59.0,0,390,11.0,64.0
7457,55.0,0,390,4.0,64.0
7458,43.0,0,390,6.0,64.0
7459,47.0,0,390,12.0,64.0
7460,59.0,72,390,3.0,64.0
7461,62.0,24,90,10.0,64.0
7462,62.0,24,90,10.0,64.0
7463,81.0,24,120,7.0,64.0
7464,83.0,96,120,7.0,64.0
7465,62.0,24,90,10.0,64.0
7466,84.0,0,90,7.0,64.0
7467,81.0,0,90,1.0,64.0
7468,84.0,0,90,1.0,64.0
7469,62.0,0,90,4.0,64.0
7470,86.0,0,90,0.0,64.0
7471,57.0,0,90,3.0,64.0
7472,60.0,0,90,3.0,64.0
7473,69.0,120,90,2.0,64.0
7474,45.0,0,90,12.0,64.0
7475,50.0,0,90,10.0,64.0
7476,62.0,0,90,10.0,64.0
7477,72.0,0,90,8.0,64.0
7478,72.0,0,90,2.0,64.0
7479,57.0,0,90,11.0,64.0
7480,66.0,0,90,8.0,64.0
7481,50.0,0,90,11.0,64.0
7482,62.0,0,90,10.0,64.0
7483,50.0,0,90,10.0,64.0
7484,38.0,120,90,12.0,64.0
7485,72.0,0,90,8.0,64.0
7486,69.0,0,90,2.0,64.0
7487,60.0,0,90,3.0,64.0
7488,81.0,0,90,1.0,64.0
7489,84.0,0,90,1.0,64.0
7490,83.0,0,90,7.0,64.0
7491,62.0,0,90,4.0,64.0
7492,50.0,0,90,10.0,64.0
7493,72.0,0,90,2.0,64.0
7494,62.0,0,90,10.0,64.0
7495,57.0,0,90,3.0,64.0
7496,86.0,0,90,0.0,64.0
7497,45.0,0,90,12.0,64.0
7498,57.0,120,90,11.0,64.0
7499,55.0,0,90,11.0,64.0
7500,62.0,0,90,10.0,64.0
7501,71.0,0,90,8.0,64.0
7502,50.0,0,90,10.0,64.0
7503,84.0,120,90,7.0,64.0
7504,43.0,0,90,12.0,64.0
7505,86.0,0,90,0.0,64.0
7506,50.0,120,90,10.0,64.0
7507,48.0,0,390,6.0,64.0
7508,62.0,0,90,10.0,64.0
7509,69.0,0,90,2.0,64.0
7510,86.0,0,90,7.0,64.0
7511,60.0,0,90,3.0,64.0
7512,57.0,0,90,3.0,64.0
7513,81.0,0,90,1.0,64.0
7514,84.0,0,90,1.0,64.0
7515,72.0,0,90,2.0,64.0
7516,72.0,72,390,5.0,64.0
7517,60.0,0,390,5.0,64.0
7518,69.0,0,90,8.0,64.0
7519,42.0,0,90,12.0,64.0
7520,54.0,0,90,11.0,64.0
7521,62.0,0,90,4.0,64.0
7522,66.0,0,90,8.0,64.0
7523,38.0,0,90,12.0,64.0
7524,50.0,0,90,11.0,64.0
7525,62.0,120,90,10.0,64.0
7526,50.0,0,90,10.0,64.0
7527,40.0,0,90,12.0,64.0
7528,62.0,0,90,10.0,64.0
7529,50.0,0,90,10.0,64.0
7530,52.0,48,90,11.0,64.0
7531,67.0,0,90,8.0,64.0
7532,84.0,0,90,7.0,64.0
7533,54.0,0,90,11.0,64.0
7534,42.0,120,90,12.0,64.0
7535,69.0,0,90,8.0,64.0
7536,50.0,0,90,10.0,64.0
7537,62.0,0,90,10.0,64.0
7538,55.0,0,90,3.0,64.0
7539,59.0,0,90,3.0,64.0
7540,50.0,0,90,10.0,64.0
7541,62.0,0,90,10.0,64.0
7542,79.0,120,90,1.0,64.0
7543,62.0,0,90,4.0,64.0
7544,71.0,0,90,8.0,64.0
7545,83.0,0,90,7.0,64.0
7546,55.0,0,90,11.0,64.0
7547,86.0,0,90,0.0,64.0
7548,71.0,0,90,2.0,64.0
7549,83.0,0,90,1.0,64.0
7550,67.0,0,90,2.0,64.0
7551,43.0,0,90,12.0,64.0
7552,50.0,0,90,10.0,64.0
7553,50.0,0,90,12.0,64.0
7554,71.0,0,90,8.0,64.0
7555,62.0,0,90,11.0,64.0
7556,62.0,120,90,10.0,64.0
7557,86.0,0,90,0.0,64.0
7558,69.0,0,90,8.0,64.0
7559,81.0,0,90,7.0,64.0
7560,71.0,0,90,2.0,64.0
7561,67.0,0,90,2.0,64.0
7562,79.0,0,90,1.0,64.0
7563,83.0,0,90,1.0,64.0
7564,62.0,0,90,10.0,64.0
7565,60.0,0,90,11.0,64.0
7566,59.0,120,90,3.0,64.0
7567,55.0,0,90,3.0,64.0
7568,48.0,0,90,12.0,64.0
7569,50.0,0,90,10.0,64.0
7570,62.0,0,90,4.0,64.0
7571,59.0,120,90,11.0,64.0
7572,67.0,0,90,8.0,64.0
7573,83.0,0,90,7.0,64.0
7574,47.0,0,90,12.0,64.0
7575,62.0,0,90,10.0,64.0
7576,50.0,0,90,10.0,64.0
7577,55.0,0,390,5.0,64.0
7578,67.0,0,390,5.0,64.0
7579,79.0,0,90,1.0,64.0
7580,83.0,0,90,1.0,64.0
7581,45.0,0,90,12.0,64.0
7582,84.0,0,90,7.0,64.0
7583,43.0,72,390,6.0,64.0
7584,67.0,0,90,2.0,64.0
7585,71.0,0,90,2.0,64.0
7586,86.0,120,90,0.0,64.0
7587,59.0,0,90,3.0,64.0
7588,50.0,0,90,10.0,64.0
7589,55.0,0,90,3.0,64.0
7590,62.0,0,90,4.0,64.0
7591,57.0,0,90,11.0,64.0
7592,66.0,0,90,8.0,64.0
7593,62.0,0,90,10.0,64.0
7594,43.0,0,90,12.0,64.0
7595,55.0,120,90,11.0,64.0
7596,62.0,0,90,10.0,64.0
7597,50.0,0,90,10.0,64.0
7598,67.0,0,90,8.0,64.0
7599,54.0,0,90,11.0,64.0
7600,42.0,0,90,12.0,64.0
7601,69.0,48,90,8.0,64.0
7602,83.0,0,90,7.0,64.0
7603,50.0,0,90,10.0,64.0
7604,62.0,0,90,10.0,64.0
7605,62.0,0,90,10.0,64.0
7606,50.0,0,90,10.0,64.0
7607,55.0,0,90,11.0,64.0
7608,67.0,120,90,8.0,64.0
7609,43.0,0,90,12.0,64.0
7610,84.0,0,90,7.0,64.0
7611,62.0,0,90,4.0,64.0
7612,84.0,0,90,1.0,64.0
7613,69.0,0,90,2.0,64.0
7614,45.0,0,90,12.0,64.0
7615,72.0,0,90,8.0,64.0
7616,81.0,120,90,1.0,64.0
7617,60.0,0,90,3.0,64.0
7618,72.0,0,90,2.0,64.0
7619,57.0,0,90,3.0,64.0
7620,57.0,0,90,11.0,64.0
7621,62.0,0,90,10.0,64.0
7622,50.0,0,90,10.0,64.0
7623,86.0,0,90,0.0,64.0
7624,38.0,0,90,12.0,64.0
7625,50.0,0,90,10.0,64.0
7626,62.0,0,90,10.0,64.0
7627,50.0,0,90,11.0,64.0
7628,66.0,120,90,8.0,64.0
7629,84.0,0,90,1.0,64.0
7630,81.0,0,90,1.0,64.0
7631,57.0,0,90,11.0,64.0
7632,69.0,0,90,2.0,64.0
7633,72.0,0,90,2.0,64.0
7634,72.0,0,90,8.0,64.0
7635,62.0,0,90,4.0,64.0
7636,83.0,120,90,7.0,64.0
7637,62.0,0,90,10.0,64.0
7638,50.0,0,90,10.0,64.0
7639,45.0,0,90,12.0,64.0
7640,60.0,0,90,3.0,64.0
7641,57.0,0,90,3.0,64.0
7642,86.0,0,90,0.0,64.0
7643,71.0,0,90,8.0,64.0
7644,43.0,0,90,12.0,64.0
7645,62.0,0,90,10.0,64.0
7646,50.0,120,90,10.0,64.0
7647,55.0,0,90,11.0,64.0
7648,84.0,0,90,7.0,64.0
7649,86.0,0,90,7.0,64.0
7650,62.0,0,90,10.0,64.0
7651,86.0,0,90,0.0,64.0
7652,48.0,72,390,6.0,64.0
7653,50.0,0,90,10.0,64.0
7654,60.0,0,390,5.0,64.0
7655,72.0,0,390,5.0,64.0
7656,81.0,0,90,1.0,64.0
7657,69.0,0,90,2.0,64.0
7658,54.0,0,90,11.0,64.0
7659,69.0,0,90,8.0,64.0
7660,72.0,0,90,2.0,64.0
7661,62.0,0,90,4.0,64.0
7662,84.0,0,90,1.0,64.0
7663,42.0,0,90,12.0,64.0
7664,60.0,120,90,3.0,64.0
7665,57.0,0,90,3.0,64.0
7666,66.0,120,90,8.0,64.0
7667,50.0,0,90,11.0,64.0
7668,62.0,0,90,10.0,64.0
7669,38.0,0,90,12.0,64.0
7670,50.0,0,90,10.0,64.0
7671,84.0,48,90,7.0,64.0
7672,62.0,0,90,10.0,64.0
7673,40.0,0,90,12.0,64.0
7674,50.0,0,90,10.0,64.0
7675,52.0,0,90,11.0,64.0
7676,67.0,0,90,8.0,64.0
7677,62.0,0,90,10.0,64.0
7678,50.0,0,90,10.0,64.0
7679,54.0,0,90,11.0,64.0
7680,69.0,0,90,8.0,64.0
7681,42.0,120,90,12.0,64.0
7682,62.0,0,90,4.0,64.0
7683,55.0,0,90,3.0,64.0
7684,55.0,0,90,4.0,64.0
7685,43.0,0,90,12.0,64.0
7686,59.0,0,90,3.0,64.0
7687,62.0,120,90,10.0,64.0
7688,50.0,0,90,10.0,64.0
7689,83.0,0,90,0.0,64.0
7690,83.0,0,90,7.0,64.0
7691,55.0,0,90,11.0,64.0
7692,86.0,0,90,0.0,64.0
7693,67.0,0,90,2.0,64.0
7694,71.0,0,90,2.0,64.0
7695,79.0,0,90,1.0,64.0
7696,71.0,0,90,8.0,64.0
7697,83.0,0,90,1.0,64.0
7698,59.0,0,90,11.0,64.0
7699,47.0,0,90,12.0,64.0
7700,79.0,120,90,8.0,64.0
7701,62.0,0,90,10.0,64.0
7702,43.0,0,240,6.0,64.0
7703,79.0,0,90,0.0,64.0
7704,62.0,0,90,11.0,64.0
7705,67.0,0,90,2.0,64.0
7706,71.0,0,90,2.0,64.0
7707,79.0,0,90,8.0,64.0
7708,83.0,0,90,0.0,64.0
7709,62.0,0,90,4.0,64.0
7710,55.0,0,90,4.0,64.0
7711,65.0,0,90,10.0,64.0
7712,71.0,120,90,1.0,64.0
7713,55.0,0,90,3.0,64.0
7714,67.0,0,90,1.0,64.0
7715,59.0,0,90,3.0,64.0
7716,83.0,0,90,7.0,64.0
7717,50.0,0,90,12.0,64.0
7718,67.0,0,240,5.0,64.0
7719,55.0,110,240,5.0,64.0
7720,72.0,0,90,2.0,64.0
7721,69.0,0,90,2.0,64.0
7722,84.0,10,90,0.0,64.0
7723,57.0,0,90,3.0,64.0
7724,69.0,0,90,1.0,64.0
7725,64.0,0,90,10.0,64.0
7726,81.0,0,90,0.0,64.0
7727,48.0,0,90,12.0,64.0
7728,81.0,0,90,8.0,64.0
7729,72.0,0,90,1.0,64.0
7730,84.0,0,90,7.0,64.0
7731,60.0,0,90,11.0,64.0
7732,60.0,0,90,3.0,64.0
7733,62.0,0,90,4.0,64.0
7734,74.0,0,90,1.0,64.0
7735,43.0,0,240,6.0,64.0
7736,55.0,0,90,4.0,64.0
7737,47.0,0,90,12.0,64.0
7738,83.0,0,90,8.0,64.0
7739,67.0,110,240,5.0,64.0
7740,71.0,0,90,1.0,64.0
7741,86.0,0,90,7.0,64.0
7742,55.0,0,240,5.0,64.0
7743,59.0,0,90,11.0,64.0
7744,62.0,0,90,3.0,64.0
7745,59.0,0,90,3.0,64.0
7746,74.0,0,90,2.0,64.0
7747,71.0,120,90,2.0,64.0
7748,62.0,0,90,10.0,64.0
7749,83.0,0,90,0.0,64.0
7750,86.0,0,90,0.0,64.0
7751,48.0,0,90,12.0,64.0
7752,81.0,0,90,8.0,64.0
7753,60.0,10,90,11.0,64.0
7754,64.0,0,90,10.0,64.0
7755,62.0,0,90,10.0,64.0
7756,59.0,0,90,11.0,64.0
7757,71.0,0,90,1.0,64.0
7758,83.0,120,90,8.0,64.0
7759,86.0,0,90,0.0,64.0
7760,83.0,0,90,0.0,64.0
7761,47.0,0,90,12.0,64.0
7762,62.0,0,90,4.0,64.0
7763,55.0,0,90,4.0,64.0
7764,71.0,0,90,2.0,64.0
7765,74.0,0,90,2.0,64.0
7766,43.0,0,240,6.0,64.0
7767,74.0,0,90,1.0,64.0
7768,59.0,0,90,3.0,64.0
7769,62.0,0,90,3.0,64.0
7770,67.0,0,240,5.0,64.0
7771,55.0,110,240,5.0,64.0
7772,86.0,0,90,7.0,64.0
7773,88.0,0,90,7.0,64.0
7774,76.0,0,90,1.0,64.0
7775,72.0,0,90,1.0,64.0
7776,72.0,0,90,2.0,64.0
7777,84.0,10,90,8.0,64.0
7778,76.0,0,90,2.0,64.0
7779,60.0,0,90,3.0,64.0
7780,64.0,0,90,3.0,64.0
7781,60.0,0,90,10.0,64.0
7782,84.0,0,90,0.0,64.0
7783,88.0,0,90,0.0,64.0
7784,57.0,0,90,11.0,64.0
7785,45.0,0,90,12.0,64.0
7786,86.0,96,90,0.0,64.0
7787,89.0,0,90,0.0,64.0
7788,55.0,0,90,5.0,64.0
7789,74.0,0,90,1.0,64.0
7790,65.0,0,90,3.0,64.0
7791,62.0,0,90,3.0,64.0
7792,77.0,0,90,2.0,64.0
7793,74.0,0,90,2.0,64.0
7794,89.0,0,90,7.0,64.0
7795,43.0,0,90,11.0,64.0
7796,55.0,0,90,4.0,64.0
7797,62.0,0,90,4.0,64.0
7798,31.0,0,90,12.0,64.0
7799,86.0,0,90,8.0,64.0
7800,43.0,24,180,6.0,64.0
7801,67.0,0,90,5.0,64.0
7802,77.0,0,90,1.0,64.0
7803,59.0,0,90,10.0,64.0
7804,59.0,0,90,10.0,64.0
7805,74.0,0,90,8.0,64.0
7806,77.0,120,90,7.0,64.0
7807,60.0,0,90,3.0,64.0
7808,55.0,0,90,11.0,64.0
7809,76.0,0,90,7.0,64.0
7810,76.0,0,90,1.0,64.0
7811,72.0,0,90,1.0,64.0
7812,64.0,0,90,3.0,64.0
7813,67.0,0,90,5.0,64.0
7814,72.0,96,90,2.0,64.0
7815,55.0,0,90,5.0,64.0
7816,43.0,0,90,12.0,64.0
7817,43.0,24,180,6.0,64.0
7818,55.0,0,90,4.0,64.0
7819,76.0,0,90,2.0,64.0
7820,62.0,0,90,4.0,64.0
7821,72.0,0,90,8.0,64.0
7822,67.0,0,90,10.0,64.0
7823,88.0,0,90,0.0,64.0
7824,84.0,0,90,0.0,64.0
7825,77.0,0,90,1.0,64.0
7826,74.0,0,90,1.0,64.0
7827,65.0,0,90,3.0,64.0
7828,77.0,0,90,2.0,64.0
7829,89.0,0,90,0.0,64.0
7830,62.0,0,90,3.0,64.0
7831,74.0,0,90,8.0,64.0
7832,67.0,0,90,10.0,64.0
7833,86.0,120,90,0.0,64.0
7834,77.0,0,90,7.0,64.0
7835,74.0,0,90,2.0,64.0
7836,67.0,0,90,10.0,64.0
7837,79.0,0,90,2.0,64.0
7838,76.0,0,90,2.0,64.0
7839,72.0,0,90,8.0,64.0
7840,55.0,0,90,4.0,64.0
7841,43.0,0,90,12.0,64.0
7842,67.0,0,90,5.0,64.0
7843,62.0,0,90,4.0,64.0
7844,55.0,96,90,11.0,64.0
7845,67.0,0,90,3.0,64.0
7846,64.0,0,90,3.0,64.0
7847,76.0,0,90,1.0,64.0
7848,55.0,0,90,5.0,64.0
7849,79.0,0,90,1.0,64.0
7850,91.0,0,90,0.0,64.0
7851,88.0,0,90,0.0,64.0
7852,43.0,24,180,6.0,64.0
7853,76.0,0,90,7.0,64.0
7854,74.0,0,90,8.0,64.0
7855,67.0,0,90,10.0,64.0
7856,77.0,120,90,7.0,64.0
7857,89.0,0,90,0.0,64.0
7858,77.0,0,90,2.0,64.0
7859,79.0,0,90,7.0,64.0
7860,74.0,0,90,2.0,64.0
7861,76.0,0,90,8.0,64.0
7862,86.0,0,90,0.0,64.0
7863,65.0,0,90,3.0,64.0
7864,62.0,0,90,3.0,64.0
7865,55.0,0,90,11.0,64.0
7866,43.0,0,90,12.0,64.0
7867,74.0,0,90,1.0,64.0
7868,77.0,120,90,1.0,64.0
7869,55.0,0,90,10.0,64.0
7870,55.0,0,90,10.0,64.0
7871,77.0,0,90,7.0,64.0
7872,74.0,120,90,8.0,64.0
7873,72.0,0,90,2.0,64.0
7874,76.0,0,90,2.0,64.0
7875,72.0,0,90,1.0,64.0
7876,76.0,0,90,1.0,64.0
7877,60.0,0,90,4.0,64.0
7878,76.0,0,90,7.0,64.0
7879,60.0,0,90,3.0,64.0
7880,84.0,96,90,0.0,64.0
7881,48.0,0,90,11.0,64.0
7882,64.0,0,90,3.0,64.0
7883,64.0,0,90,4.0,64.0
7884,48.0,24,180,6.0,64.0
7885,36.0,0,90,12.0,64.0
7886,72.0,0,90,5.0,64.0
7887,60.0,0,90,10.0,64.0
7888,60.0,0,90,5.0,64.0
7889,72.0,0,90,8.0,64.0
7890,88.0,0,90,0.0,64.0
7891,72.0,0,90,8.0,64.0
7892,76.0,0,90,7.0,64.0
7893,60.0,120,90,10.0,64.0
7894,72.0,0,90,5.0,64.0
7895,83.0,0,90,0.0,64.0
7896,59.0,0,90,3.0,64.0
7897,62.0,0,90,3.0,64.0
7898,74.0,0,90,2.0,64.0
7899,60.0,0,90,11.0,64.0
7900,60.0,96,90,4.0,64.0
7901,60.0,0,90,5.0,64.0
7902,71.0,0,90,1.0,64.0
7903,86.0,0,90,0.0,64.0
7904,74.0,0,90,7.0,64.0
7905,48.0,24,180,6.0,64.0
7906,71.0,0,90,8.0,64.0
7907,64.0,0,90,4.0,64.0
7908,71.0,0,90,2.0,64.0
7909,74.0,0,90,1.0,64.0
7910,48.0,0,90,12.0,64.0
7911,72.0,0,90,10.0,64.0
7912,76.0,0,90,7.0,64.0
7913,76.0,0,90,1.0,64.0
7914,84.0,0,90,0.0,64.0
7915,76.0,0,90,2.0,64.0
7916,64.0,120,90,3.0,64.0
7917,88.0,0,90,0.0,64.0
7918,72.0,0,90,1.0,64.0
7919,60.0,0,90,3.0,64.0
7920,72.0,0,90,8.0,64.0
7921,72.0,0,90,10.0,64.0
7922,72.0,0,90,2.0,64.0
7923,74.0,0,90,1.0,64.0
7924,71.0,96,90,8.0,64.0
7925,77.0,0,90,1.0,64.0
7926,62.0,0,90,3.0,64.0
7927,65.0,0,90,3.0,64.0
7928,48.0,0,90,12.0,64.0
7929,72.0,0,90,10.0,64.0
7930,60.0,0,90,4.0,64.0
7931,60.0,0,90,5.0,64.0
7932,74.0,0,90,2.0,64.0
7933,77.0,0,90,2.0,64.0
7934,60.0,0,90,11.0,64.0
7935,48.0,24,180,6.0,64.0
7936,89.0,0,90,0.0,64.0
7937,86.0,0,90,0.0,64.0
7938,74.0,0,90,7.0,64.0
7939,72.0,0,90,5.0,64.0
7940,64.0,0,90,4.0,64.0
7941,72.0,0,90,10.0,64.0
7942,76.0,120,90,7.0,64.0
7943,72.0,0,90,8.0,64.0
7944,72.0,0,90,1.0,64.0
7945,36.0,0,90,12.0,64.0
7946,60.0,120,90,10.0,64.0
7947,77.0,0,90,7.0,64.0
7948,76.0,0,90,1.0,64.0
7949,88.0,0,90,0.0,64.0
7950,72.0,0,90,2.0,64.0
7951,74.0,0,90,8.0,64.0
7952,76.0,0,90,2.0,64.0
7953,64.0,0,90,3.0,64.0
7954,60.0,0,90,3.0,64.0
7955,48.0,0,90,11.0,64.0
7956,84.0,0,90,0.0,64.0
7957,60.0,0,90,10.0,64.0
7958,76.0,0,90,7.0,64.0
7959,72.0,120,90,8.0,64.0
7960,79.0,0,1830,5.0,64.0
7961,43.0,0,90,6.0,64.0
7962,67.0,0,1830,2.0,64.0
7963,79.0,0,1830,1.0,64.0
7964,67.0,0,1830,1.0,64.0
7965,77.0,0,90,7.0,64.0
7966,79.0,0,1830,2.0,64.0
7967,55.0,120,90,10.0,64.0
7968,79.0,72,1830,0.0,64.0
7969,67.0,0,1830,5.0,64.0
7970,31.0,0,90,12.0,64.0
7971,91.0,0,1830,0.0,64.0
7972,43.0,0,90,11.0,64.0
7973,55.0,0,1830,3.0,64.0
7974,67.0,0,1830,3.0,64.0
7975,74.0,0,90,8.0,64.0
7976,55.0,0,1830,4.0,64.0
7977,67.0,0,1830,4.0,64.0
7978,55.0,0,90,10.0,64.0
7979,62.0,0,90,8.0,64.0
7980,43.0,120,90,6.0,64.0
7981,77.0,0,90,7.0,64.0
7982,43.0,120,90,12.0,64.0
7983,76.0,0,90,7.0,64.0
7984,60.0,0,90,8.0,64.0
7985,67.0,0,90,10.0,64.0
7986,43.0,0,90,6.0,64.0
7987,55.0,0,90,11.0,64.0
7988,62.0,0,90,8.0,64.0
7989,77.0,0,90,7.0,64.0
7990,67.0,120,90,10.0,64.0
7991,43.0,0,90,6.0,64.0
7992,76.0,120,90,7.0,64.0
7993,67.0,0,90,10.0,64.0
7994,55.0,0,90,11.0,64.0
7995,43.0,0,90,6.0,64.0
7996,60.0,0,90,8.0,64.0
7997,43.0,0,90,12.0,64.0
7998,77.0,0,90,7.0,64.0
7999,43.0,120,90,6.0,64.0
8000,67.0,0,90,10.0,64.0
8001,62.0,0,90,8.0,64.0
8002,64.0,0,90,8.0,64.0
8003,31.0,0,90,12.0,64.0
8004,79.0,0,90,7.0,64.0
8005,43.0,120,90,11.0,64.0
8006,55.0,0,90,10.0,64.0
8007,43.0,0,90,6.0,64.0
8008,55.0,0,90,10.0,64.0
8009,43.0,0,90,6.0,64.0
8010,77.0,120,90,7.0,64.0
8011,62.0,0,90,8.0,64.0
8012,36.0,0,90,12.0,64.0
8013,60.0,0,90,10.0,64.0
8014,48.0,0,90,11.0,64.0
8015,76.0,0,90,7.0,64.0
8016,60.0,0,90,8.0,64.0
8017,43.0,120,90,6.0,64.0
8018,60.0,0,90,11.0,64.0
8019,48.0,0,90,12.0,64.0
8020,76.0,0,90,8.0,64.0
8021,64.0,0,90,10.0,64.0
8022,76.0,120,90,7.0,64.0
8023,43.0,0,90,6.0,64.0
8024,74.0,0,90,8.0,64.0
8025,62.0,120,90,10.0,64.0
8026,74.0,0,90,7.0,64.0
8027,47.0,0,90,12.0,64.0
8028,43.0,0,90,6.0,64.0
8029,59.0,0,90,11.0,64.0
8030,60.0,120,90,10.0,64.0
8031,43.0,0,90,6.0,64.0
8032,72.0,0,90,8.0,64.0
8033,57.0,0,90,11.0,64.0
8034,72.0,0,90,7.0,64.0
8035,45.0,0,90,12.0,64.0
8036,55.0,120,90,11.0,64.0
8037,43.0,0,90,12.0,64.0
8038,71.0,0,90,7.0,64.0
8039,43.0,0,90,6.0,64.0
8040,59.0,0,90,10.0,64.0
8041,71.0,0,90,8.0,64.0
8042,43.0,0,90,6.0,64.0
8043,41.0,120,90,12.0,64.0
8044,69.0,0,90,7.0,64.0
8045,53.0,0,90,11.0,64.0
8046,57.0,0,90,10.0,64.0
8047,69.0,0,90,8.0,64.0
8048,55.0,48,90,10.0,64.0
8049,40.0,0,90,12.0,64.0
8050,67.0,0,90,7.0,64.0
8051,52.0,0,90,11.0,64.0
8052,43.0,0,90,6.0,64.0
8053,67.0,0,90,8.0,64.0
8054,43.0,0,90,6.0,64.0
8055,65.0,120,90,8.0,64.0
8056,50.0,0,90,11.0,64.0
8057,65.0,0,90,7.0,64.0
8058,53.0,0,90,10.0,64.0
8059,38.0,0,90,12.0,64.0
8060,52.0,0,240,3.0,64.0
8061,36.0,0,390,12.0,64.0
8062,76.0,96,240,2.0,64.0
8063,76.0,0,90,7.0,64.0
8064,52.0,0,180,4.0,64.0
8065,64.0,24,180,4.0,64.0
8066,48.0,72,390,6.0,64.0
8067,64.0,0,90,8.0,64.0
8068,48.0,0,390,11.0,64.0
8069,52.0,96,90,10.0,64.0
8070,88.0,0,240,0.0,64.0
8071,76.0,0,240,1.0,64.0
8072,64.0,0,240,3.0,64.0
8073,76.0,0,180,5.0,64.0
8074,64.0,0,180,5.0,64.0
8075,48.0,24,90,10.0,64.0
8076,76.0,0,90,8.0,64.0
8077,76.0,0,90,7.0,64.0
8078,77.0,0,120,2.0,64.0
8079,65.0,0,120,3.0,64.0
8080,77.0,0,90,7.0,64.0
8081,77.0,0,120,1.0,64.0
8082,89.0,24,120,0.0,64.0
8083,60.0,0,90,10.0,64.0
8084,53.0,0,120,3.0,64.0
8085,76.0,24,90,8.0,64.0
8086,76.0,0,90,8.0,64.0
8087,67.0,0,120,3.0,64.0
8088,55.0,0,120,3.0,64.0
8089,79.0,96,120,1.0,64.0
8090,79.0,0,90,7.0,64.0
8091,79.0,0,120,2.0,64.0
8092,91.0,0,120,0.0,64.0
8093,60.0,24,90,10.0,64.0
8094,76.0,0,90,8.0,64.0
8095,81.0,0,90,7.0,64.0
8096,81.0,0,90,2.0,64.0
8097,64.0,24,180,5.0,64.0
8098,76.0,0,180,5.0,64.0
8099,69.0,0,90,3.0,64.0
8100,93.0,0,90,0.0,64.0
8101,64.0,48,780,4.0,64.0
8102,57.0,0,90,3.0,64.0
8103,48.0,72,390,6.0,64.0
8104,48.0,72,870,12.0,64.0
8105,60.0,96,90,10.0,64.0
8106,81.0,0,90,1.0,64.0
8107,76.0,0,90,8.0,64.0
8108,79.0,120,90,7.0,64.0
8109,60.0,0,90,10.0,64.0
8110,93.0,48,90,0.0,64.0
8111,76.0,0,90,8.0,64.0
8112,57.0,0,90,3.0,64.0
8113,81.0,0,90,2.0,64.0
8114,77.0,0,90,7.0,64.0
8115,81.0,0,90,1.0,64.0
8116,69.0,0,90,3.0,64.0
8117,60.0,0,90,10.0,64.0
8118,76.0,0,90,7.0,64.0
8119,60.0,0,90,10.0,64.0
8120,76.0,120,90,8.0,64.0
8121,86.0,0,240,0.0,64.0
8122,60.0,120,90,10.0,64.0
8123,74.0,0,240,1.0,64.0
8124,74.0,0,90,7.0,64.0
8125,62.0,0,240,3.0,64.0
8126,74.0,48,240,2.0,64.0
8127,74.0,0,90,8.0,64.0
8128,74.0,24,90,7.0,64.0
8129,60.0,0,90,10.0,64.0
8130,74.0,0,90,8.0,64.0
8131,88.0,0,120,0.0,64.0
8132,60.0,0,90,10.0,64.0
8133,76.0,0,120,1.0,64.0
8134,76.0,0,120,2.0,64.0
8135,76.0,0,90,7.0,64.0
8136,74.0,24,90,8.0,64.0
8137,64.0,24,120,3.0,64.0
8138,89.0,0,120,0.0,64.0
8139,60.0,0,90,10.0,64.0
8140,77.0,0,120,1.0,64.0
8141,77.0,0,120,2.0,64.0
8142,77.0,24,90,7.0,64.0
8143,65.0,96,120,3.0,64.0
8144,74.0,0,90,8.0,64.0
8145,91.0,0,90,0.0,64.0
8146,47.0,0,390,12.0,64.0
8147,59.0,0,90,10.0,64.0
8148,43.0,72,390,6.0,64.0
8149,62.0,24,180,4.0,64.0
8150,67.0,0,180,5.0,64.0
8151,74.0,0,180,5.0,64.0
8152,79.0,0,90,7.0,64.0
8153,79.0,0,90,2.0,64.0
8154,79.0,0,90,1.0,64.0
8155,67.0,96,90,3.0,64.0
8156,74.0,0,90,8.0,64.0
8157,59.0,0,90,10.0,64.0
8158,77.0,120,90,7.0,64.0
8159,74.0,0,90,8.0,64.0
8160,55.0,0,90,3.0,64.0
8161,74.0,0,90,8.0,64.0
8162,67.0,0,90,1.0,64.0
8163,67.0,0,90,2.0,64.0
8164,79.0,0,90,7.0,64.0
8165,59.0,0,90,10.0,64.0
8166,79.0,48,90,0.0,64.0
8167,74.0,120,90,8.0,64.0
8168,67.0,0,90,7.0,64.0
8169,59.0,0,90,10.0,64.0
8170,84.0,96,240,0.0,64.0
8171,48.0,24,180,4.0,64.0
8172,46.0,0,390,12.0,64.0
8173,72.0,0,240,2.0,64.0
8174,72.0,0,240,1.0,64.0
8175,60.0,0,180,4.0,64.0
8176,60.0,0,180,5.0,64.0
8177,48.0,72,390,6.0,64.0
8178,72.0,0,180,5.0,64.0
8179,60.0,0,240,3.0,64.0
8180,72.0,96,90,7.0,64.0
8181,72.0,0,90,8.0,64.0
8182,58.0,0,90,10.0,64.0
8183,72.0,0,90,8.0,64.0
8184,58.0,0,90,10.0,64.0
8185,72.0,24,90,7.0,64.0
8186,58.0,0,90,10.0,64.0
8187,74.0,24,90,7.0,64.0
8188,74.0,0,120,1.0,64.0
8189,72.0,0,90,8.0,64.0
8190,74.0,24,120,2.0,64.0
8191,62.0,0,120,3.0,64.0
8192,86.0,0,120,0.0,64.0
8193,76.0,0,90,7.0,64.0
8194,64.0,0,120,3.0,64.0
8195,58.0,0,90,10.0,64.0
8196,76.0,0,120,1.0,64.0
8197,72.0,24,90,8.0,64.0
8198,88.0,0,120,0.0,64.0
8199,76.0,96,120,2.0,64.0
8200,57.0,0,90,10.0,64.0
8201,72.0,0,180,5.0,64.0
8202,60.0,0,180,5.0,64.0
8203,65.0,0,90,3.0,64.0
8204,77.0,0,90,7.0,64.0
8205,77.0,96,90,1.0,64.0
8206,45.0,72,870,12.0,64.0
8207,60.0,0,180,4.0,64.0
8208,89.0,0,90,0.0,64.0
8209,48.0,72,390,6.0,64.0
8210,77.0,0,90,2.0,64.0
8211,48.0,24,180,4.0,64.0
8212,72.0,0,90,8.0,64.0
8213,57.0,0,90,10.0,64.0
8214,72.0,120,90,8.0,64.0
8215,76.0,0,90,7.0,64.0
8216,72.0,0,90,8.0,64.0
8217,65.0,0,90,3.0,64.0
8218,77.0,0,90,1.0,64.0
8219,57.0,0,90,10.0,64.0
8220,89.0,0,90,0.0,64.0
8221,74.0,0,90,7.0,64.0
8222,77.0,48,90,2.0,64.0
8223,57.0,0,90,10.0,64.0
8224,72.0,0,90,7.0,64.0
8225,72.0,120,90,8.0,64.0
8226,59.0,0,240,3.0,64.0
8227,57.0,120,90,10.0,64.0
8228,71.0,0,90,7.0,64.0
8229,71.0,0,240,2.0,64.0
8230,83.0,0,240,0.0,64.0
8231,71.0,96,240,1.0,64.0
8232,71.0,0,90,8.0,64.0
8233,71.0,24,90,8.0,64.0
8234,57.0,0,90,10.0,64.0
8235,71.0,0,90,7.0,64.0
8236,72.0,0,120,2.0,64.0
8237,72.0,0,90,7.0,64.0
8238,84.0,0,120,0.0,64.0
8239,60.0,24,120,3.0,64.0
8240,57.0,24,90,10.0,64.0
8241,72.0,0,120,1.0,64.0
8242,71.0,0,90,8.0,64.0
8243,62.0,0,120,3.0,64.0
8244,74.0,0,120,1.0,64.0
8245,74.0,0,90,7.0,64.0
8246,86.0,96,120,0.0,64.0
8247,71.0,0,90,8.0,64.0
8248,57.0,24,90,10.0,64.0
8249,74.0,0,120,2.0,64.0
8250,55.0,24,180,4.0,64.0
8251,67.0,0,180,4.0,64.0
8252,76.0,0,90,1.0,64.0
8253,43.0,72,870,12.0,64.0
8254,71.0,0,90,8.0,64.0
8255,76.0,96,90,2.0,64.0
8256,64.0,0,90,3.0,64.0
8257,48.0,72,390,6.0,64.0
8258,55.0,0,90,10.0,64.0
8259,60.0,0,180,5.0,64.0
8260,72.0,0,180,5.0,64.0
8261,88.0,0,90,0.0,64.0
8262,76.0,0,90,7.0,64.0
8263,71.0,0,90,8.0,64.0
8264,55.0,0,90,10.0,64.0
8265,74.0,120,90,7.0,64.0
8266,71.0,0,90,8.0,64.0
8267,55.0,24,90,10.0,64.0
8268,76.0,0,90,7.0,64.0
8269,52.0,0,90,3.0,64.0
8270,64.0,24,120,2.0,64.0
8271,76.0,0,90,0.0,64.0
8272,64.0,0,90,1.0,64.0
8273,71.0,120,90,8.0,64.0
8274,64.0,0,90,7.0,64.0
8275,55.0,0,90,10.0,64.0
8276,57.0,0,240,3.0,64.0
8277,72.0,0,180,5.0,64.0
8278,60.0,24,180,5.0,64.0
8279,81.0,0,240,0.0,64.0
8280,69.0,0,90,7.0,64.0
8281,69.0,0,240,2.0,64.0
8282,69.0,96,240,1.0,64.0
8283,69.0,0,90,8.0,64.0
8284,55.0,96,90,10.0,64.0
8285,48.0,0,390,6.0,64.0
8286,69.0,24,90,8.0,64.0
8287,81.0,0,90,7.0,64.0
8288,55.0,0,90,10.0,64.0
8289,71.0,0,120,2.0,64.0
8290,83.0,0,120,0.0,64.0
8291,83.0,0,90,7.0,64.0
8292,59.0,0,120,3.0,64.0
8293,71.0,24,120,1.0,64.0
8294,55.0,0,90,10.0,64.0
8295,69.0,24,90,8.0,64.0
8296,84.0,0,120,0.0,64.0
8297,84.0,0,90,7.0,64.0
8298,60.0,0,120,3.0,64.0
8299,69.0,24,90,8.0,64.0
8300,72.0,96,120,2.0,64.0
8301,72.0,0,120,1.0,64.0
8302,55.0,0,90,10.0,64.0
8303,72.0,24,180,5.0,64.0
8304,60.0,0,180,5.0,64.0
8305,53.0,0,90,10.0,64.0
8306,62.0,0,90,3.0,64.0
8307,48.0,0,780,4.0,64.0
8308,69.0,0,90,8.0,64.0
8309,74.0,0,90,1.0,64.0
8310,86.0,0,90,0.0,64.0
8311,86.0,0,90,7.0,64.0
8312,60.0,48,780,4.0,64.0
8313,41.0,72,870,12.0,64.0
8314,74.0,96,90,2.0,64.0
8315,48.0,72,390,6.0,64.0
8316,53.0,0,90,10.0,64.0
8317,69.0,0,90,8.0,64.0
8318,84.0,120,90,7.0,64.0
8319,69.0,0,90,8.0,64.0
8320,62.0,48,90,3.0,64.0
8321,86.0,0,90,0.0,64.0
8322,83.0,0,90,7.0,64.0
8323,53.0,0,90,10.0,64.0
8324,74.0,0,90,2.0,64.0
8325,74.0,0,90,1.0,64.0
8326,53.0,0,90,10.0,64.0
8327,81.0,0,90,7.0,64.0
8328,69.0,120,90,8.0,64.0
8329,79.0,48,240,0.0,64.0
8330,67.0,0,90,8.0,64.0
8331,53.0,0,90,10.0,64.0
8332,79.0,120,90,7.0,64.0
8333,67.0,0,240,1.0,64.0
8334,67.0,0,240,2.0,64.0
8335,55.0,0,240,3.0,64.0
8336,53.0,0,90,10.0,64.0
8337,79.0,24,90,7.0,64.0
8338,67.0,0,90,8.0,64.0
8339,57.0,0,120,3.0,64.0
8340,69.0,0,120,2.0,64.0
8341,69.0,24,120,1.0,64.0
8342,81.0,0,90,7.0,64.0
8343,67.0,0,90,8.0,64.0
8344,81.0,0,120,0.0,64.0
8345,53.0,24,90,10.0,64.0
8346,67.0,24,90,8.0,64.0
8347,83.0,0,90,7.0,64.0
8348,83.0,0,120,0.0,64.0
8349,71.0,0,120,2.0,64.0
8350,53.0,0,90,10.0,64.0
8351,59.0,0,120,3.0,64.0
8352,71.0,96,120,1.0,64.0
8353,52.0,96,90,10.0,64.0
8354,40.0,72,390,12.0,64.0
8355,72.0,96,240,2.0,64.0
8356,72.0,0,240,1.0,64.0
8357,60.0,24,180,5.0,64.0
8358,72.0,0,180,5.0,64.0
8359,60.0,0,180,4.0,64.0
8360,67.0,0,90,8.0,64.0
8361,48.0,0,390,6.0,64.0
8362,60.0,0,240,3.0,64.0
8363,84.0,0,90,7.0,64.0
8364,48.0,0,180,4.0,64.0
8365,84.0,0,240,0.0,64.0
8366,67.0,0,90,8.0,64.0
8367,84.0,24,90,7.0,64.0
8368,52.0,0,90,10.0,64.0
8369,67.0,0,90,8.0,64.0
8370,86.0,0,120,0.0,64.0
8371,62.0,0,120,3.0,64.0
8372,86.0,0,90,7.0,64.0
8373,74.0,24,120,2.0,64.0
8374,52.0,24,90,10.0,64.0
8375,74.0,0,120,1.0,64.0
8376,64.0,0,120,3.0,64.0
8377,52.0,0,90,10.0,64.0
8378,88.0,0,120,0.0,64.0
8379,67.0,24,90,8.0,64.0
8380,76.0,96,120,2.0,64.0
8381,76.0,0,120,1.0,64.0
8382,88.0,0,90,7.0,64.0
8383,38.0,0,90,12.0,64.0
8384,67.0,0,90,5.0,64.0
8385,55.0,0,90,5.0,64.0
8386,50.0,0,90,11.0,64.0
8387,77.0,0,90,2.0,64.0
8388,65.0,0,90,3.0,64.0
8389,59.0,0,90,10.0,64.0
8390,89.0,0,90,0.0,64.0
8391,62.0,0,90,4.0,64.0
8392,65.0,0,90,4.0,64.0
8393,77.0,0,90,1.0,64.0
8394,67.0,0,90,8.0,64.0
8395,89.0,96,90,7.0,64.0
8396,43.0,24,180,6.0,64.0
8397,77.0,0,90,7.0,64.0
8398,43.0,0,90,11.0,64.0
8399,62.0,0,90,10.0,64.0
8400,67.0,0,90,8.0,64.0
8401,31.0,120,90,12.0,64.0
8402,64.0,0,90,4.0,64.0
8403,50.0,0,90,11.0,64.0
8404,60.0,0,90,4.0,64.0
8405,67.0,0,90,5.0,64.0
8406,67.0,0,90,8.0,64.0
8407,55.0,0,90,5.0,64.0
8408,43.0,24,180,6.0,64.0
8409,38.0,0,90,12.0,64.0
8410,77.0,0,90,7.0,64.0
8411,62.0,0,90,10.0,64.0
8412,88.0,0,90,0.0,64.0
8413,84.0,0,90,0.0,64.0
8414,60.0,0,90,3.0,64.0
8415,64.0,0,90,3.0,64.0
8416,72.0,0,90,2.0,64.0
8417,76.0,0,90,1.0,64.0
8418,76.0,96,90,2.0,64.0
8419,72.0,0,90,1.0,64.0
8420,67.0,0,90,8.0,64.0
8421,86.0,0,90,0.0,64.0
8422,74.0,0,90,1.0,64.0
8423,62.0,0,90,10.0,64.0
8424,65.0,0,90,3.0,64.0
8425,89.0,0,90,0.0,64.0
8426,77.0,0,90,2.0,64.0
8427,77.0,0,90,7.0,64.0
8428,36.0,0,90,12.0,64.0
8429,77.0,0,90,1.0,64.0
8430,48.0,120,90,11.0,64.0
8431,74.0,0,90,2.0,64.0
8432,62.0,0,90,3.0,64.0
8433,64.0,0,90,3.0,64.0
8434,62.0,0,90,10.0,64.0
8435,35.0,0,90,12.0,64.0
8436,76.0,0,90,1.0,64.0
8437,79.0,0,90,1.0,64.0
8438,55.0,0,90,5.0,64.0
8439,67.0,0,90,5.0,64.0
8440,77.0,96,90,7.0,64.0
8441,43.0,24,180,6.0,64.0
8442,88.0,0,90,0.0,64.0
8443,91.0,0,90,0.0,64.0
8444,67.0,0,90,8.0,64.0
8445,47.0,0,90,11.0,64.0
8446,67.0,0,90,4.0,64.0
8447,64.0,0,90,4.0,64.0
8448,79.0,0,90,2.0,64.0
8449,76.0,0,90,2.0,64.0
8450,67.0,0,90,3.0,64.0
8451,43.0,0,90,11.0,64.0
8452,77.0,0,90,7.0,64.0
8453,31.0,0,90,12.0,64.0
8454,62.0,120,90,10.0,64.0
8455,67.0,0,90,8.0,64.0
8456,33.0,0,90,12.0,64.0
8457,77.0,0,90,7.0,64.0
8458,86.0,0,90,0.0,64.0
8459,62.0,0,90,4.0,64.0
8460,77.0,0,90,1.0,64.0
8461,74.0,120,90,1.0,64.0
8462,65.0,0,90,4.0,64.0
8463,77.0,0,90,2.0,64.0
8464,67.0,0,90,8.0,64.0
8465,62.0,0,90,10.0,64.0
8466,62.0,0,90,3.0,64.0
8467,65.0,0,90,3.0,64.0
8468,74.0,0,90,2.0,64.0
8469,89.0,0,90,0.0,64.0
8470,45.0,0,90,11.0,64.0
8471,47.0,0,90,11.0,64.0
8472,77.0,0,90,7.0,64.0
8473,35.0,0,90,12.0,64.0
8474,62.0,0,90,10.0,64.0
8475,67.0,120,90,8.0,64.0
8476,72.0,96,90,2.0,64.0
8477,48.0,0,90,11.0,64.0
8478,76.0,0,90,2.0,64.0
8479,84.0,0,90,0.0,64.0
8480,64.0,0,90,3.0,64.0
8481,88.0,0,90,0.0,64.0
8482,60.0,0,90,3.0,64.0
8483,60.0,0,90,5.0,64.0
8484,67.0,0,90,5.0,64.0
8485,76.0,0,90,7.0,64.0
8486,76.0,0,90,1.0,64.0
8487,72.0,0,90,1.0,64.0
8488,67.0,0,90,8.0,64.0
8489,60.0,0,90,10.0,64.0
8490,48.0,24,180,6.0,64.0
8491,64.0,0,90,4.0,64.0
8492,60.0,0,90,4.0,64.0
8493,36.0,0,90,12.0,64.0
8494,76.0,0,90,7.0,64.0
8495,60.0,0,90,10.0,64.0
8496,55.0,120,90,11.0,64.0
8497,67.0,0,90,8.0,64.0
8498,43.0,0,90,12.0,64.0
8499,41.0,0,90,12.0,64.0
8500,67.0,0,90,8.0,64.0
8501,71.0,0,90,2.0,64.0
8502,74.0,0,90,2.0,64.0
8503,74.0,0,90,1.0,64.0
8504,71.0,0,90,1.0,64.0
8505,59.0,0,90,3.0,64.0
8506,76.0,0,90,7.0,64.0
8507,62.0,0,90,3.0,64.0
8508,60.0,0,90,5.0,64.0
8509,67.0,0,90,5.0,64.0
8510,83.0,0,90,0.0,64.0
8511,86.0,0,90,0.0,64.0
8512,60.0,0,90,10.0,64.0
8513,62.0,0,90,4.0,64.0
8514,48.0,24,180,6.0,64.0
8515,53.0,0,90,11.0,64.0
8516,55.0,96,90,4.0,64.0
8517,60.0,0,90,10.0,64.0
8518,88.0,0,90,0.0,64.0
8519,84.0,0,90,0.0,64.0
8520,72.0,120,90,1.0,64.0
8521,76.0,0,90,7.0,64.0
8522,52.0,0,90,11.0,64.0
8523,76.0,0,90,2.0,64.0
8524,67.0,0,90,8.0,64.0
8525,72.0,0,90,2.0,64.0
8526,64.0,0,90,3.0,64.0
8527,60.0,0,90,3.0,64.0
8528,40.0,0,90,12.0,64.0
8529,76.0,0,90,1.0,64.0
8530,77.0,0,90,1.0,64.0
8531,50.0,0,90,11.0,64.0
8532,77.0,0,90,2.0,64.0
8533,74.0,0,90,2.0,64.0
8534,67.0,0,90,5.0,64.0
8535,60.0,0,90,5.0,64.0
8536,38.0,0,90,12.0,64.0
8537,62.0,0,90,3.0,64.0
8538,65.0,0,90,3.0,64.0
8539,89.0,0,90,0.0,64.0
8540,62.0,0,90,4.0,64.0
8541,65.0,0,90,4.0,64.0
8542,76.0,96,90,7.0,64.0
8543,60.0,0,90,10.0,64.0
8544,67.0,0,90,8.0,64.0
8545,48.0,24,180,6.0,64.0
8546,74.0,0,90,1.0,64.0
8547,86.0,0,90,0.0,64.0
8548,36.0,0,90,12.0,64.0
8549,48.0,120,90,11.0,64.0
8550,60.0,0,90,10.0,64.0
8551,67.0,0,90,8.0,64.0
8552,76.0,0,90,7.0,64.0
8553,60.0,0,90,3.0,64.0
8554,72.0,0,90,1.0,64.0
8555,76.0,0,90,1.0,64.0
8556,76.0,0,90,7.0,64.0
8557,64.0,0,90,4.0,64.0
8558,60.0,120,90,4.0,64.0
8559,84.0,0,90,0.0,64.0
8560,88.0,0,90,0.0,64.0
8561,64.0,0,90,3.0,64.0
8562,47.0,0,90,11.0,64.0
8563,67.0,0,90,8.0,64.0
8564,60.0,0,90,10.0,64.0
8565,72.0,0,90,2.0,64.0
8566,76.0,0,90,2.0,64.0
8567,35.0,0,90,12.0,64.0
8568,67.0,0,90,8.0,64.0
8569,48.0,120,90,11.0,64.0
8570,36.0,0,90,12.0,64.0
8571,76.0,0,90,7.0,64.0
8572,60.0,0,90,10.0,64.0
8573,59.0,96,90,3.0,64.0
8574,77.0,0,90,2.0,64.0
8575,71.0,0,90,2.0,64.0
8576,67.0,0,90,8.0,64.0
8577,55.0,0,90,5.0,64.0
8578,67.0,0,90,5.0,64.0
8579,50.0,0,90,11.0,64.0
8580,65.0,0,90,3.0,64.0
8581,83.0,0,90,0.0,64.0
8582,62.0,0,90,10.0,64.0
8583,38.0,0,90,12.0,64.0
8584,43.0,24,180,6.0,64.0
8585,77.0,0,90,1.0,64.0
8586,71.0,0,90,1.0,64.0
8587,89.0,0,90,0.0,64.0
8588,65.0,0,90,4.0,64.0
8589,62.0,0,90,4.0,64.0
8590,77.0,0,90,7.0,64.0
8591,74.0,0,90,8.0,64.0
8592,31.0,0,90,12.0,64.0
8593,77.0,0,90,7.0,64.0
8594,67.0,0,90,10.0,64.0
8595,43.0,120,90,11.0,64.0
8596,76.0,0,90,1.0,64.0
8597,43.0,24,180,6.0,64.0
8598,38.0,0,90,12.0,64.0
8599,74.0,0,90,8.0,64.0
8600,77.0,0,90,7.0,64.0
8601,64.0,0,90,3.0,64.0
8602,72.0,0,90,2.0,64.0
8603,55.0,0,90,5.0,64.0
8604,60.0,0,90,4.0,64.0
8605,84.0,0,90,0.0,64.0
8606,76.0,0,90,2.0,64.0
8607,50.0,0,90,11.0,64.0
8608,67.0,0,90,10.0,64.0
8609,60.0,96,90,3.0,64.0
8610,67.0,0,90,5.0,64.0
8611,72.0,0,90,1.0,64.0
8612,88.0,0,90,0.0,64.0
8613,64.0,0,90,4.0,64.0
8614,36.0,0,90,12.0,64.0
8615,77.0,0,90,1.0,64.0
8616,74.0,0,90,1.0,64.0
8617,48.0,0,90,11.0,64.0
8618,77.0,0,90,2.0,64.0
8619,62.0,0,90,3.0,64.0
8620,65.0,0,90,3.0,64.0
8621,89.0,0,90,0.0,64.0
8622,86.0,0,90,0.0,64.0
8623,67.0,0,90,10.0,64.0
8624,74.0,0,90,8.0,64.0
8625,77.0,120,90,7.0,64.0
8626,74.0,0,90,2.0,64.0
8627,77.0,0,90,7.0,64.0
8628,64.0,0,90,4.0,64.0
8629,35.0,0,90,12.0,64.0
8630,67.0,0,90,4.0,64.0
8631,67.0,0,90,3.0,64.0
8632,64.0,0,90,3.0,64.0
8633,43.0,24,180,6.0,64.0
8634,91.0,0,90,0.0,64.0
8635,76.0,0,90,1.0,64.0
8636,47.0,0,90,11.0,64.0
8637,79.0,0,90,1.0,64.0
8638,76.0,0,90,2.0,64.0
8639,79.0,96,90,2.0,64.0
8640,67.0,0,90,10.0,64.0
8641,74.0,0,90,8.0,64.0
8642,67.0,0,90,5.0,64.0
8643,55.0,0,90,5.0,64.0
8644,88.0,0,90,0.0,64.0
8645,67.0,120,90,10.0,64.0
8646,31.0,0,90,12.0,64.0
8647,77.0,0,90,7.0,64.0
8648,43.0,0,90,11.0,64.0
8649,74.0,0,90,8.0,64.0
8650,65.0,0,90,3.0,64.0
8651,62.0,0,90,3.0,64.0
8652,86.0,0,90,0.0,64.0
8653,89.0,0,90,0.0,64.0
8654,77.0,0,90,1.0,64.0
8655,67.0,0,90,10.0,64.0
8656,74.0,0,90,2.0,64.0
8657,65.0,0,90,4.0,64.0
8658,77.0,0,90,2.0,64.0
8659,74.0,0,90,8.0,64.0
8660,77.0,0,90,7.0,64.0
8661,33.0,0,90,12.0,64.0
8662,74.0,120,90,1.0,64.0
8663,62.0,0,90,4.0,64.0
8664,45.0,0,90,11.0,64.0
8665,74.0,120,90,8.0,64.0
8666,77.0,0,90,7.0,64.0
8667,47.0,0,90,11.0,64.0
8668,67.0,0,90,10.0,64.0
8669,35.0,0,90,12.0,64.0
8670,64.0,0,90,5.0,64.0
8671,76.0,0,90,1.0,64.0
8672,76.0,0,90,5.0,64.0
8673,48.0,0,90,11.0,64.0
8674,88.0,0,90,0.0,64.0
8675,84.0,0,90,0.0,64.0
8676,72.0,0,90,8.0,64.0
8677,72.0,0,90,1.0,64.0
8678,60.0,0,90,3.0,64.0
8679,64.0,0,90,3.0,64.0
8680,67.0,0,90,10.0,64.0
8681,60.0,0,90,4.0,64.0
8682,72.0,0,90,2.0,64.0
8683,76.0,0,90,2.0,64.0
8684,64.0,0,90,4.0,64.0
8685,48.0,24,180,6.0,64.0
8686,36.0,96,90,12.0,64.0
8687,76.0,0,90,7.0,64.0
8688,55.0,0,90,11.0,64.0
8689,72.0,0,90,8.0,64.0
8690,67.0,0,90,10.0,64.0
8691,76.0,0,90,7.0,64.0
8692,43.0,120,90,12.0,64.0
8693,48.0,24,180,6.0,64.0
8694,55.0,0,90,4.0,64.0
8695,59.0,96,90,3.0,64.0
8696,41.0,0,90,12.0,64.0
8697,76.0,0,90,7.0,64.0
8698,67.0,0,90,10.0,64.0
8699,71.0,0,90,2.0,64.0
8700,74.0,0,90,2.0,64.0
8701,53.0,0,90,11.0,64.0
8702,62.0,0,90,4.0,64.0
8703,62.0,0,90,3.0,64.0
8704,72.0,0,90,8.0,64.0
8705,83.0,0,90,0.0,64.0
8706,86.0,0,90,0.0,64.0
8707,76.0,0,90,5.0,64.0
8708,64.0,0,90,5.0,64.0
8709,74.0,0,90,1.0,64.0
8710,71.0,0,90,1.0,64.0
8711,64.0,0,90,3.0,64.0
8712,67.0,0,90,10.0,64.0
8713,88.0,0,90,0.0,64.0
8714,84.0,0,90,0.0,64.0
8715,60.0,0,90,3.0,64.0
8716,72.0,120,90,8.0,64.0
8717,76.0,0,90,1.0,64.0
8718,76.0,0,90,2.0,64.0
8719,72.0,0,90,2.0,64.0
8720,52.0,0,90,11.0,64.0
8721,40.0,0,90,12.0,64.0
8722,76.0,0,90,7.0,64.0
8723,72.0,0,90,1.0,64.0
8724,72.0,0,90,8.0,64.0
8725,50.0,0,90,11.0,64.0
8726,62.0,0,90,4.0,64.0
8727,65.0,0,90,4.0,64.0
8728,77.0,0,90,1.0,64.0
8729,76.0,0,90,5.0,64.0
8730,74.0,0,90,2.0,64.0
8731,77.0,0,90,2.0,64.0
8732,65.0,0,90,3.0,64.0
8733,62.0,0,90,3.0,64.0
8734,64.0,0,90,5.0,64.0
8735,76.0,96,90,7.0,64.0
8736,74.0,0,90,1.0,64.0
8737,38.0,0,90,12.0,64.0
8738,67.0,0,90,10.0,64.0
8739,89.0,0,90,0.0,64.0
8740,86.0,0,90,0.0,64.0
8741,48.0,24,180,6.0,64.0
8742,48.0,0,90,11.0,64.0
8743,76.0,0,90,7.0,64.0
8744,36.0,0,90,12.0,64.0
8745,67.0,0,90,10.0,64.0
8746,72.0,120,90,8.0,64.0
8747,76.0,0,90,7.0,64.0
8748,76.0,0,90,2.0,64.0
8749,64.0,0,90,4.0,64.0
8750,67.0,0,90,10.0,64.0
8751,60.0,0,90,3.0,64.0
8752,64.0,0,90,3.0,64.0
8753,47.0,0,90,11.0,64.0
8754,60.0,0,90,4.0,64.0
8755,72.0,0,90,8.0,64.0
8756,72.0,0,90,2.0,64.0
8757,76.0,120,90,1.0,64.0
8758,88.0,0,90,0.0,64.0
8759,72.0,0,90,1.0,64.0
8760,84.0,0,90,0.0,64.0
8761,35.0,0,90,12.0,64.0
8762,67.0,0,90,10.0,64.0
8763,36.0,120,90,12.0,64.0
8764,72.0,0,90,8.0,64.0
8765,76.0,0,90,7.0,64.0
8766,48.0,0,90,11.0,64.0
8767,64.0,0,90,10.0,64.0
8768,33.0,0,90,12.0,64.0
8769,45.0,0,90,11.0,64.0
8770,72.0,0,90,8.0,64.0
8771,48.0,24,180,6.0,64.0
8772,60.0,96,90,10.0,64.0
8773,64.0,0,90,3.0,64.0
8774,60.0,0,90,3.0,64.0
8775,76.0,0,90,5.0,64.0
8776,60.0,0,90,4.0,64.0
8777,64.0,0,90,4.0,64.0
8778,64.0,0,90,5.0,64.0
8779,72.0,0,90,2.0,64.0
8780,72.0,0,90,1.0,64.0
8781,76.0,0,90,1.0,64.0
8782,84.0,0,90,0.0,64.0
8783,76.0,0,90,7.0,64.0
8784,76.0,0,90,2.0,64.0
8785,88.0,0,90,0.0,64.0
8786,64.0,0,90,10.0,64.0
8787,60.0,0,90,10.0,64.0
8788,88.0,0,90,7.0,64.0
8789,84.0,120,90,8.0,64.0
8790,60.0,0,90,4.0,64.0
8791,64.0,0,90,4.0,64.0
8792,48.0,24,180,6.0,64.0
8793,76.0,0,90,5.0,64.0
8794,64.0,0,90,5.0,64.0
8795,64.0,0,90,10.0,64.0
8796,60.0,0,90,10.0,64.0
8797,74.0,0,90,1.0,64.0
8798,71.0,0,90,1.0,64.0
8799,88.0,0,90,7.0,64.0
8800,59.0,0,90,3.0,64.0
8801,86.0,0,90,0.0,64.0
8802,74.0,0,90,2.0,64.0
8803,71.0,0,90,2.0,64.0
8804,57.0,0,90,11.0,64.0
8805,45.0,0,90,12.0,64.0
8806,83.0,0,90,0.0,64.0
8807,62.0,0,90,3.0,64.0
8808,84.0,96,90,8.0,64.0
8809,76.0,0,90,1.0,64.0
8810,72.0,0,90,1.0,64.0
8811,72.0,0,90,2.0,64.0
8812,64.0,0,90,3.0,64.0
8813,88.0,0,90,0.0,64.0
8814,60.0,0,90,3.0,64.0
8815,84.0,0,90,8.0,64.0
8816,76.0,0,90,2.0,64.0
8817,88.0,0,90,7.0,64.0
8818,60.0,120,90,10.0,64.0
8819,84.0,0,90,0.0,64.0
8820,64.0,0,90,10.0,64.0
8821,77.0,0,90,1.0,64.0
8822,60.0,0,90,10.0,64.0
8823,64.0,0,90,10.0,64.0
8824,62.0,0,90,3.0,64.0
8825,57.0,0,90,11.0,64.0
8826,65.0,0,90,3.0,64.0
8827,45.0,0,90,12.0,64.0
8828,64.0,96,90,5.0,64.0
8829,76.0,0,90,5.0,64.0
8830,48.0,24,180,6.0,64.0
8831,86.0,0,90,0.0,64.0
8832,89.0,0,90,0.0,64.0
8833,74.0,0,90,1.0,64.0
8834,77.0,0,90,2.0,64.0
8835,88.0,0,90,7.0,64.0
8836,74.0,0,90,2.0,64.0
8837,60.0,0,90,4.0,64.0
8838,64.0,0,90,4.0,64.0
8839,84.0,0,90,8.0,64.0
8840,84.0,0,90,8.0,64.0
8841,60.0,120,90,10.0,64.0
8842,88.0,0,90,7.0,64.0
8843,64.0,0,90,10.0,64.0
8844,33.0,0,90,12.0,64.0
8845,72.0,0,90,2.0,64.0
8846,76.0,120,90,1.0,64.0
8847,45.0,0,90,11.0,64.0
8848,60.0,0,90,3.0,64.0
8849,72.0,0,90,1.0,64.0
8850,76.0,0,90,2.0,64.0
8851,88.0,0,90,7.0,64.0
8852,64.0,0,90,10.0,64.0
8853,88.0,0,90,0.0,64.0
8854,84.0,0,90,0.0,64.0
8855,84.0,0,90,8.0,64.0
8856,60.0,0,90,10.0,64.0
8857,64.0,0,90,3.0,64.0
8858,84.0,0,90,8.0,64.0
8859,64.0,0,90,10.0,64.0
8860,60.0,0,90,10.0,64.0
8861,88.0,120,90,7.0,64.0
8862,76.0,0,90,2.0,64.0
8863,72.0,0,90,2.0,64.0
8864,48.0,24,180,6.0,64.0
8865,64.0,0,90,10.0,64.0
8866,76.0,96,90,1.0,64.0
8867,60.0,0,90,4.0,64.0
8868,64.0,0,90,4.0,64.0
8869,76.0,0,90,5.0,64.0
8870,84.0,0,90,0.0,64.0
8871,88.0,0,90,0.0,64.0
8872,64.0,0,90,3.0,64.0
8873,60.0,0,90,3.0,64.0
8874,64.0,0,90,5.0,64.0
8875,43.0,0,90,11.0,64.0
8876,88.0,0,90,7.0,64.0
8877,84.0,0,90,8.0,64.0
8878,72.0,0,90,1.0,64.0
8879,31.0,0,90,12.0,64.0
8880,60.0,0,90,10.0,64.0
8881,60.0,0,90,10.0,64.0
8882,64.0,0,90,10.0,64.0
8883,88.0,120,90,7.0,64.0
8884,84.0,0,90,8.0,64.0
8885,60.0,0,90,10.0,64.0
8886,64.0,0,90,10.0,64.0
8887,84.0,0,90,8.0,64.0
8888,71.0,0,90,1.0,64.0
8889,76.0,0,90,5.0,64.0
8890,64.0,96,90,5.0,64.0
8891,60.0,0,90,4.0,64.0
8892,86.0,0,90,0.0,64.0
8893,74.0,0,90,2.0,64.0
8894,71.0,0,90,2.0,64.0
8895,62.0,0,90,3.0,64.0
8896,88.0,0,90,7.0,64.0
8897,55.0,0,90,11.0,64.0
8898,43.0,0,90,12.0,64.0
8899,59.0,0,90,3.0,64.0
8900,74.0,0,90,1.0,64.0
8901,48.0,24,180,6.0,64.0
8902,64.0,0,90,4.0,64.0
8903,83.0,0,90,0.0,64.0
8904,64.0,0,90,10.0,64.0
8905,60.0,0,90,10.0,64.0
8906,88.0,0,90,7.0,64.0
8907,76.0,0,90,2.0,64.0
8908,72.0,0,90,2.0,64.0
8909,60.0,0,90,3.0,64.0
8910,64.0,0,90,3.0,64.0
8911,84.0,0,90,8.0,64.0
8912,72.0,120,90,1.0,64.0
8913,84.0,0,90,0.0,64.0
8914,88.0,0,90,0.0,64.0
8915,76.0,0,90,1.0,64.0
8916,60.0,0,90,10.0,64.0
8917,62.0,0,90,3.0,64.0
8918,60.0,0,90,4.0,64.0
8919,64.0,0,90,4.0,64.0
8920,77.0,0,90,2.0,64.0
8921,74.0,0,90,2.0,64.0
8922,64.0,0,90,5.0,64.0
8923,76.0,0,90,5.0,64.0
8924,65.0,0,90,3.0,64.0
8925,86.0,0,90,0.0,64.0
8926,74.0,0,90,1.0,64.0
8927,43.0,0,90,12.0,64.0
8928,48.0,24,180,6.0,64.0
8929,55.0,96,90,11.0,64.0
8930,84.0,0,90,8.0,64.0
8931,88.0,0,90,7.0,64.0
8932,89.0,0,90,0.0,64.0
8933,77.0,0,90,1.0,64.0
8934,64.0,0,90,10.0,64.0
8935,84.0,0,90,8.0,64.0
8936,64.0,0,90,10.0,64.0
8937,88.0,0,90,7.0,64.0
8938,60.0,120,90,10.0,64.0
8939,88.0,0,90,7.0,64.0
8940,84.0,0,90,8.0,64.0
8941,43.0,0,90,11.0,64.0
8942,60.0,0,90,3.0,64.0
8943,64.0,120,90,3.0,64.0
8944,60.0,0,90,10.0,64.0
8945,31.0,0,90,12.0,64.0
8946,64.0,0,90,10.0,64.0
8947,88.0,0,90,0.0,64.0
8948,84.0,0,90,0.0,64.0
8949,76.0,0,90,2.0,64.0
8950,72.0,0,90,2.0,64.0
8951,72.0,0,90,1.0,64.0
8952,76.0,0,90,1.0,64.0
8953,60.0,0,90,10.0,64.0
8954,64.0,0,90,10.0,64.0
8955,84.0,120,90,8.0,64.0
8956,88.0,0,90,7.0,64.0
8957,62.0,0,90,3.0,64.0
8958,74.0,0,90,1.0,64.0
8959,62.0,0,90,4.0,64.0
8960,74.0,0,90,2.0,64.0
8961,30.0,0,90,12.0,64.0
8962,74.0,96,90,5.0,64.0
8963,69.0,0,90,10.0,64.0
8964,62.0,0,90,10.0,64.0
8965,81.0,0,90,8.0,64.0
8966,72.0,0,90,8.0,64.0
8967,86.0,0,90,7.0,64.0
8968,42.0,0,90,11.0,64.0
8969,48.0,24,180,6.0,64.0
8970,86.0,0,90,0.0,64.0
8971,72.0,0,90,8.0,64.0
8972,86.0,0,90,7.0,64.0
8973,81.0,120,90,8.0,64.0
8974,62.0,0,90,10.0,64.0
8975,69.0,0,90,10.0,64.0
8976,42.0,0,90,12.0,64.0
8977,73.0,96,90,1.0,64.0
8978,86.0,0,90,7.0,64.0
8979,61.0,0,90,3.0,64.0
8980,81.0,0,90,8.0,64.0
8981,72.0,0,90,8.0,64.0
8982,85.0,0,90,0.0,64.0
8983,69.0,0,90,10.0,64.0
8984,62.0,0,90,10.0,64.0
8985,48.0,24,180,6.0,64.0
8986,74.0,0,90,5.0,64.0
8987,54.0,0,90,11.0,64.0
8988,73.0,0,90,2.0,64.0
8989,62.0,0,90,4.0,64.0
8990,72.0,0,90,8.0,64.0
8991,86.0,0,90,0.0,64.0
8992,81.0,0,90,8.0,64.0
8993,86.0,0,90,7.0,64.0
8994,62.0,0,90,10.0,64.0
8995,69.0,0,90,10.0,64.0
8996,62.0,0,90,3.0,64.0
8997,74.0,0,90,2.0,64.0
8998,74.0,120,90,1.0,64.0
8999,64.0,0,90,3.0,64.0
9000,62.0,0,90,4.0,64.0
9001,42.0,0,90,12.0,64.0
9002,86.0,0,90,7.0,64.0
9003,74.0,0,90,5.0,64.0
9004,54.0,0,90,11.0,64.0
9005,81.0,0,90,8.0,64.0
9006,72.0,0,90,8.0,64.0
9007,76.0,0,90,1.0,64.0
9008,88.0,0,90,0.0,64.0
9009,62.0,96,90,10.0,64.0
9010,69.0,0,90,10.0,64.0
9011,48.0,24,180,6.0,64.0
9012,76.0,0,90,2.0,64.0
9013,72.0,120,90,8.0,64.0
9014,81.0,0,90,8.0,64.0
9015,86.0,0,90,7.0,64.0
9016,62.0,0,90,10.0,64.0
9017,69.0,0,90,10.0,64.0
9018,62.0,0,90,10.0,64.0
9019,74.0,0,90,1.0,64.0
9020,69.0,0,90,10.0,64.0
9021,30.0,0,90,12.0,64.0
9022,62.0,0,90,3.0,64.0
9023,42.0,0,90,11.0,64.0
9024,81.0,0,90,8.0,64.0
9025,74.0,120,90,2.0,64.0
9026,72.0,0,90,8.0,64.0
9027,86.0,0,90,0.0,64.0
9028,86.0,0,90,7.0,64.0
9029,81.0,0,90,8.0,64.0
9030,72.0,0,90,8.0,64.0
9031,69.0,0,90,10.0,64.0
9032,62.0,120,90,10.0,64.0
9033,86.0,0,90,7.0,64.0
9034,86.0,0,90,0.0,64.0
9035,55.0,96,90,4.0,64.0
9036,31.0,0,90,12.0,64.0
9037,67.0,0,90,5.0,64.0
9038,55.0,0,90,10.0,64.0
9039,67.0,0,90,10.0,64.0
9040,71.0,0,90,8.0,64.0
9041,79.0,0,90,8.0,64.0
9042,43.0,0,90,11.0,64.0
9043,62.0,0,90,3.0,64.0
9044,43.0,24,180,6.0,64.0
9045,86.0,0,90,7.0,64.0
9046,74.0,0,90,1.0,64.0
9047,62.0,0,90,4.0,64.0
9048,74.0,0,90,2.0,64.0
9049,74.0,0,90,5.0,64.0
9050,55.0,0,90,10.0,64.0
9051,67.0,0,90,10.0,64.0
9052,71.0,120,90,8.0,64.0
9053,79.0,0,90,8.0,64.0
9054,86.0,0,90,7.0,64.0
9055,86.0,0,90,7.0,64.0
9056,74.0,0,90,5.0,64.0
9057,55.0,0,90,4.0,64.0
9058,43.0,24,180,6.0,64.0
9059,55.0,0,90,11.0,64.0
9060,62.0,0,90,4.0,64.0
9061,73.0,0,90,2.0,64.0
9062,71.0,0,90,8.0,64.0
9063,73.0,0,90,1.0,64.0
9064,85.0,0,90,0.0,64.0
9065,67.0,0,90,10.0,64.0
9066,67.0,96,90,5.0,64.0
9067,55.0,0,90,10.0,64.0
9068,61.0,0,90,3.0,64.0
9069,79.0,0,90,8.0,64.0
9070,43.0,0,90,12.0,64.0
9071,62.0,0,90,3.0,64.0
9072,67.0,0,90,10.0,64.0
9073,55.0,0,90,10.0,64.0
9074,86.0,0,90,7.0,64.0
9075,74.0,0,90,1.0,64.0
9076,71.0,120,90,8.0,64.0
9077,86.0,0,90,0.0,64.0
9078,74.0,0,90,2.0,64.0
9079,79.0,0,90,8.0,64.0
9080,86.0,0,90,7.0,64.0
9081,67.0,96,90,10.0,64.0
9082,55.0,0,90,10.0,64.0
9083,55.0,0,90,11.0,64.0
9084,43.0,0,90,12.0,64.0
9085,62.0,0,90,4.0,64.0
9086,76.0,0,90,1.0,64.0
9087,88.0,0,90,0.0,64.0
9088,71.0,0,90,8.0,64.0
9089,79.0,0,90,8.0,64.0
9090,64.0,0,90,3.0,64.0
9091,76.0,0,90,2.0,64.0
9092,74.0,0,90,5.0,64.0
9093,67.0,0,90,5.0,64.0
9094,55.0,0,90,4.0,64.0
9095,43.0,24,180,6.0,64.0
9096,67.0,0,90,10.0,64.0
9097,71.0,0,90,8.0,64.0
9098,79.0,120,90,8.0,64.0
9099,86.0,0,90,7.0,64.0
9100,55.0,0,90,10.0,64.0
9101,31.0,120,90,12.0,64.0
9102,74.0,0,90,2.0,64.0
9103,55.0,0,90,10.0,64.0
9104,67.0,0,90,10.0,64.0
9105,43.0,0,90,11.0,64.0
9106,86.0,0,90,7.0,64.0
9107,79.0,0,90,8.0,64.0
9108,74.0,0,90,1.0,64.0
9109,62.0,0,90,3.0,64.0
9110,71.0,0,90,8.0,64.0
9111,86.0,0,90,0.0,64.0
9112,79.0,0,90,8.0,64.0
9113,86.0,0,90,7.0,64.0
9114,71.0,120,90,8.0,64.0
9115,67.0,0,90,10.0,64.0
9116,55.0,0,90,10.0,64.0
9117,79.0,96,90,8.0,64.0
9118,72.0,0,90,2.0,64.0
9119,84.0,0,90,7.0,64.0
9120,52.0,0,90,11.0,64.0
9121,40.0,0,90,12.0,64.0
9122,48.0,24,180,6.0,64.0
9123,55.0,0,90,10.0,64.0
9124,60.0,0,90,4.0,64.0
9125,84.0,0,90,0.0,64.0
9126,67.0,0,90,10.0,64.0
9127,72.0,0,90,5.0,64.0
9128,71.0,0,90,8.0,64.0
9129,72.0,0,90,1.0,64.0
9130,60.0,0,90,3.0,64.0
9131,79.0,120,90,8.0,64.0
9132,71.0,0,90,8.0,64.0
9133,48.0,0,90,10.0,64.0
9134,52.0,0,90,10.0,64.0
9135,84.0,0,90,7.0,64.0
9136,52.0,0,90,10.0,64.0
9137,48.0,0,90,10.0,64.0
9138,48.0,24,180,6.0,64.0
9139,59.0,0,90,3.0,64.0
9140,84.0,0,90,7.0,64.0
9141,64.0,0,90,11.0,64.0
9142,60.0,0,90,4.0,64.0
9143,52.0,0,90,12.0,64.0
9144,71.0,0,90,8.0,64.0
9145,71.0,96,90,2.0,64.0
9146,79.0,0,90,8.0,64.0
9147,72.0,0,90,5.0,64.0
9148,83.0,0,90,0.0,64.0
9149,71.0,0,90,1.0,64.0
9150,72.0,0,90,1.0,64.0
9151,48.0,0,90,10.0,64.0
9152,71.0,0,90,8.0,64.0
9153,79.0,0,90,8.0,64.0
9154,84.0,0,90,7.0,64.0
9155,60.0,120,90,3.0,64.0
9156,72.0,0,90,2.0,64.0
9157,84.0,0,90,0.0,64.0
9158,52.0,0,90,10.0,64.0
9159,62.0,0,90,3.0,64.0
9160,64.0,0,90,11.0,64.0
9161,79.0,0,90,8.0,64.0
9162,71.0,96,90,8.0,64.0
9163,48.0,0,90,10.0,64.0
9164,86.0,0,90,0.0,64.0
9165,52.0,0,90,10.0,64.0
9166,48.0,24,180,6.0,64.0
9167,84.0,0,90,7.0,64.0
9168,74.0,0,90,1.0,64.0
9169,74.0,0,90,2.0,64.0
9170,52.0,0,90,12.0,64.0
9171,60.0,0,90,4.0,64.0
9172,72.0,0,90,5.0,64.0
9173,84.0,0,90,7.0,64.0
9174,79.0,0,90,8.0,64.0
9175,48.0,0,90,10.0,64.0
9176,52.0,0,90,10.0,64.0
9177,71.0,120,90,8.0,64.0
9178,48.0,0,90,10.0,64.0
9179,52.0,120,90,10.0,64.0
9180,72.0,0,90,2.0,64.0
9181,60.0,0,90,3.0,64.0
9182,79.0,0,90,8.0,64.0
9183,84.0,0,90,7.0,64.0
9184,84.0,0,90,0.0,64.0
9185,40.0,0,90,12.0,64.0
9186,72.0,0,90,1.0,64.0
9187,52.0,0,90,11.0,64.0
9188,71.0,0,90,8.0,64.0
9189,84.0,0,90,7.0,64.0
9190,48.0,0,90,10.0,64.0
9191,52.0,0,90,10.0,64.0
9192,79.0,0,90,8.0,64.0
9193,71.0,120,90,8.0,64.0
9194,69.0,0,90,8.0,64.0
9195,62.0,48,780,10.0,64.0
9196,42.0,0,90,12.0,64.0
9197,84.0,0,90,0.0,64.0
9198,72.0,0,90,2.0,64.0
9199,60.0,0,90,3.0,64.0
9200,54.0,0,90,11.0,64.0
9201,84.0,0,90,7.0,64.0
9202,62.0,0,780,4.0,64.0
9203,72.0,120,90,1.0,64.0
9204,83.0,0,90,0.0,64.0
9205,59.0,120,90,3.0,64.0
9206,43.0,0,90,12.0,64.0
9207,71.0,0,90,1.0,64.0
9208,83.0,0,90,7.0,64.0
9209,55.0,0,90,11.0,64.0
9210,71.0,0,90,2.0,64.0
9211,71.0,0,90,8.0,64.0
9212,54.0,0,90,11.0,64.0
9213,69.0,0,90,1.0,64.0
9214,57.0,0,90,3.0,64.0
9215,42.0,0,90,12.0,64.0
9216,69.0,0,90,2.0,64.0
9217,81.0,120,90,0.0,64.0
9218,69.0,0,90,8.0,64.0
9219,81.0,0,90,7.0,64.0
9220,59.0,0,90,3.0,64.0
9221,71.0,0,90,1.0,64.0
9222,83.0,0,90,0.0,64.0
9223,52.0,0,90,11.0,64.0
9224,71.0,0,90,2.0,64.0
9225,79.0,120,90,7.0,64.0
9226,67.0,0,90,8.0,64.0
9227,40.0,0,90,12.0,64.0
9228,72.0,120,90,1.0,64.0
9229,72.0,0,90,2.0,64.0
9230,84.0,0,90,0.0,64.0
9231,66.0,0,90,8.0,64.0
9232,38.0,0,90,12.0,64.0
9233,50.0,0,90,11.0,64.0
9234,78.0,0,90,7.0,64.0
9235,60.0,0,90,3.0,64.0
9236,78.0,0,90,7.0,64.0
9237,81.0,0,90,0.0,64.0
9238,69.0,0,90,2.0,64.0
9239,64.0,0,90,8.0,64.0
9240,36.0,0,90,12.0,64.0
9241,69.0,0,90,1.0,64.0
9242,48.0,72,90,11.0,64.0
9243,57.0,0,90,3.0,64.0
9244,62.0,0,90,8.0,64.0
9245,59.0,0,90,3.0,64.0
9246,47.0,0,90,11.0,64.0
9247,79.0,0,90,7.0,64.0
9248,71.0,0,90,1.0,64.0
9249,83.0,0,90,0.0,64.0
9250,71.0,0,90,2.0,64.0
9251,35.0,120,90,12.0,64.0
9252,45.0,0,90,11.0,64.0
9253,72.0,0,90,1.0,64.0
9254,81.0,0,90,7.0,64.0
9255,72.0,120,90,2.0,64.0
9256,60.0,0,90,8.0,64.0
9257,60.0,0,90,3.0,64.0
9258,84.0,0,90,0.0,64.0
9259,33.0,0,90,12.0,64.0
9260,59.0,96,240,2.0,64.0
9261,74.0,120,90,2.0,64.0
9262,59.0,0,240,3.0,64.0
9263,43.0,72,390,6.0,64.0
9264,59.0,0,240,11.0,64.0
9265,62.0,0,90,3.0,64.0
9266,62.0,0,390,4.0,64.0
9267,55.0,0,390,4.0,64.0
9268,55.0,0,390,5.0,64.0
9269,67.0,0,390,5.0,64.0
9270,59.0,0,90,8.0,64.0
9271,74.0,0,90,1.0,64.0
9272,86.0,0,90,0.0,64.0
9273,83.0,0,390,7.0,64.0
9274,31.0,0,390,12.0,64.0
9275,74.0,24,90,8.0,64.0
9276,67.0,24,90,1.0,64.0
9277,79.0,0,90,0.0,64.0
9278,60.0,0,120,11.0,64.0
9279,60.0,0,120,3.0,64.0
9280,55.0,0,90,3.0,64.0
9281,72.0,0,90,8.0,64.0
9282,60.0,24,120,2.0,64.0
9283,67.0,0,90,2.0,64.0
9284,62.0,96,120,2.0,64.0
9285,71.0,24,90,8.0,64.0
9286,62.0,0,120,3.0,64.0
9287,62.0,0,120,11.0,64.0
9288,64.0,0,330,2.0,64.0
9289,64.0,0,90,11.0,64.0
9290,67.0,0,870,3.0,64.0
9291,64.0,0,90,3.0,64.0
9292,79.0,72,870,1.0,64.0
9293,79.0,0,870,2.0,64.0
9294,72.0,120,90,8.0,64.0
9295,91.0,0,870,0.0,64.0
9296,71.0,120,90,8.0,64.0
9297,64.0,0,90,3.0,64.0
9298,69.0,0,90,8.0,64.0
9299,64.0,120,90,11.0,64.0
9300,67.0,240,90,8.0,64.0
9301,57.0,96,240,2.0,64.0
9302,57.0,0,240,3.0,64.0
9303,57.0,0,240,11.0,64.0
9304,72.0,0,390,8.0,64.0
9305,84.0,24,90,7.0,64.0
9306,83.0,24,90,7.0,64.0
9307,59.0,0,120,2.0,64.0
9308,59.0,24,120,11.0,64.0
9309,59.0,0,120,3.0,64.0
9310,60.0,0,120,3.0,64.0
9311,60.0,96,120,11.0,64.0
9312,60.0,0,120,2.0,64.0
9313,81.0,24,90,7.0,64.0
9314,83.0,0,90,7.0,64.0
9315,78.0,72,870,2.0,64.0
9316,62.0,0,90,2.0,64.0
9317,78.0,0,870,1.0,64.0
9318,66.0,0,870,3.0,64.0
9319,62.0,0,90,3.0,64.0
9320,62.0,120,90,11.0,64.0
9321,90.0,0,870,0.0,64.0
9322,81.0,120,90,7.0,64.0
9323,50.0,0,90,11.0,64.0
9324,50.0,0,90,2.0,64.0
9325,79.0,0,90,7.0,64.0
9326,50.0,120,90,3.0,64.0
9327,78.0,240,90,7.0,64.0
9328,55.0,0,240,3.0,64.0
9329,55.0,0,240,11.0,64.0
9330,83.0,0,390,7.0,64.0
9331,55.0,96,240,2.0,64.0
9332,71.0,24,90,8.0,64.0
9333,57.0,24,120,3.0,64.0
9334,57.0,0,120,11.0,64.0
9335,69.0,24,90,8.0,64.0
9336,57.0,0,120,2.0,64.0
9337,67.0,24,90,8.0,64.0
9338,59.0,0,120,11.0,64.0
9339,59.0,96,120,3.0,64.0
9340,59.0,0,120,2.0,64.0
9341,60.0,0,90,11.0,64.0
9342,60.0,0,90,2.0,64.0
9343,76.0,0,870,2.0,64.0
9344,88.0,0,870,0.0,64.0
9345,76.0,0,870,1.0,64.0
9346,69.0,120,90,8.0,64.0
9347,64.0,72,870,3.0,64.0
9348,60.0,0,90,3.0,64.0
9349,67.0,120,90,8.0,64.0
9350,60.0,120,90,2.0,64.0
9351,60.0,0,90,11.0,64.0
9352,66.0,0,90,8.0,64.0
9353,60.0,0,90,3.0,64.0
9354,64.0,240,90,8.0,64.0
9355,69.0,0,390,8.0,64.0
9356,54.0,96,240,3.0,64.0
9357,54.0,0,240,11.0,64.0
9358,54.0,0,240,2.0,64.0
9359,81.0,24,90,7.0,64.0
9360,79.0,24,90,7.0,64.0
9361,55.0,0,120,2.0,64.0
9362,55.0,0,120,3.0,64.0
9363,55.0,24,120,11.0,64.0
9364,57.0,0,120,2.0,64.0
9365,57.0,96,120,11.0,64.0
9366,57.0,0,120,3.0,64.0
9367,78.0,24,90,7.0,64.0
9368,74.0,72,870,1.0,64.0
9369,79.0,120,90,7.0,64.0
9370,59.0,0,90,2.0,64.0
9371,74.0,0,870,2.0,64.0
9372,59.0,0,90,3.0,64.0
9373,86.0,0,870,0.0,64.0
9374,59.0,0,90,11.0,64.0
9375,62.0,0,870,3.0,64.0
9376,78.0,120,90,7.0,64.0
9377,47.0,0,90,2.0,64.0
9378,47.0,0,90,11.0,64.0
9379,76.0,120,90,7.0,64.0
9380,47.0,0,90,3.0,64.0
9381,74.0,240,90,7.0,64.0
9382,64.0,0,240,11.0,64.0
9383,64.0,0,240,3.0,64.0
9384,79.0,0,390,7.0,64.0
9385,64.0,96,240,2.0,64.0
9386,74.0,24,90,8.0,64.0
9387,66.0,24,120,3.0,64.0
9388,72.0,24,90,8.0,64.0
9389,66.0,0,120,11.0,64.0
9390,66.0,0,120,2.0,64.0
9391,67.0,0,120,2.0,64.0
9392,67.0,96,120,11.0,64.0
9393,67.0,0,120,3.0,64.0
9394,71.0,24,90,8.0,64.0
9395,69.0,120,90,11.0,64.0
9396,60.0,0,870,3.0,64.0
9397,69.0,0,90,3.0,64.0
9398,84.0,0,870,0.0,64.0
9399,72.0,72,870,2.0,64.0
9400,69.0,0,90,2.0,64.0
9401,72.0,0,90,8.0,64.0
9402,72.0,0,870,1.0,64.0
9403,71.0,120,90,8.0,64.0
9404,69.0,0,90,11.0,64.0
9405,69.0,0,90,8.0,64.0
9406,69.0,0,90,3.0,64.0
9407,69.0,120,90,2.0,64.0
9408,67.0,216,90,8.0,64.0
9409,62.0,96,240,3.0,64.0
9410,66.0,24,180,8.0,64.0
9411,62.0,0,240,2.0,64.0
9412,62.0,0,240,11.0,64.0
9413,84.0,24,90,7.0,64.0
9414,64.0,0,120,11.0,64.0
9415,64.0,0,120,2.0,64.0
9416,83.0,0,90,7.0,64.0
9417,64.0,24,120,3.0,64.0
9418,67.0,24,90,8.0,64.0
9419,81.0,24,90,7.0,64.0
9420,69.0,0,90,8.0,64.0
9421,66.0,0,120,11.0,64.0
9422,66.0,96,120,3.0,64.0
9423,66.0,0,120,2.0,64.0
9424,67.0,0,120,11.0,64.0
9425,67.0,102,120,2.0,64.0
9426,71.0,72,390,2.0,64.0
9427,83.0,18,90,7.0,64.0
9428,71.0,0,390,1.0,64.0
9429,62.0,0,90,8.0,64.0
9430,67.0,0,120,3.0,64.0
9431,83.0,0,390,0.0,64.0
9432,74.0,0,90,7.0,64.0
9433,55.0,96,120,3.0,64.0
9434,55.0,0,120,11.0,64.0
9435,55.0,0,120,2.0,64.0
9436,62.0,24,90,8.0,64.0
9437,57.0,0,120,2.0,64.0
9438,62.0,0,90,8.0,64.0
9439,57.0,0,120,3.0,64.0
9440,74.0,24,90,7.0,64.0
9441,57.0,24,120,11.0,64.0
9442,59.0,0,20,3.0,64.0
9443,74.0,0,90,7.0,64.0
9444,59.0,0,120,11.0,64.0
9445,59.0,0,120,2.0,64.0
9446,62.0,24,90,8.0,64.0
9447,74.0,0,90,7.0,64.0
9448,62.0,0,90,4.0,64.0
9449,60.0,84,90,11.0,64.0
9450,60.0,0,90,2.0,64.0
9451,60.0,0,90,4.0,64.0
9452,69.0,36,60,1.0,64.0
9453,69.0,0,60,2.0,64.0
9454,60.0,0,90,3.0,64.0
9455,57.0,0,60,3.0,64.0
9456,62.0,0,90,8.0,64.0
9457,81.0,0,60,0.0,64.0
9458,74.0,84,90,7.0,64.0
9459,62.0,0,90,8.0,64.0
9460,74.0,0,60,1.0,64.0
9461,50.0,0,60,3.0,64.0
9462,74.0,0,60,0.0,64.0
9463,62.0,36,60,2.0,64.0
9464,59.0,0,90,2.0,64.0
9465,62.0,0,90,4.0,64.0
9466,60.0,84,90,4.0,64.0
9467,74.0,0,90,7.0,64.0
9468,59.0,0,90,11.0,64.0
9469,81.0,0,60,1.0,64.0
9470,69.0,36,60,2.0,64.0
9471,57.0,0,60,3.0,64.0
9472,81.0,0,60,0.0,64.0
9473,62.0,0,90,8.0,64.0
9474,59.0,0,90,3.0,64.0
9475,60.0,0,90,2.0,64.0
9476,60.0,84,90,3.0,64.0
9477,74.0,0,90,7.0,64.0
9478,55.0,36,60,3.0,64.0
9479,67.0,0,60,2.0,64.0
9480,60.0,0,90,11.0,64.0
9481,62.0,0,90,8.0,64.0
9482,79.0,0,60,1.0,64.0
9483,79.0,0,60,0.0,64.0
9484,78.0,0,60,1.0,64.0
9485,78.0,0,60,0.0,64.0
9486,66.0,36,60,2.0,64.0
9487,74.0,0,90,7.0,64.0
9488,60.0,0,90,4.0,64.0
9489,62.0,0,90,2.0,64.0
9490,62.0,0,90,8.0,64.0
9491,62.0,0,90,11.0,64.0
9492,62.0,84,90,4.0,64.0
9493,54.0,0,60,3.0,64.0
9494,62.0,0,90,3.0,64.0
9495,62.0,0,90,8.0,64.0
9496,74.0,36,60,0.0,64.0
9497,62.0,0,60,2.0,64.0
9498,50.0,0,60,3.0,64.0
9499,74.0,84,90,7.0,64.0
9500,74.0,0,60,1.0,64.0
9501,60.0,0,90,2.0,64.0
9502,76.0,36,60,0.0,64.0
9503,74.0,0,90,7.0,64.0
9504,62.0,0,90,8.0,64.0
9505,60.0,0,90,11.0,64.0
9506,76.0,0,60,1.0,64.0
9507,52.0,0,60,3.0,64.0
9508,60.0,84,90,3.0,64.0
9509,78.0,36,60,1.0,64.0
9510,78.0,0,60,0.0,64.0
9511,62.0,0,90,8.0,64.0
9512,54.0,0,60,3.0,64.0
9513,66.0,0,60,2.0,64.0
9514,74.0,84,90,7.0,64.0
9515,67.0,0,60,2.0,64.0
9516,79.0,0,60,1.0,64.0
9517,59.0,0,90,2.0,64.0
9518,79.0,0,60,0.0,64.0
9519,62.0,0,90,4.0,64.0
9520,74.0,0,90,7.0,64.0
9521,55.0,36,60,3.0,64.0
9522,59.0,84,90,3.0,64.0
9523,59.0,0,90,11.0,64.0
9524,62.0,0,90,8.0,64.0
9525,86.0,36,60,0.0,64.0
9526,74.0,0,60,2.0,64.0
9527,62.0,0,60,3.0,64.0
9528,74.0,0,90,7.0,64.0
9529,86.0,0,60,1.0,64.0
9530,62.0,84,90,8.0,64.0
9531,57.0,0,90,11.0,64.0
9532,62.0,0,90,8.0,64.0
9533,57.0,84,90,2.0,64.0
9534,72.0,36,60,2.0,64.0
9535,84.0,0,60,1.0,64.0
9536,57.0,0,90,3.0,64.0
9537,60.0,0,60,3.0,64.0
9538,84.0,0,60,0.0,64.0
9539,74.0,0,90,7.0,64.0
9540,62.0,0,90,4.0,64.0
9541,59.0,0,60,3.0,64.0
9542,83.0,0,60,1.0,64.0
9543,62.0,84,90,8.0,64.0
9544,59.0,0,90,2.0,64.0
9545,74.0,0,90,7.0,64.0
9546,71.0,36,60,2.0,64.0
9547,59.0,0,90,11.0,64.0
9548,83.0,0,60,0.0,64.0
9549,81.0,0,60,0.0,64.0
9550,57.0,36,60,3.0,64.0
9551,60.0,0,90,3.0,64.0
9552,62.0,0,90,8.0,64.0
9553,62.0,0,90,4.0,64.0
9554,74.0,84,90,7.0,64.0
9555,69.0,0,60,2.0,64.0
9556,60.0,0,90,2.0,64.0
9557,60.0,0,90,11.0,64.0
9558,81.0,0,60,1.0,64.0
9559,67.0,36,60,2.0,64.0
9560,79.0,0,60,0.0,64.0
9561,74.0,0,90,7.0,64.0
9562,55.0,0,60,3.0,64.0
9563,62.0,84,90,8.0,64.0
9564,79.0,0,60,1.0,64.0
9565,62.0,0,90,8.0,64.0
9566,78.0,0,60,0.0,64.0
9567,59.0,0,90,2.0,64.0
9568,74.0,84,90,7.0,64.0
9569,59.0,0,90,11.0,64.0
9570,78.0,0,60,1.0,64.0
9571,59.0,0,90,3.0,64.0
9572,54.0,0,60,3.0,64.0
9573,66.0,36,60,2.0,64.0
9574,74.0,0,90,7.0,64.0
9575,79.0,0,60,1.0,64.0
9576,79.0,0,60,0.0,64.0
9577,62.0,84,90,8.0,64.0
9578,55.0,0,60,3.0,64.0
9579,67.0,36,60,2.0,64.0
9580,74.0,0,60,1.0,64.0
9581,62.0,0,90,8.0,64.0
9582,62.0,0,60,3.0,64.0
9583,67.0,0,90,4.0,64.0
9584,65.0,0,90,3.0,64.0
9585,65.0,0,90,2.0,64.0
9586,74.0,84,90,7.0,64.0
9587,86.0,0,60,0.0,64.0
9588,74.0,36,60,2.0,64.0
9589,65.0,0,90,11.0,64.0
9590,79.0,84,90,7.0,64.0
9591,67.0,0,60,1.0,64.0
9592,79.0,36,60,0.0,64.0
9593,55.0,0,60,3.0,64.0
9594,67.0,0,90,8.0,64.0
9595,67.0,0,60,2.0,64.0
9596,74.0,36,60,1.0,64.0
9597,74.0,0,60,2.0,64.0
9598,64.0,0,90,3.0,64.0
9599,64.0,0,90,2.0,64.0
9600,86.0,0,60,0.0,64.0
9601,79.0,0,90,7.0,64.0
9602,64.0,0,90,11.0,64.0
9603,62.0,0,60,3.0,64.0
9604,67.0,0,90,8.0,64.0
9605,67.0,84,90,4.0,64.0
9606,60.0,0,60,3.0,64.0
9607,65.0,0,90,3.0,64.0
9608,65.0,0,90,11.0,64.0
9609,84.0,0,60,0.0,64.0
9610,72.0,36,60,2.0,64.0
9611,67.0,0,90,8.0,64.0
9612,65.0,0,90,2.0,64.0
9613,72.0,0,60,1.0,64.0
9614,79.0,84,90,7.0,64.0
9615,67.0,0,90,4.0,64.0
9616,67.0,0,90,8.0,64.0
9617,71.0,0,60,1.0,64.0
9618,67.0,0,90,3.0,64.0
9619,59.0,36,60,3.0,64.0
9620,79.0,0,90,7.0,64.0
9621,83.0,0,60,0.0,64.0
9622,67.0,84,90,11.0,64.0
9623,67.0,0,90,2.0,64.0
9624,71.0,0,60,2.0,64.0
9625,67.0,84,90,8.0,64.0
9626,55.0,0,60,3.0,64.0
9627,79.0,0,90,7.0,64.0
9628,67.0,0,60,2.0,64.0
9629,67.0,0,60,1.0,64.0
9630,79.0,36,60,0.0,64.0
9631,69.0,0,60,2.0,64.0
9632,65.0,0,90,2.0,64.0
9633,57.0,0,60,3.0,64.0
9634,67.0,84,90,8.0,64.0
9635,69.0,36,60,1.0,64.0
9636,79.0,0,90,7.0,64.0
9637,65.0,0,90,11.0,64.0
9638,65.0,0,90,3.0,64.0
9639,81.0,0,60,0.0,64.0
9640,83.0,0,60,0.0,64.0
9641,71.0,0,60,2.0,64.0
9642,59.0,36,60,3.0,64.0
9643,79.0,84,90,7.0,64.0
9644,71.0,0,60,1.0,64.0
9645,67.0,0,90,8.0,64.0
9646,72.0,36,60,1.0,64.0
9647,84.0,0,60,0.0,64.0
9648,64.0,0,90,11.0,64.0
9649,67.0,0,90,8.0,64.0
9650,79.0,0,90,7.0,64.0
9651,67.0,0,90,4.0,64.0
9652,60.0,0,60,3.0,64.0
9653,64.0,84,90,3.0,64.0
9654,72.0,0,60,2.0,64.0
9655,64.0,0,90,2.0,64.0
9656,67.0,0,60,3.0,64.0
9657,79.0,84,90,7.0,64.0
9658,91.0,0,60,0.0,64.0
9659,67.0,0,90,8.0,64.0
9660,79.0,36,60,1.0,64.0
9661,79.0,0,60,2.0,64.0
9662,77.0,36,60,1.0,64.0
9663,79.0,0,90,7.0,64.0
9664,67.0,0,90,4.0,64.0
9665,89.0,0,60,0.0,64.0
9666,62.0,0,90,3.0,64.0
9667,67.0,0,90,8.0,64.0
9668,62.0,0,90,11.0,64.0
9669,62.0,84,90,2.0,64.0
9670,77.0,0,60,2.0,64.0
9671,65.0,0,60,3.0,64.0
9672,64.0,0,90,11.0,64.0
9673,76.0,0,60,2.0,64.0
9674,79.0,0,90,7.0,64.0
9675,64.0,0,60,3.0,64.0
9676,76.0,36,60,1.0,64.0
9677,67.0,84,90,8.0,64.0
9678,64.0,0,90,2.0,64.0
9679,88.0,0,60,0.0,64.0
9680,65.0,0,90,11.0,64.0
9681,74.0,0,60,1.0,64.0
9682,65.0,0,90,2.0,64.0
9683,74.0,0,60,2.0,64.0
9684,86.0,36,60,0.0,64.0
9685,67.0,84,90,8.0,64.0
9686,79.0,0,90,7.0,64.0
9687,62.0,0,60,3.0,64.0
9688,67.0,0,90,4.0,64.0
9689,65.0,0,90,3.0,64.0
9690,72.0,0,60,2.0,64.0
9691,72.0,0,60,1.0,64.0
9692,67.0,84,90,8.0,64.0
9693,79.0,0,90,7.0,64.0
9694,60.0,36,60,3.0,64.0
9695,84.0,0,60,0.0,64.0
9696,64.0,0,90,11.0,64.0
9697,71.0,0,60,1.0,64.0
9698,83.0,0,60,0.0,64.0
9699,64.0,0,90,2.0,64.0
9700,59.0,0,60,3.0,64.0
9701,64.0,0,90,3.0,64.0
9702,67.0,84,90,8.0,64.0
9703,79.0,0,90,7.0,64.0
9704,71.0,36,60,2.0,64.0
9705,79.0,84,90,7.0,64.0
9706,60.0,36,60,3.0,64.0
9707,67.0,0,90,8.0,64.0
9708,72.0,0,60,2.0,64.0
9709,72.0,0,60,1.0,64.0
9710,84.0,0,60,0.0,64.0
9711,62.0,0,60,3.0,64.0
9712,65.0,0,90,11.0,64.0
9713,86.0,0,60,0.0,64.0
9714,67.0,0,90,4.0,64.0
9715,74.0,0,60,2.0,64.0
9716,65.0,84,90,4.0,64.0
9717,74.0,36,60,1.0,64.0
9718,79.0,0,90,7.0,64.0
9719,67.0,0,90,8.0,64.0
9720,67.0,0,60,2.0,64.0
9721,79.0,0,60,0.0,64.0
9722,67.0,0,60,1.0,64.0
9723,67.0,84,90,8.0,64.0
9724,79.0,0,90,7.0,64.0
9725,55.0,36,60,3.0,64.0
9726,79.0,0,90,7.0,64.0
9727,74.0,0,60,1.0,64.0
9728,86.0,36,60,0.0,64.0
9729,62.0,0,60,3.0,64.0
9730,65.0,84,90,4.0,64.0
9731,74.0,0,60,2.0,64.0
9732,67.0,0,90,4.0,64.0
9733,64.0,0,90,11.0,64.0
9734,67.0,0,90,8.0,64.0
9735,79.0,0,90,7.0,64.0
9736,65.0,84,90,11.0,64.0
9737,67.0,0,90,8.0,64.0
9738,60.0,0,60,3.0,64.0
9739,72.0,36,60,2.0,64.0
9740,84.0,0,60,0.0,64.0
9741,72.0,0,60,1.0,64.0
9742,67.0,0,90,11.0,64.0
9743,67.0,0,90,4.0,64.0
9744,71.0,0,60,1.0,64.0
9745,59.0,0,60,3.0,64.0
9746,83.0,36,60,0.0,64.0
9747,79.0,84,90,7.0,64.0
9748,71.0,0,60,2.0,64.0
9749,67.0,0,90,8.0,64.0
9750,65.0,0,90,4.0,64.0
9751,67.0,0,60,1.0,64.0
9752,67.0,0,90,8.0,64.0
9753,67.0,36,60,2.0,64.0
9754,79.0,84,90,7.0,64.0
9755,79.0,0,60,0.0,64.0
9756,55.0,0,60,3.0,64.0
9757,81.0,0,60,0.0,64.0
9758,65.0,0,90,11.0,64.0
9759,69.0,36,60,1.0,64.0
9760,79.0,0,90,7.0,64.0
9761,57.0,0,60,3.0,64.0
9762,67.0,84,90,8.0,64.0
9763,69.0,0,60,2.0,64.0
9764,71.0,0,60,2.0,64.0
9765,83.0,36,60,0.0,64.0
9766,59.0,0,60,3.0,64.0
9767,79.0,0,90,7.0,64.0
9768,67.0,96,90,8.0,64.0
9769,71.0,0,60,1.0,64.0
9770,72.0,0,780,2.0,64.0
9771,64.0,24,60,11.0,64.0
9772,60.0,0,90,3.0,64.0
9773,84.0,96,90,0.0,64.0
9774,79.0,0,60,7.0,64.0
9775,60.0,0,90,4.0,64.0
9776,72.0,0,90,1.0,64.0
9777,72.0,12,900,8.0,64.0
9778,81.0,120,60,7.0,64.0
9779,65.0,0,60,11.0,64.0
9780,60.0,0,90,4.0,64.0
9781,64.0,0,60,11.0,64.0
9782,72.0,0,90,1.0,64.0
9783,84.0,96,90,0.0,64.0
9784,79.0,24,60,7.0,64.0
9785,76.0,0,90,1.0,64.0
9786,60.0,0,90,3.0,64.0
9787,77.0,120,60,7.0,64.0
9788,62.0,0,60,11.0,64.0
9789,72.0,0,90,1.0,64.0
9790,76.0,0,90,1.0,64.0
9791,60.0,0,60,11.0,64.0
9792,60.0,0,90,3.0,64.0
9793,60.0,0,90,4.0,64.0
9794,84.0,96,90,0.0,64.0
9795,76.0,24,60,7.0,64.0
9796,58.0,0,60,11.0,64.0
9797,74.0,24,60,7.0,64.0
9798,58.0,72,90,3.0,64.0
9799,74.0,0,60,1.0,64.0
9800,77.0,24,60,1.0,64.0
9801,86.0,0,60,0.0,64.0
9802,60.0,0,90,4.0,64.0
9803,57.0,24,60,11.0,64.0
9804,72.0,0,60,7.0,64.0
9805,57.0,72,90,3.0,64.0
9806,79.0,0,60,1.0,64.0
9807,88.0,0,60,0.0,64.0
9808,55.0,120,90,3.0,64.0
9809,70.0,0,60,7.0,64.0
9810,76.0,12,60,1.0,64.0
9811,55.0,24,60,11.0,64.0
9812,89.0,0,390,0.0,64.0
9813,84.0,0,390,0.0,64.0
9814,65.0,24,900,10.0,64.0
9815,60.0,72,7770,4.0,64.0
9816,77.0,0,390,1.0,64.0
9817,81.0,72,390,1.0,64.0
9818,69.0,0,390,7.0,64.0
9819,69.0,96,240,8.0,64.0
9820,53.0,120,90,11.0,64.0
9821,53.0,0,390,3.0,64.0
9822,69.0,0,390,2.0,64.0
9823,60.0,24,90,11.0,64.0
9824,60.0,24,90,11.0,64.0
9825,70.0,24,120,8.0,64.0
9826,60.0,24,90,11.0,64.0
9827,72.0,96,120,8.0,64.0
9828,60.0,0,90,11.0,64.0
9829,74.0,120,90,8.0,64.0
9830,60.0,120,90,11.0,64.0
9831,60.0,0,90,11.0,64.0
9832,74.0,96,90,8.0,64.0
9833,60.0,120,90,11.0,64.0
9834,64.0,0,240,10.0,64.0
9835,67.0,96,240,8.0,64.0
9836,60.0,120,90,11.0,64.0
9837,60.0,24,90,11.0,64.0
9838,65.0,96,120,10.0,64.0
9839,60.0,24,90,11.0,64.0
9840,69.0,0,120,8.0,64.0
9841,60.0,24,90,11.0,64.0
9842,67.0,96,120,10.0,64.0
9843,70.0,0,120,8.0,64.0
9844,60.0,0,90,11.0,64.0
9845,69.0,120,90,10.0,64.0
9846,72.0,0,90,8.0,64.0
9847,60.0,120,90,11.0,64.0
9848,62.0,0,90,11.0,64.0
9849,67.0,0,90,10.0,64.0
9850,70.0,120,90,8.0,64.0
9851,64.0,96,90,11.0,64.0
9852,65.0,0,60,10.0,64.0
9853,48.0,0,5850,4.0,64.0
9854,84.0,120,900,7.0,64.0
9855,65.0,48,390,11.0,64.0
9856,69.0,120,60,8.0,64.0
9857,67.0,0,60,10.0,64.0
9858,70.0,120,60,8.0,64.0
9859,72.0,24,60,8.0,64.0
9860,69.0,0,60,10.0,64.0
9861,81.0,0,90,1.0,64.0
9862,77.0,48,90,1.0,64.0
9863,65.0,0,90,2.0,64.0
9864,69.0,0,90,2.0,64.0
9865,74.0,0,60,8.0,64.0
9866,70.0,120,60,10.0,64.0
9867,76.0,24,60,8.0,64.0
9868,77.0,0,90,1.0,64.0
9869,81.0,96,90,1.0,64.0
9870,69.0,0,90,2.0,64.0
9871,65.0,0,90,2.0,64.0
9872,72.0,0,60,10.0,64.0
9873,74.0,0,60,10.0,64.0
9874,77.0,120,60,8.0,64.0
9875,79.0,24,60,8.0,64.0
9876,81.0,0,90,1.0,64.0
9877,69.0,0,90,2.0,64.0
9878,65.0,0,90,2.0,64.0
9879,76.0,0,60,10.0,64.0
9880,77.0,96,90,1.0,64.0
9881,81.0,0,60,8.0,64.0
9882,77.0,0,60,10.0,64.0
9883,81.0,72,240,7.0,64.0
9884,65.0,0,60,10.0,64.0
9885,69.0,120,60,8.0,64.0
9886,81.0,0,60,8.0,64.0
9887,77.0,48,60,10.0,64.0
9888,77.0,0,90,1.0,64.0
9889,81.0,24,90,1.0,64.0
9890,82.0,72,120,7.0,64.0
9891,69.0,24,60,8.0,64.0
9892,65.0,0,90,2.0,64.0
9893,69.0,0,90,2.0,64.0
9894,65.0,0,60,10.0,64.0
9895,65.0,0,60,10.0,64.0
9896,84.0,72,120,7.0,64.0
9897,69.0,48,60,8.0,64.0
9898,86.0,96,90,7.0,64.0
9899,69.0,0,60,8.0,64.0
9900,69.0,0,90,2.0,64.0
9901,65.0,0,90,2.0,64.0
9902,81.0,0,90,1.0,64.0
9903,77.0,0,90,1.0,64.0
9904,65.0,24,60,10.0,64.0
9905,69.0,0,60,8.0,64.0
9906,65.0,120,60,10.0,64.0
9907,65.0,24,60,10.0,64.0
9908,86.0,96,90,7.0,64.0
9909,65.0,0,90,2.0,64.0
9910,69.0,0,90,2.0,64.0
9911,69.0,0,60,8.0,64.0
9912,81.0,0,90,1.0,64.0
9913,77.0,0,90,1.0,64.0
9914,65.0,120,60,10.0,64.0
9915,69.0,0,60,8.0,64.0
9916,65.0,120,60,10.0,64.0
9917,79.0,72,240,7.0,64.0
9918,67.0,0,60,8.0,64.0
9919,79.0,48,60,8.0,64.0
9920,65.0,0,60,10.0,64.0
9921,81.0,72,120,7.0,64.0
9922,79.0,0,90,1.0,64.0
9923,67.0,0,60,8.0,64.0
9924,77.0,0,90,1.0,64.0
9925,65.0,0,90,2.0,64.0
9926,65.0,24,60,10.0,64.0
9927,67.0,24,90,2.0,64.0
9928,82.0,72,120,7.0,64.0
9929,65.0,0,60,10.0,64.0
9930,67.0,48,60,8.0,64.0
9931,64.0,72,120,2.0,64.0
9932,64.0,24,60,10.0,64.0
9933,76.0,0,90,1.0,64.0
9934,67.0,0,60,8.0,64.0
9935,79.0,0,90,1.0,64.0
9936,67.0,24,90,2.0,64.0
9937,84.0,0,90,7.0,64.0
9938,67.0,120,60,8.0,64.0
9939,64.0,0,60,10.0,64.0
9940,76.0,96,90,1.0,64.0
9941,79.0,0,90,1.0,64.0
9942,64.0,0,90,2.0,64.0
9943,67.0,0,90,2.0,64.0
9944,64.0,0,60,10.0,64.0
9945,72.0,0,90,7.0,64.0
9946,67.0,24,60,8.0,64.0
9947,67.0,0,60,8.0,64.0
9948,64.0,120,60,10.0,64.0
9949,64.0,0,60,10.0,64.0
9950,65.0,120,60,8.0,64.0
9951,77.0,72,240,7.0,64.0
9952,77.0,48,60,8.0,64.0
9953,64.0,0,60,10.0,64.0
9954,65.0,0,60,8.0,64.0
9955,76.0,0,90,1.0,64.0
9956,77.0,0,90,1.0,64.0
9957,79.0,72,120,7.0,64.0
9958,64.0,0,120,2.0,64.0
9959,65.0,24,90,2.0,64.0
9960,64.0,24,60,10.0,64.0
9961,81.0,72,120,7.0,64.0
9962,65.0,0,60,8.0,64.0
9963,64.0,48,60,10.0,64.0
9964,74.0,0,90,1.0,64.0
9965,77.0,0,90,1.0,64.0
9966,62.0,96,90,2.0,64.0
9967,65.0,0,90,2.0,64.0
9968,65.0,24,60,8.0,64.0
9969,82.0,0,90,7.0,64.0
9970,62.0,0,60,10.0,64.0
9971,62.0,0,60,10.0,64.0
9972,65.0,120,60,8.0,64.0
9973,74.0,0,90,1.0,64.0
9974,77.0,0,90,1.0,64.0
9975,62.0,24,60,10.0,64.0
9976,65.0,0,60,8.0,64.0
9977,82.0,0,90,7.0,64.0
9978,65.0,96,90,2.0,64.0
9979,62.0,0,90,2.0,64.0
9980,65.0,0,60,8.0,64.0
9981,62.0,120,60,10.0,64.0
9982,64.0,120,60,8.0,64.0
9983,62.0,0,60,10.0,64.0
9984,76.0,72,240,7.0,64.0
9985,62.0,48,60,10.0,64.0
9986,76.0,0,60,8.0,64.0
9987,77.0,72,120,7.0,64.0
9988,64.0,24,90,2.0,64.0
9989,62.0,0,90,2.0,64.0
9990,74.0,0,90,1.0,64.0
9991,62.0,0,60,10.0,64.0
9992,76.0,0,90,1.0,64.0
9993,64.0,24,60,8.0,64.0
9994,79.0,72,120,7.0,64.0
9995,64.0,48,60,8.0,64.0
9996,62.0,0,60,10.0,64.0
9997,72.0,0,90,1.0,64.0
9998,76.0,0,90,1.0,64.0
9999,64.0,24,60,8.0,64.0
10000,81.0,96,90,7.0,64.0
10001,60.0,0,60,10.0,64.0
10002,60.0,0,90,2.0,64.0
10003,64.0,0,90,2.0,64.0
10004,60.0,120,60,10.0,64.0
10005,64.0,0,60,8.0,64.0
10006,64.0,0,60,8.0,64.0
10007,64.0,0,90,2.0,64.0
10008,60.0,0,90,2.0,64.0
10009,76.0,0,90,1.0,64.0
10010,72.0,96,90,1.0,64.0
10011,69.0,0,90,7.0,64.0
10012,60.0,24,60,10.0,64.0
10013,60.0,120,60,10.0,64.0
10014,64.0,0,60,8.0,64.0
10015,60.0,120,60,10.0,64.0
10016,65.0,0,60,8.0,64.0
10017,74.0,72,240,7.0,64.0
10018,65.0,0,60,8.0,64.0
10019,60.0,48,60,10.0,64.0
10020,62.0,0,90,2.0,64.0
10021,76.0,72,120,7.0,64.0
10022,60.0,0,60,10.0,64.0
10023,74.0,0,90,1.0,64.0
10024,72.0,24,90,1.0,64.0
10025,67.0,24,60,8.0,64.0
10026,60.0,0,90,2.0,64.0
10027,69.0,0,60,8.0,64.0
10028,77.0,72,120,7.0,64.0
10029,60.0,48,60,10.0,64.0
10030,79.0,0,90,7.0,64.0
10031,62.0,96,90,2.0,64.0
10032,74.0,0,90,1.0,64.0
10033,58.0,24,60,10.0,64.0
10034,58.0,0,90,2.0,64.0
10035,70.0,0,90,1.0,64.0
10036,70.0,0,60,8.0,64.0
10037,58.0,0,60,10.0,64.0
10038,70.0,120,60,8.0,64.0
10039,62.0,0,90,2.0,64.0
10040,58.0,0,90,2.0,64.0
10041,70.0,96,90,1.0,64.0
10042,74.0,0,90,1.0,64.0
10043,79.0,0,90,7.0,64.0
10044,58.0,24,60,10.0,64.0
10045,72.0,0,60,8.0,64.0
10046,74.0,0,60,8.0,64.0
10047,58.0,96,60,10.0,64.0
10048,64.0,0,60,8.0,64.0
10049,72.0,48,240,7.0,64.0
10050,58.0,48,60,10.0,64.0
10051,58.0,72,60,10.0,64.0
10052,64.0,0,60,8.0,64.0
10053,74.0,48,120,7.0,64.0
10054,58.0,24,90,2.0,64.0
10055,72.0,0,90,1.0,64.0
10056,70.0,0,90,1.0,64.0
10057,58.0,48,60,10.0,64.0
10058,60.0,0,90,2.0,64.0
10059,65.0,0,60,8.0,64.0
10060,48.0,0,90,4.0,64.0
10061,60.0,0,90,4.0,64.0
10062,58.0,0,60,10.0,64.0
10063,67.0,72,60,8.0,64.0
10064,76.0,48,120,7.0,64.0
10065,69.0,48,60,8.0,64.0
10066,72.0,0,90,1.0,64.0
10067,60.0,0,90,4.0,64.0
10068,48.0,0,90,4.0,64.0
10069,69.0,0,90,1.0,64.0
10070,57.0,0,60,10.0,64.0
10071,77.0,48,240,7.0,64.0
10072,57.0,0,90,2.0,64.0
10073,60.0,72,90,2.0,64.0
10074,69.0,72,60,8.0,64.0
10075,57.0,0,60,10.0,64.0
10076,72.0,0,90,1.0,64.0
10077,70.0,0,60,8.0,64.0
10078,57.0,0,90,2.0,64.0
10079,60.0,0,90,2.0,64.0
10080,69.0,0,90,1.0,64.0
10081,55.0,48,60,10.0,64.0
10082,60.0,24,90,4.0,64.0
10083,48.0,0,90,4.0,64.0
10084,79.0,48,120,7.0,64.0
10085,81.0,48,120,7.0,64.0
10086,72.0,72,60,8.0,64.0
10087,53.0,0,60,10.0,64.0
10088,60.0,0,60,8.0,64.0
10089,48.0,48,60,10.0,64.0
10090,60.0,0,90,4.0,64.0
10091,82.0,0,90,7.0,64.0
10092,48.0,72,90,4.0,64.0
10093,67.0,120,60,8.0,64.0
10094,55.0,0,60,10.0,64.0
10095,60.0,0,90,4.0,64.0
10096,70.0,72,90,1.0,64.0
10097,65.0,0,60,8.0,64.0
10098,53.0,48,60,10.0,64.0
10099,69.0,0,90,1.0,64.0
10100,81.0,0,90,7.0,64.0
10101,58.0,0,90,2.0,64.0
10102,48.0,0,90,4.0,64.0
10103,57.0,0,90,2.0,64.0
10104,82.0,72,90,7.0,64.0
10105,52.0,0,60,10.0,64.0
10106,64.0,48,60,8.0,64.0
10107,50.0,48,60,10.0,64.0
10108,84.0,0,90,7.0,64.0
10109,60.0,0,90,4.0,64.0
10110,62.0,0,60,8.0,64.0
10111,70.0,0,90,1.0,64.0
10112,67.0,0,90,1.0,64.0
10113,58.0,0,90,2.0,64.0
10114,55.0,0,90,2.0,64.0
10115,48.0,72,90,4.0,64.0
10116,48.0,0,60,10.0,64.0
10117,60.0,120,60,8.0,64.0
10118,67.0,0,90,1.0,64.0
10119,70.0,0,90,1.0,64.0
10120,55.0,0,90,2.0,64.0
10121,62.0,48,60,8.0,64.0
10122,58.0,0,90,2.0,64.0
10123,50.0,0,60,10.0,64.0
10124,82.0,72,90,7.0,64.0
10125,52.0,120,60,10.0,64.0
10126,64.0,0,60,8.0,64.0
10127,65.0,0,60,8.0,64.0
10128,72.0,72,90,1.0,64.0
10129,48.0,0,90,4.0,64.0
10130,60.0,0,90,4.0,64.0
10131,81.0,6,450,7.0,64.0
10132,53.0,48,60,10.0,64.0
10133,72.0,0,60,8.0,64.0
10134,60.0,120,60,10.0,64.0
10135,70.0,0,60,8.0,64.0
10136,48.0,0,90,4.0,64.0
10137,71.0,0,90,1.0,64.0
10138,60.0,72,90,4.0,64.0
10139,58.0,48,60,10.0,64.0
10140,57.0,0,60,10.0,64.0
10141,72.0,72,90,1.0,64.0
10142,69.0,42,60,8.0,64.0
10143,74.0,0,90,1.0,64.0
10144,48.0,72,90,4.0,64.0
10145,60.0,0,90,4.0,64.0
10146,55.0,0,60,10.0,64.0
10147,67.0,48,60,8.0,64.0
10148,65.0,0,60,8.0,64.0
10149,53.0,120,60,10.0,64.0
10150,72.0,72,90,1.0,64.0
10151,64.0,0,60,8.0,64.0
10152,52.0,48,60,10.0,64.0
10153,65.0,0,60,8.0,64.0
10154,53.0,120,60,10.0,64.0
10155,60.0,0,90,4.0,64.0
10156,72.0,6,450,1.0,64.0
10157,67.0,0,90,2.0,64.0
10158,48.0,0,90,4.0,64.0
10159,82.0,72,90,7.0,64.0
10160,48.0,0,60,10.0,64.0
10161,60.0,48,60,8.0,64.0
10162,55.0,0,60,10.0,64.0
10163,67.0,120,60,8.0,64.0
10164,65.0,0,60,8.0,64.0
10165,65.0,0,90,2.0,64.0
10166,53.0,48,60,10.0,64.0
10167,60.0,72,90,4.0,64.0
10168,48.0,0,90,4.0,64.0
10169,81.0,0,90,7.0,64.0
10170,67.0,72,90,2.0,64.0
10171,82.0,0,90,7.0,64.0
10172,64.0,0,60,8.0,64.0
10173,52.0,42,60,10.0,64.0
10174,48.0,0,90,4.0,64.0
10175,50.0,48,60,10.0,64.0
10176,84.0,0,90,7.0,64.0
10177,62.0,0,60,8.0,64.0
10178,60.0,0,90,4.0,64.0
10179,69.0,72,90,2.0,64.0
10180,48.0,0,60,10.0,64.0
10181,60.0,120,60,8.0,64.0
10182,67.0,0,90,2.0,64.0
10183,50.0,48,60,10.0,64.0
10184,82.0,72,90,7.0,64.0
10185,62.0,0,60,8.0,64.0
10186,64.0,120,60,8.0,64.0
10187,52.0,0,60,10.0,64.0
10188,81.0,0,450,7.0,64.0
10189,53.0,48,60,10.0,64.0
10190,48.0,0,90,4.0,64.0
10191,60.0,72,90,4.0,64.0
10192,81.0,0,90,1.0,64.0
10193,65.0,0,60,8.0,64.0
10194,65.0,6,450,2.0,64.0
10195,72.0,120,60,8.0,64.0
10196,60.0,0,60,10.0,64.0
10197,60.0,0,90,4.0,64.0
10198,58.0,0,60,10.0,64.0
10199,79.0,0,90,1.0,64.0
10200,70.0,48,60,8.0,64.0
10201,48.0,72,90,4.0,64.0
10202,81.0,72,90,1.0,64.0
10203,69.0,42,60,8.0,64.0
10204,57.0,0,60,10.0,64.0
10205,55.0,0,60,10.0,64.0
10206,67.0,48,60,8.0,64.0
10207,82.0,0,90,1.0,64.0
10208,60.0,0,90,4.0,64.0
10209,48.0,72,90,4.0,64.0
10210,53.0,0,60,10.0,64.0
10211,65.0,120,60,8.0,64.0
10212,64.0,0,60,8.0,64.0
10213,52.0,48,60,10.0,64.0
10214,81.0,72,90,1.0,64.0
10215,53.0,120,60,10.0,64.0
10216,65.0,0,60,8.0,64.0
10217,89.0,0,90,0.0,64.0
10218,62.0,0,90,3.0,64.0
10219,50.0,0,60,11.0,64.0
10220,65.0,0,90,3.0,64.0
10221,62.0,0,60,10.0,64.0
10222,81.0,72,90,7.0,64.0
10223,65.0,0,60,8.0,64.0
10224,81.0,6,450,1.0,64.0
10225,38.0,48,60,12.0,64.0
10226,45.0,0,60,12.0,64.0
10227,57.0,120,60,11.0,64.0
10228,62.0,0,60,10.0,64.0
10229,65.0,0,60,8.0,64.0
10230,65.0,0,60,8.0,64.0
10231,62.0,0,60,10.0,64.0
10232,43.0,0,60,12.0,64.0
10233,62.0,72,90,3.0,64.0
10234,65.0,0,90,3.0,64.0
10235,55.0,48,60,11.0,64.0
10236,88.0,0,90,0.0,64.0
10237,79.0,0,90,7.0,64.0
10238,41.0,42,60,12.0,64.0
10239,65.0,0,60,8.0,64.0
10240,89.0,72,90,0.0,64.0
10241,53.0,0,60,11.0,64.0
10242,62.0,0,60,10.0,64.0
10243,81.0,0,90,7.0,64.0
10244,91.0,0,90,0.0,64.0
10245,65.0,0,60,8.0,64.0
10246,40.0,0,60,12.0,64.0
10247,62.0,48,60,10.0,64.0
10248,65.0,0,90,3.0,64.0
10249,62.0,0,90,3.0,64.0
10250,52.0,0,60,11.0,64.0
10251,82.0,72,90,7.0,64.0
10252,38.0,120,60,12.0,64.0
10253,50.0,0,60,11.0,64.0
10254,65.0,0,60,8.0,64.0
10255,62.0,0,60,10.0,64.0
10256,81.0,72,90,7.0,64.0
10257,65.0,0,60,8.0,64.0
10258,49.0,48,60,11.0,64.0
10259,89.0,0,90,0.0,64.0
10260,62.0,0,60,10.0,64.0
10261,37.0,0,60,12.0,64.0
10262,38.0,120,60,12.0,64.0
10263,62.0,0,60,10.0,64.0
10264,50.0,0,60,11.0,64.0
10265,65.0,0,60,8.0,64.0
10266,88.0,0,450,0.0,64.0
10267,64.0,0,90,3.0,64.0
10268,62.0,72,90,3.0,64.0
10269,33.0,0,90,12.0,64.0
10270,79.0,0,90,1.0,64.0
10271,62.0,0,60,10.0,64.0
10272,45.0,0,90,11.0,64.0
10273,64.0,48,60,8.0,64.0
10274,79.0,6,450,7.0,64.0
10275,62.0,0,60,10.0,64.0
10276,64.0,120,60,8.0,64.0
10277,64.0,0,90,3.0,64.0
10278,62.0,72,90,3.0,64.0
10279,62.0,0,60,10.0,64.0
10280,78.0,0,90,1.0,64.0
10281,45.0,0,90,12.0,64.0
10282,64.0,48,60,8.0,64.0
10283,57.0,0,90,11.0,64.0
10284,62.0,0,60,10.0,64.0
10285,79.0,72,90,1.0,64.0
10286,64.0,42,60,8.0,64.0
10287,64.0,0,90,3.0,64.0
10288,64.0,0,60,8.0,64.0
10289,62.0,48,60,10.0,64.0
10290,45.0,0,90,12.0,64.0
10291,81.0,0,90,1.0,64.0
10292,57.0,72,90,11.0,64.0
10293,62.0,0,90,3.0,64.0
10294,62.0,0,60,10.0,64.0
10295,64.0,120,60,8.0,64.0
10296,79.0,0,90,1.0,64.0
10297,64.0,48,60,8.0,64.0
10298,62.0,0,60,10.0,64.0
10299,45.0,0,90,11.0,64.0
10300,33.0,72,90,12.0,64.0
10301,62.0,0,60,10.0,64.0
10302,64.0,120,60,8.0,64.0
10303,61.0,0,60,10.0,64.0
10304,33.0,0,90,12.0,64.0
10305,79.0,6,450,1.0,64.0
10306,61.0,72,90,3.0,64.0
10307,64.0,0,90,3.0,64.0
10308,45.0,0,90,11.0,64.0
10309,79.0,0,90,7.0,64.0
10310,64.0,48,60,8.0,64.0
10311,64.0,0,60,8.0,64.0
10312,61.0,120,60,10.0,64.0
10313,61.0,0,90,3.0,64.0
10314,88.0,0,90,0.0,64.0
10315,57.0,72,90,11.0,64.0
10316,61.0,0,60,10.0,64.0
10317,45.0,0,90,12.0,64.0
10318,78.0,0,90,7.0,64.0
10319,64.0,0,90,3.0,64.0
10320,64.0,48,60,8.0,64.0
10321,61.0,0,60,10.0,64.0
10322,79.0,72,90,7.0,64.0
10323,64.0,42,60,8.0,64.0
10324,57.0,0,90,11.0,64.0
10325,45.0,72,90,12.0,64.0
10326,61.0,0,60,10.0,64.0
10327,61.0,0,90,3.0,64.0
10328,64.0,0,90,3.0,64.0
10329,89.0,0,90,0.0,64.0
10330,81.0,0,90,7.0,64.0
10331,64.0,48,60,8.0,64.0
10332,64.0,120,60,8.0,64.0
10333,61.0,0,60,10.0,64.0
10334,33.0,0,90,12.0,64.0
10335,79.0,0,90,7.0,64.0
10336,64.0,48,60,8.0,64.0
10337,45.0,72,90,11.0,64.0
10338,88.0,0,90,0.0,64.0
10339,61.0,0,60,10.0,64.0
10340,61.0,120,60,10.0,64.0
10341,64.0,0,60,8.0,64.0
10342,89.0,72,90,0.0,64.0
10343,65.0,0,90,3.0,64.0
10344,62.0,0,90,3.0,64.0
10345,45.0,0,90,11.0,64.0
10346,74.0,0,60,1.0,64.0
10347,33.0,0,90,12.0,64.0
10348,62.0,0,60,10.0,64.0
10349,65.0,48,60,8.0,64.0
10350,77.0,6,450,7.0,64.0
10351,81.0,0,60,1.0,64.0
10352,65.0,0,60,8.0,64.0
10353,62.0,120,60,10.0,64.0
10354,88.0,0,90,0.0,64.0
10355,57.0,0,90,11.0,64.0
10356,79.0,0,60,1.0,64.0
10357,65.0,48,60,8.0,64.0
10358,45.0,72,90,12.0,64.0
10359,62.0,0,90,3.0,64.0
10360,62.0,0,60,10.0,64.0
10361,65.0,0,90,3.0,64.0
10362,65.0,0,60,8.0,64.0
10363,77.0,0,60,1.0,64.0
10364,62.0,42,60,10.0,64.0
10365,89.0,72,90,0.0,64.0
10366,65.0,48,60,8.0,64.0
10367,45.0,72,90,12.0,64.0
10368,62.0,0,60,10.0,64.0
10369,91.0,0,90,0.0,64.0
10370,57.0,0,90,11.0,64.0
10371,65.0,0,90,3.0,64.0
10372,62.0,0,90,3.0,64.0
10373,76.0,0,60,1.0,64.0
10374,65.0,0,60,8.0,64.0
10375,74.0,0,60,1.0,64.0
10376,62.0,120,60,10.0,64.0
10377,45.0,0,90,11.0,64.0
10378,89.0,0,90,0.0,64.0
10379,65.0,0,60,8.0,64.0
10380,73.0,48,60,1.0,64.0
10381,62.0,0,60,10.0,64.0
10382,33.0,72,90,12.0,64.0
10383,74.0,0,60,1.0,64.0
10384,65.0,0,60,8.0,64.0
10385,62.0,120,60,10.0,64.0
10386,76.0,0,90,1.0,64.0
10387,64.0,0,90,3.0,64.0
10388,62.0,72,90,3.0,64.0
10389,62.0,48,60,10.0,64.0
10390,79.0,0,90,7.0,64.0
10391,64.0,0,60,8.0,64.0
10392,45.0,0,90,11.0,64.0
10393,33.0,0,90,12.0,64.0
10394,62.0,120,60,10.0,64.0
10395,64.0,0,60,8.0,64.0
10396,64.0,0,60,8.0,64.0
10397,64.0,0,90,3.0,64.0
10398,62.0,0,90,3.0,64.0
10399,57.0,72,90,11.0,64.0
10400,45.0,0,90,12.0,64.0
10401,76.0,0,90,1.0,64.0
10402,88.0,0,90,0.0,64.0
10403,62.0,48,60,10.0,64.0
10404,78.0,0,90,7.0,64.0
10405,62.0,48,60,10.0,64.0
10406,79.0,72,90,7.0,64.0
10407,64.0,0,60,8.0,64.0
10408,81.0,0,90,7.0,64.0
10409,64.0,48,60,8.0,64.0
10410,89.0,0,90,0.0,64.0
10411,77.0,0,90,1.0,64.0
10412,61.0,72,90,3.0,64.0
10413,45.0,0,90,12.0,64.0
10414,57.0,0,90,11.0,64.0
10415,64.0,0,90,3.0,64.0
10416,61.0,0,60,10.0,64.0
10417,61.0,120,60,10.0,64.0
10418,64.0,0,60,8.0,64.0
10419,61.0,48,60,10.0,64.0
10420,76.0,0,90,1.0,64.0
10421,79.0,0,90,7.0,64.0
10422,33.0,0,90,12.0,64.0
10423,45.0,0,90,11.0,64.0
10424,88.0,72,90,0.0,64.0
10425,64.0,0,60,8.0,64.0
10426,64.0,120,60,8.0,64.0
10427,61.0,0,60,10.0,64.0
10428,62.0,0,60,10.0,64.0
10429,38.0,0,60,12.0,64.0
10430,89.0,72,90,0.0,64.0
10431,77.0,6,450,7.0,64.0
10432,50.0,0,60,11.0,64.0
10433,65.0,0,60,8.0,64.0
10434,57.0,48,60,8.0,64.0
10435,65.0,0,60,8.0,64.0
10436,57.0,0,60,8.0,64.0
10437,57.0,0,60,11.0,64.0
10438,62.0,0,60,10.0,64.0
10439,45.0,120,60,12.0,64.0
10440,57.0,0,60,8.0,64.0
10441,43.0,48,60,12.0,64.0
10442,62.0,0,60,10.0,64.0
10443,55.0,0,60,11.0,64.0
10444,88.0,72,90,0.0,64.0
10445,65.0,0,60,8.0,64.0
10446,41.0,0,60,12.0,64.0
10447,53.0,0,60,11.0,64.0
10448,62.0,0,60,10.0,64.0
10449,89.0,72,90,0.0,64.0
10450,65.0,42,60,8.0,64.0
10451,57.0,0,60,8.0,64.0
10452,65.0,0,60,8.0,64.0
10453,91.0,72,90,0.0,64.0
10454,40.0,0,60,12.0,64.0
10455,52.0,0,60,11.0,64.0
10456,57.0,48,60,8.0,64.0
10457,62.0,0,60,10.0,64.0
10458,62.0,0,60,10.0,64.0
10459,50.0,0,60,11.0,64.0
10460,57.0,120,60,8.0,64.0
10461,65.0,0,60,8.0,64.0
10462,38.0,0,60,12.0,64.0
10463,62.0,0,60,10.0,64.0
10464,49.0,0,60,11.0,64.0
10465,89.0,72,90,0.0,64.0
10466,37.0,0,60,12.0,64.0
10467,57.0,0,60,8.0,64.0
10468,65.0,48,60,8.0,64.0
10469,38.0,0,60,12.0,64.0
10470,55.0,120,60,8.0,64.0
10471,50.0,0,60,11.0,64.0
10472,65.0,0,60,8.0,64.0
10473,62.0,0,60,10.0,64.0
10474,62.0,0,60,10.0,64.0
10475,55.0,0,60,8.0,64.0
10476,65.0,0,60,8.0,64.0
10477,77.0,48,60,7.0,64.0
10478,77.0,72,90,1.0,64.0
10479,31.0,0,450,12.0,64.0
10480,43.0,6,450,11.0,64.0
10481,89.0,0,450,0.0,64.0
10482,86.0,120,60,7.0,64.0
10483,55.0,0,60,8.0,64.0
10484,65.0,0,60,8.0,64.0
10485,62.0,0,60,10.0,64.0
10486,62.0,0,60,10.0,64.0
10487,55.0,48,60,8.0,64.0
10488,65.0,0,60,8.0,64.0
10489,84.0,0,60,7.0,64.0
10490,76.0,72,90,1.0,64.0
10491,77.0,72,90,1.0,64.0
10492,83.0,0,60,7.0,64.0
10493,55.0,42,60,8.0,64.0
10494,65.0,0,60,8.0,64.0
10495,62.0,0,60,10.0,64.0
10496,81.0,48,60,7.0,64.0
10497,62.0,0,60,10.0,64.0
10498,55.0,0,60,8.0,64.0
10499,65.0,0,60,8.0,64.0
10500,79.0,72,90,1.0,64.0
10501,55.0,120,60,8.0,64.0
10502,62.0,0,60,10.0,64.0
10503,65.0,0,60,8.0,64.0
10504,79.0,0,60,7.0,64.0
10505,81.0,0,60,7.0,64.0
10506,77.0,72,90,1.0,64.0
10507,65.0,0,60,8.0,64.0
10508,55.0,0,60,8.0,64.0
10509,62.0,48,60,10.0,64.0
10510,55.0,0,60,8.0,64.0
10511,65.0,0,60,8.0,64.0
10512,83.0,120,60,7.0,64.0
10513,62.0,0,60,10.0,64.0
10514,64.0,0,60,8.0,64.0
10515,60.0,0,60,10.0,64.0
10516,84.0,6,450,7.0,64.0
10517,55.0,48,60,8.0,64.0
10518,84.0,72,90,0.0,64.0
10519,76.0,0,450,1.0,64.0
10520,36.0,0,60,12.0,64.0
10521,48.0,0,60,11.0,64.0
10522,43.0,0,60,12.0,64.0
10523,55.0,0,60,8.0,64.0
10524,64.0,0,60,8.0,64.0
10525,60.0,120,60,10.0,64.0
10526,55.0,0,60,11.0,64.0
10527,53.0,0,60,11.0,64.0
10528,64.0,0,60,8.0,64.0
10529,83.0,72,90,0.0,64.0
10530,41.0,0,60,12.0,64.0
10531,60.0,0,60,10.0,64.0
10532,55.0,48,60,8.0,64.0
10533,52.0,0,60,11.0,64.0
10534,60.0,0,60,10.0,64.0
10535,84.0,72,90,0.0,64.0
10536,40.0,0,60,12.0,64.0
10537,55.0,0,60,8.0,64.0
10538,64.0,42,60,8.0,64.0
10539,86.0,72,90,0.0,64.0
10540,55.0,0,60,8.0,64.0
10541,50.0,0,60,11.0,64.0
10542,64.0,0,60,8.0,64.0
10543,60.0,0,60,10.0,64.0
10544,38.0,48,60,12.0,64.0
10545,36.0,0,60,12.0,64.0
10546,64.0,0,60,8.0,64.0
10547,48.0,120,60,11.0,64.0
10548,60.0,0,60,10.0,64.0
10549,55.0,0,60,8.0,64.0
10550,55.0,0,60,8.0,64.0
10551,64.0,0,60,8.0,64.0
10552,84.0,72,90,0.0,64.0
10553,60.0,48,60,10.0,64.0
10554,47.0,0,60,11.0,64.0
10555,35.0,0,60,12.0,64.0
10556,48.0,120,60,11.0,64.0
10557,60.0,0,60,10.0,64.0
10558,64.0,0,60,8.0,64.0
10559,36.0,0,60,12.0,64.0
10560,55.0,0,60,8.0,64.0
10561,31.0,6,450,12.0,64.0
10562,43.0,0,450,11.0,64.0
10563,62.0,0,60,10.0,64.0
10564,55.0,0,60,8.0,64.0
10565,65.0,48,60,8.0,64.0
10566,83.0,0,450,0.0,64.0
10567,77.0,72,90,1.0,64.0
10568,86.0,0,60,7.0,64.0
10569,62.0,120,60,10.0,64.0
10570,65.0,0,60,8.0,64.0
10571,86.0,0,60,7.0,64.0
10572,55.0,0,60,8.0,64.0
10573,55.0,0,60,8.0,64.0
10574,65.0,0,60,8.0,64.0
10575,76.0,72,90,1.0,64.0
10576,62.0,48,60,10.0,64.0
10577,84.0,0,60,7.0,64.0
10578,77.0,72,90,1.0,64.0
10579,62.0,0,60,10.0,64.0
10580,83.0,42,60,7.0,64.0
10581,65.0,0,60,8.0,64.0
10582,55.0,0,60,8.0,64.0
10583,62.0,48,60,10.0,64.0
10584,79.0,72,90,1.0,64.0
10585,55.0,0,60,8.0,64.0
10586,81.0,0,60,7.0,64.0
10587,65.0,0,60,8.0,64.0
10588,79.0,0,60,7.0,64.0
10589,55.0,0,60,8.0,64.0
10590,65.0,0,60,8.0,64.0
10591,62.0,120,60,10.0,64.0
10592,55.0,0,60,8.0,64.0
10593,65.0,0,60,8.0,64.0
10594,84.0,72,90,0.0,64.0
10595,77.0,0,90,1.0,64.0
10596,62.0,48,60,10.0,64.0
10597,81.0,0,60,7.0,64.0
10598,55.0,0,60,8.0,64.0
10599,65.0,0,60,8.0,64.0
10600,86.0,120,90,0.0,64.0
10601,83.0,48,60,7.0,64.0
10602,62.0,0,60,10.0,64.0
10603,48.0,72,390,11.0,64.0
10604,88.0,0,90,0.0,64.0
10605,36.0,0,390,12.0,64.0
10606,76.0,0,90,1.0,64.0
10607,84.0,0,90,7.0,64.0
10608,60.0,0,90,10.0,64.0
10609,55.0,0,90,8.0,64.0
10610,64.0,120,90,8.0,64.0
10611,72.0,0,90,8.0,64.0
10612,67.0,120,90,10.0,64.0
10613,76.0,0,90,7.0,64.0
10614,86.0,0,90,0.0,64.0
10615,72.0,0,90,8.0,64.0
10616,74.0,0,90,1.0,64.0
10617,76.0,0,90,7.0,64.0
10618,67.0,48,90,10.0,64.0
10619,76.0,120,90,7.0,64.0
10620,88.0,0,90,0.0,64.0
10621,72.0,0,90,8.0,64.0
10622,67.0,0,90,10.0,64.0
10623,76.0,0,90,1.0,64.0
10624,60.0,72,390,11.0,64.0
10625,72.0,120,90,8.0,64.0
10626,67.0,0,90,10.0,64.0
10627,77.0,0,90,1.0,64.0
10628,48.0,0,390,12.0,64.0
10629,76.0,0,90,7.0,64.0
10630,89.0,0,90,0.0,64.0
10631,67.0,0,90,10.0,64.0
10632,72.0,0,90,8.0,64.0
10633,76.0,120,90,7.0,64.0
10634,72.0,0,90,8.0,64.0
10635,76.0,0,90,7.0,64.0
10636,76.0,0,90,1.0,64.0
10637,88.0,0,90,0.0,64.0
10638,67.0,48,90,10.0,64.0
10639,72.0,0,90,8.0,64.0
10640,67.0,120,90,10.0,64.0
10641,76.0,0,90,7.0,64.0
10642,76.0,0,90,1.0,64.0
10643,88.0,0,90,0.0,64.0
10644,72.0,0,90,2.0,64.0
10645,72.0,120,90,8.0,64.0
10646,76.0,0,90,7.0,64.0
10647,65.0,0,90,10.0,64.0
10648,65.0,0,90,10.0,64.0
10649,72.0,120,90,8.0,64.0
10650,76.0,0,90,7.0,64.0
10651,65.0,0,90,10.0,64.0
10652,76.0,0,90,7.0,64.0
10653,71.0,0,90,2.0,64.0
10654,74.0,120,90,1.0,64.0
10655,72.0,0,90,8.0,64.0
10656,86.0,0,90,0.0,64.0
10657,76.0,0,90,1.0,64.0
10658,65.0,120,90,10.0,64.0
10659,88.0,0,90,0.0,64.0
10660,72.0,0,90,2.0,64.0
10661,72.0,0,90,8.0,64.0
10662,76.0,0,90,7.0,64.0
10663,76.0,0,90,7.0,64.0
10664,74.0,0,90,2.0,64.0
10665,72.0,96,90,8.0,64.0
10666,77.0,0,90,1.0,64.0
10667,45.0,24,180,12.0,64.0
10668,65.0,0,90,10.0,64.0
10669,89.0,0,90,0.0,64.0
10670,57.0,0,180,11.0,64.0
10671,72.0,0,90,8.0,64.0
10672,65.0,120,90,10.0,64.0
10673,76.0,0,90,7.0,64.0
10674,72.0,0,90,2.0,64.0
10675,65.0,120,90,10.0,64.0
10676,72.0,0,90,8.0,64.0
10677,76.0,0,90,7.0,64.0
10678,88.0,0,90,0.0,64.0
10679,76.0,0,90,1.0,64.0
10680,76.0,0,90,7.0,64.0
10681,72.0,120,90,8.0,64.0
10682,65.0,0,90,10.0,64.0
10683,74.0,0,90,7.0,64.0
10684,71.0,0,90,2.0,64.0
10685,45.0,24,180,12.0,64.0
10686,71.0,0,90,8.0,64.0
10687,65.0,0,90,10.0,64.0
10688,74.0,0,90,1.0,64.0
10689,57.0,0,180,11.0,64.0
10690,86.0,96,90,0.0,64.0
10691,65.0,0,90,10.0,64.0
10692,74.0,120,90,7.0,64.0
10693,71.0,0,90,8.0,64.0
10694,65.0,0,90,10.0,64.0
10695,84.0,0,90,0.0,64.0
10696,71.0,0,90,8.0,64.0
10697,74.0,0,90,7.0,64.0
10698,72.0,120,90,1.0,64.0
10699,69.0,0,90,2.0,64.0
10700,71.0,0,90,8.0,64.0
10701,86.0,0,90,0.0,64.0
10702,74.0,0,90,1.0,64.0
10703,74.0,0,90,7.0,64.0
10704,71.0,0,90,2.0,64.0
10705,65.0,120,90,10.0,64.0
10706,71.0,96,90,8.0,64.0
10707,88.0,0,90,0.0,64.0
10708,44.0,0,180,12.0,64.0
10709,72.0,0,90,2.0,64.0
10710,56.0,24,180,11.0,64.0
10711,64.0,0,90,10.0,64.0
10712,74.0,0,90,7.0,64.0
10713,76.0,0,90,1.0,64.0
10714,71.0,120,90,8.0,64.0
10715,74.0,0,90,7.0,64.0
10716,64.0,0,90,10.0,64.0
10717,74.0,0,90,7.0,64.0
10718,86.0,0,90,0.0,64.0
10719,64.0,0,90,10.0,64.0
10720,71.0,0,90,8.0,64.0
10721,74.0,0,90,1.0,64.0
10722,71.0,120,90,2.0,64.0
10723,64.0,0,90,10.0,64.0
10724,71.0,120,90,8.0,64.0
10725,74.0,0,90,7.0,64.0
10726,69.0,0,90,2.0,64.0
10727,69.0,0,90,8.0,64.0
10728,72.0,0,90,1.0,64.0
10729,72.0,0,90,7.0,64.0
10730,57.0,0,180,11.0,64.0
10731,64.0,96,90,10.0,64.0
10732,84.0,0,90,0.0,64.0
10733,45.0,24,180,12.0,64.0
10734,64.0,0,90,10.0,64.0
10735,72.0,0,90,7.0,64.0
10736,69.0,120,90,8.0,64.0
10737,83.0,0,90,0.0,64.0
10738,72.0,120,90,7.0,64.0
10739,71.0,0,90,1.0,64.0
10740,64.0,0,90,10.0,64.0
10741,69.0,0,90,8.0,64.0
10742,68.0,0,90,2.0,64.0
10743,72.0,0,90,1.0,64.0
10744,69.0,0,90,8.0,64.0
10745,69.0,0,90,2.0,64.0
10746,64.0,0,90,10.0,64.0
10747,84.0,0,90,0.0,64.0
10748,72.0,120,90,7.0,64.0
10749,64.0,0,90,10.0,64.0
10750,33.0,24,180,12.0,64.0
10751,45.0,0,180,11.0,64.0
10752,74.0,96,90,1.0,64.0
10753,72.0,0,90,7.0,64.0
10754,69.0,0,90,8.0,64.0
10755,71.0,0,90,2.0,64.0
10756,86.0,0,90,0.0,64.0
10757,72.0,0,90,7.0,64.0
10758,64.0,0,90,10.0,64.0
10759,69.0,120,90,8.0,64.0
10760,69.0,120,90,8.0,64.0
10761,72.0,0,90,7.0,64.0
10762,84.0,0,90,0.0,64.0
10763,64.0,0,90,10.0,64.0
10764,69.0,0,90,2.0,64.0
10765,72.0,0,90,1.0,64.0
10766,69.0,408,90,8.0,64.0
10767,64.0,0,90,10.0,64.0
10768,72.0,0,90,7.0,64.0
10769,68.0,0,390,2.0,64.0
10770,64.0,72,780,3.0,64.0
10771,64.0,24,840,11.0,64.0
10772,64.0,0,5370,4.0,64.0
10773,83.0,0,390,0.0,64.0
10774,40.0,0,5760,12.0,64.0
10775,64.0,0,390,10.0,64.0
10776,68.0,0,390,8.0,64.0
10777,71.0,384,390,7.0,64.0
10778,52.0,0,5370,4.0,64.0
10779,71.0,0,390,1.0,64.0
10780,76.0,288,390,0.0,64.0
10781,64.0,0,390,2.0,64.0
10782,64.0,0,390,1.0,64.0
10783,69.0,96,1200,10.0,64.0
10784,61.0,144,180,11.0,64.0
10785,61.0,0,180,3.0,64.0
10786,62.0,120,90,11.0,64.0
10787,62.0,0,90,3.0,64.0
10788,64.0,120,90,3.0,64.0
10789,64.0,0,90,11.0,64.0
10790,66.0,0,90,11.0,64.0
10791,66.0,240,90,3.0,64.0
10792,66.0,0,90,3.0,64.0
10793,66.0,384,90,11.0,64.0
10794,59.0,0,960,3.0,64.0
10795,59.0,192,960,11.0,64.0
10796,74.0,0,960,8.0,64.0
10797,68.0,120,90,10.0,64.0
10798,66.0,120,90,10.0,64.0
10799,64.0,240,90,10.0,64.0
10800,64.0,144,90,10.0,64.0
10801,64.0,0,960,3.0,64.0
10802,71.0,144,180,8.0,64.0
10803,76.0,96,1920,7.0,64.0
10804,64.0,96,960,11.0,64.0
10805,68.0,48,780,10.0,64.0
10806,73.0,120,90,8.0,64.0
10807,74.0,120,90,8.0,64.0
10808,76.0,192,90,8.0,64.0
10809,71.0,144,90,8.0,64.0
10810,52.0,0,1920,11.0,64.0
10811,69.0,120,90,10.0,64.0
10812,72.0,0,90,8.0,64.0
10813,72.0,120,90,8.0,64.0
10814,69.0,0,90,10.0,64.0
10815,69.0,120,90,10.0,64.0
10816,72.0,0,90,8.0,64.0
10817,69.0,0,90,10.0,64.0
10818,72.0,120,90,8.0,64.0
10819,69.0,120,90,10.0,64.0
10820,72.0,0,90,8.0,64.0
10821,72.0,0,90,8.0,64.0
10822,69.0,120,90,10.0,64.0
10823,72.0,120,90,8.0,64.0
10824,69.0,0,90,10.0,64.0
10825,69.0,24,90,10.0,64.0
10826,72.0,0,90,8.0,64.0
10827,81.0,96,960,0.0,64.0
10828,69.0,120,90,10.0,64.0
10829,72.0,0,90,8.0,64.0
10830,72.0,96,240,7.0,64.0
10831,72.0,24,90,8.0,64.0
10832,69.0,0,90,10.0,64.0
10833,69.0,24,90,10.0,64.0
10834,74.0,96,120,7.0,64.0
10835,72.0,0,90,8.0,64.0
10836,72.0,24,90,8.0,64.0
10837,76.0,96,120,7.0,64.0
10838,69.0,0,90,10.0,64.0
10839,69.0,120,90,10.0,64.0
10840,72.0,0,90,8.0,64.0
10841,77.0,0,90,7.0,64.0
10842,72.0,0,90,8.0,64.0
10843,69.0,120,90,10.0,64.0
10844,69.0,0,90,10.0,64.0
10845,77.0,0,90,7.0,64.0
10846,72.0,120,90,8.0,64.0
10847,69.0,0,90,10.0,64.0
10848,72.0,24,90,8.0,64.0
10849,71.0,0,90,8.0,64.0
10850,69.0,120,90,10.0,64.0
10851,64.0,0,1530,11.0,64.0
10852,74.0,96,960,7.0,64.0
10853,52.0,120,1530,12.0,64.0
10854,64.0,0,1530,4.0,64.0
10855,52.0,0,1530,4.0,64.0
10856,86.0,96,240,0.0,64.0
10857,71.0,0,90,8.0,64.0
10858,69.0,24,90,10.0,64.0
10859,71.0,0,90,8.0,64.0
10860,84.0,96,120,0.0,64.0
10861,69.0,24,90,10.0,64.0
10862,69.0,0,90,10.0,64.0
10863,71.0,24,90,8.0,64.0
10864,69.0,0,90,10.0,64.0
10865,83.0,96,15,0.0,64.0
10866,71.0,0,90,8.0,64.0
10867,71.0,0,90,8.0,64.0
10868,69.0,120,90,10.0,64.0
10869,71.0,0,90,8.0,64.0
10870,69.0,0,90,10.0,64.0
10871,83.0,120,90,0.0,64.0
10872,69.0,0,90,10.0,64.0
10873,71.0,24,90,8.0,64.0
10874,64.0,96,1920,3.0,64.0
10875,83.0,0,480,0.0,64.0
10876,68.0,0,90,10.0,64.0
10877,71.0,96,240,7.0,64.0
10878,71.0,120,90,8.0,64.0
10879,68.0,24,90,10.0,64.0
10880,71.0,0,90,8.0,64.0
10881,68.0,24,90,10.0,64.0
10882,71.0,0,90,8.0,64.0
10883,72.0,96,120,7.0,64.0
10884,74.0,96,120,7.0,64.0
10885,71.0,24,90,8.0,64.0
10886,68.0,0,90,10.0,64.0
10887,71.0,0,90,8.0,64.0
10888,76.0,0,90,7.0,64.0
10889,68.0,0,90,10.0,64.0
10890,68.0,120,90,10.0,64.0
10891,71.0,0,90,8.0,64.0
10892,76.0,0,90,7.0,64.0
10893,71.0,0,90,8.0,64.0
10894,68.0,120,90,10.0,64.0
10895,71.0,0,90,8.0,64.0
10896,68.0,120,90,10.0,64.0
10897,64.0,0,90,8.0,64.0
10898,52.0,0,1530,4.0,64.0
10899,64.0,120,1530,4.0,64.0
10900,88.0,96,240,0.0,64.0
10901,72.0,0,90,8.0,64.0
10902,76.0,96,1200,7.0,64.0
10903,60.0,0,1530,11.0,64.0
10904,48.0,0,1530,12.0,64.0
10905,69.0,120,90,10.0,64.0
10906,69.0,24,90,10.0,64.0
10907,64.0,0,90,8.0,64.0
10908,72.0,0,90,8.0,64.0
10909,64.0,0,90,8.0,64.0
10910,72.0,24,90,8.0,64.0
10911,84.0,96,120,0.0,64.0
10912,69.0,0,90,10.0,64.0
10913,69.0,24,90,10.0,64.0
10914,64.0,0,90,8.0,64.0
10915,83.0,96,120,0.0,64.0
10916,72.0,0,90,8.0,64.0
10917,72.0,0,90,8.0,64.0
10918,64.0,0,90,8.0,64.0
10919,81.0,120,90,0.0,64.0
10920,69.0,0,90,10.0,64.0
10921,64.0,120,90,8.0,64.0
10922,72.0,0,90,8.0,64.0
10923,69.0,0,90,10.0,64.0
10924,81.0,0,90,0.0,64.0
10925,69.0,0,90,10.0,64.0
10926,64.0,0,90,8.0,64.0
10927,72.0,120,90,8.0,64.0
10928,64.0,0,90,8.0,64.0
10929,69.0,0,90,10.0,64.0
10930,72.0,24,90,8.0,64.0
10931,69.0,120,90,10.0,64.0
10932,60.0,96,960,3.0,64.0
10933,64.0,0,90,8.0,64.0
10934,69.0,96,1920,2.0,64.0
10935,72.0,0,90,8.0,64.0
10936,81.0,0,480,0.0,64.0
10937,72.0,0,90,8.0,64.0
10938,64.0,0,90,8.0,64.0
10939,69.0,24,90,10.0,64.0
10940,69.0,0,90,10.0,64.0
10941,78.0,96,120,7.0,64.0
10942,72.0,24,90,8.0,64.0
10943,64.0,0,90,8.0,64.0
10944,69.0,0,90,10.0,64.0
10945,72.0,0,90,8.0,64.0
10946,64.0,0,90,8.0,64.0
10947,79.0,96,120,7.0,64.0
10948,72.0,0,90,8.0,64.0
10949,81.0,0,90,7.0,64.0
10950,69.0,0,90,10.0,64.0
10951,64.0,0,90,8.0,64.0
10952,69.0,0,90,10.0,64.0
10953,72.0,120,90,8.0,64.0
10954,64.0,0,90,8.0,64.0
10955,64.0,0,90,8.0,64.0
10956,72.0,0,90,8.0,64.0
10957,69.0,120,90,10.0,64.0
10958,81.0,0,90,7.0,64.0
10959,69.0,0,90,10.0,64.0
10960,72.0,24,90,8.0,64.0
10961,64.0,0,90,8.0,64.0
10962,81.0,96,240,1.0,64.0
10963,66.0,0,1530,11.0,64.0
10964,81.0,0,480,7.0,64.0
10965,69.0,120,90,10.0,64.0
10966,72.0,0,90,8.0,64.0
10967,66.0,0,90,8.0,64.0
10968,54.0,120,1530,12.0,64.0
10969,69.0,24,90,10.0,64.0
10970,72.0,0,90,8.0,64.0
10971,66.0,0,90,8.0,64.0
10972,66.0,0,90,8.0,64.0
10973,78.0,96,120,1.0,64.0
10974,72.0,0,90,8.0,64.0
10975,69.0,24,90,10.0,64.0
10976,76.0,96,120,1.0,64.0
10977,72.0,24,90,8.0,64.0
10978,66.0,0,90,8.0,64.0
10979,69.0,0,90,10.0,64.0
10980,72.0,0,90,8.0,64.0
10981,66.0,0,90,8.0,64.0
10982,74.0,0,90,1.0,64.0
10983,69.0,120,90,10.0,64.0
10984,66.0,0,90,8.0,64.0
10985,72.0,0,90,8.0,64.0
10986,69.0,120,90,10.0,64.0
10987,74.0,0,90,1.0,64.0
10988,69.0,0,90,10.0,64.0
10989,66.0,120,90,8.0,64.0
10990,72.0,0,90,8.0,64.0
10991,72.0,24,90,8.0,64.0
10992,66.0,0,90,8.0,64.0
10993,69.0,0,90,10.0,64.0
10994,74.0,96,480,1.0,64.0
10995,81.0,96,240,7.0,64.0
10996,74.0,120,90,8.0,64.0
10997,66.0,0,90,8.0,64.0
10998,66.0,96,1920,3.0,64.0
10999,69.0,0,90,10.0,64.0
11000,66.0,96,960,2.0,64.0
11001,69.0,24,90,10.0,64.0
11002,66.0,0,90,8.0,64.0
11003,74.0,0,90,8.0,64.0
11004,66.0,0,90,8.0,64.0
11005,69.0,0,90,10.0,64.0
11006,74.0,24,90,8.0,64.0
11007,78.0,96,120,7.0,64.0
11008,69.0,24,90,10.0,64.0
11009,74.0,0,90,8.0,64.0
11010,76.0,0,120,7.0,64.0
11011,66.0,0,90,8.0,64.0
11012,69.0,0,90,10.0,64.0
11013,74.0,0,90,7.0,64.0
11014,66.0,0,90,8.0,64.0
11015,74.0,0,90,8.0,64.0
11016,66.0,120,90,8.0,64.0
11017,74.0,0,90,8.0,64.0
11018,69.0,0,90,10.0,64.0
11019,69.0,0,90,10.0,64.0
11020,66.0,0,90,8.0,64.0
11021,74.0,120,90,8.0,64.0
11022,74.0,0,90,7.0,64.0
11023,69.0,24,90,10.0,64.0
11024,74.0,0,90,8.0,64.0
11025,66.0,0,90,8.0,64.0
11026,62.0,0,1920,4.0,64.0
11027,74.0,0,90,8.0,64.0
11028,50.0,0,1530,12.0,64.0
11029,69.0,0,240,1.0,64.0
11030,62.0,120,1530,11.0,64.0
11031,86.0,96,240,0.0,64.0
11032,74.0,0,480,7.0,64.0
11033,69.0,120,90,10.0,64.0
11034,66.0,0,90,8.0,64.0
11035,74.0,0,90,8.0,64.0
11036,69.0,24,90,10.0,64.0
11037,66.0,0,90,8.0,64.0
11038,74.0,0,90,8.0,64.0
11039,66.0,24,90,8.0,64.0
11040,84.0,96,120,0.0,64.0
11041,69.0,0,90,10.0,64.0
11042,71.0,0,120,1.0,64.0
11043,69.0,0,90,10.0,64.0
11044,66.0,0,90,8.0,64.0
11045,72.0,96,120,1.0,64.0
11046,74.0,24,90,8.0,64.0
11047,83.0,0,120,0.0,64.0
11048,81.0,0,90,0.0,64.0
11049,74.0,0,90,8.0,64.0
11050,74.0,120,90,1.0,64.0
11051,66.0,0,90,8.0,64.0
11052,69.0,0,90,10.0,64.0
11053,74.0,0,90,8.0,64.0
11054,69.0,0,90,10.0,64.0
11055,66.0,120,90,8.0,64.0
11056,81.0,0,90,0.0,64.0
11057,69.0,0,90,10.0,64.0
11058,66.0,0,90,8.0,64.0
11059,74.0,0,90,8.0,64.0
11060,74.0,120,90,1.0,64.0
11061,69.0,24,90,10.0,64.0
11062,74.0,0,90,8.0,64.0
11063,66.0,0,90,8.0,64.0
11064,83.0,0,480,0.0,64.0
11065,62.0,96,960,3.0,64.0
11066,67.0,0,90,8.0,64.0
11067,74.0,120,90,8.0,64.0
11068,74.0,96,480,1.0,64.0
11069,86.0,96,240,7.0,64.0
11070,71.0,96,1920,2.0,64.0
11071,69.0,0,90,10.0,64.0
11072,67.0,0,90,8.0,64.0
11073,69.0,24,90,10.0,64.0
11074,74.0,0,90,8.0,64.0
11075,67.0,0,90,8.0,64.0
11076,74.0,0,90,8.0,64.0
11077,69.0,24,90,10.0,64.0
11078,83.0,96,120,7.0,64.0
11079,81.0,0,120,7.0,64.0
11080,74.0,0,90,8.0,64.0
11081,67.0,0,90,8.0,64.0
11082,69.0,24,90,10.0,64.0
11083,79.0,0,90,7.0,64.0
11084,69.0,0,90,10.0,64.0
11085,74.0,0,90,8.0,64.0
11086,67.0,0,90,8.0,64.0
11087,67.0,0,90,8.0,64.0
11088,74.0,120,90,8.0,64.0
11089,69.0,0,90,10.0,64.0
11090,69.0,120,90,10.0,64.0
11091,74.0,0,90,8.0,64.0
11092,67.0,0,90,8.0,64.0
11093,79.0,0,90,7.0,64.0
11094,69.0,24,90,10.0,64.0
11095,67.0,0,90,8.0,64.0
11096,74.0,0,90,8.0,64.0
11097,67.0,0,1530,11.0,64.0
11098,74.0,0,90,8.0,64.0
11099,67.0,0,90,8.0,64.0
11100,67.0,120,1530,4.0,64.0
11101,55.0,0,1530,12.0,64.0
11102,55.0,0,1530,4.0,64.0
11103,71.0,120,90,10.0,64.0
11104,74.0,96,240,1.0,64.0
11105,79.0,0,480,7.0,64.0
11106,74.0,0,90,8.0,64.0
11107,67.0,0,90,8.0,64.0
11108,71.0,24,90,10.0,64.0
11109,67.0,0,90,8.0,64.0
11110,74.0,0,90,8.0,64.0
11111,71.0,24,90,10.0,64.0
11112,76.0,96,120,1.0,64.0
11113,71.0,0,90,10.0,64.0
11114,67.0,24,90,8.0,64.0
11115,74.0,0,90,8.0,64.0
11116,78.0,96,120,1.0,64.0
11117,79.0,120,90,1.0,64.0
11118,74.0,0,90,8.0,64.0
11119,71.0,0,90,10.0,64.0
11120,67.0,0,90,8.0,64.0
11121,74.0,0,90,8.0,64.0
11122,67.0,0,90,8.0,64.0
11123,71.0,120,90,10.0,64.0
11124,79.0,0,90,1.0,64.0
11125,71.0,0,90,10.0,64.0
11126,74.0,120,90,8.0,64.0
11127,67.0,0,90,8.0,64.0
11128,71.0,0,90,10.0,64.0
11129,74.0,24,90,8.0,64.0
11130,67.0,0,90,8.0,64.0
11131,74.0,0,90,8.0,64.0
11132,67.0,0,90,8.0,64.0
11133,67.0,96,1920,3.0,64.0
11134,67.0,96,960,2.0,64.0
11135,79.0,96,480,1.0,64.0
11136,74.0,96,240,7.0,64.0
11137,71.0,120,90,10.0,64.0
11138,74.0,0,90,8.0,64.0
11139,67.0,0,90,8.0,64.0
11140,71.0,24,90,10.0,64.0
11141,74.0,0,90,8.0,64.0
11142,67.0,0,90,8.0,64.0
11143,71.0,24,90,10.0,64.0
11144,76.0,96,120,7.0,64.0
11145,74.0,0,90,8.0,64.0
11146,67.0,0,90,8.0,64.0
11147,78.0,0,120,7.0,64.0
11148,71.0,24,90,10.0,64.0
11149,67.0,0,90,8.0,64.0
11150,74.0,0,90,8.0,64.0
11151,71.0,0,90,10.0,64.0
11152,79.0,0,90,7.0,64.0
11153,67.0,0,90,8.0,64.0
11154,71.0,120,90,10.0,64.0
11155,74.0,0,90,8.0,64.0
11156,71.0,0,90,10.0,64.0
11157,79.0,0,90,7.0,64.0
11158,67.0,120,90,8.0,64.0
11159,74.0,0,90,8.0,64.0
11160,74.0,0,90,8.0,64.0
11161,67.0,24,90,8.0,64.0
11162,71.0,0,90,10.0,64.0
11163,76.0,0,90,8.0,64.0
11164,67.0,120,90,8.0,64.0
11165,64.0,0,1530,11.0,64.0
11166,71.0,0,90,10.0,64.0
11167,52.0,120,1530,12.0,64.0
11168,83.0,96,240,0.0,64.0
11169,64.0,0,1530,4.0,64.0
11170,52.0,0,1530,4.0,64.0
11171,79.0,96,480,7.0,64.0
11172,76.0,24,90,8.0,64.0
11173,67.0,0,90,8.0,64.0
11174,71.0,0,90,10.0,64.0
11175,76.0,24,90,8.0,64.0
11176,84.0,96,120,0.0,64.0
11177,67.0,0,90,8.0,64.0
11178,71.0,0,90,10.0,64.0
11179,76.0,0,90,8.0,64.0
11180,71.0,24,90,10.0,64.0
11181,67.0,0,90,8.0,64.0
11182,86.0,0,120,0.0,64.0
11183,76.0,0,90,8.0,64.0
11184,67.0,120,90,8.0,64.0
11185,88.0,0,90,0.0,64.0
11186,71.0,0,90,10.0,64.0
11187,76.0,120,90,8.0,64.0
11188,67.0,0,90,8.0,64.0
11189,71.0,0,90,10.0,64.0
11190,88.0,0,90,0.0,64.0
11191,76.0,120,90,8.0,64.0
11192,67.0,0,90,8.0,64.0
11193,71.0,0,90,10.0,64.0
11194,76.0,0,90,8.0,64.0
11195,67.0,0,90,8.0,64.0
11196,71.0,24,90,10.0,64.0
11197,64.0,96,960,3.0,64.0
11198,88.0,0,480,0.0,64.0
11199,71.0,0,90,10.0,64.0
11200,83.0,96,240,7.0,64.0
11201,76.0,96,1920,2.0,64.0
11202,76.0,120,90,8.0,64.0
11203,67.0,0,90,8.0,64.0
11204,71.0,0,90,10.0,64.0
11205,67.0,24,90,8.0,64.0
11206,76.0,0,90,8.0,64.0
11207,67.0,0,90,8.0,64.0
11208,76.0,0,90,8.0,64.0
11209,84.0,96,120,7.0,64.0
11210,71.0,24,90,10.0,64.0
11211,67.0,0,90,8.0,64.0
11212,86.0,96,120,7.0,64.0
11213,71.0,0,90,10.0,64.0
11214,76.0,24,90,8.0,64.0
11215,67.0,0,90,8.0,64.0
11216,88.0,0,90,7.0,64.0
11217,76.0,0,90,8.0,64.0
11218,71.0,0,90,10.0,64.0
11219,71.0,0,90,10.0,64.0
11220,67.0,0,90,8.0,64.0
11221,76.0,120,90,8.0,64.0
11222,76.0,0,90,8.0,64.0
11223,88.0,120,90,7.0,64.0
11224,71.0,0,90,10.0,64.0
11225,67.0,0,90,8.0,64.0
11226,67.0,24,90,8.0,64.0
11227,76.0,0,90,8.0,64.0
11228,71.0,0,90,10.0,64.0
11229,69.0,0,90,8.0,64.0
11230,76.0,0,90,8.0,64.0
11231,57.0,0,1530,12.0,64.0
11232,69.0,0,1530,11.0,64.0
11233,76.0,96,240,1.0,64.0
11234,72.0,120,90,10.0,64.0
11235,84.0,96,480,7.0,64.0
11236,76.0,24,90,8.0,64.0
11237,69.0,0,90,8.0,64.0
11238,72.0,0,90,10.0,64.0
11239,72.0,0,90,10.0,64.0
11240,78.0,96,120,1.0,64.0
11241,76.0,24,90,8.0,64.0
11242,69.0,0,90,8.0,64.0
11243,76.0,0,90,8.0,64.0
11244,79.0,0,120,1.0,64.0
11245,72.0,24,90,10.0,64.0
11246,69.0,0,90,8.0,64.0
11247,72.0,120,90,10.0,64.0
11248,81.0,0,90,1.0,64.0
11249,76.0,0,90,8.0,64.0
11250,69.0,0,90,8.0,64.0
11251,69.0,0,90,8.0,64.0
11252,76.0,120,90,8.0,64.0
11253,72.0,0,90,10.0,64.0
11254,72.0,0,90,10.0,64.0
11255,69.0,120,90,8.0,64.0
11256,81.0,0,90,1.0,64.0
11257,76.0,0,90,8.0,64.0
11258,72.0,0,90,10.0,64.0
11259,76.0,0,90,8.0,64.0
11260,69.0,24,90,8.0,64.0
11261,76.0,96,240,7.0,64.0
11262,72.0,0,90,10.0,64.0
11263,72.0,96,960,2.0,64.0
11264,69.0,120,90,8.0,64.0
11265,69.0,0,960,3.0,64.0
11266,81.0,96,480,1.0,64.0
11267,76.0,0,90,8.0,64.0
11268,69.0,0,90,8.0,64.0
11269,72.0,0,90,10.0,64.0
11270,76.0,24,90,8.0,64.0
11271,72.0,0,90,10.0,64.0
11272,69.0,24,90,8.0,64.0
11273,76.0,0,90,8.0,64.0
11274,78.0,96,120,7.0,64.0
11275,69.0,0,90,8.0,64.0
11276,72.0,24,90,10.0,64.0
11277,79.0,0,120,7.0,64.0
11278,76.0,0,90,8.0,64.0
11279,81.0,0,90,7.0,64.0
11280,76.0,0,90,8.0,64.0
11281,69.0,0,90,8.0,64.0
11282,72.0,120,90,10.0,64.0
11283,69.0,0,90,8.0,64.0
11284,76.0,0,90,8.0,64.0
11285,72.0,120,90,10.0,64.0
11286,81.0,0,90,7.0,64.0
11287,76.0,120,90,8.0,64.0
11288,69.0,0,90,8.0,64.0
11289,72.0,0,90,10.0,64.0
11290,69.0,0,90,8.0,64.0
11291,76.0,0,90,8.0,64.0
11292,72.0,24,90,10.0,64.0
11293,59.0,24,180,3.0,64.0
11294,75.0,0,90,8.0,64.0
11295,59.0,0,90,11.0,64.0
11296,66.0,0,180,2.0,64.0
11297,69.0,0,180,2.0,64.0
11298,66.0,0,90,10.0,64.0
11299,47.0,96,90,12.0,64.0
11300,81.0,96,240,7.0,64.0
11301,75.0,24,90,8.0,64.0
11302,66.0,0,90,10.0,64.0
11303,59.0,0,90,11.0,64.0
11304,47.0,24,90,12.0,64.0
11305,63.0,0,90,10.0,64.0
11306,78.0,96,120,7.0,64.0
11307,78.0,0,90,8.0,64.0
11308,64.0,0,90,10.0,64.0
11309,76.0,24,90,8.0,64.0
11310,79.0,96,120,7.0,64.0
11311,47.0,0,90,12.0,64.0
11312,66.0,0,90,10.0,64.0
11313,59.0,0,90,11.0,64.0
11314,75.0,0,90,8.0,64.0
11315,81.0,120,90,7.0,64.0
11316,75.0,120,90,8.0,64.0
11317,66.0,0,90,10.0,64.0
11318,35.0,0,90,12.0,64.0
11319,81.0,0,90,7.0,64.0
11320,47.0,0,90,11.0,64.0
11321,66.0,120,90,10.0,64.0
11322,75.0,0,90,8.0,64.0
11323,75.0,120,90,8.0,64.0
11324,66.0,0,90,10.0,64.0
11325,76.0,0,90,8.0,64.0
11326,64.0,96,90,10.0,64.0
11327,47.0,0,90,11.0,64.0
11328,79.0,96,240,7.0,64.0
11329,67.0,24,180,2.0,64.0
11330,64.0,0,180,2.0,64.0
11331,83.0,48,780,1.0,64.0
11332,35.0,0,90,12.0,64.0
11333,76.0,0,90,8.0,64.0
11334,64.0,24,90,10.0,64.0
11335,76.0,96,120,7.0,64.0
11336,76.0,0,90,8.0,64.0
11337,67.0,24,90,10.0,64.0
11338,59.0,0,90,11.0,64.0
11339,47.0,0,90,12.0,64.0
11340,75.0,0,90,8.0,64.0
11341,78.0,96,120,7.0,64.0
11342,66.0,24,90,10.0,64.0
11343,59.0,0,90,11.0,64.0
11344,64.0,0,90,10.0,64.0
11345,79.0,0,90,7.0,64.0
11346,76.0,0,90,8.0,64.0
11347,47.0,120,90,12.0,64.0
11348,64.0,0,90,10.0,64.0
11349,76.0,72,90,8.0,64.0
11350,76.0,0,90,8.0,64.0
11351,35.0,0,90,12.0,64.0
11352,47.0,0,90,11.0,64.0
11353,79.0,120,90,7.0,64.0
11354,64.0,0,90,10.0,64.0
11355,64.0,0,90,10.0,64.0
11356,76.0,120,90,8.0,64.0
11357,81.0,96,240,7.0,64.0
11358,47.0,0,90,11.0,64.0
11359,75.0,96,90,8.0,64.0
11360,69.0,24,180,2.0,64.0
11361,66.0,0,180,2.0,64.0
11362,35.0,0,90,12.0,64.0
11363,66.0,0,90,10.0,64.0
11364,75.0,0,90,8.0,64.0
11365,66.0,24,90,10.0,64.0
11366,59.0,0,90,11.0,64.0
11367,78.0,96,120,7.0,64.0
11368,75.0,0,90,8.0,64.0
11369,69.0,24,90,10.0,64.0
11370,47.0,0,90,12.0,64.0
11371,67.0,0,90,10.0,64.0
11372,76.0,24,90,8.0,64.0
11373,79.0,96,120,7.0,64.0
11374,66.0,0,90,10.0,64.0
11375,47.0,0,90,12.0,64.0
11376,75.0,120,90,8.0,64.0
11377,81.0,0,90,7.0,64.0
11378,59.0,0,90,11.0,64.0
11379,75.0,120,90,8.0,64.0
11380,66.0,0,90,10.0,64.0
11381,81.0,0,90,7.0,64.0
11382,66.0,0,90,10.0,64.0
11383,47.0,0,90,11.0,64.0
11384,75.0,0,90,8.0,64.0
11385,35.0,120,90,12.0,64.0
11386,75.0,120,90,8.0,64.0
11387,66.0,0,90,10.0,64.0
11388,47.0,0,90,11.0,64.0
11389,66.0,0,90,10.0,64.0
11390,69.0,0,90,2.0,64.0
11391,47.0,0,780,3.0,64.0
11392,59.0,0,780,3.0,64.0
11393,81.0,96,240,7.0,64.0
11394,66.0,0,90,2.0,64.0
11395,71.0,48,780,8.0,64.0
11396,35.0,120,90,12.0,64.0
11397,66.0,24,90,10.0,64.0
11398,59.0,0,90,11.0,64.0
11399,78.0,96,120,7.0,64.0
11400,47.0,24,90,12.0,64.0
11401,63.0,0,90,10.0,64.0
11402,64.0,24,90,10.0,64.0
11403,79.0,96,120,7.0,64.0
11404,66.0,0,90,10.0,64.0
11405,63.0,0,90,2.0,64.0
11406,66.0,0,90,2.0,64.0
11407,47.0,0,90,12.0,64.0
11408,59.0,120,90,11.0,64.0
11409,81.0,0,90,7.0,64.0
11410,66.0,72,90,10.0,64.0
11411,35.0,0,90,12.0,64.0
11412,63.0,0,90,10.0,64.0
11413,47.0,0,90,11.0,64.0
11414,81.0,120,90,7.0,64.0
11415,63.0,120,90,10.0,64.0
11416,79.0,72,390,7.0,64.0
11417,64.0,0,1440,2.0,64.0
11418,35.0,120,90,12.0,64.0
11419,47.0,0,90,11.0,64.0
11420,67.0,96,960,2.0,64.0
11421,64.0,0,90,10.0,64.0
11422,67.0,96,240,8.0,64.0
11423,64.0,24,90,10.0,64.0
11424,59.0,0,90,11.0,64.0
11425,64.0,24,90,10.0,64.0
11426,47.0,0,90,12.0,64.0
11427,69.0,24,120,8.0,64.0
11428,64.0,24,90,10.0,64.0
11429,71.0,96,120,8.0,64.0
11430,72.0,0,90,8.0,64.0
11431,47.0,0,90,12.0,64.0
11432,59.0,0,90,11.0,64.0
11433,64.0,120,90,10.0,64.0
11434,64.0,120,90,10.0,64.0
11435,35.0,0,90,12.0,64.0
11436,64.0,0,90,10.0,64.0
11437,47.0,120,90,11.0,64.0
11438,72.0,0,90,8.0,64.0
11439,64.0,24,90,10.0,64.0
11440,59.0,0,780,3.0,64.0
11441,83.0,48,780,0.0,64.0
11442,66.0,96,240,8.0,64.0
11443,66.0,0,960,2.0,64.0
11444,64.0,0,90,10.0,64.0
11445,47.0,0,780,3.0,64.0
11446,83.0,0,780,7.0,64.0
11447,47.0,0,90,11.0,64.0
11448,35.0,120,90,12.0,64.0
11449,64.0,24,90,10.0,64.0
11450,64.0,0,90,10.0,64.0
11451,47.0,24,90,12.0,64.0
11452,67.0,96,120,8.0,64.0
11453,59.0,0,90,11.0,64.0
11454,64.0,24,90,10.0,64.0
11455,69.0,96,120,8.0,64.0
11456,59.0,0,90,11.0,64.0
11457,63.0,96,480,2.0,64.0
11458,71.0,0,90,8.0,64.0
11459,47.0,0,90,12.0,64.0
11460,63.0,120,90,10.0,64.0
11461,63.0,72,90,10.0,64.0
11462,35.0,0,90,12.0,64.0
11463,47.0,120,90,11.0,64.0
11464,63.0,0,90,10.0,64.0
11465,71.0,0,90,8.0,64.0
11466,63.0,24,90,10.0,64.0
11467,67.0,120,90,8.0,64.0
11468,47.0,0,90,11.0,64.0
11469,67.0,96,960,2.0,64.0
11470,64.0,0,1440,2.0,64.0
11471,64.0,0,90,10.0,64.0
11472,35.0,0,90,12.0,64.0
11473,79.0,96,240,7.0,64.0
11474,64.0,0,90,8.0,64.0
11475,76.0,24,90,10.0,64.0
11476,59.0,24,90,11.0,64.0
11477,47.0,0,90,12.0,64.0
11478,64.0,0,90,8.0,64.0
11479,76.0,0,90,10.0,64.0
11480,81.0,96,120,7.0,64.0
11481,83.0,96,120,7.0,64.0
11482,64.0,0,90,8.0,64.0
11483,76.0,24,90,10.0,64.0
11484,47.0,0,90,12.0,64.0
11485,84.0,0,90,7.0,64.0
11486,64.0,0,90,8.0,64.0
11487,59.0,120,90,11.0,64.0
11488,76.0,0,90,10.0,64.0
11489,64.0,0,90,8.0,64.0
11490,76.0,120,90,10.0,64.0
11491,84.0,0,90,7.0,64.0
11492,64.0,0,90,8.0,64.0
11493,35.0,120,90,12.0,64.0
11494,76.0,0,90,10.0,64.0
11495,47.0,0,90,11.0,64.0
11496,76.0,24,90,10.0,64.0
11497,64.0,0,90,8.0,64.0
11498,66.0,0,960,2.0,64.0
11499,64.0,120,90,8.0,64.0
11500,47.0,48,780,12.0,64.0
11501,47.0,0,780,3.0,64.0
11502,59.0,0,780,3.0,64.0
11503,83.0,0,1830,0.0,64.0
11504,78.0,96,240,7.0,64.0
11505,71.0,0,1830,1.0,64.0
11506,76.0,0,90,10.0,64.0
11507,59.0,0,780,11.0,64.0
11508,76.0,0,90,8.0,64.0
11509,64.0,24,90,10.0,64.0
11510,79.0,96,120,7.0,64.0
11511,76.0,0,90,8.0,64.0
11512,64.0,24,90,10.0,64.0
11513,76.0,24,90,8.0,64.0
11514,81.0,96,120,7.0,64.0
11515,64.0,0,90,10.0,64.0
11516,75.0,0,90,8.0,64.0
11517,83.0,0,90,7.0,64.0
11518,63.0,120,90,10.0,64.0
11519,63.0,96,480,2.0,64.0
11520,71.0,72,90,10.0,64.0
11521,75.0,0,90,8.0,64.0
11522,71.0,120,90,7.0,64.0
11523,71.0,0,90,10.0,64.0
11524,75.0,0,90,8.0,64.0
11525,75.0,24,90,8.0,64.0
11526,71.0,0,90,10.0,64.0
11527,43.0,0,240,12.0,64.0
11528,55.0,96,240,3.0,64.0
11529,67.0,0,390,5.0,64.0
11530,43.0,0,390,6.0,64.0
11531,55.0,72,390,5.0,64.0
11532,71.0,0,870,2.0,64.0
11533,76.0,0,90,7.0,64.0
11534,71.0,0,90,10.0,64.0
11535,55.0,0,240,11.0,64.0
11536,76.0,120,90,8.0,64.0
11537,88.0,0,90,7.0,64.0
11538,76.0,0,90,8.0,64.0
11539,71.0,24,90,10.0,64.0
11540,57.0,24,120,3.0,64.0
11541,57.0,0,120,11.0,64.0
11542,45.0,0,120,12.0,64.0
11543,76.0,0,90,8.0,64.0
11544,88.0,0,90,7.0,64.0
11545,71.0,24,90,10.0,64.0
11546,59.0,0,120,11.0,64.0
11547,71.0,24,90,10.0,64.0
11548,88.0,0,90,7.0,64.0
11549,76.0,0,90,8.0,64.0
11550,47.0,0,120,12.0,64.0
11551,59.0,96,120,3.0,64.0
11552,48.0,0,390,6.0,64.0
11553,52.0,72,390,4.0,64.0
11554,64.0,0,90,10.0,64.0
11555,88.0,120,90,7.0,64.0
11556,64.0,0,390,4.0,64.0
11557,48.0,0,90,12.0,64.0
11558,76.0,0,870,2.0,64.0
11559,60.0,0,390,5.0,64.0
11560,76.0,72,870,1.0,64.0
11561,76.0,0,90,8.0,64.0
11562,72.0,0,390,5.0,64.0
11563,60.0,0,90,11.0,64.0
11564,60.0,0,90,3.0,64.0
11565,88.0,0,870,0.0,64.0
11566,76.0,120,90,8.0,64.0
11567,64.0,0,90,10.0,64.0
11568,88.0,0,90,7.0,64.0
11569,64.0,0,90,10.0,64.0
11570,76.0,48,90,8.0,64.0
11571,48.0,0,90,12.0,64.0
11572,60.0,0,90,3.0,64.0
11573,60.0,0,90,11.0,64.0
11574,88.0,0,90,7.0,64.0
11575,64.0,0,90,10.0,64.0
11576,76.0,0,90,8.0,64.0
11577,88.0,120,90,7.0,64.0
11578,42.0,96,240,12.0,64.0
11579,88.0,0,90,7.0,64.0
11580,54.0,0,240,3.0,64.0
11581,54.0,0,240,11.0,64.0
11582,69.0,0,870,1.0,64.0
11583,69.0,120,90,10.0,64.0
11584,69.0,72,870,2.0,64.0
11585,76.0,0,90,8.0,64.0
11586,81.0,0,870,0.0,64.0
11587,76.0,24,90,8.0,64.0
11588,69.0,0,90,10.0,64.0
11589,81.0,0,90,7.0,64.0
11590,69.0,24,90,10.0,64.0
11591,43.0,0,120,12.0,64.0
11592,55.0,0,120,11.0,64.0
11593,76.0,0,90,8.0,64.0
11594,55.0,24,120,3.0,64.0
11595,83.0,0,90,7.0,64.0
11596,69.0,24,90,10.0,64.0
11597,57.0,0,120,3.0,64.0
11598,84.0,0,90,7.0,64.0
11599,76.0,0,90,8.0,64.0
11600,57.0,96,120,11.0,64.0
11601,45.0,0,120,12.0,64.0
11602,62.0,0,90,10.0,64.0
11603,59.0,0,90,3.0,64.0
11604,59.0,0,90,11.0,64.0
11605,86.0,120,90,7.0,64.0
11606,74.0,0,870,2.0,64.0
11607,86.0,0,870,0.0,64.0
11608,47.0,0,90,12.0,64.0
11609,74.0,0,90,8.0,64.0
11610,62.0,0,390,4.0,64.0
11611,74.0,0,870,1.0,64.0
11612,74.0,0,90,8.0,64.0
11613,62.0,120,90,10.0,64.0
11614,84.0,0,90,7.0,64.0
11615,47.0,0,90,11.0,64.0
11616,35.0,0,90,12.0,64.0
11617,86.0,48,90,7.0,64.0
11618,74.0,0,90,8.0,64.0
11619,62.0,0,90,10.0,64.0
11620,47.0,0,90,3.0,64.0
11621,74.0,120,90,7.0,64.0
11622,62.0,0,90,10.0,64.0
11623,74.0,0,90,8.0,64.0
11624,74.0,0,90,8.0,64.0
11625,55.0,0,390,5.0,64.0
11626,67.0,0,390,5.0,64.0
11627,67.0,0,90,10.0,64.0
11628,86.0,120,90,7.0,64.0
11629,67.0,0,870,2.0,64.0
11630,52.0,0,240,11.0,64.0
11631,79.0,0,870,0.0,64.0
11632,52.0,0,390,4.0,64.0
11633,67.0,0,870,1.0,64.0
11634,43.0,0,390,6.0,64.0
11635,64.0,72,390,4.0,64.0
11636,40.0,0,240,12.0,64.0
11637,52.0,96,240,3.0,64.0
11638,74.0,0,90,8.0,64.0
11639,79.0,24,90,7.0,64.0
11640,67.0,0,90,10.0,64.0
11641,74.0,0,90,8.0,64.0
11642,81.0,24,90,7.0,64.0
11643,67.0,0,90,10.0,64.0
11644,42.0,0,120,12.0,64.0
11645,54.0,0,120,11.0,64.0
11646,54.0,24,120,3.0,64.0
11647,55.0,0,120,3.0,64.0
11648,74.0,0,90,8.0,64.0
11649,55.0,96,120,11.0,64.0
11650,83.0,0,90,7.0,64.0
11651,67.0,24,90,10.0,64.0
11652,43.0,0,120,12.0,64.0
11653,72.0,0,90,8.0,64.0
11654,45.0,0,90,12.0,64.0
11655,84.0,0,90,7.0,64.0
11656,57.0,0,90,3.0,64.0
11657,72.0,0,390,5.0,64.0
11658,48.0,0,390,6.0,64.0
11659,60.0,72,390,5.0,64.0
11660,72.0,0,870,2.0,64.0
11661,84.0,0,870,0.0,64.0
11662,72.0,72,870,1.0,64.0
11663,60.0,0,90,10.0,64.0
11664,57.0,120,90,11.0,64.0
11665,72.0,120,90,8.0,64.0
11666,60.0,0,90,10.0,64.0
11667,83.0,0,90,7.0,64.0
11668,45.0,0,90,12.0,64.0
11669,57.0,0,90,11.0,64.0
11670,72.0,0,90,8.0,64.0
11671,84.0,48,90,7.0,64.0
11672,60.0,0,90,10.0,64.0
11673,57.0,0,90,3.0,64.0
11674,72.0,120,90,8.0,64.0
11675,72.0,0,90,7.0,64.0
11676,60.0,0,90,10.0,64.0
11677,50.0,96,240,11.0,64.0
11678,72.0,0,90,8.0,64.0
11679,66.0,0,870,1.0,64.0
11680,38.0,0,240,12.0,64.0
11681,50.0,0,240,3.0,64.0
11682,78.0,0,870,0.0,64.0
11683,66.0,0,870,2.0,64.0
11684,62.0,0,390,4.0,64.0
11685,66.0,0,90,10.0,64.0
11686,78.0,120,90,7.0,64.0
11687,78.0,0,90,7.0,64.0
11688,72.0,24,90,8.0,64.0
11689,66.0,0,90,10.0,64.0
11690,40.0,0,120,12.0,64.0
11691,79.0,24,90,7.0,64.0
11692,52.0,0,120,11.0,64.0
11693,52.0,24,120,3.0,64.0
11694,72.0,0,90,8.0,64.0
11695,66.0,0,90,10.0,64.0
11696,72.0,24,90,8.0,64.0
11697,54.0,96,120,11.0,64.0
11698,81.0,0,90,7.0,64.0
11699,42.0,0,120,12.0,64.0
11700,54.0,0,120,3.0,64.0
11701,66.0,0,90,10.0,64.0
11702,43.0,0,390,6.0,64.0
11703,55.0,0,90,3.0,64.0
11704,55.0,0,390,5.0,64.0
11705,43.0,0,90,12.0,64.0
11706,71.0,120,90,8.0,64.0
11707,71.0,72,870,1.0,64.0
11708,67.0,72,390,5.0,64.0
11709,55.0,0,390,4.0,64.0
11710,55.0,0,90,11.0,64.0
11711,67.0,0,390,4.0,64.0
11712,83.0,0,870,0.0,64.0
11713,83.0,0,90,7.0,64.0
11714,71.0,0,870,2.0,64.0
11715,59.0,0,90,10.0,64.0
11716,81.0,0,90,7.0,64.0
11717,59.0,120,90,10.0,64.0
11718,71.0,0,90,8.0,64.0
11719,31.0,0,90,12.0,64.0
11720,43.0,0,90,3.0,64.0
11721,59.0,0,90,10.0,64.0
11722,71.0,48,90,8.0,64.0
11723,83.0,0,90,7.0,64.0
11724,43.0,0,90,11.0,64.0
11725,59.0,0,90,10.0,64.0
11726,71.0,0,90,7.0,64.0
11727,71.0,120,90,8.0,64.0
11728,48.0,0,390,4.0,64.0
11729,60.0,0,390,4.0,64.0
11730,76.0,0,90,7.0,64.0
11731,36.0,0,240,12.0,64.0
11732,60.0,120,90,10.0,64.0
11733,71.0,0,90,8.0,64.0
11734,48.0,0,240,3.0,64.0
11735,76.0,0,870,0.0,64.0
11736,48.0,96,240,11.0,64.0
11737,64.0,0,870,1.0,64.0
11738,64.0,24,840,2.0,64.0
11739,76.0,0,90,7.0,64.0
11740,71.0,24,90,8.0,64.0
11741,60.0,0,90,10.0,64.0
11742,78.0,0,90,7.0,64.0
11743,62.0,24,90,10.0,64.0
11744,38.0,24,120,12.0,64.0
11745,50.0,0,120,3.0,64.0
11746,71.0,0,90,8.0,64.0
11747,50.0,0,120,11.0,64.0
11748,64.0,24,90,10.0,64.0
11749,40.0,0,120,12.0,64.0
11750,52.0,96,120,3.0,64.0
11751,79.0,0,90,7.0,64.0
11752,52.0,0,120,11.0,64.0
11753,71.0,0,90,8.0,64.0
11754,54.0,0,90,11.0,64.0
11755,69.0,0,390,2.0,64.0
11756,66.0,0,90,10.0,64.0
11757,69.0,120,90,8.0,64.0
11758,42.0,0,90,12.0,64.0
11759,72.0,0,390,5.0,64.0
11760,60.0,0,390,5.0,64.0
11761,48.0,0,390,6.0,64.0
11762,54.0,0,90,3.0,64.0
11763,69.0,0,390,1.0,64.0
11764,81.0,72,390,0.0,64.0
11765,81.0,0,90,7.0,64.0
11766,64.0,120,90,10.0,64.0
11767,79.0,0,90,7.0,64.0
11768,69.0,0,90,8.0,64.0
11769,66.0,0,90,10.0,64.0
11770,69.0,0,90,8.0,64.0
11771,42.0,24,90,3.0,64.0
11772,81.0,0,90,7.0,64.0
11773,42.0,0,90,11.0,64.0
11774,30.0,0,90,12.0,64.0
11775,69.0,0,90,7.0,64.0
11776,54.0,120,90,10.0,64.0
11777,69.0,0,90,8.0,64.0
11778,35.0,0,90,12.0,64.0
11779,81.0,0,150,1.0,64.0
11780,78.0,0,150,1.0,64.0
11781,78.0,0,150,2.0,64.0
11782,69.0,0,90,8.0,64.0
11783,81.0,72,150,2.0,64.0
11784,47.0,48,90,3.0,64.0
11785,47.0,0,90,11.0,64.0
11786,81.0,0,90,7.0,64.0
11787,59.0,0,90,10.0,64.0
11788,90.0,0,150,0.0,64.0
11789,93.0,0,150,0.0,64.0
11790,81.0,0,90,7.0,64.0
11791,59.0,0,90,3.0,64.0
11792,59.0,0,90,10.0,64.0
11793,59.0,0,90,11.0,64.0
11794,47.0,120,90,12.0,64.0
11795,63.0,0,90,8.0,64.0
11796,59.0,120,90,10.0,64.0
11797,49.0,0,90,12.0,64.0
11798,61.0,0,90,3.0,64.0
11799,61.0,0,90,11.0,64.0
11800,81.0,0,90,7.0,64.0
11801,64.0,0,90,8.0,64.0
11802,66.0,0,90,8.0,64.0
11803,81.0,120,90,7.0,64.0
11804,51.0,0,90,12.0,64.0
11805,63.0,0,90,11.0,64.0
11806,63.0,0,90,3.0,64.0
11807,59.0,0,90,10.0,64.0
11808,79.0,0,150,1.0,64.0
11809,52.0,0,240,12.0,64.0
11810,64.0,0,240,11.0,64.0
11811,67.0,0,90,8.0,64.0
11812,76.0,72,150,1.0,64.0
11813,64.0,96,240,3.0,64.0
11814,59.0,48,90,10.0,64.0
11815,76.0,0,150,2.0,64.0
11816,64.0,72,390,4.0,64.0
11817,79.0,0,90,7.0,64.0
11818,52.0,0,390,4.0,64.0
11819,79.0,0,150,2.0,64.0
11820,91.0,0,150,0.0,64.0
11821,88.0,0,150,0.0,64.0
11822,59.0,24,90,10.0,64.0
11823,79.0,0,90,7.0,64.0
11824,67.0,0,90,8.0,64.0
11825,78.0,0,90,7.0,64.0
11826,69.0,24,90,8.0,64.0
11827,66.0,24,120,11.0,64.0
11828,54.0,0,120,12.0,64.0
11829,66.0,0,120,3.0,64.0
11830,59.0,0,90,10.0,64.0
11831,76.0,24,90,7.0,64.0
11832,71.0,0,90,8.0,64.0
11833,67.0,0,120,3.0,64.0
11834,67.0,0,120,11.0,64.0
11835,55.0,96,120,12.0,64.0
11836,59.0,0,90,10.0,64.0
11837,69.0,0,390,3.0,64.0
11838,69.0,0,390,11.0,64.0
11839,71.0,48,90,8.0,64.0
11840,78.0,0,150,1.0,64.0
11841,81.0,72,150,1.0,64.0
11842,59.0,0,90,10.0,64.0
11843,57.0,72,390,12.0,64.0
11844,93.0,0,150,0.0,64.0
11845,90.0,0,150,0.0,64.0
11846,83.0,0,150,2.0,64.0
11847,71.0,0,150,2.0,64.0
11848,75.0,0,90,7.0,64.0
11849,71.0,120,90,8.0,64.0
11850,83.0,0,90,7.0,64.0
11851,59.0,0,90,10.0,64.0
11852,59.0,48,90,10.0,64.0
11853,73.0,0,90,8.0,64.0
11854,83.0,0,90,7.0,64.0
11855,75.0,0,90,8.0,64.0
11856,83.0,0,90,7.0,64.0
11857,59.0,120,90,10.0,64.0
11858,59.0,48,90,10.0,64.0
11859,79.0,0,390,5.0,64.0
11860,67.0,72,390,3.0,64.0
11861,83.0,0,150,2.0,64.0
11862,91.0,0,150,0.0,64.0
11863,67.0,0,390,5.0,64.0
11864,71.0,0,150,2.0,64.0
11865,43.0,0,390,6.0,64.0
11866,88.0,72,150,0.0,64.0
11867,76.0,0,90,8.0,64.0
11868,83.0,0,90,7.0,64.0
11869,55.0,0,390,12.0,64.0
11870,79.0,0,150,1.0,64.0
11871,52.0,0,390,4.0,64.0
11872,76.0,0,150,1.0,64.0
11873,67.0,0,390,11.0,64.0
11874,64.0,0,390,4.0,64.0
11875,76.0,0,90,8.0,64.0
11876,83.0,120,90,7.0,64.0
11877,59.0,0,90,10.0,64.0
11878,59.0,48,90,10.0,64.0
11879,83.0,0,90,7.0,64.0
11880,78.0,0,90,8.0,64.0
11881,79.0,0,90,8.0,64.0
11882,59.0,120,90,10.0,64.0
11883,83.0,0,90,7.0,64.0
11884,47.0,0,90,12.0,64.0
11885,83.0,0,90,7.0,64.0
11886,59.0,0,90,3.0,64.0
11887,90.0,0,150,0.0,64.0
11888,78.0,0,150,1.0,64.0
11889,81.0,72,150,1.0,64.0
11890,81.0,0,90,8.0,64.0
11891,83.0,0,150,2.0,64.0
11892,71.0,0,150,2.0,64.0
11893,59.0,0,90,11.0,64.0
11894,93.0,0,150,0.0,64.0
11895,66.0,48,90,10.0,64.0
11896,81.0,120,90,8.0,64.0
11897,66.0,0,90,10.0,64.0
11898,47.0,0,90,3.0,64.0
11899,35.0,0,90,12.0,64.0
11900,47.0,0,90,11.0,64.0
11901,83.0,0,90,7.0,64.0
11902,81.0,120,90,8.0,64.0
11903,83.0,0,90,7.0,64.0
11904,49.0,0,90,11.0,64.0
11905,49.0,0,90,3.0,64.0
11906,66.0,0,90,10.0,64.0
11907,37.0,0,90,12.0,64.0
11908,83.0,120,90,7.0,64.0
11909,51.0,0,90,11.0,64.0
11910,66.0,0,90,10.0,64.0
11911,81.0,0,90,8.0,64.0
11912,39.0,0,90,12.0,64.0
11913,51.0,0,90,3.0,64.0
11914,64.0,0,390,4.0,64.0
11915,71.0,0,150,2.0,64.0
11916,83.0,0,150,2.0,64.0
11917,79.0,0,90,8.0,64.0
11918,64.0,0,90,10.0,64.0
11919,52.0,48,90,3.0,64.0
11920,91.0,0,150,0.0,64.0
11921,67.0,0,390,5.0,64.0
11922,76.0,72,150,1.0,64.0
11923,83.0,0,90,7.0,64.0
11924,40.0,0,90,12.0,64.0
11925,79.0,0,390,5.0,64.0
11926,79.0,0,150,1.0,64.0
11927,43.0,72,390,6.0,64.0
11928,52.0,0,390,4.0,64.0
11929,52.0,0,90,11.0,64.0
11930,88.0,0,150,0.0,64.0
11931,40.0,0,90,12.0,64.0
11932,52.0,0,90,11.0,64.0
11933,83.0,120,90,7.0,64.0
11934,79.0,0,90,8.0,64.0
11935,64.0,0,90,10.0,64.0
11936,52.0,0,90,3.0,64.0
11937,54.0,0,90,11.0,64.0
11938,64.0,48,90,10.0,64.0
11939,54.0,0,90,3.0,64.0
11940,42.0,0,90,12.0,64.0
11941,79.0,0,90,8.0,64.0
11942,83.0,0,90,7.0,64.0
11943,43.0,0,90,12.0,64.0
11944,83.0,0,90,7.0,64.0
11945,55.0,0,90,11.0,64.0
11946,55.0,120,90,3.0,64.0
11947,64.0,0,90,10.0,64.0
11948,79.0,0,90,8.0,64.0
11949,83.0,0,150,2.0,64.0
11950,87.0,0,150,0.0,64.0
11951,90.0,0,150,0.0,64.0
11952,57.0,0,390,3.0,64.0
11953,83.0,0,90,7.0,64.0
11954,57.0,72,390,11.0,64.0
11955,78.0,0,90,8.0,64.0
11956,75.0,72,150,1.0,64.0
11957,71.0,0,150,2.0,64.0
11958,78.0,0,150,1.0,64.0
11959,71.0,48,90,10.0,64.0
11960,45.0,0,390,12.0,64.0
11961,83.0,120,90,7.0,64.0
11962,78.0,0,90,8.0,64.0
11963,71.0,0,90,10.0,64.0
11964,78.0,0,90,8.0,64.0
11965,85.0,48,90,7.0,64.0
11966,71.0,0,90,10.0,64.0
11967,87.0,0,90,7.0,64.0
11968,78.0,120,90,8.0,64.0
11969,71.0,0,90,10.0,64.0
11970,67.0,0,390,5.0,64.0
11971,88.0,48,90,7.0,64.0
11972,55.0,0,390,3.0,64.0
11973,71.0,0,90,10.0,64.0
11974,79.0,0,390,5.0,64.0
11975,55.0,72,390,11.0,64.0
11976,76.0,0,90,8.0,64.0
11977,43.0,0,390,12.0,64.0
11978,43.0,0,390,6.0,64.0
11979,71.0,0,150,2.0,64.0
11980,83.0,0,150,2.0,64.0
11981,64.0,0,390,4.0,64.0
11982,76.0,72,150,1.0,64.0
11983,79.0,0,150,1.0,64.0
11984,91.0,0,150,0.0,64.0
11985,88.0,0,150,0.0,64.0
11986,52.0,0,390,4.0,64.0
11987,76.0,0,90,8.0,64.0
11988,88.0,0,90,7.0,64.0
11989,71.0,120,90,10.0,64.0
11990,71.0,0,90,10.0,64.0
11991,76.0,48,90,8.0,64.0
11992,90.0,0,90,7.0,64.0
11993,76.0,120,90,8.0,64.0
11994,71.0,0,90,10.0,64.0
11995,91.0,0,90,7.0,64.0
11996,71.0,0,90,8.0,64.0
11997,93.0,0,150,0.0,64.0
11998,71.0,0,150,2.0,64.0
11999,83.0,0,150,2.0,64.0
12000,54.0,0,390,3.0,64.0
12001,59.0,48,90,10.0,64.0
12002,81.0,0,150,1.0,64.0
12003,71.0,72,150,1.0,64.0
12004,93.0,0,90,7.0,64.0
12005,83.0,0,150,0.0,64.0
12006,42.0,72,390,12.0,64.0
12007,54.0,0,390,11.0,64.0
12008,59.0,0,90,10.0,64.0
12009,71.0,120,90,8.0,64.0
12010,93.0,0,90,7.0,64.0
12011,73.0,0,90,8.0,64.0
12012,93.0,48,90,7.0,64.0
12013,61.0,0,90,10.0,64.0
12014,63.0,0,90,10.0,64.0
12015,93.0,0,90,7.0,64.0
12016,75.0,120,90,8.0,64.0
12017,52.0,0,390,4.0,64.0
12018,52.0,72,390,3.0,64.0
12019,64.0,0,390,4.0,64.0
12020,71.0,0,150,1.0,64.0
12021,79.0,0,150,1.0,64.0
12022,76.0,48,90,8.0,64.0
12023,83.0,72,150,0.0,64.0
12024,83.0,0,150,2.0,64.0
12025,91.0,0,150,0.0,64.0
12026,71.0,0,150,2.0,64.0
12027,52.0,0,390,11.0,64.0
12028,40.0,0,390,12.0,64.0
12029,79.0,0,390,5.0,64.0
12030,43.0,0,390,6.0,64.0
12031,64.0,0,90,10.0,64.0
12032,67.0,0,390,5.0,64.0
12033,91.0,0,90,7.0,64.0
12034,91.0,0,90,7.0,64.0
12035,64.0,120,90,10.0,64.0
12036,76.0,0,90,8.0,64.0
12037,66.0,48,90,10.0,64.0
12038,78.0,0,90,8.0,64.0
12039,91.0,0,90,7.0,64.0
12040,67.0,0,90,10.0,64.0
12041,79.0,120,90,8.0,64.0
12042,91.0,0,90,7.0,64.0
12043,71.0,0,150,2.0,64.0
12044,81.0,0,90,8.0,64.0
12045,51.0,72,390,11.0,64.0
12046,71.0,0,150,1.0,64.0
12047,59.0,0,90,10.0,64.0
12048,78.0,72,150,1.0,64.0
12049,90.0,48,90,7.0,64.0
12050,39.0,0,390,12.0,64.0
12051,83.0,0,150,0.0,64.0
12052,90.0,0,150,0.0,64.0
12053,51.0,0,390,3.0,64.0
12054,83.0,0,150,2.0,64.0
12055,81.0,120,90,8.0,64.0
12056,59.0,0,90,10.0,64.0
12057,90.0,0,90,7.0,64.0
12058,81.0,0,90,8.0,64.0
12059,90.0,0,90,7.0,64.0
12060,59.0,48,90,10.0,64.0
12061,59.0,0,90,10.0,64.0
12062,81.0,120,90,8.0,64.0
12063,90.0,0,90,7.0,64.0
12064,52.0,0,480,11.0,64.0
12065,88.0,0,90,7.0,64.0
12066,67.0,0,390,5.0,64.0
12067,79.0,0,390,5.0,64.0
12068,43.0,72,390,6.0,64.0
12069,71.0,0,150,1.0,64.0
12070,83.0,0,150,0.0,64.0
12071,88.0,0,150,0.0,64.0
12072,79.0,0,90,8.0,64.0
12073,76.0,72,150,1.0,64.0
12074,83.0,0,150,2.0,64.0
12075,40.0,0,480,12.0,64.0
12076,52.0,88,480,3.0,64.0
12077,64.0,0,390,4.0,64.0
12078,52.0,0,390,4.0,64.0
12079,59.0,48,90,10.0,64.0
12080,71.0,0,150,2.0,64.0
12081,88.0,0,90,7.0,64.0
12082,79.0,0,90,8.0,64.0
12083,59.0,120,90,10.0,64.0
12084,79.0,0,90,8.0,64.0
12085,88.0,48,90,7.0,64.0
12086,59.0,0,90,10.0,64.0
12087,59.0,0,90,10.0,64.0
12088,88.0,32,90,7.0,64.0
12089,79.0,0,90,8.0,64.0
12090,79.0,108,90,8.0,64.0
12091,88.0,0,90,7.0,64.0
12092,64.0,0,90,10.0,64.0
12093,59.0,0,90,10.0,64.0
12094,79.0,0,390,5.0,64.0
12095,76.0,12,150,1.0,64.0
12096,67.0,0,390,5.0,64.0
12097,43.0,0,390,6.0,64.0
12098,47.0,0,480,12.0,64.0
12099,88.0,0,150,0.0,64.0
12100,59.0,0,480,3.0,64.0
12101,64.0,0,390,4.0,64.0
12102,52.0,12,390,4.0,64.0
12103,59.0,28,480,11.0,64.0
12104,83.0,0,150,2.0,64.0
12105,71.0,0,150,2.0,64.0
12106,59.0,0,90,10.0,64.0
12107,64.0,0,90,10.0,64.0
12108,88.0,0,90,7.0,64.0
12109,79.0,120,90,8.0,64.0
12110,64.0,0,90,10.0,64.0
12111,59.0,0,90,10.0,64.0
12112,79.0,108,90,8.0,64.0
12113,88.0,0,90,7.0,64.0
12114,59.0,0,90,10.0,64.0
12115,79.0,0,90,8.0,64.0
12116,88.0,0,90,7.0,64.0
12117,64.0,92,90,10.0,64.0
12118,79.0,120,90,8.0,64.0
12119,88.0,0,90,7.0,64.0
12120,59.0,0,90,10.0,64.0
12121,64.0,0,90,10.0,64.0
12122,88.0,0,90,7.0,64.0
12123,83.0,72,150,2.0,64.0
12124,71.0,0,150,2.0,64.0
12125,35.0,0,480,12.0,64.0
12126,47.0,84,480,11.0,64.0
12127,79.0,48,90,8.0,64.0
12128,67.0,0,390,5.0,64.0
12129,79.0,0,390,5.0,64.0
12130,88.0,0,150,0.0,64.0
12131,43.0,72,390,6.0,64.0
12132,64.0,0,390,4.0,64.0
12133,64.0,0,90,10.0,64.0
12134,59.0,0,90,10.0,64.0
12135,47.0,0,480,3.0,64.0
12136,52.0,0,390,4.0,64.0
12137,76.0,0,150,1.0,64.0
12138,79.0,0,90,8.0,64.0
12139,64.0,0,90,10.0,64.0
12140,88.0,0,90,7.0,64.0
12141,59.0,120,90,10.0,64.0
12142,88.0,0,90,7.0,64.0
12143,59.0,0,90,10.0,64.0
12144,79.0,48,90,8.0,64.0
12145,64.0,0,90,10.0,64.0
12146,64.0,36,90,10.0,64.0
12147,88.0,0,90,7.0,64.0
12148,79.0,0,90,8.0,64.0
12149,59.0,0,90,10.0,64.0
12150,59.0,0,90,10.0,64.0
12151,88.0,0,90,7.0,64.0
12152,64.0,120,90,10.0,64.0
12153,79.0,0,90,8.0,64.0
12154,76.0,0,780,5.0,64.0
12155,79.0,120,90,8.0,64.0
12156,76.0,0,90,8.0,64.0
12157,36.0,0,390,12.0,64.0
12158,76.0,0,390,2.0,64.0
12159,76.0,0,1530,1.0,64.0
12160,48.0,0,780,6.0,64.0
12161,48.0,0,390,11.0,64.0
12162,48.0,0,390,3.0,64.0
12163,64.0,48,780,5.0,64.0
12164,79.0,0,1530,1.0,64.0
12165,72.0,0,390,2.0,64.0
12166,88.0,0,90,7.0,64.0
12167,55.0,0,1530,4.0,64.0
12168,52.0,96,1530,4.0,64.0
12169,67.0,0,1530,4.0,64.0
12170,64.0,0,1530,4.0,64.0
12171,88.0,0,1530,0.0,64.0
12172,64.0,0,390,10.0,64.0
12173,60.0,72,390,10.0,64.0
12174,76.0,0,90,8.0,64.0
12175,88.0,0,90,7.0,64.0
12176,79.0,120,90,8.0,64.0
12177,79.0,0,90,8.0,64.0
12178,76.0,48,90,8.0,64.0
12179,88.0,0,90,7.0,64.0
12180,88.0,120,90,7.0,64.0
12181,79.0,0,90,8.0,64.0
12182,76.0,0,90,8.0,64.0
12183,88.0,120,90,7.0,64.0
12184,79.0,0,90,8.0,64.0
12185,76.0,0,90,8.0,64.0
12186,76.0,0,90,8.0,64.0
12187,88.0,72,90,7.0,64.0
12188,79.0,0,90,8.0,64.0
12189,79.0,0,90,8.0,64.0
12190,76.0,120,90,8.0,64.0
12191,88.0,0,90,7.0,64.0
12192,88.0,120,90,7.0,64.0
12193,76.0,0,90,8.0,64.0
12194,79.0,0,90,8.0,64.0
12195,55.0,0,240,10.0,64.0
12196,88.0,120,90,7.0,64.0
12197,67.0,0,240,2.0,64.0
12198,43.0,0,240,11.0,64.0
12199,43.0,96,240,3.0,64.0
12200,79.0,0,90,8.0,64.0
12201,76.0,0,90,8.0,64.0
12202,55.0,72,390,5.0,64.0
12203,67.0,0,390,5.0,64.0
12204,31.0,0,240,12.0,64.0
12205,43.0,0,390,6.0,64.0
12206,79.0,24,90,8.0,64.0
12207,76.0,0,90,8.0,64.0
12208,88.0,0,90,7.0,64.0
12209,79.0,0,90,8.0,64.0
12210,57.0,0,120,10.0,64.0
12211,45.0,0,120,11.0,64.0
12212,33.0,24,120,12.0,64.0
12213,45.0,0,120,3.0,64.0
12214,76.0,0,90,8.0,64.0
12215,88.0,24,90,7.0,64.0
12216,69.0,0,120,2.0,64.0
12217,59.0,96,120,10.0,64.0
12218,47.0,0,120,11.0,64.0
12219,88.0,0,90,7.0,64.0
12220,47.0,0,120,3.0,64.0
12221,35.0,0,120,12.0,64.0
12222,71.0,0,120,2.0,64.0
12223,76.0,24,90,8.0,64.0
12224,79.0,0,90,8.0,64.0
12225,72.0,0,90,2.0,64.0
12226,48.0,0,90,11.0,64.0
12227,76.0,0,90,8.0,64.0
12228,72.0,0,90,5.0,64.0
12229,60.0,0,90,5.0,64.0
12230,48.0,24,180,6.0,64.0
12231,36.0,0,90,12.0,64.0
12232,88.0,0,90,7.0,64.0
12233,60.0,0,90,10.0,64.0
12234,79.0,0,90,8.0,64.0
12235,48.0,0,90,3.0,64.0
12236,76.0,120,90,8.0,64.0
12237,79.0,0,90,8.0,64.0
12238,88.0,0,90,7.0,64.0
12239,88.0,0,90,7.0,64.0
12240,72.0,0,90,2.0,64.0
12241,48.0,0,90,3.0,64.0
12242,60.0,0,90,10.0,64.0
12243,48.0,0,90,11.0,64.0
12244,60.0,0,90,5.0,64.0
12245,79.0,96,90,8.0,64.0
12246,48.0,24,180,6.0,64.0
12247,36.0,0,90,12.0,64.0
12248,76.0,0,90,8.0,64.0
12249,72.0,0,90,5.0,64.0
12250,88.0,120,90,7.0,64.0
12251,76.0,0,90,8.0,64.0
12252,79.0,0,90,8.0,64.0
12253,48.0,0,390,11.0,64.0
12254,60.0,0,390,10.0,64.0
12255,79.0,0,1530,1.0,64.0
12256,76.0,0,1530,1.0,64.0
12257,64.0,0,1530,4.0,64.0
12258,79.0,120,90,8.0,64.0
12259,36.0,0,390,12.0,64.0
12260,60.0,0,390,5.0,64.0
12261,48.0,0,390,3.0,64.0
12262,88.0,0,90,7.0,64.0
12263,52.0,0,1530,4.0,64.0
12264,72.0,0,390,5.0,64.0
12265,72.0,0,390,2.0,64.0
12266,88.0,0,1530,0.0,64.0
12267,64.0,72,390,10.0,64.0
12268,76.0,0,390,2.0,64.0
12269,48.0,48,780,6.0,64.0
12270,76.0,0,90,8.0,64.0
12271,67.0,0,1530,4.0,64.0
12272,55.0,0,1530,4.0,64.0
12273,76.0,0,90,8.0,64.0
12274,79.0,120,90,8.0,64.0
12275,88.0,0,90,7.0,64.0
12276,88.0,48,90,7.0,64.0
12277,76.0,0,90,8.0,64.0
12278,79.0,0,90,8.0,64.0
12279,79.0,0,90,8.0,64.0
12280,76.0,0,90,8.0,64.0
12281,88.0,120,90,7.0,64.0
12282,76.0,120,90,8.0,64.0
12283,79.0,0,90,8.0,64.0
12284,88.0,0,90,7.0,64.0
12285,79.0,0,90,8.0,64.0
12286,76.0,0,90,8.0,64.0
12287,88.0,72,90,7.0,64.0
12288,79.0,0,90,8.0,64.0
12289,76.0,0,90,8.0,64.0
12290,88.0,120,90,7.0,64.0
12291,79.0,120,90,8.0,64.0
12292,76.0,0,90,8.0,64.0
12293,88.0,0,90,7.0,64.0
12294,43.0,0,390,6.0,64.0
12295,67.0,0,240,2.0,64.0
12296,79.0,0,90,8.0,64.0
12297,76.0,0,90,8.0,64.0
12298,88.0,120,90,7.0,64.0
12299,43.0,0,240,11.0,64.0
12300,43.0,0,240,3.0,64.0
12301,55.0,96,240,10.0,64.0
12302,67.0,72,390,5.0,64.0
12303,55.0,0,390,5.0,64.0
12304,31.0,0,240,12.0,64.0
12305,76.0,0,90,8.0,64.0
12306,79.0,24,90,8.0,64.0
12307,88.0,0,90,7.0,64.0
12308,76.0,24,90,8.0,64.0
12309,45.0,0,120,3.0,64.0
12310,79.0,0,90,8.0,64.0
12311,45.0,24,120,11.0,64.0
12312,69.0,0,120,2.0,64.0
12313,33.0,0,120,12.0,64.0
12314,57.0,0,120,10.0,64.0
12315,88.0,0,90,7.0,64.0
12316,47.0,96,120,3.0,64.0
12317,79.0,24,90,8.0,64.0
12318,71.0,0,120,2.0,64.0
12319,76.0,0,90,8.0,64.0
12320,59.0,0,120,10.0,64.0
12321,88.0,0,90,7.0,64.0
12322,47.0,0,120,11.0,64.0
12323,35.0,0,120,12.0,64.0
12324,60.0,0,90,10.0,64.0
12325,48.0,24,180,6.0,64.0
12326,36.0,0,90,12.0,64.0
12327,72.0,0,90,2.0,64.0
12328,60.0,0,90,5.0,64.0
12329,88.0,0,90,7.0,64.0
12330,48.0,0,90,11.0,64.0
12331,76.0,96,90,8.0,64.0
12332,48.0,0,90,3.0,64.0
12333,72.0,0,90,5.0,64.0
12334,79.0,0,90,8.0,64.0
12335,88.0,0,90,7.0,64.0
12336,79.0,120,90,8.0,64.0
12337,76.0,0,90,8.0,64.0
12338,88.0,0,90,7.0,64.0
12339,48.0,0,90,3.0,64.0
12340,36.0,0,90,12.0,64.0
12341,79.0,0,90,8.0,64.0
12342,76.0,0,90,8.0,64.0
12343,48.0,0,90,11.0,64.0
12344,48.0,24,180,6.0,64.0
12345,72.0,0,90,5.0,64.0
12346,60.0,96,90,5.0,64.0
12347,72.0,0,90,2.0,64.0
12348,60.0,0,90,10.0,64.0
12349,88.0,0,90,7.0,64.0
12350,79.0,0,90,8.0,64.0
12351,76.0,120,90,8.0,64.0
12352,79.0,0,1530,1.0,64.0
12353,64.0,0,390,10.0,64.0
12354,76.0,0,1530,1.0,64.0
12355,48.0,48,780,6.0,64.0
12356,76.0,0,90,8.0,64.0
12357,64.0,0,1530,4.0,64.0
12358,55.0,0,1530,4.0,64.0
12359,52.0,0,1530,4.0,64.0
12360,48.0,0,390,11.0,64.0
12361,88.0,0,1530,0.0,64.0
12362,79.0,120,90,8.0,64.0
12363,60.0,0,390,10.0,64.0
12364,67.0,0,1530,4.0,64.0
12365,72.0,0,390,5.0,64.0
12366,60.0,0,390,5.0,64.0
12367,72.0,0,390,2.0,64.0
12368,76.0,0,390,2.0,64.0
12369,88.0,0,90,7.0,64.0
12370,36.0,0,390,12.0,64.0
12371,48.0,72,390,3.0,64.0
12372,76.0,0,90,8.0,64.0
12373,79.0,0,90,8.0,64.0
12374,88.0,120,90,7.0,64.0
12375,88.0,0,90,7.0,64.0
12376,79.0,0,90,8.0,64.0
12377,76.0,48,90,8.0,64.0
12378,79.0,0,90,8.0,64.0
12379,88.0,0,90,7.0,64.0
12380,76.0,120,90,8.0,64.0
12381,79.0,120,90,8.0,64.0
12382,76.0,0,90,8.0,64.0
12383,88.0,0,90,7.0,64.0
12384,76.0,0,90,8.0,64.0
12385,79.0,72,90,8.0,64.0
12386,88.0,0,90,7.0,64.0
12387,88.0,120,90,7.0,64.0
12388,76.0,0,90,8.0,64.0
12389,79.0,0,90,8.0,64.0
12390,76.0,0,90,8.0,64.0
12391,88.0,0,90,7.0,64.0
12392,79.0,120,90,8.0,64.0
12393,67.0,96,240,2.0,64.0
12394,88.0,120,90,7.0,64.0
12395,55.0,0,240,10.0,64.0
12396,43.0,0,240,11.0,64.0
12397,67.0,0,390,5.0,64.0
12398,55.0,72,390,5.0,64.0
12399,76.0,0,90,8.0,64.0
12400,43.0,0,240,3.0,64.0
12401,43.0,0,390,6.0,64.0
12402,31.0,0,240,12.0,64.0
12403,79.0,0,90,8.0,64.0
12404,88.0,0,90,7.0,64.0
12405,79.0,24,90,8.0,64.0
12406,76.0,0,90,8.0,64.0
12407,88.0,0,90,7.0,64.0
12408,76.0,24,90,8.0,64.0
12409,79.0,0,90,8.0,64.0
12410,33.0,0,120,12.0,64.0
12411,45.0,0,120,11.0,64.0
12412,69.0,0,120,2.0,64.0
12413,45.0,0,120,3.0,64.0
12414,57.0,24,120,10.0,64.0
12415,79.0,0,90,8.0,64.0
12416,35.0,96,120,12.0,64.0
12417,47.0,0,120,11.0,64.0
12418,47.0,0,120,3.0,64.0
12419,71.0,0,120,2.0,64.0
12420,88.0,24,90,7.0,64.0
12421,59.0,0,120,10.0,64.0
12422,76.0,0,90,8.0,64.0
12423,88.0,0,90,7.0,64.0
12424,72.0,0,90,5.0,64.0
12425,48.0,0,90,3.0,64.0
12426,60.0,0,90,5.0,64.0
12427,48.0,24,180,6.0,64.0
12428,72.0,0,90,2.0,64.0
12429,79.0,0,90,8.0,64.0
12430,48.0,0,90,11.0,64.0
12431,76.0,0,90,8.0,64.0
12432,60.0,96,90,10.0,64.0
12433,36.0,0,90,12.0,64.0
12434,88.0,0,90,7.0,64.0
12435,79.0,120,90,8.0,64.0
12436,76.0,0,90,8.0,64.0
12437,88.0,0,90,7.0,64.0
12438,79.0,0,90,8.0,64.0
12439,72.0,0,90,2.0,64.0
12440,48.0,24,180,6.0,64.0
12441,76.0,0,90,8.0,64.0
12442,48.0,0,90,3.0,64.0
12443,36.0,0,90,12.0,64.0
12444,48.0,0,90,11.0,64.0
12445,60.0,0,90,10.0,64.0
12446,72.0,96,90,5.0,64.0
12447,60.0,0,90,5.0,64.0
12448,88.0,0,90,7.0,64.0
12449,79.0,120,90,8.0,64.0
12450,76.0,0,90,8.0,64.0
12451,88.0,0,90,7.0,64.0
12452,36.0,0,390,12.0,64.0
12453,48.0,0,390,3.0,64.0
12454,72.0,0,390,5.0,64.0
12455,60.0,0,390,5.0,64.0
12456,72.0,0,390,2.0,64.0
12457,67.0,0,390,4.0,64.0
12458,48.0,0,390,11.0,64.0
12459,64.0,0,390,10.0,64.0
12460,64.0,0,390,4.0,64.0
12461,60.0,0,390,10.0,64.0
12462,55.0,0,390,4.0,64.0
12463,76.0,0,90,8.0,64.0
12464,79.0,120,90,8.0,64.0
12465,52.0,0,390,4.0,64.0
12466,88.0,0,390,0.0,64.0
12467,48.0,0,390,6.0,64.0
12468,79.0,72,390,1.0,64.0
12469,76.0,0,390,1.0,64.0
12470,76.0,0,90,8.0,64.0
12471,88.0,120,90,7.0,64.0
12472,79.0,0,90,8.0,64.0
12473,88.0,48,90,7.0,64.0
12474,79.0,0,90,8.0,64.0
12475,76.0,0,90,8.0,64.0
12476,76.0,120,90,8.0,64.0
12477,88.0,0,90,7.0,64.0
12478,79.0,0,90,8.0,64.0
12479,52.0,0,390,4.0,64.0
12480,67.0,0,390,4.0,64.0
12481,64.0,0,390,4.0,64.0
12482,55.0,0,390,4.0,64.0
12483,36.0,0,390,12.0,64.0
12484,88.0,120,90,7.0,64.0
12485,72.0,0,390,2.0,64.0
12486,60.0,0,390,5.0,64.0
12487,64.0,0,390,10.0,64.0
12488,48.0,0,390,11.0,64.0
12489,76.0,0,90,8.0,64.0
12490,79.0,0,90,8.0,64.0
12491,48.0,0,390,6.0,64.0
12492,79.0,0,390,1.0,64.0
12493,76.0,0,390,1.0,64.0
12494,48.0,72,390,3.0,64.0
12495,72.0,0,390,5.0,64.0
12496,88.0,0,390,0.0,64.0
12497,60.0,0,390,10.0,64.0
12498,79.0,120,90,8.0,64.0
12499,76.0,0,90,8.0,64.0
12500,88.0,0,90,7.0,64.0
12501,79.0,0,90,8.0,64.0
12502,76.0,0,90,8.0,64.0
12503,88.0,48,90,7.0,64.0
12504,76.0,120,90,8.0,64.0
12505,79.0,0,90,8.0,64.0
12506,88.0,0,90,7.0,64.0
12507,35.0,0,390,12.0,64.0
12508,55.0,0,390,5.0,64.0
12509,64.0,0,390,4.0,64.0
12510,55.0,0,390,4.0,64.0
12511,52.0,0,390,4.0,64.0
12512,59.0,0,390,10.0,64.0
12513,79.0,120,90,8.0,64.0
12514,76.0,0,90,8.0,64.0
12515,76.0,0,390,1.0,64.0
12516,64.0,0,390,10.0,64.0
12517,47.0,0,390,3.0,64.0
12518,67.0,0,390,5.0,64.0
12519,88.0,0,90,7.0,64.0
12520,67.0,0,390,4.0,64.0
12521,43.0,0,390,6.0,64.0
12522,47.0,72,390,11.0,64.0
12523,71.0,0,390,2.0,64.0
12524,79.0,0,390,1.0,64.0
12525,88.0,0,390,0.0,64.0
12526,79.0,0,90,8.0,64.0
12527,88.0,0,90,7.0,64.0
12528,76.0,120,90,8.0,64.0
12529,79.0,0,90,8.0,64.0
12530,76.0,48,90,8.0,64.0
12531,88.0,0,90,7.0,64.0
12532,76.0,0,90,8.0,64.0
12533,88.0,120,90,7.0,64.0
12534,79.0,0,90,8.0,64.0
12535,76.0,120,90,8.0,64.0
12536,47.0,0,390,3.0,64.0
12537,67.0,72,390,5.0,64.0
12538,55.0,0,390,5.0,64.0
12539,88.0,0,90,7.0,64.0
12540,64.0,0,390,4.0,64.0
12541,59.0,0,390,10.0,64.0
12542,64.0,0,390,10.0,64.0
12543,79.0,0,390,1.0,64.0
12544,76.0,0,390,1.0,64.0
12545,67.0,0,390,4.0,64.0
12546,52.0,0,390,4.0,64.0
12547,79.0,0,90,8.0,64.0
12548,55.0,0,390,4.0,64.0
12549,71.0,0,390,2.0,64.0
12550,43.0,0,390,6.0,64.0
12551,88.0,0,390,0.0,64.0
12552,47.0,0,390,11.0,64.0
12553,35.0,0,390,12.0,64.0
12554,76.0,120,90,8.0,64.0
12555,79.0,0,90,8.0,64.0
12556,88.0,0,90,7.0,64.0
12557,88.0,0,90,7.0,64.0
12558,76.0,0,90,8.0,64.0
12559,79.0,48,90,8.0,64.0
12560,79.0,0,90,8.0,64.0
12561,76.0,120,90,8.0,64.0
12562,88.0,0,90,7.0,64.0
12563,76.0,0,90,8.0,64.0
12564,88.0,96,1530,0.0,64.0
12565,79.0,0,90,8.0,64.0
12566,48.0,72,390,11.0,64.0
12567,48.0,48,780,6.0,64.0
12568,36.0,0,390,12.0,64.0
12569,88.0,120,90,7.0,64.0
12570,76.0,0,1530,1.0,64.0
12571,64.0,0,390,10.0,64.0
12572,60.0,0,390,10.0,64.0
12573,79.0,0,1530,1.0,64.0
12574,55.0,0,1530,4.0,64.0
12575,67.0,0,1530,4.0,64.0
12576,52.0,0,1530,4.0,64.0
12577,64.0,0,1530,4.0,64.0
12578,48.0,0,390,3.0,64.0
12579,72.0,0,390,2.0,64.0
12580,76.0,0,390,2.0,64.0
12581,76.0,0,780,5.0,64.0
12582,64.0,0,780,5.0,64.0
12583,88.0,0,90,7.0,64.0
12584,79.0,120,90,8.0,64.0
12585,76.0,0,90,8.0,64.0
12586,88.0,0,90,7.0,64.0
12587,79.0,0,90,8.0,64.0
12588,76.0,48,90,8.0,64.0
12589,76.0,120,90,8.0,64.0
12590,88.0,0,90,7.0,64.0
12591,79.0,0,90,8.0,64.0
12592,88.0,0,90,7.0,64.0
12593,79.0,120,90,8.0,64.0
12594,76.0,0,90,8.0,64.0
12595,76.0,72,90,8.0,64.0
12596,79.0,0,90,8.0,64.0
12597,88.0,0,90,7.0,64.0
12598,79.0,0,90,8.0,64.0
12599,88.0,120,90,7.0,64.0
12600,76.0,0,90,8.0,64.0
12601,76.0,0,90,8.0,64.0
12602,79.0,120,90,8.0,64.0
12603,88.0,0,90,7.0,64.0
12604,55.0,0,390,5.0,64.0
12605,79.0,0,90,8.0,64.0
12606,76.0,0,90,8.0,64.0
12607,67.0,96,240,2.0,64.0
12608,67.0,72,390,5.0,64.0
12609,43.0,0,240,3.0,64.0
12610,88.0,120,90,7.0,64.0
12611,55.0,0,240,10.0,64.0
12612,31.0,0,240,12.0,64.0
12613,43.0,0,390,6.0,64.0
12614,43.0,0,240,11.0,64.0
12615,88.0,0,90,7.0,64.0
12616,79.0,24,90,8.0,64.0
12617,76.0,0,90,8.0,64.0
12618,45.0,24,120,3.0,64.0
12619,57.0,0,120,10.0,64.0
12620,76.0,0,90,8.0,64.0
12621,79.0,24,90,8.0,64.0
12622,88.0,0,90,7.0,64.0
12623,33.0,0,120,12.0,64.0
12624,45.0,0,120,11.0,64.0
12625,69.0,0,120,2.0,64.0
12626,47.0,0,120,3.0,64.0
12627,47.0,0,120,11.0,64.0
12628,79.0,0,90,8.0,64.0
12629,76.0,0,90,8.0,64.0
12630,59.0,0,120,10.0,64.0
12631,71.0,96,120,2.0,64.0
12632,88.0,24,90,7.0,64.0
12633,35.0,0,120,12.0,64.0
12634,76.0,0,90,8.0,64.0
12635,72.0,0,90,5.0,64.0
12636,48.0,0,90,11.0,64.0
12637,48.0,24,180,6.0,64.0
12638,79.0,0,90,8.0,64.0
12639,36.0,0,90,12.0,64.0
12640,60.0,0,90,5.0,64.0
12641,60.0,0,90,10.0,64.0
12642,72.0,0,90,2.0,64.0
12643,48.0,0,90,3.0,64.0
12644,88.0,0,90,7.0,64.0
12645,88.0,0,90,7.0,64.0
12646,79.0,0,90,8.0,64.0
12647,76.0,120,90,8.0,64.0
12648,48.0,0,90,11.0,64.0
12649,88.0,0,90,7.0,64.0
12650,48.0,24,180,6.0,64.0
12651,48.0,0,90,3.0,64.0
12652,79.0,0,90,8.0,64.0
12653,60.0,0,90,10.0,64.0
12654,76.0,0,90,8.0,64.0
12655,72.0,0,90,5.0,64.0
12656,36.0,0,90,12.0,64.0
12657,72.0,96,90,2.0,64.0
12658,60.0,0,90,5.0,64.0
12659,76.0,120,90,8.0,64.0
12660,88.0,0,90,7.0,64.0
12661,79.0,0,90,8.0,64.0
12662,72.0,0,390,5.0,64.0
12663,36.0,0,390,12.0,64.0
12664,52.0,0,1530,4.0,64.0
12665,64.0,0,1530,4.0,64.0
12666,60.0,72,390,10.0,64.0
12667,76.0,120,90,8.0,64.0
12668,79.0,0,90,8.0,64.0
12669,67.0,0,1530,4.0,64.0
12670,76.0,0,1530,1.0,64.0
12671,55.0,0,1530,4.0,64.0
12672,48.0,0,390,3.0,64.0
12673,60.0,0,390,5.0,64.0
12674,88.0,0,90,7.0,64.0
12675,79.0,0,1530,1.0,64.0
12676,64.0,0,390,10.0,64.0
12677,48.0,48,780,6.0,64.0
12678,48.0,0,390,11.0,64.0
12679,76.0,0,390,2.0,64.0
12680,88.0,0,1530,0.0,64.0
12681,72.0,0,390,2.0,64.0
12682,88.0,120,90,7.0,64.0
12683,79.0,0,90,8.0,64.0
12684,76.0,0,90,8.0,64.0
12685,88.0,0,90,7.0,64.0
12686,76.0,48,90,8.0,64.0
12687,79.0,0,90,8.0,64.0
12688,88.0,0,90,7.0,64.0
12689,79.0,0,90,8.0,64.0
12690,76.0,120,90,8.0,64.0
12691,88.0,0,90,7.0,64.0
12692,79.0,0,90,8.0,64.0
12693,76.0,120,90,8.0,64.0
12694,88.0,72,90,7.0,64.0
12695,79.0,0,90,8.0,64.0
12696,76.0,0,90,8.0,64.0
12697,76.0,120,90,8.0,64.0
12698,79.0,0,90,8.0,64.0
12699,88.0,0,90,7.0,64.0
12700,88.0,0,90,7.0,64.0
12701,76.0,120,90,8.0,64.0
12702,79.0,0,90,8.0,64.0
12703,43.0,0,390,6.0,64.0
12704,43.0,0,240,11.0,64.0
12705,43.0,0,240,3.0,64.0
12706,55.0,0,390,5.0,64.0
12707,79.0,120,90,8.0,64.0
12708,31.0,0,240,12.0,64.0
12709,76.0,0,90,8.0,64.0
12710,88.0,0,90,7.0,64.0
12711,67.0,72,390,5.0,64.0
12712,55.0,0,240,10.0,64.0
12713,67.0,96,240,2.0,64.0
12714,79.0,24,90,8.0,64.0
12715,76.0,0,90,8.0,64.0
12716,88.0,0,90,7.0,64.0
12717,76.0,0,90,8.0,64.0
12718,79.0,0,90,8.0,64.0
12719,33.0,0,120,12.0,64.0
12720,88.0,24,90,7.0,64.0
12721,57.0,0,120,10.0,64.0
12722,45.0,24,120,11.0,64.0
12723,45.0,0,120,3.0,64.0
12724,69.0,0,120,2.0,64.0
12725,59.0,0,120,10.0,64.0
12726,47.0,0,120,11.0,64.0
12727,79.0,0,90,8.0,64.0
12728,88.0,24,90,7.0,64.0
12729,35.0,96,120,12.0,64.0
12730,71.0,0,120,2.0,64.0
12731,76.0,0,90,8.0,64.0
12732,47.0,0,120,3.0,64.0
12733,48.0,0,90,3.0,64.0
12734,79.0,0,90,8.0,64.0
12735,76.0,0,90,8.0,64.0
12736,48.0,0,90,11.0,64.0
12737,88.0,0,90,7.0,64.0
12738,48.0,24,180,6.0,64.0
12739,72.0,0,90,2.0,64.0
12740,36.0,96,90,12.0,64.0
12741,72.0,0,90,5.0,64.0
12742,60.0,0,90,10.0,64.0
12743,60.0,0,90,5.0,64.0
12744,76.0,0,90,8.0,64.0
12745,79.0,0,90,8.0,64.0
12746,88.0,120,90,7.0,64.0
12747,72.0,0,90,5.0,64.0
12748,48.0,24,180,6.0,64.0
12749,48.0,96,90,11.0,64.0
12750,60.0,0,90,10.0,64.0
12751,88.0,0,90,7.0,64.0
12752,79.0,0,90,8.0,64.0
12753,72.0,0,90,2.0,64.0
12754,76.0,0,90,8.0,64.0
12755,48.0,0,90,3.0,64.0
12756,60.0,0,90,5.0,64.0
12757,36.0,0,90,12.0,64.0
12758,79.0,120,90,8.0,64.0
12759,88.0,0,90,7.0,64.0
12760,76.0,0,90,8.0,64.0
12761,88.0,120,90,7.0,64.0
12762,76.0,0,90,8.0,64.0
12763,79.0,0,90,8.0,64.0
12764,48.0,72,390,3.0,64.0
12765,67.0,0,1530,4.0,64.0
12766,64.0,0,1530,4.0,64.0
12767,72.0,0,390,2.0,64.0
12768,76.0,0,390,2.0,64.0
12769,64.0,0,390,10.0,64.0
12770,36.0,0,390,12.0,64.0
12771,60.0,0,390,10.0,64.0
12772,60.0,0,390,5.0,64.0
12773,55.0,0,1530,4.0,64.0
12774,76.0,0,1530,1.0,64.0
12775,48.0,48,780,6.0,64.0
12776,48.0,0,390,11.0,64.0
12777,79.0,0,1530,1.0,64.0
12778,88.0,0,1530,0.0,64.0
12779,72.0,0,390,5.0,64.0
12780,52.0,0,1530,4.0,64.0
12781,79.0,120,90,8.0,64.0
12782,76.0,0,90,8.0,64.0
12783,88.0,0,90,7.0,64.0
12784,88.0,0,90,7.0,64.0
12785,76.0,48,90,8.0,64.0
12786,79.0,0,90,8.0,64.0
12787,79.0,0,90,8.0,64.0
12788,88.0,120,90,7.0,64.0
12789,76.0,0,90,8.0,64.0
12790,79.0,120,90,8.0,64.0
12791,76.0,0,90,8.0,64.0
12792,88.0,0,90,7.0,64.0
12793,76.0,0,90,8.0,64.0
12794,88.0,0,90,7.0,64.0
12795,79.0,72,90,8.0,64.0
12796,79.0,0,90,8.0,64.0
12797,76.0,0,90,8.0,64.0
12798,88.0,120,90,7.0,64.0
12799,79.0,0,90,8.0,64.0
12800,88.0,120,90,7.0,64.0
12801,76.0,0,90,8.0,64.0
12802,67.0,0,240,2.0,64.0
12803,55.0,72,390,5.0,64.0
12804,88.0,0,90,7.0,64.0
12805,31.0,0,240,12.0,64.0
12806,43.0,0,240,11.0,64.0
12807,79.0,0,90,8.0,64.0
12808,76.0,120,90,8.0,64.0
12809,43.0,0,240,3.0,64.0
12810,67.0,0,390,5.0,64.0
12811,43.0,0,390,6.0,64.0
12812,55.0,96,240,10.0,64.0
12813,76.0,0,90,8.0,64.0
12814,79.0,0,90,8.0,64.0
12815,88.0,24,90,7.0,64.0
12816,45.0,0,120,11.0,64.0
12817,69.0,0,120,2.0,64.0
12818,57.0,0,120,10.0,64.0
12819,79.0,0,90,8.0,64.0
12820,88.0,24,90,7.0,64.0
12821,76.0,0,90,8.0,64.0
12822,33.0,24,120,12.0,64.0
12823,45.0,0,120,3.0,64.0
12824,71.0,0,120,2.0,64.0
12825,47.0,0,120,11.0,64.0
12826,47.0,96,120,3.0,64.0
12827,35.0,0,120,12.0,64.0
12828,59.0,0,120,10.0,64.0
12829,79.0,24,90,8.0,64.0
12830,76.0,0,90,8.0,64.0
12831,88.0,0,90,7.0,64.0
12832,79.0,0,90,8.0,64.0
12833,76.0,0,90,8.0,64.0
12834,88.0,0,90,7.0,64.0
12835,48.0,0,90,11.0,64.0
12836,48.0,0,90,3.0,64.0
12837,48.0,24,180,6.0,64.0
12838,36.0,0,90,12.0,64.0
12839,60.0,0,90,5.0,64.0
12840,72.0,96,90,2.0,64.0
12841,60.0,0,90,10.0,64.0
12842,72.0,0,90,5.0,64.0
12843,79.0,0,90,8.0,64.0
12844,76.0,0,90,8.0,64.0
12845,88.0,120,90,7.0,64.0
12846,72.0,96,90,2.0,64.0
12847,48.0,0,90,11.0,64.0
12848,36.0,0,90,12.0,64.0
12849,72.0,0,90,5.0,64.0
12850,60.0,0,90,5.0,64.0
12851,60.0,0,90,10.0,64.0
12852,79.0,0,90,8.0,64.0
12853,76.0,0,90,8.0,64.0
12854,48.0,24,180,6.0,64.0
12855,48.0,0,90,3.0,64.0
12856,88.0,0,90,7.0,64.0
12857,76.0,120,90,8.0,64.0
12858,79.0,0,90,8.0,64.0
12859,88.0,0,90,7.0,64.0
12860,48.0,0,390,3.0,64.0
12861,88.0,0,390,0.0,64.0
12862,64.0,0,390,4.0,64.0
12863,79.0,0,390,1.0,64.0
12864,76.0,0,390,1.0,64.0
12865,48.0,0,390,6.0,64.0
12866,55.0,0,390,4.0,64.0
12867,52.0,0,390,4.0,64.0
12868,76.0,120,90,8.0,64.0
12869,79.0,0,90,8.0,64.0
12870,67.0,0,390,4.0,64.0
12871,36.0,0,390,12.0,64.0
12872,72.0,0,390,2.0,64.0
12873,88.0,0,90,7.0,64.0
12874,48.0,0,390,11.0,64.0
12875,72.0,0,390,5.0,64.0
12876,60.0,0,390,5.0,64.0
12877,60.0,72,390,10.0,64.0
12878,64.0,0,390,10.0,64.0
12879,79.0,0,90,8.0,64.0
12880,88.0,0,90,7.0,64.0
12881,76.0,120,90,8.0,64.0
12882,76.0,48,90,8.0,64.0
12883,88.0,0,90,7.0,64.0
12884,79.0,0,90,8.0,64.0
12885,76.0,0,90,8.0,64.0
12886,79.0,0,90,8.0,64.0
12887,88.0,120,90,7.0,64.0
12888,79.0,120,90,8.0,64.0
12889,48.0,0,390,6.0,64.0
12890,76.0,0,90,8.0,64.0
12891,79.0,0,390,1.0,64.0
12892,76.0,0,390,1.0,64.0
12893,88.0,72,390,0.0,64.0
12894,48.0,0,390,3.0,64.0
12895,88.0,0,90,7.0,64.0
12896,64.0,0,390,10.0,64.0
12897,60.0,0,390,10.0,64.0
12898,48.0,0,390,11.0,64.0
12899,36.0,0,390,12.0,64.0
12900,72.0,0,390,2.0,64.0
12901,60.0,0,390,5.0,64.0
12902,52.0,0,390,4.0,64.0
12903,67.0,0,390,4.0,64.0
12904,64.0,0,390,4.0,64.0
12905,55.0,0,390,4.0,64.0
12906,72.0,0,390,5.0,64.0
12907,76.0,0,90,8.0,64.0
12908,88.0,0,90,7.0,64.0
12909,79.0,120,90,8.0,64.0
12910,88.0,48,90,7.0,64.0
12911,76.0,0,90,8.0,64.0
12912,79.0,0,90,8.0,64.0
12913,88.0,0,90,7.0,64.0
12914,76.0,120,90,8.0,64.0
12915,79.0,0,90,8.0,64.0
12916,76.0,0,390,1.0,64.0
12917,35.0,0,390,12.0,64.0
12918,79.0,0,390,1.0,64.0
12919,71.0,0,390,2.0,64.0
12920,88.0,0,390,0.0,64.0
12921,88.0,120,90,7.0,64.0
12922,55.0,0,390,4.0,64.0
12923,52.0,0,390,4.0,64.0
12924,79.0,0,90,8.0,64.0
12925,76.0,0,90,8.0,64.0
12926,59.0,0,390,10.0,64.0
12927,64.0,0,390,10.0,64.0
12928,67.0,0,390,4.0,64.0
12929,64.0,0,390,4.0,64.0
12930,47.0,0,390,3.0,64.0
12931,47.0,0,390,11.0,64.0
12932,43.0,0,390,6.0,64.0
12933,55.0,0,390,5.0,64.0
12934,67.0,72,390,5.0,64.0
12935,79.0,0,90,8.0,64.0
12936,88.0,0,90,7.0,64.0
12937,76.0,120,90,8.0,64.0
12938,88.0,48,90,7.0,64.0
12939,76.0,0,90,8.0,64.0
12940,79.0,0,90,8.0,64.0
12941,79.0,0,90,8.0,64.0
12942,76.0,0,90,8.0,64.0
12943,88.0,120,90,7.0,64.0
12944,59.0,0,390,5.0,64.0
12945,71.0,0,390,5.0,64.0
12946,59.0,0,390,4.0,64.0
12947,75.0,0,390,1.0,64.0
12948,75.0,0,90,8.0,64.0
12949,78.0,120,90,8.0,64.0
12950,47.0,0,390,11.0,64.0
12951,78.0,0,390,1.0,64.0
12952,47.0,0,390,4.0,64.0
12953,47.0,72,390,6.0,64.0
12954,47.0,0,390,3.0,64.0
12955,59.0,0,390,10.0,64.0
12956,63.0,0,390,10.0,64.0
12957,35.0,0,390,12.0,64.0
12958,59.0,0,390,2.0,64.0
12959,71.0,0,390,2.0,64.0
12960,35.0,0,390,3.0,64.0
12961,87.0,0,390,0.0,64.0
12962,87.0,0,90,7.0,64.0
12963,75.0,120,90,8.0,64.0
12964,78.0,0,90,8.0,64.0
12965,87.0,0,90,7.0,64.0
12966,75.0,48,90,8.0,64.0
12967,78.0,0,90,8.0,64.0
12968,87.0,0,90,7.0,64.0
12969,78.0,120,90,8.0,64.0
12970,75.0,0,90,8.0,64.0
12971,87.0,0,90,7.0,64.0
12972,40.0,24,180,12.0,64.0
12973,88.0,0,90,7.0,64.0
12974,59.0,0,90,2.0,64.0
12975,67.0,0,90,2.0,64.0
12976,52.0,0,90,3.0,64.0
12977,64.0,0,240,4.0,64.0
12978,76.0,0,240,5.0,64.0
12979,52.0,0,240,4.0,64.0
12980,76.0,96,90,1.0,64.0
12981,88.0,0,90,0.0,64.0
12982,52.0,0,180,11.0,64.0
12983,52.0,0,240,6.0,64.0
12984,79.0,0,90,1.0,64.0
12985,64.0,110,240,5.0,64.0
12986,79.0,0,90,8.0,64.0
12987,64.0,0,90,3.0,64.0
12988,64.0,0,90,10.0,64.0
12989,79.0,0,90,8.0,64.0
12990,64.0,10,90,10.0,64.0
12991,83.0,0,90,7.0,64.0
12992,83.0,0,90,7.0,64.0
12993,78.0,0,90,8.0,64.0
12994,63.0,0,90,10.0,64.0
12995,64.0,0,90,3.0,64.0
12996,67.0,0,90,2.0,64.0
12997,59.0,0,90,2.0,64.0
12998,78.0,96,120,1.0,64.0
12999,52.0,0,90,3.0,64.0
13000,83.0,24,90,0.0,64.0
13001,83.0,24,90,7.0,64.0
13002,79.0,0,90,8.0,64.0
13003,79.0,96,120,1.0,64.0
13004,64.0,0,90,10.0,64.0
13005,81.0,120,90,1.0,64.0
13006,83.0,0,90,0.0,64.0
13007,63.0,0,90,10.0,64.0
13008,78.0,0,90,8.0,64.0
13009,67.0,0,90,2.0,64.0
13010,59.0,0,90,2.0,64.0
13011,83.0,0,90,7.0,64.0
13012,64.0,0,90,3.0,64.0
13013,52.0,0,90,3.0,64.0
13014,64.0,0,90,10.0,64.0
13015,83.0,0,90,7.0,64.0
13016,79.0,120,90,8.0,64.0
13017,81.0,120,90,8.0,64.0
13018,66.0,0,90,10.0,64.0
13019,79.0,0,90,1.0,64.0
13020,83.0,0,90,7.0,64.0
13021,83.0,0,90,7.0,64.0
13022,64.0,120,90,10.0,64.0
13023,79.0,0,90,8.0,64.0
13024,66.0,0,90,2.0,64.0
13025,78.0,0,90,8.0,64.0
13026,78.0,120,90,1.0,64.0
13027,63.0,0,90,10.0,64.0
13028,83.0,0,90,7.0,64.0
13029,47.0,0,90,3.0,64.0
13030,63.0,0,90,3.0,64.0
13031,83.0,0,90,0.0,64.0
13032,59.0,0,90,2.0,64.0
13033,78.0,0,90,8.0,64.0
13034,83.0,120,90,7.0,64.0
13035,63.0,0,90,10.0,64.0
13036,63.0,0,90,3.0,64.0
13037,78.0,24,90,8.0,64.0
13038,66.0,0,90,2.0,64.0
13039,76.0,96,120,1.0,64.0
13040,47.0,0,90,3.0,64.0
13041,59.0,0,90,2.0,64.0
13042,63.0,0,90,10.0,64.0
13043,83.0,0,90,7.0,64.0
13044,83.0,0,90,0.0,64.0
13045,63.0,24,90,10.0,64.0
13046,78.0,0,90,8.0,64.0
13047,78.0,96,120,1.0,64.0
13048,83.0,0,90,7.0,64.0
13049,83.0,0,90,7.0,64.0
13050,78.0,0,90,8.0,64.0
13051,59.0,0,90,2.0,64.0
13052,79.0,0,90,1.0,64.0
13053,47.0,0,90,3.0,64.0
13054,63.0,120,90,3.0,64.0
13055,83.0,0,90,0.0,64.0
13056,66.0,0,90,2.0,64.0
13057,63.0,0,90,10.0,64.0
13058,83.0,0,90,7.0,64.0
13059,63.0,120,90,10.0,64.0
13060,78.0,0,90,8.0,64.0
13061,83.0,0,90,7.0,64.0
13062,78.0,0,90,1.0,64.0
13063,78.0,120,90,8.0,64.0
13064,63.0,0,90,10.0,64.0
13065,83.0,120,90,7.0,64.0
13066,78.0,0,90,8.0,64.0
13067,63.0,0,90,10.0,64.0
13068,59.0,0,90,2.0,64.0
13069,64.0,0,90,3.0,64.0
13070,52.0,0,90,3.0,64.0
13071,79.0,0,90,1.0,64.0
13072,64.0,120,90,10.0,64.0
13073,83.0,0,90,0.0,64.0
13074,67.0,0,90,2.0,64.0
13075,79.0,0,90,8.0,64.0
13076,83.0,0,90,7.0,64.0
13077,79.0,0,90,8.0,64.0
13078,64.0,0,90,10.0,64.0
13079,83.0,120,90,7.0,64.0
13080,83.0,0,90,0.0,64.0
13081,59.0,0,90,2.0,64.0
13082,52.0,24,90,3.0,64.0
13083,64.0,0,90,3.0,64.0
13084,63.0,0,90,10.0,64.0
13085,78.0,96,120,1.0,64.0
13086,67.0,0,90,2.0,64.0
13087,83.0,0,90,7.0,64.0
13088,78.0,0,90,8.0,64.0
13089,83.0,24,90,7.0,64.0
13090,79.0,0,90,8.0,64.0
13091,64.0,0,90,10.0,64.0
13092,79.0,96,120,1.0,64.0
13093,67.0,0,90,2.0,64.0
13094,64.0,120,90,3.0,64.0
13095,52.0,0,90,3.0,64.0
13096,81.0,0,90,1.0,64.0
13097,59.0,0,90,2.0,64.0
13098,63.0,0,90,10.0,64.0
13099,78.0,0,90,8.0,64.0
13100,83.0,0,90,0.0,64.0
13101,83.0,0,90,7.0,64.0
13102,79.0,0,90,8.0,64.0
13103,83.0,0,90,7.0,64.0
13104,64.0,120,90,10.0,64.0
13105,66.0,0,90,10.0,64.0
13106,79.0,0,90,1.0,64.0
13107,83.0,0,90,7.0,64.0
13108,81.0,120,90,8.0,64.0
13109,64.0,0,90,10.0,64.0
13110,79.0,120,90,8.0,64.0
13111,83.0,0,90,7.0,64.0
13112,78.0,0,90,1.0,64.0
13113,75.0,0,90,1.0,64.0
13114,35.0,0,90,12.0,64.0
13115,83.0,0,90,7.0,64.0
13116,63.0,0,90,3.0,64.0
13117,47.0,0,90,3.0,64.0
13118,83.0,0,90,0.0,64.0
13119,78.0,0,90,8.0,64.0
13120,47.0,0,90,11.0,64.0
13121,66.0,120,90,2.0,64.0
13122,59.0,0,90,2.0,64.0
13123,63.0,0,90,10.0,64.0
13124,63.0,0,90,10.0,64.0
13125,83.0,0,90,7.0,64.0
13126,78.0,120,90,8.0,64.0
13127,78.0,0,90,8.0,64.0
13128,35.0,0,90,12.0,64.0
13129,59.0,0,90,2.0,64.0
13130,82.0,96,120,0.0,64.0
13131,63.0,0,90,10.0,64.0
13132,66.0,0,90,2.0,64.0
13133,83.0,0,90,7.0,64.0
13134,63.0,0,90,3.0,64.0
13135,47.0,0,90,3.0,64.0
13136,78.0,0,90,1.0,64.0
13137,75.0,24,90,1.0,64.0
13138,47.0,0,90,11.0,64.0
13139,83.0,96,120,0.0,64.0
13140,63.0,0,90,10.0,64.0
13141,83.0,0,90,7.0,64.0
13142,78.0,24,90,8.0,64.0
13143,78.0,0,90,1.0,64.0
13144,84.0,0,90,0.0,64.0
13145,83.0,0,90,7.0,64.0
13146,47.0,0,90,11.0,64.0
13147,63.0,0,90,3.0,64.0
13148,75.0,120,90,1.0,64.0
13149,66.0,0,90,2.0,64.0
13150,59.0,0,90,2.0,64.0
13151,35.0,0,90,12.0,64.0
13152,47.0,0,90,3.0,64.0
13153,63.0,0,90,10.0,64.0
13154,78.0,0,90,8.0,64.0
13155,63.0,120,90,10.0,64.0
13156,83.0,0,90,7.0,64.0
13157,78.0,0,90,8.0,64.0
13158,78.0,0,90,1.0,64.0
13159,35.0,0,90,12.0,64.0
13160,78.0,0,90,8.0,64.0
13161,47.0,0,90,3.0,64.0
13162,63.0,0,90,3.0,64.0
13163,47.0,0,90,11.0,64.0
13164,83.0,0,90,7.0,64.0
13165,75.0,0,90,1.0,64.0
13166,63.0,0,90,10.0,64.0
13167,66.0,0,90,2.0,64.0
13168,59.0,0,90,2.0,64.0
13169,83.0,120,90,0.0,64.0
13170,63.0,0,90,10.0,64.0
13171,78.0,0,90,8.0,64.0
13172,83.0,120,90,7.0,64.0
13173,52.0,0,240,4.0,64.0
13174,52.0,0,240,6.0,64.0
13175,40.0,0,180,12.0,64.0
13176,79.0,0,90,1.0,64.0
13177,76.0,0,90,1.0,64.0
13178,59.0,0,90,2.0,64.0
13179,67.0,0,90,2.0,64.0
13180,79.0,0,90,8.0,64.0
13181,64.0,110,240,4.0,64.0
13182,83.0,0,90,7.0,64.0
13183,76.0,0,240,5.0,64.0
13184,64.0,0,90,10.0,64.0
13185,52.0,0,90,3.0,64.0
13186,52.0,24,180,11.0,64.0
13187,64.0,0,240,5.0,64.0
13188,64.0,96,90,3.0,64.0
13189,88.0,0,90,0.0,64.0
13190,64.0,10,90,10.0,64.0
13191,83.0,0,90,7.0,64.0
13192,79.0,0,90,8.0,64.0
13193,52.0,24,90,3.0,64.0
13194,64.0,0,90,3.0,64.0
13195,83.0,0,90,7.0,64.0
13196,78.0,96,120,1.0,64.0
13197,78.0,0,90,8.0,64.0
13198,83.0,0,90,0.0,64.0
13199,63.0,0,90,10.0,64.0
13200,59.0,0,90,2.0,64.0
13201,67.0,0,90,2.0,64.0
13202,79.0,24,90,8.0,64.0
13203,64.0,0,90,10.0,64.0
13204,79.0,96,120,1.0,64.0
13205,83.0,0,90,7.0,64.0
13206,83.0,0,90,0.0,64.0
13207,64.0,0,90,3.0,64.0
13208,78.0,0,90,8.0,64.0
13209,81.0,0,90,1.0,64.0
13210,67.0,0,90,2.0,64.0
13211,83.0,0,90,7.0,64.0
13212,59.0,0,90,2.0,64.0
13213,52.0,0,90,3.0,64.0
13214,63.0,120,90,10.0,64.0
13215,79.0,0,90,8.0,64.0
13216,64.0,120,90,10.0,64.0
13217,83.0,0,90,7.0,64.0
13218,83.0,120,90,7.0,64.0
13219,81.0,0,90,8.0,64.0
13220,66.0,0,90,10.0,64.0
13221,79.0,0,90,1.0,64.0
13222,83.0,0,90,7.0,64.0
13223,64.0,0,90,10.0,64.0
13224,79.0,120,90,8.0,64.0
13225,63.0,120,90,3.0,64.0
13226,83.0,0,90,7.0,64.0
13227,59.0,0,90,2.0,64.0
13228,66.0,0,90,2.0,64.0
13229,47.0,0,90,3.0,64.0
13230,78.0,0,90,1.0,64.0
13231,63.0,0,90,10.0,64.0
13232,83.0,0,90,0.0,64.0
13233,78.0,0,90,8.0,64.0
13234,63.0,0,90,10.0,64.0
13235,78.0,0,90,8.0,64.0
13236,83.0,120,90,7.0,64.0
13237,47.0,0,90,3.0,64.0
13238,63.0,0,90,3.0,64.0
13239,83.0,0,90,0.0,64.0
13240,76.0,96,120,1.0,64.0
13241,66.0,0,90,2.0,64.0
13242,63.0,0,90,10.0,64.0
13243,59.0,0,90,2.0,64.0
13244,78.0,0,90,8.0,64.0
13245,83.0,24,90,7.0,64.0
13246,63.0,0,90,10.0,64.0
13247,78.0,24,90,8.0,64.0
13248,78.0,96,120,1.0,64.0
13249,83.0,0,90,7.0,64.0
13250,79.0,0,90,1.0,64.0
13251,83.0,0,90,0.0,64.0
13252,78.0,0,90,8.0,64.0
13253,83.0,0,90,7.0,64.0
13254,63.0,0,90,10.0,64.0
13255,47.0,120,90,3.0,64.0
13256,63.0,0,90,3.0,64.0
13257,59.0,0,90,2.0,64.0
13258,66.0,0,90,2.0,64.0
13259,78.0,0,90,8.0,64.0
13260,63.0,0,90,10.0,64.0
13261,83.0,120,90,7.0,64.0
13262,83.0,0,90,7.0,64.0
13263,78.0,0,90,8.0,64.0
13264,78.0,120,90,1.0,64.0
13265,63.0,0,90,10.0,64.0
13266,83.0,120,90,7.0,64.0
13267,78.0,0,90,8.0,64.0
13268,63.0,0,90,10.0,64.0
13269,83.0,0,90,7.0,64.0
13270,67.0,0,90,2.0,64.0
13271,79.0,0,90,8.0,64.0
13272,59.0,0,90,2.0,64.0
13273,83.0,0,90,0.0,64.0
13274,52.0,0,90,3.0,64.0
13275,64.0,0,90,3.0,64.0
13276,79.0,0,90,1.0,64.0
13277,64.0,120,90,10.0,64.0
13278,83.0,120,90,7.0,64.0
13279,79.0,0,90,8.0,64.0
13280,64.0,0,90,10.0,64.0
13281,63.0,0,90,10.0,64.0
13282,78.0,0,90,8.0,64.0
13283,52.0,24,90,3.0,64.0
13284,64.0,0,90,3.0,64.0
13285,59.0,0,90,2.0,64.0
13286,83.0,0,90,7.0,64.0
13287,83.0,0,90,0.0,64.0
13288,78.0,96,120,1.0,64.0
13289,67.0,0,90,2.0,64.0
13290,64.0,24,90,10.0,64.0
13291,79.0,0,90,8.0,64.0
13292,83.0,0,90,7.0,64.0
13293,79.0,96,120,1.0,64.0
13294,83.0,0,90,0.0,64.0
13295,64.0,0,90,3.0,64.0
13296,63.0,0,90,10.0,64.0
13297,52.0,0,90,3.0,64.0
13298,59.0,0,90,2.0,64.0
13299,67.0,0,90,2.0,64.0
13300,78.0,120,90,8.0,64.0
13301,81.0,0,90,1.0,64.0
13302,83.0,0,90,7.0,64.0
13303,64.0,120,90,10.0,64.0
13304,83.0,0,90,7.0,64.0
13305,79.0,0,90,8.0,64.0
13306,83.0,120,90,7.0,64.0
13307,79.0,0,90,1.0,64.0
13308,81.0,0,90,8.0,64.0
13309,66.0,0,90,10.0,64.0
13310,64.0,0,90,10.0,64.0
13311,79.0,0,90,8.0,64.0
13312,83.0,120,90,7.0,64.0
13313,78.0,0,90,1.0,64.0
13314,47.0,0,90,11.0,64.0
13315,75.0,120,90,1.0,64.0
13316,83.0,0,90,7.0,64.0
13317,83.0,0,90,0.0,64.0
13318,63.0,0,90,10.0,64.0
13319,47.0,0,90,3.0,64.0
13320,78.0,0,90,8.0,64.0
13321,63.0,0,90,3.0,64.0
13322,35.0,0,90,12.0,64.0
13323,66.0,0,90,2.0,64.0
13324,59.0,0,90,2.0,64.0
13325,83.0,120,90,7.0,64.0
13326,78.0,0,90,8.0,64.0
13327,63.0,0,90,10.0,64.0
13328,78.0,0,90,1.0,64.0
13329,66.0,0,90,2.0,64.0
13330,59.0,0,90,2.0,64.0
13331,63.0,0,90,10.0,64.0
13332,35.0,0,90,12.0,64.0
13333,47.0,0,90,3.0,64.0
13334,63.0,0,90,3.0,64.0
13335,83.0,0,90,7.0,64.0
13336,78.0,0,90,8.0,64.0
13337,75.0,0,90,1.0,64.0
13338,82.0,96,120,0.0,64.0
13339,47.0,24,90,11.0,64.0
13340,78.0,0,90,8.0,64.0
13341,63.0,0,90,10.0,64.0
13342,83.0,96,120,0.0,64.0
13343,83.0,24,90,7.0,64.0
13344,66.0,0,90,2.0,64.0
13345,47.0,0,90,11.0,64.0
13346,63.0,0,90,10.0,64.0
13347,59.0,0,90,2.0,64.0
13348,78.0,0,90,8.0,64.0
13349,84.0,0,90,0.0,64.0
13350,83.0,0,90,7.0,64.0
13351,75.0,0,90,1.0,64.0
13352,78.0,0,90,1.0,64.0
13353,35.0,120,90,12.0,64.0
13354,47.0,0,90,3.0,64.0
13355,63.0,0,90,3.0,64.0
13356,83.0,0,90,7.0,64.0
13357,78.0,0,90,8.0,64.0
13358,63.0,120,90,10.0,64.0
13359,47.0,0,90,11.0,64.0
13360,63.0,0,90,10.0,64.0
13361,47.0,0,90,3.0,64.0
13362,63.0,0,90,3.0,64.0
13363,83.0,0,90,0.0,64.0
13364,35.0,0,90,12.0,64.0
13365,78.0,0,90,1.0,64.0
13366,83.0,0,90,7.0,64.0
13367,59.0,0,90,2.0,64.0
13368,66.0,120,90,2.0,64.0
13369,75.0,0,90,1.0,64.0
13370,78.0,0,90,8.0,64.0
13371,63.0,120,90,10.0,64.0
13372,83.0,0,90,7.0,64.0
13373,78.0,0,90,8.0,64.0
13374,40.0,24,180,12.0,64.0
13375,76.0,0,90,1.0,64.0
13376,59.0,0,90,10.0,64.0
13377,83.0,0,90,0.0,64.0
13378,52.0,0,180,11.0,64.0
13379,64.0,0,240,5.0,64.0
13380,52.0,0,90,3.0,64.0
13381,76.0,0,240,5.0,64.0
13382,79.0,0,90,1.0,64.0
13383,64.0,0,90,3.0,64.0
13384,64.0,0,90,10.0,64.0
13385,64.0,0,240,4.0,64.0
13386,59.0,0,90,2.0,64.0
13387,67.0,0,90,2.0,64.0
13388,52.0,110,240,4.0,64.0
13389,79.0,0,90,8.0,64.0
13390,52.0,0,240,6.0,64.0
13391,83.0,96,90,7.0,64.0
13392,83.0,10,90,7.0,64.0
13393,79.0,0,90,8.0,64.0
13394,64.0,0,90,10.0,64.0
13395,59.0,0,90,10.0,64.0
13396,79.0,0,90,8.0,64.0
13397,59.0,24,90,2.0,64.0
13398,64.0,0,90,3.0,64.0
13399,67.0,0,90,2.0,64.0
13400,64.0,0,90,10.0,64.0
13401,59.0,0,90,10.0,64.0
13402,83.0,0,90,7.0,64.0
13403,76.0,0,90,1.0,64.0
13404,79.0,0,90,1.0,64.0
13405,52.0,0,90,3.0,64.0
13406,82.0,96,120,0.0,64.0
13407,83.0,96,120,0.0,64.0
13408,79.0,0,90,8.0,64.0
13409,83.0,0,90,7.0,64.0
13410,64.0,0,90,10.0,64.0
13411,59.0,24,90,10.0,64.0
13412,84.0,0,90,0.0,64.0
13413,63.0,0,90,10.0,64.0
13414,47.0,24,180,11.0,64.0
13415,63.0,0,90,3.0,64.0
13416,59.0,0,90,2.0,64.0
13417,66.0,0,90,2.0,64.0
13418,47.0,0,90,3.0,64.0
13419,83.0,0,90,7.0,64.0
13420,35.0,0,180,12.0,64.0
13421,78.0,0,90,8.0,64.0
13422,78.0,96,90,1.0,64.0
13423,75.0,0,90,1.0,64.0
13424,63.0,120,90,10.0,64.0
13425,78.0,0,90,8.0,64.0
13426,83.0,0,90,7.0,64.0
13427,59.0,0,90,2.0,64.0
13428,63.0,0,90,3.0,64.0
13429,75.0,0,90,1.0,64.0
13430,83.0,0,90,0.0,64.0
13431,78.0,0,90,1.0,64.0
13432,66.0,0,90,2.0,64.0
13433,83.0,0,90,7.0,64.0
13434,47.0,0,90,3.0,64.0
13435,78.0,120,90,8.0,64.0
13436,63.0,0,90,10.0,64.0
13437,83.0,120,90,7.0,64.0
13438,63.0,0,90,10.0,64.0
13439,78.0,0,90,8.0,64.0
13440,64.0,0,90,3.0,64.0
13441,52.0,24,180,11.0,64.0
13442,64.0,0,90,10.0,64.0
13443,59.0,0,90,10.0,64.0
13444,52.0,110,240,6.0,64.0
13445,76.0,0,90,1.0,64.0
13446,52.0,0,240,4.0,64.0
13447,79.0,0,90,1.0,64.0
13448,52.0,0,90,3.0,64.0
13449,59.0,0,90,2.0,64.0
13450,67.0,96,90,2.0,64.0
13451,76.0,0,240,5.0,64.0
13452,64.0,0,240,5.0,64.0
13453,79.0,0,90,8.0,64.0
13454,64.0,0,240,4.0,64.0
13455,83.0,0,90,0.0,64.0
13456,83.0,0,90,7.0,64.0
13457,40.0,0,180,12.0,64.0
13458,79.0,10,90,8.0,64.0
13459,83.0,0,90,7.0,64.0
13460,59.0,0,90,10.0,64.0
13461,64.0,0,90,10.0,64.0
13462,79.0,0,90,8.0,64.0
13463,76.0,0,90,1.0,64.0
13464,79.0,0,90,1.0,64.0
13465,67.0,0,90,2.0,64.0
13466,59.0,0,90,2.0,64.0
13467,83.0,0,90,7.0,64.0
13468,52.0,0,90,3.0,64.0
13469,82.0,96,120,0.0,64.0
13470,64.0,0,90,3.0,64.0
13471,59.0,24,90,10.0,64.0
13472,64.0,0,90,10.0,64.0
13473,64.0,0,90,10.0,64.0
13474,83.0,0,90,7.0,64.0
13475,83.0,96,120,0.0,64.0
13476,59.0,24,90,10.0,64.0
13477,79.0,0,90,8.0,64.0
13478,84.0,0,90,0.0,64.0
13479,35.0,0,180,12.0,64.0
13480,47.0,24,180,11.0,64.0
13481,83.0,0,90,7.0,64.0
13482,66.0,0,90,2.0,64.0
13483,63.0,0,90,3.0,64.0
13484,78.0,0,90,1.0,64.0
13485,47.0,0,90,3.0,64.0
13486,78.0,0,90,8.0,64.0
13487,59.0,0,90,2.0,64.0
13488,63.0,96,90,10.0,64.0
13489,75.0,0,90,1.0,64.0
13490,78.0,0,90,8.0,64.0
13491,83.0,0,90,7.0,64.0
13492,63.0,120,90,10.0,64.0
13493,66.0,120,90,2.0,64.0
13494,83.0,0,90,7.0,64.0
13495,78.0,0,90,8.0,64.0
13496,59.0,0,90,2.0,64.0
13497,47.0,0,90,3.0,64.0
13498,83.0,0,90,0.0,64.0
13499,78.0,0,90,1.0,64.0
13500,63.0,0,90,3.0,64.0
13501,63.0,0,90,10.0,64.0
13502,75.0,0,90,1.0,64.0
13503,83.0,120,90,7.0,64.0
13504,63.0,0,90,10.0,64.0
13505,78.0,0,90,8.0,64.0
13506,59.0,0,90,2.0,64.0
13507,52.0,0,240,6.0,64.0
13508,64.0,0,240,4.0,64.0
13509,52.0,0,240,4.0,64.0
13510,76.0,0,240,5.0,64.0
13511,52.0,0,90,3.0,64.0
13512,64.0,0,90,3.0,64.0
13513,79.0,0,90,8.0,64.0
13514,83.0,0,90,0.0,64.0
13515,52.0,24,180,11.0,64.0
13516,83.0,0,90,7.0,64.0
13517,40.0,0,180,12.0,64.0
13518,64.0,110,240,5.0,64.0
13519,79.0,0,90,1.0,64.0
13520,67.0,96,90,2.0,64.0
13521,64.0,0,90,10.0,64.0
13522,76.0,0,90,1.0,64.0
13523,83.0,0,90,7.0,64.0
13524,64.0,0,90,10.0,64.0
13525,79.0,10,90,8.0,64.0
13526,79.0,0,90,8.0,64.0
13527,64.0,0,90,10.0,64.0
13528,64.0,0,90,3.0,64.0
13529,83.0,120,90,7.0,64.0
13530,52.0,0,90,3.0,64.0
13531,79.0,0,90,1.0,64.0
13532,76.0,0,90,1.0,64.0
13533,59.0,0,90,2.0,64.0
13534,67.0,0,90,2.0,64.0
13535,83.0,0,90,0.0,64.0
13536,64.0,0,90,10.0,64.0
13537,79.0,0,90,8.0,64.0
13538,83.0,120,90,7.0,64.0
13539,35.0,0,180,12.0,64.0
13540,87.0,0,90,7.0,64.0
13541,87.0,0,90,0.0,64.0
13542,63.0,0,90,3.0,64.0
13543,47.0,24,180,11.0,64.0
13544,75.0,0,90,1.0,64.0
13545,83.0,96,90,0.0,64.0
13546,78.0,0,90,1.0,64.0
13547,78.0,0,90,8.0,64.0
13548,47.0,0,90,3.0,64.0
13549,59.0,0,90,10.0,64.0
13550,66.0,0,90,2.0,64.0
13551,59.0,0,90,2.0,64.0
13552,59.0,0,90,10.0,64.0
13553,87.0,0,90,7.0,64.0
13554,78.0,120,90,8.0,64.0
13555,87.0,0,90,0.0,64.0
13556,83.0,0,90,0.0,64.0
13557,78.0,0,90,1.0,64.0
13558,75.0,0,90,1.0,64.0
13559,78.0,0,90,8.0,64.0
13560,66.0,120,90,2.0,64.0
13561,59.0,0,90,2.0,64.0
13562,47.0,0,90,3.0,64.0
13563,63.0,0,90,3.0,64.0
13564,87.0,0,90,7.0,64.0
13565,59.0,0,90,10.0,64.0
13566,59.0,0,90,10.0,64.0
13567,78.0,120,90,8.0,64.0
13568,87.0,0,90,7.0,64.0
13569,79.0,0,90,1.0,64.0
13570,67.0,0,90,2.0,64.0
13571,59.0,0,90,2.0,64.0
13572,88.0,0,90,7.0,64.0
13573,76.0,0,90,1.0,64.0
13574,52.0,0,90,3.0,64.0
13575,64.0,0,90,3.0,64.0
13576,79.0,0,90,8.0,64.0
13577,52.0,0,180,11.0,64.0
13578,40.0,24,180,12.0,64.0
13579,76.0,0,240,5.0,64.0
13580,83.0,96,90,0.0,64.0
13581,52.0,0,240,6.0,64.0
13582,64.0,110,240,5.0,64.0
13583,88.0,0,90,0.0,64.0
13584,52.0,0,240,4.0,64.0
13585,64.0,0,240,4.0,64.0
13586,64.0,0,90,10.0,64.0
13587,88.0,0,90,7.0,64.0
13588,79.0,10,90,8.0,64.0
13589,64.0,0,90,10.0,64.0
13590,79.0,0,90,8.0,64.0
13591,64.0,0,90,3.0,64.0
13592,52.0,0,90,3.0,64.0
13593,88.0,120,90,7.0,64.0
13594,88.0,0,90,0.0,64.0
13595,83.0,0,90,0.0,64.0
13596,79.0,0,90,1.0,64.0
13597,76.0,0,90,1.0,64.0
13598,67.0,0,90,2.0,64.0
13599,59.0,0,90,2.0,64.0
13600,64.0,0,90,10.0,64.0
13601,64.0,0,90,10.0,64.0
13602,88.0,120,90,7.0,64.0
13603,79.0,0,90,8.0,64.0
13604,66.0,0,90,2.0,64.0
13605,78.0,0,90,8.0,64.0
13606,63.0,0,90,3.0,64.0
13607,47.0,0,90,3.0,64.0
13608,83.0,0,90,0.0,64.0
13609,75.0,0,90,1.0,64.0
13610,78.0,0,90,1.0,64.0
13611,35.0,0,180,12.0,64.0
13612,87.0,0,90,0.0,64.0
13613,59.0,0,90,2.0,64.0
13614,59.0,0,90,10.0,64.0
13615,47.0,24,180,11.0,64.0
13616,87.0,96,90,7.0,64.0
13617,78.0,0,90,8.0,64.0
13618,59.0,120,90,10.0,64.0
13619,87.0,0,90,7.0,64.0
13620,47.0,0,90,3.0,64.0
13621,63.0,0,90,3.0,64.0
13622,87.0,0,90,7.0,64.0
13623,78.0,0,90,8.0,64.0
13624,75.0,0,90,1.0,64.0
13625,87.0,0,90,0.0,64.0
13626,78.0,0,90,1.0,64.0
13627,59.0,0,90,2.0,64.0
13628,66.0,0,90,2.0,64.0
13629,59.0,120,90,10.0,64.0
13630,83.0,0,90,0.0,64.0
13631,87.0,0,90,7.0,64.0
13632,78.0,216,90,8.0,64.0
13633,59.0,0,90,10.0,64.0
13634,52.0,768,390,6.0,64.0
13635,64.0,0,180,4.0,64.0
13636,52.0,0,180,4.0,64.0
13637,88.0,0,180,7.0,64.0
13638,59.0,0,180,2.0,64.0
13639,88.0,0,180,0.0,64.0
13640,52.0,0,180,11.0,64.0
13641,64.0,0,180,10.0,64.0
13642,83.0,0,180,0.0,64.0
13643,76.0,0,180,1.0,64.0
13644,40.0,0,180,12.0,64.0
13645,67.0,192,180,2.0,64.0
13646,64.0,0,180,5.0,64.0
13647,52.0,0,180,3.0,64.0
13648,76.0,0,180,8.0,64.0
13649,79.0,0,180,8.0,64.0
13650,76.0,0,180,5.0,64.0
13651,79.0,0,180,1.0,64.0
13652,64.0,0,180,3.0,64.0
13653,88.0,0,180,0.0,64.0
13654,64.0,0,180,3.0,64.0
13655,52.0,0,180,3.0,64.0
13656,52.0,288,390,6.0,64.0
13657,64.0,0,180,1.0,64.0
13658,76.0,0,180,1.0,64.0
13659,64.0,0,180,5.0,64.0
13660,76.0,48,180,5.0,64.0
13661,64.0,0,180,4.0,64.0
13662,64.0,0,180,10.0,64.0
13663,76.0,0,180,7.0,64.0
13664,40.0,0,180,12.0,64.0
13665,76.0,0,180,2.0,64.0
13666,76.0,0,180,0.0,64.0
13667,64.0,144,240,2.0,64.0
13668,52.0,0,180,4.0,64.0
13669,64.0,0,180,8.0,64.0
13670,52.0,0,180,11.0,64.0
13671,52.0,0,180,11.0,64.0
13672,40.0,0,180,12.0,64.0
13673,64.0,0,180,1.0,64.0
13674,76.0,0,180,7.0,64.0
13675,52.0,192,180,4.0,64.0
13676,64.0,0,180,10.0,64.0
13677,64.0,0,180,4.0,64.0
13678,76.0,0,180,5.0,64.0
13679,64.0,0,180,3.0,64.0
13680,52.0,0,180,3.0,64.0
13681,52.0,288,390,6.0,64.0
13682,76.0,0,180,2.0,64.0
13683,64.0,0,180,2.0,64.0
13684,76.0,0,180,0.0,64.0
13685,76.0,0,180,1.0,64.0
13686,64.0,0,180,5.0,64.0
13687,64.0,0,180,8.0,64.0
13688,88.0,0,180,0.0,64.0
13689,76.0,0,180,1.0,64.0
13690,76.0,0,180,5.0,64.0
13691,64.0,0,180,4.0,64.0
13692,76.0,0,180,0.0,64.0
13693,88.0,0,180,0.0,64.0
13694,64.0,0,180,5.0,64.0
13695,64.0,0,180,10.0,64.0
13696,52.0,192,180,4.0,64.0
13697,64.0,0,180,1.0,64.0
13698,76.0,0,180,2.0,64.0
13699,64.0,0,180,8.0,64.0
13700,52.0,0,180,11.0,64.0
13701,40.0,0,180,12.0,64.0
13702,64.0,0,180,2.0,64.0
13703,76.0,0,180,7.0,64.0
13704,52.0,768,390,6.0,64.0
13705,52.0,0,180,3.0,64.0
13706,64.0,0,180,3.0,64.0
13707,64.0,0,180,10.0,64.0
13708,88.0,0,180,0.0,64.0
13709,52.0,0,180,11.0,64.0
13710,76.0,0,180,0.0,64.0
13711,76.0,0,180,2.0,64.0
13712,40.0,0,180,12.0,64.0
13713,64.0,0,180,2.0,64.0
13714,76.0,0,180,5.0,64.0
13715,76.0,0,180,1.0,64.0
13716,64.0,0,180,1.0,64.0
13717,52.0,192,180,4.0,64.0
13718,52.0,1536,390,6.0,64.0
13719,64.0,0,180,8.0,64.0
13720,76.0,0,180,7.0,64.0
13721,64.0,0,180,5.0,64.0
13722,64.0,0,180,3.0,64.0
13723,52.0,0,180,3.0,64.0
13724,64.0,0,180,4.0,64.0
13725,79.0,0,4680,1.0,64.0
13726,88.0,0,4680,0.0,64.0
13727,76.0,96,4680,1.0,64.0
13728,64.0,1920,960,2.0,64.0
13729,76.0,0,960,2.0,64.0
13730,71.0,0,2880,2.0,64.0
13731,59.0,0,2880,2.0,64.0
13732,67.0,0,960,4.0,64.0
13733,67.0,96,1920,5.0,64.0
13734,79.0,0,1920,5.0,64.0
13735,55.0,960,960,4.0,64.0
13736,52.0,0,960,4.0,64.0
13737,64.0,0,960,4.0,64.0
13738,60.0,0,840,4.0,64.0
13739,48.0,0,840,4.0,64.0
13740,60.0,120,90,10.0,64.0
13741,72.0,0,840,2.0,64.0
13742,64.0,0,840,5.0,64.0
13743,76.0,0,840,5.0,64.0
13744,79.0,48,780,7.0,64.0
13745,64.0,0,90,8.0,64.0
13746,60.0,0,840,2.0,64.0
13747,65.0,0,90,8.0,64.0
13748,62.0,120,90,10.0,64.0
13749,67.0,120,90,8.0,64.0
13750,64.0,0,90,10.0,64.0
13751,69.0,120,90,8.0,64.0
13752,65.0,0,90,10.0,64.0
13753,67.0,0,90,10.0,64.0
13754,71.0,120,90,8.0,64.0
13755,69.0,0,90,10.0,64.0
13756,72.0,72,90,8.0,64.0
13757,74.0,0,90,8.0,64.0
13758,71.0,24,90,10.0,64.0
13759,72.0,120,90,10.0,64.0
13760,76.0,0,90,8.0,64.0
13761,72.0,0,90,10.0,64.0
13762,76.0,120,90,8.0,64.0
13763,76.0,96,240,7.0,64.0
13764,74.0,24,90,10.0,64.0
13765,77.0,0,90,8.0,64.0
13766,76.0,24,90,8.0,64.0
13767,77.0,96,120,7.0,64.0
13768,72.0,0,90,10.0,64.0
13769,74.0,24,90,8.0,64.0
13770,79.0,96,120,7.0,64.0
13771,71.0,0,90,10.0,64.0
13772,72.0,0,90,10.0,64.0
13773,81.0,0,90,7.0,64.0
13774,76.0,120,90,8.0,64.0
13775,76.0,0,90,10.0,64.0
13776,79.0,120,90,8.0,64.0
13777,74.0,120,90,10.0,64.0
13778,81.0,0,90,7.0,64.0
13779,77.0,0,90,8.0,64.0
13780,76.0,0,90,8.0,64.0
13781,72.0,120,90,10.0,64.0
13782,74.0,0,90,8.0,64.0
13783,74.0,96,240,7.0,64.0
13784,72.0,120,90,10.0,64.0
13785,76.0,24,90,8.0,64.0
13786,72.0,0,90,10.0,64.0
13787,71.0,0,90,10.0,64.0
13788,74.0,24,90,8.0,64.0
13789,76.0,96,120,7.0,64.0
13790,69.0,24,90,10.0,64.0
13791,77.0,96,120,7.0,64.0
13792,72.0,0,90,8.0,64.0
13793,79.0,0,90,7.0,64.0
13794,74.0,120,90,8.0,64.0
13795,71.0,0,90,10.0,64.0
13796,74.0,0,90,10.0,64.0
13797,77.0,120,90,8.0,64.0
13798,72.0,0,90,10.0,64.0
13799,76.0,120,90,8.0,64.0
13800,67.0,0,90,7.0,64.0
13801,71.0,0,90,10.0,64.0
13802,74.0,120,90,8.0,64.0
13803,71.0,0,90,10.0,64.0
13804,72.0,96,240,7.0,64.0
13805,72.0,120,90,8.0,64.0
13806,71.0,0,90,10.0,64.0
13807,74.0,24,90,8.0,64.0
13808,74.0,96,120,7.0,64.0
13809,69.0,0,90,10.0,64.0
13810,72.0,24,90,8.0,64.0
13811,71.0,0,90,8.0,64.0
13812,76.0,96,120,7.0,64.0
13813,68.0,24,90,10.0,64.0
13814,77.0,0,90,7.0,64.0
13815,72.0,0,90,8.0,64.0
13816,69.0,120,90,10.0,64.0
13817,76.0,0,90,8.0,64.0
13818,72.0,120,90,10.0,64.0
13819,74.0,120,90,8.0,64.0
13820,71.0,0,90,10.0,64.0
13821,77.0,0,90,7.0,64.0
13822,72.0,0,90,8.0,64.0
13823,69.0,120,90,10.0,64.0
13824,71.0,96,240,7.0,64.0
13825,71.0,120,90,8.0,64.0
13826,67.0,0,90,10.0,64.0
13827,69.0,24,90,10.0,64.0
13828,72.0,0,90,8.0,64.0
13829,72.0,96,120,7.0,64.0
13830,71.0,0,90,8.0,64.0
13831,67.0,24,90,10.0,64.0
13832,69.0,0,90,8.0,64.0
13833,74.0,96,120,7.0,64.0
13834,66.0,24,90,10.0,64.0
13835,76.0,0,90,7.0,64.0
13836,67.0,120,90,10.0,64.0
13837,71.0,0,90,8.0,64.0
13838,71.0,120,90,10.0,64.0
13839,74.0,0,90,8.0,64.0
13840,69.0,0,90,10.0,64.0
13841,64.0,0,90,7.0,64.0
13842,72.0,120,90,8.0,64.0
13843,71.0,120,90,8.0,64.0
13844,67.0,0,90,10.0,64.0
13845,69.0,96,240,7.0,64.0
13846,62.0,48,780,11.0,64.0
13847,67.0,0,90,10.0,64.0
13848,69.0,120,90,8.0,64.0
13849,67.0,24,90,10.0,64.0
13850,69.0,0,90,8.0,64.0
13851,71.0,96,120,7.0,64.0
13852,69.0,24,90,8.0,64.0
13853,67.0,0,90,10.0,64.0
13854,67.0,24,90,10.0,64.0
13855,72.0,96,120,7.0,64.0
13856,69.0,0,90,8.0,64.0
13857,74.0,120,90,7.0,64.0
13858,69.0,0,90,8.0,64.0
13859,66.0,0,90,10.0,64.0
13860,69.0,72,90,8.0,64.0
13861,66.0,0,90,10.0,64.0
13862,74.0,0,90,7.0,64.0
13863,66.0,120,90,10.0,64.0
13864,69.0,0,90,8.0,64.0
13865,69.0,0,90,8.0,64.0
13866,66.0,120,90,10.0,64.0
13867,67.0,120,90,8.0,64.0
13868,67.0,0,90,7.0,64.0
13869,59.0,96,240,11.0,64.0
13870,67.0,24,90,8.0,64.0
13871,79.0,0,90,7.0,64.0
13872,67.0,0,90,8.0,64.0
13873,60.0,96,120,11.0,64.0
13874,79.0,24,90,7.0,64.0
13875,62.0,96,120,11.0,64.0
13876,67.0,0,90,8.0,64.0
13877,79.0,24,90,7.0,64.0
13878,64.0,0,90,11.0,64.0
13879,79.0,120,90,7.0,64.0
13880,67.0,0,90,8.0,64.0
13881,67.0,0,90,8.0,64.0
13882,77.0,120,90,7.0,64.0
13883,64.0,120,90,11.0,64.0
13884,76.0,0,90,7.0,64.0
13885,69.0,0,90,8.0,64.0
13886,74.0,120,90,7.0,64.0
13887,71.0,0,90,8.0,64.0
13888,86.0,48,780,0.0,64.0
13889,57.0,96,240,11.0,64.0
13890,72.0,0,90,7.0,64.0
13891,72.0,120,90,8.0,64.0
13892,76.0,0,90,8.0,64.0
13893,84.0,24,90,7.0,64.0
13894,76.0,24,90,8.0,64.0
13895,84.0,0,90,7.0,64.0
13896,59.0,96,120,11.0,64.0
13897,76.0,0,90,8.0,64.0
13898,60.0,96,120,11.0,64.0
13899,84.0,24,90,7.0,64.0
13900,83.0,0,90,7.0,64.0
13901,62.0,120,90,11.0,64.0
13902,74.0,0,90,8.0,64.0
13903,72.0,72,90,8.0,64.0
13904,81.0,0,90,7.0,64.0
13905,79.0,0,90,7.0,64.0
13906,71.0,0,90,8.0,64.0
13907,50.0,120,90,11.0,64.0
13908,78.0,0,90,7.0,64.0
13909,69.0,120,90,8.0,64.0
13910,83.0,120,90,7.0,64.0
13911,83.0,96,240,0.0,64.0
13912,55.0,0,240,11.0,64.0
13913,62.0,0,90,10.0,64.0
13914,71.0,0,90,8.0,64.0
13915,83.0,0,90,7.0,64.0
13916,79.0,24,90,8.0,64.0
13917,62.0,0,90,10.0,64.0
13918,64.0,0,90,10.0,64.0
13919,83.0,24,90,7.0,64.0
13920,57.0,0,120,11.0,64.0
13921,79.0,0,90,8.0,64.0
13922,84.0,96,120,0.0,64.0
13923,65.0,0,90,10.0,64.0
13924,86.0,0,120,0.0,64.0
13925,59.0,96,120,11.0,64.0
13926,83.0,24,90,7.0,64.0
13927,79.0,0,90,8.0,64.0
13928,79.0,0,90,8.0,64.0
13929,60.0,0,90,11.0,64.0
13930,88.0,0,90,0.0,64.0
13931,81.0,0,90,7.0,64.0
13932,67.0,120,90,10.0,64.0
13933,67.0,120,90,10.0,64.0
13934,81.0,0,90,7.0,64.0
13935,79.0,0,90,8.0,64.0
13936,79.0,120,90,8.0,64.0
13937,81.0,0,90,7.0,64.0
13938,67.0,0,90,10.0,64.0
13939,60.0,0,90,11.0,64.0
13940,88.0,0,90,0.0,64.0
13941,81.0,0,90,7.0,64.0
13942,67.0,0,90,10.0,64.0
13943,79.0,120,90,8.0,64.0
13944,81.0,0,90,7.0,64.0
13945,81.0,96,240,0.0,64.0
13946,62.0,0,90,11.0,64.0
13947,60.0,0,90,10.0,64.0
13948,79.0,120,90,8.0,64.0
13949,60.0,24,90,10.0,64.0
13950,79.0,0,90,8.0,64.0
13951,81.0,0,90,7.0,64.0
13952,62.0,0,90,10.0,64.0
13953,62.0,0,90,11.0,64.0
13954,79.0,24,90,8.0,64.0
13955,81.0,0,90,7.0,64.0
13956,83.0,96,120,0.0,64.0
13957,81.0,0,90,7.0,64.0
13958,79.0,0,90,8.0,64.0
13959,64.0,24,90,10.0,64.0
13960,84.0,96,120,0.0,64.0
13961,65.0,120,90,10.0,64.0
13962,86.0,0,90,0.0,64.0
13963,77.0,0,90,8.0,64.0
13964,62.0,0,90,11.0,64.0
13965,81.0,0,90,7.0,64.0
13966,77.0,0,90,8.0,64.0
13967,81.0,0,90,7.0,64.0
13968,65.0,120,90,10.0,64.0
13969,65.0,0,90,10.0,64.0
13970,81.0,120,90,7.0,64.0
13971,77.0,0,90,8.0,64.0
13972,60.0,0,90,11.0,64.0
13973,86.0,0,90,0.0,64.0
13974,77.0,0,90,8.0,64.0
13975,65.0,0,90,10.0,64.0
13976,81.0,120,90,7.0,64.0
13977,79.0,0,90,0.0,64.0
13978,77.0,0,90,8.0,64.0
13979,67.0,24,180,10.0,64.0
13980,55.0,0,780,3.0,64.0
13981,59.0,96,90,11.0,64.0
13982,43.0,48,780,12.0,64.0
13983,79.0,0,90,7.0,64.0
13984,79.0,0,90,7.0,64.0
13985,77.0,120,90,8.0,64.0
13986,76.0,0,90,8.0,64.0
13987,84.0,0,90,0.0,64.0
13988,60.0,120,90,11.0,64.0
13989,84.0,0,90,7.0,64.0
13990,76.0,0,90,8.0,64.0
13991,84.0,120,90,7.0,64.0
13992,74.0,0,90,8.0,64.0
13993,67.0,120,90,11.0,64.0
13994,84.0,0,90,0.0,64.0
13995,84.0,0,90,7.0,64.0
13996,74.0,72,90,8.0,64.0
13997,84.0,0,90,7.0,64.0
13998,83.0,120,90,7.0,64.0
13999,55.0,0,90,11.0,64.0
14000,83.0,0,90,0.0,64.0
14001,74.0,0,90,8.0,64.0
14002,83.0,120,90,7.0,64.0
14003,74.0,0,90,8.0,64.0
14004,48.0,48,780,4.0,64.0
14005,60.0,0,780,4.0,64.0
14006,84.0,0,780,0.0,64.0
14007,60.0,0,780,2.0,64.0
14008,72.0,0,780,2.0,64.0
14009,72.0,0,780,1.0,64.0
14010,52.0,0,240,3.0,64.0
14011,72.0,0,90,8.0,64.0
14012,52.0,0,240,11.0,64.0
14013,40.0,96,240,12.0,64.0
14014,84.0,120,90,7.0,64.0
14015,84.0,24,90,7.0,64.0
14016,67.0,0,90,8.0,64.0
14017,53.0,0,120,11.0,64.0
14018,84.0,24,90,7.0,64.0
14019,53.0,0,120,3.0,64.0
14020,69.0,0,90,8.0,64.0
14021,41.0,96,120,12.0,64.0
14022,84.0,0,90,7.0,64.0
14023,70.0,24,90,8.0,64.0
14024,55.0,0,120,3.0,64.0
14025,55.0,96,120,11.0,64.0
14026,43.0,0,120,12.0,64.0
14027,84.0,0,90,7.0,64.0
14028,57.0,96,90,3.0,64.0
14029,57.0,0,90,11.0,64.0
14030,72.0,24,180,8.0,64.0
14031,45.0,0,90,12.0,64.0
14032,84.0,72,90,7.0,64.0
14033,45.0,0,90,12.0,64.0
14034,57.0,0,90,11.0,64.0
14035,57.0,0,90,3.0,64.0
14036,84.0,96,90,7.0,64.0
14037,72.0,24,180,8.0,64.0
14038,84.0,120,90,7.0,64.0
14039,60.0,0,780,4.0,64.0
14040,48.0,0,780,4.0,64.0
14041,53.0,96,240,3.0,64.0
14042,84.0,120,90,7.0,64.0
14043,77.0,0,780,8.0,64.0
14044,41.0,0,240,12.0,64.0
14045,72.0,0,780,2.0,64.0
14046,60.0,0,780,2.0,64.0
14047,72.0,48,780,1.0,64.0
14048,53.0,0,240,11.0,64.0
14049,84.0,0,780,0.0,64.0
14050,84.0,24,90,7.0,64.0
14051,55.0,96,120,3.0,64.0
14052,55.0,0,120,11.0,64.0
14053,84.0,24,90,7.0,64.0
14054,43.0,0,120,12.0,64.0
14055,57.0,0,120,3.0,64.0
14056,84.0,24,90,7.0,64.0
14057,57.0,96,120,11.0,64.0
14058,45.0,0,120,12.0,64.0
14059,59.0,0,90,3.0,64.0
14060,84.0,0,90,7.0,64.0
14061,59.0,120,90,11.0,64.0
14062,47.0,0,90,12.0,64.0
14063,84.0,72,90,7.0,64.0
14064,47.0,120,90,12.0,64.0
14065,59.0,0,90,11.0,64.0
14066,59.0,0,90,3.0,64.0
14067,84.0,0,90,7.0,64.0
14068,84.0,120,90,7.0,64.0
14069,55.0,0,240,11.0,64.0
14070,48.0,0,780,4.0,64.0
14071,60.0,0,780,4.0,64.0
14072,76.0,0,240,8.0,64.0
14073,43.0,96,240,12.0,64.0
14074,72.0,0,780,2.0,64.0
14075,72.0,48,780,10.0,64.0
14076,84.0,120,90,7.0,64.0
14077,84.0,0,780,0.0,64.0
14078,72.0,0,780,1.0,64.0
14079,60.0,0,780,2.0,64.0
14080,55.0,0,240,3.0,64.0
14081,84.0,24,90,7.0,64.0
14082,77.0,0,120,8.0,64.0
14083,57.0,96,120,3.0,64.0
14084,57.0,0,120,11.0,64.0
14085,84.0,24,90,7.0,64.0
14086,45.0,0,120,12.0,64.0
14087,47.0,0,120,12.0,64.0
14088,79.0,0,120,8.0,64.0
14089,59.0,96,120,11.0,64.0
14090,59.0,0,120,3.0,64.0
14091,84.0,24,90,7.0,64.0
14092,81.0,0,90,8.0,64.0
14093,84.0,0,90,7.0,64.0
14094,60.0,120,90,11.0,64.0
14095,60.0,0,90,3.0,64.0
14096,48.0,0,90,12.0,64.0
14097,84.0,72,90,7.0,64.0
14098,60.0,0,90,11.0,64.0
14099,60.0,0,90,3.0,64.0
14100,81.0,0,90,8.0,64.0
14101,48.0,120,90,12.0,64.0
14102,84.0,0,90,7.0,64.0
14103,84.0,120,90,7.0,64.0
14104,65.0,120,90,8.0,64.0
14105,84.0,0,780,1.0,64.0
14106,72.0,0,780,1.0,64.0
14107,77.0,0,780,7.0,64.0
14108,45.0,0,240,12.0,64.0
14109,69.0,0,240,10.0,64.0
14110,72.0,0,780,2.0,64.0
14111,60.0,0,780,2.0,64.0
14112,72.0,72,390,5.0,64.0
14113,60.0,0,390,5.0,64.0
14114,57.0,0,240,11.0,64.0
14115,60.0,0,780,4.0,64.0
14116,65.0,0,780,4.0,64.0
14117,48.0,0,780,4.0,64.0
14118,57.0,96,240,3.0,64.0
14119,84.0,0,780,0.0,64.0
14120,48.0,0,390,6.0,64.0
14121,89.0,48,780,0.0,64.0
14122,60.0,24,90,8.0,64.0
14123,70.0,24,120,10.0,64.0
14124,59.0,0,120,11.0,64.0
14125,62.0,24,90,8.0,64.0
14126,59.0,0,120,3.0,64.0
14127,47.0,0,120,12.0,64.0
14128,48.0,0,120,12.0,64.0
14129,60.0,96,120,11.0,64.0
14130,72.0,0,120,10.0,64.0
14131,64.0,24,90,8.0,64.0
14132,60.0,0,120,3.0,64.0
14133,62.0,0,90,3.0,64.0
14134,74.0,0,90,10.0,64.0
14135,62.0,0,90,11.0,64.0
14136,50.0,0,90,12.0,64.0
14137,65.0,120,90,8.0,64.0
14138,65.0,72,90,8.0,64.0
14139,65.0,0,90,8.0,64.0
14140,50.0,120,90,12.0,64.0
14141,62.0,0,90,3.0,64.0
14142,74.0,0,90,10.0,64.0
14143,62.0,0,90,11.0,64.0
14144,65.0,120,90,8.0,64.0
14145,47.0,0,240,12.0,64.0
14146,79.0,0,240,0.0,64.0
14147,67.0,0,390,5.0,64.0
14148,55.0,0,390,5.0,64.0
14149,59.0,0,240,11.0,64.0
14150,55.0,0,390,4.0,64.0
14151,62.0,0,390,4.0,64.0
14152,62.0,0,480,2.0,64.0
14153,86.0,0,240,0.0,64.0
14154,70.0,96,240,10.0,64.0
14155,65.0,0,480,2.0,64.0
14156,43.0,72,390,6.0,64.0
14157,74.0,0,240,7.0,64.0
14158,74.0,0,240,1.0,64.0
14159,67.0,0,240,1.0,64.0
14160,74.0,120,90,8.0,64.0
14161,59.0,0,240,3.0,64.0
14162,74.0,24,90,8.0,64.0
14163,88.0,0,120,0.0,64.0
14164,60.0,0,120,3.0,64.0
14165,60.0,0,120,11.0,64.0
14166,76.0,0,120,7.0,64.0
14167,72.0,24,90,8.0,64.0
14168,48.0,24,120,12.0,64.0
14169,72.0,0,120,10.0,64.0
14170,67.0,0,120,1.0,64.0
14171,76.0,0,120,1.0,64.0
14172,74.0,0,120,10.0,64.0
14173,62.0,0,120,11.0,64.0
14174,79.0,0,15,0.0,64.0
14175,71.0,24,90,8.0,64.0
14176,89.0,0,120,0.0,64.0
14177,77.0,0,120,1.0,64.0
14178,50.0,0,120,12.0,64.0
14179,77.0,0,120,7.0,64.0
14180,62.0,0,120,3.0,64.0
14181,72.0,0,90,8.0,64.0
14182,67.0,0,15,1.0,64.0
14183,79.0,0,90,1.0,64.0
14184,67.0,0,90,2.0,64.0
14185,48.0,0,90,4.0,64.0
14186,67.0,0,90,4.0,64.0
14187,55.0,0,90,4.0,64.0
14188,76.0,0,90,10.0,64.0
14189,64.0,0,90,3.0,64.0
14190,43.0,24,180,6.0,64.0
14191,60.0,0,90,4.0,64.0
14192,79.0,0,90,7.0,64.0
14193,67.0,0,90,5.0,64.0
14194,55.0,96,90,5.0,64.0
14195,52.0,0,90,12.0,64.0
14196,64.0,0,90,11.0,64.0
14197,79.0,96,15,0.0,64.0
14198,91.0,0,90,0.0,64.0
14199,72.0,120,90,8.0,64.0
14200,64.0,0,90,11.0,64.0
14201,67.0,0,90,5.0,64.0
14202,48.0,0,90,4.0,64.0
14203,67.0,0,90,4.0,64.0
14204,64.0,0,90,3.0,64.0
14205,43.0,24,180,6.0,64.0
14206,55.0,0,90,5.0,64.0
14207,67.0,0,90,1.0,64.0
14208,55.0,0,90,4.0,64.0
14209,79.0,0,90,7.0,64.0
14210,79.0,0,90,1.0,64.0
14211,67.0,96,90,2.0,64.0
14212,76.0,0,90,10.0,64.0
14213,72.0,0,90,8.0,64.0
14214,79.0,0,90,0.0,64.0
14215,91.0,0,90,0.0,64.0
14216,52.0,0,90,12.0,64.0
14217,60.0,0,90,4.0,64.0
14218,72.0,120,90,8.0,64.0
14219,48.0,0,240,12.0,64.0
14220,72.0,0,90,5.0,64.0
14221,64.0,0,120,2.0,64.0
14222,60.0,0,240,3.0,64.0
14223,60.0,0,90,5.0,64.0
14224,48.0,0,180,4.0,64.0
14225,60.0,24,90,10.0,64.0
14226,88.0,96,240,0.0,64.0
14227,67.0,72,120,2.0,64.0
14228,76.0,0,240,1.0,64.0
14229,67.0,0,240,1.0,64.0
14230,60.0,0,240,11.0,64.0
14231,72.0,0,90,8.0,64.0
14232,48.0,24,180,6.0,64.0
14233,76.0,0,240,7.0,64.0
14234,60.0,0,180,4.0,64.0
14235,72.0,24,90,8.0,64.0
14236,60.0,0,90,10.0,64.0
14237,79.0,0,15,0.0,64.0
14238,77.0,0,120,7.0,64.0
14239,55.0,0,90,5.0,64.0
14240,62.0,0,120,3.0,64.0
14241,62.0,0,120,11.0,64.0
14242,60.0,24,90,10.0,64.0
14243,43.0,24,180,6.0,64.0
14244,67.0,0,90,5.0,64.0
14245,50.0,0,120,12.0,64.0
14246,72.0,0,90,8.0,64.0
14247,60.0,0,90,2.0,64.0
14248,72.0,0,90,2.0,64.0
14249,89.0,0,120,0.0,64.0
14250,77.0,72,120,1.0,64.0
14251,67.0,0,120,1.0,64.0
14252,60.0,0,90,10.0,64.0
14253,72.0,24,90,8.0,64.0
14254,52.0,0,120,12.0,64.0
14255,91.0,0,120,0.0,64.0
14256,64.0,96,120,11.0,64.0
14257,64.0,0,120,3.0,64.0
14258,79.0,0,120,1.0,64.0
14259,67.0,0,120,1.0,64.0
14260,79.0,0,120,7.0,64.0
14261,79.0,0,120,0.0,64.0
14262,60.0,0,90,2.0,64.0
14263,69.0,0,90,2.0,64.0
14264,65.0,0,90,3.0,64.0
14265,53.0,0,90,12.0,64.0
14266,55.0,0,90,5.0,64.0
14267,67.0,0,90,5.0,64.0
14268,69.0,0,90,1.0,64.0
14269,81.0,0,90,1.0,64.0
14270,60.0,0,90,10.0,64.0
14271,72.0,0,90,8.0,64.0
14272,65.0,96,90,4.0,64.0
14273,43.0,24,180,6.0,64.0
14274,81.0,0,90,7.0,64.0
14275,60.0,0,90,4.0,64.0
14276,81.0,0,90,0.0,64.0
14277,93.0,0,90,0.0,64.0
14278,65.0,0,90,11.0,64.0
14279,72.0,120,90,8.0,64.0
14280,60.0,0,90,10.0,64.0
14281,62.0,0,90,10.0,64.0
14282,71.0,0,90,2.0,64.0
14283,55.0,0,90,4.0,64.0
14284,62.0,0,90,4.0,64.0
14285,62.0,0,90,2.0,64.0
14286,62.0,0,90,1.0,64.0
14287,43.0,24,180,6.0,64.0
14288,55.0,0,90,5.0,64.0
14289,67.0,0,90,5.0,64.0
14290,71.0,0,90,1.0,64.0
14291,55.0,0,90,3.0,64.0
14292,55.0,0,90,11.0,64.0
14293,74.0,96,90,0.0,64.0
14294,83.0,0,90,0.0,64.0
14295,77.0,0,90,8.0,64.0
14296,43.0,0,90,12.0,64.0
14297,83.0,0,90,7.0,64.0
14298,62.0,120,90,10.0,64.0
14299,77.0,0,90,8.0,64.0
14300,64.0,0,90,10.0,64.0
14301,43.0,0,90,12.0,64.0
14302,72.0,0,90,1.0,64.0
14303,43.0,24,180,6.0,64.0
14304,64.0,0,90,1.0,64.0
14305,84.0,0,90,0.0,64.0
14306,76.0,0,90,0.0,64.0
14307,72.0,0,90,2.0,64.0
14308,60.0,0,90,4.0,64.0
14309,64.0,96,90,4.0,64.0
14310,55.0,0,90,5.0,64.0
14311,67.0,0,90,5.0,64.0
14312,64.0,0,90,2.0,64.0
14313,55.0,0,90,11.0,64.0
14314,84.0,0,90,7.0,64.0
14315,55.0,0,90,3.0,64.0
14316,76.0,0,90,8.0,64.0
14317,64.0,0,90,10.0,64.0
14318,76.0,120,90,8.0,64.0
14319,71.0,0,90,10.0,64.0
14320,67.0,0,90,5.0,64.0
14321,86.0,0,90,7.0,64.0
14322,55.0,0,90,3.0,64.0
14323,77.0,0,90,0.0,64.0
14324,74.0,0,90,2.0,64.0
14325,71.0,0,90,2.0,64.0
14326,55.0,0,90,4.0,64.0
14327,62.0,0,90,4.0,64.0
14328,55.0,96,90,11.0,64.0
14329,79.0,0,90,8.0,64.0
14330,43.0,0,90,12.0,64.0
14331,86.0,0,90,0.0,64.0
14332,55.0,0,90,5.0,64.0
14333,43.0,24,180,6.0,64.0
14334,65.0,0,90,1.0,64.0
14335,74.0,0,90,1.0,64.0
14336,79.0,0,90,8.0,64.0
14337,71.0,120,90,10.0,64.0
14338,79.0,0,90,8.0,64.0
14339,60.0,0,90,4.0,64.0
14340,72.0,0,90,2.0,64.0
14341,76.0,0,90,2.0,64.0
14342,43.0,0,90,12.0,64.0
14343,76.0,0,90,1.0,64.0
14344,55.0,0,90,11.0,64.0
14345,88.0,0,90,7.0,64.0
14346,43.0,24,180,6.0,64.0
14347,55.0,96,90,3.0,64.0
14348,67.0,0,90,1.0,64.0
14349,55.0,0,90,5.0,64.0
14350,79.0,0,90,0.0,64.0
14351,72.0,0,90,10.0,64.0
14352,88.0,0,90,0.0,64.0
14353,67.0,0,90,5.0,64.0
14354,79.0,0,90,8.0,64.0
14355,72.0,120,90,10.0,64.0
14356,55.0,0,90,5.0,64.0
14357,55.0,0,90,11.0,64.0
14358,67.0,0,90,5.0,64.0
14359,69.0,0,90,2.0,64.0
14360,69.0,0,90,8.0,64.0
14361,55.0,96,90,3.0,64.0
14362,60.0,0,90,4.0,64.0
14363,62.0,0,90,4.0,64.0
14364,78.0,0,90,2.0,64.0
14365,43.0,0,90,12.0,64.0
14366,72.0,0,90,10.0,64.0
14367,81.0,0,90,8.0,64.0
14368,78.0,0,90,1.0,64.0
14369,69.0,0,90,1.0,64.0
14370,81.0,0,90,0.0,64.0
14371,90.0,0,90,7.0,64.0
14372,90.0,0,90,0.0,64.0
14373,43.0,24,180,6.0,64.0
14374,69.0,0,90,8.0,64.0
14375,81.0,0,90,8.0,64.0
14376,72.0,120,90,10.0,64.0
14377,55.0,0,90,5.0,64.0
14378,31.0,0,90,12.0,64.0
14379,79.0,0,90,2.0,64.0
14380,67.0,0,90,5.0,64.0
14381,62.0,0,90,4.0,64.0
14382,79.0,96,90,0.0,64.0
14383,91.0,0,180,7.0,64.0
14384,83.0,144,180,7.0,64.0
14385,67.0,0,90,1.0,64.0
14386,79.0,0,90,1.0,64.0
14387,91.0,0,90,0.0,64.0
14388,43.0,0,90,3.0,64.0
14389,43.0,0,180,6.0,64.0
14390,71.0,0,90,2.0,64.0
14391,67.0,48,780,11.0,64.0
14392,67.0,0,780,3.0,64.0
14393,71.0,0,180,8.0,64.0
14394,79.0,0,180,8.0,64.0
14395,55.0,0,90,4.0,64.0
14396,79.0,0,90,0.0,64.0
14397,55.0,0,90,5.0,64.0
14398,67.0,0,90,5.0,64.0
14399,43.0,24,180,6.0,64.0
14400,43.0,0,90,12.0,64.0
14401,76.0,0,90,7.0,64.0
14402,67.0,0,90,1.0,64.0
14403,79.0,0,90,1.0,64.0
14404,67.0,96,90,2.0,64.0
14405,91.0,0,90,0.0,64.0
14406,55.0,0,90,4.0,64.0
14407,67.0,0,90,4.0,64.0
14408,55.0,0,90,3.0,64.0
14409,79.0,0,90,2.0,64.0
14410,77.0,120,90,7.0,64.0
14411,79.0,0,90,2.0,64.0
14412,67.0,0,90,2.0,64.0
14413,55.0,0,90,4.0,64.0
14414,43.0,24,180,6.0,64.0
14415,67.0,0,90,4.0,64.0
14416,79.0,96,90,1.0,64.0
14417,79.0,0,90,7.0,64.0
14418,55.0,0,90,5.0,64.0
14419,67.0,0,90,5.0,64.0
14420,67.0,0,90,1.0,64.0
14421,43.0,0,90,12.0,64.0
14422,79.0,0,90,0.0,64.0
14423,91.0,0,90,0.0,64.0
14424,55.0,0,90,3.0,64.0
14425,77.0,72,90,7.0,64.0
14426,31.0,0,90,12.0,64.0
14427,43.0,120,90,3.0,64.0
14428,76.0,0,90,7.0,64.0
14429,74.0,120,90,7.0,64.0
14430,67.0,0,90,4.0,64.0
14431,43.0,0,90,3.0,64.0
14432,64.0,0,90,4.0,64.0
14433,76.0,0,90,1.0,64.0
14434,79.0,0,90,1.0,64.0
14435,64.0,96,240,3.0,64.0
14436,43.0,24,180,6.0,64.0
14437,55.0,0,90,4.0,64.0
14438,76.0,0,90,2.0,64.0
14439,73.0,96,90,7.0,64.0
14440,79.0,0,90,2.0,64.0
14441,91.0,0,90,0.0,64.0
14442,64.0,0,240,11.0,64.0
14443,55.0,0,90,5.0,64.0
14444,67.0,0,90,5.0,64.0
14445,88.0,0,90,0.0,64.0
14446,43.0,0,90,4.0,64.0
14447,31.0,0,90,12.0,64.0
14448,76.0,24,90,7.0,64.0
14449,64.0,0,90,4.0,64.0
14450,76.0,0,90,1.0,64.0
14451,43.0,0,90,4.0,64.0
14452,67.0,24,90,4.0,64.0
14453,79.0,0,90,1.0,64.0
14454,43.0,0,90,12.0,64.0
14455,91.0,0,90,0.0,64.0
14456,55.0,0,90,4.0,64.0
14457,88.0,0,90,0.0,64.0
14458,79.0,0,90,2.0,64.0
14459,55.0,0,90,3.0,64.0
14460,67.0,0,90,5.0,64.0
14461,55.0,0,90,5.0,64.0
14462,76.0,0,90,2.0,64.0
14463,65.0,0,120,3.0,64.0
14464,65.0,72,120,11.0,64.0
14465,43.0,24,180,6.0,64.0
14466,81.0,0,90,7.0,64.0
14467,67.0,0,120,3.0,64.0
14468,67.0,96,120,11.0,64.0
14469,79.0,24,90,7.0,64.0
14470,69.0,0,90,11.0,64.0
14471,67.0,0,90,4.0,64.0
14472,88.0,0,90,0.0,64.0
14473,55.0,0,90,3.0,64.0
14474,91.0,96,90,0.0,64.0
14475,55.0,0,90,4.0,64.0
14476,79.0,0,90,1.0,64.0
14477,76.0,0,90,1.0,64.0
14478,55.0,0,90,5.0,64.0
14479,43.0,0,90,4.0,64.0
14480,64.0,0,90,4.0,64.0
14481,69.0,0,90,3.0,64.0
14482,77.0,0,90,7.0,64.0
14483,67.0,0,90,5.0,64.0
14484,76.0,0,90,2.0,64.0
14485,43.0,24,180,6.0,64.0
14486,43.0,0,90,12.0,64.0
14487,79.0,0,90,2.0,64.0
14488,76.0,120,90,7.0,64.0
14489,31.0,120,90,12.0,64.0
14490,69.0,0,90,11.0,64.0
14491,74.0,0,90,7.0,64.0
14492,43.0,0,90,3.0,64.0
14493,69.0,0,90,3.0,64.0
14494,73.0,120,90,7.0,64.0
14495,64.0,0,90,2.0,64.0
14496,88.0,0,90,0.0,64.0
14497,74.0,0,90,7.0,64.0
14498,76.0,0,90,1.0,64.0
14499,67.0,0,90,2.0,64.0
14500,55.0,96,90,4.0,64.0
14501,67.0,0,90,4.0,64.0
14502,64.0,0,90,4.0,64.0
14503,65.0,0,780,3.0,64.0
14504,43.0,0,90,3.0,64.0
14505,91.0,0,90,0.0,64.0
14506,43.0,24,180,6.0,64.0
14507,79.0,0,90,1.0,64.0
14508,31.0,0,90,12.0,64.0
14509,55.0,0,90,5.0,64.0
14510,65.0,48,780,11.0,64.0
14511,67.0,0,90,5.0,64.0
14512,76.0,120,90,7.0,64.0
14513,43.0,24,180,6.0,64.0
14514,89.0,0,90,0.0,64.0
14515,86.0,0,90,0.0,64.0
14516,65.0,0,90,2.0,64.0
14517,62.0,0,90,2.0,64.0
14518,55.0,0,90,4.0,64.0
14519,55.0,0,90,3.0,64.0
14520,77.0,0,90,1.0,64.0
14521,65.0,0,90,4.0,64.0
14522,62.0,0,90,4.0,64.0
14523,43.0,0,90,12.0,64.0
14524,55.0,96,90,5.0,64.0
14525,67.0,0,90,5.0,64.0
14526,74.0,0,90,1.0,64.0
14527,77.0,0,90,7.0,64.0
14528,76.0,120,90,7.0,64.0
14529,55.0,96,90,5.0,64.0
14530,74.0,0,90,7.0,64.0
14531,43.0,0,90,12.0,64.0
14532,43.0,24,180,6.0,64.0
14533,67.0,0,90,5.0,64.0
14534,55.0,0,90,3.0,64.0
14535,62.0,0,90,4.0,64.0
14536,77.0,0,90,1.0,64.0
14537,74.0,0,90,1.0,64.0
14538,62.0,0,90,2.0,64.0
14539,86.0,0,90,0.0,64.0
14540,89.0,0,90,0.0,64.0
14541,65.0,0,90,2.0,64.0
14542,65.0,0,90,4.0,64.0
14543,55.0,0,90,4.0,64.0
14544,76.0,72,90,7.0,64.0
14545,74.0,0,90,7.0,64.0
14546,31.0,120,90,12.0,64.0
14547,43.0,0,90,3.0,64.0
14548,72.0,120,90,7.0,64.0
14549,43.0,24,180,6.0,64.0
14550,65.0,0,90,2.0,64.0
14551,71.0,0,90,7.0,64.0
14552,55.0,0,90,5.0,64.0
14553,62.0,0,90,2.0,64.0
14554,67.0,0,90,5.0,64.0
14555,89.0,0,90,0.0,64.0
14556,62.0,96,240,11.0,64.0
14557,62.0,0,90,4.0,64.0
14558,62.0,0,240,3.0,64.0
14559,43.0,0,90,3.0,64.0
14560,74.0,96,90,1.0,64.0
14561,77.0,0,90,1.0,64.0
14562,65.0,0,90,4.0,64.0
14563,55.0,0,90,4.0,64.0
14564,31.0,0,90,12.0,64.0
14565,86.0,0,90,0.0,64.0
14566,74.0,24,90,7.0,64.0
14567,74.0,0,90,1.0,64.0
14568,43.0,0,90,12.0,64.0
14569,43.0,24,180,6.0,64.0
14570,55.0,0,90,3.0,64.0
14571,64.0,72,120,3.0,64.0
14572,55.0,0,90,5.0,64.0
14573,67.0,0,90,5.0,64.0
14574,89.0,0,90,0.0,64.0
14575,86.0,0,90,0.0,64.0
14576,77.0,24,90,1.0,64.0
14577,64.0,0,120,11.0,64.0
14578,65.0,0,90,4.0,64.0
14579,55.0,0,90,4.0,64.0
14580,62.0,0,90,4.0,64.0
14581,62.0,0,90,2.0,64.0
14582,65.0,0,90,2.0,64.0
14583,79.0,0,90,7.0,64.0
14584,65.0,96,120,3.0,64.0
14585,65.0,0,120,11.0,64.0
14586,77.0,24,90,7.0,64.0
14587,67.0,0,90,5.0,64.0
14588,62.0,0,90,2.0,64.0
14589,65.0,0,90,2.0,64.0
14590,55.0,0,90,5.0,64.0
14591,86.0,0,90,0.0,64.0
14592,77.0,0,90,1.0,64.0
14593,62.0,0,90,4.0,64.0
14594,67.0,0,90,11.0,64.0
14595,43.0,24,180,6.0,64.0
14596,89.0,0,90,0.0,64.0
14597,74.0,0,90,1.0,64.0
14598,55.0,0,90,4.0,64.0
14599,65.0,0,90,4.0,64.0
14600,43.0,0,90,12.0,64.0
14601,76.0,0,90,7.0,64.0
14602,55.0,0,90,3.0,64.0
14603,67.0,96,90,3.0,64.0
14604,74.0,120,90,7.0,64.0
14605,67.0,0,90,11.0,64.0
14606,31.0,0,90,12.0,64.0
14607,72.0,0,90,7.0,64.0
14608,43.0,0,90,3.0,64.0
14609,67.0,120,90,3.0,64.0
14610,71.0,120,90,7.0,64.0
14611,62.0,0,90,4.0,64.0
14612,55.0,0,90,4.0,64.0
14613,65.0,0,90,4.0,64.0
14614,43.0,0,90,3.0,64.0
14615,62.0,0,90,2.0,64.0
14616,67.0,0,90,5.0,64.0
14617,64.0,0,90,11.0,64.0
14618,74.0,0,90,1.0,64.0
14619,77.0,0,90,1.0,64.0
14620,43.0,24,180,6.0,64.0
14621,31.0,0,90,12.0,64.0
14622,79.0,48,780,7.0,64.0
14623,89.0,0,90,0.0,64.0
14624,86.0,0,90,0.0,64.0
14625,55.0,0,90,5.0,64.0
14626,65.0,96,90,2.0,64.0
14627,65.0,120,90,11.0,64.0
14628,64.0,72,120,2.0,64.0
14629,88.0,0,90,0.0,64.0
14630,55.0,0,90,3.0,64.0
14631,60.0,0,90,2.0,64.0
14632,67.0,0,90,5.0,64.0
14633,55.0,0,90,5.0,64.0
14634,60.0,0,90,4.0,64.0
14635,64.0,0,90,4.0,64.0
14636,55.0,0,90,4.0,64.0
14637,84.0,0,90,0.0,64.0
14638,43.0,24,90,12.0,64.0
14639,43.0,24,180,6.0,64.0
14640,76.0,0,90,1.0,64.0
14641,72.0,0,90,1.0,64.0
14642,67.0,0,90,11.0,64.0
14643,65.0,120,90,11.0,64.0
14644,60.0,0,90,4.0,64.0
14645,55.0,0,90,4.0,64.0
14646,64.0,96,90,4.0,64.0
14647,64.0,0,90,2.0,64.0
14648,60.0,0,90,2.0,64.0
14649,72.0,0,90,1.0,64.0
14650,43.0,24,180,6.0,64.0
14651,64.0,0,90,11.0,64.0
14652,88.0,0,90,0.0,64.0
14653,84.0,0,90,0.0,64.0
14654,55.0,0,90,5.0,64.0
14655,67.0,0,90,5.0,64.0
14656,43.0,0,90,12.0,64.0
14657,76.0,0,90,1.0,64.0
14658,55.0,0,90,3.0,64.0
14659,65.0,72,90,11.0,64.0
14660,43.0,0,90,3.0,64.0
14661,31.0,120,90,12.0,64.0
14662,64.0,0,90,11.0,64.0
14663,62.0,120,90,11.0,64.0
14664,31.0,0,90,12.0,64.0
14665,61.0,96,90,11.0,64.0
14666,67.0,0,90,2.0,64.0
14667,64.0,0,90,4.0,64.0
14668,55.0,0,90,4.0,64.0
14669,76.0,0,90,1.0,64.0
14670,67.0,0,90,1.0,64.0
14671,43.0,0,90,3.0,64.0
14672,43.0,24,180,6.0,64.0
14673,76.0,0,90,2.0,64.0
14674,79.0,0,90,0.0,64.0
14675,88.0,0,90,0.0,64.0
14676,55.0,0,90,5.0,64.0
14677,67.0,0,90,5.0,64.0
14678,64.0,0,90,8.0,64.0
14679,76.0,96,240,7.0,64.0
14680,61.0,0,90,11.0,64.0
14681,64.0,24,90,8.0,64.0
14682,64.0,0,90,4.0,64.0
14683,77.0,72,120,7.0,64.0
14684,55.0,0,90,5.0,64.0
14685,65.0,24,90,8.0,64.0
14686,67.0,0,90,5.0,64.0
14687,55.0,0,90,4.0,64.0
14688,67.0,0,90,1.0,64.0
14689,79.0,0,90,0.0,64.0
14690,88.0,0,90,0.0,64.0
14691,76.0,0,90,1.0,64.0
14692,55.0,0,90,3.0,64.0
14693,62.0,0,90,11.0,64.0
14694,43.0,24,180,6.0,64.0
14695,43.0,0,90,12.0,64.0
14696,76.0,0,90,2.0,64.0
14697,67.0,0,90,2.0,64.0
14698,64.0,24,90,11.0,64.0
14699,79.0,96,120,7.0,64.0
14700,67.0,0,90,8.0,64.0
14701,67.0,0,90,5.0,64.0
14702,69.0,0,90,8.0,64.0
14703,43.0,24,180,6.0,64.0
14704,64.0,0,90,4.0,64.0
14705,79.0,0,90,0.0,64.0
14706,55.0,0,90,4.0,64.0
14707,43.0,0,90,12.0,64.0
14708,67.0,96,90,2.0,64.0
14709,67.0,0,90,1.0,64.0
14710,88.0,0,90,0.0,64.0
14711,55.0,0,90,3.0,64.0
14712,76.0,0,90,1.0,64.0
14713,81.0,0,90,7.0,64.0
14714,65.0,0,90,11.0,64.0
14715,55.0,0,90,5.0,64.0
14716,76.0,0,90,2.0,64.0
14717,64.0,120,90,11.0,64.0
14718,67.0,0,90,8.0,64.0
14719,31.0,0,90,12.0,64.0
14720,43.0,0,90,3.0,64.0
14721,65.0,120,90,8.0,64.0
14722,81.0,0,90,7.0,64.0
14723,62.0,0,90,11.0,64.0
14724,64.0,0,90,8.0,64.0
14725,61.0,120,90,11.0,64.0
14726,76.0,0,90,2.0,64.0
14727,67.0,0,90,2.0,64.0
14728,67.0,96,90,5.0,64.0
14729,55.0,0,90,5.0,64.0
14730,88.0,0,90,0.0,64.0
14731,31.0,0,90,12.0,64.0
14732,55.0,0,90,4.0,64.0
14733,76.0,0,90,1.0,64.0
14734,67.0,0,90,1.0,64.0
14735,43.0,0,90,3.0,64.0
14736,77.0,48,780,7.0,64.0
14737,43.0,24,180,6.0,64.0
14738,79.0,0,90,0.0,64.0
14739,65.0,48,390,8.0,64.0
14740,64.0,0,90,4.0,64.0
14741,62.0,0,90,11.0,64.0
14742,64.0,120,90,11.0,64.0
14743,67.0,0,90,2.0,64.0
14744,79.0,0,90,0.0,64.0
14745,65.0,0,90,11.0,64.0
14746,43.0,24,180,6.0,64.0
14747,43.0,0,90,12.0,64.0
14748,67.0,0,90,1.0,64.0
14749,55.0,0,90,5.0,64.0
14750,55.0,0,90,3.0,64.0
14751,67.0,0,90,5.0,64.0
14752,55.0,48,90,4.0,64.0
14753,62.0,0,90,4.0,64.0
14754,74.0,0,90,2.0,64.0
14755,74.0,0,90,1.0,64.0
14756,86.0,0,90,0.0,64.0
14757,64.0,120,90,11.0,64.0
14758,55.0,0,90,5.0,64.0
14759,67.0,0,90,5.0,64.0
14760,43.0,0,90,12.0,64.0
14761,74.0,0,90,2.0,64.0
14762,55.0,0,90,3.0,64.0
14763,55.0,0,90,4.0,64.0
14764,62.0,0,90,4.0,64.0
14765,79.0,0,90,0.0,64.0
14766,86.0,96,90,0.0,64.0
14767,43.0,24,180,6.0,64.0
14768,62.0,0,90,11.0,64.0
14769,74.0,0,90,1.0,64.0
14770,67.0,0,90,1.0,64.0
14771,67.0,0,90,2.0,64.0
14772,64.0,72,90,11.0,64.0
14773,43.0,0,90,3.0,64.0
14774,31.0,0,90,12.0,64.0
14775,62.0,120,90,11.0,64.0
14776,60.0,120,90,11.0,64.0
14777,43.0,24,180,6.0,64.0
14778,59.0,0,90,11.0,64.0
14779,43.0,0,90,3.0,64.0
14780,31.0,96,90,12.0,64.0
14781,67.0,0,90,5.0,64.0
14782,55.0,0,90,5.0,64.0
14783,67.0,0,90,1.0,64.0
14784,74.0,0,90,1.0,64.0
14785,62.0,0,90,4.0,64.0
14786,55.0,0,90,4.0,64.0
14787,62.0,0,90,8.0,64.0
14788,79.0,0,90,0.0,64.0
14789,86.0,0,90,0.0,64.0
14790,74.0,96,240,7.0,64.0
14791,67.0,0,90,2.0,64.0
14792,74.0,0,90,2.0,64.0
14793,59.0,24,90,11.0,64.0
14794,62.0,0,90,8.0,64.0
14795,62.0,0,90,4.0,64.0
14796,55.0,0,90,4.0,64.0
14797,74.0,0,90,2.0,64.0
14798,67.0,0,90,2.0,64.0
14799,55.0,0,90,5.0,64.0
14800,67.0,0,90,5.0,64.0
14801,76.0,72,120,7.0,64.0
14802,43.0,0,90,12.0,64.0
14803,74.0,0,90,1.0,64.0
14804,64.0,0,90,8.0,64.0
14805,55.0,0,90,3.0,64.0
14806,67.0,24,90,1.0,64.0
14807,60.0,0,90,11.0,64.0
14808,43.0,24,180,6.0,64.0
14809,79.0,0,90,0.0,64.0
14810,86.0,0,90,0.0,64.0
14811,77.0,96,120,7.0,64.0
14812,65.0,0,90,8.0,64.0
14813,62.0,24,90,11.0,64.0
14814,74.0,0,90,1.0,64.0
14815,43.0,0,90,12.0,64.0
14816,64.0,0,90,11.0,64.0
14817,67.0,0,90,8.0,64.0
14818,79.0,0,90,0.0,64.0
14819,67.0,0,90,1.0,64.0
14820,55.0,96,90,3.0,64.0
14821,86.0,0,90,0.0,64.0
14822,79.0,0,90,7.0,64.0
14823,74.0,0,90,2.0,64.0
14824,55.0,0,90,5.0,64.0
14825,43.0,24,180,6.0,64.0
14826,67.0,0,90,2.0,64.0
14827,55.0,0,90,4.0,64.0
14828,62.0,0,90,4.0,64.0
14829,67.0,0,90,5.0,64.0
14830,62.0,0,90,11.0,64.0
14831,65.0,120,90,8.0,64.0
14832,31.0,0,90,12.0,64.0
14833,43.0,0,90,3.0,64.0
14834,60.0,120,90,11.0,64.0
14835,64.0,0,90,8.0,64.0
14836,79.0,0,90,7.0,64.0
14837,59.0,0,90,11.0,64.0
14838,62.0,120,90,8.0,64.0
14839,88.0,0,780,0.0,64.0
14840,52.0,0,90,11.0,64.0
14841,43.0,24,180,6.0,64.0
14842,67.0,0,1530,4.0,64.0
14843,43.0,0,90,3.0,64.0
14844,55.0,0,90,11.0,64.0
14845,31.0,0,90,12.0,64.0
14846,67.0,96,90,5.0,64.0
14847,55.0,0,90,5.0,64.0
14848,55.0,0,1530,4.0,64.0
14849,88.0,0,780,7.0,64.0
14850,79.0,0,780,1.0,64.0
14851,76.0,0,780,2.0,64.0
14852,79.0,48,780,8.0,64.0
14853,57.0,120,90,11.0,64.0
14854,53.0,0,90,11.0,64.0
14855,43.0,24,180,6.0,64.0
14856,67.0,0,90,5.0,64.0
14857,55.0,0,90,11.0,64.0
14858,52.0,0,90,11.0,64.0
14859,43.0,0,90,12.0,64.0
14860,55.0,0,90,3.0,64.0
14861,55.0,96,90,5.0,64.0
14862,50.0,120,90,11.0,64.0
14863,53.0,0,90,11.0,64.0
14864,48.0,0,90,11.0,64.0
14865,52.0,0,90,11.0,64.0
14866,55.0,0,90,5.0,64.0
14867,43.0,24,180,6.0,64.0
14868,55.0,0,90,3.0,64.0
14869,43.0,96,90,12.0,64.0
14870,67.0,0,90,5.0,64.0
14871,50.0,0,90,11.0,64.0
14872,53.0,72,90,11.0,64.0
14873,52.0,0,90,11.0,64.0
14874,55.0,0,90,11.0,64.0
14875,31.0,0,90,12.0,64.0
14876,43.0,120,90,3.0,64.0
14877,48.0,0,90,11.0,64.0
14878,52.0,120,90,11.0,64.0
14879,43.0,0,90,3.0,64.0
14880,31.0,0,90,12.0,64.0
14881,85.0,0,240,7.0,64.0
14882,76.0,0,240,1.0,64.0
14883,76.0,0,240,8.0,64.0
14884,55.0,0,90,5.0,64.0
14885,57.0,0,90,11.0,64.0
14886,43.0,24,180,6.0,64.0
14887,67.0,96,90,5.0,64.0
14888,85.0,0,240,0.0,64.0
14889,73.0,96,240,2.0,64.0
14890,57.0,24,90,11.0,64.0
14891,77.0,0,120,8.0,64.0
14892,77.0,0,120,1.0,64.0
14893,86.0,0,120,7.0,64.0
14894,43.0,24,180,6.0,64.0
14895,57.0,0,90,11.0,64.0
14896,43.0,0,90,12.0,64.0
14897,67.0,24,90,5.0,64.0
14898,55.0,0,90,3.0,64.0
14899,74.0,0,120,2.0,64.0
14900,55.0,0,90,5.0,64.0
14901,86.0,72,120,0.0,64.0
14902,57.0,24,90,11.0,64.0
14903,88.0,96,120,7.0,64.0
14904,79.0,0,120,1.0,64.0
14905,76.0,0,120,2.0,64.0
14906,79.0,0,120,8.0,64.0
14907,88.0,0,120,0.0,64.0
14908,55.0,0,90,3.0,64.0
14909,43.0,24,180,6.0,64.0
14910,43.0,0,90,12.0,64.0
14911,55.0,0,90,5.0,64.0
14912,57.0,0,90,11.0,64.0
14913,81.0,0,90,1.0,64.0
14914,67.0,0,90,5.0,64.0
14915,81.0,0,90,8.0,64.0
14916,89.0,0,90,7.0,64.0
14917,89.0,0,90,0.0,64.0
14918,77.0,96,90,2.0,64.0
14919,57.0,120,90,11.0,64.0
14920,57.0,0,90,11.0,64.0
14921,77.0,0,90,2.0,64.0
14922,89.0,0,90,7.0,64.0
14923,43.0,0,90,3.0,64.0
14924,81.0,0,90,1.0,64.0
14925,89.0,120,90,0.0,64.0
14926,81.0,0,90,8.0,64.0
14927,31.0,0,90,12.0,64.0
14928,57.0,120,90,11.0,64.0
14929,86.0,48,780,0.0,64.0
14930,81.0,0,90,8.0,64.0
14931,77.0,0,780,1.0,64.0
14932,53.0,0,90,11.0,64.0
14933,86.0,0,780,7.0,64.0
14934,43.0,24,180,6.0,64.0
14935,67.0,0,90,5.0,64.0
14936,55.0,0,90,5.0,64.0
14937,43.0,0,90,3.0,64.0
14938,31.0,96,90,12.0,64.0
14939,55.0,0,1530,4.0,64.0
14940,74.0,0,780,2.0,64.0
14941,67.0,0,1530,4.0,64.0
14942,55.0,120,90,11.0,64.0
14943,83.0,0,90,8.0,64.0
14944,55.0,0,90,5.0,64.0
14945,43.0,96,90,12.0,64.0
14946,43.0,24,180,6.0,64.0
14947,81.0,0,90,8.0,64.0
14948,67.0,0,90,5.0,64.0
14949,53.0,0,90,11.0,64.0
14950,55.0,0,90,3.0,64.0
14951,79.0,120,90,8.0,64.0
14952,52.0,0,90,11.0,64.0
14953,77.0,96,90,8.0,64.0
14954,43.0,24,180,6.0,64.0
14955,55.0,0,90,5.0,64.0
14956,31.0,0,90,12.0,64.0
14957,67.0,0,90,5.0,64.0
14958,43.0,0,90,3.0,64.0
14959,50.0,0,90,11.0,64.0
14960,52.0,72,90,11.0,64.0
14961,79.0,0,90,8.0,64.0
14962,43.0,120,90,3.0,64.0
14963,81.0,0,90,8.0,64.0
14964,53.0,0,90,11.0,64.0
14965,31.0,0,90,12.0,64.0
14966,50.0,0,90,11.0,64.0
14967,77.0,120,90,8.0,64.0
14968,55.0,0,90,11.0,64.0
14969,67.0,0,90,5.0,64.0
14970,55.0,0,90,5.0,64.0
14971,71.0,0,240,2.0,64.0
14972,74.0,0,240,1.0,64.0
14973,43.0,24,180,6.0,64.0
14974,43.0,0,90,3.0,64.0
14975,74.0,96,240,8.0,64.0
14976,83.0,0,240,0.0,64.0
14977,83.0,0,240,7.0,64.0
14978,31.0,96,90,12.0,64.0
14979,55.0,24,90,11.0,64.0
14980,43.0,0,90,12.0,64.0
14981,76.0,0,120,1.0,64.0
14982,84.0,0,120,7.0,64.0
14983,55.0,24,90,11.0,64.0
14984,43.0,24,180,6.0,64.0
14985,72.0,0,120,2.0,64.0
14986,67.0,0,90,5.0,64.0
14987,84.0,72,120,0.0,64.0
14988,55.0,0,90,5.0,64.0
14989,76.0,0,120,8.0,64.0
14990,55.0,0,90,3.0,64.0
14991,74.0,0,120,2.0,64.0
14992,77.0,0,120,8.0,64.0
14993,77.0,96,120,1.0,64.0
14994,86.0,0,120,7.0,64.0
14995,86.0,0,120,0.0,64.0
14996,55.0,24,90,11.0,64.0
14997,79.0,0,90,8.0,64.0
14998,76.0,0,90,2.0,64.0
14999,88.0,0,90,0.0,64.0
15000,43.0,0,90,3.0,64.0
15001,43.0,24,180,6.0,64.0
15002,31.0,0,90,12.0,64.0
15003,79.0,0,90,1.0,64.0
15004,55.0,0,90,5.0,64.0
15005,67.0,0,90,5.0,64.0
15006,55.0,0,90,11.0,64.0
15007,88.0,96,90,7.0,64.0
15008,55.0,120,90,11.0,64.0
15009,88.0,0,90,7.0,64.0
15010,43.0,120,90,3.0,64.0
15011,31.0,0,90,12.0,64.0
15012,79.0,0,90,1.0,64.0
15013,88.0,0,90,0.0,64.0
15014,55.0,0,90,11.0,64.0
15015,79.0,0,90,8.0,64.0
15016,76.0,0,90,2.0,64.0
15017,55.0,120,90,11.0,64.0
15018,43.0,24,180,6.0,64.0
15019,76.0,48,780,1.0,64.0
15020,31.0,0,90,12.0,64.0
15021,64.0,96,90,11.0,64.0
15022,55.0,96,1530,4.0,64.0
15023,67.0,0,1530,4.0,64.0
15024,43.0,0,1530,4.0,64.0
15025,84.0,0,780,0.0,64.0
15026,84.0,0,780,7.0,64.0
15027,55.0,0,90,5.0,64.0
15028,67.0,0,90,5.0,64.0
15029,79.0,0,90,8.0,64.0
15030,72.0,0,780,2.0,64.0
15031,43.0,0,90,3.0,64.0
15032,81.0,120,90,8.0,64.0
15033,65.0,0,90,11.0,64.0
15034,55.0,0,90,5.0,64.0
15035,67.0,0,90,5.0,64.0
15036,43.0,0,90,12.0,64.0
15037,79.0,0,90,8.0,64.0
15038,64.0,96,90,11.0,64.0
15039,43.0,24,180,6.0,64.0
15040,55.0,0,90,3.0,64.0
15041,62.0,0,90,11.0,64.0
15042,77.0,120,90,8.0,64.0
15043,55.0,0,90,5.0,64.0
15044,31.0,0,90,12.0,64.0
15045,43.0,0,90,3.0,64.0
15046,67.0,96,90,5.0,64.0
15047,60.0,0,90,11.0,64.0
15048,43.0,24,180,6.0,64.0
15049,76.0,0,90,8.0,64.0
15050,77.0,72,90,8.0,64.0
15051,62.0,0,90,11.0,64.0
15052,79.0,0,90,8.0,64.0
15053,31.0,0,90,12.0,64.0
15054,43.0,120,90,3.0,64.0
15055,64.0,0,90,11.0,64.0
15056,76.0,0,90,8.0,64.0
15057,60.0,120,90,11.0,64.0
15058,72.0,0,240,1.0,64.0
15059,81.0,0,90,8.0,64.0
15060,43.0,0,90,3.0,64.0
15061,43.0,24,180,6.0,64.0
15062,65.0,0,90,11.0,64.0
15063,69.0,96,240,2.0,64.0
15064,55.0,0,90,5.0,64.0
15065,67.0,0,90,5.0,64.0
15066,81.0,0,240,7.0,64.0
15067,81.0,0,240,0.0,64.0
15068,31.0,96,90,12.0,64.0
15069,67.0,0,90,11.0,64.0
15070,71.0,24,90,8.0,64.0
15071,71.0,72,120,2.0,64.0
15072,83.0,0,120,0.0,64.0
15073,55.0,0,90,3.0,64.0
15074,69.0,0,90,8.0,64.0
15075,83.0,0,120,7.0,64.0
15076,43.0,24,180,6.0,64.0
15077,43.0,0,90,12.0,64.0
15078,65.0,24,90,11.0,64.0
15079,67.0,0,90,5.0,64.0
15080,55.0,0,90,5.0,64.0
15081,74.0,0,120,1.0,64.0
15082,84.0,0,120,7.0,64.0
15083,67.0,24,90,8.0,64.0
15084,72.0,0,120,2.0,64.0
15085,64.0,0,90,11.0,64.0
15086,76.0,96,120,1.0,64.0
15087,84.0,0,120,0.0,64.0
15088,65.0,0,90,8.0,64.0
15089,43.0,24,180,6.0,64.0
15090,86.0,0,90,0.0,64.0
15091,62.0,0,90,11.0,64.0
15092,86.0,0,90,7.0,64.0
15093,55.0,0,90,5.0,64.0
15094,31.0,0,90,12.0,64.0
15095,74.0,0,90,2.0,64.0
15096,77.0,0,90,1.0,64.0
15097,43.0,0,90,3.0,64.0
15098,67.0,0,90,5.0,64.0
15099,64.0,120,90,11.0,64.0
15100,67.0,0,90,8.0,64.0
15101,65.0,120,90,8.0,64.0
15102,86.0,0,90,7.0,64.0
15103,77.0,0,90,1.0,64.0
15104,31.0,0,90,12.0,64.0
15105,86.0,0,90,0.0,64.0
15106,74.0,0,90,2.0,64.0
15107,43.0,0,90,3.0,64.0
15108,62.0,0,90,11.0,64.0
15109,64.0,0,90,8.0,64.0
15110,60.0,120,90,11.0,64.0
15111,43.0,0,90,3.0,64.0
15112,62.0,0,240,3.0,64.0
15113,65.0,0,90,2.0,64.0
15114,79.0,0,90,0.0,64.0
15115,91.0,0,90,0.0,64.0
15116,43.0,0,1530,4.0,64.0
15117,62.0,0,90,8.0,64.0
15118,67.0,0,1530,4.0,64.0
15119,55.0,96,1530,4.0,64.0
15120,74.0,96,90,2.0,64.0
15121,65.0,0,240,3.0,64.0
15122,31.0,0,90,12.0,64.0
15123,43.0,24,180,6.0,64.0
15124,67.0,0,90,5.0,64.0
15125,55.0,0,90,5.0,64.0
15126,79.0,96,240,7.0,64.0
15127,71.0,0,240,1.0,64.0
15128,59.0,0,90,11.0,64.0
15129,62.0,0,90,11.0,64.0
15130,65.0,24,90,8.0,64.0
15131,65.0,0,90,8.0,64.0
15132,64.0,0,120,3.0,64.0
15133,55.0,0,90,3.0,64.0
15134,91.0,0,90,0.0,64.0
15135,67.0,0,90,5.0,64.0
15136,79.0,0,90,2.0,64.0
15137,72.0,0,120,1.0,64.0
15138,67.0,0,90,2.0,64.0
15139,62.0,0,90,11.0,64.0
15140,55.0,24,90,5.0,64.0
15141,79.0,0,90,0.0,64.0
15142,67.0,0,120,3.0,64.0
15143,43.0,24,180,6.0,64.0
15144,43.0,0,90,12.0,64.0
15145,81.0,72,120,7.0,64.0
15146,83.0,0,120,7.0,64.0
15147,65.0,0,120,3.0,64.0
15148,62.0,24,90,11.0,64.0
15149,74.0,96,120,1.0,64.0
15150,65.0,0,90,8.0,64.0
15151,62.0,0,120,3.0,64.0
15152,31.0,96,90,12.0,64.0
15153,67.0,0,90,2.0,64.0
15154,79.0,0,90,2.0,64.0
15155,43.0,0,90,3.0,64.0
15156,64.0,0,240,3.0,64.0
15157,55.0,0,90,5.0,64.0
15158,91.0,0,90,0.0,64.0
15159,67.0,0,90,5.0,64.0
15160,43.0,24,180,6.0,64.0
15161,60.0,96,240,3.0,64.0
15162,79.0,0,90,0.0,64.0
15163,60.0,0,90,11.0,64.0
15164,64.0,0,90,8.0,64.0
15165,76.0,0,240,1.0,64.0
15166,84.0,0,240,7.0,64.0
15167,60.0,0,90,11.0,64.0
15168,64.0,24,90,8.0,64.0
15169,86.0,0,120,7.0,64.0
15170,64.0,0,90,8.0,64.0
15171,65.0,0,120,3.0,64.0
15172,60.0,0,90,11.0,64.0
15173,62.0,96,120,3.0,64.0
15174,43.0,24,90,3.0,64.0
15175,31.0,0,90,12.0,64.0
15176,77.0,0,120,1.0,64.0
15177,60.0,24,90,11.0,64.0
15178,79.0,0,120,1.0,64.0
15179,88.0,0,120,7.0,64.0
15180,60.0,96,120,3.0,64.0
15181,64.0,0,90,8.0,64.0
15182,64.0,0,120,3.0,64.0
15183,55.0,0,90,5.0,64.0
15184,59.0,0,90,3.0,64.0
15185,43.0,24,180,6.0,64.0
15186,62.0,0,90,8.0,64.0
15187,31.0,0,90,12.0,64.0
15188,74.0,0,90,1.0,64.0
15189,59.0,96,90,11.0,64.0
15190,89.0,0,90,7.0,64.0
15191,62.0,0,90,3.0,64.0
15192,79.0,0,90,0.0,64.0
15193,67.0,0,90,5.0,64.0
15194,79.0,0,90,2.0,64.0
15195,67.0,0,90,2.0,64.0
15196,43.0,0,90,3.0,64.0
15197,91.0,0,90,0.0,64.0
15198,62.0,120,90,8.0,64.0
15199,59.0,0,90,11.0,64.0
15200,43.0,24,180,6.0,64.0
15201,67.0,0,90,2.0,64.0
15202,79.0,0,90,2.0,64.0
15203,88.0,0,120,7.0,64.0
15204,62.0,24,90,8.0,64.0
15205,55.0,0,90,3.0,64.0
15206,64.0,0,120,3.0,64.0
15207,91.0,0,90,0.0,64.0
15208,60.0,0,120,3.0,64.0
15209,79.0,0,90,0.0,64.0
15210,67.0,0,90,5.0,64.0
15211,55.0,0,90,5.0,64.0
15212,72.0,72,120,1.0,64.0
15213,59.0,0,90,11.0,64.0
15214,43.0,0,90,12.0,64.0
15215,62.0,0,120,3.0,64.0
15216,59.0,0,120,3.0,64.0
15217,89.0,0,120,7.0,64.0
15218,59.0,24,90,11.0,64.0
15219,74.0,96,120,1.0,64.0
15220,62.0,0,90,8.0,64.0
15221,79.0,0,90,0.0,64.0
15222,91.0,0,90,0.0,64.0
15223,67.0,0,90,5.0,64.0
15224,55.0,0,90,5.0,64.0
15225,79.0,0,90,2.0,64.0
15226,67.0,0,90,2.0,64.0
15227,43.0,0,90,3.0,64.0
15228,60.0,0,90,3.0,64.0
15229,57.0,0,90,3.0,64.0
15230,60.0,0,90,8.0,64.0
15231,91.0,0,90,7.0,64.0
15232,76.0,0,90,1.0,64.0
15233,31.0,0,90,12.0,64.0
15234,43.0,24,180,6.0,64.0
15235,57.0,0,90,11.0,64.0
15236,57.0,0,90,11.0,64.0
15237,60.0,120,90,8.0,64.0
15238,74.0,0,90,1.0,64.0
15239,62.0,120,90,8.0,64.0
15240,62.0,0,90,3.0,64.0
15241,43.0,0,90,3.0,64.0
15242,31.0,0,90,12.0,64.0
15243,59.0,0,90,11.0,64.0
15244,59.0,0,90,3.0,64.0
15245,89.0,0,90,7.0,64.0
15246,59.0,0,90,11.0,64.0
15247,62.0,120,90,8.0,64.0
15248,31.0,0,90,12.0,64.0
15249,79.0,0,90,2.0,64.0
15250,67.0,0,90,2.0,64.0
15251,72.0,0,90,1.0,64.0
15252,76.0,0,90,1.0,64.0
15253,60.0,0,90,11.0,64.0
15254,55.0,0,90,5.0,64.0
15255,67.0,0,1530,4.0,64.0
15256,64.0,0,90,4.0,64.0
15257,91.0,0,90,0.0,64.0
15258,60.0,0,90,3.0,64.0
15259,67.0,0,90,5.0,64.0
15260,43.0,0,90,3.0,64.0
15261,60.0,96,90,4.0,64.0
15262,64.0,0,90,8.0,64.0
15263,43.0,24,180,6.0,64.0
15264,64.0,0,90,3.0,64.0
15265,88.0,0,480,7.0,64.0
15266,43.0,0,1530,4.0,64.0
15267,79.0,0,90,0.0,64.0
15268,60.0,120,90,11.0,64.0
15269,64.0,0,90,8.0,64.0
15270,74.0,0,120,1.0,64.0
15271,71.0,0,120,1.0,64.0
15272,79.0,0,90,2.0,64.0
15273,67.0,0,90,2.0,64.0
15274,55.0,0,90,3.0,64.0
15275,55.0,0,90,5.0,64.0
15276,62.0,72,120,4.0,64.0
15277,43.0,0,90,12.0,64.0
15278,79.0,0,90,0.0,64.0
15279,55.0,0,120,4.0,64.0
15280,67.0,0,90,5.0,64.0
15281,62.0,0,120,3.0,64.0
15282,59.0,0,120,3.0,64.0
15283,91.0,24,90,0.0,64.0
15284,64.0,0,90,8.0,64.0
15285,60.0,0,90,11.0,64.0
15286,43.0,24,180,6.0,64.0
15287,64.0,0,120,4.0,64.0
15288,60.0,0,120,4.0,64.0
15289,72.0,0,120,1.0,64.0
15290,76.0,0,120,1.0,64.0
15291,64.0,96,120,3.0,64.0
15292,60.0,0,120,3.0,64.0
15293,64.0,0,90,8.0,64.0
15294,60.0,24,90,11.0,64.0
15295,79.0,0,90,2.0,64.0
15296,65.0,0,90,4.0,64.0
15297,62.0,0,90,4.0,64.0
15298,77.0,0,90,1.0,64.0
15299,74.0,0,90,1.0,64.0
15300,31.0,0,90,12.0,64.0
15301,55.0,0,90,5.0,64.0
15302,79.0,0,90,0.0,64.0
15303,91.0,0,90,0.0,64.0
15304,43.0,0,90,3.0,64.0
15305,62.0,0,90,3.0,64.0
15306,65.0,0,90,3.0,64.0
15307,67.0,0,90,5.0,64.0
15308,65.0,0,90,8.0,64.0
15309,62.0,0,90,11.0,64.0
15310,67.0,96,90,2.0,64.0
15311,43.0,24,180,6.0,64.0
15312,62.0,120,90,11.0,64.0
15313,65.0,0,90,8.0,64.0
15314,64.0,0,90,3.0,64.0
15315,60.0,0,90,3.0,64.0
15316,76.0,0,90,1.0,64.0
15317,72.0,0,90,1.0,64.0
15318,60.0,0,90,11.0,64.0
15319,43.0,0,90,3.0,64.0
15320,60.0,0,90,4.0,64.0
15321,64.0,0,90,4.0,64.0
15322,64.0,0,90,8.0,64.0
15323,31.0,120,90,12.0,64.0
15324,60.0,0,90,11.0,64.0
15325,64.0,120,90,8.0,64.0
15326,67.0,0,90,2.0,64.0
15327,79.0,0,90,0.0,64.0
15328,91.0,0,90,0.0,64.0
15329,71.0,0,90,1.0,64.0
15330,62.0,0,90,8.0,64.0
15331,79.0,96,90,2.0,64.0
15332,62.0,0,90,3.0,64.0
15333,43.0,24,180,6.0,64.0
15334,31.0,0,90,12.0,64.0
15335,74.0,0,90,1.0,64.0
15336,59.0,0,90,11.0,64.0
15337,89.0,0,90,7.0,64.0
15338,67.0,0,90,5.0,64.0
15339,55.0,0,90,5.0,64.0
15340,59.0,0,90,3.0,64.0
15341,43.0,0,90,3.0,64.0
15342,59.0,120,90,11.0,64.0
15343,62.0,0,90,8.0,64.0
15344,79.0,0,90,2.0,64.0
15345,43.0,24,180,6.0,64.0
15346,43.0,0,90,12.0,64.0
15347,88.0,0,120,7.0,64.0
15348,91.0,0,90,0.0,64.0
15349,79.0,0,90,0.0,64.0
15350,59.0,24,90,11.0,64.0
15351,55.0,0,90,3.0,64.0
15352,64.0,0,120,3.0,64.0
15353,55.0,0,90,5.0,64.0
15354,67.0,0,90,5.0,64.0
15355,69.0,0,120,1.0,64.0
15356,72.0,0,120,1.0,64.0
15357,67.0,0,90,2.0,64.0
15358,62.0,0,90,8.0,64.0
15359,60.0,72,120,3.0,64.0
15360,59.0,0,90,11.0,64.0
15361,74.0,96,120,1.0,64.0
15362,89.0,0,120,7.0,64.0
15363,71.0,0,120,1.0,64.0
15364,62.0,0,120,3.0,64.0
15365,59.0,0,120,3.0,64.0
15366,62.0,24,90,8.0,64.0
15367,31.0,0,90,12.0,64.0
15368,57.0,0,90,3.0,64.0
15369,43.0,24,180,6.0,64.0
15370,60.0,0,90,3.0,64.0
15371,43.0,0,90,3.0,64.0
15372,57.0,96,90,11.0,64.0
15373,79.0,0,90,2.0,64.0
15374,91.0,0,90,0.0,64.0
15375,76.0,0,90,1.0,64.0
15376,60.0,0,90,8.0,64.0
15377,72.0,0,90,1.0,64.0
15378,79.0,0,90,0.0,64.0
15379,55.0,0,90,5.0,64.0
15380,67.0,0,90,2.0,64.0
15381,91.0,0,90,7.0,64.0
15382,67.0,0,90,5.0,64.0
15383,60.0,0,90,8.0,64.0
15384,57.0,120,90,11.0,64.0
15385,71.0,0,90,1.0,64.0
15386,74.0,0,90,1.0,64.0
15387,62.0,0,90,3.0,64.0
15388,43.0,0,90,3.0,64.0
15389,31.0,0,90,12.0,64.0
15390,89.0,120,90,7.0,64.0
15391,59.0,0,90,11.0,64.0
15392,62.0,0,90,8.0,64.0
15393,59.0,0,90,3.0,64.0
15394,62.0,120,90,8.0,64.0
15395,59.0,0,90,11.0,64.0
15396,55.0,0,90,5.0,64.0
15397,67.0,0,90,5.0,64.0
15398,64.0,0,90,3.0,64.0
15399,31.0,0,90,12.0,64.0
15400,43.0,24,180,6.0,64.0
15401,60.0,0,90,3.0,64.0
15402,43.0,0,90,3.0,64.0
15403,72.0,96,90,1.0,64.0
15404,60.0,0,90,4.0,64.0
15405,64.0,0,90,4.0,64.0
15406,43.0,0,3450,4.0,64.0
15407,60.0,0,90,11.0,64.0
15408,88.0,0,480,7.0,64.0
15409,76.0,0,90,1.0,64.0
15410,67.0,0,3450,4.0,64.0
15411,67.0,0,90,2.0,64.0
15412,64.0,0,90,8.0,64.0
15413,79.0,0,90,0.0,64.0
15414,91.0,0,90,0.0,64.0
15415,79.0,0,90,2.0,64.0
15416,72.0,0,90,8.0,64.0
15417,67.0,120,90,11.0,64.0
15418,55.0,0,90,5.0,64.0
15419,43.0,24,180,6.0,64.0
15420,79.0,0,90,0.0,64.0
15421,74.0,72,120,1.0,64.0
15422,91.0,0,90,0.0,64.0
15423,67.0,0,90,5.0,64.0
15424,65.0,0,120,3.0,64.0
15425,43.0,24,90,12.0,64.0
15426,62.0,0,120,3.0,64.0
15427,67.0,0,90,11.0,64.0
15428,55.0,0,90,3.0,64.0
15429,79.0,0,90,2.0,64.0
15430,55.0,0,120,4.0,64.0
15431,72.0,0,90,8.0,64.0
15432,62.0,0,120,4.0,64.0
15433,67.0,0,90,2.0,64.0
15434,71.0,0,120,1.0,64.0
15435,60.0,0,120,4.0,64.0
15436,64.0,0,120,4.0,64.0
15437,72.0,0,90,8.0,64.0
15438,72.0,0,120,1.0,64.0
15439,67.0,24,90,11.0,64.0
15440,76.0,96,120,1.0,64.0
15441,64.0,0,120,3.0,64.0
15442,60.0,0,120,3.0,64.0
15443,79.0,0,90,2.0,64.0
15444,67.0,0,90,2.0,64.0
15445,77.0,0,90,1.0,64.0
15446,65.0,0,90,4.0,64.0
15447,62.0,0,90,4.0,64.0
15448,43.0,24,180,6.0,64.0
15449,91.0,0,90,0.0,64.0
15450,72.0,0,90,8.0,64.0
15451,55.0,0,90,5.0,64.0
15452,67.0,0,90,5.0,64.0
15453,67.0,0,90,11.0,64.0
15454,74.0,0,90,1.0,64.0
15455,43.0,0,90,3.0,64.0
15456,59.0,0,90,3.0,64.0
15457,62.0,96,90,3.0,64.0
15458,79.0,0,90,0.0,64.0
15459,31.0,0,90,12.0,64.0
15460,67.0,0,90,11.0,64.0
15461,72.0,120,90,8.0,64.0
15462,43.0,120,90,3.0,64.0
15463,60.0,0,90,4.0,64.0
15464,60.0,0,90,3.0,64.0
15465,67.0,0,90,11.0,64.0
15466,64.0,0,90,4.0,64.0
15467,31.0,0,90,12.0,64.0
15468,72.0,0,90,8.0,64.0
15469,64.0,0,90,3.0,64.0
15470,72.0,0,90,1.0,64.0
15471,76.0,0,90,1.0,64.0
15472,67.0,0,90,11.0,64.0
15473,72.0,120,90,8.0,64.0
15474,88.0,0,90,0.0,64.0
15475,67.0,0,90,3.0,64.0
15476,88.0,0,90,7.0,64.0
15477,67.0,0,90,11.0,64.0
15478,71.0,0,90,1.0,64.0
15479,43.0,24,180,6.0,64.0
15480,31.0,96,90,12.0,64.0
15481,74.0,0,90,1.0,64.0
15482,43.0,0,90,3.0,64.0
15483,55.0,0,90,5.0,64.0
15484,72.0,0,90,8.0,64.0
15485,67.0,0,90,2.0,64.0
15486,84.0,0,90,0.0,64.0
15487,67.0,0,90,5.0,64.0
15488,67.0,120,90,11.0,64.0
15489,72.0,0,90,8.0,64.0
15490,43.0,24,180,6.0,64.0
15491,88.0,0,90,0.0,64.0
15492,67.0,0,90,11.0,64.0
15493,71.0,0,90,1.0,64.0
15494,84.0,0,90,0.0,64.0
15495,86.0,72,120,7.0,64.0
15496,55.0,0,90,5.0,64.0
15497,74.0,0,90,1.0,64.0
15498,67.0,0,90,5.0,64.0
15499,43.0,24,90,12.0,64.0
15500,72.0,0,90,8.0,64.0
15501,66.0,0,120,3.0,64.0
15502,55.0,0,90,3.0,64.0
15503,66.0,0,120,2.0,64.0
15504,67.0,0,120,2.0,64.0
15505,67.0,24,90,11.0,64.0
15506,88.0,0,120,7.0,64.0
15507,72.0,0,90,8.0,64.0
15508,67.0,96,120,3.0,64.0
15509,43.0,0,90,3.0,64.0
15510,89.0,0,90,7.0,64.0
15511,31.0,0,90,12.0,64.0
15512,67.0,0,90,5.0,64.0
15513,69.0,0,90,3.0,64.0
15514,55.0,96,90,5.0,64.0
15515,88.0,0,90,0.0,64.0
15516,84.0,0,90,0.0,64.0
15517,72.0,0,90,8.0,64.0
15518,43.0,24,180,6.0,64.0
15519,67.0,0,90,11.0,64.0
15520,69.0,0,90,2.0,64.0
15521,71.0,0,90,1.0,64.0
15522,74.0,0,90,1.0,64.0
15523,67.0,120,90,11.0,64.0
15524,72.0,0,90,8.0,64.0
15525,43.0,0,90,3.0,64.0
15526,67.0,120,90,3.0,64.0
15527,67.0,0,90,2.0,64.0
15528,31.0,0,90,12.0,64.0
15529,67.0,0,90,11.0,64.0
15530,88.0,0,90,7.0,64.0
15531,72.0,0,90,8.0,64.0
15532,72.0,0,90,8.0,64.0
15533,67.0,120,90,11.0,64.0
15534,67.0,0,90,5.0,64.0
15535,84.0,0,90,0.0,64.0
15536,86.0,0,90,0.0,64.0
15537,55.0,96,90,5.0,64.0
15538,74.0,0,90,1.0,64.0
15539,43.0,0,90,3.0,64.0
15540,66.0,0,90,3.0,64.0
15541,72.0,0,90,1.0,64.0
15542,66.0,0,90,11.0,64.0
15543,66.0,0,90,2.0,64.0
15544,86.0,0,480,7.0,64.0
15545,72.0,0,90,8.0,64.0
15546,43.0,24,180,6.0,64.0
15547,69.0,0,90,8.0,64.0
15548,31.0,0,90,12.0,64.0
15549,72.0,0,90,8.0,64.0
15550,69.0,0,90,8.0,64.0
15551,66.0,120,90,11.0,64.0
15552,43.0,24,180,6.0,64.0
15553,72.0,0,90,1.0,64.0
15554,62.0,72,120,3.0,64.0
15555,74.0,0,90,1.0,64.0
15556,55.0,0,90,3.0,64.0
15557,55.0,0,90,5.0,64.0
15558,69.0,0,90,8.0,64.0
15559,72.0,0,90,8.0,64.0
15560,86.0,24,90,0.0,64.0
15561,66.0,0,90,11.0,64.0
15562,62.0,0,120,2.0,64.0
15563,84.0,0,90,0.0,64.0
15564,67.0,0,90,5.0,64.0
15565,43.0,0,90,12.0,64.0
15566,64.0,96,120,2.0,64.0
15567,66.0,0,90,11.0,64.0
15568,64.0,0,120,3.0,64.0
15569,72.0,0,90,8.0,64.0
15570,69.0,24,90,8.0,64.0
15571,66.0,0,90,11.0,64.0
15572,66.0,0,90,3.0,64.0
15573,43.0,0,90,3.0,64.0
15574,31.0,0,90,12.0,64.0
15575,66.0,0,90,2.0,64.0
15576,67.0,0,90,5.0,64.0
15577,55.0,96,90,5.0,64.0
15578,86.0,0,90,0.0,64.0
15579,84.0,0,90,0.0,64.0
15580,74.0,0,90,1.0,64.0
15581,69.0,0,90,8.0,64.0
15582,43.0,24,180,6.0,64.0
15583,72.0,0,90,8.0,64.0
15584,72.0,0,90,1.0,64.0
15585,66.0,0,90,11.0,64.0
15586,69.0,120,90,8.0,64.0
15587,72.0,0,90,8.0,64.0
15588,31.0,0,90,12.0,64.0
15589,69.0,0,90,8.0,64.0
15590,72.0,0,90,8.0,64.0
15591,43.0,0,90,3.0,64.0
15592,66.0,0,90,3.0,64.0
15593,66.0,0,90,2.0,64.0
15594,66.0,120,90,11.0,64.0
15595,72.0,0,90,8.0,64.0
15596,69.0,0,90,8.0,64.0
15597,66.0,120,90,11.0,64.0
15598,86.0,96,90,0.0,64.0
15599,65.0,0,90,3.0,64.0
15600,67.0,0,90,5.0,64.0
15601,55.0,0,90,5.0,64.0
15602,71.0,0,90,8.0,64.0
15603,65.0,0,90,2.0,64.0
15604,43.0,24,180,6.0,64.0
15605,43.0,0,90,3.0,64.0
15606,83.0,0,90,0.0,64.0
15607,67.0,0,90,8.0,64.0
15608,65.0,0,90,11.0,64.0
15609,86.0,0,90,7.0,64.0
15610,74.0,0,90,1.0,64.0
15611,71.0,0,90,1.0,64.0
15612,31.0,0,90,12.0,64.0
15613,71.0,0,90,8.0,64.0
15614,67.0,120,90,8.0,64.0
15615,65.0,0,90,11.0,64.0
15616,71.0,0,90,8.0,64.0
15617,67.0,0,90,8.0,64.0
15618,84.0,0,120,7.0,64.0
15619,86.0,0,90,0.0,64.0
15620,64.0,72,120,2.0,64.0
15621,55.0,24,90,3.0,64.0
15622,64.0,0,120,3.0,64.0
15623,74.0,0,90,1.0,64.0
15624,67.0,0,90,5.0,64.0
15625,55.0,0,90,5.0,64.0
15626,43.0,24,180,6.0,64.0
15627,65.0,0,90,11.0,64.0
15628,71.0,0,90,1.0,64.0
15629,43.0,0,90,12.0,64.0
15630,83.0,0,90,0.0,64.0
15631,86.0,0,120,7.0,64.0
15632,65.0,0,90,11.0,64.0
15633,71.0,0,90,8.0,64.0
15634,67.0,24,90,8.0,64.0
15635,65.0,96,120,3.0,64.0
15636,65.0,0,120,2.0,64.0
15637,74.0,0,90,1.0,64.0
15638,43.0,0,90,3.0,64.0
15639,67.0,0,90,3.0,64.0
15640,67.0,0,90,8.0,64.0
15641,31.0,96,90,12.0,64.0
15642,65.0,0,90,11.0,64.0
15643,88.0,0,90,7.0,64.0
15644,67.0,0,90,2.0,64.0
15645,71.0,0,90,8.0,64.0
15646,43.0,24,180,6.0,64.0
15647,71.0,0,90,1.0,64.0
15648,55.0,0,90,5.0,64.0
15649,67.0,0,90,5.0,64.0
15650,83.0,0,90,0.0,64.0
15651,86.0,0,90,0.0,64.0
15652,71.0,0,90,8.0,64.0
15653,67.0,120,90,8.0,64.0
15654,65.0,0,90,11.0,64.0
15655,43.0,0,90,3.0,64.0
15656,65.0,0,90,3.0,64.0
15657,65.0,120,90,2.0,64.0
15658,31.0,0,90,12.0,64.0
15659,67.0,0,90,8.0,64.0
15660,65.0,0,90,11.0,64.0
15661,86.0,0,90,7.0,64.0
15662,71.0,0,90,8.0,64.0
15663,65.0,120,90,11.0,64.0
15664,67.0,0,90,8.0,64.0
15665,71.0,0,90,8.0,64.0
15666,64.0,0,90,11.0,64.0
15667,67.0,0,90,1.0,64.0
15668,43.0,24,180,6.0,64.0
15669,43.0,96,90,3.0,64.0
15670,43.0,0,780,4.0,64.0
15671,91.0,0,90,0.0,64.0
15672,31.0,0,90,12.0,64.0
15673,55.0,48,780,4.0,64.0
15674,79.0,0,90,0.0,64.0
15675,79.0,0,90,1.0,64.0
15676,64.0,0,90,2.0,64.0
15677,55.0,0,90,5.0,64.0
15678,67.0,0,90,5.0,64.0
15679,84.0,0,90,7.0,64.0
15680,52.0,0,90,3.0,64.0
15681,67.0,0,780,4.0,64.0
15682,64.0,120,90,11.0,64.0
15683,64.0,0,90,3.0,64.0
15684,83.0,72,120,7.0,64.0
15685,65.0,0,90,11.0,64.0
15686,79.0,0,90,2.0,64.0
15687,76.0,0,90,2.0,64.0
15688,67.0,0,90,5.0,64.0
15689,55.0,0,90,5.0,64.0
15690,67.0,0,90,3.0,64.0
15691,84.0,0,90,1.0,64.0
15692,43.0,0,90,12.0,64.0
15693,43.0,24,180,6.0,64.0
15694,76.0,0,90,1.0,64.0
15695,55.0,0,90,3.0,64.0
15696,79.0,24,90,0.0,64.0
15697,91.0,0,90,0.0,64.0
15698,64.0,24,90,11.0,64.0
15699,84.0,96,120,7.0,64.0
15700,65.0,0,90,11.0,64.0
15701,43.0,96,90,3.0,64.0
15702,69.0,0,90,3.0,64.0
15703,55.0,0,90,5.0,64.0
15704,86.0,0,90,7.0,64.0
15705,65.0,0,90,3.0,64.0
15706,86.0,0,90,1.0,64.0
15707,77.0,0,90,1.0,64.0
15708,79.0,0,90,0.0,64.0
15709,91.0,0,90,0.0,64.0
15710,77.0,0,90,2.0,64.0
15711,81.0,0,90,2.0,64.0
15712,43.0,24,180,6.0,64.0
15713,31.0,0,90,12.0,64.0
15714,67.0,0,90,5.0,64.0
15715,65.0,72,90,11.0,64.0
15716,76.0,0,90,1.0,64.0
15717,84.0,0,90,7.0,64.0
15718,43.0,0,90,3.0,64.0
15719,64.0,0,90,3.0,64.0
15720,64.0,0,90,11.0,64.0
15721,84.0,0,90,1.0,64.0
15722,67.0,0,90,3.0,64.0
15723,31.0,120,90,12.0,64.0
15724,79.0,0,90,2.0,64.0
15725,76.0,0,90,2.0,64.0
15726,64.0,120,90,11.0,64.0
15727,83.0,0,90,7.0,64.0
15728,67.0,0,90,5.0,64.0
15729,79.0,0,90,0.0,64.0
15730,43.0,24,180,6.0,64.0
15731,55.0,0,90,5.0,64.0
15732,91.0,0,90,0.0,64.0
15733,83.0,0,90,1.0,64.0
15734,43.0,0,780,4.0,64.0
15735,55.0,48,780,4.0,64.0
15736,77.0,0,90,2.0,64.0
15737,74.0,0,90,2.0,64.0
15738,43.0,0,90,3.0,64.0
15739,65.0,0,90,3.0,64.0
15740,62.0,0,90,3.0,64.0
15741,31.0,96,90,12.0,64.0
15742,62.0,0,90,11.0,64.0
15743,67.0,0,780,4.0,64.0
15744,74.0,0,90,1.0,64.0
15745,62.0,120,90,11.0,64.0
15746,74.0,0,90,2.0,64.0
15747,74.0,0,90,1.0,64.0
15748,83.0,0,90,1.0,64.0
15749,67.0,0,90,5.0,64.0
15750,55.0,0,90,5.0,64.0
15751,81.0,72,120,7.0,64.0
15752,77.0,0,90,2.0,64.0
15753,43.0,0,90,12.0,64.0
15754,64.0,0,90,11.0,64.0
15755,65.0,0,90,3.0,64.0
15756,62.0,0,90,3.0,64.0
15757,55.0,0,90,3.0,64.0
15758,91.0,24,90,0.0,64.0
15759,43.0,24,180,6.0,64.0
15760,79.0,0,90,0.0,64.0
15761,83.0,96,120,7.0,64.0
15762,62.0,24,90,11.0,64.0
15763,43.0,24,180,6.0,64.0
15764,84.0,0,90,1.0,64.0
15765,76.0,0,90,1.0,64.0
15766,76.0,0,90,2.0,64.0
15767,67.0,0,90,5.0,64.0
15768,55.0,0,90,5.0,64.0
15769,64.0,0,90,11.0,64.0
15770,67.0,0,90,3.0,64.0
15771,43.0,0,90,3.0,64.0
15772,64.0,96,90,3.0,64.0
15773,31.0,0,90,12.0,64.0
15774,91.0,0,90,0.0,64.0
15775,84.0,0,90,7.0,64.0
15776,79.0,0,90,2.0,64.0
15777,79.0,0,90,0.0,64.0
15778,64.0,72,90,11.0,64.0
15779,74.0,0,90,1.0,64.0
15780,31.0,0,90,12.0,64.0
15781,62.0,0,90,11.0,64.0
15782,43.0,0,90,3.0,64.0
15783,62.0,120,90,3.0,64.0
15784,83.0,0,90,7.0,64.0
15785,83.0,0,90,1.0,64.0
15786,65.0,0,90,3.0,64.0
15787,74.0,0,90,2.0,64.0
15788,77.0,0,90,2.0,64.0
15789,62.0,120,90,11.0,64.0
15790,60.0,0,90,3.0,64.0
15791,64.0,0,90,3.0,64.0
15792,31.0,0,90,12.0,64.0
15793,55.0,0,90,5.0,64.0
15794,79.0,0,90,0.0,64.0
15795,91.0,0,90,0.0,64.0
15796,43.0,0,90,3.0,64.0
15797,43.0,24,180,6.0,64.0
15798,72.0,0,90,1.0,64.0
15799,43.0,0,780,4.0,64.0
15800,67.0,48,780,4.0,64.0
15801,67.0,0,90,5.0,64.0
15802,55.0,0,780,4.0,64.0
15803,60.0,0,90,11.0,64.0
15804,76.0,0,90,2.0,64.0
15805,72.0,96,90,2.0,64.0
15806,81.0,0,90,1.0,64.0
15807,81.0,0,90,7.0,64.0
15808,60.0,120,90,11.0,64.0
15809,43.0,24,180,6.0,64.0
15810,64.0,0,90,3.0,64.0
15811,91.0,0,90,0.0,64.0
15812,67.0,24,90,5.0,64.0
15813,55.0,0,90,5.0,64.0
15814,81.0,0,90,1.0,64.0
15815,72.0,0,90,2.0,64.0
15816,76.0,0,90,2.0,64.0
15817,43.0,0,90,12.0,64.0
15818,79.0,72,120,7.0,64.0
15819,55.0,0,90,3.0,64.0
15820,60.0,0,90,3.0,64.0
15821,62.0,0,90,11.0,64.0
15822,79.0,0,90,0.0,64.0
15823,60.0,24,90,11.0,64.0
15824,81.0,96,120,7.0,64.0
15825,74.0,0,90,2.0,64.0
15826,43.0,24,180,6.0,64.0
15827,91.0,0,90,0.0,64.0
15828,83.0,0,90,1.0,64.0
15829,62.0,0,90,11.0,64.0
15830,77.0,96,90,2.0,64.0
15831,43.0,0,90,3.0,64.0
15832,65.0,0,90,3.0,64.0
15833,62.0,0,90,3.0,64.0
15834,83.0,0,90,7.0,64.0
15835,67.0,0,90,5.0,64.0
15836,55.0,0,90,5.0,64.0
15837,31.0,0,90,12.0,64.0
15838,79.0,0,90,0.0,64.0
15839,62.0,72,90,11.0,64.0
15840,60.0,0,90,11.0,64.0
15841,81.0,0,90,7.0,64.0
15842,76.0,0,90,2.0,64.0
15843,72.0,0,90,2.0,64.0
15844,81.0,0,90,1.0,64.0
15845,31.0,120,90,12.0,64.0
15846,60.0,0,90,3.0,64.0
15847,64.0,0,90,3.0,64.0
15848,43.0,0,90,3.0,64.0
15849,60.0,120,90,11.0,64.0
15850,59.0,96,90,11.0,64.0
15851,79.0,0,90,0.0,64.0
15852,91.0,0,90,0.0,64.0
15853,43.0,24,180,6.0,64.0
15854,79.0,0,90,1.0,64.0
15855,43.0,0,90,3.0,64.0
15856,59.0,0,90,3.0,64.0
15857,43.0,48,780,4.0,64.0
15858,55.0,0,780,4.0,64.0
15859,67.0,0,780,4.0,64.0
15860,74.0,0,90,2.0,64.0
15861,71.0,0,90,2.0,64.0
15862,55.0,0,90,5.0,64.0
15863,67.0,0,90,5.0,64.0
15864,79.0,0,90,7.0,64.0
15865,62.0,0,90,3.0,64.0
15866,31.0,0,90,12.0,64.0
15867,59.0,120,90,11.0,64.0
15868,43.0,24,180,6.0,64.0
15869,43.0,24,90,12.0,64.0
15870,55.0,0,90,5.0,64.0
15871,71.0,0,90,2.0,64.0
15872,77.0,0,90,0.0,64.0
15873,67.0,0,90,5.0,64.0
15874,89.0,0,90,0.0,64.0
15875,60.0,0,90,11.0,64.0
15876,74.0,0,90,2.0,64.0
15877,77.0,72,120,7.0,64.0
15878,62.0,0,90,3.0,64.0
15879,59.0,0,90,3.0,64.0
15880,55.0,0,90,3.0,64.0
15881,79.0,0,90,1.0,64.0
15882,59.0,24,90,11.0,64.0
15883,79.0,96,120,7.0,64.0
15884,81.0,0,90,1.0,64.0
15885,67.0,0,90,5.0,64.0
15886,81.0,0,90,7.0,64.0
15887,55.0,0,90,5.0,64.0
15888,93.0,0,90,0.0,64.0
15889,81.0,0,90,0.0,64.0
15890,76.0,0,90,2.0,64.0
15891,60.0,96,90,11.0,64.0
15892,72.0,0,90,2.0,64.0
15893,43.0,0,90,3.0,64.0
15894,60.0,0,90,3.0,64.0
15895,64.0,0,90,3.0,64.0
15896,31.0,0,90,12.0,64.0
15897,43.0,24,180,6.0,64.0
15898,60.0,72,90,11.0,64.0
15899,79.0,0,90,0.0,64.0
15900,91.0,0,90,0.0,64.0
15901,79.0,0,90,1.0,64.0
15902,31.0,0,90,12.0,64.0
15903,62.0,0,90,3.0,64.0
15904,43.0,0,90,3.0,64.0
15905,79.0,0,90,7.0,64.0
15906,59.0,120,90,3.0,64.0
15907,59.0,0,90,11.0,64.0
15908,71.0,0,90,2.0,64.0
15909,74.0,0,90,2.0,64.0
15910,59.0,120,90,11.0,64.0
15911,60.0,0,90,3.0,64.0
15912,67.0,0,90,5.0,64.0
15913,55.0,0,90,5.0,64.0
15914,91.0,0,90,0.0,64.0
15915,79.0,0,90,0.0,64.0
15916,57.0,0,90,11.0,64.0
15917,57.0,0,90,3.0,64.0
15918,43.0,0,90,3.0,64.0
15919,43.0,0,90,4.0,64.0
15920,67.0,0,90,4.0,64.0
15921,79.0,0,90,1.0,64.0
15922,43.0,24,180,6.0,64.0
15923,79.0,0,90,7.0,64.0
15924,31.0,0,90,12.0,64.0
15925,55.0,96,90,4.0,64.0
15926,69.0,0,90,2.0,64.0
15927,72.0,0,90,2.0,64.0
15928,57.0,120,90,11.0,64.0
15929,55.0,96,90,5.0,64.0
15930,67.0,0,90,4.0,64.0
15931,77.0,0,90,1.0,64.0
15932,71.0,0,90,2.0,64.0
15933,74.0,0,90,2.0,64.0
15934,43.0,0,90,4.0,64.0
15935,67.0,0,90,5.0,64.0
15936,59.0,0,90,11.0,64.0
15937,77.0,0,90,7.0,64.0
15938,55.0,0,90,4.0,64.0
15939,89.0,0,90,0.0,64.0
15940,43.0,24,180,6.0,64.0
15941,43.0,0,90,12.0,64.0
15942,55.0,0,90,3.0,64.0
15943,62.0,0,90,3.0,64.0
15944,59.0,0,90,3.0,64.0
15945,77.0,0,90,0.0,64.0
15946,59.0,120,90,11.0,64.0
15947,71.0,0,90,2.0,64.0
15948,67.0,0,90,2.0,64.0
15949,43.0,0,90,3.0,64.0
15950,59.0,0,90,3.0,64.0
15951,31.0,0,90,12.0,64.0
15952,55.0,0,90,3.0,64.0
15953,55.0,96,90,4.0,64.0
15954,43.0,0,90,4.0,64.0
15955,67.0,0,90,4.0,64.0
15956,43.0,24,180,6.0,64.0
15957,55.0,0,90,5.0,64.0
15958,67.0,0,90,5.0,64.0
15959,77.0,0,90,7.0,64.0
15960,77.0,0,90,1.0,64.0
15961,89.0,0,90,0.0,64.0
15962,77.0,0,90,0.0,64.0
15963,55.0,0,90,11.0,64.0
15964,55.0,120,90,11.0,64.0
15965,55.0,0,90,4.0,64.0
15966,43.0,0,90,3.0,64.0
15967,57.0,0,90,3.0,64.0
15968,60.0,0,90,3.0,64.0
15969,72.0,0,90,2.0,64.0
15970,69.0,0,90,2.0,64.0
15971,43.0,0,90,4.0,64.0
15972,76.0,120,90,1.0,64.0
15973,88.0,0,90,0.0,64.0
15974,76.0,0,90,0.0,64.0
15975,57.0,0,90,11.0,64.0
15976,67.0,0,90,4.0,64.0
15977,31.0,0,90,12.0,64.0
15978,76.0,0,90,7.0,64.0
15979,57.0,120,90,11.0,64.0
15980,43.0,0,90,3.0,64.0
15981,76.0,0,90,1.0,64.0
15982,76.0,0,90,0.0,64.0
15983,53.0,0,90,3.0,64.0
15984,57.0,0,90,3.0,64.0
15985,88.0,0,90,0.0,64.0
15986,53.0,0,90,11.0,64.0
15987,67.0,0,90,5.0,64.0
15988,76.0,0,90,7.0,64.0
15989,31.0,0,90,12.0,64.0
15990,43.0,24,180,6.0,64.0
15991,67.0,0,90,4.0,64.0
15992,65.0,96,90,2.0,64.0
15993,69.0,0,90,2.0,64.0
15994,55.0,0,90,5.0,64.0
15995,55.0,0,90,4.0,64.0
15996,43.0,0,90,4.0,64.0
15997,53.0,120,90,11.0,64.0
15998,67.0,0,90,4.0,64.0
15999,55.0,0,90,11.0,64.0
16000,43.0,24,180,6.0,64.0
16001,67.0,0,90,2.0,64.0
16002,43.0,0,90,12.0,64.0
16003,71.0,0,90,2.0,64.0
16004,55.0,0,90,4.0,64.0
16005,59.0,0,90,3.0,64.0
16006,43.0,96,90,4.0,64.0
16007,74.0,0,90,7.0,64.0
16008,74.0,0,90,1.0,64.0
16009,55.0,0,90,3.0,64.0
16010,55.0,0,90,5.0,64.0
16011,74.0,0,90,0.0,64.0
16012,86.0,0,90,0.0,64.0
16013,67.0,0,90,5.0,64.0
16014,55.0,104,90,11.0,64.0
16015,52.0,96,90,11.0,64.0
16016,86.0,0,90,0.0,64.0
16017,74.0,0,90,0.0,64.0
16018,55.0,0,90,3.0,64.0
16019,55.0,0,90,5.0,64.0
16020,67.0,0,90,5.0,64.0
16021,31.0,0,90,12.0,64.0
16022,67.0,0,90,4.0,64.0
16023,43.0,0,90,4.0,64.0
16024,55.0,0,90,4.0,64.0
16025,74.0,0,90,1.0,64.0
16026,52.0,0,90,3.0,64.0
16027,74.0,0,90,7.0,64.0
16028,43.0,0,90,3.0,64.0
16029,43.0,24,180,6.0,64.0
16030,64.0,16,90,2.0,64.0
16031,67.0,0,90,2.0,64.0
16032,52.0,120,90,11.0,64.0
16033,72.0,0,90,0.0,64.0
16034,57.0,0,90,3.0,64.0
16035,31.0,0,90,12.0,64.0
16036,53.0,0,90,3.0,64.0
16037,84.0,0,90,0.0,64.0
16038,43.0,0,90,4.0,64.0
16039,67.0,0,90,4.0,64.0
16040,55.0,0,90,4.0,64.0
16041,72.0,0,90,7.0,64.0
16042,65.0,0,90,2.0,64.0
16043,43.0,0,90,3.0,64.0
16044,69.0,0,90,2.0,64.0
16045,72.0,0,90,1.0,64.0
16046,53.0,120,90,11.0,64.0
16047,53.0,120,90,11.0,64.0
16048,55.0,0,90,4.0,64.0
16049,72.0,0,90,1.0,64.0
16050,31.0,0,90,12.0,64.0
16051,43.0,0,90,3.0,64.0
16052,72.0,0,90,7.0,64.0
16053,53.0,0,90,3.0,64.0
16054,67.0,0,90,4.0,64.0
16055,62.0,0,90,2.0,64.0
16056,65.0,0,90,2.0,64.0
16057,43.0,24,180,6.0,64.0
16058,50.0,0,90,3.0,64.0
16059,55.0,0,90,5.0,64.0
16060,84.0,96,90,0.0,64.0
16061,43.0,0,90,4.0,64.0
16062,50.0,0,90,11.0,64.0
16063,67.0,0,90,5.0,64.0
16064,50.0,104,90,11.0,64.0
16065,71.0,0,90,1.0,64.0
16066,43.0,24,180,6.0,64.0
16067,71.0,0,90,7.0,64.0
16068,64.0,16,90,2.0,64.0
16069,43.0,0,90,12.0,64.0
16070,52.0,0,90,3.0,64.0
16071,55.0,0,90,4.0,64.0
16072,83.0,0,90,0.0,64.0
16073,43.0,0,90,4.0,64.0
16074,67.0,96,90,4.0,64.0
16075,55.0,0,90,3.0,64.0
16076,67.0,0,90,5.0,64.0
16077,55.0,0,90,5.0,64.0
16078,67.0,0,90,2.0,64.0
16079,52.0,0,90,11.0,64.0
16080,52.0,104,90,11.0,64.0
16081,55.0,0,90,5.0,64.0
16082,67.0,0,90,5.0,64.0
16083,83.0,0,90,0.0,64.0
16084,43.0,0,90,3.0,64.0
16085,48.0,0,90,3.0,64.0
16086,43.0,24,180,6.0,64.0
16087,67.0,0,90,4.0,64.0
16088,55.0,0,90,4.0,64.0
16089,60.0,0,90,2.0,64.0
16090,48.0,0,90,11.0,64.0
16091,52.0,0,90,3.0,64.0
16092,31.0,0,90,12.0,64.0
16093,71.0,0,90,7.0,64.0
16094,71.0,0,90,1.0,64.0
16095,64.0,16,90,2.0,64.0
16096,43.0,96,90,4.0,64.0
16097,48.0,120,90,11.0,64.0
16098,81.0,0,90,0.0,64.0
16099,69.0,0,90,1.0,64.0
16100,55.0,0,90,4.0,64.0
16101,62.0,0,90,2.0,64.0
16102,65.0,0,90,2.0,64.0
16103,43.0,0,90,4.0,64.0
16104,69.0,0,90,7.0,64.0
16105,50.0,0,90,3.0,64.0
16106,53.0,120,90,3.0,64.0
16107,43.0,0,90,3.0,64.0
16108,67.0,0,90,4.0,64.0
16109,31.0,0,90,12.0,64.0
16110,50.0,0,90,11.0,64.0
16111,50.0,120,90,11.0,64.0
16112,62.0,0,90,2.0,64.0
16113,59.0,96,90,2.0,64.0
16114,43.0,0,90,4.0,64.0
16115,55.0,0,90,5.0,64.0
16116,43.0,24,180,6.0,64.0
16117,67.0,0,90,5.0,64.0
16118,55.0,0,90,4.0,64.0
16119,69.0,0,90,7.0,64.0
16120,69.0,0,90,1.0,64.0
16121,31.0,0,90,12.0,64.0
16122,67.0,0,90,4.0,64.0
16123,47.0,0,90,11.0,64.0
16124,43.0,0,90,3.0,64.0
16125,47.0,0,90,3.0,64.0
16126,50.0,0,90,3.0,64.0
16127,81.0,0,90,0.0,64.0
16128,47.0,104,90,11.0,64.0
16129,43.0,96,90,4.0,64.0
16130,67.0,0,90,7.0,64.0
16131,55.0,0,90,5.0,64.0
16132,67.0,0,90,5.0,64.0
16133,48.0,0,90,3.0,64.0
16134,67.0,0,90,1.0,64.0
16135,55.0,0,90,3.0,64.0
16136,52.0,0,90,3.0,64.0
16137,55.0,0,90,4.0,64.0
16138,48.0,0,90,11.0,64.0
16139,64.0,16,90,2.0,64.0
16140,60.0,0,90,2.0,64.0
16141,79.0,0,90,0.0,64.0
16142,43.0,24,180,6.0,64.0
16143,67.0,0,90,4.0,64.0
16144,43.0,0,90,12.0,64.0
16145,48.0,120,90,11.0,64.0
16146,31.0,0,90,12.0,64.0
16147,67.0,0,90,1.0,64.0
16148,45.0,0,90,11.0,64.0
16149,43.0,0,90,4.0,64.0
16150,67.0,0,90,4.0,64.0
16151,57.0,96,90,2.0,64.0
16152,60.0,0,90,2.0,64.0
16153,48.0,0,90,3.0,64.0
16154,45.0,0,90,3.0,64.0
16155,79.0,0,90,0.0,64.0
16156,55.0,0,90,5.0,64.0
16157,67.0,0,90,5.0,64.0
16158,43.0,0,90,3.0,64.0
16159,67.0,0,90,7.0,64.0
16160,55.0,0,90,4.0,64.0
16161,43.0,24,180,6.0,64.0
16162,45.0,120,90,11.0,64.0
16163,67.0,120,90,4.0,64.0
16164,59.0,0,90,2.0,64.0
16165,50.0,0,90,3.0,64.0
16166,43.0,0,90,3.0,64.0
16167,47.0,0,90,3.0,64.0
16168,65.0,0,90,1.0,64.0
16169,31.0,0,90,12.0,64.0
16170,47.0,0,90,11.0,64.0
16171,62.0,0,90,2.0,64.0
16172,65.0,0,90,7.0,64.0
16173,55.0,0,90,4.0,64.0
16174,43.0,0,90,4.0,64.0
16175,77.0,0,90,0.0,64.0
16176,47.0,216,90,11.0,64.0
16177,55.0,0,180,4.0,64.0
16178,43.0,0,180,4.0,64.0
16179,55.0,0,180,7.0,64.0
16180,47.0,0,180,3.0,64.0
16181,43.0,0,180,3.0,64.0
16182,67.0,0,180,5.0,64.0
16183,62.0,0,180,2.0,64.0
16184,59.0,0,180,2.0,64.0
16185,67.0,192,180,4.0,64.0
16186,65.0,0,180,7.0,64.0
16187,55.0,0,180,5.0,64.0
16188,43.0,192,390,6.0,64.0
16189,31.0,0,180,12.0,64.0
16190,77.0,0,180,0.0,64.0
16191,65.0,0,180,1.0,64.0
16192,43.0,0,180,11.0,64.0
16193,62.0,0,180,8.0,64.0
16194,77.0,0,180,1.0,64.0
16195,59.0,0,180,10.0,64.0
16196,74.0,0,3450,2.0,64.0
16197,77.0,0,3450,2.0,64.0
16198,62.0,0,3450,4.0,64.0
16199,59.0,0,3450,3.0,64.0
16200,55.0,0,3450,3.0,64.0
16201,65.0,0,3450,10.0,64.0
16202,43.0,0,3450,11.0,64.0
16203,74.0,0,3450,8.0,64.0
16204,77.0,288,3450,8.0,64.0
16205,83.0,0,3450,1.0,64.0
16206,74.0,0,3450,1.0,64.0
16207,55.0,0,3450,4.0,64.0
16208,83.0,0,3450,0.0,64.0
16209,55.0,0,3450,10.0,64.0
16210,71.0,72,90,7.0,64.0
16211,62.0,0,90,7.0,64.0
16212,67.0,0,3450,5.0,64.0
16213,74.0,0,3450,5.0,64.0
16214,31.0,0,3450,12.0,64.0
16215,83.0,0,3450,7.0,64.0
16216,43.0,60,60,6.0,64.0
16217,43.0,60,60,6.0,64.0
16218,43.0,60,60,6.0,64.0
16219,43.0,60,60,6.0,64.0
16220,43.0,60,60,6.0,64.0
16221,43.0,60,60,6.0,64.0
16222,43.0,60,60,6.0,64.0
16223,43.0,60,60,6.0,64.0
16224,43.0,60,60,6.0,64.0
16225,43.0,60,60,6.0,64.0
16226,43.0,60,60,6.0,64.0
16227,43.0,60,60,6.0,64.0
16228,43.0,60,60,6.0,64.0
16229,43.0,60,60,6.0,64.0
16230,43.0,60,60,6.0,64.0
16231,43.0,60,60,6.0,64.0
16232,43.0,60,60,6.0,64.0
16233,43.0,60,60,6.0,64.0
16234,43.0,60,60,6.0,64.0
16235,43.0,60,60,6.0,64.0
16236,43.0,60,60,6.0,64.0
16237,43.0,60,60,6.0,64.0
16238,43.0,60,60,6.0,64.0
16239,43.0,60,60,6.0,64.0
16240,43.0,60,60,6.0,64.0
16241,43.0,60,60,6.0,64.0
16242,43.0,60,60,6.0,64.0
16243,43.0,60,60,6.0,64.0
16244,43.0,60,60,6.0,64.0
16245,43.0,60,60,6.0,64.0
16246,43.0,60,60,6.0,64.0
16247,43.0,60,60,6.0,64.0
16248,43.0,60,60,6.0,64.0
16249,43.0,60,60,6.0,64.0
16250,43.0,60,60,6.0,64.0
16251,43.0,60,60,6.0,64.0
16252,43.0,60,60,6.0,64.0
16253,43.0,60,60,6.0,64.0
16254,43.0,60,60,6.0,64.0
16255,43.0,0,60,6.0,64.0
16256,43.0,60,60,6.0,64.0
16257,43.0,60,60,6.0,64.0
16258,43.0,60,60,6.0,64.0
16259,43.0,60,60,6.0,64.0
16260,43.0,60,60,6.0,64.0
16261,43.0,60,60,6.0,64.0
16262,43.0,60,60,6.0,64.0
16263,43.0,60,60,6.0,64.0
16264,43.0,60,60,6.0,64.0
16265,43.0,60,60,6.0,64.0
16266,43.0,60,60,6.0,64.0
16267,43.0,60,60,6.0,64.0
16268,43.0,60,60,6.0,64.0
16269,43.0,108,60,6.0,64.0
16270,43.0,1104,390,6.0,64.0
16271,45.0,0,3930,11.0,64.0
16272,57.0,0,3930,3.0,64.0
16273,84.0,0,3930,0.0,64.0
16274,78.0,0,3930,2.0,64.0
16275,72.0,0,3930,2.0,64.0
16276,57.0,0,3930,10.0,64.0
16277,74.0,0,3930,1.0,64.0
16278,48.0,48,60,6.0,64.0
16279,60.0,0,3930,4.0,64.0
16280,72.0,0,90,8.0,64.0
16281,62.0,12,90,8.0,64.0
16282,78.0,288,3930,8.0,64.0
16283,48.0,0,3930,4.0,64.0
16284,84.0,0,3930,1.0,64.0
16285,66.0,0,3930,10.0,64.0
16286,45.0,0,3930,3.0,64.0
16287,33.0,0,3930,12.0,64.0
16288,60.0,0,3930,5.0,64.0
16289,72.0,0,3930,5.0,64.0
16290,74.0,0,3930,7.0,64.0
16291,84.0,0,3930,7.0,64.0
16292,48.0,60,60,6.0,64.0
16293,48.0,60,60,6.0,64.0
16294,48.0,60,60,6.0,64.0
16295,48.0,60,60,6.0,64.0
16296,48.0,60,60,6.0,64.0
16297,48.0,60,60,6.0,64.0
16298,48.0,60,60,6.0,64.0
16299,48.0,60,60,6.0,64.0
16300,48.0,60,60,6.0,64.0
16301,48.0,60,60,6.0,64.0
16302,48.0,60,60,6.0,64.0
16303,48.0,60,60,6.0,64.0
16304,48.0,60,60,6.0,64.0
16305,48.0,60,60,6.0,64.0
16306,48.0,60,60,6.0,64.0
16307,48.0,60,60,6.0,64.0
16308,48.0,60,60,6.0,64.0
16309,48.0,60,60,6.0,64.0
16310,48.0,60,60,6.0,64.0
16311,48.0,60,60,6.0,64.0
16312,48.0,60,60,6.0,64.0
16313,48.0,60,60,6.0,64.0
16314,48.0,60,60,6.0,64.0
16315,48.0,60,60,6.0,64.0
16316,48.0,60,60,6.0,64.0
16317,48.0,60,60,6.0,64.0
16318,48.0,60,60,6.0,64.0
16319,48.0,60,60,6.0,64.0
16320,48.0,60,60,6.0,64.0
16321,48.0,60,60,6.0,64.0
16322,48.0,60,60,6.0,64.0
16323,48.0,60,60,6.0,64.0
16324,48.0,60,60,6.0,64.0
16325,48.0,60,60,6.0,64.0
16326,48.0,60,60,6.0,64.0
16327,48.0,60,60,6.0,64.0
16328,48.0,60,60,6.0,64.0
16329,48.0,60,60,6.0,64.0
16330,48.0,60,60,6.0,64.0
16331,48.0,60,60,6.0,64.0
16332,48.0,60,60,6.0,64.0
16333,48.0,60,60,6.0,64.0
16334,48.0,60,60,6.0,64.0
16335,48.0,60,60,6.0,64.0
16336,48.0,60,60,6.0,64.0
16337,48.0,60,60,6.0,64.0
16338,48.0,60,60,6.0,64.0
16339,48.0,60,60,6.0,64.0
16340,48.0,60,60,6.0,64.0
16341,48.0,60,60,6.0,64.0
16342,48.0,60,60,6.0,64.0
16343,48.0,60,60,6.0,64.0
16344,48.0,60,60,6.0,64.0
16345,48.0,60,60,6.0,64.0
16346,48.0,60,60,6.0,64.0
16347,48.0,60,60,6.0,64.0
16348,48.0,60,60,6.0,64.0
16349,48.0,60,60,6.0,64.0
16350,48.0,60,60,6.0,64.0
16351,48.0,60,60,6.0,64.0
16352,48.0,60,60,6.0,64.0
16353,48.0,60,60,6.0,64.0
16354,48.0,108,60,6.0,64.0
16355,48.0,1248,390,6.0,64.0
16356,77.0,0,180,7.0,64.0
16357,59.0,960,180,3.0,64.0
16358,47.0,0,180,3.0,64.0
16359,67.0,0,180,5.0,64.0
16360,86.0,0,180,0.0,64.0
16361,89.0,0,180,0.0,64.0
16362,62.0,0,180,4.0,64.0
16363,55.0,0,180,4.0,64.0
16364,35.0,0,180,12.0,64.0
16365,74.0,0,180,8.0,64.0
16366,47.0,0,180,11.0,64.0
16367,77.0,0,180,2.0,64.0
16368,62.0,0,180,8.0,64.0
16369,55.0,0,180,10.0,64.0
16370,43.0,0,180,6.0,64.0
16371,77.0,0,180,1.0,64.0
16372,74.0,0,180,5.0,64.0
16373,74.0,0,180,2.0,64.0
16374,86.0,0,180,1.0,64.0
16375,76.0,798,180,7.0,64.0
16376,76.0,0,180,5.0,64.0
16377,76.0,0,180,1.0,64.0
16378,48.0,0,180,6.0,64.0
16379,72.0,0,180,2.0,64.0
16380,76.0,0,180,2.0,64.0
16381,67.0,0,180,10.0,64.0
16382,84.0,0,180,1.0,64.0
16383,72.0,0,180,5.0,64.0
16384,48.0,0,180,3.0,64.0
16385,36.0,0,180,12.0,64.0
16386,88.0,0,180,0.0,64.0
16387,84.0,0,180,0.0,64.0
16388,64.0,0,180,4.0,64.0
16389,60.0,0,180,4.0,64.0
16390,48.0,0,180,11.0,64.0
16391,72.0,0,180,8.0,64.0
16392,64.0,0,180,8.0,64.0
16393,60.0,0,180,3.0,64.0
16394,31.0,0,1920,12.0,64.0
16395,74.0,0,180,5.0,64.0
16396,67.0,0,180,5.0,64.0
16397,65.0,0,30,10.0,64.0
16398,55.0,0,180,4.0,64.0
16399,43.0,36,1980,11.0,64.0
16400,86.0,0,180,0.0,64.0
16401,83.0,0,180,0.0,64.0
16402,62.0,0,180,4.0,64.0
16403,71.0,0,180,2.0,64.0
16404,55.0,0,180,3.0,64.0
16405,43.0,0,180,3.0,64.0
16406,74.0,0,30,7.0,64.0
16407,71.0,30,30,8.0,64.0
16408,43.0,0,180,6.0,64.0
16409,74.0,0,180,2.0,64.0
16410,74.0,0,180,1.0,64.0
16411,83.0,18,180,1.0,64.0
16412,76.0,30,30,7.0,64.0
16413,67.0,0,30,10.0,64.0
16414,72.0,0,30,8.0,64.0
16415,71.0,0,30,8.0,64.0
16416,65.0,30,30,10.0,64.0
16417,74.0,0,30,7.0,64.0
16418,72.0,30,30,8.0,64.0
16419,67.0,0,30,10.0,64.0
16420,76.0,0,30,7.0,64.0
16421,74.0,0,30,7.0,64.0
16422,71.0,30,30,8.0,64.0
16423,65.0,0,30,10.0,64.0
16424,67.0,12,30,10.0,64.0
16425,76.0,0,30,7.0,64.0
16426,72.0,0,30,8.0,64.0
16427,74.0,0,30,7.0,64.0
16428,71.0,30,30,8.0,64.0
16429,65.0,0,30,10.0,64.0
16430,67.0,30,30,10.0,64.0
16431,76.0,0,30,7.0,64.0
16432,72.0,0,30,8.0,64.0
16433,71.0,30,30,8.0,64.0
16434,65.0,0,30,10.0,64.0
16435,74.0,0,30,7.0,64.0
16436,76.0,30,30,7.0,64.0
16437,67.0,0,30,10.0,64.0
16438,72.0,0,30,8.0,64.0
16439,71.0,0,30,8.0,64.0
16440,65.0,0,30,10.0,64.0
16441,74.0,30,30,7.0,64.0
16442,72.0,0,30,8.0,64.0
16443,67.0,30,30,10.0,64.0
16444,76.0,0,30,7.0,64.0
16445,74.0,30,30,7.0,64.0
16446,71.0,0,30,8.0,64.0
16447,65.0,0,30,10.0,64.0
16448,76.0,30,30,7.0,64.0
16449,72.0,0,30,8.0,64.0
16450,67.0,0,30,10.0,64.0
16451,65.0,30,30,10.0,64.0
16452,74.0,0,30,7.0,64.0
16453,71.0,0,30,8.0,64.0
16454,76.0,0,30,7.0,64.0
16455,67.0,30,30,10.0,64.0
16456,72.0,0,30,8.0,64.0
16457,74.0,30,30,7.0,64.0
16458,65.0,0,30,10.0,64.0
16459,71.0,0,30,8.0,64.0
16460,72.0,0,30,8.0,64.0
16461,76.0,0,30,7.0,64.0
16462,67.0,30,30,10.0,64.0
16463,74.0,0,30,7.0,64.0
16464,71.0,30,30,8.0,64.0
16465,65.0,0,30,10.0,64.0
16466,72.0,0,30,8.0,64.0
16467,76.0,0,30,7.0,64.0
16468,67.0,30,30,10.0,64.0
16469,65.0,30,30,10.0,64.0
16470,74.0,0,30,7.0,64.0
16471,71.0,0,30,8.0,64.0
16472,76.0,0,30,7.0,64.0
16473,67.0,30,30,10.0,64.0
16474,72.0,0,30,8.0,64.0
16475,74.0,30,30,7.0,64.0
16476,71.0,0,30,8.0,64.0
16477,65.0,0,30,10.0,64.0
16478,67.0,0,30,10.0,64.0
16479,76.0,0,30,7.0,64.0
16480,72.0,30,30,8.0,64.0
16481,74.0,0,30,7.0,64.0
16482,71.0,0,30,8.0,64.0
16483,65.0,30,30,10.0,64.0
16484,67.0,0,30,10.0,64.0
16485,76.0,30,30,7.0,64.0
16486,72.0,0,30,8.0,64.0
16487,65.0,0,30,10.0,64.0
16488,74.0,0,30,7.0,64.0
16489,71.0,30,30,8.0,64.0
16490,76.0,0,30,7.0,64.0
16491,72.0,30,30,8.0,64.0
16492,67.0,0,30,10.0,64.0
16493,74.0,0,30,7.0,64.0
16494,71.0,0,30,8.0,64.0
16495,65.0,30,30,10.0,64.0
16496,76.0,0,30,7.0,64.0
16497,67.0,0,30,10.0,64.0
16498,72.0,30,30,8.0,64.0
16499,71.0,30,30,8.0,64.0
16500,74.0,0,30,7.0,64.0
16501,65.0,0,30,10.0,64.0
16502,76.0,0,30,7.0,64.0
16503,67.0,30,30,10.0,64.0
16504,72.0,0,30,8.0,64.0
16505,71.0,0,30,8.0,64.0
16506,65.0,0,30,10.0,64.0
16507,74.0,30,30,7.0,64.0
16508,72.0,30,30,8.0,64.0
16509,67.0,0,30,10.0,64.0
16510,76.0,0,30,7.0,64.0
16511,65.0,0,30,10.0,64.0
16512,71.0,0,30,8.0,64.0
16513,74.0,30,30,7.0,64.0
16514,72.0,0,30,8.0,64.0
16515,67.0,0,30,10.0,64.0
16516,76.0,30,30,7.0,64.0
16517,74.0,0,30,7.0,64.0
16518,71.0,30,30,8.0,64.0
16519,65.0,0,30,10.0,64.0
16520,76.0,30,30,7.0,64.0
16521,72.0,0,30,8.0,64.0
16522,67.0,0,30,10.0,64.0
16523,71.0,0,30,8.0,64.0
16524,65.0,0,30,10.0,64.0
16525,74.0,30,30,7.0,64.0
16526,76.0,0,30,7.0,64.0
16527,67.0,0,30,10.0,64.0
16528,72.0,30,30,8.0,64.0
16529,65.0,0,30,10.0,64.0
16530,74.0,30,30,7.0,64.0
16531,71.0,0,30,8.0,64.0
16532,72.0,30,30,8.0,64.0
16533,76.0,0,30,7.0,64.0
16534,67.0,0,30,10.0,64.0
16535,65.0,0,30,10.0,64.0
16536,74.0,30,30,7.0,64.0
16537,71.0,0,30,8.0,64.0
16538,67.0,30,30,10.0,64.0
16539,76.0,0,30,7.0,64.0
16540,72.0,0,30,8.0,64.0
16541,65.0,0,30,10.0,64.0
16542,74.0,0,30,7.0,64.0
16543,71.0,30,30,8.0,64.0
16544,72.0,30,30,8.0,64.0
16545,76.0,0,30,7.0,64.0
16546,67.0,0,30,10.0,64.0
16547,74.0,0,30,7.0,64.0
16548,71.0,0,30,8.0,64.0
16549,65.0,30,30,10.0,64.0
16550,72.0,0,30,8.0,64.0
16551,67.0,0,30,10.0,64.0
16552,76.0,30,30,7.0,64.0
16553,74.0,0,30,7.0,64.0
16554,71.0,30,30,8.0,64.0
16555,65.0,0,30,10.0,64.0
16556,76.0,30,30,7.0,64.0
16557,67.0,0,30,10.0,64.0
16558,72.0,0,30,8.0,64.0
16559,71.0,0,30,8.0,64.0
16560,74.0,0,30,7.0,64.0
16561,65.0,30,30,10.0,64.0
16562,76.0,0,30,7.0,64.0
16563,72.0,0,30,8.0,64.0
16564,67.0,30,30,10.0,64.0
16565,74.0,0,30,7.0,64.0
16566,65.0,0,30,10.0,64.0
16567,71.0,30,30,8.0,64.0
16568,76.0,30,30,7.0,64.0
16569,67.0,0,30,10.0,64.0
16570,72.0,0,30,8.0,64.0
16571,65.0,0,30,10.0,64.0
16572,71.0,0,30,8.0,64.0
16573,74.0,30,30,7.0,64.0
16574,67.0,30,30,10.0,64.0
16575,72.0,0,30,8.0,64.0
16576,76.0,0,30,7.0,64.0
16577,74.0,0,30,7.0,64.0
16578,65.0,0,30,10.0,64.0
16579,71.0,30,30,8.0,64.0
16580,67.0,0,30,10.0,64.0
16581,76.0,0,30,7.0,64.0
16582,72.0,30,30,8.0,64.0
16583,74.0,0,30,7.0,64.0
16584,65.0,0,30,10.0,64.0
16585,71.0,30,30,8.0,64.0
16586,67.0,30,30,10.0,64.0
16587,76.0,0,30,7.0,64.0
16588,72.0,0,30,8.0,64.0
16589,71.0,0,30,8.0,64.0
16590,65.0,0,30,10.0,64.0
16591,74.0,30,30,7.0,64.0
16592,67.0,0,30,10.0,64.0
16593,72.0,0,30,8.0,64.0
16594,76.0,30,30,7.0,64.0
16595,69.0,0,30,8.0,64.0
16596,64.0,0,30,10.0,64.0
16597,72.0,30,30,7.0,64.0
16598,71.0,0,30,8.0,64.0
16599,74.0,0,30,7.0,64.0
16600,65.0,60,30,10.0,64.0
16601,46.0,96,240,12.0,64.0
16602,72.0,72,390,7.0,64.0
16603,58.0,0,240,11.0,64.0
16604,64.0,0,240,8.0,64.0
16605,48.0,0,3450,4.0,64.0
16606,60.0,0,3450,4.0,64.0
16607,64.0,120,90,10.0,64.0
16608,60.0,24,90,10.0,64.0
16609,48.0,0,90,10.0,64.0
16610,48.0,0,90,10.0,64.0
16611,60.0,24,90,10.0,64.0
16612,45.0,24,120,12.0,64.0
16613,60.0,0,90,3.0,64.0
16614,57.0,0,120,11.0,64.0
16615,65.0,0,120,8.0,64.0
16616,48.0,24,90,10.0,64.0
16617,60.0,0,90,10.0,64.0
16618,58.0,96,120,11.0,64.0
16619,46.0,0,120,12.0,64.0
16620,67.0,0,120,8.0,64.0
16621,48.0,0,90,10.0,64.0
16622,69.0,0,90,8.0,64.0
16623,60.0,0,90,11.0,64.0
16624,48.0,120,90,12.0,64.0
16625,62.0,0,90,3.0,64.0
16626,60.0,0,90,10.0,64.0
16627,48.0,120,90,10.0,64.0
16628,60.0,0,90,10.0,64.0
16629,58.0,0,90,11.0,64.0
16630,67.0,0,90,8.0,64.0
16631,64.0,0,90,3.0,64.0
16632,46.0,0,90,12.0,64.0
16633,60.0,0,90,10.0,64.0
16634,48.0,120,90,10.0,64.0
16635,48.0,0,90,10.0,64.0
16636,60.0,120,90,10.0,64.0
16637,57.0,0,390,11.0,64.0
16638,45.0,72,390,12.0,64.0
16639,65.0,0,240,8.0,64.0
16640,65.0,0,90,3.0,64.0
16641,48.0,120,90,10.0,64.0
16642,60.0,0,90,10.0,64.0
16643,77.0,96,240,7.0,64.0
16644,48.0,24,90,10.0,64.0
16645,60.0,0,90,10.0,64.0
16646,60.0,0,90,10.0,64.0
16647,48.0,24,90,10.0,64.0
16648,67.0,0,120,8.0,64.0
16649,76.0,24,120,7.0,64.0
16650,81.0,0,90,1.0,64.0
16651,77.0,0,120,7.0,64.0
16652,48.0,0,90,10.0,64.0
16653,69.0,96,120,8.0,64.0
16654,60.0,24,90,10.0,64.0
16655,48.0,0,90,10.0,64.0
16656,79.0,0,90,7.0,64.0
16657,70.0,0,90,8.0,64.0
16658,79.0,0,90,1.0,64.0
16659,60.0,120,90,10.0,64.0
16660,60.0,120,90,10.0,64.0
16661,48.0,0,90,10.0,64.0
16662,48.0,0,90,10.0,64.0
16663,60.0,0,90,10.0,64.0
16664,77.0,0,90,1.0,64.0
16665,69.0,0,90,8.0,64.0
16666,77.0,120,90,7.0,64.0
16667,48.0,120,90,10.0,64.0
16668,60.0,0,90,10.0,64.0
16669,64.0,96,240,8.0,64.0
16670,48.0,0,90,10.0,64.0
16671,76.0,72,390,7.0,64.0
16672,60.0,0,90,10.0,64.0
16673,46.0,0,240,12.0,64.0
16674,76.0,120,90,1.0,64.0
16675,58.0,0,240,11.0,64.0
16676,48.0,0,90,10.0,64.0
16677,60.0,24,90,10.0,64.0
16678,60.0,0,90,10.0,64.0
16679,57.0,24,120,11.0,64.0
16680,48.0,0,90,10.0,64.0
16681,65.0,0,120,8.0,64.0
16682,45.0,0,120,12.0,64.0
16683,60.0,24,90,3.0,64.0
16684,48.0,24,90,10.0,64.0
16685,67.0,0,120,8.0,64.0
16686,46.0,96,120,12.0,64.0
16687,60.0,0,90,10.0,64.0
16688,58.0,0,120,11.0,64.0
16689,62.0,0,90,3.0,64.0
16690,48.0,0,90,10.0,64.0
16691,60.0,120,90,10.0,64.0
16692,60.0,0,90,11.0,64.0
16693,69.0,0,90,8.0,64.0
16694,48.0,0,90,12.0,64.0
16695,48.0,120,90,10.0,64.0
16696,60.0,0,90,10.0,64.0
16697,64.0,0,90,3.0,64.0
16698,60.0,0,90,10.0,64.0
16699,48.0,120,90,10.0,64.0
16700,58.0,0,90,11.0,64.0
16701,67.0,0,90,8.0,64.0
16702,46.0,0,90,12.0,64.0
16703,60.0,0,90,10.0,64.0
16704,48.0,120,90,10.0,64.0
16705,77.0,96,240,7.0,64.0
16706,65.0,0,90,3.0,64.0
16707,45.0,72,390,12.0,64.0
16708,48.0,120,90,10.0,64.0
16709,60.0,0,90,10.0,64.0
16710,65.0,0,240,8.0,64.0
16711,57.0,0,390,11.0,64.0
16712,48.0,24,90,10.0,64.0
16713,60.0,0,90,10.0,64.0
16714,48.0,0,90,10.0,64.0
16715,67.0,0,120,8.0,64.0
16716,60.0,24,90,10.0,64.0
16717,81.0,0,90,1.0,64.0
16718,76.0,24,120,7.0,64.0
16719,69.0,0,120,8.0,64.0
16720,60.0,24,90,10.0,64.0
16721,48.0,0,90,10.0,64.0
16722,77.0,96,120,7.0,64.0
16723,70.0,120,90,8.0,64.0
16724,60.0,0,90,10.0,64.0
16725,79.0,0,90,1.0,64.0
16726,48.0,0,90,10.0,64.0
16727,79.0,0,90,7.0,64.0
16728,60.0,0,90,10.0,64.0
16729,48.0,120,90,10.0,64.0
16730,69.0,0,90,8.0,64.0
16731,77.0,0,90,1.0,64.0
16732,77.0,0,90,7.0,64.0
16733,48.0,120,90,10.0,64.0
16734,60.0,0,90,10.0,64.0
16735,48.0,120,90,10.0,64.0
16736,60.0,0,90,10.0,64.0
16737,55.0,0,180,5.0,64.0
16738,43.0,0,180,12.0,64.0
16739,71.0,0,90,8.0,64.0
16740,74.0,0,90,1.0,64.0
16741,77.0,0,90,1.0,64.0
16742,77.0,96,240,7.0,64.0
16743,67.0,0,180,5.0,64.0
16744,55.0,0,90,4.0,64.0
16745,55.0,24,180,11.0,64.0
16746,62.0,0,90,4.0,64.0
16747,43.0,0,180,6.0,64.0
16748,62.0,96,90,10.0,64.0
16749,59.0,24,90,10.0,64.0
16750,62.0,0,90,8.0,64.0
16751,74.0,0,90,1.0,64.0
16752,62.0,0,90,8.0,64.0
16753,79.0,72,120,7.0,64.0
16754,55.0,0,90,4.0,64.0
16755,55.0,0,180,5.0,64.0
16756,59.0,0,90,10.0,64.0
16757,62.0,24,90,4.0,64.0
16758,67.0,0,180,5.0,64.0
16759,77.0,0,90,1.0,64.0
16760,43.0,24,180,6.0,64.0
16761,59.0,24,90,10.0,64.0
16762,62.0,0,90,8.0,64.0
16763,81.0,96,120,7.0,64.0
16764,74.0,96,90,1.0,64.0
16765,79.0,0,90,7.0,64.0
16766,62.0,0,90,8.0,64.0
16767,55.0,0,180,5.0,64.0
16768,67.0,24,180,5.0,64.0
16769,59.0,0,90,10.0,64.0
16770,62.0,0,90,4.0,64.0
16771,55.0,0,90,4.0,64.0
16772,43.0,0,180,6.0,64.0
16773,77.0,0,90,1.0,64.0
16774,62.0,120,90,8.0,64.0
16775,59.0,0,90,10.0,64.0
16776,77.0,120,90,7.0,64.0
16777,62.0,0,90,8.0,64.0
16778,59.0,0,90,10.0,64.0
16779,62.0,0,90,8.0,64.0
16780,59.0,120,90,10.0,64.0
16781,76.0,0,90,1.0,64.0
16782,72.0,96,90,1.0,64.0
16783,60.0,0,90,10.0,64.0
16784,36.0,0,180,12.0,64.0
16785,67.0,0,180,5.0,64.0
16786,55.0,0,180,5.0,64.0
16787,76.0,96,240,7.0,64.0
16788,64.0,0,90,4.0,64.0
16789,48.0,0,180,6.0,64.0
16790,48.0,24,180,11.0,64.0
16791,64.0,0,90,8.0,64.0
16792,60.0,0,90,4.0,64.0
16793,64.0,0,90,8.0,64.0
16794,60.0,24,90,10.0,64.0
16795,60.0,0,90,10.0,64.0
16796,77.0,72,120,7.0,64.0
16797,55.0,24,180,5.0,64.0
16798,48.0,0,180,6.0,64.0
16799,60.0,0,90,4.0,64.0
16800,64.0,24,90,4.0,64.0
16801,76.0,0,90,1.0,64.0
16802,64.0,0,90,8.0,64.0
16803,67.0,0,180,5.0,64.0
16804,72.0,0,90,1.0,64.0
16805,64.0,0,90,8.0,64.0
16806,79.0,96,120,7.0,64.0
16807,60.0,24,90,10.0,64.0
16808,60.0,0,90,10.0,64.0
16809,48.0,0,180,6.0,64.0
16810,64.0,96,90,8.0,64.0
16811,77.0,0,90,7.0,64.0
16812,67.0,24,180,5.0,64.0
16813,64.0,0,90,4.0,64.0
16814,60.0,0,90,4.0,64.0
16815,55.0,0,180,5.0,64.0
16816,76.0,0,90,1.0,64.0
16817,72.0,0,90,1.0,64.0
16818,64.0,120,90,8.0,64.0
16819,60.0,0,90,10.0,64.0
16820,76.0,120,90,7.0,64.0
16821,64.0,0,90,8.0,64.0
16822,60.0,0,90,10.0,64.0
16823,64.0,0,90,8.0,64.0
16824,60.0,120,90,10.0,64.0
16825,71.0,0,90,1.0,64.0
16826,74.0,0,90,1.0,64.0
16827,55.0,0,180,5.0,64.0
16828,67.0,24,180,5.0,64.0
16829,60.0,96,90,10.0,64.0
16830,31.0,0,180,12.0,64.0
16831,43.0,0,180,6.0,64.0
16832,74.0,96,240,7.0,64.0
16833,43.0,0,180,11.0,64.0
16834,55.0,0,90,4.0,64.0
16835,62.0,0,90,4.0,64.0
16836,62.0,0,90,8.0,64.0
16837,60.0,0,90,10.0,64.0
16838,62.0,24,90,8.0,64.0
16839,62.0,0,90,4.0,64.0
16840,55.0,24,180,5.0,64.0
16841,62.0,0,90,8.0,64.0
16842,76.0,72,120,7.0,64.0
16843,74.0,0,90,1.0,64.0
16844,71.0,0,90,1.0,64.0
16845,43.0,0,180,6.0,64.0
16846,67.0,0,180,5.0,64.0
16847,55.0,0,90,4.0,64.0
16848,60.0,24,90,10.0,64.0
16849,62.0,0,90,8.0,64.0
16850,60.0,24,90,10.0,64.0
16851,77.0,96,120,7.0,64.0
16852,67.0,0,180,5.0,64.0
16853,55.0,0,180,5.0,64.0
16854,59.0,0,90,10.0,64.0
16855,76.0,0,90,7.0,64.0
16856,62.0,96,90,8.0,64.0
16857,74.0,0,90,1.0,64.0
16858,62.0,0,90,4.0,64.0
16859,55.0,0,90,4.0,64.0
16860,43.0,24,180,6.0,64.0
16861,55.0,0,180,11.0,64.0
16862,43.0,0,180,12.0,64.0
16863,71.0,0,90,1.0,64.0
16864,59.0,0,90,10.0,64.0
16865,62.0,120,90,8.0,64.0
16866,59.0,0,90,10.0,64.0
16867,74.0,0,90,7.0,64.0
16868,62.0,120,90,8.0,64.0
16869,62.0,120,90,8.0,64.0
16870,59.0,0,90,10.0,64.0
16871,60.0,0,90,10.0,64.0
16872,72.0,24,4020,2.0,64.0
16873,60.0,0,4020,2.0,64.0
16874,48.0,0,90,10.0,64.0
16875,60.0,0,90,8.0,64.0
16876,48.0,0,4020,4.0,64.0
16877,60.0,0,4020,4.0,64.0
16878,58.0,0,1050,11.0,64.0
16879,48.0,0,90,6.0,64.0
16880,46.0,0,1050,12.0,64.0
16881,60.0,24,180,5.0,64.0
16882,72.0,96,90,7.0,64.0
16883,48.0,0,90,6.0,64.0
16884,60.0,0,90,10.0,64.0
16885,84.0,0,90,7.0,64.0
16886,48.0,120,90,10.0,64.0
16887,72.0,0,90,8.0,64.0
16888,72.0,0,90,8.0,64.0
16889,48.0,0,90,10.0,64.0
16890,60.0,0,90,10.0,64.0
16891,84.0,0,90,7.0,64.0
16892,48.0,120,90,6.0,64.0
16893,48.0,0,90,6.0,64.0
16894,84.0,0,90,7.0,64.0
16895,72.0,0,90,8.0,64.0
16896,48.0,0,90,10.0,64.0
16897,60.0,120,90,10.0,64.0
16898,48.0,120,90,10.0,64.0
16899,60.0,0,90,10.0,64.0
16900,48.0,0,90,6.0,64.0
16901,72.0,0,90,8.0,64.0
16902,84.0,0,90,7.0,64.0
16903,60.0,120,90,10.0,64.0
16904,72.0,0,90,8.0,64.0
16905,48.0,0,90,6.0,64.0
16906,48.0,0,90,10.0,64.0
16907,84.0,0,90,7.0,64.0
16908,60.0,0,90,10.0,64.0
16909,72.0,0,90,8.0,64.0
16910,48.0,0,90,10.0,64.0
16911,84.0,0,90,7.0,64.0
16912,48.0,120,90,6.0,64.0
16913,60.0,0,90,10.0,64.0
16914,48.0,0,90,10.0,64.0
16915,84.0,120,90,7.0,64.0
16916,72.0,0,90,8.0,64.0
16917,48.0,0,90,6.0,64.0
16918,48.0,0,90,10.0,64.0
16919,84.0,96,90,7.0,64.0
16920,82.0,96,240,1.0,64.0
16921,60.0,0,90,10.0,64.0
16922,72.0,0,90,8.0,64.0
16923,48.0,24,180,6.0,64.0
16924,72.0,24,90,8.0,64.0
16925,60.0,0,90,10.0,64.0
16926,48.0,0,90,10.0,64.0
16927,84.0,0,90,7.0,64.0
16928,48.0,24,180,6.0,64.0
16929,60.0,24,90,10.0,64.0
16930,84.0,0,90,7.0,64.0
16931,48.0,0,90,10.0,64.0
16932,48.0,0,90,11.0,64.0
16933,36.0,0,90,12.0,64.0
16934,81.0,72,120,1.0,64.0
16935,72.0,0,90,8.0,64.0
16936,72.0,24,90,8.0,64.0
16937,82.0,96,120,1.0,64.0
16938,84.0,0,90,7.0,64.0
16939,60.0,0,90,10.0,64.0
16940,48.0,0,90,10.0,64.0
16941,48.0,24,180,6.0,64.0
16942,48.0,0,90,10.0,64.0
16943,48.0,0,240,11.0,64.0
16944,36.0,96,240,12.0,64.0
16945,60.0,0,90,10.0,64.0
16946,84.0,0,90,7.0,64.0
16947,84.0,96,90,1.0,64.0
16948,72.0,0,90,8.0,64.0
16949,84.0,0,90,7.0,64.0
16950,72.0,24,90,8.0,64.0
16951,48.0,0,90,10.0,64.0
16952,60.0,0,90,10.0,64.0
16953,48.0,24,180,6.0,64.0
16954,38.0,72,120,12.0,64.0
16955,84.0,0,90,7.0,64.0
16956,48.0,0,90,10.0,64.0
16957,60.0,0,90,10.0,64.0
16958,72.0,24,90,8.0,64.0
16959,50.0,0,120,11.0,64.0
16960,82.0,0,90,1.0,64.0
16961,72.0,0,90,8.0,64.0
16962,84.0,0,90,7.0,64.0
16963,48.0,24,90,10.0,64.0
16964,52.0,96,120,11.0,64.0
16965,60.0,0,90,10.0,64.0
16966,40.0,0,120,12.0,64.0
16967,72.0,0,90,8.0,64.0
16968,84.0,0,90,0.0,64.0
16969,81.0,0,390,1.0,64.0
16970,48.0,0,90,10.0,64.0
16971,60.0,0,90,10.0,64.0
16972,84.0,120,90,7.0,64.0
16973,48.0,72,390,6.0,64.0
16974,41.0,0,480,12.0,64.0
16975,53.0,96,480,11.0,64.0
16976,65.0,96,240,3.0,64.0
16977,60.0,0,90,10.0,64.0
16978,72.0,0,90,8.0,64.0
16979,48.0,0,90,10.0,64.0
16980,84.0,24,90,7.0,64.0
16981,64.0,24,120,3.0,64.0
16982,84.0,0,90,7.0,64.0
16983,84.0,0,90,0.0,64.0
16984,48.0,0,90,10.0,64.0
16985,72.0,0,90,8.0,64.0
16986,60.0,24,90,10.0,64.0
16987,72.0,0,90,8.0,64.0
16988,48.0,0,90,10.0,64.0
16989,84.0,0,90,7.0,64.0
16990,60.0,24,90,10.0,64.0
16991,65.0,0,120,3.0,64.0
16992,84.0,0,90,7.0,64.0
16993,60.0,0,90,10.0,64.0
16994,72.0,0,90,8.0,64.0
16995,48.0,0,90,10.0,64.0
16996,67.0,120,90,3.0,64.0
16997,84.0,0,90,0.0,64.0
16998,48.0,0,90,10.0,64.0
16999,60.0,120,90,10.0,64.0
17000,72.0,0,90,8.0,64.0
17001,84.0,0,90,7.0,64.0
17002,84.0,120,90,7.0,64.0
17003,60.0,0,90,10.0,64.0
17004,48.0,0,90,10.0,64.0
17005,72.0,0,90,8.0,64.0
17006,65.0,0,90,3.0,64.0
17007,60.0,120,90,10.0,64.0
17008,48.0,0,90,10.0,64.0
17009,72.0,0,90,8.0,64.0
17010,84.0,0,90,7.0,64.0
17011,72.0,0,90,8.0,64.0
17012,60.0,0,90,10.0,64.0
17013,48.0,0,90,10.0,64.0
17014,82.0,96,240,1.0,64.0
17015,60.0,0,90,11.0,64.0
17016,48.0,120,90,12.0,64.0
17017,64.0,0,90,3.0,64.0
17018,84.0,0,90,7.0,64.0
17019,84.0,0,90,7.0,64.0
17020,48.0,24,90,10.0,64.0
17021,60.0,0,90,10.0,64.0
17022,72.0,0,90,8.0,64.0
17023,60.0,0,90,10.0,64.0
17024,48.0,0,90,10.0,64.0
17025,64.0,0,480,3.0,64.0
17026,36.0,0,90,12.0,64.0
17027,81.0,96,120,1.0,64.0
17028,72.0,0,90,8.0,64.0
17029,48.0,0,90,11.0,64.0
17030,84.0,24,90,7.0,64.0
17031,82.0,96,120,1.0,64.0
17032,48.0,0,90,10.0,64.0
17033,60.0,0,90,10.0,64.0
17034,84.0,24,90,7.0,64.0
17035,72.0,0,90,8.0,64.0
17036,36.0,0,240,12.0,64.0
17037,72.0,0,90,8.0,64.0
17038,84.0,0,90,1.0,64.0
17039,84.0,0,90,7.0,64.0
17040,48.0,96,240,11.0,64.0
17041,48.0,120,90,10.0,64.0
17042,60.0,0,90,10.0,64.0
17043,60.0,24,90,10.0,64.0
17044,48.0,0,90,10.0,64.0
17045,72.0,0,90,8.0,64.0
17046,84.0,0,90,7.0,64.0
17047,60.0,0,90,10.0,64.0
17048,65.0,0,120,3.0,64.0
17049,72.0,0,90,8.0,64.0
17050,84.0,0,90,7.0,64.0
17051,48.0,0,90,10.0,64.0
17052,50.0,96,120,11.0,64.0
17053,38.0,0,120,12.0,64.0
17054,82.0,24,90,1.0,64.0
17055,67.0,0,120,3.0,64.0
17056,72.0,0,90,8.0,64.0
17057,40.0,96,120,12.0,64.0
17058,52.0,0,120,11.0,64.0
17059,48.0,24,90,10.0,64.0
17060,60.0,0,90,10.0,64.0
17061,84.0,0,90,7.0,64.0
17062,81.0,0,90,1.0,64.0
17063,84.0,0,90,7.0,64.0
17064,84.0,0,90,0.0,64.0
17065,60.0,96,90,10.0,64.0
17066,53.0,0,480,11.0,64.0
17067,72.0,0,90,8.0,64.0
17068,48.0,0,90,10.0,64.0
17069,53.0,0,90,3.0,64.0
17070,41.0,96,480,12.0,64.0
17071,48.0,120,90,10.0,64.0
17072,60.0,0,90,10.0,64.0
17073,77.0,0,90,7.0,64.0
17074,77.0,0,90,7.0,64.0
17075,77.0,0,90,1.0,64.0
17076,60.0,0,90,10.0,64.0
17077,48.0,120,90,10.0,64.0
17078,65.0,0,90,3.0,64.0
17079,89.0,0,90,0.0,64.0
17080,48.0,0,90,10.0,64.0
17081,60.0,0,90,10.0,64.0
17082,77.0,24,90,7.0,64.0
17083,89.0,0,90,0.0,64.0
17084,77.0,0,90,1.0,64.0
17085,77.0,0,90,7.0,64.0
17086,65.0,0,90,3.0,64.0
17087,48.0,120,90,10.0,64.0
17088,60.0,0,90,10.0,64.0
17089,48.0,120,90,10.0,64.0
17090,60.0,0,90,10.0,64.0
17091,77.0,0,90,7.0,64.0
17092,60.0,0,90,10.0,64.0
17093,77.0,120,90,1.0,64.0
17094,48.0,0,90,10.0,64.0
17095,89.0,0,90,0.0,64.0
17096,77.0,0,90,7.0,64.0
17097,65.0,0,90,3.0,64.0
17098,60.0,0,90,10.0,64.0
17099,48.0,0,90,10.0,64.0
17100,77.0,120,90,7.0,64.0
17101,31.0,0,240,12.0,64.0
17102,74.0,0,90,8.0,64.0
17103,65.0,96,960,3.0,64.0
17104,62.0,0,960,3.0,64.0
17105,77.0,0,90,7.0,64.0
17106,43.0,96,240,11.0,64.0
17107,62.0,0,90,10.0,64.0
17108,77.0,0,1920,1.0,64.0
17109,74.0,0,1920,1.0,64.0
17110,65.0,120,90,10.0,64.0
17111,89.0,0,1920,0.0,64.0
17112,86.0,0,1920,0.0,64.0
17113,62.0,24,90,10.0,64.0
17114,77.0,0,90,7.0,64.0
17115,65.0,0,90,10.0,64.0
17116,74.0,0,90,8.0,64.0
17117,30.0,0,120,12.0,64.0
17118,77.0,24,90,7.0,64.0
17119,65.0,0,90,10.0,64.0
17120,74.0,0,90,8.0,64.0
17121,62.0,0,90,10.0,64.0
17122,42.0,96,120,11.0,64.0
17123,62.0,0,90,10.0,64.0
17124,65.0,24,90,10.0,64.0
17125,77.0,0,90,7.0,64.0
17126,43.0,96,120,11.0,64.0
17127,74.0,0,90,8.0,64.0
17128,31.0,0,120,12.0,64.0
17129,45.0,0,90,11.0,64.0
17130,74.0,0,90,8.0,64.0
17131,77.0,0,90,7.0,64.0
17132,33.0,120,90,12.0,64.0
17133,62.0,0,90,10.0,64.0
17134,65.0,0,90,10.0,64.0
17135,65.0,120,90,10.0,64.0
17136,77.0,0,90,7.0,64.0
17137,74.0,0,90,8.0,64.0
17138,62.0,0,90,10.0,64.0
17139,77.0,0,90,7.0,64.0
17140,74.0,0,90,8.0,64.0
17141,31.0,120,90,12.0,64.0
17142,43.0,0,90,11.0,64.0
17143,65.0,0,90,10.0,64.0
17144,62.0,0,90,10.0,64.0
17145,74.0,24,90,8.0,64.0
17146,65.0,0,90,10.0,64.0
17147,62.0,0,90,10.0,64.0
17148,77.0,0,90,7.0,64.0
17149,55.0,72,390,5.0,64.0
17150,67.0,0,390,5.0,64.0
17151,50.0,0,960,3.0,64.0
17152,53.0,96,960,3.0,64.0
17153,74.0,120,90,8.0,64.0
17154,77.0,0,90,7.0,64.0
17155,43.0,0,390,6.0,64.0
17156,55.0,0,570,11.0,64.0
17157,65.0,0,90,10.0,64.0
17158,43.0,0,570,12.0,64.0
17159,62.0,0,90,10.0,64.0
17160,74.0,0,90,8.0,64.0
17161,65.0,120,90,10.0,64.0
17162,62.0,0,90,10.0,64.0
17163,77.0,0,90,7.0,64.0
17164,77.0,48,90,7.0,64.0
17165,74.0,0,90,8.0,64.0
17166,62.0,0,90,10.0,64.0
17167,65.0,0,90,10.0,64.0
17168,62.0,120,90,10.0,64.0
17169,74.0,0,90,8.0,64.0
17170,65.0,0,90,10.0,64.0
17171,77.0,0,90,7.0,64.0
17172,74.0,0,90,8.0,64.0
17173,77.0,0,90,7.0,64.0
17174,62.0,120,90,10.0,64.0
17175,65.0,0,90,10.0,64.0
17176,77.0,0,90,7.0,64.0
17177,65.0,0,90,10.0,64.0
17178,62.0,0,90,10.0,64.0
17179,74.0,120,90,8.0,64.0
17180,74.0,0,90,8.0,64.0
17181,62.0,0,90,10.0,64.0
17182,77.0,120,90,7.0,64.0
17183,65.0,0,90,10.0,64.0
17184,65.0,24,90,10.0,64.0
17185,62.0,0,90,10.0,64.0
17186,74.0,0,90,8.0,64.0
17187,77.0,0,90,7.0,64.0
17188,44.0,0,240,11.0,64.0
17189,63.0,0,90,10.0,64.0
17190,60.0,0,90,10.0,64.0
17191,75.0,0,1920,1.0,64.0
17192,72.0,0,1920,1.0,64.0
17193,84.0,96,1920,0.0,64.0
17194,72.0,120,90,8.0,64.0
17195,32.0,96,240,12.0,64.0
17196,48.0,0,1920,3.0,64.0
17197,75.0,0,90,7.0,64.0
17198,63.0,0,90,10.0,64.0
17199,60.0,0,90,10.0,64.0
17200,75.0,0,90,7.0,64.0
17201,72.0,24,90,8.0,64.0
17202,43.0,0,120,11.0,64.0
17203,75.0,0,90,7.0,64.0
17204,63.0,0,90,10.0,64.0
17205,72.0,0,90,8.0,64.0
17206,31.0,96,120,12.0,64.0
17207,60.0,24,90,10.0,64.0
17208,63.0,0,90,10.0,64.0
17209,75.0,24,90,7.0,64.0
17210,44.0,96,120,11.0,64.0
17211,60.0,0,90,10.0,64.0
17212,72.0,0,90,8.0,64.0
17213,32.0,0,120,12.0,64.0
17214,75.0,0,90,7.0,64.0
17215,34.0,0,90,12.0,64.0
17216,63.0,120,90,10.0,64.0
17217,60.0,0,90,10.0,64.0
17218,72.0,0,90,8.0,64.0
17219,46.0,0,90,11.0,64.0
17220,72.0,120,90,8.0,64.0
17221,75.0,0,90,7.0,64.0
17222,63.0,0,90,10.0,64.0
17223,60.0,0,90,10.0,64.0
17224,75.0,0,90,7.0,64.0
17225,44.0,0,90,11.0,64.0
17226,60.0,0,90,10.0,64.0
17227,63.0,120,90,10.0,64.0
17228,72.0,0,90,8.0,64.0
17229,32.0,0,90,12.0,64.0
17230,60.0,0,90,10.0,64.0
17231,75.0,0,90,7.0,64.0
17232,63.0,0,90,10.0,64.0
17233,72.0,120,90,8.0,64.0
17234,75.0,120,90,7.0,64.0
17235,72.0,0,90,8.0,64.0
17236,60.0,0,90,10.0,64.0
17237,48.0,0,390,6.0,64.0
17238,44.0,0,570,12.0,64.0
17239,60.0,72,390,5.0,64.0
17240,63.0,0,90,10.0,64.0
17241,56.0,0,570,11.0,64.0
17242,63.0,120,90,10.0,64.0
17243,60.0,0,90,10.0,64.0
17244,72.0,0,90,8.0,64.0
17245,75.0,0,90,7.0,64.0
17246,72.0,0,90,8.0,64.0
17247,75.0,0,90,7.0,64.0
17248,60.0,0,90,10.0,64.0
17249,63.0,48,90,10.0,64.0
17250,63.0,0,90,10.0,64.0
17251,75.0,0,90,7.0,64.0
17252,60.0,120,90,10.0,64.0
17253,72.0,0,90,8.0,64.0
17254,75.0,0,90,7.0,64.0
17255,72.0,0,90,8.0,64.0
17256,63.0,120,90,10.0,64.0
17257,60.0,0,90,10.0,64.0
17258,60.0,0,90,10.0,64.0
17259,63.0,120,90,10.0,64.0
17260,72.0,0,90,8.0,64.0
17261,75.0,0,90,7.0,64.0
17262,75.0,0,90,7.0,64.0
17263,60.0,120,90,10.0,64.0
17264,72.0,0,90,8.0,64.0
17265,63.0,0,90,10.0,64.0
17266,75.0,0,90,7.0,64.0
17267,60.0,0,90,10.0,64.0
17268,63.0,0,90,10.0,64.0
17269,72.0,24,90,8.0,64.0
17270,54.0,0,1920,3.0,64.0
17271,51.0,0,15,3.0,64.0
17272,32.0,0,240,12.0,64.0
17273,75.0,120,90,8.0,64.0
17274,66.0,0,90,10.0,64.0
17275,63.0,0,90,10.0,64.0
17276,78.0,0,90,7.0,64.0
17277,90.0,0,1920,0.0,64.0
17278,87.0,0,15,0.0,64.0
17279,78.0,96,1920,1.0,64.0
17280,75.0,0,1920,1.0,64.0
17281,44.0,96,240,11.0,64.0
17282,75.0,0,90,8.0,64.0
17283,78.0,0,90,7.0,64.0
17284,63.0,24,90,10.0,64.0
17285,66.0,0,90,10.0,64.0
17286,31.0,96,120,12.0,64.0
17287,75.0,0,90,8.0,64.0
17288,66.0,0,90,10.0,64.0
17289,63.0,24,90,10.0,64.0
17290,78.0,0,90,7.0,64.0
17291,43.0,0,120,11.0,64.0
17292,75.0,0,90,8.0,64.0
17293,32.0,0,120,12.0,64.0
17294,78.0,0,90,7.0,64.0
17295,44.0,96,120,11.0,64.0
17296,63.0,0,90,10.0,64.0
17297,66.0,24,90,10.0,64.0
17298,78.0,0,90,7.0,64.0
17299,34.0,0,90,12.0,64.0
17300,63.0,0,90,10.0,64.0
17301,66.0,120,90,10.0,64.0
17302,75.0,0,90,8.0,64.0
17303,46.0,0,90,11.0,64.0
17304,63.0,0,90,10.0,64.0
17305,66.0,0,90,10.0,64.0
17306,75.0,120,90,8.0,64.0
17307,78.0,0,90,7.0,64.0
17308,63.0,0,90,10.0,64.0
17309,44.0,120,90,11.0,64.0
17310,75.0,0,90,8.0,64.0
17311,66.0,0,90,10.0,64.0
17312,78.0,0,90,7.0,64.0
17313,32.0,0,90,12.0,64.0
17314,75.0,120,90,8.0,64.0
17315,78.0,0,90,7.0,64.0
17316,63.0,0,90,10.0,64.0
17317,66.0,0,90,10.0,64.0
17318,44.0,0,570,12.0,64.0
17319,75.0,0,90,8.0,64.0
17320,56.0,0,570,11.0,64.0
17321,48.0,72,390,6.0,64.0
17322,60.0,0,390,5.0,64.0
17323,63.0,0,90,10.0,64.0
17324,66.0,0,90,10.0,64.0
17325,78.0,120,90,7.0,64.0
17326,66.0,0,90,10.0,64.0
17327,63.0,0,90,10.0,64.0
17328,78.0,120,90,7.0,64.0
17329,75.0,0,90,8.0,64.0
17330,78.0,0,90,7.0,64.0
17331,75.0,0,90,8.0,64.0
17332,66.0,48,90,10.0,64.0
17333,63.0,0,90,10.0,64.0
17334,78.0,0,90,7.0,64.0
17335,75.0,0,90,8.0,64.0
17336,63.0,0,90,10.0,64.0
17337,66.0,120,90,10.0,64.0
17338,75.0,0,90,8.0,64.0
17339,66.0,0,90,10.0,64.0
17340,63.0,0,90,10.0,64.0
17341,78.0,120,90,7.0,64.0
17342,78.0,120,90,7.0,64.0
17343,63.0,0,90,10.0,64.0
17344,66.0,0,90,10.0,64.0
17345,75.0,0,90,8.0,64.0
17346,78.0,120,90,7.0,64.0
17347,63.0,0,90,10.0,64.0
17348,66.0,0,90,10.0,64.0
17349,75.0,0,90,8.0,64.0
17350,66.0,0,90,10.0,64.0
17351,78.0,24,90,7.0,64.0
17352,75.0,0,90,8.0,64.0
17353,63.0,0,90,10.0,64.0
17354,77.0,0,90,7.0,64.0
17355,61.0,0,90,10.0,64.0
17356,32.0,0,240,12.0,64.0
17357,65.0,0,90,10.0,64.0
17358,85.0,0,1920,0.0,64.0
17359,53.0,0,1920,3.0,64.0
17360,49.0,96,1920,3.0,64.0
17361,89.0,0,1920,0.0,64.0
17362,77.0,0,1920,1.0,64.0
17363,73.0,0,1920,1.0,64.0
17364,73.0,120,90,8.0,64.0
17365,44.0,96,240,11.0,64.0
17366,73.0,0,90,8.0,64.0
17367,77.0,24,90,7.0,64.0
17368,65.0,0,90,10.0,64.0
17369,61.0,0,90,10.0,64.0
17370,31.0,0,120,12.0,64.0
17371,77.0,0,90,7.0,64.0
17372,43.0,96,120,11.0,64.0
17373,61.0,0,90,10.0,64.0
17374,73.0,24,90,8.0,64.0
17375,65.0,0,90,10.0,64.0
17376,44.0,96,120,11.0,64.0
17377,65.0,0,90,10.0,64.0
17378,61.0,0,90,10.0,64.0
17379,32.0,0,120,12.0,64.0
17380,73.0,0,90,8.0,64.0
17381,77.0,24,90,7.0,64.0
17382,77.0,0,90,7.0,64.0
17383,73.0,0,90,8.0,64.0
17384,65.0,0,90,10.0,64.0
17385,61.0,0,90,10.0,64.0
17386,46.0,0,90,11.0,64.0
17387,34.0,120,90,12.0,64.0
17388,65.0,0,90,10.0,64.0
17389,61.0,0,90,10.0,64.0
17390,77.0,0,90,7.0,64.0
17391,73.0,120,90,8.0,64.0
17392,73.0,0,90,8.0,64.0
17393,65.0,0,90,10.0,64.0
17394,32.0,0,90,12.0,64.0
17395,44.0,0,90,11.0,64.0
17396,61.0,0,90,10.0,64.0
17397,77.0,120,90,7.0,64.0
17398,61.0,0,90,10.0,64.0
17399,65.0,0,90,10.0,64.0
17400,73.0,120,90,8.0,64.0
17401,77.0,0,90,7.0,64.0
17402,73.0,0,90,8.0,64.0
17403,65.0,0,90,10.0,64.0
17404,56.0,120,570,11.0,64.0
17405,77.0,120,90,7.0,64.0
17406,61.0,0,90,10.0,64.0
17407,44.0,0,570,12.0,64.0
17408,73.0,0,90,8.0,64.0
17409,61.0,0,90,10.0,64.0
17410,65.0,0,90,10.0,64.0
17411,77.0,120,90,7.0,64.0
17412,61.0,120,90,10.0,64.0
17413,65.0,0,90,10.0,64.0
17414,73.0,0,90,8.0,64.0
17415,77.0,0,90,7.0,64.0
17416,61.0,0,90,10.0,64.0
17417,65.0,120,90,10.0,64.0
17418,77.0,0,90,7.0,64.0
17419,73.0,0,90,8.0,64.0
17420,77.0,0,90,7.0,64.0
17421,73.0,0,90,8.0,64.0
17422,65.0,0,90,10.0,64.0
17423,61.0,0,90,10.0,64.0
17424,73.0,0,90,8.0,64.0
17425,77.0,0,90,7.0,64.0
17426,65.0,120,90,10.0,64.0
17427,61.0,0,90,10.0,64.0
17428,77.0,120,90,7.0,64.0
17429,65.0,0,90,10.0,64.0
17430,61.0,0,90,10.0,64.0
17431,73.0,0,90,8.0,64.0
17432,61.0,0,90,10.0,64.0
17433,65.0,0,90,10.0,64.0
17434,73.0,24,90,8.0,64.0
17435,77.0,0,90,7.0,64.0
17436,32.0,96,240,12.0,64.0
17437,56.0,0,90,10.0,64.0
17438,53.0,0,90,10.0,64.0
17439,77.0,0,1920,0.0,64.0
17440,56.0,96,1920,3.0,64.0
17441,53.0,0,1920,3.0,64.0
17442,80.0,0,1920,0.0,64.0
17443,80.0,0,90,7.0,64.0
17444,44.0,0,240,11.0,64.0
17445,77.0,120,90,8.0,64.0
17446,77.0,0,90,8.0,64.0
17447,53.0,0,90,10.0,64.0
17448,56.0,0,90,10.0,64.0
17449,80.0,24,90,7.0,64.0
17450,31.0,96,120,12.0,64.0
17451,43.0,0,120,11.0,64.0
17452,53.0,0,90,10.0,64.0
17453,77.0,24,90,8.0,64.0
17454,56.0,0,90,10.0,64.0
17455,80.0,0,90,7.0,64.0
17456,77.0,0,90,8.0,64.0
17457,56.0,24,90,10.0,64.0
17458,53.0,0,90,10.0,64.0
17459,32.0,0,120,12.0,64.0
17460,44.0,96,120,11.0,64.0
17461,80.0,0,90,7.0,64.0
17462,34.0,120,90,12.0,64.0
17463,80.0,0,90,7.0,64.0
17464,56.0,0,90,10.0,64.0
17465,53.0,0,90,10.0,64.0
17466,77.0,0,90,8.0,64.0
17467,46.0,0,90,11.0,64.0
17468,56.0,0,90,10.0,64.0
17469,77.0,0,90,8.0,64.0
17470,80.0,0,90,7.0,64.0
17471,53.0,120,90,10.0,64.0
17472,44.0,0,90,11.0,64.0
17473,77.0,0,90,8.0,64.0
17474,53.0,0,90,10.0,64.0
17475,32.0,0,90,12.0,64.0
17476,56.0,0,90,10.0,64.0
17477,80.0,120,90,7.0,64.0
17478,53.0,0,90,10.0,64.0
17479,56.0,120,90,10.0,64.0
17480,80.0,0,90,7.0,64.0
17481,77.0,0,90,8.0,64.0
17482,44.0,0,570,12.0,64.0
17483,56.0,0,570,11.0,64.0
17484,56.0,0,90,10.0,64.0
17485,53.0,120,90,10.0,64.0
17486,80.0,0,90,7.0,64.0
17487,77.0,0,90,8.0,64.0
17488,80.0,0,90,7.0,64.0
17489,53.0,0,90,10.0,64.0
17490,56.0,0,90,10.0,64.0
17491,77.0,120,90,8.0,64.0
17492,56.0,0,90,10.0,64.0
17493,53.0,0,90,10.0,64.0
17494,80.0,0,90,7.0,64.0
17495,77.0,120,90,8.0,64.0
17496,53.0,0,90,10.0,64.0
17497,56.0,0,90,10.0,64.0
17498,80.0,120,90,7.0,64.0
17499,77.0,0,90,8.0,64.0
17500,56.0,0,90,10.0,64.0
17501,77.0,120,90,8.0,64.0
17502,53.0,0,90,10.0,64.0
17503,80.0,0,90,7.0,64.0
17504,80.0,0,90,7.0,64.0
17505,56.0,0,90,10.0,64.0
17506,53.0,0,90,10.0,64.0
17507,77.0,120,90,8.0,64.0
17508,77.0,0,90,8.0,64.0
17509,53.0,0,90,10.0,64.0
17510,56.0,0,90,10.0,64.0
17511,80.0,120,90,7.0,64.0
17512,77.0,0,90,8.0,64.0
17513,53.0,0,90,10.0,64.0
17514,56.0,24,90,10.0,64.0
17515,80.0,0,90,7.0,64.0
17516,78.0,120,90,7.0,64.0
17517,32.0,0,240,12.0,64.0
17518,75.0,0,90,8.0,64.0
17519,54.0,0,1920,3.0,64.0
17520,75.0,96,1920,0.0,64.0
17521,51.0,0,1920,3.0,64.0
17522,44.0,96,240,11.0,64.0
17523,54.0,0,90,10.0,64.0
17524,51.0,0,90,10.0,64.0
17525,78.0,0,90,7.0,64.0
17526,51.0,0,90,10.0,64.0
17527,75.0,0,90,8.0,64.0
17528,54.0,24,90,10.0,64.0
17529,54.0,0,90,10.0,64.0
17530,43.0,0,120,11.0,64.0
17531,51.0,0,90,10.0,64.0
17532,75.0,0,90,8.0,64.0
17533,31.0,96,120,12.0,64.0
17534,78.0,24,90,7.0,64.0
17535,78.0,0,90,7.0,64.0
17536,44.0,0,120,11.0,64.0
17537,51.0,0,90,10.0,64.0
17538,54.0,0,90,10.0,64.0
17539,75.0,24,90,8.0,64.0
17540,32.0,96,120,12.0,64.0
17541,54.0,0,90,10.0,64.0
17542,75.0,0,90,8.0,64.0
17543,78.0,120,90,7.0,64.0
17544,51.0,0,90,10.0,64.0
17545,34.0,0,90,12.0,64.0
17546,46.0,0,90,11.0,64.0
17547,54.0,0,90,10.0,64.0
17548,78.0,0,90,7.0,64.0
17549,51.0,0,90,10.0,64.0
17550,75.0,120,90,8.0,64.0
17551,51.0,0,90,10.0,64.0
17552,44.0,0,90,11.0,64.0
17553,78.0,0,90,7.0,64.0
17554,75.0,0,90,8.0,64.0
17555,32.0,0,90,12.0,64.0
17556,54.0,120,90,10.0,64.0
17557,51.0,0,90,10.0,64.0
17558,54.0,120,90,10.0,64.0
17559,78.0,0,90,7.0,64.0
17560,75.0,0,90,8.0,64.0
17561,56.0,0,570,11.0,64.0
17562,75.0,0,90,8.0,64.0
17563,54.0,120,90,10.0,64.0
17564,51.0,0,90,10.0,64.0
17565,78.0,0,90,7.0,64.0
17566,44.0,120,570,12.0,64.0
17567,78.0,0,90,7.0,64.0
17568,75.0,0,90,8.0,64.0
17569,54.0,0,90,10.0,64.0
17570,51.0,120,90,10.0,64.0
17571,51.0,0,90,10.0,64.0
17572,54.0,120,90,10.0,64.0
17573,75.0,0,90,8.0,64.0
17574,78.0,0,90,7.0,64.0
17575,54.0,0,90,10.0,64.0
17576,78.0,120,90,7.0,64.0
17577,75.0,0,90,8.0,64.0
17578,51.0,0,90,10.0,64.0
17579,75.0,0,90,8.0,64.0
17580,78.0,0,90,7.0,64.0
17581,51.0,0,90,10.0,64.0
17582,54.0,0,90,10.0,64.0
17583,78.0,0,90,7.0,64.0
17584,75.0,120,90,8.0,64.0
17585,54.0,0,90,10.0,64.0
17586,51.0,0,90,10.0,64.0
17587,75.0,120,90,8.0,64.0
17588,78.0,0,90,7.0,64.0
17589,54.0,0,90,10.0,64.0
17590,51.0,0,90,10.0,64.0
17591,51.0,0,90,10.0,64.0
17592,54.0,0,90,10.0,64.0
17593,78.0,0,90,7.0,64.0
17594,75.0,24,90,8.0,64.0
17595,44.0,0,240,11.0,64.0
17596,58.0,0,1920,3.0,64.0
17597,78.0,0,15,0.0,64.0
17598,82.0,0,1920,0.0,64.0
17599,78.0,120,90,8.0,64.0
17600,54.0,0,1920,3.0,64.0
17601,32.0,96,240,12.0,64.0
17602,82.0,0,90,7.0,64.0
17603,58.0,0,90,10.0,64.0
17604,54.0,0,90,10.0,64.0
17605,58.0,0,90,10.0,64.0
17606,54.0,24,90,10.0,64.0
17607,82.0,0,90,7.0,64.0
17608,78.0,0,90,8.0,64.0
17609,31.0,96,120,12.0,64.0
17610,58.0,0,90,10.0,64.0
17611,43.0,0,120,11.0,64.0
17612,78.0,24,90,8.0,64.0
17613,82.0,0,90,7.0,64.0
17614,54.0,0,90,10.0,64.0
17615,54.0,0,90,10.0,64.0
17616,44.0,96,120,11.0,64.0
17617,78.0,0,90,8.0,64.0
17618,58.0,24,90,10.0,64.0
17619,32.0,0,120,12.0,64.0
17620,82.0,0,90,7.0,64.0
17621,34.0,120,90,12.0,64.0
17622,82.0,0,90,7.0,64.0
17623,78.0,0,90,8.0,64.0
17624,54.0,0,90,10.0,64.0
17625,46.0,0,90,11.0,64.0
17626,58.0,0,90,10.0,64.0
17627,54.0,0,90,10.0,64.0
17628,78.0,0,90,8.0,64.0
17629,82.0,0,90,7.0,64.0
17630,58.0,120,90,10.0,64.0
17631,82.0,0,90,7.0,64.0
17632,54.0,0,90,10.0,64.0
17633,58.0,0,90,10.0,64.0
17634,32.0,0,90,12.0,64.0
17635,78.0,120,90,8.0,64.0
17636,44.0,0,90,11.0,64.0
17637,82.0,0,90,7.0,64.0
17638,54.0,0,90,10.0,64.0
17639,58.0,0,90,10.0,64.0
17640,78.0,120,90,8.0,64.0
17641,56.0,0,570,11.0,64.0
17642,44.0,0,570,12.0,64.0
17643,58.0,0,90,10.0,64.0
17644,82.0,0,90,7.0,64.0
17645,54.0,0,90,10.0,64.0
17646,78.0,120,90,8.0,64.0
17647,58.0,0,90,10.0,64.0
17648,78.0,0,90,8.0,64.0
17649,82.0,120,90,7.0,64.0
17650,54.0,0,90,10.0,64.0
17651,82.0,0,90,7.0,64.0
17652,78.0,0,90,8.0,64.0
17653,58.0,120,90,10.0,64.0
17654,54.0,0,90,10.0,64.0
17655,78.0,0,90,8.0,64.0
17656,54.0,0,90,10.0,64.0
17657,58.0,0,90,10.0,64.0
17658,82.0,120,90,7.0,64.0
17659,54.0,0,90,10.0,64.0
17660,58.0,0,90,10.0,64.0
17661,78.0,0,90,8.0,64.0
17662,82.0,120,90,7.0,64.0
17663,54.0,0,90,10.0,64.0
17664,58.0,0,90,10.0,64.0
17665,78.0,120,90,8.0,64.0
17666,82.0,0,90,7.0,64.0
17667,54.0,0,90,10.0,64.0
17668,58.0,0,90,10.0,64.0
17669,82.0,120,90,7.0,64.0
17670,78.0,0,90,8.0,64.0
17671,54.0,0,90,10.0,64.0
17672,82.0,0,90,7.0,64.0
17673,78.0,0,90,8.0,64.0
17674,58.0,24,90,10.0,64.0
17675,56.0,0,90,10.0,64.0
17676,53.0,0,90,10.0,64.0
17677,80.0,0,960,0.0,64.0
17678,44.0,96,240,11.0,64.0
17679,80.0,120,90,7.0,64.0
17680,77.0,0,960,0.0,64.0
17681,32.0,0,240,12.0,64.0
17682,56.0,0,960,3.0,64.0
17683,77.0,0,90,8.0,64.0
17684,53.0,0,90,10.0,64.0
17685,80.0,24,90,7.0,64.0
17686,77.0,0,90,8.0,64.0
17687,56.0,0,90,10.0,64.0
17688,31.0,0,120,12.0,64.0
17689,80.0,0,90,7.0,64.0
17690,77.0,24,90,8.0,64.0
17691,56.0,0,90,10.0,64.0
17692,53.0,0,90,10.0,64.0
17693,43.0,96,120,11.0,64.0
17694,56.0,0,90,10.0,64.0
17695,32.0,0,120,12.0,64.0
17696,80.0,24,90,7.0,64.0
17697,44.0,96,120,11.0,64.0
17698,77.0,0,90,8.0,64.0
17699,53.0,0,90,10.0,64.0
17700,46.0,0,90,11.0,64.0
17701,56.0,120,90,10.0,64.0
17702,53.0,0,90,10.0,64.0
17703,77.0,0,90,8.0,64.0
17704,34.0,0,90,12.0,64.0
17705,80.0,0,90,7.0,64.0
17706,80.0,0,90,7.0,64.0
17707,56.0,0,90,10.0,64.0
17708,77.0,0,90,8.0,64.0
17709,53.0,120,90,10.0,64.0
17710,77.0,0,90,8.0,64.0
17711,44.0,0,90,11.0,64.0
17712,56.0,0,90,10.0,64.0
17713,80.0,0,90,7.0,64.0
17714,53.0,120,90,10.0,64.0
17715,32.0,0,90,12.0,64.0
17716,77.0,0,90,8.0,64.0
17717,53.0,0,90,10.0,64.0
17718,56.0,0,90,10.0,64.0
17719,80.0,24,90,7.0,64.0
17720,49.0,0,90,10.0,64.0
17721,85.0,0,1920,0.0,64.0
17722,53.0,0,90,10.0,64.0
17723,49.0,96,1920,3.0,64.0
17724,44.0,0,570,12.0,64.0
17725,77.0,0,90,7.0,64.0
17726,73.0,120,90,8.0,64.0
17727,53.0,96,15,3.0,64.0
17728,56.0,0,570,11.0,64.0
17729,49.0,0,90,10.0,64.0
17730,53.0,0,90,10.0,64.0
17731,73.0,120,90,8.0,64.0
17732,77.0,0,90,7.0,64.0
17733,49.0,0,90,10.0,64.0
17734,77.0,0,90,7.0,64.0
17735,53.0,0,90,10.0,64.0
17736,73.0,120,90,8.0,64.0
17737,53.0,0,90,10.0,64.0
17738,49.0,0,90,10.0,64.0
17739,77.0,0,90,7.0,64.0
17740,73.0,120,90,8.0,64.0
17741,49.0,0,90,10.0,64.0
17742,73.0,0,90,8.0,64.0
17743,77.0,0,90,7.0,64.0
17744,53.0,120,90,10.0,64.0
17745,49.0,0,90,10.0,64.0
17746,73.0,0,90,8.0,64.0
17747,77.0,120,90,7.0,64.0
17748,53.0,0,90,10.0,64.0
17749,77.0,120,90,7.0,64.0
17750,73.0,0,90,8.0,64.0
17751,49.0,0,90,10.0,64.0
17752,53.0,0,90,10.0,64.0
17753,73.0,0,90,8.0,64.0
17754,49.0,120,90,10.0,64.0
17755,53.0,0,90,10.0,64.0
17756,77.0,0,90,7.0,64.0
17757,77.0,0,90,7.0,64.0
17758,53.0,0,90,10.0,64.0
17759,73.0,0,960,1.0,64.0
17760,49.0,0,90,10.0,64.0
17761,44.0,96,1920,11.0,64.0
17762,32.0,0,1920,12.0,64.0
17763,73.0,120,90,8.0,64.0
17764,73.0,0,90,8.0,64.0
17765,77.0,120,90,7.0,64.0
17766,53.0,0,90,10.0,64.0
17767,49.0,0,90,10.0,64.0
17768,73.0,120,90,8.0,64.0
17769,49.0,0,90,10.0,64.0
17770,53.0,0,90,10.0,64.0
17771,77.0,0,90,7.0,64.0
17772,49.0,0,90,10.0,64.0
17773,53.0,0,90,10.0,64.0
17774,77.0,0,90,7.0,64.0
17775,73.0,120,90,8.0,64.0
17776,49.0,120,90,10.0,64.0
17777,53.0,0,90,10.0,64.0
17778,73.0,0,90,8.0,64.0
17779,77.0,0,90,7.0,64.0
17780,77.0,0,90,7.0,64.0
17781,49.0,0,90,10.0,64.0
17782,53.0,120,90,10.0,64.0
17783,73.0,0,90,8.0,64.0
17784,77.0,0,90,7.0,64.0
17785,73.0,0,90,8.0,64.0
17786,53.0,120,90,10.0,64.0
17787,49.0,0,90,10.0,64.0
17788,49.0,0,90,10.0,64.0
17789,53.0,24,90,10.0,64.0
17790,77.0,0,90,7.0,64.0
17791,73.0,0,90,8.0,64.0
17792,62.0,0,1920,2.0,64.0
17793,77.0,0,90,7.0,64.0
17794,50.0,0,90,10.0,64.0
17795,53.0,120,90,10.0,64.0
17796,74.0,0,90,8.0,64.0
17797,50.0,0,90,10.0,64.0
17798,53.0,120,90,10.0,64.0
17799,74.0,0,90,8.0,64.0
17800,77.0,0,90,7.0,64.0
17801,77.0,0,90,7.0,64.0
17802,74.0,0,90,8.0,64.0
17803,53.0,120,90,10.0,64.0
17804,50.0,0,90,10.0,64.0
17805,77.0,0,90,7.0,64.0
17806,74.0,0,90,8.0,64.0
17807,50.0,120,90,10.0,64.0
17808,53.0,0,90,10.0,64.0
17809,74.0,120,90,8.0,64.0
17810,77.0,0,90,7.0,64.0
17811,53.0,0,90,10.0,64.0
17812,50.0,0,90,10.0,64.0
17813,77.0,0,90,7.0,64.0
17814,74.0,0,90,8.0,64.0
17815,50.0,120,90,10.0,64.0
17816,53.0,0,90,10.0,64.0
17817,53.0,0,90,10.0,64.0
17818,77.0,0,90,7.0,64.0
17819,50.0,120,90,10.0,64.0
17820,74.0,0,90,8.0,64.0
17821,74.0,24,90,8.0,64.0
17822,77.0,0,90,7.0,64.0
17823,53.0,0,90,10.0,64.0
17824,50.0,0,90,10.0,64.0
17825,77.0,0,90,7.0,64.0
17826,50.0,0,90,10.0,64.0
17827,31.0,96,1920,12.0,64.0
17828,74.0,120,90,8.0,64.0
17829,53.0,0,90,10.0,64.0
17830,43.0,0,1920,11.0,64.0
17831,53.0,0,90,10.0,64.0
17832,74.0,0,90,8.0,64.0
17833,50.0,120,90,10.0,64.0
17834,77.0,0,90,7.0,64.0
17835,53.0,120,90,10.0,64.0
17836,74.0,0,90,8.0,64.0
17837,50.0,0,90,10.0,64.0
17838,77.0,0,90,7.0,64.0
17839,77.0,0,90,7.0,64.0
17840,53.0,0,90,10.0,64.0
17841,74.0,120,90,8.0,64.0
17842,50.0,0,90,10.0,64.0
17843,53.0,0,90,10.0,64.0
17844,50.0,0,90,10.0,64.0
17845,77.0,120,90,7.0,64.0
17846,74.0,0,90,8.0,64.0
17847,74.0,0,90,8.0,64.0
17848,50.0,120,90,10.0,64.0
17849,53.0,0,90,10.0,64.0
17850,77.0,0,90,7.0,64.0
17851,50.0,0,90,10.0,64.0
17852,53.0,0,90,10.0,64.0
17853,77.0,0,90,7.0,64.0
17854,74.0,120,90,8.0,64.0
17855,74.0,24,90,8.0,64.0
17856,53.0,0,90,10.0,64.0
17857,50.0,0,90,10.0,64.0
17858,77.0,0,90,7.0,64.0
17859,86.0,0,15,0.0,64.0
17860,89.0,0,15,0.0,64.0
17861,74.0,0,15,1.0,64.0
17862,67.0,0,90,5.0,64.0
17863,77.0,0,15,1.0,64.0
17864,62.0,0,90,2.0,64.0
17865,50.0,0,90,10.0,64.0
17866,59.0,0,90,10.0,64.0
17867,74.0,0,90,8.0,64.0
17868,55.0,0,90,5.0,64.0
17869,65.0,0,15,2.0,64.0
17870,55.0,0,780,4.0,64.0
17871,62.0,48,780,4.0,64.0
17872,59.0,0,90,3.0,64.0
17873,43.0,24,180,6.0,64.0
17874,50.0,96,15,3.0,64.0
17875,83.0,96,90,7.0,64.0
17876,59.0,0,90,10.0,64.0
17877,50.0,120,90,10.0,64.0
17878,83.0,0,90,7.0,64.0
17879,74.0,0,90,8.0,64.0
17880,52.0,0,120,3.0,64.0
17881,83.0,0,90,7.0,64.0
17882,50.0,0,90,10.0,64.0
17883,59.0,0,90,10.0,64.0
17884,64.0,0,120,2.0,64.0
17885,84.0,0,120,0.0,64.0
17886,88.0,0,120,0.0,64.0
17887,60.0,0,120,3.0,64.0
17888,72.0,0,120,1.0,64.0
17889,76.0,72,120,1.0,64.0
17890,74.0,24,90,8.0,64.0
17891,43.0,24,180,6.0,64.0
17892,60.0,0,120,2.0,64.0
17893,67.0,0,90,5.0,64.0
17894,55.0,0,90,5.0,64.0
17895,83.0,0,90,7.0,64.0
17896,50.0,0,120,3.0,64.0
17897,59.0,0,120,3.0,64.0
17898,62.0,0,120,2.0,64.0
17899,59.0,0,90,10.0,64.0
17900,50.0,0,90,10.0,64.0
17901,74.0,0,120,1.0,64.0
17902,77.0,0,120,1.0,64.0
17903,89.0,96,120,0.0,64.0
17904,86.0,0,120,0.0,64.0
17905,74.0,24,90,8.0,64.0
17906,65.0,0,120,2.0,64.0
17907,79.0,0,90,1.0,64.0
17908,55.0,0,90,5.0,64.0
17909,67.0,24,90,5.0,64.0
17910,76.0,0,90,1.0,64.0
17911,43.0,24,180,6.0,64.0
17912,48.0,0,90,3.0,64.0
17913,57.0,0,90,3.0,64.0
17914,67.0,0,90,2.0,64.0
17915,64.0,72,120,2.0,64.0
17916,74.0,0,90,8.0,64.0
17917,83.0,0,90,7.0,64.0
17918,50.0,0,90,10.0,64.0
17919,59.0,0,90,10.0,64.0
17920,88.0,0,90,0.0,64.0
17921,91.0,0,90,0.0,64.0
17922,83.0,0,90,7.0,64.0
17923,59.0,0,90,10.0,64.0
17924,50.0,0,90,10.0,64.0
17925,74.0,72,90,8.0,64.0
17926,59.0,0,90,10.0,64.0
17927,50.0,0,90,10.0,64.0
17928,83.0,0,90,7.0,64.0
17929,74.0,0,90,8.0,64.0
17930,65.0,0,90,2.0,64.0
17931,50.0,0,90,3.0,64.0
17932,59.0,0,90,3.0,64.0
17933,62.0,0,90,2.0,64.0
17934,86.0,0,90,0.0,64.0
17935,89.0,0,90,0.0,64.0
17936,77.0,120,90,1.0,64.0
17937,74.0,0,90,1.0,64.0
17938,59.0,0,90,10.0,64.0
17939,83.0,0,90,7.0,64.0
17940,74.0,24,90,8.0,64.0
17941,50.0,0,90,10.0,64.0
17942,60.0,0,90,3.0,64.0
17943,52.0,0,90,3.0,64.0
17944,76.0,96,90,8.0,64.0
17945,88.0,0,390,0.0,64.0
17946,84.0,0,390,0.0,64.0
17947,60.0,0,90,10.0,64.0
17948,84.0,0,90,7.0,64.0
17949,67.0,0,90,5.0,64.0
17950,64.0,0,90,4.0,64.0
17951,60.0,0,90,5.0,64.0
17952,36.0,0,90,12.0,64.0
17953,52.0,0,90,10.0,64.0
17954,72.0,0,390,1.0,64.0
17955,48.0,24,180,6.0,64.0
17956,60.0,0,390,2.0,64.0
17957,48.0,0,90,11.0,64.0
17958,64.0,0,360,2.0,64.0
17959,76.0,48,390,1.0,64.0
17960,60.0,0,90,4.0,64.0
17961,84.0,0,90,7.0,64.0
17962,52.0,0,90,10.0,64.0
17963,60.0,0,90,10.0,64.0
17964,76.0,120,90,8.0,64.0
17965,60.0,24,90,5.0,64.0
17966,60.0,0,90,4.0,64.0
17967,64.0,0,90,4.0,64.0
17968,62.0,0,120,3.0,64.0
17969,53.0,24,120,3.0,64.0
17970,76.0,0,90,8.0,64.0
17971,48.0,24,180,6.0,64.0
17972,84.0,0,90,7.0,64.0
17973,36.0,0,90,12.0,64.0
17974,67.0,0,90,5.0,64.0
17975,48.0,0,90,11.0,64.0
17976,52.0,0,90,10.0,64.0
17977,60.0,0,90,10.0,64.0
17978,52.0,0,120,3.0,64.0
17979,76.0,0,90,8.0,64.0
17980,60.0,24,90,10.0,64.0
17981,84.0,0,90,7.0,64.0
17982,52.0,0,90,10.0,64.0
17983,60.0,96,120,3.0,64.0
17984,48.0,24,180,6.0,64.0
17985,76.0,0,90,8.0,64.0
17986,64.0,0,90,4.0,64.0
17987,60.0,0,90,4.0,64.0
17988,52.0,0,90,10.0,64.0
17989,60.0,0,90,10.0,64.0
17990,84.0,0,90,7.0,64.0
17991,48.0,96,90,11.0,64.0
17992,50.0,0,90,3.0,64.0
17993,59.0,0,90,3.0,64.0
17994,60.0,0,90,5.0,64.0
17995,36.0,0,90,12.0,64.0
17996,67.0,0,90,5.0,64.0
17997,76.0,0,90,8.0,64.0
17998,52.0,0,90,10.0,64.0
17999,84.0,0,90,7.0,64.0
18000,60.0,120,90,10.0,64.0
18001,60.0,0,90,3.0,64.0
18002,52.0,0,90,3.0,64.0
18003,76.0,0,90,8.0,64.0
18004,60.0,0,90,10.0,64.0
18005,52.0,120,90,10.0,64.0
18006,84.0,0,90,7.0,64.0
18007,52.0,0,90,10.0,64.0
18008,76.0,0,90,8.0,64.0
18009,84.0,120,90,7.0,64.0
18010,60.0,0,90,10.0,64.0
18011,55.0,0,90,4.0,64.0
18012,74.0,0,90,8.0,64.0
18013,77.0,0,90,1.0,64.0
18014,74.0,0,90,1.0,64.0
18015,50.0,0,90,10.0,64.0
18016,65.0,0,90,4.0,64.0
18017,62.0,0,90,4.0,64.0
18018,43.0,0,90,11.0,64.0
18019,89.0,0,90,0.0,64.0
18020,59.0,0,90,10.0,64.0
18021,55.0,0,90,5.0,64.0
18022,83.0,0,90,7.0,64.0
18023,62.0,0,90,2.0,64.0
18024,50.0,0,90,3.0,64.0
18025,59.0,0,90,3.0,64.0
18026,65.0,0,90,2.0,64.0
18027,67.0,0,90,5.0,64.0
18028,31.0,96,90,12.0,64.0
18029,43.0,24,180,6.0,64.0
18030,86.0,0,90,0.0,64.0
18031,59.0,0,90,10.0,64.0
18032,74.0,0,90,8.0,64.0
18033,50.0,120,90,10.0,64.0
18034,83.0,0,90,7.0,64.0
18035,43.0,24,180,6.0,64.0
18036,43.0,0,90,11.0,64.0
18037,84.0,0,120,0.0,64.0
18038,88.0,0,120,0.0,64.0
18039,60.0,0,120,2.0,64.0
18040,64.0,0,90,2.0,64.0
18041,55.0,0,90,4.0,64.0
18042,62.0,0,90,4.0,64.0
18043,74.0,0,90,8.0,64.0
18044,59.0,0,90,10.0,64.0
18045,83.0,0,90,7.0,64.0
18046,67.0,0,90,5.0,64.0
18047,55.0,0,90,5.0,64.0
18048,31.0,0,90,12.0,64.0
18049,65.0,24,90,4.0,64.0
18050,60.0,0,120,3.0,64.0
18051,52.0,0,120,3.0,64.0
18052,76.0,0,120,1.0,64.0
18053,50.0,0,90,10.0,64.0
18054,72.0,72,120,1.0,64.0
18055,50.0,0,90,10.0,64.0
18056,62.0,0,120,2.0,64.0
18057,83.0,24,90,7.0,64.0
18058,50.0,0,120,3.0,64.0
18059,77.0,0,120,1.0,64.0
18060,86.0,0,120,0.0,64.0
18061,89.0,0,120,0.0,64.0
18062,74.0,0,120,1.0,64.0
18063,59.0,0,120,3.0,64.0
18064,65.0,96,120,2.0,64.0
18065,59.0,0,90,10.0,64.0
18066,74.0,0,90,8.0,64.0
18067,76.0,0,90,1.0,64.0
18068,79.0,0,90,1.0,64.0
18069,31.0,0,90,12.0,64.0
18070,67.0,0,90,5.0,64.0
18071,55.0,0,90,5.0,64.0
18072,43.0,24,180,6.0,64.0
18073,67.0,0,90,2.0,64.0
18074,74.0,0,90,8.0,64.0
18075,64.0,0,90,2.0,64.0
18076,43.0,96,90,11.0,64.0
18077,88.0,0,90,0.0,64.0
18078,59.0,0,90,10.0,64.0
18079,50.0,0,90,10.0,64.0
18080,83.0,0,90,7.0,64.0
18081,48.0,0,90,3.0,64.0
18082,57.0,0,90,3.0,64.0
18083,65.0,0,90,4.0,64.0
18084,55.0,0,90,4.0,64.0
18085,62.0,0,90,4.0,64.0
18086,91.0,0,90,0.0,64.0
18087,50.0,0,90,10.0,64.0
18088,83.0,0,90,7.0,64.0
18089,74.0,0,90,8.0,64.0
18090,59.0,120,90,10.0,64.0
18091,74.0,0,90,8.0,64.0
18092,50.0,0,90,3.0,64.0
18093,59.0,120,90,3.0,64.0
18094,50.0,0,90,10.0,64.0
18095,59.0,0,90,10.0,64.0
18096,89.0,0,90,0.0,64.0
18097,86.0,0,90,0.0,64.0
18098,77.0,0,90,1.0,64.0
18099,65.0,0,90,2.0,64.0
18100,62.0,0,90,2.0,64.0
18101,83.0,0,90,7.0,64.0
18102,74.0,0,90,1.0,64.0
18103,83.0,120,90,7.0,64.0
18104,74.0,0,90,8.0,64.0
18105,50.0,0,90,10.0,64.0
18106,59.0,0,90,10.0,64.0
18107,67.0,0,90,5.0,64.0
18108,52.0,0,90,3.0,64.0
18109,60.0,0,90,3.0,64.0
18110,84.0,0,90,7.0,64.0
18111,48.0,96,90,11.0,64.0
18112,76.0,0,390,1.0,64.0
18113,60.0,0,90,10.0,64.0
18114,52.0,0,90,10.0,64.0
18115,88.0,0,390,0.0,64.0
18116,60.0,0,90,4.0,64.0
18117,64.0,0,90,4.0,64.0
18118,76.0,0,90,8.0,64.0
18119,36.0,0,90,12.0,64.0
18120,60.0,0,90,5.0,64.0
18121,64.0,0,390,2.0,64.0
18122,60.0,48,390,2.0,64.0
18123,72.0,0,390,1.0,64.0
18124,48.0,24,180,6.0,64.0
18125,84.0,0,390,0.0,64.0
18126,52.0,0,90,10.0,64.0
18127,60.0,0,90,10.0,64.0
18128,76.0,120,90,8.0,64.0
18129,84.0,0,90,7.0,64.0
18130,64.0,0,90,4.0,64.0
18131,48.0,24,180,6.0,64.0
18132,52.0,0,90,10.0,64.0
18133,62.0,0,120,3.0,64.0
18134,76.0,0,90,8.0,64.0
18135,60.0,0,90,4.0,64.0
18136,36.0,0,90,12.0,64.0
18137,60.0,0,90,5.0,64.0
18138,60.0,0,90,10.0,64.0
18139,48.0,0,90,11.0,64.0
18140,53.0,24,120,3.0,64.0
18141,84.0,24,90,7.0,64.0
18142,67.0,0,90,5.0,64.0
18143,84.0,0,90,7.0,64.0
18144,76.0,0,90,8.0,64.0
18145,60.0,24,90,10.0,64.0
18146,52.0,96,120,3.0,64.0
18147,52.0,0,90,10.0,64.0
18148,60.0,0,120,3.0,64.0
18149,84.0,0,90,7.0,64.0
18150,60.0,0,90,5.0,64.0
18151,67.0,0,90,5.0,64.0
18152,60.0,0,90,10.0,64.0
18153,52.0,0,90,10.0,64.0
18154,48.0,0,90,11.0,64.0
18155,59.0,96,90,3.0,64.0
18156,48.0,24,180,6.0,64.0
18157,50.0,0,90,3.0,64.0
18158,36.0,0,90,12.0,64.0
18159,64.0,0,90,4.0,64.0
18160,60.0,0,90,4.0,64.0
18161,76.0,0,90,8.0,64.0
18162,60.0,120,90,10.0,64.0
18163,52.0,0,90,10.0,64.0
18164,76.0,0,90,8.0,64.0
18165,84.0,0,90,7.0,64.0
18166,60.0,0,90,3.0,64.0
18167,52.0,0,90,10.0,64.0
18168,84.0,0,90,7.0,64.0
18169,76.0,120,90,8.0,64.0
18170,52.0,0,90,3.0,64.0
18171,60.0,0,90,10.0,64.0
18172,52.0,0,90,10.0,64.0
18173,60.0,0,90,10.0,64.0
18174,76.0,120,90,8.0,64.0
18175,84.0,0,90,7.0,64.0
18176,89.0,0,90,0.0,64.0
18177,74.0,0,90,1.0,64.0
18178,43.0,24,180,6.0,64.0
18179,74.0,0,90,8.0,64.0
18180,62.0,0,90,2.0,64.0
18181,65.0,0,90,2.0,64.0
18182,50.0,0,90,10.0,64.0
18183,77.0,0,90,1.0,64.0
18184,55.0,0,90,5.0,64.0
18185,65.0,0,90,4.0,64.0
18186,86.0,0,90,0.0,64.0
18187,62.0,0,90,4.0,64.0
18188,50.0,0,90,3.0,64.0
18189,59.0,0,90,3.0,64.0
18190,59.0,0,90,10.0,64.0
18191,55.0,0,90,4.0,64.0
18192,83.0,96,90,7.0,64.0
18193,67.0,0,90,5.0,64.0
18194,43.0,0,90,11.0,64.0
18195,31.0,0,90,12.0,64.0
18196,83.0,120,90,7.0,64.0
18197,59.0,0,90,10.0,64.0
18198,74.0,0,90,8.0,64.0
18199,50.0,0,90,10.0,64.0
18200,50.0,0,90,10.0,64.0
18201,59.0,0,90,10.0,64.0
18202,88.0,0,120,0.0,64.0
18203,84.0,0,120,0.0,64.0
18204,43.0,24,180,6.0,64.0
18205,60.0,72,120,2.0,64.0
18206,72.0,0,120,1.0,64.0
18207,76.0,0,120,1.0,64.0
18208,74.0,0,90,8.0,64.0
18209,64.0,0,90,2.0,64.0
18210,55.0,0,90,5.0,64.0
18211,43.0,0,90,11.0,64.0
18212,52.0,0,120,3.0,64.0
18213,65.0,24,90,4.0,64.0
18214,55.0,0,90,4.0,64.0
18215,62.0,0,90,4.0,64.0
18216,60.0,0,120,3.0,64.0
18217,83.0,0,90,7.0,64.0
18218,67.0,0,90,5.0,64.0
18219,31.0,0,90,12.0,64.0
18220,77.0,0,120,1.0,64.0
18221,74.0,0,120,1.0,64.0
18222,50.0,0,90,10.0,64.0
18223,59.0,0,90,10.0,64.0
18224,59.0,0,120,3.0,64.0
18225,83.0,0,90,7.0,64.0
18226,86.0,0,120,0.0,64.0
18227,89.0,0,120,0.0,64.0
18228,50.0,96,120,3.0,64.0
18229,62.0,0,120,2.0,64.0
18230,65.0,0,120,2.0,64.0
18231,74.0,24,90,8.0,64.0
18232,57.0,0,90,3.0,64.0
18233,67.0,0,90,5.0,64.0
18234,31.0,0,90,12.0,64.0
18235,88.0,0,90,0.0,64.0
18236,91.0,0,90,0.0,64.0
18237,67.0,0,90,2.0,64.0
18238,64.0,0,90,2.0,64.0
18239,43.0,24,180,6.0,64.0
18240,55.0,0,90,5.0,64.0
18241,74.0,0,90,8.0,64.0
18242,50.0,96,90,10.0,64.0
18243,59.0,0,90,10.0,64.0
18244,76.0,0,90,1.0,64.0
18245,79.0,0,90,1.0,64.0
18246,48.0,0,90,3.0,64.0
18247,83.0,0,90,7.0,64.0
18248,65.0,0,90,4.0,64.0
18249,55.0,0,90,4.0,64.0
18250,62.0,0,90,4.0,64.0
18251,43.0,0,90,11.0,64.0
18252,83.0,120,90,7.0,64.0
18253,50.0,0,90,10.0,64.0
18254,59.0,0,90,10.0,64.0
18255,74.0,0,90,8.0,64.0
18256,59.0,0,90,10.0,64.0
18257,77.0,0,90,1.0,64.0
18258,74.0,120,90,1.0,64.0
18259,83.0,0,90,7.0,64.0
18260,89.0,0,90,0.0,64.0
18261,59.0,0,90,3.0,64.0
18262,50.0,0,90,3.0,64.0
18263,65.0,0,90,2.0,64.0
18264,86.0,0,90,0.0,64.0
18265,74.0,0,90,8.0,64.0
18266,50.0,0,90,10.0,64.0
18267,62.0,0,90,2.0,64.0
18268,83.0,120,90,7.0,64.0
18269,50.0,0,90,10.0,64.0
18270,59.0,0,90,10.0,64.0
18271,74.0,0,90,8.0,64.0
18272,76.0,0,90,8.0,64.0
18273,60.0,0,90,4.0,64.0
18274,52.0,0,90,4.0,64.0
18275,72.0,96,90,2.0,64.0
18276,76.0,0,90,2.0,64.0
18277,84.0,0,90,7.0,64.0
18278,76.0,0,90,1.0,64.0
18279,60.0,0,90,10.0,64.0
18280,60.0,0,90,3.0,64.0
18281,72.0,0,90,1.0,64.0
18282,84.0,0,90,0.0,64.0
18283,88.0,0,90,0.0,64.0
18284,72.0,0,90,5.0,64.0
18285,60.0,0,90,5.0,64.0
18286,48.0,24,180,6.0,64.0
18287,36.0,0,90,12.0,64.0
18288,48.0,0,90,11.0,64.0
18289,64.0,0,90,10.0,64.0
18290,76.0,120,90,8.0,64.0
18291,88.0,0,90,7.0,64.0
18292,60.0,0,90,10.0,64.0
18293,64.0,0,90,10.0,64.0
18294,74.0,72,120,2.0,64.0
18295,60.0,0,90,5.0,64.0
18296,72.0,0,90,5.0,64.0
18297,76.0,24,90,8.0,64.0
18298,48.0,24,180,6.0,64.0
18299,60.0,0,90,11.0,64.0
18300,62.0,0,120,2.0,64.0
18301,52.0,0,90,4.0,64.0
18302,60.0,0,90,4.0,64.0
18303,60.0,0,90,10.0,64.0
18304,59.0,0,120,3.0,64.0
18305,48.0,0,90,12.0,64.0
18306,74.0,0,120,1.0,64.0
18307,64.0,0,90,10.0,64.0
18308,88.0,0,90,7.0,64.0
18309,86.0,0,120,0.0,64.0
18310,64.0,0,90,10.0,64.0
18311,60.0,0,120,3.0,64.0
18312,60.0,24,90,10.0,64.0
18313,76.0,0,90,8.0,64.0
18314,64.0,0,120,2.0,64.0
18315,76.0,0,120,2.0,64.0
18316,88.0,96,120,0.0,64.0
18317,76.0,0,120,1.0,64.0
18318,88.0,0,90,7.0,64.0
18319,72.0,96,90,5.0,64.0
18320,45.0,0,90,11.0,64.0
18321,72.0,0,90,8.0,64.0
18322,33.0,0,90,12.0,64.0
18323,48.0,24,180,6.0,64.0
18324,60.0,0,90,4.0,64.0
18325,60.0,0,90,5.0,64.0
18326,89.0,0,90,0.0,64.0
18327,48.0,0,90,4.0,64.0
18328,62.0,0,90,3.0,64.0
18329,77.0,0,90,2.0,64.0
18330,60.0,0,90,10.0,64.0
18331,89.0,0,90,7.0,64.0
18332,77.0,0,90,1.0,64.0
18333,65.0,0,90,2.0,64.0
18334,89.0,0,90,7.0,64.0
18335,72.0,0,90,8.0,64.0
18336,60.0,120,90,10.0,64.0
18337,45.0,0,90,12.0,64.0
18338,60.0,0,90,10.0,64.0
18339,76.0,0,90,1.0,64.0
18340,64.0,96,120,2.0,64.0
18341,60.0,0,90,3.0,64.0
18342,76.0,24,90,2.0,64.0
18343,72.0,0,90,8.0,64.0
18344,88.0,0,90,7.0,64.0
18345,88.0,0,90,0.0,64.0
18346,57.0,0,90,11.0,64.0
18347,88.0,0,90,7.0,64.0
18348,72.0,0,90,8.0,64.0
18349,60.0,120,90,10.0,64.0
18350,59.0,0,90,3.0,64.0
18351,74.0,0,90,1.0,64.0
18352,35.0,0,90,12.0,64.0
18353,86.0,0,90,0.0,64.0
18354,47.0,0,90,11.0,64.0
18355,64.0,0,90,4.0,64.0
18356,74.0,0,90,2.0,64.0
18357,62.0,0,90,2.0,64.0
18358,86.0,0,90,7.0,64.0
18359,52.0,0,90,4.0,64.0
18360,62.0,0,90,10.0,64.0
18361,64.0,0,90,5.0,64.0
18362,74.0,120,90,8.0,64.0
18363,76.0,0,90,5.0,64.0
18364,62.0,0,90,10.0,64.0
18365,86.0,0,90,7.0,64.0
18366,74.0,120,90,8.0,64.0
18367,72.0,0,120,1.0,64.0
18368,74.0,0,90,8.0,64.0
18369,64.0,0,90,5.0,64.0
18370,57.0,96,120,3.0,64.0
18371,72.0,0,120,2.0,64.0
18372,62.0,0,90,10.0,64.0
18373,52.0,0,90,4.0,64.0
18374,64.0,0,90,4.0,64.0
18375,59.0,0,90,11.0,64.0
18376,76.0,0,90,5.0,64.0
18377,84.0,0,120,0.0,64.0
18378,84.0,0,90,7.0,64.0
18379,47.0,24,90,12.0,64.0
18380,62.0,24,90,10.0,64.0
18381,74.0,0,90,8.0,64.0
18382,74.0,0,120,2.0,64.0
18383,59.0,96,120,3.0,64.0
18384,74.0,0,120,1.0,64.0
18385,86.0,0,120,0.0,64.0
18386,86.0,0,90,7.0,64.0
18387,76.0,0,90,1.0,64.0
18388,59.0,0,90,10.0,64.0
18389,64.0,120,90,5.0,64.0
18390,64.0,0,90,4.0,64.0
18391,52.0,0,90,4.0,64.0
18392,71.0,0,90,8.0,64.0
18393,60.0,0,90,3.0,64.0
18394,32.0,0,90,12.0,64.0
18395,88.0,0,90,7.0,64.0
18396,76.0,0,90,5.0,64.0
18397,88.0,0,90,0.0,64.0
18398,76.0,0,90,2.0,64.0
18399,44.0,0,90,11.0,64.0
18400,71.0,0,90,8.0,64.0
18401,88.0,120,90,7.0,64.0
18402,59.0,0,90,10.0,64.0
18403,86.0,0,90,0.0,64.0
18404,56.0,0,90,11.0,64.0
18405,86.0,0,90,7.0,64.0
18406,59.0,0,90,10.0,64.0
18407,44.0,0,90,12.0,64.0
18408,59.0,0,90,3.0,64.0
18409,71.0,120,90,8.0,64.0
18410,74.0,0,90,1.0,64.0
18411,74.0,0,90,2.0,64.0
18412,59.0,0,90,10.0,64.0
18413,86.0,0,90,7.0,64.0
18414,71.0,120,90,8.0,64.0
18415,45.0,0,90,11.0,64.0
18416,33.0,0,90,12.0,64.0
18417,72.0,0,90,8.0,64.0
18418,84.0,0,90,7.0,64.0
18419,48.0,24,180,6.0,64.0
18420,72.0,0,90,2.0,64.0
18421,84.0,0,90,0.0,64.0
18422,48.0,96,90,4.0,64.0
18423,60.0,0,90,5.0,64.0
18424,60.0,0,90,4.0,64.0
18425,60.0,0,90,10.0,64.0
18426,57.0,0,90,3.0,64.0
18427,72.0,0,90,1.0,64.0
18428,72.0,0,90,5.0,64.0
18429,84.0,0,90,7.0,64.0
18430,60.0,0,90,10.0,64.0
18431,72.0,120,90,8.0,64.0
18432,45.0,0,90,12.0,64.0
18433,48.0,24,180,6.0,64.0
18434,72.0,0,90,8.0,64.0
18435,71.0,72,120,1.0,64.0
18436,60.0,24,90,5.0,64.0
18437,72.0,0,90,5.0,64.0
18438,57.0,0,90,11.0,64.0
18439,55.0,0,120,3.0,64.0
18440,60.0,0,90,10.0,64.0
18441,60.0,0,90,4.0,64.0
18442,48.0,0,90,4.0,64.0
18443,83.0,0,90,7.0,64.0
18444,83.0,0,120,0.0,64.0
18445,71.0,0,120,2.0,64.0
18446,84.0,24,90,7.0,64.0
18447,60.0,0,90,10.0,64.0
18448,72.0,0,90,8.0,64.0
18449,72.0,0,120,2.0,64.0
18450,57.0,0,120,3.0,64.0
18451,84.0,0,120,0.0,64.0
18452,72.0,96,120,1.0,64.0
18453,59.0,0,90,3.0,64.0
18454,60.0,0,90,5.0,64.0
18455,72.0,0,90,5.0,64.0
18456,54.0,0,90,11.0,64.0
18457,48.0,24,180,6.0,64.0
18458,60.0,96,90,4.0,64.0
18459,48.0,0,90,4.0,64.0
18460,74.0,0,90,2.0,64.0
18461,69.0,0,90,8.0,64.0
18462,57.0,0,90,10.0,64.0
18463,86.0,0,90,0.0,64.0
18464,42.0,0,90,12.0,64.0
18465,74.0,0,90,1.0,64.0
18466,86.0,0,90,7.0,64.0
18467,57.0,120,90,10.0,64.0
18468,86.0,0,90,7.0,64.0
18469,69.0,0,90,8.0,64.0
18470,57.0,0,90,3.0,64.0
18471,72.0,0,90,2.0,64.0
18472,72.0,0,90,1.0,64.0
18473,42.0,0,90,12.0,64.0
18474,84.0,0,90,0.0,64.0
18475,84.0,0,90,7.0,64.0
18476,54.0,0,90,11.0,64.0
18477,69.0,0,90,8.0,64.0
18478,57.0,120,90,10.0,64.0
18479,69.0,0,90,8.0,64.0
18480,57.0,120,90,10.0,64.0
18481,84.0,0,90,7.0,64.0
18482,67.0,0,90,4.0,64.0
18483,71.0,0,90,2.0,64.0
18484,71.0,0,90,1.0,64.0
18485,59.0,0,90,10.0,64.0
18486,43.0,24,180,6.0,64.0
18487,43.0,96,90,12.0,64.0
18488,55.0,0,90,11.0,64.0
18489,67.0,0,90,5.0,64.0
18490,83.0,0,90,0.0,64.0
18491,71.0,0,90,8.0,64.0
18492,55.0,0,90,3.0,64.0
18493,83.0,0,90,7.0,64.0
18494,55.0,0,90,4.0,64.0
18495,55.0,0,90,5.0,64.0
18496,71.0,120,90,8.0,64.0
18497,59.0,0,90,10.0,64.0
18498,83.0,0,90,7.0,64.0
18499,43.0,0,90,11.0,64.0
18500,69.0,0,120,1.0,64.0
18501,55.0,0,90,5.0,64.0
18502,43.0,24,180,6.0,64.0
18503,67.0,24,90,5.0,64.0
18504,53.0,0,120,3.0,64.0
18505,81.0,0,90,7.0,64.0
18506,31.0,0,90,12.0,64.0
18507,81.0,0,120,0.0,64.0
18508,69.0,72,120,2.0,64.0
18509,59.0,0,90,10.0,64.0
18510,71.0,0,90,8.0,64.0
18511,55.0,0,90,4.0,64.0
18512,67.0,0,90,4.0,64.0
18513,83.0,0,120,0.0,64.0
18514,55.0,96,120,3.0,64.0
18515,71.0,0,120,1.0,64.0
18516,59.0,0,90,10.0,64.0
18517,83.0,0,90,7.0,64.0
18518,71.0,0,120,2.0,64.0
18519,71.0,24,90,8.0,64.0
18520,72.0,0,90,1.0,64.0
18521,84.0,0,90,0.0,64.0
18522,67.0,0,90,8.0,64.0
18523,55.0,0,90,10.0,64.0
18524,52.0,0,90,11.0,64.0
18525,72.0,0,90,2.0,64.0
18526,67.0,0,90,4.0,64.0
18527,64.0,0,90,4.0,64.0
18528,67.0,0,90,5.0,64.0
18529,55.0,96,90,5.0,64.0
18530,57.0,0,90,3.0,64.0
18531,40.0,0,90,12.0,64.0
18532,84.0,0,90,7.0,64.0
18533,43.0,24,180,6.0,64.0
18534,67.0,0,90,8.0,64.0
18535,55.0,0,90,10.0,64.0
18536,84.0,120,90,7.0,64.0
18537,55.0,120,90,3.0,64.0
18538,71.0,0,90,1.0,64.0
18539,40.0,0,90,12.0,64.0
18540,83.0,0,90,7.0,64.0
18541,71.0,0,90,2.0,64.0
18542,67.0,0,90,8.0,64.0
18543,52.0,0,90,11.0,64.0
18544,83.0,0,90,0.0,64.0
18545,55.0,0,90,10.0,64.0
18546,67.0,0,90,8.0,64.0
18547,55.0,120,90,10.0,64.0
18548,83.0,0,90,7.0,64.0
18549,41.0,0,90,12.0,64.0
18550,69.0,0,90,1.0,64.0
18551,53.0,0,90,11.0,64.0
18552,57.0,0,90,10.0,64.0
18553,53.0,0,90,3.0,64.0
18554,69.0,120,90,2.0,64.0
18555,65.0,0,90,4.0,64.0
18556,81.0,0,90,0.0,64.0
18557,81.0,0,90,7.0,64.0
18558,69.0,0,90,8.0,64.0
18559,57.0,0,90,10.0,64.0
18560,81.0,0,90,7.0,64.0
18561,69.0,120,90,8.0,64.0
18562,67.0,96,120,2.0,64.0
18563,67.0,0,120,1.0,64.0
18564,79.0,0,90,7.0,64.0
18565,79.0,0,120,0.0,64.0
18566,52.0,0,120,3.0,64.0
18567,57.0,0,90,10.0,64.0
18568,69.0,0,90,8.0,64.0
18569,65.0,0,90,11.0,64.0
18570,65.0,24,90,4.0,64.0
18571,53.0,0,90,12.0,64.0
18572,81.0,0,90,7.0,64.0
18573,53.0,0,120,3.0,64.0
18574,69.0,96,120,1.0,64.0
18575,81.0,0,120,0.0,64.0
18576,69.0,0,120,2.0,64.0
18577,57.0,0,90,10.0,64.0
18578,69.0,24,90,8.0,64.0
18579,50.0,0,90,11.0,64.0
18580,55.0,0,90,3.0,64.0
18581,53.0,0,90,10.0,64.0
18582,38.0,0,90,12.0,64.0
18583,83.0,0,90,0.0,64.0
18584,62.0,120,90,4.0,64.0
18585,65.0,0,90,8.0,64.0
18586,65.0,0,90,4.0,64.0
18587,83.0,0,90,7.0,64.0
18588,71.0,0,90,2.0,64.0
18589,71.0,0,90,1.0,64.0
18590,83.0,120,90,7.0,64.0
18591,65.0,0,90,8.0,64.0
18592,53.0,0,90,10.0,64.0
18593,62.0,0,90,11.0,64.0
18594,53.0,0,90,10.0,64.0
18595,53.0,0,90,3.0,64.0
18596,65.0,0,90,8.0,64.0
18597,50.0,0,90,12.0,64.0
18598,69.0,0,90,1.0,64.0
18599,81.0,0,90,0.0,64.0
18600,69.0,120,90,2.0,64.0
18601,81.0,0,90,7.0,64.0
18602,65.0,0,90,8.0,64.0
18603,53.0,120,90,10.0,64.0
18604,81.0,0,90,7.0,64.0
18605,52.0,0,90,11.0,64.0
18606,55.0,0,90,10.0,64.0
18607,43.0,24,180,6.0,64.0
18608,67.0,0,90,5.0,64.0
18609,67.0,96,90,4.0,64.0
18610,64.0,0,90,4.0,64.0
18611,55.0,0,90,5.0,64.0
18612,40.0,0,90,12.0,64.0
18613,67.0,0,90,1.0,64.0
18614,79.0,0,90,0.0,64.0
18615,52.0,0,90,3.0,64.0
18616,67.0,0,90,2.0,64.0
18617,67.0,0,90,8.0,64.0
18618,79.0,0,90,7.0,64.0
18619,55.0,120,90,10.0,64.0
18620,67.0,0,90,8.0,64.0
18621,79.0,0,90,7.0,64.0
18622,50.0,0,120,3.0,64.0
18623,62.0,0,120,3.0,64.0
18624,55.0,0,90,5.0,64.0
18625,67.0,0,90,5.0,64.0
18626,89.0,0,120,0.0,64.0
18627,77.0,0,120,2.0,64.0
18628,52.0,0,90,12.0,64.0
18629,43.0,24,180,6.0,64.0
18630,64.0,0,90,4.0,64.0
18631,64.0,0,90,11.0,64.0
18632,67.0,24,90,4.0,64.0
18633,55.0,0,90,10.0,64.0
18634,67.0,0,90,8.0,64.0
18635,77.0,72,120,1.0,64.0
18636,77.0,0,90,7.0,64.0
18637,79.0,0,120,2.0,64.0
18638,52.0,0,120,3.0,64.0
18639,64.0,0,120,3.0,64.0
18640,67.0,0,90,8.0,64.0
18641,79.0,0,90,7.0,64.0
18642,79.0,96,120,1.0,64.0
18643,55.0,24,90,10.0,64.0
18644,91.0,0,120,0.0,64.0
18645,43.0,24,180,6.0,64.0
18646,49.0,0,90,11.0,64.0
18647,81.0,0,90,1.0,64.0
18648,64.0,0,90,8.0,64.0
18649,81.0,0,90,2.0,64.0
18650,37.0,0,90,12.0,64.0
18651,53.0,96,90,3.0,64.0
18652,52.0,0,90,4.0,64.0
18653,93.0,0,90,0.0,64.0
18654,81.0,0,90,7.0,64.0
18655,67.0,0,90,5.0,64.0
18656,55.0,0,90,5.0,64.0
18657,52.0,0,90,10.0,64.0
18658,65.0,0,90,3.0,64.0
18659,64.0,0,90,4.0,64.0
18660,52.0,0,90,10.0,64.0
18661,81.0,120,90,7.0,64.0
18662,64.0,0,90,8.0,64.0
18663,79.0,0,90,7.0,64.0
18664,49.0,0,90,12.0,64.0
18665,64.0,0,90,3.0,64.0
18666,52.0,0,90,3.0,64.0
18667,52.0,0,90,10.0,64.0
18668,79.0,0,90,1.0,64.0
18669,61.0,0,90,11.0,64.0
18670,91.0,0,90,0.0,64.0
18671,79.0,0,90,2.0,64.0
18672,64.0,120,90,8.0,64.0
18673,64.0,0,90,8.0,64.0
18674,52.0,120,90,10.0,64.0
18675,79.0,0,90,7.0,64.0
18676,43.0,24,180,6.0,64.0
18677,65.0,0,90,1.0,64.0
18678,62.0,0,90,11.0,64.0
18679,50.0,0,90,12.0,64.0
18680,53.0,0,90,10.0,64.0
18681,55.0,0,90,5.0,64.0
18682,89.0,0,90,0.0,64.0
18683,77.0,0,90,0.0,64.0
18684,67.0,0,90,5.0,64.0
18685,77.0,0,90,7.0,64.0
18686,77.0,0,90,2.0,64.0
18687,65.0,0,90,2.0,64.0
18688,65.0,0,90,8.0,64.0
18689,62.0,0,90,4.0,64.0
18690,62.0,0,90,3.0,64.0
18691,65.0,0,90,3.0,64.0
18692,77.0,96,90,1.0,64.0
18693,65.0,0,90,4.0,64.0
18694,53.0,120,90,10.0,64.0
18695,65.0,0,90,8.0,64.0
18696,77.0,0,90,7.0,64.0
18697,59.0,96,90,3.0,64.0
18698,62.0,0,90,3.0,64.0
18699,77.0,0,90,7.0,64.0
18700,74.0,0,90,1.0,64.0
18701,59.0,0,90,11.0,64.0
18702,74.0,0,90,2.0,64.0
18703,65.0,0,90,8.0,64.0
18704,79.0,0,90,1.0,64.0
18705,67.0,0,90,5.0,64.0
18706,79.0,0,90,2.0,64.0
18707,67.0,0,90,4.0,64.0
18708,55.0,0,90,4.0,64.0
18709,91.0,0,90,0.0,64.0
18710,86.0,0,90,0.0,64.0
18711,62.0,0,90,10.0,64.0
18712,47.0,0,90,12.0,64.0
18713,43.0,24,180,6.0,64.0
18714,55.0,0,90,5.0,64.0
18715,62.0,120,90,10.0,64.0
18716,77.0,0,90,7.0,64.0
18717,65.0,0,90,8.0,64.0
18718,64.0,0,90,8.0,64.0
18719,48.0,0,90,12.0,64.0
18720,60.0,0,90,10.0,64.0
18721,64.0,0,90,3.0,64.0
18722,76.0,0,90,2.0,64.0
18723,64.0,0,90,4.0,64.0
18724,60.0,96,90,4.0,64.0
18725,72.0,0,90,5.0,64.0
18726,84.0,0,90,0.0,64.0
18727,60.0,0,90,5.0,64.0
18728,88.0,0,90,0.0,64.0
18729,72.0,0,90,1.0,64.0
18730,60.0,0,90,11.0,64.0
18731,60.0,0,90,3.0,64.0
18732,76.0,0,90,7.0,64.0
18733,72.0,0,90,2.0,64.0
18734,76.0,0,90,1.0,64.0
18735,48.0,24,180,6.0,64.0
18736,76.0,120,90,7.0,64.0
18737,64.0,0,90,8.0,64.0
18738,60.0,0,90,10.0,64.0
18739,72.0,0,90,2.0,64.0
18740,84.0,0,90,7.0,64.0
18741,48.0,24,180,6.0,64.0
18742,64.0,0,90,2.0,64.0
18743,84.0,0,90,1.0,64.0
18744,48.0,0,90,11.0,64.0
18745,76.0,96,90,1.0,64.0
18746,64.0,0,90,4.0,64.0
18747,60.0,0,90,4.0,64.0
18748,60.0,0,90,3.0,64.0
18749,48.0,0,90,3.0,64.0
18750,72.0,0,90,5.0,64.0
18751,64.0,0,90,10.0,64.0
18752,36.0,0,90,12.0,64.0
18753,76.0,0,90,0.0,64.0
18754,84.0,0,90,0.0,64.0
18755,72.0,0,90,8.0,64.0
18756,60.0,0,90,5.0,64.0
18757,72.0,0,90,8.0,64.0
18758,64.0,0,90,10.0,64.0
18759,84.0,120,90,7.0,64.0
18760,64.0,0,90,2.0,64.0
18761,43.0,24,180,6.0,64.0
18762,64.0,0,90,4.0,64.0
18763,76.0,0,90,0.0,64.0
18764,76.0,0,90,1.0,64.0
18765,55.0,0,90,11.0,64.0
18766,72.0,0,90,8.0,64.0
18767,64.0,0,90,10.0,64.0
18768,84.0,0,90,0.0,64.0
18769,72.0,96,90,2.0,64.0
18770,60.0,0,90,4.0,64.0
18771,43.0,0,90,12.0,64.0
18772,84.0,0,90,1.0,64.0
18773,84.0,0,90,7.0,64.0
18774,55.0,0,90,3.0,64.0
18775,67.0,0,90,5.0,64.0
18776,55.0,0,90,5.0,64.0
18777,64.0,0,90,10.0,64.0
18778,84.0,0,90,7.0,64.0
18779,72.0,120,90,8.0,64.0
18780,71.0,0,90,2.0,64.0
18781,83.0,0,90,7.0,64.0
18782,62.0,0,90,10.0,64.0
18783,55.0,0,90,5.0,64.0
18784,43.0,24,180,6.0,64.0
18785,74.0,96,90,0.0,64.0
18786,83.0,0,90,0.0,64.0
18787,67.0,0,90,5.0,64.0
18788,31.0,0,90,12.0,64.0
18789,74.0,0,90,1.0,64.0
18790,43.0,0,90,3.0,64.0
18791,62.0,0,90,2.0,64.0
18792,83.0,0,90,1.0,64.0
18793,55.0,0,90,4.0,64.0
18794,71.0,0,90,8.0,64.0
18795,62.0,0,90,4.0,64.0
18796,43.0,0,90,11.0,64.0
18797,71.0,120,90,8.0,64.0
18798,62.0,0,90,10.0,64.0
18799,83.0,0,90,7.0,64.0
18800,84.0,0,90,1.0,64.0
18801,64.0,0,90,2.0,64.0
18802,84.0,0,180,7.0,64.0
18803,60.0,0,90,10.0,64.0
18804,48.0,0,90,10.0,64.0
18805,72.0,0,90,2.0,64.0
18806,48.0,24,180,6.0,64.0
18807,48.0,0,90,3.0,64.0
18808,60.0,0,90,5.0,64.0
18809,76.0,96,90,1.0,64.0
18810,72.0,0,90,5.0,64.0
18811,52.0,0,90,11.0,64.0
18812,60.0,0,90,4.0,64.0
18813,84.0,0,90,0.0,64.0
18814,64.0,0,90,4.0,64.0
18815,72.0,0,90,8.0,64.0
18816,76.0,0,90,0.0,64.0
18817,40.0,0,90,12.0,64.0
18818,48.0,0,90,10.0,64.0
18819,60.0,0,90,10.0,64.0
18820,72.0,120,90,8.0,64.0
18821,64.0,0,90,2.0,64.0
18822,40.0,0,90,12.0,64.0
18823,72.0,0,90,5.0,64.0
18824,60.0,0,90,10.0,64.0
18825,48.0,0,90,10.0,64.0
18826,48.0,0,90,3.0,64.0
18827,72.0,0,90,2.0,64.0
18828,76.0,0,90,0.0,64.0
18829,72.0,0,90,8.0,64.0
18830,84.0,0,90,1.0,64.0
18831,64.0,0,90,4.0,64.0
18832,60.0,0,90,5.0,64.0
18833,84.0,78,120,7.0,64.0
18834,76.0,18,90,1.0,64.0
18835,48.0,24,180,6.0,64.0
18836,52.0,0,90,11.0,64.0
18837,84.0,0,90,0.0,64.0
18838,60.0,0,90,4.0,64.0
18839,60.0,12,90,10.0,64.0
18840,48.0,0,90,10.0,64.0
18841,72.0,0,90,8.0,64.0
18842,88.0,108,60,7.0,64.0
18843,84.0,0,180,1.0,64.0
18844,72.0,0,180,5.0,64.0
18845,60.0,0,180,5.0,64.0
18846,74.0,0,90,2.0,64.0
18847,60.0,0,180,4.0,64.0
18848,53.0,0,90,11.0,64.0
18849,48.0,0,90,10.0,64.0
18850,48.0,0,180,6.0,64.0
18851,41.0,0,90,12.0,64.0
18852,86.0,0,90,0.0,64.0
18853,86.0,0,90,7.0,64.0
18854,48.0,0,180,4.0,64.0
18855,72.0,96,90,8.0,64.0
18856,72.0,24,180,1.0,64.0
18857,53.0,0,90,3.0,64.0
18858,60.0,0,90,10.0,64.0
18859,48.0,0,90,10.0,64.0
18860,60.0,0,90,10.0,64.0
18861,72.0,96,90,8.0,64.0
18862,40.0,0,90,12.0,64.0
18863,72.0,24,60,2.0,64.0
18864,84.0,0,60,0.0,64.0
18865,48.0,120,90,10.0,64.0
18866,52.0,0,90,11.0,64.0
18867,60.0,0,90,10.0,64.0
18868,72.0,0,90,8.0,64.0
18869,52.0,0,90,3.0,64.0
18870,84.0,0,60,7.0,64.0
18871,60.0,24,90,10.0,64.0
18872,48.0,0,90,10.0,64.0
18873,72.0,0,90,8.0,64.0
18874,88.0,96,60,7.0,64.0
18875,76.0,0,60,2.0,64.0
18876,88.0,0,60,0.0,64.0
18877,60.0,0,180,5.0,64.0
18878,74.0,0,90,2.0,64.0
18879,41.0,0,90,12.0,64.0
18880,72.0,0,180,5.0,64.0
18881,53.0,0,90,11.0,64.0
18882,60.0,0,180,4.0,64.0
18883,86.0,0,90,0.0,64.0
18884,72.0,0,90,8.0,64.0
18885,48.0,0,180,4.0,64.0
18886,53.0,0,90,3.0,64.0
18887,48.0,0,180,6.0,64.0
18888,72.0,24,180,1.0,64.0
18889,84.0,0,180,1.0,64.0
18890,60.0,0,90,10.0,64.0
18891,48.0,0,90,10.0,64.0
18892,86.0,96,90,7.0,64.0
18893,72.0,0,90,8.0,64.0
18894,60.0,0,90,10.0,64.0
18895,48.0,96,90,10.0,64.0
18896,72.0,0,90,8.0,64.0
18897,84.0,24,60,0.0,64.0
18898,40.0,0,90,12.0,64.0
18899,84.0,0,60,7.0,64.0
18900,60.0,0,90,10.0,64.0
18901,48.0,120,90,10.0,64.0
18902,52.0,0,90,11.0,64.0
18903,72.0,0,60,2.0,64.0
18904,52.0,0,90,3.0,64.0
18905,60.0,0,90,10.0,64.0
18906,72.0,0,90,8.0,64.0
18907,48.0,24,90,10.0,64.0
18908,88.0,0,60,0.0,64.0
18909,88.0,96,60,7.0,64.0
18910,76.0,0,60,2.0,64.0
18911,60.0,0,90,10.0,64.0
18912,41.0,0,90,12.0,64.0
18913,53.0,0,90,3.0,64.0
18914,86.0,0,90,7.0,64.0
18915,86.0,0,90,0.0,64.0
18916,53.0,0,90,11.0,64.0
18917,74.0,96,90,2.0,64.0
18918,48.0,0,90,10.0,64.0
18919,48.0,0,180,4.0,64.0
18920,72.0,0,90,8.0,64.0
18921,60.0,24,180,5.0,64.0
18922,48.0,0,180,6.0,64.0
18923,84.0,0,180,1.0,64.0
18924,72.0,0,180,1.0,64.0
18925,72.0,0,180,5.0,64.0
18926,60.0,0,180,4.0,64.0
18927,72.0,0,90,8.0,64.0
18928,48.0,96,90,10.0,64.0
18929,60.0,0,90,10.0,64.0
18930,72.0,120,90,8.0,64.0
18931,60.0,0,90,10.0,64.0
18932,84.0,0,60,7.0,64.0
18933,48.0,0,90,10.0,64.0
18934,52.0,0,90,3.0,64.0
18935,40.0,0,90,12.0,64.0
18936,72.0,0,60,2.0,64.0
18937,84.0,24,60,0.0,64.0
18938,52.0,0,90,11.0,64.0
18939,72.0,120,90,8.0,64.0
18940,48.0,0,90,10.0,64.0
18941,60.0,0,90,10.0,64.0
18942,48.0,0,90,10.0,64.0
18943,60.0,0,90,10.0,64.0
18944,72.0,120,90,8.0,64.0
18945,60.0,96,90,10.0,64.0
18946,72.0,0,90,8.0,64.0
18947,48.0,0,90,10.0,64.0
18948,72.0,0,90,8.0,64.0
18949,74.0,24,60,2.0,64.0
18950,60.0,0,90,5.0,64.0
18951,53.0,0,90,3.0,64.0
18952,48.0,120,90,4.0,64.0
18953,60.0,0,90,4.0,64.0
18954,86.0,0,60,7.0,64.0
18955,48.0,0,90,10.0,64.0
18956,60.0,0,90,10.0,64.0
18957,48.0,0,90,6.0,64.0
18958,86.0,0,60,0.0,64.0
18959,53.0,0,90,11.0,64.0
18960,41.0,0,90,12.0,64.0
18961,72.0,0,90,5.0,64.0
18962,84.0,0,90,1.0,64.0
18963,72.0,0,90,1.0,64.0
18964,48.0,0,90,10.0,64.0
18965,60.0,0,90,10.0,64.0
18966,72.0,24,90,8.0,64.0
18967,89.0,0,60,0.0,64.0
18968,77.0,0,60,2.0,64.0
18969,89.0,96,60,7.0,64.0
18970,72.0,0,180,5.0,64.0
18971,60.0,0,180,5.0,64.0
18972,48.0,0,90,10.0,64.0
18973,76.0,0,90,2.0,64.0
18974,55.0,96,90,11.0,64.0
18975,55.0,0,90,3.0,64.0
18976,60.0,0,90,10.0,64.0
18977,72.0,0,90,8.0,64.0
18978,43.0,0,90,12.0,64.0
18979,72.0,0,180,1.0,64.0
18980,48.0,0,180,4.0,64.0
18981,48.0,24,180,6.0,64.0
18982,88.0,0,90,7.0,64.0
18983,60.0,0,180,4.0,64.0
18984,84.0,0,180,1.0,64.0
18985,88.0,0,90,0.0,64.0
18986,72.0,0,90,8.0,64.0
18987,48.0,0,90,10.0,64.0
18988,60.0,96,90,10.0,64.0
18989,60.0,0,90,10.0,64.0
18990,53.0,120,90,11.0,64.0
18991,86.0,0,60,0.0,64.0
18992,48.0,0,90,10.0,64.0
18993,41.0,0,90,12.0,64.0
18994,72.0,0,90,8.0,64.0
18995,74.0,24,60,2.0,64.0
18996,53.0,0,90,3.0,64.0
18997,86.0,0,60,7.0,64.0
18998,48.0,0,90,10.0,64.0
18999,72.0,0,90,8.0,64.0
19000,60.0,24,90,10.0,64.0
19001,77.0,0,60,2.0,64.0
19002,89.0,0,60,7.0,64.0
19003,89.0,96,60,0.0,64.0
19004,72.0,0,90,8.0,64.0
19005,48.0,24,180,6.0,64.0
19006,60.0,0,180,5.0,64.0
19007,48.0,0,90,10.0,64.0
19008,72.0,0,180,5.0,64.0
19009,76.0,0,90,2.0,64.0
19010,55.0,0,90,11.0,64.0
19011,60.0,96,90,10.0,64.0
19012,88.0,0,90,7.0,64.0
19013,48.0,0,180,4.0,64.0
19014,55.0,0,90,3.0,64.0
19015,84.0,0,180,1.0,64.0
19016,43.0,0,90,12.0,64.0
19017,88.0,0,90,0.0,64.0
19018,60.0,0,180,4.0,64.0
19019,72.0,0,180,1.0,64.0
19020,48.0,96,90,10.0,64.0
19021,60.0,0,90,10.0,64.0
19022,72.0,0,90,8.0,64.0
19023,72.0,0,90,8.0,64.0
19024,74.0,0,60,2.0,64.0
19025,48.0,0,90,10.0,64.0
19026,53.0,120,90,3.0,64.0
19027,86.0,24,60,0.0,64.0
19028,53.0,0,90,11.0,64.0
19029,60.0,0,90,10.0,64.0
19030,41.0,0,90,12.0,64.0
19031,86.0,0,60,7.0,64.0
19032,72.0,24,90,8.0,64.0
19033,48.0,0,90,10.0,64.0
19034,60.0,0,90,10.0,64.0
19035,89.0,96,60,0.0,64.0
19036,89.0,0,60,7.0,64.0
19037,77.0,0,60,2.0,64.0
19038,76.0,0,90,2.0,64.0
19039,55.0,0,90,3.0,64.0
19040,48.0,96,90,10.0,64.0
19041,60.0,0,90,10.0,64.0
19042,72.0,0,90,8.0,64.0
19043,88.0,0,90,7.0,64.0
19044,60.0,0,180,5.0,64.0
19045,84.0,0,180,1.0,64.0
19046,60.0,24,180,4.0,64.0
19047,48.0,0,180,4.0,64.0
19048,43.0,0,90,12.0,64.0
19049,72.0,0,180,1.0,64.0
19050,55.0,0,90,11.0,64.0
19051,88.0,0,90,0.0,64.0
19052,48.0,0,180,6.0,64.0
19053,72.0,0,180,5.0,64.0
19054,60.0,0,90,10.0,64.0
19055,48.0,0,90,10.0,64.0
19056,72.0,96,90,8.0,64.0
19057,60.0,0,90,10.0,64.0
19058,48.0,0,90,10.0,64.0
19059,86.0,24,60,0.0,64.0
19060,74.0,0,60,2.0,64.0
19061,41.0,0,90,12.0,64.0
19062,53.0,0,90,11.0,64.0
19063,53.0,120,90,3.0,64.0
19064,86.0,0,60,7.0,64.0
19065,72.0,0,90,8.0,64.0
19066,60.0,0,90,10.0,64.0
19067,72.0,0,90,8.0,64.0
19068,48.0,120,90,10.0,64.0
19069,60.0,120,90,10.0,64.0
19070,72.0,0,90,8.0,64.0
19071,48.0,0,90,10.0,64.0
19072,48.0,0,90,10.0,64.0
19073,60.0,0,90,10.0,64.0
19074,72.0,96,90,8.0,64.0
19075,60.0,0,90,10.0,64.0
19076,48.0,0,90,4.0,64.0
19077,60.0,0,90,4.0,64.0
19078,55.0,0,90,11.0,64.0
19079,48.0,0,90,10.0,64.0
19080,72.0,0,90,1.0,64.0
19081,48.0,0,90,6.0,64.0
19082,72.0,0,90,8.0,64.0
19083,55.0,120,90,3.0,64.0
19084,76.0,24,60,2.0,64.0
19085,43.0,0,90,12.0,64.0
19086,84.0,0,90,1.0,64.0
19087,72.0,0,90,5.0,64.0
19088,60.0,0,90,5.0,64.0
19089,76.0,0,60,7.0,64.0
19090,88.0,0,60,0.0,64.0
19091,72.0,0,90,8.0,64.0
19092,60.0,24,90,10.0,64.0
19093,48.0,0,90,10.0,64.0
19094,79.0,96,60,7.0,64.0
19095,91.0,0,60,0.0,64.0
19096,79.0,0,60,2.0,64.0
19097,48.0,0,180,4.0,64.0
19098,89.0,0,90,0.0,64.0
19099,48.0,0,180,6.0,64.0
19100,60.0,0,180,4.0,64.0
19101,77.0,0,90,7.0,64.0
19102,72.0,0,90,8.0,64.0
19103,48.0,0,90,10.0,64.0
19104,45.0,0,90,12.0,64.0
19105,77.0,96,90,2.0,64.0
19106,57.0,0,90,11.0,64.0
19107,72.0,0,180,1.0,64.0
19108,84.0,0,180,1.0,64.0
19109,72.0,0,180,5.0,64.0
19110,60.0,24,180,5.0,64.0
19111,57.0,0,90,3.0,64.0
19112,60.0,0,90,10.0,64.0
19113,48.0,96,90,10.0,64.0
19114,72.0,0,90,8.0,64.0
19115,60.0,0,90,10.0,64.0
19116,55.0,0,90,11.0,64.0
19117,72.0,0,90,8.0,64.0
19118,88.0,0,60,0.0,64.0
19119,76.0,24,60,2.0,64.0
19120,76.0,0,60,7.0,64.0
19121,60.0,0,90,10.0,64.0
19122,48.0,0,90,10.0,64.0
19123,43.0,0,90,12.0,64.0
19124,55.0,120,90,3.0,64.0
19125,60.0,24,90,10.0,64.0
19126,48.0,0,90,10.0,64.0
19127,72.0,0,90,8.0,64.0
19128,91.0,0,60,0.0,64.0
19129,79.0,0,60,7.0,64.0
19130,79.0,96,60,2.0,64.0
19131,72.0,0,180,1.0,64.0
19132,84.0,0,180,1.0,64.0
19133,60.0,0,180,5.0,64.0
19134,57.0,0,90,11.0,64.0
19135,45.0,0,90,12.0,64.0
19136,77.0,0,90,7.0,64.0
19137,48.0,24,180,6.0,64.0
19138,72.0,0,180,5.0,64.0
19139,89.0,0,90,0.0,64.0
19140,48.0,0,180,4.0,64.0
19141,72.0,0,90,8.0,64.0
19142,57.0,0,90,3.0,64.0
19143,60.0,0,180,4.0,64.0
19144,77.0,0,90,2.0,64.0
19145,48.0,96,90,10.0,64.0
19146,60.0,0,90,10.0,64.0
19147,72.0,96,90,8.0,64.0
19148,60.0,0,90,10.0,64.0
19149,48.0,0,90,10.0,64.0
19150,43.0,0,90,12.0,64.0
19151,48.0,0,90,10.0,64.0
19152,72.0,0,90,8.0,64.0
19153,55.0,0,90,3.0,64.0
19154,88.0,0,60,0.0,64.0
19155,55.0,120,90,11.0,64.0
19156,60.0,0,90,10.0,64.0
19157,76.0,0,60,7.0,64.0
19158,76.0,24,60,2.0,64.0
19159,72.0,24,90,8.0,64.0
19160,60.0,0,90,10.0,64.0
19161,48.0,0,90,10.0,64.0
19162,91.0,96,60,0.0,64.0
19163,79.0,0,60,2.0,64.0
19164,79.0,0,60,7.0,64.0
19165,72.0,0,180,1.0,64.0
19166,60.0,24,180,4.0,64.0
19167,57.0,0,90,11.0,64.0
19168,72.0,0,90,8.0,64.0
19169,45.0,96,90,12.0,64.0
19170,48.0,0,180,4.0,64.0
19171,48.0,0,180,6.0,64.0
19172,77.0,0,90,7.0,64.0
19173,77.0,0,90,2.0,64.0
19174,60.0,0,180,5.0,64.0
19175,84.0,0,180,1.0,64.0
19176,48.0,0,90,10.0,64.0
19177,89.0,0,90,0.0,64.0
19178,60.0,0,90,10.0,64.0
19179,72.0,0,180,5.0,64.0
19180,57.0,0,90,3.0,64.0
19181,60.0,0,90,10.0,64.0
19182,48.0,0,90,10.0,64.0
19183,72.0,96,90,8.0,64.0
19184,76.0,0,60,2.0,64.0
19185,72.0,0,90,8.0,64.0
19186,55.0,120,90,3.0,64.0
19187,60.0,0,90,10.0,64.0
19188,88.0,24,60,0.0,64.0
19189,43.0,0,90,12.0,64.0
19190,48.0,0,90,10.0,64.0
19191,55.0,0,90,11.0,64.0
19192,76.0,0,60,7.0,64.0
19193,60.0,24,90,10.0,64.0
19194,48.0,0,90,10.0,64.0
19195,72.0,0,90,8.0,64.0
19196,79.0,96,60,7.0,64.0
19197,79.0,0,60,2.0,64.0
19198,91.0,0,60,0.0,64.0
19199,72.0,0,90,5.0,64.0
19200,77.0,0,90,2.0,64.0
19201,57.0,0,90,3.0,64.0
19202,45.0,0,90,12.0,64.0
19203,60.0,0,90,5.0,64.0
19204,89.0,120,90,0.0,64.0
19205,48.0,0,90,6.0,64.0
19206,84.0,0,90,1.0,64.0
19207,60.0,0,90,10.0,64.0
19208,48.0,0,90,10.0,64.0
19209,48.0,0,90,4.0,64.0
19210,57.0,0,90,11.0,64.0
19211,72.0,0,90,8.0,64.0
19212,77.0,0,90,7.0,64.0
19213,72.0,0,90,1.0,64.0
19214,60.0,0,90,4.0,64.0
19215,60.0,0,90,10.0,64.0
19216,72.0,0,90,8.0,64.0
19217,48.0,96,90,10.0,64.0
19218,72.0,0,90,1.0,64.0
19219,60.0,0,90,4.0,64.0
19220,84.0,0,90,1.0,64.0
19221,48.0,0,90,6.0,64.0
19222,44.0,0,90,12.0,64.0
19223,56.0,120,90,11.0,64.0
19224,48.0,0,90,4.0,64.0
19225,56.0,0,90,3.0,64.0
19226,90.0,24,60,0.0,64.0
19227,78.0,0,60,2.0,64.0
19228,72.0,0,90,8.0,64.0
19229,60.0,0,90,5.0,64.0
19230,48.0,0,90,10.0,64.0
19231,60.0,0,90,10.0,64.0
19232,72.0,0,90,5.0,64.0
19233,78.0,0,60,7.0,64.0
19234,72.0,0,90,8.0,64.0
19235,48.0,144,90,10.0,64.0
19236,60.0,0,90,10.0,64.0
19237,48.0,288,390,6.0,64.0
19238,48.0,0,180,10.0,64.0
19239,60.0,0,180,10.0,64.0
19240,64.0,72,120,2.0,64.0
19241,72.0,0,180,5.0,64.0
19242,60.0,192,180,5.0,64.0
19243,79.0,0,180,7.0,64.0
19244,64.0,0,180,7.0,64.0
19245,79.0,0,180,2.0,64.0
19246,84.0,0,180,0.0,64.0
19247,55.0,0,180,3.0,64.0
19248,60.0,0,180,4.0,64.0
19249,84.0,0,180,1.0,64.0
19250,64.0,0,180,4.0,64.0
19251,48.0,0,180,4.0,64.0
19252,55.0,0,180,11.0,64.0
19253,76.0,0,180,1.0,64.0
19254,72.0,0,180,8.0,64.0
19255,88.0,0,180,0.0,64.0
19256,43.0,0,180,12.0,64.0
19257,76.0,0,180,8.0,64.0
19258,69.0,0,180,2.0,64.0
19259,48.0,288,390,6.0,64.0
19260,60.0,0,180,8.0,64.0
19261,42.0,0,180,12.0,64.0
19262,84.0,0,180,2.0,64.0
19263,48.0,0,180,10.0,64.0
19264,62.0,0,180,4.0,64.0
19265,84.0,0,180,7.0,64.0
19266,69.0,0,180,7.0,64.0
19267,54.0,0,180,11.0,64.0
19268,72.0,192,180,5.0,64.0
19269,60.0,0,180,5.0,64.0
19270,84.0,0,180,1.0,64.0
19271,74.0,0,180,1.0,64.0
19272,54.0,0,180,3.0,64.0
19273,60.0,0,180,4.0,64.0
19274,89.0,0,180,0.0,64.0
19275,83.0,0,180,0.0,64.0
19276,55.0,0,180,4.0,64.0
19277,62.0,0,180,4.0,64.0
19278,60.0,0,180,8.0,64.0
19279,74.0,0,180,7.0,64.0
19280,72.0,0,180,5.0,64.0
19281,60.0,0,180,5.0,64.0
19282,86.0,0,180,0.0,64.0
19283,48.0,288,390,6.0,64.0
19284,74.0,0,180,2.0,64.0
19285,84.0,0,180,1.0,64.0
19286,74.0,192,180,1.0,64.0
19287,84.0,0,180,0.0,64.0
19288,55.0,0,180,11.0,64.0
19289,48.0,0,180,10.0,64.0
19290,55.0,0,180,3.0,64.0
19291,43.0,0,180,12.0,64.0
19292,62.0,0,180,4.0,64.0
19293,74.0,0,180,1.0,64.0
19294,83.0,0,180,1.0,64.0
19295,83.0,0,180,0.0,64.0
19296,91.0,0,180,0.0,64.0
19297,55.0,0,180,4.0,64.0
19298,43.0,0,180,11.0,64.0
19299,79.0,0,180,2.0,64.0
19300,55.0,0,390,5.0,64.0
19301,67.0,0,180,5.0,64.0
19302,43.0,192,390,6.0,64.0
19303,31.0,192,180,12.0,64.0
19304,71.0,0,180,7.0,64.0
19305,62.0,0,180,7.0,64.0
19306,79.0,0,180,7.0,64.0
19307,43.0,0,180,3.0,64.0
19308,55.0,0,180,8.0,64.0
19309,59.0,0,180,10.0,64.0
19310,50.0,0,180,10.0,64.0
19311,67.0,0,180,2.0,64.0
19312,48.0,0,90,6.0,64.0
19313,48.0,6,8130,4.0,64.0
19314,60.0,0,8130,4.0,64.0
19315,48.0,120,90,11.0,64.0
19316,60.0,0,90,8.0,64.0
19317,48.0,0,90,11.0,64.0
19318,48.0,120,90,6.0,64.0
19319,48.0,24,90,6.0,64.0
19320,59.0,96,120,8.0,64.0
19321,48.0,0,90,11.0,64.0
19322,60.0,96,120,8.0,64.0
19323,48.0,24,90,11.0,64.0
19324,48.0,0,90,6.0,64.0
19325,48.0,0,90,11.0,64.0
19326,48.0,48,300,3.0,64.0
19327,60.0,0,300,2.0,64.0
19328,62.0,0,90,8.0,64.0
19329,48.0,120,90,6.0,64.0
19330,48.0,72,90,11.0,64.0
19331,48.0,0,90,6.0,64.0
19332,60.0,120,90,8.0,64.0
19333,48.0,0,90,11.0,64.0
19334,48.0,0,90,6.0,64.0
19335,48.0,0,90,11.0,64.0
19336,48.0,120,90,6.0,64.0
19337,59.0,72,390,8.0,64.0
19338,50.0,0,90,10.0,64.0
19339,48.0,0,90,6.0,64.0
19340,48.0,120,90,11.0,64.0
19341,65.0,0,90,7.0,64.0
19342,48.0,0,90,6.0,64.0
19343,48.0,120,90,11.0,64.0
19344,48.0,0,90,11.0,64.0
19345,64.0,24,120,7.0,64.0
19346,48.0,0,120,10.0,64.0
19347,48.0,24,90,6.0,64.0
19348,48.0,0,90,6.0,64.0
19349,65.0,96,120,7.0,64.0
19350,50.0,0,120,10.0,64.0
19351,48.0,24,90,11.0,64.0
19352,52.0,120,90,10.0,64.0
19353,59.0,0,300,2.0,64.0
19354,48.0,0,90,11.0,64.0
19355,65.0,0,300,2.0,64.0
19356,48.0,0,90,6.0,64.0
19357,67.0,0,90,7.0,64.0
19358,50.0,48,300,3.0,64.0
19359,48.0,72,90,11.0,64.0
19360,48.0,0,90,6.0,64.0
19361,48.0,120,90,6.0,64.0
19362,48.0,0,90,11.0,64.0
19363,65.0,0,90,7.0,64.0
19364,50.0,0,90,10.0,64.0
19365,48.0,120,90,11.0,64.0
19366,48.0,0,90,6.0,64.0
19367,48.0,0,390,10.0,64.0
19368,48.0,120,90,6.0,64.0
19369,48.0,0,90,11.0,64.0
19370,64.0,72,390,7.0,64.0
19371,60.0,0,90,8.0,64.0
19372,48.0,120,90,6.0,64.0
19373,48.0,0,90,11.0,64.0
19374,48.0,0,90,6.0,64.0
19375,48.0,24,90,11.0,64.0
19376,59.0,24,120,8.0,64.0
19377,48.0,24,90,6.0,64.0
19378,60.0,96,120,8.0,64.0
19379,48.0,0,90,11.0,64.0
19380,62.0,120,90,8.0,64.0
19381,60.0,0,300,2.0,64.0
19382,48.0,48,300,3.0,64.0
19383,64.0,48,240,2.0,64.0
19384,48.0,0,90,11.0,64.0
19385,48.0,0,90,6.0,64.0
19386,48.0,0,90,6.0,64.0
19387,48.0,24,90,11.0,64.0
19388,48.0,0,90,6.0,64.0
19389,48.0,0,90,11.0,64.0
19390,60.0,120,90,8.0,64.0
19391,48.0,120,90,11.0,64.0
19392,48.0,0,90,6.0,64.0
19393,48.0,120,90,11.0,64.0
19394,69.0,0,90,7.0,64.0
19395,48.0,0,90,6.0,64.0
19396,59.0,72,390,8.0,64.0
19397,53.0,0,90,10.0,64.0
19398,48.0,120,90,6.0,64.0
19399,48.0,0,90,11.0,64.0
19400,52.0,0,120,10.0,64.0
19401,48.0,0,90,6.0,64.0
19402,48.0,24,90,11.0,64.0
19403,67.0,24,120,7.0,64.0
19404,48.0,0,90,11.0,64.0
19405,53.0,96,120,10.0,64.0
19406,69.0,0,120,7.0,64.0
19407,48.0,24,90,6.0,64.0
19408,48.0,0,90,11.0,64.0
19409,60.0,0,300,2.0,64.0
19410,48.0,0,90,6.0,64.0
19411,69.0,48,300,2.0,64.0
19412,71.0,120,90,7.0,64.0
19413,55.0,0,90,10.0,64.0
19414,53.0,0,300,3.0,64.0
19415,48.0,0,90,11.0,64.0
19416,48.0,72,90,6.0,64.0
19417,53.0,120,90,10.0,64.0
19418,48.0,0,90,11.0,64.0
19419,69.0,0,90,7.0,64.0
19420,48.0,0,90,6.0,64.0
19421,48.0,0,90,11.0,64.0
19422,48.0,120,90,6.0,64.0
19423,52.0,72,390,10.0,64.0
19424,67.0,0,390,7.0,64.0
19425,48.0,120,90,11.0,64.0
19426,60.0,0,90,8.0,64.0
19427,48.0,0,90,6.0,64.0
19428,48.0,120,90,6.0,64.0
19429,48.0,0,90,11.0,64.0
19430,71.0,24,120,8.0,64.0
19431,48.0,24,90,6.0,64.0
19432,48.0,0,90,11.0,64.0
19433,48.0,0,90,11.0,64.0
19434,48.0,24,90,6.0,64.0
19435,72.0,96,120,8.0,64.0
19436,48.0,0,90,6.0,64.0
19437,48.0,120,90,11.0,64.0
19438,60.0,0,300,2.0,64.0
19439,67.0,0,300,2.0,64.0
19440,72.0,0,300,1.0,64.0
19441,52.0,48,300,3.0,64.0
19442,74.0,0,90,8.0,64.0
19443,48.0,72,90,11.0,64.0
19444,48.0,0,90,6.0,64.0
19445,48.0,0,90,6.0,64.0
19446,72.0,0,90,8.0,64.0
19447,48.0,120,90,11.0,64.0
19448,48.0,0,90,11.0,64.0
19449,48.0,120,90,6.0,64.0
19450,48.0,0,90,11.0,64.0
19451,71.0,72,390,8.0,64.0
19452,62.0,120,90,10.0,64.0
19453,77.0,0,90,7.0,64.0
19454,48.0,0,90,6.0,64.0
19455,48.0,0,90,11.0,64.0
19456,48.0,120,90,6.0,64.0
19457,48.0,24,90,11.0,64.0
19458,60.0,0,120,10.0,64.0
19459,76.0,24,120,7.0,64.0
19460,48.0,0,90,6.0,64.0
19461,48.0,0,90,6.0,64.0
19462,77.0,96,120,7.0,64.0
19463,62.0,0,120,10.0,64.0
19464,48.0,24,90,11.0,64.0
19465,71.0,0,300,1.0,64.0
19466,77.0,0,300,1.0,64.0
19467,64.0,0,90,10.0,64.0
19468,67.0,0,300,2.0,64.0
19469,48.0,0,90,11.0,64.0
19470,59.0,0,300,2.0,64.0
19471,62.0,48,300,3.0,64.0
19472,48.0,0,90,6.0,64.0
19473,79.0,120,90,7.0,64.0
19474,48.0,0,90,6.0,64.0
19475,48.0,72,90,11.0,64.0
19476,48.0,0,90,11.0,64.0
19477,62.0,120,90,10.0,64.0
19478,77.0,0,90,7.0,64.0
19479,48.0,0,90,6.0,64.0
19480,48.0,120,90,6.0,64.0
19481,48.0,0,90,11.0,64.0
19482,72.0,120,90,8.0,64.0
19483,48.0,0,90,11.0,64.0
19484,76.0,0,90,7.0,64.0
19485,48.0,0,90,6.0,64.0
19486,60.0,0,90,10.0,64.0
19487,48.0,0,90,6.0,64.0
19488,48.0,120,90,11.0,64.0
19489,74.0,96,120,7.0,64.0
19490,59.0,0,120,10.0,64.0
19491,48.0,0,90,6.0,64.0
19492,65.0,0,120,8.0,64.0
19493,48.0,24,90,11.0,64.0
19494,48.0,0,90,11.0,64.0
19495,60.0,0,120,10.0,64.0
19496,64.0,96,120,8.0,64.0
19497,76.0,0,120,7.0,64.0
19498,48.0,24,90,6.0,64.0
19499,77.0,0,90,7.0,64.0
19500,62.0,120,90,10.0,64.0
19501,60.0,0,300,2.0,64.0
19502,48.0,0,90,11.0,64.0
19503,67.0,0,300,2.0,64.0
19504,76.0,0,300,1.0,64.0
19505,72.0,48,300,1.0,64.0
19506,62.0,0,90,8.0,64.0
19507,60.0,0,300,3.0,64.0
19508,48.0,0,90,6.0,64.0
19509,48.0,0,90,6.0,64.0
19510,48.0,72,90,11.0,64.0
19511,48.0,0,90,11.0,64.0
19512,76.0,0,90,7.0,64.0
19513,64.0,0,90,8.0,64.0
19514,60.0,0,90,10.0,64.0
19515,48.0,120,90,6.0,64.0
19516,48.0,120,90,11.0,64.0
19517,48.0,0,90,6.0,64.0
19518,60.0,72,390,8.0,64.0
19519,81.0,120,90,7.0,64.0
19520,65.0,0,90,10.0,64.0
19521,48.0,0,90,11.0,64.0
19522,48.0,0,90,6.0,64.0
19523,48.0,120,90,11.0,64.0
19524,48.0,0,90,6.0,64.0
19525,64.0,24,120,10.0,64.0
19526,79.0,0,120,7.0,64.0
19527,48.0,0,90,6.0,64.0
19528,48.0,24,90,11.0,64.0
19529,48.0,24,90,6.0,64.0
19530,81.0,96,120,7.0,64.0
19531,48.0,0,90,11.0,64.0
19532,65.0,0,120,10.0,64.0
19533,48.0,0,90,11.0,64.0
19534,69.0,48,300,2.0,64.0
19535,83.0,0,90,7.0,64.0
19536,60.0,0,300,2.0,64.0
19537,81.0,0,300,1.0,64.0
19538,48.0,120,90,6.0,64.0
19539,67.0,0,90,10.0,64.0
19540,72.0,0,300,1.0,64.0
19541,65.0,0,300,3.0,64.0
19542,48.0,72,90,6.0,64.0
19543,48.0,0,90,11.0,64.0
19544,65.0,0,90,10.0,64.0
19545,48.0,0,90,6.0,64.0
19546,81.0,0,90,7.0,64.0
19547,48.0,120,90,11.0,64.0
19548,48.0,0,90,6.0,64.0
19549,48.0,120,90,11.0,64.0
19550,48.0,0,90,11.0,64.0
19551,60.0,0,90,8.0,64.0
19552,64.0,0,90,10.0,64.0
19553,72.0,0,180,1.0,64.0
19554,79.0,0,90,7.0,64.0
19555,64.0,0,90,3.0,64.0
19556,79.0,0,180,1.0,64.0
19557,60.0,24,180,2.0,64.0
19558,67.0,0,180,2.0,64.0
19559,48.0,96,90,6.0,64.0
19560,48.0,120,90,6.0,64.0
19561,48.0,0,90,11.0,64.0
19562,84.0,0,90,7.0,64.0
19563,60.0,114,90,3.0,64.0
19564,48.0,0,90,6.0,64.0
19565,76.0,0,90,8.0,64.0
19566,67.0,0,90,10.0,64.0
19567,48.0,0,90,11.0,64.0
19568,48.0,0,90,11.0,64.0
19569,48.0,120,90,6.0,64.0
19570,74.0,0,180,1.0,64.0
19571,83.0,0,240,7.0,64.0
19572,83.0,0,180,1.0,64.0
19573,60.0,0,900,4.0,64.0
19574,65.0,24,180,2.0,64.0
19575,74.0,0,240,8.0,64.0
19576,48.0,36,900,4.0,64.0
19577,48.0,96,90,3.0,64.0
19578,65.0,96,240,10.0,64.0
19579,48.0,0,90,6.0,64.0
19580,48.0,0,90,11.0,64.0
19581,48.0,0,90,11.0,64.0
19582,48.0,24,90,6.0,64.0
19583,76.0,0,120,8.0,64.0
19584,48.0,0,90,6.0,64.0
19585,67.0,96,120,10.0,64.0
19586,48.0,24,90,11.0,64.0
19587,60.0,0,90,3.0,64.0
19588,81.0,0,120,7.0,64.0
19589,83.0,0,120,7.0,64.0
19590,48.0,0,90,6.0,64.0
19591,74.0,96,120,8.0,64.0
19592,65.0,0,120,10.0,64.0
19593,48.0,24,90,11.0,64.0
19594,72.0,0,180,1.0,64.0
19595,84.0,24,180,1.0,64.0
19596,48.0,0,90,11.0,64.0
19597,48.0,0,90,6.0,64.0
19598,72.0,0,90,8.0,64.0
19599,84.0,64,90,7.0,64.0
19600,48.0,0,90,3.0,64.0
19601,64.0,0,90,10.0,64.0
19602,64.0,32,150,2.0,64.0
19603,48.0,0,90,6.0,64.0
19604,48.0,120,90,11.0,64.0
19605,76.0,0,90,8.0,64.0
19606,48.0,0,90,6.0,64.0
19607,79.0,0,90,7.0,64.0
19608,60.0,0,90,3.0,64.0
19609,48.0,0,90,11.0,64.0
19610,72.0,84,90,10.0,64.0
19611,48.0,120,90,6.0,64.0
19612,48.0,0,90,11.0,64.0
19613,48.0,96,90,3.0,64.0
19614,77.0,0,240,8.0,64.0
19615,77.0,0,180,1.0,64.0
19616,81.0,0,180,1.0,64.0
19617,48.0,6,930,4.0,64.0
19618,48.0,0,90,6.0,64.0
19619,60.0,0,930,4.0,64.0
19620,48.0,0,90,11.0,64.0
19621,71.0,24,180,2.0,64.0
19622,81.0,0,240,7.0,64.0
19623,48.0,0,90,11.0,64.0
19624,48.0,24,90,6.0,64.0
19625,60.0,0,90,3.0,64.0
19626,71.0,96,15,10.0,64.0
19627,48.0,24,90,11.0,64.0
19628,48.0,0,90,6.0,64.0
19629,79.0,96,120,8.0,64.0
19630,83.0,0,120,7.0,64.0
19631,81.0,0,120,7.0,64.0
19632,77.0,96,120,8.0,64.0
19633,48.0,0,90,6.0,64.0
19634,48.0,24,90,11.0,64.0
19635,79.0,0,90,7.0,64.0
19636,48.0,0,90,3.0,64.0
19637,48.0,96,90,11.0,64.0
19638,79.0,0,180,1.0,64.0
19639,48.0,0,90,6.0,64.0
19640,72.0,0,90,10.0,64.0
19641,76.0,0,180,1.0,64.0
19642,72.0,24,180,2.0,64.0
19643,76.0,0,90,8.0,64.0
19644,48.0,120,90,6.0,64.0
19645,48.0,0,90,11.0,64.0
19646,60.0,114,90,3.0,64.0
19647,48.0,0,90,11.0,64.0
19648,84.0,0,90,7.0,64.0
19649,48.0,0,90,6.0,64.0
19650,67.0,0,90,10.0,64.0
19651,76.0,0,90,8.0,64.0
19652,48.0,120,90,11.0,64.0
19653,48.0,0,90,6.0,64.0
19654,65.0,0,180,2.0,64.0
19655,83.0,0,240,7.0,64.0
19656,60.0,36,900,4.0,64.0
19657,48.0,96,90,3.0,64.0
19658,65.0,96,240,10.0,64.0
19659,48.0,0,90,6.0,64.0
19660,74.0,24,180,1.0,64.0
19661,48.0,0,90,11.0,64.0
19662,74.0,0,240,8.0,64.0
19663,48.0,0,900,4.0,64.0
19664,83.0,0,180,1.0,64.0
19665,48.0,0,90,11.0,64.0
19666,48.0,24,90,6.0,64.0
19667,48.0,24,90,11.0,64.0
19668,48.0,0,90,6.0,64.0
19669,67.0,0,120,10.0,64.0
19670,81.0,96,120,7.0,64.0
19671,76.0,0,120,8.0,64.0
19672,60.0,0,90,3.0,64.0
19673,65.0,96,120,10.0,64.0
19674,48.0,24,90,11.0,64.0
19675,74.0,0,120,8.0,64.0
19676,83.0,0,120,7.0,64.0
19677,48.0,0,90,6.0,64.0
19678,48.0,96,90,6.0,64.0
19679,72.0,24,180,1.0,64.0
19680,84.0,0,180,1.0,64.0
19681,48.0,0,90,11.0,64.0
19682,48.0,0,90,3.0,64.0
19683,64.0,0,180,2.0,64.0
19684,64.0,0,90,10.0,64.0
19685,72.0,0,90,8.0,64.0
19686,84.0,0,90,7.0,64.0
19687,48.0,120,90,11.0,64.0
19688,48.0,0,90,10.0,64.0
19689,48.0,0,90,6.0,64.0
19690,60.0,0,90,10.0,64.0
19691,79.0,0,90,7.0,64.0
19692,60.0,0,90,3.0,64.0
19693,76.0,0,90,8.0,64.0
19694,48.0,0,90,6.0,64.0
19695,48.0,0,90,10.0,64.0
19696,60.0,0,90,10.0,64.0
19697,48.0,84,90,11.0,64.0
19698,48.0,0,90,10.0,64.0
19699,60.0,0,90,10.0,64.0
19700,48.0,0,90,11.0,64.0
19701,48.0,120,90,6.0,64.0
19702,77.0,0,240,8.0,64.0
19703,48.0,0,90,6.0,64.0
19704,48.0,96,90,10.0,64.0
19705,60.0,0,90,10.0,64.0
19706,77.0,0,180,1.0,64.0
19707,81.0,24,180,1.0,64.0
19708,81.0,96,240,7.0,64.0
19709,48.0,0,930,4.0,64.0
19710,72.0,0,180,2.0,64.0
19711,48.0,0,90,3.0,64.0
19712,60.0,6,930,4.0,64.0
19713,48.0,0,90,11.0,64.0
19714,48.0,24,90,6.0,64.0
19715,48.0,0,90,10.0,64.0
19716,48.0,0,90,11.0,64.0
19717,60.0,0,90,10.0,64.0
19718,79.0,0,120,8.0,64.0
19719,60.0,0,90,10.0,64.0
19720,48.0,0,90,6.0,64.0
19721,60.0,24,90,3.0,64.0
19722,48.0,0,90,10.0,64.0
19723,83.0,96,120,7.0,64.0
19724,48.0,0,90,11.0,64.0
19725,60.0,0,90,10.0,64.0
19726,48.0,24,90,10.0,64.0
19727,77.0,0,120,8.0,64.0
19728,48.0,0,90,11.0,64.0
19729,81.0,96,120,7.0,64.0
19730,48.0,0,90,6.0,64.0
19731,77.0,0,180,1.0,64.0
19732,74.0,0,180,1.0,64.0
19733,48.0,0,90,3.0,64.0
19734,83.0,0,90,7.0,64.0
19735,48.0,0,90,6.0,64.0
19736,48.0,0,90,11.0,64.0
19737,83.0,24,180,0.0,64.0
19738,48.0,0,90,10.0,64.0
19739,60.0,0,90,10.0,64.0
19740,74.0,96,90,8.0,64.0
19741,48.0,0,90,10.0,64.0
19742,48.0,120,90,6.0,64.0
19743,60.0,0,90,10.0,64.0
19744,48.0,0,90,11.0,64.0
19745,88.0,0,90,7.0,64.0
19746,60.0,114,90,10.0,64.0
19747,60.0,0,90,3.0,64.0
19748,48.0,0,90,10.0,64.0
19749,79.0,0,90,8.0,64.0
19750,48.0,0,90,11.0,64.0
19751,48.0,0,90,6.0,64.0
19752,48.0,0,90,11.0,64.0
19753,48.0,0,90,10.0,64.0
19754,60.0,120,90,10.0,64.0
19755,48.0,0,90,6.0,64.0
19756,77.0,0,180,1.0,64.0
19757,48.0,0,90,6.0,64.0
19758,86.0,96,240,7.0,64.0
19759,74.0,0,180,1.0,64.0
19760,77.0,0,240,8.0,64.0
19761,48.0,0,900,4.0,64.0
19762,60.0,36,900,4.0,64.0
19763,48.0,0,90,3.0,64.0
19764,60.0,0,90,10.0,64.0
19765,48.0,96,90,10.0,64.0
19766,86.0,24,180,0.0,64.0
19767,48.0,0,90,11.0,64.0
19768,48.0,0,90,6.0,64.0
19769,48.0,24,90,11.0,64.0
19770,60.0,0,90,10.0,64.0
19771,48.0,0,90,10.0,64.0
19772,60.0,0,90,10.0,64.0
19773,48.0,0,90,10.0,64.0
19774,60.0,0,90,3.0,64.0
19775,48.0,24,90,11.0,64.0
19776,48.0,0,90,6.0,64.0
19777,79.0,96,120,8.0,64.0
19778,88.0,0,120,7.0,64.0
19779,48.0,0,90,10.0,64.0
19780,60.0,24,90,10.0,64.0
19781,48.0,0,90,11.0,64.0
19782,86.0,0,120,7.0,64.0
19783,48.0,0,90,6.0,64.0
19784,77.0,96,120,8.0,64.0
19785,48.0,0,90,3.0,64.0
19786,48.0,96,90,10.0,64.0
19787,88.0,0,90,7.0,64.0
19788,79.0,0,90,8.0,64.0
19789,79.0,0,180,1.0,64.0
19790,76.0,0,180,1.0,64.0
19791,88.0,24,180,0.0,64.0
19792,48.0,0,90,11.0,64.0
19793,48.0,0,90,6.0,64.0
19794,60.0,0,90,10.0,64.0
19795,48.0,0,90,10.0,64.0
19796,60.0,120,90,10.0,64.0
19797,48.0,0,90,6.0,64.0
19798,48.0,0,90,11.0,64.0
19799,76.0,84,90,8.0,64.0
19800,60.0,0,90,3.0,64.0
19801,48.0,0,90,10.0,64.0
19802,60.0,0,90,10.0,64.0
19803,84.0,0,90,7.0,64.0
19804,48.0,0,90,11.0,64.0
19805,48.0,0,90,6.0,64.0
19806,48.0,0,90,11.0,64.0
19807,48.0,0,90,6.0,64.0
19808,60.0,0,90,10.0,64.0
19809,48.0,120,90,10.0,64.0
19810,76.0,96,240,8.0,64.0
19811,48.0,96,90,6.0,64.0
19812,84.0,24,180,0.0,64.0
19813,48.0,0,90,11.0,64.0
19814,84.0,0,240,7.0,64.0
19815,72.0,0,180,1.0,64.0
19816,60.0,6,930,4.0,64.0
19817,48.0,0,930,4.0,64.0
19818,76.0,0,180,1.0,64.0
19819,48.0,0,90,10.0,64.0
19820,60.0,0,90,10.0,64.0
19821,48.0,0,90,3.0,64.0
19822,48.0,24,90,6.0,64.0
19823,60.0,0,90,10.0,64.0
19824,48.0,0,90,10.0,64.0
19825,48.0,0,90,11.0,64.0
19826,86.0,0,120,7.0,64.0
19827,60.0,0,90,10.0,64.0
19828,48.0,0,90,10.0,64.0
19829,77.0,96,120,8.0,64.0
19830,60.0,24,90,3.0,64.0
19831,48.0,0,90,6.0,64.0
19832,48.0,0,90,11.0,64.0
19833,76.0,0,120,8.0,64.0
19834,84.0,96,120,7.0,64.0
19835,48.0,24,90,11.0,64.0
19836,60.0,0,90,10.0,64.0
19837,48.0,0,90,10.0,64.0
19838,48.0,0,90,6.0,64.0
19839,48.0,96,90,3.0,64.0
19840,74.0,0,90,8.0,64.0
19841,83.0,0,180,0.0,64.0
19842,60.0,0,90,10.0,64.0
19843,83.0,0,90,7.0,64.0
19844,77.0,24,180,1.0,64.0
19845,74.0,0,180,1.0,64.0
19846,48.0,0,90,11.0,64.0
19847,48.0,0,90,6.0,64.0
19848,48.0,0,90,10.0,64.0
19849,48.0,0,90,11.0,64.0
19850,48.0,0,90,6.0,64.0
19851,60.0,0,90,10.0,64.0
19852,48.0,120,90,10.0,64.0
19853,48.0,0,90,11.0,64.0
19854,60.0,0,90,3.0,64.0
19855,88.0,0,90,7.0,64.0
19856,79.0,0,90,8.0,64.0
19857,48.0,114,90,10.0,64.0
19858,60.0,0,90,10.0,64.0
19859,48.0,0,90,6.0,64.0
19860,48.0,120,90,11.0,64.0
19861,48.0,0,90,6.0,64.0
19862,60.0,0,90,10.0,64.0
19863,48.0,0,90,10.0,64.0
19864,77.0,96,240,8.0,64.0
19865,48.0,96,90,3.0,64.0
19866,48.0,0,90,6.0,64.0
19867,74.0,0,180,1.0,64.0
19868,48.0,0,90,10.0,64.0
19869,60.0,0,90,10.0,64.0
19870,86.0,0,240,7.0,64.0
19871,48.0,0,90,11.0,64.0
19872,60.0,0,900,4.0,64.0
19873,48.0,36,900,4.0,64.0
19874,86.0,0,180,0.0,64.0
19875,77.0,24,180,1.0,64.0
19876,48.0,0,90,11.0,64.0
19877,48.0,0,90,10.0,64.0
19878,60.0,0,90,10.0,64.0
19879,48.0,24,90,6.0,64.0
19880,88.0,0,120,7.0,64.0
19881,48.0,0,90,11.0,64.0
19882,60.0,24,90,10.0,64.0
19883,48.0,0,90,10.0,64.0
19884,48.0,0,90,6.0,64.0
19885,60.0,0,90,3.0,64.0
19886,79.0,96,120,8.0,64.0
19887,86.0,96,120,7.0,64.0
19888,48.0,0,90,6.0,64.0
19889,60.0,24,90,10.0,64.0
19890,48.0,0,90,11.0,64.0
19891,48.0,0,90,10.0,64.0
19892,77.0,0,120,8.0,64.0
19893,79.0,0,90,8.0,64.0
19894,48.0,96,90,6.0,64.0
19895,48.0,0,90,10.0,64.0
19896,79.0,0,180,1.0,64.0
19897,60.0,0,90,10.0,64.0
19898,88.0,0,90,7.0,64.0
19899,48.0,0,90,3.0,64.0
19900,76.0,0,180,1.0,64.0
19901,48.0,0,90,11.0,64.0
19902,88.0,24,180,0.0,64.0
19903,48.0,120,90,11.0,64.0
19904,48.0,0,90,10.0,64.0
19905,48.0,0,90,6.0,64.0
19906,60.0,0,90,10.0,64.0
19907,60.0,0,90,10.0,64.0
19908,84.0,0,90,7.0,64.0
19909,48.0,0,90,10.0,64.0
19910,60.0,0,90,3.0,64.0
19911,48.0,0,90,11.0,64.0
19912,48.0,84,90,6.0,64.0
19913,76.0,0,90,8.0,64.0
19914,48.0,0,90,11.0,64.0
19915,48.0,120,90,10.0,64.0
19916,60.0,0,90,10.0,64.0
19917,48.0,0,90,6.0,64.0
19918,48.0,0,90,11.0,64.0
19919,84.0,0,180,0.0,64.0
19920,48.0,0,930,4.0,64.0
19921,84.0,96,240,7.0,64.0
19922,48.0,0,90,3.0,64.0
19923,48.0,0,90,10.0,64.0
19924,60.0,0,90,10.0,64.0
19925,76.0,0,180,1.0,64.0
19926,72.0,24,180,1.0,64.0
19927,76.0,0,240,8.0,64.0
19928,60.0,6,930,4.0,64.0
19929,48.0,96,90,6.0,64.0
19930,48.0,0,90,6.0,64.0
19931,48.0,0,90,11.0,64.0
19932,60.0,0,90,10.0,64.0
19933,48.0,24,90,10.0,64.0
19934,77.0,96,120,8.0,64.0
19935,48.0,0,90,11.0,64.0
19936,86.0,0,120,7.0,64.0
19937,48.0,0,90,6.0,64.0
19938,60.0,0,90,3.0,64.0
19939,60.0,0,90,10.0,64.0
19940,48.0,24,90,10.0,64.0
19941,60.0,0,90,10.0,64.0
19942,48.0,0,90,11.0,64.0
19943,76.0,96,120,8.0,64.0
19944,84.0,0,120,7.0,64.0
19945,48.0,0,90,6.0,64.0
19946,48.0,24,90,10.0,64.0
19947,48.0,0,90,3.0,64.0
19948,48.0,0,90,10.0,64.0
19949,60.0,0,180,5.0,64.0
19950,72.0,0,180,5.0,64.0
19951,71.0,0,180,1.0,64.0
19952,60.0,0,90,10.0,64.0
19953,74.0,0,180,1.0,64.0
19954,83.0,24,180,0.0,64.0
19955,86.0,0,180,0.0,64.0
19956,71.0,0,90,8.0,64.0
19957,48.0,0,90,6.0,64.0
19958,48.0,0,90,11.0,64.0
19959,74.0,96,90,7.0,64.0
19960,48.0,120,90,6.0,64.0
19961,48.0,0,90,11.0,64.0
19962,48.0,0,90,10.0,64.0
19963,60.0,0,90,10.0,64.0
19964,48.0,0,90,10.0,64.0
19965,60.0,0,90,10.0,64.0
19966,76.0,0,90,8.0,64.0
19967,79.0,0,90,7.0,64.0
19968,48.0,0,90,11.0,64.0
19969,60.0,0,90,3.0,64.0
19970,48.0,114,90,6.0,64.0
19971,48.0,120,90,6.0,64.0
19972,48.0,0,90,10.0,64.0
19973,60.0,0,90,10.0,64.0
19974,48.0,0,90,11.0,64.0
19975,48.0,0,90,11.0,64.0
19976,74.0,96,240,8.0,64.0
19977,48.0,0,90,3.0,64.0
19978,60.0,0,180,5.0,64.0
19979,77.0,0,240,7.0,64.0
19980,72.0,0,180,5.0,64.0
19981,48.0,0,900,4.0,64.0
19982,89.0,24,180,0.0,64.0
19983,74.0,0,180,1.0,64.0
19984,77.0,0,180,1.0,64.0
19985,60.0,96,90,10.0,64.0
19986,48.0,0,90,10.0,64.0
19987,48.0,0,90,6.0,64.0
19988,60.0,36,900,4.0,64.0
19989,86.0,0,180,0.0,64.0
19990,48.0,0,90,10.0,64.0
19991,60.0,0,90,10.0,64.0
19992,48.0,24,90,11.0,64.0
19993,48.0,0,90,6.0,64.0
19994,60.0,0,90,10.0,64.0
19995,48.0,24,90,10.0,64.0
19996,48.0,0,90,6.0,64.0
19997,48.0,0,90,11.0,64.0
19998,60.0,0,90,3.0,64.0
19999,76.0,0,120,8.0,64.0
20000,79.0,96,120,7.0,64.0
20001,48.0,0,90,10.0,64.0
20002,60.0,0,90,10.0,64.0
20003,77.0,96,120,7.0,64.0
20004,48.0,0,90,11.0,64.0
20005,74.0,0,120,8.0,64.0
20006,48.0,24,90,6.0,64.0
20007,60.0,0,90,10.0,64.0
20008,76.0,96,90,8.0,64.0
20009,48.0,0,90,6.0,64.0
20010,76.0,0,180,1.0,64.0
20011,79.0,24,180,1.0,64.0
20012,48.0,0,90,11.0,64.0
20013,48.0,0,90,10.0,64.0
20014,88.0,0,180,0.0,64.0
20015,91.0,0,180,0.0,64.0
20016,72.0,0,390,5.0,64.0
20017,79.0,0,90,7.0,64.0
20018,60.0,36,390,5.0,64.0
20019,48.0,0,90,3.0,64.0
20020,48.0,120,90,6.0,64.0
20021,48.0,0,90,10.0,64.0
20022,60.0,0,90,10.0,64.0
20023,48.0,0,90,11.0,64.0
20024,76.0,0,90,7.0,64.0
20025,72.0,48,90,8.0,64.0
20026,60.0,0,90,10.0,64.0
20027,48.0,0,90,11.0,64.0
20028,60.0,0,90,3.0,64.0
20029,48.0,0,90,10.0,64.0
20030,48.0,0,90,6.0,64.0
20031,48.0,0,90,10.0,64.0
20032,60.0,120,90,10.0,64.0
20033,48.0,0,90,11.0,64.0
20034,48.0,0,90,6.0,64.0
20035,60.0,6,930,4.0,64.0
20036,60.0,0,90,10.0,64.0
20037,48.0,0,90,11.0,64.0
20038,84.0,0,180,0.0,64.0
20039,88.0,24,180,0.0,64.0
20040,48.0,0,90,6.0,64.0
20041,72.0,96,240,8.0,64.0
20042,48.0,0,90,10.0,64.0
20043,76.0,0,180,1.0,64.0
20044,48.0,0,930,4.0,64.0
20045,72.0,0,180,1.0,64.0
20046,72.0,72,390,5.0,64.0
20047,60.0,0,390,5.0,64.0
20048,48.0,96,90,3.0,64.0
20049,76.0,0,240,7.0,64.0
20050,48.0,24,90,10.0,64.0
20051,48.0,0,90,6.0,64.0
20052,60.0,0,90,10.0,64.0
20053,48.0,0,90,11.0,64.0
20054,48.0,0,90,6.0,64.0
20055,74.0,0,120,8.0,64.0
20056,60.0,0,90,3.0,64.0
20057,48.0,24,90,11.0,64.0
20058,77.0,24,120,7.0,64.0
20059,48.0,0,90,10.0,64.0
20060,60.0,0,90,10.0,64.0
20061,76.0,0,120,7.0,64.0
20062,48.0,24,90,6.0,64.0
20063,72.0,96,120,8.0,64.0
20064,48.0,0,90,10.0,64.0
20065,60.0,0,90,10.0,64.0
20066,48.0,0,90,11.0,64.0
20067,74.0,0,90,7.0,64.0
20068,72.0,66,390,5.0,64.0
20069,48.0,0,90,3.0,64.0
20070,74.0,0,180,1.0,64.0
20071,48.0,0,90,6.0,64.0
20072,83.0,0,180,0.0,64.0
20073,71.0,0,90,8.0,64.0
20074,48.0,0,90,11.0,64.0
20075,60.0,0,390,5.0,64.0
20076,71.0,0,180,1.0,64.0
20077,86.0,24,180,0.0,64.0
20078,60.0,96,90,10.0,64.0
20079,48.0,0,90,10.0,64.0
20080,60.0,0,90,10.0,64.0
20081,48.0,0,90,6.0,64.0
20082,48.0,120,90,11.0,64.0
20083,48.0,0,90,10.0,64.0
20084,48.0,48,90,6.0,64.0
20085,48.0,0,90,10.0,64.0
20086,60.0,0,90,3.0,64.0
20087,76.0,0,90,8.0,64.0
20088,60.0,0,90,10.0,64.0
20089,79.0,0,90,7.0,64.0
20090,48.0,0,90,11.0,64.0
20091,48.0,120,90,11.0,64.0
20092,60.0,0,90,10.0,64.0
20093,48.0,0,90,6.0,64.0
20094,48.0,0,90,10.0,64.0
20095,48.0,0,90,3.0,64.0
20096,77.0,0,240,7.0,64.0
20097,48.0,0,90,11.0,64.0
20098,89.0,24,180,0.0,64.0
20099,48.0,0,90,10.0,64.0
20100,60.0,0,90,10.0,64.0
20101,48.0,0,90,6.0,64.0
20102,74.0,96,240,8.0,64.0
20103,86.0,0,180,0.0,64.0
20104,72.0,0,390,5.0,64.0
20105,48.0,0,900,4.0,64.0
20106,60.0,36,900,4.0,64.0
20107,74.0,0,180,1.0,64.0
20108,60.0,72,390,5.0,64.0
20109,77.0,0,180,1.0,64.0
20110,48.0,24,90,11.0,64.0
20111,48.0,0,90,6.0,64.0
20112,48.0,0,90,10.0,64.0
20113,60.0,0,90,10.0,64.0
20114,60.0,0,90,10.0,64.0
20115,48.0,0,90,6.0,64.0
20116,48.0,0,90,10.0,64.0
20117,48.0,0,90,11.0,64.0
20118,60.0,24,90,3.0,64.0
20119,79.0,0,120,7.0,64.0
20120,76.0,24,120,8.0,64.0
20121,77.0,0,120,7.0,64.0
20122,60.0,0,90,10.0,64.0
20123,48.0,0,90,11.0,64.0
20124,48.0,24,90,6.0,64.0
20125,48.0,0,90,10.0,64.0
20126,74.0,96,120,8.0,64.0
20127,48.0,0,90,6.0,64.0
20128,48.0,0,90,11.0,64.0
20129,76.0,0,120,8.0,64.0
20130,76.0,0,180,1.0,64.0
20131,79.0,24,180,1.0,64.0
20132,79.0,78,120,7.0,64.0
20133,64.0,0,90,10.0,64.0
20134,60.0,36,390,5.0,64.0
20135,91.0,0,180,0.0,64.0
20136,88.0,0,180,0.0,64.0
20137,72.0,0,390,5.0,64.0
20138,48.0,18,90,3.0,64.0
20139,76.0,0,90,8.0,64.0
20140,48.0,120,90,6.0,64.0
20141,48.0,0,90,11.0,64.0
20142,60.0,0,90,10.0,64.0
20143,62.0,0,90,10.0,64.0
20144,60.0,0,90,3.0,64.0
20145,48.0,0,90,6.0,64.0
20146,77.0,0,90,8.0,64.0
20147,48.0,48,90,11.0,64.0
20148,48.0,0,90,11.0,64.0
20149,79.0,72,90,8.0,64.0
20150,64.0,0,90,10.0,64.0
20151,48.0,0,90,6.0,64.0
20152,60.0,0,1620,3.0,64.0
20153,65.0,0,90,10.0,64.0
20154,29.0,12,90,12.0,64.0
20155,69.0,0,90,8.0,64.0
20156,72.0,0,1260,5.0,64.0
20157,93.0,0,1380,0.0,64.0
20158,60.0,48,1260,5.0,64.0
20159,77.0,36,1380,1.0,64.0
20160,81.0,0,1380,1.0,64.0
20161,48.0,48,60,6.0,64.0
20162,89.0,0,1380,0.0,64.0
20163,65.0,24,1620,4.0,64.0
20164,72.0,0,1380,2.0,64.0
20165,69.0,0,1380,2.0,64.0
20166,84.0,0,1260,7.0,64.0
20167,48.0,0,90,11.0,64.0
20168,41.0,0,90,11.0,64.0
20169,57.0,0,1620,3.0,64.0
20170,48.0,60,60,6.0,64.0
20171,81.0,0,90,8.0,64.0
20172,48.0,48,60,6.0,64.0
20173,65.0,0,90,10.0,64.0
20174,48.0,0,90,11.0,64.0
20175,41.0,0,90,11.0,64.0
20176,29.0,12,90,12.0,64.0
20177,48.0,60,60,6.0,64.0
20178,41.0,0,90,11.0,64.0
20179,81.0,0,90,8.0,64.0
20180,29.0,0,90,12.0,64.0
20181,65.0,0,90,10.0,64.0
20182,48.0,12,90,11.0,64.0
20183,48.0,48,60,6.0,64.0
20184,48.0,60,60,6.0,64.0
20185,48.0,0,90,11.0,64.0
20186,81.0,0,90,8.0,64.0
20187,41.0,12,90,11.0,64.0
20188,29.0,0,90,12.0,64.0
20189,48.0,48,60,6.0,64.0
20190,65.0,0,90,10.0,64.0
20191,48.0,60,60,6.0,64.0
20192,29.0,0,90,12.0,64.0
20193,48.0,48,60,6.0,64.0
20194,69.0,0,90,8.0,64.0
20195,81.0,0,90,8.0,64.0
20196,41.0,0,90,11.0,64.0
20197,48.0,0,90,11.0,64.0
20198,65.0,12,90,10.0,64.0
20199,48.0,60,60,6.0,64.0
20200,81.0,0,90,8.0,64.0
20201,29.0,12,90,12.0,64.0
20202,41.0,0,90,11.0,64.0
20203,48.0,0,90,11.0,64.0
20204,65.0,0,90,10.0,64.0
20205,48.0,48,60,6.0,64.0
20206,69.0,0,90,8.0,64.0
20207,48.0,60,60,6.0,64.0
20208,48.0,48,60,6.0,64.0
20209,29.0,12,90,12.0,64.0
20210,81.0,0,90,8.0,64.0
20211,69.0,0,90,8.0,64.0
20212,65.0,0,90,10.0,64.0
20213,48.0,0,90,11.0,64.0
20214,41.0,0,90,11.0,64.0
20215,48.0,60,60,6.0,64.0
20216,29.0,0,90,12.0,64.0
20217,48.0,48,60,6.0,64.0
20218,69.0,0,90,8.0,64.0
20219,81.0,0,90,8.0,64.0
20220,48.0,0,90,11.0,64.0
20221,41.0,12,90,11.0,64.0
20222,65.0,0,90,10.0,64.0
20223,48.0,60,60,6.0,64.0
20224,29.0,0,90,12.0,64.0
20225,81.0,0,90,8.0,64.0
20226,41.0,0,90,11.0,64.0
20227,48.0,0,90,11.0,64.0
20228,48.0,48,60,6.0,64.0
20229,65.0,0,90,10.0,64.0
20230,69.0,12,90,8.0,64.0
20231,48.0,60,60,6.0,64.0
20232,81.0,0,90,8.0,64.0
20233,69.0,0,90,8.0,64.0
20234,29.0,12,90,12.0,64.0
20235,41.0,0,90,11.0,64.0
20236,48.0,48,60,6.0,64.0
20237,48.0,0,90,11.0,64.0
20238,65.0,0,90,10.0,64.0
20239,48.0,60,60,6.0,64.0
20240,69.0,0,90,8.0,64.0
20241,48.0,0,60,6.0,64.0
20242,65.0,0,90,10.0,64.0
20243,81.0,0,90,8.0,64.0
20244,41.0,12,90,11.0,64.0
20245,48.0,0,90,11.0,64.0
20246,29.0,0,90,12.0,64.0
20247,48.0,60,60,6.0,64.0
20248,65.0,0,90,10.0,64.0
20249,81.0,0,90,8.0,64.0
20250,69.0,0,90,8.0,64.0
20251,29.0,0,90,12.0,64.0
20252,48.0,0,90,11.0,64.0
20253,41.0,12,90,11.0,64.0
20254,48.0,12,60,6.0,64.0
20255,48.0,60,60,6.0,64.0
20256,81.0,0,240,7.0,64.0
20257,29.0,0,90,12.0,64.0
20258,77.0,48,780,5.0,64.0
20259,81.0,0,90,8.0,64.0
20260,69.0,12,90,8.0,64.0
20261,48.0,0,90,11.0,64.0
20262,89.0,48,240,0.0,64.0
20263,77.0,0,240,0.0,64.0
20264,65.0,0,90,10.0,64.0
20265,41.0,0,90,11.0,64.0
20266,48.0,48,60,6.0,64.0
20267,48.0,60,60,6.0,64.0
20268,48.0,0,90,11.0,64.0
20269,29.0,0,90,12.0,64.0
20270,41.0,12,90,11.0,64.0
20271,65.0,0,90,10.0,64.0
20272,69.0,0,90,8.0,64.0
20273,81.0,0,90,8.0,64.0
20274,48.0,24,60,6.0,64.0
20275,48.0,12,60,6.0,64.0
20276,79.0,0,120,0.0,64.0
20277,65.0,0,90,10.0,64.0
20278,48.0,48,60,6.0,64.0
20279,69.0,0,90,8.0,64.0
20280,91.0,48,120,0.0,64.0
20281,82.0,0,120,7.0,64.0
20282,48.0,0,90,11.0,64.0
20283,81.0,0,90,8.0,64.0
20284,41.0,12,90,11.0,64.0
20285,29.0,0,90,12.0,64.0
20286,48.0,12,60,6.0,64.0
20287,41.0,12,90,11.0,64.0
20288,48.0,0,90,11.0,64.0
20289,93.0,0,120,0.0,64.0
20290,48.0,48,60,6.0,64.0
20291,84.0,48,120,7.0,64.0
20292,81.0,0,120,0.0,64.0
20293,29.0,0,90,12.0,64.0
20294,65.0,0,90,10.0,64.0
20295,69.0,0,90,8.0,64.0
20296,81.0,0,90,8.0,64.0
20297,48.0,12,60,6.0,64.0
20298,70.0,0,90,8.0,64.0
20299,41.0,12,90,11.0,64.0
20300,48.0,0,90,11.0,64.0
20301,82.0,0,90,8.0,64.0
20302,65.0,0,390,4.0,64.0
20303,70.0,0,390,2.0,64.0
20304,74.0,0,390,2.0,64.0
20305,86.0,0,90,0.0,64.0
20306,77.0,0,390,1.0,64.0
20307,82.0,0,390,1.0,64.0
20308,74.0,0,90,0.0,64.0
20309,65.0,0,90,10.0,64.0
20310,29.0,0,90,12.0,64.0
20311,48.0,48,60,6.0,64.0
20312,58.0,24,390,3.0,64.0
20313,62.0,0,390,3.0,64.0
20314,86.0,0,90,7.0,64.0
20315,48.0,60,60,6.0,64.0
20316,70.0,0,90,8.0,64.0
20317,48.0,0,90,11.0,64.0
20318,29.0,0,90,12.0,64.0
20319,65.0,0,90,10.0,64.0
20320,41.0,0,90,11.0,64.0
20321,82.0,12,90,8.0,64.0
20322,48.0,48,60,6.0,64.0
20323,48.0,60,60,6.0,64.0
20324,86.0,0,90,0.0,64.0
20325,74.0,0,90,0.0,64.0
20326,65.0,0,90,10.0,64.0
20327,29.0,0,90,12.0,64.0
20328,48.0,0,60,6.0,64.0
20329,48.0,0,90,11.0,64.0
20330,82.0,0,90,8.0,64.0
20331,70.0,0,90,8.0,64.0
20332,41.0,12,90,11.0,64.0
20333,86.0,0,90,7.0,64.0
20334,48.0,36,60,6.0,64.0
20335,82.0,12,90,8.0,64.0
20336,41.0,0,90,11.0,64.0
20337,48.0,0,90,11.0,64.0
20338,29.0,0,90,12.0,64.0
20339,65.0,0,90,10.0,64.0
20340,48.0,48,60,6.0,64.0
20341,70.0,0,90,8.0,64.0
20342,48.0,60,60,6.0,64.0
20343,48.0,48,60,6.0,64.0
20344,67.0,0,390,4.0,64.0
20345,70.0,0,90,8.0,64.0
20346,76.0,0,240,0.0,64.0
20347,60.0,0,390,4.0,64.0
20348,88.0,48,240,0.0,64.0
20349,58.0,0,390,3.0,64.0
20350,67.0,12,90,8.0,64.0
20351,76.0,0,390,5.0,64.0
20352,72.0,0,390,5.0,64.0
20353,48.0,0,90,11.0,64.0
20354,82.0,0,390,1.0,64.0
20355,70.0,24,390,2.0,64.0
20356,76.0,0,390,2.0,64.0
20357,79.0,0,390,1.0,64.0
20358,79.0,0,240,7.0,64.0
20359,62.0,0,390,3.0,64.0
20360,48.0,60,60,6.0,64.0
20361,48.0,0,90,11.0,64.0
20362,48.0,48,60,6.0,64.0
20363,70.0,12,90,8.0,64.0
20364,67.0,0,90,8.0,64.0
20365,48.0,12,60,6.0,64.0
20366,70.0,12,90,8.0,64.0
20367,67.0,0,90,8.0,64.0
20368,48.0,48,60,6.0,64.0
20369,81.0,24,120,7.0,64.0
20370,48.0,0,90,11.0,64.0
20371,77.0,0,120,0.0,64.0
20372,89.0,0,120,0.0,64.0
20373,48.0,12,60,6.0,64.0
20374,70.0,12,90,8.0,64.0
20375,48.0,0,90,11.0,64.0
20376,82.0,0,120,7.0,64.0
20377,79.0,0,120,0.0,64.0
20378,91.0,48,120,0.0,64.0
20379,48.0,48,60,6.0,64.0
20380,67.0,0,90,8.0,64.0
20381,48.0,12,60,6.0,64.0
20382,48.0,48,60,6.0,64.0
20383,84.0,0,90,7.0,64.0
20384,58.0,0,390,3.0,64.0
20385,62.0,24,390,3.0,64.0
20386,88.0,12,90,0.0,64.0
20387,76.0,0,90,0.0,64.0
20388,70.0,0,390,2.0,64.0
20389,79.0,0,390,1.0,64.0
20390,48.0,0,90,11.0,64.0
20391,76.0,0,390,2.0,64.0
20392,82.0,0,390,1.0,64.0
20393,60.0,0,390,5.0,64.0
20394,67.0,0,90,8.0,64.0
20395,70.0,0,90,8.0,64.0
20396,60.0,0,390,4.0,64.0
20397,67.0,0,390,4.0,64.0
20398,72.0,0,390,5.0,64.0
20399,48.0,60,60,6.0,64.0
20400,70.0,0,90,8.0,64.0
20401,48.0,12,90,11.0,64.0
20402,48.0,48,60,6.0,64.0
20403,67.0,0,90,8.0,64.0
20404,48.0,60,60,6.0,64.0
20405,70.0,0,90,8.0,64.0
20406,48.0,48,60,6.0,64.0
20407,67.0,0,90,8.0,64.0
20408,48.0,12,90,11.0,64.0
20409,64.0,24,120,0.0,64.0
20410,72.0,0,120,7.0,64.0
20411,76.0,0,120,0.0,64.0
20412,48.0,12,60,6.0,64.0
20413,67.0,12,90,8.0,64.0
20414,70.0,0,90,8.0,64.0
20415,65.0,0,120,0.0,64.0
20416,77.0,48,120,0.0,64.0
20417,48.0,0,90,11.0,64.0
20418,74.0,0,120,7.0,64.0
20419,48.0,48,60,6.0,64.0
20420,48.0,12,60,6.0,64.0
20421,67.0,0,390,4.0,64.0
20422,82.0,0,390,1.0,64.0
20423,79.0,0,390,1.0,64.0
20424,60.0,0,390,5.0,64.0
20425,72.0,24,390,5.0,64.0
20426,76.0,12,90,7.0,64.0
20427,48.0,0,90,11.0,64.0
20428,76.0,0,390,2.0,64.0
20429,70.0,0,390,2.0,64.0
20430,60.0,0,390,4.0,64.0
20431,67.0,0,90,0.0,64.0
20432,48.0,48,60,6.0,64.0
20433,67.0,0,90,8.0,64.0
20434,62.0,0,390,3.0,64.0
20435,79.0,0,90,0.0,64.0
20436,58.0,0,390,3.0,64.0
20437,70.0,0,90,8.0,64.0
20438,48.0,60,60,6.0,64.0
20439,48.0,48,60,6.0,64.0
20440,67.0,0,90,8.0,64.0
20441,48.0,0,90,11.0,64.0
20442,70.0,12,90,8.0,64.0
20443,48.0,60,60,6.0,64.0
20444,48.0,0,90,11.0,64.0
20445,76.0,24,120,7.0,64.0
20446,67.0,0,90,8.0,64.0
20447,70.0,12,90,8.0,64.0
20448,48.0,48,60,6.0,64.0
20449,67.0,0,120,0.0,64.0
20450,79.0,0,120,0.0,64.0
20451,48.0,12,60,6.0,64.0
20452,48.0,48,60,6.0,64.0
20453,48.0,12,90,11.0,64.0
20454,81.0,0,120,0.0,64.0
20455,77.0,0,120,7.0,64.0
20456,69.0,48,120,0.0,64.0
20457,67.0,0,90,8.0,64.0
20458,70.0,0,90,8.0,64.0
20459,48.0,12,60,6.0,64.0
20460,48.0,48,60,6.0,64.0
20461,70.0,0,390,2.0,64.0
20462,76.0,0,390,2.0,64.0
20463,48.0,0,90,11.0,64.0
20464,79.0,0,90,7.0,64.0
20465,60.0,0,390,5.0,64.0
20466,72.0,0,390,5.0,64.0
20467,79.0,0,390,1.0,64.0
20468,60.0,0,390,4.0,64.0
20469,83.0,0,90,0.0,64.0
20470,70.0,0,90,0.0,64.0
20471,58.0,0,390,3.0,64.0
20472,62.0,0,390,3.0,64.0
20473,70.0,12,90,8.0,64.0
20474,67.0,0,90,8.0,64.0
20475,67.0,0,390,4.0,64.0
20476,82.0,24,390,1.0,64.0
20477,48.0,60,60,6.0,64.0
20478,48.0,48,60,6.0,64.0
20479,48.0,12,90,11.0,64.0
20480,67.0,0,90,8.0,64.0
20481,70.0,0,90,8.0,64.0
20482,48.0,60,60,6.0,64.0
20483,70.0,0,90,8.0,64.0
20484,77.0,0,120,0.0,64.0
20485,89.0,0,120,0.0,64.0
20486,48.0,12,90,11.0,64.0
20487,67.0,0,90,8.0,64.0
20488,81.0,24,120,7.0,64.0
20489,48.0,48,60,6.0,64.0
20490,48.0,12,60,6.0,64.0
20491,48.0,48,60,6.0,64.0
20492,91.0,0,120,0.0,64.0
20493,79.0,48,120,0.0,64.0
20494,48.0,12,90,11.0,64.0
20495,82.0,0,120,7.0,64.0
20496,70.0,0,90,8.0,64.0
20497,67.0,0,90,8.0,64.0
20498,48.0,12,60,6.0,64.0
20499,81.0,0,1140,1.0,64.0
20500,48.0,12,90,11.0,64.0
20501,60.0,0,780,5.0,64.0
20502,72.0,0,780,5.0,64.0
20503,48.0,48,60,6.0,64.0
20504,77.0,0,1140,1.0,64.0
20505,69.0,0,90,8.0,64.0
20506,65.0,24,1140,4.0,64.0
20507,60.0,0,1140,3.0,64.0
20508,57.0,0,1140,3.0,64.0
20509,69.0,0,1140,2.0,64.0
20510,72.0,0,1140,2.0,64.0
20511,84.0,0,780,7.0,64.0
20512,93.0,48,780,0.0,64.0
20513,81.0,0,780,0.0,64.0
20514,48.0,60,60,6.0,64.0
20515,81.0,0,90,8.0,64.0
20516,69.0,0,90,8.0,64.0
20517,48.0,48,60,6.0,64.0
20518,48.0,12,90,11.0,64.0
20519,48.0,60,60,6.0,64.0
20520,48.0,12,90,11.0,64.0
20521,48.0,48,60,6.0,64.0
20522,81.0,0,90,8.0,64.0
20523,69.0,0,90,8.0,64.0
20524,48.0,60,60,6.0,64.0
20525,69.0,12,90,8.0,64.0
20526,81.0,0,90,8.0,64.0
20527,48.0,48,60,6.0,64.0
20528,48.0,0,90,11.0,64.0
20529,48.0,60,60,6.0,64.0
20530,81.0,0,90,8.0,64.0
20531,69.0,0,90,8.0,64.0
20532,48.0,12,90,11.0,64.0
20533,48.0,48,60,6.0,64.0
20534,48.0,60,60,6.0,64.0
20535,48.0,12,90,11.0,64.0
20536,81.0,0,90,8.0,64.0
20537,69.0,0,90,8.0,64.0
20538,48.0,48,60,6.0,64.0
20539,48.0,60,60,6.0,64.0
20540,69.0,0,90,8.0,64.0
20541,48.0,0,60,6.0,64.0
20542,81.0,12,90,8.0,64.0
20543,48.0,0,90,11.0,64.0
20544,48.0,60,60,6.0,64.0
20545,48.0,48,60,6.0,64.0
20546,48.0,0,90,11.0,64.0
20547,81.0,0,90,8.0,64.0
20548,69.0,12,90,8.0,64.0
20549,48.0,60,60,6.0,64.0
20550,77.0,48,780,5.0,64.0
20551,81.0,0,90,7.0,64.0
20552,48.0,48,60,6.0,64.0
20553,89.0,0,90,0.0,64.0
20554,48.0,12,90,11.0,64.0
20555,77.0,0,90,0.0,64.0
20556,81.0,0,90,8.0,64.0
20557,69.0,0,90,8.0,64.0
20558,48.0,60,60,6.0,64.0
20559,79.0,0,90,0.0,64.0
20560,48.0,24,60,6.0,64.0
20561,82.0,0,90,7.0,64.0
20562,48.0,12,90,11.0,64.0
20563,81.0,0,90,8.0,64.0
20564,69.0,0,90,8.0,64.0
20565,91.0,0,90,0.0,64.0
20566,48.0,60,60,6.0,64.0
20567,84.0,0,90,7.0,64.0
20568,93.0,0,90,0.0,64.0
20569,48.0,0,90,11.0,64.0
20570,81.0,0,90,0.0,64.0
20571,48.0,48,60,6.0,64.0
20572,69.0,12,90,8.0,64.0
20573,81.0,0,90,8.0,64.0
20574,48.0,60,60,6.0,64.0
20575,48.0,0,90,11.0,64.0
20576,69.0,12,90,8.0,64.0
20577,81.0,0,90,8.0,64.0
20578,81.0,0,90,7.0,64.0
20579,77.0,0,90,0.0,64.0
20580,89.0,0,90,0.0,64.0
20581,48.0,48,60,6.0,64.0
20582,48.0,60,60,6.0,64.0
20583,74.0,0,90,0.0,64.0
20584,82.0,0,90,8.0,64.0
20585,58.0,24,390,3.0,64.0
20586,77.0,0,390,1.0,64.0
20587,82.0,0,390,1.0,64.0
20588,62.0,0,390,3.0,64.0
20589,65.0,0,390,4.0,64.0
20590,48.0,0,90,11.0,64.0
20591,74.0,0,390,2.0,64.0
20592,70.0,0,390,2.0,64.0
20593,86.0,0,90,7.0,64.0
20594,86.0,0,90,0.0,64.0
20595,48.0,48,60,6.0,64.0
20596,70.0,12,90,8.0,64.0
20597,48.0,60,60,6.0,64.0
20598,70.0,12,90,8.0,64.0
20599,48.0,0,90,11.0,64.0
20600,48.0,48,60,6.0,64.0
20601,86.0,0,90,7.0,64.0
20602,82.0,0,90,8.0,64.0
20603,48.0,60,60,6.0,64.0
20604,70.0,0,90,8.0,64.0
20605,82.0,12,90,8.0,64.0
20606,86.0,0,90,0.0,64.0
20607,86.0,0,90,7.0,64.0
20608,48.0,0,60,6.0,64.0
20609,74.0,0,90,0.0,64.0
20610,48.0,0,90,11.0,64.0
20611,48.0,36,60,6.0,64.0
20612,48.0,12,90,11.0,64.0
20613,48.0,48,60,6.0,64.0
20614,82.0,0,90,8.0,64.0
20615,86.0,0,90,7.0,64.0
20616,70.0,0,90,8.0,64.0
20617,48.0,60,60,6.0,64.0
20618,60.0,24,390,4.0,64.0
20619,48.0,12,90,11.0,64.0
20620,79.0,0,90,7.0,64.0
20621,64.0,0,90,10.0,64.0
20622,41.0,0,90,11.0,64.0
20623,48.0,48,60,6.0,64.0
20624,62.0,0,390,3.0,64.0
20625,67.0,0,90,8.0,64.0
20626,70.0,0,90,8.0,64.0
20627,58.0,0,390,3.0,64.0
20628,70.0,0,390,2.0,64.0
20629,76.0,0,390,2.0,64.0
20630,76.0,0,390,5.0,64.0
20631,72.0,0,390,5.0,64.0
20632,82.0,0,390,1.0,64.0
20633,29.0,0,90,12.0,64.0
20634,67.0,0,390,4.0,64.0
20635,79.0,0,90,0.0,64.0
20636,91.0,0,90,0.0,64.0
20637,79.0,0,390,1.0,64.0
20638,48.0,60,60,6.0,64.0
20639,81.0,12,90,7.0,64.0
20640,41.0,0,90,11.0,64.0
20641,48.0,0,90,11.0,64.0
20642,67.0,0,90,8.0,64.0
20643,70.0,0,90,8.0,64.0
20644,64.0,0,90,10.0,64.0
20645,48.0,48,60,6.0,64.0
20646,29.0,0,90,12.0,64.0
20647,48.0,60,60,6.0,64.0
20648,70.0,12,90,8.0,64.0
20649,48.0,48,60,6.0,64.0
20650,64.0,0,90,10.0,64.0
20651,67.0,0,90,8.0,64.0
20652,82.0,0,90,7.0,64.0
20653,48.0,0,90,11.0,64.0
20654,88.0,0,90,0.0,64.0
20655,76.0,0,90,0.0,64.0
20656,29.0,0,90,12.0,64.0
20657,41.0,0,90,11.0,64.0
20658,48.0,36,60,6.0,64.0
20659,67.0,0,90,8.0,64.0
20660,81.0,0,90,7.0,64.0
20661,70.0,0,90,8.0,64.0
20662,29.0,12,90,12.0,64.0
20663,64.0,0,90,10.0,64.0
20664,41.0,0,90,11.0,64.0
20665,48.0,48,60,6.0,64.0
20666,48.0,0,90,11.0,64.0
20667,48.0,60,60,6.0,64.0
20668,79.0,0,90,7.0,64.0
20669,60.0,0,390,4.0,64.0
20670,67.0,24,390,4.0,64.0
20671,41.0,0,90,11.0,64.0
20672,76.0,12,90,0.0,64.0
20673,88.0,0,90,0.0,64.0
20674,48.0,48,60,6.0,64.0
20675,82.0,0,390,1.0,64.0
20676,72.0,0,390,5.0,64.0
20677,60.0,0,390,5.0,64.0
20678,70.0,0,390,2.0,64.0
20679,64.0,0,90,10.0,64.0
20680,76.0,0,390,2.0,64.0
20681,48.0,0,90,11.0,64.0
20682,79.0,0,390,1.0,64.0
20683,58.0,0,390,3.0,64.0
20684,67.0,0,90,8.0,64.0
20685,70.0,0,90,8.0,64.0
20686,62.0,0,390,3.0,64.0
20687,29.0,0,90,12.0,64.0
20688,48.0,60,60,6.0,64.0
20689,67.0,0,90,8.0,64.0
20690,70.0,12,90,8.0,64.0
20691,48.0,48,60,6.0,64.0
20692,29.0,0,90,12.0,64.0
20693,76.0,0,90,7.0,64.0
20694,48.0,0,90,11.0,64.0
20695,41.0,0,90,11.0,64.0
20696,64.0,0,90,10.0,64.0
20697,48.0,60,60,6.0,64.0
20698,67.0,0,90,8.0,64.0
20699,41.0,0,90,11.0,64.0
20700,48.0,0,90,11.0,64.0
20701,89.0,24,120,0.0,64.0
20702,77.0,0,120,0.0,64.0
20703,70.0,0,90,8.0,64.0
20704,48.0,48,60,6.0,64.0
20705,29.0,0,90,12.0,64.0
20706,64.0,0,90,10.0,64.0
20707,77.0,12,90,7.0,64.0
20708,48.0,12,60,6.0,64.0
20709,79.0,48,120,0.0,64.0
20710,48.0,12,90,11.0,64.0
20711,41.0,0,90,11.0,64.0
20712,48.0,48,60,6.0,64.0
20713,29.0,0,90,12.0,64.0
20714,91.0,0,120,0.0,64.0
20715,64.0,0,90,10.0,64.0
20716,79.0,0,90,7.0,64.0
20717,70.0,0,90,8.0,64.0
20718,67.0,0,90,8.0,64.0
20719,48.0,12,60,6.0,64.0
20720,29.0,0,90,12.0,64.0
20721,41.0,0,90,11.0,64.0
20722,60.0,24,390,5.0,64.0
20723,69.0,0,90,8.0,64.0
20724,65.0,0,90,8.0,64.0
20725,57.0,12,90,3.0,64.0
20726,48.0,48,60,6.0,64.0
20727,65.0,0,90,4.0,64.0
20728,65.0,0,90,10.0,64.0
20729,72.0,0,390,5.0,64.0
20730,53.0,0,90,3.0,64.0
20731,81.0,0,90,7.0,64.0
20732,81.0,0,90,1.0,64.0
20733,69.0,0,90,2.0,64.0
20734,72.0,0,90,2.0,64.0
20735,77.0,0,90,1.0,64.0
20736,93.0,0,90,0.0,64.0
20737,81.0,0,90,0.0,64.0
20738,48.0,60,60,6.0,64.0
20739,57.0,12,90,10.0,64.0
20740,82.0,0,90,7.0,64.0
20741,53.0,0,90,11.0,64.0
20742,69.0,0,90,8.0,64.0
20743,41.0,0,90,12.0,64.0
20744,48.0,48,60,6.0,64.0
20745,48.0,60,60,6.0,64.0
20746,65.0,0,90,4.0,64.0
20747,89.0,0,90,0.0,64.0
20748,69.0,0,90,8.0,64.0
20749,53.0,0,90,11.0,64.0
20750,69.0,0,90,2.0,64.0
20751,72.0,0,90,2.0,64.0
20752,53.0,0,90,3.0,64.0
20753,77.0,0,90,0.0,64.0
20754,57.0,0,90,3.0,64.0
20755,41.0,0,90,12.0,64.0
20756,77.0,0,90,1.0,64.0
20757,48.0,48,60,6.0,64.0
20758,69.0,0,90,1.0,64.0
20759,57.0,12,90,10.0,64.0
20760,81.0,0,90,7.0,64.0
20761,48.0,36,60,6.0,64.0
20762,48.0,48,60,6.0,64.0
20763,57.0,0,90,10.0,64.0
20764,41.0,0,90,12.0,64.0
20765,79.0,0,90,7.0,64.0
20766,53.0,12,90,11.0,64.0
20767,69.0,0,90,8.0,64.0
20768,48.0,60,60,6.0,64.0
20769,57.0,0,90,3.0,64.0
20770,48.0,48,60,6.0,64.0
20771,74.0,0,90,1.0,64.0
20772,69.0,0,90,8.0,64.0
20773,57.0,0,90,10.0,64.0
20774,53.0,0,90,3.0,64.0
20775,60.0,24,390,5.0,64.0
20776,69.0,0,90,1.0,64.0
20777,72.0,0,390,5.0,64.0
20778,69.0,0,90,2.0,64.0
20779,74.0,0,90,2.0,64.0
20780,41.0,0,90,12.0,64.0
20781,86.0,12,90,0.0,64.0
20782,53.0,0,90,11.0,64.0
20783,62.0,0,90,4.0,64.0
20784,74.0,0,90,0.0,64.0
20785,77.0,0,90,7.0,64.0
20786,48.0,60,60,6.0,64.0
20787,53.0,12,90,11.0,64.0
20788,41.0,0,90,12.0,64.0
20789,69.0,0,90,8.0,64.0
20790,76.0,0,90,7.0,64.0
20791,57.0,0,90,10.0,64.0
20792,48.0,48,60,6.0,64.0
20793,48.0,60,60,6.0,64.0
20794,69.0,12,90,1.0,64.0
20795,57.0,0,90,3.0,64.0
20796,54.0,0,90,3.0,64.0
20797,42.0,0,90,12.0,64.0
20798,74.0,0,90,7.0,64.0
20799,72.0,0,90,1.0,64.0
20800,69.0,0,90,8.0,64.0
20801,48.0,48,60,6.0,64.0
20802,72.0,0,90,2.0,64.0
20803,54.0,0,90,11.0,64.0
20804,84.0,0,90,0.0,64.0
20805,72.0,0,90,0.0,64.0
20806,62.0,0,90,4.0,64.0
20807,57.0,0,90,10.0,64.0
20808,69.0,0,90,2.0,64.0
20809,48.0,36,60,6.0,64.0
20810,69.0,12,90,8.0,64.0
20811,42.0,0,90,12.0,64.0
20812,48.0,48,60,6.0,64.0
20813,72.0,0,90,7.0,64.0
20814,54.0,0,90,11.0,64.0
20815,57.0,0,90,10.0,64.0
20816,48.0,108,60,6.0,64.0
20817,83.0,0,390,0.0,64.0
20818,43.0,0,390,6.0,64.0
20819,71.0,0,390,0.0,64.0
20820,67.0,0,780,10.0,64.0
20821,55.0,0,390,3.0,64.0
20822,71.0,0,390,2.0,64.0
20823,67.0,0,390,2.0,64.0
20824,67.0,0,390,5.0,64.0
20825,55.0,0,390,5.0,64.0
20826,43.0,48,780,12.0,64.0
20827,59.0,0,390,3.0,64.0
20828,62.0,0,390,4.0,64.0
20829,55.0,0,390,4.0,64.0
20830,71.0,0,390,1.0,64.0
20831,71.0,120,90,7.0,64.0
20832,55.0,0,780,11.0,64.0
20833,62.0,0,90,8.0,64.0
20834,67.0,72,390,1.0,64.0
20835,79.0,120,90,7.0,64.0
20836,67.0,0,90,8.0,64.0
20837,79.0,48,90,7.0,64.0
20838,67.0,0,90,8.0,64.0
20839,67.0,0,90,8.0,64.0
20840,79.0,120,90,7.0,64.0
20841,79.0,120,90,7.0,64.0
20842,67.0,0,90,8.0,64.0
20843,67.0,72,90,8.0,64.0
20844,79.0,0,90,7.0,64.0
20845,79.0,0,90,7.0,64.0
20846,67.0,120,90,8.0,64.0
20847,79.0,0,90,7.0,64.0
20848,67.0,120,90,8.0,64.0
20849,55.0,0,780,3.0,64.0
20850,67.0,0,780,2.0,64.0
20851,40.0,96,240,12.0,64.0
20852,55.0,72,390,5.0,64.0
20853,67.0,0,390,5.0,64.0
20854,67.0,0,780,4.0,64.0
20855,79.0,0,780,2.0,64.0
20856,79.0,0,90,7.0,64.0
20857,91.0,0,780,0.0,64.0
20858,67.0,0,780,3.0,64.0
20859,55.0,0,780,4.0,64.0
20860,64.0,0,240,10.0,64.0
20861,67.0,120,90,8.0,64.0
20862,43.0,0,390,6.0,64.0
20863,79.0,48,780,1.0,64.0
20864,52.0,0,240,11.0,64.0
20865,67.0,0,90,8.0,64.0
20866,79.0,24,90,7.0,64.0
20867,41.0,0,120,12.0,64.0
20868,67.0,0,90,8.0,64.0
20869,65.0,0,120,10.0,64.0
20870,79.0,24,90,7.0,64.0
20871,53.0,24,120,11.0,64.0
20872,67.0,0,120,10.0,64.0
20873,43.0,96,120,12.0,64.0
20874,67.0,0,90,8.0,64.0
20875,55.0,0,120,11.0,64.0
20876,79.0,24,90,7.0,64.0
20877,45.0,0,90,12.0,64.0
20878,67.0,0,90,8.0,64.0
20879,57.0,0,90,11.0,64.0
20880,69.0,0,90,10.0,64.0
20881,79.0,120,90,7.0,64.0
20882,67.0,72,90,8.0,64.0
20883,79.0,0,90,7.0,64.0
20884,79.0,0,90,7.0,64.0
20885,71.0,0,90,10.0,64.0
20886,67.0,0,90,8.0,64.0
20887,59.0,120,90,11.0,64.0
20888,47.0,0,90,12.0,64.0
20889,67.0,120,90,8.0,64.0
20890,79.0,0,90,7.0,64.0
20891,64.0,96,240,3.0,64.0
20892,48.0,72,390,6.0,64.0
20893,67.0,0,90,8.0,64.0
20894,60.0,0,90,11.0,64.0
20895,72.0,0,90,10.0,64.0
20896,76.0,0,240,1.0,64.0
20897,48.0,120,90,12.0,64.0
20898,76.0,0,240,2.0,64.0
20899,88.0,0,240,0.0,64.0
20900,79.0,0,90,7.0,64.0
20901,64.0,24,90,8.0,64.0
20902,76.0,0,90,7.0,64.0
20903,36.0,0,90,12.0,64.0
20904,60.0,24,90,10.0,64.0
20905,48.0,0,90,11.0,64.0
20906,77.0,0,90,7.0,64.0
20907,77.0,0,120,2.0,64.0
20908,65.0,0,120,3.0,64.0
20909,65.0,0,90,8.0,64.0
20910,89.0,24,120,0.0,64.0
20911,77.0,0,120,1.0,64.0
20912,79.0,0,120,1.0,64.0
20913,79.0,24,90,7.0,64.0
20914,67.0,96,120,3.0,64.0
20915,79.0,0,120,2.0,64.0
20916,67.0,0,90,8.0,64.0
20917,91.0,0,120,0.0,64.0
20918,72.0,0,90,10.0,64.0
20919,81.0,0,90,2.0,64.0
20920,48.0,0,90,12.0,64.0
20921,81.0,0,90,1.0,64.0
20922,69.0,120,90,8.0,64.0
20923,93.0,0,90,0.0,64.0
20924,60.0,0,90,11.0,64.0
20925,69.0,0,90,3.0,64.0
20926,48.0,72,390,6.0,64.0
20927,81.0,0,90,7.0,64.0
20928,79.0,0,90,7.0,64.0
20929,67.0,120,90,8.0,64.0
20930,81.0,0,90,1.0,64.0
20931,77.0,0,90,7.0,64.0
20932,65.0,48,90,8.0,64.0
20933,81.0,0,90,2.0,64.0
20934,60.0,0,90,11.0,64.0
20935,48.0,0,90,12.0,64.0
20936,72.0,0,90,10.0,64.0
20937,93.0,0,90,0.0,64.0
20938,69.0,0,90,3.0,64.0
20939,76.0,120,90,7.0,64.0
20940,64.0,0,90,8.0,64.0
20941,74.0,0,240,2.0,64.0
20942,62.0,0,90,8.0,64.0
20943,62.0,0,240,3.0,64.0
20944,43.0,72,390,6.0,64.0
20945,71.0,0,90,10.0,64.0
20946,47.0,0,90,12.0,64.0
20947,86.0,0,240,0.0,64.0
20948,74.0,96,240,1.0,64.0
20949,59.0,120,90,11.0,64.0
20950,74.0,0,90,7.0,64.0
20951,62.0,24,90,8.0,64.0
20952,74.0,0,90,7.0,64.0
20953,76.0,0,90,7.0,64.0
20954,64.0,0,90,8.0,64.0
20955,88.0,0,120,0.0,64.0
20956,64.0,0,120,3.0,64.0
20957,76.0,24,120,1.0,64.0
20958,76.0,0,120,2.0,64.0
20959,59.0,24,90,10.0,64.0
20960,35.0,0,90,12.0,64.0
20961,47.0,0,90,11.0,64.0
20962,65.0,0,120,3.0,64.0
20963,89.0,96,120,0.0,64.0
20964,77.0,0,120,2.0,64.0
20965,65.0,24,90,8.0,64.0
20966,77.0,0,120,1.0,64.0
20967,77.0,0,90,7.0,64.0
20968,79.0,120,90,1.0,64.0
20969,71.0,0,90,10.0,64.0
20970,59.0,0,90,11.0,64.0
20971,67.0,0,90,3.0,64.0
20972,67.0,0,90,8.0,64.0
20973,43.0,72,390,6.0,64.0
20974,79.0,0,90,2.0,64.0
20975,47.0,0,90,12.0,64.0
20976,79.0,0,90,7.0,64.0
20977,91.0,0,90,0.0,64.0
20978,77.0,0,90,7.0,64.0
20979,65.0,120,90,8.0,64.0
20980,67.0,48,90,2.0,64.0
20981,71.0,0,90,10.0,64.0
20982,67.0,0,90,1.0,64.0
20983,79.0,0,90,7.0,64.0
20984,55.0,0,90,3.0,64.0
20985,47.0,0,90,12.0,64.0
20986,59.0,0,90,11.0,64.0
20987,79.0,0,90,0.0,64.0
20988,67.0,0,90,8.0,64.0
20989,55.0,0,90,8.0,64.0
20990,67.0,120,90,7.0,64.0
20991,69.0,120,90,10.0,64.0
20992,84.0,0,240,0.0,64.0
20993,72.0,0,90,7.0,64.0
20994,48.0,72,390,6.0,64.0
20995,60.0,0,90,8.0,64.0
20996,60.0,0,240,3.0,64.0
20997,72.0,0,240,2.0,64.0
20998,72.0,96,240,1.0,64.0
20999,57.0,0,90,11.0,64.0
21000,45.0,0,90,12.0,64.0
21001,72.0,0,90,7.0,64.0
21002,60.0,24,90,8.0,64.0
21003,74.0,24,120,2.0,64.0
21004,45.0,0,90,11.0,64.0
21005,62.0,0,120,3.0,64.0
21006,62.0,0,90,8.0,64.0
21007,74.0,24,90,7.0,64.0
21008,86.0,0,120,0.0,64.0
21009,74.0,0,120,1.0,64.0
21010,33.0,0,90,12.0,64.0
21011,57.0,0,90,10.0,64.0
21012,76.0,0,120,1.0,64.0
21013,76.0,0,90,7.0,64.0
21014,76.0,0,120,2.0,64.0
21015,64.0,24,90,8.0,64.0
21016,88.0,96,120,0.0,64.0
21017,64.0,0,120,3.0,64.0
21018,69.0,0,90,10.0,64.0
21019,77.0,0,90,2.0,64.0
21020,77.0,0,90,1.0,64.0
21021,45.0,0,90,12.0,64.0
21022,65.0,0,90,3.0,64.0
21023,65.0,0,90,8.0,64.0
21024,77.0,0,90,7.0,64.0
21025,89.0,0,90,0.0,64.0
21026,57.0,96,90,11.0,64.0
21027,48.0,24,180,6.0,64.0
21028,76.0,120,90,7.0,64.0
21029,64.0,0,90,8.0,64.0
21030,48.0,24,180,6.0,64.0
21031,57.0,0,90,11.0,64.0
21032,77.0,0,90,1.0,64.0
21033,45.0,0,90,12.0,64.0
21034,69.0,0,90,10.0,64.0
21035,62.0,0,90,8.0,64.0
21036,89.0,0,90,0.0,64.0
21037,65.0,0,90,3.0,64.0
21038,74.0,96,90,7.0,64.0
21039,77.0,0,90,2.0,64.0
21040,60.0,120,90,8.0,64.0
21041,72.0,0,90,7.0,64.0
21042,71.0,96,240,2.0,64.0
21043,71.0,0,90,7.0,64.0
21044,71.0,0,240,1.0,64.0
21045,67.0,0,90,10.0,64.0
21046,59.0,0,240,3.0,64.0
21047,55.0,0,90,11.0,64.0
21048,43.0,120,90,12.0,64.0
21049,43.0,72,390,6.0,64.0
21050,59.0,0,90,8.0,64.0
21051,83.0,0,240,0.0,64.0
21052,71.0,0,90,8.0,64.0
21053,83.0,24,90,7.0,64.0
21054,55.0,0,90,10.0,64.0
21055,84.0,0,120,0.0,64.0
21056,72.0,24,120,1.0,64.0
21057,43.0,0,90,11.0,64.0
21058,60.0,0,120,3.0,64.0
21059,84.0,0,90,7.0,64.0
21060,72.0,0,90,8.0,64.0
21061,72.0,0,120,2.0,64.0
21062,31.0,24,90,12.0,64.0
21063,86.0,0,90,7.0,64.0
21064,74.0,0,120,2.0,64.0
21065,74.0,96,120,1.0,64.0
21066,62.0,0,120,3.0,64.0
21067,74.0,24,90,8.0,64.0
21068,86.0,0,120,0.0,64.0
21069,88.0,0,90,7.0,64.0
21070,76.0,0,90,8.0,64.0
21071,67.0,0,90,10.0,64.0
21072,43.0,0,90,12.0,64.0
21073,76.0,96,90,2.0,64.0
21074,55.0,0,90,11.0,64.0
21075,88.0,0,90,0.0,64.0
21076,76.0,0,90,1.0,64.0
21077,64.0,0,90,3.0,64.0
21078,43.0,24,180,6.0,64.0
21079,86.0,120,90,7.0,64.0
21080,74.0,0,90,8.0,64.0
21081,55.0,0,90,11.0,64.0
21082,43.0,24,180,6.0,64.0
21083,76.0,0,90,8.0,64.0
21084,88.0,0,90,7.0,64.0
21085,64.0,72,120,2.0,64.0
21086,52.0,0,90,3.0,64.0
21087,67.0,0,90,10.0,64.0
21088,64.0,24,90,1.0,64.0
21089,43.0,0,90,12.0,64.0
21090,76.0,0,90,0.0,64.0
21091,76.0,120,90,7.0,64.0
21092,64.0,0,90,8.0,64.0
21093,65.0,0,90,10.0,64.0
21094,69.0,0,90,8.0,64.0
21095,72.0,0,390,5.0,64.0
21096,69.0,0,240,1.0,64.0
21097,81.0,0,90,7.0,64.0
21098,48.0,0,390,6.0,64.0
21099,81.0,0,240,0.0,64.0
21100,69.0,0,240,2.0,64.0
21101,60.0,72,390,4.0,64.0
21102,48.0,0,390,4.0,64.0
21103,57.0,96,240,3.0,64.0
21104,41.0,120,90,12.0,64.0
21105,60.0,0,390,5.0,64.0
21106,53.0,0,90,11.0,64.0
21107,81.0,0,90,7.0,64.0
21108,69.0,24,90,8.0,64.0
21109,71.0,0,120,2.0,64.0
21110,53.0,0,90,10.0,64.0
21111,83.0,0,120,0.0,64.0
21112,41.0,0,90,11.0,64.0
21113,59.0,0,120,3.0,64.0
21114,71.0,0,90,8.0,64.0
21115,29.0,24,90,12.0,64.0
21116,83.0,0,90,7.0,64.0
21117,71.0,24,120,1.0,64.0
21118,60.0,0,120,3.0,64.0
21119,72.0,0,120,1.0,64.0
21120,72.0,24,90,8.0,64.0
21121,72.0,96,120,2.0,64.0
21122,84.0,0,90,7.0,64.0
21123,84.0,0,120,0.0,64.0
21124,86.0,0,90,0.0,64.0
21125,74.0,0,90,1.0,64.0
21126,86.0,0,90,7.0,64.0
21127,72.0,72,390,5.0,64.0
21128,74.0,120,90,8.0,64.0
21129,60.0,0,390,5.0,64.0
21130,62.0,0,90,3.0,64.0
21131,41.0,0,90,12.0,64.0
21132,48.0,0,390,6.0,64.0
21133,53.0,0,90,11.0,64.0
21134,62.0,0,390,4.0,64.0
21135,74.0,0,90,2.0,64.0
21136,65.0,0,90,10.0,64.0
21137,72.0,0,90,8.0,64.0
21138,84.0,120,90,7.0,64.0
21139,74.0,0,90,2.0,64.0
21140,53.0,0,90,11.0,64.0
21141,62.0,0,90,3.0,64.0
21142,83.0,0,90,7.0,64.0
21143,65.0,0,90,10.0,64.0
21144,86.0,48,90,0.0,64.0
21145,74.0,0,90,1.0,64.0
21146,71.0,0,90,8.0,64.0
21147,41.0,0,90,12.0,64.0
21148,81.0,0,90,7.0,64.0
21149,69.0,120,90,8.0,64.0
21150,43.0,0,390,6.0,64.0
21151,67.0,0,90,8.0,64.0
21152,41.0,0,90,12.0,64.0
21153,53.0,0,90,11.0,64.0
21154,62.0,72,390,4.0,64.0
21155,67.0,0,240,2.0,64.0
21156,67.0,0,240,1.0,64.0
21157,67.0,0,390,5.0,64.0
21158,55.0,96,240,3.0,64.0
21159,65.0,120,90,10.0,64.0
21160,55.0,0,390,4.0,64.0
21161,79.0,0,90,7.0,64.0
21162,55.0,0,390,5.0,64.0
21163,79.0,0,240,0.0,64.0
21164,67.0,24,90,8.0,64.0
21165,79.0,0,90,7.0,64.0
21166,81.0,0,120,0.0,64.0
21167,69.0,24,120,2.0,64.0
21168,69.0,0,120,1.0,64.0
21169,81.0,0,90,7.0,64.0
21170,65.0,24,90,10.0,64.0
21171,69.0,0,90,8.0,64.0
21172,53.0,0,90,11.0,64.0
21173,57.0,0,120,3.0,64.0
21174,41.0,0,90,12.0,64.0
21175,71.0,0,120,2.0,64.0
21176,83.0,24,90,7.0,64.0
21177,71.0,96,120,1.0,64.0
21178,71.0,0,90,8.0,64.0
21179,59.0,0,120,3.0,64.0
21180,83.0,0,120,0.0,64.0
21181,72.0,0,90,8.0,64.0
21182,60.0,0,390,4.0,64.0
21183,72.0,0,240,2.0,64.0
21184,84.0,0,90,7.0,64.0
21185,64.0,0,390,4.0,64.0
21186,84.0,0,240,0.0,64.0
21187,43.0,72,390,6.0,64.0
21188,64.0,120,90,10.0,64.0
21189,60.0,96,240,3.0,64.0
21190,40.0,0,90,12.0,64.0
21191,52.0,0,90,11.0,64.0
21192,67.0,0,390,5.0,64.0
21193,72.0,0,240,1.0,64.0
21194,55.0,0,390,5.0,64.0
21195,84.0,0,90,7.0,64.0
21196,72.0,24,90,8.0,64.0
21197,74.0,0,120,2.0,64.0
21198,74.0,24,120,1.0,64.0
21199,86.0,0,120,0.0,64.0
21200,74.0,0,90,8.0,64.0
21201,86.0,0,90,7.0,64.0
21202,48.0,0,90,11.0,64.0
21203,60.0,0,90,10.0,64.0
21204,36.0,24,90,12.0,64.0
21205,62.0,0,120,3.0,64.0
21206,88.0,24,90,7.0,64.0
21207,64.0,0,120,3.0,64.0
21208,88.0,96,120,0.0,64.0
21209,76.0,0,90,8.0,64.0
21210,76.0,0,120,1.0,64.0
21211,76.0,0,120,2.0,64.0
21212,62.0,0,90,4.0,64.0
21213,77.0,0,90,1.0,64.0
21214,31.0,96,90,12.0,64.0
21215,74.0,0,90,8.0,64.0
21216,74.0,0,90,1.0,64.0
21217,89.0,0,90,7.0,64.0
21218,55.0,0,90,4.0,64.0
21219,74.0,0,90,2.0,64.0
21220,67.0,0,90,5.0,64.0
21221,55.0,0,90,5.0,64.0
21222,43.0,0,90,11.0,64.0
21223,77.0,0,90,2.0,64.0
21224,86.0,0,90,0.0,64.0
21225,65.0,0,90,3.0,64.0
21226,62.0,0,90,3.0,64.0
21227,43.0,24,180,6.0,64.0
21228,89.0,0,90,0.0,64.0
21229,67.0,0,90,10.0,64.0
21230,89.0,0,90,7.0,64.0
21231,74.0,120,90,8.0,64.0
21232,67.0,0,90,10.0,64.0
21233,76.0,0,90,2.0,64.0
21234,72.0,0,90,8.0,64.0
21235,43.0,24,180,6.0,64.0
21236,88.0,0,90,7.0,64.0
21237,84.0,0,90,0.0,64.0
21238,43.0,0,90,12.0,64.0
21239,76.0,0,90,1.0,64.0
21240,62.0,96,90,4.0,64.0
21241,88.0,0,90,0.0,64.0
21242,55.0,0,90,4.0,64.0
21243,64.0,0,90,3.0,64.0
21244,67.0,0,90,10.0,64.0
21245,60.0,0,90,3.0,64.0
21246,67.0,0,90,5.0,64.0
21247,72.0,0,90,1.0,64.0
21248,72.0,0,90,2.0,64.0
21249,55.0,0,90,11.0,64.0
21250,55.0,0,90,5.0,64.0
21251,74.0,0,90,8.0,64.0
21252,65.0,0,90,3.0,64.0
21253,77.0,0,90,1.0,64.0
21254,62.0,0,90,3.0,64.0
21255,74.0,0,90,1.0,64.0
21256,89.0,0,90,0.0,64.0
21257,67.0,0,90,10.0,64.0
21258,89.0,120,90,7.0,64.0
21259,77.0,0,90,2.0,64.0
21260,74.0,0,90,2.0,64.0
21261,86.0,0,90,0.0,64.0
21262,79.0,0,90,1.0,64.0
21263,76.0,0,90,8.0,64.0
21264,64.0,0,90,3.0,64.0
21265,43.0,0,90,12.0,64.0
21266,91.0,0,90,7.0,64.0
21267,88.0,0,90,0.0,64.0
21268,76.0,0,90,1.0,64.0
21269,55.0,96,90,11.0,64.0
21270,67.0,0,90,5.0,64.0
21271,55.0,0,90,5.0,64.0
21272,55.0,0,90,4.0,64.0
21273,62.0,0,90,4.0,64.0
21274,91.0,0,90,0.0,64.0
21275,67.0,0,90,3.0,64.0
21276,67.0,0,90,10.0,64.0
21277,76.0,0,90,2.0,64.0
21278,79.0,0,90,2.0,64.0
21279,43.0,24,180,6.0,64.0
21280,76.0,120,90,8.0,64.0
21281,91.0,0,90,7.0,64.0
21282,67.0,0,90,10.0,64.0
21283,86.0,0,90,0.0,64.0
21284,74.0,0,90,1.0,64.0
21285,67.0,0,90,10.0,64.0
21286,89.0,0,90,7.0,64.0
21287,31.0,0,90,12.0,64.0
21288,89.0,120,90,0.0,64.0
21289,74.0,0,90,8.0,64.0
21290,77.0,0,90,1.0,64.0
21291,77.0,0,90,2.0,64.0
21292,74.0,0,90,2.0,64.0
21293,62.0,0,90,3.0,64.0
21294,65.0,0,90,3.0,64.0
21295,43.0,0,90,11.0,64.0
21296,89.0,120,90,7.0,64.0
21297,67.0,0,90,10.0,64.0
21298,74.0,0,90,8.0,64.0
21299,88.0,0,90,0.0,64.0
21300,36.0,0,90,12.0,64.0
21301,67.0,0,180,5.0,64.0
21302,60.0,0,180,5.0,64.0
21303,84.0,0,90,0.0,64.0
21304,60.0,96,90,3.0,64.0
21305,48.0,0,90,11.0,64.0
21306,64.0,0,180,4.0,64.0
21307,76.0,0,90,1.0,64.0
21308,64.0,0,90,3.0,64.0
21309,60.0,24,180,4.0,64.0
21310,48.0,72,390,6.0,64.0
21311,72.0,0,90,1.0,64.0
21312,88.0,0,90,7.0,64.0
21313,72.0,0,90,2.0,64.0
21314,76.0,0,90,2.0,64.0
21315,72.0,0,90,8.0,64.0
21316,67.0,0,90,10.0,64.0
21317,72.0,0,90,8.0,64.0
21318,67.0,120,90,10.0,64.0
21319,88.0,0,90,7.0,64.0
21320,60.0,48,90,11.0,64.0
21321,86.0,0,90,7.0,64.0
21322,71.0,0,90,8.0,64.0
21323,67.0,0,90,10.0,64.0
21324,48.0,0,90,12.0,64.0
21325,72.0,0,90,8.0,64.0
21326,67.0,0,90,10.0,64.0
21327,88.0,120,90,7.0,64.0
21328,60.0,0,90,11.0,64.0
21329,74.0,0,90,8.0,64.0
21330,89.0,120,90,7.0,64.0
21331,48.0,0,90,12.0,64.0
21332,67.0,0,90,10.0,64.0
21333,74.0,0,90,8.0,64.0
21334,67.0,120,90,10.0,64.0
21335,89.0,0,90,7.0,64.0
21336,72.0,0,90,8.0,64.0
21337,88.0,120,90,7.0,64.0
21338,67.0,0,90,10.0,64.0
21339,36.0,0,90,12.0,64.0
21340,48.0,0,90,11.0,64.0
21341,88.0,120,90,7.0,64.0
21342,72.0,0,90,8.0,64.0
21343,67.0,0,90,10.0,64.0
21344,74.0,0,90,2.0,64.0
21345,77.0,0,90,2.0,64.0
21346,43.0,0,90,11.0,64.0
21347,89.0,0,90,7.0,64.0
21348,31.0,0,90,12.0,64.0
21349,62.0,96,90,4.0,64.0
21350,86.0,0,90,0.0,64.0
21351,89.0,0,90,0.0,64.0
21352,74.0,0,90,8.0,64.0
21353,77.0,0,90,1.0,64.0
21354,74.0,0,90,1.0,64.0
21355,55.0,0,90,4.0,64.0
21356,67.0,0,90,10.0,64.0
21357,62.0,0,90,3.0,64.0
21358,65.0,0,90,3.0,64.0
21359,67.0,0,90,5.0,64.0
21360,55.0,0,90,5.0,64.0
21361,43.0,24,180,6.0,64.0
21362,74.0,0,90,8.0,64.0
21363,67.0,0,90,10.0,64.0
21364,89.0,120,90,7.0,64.0
21365,72.0,0,90,1.0,64.0
21366,62.0,0,90,4.0,64.0
21367,55.0,0,90,4.0,64.0
21368,76.0,0,90,1.0,64.0
21369,72.0,0,90,8.0,64.0
21370,55.0,0,90,11.0,64.0
21371,55.0,0,90,5.0,64.0
21372,43.0,96,90,12.0,64.0
21373,60.0,0,90,3.0,64.0
21374,67.0,0,90,5.0,64.0
21375,76.0,0,90,2.0,64.0
21376,72.0,0,90,2.0,64.0
21377,88.0,0,90,7.0,64.0
21378,64.0,0,90,3.0,64.0
21379,67.0,0,90,10.0,64.0
21380,43.0,24,180,6.0,64.0
21381,88.0,0,90,0.0,64.0
21382,84.0,0,90,0.0,64.0
21383,74.0,0,90,1.0,64.0
21384,65.0,120,90,3.0,64.0
21385,89.0,0,90,7.0,64.0
21386,89.0,0,90,0.0,64.0
21387,86.0,0,90,0.0,64.0
21388,67.0,0,90,10.0,64.0
21389,74.0,0,90,2.0,64.0
21390,62.0,0,90,3.0,64.0
21391,77.0,0,90,2.0,64.0
21392,77.0,0,90,1.0,64.0
21393,74.0,0,90,8.0,64.0
21394,64.0,0,90,3.0,64.0
21395,76.0,0,90,2.0,64.0
21396,62.0,0,90,4.0,64.0
21397,55.0,0,90,4.0,64.0
21398,79.0,0,90,1.0,64.0
21399,55.0,0,90,5.0,64.0
21400,67.0,0,90,5.0,64.0
21401,76.0,0,90,8.0,64.0
21402,43.0,0,90,12.0,64.0
21403,88.0,0,90,0.0,64.0
21404,43.0,24,180,6.0,64.0
21405,91.0,0,90,0.0,64.0
21406,91.0,0,90,7.0,64.0
21407,79.0,0,90,2.0,64.0
21408,55.0,96,90,11.0,64.0
21409,76.0,0,90,1.0,64.0
21410,67.0,0,90,3.0,64.0
21411,67.0,0,90,10.0,64.0
21412,91.0,0,90,7.0,64.0
21413,76.0,120,90,8.0,64.0
21414,67.0,0,90,10.0,64.0
21415,74.0,0,90,8.0,64.0
21416,67.0,0,90,10.0,64.0
21417,43.0,0,90,11.0,64.0
21418,31.0,120,90,12.0,64.0
21419,65.0,0,90,3.0,64.0
21420,77.0,0,90,1.0,64.0
21421,89.0,0,90,7.0,64.0
21422,62.0,0,90,3.0,64.0
21423,89.0,0,90,0.0,64.0
21424,74.0,0,90,2.0,64.0
21425,77.0,0,90,2.0,64.0
21426,74.0,0,90,1.0,64.0
21427,86.0,0,90,0.0,64.0
21428,74.0,120,90,8.0,64.0
21429,89.0,0,90,7.0,64.0
21430,67.0,0,90,10.0,64.0
21431,88.0,0,90,0.0,64.0
21432,67.0,0,90,10.0,64.0
21433,88.0,0,90,7.0,64.0
21434,72.0,0,90,8.0,64.0
21435,84.0,0,90,0.0,64.0
21436,60.0,24,180,5.0,64.0
21437,67.0,0,180,5.0,64.0
21438,36.0,0,90,12.0,64.0
21439,48.0,72,390,6.0,64.0
21440,76.0,0,90,1.0,64.0
21441,60.0,0,180,4.0,64.0
21442,64.0,0,180,4.0,64.0
21443,76.0,0,90,2.0,64.0
21444,48.0,0,90,11.0,64.0
21445,60.0,96,90,3.0,64.0
21446,64.0,0,90,3.0,64.0
21447,72.0,0,90,1.0,64.0
21448,72.0,0,90,2.0,64.0
21449,88.0,120,90,7.0,64.0
21450,72.0,0,90,8.0,64.0
21451,67.0,0,90,10.0,64.0
21452,86.0,0,90,7.0,64.0
21453,67.0,0,90,10.0,64.0
21454,48.0,0,90,12.0,64.0
21455,71.0,48,90,8.0,64.0
21456,60.0,0,90,11.0,64.0
21457,67.0,0,90,10.0,64.0
21458,88.0,120,90,7.0,64.0
21459,72.0,0,90,8.0,64.0
21460,67.0,0,90,10.0,64.0
21461,60.0,0,90,11.0,64.0
21462,89.0,0,90,7.0,64.0
21463,74.0,0,90,8.0,64.0
21464,48.0,120,90,12.0,64.0
21465,74.0,0,90,8.0,64.0
21466,67.0,120,90,10.0,64.0
21467,89.0,0,90,7.0,64.0
21468,88.0,0,90,7.0,64.0
21469,67.0,0,90,10.0,64.0
21470,48.0,120,90,11.0,64.0
21471,72.0,0,90,8.0,64.0
21472,36.0,0,90,12.0,64.0
21473,67.0,120,90,10.0,64.0
21474,72.0,0,90,8.0,64.0
21475,88.0,0,90,7.0,64.0
21476,55.0,0,90,5.0,64.0
21477,43.0,24,180,6.0,64.0
21478,67.0,0,90,5.0,64.0
21479,65.0,0,90,4.0,64.0
21480,55.0,0,90,4.0,64.0
21481,62.0,0,90,4.0,64.0
21482,89.0,0,90,7.0,64.0
21483,74.0,0,90,2.0,64.0
21484,77.0,0,90,2.0,64.0
21485,74.0,96,90,8.0,64.0
21486,62.0,0,90,3.0,64.0
21487,65.0,0,90,3.0,64.0
21488,43.0,0,90,11.0,64.0
21489,67.0,0,90,10.0,64.0
21490,31.0,0,90,12.0,64.0
21491,74.0,0,90,1.0,64.0
21492,77.0,0,90,1.0,64.0
21493,89.0,0,90,0.0,64.0
21494,86.0,0,90,0.0,64.0
21495,89.0,0,90,7.0,64.0
21496,74.0,0,90,8.0,64.0
21497,67.0,120,90,10.0,64.0
21498,72.0,0,90,8.0,64.0
21499,62.0,96,90,4.0,64.0
21500,72.0,0,90,1.0,64.0
21501,43.0,24,180,6.0,64.0
21502,67.0,0,90,10.0,64.0
21503,43.0,0,90,12.0,64.0
21504,84.0,0,90,0.0,64.0
21505,88.0,0,90,0.0,64.0
21506,76.0,0,90,1.0,64.0
21507,64.0,0,90,3.0,64.0
21508,60.0,0,90,3.0,64.0
21509,76.0,0,90,2.0,64.0
21510,65.0,0,90,4.0,64.0
21511,55.0,0,90,4.0,64.0
21512,55.0,0,90,11.0,64.0
21513,88.0,0,90,7.0,64.0
21514,67.0,0,90,5.0,64.0
21515,55.0,0,90,5.0,64.0
21516,72.0,0,90,2.0,64.0
21517,86.0,0,90,0.0,64.0
21518,89.0,0,90,0.0,64.0
21519,77.0,120,90,1.0,64.0
21520,74.0,0,90,1.0,64.0
21521,67.0,0,90,10.0,64.0
21522,77.0,0,90,2.0,64.0
21523,74.0,0,90,2.0,64.0
21524,65.0,0,90,3.0,64.0
21525,62.0,0,90,3.0,64.0
21526,74.0,0,90,8.0,64.0
21527,89.0,0,90,7.0,64.0
21528,43.0,24,180,6.0,64.0
21529,79.0,0,90,2.0,64.0
21530,76.0,0,90,2.0,64.0
21531,55.0,0,90,5.0,64.0
21532,67.0,0,90,5.0,64.0
21533,91.0,0,90,0.0,64.0
21534,88.0,0,90,0.0,64.0
21535,79.0,0,90,1.0,64.0
21536,76.0,0,90,1.0,64.0
21537,67.0,96,90,10.0,64.0
21538,55.0,0,90,11.0,64.0
21539,43.0,0,90,12.0,64.0
21540,65.0,0,90,4.0,64.0
21541,91.0,0,90,7.0,64.0
21542,62.0,0,90,4.0,64.0
21543,55.0,0,90,4.0,64.0
21544,67.0,0,90,3.0,64.0
21545,76.0,0,90,8.0,64.0
21546,64.0,0,90,3.0,64.0
21547,76.0,0,90,8.0,64.0
21548,91.0,0,90,7.0,64.0
21549,67.0,120,90,10.0,64.0
21550,89.0,0,90,7.0,64.0
21551,31.0,0,90,12.0,64.0
21552,67.0,0,90,10.0,64.0
21553,74.0,0,90,8.0,64.0
21554,77.0,0,90,2.0,64.0
21555,43.0,0,90,11.0,64.0
21556,74.0,0,90,1.0,64.0
21557,77.0,0,90,1.0,64.0
21558,89.0,0,90,0.0,64.0
21559,86.0,0,90,0.0,64.0
21560,65.0,0,90,3.0,64.0
21561,74.0,120,90,2.0,64.0
21562,62.0,0,90,3.0,64.0
21563,89.0,120,90,7.0,64.0
21564,67.0,0,90,10.0,64.0
21565,74.0,0,90,8.0,64.0
21566,48.0,24,180,6.0,64.0
21567,60.0,0,90,3.0,64.0
21568,84.0,0,90,0.0,64.0
21569,72.0,0,90,2.0,64.0
21570,88.0,0,90,0.0,64.0
21571,88.0,0,90,7.0,64.0
21572,76.0,0,90,2.0,64.0
21573,67.0,0,90,10.0,64.0
21574,55.0,0,90,4.0,64.0
21575,60.0,0,90,4.0,64.0
21576,64.0,0,90,4.0,64.0
21577,48.0,0,90,11.0,64.0
21578,67.0,0,90,5.0,64.0
21579,60.0,0,90,5.0,64.0
21580,64.0,0,90,3.0,64.0
21581,76.0,0,90,1.0,64.0
21582,72.0,96,90,1.0,64.0
21583,72.0,0,90,8.0,64.0
21584,36.0,0,90,12.0,64.0
21585,72.0,0,90,8.0,64.0
21586,67.0,120,90,10.0,64.0
21587,88.0,0,90,7.0,64.0
21588,67.0,0,90,5.0,64.0
21589,48.0,24,180,6.0,64.0
21590,71.0,0,90,1.0,64.0
21591,60.0,0,90,11.0,64.0
21592,71.0,96,90,8.0,64.0
21593,60.0,0,90,5.0,64.0
21594,83.0,0,90,0.0,64.0
21595,62.0,0,90,3.0,64.0
21596,74.0,0,90,1.0,64.0
21597,74.0,0,90,2.0,64.0
21598,59.0,0,90,3.0,64.0
21599,48.0,0,90,12.0,64.0
21600,64.0,0,90,4.0,64.0
21601,60.0,0,90,4.0,64.0
21602,55.0,0,90,4.0,64.0
21603,86.0,0,90,7.0,64.0
21604,67.0,0,90,10.0,64.0
21605,86.0,0,90,0.0,64.0
21606,71.0,0,90,2.0,64.0
21607,64.0,0,90,3.0,64.0
21608,60.0,0,90,3.0,64.0
21609,67.0,0,90,10.0,64.0
21610,84.0,0,90,0.0,64.0
21611,88.0,0,90,0.0,64.0
21612,76.0,0,90,2.0,64.0
21613,72.0,0,90,2.0,64.0
21614,76.0,120,90,1.0,64.0
21615,88.0,0,90,7.0,64.0
21616,72.0,0,90,8.0,64.0
21617,72.0,0,90,1.0,64.0
21618,62.0,0,90,3.0,64.0
21619,67.0,0,90,10.0,64.0
21620,89.0,0,90,7.0,64.0
21621,64.0,0,90,4.0,64.0
21622,55.0,0,90,4.0,64.0
21623,48.0,24,180,6.0,64.0
21624,65.0,96,90,3.0,64.0
21625,74.0,0,90,1.0,64.0
21626,60.0,0,90,11.0,64.0
21627,60.0,0,90,4.0,64.0
21628,60.0,0,90,5.0,64.0
21629,67.0,0,90,5.0,64.0
21630,77.0,0,90,2.0,64.0
21631,48.0,0,90,12.0,64.0
21632,74.0,0,90,8.0,64.0
21633,86.0,0,90,0.0,64.0
21634,89.0,0,90,0.0,64.0
21635,77.0,0,90,1.0,64.0
21636,74.0,0,90,2.0,64.0
21637,67.0,0,90,10.0,64.0
21638,74.0,120,90,8.0,64.0
21639,89.0,0,90,7.0,64.0
21640,67.0,0,90,10.0,64.0
21641,88.0,0,90,0.0,64.0
21642,76.0,0,90,2.0,64.0
21643,88.0,0,90,7.0,64.0
21644,72.0,120,90,8.0,64.0
21645,36.0,0,90,12.0,64.0
21646,72.0,0,90,2.0,64.0
21647,72.0,0,90,1.0,64.0
21648,76.0,0,90,1.0,64.0
21649,48.0,0,90,11.0,64.0
21650,84.0,0,90,0.0,64.0
21651,60.0,0,90,3.0,64.0
21652,64.0,0,90,3.0,64.0
21653,72.0,0,90,8.0,64.0
21654,88.0,0,90,7.0,64.0
21655,67.0,120,90,10.0,64.0
21656,31.0,0,90,12.0,64.0
21657,62.0,0,90,4.0,64.0
21658,55.0,0,90,4.0,64.0
21659,43.0,24,180,6.0,64.0
21660,65.0,0,90,4.0,64.0
21661,77.0,0,90,2.0,64.0
21662,74.0,0,90,1.0,64.0
21663,65.0,0,90,3.0,64.0
21664,62.0,0,90,3.0,64.0
21665,55.0,96,90,5.0,64.0
21666,67.0,0,90,5.0,64.0
21667,74.0,0,90,8.0,64.0
21668,86.0,0,90,0.0,64.0
21669,89.0,0,90,0.0,64.0
21670,89.0,0,90,7.0,64.0
21671,77.0,0,90,1.0,64.0
21672,74.0,0,90,2.0,64.0
21673,67.0,0,90,10.0,64.0
21674,43.0,0,90,11.0,64.0
21675,74.0,120,90,8.0,64.0
21676,89.0,0,90,7.0,64.0
21677,67.0,0,90,10.0,64.0
21678,43.0,0,90,12.0,64.0
21679,55.0,0,90,4.0,64.0
21680,62.0,0,90,4.0,64.0
21681,65.0,0,90,4.0,64.0
21682,67.0,0,90,5.0,64.0
21683,55.0,0,90,5.0,64.0
21684,76.0,0,90,1.0,64.0
21685,72.0,0,90,8.0,64.0
21686,88.0,0,90,7.0,64.0
21687,60.0,0,90,3.0,64.0
21688,64.0,0,90,3.0,64.0
21689,43.0,24,180,6.0,64.0
21690,84.0,0,90,0.0,64.0
21691,88.0,0,90,0.0,64.0
21692,55.0,0,90,11.0,64.0
21693,76.0,0,90,2.0,64.0
21694,72.0,0,90,2.0,64.0
21695,72.0,96,90,1.0,64.0
21696,67.0,0,90,10.0,64.0
21697,77.0,0,90,1.0,64.0
21698,74.0,0,90,1.0,64.0
21699,89.0,0,90,7.0,64.0
21700,65.0,0,90,3.0,64.0
21701,62.0,0,90,3.0,64.0
21702,77.0,0,90,2.0,64.0
21703,74.0,0,90,2.0,64.0
21704,86.0,0,90,0.0,64.0
21705,67.0,120,90,10.0,64.0
21706,74.0,0,90,8.0,64.0
21707,89.0,0,90,0.0,64.0
21708,67.0,0,90,5.0,64.0
21709,55.0,0,90,5.0,64.0
21710,43.0,24,180,6.0,64.0
21711,43.0,0,90,12.0,64.0
21712,64.0,0,90,3.0,64.0
21713,91.0,0,90,7.0,64.0
21714,76.0,0,90,8.0,64.0
21715,62.0,0,90,4.0,64.0
21716,65.0,0,90,4.0,64.0
21717,55.0,0,90,4.0,64.0
21718,79.0,0,90,2.0,64.0
21719,67.0,0,90,10.0,64.0
21720,79.0,0,90,1.0,64.0
21721,76.0,0,90,2.0,64.0
21722,55.0,0,90,11.0,64.0
21723,67.0,0,90,3.0,64.0
21724,91.0,0,90,0.0,64.0
21725,88.0,0,90,0.0,64.0
21726,76.0,96,90,1.0,64.0
21727,91.0,120,90,7.0,64.0
21728,67.0,0,90,10.0,64.0
21729,76.0,0,90,8.0,64.0
21730,77.0,0,90,1.0,64.0
21731,74.0,0,90,1.0,64.0
21732,43.0,0,90,11.0,64.0
21733,77.0,0,90,2.0,64.0
21734,86.0,0,90,0.0,64.0
21735,89.0,0,90,0.0,64.0
21736,65.0,0,90,3.0,64.0
21737,62.0,0,90,3.0,64.0
21738,67.0,0,90,10.0,64.0
21739,74.0,0,90,8.0,64.0
21740,74.0,0,90,2.0,64.0
21741,89.0,120,90,7.0,64.0
21742,31.0,0,90,12.0,64.0
21743,74.0,0,90,8.0,64.0
21744,67.0,0,90,10.0,64.0
21745,89.0,120,90,7.0,64.0
21746,76.0,0,90,1.0,64.0
21747,48.0,0,480,11.0,64.0
21748,88.0,0,90,7.0,64.0
21749,84.0,0,90,0.0,64.0
21750,88.0,0,90,0.0,64.0
21751,72.0,0,90,8.0,64.0
21752,72.0,0,90,2.0,64.0
21753,76.0,0,90,2.0,64.0
21754,48.0,72,390,6.0,64.0
21755,72.0,96,90,1.0,64.0
21756,36.0,96,480,12.0,64.0
21757,60.0,24,180,5.0,64.0
21758,67.0,0,180,5.0,64.0
21759,60.0,0,90,3.0,64.0
21760,64.0,0,90,3.0,64.0
21761,64.0,0,180,4.0,64.0
21762,60.0,0,180,4.0,64.0
21763,67.0,0,90,10.0,64.0
21764,67.0,120,90,10.0,64.0
21765,72.0,0,90,8.0,64.0
21766,88.0,0,90,7.0,64.0
21767,88.0,0,90,0.0,64.0
21768,91.0,0,90,7.0,64.0
21769,67.0,48,90,2.0,64.0
21770,55.0,0,90,3.0,64.0
21771,52.0,0,90,3.0,64.0
21772,91.0,0,90,0.0,64.0
21773,67.0,0,90,10.0,64.0
21774,64.0,0,90,2.0,64.0
21775,76.0,0,90,1.0,64.0
21776,79.0,0,90,1.0,64.0
21777,71.0,0,90,8.0,64.0
21778,72.0,0,90,8.0,64.0
21779,67.0,0,90,10.0,64.0
21780,91.0,24,90,7.0,64.0
21781,74.0,0,90,8.0,64.0
21782,55.0,0,90,3.0,64.0
21783,64.0,0,90,2.0,64.0
21784,67.0,120,90,2.0,64.0
21785,52.0,0,90,3.0,64.0
21786,91.0,0,90,7.0,64.0
21787,91.0,0,90,0.0,64.0
21788,67.0,0,90,10.0,64.0
21789,88.0,0,90,0.0,64.0
21790,76.0,0,90,1.0,64.0
21791,79.0,0,90,1.0,64.0
21792,67.0,0,90,10.0,64.0
21793,74.0,0,90,8.0,64.0
21794,91.0,120,90,7.0,64.0
21795,53.0,0,90,3.0,64.0
21796,89.0,0,90,7.0,64.0
21797,65.0,0,90,4.0,64.0
21798,55.0,0,90,4.0,64.0
21799,62.0,0,90,4.0,64.0
21800,67.0,0,90,5.0,64.0
21801,72.0,0,90,8.0,64.0
21802,55.0,0,90,5.0,64.0
21803,43.0,24,180,6.0,64.0
21804,74.0,0,90,1.0,64.0
21805,77.0,0,90,1.0,64.0
21806,43.0,0,120,11.0,64.0
21807,31.0,60,120,12.0,64.0
21808,86.0,0,90,0.0,64.0
21809,89.0,0,90,0.0,64.0
21810,67.0,24,90,10.0,64.0
21811,65.0,0,90,2.0,64.0
21812,50.0,0,90,3.0,64.0
21813,62.0,0,90,2.0,64.0
21814,45.0,0,60,11.0,64.0
21815,89.0,24,90,7.0,64.0
21816,72.0,0,90,8.0,64.0
21817,67.0,0,90,10.0,64.0
21818,33.0,12,60,12.0,64.0
21819,47.0,0,60,11.0,64.0
21820,35.0,96,60,12.0,64.0
21821,64.0,0,90,2.0,64.0
21822,67.0,0,90,10.0,64.0
21823,48.0,96,480,11.0,64.0
21824,88.0,0,90,7.0,64.0
21825,67.0,0,180,5.0,64.0
21826,88.0,0,90,0.0,64.0
21827,84.0,0,90,0.0,64.0
21828,72.0,0,90,8.0,64.0
21829,60.0,24,180,4.0,64.0
21830,64.0,0,180,4.0,64.0
21831,76.0,0,90,1.0,64.0
21832,72.0,0,90,1.0,64.0
21833,48.0,72,390,6.0,64.0
21834,60.0,0,90,2.0,64.0
21835,48.0,96,90,3.0,64.0
21836,60.0,0,180,5.0,64.0
21837,52.0,0,90,3.0,64.0
21838,36.0,0,480,12.0,64.0
21839,88.0,0,90,7.0,64.0
21840,67.0,120,90,10.0,64.0
21841,72.0,0,90,8.0,64.0
21842,91.0,0,90,7.0,64.0
21843,91.0,0,90,0.0,64.0
21844,88.0,0,90,0.0,64.0
21845,79.0,0,90,1.0,64.0
21846,76.0,0,90,1.0,64.0
21847,67.0,0,90,2.0,64.0
21848,71.0,0,90,8.0,64.0
21849,64.0,0,90,2.0,64.0
21850,52.0,0,90,3.0,64.0
21851,67.0,48,90,10.0,64.0
21852,55.0,0,90,3.0,64.0
21853,67.0,0,90,10.0,64.0
21854,91.0,0,90,7.0,64.0
21855,72.0,24,90,8.0,64.0
21856,74.0,0,90,8.0,64.0
21857,91.0,0,90,0.0,64.0
21858,91.0,0,90,7.0,64.0
21859,76.0,0,90,1.0,64.0
21860,64.0,0,90,2.0,64.0
21861,79.0,0,90,1.0,64.0
21862,88.0,0,90,0.0,64.0
21863,67.0,0,90,10.0,64.0
21864,55.0,120,90,3.0,64.0
21865,52.0,0,90,3.0,64.0
21866,67.0,0,90,2.0,64.0
21867,91.0,120,90,7.0,64.0
21868,67.0,0,90,10.0,64.0
21869,74.0,0,90,8.0,64.0
21870,65.0,0,90,2.0,64.0
21871,67.0,24,90,10.0,64.0
21872,89.0,0,90,7.0,64.0
21873,77.0,0,90,1.0,64.0
21874,55.0,0,90,5.0,64.0
21875,50.0,0,90,3.0,64.0
21876,62.0,0,90,4.0,64.0
21877,53.0,0,90,3.0,64.0
21878,31.0,0,120,12.0,64.0
21879,62.0,0,90,2.0,64.0
21880,72.0,0,90,8.0,64.0
21881,67.0,0,90,5.0,64.0
21882,43.0,24,180,6.0,64.0
21883,55.0,0,90,4.0,64.0
21884,43.0,60,120,11.0,64.0
21885,89.0,0,90,0.0,64.0
21886,86.0,0,90,0.0,64.0
21887,74.0,0,90,1.0,64.0
21888,65.0,0,90,4.0,64.0
21889,45.0,12,60,11.0,64.0
21890,72.0,24,90,8.0,64.0
21891,89.0,0,90,7.0,64.0
21892,33.0,0,60,12.0,64.0
21893,67.0,0,90,10.0,64.0
21894,35.0,96,60,12.0,64.0
21895,47.0,0,60,11.0,64.0
21896,60.0,0,90,2.0,64.0
21897,36.0,0,480,12.0,64.0
21898,72.0,0,90,1.0,64.0
21899,76.0,0,90,1.0,64.0
21900,88.0,0,90,0.0,64.0
21901,84.0,0,90,0.0,64.0
21902,72.0,0,90,8.0,64.0
21903,48.0,72,390,6.0,64.0
21904,64.0,0,180,4.0,64.0
21905,88.0,0,90,7.0,64.0
21906,52.0,0,90,3.0,64.0
21907,60.0,0,180,4.0,64.0
21908,67.0,0,90,10.0,64.0
21909,67.0,24,180,5.0,64.0
21910,60.0,0,180,5.0,64.0
21911,64.0,0,90,2.0,64.0
21912,48.0,96,90,3.0,64.0
21913,48.0,96,480,11.0,64.0
21914,67.0,120,90,10.0,64.0
21915,72.0,0,90,8.0,64.0
21916,88.0,0,90,7.0,64.0
21917,67.0,0,90,10.0,64.0
21918,91.0,0,90,7.0,64.0
21919,64.0,0,90,2.0,64.0
21920,67.0,0,90,2.0,64.0
21921,88.0,48,90,0.0,64.0
21922,91.0,0,90,0.0,64.0
21923,71.0,0,90,8.0,64.0
21924,55.0,0,90,3.0,64.0
21925,52.0,0,90,3.0,64.0
21926,76.0,0,90,1.0,64.0
21927,79.0,0,90,1.0,64.0
21928,91.0,24,90,7.0,64.0
21929,67.0,0,90,10.0,64.0
21930,72.0,0,90,8.0,64.0
21931,52.0,0,90,3.0,64.0
21932,76.0,120,90,1.0,64.0
21933,79.0,0,90,1.0,64.0
21934,55.0,0,90,3.0,64.0
21935,91.0,0,90,0.0,64.0
21936,74.0,0,90,8.0,64.0
21937,88.0,0,90,0.0,64.0
21938,91.0,0,90,7.0,64.0
21939,64.0,0,90,2.0,64.0
21940,67.0,0,90,2.0,64.0
21941,67.0,0,90,10.0,64.0
21942,91.0,0,90,7.0,64.0
21943,67.0,120,90,10.0,64.0
21944,74.0,0,90,8.0,64.0
21945,65.0,0,90,2.0,64.0
21946,53.0,0,90,3.0,64.0
21947,72.0,0,90,8.0,64.0
21948,50.0,0,90,3.0,64.0
21949,74.0,0,90,1.0,64.0
21950,77.0,0,90,1.0,64.0
21951,43.0,24,180,6.0,64.0
21952,31.0,60,120,12.0,64.0
21953,65.0,0,90,4.0,64.0
21954,55.0,0,90,4.0,64.0
21955,55.0,0,90,5.0,64.0
21956,89.0,0,90,0.0,64.0
21957,67.0,24,90,10.0,64.0
21958,43.0,0,120,11.0,64.0
21959,67.0,0,90,5.0,64.0
21960,89.0,0,90,7.0,64.0
21961,86.0,0,90,0.0,64.0
21962,62.0,0,90,2.0,64.0
21963,62.0,0,90,4.0,64.0
21964,45.0,0,60,11.0,64.0
21965,72.0,24,90,8.0,64.0
21966,89.0,0,90,7.0,64.0
21967,67.0,0,90,10.0,64.0
21968,33.0,12,60,12.0,64.0
21969,47.0,96,60,11.0,64.0
21970,35.0,0,60,12.0,64.0
21971,64.0,0,90,2.0,64.0
21972,60.0,0,90,2.0,64.0
21973,67.0,0,180,5.0,64.0
21974,60.0,0,180,5.0,64.0
21975,84.0,0,90,0.0,64.0
21976,88.0,0,90,0.0,64.0
21977,60.0,0,180,4.0,64.0
21978,48.0,0,480,11.0,64.0
21979,52.0,0,90,3.0,64.0
21980,48.0,0,90,3.0,64.0
21981,36.0,96,480,12.0,64.0
21982,76.0,96,90,1.0,64.0
21983,67.0,0,90,10.0,64.0
21984,48.0,72,390,6.0,64.0
21985,64.0,24,180,4.0,64.0
21986,72.0,0,90,1.0,64.0
21987,88.0,0,90,7.0,64.0
21988,72.0,0,90,8.0,64.0
21989,67.0,0,90,10.0,64.0
21990,88.0,0,90,7.0,64.0
21991,72.0,120,90,8.0,64.0
21992,52.0,0,90,3.0,64.0
21993,55.0,0,90,3.0,64.0
21994,76.0,0,90,1.0,64.0
21995,64.0,0,90,2.0,64.0
21996,79.0,0,90,1.0,64.0
21997,91.0,0,90,7.0,64.0
21998,88.0,0,90,0.0,64.0
21999,71.0,0,90,8.0,64.0
22000,67.0,0,90,10.0,64.0
22001,67.0,0,90,2.0,64.0
22002,91.0,48,90,0.0,64.0
22003,67.0,0,90,10.0,64.0
22004,72.0,0,90,8.0,64.0
22005,91.0,24,90,7.0,64.0
22006,74.0,0,90,8.0,64.0
22007,91.0,0,90,7.0,64.0
22008,76.0,0,90,1.0,64.0
22009,91.0,120,90,0.0,64.0
22010,88.0,0,90,0.0,64.0
22011,67.0,0,90,10.0,64.0
22012,67.0,0,90,2.0,64.0
22013,52.0,0,90,3.0,64.0
22014,55.0,0,90,3.0,64.0
22015,64.0,0,90,2.0,64.0
22016,79.0,0,90,1.0,64.0
22017,74.0,0,90,8.0,64.0
22018,91.0,0,90,7.0,64.0
22019,67.0,120,90,10.0,64.0
22020,65.0,0,90,2.0,64.0
22021,67.0,0,90,5.0,64.0
22022,89.0,0,90,7.0,64.0
22023,43.0,24,180,6.0,64.0
22024,43.0,0,120,11.0,64.0
22025,55.0,0,90,5.0,64.0
22026,62.0,0,90,2.0,64.0
22027,72.0,0,90,8.0,64.0
22028,31.0,60,120,12.0,64.0
22029,77.0,0,90,1.0,64.0
22030,53.0,0,90,3.0,64.0
22031,50.0,0,90,3.0,64.0
22032,55.0,0,90,4.0,64.0
22033,65.0,24,90,4.0,64.0
22034,74.0,0,90,1.0,64.0
22035,62.0,0,90,4.0,64.0
22036,67.0,0,90,10.0,64.0
22037,86.0,0,90,0.0,64.0
22038,89.0,0,90,0.0,64.0
22039,72.0,0,90,8.0,64.0
22040,67.0,24,90,10.0,64.0
22041,89.0,0,90,7.0,64.0
22042,45.0,0,60,11.0,64.0
22043,33.0,12,60,12.0,64.0
22044,47.0,0,60,11.0,64.0
22045,35.0,96,60,12.0,64.0
22046,48.0,0,90,3.0,64.0
22047,64.0,0,90,2.0,64.0
22048,72.0,0,90,8.0,64.0
22049,48.0,96,90,11.0,64.0
22050,60.0,0,180,5.0,64.0
22051,88.0,0,90,7.0,64.0
22052,48.0,72,390,6.0,64.0
22053,52.0,0,90,3.0,64.0
22054,67.0,24,180,5.0,64.0
22055,60.0,0,90,2.0,64.0
22056,60.0,0,180,4.0,64.0
22057,88.0,0,90,0.0,64.0
22058,84.0,0,90,0.0,64.0
22059,64.0,0,180,4.0,64.0
22060,36.0,0,90,12.0,64.0
22061,72.0,0,90,1.0,64.0
22062,76.0,0,90,1.0,64.0
22063,67.0,0,90,10.0,64.0
22064,36.0,0,90,12.0,64.0
22065,60.0,0,90,8.0,64.0
22066,72.0,120,90,7.0,64.0
22067,48.0,0,90,11.0,64.0
22068,38.0,0,90,12.0,64.0
22069,88.0,0,90,0.0,64.0
22070,55.0,0,90,3.0,64.0
22071,52.0,0,90,3.0,64.0
22072,91.0,0,90,0.0,64.0
22073,64.0,48,90,2.0,64.0
22074,50.0,0,90,11.0,64.0
22075,67.0,0,90,2.0,64.0
22076,62.0,0,90,8.0,64.0
22077,74.0,0,90,7.0,64.0
22078,79.0,0,90,1.0,64.0
22079,76.0,0,90,1.0,64.0
22080,40.0,0,90,12.0,64.0
22081,76.0,0,90,7.0,64.0
22082,52.0,0,90,11.0,64.0
22083,64.0,120,90,8.0,64.0
22084,41.0,0,90,12.0,64.0
22085,53.0,0,90,11.0,64.0
22086,88.0,0,90,0.0,64.0
22087,91.0,0,90,0.0,64.0
22088,77.0,0,90,7.0,64.0
22089,65.0,120,90,8.0,64.0
22090,64.0,0,90,2.0,64.0
22091,76.0,0,90,1.0,64.0
22092,55.0,0,90,3.0,64.0
22093,52.0,0,90,3.0,64.0
22094,79.0,0,90,1.0,64.0
22095,67.0,0,90,2.0,64.0
22096,55.0,120,90,11.0,64.0
22097,67.0,0,90,8.0,64.0
22098,79.0,0,90,7.0,64.0
22099,43.0,0,90,12.0,64.0
22100,65.0,0,90,2.0,64.0
22101,77.0,0,90,1.0,64.0
22102,55.0,0,90,5.0,64.0
22103,69.0,0,90,8.0,64.0
22104,86.0,0,90,0.0,64.0
22105,89.0,0,90,0.0,64.0
22106,43.0,24,180,6.0,64.0
22107,57.0,0,90,11.0,64.0
22108,67.0,0,90,5.0,64.0
22109,62.0,96,90,2.0,64.0
22110,74.0,0,90,1.0,64.0
22111,81.0,0,90,7.0,64.0
22112,50.0,0,90,3.0,64.0
22113,53.0,0,90,3.0,64.0
22114,45.0,0,90,12.0,64.0
22115,65.0,0,90,4.0,64.0
22116,62.0,0,90,4.0,64.0
22117,55.0,0,90,4.0,64.0
22118,47.0,88,90,12.0,64.0
22119,83.0,0,90,7.0,64.0
22120,59.0,0,90,11.0,64.0
22121,71.0,0,90,8.0,64.0
22122,52.0,0,120,3.0,64.0
22123,76.0,0,120,1.0,64.0
22124,72.0,0,120,1.0,64.0
22125,60.0,0,1050,11.0,64.0
22126,72.0,48,1050,8.0,64.0
22127,48.0,0,120,3.0,64.0
22128,48.0,32,60,6.0,64.0
22129,48.0,0,1050,12.0,64.0
22130,84.0,0,1050,7.0,64.0
22131,60.0,0,120,2.0,64.0
22132,84.0,24,120,0.0,64.0
22133,88.0,0,120,0.0,64.0
22134,64.0,24,90,2.0,64.0
22135,60.0,0,1530,5.0,64.0
22136,60.0,0,1530,4.0,64.0
22137,48.0,0,1530,4.0,64.0
22138,72.0,0,1530,5.0,64.0
22139,48.0,80,60,6.0,64.0
22140,60.0,0,120,2.0,64.0
22141,60.0,0,120,1.0,64.0
22142,48.0,64,120,3.0,64.0
22143,72.0,0,120,0.0,64.0
22144,48.0,16,60,6.0,64.0
22145,62.0,0,120,2.0,64.0
22146,74.0,0,120,0.0,64.0
22147,62.0,0,120,1.0,64.0
22148,48.0,56,60,6.0,64.0
22149,50.0,24,120,3.0,64.0
22150,48.0,80,60,6.0,64.0
22151,52.0,0,120,3.0,64.0
22152,64.0,0,120,2.0,64.0
22153,76.0,64,120,0.0,64.0
22154,64.0,0,120,1.0,64.0
22155,48.0,16,60,6.0,64.0
22156,77.0,0,120,0.0,64.0
22157,65.0,0,120,1.0,64.0
22158,65.0,0,120,2.0,64.0
22159,53.0,24,120,3.0,64.0
22160,48.0,56,60,6.0,64.0
22161,48.0,80,60,6.0,64.0
22162,55.0,0,120,3.0,64.0
22163,67.0,0,120,1.0,64.0
22164,79.0,64,120,0.0,64.0
22165,67.0,0,120,2.0,64.0
22166,48.0,16,60,6.0,64.0
22167,48.0,56,60,6.0,64.0
22168,69.0,0,120,1.0,64.0
22169,69.0,24,120,2.0,64.0
22170,57.0,0,120,3.0,64.0
22171,81.0,0,120,0.0,64.0
22172,48.0,80,60,6.0,64.0
22173,83.0,0,120,0.0,64.0
22174,71.0,0,120,1.0,64.0
22175,71.0,0,120,2.0,64.0
22176,59.0,64,120,3.0,64.0
22177,48.0,16,60,6.0,64.0
22178,48.0,32,60,6.0,64.0
22179,60.0,0,1050,3.0,64.0
22180,72.0,0,1050,1.0,64.0
22181,84.0,0,1050,0.0,64.0
22182,72.0,48,1050,2.0,64.0
22183,48.0,72,60,6.0,64.0
22184,40.0,8,90,12.0,64.0
22185,76.0,0,90,7.0,64.0
22186,64.0,0,90,8.0,64.0
22187,52.0,0,90,11.0,64.0
22188,48.0,80,60,6.0,64.0
22189,41.0,48,90,12.0,64.0
22190,65.0,0,90,8.0,64.0
22191,53.0,0,90,11.0,64.0
22192,77.0,0,90,7.0,64.0
22193,48.0,32,60,6.0,64.0
22194,48.0,72,60,6.0,64.0
22195,67.0,8,90,8.0,64.0
22196,79.0,0,90,7.0,64.0
22197,55.0,0,90,11.0,64.0
22198,43.0,0,90,12.0,64.0
22199,48.0,80,60,6.0,64.0
22200,57.0,0,90,11.0,64.0
22201,45.0,48,90,12.0,64.0
22202,48.0,32,60,6.0,64.0
22203,81.0,0,90,7.0,64.0
22204,69.0,0,90,8.0,64.0
22205,48.0,72,60,6.0,64.0
22206,59.0,0,90,11.0,64.0
22207,47.0,8,90,12.0,64.0
22208,71.0,0,90,8.0,64.0
22209,83.0,0,90,7.0,64.0
22210,48.0,80,60,6.0,64.0
22211,60.0,0,90,11.0,64.0
22212,84.0,0,90,7.0,64.0
22213,48.0,48,90,12.0,64.0
22214,72.0,0,90,8.0,64.0
22215,48.0,32,60,6.0,64.0
22216,48.0,72,60,6.0,64.0
22217,86.0,8,90,7.0,64.0
22218,62.0,0,90,11.0,64.0
22219,50.0,0,90,12.0,64.0
22220,74.0,0,90,8.0,64.0
22221,48.0,80,60,6.0,64.0
22222,52.0,0,1530,4.0,64.0
22223,76.0,0,1050,8.0,64.0
22224,64.0,0,1530,4.0,64.0
22225,76.0,0,1530,5.0,64.0
22226,64.0,0,1530,5.0,64.0
22227,52.0,0,1050,12.0,64.0
22228,64.0,0,1050,11.0,64.0
22229,48.0,32,60,6.0,64.0
22230,88.0,24,1050,7.0,64.0
22231,48.0,80,60,6.0,64.0
22232,64.0,64,120,2.0,64.0
22233,76.0,0,120,0.0,64.0
22234,52.0,0,120,3.0,64.0
22235,64.0,0,120,1.0,64.0
22236,48.0,16,60,6.0,64.0
22237,48.0,56,60,6.0,64.0
22238,77.0,0,120,0.0,64.0
22239,65.0,0,120,2.0,64.0
22240,53.0,24,120,3.0,64.0
22241,65.0,0,120,1.0,64.0
22242,48.0,80,60,6.0,64.0
22243,55.0,0,120,3.0,64.0
22244,79.0,0,120,0.0,64.0
22245,67.0,64,120,2.0,64.0
22246,67.0,0,120,1.0,64.0
22247,48.0,16,60,6.0,64.0
22248,57.0,24,120,3.0,64.0
22249,69.0,0,120,1.0,64.0
22250,81.0,0,120,0.0,64.0
22251,48.0,56,60,6.0,64.0
22252,69.0,0,120,2.0,64.0
22253,48.0,80,60,6.0,64.0
22254,71.0,0,120,1.0,64.0
22255,71.0,0,120,2.0,64.0
22256,83.0,64,120,0.0,64.0
22257,59.0,0,120,3.0,64.0
22258,48.0,16,60,6.0,64.0
22259,72.0,0,120,1.0,64.0
22260,72.0,24,120,2.0,64.0
22261,60.0,0,120,3.0,64.0
22262,84.0,0,120,0.0,64.0
22263,48.0,56,60,6.0,64.0
22264,48.0,80,60,6.0,64.0
22265,74.0,64,120,1.0,64.0
22266,62.0,0,120,3.0,64.0
22267,86.0,0,120,0.0,64.0
22268,74.0,0,120,2.0,64.0
22269,48.0,16,60,6.0,64.0
22270,64.0,24,120,3.0,64.0
22271,88.0,0,120,0.0,64.0
22272,76.0,0,120,2.0,64.0
22273,48.0,32,60,6.0,64.0
22274,76.0,0,120,1.0,64.0
22275,48.0,72,60,6.0,64.0
22276,79.0,64,120,0.0,64.0
22277,67.0,0,120,1.0,64.0
22278,55.0,0,90,11.0,64.0
22279,67.0,0,120,2.0,64.0
22280,43.0,0,90,12.0,64.0
22281,55.0,0,120,3.0,64.0
22282,67.0,8,90,8.0,64.0
22283,79.0,0,90,7.0,64.0
22284,48.0,16,60,6.0,64.0
22285,69.0,0,120,1.0,64.0
22286,45.0,0,90,12.0,64.0
22287,57.0,24,90,11.0,64.0
22288,69.0,0,90,8.0,64.0
22289,81.0,0,90,7.0,64.0
22290,69.0,24,120,2.0,64.0
22291,81.0,0,120,0.0,64.0
22292,57.0,0,120,3.0,64.0
22293,48.0,32,60,6.0,64.0
22294,48.0,72,60,6.0,64.0
22295,71.0,8,90,8.0,64.0
22296,83.0,0,90,7.0,64.0
22297,47.0,0,90,12.0,64.0
22298,71.0,0,120,1.0,64.0
22299,59.0,0,90,11.0,64.0
22300,59.0,0,120,3.0,64.0
22301,83.0,0,120,0.0,64.0
22302,71.0,64,120,2.0,64.0
22303,48.0,16,60,6.0,64.0
22304,60.0,0,90,11.0,64.0
22305,60.0,0,120,3.0,64.0
22306,72.0,0,90,8.0,64.0
22307,48.0,32,60,6.0,64.0
22308,48.0,0,90,12.0,64.0
22309,72.0,0,120,2.0,64.0
22310,84.0,24,120,0.0,64.0
22311,72.0,0,120,1.0,64.0
22312,84.0,24,90,7.0,64.0
22313,48.0,72,60,6.0,64.0
22314,74.0,0,120,1.0,64.0
22315,74.0,8,90,8.0,64.0
22316,74.0,0,120,2.0,64.0
22317,50.0,0,90,12.0,64.0
22318,86.0,64,120,0.0,64.0
22319,62.0,0,120,3.0,64.0
22320,62.0,0,90,11.0,64.0
22321,86.0,0,90,7.0,64.0
22322,48.0,16,60,6.0,64.0
22323,64.0,0,120,3.0,64.0
22324,76.0,0,120,1.0,64.0
22325,76.0,24,120,2.0,64.0
22326,64.0,0,90,11.0,64.0
22327,88.0,0,90,7.0,64.0
22328,88.0,0,120,0.0,64.0
22329,52.0,24,90,12.0,64.0
22330,76.0,0,90,8.0,64.0
22331,48.0,32,60,6.0,64.0
22332,48.0,72,60,6.0,64.0
22333,65.0,0,120,3.0,64.0
22334,77.0,96,120,1.0,64.0
22335,53.0,8,90,12.0,64.0
22336,89.0,0,90,7.0,64.0
22337,77.0,0,90,8.0,64.0
22338,77.0,0,120,2.0,64.0
22339,65.0,0,90,11.0,64.0
22340,89.0,0,120,0.0,64.0
22341,48.0,16,60,6.0,64.0
22342,79.0,144,180,5.0,64.0
22343,79.0,0,90,2.0,64.0
22344,91.0,0,90,7.0,64.0
22345,48.0,192,390,6.0,64.0
22346,55.0,0,180,4.0,64.0
22347,67.0,0,90,8.0,64.0
22348,67.0,0,180,5.0,64.0
22349,67.0,96,90,11.0,64.0
22350,67.0,0,180,4.0,64.0
22351,55.0,0,90,12.0,64.0
22352,67.0,0,90,3.0,64.0
22353,79.0,0,90,1.0,64.0
22354,91.0,0,90,0.0,64.0
22355,88.0,0,90,0.0,64.0
22356,76.0,0,90,7.0,64.0
22357,64.0,0,90,11.0,64.0
22358,64.0,0,90,3.0,64.0
22359,52.0,0,90,12.0,64.0
22360,76.0,48,90,2.0,64.0
22361,76.0,0,90,1.0,64.0
22362,72.0,0,180,5.0,64.0
22363,60.0,144,180,5.0,64.0
22364,48.0,192,390,6.0,64.0
22365,79.0,0,90,2.0,64.0
22366,67.0,0,90,11.0,64.0
22367,79.0,0,90,7.0,64.0
22368,55.0,0,90,12.0,64.0
22369,60.0,0,180,4.0,64.0
22370,48.0,0,180,4.0,64.0
22371,79.0,96,90,1.0,64.0
22372,67.0,0,90,3.0,64.0
22373,91.0,0,90,0.0,64.0
22374,59.0,0,90,3.0,64.0
22375,83.0,48,90,0.0,64.0
22376,59.0,0,90,11.0,64.0
22377,71.0,0,90,1.0,64.0
22378,71.0,0,90,7.0,64.0
22379,71.0,0,90,2.0,64.0
22380,47.0,0,90,12.0,64.0
22381,48.0,144,180,4.0,64.0
22382,60.0,0,180,4.0,64.0
22383,60.0,0,90,11.0,64.0
22384,84.0,0,90,0.0,64.0
22385,60.0,0,180,5.0,64.0
22386,48.0,0,90,12.0,64.0
22387,60.0,96,90,3.0,64.0
22388,72.0,0,90,2.0,64.0
22389,72.0,0,90,1.0,64.0
22390,72.0,0,90,7.0,64.0
22391,48.0,192,390,6.0,64.0
22392,72.0,0,180,5.0,64.0
22393,76.0,48,90,2.0,64.0
22394,76.0,0,90,7.0,64.0
22395,64.0,0,90,11.0,64.0
22396,76.0,0,90,1.0,64.0
22397,88.0,0,90,0.0,64.0
22398,64.0,0,90,3.0,64.0
22399,52.0,0,90,12.0,64.0
22400,60.0,0,180,5.0,64.0
22401,72.0,0,180,5.0,64.0
22402,60.0,0,180,4.0,64.0
22403,54.0,0,90,11.0,64.0
22404,48.0,192,390,6.0,64.0
22405,48.0,144,180,4.0,64.0
22406,78.0,0,90,0.0,64.0
22407,66.0,0,90,7.0,64.0
22408,66.0,0,90,1.0,64.0
22409,54.0,96,90,3.0,64.0
22410,42.0,0,90,12.0,64.0
22411,66.0,0,90,2.0,64.0
22412,55.0,0,90,11.0,64.0
22413,55.0,0,90,3.0,64.0
22414,67.0,0,90,7.0,64.0
22415,43.0,0,90,12.0,64.0
22416,79.0,0,90,0.0,64.0
22417,67.0,0,90,1.0,64.0
22418,67.0,48,90,2.0,64.0
22419,60.0,0,90,11.0,64.0
22420,84.0,0,90,0.0,64.0
22421,48.0,144,180,4.0,64.0
22422,72.0,0,90,7.0,64.0
22423,60.0,0,180,4.0,64.0
22424,84.0,0,90,1.0,64.0
22425,72.0,0,180,5.0,64.0
22426,60.0,0,180,5.0,64.0
22427,48.0,96,90,12.0,64.0
22428,48.0,192,390,6.0,64.0
22429,72.0,0,90,2.0,64.0
22430,60.0,0,90,3.0,64.0
22431,75.0,0,90,1.0,64.0
22432,51.0,0,90,11.0,64.0
22433,51.0,0,90,3.0,64.0
22434,63.0,0,90,7.0,64.0
22435,63.0,48,90,2.0,64.0
22436,39.0,0,90,12.0,64.0
22437,75.0,0,90,0.0,64.0
22438,64.0,0,90,2.0,64.0
22439,48.0,144,180,4.0,64.0
22440,64.0,0,90,7.0,64.0
22441,60.0,0,180,4.0,64.0
22442,72.0,0,180,5.0,64.0
22443,48.0,192,390,6.0,64.0
22444,76.0,0,90,1.0,64.0
22445,60.0,0,180,5.0,64.0
22446,40.0,96,90,12.0,64.0
22447,52.0,0,90,3.0,64.0
22448,52.0,0,90,11.0,64.0
22449,76.0,0,90,0.0,64.0
22450,79.0,0,90,1.0,64.0
22451,67.0,48,90,7.0,64.0
22452,67.0,0,90,2.0,64.0
22453,55.0,0,90,3.0,64.0
22454,79.0,0,90,0.0,64.0
22455,43.0,0,90,12.0,64.0
22456,55.0,0,90,11.0,64.0
22457,48.0,0,90,11.0,64.0
22458,48.0,0,180,4.0,64.0
22459,48.0,192,390,6.0,64.0
22460,72.0,144,180,5.0,64.0
22461,36.0,0,90,12.0,64.0
22462,60.0,0,180,4.0,64.0
22463,72.0,0,90,1.0,64.0
22464,60.0,0,180,5.0,64.0
22465,48.0,0,90,3.0,64.0
22466,60.0,0,90,7.0,64.0
22467,72.0,0,90,0.0,64.0
22468,60.0,96,90,2.0,64.0
22469,64.0,0,90,7.0,64.0
22470,64.0,48,90,2.0,64.0
22471,52.0,0,90,3.0,64.0
22472,52.0,0,90,11.0,64.0
22473,76.0,0,90,0.0,64.0
22474,76.0,0,90,1.0,64.0
22475,40.0,0,90,12.0,64.0
22476,47.0,0,90,11.0,64.0
22477,47.0,0,90,3.0,64.0
22478,48.0,192,390,6.0,64.0
22479,71.0,0,90,0.0,64.0
22480,71.0,0,90,1.0,64.0
22481,72.0,0,180,5.0,64.0
22482,60.0,0,180,5.0,64.0
22483,60.0,144,180,4.0,64.0
22484,48.0,0,180,4.0,64.0
22485,59.0,96,90,7.0,64.0
22486,35.0,0,90,12.0,64.0
22487,59.0,0,90,2.0,64.0
22488,60.0,0,90,2.0,64.0
22489,48.0,0,90,11.0,64.0
22490,36.0,0,90,12.0,64.0
22491,60.0,0,90,7.0,64.0
22492,72.0,48,90,1.0,64.0
22493,72.0,0,90,0.0,64.0
22494,48.0,0,90,3.0,64.0
22495,32.0,0,90,12.0,64.0
22496,72.0,0,1890,1.0,64.0
22497,84.0,0,1890,1.0,64.0
22498,60.0,0,1890,5.0,64.0
22499,48.0,0,1890,4.0,64.0
22500,60.0,0,1890,4.0,64.0
22501,72.0,0,1890,5.0,64.0
22502,56.0,120,90,7.0,64.0
22503,60.0,0,1890,2.0,64.0
22504,44.0,0,1890,3.0,64.0
22505,72.0,14,1890,2.0,64.0
22506,48.0,0,90,6.0,64.0
22507,44.0,0,90,11.0,64.0
22508,84.0,0,1890,0.0,64.0
22509,48.0,0,90,6.0,64.0
22510,32.0,0,90,12.0,64.0
22511,44.0,0,90,11.0,64.0
22512,56.0,120,90,7.0,64.0
22513,56.0,0,90,7.0,64.0
22514,48.0,0,90,6.0,64.0
22515,32.0,120,90,12.0,64.0
22516,44.0,0,90,11.0,64.0
22517,44.0,0,90,11.0,64.0
22518,48.0,0,90,6.0,64.0
22519,32.0,0,90,12.0,64.0
22520,56.0,120,90,7.0,64.0
22521,56.0,0,90,7.0,64.0
22522,48.0,0,90,6.0,64.0
22523,32.0,120,90,12.0,64.0
22524,44.0,0,90,11.0,64.0
22525,44.0,120,90,11.0,64.0
22526,48.0,0,90,6.0,64.0
22527,32.0,0,90,12.0,64.0
22528,56.0,0,90,7.0,64.0
22529,32.0,0,90,12.0,64.0
22530,56.0,0,90,7.0,64.0
22531,48.0,0,90,6.0,64.0
22532,44.0,120,90,11.0,64.0
22533,56.0,0,90,7.0,64.0
22534,32.0,0,90,12.0,64.0
22535,48.0,120,90,6.0,64.0
22536,44.0,0,90,11.0,64.0
22537,56.0,0,90,7.0,64.0
22538,48.0,0,90,6.0,64.0
22539,32.0,120,90,12.0,64.0
22540,44.0,0,90,11.0,64.0
22541,32.0,0,90,12.0,64.0
22542,44.0,120,90,11.0,64.0
22543,48.0,0,90,6.0,64.0
22544,56.0,0,90,7.0,64.0
22545,48.0,0,90,6.0,64.0
22546,44.0,0,90,11.0,64.0
22547,32.0,120,90,12.0,64.0
22548,56.0,0,90,7.0,64.0
22549,32.0,0,90,12.0,64.0
22550,44.0,120,90,11.0,64.0
22551,56.0,0,90,7.0,64.0
22552,48.0,0,90,6.0,64.0
22553,32.0,120,90,12.0,64.0
22554,48.0,0,90,6.0,64.0
22555,56.0,0,90,7.0,64.0
22556,44.0,0,90,11.0,64.0
22557,56.0,0,90,7.0,64.0
22558,44.0,0,90,11.0,64.0
22559,48.0,120,90,6.0,64.0
22560,32.0,0,90,12.0,64.0
22561,56.0,0,90,7.0,64.0
22562,44.0,106,90,11.0,64.0
22563,48.0,0,90,6.0,64.0
22564,32.0,0,90,12.0,64.0
22565,56.0,0,90,7.0,64.0
22566,48.0,0,90,6.0,64.0
22567,32.0,120,90,12.0,64.0
22568,44.0,0,90,11.0,64.0
22569,43.0,0,390,11.0,64.0
22570,31.0,72,390,12.0,64.0
22571,67.0,0,180,5.0,64.0
22572,76.0,96,90,1.0,64.0
22573,55.0,0,180,5.0,64.0
22574,43.0,0,180,6.0,64.0
22575,72.0,0,90,1.0,64.0
22576,84.0,0,90,0.0,64.0
22577,76.0,0,90,2.0,64.0
22578,43.0,0,180,3.0,64.0
22579,88.0,0,90,0.0,64.0
22580,55.0,144,180,4.0,64.0
22581,55.0,0,390,7.0,64.0
22582,43.0,0,180,4.0,64.0
22583,72.0,0,90,2.0,64.0
22584,83.0,0,90,0.0,64.0
22585,74.0,0,90,1.0,64.0
22586,71.0,0,90,2.0,64.0
22587,74.0,0,90,2.0,64.0
22588,71.0,0,90,1.0,64.0
22589,86.0,48,90,0.0,64.0
22590,84.0,0,90,0.0,64.0
22591,88.0,0,90,0.0,64.0
22592,76.0,120,90,1.0,64.0
22593,72.0,0,90,1.0,64.0
22594,76.0,0,90,2.0,64.0
22595,72.0,0,90,2.0,64.0
22596,74.0,0,90,2.0,64.0
22597,77.0,0,90,2.0,64.0
22598,77.0,0,90,1.0,64.0
22599,74.0,0,90,1.0,64.0
22600,86.0,240,90,0.0,64.0
22601,89.0,0,90,0.0,64.0
22602,72.0,0,90,2.0,64.0
22603,88.0,0,90,0.0,64.0
22604,76.0,240,90,1.0,64.0
22605,72.0,0,90,1.0,64.0
22606,84.0,0,90,0.0,64.0
22607,76.0,0,90,2.0,64.0
22608,72.0,0,90,2.0,64.0
22609,76.0,0,90,1.0,64.0
22610,72.0,0,90,1.0,64.0
22611,76.0,240,90,2.0,64.0
22612,88.0,0,90,0.0,64.0
22613,84.0,0,90,0.0,64.0
22614,71.0,0,90,2.0,64.0
22615,74.0,0,90,1.0,64.0
22616,74.0,120,90,2.0,64.0
22617,71.0,0,90,1.0,64.0
22618,86.0,0,90,0.0,64.0
22619,83.0,0,90,0.0,64.0
22620,88.0,0,90,0.0,64.0
22621,76.0,0,90,2.0,64.0
22622,72.0,120,90,2.0,64.0
22623,72.0,0,90,1.0,64.0
22624,76.0,0,90,1.0,64.0
22625,84.0,0,90,0.0,64.0
22626,74.0,0,90,2.0,64.0
22627,77.0,0,90,2.0,64.0
22628,74.0,0,90,1.0,64.0
22629,77.0,0,90,1.0,64.0
22630,89.0,0,90,0.0,64.0
22631,86.0,240,90,0.0,64.0
22632,72.0,0,90,2.0,64.0
22633,76.0,0,90,1.0,64.0
22634,72.0,240,90,1.0,64.0
22635,76.0,0,90,2.0,64.0
22636,84.0,0,90,0.0,64.0
22637,88.0,0,90,0.0,64.0
22638,60.0,0,1800,5.0,64.0
22639,48.0,0,90,6.0,64.0
22640,72.0,96,1800,5.0,64.0
22641,44.0,120,90,11.0,64.0
22642,72.0,0,960,1.0,64.0
22643,44.0,0,1920,3.0,64.0
22644,56.0,0,90,7.0,64.0
22645,32.0,0,90,12.0,64.0
22646,84.0,0,1920,0.0,64.0
22647,48.0,0,1800,4.0,64.0
22648,60.0,0,1800,4.0,64.0
22649,48.0,0,90,6.0,64.0
22650,56.0,0,90,7.0,64.0
22651,44.0,120,90,11.0,64.0
22652,32.0,0,90,12.0,64.0
22653,44.0,0,90,11.0,64.0
22654,48.0,0,90,6.0,64.0
22655,32.0,120,90,12.0,64.0
22656,56.0,0,90,7.0,64.0
22657,48.0,0,90,6.0,64.0
22658,56.0,0,90,7.0,64.0
22659,44.0,0,90,11.0,64.0
22660,32.0,120,90,12.0,64.0
22661,48.0,120,90,6.0,64.0
22662,56.0,0,90,7.0,64.0
22663,32.0,0,90,12.0,64.0
22664,44.0,0,90,11.0,64.0
22665,44.0,120,90,11.0,64.0
22666,56.0,0,90,7.0,64.0
22667,32.0,0,90,12.0,64.0
22668,48.0,0,90,6.0,64.0
22669,32.0,0,90,12.0,64.0
22670,56.0,120,90,7.0,64.0
22671,44.0,0,90,11.0,64.0
22672,48.0,0,90,6.0,64.0
22673,32.0,0,90,12.0,64.0
22674,44.0,0,90,11.0,64.0
22675,56.0,24,90,7.0,64.0
22676,48.0,0,90,6.0,64.0
22677,32.0,0,90,12.0,64.0
22678,48.0,0,90,6.0,64.0
22679,56.0,0,90,7.0,64.0
22680,60.0,96,15,2.0,64.0
22681,44.0,120,90,11.0,64.0
22682,77.0,96,960,1.0,64.0
22683,72.0,0,960,1.0,64.0
22684,32.0,0,90,12.0,64.0
22685,56.0,0,90,7.0,64.0
22686,48.0,0,90,6.0,64.0
22687,44.0,120,90,11.0,64.0
22688,48.0,0,90,6.0,64.0
22689,56.0,0,90,7.0,64.0
22690,44.0,120,90,11.0,64.0
22691,32.0,0,90,12.0,64.0
22692,44.0,0,90,11.0,64.0
22693,56.0,120,90,7.0,64.0
22694,48.0,0,90,6.0,64.0
22695,32.0,0,90,12.0,64.0
22696,44.0,0,90,11.0,64.0
22697,48.0,0,90,6.0,64.0
22698,32.0,120,90,12.0,64.0
22699,56.0,0,90,7.0,64.0
22700,44.0,120,90,11.0,64.0
22701,32.0,0,90,12.0,64.0
22702,56.0,0,90,7.0,64.0
22703,56.0,24,90,7.0,64.0
22704,44.0,0,90,11.0,64.0
22705,32.0,0,90,12.0,64.0
22706,32.0,0,90,12.0,64.0
22707,56.0,0,90,7.0,64.0
22708,44.0,24,90,11.0,64.0
22709,62.0,96,1920,2.0,64.0
22710,44.0,0,90,11.0,64.0
22711,56.0,0,90,7.0,64.0
22712,82.0,96,2880,0.0,64.0
22713,65.0,0,15,2.0,64.0
22714,44.0,0,1920,3.0,64.0
22715,74.0,0,1920,1.0,64.0
22716,32.0,120,90,12.0,64.0
22717,77.0,0,1920,1.0,64.0
22718,32.0,0,90,12.0,64.0
22719,44.0,0,90,11.0,64.0
22720,56.0,120,90,7.0,64.0
22721,32.0,120,90,12.0,64.0
22722,44.0,0,90,11.0,64.0
22723,56.0,0,90,7.0,64.0
22724,56.0,0,90,7.0,64.0
22725,32.0,120,90,12.0,64.0
22726,44.0,0,90,11.0,64.0
22727,56.0,0,90,7.0,64.0
22728,44.0,120,90,11.0,64.0
22729,32.0,0,90,12.0,64.0
22730,32.0,120,90,12.0,64.0
22731,44.0,0,90,11.0,64.0
22732,56.0,0,90,7.0,64.0
22733,44.0,0,90,11.0,64.0
22734,32.0,0,90,12.0,64.0
22735,56.0,120,90,7.0,64.0
22736,44.0,0,90,11.0,64.0
22737,56.0,120,90,7.0,64.0
22738,32.0,0,90,12.0,64.0
22739,32.0,0,90,12.0,64.0
22740,56.0,0,90,7.0,64.0
22741,44.0,120,90,11.0,64.0
22742,32.0,120,90,12.0,64.0
22743,56.0,0,90,7.0,64.0
22744,44.0,0,90,11.0,64.0
22745,56.0,0,90,7.0,64.0
22746,32.0,0,90,12.0,64.0
22747,44.0,120,90,11.0,64.0
22748,56.0,120,90,7.0,64.0
22749,32.0,0,90,12.0,64.0
22750,44.0,0,90,11.0,64.0
22751,56.0,0,90,7.0,64.0
22752,44.0,0,90,11.0,64.0
22753,32.0,120,90,12.0,64.0
22754,56.0,120,90,7.0,64.0
22755,32.0,0,90,12.0,64.0
22756,44.0,0,90,11.0,64.0
22757,56.0,0,90,7.0,64.0
22758,32.0,0,90,12.0,64.0
22759,44.0,120,90,11.0,64.0
22760,32.0,0,90,12.0,64.0
22761,44.0,0,90,11.0,64.0
22762,56.0,24,90,7.0,64.0
22763,75.0,0,1440,1.0,64.0
22764,43.0,120,90,11.0,64.0
22765,79.0,0,1440,1.0,64.0
22766,43.0,0,1440,3.0,64.0
22767,31.0,0,90,12.0,64.0
22768,67.0,96,1440,2.0,64.0
22769,55.0,0,90,7.0,64.0
22770,63.0,0,1440,2.0,64.0
22771,43.0,120,90,11.0,64.0
22772,31.0,0,90,12.0,64.0
22773,55.0,0,90,7.0,64.0
22774,31.0,0,90,12.0,64.0
22775,55.0,120,90,7.0,64.0
22776,43.0,0,90,11.0,64.0
22777,31.0,120,90,12.0,64.0
22778,55.0,0,90,7.0,64.0
22779,43.0,0,90,11.0,64.0
22780,43.0,120,90,11.0,64.0
22781,31.0,0,90,12.0,64.0
22782,55.0,0,90,7.0,64.0
22783,43.0,0,90,11.0,64.0
22784,31.0,0,90,12.0,64.0
22785,55.0,120,90,7.0,64.0
22786,55.0,0,90,7.0,64.0
22787,43.0,120,90,11.0,64.0
22788,31.0,0,90,12.0,64.0
22789,55.0,0,90,7.0,64.0
22790,31.0,24,90,12.0,64.0
22791,43.0,0,90,11.0,64.0
22792,55.0,0,90,7.0,64.0
22793,43.0,120,90,11.0,64.0
22794,79.0,96,240,0.0,64.0
22795,31.0,0,90,12.0,64.0
22796,31.0,0,90,12.0,64.0
22797,43.0,0,90,11.0,64.0
22798,55.0,24,90,7.0,64.0
22799,43.0,0,90,11.0,64.0
22800,55.0,24,90,7.0,64.0
22801,80.0,96,120,0.0,64.0
22802,31.0,0,90,12.0,64.0
22803,55.0,24,90,7.0,64.0
22804,43.0,0,90,11.0,64.0
22805,31.0,0,90,12.0,64.0
22806,82.0,0,120,0.0,64.0
22807,77.0,0,480,1.0,64.0
22808,72.0,0,480,1.0,64.0
22809,44.0,0,90,11.0,64.0
22810,65.0,64,480,2.0,64.0
22811,60.0,0,480,2.0,64.0
22812,44.0,0,480,3.0,64.0
22813,56.0,0,90,7.0,64.0
22814,32.0,120,90,12.0,64.0
22815,44.0,0,90,11.0,64.0
22816,56.0,120,90,7.0,64.0
22817,32.0,0,90,12.0,64.0
22818,44.0,120,90,11.0,64.0
22819,32.0,0,90,12.0,64.0
22820,56.0,0,90,7.0,64.0
22821,44.0,0,90,11.0,64.0
22822,32.0,0,90,12.0,64.0
22823,56.0,24,90,7.0,64.0
22824,84.0,0,15,0.0,64.0
22825,57.0,0,90,7.0,64.0
22826,48.0,32,60,6.0,64.0
22827,45.0,64,1920,3.0,64.0
22828,45.0,48,90,11.0,64.0
22829,33.0,0,90,12.0,64.0
22830,66.0,64,1440,2.0,64.0
22831,72.0,0,1530,5.0,64.0
22832,60.0,0,1530,5.0,64.0
22833,78.0,0,1440,1.0,64.0
22834,72.0,0,1440,1.0,64.0
22835,60.0,0,1530,4.0,64.0
22836,48.0,0,1530,4.0,64.0
22837,48.0,72,60,6.0,64.0
22838,45.0,8,90,11.0,64.0
22839,57.0,0,90,7.0,64.0
22840,33.0,0,90,12.0,64.0
22841,48.0,80,60,6.0,64.0
22842,57.0,0,90,7.0,64.0
22843,33.0,0,90,12.0,64.0
22844,48.0,32,60,6.0,64.0
22845,45.0,48,90,11.0,64.0
22846,48.0,72,60,6.0,64.0
22847,33.0,0,90,12.0,64.0
22848,57.0,0,90,7.0,64.0
22849,45.0,8,90,11.0,64.0
22850,48.0,80,60,6.0,64.0
22851,57.0,0,90,7.0,64.0
22852,33.0,0,90,12.0,64.0
22853,45.0,48,90,11.0,64.0
22854,48.0,32,60,6.0,64.0
22855,48.0,72,60,6.0,64.0
22856,57.0,8,90,7.0,64.0
22857,33.0,0,90,12.0,64.0
22858,45.0,0,90,11.0,64.0
22859,48.0,80,60,6.0,64.0
22860,33.0,0,90,12.0,64.0
22861,45.0,48,90,11.0,64.0
22862,57.0,0,90,7.0,64.0
22863,48.0,32,60,6.0,64.0
22864,48.0,72,60,6.0,64.0
22865,33.0,0,90,12.0,64.0
22866,45.0,8,90,11.0,64.0
22867,57.0,0,90,7.0,64.0
22868,48.0,80,60,6.0,64.0
22869,45.0,0,90,11.0,64.0
22870,33.0,48,90,12.0,64.0
22871,57.0,0,90,7.0,64.0
22872,48.0,32,60,6.0,64.0
22873,48.0,72,60,6.0,64.0
22874,57.0,0,90,7.0,64.0
22875,45.0,8,90,11.0,64.0
22876,33.0,0,90,12.0,64.0
22877,48.0,80,60,6.0,64.0
22878,45.0,48,90,11.0,64.0
22879,48.0,32,60,6.0,64.0
22880,57.0,0,90,7.0,64.0
22881,33.0,0,90,12.0,64.0
22882,48.0,72,60,6.0,64.0
22883,45.0,0,90,11.0,64.0
22884,33.0,8,90,12.0,64.0
22885,57.0,0,90,7.0,64.0
22886,48.0,16,60,6.0,64.0
22887,45.0,48,90,11.0,64.0
22888,57.0,0,90,7.0,64.0
22889,48.0,32,60,6.0,64.0
22890,65.0,8,450,2.0,64.0
22891,84.0,0,450,0.0,64.0
22892,72.0,0,450,1.0,64.0
22893,89.0,0,450,0.0,64.0
22894,60.0,0,15,2.0,64.0
22895,77.0,0,450,1.0,64.0
22896,33.0,0,90,12.0,64.0
22897,48.0,72,60,6.0,64.0
22898,33.0,0,90,12.0,64.0
22899,57.0,0,90,7.0,64.0
22900,45.0,8,90,11.0,64.0
22901,48.0,80,60,6.0,64.0
22902,45.0,0,90,11.0,64.0
22903,57.0,0,90,7.0,64.0
22904,33.0,48,90,12.0,64.0
22905,48.0,32,60,6.0,64.0
22906,48.0,72,60,6.0,64.0
22907,45.0,0,90,11.0,64.0
22908,57.0,0,90,7.0,64.0
22909,33.0,0,90,12.0,64.0
22910,48.0,16,60,6.0,64.0
22911,67.0,48,1530,5.0,64.0
22912,74.0,0,1530,5.0,64.0
22913,65.0,0,1920,2.0,64.0
22914,47.0,0,90,11.0,64.0
22915,62.0,0,1920,2.0,64.0
22916,43.0,32,60,6.0,64.0
22917,47.0,0,1920,3.0,64.0
22918,86.0,0,1920,0.0,64.0
22919,55.0,0,1530,4.0,64.0
22920,62.0,0,1530,4.0,64.0
22921,35.0,0,90,12.0,64.0
22922,59.0,48,90,7.0,64.0
22923,43.0,72,60,6.0,64.0
22924,59.0,0,90,7.0,64.0
22925,35.0,0,90,12.0,64.0
22926,47.0,8,90,11.0,64.0
22927,43.0,80,60,6.0,64.0
22928,47.0,0,90,11.0,64.0
22929,59.0,0,90,7.0,64.0
22930,43.0,32,60,6.0,64.0
22931,35.0,48,90,12.0,64.0
22932,43.0,72,60,6.0,64.0
22933,59.0,0,90,7.0,64.0
22934,47.0,0,90,11.0,64.0
22935,35.0,8,90,12.0,64.0
22936,43.0,80,60,6.0,64.0
22937,59.0,48,90,7.0,64.0
22938,47.0,0,90,11.0,64.0
22939,35.0,0,90,12.0,64.0
22940,43.0,32,60,6.0,64.0
22941,43.0,72,60,6.0,64.0
22942,59.0,0,90,7.0,64.0
22943,35.0,8,90,12.0,64.0
22944,47.0,0,90,11.0,64.0
22945,43.0,80,60,6.0,64.0
22946,35.0,48,90,12.0,64.0
22947,47.0,0,90,11.0,64.0
22948,59.0,0,90,7.0,64.0
22949,43.0,32,60,6.0,64.0
22950,43.0,72,60,6.0,64.0
22951,35.0,0,90,12.0,64.0
22952,59.0,0,90,7.0,64.0
22953,47.0,8,90,11.0,64.0
22954,43.0,80,60,6.0,64.0
22955,47.0,0,90,11.0,64.0
22956,59.0,0,90,7.0,64.0
22957,35.0,48,90,12.0,64.0
22958,43.0,32,60,6.0,64.0
22959,43.0,72,60,6.0,64.0
22960,35.0,0,90,12.0,64.0
22961,47.0,8,90,11.0,64.0
22962,59.0,0,90,7.0,64.0
22963,43.0,80,60,6.0,64.0
22964,43.0,32,60,6.0,64.0
22965,47.0,0,90,11.0,64.0
22966,59.0,48,90,7.0,64.0
22967,35.0,0,90,12.0,64.0
22968,43.0,72,60,6.0,64.0
22969,59.0,0,90,7.0,64.0
22970,35.0,8,90,12.0,64.0
22971,47.0,0,90,11.0,64.0
22972,43.0,80,60,6.0,64.0
22973,47.0,0,90,11.0,64.0
22974,35.0,0,90,12.0,64.0
22975,59.0,0,90,7.0,64.0
22976,43.0,32,60,6.0,64.0
22977,43.0,72,60,6.0,64.0
22978,59.0,0,90,7.0,64.0
22979,47.0,8,90,11.0,64.0
22980,35.0,0,90,12.0,64.0
22981,43.0,80,60,6.0,64.0
22982,47.0,48,90,11.0,64.0
22983,35.0,0,90,12.0,64.0
22984,43.0,32,60,6.0,64.0
22985,59.0,0,90,7.0,64.0
22986,43.0,72,60,6.0,64.0
22987,35.0,0,90,12.0,64.0
22988,59.0,0,90,7.0,64.0
22989,47.0,8,90,11.0,64.0
22990,43.0,16,60,6.0,64.0
22991,74.0,0,15,1.0,64.0
22992,89.0,0,15,0.0,64.0
22993,79.0,24,180,5.0,64.0
22994,67.0,0,180,5.0,64.0
22995,35.0,0,390,12.0,64.0
22996,77.0,96,15,1.0,64.0
22997,43.0,0,390,6.0,64.0
22998,62.0,0,180,2.0,64.0
22999,67.0,0,90,4.0,64.0
23000,86.0,0,180,0.0,64.0
23001,55.0,0,90,4.0,64.0
23002,65.0,0,180,2.0,64.0
23003,74.0,0,90,8.0,64.0
23004,47.0,48,390,11.0,64.0
23005,77.0,96,90,7.0,64.0
23006,55.0,0,90,10.0,64.0
23007,67.0,120,90,10.0,64.0
23008,77.0,0,90,7.0,64.0
23009,74.0,0,90,8.0,64.0
23010,67.0,0,90,10.0,64.0
23011,62.0,0,90,4.0,64.0
23012,55.0,0,90,4.0,64.0
23013,55.0,24,180,3.0,64.0
23014,72.0,0,90,8.0,64.0
23015,76.0,48,90,7.0,64.0
23016,67.0,120,90,10.0,64.0
23017,76.0,0,90,7.0,64.0
23018,72.0,0,90,8.0,64.0
23019,76.0,0,90,8.0,64.0
23020,79.0,96,90,7.0,64.0
23021,67.0,0,90,10.0,64.0
23022,62.0,0,90,4.0,64.0
23023,67.0,24,180,3.0,64.0
23024,55.0,0,90,4.0,64.0
23025,67.0,0,90,10.0,64.0
23026,79.0,120,90,7.0,64.0
23027,76.0,0,90,8.0,64.0
23028,43.0,24,180,6.0,64.0
23029,89.0,0,90,0.0,64.0
23030,62.0,0,90,2.0,64.0
23031,65.0,0,90,2.0,64.0
23032,59.0,0,90,11.0,64.0
23033,55.0,0,90,10.0,64.0
23034,77.0,96,90,1.0,64.0
23035,47.0,0,90,12.0,64.0
23036,74.0,0,90,1.0,64.0
23037,86.0,0,90,0.0,64.0
23038,67.0,0,90,5.0,64.0
23039,79.0,0,90,5.0,64.0
23040,67.0,0,90,4.0,64.0
23041,55.0,0,90,4.0,64.0
23042,77.0,0,90,7.0,64.0
23043,74.0,0,90,8.0,64.0
23044,74.0,0,90,8.0,64.0
23045,77.0,120,90,7.0,64.0
23046,55.0,0,90,10.0,64.0
23047,60.0,0,180,2.0,64.0
23048,60.0,0,390,11.0,64.0
23049,48.0,48,390,12.0,64.0
23050,88.0,0,180,0.0,64.0
23051,64.0,32,150,2.0,64.0
23052,76.0,0,180,1.0,64.0
23053,72.0,24,180,1.0,64.0
23054,79.0,0,180,5.0,64.0
23055,67.0,0,180,5.0,64.0
23056,72.0,64,90,8.0,64.0
23057,84.0,0,180,0.0,64.0
23058,67.0,0,90,4.0,64.0
23059,48.0,0,390,6.0,64.0
23060,76.0,0,90,7.0,64.0
23061,55.0,0,90,4.0,64.0
23062,55.0,0,90,10.0,64.0
23063,76.0,0,90,7.0,64.0
23064,72.0,0,90,8.0,64.0
23065,67.0,120,90,10.0,64.0
23066,74.0,48,90,7.0,64.0
23067,60.0,0,90,4.0,64.0
23068,55.0,24,180,3.0,64.0
23069,52.0,0,90,4.0,64.0
23070,71.0,0,90,8.0,64.0
23071,67.0,0,90,10.0,64.0
23072,71.0,0,90,8.0,64.0
23073,74.0,120,90,7.0,64.0
23074,67.0,0,90,10.0,64.0
23075,67.0,96,90,10.0,64.0
23076,74.0,0,90,8.0,64.0
23077,67.0,24,180,3.0,64.0
23078,60.0,0,90,4.0,64.0
23079,77.0,0,90,7.0,64.0
23080,64.0,0,90,4.0,64.0
23081,77.0,0,90,7.0,64.0
23082,74.0,120,90,8.0,64.0
23083,67.0,0,90,10.0,64.0
23084,84.0,0,90,0.0,64.0
23085,88.0,0,90,0.0,64.0
23086,48.0,0,90,11.0,64.0
23087,67.0,0,90,4.0,64.0
23088,36.0,0,90,12.0,64.0
23089,72.0,0,90,1.0,64.0
23090,55.0,0,90,10.0,64.0
23091,55.0,0,90,4.0,64.0
23092,48.0,24,180,6.0,64.0
23093,67.0,0,90,5.0,64.0
23094,76.0,0,90,7.0,64.0
23095,60.0,0,90,2.0,64.0
23096,64.0,0,90,2.0,64.0
23097,79.0,96,90,5.0,64.0
23098,76.0,0,90,1.0,64.0
23099,72.0,0,90,8.0,64.0
23100,72.0,0,90,8.0,64.0
23101,76.0,0,90,7.0,64.0
23102,55.0,120,90,10.0,64.0
23103,43.0,48,390,6.0,64.0
23104,59.0,0,180,2.0,64.0
23105,62.0,0,180,2.0,64.0
23106,71.0,0,90,8.0,64.0
23107,74.0,0,90,7.0,64.0
23108,83.0,0,180,0.0,64.0
23109,67.0,24,180,5.0,64.0
23110,79.0,0,180,5.0,64.0
23111,43.0,0,390,11.0,64.0
23112,55.0,96,90,10.0,64.0
23113,31.0,0,390,12.0,64.0
23114,74.0,0,180,1.0,64.0
23115,71.0,0,180,1.0,64.0
23116,67.0,0,90,4.0,64.0
23117,55.0,0,90,4.0,64.0
23118,86.0,0,180,0.0,64.0
23119,67.0,0,90,10.0,64.0
23120,74.0,0,90,7.0,64.0
23121,71.0,120,90,8.0,64.0
23122,55.0,48,90,4.0,64.0
23123,62.0,0,90,4.0,64.0
23124,55.0,24,180,3.0,64.0
23125,72.0,0,90,7.0,64.0
23126,69.0,0,90,8.0,64.0
23127,67.0,0,90,10.0,64.0
23128,67.0,0,90,10.0,64.0
23129,72.0,0,90,7.0,64.0
23130,69.0,120,90,8.0,64.0
23131,76.0,0,90,7.0,64.0
23132,67.0,24,180,3.0,64.0
23133,67.0,96,90,10.0,64.0
23134,72.0,0,90,8.0,64.0
23135,65.0,0,90,4.0,64.0
23136,62.0,0,90,4.0,64.0
23137,72.0,0,90,8.0,64.0
23138,67.0,120,90,10.0,64.0
23139,76.0,0,90,7.0,64.0
23140,71.0,0,90,1.0,64.0
23141,71.0,0,90,8.0,64.0
23142,55.0,0,90,4.0,64.0
23143,67.0,0,90,4.0,64.0
23144,74.0,0,90,7.0,64.0
23145,55.0,0,90,10.0,64.0
23146,43.0,24,180,6.0,64.0
23147,43.0,0,90,12.0,64.0
23148,74.0,0,90,1.0,64.0
23149,59.0,0,90,2.0,64.0
23150,86.0,96,90,0.0,64.0
23151,62.0,0,90,2.0,64.0
23152,67.0,0,90,5.0,64.0
23153,55.0,0,90,11.0,64.0
23154,79.0,0,90,5.0,64.0
23155,83.0,0,90,0.0,64.0
23156,74.0,0,90,7.0,64.0
23157,71.0,120,90,8.0,64.0
23158,55.0,0,90,10.0,64.0
23159,79.0,0,180,5.0,64.0
23160,67.0,0,180,5.0,64.0
23161,48.0,0,390,11.0,64.0
23162,64.0,72,120,2.0,64.0
23163,67.0,24,90,4.0,64.0
23164,55.0,0,90,4.0,64.0
23165,48.0,0,390,6.0,64.0
23166,55.0,0,90,10.0,64.0
23167,72.0,0,90,8.0,64.0
23168,60.0,0,180,2.0,64.0
23169,36.0,48,390,12.0,64.0
23170,76.0,0,180,1.0,64.0
23171,84.0,24,180,0.0,64.0
23172,88.0,0,180,0.0,64.0
23173,76.0,0,90,7.0,64.0
23174,72.0,0,180,1.0,64.0
23175,76.0,0,90,7.0,64.0
23176,67.0,0,90,10.0,64.0
23177,72.0,120,90,8.0,64.0
23178,71.0,0,90,8.0,64.0
23179,55.0,24,180,3.0,64.0
23180,67.0,48,90,10.0,64.0
23181,74.0,0,90,7.0,64.0
23182,60.0,0,90,4.0,64.0
23183,52.0,0,90,4.0,64.0
23184,74.0,120,90,7.0,64.0
23185,67.0,0,90,10.0,64.0
23186,71.0,0,90,8.0,64.0
23187,77.0,0,90,7.0,64.0
23188,60.0,0,90,4.0,64.0
23189,67.0,24,180,3.0,64.0
23190,74.0,96,90,8.0,64.0
23191,67.0,0,90,10.0,64.0
23192,64.0,0,90,4.0,64.0
23193,74.0,0,90,8.0,64.0
23194,77.0,0,90,7.0,64.0
23195,67.0,120,90,10.0,64.0
23196,72.0,0,90,8.0,64.0
23197,79.0,96,90,5.0,64.0
23198,67.0,0,90,5.0,64.0
23199,55.0,0,90,10.0,64.0
23200,84.0,0,90,0.0,64.0
23201,55.0,0,90,4.0,64.0
23202,48.0,0,90,12.0,64.0
23203,72.0,0,90,1.0,64.0
23204,76.0,0,90,1.0,64.0
23205,67.0,0,90,4.0,64.0
23206,76.0,0,90,7.0,64.0
23207,60.0,0,90,2.0,64.0
23208,64.0,0,90,2.0,64.0
23209,48.0,24,180,6.0,64.0
23210,60.0,0,90,11.0,64.0
23211,88.0,0,90,0.0,64.0
23212,76.0,0,90,7.0,64.0
23213,55.0,120,90,10.0,64.0
23214,72.0,0,90,8.0,64.0
23215,74.0,0,180,1.0,64.0
23216,43.0,0,390,6.0,64.0
23217,77.0,0,180,1.0,64.0
23218,79.0,0,180,5.0,64.0
23219,77.0,0,90,7.0,64.0
23220,62.0,24,180,2.0,64.0
23221,65.0,0,180,2.0,64.0
23222,86.0,0,180,0.0,64.0
23223,35.0,48,390,12.0,64.0
23224,47.0,0,390,11.0,64.0
23225,55.0,96,90,10.0,64.0
23226,67.0,0,180,5.0,64.0
23227,74.0,0,90,8.0,64.0
23228,55.0,0,90,4.0,64.0
23229,67.0,0,90,4.0,64.0
23230,89.0,0,180,0.0,64.0
23231,67.0,120,90,10.0,64.0
23232,74.0,0,90,8.0,64.0
23233,77.0,0,90,7.0,64.0
23234,72.0,0,90,8.0,64.0
23235,62.0,0,90,4.0,64.0
23236,55.0,0,90,4.0,64.0
23237,55.0,24,180,3.0,64.0
23238,76.0,48,90,7.0,64.0
23239,67.0,0,90,10.0,64.0
23240,67.0,0,90,10.0,64.0
23241,72.0,120,90,8.0,64.0
23242,76.0,0,90,7.0,64.0
23243,76.0,0,90,8.0,64.0
23244,67.0,0,90,10.0,64.0
23245,79.0,0,90,7.0,64.0
23246,67.0,24,180,3.0,64.0
23247,55.0,0,90,4.0,64.0
23248,62.0,96,90,4.0,64.0
23249,67.0,120,90,10.0,64.0
23250,79.0,0,90,7.0,64.0
23251,76.0,0,90,8.0,64.0
23252,55.0,0,90,10.0,64.0
23253,77.0,0,90,7.0,64.0
23254,89.0,0,90,0.0,64.0
23255,86.0,0,90,0.0,64.0
23256,47.0,0,90,12.0,64.0
23257,65.0,0,90,2.0,64.0
23258,62.0,0,90,2.0,64.0
23259,77.0,0,90,1.0,64.0
23260,79.0,0,90,5.0,64.0
23261,43.0,24,180,6.0,64.0
23262,74.0,0,90,1.0,64.0
23263,67.0,0,90,5.0,64.0
23264,74.0,0,90,8.0,64.0
23265,59.0,96,90,11.0,64.0
23266,67.0,0,90,4.0,64.0
23267,55.0,0,90,4.0,64.0
23268,55.0,0,90,10.0,64.0
23269,77.0,0,90,7.0,64.0
23270,74.0,120,90,8.0,64.0
23271,84.0,0,180,0.0,64.0
23272,76.0,0,90,7.0,64.0
23273,64.0,24,180,2.0,64.0
23274,48.0,0,390,6.0,64.0
23275,55.0,96,90,10.0,64.0
23276,79.0,0,180,5.0,64.0
23277,60.0,0,180,2.0,64.0
23278,67.0,0,90,4.0,64.0
23279,72.0,0,180,1.0,64.0
23280,67.0,0,180,5.0,64.0
23281,76.0,0,180,1.0,64.0
23282,55.0,0,90,4.0,64.0
23283,88.0,0,180,0.0,64.0
23284,48.0,48,390,12.0,64.0
23285,60.0,0,390,11.0,64.0
23286,72.0,0,90,8.0,64.0
23287,72.0,0,90,8.0,64.0
23288,76.0,120,90,7.0,64.0
23289,67.0,0,90,10.0,64.0
23290,52.0,0,90,4.0,64.0
23291,67.0,48,90,10.0,64.0
23292,60.0,0,90,4.0,64.0
23293,71.0,0,90,8.0,64.0
23294,55.0,24,180,3.0,64.0
23295,74.0,0,90,7.0,64.0
23296,71.0,120,90,8.0,64.0
23297,74.0,0,90,7.0,64.0
23298,67.0,0,90,10.0,64.0
23299,67.0,24,180,3.0,64.0
23300,77.0,0,90,7.0,64.0
23301,67.0,0,90,10.0,64.0
23302,60.0,0,90,4.0,64.0
23303,64.0,0,90,4.0,64.0
23304,74.0,96,90,8.0,64.0
23305,77.0,120,90,7.0,64.0
23306,67.0,0,90,10.0,64.0
23307,74.0,0,90,8.0,64.0
23308,72.0,0,90,1.0,64.0
23309,48.0,24,180,6.0,64.0
23310,64.0,0,90,2.0,64.0
23311,60.0,0,90,2.0,64.0
23312,76.0,0,90,7.0,64.0
23313,55.0,0,90,4.0,64.0
23314,48.0,96,90,11.0,64.0
23315,76.0,0,90,1.0,64.0
23316,72.0,0,90,8.0,64.0
23317,55.0,0,90,10.0,64.0
23318,36.0,0,90,12.0,64.0
23319,79.0,0,90,5.0,64.0
23320,67.0,0,90,5.0,64.0
23321,84.0,0,90,0.0,64.0
23322,88.0,0,90,0.0,64.0
23323,67.0,0,90,4.0,64.0
23324,72.0,0,90,8.0,64.0
23325,76.0,120,90,7.0,64.0
23326,55.0,0,90,10.0,64.0
23327,71.0,0,180,1.0,64.0
23328,55.0,0,90,4.0,64.0
23329,67.0,0,90,4.0,64.0
23330,71.0,0,90,8.0,64.0
23331,67.0,0,180,5.0,64.0
23332,79.0,0,180,5.0,64.0
23333,62.0,0,180,2.0,64.0
23334,31.0,0,390,12.0,64.0
23335,59.0,24,180,2.0,64.0
23336,43.0,0,390,11.0,64.0
23337,83.0,0,180,0.0,64.0
23338,74.0,0,90,7.0,64.0
23339,43.0,48,390,6.0,64.0
23340,86.0,0,180,0.0,64.0
23341,74.0,0,180,1.0,64.0
23342,55.0,96,90,10.0,64.0
23343,74.0,120,90,7.0,64.0
23344,71.0,0,90,8.0,64.0
23345,67.0,0,90,10.0,64.0
23346,62.0,0,90,4.0,64.0
23347,69.0,0,90,8.0,64.0
23348,67.0,0,90,10.0,64.0
23349,55.0,24,180,3.0,64.0
23350,72.0,0,90,7.0,64.0
23351,55.0,48,90,4.0,64.0
23352,69.0,0,90,8.0,64.0
23353,72.0,120,90,7.0,64.0
23354,67.0,0,90,10.0,64.0
23355,65.0,0,90,4.0,64.0
23356,67.0,24,180,3.0,64.0
23357,62.0,96,90,4.0,64.0
23358,67.0,0,90,10.0,64.0
23359,72.0,0,90,8.0,64.0
23360,76.0,0,90,7.0,64.0
23361,76.0,0,90,7.0,64.0
23362,72.0,0,90,8.0,64.0
23363,67.0,120,90,10.0,64.0
23364,71.0,0,90,8.0,64.0
23365,55.0,0,90,4.0,64.0
23366,67.0,0,90,4.0,64.0
23367,43.0,96,90,12.0,64.0
23368,83.0,0,90,0.0,64.0
23369,67.0,0,90,5.0,64.0
23370,86.0,0,90,0.0,64.0
23371,79.0,0,90,5.0,64.0
23372,74.0,0,90,7.0,64.0
23373,55.0,0,90,11.0,64.0
23374,55.0,0,90,10.0,64.0
23375,43.0,24,180,6.0,64.0
23376,74.0,0,90,1.0,64.0
23377,59.0,0,90,2.0,64.0
23378,62.0,0,90,2.0,64.0
23379,71.0,0,90,1.0,64.0
23380,55.0,0,90,10.0,64.0
23381,74.0,0,90,7.0,64.0
23382,71.0,120,90,8.0,64.0
23383,36.0,0,390,12.0,64.0
23384,55.0,0,90,10.0,64.0
23385,64.0,0,180,2.0,64.0
23386,60.0,0,180,2.0,64.0
23387,67.0,0,90,4.0,64.0
23388,55.0,0,90,4.0,64.0
23389,48.0,0,390,6.0,64.0
23390,67.0,24,180,5.0,64.0
23391,48.0,48,390,11.0,64.0
23392,88.0,0,180,0.0,64.0
23393,76.0,0,180,1.0,64.0
23394,72.0,0,180,1.0,64.0
23395,79.0,0,180,5.0,64.0
23396,76.0,0,90,7.0,64.0
23397,84.0,0,180,0.0,64.0
23398,72.0,96,90,8.0,64.0
23399,72.0,120,90,8.0,64.0
23400,67.0,0,90,10.0,64.0
23401,76.0,0,90,7.0,64.0
23402,67.0,0,90,10.0,64.0
23403,74.0,0,90,7.0,64.0
23404,55.0,24,180,3.0,64.0
23405,52.0,0,90,4.0,64.0
23406,60.0,0,90,4.0,64.0
23407,71.0,48,90,8.0,64.0
23408,71.0,120,90,8.0,64.0
23409,74.0,0,90,7.0,64.0
23410,67.0,0,90,10.0,64.0
23411,74.0,0,90,8.0,64.0
23412,67.0,96,90,10.0,64.0
23413,77.0,0,90,7.0,64.0
23414,67.0,24,180,3.0,64.0
23415,60.0,0,90,4.0,64.0
23416,64.0,0,90,4.0,64.0
23417,67.0,120,90,10.0,64.0
23418,74.0,0,90,8.0,64.0
23419,77.0,0,90,7.0,64.0
23420,55.0,0,90,4.0,64.0
23421,88.0,0,90,0.0,64.0
23422,84.0,0,90,0.0,64.0
23423,76.0,0,90,1.0,64.0
23424,72.0,0,90,1.0,64.0
23425,48.0,24,180,6.0,64.0
23426,76.0,0,90,7.0,64.0
23427,67.0,0,90,4.0,64.0
23428,72.0,96,90,8.0,64.0
23429,60.0,0,90,11.0,64.0
23430,64.0,0,90,2.0,64.0
23431,60.0,0,90,2.0,64.0
23432,79.0,0,90,5.0,64.0
23433,67.0,0,90,5.0,64.0
23434,55.0,0,90,10.0,64.0
23435,48.0,0,90,12.0,64.0
23436,72.0,0,90,8.0,64.0
23437,76.0,120,90,7.0,64.0
23438,55.0,0,90,10.0,64.0
23439,74.0,0,180,1.0,64.0
23440,79.0,96,90,7.0,64.0
23441,55.0,0,90,10.0,64.0
23442,67.0,0,180,5.0,64.0
23443,43.0,0,390,6.0,64.0
23444,62.0,0,180,2.0,64.0
23445,35.0,48,390,12.0,64.0
23446,77.0,0,180,1.0,64.0
23447,79.0,0,180,5.0,64.0
23448,76.0,0,90,8.0,64.0
23449,65.0,0,180,2.0,64.0
23450,67.0,0,90,4.0,64.0
23451,47.0,0,390,11.0,64.0
23452,55.0,0,90,4.0,64.0
23453,86.0,24,180,0.0,64.0
23454,89.0,0,180,0.0,64.0
23455,79.0,0,90,7.0,64.0
23456,67.0,0,90,10.0,64.0
23457,76.0,120,90,8.0,64.0
23458,77.0,48,90,7.0,64.0
23459,67.0,0,90,10.0,64.0
23460,55.0,24,180,3.0,64.0
23461,74.0,0,90,8.0,64.0
23462,55.0,0,90,4.0,64.0
23463,62.0,0,90,4.0,64.0
23464,74.0,120,90,8.0,64.0
23465,67.0,0,90,10.0,64.0
23466,77.0,0,90,7.0,64.0
23467,86.0,0,90,7.0,64.0
23468,67.0,0,90,10.0,64.0
23469,67.0,24,180,3.0,64.0
23470,77.0,0,90,8.0,64.0
23471,62.0,96,90,4.0,64.0
23472,55.0,0,90,4.0,64.0
23473,67.0,0,90,10.0,64.0
23474,86.0,0,90,7.0,64.0
23475,77.0,120,90,8.0,64.0
23476,74.0,0,90,8.0,64.0
23477,67.0,96,90,4.0,64.0
23478,55.0,0,90,4.0,64.0
23479,74.0,0,90,1.0,64.0
23480,65.0,0,90,2.0,64.0
23481,79.0,0,90,5.0,64.0
23482,62.0,0,90,2.0,64.0
23483,86.0,0,90,0.0,64.0
23484,67.0,0,90,5.0,64.0
23485,77.0,0,90,7.0,64.0
23486,47.0,0,90,12.0,64.0
23487,77.0,0,90,1.0,64.0
23488,43.0,24,180,6.0,64.0
23489,89.0,0,90,0.0,64.0
23490,55.0,0,90,10.0,64.0
23491,59.0,0,90,11.0,64.0
23492,74.0,0,90,8.0,64.0
23493,55.0,0,90,10.0,64.0
23494,77.0,120,90,7.0,64.0
23495,48.0,0,390,12.0,64.0
23496,64.0,0,180,2.0,64.0
23497,48.0,0,390,6.0,64.0
23498,60.0,48,390,11.0,64.0
23499,67.0,0,180,5.0,64.0
23500,88.0,0,180,0.0,64.0
23501,77.0,0,90,7.0,64.0
23502,74.0,0,90,8.0,64.0
23503,84.0,24,180,0.0,64.0
23504,72.0,0,180,1.0,64.0
23505,76.0,0,180,1.0,64.0
23506,55.0,0,90,10.0,64.0
23507,67.0,0,90,4.0,64.0
23508,55.0,96,90,4.0,64.0
23509,60.0,0,180,2.0,64.0
23510,79.0,0,180,5.0,64.0
23511,74.0,0,90,8.0,64.0
23512,77.0,0,90,7.0,64.0
23513,67.0,120,90,10.0,64.0
23514,67.0,48,90,10.0,64.0
23515,55.0,24,180,3.0,64.0
23516,76.0,0,90,7.0,64.0
23517,72.0,0,90,8.0,64.0
23518,52.0,0,90,4.0,64.0
23519,60.0,0,90,4.0,64.0
23520,72.0,120,90,8.0,64.0
23521,76.0,0,90,7.0,64.0
23522,67.0,0,90,10.0,64.0
23523,64.0,96,90,4.0,64.0
23524,67.0,24,180,3.0,64.0
23525,76.0,0,90,8.0,64.0
23526,84.0,0,90,7.0,64.0
23527,67.0,0,90,10.0,64.0
23528,60.0,0,90,4.0,64.0
23529,76.0,0,90,8.0,64.0
23530,67.0,120,90,10.0,64.0
23531,84.0,0,90,7.0,64.0
23532,72.0,0,90,1.0,64.0
23533,48.0,0,90,11.0,64.0
23534,55.0,0,90,4.0,64.0
23535,67.0,0,90,4.0,64.0
23536,60.0,0,90,2.0,64.0
23537,64.0,0,90,2.0,64.0
23538,67.0,0,90,5.0,64.0
23539,88.0,0,90,0.0,64.0
23540,76.0,0,90,7.0,64.0
23541,36.0,0,90,12.0,64.0
23542,72.0,0,90,8.0,64.0
23543,76.0,0,90,1.0,64.0
23544,48.0,24,180,6.0,64.0
23545,55.0,96,90,10.0,64.0
23546,84.0,0,90,0.0,64.0
23547,79.0,0,90,5.0,64.0
23548,72.0,120,90,8.0,64.0
23549,76.0,0,90,7.0,64.0
23550,55.0,0,90,10.0,64.0
23551,43.0,48,390,6.0,64.0
23552,83.0,0,180,0.0,64.0
23553,86.0,0,180,0.0,64.0
23554,76.0,0,90,7.0,64.0
23555,72.0,0,90,8.0,64.0
23556,43.0,0,390,11.0,64.0
23557,67.0,24,180,5.0,64.0
23558,31.0,0,390,12.0,64.0
23559,79.0,0,180,5.0,64.0
23560,62.0,0,180,2.0,64.0
23561,55.0,96,90,10.0,64.0
23562,55.0,0,90,4.0,64.0
23563,71.0,0,180,1.0,64.0
23564,59.0,0,180,2.0,64.0
23565,67.0,0,90,4.0,64.0
23566,74.0,0,180,1.0,64.0
23567,76.0,120,90,7.0,64.0
23568,72.0,0,90,8.0,64.0
23569,67.0,0,90,10.0,64.0
23570,55.0,24,180,3.0,64.0
23571,71.0,0,90,8.0,64.0
23572,55.0,0,90,4.0,64.0
23573,74.0,0,90,7.0,64.0
23574,67.0,48,90,10.0,64.0
23575,62.0,0,90,4.0,64.0
23576,71.0,0,90,8.0,64.0
23577,74.0,0,90,7.0,64.0
23578,67.0,120,90,10.0,64.0
23579,83.0,0,90,7.0,64.0
23580,67.0,24,180,3.0,64.0
23581,74.0,96,90,8.0,64.0
23582,67.0,0,90,10.0,64.0
23583,62.0,0,90,4.0,64.0
23584,65.0,0,90,4.0,64.0
23585,74.0,0,90,8.0,64.0
23586,67.0,120,90,10.0,64.0
23587,83.0,0,90,7.0,64.0
23588,59.0,0,90,2.0,64.0
23589,62.0,0,90,2.0,64.0
23590,79.0,0,90,5.0,64.0
23591,71.0,0,90,1.0,64.0
23592,74.0,0,90,1.0,64.0
23593,67.0,0,90,4.0,64.0
23594,43.0,24,180,6.0,64.0
23595,55.0,0,90,4.0,64.0
23596,71.0,0,90,8.0,64.0
23597,55.0,0,90,10.0,64.0
23598,67.0,0,90,5.0,64.0
23599,43.0,96,90,12.0,64.0
23600,83.0,0,90,0.0,64.0
23601,74.0,0,90,7.0,64.0
23602,86.0,0,90,0.0,64.0
23603,55.0,0,90,11.0,64.0
23604,71.0,0,90,8.0,64.0
23605,74.0,0,90,7.0,64.0
23606,55.0,120,90,10.0,64.0
23607,76.0,0,180,1.0,64.0
23608,74.0,0,90,8.0,64.0
23609,84.0,0,180,0.0,64.0
23610,36.0,0,390,12.0,64.0
23611,48.0,48,390,6.0,64.0
23612,79.0,24,180,5.0,64.0
23613,67.0,0,180,5.0,64.0
23614,55.0,0,90,4.0,64.0
23615,67.0,0,90,4.0,64.0
23616,60.0,0,180,2.0,64.0
23617,64.0,0,180,2.0,64.0
23618,55.0,0,90,10.0,64.0
23619,48.0,0,390,11.0,64.0
23620,88.0,0,180,0.0,64.0
23621,72.0,0,180,1.0,64.0
23622,77.0,96,90,7.0,64.0
23623,67.0,120,90,10.0,64.0
23624,77.0,0,90,7.0,64.0
23625,74.0,0,90,8.0,64.0
23626,52.0,48,90,4.0,64.0
23627,67.0,0,90,10.0,64.0
23628,55.0,24,180,3.0,64.0
23629,60.0,0,90,4.0,64.0
23630,76.0,0,90,7.0,64.0
23631,72.0,0,90,8.0,64.0
23632,67.0,120,90,10.0,64.0
23633,76.0,0,90,7.0,64.0
23634,72.0,0,90,8.0,64.0
23635,76.0,0,90,8.0,64.0
23636,84.0,0,90,7.0,64.0
23637,64.0,96,90,4.0,64.0
23638,67.0,24,180,3.0,64.0
23639,60.0,0,90,4.0,64.0
23640,67.0,0,90,10.0,64.0
23641,84.0,120,90,7.0,64.0
23642,67.0,0,90,10.0,64.0
23643,76.0,0,90,8.0,64.0
23644,76.0,96,90,7.0,64.0
23645,79.0,0,90,5.0,64.0
23646,67.0,0,90,5.0,64.0
23647,55.0,0,90,10.0,64.0
23648,60.0,0,90,2.0,64.0
23649,72.0,0,90,8.0,64.0
23650,60.0,0,90,11.0,64.0
23651,72.0,0,90,1.0,64.0
23652,48.0,24,180,6.0,64.0
23653,67.0,0,90,4.0,64.0
23654,64.0,0,90,2.0,64.0
23655,76.0,0,90,1.0,64.0
23656,48.0,0,90,12.0,64.0
23657,88.0,0,90,0.0,64.0
23658,84.0,0,90,0.0,64.0
23659,55.0,0,90,4.0,64.0
23660,76.0,0,90,7.0,64.0
23661,72.0,0,90,8.0,64.0
23662,55.0,120,90,10.0,64.0
23663,79.0,0,90,7.0,64.0
23664,77.0,0,180,1.0,64.0
23665,86.0,24,180,0.0,64.0
23666,89.0,0,180,0.0,64.0
23667,55.0,0,90,10.0,64.0
23668,43.0,48,390,6.0,64.0
23669,65.0,0,180,2.0,64.0
23670,62.0,0,180,2.0,64.0
23671,35.0,0,390,12.0,64.0
23672,47.0,0,390,11.0,64.0
23673,67.0,0,180,5.0,64.0
23674,79.0,0,180,5.0,64.0
23675,67.0,0,90,4.0,64.0
23676,55.0,0,90,4.0,64.0
23677,74.0,0,180,1.0,64.0
23678,76.0,96,90,8.0,64.0
23679,76.0,0,90,8.0,64.0
23680,67.0,120,90,10.0,64.0
23681,79.0,0,90,7.0,64.0
23682,67.0,0,90,10.0,64.0
23683,55.0,0,90,4.0,64.0
23684,55.0,24,180,3.0,64.0
23685,74.0,0,90,8.0,64.0
23686,62.0,0,90,4.0,64.0
23687,77.0,48,90,7.0,64.0
23688,77.0,0,90,7.0,64.0
23689,67.0,120,90,10.0,64.0
23690,74.0,0,90,8.0,64.0
23691,67.0,0,90,10.0,64.0
23692,55.0,96,90,4.0,64.0
23693,86.0,0,90,7.0,64.0
23694,62.0,0,90,4.0,64.0
23695,77.0,0,90,8.0,64.0
23696,67.0,24,180,3.0,64.0
23697,77.0,0,90,8.0,64.0
23698,86.0,0,90,7.0,64.0
23699,67.0,120,90,10.0,64.0
23700,43.0,24,180,6.0,64.0
23701,77.0,0,90,7.0,64.0
23702,62.0,0,90,2.0,64.0
23703,65.0,0,90,2.0,64.0
23704,86.0,0,90,0.0,64.0
23705,89.0,0,90,0.0,64.0
23706,77.0,96,90,1.0,64.0
23707,74.0,0,90,1.0,64.0
23708,55.0,0,90,10.0,64.0
23709,67.0,0,90,5.0,64.0
23710,79.0,0,90,5.0,64.0
23711,74.0,0,90,8.0,64.0
23712,55.0,0,90,4.0,64.0
23713,59.0,0,90,11.0,64.0
23714,47.0,0,90,12.0,64.0
23715,67.0,0,90,4.0,64.0
23716,55.0,120,90,10.0,64.0
23717,74.0,0,90,8.0,64.0
23718,77.0,0,90,7.0,64.0
23719,74.0,96,90,8.0,64.0
23720,77.0,0,90,7.0,64.0
23721,76.0,0,180,1.0,64.0
23722,67.0,0,90,4.0,64.0
23723,55.0,0,90,4.0,64.0
23724,88.0,0,180,0.0,64.0
23725,64.0,0,180,2.0,64.0
23726,72.0,0,180,1.0,64.0
23727,84.0,0,180,0.0,64.0
23728,48.0,48,390,6.0,64.0
23729,48.0,0,390,11.0,64.0
23730,55.0,0,90,10.0,64.0
23731,79.0,0,180,5.0,64.0
23732,67.0,24,180,5.0,64.0
23733,36.0,0,390,12.0,64.0
23734,60.0,0,180,2.0,64.0
23735,77.0,0,90,7.0,64.0
23736,67.0,0,90,10.0,64.0
23737,74.0,120,90,8.0,64.0
23738,52.0,0,90,4.0,64.0
23739,76.0,0,90,7.0,64.0
23740,67.0,0,90,10.0,64.0
23741,72.0,48,90,8.0,64.0
23742,60.0,0,90,4.0,64.0
23743,55.0,24,180,3.0,64.0
23744,76.0,0,90,7.0,64.0
23745,72.0,0,90,8.0,64.0
23746,67.0,120,90,10.0,64.0
23747,76.0,0,90,8.0,64.0
23748,67.0,0,90,10.0,64.0
23749,67.0,24,180,3.0,64.0
23750,64.0,0,90,4.0,64.0
23751,60.0,96,90,4.0,64.0
23752,84.0,0,90,7.0,64.0
23753,76.0,120,90,8.0,64.0
23754,67.0,0,90,10.0,64.0
23755,84.0,0,90,7.0,64.0
23756,76.0,0,90,7.0,64.0
23757,48.0,0,90,12.0,64.0
23758,79.0,0,90,5.0,64.0
23759,60.0,0,90,2.0,64.0
23760,64.0,0,90,2.0,64.0
23761,72.0,0,90,8.0,64.0
23762,55.0,0,90,10.0,64.0
23763,67.0,0,90,5.0,64.0
23764,84.0,0,90,0.0,64.0
23765,55.0,0,90,4.0,64.0
23766,67.0,96,90,4.0,64.0
23767,60.0,0,90,11.0,64.0
23768,48.0,24,180,6.0,64.0
23769,72.0,0,90,1.0,64.0
23770,76.0,0,90,1.0,64.0
23771,88.0,0,90,0.0,64.0
23772,55.0,0,90,10.0,64.0
23773,72.0,0,90,8.0,64.0
23774,76.0,120,90,7.0,64.0
23775,60.0,0,180,2.0,64.0
23776,72.0,0,180,1.0,64.0
23777,84.0,0,90,7.0,64.0
23778,36.0,0,390,12.0,64.0
23779,64.0,24,180,2.0,64.0
23780,72.0,0,180,5.0,64.0
23781,60.0,0,180,5.0,64.0
23782,48.0,48,390,6.0,64.0
23783,48.0,0,390,11.0,64.0
23784,76.0,0,90,8.0,64.0
23785,76.0,0,180,1.0,64.0
23786,64.0,96,90,10.0,64.0
23787,84.0,0,180,0.0,64.0
23788,88.0,0,180,0.0,64.0
23789,76.0,120,90,8.0,64.0
23790,84.0,0,90,7.0,64.0
23791,64.0,0,90,10.0,64.0
23792,72.0,0,90,8.0,64.0
23793,48.0,24,180,3.0,64.0
23794,60.0,0,90,10.0,64.0
23795,76.0,0,90,7.0,64.0
23796,52.0,48,90,4.0,64.0
23797,64.0,0,90,4.0,64.0
23798,76.0,120,90,7.0,64.0
23799,72.0,0,90,8.0,64.0
23800,60.0,0,90,10.0,64.0
23801,64.0,96,90,4.0,64.0
23802,52.0,0,90,4.0,64.0
23803,88.0,0,90,7.0,64.0
23804,64.0,0,90,10.0,64.0
23805,60.0,24,180,3.0,64.0
23806,76.0,0,90,8.0,64.0
23807,64.0,120,90,10.0,64.0
23808,88.0,0,90,7.0,64.0
23809,76.0,0,90,8.0,64.0
23810,64.0,0,90,11.0,64.0
23811,52.0,96,240,3.0,64.0
23812,88.0,0,90,7.0,64.0
23813,64.0,96,90,2.0,64.0
23814,76.0,0,90,1.0,64.0
23815,88.0,0,90,0.0,64.0
23816,76.0,0,90,8.0,64.0
23817,76.0,0,90,5.0,64.0
23818,52.0,0,90,12.0,64.0
23819,64.0,0,90,5.0,64.0
23820,48.0,24,180,6.0,64.0
23821,64.0,0,90,10.0,64.0
23822,88.0,0,90,7.0,64.0
23823,76.0,24,90,8.0,64.0
23824,64.0,0,90,10.0,64.0
23825,48.0,0,390,6.0,64.0
23826,40.0,48,390,12.0,64.0
23827,76.0,0,180,1.0,64.0
23828,76.0,0,180,5.0,64.0
23829,88.0,0,180,0.0,64.0
23830,88.0,96,90,7.0,64.0
23831,64.0,0,180,2.0,64.0
23832,64.0,0,90,10.0,64.0
23833,52.0,0,390,11.0,64.0
23834,64.0,96,240,3.0,64.0
23835,64.0,24,180,5.0,64.0
23836,76.0,0,90,8.0,64.0
23837,64.0,24,90,10.0,64.0
23838,88.0,0,90,7.0,64.0
23839,76.0,0,90,8.0,64.0
23840,64.0,96,240,4.0,64.0
23841,52.0,0,90,10.0,64.0
23842,76.0,48,90,7.0,64.0
23843,55.0,24,180,3.0,64.0
23844,64.0,0,90,8.0,64.0
23845,52.0,0,240,4.0,64.0
23846,52.0,24,90,10.0,64.0
23847,64.0,0,90,8.0,64.0
23848,76.0,0,90,7.0,64.0
23849,67.0,24,180,3.0,64.0
23850,55.0,0,90,4.0,64.0
23851,79.0,0,90,8.0,64.0
23852,67.0,96,90,10.0,64.0
23853,91.0,0,90,7.0,64.0
23854,67.0,0,90,4.0,64.0
23855,79.0,0,90,8.0,64.0
23856,91.0,0,90,7.0,64.0
23857,67.0,120,90,10.0,64.0
23858,67.0,0,90,4.0,64.0
23859,55.0,96,90,4.0,64.0
23860,79.0,0,90,2.0,64.0
23861,67.0,0,90,2.0,64.0
23862,91.0,0,90,7.0,64.0
23863,79.0,0,90,8.0,64.0
23864,67.0,0,90,11.0,64.0
23865,43.0,24,180,6.0,64.0
23866,79.0,0,90,1.0,64.0
23867,67.0,0,90,10.0,64.0
23868,55.0,0,90,12.0,64.0
23869,91.0,0,90,0.0,64.0
23870,67.0,0,90,5.0,64.0
23871,79.0,0,90,5.0,64.0
23872,67.0,24,90,10.0,64.0
23873,91.0,0,90,7.0,64.0
23874,79.0,0,90,8.0,64.0
23875,67.0,0,780,4.0,64.0
23876,67.0,0,240,11.0,64.0
23877,79.0,0,90,8.0,64.0
23878,43.0,72,390,6.0,64.0
23879,79.0,0,780,1.0,64.0
23880,55.0,96,240,12.0,64.0
23881,67.0,96,15,3.0,64.0
23882,55.0,0,780,3.0,64.0
23883,55.0,0,780,4.0,64.0
23884,91.0,0,780,0.0,64.0
23885,67.0,0,90,10.0,64.0
23886,91.0,120,90,7.0,64.0
23887,67.0,0,780,5.0,64.0
23888,67.0,48,780,2.0,64.0
23889,79.0,0,780,2.0,64.0
23890,79.0,0,780,5.0,64.0
23891,67.0,0,90,10.0,64.0
23892,79.0,24,90,8.0,64.0
23893,91.0,0,90,7.0,64.0
23894,67.0,0,90,10.0,64.0
23895,91.0,48,90,7.0,64.0
23896,79.0,0,90,8.0,64.0
23897,79.0,0,90,8.0,64.0
23898,67.0,120,90,10.0,64.0
23899,91.0,0,90,7.0,64.0
23900,67.0,0,240,11.0,64.0
23901,55.0,48,240,12.0,64.0
23902,79.0,120,90,8.0,64.0
23903,67.0,0,90,10.0,64.0
23904,43.0,72,390,6.0,64.0
23905,91.0,0,90,7.0,64.0
23906,67.0,0,90,10.0,64.0
23907,91.0,24,90,7.0,64.0
23908,79.0,0,90,8.0,64.0
23909,67.0,0,90,10.0,64.0
23910,91.0,48,90,7.0,64.0
23911,79.0,0,90,8.0,64.0
23912,79.0,120,90,8.0,64.0
23913,91.0,0,90,7.0,64.0
23914,67.0,0,90,10.0,64.0
23915,64.0,0,90,10.0,64.0
23916,52.0,0,780,3.0,64.0
23917,76.0,0,780,2.0,64.0
23918,76.0,0,90,8.0,64.0
23919,64.0,0,780,2.0,64.0
23920,64.0,0,780,5.0,64.0
23921,76.0,0,780,1.0,64.0
23922,88.0,48,780,0.0,64.0
23923,64.0,0,780,3.0,64.0
23924,88.0,120,90,7.0,64.0
23925,52.0,0,780,4.0,64.0
23926,64.0,0,780,4.0,64.0
23927,76.0,0,780,5.0,64.0
23928,76.0,0,90,8.0,64.0
23929,64.0,120,90,10.0,64.0
23930,88.0,0,90,7.0,64.0
23931,76.0,0,90,8.0,64.0
23932,64.0,0,90,10.0,64.0
23933,88.0,120,90,7.0,64.0
23934,76.0,0,90,8.0,64.0
23935,88.0,120,90,7.0,64.0
23936,64.0,0,90,10.0,64.0
23937,48.0,72,390,6.0,64.0
23938,64.0,0,240,11.0,64.0
23939,88.0,0,90,7.0,64.0
23940,76.0,120,90,8.0,64.0
23941,64.0,0,90,10.0,64.0
23942,52.0,48,240,12.0,64.0
23943,76.0,0,90,8.0,64.0
23944,64.0,0,90,10.0,64.0
23945,88.0,24,90,7.0,64.0
23946,64.0,48,90,10.0,64.0
23947,76.0,0,90,8.0,64.0
23948,88.0,0,90,7.0,64.0
23949,88.0,0,90,7.0,64.0
23950,76.0,0,90,8.0,64.0
23951,64.0,120,90,10.0,64.0
23952,60.0,0,90,10.0,64.0
23953,84.0,48,780,0.0,64.0
23954,72.0,0,780,1.0,64.0
23955,84.0,120,90,7.0,64.0
23956,72.0,0,780,2.0,64.0
23957,60.0,0,780,3.0,64.0
23958,60.0,0,780,4.0,64.0
23959,48.0,0,780,4.0,64.0
23960,72.0,0,90,8.0,64.0
23961,60.0,0,780,5.0,64.0
23962,48.0,0,780,3.0,64.0
23963,60.0,0,780,2.0,64.0
23964,72.0,0,780,5.0,64.0
23965,72.0,0,90,8.0,64.0
23966,84.0,120,90,7.0,64.0
23967,60.0,0,90,10.0,64.0
23968,84.0,0,90,7.0,64.0
23969,72.0,0,90,8.0,64.0
23970,60.0,120,90,10.0,64.0
23971,84.0,0,90,7.0,64.0
23972,60.0,120,90,10.0,64.0
23973,72.0,0,90,8.0,64.0
23974,48.0,72,390,6.0,64.0
23975,60.0,120,90,10.0,64.0
23976,84.0,0,90,7.0,64.0
23977,72.0,0,90,8.0,64.0
23978,48.0,0,240,12.0,64.0
23979,60.0,48,240,11.0,64.0
23980,72.0,0,90,8.0,64.0
23981,84.0,24,90,7.0,64.0
23982,60.0,0,90,10.0,64.0
23983,60.0,0,90,10.0,64.0
23984,72.0,48,90,8.0,64.0
23985,84.0,0,90,7.0,64.0
23986,84.0,0,90,7.0,64.0
23987,60.0,0,90,10.0,64.0
23988,72.0,120,90,8.0,64.0
23989,67.0,0,780,2.0,64.0
23990,79.0,0,780,0.0,64.0
23991,55.0,0,90,10.0,64.0
23992,79.0,0,90,7.0,64.0
23993,67.0,120,90,8.0,64.0
23994,55.0,0,780,2.0,64.0
23995,55.0,0,780,3.0,64.0
23996,55.0,0,780,4.0,64.0
23997,67.0,48,780,1.0,64.0
23998,55.0,0,780,5.0,64.0
23999,43.0,0,780,3.0,64.0
24000,43.0,0,780,4.0,64.0
24001,67.0,0,780,5.0,64.0
24002,67.0,0,90,8.0,64.0
24003,79.0,120,90,7.0,64.0
24004,55.0,0,90,10.0,64.0
24005,79.0,120,90,7.0,64.0
24006,67.0,0,90,8.0,64.0
24007,55.0,0,90,10.0,64.0
24008,55.0,0,90,10.0,64.0
24009,67.0,120,90,8.0,64.0
24010,79.0,0,90,7.0,64.0
24011,67.0,0,90,8.0,64.0
24012,55.0,0,90,10.0,64.0
24013,55.0,0,240,11.0,64.0
24014,79.0,120,90,7.0,64.0
24015,48.0,72,390,6.0,64.0
24016,43.0,48,240,12.0,64.0
24017,79.0,0,90,7.0,64.0
24018,55.0,24,90,10.0,64.0
24019,67.0,0,90,8.0,64.0
24020,79.0,0,90,7.0,64.0
24021,55.0,48,90,10.0,64.0
24022,67.0,0,90,8.0,64.0
24023,55.0,120,90,10.0,64.0
24024,67.0,0,90,8.0,64.0
24025,79.0,0,90,7.0,64.0
24026,64.0,0,780,1.0,64.0
24027,52.0,0,780,4.0,64.0
24028,64.0,0,780,4.0,64.0
24029,64.0,0,90,8.0,64.0
24030,52.0,120,90,10.0,64.0
24031,76.0,0,780,1.0,64.0
24032,76.0,0,90,7.0,64.0
24033,52.0,0,780,3.0,64.0
24034,40.0,0,780,3.0,64.0
24035,76.0,48,780,0.0,64.0
24036,64.0,0,780,2.0,64.0
24037,76.0,0,780,2.0,64.0
24038,64.0,0,780,5.0,64.0
24039,52.0,0,90,10.0,64.0
24040,64.0,0,90,8.0,64.0
24041,76.0,120,90,7.0,64.0
24042,64.0,0,90,8.0,64.0
24043,76.0,0,90,7.0,64.0
24044,52.0,120,90,10.0,64.0
24045,64.0,0,90,8.0,64.0
24046,76.0,120,90,7.0,64.0
24047,52.0,0,90,10.0,64.0
24048,40.0,0,240,12.0,64.0
24049,76.0,0,90,7.0,64.0
24050,52.0,0,90,10.0,64.0
24051,48.0,72,390,6.0,64.0
24052,52.0,48,240,11.0,64.0
24053,64.0,120,90,8.0,64.0
24054,64.0,0,90,8.0,64.0
24055,76.0,24,90,7.0,64.0
24056,52.0,0,90,10.0,64.0
24057,52.0,0,90,10.0,64.0
24058,76.0,0,90,7.0,64.0
24059,64.0,48,90,8.0,64.0
24060,64.0,0,90,8.0,64.0
24061,76.0,120,90,7.0,64.0
24062,52.0,0,90,10.0,64.0
24063,48.0,0,90,10.0,64.0
24064,60.0,0,780,2.0,64.0
24065,60.0,0,780,4.0,64.0
24066,72.0,0,780,2.0,64.0
24067,72.0,0,780,1.0,64.0
24068,60.0,0,780,1.0,64.0
24069,60.0,0,780,5.0,64.0
24070,48.0,0,780,4.0,64.0
24071,72.0,120,90,7.0,64.0
24072,60.0,0,90,8.0,64.0
24073,48.0,0,780,3.0,64.0
24074,36.0,48,780,3.0,64.0
24075,72.0,0,780,0.0,64.0
24076,60.0,0,90,8.0,64.0
24077,48.0,0,90,10.0,64.0
24078,72.0,120,90,7.0,64.0
24079,60.0,0,90,8.0,64.0
24080,72.0,0,90,7.0,64.0
24081,48.0,120,90,10.0,64.0
24082,60.0,0,90,8.0,64.0
24083,72.0,0,90,7.0,64.0
24084,48.0,120,90,10.0,64.0
24085,36.0,0,240,12.0,64.0
24086,72.0,0,90,7.0,64.0
24087,48.0,72,390,6.0,64.0
24088,48.0,48,240,11.0,64.0
24089,60.0,0,90,8.0,64.0
24090,48.0,120,90,10.0,64.0
24091,60.0,0,90,8.0,64.0
24092,72.0,0,90,7.0,64.0
24093,48.0,24,90,10.0,64.0
24094,60.0,0,90,8.0,64.0
24095,48.0,48,90,10.0,64.0
24096,72.0,0,90,7.0,64.0
24097,72.0,0,90,7.0,64.0
24098,48.0,0,90,10.0,64.0
24099,60.0,120,90,8.0,64.0
24100,64.0,0,90,8.0,64.0
24101,76.0,0,780,1.0,64.0
24102,64.0,0,780,1.0,64.0
24103,76.0,120,90,7.0,64.0
24104,64.0,0,780,5.0,64.0
24105,40.0,0,780,3.0,64.0
24106,52.0,0,780,4.0,64.0
24107,64.0,0,780,4.0,64.0
24108,64.0,0,780,2.0,64.0
24109,52.0,0,780,3.0,64.0
24110,76.0,48,780,0.0,64.0
24111,76.0,0,780,2.0,64.0
24112,52.0,0,90,10.0,64.0
24113,52.0,0,90,10.0,64.0
24114,64.0,0,90,8.0,64.0
24115,76.0,120,90,7.0,64.0
24116,76.0,0,90,7.0,64.0
24117,64.0,120,90,8.0,64.0
24118,52.0,0,90,10.0,64.0
24119,76.0,0,90,7.0,64.0
24120,52.0,0,90,10.0,64.0
24121,64.0,120,90,8.0,64.0
24122,48.0,72,390,6.0,64.0
24123,64.0,0,90,8.0,64.0
24124,52.0,120,90,10.0,64.0
24125,40.0,0,240,12.0,64.0
24126,52.0,48,240,11.0,64.0
24127,76.0,0,90,7.0,64.0
24128,76.0,24,90,7.0,64.0
24129,64.0,0,90,8.0,64.0
24130,52.0,0,90,10.0,64.0
24131,76.0,48,90,7.0,64.0
24132,64.0,0,90,8.0,64.0
24133,52.0,0,90,10.0,64.0
24134,76.0,0,90,7.0,64.0
24135,64.0,0,90,8.0,64.0
24136,52.0,120,90,10.0,64.0
24137,55.0,0,90,10.0,64.0
24138,79.0,0,780,0.0,64.0
24139,67.0,0,780,1.0,64.0
24140,67.0,48,780,4.0,64.0
24141,79.0,120,90,7.0,64.0
24142,67.0,0,90,8.0,64.0
24143,55.0,0,780,4.0,64.0
24144,55.0,0,780,3.0,64.0
24145,43.0,0,780,3.0,64.0
24146,67.0,0,780,5.0,64.0
24147,55.0,0,780,5.0,64.0
24148,67.0,0,780,2.0,64.0
24149,79.0,0,780,2.0,64.0
24150,79.0,0,780,1.0,64.0
24151,55.0,0,90,10.0,64.0
24152,67.0,120,90,8.0,64.0
24153,79.0,0,90,7.0,64.0
24154,55.0,0,90,10.0,64.0
24155,79.0,120,90,7.0,64.0
24156,67.0,0,90,8.0,64.0
24157,55.0,120,90,10.0,64.0
24158,67.0,0,90,8.0,64.0
24159,79.0,0,90,7.0,64.0
24160,79.0,120,90,7.0,64.0
24161,55.0,48,240,11.0,64.0
24162,67.0,0,90,8.0,64.0
24163,48.0,72,390,6.0,64.0
24164,43.0,0,240,12.0,64.0
24165,55.0,0,90,10.0,64.0
24166,67.0,0,90,8.0,64.0
24167,79.0,0,90,7.0,64.0
24168,55.0,24,90,10.0,64.0
24169,67.0,48,90,8.0,64.0
24170,79.0,0,90,7.0,64.0
24171,55.0,0,90,10.0,64.0
24172,55.0,120,90,10.0,64.0
24173,79.0,0,90,7.0,64.0
24174,67.0,0,90,8.0,64.0
24175,72.0,0,780,4.0,64.0
24176,60.0,0,780,5.0,64.0
24177,60.0,48,780,4.0,64.0
24178,72.0,0,780,5.0,64.0
24179,72.0,0,780,1.0,64.0
24180,84.0,0,780,1.0,64.0
24181,72.0,0,90,8.0,64.0
24182,60.0,0,780,3.0,64.0
24183,48.0,0,780,3.0,64.0
24184,84.0,0,780,2.0,64.0
24185,84.0,0,90,7.0,64.0
24186,60.0,120,90,10.0,64.0
24187,72.0,0,780,2.0,64.0
24188,84.0,0,780,0.0,64.0
24189,72.0,120,90,8.0,64.0
24190,84.0,0,90,7.0,64.0
24191,60.0,0,90,10.0,64.0
24192,72.0,0,90,8.0,64.0
24193,60.0,0,90,10.0,64.0
24194,84.0,120,90,7.0,64.0
24195,72.0,120,90,8.0,64.0
24196,60.0,0,90,10.0,64.0
24197,84.0,0,90,7.0,64.0
24198,72.0,120,90,8.0,64.0
24199,60.0,0,240,11.0,64.0
24200,84.0,0,90,7.0,64.0
24201,60.0,0,90,10.0,64.0
24202,48.0,48,240,12.0,64.0
24203,48.0,72,390,6.0,64.0
24204,84.0,0,90,7.0,64.0
24205,72.0,0,90,8.0,64.0
24206,60.0,24,90,10.0,64.0
24207,60.0,48,90,10.0,64.0
24208,84.0,0,90,7.0,64.0
24209,72.0,0,90,8.0,64.0
24210,60.0,0,90,10.0,64.0
24211,84.0,120,90,7.0,64.0
24212,72.0,0,90,8.0,64.0
24213,52.0,0,780,3.0,64.0
24214,64.0,0,90,10.0,64.0
24215,76.0,120,90,8.0,64.0
24216,64.0,0,780,5.0,64.0
24217,88.0,0,90,7.0,64.0
24218,64.0,0,780,1.0,64.0
24219,64.0,0,780,3.0,64.0
24220,76.0,0,780,2.0,64.0
24221,64.0,0,780,2.0,64.0
24222,52.0,0,780,4.0,64.0
24223,76.0,0,780,5.0,64.0
24224,88.0,48,780,0.0,64.0
24225,76.0,0,780,1.0,64.0
24226,64.0,0,780,4.0,64.0
24227,88.0,0,90,7.0,64.0
24228,64.0,0,90,10.0,64.0
24229,76.0,120,90,8.0,64.0
24230,64.0,0,90,10.0,64.0
24231,88.0,0,90,7.0,64.0
24232,76.0,120,90,8.0,64.0
24233,76.0,0,90,8.0,64.0
24234,64.0,0,90,10.0,64.0
24235,88.0,120,90,7.0,64.0
24236,76.0,0,90,8.0,64.0
24237,64.0,0,90,10.0,64.0
24238,48.0,72,390,6.0,64.0
24239,64.0,48,240,11.0,64.0
24240,88.0,120,90,7.0,64.0
24241,52.0,0,240,12.0,64.0
24242,64.0,24,90,10.0,64.0
24243,76.0,0,90,8.0,64.0
24244,88.0,0,90,7.0,64.0
24245,76.0,0,90,8.0,64.0
24246,88.0,48,90,7.0,64.0
24247,64.0,0,90,10.0,64.0
24248,76.0,0,90,8.0,64.0
24249,64.0,88,90,10.0,64.0
24250,88.0,0,90,7.0,64.0
24251,91.0,0,1530,0.0,64.0
24252,91.0,0,90,7.0,64.0
24253,79.0,0,1530,5.0,64.0
24254,79.0,0,1530,0.0,64.0
24255,67.0,0,1530,5.0,64.0
24256,77.0,0,1530,1.0,64.0
24257,67.0,0,1530,4.0,64.0
24258,65.0,0,1530,3.0,64.0
24259,65.0,0,1530,2.0,64.0
24260,62.0,0,1530,2.0,64.0
24261,43.0,32,60,6.0,64.0
24262,55.0,0,1530,4.0,64.0
24263,62.0,0,1530,3.0,64.0
24264,74.0,0,1530,1.0,64.0
24265,65.0,0,90,10.0,64.0
24266,31.0,0,90,12.0,64.0
24267,74.0,0,90,8.0,64.0
24268,43.0,48,90,11.0,64.0
24269,43.0,72,60,6.0,64.0
24270,65.0,8,90,10.0,64.0
24271,74.0,0,90,8.0,64.0
24272,91.0,0,90,7.0,64.0
24273,43.0,80,60,6.0,64.0
24274,64.0,0,90,10.0,64.0
24275,91.0,0,90,7.0,64.0
24276,72.0,0,90,8.0,64.0
24277,43.0,48,90,12.0,64.0
24278,55.0,0,90,11.0,64.0
24279,43.0,32,60,6.0,64.0
24280,43.0,72,60,6.0,64.0
24281,74.0,0,90,8.0,64.0
24282,91.0,0,90,7.0,64.0
24283,65.0,8,90,10.0,64.0
24284,43.0,80,60,6.0,64.0
24285,43.0,32,60,6.0,64.0
24286,64.0,0,90,10.0,64.0
24287,91.0,0,90,7.0,64.0
24288,43.0,0,90,12.0,64.0
24289,72.0,48,90,8.0,64.0
24290,55.0,0,90,11.0,64.0
24291,43.0,72,60,6.0,64.0
24292,74.0,0,90,8.0,64.0
24293,65.0,8,90,10.0,64.0
24294,91.0,0,90,7.0,64.0
24295,43.0,80,60,6.0,64.0
24296,76.0,0,90,8.0,64.0
24297,91.0,0,90,7.0,64.0
24298,55.0,48,90,11.0,64.0
24299,43.0,32,60,6.0,64.0
24300,67.0,0,90,10.0,64.0
24301,43.0,0,90,12.0,64.0
24302,43.0,72,60,6.0,64.0
24303,65.0,0,90,10.0,64.0
24304,91.0,8,90,7.0,64.0
24305,74.0,0,90,8.0,64.0
24306,43.0,80,60,6.0,64.0
24307,91.0,0,90,7.0,64.0
24308,43.0,0,90,12.0,64.0
24309,74.0,0,90,8.0,64.0
24310,55.0,48,90,11.0,64.0
24311,43.0,32,60,6.0,64.0
24312,65.0,0,90,10.0,64.0
24313,43.0,72,60,6.0,64.0
24314,65.0,0,90,10.0,64.0
24315,74.0,8,90,8.0,64.0
24316,91.0,0,90,7.0,64.0
24317,43.0,80,60,6.0,64.0
24318,43.0,32,60,6.0,64.0
24319,55.0,48,90,11.0,64.0
24320,72.0,0,90,8.0,64.0
24321,43.0,0,90,12.0,64.0
24322,91.0,0,90,7.0,64.0
24323,64.0,0,90,10.0,64.0
24324,43.0,72,60,6.0,64.0
24325,91.0,0,90,7.0,64.0
24326,74.0,0,90,8.0,64.0
24327,65.0,8,90,10.0,64.0
24328,43.0,80,60,6.0,64.0
24329,72.0,0,90,8.0,64.0
24330,64.0,48,90,10.0,64.0
24331,43.0,32,60,6.0,64.0
24332,43.0,0,90,12.0,64.0
24333,55.0,0,90,11.0,64.0
24334,91.0,0,90,7.0,64.0
24335,43.0,72,60,6.0,64.0
24336,91.0,8,90,7.0,64.0
24337,65.0,0,90,10.0,64.0
24338,74.0,0,90,8.0,64.0
24339,43.0,80,60,6.0,64.0
24340,67.0,0,90,10.0,64.0
24341,91.0,0,90,7.0,64.0
24342,43.0,32,60,6.0,64.0
24343,55.0,0,90,11.0,64.0
24344,76.0,48,90,8.0,64.0
24345,43.0,0,90,12.0,64.0
24346,43.0,72,60,6.0,64.0
24347,91.0,0,90,7.0,64.0
24348,65.0,8,90,10.0,64.0
24349,74.0,0,90,8.0,64.0
24350,43.0,112,60,6.0,64.0
24351,60.0,0,180,4.0,64.0
24352,48.0,0,180,12.0,64.0
24353,64.0,0,180,8.0,64.0
24354,72.0,0,180,8.0,64.0
24355,72.0,0,180,5.0,64.0
24356,60.0,96,90,2.0,64.0
24357,64.0,0,180,4.0,64.0
24358,55.0,0,180,10.0,64.0
24359,64.0,168,180,10.0,64.0
24360,48.0,72,390,6.0,64.0
24361,64.0,0,90,3.0,64.0
24362,60.0,0,90,3.0,64.0
24363,64.0,0,90,2.0,64.0
24364,60.0,0,180,5.0,64.0
24365,60.0,0,180,11.0,64.0
24366,72.0,0,90,1.0,64.0
24367,76.0,0,90,1.0,64.0
24368,88.0,0,90,0.0,64.0
24369,79.0,0,90,0.0,64.0
24370,88.0,0,180,7.0,64.0
24371,71.0,0,120,1.0,64.0
24372,74.0,0,120,1.0,64.0
24373,59.0,0,120,2.0,64.0
24374,59.0,24,120,3.0,64.0
24375,62.0,0,120,3.0,64.0
24376,86.0,0,120,0.0,64.0
24377,83.0,0,120,0.0,64.0
24378,62.0,0,120,2.0,64.0
24379,60.0,0,120,2.0,64.0
24380,88.0,0,120,0.0,64.0
24381,84.0,0,120,0.0,64.0
24382,76.0,96,120,1.0,64.0
24383,72.0,0,120,1.0,64.0
24384,64.0,24,90,2.0,64.0
24385,60.0,0,120,3.0,64.0
24386,64.0,0,120,3.0,64.0
24387,74.0,0,90,1.0,64.0
24388,77.0,0,90,1.0,64.0
24389,65.0,0,90,2.0,64.0
24390,62.0,0,90,2.0,64.0
24391,55.0,0,90,4.0,64.0
24392,62.0,0,90,4.0,64.0
24393,89.0,0,90,0.0,64.0
24394,86.0,0,90,0.0,64.0
24395,62.0,0,90,3.0,64.0
24396,43.0,144,180,6.0,64.0
24397,67.0,0,90,5.0,64.0
24398,55.0,0,90,5.0,64.0
24399,65.0,96,90,3.0,64.0
24400,60.0,0,90,3.0,64.0
24401,76.0,0,90,1.0,64.0
24402,60.0,0,90,4.0,64.0
24403,60.0,0,90,5.0,64.0
24404,64.0,0,90,4.0,64.0
24405,72.0,0,90,1.0,64.0
24406,60.0,0,90,2.0,64.0
24407,64.0,0,90,2.0,64.0
24408,84.0,0,90,0.0,64.0
24409,88.0,96,90,0.0,64.0
24410,72.0,0,90,5.0,64.0
24411,48.0,144,180,6.0,64.0
24412,64.0,0,90,3.0,64.0
24413,60.0,0,90,3.0,64.0
24414,64.0,0,90,2.0,64.0
24415,84.0,0,90,0.0,64.0
24416,64.0,0,180,4.0,64.0
24417,60.0,0,180,4.0,64.0
24418,76.0,0,90,1.0,64.0
24419,72.0,168,180,5.0,64.0
24420,48.0,72,390,6.0,64.0
24421,60.0,0,180,5.0,64.0
24422,72.0,0,90,1.0,64.0
24423,88.0,96,90,0.0,64.0
24424,64.0,0,90,3.0,64.0
24425,60.0,0,90,2.0,64.0
24426,74.0,0,120,1.0,64.0
24427,71.0,0,120,1.0,64.0
24428,59.0,0,120,2.0,64.0
24429,62.0,24,120,2.0,64.0
24430,83.0,0,120,0.0,64.0
24431,59.0,0,120,3.0,64.0
24432,62.0,0,120,3.0,64.0
24433,86.0,0,120,0.0,64.0
24434,84.0,96,120,0.0,64.0
24435,76.0,0,120,1.0,64.0
24436,72.0,0,120,1.0,64.0
24437,60.0,0,120,2.0,64.0
24438,64.0,24,90,2.0,64.0
24439,64.0,0,120,3.0,64.0
24440,60.0,0,120,3.0,64.0
24441,88.0,0,120,0.0,64.0
24442,89.0,0,90,0.0,64.0
24443,65.0,0,90,2.0,64.0
24444,62.0,96,90,2.0,64.0
24445,86.0,0,90,0.0,64.0
24446,65.0,0,90,3.0,64.0
24447,77.0,0,90,1.0,64.0
24448,43.0,144,180,6.0,64.0
24449,62.0,0,90,3.0,64.0
24450,74.0,0,90,1.0,64.0
24451,67.0,0,90,5.0,64.0
24452,62.0,0,90,4.0,64.0
24453,55.0,0,90,5.0,64.0
24454,55.0,0,90,4.0,64.0
24455,72.0,0,90,5.0,64.0
24456,60.0,0,90,3.0,64.0
24457,88.0,0,90,0.0,64.0
24458,84.0,0,90,0.0,64.0
24459,60.0,0,90,4.0,64.0
24460,64.0,0,90,4.0,64.0
24461,64.0,0,90,3.0,64.0
24462,60.0,0,90,5.0,64.0
24463,72.0,96,90,1.0,64.0
24464,48.0,112,180,6.0,64.0
24465,60.0,0,90,2.0,64.0
24466,64.0,0,90,2.0,64.0
24467,76.0,0,90,1.0,64.0
24468,43.0,0,90,11.0,64.0
24469,62.0,0,1530,3.0,64.0
24470,65.0,0,1530,3.0,64.0
24471,91.0,0,1530,0.0,64.0
24472,79.0,0,1530,0.0,64.0
24473,67.0,0,1530,5.0,64.0
24474,91.0,0,90,7.0,64.0
24475,67.0,0,1530,4.0,64.0
24476,65.0,0,90,10.0,64.0
24477,55.0,0,1530,4.0,64.0
24478,79.0,0,1530,5.0,64.0
24479,74.0,48,90,8.0,64.0
24480,77.0,0,1530,1.0,64.0
24481,65.0,48,1530,2.0,64.0
24482,62.0,0,1530,2.0,64.0
24483,43.0,32,60,6.0,64.0
24484,74.0,0,1530,1.0,64.0
24485,31.0,0,90,12.0,64.0
24486,43.0,72,60,6.0,64.0
24487,65.0,0,90,10.0,64.0
24488,74.0,0,90,8.0,64.0
24489,91.0,8,90,7.0,64.0
24490,43.0,80,60,6.0,64.0
24491,43.0,0,90,12.0,64.0
24492,55.0,48,90,11.0,64.0
24493,64.0,0,90,10.0,64.0
24494,43.0,32,60,6.0,64.0
24495,72.0,0,90,8.0,64.0
24496,91.0,0,90,7.0,64.0
24497,43.0,72,60,6.0,64.0
24498,65.0,8,90,10.0,64.0
24499,91.0,0,90,7.0,64.0
24500,74.0,0,90,8.0,64.0
24501,43.0,80,60,6.0,64.0
24502,72.0,0,90,8.0,64.0
24503,55.0,0,90,11.0,64.0
24504,43.0,32,60,6.0,64.0
24505,91.0,48,90,7.0,64.0
24506,64.0,0,90,10.0,64.0
24507,43.0,0,90,12.0,64.0
24508,43.0,72,60,6.0,64.0
24509,65.0,0,90,10.0,64.0
24510,91.0,0,90,7.0,64.0
24511,74.0,8,90,8.0,64.0
24512,43.0,80,60,6.0,64.0
24513,43.0,32,60,6.0,64.0
24514,43.0,48,90,12.0,64.0
24515,91.0,0,90,7.0,64.0
24516,67.0,0,90,10.0,64.0
24517,55.0,0,90,11.0,64.0
24518,76.0,0,90,8.0,64.0
24519,43.0,72,60,6.0,64.0
24520,91.0,8,90,7.0,64.0
24521,74.0,0,90,8.0,64.0
24522,65.0,0,90,10.0,64.0
24523,43.0,80,60,6.0,64.0
24524,74.0,0,90,8.0,64.0
24525,55.0,0,90,11.0,64.0
24526,43.0,32,60,6.0,64.0
24527,65.0,48,90,10.0,64.0
24528,43.0,0,90,12.0,64.0
24529,91.0,0,90,7.0,64.0
24530,43.0,72,60,6.0,64.0
24531,65.0,8,90,10.0,64.0
24532,74.0,0,90,8.0,64.0
24533,91.0,0,90,7.0,64.0
24534,43.0,80,60,6.0,64.0
24535,55.0,48,90,11.0,64.0
24536,64.0,0,90,10.0,64.0
24537,43.0,0,90,12.0,64.0
24538,91.0,0,90,7.0,64.0
24539,43.0,32,60,6.0,64.0
24540,72.0,0,90,8.0,64.0
24541,43.0,72,60,6.0,64.0
24542,65.0,0,90,10.0,64.0
24543,91.0,0,90,7.0,64.0
24544,74.0,8,90,8.0,64.0
24545,43.0,80,60,6.0,64.0
24546,55.0,0,90,11.0,64.0
24547,72.0,0,90,8.0,64.0
24548,91.0,0,90,7.0,64.0
24549,43.0,0,90,12.0,64.0
24550,43.0,32,60,6.0,64.0
24551,64.0,0,90,10.0,64.0
24552,43.0,72,60,6.0,64.0
24553,91.0,8,90,7.0,64.0
24554,74.0,0,90,8.0,64.0
24555,65.0,0,90,10.0,64.0
24556,43.0,80,60,6.0,64.0
24557,76.0,0,90,8.0,64.0
24558,43.0,0,90,12.0,64.0
24559,91.0,0,90,7.0,64.0
24560,67.0,48,90,10.0,64.0
24561,43.0,32,60,6.0,64.0
24562,55.0,0,90,11.0,64.0
24563,43.0,72,60,6.0,64.0
24564,65.0,0,90,10.0,64.0
24565,91.0,8,90,7.0,64.0
24566,74.0,0,90,8.0,64.0
24567,43.0,112,60,6.0,64.0
24568,79.0,0,90,0.0,64.0
24569,88.0,96,90,0.0,64.0
24570,60.0,0,180,11.0,64.0
24571,60.0,0,180,4.0,64.0
24572,64.0,0,180,4.0,64.0
24573,88.0,0,180,7.0,64.0
24574,72.0,0,180,8.0,64.0
24575,72.0,0,180,5.0,64.0
24576,60.0,0,90,2.0,64.0
24577,64.0,0,90,2.0,64.0
24578,48.0,0,180,12.0,64.0
24579,60.0,0,180,5.0,64.0
24580,60.0,0,90,3.0,64.0
24581,72.0,0,90,1.0,64.0
24582,76.0,0,90,1.0,64.0
24583,48.0,72,390,6.0,64.0
24584,64.0,0,180,8.0,64.0
24585,55.0,168,180,10.0,64.0
24586,64.0,0,180,10.0,64.0
24587,64.0,0,90,3.0,64.0
24588,86.0,0,120,0.0,64.0
24589,59.0,0,120,2.0,64.0
24590,83.0,0,120,0.0,64.0
24591,74.0,0,120,1.0,64.0
24592,71.0,24,120,1.0,64.0
24593,59.0,0,120,3.0,64.0
24594,62.0,0,120,3.0,64.0
24595,62.0,0,120,2.0,64.0
24596,64.0,24,90,2.0,64.0
24597,60.0,0,120,2.0,64.0
24598,60.0,0,120,3.0,64.0
24599,64.0,0,120,3.0,64.0
24600,76.0,0,120,1.0,64.0
24601,84.0,0,120,0.0,64.0
24602,88.0,96,120,0.0,64.0
24603,72.0,0,120,1.0,64.0
24604,77.0,0,90,1.0,64.0
24605,65.0,0,90,3.0,64.0
24606,62.0,0,90,3.0,64.0
24607,67.0,0,90,5.0,64.0
24608,55.0,0,90,5.0,64.0
24609,65.0,96,90,2.0,64.0
24610,86.0,0,90,0.0,64.0
24611,43.0,144,180,6.0,64.0
24612,89.0,0,90,0.0,64.0
24613,55.0,0,90,4.0,64.0
24614,62.0,0,90,2.0,64.0
24615,62.0,0,90,4.0,64.0
24616,74.0,0,90,1.0,64.0
24617,72.0,0,90,1.0,64.0
24618,76.0,0,90,1.0,64.0
24619,48.0,144,180,6.0,64.0
24620,64.0,0,90,4.0,64.0
24621,60.0,0,90,4.0,64.0
24622,60.0,96,90,2.0,64.0
24623,60.0,0,90,3.0,64.0
24624,72.0,0,90,5.0,64.0
24625,60.0,0,90,5.0,64.0
24626,64.0,0,90,3.0,64.0
24627,64.0,0,90,2.0,64.0
24628,84.0,0,90,0.0,64.0
24629,88.0,0,90,0.0,64.0
24630,84.0,0,90,0.0,64.0
24631,64.0,0,90,3.0,64.0
24632,60.0,96,90,3.0,64.0
24633,60.0,0,180,5.0,64.0
24634,72.0,0,180,5.0,64.0
24635,76.0,0,90,1.0,64.0
24636,72.0,0,90,1.0,64.0
24637,48.0,72,390,6.0,64.0
24638,64.0,0,180,4.0,64.0
24639,60.0,168,180,4.0,64.0
24640,64.0,0,90,2.0,64.0
24641,60.0,0,90,2.0,64.0
24642,88.0,0,90,0.0,64.0
24643,62.0,0,120,2.0,64.0
24644,86.0,0,120,0.0,64.0
24645,83.0,0,120,0.0,64.0
24646,59.0,0,120,3.0,64.0
24647,59.0,0,120,2.0,64.0
24648,62.0,24,120,3.0,64.0
24649,71.0,0,120,1.0,64.0
24650,74.0,0,120,1.0,64.0
24651,84.0,0,120,0.0,64.0
24652,64.0,96,120,3.0,64.0
24653,72.0,0,120,1.0,64.0
24654,76.0,0,120,1.0,64.0
24655,88.0,0,120,0.0,64.0
24656,60.0,0,120,2.0,64.0
24657,64.0,24,90,2.0,64.0
24658,60.0,0,120,3.0,64.0
24659,74.0,0,90,1.0,64.0
24660,62.0,0,90,2.0,64.0
24661,43.0,144,180,6.0,64.0
24662,55.0,0,90,5.0,64.0
24663,67.0,0,90,5.0,64.0
24664,77.0,0,90,1.0,64.0
24665,65.0,96,90,2.0,64.0
24666,62.0,0,90,4.0,64.0
24667,55.0,0,90,4.0,64.0
24668,89.0,0,90,0.0,64.0
24669,86.0,0,90,0.0,64.0
24670,62.0,0,90,3.0,64.0
24671,65.0,0,90,3.0,64.0
24672,64.0,0,90,4.0,64.0
24673,60.0,0,90,4.0,64.0
24674,60.0,0,90,2.0,64.0
24675,64.0,0,90,2.0,64.0
24676,60.0,96,90,5.0,64.0
24677,84.0,0,90,0.0,64.0
24678,48.0,112,180,6.0,64.0
24679,60.0,0,90,3.0,64.0
24680,76.0,0,90,1.0,64.0
24681,72.0,0,90,1.0,64.0
24682,64.0,0,90,3.0,64.0
24683,88.0,0,90,0.0,64.0
24684,72.0,0,90,5.0,64.0
24685,91.0,0,90,7.0,64.0
24686,43.0,32,60,6.0,64.0
24687,43.0,0,90,11.0,64.0
24688,65.0,0,1530,2.0,64.0
24689,62.0,0,1530,3.0,64.0
24690,65.0,0,1530,3.0,64.0
24691,62.0,0,1530,2.0,64.0
24692,31.0,0,90,12.0,64.0
24693,77.0,0,1530,1.0,64.0
24694,65.0,0,90,10.0,64.0
24695,74.0,48,90,8.0,64.0
24696,67.0,0,1530,5.0,64.0
24697,79.0,0,1530,5.0,64.0
24698,91.0,0,1530,0.0,64.0
24699,79.0,0,1530,0.0,64.0
24700,74.0,0,1530,1.0,64.0
24701,55.0,48,1530,4.0,64.0
24702,67.0,0,1530,4.0,64.0
24703,43.0,72,60,6.0,64.0
24704,91.0,0,90,7.0,64.0
24705,65.0,8,90,10.0,64.0
24706,74.0,0,90,8.0,64.0
24707,43.0,80,60,6.0,64.0
24708,55.0,48,90,11.0,64.0
24709,64.0,0,90,10.0,64.0
24710,43.0,32,60,6.0,64.0
24711,72.0,0,90,8.0,64.0
24712,43.0,0,90,12.0,64.0
24713,91.0,0,90,7.0,64.0
24714,43.0,72,60,6.0,64.0
24715,74.0,0,90,8.0,64.0
24716,91.0,8,90,7.0,64.0
24717,65.0,0,90,10.0,64.0
24718,43.0,80,60,6.0,64.0
24719,64.0,0,90,10.0,64.0
24720,43.0,48,90,12.0,64.0
24721,43.0,32,60,6.0,64.0
24722,91.0,0,90,7.0,64.0
24723,55.0,0,90,11.0,64.0
24724,72.0,0,90,8.0,64.0
24725,43.0,72,60,6.0,64.0
24726,74.0,0,90,8.0,64.0
24727,65.0,0,90,10.0,64.0
24728,91.0,8,90,7.0,64.0
24729,43.0,80,60,6.0,64.0
24730,43.0,32,60,6.0,64.0
24731,55.0,0,90,11.0,64.0
24732,43.0,0,90,12.0,64.0
24733,91.0,0,90,7.0,64.0
24734,76.0,48,90,8.0,64.0
24735,67.0,0,90,10.0,64.0
24736,43.0,72,60,6.0,64.0
24737,91.0,8,90,7.0,64.0
24738,65.0,0,90,10.0,64.0
24739,74.0,0,90,8.0,64.0
24740,43.0,80,60,6.0,64.0
24741,65.0,0,90,10.0,64.0
24742,55.0,0,90,11.0,64.0
24743,43.0,32,60,6.0,64.0
24744,74.0,0,90,8.0,64.0
24745,43.0,0,90,12.0,64.0
24746,91.0,48,90,7.0,64.0
24747,43.0,72,60,6.0,64.0
24748,91.0,8,90,7.0,64.0
24749,83.0,0,90,8.0,64.0
24750,74.0,0,90,10.0,64.0
24751,43.0,80,60,6.0,64.0
24752,43.0,32,60,6.0,64.0
24753,81.0,0,90,8.0,64.0
24754,55.0,48,90,11.0,64.0
24755,91.0,0,90,7.0,64.0
24756,72.0,0,90,10.0,64.0
24757,43.0,0,90,12.0,64.0
24758,43.0,72,60,6.0,64.0
24759,91.0,0,90,7.0,64.0
24760,74.0,0,90,10.0,64.0
24761,83.0,8,90,8.0,64.0
24762,43.0,80,60,6.0,64.0
24763,72.0,0,90,10.0,64.0
24764,91.0,0,90,7.0,64.0
24765,43.0,0,90,12.0,64.0
24766,55.0,0,90,11.0,64.0
24767,43.0,32,60,6.0,64.0
24768,84.0,0,90,8.0,64.0
24769,43.0,72,60,6.0,64.0
24770,83.0,8,90,8.0,64.0
24771,91.0,0,90,7.0,64.0
24772,74.0,0,90,10.0,64.0
24773,43.0,80,60,6.0,64.0
24774,76.0,0,90,10.0,64.0
24775,43.0,0,90,12.0,64.0
24776,91.0,0,90,7.0,64.0
24777,81.0,0,90,8.0,64.0
24778,43.0,32,60,6.0,64.0
24779,55.0,48,90,11.0,64.0
24780,43.0,72,60,6.0,64.0
24781,74.0,8,90,10.0,64.0
24782,91.0,0,90,7.0,64.0
24783,83.0,0,90,8.0,64.0
24784,43.0,112,60,6.0,64.0
24785,64.0,0,90,3.0,64.0
24786,88.0,0,90,0.0,64.0
24787,84.0,0,180,7.0,64.0
24788,88.0,0,180,7.0,64.0
24789,48.0,72,390,6.0,64.0
24790,60.0,0,180,5.0,64.0
24791,76.0,0,90,1.0,64.0
24792,72.0,168,180,8.0,64.0
24793,48.0,0,180,12.0,64.0
24794,60.0,0,180,11.0,64.0
24795,60.0,96,90,3.0,64.0
24796,79.0,0,90,0.0,64.0
24797,64.0,0,180,4.0,64.0
24798,55.0,0,180,10.0,64.0
24799,60.0,0,180,4.0,64.0
24800,60.0,0,90,2.0,64.0
24801,64.0,0,90,2.0,64.0
24802,72.0,0,180,5.0,64.0
24803,72.0,0,90,1.0,64.0
24804,64.0,0,180,8.0,64.0
24805,64.0,0,180,10.0,64.0
24806,74.0,0,120,1.0,64.0
24807,62.0,0,120,3.0,64.0
24808,83.0,0,120,0.0,64.0
24809,86.0,0,120,0.0,64.0
24810,59.0,0,120,2.0,64.0
24811,62.0,0,120,2.0,64.0
24812,59.0,0,120,3.0,64.0
24813,71.0,24,120,1.0,64.0
24814,60.0,0,120,3.0,64.0
24815,64.0,0,120,3.0,64.0
24816,60.0,0,120,2.0,64.0
24817,88.0,0,120,0.0,64.0
24818,64.0,24,90,2.0,64.0
24819,76.0,0,120,1.0,64.0
24820,72.0,0,120,1.0,64.0
24821,84.0,96,120,0.0,64.0
24822,62.0,0,90,2.0,64.0
24823,65.0,0,90,2.0,64.0
24824,55.0,0,90,4.0,64.0
24825,62.0,0,90,4.0,64.0
24826,62.0,96,90,3.0,64.0
24827,65.0,0,90,3.0,64.0
24828,67.0,0,90,5.0,64.0
24829,55.0,0,90,5.0,64.0
24830,43.0,144,180,6.0,64.0
24831,74.0,0,90,1.0,64.0
24832,77.0,0,90,1.0,64.0
24833,86.0,0,90,0.0,64.0
24834,89.0,0,90,0.0,64.0
24835,84.0,0,90,0.0,64.0
24836,72.0,96,90,5.0,64.0
24837,76.0,0,90,1.0,64.0
24838,60.0,0,90,5.0,64.0
24839,88.0,0,90,0.0,64.0
24840,48.0,144,180,6.0,64.0
24841,72.0,0,90,1.0,64.0
24842,64.0,0,90,2.0,64.0
24843,60.0,0,90,4.0,64.0
24844,64.0,0,90,4.0,64.0
24845,60.0,0,90,2.0,64.0
24846,60.0,0,90,3.0,64.0
24847,64.0,0,90,3.0,64.0
24848,84.0,0,90,0.0,64.0
24849,88.0,0,90,0.0,64.0
24850,60.0,0,90,2.0,64.0
24851,60.0,0,180,5.0,64.0
24852,72.0,0,180,5.0,64.0
24853,48.0,72,390,6.0,64.0
24854,60.0,0,90,3.0,64.0
24855,64.0,96,90,3.0,64.0
24856,60.0,168,180,4.0,64.0
24857,64.0,0,180,4.0,64.0
24858,76.0,0,90,1.0,64.0
24859,72.0,0,90,1.0,64.0
24860,64.0,0,90,2.0,64.0
24861,74.0,0,120,1.0,64.0
24862,86.0,0,120,0.0,64.0
24863,59.0,0,120,2.0,64.0
24864,62.0,0,120,2.0,64.0
24865,59.0,0,120,3.0,64.0
24866,62.0,0,120,3.0,64.0
24867,71.0,24,120,1.0,64.0
24868,83.0,0,120,0.0,64.0
24869,88.0,0,120,0.0,64.0
24870,84.0,0,120,0.0,64.0
24871,60.0,96,120,2.0,64.0
24872,64.0,24,90,2.0,64.0
24873,64.0,0,120,3.0,64.0
24874,60.0,0,120,3.0,64.0
24875,76.0,0,120,1.0,64.0
24876,72.0,0,120,1.0,64.0
24877,77.0,0,90,1.0,64.0
24878,67.0,0,90,5.0,64.0
24879,55.0,0,90,5.0,64.0
24880,65.0,96,90,3.0,64.0
24881,43.0,144,180,6.0,64.0
24882,74.0,0,90,1.0,64.0
24883,55.0,0,90,4.0,64.0
24884,62.0,0,90,3.0,64.0
24885,62.0,0,90,4.0,64.0
24886,86.0,0,90,0.0,64.0
24887,62.0,0,90,2.0,64.0
24888,65.0,0,90,2.0,64.0
24889,89.0,0,90,0.0,64.0
24890,88.0,0,90,0.0,64.0
24891,72.0,0,90,1.0,64.0
24892,76.0,0,90,1.0,64.0
24893,72.0,0,90,5.0,64.0
24894,60.0,0,90,5.0,64.0
24895,64.0,0,90,3.0,64.0
24896,84.0,0,90,0.0,64.0
24897,64.0,0,90,4.0,64.0
24898,64.0,0,90,2.0,64.0
24899,60.0,96,90,4.0,64.0
24900,60.0,0,90,2.0,64.0
24901,48.0,144,180,6.0,64.0
24902,60.0,0,90,3.0,64.0
24903,91.0,0,90,0.0,64.0
24904,64.0,0,180,10.0,64.0
24905,88.0,0,90,0.0,64.0
24906,48.0,0,180,4.0,64.0
24907,60.0,0,180,4.0,64.0
24908,76.0,168,180,7.0,64.0
24909,84.0,0,180,7.0,64.0
24910,55.0,0,180,10.0,64.0
24911,48.0,0,180,10.0,64.0
24912,76.0,0,90,1.0,64.0
24913,36.0,0,180,12.0,64.0
24914,64.0,0,90,2.0,64.0
24915,67.0,0,90,3.0,64.0
24916,60.0,0,180,5.0,64.0
24917,79.0,0,90,1.0,64.0
24918,72.0,0,180,8.0,64.0
24919,72.0,0,180,5.0,64.0
24920,67.0,0,180,8.0,64.0
24921,48.0,72,390,6.0,64.0
24922,64.0,0,90,3.0,64.0
24923,67.0,96,90,2.0,64.0
24924,60.0,0,180,8.0,64.0
24925,48.0,0,180,11.0,64.0
24926,65.0,0,120,3.0,64.0
24927,77.0,0,120,1.0,64.0
24928,86.0,0,120,0.0,64.0
24929,74.0,0,120,1.0,64.0
24930,62.0,0,120,3.0,64.0
24931,89.0,24,120,0.0,64.0
24932,65.0,0,120,2.0,64.0
24933,62.0,0,120,2.0,64.0
24934,67.0,0,120,3.0,64.0
24935,64.0,0,120,3.0,64.0
24936,67.0,0,120,2.0,64.0
24937,64.0,24,90,2.0,64.0
24938,79.0,96,120,1.0,64.0
24939,88.0,0,120,0.0,64.0
24940,76.0,0,120,1.0,64.0
24941,91.0,0,120,0.0,64.0
24942,93.0,0,90,0.0,64.0
24943,89.0,0,90,0.0,64.0
24944,65.0,96,90,2.0,64.0
24945,69.0,0,90,2.0,64.0
24946,60.0,0,90,4.0,64.0
24947,48.0,0,90,4.0,64.0
24948,48.0,144,180,6.0,64.0
24949,72.0,0,90,5.0,64.0
24950,60.0,0,90,5.0,64.0
24951,69.0,0,90,3.0,64.0
24952,65.0,0,90,3.0,64.0
24953,81.0,0,90,1.0,64.0
24954,77.0,0,90,1.0,64.0
24955,72.0,0,90,5.0,64.0
24956,64.0,96,90,3.0,64.0
24957,67.0,0,90,3.0,64.0
24958,76.0,0,90,1.0,64.0
24959,48.0,0,90,4.0,64.0
24960,60.0,0,90,4.0,64.0
24961,67.0,0,90,2.0,64.0
24962,64.0,0,90,2.0,64.0
24963,60.0,0,90,5.0,64.0
24964,48.0,144,180,6.0,64.0
24965,91.0,0,90,0.0,64.0
24966,88.0,0,90,0.0,64.0
24967,79.0,0,90,1.0,64.0
24968,79.0,0,90,1.0,64.0
24969,67.0,0,90,3.0,64.0
24970,76.0,0,90,1.0,64.0
24971,60.0,0,180,5.0,64.0
24972,64.0,0,90,2.0,64.0
24973,67.0,0,90,2.0,64.0
24974,48.0,0,180,4.0,64.0
24975,60.0,0,180,4.0,64.0
24976,48.0,72,390,6.0,64.0
24977,91.0,0,90,0.0,64.0
24978,88.0,96,90,0.0,64.0
24979,72.0,168,180,5.0,64.0
24980,64.0,0,90,3.0,64.0
24981,65.0,0,120,3.0,64.0
24982,62.0,0,120,3.0,64.0
24983,86.0,0,120,0.0,64.0
24984,89.0,0,120,0.0,64.0
24985,74.0,0,120,1.0,64.0
24986,65.0,24,120,2.0,64.0
24987,77.0,0,120,1.0,64.0
24988,62.0,0,120,2.0,64.0
24989,76.0,0,120,1.0,64.0
24990,67.0,0,120,3.0,64.0
24991,64.0,24,90,2.0,64.0
24992,67.0,0,120,2.0,64.0
24993,64.0,96,120,3.0,64.0
24994,91.0,0,120,0.0,64.0
24995,88.0,0,120,0.0,64.0
24996,79.0,0,120,1.0,64.0
24997,77.0,0,90,1.0,64.0
24998,93.0,0,90,0.0,64.0
24999,81.0,0,90,1.0,64.0
25000,60.0,0,90,4.0,64.0
25001,69.0,0,90,2.0,64.0
25002,65.0,0,90,2.0,64.0
25003,48.0,0,90,4.0,64.0
25004,48.0,144,180,6.0,64.0
25005,72.0,0,90,5.0,64.0
25006,60.0,0,90,5.0,64.0
25007,89.0,0,90,0.0,64.0
25008,69.0,0,90,3.0,64.0
25009,65.0,96,90,3.0,64.0
25010,64.0,0,90,2.0,64.0
25011,48.0,144,180,6.0,64.0
25012,76.0,0,90,1.0,64.0
25013,79.0,0,90,1.0,64.0
25014,60.0,0,90,4.0,64.0
25015,64.0,0,90,3.0,64.0
25016,67.0,0,90,2.0,64.0
25017,72.0,0,90,5.0,64.0
25018,88.0,0,90,0.0,64.0
25019,48.0,0,90,4.0,64.0
25020,67.0,0,90,3.0,64.0
25021,60.0,96,90,5.0,64.0
25022,91.0,0,90,0.0,64.0
25023,36.0,0,180,12.0,64.0
25024,60.0,0,180,5.0,64.0
25025,64.0,168,180,10.0,64.0
25026,55.0,0,180,10.0,64.0
25027,48.0,72,390,6.0,64.0
25028,67.0,0,180,8.0,64.0
25029,72.0,0,180,5.0,64.0
25030,48.0,0,180,11.0,64.0
25031,60.0,0,180,8.0,64.0
25032,72.0,0,90,1.0,64.0
25033,76.0,96,90,1.0,64.0
25034,84.0,0,180,7.0,64.0
25035,88.0,0,90,0.0,64.0
25036,64.0,0,90,2.0,64.0
25037,76.0,0,180,7.0,64.0
25038,48.0,0,180,10.0,64.0
25039,60.0,0,90,2.0,64.0
25040,48.0,0,180,4.0,64.0
25041,72.0,0,180,8.0,64.0
25042,60.0,0,90,3.0,64.0
25043,64.0,0,90,3.0,64.0
25044,84.0,0,90,0.0,64.0
25045,60.0,0,180,4.0,64.0
25046,71.0,0,120,1.0,64.0
25047,74.0,0,120,1.0,64.0
25048,59.0,0,120,2.0,64.0
25049,62.0,0,120,2.0,64.0
25050,59.0,0,120,3.0,64.0
25051,62.0,0,120,3.0,64.0
25052,86.0,0,120,0.0,64.0
25053,83.0,24,120,0.0,64.0
25054,64.0,24,90,2.0,64.0
25055,76.0,0,120,1.0,64.0
25056,72.0,0,120,1.0,64.0
25057,88.0,96,120,0.0,64.0
25058,84.0,0,120,0.0,64.0
25059,64.0,0,120,3.0,64.0
25060,60.0,0,120,2.0,64.0
25061,60.0,0,120,3.0,64.0
25062,60.0,0,90,4.0,64.0
25063,48.0,0,90,4.0,64.0
25064,48.0,144,180,6.0,64.0
25065,89.0,0,90,0.0,64.0
25066,77.0,0,90,1.0,64.0
25067,74.0,0,90,1.0,64.0
25068,62.0,0,90,2.0,64.0
25069,62.0,0,90,3.0,64.0
25070,86.0,0,90,0.0,64.0
25071,65.0,0,90,3.0,64.0
25072,60.0,96,90,5.0,64.0
25073,72.0,0,90,5.0,64.0
25074,65.0,0,90,2.0,64.0
25075,60.0,0,90,5.0,64.0
25076,84.0,0,90,0.0,64.0
25077,60.0,0,90,4.0,64.0
25078,48.0,0,90,4.0,64.0
25079,60.0,0,90,2.0,64.0
25080,72.0,0,90,1.0,64.0
25081,76.0,0,90,1.0,64.0
25082,48.0,144,180,6.0,64.0
25083,60.0,0,90,3.0,64.0
25084,64.0,0,90,3.0,64.0
25085,72.0,0,90,5.0,64.0
25086,88.0,0,90,0.0,64.0
25087,64.0,96,90,2.0,64.0
25088,72.0,168,180,5.0,64.0
25089,60.0,0,180,5.0,64.0
25090,48.0,72,390,6.0,64.0
25091,64.0,0,90,3.0,64.0
25092,60.0,0,90,3.0,64.0
25093,60.0,0,90,2.0,64.0
25094,64.0,0,90,2.0,64.0
25095,48.0,0,180,4.0,64.0
25096,84.0,0,90,0.0,64.0
25097,60.0,0,180,4.0,64.0
25098,76.0,0,90,1.0,64.0
25099,72.0,96,90,1.0,64.0
25100,88.0,0,90,0.0,64.0
25101,71.0,0,120,1.0,64.0
25102,86.0,0,120,0.0,64.0
25103,74.0,0,120,1.0,64.0
25104,83.0,0,120,0.0,64.0
25105,59.0,24,120,3.0,64.0
25106,62.0,0,120,3.0,64.0
25107,62.0,0,120,2.0,64.0
25108,59.0,0,120,2.0,64.0
25109,60.0,0,120,3.0,64.0
25110,64.0,0,120,3.0,64.0
25111,88.0,0,120,0.0,64.0
25112,84.0,96,120,0.0,64.0
25113,60.0,0,120,2.0,64.0
25114,64.0,24,90,2.0,64.0
25115,72.0,0,120,1.0,64.0
25116,76.0,0,120,1.0,64.0
25117,48.0,144,180,6.0,64.0
25118,72.0,0,90,5.0,64.0
25119,65.0,0,90,3.0,64.0
25120,62.0,0,90,3.0,64.0
25121,89.0,0,90,0.0,64.0
25122,86.0,0,90,0.0,64.0
25123,48.0,0,90,4.0,64.0
25124,62.0,0,90,2.0,64.0
25125,65.0,0,90,2.0,64.0
25126,77.0,0,90,1.0,64.0
25127,60.0,96,90,5.0,64.0
25128,60.0,0,90,4.0,64.0
25129,74.0,0,90,1.0,64.0
25130,84.0,0,90,0.0,64.0
25131,48.0,240,180,6.0,64.0
25132,64.0,0,90,3.0,64.0
25133,60.0,0,90,3.0,64.0
25134,60.0,0,90,4.0,64.0
25135,60.0,0,90,2.0,64.0
25136,64.0,96,90,2.0,64.0
25137,88.0,0,90,0.0,64.0
25138,76.0,0,90,1.0,64.0
25139,72.0,0,90,1.0,64.0
25140,72.0,0,90,5.0,64.0
25141,60.0,0,90,5.0,64.0
25142,48.0,0,90,4.0,64.0
25143,72.0,0,180,5.0,64.0
25144,60.0,0,180,5.0,64.0
25145,48.0,0,180,11.0,64.0
25146,84.0,0,180,1.0,64.0
25147,60.0,0,180,2.0,64.0
25148,72.0,0,180,2.0,64.0
25149,48.0,768,390,6.0,64.0
25150,60.0,0,180,3.0,64.0
25151,36.0,0,180,12.0,64.0
25152,60.0,0,180,7.0,64.0
25153,96.0,0,180,0.0,64.0
25154,48.0,0,180,10.0,64.0
25155,48.0,0,180,4.0,64.0
25156,60.0,0,180,4.0,64.0
25157,72.0,0,180,1.0,64.0
25158,48.0,192,180,3.0,64.0
25159,36.0,0,180,12.0,64.0
25160,60.0,0,180,7.0,64.0
25161,84.0,192,180,1.0,64.0
25162,72.0,0,180,5.0,64.0
25163,48.0,0,180,11.0,64.0
25164,48.0,880,390,6.0,64.0
25165,72.0,0,180,2.0,64.0
25166,96.0,0,180,0.0,64.0
25167,60.0,0,180,5.0,64.0
25168,48.0,0,180,4.0,64.0
25169,60.0,0,180,4.0,64.0
25170,72.0,0,180,1.0,64.0
25171,36.0,0,180,3.0,64.0
25172,48.0,0,180,3.0,64.0
25173,60.0,0,180,2.0,64.0
25174,48.0,0,180,10.0,64.0
25175,72.0,0,4020,1.0,64.0
25176,84.0,0,4020,1.0,64.0
25177,36.0,0,4080,12.0,64.0
25178,60.0,0,4080,7.0,64.0
25179,60.0,0,4020,2.0,64.0
25180,72.0,34,4020,2.0,64.0
25181,48.0,0,4020,3.0,64.0
25182,60.0,0,4020,5.0,64.0
25183,72.0,0,4020,5.0,64.0
25184,48.0,158,4080,11.0,64.0
25185,36.0,0,4020,3.0,64.0
25186,84.0,0,4020,0.0,64.0
25187,48.0,0,4080,10.0,64.0
25188,48.0,0,4020,4.0,64.0
25189,60.0,0,4020,4.0,64.0
25190,48.0,80,60,6.0,64.0
25191,48.0,80,60,6.0,64.0
25192,48.0,80,60,6.0,64.0
25193,48.0,80,60,6.0,64.0
25194,48.0,80,60,6.0,64.0
25195,48.0,80,60,6.0,64.0
25196,48.0,80,60,6.0,64.0
25197,48.0,80,60,6.0,64.0
25198,48.0,80,60,6.0,64.0
25199,48.0,80,60,6.0,64.0
25200,48.0,80,60,6.0,64.0
25201,48.0,80,60,6.0,64.0
25202,48.0,80,60,6.0,64.0
25203,48.0,80,60,6.0,64.0
25204,48.0,80,60,6.0,64.0
25205,48.0,80,60,6.0,64.0
25206,48.0,80,60,6.0,64.0
25207,48.0,80,60,6.0,64.0
25208,48.0,80,60,6.0,64.0
25209,48.0,80,60,6.0,64.0
25210,48.0,80,60,6.0,64.0
25211,48.0,80,60,6.0,64.0
25212,48.0,80,60,6.0,64.0
25213,48.0,80,60,6.0,64.0
25214,48.0,80,60,6.0,64.0
25215,48.0,80,60,6.0,64.0
25216,48.0,80,60,6.0,64.0
25217,48.0,80,60,6.0,64.0
25218,48.0,80,60,6.0,64.0
25219,48.0,80,60,6.0,64.0
25220,48.0,80,60,6.0,64.0
25221,48.0,80,60,6.0,64.0
25222,48.0,80,60,6.0,64.0
25223,48.0,80,60,6.0,64.0
25224,48.0,80,60,6.0,64.0
25225,48.0,80,60,6.0,64.0
25226,48.0,80,60,6.0,64.0
25227,48.0,80,60,6.0,64.0
25228,48.0,80,60,6.0,64.0
25229,48.0,80,60,6.0,64.0
25230,48.0,80,60,6.0,64.0
25231,48.0,80,60,6.0,64.0
25232,48.0,80,60,6.0,64.0
25233,48.0,80,60,6.0,64.0
25234,48.0,80,60,6.0,64.0
25235,48.0,80,60,6.0,64.0
25236,48.0,80,60,6.0,64.0
25237,48.0,208,60,6.0,64.0
25238,48.0,4416,390,6.0,64.0
