,note,step,duration,channel,velocity
0,77.0,0,570,7.0,0.0
1,77.0,0,570,0.0,0.0
2,65.0,0,570,2.0,0.0
3,53.0,0,570,4.0,0.0
4,77.0,0,570,2.0,0.0
5,77.0,0,570,3.0,0.0
6,65.0,0,570,3.0,0.0
7,29.0,336,570,14.0,0.0
8,41.0,0,570,4.0,0.0
9,65.0,0,570,7.0,0.0
10,65.0,0,570,11.0,0.0
11,65.0,0,570,5.0,0.0
12,65.0,0,570,10.0,0.0
13,65.0,0,570,0.0,0.0
14,41.0,0,570,13.0,0.0
15,53.0,0,570,5.0,0.0
16,53.0,0,570,12.0,0.0
17,65.0,0,570,6.0,0.0
18,56.0,0,180,11.0,0.0
19,56.0,0,180,10.0,0.0
20,41.0,0,180,13.0,0.0
21,53.0,0,180,12.0,0.0
22,48.0,0,180,12.0,0.0
23,29.0,240,180,14.0,0.0
24,29.0,0,180,14.0,0.0
25,56.0,0,180,11.0,0.0
26,56.0,0,180,10.0,0.0
27,41.0,276,180,13.0,0.0
28,48.0,0,180,12.0,0.0
29,53.0,0,180,12.0,0.0
30,48.0,0,40,12.0,0.0
31,53.0,0,40,12.0,0.0
32,41.0,0,40,14.0,0.0
33,56.0,0,40,11.0,0.0
34,29.0,204,40,14.0,0.0
35,56.0,0,40,10.0,0.0
36,41.0,0,40,13.0,0.0
37,39.0,0,180,13.0,0.0
38,55.0,0,180,11.0,0.0
39,27.0,0,180,14.0,0.0
40,51.0,0,180,12.0,0.0
41,58.0,240,180,10.0,0.0
42,39.0,0,180,14.0,0.0
43,56.0,0,180,11.0,0.0
44,51.0,0,180,12.0,0.0
45,44.0,0,180,13.0,0.0
46,32.0,0,180,14.0,0.0
47,60.0,276,180,10.0,0.0
48,48.0,204,40,12.0,0.0
49,60.0,0,40,10.0,0.0
50,60.0,0,40,11.0,0.0
51,44.0,0,40,13.0,0.0
52,32.0,0,40,14.0,0.0
53,31.0,0,180,14.0,0.0
54,62.0,0,180,10.0,0.0
55,59.0,240,180,11.0,0.0
56,55.0,0,180,12.0,0.0
57,43.0,0,180,13.0,0.0
58,31.0,0,180,14.0,0.0
59,55.0,0,180,12.0,0.0
60,63.0,0,180,10.0,0.0
61,60.0,0,180,11.0,0.0
62,43.0,276,180,13.0,0.0
63,59.0,0,40,10.0,0.0
64,43.0,0,40,14.0,0.0
65,50.0,0,40,12.0,0.0
66,55.0,0,40,11.0,0.0
67,55.0,108,40,13.0,0.0
68,48.0,0,90,12.0,0.0
69,55.0,384,90,11.0,0.0
70,60.0,0,90,10.0,0.0
71,36.0,0,90,14.0,0.0
72,48.0,0,90,13.0,0.0
73,72.0,120,120,2.0,0.0
74,71.0,120,120,2.0,0.0
75,80.0,96,120,2.0,0.0
76,79.0,144,90,2.0,0.0
77,77.0,0,420,2.0,0.0
78,68.0,120,120,3.0,0.0
79,67.0,120,120,3.0,0.0
80,74.0,48,180,3.0,0.0
81,60.0,72,120,4.0,0.0
82,59.0,120,120,4.0,0.0
83,74.0,0,120,3.0,0.0
84,77.0,0,120,2.0,0.0
85,67.0,240,15,4.0,0.0
86,59.0,0,15,4.0,0.0
87,74.0,0,240,3.0,0.0
88,77.0,0,240,2.0,0.0
89,75.0,0,90,2.0,0.0
90,72.0,0,90,3.0,0.0
91,60.0,0,90,4.0,0.0
92,60.0,120,120,10.0,0.0
93,59.0,120,120,10.0,0.0
94,68.0,120,120,10.0,0.0
95,67.0,120,120,10.0,0.0
96,65.0,0,480,10.0,0.0
97,56.0,120,120,11.0,0.0
98,48.0,0,480,13.0,0.0
99,55.0,240,120,11.0,0.0
100,36.0,0,480,14.0,0.0
101,55.0,0,330,4.0,0.0
102,61.0,0,240,4.0,0.0
103,58.0,0,360,11.0,0.0
104,61.0,96,240,12.0,0.0
105,60.0,24,90,4.0,0.0
106,60.0,0,120,12.0,0.0
107,64.0,576,120,10.0,0.0
108,53.0,0,570,4.0,0.0
109,53.0,0,570,5.0,0.0
110,53.0,0,570,12.0,0.0
111,89.0,0,570,0.0,0.0
112,65.0,0,570,11.0,0.0
113,77.0,0,570,3.0,0.0
114,65.0,0,570,3.0,0.0
115,65.0,0,570,6.0,0.0
116,65.0,0,570,10.0,0.0
117,41.0,0,570,13.0,0.0
118,77.0,0,570,0.0,0.0
119,65.0,0,570,2.0,0.0
120,77.0,0,570,2.0,0.0
121,29.0,0,570,14.0,0.0
122,41.0,336,570,4.0,0.0
123,65.0,0,570,7.0,0.0
124,77.0,0,570,7.0,0.0
125,65.0,0,570,5.0,0.0
126,60.0,0,180,5.0,0.0
127,77.0,0,180,2.0,0.0
128,48.0,0,180,12.0,0.0
129,41.0,0,180,13.0,0.0
130,41.0,0,180,4.0,0.0
131,53.0,0,180,4.0,0.0
132,56.0,0,180,10.0,0.0
133,48.0,0,180,5.0,0.0
134,65.0,0,180,7.0,0.0
135,68.0,0,180,3.0,0.0
136,56.0,240,180,11.0,0.0
137,65.0,0,180,3.0,0.0
138,80.0,0,180,0.0,0.0
139,77.0,0,180,0.0,0.0
140,65.0,0,180,6.0,0.0
141,80.0,0,180,2.0,0.0
142,29.0,0,180,14.0,0.0
143,60.0,0,180,5.0,0.0
144,48.0,276,180,5.0,0.0
145,80.0,0,180,2.0,0.0
146,77.0,0,180,2.0,0.0
147,41.0,0,180,4.0,0.0
148,56.0,0,180,11.0,0.0
149,65.0,0,180,7.0,0.0
150,65.0,0,180,3.0,0.0
151,48.0,0,180,12.0,0.0
152,65.0,0,180,6.0,0.0
153,29.0,0,180,14.0,0.0
154,77.0,0,180,0.0,0.0
155,80.0,0,180,0.0,0.0
156,56.0,0,180,10.0,0.0
157,53.0,0,180,4.0,0.0
158,41.0,0,180,13.0,0.0
159,68.0,0,180,3.0,0.0
160,56.0,0,40,10.0,0.0
161,80.0,0,40,0.0,0.0
162,65.0,0,40,3.0,0.0
163,68.0,0,40,3.0,0.0
164,77.0,0,40,0.0,0.0
165,41.0,0,40,14.0,0.0
166,77.0,0,40,2.0,0.0
167,80.0,0,40,2.0,0.0
168,53.0,0,40,13.0,0.0
169,48.0,0,40,12.0,0.0
170,48.0,0,40,5.0,0.0
171,41.0,0,40,13.0,0.0
172,60.0,0,40,5.0,0.0
173,56.0,0,40,11.0,0.0
174,53.0,0,40,4.0,0.0
175,65.0,204,40,6.0,0.0
176,29.0,0,40,14.0,0.0
177,41.0,0,40,4.0,0.0
178,39.0,0,180,13.0,0.0
179,63.0,0,180,6.0,0.0
180,51.0,0,180,4.0,0.0
181,39.0,0,180,4.0,0.0
182,39.0,0,180,14.0,0.0
183,27.0,0,180,14.0,0.0
184,51.0,0,180,12.0,0.0
185,79.0,0,180,0.0,0.0
186,82.0,0,180,0.0,0.0
187,67.0,0,180,5.0,0.0
188,51.0,0,180,6.0,0.0
189,51.0,240,180,13.0,0.0
190,55.0,0,180,11.0,0.0
191,82.0,0,180,2.0,0.0
192,79.0,0,180,2.0,0.0
193,70.0,0,180,3.0,0.0
194,67.0,0,180,3.0,0.0
195,58.0,0,180,10.0,0.0
196,80.0,0,180,2.0,0.0
197,84.0,0,180,0.0,0.0
198,56.0,0,180,11.0,0.0
199,60.0,0,180,5.0,0.0
200,68.0,528,180,3.0,0.0
201,48.0,0,180,5.0,0.0
202,60.0,0,180,10.0,0.0
203,63.0,0,180,6.0,0.0
204,84.0,0,180,2.0,0.0
205,72.0,0,180,3.0,0.0
206,51.0,0,180,6.0,0.0
207,44.0,0,180,13.0,0.0
208,32.0,0,180,14.0,0.0
209,72.0,0,180,7.0,0.0
210,56.0,0,180,4.0,0.0
211,44.0,0,180,4.0,0.0
212,51.0,0,180,12.0,0.0
213,80.0,0,180,0.0,0.0
214,73.0,120,120,3.0,0.0
215,72.0,120,120,3.0,0.0
216,61.0,120,120,4.0,0.0
217,82.0,0,120,3.0,0.0
218,80.0,0,120,3.0,0.0
219,60.0,96,120,4.0,0.0
220,73.0,24,210,2.0,0.0
221,66.0,0,120,3.0,0.0
222,78.0,0,120,3.0,0.0
223,61.0,24,90,4.0,0.0
224,58.0,96,120,4.0,0.0
225,61.0,0,120,4.0,0.0
226,65.0,120,120,3.0,0.0
227,56.0,24,330,4.0,0.0
228,77.0,0,120,3.0,0.0
229,72.0,0,120,3.0,0.0
230,75.0,96,120,3.0,0.0
231,66.0,0,120,4.0,0.0
232,87.0,0,120,0.0,0.0
233,85.0,0,120,0.0,0.0
234,65.0,0,120,4.0,0.0
235,68.0,120,120,3.0,0.0
236,73.0,0,120,3.0,0.0
237,66.0,0,120,3.0,0.0
238,72.0,0,120,3.0,0.0
239,84.0,120,120,0.0,0.0
240,78.0,0,120,2.0,0.0
241,63.0,0,120,4.0,0.0
242,56.0,0,120,4.0,0.0
243,58.0,0,120,4.0,0.0
244,73.0,0,120,3.0,0.0
245,65.0,0,120,3.0,0.0
246,85.0,0,120,0.0,0.0
247,77.0,96,120,2.0,0.0
248,61.0,0,15,4.0,0.0
249,82.0,0,90,0.0,0.0
250,70.0,0,120,3.0,0.0
251,63.0,240,120,3.0,0.0
252,70.0,0,90,2.0,0.0
253,55.0,0,90,4.0,0.0
254,61.0,0,240,4.0,0.0
255,56.0,48,420,4.0,0.0
256,68.0,0,240,3.0,0.0
257,65.0,0,240,3.0,0.0
258,80.0,192,240,0.0,0.0
259,77.0,0,120,2.0,0.0
260,60.0,96,240,4.0,0.0
261,78.0,72,360,0.0,0.0
262,63.0,0,180,3.0,0.0
263,75.0,0,360,2.0,0.0
264,66.0,24,330,3.0,0.0
265,56.0,0,240,4.0,0.0
266,60.0,0,240,3.0,0.0
267,44.0,0,180,13.0,0.0
268,54.0,0,180,12.0,0.0
269,51.0,0,180,12.0,0.0
270,56.0,0,180,11.0,0.0
271,32.0,48,180,14.0,0.0
272,60.0,0,180,10.0,0.0
273,63.0,0,120,4.0,0.0
274,66.0,24,120,4.0,0.0
275,72.0,0,120,2.0,0.0
276,63.0,0,120,3.0,0.0
277,75.0,0,120,0.0,0.0
278,73.0,0,90,0.0,0.0
279,73.0,0,90,2.0,0.0
280,61.0,0,90,4.0,0.0
281,65.0,0,90,4.0,0.0
282,37.0,0,90,14.0,0.0
283,61.0,18,90,10.0,0.0
284,61.0,0,90,3.0,0.0
285,56.0,0,20,11.0,0.0
286,53.0,30,20,12.0,0.0
287,49.0,0,90,13.0,0.0
288,61.0,0,20,11.0,0.0
289,56.0,0,20,12.0,0.0
290,53.0,30,20,12.0,0.0
291,61.0,0,20,11.0,0.0
292,53.0,12,20,12.0,0.0
293,56.0,0,20,12.0,0.0
294,61.0,30,20,11.0,0.0
295,53.0,0,20,12.0,0.0
296,56.0,0,20,12.0,0.0
297,80.0,24,120,10.0,0.0
298,56.0,0,20,12.0,0.0
299,61.0,30,20,11.0,0.0
300,53.0,0,20,12.0,0.0
301,56.0,30,20,12.0,0.0
302,61.0,0,20,11.0,0.0
303,53.0,0,20,12.0,0.0
304,56.0,0,20,12.0,0.0
305,61.0,30,20,11.0,0.0
306,53.0,0,20,12.0,0.0
307,53.0,6,20,12.0,0.0
308,56.0,0,20,12.0,0.0
309,61.0,0,20,11.0,0.0
310,56.0,0,20,12.0,0.0
311,53.0,30,20,12.0,0.0
312,65.0,0,180,6.0,0.0
313,82.0,24,60,10.0,0.0
314,61.0,0,20,11.0,0.0
315,53.0,12,180,5.0,0.0
316,56.0,0,20,12.0,0.0
317,61.0,6,20,11.0,0.0
318,53.0,0,20,12.0,0.0
319,80.0,24,60,10.0,0.0
320,61.0,0,20,11.0,0.0
321,53.0,30,20,12.0,0.0
322,56.0,0,20,12.0,0.0
323,53.0,0,20,12.0,0.0
324,61.0,0,20,11.0,0.0
325,56.0,6,20,12.0,0.0
326,78.0,12,60,10.0,0.0
327,61.0,0,20,11.0,0.0
328,56.0,0,20,12.0,0.0
329,53.0,30,20,12.0,0.0
330,53.0,6,20,12.0,0.0
331,61.0,0,20,11.0,0.0
332,56.0,0,20,12.0,0.0
333,56.0,0,20,12.0,0.0
334,53.0,24,20,12.0,0.0
335,61.0,0,20,11.0,0.0
336,77.0,6,40,10.0,0.0
337,56.0,0,20,12.0,0.0
338,53.0,0,20,12.0,0.0
339,61.0,30,20,11.0,0.0
340,61.0,0,20,11.0,0.0
341,65.0,12,180,6.0,0.0
342,56.0,0,20,12.0,0.0
343,53.0,30,20,12.0,0.0
344,53.0,0,180,5.0,0.0
345,77.0,18,90,10.0,0.0
346,61.0,0,20,11.0,0.0
347,53.0,30,20,12.0,0.0
348,56.0,0,20,12.0,0.0
349,53.0,0,20,12.0,0.0
350,61.0,12,20,11.0,0.0
351,56.0,0,20,12.0,0.0
352,53.0,30,20,12.0,0.0
353,56.0,0,20,12.0,0.0
354,61.0,0,20,11.0,0.0
355,53.0,0,20,12.0,0.0
356,56.0,0,20,12.0,0.0
357,61.0,30,20,11.0,0.0
358,53.0,0,20,12.0,0.0
359,61.0,0,20,11.0,0.0
360,56.0,18,20,12.0,0.0
361,53.0,0,20,12.0,0.0
362,49.0,6,40,13.0,0.0
363,61.0,24,20,11.0,0.0
364,37.0,0,40,14.0,0.0
365,56.0,0,20,12.0,0.0
366,53.0,0,20,12.0,0.0
367,56.0,0,20,12.0,0.0
368,61.0,30,20,11.0,0.0
369,37.0,0,180,14.0,0.0
370,61.0,30,20,11.0,0.0
371,49.0,12,180,13.0,0.0
372,56.0,0,20,12.0,0.0
373,53.0,0,20,12.0,0.0
374,61.0,30,20,11.0,0.0
375,56.0,0,20,12.0,0.0
376,53.0,0,20,12.0,0.0
377,61.0,0,20,11.0,0.0
378,56.0,0,20,12.0,0.0
379,53.0,30,20,12.0,0.0
380,61.0,0,20,11.0,0.0
381,56.0,0,20,12.0,0.0
382,53.0,30,20,12.0,0.0
383,80.0,12,90,10.0,0.0
384,56.0,0,20,12.0,0.0
385,53.0,30,20,12.0,0.0
386,61.0,0,20,11.0,0.0
387,77.0,6,120,3.0,0.0
388,56.0,0,20,12.0,0.0
389,53.0,18,20,12.0,0.0
390,61.0,0,20,11.0,0.0
391,61.0,0,20,11.0,0.0
392,53.0,12,20,12.0,0.0
393,56.0,0,20,12.0,0.0
394,56.0,30,20,12.0,0.0
395,53.0,0,20,12.0,0.0
396,61.0,0,20,11.0,0.0
397,82.0,6,40,10.0,0.0
398,53.0,0,180,5.0,0.0
399,61.0,0,180,4.0,0.0
400,78.0,0,60,3.0,0.0
401,49.0,0,180,13.0,0.0
402,56.0,0,180,4.0,0.0
403,53.0,0,20,12.0,0.0
404,56.0,0,20,12.0,0.0
405,61.0,24,20,11.0,0.0
406,37.0,12,180,14.0,0.0
407,65.0,0,180,6.0,0.0
408,61.0,0,20,11.0,0.0
409,56.0,30,20,12.0,0.0
410,53.0,0,20,12.0,0.0
411,61.0,0,20,11.0,0.0
412,80.0,6,40,10.0,0.0
413,56.0,0,20,12.0,0.0
414,53.0,24,20,12.0,0.0
415,77.0,30,60,3.0,0.0
416,61.0,0,20,11.0,0.0
417,53.0,0,20,12.0,0.0
418,56.0,0,20,12.0,0.0
419,78.0,6,40,10.0,0.0
420,53.0,0,20,12.0,0.0
421,75.0,0,60,3.0,0.0
422,61.0,24,20,11.0,0.0
423,56.0,0,20,12.0,0.0
424,61.0,0,20,11.0,0.0
425,53.0,18,20,12.0,0.0
426,56.0,0,20,12.0,0.0
427,73.0,0,60,3.0,0.0
428,56.0,0,20,12.0,0.0
429,53.0,24,20,12.0,0.0
430,61.0,0,20,11.0,0.0
431,77.0,6,40,10.0,0.0
432,53.0,0,20,12.0,0.0
433,61.0,30,20,11.0,0.0
434,56.0,0,20,12.0,0.0
435,53.0,0,20,12.0,0.0
436,65.0,0,180,6.0,0.0
437,61.0,0,180,4.0,0.0
438,56.0,12,180,4.0,0.0
439,53.0,0,180,5.0,0.0
440,73.0,18,90,3.0,0.0
441,61.0,30,20,11.0,0.0
442,56.0,0,20,12.0,0.0
443,77.0,0,90,10.0,0.0
444,53.0,0,20,12.0,0.0
445,56.0,30,20,12.0,0.0
446,61.0,0,20,11.0,0.0
447,61.0,0,20,11.0,0.0
448,56.0,12,20,12.0,0.0
449,53.0,0,20,12.0,0.0
450,61.0,30,20,11.0,0.0
451,53.0,0,20,12.0,0.0
452,56.0,0,20,12.0,0.0
453,53.0,0,20,12.0,0.0
454,61.0,30,20,11.0,0.0
455,56.0,0,20,12.0,0.0
456,53.0,0,20,12.0,0.0
457,56.0,0,20,12.0,0.0
458,61.0,18,20,11.0,0.0
459,37.0,0,40,14.0,0.0
460,53.0,0,20,12.0,0.0
461,56.0,24,20,12.0,0.0
462,49.0,6,40,13.0,0.0
463,61.0,0,20,11.0,0.0
464,61.0,30,20,11.0,0.0
465,53.0,0,20,12.0,0.0
466,56.0,0,20,12.0,0.0
467,54.0,0,20,12.0,0.0
468,57.0,30,20,12.0,0.0
469,48.0,12,180,13.0,0.0
470,36.0,0,180,14.0,0.0
471,63.0,0,20,11.0,0.0
472,57.0,30,20,12.0,0.0
473,54.0,0,20,12.0,0.0
474,63.0,0,20,11.0,0.0
475,63.0,0,20,11.0,0.0
476,57.0,30,20,12.0,0.0
477,54.0,0,20,12.0,0.0
478,54.0,0,20,12.0,0.0
479,57.0,0,20,12.0,0.0
480,63.0,30,20,11.0,0.0
481,87.0,0,90,0.0,0.0
482,57.0,0,20,12.0,0.0
483,54.0,30,20,12.0,0.0
484,75.0,18,90,10.0,0.0
485,63.0,0,20,11.0,0.0
486,63.0,0,20,11.0,0.0
487,54.0,18,20,12.0,0.0
488,57.0,0,20,12.0,0.0
489,63.0,12,20,11.0,0.0
490,57.0,0,20,12.0,0.0
491,54.0,0,20,12.0,0.0
492,63.0,0,20,11.0,0.0
493,57.0,30,20,12.0,0.0
494,54.0,0,20,12.0,0.0
495,54.0,24,20,12.0,0.0
496,57.0,0,20,12.0,0.0
497,60.0,0,180,7.0,0.0
498,63.0,0,180,6.0,0.0
499,48.0,0,180,13.0,0.0
500,66.0,12,180,3.0,0.0
501,63.0,0,180,4.0,0.0
502,54.0,0,180,4.0,0.0
503,63.0,0,20,11.0,0.0
504,36.0,0,180,14.0,0.0
505,89.0,6,40,0.0,0.0
506,77.0,0,40,10.0,0.0
507,63.0,30,20,11.0,0.0
508,57.0,0,20,12.0,0.0
509,54.0,0,20,12.0,0.0
510,75.0,0,40,10.0,0.0
511,57.0,0,20,12.0,0.0
512,63.0,24,20,11.0,0.0
513,54.0,0,20,12.0,0.0
514,87.0,6,40,0.0,0.0
515,54.0,0,20,12.0,0.0
516,57.0,30,20,12.0,0.0
517,63.0,0,20,11.0,0.0
518,73.0,6,40,10.0,0.0
519,85.0,0,40,0.0,0.0
520,63.0,0,20,11.0,0.0
521,54.0,24,20,12.0,0.0
522,57.0,0,20,12.0,0.0
523,57.0,18,20,12.0,0.0
524,63.0,0,20,11.0,0.0
525,54.0,0,20,12.0,0.0
526,54.0,24,20,12.0,0.0
527,57.0,0,20,12.0,0.0
528,63.0,0,20,11.0,0.0
529,72.0,6,40,10.0,0.0
530,84.0,0,40,0.0,0.0
531,57.0,0,20,12.0,0.0
532,63.0,30,20,11.0,0.0
533,54.0,0,20,12.0,0.0
534,72.0,0,90,10.0,0.0
535,54.0,0,20,12.0,0.0
536,57.0,0,20,12.0,0.0
537,63.0,12,180,6.0,0.0
538,63.0,0,180,4.0,0.0
539,54.0,0,180,4.0,0.0
540,60.0,0,180,7.0,0.0
541,84.0,18,90,0.0,0.0
542,63.0,30,20,11.0,0.0
543,66.0,0,180,3.0,0.0
544,54.0,0,20,12.0,0.0
545,63.0,30,20,11.0,0.0
546,57.0,0,20,12.0,0.0
547,54.0,12,20,12.0,0.0
548,57.0,0,20,12.0,0.0
549,63.0,0,20,11.0,0.0
550,57.0,0,20,12.0,0.0
551,63.0,0,20,11.0,0.0
552,54.0,30,20,12.0,0.0
553,63.0,0,20,11.0,0.0
554,57.0,30,20,12.0,0.0
555,54.0,0,20,12.0,0.0
556,57.0,0,20,12.0,0.0
557,54.0,18,20,12.0,0.0
558,63.0,0,20,11.0,0.0
559,57.0,0,20,12.0,0.0
560,36.0,0,40,14.0,0.0
561,63.0,24,20,11.0,0.0
562,48.0,6,40,13.0,0.0
563,54.0,0,20,12.0,0.0
564,63.0,30,20,11.0,0.0
565,54.0,0,20,12.0,0.0
566,57.0,0,20,12.0,0.0
567,63.0,0,20,11.0,0.0
568,54.0,30,20,12.0,0.0
569,45.0,12,180,13.0,0.0
570,60.0,0,20,12.0,0.0
571,33.0,0,180,14.0,0.0
572,54.0,0,20,12.0,0.0
573,60.0,30,20,12.0,0.0
574,63.0,0,20,11.0,0.0
575,63.0,0,20,11.0,0.0
576,60.0,30,20,12.0,0.0
577,54.0,0,20,12.0,0.0
578,60.0,0,20,12.0,0.0
579,63.0,30,20,11.0,0.0
580,54.0,0,20,12.0,0.0
581,87.0,0,90,0.0,0.0
582,63.0,0,20,11.0,0.0
583,54.0,0,20,12.0,0.0
584,63.0,0,90,4.0,0.0
585,75.0,18,90,10.0,0.0
586,60.0,30,20,12.0,0.0
587,60.0,0,20,12.0,0.0
588,54.0,18,20,12.0,0.0
589,63.0,0,20,11.0,0.0
590,54.0,0,20,12.0,0.0
591,60.0,0,20,12.0,0.0
592,63.0,12,20,11.0,0.0
593,63.0,30,20,11.0,0.0
594,54.0,0,20,12.0,0.0
595,60.0,0,20,12.0,0.0
596,33.0,12,180,14.0,0.0
597,45.0,0,180,13.0,0.0
598,66.0,0,180,3.0,0.0
599,60.0,0,20,12.0,0.0
600,57.0,0,240,4.0,0.0
601,63.0,0,180,6.0,0.0
602,77.0,0,40,10.0,0.0
603,63.0,0,20,11.0,0.0
604,60.0,0,180,7.0,0.0
605,65.0,6,40,4.0,0.0
606,89.0,0,40,0.0,0.0
607,54.0,24,20,12.0,0.0
608,54.0,0,20,12.0,0.0
609,63.0,30,20,11.0,0.0
610,60.0,0,20,12.0,0.0
611,60.0,24,20,12.0,0.0
612,54.0,0,20,12.0,0.0
613,63.0,0,40,4.0,0.0
614,63.0,0,20,11.0,0.0
615,87.0,6,40,0.0,0.0
616,75.0,0,40,10.0,0.0
617,60.0,30,20,12.0,0.0
618,54.0,0,20,12.0,0.0
619,63.0,0,20,11.0,0.0
620,85.0,6,40,0.0,0.0
621,73.0,0,40,10.0,0.0
622,61.0,0,40,4.0,0.0
623,63.0,0,20,11.0,0.0
624,54.0,24,20,12.0,0.0
625,60.0,0,20,12.0,0.0
626,63.0,18,20,11.0,0.0
627,60.0,0,20,12.0,0.0
628,54.0,0,20,12.0,0.0
629,84.0,6,40,0.0,0.0
630,72.0,0,40,10.0,0.0
631,63.0,0,20,11.0,0.0
632,60.0,0,40,4.0,0.0
633,60.0,24,20,12.0,0.0
634,54.0,0,20,12.0,0.0
635,60.0,0,20,12.0,0.0
636,54.0,30,20,12.0,0.0
637,63.0,0,20,11.0,0.0
638,72.0,0,90,10.0,0.0
639,63.0,0,180,6.0,0.0
640,60.0,0,20,12.0,0.0
641,84.0,0,90,0.0,0.0
642,60.0,0,180,7.0,0.0
643,54.0,30,20,12.0,0.0
644,63.0,0,20,11.0,0.0
645,60.0,18,90,4.0,0.0
646,57.0,12,210,4.0,0.0
647,66.0,12,180,3.0,0.0
648,63.0,0,20,11.0,0.0
649,54.0,30,20,12.0,0.0
650,60.0,0,20,12.0,0.0
651,54.0,0,20,12.0,0.0
652,63.0,0,20,11.0,0.0
653,60.0,12,20,12.0,0.0
654,60.0,30,20,12.0,0.0
655,54.0,0,20,12.0,0.0
656,63.0,0,20,11.0,0.0
657,54.0,0,20,12.0,0.0
658,60.0,0,20,12.0,0.0
659,63.0,30,20,11.0,0.0
660,63.0,0,20,11.0,0.0
661,54.0,0,20,12.0,0.0
662,60.0,18,20,12.0,0.0
663,54.0,0,20,12.0,0.0
664,60.0,0,20,12.0,0.0
665,33.0,0,40,14.0,0.0
666,63.0,12,20,11.0,0.0
667,45.0,6,40,13.0,0.0
668,54.0,0,20,12.0,0.0
669,60.0,0,20,12.0,0.0
670,63.0,30,20,11.0,0.0
671,34.0,12,180,14.0,0.0
672,46.0,0,180,13.0,0.0
673,61.0,0,20,11.0,0.0
674,53.0,0,20,12.0,0.0
675,58.0,30,20,12.0,0.0
676,53.0,0,20,12.0,0.0
677,58.0,0,20,12.0,0.0
678,61.0,30,20,11.0,0.0
679,53.0,30,20,12.0,0.0
680,61.0,0,20,11.0,0.0
681,58.0,0,20,12.0,0.0
682,61.0,0,20,11.0,0.0
683,53.0,0,20,12.0,0.0
684,58.0,30,20,12.0,0.0
685,73.0,0,90,10.0,0.0
686,58.0,30,20,12.0,0.0
687,61.0,0,20,11.0,0.0
688,53.0,0,20,12.0,0.0
689,85.0,18,90,0.0,0.0
690,61.0,18,20,11.0,0.0
691,58.0,0,20,12.0,0.0
692,53.0,0,20,12.0,0.0
693,61.0,0,20,11.0,0.0
694,58.0,0,20,12.0,0.0
695,53.0,12,20,12.0,0.0
696,61.0,30,20,11.0,0.0
697,53.0,0,20,12.0,0.0
698,58.0,0,20,12.0,0.0
699,53.0,0,180,5.0,0.0
700,58.0,24,20,12.0,0.0
701,53.0,0,20,12.0,0.0
702,65.0,0,180,5.0,0.0
703,34.0,12,180,14.0,0.0
704,61.0,0,180,3.0,0.0
705,61.0,0,20,11.0,0.0
706,75.0,6,40,10.0,0.0
707,58.0,0,180,6.0,0.0
708,46.0,0,180,13.0,0.0
709,58.0,0,180,4.0,0.0
710,61.0,0,180,4.0,0.0
711,87.0,0,40,0.0,0.0
712,61.0,30,20,11.0,0.0
713,58.0,0,20,12.0,0.0
714,53.0,0,20,12.0,0.0
715,61.0,24,20,11.0,0.0
716,85.0,6,40,0.0,0.0
717,58.0,0,20,12.0,0.0
718,53.0,0,20,12.0,0.0
719,73.0,0,40,10.0,0.0
720,58.0,30,20,12.0,0.0
721,53.0,0,20,12.0,0.0
722,61.0,0,20,11.0,0.0
723,61.0,0,20,11.0,0.0
724,72.0,0,40,10.0,0.0
725,53.0,24,20,12.0,0.0
726,58.0,0,20,12.0,0.0
727,84.0,6,40,0.0,0.0
728,61.0,18,20,11.0,0.0
729,58.0,0,20,12.0,0.0
730,53.0,0,20,12.0,0.0
731,58.0,0,20,12.0,0.0
732,53.0,24,20,12.0,0.0
733,82.0,0,40,0.0,0.0
734,70.0,6,40,10.0,0.0
735,61.0,0,20,11.0,0.0
736,53.0,30,20,12.0,0.0
737,61.0,0,20,11.0,0.0
738,58.0,0,20,12.0,0.0
739,65.0,0,180,6.0,0.0
740,61.0,12,180,4.0,0.0
741,58.0,0,180,4.0,0.0
742,53.0,0,20,12.0,0.0
743,53.0,0,180,5.0,0.0
744,65.0,0,180,5.0,0.0
745,58.0,30,20,12.0,0.0
746,70.0,0,90,10.0,0.0
747,61.0,0,20,11.0,0.0
748,82.0,18,90,0.0,0.0
749,70.0,0,180,3.0,0.0
750,58.0,0,20,12.0,0.0
751,61.0,30,20,11.0,0.0
752,53.0,0,20,12.0,0.0
753,58.0,0,20,12.0,0.0
754,53.0,12,20,12.0,0.0
755,61.0,0,20,11.0,0.0
756,61.0,0,20,11.0,0.0
757,53.0,30,20,12.0,0.0
758,58.0,0,20,12.0,0.0
759,61.0,0,20,11.0,0.0
760,58.0,30,20,12.0,0.0
761,53.0,0,20,12.0,0.0
762,58.0,0,20,12.0,0.0
763,61.0,18,20,11.0,0.0
764,53.0,0,20,12.0,0.0
765,53.0,0,20,12.0,0.0
766,58.0,24,20,12.0,0.0
767,34.0,6,40,14.0,0.0
768,61.0,0,20,11.0,0.0
769,46.0,0,40,13.0,0.0
770,58.0,0,20,12.0,0.0
771,53.0,30,20,12.0,0.0
772,61.0,0,20,11.0,0.0
773,58.0,30,20,12.0,0.0
774,43.0,0,180,13.0,0.0
775,52.0,0,20,12.0,0.0
776,31.0,12,180,14.0,0.0
777,61.0,0,20,11.0,0.0
778,58.0,0,20,12.0,0.0
779,61.0,30,20,11.0,0.0
780,52.0,0,20,12.0,0.0
781,52.0,0,20,12.0,0.0
782,61.0,0,20,11.0,0.0
783,58.0,30,20,12.0,0.0
784,61.0,0,20,11.0,0.0
785,52.0,30,20,12.0,0.0
786,58.0,0,20,12.0,0.0
787,52.0,30,20,12.0,0.0
788,70.0,18,90,10.0,0.0
789,61.0,0,20,11.0,0.0
790,58.0,0,20,12.0,0.0
791,82.0,24,120,2.0,0.0
792,61.0,0,20,11.0,0.0
793,58.0,0,20,12.0,0.0
794,52.0,18,20,12.0,0.0
795,58.0,12,20,12.0,0.0
796,52.0,0,20,12.0,0.0
797,61.0,0,20,11.0,0.0
798,61.0,0,20,11.0,0.0
799,58.0,6,20,12.0,0.0
800,52.0,0,20,12.0,0.0
801,58.0,0,180,6.0,0.0
802,43.0,0,180,13.0,0.0
803,70.0,0,180,3.0,0.0
804,84.0,24,60,2.0,0.0
805,52.0,0,180,4.0,0.0
806,64.0,0,180,4.0,0.0
807,61.0,0,20,11.0,0.0
808,72.0,6,40,10.0,0.0
809,58.0,24,20,12.0,0.0
810,52.0,0,20,12.0,0.0
811,61.0,0,180,3.0,0.0
812,31.0,12,180,14.0,0.0
813,61.0,0,20,11.0,0.0
814,52.0,0,20,12.0,0.0
815,58.0,6,20,12.0,0.0
816,82.0,24,60,2.0,0.0
817,61.0,24,20,11.0,0.0
818,52.0,0,20,12.0,0.0
819,70.0,6,40,10.0,0.0
820,58.0,0,20,12.0,0.0
821,58.0,0,20,12.0,0.0
822,61.0,6,20,11.0,0.0
823,52.0,0,20,12.0,0.0
824,58.0,0,20,12.0,0.0
825,52.0,0,20,12.0,0.0
826,61.0,24,20,11.0,0.0
827,80.0,12,60,2.0,0.0
828,68.0,6,40,10.0,0.0
829,58.0,6,20,12.0,0.0
830,52.0,0,20,12.0,0.0
831,61.0,0,20,11.0,0.0
832,61.0,0,20,11.0,0.0
833,67.0,6,40,10.0,0.0
834,58.0,24,20,12.0,0.0
835,52.0,0,20,12.0,0.0
836,52.0,6,20,12.0,0.0
837,61.0,0,20,11.0,0.0
838,58.0,0,20,12.0,0.0
839,79.0,24,15,2.0,0.0
840,61.0,0,20,11.0,0.0
841,52.0,0,20,12.0,0.0
842,58.0,30,20,12.0,0.0
843,67.0,18,90,10.0,0.0
844,58.0,0,180,6.0,0.0
845,70.0,12,180,3.0,0.0
846,61.0,0,180,3.0,0.0
847,64.0,0,180,4.0,0.0
848,52.0,0,180,4.0,0.0
849,58.0,0,20,12.0,0.0
850,61.0,30,20,11.0,0.0
851,52.0,0,20,12.0,0.0
852,52.0,12,20,12.0,0.0
853,58.0,0,20,12.0,0.0
854,61.0,0,20,11.0,0.0
855,61.0,0,20,11.0,0.0
856,52.0,0,20,12.0,0.0
857,58.0,6,20,12.0,0.0
858,58.0,30,20,12.0,0.0
859,52.0,0,20,12.0,0.0
860,61.0,0,20,11.0,0.0
861,52.0,18,20,12.0,0.0
862,61.0,0,20,11.0,0.0
863,58.0,0,20,12.0,0.0
864,31.0,0,40,14.0,0.0
865,43.0,6,40,13.0,0.0
866,58.0,0,20,12.0,0.0
867,61.0,24,20,11.0,0.0
868,52.0,0,20,12.0,0.0
869,52.0,30,20,12.0,0.0
870,58.0,0,20,12.0,0.0
871,61.0,0,20,11.0,0.0
872,60.0,30,20,11.0,0.0
873,58.0,0,20,12.0,0.0
874,67.0,0,20,11.0,0.0
875,55.0,0,20,12.0,0.0
876,40.0,12,180,13.0,0.0
877,52.0,0,20,12.0,0.0
878,28.0,0,180,14.0,0.0
879,67.0,30,20,11.0,0.0
880,60.0,0,20,11.0,0.0
881,52.0,0,20,12.0,0.0
882,55.0,0,20,12.0,0.0
883,58.0,0,20,12.0,0.0
884,58.0,30,20,12.0,0.0
885,52.0,0,20,12.0,0.0
886,55.0,0,20,12.0,0.0
887,67.0,0,20,11.0,0.0
888,60.0,0,20,11.0,0.0
889,52.0,0,20,12.0,0.0
890,55.0,0,20,12.0,0.0
891,58.0,30,20,12.0,0.0
892,67.0,0,20,11.0,0.0
893,60.0,0,20,11.0,0.0
894,67.0,0,20,11.0,0.0
895,79.0,18,90,2.0,0.0
896,67.0,0,90,10.0,0.0
897,52.0,0,20,12.0,0.0
898,58.0,0,20,12.0,0.0
899,60.0,30,20,11.0,0.0
900,55.0,0,20,12.0,0.0
901,58.0,18,20,12.0,0.0
902,52.0,0,20,12.0,0.0
903,55.0,0,20,12.0,0.0
904,60.0,0,20,11.0,0.0
905,67.0,0,20,11.0,0.0
906,60.0,0,20,11.0,0.0
907,67.0,0,20,11.0,0.0
908,55.0,12,20,12.0,0.0
909,52.0,0,20,12.0,0.0
910,58.0,0,20,12.0,0.0
911,67.0,0,20,11.0,0.0
912,60.0,30,20,11.0,0.0
913,58.0,0,20,12.0,0.0
914,55.0,0,20,12.0,0.0
915,52.0,0,20,12.0,0.0
916,68.0,0,40,10.0,0.0
917,55.0,0,20,12.0,0.0
918,60.0,0,180,4.0,0.0
919,52.0,0,180,4.0,0.0
920,67.0,24,20,11.0,0.0
921,48.0,12,180,13.0,0.0
922,58.0,0,20,12.0,0.0
923,52.0,0,20,12.0,0.0
924,60.0,0,20,11.0,0.0
925,67.0,0,180,6.0,0.0
926,80.0,6,40,2.0,0.0
927,36.0,0,180,14.0,0.0
928,58.0,0,180,6.0,0.0
929,67.0,0,20,11.0,0.0
930,60.0,0,20,11.0,0.0
931,52.0,0,20,12.0,0.0
932,55.0,0,20,12.0,0.0
933,58.0,30,20,12.0,0.0
934,58.0,0,20,12.0,0.0
935,79.0,0,40,2.0,0.0
936,52.0,0,20,12.0,0.0
937,55.0,0,20,12.0,0.0
938,67.0,6,40,10.0,0.0
939,60.0,24,20,11.0,0.0
940,67.0,0,20,11.0,0.0
941,67.0,0,20,11.0,0.0
942,60.0,0,20,11.0,0.0
943,55.0,0,20,12.0,0.0
944,58.0,0,20,12.0,0.0
945,52.0,30,20,12.0,0.0
946,65.0,6,40,10.0,0.0
947,60.0,0,20,11.0,0.0
948,67.0,0,20,11.0,0.0
949,55.0,0,20,12.0,0.0
950,58.0,0,20,12.0,0.0
951,77.0,0,40,2.0,0.0
952,52.0,24,20,12.0,0.0
953,60.0,0,20,11.0,0.0
954,52.0,0,20,12.0,0.0
955,58.0,18,20,12.0,0.0
956,55.0,0,20,12.0,0.0
957,67.0,0,20,11.0,0.0
958,60.0,0,20,11.0,0.0
959,67.0,0,20,11.0,0.0
960,64.0,0,40,10.0,0.0
961,58.0,0,20,12.0,0.0
962,55.0,0,20,12.0,0.0
963,52.0,24,20,12.0,0.0
964,76.0,6,40,2.0,0.0
965,58.0,0,20,12.0,0.0
966,60.0,0,20,11.0,0.0
967,55.0,0,20,12.0,0.0
968,67.0,30,20,11.0,0.0
969,52.0,0,20,12.0,0.0
970,67.0,0,20,11.0,0.0
971,60.0,0,20,11.0,0.0
972,52.0,0,20,12.0,0.0
973,76.0,18,90,2.0,0.0
974,58.0,0,20,12.0,0.0
975,55.0,30,20,12.0,0.0
976,64.0,0,90,10.0,0.0
977,67.0,0,180,6.0,0.0
978,58.0,0,180,6.0,0.0
979,60.0,0,180,4.0,0.0
980,52.0,12,180,4.0,0.0
981,67.0,0,20,11.0,0.0
982,60.0,0,20,11.0,0.0
983,58.0,0,20,12.0,0.0
984,52.0,30,20,12.0,0.0
985,55.0,0,20,12.0,0.0
986,60.0,0,20,11.0,0.0
987,52.0,0,20,12.0,0.0
988,55.0,0,20,12.0,0.0
989,67.0,0,20,11.0,0.0
990,58.0,12,20,12.0,0.0
991,55.0,0,20,12.0,0.0
992,52.0,0,20,12.0,0.0
993,58.0,0,20,12.0,0.0
994,60.0,30,20,11.0,0.0
995,67.0,0,20,11.0,0.0
996,60.0,0,20,11.0,0.0
997,55.0,30,20,12.0,0.0
998,52.0,0,20,12.0,0.0
999,67.0,0,20,11.0,0.0
1000,58.0,0,20,12.0,0.0
1001,60.0,0,20,11.0,0.0
1002,67.0,0,20,11.0,0.0
1003,58.0,0,20,12.0,0.0
1004,52.0,18,20,12.0,0.0
1005,55.0,0,20,12.0,0.0
1006,48.0,6,40,13.0,0.0
1007,52.0,0,20,12.0,0.0
1008,55.0,0,20,12.0,0.0
1009,67.0,0,20,11.0,0.0
1010,58.0,0,20,12.0,0.0
1011,60.0,24,20,11.0,0.0
1012,36.0,0,40,14.0,0.0
1013,52.0,102,20,12.0,0.0
1014,55.0,0,20,12.0,0.0
1015,58.0,0,20,12.0,0.0
1016,60.0,0,20,11.0,0.0
1017,67.0,0,20,11.0,0.0
1018,58.0,0,90,12.0,0.0
1019,55.0,0,90,12.0,0.0
1020,52.0,0,90,12.0,0.0
1021,36.0,0,90,14.0,0.0
1022,48.0,120,90,13.0,0.0
1023,60.0,0,90,11.0,0.0
1024,67.0,0,90,11.0,0.0
1025,76.0,0,90,2.0,0.0
1026,70.0,72,90,3.0,0.0
1027,68.0,0,40,3.0,0.0
1028,77.0,0,40,2.0,0.0
1029,72.0,60,40,3.0,0.0
1030,76.0,60,40,2.0,0.0
1031,67.0,0,40,3.0,0.0
1032,70.0,0,40,3.0,0.0
1033,65.0,60,40,3.0,0.0
1034,73.0,0,40,2.0,0.0
1035,68.0,0,40,3.0,0.0
1036,72.0,0,40,2.0,0.0
1037,64.0,108,40,3.0,0.0
1038,67.0,0,40,3.0,0.0
1039,60.0,0,40,5.0,0.0
1040,48.0,0,40,5.0,0.0
1041,60.0,0,90,5.0,0.0
1042,48.0,132,90,5.0,0.0
1043,72.0,0,90,2.0,0.0
1044,64.0,0,90,3.0,0.0
1045,67.0,0,90,3.0,0.0
1046,36.0,0,40,14.0,0.0
1047,52.0,0,40,12.0,0.0
1048,55.0,0,40,12.0,0.0
1049,58.0,0,40,12.0,0.0
1050,60.0,0,40,11.0,0.0
1051,67.0,108,40,11.0,0.0
1052,48.0,0,40,13.0,0.0
1053,36.0,0,90,14.0,0.0
1054,52.0,0,90,12.0,0.0
1055,55.0,0,90,12.0,0.0
1056,58.0,0,90,12.0,0.0
1057,60.0,0,90,11.0,0.0
1058,67.0,120,90,11.0,0.0
1059,48.0,0,90,13.0,0.0
1060,58.0,72,90,13.0,0.0
1061,60.0,60,40,13.0,0.0
1062,58.0,60,40,13.0,0.0
1063,56.0,60,40,13.0,0.0
1064,48.0,0,40,5.0,0.0
1065,55.0,0,40,13.0,0.0
1066,60.0,108,40,5.0,0.0
1067,48.0,0,90,5.0,0.0
1068,55.0,132,90,13.0,0.0
1069,60.0,0,90,5.0,0.0
1070,36.0,108,40,14.0,0.0
1071,52.0,0,40,12.0,0.0
1072,55.0,0,40,12.0,0.0
1073,58.0,0,40,12.0,0.0
1074,67.0,0,40,11.0,0.0
1075,60.0,0,40,11.0,0.0
1076,36.0,0,90,14.0,0.0
1077,58.0,0,90,12.0,0.0
1078,67.0,0,90,11.0,0.0
1079,52.0,0,90,12.0,0.0
1080,55.0,0,90,12.0,0.0
1081,60.0,120,90,11.0,0.0
1082,58.0,0,90,13.0,0.0
1083,70.0,120,90,10.0,0.0
1084,60.0,120,90,13.0,0.0
1085,72.0,0,90,10.0,0.0
1086,70.0,0,90,10.0,0.0
1087,58.0,12,90,13.0,0.0
1088,60.0,108,40,5.0,0.0
1089,48.0,0,40,5.0,0.0
1090,56.0,0,90,13.0,0.0
1091,68.0,120,90,10.0,0.0
1092,60.0,0,90,5.0,0.0
1093,48.0,0,90,5.0,0.0
1094,67.0,0,90,10.0,0.0
1095,55.0,144,90,13.0,0.0
1096,58.0,0,60,13.0,0.0
1097,70.0,60,60,10.0,0.0
1098,72.0,0,60,10.0,0.0
1099,60.0,60,60,13.0,0.0
1100,70.0,0,60,10.0,0.0
1101,58.0,60,60,13.0,0.0
1102,68.0,0,60,10.0,0.0
1103,56.0,60,60,13.0,0.0
1104,67.0,60,60,10.0,0.0
1105,55.0,0,60,13.0,0.0
1106,60.0,60,60,13.0,0.0
1107,72.0,0,60,10.0,0.0
1108,70.0,60,60,10.0,0.0
1109,58.0,0,60,13.0,0.0
1110,56.0,0,60,13.0,0.0
1111,68.0,60,60,10.0,0.0
1112,67.0,0,60,10.0,0.0
1113,55.0,60,60,13.0,0.0
1114,60.0,0,60,13.0,0.0
1115,72.0,48,60,10.0,0.0
1116,58.0,0,40,13.0,0.0
1117,70.0,72,40,10.0,0.0
1118,56.0,60,60,13.0,0.0
1119,68.0,0,60,10.0,0.0
1120,67.0,60,60,10.0,0.0
1121,55.0,0,60,13.0,0.0
1122,60.0,60,60,13.0,0.0
1123,72.0,0,60,10.0,0.0
1124,58.0,60,60,13.0,0.0
1125,70.0,0,60,10.0,0.0
1126,56.0,48,60,13.0,0.0
1127,68.0,0,60,10.0,0.0
1128,55.0,0,40,13.0,0.0
1129,67.0,72,40,10.0,0.0
1130,60.0,0,60,13.0,0.0
1131,72.0,60,60,10.0,0.0
1132,58.0,60,60,13.0,0.0
1133,70.0,0,60,10.0,0.0
1134,68.0,0,60,10.0,0.0
1135,56.0,48,60,13.0,0.0
1136,55.0,60,40,13.0,0.0
1137,67.0,0,40,10.0,0.0
1138,65.0,60,40,12.0,0.0
1139,72.0,12,930,10.0,0.0
1140,60.0,48,120,13.0,0.0
1141,68.0,0,40,11.0,0.0
1142,29.0,12,210,14.0,0.0
1143,68.0,12,40,11.0,0.0
1144,65.0,0,40,12.0,0.0
1145,65.0,48,40,12.0,0.0
1146,61.0,48,120,13.0,0.0
1147,68.0,0,40,11.0,0.0
1148,65.0,0,40,12.0,0.0
1149,68.0,12,40,11.0,0.0
1150,68.0,0,40,11.0,0.0
1151,65.0,60,40,12.0,0.0
1152,60.0,48,120,13.0,0.0
1153,68.0,0,40,11.0,0.0
1154,65.0,12,40,12.0,0.0
1155,68.0,60,40,11.0,0.0
1156,56.0,48,120,13.0,0.0
1157,65.0,0,40,12.0,0.0
1158,65.0,0,40,12.0,0.0
1159,68.0,12,40,11.0,0.0
1160,65.0,0,40,12.0,0.0
1161,68.0,60,40,11.0,0.0
1162,53.0,48,120,13.0,0.0
1163,65.0,12,40,12.0,0.0
1164,68.0,0,40,11.0,0.0
1165,65.0,60,40,12.0,0.0
1166,68.0,0,40,11.0,0.0
1167,49.0,48,120,13.0,0.0
1168,68.0,0,40,11.0,0.0
1169,65.0,12,40,12.0,0.0
1170,68.0,60,40,11.0,0.0
1171,65.0,0,40,12.0,0.0
1172,48.0,48,120,13.0,0.0
1173,68.0,0,40,11.0,0.0
1174,65.0,12,40,12.0,0.0
1175,68.0,0,40,11.0,0.0
1176,44.0,48,120,13.0,0.0
1177,65.0,48,40,12.0,0.0
1178,65.0,0,40,12.0,0.0
1179,68.0,12,40,11.0,0.0
1180,68.0,60,40,11.0,0.0
1181,72.0,48,120,10.0,0.0
1182,65.0,0,40,12.0,0.0
1183,41.0,0,120,13.0,0.0
1184,65.0,0,40,12.0,0.0
1185,68.0,12,40,11.0,0.0
1186,71.0,0,40,11.0,0.0
1187,37.0,48,120,13.0,0.0
1188,65.0,60,40,12.0,0.0
1189,77.0,12,210,10.0,0.0
1190,65.0,12,40,12.0,0.0
1191,71.0,0,40,11.0,0.0
1192,72.0,0,40,11.0,0.0
1193,67.0,48,40,12.0,0.0
1194,36.0,48,120,13.0,0.0
1195,67.0,0,40,12.0,0.0
1196,72.0,12,40,11.0,0.0
1197,67.0,48,40,12.0,0.0
1198,76.0,12,90,10.0,0.0
1199,72.0,0,40,11.0,0.0
1200,72.0,0,40,11.0,0.0
1201,67.0,60,40,12.0,0.0
1202,70.0,60,40,11.0,0.0
1203,64.0,0,40,12.0,0.0
1204,67.0,0,40,11.0,0.0
1205,72.0,12,930,10.0,0.0
1206,60.0,48,120,13.0,0.0
1207,36.0,12,210,14.0,0.0
1208,64.0,0,40,12.0,0.0
1209,70.0,12,40,11.0,0.0
1210,67.0,0,40,11.0,0.0
1211,64.0,0,40,12.0,0.0
1212,70.0,48,40,11.0,0.0
1213,67.0,0,40,11.0,0.0
1214,61.0,48,120,13.0,0.0
1215,64.0,0,40,12.0,0.0
1216,70.0,12,40,11.0,0.0
1217,67.0,0,40,11.0,0.0
1218,64.0,60,40,12.0,0.0
1219,67.0,0,40,11.0,0.0
1220,60.0,48,120,13.0,0.0
1221,70.0,0,40,11.0,0.0
1222,70.0,12,40,11.0,0.0
1223,67.0,0,40,11.0,0.0
1224,64.0,0,40,12.0,0.0
1225,70.0,0,40,11.0,0.0
1226,67.0,60,40,11.0,0.0
1227,58.0,48,120,13.0,0.0
1228,64.0,0,40,12.0,0.0
1229,67.0,0,40,11.0,0.0
1230,64.0,12,40,12.0,0.0
1231,70.0,0,40,11.0,0.0
1232,70.0,0,40,11.0,0.0
1233,64.0,0,40,12.0,0.0
1234,67.0,60,40,11.0,0.0
1235,55.0,48,120,13.0,0.0
1236,70.0,0,40,11.0,0.0
1237,64.0,0,40,12.0,0.0
1238,67.0,12,40,11.0,0.0
1239,67.0,60,40,11.0,0.0
1240,64.0,0,40,12.0,0.0
1241,52.0,48,120,13.0,0.0
1242,70.0,0,40,11.0,0.0
1243,70.0,12,40,11.0,0.0
1244,64.0,0,40,12.0,0.0
1245,67.0,0,40,11.0,0.0
1246,64.0,0,40,12.0,0.0
1247,67.0,0,40,11.0,0.0
1248,49.0,48,120,13.0,0.0
1249,70.0,60,40,11.0,0.0
1250,64.0,12,40,12.0,0.0
1251,70.0,0,40,11.0,0.0
1252,67.0,0,40,11.0,0.0
1253,70.0,0,40,11.0,0.0
1254,67.0,48,40,11.0,0.0
1255,64.0,0,40,12.0,0.0
1256,48.0,48,120,13.0,0.0
1257,67.0,12,40,11.0,0.0
1258,70.0,0,40,11.0,0.0
1259,64.0,0,40,12.0,0.0
1260,46.0,48,120,13.0,0.0
1261,70.0,48,40,11.0,0.0
1262,72.0,12,90,10.0,0.0
1263,64.0,0,40,12.0,0.0
1264,67.0,0,40,11.0,0.0
1265,67.0,12,40,11.0,0.0
1266,70.0,0,40,11.0,0.0
1267,64.0,0,40,12.0,0.0
1268,70.0,12,40,11.0,0.0
1269,67.0,0,40,11.0,0.0
1270,64.0,0,40,12.0,0.0
1271,76.0,12,90,10.0,0.0
1272,43.0,36,60,13.0,0.0
1273,70.0,12,40,11.0,0.0
1274,67.0,0,40,11.0,0.0
1275,40.0,48,60,13.0,0.0
1276,64.0,0,40,12.0,0.0
1277,64.0,48,40,12.0,0.0
1278,70.0,0,40,11.0,0.0
1279,36.0,12,90,13.0,0.0
1280,79.0,48,120,10.0,0.0
1281,64.0,12,40,12.0,0.0
1282,70.0,0,40,11.0,0.0
1283,65.0,0,40,12.0,0.0
1284,41.0,12,90,13.0,0.0
1285,77.0,0,90,10.0,0.0
1286,68.0,48,40,11.0,0.0
1287,68.0,108,40,11.0,0.0
1288,65.0,0,40,12.0,0.0
1289,65.0,0,570,11.0,0.0
1290,77.0,144,120,10.0,0.0
1291,29.0,0,90,14.0,0.0
1292,53.0,0,270,13.0,0.0
1293,41.0,24,90,4.0,0.0
1294,53.0,84,270,12.0,0.0
1295,50.0,0,570,5.0,0.0
1296,46.0,0,300,4.0,0.0
1297,34.0,0,300,14.0,0.0
1298,75.0,48,240,10.0,0.0
1299,53.0,0,40,13.0,0.0
1300,53.0,12,40,12.0,0.0
1301,53.0,48,40,13.0,0.0
1302,73.0,12,90,10.0,0.0
1303,53.0,0,40,12.0,0.0
1304,55.0,108,40,13.0,0.0
1305,55.0,0,40,12.0,0.0
1306,41.0,0,90,4.0,0.0
1307,72.0,0,90,10.0,0.0
1308,27.0,0,90,14.0,0.0
1309,56.0,120,90,12.0,0.0
1310,56.0,0,90,13.0,0.0
1311,53.0,0,90,12.0,0.0
1312,53.0,120,90,13.0,0.0
1313,53.0,48,270,12.0,0.0
1314,56.0,0,90,4.0,0.0
1315,89.0,0,90,0.0,0.0
1316,65.0,0,570,6.0,0.0
1317,29.0,0,90,14.0,0.0
1318,41.0,0,90,4.0,0.0
1319,53.0,0,270,13.0,0.0
1320,62.0,0,570,5.0,0.0
1321,60.0,168,90,3.0,0.0
1322,50.0,0,570,5.0,0.0
1323,77.0,0,90,2.0,0.0
1324,72.0,0,90,3.0,0.0
1325,34.0,0,300,14.0,0.0
1326,70.0,0,300,3.0,0.0
1327,61.0,0,300,3.0,0.0
1328,58.0,48,300,4.0,0.0
1329,46.0,0,300,4.0,0.0
1330,87.0,36,180,0.0,0.0
1331,75.0,0,180,2.0,0.0
1332,53.0,0,40,13.0,0.0
1333,53.0,60,40,12.0,0.0
1334,53.0,0,40,13.0,0.0
1335,73.0,0,90,2.0,0.0
1336,53.0,0,40,12.0,0.0
1337,85.0,12,90,0.0,0.0
1338,55.0,0,40,12.0,0.0
1339,55.0,108,40,13.0,0.0
1340,68.0,0,90,3.0,0.0
1341,72.0,0,90,2.0,0.0
1342,56.0,0,90,12.0,0.0
1343,56.0,0,90,13.0,0.0
1344,41.0,0,90,4.0,0.0
1345,60.0,0,90,3.0,0.0
1346,27.0,0,90,14.0,0.0
1347,56.0,0,90,4.0,0.0
1348,84.0,120,90,0.0,0.0
1349,65.0,0,690,11.0,0.0
1350,53.0,120,90,13.0,0.0
1351,53.0,0,90,12.0,0.0
1352,53.0,84,270,12.0,0.0
1353,41.0,0,90,4.0,0.0
1354,77.0,144,120,10.0,0.0
1355,50.0,0,570,5.0,0.0
1356,53.0,0,270,13.0,0.0
1357,29.0,24,90,14.0,0.0
1358,75.0,48,240,10.0,0.0
1359,34.0,0,300,14.0,0.0
1360,46.0,0,300,4.0,0.0
1361,53.0,0,40,13.0,0.0
1362,53.0,12,40,12.0,0.0
1363,73.0,48,120,10.0,0.0
1364,53.0,0,40,12.0,0.0
1365,53.0,60,40,13.0,0.0
1366,55.0,0,40,13.0,0.0
1367,55.0,12,40,12.0,0.0
1368,72.0,0,90,10.0,0.0
1369,56.0,48,40,13.0,0.0
1370,80.0,0,90,0.0,0.0
1371,84.0,0,90,0.0,0.0
1372,56.0,0,90,12.0,0.0
1373,27.0,0,40,14.0,0.0
1374,41.0,0,90,4.0,0.0
1375,72.0,0,90,2.0,0.0
1376,72.0,12,90,3.0,0.0
1377,36.0,120,40,14.0,0.0
1378,48.0,0,40,13.0,0.0
1379,48.0,36,180,13.0,0.0
1380,36.0,0,180,14.0,0.0
1381,77.0,0,40,10.0,0.0
1382,68.0,60,40,11.0,0.0
1383,65.0,0,40,12.0,0.0
1384,65.0,24,40,12.0,0.0
1385,68.0,0,40,11.0,0.0
1386,77.0,0,40,10.0,0.0
1387,67.0,0,40,11.0,0.0
1388,60.0,0,40,12.0,0.0
1389,76.0,60,40,10.0,0.0
1390,60.0,0,90,12.0,0.0
1391,48.0,48,40,13.0,0.0
1392,36.0,0,40,14.0,0.0
1393,67.0,12,90,11.0,0.0
1394,76.0,0,90,10.0,0.0
1395,36.0,108,40,14.0,0.0
1396,48.0,0,40,13.0,0.0
1397,76.0,0,90,2.0,0.0
1398,48.0,0,180,13.0,0.0
1399,34.0,0,90,4.0,0.0
1400,46.0,0,90,4.0,0.0
1401,67.0,12,90,2.0,0.0
1402,36.0,36,180,14.0,0.0
1403,79.0,0,40,10.0,0.0
1404,64.0,0,40,12.0,0.0
1405,70.0,60,40,11.0,0.0
1406,64.0,0,40,12.0,0.0
1407,79.0,0,40,10.0,0.0
1408,70.0,24,40,11.0,0.0
1409,77.0,0,40,10.0,0.0
1410,68.0,0,40,11.0,0.0
1411,65.0,60,40,12.0,0.0
1412,77.0,12,90,10.0,0.0
1413,65.0,48,40,12.0,0.0
1414,48.0,0,40,13.0,0.0
1415,68.0,0,90,11.0,0.0
1416,36.0,0,40,14.0,0.0
1417,36.0,108,40,14.0,0.0
1418,48.0,0,40,13.0,0.0
1419,60.0,0,40,12.0,0.0
1420,60.0,0,180,12.0,0.0
1421,46.0,12,90,4.0,0.0
1422,34.0,0,90,4.0,0.0
1423,77.0,0,90,2.0,0.0
1424,68.0,0,90,2.0,0.0
1425,48.0,36,180,13.0,0.0
1426,36.0,0,180,14.0,0.0
1427,77.0,0,40,11.0,0.0
1428,80.0,60,40,10.0,0.0
1429,80.0,0,40,10.0,0.0
1430,77.0,24,40,11.0,0.0
1431,79.0,0,40,10.0,0.0
1432,76.0,60,40,11.0,0.0
1433,76.0,12,90,11.0,0.0
1434,79.0,0,90,10.0,0.0
1435,36.0,0,40,14.0,0.0
1436,60.0,48,40,12.0,0.0
1437,48.0,0,40,13.0,0.0
1438,48.0,0,40,13.0,0.0
1439,60.0,0,40,12.0,0.0
1440,36.0,108,40,14.0,0.0
1441,36.0,36,180,14.0,0.0
1442,76.0,0,90,2.0,0.0
1443,48.0,0,180,13.0,0.0
1444,79.0,0,90,2.0,0.0
1445,60.0,0,180,12.0,0.0
1446,46.0,12,90,4.0,0.0
1447,34.0,0,90,4.0,0.0
1448,82.0,60,40,10.0,0.0
1449,79.0,0,40,11.0,0.0
1450,82.0,24,40,10.0,0.0
1451,79.0,0,40,11.0,0.0
1452,80.0,60,40,10.0,0.0
1453,77.0,0,40,11.0,0.0
1454,36.0,48,40,14.0,0.0
1455,48.0,0,40,13.0,0.0
1456,60.0,0,40,12.0,0.0
1457,80.0,12,90,10.0,0.0
1458,77.0,0,90,11.0,0.0
1459,36.0,0,40,14.0,0.0
1460,60.0,0,40,12.0,0.0
1461,48.0,108,40,13.0,0.0
1462,36.0,36,180,14.0,0.0
1463,80.0,12,90,2.0,0.0
1464,34.0,0,90,4.0,0.0
1465,46.0,0,90,4.0,0.0
1466,60.0,0,180,12.0,0.0
1467,48.0,0,180,13.0,0.0
1468,77.0,0,90,2.0,0.0
1469,80.0,0,40,11.0,0.0
1470,84.0,60,40,10.0,0.0
1471,80.0,0,40,11.0,0.0
1472,84.0,24,40,10.0,0.0
1473,79.0,60,40,11.0,0.0
1474,82.0,0,40,10.0,0.0
1475,82.0,0,90,10.0,0.0
1476,58.0,0,1380,12.0,0.0
1477,48.0,24,1380,12.0,0.0
1478,36.0,48,40,14.0,0.0
1479,79.0,12,90,11.0,0.0
1480,36.0,0,1020,13.0,0.0
1481,48.0,0,300,13.0,0.0
1482,36.0,108,40,14.0,0.0
1483,79.0,0,90,2.0,0.0
1484,82.0,0,90,2.0,0.0
1485,34.0,0,90,4.0,0.0
1486,70.0,0,90,3.0,0.0
1487,67.0,12,90,3.0,0.0
1488,46.0,0,90,4.0,0.0
1489,36.0,36,180,14.0,0.0
1490,82.0,0,40,10.0,0.0
1491,70.0,60,40,11.0,0.0
1492,84.0,24,40,10.0,0.0
1493,72.0,0,40,11.0,0.0
1494,73.0,0,40,11.0,0.0
1495,85.0,60,40,10.0,0.0
1496,73.0,0,90,11.0,0.0
1497,34.0,48,40,14.0,0.0
1498,85.0,12,90,10.0,0.0
1499,46.0,0,300,13.0,0.0
1500,34.0,108,40,14.0,0.0
1501,34.0,36,180,14.0,0.0
1502,70.0,0,90,3.0,0.0
1503,67.0,0,90,3.0,0.0
1504,79.0,0,90,2.0,0.0
1505,82.0,12,90,2.0,0.0
1506,34.0,0,90,4.0,0.0
1507,46.0,0,90,4.0,0.0
1508,67.0,60,40,11.0,0.0
1509,79.0,0,40,10.0,0.0
1510,80.0,24,40,10.0,0.0
1511,68.0,0,40,11.0,0.0
1512,70.0,60,40,11.0,0.0
1513,82.0,0,40,10.0,0.0
1514,70.0,0,90,11.0,0.0
1515,31.0,48,40,14.0,0.0
1516,43.0,0,300,13.0,0.0
1517,82.0,12,90,10.0,0.0
1518,31.0,108,40,14.0,0.0
1519,70.0,0,90,3.0,0.0
1520,82.0,12,90,2.0,0.0
1521,79.0,0,90,2.0,0.0
1522,67.0,0,90,3.0,0.0
1523,46.0,0,90,4.0,0.0
1524,31.0,36,180,14.0,0.0
1525,34.0,0,90,4.0,0.0
1526,76.0,60,40,10.0,0.0
1527,64.0,0,40,11.0,0.0
1528,77.0,0,40,10.0,0.0
1529,65.0,24,40,11.0,0.0
1530,79.0,60,40,10.0,0.0
1531,67.0,0,40,11.0,0.0
1532,28.0,48,40,14.0,0.0
1533,79.0,12,90,10.0,0.0
1534,40.0,0,300,13.0,0.0
1535,67.0,0,90,11.0,0.0
1536,28.0,108,40,14.0,0.0
1537,28.0,36,180,14.0,0.0
1538,70.0,12,90,3.0,0.0
1539,60.0,0,90,5.0,0.0
1540,82.0,0,90,2.0,0.0
1541,79.0,0,90,2.0,0.0
1542,67.0,0,90,3.0,0.0
1543,48.0,0,90,5.0,0.0
1544,67.0,60,40,11.0,0.0
1545,79.0,0,40,10.0,0.0
1546,68.0,0,40,11.0,0.0
1547,80.0,0,40,10.0,0.0
1548,70.0,0,40,11.0,0.0
1549,82.0,60,40,10.0,0.0
1550,70.0,0,90,11.0,0.0
1551,48.0,24,300,13.0,0.0
1552,36.0,24,1020,13.0,0.0
1553,36.0,48,40,14.0,0.0
1554,48.0,24,1380,12.0,0.0
1555,58.0,0,1380,12.0,0.0
1556,82.0,12,90,10.0,0.0
1557,36.0,108,40,14.0,0.0
1558,36.0,36,180,14.0,0.0
1559,67.0,0,90,3.0,0.0
1560,70.0,0,90,3.0,0.0
1561,82.0,12,90,2.0,0.0
1562,79.0,0,90,2.0,0.0
1563,67.0,0,90,4.0,0.0
1564,64.0,0,90,4.0,0.0
1565,85.0,0,90,0.0,0.0
1566,76.0,0,90,0.0,0.0
1567,60.0,0,90,5.0,0.0
1568,48.0,0,90,5.0,0.0
1569,82.0,0,40,10.0,0.0
1570,70.0,60,40,11.0,0.0
1571,84.0,0,40,10.0,0.0
1572,72.0,0,40,11.0,0.0
1573,73.0,60,40,11.0,0.0
1574,85.0,0,40,10.0,0.0
1575,85.0,0,90,10.0,0.0
1576,73.0,12,90,11.0,0.0
1577,34.0,48,40,14.0,0.0
1578,34.0,108,40,14.0,0.0
1579,82.0,0,90,2.0,0.0
1580,67.0,0,90,4.0,0.0
1581,64.0,0,90,4.0,0.0
1582,48.0,0,90,5.0,0.0
1583,60.0,12,90,5.0,0.0
1584,79.0,0,90,2.0,0.0
1585,85.0,0,90,0.0,0.0
1586,76.0,0,90,0.0,0.0
1587,67.0,0,90,3.0,0.0
1588,70.0,0,90,3.0,0.0
1589,34.0,36,180,14.0,0.0
1590,67.0,60,40,11.0,0.0
1591,79.0,0,40,10.0,0.0
1592,80.0,24,40,10.0,0.0
1593,68.0,0,40,11.0,0.0
1594,70.0,0,40,11.0,0.0
1595,82.0,60,40,10.0,0.0
1596,43.0,0,300,13.0,0.0
1597,31.0,48,40,14.0,0.0
1598,82.0,0,90,10.0,0.0
1599,70.0,12,90,11.0,0.0
1600,31.0,108,40,14.0,0.0
1601,67.0,0,90,4.0,0.0
1602,67.0,0,90,3.0,0.0
1603,31.0,36,180,14.0,0.0
1604,79.0,0,90,2.0,0.0
1605,82.0,0,90,2.0,0.0
1606,70.0,0,90,3.0,0.0
1607,85.0,0,90,0.0,0.0
1608,76.0,0,90,0.0,0.0
1609,48.0,0,90,5.0,0.0
1610,64.0,0,90,4.0,0.0
1611,60.0,12,90,5.0,0.0
1612,76.0,0,40,10.0,0.0
1613,64.0,60,40,11.0,0.0
1614,77.0,0,40,10.0,0.0
1615,65.0,0,40,11.0,0.0
1616,67.0,60,40,11.0,0.0
1617,79.0,0,40,10.0,0.0
1618,79.0,12,90,10.0,0.0
1619,67.0,0,90,11.0,0.0
1620,28.0,48,40,14.0,0.0
1621,40.0,0,300,13.0,0.0
1622,28.0,108,40,14.0,0.0
1623,67.0,0,90,4.0,0.0
1624,64.0,0,90,4.0,0.0
1625,48.0,0,90,5.0,0.0
1626,67.0,0,90,3.0,0.0
1627,28.0,36,180,14.0,0.0
1628,79.0,0,90,2.0,0.0
1629,82.0,12,90,2.0,0.0
1630,60.0,0,90,5.0,0.0
1631,85.0,0,90,0.0,0.0
1632,76.0,0,90,0.0,0.0
1633,70.0,0,90,3.0,0.0
1634,67.0,0,40,11.0,0.0
1635,79.0,60,40,10.0,0.0
1636,68.0,0,40,11.0,0.0
1637,80.0,0,40,10.0,0.0
1638,82.0,60,40,10.0,0.0
1639,70.0,0,40,11.0,0.0
1640,48.0,0,1170,12.0,0.0
1641,70.0,12,90,11.0,0.0
1642,36.0,48,40,13.0,0.0
1643,58.0,0,1170,12.0,0.0
1644,82.0,0,90,10.0,0.0
1645,36.0,0,40,14.0,0.0
1646,36.0,0,40,13.0,0.0
1647,36.0,108,40,14.0,0.0
1648,85.0,0,90,0.0,0.0
1649,76.0,0,90,0.0,0.0
1650,60.0,0,90,5.0,0.0
1651,36.0,36,180,14.0,0.0
1652,36.0,0,180,13.0,0.0
1653,48.0,0,90,5.0,0.0
1654,64.0,0,90,4.0,0.0
1655,67.0,0,90,3.0,0.0
1656,70.0,0,90,3.0,0.0
1657,79.0,12,90,2.0,0.0
1658,82.0,0,90,2.0,0.0
1659,67.0,0,90,4.0,0.0
1660,82.0,0,40,10.0,0.0
1661,70.0,60,40,11.0,0.0
1662,84.0,24,40,10.0,0.0
1663,72.0,0,40,11.0,0.0
1664,85.0,60,40,10.0,0.0
1665,73.0,0,40,11.0,0.0
1666,36.0,48,40,13.0,0.0
1667,85.0,12,90,10.0,0.0
1668,36.0,0,40,14.0,0.0
1669,73.0,0,90,11.0,0.0
1670,36.0,108,40,13.0,0.0
1671,36.0,0,40,14.0,0.0
1672,76.0,0,90,0.0,0.0
1673,85.0,0,90,0.0,0.0
1674,79.0,0,90,2.0,0.0
1675,82.0,12,90,2.0,0.0
1676,60.0,0,90,5.0,0.0
1677,70.0,0,90,3.0,0.0
1678,36.0,36,180,14.0,0.0
1679,36.0,0,180,13.0,0.0
1680,48.0,0,90,5.0,0.0
1681,67.0,0,90,4.0,0.0
1682,64.0,0,90,4.0,0.0
1683,67.0,0,90,3.0,0.0
1684,70.0,60,40,11.0,0.0
1685,82.0,0,40,10.0,0.0
1686,72.0,24,40,11.0,0.0
1687,84.0,0,40,10.0,0.0
1688,73.0,0,40,11.0,0.0
1689,85.0,60,40,10.0,0.0
1690,36.0,0,40,13.0,0.0
1691,73.0,0,90,11.0,0.0
1692,85.0,12,90,10.0,0.0
1693,36.0,48,40,14.0,0.0
1694,36.0,0,40,14.0,0.0
1695,36.0,108,40,13.0,0.0
1696,76.0,0,90,0.0,0.0
1697,82.0,0,90,2.0,0.0
1698,85.0,0,90,0.0,0.0
1699,36.0,0,180,13.0,0.0
1700,64.0,0,90,4.0,0.0
1701,60.0,12,90,5.0,0.0
1702,48.0,0,90,5.0,0.0
1703,79.0,0,90,2.0,0.0
1704,36.0,36,180,14.0,0.0
1705,67.0,0,90,4.0,0.0
1706,67.0,0,90,3.0,0.0
1707,70.0,0,90,3.0,0.0
1708,70.0,0,40,11.0,0.0
1709,82.0,60,40,10.0,0.0
1710,72.0,24,40,11.0,0.0
1711,84.0,0,40,10.0,0.0
1712,85.0,0,40,10.0,0.0
1713,73.0,108,40,11.0,0.0
1714,73.0,0,90,11.0,0.0
1715,36.0,120,90,13.0,0.0
1716,36.0,0,90,14.0,0.0
1717,85.0,0,90,10.0,0.0
1718,64.0,0,90,4.0,0.0
1719,76.0,84,90,0.0,0.0
1720,67.0,0,90,4.0,0.0
1721,82.0,0,90,2.0,0.0
1722,84.0,0,90,0.0,0.0
1723,48.0,0,90,5.0,0.0
1724,79.0,0,90,2.0,0.0
1725,60.0,0,90,5.0,0.0
1726,70.0,0,90,3.0,0.0
1727,67.0,0,90,3.0,0.0
1728,84.0,0,120,10.0,0.0
1729,48.0,36,60,12.0,0.0
1730,60.0,0,930,5.0,0.0
1731,68.0,0,930,6.0,0.0
1732,48.0,0,930,5.0,0.0
1733,72.0,0,120,11.0,0.0
1734,65.0,0,930,6.0,0.0
1735,41.0,0,930,4.0,0.0
1736,72.0,0,90,2.0,0.0
1737,36.0,0,60,13.0,0.0
1738,84.0,0,930,0.0,0.0
1739,89.0,0,930,0.0,0.0
1740,29.0,0,930,14.0,0.0
1741,68.0,0,930,3.0,0.0
1742,72.0,0,90,3.0,0.0
1743,60.0,0,930,7.0,0.0
1744,84.0,0,90,2.0,0.0
1745,72.0,0,930,7.0,0.0
1746,41.0,24,90,8.0,0.0
1747,37.0,0,60,13.0,0.0
1748,49.0,32,60,12.0,0.0
1749,77.0,0,810,2.0,0.0
1750,36.0,0,60,13.0,0.0
1751,85.0,32,120,10.0,0.0
1752,73.0,0,120,11.0,0.0
1753,80.0,24,810,2.0,0.0
1754,77.0,0,810,3.0,0.0
1755,41.0,28,30,8.0,0.0
1756,48.0,12,60,12.0,0.0
1757,41.0,40,30,8.0,0.0
1758,37.0,0,60,13.0,0.0
1759,49.0,0,60,12.0,0.0
1760,41.0,8,30,8.0,0.0
1761,41.0,28,30,8.0,0.0
1762,36.0,12,60,13.0,0.0
1763,48.0,0,60,12.0,0.0
1764,72.0,32,120,11.0,0.0
1765,84.0,0,120,10.0,0.0
1766,41.0,40,30,8.0,0.0
1767,49.0,0,60,12.0,0.0
1768,37.0,0,60,13.0,0.0
1769,41.0,8,30,8.0,0.0
1770,36.0,0,60,13.0,0.0
1771,80.0,12,60,10.0,0.0
1772,48.0,0,60,12.0,0.0
1773,68.0,0,60,11.0,0.0
1774,41.0,28,30,8.0,0.0
1775,41.0,36,30,8.0,0.0
1776,49.0,0,40,12.0,0.0
1777,37.0,4,40,13.0,0.0
1778,41.0,68,30,8.0,0.0
1779,41.0,24,90,8.0,0.0
1780,36.0,0,60,13.0,0.0
1781,48.0,0,60,12.0,0.0
1782,77.0,0,60,10.0,0.0
1783,65.0,36,60,11.0,0.0
1784,49.0,60,60,12.0,0.0
1785,37.0,0,60,13.0,0.0
1786,36.0,60,60,13.0,0.0
1787,48.0,0,60,12.0,0.0
1788,73.0,0,60,10.0,0.0
1789,61.0,0,60,11.0,0.0
1790,49.0,60,60,12.0,0.0
1791,37.0,0,60,13.0,0.0
1792,36.0,48,60,13.0,0.0
1793,72.0,0,60,10.0,0.0
1794,48.0,0,60,12.0,0.0
1795,60.0,0,60,11.0,0.0
1796,49.0,0,40,12.0,0.0
1797,37.0,72,40,13.0,0.0
1798,68.0,60,240,10.0,0.0
1799,56.0,0,240,11.0,0.0
1800,36.0,0,60,13.0,0.0
1801,48.0,36,60,12.0,0.0
1802,37.0,60,60,13.0,0.0
1803,49.0,0,60,12.0,0.0
1804,84.0,0,90,0.0,0.0
1805,41.0,0,90,8.0,0.0
1806,41.0,0,90,4.0,0.0
1807,48.0,0,90,5.0,0.0
1808,60.0,0,90,5.0,0.0
1809,68.0,0,90,3.0,0.0
1810,72.0,0,90,3.0,0.0
1811,36.0,36,60,13.0,0.0
1812,77.0,0,90,2.0,0.0
1813,60.0,0,90,7.0,0.0
1814,72.0,0,90,7.0,0.0
1815,89.0,0,90,0.0,0.0
1816,65.0,0,90,6.0,0.0
1817,68.0,0,90,6.0,0.0
1818,48.0,0,60,12.0,0.0
1819,80.0,24,90,2.0,0.0
1820,29.0,0,90,14.0,0.0
1821,49.0,0,60,12.0,0.0
1822,37.0,0,60,13.0,0.0
1823,48.0,0,60,12.0,0.0
1824,77.0,12,90,2.0,0.0
1825,80.0,0,90,2.0,0.0
1826,56.0,0,90,11.0,0.0
1827,41.0,0,90,8.0,0.0
1828,44.0,0,90,4.0,0.0
1829,68.0,0,90,6.0,0.0
1830,89.0,0,90,0.0,0.0
1831,65.0,0,90,6.0,0.0
1832,60.0,0,90,7.0,0.0
1833,72.0,0,90,7.0,0.0
1834,72.0,0,90,3.0,0.0
1835,68.0,0,90,3.0,0.0
1836,60.0,0,90,5.0,0.0
1837,48.0,0,90,5.0,0.0
1838,32.0,0,90,14.0,0.0
1839,84.0,0,90,0.0,0.0
1840,36.0,36,60,13.0,0.0
1841,65.0,0,90,10.0,0.0
1842,49.0,72,40,12.0,0.0
1843,37.0,0,40,13.0,0.0
1844,48.0,0,90,8.0,0.0
1845,48.0,0,90,5.0,0.0
1846,60.0,0,90,5.0,0.0
1847,67.0,0,90,6.0,0.0
1848,48.0,0,90,4.0,0.0
1849,70.0,0,90,3.0,0.0
1850,36.0,36,60,13.0,0.0
1851,36.0,0,90,14.0,0.0
1852,67.0,0,90,3.0,0.0
1853,79.0,0,90,2.0,0.0
1854,64.0,0,90,10.0,0.0
1855,76.0,0,90,2.0,0.0
1856,88.0,24,90,0.0,0.0
1857,84.0,0,90,0.0,0.0
1858,48.0,0,60,12.0,0.0
1859,55.0,0,90,11.0,0.0
1860,60.0,0,90,7.0,0.0
1861,72.0,0,90,7.0,0.0
1862,49.0,60,60,12.0,0.0
1863,37.0,0,60,13.0,0.0
1864,36.0,60,60,13.0,0.0
1865,48.0,0,60,12.0,0.0
1866,37.0,0,60,13.0,0.0
1867,49.0,60,60,12.0,0.0
1868,72.0,32,120,11.0,0.0
1869,67.0,0,930,6.0,0.0
1870,84.0,0,120,10.0,0.0
1871,48.0,0,930,5.0,0.0
1872,36.0,24,930,4.0,0.0
1873,60.0,0,930,5.0,0.0
1874,76.0,0,90,3.0,0.0
1875,70.0,12,90,3.0,0.0
1876,36.0,0,930,14.0,0.0
1877,36.0,0,60,13.0,0.0
1878,84.0,0,930,0.0,0.0
1879,88.0,0,930,0.0,0.0
1880,48.0,0,930,4.0,0.0
1881,48.0,36,60,12.0,0.0
1882,60.0,0,930,7.0,0.0
1883,48.0,0,90,8.0,0.0
1884,79.0,0,930,2.0,0.0
1885,82.0,0,930,2.0,0.0
1886,72.0,0,930,7.0,0.0
1887,37.0,12,40,13.0,0.0
1888,49.0,0,40,12.0,0.0
1889,36.0,0,60,13.0,0.0
1890,48.0,12,60,12.0,0.0
1891,67.0,0,810,3.0,0.0
1892,73.0,0,120,11.0,0.0
1893,58.0,0,810,6.0,0.0
1894,85.0,0,120,10.0,0.0
1895,48.0,28,30,8.0,0.0
1896,70.0,0,810,3.0,0.0
1897,48.0,40,30,8.0,0.0
1898,49.0,0,60,12.0,0.0
1899,37.0,32,60,13.0,0.0
1900,48.0,8,30,8.0,0.0
1901,48.0,28,30,8.0,0.0
1902,36.0,0,60,13.0,0.0
1903,48.0,12,60,12.0,0.0
1904,72.0,32,120,11.0,0.0
1905,84.0,0,120,10.0,0.0
1906,48.0,40,30,8.0,0.0
1907,37.0,0,60,13.0,0.0
1908,49.0,0,60,12.0,0.0
1909,48.0,8,30,8.0,0.0
1910,48.0,28,30,8.0,0.0
1911,48.0,0,60,12.0,0.0
1912,82.0,12,60,10.0,0.0
1913,36.0,0,60,13.0,0.0
1914,70.0,0,60,11.0,0.0
1915,48.0,36,30,8.0,0.0
1916,37.0,0,40,13.0,0.0
1917,49.0,4,40,12.0,0.0
1918,48.0,68,30,8.0,0.0
1919,48.0,0,60,12.0,0.0
1920,36.0,0,60,13.0,0.0
1921,79.0,0,60,10.0,0.0
1922,67.0,36,60,11.0,0.0
1923,48.0,24,90,8.0,0.0
1924,49.0,60,60,12.0,0.0
1925,37.0,0,60,13.0,0.0
1926,76.0,0,60,10.0,0.0
1927,36.0,0,60,13.0,0.0
1928,64.0,0,60,11.0,0.0
1929,48.0,60,60,12.0,0.0
1930,49.0,0,60,12.0,0.0
1931,37.0,60,60,13.0,0.0
1932,48.0,0,60,12.0,0.0
1933,36.0,0,60,13.0,0.0
1934,61.0,0,60,11.0,0.0
1935,73.0,48,60,10.0,0.0
1936,37.0,0,40,13.0,0.0
1937,49.0,72,40,12.0,0.0
1938,48.0,0,60,12.0,0.0
1939,36.0,36,60,13.0,0.0
1940,60.0,60,240,11.0,0.0
1941,72.0,0,240,10.0,0.0
1942,37.0,0,60,13.0,0.0
1943,49.0,60,60,12.0,0.0
1944,48.0,0,60,12.0,0.0
1945,58.0,0,90,6.0,0.0
1946,72.0,0,90,7.0,0.0
1947,48.0,0,90,8.0,0.0
1948,48.0,0,90,4.0,0.0
1949,36.0,0,90,4.0,0.0
1950,36.0,0,90,14.0,0.0
1951,60.0,0,90,5.0,0.0
1952,67.0,0,90,6.0,0.0
1953,48.0,0,90,5.0,0.0
1954,84.0,0,90,0.0,0.0
1955,88.0,0,90,0.0,0.0
1956,67.0,0,90,3.0,0.0
1957,36.0,36,60,13.0,0.0
1958,79.0,0,90,2.0,0.0
1959,82.0,0,90,2.0,0.0
1960,70.0,0,90,3.0,0.0
1961,60.0,24,90,7.0,0.0
1962,37.0,0,60,13.0,0.0
1963,49.0,0,60,12.0,0.0
1964,36.0,0,90,4.0,0.0
1965,82.0,0,90,2.0,0.0
1966,48.0,0,90,4.0,0.0
1967,36.0,0,90,14.0,0.0
1968,36.0,0,90,13.0,0.0
1969,70.0,0,60,10.0,0.0
1970,67.0,0,90,6.0,0.0
1971,84.0,0,90,0.0,0.0
1972,88.0,0,90,0.0,0.0
1973,48.0,0,90,8.0,0.0
1974,70.0,0,90,3.0,0.0
1975,60.0,0,90,5.0,0.0
1976,48.0,0,90,12.0,0.0
1977,48.0,0,90,5.0,0.0
1978,79.0,0,90,2.0,0.0
1979,60.0,0,90,7.0,0.0
1980,72.0,12,90,7.0,0.0
1981,67.0,0,90,3.0,0.0
1982,55.0,36,60,11.0,0.0
1983,67.0,60,40,10.0,0.0
1984,58.0,0,40,11.0,0.0
1985,77.0,0,90,2.0,0.0
1986,80.0,0,90,2.0,0.0
1987,65.0,0,90,3.0,0.0
1988,41.0,48,40,13.0,0.0
1989,41.0,0,90,8.0,0.0
1990,68.0,0,90,3.0,0.0
1991,53.0,0,90,12.0,0.0
1992,84.0,0,90,0.0,0.0
1993,53.0,0,90,5.0,0.0
1994,89.0,0,90,0.0,0.0
1995,56.0,0,90,11.0,0.0
1996,77.0,0,90,7.0,0.0
1997,41.0,0,90,4.0,0.0
1998,53.0,0,90,4.0,0.0
1999,65.0,12,90,10.0,0.0
2000,65.0,0,90,7.0,0.0
2001,65.0,0,90,6.0,0.0
2002,65.0,0,90,5.0,0.0
2003,41.0,0,40,14.0,0.0
2004,41.0,120,40,14.0,0.0
2005,41.0,0,40,13.0,0.0
2006,41.0,36,180,14.0,0.0
2007,41.0,0,180,13.0,0.0
2008,65.0,0,40,11.0,0.0
2009,56.0,60,40,12.0,0.0
2010,77.0,0,40,10.0,0.0
2011,55.0,0,40,12.0,0.0
2012,67.0,24,40,11.0,0.0
2013,79.0,0,40,10.0,0.0
2014,68.0,0,40,11.0,0.0
2015,80.0,60,40,10.0,0.0
2016,53.0,0,40,12.0,0.0
2017,41.0,0,40,14.0,0.0
2018,70.0,0,90,3.0,0.0
2019,67.0,0,90,3.0,0.0
2020,77.0,0,90,0.0,0.0
2021,89.0,0,90,0.0,0.0
2022,58.0,0,90,12.0,0.0
2023,53.0,48,40,13.0,0.0
2024,65.0,0,90,5.0,0.0
2025,82.0,0,90,2.0,0.0
2026,41.0,0,90,8.0,0.0
2027,79.0,0,90,2.0,0.0
2028,65.0,0,90,7.0,0.0
2029,77.0,0,90,7.0,0.0
2030,65.0,0,90,6.0,0.0
2031,82.0,12,90,10.0,0.0
2032,70.0,0,90,11.0,0.0
2033,58.0,0,90,4.0,0.0
2034,55.0,0,90,4.0,0.0
2035,53.0,0,90,5.0,0.0
2036,53.0,0,40,13.0,0.0
2037,41.0,120,40,14.0,0.0
2038,41.0,0,180,14.0,0.0
2039,53.0,36,180,13.0,0.0
2040,58.0,0,40,12.0,0.0
2041,67.0,0,40,11.0,0.0
2042,79.0,60,40,10.0,0.0
2043,56.0,0,40,12.0,0.0
2044,68.0,24,40,11.0,0.0
2045,80.0,0,40,10.0,0.0
2046,55.0,0,40,12.0,0.0
2047,82.0,0,40,10.0,0.0
2048,70.0,60,40,11.0,0.0
2049,53.0,0,90,5.0,0.0
2050,65.0,0,90,5.0,0.0
2051,65.0,0,90,6.0,0.0
2052,41.0,48,40,14.0,0.0
2053,72.0,0,90,11.0,0.0
2054,84.0,0,90,10.0,0.0
2055,77.0,0,90,7.0,0.0
2056,89.0,0,90,0.0,0.0
2057,65.0,0,90,7.0,0.0
2058,84.0,0,90,2.0,0.0
2059,60.0,12,90,12.0,0.0
2060,72.0,0,90,3.0,0.0
2061,68.0,0,90,3.0,0.0
2062,53.0,0,40,13.0,0.0
2063,80.0,0,90,2.0,0.0
2064,77.0,0,90,0.0,0.0
2065,56.0,0,90,4.0,0.0
2066,41.0,0,90,8.0,0.0
2067,60.0,0,90,4.0,0.0
2068,41.0,0,40,14.0,0.0
2069,53.0,120,40,13.0,0.0
2070,41.0,0,180,14.0,0.0
2071,53.0,36,180,13.0,0.0
2072,68.0,0,40,11.0,0.0
2073,80.0,60,40,10.0,0.0
2074,60.0,0,40,12.0,0.0
2075,58.0,24,40,12.0,0.0
2076,82.0,0,40,10.0,0.0
2077,70.0,0,40,11.0,0.0
2078,84.0,0,40,10.0,0.0
2079,56.0,0,40,12.0,0.0
2080,72.0,108,40,11.0,0.0
2081,61.0,0,90,4.0,0.0
2082,58.0,0,90,4.0,0.0
2083,65.0,0,90,5.0,0.0
2084,70.0,0,90,3.0,0.0
2085,41.0,0,90,14.0,0.0
2086,41.0,0,90,8.0,0.0
2087,53.0,0,90,13.0,0.0
2088,73.0,0,90,11.0,0.0
2089,89.0,0,90,0.0,0.0
2090,91.0,0,90,0.0,0.0
2091,65.0,0,90,7.0,0.0
2092,85.0,120,90,10.0,0.0
2093,73.0,0,90,3.0,0.0
2094,53.0,0,90,5.0,0.0
2095,77.0,0,90,7.0,0.0
2096,82.0,0,90,2.0,0.0
2097,61.0,0,90,12.0,0.0
2098,85.0,0,90,2.0,0.0
2099,65.0,0,90,6.0,0.0
2100,61.0,0,90,4.0,0.0
2101,58.0,0,90,12.0,0.0
2102,65.0,0,90,6.0,0.0
2103,73.0,0,90,3.0,0.0
2104,70.0,0,90,3.0,0.0
2105,85.0,0,90,10.0,0.0
2106,85.0,0,90,2.0,0.0
2107,82.0,0,90,2.0,0.0
2108,53.0,0,90,13.0,0.0
2109,65.0,72,90,7.0,0.0
2110,91.0,0,90,0.0,0.0
2111,73.0,0,90,11.0,0.0
2112,41.0,0,90,14.0,0.0
2113,53.0,0,90,5.0,0.0
2114,41.0,0,90,8.0,0.0
2115,89.0,0,90,0.0,0.0
2116,65.0,0,90,5.0,0.0
2117,77.0,0,90,7.0,0.0
2118,58.0,0,90,4.0,0.0
2119,65.0,0,90,7.0,0.0
2120,77.0,0,90,7.0,0.0
2121,84.0,0,90,2.0,0.0
2122,82.0,0,90,2.0,0.0
2123,70.0,0,90,3.0,0.0
2124,72.0,0,90,3.0,0.0
2125,58.0,0,90,4.0,0.0
2126,55.0,48,40,12.0,0.0
2127,65.0,0,90,5.0,0.0
2128,41.0,0,90,14.0,0.0
2129,86.0,0,90,10.0,0.0
2130,74.0,0,90,11.0,0.0
2131,65.0,0,90,6.0,0.0
2132,53.0,0,90,13.0,0.0
2133,91.0,0,90,0.0,0.0
2134,89.0,0,90,0.0,0.0
2135,53.0,12,90,5.0,0.0
2136,41.0,0,90,8.0,0.0
2137,60.0,0,90,4.0,0.0
2138,60.0,60,40,12.0,0.0
2139,77.0,0,90,11.0,0.0
2140,56.0,0,90,4.0,0.0
2141,41.0,0,90,8.0,0.0
2142,68.0,0,90,3.0,0.0
2143,72.0,0,90,3.0,0.0
2144,65.0,0,90,7.0,0.0
2145,41.0,48,40,13.0,0.0
2146,89.0,0,90,10.0,0.0
2147,60.0,0,90,4.0,0.0
2148,53.0,0,90,12.0,0.0
2149,65.0,0,90,6.0,0.0
2150,89.0,0,90,0.0,0.0
2151,77.0,12,90,7.0,0.0
2152,80.0,0,90,2.0,0.0
2153,84.0,0,90,2.0,0.0
2154,65.0,0,90,5.0,0.0
2155,53.0,0,90,5.0,0.0
2156,29.0,0,40,14.0,0.0
2157,41.0,120,40,13.0,0.0
2158,29.0,0,40,14.0,0.0
2159,41.0,36,180,13.0,0.0
2160,29.0,0,180,14.0,0.0
2161,65.0,60,40,11.0,0.0
2162,56.0,0,40,12.0,0.0
2163,77.0,0,40,10.0,0.0
2164,67.0,0,40,11.0,0.0
2165,79.0,0,40,10.0,0.0
2166,55.0,24,40,12.0,0.0
2167,68.0,60,40,11.0,0.0
2168,80.0,0,40,10.0,0.0
2169,53.0,0,40,12.0,0.0
2170,79.0,0,90,2.0,0.0
2171,82.0,0,90,2.0,0.0
2172,65.0,0,90,6.0,0.0
2173,65.0,0,90,5.0,0.0
2174,70.0,0,90,3.0,0.0
2175,58.0,0,90,12.0,0.0
2176,53.0,0,90,5.0,0.0
2177,67.0,0,90,3.0,0.0
2178,70.0,0,90,11.0,0.0
2179,41.0,0,90,8.0,0.0
2180,89.0,0,90,0.0,0.0
2181,82.0,0,90,10.0,0.0
2182,41.0,48,40,13.0,0.0
2183,29.0,0,40,14.0,0.0
2184,77.0,12,90,0.0,0.0
2185,55.0,0,90,4.0,0.0
2186,58.0,0,90,4.0,0.0
2187,77.0,0,90,7.0,0.0
2188,65.0,0,90,7.0,0.0
2189,29.0,120,40,14.0,0.0
2190,41.0,0,40,13.0,0.0
2191,29.0,0,180,14.0,0.0
2192,41.0,36,180,13.0,0.0
2193,58.0,60,40,12.0,0.0
2194,67.0,0,40,11.0,0.0
2195,79.0,0,40,10.0,0.0
2196,80.0,0,40,10.0,0.0
2197,56.0,0,40,12.0,0.0
2198,68.0,24,40,11.0,0.0
2199,82.0,0,40,10.0,0.0
2200,55.0,60,40,12.0,0.0
2201,70.0,0,40,11.0,0.0
2202,68.0,0,90,3.0,0.0
2203,72.0,0,90,11.0,0.0
2204,84.0,0,90,10.0,0.0
2205,77.0,0,90,7.0,0.0
2206,80.0,0,90,2.0,0.0
2207,60.0,0,90,12.0,0.0
2208,41.0,0,90,8.0,0.0
2209,29.0,0,40,14.0,0.0
2210,72.0,0,90,3.0,0.0
2211,41.0,48,40,13.0,0.0
2212,84.0,0,90,2.0,0.0
2213,65.0,0,90,7.0,0.0
2214,60.0,0,90,4.0,0.0
2215,89.0,12,90,0.0,0.0
2216,77.0,0,90,0.0,0.0
2217,56.0,0,90,4.0,0.0
2218,65.0,0,90,6.0,0.0
2219,65.0,0,90,5.0,0.0
2220,53.0,0,90,5.0,0.0
2221,29.0,120,40,14.0,0.0
2222,41.0,0,40,13.0,0.0
2223,41.0,24,180,13.0,0.0
2224,29.0,0,180,14.0,0.0
2225,68.0,0,40,11.0,0.0
2226,80.0,0,40,10.0,0.0
2227,60.0,60,40,12.0,0.0
2228,65.0,0,90,6.0,0.0
2229,80.0,0,90,2.0,0.0
2230,68.0,0,90,3.0,0.0
2231,56.0,0,90,4.0,0.0
2232,53.0,0,90,4.0,0.0
2233,72.0,0,90,2.0,0.0
2234,65.0,0,90,7.0,0.0
2235,70.0,0,40,11.0,0.0
2236,41.0,0,90,8.0,0.0
2237,58.0,24,40,12.0,0.0
2238,89.0,0,90,0.0,0.0
2239,84.0,0,90,0.0,0.0
2240,72.0,0,90,3.0,0.0
2241,65.0,12,90,5.0,0.0
2242,53.0,0,90,5.0,0.0
2243,82.0,0,40,10.0,0.0
2244,77.0,0,90,7.0,0.0
2245,72.0,0,40,11.0,0.0
2246,84.0,0,40,10.0,0.0
2247,56.0,108,40,12.0,0.0
2248,65.0,0,90,7.0,0.0
2249,41.0,0,90,8.0,0.0
2250,85.0,0,90,0.0,0.0
2251,80.0,0,90,2.0,0.0
2252,73.0,0,90,2.0,0.0
2253,92.0,0,90,0.0,0.0
2254,77.0,0,90,7.0,0.0
2255,68.0,0,90,3.0,0.0
2256,73.0,0,90,11.0,0.0
2257,73.0,0,90,3.0,0.0
2258,85.0,0,90,10.0,0.0
2259,65.0,0,90,5.0,0.0
2260,53.0,0,90,5.0,0.0
2261,41.0,0,90,13.0,0.0
2262,53.0,0,90,4.0,0.0
2263,56.0,0,90,4.0,0.0
2264,68.0,0,90,12.0,0.0
2265,68.0,120,90,6.0,0.0
2266,29.0,0,90,14.0,0.0
2267,85.0,0,90,0.0,0.0
2268,68.0,0,90,3.0,0.0
2269,73.0,0,90,3.0,0.0
2270,56.0,0,90,4.0,0.0
2271,53.0,0,90,4.0,0.0
2272,65.0,0,90,7.0,0.0
2273,92.0,0,90,0.0,0.0
2274,85.0,0,90,10.0,0.0
2275,73.0,0,90,11.0,0.0
2276,53.0,0,90,5.0,0.0
2277,41.0,0,90,13.0,0.0
2278,65.0,0,90,5.0,0.0
2279,41.0,0,90,8.0,0.0
2280,56.0,0,90,12.0,0.0
2281,73.0,0,90,2.0,0.0
2282,80.0,0,90,2.0,0.0
2283,41.0,120,90,14.0,0.0
2284,68.0,0,90,6.0,0.0
2285,56.0,216,90,12.0,0.0
2286,68.0,0,90,3.0,0.0
2287,86.0,0,90,10.0,0.0
2288,92.0,0,90,0.0,0.0
2289,52.0,0,90,4.0,0.0
2290,56.0,0,90,4.0,0.0
2291,74.0,0,90,11.0,0.0
2292,80.0,0,90,2.0,0.0
2293,86.0,0,90,0.0,0.0
2294,40.0,0,90,14.0,0.0
2295,68.0,0,90,6.0,0.0
2296,40.0,0,90,13.0,0.0
2297,74.0,0,90,3.0,0.0
2298,74.0,0,90,2.0,0.0
2299,87.0,0,240,10.0,0.0
2300,63.0,0,300,6.0,0.0
2301,51.0,0,300,4.0,0.0
2302,55.0,12,300,4.0,0.0
2303,75.0,48,240,11.0,0.0
2304,51.0,0,300,6.0,0.0
2305,87.0,0,300,0.0,0.0
2306,55.0,48,180,12.0,0.0
2307,67.0,0,300,5.0,0.0
2308,75.0,0,300,2.0,0.0
2309,39.0,0,300,13.0,0.0
2310,91.0,0,300,0.0,0.0
2311,70.0,0,300,3.0,0.0
2312,79.0,0,300,2.0,0.0
2313,67.0,0,300,3.0,0.0
2314,39.0,0,300,14.0,0.0
2315,82.0,48,60,10.0,0.0
2316,73.0,0,60,11.0,0.0
2317,58.0,0,40,12.0,0.0
2318,61.0,108,40,12.0,0.0
2319,70.0,0,40,11.0,0.0
2320,79.0,0,40,10.0,0.0
2321,39.0,0,300,13.0,0.0
2322,68.0,0,300,3.0,0.0
2323,72.0,0,300,3.0,0.0
2324,72.0,0,90,7.0,0.0
2325,60.0,96,90,7.0,0.0
2326,92.0,0,300,0.0,0.0
2327,48.0,0,90,8.0,0.0
2328,39.0,12,300,14.0,0.0
2329,75.0,0,300,2.0,0.0
2330,80.0,0,300,2.0,0.0
2331,87.0,0,300,0.0,0.0
2332,56.0,48,180,12.0,0.0
2333,51.0,0,300,6.0,0.0
2334,63.0,0,300,6.0,0.0
2335,60.0,0,300,4.0,0.0
2336,56.0,0,300,4.0,0.0
2337,84.0,48,240,10.0,0.0
2338,75.0,0,240,11.0,0.0
2339,80.0,0,60,10.0,0.0
2340,72.0,48,60,11.0,0.0
2341,60.0,0,40,12.0,0.0
2342,75.0,0,40,10.0,0.0
2343,63.0,204,40,12.0,0.0
2344,68.0,0,40,11.0,0.0
2345,80.0,48,240,10.0,0.0
2346,53.0,48,180,12.0,0.0
2347,51.0,0,300,6.0,0.0
2348,63.0,0,300,6.0,0.0
2349,74.0,0,240,11.0,0.0
2350,56.0,0,300,4.0,0.0
2351,58.0,0,300,4.0,0.0
2352,77.0,0,300,2.0,0.0
2353,39.0,0,300,13.0,0.0
2354,68.0,0,300,3.0,0.0
2355,39.0,0,300,14.0,0.0
2356,89.0,0,300,0.0,0.0
2357,80.0,0,300,2.0,0.0
2358,92.0,0,300,0.0,0.0
2359,70.0,0,300,3.0,0.0
2360,56.0,12,40,12.0,0.0
2361,68.0,48,60,11.0,0.0
2362,77.0,0,60,10.0,0.0
2363,58.0,0,40,12.0,0.0
2364,74.0,108,40,10.0,0.0
2365,65.0,0,40,11.0,0.0
2366,58.0,0,300,4.0,0.0
2367,55.0,0,300,4.0,0.0
2368,75.0,0,90,2.0,0.0
2369,67.0,0,300,5.0,0.0
2370,79.0,0,90,2.0,0.0
2371,75.0,24,180,10.0,0.0
2372,87.0,96,90,0.0,0.0
2373,70.0,0,300,3.0,0.0
2374,67.0,0,300,3.0,0.0
2375,39.0,48,300,13.0,0.0
2376,51.0,0,300,6.0,0.0
2377,63.0,0,300,6.0,0.0
2378,67.0,0,180,11.0,0.0
2379,51.0,0,180,12.0,0.0
2380,91.0,0,90,0.0,0.0
2381,39.0,0,300,14.0,0.0
2382,87.0,0,90,0.0,0.0
2383,82.0,72,90,0.0,0.0
2384,75.0,0,90,2.0,0.0
2385,79.0,0,90,2.0,0.0
2386,82.0,12,90,0.0,0.0
2387,75.0,0,90,2.0,0.0
2388,87.0,0,90,0.0,0.0
2389,79.0,0,90,2.0,0.0
2390,55.0,0,40,12.0,0.0
2391,67.0,0,40,11.0,0.0
2392,70.0,0,40,10.0,0.0
2393,67.0,0,40,10.0,0.0
2394,63.0,0,40,11.0,0.0
2395,58.0,204,40,12.0,0.0
2396,63.0,0,300,6.0,0.0
2397,51.0,0,300,6.0,0.0
2398,39.0,0,300,14.0,0.0
2399,51.0,0,180,12.0,0.0
2400,87.0,0,300,0.0,0.0
2401,82.0,0,300,0.0,0.0
2402,55.0,0,300,4.0,0.0
2403,75.0,0,300,2.0,0.0
2404,58.0,0,300,4.0,0.0
2405,73.0,0,180,10.0,0.0
2406,70.0,0,300,3.0,0.0
2407,67.0,0,300,3.0,0.0
2408,70.0,96,180,11.0,0.0
2409,67.0,0,300,5.0,0.0
2410,79.0,0,300,2.0,0.0
2411,39.0,0,300,13.0,0.0
2412,67.0,0,40,11.0,0.0
2413,49.0,0,40,12.0,0.0
2414,70.0,60,40,10.0,0.0
2415,51.0,0,40,12.0,0.0
2416,67.0,108,40,10.0,0.0
2417,61.0,0,40,11.0,0.0
2418,60.0,0,90,7.0,0.0
2419,68.0,0,180,11.0,0.0
2420,87.0,0,300,0.0,0.0
2421,84.0,0,300,0.0,0.0
2422,48.0,96,180,12.0,0.0
2423,72.0,0,180,10.0,0.0
2424,48.0,96,90,8.0,0.0
2425,51.0,0,300,6.0,0.0
2426,72.0,0,90,7.0,0.0
2427,75.0,0,300,2.0,0.0
2428,68.0,0,300,3.0,0.0
2429,56.0,0,300,4.0,0.0
2430,39.0,0,300,13.0,0.0
2431,72.0,0,300,3.0,0.0
2432,60.0,60,300,4.0,0.0
2433,80.0,0,300,2.0,0.0
2434,39.0,0,300,14.0,0.0
2435,63.0,0,300,6.0,0.0
2436,51.0,0,40,12.0,0.0
2437,63.0,0,40,11.0,0.0
2438,68.0,0,40,10.0,0.0
2439,56.0,0,40,12.0,0.0
2440,60.0,204,40,11.0,0.0
2441,63.0,0,40,10.0,0.0
2442,68.0,0,300,3.0,0.0
2443,50.0,0,180,12.0,0.0
2444,39.0,0,300,13.0,0.0
2445,77.0,60,300,2.0,0.0
2446,80.0,0,300,2.0,0.0
2447,63.0,0,300,6.0,0.0
2448,65.0,96,180,11.0,0.0
2449,70.0,0,300,3.0,0.0
2450,68.0,0,180,10.0,0.0
2451,51.0,0,300,6.0,0.0
2452,56.0,0,300,4.0,0.0
2453,58.0,0,300,4.0,0.0
2454,86.0,0,300,0.0,0.0
2455,89.0,0,300,0.0,0.0
2456,65.0,0,300,5.0,0.0
2457,39.0,0,300,14.0,0.0
2458,62.0,0,40,11.0,0.0
2459,65.0,0,40,10.0,0.0
2460,53.0,0,40,12.0,0.0
2461,56.0,108,40,11.0,0.0
2462,62.0,0,40,10.0,0.0
2463,58.0,0,40,12.0,0.0
2464,55.0,0,90,11.0,0.0
2465,39.0,0,90,14.0,0.0
2466,75.0,0,90,2.0,0.0
2467,51.0,324,90,6.0,0.0
2468,63.0,0,90,6.0,0.0
2469,55.0,0,90,4.0,0.0
2470,58.0,0,90,4.0,0.0
2471,79.0,0,90,2.0,0.0
2472,67.0,0,90,3.0,0.0
2473,39.0,0,90,13.0,0.0
2474,87.0,0,90,0.0,0.0
2475,63.0,0,90,10.0,0.0
2476,70.0,0,90,3.0,0.0
2477,58.0,0,90,12.0,0.0
2478,44.0,0,60,13.0,0.0
2479,63.0,0,60,10.0,0.0
2480,32.0,0,60,14.0,0.0
2481,60.0,0,60,11.0,0.0
2482,56.0,120,60,12.0,0.0
2483,32.0,0,60,14.0,0.0
2484,63.0,0,60,10.0,0.0
2485,44.0,0,60,13.0,0.0
2486,56.0,168,60,12.0,0.0
2487,60.0,0,60,11.0,0.0
2488,60.0,0,40,11.0,0.0
2489,44.0,108,40,13.0,0.0
2490,56.0,0,40,12.0,0.0
2491,63.0,0,40,10.0,0.0
2492,32.0,0,40,14.0,0.0
2493,61.0,0,90,11.0,0.0
2494,56.0,0,90,12.0,0.0
2495,65.0,0,90,10.0,0.0
2496,49.0,0,90,13.0,0.0
2497,37.0,120,90,14.0,0.0
2498,61.0,0,90,11.0,0.0
2499,49.0,0,90,13.0,0.0
2500,65.0,0,90,10.0,0.0
2501,56.0,240,90,12.0,0.0
2502,37.0,0,90,14.0,0.0
2503,51.0,48,300,4.0,0.0
2504,58.0,0,300,4.0,0.0
2505,75.0,120,90,3.0,0.0
2506,67.0,120,330,3.0,0.0
2507,63.0,48,660,6.0,0.0
2508,70.0,72,90,3.0,0.0
2509,73.0,0,90,3.0,0.0
2510,80.0,0,120,2.0,0.0
2511,56.0,0,300,4.0,0.0
2512,68.0,0,300,3.0,0.0
2513,72.0,0,300,3.0,0.0
2514,60.0,0,300,4.0,0.0
2515,84.0,96,120,2.0,0.0
2516,87.0,24,90,0.0,0.0
2517,75.0,0,120,2.0,0.0
2518,84.0,24,90,0.0,0.0
2519,80.0,48,120,2.0,0.0
2520,75.0,0,90,2.0,0.0
2521,72.0,84,90,2.0,0.0
2522,92.0,0,90,0.0,0.0
2523,63.0,0,60,10.0,0.0
2524,44.0,0,60,13.0,0.0
2525,56.0,0,60,12.0,0.0
2526,60.0,120,60,11.0,0.0
2527,32.0,0,60,14.0,0.0
2528,56.0,0,60,12.0,0.0
2529,32.0,0,60,14.0,0.0
2530,60.0,168,60,11.0,0.0
2531,63.0,0,60,10.0,0.0
2532,44.0,0,60,13.0,0.0
2533,63.0,0,40,10.0,0.0
2534,44.0,0,40,13.0,0.0
2535,32.0,0,40,14.0,0.0
2536,56.0,0,40,12.0,0.0
2537,60.0,108,40,11.0,0.0
2538,65.0,0,90,10.0,0.0
2539,56.0,0,90,12.0,0.0
2540,49.0,0,90,13.0,0.0
2541,61.0,0,90,11.0,0.0
2542,37.0,120,90,14.0,0.0
2543,37.0,0,90,14.0,0.0
2544,65.0,0,90,10.0,0.0
2545,49.0,240,90,13.0,0.0
2546,56.0,0,90,12.0,0.0
2547,61.0,0,90,11.0,0.0
2548,75.0,120,90,3.0,0.0
2549,67.0,120,330,3.0,0.0
2550,51.0,0,300,4.0,0.0
2551,63.0,0,660,6.0,0.0
2552,58.0,48,300,4.0,0.0
2553,70.0,72,90,3.0,0.0
2554,73.0,0,90,3.0,0.0
2555,56.0,48,300,4.0,0.0
2556,84.0,96,120,2.0,0.0
2557,68.0,0,300,3.0,0.0
2558,60.0,0,300,4.0,0.0
2559,87.0,24,90,0.0,0.0
2560,72.0,0,300,3.0,0.0
2561,80.0,0,15,2.0,0.0
2562,84.0,24,90,0.0,0.0
2563,75.0,48,120,2.0,0.0
2564,72.0,0,90,2.0,0.0
2565,75.0,84,90,2.0,0.0
2566,92.0,0,90,0.0,0.0
2567,63.0,0,60,10.0,0.0
2568,44.0,120,60,13.0,0.0
2569,56.0,0,60,12.0,0.0
2570,60.0,0,60,11.0,0.0
2571,32.0,0,60,14.0,0.0
2572,63.0,0,60,10.0,0.0
2573,60.0,168,60,11.0,0.0
2574,56.0,0,60,12.0,0.0
2575,44.0,0,60,13.0,0.0
2576,32.0,0,60,14.0,0.0
2577,44.0,0,40,13.0,0.0
2578,32.0,108,40,14.0,0.0
2579,60.0,0,40,11.0,0.0
2580,63.0,0,40,10.0,0.0
2581,56.0,0,40,12.0,0.0
2582,61.0,120,90,11.0,0.0
2583,56.0,0,90,12.0,0.0
2584,64.0,0,90,10.0,0.0
2585,37.0,0,90,14.0,0.0
2586,49.0,0,90,13.0,0.0
2587,49.0,0,90,13.0,0.0
2588,61.0,0,90,11.0,0.0
2589,64.0,432,90,10.0,0.0
2590,37.0,0,90,14.0,0.0
2591,56.0,0,90,12.0,0.0
2592,45.0,0,2100,13.0,0.0
2593,57.0,104,2100,12.0,0.0
2594,88.0,0,300,0.0,0.0
2595,73.0,0,360,2.0,0.0
2596,49.0,0,360,4.0,0.0
2597,33.0,0,2100,14.0,0.0
2598,69.0,0,2100,3.0,0.0
2599,81.0,0,2100,3.0,0.0
2600,52.0,96,360,4.0,0.0
2601,85.0,72,300,0.0,0.0
2602,76.0,0,360,2.0,0.0
2603,90.0,24,90,0.0,0.0
2604,86.0,0,90,0.0,0.0
2605,78.0,96,120,2.0,0.0
2606,54.0,0,120,4.0,0.0
2607,74.0,0,120,2.0,0.0
2608,50.0,0,120,4.0,0.0
2609,56.0,96,120,4.0,0.0
2610,52.0,0,120,4.0,0.0
2611,92.0,0,90,0.0,0.0
2612,76.0,0,120,2.0,0.0
2613,88.0,24,90,0.0,0.0
2614,80.0,0,120,2.0,0.0
2615,93.0,0,90,0.0,0.0
2616,90.0,312,90,0.0,0.0
2617,81.0,0,90,2.0,0.0
2618,78.0,0,90,2.0,0.0
2619,54.0,0,90,4.0,0.0
2620,57.0,0,90,4.0,0.0
2621,49.0,96,360,4.0,0.0
2622,85.0,72,300,0.0,0.0
2623,88.0,0,300,0.0,0.0
2624,52.0,0,360,4.0,0.0
2625,73.0,0,360,2.0,0.0
2626,76.0,0,360,2.0,0.0
2627,54.0,0,120,4.0,0.0
2628,50.0,0,120,4.0,0.0
2629,74.0,96,120,2.0,0.0
2630,78.0,0,120,2.0,0.0
2631,90.0,24,90,0.0,0.0
2632,86.0,0,90,0.0,0.0
2633,92.0,24,90,0.0,0.0
2634,88.0,0,90,0.0,0.0
2635,76.0,96,120,2.0,0.0
2636,52.0,0,120,4.0,0.0
2637,56.0,0,120,4.0,0.0
2638,80.0,0,120,2.0,0.0
2639,78.0,0,90,2.0,0.0
2640,81.0,0,90,2.0,0.0
2641,57.0,312,90,4.0,0.0
2642,93.0,0,90,0.0,0.0
2643,90.0,0,90,0.0,0.0
2644,54.0,0,90,4.0,0.0
2645,76.0,0,300,2.0,0.0
2646,49.0,0,300,4.0,0.0
2647,88.0,0,300,0.0,0.0
2648,73.0,0,300,2.0,0.0
2649,85.0,0,300,0.0,0.0
2650,52.0,360,300,4.0,0.0
2651,89.0,0,540,0.0,0.0
2652,77.0,0,660,2.0,0.0
2653,74.0,24,660,2.0,0.0
2654,50.0,0,660,4.0,0.0
2655,53.0,0,660,4.0,0.0
2656,86.0,0,540,0.0,0.0
2657,70.0,0,30,11.0,0.0
2658,56.0,0,300,12.0,0.0
2659,82.0,0,300,3.0,0.0
2660,70.0,0,300,3.0,0.0
2661,65.0,0,300,6.0,0.0
2662,32.0,0,300,14.0,0.0
2663,58.0,0,300,6.0,0.0
2664,82.0,40,30,10.0,0.0
2665,44.0,0,300,13.0,0.0
2666,82.0,0,30,10.0,0.0
2667,70.0,40,30,11.0,0.0
2668,82.0,0,30,10.0,0.0
2669,70.0,40,30,11.0,0.0
2670,70.0,0,30,11.0,0.0
2671,82.0,40,30,10.0,0.0
2672,70.0,40,30,11.0,0.0
2673,82.0,0,30,10.0,0.0
2674,70.0,0,30,11.0,0.0
2675,82.0,40,30,10.0,0.0
2676,70.0,16,30,11.0,0.0
2677,82.0,0,30,10.0,0.0
2678,82.0,40,30,10.0,0.0
2679,70.0,0,30,11.0,0.0
2680,70.0,40,30,11.0,0.0
2681,82.0,0,30,10.0,0.0
2682,87.0,0,30,10.0,0.0
2683,82.0,0,300,3.0,0.0
2684,73.0,0,300,3.0,0.0
2685,55.0,0,300,12.0,0.0
2686,75.0,0,300,2.0,0.0
2687,31.0,0,300,14.0,0.0
2688,67.0,0,300,5.0,0.0
2689,82.0,0,300,2.0,0.0
2690,51.0,0,300,4.0,0.0
2691,55.0,0,300,4.0,0.0
2692,63.0,0,300,6.0,0.0
2693,85.0,0,300,0.0,0.0
2694,51.0,24,300,6.0,0.0
2695,63.0,40,30,11.0,0.0
2696,75.0,0,30,11.0,0.0
2697,43.0,0,300,13.0,0.0
2698,87.0,0,300,0.0,0.0
2699,75.0,0,30,11.0,0.0
2700,87.0,40,30,10.0,0.0
2701,63.0,0,30,11.0,0.0
2702,87.0,0,30,10.0,0.0
2703,75.0,40,30,11.0,0.0
2704,63.0,0,30,11.0,0.0
2705,63.0,0,30,11.0,0.0
2706,75.0,40,30,11.0,0.0
2707,87.0,0,30,10.0,0.0
2708,75.0,0,30,11.0,0.0
2709,63.0,0,30,11.0,0.0
2710,87.0,40,30,10.0,0.0
2711,75.0,40,30,11.0,0.0
2712,63.0,0,30,11.0,0.0
2713,87.0,0,30,10.0,0.0
2714,87.0,0,30,10.0,0.0
2715,63.0,16,30,11.0,0.0
2716,75.0,0,30,11.0,0.0
2717,87.0,0,30,10.0,0.0
2718,63.0,0,30,11.0,0.0
2719,75.0,40,30,11.0,0.0
2720,63.0,0,30,11.0,0.0
2721,87.0,40,30,10.0,0.0
2722,75.0,0,30,11.0,0.0
2723,48.0,0,30,12.0,0.0
2724,32.0,0,300,14.0,0.0
2725,84.0,0,90,3.0,0.0
2726,44.0,0,300,13.0,0.0
2727,84.0,0,90,0.0,0.0
2728,87.0,0,90,0.0,0.0
2729,60.0,0,300,7.0,0.0
2730,80.0,0,90,2.0,0.0
2731,75.0,0,90,2.0,0.0
2732,72.0,0,300,7.0,0.0
2733,48.0,0,90,8.0,0.0
2734,56.0,0,90,4.0,0.0
2735,87.0,0,30,10.0,0.0
2736,75.0,40,30,11.0,0.0
2737,63.0,0,90,6.0,0.0
2738,51.0,16,90,6.0,0.0
2739,48.0,24,300,5.0,0.0
2740,60.0,0,300,5.0,0.0
2741,72.0,0,90,3.0,0.0
2742,87.0,0,30,10.0,0.0
2743,48.0,24,30,12.0,0.0
2744,75.0,0,30,11.0,0.0
2745,87.0,0,30,10.0,0.0
2746,48.0,0,30,12.0,0.0
2747,75.0,40,30,11.0,0.0
2748,51.0,0,90,6.0,0.0
2749,84.0,16,90,0.0,0.0
2750,80.0,0,90,0.0,0.0
2751,48.0,40,30,12.0,0.0
2752,63.0,0,90,6.0,0.0
2753,56.0,0,90,4.0,0.0
2754,60.0,0,90,4.0,0.0
2755,72.0,0,30,11.0,0.0
2756,84.0,0,30,10.0,0.0
2757,75.0,0,90,3.0,0.0
2758,72.0,0,90,3.0,0.0
2759,72.0,24,30,11.0,0.0
2760,84.0,0,30,10.0,0.0
2761,48.0,0,30,12.0,0.0
2762,48.0,40,30,12.0,0.0
2763,84.0,0,30,10.0,0.0
2764,72.0,0,30,11.0,0.0
2765,84.0,0,90,0.0,0.0
2766,80.0,0,30,10.0,0.0
2767,72.0,0,90,3.0,0.0
2768,80.0,0,210,3.0,0.0
2769,48.0,0,30,12.0,0.0
2770,63.0,16,90,6.0,0.0
2771,56.0,0,210,4.0,0.0
2772,68.0,16,30,11.0,0.0
2773,92.0,0,210,0.0,0.0
2774,60.0,0,90,4.0,0.0
2775,51.0,0,90,6.0,0.0
2776,68.0,0,30,11.0,0.0
2777,48.0,24,30,12.0,0.0
2778,80.0,0,30,10.0,0.0
2779,68.0,40,30,11.0,0.0
2780,48.0,0,30,12.0,0.0
2781,80.0,0,30,10.0,0.0
2782,65.0,0,300,5.0,0.0
2783,77.0,16,90,3.0,0.0
2784,37.0,0,300,14.0,0.0
2785,68.0,0,30,11.0,0.0
2786,41.0,0,90,8.0,0.0
2787,49.0,0,300,13.0,0.0
2788,77.0,0,300,7.0,0.0
2789,65.0,24,300,7.0,0.0
2790,65.0,0,90,6.0,0.0
2791,89.0,0,90,0.0,0.0
2792,53.0,0,30,12.0,0.0
2793,80.0,40,30,10.0,0.0
2794,61.0,0,90,4.0,0.0
2795,68.0,24,30,11.0,0.0
2796,80.0,0,30,10.0,0.0
2797,53.0,0,30,12.0,0.0
2798,68.0,0,30,11.0,0.0
2799,80.0,0,30,10.0,0.0
2800,53.0,40,30,12.0,0.0
2801,77.0,0,90,3.0,0.0
2802,65.0,0,30,11.0,0.0
2803,77.0,0,30,10.0,0.0
2804,65.0,0,90,6.0,0.0
2805,89.0,0,90,0.0,0.0
2806,53.0,40,30,12.0,0.0
2807,85.0,0,90,0.0,0.0
2808,56.0,16,90,4.0,0.0
2809,61.0,0,90,4.0,0.0
2810,73.0,0,90,3.0,0.0
2811,77.0,24,30,10.0,0.0
2812,65.0,0,30,11.0,0.0
2813,53.0,0,30,12.0,0.0
2814,53.0,0,30,12.0,0.0
2815,65.0,40,30,11.0,0.0
2816,77.0,0,30,10.0,0.0
2817,89.0,0,210,0.0,0.0
2818,80.0,32,120,2.0,0.0
2819,77.0,0,210,3.0,0.0
2820,85.0,0,210,0.0,0.0
2821,65.0,0,30,11.0,0.0
2822,65.0,0,210,6.0,0.0
2823,77.0,0,30,10.0,0.0
2824,68.0,0,120,2.0,0.0
2825,56.0,16,90,4.0,0.0
2826,53.0,16,30,12.0,0.0
2827,61.0,16,210,4.0,0.0
2828,73.0,0,210,3.0,0.0
2829,53.0,0,30,12.0,0.0
2830,65.0,0,30,11.0,0.0
2831,77.0,24,30,10.0,0.0
2832,77.0,8,30,10.0,0.0
2833,65.0,0,30,11.0,0.0
2834,53.0,0,30,12.0,0.0
2835,46.0,0,300,13.0,0.0
2836,58.0,0,90,4.0,0.0
2837,65.0,0,300,7.0,0.0
2838,70.0,0,90,2.0,0.0
2839,49.0,40,30,12.0,0.0
2840,34.0,24,300,14.0,0.0
2841,77.0,0,300,7.0,0.0
2842,82.0,0,90,2.0,0.0
2843,65.0,0,30,11.0,0.0
2844,41.0,0,90,8.0,0.0
2845,77.0,0,30,10.0,0.0
2846,65.0,0,300,5.0,0.0
2847,65.0,24,30,11.0,0.0
2848,77.0,0,30,10.0,0.0
2849,49.0,0,30,12.0,0.0
2850,77.0,0,30,10.0,0.0
2851,65.0,0,30,11.0,0.0
2852,49.0,40,30,12.0,0.0
2853,58.0,0,90,4.0,0.0
2854,70.0,0,90,2.0,0.0
2855,82.0,0,90,2.0,0.0
2856,73.0,0,30,10.0,0.0
2857,85.0,0,90,0.0,0.0
2858,82.0,16,90,0.0,0.0
2859,65.0,0,90,6.0,0.0
2860,49.0,0,30,12.0,0.0
2861,61.0,40,30,11.0,0.0
2862,73.0,0,90,3.0,0.0
2863,61.0,0,90,4.0,0.0
2864,70.0,0,90,3.0,0.0
2865,49.0,24,30,12.0,0.0
2866,73.0,0,30,10.0,0.0
2867,61.0,0,30,11.0,0.0
2868,73.0,40,30,10.0,0.0
2869,61.0,0,30,11.0,0.0
2870,49.0,0,30,12.0,0.0
2871,70.0,0,210,3.0,0.0
2872,61.0,0,210,4.0,0.0
2873,49.0,0,30,12.0,0.0
2874,58.0,16,210,4.0,0.0
2875,73.0,0,210,3.0,0.0
2876,82.0,0,210,0.0,0.0
2877,70.0,0,210,2.0,0.0
2878,82.0,0,210,2.0,0.0
2879,65.0,0,210,6.0,0.0
2880,73.0,0,30,10.0,0.0
2881,61.0,16,30,11.0,0.0
2882,85.0,0,210,0.0,0.0
2883,49.0,40,30,12.0,0.0
2884,61.0,0,30,11.0,0.0
2885,73.0,0,30,10.0,0.0
2886,73.0,0,30,10.0,0.0
2887,61.0,40,30,11.0,0.0
2888,49.0,0,30,12.0,0.0
2889,51.0,24,300,13.0,0.0
2890,61.0,0,30,11.0,0.0
2891,53.0,0,30,12.0,0.0
2892,73.0,40,30,10.0,0.0
2893,39.0,0,300,14.0,0.0
2894,61.0,0,30,11.0,0.0
2895,73.0,0,30,10.0,0.0
2896,53.0,24,30,12.0,0.0
2897,61.0,40,30,11.0,0.0
2898,73.0,0,30,10.0,0.0
2899,53.0,0,30,12.0,0.0
2900,87.0,0,90,0.0,0.0
2901,51.0,0,90,6.0,0.0
2902,70.0,0,30,10.0,0.0
2903,82.0,0,90,2.0,0.0
2904,73.0,0,90,2.0,0.0
2905,58.0,40,30,11.0,0.0
2906,82.0,0,90,0.0,0.0
2907,73.0,0,90,3.0,0.0
2908,70.0,0,90,3.0,0.0
2909,63.0,0,90,6.0,0.0
2910,58.0,0,90,4.0,0.0
2911,61.0,16,90,4.0,0.0
2912,53.0,0,30,12.0,0.0
2913,53.0,24,30,12.0,0.0
2914,70.0,0,30,10.0,0.0
2915,58.0,0,30,11.0,0.0
2916,70.0,40,30,10.0,0.0
2917,53.0,0,30,12.0,0.0
2918,58.0,0,30,11.0,0.0
2919,67.0,0,90,3.0,0.0
2920,70.0,0,90,3.0,0.0
2921,61.0,0,90,4.0,0.0
2922,58.0,16,90,4.0,0.0
2923,87.0,0,90,0.0,0.0
2924,55.0,0,30,11.0,0.0
2925,82.0,0,90,0.0,0.0
2926,51.0,0,90,6.0,0.0
2927,82.0,0,90,2.0,0.0
2928,67.0,0,30,10.0,0.0
2929,53.0,16,30,12.0,0.0
2930,63.0,0,90,6.0,0.0
2931,73.0,0,90,2.0,0.0
2932,53.0,0,30,12.0,0.0
2933,67.0,0,30,10.0,0.0
2934,55.0,24,30,11.0,0.0
2935,67.0,0,30,10.0,0.0
2936,55.0,0,30,11.0,0.0
2937,53.0,56,30,12.0,0.0
2938,80.0,0,90,0.0,0.0
2939,48.0,12,90,5.0,0.0
2940,51.0,0,90,6.0,0.0
2941,63.0,0,90,6.0,0.0
2942,48.0,0,90,12.0,0.0
2943,56.0,0,90,11.0,0.0
2944,60.0,0,90,5.0,0.0
2945,60.0,0,90,3.0,0.0
2946,60.0,0,90,4.0,0.0
2947,48.0,0,90,8.0,0.0
2948,44.0,48,40,13.0,0.0
2949,56.0,0,90,4.0,0.0
2950,72.0,0,90,7.0,0.0
2951,60.0,0,90,7.0,0.0
2952,32.0,0,40,14.0,0.0
2953,72.0,0,90,2.0,0.0
2954,80.0,0,90,2.0,0.0
2955,68.0,0,90,3.0,0.0
2956,68.0,0,90,10.0,0.0
2957,44.0,60,40,13.0,0.0
2958,32.0,0,40,14.0,0.0
2959,44.0,60,40,13.0,0.0
2960,32.0,0,40,14.0,0.0
2961,44.0,0,40,13.0,0.0
2962,56.0,0,40,10.0,0.0
2963,32.0,60,40,14.0,0.0
2964,32.0,0,40,14.0,0.0
2965,58.0,0,40,10.0,0.0
2966,44.0,60,40,13.0,0.0
2967,60.0,0,40,10.0,0.0
2968,44.0,60,40,13.0,0.0
2969,32.0,0,40,14.0,0.0
2970,44.0,0,40,13.0,0.0
2971,61.0,0,40,10.0,0.0
2972,32.0,60,40,14.0,0.0
2973,44.0,60,40,13.0,0.0
2974,63.0,0,40,10.0,0.0
2975,32.0,0,40,14.0,0.0
2976,65.0,0,40,10.0,0.0
2977,32.0,60,40,14.0,0.0
2978,44.0,0,40,13.0,0.0
2979,44.0,0,40,13.0,0.0
2980,32.0,0,40,14.0,0.0
2981,67.0,60,40,10.0,0.0
2982,32.0,0,40,14.0,0.0
2983,68.0,60,40,10.0,0.0
2984,44.0,0,40,13.0,0.0
2985,32.0,0,40,14.0,0.0
2986,70.0,0,40,10.0,0.0
2987,44.0,60,40,13.0,0.0
2988,63.0,0,90,6.0,0.0
2989,48.0,0,90,8.0,0.0
2990,44.0,0,40,13.0,0.0
2991,60.0,0,90,7.0,0.0
2992,68.0,0,90,3.0,0.0
2993,63.0,0,90,3.0,0.0
2994,72.0,0,90,10.0,0.0
2995,72.0,0,90,7.0,0.0
2996,80.0,0,90,0.0,0.0
2997,51.0,0,90,6.0,0.0
2998,32.0,48,40,14.0,0.0
2999,56.0,0,90,12.0,0.0
3000,84.0,0,90,0.0,0.0
3001,60.0,0,90,4.0,0.0
3002,60.0,0,90,5.0,0.0
3003,75.0,0,90,2.0,0.0
3004,56.0,12,90,4.0,0.0
3005,48.0,0,90,5.0,0.0
3006,72.0,0,90,2.0,0.0
3007,44.0,60,40,13.0,0.0
3008,32.0,0,40,14.0,0.0
3009,44.0,60,40,13.0,0.0
3010,32.0,0,40,14.0,0.0
3011,32.0,0,40,14.0,0.0
3012,68.0,60,40,10.0,0.0
3013,56.0,0,40,11.0,0.0
3014,44.0,0,40,13.0,0.0
3015,58.0,0,40,11.0,0.0
3016,44.0,0,40,13.0,0.0
3017,70.0,0,40,10.0,0.0
3018,32.0,60,40,14.0,0.0
3019,44.0,60,40,13.0,0.0
3020,72.0,0,40,10.0,0.0
3021,60.0,0,40,11.0,0.0
3022,32.0,0,40,14.0,0.0
3023,73.0,60,40,10.0,0.0
3024,61.0,0,40,11.0,0.0
3025,32.0,0,40,14.0,0.0
3026,44.0,0,40,13.0,0.0
3027,75.0,0,40,10.0,0.0
3028,44.0,60,40,13.0,0.0
3029,63.0,0,40,11.0,0.0
3030,32.0,0,40,14.0,0.0
3031,32.0,0,40,14.0,0.0
3032,77.0,60,40,10.0,0.0
3033,44.0,0,40,13.0,0.0
3034,65.0,0,40,11.0,0.0
3035,44.0,60,40,13.0,0.0
3036,67.0,0,40,11.0,0.0
3037,32.0,0,40,14.0,0.0
3038,79.0,0,40,10.0,0.0
3039,32.0,0,40,14.0,0.0
3040,44.0,0,40,13.0,0.0
3041,68.0,0,40,11.0,0.0
3042,80.0,60,40,10.0,0.0
3043,70.0,60,40,11.0,0.0
3044,82.0,0,40,10.0,0.0
3045,32.0,0,40,14.0,0.0
3046,44.0,0,40,13.0,0.0
3047,72.0,0,90,7.0,0.0
3048,60.0,0,90,7.0,0.0
3049,84.0,0,90,10.0,0.0
3050,48.0,0,90,5.0,0.0
3051,51.0,0,90,6.0,0.0
3052,87.0,0,90,0.0,0.0
3053,84.0,0,90,0.0,0.0
3054,60.0,0,90,5.0,0.0
3055,75.0,0,90,2.0,0.0
3056,80.0,0,90,2.0,0.0
3057,63.0,12,90,6.0,0.0
3058,48.0,0,90,8.0,0.0
3059,32.0,48,40,14.0,0.0
3060,72.0,0,90,11.0,0.0
3061,68.0,0,90,3.0,0.0
3062,72.0,0,90,3.0,0.0
3063,63.0,0,90,4.0,0.0
3064,60.0,0,90,4.0,0.0
3065,44.0,0,40,13.0,0.0
3066,56.0,0,90,12.0,0.0
3067,44.0,0,40,13.0,0.0
3068,32.0,60,40,14.0,0.0
3069,44.0,0,40,13.0,0.0
3070,32.0,60,40,14.0,0.0
3071,32.0,0,40,14.0,0.0
3072,72.0,0,40,10.0,0.0
3073,60.0,0,40,11.0,0.0
3074,44.0,60,40,13.0,0.0
3075,61.0,0,40,11.0,0.0
3076,32.0,0,40,14.0,0.0
3077,44.0,0,40,13.0,0.0
3078,73.0,60,40,10.0,0.0
3079,44.0,60,40,13.0,0.0
3080,63.0,0,40,11.0,0.0
3081,32.0,0,40,14.0,0.0
3082,75.0,0,40,10.0,0.0
3083,32.0,0,40,14.0,0.0
3084,77.0,0,40,10.0,0.0
3085,44.0,0,40,13.0,0.0
3086,65.0,60,40,11.0,0.0
3087,67.0,0,40,11.0,0.0
3088,79.0,60,40,10.0,0.0
3089,32.0,0,40,14.0,0.0
3090,44.0,0,40,13.0,0.0
3091,87.0,0,90,0.0,0.0
3092,84.0,0,90,0.0,0.0
3093,80.0,0,90,2.0,0.0
3094,84.0,0,90,2.0,0.0
3095,68.0,48,40,11.0,0.0
3096,80.0,0,40,10.0,0.0
3097,48.0,0,90,8.0,0.0
3098,72.0,0,90,7.0,0.0
3099,63.0,0,90,6.0,0.0
3100,60.0,0,90,4.0,0.0
3101,63.0,0,90,4.0,0.0
3102,75.0,0,90,3.0,0.0
3103,60.0,12,90,5.0,0.0
3104,48.0,0,90,5.0,0.0
3105,44.0,0,40,13.0,0.0
3106,51.0,0,90,6.0,0.0
3107,60.0,0,90,7.0,0.0
3108,32.0,0,40,14.0,0.0
3109,72.0,0,90,3.0,0.0
3110,32.0,0,40,14.0,0.0
3111,82.0,60,40,10.0,0.0
3112,44.0,0,40,13.0,0.0
3113,70.0,0,40,11.0,0.0
3114,84.0,48,40,10.0,0.0
3115,80.0,0,90,2.0,0.0
3116,84.0,0,90,2.0,0.0
3117,72.0,0,90,3.0,0.0
3118,48.0,0,90,5.0,0.0
3119,60.0,0,90,5.0,0.0
3120,60.0,0,90,4.0,0.0
3121,84.0,12,90,0.0,0.0
3122,87.0,0,90,0.0,0.0
3123,63.0,0,90,4.0,0.0
3124,44.0,0,40,13.0,0.0
3125,32.0,0,40,14.0,0.0
3126,51.0,0,90,6.0,0.0
3127,63.0,0,90,6.0,0.0
3128,72.0,0,90,7.0,0.0
3129,60.0,0,90,7.0,0.0
3130,48.0,0,90,8.0,0.0
3131,72.0,0,40,11.0,0.0
3132,75.0,0,90,3.0,0.0
3133,73.0,0,40,11.0,0.0
3134,44.0,60,40,13.0,0.0
3135,32.0,0,40,14.0,0.0
3136,85.0,0,40,10.0,0.0
3137,44.0,0,40,13.0,0.0
3138,73.0,0,40,11.0,0.0
3139,82.0,0,40,11.0,0.0
3140,61.0,0,40,12.0,0.0
3141,58.0,60,40,12.0,0.0
3142,85.0,0,300,2.0,0.0
3143,63.0,0,300,6.0,0.0
3144,82.0,0,300,2.0,0.0
3145,87.0,36,180,10.0,0.0
3146,87.0,0,330,0.0,0.0
3147,75.0,0,180,3.0,0.0
3148,32.0,0,40,14.0,0.0
3149,63.0,0,180,4.0,0.0
3150,51.0,0,300,6.0,0.0
3151,61.0,60,40,12.0,0.0
3152,82.0,0,40,11.0,0.0
3153,32.0,0,40,14.0,0.0
3154,73.0,0,40,11.0,0.0
3155,44.0,0,40,13.0,0.0
3156,58.0,0,40,12.0,0.0
3157,82.0,0,40,11.0,0.0
3158,44.0,0,40,13.0,0.0
3159,61.0,0,40,12.0,0.0
3160,58.0,24,40,12.0,0.0
3161,73.0,0,40,11.0,0.0
3162,32.0,0,40,14.0,0.0
3163,73.0,0,40,11.0,0.0
3164,82.0,48,40,11.0,0.0
3165,58.0,0,40,12.0,0.0
3166,44.0,0,40,13.0,0.0
3167,61.0,0,40,12.0,0.0
3168,32.0,0,40,14.0,0.0
3169,67.0,0,40,3.0,0.0
3170,79.0,12,90,10.0,0.0
3171,79.0,0,90,0.0,0.0
3172,61.0,0,40,12.0,0.0
3173,73.0,0,40,11.0,0.0
3174,82.0,0,40,11.0,0.0
3175,44.0,48,40,13.0,0.0
3176,55.0,12,40,4.0,0.0
3177,32.0,0,40,14.0,0.0
3178,58.0,0,40,12.0,0.0
3179,73.0,0,40,11.0,0.0
3180,82.0,0,40,11.0,0.0
3181,61.0,60,40,12.0,0.0
3182,58.0,0,40,12.0,0.0
3183,44.0,0,40,13.0,0.0
3184,32.0,0,40,14.0,0.0
3185,32.0,0,40,14.0,0.0
3186,85.0,0,300,2.0,0.0
3187,73.0,60,40,11.0,0.0
3188,82.0,0,40,11.0,0.0
3189,63.0,0,300,6.0,0.0
3190,87.0,0,330,0.0,0.0
3191,87.0,0,180,10.0,0.0
3192,82.0,0,300,2.0,0.0
3193,63.0,36,180,4.0,0.0
3194,75.0,0,180,3.0,0.0
3195,58.0,0,40,12.0,0.0
3196,44.0,0,40,13.0,0.0
3197,51.0,0,300,6.0,0.0
3198,61.0,0,40,12.0,0.0
3199,44.0,0,40,13.0,0.0
3200,32.0,0,40,14.0,0.0
3201,73.0,0,40,11.0,0.0
3202,82.0,0,40,11.0,0.0
3203,58.0,0,40,12.0,0.0
3204,61.0,60,40,12.0,0.0
3205,44.0,0,40,13.0,0.0
3206,32.0,0,40,14.0,0.0
3207,58.0,0,40,12.0,0.0
3208,73.0,24,40,11.0,0.0
3209,82.0,0,40,11.0,0.0
3210,61.0,0,40,12.0,0.0
3211,58.0,0,40,12.0,0.0
3212,73.0,0,40,11.0,0.0
3213,44.0,48,40,13.0,0.0
3214,32.0,0,40,14.0,0.0
3215,82.0,0,40,11.0,0.0
3216,61.0,0,40,12.0,0.0
3217,79.0,0,90,10.0,0.0
3218,67.0,12,40,3.0,0.0
3219,79.0,12,90,0.0,0.0
3220,61.0,0,40,12.0,0.0
3221,44.0,0,40,13.0,0.0
3222,58.0,0,40,12.0,0.0
3223,55.0,0,40,4.0,0.0
3224,32.0,0,40,14.0,0.0
3225,73.0,48,40,11.0,0.0
3226,82.0,0,40,11.0,0.0
3227,44.0,0,40,13.0,0.0
3228,82.0,0,40,11.0,0.0
3229,73.0,0,40,11.0,0.0
3230,32.0,60,40,14.0,0.0
3231,58.0,0,40,12.0,0.0
3232,61.0,0,40,12.0,0.0
3233,60.0,48,40,12.0,0.0
3234,63.0,0,180,4.0,0.0
3235,44.0,0,40,13.0,0.0
3236,48.0,0,90,8.0,0.0
3237,60.0,0,90,7.0,0.0
3238,72.0,0,90,7.0,0.0
3239,56.0,0,40,12.0,0.0
3240,72.0,0,40,11.0,0.0
3241,51.0,0,300,6.0,0.0
3242,80.0,0,40,11.0,0.0
3243,84.0,0,300,2.0,0.0
3244,63.0,0,300,6.0,0.0
3245,32.0,0,40,14.0,0.0
3246,87.0,36,180,10.0,0.0
3247,80.0,0,300,2.0,0.0
3248,75.0,0,180,3.0,0.0
3249,87.0,0,330,0.0,0.0
3250,60.0,0,90,5.0,0.0
3251,48.0,12,90,5.0,0.0
3252,80.0,0,40,11.0,0.0
3253,44.0,0,40,13.0,0.0
3254,60.0,0,40,12.0,0.0
3255,56.0,0,40,12.0,0.0
3256,32.0,0,40,14.0,0.0
3257,72.0,60,40,11.0,0.0
3258,60.0,0,40,12.0,0.0
3259,72.0,24,40,11.0,0.0
3260,32.0,0,40,14.0,0.0
3261,56.0,0,40,12.0,0.0
3262,80.0,0,40,11.0,0.0
3263,44.0,0,40,13.0,0.0
3264,44.0,48,40,13.0,0.0
3265,32.0,0,40,14.0,0.0
3266,56.0,0,40,12.0,0.0
3267,60.0,0,40,12.0,0.0
3268,72.0,0,40,11.0,0.0
3269,80.0,0,40,11.0,0.0
3270,80.0,0,90,10.0,0.0
3271,80.0,12,90,0.0,0.0
3272,63.0,0,40,12.0,0.0
3273,68.0,0,40,3.0,0.0
3274,60.0,0,40,12.0,0.0
3275,56.0,12,40,4.0,0.0
3276,72.0,0,40,11.0,0.0
3277,80.0,0,40,11.0,0.0
3278,44.0,48,40,13.0,0.0
3279,32.0,0,40,14.0,0.0
3280,32.0,0,40,14.0,0.0
3281,44.0,0,40,13.0,0.0
3282,72.0,0,40,11.0,0.0
3283,80.0,0,40,11.0,0.0
3284,63.0,60,40,12.0,0.0
3285,60.0,0,40,12.0,0.0
3286,44.0,60,40,13.0,0.0
3287,63.0,0,300,6.0,0.0
3288,82.0,0,40,11.0,0.0
3289,63.0,36,180,4.0,0.0
3290,75.0,0,180,3.0,0.0
3291,87.0,0,180,10.0,0.0
3292,51.0,0,300,6.0,0.0
3293,61.0,0,40,12.0,0.0
3294,73.0,0,40,11.0,0.0
3295,32.0,0,40,14.0,0.0
3296,87.0,0,330,0.0,0.0
3297,58.0,0,40,12.0,0.0
3298,85.0,0,300,2.0,0.0
3299,82.0,0,300,2.0,0.0
3300,32.0,0,40,14.0,0.0
3301,61.0,0,40,12.0,0.0
3302,58.0,0,40,12.0,0.0
3303,44.0,0,40,13.0,0.0
3304,73.0,60,40,11.0,0.0
3305,82.0,0,40,11.0,0.0
3306,32.0,0,40,14.0,0.0
3307,44.0,0,40,13.0,0.0
3308,82.0,0,40,11.0,0.0
3309,61.0,24,40,12.0,0.0
3310,73.0,0,40,11.0,0.0
3311,58.0,0,40,12.0,0.0
3312,44.0,48,40,13.0,0.0
3313,73.0,0,40,11.0,0.0
3314,32.0,0,40,14.0,0.0
3315,82.0,0,40,11.0,0.0
3316,58.0,0,40,12.0,0.0
3317,61.0,0,40,12.0,0.0
3318,32.0,0,40,14.0,0.0
3319,82.0,0,40,11.0,0.0
3320,67.0,12,40,3.0,0.0
3321,58.0,0,40,12.0,0.0
3322,61.0,0,40,12.0,0.0
3323,44.0,48,40,13.0,0.0
3324,55.0,0,40,4.0,0.0
3325,79.0,12,90,10.0,0.0
3326,73.0,0,40,11.0,0.0
3327,79.0,0,90,0.0,0.0
3328,44.0,0,40,13.0,0.0
3329,82.0,60,40,11.0,0.0
3330,73.0,0,40,11.0,0.0
3331,32.0,0,40,14.0,0.0
3332,58.0,0,40,12.0,0.0
3333,61.0,0,40,12.0,0.0
3334,63.0,36,180,4.0,0.0
3335,80.0,0,40,11.0,0.0
3336,72.0,0,40,11.0,0.0
3337,72.0,0,90,7.0,0.0
3338,44.0,0,40,13.0,0.0
3339,32.0,48,40,14.0,0.0
3340,56.0,0,40,12.0,0.0
3341,60.0,0,40,12.0,0.0
3342,48.0,0,90,5.0,0.0
3343,60.0,0,90,5.0,0.0
3344,75.0,0,180,3.0,0.0
3345,87.0,0,180,10.0,0.0
3346,60.0,0,90,7.0,0.0
3347,51.0,0,300,6.0,0.0
3348,63.0,0,300,6.0,0.0
3349,48.0,12,90,8.0,0.0
3350,84.0,0,300,2.0,0.0
3351,80.0,0,300,2.0,0.0
3352,87.0,0,330,0.0,0.0
3353,44.0,0,40,13.0,0.0
3354,72.0,60,40,11.0,0.0
3355,32.0,0,40,14.0,0.0
3356,80.0,0,40,11.0,0.0
3357,60.0,0,40,12.0,0.0
3358,56.0,0,40,12.0,0.0
3359,32.0,0,40,14.0,0.0
3360,44.0,0,40,13.0,0.0
3361,80.0,0,40,11.0,0.0
3362,56.0,0,40,12.0,0.0
3363,60.0,0,40,12.0,0.0
3364,72.0,24,40,11.0,0.0
3365,44.0,0,40,13.0,0.0
3366,56.0,0,40,12.0,0.0
3367,32.0,0,40,14.0,0.0
3368,72.0,0,40,11.0,0.0
3369,80.0,0,40,11.0,0.0
3370,60.0,48,40,12.0,0.0
3371,72.0,0,40,11.0,0.0
3372,80.0,0,90,10.0,0.0
3373,63.0,48,40,12.0,0.0
3374,80.0,0,40,11.0,0.0
3375,56.0,0,40,4.0,0.0
3376,32.0,0,40,14.0,0.0
3377,60.0,0,40,12.0,0.0
3378,68.0,12,40,3.0,0.0
3379,80.0,12,90,0.0,0.0
3380,44.0,0,40,13.0,0.0
3381,63.0,0,40,12.0,0.0
3382,44.0,0,40,13.0,0.0
3383,32.0,60,40,14.0,0.0
3384,72.0,0,40,11.0,0.0
3385,80.0,0,40,11.0,0.0
3386,60.0,0,40,12.0,0.0
3387,82.0,0,300,2.0,0.0
3388,63.0,0,300,6.0,0.0
3389,87.0,0,180,10.0,0.0
3390,87.0,36,180,0.0,0.0
3391,63.0,0,180,4.0,0.0
3392,44.0,0,40,13.0,0.0
3393,51.0,48,300,6.0,0.0
3394,75.0,0,180,3.0,0.0
3395,85.0,0,300,2.0,0.0
3396,32.0,60,40,14.0,0.0
3397,58.0,0,40,12.0,0.0
3398,61.0,0,40,12.0,0.0
3399,82.0,0,40,11.0,0.0
3400,73.0,0,40,11.0,0.0
3401,32.0,60,40,14.0,0.0
3402,58.0,0,40,12.0,0.0
3403,61.0,0,40,12.0,0.0
3404,82.0,0,40,11.0,0.0
3405,44.0,0,40,13.0,0.0
3406,73.0,0,40,11.0,0.0
3407,32.0,24,40,14.0,0.0
3408,44.0,0,40,13.0,0.0
3409,82.0,0,40,11.0,0.0
3410,73.0,0,40,11.0,0.0
3411,58.0,0,40,12.0,0.0
3412,61.0,0,40,12.0,0.0
3413,58.0,0,40,12.0,0.0
3414,61.0,0,40,12.0,0.0
3415,82.0,0,40,11.0,0.0
3416,44.0,60,40,13.0,0.0
3417,73.0,0,40,11.0,0.0
3418,32.0,0,40,14.0,0.0
3419,32.0,0,40,14.0,0.0
3420,44.0,0,40,13.0,0.0
3421,61.0,0,40,12.0,0.0
3422,58.0,0,40,12.0,0.0
3423,82.0,0,40,11.0,0.0
3424,79.0,0,90,3.0,0.0
3425,79.0,0,90,10.0,0.0
3426,73.0,0,40,11.0,0.0
3427,91.0,12,90,0.0,0.0
3428,82.0,0,90,0.0,0.0
3429,67.0,0,90,3.0,0.0
3430,55.0,0,90,4.0,0.0
3431,61.0,0,40,12.0,0.0
3432,44.0,60,40,13.0,0.0
3433,32.0,0,40,14.0,0.0
3434,82.0,0,40,11.0,0.0
3435,73.0,0,40,11.0,0.0
3436,58.0,0,40,12.0,0.0
3437,60.0,0,90,7.0,0.0
3438,84.0,0,90,0.0,0.0
3439,80.0,48,40,10.0,0.0
3440,72.0,0,90,7.0,0.0
3441,48.0,0,90,8.0,0.0
3442,72.0,0,40,11.0,0.0
3443,80.0,0,40,11.0,0.0
3444,72.0,0,40,10.0,0.0
3445,92.0,0,90,0.0,0.0
3446,44.0,0,90,13.0,0.0
3447,32.0,0,90,14.0,0.0
3448,60.0,0,90,5.0,0.0
3449,68.0,0,90,3.0,0.0
3450,80.0,0,90,3.0,0.0
3451,48.0,12,90,5.0,0.0
3452,44.0,48,1380,4.0,0.0
3453,80.0,0,90,2.0,0.0
3454,63.0,0,40,10.0,0.0
3455,84.0,0,90,2.0,0.0
3456,68.0,0,40,12.0,0.0
3457,51.0,0,90,6.0,0.0
3458,63.0,0,90,6.0,0.0
3459,51.0,0,40,12.0,0.0
3460,63.0,60,40,10.0,0.0
3461,56.0,0,40,12.0,0.0
3462,60.0,0,40,11.0,0.0
3463,63.0,0,40,10.0,0.0
3464,51.0,0,40,12.0,0.0
3465,56.0,0,40,12.0,0.0
3466,60.0,60,40,11.0,0.0
3467,51.0,60,40,12.0,0.0
3468,56.0,0,40,12.0,0.0
3469,63.0,0,40,10.0,0.0
3470,60.0,0,40,11.0,0.0
3471,60.0,0,40,11.0,0.0
3472,56.0,60,40,12.0,0.0
3473,51.0,0,40,12.0,0.0
3474,63.0,0,40,10.0,0.0
3475,63.0,60,40,10.0,0.0
3476,51.0,0,40,12.0,0.0
3477,60.0,0,40,11.0,0.0
3478,56.0,0,40,12.0,0.0
3479,63.0,0,40,10.0,0.0
3480,51.0,60,40,12.0,0.0
3481,56.0,0,40,12.0,0.0
3482,60.0,0,40,11.0,0.0
3483,63.0,60,40,10.0,0.0
3484,56.0,0,40,12.0,0.0
3485,51.0,0,40,12.0,0.0
3486,60.0,0,40,11.0,0.0
3487,51.0,0,40,12.0,0.0
3488,56.0,0,40,12.0,0.0
3489,60.0,0,40,11.0,0.0
3490,63.0,60,40,10.0,0.0
3491,63.0,0,40,10.0,0.0
3492,56.0,60,40,12.0,0.0
3493,51.0,0,40,12.0,0.0
3494,60.0,0,40,11.0,0.0
3495,63.0,0,40,10.0,0.0
3496,60.0,0,40,11.0,0.0
3497,75.0,48,120,3.0,0.0
3498,56.0,60,40,12.0,0.0
3499,51.0,0,40,12.0,0.0
3500,63.0,0,40,10.0,0.0
3501,51.0,0,40,12.0,0.0
3502,60.0,0,40,11.0,0.0
3503,56.0,12,40,12.0,0.0
3504,51.0,60,40,12.0,0.0
3505,60.0,0,40,11.0,0.0
3506,63.0,0,40,10.0,0.0
3507,77.0,48,120,3.0,0.0
3508,56.0,0,40,12.0,0.0
3509,56.0,12,40,12.0,0.0
3510,60.0,0,40,11.0,0.0
3511,63.0,0,40,10.0,0.0
3512,51.0,0,40,12.0,0.0
3513,63.0,0,40,10.0,0.0
3514,60.0,60,40,11.0,0.0
3515,75.0,48,120,3.0,0.0
3516,51.0,0,40,12.0,0.0
3517,56.0,0,40,12.0,0.0
3518,63.0,0,40,10.0,0.0
3519,60.0,12,40,11.0,0.0
3520,56.0,0,40,12.0,0.0
3521,51.0,0,40,12.0,0.0
3522,63.0,0,40,10.0,0.0
3523,51.0,0,40,12.0,0.0
3524,56.0,0,40,12.0,0.0
3525,72.0,48,120,3.0,0.0
3526,60.0,60,40,11.0,0.0
3527,60.0,0,40,11.0,0.0
3528,63.0,12,40,10.0,0.0
3529,56.0,0,40,12.0,0.0
3530,51.0,0,40,12.0,0.0
3531,68.0,12,90,3.0,0.0
3532,56.0,48,40,12.0,0.0
3533,51.0,0,40,12.0,0.0
3534,63.0,0,40,10.0,0.0
3535,60.0,0,40,11.0,0.0
3536,51.0,0,40,12.0,0.0
3537,56.0,0,40,12.0,0.0
3538,63.0,0,40,10.0,0.0
3539,60.0,60,40,11.0,0.0
3540,56.0,0,40,12.0,0.0
3541,63.0,0,40,10.0,0.0
3542,60.0,60,40,11.0,0.0
3543,51.0,0,40,12.0,0.0
3544,63.0,0,40,10.0,0.0
3545,60.0,60,40,11.0,0.0
3546,56.0,0,40,12.0,0.0
3547,51.0,0,40,12.0,0.0
3548,60.0,0,40,11.0,0.0
3549,56.0,0,40,12.0,0.0
3550,51.0,0,40,12.0,0.0
3551,63.0,0,40,10.0,0.0
3552,84.0,12,90,0.0,0.0
3553,63.0,60,40,10.0,0.0
3554,60.0,0,40,11.0,0.0
3555,51.0,0,40,12.0,0.0
3556,56.0,0,40,12.0,0.0
3557,63.0,0,40,10.0,0.0
3558,87.0,12,90,0.0,0.0
3559,43.0,24,1260,4.0,0.0
3560,55.0,48,40,12.0,0.0
3561,61.0,0,40,10.0,0.0
3562,31.0,0,90,14.0,0.0
3563,43.0,0,90,13.0,0.0
3564,58.0,0,40,11.0,0.0
3565,51.0,0,40,12.0,0.0
3566,58.0,0,40,11.0,0.0
3567,55.0,0,40,12.0,0.0
3568,63.0,0,40,10.0,0.0
3569,61.0,0,40,10.0,0.0
3570,51.0,60,40,12.0,0.0
3571,58.0,0,40,11.0,0.0
3572,85.0,12,90,0.0,0.0
3573,55.0,48,40,12.0,0.0
3574,63.0,0,40,10.0,0.0
3575,61.0,0,40,10.0,0.0
3576,51.0,0,40,12.0,0.0
3577,51.0,0,40,12.0,0.0
3578,63.0,0,40,10.0,0.0
3579,61.0,0,40,10.0,0.0
3580,58.0,0,40,11.0,0.0
3581,55.0,60,40,12.0,0.0
3582,58.0,0,40,11.0,0.0
3583,63.0,48,40,10.0,0.0
3584,82.0,12,90,0.0,0.0
3585,55.0,0,40,12.0,0.0
3586,61.0,0,40,10.0,0.0
3587,51.0,0,40,12.0,0.0
3588,55.0,0,40,12.0,0.0
3589,58.0,0,40,11.0,0.0
3590,63.0,60,40,10.0,0.0
3591,61.0,0,40,10.0,0.0
3592,51.0,0,40,12.0,0.0
3593,58.0,48,40,11.0,0.0
3594,61.0,0,40,10.0,0.0
3595,55.0,0,40,12.0,0.0
3596,79.0,12,90,0.0,0.0
3597,51.0,0,40,12.0,0.0
3598,63.0,0,40,10.0,0.0
3599,51.0,60,40,12.0,0.0
3600,55.0,0,40,12.0,0.0
3601,63.0,0,40,10.0,0.0
3602,58.0,0,40,11.0,0.0
3603,61.0,0,40,10.0,0.0
3604,58.0,0,40,11.0,0.0
3605,55.0,60,40,12.0,0.0
3606,51.0,0,40,12.0,0.0
3607,63.0,0,40,10.0,0.0
3608,61.0,0,40,10.0,0.0
3609,58.0,0,40,11.0,0.0
3610,55.0,0,40,12.0,0.0
3611,61.0,60,40,10.0,0.0
3612,63.0,0,40,10.0,0.0
3613,51.0,0,40,12.0,0.0
3614,51.0,60,40,12.0,0.0
3615,58.0,0,40,11.0,0.0
3616,79.0,48,120,2.0,0.0
3617,55.0,0,40,12.0,0.0
3618,63.0,0,40,10.0,0.0
3619,61.0,0,40,10.0,0.0
3620,55.0,0,40,12.0,0.0
3621,58.0,0,40,11.0,0.0
3622,61.0,0,40,10.0,0.0
3623,63.0,12,40,10.0,0.0
3624,51.0,0,40,12.0,0.0
3625,51.0,0,90,13.0,0.0
3626,58.0,0,40,10.0,0.0
3627,61.0,0,40,11.0,0.0
3628,63.0,0,40,10.0,0.0
3629,51.0,0,540,6.0,0.0
3630,51.0,0,40,12.0,0.0
3631,55.0,48,40,12.0,0.0
3632,63.0,0,540,6.0,0.0
3633,39.0,12,90,14.0,0.0
3634,82.0,48,120,2.0,0.0
3635,55.0,0,40,12.0,0.0
3636,51.0,0,40,12.0,0.0
3637,58.0,0,40,10.0,0.0
3638,63.0,12,40,10.0,0.0
3639,61.0,0,40,11.0,0.0
3640,79.0,48,120,2.0,0.0
3641,63.0,60,40,10.0,0.0
3642,58.0,0,40,10.0,0.0
3643,55.0,0,40,12.0,0.0
3644,51.0,0,40,12.0,0.0
3645,61.0,0,40,11.0,0.0
3646,51.0,0,40,12.0,0.0
3647,55.0,12,40,12.0,0.0
3648,58.0,0,40,10.0,0.0
3649,61.0,0,40,11.0,0.0
3650,63.0,0,40,10.0,0.0
3651,58.0,60,40,10.0,0.0
3652,63.0,0,40,10.0,0.0
3653,70.0,48,120,3.0,0.0
3654,61.0,0,40,11.0,0.0
3655,55.0,0,40,12.0,0.0
3656,51.0,0,40,12.0,0.0
3657,51.0,12,40,12.0,0.0
3658,61.0,0,40,11.0,0.0
3659,55.0,0,40,12.0,0.0
3660,58.0,0,40,10.0,0.0
3661,63.0,0,40,10.0,0.0
3662,73.0,48,120,3.0,0.0
3663,61.0,0,40,11.0,0.0
3664,63.0,0,40,10.0,0.0
3665,51.0,0,40,12.0,0.0
3666,55.0,60,40,12.0,0.0
3667,58.0,0,40,10.0,0.0
3668,58.0,12,40,10.0,0.0
3669,51.0,0,40,12.0,0.0
3670,63.0,0,40,10.0,0.0
3671,55.0,0,40,12.0,0.0
3672,61.0,0,40,11.0,0.0
3673,58.0,0,40,10.0,0.0
3674,63.0,0,40,10.0,0.0
3675,51.0,24,40,12.0,0.0
3676,61.0,0,40,11.0,0.0
3677,55.0,0,40,12.0,0.0
3678,70.0,12,90,3.0,0.0
3679,61.0,0,40,11.0,0.0
3680,51.0,0,40,12.0,0.0
3681,55.0,108,40,12.0,0.0
3682,63.0,0,40,10.0,0.0
3683,58.0,0,40,10.0,0.0
3684,63.0,72,90,12.0,0.0
3685,67.0,0,90,11.0,0.0
3686,58.0,0,90,11.0,0.0
3687,79.0,0,90,10.0,0.0
3688,70.0,0,90,3.0,0.0
3689,63.0,0,90,10.0,0.0
3690,87.0,0,90,0.0,0.0
3691,82.0,0,90,0.0,0.0
3692,63.0,0,90,6.0,0.0
3693,39.0,0,90,14.0,0.0
3694,75.0,0,90,2.0,0.0
3695,79.0,0,90,2.0,0.0
3696,70.0,0,90,10.0,0.0
3697,51.0,0,90,4.0,0.0
3698,67.0,0,90,3.0,0.0
3699,51.0,0,90,13.0,0.0
3700,60.0,48,40,11.0,0.0
3701,68.0,0,40,11.0,0.0
3702,87.0,0,90,0.0,0.0
3703,84.0,0,90,0.0,0.0
3704,72.0,0,40,10.0,0.0
3705,56.0,0,40,12.0,0.0
3706,63.0,0,90,6.0,0.0
3707,32.0,0,90,14.0,0.0
3708,75.0,12,90,2.0,0.0
3709,63.0,0,40,10.0,0.0
3710,80.0,0,90,2.0,0.0
3711,44.0,0,90,13.0,0.0
3712,44.0,0,1380,4.0,0.0
3713,68.0,0,90,3.0,0.0
3714,80.0,0,40,10.0,0.0
3715,72.0,0,90,3.0,0.0
3716,56.0,0,40,12.0,0.0
3717,51.0,60,40,12.0,0.0
3718,60.0,0,40,11.0,0.0
3719,63.0,0,40,10.0,0.0
3720,63.0,60,40,10.0,0.0
3721,51.0,0,40,12.0,0.0
3722,60.0,0,40,11.0,0.0
3723,56.0,0,40,12.0,0.0
3724,60.0,0,40,11.0,0.0
3725,63.0,0,40,10.0,0.0
3726,51.0,0,40,12.0,0.0
3727,56.0,60,40,12.0,0.0
3728,56.0,60,40,12.0,0.0
3729,60.0,0,40,11.0,0.0
3730,51.0,0,40,12.0,0.0
3731,63.0,0,40,10.0,0.0
3732,63.0,0,40,10.0,0.0
3733,51.0,60,40,12.0,0.0
3734,60.0,0,40,11.0,0.0
3735,56.0,0,40,12.0,0.0
3736,63.0,0,40,10.0,0.0
3737,51.0,0,40,12.0,0.0
3738,56.0,0,40,12.0,0.0
3739,60.0,60,40,11.0,0.0
3740,56.0,0,40,12.0,0.0
3741,51.0,0,40,12.0,0.0
3742,63.0,0,40,10.0,0.0
3743,60.0,60,40,11.0,0.0
3744,56.0,0,40,12.0,0.0
3745,60.0,0,40,11.0,0.0
3746,63.0,60,40,10.0,0.0
3747,51.0,0,40,12.0,0.0
3748,56.0,0,40,12.0,0.0
3749,60.0,60,40,11.0,0.0
3750,63.0,0,40,10.0,0.0
3751,51.0,0,40,12.0,0.0
3752,75.0,48,120,3.0,0.0
3753,60.0,0,40,11.0,0.0
3754,63.0,60,40,10.0,0.0
3755,51.0,0,40,12.0,0.0
3756,56.0,0,40,12.0,0.0
3757,51.0,0,40,12.0,0.0
3758,56.0,0,40,12.0,0.0
3759,63.0,0,40,10.0,0.0
3760,60.0,12,40,11.0,0.0
3761,56.0,0,40,12.0,0.0
3762,63.0,0,40,10.0,0.0
3763,60.0,60,40,11.0,0.0
3764,51.0,0,40,12.0,0.0
3765,77.0,48,120,3.0,0.0
3766,60.0,0,40,11.0,0.0
3767,51.0,0,40,12.0,0.0
3768,56.0,12,40,12.0,0.0
3769,63.0,0,40,10.0,0.0
3770,60.0,0,40,11.0,0.0
3771,75.0,48,120,3.0,0.0
3772,51.0,0,40,12.0,0.0
3773,63.0,0,40,10.0,0.0
3774,56.0,60,40,12.0,0.0
3775,63.0,0,40,10.0,0.0
3776,60.0,0,40,11.0,0.0
3777,56.0,12,40,12.0,0.0
3778,51.0,0,40,12.0,0.0
3779,63.0,0,40,10.0,0.0
3780,60.0,60,40,11.0,0.0
3781,56.0,0,40,12.0,0.0
3782,51.0,0,40,12.0,0.0
3783,72.0,48,120,3.0,0.0
3784,60.0,0,40,11.0,0.0
3785,63.0,0,40,10.0,0.0
3786,51.0,12,40,12.0,0.0
3787,56.0,0,40,12.0,0.0
3788,68.0,48,120,3.0,0.0
3789,63.0,0,40,10.0,0.0
3790,60.0,0,40,11.0,0.0
3791,56.0,0,40,12.0,0.0
3792,51.0,60,40,12.0,0.0
3793,51.0,0,40,12.0,0.0
3794,56.0,0,40,12.0,0.0
3795,60.0,0,40,11.0,0.0
3796,63.0,12,40,10.0,0.0
3797,63.0,0,40,10.0,0.0
3798,56.0,0,40,12.0,0.0
3799,51.0,0,40,12.0,0.0
3800,60.0,60,40,11.0,0.0
3801,56.0,0,40,12.0,0.0
3802,60.0,0,40,11.0,0.0
3803,63.0,0,40,10.0,0.0
3804,51.0,60,40,12.0,0.0
3805,60.0,0,40,11.0,0.0
3806,63.0,0,40,10.0,0.0
3807,87.0,12,90,0.0,0.0
3808,54.0,48,40,12.0,0.0
3809,54.0,60,40,12.0,0.0
3810,63.0,0,40,10.0,0.0
3811,60.0,0,40,11.0,0.0
3812,45.0,12,90,13.0,0.0
3813,89.0,0,90,0.0,0.0
3814,33.0,0,90,14.0,0.0
3815,63.0,0,40,11.0,0.0
3816,65.0,0,40,10.0,0.0
3817,60.0,48,40,11.0,0.0
3818,45.0,24,1260,4.0,0.0
3819,53.0,0,40,12.0,0.0
3820,65.0,0,40,10.0,0.0
3821,60.0,0,40,11.0,0.0
3822,63.0,0,40,11.0,0.0
3823,53.0,60,40,12.0,0.0
3824,87.0,12,90,0.0,0.0
3825,53.0,0,40,12.0,0.0
3826,65.0,48,40,10.0,0.0
3827,63.0,0,40,11.0,0.0
3828,60.0,0,40,11.0,0.0
3829,63.0,60,40,11.0,0.0
3830,60.0,0,40,11.0,0.0
3831,65.0,0,40,10.0,0.0
3832,53.0,0,40,12.0,0.0
3833,63.0,0,40,11.0,0.0
3834,53.0,0,40,12.0,0.0
3835,84.0,12,90,0.0,0.0
3836,65.0,0,40,10.0,0.0
3837,60.0,48,40,11.0,0.0
3838,65.0,0,40,10.0,0.0
3839,63.0,0,40,11.0,0.0
3840,60.0,60,40,11.0,0.0
3841,53.0,0,40,12.0,0.0
3842,81.0,12,90,0.0,0.0
3843,63.0,0,40,11.0,0.0
3844,60.0,0,40,11.0,0.0
3845,53.0,48,40,12.0,0.0
3846,65.0,0,40,10.0,0.0
3847,65.0,0,40,10.0,0.0
3848,63.0,0,40,11.0,0.0
3849,60.0,0,40,11.0,0.0
3850,53.0,60,40,12.0,0.0
3851,63.0,0,40,11.0,0.0
3852,60.0,60,40,11.0,0.0
3853,53.0,0,40,12.0,0.0
3854,65.0,0,40,10.0,0.0
3855,65.0,0,40,10.0,0.0
3856,60.0,60,40,11.0,0.0
3857,53.0,0,40,12.0,0.0
3858,63.0,0,40,11.0,0.0
3859,81.0,48,120,2.0,0.0
3860,63.0,0,40,11.0,0.0
3861,53.0,60,40,12.0,0.0
3862,65.0,0,40,10.0,0.0
3863,60.0,0,40,11.0,0.0
3864,63.0,0,40,11.0,0.0
3865,65.0,12,40,10.0,0.0
3866,60.0,0,40,11.0,0.0
3867,53.0,0,40,12.0,0.0
3868,63.0,0,40,11.0,0.0
3869,60.0,0,40,11.0,0.0
3870,65.0,0,40,10.0,0.0
3871,84.0,48,120,2.0,0.0
3872,53.0,0,540,5.0,0.0
3873,65.0,0,540,5.0,0.0
3874,41.0,12,90,13.0,0.0
3875,53.0,0,40,12.0,0.0
3876,29.0,0,90,14.0,0.0
3877,65.0,0,40,10.0,0.0
3878,63.0,0,40,11.0,0.0
3879,60.0,0,40,11.0,0.0
3880,53.0,12,40,12.0,0.0
3881,60.0,0,40,11.0,0.0
3882,81.0,48,120,2.0,0.0
3883,53.0,0,40,12.0,0.0
3884,65.0,60,40,10.0,0.0
3885,63.0,0,40,11.0,0.0
3886,53.0,12,40,12.0,0.0
3887,63.0,0,40,11.0,0.0
3888,60.0,0,40,11.0,0.0
3889,65.0,0,40,10.0,0.0
3890,53.0,0,40,12.0,0.0
3891,65.0,0,40,10.0,0.0
3892,72.0,0,120,3.0,0.0
3893,69.0,48,120,3.0,0.0
3894,63.0,0,40,11.0,0.0
3895,60.0,60,40,11.0,0.0
3896,63.0,0,40,11.0,0.0
3897,65.0,0,40,10.0,0.0
3898,53.0,12,40,12.0,0.0
3899,60.0,0,40,11.0,0.0
3900,53.0,0,40,12.0,0.0
3901,65.0,0,40,10.0,0.0
3902,75.0,48,120,3.0,0.0
3903,60.0,60,40,11.0,0.0
3904,63.0,0,40,11.0,0.0
3905,60.0,0,40,11.0,0.0
3906,63.0,0,40,11.0,0.0
3907,53.0,0,40,12.0,0.0
3908,65.0,12,40,10.0,0.0
3909,65.0,24,40,10.0,0.0
3910,72.0,0,15,3.0,0.0
3911,69.0,12,90,3.0,0.0
3912,53.0,0,40,12.0,0.0
3913,65.0,0,90,6.0,0.0
3914,60.0,0,40,11.0,0.0
3915,63.0,0,40,11.0,0.0
3916,65.0,0,40,10.0,0.0
3917,60.0,0,40,11.0,0.0
3918,63.0,108,40,11.0,0.0
3919,53.0,0,40,12.0,0.0
3920,89.0,0,90,0.0,0.0
3921,53.0,0,90,13.0,0.0
3922,65.0,0,90,12.0,0.0
3923,69.0,0,90,11.0,0.0
3924,60.0,72,90,11.0,0.0
3925,41.0,0,90,14.0,0.0
3926,53.0,0,90,4.0,0.0
3927,53.0,0,90,5.0,0.0
3928,65.0,0,90,5.0,0.0
3929,81.0,0,90,10.0,0.0
3930,84.0,0,90,0.0,0.0
3931,65.0,0,90,10.0,0.0
3932,69.0,0,90,3.0,0.0
3933,72.0,0,90,10.0,0.0
3934,77.0,0,90,2.0,0.0
3935,72.0,0,90,3.0,0.0
3936,81.0,0,90,2.0,0.0
3937,41.0,0,90,4.0,0.0
3938,89.0,0,90,0.0,0.0
3939,82.0,0,90,2.0,0.0
3940,34.0,0,90,14.0,0.0
3941,82.0,0,40,10.0,0.0
3942,73.0,0,40,10.0,0.0
3943,65.0,0,40,10.0,0.0
3944,53.0,0,90,5.0,0.0
3945,65.0,0,90,6.0,0.0
3946,70.0,12,90,3.0,0.0
3947,85.0,0,90,0.0,0.0
3948,65.0,0,90,5.0,0.0
3949,46.0,0,90,13.0,0.0
3950,46.0,0,1380,4.0,0.0
3951,73.0,0,90,3.0,0.0
3952,70.0,0,40,11.0,0.0
3953,77.0,0,90,2.0,0.0
3954,58.0,48,40,12.0,0.0
3955,53.0,0,40,12.0,0.0
3956,65.0,60,40,10.0,0.0
3957,61.0,0,40,11.0,0.0
3958,58.0,0,40,12.0,0.0
3959,53.0,0,40,12.0,0.0
3960,58.0,0,40,12.0,0.0
3961,61.0,60,40,11.0,0.0
3962,65.0,0,40,10.0,0.0
3963,65.0,0,40,10.0,0.0
3964,53.0,0,40,12.0,0.0
3965,58.0,0,40,12.0,0.0
3966,61.0,60,40,11.0,0.0
3967,61.0,0,40,11.0,0.0
3968,58.0,0,40,12.0,0.0
3969,53.0,60,40,12.0,0.0
3970,65.0,0,40,10.0,0.0
3971,65.0,0,40,10.0,0.0
3972,61.0,0,40,11.0,0.0
3973,53.0,0,40,12.0,0.0
3974,58.0,60,40,12.0,0.0
3975,58.0,0,40,12.0,0.0
3976,65.0,0,40,10.0,0.0
3977,53.0,0,40,12.0,0.0
3978,61.0,60,40,11.0,0.0
3979,61.0,0,40,11.0,0.0
3980,58.0,60,40,12.0,0.0
3981,53.0,0,40,12.0,0.0
3982,65.0,0,40,10.0,0.0
3983,61.0,0,40,11.0,0.0
3984,65.0,0,40,10.0,0.0
3985,58.0,0,40,12.0,0.0
3986,53.0,60,40,12.0,0.0
3987,58.0,0,40,12.0,0.0
3988,53.0,0,40,12.0,0.0
3989,65.0,60,40,10.0,0.0
3990,61.0,0,40,11.0,0.0
3991,65.0,60,40,10.0,0.0
3992,53.0,0,40,12.0,0.0
3993,58.0,0,40,12.0,0.0
3994,61.0,0,40,11.0,0.0
3995,77.0,48,120,3.0,0.0
3996,65.0,0,40,10.0,0.0
3997,58.0,12,40,12.0,0.0
3998,53.0,0,40,12.0,0.0
3999,61.0,0,40,11.0,0.0
4000,58.0,0,40,12.0,0.0
4001,65.0,0,40,10.0,0.0
4002,61.0,0,40,11.0,0.0
4003,53.0,60,40,12.0,0.0
4004,78.0,48,120,3.0,0.0
4005,65.0,12,40,10.0,0.0
4006,61.0,0,40,11.0,0.0
4007,53.0,0,40,12.0,0.0
4008,58.0,0,40,12.0,0.0
4009,58.0,0,40,12.0,0.0
4010,77.0,48,120,3.0,0.0
4011,65.0,0,40,10.0,0.0
4012,53.0,0,40,12.0,0.0
4013,61.0,60,40,11.0,0.0
4014,65.0,0,40,10.0,0.0
4015,61.0,0,40,11.0,0.0
4016,58.0,0,40,12.0,0.0
4017,53.0,12,40,12.0,0.0
4018,61.0,0,40,11.0,0.0
4019,65.0,0,40,10.0,0.0
4020,73.0,48,120,3.0,0.0
4021,53.0,0,40,12.0,0.0
4022,58.0,60,40,12.0,0.0
4023,53.0,0,40,12.0,0.0
4024,58.0,0,40,12.0,0.0
4025,65.0,12,40,10.0,0.0
4026,61.0,0,40,11.0,0.0
4027,65.0,0,40,10.0,0.0
4028,61.0,0,40,11.0,0.0
4029,53.0,48,40,12.0,0.0
4030,58.0,0,40,12.0,0.0
4031,70.0,12,90,3.0,0.0
4032,65.0,0,40,10.0,0.0
4033,61.0,0,40,11.0,0.0
4034,58.0,60,40,12.0,0.0
4035,53.0,0,40,12.0,0.0
4036,65.0,0,40,10.0,0.0
4037,53.0,0,40,12.0,0.0
4038,61.0,0,40,11.0,0.0
4039,58.0,60,40,12.0,0.0
4040,61.0,0,40,11.0,0.0
4041,53.0,60,40,12.0,0.0
4042,65.0,0,40,10.0,0.0
4043,58.0,0,40,12.0,0.0
4044,53.0,0,40,12.0,0.0
4045,65.0,0,40,10.0,0.0
4046,85.0,12,90,0.0,0.0
4047,61.0,0,40,11.0,0.0
4048,58.0,48,40,12.0,0.0
4049,58.0,60,40,12.0,0.0
4050,53.0,0,40,12.0,0.0
4051,65.0,0,40,10.0,0.0
4052,61.0,0,40,11.0,0.0
4053,60.0,0,40,11.0,0.0
4054,45.0,12,90,13.0,0.0
4055,33.0,0,90,14.0,0.0
4056,65.0,0,40,10.0,0.0
4057,45.0,0,1260,4.0,0.0
4058,63.0,48,40,11.0,0.0
4059,89.0,0,90,0.0,0.0
4060,53.0,0,40,12.0,0.0
4061,65.0,0,40,10.0,0.0
4062,53.0,0,40,12.0,0.0
4063,63.0,60,40,11.0,0.0
4064,60.0,0,40,11.0,0.0
4065,53.0,0,40,12.0,0.0
4066,65.0,0,40,10.0,0.0
4067,87.0,12,90,0.0,0.0
4068,60.0,48,40,11.0,0.0
4069,63.0,0,40,11.0,0.0
4070,53.0,60,40,12.0,0.0
4071,60.0,0,40,11.0,0.0
4072,65.0,0,40,10.0,0.0
4073,63.0,0,40,11.0,0.0
4074,63.0,0,40,11.0,0.0
4075,65.0,0,40,10.0,0.0
4076,84.0,12,90,0.0,0.0
4077,60.0,48,40,11.0,0.0
4078,53.0,0,40,12.0,0.0
4079,60.0,0,40,11.0,0.0
4080,53.0,0,40,12.0,0.0
4081,63.0,60,40,11.0,0.0
4082,65.0,0,40,10.0,0.0
4083,53.0,0,40,12.0,0.0
4084,65.0,0,40,10.0,0.0
4085,81.0,12,90,0.0,0.0
4086,60.0,48,40,11.0,0.0
4087,63.0,0,40,11.0,0.0
4088,65.0,60,40,10.0,0.0
4089,60.0,0,40,11.0,0.0
4090,63.0,0,40,11.0,0.0
4091,53.0,0,40,12.0,0.0
4092,60.0,0,40,11.0,0.0
4093,65.0,0,40,10.0,0.0
4094,63.0,0,40,11.0,0.0
4095,53.0,60,40,12.0,0.0
4096,53.0,0,40,12.0,0.0
4097,65.0,60,40,10.0,0.0
4098,63.0,0,40,11.0,0.0
4099,60.0,0,40,11.0,0.0
4100,65.0,0,40,10.0,0.0
4101,60.0,0,40,11.0,0.0
4102,63.0,0,40,11.0,0.0
4103,53.0,60,40,12.0,0.0
4104,81.0,48,120,2.0,0.0
4105,63.0,0,40,11.0,0.0
4106,65.0,0,40,10.0,0.0
4107,60.0,12,40,11.0,0.0
4108,53.0,0,40,12.0,0.0
4109,60.0,0,40,11.0,0.0
4110,63.0,0,40,11.0,0.0
4111,53.0,48,40,12.0,0.0
4112,53.0,24,540,5.0,0.0
4113,65.0,0,540,5.0,0.0
4114,41.0,12,90,13.0,0.0
4115,65.0,0,40,10.0,0.0
4116,84.0,48,120,2.0,0.0
4117,29.0,0,90,14.0,0.0
4118,65.0,0,40,10.0,0.0
4119,60.0,0,40,11.0,0.0
4120,53.0,12,40,12.0,0.0
4121,63.0,0,40,11.0,0.0
4122,65.0,0,40,10.0,0.0
4123,53.0,60,40,12.0,0.0
4124,63.0,0,40,11.0,0.0
4125,60.0,0,40,11.0,0.0
4126,81.0,48,120,2.0,0.0
4127,60.0,12,40,11.0,0.0
4128,63.0,0,40,11.0,0.0
4129,65.0,0,40,10.0,0.0
4130,53.0,0,40,12.0,0.0
4131,72.0,48,120,3.0,0.0
4132,60.0,0,40,11.0,0.0
4133,65.0,0,40,10.0,0.0
4134,63.0,60,40,11.0,0.0
4135,69.0,0,120,3.0,0.0
4136,53.0,0,40,12.0,0.0
4137,63.0,0,40,11.0,0.0
4138,60.0,0,40,11.0,0.0
4139,53.0,0,40,12.0,0.0
4140,65.0,12,40,10.0,0.0
4141,65.0,60,40,10.0,0.0
4142,63.0,0,40,11.0,0.0
4143,75.0,48,120,3.0,0.0
4144,72.0,0,120,3.0,0.0
4145,53.0,0,40,12.0,0.0
4146,60.0,0,40,11.0,0.0
4147,60.0,0,40,11.0,0.0
4148,63.0,12,40,11.0,0.0
4149,53.0,0,40,12.0,0.0
4150,65.0,0,40,10.0,0.0
4151,69.0,12,90,3.0,0.0
4152,53.0,0,40,12.0,0.0
4153,63.0,24,40,11.0,0.0
4154,60.0,0,40,11.0,0.0
4155,65.0,0,40,10.0,0.0
4156,72.0,0,90,3.0,0.0
4157,60.0,108,40,11.0,0.0
4158,63.0,0,40,11.0,0.0
4159,65.0,0,40,10.0,0.0
4160,53.0,0,40,12.0,0.0
4161,41.0,0,90,4.0,0.0
4162,89.0,0,90,0.0,0.0
4163,65.0,72,90,5.0,0.0
4164,60.0,0,90,11.0,0.0
4165,84.0,0,90,0.0,0.0
4166,53.0,0,90,5.0,0.0
4167,65.0,0,90,10.0,0.0
4168,65.0,0,90,12.0,0.0
4169,81.0,0,90,10.0,0.0
4170,53.0,0,90,13.0,0.0
4171,77.0,0,90,2.0,0.0
4172,69.0,0,90,3.0,0.0
4173,57.0,0,90,3.0,0.0
4174,81.0,0,90,2.0,0.0
4175,69.0,0,90,11.0,0.0
4176,41.0,0,90,14.0,0.0
4177,65.0,0,90,6.0,0.0
4178,72.0,0,90,10.0,0.0
4179,82.0,0,90,2.0,0.0
4180,58.0,0,90,3.0,0.0
4181,65.0,0,90,5.0,0.0
4182,34.0,0,90,14.0,0.0
4183,77.0,0,90,2.0,0.0
4184,53.0,12,90,5.0,0.0
4185,70.0,0,90,3.0,0.0
4186,70.0,48,40,11.0,0.0
4187,46.0,0,90,13.0,0.0
4188,58.0,0,40,12.0,0.0
4189,65.0,0,40,10.0,0.0
4190,73.0,0,40,10.0,0.0
4191,82.0,0,40,10.0,0.0
4192,89.0,0,90,0.0,0.0
4193,53.0,0,40,12.0,0.0
4194,65.0,0,90,6.0,0.0
4195,85.0,0,90,0.0,0.0
4196,46.0,36,1260,4.0,0.0
4197,65.0,0,40,10.0,0.0
4198,53.0,60,40,12.0,0.0
4199,58.0,0,40,12.0,0.0
4200,61.0,0,40,11.0,0.0
4201,61.0,0,40,11.0,0.0
4202,58.0,0,40,12.0,0.0
4203,65.0,60,40,10.0,0.0
4204,53.0,0,40,12.0,0.0
4205,58.0,0,40,12.0,0.0
4206,61.0,0,40,11.0,0.0
4207,65.0,60,40,10.0,0.0
4208,53.0,0,40,12.0,0.0
4209,65.0,0,40,10.0,0.0
4210,53.0,60,40,12.0,0.0
4211,58.0,0,40,12.0,0.0
4212,61.0,0,40,11.0,0.0
4213,53.0,0,40,12.0,0.0
4214,65.0,0,40,10.0,0.0
4215,58.0,0,40,12.0,0.0
4216,61.0,60,40,11.0,0.0
4217,65.0,60,40,10.0,0.0
4218,61.0,0,40,11.0,0.0
4219,53.0,0,40,12.0,0.0
4220,58.0,0,40,12.0,0.0
4221,61.0,0,40,11.0,0.0
4222,53.0,0,40,12.0,0.0
4223,58.0,0,40,12.0,0.0
4224,65.0,60,40,10.0,0.0
4225,65.0,60,40,10.0,0.0
4226,58.0,0,40,12.0,0.0
4227,53.0,0,40,12.0,0.0
4228,61.0,0,40,11.0,0.0
4229,61.0,60,40,11.0,0.0
4230,53.0,0,40,12.0,0.0
4231,58.0,0,40,12.0,0.0
4232,65.0,0,40,10.0,0.0
4233,58.0,0,40,12.0,0.0
4234,77.0,48,120,3.0,0.0
4235,65.0,0,40,10.0,0.0
4236,53.0,0,40,12.0,0.0
4237,61.0,60,40,11.0,0.0
4238,53.0,0,40,12.0,0.0
4239,61.0,0,40,11.0,0.0
4240,58.0,12,40,12.0,0.0
4241,65.0,0,40,10.0,0.0
4242,78.0,48,120,3.0,0.0
4243,58.0,0,40,12.0,0.0
4244,53.0,0,40,12.0,0.0
4245,61.0,0,40,11.0,0.0
4246,65.0,60,40,10.0,0.0
4247,53.0,0,40,12.0,0.0
4248,61.0,12,40,11.0,0.0
4249,58.0,0,40,12.0,0.0
4250,65.0,0,40,10.0,0.0
4251,65.0,60,40,10.0,0.0
4252,77.0,48,120,3.0,0.0
4253,61.0,0,40,11.0,0.0
4254,58.0,0,40,12.0,0.0
4255,53.0,0,40,12.0,0.0
4256,53.0,0,40,12.0,0.0
4257,61.0,12,40,11.0,0.0
4258,65.0,0,40,10.0,0.0
4259,58.0,0,40,12.0,0.0
4260,73.0,48,120,3.0,0.0
4261,53.0,0,40,12.0,0.0
4262,61.0,60,40,11.0,0.0
4263,65.0,0,40,10.0,0.0
4264,58.0,0,40,12.0,0.0
4265,61.0,0,40,11.0,0.0
4266,65.0,12,40,10.0,0.0
4267,58.0,0,40,12.0,0.0
4268,53.0,0,40,12.0,0.0
4269,53.0,48,40,12.0,0.0
4270,61.0,0,40,11.0,0.0
4271,70.0,12,90,3.0,0.0
4272,65.0,0,40,10.0,0.0
4273,58.0,0,40,12.0,0.0
4274,61.0,60,40,11.0,0.0
4275,53.0,0,40,12.0,0.0
4276,58.0,0,40,12.0,0.0
4277,65.0,0,40,10.0,0.0
4278,65.0,24,40,10.0,0.0
4279,58.0,0,40,12.0,0.0
4280,53.0,0,40,12.0,0.0
4281,61.0,0,40,11.0,0.0
4282,53.0,0,40,12.0,0.0
4283,65.0,0,40,10.0,0.0
4284,61.0,60,40,11.0,0.0
4285,58.0,0,40,12.0,0.0
4286,65.0,0,40,10.0,0.0
4287,47.0,24,660,4.0,0.0
4288,89.0,0,90,0.0,0.0
4289,62.0,48,40,11.0,0.0
4290,77.0,48,120,2.0,0.0
4291,31.0,0,90,14.0,0.0
4292,43.0,12,90,13.0,0.0
4293,59.0,0,40,12.0,0.0
4294,53.0,0,40,12.0,0.0
4295,53.0,0,40,12.0,0.0
4296,59.0,0,40,12.0,0.0
4297,62.0,0,40,11.0,0.0
4298,65.0,12,40,10.0,0.0
4299,59.0,0,40,12.0,0.0
4300,65.0,0,40,10.0,0.0
4301,53.0,0,40,12.0,0.0
4302,91.0,12,90,0.0,0.0
4303,79.0,48,120,2.0,0.0
4304,62.0,48,40,11.0,0.0
4305,62.0,0,40,11.0,0.0
4306,59.0,12,40,12.0,0.0
4307,53.0,0,40,12.0,0.0
4308,65.0,0,40,10.0,0.0
4309,53.0,0,40,12.0,0.0
4310,89.0,12,90,0.0,0.0
4311,59.0,0,40,12.0,0.0
4312,77.0,48,120,2.0,0.0
4313,65.0,0,40,10.0,0.0
4314,62.0,48,40,11.0,0.0
4315,65.0,12,40,10.0,0.0
4316,62.0,0,40,11.0,0.0
4317,59.0,0,40,12.0,0.0
4318,53.0,0,40,12.0,0.0
4319,53.0,0,40,12.0,0.0
4320,65.0,0,40,10.0,0.0
4321,62.0,60,40,11.0,0.0
4322,71.0,0,120,3.0,0.0
4323,59.0,0,40,12.0,0.0
4324,62.0,0,40,11.0,0.0
4325,53.0,0,40,12.0,0.0
4326,59.0,0,40,12.0,0.0
4327,65.0,12,40,10.0,0.0
4328,65.0,0,40,10.0,0.0
4329,62.0,0,40,11.0,0.0
4330,59.0,60,40,12.0,0.0
4331,53.0,0,40,12.0,0.0
4332,74.0,48,15,3.0,0.0
4333,77.0,0,120,3.0,0.0
4334,62.0,0,40,11.0,0.0
4335,65.0,12,40,10.0,0.0
4336,59.0,0,40,12.0,0.0
4337,53.0,0,40,12.0,0.0
4338,65.0,24,40,10.0,0.0
4339,74.0,48,15,3.0,0.0
4340,53.0,0,40,12.0,0.0
4341,59.0,0,40,12.0,0.0
4342,71.0,12,90,3.0,0.0
4343,62.0,0,40,11.0,0.0
4344,62.0,0,40,11.0,0.0
4345,65.0,0,40,10.0,0.0
4346,59.0,0,40,12.0,0.0
4347,53.0,60,40,12.0,0.0
4348,67.0,0,1020,6.0,0.0
4349,60.0,0,40,11.0,0.0
4350,75.0,0,1080,2.0,0.0
4351,55.0,60,40,12.0,0.0
4352,55.0,0,120,13.0,0.0
4353,43.0,48,120,14.0,0.0
4354,55.0,36,1020,6.0,0.0
4355,79.0,0,1080,2.0,0.0
4356,60.0,12,40,11.0,0.0
4357,56.0,0,40,12.0,0.0
4358,60.0,12,90,11.0,0.0
4359,56.0,48,120,13.0,0.0
4360,44.0,0,120,14.0,0.0
4361,55.0,48,40,12.0,0.0
4362,56.0,12,40,12.0,0.0
4363,55.0,60,40,12.0,0.0
4364,55.0,48,120,13.0,0.0
4365,43.0,0,120,14.0,0.0
4366,56.0,0,40,12.0,0.0
4367,60.0,12,40,11.0,0.0
4368,39.0,48,120,14.0,0.0
4369,51.0,0,120,13.0,0.0
4370,60.0,60,40,11.0,0.0
4371,55.0,0,40,12.0,0.0
4372,56.0,0,40,12.0,0.0
4373,62.0,12,40,11.0,0.0
4374,63.0,12,90,11.0,0.0
4375,36.0,0,120,14.0,0.0
4376,55.0,48,40,12.0,0.0
4377,48.0,48,120,13.0,0.0
4378,56.0,12,40,12.0,0.0
4379,44.0,0,120,13.0,0.0
4380,32.0,48,120,14.0,0.0
4381,55.0,60,40,12.0,0.0
4382,63.0,0,40,11.0,0.0
4383,56.0,12,40,12.0,0.0
4384,43.0,48,120,13.0,0.0
4385,63.0,60,40,11.0,0.0
4386,55.0,0,40,12.0,0.0
4387,31.0,0,120,14.0,0.0
4388,65.0,0,40,11.0,0.0
4389,56.0,12,40,12.0,0.0
4390,67.0,12,90,11.0,0.0
4391,55.0,48,40,12.0,0.0
4392,27.0,0,120,14.0,0.0
4393,39.0,48,120,13.0,0.0
4394,56.0,12,40,12.0,0.0
4395,39.0,0,120,14.0,0.0
4396,51.0,48,120,13.0,0.0
4397,55.0,24,40,12.0,0.0
4398,56.0,12,40,12.0,0.0
4399,67.0,0,40,11.0,0.0
4400,36.0,0,120,14.0,0.0
4401,84.0,12,90,2.0,0.0
4402,55.0,0,40,12.0,0.0
4403,67.0,0,210,6.0,0.0
4404,67.0,48,40,11.0,0.0
4405,55.0,0,210,6.0,0.0
4406,48.0,48,120,13.0,0.0
4407,75.0,0,120,2.0,0.0
4408,68.0,12,40,11.0,0.0
4409,56.0,0,40,12.0,0.0
4410,59.0,0,90,11.0,0.0
4411,31.0,0,90,14.0,0.0
4412,83.0,0,90,2.0,0.0
4413,74.0,12,90,2.0,0.0
4414,55.0,48,40,12.0,0.0
4415,43.0,0,90,13.0,0.0
4416,56.0,60,40,12.0,0.0
4417,55.0,60,40,12.0,0.0
4418,59.0,0,40,11.0,0.0
4419,56.0,60,40,12.0,0.0
4420,55.0,36,1020,6.0,0.0
4421,67.0,0,1020,6.0,0.0
4422,55.0,0,120,13.0,0.0
4423,43.0,48,120,14.0,0.0
4424,59.0,48,40,11.0,0.0
4425,71.0,0,90,2.0,0.0
4426,79.0,12,90,2.0,0.0
4427,55.0,0,40,12.0,0.0
4428,56.0,12,40,12.0,0.0
4429,60.0,0,40,11.0,0.0
4430,71.0,48,960,2.0,0.0
4431,56.0,0,120,13.0,0.0
4432,44.0,48,120,14.0,0.0
4433,61.0,0,90,11.0,0.0
4434,71.0,12,90,10.0,0.0
4435,55.0,48,40,12.0,0.0
4436,79.0,0,960,2.0,0.0
4437,56.0,12,40,12.0,0.0
4438,55.0,60,40,12.0,0.0
4439,55.0,48,120,13.0,0.0
4440,43.0,0,120,14.0,0.0
4441,56.0,0,40,12.0,0.0
4442,71.0,12,40,10.0,0.0
4443,71.0,0,40,10.0,0.0
4444,41.0,0,120,14.0,0.0
4445,53.0,48,120,13.0,0.0
4446,55.0,60,40,12.0,0.0
4447,72.0,12,40,10.0,0.0
4448,56.0,0,40,12.0,0.0
4449,55.0,48,40,12.0,0.0
4450,38.0,0,120,14.0,0.0
4451,50.0,48,120,13.0,0.0
4452,74.0,12,90,10.0,0.0
4453,56.0,12,40,12.0,0.0
4454,47.0,48,120,13.0,0.0
4455,35.0,0,120,14.0,0.0
4456,55.0,60,40,12.0,0.0
4457,74.0,0,40,10.0,0.0
4458,56.0,12,40,12.0,0.0
4459,75.0,0,40,10.0,0.0
4460,43.0,0,120,14.0,0.0
4461,55.0,48,120,13.0,0.0
4462,55.0,60,40,12.0,0.0
4463,56.0,12,40,12.0,0.0
4464,77.0,0,40,10.0,0.0
4465,41.0,0,120,14.0,0.0
4466,77.0,12,90,10.0,0.0
4467,55.0,48,40,12.0,0.0
4468,53.0,48,120,13.0,0.0
4469,56.0,12,40,12.0,0.0
4470,38.0,0,120,14.0,0.0
4471,50.0,0,120,13.0,0.0
4472,55.0,24,40,12.0,0.0
4473,56.0,0,40,12.0,0.0
4474,74.0,12,40,10.0,0.0
4475,75.0,48,40,10.0,0.0
4476,55.0,0,90,12.0,0.0
4477,55.0,0,90,6.0,0.0
4478,67.0,0,90,6.0,0.0
4479,77.0,12,90,2.0,0.0
4480,47.0,0,90,13.0,0.0
4481,35.0,0,90,14.0,0.0
4482,86.0,0,90,2.0,0.0
4483,77.0,60,40,10.0,0.0
4484,55.0,12,300,4.0,0.0
4485,71.0,0,300,3.0,0.0
4486,79.0,0,300,2.0,0.0
4487,65.0,0,300,3.0,0.0
4488,77.0,72,40,10.0,0.0
4489,62.0,0,300,4.0,0.0
4490,65.0,60,60,10.0,0.0
4491,67.0,60,60,10.0,0.0
4492,65.0,48,60,10.0,0.0
4493,63.0,48,60,10.0,0.0
4494,62.0,132,40,10.0,0.0
4495,79.0,0,300,2.0,0.0
4496,71.0,0,300,3.0,0.0
4497,65.0,12,300,3.0,0.0
4498,62.0,0,300,4.0,0.0
4499,55.0,0,300,4.0,0.0
4500,65.0,60,60,10.0,0.0
4501,67.0,60,60,10.0,0.0
4502,65.0,48,60,10.0,0.0
4503,63.0,48,60,10.0,0.0
4504,62.0,132,40,10.0,0.0
4505,79.0,0,660,2.0,0.0
4506,71.0,48,660,3.0,0.0
4507,55.0,0,660,4.0,0.0
4508,62.0,0,660,4.0,0.0
4509,65.0,0,660,3.0,0.0
4510,65.0,60,60,10.0,0.0
4511,67.0,60,60,10.0,0.0
4512,65.0,60,60,10.0,0.0
4513,63.0,60,60,10.0,0.0
4514,62.0,60,60,10.0,0.0
4515,67.0,60,60,10.0,0.0
4516,65.0,60,60,10.0,0.0
4517,63.0,60,60,10.0,0.0
4518,62.0,48,60,10.0,0.0
4519,67.0,120,90,10.0,0.0
4520,36.0,0,300,4.0,0.0
4521,67.0,24,90,6.0,0.0
4522,84.0,0,300,0.0,0.0
4523,48.0,0,300,4.0,0.0
4524,67.0,0,300,3.0,0.0
4525,70.0,0,300,3.0,0.0
4526,76.0,12,300,2.0,0.0
4527,70.0,60,60,10.0,0.0
4528,58.0,0,60,12.0,0.0
4529,60.0,0,60,12.0,0.0
4530,72.0,60,60,10.0,0.0
4531,58.0,48,60,12.0,0.0
4532,70.0,0,60,10.0,0.0
4533,68.0,48,60,10.0,0.0
4534,56.0,0,60,12.0,0.0
4535,55.0,0,40,12.0,0.0
4536,67.0,108,40,10.0,0.0
4537,70.0,0,300,3.0,0.0
4538,84.0,0,300,0.0,0.0
4539,76.0,0,300,2.0,0.0
4540,67.0,0,300,3.0,0.0
4541,48.0,0,300,4.0,0.0
4542,36.0,12,300,4.0,0.0
4543,67.0,24,90,6.0,0.0
4544,70.0,60,60,10.0,0.0
4545,58.0,0,60,12.0,0.0
4546,60.0,0,60,12.0,0.0
4547,72.0,60,60,10.0,0.0
4548,70.0,0,60,10.0,0.0
4549,58.0,48,60,12.0,0.0
4550,56.0,48,60,12.0,0.0
4551,68.0,0,60,10.0,0.0
4552,67.0,0,40,10.0,0.0
4553,55.0,132,40,12.0,0.0
4554,84.0,3,1320,0.0,0.0
4555,76.0,33,1260,2.0,0.0
4556,67.0,0,1260,6.0,0.0
4557,48.0,0,1320,4.0,0.0
4558,36.0,0,1320,4.0,0.0
4559,67.0,0,1260,3.0,0.0
4560,70.0,0,1260,3.0,0.0
4561,70.0,60,60,10.0,0.0
4562,58.0,0,60,12.0,0.0
4563,60.0,0,60,12.0,0.0
4564,72.0,60,60,10.0,0.0
4565,70.0,0,60,10.0,0.0
4566,58.0,60,60,12.0,0.0
4567,68.0,48,60,10.0,0.0
4568,56.0,0,60,12.0,0.0
4569,55.0,72,40,12.0,0.0
4570,67.0,0,40,10.0,0.0
4571,60.0,60,60,12.0,0.0
4572,72.0,0,60,10.0,0.0
4573,58.0,0,60,12.0,0.0
4574,70.0,60,60,10.0,0.0
4575,56.0,0,60,12.0,0.0
4576,68.0,60,60,10.0,0.0
4577,67.0,60,60,10.0,0.0
4578,55.0,0,60,12.0,0.0
4579,60.0,0,60,12.0,0.0
4580,72.0,48,60,10.0,0.0
4581,60.0,0,60,13.0,0.0
4582,58.0,0,40,12.0,0.0
4583,58.0,60,60,13.0,0.0
4584,70.0,12,40,10.0,0.0
4585,68.0,60,60,10.0,0.0
4586,56.0,0,60,12.0,0.0
4587,56.0,0,60,13.0,0.0
4588,67.0,0,60,10.0,0.0
4589,55.0,0,60,13.0,0.0
4590,55.0,60,60,12.0,0.0
4591,72.0,60,60,10.0,0.0
4592,60.0,0,60,13.0,0.0
4593,60.0,0,60,12.0,0.0
4594,70.0,0,60,10.0,0.0
4595,58.0,60,60,13.0,0.0
4596,58.0,0,60,12.0,0.0
4597,68.0,0,60,10.0,0.0
4598,56.0,0,60,13.0,0.0
4599,56.0,48,60,12.0,0.0
4600,55.0,0,40,12.0,0.0
4601,67.0,0,40,10.0,0.0
4602,55.0,72,40,13.0,0.0
4603,72.0,0,60,10.0,0.0
4604,60.0,0,60,12.0,0.0
4605,60.0,60,60,13.0,0.0
4606,58.0,0,60,13.0,0.0
4607,70.0,60,60,10.0,0.0
4608,58.0,0,60,12.0,0.0
4609,56.0,0,60,13.0,0.0
4610,68.0,12,60,10.0,0.0
4611,56.0,0,60,12.0,0.0
4612,55.0,0,40,12.0,0.0
4613,55.0,60,40,13.0,0.0
4614,67.0,0,40,10.0,0.0
4615,68.0,0,40,11.0,0.0
4616,65.0,48,40,12.0,0.0
4617,72.0,12,930,10.0,0.0
4618,77.0,0,90,2.0,0.0
4619,29.0,12,90,14.0,0.0
4620,68.0,0,90,3.0,0.0
4621,72.0,0,90,3.0,0.0
4622,65.0,0,90,6.0,0.0
4623,41.0,0,90,4.0,0.0
4624,53.0,0,90,4.0,0.0
4625,60.0,48,120,13.0,0.0
4626,84.0,0,90,0.0,0.0
4627,68.0,0,40,11.0,0.0
4628,65.0,12,40,12.0,0.0
4629,68.0,48,40,11.0,0.0
4630,61.0,48,120,13.0,0.0
4631,72.0,0,90,3.0,0.0
4632,80.0,0,90,2.0,0.0
4633,77.0,0,90,2.0,0.0
4634,41.0,12,90,4.0,0.0
4635,53.0,0,90,4.0,0.0
4636,68.0,0,90,3.0,0.0
4637,48.0,0,90,5.0,0.0
4638,60.0,0,90,5.0,0.0
4639,84.0,0,90,0.0,0.0
4640,65.0,0,40,12.0,0.0
4641,29.0,0,90,14.0,0.0
4642,65.0,12,40,12.0,0.0
4643,68.0,0,40,11.0,0.0
4644,72.0,0,90,3.0,0.0
4645,68.0,0,90,3.0,0.0
4646,29.0,0,90,14.0,0.0
4647,41.0,0,90,4.0,0.0
4648,53.0,0,90,4.0,0.0
4649,68.0,0,40,11.0,0.0
4650,65.0,0,90,6.0,0.0
4651,84.0,12,90,0.0,0.0
4652,65.0,48,40,12.0,0.0
4653,60.0,48,120,13.0,0.0
4654,80.0,0,90,2.0,0.0
4655,48.0,0,90,5.0,0.0
4656,77.0,0,90,2.0,0.0
4657,60.0,0,90,5.0,0.0
4658,65.0,0,40,12.0,0.0
4659,68.0,12,40,11.0,0.0
4660,68.0,0,40,11.0,0.0
4661,56.0,48,120,13.0,0.0
4662,65.0,60,40,12.0,0.0
4663,68.0,12,40,11.0,0.0
4664,65.0,0,40,12.0,0.0
4665,65.0,60,40,12.0,0.0
4666,68.0,0,40,11.0,0.0
4667,53.0,48,120,13.0,0.0
4668,68.0,0,40,11.0,0.0
4669,65.0,12,40,12.0,0.0
4670,41.0,0,90,4.0,0.0
4671,49.0,48,120,13.0,0.0
4672,68.0,0,40,11.0,0.0
4673,72.0,0,90,3.0,0.0
4674,53.0,0,90,4.0,0.0
4675,65.0,48,40,12.0,0.0
4676,68.0,0,90,3.0,0.0
4677,80.0,0,90,2.0,0.0
4678,77.0,0,90,2.0,0.0
4679,84.0,0,90,0.0,0.0
4680,65.0,12,90,6.0,0.0
4681,29.0,0,90,14.0,0.0
4682,60.0,0,90,5.0,0.0
4683,48.0,0,90,5.0,0.0
4684,65.0,0,40,12.0,0.0
4685,68.0,12,40,11.0,0.0
4686,48.0,48,120,13.0,0.0
4687,65.0,60,40,12.0,0.0
4688,68.0,0,40,11.0,0.0
4689,68.0,0,40,11.0,0.0
4690,65.0,12,40,12.0,0.0
4691,44.0,48,120,13.0,0.0
4692,65.0,48,40,12.0,0.0
4693,68.0,0,40,11.0,0.0
4694,65.0,12,40,12.0,0.0
4695,68.0,0,40,11.0,0.0
4696,65.0,48,40,12.0,0.0
4697,65.0,0,90,6.0,0.0
4698,48.0,0,90,5.0,0.0
4699,60.0,0,90,5.0,0.0
4700,53.0,0,90,4.0,0.0
4701,41.0,0,90,4.0,0.0
4702,65.0,0,90,3.0,0.0
4703,80.0,0,90,2.0,0.0
4704,72.0,0,120,10.0,0.0
4705,29.0,0,90,14.0,0.0
4706,68.0,0,90,3.0,0.0
4707,84.0,0,90,0.0,0.0
4708,41.0,48,120,13.0,0.0
4709,68.0,0,40,11.0,0.0
4710,77.0,12,90,2.0,0.0
4711,65.0,0,40,12.0,0.0
4712,68.0,12,40,11.0,0.0
4713,71.0,60,40,11.0,0.0
4714,77.0,48,240,10.0,0.0
4715,37.0,48,120,13.0,0.0
4716,65.0,0,40,12.0,0.0
4717,71.0,12,40,11.0,0.0
4718,65.0,0,40,12.0,0.0
4719,67.0,0,40,12.0,0.0
4720,36.0,12,90,13.0,0.0
4721,72.0,48,40,11.0,0.0
4722,67.0,0,40,12.0,0.0
4723,72.0,12,40,11.0,0.0
4724,67.0,48,40,12.0,0.0
4725,84.0,0,90,0.0,0.0
4726,82.0,0,90,2.0,0.0
4727,79.0,0,90,2.0,0.0
4728,36.0,0,90,14.0,0.0
4729,76.0,0,90,10.0,0.0
4730,67.0,0,90,3.0,0.0
4731,55.0,12,90,4.0,0.0
4732,70.0,0,90,3.0,0.0
4733,48.0,0,90,5.0,0.0
4734,72.0,0,40,11.0,0.0
4735,60.0,0,90,5.0,0.0
4736,58.0,0,90,4.0,0.0
4737,72.0,0,40,11.0,0.0
4738,67.0,60,40,12.0,0.0
4739,67.0,60,40,11.0,0.0
4740,60.0,48,120,13.0,0.0
4741,70.0,0,40,11.0,0.0
4742,72.0,12,930,10.0,0.0
4743,64.0,0,40,12.0,0.0
4744,67.0,12,40,11.0,0.0
4745,70.0,0,40,11.0,0.0
4746,64.0,0,40,12.0,0.0
4747,64.0,0,40,12.0,0.0
4748,61.0,48,120,13.0,0.0
4749,67.0,0,40,11.0,0.0
4750,70.0,60,40,11.0,0.0
4751,70.0,12,40,11.0,0.0
4752,64.0,0,40,12.0,0.0
4753,67.0,0,40,11.0,0.0
4754,60.0,48,120,13.0,0.0
4755,36.0,0,90,14.0,0.0
4756,64.0,0,40,12.0,0.0
4757,58.0,0,90,4.0,0.0
4758,76.0,12,90,2.0,0.0
4759,79.0,0,90,2.0,0.0
4760,48.0,0,90,5.0,0.0
4761,70.0,48,40,11.0,0.0
4762,70.0,0,90,3.0,0.0
4763,67.0,0,90,3.0,0.0
4764,60.0,0,90,5.0,0.0
4765,55.0,0,90,4.0,0.0
4766,84.0,0,90,0.0,0.0
4767,67.0,0,40,11.0,0.0
4768,64.0,12,40,12.0,0.0
4769,67.0,0,40,11.0,0.0
4770,70.0,0,40,11.0,0.0
4771,67.0,60,40,11.0,0.0
4772,64.0,0,40,12.0,0.0
4773,70.0,0,40,11.0,0.0
4774,58.0,48,120,13.0,0.0
4775,64.0,12,40,12.0,0.0
4776,67.0,0,40,11.0,0.0
4777,70.0,0,40,11.0,0.0
4778,70.0,0,40,11.0,0.0
4779,67.0,0,40,11.0,0.0
4780,55.0,48,120,13.0,0.0
4781,64.0,60,40,12.0,0.0
4782,67.0,12,40,11.0,0.0
4783,70.0,0,40,11.0,0.0
4784,64.0,0,40,12.0,0.0
4785,70.0,0,90,3.0,0.0
4786,67.0,12,90,3.0,0.0
4787,84.0,0,90,0.0,0.0
4788,60.0,0,90,5.0,0.0
4789,48.0,0,90,5.0,0.0
4790,79.0,0,90,2.0,0.0
4791,58.0,0,90,4.0,0.0
4792,55.0,0,90,4.0,0.0
4793,76.0,0,90,2.0,0.0
4794,36.0,0,90,14.0,0.0
4795,52.0,48,120,13.0,0.0
4796,64.0,0,40,12.0,0.0
4797,70.0,0,40,11.0,0.0
4798,67.0,48,40,11.0,0.0
4799,67.0,12,40,11.0,0.0
4800,70.0,0,40,11.0,0.0
4801,64.0,0,40,12.0,0.0
4802,49.0,48,120,13.0,0.0
4803,64.0,0,40,12.0,0.0
4804,67.0,60,40,11.0,0.0
4805,70.0,0,40,11.0,0.0
4806,67.0,12,40,11.0,0.0
4807,64.0,0,40,12.0,0.0
4808,70.0,0,40,11.0,0.0
4809,64.0,0,40,12.0,0.0
4810,48.0,48,120,13.0,0.0
4811,70.0,48,40,11.0,0.0
4812,67.0,0,40,11.0,0.0
4813,67.0,0,40,11.0,0.0
4814,70.0,0,40,11.0,0.0
4815,64.0,12,40,12.0,0.0
4816,72.0,48,120,10.0,0.0
4817,46.0,0,120,13.0,0.0
4818,70.0,0,40,11.0,0.0
4819,67.0,0,40,11.0,0.0
4820,79.0,0,90,2.0,0.0
4821,76.0,0,90,2.0,0.0
4822,84.0,0,90,0.0,0.0
4823,36.0,0,90,14.0,0.0
4824,55.0,12,90,4.0,0.0
4825,58.0,0,90,4.0,0.0
4826,70.0,0,90,3.0,0.0
4827,67.0,0,90,3.0,0.0
4828,48.0,0,90,5.0,0.0
4829,60.0,0,90,5.0,0.0
4830,64.0,48,40,12.0,0.0
4831,67.0,12,40,11.0,0.0
4832,70.0,0,40,11.0,0.0
4833,64.0,0,40,12.0,0.0
4834,76.0,48,120,10.0,0.0
4835,43.0,48,60,13.0,0.0
4836,64.0,12,40,12.0,0.0
4837,67.0,0,40,11.0,0.0
4838,70.0,0,40,11.0,0.0
4839,67.0,0,40,11.0,0.0
4840,70.0,0,40,11.0,0.0
4841,64.0,0,40,12.0,0.0
4842,40.0,12,40,13.0,0.0
4843,64.0,0,40,12.0,0.0
4844,70.0,60,40,11.0,0.0
4845,79.0,48,120,10.0,0.0
4846,36.0,0,120,13.0,0.0
4847,70.0,0,40,11.0,0.0
4848,64.0,12,40,12.0,0.0
4849,29.0,0,90,14.0,0.0
4850,68.0,48,40,11.0,0.0
4851,72.0,0,90,3.0,0.0
4852,68.0,0,90,3.0,0.0
4853,56.0,0,90,4.0,0.0
4854,80.0,0,90,2.0,0.0
4855,77.0,0,90,2.0,0.0
4856,77.0,0,90,10.0,0.0
4857,41.0,0,90,13.0,0.0
4858,53.0,0,90,4.0,0.0
4859,65.0,0,40,12.0,0.0
4860,84.0,12,90,0.0,0.0
4861,65.0,0,40,12.0,0.0
4862,68.0,132,40,11.0,0.0
4863,77.0,144,120,10.0,0.0
4864,29.0,0,570,5.0,0.0
4865,53.0,0,270,12.0,0.0
4866,53.0,84,270,13.0,0.0
4867,29.0,0,120,14.0,0.0
4868,41.0,0,570,5.0,0.0
4869,65.0,120,570,11.0,0.0
4870,34.0,0,300,14.0,0.0
4871,75.0,48,240,10.0,0.0
4872,53.0,12,40,12.0,0.0
4873,53.0,0,40,13.0,0.0
4874,73.0,96,120,10.0,0.0
4875,53.0,60,40,13.0,0.0
4876,53.0,0,40,12.0,0.0
4877,55.0,12,40,13.0,0.0
4878,55.0,0,40,12.0,0.0
4879,56.0,0,90,13.0,0.0
4880,72.0,0,90,10.0,0.0
4881,27.0,0,90,14.0,0.0
4882,56.0,0,90,12.0,0.0
4883,84.0,120,120,0.0,0.0
4884,53.0,24,90,13.0,0.0
4885,53.0,0,90,12.0,0.0
4886,77.0,0,120,2.0,0.0
4887,65.0,0,570,6.0,0.0
4888,77.0,0,570,0.0,0.0
4889,56.0,0,120,3.0,0.0
4890,60.0,0,120,3.0,0.0
4891,89.0,0,120,0.0,0.0
4892,53.0,0,570,12.0,0.0
4893,77.0,84,270,10.0,0.0
4894,65.0,0,270,11.0,0.0
4895,53.0,0,570,13.0,0.0
4896,53.0,144,120,4.0,0.0
4897,87.0,48,240,0.0,0.0
4898,75.0,0,240,2.0,0.0
4899,58.0,0,360,3.0,0.0
4900,61.0,0,360,3.0,0.0
4901,58.0,0,360,4.0,0.0
4902,65.0,0,40,11.0,0.0
4903,77.0,12,40,10.0,0.0
4904,77.0,0,40,10.0,0.0
4905,85.0,0,120,0.0,0.0
4906,65.0,60,40,11.0,0.0
4907,73.0,96,120,2.0,0.0
4908,79.0,0,40,10.0,0.0
4909,67.0,12,40,11.0,0.0
4910,72.0,0,90,2.0,0.0
4911,84.0,0,90,0.0,0.0
4912,68.0,24,90,11.0,0.0
4913,53.0,0,90,4.0,0.0
4914,80.0,96,120,10.0,0.0
4915,60.0,0,90,3.0,0.0
4916,56.0,0,90,3.0,0.0
4917,77.0,0,90,10.0,0.0
4918,65.0,144,90,11.0,0.0
4919,53.0,84,270,12.0,0.0
4920,29.0,144,120,14.0,0.0
4921,41.0,0,570,5.0,0.0
4922,65.0,0,570,11.0,0.0
4923,53.0,0,270,13.0,0.0
4924,29.0,12,570,5.0,0.0
4925,77.0,0,120,10.0,0.0
4926,75.0,48,240,10.0,0.0
4927,34.0,0,300,14.0,0.0
4928,53.0,0,40,13.0,0.0
4929,53.0,12,40,12.0,0.0
4930,73.0,48,120,10.0,0.0
4931,53.0,60,40,13.0,0.0
4932,53.0,0,40,12.0,0.0
4933,55.0,0,40,12.0,0.0
4934,55.0,12,40,13.0,0.0
4935,29.0,0,40,14.0,0.0
4936,80.0,0,90,0.0,0.0
4937,41.0,0,90,4.0,0.0
4938,72.0,0,90,2.0,0.0
4939,68.0,0,90,3.0,0.0
4940,84.0,0,90,0.0,0.0
4941,56.0,48,40,13.0,0.0
4942,56.0,0,90,12.0,0.0
4943,72.0,0,90,10.0,0.0
4944,36.0,0,40,14.0,0.0
4945,48.0,120,40,13.0,0.0
4946,48.0,36,180,13.0,0.0
4947,36.0,0,180,14.0,0.0
4948,77.0,0,40,10.0,0.0
4949,68.0,0,40,11.0,0.0
4950,65.0,60,40,12.0,0.0
4951,65.0,0,40,12.0,0.0
4952,68.0,24,40,11.0,0.0
4953,77.0,0,40,10.0,0.0
4954,60.0,0,40,12.0,0.0
4955,67.0,0,40,11.0,0.0
4956,76.0,60,40,10.0,0.0
4957,48.0,0,40,13.0,0.0
4958,60.0,12,90,12.0,0.0
4959,67.0,0,90,11.0,0.0
4960,76.0,0,90,10.0,0.0
4961,36.0,48,40,14.0,0.0
4962,36.0,0,40,14.0,0.0
4963,48.0,108,40,13.0,0.0
4964,67.0,12,90,2.0,0.0
4965,76.0,0,90,2.0,0.0
4966,48.0,0,180,13.0,0.0
4967,60.0,0,90,5.0,0.0
4968,36.0,36,180,14.0,0.0
4969,48.0,0,90,5.0,0.0
4970,79.0,0,40,10.0,0.0
4971,64.0,60,40,12.0,0.0
4972,70.0,0,40,11.0,0.0
4973,70.0,24,40,11.0,0.0
4974,79.0,0,40,10.0,0.0
4975,64.0,0,40,12.0,0.0
4976,65.0,60,40,12.0,0.0
4977,68.0,0,40,11.0,0.0
4978,77.0,0,40,10.0,0.0
4979,36.0,0,40,14.0,0.0
4980,65.0,48,40,12.0,0.0
4981,68.0,12,90,11.0,0.0
4982,48.0,0,40,13.0,0.0
4983,77.0,0,90,10.0,0.0
4984,60.0,108,40,12.0,0.0
4985,48.0,0,40,13.0,0.0
4986,36.0,0,40,14.0,0.0
4987,60.0,0,90,5.0,0.0
4988,36.0,36,180,14.0,0.0
4989,60.0,0,180,12.0,0.0
4990,68.0,0,90,2.0,0.0
4991,48.0,0,90,5.0,0.0
4992,48.0,0,180,13.0,0.0
4993,77.0,12,90,2.0,0.0
4994,80.0,60,40,10.0,0.0
4995,77.0,0,40,11.0,0.0
4996,77.0,24,40,11.0,0.0
4997,80.0,0,40,10.0,0.0
4998,76.0,0,40,11.0,0.0
4999,79.0,60,40,10.0,0.0
5000,60.0,0,40,12.0,0.0
5001,48.0,48,40,13.0,0.0
5002,76.0,12,90,11.0,0.0
5003,36.0,0,40,14.0,0.0
5004,79.0,0,90,10.0,0.0
5005,48.0,108,40,13.0,0.0
5006,60.0,0,40,12.0,0.0
5007,36.0,0,40,14.0,0.0
5008,60.0,0,180,12.0,0.0
5009,36.0,0,180,14.0,0.0
5010,60.0,0,90,5.0,0.0
5011,76.0,0,90,2.0,0.0
5012,79.0,0,90,2.0,0.0
5013,48.0,36,180,13.0,0.0
5014,48.0,12,90,5.0,0.0
5015,82.0,60,40,10.0,0.0
5016,79.0,0,40,11.0,0.0
5017,79.0,0,40,11.0,0.0
5018,82.0,24,40,10.0,0.0
5019,77.0,0,40,11.0,0.0
5020,80.0,60,40,10.0,0.0
5021,36.0,48,40,14.0,0.0
5022,80.0,0,90,10.0,0.0
5023,60.0,0,40,12.0,0.0
5024,48.0,0,40,13.0,0.0
5025,77.0,12,90,11.0,0.0
5026,60.0,108,40,12.0,0.0
5027,48.0,0,40,13.0,0.0
5028,36.0,0,40,14.0,0.0
5029,60.0,36,180,12.0,0.0
5030,77.0,0,90,2.0,0.0
5031,48.0,0,180,13.0,0.0
5032,48.0,0,90,5.0,0.0
5033,60.0,0,90,5.0,0.0
5034,36.0,0,180,14.0,0.0
5035,80.0,12,90,2.0,0.0
5036,84.0,0,40,10.0,0.0
5037,80.0,60,40,11.0,0.0
5038,84.0,0,40,10.0,0.0
5039,80.0,24,40,11.0,0.0
5040,79.0,0,40,11.0,0.0
5041,82.0,60,40,10.0,0.0
5042,79.0,12,90,11.0,0.0
5043,36.0,0,1020,13.0,0.0
5044,58.0,0,1380,12.0,0.0
5045,48.0,0,1380,12.0,0.0
5046,48.0,24,1020,13.0,0.0
5047,82.0,0,90,10.0,0.0
5048,36.0,48,40,14.0,0.0
5049,36.0,108,40,14.0,0.0
5050,48.0,0,90,5.0,0.0
5051,36.0,36,180,14.0,0.0
5052,60.0,0,90,5.0,0.0
5053,82.0,12,90,2.0,0.0
5054,70.0,0,90,3.0,0.0
5055,79.0,0,90,2.0,0.0
5056,67.0,0,90,3.0,0.0
5057,82.0,60,40,10.0,0.0
5058,70.0,0,40,11.0,0.0
5059,72.0,24,40,11.0,0.0
5060,84.0,0,40,10.0,0.0
5061,73.0,0,40,11.0,0.0
5062,85.0,60,40,10.0,0.0
5063,85.0,12,90,10.0,0.0
5064,34.0,48,40,14.0,0.0
5065,73.0,0,90,11.0,0.0
5066,34.0,108,40,14.0,0.0
5067,60.0,0,90,5.0,0.0
5068,48.0,12,90,5.0,0.0
5069,70.0,0,90,3.0,0.0
5070,67.0,0,90,3.0,0.0
5071,82.0,0,90,2.0,0.0
5072,79.0,0,90,2.0,0.0
5073,34.0,36,180,14.0,0.0
5074,79.0,0,40,10.0,0.0
5075,67.0,60,40,11.0,0.0
5076,80.0,24,40,10.0,0.0
5077,68.0,0,40,11.0,0.0
5078,70.0,0,40,11.0,0.0
5079,82.0,60,40,10.0,0.0
5080,82.0,0,90,10.0,0.0
5081,70.0,12,90,11.0,0.0
5082,31.0,48,40,14.0,0.0
5083,31.0,108,40,14.0,0.0
5084,70.0,0,90,3.0,0.0
5085,48.0,0,90,5.0,0.0
5086,60.0,0,90,5.0,0.0
5087,82.0,12,90,2.0,0.0
5088,67.0,0,90,3.0,0.0
5089,79.0,0,90,2.0,0.0
5090,31.0,36,180,14.0,0.0
5091,64.0,60,40,11.0,0.0
5092,76.0,0,40,10.0,0.0
5093,77.0,0,40,10.0,0.0
5094,65.0,0,40,11.0,0.0
5095,79.0,0,40,10.0,0.0
5096,67.0,60,40,11.0,0.0
5097,79.0,0,90,10.0,0.0
5098,67.0,12,90,11.0,0.0
5099,40.0,0,300,13.0,0.0
5100,28.0,48,40,14.0,0.0
5101,28.0,108,40,14.0,0.0
5102,60.0,0,90,5.0,0.0
5103,48.0,0,90,5.0,0.0
5104,70.0,0,90,3.0,0.0
5105,82.0,0,90,2.0,0.0
5106,79.0,0,90,2.0,0.0
5107,67.0,12,90,3.0,0.0
5108,28.0,36,180,14.0,0.0
5109,67.0,60,40,11.0,0.0
5110,79.0,0,40,10.0,0.0
5111,68.0,0,40,11.0,0.0
5112,80.0,24,40,10.0,0.0
5113,70.0,0,40,11.0,0.0
5114,82.0,60,40,10.0,0.0
5115,48.0,0,1020,13.0,0.0
5116,82.0,0,90,10.0,0.0
5117,36.0,0,1020,13.0,0.0
5118,70.0,12,90,11.0,0.0
5119,36.0,48,40,14.0,0.0
5120,58.0,0,1380,12.0,0.0
5121,48.0,24,1380,12.0,0.0
5122,36.0,108,40,14.0,0.0
5123,36.0,36,180,14.0,0.0
5124,79.0,0,90,2.0,0.0
5125,64.0,0,90,4.0,0.0
5126,67.0,0,90,3.0,0.0
5127,76.0,0,90,0.0,0.0
5128,85.0,12,90,0.0,0.0
5129,82.0,0,90,2.0,0.0
5130,67.0,0,90,4.0,0.0
5131,70.0,0,90,3.0,0.0
5132,60.0,0,90,5.0,0.0
5133,48.0,0,90,5.0,0.0
5134,82.0,0,40,10.0,0.0
5135,70.0,60,40,11.0,0.0
5136,84.0,0,40,10.0,0.0
5137,72.0,24,40,11.0,0.0
5138,73.0,60,40,11.0,0.0
5139,85.0,0,40,10.0,0.0
5140,85.0,12,90,10.0,0.0
5141,34.0,48,40,14.0,0.0
5142,73.0,0,90,11.0,0.0
5143,34.0,108,40,14.0,0.0
5144,82.0,0,90,2.0,0.0
5145,34.0,36,180,14.0,0.0
5146,79.0,0,90,2.0,0.0
5147,67.0,0,90,3.0,0.0
5148,60.0,0,90,5.0,0.0
5149,48.0,12,90,5.0,0.0
5150,67.0,0,90,4.0,0.0
5151,64.0,0,90,4.0,0.0
5152,85.0,0,90,0.0,0.0
5153,76.0,0,90,0.0,0.0
5154,70.0,0,90,3.0,0.0
5155,79.0,0,40,10.0,0.0
5156,67.0,60,40,11.0,0.0
5157,80.0,0,40,10.0,0.0
5158,68.0,24,40,11.0,0.0
5159,82.0,0,40,10.0,0.0
5160,70.0,60,40,11.0,0.0
5161,70.0,0,90,11.0,0.0
5162,82.0,12,90,10.0,0.0
5163,31.0,48,40,14.0,0.0
5164,31.0,108,40,14.0,0.0
5165,79.0,0,90,2.0,0.0
5166,76.0,0,90,0.0,0.0
5167,85.0,0,90,0.0,0.0
5168,60.0,0,90,5.0,0.0
5169,64.0,0,90,4.0,0.0
5170,48.0,12,90,5.0,0.0
5171,82.0,0,90,2.0,0.0
5172,70.0,0,90,3.0,0.0
5173,67.0,0,90,3.0,0.0
5174,31.0,36,180,14.0,0.0
5175,67.0,0,90,4.0,0.0
5176,64.0,60,40,11.0,0.0
5177,76.0,0,40,10.0,0.0
5178,77.0,24,40,10.0,0.0
5179,65.0,0,40,11.0,0.0
5180,79.0,0,40,10.0,0.0
5181,67.0,60,40,11.0,0.0
5182,79.0,0,90,10.0,0.0
5183,28.0,48,40,14.0,0.0
5184,40.0,0,300,13.0,0.0
5185,67.0,12,90,11.0,0.0
5186,28.0,108,40,14.0,0.0
5187,70.0,0,90,3.0,0.0
5188,82.0,0,90,2.0,0.0
5189,76.0,0,90,0.0,0.0
5190,85.0,0,90,0.0,0.0
5191,79.0,0,90,2.0,0.0
5192,64.0,0,90,4.0,0.0
5193,67.0,12,90,4.0,0.0
5194,67.0,0,90,3.0,0.0
5195,60.0,0,90,5.0,0.0
5196,48.0,0,90,5.0,0.0
5197,28.0,36,180,14.0,0.0
5198,79.0,0,40,10.0,0.0
5199,67.0,60,40,11.0,0.0
5200,68.0,0,40,11.0,0.0
5201,80.0,0,40,10.0,0.0
5202,82.0,0,40,10.0,0.0
5203,70.0,60,40,11.0,0.0
5204,36.0,0,40,13.0,0.0
5205,70.0,12,90,11.0,0.0
5206,36.0,48,40,14.0,0.0
5207,58.0,103,1200,12.0,0.0
5208,82.0,0,90,10.0,0.0
5209,48.0,0,1200,12.0,0.0
5210,36.0,108,40,14.0,0.0
5211,36.0,0,40,13.0,0.0
5212,79.0,0,90,2.0,0.0
5213,67.0,0,90,4.0,0.0
5214,67.0,0,90,3.0,0.0
5215,82.0,0,90,2.0,0.0
5216,70.0,12,90,3.0,0.0
5217,64.0,0,90,4.0,0.0
5218,36.0,0,180,14.0,0.0
5219,76.0,0,90,0.0,0.0
5220,85.0,0,90,0.0,0.0
5221,36.0,36,180,13.0,0.0
5222,48.0,0,90,5.0,0.0
5223,60.0,0,90,5.0,0.0
5224,70.0,0,40,11.0,0.0
5225,82.0,60,40,10.0,0.0
5226,72.0,0,40,11.0,0.0
5227,84.0,24,40,10.0,0.0
5228,73.0,0,40,11.0,0.0
5229,85.0,60,40,10.0,0.0
5230,73.0,12,90,11.0,0.0
5231,85.0,0,90,10.0,0.0
5232,36.0,0,40,14.0,0.0
5233,36.0,48,40,13.0,0.0
5234,36.0,108,40,13.0,0.0
5235,36.0,0,40,14.0,0.0
5236,67.0,0,90,4.0,0.0
5237,36.0,36,180,14.0,0.0
5238,82.0,0,90,2.0,0.0
5239,79.0,0,90,2.0,0.0
5240,64.0,0,90,4.0,0.0
5241,85.0,0,90,0.0,0.0
5242,36.0,0,180,13.0,0.0
5243,76.0,0,90,0.0,0.0
5244,60.0,12,90,5.0,0.0
5245,67.0,0,90,3.0,0.0
5246,48.0,0,90,5.0,0.0
5247,70.0,0,90,3.0,0.0
5248,82.0,60,40,10.0,0.0
5249,70.0,0,40,11.0,0.0
5250,84.0,0,40,10.0,0.0
5251,72.0,24,40,11.0,0.0
5252,73.0,0,40,11.0,0.0
5253,85.0,60,40,10.0,0.0
5254,73.0,0,90,11.0,0.0
5255,85.0,12,90,10.0,0.0
5256,36.0,0,40,13.0,0.0
5257,36.0,48,40,14.0,0.0
5258,36.0,108,40,13.0,0.0
5259,36.0,0,40,14.0,0.0
5260,79.0,12,90,2.0,0.0
5261,60.0,0,90,5.0,0.0
5262,85.0,0,90,0.0,0.0
5263,76.0,0,90,0.0,0.0
5264,48.0,0,90,5.0,0.0
5265,67.0,0,90,3.0,0.0
5266,70.0,0,90,3.0,0.0
5267,64.0,0,90,4.0,0.0
5268,67.0,0,90,4.0,0.0
5269,36.0,0,180,13.0,0.0
5270,36.0,36,180,14.0,0.0
5271,82.0,0,90,2.0,0.0
5272,82.0,60,40,10.0,0.0
5273,70.0,0,40,11.0,0.0
5274,84.0,24,40,10.0,0.0
5275,72.0,0,40,11.0,0.0
5276,73.0,0,40,11.0,0.0
5277,85.0,108,40,10.0,0.0
5278,36.0,0,90,13.0,0.0
5279,73.0,0,90,11.0,0.0
5280,36.0,17,90,14.0,0.0
5281,85.0,0,90,10.0,0.0
5282,75.0,0,90,0.0,0.0
5283,64.0,0,90,4.0,0.0
5284,79.0,0,90,2.0,0.0
5285,82.0,0,90,2.0,0.0
5286,67.0,0,90,4.0,0.0
5287,84.0,0,90,0.0,0.0
5288,60.0,0,90,5.0,0.0
5289,67.0,84,90,3.0,0.0
5290,70.0,0,90,3.0,0.0
5291,48.0,0,90,5.0,0.0
5292,41.0,0,930,4.0,0.0
5293,65.0,0,930,6.0,0.0
5294,36.0,36,60,13.0,0.0
5295,84.0,0,120,10.0,0.0
5296,72.0,0,120,2.0,0.0
5297,48.0,0,60,12.0,0.0
5298,84.0,0,120,2.0,0.0
5299,68.0,0,930,6.0,0.0
5300,72.0,0,930,7.0,0.0
5301,48.0,0,930,5.0,0.0
5302,72.0,0,120,11.0,0.0
5303,41.0,24,90,8.0,0.0
5304,68.0,0,930,3.0,0.0
5305,29.0,0,930,14.0,0.0
5306,60.0,0,930,5.0,0.0
5307,60.0,24,930,7.0,0.0
5308,84.0,0,930,0.0,0.0
5309,89.0,0,930,0.0,0.0
5310,72.0,32,120,3.0,0.0
5311,49.0,0,60,12.0,0.0
5312,37.0,0,60,13.0,0.0
5313,77.0,0,810,2.0,0.0
5314,77.0,0,810,3.0,0.0
5315,48.0,12,60,12.0,0.0
5316,73.0,0,120,11.0,0.0
5317,85.0,0,120,10.0,0.0
5318,41.0,28,30,8.0,0.0
5319,36.0,0,60,13.0,0.0
5320,80.0,0,810,2.0,0.0
5321,41.0,40,30,8.0,0.0
5322,37.0,32,60,13.0,0.0
5323,49.0,0,60,12.0,0.0
5324,41.0,8,30,8.0,0.0
5325,84.0,16,90,10.0,0.0
5326,48.0,12,60,12.0,0.0
5327,72.0,0,90,11.0,0.0
5328,41.0,28,30,8.0,0.0
5329,36.0,0,60,13.0,0.0
5330,41.0,24,30,8.0,0.0
5331,37.0,0,60,13.0,0.0
5332,49.0,32,60,12.0,0.0
5333,41.0,8,30,8.0,0.0
5334,68.0,16,90,11.0,0.0
5335,36.0,12,60,13.0,0.0
5336,80.0,0,90,10.0,0.0
5337,41.0,28,30,8.0,0.0
5338,48.0,0,60,12.0,0.0
5339,41.0,24,30,8.0,0.0
5340,49.0,60,60,12.0,0.0
5341,37.0,0,60,13.0,0.0
5342,41.0,8,30,8.0,0.0
5343,41.0,0,90,8.0,0.0
5344,77.0,24,90,10.0,0.0
5345,36.0,36,60,13.0,0.0
5346,48.0,0,60,12.0,0.0
5347,65.0,0,90,11.0,0.0
5348,37.0,0,60,13.0,0.0
5349,49.0,60,60,12.0,0.0
5350,61.0,0,90,11.0,0.0
5351,73.0,24,90,10.0,0.0
5352,36.0,36,60,13.0,0.0
5353,48.0,0,60,12.0,0.0
5354,49.0,60,60,12.0,0.0
5355,37.0,0,60,13.0,0.0
5356,60.0,24,90,11.0,0.0
5357,72.0,0,90,10.0,0.0
5358,36.0,36,60,13.0,0.0
5359,48.0,0,60,12.0,0.0
5360,37.0,0,60,13.0,0.0
5361,49.0,60,60,12.0,0.0
5362,36.0,36,60,13.0,0.0
5363,48.0,0,60,12.0,0.0
5364,68.0,60,240,10.0,0.0
5365,49.0,60,60,12.0,0.0
5366,37.0,0,60,13.0,0.0
5367,68.0,0,90,3.0,0.0
5368,29.0,0,90,14.0,0.0
5369,60.0,0,90,7.0,0.0
5370,41.0,24,90,4.0,0.0
5371,84.0,0,90,0.0,0.0
5372,89.0,0,90,0.0,0.0
5373,41.0,0,90,8.0,0.0
5374,72.0,0,90,7.0,0.0
5375,68.0,0,90,6.0,0.0
5376,48.0,0,90,5.0,0.0
5377,72.0,0,90,3.0,0.0
5378,48.0,0,60,12.0,0.0
5379,80.0,0,90,2.0,0.0
5380,60.0,0,90,5.0,0.0
5381,65.0,0,90,6.0,0.0
5382,77.0,0,90,2.0,0.0
5383,36.0,36,60,13.0,0.0
5384,49.0,0,60,12.0,0.0
5385,37.0,0,60,13.0,0.0
5386,32.0,0,90,14.0,0.0
5387,84.0,0,90,0.0,0.0
5388,89.0,0,90,0.0,0.0
5389,77.0,0,90,2.0,0.0
5390,41.0,0,90,8.0,0.0
5391,80.0,0,90,2.0,0.0
5392,44.0,0,90,4.0,0.0
5393,65.0,0,90,10.0,0.0
5394,48.0,0,90,5.0,0.0
5395,68.0,0,90,6.0,0.0
5396,65.0,0,90,6.0,0.0
5397,72.0,0,90,7.0,0.0
5398,60.0,0,90,7.0,0.0
5399,36.0,0,60,13.0,0.0
5400,68.0,0,90,3.0,0.0
5401,56.0,0,15,11.0,0.0
5402,48.0,36,60,12.0,0.0
5403,72.0,24,90,3.0,0.0
5404,60.0,0,90,5.0,0.0
5405,49.0,0,60,12.0,0.0
5406,37.0,60,60,13.0,0.0
5407,72.0,0,90,3.0,0.0
5408,67.0,0,90,3.0,0.0
5409,60.0,0,90,7.0,0.0
5410,72.0,0,90,7.0,0.0
5411,84.0,0,90,0.0,0.0
5412,55.0,0,90,11.0,0.0
5413,48.0,0,90,4.0,0.0
5414,48.0,36,60,12.0,0.0
5415,88.0,0,90,0.0,0.0
5416,67.0,0,90,6.0,0.0
5417,48.0,0,90,5.0,0.0
5418,60.0,0,90,5.0,0.0
5419,79.0,0,90,2.0,0.0
5420,76.0,0,90,2.0,0.0
5421,36.0,0,90,14.0,0.0
5422,48.0,0,90,8.0,0.0
5423,64.0,24,90,10.0,0.0
5424,36.0,0,60,13.0,0.0
5425,37.0,0,60,13.0,0.0
5426,49.0,60,60,12.0,0.0
5427,36.0,0,60,13.0,0.0
5428,48.0,60,60,12.0,0.0
5429,49.0,0,60,12.0,0.0
5430,37.0,60,60,13.0,0.0
5431,72.0,32,120,11.0,0.0
5432,36.0,0,930,4.0,0.0
5433,84.0,0,120,10.0,0.0
5434,84.0,0,930,0.0,0.0
5435,48.0,0,930,5.0,0.0
5436,60.0,24,930,5.0,0.0
5437,67.0,0,930,6.0,0.0
5438,48.0,0,930,4.0,0.0
5439,36.0,0,930,14.0,0.0
5440,72.0,0,930,7.0,0.0
5441,88.0,0,930,0.0,0.0
5442,36.0,0,60,13.0,0.0
5443,82.0,0,930,2.0,0.0
5444,79.0,0,930,2.0,0.0
5445,48.0,24,90,8.0,0.0
5446,70.0,0,120,3.0,0.0
5447,76.0,0,120,3.0,0.0
5448,48.0,36,60,12.0,0.0
5449,60.0,0,930,7.0,0.0
5450,37.0,0,60,13.0,0.0
5451,49.0,0,60,12.0,0.0
5452,36.0,12,60,13.0,0.0
5453,73.0,0,120,11.0,0.0
5454,48.0,28,30,8.0,0.0
5455,67.0,0,810,3.0,0.0
5456,58.0,0,810,6.0,0.0
5457,70.0,0,810,3.0,0.0
5458,48.0,0,60,12.0,0.0
5459,85.0,0,120,10.0,0.0
5460,48.0,40,30,8.0,0.0
5461,37.0,32,60,13.0,0.0
5462,49.0,0,60,12.0,0.0
5463,48.0,8,30,8.0,0.0
5464,36.0,0,60,13.0,0.0
5465,84.0,16,90,10.0,0.0
5466,48.0,28,30,8.0,0.0
5467,48.0,12,60,12.0,0.0
5468,72.0,0,90,11.0,0.0
5469,48.0,24,30,8.0,0.0
5470,37.0,32,60,13.0,0.0
5471,49.0,0,60,12.0,0.0
5472,48.0,8,30,8.0,0.0
5473,82.0,0,90,10.0,0.0
5474,36.0,12,60,13.0,0.0
5475,48.0,0,60,12.0,0.0
5476,70.0,16,90,11.0,0.0
5477,48.0,28,30,8.0,0.0
5478,48.0,24,30,8.0,0.0
5479,49.0,0,60,12.0,0.0
5480,37.0,60,60,13.0,0.0
5481,48.0,8,30,8.0,0.0
5482,67.0,0,90,11.0,0.0
5483,79.0,0,90,10.0,0.0
5484,36.0,36,60,13.0,0.0
5485,48.0,24,90,8.0,0.0
5486,48.0,0,60,12.0,0.0
5487,49.0,0,60,12.0,0.0
5488,37.0,60,60,13.0,0.0
5489,48.0,36,60,12.0,0.0
5490,36.0,0,60,13.0,0.0
5491,76.0,24,90,10.0,0.0
5492,64.0,0,90,11.0,0.0
5493,37.0,0,60,13.0,0.0
5494,49.0,60,60,12.0,0.0
5495,61.0,24,90,11.0,0.0
5496,36.0,0,60,13.0,0.0
5497,73.0,0,90,10.0,0.0
5498,48.0,36,60,12.0,0.0
5499,49.0,60,60,12.0,0.0
5500,37.0,0,60,13.0,0.0
5501,72.0,60,240,10.0,0.0
5502,60.0,0,120,11.0,0.0
5503,36.0,0,60,13.0,0.0
5504,48.0,36,60,12.0,0.0
5505,49.0,60,60,12.0,0.0
5506,37.0,0,60,13.0,0.0
5507,58.0,0,90,6.0,0.0
5508,67.0,0,90,6.0,0.0
5509,36.0,24,90,14.0,0.0
5510,48.0,0,90,4.0,0.0
5511,36.0,0,90,4.0,0.0
5512,55.0,0,120,11.0,0.0
5513,67.0,0,90,3.0,0.0
5514,72.0,0,90,7.0,0.0
5515,60.0,0,90,7.0,0.0
5516,70.0,0,90,3.0,0.0
5517,84.0,0,90,0.0,0.0
5518,82.0,0,90,2.0,0.0
5519,48.0,0,90,5.0,0.0
5520,60.0,0,90,5.0,0.0
5521,36.0,0,60,13.0,0.0
5522,79.0,0,90,2.0,0.0
5523,88.0,0,90,0.0,0.0
5524,48.0,0,90,8.0,0.0
5525,48.0,36,60,12.0,0.0
5526,49.0,0,60,12.0,0.0
5527,37.0,0,60,13.0,0.0
5528,48.0,0,90,5.0,0.0
5529,36.0,0,90,4.0,0.0
5530,48.0,0,90,12.0,0.0
5531,67.0,0,90,6.0,0.0
5532,48.0,0,90,4.0,0.0
5533,70.0,0,90,3.0,0.0
5534,67.0,0,90,3.0,0.0
5535,60.0,0,90,5.0,0.0
5536,60.0,0,90,7.0,0.0
5537,70.0,36,60,10.0,0.0
5538,58.0,0,90,11.0,0.0
5539,79.0,0,90,2.0,0.0
5540,82.0,0,90,2.0,0.0
5541,36.0,12,90,13.0,0.0
5542,48.0,0,90,8.0,0.0
5543,84.0,0,90,0.0,0.0
5544,88.0,0,90,0.0,0.0
5545,36.0,0,90,14.0,0.0
5546,72.0,0,90,7.0,0.0
5547,67.0,108,40,10.0,0.0
5548,65.0,0,90,3.0,0.0
5549,89.0,0,90,0.0,0.0
5550,41.0,0,90,4.0,0.0
5551,53.0,0,90,4.0,0.0
5552,77.0,0,90,7.0,0.0
5553,53.0,0,90,12.0,0.0
5554,65.0,0,90,7.0,0.0
5555,84.0,0,90,0.0,0.0
5556,68.0,0,90,3.0,0.0
5557,65.0,0,90,10.0,0.0
5558,65.0,120,90,5.0,0.0
5559,41.0,0,90,14.0,0.0
5560,65.0,0,90,6.0,0.0
5561,56.0,0,90,11.0,0.0
5562,41.0,0,90,8.0,0.0
5563,77.0,0,90,2.0,0.0
5564,80.0,0,90,2.0,0.0
5565,53.0,0,90,5.0,0.0
5566,41.0,0,90,13.0,0.0
5567,41.0,0,90,13.0,0.0
5568,29.0,120,90,14.0,0.0
5569,68.0,144,120,11.0,0.0
5570,29.0,24,90,14.0,0.0
5571,53.0,48,270,12.0,0.0
5572,77.0,0,120,10.0,0.0
5573,41.0,0,90,4.0,0.0
5574,53.0,0,270,13.0,0.0
5575,75.0,48,240,10.0,0.0
5576,34.0,0,180,14.0,0.0
5577,70.0,0,240,11.0,0.0
5578,46.0,36,180,4.0,0.0
5579,53.0,12,40,13.0,0.0
5580,53.0,0,40,12.0,0.0
5581,46.0,0,90,4.0,0.0
5582,34.0,12,90,14.0,0.0
5583,70.0,0,120,11.0,0.0
5584,53.0,48,40,12.0,0.0
5585,53.0,0,40,13.0,0.0
5586,73.0,96,120,10.0,0.0
5587,55.0,0,40,12.0,0.0
5588,55.0,12,40,13.0,0.0
5589,72.0,0,90,10.0,0.0
5590,56.0,0,90,13.0,0.0
5591,68.0,0,90,11.0,0.0
5592,29.0,120,90,14.0,0.0
5593,41.0,0,90,4.0,0.0
5594,56.0,0,90,12.0,0.0
5595,53.0,0,90,12.0,0.0
5596,53.0,144,90,13.0,0.0
5597,68.0,0,120,3.0,0.0
5598,65.0,0,270,10.0,0.0
5599,53.0,0,120,4.0,0.0
5600,60.0,0,120,4.0,0.0
5601,65.0,0,300,6.0,0.0
5602,89.0,144,120,0.0,0.0
5603,65.0,0,270,11.0,0.0
5604,53.0,0,270,13.0,0.0
5605,77.0,0,120,3.0,0.0
5606,53.0,48,270,12.0,0.0
5607,77.0,0,420,2.0,0.0
5608,80.0,0,120,2.0,0.0
5609,61.0,36,180,4.0,0.0
5610,58.0,0,180,4.0,0.0
5611,82.0,0,300,2.0,0.0
5612,75.0,48,240,3.0,0.0
5613,70.0,0,300,3.0,0.0
5614,87.0,0,240,0.0,0.0
5615,65.0,12,40,10.0,0.0
5616,53.0,0,40,13.0,0.0
5617,53.0,0,40,12.0,0.0
5618,65.0,0,40,11.0,0.0
5619,53.0,0,40,12.0,0.0
5620,53.0,0,40,13.0,0.0
5621,85.0,0,90,0.0,0.0
5622,65.0,12,90,6.0,0.0
5623,65.0,48,40,11.0,0.0
5624,58.0,0,90,4.0,0.0
5625,65.0,0,40,10.0,0.0
5626,73.0,0,90,3.0,0.0
5627,61.0,0,90,4.0,0.0
5628,55.0,108,40,13.0,0.0
5629,67.0,0,40,11.0,0.0
5630,55.0,0,40,12.0,0.0
5631,67.0,0,40,10.0,0.0
5632,67.0,0,120,11.0,0.0
5633,68.0,0,90,3.0,0.0
5634,80.0,0,90,2.0,0.0
5635,77.0,0,90,2.0,0.0
5636,60.0,0,90,4.0,0.0
5637,53.0,24,90,4.0,0.0
5638,72.0,0,90,3.0,0.0
5639,84.0,0,90,0.0,0.0
5640,67.0,96,120,10.0,0.0
5641,65.0,0,90,6.0,0.0
5642,56.0,0,90,12.0,0.0
5643,56.0,0,90,13.0,0.0
5644,53.0,120,90,13.0,0.0
5645,65.0,0,90,11.0,0.0
5646,65.0,0,90,10.0,0.0
5647,53.0,0,90,12.0,0.0
5648,53.0,0,270,13.0,0.0
5649,77.0,0,120,10.0,0.0
5650,29.0,0,90,14.0,0.0
5651,68.0,144,120,11.0,0.0
5652,41.0,24,90,4.0,0.0
5653,53.0,48,270,12.0,0.0
5654,75.0,48,240,10.0,0.0
5655,34.0,0,180,14.0,0.0
5656,46.0,36,180,4.0,0.0
5657,70.0,0,240,11.0,0.0
5658,53.0,0,40,13.0,0.0
5659,53.0,12,40,12.0,0.0
5660,34.0,12,90,14.0,0.0
5661,70.0,96,120,11.0,0.0
5662,53.0,0,40,13.0,0.0
5663,53.0,48,40,12.0,0.0
5664,46.0,0,90,4.0,0.0
5665,73.0,0,120,10.0,0.0
5666,55.0,12,40,13.0,0.0
5667,55.0,0,40,12.0,0.0
5668,72.0,0,90,10.0,0.0
5669,56.0,120,90,13.0,0.0
5670,56.0,0,90,12.0,0.0
5671,68.0,0,90,11.0,0.0
5672,29.0,0,90,14.0,0.0
5673,41.0,0,90,4.0,0.0
5674,53.0,0,90,12.0,0.0
5675,53.0,120,90,13.0,0.0
5676,77.0,0,90,2.0,0.0
5677,65.0,0,90,6.0,0.0
5678,65.0,0,90,7.0,0.0
5679,85.0,72,90,0.0,0.0
5680,41.0,0,90,8.0,0.0
5681,89.0,0,90,0.0,0.0
5682,80.0,0,90,2.0,0.0
5683,68.0,0,90,6.0,0.0
5684,68.0,0,90,3.0,0.0
5685,61.0,0,90,4.0,0.0
5686,49.0,0,90,4.0,0.0
5687,73.0,0,90,3.0,0.0
5688,53.0,0,90,5.0,0.0
5689,65.0,0,90,5.0,0.0
5690,65.0,0,90,3.0,0.0
5691,73.0,0,90,3.0,0.0
5692,49.0,0,40,13.0,0.0
5693,65.0,0,90,7.0,0.0
5694,61.0,0,90,11.0,0.0
5695,85.0,0,90,0.0,0.0
5696,49.0,0,90,4.0,0.0
5697,61.0,0,90,4.0,0.0
5698,65.0,0,90,6.0,0.0
5699,73.0,0,90,0.0,0.0
5700,53.0,0,90,12.0,0.0
5701,37.0,48,40,14.0,0.0
5702,41.0,12,90,8.0,0.0
5703,73.0,0,90,10.0,0.0
5704,65.0,0,90,5.0,0.0
5705,53.0,0,90,5.0,0.0
5706,73.0,0,90,2.0,0.0
5707,77.0,0,90,2.0,0.0
5708,49.0,0,40,13.0,0.0
5709,37.0,120,40,14.0,0.0
5710,49.0,0,180,13.0,0.0
5711,37.0,36,180,14.0,0.0
5712,53.0,0,40,12.0,0.0
5713,61.0,0,40,11.0,0.0
5714,73.0,60,40,10.0,0.0
5715,63.0,24,40,11.0,0.0
5716,75.0,0,40,10.0,0.0
5717,51.0,0,40,12.0,0.0
5718,49.0,0,40,12.0,0.0
5719,77.0,60,40,10.0,0.0
5720,65.0,0,40,11.0,0.0
5721,75.0,0,90,2.0,0.0
5722,66.0,12,90,11.0,0.0
5723,78.0,0,90,10.0,0.0
5724,66.0,0,90,3.0,0.0
5725,63.0,0,90,6.0,0.0
5726,61.0,0,90,4.0,0.0
5727,49.0,0,90,4.0,0.0
5728,78.0,0,90,2.0,0.0
5729,49.0,0,40,13.0,0.0
5730,85.0,0,90,0.0,0.0
5731,73.0,0,90,0.0,0.0
5732,54.0,0,90,12.0,0.0
5733,37.0,48,40,14.0,0.0
5734,73.0,0,90,3.0,0.0
5735,49.0,0,40,13.0,0.0
5736,37.0,120,40,14.0,0.0
5737,49.0,36,180,13.0,0.0
5738,37.0,0,180,14.0,0.0
5739,54.0,0,40,12.0,0.0
5740,63.0,60,40,11.0,0.0
5741,75.0,0,40,10.0,0.0
5742,77.0,0,40,10.0,0.0
5743,65.0,0,40,11.0,0.0
5744,53.0,24,40,12.0,0.0
5745,66.0,0,40,11.0,0.0
5746,78.0,60,40,10.0,0.0
5747,51.0,0,40,12.0,0.0
5748,65.0,0,90,7.0,0.0
5749,37.0,0,40,14.0,0.0
5750,68.0,0,90,3.0,0.0
5751,56.0,0,90,12.0,0.0
5752,73.0,0,90,3.0,0.0
5753,49.0,48,40,13.0,0.0
5754,80.0,0,90,10.0,0.0
5755,41.0,0,90,8.0,0.0
5756,73.0,0,90,0.0,0.0
5757,85.0,0,90,0.0,0.0
5758,68.0,0,90,11.0,0.0
5759,61.0,0,90,4.0,0.0
5760,49.0,0,90,4.0,0.0
5761,53.0,12,90,5.0,0.0
5762,65.0,0,90,5.0,0.0
5763,80.0,0,90,2.0,0.0
5764,65.0,0,90,6.0,0.0
5765,77.0,0,90,7.0,0.0
5766,77.0,0,90,2.0,0.0
5767,37.0,0,40,14.0,0.0
5768,49.0,120,40,13.0,0.0
5769,37.0,0,180,14.0,0.0
5770,49.0,36,180,13.0,0.0
5771,56.0,60,40,12.0,0.0
5772,65.0,0,40,11.0,0.0
5773,77.0,0,40,10.0,0.0
5774,54.0,0,40,12.0,0.0
5775,66.0,0,40,11.0,0.0
5776,78.0,24,40,10.0,0.0
5777,80.0,0,40,10.0,0.0
5778,53.0,0,40,12.0,0.0
5779,68.0,108,40,11.0,0.0
5780,78.0,0,90,2.0,0.0
5781,58.0,0,90,12.0,0.0
5782,37.0,0,90,14.0,0.0
5783,58.0,0,90,4.0,0.0
5784,82.0,0,90,2.0,0.0
5785,85.0,120,90,0.0,0.0
5786,70.0,0,90,11.0,0.0
5787,82.0,0,90,10.0,0.0
5788,82.0,0,90,0.0,0.0
5789,54.0,0,90,4.0,0.0
5790,66.0,0,90,3.0,0.0
5791,70.0,0,90,3.0,0.0
5792,49.0,0,90,13.0,0.0
5793,73.0,0,90,3.0,0.0
5794,51.0,0,90,4.0,0.0
5795,70.0,0,90,3.0,0.0
5796,49.0,0,90,13.0,0.0
5797,54.0,0,90,4.0,0.0
5798,54.0,0,90,12.0,0.0
5799,37.0,0,90,14.0,0.0
5800,63.0,0,90,6.0,0.0
5801,85.0,0,90,0.0,0.0
5802,90.0,0,90,0.0,0.0
5803,78.0,0,90,11.0,0.0
5804,82.0,0,90,10.0,0.0
5805,82.0,120,90,2.0,0.0
5806,78.0,0,90,2.0,0.0
5807,49.0,0,90,13.0,0.0
5808,66.0,0,90,3.0,0.0
5809,75.0,72,90,11.0,0.0
5810,63.0,0,90,6.0,0.0
5811,56.0,0,90,4.0,0.0
5812,87.0,0,90,0.0,0.0
5813,56.0,0,90,12.0,0.0
5814,84.0,0,90,0.0,0.0
5815,84.0,0,90,2.0,0.0
5816,37.0,0,90,14.0,0.0
5817,84.0,0,90,10.0,0.0
5818,78.0,0,90,2.0,0.0
5819,72.0,0,90,3.0,0.0
5820,77.0,0,90,11.0,0.0
5821,49.0,48,40,13.0,0.0
5822,73.0,0,90,3.0,0.0
5823,65.0,0,90,3.0,0.0
5824,49.0,0,90,4.0,0.0
5825,53.0,12,90,4.0,0.0
5826,65.0,0,90,6.0,0.0
5827,37.0,0,40,14.0,0.0
5828,65.0,0,90,7.0,0.0
5829,53.0,0,90,5.0,0.0
5830,41.0,0,90,8.0,0.0
5831,77.0,0,90,2.0,0.0
5832,89.0,0,90,0.0,0.0
5833,85.0,0,90,0.0,0.0
5834,80.0,0,90,2.0,0.0
5835,53.0,0,90,12.0,0.0
5836,85.0,0,90,10.0,0.0
5837,65.0,0,90,5.0,0.0
5838,37.0,120,40,14.0,0.0
5839,49.0,0,40,13.0,0.0
5840,49.0,36,180,13.0,0.0
5841,37.0,0,180,14.0,0.0
5842,53.0,60,40,12.0,0.0
5843,61.0,0,40,11.0,0.0
5844,73.0,0,40,10.0,0.0
5845,51.0,0,40,12.0,0.0
5846,63.0,24,40,11.0,0.0
5847,75.0,0,40,10.0,0.0
5848,65.0,0,40,11.0,0.0
5849,77.0,60,40,10.0,0.0
5850,49.0,0,40,12.0,0.0
5851,54.0,0,90,12.0,0.0
5852,37.0,0,40,14.0,0.0
5853,73.0,0,90,3.0,0.0
5854,78.0,0,90,10.0,0.0
5855,73.0,0,90,0.0,0.0
5856,61.0,0,90,4.0,0.0
5857,49.0,0,90,4.0,0.0
5858,66.0,0,90,3.0,0.0
5859,85.0,12,90,0.0,0.0
5860,63.0,0,90,6.0,0.0
5861,75.0,0,90,2.0,0.0
5862,78.0,0,90,2.0,0.0
5863,49.0,48,40,13.0,0.0
5864,66.0,0,90,11.0,0.0
5865,37.0,0,40,14.0,0.0
5866,49.0,120,40,13.0,0.0
5867,37.0,0,180,14.0,0.0
5868,49.0,36,180,13.0,0.0
5869,75.0,0,40,10.0,0.0
5870,54.0,0,40,12.0,0.0
5871,63.0,60,40,11.0,0.0
5872,77.0,24,40,10.0,0.0
5873,65.0,0,40,11.0,0.0
5874,53.0,0,40,12.0,0.0
5875,51.0,0,40,12.0,0.0
5876,78.0,60,40,10.0,0.0
5877,66.0,0,40,11.0,0.0
5878,65.0,0,90,5.0,0.0
5879,65.0,0,90,6.0,0.0
5880,65.0,12,90,7.0,0.0
5881,49.0,0,90,4.0,0.0
5882,61.0,0,90,4.0,0.0
5883,80.0,0,90,10.0,0.0
5884,41.0,0,90,8.0,0.0
5885,37.0,48,40,14.0,0.0
5886,68.0,0,90,11.0,0.0
5887,85.0,0,90,0.0,0.0
5888,73.0,0,90,0.0,0.0
5889,53.0,0,90,5.0,0.0
5890,68.0,0,90,3.0,0.0
5891,49.0,0,40,13.0,0.0
5892,77.0,0,90,2.0,0.0
5893,80.0,0,90,2.0,0.0
5894,73.0,0,90,3.0,0.0
5895,56.0,0,90,12.0,0.0
5896,49.0,0,40,13.0,0.0
5897,37.0,120,40,14.0,0.0
5898,49.0,36,180,13.0,0.0
5899,37.0,0,180,14.0,0.0
5900,56.0,0,40,12.0,0.0
5901,77.0,0,40,10.0,0.0
5902,65.0,60,40,11.0,0.0
5903,66.0,0,40,11.0,0.0
5904,78.0,0,40,10.0,0.0
5905,54.0,24,40,12.0,0.0
5906,53.0,0,40,12.0,0.0
5907,80.0,0,40,10.0,0.0
5908,68.0,108,40,11.0,0.0
5909,82.0,0,90,2.0,0.0
5910,82.0,0,90,10.0,0.0
5911,51.0,0,90,6.0,0.0
5912,63.0,0,90,6.0,0.0
5913,46.0,120,90,13.0,0.0
5914,70.0,0,90,3.0,0.0
5915,55.0,0,90,4.0,0.0
5916,75.0,0,90,3.0,0.0
5917,34.0,0,90,14.0,0.0
5918,85.0,0,90,0.0,0.0
5919,61.0,0,90,12.0,0.0
5920,79.0,0,90,2.0,0.0
5921,58.0,0,90,4.0,0.0
5922,67.0,0,90,11.0,0.0
5923,79.0,0,90,0.0,0.0
5924,61.0,0,90,12.0,0.0
5925,82.0,0,90,0.0,0.0
5926,63.0,0,90,6.0,0.0
5927,70.0,0,90,3.0,0.0
5928,51.0,0,90,6.0,0.0
5929,87.0,0,90,0.0,0.0
5930,34.0,0,90,14.0,0.0
5931,75.0,0,90,3.0,0.0
5932,79.0,0,90,2.0,0.0
5933,46.0,0,90,13.0,0.0
5934,82.0,120,90,2.0,0.0
5935,58.0,0,90,4.0,0.0
5936,82.0,0,90,10.0,0.0
5937,55.0,0,90,4.0,0.0
5938,67.0,0,90,11.0,0.0
5939,80.0,0,90,2.0,0.0
5940,32.0,72,90,14.0,0.0
5941,68.0,0,90,11.0,0.0
5942,72.0,0,90,7.0,0.0
5943,44.0,0,90,13.0,0.0
5944,56.0,0,90,4.0,0.0
5945,60.0,0,90,4.0,0.0
5946,60.0,0,90,7.0,0.0
5947,87.0,0,90,0.0,0.0
5948,84.0,0,90,0.0,0.0
5949,84.0,0,90,10.0,0.0
5950,48.0,0,90,8.0,0.0
5951,75.0,0,90,3.0,0.0
5952,72.0,0,90,3.0,0.0
5953,84.0,0,90,2.0,0.0
5954,60.0,0,90,12.0,0.0
5955,51.0,0,90,6.0,0.0
5956,63.0,0,90,6.0,0.0
5957,73.0,0,660,2.0,0.0
5958,75.0,0,660,3.0,0.0
5959,85.0,0,40,10.0,0.0
5960,82.0,0,660,2.0,0.0
5961,70.0,0,660,3.0,0.0
5962,87.0,60,660,0.0,0.0
5963,85.0,0,660,0.0,0.0
5964,51.0,0,660,6.0,0.0
5965,63.0,0,660,6.0,0.0
5966,43.0,60,40,13.0,0.0
5967,61.0,0,660,4.0,0.0
5968,70.0,0,40,11.0,0.0
5969,31.0,0,40,14.0,0.0
5970,58.0,0,660,4.0,0.0
5971,67.0,0,660,5.0,0.0
5972,58.0,0,40,12.0,0.0
5973,51.0,0,40,13.0,0.0
5974,55.0,0,40,12.0,0.0
5975,63.0,0,40,10.0,0.0
5976,73.0,0,40,11.0,0.0
5977,39.0,0,40,14.0,0.0
5978,82.0,60,40,11.0,0.0
5979,39.0,0,40,14.0,0.0
5980,82.0,0,40,11.0,0.0
5981,67.0,0,40,10.0,0.0
5982,55.0,0,40,12.0,0.0
5983,51.0,60,40,13.0,0.0
5984,73.0,0,40,11.0,0.0
5985,68.0,60,40,10.0,0.0
5986,51.0,0,40,13.0,0.0
5987,55.0,0,40,12.0,0.0
5988,73.0,0,40,11.0,0.0
5989,82.0,0,40,11.0,0.0
5990,39.0,0,40,14.0,0.0
5991,55.0,0,40,12.0,0.0
5992,73.0,0,40,11.0,0.0
5993,82.0,0,40,11.0,0.0
5994,51.0,0,40,13.0,0.0
5995,39.0,0,40,14.0,0.0
5996,70.0,60,40,10.0,0.0
5997,73.0,0,40,11.0,0.0
5998,82.0,0,40,11.0,0.0
5999,55.0,0,40,12.0,0.0
6000,72.0,60,40,10.0,0.0
6001,51.0,0,40,13.0,0.0
6002,39.0,0,40,14.0,0.0
6003,51.0,0,40,13.0,0.0
6004,73.0,0,40,10.0,0.0
6005,82.0,0,40,11.0,0.0
6006,39.0,60,40,14.0,0.0
6007,63.0,0,40,12.0,0.0
6008,73.0,0,40,11.0,0.0
6009,82.0,0,40,11.0,0.0
6010,73.0,0,40,11.0,0.0
6011,51.0,0,40,13.0,0.0
6012,39.0,0,40,14.0,0.0
6013,63.0,60,40,12.0,0.0
6014,72.0,0,40,10.0,0.0
6015,73.0,0,40,11.0,0.0
6016,63.0,60,40,12.0,0.0
6017,51.0,0,40,13.0,0.0
6018,73.0,0,40,10.0,0.0
6019,39.0,0,40,14.0,0.0
6020,82.0,0,40,11.0,0.0
6021,75.0,0,40,10.0,0.0
6022,63.0,60,40,12.0,0.0
6023,39.0,0,40,14.0,0.0
6024,73.0,0,40,11.0,0.0
6025,82.0,0,40,11.0,0.0
6026,51.0,0,40,13.0,0.0
6027,51.0,0,40,13.0,0.0
6028,77.0,0,40,10.0,0.0
6029,63.0,0,40,12.0,0.0
6030,39.0,0,40,14.0,0.0
6031,82.0,0,40,11.0,0.0
6032,73.0,0,40,11.0,0.0
6033,39.0,0,40,14.0,0.0
6034,51.0,0,40,13.0,0.0
6035,79.0,0,40,10.0,0.0
6036,63.0,0,40,12.0,0.0
6037,82.0,0,40,11.0,0.0
6038,73.0,108,40,11.0,0.0
6039,60.0,96,90,5.0,0.0
6040,72.0,0,300,3.0,0.0
6041,75.0,0,300,3.0,0.0
6042,84.0,0,300,0.0,0.0
6043,48.0,0,90,8.0,0.0
6044,87.0,0,300,0.0,0.0
6045,60.0,0,90,7.0,0.0
6046,63.0,0,300,6.0,0.0
6047,51.0,0,300,6.0,0.0
6048,72.0,48,180,2.0,0.0
6049,72.0,0,90,7.0,0.0
6050,56.0,0,300,4.0,0.0
6051,56.0,0,240,12.0,0.0
6052,32.0,0,300,14.0,0.0
6053,72.0,48,240,11.0,0.0
6054,44.0,0,300,13.0,0.0
6055,60.0,12,300,4.0,0.0
6056,80.0,0,240,10.0,0.0
6057,80.0,0,300,2.0,0.0
6058,60.0,0,60,12.0,0.0
6059,75.0,0,60,10.0,0.0
6060,75.0,12,90,2.0,0.0
6061,72.0,36,60,11.0,0.0
6062,68.0,108,40,11.0,0.0
6063,72.0,0,40,10.0,0.0
6064,63.0,0,40,12.0,0.0
6065,53.0,0,240,12.0,0.0
6066,65.0,144,90,7.0,0.0
6067,65.0,0,300,6.0,0.0
6068,32.0,0,300,14.0,0.0
6069,73.0,0,300,3.0,0.0
6070,77.0,0,300,3.0,0.0
6071,80.0,12,300,2.0,0.0
6072,77.0,0,240,10.0,0.0
6073,44.0,0,300,13.0,0.0
6074,77.0,0,300,2.0,0.0
6075,89.0,0,300,0.0,0.0
6076,73.0,48,240,11.0,0.0
6077,53.0,0,300,5.0,0.0
6078,85.0,0,300,0.0,0.0
6079,65.0,0,300,5.0,0.0
6080,41.0,0,90,8.0,0.0
6081,61.0,0,300,4.0,0.0
6082,56.0,0,300,4.0,0.0
6083,73.0,0,60,10.0,0.0
6084,56.0,0,60,12.0,0.0
6085,68.0,48,60,11.0,0.0
6086,61.0,0,40,12.0,0.0
6087,65.0,0,40,11.0,0.0
6088,68.0,252,40,10.0,0.0
6089,67.0,0,300,5.0,0.0
6090,44.0,0,300,13.0,0.0
6091,51.0,0,300,6.0,0.0
6092,79.0,0,300,2.0,0.0
6093,82.0,0,300,2.0,0.0
6094,73.0,0,240,10.0,0.0
6095,32.0,0,300,14.0,0.0
6096,70.0,48,240,11.0,0.0
6097,63.0,0,300,6.0,0.0
6098,75.0,0,300,3.0,0.0
6099,87.0,0,300,0.0,0.0
6100,55.0,0,300,4.0,0.0
6101,51.0,0,240,12.0,0.0
6102,58.0,0,300,4.0,0.0
6103,85.0,0,300,0.0,0.0
6104,73.0,12,300,3.0,0.0
6105,70.0,0,60,10.0,0.0
6106,55.0,48,60,12.0,0.0
6107,67.0,0,60,11.0,0.0
6108,67.0,0,40,10.0,0.0
6109,61.0,108,40,11.0,0.0
6110,58.0,0,40,12.0,0.0
6111,48.0,144,90,8.0,0.0
6112,68.0,48,240,10.0,0.0
6113,80.0,0,300,2.0,0.0
6114,84.0,0,300,0.0,0.0
6115,87.0,0,300,0.0,0.0
6116,75.0,0,300,2.0,0.0
6117,48.0,0,90,5.0,0.0
6118,32.0,0,300,14.0,0.0
6119,60.0,0,90,7.0,0.0
6120,75.0,0,300,3.0,0.0
6121,72.0,0,300,3.0,0.0
6122,63.0,0,300,6.0,0.0
6123,51.0,0,300,6.0,0.0
6124,72.0,0,90,7.0,0.0
6125,72.0,0,240,11.0,0.0
6126,60.0,0,90,5.0,0.0
6127,51.0,0,240,12.0,0.0
6128,44.0,0,300,13.0,0.0
6129,56.0,12,300,4.0,0.0
6130,60.0,0,300,4.0,0.0
6131,68.0,48,60,11.0,0.0
6132,63.0,0,60,10.0,0.0
6133,56.0,0,60,12.0,0.0
6134,60.0,108,40,12.0,0.0
6135,63.0,0,40,11.0,0.0
6136,60.0,0,40,10.0,0.0
6137,72.0,0,90,7.0,0.0
6138,72.0,0,300,3.0,0.0
6139,78.0,0,300,2.0,0.0
6140,80.0,0,300,2.0,0.0
6141,51.0,0,300,4.0,0.0
6142,63.0,0,300,6.0,0.0
6143,48.0,48,240,12.0,0.0
6144,75.0,0,300,3.0,0.0
6145,60.0,144,90,7.0,0.0
6146,54.0,0,300,4.0,0.0
6147,44.0,0,300,13.0,0.0
6148,51.0,12,300,6.0,0.0
6149,48.0,0,90,8.0,0.0
6150,66.0,0,240,10.0,0.0
6151,87.0,0,300,0.0,0.0
6152,63.0,0,240,11.0,0.0
6153,84.0,0,300,0.0,0.0
6154,32.0,0,300,14.0,0.0
6155,60.0,0,300,5.0,0.0
6156,48.0,0,300,5.0,0.0
6157,60.0,48,60,11.0,0.0
6158,51.0,0,60,12.0,0.0
6159,63.0,0,60,10.0,0.0
6160,60.0,108,40,10.0,0.0
6161,54.0,0,40,12.0,0.0
6162,56.0,0,40,11.0,0.0
6163,89.0,0,300,0.0,0.0
6164,65.0,0,300,5.0,0.0
6165,32.0,0,300,14.0,0.0
6166,65.0,0,300,6.0,0.0
6167,65.0,144,90,7.0,0.0
6168,85.0,0,300,0.0,0.0
6169,41.0,0,90,8.0,0.0
6170,53.0,0,300,4.0,0.0
6171,53.0,0,300,5.0,0.0
6172,73.0,0,300,3.0,0.0
6173,44.0,0,300,13.0,0.0
6174,49.0,12,300,4.0,0.0
6175,80.0,0,300,2.0,0.0
6176,77.0,0,300,2.0,0.0
6177,61.0,0,240,11.0,0.0
6178,68.0,0,300,3.0,0.0
6179,49.0,0,240,12.0,0.0
6180,65.0,48,240,10.0,0.0
6181,61.0,0,60,10.0,0.0
6182,53.0,48,60,12.0,0.0
6183,56.0,0,60,11.0,0.0
6184,65.0,252,40,11.0,0.0
6185,56.0,0,40,12.0,0.0
6186,56.0,0,40,10.0,0.0
6187,58.0,0,300,4.0,0.0
6188,55.0,0,300,4.0,0.0
6189,61.0,0,240,10.0,0.0
6190,51.0,0,300,6.0,0.0
6191,85.0,0,300,0.0,0.0
6192,87.0,12,300,0.0,0.0
6193,73.0,0,300,3.0,0.0
6194,67.0,0,300,5.0,0.0
6195,63.0,0,300,6.0,0.0
6196,44.0,0,300,13.0,0.0
6197,79.0,0,300,2.0,0.0
6198,82.0,0,300,2.0,0.0
6199,49.0,0,240,12.0,0.0
6200,58.0,48,240,11.0,0.0
6201,70.0,0,300,3.0,0.0
6202,32.0,0,300,14.0,0.0
6203,61.0,48,60,11.0,0.0
6204,51.0,0,60,12.0,0.0
6205,58.0,0,60,10.0,0.0
6206,49.0,0,40,12.0,0.0
6207,60.0,108,40,11.0,0.0
6208,55.0,0,40,10.0,0.0
6209,48.0,0,90,12.0,0.0
6210,75.0,0,90,2.0,0.0
6211,80.0,0,90,2.0,0.0
6212,48.0,0,90,8.0,0.0
6213,32.0,0,90,14.0,0.0
6214,72.0,360,90,3.0,0.0
6215,68.0,0,90,3.0,0.0
6216,56.0,0,90,11.0,0.0
6217,60.0,0,90,5.0,0.0
6218,60.0,0,90,7.0,0.0
6219,72.0,0,90,7.0,0.0
6220,84.0,0,90,0.0,0.0
6221,68.0,0,90,6.0,0.0
6222,56.0,0,90,4.0,0.0
6223,60.0,0,90,4.0,0.0
6224,44.0,0,90,13.0,0.0
6225,56.0,0,90,10.0,0.0
6226,48.0,0,90,5.0,0.0
6227,87.0,0,90,0.0,0.0
6228,37.0,0,90,14.0,0.0
6229,68.0,0,90,10.0,0.0
6230,53.0,120,90,12.0,0.0
6231,49.0,0,90,13.0,0.0
6232,61.0,0,90,11.0,0.0
6233,68.0,0,90,10.0,0.0
6234,49.0,0,90,13.0,0.0
6235,37.0,0,90,14.0,0.0
6236,53.0,132,90,12.0,0.0
6237,61.0,0,90,11.0,0.0
6238,49.0,0,40,13.0,0.0
6239,53.0,0,40,12.0,0.0
6240,61.0,0,40,11.0,0.0
6241,68.0,108,40,10.0,0.0
6242,37.0,0,40,14.0,0.0
6243,70.0,0,90,10.0,0.0
6244,54.0,0,90,12.0,0.0
6245,42.0,120,90,13.0,0.0
6246,30.0,0,90,14.0,0.0
6247,61.0,0,90,11.0,0.0
6248,42.0,0,90,13.0,0.0
6249,70.0,264,90,10.0,0.0
6250,54.0,0,90,12.0,0.0
6251,61.0,0,90,11.0,0.0
6252,30.0,0,90,14.0,0.0
6253,80.0,120,120,3.0,0.0
6254,56.0,120,360,4.0,0.0
6255,60.0,0,360,4.0,0.0
6256,75.0,120,120,3.0,0.0
6257,78.0,0,120,3.0,0.0
6258,77.0,48,300,3.0,0.0
6259,80.0,120,120,2.0,0.0
6260,61.0,0,300,4.0,0.0
6261,89.0,0,120,0.0,0.0
6262,80.0,48,120,0.0,0.0
6263,85.0,0,15,0.0,0.0
6264,77.0,0,120,2.0,0.0
6265,73.0,120,90,2.0,0.0
6266,77.0,0,90,0.0,0.0
6267,92.0,0,90,0.0,0.0
6268,53.0,0,90,12.0,0.0
6269,37.0,120,90,14.0,0.0
6270,61.0,0,90,11.0,0.0
6271,49.0,0,90,13.0,0.0
6272,68.0,0,90,10.0,0.0
6273,37.0,0,90,14.0,0.0
6274,49.0,0,90,13.0,0.0
6275,68.0,0,90,10.0,0.0
6276,53.0,0,90,12.0,0.0
6277,61.0,132,90,11.0,0.0
6278,49.0,108,40,13.0,0.0
6279,68.0,0,40,10.0,0.0
6280,53.0,0,40,12.0,0.0
6281,37.0,0,40,14.0,0.0
6282,61.0,0,40,11.0,0.0
6283,30.0,0,90,14.0,0.0
6284,61.0,120,90,11.0,0.0
6285,54.0,0,90,12.0,0.0
6286,70.0,0,90,10.0,0.0
6287,42.0,0,90,13.0,0.0
6288,42.0,0,90,13.0,0.0
6289,61.0,264,90,11.0,0.0
6290,30.0,0,90,14.0,0.0
6291,54.0,0,90,12.0,0.0
6292,70.0,0,90,10.0,0.0
6293,80.0,120,120,3.0,0.0
6294,56.0,0,360,4.0,0.0
6295,60.0,0,360,4.0,0.0
6296,75.0,120,120,3.0,0.0
6297,78.0,120,120,3.0,0.0
6298,61.0,48,300,4.0,0.0
6299,77.0,0,300,3.0,0.0
6300,85.0,120,120,0.0,0.0
6301,80.0,0,120,2.0,0.0
6302,89.0,0,120,0.0,0.0
6303,85.0,48,120,0.0,0.0
6304,80.0,0,120,0.0,0.0
6305,77.0,0,120,2.0,0.0
6306,73.0,120,90,2.0,0.0
6307,77.0,0,90,0.0,0.0
6308,92.0,0,90,0.0,0.0
6309,61.0,0,90,12.0,0.0
6310,68.0,0,90,10.0,0.0
6311,37.0,120,90,14.0,0.0
6312,65.0,0,90,11.0,0.0
6313,49.0,0,90,13.0,0.0
6314,65.0,132,90,11.0,0.0
6315,49.0,0,90,13.0,0.0
6316,37.0,0,90,14.0,0.0
6317,68.0,0,90,10.0,0.0
6318,61.0,0,90,12.0,0.0
6319,37.0,0,40,14.0,0.0
6320,61.0,0,40,12.0,0.0
6321,49.0,0,40,13.0,0.0
6322,68.0,108,40,10.0,0.0
6323,65.0,0,40,11.0,0.0
6324,42.0,120,90,13.0,0.0
6325,66.0,0,90,11.0,0.0
6326,30.0,0,90,14.0,0.0
6327,69.0,0,90,10.0,0.0
6328,61.0,0,90,12.0,0.0
6329,42.0,504,90,13.0,0.0
6330,66.0,0,90,11.0,0.0
6331,30.0,0,90,14.0,0.0
6332,69.0,0,90,10.0,0.0
6333,61.0,0,90,12.0,0.0
6334,54.0,0,360,4.0,0.0
6335,81.0,0,360,2.0,0.0
6336,78.0,120,360,2.0,0.0
6337,57.0,0,360,4.0,0.0
6338,62.0,0,2100,12.0,0.0
6339,50.0,0,2100,12.0,0.0
6340,86.0,0,1740,0.0,0.0
6341,50.0,0,2100,13.0,0.0
6342,74.0,72,1740,0.0,0.0
6343,79.0,0,120,2.0,0.0
6344,83.0,120,120,2.0,0.0
6345,55.0,0,120,4.0,0.0
6346,59.0,0,120,4.0,0.0
6347,81.0,0,120,2.0,0.0
6348,85.0,96,120,2.0,0.0
6349,61.0,0,120,4.0,0.0
6350,57.0,0,120,4.0,0.0
6351,59.0,0,90,4.0,0.0
6352,83.0,0,90,2.0,0.0
6353,62.0,0,90,4.0,0.0
6354,86.0,384,90,2.0,0.0
6355,54.0,120,360,4.0,0.0
6356,78.0,0,360,2.0,0.0
6357,57.0,0,360,4.0,0.0
6358,81.0,0,360,2.0,0.0
6359,55.0,120,120,4.0,0.0
6360,59.0,0,120,4.0,0.0
6361,83.0,0,120,2.0,0.0
6362,79.0,0,120,2.0,0.0
6363,61.0,0,120,4.0,0.0
6364,81.0,0,120,2.0,0.0
6365,85.0,0,120,2.0,0.0
6366,57.0,96,120,4.0,0.0
6367,62.0,0,90,4.0,0.0
6368,83.0,0,90,2.0,0.0
6369,86.0,0,90,2.0,0.0
6370,59.0,312,90,4.0,0.0
6371,54.0,0,360,4.0,0.0
6372,57.0,0,360,4.0,0.0
6373,78.0,0,360,2.0,0.0
6374,81.0,288,360,2.0,0.0
6375,70.0,0,300,3.0,0.0
6376,82.0,0,300,0.0,0.0
6377,89.0,0,300,0.0,0.0
6378,82.0,0,300,3.0,0.0
6379,58.0,0,300,6.0,0.0
6380,65.0,104,300,6.0,0.0
6381,80.0,0,300,2.0,0.0
6382,53.0,0,300,4.0,0.0
6383,77.0,0,300,2.0,0.0
6384,56.0,0,300,4.0,0.0
6385,82.0,0,30,10.0,0.0
6386,54.0,0,300,4.0,0.0
6387,51.0,0,300,4.0,0.0
6388,82.0,0,300,0.0,0.0
6389,90.0,0,300,0.0,0.0
6390,39.0,0,300,14.0,0.0
6391,66.0,0,30,12.0,0.0
6392,78.0,0,300,2.0,0.0
6393,75.0,0,300,2.0,0.0
6394,51.0,24,300,13.0,0.0
6395,70.0,40,30,11.0,0.0
6396,82.0,0,300,3.0,0.0
6397,63.0,0,300,6.0,0.0
6398,70.0,0,300,3.0,0.0
6399,70.0,0,30,11.0,0.0
6400,82.0,40,30,10.0,0.0
6401,66.0,0,30,12.0,0.0
6402,82.0,40,30,10.0,0.0
6403,70.0,0,30,11.0,0.0
6404,66.0,0,30,12.0,0.0
6405,70.0,0,30,11.0,0.0
6406,66.0,40,30,12.0,0.0
6407,82.0,0,30,10.0,0.0
6408,70.0,0,30,11.0,0.0
6409,82.0,40,30,10.0,0.0
6410,66.0,0,30,12.0,0.0
6411,82.0,0,30,10.0,0.0
6412,66.0,0,30,12.0,0.0
6413,70.0,40,30,11.0,0.0
6414,66.0,0,30,12.0,0.0
6415,70.0,0,30,11.0,0.0
6416,82.0,16,30,10.0,0.0
6417,82.0,0,30,10.0,0.0
6418,66.0,40,30,12.0,0.0
6419,70.0,0,30,11.0,0.0
6420,82.0,38,30,10.0,0.0
6421,66.0,0,30,12.0,0.0
6422,70.0,0,30,11.0,0.0
6423,90.0,0,300,0.0,0.0
6424,87.0,0,300,0.0,0.0
6425,78.0,0,300,2.0,0.0
6426,72.0,28,30,11.0,0.0
6427,51.0,12,300,4.0,0.0
6428,60.0,0,300,4.0,0.0
6429,72.0,0,300,5.0,0.0
6430,60.0,0,300,5.0,0.0
6431,44.0,0,300,13.0,0.0
6432,66.0,0,30,12.0,0.0
6433,84.0,0,30,10.0,0.0
6434,68.0,0,300,6.0,0.0
6435,56.0,0,30,12.0,0.0
6436,84.0,0,300,3.0,0.0
6437,72.0,0,300,3.0,0.0
6438,75.0,0,300,2.0,0.0
6439,32.0,0,300,14.0,0.0
6440,60.0,0,300,7.0,0.0
6441,72.0,0,300,7.0,0.0
6442,48.0,2,15,8.0,0.0
6443,56.0,18,30,12.0,0.0
6444,66.0,0,30,12.0,0.0
6445,84.0,0,30,10.0,0.0
6446,72.0,0,30,11.0,0.0
6447,48.0,12,15,8.0,0.0
6448,72.0,8,30,11.0,0.0
6449,84.0,0,30,10.0,0.0
6450,66.0,0,30,12.0,0.0
6451,56.0,0,30,12.0,0.0
6452,48.0,30,30,8.0,0.0
6453,66.0,0,30,12.0,0.0
6454,72.0,28,30,11.0,0.0
6455,48.0,2,30,8.0,0.0
6456,56.0,0,30,12.0,0.0
6457,84.0,0,30,10.0,0.0
6458,84.0,18,30,10.0,0.0
6459,56.0,0,30,12.0,0.0
6460,72.0,0,30,11.0,0.0
6461,66.0,0,30,12.0,0.0
6462,48.0,12,15,8.0,0.0
6463,56.0,0,30,12.0,0.0
6464,84.0,0,30,10.0,0.0
6465,72.0,0,30,11.0,0.0
6466,66.0,8,30,12.0,0.0
6467,72.0,0,30,11.0,0.0
6468,48.0,30,15,8.0,0.0
6469,56.0,0,30,12.0,0.0
6470,84.0,16,30,10.0,0.0
6471,66.0,0,30,12.0,0.0
6472,72.0,0,30,11.0,0.0
6473,84.0,0,30,10.0,0.0
6474,56.0,18,30,12.0,0.0
6475,66.0,0,30,12.0,0.0
6476,48.0,12,15,8.0,0.0
6477,56.0,8,30,12.0,0.0
6478,66.0,0,30,12.0,0.0
6479,72.0,0,30,11.0,0.0
6480,84.0,0,30,10.0,0.0
6481,48.0,32,30,8.0,0.0
6482,73.0,0,30,11.0,0.0
6483,37.0,24,300,14.0,0.0
6484,65.0,0,90,5.0,0.0
6485,53.0,0,90,5.0,0.0
6486,49.0,0,300,13.0,0.0
6487,65.0,0,90,6.0,0.0
6488,73.0,0,90,3.0,0.0
6489,65.0,0,30,12.0,0.0
6490,85.0,0,90,0.0,0.0
6491,89.0,0,90,0.0,0.0
6492,73.0,0,90,2.0,0.0
6493,61.0,0,90,4.0,0.0
6494,65.0,16,90,7.0,0.0
6495,85.0,40,30,10.0,0.0
6496,41.0,0,90,8.0,0.0
6497,77.0,0,90,2.0,0.0
6498,53.0,0,90,4.0,0.0
6499,73.0,0,30,11.0,0.0
6500,85.0,0,30,10.0,0.0
6501,65.0,24,30,12.0,0.0
6502,65.0,40,30,12.0,0.0
6503,73.0,0,30,11.0,0.0
6504,85.0,0,30,10.0,0.0
6505,73.0,40,30,11.0,0.0
6506,85.0,0,30,10.0,0.0
6507,77.0,0,90,2.0,0.0
6508,61.0,0,90,4.0,0.0
6509,73.0,0,90,3.0,0.0
6510,53.0,0,90,4.0,0.0
6511,53.0,0,30,12.0,0.0
6512,73.0,0,90,2.0,0.0
6513,85.0,0,90,0.0,0.0
6514,65.0,16,90,3.0,0.0
6515,85.0,0,30,10.0,0.0
6516,73.0,0,30,11.0,0.0
6517,53.0,24,30,12.0,0.0
6518,53.0,0,30,12.0,0.0
6519,85.0,0,30,10.0,0.0
6520,73.0,40,30,11.0,0.0
6521,65.0,0,90,3.0,0.0
6522,53.0,16,90,4.0,0.0
6523,85.0,16,210,0.0,0.0
6524,73.0,0,30,11.0,0.0
6525,61.0,0,210,4.0,0.0
6526,73.0,0,210,3.0,0.0
6527,77.0,32,120,2.0,0.0
6528,73.0,0,210,2.0,0.0
6529,85.0,0,30,10.0,0.0
6530,53.0,16,30,12.0,0.0
6531,53.0,24,30,12.0,0.0
6532,73.0,0,30,11.0,0.0
6533,85.0,0,30,10.0,0.0
6534,53.0,0,30,12.0,0.0
6535,73.0,0,30,11.0,0.0
6536,85.0,8,30,10.0,0.0
6537,30.0,24,300,14.0,0.0
6538,58.0,0,90,4.0,0.0
6539,70.0,0,90,3.0,0.0
6540,58.0,0,30,12.0,0.0
6541,42.0,0,300,13.0,0.0
6542,85.0,0,30,10.0,0.0
6543,73.0,40,30,11.0,0.0
6544,82.0,0,90,2.0,0.0
6545,58.0,0,30,12.0,0.0
6546,85.0,0,30,10.0,0.0
6547,73.0,24,30,11.0,0.0
6548,73.0,0,30,11.0,0.0
6549,85.0,0,30,10.0,0.0
6550,58.0,40,30,12.0,0.0
6551,73.0,0,90,2.0,0.0
6552,78.0,16,90,2.0,0.0
6553,82.0,0,90,0.0,0.0
6554,58.0,0,30,12.0,0.0
6555,58.0,0,90,4.0,0.0
6556,54.0,0,90,4.0,0.0
6557,66.0,0,90,3.0,0.0
6558,70.0,0,30,11.0,0.0
6559,82.0,40,30,10.0,0.0
6560,70.0,0,90,3.0,0.0
6561,70.0,0,30,11.0,0.0
6562,82.0,0,30,10.0,0.0
6563,58.0,24,30,12.0,0.0
6564,82.0,0,30,10.0,0.0
6565,70.0,40,30,11.0,0.0
6566,58.0,0,30,12.0,0.0
6567,82.0,16,30,10.0,0.0
6568,70.0,0,30,11.0,0.0
6569,78.0,32,240,2.0,0.0
6570,73.0,32,120,2.0,0.0
6571,66.0,0,210,3.0,0.0
6572,82.0,16,210,0.0,0.0
6573,58.0,0,210,4.0,0.0
6574,54.0,0,210,4.0,0.0
6575,58.0,0,30,12.0,0.0
6576,70.0,0,210,3.0,0.0
6577,58.0,0,30,12.0,0.0
6578,82.0,40,30,10.0,0.0
6579,70.0,0,30,11.0,0.0
6580,70.0,0,30,11.0,0.0
6581,58.0,0,30,12.0,0.0
6582,82.0,8,30,10.0,0.0
6583,70.0,0,30,11.0,0.0
6584,63.0,0,90,6.0,0.0
6585,39.0,24,300,13.0,0.0
6586,75.0,0,90,2.0,0.0
6587,54.0,40,30,12.0,0.0
6588,51.0,0,300,13.0,0.0
6589,39.0,0,300,14.0,0.0
6590,27.0,0,300,14.0,0.0
6591,82.0,0,30,10.0,0.0
6592,82.0,24,30,10.0,0.0
6593,54.0,0,30,12.0,0.0
6594,70.0,0,30,11.0,0.0
6595,70.0,8,30,11.0,0.0
6596,54.0,0,30,12.0,0.0
6597,82.0,0,30,10.0,0.0
6598,66.0,0,90,3.0,0.0
6599,63.0,0,90,6.0,0.0
6600,82.0,0,90,0.0,0.0
6601,75.0,0,90,2.0,0.0
6602,54.0,0,90,4.0,0.0
6603,78.0,0,90,2.0,0.0
6604,58.0,16,90,4.0,0.0
6605,70.0,0,90,3.0,0.0
6606,78.0,0,30,10.0,0.0
6607,54.0,0,30,12.0,0.0
6608,87.0,0,90,0.0,0.0
6609,66.0,40,30,11.0,0.0
6610,78.0,0,30,10.0,0.0
6611,54.0,0,30,12.0,0.0
6612,66.0,24,30,11.0,0.0
6613,54.0,0,30,12.0,0.0
6614,66.0,0,30,11.0,0.0
6615,78.0,40,30,10.0,0.0
6616,87.0,0,210,0.0,0.0
6617,82.0,32,120,0.0,0.0
6618,70.0,16,90,3.0,0.0
6619,58.0,0,90,4.0,0.0
6620,78.0,16,210,2.0,0.0
6621,75.0,0,210,2.0,0.0
6622,54.0,16,30,12.0,0.0
6623,63.0,0,210,6.0,0.0
6624,66.0,0,210,3.0,0.0
6625,54.0,0,210,4.0,0.0
6626,78.0,0,30,10.0,0.0
6627,66.0,0,30,11.0,0.0
6628,66.0,0,30,11.0,0.0
6629,54.0,24,30,12.0,0.0
6630,78.0,0,30,10.0,0.0
6631,66.0,0,30,11.0,0.0
6632,54.0,8,30,12.0,0.0
6633,78.0,0,30,10.0,0.0
6634,54.0,0,30,12.0,0.0
6635,84.0,0,90,0.0,0.0
6636,72.0,0,90,3.0,0.0
6637,66.0,0,30,11.0,0.0
6638,51.0,0,30,12.0,0.0
6639,44.0,24,300,13.0,0.0
6640,48.0,0,90,8.0,0.0
6641,60.0,0,90,5.0,0.0
6642,60.0,0,90,4.0,0.0
6643,60.0,0,90,7.0,0.0
6644,78.0,40,30,10.0,0.0
6645,72.0,0,90,7.0,0.0
6646,48.0,0,90,5.0,0.0
6647,32.0,0,300,14.0,0.0
6648,78.0,24,30,10.0,0.0
6649,54.0,0,30,12.0,0.0
6650,66.0,0,30,11.0,0.0
6651,51.0,0,30,12.0,0.0
6652,54.0,0,30,12.0,0.0
6653,51.0,0,30,12.0,0.0
6654,66.0,40,30,11.0,0.0
6655,78.0,0,30,10.0,0.0
6656,63.0,0,90,6.0,0.0
6657,60.0,16,90,4.0,0.0
6658,54.0,0,30,12.0,0.0
6659,51.0,40,30,12.0,0.0
6660,54.0,0,90,4.0,0.0
6661,63.0,0,30,11.0,0.0
6662,87.0,0,90,0.0,0.0
6663,84.0,0,90,0.0,0.0
6664,78.0,0,90,2.0,0.0
6665,75.0,0,90,2.0,0.0
6666,75.0,0,30,10.0,0.0
6667,66.0,0,90,3.0,0.0
6668,72.0,0,90,3.0,0.0
6669,60.0,0,90,5.0,0.0
6670,63.0,24,30,11.0,0.0
6671,75.0,0,30,10.0,0.0
6672,51.0,0,30,12.0,0.0
6673,54.0,0,30,12.0,0.0
6674,75.0,0,30,10.0,0.0
6675,51.0,0,30,12.0,0.0
6676,54.0,40,30,12.0,0.0
6677,63.0,0,30,11.0,0.0
6678,72.0,0,90,3.0,0.0
6679,75.0,0,90,2.0,0.0
6680,84.0,0,90,0.0,0.0
6681,66.0,0,90,3.0,0.0
6682,51.0,0,30,12.0,0.0
6683,54.0,0,30,12.0,0.0
6684,60.0,16,90,5.0,0.0
6685,75.0,0,90,0.0,0.0
6686,78.0,0,90,2.0,0.0
6687,56.0,0,90,4.0,0.0
6688,51.0,0,90,4.0,0.0
6689,72.0,0,30,10.0,0.0
6690,60.0,16,30,11.0,0.0
6691,63.0,0,90,6.0,0.0
6692,51.0,0,30,12.0,0.0
6693,60.0,0,30,11.0,0.0
6694,72.0,0,30,10.0,0.0
6695,54.0,24,30,12.0,0.0
6696,72.0,0,30,10.0,0.0
6697,54.0,56,30,12.0,0.0
6698,51.0,0,30,12.0,0.0
6699,60.0,0,30,11.0,0.0
6700,73.0,0,90,3.0,0.0
6701,77.0,0,90,2.0,0.0
6702,73.0,0,90,2.0,0.0
6703,65.0,0,90,3.0,0.0
6704,65.0,0,90,7.0,0.0
6705,49.0,0,40,13.0,0.0
6706,49.0,60,660,4.0,0.0
6707,53.0,0,40,12.0,0.0
6708,41.0,0,90,8.0,0.0
6709,65.0,0,90,5.0,0.0
6710,65.0,0,90,6.0,0.0
6711,37.0,0,40,14.0,0.0
6712,61.0,0,90,11.0,0.0
6713,85.0,0,90,0.0,0.0
6714,49.0,48,40,12.0,0.0
6715,77.0,0,90,0.0,0.0
6716,53.0,0,660,4.0,0.0
6717,53.0,0,90,5.0,0.0
6718,73.0,12,90,10.0,0.0
6719,53.0,0,40,12.0,0.0
6720,56.0,0,40,12.0,0.0
6721,49.0,0,40,13.0,0.0
6722,37.0,60,40,14.0,0.0
6723,49.0,0,40,12.0,0.0
6724,49.0,60,40,13.0,0.0
6725,56.0,0,40,12.0,0.0
6726,53.0,0,40,12.0,0.0
6727,49.0,0,40,12.0,0.0
6728,37.0,0,40,14.0,0.0
6729,37.0,0,40,14.0,0.0
6730,61.0,0,40,10.0,0.0
6731,61.0,0,40,11.0,0.0
6732,49.0,60,40,13.0,0.0
6733,49.0,0,40,12.0,0.0
6734,53.0,0,40,12.0,0.0
6735,56.0,0,40,12.0,0.0
6736,49.0,0,40,13.0,0.0
6737,49.0,0,40,12.0,0.0
6738,53.0,0,40,12.0,0.0
6739,56.0,60,40,12.0,0.0
6740,63.0,0,40,11.0,0.0
6741,63.0,0,40,10.0,0.0
6742,37.0,0,40,14.0,0.0
6743,37.0,0,40,14.0,0.0
6744,65.0,0,40,11.0,0.0
6745,49.0,0,40,13.0,0.0
6746,65.0,0,40,10.0,0.0
6747,49.0,0,40,12.0,0.0
6748,53.0,60,40,12.0,0.0
6749,56.0,0,40,12.0,0.0
6750,56.0,0,40,12.0,0.0
6751,53.0,0,40,12.0,0.0
6752,49.0,0,40,12.0,0.0
6753,66.0,0,40,10.0,0.0
6754,37.0,0,40,14.0,0.0
6755,49.0,0,40,13.0,0.0
6756,66.0,60,40,11.0,0.0
6757,49.0,0,40,12.0,0.0
6758,53.0,0,40,12.0,0.0
6759,56.0,0,40,12.0,0.0
6760,68.0,0,40,11.0,0.0
6761,49.0,0,40,13.0,0.0
6762,68.0,0,40,10.0,0.0
6763,37.0,60,40,14.0,0.0
6764,49.0,0,40,12.0,0.0
6765,53.0,0,40,12.0,0.0
6766,56.0,0,40,12.0,0.0
6767,70.0,0,40,11.0,0.0
6768,37.0,0,40,14.0,0.0
6769,70.0,0,40,10.0,0.0
6770,49.0,60,40,13.0,0.0
6771,72.0,0,40,11.0,0.0
6772,49.0,0,40,13.0,0.0
6773,56.0,0,40,12.0,0.0
6774,53.0,0,40,12.0,0.0
6775,49.0,0,40,12.0,0.0
6776,72.0,60,40,10.0,0.0
6777,37.0,0,40,14.0,0.0
6778,37.0,0,40,14.0,0.0
6779,73.0,0,40,11.0,0.0
6780,73.0,0,40,10.0,0.0
6781,49.0,0,40,12.0,0.0
6782,49.0,0,40,13.0,0.0
6783,56.0,0,40,12.0,0.0
6784,53.0,0,40,12.0,0.0
6785,37.0,0,40,14.0,0.0
6786,53.0,0,40,12.0,0.0
6787,75.0,0,40,11.0,0.0
6788,49.0,0,40,12.0,0.0
6789,49.0,0,40,13.0,0.0
6790,56.0,0,40,12.0,0.0
6791,75.0,60,40,10.0,0.0
6792,77.0,0,90,11.0,0.0
6793,77.0,0,90,7.0,0.0
6794,65.0,12,90,7.0,0.0
6795,49.0,48,40,13.0,0.0
6796,49.0,0,40,12.0,0.0
6797,53.0,0,40,12.0,0.0
6798,56.0,0,40,12.0,0.0
6799,53.0,0,660,4.0,0.0
6800,49.0,0,660,4.0,0.0
6801,65.0,0,90,5.0,0.0
6802,53.0,0,90,5.0,0.0
6803,77.0,0,90,10.0,0.0
6804,65.0,0,90,3.0,0.0
6805,65.0,0,90,6.0,0.0
6806,37.0,0,40,14.0,0.0
6807,89.0,0,90,0.0,0.0
6808,41.0,0,90,8.0,0.0
6809,77.0,0,90,2.0,0.0
6810,73.0,0,90,2.0,0.0
6811,73.0,0,90,3.0,0.0
6812,85.0,0,90,0.0,0.0
6813,37.0,0,40,14.0,0.0
6814,56.0,60,40,12.0,0.0
6815,53.0,0,40,12.0,0.0
6816,49.0,0,40,13.0,0.0
6817,49.0,0,40,12.0,0.0
6818,49.0,0,40,12.0,0.0
6819,49.0,0,40,13.0,0.0
6820,56.0,60,40,12.0,0.0
6821,53.0,0,40,12.0,0.0
6822,37.0,0,40,14.0,0.0
6823,37.0,60,40,14.0,0.0
6824,49.0,0,40,12.0,0.0
6825,49.0,0,40,13.0,0.0
6826,56.0,0,40,12.0,0.0
6827,65.0,0,40,10.0,0.0
6828,65.0,0,40,11.0,0.0
6829,53.0,0,40,12.0,0.0
6830,66.0,0,40,10.0,0.0
6831,37.0,60,40,14.0,0.0
6832,66.0,0,40,11.0,0.0
6833,53.0,0,40,12.0,0.0
6834,49.0,0,40,12.0,0.0
6835,49.0,0,40,13.0,0.0
6836,56.0,0,40,12.0,0.0
6837,68.0,0,40,10.0,0.0
6838,37.0,60,40,14.0,0.0
6839,53.0,0,40,12.0,0.0
6840,49.0,0,40,12.0,0.0
6841,49.0,0,40,13.0,0.0
6842,68.0,0,40,11.0,0.0
6843,56.0,0,40,12.0,0.0
6844,70.0,0,40,10.0,0.0
6845,49.0,0,40,13.0,0.0
6846,56.0,60,40,12.0,0.0
6847,70.0,0,40,11.0,0.0
6848,37.0,0,40,14.0,0.0
6849,49.0,0,40,12.0,0.0
6850,53.0,0,40,12.0,0.0
6851,53.0,0,40,12.0,0.0
6852,49.0,0,40,12.0,0.0
6853,37.0,0,40,14.0,0.0
6854,49.0,0,40,13.0,0.0
6855,72.0,0,40,10.0,0.0
6856,56.0,60,40,12.0,0.0
6857,72.0,0,40,11.0,0.0
6858,37.0,0,40,14.0,0.0
6859,73.0,0,40,11.0,0.0
6860,49.0,0,40,13.0,0.0
6861,49.0,0,40,12.0,0.0
6862,73.0,0,40,10.0,0.0
6863,56.0,0,40,12.0,0.0
6864,53.0,60,40,12.0,0.0
6865,49.0,0,40,12.0,0.0
6866,75.0,0,40,10.0,0.0
6867,75.0,0,40,11.0,0.0
6868,49.0,0,40,13.0,0.0
6869,53.0,0,40,12.0,0.0
6870,37.0,60,40,14.0,0.0
6871,56.0,0,40,12.0,0.0
6872,49.0,60,40,12.0,0.0
6873,77.0,0,40,10.0,0.0
6874,77.0,0,40,11.0,0.0
6875,49.0,0,40,13.0,0.0
6876,56.0,0,40,12.0,0.0
6877,37.0,0,40,14.0,0.0
6878,53.0,0,40,12.0,0.0
6879,78.0,0,40,10.0,0.0
6880,56.0,0,40,12.0,0.0
6881,49.0,0,40,13.0,0.0
6882,78.0,0,40,11.0,0.0
6883,53.0,60,40,12.0,0.0
6884,49.0,0,40,12.0,0.0
6885,37.0,0,40,14.0,0.0
6886,53.0,0,40,12.0,0.0
6887,56.0,0,40,12.0,0.0
6888,37.0,0,40,14.0,0.0
6889,80.0,12,90,10.0,0.0
6890,49.0,0,40,12.0,0.0
6891,73.0,0,90,3.0,0.0
6892,89.0,0,90,0.0,0.0
6893,68.0,0,90,6.0,0.0
6894,80.0,0,90,11.0,0.0
6895,49.0,48,40,13.0,0.0
6896,65.0,0,90,7.0,0.0
6897,77.0,0,90,7.0,0.0
6898,92.0,0,90,0.0,0.0
6899,77.0,0,90,2.0,0.0
6900,80.0,0,90,2.0,0.0
6901,65.0,0,90,6.0,0.0
6902,53.0,0,90,5.0,0.0
6903,41.0,0,90,8.0,0.0
6904,65.0,0,90,5.0,0.0
6905,53.0,0,600,4.0,0.0
6906,65.0,0,90,3.0,0.0
6907,49.0,3,600,4.0,0.0
6908,56.0,60,40,12.0,0.0
6909,53.0,0,40,12.0,0.0
6910,49.0,0,40,13.0,0.0
6911,37.0,0,40,14.0,0.0
6912,49.0,0,40,12.0,0.0
6913,37.0,60,40,14.0,0.0
6914,49.0,0,40,13.0,0.0
6915,56.0,0,40,12.0,0.0
6916,53.0,0,40,12.0,0.0
6917,49.0,0,40,12.0,0.0
6918,37.0,0,40,14.0,0.0
6919,56.0,0,40,12.0,0.0
6920,53.0,0,40,12.0,0.0
6921,49.0,0,40,12.0,0.0
6922,65.0,0,40,11.0,0.0
6923,49.0,60,40,13.0,0.0
6924,65.0,0,40,10.0,0.0
6925,37.0,0,40,14.0,0.0
6926,49.0,0,40,13.0,0.0
6927,53.0,60,40,12.0,0.0
6928,56.0,0,40,12.0,0.0
6929,66.0,0,40,10.0,0.0
6930,66.0,0,40,11.0,0.0
6931,49.0,0,40,12.0,0.0
6932,68.0,0,40,10.0,0.0
6933,49.0,60,40,12.0,0.0
6934,56.0,0,40,12.0,0.0
6935,53.0,0,40,12.0,0.0
6936,68.0,0,40,11.0,0.0
6937,49.0,0,40,13.0,0.0
6938,37.0,0,40,14.0,0.0
6939,37.0,60,40,14.0,0.0
6940,49.0,0,40,12.0,0.0
6941,53.0,0,40,12.0,0.0
6942,56.0,0,40,12.0,0.0
6943,70.0,0,40,11.0,0.0
6944,70.0,0,40,10.0,0.0
6945,49.0,0,40,13.0,0.0
6946,49.0,0,40,13.0,0.0
6947,56.0,0,40,12.0,0.0
6948,72.0,0,40,10.0,0.0
6949,49.0,0,40,12.0,0.0
6950,53.0,0,40,12.0,0.0
6951,37.0,60,40,14.0,0.0
6952,72.0,0,40,11.0,0.0
6953,53.0,0,40,12.0,0.0
6954,56.0,0,40,12.0,0.0
6955,49.0,0,40,12.0,0.0
6956,77.0,0,90,2.0,0.0
6957,41.0,0,90,8.0,0.0
6958,80.0,0,90,2.0,0.0
6959,77.0,0,90,7.0,0.0
6960,65.0,0,90,7.0,0.0
6961,89.0,0,90,0.0,0.0
6962,92.0,9,90,0.0,0.0
6963,68.0,0,90,6.0,0.0
6964,65.0,0,90,6.0,0.0
6965,49.0,0,40,13.0,0.0
6966,37.0,0,40,14.0,0.0
6967,73.0,0,40,11.0,0.0
6968,65.0,0,90,5.0,0.0
6969,73.0,48,40,10.0,0.0
6970,77.0,0,90,3.0,0.0
6971,53.0,0,90,5.0,0.0
6972,73.0,0,90,3.0,0.0
6973,49.0,0,40,13.0,0.0
6974,53.0,60,40,12.0,0.0
6975,49.0,0,40,12.0,0.0
6976,56.0,0,40,12.0,0.0
6977,75.0,0,40,10.0,0.0
6978,75.0,0,40,11.0,0.0
6979,37.0,0,40,14.0,0.0
6980,68.0,0,90,6.0,0.0
6981,65.0,12,90,6.0,0.0
6982,65.0,0,90,5.0,0.0
6983,53.0,0,90,5.0,0.0
6984,77.0,0,40,11.0,0.0
6985,89.0,0,90,0.0,0.0
6986,61.0,0,90,4.0,0.0
6987,49.0,0,40,13.0,0.0
6988,65.0,0,90,4.0,0.0
6989,92.0,0,90,0.0,0.0
6990,77.0,0,90,3.0,0.0
6991,77.0,48,40,10.0,0.0
6992,41.0,0,90,8.0,0.0
6993,73.0,0,90,3.0,0.0
6994,53.0,0,40,12.0,0.0
6995,56.0,0,40,12.0,0.0
6996,80.0,0,90,2.0,0.0
6997,77.0,0,90,2.0,0.0
6998,49.0,0,40,12.0,0.0
6999,65.0,0,90,7.0,0.0
7000,37.0,0,40,14.0,0.0
7001,77.0,0,90,7.0,0.0
7002,37.0,0,40,14.0,0.0
7003,49.0,0,40,12.0,0.0
7004,78.0,0,40,10.0,0.0
7005,49.0,0,40,13.0,0.0
7006,56.0,60,40,12.0,0.0
7007,78.0,0,40,11.0,0.0
7008,53.0,0,40,12.0,0.0
7009,78.0,0,300,2.0,0.0
7010,60.0,0,300,5.0,0.0
7011,75.0,0,300,2.0,0.0
7012,56.0,0,40,12.0,0.0
7013,54.0,0,40,12.0,0.0
7014,51.0,0,40,12.0,0.0
7015,48.0,12,90,8.0,0.0
7016,80.0,0,180,10.0,0.0
7017,80.0,0,180,3.0,0.0
7018,68.0,0,180,3.0,0.0
7019,49.0,0,40,13.0,0.0
7020,63.0,36,180,4.0,0.0
7021,66.0,0,180,4.0,0.0
7022,37.0,48,40,14.0,0.0
7023,92.0,0,180,0.0,0.0
7024,63.0,0,300,6.0,0.0
7025,80.0,0,180,11.0,0.0
7026,72.0,55,120,7.0,0.0
7027,37.0,5,40,14.0,0.0
7028,51.0,0,40,12.0,0.0
7029,49.0,0,40,13.0,0.0
7030,56.0,0,40,12.0,0.0
7031,54.0,0,40,12.0,0.0
7032,54.0,0,40,12.0,0.0
7033,49.0,24,40,13.0,0.0
7034,56.0,0,40,12.0,0.0
7035,37.0,0,40,14.0,0.0
7036,51.0,0,40,12.0,0.0
7037,56.0,0,40,12.0,0.0
7038,49.0,0,40,13.0,0.0
7039,54.0,60,40,12.0,0.0
7040,37.0,0,40,14.0,0.0
7041,51.0,0,40,12.0,0.0
7042,37.0,0,40,14.0,0.0
7043,72.0,0,90,3.0,0.0
7044,72.0,0,90,10.0,0.0
7045,56.0,0,40,12.0,0.0
7046,54.0,0,40,12.0,0.0
7047,51.0,0,40,12.0,0.0
7048,60.0,12,90,3.0,0.0
7049,84.0,0,40,0.0,0.0
7050,60.0,0,90,4.0,0.0
7051,63.0,0,90,4.0,0.0
7052,72.0,0,90,11.0,0.0
7053,49.0,48,40,13.0,0.0
7054,37.0,0,40,14.0,0.0
7055,49.0,0,40,13.0,0.0
7056,54.0,0,40,12.0,0.0
7057,56.0,60,40,12.0,0.0
7058,51.0,0,40,12.0,0.0
7059,56.0,0,40,12.0,0.0
7060,54.0,0,40,12.0,0.0
7061,51.0,0,40,12.0,0.0
7062,80.0,0,180,3.0,0.0
7063,48.0,12,90,8.0,0.0
7064,37.0,48,40,14.0,0.0
7065,63.0,36,180,4.0,0.0
7066,66.0,0,180,4.0,0.0
7067,63.0,0,300,6.0,0.0
7068,49.0,0,40,13.0,0.0
7069,80.0,0,180,11.0,0.0
7070,68.0,0,180,3.0,0.0
7071,60.0,0,300,5.0,0.0
7072,78.0,0,300,2.0,0.0
7073,92.0,0,180,0.0,0.0
7074,80.0,0,180,10.0,0.0
7075,72.0,55,120,7.0,0.0
7076,75.0,0,300,2.0,0.0
7077,49.0,0,40,13.0,0.0
7078,37.0,0,40,14.0,0.0
7079,51.0,0,40,12.0,0.0
7080,54.0,0,40,12.0,0.0
7081,56.0,5,40,12.0,0.0
7082,51.0,0,40,12.0,0.0
7083,56.0,0,40,12.0,0.0
7084,37.0,0,40,14.0,0.0
7085,49.0,24,40,13.0,0.0
7086,54.0,0,40,12.0,0.0
7087,37.0,0,40,14.0,0.0
7088,54.0,0,40,12.0,0.0
7089,56.0,0,40,12.0,0.0
7090,49.0,60,40,13.0,0.0
7091,51.0,0,40,12.0,0.0
7092,72.0,12,90,3.0,0.0
7093,72.0,0,90,11.0,0.0
7094,60.0,0,90,3.0,0.0
7095,72.0,0,90,10.0,0.0
7096,51.0,0,40,12.0,0.0
7097,54.0,0,40,12.0,0.0
7098,56.0,0,40,12.0,0.0
7099,49.0,0,40,13.0,0.0
7100,63.0,0,90,4.0,0.0
7101,60.0,0,90,4.0,0.0
7102,37.0,0,40,14.0,0.0
7103,84.0,48,40,0.0,0.0
7104,49.0,0,40,13.0,0.0
7105,54.0,0,40,12.0,0.0
7106,56.0,0,40,12.0,0.0
7107,51.0,60,40,12.0,0.0
7108,37.0,0,40,14.0,0.0
7109,37.0,0,40,14.0,0.0
7110,49.0,0,40,13.0,0.0
7111,41.0,12,90,8.0,0.0
7112,68.0,0,180,3.0,0.0
7113,80.0,0,180,3.0,0.0
7114,65.0,0,300,6.0,0.0
7115,80.0,36,180,11.0,0.0
7116,77.0,55,120,7.0,0.0
7117,53.0,48,300,5.0,0.0
7118,49.0,48,40,12.0,0.0
7119,65.0,0,180,4.0,0.0
7120,56.0,0,40,12.0,0.0
7121,68.0,0,180,4.0,0.0
7122,65.0,0,300,5.0,0.0
7123,73.0,0,300,2.0,0.0
7124,77.0,0,300,2.0,0.0
7125,92.0,0,180,0.0,0.0
7126,65.0,0,120,7.0,0.0
7127,80.0,0,180,10.0,0.0
7128,53.0,0,40,12.0,0.0
7129,49.0,0,40,12.0,0.0
7130,49.0,0,40,13.0,0.0
7131,53.0,0,40,12.0,0.0
7132,56.0,0,40,12.0,0.0
7133,37.0,5,40,14.0,0.0
7134,49.0,24,40,12.0,0.0
7135,53.0,0,40,12.0,0.0
7136,56.0,0,40,12.0,0.0
7137,37.0,0,40,14.0,0.0
7138,49.0,0,40,13.0,0.0
7139,49.0,0,40,13.0,0.0
7140,37.0,0,40,14.0,0.0
7141,53.0,0,40,12.0,0.0
7142,49.0,0,40,12.0,0.0
7143,56.0,60,40,12.0,0.0
7144,61.0,0,90,3.0,0.0
7145,49.0,0,40,13.0,0.0
7146,49.0,0,40,12.0,0.0
7147,73.0,0,90,10.0,0.0
7148,53.0,0,40,12.0,0.0
7149,73.0,0,90,11.0,0.0
7150,61.0,0,90,4.0,0.0
7151,37.0,0,40,14.0,0.0
7152,65.0,0,90,4.0,0.0
7153,84.0,0,40,0.0,0.0
7154,56.0,0,40,12.0,0.0
7155,73.0,12,90,3.0,0.0
7156,53.0,60,40,12.0,0.0
7157,49.0,0,40,13.0,0.0
7158,49.0,0,40,12.0,0.0
7159,37.0,0,40,14.0,0.0
7160,56.0,0,40,12.0,0.0
7161,63.0,0,300,6.0,0.0
7162,78.0,0,300,2.0,0.0
7163,60.0,0,300,5.0,0.0
7164,51.0,0,40,12.0,0.0
7165,54.0,0,40,12.0,0.0
7166,56.0,0,40,12.0,0.0
7167,63.0,0,180,4.0,0.0
7168,66.0,0,180,4.0,0.0
7169,72.0,55,120,7.0,0.0
7170,80.0,0,180,10.0,0.0
7171,75.0,0,300,2.0,0.0
7172,80.0,0,180,3.0,0.0
7173,49.0,0,40,13.0,0.0
7174,80.0,0,180,11.0,0.0
7175,37.0,48,40,14.0,0.0
7176,68.0,0,180,3.0,0.0
7177,48.0,12,90,8.0,0.0
7178,92.0,36,180,0.0,0.0
7179,54.0,0,40,12.0,0.0
7180,56.0,0,40,12.0,0.0
7181,51.0,0,40,12.0,0.0
7182,37.0,5,40,14.0,0.0
7183,49.0,0,40,13.0,0.0
7184,56.0,0,40,12.0,0.0
7185,54.0,24,40,12.0,0.0
7186,51.0,0,40,12.0,0.0
7187,49.0,0,40,13.0,0.0
7188,37.0,0,40,14.0,0.0
7189,49.0,0,40,13.0,0.0
7190,51.0,0,40,12.0,0.0
7191,37.0,0,40,14.0,0.0
7192,54.0,0,40,12.0,0.0
7193,56.0,60,40,12.0,0.0
7194,60.0,0,90,4.0,0.0
7195,56.0,0,40,12.0,0.0
7196,54.0,0,40,12.0,0.0
7197,37.0,0,40,14.0,0.0
7198,51.0,0,40,12.0,0.0
7199,72.0,0,90,10.0,0.0
7200,84.0,0,40,0.0,0.0
7201,49.0,48,40,13.0,0.0
7202,60.0,0,90,3.0,0.0
7203,63.0,0,90,4.0,0.0
7204,72.0,0,90,3.0,0.0
7205,72.0,0,90,11.0,0.0
7206,56.0,0,40,12.0,0.0
7207,49.0,0,40,13.0,0.0
7208,54.0,60,40,12.0,0.0
7209,51.0,0,40,12.0,0.0
7210,37.0,0,40,14.0,0.0
7211,56.0,0,40,12.0,0.0
7212,53.0,0,40,12.0,0.0
7213,49.0,48,40,12.0,0.0
7214,65.0,0,300,6.0,0.0
7215,80.0,36,180,11.0,0.0
7216,80.0,0,180,3.0,0.0
7217,65.0,0,180,4.0,0.0
7218,65.0,0,120,7.0,0.0
7219,77.0,0,300,2.0,0.0
7220,53.0,0,300,5.0,0.0
7221,65.0,0,300,5.0,0.0
7222,68.0,0,180,4.0,0.0
7223,49.0,0,40,13.0,0.0
7224,77.0,55,120,7.0,0.0
7225,68.0,0,180,3.0,0.0
7226,80.0,0,180,10.0,0.0
7227,41.0,12,90,8.0,0.0
7228,73.0,0,300,2.0,0.0
7229,37.0,0,40,14.0,0.0
7230,92.0,0,180,0.0,0.0
7231,37.0,0,40,14.0,0.0
7232,56.0,0,40,12.0,0.0
7233,49.0,0,40,13.0,0.0
7234,53.0,5,40,12.0,0.0
7235,49.0,0,40,12.0,0.0
7236,49.0,0,40,12.0,0.0
7237,56.0,0,40,12.0,0.0
7238,37.0,0,40,14.0,0.0
7239,49.0,24,40,13.0,0.0
7240,53.0,0,40,12.0,0.0
7241,49.0,0,40,13.0,0.0
7242,49.0,0,40,12.0,0.0
7243,53.0,0,40,12.0,0.0
7244,56.0,60,40,12.0,0.0
7245,37.0,0,40,14.0,0.0
7246,61.0,0,90,3.0,0.0
7247,73.0,0,90,3.0,0.0
7248,61.0,0,90,4.0,0.0
7249,49.0,0,40,12.0,0.0
7250,53.0,48,40,12.0,0.0
7251,49.0,0,40,13.0,0.0
7252,73.0,0,90,10.0,0.0
7253,73.0,0,90,11.0,0.0
7254,65.0,12,90,4.0,0.0
7255,84.0,0,40,0.0,0.0
7256,56.0,0,40,12.0,0.0
7257,37.0,0,40,14.0,0.0
7258,37.0,60,40,14.0,0.0
7259,49.0,0,40,12.0,0.0
7260,53.0,0,40,12.0,0.0
7261,56.0,0,40,12.0,0.0
7262,49.0,0,40,13.0,0.0
7263,49.0,0,40,13.0,0.0
7264,66.0,0,180,4.0,0.0
7265,63.0,0,180,4.0,0.0
7266,80.0,0,180,10.0,0.0
7267,72.0,55,120,7.0,0.0
7268,80.0,0,180,11.0,0.0
7269,60.0,0,300,5.0,0.0
7270,75.0,0,300,2.0,0.0
7271,78.0,0,300,2.0,0.0
7272,54.0,0,40,12.0,0.0
7273,51.0,0,40,12.0,0.0
7274,80.0,0,180,3.0,0.0
7275,68.0,0,180,3.0,0.0
7276,37.0,0,40,14.0,0.0
7277,56.0,48,40,12.0,0.0
7278,92.0,36,180,0.0,0.0
7279,48.0,12,90,8.0,0.0
7280,63.0,48,300,6.0,0.0
7281,51.0,5,40,12.0,0.0
7282,54.0,0,40,12.0,0.0
7283,56.0,0,40,12.0,0.0
7284,49.0,0,40,13.0,0.0
7285,37.0,0,40,14.0,0.0
7286,37.0,24,40,14.0,0.0
7287,56.0,0,40,12.0,0.0
7288,54.0,0,40,12.0,0.0
7289,49.0,0,40,13.0,0.0
7290,51.0,0,40,12.0,0.0
7291,54.0,0,40,12.0,0.0
7292,37.0,60,40,14.0,0.0
7293,49.0,0,40,13.0,0.0
7294,56.0,0,40,12.0,0.0
7295,51.0,0,40,12.0,0.0
7296,56.0,0,40,12.0,0.0
7297,72.0,0,90,11.0,0.0
7298,84.0,0,40,0.0,0.0
7299,51.0,0,40,12.0,0.0
7300,60.0,0,90,3.0,0.0
7301,72.0,0,90,3.0,0.0
7302,37.0,0,40,14.0,0.0
7303,60.0,0,90,4.0,0.0
7304,63.0,12,90,4.0,0.0
7305,49.0,0,40,13.0,0.0
7306,72.0,0,90,10.0,0.0
7307,54.0,0,40,12.0,0.0
7308,49.0,0,40,13.0,0.0
7309,37.0,0,40,14.0,0.0
7310,51.0,108,40,12.0,0.0
7311,56.0,0,40,12.0,0.0
7312,54.0,0,40,12.0,0.0
7313,56.0,0,90,12.0,0.0
7314,53.0,0,90,12.0,0.0
7315,49.0,0,90,12.0,0.0
7316,49.0,0,90,13.0,0.0
7317,68.0,0,90,6.0,0.0
7318,65.0,0,90,5.0,0.0
7319,37.0,0,90,14.0,0.0
7320,61.0,0,90,4.0,0.0
7321,56.0,0,90,10.0,0.0
7322,77.0,120,90,2.0,0.0
7323,56.0,0,90,11.0,0.0
7324,65.0,0,90,11.0,0.0
7325,73.0,0,90,11.0,0.0
7326,73.0,0,90,2.0,0.0
7327,65.0,0,90,10.0,0.0
7328,73.0,0,90,10.0,0.0
7329,85.0,0,90,0.0,0.0
7330,68.0,0,90,3.0,0.0
7331,65.0,0,90,3.0,0.0
7332,61.0,0,90,4.0,0.0
7333,65.0,132,90,5.0,0.0
7334,68.0,0,90,6.0,0.0
7335,68.0,0,90,3.0,0.0
7336,65.0,0,90,3.0,0.0
7337,68.0,0,40,3.0,0.0
7338,68.0,108,40,6.0,0.0
7339,65.0,0,40,3.0,0.0
7340,65.0,0,40,5.0,0.0
7341,61.0,0,40,4.0,0.0
7342,65.0,0,90,5.0,0.0
7343,68.0,0,90,3.0,0.0
7344,65.0,0,90,3.0,0.0
7345,61.0,120,90,4.0,0.0
7346,68.0,0,90,6.0,0.0
7347,68.0,0,90,3.0,0.0
7348,61.0,0,90,4.0,0.0
7349,65.0,0,90,3.0,0.0
7350,65.0,132,90,5.0,0.0
7351,68.0,0,90,6.0,0.0
7352,65.0,108,40,5.0,0.0
7353,68.0,0,40,6.0,0.0
7354,61.0,0,40,4.0,0.0
7355,65.0,0,40,3.0,0.0
7356,66.0,0,90,3.0,0.0
7357,68.0,120,90,6.0,0.0
7358,60.0,0,90,5.0,0.0
7359,63.0,0,90,3.0,0.0
7360,60.0,0,90,4.0,0.0
7361,63.0,132,90,3.0,0.0
7362,66.0,0,90,3.0,0.0
7363,68.0,0,90,6.0,0.0
7364,60.0,0,90,4.0,0.0
7365,60.0,0,90,5.0,0.0
7366,68.0,0,40,6.0,0.0
7367,63.0,0,40,3.0,0.0
7368,60.0,108,40,4.0,0.0
7369,66.0,0,40,3.0,0.0
7370,60.0,0,40,5.0,0.0
7371,66.0,0,90,3.0,0.0
7372,68.0,0,90,6.0,0.0
7373,60.0,120,90,5.0,0.0
7374,60.0,0,90,4.0,0.0
7375,63.0,0,90,3.0,0.0
7376,60.0,0,90,4.0,0.0
7377,60.0,0,90,5.0,0.0
7378,68.0,240,90,6.0,0.0
7379,66.0,0,90,3.0,0.0
7380,63.0,0,90,3.0,0.0
7381,61.0,0,90,12.0,0.0
7382,61.0,120,90,13.0,0.0
7383,80.0,96,240,10.0,0.0
7384,65.0,0,90,11.0,0.0
7385,65.0,24,90,11.0,0.0
7386,61.0,0,90,13.0,0.0
7387,61.0,0,90,12.0,0.0
7388,77.0,120,90,10.0,0.0
7389,65.0,0,90,11.0,0.0
7390,80.0,96,240,10.0,0.0
7391,61.0,0,90,13.0,0.0
7392,61.0,120,90,12.0,0.0
7393,61.0,0,90,13.0,0.0
7394,61.0,0,90,12.0,0.0
7395,65.0,24,90,11.0,0.0
7396,77.0,120,90,10.0,0.0
7397,63.0,0,90,12.0,0.0
7398,60.0,120,90,13.0,0.0
7399,65.0,0,90,11.0,0.0
7400,81.0,96,240,10.0,0.0
7401,63.0,24,90,12.0,0.0
7402,60.0,0,90,13.0,0.0
7403,65.0,0,90,11.0,0.0
7404,77.0,120,90,10.0,0.0
7405,84.0,96,240,10.0,0.0
7406,65.0,0,90,11.0,0.0
7407,57.0,0,90,13.0,0.0
7408,60.0,120,90,12.0,0.0
7409,65.0,0,90,11.0,0.0
7410,60.0,0,90,12.0,0.0
7411,57.0,24,90,13.0,0.0
7412,77.0,120,90,10.0,0.0
7413,61.0,0,90,4.0,0.0
7414,65.0,0,90,3.0,0.0
7415,65.0,0,90,5.0,0.0
7416,61.0,120,90,3.0,0.0
7417,58.0,0,90,6.0,0.0
7418,58.0,0,90,4.0,0.0
7419,65.0,132,90,5.0,0.0
7420,58.0,0,90,6.0,0.0
7421,58.0,0,90,4.0,0.0
7422,61.0,0,90,4.0,0.0
7423,61.0,0,90,3.0,0.0
7424,65.0,0,90,3.0,0.0
7425,58.0,0,40,4.0,0.0
7426,58.0,108,40,6.0,0.0
7427,65.0,0,40,5.0,0.0
7428,65.0,0,40,3.0,0.0
7429,61.0,0,40,4.0,0.0
7430,61.0,0,40,3.0,0.0
7431,65.0,0,90,5.0,0.0
7432,58.0,120,90,6.0,0.0
7433,61.0,0,90,3.0,0.0
7434,58.0,0,90,4.0,0.0
7435,61.0,0,90,4.0,0.0
7436,65.0,0,90,3.0,0.0
7437,65.0,0,90,5.0,0.0
7438,58.0,0,90,4.0,0.0
7439,61.0,0,90,4.0,0.0
7440,58.0,132,90,6.0,0.0
7441,61.0,0,90,3.0,0.0
7442,65.0,0,90,3.0,0.0
7443,65.0,0,40,5.0,0.0
7444,65.0,0,40,3.0,0.0
7445,61.0,0,40,3.0,0.0
7446,58.0,108,40,6.0,0.0
7447,58.0,0,40,4.0,0.0
7448,61.0,0,40,4.0,0.0
7449,57.0,0,90,4.0,0.0
7450,65.0,120,90,5.0,0.0
7451,60.0,0,90,3.0,0.0
7452,65.0,0,90,3.0,0.0
7453,63.0,0,90,6.0,0.0
7454,63.0,132,90,6.0,0.0
7455,60.0,0,90,3.0,0.0
7456,65.0,0,90,3.0,0.0
7457,65.0,0,90,5.0,0.0
7458,57.0,0,90,4.0,0.0
7459,57.0,0,40,4.0,0.0
7460,65.0,0,40,5.0,0.0
7461,63.0,108,40,6.0,0.0
7462,60.0,0,40,3.0,0.0
7463,65.0,0,40,3.0,0.0
7464,65.0,0,90,3.0,0.0
7465,60.0,0,90,3.0,0.0
7466,63.0,120,90,6.0,0.0
7467,65.0,0,90,5.0,0.0
7468,57.0,0,90,4.0,0.0
7469,63.0,0,90,6.0,0.0
7470,65.0,0,90,3.0,0.0
7471,65.0,240,90,5.0,0.0
7472,60.0,0,90,3.0,0.0
7473,57.0,0,90,4.0,0.0
7474,61.0,120,90,11.0,0.0
7475,58.0,0,90,12.0,0.0
7476,77.0,96,240,10.0,0.0
7477,58.0,0,90,13.0,0.0
7478,61.0,0,90,11.0,0.0
7479,58.0,0,90,13.0,0.0
7480,58.0,24,90,12.0,0.0
7481,73.0,120,90,10.0,0.0
7482,58.0,0,90,13.0,0.0
7483,61.0,120,90,11.0,0.0
7484,82.0,96,240,10.0,0.0
7485,58.0,0,90,12.0,0.0
7486,58.0,0,90,13.0,0.0
7487,58.0,24,90,12.0,0.0
7488,61.0,0,90,11.0,0.0
7489,77.0,120,90,10.0,0.0
7490,82.0,96,240,10.0,0.0
7491,60.0,120,90,11.0,0.0
7492,55.0,0,90,13.0,0.0
7493,58.0,0,90,12.0,0.0
7494,60.0,0,90,11.0,0.0
7495,58.0,0,90,12.0,0.0
7496,55.0,24,90,13.0,0.0
7497,76.0,120,90,10.0,0.0
7498,55.0,120,90,12.0,0.0
7499,60.0,0,90,11.0,0.0
7500,52.0,0,90,13.0,0.0
7501,82.0,96,240,10.0,0.0
7502,55.0,24,90,12.0,0.0
7503,60.0,0,90,11.0,0.0
7504,52.0,0,90,13.0,0.0
7505,79.0,120,90,10.0,0.0
7506,60.0,0,90,11.0,0.0
7507,60.0,0,90,5.0,0.0
7508,56.0,0,90,12.0,0.0
7509,53.0,0,90,12.0,0.0
7510,60.0,0,90,10.0,0.0
7511,48.0,0,90,5.0,0.0
7512,80.0,120,90,2.0,0.0
7513,72.0,0,90,2.0,0.0
7514,48.0,0,90,8.0,0.0
7515,72.0,0,90,7.0,0.0
7516,84.0,0,90,0.0,0.0
7517,60.0,0,90,7.0,0.0
7518,41.0,0,90,13.0,0.0
7519,29.0,0,90,14.0,0.0
7520,60.0,0,90,10.0,0.0
7521,72.0,0,90,7.0,0.0
7522,29.0,0,90,14.0,0.0
7523,48.0,0,90,8.0,0.0
7524,84.0,0,90,0.0,0.0
7525,60.0,0,90,7.0,0.0
7526,60.0,132,90,5.0,0.0
7527,60.0,0,90,11.0,0.0
7528,72.0,0,90,2.0,0.0
7529,80.0,0,90,2.0,0.0
7530,56.0,0,90,12.0,0.0
7531,53.0,0,90,12.0,0.0
7532,41.0,0,90,13.0,0.0
7533,48.0,0,90,5.0,0.0
7534,72.0,0,40,7.0,0.0
7535,41.0,0,40,13.0,0.0
7536,60.0,0,40,11.0,0.0
7537,80.0,0,40,2.0,0.0
7538,72.0,0,40,2.0,0.0
7539,48.0,0,40,8.0,0.0
7540,56.0,0,40,12.0,0.0
7541,29.0,0,40,14.0,0.0
7542,84.0,0,40,0.0,0.0
7543,60.0,0,40,10.0,0.0
7544,60.0,108,40,5.0,0.0
7545,48.0,0,40,5.0,0.0
7546,53.0,0,40,12.0,0.0
7547,60.0,0,40,7.0,0.0
7548,48.0,0,90,8.0,0.0
7549,72.0,0,90,7.0,0.0
7550,60.0,0,90,7.0,0.0
7551,29.0,0,90,14.0,0.0
7552,80.0,0,90,2.0,0.0
7553,60.0,0,90,10.0,0.0
7554,60.0,0,90,11.0,0.0
7555,53.0,0,90,12.0,0.0
7556,56.0,0,90,12.0,0.0
7557,72.0,120,90,2.0,0.0
7558,84.0,0,90,0.0,0.0
7559,41.0,0,90,13.0,0.0
7560,60.0,0,90,5.0,0.0
7561,48.0,0,90,5.0,0.0
7562,48.0,0,90,5.0,0.0
7563,60.0,0,90,10.0,0.0
7564,60.0,0,90,11.0,0.0
7565,72.0,0,90,7.0,0.0
7566,60.0,0,90,7.0,0.0
7567,29.0,0,90,14.0,0.0
7568,41.0,0,90,13.0,0.0
7569,48.0,132,90,8.0,0.0
7570,84.0,0,90,0.0,0.0
7571,56.0,0,90,12.0,0.0
7572,53.0,0,90,12.0,0.0
7573,80.0,0,90,2.0,0.0
7574,72.0,0,90,2.0,0.0
7575,60.0,0,90,5.0,0.0
7576,60.0,0,40,11.0,0.0
7577,60.0,0,40,10.0,0.0
7578,80.0,0,40,2.0,0.0
7579,72.0,0,40,2.0,0.0
7580,48.0,0,40,8.0,0.0
7581,41.0,0,40,13.0,0.0
7582,56.0,0,40,12.0,0.0
7583,48.0,0,40,5.0,0.0
7584,60.0,0,40,5.0,0.0
7585,72.0,0,40,7.0,0.0
7586,60.0,108,40,7.0,0.0
7587,29.0,0,40,14.0,0.0
7588,84.0,0,40,0.0,0.0
7589,28.0,0,90,14.0,0.0
7590,84.0,0,90,0.0,0.0
7591,60.0,0,90,7.0,0.0
7592,40.0,0,90,13.0,0.0
7593,48.0,0,90,8.0,0.0
7594,60.0,0,90,5.0,0.0
7595,60.0,0,90,11.0,0.0
7596,55.0,0,90,12.0,0.0
7597,60.0,0,90,10.0,0.0
7598,79.0,120,90,2.0,0.0
7599,72.0,0,90,2.0,0.0
7600,72.0,0,90,7.0,0.0
7601,48.0,0,90,5.0,0.0
7602,28.0,0,90,14.0,0.0
7603,84.0,0,90,0.0,0.0
7604,60.0,0,90,7.0,0.0
7605,72.0,0,90,7.0,0.0
7606,55.0,0,90,12.0,0.0
7607,60.0,0,90,10.0,0.0
7608,72.0,0,90,2.0,0.0
7609,48.0,0,90,8.0,0.0
7610,48.0,0,90,5.0,0.0
7611,60.0,0,90,5.0,0.0
7612,40.0,0,90,13.0,0.0
7613,60.0,0,90,11.0,0.0
7614,79.0,384,90,2.0,0.0
7615,72.0,0,240,11.0,0.0
7616,84.0,48,240,10.0,0.0
7617,79.0,1080,40,10.0,0.0
7618,67.0,0,40,11.0,0.0
7619,65.0,72,2100,3.0,0.0
7620,53.0,720,660,4.0,0.0
7621,68.0,72,660,3.0,0.0
7622,67.0,0,660,3.0,0.0
7623,49.0,0,15,4.0,0.0
7624,61.0,648,15,4.0,0.0
7625,73.0,0,720,2.0,0.0
7626,60.0,0,720,4.0,0.0
7627,48.0,0,720,4.0,0.0
7628,67.0,0,720,3.0,0.0
7629,64.0,24,720,3.0,0.0
7630,72.0,0,720,2.0,0.0
7631,72.0,18,150,10.0,0.0
7632,48.0,0,20,8.0,0.0
7633,72.0,0,390,2.0,0.0
7634,67.0,0,390,3.0,0.0
7635,60.0,0,390,5.0,0.0
7636,48.0,0,390,5.0,0.0
7637,48.0,0,60,13.0,0.0
7638,67.0,0,20,11.0,0.0
7639,64.0,30,20,12.0,0.0
7640,36.0,24,60,14.0,0.0
7641,64.0,0,390,3.0,0.0
7642,48.0,0,20,8.0,0.0
7643,64.0,0,20,12.0,0.0
7644,67.0,6,20,11.0,0.0
7645,35.0,0,40,14.0,0.0
7646,47.0,6,40,13.0,0.0
7647,48.0,0,20,8.0,0.0
7648,67.0,0,20,11.0,0.0
7649,64.0,24,20,12.0,0.0
7650,67.0,30,20,11.0,0.0
7651,48.0,0,20,8.0,0.0
7652,64.0,0,20,12.0,0.0
7653,48.0,6,20,8.0,0.0
7654,64.0,0,20,12.0,0.0
7655,36.0,6,40,14.0,0.0
7656,67.0,0,20,11.0,0.0
7657,48.0,0,40,13.0,0.0
7658,67.0,0,20,11.0,0.0
7659,71.0,24,30,10.0,0.0
7660,64.0,0,20,12.0,0.0
7661,48.0,6,20,8.0,0.0
7662,64.0,6,20,12.0,0.0
7663,36.0,0,40,14.0,0.0
7664,48.0,6,40,13.0,0.0
7665,72.0,18,30,10.0,0.0
7666,48.0,0,20,8.0,0.0
7667,67.0,0,20,11.0,0.0
7668,64.0,6,20,12.0,0.0
7669,67.0,0,20,11.0,0.0
7670,48.0,0,20,8.0,0.0
7671,74.0,24,30,10.0,0.0
7672,67.0,0,20,11.0,0.0
7673,48.0,0,40,13.0,0.0
7674,76.0,6,40,10.0,0.0
7675,64.0,0,20,12.0,0.0
7676,48.0,24,20,8.0,0.0
7677,36.0,0,40,14.0,0.0
7678,64.0,0,20,12.0,0.0
7679,67.0,30,20,11.0,0.0
7680,48.0,0,20,8.0,0.0
7681,48.0,24,20,8.0,0.0
7682,64.0,0,20,12.0,0.0
7683,36.0,6,40,14.0,0.0
7684,48.0,0,40,13.0,0.0
7685,67.0,0,20,11.0,0.0
7686,64.0,0,20,12.0,0.0
7687,67.0,0,20,11.0,0.0
7688,48.0,30,20,8.0,0.0
7689,48.0,6,40,13.0,0.0
7690,64.0,0,20,12.0,0.0
7691,48.0,0,20,8.0,0.0
7692,36.0,0,40,14.0,0.0
7693,67.0,24,20,11.0,0.0
7694,67.0,0,20,11.0,0.0
7695,64.0,30,20,12.0,0.0
7696,48.0,0,20,8.0,0.0
7697,67.0,0,20,11.0,0.0
7698,48.0,6,40,13.0,0.0
7699,48.0,0,20,8.0,0.0
7700,36.0,0,40,14.0,0.0
7701,64.0,24,20,12.0,0.0
7702,48.0,0,20,8.0,0.0
7703,64.0,30,20,12.0,0.0
7704,67.0,0,20,11.0,0.0
7705,72.0,0,390,2.0,0.0
7706,67.0,24,390,3.0,0.0
7707,48.0,0,390,5.0,0.0
7708,64.0,0,20,12.0,0.0
7709,64.0,0,390,3.0,0.0
7710,48.0,0,20,8.0,0.0
7711,36.0,24,60,14.0,0.0
7712,72.0,18,150,10.0,0.0
7713,67.0,30,20,11.0,0.0
7714,60.0,0,390,5.0,0.0
7715,48.0,0,60,13.0,0.0
7716,67.0,0,20,11.0,0.0
7717,64.0,6,20,12.0,0.0
7718,48.0,0,20,8.0,0.0
7719,35.0,6,40,14.0,0.0
7720,67.0,0,20,11.0,0.0
7721,48.0,24,20,8.0,0.0
7722,47.0,0,40,13.0,0.0
7723,64.0,0,20,12.0,0.0
7724,67.0,0,20,11.0,0.0
7725,48.0,0,20,8.0,0.0
7726,64.0,30,20,12.0,0.0
7727,36.0,6,40,14.0,0.0
7728,67.0,6,20,11.0,0.0
7729,64.0,0,20,12.0,0.0
7730,48.0,0,20,8.0,0.0
7731,48.0,0,40,13.0,0.0
7732,48.0,6,20,8.0,0.0
7733,67.0,0,20,11.0,0.0
7734,71.0,24,30,10.0,0.0
7735,64.0,0,20,12.0,0.0
7736,48.0,6,20,8.0,0.0
7737,64.0,0,20,12.0,0.0
7738,36.0,6,40,14.0,0.0
7739,48.0,0,40,13.0,0.0
7740,67.0,0,20,11.0,0.0
7741,72.0,18,30,10.0,0.0
7742,64.0,6,20,12.0,0.0
7743,48.0,0,20,8.0,0.0
7744,74.0,24,30,10.0,0.0
7745,67.0,0,20,11.0,0.0
7746,48.0,6,40,13.0,0.0
7747,64.0,24,20,12.0,0.0
7748,76.0,0,40,10.0,0.0
7749,48.0,0,20,8.0,0.0
7750,36.0,0,40,14.0,0.0
7751,67.0,0,20,11.0,0.0
7752,64.0,0,20,12.0,0.0
7753,48.0,0,20,8.0,0.0
7754,67.0,30,20,11.0,0.0
7755,64.0,24,20,12.0,0.0
7756,48.0,6,40,13.0,0.0
7757,67.0,0,20,11.0,0.0
7758,36.0,0,40,14.0,0.0
7759,48.0,0,20,8.0,0.0
7760,67.0,0,20,11.0,0.0
7761,48.0,0,20,8.0,0.0
7762,64.0,30,20,12.0,0.0
7763,36.0,0,40,14.0,0.0
7764,64.0,0,20,12.0,0.0
7765,48.0,6,40,13.0,0.0
7766,67.0,0,20,11.0,0.0
7767,48.0,0,20,8.0,0.0
7768,64.0,30,20,12.0,0.0
7769,48.0,0,20,8.0,0.0
7770,67.0,0,20,11.0,0.0
7771,48.0,6,40,13.0,0.0
7772,48.0,0,20,8.0,0.0
7773,67.0,0,20,11.0,0.0
7774,36.0,0,40,14.0,0.0
7775,64.0,24,20,12.0,0.0
7776,48.0,30,20,8.0,0.0
7777,64.0,0,20,12.0,0.0
7778,67.0,0,20,11.0,0.0
7779,71.0,0,390,2.0,0.0
7780,48.0,0,20,8.0,0.0
7781,36.0,0,60,14.0,0.0
7782,74.0,18,150,10.0,0.0
7783,74.0,0,390,2.0,0.0
7784,65.0,0,390,3.0,0.0
7785,60.0,0,390,5.0,0.0
7786,48.0,0,390,5.0,0.0
7787,68.0,0,390,3.0,0.0
7788,68.0,0,20,12.0,0.0
7789,65.0,0,20,11.0,0.0
7790,71.0,30,20,11.0,0.0
7791,48.0,24,60,13.0,0.0
7792,71.0,0,20,11.0,0.0
7793,65.0,0,20,11.0,0.0
7794,48.0,0,20,8.0,0.0
7795,68.0,6,20,12.0,0.0
7796,71.0,0,20,11.0,0.0
7797,35.0,6,40,14.0,0.0
7798,68.0,0,20,12.0,0.0
7799,65.0,0,20,11.0,0.0
7800,47.0,0,40,13.0,0.0
7801,48.0,24,20,8.0,0.0
7802,48.0,0,20,8.0,0.0
7803,71.0,0,20,11.0,0.0
7804,65.0,30,20,11.0,0.0
7805,68.0,0,20,12.0,0.0
7806,71.0,0,20,11.0,0.0
7807,36.0,6,40,14.0,0.0
7808,48.0,0,40,13.0,0.0
7809,68.0,6,20,12.0,0.0
7810,48.0,0,20,8.0,0.0
7811,65.0,0,20,11.0,0.0
7812,68.0,0,20,12.0,0.0
7813,71.0,0,20,11.0,0.0
7814,65.0,6,20,11.0,0.0
7815,73.0,24,30,10.0,0.0
7816,48.0,0,20,8.0,0.0
7817,71.0,0,20,11.0,0.0
7818,65.0,6,20,11.0,0.0
7819,74.0,18,30,10.0,0.0
7820,36.0,6,40,14.0,0.0
7821,48.0,0,20,8.0,0.0
7822,48.0,0,40,13.0,0.0
7823,68.0,0,20,12.0,0.0
7824,65.0,0,20,11.0,0.0
7825,71.0,0,20,11.0,0.0
7826,48.0,0,20,8.0,0.0
7827,68.0,6,20,12.0,0.0
7828,76.0,24,30,10.0,0.0
7829,77.0,0,40,10.0,0.0
7830,71.0,24,20,11.0,0.0
7831,48.0,0,20,8.0,0.0
7832,65.0,0,20,11.0,0.0
7833,36.0,0,40,14.0,0.0
7834,68.0,0,20,12.0,0.0
7835,48.0,6,40,13.0,0.0
7836,48.0,0,20,8.0,0.0
7837,68.0,0,20,12.0,0.0
7838,71.0,0,20,11.0,0.0
7839,65.0,30,20,11.0,0.0
7840,65.0,0,20,11.0,0.0
7841,36.0,6,40,14.0,0.0
7842,48.0,0,40,13.0,0.0
7843,48.0,24,20,8.0,0.0
7844,71.0,0,20,11.0,0.0
7845,68.0,0,20,12.0,0.0
7846,48.0,0,20,8.0,0.0
7847,68.0,0,20,12.0,0.0
7848,71.0,0,20,11.0,0.0
7849,65.0,30,20,11.0,0.0
7850,71.0,24,20,11.0,0.0
7851,48.0,0,40,13.0,0.0
7852,48.0,0,20,8.0,0.0
7853,68.0,0,20,12.0,0.0
7854,36.0,6,40,14.0,0.0
7855,65.0,0,20,11.0,0.0
7856,65.0,30,20,11.0,0.0
7857,48.0,0,20,8.0,0.0
7858,68.0,0,20,12.0,0.0
7859,71.0,0,20,11.0,0.0
7860,36.0,6,40,14.0,0.0
7861,71.0,24,20,11.0,0.0
7862,48.0,0,20,8.0,0.0
7863,48.0,0,40,13.0,0.0
7864,68.0,0,20,12.0,0.0
7865,65.0,0,20,11.0,0.0
7866,48.0,0,20,8.0,0.0
7867,65.0,30,20,11.0,0.0
7868,71.0,0,20,11.0,0.0
7869,68.0,0,20,12.0,0.0
7870,74.0,0,150,10.0,0.0
7871,74.0,0,390,2.0,0.0
7872,60.0,0,390,5.0,0.0
7873,48.0,0,390,5.0,0.0
7874,68.0,0,390,3.0,0.0
7875,36.0,0,60,14.0,0.0
7876,71.0,24,390,2.0,0.0
7877,48.0,0,20,8.0,0.0
7878,71.0,0,20,11.0,0.0
7879,65.0,0,20,11.0,0.0
7880,48.0,24,60,13.0,0.0
7881,68.0,30,20,12.0,0.0
7882,65.0,0,390,3.0,0.0
7883,65.0,0,20,11.0,0.0
7884,71.0,6,20,11.0,0.0
7885,68.0,0,20,12.0,0.0
7886,48.0,0,20,8.0,0.0
7887,48.0,24,20,8.0,0.0
7888,35.0,6,40,14.0,0.0
7889,65.0,0,20,11.0,0.0
7890,71.0,0,20,11.0,0.0
7891,68.0,0,20,12.0,0.0
7892,47.0,0,40,13.0,0.0
7893,65.0,0,20,11.0,0.0
7894,71.0,0,20,11.0,0.0
7895,68.0,0,20,12.0,0.0
7896,48.0,30,20,8.0,0.0
7897,48.0,6,40,13.0,0.0
7898,71.0,0,20,11.0,0.0
7899,65.0,0,20,11.0,0.0
7900,36.0,0,40,14.0,0.0
7901,48.0,24,20,8.0,0.0
7902,68.0,0,20,12.0,0.0
7903,73.0,0,20,10.0,0.0
7904,71.0,0,20,11.0,0.0
7905,68.0,0,20,12.0,0.0
7906,65.0,30,20,11.0,0.0
7907,48.0,0,20,8.0,0.0
7908,36.0,6,40,14.0,0.0
7909,71.0,0,20,11.0,0.0
7910,48.0,0,20,8.0,0.0
7911,74.0,0,20,10.0,0.0
7912,68.0,24,20,12.0,0.0
7913,48.0,0,40,13.0,0.0
7914,65.0,0,20,11.0,0.0
7915,65.0,0,20,11.0,0.0
7916,71.0,0,20,11.0,0.0
7917,76.0,0,20,10.0,0.0
7918,48.0,30,20,8.0,0.0
7919,68.0,0,20,12.0,0.0
7920,36.0,0,40,14.0,0.0
7921,65.0,0,20,11.0,0.0
7922,77.0,0,40,10.0,0.0
7923,68.0,0,20,12.0,0.0
7924,71.0,24,20,11.0,0.0
7925,48.0,0,20,8.0,0.0
7926,48.0,6,40,13.0,0.0
7927,65.0,0,20,11.0,0.0
7928,71.0,0,20,11.0,0.0
7929,48.0,30,20,8.0,0.0
7930,68.0,0,20,12.0,0.0
7931,68.0,0,20,12.0,0.0
7932,48.0,0,20,8.0,0.0
7933,65.0,0,20,11.0,0.0
7934,71.0,24,20,11.0,0.0
7935,48.0,6,40,13.0,0.0
7936,36.0,0,40,14.0,0.0
7937,65.0,0,20,11.0,0.0
7938,71.0,0,20,11.0,0.0
7939,48.0,0,20,8.0,0.0
7940,68.0,30,20,12.0,0.0
7941,48.0,0,20,8.0,0.0
7942,36.0,6,40,14.0,0.0
7943,65.0,0,20,11.0,0.0
7944,71.0,0,20,11.0,0.0
7945,68.0,0,20,12.0,0.0
7946,48.0,0,40,13.0,0.0
7947,71.0,0,20,11.0,0.0
7948,65.0,30,20,11.0,0.0
7949,68.0,0,20,12.0,0.0
7950,48.0,0,20,8.0,0.0
7951,48.0,6,40,13.0,0.0
7952,65.0,24,20,11.0,0.0
7953,36.0,0,40,14.0,0.0
7954,68.0,0,20,12.0,0.0
7955,48.0,0,20,8.0,0.0
7956,71.0,0,20,11.0,0.0
7957,48.0,0,20,8.0,0.0
7958,71.0,0,20,11.0,0.0
7959,68.0,30,20,12.0,0.0
7960,65.0,0,20,11.0,0.0
7961,67.0,6,20,12.0,0.0
7962,55.0,12,180,4.0,0.0
7963,48.0,0,60,13.0,0.0
7964,48.0,0,20,8.0,0.0
7965,48.0,0,390,5.0,0.0
7966,60.0,0,390,5.0,0.0
7967,67.0,0,180,3.0,0.0
7968,70.0,0,180,3.0,0.0
7969,76.0,0,180,2.0,0.0
7970,36.0,0,60,14.0,0.0
7971,72.0,0,180,2.0,0.0
7972,76.0,24,30,10.0,0.0
7973,52.0,0,180,4.0,0.0
7974,70.0,0,20,11.0,0.0
7975,48.0,6,20,8.0,0.0
7976,67.0,0,20,12.0,0.0
7977,74.0,24,30,10.0,0.0
7978,70.0,0,20,11.0,0.0
7979,47.0,0,40,13.0,0.0
7980,35.0,6,40,14.0,0.0
7981,67.0,0,20,12.0,0.0
7982,70.0,0,20,11.0,0.0
7983,76.0,18,30,10.0,0.0
7984,48.0,6,20,8.0,0.0
7985,70.0,0,20,11.0,0.0
7986,67.0,0,20,12.0,0.0
7987,48.0,0,20,8.0,0.0
7988,77.0,30,20,10.0,0.0
7989,64.0,0,20,12.0,0.0
7990,36.0,0,40,14.0,0.0
7991,48.0,0,20,8.0,0.0
7992,48.0,0,40,13.0,0.0
7993,67.0,24,20,11.0,0.0
7994,79.0,6,40,10.0,0.0
7995,48.0,0,20,8.0,0.0
7996,67.0,0,20,11.0,0.0
7997,64.0,18,20,12.0,0.0
7998,67.0,24,20,11.0,0.0
7999,48.0,0,20,8.0,0.0
8000,64.0,0,20,12.0,0.0
8001,48.0,0,40,13.0,0.0
8002,36.0,6,40,14.0,0.0
8003,64.0,0,20,12.0,0.0
8004,67.0,30,20,11.0,0.0
8005,48.0,0,20,8.0,0.0
8006,48.0,0,20,8.0,0.0
8007,52.0,12,180,4.0,0.0
8008,55.0,0,180,4.0,0.0
8009,72.0,0,180,2.0,0.0
8010,76.0,0,180,2.0,0.0
8011,76.0,24,30,10.0,0.0
8012,36.0,24,60,14.0,0.0
8013,70.0,0,180,3.0,0.0
8014,67.0,0,180,3.0,0.0
8015,70.0,6,20,11.0,0.0
8016,67.0,0,20,12.0,0.0
8017,48.0,0,60,13.0,0.0
8018,48.0,0,20,8.0,0.0
8019,74.0,0,30,10.0,0.0
8020,67.0,6,20,12.0,0.0
8021,70.0,0,20,11.0,0.0
8022,48.0,0,20,8.0,0.0
8023,67.0,0,20,12.0,0.0
8024,76.0,18,30,10.0,0.0
8025,47.0,0,40,13.0,0.0
8026,70.0,6,20,11.0,0.0
8027,35.0,6,40,14.0,0.0
8028,77.0,0,20,10.0,0.0
8029,70.0,30,20,11.0,0.0
8030,48.0,0,20,8.0,0.0
8031,67.0,0,20,12.0,0.0
8032,64.0,0,20,12.0,0.0
8033,48.0,0,40,13.0,0.0
8034,79.0,0,40,10.0,0.0
8035,36.0,6,40,14.0,0.0
8036,67.0,24,20,11.0,0.0
8037,48.0,0,20,8.0,0.0
8038,64.0,0,20,12.0,0.0
8039,67.0,0,20,11.0,0.0
8040,48.0,18,20,8.0,0.0
8041,48.0,0,40,13.0,0.0
8042,48.0,24,20,8.0,0.0
8043,36.0,6,40,14.0,0.0
8044,64.0,0,20,12.0,0.0
8045,67.0,0,20,11.0,0.0
8046,67.0,30,20,11.0,0.0
8047,64.0,0,20,12.0,0.0
8048,48.0,0,20,8.0,0.0
8049,72.0,6,20,11.0,0.0
8050,48.0,0,20,8.0,0.0
8051,53.0,0,180,4.0,0.0
8052,60.0,0,390,5.0,0.0
8053,72.0,0,180,2.0,0.0
8054,69.0,0,20,12.0,0.0
8055,77.0,0,180,2.0,0.0
8056,48.0,0,390,5.0,0.0
8057,48.0,24,60,13.0,0.0
8058,69.0,0,180,3.0,0.0
8059,65.0,0,180,3.0,0.0
8060,77.0,24,30,10.0,0.0
8061,57.0,12,180,4.0,0.0
8062,36.0,0,60,14.0,0.0
8063,72.0,0,20,11.0,0.0
8064,76.0,0,30,10.0,0.0
8065,69.0,6,20,12.0,0.0
8066,48.0,0,20,8.0,0.0
8067,48.0,0,20,8.0,0.0
8068,35.0,0,40,14.0,0.0
8069,47.0,6,40,13.0,0.0
8070,69.0,0,20,12.0,0.0
8071,77.0,18,30,10.0,0.0
8072,72.0,6,20,11.0,0.0
8073,79.0,24,30,10.0,0.0
8074,48.0,0,20,8.0,0.0
8075,72.0,0,20,11.0,0.0
8076,69.0,6,20,12.0,0.0
8077,69.0,0,20,11.0,0.0
8078,48.0,6,40,13.0,0.0
8079,48.0,0,20,8.0,0.0
8080,65.0,24,20,12.0,0.0
8081,81.0,0,40,10.0,0.0
8082,36.0,0,40,14.0,0.0
8083,65.0,0,20,12.0,0.0
8084,69.0,0,20,11.0,0.0
8085,48.0,18,20,8.0,0.0
8086,69.0,0,20,11.0,0.0
8087,48.0,24,20,8.0,0.0
8088,48.0,0,40,13.0,0.0
8089,36.0,6,40,14.0,0.0
8090,65.0,0,20,12.0,0.0
8091,69.0,30,20,11.0,0.0
8092,65.0,0,20,12.0,0.0
8093,48.0,0,20,8.0,0.0
8094,69.0,0,180,3.0,0.0
8095,53.0,0,180,4.0,0.0
8096,57.0,0,180,4.0,0.0
8097,65.0,12,180,3.0,0.0
8098,77.0,24,30,10.0,0.0
8099,48.0,0,60,13.0,0.0
8100,72.0,0,20,11.0,0.0
8101,72.0,0,180,2.0,0.0
8102,77.0,0,180,2.0,0.0
8103,48.0,6,20,8.0,0.0
8104,69.0,0,20,12.0,0.0
8105,36.0,24,60,14.0,0.0
8106,76.0,0,30,10.0,0.0
8107,69.0,0,20,12.0,0.0
8108,72.0,0,20,11.0,0.0
8109,48.0,6,20,8.0,0.0
8110,35.0,0,40,14.0,0.0
8111,69.0,6,20,12.0,0.0
8112,47.0,6,40,13.0,0.0
8113,48.0,0,20,8.0,0.0
8114,72.0,0,20,11.0,0.0
8115,77.0,18,30,10.0,0.0
8116,48.0,0,20,8.0,0.0
8117,72.0,0,20,11.0,0.0
8118,69.0,6,20,12.0,0.0
8119,79.0,24,30,10.0,0.0
8120,48.0,0,40,13.0,0.0
8121,81.0,6,40,10.0,0.0
8122,65.0,24,20,12.0,0.0
8123,69.0,0,20,11.0,0.0
8124,48.0,0,20,8.0,0.0
8125,36.0,0,40,14.0,0.0
8126,65.0,18,20,12.0,0.0
8127,48.0,0,20,8.0,0.0
8128,69.0,0,20,11.0,0.0
8129,48.0,0,20,8.0,0.0
8130,69.0,0,20,11.0,0.0
8131,65.0,24,20,12.0,0.0
8132,36.0,6,40,14.0,0.0
8133,48.0,0,40,13.0,0.0
8134,48.0,26,20,8.0,0.0
8135,65.0,0,20,12.0,0.0
8136,69.0,0,20,11.0,0.0
8137,55.0,0,180,4.0,0.0
8138,60.0,0,40,12.0,0.0
8139,76.0,6,20,11.0,0.0
8140,79.0,0,180,2.0,0.0
8141,52.0,8,180,4.0,0.0
8142,76.0,0,180,2.0,0.0
8143,67.0,0,180,3.0,0.0
8144,48.0,0,20,8.0,0.0
8145,64.0,0,180,3.0,0.0
8146,79.0,10,30,10.0,0.0
8147,36.0,6,40,14.0,0.0
8148,84.0,4,20,1.0,0.0
8149,60.0,4,570,5.0,0.0
8150,48.0,0,570,5.0,0.0
8151,48.0,0,40,13.0,0.0
8152,86.0,0,20,1.0,0.0
8153,77.0,0,30,10.0,0.0
8154,75.0,6,20,11.0,0.0
8155,84.0,20,20,1.0,0.0
8156,48.0,8,15,8.0,0.0
8157,80.0,10,30,10.0,0.0
8158,48.0,0,15,8.0,0.0
8159,47.0,6,40,13.0,0.0
8160,76.0,6,20,11.0,0.0
8161,35.0,0,40,14.0,0.0
8162,86.0,0,20,1.0,0.0
8163,59.0,0,40,12.0,0.0
8164,84.0,0,20,1.0,0.0
8165,48.0,4,15,8.0,0.0
8166,81.0,0,30,10.0,0.0
8167,77.0,6,20,11.0,0.0
8168,86.0,0,20,1.0,0.0
8169,48.0,8,15,8.0,0.0
8170,76.0,0,40,11.0,0.0
8171,60.0,0,40,12.0,0.0
8172,48.0,0,40,13.0,0.0
8173,84.0,20,20,1.0,0.0
8174,48.0,20,15,8.0,0.0
8175,82.0,0,40,10.0,0.0
8176,36.0,12,40,14.0,0.0
8177,48.0,0,15,8.0,0.0
8178,86.0,8,20,1.0,0.0
8179,84.0,0,20,1.0,0.0
8180,48.0,12,15,8.0,0.0
8181,79.0,0,40,11.0,0.0
8182,86.0,0,20,1.0,0.0
8183,36.0,12,40,14.0,0.0
8184,60.0,0,40,12.0,0.0
8185,48.0,0,40,13.0,0.0
8186,84.0,0,20,1.0,0.0
8187,48.0,8,15,8.0,0.0
8188,86.0,20,20,1.0,0.0
8189,77.0,6,20,11.0,0.0
8190,48.0,0,40,13.0,0.0
8191,84.0,4,20,1.0,0.0
8192,65.0,0,180,3.0,0.0
8193,57.0,0,180,4.0,0.0
8194,81.0,10,30,10.0,0.0
8195,81.0,4,180,2.0,0.0
8196,36.0,0,40,14.0,0.0
8197,53.0,0,180,4.0,0.0
8198,77.0,0,180,2.0,0.0
8199,69.0,0,180,3.0,0.0
8200,60.0,6,40,12.0,0.0
8201,48.0,0,15,8.0,0.0
8202,86.0,0,20,1.0,0.0
8203,76.0,6,20,11.0,0.0
8204,80.0,0,30,10.0,0.0
8205,84.0,20,20,1.0,0.0
8206,48.0,8,15,8.0,0.0
8207,59.0,6,40,12.0,0.0
8208,81.0,6,30,10.0,0.0
8209,48.0,0,20,8.0,0.0
8210,35.0,0,40,14.0,0.0
8211,77.0,6,20,11.0,0.0
8212,86.0,4,20,1.0,0.0
8213,47.0,0,40,13.0,0.0
8214,48.0,4,15,8.0,0.0
8215,84.0,8,20,1.0,0.0
8216,82.0,16,30,10.0,0.0
8217,79.0,2,20,11.0,0.0
8218,86.0,0,20,1.0,0.0
8219,48.0,4,15,8.0,0.0
8220,60.0,0,40,12.0,0.0
8221,36.0,8,40,14.0,0.0
8222,48.0,4,15,8.0,0.0
8223,84.0,16,20,1.0,0.0
8224,84.0,0,40,10.0,0.0
8225,48.0,0,40,13.0,0.0
8226,81.0,0,40,11.0,0.0
8227,86.0,8,20,1.0,0.0
8228,48.0,4,15,8.0,0.0
8229,84.0,12,20,1.0,0.0
8230,48.0,4,15,8.0,0.0
8231,48.0,4,15,8.0,0.0
8232,60.0,0,40,12.0,0.0
8233,86.0,16,20,1.0,0.0
8234,77.0,0,40,11.0,0.0
8235,36.0,8,40,14.0,0.0
8236,48.0,0,40,13.0,0.0
8237,84.0,8,20,1.0,0.0
8238,48.0,4,15,8.0,0.0
8239,86.0,20,20,1.0,0.0
8240,48.0,4,15,8.0,0.0
8241,84.0,0,20,1.0,0.0
8242,72.0,0,390,7.0,0.0
8243,55.0,0,40,4.0,0.0
8244,58.0,0,40,4.0,0.0
8245,48.0,0,40,13.0,0.0
8246,82.0,0,60,2.0,0.0
8247,79.0,0,60,2.0,0.0
8248,84.0,0,390,0.0,0.0
8249,36.0,6,40,14.0,0.0
8250,70.0,0,60,3.0,0.0
8251,82.0,0,20,10.0,0.0
8252,79.0,16,20,11.0,0.0
8253,67.0,0,20,12.0,0.0
8254,67.0,0,60,3.0,0.0
8255,60.0,0,390,7.0,0.0
8256,86.0,0,20,1.0,0.0
8257,48.0,4,15,8.0,0.0
8258,72.0,0,20,12.0,0.0
8259,82.0,0,20,10.0,0.0
8260,79.0,6,20,11.0,0.0
8261,84.0,0,20,1.0,0.0
8262,48.0,8,15,8.0,0.0
8263,86.0,0,20,1.0,0.0
8264,72.0,0,20,12.0,0.0
8265,69.0,0,40,3.0,0.0
8266,77.0,0,20,11.0,0.0
8267,66.0,0,40,3.0,0.0
8268,48.0,0,40,14.0,0.0
8269,81.0,12,20,10.0,0.0
8270,54.0,0,40,4.0,0.0
8271,57.0,0,40,4.0,0.0
8272,60.0,6,40,13.0,0.0
8273,81.0,0,40,2.0,0.0
8274,78.0,0,40,2.0,0.0
8275,48.0,20,15,8.0,0.0
8276,84.0,8,20,1.0,0.0
8277,72.0,6,20,12.0,0.0
8278,81.0,0,20,10.0,0.0
8279,77.0,0,20,11.0,0.0
8280,48.0,0,15,8.0,0.0
8281,86.0,0,20,1.0,0.0
8282,70.0,0,40,3.0,0.0
8283,67.0,0,40,3.0,0.0
8284,55.0,0,40,4.0,0.0
8285,58.0,6,40,4.0,0.0
8286,72.0,0,20,12.0,0.0
8287,72.0,8,180,5.0,0.0
8288,84.0,0,20,1.0,0.0
8289,82.0,4,40,2.0,0.0
8290,60.0,0,40,13.0,0.0
8291,79.0,0,40,2.0,0.0
8292,60.0,0,180,5.0,0.0
8293,79.0,12,20,11.0,0.0
8294,48.0,0,40,14.0,0.0
8295,82.0,0,20,10.0,0.0
8296,86.0,8,20,1.0,0.0
8297,48.0,4,15,8.0,0.0
8298,79.0,0,20,11.0,0.0
8299,72.0,0,20,12.0,0.0
8300,82.0,6,20,10.0,0.0
8301,84.0,20,20,1.0,0.0
8302,72.0,0,40,3.0,0.0
8303,60.0,6,40,13.0,0.0
8304,81.0,0,20,11.0,0.0
8305,48.0,0,15,8.0,0.0
8306,57.0,0,40,4.0,0.0
8307,60.0,0,40,4.0,0.0
8308,84.0,0,20,10.0,0.0
8309,86.0,0,20,1.0,0.0
8310,69.0,4,40,3.0,0.0
8311,84.0,0,40,2.0,0.0
8312,81.0,0,40,2.0,0.0
8313,72.0,12,20,12.0,0.0
8314,48.0,0,40,14.0,0.0
8315,84.0,0,20,1.0,0.0
8316,48.0,4,15,8.0,0.0
8317,81.0,0,20,11.0,0.0
8318,72.0,6,20,12.0,0.0
8319,84.0,0,20,10.0,0.0
8320,86.0,0,20,1.0,0.0
8321,48.0,20,20,8.0,0.0
8322,82.0,0,40,2.0,0.0
8323,82.0,12,20,11.0,0.0
8324,72.0,0,20,12.0,0.0
8325,74.0,0,40,3.0,0.0
8326,84.0,4,20,1.0,0.0
8327,86.0,4,40,2.0,0.0
8328,60.0,0,40,13.0,0.0
8329,70.0,0,40,3.0,0.0
8330,58.0,0,40,4.0,0.0
8331,48.0,6,40,14.0,0.0
8332,62.0,0,40,4.0,0.0
8333,86.0,0,20,10.0,0.0
8334,48.0,0,20,8.0,0.0
8335,86.0,0,20,1.0,0.0
8336,48.0,8,20,8.0,0.0
8337,86.0,0,20,10.0,0.0
8338,72.0,6,20,12.0,0.0
8339,82.0,0,20,11.0,0.0
8340,84.0,0,20,1.0,0.0
8341,76.0,0,40,2.0,0.0
8342,72.0,0,40,2.0,0.0
8343,64.0,0,40,4.0,0.0
8344,60.0,0,40,4.0,0.0
8345,60.0,0,40,13.0,0.0
8346,72.0,0,20,12.0,0.0
8347,88.0,0,20,10.0,0.0
8348,84.0,12,20,11.0,0.0
8349,76.0,0,40,3.0,0.0
8350,72.0,0,40,3.0,0.0
8351,48.0,12,15,8.0,0.0
8352,86.0,0,20,1.0,0.0
8353,48.0,6,40,14.0,0.0
8354,48.0,4,15,8.0,0.0
8355,84.0,8,20,1.0,0.0
8356,88.0,0,20,10.0,0.0
8357,84.0,2,20,11.0,0.0
8358,72.0,0,20,12.0,0.0
8359,86.0,0,15,1.0,0.0
8360,48.0,20,15,8.0,0.0
8361,48.0,8,15,8.0,0.0
8362,60.0,0,40,13.0,0.0
8363,65.0,0,40,4.0,0.0
8364,89.0,0,20,10.0,0.0
8365,86.0,0,20,11.0,0.0
8366,62.0,6,40,4.0,0.0
8367,77.0,12,40,3.0,0.0
8368,72.0,12,20,12.0,0.0
8369,72.0,0,90,5.0,0.0
8370,74.0,0,40,2.0,0.0
8371,77.0,0,40,2.0,0.0
8372,86.0,0,20,1.0,0.0
8373,74.0,0,40,3.0,0.0
8374,48.0,0,40,14.0,0.0
8375,60.0,0,90,5.0,0.0
8376,48.0,0,15,8.0,0.0
8377,89.0,0,20,10.0,0.0
8378,86.0,0,20,11.0,0.0
8379,88.0,2,20,1.0,0.0
8380,72.0,0,20,12.0,0.0
8381,48.0,20,15,8.0,0.0
8382,48.0,6,40,14.0,0.0
8383,76.0,0,40,3.0,0.0
8384,79.0,0,40,3.0,0.0
8385,84.0,8,15,0.0,0.0
8386,72.0,0,20,12.0,0.0
8387,48.0,0,15,8.0,0.0
8388,81.0,0,40,2.0,0.0
8389,77.0,0,40,2.0,0.0
8390,89.0,0,20,1.0,0.0
8391,64.0,0,40,4.0,0.0
8392,67.0,0,40,4.0,0.0
8393,60.0,0,40,13.0,0.0
8394,91.0,12,20,10.0,0.0
8395,88.0,0,20,11.0,0.0
8396,48.0,0,15,8.0,0.0
8397,86.0,12,15,0.0,0.0
8398,72.0,0,20,12.0,0.0
8399,91.0,2,20,1.0,0.0
8400,88.0,0,20,11.0,0.0
8401,91.0,0,20,10.0,0.0
8402,48.0,28,15,8.0,0.0
8403,88.0,0,15,0.0,0.0
8404,77.0,0,300,7.0,0.0
8405,53.0,6,300,13.0,0.0
8406,77.0,0,300,3.0,0.0
8407,65.0,0,300,7.0,0.0
8408,72.0,0,20,12.0,0.0
8409,41.0,18,90,8.0,0.0
8410,81.0,0,300,3.0,0.0
8411,89.0,0,300,0.0,0.0
8412,89.0,0,20,11.0,0.0
8413,41.0,0,300,14.0,0.0
8414,93.0,30,20,10.0,0.0
8415,69.0,0,300,5.0,0.0
8416,81.0,0,300,2.0,0.0
8417,65.0,0,300,5.0,0.0
8418,65.0,0,300,4.0,0.0
8419,69.0,24,300,4.0,0.0
8420,65.0,0,300,6.0,0.0
8421,69.0,0,300,6.0,0.0
8422,77.0,0,300,2.0,0.0
8423,93.0,0,300,1.0,0.0
8424,89.0,0,20,11.0,0.0
8425,93.0,0,20,10.0,0.0
8426,72.0,30,20,12.0,0.0
8427,93.0,0,20,10.0,0.0
8428,72.0,12,20,12.0,0.0
8429,89.0,0,20,11.0,0.0
8430,89.0,0,20,11.0,0.0
8431,93.0,30,20,10.0,0.0
8432,72.0,0,20,12.0,0.0
8433,89.0,0,20,11.0,0.0
8434,93.0,0,20,10.0,0.0
8435,72.0,30,20,12.0,0.0
8436,89.0,0,20,11.0,0.0
8437,93.0,0,20,10.0,0.0
8438,72.0,30,20,12.0,0.0
8439,89.0,0,20,11.0,0.0
8440,72.0,0,20,12.0,0.0
8441,93.0,30,20,10.0,0.0
8442,89.0,30,20,11.0,0.0
8443,93.0,0,20,10.0,0.0
8444,72.0,0,20,12.0,0.0
8445,93.0,0,20,10.0,0.0
8446,89.0,0,20,11.0,0.0
8447,72.0,24,20,12.0,0.0
8448,72.0,0,20,12.0,0.0
8449,93.0,0,20,10.0,0.0
8450,89.0,6,20,11.0,0.0
8451,76.0,0,40,3.0,0.0
8452,79.0,12,40,3.0,0.0
8453,67.0,0,40,4.0,0.0
8454,72.0,0,40,7.0,0.0
8455,79.0,0,40,2.0,0.0
8456,76.0,0,40,2.0,0.0
8457,91.0,0,40,1.0,0.0
8458,72.0,0,20,12.0,0.0
8459,67.0,6,40,5.0,0.0
8460,91.0,0,20,10.0,0.0
8461,60.0,0,40,5.0,0.0
8462,48.0,0,40,13.0,0.0
8463,60.0,0,40,4.0,0.0
8464,88.0,12,20,11.0,0.0
8465,88.0,0,40,0.0,0.0
8466,36.0,0,40,14.0,0.0
8467,72.0,0,20,12.0,0.0
8468,91.0,0,20,10.0,0.0
8469,88.0,30,20,11.0,0.0
8470,33.0,0,40,14.0,0.0
8471,89.0,0,20,10.0,0.0
8472,89.0,0,40,1.0,0.0
8473,77.0,0,40,2.0,0.0
8474,72.0,0,40,2.0,0.0
8475,84.0,0,20,11.0,0.0
8476,57.0,0,40,5.0,0.0
8477,65.0,6,40,5.0,0.0
8478,69.0,0,40,7.0,0.0
8479,65.0,0,40,4.0,0.0
8480,57.0,0,40,4.0,0.0
8481,77.0,12,40,3.0,0.0
8482,72.0,0,40,3.0,0.0
8483,84.0,0,40,0.0,0.0
8484,45.0,0,40,13.0,0.0
8485,72.0,12,20,12.0,0.0
8486,84.0,30,20,11.0,0.0
8487,72.0,0,20,12.0,0.0
8488,89.0,0,20,10.0,0.0
8489,76.0,0,40,2.0,0.0
8490,67.0,0,40,4.0,0.0
8491,88.0,0,40,0.0,0.0
8492,60.0,6,40,4.0,0.0
8493,72.0,12,20,12.0,0.0
8494,67.0,0,40,5.0,0.0
8495,48.0,0,40,13.0,0.0
8496,91.0,0,20,10.0,0.0
8497,60.0,0,40,5.0,0.0
8498,79.0,12,40,3.0,0.0
8499,36.0,0,40,14.0,0.0
8500,79.0,0,40,2.0,0.0
8501,76.0,0,40,3.0,0.0
8502,91.0,0,40,1.0,0.0
8503,72.0,0,40,7.0,0.0
8504,88.0,0,20,11.0,0.0
8505,72.0,30,20,12.0,0.0
8506,91.0,0,20,10.0,0.0
8507,88.0,0,20,11.0,0.0
8508,69.0,0,300,5.0,0.0
8509,65.0,24,300,5.0,0.0
8510,93.0,0,300,1.0,0.0
8511,69.0,0,300,4.0,0.0
8512,41.0,18,90,8.0,0.0
8513,53.0,6,300,13.0,0.0
8514,72.0,0,20,12.0,0.0
8515,65.0,0,300,6.0,0.0
8516,93.0,0,20,10.0,0.0
8517,77.0,0,300,7.0,0.0
8518,81.0,0,300,2.0,0.0
8519,77.0,0,300,2.0,0.0
8520,89.0,0,300,0.0,0.0
8521,41.0,0,300,14.0,0.0
8522,65.0,0,300,4.0,0.0
8523,69.0,0,300,6.0,0.0
8524,65.0,0,300,7.0,0.0
8525,77.0,0,300,3.0,0.0
8526,81.0,0,300,3.0,0.0
8527,89.0,30,20,11.0,0.0
8528,72.0,30,20,12.0,0.0
8529,89.0,0,20,11.0,0.0
8530,93.0,0,20,10.0,0.0
8531,72.0,0,20,12.0,0.0
8532,89.0,0,20,11.0,0.0
8533,93.0,12,20,10.0,0.0
8534,89.0,0,20,11.0,0.0
8535,93.0,30,20,10.0,0.0
8536,72.0,0,20,12.0,0.0
8537,72.0,0,20,12.0,0.0
8538,89.0,30,20,11.0,0.0
8539,93.0,0,20,10.0,0.0
8540,93.0,30,20,10.0,0.0
8541,89.0,0,20,11.0,0.0
8542,72.0,0,20,12.0,0.0
8543,72.0,0,20,12.0,0.0
8544,93.0,30,20,10.0,0.0
8545,89.0,0,20,11.0,0.0
8546,72.0,0,20,12.0,0.0
8547,89.0,0,20,11.0,0.0
8548,93.0,30,20,10.0,0.0
8549,89.0,0,20,11.0,0.0
8550,72.0,0,20,12.0,0.0
8551,93.0,24,20,10.0,0.0
8552,72.0,0,20,12.0,0.0
8553,89.0,6,20,11.0,0.0
8554,93.0,0,20,10.0,0.0
8555,79.0,0,40,2.0,0.0
8556,76.0,12,40,2.0,0.0
8557,67.0,0,40,4.0,0.0
8558,72.0,0,40,7.0,0.0
8559,72.0,0,20,12.0,0.0
8560,91.0,0,40,1.0,0.0
8561,60.0,0,40,4.0,0.0
8562,79.0,0,40,3.0,0.0
8563,88.0,0,20,11.0,0.0
8564,36.0,0,40,14.0,0.0
8565,76.0,0,40,3.0,0.0
8566,48.0,0,40,13.0,0.0
8567,88.0,0,40,0.0,0.0
8568,91.0,12,20,10.0,0.0
8569,67.0,6,40,5.0,0.0
8570,60.0,0,40,5.0,0.0
8571,72.0,0,20,12.0,0.0
8572,88.0,30,20,11.0,0.0
8573,91.0,0,20,10.0,0.0
8574,33.0,0,40,14.0,0.0
8575,65.0,6,40,4.0,0.0
8576,57.0,0,40,4.0,0.0
8577,84.0,0,20,11.0,0.0
8578,89.0,0,20,10.0,0.0
8579,45.0,0,40,13.0,0.0
8580,84.0,0,40,0.0,0.0
8581,69.0,0,40,7.0,0.0
8582,57.0,0,40,5.0,0.0
8583,77.0,0,40,3.0,0.0
8584,72.0,0,40,2.0,0.0
8585,77.0,12,40,2.0,0.0
8586,72.0,0,40,3.0,0.0
8587,89.0,0,40,1.0,0.0
8588,65.0,0,40,5.0,0.0
8589,72.0,12,20,12.0,0.0
8590,84.0,0,20,11.0,0.0
8591,89.0,30,20,10.0,0.0
8592,72.0,0,20,12.0,0.0
8593,79.0,0,40,2.0,0.0
8594,48.0,0,40,13.0,0.0
8595,72.0,6,40,7.0,0.0
8596,72.0,0,20,12.0,0.0
8597,36.0,0,40,14.0,0.0
8598,67.0,0,40,5.0,0.0
8599,60.0,0,40,5.0,0.0
8600,76.0,12,40,2.0,0.0
8601,91.0,0,20,10.0,0.0
8602,60.0,0,40,4.0,0.0
8603,91.0,0,40,1.0,0.0
8604,76.0,0,40,3.0,0.0
8605,79.0,0,40,3.0,0.0
8606,67.0,0,40,4.0,0.0
8607,88.0,12,20,11.0,0.0
8608,88.0,0,40,0.0,0.0
8609,91.0,0,20,10.0,0.0
8610,72.0,30,20,12.0,0.0
8611,88.0,0,20,11.0,0.0
8612,77.0,0,60,2.0,0.0
8613,77.0,6,40,7.0,0.0
8614,69.0,0,40,5.0,0.0
8615,81.0,0,60,2.0,0.0
8616,65.0,0,40,5.0,0.0
8617,93.0,0,60,1.0,0.0
8618,93.0,0,20,10.0,0.0
8619,53.0,24,60,13.0,0.0
8620,77.0,0,60,3.0,0.0
8621,89.0,24,20,11.0,0.0
8622,65.0,0,40,7.0,0.0
8623,65.0,0,90,6.0,0.0
8624,81.0,0,60,3.0,0.0
8625,69.0,0,60,4.0,0.0
8626,65.0,0,60,4.0,0.0
8627,41.0,12,90,8.0,0.0
8628,41.0,0,60,14.0,0.0
8629,69.0,0,90,6.0,0.0
8630,72.0,0,20,12.0,0.0
8631,89.0,0,60,0.0,0.0
8632,72.0,0,20,12.0,0.0
8633,93.0,6,20,10.0,0.0
8634,89.0,0,20,11.0,0.0
8635,67.0,0,40,4.0,0.0
8636,72.0,0,40,7.0,0.0
8637,60.0,6,40,5.0,0.0
8638,67.0,0,40,5.0,0.0
8639,76.0,0,40,2.0,0.0
8640,76.0,0,40,3.0,0.0
8641,88.0,12,20,11.0,0.0
8642,91.0,0,20,10.0,0.0
8643,79.0,0,40,3.0,0.0
8644,79.0,0,40,2.0,0.0
8645,36.0,0,40,14.0,0.0
8646,72.0,0,20,12.0,0.0
8647,60.0,0,40,4.0,0.0
8648,88.0,0,40,0.0,0.0
8649,91.0,0,40,1.0,0.0
8650,48.0,0,40,13.0,0.0
8651,88.0,0,20,11.0,0.0
8652,72.0,0,20,12.0,0.0
8653,91.0,30,20,10.0,0.0
8654,84.0,24,20,11.0,0.0
8655,69.0,0,40,7.0,0.0
8656,72.0,0,20,12.0,0.0
8657,57.0,0,40,4.0,0.0
8658,89.0,0,20,10.0,0.0
8659,89.0,0,40,1.0,0.0
8660,57.0,0,40,5.0,0.0
8661,65.0,0,40,4.0,0.0
8662,77.0,0,40,2.0,0.0
8663,45.0,0,40,13.0,0.0
8664,72.0,0,40,3.0,0.0
8665,33.0,0,40,14.0,0.0
8666,72.0,0,40,2.0,0.0
8667,77.0,0,40,3.0,0.0
8668,65.0,6,40,5.0,0.0
8669,84.0,0,40,0.0,0.0
8670,72.0,30,20,12.0,0.0
8671,84.0,0,20,11.0,0.0
8672,89.0,0,20,10.0,0.0
8673,79.0,0,40,2.0,0.0
8674,76.0,0,40,3.0,0.0
8675,91.0,0,20,10.0,0.0
8676,79.0,0,40,3.0,0.0
8677,67.0,0,40,5.0,0.0
8678,76.0,0,40,2.0,0.0
8679,91.0,0,40,1.0,0.0
8680,60.0,0,40,5.0,0.0
8681,72.0,24,20,12.0,0.0
8682,88.0,0,40,0.0,0.0
8683,67.0,0,40,4.0,0.0
8684,60.0,0,40,4.0,0.0
8685,36.0,0,40,14.0,0.0
8686,48.0,6,40,13.0,0.0
8687,72.0,0,40,7.0,0.0
8688,88.0,0,20,11.0,0.0
8689,91.0,0,20,10.0,0.0
8690,88.0,30,20,11.0,0.0
8691,72.0,0,20,12.0,0.0
8692,89.0,0,60,0.0,0.0
8693,65.0,0,90,6.0,0.0
8694,93.0,0,60,1.0,0.0
8695,93.0,0,20,10.0,0.0
8696,41.0,0,60,14.0,0.0
8697,77.0,0,60,2.0,0.0
8698,81.0,0,60,2.0,0.0
8699,69.0,0,40,5.0,0.0
8700,77.0,0,40,7.0,0.0
8701,65.0,6,40,7.0,0.0
8702,53.0,24,60,13.0,0.0
8703,69.0,12,90,6.0,0.0
8704,65.0,0,40,5.0,0.0
8705,41.0,0,90,8.0,0.0
8706,81.0,0,60,3.0,0.0
8707,65.0,0,60,4.0,0.0
8708,69.0,0,60,4.0,0.0
8709,72.0,24,20,12.0,0.0
8710,77.0,0,60,3.0,0.0
8711,89.0,0,20,11.0,0.0
8712,93.0,6,20,10.0,0.0
8713,89.0,0,20,11.0,0.0
8714,72.0,0,20,12.0,0.0
8715,67.0,0,40,5.0,0.0
8716,60.0,0,40,5.0,0.0
8717,88.0,6,40,0.0,0.0
8718,88.0,0,20,11.0,0.0
8719,79.0,0,40,2.0,0.0
8720,72.0,0,40,7.0,0.0
8721,76.0,0,40,3.0,0.0
8722,79.0,0,40,3.0,0.0
8723,48.0,0,40,13.0,0.0
8724,76.0,0,40,2.0,0.0
8725,91.0,0,20,10.0,0.0
8726,36.0,0,40,14.0,0.0
8727,72.0,12,20,12.0,0.0
8728,91.0,0,40,1.0,0.0
8729,67.0,0,40,4.0,0.0
8730,60.0,0,40,4.0,0.0
8731,72.0,30,20,12.0,0.0
8732,91.0,0,20,10.0,0.0
8733,88.0,0,20,11.0,0.0
8734,77.0,0,40,2.0,0.0
8735,57.0,0,40,4.0,0.0
8736,33.0,0,40,14.0,0.0
8737,65.0,0,40,4.0,0.0
8738,72.0,0,20,12.0,0.0
8739,84.0,0,40,0.0,0.0
8740,84.0,24,20,11.0,0.0
8741,72.0,0,40,2.0,0.0
8742,57.0,0,40,5.0,0.0
8743,45.0,0,40,13.0,0.0
8744,77.0,0,40,3.0,0.0
8745,89.0,6,40,1.0,0.0
8746,69.0,0,40,7.0,0.0
8747,89.0,0,20,10.0,0.0
8748,72.0,0,40,3.0,0.0
8749,65.0,0,40,5.0,0.0
8750,84.0,0,20,11.0,0.0
8751,72.0,0,20,12.0,0.0
8752,89.0,30,20,10.0,0.0
8753,88.0,0,20,11.0,0.0
8754,67.0,0,40,5.0,0.0
8755,88.0,0,40,0.0,0.0
8756,72.0,0,40,7.0,0.0
8757,79.0,0,40,2.0,0.0
8758,48.0,0,40,13.0,0.0
8759,79.0,0,40,3.0,0.0
8760,76.0,0,40,3.0,0.0
8761,91.0,0,20,10.0,0.0
8762,91.0,0,40,1.0,0.0
8763,60.0,6,40,4.0,0.0
8764,67.0,0,40,4.0,0.0
8765,72.0,24,20,12.0,0.0
8766,60.0,0,40,5.0,0.0
8767,76.0,0,40,2.0,0.0
8768,36.0,0,40,14.0,0.0
8769,91.0,0,20,10.0,0.0
8770,72.0,0,20,12.0,0.0
8771,88.0,30,20,11.0,0.0
8772,69.0,0,40,5.0,0.0
8773,65.0,0,40,5.0,0.0
8774,77.0,24,60,2.0,0.0
8775,93.0,0,60,1.0,0.0
8776,65.0,0,60,4.0,0.0
8777,65.0,0,40,7.0,0.0
8778,77.0,6,40,7.0,0.0
8779,69.0,0,90,6.0,0.0
8780,65.0,0,90,6.0,0.0
8781,41.0,0,60,14.0,0.0
8782,53.0,0,60,13.0,0.0
8783,41.0,12,90,8.0,0.0
8784,69.0,0,60,4.0,0.0
8785,81.0,0,60,2.0,0.0
8786,89.0,0,20,11.0,0.0
8787,77.0,0,60,3.0,0.0
8788,81.0,0,60,3.0,0.0
8789,72.0,24,20,12.0,0.0
8790,93.0,0,20,10.0,0.0
8791,89.0,0,60,0.0,0.0
8792,89.0,6,20,11.0,0.0
8793,72.0,0,20,12.0,0.0
8794,93.0,0,20,10.0,0.0
8795,67.0,0,40,4.0,0.0
8796,72.0,0,40,7.0,0.0
8797,88.0,0,40,0.0,0.0
8798,48.0,0,40,13.0,0.0
8799,76.0,0,40,3.0,0.0
8800,79.0,0,40,3.0,0.0
8801,91.0,0,20,10.0,0.0
8802,88.0,12,20,11.0,0.0
8803,60.0,0,40,4.0,0.0
8804,67.0,6,40,5.0,0.0
8805,91.0,0,40,1.0,0.0
8806,36.0,0,40,14.0,0.0
8807,72.0,0,20,12.0,0.0
8808,60.0,0,40,5.0,0.0
8809,76.0,0,40,2.0,0.0
8810,79.0,0,40,2.0,0.0
8811,91.0,30,20,10.0,0.0
8812,72.0,0,20,12.0,0.0
8813,88.0,0,20,11.0,0.0
8814,45.0,0,40,13.0,0.0
8815,69.0,0,40,7.0,0.0
8816,89.0,0,20,10.0,0.0
8817,65.0,6,40,4.0,0.0
8818,65.0,0,40,5.0,0.0
8819,57.0,0,40,4.0,0.0
8820,72.0,0,20,12.0,0.0
8821,84.0,0,40,0.0,0.0
8822,57.0,0,40,5.0,0.0
8823,89.0,0,40,1.0,0.0
8824,84.0,24,20,11.0,0.0
8825,77.0,0,40,3.0,0.0
8826,77.0,0,40,2.0,0.0
8827,72.0,0,40,3.0,0.0
8828,33.0,0,40,14.0,0.0
8829,72.0,0,40,2.0,0.0
8830,84.0,0,20,11.0,0.0
8831,89.0,0,20,10.0,0.0
8832,72.0,30,20,12.0,0.0
8833,88.0,0,20,11.0,0.0
8834,91.0,0,20,10.0,0.0
8835,60.0,0,40,5.0,0.0
8836,79.0,0,40,2.0,0.0
8837,76.0,0,40,2.0,0.0
8838,72.0,0,40,7.0,0.0
8839,91.0,0,40,1.0,0.0
8840,67.0,0,40,4.0,0.0
8841,67.0,0,40,5.0,0.0
8842,79.0,0,40,3.0,0.0
8843,76.0,0,40,3.0,0.0
8844,36.0,6,40,14.0,0.0
8845,88.0,0,40,0.0,0.0
8846,72.0,24,20,12.0,0.0
8847,60.0,0,40,4.0,0.0
8848,48.0,0,40,13.0,0.0
8849,72.0,0,20,12.0,0.0
8850,91.0,30,20,10.0,0.0
8851,88.0,0,20,11.0,0.0
8852,53.0,0,60,13.0,0.0
8853,41.0,0,60,14.0,0.0
8854,65.0,0,60,4.0,0.0
8855,69.0,24,60,4.0,0.0
8856,77.0,0,40,7.0,0.0
8857,69.0,6,40,5.0,0.0
8858,65.0,0,40,7.0,0.0
8859,65.0,0,40,5.0,0.0
8860,41.0,0,90,8.0,0.0
8861,89.0,0,20,11.0,0.0
8862,69.0,12,90,6.0,0.0
8863,65.0,0,90,6.0,0.0
8864,77.0,0,60,2.0,0.0
8865,81.0,0,60,2.0,0.0
8866,72.0,24,20,12.0,0.0
8867,93.0,0,60,1.0,0.0
8868,89.0,0,60,0.0,0.0
8869,93.0,0,20,10.0,0.0
8870,77.0,0,60,3.0,0.0
8871,81.0,0,60,3.0,0.0
8872,72.0,0,20,12.0,0.0
8873,93.0,6,20,10.0,0.0
8874,89.0,0,20,11.0,0.0
8875,88.0,12,20,11.0,0.0
8876,67.0,0,40,5.0,0.0
8877,60.0,0,40,5.0,0.0
8878,76.0,0,40,3.0,0.0
8879,76.0,0,40,2.0,0.0
8880,36.0,0,40,14.0,0.0
8881,79.0,0,40,3.0,0.0
8882,79.0,0,40,2.0,0.0
8883,48.0,0,40,13.0,0.0
8884,91.0,0,40,1.0,0.0
8885,72.0,6,40,7.0,0.0
8886,88.0,0,40,0.0,0.0
8887,91.0,0,20,10.0,0.0
8888,72.0,0,20,12.0,0.0
8889,67.0,0,40,4.0,0.0
8890,60.0,0,40,4.0,0.0
8891,91.0,0,20,10.0,0.0
8892,88.0,30,20,11.0,0.0
8893,72.0,0,20,12.0,0.0
8894,45.0,0,40,13.0,0.0
8895,57.0,6,40,4.0,0.0
8896,65.0,0,40,4.0,0.0
8897,89.0,0,40,1.0,0.0
8898,72.0,0,20,12.0,0.0
8899,84.0,0,40,0.0,0.0
8900,77.0,0,40,3.0,0.0
8901,69.0,0,40,7.0,0.0
8902,89.0,24,20,10.0,0.0
8903,72.0,0,40,2.0,0.0
8904,77.0,0,40,2.0,0.0
8905,84.0,0,20,11.0,0.0
8906,72.0,0,40,3.0,0.0
8907,57.0,0,40,5.0,0.0
8908,33.0,0,40,14.0,0.0
8909,65.0,0,40,5.0,0.0
8910,89.0,30,20,10.0,0.0
8911,84.0,0,20,11.0,0.0
8912,72.0,0,20,12.0,0.0
8913,79.0,0,40,2.0,0.0
8914,76.0,0,40,2.0,0.0
8915,36.0,0,40,14.0,0.0
8916,91.0,6,40,1.0,0.0
8917,60.0,0,40,4.0,0.0
8918,76.0,0,40,3.0,0.0
8919,88.0,24,20,11.0,0.0
8920,67.0,0,40,5.0,0.0
8921,48.0,0,40,13.0,0.0
8922,79.0,0,40,3.0,0.0
8923,60.0,0,40,5.0,0.0
8924,72.0,0,40,7.0,0.0
8925,91.0,0,20,10.0,0.0
8926,72.0,0,20,12.0,0.0
8927,88.0,0,40,0.0,0.0
8928,67.0,0,40,4.0,0.0
8929,72.0,30,20,12.0,0.0
8930,91.0,0,20,10.0,0.0
8931,88.0,0,20,11.0,0.0
8932,77.0,0,90,7.0,0.0
8933,41.0,0,180,14.0,0.0
8934,65.0,0,90,7.0,0.0
8935,77.0,0,40,2.0,0.0
8936,53.0,0,180,13.0,0.0
8937,89.0,0,40,11.0,0.0
8938,89.0,0,40,0.0,0.0
8939,93.0,0,40,1.0,0.0
8940,77.0,0,40,3.0,0.0
8941,81.0,0,40,2.0,0.0
8942,93.0,24,20,10.0,0.0
8943,81.0,6,40,3.0,0.0
8944,69.0,0,40,4.0,0.0
8945,65.0,0,40,4.0,0.0
8946,41.0,0,90,8.0,0.0
8947,65.0,12,180,5.0,0.0
8948,69.0,0,180,5.0,0.0
8949,72.0,0,40,12.0,0.0
8950,65.0,12,90,6.0,0.0
8951,93.0,30,20,10.0,0.0
8952,67.0,0,40,4.0,0.0
8953,79.0,0,40,2.0,0.0
8954,79.0,12,20,11.0,0.0
8955,79.0,0,40,0.0,0.0
8956,67.0,0,20,12.0,0.0
8957,79.0,6,40,3.0,0.0
8958,67.0,0,40,3.0,0.0
8959,91.0,0,40,1.0,0.0
8960,91.0,0,20,10.0,0.0
8961,91.0,30,20,10.0,0.0
8962,67.0,0,20,12.0,0.0
8963,79.0,0,20,11.0,0.0
8964,89.0,0,40,1.0,0.0
8965,77.0,0,40,7.0,0.0
8966,65.0,0,40,6.0,0.0
8967,65.0,0,40,7.0,0.0
8968,65.0,0,20,12.0,0.0
8969,77.0,0,40,0.0,0.0
8970,77.0,0,40,3.0,0.0
8971,77.0,6,40,2.0,0.0
8972,53.0,12,90,4.0,0.0
8973,65.0,0,40,3.0,0.0
8974,89.0,24,20,10.0,0.0
8975,77.0,0,20,11.0,0.0
8976,65.0,0,40,4.0,0.0
8977,77.0,0,20,11.0,0.0
8978,89.0,0,20,10.0,0.0
8979,65.0,18,20,12.0,0.0
8980,64.0,0,20,12.0,0.0
8981,65.0,0,40,7.0,0.0
8982,64.0,0,40,4.0,0.0
8983,88.0,12,20,10.0,0.0
8984,77.0,0,40,7.0,0.0
8985,64.0,0,40,3.0,0.0
8986,76.0,0,40,3.0,0.0
8987,76.0,0,40,2.0,0.0
8988,88.0,6,40,1.0,0.0
8989,76.0,0,20,11.0,0.0
8990,65.0,0,40,6.0,0.0
8991,76.0,0,40,0.0,0.0
8992,88.0,0,20,10.0,0.0
8993,64.0,0,20,12.0,0.0
8994,76.0,30,20,11.0,0.0
8995,65.0,0,20,12.0,0.0
8996,77.0,0,40,0.0,0.0
8997,65.0,0,90,6.0,0.0
8998,65.0,0,90,7.0,0.0
8999,77.0,0,90,7.0,0.0
9000,65.0,0,40,3.0,0.0
9001,89.0,0,40,1.0,0.0
9002,41.0,12,90,8.0,0.0
9003,77.0,0,40,2.0,0.0
9004,65.0,6,40,4.0,0.0
9005,89.0,0,20,10.0,0.0
9006,65.0,0,180,5.0,0.0
9007,69.0,12,180,5.0,0.0
9008,50.0,0,180,13.0,0.0
9009,77.0,24,20,11.0,0.0
9010,50.0,0,180,4.0,0.0
9011,77.0,0,40,3.0,0.0
9012,38.0,0,180,14.0,0.0
9013,65.0,0,20,12.0,0.0
9014,89.0,30,20,10.0,0.0
9015,77.0,0,20,11.0,0.0
9016,88.0,12,20,10.0,0.0
9017,76.0,6,40,2.0,0.0
9018,76.0,0,20,11.0,0.0
9019,76.0,0,40,3.0,0.0
9020,64.0,0,40,4.0,0.0
9021,76.0,0,40,0.0,0.0
9022,64.0,0,40,3.0,0.0
9023,64.0,0,20,12.0,0.0
9024,88.0,0,40,1.0,0.0
9025,76.0,0,20,11.0,0.0
9026,64.0,30,20,12.0,0.0
9027,88.0,0,20,10.0,0.0
9028,74.0,0,20,11.0,0.0
9029,77.0,0,40,7.0,0.0
9030,65.0,0,40,7.0,0.0
9031,86.0,6,40,1.0,0.0
9032,86.0,24,20,10.0,0.0
9033,62.0,0,20,12.0,0.0
9034,74.0,0,40,0.0,0.0
9035,62.0,0,40,4.0,0.0
9036,65.0,0,40,6.0,0.0
9037,74.0,0,40,2.0,0.0
9038,41.0,12,90,8.0,0.0
9039,74.0,0,40,3.0,0.0
9040,62.0,0,40,3.0,0.0
9041,74.0,0,20,11.0,0.0
9042,62.0,0,20,12.0,0.0
9043,86.0,18,20,10.0,0.0
9044,65.0,0,40,6.0,0.0
9045,73.0,0,20,11.0,0.0
9046,73.0,0,40,0.0,0.0
9047,85.0,0,20,10.0,0.0
9048,85.0,0,40,1.0,0.0
9049,61.0,12,20,12.0,0.0
9050,61.0,0,40,4.0,0.0
9051,65.0,0,40,7.0,0.0
9052,77.0,0,40,7.0,0.0
9053,73.0,0,40,2.0,0.0
9054,73.0,6,40,3.0,0.0
9055,73.0,0,20,11.0,0.0
9056,85.0,30,20,10.0,0.0
9057,61.0,0,20,12.0,0.0
9058,34.0,0,90,14.0,0.0
9059,86.0,0,40,1.0,0.0
9060,65.0,0,180,5.0,0.0
9061,74.0,0,40,0.0,0.0
9062,67.0,12,90,6.0,0.0
9063,41.0,0,90,8.0,0.0
9064,62.0,0,20,12.0,0.0
9065,67.0,12,180,5.0,0.0
9066,46.0,0,90,4.0,0.0
9067,62.0,0,40,4.0,0.0
9068,74.0,0,20,11.0,0.0
9069,74.0,0,40,3.0,0.0
9070,79.0,0,90,7.0,0.0
9071,77.0,0,90,7.0,0.0
9072,46.0,0,90,13.0,0.0
9073,74.0,6,40,2.0,0.0
9074,86.0,24,20,10.0,0.0
9075,62.0,30,20,12.0,0.0
9076,74.0,0,20,11.0,0.0
9077,86.0,0,20,10.0,0.0
9078,72.0,0,20,11.0,0.0
9079,84.0,0,20,10.0,0.0
9080,96.0,0,40,1.0,0.0
9081,84.0,0,40,0.0,0.0
9082,60.0,6,40,4.0,0.0
9083,72.0,0,40,3.0,0.0
9084,84.0,0,40,2.0,0.0
9085,72.0,0,40,2.0,0.0
9086,60.0,12,20,12.0,0.0
9087,60.0,0,20,12.0,0.0
9088,84.0,0,20,10.0,0.0
9089,72.0,30,20,11.0,0.0
9090,82.0,0,20,10.0,0.0
9091,67.0,0,40,6.0,0.0
9092,82.0,0,40,2.0,0.0
9093,58.0,0,20,12.0,0.0
9094,31.0,0,90,14.0,0.0
9095,43.0,0,90,13.0,0.0
9096,70.0,0,40,3.0,0.0
9097,70.0,24,20,11.0,0.0
9098,70.0,0,40,2.0,0.0
9099,58.0,0,40,4.0,0.0
9100,43.0,12,90,4.0,0.0
9101,79.0,0,40,7.0,0.0
9102,77.0,0,40,7.0,0.0
9103,94.0,6,40,1.0,0.0
9104,82.0,0,40,0.0,0.0
9105,58.0,0,20,12.0,0.0
9106,82.0,0,20,10.0,0.0
9107,70.0,18,20,11.0,0.0
9108,69.0,0,40,3.0,0.0
9109,57.0,0,20,12.0,0.0
9110,81.0,0,40,0.0,0.0
9111,81.0,12,20,10.0,0.0
9112,69.0,0,20,11.0,0.0
9113,79.0,0,40,7.0,0.0
9114,77.0,0,40,7.0,0.0
9115,67.0,0,40,6.0,0.0
9116,93.0,0,40,1.0,0.0
9117,81.0,0,40,2.0,0.0
9118,69.0,0,40,2.0,0.0
9119,57.0,6,40,4.0,0.0
9120,69.0,0,20,11.0,0.0
9121,57.0,0,20,12.0,0.0
9122,81.0,30,20,10.0,0.0
9123,79.0,0,90,7.0,0.0
9124,82.0,0,40,2.0,0.0
9125,94.0,6,40,1.0,0.0
9126,82.0,24,20,10.0,0.0
9127,70.0,0,40,3.0,0.0
9128,58.0,0,40,4.0,0.0
9129,48.0,0,90,4.0,0.0
9130,48.0,12,90,8.0,0.0
9131,70.0,0,20,11.0,0.0
9132,67.0,0,90,6.0,0.0
9133,70.0,0,40,2.0,0.0
9134,58.0,0,20,12.0,0.0
9135,67.0,0,180,5.0,0.0
9136,72.0,0,90,7.0,0.0
9137,48.0,0,90,13.0,0.0
9138,82.0,0,40,0.0,0.0
9139,60.0,12,180,5.0,0.0
9140,36.0,0,90,14.0,0.0
9141,58.0,30,20,12.0,0.0
9142,82.0,0,20,10.0,0.0
9143,70.0,0,20,11.0,0.0
9144,91.0,0,40,1.0,0.0
9145,55.0,0,40,4.0,0.0
9146,55.0,12,20,12.0,0.0
9147,67.0,0,20,11.0,0.0
9148,67.0,0,40,2.0,0.0
9149,79.0,0,40,0.0,0.0
9150,79.0,6,40,2.0,0.0
9151,67.0,0,40,3.0,0.0
9152,79.0,0,20,10.0,0.0
9153,67.0,30,20,11.0,0.0
9154,55.0,0,20,12.0,0.0
9155,79.0,0,20,10.0,0.0
9156,60.0,0,40,4.0,0.0
9157,67.0,0,40,6.0,0.0
9158,72.0,0,40,3.0,0.0
9159,72.0,0,20,11.0,0.0
9160,84.0,0,20,10.0,0.0
9161,96.0,0,40,1.0,0.0
9162,72.0,0,40,7.0,0.0
9163,60.0,24,20,12.0,0.0
9164,36.0,12,90,14.0,0.0
9165,84.0,0,40,2.0,0.0
9166,72.0,0,40,2.0,0.0
9167,48.0,0,90,13.0,0.0
9168,79.0,0,40,7.0,0.0
9169,48.0,0,90,4.0,0.0
9170,84.0,6,40,0.0,0.0
9171,72.0,0,20,11.0,0.0
9172,60.0,18,20,12.0,0.0
9173,84.0,0,20,10.0,0.0
9174,72.0,12,20,11.0,0.0
9175,60.0,0,40,4.0,0.0
9176,79.0,0,40,7.0,0.0
9177,72.0,6,40,3.0,0.0
9178,72.0,0,40,2.0,0.0
9179,72.0,0,40,7.0,0.0
9180,84.0,0,40,2.0,0.0
9181,96.0,0,40,1.0,0.0
9182,67.0,0,40,6.0,0.0
9183,84.0,0,20,10.0,0.0
9184,60.0,0,20,12.0,0.0
9185,84.0,0,40,0.0,0.0
9186,84.0,22,20,10.0,0.0
9187,60.0,0,20,12.0,0.0
9188,72.0,0,20,11.0,0.0
9189,89.0,0,20,11.0,0.0
9190,77.0,0,300,7.0,0.0
9191,65.0,0,300,7.0,0.0
9192,93.0,12,20,10.0,0.0
9193,65.0,0,300,5.0,0.0
9194,89.0,0,300,0.0,0.0
9195,41.0,0,300,14.0,0.0
9196,69.0,0,300,4.0,0.0
9197,65.0,0,300,4.0,0.0
9198,53.0,0,300,13.0,0.0
9199,81.0,0,300,3.0,0.0
9200,77.0,0,300,3.0,0.0
9201,93.0,24,300,1.0,0.0
9202,65.0,0,300,6.0,0.0
9203,69.0,0,300,6.0,0.0
9204,81.0,0,300,2.0,0.0
9205,72.0,0,20,12.0,0.0
9206,77.0,0,300,2.0,0.0
9207,69.0,0,300,5.0,0.0
9208,41.0,8,15,8.0,0.0
9209,41.0,18,15,8.0,0.0
9210,93.0,0,20,10.0,0.0
9211,89.0,0,20,11.0,0.0
9212,72.0,2,20,12.0,0.0
9213,41.0,20,15,8.0,0.0
9214,41.0,8,15,8.0,0.0
9215,93.0,0,20,10.0,0.0
9216,72.0,0,20,12.0,0.0
9217,89.0,12,20,11.0,0.0
9218,41.0,18,15,8.0,0.0
9219,72.0,0,20,12.0,0.0
9220,93.0,2,20,10.0,0.0
9221,89.0,0,20,11.0,0.0
9222,41.0,20,15,8.0,0.0
9223,89.0,0,20,11.0,0.0
9224,72.0,12,20,12.0,0.0
9225,41.0,8,15,8.0,0.0
9226,93.0,0,20,10.0,0.0
9227,41.0,18,15,8.0,0.0
9228,93.0,2,20,10.0,0.0
9229,89.0,0,20,11.0,0.0
9230,72.0,0,20,12.0,0.0
9231,41.0,20,15,8.0,0.0
9232,89.0,0,20,11.0,0.0
9233,72.0,0,20,12.0,0.0
9234,93.0,12,20,10.0,0.0
9235,41.0,8,15,8.0,0.0
9236,41.0,18,15,8.0,0.0
9237,89.0,2,20,11.0,0.0
9238,93.0,0,20,10.0,0.0
9239,72.0,0,20,12.0,0.0
9240,41.0,28,15,8.0,0.0
9241,72.0,0,20,12.0,0.0
9242,93.0,0,20,10.0,0.0
9243,89.0,24,20,11.0,0.0
9244,41.0,6,40,8.0,0.0
9245,89.0,6,20,11.0,0.0
9246,93.0,0,20,10.0,0.0
9247,72.0,0,20,12.0,0.0
9248,88.0,12,20,11.0,0.0
9249,60.0,0,40,5.0,0.0
9250,67.0,0,40,5.0,0.0
9251,72.0,0,40,7.0,0.0
9252,48.0,6,40,13.0,0.0
9253,79.0,0,40,2.0,0.0
9254,76.0,0,40,2.0,0.0
9255,72.0,0,20,12.0,0.0
9256,79.0,12,40,3.0,0.0
9257,67.0,0,40,4.0,0.0
9258,60.0,0,40,4.0,0.0
9259,88.0,0,40,0.0,0.0
9260,36.0,0,40,14.0,0.0
9261,91.0,0,20,10.0,0.0
9262,91.0,0,40,1.0,0.0
9263,76.0,0,40,3.0,0.0
9264,88.0,0,20,11.0,0.0
9265,72.0,30,20,12.0,0.0
9266,91.0,0,20,10.0,0.0
9267,89.0,0,40,1.0,0.0
9268,72.0,0,40,2.0,0.0
9269,45.0,0,40,13.0,0.0
9270,65.0,0,40,4.0,0.0
9271,57.0,0,40,4.0,0.0
9272,65.0,6,40,5.0,0.0
9273,57.0,0,40,5.0,0.0
9274,89.0,0,20,10.0,0.0
9275,72.0,12,20,12.0,0.0
9276,33.0,0,40,14.0,0.0
9277,77.0,12,40,2.0,0.0
9278,84.0,0,40,0.0,0.0
9279,72.0,0,40,3.0,0.0
9280,77.0,0,40,3.0,0.0
9281,84.0,0,20,11.0,0.0
9282,69.0,0,40,7.0,0.0
9283,72.0,0,20,12.0,0.0
9284,89.0,0,20,10.0,0.0
9285,84.0,30,20,11.0,0.0
9286,88.0,0,20,11.0,0.0
9287,67.0,0,40,4.0,0.0
9288,91.0,0,40,1.0,0.0
9289,76.0,12,40,3.0,0.0
9290,79.0,0,40,3.0,0.0
9291,72.0,12,20,12.0,0.0
9292,60.0,0,40,4.0,0.0
9293,36.0,0,40,14.0,0.0
9294,67.0,0,40,5.0,0.0
9295,79.0,0,40,2.0,0.0
9296,76.0,0,40,2.0,0.0
9297,60.0,0,40,5.0,0.0
9298,91.0,0,20,10.0,0.0
9299,88.0,0,40,0.0,0.0
9300,72.0,0,40,7.0,0.0
9301,48.0,6,40,13.0,0.0
9302,88.0,0,20,11.0,0.0
9303,72.0,22,20,12.0,0.0
9304,91.0,0,20,10.0,0.0
9305,69.0,0,300,4.0,0.0
9306,65.0,0,300,4.0,0.0
9307,41.0,0,300,14.0,0.0
9308,89.0,0,300,0.0,0.0
9309,93.0,0,20,10.0,0.0
9310,65.0,0,300,7.0,0.0
9311,69.0,0,300,6.0,0.0
9312,65.0,6,300,6.0,0.0
9313,69.0,0,300,5.0,0.0
9314,65.0,0,300,5.0,0.0
9315,72.0,0,20,12.0,0.0
9316,53.0,0,300,13.0,0.0
9317,77.0,0,300,3.0,0.0
9318,81.0,0,300,3.0,0.0
9319,93.0,24,300,1.0,0.0
9320,41.0,8,15,8.0,0.0
9321,89.0,12,20,11.0,0.0
9322,77.0,0,300,7.0,0.0
9323,81.0,0,300,2.0,0.0
9324,77.0,0,300,2.0,0.0
9325,41.0,18,15,8.0,0.0
9326,93.0,0,20,10.0,0.0
9327,72.0,0,20,12.0,0.0
9328,89.0,2,20,11.0,0.0
9329,41.0,20,15,8.0,0.0
9330,41.0,8,15,8.0,0.0
9331,72.0,12,20,12.0,0.0
9332,93.0,0,20,10.0,0.0
9333,89.0,0,20,11.0,0.0
9334,41.0,18,15,8.0,0.0
9335,89.0,2,20,11.0,0.0
9336,72.0,0,20,12.0,0.0
9337,93.0,0,20,10.0,0.0
9338,41.0,20,15,8.0,0.0
9339,41.0,8,15,8.0,0.0
9340,89.0,0,20,11.0,0.0
9341,93.0,12,20,10.0,0.0
9342,72.0,0,20,12.0,0.0
9343,41.0,18,15,8.0,0.0
9344,89.0,2,20,11.0,0.0
9345,72.0,0,20,12.0,0.0
9346,93.0,0,20,10.0,0.0
9347,41.0,20,15,8.0,0.0
9348,41.0,8,15,8.0,0.0
9349,72.0,0,20,12.0,0.0
9350,89.0,12,20,11.0,0.0
9351,93.0,0,20,10.0,0.0
9352,41.0,18,15,8.0,0.0
9353,89.0,0,20,11.0,0.0
9354,93.0,0,20,10.0,0.0
9355,72.0,2,20,12.0,0.0
9356,41.0,28,15,8.0,0.0
9357,72.0,0,20,12.0,0.0
9358,41.0,0,40,8.0,0.0
9359,93.0,0,20,10.0,0.0
9360,89.0,24,20,11.0,0.0
9361,93.0,6,20,10.0,0.0
9362,72.0,0,20,12.0,0.0
9363,89.0,0,20,11.0,0.0
9364,48.0,0,40,13.0,0.0
9365,79.0,0,40,2.0,0.0
9366,91.0,0,20,10.0,0.0
9367,72.0,0,20,12.0,0.0
9368,72.0,6,40,7.0,0.0
9369,79.0,12,40,3.0,0.0
9370,76.0,0,40,3.0,0.0
9371,76.0,0,40,2.0,0.0
9372,36.0,0,40,14.0,0.0
9373,88.0,12,20,11.0,0.0
9374,60.0,0,40,4.0,0.0
9375,60.0,0,40,5.0,0.0
9376,67.0,0,40,5.0,0.0
9377,91.0,0,40,1.0,0.0
9378,88.0,0,40,0.0,0.0
9379,67.0,0,40,4.0,0.0
9380,72.0,0,20,12.0,0.0
9381,91.0,0,20,10.0,0.0
9382,88.0,30,20,11.0,0.0
9383,72.0,0,40,3.0,0.0
9384,77.0,12,40,3.0,0.0
9385,89.0,0,40,1.0,0.0
9386,69.0,6,40,7.0,0.0
9387,89.0,12,20,10.0,0.0
9388,65.0,0,40,4.0,0.0
9389,57.0,0,40,4.0,0.0
9390,33.0,0,40,14.0,0.0
9391,84.0,0,20,11.0,0.0
9392,77.0,0,40,2.0,0.0
9393,45.0,0,40,13.0,0.0
9394,84.0,0,40,0.0,0.0
9395,72.0,0,20,12.0,0.0
9396,72.0,0,40,2.0,0.0
9397,57.0,0,40,5.0,0.0
9398,65.0,0,40,5.0,0.0
9399,84.0,30,20,11.0,0.0
9400,72.0,0,20,12.0,0.0
9401,89.0,0,20,10.0,0.0
9402,36.0,0,40,14.0,0.0
9403,60.0,0,40,4.0,0.0
9404,67.0,0,40,4.0,0.0
9405,60.0,0,40,5.0,0.0
9406,72.0,0,20,12.0,0.0
9407,67.0,0,40,5.0,0.0
9408,91.0,0,40,1.0,0.0
9409,79.0,12,40,2.0,0.0
9410,88.0,0,20,11.0,0.0
9411,79.0,0,40,3.0,0.0
9412,76.0,0,40,3.0,0.0
9413,72.0,6,40,7.0,0.0
9414,76.0,0,40,2.0,0.0
9415,91.0,12,20,10.0,0.0
9416,48.0,0,40,13.0,0.0
9417,88.0,0,40,0.0,0.0
9418,91.0,0,20,10.0,0.0
9419,88.0,30,20,11.0,0.0
9420,72.0,0,20,12.0,0.0
9421,93.0,0,60,1.0,0.0
9422,72.0,0,20,12.0,0.0
9423,65.0,12,90,6.0,0.0
9424,89.0,0,60,0.0,0.0
9425,69.0,0,90,6.0,0.0
9426,53.0,24,60,13.0,0.0
9427,69.0,0,40,5.0,0.0
9428,65.0,6,40,5.0,0.0
9429,89.0,24,20,11.0,0.0
9430,93.0,0,20,10.0,0.0
9431,69.0,0,60,4.0,0.0
9432,41.0,0,60,14.0,0.0
9433,41.0,0,20,8.0,0.0
9434,77.0,0,60,3.0,0.0
9435,77.0,0,60,2.0,0.0
9436,81.0,0,60,2.0,0.0
9437,65.0,0,40,7.0,0.0
9438,77.0,0,40,7.0,0.0
9439,81.0,0,60,3.0,0.0
9440,65.0,0,60,4.0,0.0
9441,89.0,0,20,11.0,0.0
9442,93.0,0,20,10.0,0.0
9443,41.0,6,20,8.0,0.0
9444,72.0,0,20,12.0,0.0
9445,36.0,0,40,14.0,0.0
9446,79.0,0,40,2.0,0.0
9447,76.0,0,40,2.0,0.0
9448,91.0,0,40,1.0,0.0
9449,41.0,0,20,8.0,0.0
9450,88.0,0,20,11.0,0.0
9451,48.0,0,40,13.0,0.0
9452,76.0,6,40,3.0,0.0
9453,88.0,0,40,0.0,0.0
9454,72.0,0,20,12.0,0.0
9455,67.0,0,40,4.0,0.0
9456,60.0,0,40,4.0,0.0
9457,79.0,0,40,3.0,0.0
9458,60.0,0,40,5.0,0.0
9459,67.0,0,40,5.0,0.0
9460,72.0,0,40,7.0,0.0
9461,91.0,12,20,10.0,0.0
9462,72.0,0,20,12.0,0.0
9463,41.0,0,20,8.0,0.0
9464,91.0,30,20,10.0,0.0
9465,88.0,0,20,11.0,0.0
9466,72.0,0,40,2.0,0.0
9467,84.0,24,20,11.0,0.0
9468,33.0,6,40,14.0,0.0
9469,72.0,0,20,12.0,0.0
9470,65.0,0,40,4.0,0.0
9471,57.0,0,40,4.0,0.0
9472,72.0,0,40,3.0,0.0
9473,77.0,0,40,2.0,0.0
9474,69.0,0,40,7.0,0.0
9475,89.0,0,40,1.0,0.0
9476,77.0,0,40,3.0,0.0
9477,45.0,0,40,13.0,0.0
9478,89.0,0,20,10.0,0.0
9479,65.0,0,40,5.0,0.0
9480,84.0,0,40,0.0,0.0
9481,57.0,0,40,5.0,0.0
9482,89.0,30,20,10.0,0.0
9483,84.0,0,20,11.0,0.0
9484,72.0,0,20,12.0,0.0
9485,60.0,6,40,5.0,0.0
9486,67.0,0,40,5.0,0.0
9487,72.0,0,20,12.0,0.0
9488,88.0,0,40,0.0,0.0
9489,48.0,0,40,13.0,0.0
9490,91.0,0,40,1.0,0.0
9491,79.0,0,40,3.0,0.0
9492,91.0,0,20,10.0,0.0
9493,36.0,0,40,14.0,0.0
9494,76.0,0,40,3.0,0.0
9495,60.0,0,40,4.0,0.0
9496,67.0,0,40,4.0,0.0
9497,88.0,24,20,11.0,0.0
9498,79.0,0,40,2.0,0.0
9499,76.0,0,40,2.0,0.0
9500,72.0,0,40,7.0,0.0
9501,72.0,30,20,12.0,0.0
9502,88.0,0,20,11.0,0.0
9503,91.0,0,20,10.0,0.0
9504,89.0,24,60,0.0,0.0
9505,89.0,24,20,11.0,0.0
9506,65.0,0,40,5.0,0.0
9507,69.0,0,40,5.0,0.0
9508,81.0,0,60,2.0,0.0
9509,77.0,0,60,2.0,0.0
9510,53.0,0,60,13.0,0.0
9511,93.0,0,60,1.0,0.0
9512,72.0,0,20,12.0,0.0
9513,77.0,6,40,7.0,0.0
9514,41.0,0,60,14.0,0.0
9515,77.0,0,60,3.0,0.0
9516,65.0,0,90,6.0,0.0
9517,69.0,12,90,6.0,0.0
9518,69.0,0,60,4.0,0.0
9519,65.0,0,40,7.0,0.0
9520,93.0,0,20,10.0,0.0
9521,65.0,0,60,4.0,0.0
9522,81.0,0,60,3.0,0.0
9523,41.0,0,20,8.0,0.0
9524,72.0,0,20,12.0,0.0
9525,93.0,6,20,10.0,0.0
9526,89.0,0,20,11.0,0.0
9527,41.0,0,20,8.0,0.0
9528,67.0,0,40,5.0,0.0
9529,60.0,0,40,5.0,0.0
9530,36.0,0,40,14.0,0.0
9531,91.0,0,40,1.0,0.0
9532,79.0,0,40,2.0,0.0
9533,76.0,0,40,2.0,0.0
9534,88.0,0,20,11.0,0.0
9535,48.0,0,40,13.0,0.0
9536,76.0,0,40,3.0,0.0
9537,79.0,6,40,3.0,0.0
9538,60.0,0,40,4.0,0.0
9539,67.0,0,40,4.0,0.0
9540,91.0,0,20,10.0,0.0
9541,72.0,0,20,12.0,0.0
9542,88.0,0,40,0.0,0.0
9543,72.0,0,40,7.0,0.0
9544,41.0,12,20,8.0,0.0
9545,41.0,0,20,8.0,0.0
9546,88.0,0,20,11.0,0.0
9547,91.0,0,20,10.0,0.0
9548,72.0,30,20,12.0,0.0
9549,72.0,0,40,3.0,0.0
9550,84.0,0,40,0.0,0.0
9551,89.0,0,40,1.0,0.0
9552,77.0,0,40,2.0,0.0
9553,72.0,0,40,2.0,0.0
9554,57.0,0,40,4.0,0.0
9555,65.0,0,40,4.0,0.0
9556,77.0,0,40,3.0,0.0
9557,72.0,24,20,12.0,0.0
9558,84.0,0,20,11.0,0.0
9559,33.0,0,40,14.0,0.0
9560,65.0,0,40,5.0,0.0
9561,57.0,6,40,5.0,0.0
9562,45.0,0,40,13.0,0.0
9563,89.0,0,20,10.0,0.0
9564,69.0,0,40,7.0,0.0
9565,84.0,0,20,11.0,0.0
9566,89.0,0,20,10.0,0.0
9567,72.0,30,20,12.0,0.0
9568,76.0,0,40,3.0,0.0
9569,60.0,0,40,4.0,0.0
9570,67.0,0,40,4.0,0.0
9571,79.0,0,40,3.0,0.0
9572,91.0,0,40,1.0,0.0
9573,91.0,24,20,10.0,0.0
9574,72.0,6,40,7.0,0.0
9575,88.0,0,20,11.0,0.0
9576,76.0,0,40,2.0,0.0
9577,36.0,0,40,14.0,0.0
9578,67.0,0,40,5.0,0.0
9579,72.0,0,20,12.0,0.0
9580,60.0,0,40,5.0,0.0
9581,48.0,0,40,13.0,0.0
9582,88.0,0,40,0.0,0.0
9583,79.0,0,40,2.0,0.0
9584,72.0,0,20,12.0,0.0
9585,88.0,0,20,11.0,0.0
9586,91.0,30,20,10.0,0.0
9587,77.0,0,60,2.0,0.0
9588,72.0,0,20,12.0,0.0
9589,89.0,0,60,0.0,0.0
9590,77.0,0,40,7.0,0.0
9591,89.0,24,20,11.0,0.0
9592,69.0,0,40,5.0,0.0
9593,65.0,0,40,5.0,0.0
9594,41.0,0,20,8.0,0.0
9595,93.0,0,20,10.0,0.0
9596,41.0,0,60,14.0,0.0
9597,81.0,0,60,2.0,0.0
9598,65.0,0,60,4.0,0.0
9599,69.0,0,90,6.0,0.0
9600,65.0,6,40,7.0,0.0
9601,65.0,12,90,6.0,0.0
9602,81.0,0,60,3.0,0.0
9603,69.0,0,60,4.0,0.0
9604,77.0,24,60,3.0,0.0
9605,53.0,0,60,13.0,0.0
9606,93.0,0,60,1.0,0.0
9607,41.0,6,20,8.0,0.0
9608,89.0,0,20,11.0,0.0
9609,93.0,0,20,10.0,0.0
9610,72.0,0,20,12.0,0.0
9611,48.0,0,40,13.0,0.0
9612,91.0,0,20,10.0,0.0
9613,36.0,0,40,14.0,0.0
9614,88.0,0,40,0.0,0.0
9615,79.0,0,40,2.0,0.0
9616,67.0,0,40,4.0,0.0
9617,91.0,0,40,1.0,0.0
9618,72.0,12,20,12.0,0.0
9619,76.0,6,40,2.0,0.0
9620,72.0,0,40,7.0,0.0
9621,60.0,0,40,4.0,0.0
9622,79.0,0,40,3.0,0.0
9623,67.0,0,40,5.0,0.0
9624,41.0,0,20,8.0,0.0
9625,88.0,0,20,11.0,0.0
9626,60.0,0,40,5.0,0.0
9627,76.0,0,40,3.0,0.0
9628,72.0,0,20,12.0,0.0
9629,91.0,30,20,10.0,0.0
9630,41.0,0,20,8.0,0.0
9631,88.0,0,20,11.0,0.0
9632,84.0,0,40,0.0,0.0
9633,77.0,0,40,2.0,0.0
9634,45.0,0,40,13.0,0.0
9635,72.0,0,20,12.0,0.0
9636,72.0,0,40,2.0,0.0
9637,89.0,0,40,1.0,0.0
9638,33.0,6,40,14.0,0.0
9639,89.0,0,20,10.0,0.0
9640,57.0,0,40,4.0,0.0
9641,57.0,0,40,5.0,0.0
9642,72.0,0,40,3.0,0.0
9643,77.0,0,40,3.0,0.0
9644,69.0,0,40,7.0,0.0
9645,84.0,24,20,11.0,0.0
9646,65.0,0,40,5.0,0.0
9647,65.0,0,40,4.0,0.0
9648,72.0,30,20,12.0,0.0
9649,89.0,0,20,10.0,0.0
9650,84.0,0,20,11.0,0.0
9651,60.0,0,40,5.0,0.0
9652,67.0,0,40,5.0,0.0
9653,88.0,6,40,0.0,0.0
9654,88.0,24,20,11.0,0.0
9655,72.0,0,40,7.0,0.0
9656,67.0,0,40,4.0,0.0
9657,72.0,0,20,12.0,0.0
9658,91.0,0,40,1.0,0.0
9659,60.0,0,40,4.0,0.0
9660,91.0,0,20,10.0,0.0
9661,79.0,0,40,3.0,0.0
9662,76.0,0,40,2.0,0.0
9663,36.0,0,40,14.0,0.0
9664,79.0,0,40,2.0,0.0
9665,76.0,0,40,3.0,0.0
9666,48.0,0,40,13.0,0.0
9667,91.0,0,20,10.0,0.0
9668,88.0,30,20,11.0,0.0
9669,72.0,0,20,12.0,0.0
9670,53.0,0,60,13.0,0.0
9671,81.0,0,60,2.0,0.0
9672,65.0,0,40,7.0,0.0
9673,65.0,12,90,6.0,0.0
9674,41.0,0,20,8.0,0.0
9675,93.0,0,20,10.0,0.0
9676,93.0,0,60,1.0,0.0
9677,77.0,0,40,7.0,0.0
9678,65.0,0,60,4.0,0.0
9679,77.0,0,60,2.0,0.0
9680,81.0,0,60,3.0,0.0
9681,41.0,24,60,14.0,0.0
9682,69.0,0,90,6.0,0.0
9683,89.0,24,20,11.0,0.0
9684,69.0,0,40,5.0,0.0
9685,65.0,6,40,5.0,0.0
9686,77.0,0,60,3.0,0.0
9687,69.0,0,60,4.0,0.0
9688,89.0,0,60,0.0,0.0
9689,72.0,0,20,12.0,0.0
9690,93.0,0,20,10.0,0.0
9691,72.0,0,20,12.0,0.0
9692,89.0,6,20,11.0,0.0
9693,41.0,0,20,8.0,0.0
9694,76.0,0,40,3.0,0.0
9695,79.0,0,40,3.0,0.0
9696,41.0,0,20,8.0,0.0
9697,72.0,0,20,12.0,0.0
9698,79.0,0,40,2.0,0.0
9699,48.0,0,40,13.0,0.0
9700,60.0,0,40,5.0,0.0
9701,88.0,12,20,11.0,0.0
9702,91.0,0,20,10.0,0.0
9703,88.0,6,40,0.0,0.0
9704,91.0,0,40,1.0,0.0
9705,76.0,0,40,2.0,0.0
9706,60.0,0,40,4.0,0.0
9707,67.0,0,40,4.0,0.0
9708,36.0,0,40,14.0,0.0
9709,67.0,0,40,5.0,0.0
9710,72.0,0,40,7.0,0.0
9711,72.0,30,20,12.0,0.0
9712,88.0,0,20,11.0,0.0
9713,41.0,0,20,8.0,0.0
9714,91.0,0,20,10.0,0.0
9715,84.0,0,40,0.0,0.0
9716,57.0,0,40,5.0,0.0
9717,65.0,0,40,5.0,0.0
9718,84.0,0,20,11.0,0.0
9719,69.0,0,40,7.0,0.0
9720,57.0,0,40,4.0,0.0
9721,65.0,0,40,4.0,0.0
9722,72.0,0,40,2.0,0.0
9723,77.0,0,40,2.0,0.0
9724,89.0,0,40,1.0,0.0
9725,33.0,0,40,14.0,0.0
9726,89.0,0,20,10.0,0.0
9727,72.0,6,40,3.0,0.0
9728,77.0,0,40,3.0,0.0
9729,72.0,24,20,12.0,0.0
9730,45.0,0,40,13.0,0.0
9731,89.0,30,20,10.0,0.0
9732,84.0,0,20,11.0,0.0
9733,72.0,0,20,12.0,0.0
9734,88.0,24,20,11.0,0.0
9735,60.0,0,40,4.0,0.0
9736,67.0,0,40,4.0,0.0
9737,79.0,0,40,2.0,0.0
9738,91.0,0,20,10.0,0.0
9739,72.0,0,20,12.0,0.0
9740,36.0,0,40,14.0,0.0
9741,91.0,0,40,1.0,0.0
9742,60.0,0,40,5.0,0.0
9743,67.0,0,40,5.0,0.0
9744,79.0,0,40,3.0,0.0
9745,76.0,0,40,2.0,0.0
9746,48.0,6,40,13.0,0.0
9747,76.0,0,40,3.0,0.0
9748,88.0,0,40,0.0,0.0
9749,72.0,0,40,7.0,0.0
9750,88.0,0,20,11.0,0.0
9751,91.0,0,20,10.0,0.0
9752,72.0,30,20,12.0,0.0
9753,77.0,0,40,2.0,0.0
9754,81.0,0,40,2.0,0.0
9755,65.0,12,180,5.0,0.0
9756,69.0,0,180,5.0,0.0
9757,93.0,0,40,1.0,0.0
9758,69.0,0,40,4.0,0.0
9759,89.0,0,40,0.0,0.0
9760,72.0,6,40,12.0,0.0
9761,81.0,0,40,3.0,0.0
9762,65.0,0,90,6.0,0.0
9763,77.0,0,40,3.0,0.0
9764,65.0,0,40,4.0,0.0
9765,89.0,0,40,11.0,0.0
9766,41.0,12,90,8.0,0.0
9767,77.0,0,90,7.0,0.0
9768,65.0,0,90,7.0,0.0
9769,53.0,0,180,13.0,0.0
9770,93.0,24,20,10.0,0.0
9771,41.0,0,180,14.0,0.0
9772,93.0,30,20,10.0,0.0
9773,91.0,0,20,10.0,0.0
9774,91.0,0,40,1.0,0.0
9775,79.0,0,40,0.0,0.0
9776,67.0,0,40,3.0,0.0
9777,79.0,0,40,3.0,0.0
9778,67.0,0,20,12.0,0.0
9779,67.0,6,40,4.0,0.0
9780,79.0,12,20,11.0,0.0
9781,79.0,0,40,2.0,0.0
9782,67.0,30,20,12.0,0.0
9783,91.0,0,20,10.0,0.0
9784,79.0,0,20,11.0,0.0
9785,89.0,0,40,1.0,0.0
9786,65.0,0,40,6.0,0.0
9787,65.0,0,40,4.0,0.0
9788,77.0,6,40,0.0,0.0
9789,65.0,0,40,7.0,0.0
9790,65.0,0,40,3.0,0.0
9791,65.0,24,20,12.0,0.0
9792,77.0,0,20,11.0,0.0
9793,77.0,0,40,7.0,0.0
9794,53.0,12,90,4.0,0.0
9795,89.0,0,20,10.0,0.0
9796,77.0,0,40,2.0,0.0
9797,77.0,0,40,3.0,0.0
9798,65.0,0,20,12.0,0.0
9799,77.0,0,20,11.0,0.0
9800,89.0,18,20,10.0,0.0
9801,76.0,0,40,2.0,0.0
9802,65.0,0,40,7.0,0.0
9803,64.0,0,40,4.0,0.0
9804,77.0,0,40,7.0,0.0
9805,88.0,0,20,10.0,0.0
9806,76.0,0,40,3.0,0.0
9807,64.0,0,40,3.0,0.0
9808,76.0,12,20,11.0,0.0
9809,64.0,0,20,12.0,0.0
9810,88.0,6,40,1.0,0.0
9811,65.0,0,40,6.0,0.0
9812,76.0,0,40,0.0,0.0
9813,64.0,0,20,12.0,0.0
9814,76.0,0,20,11.0,0.0
9815,88.0,30,20,10.0,0.0
9816,77.0,0,40,2.0,0.0
9817,89.0,6,40,1.0,0.0
9818,41.0,0,90,8.0,0.0
9819,65.0,12,90,6.0,0.0
9820,77.0,0,20,11.0,0.0
9821,65.0,0,90,7.0,0.0
9822,77.0,0,40,3.0,0.0
9823,77.0,0,90,7.0,0.0
9824,65.0,0,180,5.0,0.0
9825,69.0,0,180,5.0,0.0
9826,65.0,0,40,3.0,0.0
9827,65.0,0,40,4.0,0.0
9828,50.0,0,180,4.0,0.0
9829,50.0,12,180,13.0,0.0
9830,38.0,0,180,14.0,0.0
9831,89.0,0,20,10.0,0.0
9832,65.0,24,20,12.0,0.0
9833,77.0,0,40,0.0,0.0
9834,77.0,30,20,11.0,0.0
9835,65.0,0,20,12.0,0.0
9836,89.0,0,20,10.0,0.0
9837,88.0,0,20,10.0,0.0
9838,76.0,0,40,0.0,0.0
9839,64.0,0,40,3.0,0.0
9840,64.0,6,40,4.0,0.0
9841,88.0,0,40,1.0,0.0
9842,76.0,0,40,3.0,0.0
9843,76.0,0,40,2.0,0.0
9844,64.0,0,20,12.0,0.0
9845,76.0,12,20,11.0,0.0
9846,88.0,30,20,10.0,0.0
9847,76.0,0,20,11.0,0.0
9848,64.0,0,20,12.0,0.0
9849,86.0,0,40,1.0,0.0
9850,65.0,0,40,6.0,0.0
9851,62.0,6,40,4.0,0.0
9852,77.0,0,40,7.0,0.0
9853,65.0,0,40,7.0,0.0
9854,86.0,0,20,10.0,0.0
9855,62.0,0,40,3.0,0.0
9856,62.0,24,20,12.0,0.0
9857,74.0,0,40,2.0,0.0
9858,74.0,0,40,3.0,0.0
9859,74.0,0,20,11.0,0.0
9860,74.0,0,40,0.0,0.0
9861,86.0,18,20,10.0,0.0
9862,74.0,0,20,11.0,0.0
9863,62.0,0,20,12.0,0.0
9864,73.0,0,20,11.0,0.0
9865,65.0,0,40,7.0,0.0
9866,73.0,0,40,3.0,0.0
9867,65.0,0,40,6.0,0.0
9868,77.0,0,40,7.0,0.0
9869,73.0,6,40,2.0,0.0
9870,85.0,0,40,1.0,0.0
9871,85.0,24,20,10.0,0.0
9872,61.0,0,40,4.0,0.0
9873,73.0,0,40,0.0,0.0
9874,61.0,0,20,12.0,0.0
9875,85.0,0,20,10.0,0.0
9876,61.0,30,20,12.0,0.0
9877,73.0,0,20,11.0,0.0
9878,77.0,0,90,7.0,0.0
9879,62.0,24,20,12.0,0.0
9880,74.0,6,40,0.0,0.0
9881,62.0,0,40,4.0,0.0
9882,46.0,0,90,4.0,0.0
9883,74.0,0,40,3.0,0.0
9884,86.0,0,40,1.0,0.0
9885,34.0,0,90,14.0,0.0
9886,74.0,0,40,2.0,0.0
9887,67.0,12,180,5.0,0.0
9888,65.0,0,180,5.0,0.0
9889,67.0,0,90,6.0,0.0
9890,74.0,0,20,11.0,0.0
9891,41.0,0,90,8.0,0.0
9892,86.0,0,20,10.0,0.0
9893,46.0,12,90,13.0,0.0
9894,79.0,0,90,7.0,0.0
9895,86.0,30,20,10.0,0.0
9896,74.0,0,20,11.0,0.0
9897,62.0,0,20,12.0,0.0
9898,84.0,0,20,10.0,0.0
9899,60.0,6,40,4.0,0.0
9900,72.0,0,40,3.0,0.0
9901,72.0,12,20,11.0,0.0
9902,96.0,0,40,1.0,0.0
9903,60.0,0,20,12.0,0.0
9904,72.0,0,40,2.0,0.0
9905,84.0,0,40,2.0,0.0
9906,84.0,0,40,0.0,0.0
9907,72.0,30,20,11.0,0.0
9908,84.0,0,20,10.0,0.0
9909,60.0,0,20,12.0,0.0
9910,70.0,0,40,3.0,0.0
9911,58.0,0,40,4.0,0.0
9912,82.0,0,20,10.0,0.0
9913,79.0,0,40,7.0,0.0
9914,77.0,6,40,7.0,0.0
9915,31.0,0,90,14.0,0.0
9916,43.0,0,90,13.0,0.0
9917,58.0,0,20,12.0,0.0
9918,70.0,0,40,2.0,0.0
9919,82.0,0,40,2.0,0.0
9920,94.0,0,40,1.0,0.0
9921,67.0,0,40,6.0,0.0
9922,82.0,0,40,0.0,0.0
9923,43.0,12,90,4.0,0.0
9924,70.0,24,20,11.0,0.0
9925,70.0,0,20,11.0,0.0
9926,82.0,18,20,10.0,0.0
9927,58.0,0,20,12.0,0.0
9928,79.0,0,40,7.0,0.0
9929,81.0,0,40,2.0,0.0
9930,77.0,0,40,7.0,0.0
9931,69.0,6,40,3.0,0.0
9932,81.0,0,40,0.0,0.0
9933,69.0,0,40,2.0,0.0
9934,69.0,0,20,11.0,0.0
9935,93.0,0,40,1.0,0.0
9936,57.0,12,20,12.0,0.0
9937,67.0,0,40,6.0,0.0
9938,81.0,0,20,10.0,0.0
9939,57.0,0,40,4.0,0.0
9940,81.0,30,20,10.0,0.0
9941,69.0,0,20,11.0,0.0
9942,57.0,0,20,12.0,0.0
9943,70.0,6,40,2.0,0.0
9944,82.0,0,40,0.0,0.0
9945,36.0,0,90,14.0,0.0
9946,70.0,0,20,11.0,0.0
9947,67.0,0,180,5.0,0.0
9948,60.0,12,180,5.0,0.0
9949,48.0,12,90,13.0,0.0
9950,82.0,0,20,10.0,0.0
9951,79.0,0,90,7.0,0.0
9952,82.0,0,40,2.0,0.0
9953,70.0,0,40,3.0,0.0
9954,48.0,0,90,8.0,0.0
9955,67.0,0,90,6.0,0.0
9956,48.0,0,90,4.0,0.0
9957,58.0,0,40,4.0,0.0
9958,58.0,24,20,12.0,0.0
9959,72.0,0,90,7.0,0.0
9960,94.0,0,40,1.0,0.0
9961,82.0,30,20,10.0,0.0
9962,70.0,0,20,11.0,0.0
9963,58.0,0,20,12.0,0.0
9964,55.0,0,40,4.0,0.0
9965,91.0,0,40,1.0,0.0
9966,55.0,0,20,12.0,0.0
9967,79.0,12,20,10.0,0.0
9968,79.0,6,40,2.0,0.0
9969,67.0,0,40,3.0,0.0
9970,67.0,0,40,2.0,0.0
9971,79.0,0,40,0.0,0.0
9972,67.0,0,20,11.0,0.0
9973,55.0,0,20,12.0,0.0
9974,67.0,0,20,11.0,0.0
9975,79.0,30,20,10.0,0.0
9976,72.0,24,20,11.0,0.0
9977,84.0,0,40,0.0,0.0
9978,36.0,0,90,14.0,0.0
9979,72.0,0,40,3.0,0.0
9980,48.0,12,90,13.0,0.0
9981,84.0,0,20,10.0,0.0
9982,48.0,0,90,4.0,0.0
9983,96.0,0,40,1.0,0.0
9984,72.0,0,40,7.0,0.0
9985,79.0,0,40,7.0,0.0
9986,60.0,0,40,4.0,0.0
9987,60.0,0,20,12.0,0.0
9988,67.0,0,40,6.0,0.0
9989,72.0,0,40,2.0,0.0
9990,84.0,6,40,2.0,0.0
9991,60.0,18,20,12.0,0.0
9992,84.0,0,20,10.0,0.0
9993,72.0,0,20,11.0,0.0
9994,84.0,0,40,0.0,0.0
9995,79.0,0,40,7.0,0.0
9996,96.0,6,40,1.0,0.0
9997,72.0,0,40,7.0,0.0
9998,67.0,0,40,6.0,0.0
9999,84.0,0,20,10.0,0.0
10000,60.0,0,40,4.0,0.0
10001,72.0,0,20,11.0,0.0
10002,72.0,0,40,2.0,0.0
10003,84.0,0,40,2.0,0.0
10004,60.0,12,20,12.0,0.0
10005,72.0,0,40,3.0,0.0
10006,72.0,0,20,11.0,0.0
10007,84.0,102,20,10.0,0.0
10008,60.0,0,20,12.0,0.0
10009,65.0,0,90,11.0,0.0
10010,77.0,0,90,10.0,0.0
10011,65.0,96,150,5.0,0.0
10012,41.0,17,90,8.0,0.0
10013,65.0,0,120,12.0,0.0
10014,77.0,0,90,2.0,0.0
10015,65.0,0,90,2.0,0.0
10016,77.0,0,90,0.0,0.0
10017,89.0,0,90,1.0,0.0
10018,65.0,0,120,13.0,0.0
10019,65.0,24,120,4.0,0.0
10020,77.0,0,120,7.0,0.0
10021,65.0,0,150,6.0,0.0
10022,65.0,7,120,7.0,0.0
10023,29.0,0,90,14.0,0.0
10024,65.0,0,90,3.0,0.0
10025,63.0,0,120,12.0,0.0
10026,63.0,0,120,13.0,0.0
10027,63.0,120,120,4.0,0.0
10028,62.0,96,120,4.0,0.0
10029,62.0,0,120,13.0,0.0
10030,62.0,0,120,12.0,0.0
10031,66.0,144,90,12.0,0.0
10032,66.0,0,90,13.0,0.0
10033,66.0,0,90,4.0,0.0
10034,67.0,96,150,6.0,0.0
10035,67.0,0,150,5.0,0.0
10036,67.0,0,120,4.0,0.0
10037,67.0,0,120,12.0,0.0
10038,67.0,24,120,13.0,0.0
10039,61.0,120,120,4.0,0.0
10040,61.0,0,120,12.0,0.0
10041,61.0,0,120,13.0,0.0
10042,60.0,96,120,4.0,0.0
10043,60.0,0,120,13.0,0.0
10044,60.0,0,120,12.0,0.0
10045,64.0,0,90,12.0,0.0
10046,64.0,0,90,13.0,0.0
10047,64.0,108,90,4.0,0.0
10048,65.0,24,120,12.0,0.0
10049,65.0,0,120,13.0,0.0
10050,65.0,24,150,6.0,0.0
10051,65.0,0,120,4.0,0.0
10052,65.0,0,150,5.0,0.0
10053,81.0,30,20,10.0,0.0
10054,82.0,6,20,10.0,0.0
10055,63.0,0,120,13.0,0.0
10056,84.0,60,40,10.0,0.0
10057,63.0,48,120,4.0,0.0
10058,63.0,0,120,12.0,0.0
10059,84.0,12,40,10.0,0.0
10060,62.0,48,120,4.0,0.0
10061,84.0,28,40,10.0,0.0
10062,62.0,0,120,12.0,0.0
10063,62.0,0,120,13.0,0.0
10064,81.0,20,15,10.0,0.0
10065,82.0,20,15,10.0,0.0
10066,84.0,4,15,10.0,0.0
10067,66.0,0,90,13.0,0.0
10068,86.0,48,40,10.0,0.0
10069,66.0,12,90,12.0,0.0
10070,66.0,0,90,4.0,0.0
10071,84.0,60,40,10.0,0.0
10072,67.0,24,150,5.0,0.0
10073,67.0,24,120,4.0,0.0
10074,67.0,0,120,12.0,0.0
10075,67.0,0,120,13.0,0.0
10076,67.0,0,150,6.0,0.0
10077,82.0,36,40,10.0,0.0
10078,79.0,30,20,10.0,0.0
10079,81.0,6,20,10.0,0.0
10080,61.0,0,120,12.0,0.0
10081,82.0,60,40,10.0,0.0
10082,61.0,0,120,13.0,0.0
10083,61.0,48,120,4.0,0.0
10084,82.0,12,40,10.0,0.0
10085,60.0,0,120,4.0,0.0
10086,82.0,28,40,10.0,0.0
10087,60.0,0,120,12.0,0.0
10088,60.0,48,120,13.0,0.0
10089,79.0,20,15,10.0,0.0
10090,81.0,20,15,10.0,0.0
10091,82.0,4,15,10.0,0.0
10092,64.0,0,90,4.0,0.0
10093,64.0,12,90,13.0,0.0
10094,84.0,48,40,10.0,0.0
10095,64.0,0,90,12.0,0.0
10096,82.0,60,40,10.0,0.0
10097,65.0,0,150,6.0,0.0
10098,65.0,24,120,13.0,0.0
10099,65.0,0,120,4.0,0.0
10100,65.0,0,120,12.0,0.0
10101,65.0,24,150,5.0,0.0
10102,81.0,36,40,10.0,0.0
10103,69.0,0,20,11.0,0.0
10104,93.0,0,20,1.0,0.0
10105,81.0,30,20,10.0,0.0
10106,94.0,0,20,1.0,0.0
10107,70.0,6,20,11.0,0.0
10108,82.0,0,20,10.0,0.0
10109,63.0,0,120,4.0,0.0
10110,96.0,12,90,1.0,0.0
10111,63.0,0,120,12.0,0.0
10112,72.0,48,40,11.0,0.0
10113,63.0,48,120,13.0,0.0
10114,84.0,0,40,10.0,0.0
10115,84.0,0,40,10.0,0.0
10116,72.0,12,40,11.0,0.0
10117,72.0,0,40,11.0,0.0
10118,62.0,0,120,12.0,0.0
10119,62.0,48,120,4.0,0.0
10120,62.0,0,120,13.0,0.0
10121,84.0,28,40,10.0,0.0
10122,69.0,20,15,11.0,0.0
10123,81.0,0,15,10.0,0.0
10124,93.0,0,15,1.0,0.0
10125,94.0,0,15,1.0,0.0
10126,70.0,20,15,11.0,0.0
10127,82.0,0,15,10.0,0.0
10128,72.0,0,15,11.0,0.0
10129,84.0,0,15,10.0,0.0
10130,96.0,4,15,1.0,0.0
10131,66.0,0,90,13.0,0.0
10132,66.0,0,90,12.0,0.0
10133,74.0,0,40,11.0,0.0
10134,98.0,0,90,1.0,0.0
10135,86.0,48,40,10.0,0.0
10136,66.0,12,90,4.0,0.0
10137,84.0,60,40,10.0,0.0
10138,72.0,0,40,11.0,0.0
10139,67.0,0,150,6.0,0.0
10140,67.0,24,150,5.0,0.0
10141,82.0,0,40,10.0,0.0
10142,67.0,24,120,13.0,0.0
10143,70.0,36,40,11.0,0.0
10144,67.0,0,120,4.0,0.0
10145,67.0,0,120,12.0,0.0
10146,67.0,0,20,11.0,0.0
10147,91.0,30,20,1.0,0.0
10148,79.0,0,20,10.0,0.0
10149,81.0,0,20,10.0,0.0
10150,69.0,6,20,11.0,0.0
10151,93.0,0,20,1.0,0.0
10152,61.0,0,120,4.0,0.0
10153,82.0,48,40,10.0,0.0
10154,61.0,48,120,13.0,0.0
10155,94.0,12,90,1.0,0.0
10156,70.0,0,40,11.0,0.0
10157,61.0,0,120,12.0,0.0
10158,82.0,12,40,10.0,0.0
10159,70.0,0,40,11.0,0.0
10160,60.0,48,120,13.0,0.0
10161,70.0,0,40,11.0,0.0
10162,82.0,28,40,10.0,0.0
10163,60.0,0,120,12.0,0.0
10164,60.0,0,120,4.0,0.0
10165,67.0,20,15,11.0,0.0
10166,91.0,0,15,1.0,0.0
10167,79.0,0,15,10.0,0.0
10168,81.0,0,15,10.0,0.0
10169,93.0,20,15,1.0,0.0
10170,69.0,0,15,11.0,0.0
10171,70.0,0,15,11.0,0.0
10172,94.0,4,15,1.0,0.0
10173,82.0,0,15,10.0,0.0
10174,64.0,0,90,12.0,0.0
10175,72.0,0,40,11.0,0.0
10176,64.0,0,90,13.0,0.0
10177,84.0,48,40,10.0,0.0
10178,96.0,12,90,1.0,0.0
10179,64.0,0,90,4.0,0.0
10180,70.0,36,40,11.0,0.0
10181,82.0,0,40,10.0,0.0
10182,41.0,0,120,14.0,0.0
10183,93.0,0,40,1.0,0.0
10184,65.0,0,150,5.0,0.0
10185,53.0,24,120,12.0,0.0
10186,69.0,0,20,11.0,0.0
10187,81.0,24,20,10.0,0.0
10188,65.0,0,150,6.0,0.0
10189,65.0,6,40,4.0,0.0
10190,41.0,0,120,13.0,0.0
10191,81.0,0,20,10.0,0.0
10192,69.0,30,20,11.0,0.0
10193,94.0,6,40,1.0,0.0
10194,57.0,0,20,4.0,0.0
10195,82.0,6,20,10.0,0.0
10196,81.0,0,30,0.0,0.0
10197,81.0,0,30,2.0,0.0
10198,70.0,0,20,11.0,0.0
10199,69.0,18,30,3.0,0.0
10200,82.0,6,20,2.0,0.0
10201,70.0,0,20,3.0,0.0
10202,82.0,0,20,10.0,0.0
10203,82.0,0,20,0.0,0.0
10204,70.0,0,20,11.0,0.0
10205,58.0,0,20,4.0,0.0
10206,96.0,0,40,1.0,0.0
10207,84.0,0,20,10.0,0.0
10208,39.0,0,120,14.0,0.0
10209,72.0,24,20,11.0,0.0
10210,84.0,0,40,2.0,0.0
10211,72.0,0,40,3.0,0.0
10212,51.0,0,120,12.0,0.0
10213,39.0,24,120,13.0,0.0
10214,60.0,0,40,4.0,0.0
10215,84.0,6,40,0.0,0.0
10216,84.0,30,20,10.0,0.0
10217,72.0,0,20,11.0,0.0
10218,97.0,6,40,1.0,0.0
10219,73.0,24,20,11.0,0.0
10220,85.0,0,20,10.0,0.0
10221,73.0,6,20,11.0,0.0
10222,85.0,0,20,10.0,0.0
10223,74.0,0,20,11.0,0.0
10224,65.0,6,40,6.0,0.0
10225,65.0,0,40,5.0,0.0
10226,38.0,24,120,13.0,0.0
10227,86.0,24,20,10.0,0.0
10228,98.0,0,40,1.0,0.0
10229,38.0,0,120,14.0,0.0
10230,50.0,0,120,12.0,0.0
10231,74.0,0,20,11.0,0.0
10232,86.0,22,20,10.0,0.0
10233,81.0,0,15,0.0,0.0
10234,57.0,8,15,4.0,0.0
10235,69.0,0,15,3.0,0.0
10236,72.0,0,20,11.0,0.0
10237,81.0,0,15,2.0,0.0
10238,84.0,12,20,10.0,0.0
10239,96.0,6,40,1.0,0.0
10240,82.0,0,15,0.0,0.0
10241,82.0,0,15,2.0,0.0
10242,58.0,12,15,4.0,0.0
10243,70.0,0,15,3.0,0.0
10244,84.0,0,20,10.0,0.0
10245,72.0,2,20,11.0,0.0
10246,60.0,0,15,4.0,0.0
10247,84.0,4,15,2.0,0.0
10248,72.0,0,15,3.0,0.0
10249,84.0,0,15,0.0,0.0
10250,86.0,0,40,2.0,0.0
10251,42.0,0,90,13.0,0.0
10252,82.0,24,20,10.0,0.0
10253,74.0,0,40,3.0,0.0
10254,62.0,0,40,4.0,0.0
10255,86.0,0,40,0.0,0.0
10256,94.0,6,40,1.0,0.0
10257,70.0,0,20,11.0,0.0
10258,42.0,0,90,14.0,0.0
10259,54.0,12,90,12.0,0.0
10260,70.0,30,20,11.0,0.0
10261,82.0,0,20,10.0,0.0
10262,81.0,0,20,10.0,0.0
10263,93.0,6,40,1.0,0.0
10264,69.0,12,20,11.0,0.0
10265,69.0,0,20,11.0,0.0
10266,81.0,30,20,10.0,0.0
10267,67.0,0,150,5.0,0.0
10268,43.0,0,120,13.0,0.0
10269,82.0,0,20,10.0,0.0
10270,70.0,24,20,11.0,0.0
10271,55.0,0,120,12.0,0.0
10272,67.0,0,150,6.0,0.0
10273,43.0,24,120,14.0,0.0
10274,94.0,6,40,1.0,0.0
10275,82.0,30,20,10.0,0.0
10276,70.0,0,20,11.0,0.0
10277,67.0,0,30,3.0,0.0
10278,93.0,6,40,1.0,0.0
10279,69.0,6,20,11.0,0.0
10280,79.0,0,30,2.0,0.0
10281,81.0,0,20,10.0,0.0
10282,79.0,0,30,0.0,0.0
10283,55.0,18,30,4.0,0.0
10284,81.0,6,20,2.0,0.0
10285,57.0,0,20,4.0,0.0
10286,81.0,0,20,10.0,0.0
10287,81.0,0,20,0.0,0.0
10288,69.0,0,20,11.0,0.0
10289,69.0,0,20,3.0,0.0
10290,70.0,0,40,3.0,0.0
10291,67.0,24,20,11.0,0.0
10292,49.0,0,120,12.0,0.0
10293,58.0,0,40,4.0,0.0
10294,37.0,24,120,13.0,0.0
10295,79.0,0,20,10.0,0.0
10296,82.0,0,40,0.0,0.0
10297,91.0,0,40,1.0,0.0
10298,82.0,6,40,2.0,0.0
10299,37.0,0,120,14.0,0.0
10300,79.0,0,20,10.0,0.0
10301,67.0,30,20,11.0,0.0
10302,93.0,6,40,1.0,0.0
10303,81.0,24,20,10.0,0.0
10304,69.0,0,20,11.0,0.0
10305,81.0,6,20,10.0,0.0
10306,69.0,0,20,11.0,0.0
10307,36.0,0,120,14.0,0.0
10308,67.0,0,40,5.0,0.0
10309,70.0,24,20,11.0,0.0
10310,67.0,6,40,6.0,0.0
10311,82.0,0,20,10.0,0.0
10312,94.0,0,40,1.0,0.0
10313,36.0,0,120,13.0,0.0
10314,82.0,0,20,10.0,0.0
10315,70.0,26,20,11.0,0.0
10316,55.0,0,20,4.0,0.0
10317,79.0,0,20,0.0,0.0
10318,79.0,4,20,2.0,0.0
10319,72.0,16,20,11.0,0.0
10320,96.0,6,40,1.0,0.0
10321,67.0,0,20,3.0,0.0
10322,84.0,0,20,10.0,0.0
10323,69.0,0,20,3.0,0.0
10324,57.0,0,20,4.0,0.0
10325,81.0,0,20,0.0,0.0
10326,81.0,8,20,2.0,0.0
10327,72.0,0,20,11.0,0.0
10328,84.0,2,20,10.0,0.0
10329,82.0,0,15,0.0,0.0
10330,58.0,0,15,4.0,0.0
10331,82.0,0,15,2.0,0.0
10332,70.0,4,15,3.0,0.0
10333,84.0,0,40,2.0,0.0
10334,86.0,0,20,10.0,0.0
10335,34.0,12,90,14.0,0.0
10336,84.0,6,40,0.0,0.0
10337,46.0,0,90,13.0,0.0
10338,48.0,24,15,12.0,0.0
10339,60.0,0,40,4.0,0.0
10340,72.0,0,40,3.0,0.0
10341,60.0,0,90,12.0,0.0
10342,98.0,0,40,1.0,0.0
10343,74.0,24,20,11.0,0.0
10344,86.0,30,20,10.0,0.0
10345,74.0,0,20,11.0,0.0
10346,72.0,6,40,3.0,0.0
10347,84.0,0,40,2.0,0.0
10348,100.0,0,40,1.0,0.0
10349,60.0,0,40,4.0,0.0
10350,88.0,0,20,10.0,0.0
10351,76.0,12,20,11.0,0.0
10352,84.0,0,40,0.0,0.0
10353,88.0,0,20,10.0,0.0
10354,76.0,38,20,11.0,0.0
10355,65.0,0,120,3.0,0.0
10356,77.0,0,120,2.0,0.0
10357,65.0,0,120,4.0,0.0
10358,45.0,0,40,13.0,0.0
10359,65.0,0,40,6.0,0.0
10360,77.0,16,30,11.0,0.0
10361,57.0,0,40,12.0,0.0
10362,89.0,0,30,10.0,0.0
10363,77.0,0,90,7.0,0.0
10364,65.0,0,90,7.0,0.0
10365,89.0,0,120,1.0,0.0
10366,41.0,12,90,8.0,0.0
10367,33.0,0,40,14.0,0.0
10368,53.0,32,120,4.0,0.0
10369,77.0,0,120,3.0,0.0
10370,89.0,0,120,0.0,0.0
10371,65.0,24,40,5.0,0.0
10372,89.0,24,30,10.0,0.0
10373,77.0,0,30,11.0,0.0
10374,65.0,0,40,5.0,0.0
10375,57.0,0,40,12.0,0.0
10376,33.0,0,40,14.0,0.0
10377,45.0,4,40,13.0,0.0
10378,65.0,0,40,6.0,0.0
10379,89.0,0,30,10.0,0.0
10380,77.0,8,30,11.0,0.0
10381,46.0,24,40,13.0,0.0
10382,75.0,0,120,2.0,0.0
10383,77.0,0,90,7.0,0.0
10384,58.0,0,40,12.0,0.0
10385,65.0,12,90,7.0,0.0
10386,75.0,0,120,3.0,0.0
10387,63.0,0,120,3.0,0.0
10388,75.0,16,30,11.0,0.0
10389,34.0,0,40,14.0,0.0
10390,87.0,0,120,0.0,0.0
10391,41.0,0,90,8.0,0.0
10392,63.0,0,120,4.0,0.0
10393,87.0,32,120,1.0,0.0
10394,51.0,0,120,4.0,0.0
10395,87.0,0,30,10.0,0.0
10396,75.0,0,30,11.0,0.0
10397,87.0,24,30,10.0,0.0
10398,48.0,0,40,13.0,0.0
10399,60.0,0,40,12.0,0.0
10400,36.0,4,40,14.0,0.0
10401,75.0,0,30,11.0,0.0
10402,87.0,8,30,10.0,0.0
10403,38.0,0,40,14.0,0.0
10404,74.0,0,120,2.0,0.0
10405,86.0,0,120,0.0,0.0
10406,86.0,0,30,10.0,0.0
10407,50.0,0,120,4.0,0.0
10408,62.0,0,120,4.0,0.0
10409,62.0,0,40,12.0,0.0
10410,74.0,16,30,11.0,0.0
10411,41.0,0,40,8.0,0.0
10412,50.0,0,40,13.0,0.0
10413,77.0,0,40,7.0,0.0
10414,74.0,0,120,3.0,0.0
10415,62.0,32,120,3.0,0.0
10416,65.0,0,40,7.0,0.0
10417,65.0,0,40,6.0,0.0
10418,86.0,0,120,1.0,0.0
10419,65.0,24,40,5.0,0.0
10420,74.0,36,30,11.0,0.0
10421,86.0,0,30,10.0,0.0
10422,48.0,0,40,13.0,0.0
10423,65.0,4,40,6.0,0.0
10424,65.0,0,40,5.0,0.0
10425,60.0,0,40,12.0,0.0
10426,36.0,0,40,14.0,0.0
10427,74.0,0,30,11.0,0.0
10428,86.0,8,30,10.0,0.0
10429,66.0,12,90,4.0,0.0
10430,34.0,0,40,14.0,0.0
10431,90.0,0,90,1.0,0.0
10432,90.0,0,90,0.0,0.0
10433,46.0,0,40,13.0,0.0
10434,78.0,0,90,2.0,0.0
10435,54.0,0,90,4.0,0.0
10436,78.0,16,30,11.0,0.0
10437,78.0,0,90,3.0,0.0
10438,90.0,0,30,10.0,0.0
10439,66.0,0,90,3.0,0.0
10440,58.0,24,40,12.0,0.0
10441,78.0,24,30,11.0,0.0
10442,90.0,0,30,10.0,0.0
10443,33.0,0,40,14.0,0.0
10444,45.0,0,40,13.0,0.0
10445,57.0,4,40,12.0,0.0
10446,90.0,40,30,10.0,0.0
10447,78.0,0,30,11.0,0.0
10448,67.0,32,120,4.0,0.0
10449,91.0,16,30,10.0,0.0
10450,67.0,0,40,6.0,0.0
10451,91.0,0,120,0.0,0.0
10452,67.0,0,40,5.0,0.0
10453,79.0,0,120,2.0,0.0
10454,34.0,0,40,14.0,0.0
10455,79.0,0,30,11.0,0.0
10456,58.0,24,40,12.0,0.0
10457,79.0,0,120,3.0,0.0
10458,46.0,0,40,13.0,0.0
10459,55.0,12,90,4.0,0.0
10460,67.0,0,120,3.0,0.0
10461,91.0,0,120,1.0,0.0
10462,91.0,24,30,10.0,0.0
10463,79.0,0,30,11.0,0.0
10464,67.0,0,40,6.0,0.0
10465,33.0,0,40,14.0,0.0
10466,48.0,0,40,12.0,0.0
10467,45.0,4,40,13.0,0.0
10468,67.0,0,40,5.0,0.0
10469,79.0,8,30,11.0,0.0
10470,91.0,0,30,10.0,0.0
10471,85.0,0,120,0.0,0.0
10472,73.0,0,120,3.0,0.0
10473,61.0,0,120,3.0,0.0
10474,85.0,0,120,1.0,0.0
10475,61.0,32,120,4.0,0.0
10476,46.0,24,40,13.0,0.0
10477,49.0,0,40,12.0,0.0
10478,85.0,16,30,10.0,0.0
10479,58.0,24,180,4.0,0.0
10480,73.0,0,120,2.0,0.0
10481,34.0,0,40,14.0,0.0
10482,73.0,0,30,11.0,0.0
10483,73.0,0,30,11.0,0.0
10484,85.0,36,30,10.0,0.0
10485,43.0,0,40,13.0,0.0
10486,58.0,4,40,12.0,0.0
10487,31.0,0,40,14.0,0.0
10488,85.0,0,30,10.0,0.0
10489,73.0,8,30,11.0,0.0
10490,84.0,0,120,1.0,0.0
10491,67.0,0,40,6.0,0.0
10492,60.0,0,90,7.0,0.0
10493,84.0,0,120,0.0,0.0
10494,52.0,0,40,12.0,0.0
10495,84.0,0,30,10.0,0.0
10496,48.0,12,90,8.0,0.0
10497,72.0,16,30,11.0,0.0
10498,72.0,0,90,7.0,0.0
10499,36.0,0,40,14.0,0.0
10500,48.0,24,40,13.0,0.0
10501,72.0,0,120,2.0,0.0
10502,60.0,0,120,3.0,0.0
10503,72.0,32,120,3.0,0.0
10504,60.0,0,120,4.0,0.0
10505,67.0,0,40,5.0,0.0
10506,84.0,0,30,10.0,0.0
10507,72.0,0,30,11.0,0.0
10508,67.0,4,40,6.0,0.0
10509,67.0,0,40,5.0,0.0
10510,36.0,0,40,13.0,0.0
10511,55.0,0,40,12.0,0.0
10512,36.0,0,40,14.0,0.0
10513,84.0,8,30,10.0,0.0
10514,72.0,0,30,11.0,0.0
10515,88.0,0,90,1.0,0.0
10516,76.0,0,90,2.0,0.0
10517,48.0,0,40,13.0,0.0
10518,72.0,0,90,7.0,0.0
10519,76.0,0,30,11.0,0.0
10520,64.0,0,90,3.0,0.0
10521,76.0,12,90,3.0,0.0
10522,60.0,0,90,7.0,0.0
10523,55.0,24,40,12.0,0.0
10524,88.0,0,90,0.0,0.0
10525,55.0,0,90,4.0,0.0
10526,64.0,0,90,4.0,0.0
10527,88.0,16,30,10.0,0.0
10528,48.0,0,90,8.0,0.0
10529,36.0,0,40,14.0,0.0
10530,88.0,0,30,10.0,0.0
10531,76.0,24,30,11.0,0.0
10532,60.0,4,40,12.0,0.0
10533,48.0,0,40,13.0,0.0
10534,36.0,0,40,14.0,0.0
10535,88.0,0,30,10.0,0.0
10536,76.0,40,30,11.0,0.0
10537,89.0,0,180,0.0,0.0
10538,65.0,40,180,3.0,0.0
10539,29.0,0,180,14.0,0.0
10540,41.0,0,180,13.0,0.0
10541,65.0,0,90,7.0,0.0
10542,77.0,0,90,7.0,0.0
10543,65.0,0,180,6.0,0.0
10544,77.0,0,30,11.0,0.0
10545,41.0,16,90,8.0,0.0
10546,89.0,0,180,1.0,0.0
10547,48.0,0,180,5.0,0.0
10548,77.0,0,180,2.0,0.0
10549,89.0,40,30,10.0,0.0
10550,53.0,0,180,4.0,0.0
10551,60.0,0,180,5.0,0.0
10552,53.0,0,180,12.0,0.0
10553,89.0,24,30,10.0,0.0
10554,77.0,0,30,11.0,0.0
10555,77.0,0,30,11.0,0.0
10556,89.0,40,30,10.0,0.0
10557,77.0,0,30,11.0,0.0
10558,89.0,40,30,10.0,0.0
10559,77.0,0,30,11.0,0.0
10560,89.0,0,30,10.0,0.0
10561,77.0,40,30,11.0,0.0
10562,89.0,0,30,10.0,0.0
10563,91.0,40,30,10.0,0.0
10564,60.0,0,180,5.0,0.0
10565,55.0,0,180,4.0,0.0
10566,52.0,0,180,4.0,0.0
10567,67.0,0,180,3.0,0.0
10568,67.0,0,180,6.0,0.0
10569,28.0,40,180,14.0,0.0
10570,79.0,0,180,2.0,0.0
10571,52.0,0,180,12.0,0.0
10572,48.0,0,180,5.0,0.0
10573,48.0,0,90,8.0,0.0
10574,40.0,0,180,13.0,0.0
10575,91.0,0,180,1.0,0.0
10576,84.0,0,180,0.0,0.0
10577,79.0,0,30,11.0,0.0
10578,72.0,0,90,7.0,0.0
10579,60.0,16,90,7.0,0.0
10580,79.0,24,30,11.0,0.0
10581,91.0,0,30,10.0,0.0
10582,91.0,40,30,10.0,0.0
10583,79.0,0,30,11.0,0.0
10584,79.0,40,30,11.0,0.0
10585,91.0,0,30,10.0,0.0
10586,91.0,0,30,10.0,0.0
10587,79.0,0,30,11.0,0.0
10588,91.0,0,30,10.0,0.0
10589,79.0,40,30,11.0,0.0
10590,69.0,0,180,3.0,0.0
10591,29.0,0,180,14.0,0.0
10592,53.0,0,180,12.0,0.0
10593,60.0,0,180,5.0,0.0
10594,65.0,0,180,6.0,0.0
10595,48.0,0,180,5.0,0.0
10596,57.0,40,180,4.0,0.0
10597,81.0,0,180,2.0,0.0
10598,72.0,0,90,7.0,0.0
10599,41.0,0,180,13.0,0.0
10600,53.0,0,180,4.0,0.0
10601,93.0,0,180,1.0,0.0
10602,84.0,0,180,0.0,0.0
10603,60.0,0,90,7.0,0.0
10604,48.0,16,90,8.0,0.0
10605,93.0,0,30,10.0,0.0
10606,81.0,40,30,11.0,0.0
10607,93.0,0,30,10.0,0.0
10608,81.0,24,30,11.0,0.0
10609,93.0,40,30,10.0,0.0
10610,81.0,0,30,11.0,0.0
10611,93.0,0,30,10.0,0.0
10612,81.0,40,30,11.0,0.0
10613,81.0,0,30,11.0,0.0
10614,93.0,0,30,10.0,0.0
10615,93.0,0,30,10.0,0.0
10616,81.0,40,30,11.0,0.0
10617,82.0,0,180,2.0,0.0
10618,60.0,16,90,7.0,0.0
10619,55.0,0,180,12.0,0.0
10620,48.0,0,180,5.0,0.0
10621,43.0,0,180,13.0,0.0
10622,55.0,0,180,4.0,0.0
10623,70.0,0,180,3.0,0.0
10624,94.0,40,30,10.0,0.0
10625,72.0,0,90,7.0,0.0
10626,48.0,0,90,8.0,0.0
10627,84.0,40,180,0.0,0.0
10628,31.0,0,180,14.0,0.0
10629,58.0,0,180,4.0,0.0
10630,60.0,0,180,5.0,0.0
10631,82.0,0,30,11.0,0.0
10632,94.0,0,180,1.0,0.0
10633,70.0,0,180,6.0,0.0
10634,94.0,24,30,10.0,0.0
10635,82.0,0,30,11.0,0.0
10636,82.0,0,30,11.0,0.0
10637,94.0,40,30,10.0,0.0
10638,94.0,40,30,10.0,0.0
10639,82.0,0,30,11.0,0.0
10640,94.0,0,30,10.0,0.0
10641,82.0,0,30,11.0,0.0
10642,82.0,0,30,11.0,0.0
10643,94.0,32,30,10.0,0.0
10644,95.0,0,90,1.0,0.0
10645,60.0,6,40,7.0,0.0
10646,71.0,16,90,2.0,0.0
10647,83.0,0,90,2.0,0.0
10648,44.0,0,90,13.0,0.0
10649,84.0,0,90,0.0,0.0
10650,48.0,8,20,8.0,0.0
10651,60.0,0,90,5.0,0.0
10652,48.0,0,90,5.0,0.0
10653,72.0,0,40,7.0,0.0
10654,83.0,16,30,11.0,0.0
10655,56.0,0,90,12.0,0.0
10656,71.0,0,90,3.0,0.0
10657,56.0,0,90,4.0,0.0
10658,59.0,0,90,4.0,0.0
10659,95.0,0,30,10.0,0.0
10660,32.0,0,90,14.0,0.0
10661,48.0,18,20,8.0,0.0
10662,95.0,0,30,10.0,0.0
10663,83.0,12,30,11.0,0.0
10664,48.0,0,20,8.0,0.0
10665,72.0,0,20,7.0,0.0
10666,60.0,12,20,7.0,0.0
10667,83.0,0,30,11.0,0.0
10668,95.0,2,30,10.0,0.0
10669,48.0,0,20,8.0,0.0
10670,72.0,30,20,7.0,0.0
10671,60.0,0,20,7.0,0.0
10672,96.0,0,750,1.0,0.0
10673,84.0,0,750,0.0,0.0
10674,65.0,0,750,6.0,0.0
10675,57.0,0,750,4.0,0.0
10676,72.0,0,750,3.0,0.0
10677,96.0,0,30,10.0,0.0
10678,60.0,0,750,4.0,0.0
10679,84.0,16,30,11.0,0.0
10680,72.0,6,40,7.0,0.0
10681,48.0,8,20,8.0,0.0
10682,60.0,0,40,7.0,0.0
10683,60.0,0,750,5.0,0.0
10684,33.0,8,750,14.0,0.0
10685,72.0,0,750,2.0,0.0
10686,57.0,0,750,12.0,0.0
10687,45.0,0,750,13.0,0.0
10688,48.0,0,750,5.0,0.0
10689,48.0,18,20,8.0,0.0
10690,96.0,12,30,10.0,0.0
10691,84.0,0,30,11.0,0.0
10692,48.0,24,20,8.0,0.0
10693,60.0,4,40,7.0,0.0
10694,72.0,0,40,7.0,0.0
10695,96.0,2,30,10.0,0.0
10696,84.0,0,30,11.0,0.0
10697,48.0,30,20,8.0,0.0
10698,72.0,0,40,7.0,0.0
10699,96.0,0,30,10.0,0.0
10700,84.0,16,30,11.0,0.0
10701,48.0,8,20,8.0,0.0
10702,60.0,6,40,7.0,0.0
10703,48.0,18,20,8.0,0.0
10704,96.0,0,30,10.0,0.0
10705,84.0,12,30,11.0,0.0
10706,60.0,4,40,7.0,0.0
10707,72.0,0,40,7.0,0.0
10708,48.0,24,20,8.0,0.0
10709,96.0,2,30,10.0,0.0
10710,84.0,0,30,11.0,0.0
10711,48.0,30,20,8.0,0.0
10712,48.0,8,20,8.0,0.0
10713,72.0,6,40,7.0,0.0
10714,60.0,0,40,7.0,0.0
10715,84.0,0,30,11.0,0.0
10716,96.0,16,30,10.0,0.0
10717,48.0,18,20,8.0,0.0
10718,84.0,0,30,11.0,0.0
10719,96.0,12,30,10.0,0.0
10720,72.0,4,40,7.0,0.0
10721,48.0,24,20,8.0,0.0
10722,60.0,0,40,7.0,0.0
10723,84.0,2,30,11.0,0.0
10724,96.0,0,30,10.0,0.0
10725,48.0,30,20,8.0,0.0
10726,48.0,8,20,8.0,0.0
10727,84.0,0,30,11.0,0.0
10728,72.0,0,40,7.0,0.0
10729,60.0,6,40,7.0,0.0
10730,96.0,16,30,10.0,0.0
10731,48.0,18,20,8.0,0.0
10732,84.0,12,30,11.0,0.0
10733,96.0,0,30,10.0,0.0
10734,48.0,24,20,8.0,0.0
10735,72.0,0,40,7.0,0.0
10736,60.0,4,40,7.0,0.0
10737,84.0,0,30,11.0,0.0
10738,96.0,2,30,10.0,0.0
10739,48.0,30,20,8.0,0.0
10740,48.0,8,20,8.0,0.0
10741,60.0,0,40,7.0,0.0
10742,84.0,16,30,11.0,0.0
10743,72.0,6,40,7.0,0.0
10744,96.0,0,30,10.0,0.0
10745,48.0,18,20,8.0,0.0
10746,96.0,0,30,10.0,0.0
10747,84.0,12,30,11.0,0.0
10748,60.0,0,40,7.0,0.0
10749,72.0,4,40,7.0,0.0
10750,48.0,24,20,8.0,0.0
10751,96.0,2,30,10.0,0.0
10752,84.0,0,30,11.0,0.0
10753,48.0,30,20,8.0,0.0
10754,84.0,16,30,11.0,0.0
10755,48.0,8,20,8.0,0.0
10756,96.0,0,30,10.0,0.0
10757,60.0,0,40,7.0,0.0
10758,72.0,6,40,7.0,0.0
10759,48.0,18,20,8.0,0.0
10760,96.0,12,30,10.0,0.0
10761,84.0,0,30,11.0,0.0
10762,72.0,0,40,7.0,0.0
10763,48.0,24,20,8.0,0.0
10764,60.0,4,40,7.0,0.0
10765,96.0,0,30,10.0,0.0
10766,84.0,2,30,11.0,0.0
10767,48.0,30,20,8.0,0.0
10768,48.0,0,20,8.0,0.0
10769,84.0,16,30,11.0,0.0
10770,96.0,0,30,10.0,0.0
10771,72.0,0,40,7.0,0.0
10772,60.0,6,40,7.0,0.0
10773,48.0,18,20,8.0,0.0
10774,96.0,12,30,10.0,0.0
10775,84.0,0,30,11.0,0.0
10776,60.0,4,40,7.0,0.0
10777,72.0,0,40,7.0,0.0
10778,48.0,24,20,8.0,0.0
10779,84.0,2,30,11.0,0.0
10780,96.0,0,30,10.0,0.0
10781,48.0,38,20,8.0,0.0
10782,82.0,0,30,11.0,0.0
10783,36.0,16,90,14.0,0.0
10784,60.0,0,90,5.0,0.0
10785,82.0,0,90,0.0,0.0
10786,48.0,0,90,5.0,0.0
10787,72.0,0,90,7.0,0.0
10788,58.0,0,90,4.0,0.0
10789,67.0,0,90,3.0,0.0
10790,48.0,0,90,8.0,0.0
10791,58.0,0,30,12.0,0.0
10792,55.0,0,30,12.0,0.0
10793,79.0,0,90,2.0,0.0
10794,82.0,0,90,2.0,0.0
10795,76.0,0,90,3.0,0.0
10796,60.0,0,90,7.0,0.0
10797,94.0,16,30,10.0,0.0
10798,36.0,0,90,13.0,0.0
10799,67.0,0,90,6.0,0.0
10800,94.0,24,40,1.0,0.0
10801,55.0,0,90,4.0,0.0
10802,48.0,0,90,13.0,0.0
10803,82.0,0,30,11.0,0.0
10804,94.0,0,30,10.0,0.0
10805,55.0,12,30,12.0,0.0
10806,64.0,0,30,12.0,0.0
10807,91.0,12,20,1.0,0.0
10808,82.0,2,30,11.0,0.0
10809,64.0,0,30,12.0,0.0
10810,94.0,0,30,10.0,0.0
10811,55.0,0,30,12.0,0.0
10812,93.0,38,20,1.0,0.0
10813,82.0,0,90,2.0,0.0
10814,64.0,0,30,12.0,0.0
10815,55.0,40,30,12.0,0.0
10816,58.0,0,90,4.0,0.0
10817,55.0,0,90,4.0,0.0
10818,94.0,0,90,1.0,0.0
10819,76.0,0,90,3.0,0.0
10820,67.0,0,90,3.0,0.0
10821,79.0,0,90,2.0,0.0
10822,36.0,16,90,13.0,0.0
10823,91.0,0,90,0.0,0.0
10824,48.0,0,90,13.0,0.0
10825,91.0,0,30,10.0,0.0
10826,60.0,0,90,5.0,0.0
10827,36.0,0,90,14.0,0.0
10828,79.0,0,30,11.0,0.0
10829,67.0,0,90,6.0,0.0
10830,60.0,0,90,7.0,0.0
10831,48.0,0,90,5.0,0.0
10832,72.0,0,90,7.0,0.0
10833,55.0,24,30,12.0,0.0
10834,91.0,0,30,10.0,0.0
10835,79.0,0,30,11.0,0.0
10836,64.0,0,30,12.0,0.0
10837,91.0,0,30,10.0,0.0
10838,64.0,0,30,12.0,0.0
10839,79.0,40,30,11.0,0.0
10840,55.0,0,30,12.0,0.0
10841,60.0,0,90,5.0,0.0
10842,48.0,16,90,5.0,0.0
10843,67.0,0,90,6.0,0.0
10844,76.0,0,30,11.0,0.0
10845,55.0,0,90,4.0,0.0
10846,36.0,0,90,13.0,0.0
10847,36.0,0,90,14.0,0.0
10848,48.0,0,90,8.0,0.0
10849,48.0,0,90,13.0,0.0
10850,76.0,0,90,3.0,0.0
10851,82.0,0,90,2.0,0.0
10852,79.0,0,90,2.0,0.0
10853,67.0,0,90,3.0,0.0
10854,58.0,0,90,4.0,0.0
10855,88.0,0,30,10.0,0.0
10856,72.0,0,90,7.0,0.0
10857,91.0,0,90,0.0,0.0
10858,60.0,0,90,7.0,0.0
10859,64.0,0,30,12.0,0.0
10860,55.0,40,30,12.0,0.0
10861,55.0,0,30,12.0,0.0
10862,88.0,12,30,10.0,0.0
10863,76.0,0,30,11.0,0.0
10864,64.0,0,30,12.0,0.0
10865,91.0,12,20,1.0,0.0
10866,64.0,2,30,12.0,0.0
10867,88.0,0,30,10.0,0.0
10868,55.0,0,30,12.0,0.0
10869,76.0,0,30,11.0,0.0
10870,93.0,38,20,1.0,0.0
10871,84.0,0,30,10.0,0.0
10872,64.0,0,30,12.0,0.0
10873,55.0,40,30,12.0,0.0
10874,60.0,0,90,5.0,0.0
10875,36.0,0,90,13.0,0.0
10876,76.0,0,90,3.0,0.0
10877,58.0,16,90,4.0,0.0
10878,72.0,0,30,11.0,0.0
10879,91.0,0,90,0.0,0.0
10880,48.0,0,90,13.0,0.0
10881,55.0,0,90,4.0,0.0
10882,94.0,0,90,1.0,0.0
10883,48.0,0,90,5.0,0.0
10884,67.0,0,90,3.0,0.0
10885,72.0,0,90,7.0,0.0
10886,60.0,0,90,7.0,0.0
10887,82.0,0,90,2.0,0.0
10888,79.0,0,90,2.0,0.0
10889,67.0,0,90,6.0,0.0
10890,36.0,0,90,14.0,0.0
10891,72.0,0,30,11.0,0.0
10892,64.0,0,30,12.0,0.0
10893,55.0,0,30,12.0,0.0
10894,84.0,24,30,10.0,0.0
10895,72.0,0,30,11.0,0.0
10896,64.0,0,30,12.0,0.0
10897,55.0,0,30,12.0,0.0
10898,84.0,40,30,10.0,0.0
10899,48.0,0,90,8.0,0.0
10900,36.0,0,90,13.0,0.0
10901,67.0,0,90,3.0,0.0
10902,60.0,0,90,5.0,0.0
10903,48.0,0,90,13.0,0.0
10904,48.0,0,90,5.0,0.0
10905,76.0,0,90,3.0,0.0
10906,72.0,0,90,7.0,0.0
10907,60.0,0,90,7.0,0.0
10908,91.0,0,90,0.0,0.0
10909,82.0,0,30,10.0,0.0
10910,67.0,0,90,6.0,0.0
10911,79.0,16,90,2.0,0.0
10912,82.0,0,90,2.0,0.0
10913,36.0,0,90,14.0,0.0
10914,55.0,0,90,4.0,0.0
10915,58.0,0,90,4.0,0.0
10916,70.0,0,30,11.0,0.0
10917,64.0,40,30,12.0,0.0
10918,55.0,0,30,12.0,0.0
10919,70.0,12,30,11.0,0.0
10920,55.0,0,30,12.0,0.0
10921,64.0,0,30,12.0,0.0
10922,82.0,0,30,10.0,0.0
10923,91.0,12,20,1.0,0.0
10924,70.0,0,30,11.0,0.0
10925,82.0,0,30,10.0,0.0
10926,55.0,2,30,12.0,0.0
10927,64.0,0,30,12.0,0.0
10928,93.0,38,20,1.0,0.0
10929,64.0,40,30,12.0,0.0
10930,91.0,0,90,0.0,0.0
10931,94.0,0,90,1.0,0.0
10932,36.0,0,90,13.0,0.0
10933,48.0,0,90,13.0,0.0
10934,67.0,0,90,3.0,0.0
10935,55.0,0,30,12.0,0.0
10936,36.0,0,90,14.0,0.0
10937,76.0,16,90,3.0,0.0
10938,67.0,0,90,6.0,0.0
10939,60.0,0,90,7.0,0.0
10940,55.0,0,90,4.0,0.0
10941,82.0,0,90,2.0,0.0
10942,79.0,0,90,2.0,0.0
10943,72.0,0,90,7.0,0.0
10944,58.0,0,90,4.0,0.0
10945,48.0,0,90,5.0,0.0
10946,79.0,0,30,10.0,0.0
10947,67.0,0,30,11.0,0.0
10948,60.0,0,90,5.0,0.0
10949,64.0,0,30,12.0,0.0
10950,79.0,0,30,10.0,0.0
10951,55.0,24,30,12.0,0.0
10952,67.0,0,30,11.0,0.0
10953,79.0,0,30,10.0,0.0
10954,55.0,40,30,12.0,0.0
10955,64.0,0,30,12.0,0.0
10956,67.0,0,30,11.0,0.0
10957,36.0,0,90,13.0,0.0
10958,76.0,0,30,10.0,0.0
10959,76.0,0,90,3.0,0.0
10960,67.0,0,90,3.0,0.0
10961,67.0,0,90,6.0,0.0
10962,48.0,0,90,5.0,0.0
10963,58.0,16,90,4.0,0.0
10964,48.0,0,90,13.0,0.0
10965,64.0,0,30,11.0,0.0
10966,55.0,0,90,4.0,0.0
10967,60.0,0,90,5.0,0.0
10968,60.0,0,90,7.0,0.0
10969,36.0,0,90,14.0,0.0
10970,55.0,40,30,12.0,0.0
10971,72.0,0,90,7.0,0.0
10972,48.0,0,90,8.0,0.0
10973,82.0,0,90,2.0,0.0
10974,79.0,0,90,2.0,0.0
10975,91.0,0,90,0.0,0.0
10976,64.0,0,30,12.0,0.0
10977,76.0,0,30,10.0,0.0
10978,64.0,0,30,11.0,0.0
10979,64.0,0,30,12.0,0.0
10980,55.0,12,30,12.0,0.0
10981,91.0,12,20,1.0,0.0
10982,64.0,2,30,11.0,0.0
10983,76.0,0,30,10.0,0.0
10984,64.0,0,30,12.0,0.0
10985,55.0,0,30,12.0,0.0
10986,93.0,38,20,1.0,0.0
10987,36.0,0,90,13.0,0.0
10988,91.0,0,90,0.0,0.0
10989,60.0,0,90,5.0,0.0
10990,58.0,12,90,4.0,0.0
10991,94.0,24,40,1.0,0.0
10992,36.0,0,90,14.0,0.0
10993,55.0,0,30,12.0,0.0
10994,67.0,0,90,6.0,0.0
10995,76.0,0,90,3.0,0.0
10996,67.0,0,90,3.0,0.0
10997,60.0,0,90,7.0,0.0
10998,64.0,0,30,12.0,0.0
10999,60.0,16,30,11.0,0.0
11000,55.0,0,90,4.0,0.0
11001,72.0,0,30,10.0,0.0
11002,48.0,0,90,13.0,0.0
11003,79.0,0,90,2.0,0.0
11004,82.0,0,90,2.0,0.0
11005,48.0,0,90,5.0,0.0
11006,72.0,0,90,7.0,0.0
11007,60.0,0,30,11.0,0.0
11008,72.0,24,30,10.0,0.0
11009,55.0,0,30,12.0,0.0
11010,64.0,0,30,12.0,0.0
11011,88.0,4,40,1.0,0.0
11012,60.0,0,30,11.0,0.0
11013,72.0,0,30,10.0,0.0
11014,64.0,40,30,12.0,0.0
11015,55.0,0,30,12.0,0.0
11016,48.0,0,150,5.0,0.0
11017,60.0,0,150,5.0,0.0
11018,89.0,0,150,0.0,0.0
11019,65.0,0,30,11.0,0.0
11020,65.0,16,90,7.0,0.0
11021,77.0,0,90,7.0,0.0
11022,77.0,40,30,10.0,0.0
11023,77.0,0,150,2.0,0.0
11024,89.0,0,150,1.0,0.0
11025,41.0,0,150,13.0,0.0
11026,53.0,0,150,4.0,0.0
11027,53.0,0,150,12.0,0.0
11028,29.0,0,150,14.0,0.0
11029,41.0,0,90,8.0,0.0
11030,65.0,8,150,3.0,0.0
11031,65.0,0,150,6.0,0.0
11032,89.0,24,30,10.0,0.0
11033,77.0,0,30,11.0,0.0
11034,77.0,0,30,11.0,0.0
11035,89.0,32,30,10.0,0.0
11036,89.0,0,30,10.0,0.0
11037,77.0,40,30,11.0,0.0
11038,77.0,0,30,11.0,0.0
11039,89.0,36,30,10.0,0.0
11040,65.0,0,40,3.0,0.0
11041,53.0,0,40,4.0,0.0
11042,77.0,0,40,2.0,0.0
11043,29.0,4,40,14.0,0.0
11044,89.0,0,40,1.0,0.0
11045,65.0,0,60,6.0,0.0
11046,48.0,0,60,5.0,0.0
11047,60.0,0,60,5.0,0.0
11048,48.0,35,60,8.0,0.0
11049,41.0,0,40,13.0,0.0
11050,53.0,0,40,12.0,0.0
11051,84.0,0,40,0.0,0.0
11052,77.0,0,30,11.0,0.0
11053,89.0,5,30,10.0,0.0
11054,55.0,0,150,4.0,0.0
11055,48.0,0,90,8.0,0.0
11056,52.0,8,150,4.0,0.0
11057,52.0,0,150,12.0,0.0
11058,28.0,0,150,14.0,0.0
11059,91.0,0,30,10.0,0.0
11060,60.0,0,150,5.0,0.0
11061,67.0,40,30,11.0,0.0
11062,67.0,0,150,6.0,0.0
11063,84.0,0,150,0.0,0.0
11064,48.0,0,150,5.0,0.0
11065,91.0,0,150,1.0,0.0
11066,40.0,0,150,13.0,0.0
11067,67.0,0,150,3.0,0.0
11068,72.0,16,90,7.0,0.0
11069,60.0,0,90,7.0,0.0
11070,79.0,0,150,2.0,0.0
11071,79.0,0,30,11.0,0.0
11072,91.0,24,30,10.0,0.0
11073,91.0,32,30,10.0,0.0
11074,79.0,0,30,11.0,0.0
11075,79.0,0,30,11.0,0.0
11076,91.0,40,30,10.0,0.0
11077,91.0,36,30,10.0,0.0
11078,79.0,0,30,11.0,0.0
11079,28.0,0,40,14.0,0.0
11080,67.0,0,40,3.0,0.0
11081,52.0,4,40,4.0,0.0
11082,67.0,0,60,6.0,0.0
11083,52.0,0,40,12.0,0.0
11084,48.0,0,40,8.0,0.0
11085,40.0,0,40,13.0,0.0
11086,55.0,0,40,4.0,0.0
11087,91.0,0,40,1.0,0.0
11088,79.0,0,40,2.0,0.0
11089,48.0,0,60,5.0,0.0
11090,84.0,0,40,0.0,0.0
11091,60.0,35,60,5.0,0.0
11092,91.0,0,30,10.0,0.0
11093,79.0,5,30,11.0,0.0
11094,57.0,0,150,4.0,0.0
11095,60.0,0,90,7.0,0.0
11096,72.0,16,90,7.0,0.0
11097,48.0,0,150,5.0,0.0
11098,60.0,0,150,5.0,0.0
11099,69.0,40,30,11.0,0.0
11100,53.0,0,150,12.0,0.0
11101,48.0,0,90,8.0,0.0
11102,53.0,0,150,4.0,0.0
11103,93.0,0,30,10.0,0.0
11104,29.0,0,150,14.0,0.0
11105,93.0,0,150,1.0,0.0
11106,69.0,0,150,3.0,0.0
11107,65.0,0,150,6.0,0.0
11108,41.0,0,150,13.0,0.0
11109,81.0,0,150,2.0,0.0
11110,84.0,8,150,0.0,0.0
11111,81.0,0,30,11.0,0.0
11112,93.0,24,30,10.0,0.0
11113,93.0,0,30,10.0,0.0
11114,81.0,32,30,11.0,0.0
11115,81.0,0,30,11.0,0.0
11116,93.0,40,30,10.0,0.0
11117,93.0,36,30,10.0,0.0
11118,81.0,0,30,11.0,0.0
11119,60.0,35,60,5.0,0.0
11120,29.0,0,40,14.0,0.0
11121,48.0,0,40,8.0,0.0
11122,53.0,4,40,12.0,0.0
11123,53.0,0,40,4.0,0.0
11124,41.0,0,40,13.0,0.0
11125,48.0,0,60,5.0,0.0
11126,65.0,0,40,6.0,0.0
11127,57.0,0,40,4.0,0.0
11128,93.0,0,40,1.0,0.0
11129,84.0,0,40,0.0,0.0
11130,81.0,0,40,2.0,0.0
11131,69.0,0,40,3.0,0.0
11132,93.0,0,30,10.0,0.0
11133,81.0,5,30,11.0,0.0
11134,84.0,0,150,0.0,0.0
11135,94.0,0,150,1.0,0.0
11136,43.0,8,150,13.0,0.0
11137,48.0,0,150,5.0,0.0
11138,60.0,0,150,5.0,0.0
11139,55.0,0,150,12.0,0.0
11140,70.0,0,150,3.0,0.0
11141,70.0,0,30,11.0,0.0
11142,72.0,16,90,7.0,0.0
11143,48.0,0,90,8.0,0.0
11144,70.0,0,150,6.0,0.0
11145,58.0,0,150,4.0,0.0
11146,55.0,0,150,4.0,0.0
11147,60.0,0,90,7.0,0.0
11148,31.0,0,150,14.0,0.0
11149,82.0,0,150,2.0,0.0
11150,94.0,40,30,10.0,0.0
11151,94.0,24,30,10.0,0.0
11152,82.0,0,30,11.0,0.0
11153,82.0,0,30,11.0,0.0
11154,94.0,32,30,10.0,0.0
11155,82.0,0,30,11.0,0.0
11156,94.0,40,30,10.0,0.0
11157,82.0,36,30,11.0,0.0
11158,94.0,0,30,10.0,0.0
11159,55.0,0,40,4.0,0.0
11160,55.0,0,40,12.0,0.0
11161,82.0,0,40,2.0,0.0
11162,31.0,0,40,14.0,0.0
11163,60.0,0,60,5.0,0.0
11164,70.0,0,40,3.0,0.0
11165,70.0,0,40,6.0,0.0
11166,94.0,0,40,1.0,0.0
11167,58.0,4,40,4.0,0.0
11168,48.0,27,60,5.0,0.0
11169,48.0,0,40,8.0,0.0
11170,84.0,0,40,0.0,0.0
11171,43.0,0,40,13.0,0.0
11172,82.0,0,30,11.0,0.0
11173,94.0,5,30,10.0,0.0
11174,71.0,0,90,2.0,0.0
11175,83.0,0,90,2.0,0.0
11176,60.0,0,90,5.0,0.0
11177,71.0,0,90,3.0,0.0
11178,84.0,0,90,0.0,0.0
11179,48.0,0,90,5.0,0.0
11180,59.0,0,90,4.0,0.0
11181,56.0,0,90,4.0,0.0
11182,32.0,16,90,14.0,0.0
11183,44.0,0,90,13.0,0.0
11184,95.0,0,90,1.0,0.0
11185,95.0,0,30,10.0,0.0
11186,56.0,0,90,12.0,0.0
11187,48.0,8,20,8.0,0.0
11188,83.0,16,30,11.0,0.0
11189,60.0,6,40,7.0,0.0
11190,72.0,0,40,7.0,0.0
11191,48.0,18,20,8.0,0.0
11192,95.0,12,30,10.0,0.0
11193,83.0,0,30,11.0,0.0
11194,72.0,0,20,7.0,0.0
11195,60.0,12,20,7.0,0.0
11196,48.0,0,20,8.0,0.0
11197,95.0,0,30,10.0,0.0
11198,83.0,2,30,11.0,0.0
11199,60.0,0,20,7.0,0.0
11200,72.0,0,20,7.0,0.0
11201,48.0,30,20,8.0,0.0
11202,96.0,0,30,10.0,0.0
11203,84.0,16,30,11.0,0.0
11204,45.0,0,750,13.0,0.0
11205,57.0,0,750,4.0,0.0
11206,60.0,0,750,4.0,0.0
11207,57.0,0,750,12.0,0.0
11208,72.0,0,750,2.0,0.0
11209,48.0,8,20,8.0,0.0
11210,72.0,0,750,3.0,0.0
11211,60.0,0,750,5.0,0.0
11212,96.0,0,750,1.0,0.0
11213,65.0,0,750,6.0,0.0
11214,72.0,6,40,7.0,0.0
11215,60.0,0,40,7.0,0.0
11216,48.0,0,750,5.0,0.0
11217,84.0,0,750,0.0,0.0
11218,33.0,8,750,14.0,0.0
11219,48.0,18,20,8.0,0.0
11220,84.0,12,30,11.0,0.0
11221,96.0,0,30,10.0,0.0
11222,48.0,24,20,8.0,0.0
11223,60.0,0,40,7.0,0.0
11224,72.0,4,40,7.0,0.0
11225,96.0,0,30,10.0,0.0
11226,84.0,2,30,11.0,0.0
11227,48.0,30,20,8.0,0.0
11228,84.0,0,30,11.0,0.0
11229,96.0,16,30,10.0,0.0
11230,48.0,8,20,8.0,0.0
11231,60.0,6,40,7.0,0.0
11232,72.0,0,40,7.0,0.0
11233,48.0,18,20,8.0,0.0
11234,96.0,0,30,10.0,0.0
11235,84.0,12,30,11.0,0.0
11236,48.0,24,20,8.0,0.0
11237,72.0,0,40,7.0,0.0
11238,60.0,4,40,7.0,0.0
11239,96.0,0,30,10.0,0.0
11240,84.0,2,30,11.0,0.0
11241,48.0,30,20,8.0,0.0
11242,48.0,8,20,8.0,0.0
11243,84.0,16,30,11.0,0.0
11244,96.0,0,30,10.0,0.0
11245,72.0,6,40,7.0,0.0
11246,60.0,0,40,7.0,0.0
11247,48.0,18,20,8.0,0.0
11248,96.0,0,30,10.0,0.0
11249,84.0,12,30,11.0,0.0
11250,60.0,4,40,7.0,0.0
11251,72.0,0,40,7.0,0.0
11252,48.0,24,20,8.0,0.0
11253,96.0,0,30,10.0,0.0
11254,84.0,2,30,11.0,0.0
11255,48.0,30,20,8.0,0.0
11256,84.0,16,30,11.0,0.0
11257,48.0,8,20,8.0,0.0
11258,60.0,6,40,7.0,0.0
11259,72.0,0,40,7.0,0.0
11260,96.0,0,30,10.0,0.0
11261,48.0,18,20,8.0,0.0
11262,84.0,12,30,11.0,0.0
11263,96.0,0,30,10.0,0.0
11264,72.0,0,40,7.0,0.0
11265,60.0,4,40,7.0,0.0
11266,48.0,24,20,8.0,0.0
11267,96.0,2,30,10.0,0.0
11268,84.0,0,30,11.0,0.0
11269,48.0,30,20,8.0,0.0
11270,48.0,8,20,8.0,0.0
11271,60.0,0,40,7.0,0.0
11272,72.0,6,40,7.0,0.0
11273,96.0,16,30,10.0,0.0
11274,84.0,0,30,11.0,0.0
11275,48.0,18,20,8.0,0.0
11276,84.0,0,30,11.0,0.0
11277,96.0,12,30,10.0,0.0
11278,72.0,0,40,7.0,0.0
11279,48.0,24,20,8.0,0.0
11280,60.0,4,40,7.0,0.0
11281,84.0,0,30,11.0,0.0
11282,96.0,2,30,10.0,0.0
11283,48.0,30,20,8.0,0.0
11284,48.0,8,20,8.0,0.0
11285,96.0,16,30,10.0,0.0
11286,72.0,0,40,7.0,0.0
11287,60.0,6,40,7.0,0.0
11288,84.0,0,30,11.0,0.0
11289,48.0,18,20,8.0,0.0
11290,84.0,0,30,11.0,0.0
11291,96.0,12,30,10.0,0.0
11292,48.0,24,20,8.0,0.0
11293,60.0,0,40,7.0,0.0
11294,72.0,4,40,7.0,0.0
11295,96.0,2,30,10.0,0.0
11296,84.0,0,30,11.0,0.0
11297,48.0,30,20,8.0,0.0
11298,72.0,6,40,7.0,0.0
11299,48.0,0,20,8.0,0.0
11300,60.0,0,40,7.0,0.0
11301,84.0,16,30,11.0,0.0
11302,96.0,0,30,10.0,0.0
11303,48.0,18,20,8.0,0.0
11304,96.0,0,30,10.0,0.0
11305,84.0,12,30,11.0,0.0
11306,72.0,0,40,7.0,0.0
11307,48.0,24,20,8.0,0.0
11308,60.0,4,40,7.0,0.0
11309,96.0,2,30,10.0,0.0
11310,84.0,0,30,11.0,0.0
11311,48.0,38,20,8.0,0.0
11312,82.0,0,90,2.0,0.0
11313,55.0,0,90,4.0,0.0
11314,48.0,0,90,13.0,0.0
11315,79.0,0,90,2.0,0.0
11316,48.0,0,90,8.0,0.0
11317,58.0,0,90,4.0,0.0
11318,60.0,0,90,7.0,0.0
11319,36.0,0,90,14.0,0.0
11320,82.0,16,90,0.0,0.0
11321,48.0,0,90,5.0,0.0
11322,60.0,0,90,5.0,0.0
11323,94.0,24,40,1.0,0.0
11324,58.0,0,30,12.0,0.0
11325,55.0,0,30,12.0,0.0
11326,76.0,0,90,3.0,0.0
11327,67.0,0,90,3.0,0.0
11328,94.0,0,30,10.0,0.0
11329,82.0,16,30,11.0,0.0
11330,67.0,0,90,6.0,0.0
11331,72.0,0,90,7.0,0.0
11332,36.0,0,90,13.0,0.0
11333,64.0,0,30,12.0,0.0
11334,55.0,0,30,12.0,0.0
11335,94.0,12,30,10.0,0.0
11336,82.0,0,30,11.0,0.0
11337,91.0,12,20,1.0,0.0
11338,82.0,0,30,11.0,0.0
11339,55.0,2,30,12.0,0.0
11340,94.0,0,30,10.0,0.0
11341,64.0,0,30,12.0,0.0
11342,93.0,38,20,1.0,0.0
11343,82.0,0,90,2.0,0.0
11344,91.0,0,30,10.0,0.0
11345,79.0,0,90,2.0,0.0
11346,36.0,0,90,14.0,0.0
11347,72.0,0,90,7.0,0.0
11348,76.0,0,90,3.0,0.0
11349,67.0,0,90,3.0,0.0
11350,60.0,0,90,7.0,0.0
11351,55.0,40,30,12.0,0.0
11352,67.0,16,90,6.0,0.0
11353,94.0,0,90,1.0,0.0
11354,91.0,0,90,0.0,0.0
11355,58.0,0,90,4.0,0.0
11356,48.0,0,90,13.0,0.0
11357,36.0,0,90,13.0,0.0
11358,64.0,0,30,12.0,0.0
11359,55.0,0,90,4.0,0.0
11360,79.0,0,30,11.0,0.0
11361,60.0,0,90,5.0,0.0
11362,48.0,0,90,5.0,0.0
11363,91.0,0,30,10.0,0.0
11364,79.0,0,30,11.0,0.0
11365,64.0,0,30,12.0,0.0
11366,55.0,24,30,12.0,0.0
11367,91.0,0,30,10.0,0.0
11368,79.0,0,30,11.0,0.0
11369,55.0,40,30,12.0,0.0
11370,64.0,0,30,12.0,0.0
11371,36.0,0,90,13.0,0.0
11372,48.0,0,90,13.0,0.0
11373,36.0,0,90,14.0,0.0
11374,58.0,0,90,4.0,0.0
11375,55.0,0,90,4.0,0.0
11376,60.0,0,90,7.0,0.0
11377,72.0,0,90,7.0,0.0
11378,76.0,0,30,11.0,0.0
11379,82.0,0,90,2.0,0.0
11380,79.0,0,90,2.0,0.0
11381,64.0,0,30,12.0,0.0
11382,55.0,40,30,12.0,0.0
11383,60.0,0,90,5.0,0.0
11384,67.0,16,90,6.0,0.0
11385,48.0,0,90,8.0,0.0
11386,91.0,0,90,0.0,0.0
11387,76.0,0,90,3.0,0.0
11388,48.0,0,90,5.0,0.0
11389,88.0,0,30,10.0,0.0
11390,67.0,0,90,3.0,0.0
11391,64.0,0,30,12.0,0.0
11392,88.0,0,30,10.0,0.0
11393,76.0,12,30,11.0,0.0
11394,55.0,0,30,12.0,0.0
11395,91.0,12,20,1.0,0.0
11396,88.0,0,30,10.0,0.0
11397,64.0,0,30,12.0,0.0
11398,76.0,2,30,11.0,0.0
11399,55.0,0,30,12.0,0.0
11400,93.0,38,20,1.0,0.0
11401,67.0,0,90,3.0,0.0
11402,76.0,0,90,3.0,0.0
11403,60.0,0,90,7.0,0.0
11404,72.0,0,90,7.0,0.0
11405,84.0,0,30,10.0,0.0
11406,60.0,0,90,5.0,0.0
11407,48.0,0,90,5.0,0.0
11408,67.0,16,90,6.0,0.0
11409,36.0,0,90,14.0,0.0
11410,79.0,0,90,2.0,0.0
11411,82.0,0,90,2.0,0.0
11412,91.0,0,90,0.0,0.0
11413,94.0,0,90,1.0,0.0
11414,64.0,40,30,12.0,0.0
11415,48.0,0,90,13.0,0.0
11416,58.0,0,90,4.0,0.0
11417,36.0,0,90,13.0,0.0
11418,72.0,0,30,11.0,0.0
11419,55.0,0,90,4.0,0.0
11420,55.0,0,30,12.0,0.0
11421,84.0,0,30,10.0,0.0
11422,72.0,0,30,11.0,0.0
11423,64.0,24,30,12.0,0.0
11424,55.0,0,30,12.0,0.0
11425,55.0,40,30,12.0,0.0
11426,64.0,0,30,12.0,0.0
11427,84.0,0,30,10.0,0.0
11428,72.0,0,30,11.0,0.0
11429,70.0,0,30,11.0,0.0
11430,82.0,0,90,2.0,0.0
11431,55.0,0,90,4.0,0.0
11432,67.0,0,90,6.0,0.0
11433,58.0,0,90,4.0,0.0
11434,76.0,0,90,3.0,0.0
11435,79.0,0,90,2.0,0.0
11436,64.0,0,30,12.0,0.0
11437,67.0,0,90,3.0,0.0
11438,91.0,16,90,0.0,0.0
11439,36.0,0,90,13.0,0.0
11440,48.0,0,90,13.0,0.0
11441,55.0,0,30,12.0,0.0
11442,82.0,40,30,10.0,0.0
11443,72.0,0,90,7.0,0.0
11444,48.0,0,90,5.0,0.0
11445,60.0,0,90,5.0,0.0
11446,48.0,0,90,8.0,0.0
11447,36.0,0,90,14.0,0.0
11448,60.0,0,90,7.0,0.0
11449,64.0,0,30,12.0,0.0
11450,55.0,0,30,12.0,0.0
11451,70.0,0,30,11.0,0.0
11452,82.0,12,30,10.0,0.0
11453,91.0,12,20,1.0,0.0
11454,64.0,0,30,12.0,0.0
11455,55.0,0,30,12.0,0.0
11456,82.0,0,30,10.0,0.0
11457,70.0,2,30,11.0,0.0
11458,93.0,38,20,1.0,0.0
11459,55.0,40,30,12.0,0.0
11460,64.0,0,30,12.0,0.0
11461,67.0,0,90,3.0,0.0
11462,76.0,0,90,3.0,0.0
11463,36.0,0,90,14.0,0.0
11464,67.0,0,30,11.0,0.0
11465,58.0,0,90,4.0,0.0
11466,36.0,0,90,13.0,0.0
11467,94.0,0,90,1.0,0.0
11468,91.0,0,90,0.0,0.0
11469,79.0,0,30,10.0,0.0
11470,48.0,0,90,5.0,0.0
11471,60.0,0,90,5.0,0.0
11472,79.0,16,90,2.0,0.0
11473,67.0,0,90,6.0,0.0
11474,55.0,0,90,4.0,0.0
11475,48.0,0,90,13.0,0.0
11476,82.0,0,90,2.0,0.0
11477,60.0,0,90,7.0,0.0
11478,72.0,0,90,7.0,0.0
11479,67.0,24,30,11.0,0.0
11480,64.0,0,30,12.0,0.0
11481,79.0,0,30,10.0,0.0
11482,55.0,0,30,12.0,0.0
11483,55.0,0,30,12.0,0.0
11484,64.0,0,30,12.0,0.0
11485,79.0,40,30,10.0,0.0
11486,67.0,0,30,11.0,0.0
11487,58.0,0,90,4.0,0.0
11488,55.0,0,90,4.0,0.0
11489,72.0,0,90,7.0,0.0
11490,36.0,0,90,14.0,0.0
11491,64.0,0,30,11.0,0.0
11492,60.0,0,90,7.0,0.0
11493,76.0,40,30,10.0,0.0
11494,91.0,0,90,0.0,0.0
11495,76.0,16,90,3.0,0.0
11496,67.0,0,90,3.0,0.0
11497,64.0,0,30,12.0,0.0
11498,55.0,0,30,12.0,0.0
11499,79.0,0,90,2.0,0.0
11500,82.0,0,90,2.0,0.0
11501,48.0,0,90,5.0,0.0
11502,60.0,0,90,5.0,0.0
11503,48.0,0,90,13.0,0.0
11504,36.0,0,90,13.0,0.0
11505,67.0,0,90,6.0,0.0
11506,48.0,0,90,8.0,0.0
11507,64.0,0,30,12.0,0.0
11508,55.0,0,30,12.0,0.0
11509,76.0,0,30,10.0,0.0
11510,64.0,12,30,11.0,0.0
11511,91.0,12,20,1.0,0.0
11512,64.0,0,30,12.0,0.0
11513,55.0,2,30,12.0,0.0
11514,64.0,0,30,11.0,0.0
11515,76.0,0,30,10.0,0.0
11516,93.0,38,20,1.0,0.0
11517,76.0,0,90,3.0,0.0
11518,55.0,12,90,4.0,0.0
11519,60.0,0,30,11.0,0.0
11520,36.0,0,90,14.0,0.0
11521,72.0,0,30,10.0,0.0
11522,67.0,0,90,3.0,0.0
11523,48.0,0,90,13.0,0.0
11524,48.0,0,90,5.0,0.0
11525,60.0,0,90,5.0,0.0
11526,58.0,0,90,4.0,0.0
11527,60.0,0,90,7.0,0.0
11528,67.0,0,90,6.0,0.0
11529,91.0,0,90,0.0,0.0
11530,36.0,0,90,13.0,0.0
11531,82.0,0,90,2.0,0.0
11532,79.0,0,90,2.0,0.0
11533,55.0,16,30,12.0,0.0
11534,64.0,0,30,12.0,0.0
11535,94.0,24,40,1.0,0.0
11536,72.0,0,90,7.0,0.0
11537,60.0,0,30,11.0,0.0
11538,64.0,0,30,12.0,0.0
11539,72.0,0,30,10.0,0.0
11540,55.0,24,30,12.0,0.0
11541,88.0,4,40,1.0,0.0
11542,72.0,0,30,10.0,0.0
11543,55.0,32,30,12.0,0.0
11544,64.0,0,30,12.0,0.0
11545,60.0,0,30,11.0,0.0
11546,65.0,0,300,7.0,0.0
11547,65.0,0,300,6.0,0.0
11548,65.0,0,180,3.0,0.0
11549,65.0,0,300,5.0,0.0
11550,65.0,0,300,4.0,0.0
11551,53.0,0,300,13.0,0.0
11552,77.0,0,30,11.0,0.0
11553,77.0,0,300,7.0,0.0
11554,41.0,8,20,8.0,0.0
11555,69.0,0,180,2.0,0.0
11556,57.0,24,300,12.0,0.0
11557,65.0,0,300,12.0,0.0
11558,89.0,0,180,0.0,0.0
11559,69.0,0,180,3.0,0.0
11560,77.0,22,30,10.0,0.0
11561,89.0,0,300,1.0,0.0
11562,41.0,0,180,14.0,0.0
11563,77.0,0,180,2.0,0.0
11564,41.0,18,20,8.0,0.0
11565,89.0,0,30,10.0,0.0
11566,81.0,12,30,11.0,0.0
11567,41.0,28,20,8.0,0.0
11568,81.0,2,30,11.0,0.0
11569,89.0,0,30,10.0,0.0
11570,41.0,30,20,8.0,0.0
11571,41.0,8,20,8.0,0.0
11572,89.0,22,30,10.0,0.0
11573,81.0,0,30,11.0,0.0
11574,41.0,18,20,8.0,0.0
11575,81.0,0,30,11.0,0.0
11576,89.0,12,30,10.0,0.0
11577,41.0,28,20,8.0,0.0
11578,81.0,0,30,11.0,0.0
11579,89.0,2,30,10.0,0.0
11580,41.0,38,20,8.0,0.0
11581,77.0,0,900,2.0,0.0
11582,69.0,0,900,2.0,0.0
11583,36.0,16,90,14.0,0.0
11584,41.0,0,90,8.0,0.0
11585,89.0,16,30,10.0,0.0
11586,89.0,0,900,0.0,0.0
11587,65.0,0,900,3.0,0.0
11588,81.0,0,30,11.0,0.0
11589,69.0,12,900,3.0,0.0
11590,81.0,0,30,11.0,0.0
11591,89.0,24,30,10.0,0.0
11592,89.0,0,30,10.0,0.0
11593,81.0,40,30,11.0,0.0
11594,48.0,0,90,13.0,0.0
11595,60.0,0,90,4.0,0.0
11596,60.0,12,90,5.0,0.0
11597,60.0,0,90,12.0,0.0
11598,81.0,16,30,11.0,0.0
11599,89.0,0,30,10.0,0.0
11600,72.0,0,90,7.0,0.0
11601,60.0,0,90,7.0,0.0
11602,84.0,24,40,1.0,0.0
11603,89.0,0,30,10.0,0.0
11604,81.0,24,30,11.0,0.0
11605,84.0,4,40,1.0,0.0
11606,89.0,0,30,10.0,0.0
11607,81.0,40,30,11.0,0.0
11608,81.0,0,30,11.0,0.0
11609,77.0,0,90,7.0,0.0
11610,89.0,40,30,10.0,0.0
11611,65.0,0,90,4.0,0.0
11612,41.0,16,90,14.0,0.0
11613,65.0,0,90,7.0,0.0
11614,65.0,0,90,5.0,0.0
11615,89.0,0,90,1.0,0.0
11616,53.0,0,90,13.0,0.0
11617,65.0,0,90,12.0,0.0
11618,81.0,24,30,11.0,0.0
11619,89.0,0,30,10.0,0.0
11620,81.0,40,30,11.0,0.0
11621,89.0,0,30,10.0,0.0
11622,36.0,0,90,14.0,0.0
11623,60.0,0,90,4.0,0.0
11624,60.0,16,90,12.0,0.0
11625,81.0,0,30,11.0,0.0
11626,60.0,0,90,5.0,0.0
11627,89.0,40,30,10.0,0.0
11628,72.0,0,90,7.0,0.0
11629,60.0,0,90,7.0,0.0
11630,48.0,0,90,13.0,0.0
11631,84.0,0,90,1.0,0.0
11632,81.0,24,30,11.0,0.0
11633,89.0,0,30,10.0,0.0
11634,81.0,0,30,11.0,0.0
11635,89.0,40,30,10.0,0.0
11636,57.0,0,90,5.0,0.0
11637,69.0,0,90,7.0,0.0
11638,33.0,0,90,14.0,0.0
11639,89.0,40,30,10.0,0.0
11640,45.0,0,90,13.0,0.0
11641,57.0,0,90,12.0,0.0
11642,81.0,0,30,11.0,0.0
11643,81.0,16,90,1.0,0.0
11644,57.0,0,90,4.0,0.0
11645,89.0,24,30,10.0,0.0
11646,81.0,0,30,11.0,0.0
11647,81.0,40,30,11.0,0.0
11648,89.0,0,30,10.0,0.0
11649,60.0,0,90,5.0,0.0
11650,72.0,0,90,7.0,0.0
11651,60.0,0,90,12.0,0.0
11652,81.0,0,30,11.0,0.0
11653,36.0,16,90,14.0,0.0
11654,48.0,0,90,13.0,0.0
11655,60.0,0,90,7.0,0.0
11656,60.0,0,90,4.0,0.0
11657,84.0,0,90,1.0,0.0
11658,89.0,40,30,10.0,0.0
11659,81.0,0,30,11.0,0.0
11660,89.0,24,30,10.0,0.0
11661,89.0,0,30,10.0,0.0
11662,81.0,32,30,11.0,0.0
11663,53.0,24,300,13.0,0.0
11664,93.0,22,30,10.0,0.0
11665,65.0,0,300,4.0,0.0
11666,89.0,0,300,1.0,0.0
11667,65.0,0,300,7.0,0.0
11668,77.0,0,300,7.0,0.0
11669,65.0,0,300,6.0,0.0
11670,41.0,0,300,14.0,0.0
11671,41.0,8,20,8.0,0.0
11672,81.0,0,30,11.0,0.0
11673,65.0,0,300,5.0,0.0
11674,65.0,0,300,12.0,0.0
11675,41.0,18,20,8.0,0.0
11676,93.0,12,30,10.0,0.0
11677,89.0,0,30,11.0,0.0
11678,41.0,28,20,8.0,0.0
11679,89.0,0,30,11.0,0.0
11680,93.0,2,30,10.0,0.0
11681,41.0,30,20,8.0,0.0
11682,41.0,8,20,8.0,0.0
11683,93.0,0,30,10.0,0.0
11684,89.0,22,30,11.0,0.0
11685,81.0,0,30,11.0,0.0
11686,41.0,18,20,8.0,0.0
11687,93.0,0,30,10.0,0.0
11688,89.0,0,30,11.0,0.0
11689,81.0,0,30,11.0,0.0
11690,41.0,28,20,8.0,0.0
11691,81.0,2,30,11.0,0.0
11692,93.0,0,30,10.0,0.0
11693,89.0,0,30,11.0,0.0
11694,41.0,38,20,8.0,0.0
11695,89.0,0,30,11.0,0.0
11696,69.0,33,900,3.0,0.0
11697,93.0,0,900,0.0,0.0
11698,77.0,0,900,3.0,0.0
11699,93.0,16,30,10.0,0.0
11700,81.0,0,30,11.0,0.0
11701,41.0,16,90,8.0,0.0
11702,77.0,0,900,2.0,0.0
11703,81.0,0,900,2.0,0.0
11704,81.0,24,30,11.0,0.0
11705,93.0,0,30,10.0,0.0
11706,89.0,0,30,11.0,0.0
11707,89.0,0,30,11.0,0.0
11708,81.0,0,30,11.0,0.0
11709,93.0,40,30,10.0,0.0
11710,84.0,24,40,1.0,0.0
11711,60.0,0,90,7.0,0.0
11712,89.0,0,30,11.0,0.0
11713,81.0,16,30,11.0,0.0
11714,60.0,0,90,5.0,0.0
11715,36.0,0,90,14.0,0.0
11716,72.0,0,90,7.0,0.0
11717,48.0,12,90,13.0,0.0
11718,60.0,0,90,4.0,0.0
11719,60.0,0,90,12.0,0.0
11720,93.0,0,30,10.0,0.0
11721,81.0,0,30,11.0,0.0
11722,89.0,24,30,11.0,0.0
11723,93.0,0,30,10.0,0.0
11724,84.0,4,40,1.0,0.0
11725,81.0,0,30,11.0,0.0
11726,89.0,0,30,11.0,0.0
11727,93.0,40,30,10.0,0.0
11728,89.0,0,90,1.0,0.0
11729,53.0,0,90,13.0,0.0
11730,89.0,0,30,11.0,0.0
11731,81.0,40,30,11.0,0.0
11732,65.0,0,90,4.0,0.0
11733,65.0,0,90,5.0,0.0
11734,65.0,16,90,7.0,0.0
11735,65.0,0,90,12.0,0.0
11736,41.0,0,90,14.0,0.0
11737,93.0,0,30,10.0,0.0
11738,77.0,0,90,7.0,0.0
11739,89.0,24,30,11.0,0.0
11740,93.0,0,30,10.0,0.0
11741,81.0,0,30,11.0,0.0
11742,81.0,0,30,11.0,0.0
11743,89.0,40,30,11.0,0.0
11744,93.0,0,30,10.0,0.0
11745,93.0,0,30,10.0,0.0
11746,60.0,16,90,12.0,0.0
11747,89.0,0,30,11.0,0.0
11748,81.0,40,30,11.0,0.0
11749,60.0,0,90,4.0,0.0
11750,48.0,0,90,13.0,0.0
11751,84.0,0,90,1.0,0.0
11752,60.0,0,90,7.0,0.0
11753,60.0,0,90,5.0,0.0
11754,36.0,0,90,14.0,0.0
11755,72.0,0,90,7.0,0.0
11756,89.0,0,30,11.0,0.0
11757,81.0,0,30,11.0,0.0
11758,93.0,24,30,10.0,0.0
11759,93.0,40,30,10.0,0.0
11760,81.0,0,30,11.0,0.0
11761,89.0,0,30,11.0,0.0
11762,57.0,0,90,5.0,0.0
11763,33.0,16,90,14.0,0.0
11764,81.0,0,90,1.0,0.0
11765,93.0,0,30,10.0,0.0
11766,89.0,40,30,11.0,0.0
11767,81.0,0,30,11.0,0.0
11768,69.0,0,90,7.0,0.0
11769,57.0,0,90,12.0,0.0
11770,57.0,0,90,4.0,0.0
11771,45.0,0,90,13.0,0.0
11772,81.0,0,30,11.0,0.0
11773,89.0,24,30,11.0,0.0
11774,93.0,0,30,10.0,0.0
11775,89.0,0,30,11.0,0.0
11776,93.0,0,30,10.0,0.0
11777,81.0,40,30,11.0,0.0
11778,60.0,0,90,7.0,0.0
11779,72.0,0,90,7.0,0.0
11780,48.0,0,90,13.0,0.0
11781,60.0,0,90,4.0,0.0
11782,89.0,0,30,11.0,0.0
11783,81.0,0,30,11.0,0.0
11784,60.0,0,90,12.0,0.0
11785,84.0,16,90,1.0,0.0
11786,93.0,40,30,10.0,0.0
11787,60.0,0,90,5.0,0.0
11788,36.0,0,90,14.0,0.0
11789,93.0,24,30,10.0,0.0
11790,81.0,0,30,11.0,0.0
11791,89.0,0,30,11.0,0.0
11792,89.0,0,30,11.0,0.0
11793,93.0,40,30,10.0,0.0
11794,81.0,0,30,11.0,0.0
11795,81.0,0,30,11.0,0.0
11796,41.0,16,90,8.0,0.0
11797,65.0,0,180,4.0,0.0
11798,89.0,0,30,11.0,0.0
11799,65.0,0,180,12.0,0.0
11800,65.0,0,180,5.0,0.0
11801,89.0,0,180,1.0,0.0
11802,41.0,0,180,14.0,0.0
11803,93.0,40,30,10.0,0.0
11804,65.0,7,240,6.0,0.0
11805,77.0,0,180,7.0,0.0
11806,65.0,0,180,7.0,0.0
11807,53.0,0,180,13.0,0.0
11808,81.0,24,30,11.0,0.0
11809,93.0,0,30,10.0,0.0
11810,89.0,0,30,11.0,0.0
11811,81.0,0,30,11.0,0.0
11812,93.0,40,30,10.0,0.0
11813,89.0,0,30,11.0,0.0
11814,81.0,0,30,11.0,0.0
11815,89.0,40,30,11.0,0.0
11816,93.0,0,30,10.0,0.0
11817,89.0,0,30,11.0,0.0
11818,81.0,0,30,11.0,0.0
11819,93.0,0,30,10.0,0.0
11820,81.0,40,30,11.0,0.0
11821,93.0,0,30,10.0,0.0
11822,89.0,0,30,11.0,0.0
11823,89.0,0,180,0.0,0.0
11824,93.0,40,30,10.0,0.0
11825,89.0,0,30,11.0,0.0
11826,69.0,0,180,12.0,0.0
11827,77.0,0,180,2.0,0.0
11828,57.0,0,180,13.0,0.0
11829,81.0,0,180,2.0,0.0
11830,41.0,16,90,8.0,0.0
11831,65.0,3,240,6.0,0.0
11832,81.0,0,30,11.0,0.0
11833,69.0,33,180,4.0,0.0
11834,69.0,0,180,5.0,0.0
11835,45.0,0,180,14.0,0.0
11836,81.0,0,180,7.0,0.0
11837,69.0,0,180,7.0,0.0
11838,69.0,0,180,3.0,0.0
11839,65.0,0,180,3.0,0.0
11840,93.0,0,90,1.0,0.0
11841,93.0,24,30,10.0,0.0
11842,81.0,0,30,11.0,0.0
11843,89.0,0,30,11.0,0.0
11844,93.0,0,30,10.0,0.0
11845,81.0,0,30,11.0,0.0
11846,89.0,40,30,11.0,0.0
11847,89.0,16,30,11.0,0.0
11848,93.0,0,30,10.0,0.0
11849,93.0,24,40,1.0,0.0
11850,81.0,0,30,11.0,0.0
11851,93.0,0,30,10.0,0.0
11852,81.0,0,30,11.0,0.0
11853,89.0,0,30,11.0,0.0
11854,93.0,4,40,1.0,0.0
11855,81.0,0,30,11.0,0.0
11856,89.0,0,30,11.0,0.0
11857,93.0,40,30,10.0,0.0
11858,60.0,0,300,13.0,0.0
11859,67.0,0,300,3.0,0.0
11860,60.0,0,300,4.0,0.0
11861,88.0,0,300,0.0,0.0
11862,88.0,0,30,11.0,0.0
11863,79.0,40,30,11.0,0.0
11864,72.0,0,300,5.0,0.0
11865,76.0,0,300,2.0,0.0
11866,91.0,0,30,10.0,0.0
11867,72.0,0,300,12.0,0.0
11868,79.0,0,300,2.0,0.0
11869,72.0,0,300,7.0,0.0
11870,64.0,0,300,3.0,0.0
11871,48.0,24,300,14.0,0.0
11872,48.0,16,90,8.0,0.0
11873,96.0,0,300,1.0,0.0
11874,79.0,0,30,11.0,0.0
11875,88.0,0,30,11.0,0.0
11876,91.0,24,30,10.0,0.0
11877,91.0,0,30,10.0,0.0
11878,88.0,40,30,11.0,0.0
11879,79.0,0,30,11.0,0.0
11880,91.0,0,30,10.0,0.0
11881,79.0,0,30,11.0,0.0
11882,88.0,40,30,11.0,0.0
11883,91.0,0,30,10.0,0.0
11884,79.0,0,30,11.0,0.0
11885,88.0,40,30,11.0,0.0
11886,88.0,0,30,11.0,0.0
11887,79.0,0,30,11.0,0.0
11888,91.0,40,30,10.0,0.0
11889,91.0,0,30,10.0,0.0
11890,88.0,16,30,11.0,0.0
11891,79.0,0,30,11.0,0.0
11892,88.0,0,30,11.0,0.0
11893,79.0,0,30,11.0,0.0
11894,91.0,40,30,10.0,0.0
11895,91.0,0,30,10.0,0.0
11896,88.0,40,30,11.0,0.0
11897,79.0,0,30,11.0,0.0
11898,60.0,0,90,4.0,0.0
11899,60.0,0,90,5.0,0.0
11900,48.0,0,90,13.0,0.0
11901,36.0,0,90,14.0,0.0
11902,64.0,0,90,3.0,0.0
11903,84.0,0,90,1.0,0.0
11904,88.0,0,30,11.0,0.0
11905,48.0,0,90,8.0,0.0
11906,88.0,0,90,0.0,0.0
11907,79.0,0,30,11.0,0.0
11908,67.0,0,90,3.0,0.0
11909,91.0,40,30,10.0,0.0
11910,60.0,0,90,12.0,0.0
11911,79.0,16,90,2.0,0.0
11912,60.0,0,90,7.0,0.0
11913,76.0,0,90,2.0,0.0
11914,72.0,0,90,7.0,0.0
11915,88.0,0,30,11.0,0.0
11916,79.0,24,30,11.0,0.0
11917,91.0,0,30,10.0,0.0
11918,79.0,0,30,11.0,0.0
11919,88.0,0,30,11.0,0.0
11920,91.0,40,30,10.0,0.0
11921,89.0,40,30,11.0,0.0
11922,77.0,0,180,7.0,0.0
11923,65.0,0,180,7.0,0.0
11924,41.0,0,180,14.0,0.0
11925,81.0,0,30,11.0,0.0
11926,81.0,0,180,2.0,0.0
11927,41.0,16,90,8.0,0.0
11928,93.0,0,30,10.0,0.0
11929,69.0,0,180,3.0,0.0
11930,53.0,0,180,13.0,0.0
11931,77.0,40,180,2.0,0.0
11932,65.0,0,180,4.0,0.0
11933,65.0,0,180,6.0,0.0
11934,89.0,0,180,1.0,0.0
11935,89.0,0,180,0.0,0.0
11936,65.0,0,180,12.0,0.0
11937,65.0,0,180,5.0,0.0
11938,65.0,0,180,3.0,0.0
11939,89.0,0,30,11.0,0.0
11940,81.0,24,30,11.0,0.0
11941,93.0,0,30,10.0,0.0
11942,81.0,0,30,11.0,0.0
11943,89.0,40,30,11.0,0.0
11944,93.0,0,30,10.0,0.0
11945,93.0,0,30,10.0,0.0
11946,89.0,40,30,11.0,0.0
11947,81.0,0,30,11.0,0.0
11948,89.0,0,30,11.0,0.0
11949,81.0,0,30,11.0,0.0
11950,93.0,0,30,10.0,0.0
11951,81.0,0,30,11.0,0.0
11952,89.0,0,30,11.0,0.0
11953,93.0,40,30,10.0,0.0
11954,69.0,0,180,12.0,0.0
11955,69.0,0,180,4.0,0.0
11956,81.0,40,30,11.0,0.0
11957,93.0,0,90,1.0,0.0
11958,65.0,0,180,6.0,0.0
11959,57.0,0,180,13.0,0.0
11960,89.0,0,180,0.0,0.0
11961,41.0,16,90,8.0,0.0
11962,77.0,0,180,2.0,0.0
11963,81.0,0,180,2.0,0.0
11964,45.0,0,180,14.0,0.0
11965,69.0,36,180,7.0,0.0
11966,81.0,0,180,7.0,0.0
11967,65.0,0,180,3.0,0.0
11968,69.0,0,180,3.0,0.0
11969,69.0,0,180,5.0,0.0
11970,89.0,0,30,11.0,0.0
11971,93.0,0,30,10.0,0.0
11972,89.0,0,30,11.0,0.0
11973,81.0,24,30,11.0,0.0
11974,93.0,0,30,10.0,0.0
11975,93.0,40,30,10.0,0.0
11976,89.0,0,30,11.0,0.0
11977,81.0,0,30,11.0,0.0
11978,93.0,24,40,1.0,0.0
11979,81.0,0,30,11.0,0.0
11980,89.0,0,30,11.0,0.0
11981,93.0,16,30,10.0,0.0
11982,93.0,0,30,10.0,0.0
11983,89.0,0,30,11.0,0.0
11984,81.0,0,30,11.0,0.0
11985,93.0,4,40,1.0,0.0
11986,81.0,0,30,11.0,0.0
11987,89.0,40,30,11.0,0.0
11988,93.0,0,30,10.0,0.0
11989,60.0,0,300,4.0,0.0
11990,48.0,0,300,14.0,0.0
11991,91.0,40,30,10.0,0.0
11992,88.0,24,300,0.0,0.0
11993,67.0,0,300,3.0,0.0
11994,64.0,0,300,3.0,0.0
11995,76.0,0,300,2.0,0.0
11996,96.0,0,300,1.0,0.0
11997,72.0,0,300,7.0,0.0
11998,79.0,0,30,11.0,0.0
11999,88.0,0,30,11.0,0.0
12000,72.0,0,300,5.0,0.0
12001,60.0,0,300,13.0,0.0
12002,48.0,16,90,8.0,0.0
12003,72.0,0,300,12.0,0.0
12004,79.0,0,300,2.0,0.0
12005,91.0,24,30,10.0,0.0
12006,79.0,0,30,11.0,0.0
12007,88.0,0,30,11.0,0.0
12008,88.0,40,30,11.0,0.0
12009,79.0,0,30,11.0,0.0
12010,91.0,0,30,10.0,0.0
12011,91.0,0,30,10.0,0.0
12012,79.0,0,30,11.0,0.0
12013,88.0,40,30,11.0,0.0
12014,91.0,40,30,10.0,0.0
12015,88.0,0,30,11.0,0.0
12016,79.0,0,30,11.0,0.0
12017,88.0,40,30,11.0,0.0
12018,79.0,0,30,11.0,0.0
12019,91.0,0,30,10.0,0.0
12020,79.0,16,30,11.0,0.0
12021,88.0,0,30,11.0,0.0
12022,91.0,0,30,10.0,0.0
12023,79.0,0,30,11.0,0.0
12024,88.0,0,30,11.0,0.0
12025,91.0,40,30,10.0,0.0
12026,88.0,0,30,11.0,0.0
12027,79.0,40,30,11.0,0.0
12028,91.0,0,30,10.0,0.0
12029,91.0,40,30,10.0,0.0
12030,60.0,16,90,7.0,0.0
12031,72.0,0,90,7.0,0.0
12032,60.0,0,90,12.0,0.0
12033,67.0,0,90,3.0,0.0
12034,64.0,0,90,3.0,0.0
12035,60.0,0,90,5.0,0.0
12036,84.0,0,90,1.0,0.0
12037,79.0,0,30,11.0,0.0
12038,60.0,0,90,4.0,0.0
12039,48.0,0,90,13.0,0.0
12040,48.0,0,90,8.0,0.0
12041,88.0,0,90,0.0,0.0
12042,36.0,0,90,14.0,0.0
12043,79.0,0,90,2.0,0.0
12044,76.0,0,90,2.0,0.0
12045,88.0,0,30,11.0,0.0
12046,79.0,24,30,11.0,0.0
12047,88.0,0,30,11.0,0.0
12048,91.0,0,30,10.0,0.0
12049,91.0,40,30,10.0,0.0
12050,79.0,0,30,11.0,0.0
12051,88.0,0,30,11.0,0.0
12052,65.0,0,180,6.0,0.0
12053,65.0,0,180,5.0,0.0
12054,77.0,0,180,2.0,0.0
12055,77.0,0,180,7.0,0.0
12056,41.0,16,90,8.0,0.0
12057,81.0,0,180,2.0,0.0
12058,65.0,40,180,7.0,0.0
12059,41.0,0,180,14.0,0.0
12060,93.0,0,30,10.0,0.0
12061,65.0,0,180,4.0,0.0
12062,65.0,0,180,12.0,0.0
12063,53.0,0,180,13.0,0.0
12064,89.0,0,180,1.0,0.0
12065,89.0,0,30,11.0,0.0
12066,81.0,40,30,11.0,0.0
12067,65.0,0,180,3.0,0.0
12068,69.0,0,180,3.0,0.0
12069,89.0,0,180,0.0,0.0
12070,89.0,0,30,11.0,0.0
12071,81.0,0,30,11.0,0.0
12072,93.0,24,30,10.0,0.0
12073,93.0,0,30,10.0,0.0
12074,89.0,40,30,11.0,0.0
12075,81.0,0,30,11.0,0.0
12076,93.0,0,30,10.0,0.0
12077,89.0,40,30,11.0,0.0
12078,81.0,0,30,11.0,0.0
12079,89.0,0,30,11.0,0.0
12080,81.0,0,30,11.0,0.0
12081,93.0,0,30,10.0,0.0
12082,93.0,0,30,10.0,0.0
12083,81.0,40,30,11.0,0.0
12084,89.0,0,30,11.0,0.0
12085,69.0,0,180,3.0,0.0
12086,81.0,0,180,7.0,0.0
12087,69.0,0,180,4.0,0.0
12088,65.0,0,180,3.0,0.0
12089,93.0,16,90,1.0,0.0
12090,69.0,0,180,7.0,0.0
12091,57.0,0,180,13.0,0.0
12092,89.0,0,30,11.0,0.0
12093,81.0,0,30,11.0,0.0
12094,81.0,0,180,2.0,0.0
12095,69.0,0,180,12.0,0.0
12096,89.0,0,180,0.0,0.0
12097,69.0,0,180,5.0,0.0
12098,45.0,0,180,14.0,0.0
12099,93.0,40,30,10.0,0.0
12100,41.0,0,90,8.0,0.0
12101,77.0,0,180,2.0,0.0
12102,65.0,0,180,6.0,0.0
12103,93.0,24,30,10.0,0.0
12104,89.0,0,30,11.0,0.0
12105,81.0,0,30,11.0,0.0
12106,89.0,0,30,11.0,0.0
12107,93.0,0,30,10.0,0.0
12108,81.0,40,30,11.0,0.0
12109,93.0,0,30,10.0,0.0
12110,93.0,24,40,1.0,0.0
12111,89.0,16,30,11.0,0.0
12112,81.0,0,30,11.0,0.0
12113,93.0,0,30,10.0,0.0
12114,89.0,0,30,11.0,0.0
12115,81.0,36,30,11.0,0.0
12116,93.0,4,40,1.0,0.0
12117,89.0,0,30,11.0,0.0
12118,81.0,0,30,11.0,0.0
12119,93.0,40,30,10.0,0.0
12120,96.0,0,300,1.0,0.0
12121,88.0,0,30,11.0,0.0
12122,79.0,40,30,11.0,0.0
12123,72.0,0,300,12.0,0.0
12124,72.0,0,300,7.0,0.0
12125,72.0,0,300,5.0,0.0
12126,76.0,24,300,2.0,0.0
12127,79.0,0,300,2.0,0.0
12128,48.0,16,90,8.0,0.0
12129,88.0,0,300,0.0,0.0
12130,60.0,0,300,4.0,0.0
12131,91.0,0,30,10.0,0.0
12132,60.0,0,300,13.0,0.0
12133,64.0,0,300,3.0,0.0
12134,67.0,0,300,3.0,0.0
12135,48.0,0,300,14.0,0.0
12136,91.0,24,30,10.0,0.0
12137,79.0,0,30,11.0,0.0
12138,88.0,0,30,11.0,0.0
12139,91.0,0,30,10.0,0.0
12140,79.0,40,30,11.0,0.0
12141,88.0,0,30,11.0,0.0
12142,88.0,0,30,11.0,0.0
12143,79.0,0,30,11.0,0.0
12144,91.0,40,30,10.0,0.0
12145,88.0,0,30,11.0,0.0
12146,79.0,40,30,11.0,0.0
12147,91.0,0,30,10.0,0.0
12148,91.0,0,30,10.0,0.0
12149,88.0,40,30,11.0,0.0
12150,79.0,0,30,11.0,0.0
12151,91.0,0,30,10.0,0.0
12152,88.0,16,30,11.0,0.0
12153,79.0,0,30,11.0,0.0
12154,88.0,40,30,11.0,0.0
12155,79.0,0,30,11.0,0.0
12156,91.0,0,30,10.0,0.0
12157,79.0,0,30,11.0,0.0
12158,91.0,0,30,10.0,0.0
12159,88.0,40,30,11.0,0.0
12160,76.0,0,90,2.0,0.0
12161,60.0,0,90,12.0,0.0
12162,79.0,0,90,2.0,0.0
12163,48.0,0,90,8.0,0.0
12164,60.0,0,90,5.0,0.0
12165,60.0,0,90,7.0,0.0
12166,72.0,0,90,7.0,0.0
12167,88.0,0,90,0.0,0.0
12168,48.0,16,90,13.0,0.0
12169,48.0,0,90,4.0,0.0
12170,67.0,0,90,3.0,0.0
12171,64.0,0,90,3.0,0.0
12172,36.0,0,90,14.0,0.0
12173,84.0,0,90,1.0,0.0
12174,79.0,0,30,11.0,0.0
12175,88.0,40,30,11.0,0.0
12176,91.0,0,30,10.0,0.0
12177,79.0,0,30,11.0,0.0
12178,91.0,0,30,10.0,0.0
12179,88.0,24,30,11.0,0.0
12180,79.0,0,30,11.0,0.0
12181,88.0,40,30,11.0,0.0
12182,91.0,0,30,10.0,0.0
12183,96.0,24,300,1.0,0.0
12184,60.0,0,300,4.0,0.0
12185,88.0,0,300,0.0,0.0
12186,48.0,0,300,14.0,0.0
12187,79.0,0,300,2.0,0.0
12188,76.0,0,300,2.0,0.0
12189,64.0,0,300,3.0,0.0
12190,67.0,0,300,3.0,0.0
12191,91.0,40,30,10.0,0.0
12192,60.0,0,300,13.0,0.0
12193,72.0,0,300,12.0,0.0
12194,72.0,0,300,5.0,0.0
12195,48.0,16,90,8.0,0.0
12196,72.0,0,300,7.0,0.0
12197,88.0,0,30,11.0,0.0
12198,79.0,0,30,11.0,0.0
12199,79.0,0,30,11.0,0.0
12200,88.0,0,30,11.0,0.0
12201,91.0,24,30,10.0,0.0
12202,79.0,40,30,11.0,0.0
12203,88.0,0,30,11.0,0.0
12204,91.0,0,30,10.0,0.0
12205,79.0,40,30,11.0,0.0
12206,91.0,0,30,10.0,0.0
12207,88.0,0,30,11.0,0.0
12208,79.0,0,30,11.0,0.0
12209,91.0,0,30,10.0,0.0
12210,88.0,40,30,11.0,0.0
12211,88.0,0,30,11.0,0.0
12212,91.0,40,30,10.0,0.0
12213,79.0,0,30,11.0,0.0
12214,79.0,0,30,11.0,0.0
12215,88.0,0,30,11.0,0.0
12216,91.0,16,30,10.0,0.0
12217,88.0,0,30,11.0,0.0
12218,79.0,40,30,11.0,0.0
12219,91.0,0,30,10.0,0.0
12220,91.0,0,30,10.0,0.0
12221,79.0,40,30,11.0,0.0
12222,88.0,0,30,11.0,0.0
12223,88.0,40,30,11.0,0.0
12224,79.0,0,30,11.0,0.0
12225,48.0,0,90,8.0,0.0
12226,88.0,0,90,0.0,0.0
12227,67.0,0,90,3.0,0.0
12228,60.0,0,90,4.0,0.0
12229,36.0,16,90,14.0,0.0
12230,91.0,0,30,10.0,0.0
12231,79.0,0,90,2.0,0.0
12232,84.0,0,90,1.0,0.0
12233,64.0,0,90,3.0,0.0
12234,76.0,0,90,2.0,0.0
12235,60.0,0,90,5.0,0.0
12236,48.0,0,90,13.0,0.0
12237,60.0,0,90,7.0,0.0
12238,72.0,0,90,7.0,0.0
12239,60.0,0,90,12.0,0.0
12240,79.0,0,30,11.0,0.0
12241,88.0,0,30,11.0,0.0
12242,91.0,24,30,10.0,0.0
12243,88.0,40,30,11.0,0.0
12244,79.0,0,30,11.0,0.0
12245,91.0,0,30,10.0,0.0
12246,48.0,16,90,8.0,0.0
12247,60.0,0,300,13.0,0.0
12248,88.0,24,300,0.0,0.0
12249,96.0,0,300,1.0,0.0
12250,72.0,0,300,5.0,0.0
12251,67.0,0,300,3.0,0.0
12252,64.0,0,300,3.0,0.0
12253,79.0,40,30,11.0,0.0
12254,72.0,0,300,12.0,0.0
12255,88.0,0,30,11.0,0.0
12256,60.0,0,300,4.0,0.0
12257,72.0,0,300,7.0,0.0
12258,79.0,0,300,2.0,0.0
12259,91.0,0,30,10.0,0.0
12260,48.0,0,300,14.0,0.0
12261,76.0,0,300,2.0,0.0
12262,91.0,0,30,10.0,0.0
12263,88.0,24,30,11.0,0.0
12264,79.0,0,30,11.0,0.0
12265,88.0,0,30,11.0,0.0
12266,91.0,40,30,10.0,0.0
12267,79.0,0,30,11.0,0.0
12268,91.0,40,30,10.0,0.0
12269,79.0,0,30,11.0,0.0
12270,88.0,0,30,11.0,0.0
12271,88.0,0,30,11.0,0.0
12272,79.0,0,30,11.0,0.0
12273,91.0,40,30,10.0,0.0
12274,91.0,0,30,10.0,0.0
12275,88.0,40,30,11.0,0.0
12276,79.0,0,30,11.0,0.0
12277,79.0,0,30,11.0,0.0
12278,91.0,16,30,10.0,0.0
12279,88.0,0,30,11.0,0.0
12280,91.0,40,30,10.0,0.0
12281,88.0,0,30,11.0,0.0
12282,79.0,0,30,11.0,0.0
12283,91.0,0,30,10.0,0.0
12284,79.0,40,30,11.0,0.0
12285,88.0,0,30,11.0,0.0
12286,84.0,0,90,1.0,0.0
12287,48.0,0,90,13.0,0.0
12288,60.0,0,90,7.0,0.0
12289,72.0,0,90,7.0,0.0
12290,91.0,40,30,10.0,0.0
12291,36.0,0,90,14.0,0.0
12292,79.0,0,30,11.0,0.0
12293,76.0,0,90,2.0,0.0
12294,79.0,0,90,2.0,0.0
12295,60.0,0,90,12.0,0.0
12296,48.0,0,90,8.0,0.0
12297,88.0,0,30,11.0,0.0
12298,48.0,0,90,4.0,0.0
12299,64.0,0,90,3.0,0.0
12300,67.0,0,90,3.0,0.0
12301,60.0,16,90,5.0,0.0
12302,88.0,0,90,0.0,0.0
12303,88.0,24,30,11.0,0.0
12304,91.0,0,30,10.0,0.0
12305,79.0,0,30,11.0,0.0
12306,88.0,0,30,11.0,0.0
12307,79.0,0,30,11.0,0.0
12308,91.0,32,30,10.0,0.0
12309,72.0,0,870,3.0,0.0
12310,89.0,0,20,10.0,0.0
12311,41.0,0,20,8.0,0.0
12312,29.0,0,40,14.0,0.0
12313,72.0,0,870,5.0,0.0
12314,84.0,0,870,3.0,0.0
12315,41.0,6,40,13.0,0.0
12316,84.0,0,870,2.0,0.0
12317,72.0,0,870,7.0,0.0
12318,60.0,0,870,4.0,0.0
12319,72.0,24,870,2.0,0.0
12320,81.0,0,40,11.0,0.0
12321,89.0,0,40,11.0,0.0
12322,72.0,24,20,12.0,0.0
12323,89.0,0,40,0.0,0.0
12324,96.0,0,870,1.0,0.0
12325,41.0,0,20,8.0,0.0
12326,72.0,30,20,12.0,0.0
12327,89.0,0,20,10.0,0.0
12328,29.0,0,40,14.0,0.0
12329,41.0,0,20,8.0,0.0
12330,77.0,6,40,0.0,0.0
12331,41.0,0,40,13.0,0.0
12332,65.0,24,20,12.0,0.0
12333,77.0,0,20,11.0,0.0
12334,77.0,0,20,10.0,0.0
12335,41.0,0,20,8.0,0.0
12336,77.0,0,20,10.0,0.0
12337,65.0,0,20,12.0,0.0
12338,77.0,30,20,11.0,0.0
12339,79.0,6,40,0.0,0.0
12340,29.0,0,40,14.0,0.0
12341,41.0,0,20,8.0,0.0
12342,41.0,0,40,13.0,0.0
12343,79.0,0,20,11.0,0.0
12344,79.0,24,20,10.0,0.0
12345,67.0,0,20,12.0,0.0
12346,79.0,30,20,11.0,0.0
12347,41.0,0,20,8.0,0.0
12348,67.0,0,20,12.0,0.0
12349,79.0,0,20,10.0,0.0
12350,81.0,0,20,10.0,0.0
12351,41.0,24,20,8.0,0.0
12352,41.0,0,40,13.0,0.0
12353,69.0,0,20,12.0,0.0
12354,29.0,0,40,14.0,0.0
12355,81.0,0,20,11.0,0.0
12356,81.0,6,40,0.0,0.0
12357,81.0,30,20,11.0,0.0
12358,69.0,0,20,12.0,0.0
12359,41.0,0,20,8.0,0.0
12360,81.0,0,20,10.0,0.0
12361,29.0,6,40,14.0,0.0
12362,82.0,0,20,11.0,0.0
12363,82.0,0,40,0.0,0.0
12364,70.0,0,20,12.0,0.0
12365,41.0,0,40,13.0,0.0
12366,41.0,0,20,8.0,0.0
12367,82.0,24,20,10.0,0.0
12368,82.0,0,20,10.0,0.0
12369,41.0,0,20,8.0,0.0
12370,70.0,30,20,12.0,0.0
12371,82.0,0,20,11.0,0.0
12372,41.0,0,40,13.0,0.0
12373,41.0,0,20,8.0,0.0
12374,69.0,0,20,12.0,0.0
12375,81.0,0,20,11.0,0.0
12376,81.0,0,40,0.0,0.0
12377,81.0,24,20,10.0,0.0
12378,29.0,6,40,14.0,0.0
12379,81.0,0,20,11.0,0.0
12380,41.0,0,20,8.0,0.0
12381,69.0,30,20,12.0,0.0
12382,81.0,0,20,10.0,0.0
12383,82.0,0,20,10.0,0.0
12384,82.0,0,40,0.0,0.0
12385,29.0,6,40,14.0,0.0
12386,70.0,0,20,12.0,0.0
12387,41.0,24,20,8.0,0.0
12388,82.0,0,20,11.0,0.0
12389,41.0,0,40,13.0,0.0
12390,70.0,0,20,12.0,0.0
12391,82.0,0,20,10.0,0.0
12392,41.0,30,20,8.0,0.0
12393,82.0,0,20,11.0,0.0
12394,29.0,6,40,14.0,0.0
12395,72.0,0,20,12.0,0.0
12396,41.0,0,20,8.0,0.0
12397,84.0,0,20,10.0,0.0
12398,84.0,24,20,11.0,0.0
12399,41.0,0,40,13.0,0.0
12400,84.0,0,40,0.0,0.0
12401,84.0,0,20,10.0,0.0
12402,84.0,0,20,11.0,0.0
12403,41.0,30,20,8.0,0.0
12404,72.0,0,20,12.0,0.0
12405,86.0,0,40,0.0,0.0
12406,86.0,0,20,11.0,0.0
12407,74.0,0,20,12.0,0.0
12408,29.0,0,40,14.0,0.0
12409,86.0,24,20,10.0,0.0
12410,41.0,0,20,8.0,0.0
12411,41.0,6,40,13.0,0.0
12412,74.0,0,20,12.0,0.0
12413,86.0,0,20,11.0,0.0
12414,86.0,0,20,10.0,0.0
12415,41.0,30,20,8.0,0.0
12416,41.0,0,40,13.0,0.0
12417,84.0,0,20,11.0,0.0
12418,29.0,6,40,14.0,0.0
12419,84.0,0,20,10.0,0.0
12420,41.0,0,20,8.0,0.0
12421,84.0,0,40,0.0,0.0
12422,72.0,24,20,12.0,0.0
12423,72.0,0,20,12.0,0.0
12424,41.0,0,20,8.0,0.0
12425,84.0,30,20,10.0,0.0
12426,84.0,0,20,11.0,0.0
12427,29.0,6,40,14.0,0.0
12428,74.0,24,20,12.0,0.0
12429,41.0,0,40,13.0,0.0
12430,86.0,0,20,11.0,0.0
12431,86.0,0,20,10.0,0.0
12432,41.0,0,20,8.0,0.0
12433,86.0,0,40,0.0,0.0
12434,41.0,0,20,8.0,0.0
12435,86.0,30,20,11.0,0.0
12436,74.0,0,20,12.0,0.0
12437,86.0,0,20,10.0,0.0
12438,41.0,0,20,8.0,0.0
12439,76.0,0,20,12.0,0.0
12440,88.0,0,20,11.0,0.0
12441,29.0,6,40,14.0,0.0
12442,41.0,0,40,13.0,0.0
12443,88.0,24,20,10.0,0.0
12444,88.0,0,40,0.0,0.0
12445,76.0,30,20,12.0,0.0
12446,88.0,0,20,10.0,0.0
12447,41.0,0,20,8.0,0.0
12448,88.0,0,20,11.0,0.0
12449,89.0,0,20,10.0,0.0
12450,41.0,0,20,8.0,0.0
12451,89.0,0,40,0.0,0.0
12452,29.0,0,40,14.0,0.0
12453,89.0,24,20,11.0,0.0
12454,77.0,0,20,12.0,0.0
12455,41.0,6,40,13.0,0.0
12456,89.0,0,20,10.0,0.0
12457,77.0,0,20,12.0,0.0
12458,89.0,0,20,11.0,0.0
12459,41.0,30,20,8.0,0.0
12460,29.0,6,40,14.0,0.0
12461,41.0,0,40,13.0,0.0
12462,76.0,0,20,12.0,0.0
12463,88.0,0,20,11.0,0.0
12464,41.0,0,20,8.0,0.0
12465,88.0,24,20,10.0,0.0
12466,88.0,0,40,0.0,0.0
12467,88.0,0,20,11.0,0.0
12468,76.0,30,20,12.0,0.0
12469,88.0,0,20,10.0,0.0
12470,41.0,0,20,8.0,0.0
12471,41.0,6,40,13.0,0.0
12472,29.0,0,40,14.0,0.0
12473,89.0,0,20,10.0,0.0
12474,89.0,0,40,0.0,0.0
12475,41.0,0,20,8.0,0.0
12476,77.0,0,20,12.0,0.0
12477,89.0,0,20,11.0,0.0
12478,89.0,0,20,10.0,0.0
12479,89.0,0,20,11.0,0.0
12480,41.0,0,20,8.0,0.0
12481,77.0,30,20,12.0,0.0
12482,41.0,0,40,13.0,0.0
12483,76.0,24,20,12.0,0.0
12484,91.0,0,20,11.0,0.0
12485,91.0,0,20,10.0,0.0
12486,41.0,0,20,8.0,0.0
12487,91.0,6,40,0.0,0.0
12488,29.0,0,40,14.0,0.0
12489,41.0,0,20,8.0,0.0
12490,76.0,0,20,12.0,0.0
12491,91.0,0,20,10.0,0.0
12492,91.0,102,20,11.0,0.0
12493,93.0,0,90,11.0,0.0
12494,81.0,0,90,2.0,0.0
12495,41.0,0,90,8.0,0.0
12496,93.0,0,90,0.0,0.0
12497,77.0,0,90,2.0,0.0
12498,101.0,0,90,1.0,0.0
12499,77.0,0,90,12.0,0.0
12500,65.0,0,90,7.0,0.0
12501,53.0,0,90,4.0,0.0
12502,65.0,0,90,4.0,0.0
12503,65.0,0,90,5.0,0.0
12504,93.0,0,90,10.0,0.0
12505,69.0,0,90,5.0,0.0
12506,29.0,0,90,14.0,0.0
12507,65.0,0,90,6.0,0.0
12508,41.0,0,90,13.0,0.0
12509,81.0,96,90,3.0,0.0
12510,77.0,0,90,3.0,0.0
12511,77.0,0,90,7.0,0.0
12512,60.0,0,60,5.0,0.0
12513,72.0,0,60,5.0,0.0
12514,69.0,0,60,7.0,0.0
12515,72.0,0,60,7.0,0.0
12516,57.0,4,60,4.0,0.0
12517,60.0,0,60,4.0,0.0
12518,96.0,20,15,1.0,0.0
12519,98.0,18,15,1.0,0.0
12520,72.0,0,20,5.0,0.0
12521,60.0,0,20,5.0,0.0
12522,57.0,2,20,4.0,0.0
12523,60.0,0,20,4.0,0.0
12524,72.0,0,20,7.0,0.0
12525,69.0,0,20,7.0,0.0
12526,100.0,100,15,1.0,0.0
12527,65.0,0,90,4.0,0.0
12528,65.0,0,90,5.0,0.0
12529,101.0,0,90,1.0,0.0
12530,69.0,0,90,5.0,0.0
12531,65.0,0,90,7.0,0.0
12532,53.0,0,90,4.0,0.0
12533,77.0,120,90,7.0,0.0
12534,60.0,0,90,5.0,0.0
12535,57.0,0,90,4.0,0.0
12536,60.0,0,90,4.0,0.0
12537,72.0,0,90,5.0,0.0
12538,72.0,0,90,7.0,0.0
12539,69.0,120,90,7.0,0.0
12540,69.0,0,90,12.0,0.0
12541,60.0,0,90,12.0,0.0
12542,77.0,0,90,3.0,0.0
12543,81.0,0,90,11.0,0.0
12544,48.0,0,90,12.0,0.0
12545,93.0,0,90,0.0,0.0
12546,65.0,0,90,10.0,0.0
12547,72.0,0,90,10.0,0.0
12548,72.0,0,90,11.0,0.0
12549,65.0,0,90,11.0,0.0
12550,81.0,0,90,10.0,0.0
12551,41.0,0,90,13.0,0.0
12552,69.0,96,90,3.0,0.0
12553,53.0,0,90,4.0,0.0
12554,65.0,0,90,6.0,0.0
12555,41.0,0,90,8.0,0.0
12556,29.0,0,90,14.0,0.0
12557,69.0,0,90,5.0,0.0
12558,65.0,0,90,5.0,0.0
12559,77.0,0,90,2.0,0.0
12560,81.0,0,90,2.0,0.0
12561,77.0,0,90,7.0,0.0
12562,65.0,0,90,4.0,0.0
12563,65.0,0,90,7.0,0.0
12564,72.0,4,60,5.0,0.0
12565,60.0,0,60,5.0,0.0
12566,57.0,0,60,4.0,0.0
12567,69.0,0,60,7.0,0.0
12568,72.0,0,60,7.0,0.0
12569,60.0,0,60,4.0,0.0
12570,96.0,20,15,1.0,0.0
12571,98.0,18,15,1.0,0.0
12572,60.0,2,20,4.0,0.0
12573,57.0,0,20,4.0,0.0
12574,69.0,0,20,7.0,0.0
12575,72.0,0,20,7.0,0.0
12576,72.0,0,20,5.0,0.0
12577,60.0,0,20,5.0,0.0
12578,100.0,100,15,1.0,0.0
12579,77.0,120,90,7.0,0.0
12580,65.0,0,90,7.0,0.0
12581,101.0,0,90,1.0,0.0
12582,53.0,0,90,4.0,0.0
12583,69.0,0,90,5.0,0.0
12584,65.0,0,90,5.0,0.0
12585,65.0,0,90,4.0,0.0
12586,72.0,0,90,7.0,0.0
12587,60.0,0,90,5.0,0.0
12588,72.0,120,90,5.0,0.0
12589,57.0,0,90,4.0,0.0
12590,60.0,0,90,4.0,0.0
12591,69.0,0,90,7.0,0.0
12592,41.0,0,90,8.0,0.0
12593,48.0,0,90,12.0,0.0
12594,60.0,0,90,12.0,0.0
12595,69.0,0,90,12.0,0.0
12596,65.0,0,90,11.0,0.0
12597,72.0,0,90,11.0,0.0
12598,81.0,0,90,11.0,0.0
12599,81.0,0,90,10.0,0.0
12600,77.0,0,90,2.0,0.0
12601,81.0,0,90,2.0,0.0
12602,72.0,0,90,10.0,0.0
12603,65.0,0,90,10.0,0.0
12604,93.0,0,90,0.0,0.0
12605,65.0,0,90,7.0,0.0
12606,65.0,0,90,6.0,0.0
12607,69.0,0,90,3.0,0.0
12608,77.0,0,90,3.0,0.0
12609,53.0,0,90,4.0,0.0
12610,65.0,0,90,4.0,0.0
12611,77.0,0,90,7.0,0.0
12612,41.0,0,90,13.0,0.0
12613,65.0,0,90,5.0,0.0
12614,29.0,0,90,14.0,0.0
12615,69.0,96,90,5.0,0.0
12616,72.0,0,60,7.0,0.0
12617,69.0,0,60,7.0,0.0
12618,57.0,0,60,4.0,0.0
12619,60.0,0,60,5.0,0.0
12620,60.0,0,60,4.0,0.0
12621,72.0,4,60,5.0,0.0
12622,96.0,20,15,1.0,0.0
12623,98.0,18,15,1.0,0.0
12624,72.0,0,20,7.0,0.0
12625,69.0,2,20,7.0,0.0
12626,60.0,0,20,4.0,0.0
12627,72.0,0,20,5.0,0.0
12628,57.0,0,20,4.0,0.0
12629,60.0,0,20,5.0,0.0
12630,100.0,100,15,1.0,0.0
12631,101.0,0,90,1.0,0.0
12632,65.0,120,90,4.0,0.0
12633,65.0,0,90,5.0,0.0
12634,77.0,0,90,7.0,0.0
12635,65.0,0,90,7.0,0.0
12636,53.0,0,90,4.0,0.0
12637,69.0,0,90,5.0,0.0
12638,69.0,0,90,7.0,0.0
12639,60.0,0,90,5.0,0.0
12640,72.0,0,90,5.0,0.0
12641,57.0,120,90,4.0,0.0
12642,60.0,0,90,4.0,0.0
12643,72.0,0,90,7.0,0.0
12644,93.0,0,90,0.0,0.0
12645,57.0,0,90,12.0,0.0
12646,48.0,0,90,12.0,0.0
12647,65.0,0,90,4.0,0.0
12648,29.0,0,90,14.0,0.0
12649,77.0,0,90,10.0,0.0
12650,69.0,0,90,10.0,0.0
12651,65.0,0,90,10.0,0.0
12652,65.0,0,90,12.0,0.0
12653,69.0,0,90,2.0,0.0
12654,41.0,0,90,8.0,0.0
12655,77.0,0,90,2.0,0.0
12656,53.0,0,90,4.0,0.0
12657,65.0,0,90,7.0,0.0
12658,77.0,0,90,7.0,0.0
12659,69.0,100,90,11.0,0.0
12660,65.0,0,90,11.0,0.0
12661,77.0,0,90,3.0,0.0
12662,69.0,0,90,3.0,0.0
12663,65.0,0,90,6.0,0.0
12664,57.0,0,90,5.0,0.0
12665,65.0,0,90,5.0,0.0
12666,41.0,0,90,13.0,0.0
12667,77.0,0,90,11.0,0.0
12668,96.0,20,15,1.0,0.0
12669,98.0,20,15,1.0,0.0
12670,100.0,100,15,1.0,0.0
12671,69.0,0,90,11.0,0.0
12672,77.0,0,90,11.0,0.0
12673,65.0,0,90,11.0,0.0
12674,53.0,0,90,4.0,0.0
12675,69.0,0,90,2.0,0.0
12676,57.0,0,90,5.0,0.0
12677,93.0,0,90,0.0,0.0
12678,77.0,100,90,2.0,0.0
12679,65.0,0,90,6.0,0.0
12680,65.0,0,90,7.0,0.0
12681,65.0,0,90,5.0,0.0
12682,41.0,0,90,4.0,0.0
12683,48.0,0,90,12.0,0.0
12684,69.0,0,90,3.0,0.0
12685,29.0,0,90,14.0,0.0
12686,77.0,0,90,3.0,0.0
12687,57.0,0,90,12.0,0.0
12688,41.0,0,90,13.0,0.0
12689,65.0,0,90,12.0,0.0
12690,101.0,0,90,1.0,0.0
12691,65.0,0,90,10.0,0.0
12692,69.0,0,90,10.0,0.0
12693,41.0,0,90,8.0,0.0
12694,77.0,0,90,10.0,0.0
12695,96.0,20,15,1.0,0.0
12696,98.0,20,15,1.0,0.0
12697,100.0,100,15,1.0,0.0
12698,41.0,0,90,13.0,0.0
12699,65.0,0,90,6.0,0.0
12700,69.0,0,90,3.0,0.0
12701,77.0,0,90,11.0,0.0
12702,69.0,0,90,11.0,0.0
12703,65.0,0,90,11.0,0.0
12704,29.0,0,90,14.0,0.0
12705,77.0,0,90,3.0,0.0
12706,57.0,384,90,5.0,0.0
12707,41.0,0,90,8.0,0.0
12708,65.0,0,90,12.0,0.0
12709,57.0,0,90,12.0,0.0
12710,48.0,0,90,12.0,0.0
12711,41.0,0,90,4.0,0.0
12712,77.0,0,90,2.0,0.0
12713,69.0,0,90,2.0,0.0
12714,101.0,0,90,1.0,0.0
12715,93.0,0,90,0.0,0.0
12716,65.0,0,90,10.0,0.0
12717,69.0,0,90,10.0,0.0
12718,53.0,0,90,4.0,0.0
12719,65.0,0,90,7.0,0.0
12720,65.0,0,90,5.0,0.0
12721,77.0,0,90,10.0,0.0
12722,77.0,0,120,10.0,0.0
