,note,step,duration,channel,velocity
0,55.0,0,60,10.0,0.0
1,67.0,2,60,10.0,0.0
2,79.0,1,420,0.0,0.0
3,91.0,1,600,0.0,0.0
4,55.0,1,60,11.0,0.0
5,67.0,0,60,11.0,0.0
6,79.0,0,420,1.0,0.0
7,55.0,3,420,4.0,0.0
8,67.0,0,420,4.0,0.0
9,43.0,0,60,13.0,0.0
10,67.0,0,60,6.0,0.0
11,55.0,3,60,6.0,0.0
12,55.0,0,60,12.0,0.0
13,67.0,1,600,2.0,0.0
14,79.0,0,600,2.0,0.0
15,55.0,175,420,3.0,0.0
16,67.0,1,600,3.0,0.0
17,31.0,355,60,14.0,0.0
18,43.0,0,60,15.0,0.0
19,79.0,1,240,10.0,0.0
20,79.0,1,240,11.0,0.0
21,67.0,0,240,12.0,0.0
22,55.0,1,240,13.0,0.0
23,43.0,111,240,14.0,0.0
24,77.0,1,117,10.0,0.0
25,89.0,1,117,0.0,0.0
26,77.0,1,117,11.0,0.0
27,53.0,0,117,13.0,0.0
28,65.0,1,117,12.0,0.0
29,65.0,1,117,2.0,0.0
30,77.0,0,117,2.0,0.0
31,65.0,1,117,3.0,0.0
32,41.0,117,117,14.0,0.0
33,76.0,1,120,10.0,0.0
34,88.0,1,120,0.0,0.0
35,76.0,1,120,11.0,0.0
36,52.0,1,120,13.0,0.0
37,64.0,0,120,12.0,0.0
38,76.0,0,120,2.0,0.0
39,64.0,1,120,2.0,0.0
40,64.0,1,120,3.0,0.0
41,40.0,114,120,14.0,0.0
42,74.0,1,120,10.0,0.0
43,86.0,1,120,0.0,0.0
44,74.0,1,120,11.0,0.0
45,62.0,0,120,12.0,0.0
46,50.0,1,120,13.0,0.0
47,74.0,1,120,2.0,0.0
48,62.0,1,120,3.0,0.0
49,38.0,114,120,14.0,0.0
50,72.0,1,120,10.0,0.0
51,84.0,1,120,0.0,0.0
52,72.0,1,120,11.0,0.0
53,48.0,0,120,13.0,0.0
54,60.0,1,120,12.0,0.0
55,72.0,1,120,2.0,0.0
56,60.0,1,120,3.0,0.0
57,36.0,114,120,14.0,0.0
58,71.0,1,120,10.0,0.0
59,83.0,1,120,0.0,0.0
60,71.0,1,120,11.0,0.0
61,47.0,1,120,13.0,0.0
62,59.0,0,120,12.0,0.0
63,71.0,1,120,2.0,0.0
64,59.0,1,120,3.0,0.0
65,35.0,114,120,14.0,0.0
66,69.0,1,120,10.0,0.0
67,81.0,1,120,0.0,0.0
68,69.0,1,120,11.0,0.0
69,57.0,0,120,12.0,0.0
70,45.0,1,120,13.0,0.0
71,69.0,1,120,2.0,0.0
72,57.0,1,120,3.0,0.0
73,33.0,111,120,14.0,0.0
74,67.0,1,117,10.0,0.0
75,79.0,1,117,0.0,0.0
76,67.0,1,117,11.0,0.0
77,43.0,0,117,13.0,0.0
78,55.0,1,117,12.0,0.0
79,67.0,1,117,2.0,0.0
80,55.0,1,117,3.0,0.0
81,31.0,58,117,14.0,0.0
82,66.0,2,357,10.0,0.0
83,78.0,3,60,0.0,0.0
84,66.0,1,357,11.0,0.0
85,42.0,3,357,13.0,0.0
86,54.0,0,357,12.0,0.0
87,66.0,1,60,2.0,0.0
88,54.0,180,60,3.0,0.0
89,30.0,242,357,14.0,0.0
90,58.0,60,120,3.0,0.0
91,64.0,0,60,3.0,0.0
92,61.0,0,0,3.0,0.0
93,66.0,2,357,10.0,0.0
94,66.0,1,357,11.0,0.0
95,54.0,0,357,12.0,0.0
96,42.0,3,357,13.0,0.0
97,30.0,242,357,14.0,0.0
98,61.0,0,120,3.0,0.0
99,58.0,60,120,3.0,0.0
100,64.0,52,60,3.0,0.0
101,61.0,0,60,3.0,0.0
102,66.0,2,357,10.0,0.0
103,66.0,1,357,11.0,0.0
104,47.0,0,357,13.0,0.0
105,54.0,3,357,12.0,0.0
106,35.0,119,357,14.0,0.0
107,59.0,60,120,3.0,0.0
108,66.0,0,60,3.0,0.0
109,62.0,0,0,3.0,0.0
110,67.0,3,237,10.0,0.0
111,67.0,1,120,11.0,0.0
112,43.0,2,237,13.0,0.0
113,55.0,114,120,12.0,0.0
114,31.0,59,237,14.0,0.0
115,65.0,1,120,11.0,0.0
116,62.0,0,120,12.0,0.0
117,71.0,2,117,10.0,0.0
118,68.0,1,60,11.0,0.0
119,65.0,29,60,12.0,0.0
120,43.0,3,117,13.0,0.0
121,31.0,63,117,14.0,0.0
122,67.0,1,30,11.0,0.0
123,63.0,24,30,12.0,0.0
124,65.0,1,27,11.0,0.0
125,62.0,0,27,12.0,0.0
126,72.0,2,237,10.0,0.0
127,63.0,1,237,11.0,0.0
128,44.0,57,957,13.0,0.0
129,60.0,4,237,12.0,0.0
130,32.0,171,60,14.0,0.0
131,63.0,3,300,7.0,0.0
132,63.0,0,120,2.0,0.0
133,72.0,1,120,2.0,0.0
134,60.0,112,120,3.0,0.0
135,51.0,0,120,3.0,0.0
136,51.0,112,300,7.0,0.0
137,67.0,3,117,10.0,0.0
138,63.0,2,297,11.0,0.0
139,55.0,1,117,12.0,0.0
140,61.0,1,117,2.0,0.0
141,70.0,0,117,2.0,0.0
142,58.0,62,117,3.0,0.0
143,49.0,0,117,3.0,0.0
144,68.0,2,297,10.0,0.0
145,56.0,34,297,12.0,0.0
146,68.0,0,177,2.0,0.0
147,60.0,1,177,2.0,0.0
148,56.0,42,177,3.0,0.0
149,48.0,0,177,3.0,0.0
150,60.0,5,57,11.0,0.0
151,60.0,0,60,2.0,0.0
152,68.0,15,40,2.0,0.0
153,48.0,52,60,3.0,0.0
154,56.0,0,60,3.0,0.0
155,75.0,1,20,2.0,0.0
156,56.0,1,57,11.0,0.0
157,65.0,1,90,2.0,0.0
158,73.0,0,90,2.0,0.0
159,53.0,0,90,3.0,0.0
160,61.0,22,90,3.0,0.0
161,68.0,2,57,10.0,0.0
162,68.0,1,57,11.0,0.0
163,56.0,1,57,12.0,0.0
164,63.0,1,27,2.0,0.0
165,72.0,0,27,2.0,0.0
166,60.0,122,27,3.0,0.0
167,51.0,0,27,3.0,0.0
168,65.0,2,177,10.0,0.0
169,65.0,1,177,11.0,0.0
170,53.0,4,177,12.0,0.0
171,72.0,1,120,2.0,0.0
172,62.0,0,180,2.0,0.0
173,60.0,52,120,3.0,0.0
174,50.0,0,180,3.0,0.0
175,71.0,1,60,2.0,0.0
176,59.0,55,60,3.0,0.0
177,70.0,2,117,10.0,0.0
178,64.0,1,117,11.0,0.0
179,61.0,1,117,12.0,0.0
180,43.0,1,117,13.0,0.0
181,61.0,0,57,2.0,0.0
182,70.0,1,57,2.0,0.0
183,64.0,55,57,3.0,0.0
184,70.0,3,57,10.0,0.0
185,63.0,2,117,11.0,0.0
186,61.0,0,57,12.0,0.0
187,61.0,0,57,2.0,0.0
188,70.0,30,57,2.0,0.0
189,63.0,1,117,3.0,0.0
190,72.0,2,57,10.0,0.0
191,60.0,1,60,12.0,0.0
192,44.0,0,60,13.0,0.0
193,60.0,26,27,2.0,0.0
194,72.0,26,60,2.0,0.0
195,63.0,1,27,2.0,0.0
196,60.0,0,27,3.0,0.0
197,61.0,1,30,10.0,0.0
198,58.0,0,30,11.0,0.0
199,49.0,1,60,13.0,0.0
200,53.0,1,57,12.0,0.0
201,73.0,23,30,2.0,0.0
202,65.0,1,27,2.0,0.0
203,49.0,0,57,3.0,0.0
204,61.0,2,27,3.0,0.0
205,65.0,2,27,10.0,0.0
206,61.0,1,27,11.0,0.0
207,70.0,56,30,2.0,0.0
208,61.0,1,27,2.0,0.0
209,58.0,1,27,3.0,0.0
210,60.0,2,60,10.0,0.0
211,56.0,55,60,11.0,0.0
212,51.0,0,57,12.0,0.0
213,51.0,1,120,13.0,0.0
214,68.0,1,150,2.0,0.0
215,60.0,30,120,2.0,0.0
216,63.0,1,300,7.0,0.0
217,51.0,2,300,3.0,0.0
218,56.0,29,150,3.0,0.0
219,51.0,41,300,7.0,0.0
220,63.0,2,57,10.0,0.0
221,60.0,1,57,11.0,0.0
222,51.0,3,57,12.0,0.0
223,39.0,1,117,13.0,0.0
224,61.0,30,120,2.0,0.0
225,67.0,1,30,2.0,0.0
226,55.0,29,30,3.0,0.0
227,63.0,2,57,10.0,0.0
228,61.0,1,57,11.0,0.0
229,51.0,0,57,12.0,0.0
230,68.0,1,30,2.0,0.0
231,56.0,22,30,3.0,0.0
232,70.0,1,27,2.0,0.0
233,58.0,2,27,3.0,0.0
234,63.0,0,60,10.0,0.0
235,60.0,1,60,11.0,0.0
236,44.0,1,60,13.0,0.0
237,51.0,1,57,12.0,0.0
238,70.0,26,30,2.0,0.0
239,60.0,1,57,2.0,0.0
240,56.0,0,57,3.0,0.0
241,68.0,0,27,2.0,0.0
242,65.0,1,45,12.0,0.0
243,68.0,0,45,12.0,0.0
244,68.0,1,45,2.0,0.0
245,68.0,0,45,3.0,0.0
246,65.0,58,45,3.0,0.0
247,63.0,0,45,12.0,0.0
248,67.0,1,45,12.0,0.0
249,68.0,1,45,2.0,0.0
250,67.0,58,45,3.0,0.0
251,63.0,0,45,3.0,0.0
252,65.0,1,45,12.0,0.0
253,61.0,0,45,12.0,0.0
254,68.0,1,45,2.0,0.0
255,65.0,58,45,3.0,0.0
256,61.0,0,45,3.0,0.0
257,60.0,0,45,12.0,0.0
258,63.0,1,45,12.0,0.0
259,68.0,1,45,2.0,0.0
260,63.0,0,45,3.0,0.0
261,60.0,58,45,3.0,0.0
262,67.0,2,57,10.0,0.0
263,63.0,1,57,11.0,0.0
264,58.0,1,45,12.0,0.0
265,61.0,0,45,12.0,0.0
266,51.0,3,57,13.0,0.0
267,67.0,1,45,2.0,0.0
268,58.0,7,45,3.0,0.0
269,61.0,0,45,3.0,0.0
270,39.0,61,57,14.0,0.0
271,68.0,120,120,10.0,0.0
272,63.0,1,840,11.0,0.0
273,60.0,0,117,12.0,0.0
274,44.0,0,240,13.0,0.0
275,56.0,0,117,12.0,0.0
276,68.0,1,60,2.0,0.0
277,60.0,0,60,3.0,0.0
278,56.0,55,60,3.0,0.0
279,32.0,114,240,14.0,0.0
280,72.0,3,120,10.0,0.0
281,56.0,3,120,12.0,0.0
282,70.0,0,120,10.0,0.0
283,58.0,117,120,12.0,0.0
284,42.0,3,117,13.0,0.0
285,30.0,0,117,14.0,0.0
286,69.0,3,120,10.0,0.0
287,60.0,117,120,12.0,0.0
288,41.0,3,480,13.0,0.0
289,29.0,114,480,14.0,0.0
290,72.0,3,120,10.0,0.0
291,57.0,114,120,12.0,0.0
292,71.0,3,117,10.0,0.0
293,59.0,122,117,12.0,0.0
294,69.0,2,240,10.0,0.0
295,60.0,0,240,12.0,0.0
296,64.0,1,120,11.0,0.0
297,40.0,3,120,13.0,0.0
298,28.0,114,120,14.0,0.0
299,71.0,4,477,10.0,0.0
300,66.0,4,237,11.0,0.0
301,59.0,0,120,12.0,0.0
302,39.0,3,117,13.0,0.0
303,27.0,116,117,14.0,0.0
304,57.0,118,120,12.0,0.0
305,40.0,3,360,13.0,0.0
306,28.0,114,360,14.0,0.0
307,76.0,1,120,0.0,0.0
308,64.0,1,120,11.0,0.0
309,55.0,114,120,12.0,0.0
310,64.0,7,960,5.0,0.0
311,52.0,0,960,5.0,0.0
312,78.0,1,120,0.0,0.0
313,66.0,1,120,11.0,0.0
314,54.0,0,120,12.0,0.0
315,70.0,3,480,10.0,0.0
316,79.0,1,120,0.0,0.0
317,67.0,1,120,11.0,0.0
318,49.0,1,117,13.0,0.0
319,52.0,0,120,12.0,0.0
320,37.0,118,117,14.0,0.0
321,76.0,1,120,0.0,0.0
322,64.0,1,120,11.0,0.0
323,48.0,3,360,13.0,0.0
324,55.0,116,120,12.0,0.0
325,36.0,114,360,14.0,0.0
326,78.0,119,120,0.0,0.0
327,66.0,1,117,11.0,0.0
328,54.0,1,117,12.0,0.0
329,79.0,1,240,0.0,0.0
330,67.0,1,240,11.0,0.0
331,52.0,0,357,12.0,0.0
332,71.0,1,120,10.0,0.0
333,47.0,3,120,13.0,0.0
334,35.0,111,120,14.0,0.0
335,73.0,2,117,10.0,0.0
336,66.0,1,117,11.0,0.0
337,46.0,1,117,13.0,0.0
338,34.0,1,117,14.0,0.0
339,71.0,2,60,10.0,0.0
340,78.0,2,0,0.0,0.0
341,66.0,1,60,11.0,0.0
342,47.0,1,60,13.0,0.0
343,51.0,0,60,12.0,0.0
344,47.0,2,60,5.0,0.0
345,59.0,0,60,5.0,0.0
346,35.0,24,60,14.0,0.0
347,71.0,20,10,0.0,0.0
348,75.0,9,10,0.0,0.0
349,78.0,30,60,0.0,0.0
350,59.0,20,10,10.0,0.0
351,63.0,11,10,10.0,0.0
352,66.0,30,60,10.0,0.0
353,75.0,20,10,0.0,0.0
354,78.0,9,10,0.0,0.0
355,83.0,30,60,0.0,0.0
356,63.0,20,10,10.0,0.0
357,66.0,11,10,10.0,0.0
358,71.0,30,60,10.0,0.0
359,78.0,20,10,0.0,0.0
360,83.0,9,10,0.0,0.0
361,87.0,30,60,0.0,0.0
362,66.0,20,10,10.0,0.0
363,71.0,11,10,10.0,0.0
364,75.0,30,60,10.0,0.0
365,83.0,20,10,0.0,0.0
366,87.0,9,10,0.0,0.0
367,90.0,30,60,0.0,0.0
368,71.0,20,10,10.0,0.0
369,75.0,11,10,10.0,0.0
370,78.0,30,60,10.0,0.0
371,59.0,1,300,5.0,0.0
372,59.0,26,120,3.0,0.0
373,83.0,20,10,0.0,0.0
374,87.0,9,10,0.0,0.0
375,90.0,4,60,0.0,0.0
376,71.0,20,10,10.0,0.0
377,75.0,11,10,10.0,0.0
378,78.0,30,60,10.0,0.0
379,57.0,26,120,3.0,0.0
380,83.0,20,10,0.0,0.0
381,87.0,9,10,0.0,0.0
382,90.0,4,60,0.0,0.0
383,71.0,20,10,10.0,0.0
384,75.0,11,10,10.0,0.0
385,76.0,4,60,10.0,0.0
386,55.0,25,60,3.0,0.0
387,71.0,20,10,0.0,0.0
388,76.0,9,10,0.0,0.0
389,79.0,30,60,0.0,0.0
390,59.0,20,10,10.0,0.0
391,64.0,11,10,10.0,0.0
392,67.0,30,60,10.0,0.0
393,76.0,20,10,0.0,0.0
394,79.0,9,10,0.0,0.0
395,83.0,30,60,0.0,0.0
396,64.0,20,10,10.0,0.0
397,67.0,11,10,10.0,0.0
398,71.0,30,60,10.0,0.0
399,79.0,20,10,0.0,0.0
400,83.0,9,10,0.0,0.0
401,88.0,30,60,0.0,0.0
402,67.0,20,10,10.0,0.0
403,71.0,11,10,10.0,0.0
404,76.0,30,60,10.0,0.0
405,83.0,20,10,0.0,0.0
406,88.0,9,10,0.0,0.0
407,91.0,30,60,0.0,0.0
408,71.0,20,10,10.0,0.0
409,76.0,11,10,10.0,0.0
410,79.0,30,60,10.0,0.0
411,52.0,0,300,4.0,0.0
412,64.0,28,300,4.0,0.0
413,52.0,2,120,13.0,0.0
414,52.0,1,120,3.0,0.0
415,40.0,25,120,14.0,0.0
416,83.0,20,10,0.0,0.0
417,88.0,9,10,0.0,0.0
418,91.0,2,60,0.0,0.0
419,71.0,20,10,10.0,0.0
420,76.0,11,10,10.0,0.0
421,79.0,11,60,10.0,0.0
422,50.0,3,117,13.0,0.0
423,50.0,8,120,3.0,0.0
424,38.0,2,117,14.0,0.0
425,82.0,20,10,0.0,0.0
426,88.0,9,10,0.0,0.0
427,91.0,19,10,0.0,0.0
428,70.0,1,10,10.0,0.0
429,82.0,19,10,0.0,0.0
430,76.0,1,10,10.0,0.0
431,88.0,9,10,0.0,0.0
432,79.0,1,60,10.0,0.0
433,91.0,1,60,0.0,0.0
434,49.0,3,10,13.0,0.0
435,49.0,8,660,3.0,0.0
436,37.0,17,10,14.0,0.0
437,46.0,3,10,13.0,0.0
438,34.0,17,10,14.0,0.0
439,49.0,3,10,13.0,0.0
440,37.0,4,10,14.0,0.0
441,52.0,0,45,4.0,0.0
442,64.0,0,45,4.0,0.0
443,67.0,1,45,11.0,0.0
444,55.0,3,60,13.0,0.0
445,58.0,2,45,12.0,0.0
446,55.0,0,45,12.0,0.0
447,43.0,27,60,14.0,0.0
448,73.0,17,10,10.0,0.0
449,70.0,13,10,10.0,0.0
450,67.0,30,60,10.0,0.0
451,64.0,0,45,4.0,0.0
452,52.0,1,45,4.0,0.0
453,67.0,0,45,11.0,0.0
454,55.0,0,45,12.0,0.0
455,58.0,5,45,12.0,0.0
456,49.0,3,10,13.0,0.0
457,37.0,11,10,14.0,0.0
458,55.0,3,10,13.0,0.0
459,43.0,4,10,14.0,0.0
460,88.0,1,45,0.0,0.0
461,64.0,0,45,4.0,0.0
462,52.0,0,45,4.0,0.0
463,76.0,1,45,1.0,0.0
464,67.0,0,45,11.0,0.0
465,55.0,1,45,12.0,0.0
466,58.0,3,60,13.0,0.0
467,58.0,0,45,12.0,0.0
468,70.0,1,45,2.0,0.0
469,67.0,0,45,2.0,0.0
470,64.0,13,45,3.0,0.0
471,46.0,27,60,14.0,0.0
472,70.0,16,10,10.0,0.0
473,67.0,0,10,10.0,0.0
474,61.0,30,60,10.0,0.0
475,88.0,1,45,0.0,0.0
476,52.0,0,45,4.0,0.0
477,67.0,0,45,11.0,0.0
478,76.0,0,45,1.0,0.0
479,64.0,1,45,4.0,0.0
480,55.0,1,45,12.0,0.0
481,58.0,0,45,12.0,0.0
482,70.0,0,45,2.0,0.0
483,67.0,1,45,2.0,0.0
484,64.0,3,45,3.0,0.0
485,55.0,3,10,13.0,0.0
486,43.0,10,10,14.0,0.0
487,58.0,3,10,13.0,0.0
488,46.0,4,10,14.0,0.0
489,88.0,1,45,0.0,0.0
490,67.0,0,45,11.0,0.0
491,64.0,1,45,4.0,0.0
492,52.0,0,45,4.0,0.0
493,76.0,0,45,1.0,0.0
494,55.0,1,45,12.0,0.0
495,58.0,0,45,12.0,0.0
496,61.0,3,60,13.0,0.0
497,70.0,1,45,2.0,0.0
498,67.0,0,45,2.0,0.0
499,64.0,13,45,3.0,0.0
500,49.0,27,60,14.0,0.0
501,67.0,16,10,10.0,0.0
502,61.0,0,10,10.0,0.0
503,58.0,30,60,10.0,0.0
504,88.0,1,120,0.0,0.0
505,76.0,1,120,1.0,0.0
506,52.0,0,45,4.0,0.0
507,67.0,0,45,11.0,0.0
508,64.0,1,45,4.0,0.0
509,55.0,5,45,12.0,0.0
510,58.0,0,45,12.0,0.0
511,70.0,0,120,2.0,0.0
512,67.0,2,120,2.0,0.0
513,46.0,3,10,13.0,0.0
514,34.0,11,10,14.0,0.0
515,49.0,3,10,13.0,0.0
516,37.0,4,10,14.0,0.0
517,52.0,1,45,4.0,0.0
518,64.0,0,45,4.0,0.0
519,67.0,0,45,11.0,0.0
520,55.0,0,45,12.0,0.0
521,58.0,2,45,12.0,0.0
522,55.0,1,60,13.0,0.0
523,43.0,27,60,14.0,0.0
524,73.0,17,10,10.0,0.0
525,70.0,11,10,10.0,0.0
526,67.0,30,60,10.0,0.0
527,52.0,1,45,4.0,0.0
528,64.0,0,45,4.0,0.0
529,67.0,0,45,11.0,0.0
530,58.0,5,45,12.0,0.0
531,55.0,0,45,12.0,0.0
532,49.0,3,10,13.0,0.0
533,37.0,11,10,14.0,0.0
534,55.0,3,10,13.0,0.0
535,43.0,4,10,14.0,0.0
536,88.0,1,45,0.0,0.0
537,64.0,0,45,4.0,0.0
538,52.0,0,45,4.0,0.0
539,67.0,0,45,11.0,0.0
540,76.0,1,45,1.0,0.0
541,55.0,0,45,12.0,0.0
542,58.0,1,45,12.0,0.0
543,58.0,3,60,13.0,0.0
544,67.0,0,45,2.0,0.0
545,70.0,1,45,2.0,0.0
546,64.0,0,45,3.0,0.0
547,46.0,27,60,14.0,0.0
548,70.0,16,10,10.0,0.0
549,67.0,13,10,10.0,0.0
550,61.0,5,60,10.0,0.0
551,88.0,1,45,0.0,0.0
552,64.0,0,45,4.0,0.0
553,52.0,0,45,4.0,0.0
554,76.0,0,45,1.0,0.0
555,67.0,1,45,11.0,0.0
556,55.0,0,45,12.0,0.0
557,58.0,1,45,12.0,0.0
558,67.0,1,45,2.0,0.0
559,70.0,0,45,2.0,0.0
560,64.0,3,45,3.0,0.0
561,55.0,3,10,13.0,0.0
562,43.0,10,10,14.0,0.0
563,58.0,3,10,13.0,0.0
564,46.0,4,10,14.0,0.0
565,85.0,0,45,0.0,0.0
566,87.0,1,45,0.0,0.0
567,75.0,0,45,1.0,0.0
568,67.0,0,45,4.0,0.0
569,55.0,0,45,4.0,0.0
570,67.0,0,45,11.0,0.0
571,73.0,1,45,1.0,0.0
572,55.0,0,45,12.0,0.0
573,58.0,1,45,12.0,0.0
574,61.0,3,10,13.0,0.0
575,70.0,0,45,2.0,0.0
576,67.0,1,45,2.0,0.0
577,61.0,3,45,3.0,0.0
578,63.0,0,45,3.0,0.0
579,49.0,14,10,14.0,0.0
580,73.0,3,10,10.0,0.0
581,55.0,3,10,13.0,0.0
582,43.0,10,10,14.0,0.0
583,70.0,0,10,10.0,0.0
584,58.0,3,10,13.0,0.0
585,46.0,14,10,14.0,0.0
586,67.0,3,10,10.0,0.0
587,85.0,1,45,0.0,0.0
588,87.0,0,45,0.0,0.0
589,55.0,1,45,4.0,0.0
590,75.0,0,45,1.0,0.0
591,67.0,0,45,11.0,0.0
592,73.0,0,45,1.0,0.0
593,67.0,0,45,4.0,0.0
594,55.0,0,45,12.0,0.0
595,58.0,1,45,12.0,0.0
596,61.0,3,10,13.0,0.0
597,67.0,1,45,2.0,0.0
598,70.0,0,45,2.0,0.0
599,61.0,3,45,3.0,0.0
600,63.0,0,45,3.0,0.0
601,49.0,14,10,14.0,0.0
602,73.0,3,10,10.0,0.0
603,55.0,3,10,13.0,0.0
604,43.0,10,10,14.0,0.0
605,70.0,0,10,10.0,0.0
606,58.0,3,10,13.0,0.0
607,46.0,14,10,14.0,0.0
608,67.0,3,10,10.0,0.0
609,85.0,1,45,0.0,0.0
610,87.0,0,45,0.0,0.0
611,75.0,0,45,1.0,0.0
612,73.0,0,45,1.0,0.0
613,58.0,0,45,11.0,0.0
614,67.0,0,45,11.0,0.0
615,55.0,0,45,4.0,0.0
616,67.0,1,45,4.0,0.0
617,55.0,0,45,12.0,0.0
618,61.0,3,10,13.0,0.0
619,61.0,1,45,12.0,0.0
620,63.0,1,45,7.0,0.0
621,55.0,0,45,8.0,0.0
622,67.0,0,45,2.0,0.0
623,70.0,0,45,2.0,0.0
624,61.0,2,45,3.0,0.0
625,63.0,0,45,3.0,0.0
626,49.0,14,10,14.0,0.0
627,58.0,1,45,7.0,0.0
628,73.0,3,10,10.0,0.0
629,55.0,3,10,13.0,0.0
630,43.0,10,10,14.0,0.0
631,70.0,0,10,10.0,0.0
632,58.0,3,10,13.0,0.0
633,46.0,14,10,14.0,0.0
634,67.0,3,10,10.0,0.0
635,85.0,0,45,0.0,0.0
636,87.0,1,45,0.0,0.0
637,58.0,1,45,11.0,0.0
638,73.0,0,45,1.0,0.0
639,55.0,0,45,4.0,0.0
640,67.0,0,45,11.0,0.0
641,75.0,0,45,1.0,0.0
642,67.0,0,45,4.0,0.0
643,61.0,3,10,13.0,0.0
644,61.0,0,45,12.0,0.0
645,55.0,1,45,12.0,0.0
646,63.0,0,45,7.0,0.0
647,67.0,1,45,2.0,0.0
648,70.0,0,45,2.0,0.0
649,55.0,0,45,8.0,0.0
650,61.0,0,45,3.0,0.0
651,63.0,2,45,3.0,0.0
652,49.0,14,10,14.0,0.0
653,58.0,1,45,7.0,0.0
654,73.0,3,10,10.0,0.0
655,55.0,3,10,13.0,0.0
656,43.0,10,10,14.0,0.0
657,70.0,0,10,10.0,0.0
658,58.0,3,10,13.0,0.0
659,46.0,14,10,14.0,0.0
660,67.0,3,10,10.0,0.0
661,85.0,1,45,0.0,0.0
662,87.0,0,45,0.0,0.0
663,67.0,0,45,4.0,0.0
664,55.0,0,45,4.0,0.0
665,73.0,0,45,1.0,0.0
666,75.0,0,45,1.0,0.0
667,67.0,0,45,11.0,0.0
668,58.0,1,45,11.0,0.0
669,61.0,0,45,12.0,0.0
670,61.0,3,10,13.0,0.0
671,55.0,1,45,12.0,0.0
672,63.0,0,45,7.0,0.0
673,70.0,1,45,2.0,0.0
674,67.0,0,45,2.0,0.0
675,55.0,0,45,8.0,0.0
676,63.0,2,45,3.0,0.0
677,61.0,0,45,3.0,0.0
678,49.0,14,10,14.0,0.0
679,58.0,1,45,7.0,0.0
680,73.0,3,10,10.0,0.0
681,55.0,3,10,13.0,0.0
682,43.0,10,10,14.0,0.0
683,70.0,0,10,10.0,0.0
684,58.0,3,10,13.0,0.0
685,46.0,14,10,14.0,0.0
686,67.0,3,10,10.0,0.0
687,87.0,1,45,0.0,0.0
688,85.0,0,45,0.0,0.0
689,58.0,0,45,11.0,0.0
690,73.0,0,45,1.0,0.0
691,67.0,1,45,4.0,0.0
692,55.0,0,45,4.0,0.0
693,67.0,0,45,11.0,0.0
694,75.0,0,45,1.0,0.0
695,61.0,3,10,13.0,0.0
696,61.0,0,45,12.0,0.0
697,55.0,1,45,12.0,0.0
698,70.0,0,45,2.0,0.0
699,67.0,0,45,2.0,0.0
700,55.0,1,45,8.0,0.0
701,63.0,0,45,7.0,0.0
702,61.0,0,45,3.0,0.0
703,63.0,0,45,3.0,0.0
704,49.0,14,10,14.0,0.0
705,58.0,1,45,7.0,0.0
706,70.0,3,10,10.0,0.0
707,58.0,3,10,13.0,0.0
708,46.0,10,10,14.0,0.0
709,67.0,2,10,10.0,0.0
710,55.0,3,10,13.0,0.0
711,43.0,14,10,14.0,0.0
712,63.0,3,10,10.0,0.0
713,87.0,1,45,0.0,0.0
714,85.0,0,45,0.0,0.0
715,73.0,0,45,1.0,0.0
716,75.0,1,45,1.0,0.0
717,58.0,0,45,11.0,0.0
718,67.0,0,45,11.0,0.0
719,55.0,0,45,4.0,0.0
720,55.0,1,45,12.0,0.0
721,51.0,3,10,13.0,0.0
722,61.0,0,45,12.0,0.0
723,67.0,0,45,2.0,0.0
724,63.0,0,45,2.0,0.0
725,63.0,0,45,7.0,0.0
726,55.0,1,45,8.0,0.0
727,63.0,2,45,3.0,0.0
728,61.0,0,45,3.0,0.0
729,39.0,14,10,14.0,0.0
730,58.0,1,45,7.0,0.0
731,61.0,3,10,10.0,0.0
732,49.0,3,10,13.0,0.0
733,37.0,10,10,14.0,0.0
734,58.0,0,10,10.0,0.0
735,46.0,3,10,13.0,0.0
736,34.0,10,10,14.0,0.0
737,56.0,2,6,10.0,0.0
738,84.0,0,400,0.0,0.0
739,87.0,1,400,0.0,0.0
740,60.0,0,405,4.0,0.0
741,72.0,2,400,1.0,0.0
742,75.0,0,400,1.0,0.0
743,48.0,1,405,4.0,0.0
744,56.0,2,6,11.0,0.0
745,60.0,1,405,6.0,0.0
746,44.0,0,15,13.0,0.0
747,60.0,0,15,12.0,0.0
748,56.0,1,15,12.0,0.0
749,72.0,0,405,6.0,0.0
750,72.0,1,400,2.0,0.0
751,68.0,0,400,2.0,0.0
752,56.0,0,405,8.0,0.0
753,63.0,2,405,7.0,0.0
754,60.0,0,400,3.0,0.0
755,63.0,0,400,3.0,0.0
756,48.0,3,4,15.0,0.0
757,32.0,2,15,14.0,0.0
758,60.0,2,6,10.0,0.0
759,60.0,15,405,7.0,0.0
760,60.0,3,6,11.0,0.0
761,48.0,0,4,15.0,0.0
762,48.0,2,4,15.0,0.0
763,61.0,0,6,10.0,0.0
764,61.0,3,6,11.0,0.0
765,48.0,2,4,15.0,0.0
766,63.0,2,6,10.0,0.0
767,56.0,0,15,12.0,0.0
768,44.0,0,15,13.0,0.0
769,63.0,0,6,11.0,0.0
770,32.0,2,15,14.0,0.0
771,48.0,5,4,15.0,0.0
772,65.0,2,6,10.0,0.0
773,48.0,1,4,15.0,0.0
774,65.0,2,6,11.0,0.0
775,48.0,1,4,15.0,0.0
776,67.0,2,6,10.0,0.0
777,67.0,1,6,11.0,0.0
778,48.0,5,4,15.0,0.0
779,56.0,0,15,12.0,0.0
780,44.0,1,15,13.0,0.0
781,68.0,0,6,10.0,0.0
782,32.0,5,15,14.0,0.0
783,48.0,2,4,15.0,0.0
784,68.0,3,6,11.0,0.0
785,70.0,0,6,10.0,0.0
786,70.0,1,6,11.0,0.0
787,48.0,2,1,15.0,0.0
788,72.0,0,6,10.0,0.0
789,72.0,3,6,11.0,0.0
790,48.0,2,4,15.0,0.0
791,44.0,1,15,13.0,0.0
792,56.0,0,15,12.0,0.0
793,32.0,2,15,14.0,0.0
794,48.0,2,4,15.0,0.0
795,63.0,2,6,10.0,0.0
796,63.0,3,6,11.0,0.0
797,48.0,0,4,15.0,0.0
798,65.0,0,6,10.0,0.0
799,48.0,2,4,15.0,0.0
800,65.0,1,6,11.0,0.0
801,48.0,4,4,15.0,0.0
802,67.0,1,6,10.0,0.0
803,44.0,0,15,13.0,0.0
804,56.0,1,15,12.0,0.0
805,67.0,5,6,11.0,0.0
806,48.0,1,4,15.0,0.0
807,32.0,2,15,14.0,0.0
808,68.0,2,6,10.0,0.0
809,68.0,0,6,11.0,0.0
810,48.0,1,0,15.0,0.0
811,70.0,1,6,10.0,0.0
812,70.0,6,6,11.0,0.0
813,48.0,1,4,15.0,0.0
814,44.0,0,15,13.0,0.0
815,56.0,2,15,12.0,0.0
816,72.0,2,6,10.0,0.0
817,32.0,2,15,14.0,0.0
818,72.0,1,6,11.0,0.0
819,48.0,0,1,15.0,0.0
820,73.0,0,6,10.0,0.0
821,73.0,1,6,11.0,0.0
822,48.0,0,4,15.0,0.0
823,48.0,3,4,15.0,0.0
824,75.0,2,6,10.0,0.0
825,75.0,0,6,11.0,0.0
826,56.0,1,15,12.0,0.0
827,44.0,0,15,13.0,0.0
828,48.0,5,4,15.0,0.0
829,32.0,2,15,14.0,0.0
830,68.0,1,6,10.0,0.0
831,68.0,3,6,11.0,0.0
832,48.0,1,4,15.0,0.0
833,70.0,0,6,10.0,0.0
834,48.0,2,4,15.0,0.0
835,70.0,1,6,11.0,0.0
836,48.0,4,4,15.0,0.0
837,72.0,1,6,10.0,0.0
838,44.0,0,15,13.0,0.0
839,56.0,0,15,12.0,0.0
840,72.0,4,6,11.0,0.0
841,48.0,1,4,15.0,0.0
842,32.0,2,15,14.0,0.0
843,48.0,2,4,15.0,0.0
844,73.0,2,6,10.0,0.0
845,73.0,0,6,11.0,0.0
846,48.0,3,4,15.0,0.0
847,75.0,1,6,10.0,0.0
848,75.0,4,6,11.0,0.0
849,48.0,1,4,15.0,0.0
850,44.0,2,15,13.0,0.0
851,56.0,0,15,12.0,0.0
852,77.0,2,6,10.0,0.0
853,48.0,2,4,15.0,0.0
854,32.0,3,15,14.0,0.0
855,77.0,1,6,11.0,0.0
856,79.0,0,6,10.0,0.0
857,48.0,4,0,15.0,0.0
858,79.0,1,6,11.0,0.0
859,48.0,2,4,15.0,0.0
860,80.0,2,6,10.0,0.0
861,80.0,2,6,11.0,0.0
862,44.0,1,15,13.0,0.0
863,56.0,0,15,12.0,0.0
864,48.0,3,4,15.0,0.0
865,32.0,2,15,14.0,0.0
866,72.0,2,6,10.0,0.0
867,72.0,0,6,11.0,0.0
868,48.0,3,0,15.0,0.0
869,73.0,0,6,10.0,0.0
870,73.0,5,6,11.0,0.0
871,48.0,2,0,15.0,0.0
872,75.0,2,6,10.0,0.0
873,56.0,0,15,12.0,0.0
874,44.0,1,15,13.0,0.0
875,75.0,4,6,11.0,0.0
876,32.0,2,15,14.0,0.0
877,48.0,0,4,15.0,0.0
878,77.0,2,6,10.0,0.0
879,48.0,2,4,15.0,0.0
880,77.0,0,6,11.0,0.0
881,48.0,2,4,15.0,0.0
882,79.0,1,6,10.0,0.0
883,79.0,3,6,11.0,0.0
884,44.0,0,15,13.0,0.0
885,56.0,0,15,12.0,0.0
886,48.0,1,0,15.0,0.0
887,80.0,1,6,10.0,0.0
888,32.0,1,15,14.0,0.0
889,80.0,5,6,11.0,0.0
890,48.0,1,4,15.0,0.0
891,82.0,2,6,10.0,0.0
892,82.0,1,6,11.0,0.0
893,48.0,0,0,15.0,0.0
894,84.0,2,6,10.0,0.0
895,84.0,1,6,11.0,0.0
896,56.0,0,15,12.0,0.0
897,44.0,1,15,13.0,0.0
898,32.0,0,15,14.0,0.0
899,80.0,2,6,10.0,0.0
900,48.0,3,1,15.0,0.0
901,80.0,3,6,11.0,0.0
902,79.0,2,6,10.0,0.0
903,48.0,2,4,15.0,0.0
904,79.0,1,6,11.0,0.0
905,48.0,4,4,15.0,0.0
906,77.0,1,6,10.0,0.0
907,56.0,0,15,12.0,0.0
908,44.0,0,15,13.0,0.0
909,77.0,4,6,11.0,0.0
910,48.0,1,4,15.0,0.0
911,32.0,2,15,14.0,0.0
912,48.0,2,4,15.0,0.0
913,75.0,2,6,10.0,0.0
914,75.0,0,6,11.0,0.0
915,48.0,3,4,15.0,0.0
916,73.0,2,6,10.0,0.0
917,73.0,2,6,11.0,0.0
918,44.0,1,15,13.0,0.0
919,48.0,0,0,15.0,0.0
920,56.0,0,15,12.0,0.0
921,72.0,1,6,10.0,0.0
922,32.0,1,15,14.0,0.0
923,72.0,5,6,11.0,0.0
924,48.0,1,4,15.0,0.0
925,70.0,0,6,10.0,0.0
926,70.0,1,6,11.0,0.0
927,48.0,1,1,15.0,0.0
928,68.0,2,6,10.0,0.0
929,68.0,0,6,11.0,0.0
930,56.0,0,15,12.0,0.0
931,44.0,0,15,13.0,0.0
932,32.0,0,15,14.0,0.0
933,68.0,2,6,10.0,0.0
934,48.0,3,1,15.0,0.0
935,68.0,3,6,11.0,0.0
936,67.0,0,6,10.0,0.0
937,48.0,3,1,15.0,0.0
938,67.0,3,6,11.0,0.0
939,65.0,2,6,10.0,0.0
940,48.0,2,4,15.0,0.0
941,56.0,3,15,12.0,0.0
942,44.0,0,15,13.0,0.0
943,65.0,3,6,11.0,0.0
944,32.0,0,15,14.0,0.0
945,63.0,2,6,10.0,0.0
946,63.0,0,6,11.0,0.0
947,48.0,3,1,15.0,0.0
948,48.0,2,4,15.0,0.0
949,61.0,2,6,10.0,0.0
950,61.0,2,6,11.0,0.0
951,48.0,4,4,15.0,0.0
952,56.0,0,15,12.0,0.0
953,44.0,2,15,13.0,0.0
954,60.0,2,6,10.0,0.0
955,32.0,2,15,14.0,0.0
956,60.0,5,6,11.0,0.0
957,48.0,0,4,15.0,0.0
958,58.0,0,6,10.0,0.0
959,58.0,1,6,11.0,0.0
960,48.0,0,4,15.0,0.0
961,48.0,38,4,15.0,0.0
962,56.0,2,45,10.0,0.0
963,56.0,0,45,11.0,0.0
964,44.0,0,45,13.0,0.0
965,56.0,0,45,12.0,0.0
966,32.0,1,45,14.0,0.0
967,48.0,32,60,15.0,0.0
968,87.0,0,38,0.0,0.0
969,84.0,8,38,0.0,0.0
970,72.0,2,45,1.0,0.0
971,75.0,0,45,1.0,0.0
972,72.0,0,45,2.0,0.0
973,68.0,1,45,2.0,0.0
974,56.0,0,45,3.0,0.0
975,60.0,49,45,3.0,0.0
976,84.0,8,38,0.0,0.0
977,87.0,0,38,0.0,0.0
978,75.0,2,45,1.0,0.0
979,72.0,0,45,1.0,0.0
980,72.0,0,45,2.0,0.0
981,68.0,1,45,2.0,0.0
982,60.0,49,45,3.0,0.0
983,56.0,0,45,3.0,0.0
984,84.0,8,38,0.0,0.0
985,87.0,0,38,0.0,0.0
986,72.0,0,45,1.0,0.0
987,75.0,2,45,1.0,0.0
988,72.0,0,45,2.0,0.0
989,68.0,1,45,2.0,0.0
990,56.0,0,45,3.0,0.0
991,60.0,49,45,3.0,0.0
992,84.0,8,38,0.0,0.0
993,87.0,0,38,0.0,0.0
994,72.0,0,45,1.0,0.0
995,75.0,2,45,1.0,0.0
996,72.0,0,45,2.0,0.0
997,68.0,1,45,2.0,0.0
998,60.0,49,45,3.0,0.0
999,56.0,0,45,3.0,0.0
1000,84.0,0,38,0.0,0.0
1001,87.0,8,38,0.0,0.0
1002,75.0,0,45,1.0,0.0
1003,72.0,2,45,1.0,0.0
1004,68.0,0,45,2.0,0.0
1005,72.0,1,45,2.0,0.0
1006,56.0,44,45,3.0,0.0
1007,60.0,0,45,3.0,0.0
1008,55.0,0,34,10.0,0.0
1009,75.0,0,34,10.0,0.0
1010,67.0,2,34,10.0,0.0
1011,85.0,0,34,10.0,0.0
1012,63.0,1,34,11.0,0.0
1013,73.0,0,34,11.0,0.0
1014,55.0,0,45,4.0,0.0
1015,67.0,1,45,4.0,0.0
1016,82.0,0,34,11.0,0.0
1017,63.0,0,34,12.0,0.0
1018,67.0,1,45,6.0,0.0
1019,55.0,0,45,6.0,0.0
1020,70.0,0,34,12.0,0.0
1021,43.0,0,34,13.0,0.0
1022,55.0,3,34,12.0,0.0
1023,63.0,0,45,7.0,0.0
1024,55.0,3,45,8.0,0.0
1025,31.0,7,34,14.0,0.0
1026,43.0,47,45,15.0,0.0
1027,58.0,0,45,7.0,0.0
1028,87.0,0,38,0.0,0.0
1029,85.0,8,38,0.0,0.0
1030,75.0,0,45,1.0,0.0
1031,73.0,2,45,1.0,0.0
1032,70.0,0,45,2.0,0.0
1033,73.0,1,45,2.0,0.0
1034,55.0,0,45,3.0,0.0
1035,58.0,49,45,3.0,0.0
1036,85.0,8,38,0.0,0.0
1037,87.0,0,38,0.0,0.0
1038,75.0,2,45,1.0,0.0
1039,73.0,0,45,1.0,0.0
1040,70.0,0,45,2.0,0.0
1041,73.0,1,45,2.0,0.0
1042,55.0,0,45,3.0,0.0
1043,58.0,49,45,3.0,0.0
1044,87.0,0,38,0.0,0.0
1045,85.0,8,38,0.0,0.0
1046,73.0,2,45,1.0,0.0
1047,75.0,0,45,1.0,0.0
1048,73.0,1,45,2.0,0.0
1049,70.0,0,45,2.0,0.0
1050,58.0,0,45,3.0,0.0
1051,55.0,49,45,3.0,0.0
1052,85.0,8,38,0.0,0.0
1053,87.0,0,38,0.0,0.0
1054,73.0,2,45,1.0,0.0
1055,75.0,0,45,1.0,0.0
1056,70.0,0,45,2.0,0.0
1057,73.0,1,45,2.0,0.0
1058,55.0,0,45,3.0,0.0
1059,58.0,49,45,3.0,0.0
1060,87.0,0,38,0.0,0.0
1061,85.0,8,38,0.0,0.0
1062,75.0,2,45,1.0,0.0
1063,73.0,0,45,1.0,0.0
1064,70.0,1,45,2.0,0.0
1065,73.0,0,45,2.0,0.0
1066,55.0,44,45,3.0,0.0
1067,58.0,0,45,3.0,0.0
1068,84.0,0,34,10.0,0.0
1069,68.0,2,34,10.0,0.0
1070,75.0,0,34,10.0,0.0
1071,63.0,0,34,11.0,0.0
1072,72.0,1,34,11.0,0.0
1073,80.0,0,34,11.0,0.0
1074,48.0,1,41,4.0,0.0
1075,60.0,0,41,4.0,0.0
1076,60.0,0,34,12.0,0.0
1077,72.0,1,41,6.0,0.0
1078,60.0,0,41,6.0,0.0
1079,44.0,3,34,13.0,0.0
1080,63.0,0,34,12.0,0.0
1081,56.0,0,41,8.0,0.0
1082,63.0,3,41,7.0,0.0
1083,32.0,3,34,14.0,0.0
1084,48.0,62,45,15.0,0.0
1085,60.0,4,41,7.0,0.0
1086,84.0,1,53,0.0,0.0
1087,87.0,0,53,0.0,0.0
1088,75.0,0,53,1.0,0.0
1089,72.0,0,53,1.0,0.0
1090,60.0,0,53,4.0,0.0
1091,48.0,2,53,4.0,0.0
1092,72.0,1,53,2.0,0.0
1093,68.0,0,53,2.0,0.0
1094,56.0,0,53,3.0,0.0
1095,60.0,36,53,3.0,0.0
1096,66.0,2,34,10.0,0.0
1097,75.0,0,34,10.0,0.0
1098,84.0,0,34,10.0,0.0
1099,81.0,0,34,11.0,0.0
1100,72.0,0,34,11.0,0.0
1101,63.0,1,34,11.0,0.0
1102,54.0,3,34,13.0,0.0
1103,60.0,0,34,12.0,0.0
1104,63.0,0,34,12.0,0.0
1105,60.0,1,45,6.0,0.0
1106,72.0,0,45,6.0,0.0
1107,63.0,0,45,7.0,0.0
1108,54.0,3,45,8.0,0.0
1109,42.0,8,34,14.0,0.0
1110,60.0,15,45,7.0,0.0
1111,48.0,47,60,15.0,0.0
1112,84.0,0,53,0.0,0.0
1113,87.0,1,53,0.0,0.0
1114,75.0,0,53,1.0,0.0
1115,72.0,2,53,1.0,0.0
1116,60.0,0,53,4.0,0.0
1117,48.0,0,53,4.0,0.0
1118,63.0,0,53,2.0,0.0
1119,72.0,1,53,2.0,0.0
1120,63.0,36,53,3.0,0.0
1121,60.0,0,53,3.0,0.0
1122,83.0,2,34,10.0,0.0
1123,55.0,0,34,10.0,0.0
1124,74.0,0,34,10.0,0.0
1125,67.0,0,34,10.0,0.0
1126,71.0,0,34,11.0,0.0
1127,62.0,0,34,11.0,0.0
1128,79.0,1,34,11.0,0.0
1129,55.0,0,34,11.0,0.0
1130,59.0,0,34,12.0,0.0
1131,62.0,0,34,12.0,0.0
1132,53.0,3,34,13.0,0.0
1133,55.0,1,45,6.0,0.0
1134,67.0,0,45,6.0,0.0
1135,59.0,0,45,7.0,0.0
1136,53.0,3,45,8.0,0.0
1137,41.0,8,34,14.0,0.0
1138,55.0,15,45,7.0,0.0
1139,43.0,38,60,15.0,0.0
1140,86.0,1,53,0.0,0.0
1141,83.0,0,53,0.0,0.0
1142,55.0,0,53,4.0,0.0
1143,71.0,2,53,1.0,0.0
1144,74.0,0,53,1.0,0.0
1145,43.0,0,53,4.0,0.0
1146,62.0,0,53,2.0,0.0
1147,71.0,0,53,2.0,0.0
1148,59.0,0,53,3.0,0.0
1149,62.0,1,53,3.0,0.0
1150,65.0,2,15,10.0,0.0
1151,65.0,1,15,11.0,0.0
1152,65.0,0,15,12.0,0.0
1153,53.0,3,15,13.0,0.0
1154,41.0,3,15,14.0,0.0
1155,62.0,1,12,10.0,0.0
1156,62.0,1,12,11.0,0.0
1157,62.0,3,12,12.0,0.0
1158,50.0,0,12,13.0,0.0
1159,38.0,27,12,14.0,0.0
1160,59.0,2,30,10.0,0.0
1161,59.0,1,30,11.0,0.0
1162,47.0,3,30,13.0,0.0
1163,59.0,0,30,12.0,0.0
1164,67.0,0,45,6.0,0.0
1165,55.0,1,45,6.0,0.0
1166,47.0,3,45,8.0,0.0
1167,65.0,0,45,7.0,0.0
1168,35.0,12,30,14.0,0.0
1169,62.0,15,45,7.0,0.0
1170,43.0,38,60,15.0,0.0
1171,86.0,0,53,0.0,0.0
1172,89.0,1,53,0.0,0.0
1173,74.0,0,53,1.0,0.0
1174,77.0,0,53,1.0,0.0
1175,43.0,0,53,4.0,0.0
1176,55.0,2,53,4.0,0.0
1177,65.0,0,53,2.0,0.0
1178,74.0,0,53,2.0,0.0
1179,59.0,0,53,3.0,0.0
1180,62.0,1,53,3.0,0.0
1181,62.0,2,15,10.0,0.0
1182,62.0,1,15,11.0,0.0
1183,50.0,0,15,13.0,0.0
1184,62.0,3,15,12.0,0.0
1185,38.0,3,15,14.0,0.0
1186,59.0,1,12,10.0,0.0
1187,59.0,1,12,11.0,0.0
1188,59.0,0,12,12.0,0.0
1189,47.0,3,12,13.0,0.0
1190,35.0,27,12,14.0,0.0
1191,55.0,2,30,10.0,0.0
1192,55.0,1,30,11.0,0.0
1193,55.0,0,30,12.0,0.0
1194,55.0,0,45,6.0,0.0
1195,43.0,3,30,13.0,0.0
1196,67.0,1,45,6.0,0.0
1197,43.0,0,45,8.0,0.0
1198,65.0,3,45,7.0,0.0
1199,31.0,12,30,14.0,0.0
1200,62.0,15,45,7.0,0.0
1201,43.0,39,60,15.0,0.0
1202,86.0,0,45,0.0,0.0
1203,89.0,1,45,0.0,0.0
1204,77.0,0,45,1.0,0.0
1205,74.0,2,45,1.0,0.0
1206,43.0,54,50,4.0,0.0
1207,55.0,0,50,4.0,0.0
1208,74.0,0,45,2.0,0.0
1209,65.0,1,45,2.0,0.0
1210,59.0,2,45,3.0,0.0
1211,62.0,0,45,3.0,0.0
1212,89.0,1,45,0.0,0.0
1213,86.0,0,45,0.0,0.0
1214,77.0,0,45,1.0,0.0
1215,74.0,2,45,1.0,0.0
1216,74.0,0,45,2.0,0.0
1217,65.0,1,45,2.0,0.0
1218,59.0,56,45,3.0,0.0
1219,62.0,0,45,3.0,0.0
1220,86.0,0,45,0.0,0.0
1221,89.0,1,45,0.0,0.0
1222,74.0,0,45,1.0,0.0
1223,77.0,2,45,1.0,0.0
1224,74.0,0,45,2.0,0.0
1225,65.0,1,45,2.0,0.0
1226,62.0,0,45,3.0,0.0
1227,59.0,71,45,3.0,0.0
1228,86.0,1,60,0.0,0.0
1229,89.0,1,210,0.0,0.0
1230,74.0,2,60,1.0,0.0
1231,77.0,29,210,1.0,0.0
1232,43.0,0,420,4.0,0.0
1233,55.0,0,420,4.0,0.0
1234,65.0,1,60,2.0,0.0
1235,74.0,0,60,2.0,0.0
1236,59.0,60,60,3.0,0.0
1237,62.0,0,60,3.0,0.0
1238,43.0,60,60,3.0,0.0
1239,47.0,0,60,3.0,0.0
1240,47.0,26,60,3.0,0.0
1241,50.0,0,0,3.0,0.0
1242,53.0,0,60,3.0,0.0
1243,76.0,3,30,1.0,0.0
1244,88.0,1,0,0.0,0.0
1245,76.0,29,30,1.0,0.0
1246,59.0,0,60,3.0,0.0
1247,55.0,30,60,3.0,0.0
1248,86.0,1,30,0.0,0.0
1249,74.0,3,30,1.0,0.0
1250,59.0,0,30,3.0,0.0
1251,62.0,26,30,3.0,0.0
1252,84.0,1,30,0.0,0.0
1253,72.0,3,30,1.0,0.0
1254,71.0,1,5,0.0,0.0
1255,71.0,4,5,1.0,0.0
1256,43.0,3,75,13.0,0.0
1257,60.0,0,0,3.0,0.0
1258,64.0,1,0,3.0,0.0
1259,72.0,1,5,0.0,0.0
1260,31.0,14,75,14.0,0.0
1261,72.0,4,5,1.0,0.0
1262,74.0,1,5,0.0,0.0
1263,74.0,44,5,1.0,0.0
1264,72.0,1,45,0.0,0.0
1265,72.0,3,45,1.0,0.0
1266,65.0,2,45,10.0,0.0
1267,55.0,0,45,10.0,0.0
1268,71.0,1,60,0.0,0.0
1269,62.0,1,45,11.0,0.0
1270,71.0,3,60,1.0,0.0
1271,59.0,7,45,12.0,0.0
1272,62.0,0,60,3.0,0.0
1273,65.0,18,60,3.0,0.0
1274,47.0,3,12,13.0,0.0
1275,35.0,7,12,14.0,0.0
1276,50.0,3,12,13.0,0.0
1277,38.0,3,12,14.0,0.0
1278,55.0,0,45,10.0,0.0
1279,65.0,2,45,10.0,0.0
1280,62.0,1,45,11.0,0.0
1281,59.0,7,45,12.0,0.0
1282,53.0,3,20,13.0,0.0
1283,41.0,15,20,14.0,0.0
1284,52.0,3,18,13.0,0.0
1285,40.0,1,18,14.0,0.0
1286,55.0,3,12,13.0,0.0
1287,43.0,17,12,14.0,0.0
1288,65.0,0,45,10.0,0.0
1289,55.0,2,45,10.0,0.0
1290,62.0,1,45,11.0,0.0
1291,59.0,7,45,12.0,0.0
1292,53.0,3,12,13.0,0.0
1293,41.0,17,12,14.0,0.0
1294,57.0,3,12,13.0,0.0
1295,45.0,7,12,14.0,0.0
1296,53.0,3,12,13.0,0.0
1297,41.0,17,12,14.0,0.0
1298,55.0,2,45,10.0,0.0
1299,65.0,0,45,10.0,0.0
1300,62.0,1,45,11.0,0.0
1301,59.0,7,45,12.0,0.0
1302,50.0,3,12,13.0,0.0
1303,38.0,17,12,14.0,0.0
1304,53.0,3,12,13.0,0.0
1305,41.0,7,12,14.0,0.0
1306,50.0,3,12,13.0,0.0
1307,38.0,17,12,14.0,0.0
1308,55.0,2,45,10.0,0.0
1309,65.0,0,45,10.0,0.0
1310,62.0,1,45,11.0,0.0
1311,59.0,7,45,12.0,0.0
1312,47.0,3,12,13.0,0.0
1313,35.0,17,12,14.0,0.0
1314,50.0,3,12,13.0,0.0
1315,38.0,7,12,14.0,0.0
1316,47.0,3,12,13.0,0.0
1317,35.0,62,12,14.0,0.0
1318,65.0,2,60,10.0,0.0
1319,55.0,0,60,10.0,0.0
1320,89.0,0,210,0.0,0.0
1321,93.0,1,210,0.0,0.0
1322,62.0,1,60,11.0,0.0
1323,55.0,0,420,4.0,0.0
1324,77.0,29,210,1.0,0.0
1325,81.0,0,210,1.0,0.0
1326,43.0,3,420,4.0,0.0
1327,43.0,3,60,13.0,0.0
1328,59.0,0,60,12.0,0.0
1329,31.0,59,60,14.0,0.0
1330,47.0,0,60,3.0,0.0
1331,50.0,60,0,3.0,0.0
1332,53.0,0,60,3.0,0.0
1333,59.0,0,60,3.0,0.0
1334,53.0,26,60,3.0,0.0
1335,79.0,0,30,1.0,0.0
1336,88.0,1,0,0.0,0.0
1337,91.0,0,0,0.0,0.0
1338,76.0,3,0,1.0,0.0
1339,79.0,0,30,1.0,0.0
1340,62.0,0,60,3.0,0.0
1341,59.0,30,60,3.0,0.0
1342,89.0,1,30,0.0,0.0
1343,86.0,0,30,0.0,0.0
1344,77.0,3,30,1.0,0.0
1345,74.0,0,30,1.0,0.0
1346,65.0,0,30,3.0,0.0
1347,62.0,18,30,3.0,0.0
1348,84.0,0,22,0.0,0.0
1349,88.0,1,22,0.0,0.0
1350,76.0,0,22,1.0,0.0
1351,72.0,7,22,1.0,0.0
1352,67.0,0,30,3.0,0.0
1353,64.0,1,30,3.0,0.0
1354,86.0,1,5,0.0,0.0
1355,83.0,0,5,0.0,0.0
1356,71.0,3,5,1.0,0.0
1357,74.0,0,5,1.0,0.0
1358,88.0,1,5,0.0,0.0
1359,84.0,0,5,0.0,0.0
1360,72.0,0,5,1.0,0.0
1361,76.0,4,5,1.0,0.0
1362,43.0,3,75,13.0,0.0
1363,67.0,0,90,3.0,0.0
1364,64.0,13,60,3.0,0.0
1365,31.0,10,75,14.0,0.0
1366,86.0,0,5,0.0,0.0
1367,89.0,1,5,0.0,0.0
1368,74.0,0,5,1.0,0.0
1369,77.0,44,5,1.0,0.0
1370,84.0,1,45,0.0,0.0
1371,88.0,0,45,0.0,0.0
1372,76.0,0,45,1.0,0.0
1373,72.0,5,45,1.0,0.0
1374,65.0,2,45,10.0,0.0
1375,55.0,0,45,10.0,0.0
1376,86.0,1,30,0.0,0.0
1377,83.0,0,30,0.0,0.0
1378,71.0,3,30,1.0,0.0
1379,62.0,1,45,11.0,0.0
1380,74.0,0,30,1.0,0.0
1381,59.0,7,45,12.0,0.0
1382,65.0,0,30,3.0,0.0
1383,47.0,3,12,13.0,0.0
1384,35.0,7,12,14.0,0.0
1385,50.0,3,12,13.0,0.0
1386,38.0,25,12,14.0,0.0
1387,65.0,0,45,10.0,0.0
1388,55.0,0,45,10.0,0.0
1389,62.0,1,45,11.0,0.0
1390,53.0,3,20,13.0,0.0
1391,59.0,0,45,12.0,0.0
1392,41.0,19,20,14.0,0.0
1393,52.0,2,22,13.0,0.0
1394,40.0,7,22,14.0,0.0
1395,55.0,3,12,13.0,0.0
1396,43.0,17,12,14.0,0.0
1397,55.0,2,45,10.0,0.0
1398,65.0,0,45,10.0,0.0
1399,62.0,1,45,11.0,0.0
1400,53.0,3,12,13.0,0.0
1401,59.0,7,45,12.0,0.0
1402,41.0,17,12,14.0,0.0
1403,57.0,3,12,13.0,0.0
1404,45.0,7,12,14.0,0.0
1405,53.0,3,12,13.0,0.0
1406,41.0,17,12,14.0,0.0
1407,55.0,0,45,10.0,0.0
1408,65.0,2,45,10.0,0.0
1409,62.0,1,45,11.0,0.0
1410,50.0,3,12,13.0,0.0
1411,59.0,7,45,12.0,0.0
1412,38.0,17,12,14.0,0.0
1413,53.0,3,12,13.0,0.0
1414,41.0,7,12,14.0,0.0
1415,50.0,3,12,13.0,0.0
1416,38.0,17,12,14.0,0.0
1417,65.0,0,45,10.0,0.0
1418,55.0,2,45,10.0,0.0
1419,62.0,1,45,11.0,0.0
1420,47.0,3,12,13.0,0.0
1421,59.0,0,45,12.0,0.0
1422,35.0,10,12,14.0,0.0
1423,86.0,1,7,0.0,0.0
1424,89.0,0,7,0.0,0.0
1425,74.0,7,7,1.0,0.0
1426,77.0,0,7,1.0,0.0
1427,50.0,3,12,13.0,0.0
1428,38.0,6,12,14.0,0.0
1429,86.0,1,7,0.0,0.0
1430,89.0,0,7,0.0,0.0
1431,74.0,5,7,1.0,0.0
1432,77.0,0,7,1.0,0.0
1433,47.0,3,10,13.0,0.0
1434,35.0,61,10,14.0,0.0
1435,55.0,0,60,10.0,0.0
1436,65.0,2,60,10.0,0.0
1437,86.0,1,57,0.0,0.0
1438,89.0,0,57,0.0,0.0
1439,74.0,1,57,1.0,0.0
1440,77.0,0,57,1.0,0.0
1441,62.0,1,60,11.0,0.0
1442,59.0,60,60,12.0,0.0
1443,43.0,3,120,13.0,0.0
1444,31.0,117,120,14.0,0.0
1445,45.0,3,120,13.0,0.0
1446,33.0,114,120,14.0,0.0
1447,47.0,3,117,13.0,0.0
1448,35.0,42,117,14.0,0.0
1449,60.0,12,120,10.0,0.0
1450,48.0,60,40,12.0,0.0
1451,48.0,3,120,13.0,0.0
1452,36.0,30,120,14.0,0.0
1453,48.0,15,40,12.0,0.0
1454,64.0,12,240,10.0,0.0
1455,48.0,60,40,12.0,0.0
1456,52.0,33,240,13.0,0.0
1457,48.0,60,40,12.0,0.0
1458,48.0,60,40,12.0,0.0
1459,48.0,15,40,12.0,0.0
1460,67.0,5,120,10.0,0.0
1461,48.0,60,40,12.0,0.0
1462,55.0,33,120,13.0,0.0
1463,36.0,7,110,14.0,0.0
1464,48.0,15,40,12.0,0.0
1465,69.0,2,360,10.0,0.0
1466,48.0,60,40,12.0,0.0
1467,57.0,43,350,13.0,0.0
1468,36.0,30,120,14.0,0.0
1469,48.0,30,40,12.0,0.0
1470,48.0,60,40,12.0,0.0
1471,48.0,60,40,12.0,0.0
1472,48.0,60,40,12.0,0.0
1473,48.0,15,40,12.0,0.0
1474,67.0,12,110,10.0,0.0
1475,48.0,60,40,12.0,0.0
1476,55.0,3,110,13.0,0.0
1477,36.0,40,110,14.0,0.0
1478,48.0,5,40,12.0,0.0
1479,64.0,12,120,10.0,0.0
1480,48.0,60,40,12.0,0.0
1481,52.0,3,120,13.0,0.0
1482,36.0,30,120,14.0,0.0
1483,48.0,15,40,12.0,0.0
1484,60.0,12,110,10.0,0.0
1485,48.0,60,40,12.0,0.0
1486,48.0,43,110,13.0,0.0
1487,48.0,5,40,12.0,0.0
1488,57.0,12,60,10.0,0.0
1489,48.0,15,40,12.0,0.0
1490,45.0,33,60,13.0,0.0
1491,48.0,60,40,12.0,0.0
1492,55.0,12,60,10.0,0.0
1493,48.0,15,40,12.0,0.0
1494,43.0,33,60,13.0,0.0
1495,36.0,40,110,14.0,0.0
1496,48.0,20,40,12.0,0.0
1497,55.0,12,120,10.0,0.0
1498,48.0,60,40,12.0,0.0
1499,43.0,3,120,13.0,0.0
1500,36.0,30,120,14.0,0.0
1501,48.0,15,40,12.0,0.0
1502,48.0,60,40,12.0,0.0
1503,48.0,60,40,12.0,0.0
1504,48.0,60,40,12.0,0.0
1505,48.0,60,40,12.0,0.0
1506,48.0,60,40,12.0,0.0
1507,36.0,40,110,14.0,0.0
1508,48.0,20,40,12.0,0.0
1509,64.0,12,120,10.0,0.0
1510,48.0,0,40,12.0,0.0
1511,52.0,60,40,12.0,0.0
1512,52.0,3,120,13.0,0.0
1513,36.0,30,120,14.0,0.0
1514,48.0,15,40,12.0,0.0
1515,52.0,0,40,12.0,0.0
1516,67.0,12,240,10.0,0.0
1517,52.0,0,40,12.0,0.0
1518,48.0,60,40,12.0,0.0
1519,55.0,33,240,13.0,0.0
1520,48.0,60,40,12.0,0.0
1521,52.0,0,40,12.0,0.0
1522,48.0,60,40,12.0,0.0
1523,52.0,0,40,12.0,0.0
1524,48.0,0,40,12.0,0.0
1525,52.0,15,40,12.0,0.0
1526,72.0,2,120,10.0,0.0
1527,48.0,60,40,12.0,0.0
1528,52.0,0,40,12.0,0.0
1529,60.0,3,110,13.0,0.0
1530,36.0,40,110,14.0,0.0
1531,48.0,0,40,12.0,0.0
1532,52.0,15,40,12.0,0.0
1533,74.0,2,360,10.0,0.0
1534,52.0,0,40,12.0,0.0
1535,48.0,60,40,12.0,0.0
1536,62.0,43,350,13.0,0.0
1537,36.0,30,120,14.0,0.0
1538,48.0,30,40,12.0,0.0
1539,52.0,0,40,12.0,0.0
1540,52.0,0,40,12.0,0.0
1541,48.0,60,40,12.0,0.0
1542,48.0,0,40,12.0,0.0
1543,52.0,60,40,12.0,0.0
1544,48.0,60,40,12.0,0.0
1545,52.0,0,40,12.0,0.0
1546,52.0,15,40,12.0,0.0
1547,48.0,0,40,12.0,0.0
1548,72.0,2,110,10.0,0.0
1549,48.0,0,40,12.0,0.0
1550,52.0,60,40,12.0,0.0
1551,60.0,13,100,13.0,0.0
1552,36.0,40,110,14.0,0.0
1553,52.0,0,40,12.0,0.0
1554,48.0,5,40,12.0,0.0
1555,67.0,12,120,10.0,0.0
1556,48.0,0,40,12.0,0.0
1557,52.0,60,40,12.0,0.0
1558,55.0,3,120,13.0,0.0
1559,36.0,30,120,14.0,0.0
1560,52.0,15,40,12.0,0.0
1561,48.0,0,40,12.0,0.0
1562,64.0,12,110,10.0,0.0
1563,52.0,0,40,12.0,0.0
1564,48.0,60,40,12.0,0.0
1565,52.0,43,110,13.0,0.0
1566,48.0,5,40,12.0,0.0
1567,52.0,0,40,12.0,0.0
1568,62.0,12,60,10.0,0.0
1569,48.0,15,40,12.0,0.0
1570,52.0,0,40,12.0,0.0
1571,50.0,33,60,13.0,0.0
1572,48.0,60,40,12.0,0.0
1573,52.0,0,40,12.0,0.0
1574,60.0,12,60,10.0,0.0
1575,52.0,0,40,12.0,0.0
1576,48.0,15,40,12.0,0.0
1577,48.0,33,60,13.0,0.0
1578,36.0,40,110,14.0,0.0
1579,48.0,20,40,12.0,0.0
1580,52.0,0,40,12.0,0.0
1581,60.0,12,120,10.0,0.0
1582,48.0,60,40,12.0,0.0
1583,52.0,0,40,12.0,0.0
1584,48.0,3,120,13.0,0.0
1585,36.0,30,120,14.0,0.0
1586,52.0,15,40,12.0,0.0
1587,48.0,0,40,12.0,0.0
1588,52.0,0,40,12.0,0.0
1589,48.0,60,40,12.0,0.0
1590,48.0,0,40,12.0,0.0
1591,52.0,60,40,12.0,0.0
1592,52.0,0,40,12.0,0.0
1593,48.0,60,40,12.0,0.0
1594,52.0,0,40,12.0,0.0
1595,48.0,60,40,12.0,0.0
1596,52.0,60,40,12.0,0.0
1597,48.0,0,40,12.0,0.0
1598,36.0,40,110,14.0,0.0
1599,52.0,0,40,12.0,0.0
1600,48.0,20,40,12.0,0.0
1601,62.0,12,120,10.0,0.0
1602,50.0,60,40,12.0,0.0
1603,53.0,0,40,12.0,0.0
1604,50.0,3,120,13.0,0.0
1605,36.0,30,120,14.0,0.0
1606,53.0,15,40,12.0,0.0
1607,50.0,0,40,12.0,0.0
1608,65.0,12,240,10.0,0.0
1609,53.0,0,40,12.0,0.0
1610,50.0,60,40,12.0,0.0
1611,53.0,33,240,13.0,0.0
1612,53.0,60,40,12.0,0.0
1613,50.0,0,40,12.0,0.0
1614,53.0,0,40,12.0,0.0
1615,50.0,60,40,12.0,0.0
1616,50.0,15,40,12.0,0.0
1617,53.0,0,40,12.0,0.0
1618,71.0,5,120,10.0,0.0
1619,50.0,60,40,12.0,0.0
1620,53.0,0,40,12.0,0.0
1621,59.0,33,120,13.0,0.0
1622,36.0,7,110,14.0,0.0
1623,53.0,0,40,12.0,0.0
1624,50.0,15,40,12.0,0.0
1625,72.0,12,360,10.0,0.0
1626,50.0,0,40,12.0,0.0
1627,53.0,60,40,12.0,0.0
1628,60.0,33,360,13.0,0.0
1629,36.0,30,120,14.0,0.0
1630,50.0,0,40,12.0,0.0
1631,53.0,30,40,12.0,0.0
1632,53.0,0,40,12.0,0.0
1633,50.0,60,40,12.0,0.0
1634,53.0,0,40,12.0,0.0
1635,50.0,60,40,12.0,0.0
1636,50.0,0,40,12.0,0.0
1637,53.0,60,40,12.0,0.0
1638,53.0,0,40,12.0,0.0
1639,50.0,15,40,12.0,0.0
1640,71.0,12,110,10.0,0.0
1641,53.0,60,40,12.0,0.0
1642,50.0,0,40,12.0,0.0
1643,59.0,3,110,13.0,0.0
1644,36.0,40,110,14.0,0.0
1645,50.0,0,40,12.0,0.0
1646,53.0,5,40,12.0,0.0
1647,65.0,12,120,10.0,0.0
1648,50.0,0,40,12.0,0.0
1649,53.0,60,40,12.0,0.0
1650,53.0,3,120,13.0,0.0
1651,36.0,30,120,14.0,0.0
1652,53.0,0,40,12.0,0.0
1653,50.0,15,40,12.0,0.0
1654,71.0,12,240,10.0,0.0
1655,50.0,0,40,12.0,0.0
1656,53.0,60,40,12.0,0.0
1657,59.0,33,240,13.0,0.0
1658,50.0,60,40,12.0,0.0
1659,53.0,0,40,12.0,0.0
1660,53.0,60,40,12.0,0.0
1661,50.0,0,40,12.0,0.0
1662,50.0,0,40,12.0,0.0
1663,53.0,15,40,12.0,0.0
1664,74.0,5,120,10.0,0.0
1665,53.0,0,40,12.0,0.0
1666,50.0,60,40,12.0,0.0
1667,62.0,33,120,13.0,0.0
1668,36.0,7,110,14.0,0.0
1669,53.0,0,40,12.0,0.0
1670,50.0,15,40,12.0,0.0
1671,76.0,12,360,10.0,0.0
1672,53.0,60,40,12.0,0.0
1673,50.0,0,40,12.0,0.0
1674,64.0,33,360,13.0,0.0
1675,36.0,30,120,14.0,0.0
1676,50.0,30,40,12.0,0.0
1677,53.0,0,40,12.0,0.0
1678,53.0,60,40,12.0,0.0
1679,50.0,0,40,12.0,0.0
1680,50.0,60,40,12.0,0.0
1681,53.0,0,40,12.0,0.0
1682,50.0,60,40,12.0,0.0
1683,53.0,0,40,12.0,0.0
1684,53.0,0,40,12.0,0.0
1685,50.0,15,40,12.0,0.0
1686,74.0,12,110,10.0,0.0
1687,50.0,60,40,12.0,0.0
1688,53.0,0,40,12.0,0.0
1689,62.0,3,110,13.0,0.0
1690,36.0,40,110,14.0,0.0
1691,53.0,5,40,12.0,0.0
1692,50.0,0,40,12.0,0.0
1693,62.0,12,120,10.0,0.0
1694,83.0,3,345,0.0,0.0
1695,55.0,0,345,4.0,0.0
1696,77.0,0,345,1.0,0.0
1697,74.0,0,345,1.0,0.0
1698,48.0,1,345,4.0,0.0
1699,50.0,60,40,12.0,0.0
1700,53.0,0,40,12.0,0.0
1701,71.0,0,345,2.0,0.0
1702,65.0,8,345,2.0,0.0
1703,50.0,3,120,13.0,0.0
1704,59.0,0,345,3.0,0.0
1705,53.0,3,345,3.0,0.0
1706,36.0,30,120,14.0,0.0
1707,50.0,15,40,12.0,0.0
1708,53.0,0,40,12.0,0.0
1709,65.0,1,230,10.0,0.0
1710,53.0,0,40,12.0,0.0
1711,50.0,60,40,12.0,0.0
1712,53.0,43,230,13.0,0.0
1713,50.0,60,40,12.0,0.0
1714,53.0,0,40,12.0,0.0
1715,53.0,0,40,12.0,0.0
1716,50.0,60,40,12.0,0.0
1717,50.0,1,40,12.0,0.0
1718,53.0,0,40,12.0,0.0
1719,71.0,12,60,10.0,0.0
1720,83.0,3,105,0.0,0.0
1721,55.0,0,105,4.0,0.0
1722,74.0,2,105,1.0,0.0
1723,48.0,0,105,4.0,0.0
1724,77.0,0,105,1.0,0.0
1725,50.0,15,40,12.0,0.0
1726,53.0,0,40,12.0,0.0
1727,65.0,8,105,2.0,0.0
1728,71.0,0,105,2.0,0.0
1729,59.0,33,60,13.0,0.0
1730,59.0,6,105,3.0,0.0
1731,53.0,0,105,3.0,0.0
1732,36.0,40,110,14.0,0.0
1733,53.0,1,40,12.0,0.0
1734,50.0,0,40,12.0,0.0
1735,65.0,12,120,10.0,0.0
1736,83.0,3,345,0.0,0.0
1737,48.0,0,345,4.0,0.0
1738,74.0,0,345,1.0,0.0
1739,77.0,1,345,1.0,0.0
1740,55.0,0,345,4.0,0.0
1741,50.0,60,40,12.0,0.0
1742,53.0,0,40,12.0,0.0
1743,71.0,8,345,2.0,0.0
1744,65.0,0,345,2.0,0.0
1745,53.0,3,120,13.0,0.0
1746,59.0,0,345,3.0,0.0
1747,53.0,3,345,3.0,0.0
1748,36.0,30,120,14.0,0.0
1749,53.0,0,40,12.0,0.0
1750,50.0,15,40,12.0,0.0
1751,71.0,1,230,10.0,0.0
1752,53.0,0,40,12.0,0.0
1753,50.0,60,40,12.0,0.0
1754,59.0,43,230,13.0,0.0
1755,53.0,60,40,12.0,0.0
1756,50.0,0,40,12.0,0.0
1757,53.0,0,40,12.0,0.0
1758,50.0,60,40,12.0,0.0
1759,53.0,1,40,12.0,0.0
1760,50.0,0,40,12.0,0.0
1761,74.0,12,60,10.0,0.0
1762,83.0,3,105,0.0,0.0
1763,48.0,0,105,4.0,0.0
1764,55.0,0,105,4.0,0.0
1765,74.0,2,105,1.0,0.0
1766,77.0,0,105,1.0,0.0
1767,53.0,15,40,12.0,0.0
1768,50.0,0,40,12.0,0.0
1769,71.0,0,105,2.0,0.0
1770,65.0,8,105,2.0,0.0
1771,62.0,33,60,13.0,0.0
1772,53.0,6,105,3.0,0.0
1773,59.0,0,105,3.0,0.0
1774,36.0,40,110,14.0,0.0
1775,50.0,0,40,12.0,0.0
1776,53.0,1,40,12.0,0.0
1777,65.0,12,120,10.0,0.0
1778,83.0,3,345,0.0,0.0
1779,74.0,0,345,1.0,0.0
1780,77.0,0,345,1.0,0.0
1781,55.0,0,345,4.0,0.0
1782,48.0,1,345,4.0,0.0
1783,50.0,0,40,12.0,0.0
1784,53.0,60,40,12.0,0.0
1785,71.0,0,345,2.0,0.0
1786,65.0,8,345,2.0,0.0
1787,53.0,3,120,13.0,0.0
1788,59.0,0,345,3.0,0.0
1789,53.0,3,345,3.0,0.0
1790,36.0,30,120,14.0,0.0
1791,53.0,15,40,12.0,0.0
1792,50.0,0,40,12.0,0.0
1793,71.0,1,230,10.0,0.0
1794,50.0,60,40,12.0,0.0
1795,53.0,0,40,12.0,0.0
1796,59.0,43,230,13.0,0.0
1797,53.0,0,40,12.0,0.0
1798,50.0,60,40,12.0,0.0
1799,53.0,0,40,12.0,0.0
1800,50.0,60,40,12.0,0.0
1801,50.0,1,40,12.0,0.0
1802,53.0,0,40,12.0,0.0
1803,74.0,12,60,10.0,0.0
1804,83.0,3,105,0.0,0.0
1805,48.0,0,105,4.0,0.0
1806,74.0,0,105,1.0,0.0
1807,77.0,2,105,1.0,0.0
1808,55.0,0,105,4.0,0.0
1809,53.0,0,40,12.0,0.0
1810,50.0,15,40,12.0,0.0
1811,71.0,0,105,2.0,0.0
1812,65.0,8,105,2.0,0.0
1813,62.0,33,60,13.0,0.0
1814,53.0,0,105,3.0,0.0
1815,59.0,6,105,3.0,0.0
1816,36.0,40,110,14.0,0.0
1817,50.0,1,40,12.0,0.0
1818,53.0,0,40,12.0,0.0
1819,71.0,12,120,10.0,0.0
1820,83.0,3,345,0.0,0.0
1821,74.0,0,345,1.0,0.0
1822,77.0,1,345,1.0,0.0
1823,55.0,0,345,4.0,0.0
1824,48.0,0,345,4.0,0.0
1825,53.0,60,40,12.0,0.0
1826,50.0,0,40,12.0,0.0
1827,65.0,0,345,2.0,0.0
1828,71.0,8,345,2.0,0.0
1829,59.0,3,120,13.0,0.0
1830,53.0,3,345,3.0,0.0
1831,59.0,0,345,3.0,0.0
1832,36.0,30,120,14.0,0.0
1833,50.0,0,40,12.0,0.0
1834,53.0,15,40,12.0,0.0
1835,74.0,1,230,10.0,0.0
1836,50.0,60,40,12.0,0.0
1837,53.0,0,40,12.0,0.0
1838,62.0,43,230,13.0,0.0
1839,53.0,60,40,12.0,0.0
1840,50.0,0,40,12.0,0.0
1841,53.0,0,40,12.0,0.0
1842,50.0,60,40,12.0,0.0
1843,50.0,0,40,12.0,0.0
1844,53.0,1,40,12.0,0.0
1845,77.0,12,60,10.0,0.0
1846,83.0,3,105,0.0,0.0
1847,74.0,0,105,1.0,0.0
1848,48.0,2,105,4.0,0.0
1849,77.0,0,105,1.0,0.0
1850,55.0,0,105,4.0,0.0
1851,50.0,0,40,12.0,0.0
1852,53.0,15,40,12.0,0.0
1853,71.0,0,105,2.0,0.0
1854,65.0,8,105,2.0,0.0
1855,65.0,33,60,13.0,0.0
1856,53.0,0,105,3.0,0.0
1857,59.0,6,105,3.0,0.0
1858,36.0,40,110,14.0,0.0
1859,53.0,0,40,12.0,0.0
1860,50.0,1,40,12.0,0.0
1861,71.0,2,120,10.0,0.0
1862,83.0,3,345,0.0,0.0
1863,59.0,10,120,11.0,0.0
1864,74.0,0,345,1.0,0.0
1865,77.0,1,345,1.0,0.0
1866,48.0,0,345,4.0,0.0
1867,55.0,0,345,4.0,0.0
1868,50.0,60,40,12.0,0.0
1869,53.0,0,40,12.0,0.0
1870,71.0,1,345,2.0,0.0
1871,65.0,0,345,2.0,0.0
1872,48.0,3,120,13.0,0.0
1873,53.0,46,345,3.0,0.0
1874,59.0,0,345,3.0,0.0
1875,36.0,30,120,14.0,0.0
1876,53.0,0,40,12.0,0.0
1877,50.0,15,40,12.0,0.0
1878,74.0,1,230,10.0,0.0
1879,62.0,7,230,11.0,0.0
1880,50.0,0,40,12.0,0.0
1881,53.0,60,40,12.0,0.0
1882,53.0,60,40,12.0,0.0
1883,50.0,0,40,12.0,0.0
1884,50.0,0,40,12.0,0.0
1885,53.0,60,40,12.0,0.0
1886,50.0,1,40,12.0,0.0
1887,53.0,0,40,12.0,0.0
1888,77.0,2,60,10.0,0.0
1889,83.0,3,105,0.0,0.0
1890,65.0,43,60,11.0,0.0
1891,48.0,0,105,4.0,0.0
1892,55.0,0,105,4.0,0.0
1893,74.0,2,105,1.0,0.0
1894,77.0,0,105,1.0,0.0
1895,53.0,15,40,12.0,0.0
1896,50.0,0,40,12.0,0.0
1897,65.0,8,105,2.0,0.0
1898,71.0,0,105,2.0,0.0
1899,48.0,3,110,13.0,0.0
1900,53.0,0,105,3.0,0.0
1901,59.0,3,105,3.0,0.0
1902,36.0,40,110,14.0,0.0
1903,53.0,0,40,12.0,0.0
1904,50.0,1,40,12.0,0.0
1905,74.0,2,120,10.0,0.0
1906,83.0,0,345,0.0,0.0
1907,86.0,3,345,0.0,0.0
1908,62.0,10,120,11.0,0.0
1909,77.0,1,345,1.0,0.0
1910,74.0,0,345,1.0,0.0
1911,55.0,0,345,4.0,0.0
1912,48.0,0,345,4.0,0.0
1913,53.0,60,40,12.0,0.0
1914,50.0,0,40,12.0,0.0
1915,71.0,1,345,2.0,0.0
1916,65.0,0,345,2.0,0.0
1917,48.0,3,120,13.0,0.0
1918,59.0,0,345,3.0,0.0
1919,53.0,46,345,3.0,0.0
1920,36.0,30,120,14.0,0.0
1921,53.0,15,40,12.0,0.0
1922,50.0,0,40,12.0,0.0
1923,77.0,1,230,10.0,0.0
1924,65.0,7,230,11.0,0.0
1925,53.0,60,40,12.0,0.0
1926,50.0,0,40,12.0,0.0
1927,50.0,0,40,12.0,0.0
1928,53.0,60,40,12.0,0.0
1929,53.0,0,40,12.0,0.0
1930,50.0,60,40,12.0,0.0
1931,53.0,1,40,12.0,0.0
1932,50.0,0,40,12.0,0.0
1933,83.0,2,60,10.0,0.0
1934,86.0,3,105,0.0,0.0
1935,83.0,0,105,0.0,0.0
1936,71.0,43,60,11.0,0.0
1937,55.0,0,105,4.0,0.0
1938,74.0,0,105,1.0,0.0
1939,77.0,2,105,1.0,0.0
1940,48.0,0,105,4.0,0.0
1941,53.0,0,40,12.0,0.0
1942,50.0,15,40,12.0,0.0
1943,65.0,8,105,2.0,0.0
1944,71.0,0,105,2.0,0.0
1945,48.0,3,110,13.0,0.0
1946,53.0,0,105,3.0,0.0
1947,59.0,3,105,3.0,0.0
1948,36.0,40,110,14.0,0.0
1949,53.0,1,40,12.0,0.0
1950,50.0,0,40,12.0,0.0
1951,74.0,2,120,10.0,0.0
1952,86.0,0,345,0.0,0.0
1953,83.0,3,345,0.0,0.0
1954,62.0,10,120,11.0,0.0
1955,55.0,0,345,4.0,0.0
1956,48.0,0,345,4.0,0.0
1957,77.0,1,345,1.0,0.0
1958,74.0,0,345,1.0,0.0
1959,50.0,0,40,12.0,0.0
1960,59.0,60,40,12.0,0.0
1961,71.0,0,345,2.0,0.0
1962,65.0,1,345,2.0,0.0
1963,48.0,3,120,13.0,0.0
1964,53.0,46,345,3.0,0.0
1965,59.0,0,345,3.0,0.0
1966,36.0,30,120,14.0,0.0
1967,50.0,15,40,12.0,0.0
1968,59.0,0,40,12.0,0.0
1969,77.0,1,230,10.0,0.0
1970,65.0,7,230,11.0,0.0
1971,59.0,0,40,12.0,0.0
1972,50.0,60,40,12.0,0.0
1973,50.0,60,40,12.0,0.0
1974,59.0,0,40,12.0,0.0
1975,50.0,60,40,12.0,0.0
1976,59.0,0,40,12.0,0.0
1977,50.0,0,40,12.0,0.0
1978,59.0,1,40,12.0,0.0
1979,83.0,2,60,10.0,0.0
1980,83.0,0,105,0.0,0.0
1981,86.0,3,105,0.0,0.0
1982,71.0,43,60,11.0,0.0
1983,77.0,0,105,1.0,0.0
1984,74.0,0,105,1.0,0.0
1985,55.0,0,105,4.0,0.0
1986,48.0,2,105,4.0,0.0
1987,50.0,0,40,12.0,0.0
1988,59.0,15,40,12.0,0.0
1989,65.0,0,105,2.0,0.0
1990,71.0,8,105,2.0,0.0
1991,48.0,3,110,13.0,0.0
1992,53.0,3,105,3.0,0.0
1993,59.0,0,105,3.0,0.0
1994,36.0,40,110,14.0,0.0
1995,59.0,0,40,12.0,0.0
1996,50.0,1,40,12.0,0.0
1997,77.0,2,120,10.0,0.0
1998,86.0,3,345,0.0,0.0
1999,83.0,0,345,0.0,0.0
2000,65.0,10,120,11.0,0.0
2001,55.0,0,345,4.0,0.0
2002,74.0,1,345,1.0,0.0
2003,77.0,0,345,1.0,0.0
2004,48.0,0,345,4.0,0.0
2005,50.0,60,40,12.0,0.0
2006,59.0,0,40,12.0,0.0
2007,71.0,1,345,2.0,0.0
2008,65.0,0,345,2.0,0.0
2009,48.0,3,120,13.0,0.0
2010,50.0,46,345,3.0,0.0
2011,59.0,0,345,3.0,0.0
2012,36.0,30,120,14.0,0.0
2013,50.0,15,40,12.0,0.0
2014,59.0,0,40,12.0,0.0
2015,83.0,1,230,10.0,0.0
2016,71.0,7,230,11.0,0.0
2017,59.0,0,40,12.0,0.0
2018,50.0,60,40,12.0,0.0
2019,50.0,60,40,12.0,0.0
2020,59.0,0,40,12.0,0.0
2021,50.0,60,40,12.0,0.0
2022,59.0,0,40,12.0,0.0
2023,59.0,1,40,12.0,0.0
2024,50.0,0,40,12.0,0.0
2025,86.0,2,60,10.0,0.0
2026,83.0,0,105,0.0,0.0
2027,86.0,3,105,0.0,0.0
2028,74.0,43,60,11.0,0.0
2029,74.0,0,105,1.0,0.0
2030,77.0,2,105,1.0,0.0
2031,48.0,0,105,4.0,0.0
2032,55.0,0,105,4.0,0.0
2033,59.0,15,40,12.0,0.0
2034,50.0,0,40,12.0,0.0
2035,71.0,8,105,2.0,0.0
2036,65.0,0,105,2.0,0.0
2037,48.0,3,110,13.0,0.0
2038,59.0,0,105,3.0,0.0
2039,50.0,3,105,3.0,0.0
2040,36.0,40,110,14.0,0.0
2041,59.0,1,40,12.0,0.0
2042,50.0,0,40,12.0,0.0
2043,77.0,2,120,10.0,0.0
2044,86.0,3,345,0.0,0.0
2045,83.0,0,345,0.0,0.0
2046,65.0,10,120,11.0,0.0
2047,48.0,0,345,4.0,0.0
2048,55.0,0,345,4.0,0.0
2049,74.0,1,345,1.0,0.0
2050,77.0,0,345,1.0,0.0
2051,50.0,60,40,12.0,0.0
2052,59.0,0,40,12.0,0.0
2053,65.0,1,345,2.0,0.0
2054,71.0,0,345,2.0,0.0
2055,48.0,3,120,13.0,0.0
2056,59.0,0,345,3.0,0.0
2057,50.0,46,345,3.0,0.0
2058,36.0,30,120,14.0,0.0
2059,50.0,15,40,12.0,0.0
2060,59.0,0,40,12.0,0.0
2061,83.0,1,230,10.0,0.0
2062,71.0,7,230,11.0,0.0
2063,59.0,0,40,12.0,0.0
2064,50.0,60,40,12.0,0.0
2065,50.0,0,40,12.0,0.0
2066,59.0,60,40,12.0,0.0
2067,50.0,60,40,12.0,0.0
2068,59.0,0,40,12.0,0.0
2069,50.0,1,40,12.0,0.0
2070,59.0,0,40,12.0,0.0
2071,86.0,2,60,10.0,0.0
2072,83.0,0,105,0.0,0.0
2073,86.0,3,105,0.0,0.0
2074,74.0,43,60,11.0,0.0
2075,55.0,0,105,4.0,0.0
2076,77.0,0,105,1.0,0.0
2077,74.0,2,105,1.0,0.0
2078,48.0,0,105,4.0,0.0
2079,59.0,15,40,12.0,0.0
2080,50.0,0,40,12.0,0.0
2081,71.0,0,105,2.0,0.0
2082,65.0,8,105,2.0,0.0
2083,48.0,3,110,13.0,0.0
2084,50.0,3,105,3.0,0.0
2085,59.0,0,105,3.0,0.0
2086,36.0,40,110,14.0,0.0
2087,59.0,1,40,12.0,0.0
2088,50.0,0,40,12.0,0.0
2089,83.0,2,120,10.0,0.0
2090,86.0,0,345,0.0,0.0
2091,83.0,3,345,0.0,0.0
2092,71.0,10,120,11.0,0.0
2093,48.0,1,345,4.0,0.0
2094,55.0,0,345,4.0,0.0
2095,77.0,0,345,1.0,0.0
2096,74.0,0,345,1.0,0.0
2097,50.0,60,40,12.0,0.0
2098,59.0,0,40,12.0,0.0
2099,71.0,0,345,2.0,0.0
2100,65.0,1,345,2.0,0.0
2101,48.0,3,120,13.0,0.0
2102,59.0,46,345,3.0,0.0
2103,50.0,0,345,3.0,0.0
2104,36.0,30,120,14.0,0.0
2105,59.0,15,40,12.0,0.0
2106,50.0,0,40,12.0,0.0
2107,86.0,1,230,10.0,0.0
2108,74.0,7,230,11.0,0.0
2109,50.0,0,40,12.0,0.0
2110,59.0,60,40,12.0,0.0
2111,50.0,0,40,12.0,0.0
2112,59.0,60,40,12.0,0.0
2113,50.0,60,40,12.0,0.0
2114,59.0,0,40,12.0,0.0
2115,50.0,1,40,12.0,0.0
2116,59.0,0,40,12.0,0.0
2117,89.0,2,60,10.0,0.0
2118,86.0,3,105,0.0,0.0
2119,83.0,0,105,0.0,0.0
2120,77.0,43,60,11.0,0.0
2121,48.0,0,105,4.0,0.0
2122,55.0,0,105,4.0,0.0
2123,77.0,0,105,1.0,0.0
2124,74.0,2,105,1.0,0.0
2125,59.0,15,40,12.0,0.0
2126,50.0,0,40,12.0,0.0
2127,71.0,0,105,2.0,0.0
2128,65.0,8,105,2.0,0.0
2129,48.0,3,110,13.0,0.0
2130,59.0,3,105,3.0,0.0
2131,50.0,0,105,3.0,0.0
2132,36.0,40,110,14.0,0.0
2133,59.0,1,40,12.0,0.0
2134,50.0,0,40,12.0,0.0
2135,83.0,2,120,10.0,0.0
2136,86.0,3,345,0.0,0.0
2137,83.0,0,345,0.0,0.0
2138,71.0,10,120,11.0,0.0
2139,77.0,0,345,1.0,0.0
2140,55.0,0,345,4.0,0.0
2141,74.0,0,345,1.0,0.0
2142,48.0,1,345,4.0,0.0
2143,59.0,0,40,12.0,0.0
2144,50.0,60,40,12.0,0.0
2145,71.0,1,345,2.0,0.0
2146,65.0,0,345,2.0,0.0
2147,48.0,3,120,13.0,0.0
2148,50.0,0,345,3.0,0.0
2149,59.0,46,345,3.0,0.0
2150,36.0,30,120,14.0,0.0
2151,50.0,15,40,12.0,0.0
2152,59.0,0,40,12.0,0.0
2153,86.0,1,230,10.0,0.0
2154,74.0,7,230,11.0,0.0
2155,50.0,60,40,12.0,0.0
2156,59.0,0,40,12.0,0.0
2157,59.0,60,40,12.0,0.0
2158,50.0,0,40,12.0,0.0
2159,59.0,0,40,12.0,0.0
2160,50.0,60,40,12.0,0.0
2161,50.0,0,40,12.0,0.0
2162,59.0,1,40,12.0,0.0
2163,89.0,2,60,10.0,0.0
2164,83.0,0,105,0.0,0.0
2165,86.0,3,105,0.0,0.0
2166,77.0,43,60,11.0,0.0
2167,48.0,0,105,4.0,0.0
2168,55.0,2,105,4.0,0.0
2169,77.0,0,105,1.0,0.0
2170,74.0,0,105,1.0,0.0
2171,59.0,15,40,12.0,0.0
2172,50.0,0,40,12.0,0.0
2173,71.0,8,105,2.0,0.0
2174,65.0,0,105,2.0,0.0
2175,48.0,3,110,13.0,0.0
2176,59.0,0,105,3.0,0.0
2177,50.0,3,105,3.0,0.0
2178,36.0,40,110,14.0,0.0
2179,59.0,1,40,12.0,0.0
2180,50.0,0,40,12.0,0.0
2181,83.0,2,120,10.0,0.0
2182,86.0,0,345,0.0,0.0
2183,83.0,3,345,0.0,0.0
2184,71.0,10,120,11.0,0.0
2185,48.0,0,345,4.0,0.0
2186,55.0,0,345,4.0,0.0
2187,77.0,1,345,1.0,0.0
2188,74.0,0,345,1.0,0.0
2189,59.0,60,40,12.0,0.0
2190,50.0,0,40,12.0,0.0
2191,65.0,0,345,2.0,0.0
2192,71.0,1,345,2.0,0.0
2193,48.0,3,120,13.0,0.0
2194,59.0,0,345,3.0,0.0
2195,50.0,46,345,3.0,0.0
2196,36.0,30,120,14.0,0.0
2197,50.0,15,40,12.0,0.0
2198,59.0,0,40,12.0,0.0
2199,86.0,1,230,10.0,0.0
2200,74.0,7,230,11.0,0.0
2201,59.0,0,40,12.0,0.0
2202,50.0,60,40,12.0,0.0
2203,59.0,60,40,12.0,0.0
2204,50.0,0,40,12.0,0.0
2205,50.0,60,40,12.0,0.0
2206,59.0,0,40,12.0,0.0
2207,59.0,1,40,12.0,0.0
2208,50.0,0,40,12.0,0.0
2209,89.0,2,60,10.0,0.0
2210,86.0,3,105,0.0,0.0
2211,83.0,0,105,0.0,0.0
2212,77.0,43,60,11.0,0.0
2213,77.0,0,105,1.0,0.0
2214,74.0,0,105,1.0,0.0
2215,55.0,0,105,4.0,0.0
2216,48.0,2,105,4.0,0.0
2217,50.0,15,40,12.0,0.0
2218,59.0,0,40,12.0,0.0
2219,71.0,0,105,2.0,0.0
2220,65.0,8,105,2.0,0.0
2221,48.0,3,110,13.0,0.0
2222,50.0,0,105,3.0,0.0
2223,59.0,3,105,3.0,0.0
2224,36.0,40,110,14.0,0.0
2225,59.0,0,40,12.0,0.0
2226,50.0,1,40,12.0,0.0
2227,83.0,2,120,10.0,0.0
2228,86.0,0,345,0.0,0.0
2229,83.0,3,345,0.0,0.0
2230,71.0,0,120,11.0,0.0
2231,48.0,0,345,4.0,0.0
2232,55.0,0,345,4.0,0.0
2233,74.0,0,345,1.0,0.0
2234,77.0,1,345,1.0,0.0
2235,59.0,60,40,12.0,0.0
2236,50.0,0,40,12.0,0.0
2237,71.0,0,345,2.0,0.0
2238,65.0,1,345,2.0,0.0
2239,48.0,3,110,13.0,0.0
2240,59.0,46,345,3.0,0.0
2241,50.0,0,345,3.0,0.0
2242,36.0,40,110,14.0,0.0
2243,59.0,15,40,12.0,0.0
2244,50.0,0,40,12.0,0.0
2245,86.0,1,230,10.0,0.0
2246,74.0,7,230,11.0,0.0
2247,59.0,0,40,12.0,0.0
2248,50.0,60,40,12.0,0.0
2249,48.0,3,120,13.0,0.0
2250,36.0,30,120,14.0,0.0
2251,50.0,27,40,12.0,0.0
2252,59.0,0,40,12.0,0.0
2253,59.0,60,40,12.0,0.0
2254,50.0,0,40,12.0,0.0
2255,50.0,0,40,12.0,0.0
2256,59.0,1,40,12.0,0.0
2257,91.0,2,60,10.0,0.0
2258,83.0,0,105,0.0,0.0
2259,86.0,3,105,0.0,0.0
2260,79.0,43,60,11.0,0.0
2261,74.0,0,105,1.0,0.0
2262,48.0,0,105,4.0,0.0
2263,77.0,0,105,1.0,0.0
2264,55.0,2,105,4.0,0.0
2265,59.0,15,40,12.0,0.0
2266,50.0,0,40,12.0,0.0
2267,65.0,0,105,2.0,0.0
2268,71.0,8,105,2.0,0.0
2269,48.0,3,110,13.0,0.0
2270,59.0,3,105,3.0,0.0
2271,50.0,0,105,3.0,0.0
2272,36.0,40,110,14.0,0.0
2273,59.0,1,40,12.0,0.0
2274,50.0,0,40,12.0,0.0
2275,83.0,2,120,10.0,0.0
2276,86.0,3,345,0.0,0.0
2277,83.0,0,345,0.0,0.0
2278,71.0,3,120,11.0,0.0
2279,74.0,0,345,1.0,0.0
2280,77.0,0,345,1.0,0.0
2281,55.0,1,345,4.0,0.0
2282,48.0,0,345,4.0,0.0
2283,50.0,60,40,12.0,0.0
2284,59.0,0,40,12.0,0.0
2285,65.0,0,345,2.0,0.0
2286,71.0,1,345,2.0,0.0
2287,48.0,0,110,13.0,0.0
2288,50.0,46,345,3.0,0.0
2289,59.0,0,345,3.0,0.0
2290,36.0,40,110,14.0,0.0
2291,50.0,0,40,12.0,0.0
2292,59.0,15,40,12.0,0.0
2293,86.0,1,230,10.0,0.0
2294,74.0,7,230,11.0,0.0
2295,59.0,60,40,12.0,0.0
2296,50.0,0,40,12.0,0.0
2297,48.0,3,120,13.0,0.0
2298,36.0,30,120,14.0,0.0
2299,59.0,27,40,12.0,0.0
2300,50.0,0,40,12.0,0.0
2301,59.0,0,40,12.0,0.0
2302,50.0,60,40,12.0,0.0
2303,50.0,0,40,12.0,0.0
2304,59.0,1,40,12.0,0.0
2305,91.0,2,60,10.0,0.0
2306,83.0,0,105,0.0,0.0
2307,86.0,3,105,0.0,0.0
2308,79.0,43,60,11.0,0.0
2309,55.0,0,105,4.0,0.0
2310,77.0,0,105,1.0,0.0
2311,74.0,0,105,1.0,0.0
2312,48.0,2,105,4.0,0.0
2313,50.0,0,40,12.0,0.0
2314,59.0,15,40,12.0,0.0
2315,65.0,8,105,2.0,0.0
2316,71.0,0,105,2.0,0.0
2317,48.0,3,110,13.0,0.0
2318,59.0,3,105,3.0,0.0
2319,50.0,0,105,3.0,0.0
2320,36.0,40,110,14.0,0.0
2321,50.0,0,40,12.0,0.0
2322,59.0,1,40,12.0,0.0
2323,83.0,2,120,10.0,0.0
2324,86.0,0,345,0.0,0.0
2325,83.0,3,345,0.0,0.0
2326,71.0,3,120,11.0,0.0
2327,55.0,0,345,4.0,0.0
2328,48.0,1,345,4.0,0.0
2329,74.0,0,345,1.0,0.0
2330,77.0,0,345,1.0,0.0
2331,50.0,0,40,12.0,0.0
2332,59.0,60,40,12.0,0.0
2333,71.0,1,345,2.0,0.0
2334,65.0,0,345,2.0,0.0
2335,48.0,0,110,13.0,0.0
2336,59.0,0,345,3.0,0.0
2337,50.0,46,345,3.0,0.0
2338,36.0,40,110,14.0,0.0
2339,50.0,0,40,12.0,0.0
2340,59.0,15,40,12.0,0.0
2341,86.0,1,230,10.0,0.0
2342,74.0,7,230,11.0,0.0
2343,50.0,60,40,12.0,0.0
2344,59.0,0,40,12.0,0.0
2345,48.0,3,120,13.0,0.0
2346,36.0,30,120,14.0,0.0
2347,50.0,27,40,12.0,0.0
2348,59.0,0,40,12.0,0.0
2349,50.0,0,40,12.0,0.0
2350,59.0,60,40,12.0,0.0
2351,59.0,1,40,12.0,0.0
2352,50.0,0,40,12.0,0.0
2353,91.0,2,60,10.0,0.0
2354,83.0,0,105,0.0,0.0
2355,86.0,3,105,0.0,0.0
2356,79.0,43,60,11.0,0.0
2357,74.0,0,105,1.0,0.0
2358,48.0,0,105,4.0,0.0
2359,55.0,2,105,4.0,0.0
2360,77.0,0,105,1.0,0.0
2361,50.0,15,40,12.0,0.0
2362,59.0,0,40,12.0,0.0
2363,65.0,8,105,2.0,0.0
2364,71.0,0,105,2.0,0.0
2365,48.0,3,110,13.0,0.0
2366,59.0,0,105,3.0,0.0
2367,50.0,3,105,3.0,0.0
2368,36.0,40,110,14.0,0.0
2369,50.0,0,40,12.0,0.0
2370,59.0,1,40,12.0,0.0
2371,83.0,2,120,10.0,0.0
2372,86.0,0,345,0.0,0.0
2373,83.0,3,345,0.0,0.0
2374,71.0,0,120,11.0,0.0
2375,48.0,0,345,4.0,0.0
2376,55.0,1,345,4.0,0.0
2377,77.0,0,345,1.0,0.0
2378,74.0,0,345,1.0,0.0
2379,62.0,0,40,12.0,0.0
2380,59.0,60,40,12.0,0.0
2381,65.0,0,345,2.0,0.0
2382,71.0,1,345,2.0,0.0
2383,48.0,3,110,13.0,0.0
2384,50.0,0,345,3.0,0.0
2385,59.0,46,345,3.0,0.0
2386,36.0,40,110,14.0,0.0
2387,59.0,15,40,12.0,0.0
2388,62.0,0,40,12.0,0.0
2389,86.0,1,230,10.0,0.0
2390,74.0,7,230,11.0,0.0
2391,59.0,0,40,12.0,0.0
2392,62.0,60,40,12.0,0.0
2393,48.0,3,120,13.0,0.0
2394,36.0,30,120,14.0,0.0
2395,59.0,27,40,12.0,0.0
2396,62.0,0,40,12.0,0.0
2397,59.0,0,40,12.0,0.0
2398,62.0,60,40,12.0,0.0
2399,62.0,0,40,12.0,0.0
2400,59.0,1,40,12.0,0.0
2401,91.0,2,60,10.0,0.0
2402,86.0,3,105,0.0,0.0
2403,83.0,0,105,0.0,0.0
2404,79.0,43,60,11.0,0.0
2405,55.0,2,105,4.0,0.0
2406,77.0,0,105,1.0,0.0
2407,74.0,0,105,1.0,0.0
2408,48.0,0,105,4.0,0.0
2409,62.0,15,40,12.0,0.0
2410,59.0,0,40,12.0,0.0
2411,65.0,8,105,2.0,0.0
2412,71.0,0,105,2.0,0.0
2413,59.0,0,105,3.0,0.0
2414,50.0,13,105,3.0,0.0
2415,62.0,1,40,12.0,0.0
2416,59.0,0,40,12.0,0.0
2417,79.0,0,50,10.0,0.0
2418,91.0,2,50,10.0,0.0
2419,91.0,0,1920,0.0,0.0
2420,86.0,1,1920,0.0,0.0
2421,71.0,3,50,11.0,0.0
2422,67.0,0,1920,6.0,0.0
2423,79.0,1,1920,6.0,0.0
2424,83.0,0,1920,1.0,0.0
2425,77.0,0,1920,1.0,0.0
2426,55.0,0,1920,4.0,0.0
2427,67.0,0,1920,7.0,0.0
2428,62.0,1,1920,4.0,0.0
2429,71.0,7,50,12.0,0.0
2430,62.0,0,50,12.0,0.0
2431,71.0,0,1920,2.0,0.0
2432,74.0,1,1920,2.0,0.0
2433,55.0,6,1920,7.0,0.0
2434,48.0,3,0,13.0,0.0
2435,48.0,39,58,15.0,0.0
2436,59.0,0,1920,3.0,0.0
2437,62.0,2,1920,3.0,0.0
2438,36.0,35,0,14.0,0.0
2439,91.0,0,50,10.0,0.0
2440,79.0,2,50,10.0,0.0
2441,83.0,3,50,11.0,0.0
2442,74.0,0,50,11.0,0.0
2443,71.0,0,50,12.0,0.0
2444,62.0,7,50,12.0,0.0
2445,48.0,3,50,13.0,0.0
2446,36.0,10,50,14.0,0.0
2447,91.0,2,50,10.0,0.0
2448,79.0,0,50,10.0,0.0
2449,83.0,0,50,11.0,0.0
2450,74.0,3,50,11.0,0.0
2451,71.0,7,50,12.0,0.0
2452,62.0,0,50,12.0,0.0
2453,48.0,3,50,13.0,0.0
2454,48.0,35,1,15.0,0.0
2455,36.0,7,50,14.0,0.0
2456,91.0,2,50,10.0,0.0
2457,79.0,0,50,10.0,0.0
2458,83.0,3,50,11.0,0.0
2459,74.0,0,50,11.0,0.0
2460,71.0,0,50,12.0,0.0
2461,62.0,7,50,12.0,0.0
2462,48.0,3,50,13.0,0.0
2463,36.0,12,50,14.0,0.0
2464,48.0,33,58,15.0,0.0
2465,91.0,2,50,10.0,0.0
2466,79.0,0,50,10.0,0.0
2467,74.0,0,50,11.0,0.0
2468,83.0,3,50,11.0,0.0
2469,71.0,0,50,12.0,0.0
2470,62.0,7,50,12.0,0.0
2471,48.0,3,50,13.0,0.0
2472,36.0,10,50,14.0,0.0
2473,48.0,35,58,15.0,0.0
2474,91.0,0,50,10.0,0.0
2475,79.0,2,50,10.0,0.0
2476,74.0,3,50,11.0,0.0
2477,83.0,0,50,11.0,0.0
2478,62.0,7,50,12.0,0.0
2479,71.0,0,50,12.0,0.0
2480,48.0,3,50,13.0,0.0
2481,36.0,9,50,14.0,0.0
2482,48.0,36,58,15.0,0.0
2483,79.0,2,50,10.0,0.0
2484,91.0,0,50,10.0,0.0
2485,74.0,3,50,11.0,0.0
2486,83.0,0,50,11.0,0.0
2487,62.0,0,50,12.0,0.0
2488,71.0,7,50,12.0,0.0
2489,48.0,3,50,13.0,0.0
2490,48.0,37,58,15.0,0.0
2491,36.0,8,50,14.0,0.0
2492,91.0,0,50,10.0,0.0
2493,79.0,2,50,10.0,0.0
2494,74.0,3,50,11.0,0.0
2495,83.0,0,50,11.0,0.0
2496,71.0,7,50,12.0,0.0
2497,62.0,0,50,12.0,0.0
2498,48.0,3,50,13.0,0.0
2499,36.0,13,50,14.0,0.0
2500,48.0,32,58,15.0,0.0
2501,79.0,0,50,10.0,0.0
2502,91.0,2,50,10.0,0.0
2503,74.0,0,50,11.0,0.0
2504,83.0,3,50,11.0,0.0
2505,71.0,7,50,12.0,0.0
2506,62.0,0,50,12.0,0.0
2507,48.0,3,50,13.0,0.0
2508,36.0,12,50,14.0,0.0
2509,48.0,33,58,15.0,0.0
2510,79.0,2,50,10.0,0.0
2511,91.0,0,50,10.0,0.0
2512,83.0,0,50,11.0,0.0
2513,74.0,3,50,11.0,0.0
2514,62.0,7,50,12.0,0.0
2515,71.0,0,50,12.0,0.0
2516,48.0,3,50,13.0,0.0
2517,36.0,11,50,14.0,0.0
2518,79.0,2,50,10.0,0.0
2519,91.0,0,50,10.0,0.0
2520,74.0,0,50,11.0,0.0
2521,83.0,3,50,11.0,0.0
2522,62.0,0,50,12.0,0.0
2523,71.0,7,50,12.0,0.0
2524,48.0,3,50,13.0,0.0
2525,48.0,34,2,15.0,0.0
2526,36.0,7,50,14.0,0.0
2527,91.0,0,50,10.0,0.0
2528,79.0,2,50,10.0,0.0
2529,83.0,3,50,11.0,0.0
2530,74.0,0,50,11.0,0.0
2531,62.0,7,50,12.0,0.0
2532,71.0,0,50,12.0,0.0
2533,48.0,3,50,13.0,0.0
2534,36.0,12,50,14.0,0.0
2535,48.0,33,58,15.0,0.0
2536,79.0,2,50,10.0,0.0
2537,91.0,0,50,10.0,0.0
2538,74.0,0,50,11.0,0.0
2539,83.0,3,50,11.0,0.0
2540,62.0,0,50,12.0,0.0
2541,71.0,7,50,12.0,0.0
2542,48.0,3,50,13.0,0.0
2543,36.0,11,50,14.0,0.0
2544,48.0,34,58,15.0,0.0
2545,91.0,0,50,10.0,0.0
2546,79.0,2,50,10.0,0.0
2547,74.0,0,50,11.0,0.0
2548,83.0,3,50,11.0,0.0
2549,71.0,0,50,12.0,0.0
2550,62.0,7,50,12.0,0.0
2551,48.0,3,50,13.0,0.0
2552,36.0,10,50,14.0,0.0
2553,48.0,35,58,15.0,0.0
2554,79.0,2,50,10.0,0.0
2555,91.0,0,50,10.0,0.0
2556,74.0,3,50,11.0,0.0
2557,83.0,0,50,11.0,0.0
2558,62.0,0,50,12.0,0.0
2559,71.0,7,50,12.0,0.0
2560,48.0,3,50,13.0,0.0
2561,36.0,8,50,14.0,0.0
2562,48.0,37,58,15.0,0.0
2563,91.0,0,50,10.0,0.0
2564,79.0,2,50,10.0,0.0
2565,83.0,3,50,11.0,0.0
2566,74.0,0,50,11.0,0.0
2567,71.0,0,50,12.0,0.0
2568,62.0,7,50,12.0,0.0
2569,48.0,3,50,13.0,0.0
2570,48.0,39,58,15.0,0.0
2571,36.0,6,50,14.0,0.0
2572,79.0,0,50,10.0,0.0
2573,91.0,2,50,10.0,0.0
2574,83.0,0,50,11.0,0.0
2575,74.0,3,50,11.0,0.0
2576,62.0,7,50,12.0,0.0
2577,71.0,0,50,12.0,0.0
2578,48.0,3,50,13.0,0.0
2579,48.0,39,58,15.0,0.0
2580,36.0,6,50,14.0,0.0
2581,79.0,2,50,10.0,0.0
2582,91.0,0,50,10.0,0.0
2583,83.0,0,50,11.0,0.0
2584,74.0,3,50,11.0,0.0
2585,62.0,0,50,12.0,0.0
2586,71.0,7,50,12.0,0.0
2587,48.0,3,50,13.0,0.0
2588,48.0,37,58,15.0,0.0
2589,36.0,8,50,14.0,0.0
2590,91.0,0,50,10.0,0.0
2591,79.0,2,50,10.0,0.0
2592,74.0,3,50,11.0,0.0
2593,83.0,0,50,11.0,0.0
2594,62.0,0,50,12.0,0.0
2595,71.0,7,50,12.0,0.0
2596,48.0,3,50,13.0,0.0
2597,48.0,38,58,15.0,0.0
2598,36.0,7,50,14.0,0.0
2599,91.0,2,50,10.0,0.0
2600,79.0,0,50,10.0,0.0
2601,83.0,3,50,11.0,0.0
2602,74.0,0,50,11.0,0.0
2603,62.0,7,50,12.0,0.0
2604,71.0,0,50,12.0,0.0
2605,48.0,3,50,13.0,0.0
2606,48.0,38,58,15.0,0.0
2607,36.0,7,50,14.0,0.0
2608,79.0,2,50,10.0,0.0
2609,91.0,0,50,10.0,0.0
2610,74.0,3,50,11.0,0.0
2611,83.0,0,50,11.0,0.0
2612,62.0,0,50,12.0,0.0
2613,71.0,7,50,12.0,0.0
2614,48.0,3,50,13.0,0.0
2615,36.0,13,50,14.0,0.0
2616,79.0,0,50,10.0,0.0
2617,91.0,2,50,10.0,0.0
2618,83.0,0,50,11.0,0.0
2619,74.0,3,50,11.0,0.0
2620,62.0,0,50,12.0,0.0
2621,71.0,7,50,12.0,0.0
2622,48.0,3,50,13.0,0.0
2623,36.0,9,50,14.0,0.0
2624,48.0,32,2,15.0,0.0
2625,79.0,0,50,10.0,0.0
2626,91.0,2,50,10.0,0.0
2627,74.0,0,50,11.0,0.0
2628,83.0,3,50,11.0,0.0
2629,62.0,0,50,12.0,0.0
2630,71.0,7,50,12.0,0.0
2631,48.0,3,50,13.0,0.0
2632,48.0,36,1,15.0,0.0
2633,36.0,6,50,14.0,0.0
2634,91.0,2,50,10.0,0.0
2635,79.0,0,50,10.0,0.0
2636,74.0,3,50,11.0,0.0
2637,83.0,0,50,11.0,0.0
2638,62.0,7,50,12.0,0.0
2639,71.0,0,50,12.0,0.0
2640,48.0,3,50,13.0,0.0
2641,48.0,39,58,15.0,0.0
2642,36.0,6,50,14.0,0.0
2643,79.0,0,50,10.0,0.0
2644,91.0,2,50,10.0,0.0
2645,74.0,3,50,11.0,0.0
2646,83.0,0,50,11.0,0.0
2647,71.0,0,50,12.0,0.0
2648,62.0,7,50,12.0,0.0
2649,48.0,3,50,13.0,0.0
2650,48.0,39,58,15.0,0.0
2651,36.0,6,50,14.0,0.0
2652,79.0,0,50,10.0,0.0
2653,91.0,2,50,10.0,0.0
2654,83.0,3,50,11.0,0.0
2655,74.0,0,50,11.0,0.0
2656,71.0,7,50,12.0,0.0
2657,62.0,0,50,12.0,0.0
2658,48.0,3,50,13.0,0.0
2659,36.0,9,50,14.0,0.0
2660,48.0,36,58,15.0,0.0
2661,79.0,0,50,10.0,0.0
2662,91.0,2,50,10.0,0.0
2663,83.0,3,50,11.0,0.0
2664,74.0,0,50,11.0,0.0
2665,62.0,7,50,12.0,0.0
2666,71.0,0,50,12.0,0.0
2667,48.0,3,50,13.0,0.0
2668,36.0,10,50,14.0,0.0
2669,48.0,35,58,15.0,0.0
2670,91.0,2,50,10.0,0.0
2671,79.0,0,50,10.0,0.0
2672,74.0,0,50,11.0,0.0
2673,83.0,3,50,11.0,0.0
2674,71.0,7,50,12.0,0.0
2675,62.0,0,50,12.0,0.0
2676,48.0,3,50,13.0,0.0
2677,36.0,10,50,14.0,0.0
2678,48.0,35,58,15.0,0.0
2679,79.0,0,50,10.0,0.0
2680,91.0,2,50,10.0,0.0
2681,83.0,0,50,11.0,0.0
2682,74.0,3,50,11.0,0.0
2683,62.0,0,50,12.0,0.0
2684,71.0,7,50,12.0,0.0
2685,48.0,3,50,13.0,0.0
2686,36.0,10,50,14.0,0.0
2687,48.0,35,58,15.0,0.0
2688,79.0,0,50,10.0,0.0
2689,91.0,2,50,10.0,0.0
2690,74.0,0,50,11.0,0.0
2691,83.0,3,50,11.0,0.0
2692,71.0,7,50,12.0,0.0
2693,62.0,0,50,12.0,0.0
2694,48.0,3,50,13.0,0.0
2695,36.0,10,50,14.0,0.0
2696,91.0,0,50,10.0,0.0
2697,79.0,2,50,10.0,0.0
2698,74.0,0,50,11.0,0.0
2699,83.0,3,50,11.0,0.0
2700,62.0,7,50,12.0,0.0
2701,71.0,0,50,12.0,0.0
2702,48.0,3,50,13.0,0.0
2703,48.0,35,1,15.0,0.0
2704,36.0,7,50,14.0,0.0
2705,79.0,2,50,10.0,0.0
2706,91.0,0,50,10.0,0.0
2707,83.0,3,50,11.0,0.0
2708,74.0,0,50,11.0,0.0
2709,71.0,0,50,12.0,0.0
2710,62.0,6,50,12.0,0.0
2711,48.0,1,50,13.0,0.0
2712,36.0,1,50,14.0,0.0
2713,48.0,34,58,15.0,0.0
2714,84.0,2,50,10.0,0.0
2715,84.0,3,110,0.0,0.0
2716,76.0,3,50,11.0,0.0
2717,84.0,0,50,11.0,0.0
2718,60.0,0,120,6.0,0.0
2719,72.0,1,120,6.0,0.0
2720,84.0,1,110,1.0,0.0
2721,48.0,0,120,4.0,0.0
2722,60.0,0,120,4.0,0.0
2723,76.0,0,110,1.0,0.0
2724,72.0,7,50,12.0,0.0
2725,64.0,0,50,12.0,0.0
2726,76.0,0,120,5.0,0.0
2727,72.0,6,110,2.0,0.0
2728,60.0,4,960,7.0,0.0
2729,48.0,3,50,13.0,0.0
2730,48.0,1,0,8.0,0.0
2731,60.0,1,110,3.0,0.0
2732,36.0,10,50,14.0,0.0
2733,84.0,2,47,10.0,0.0
2734,76.0,0,47,11.0,0.0
2735,84.0,2,47,11.0,0.0
2736,64.0,1,50,12.0,0.0
2737,72.0,0,50,12.0,0.0
2738,48.0,1,50,13.0,0.0
2739,48.0,32,1,15.0,0.0
2740,36.0,1,50,14.0,0.0
2741,88.0,2,50,10.0,0.0
2742,88.0,3,230,0.0,0.0
2743,88.0,3,50,11.0,0.0
2744,76.0,1,240,6.0,0.0
2745,64.0,0,240,6.0,0.0
2746,52.0,0,240,4.0,0.0
2747,64.0,1,240,4.0,0.0
2748,76.0,1,230,1.0,0.0
2749,76.0,7,50,12.0,0.0
2750,76.0,6,230,2.0,0.0
2751,64.0,0,230,2.0,0.0
2752,64.0,6,0,5.0,0.0
2753,52.0,3,50,13.0,0.0
2754,52.0,0,230,3.0,0.0
2755,64.0,0,230,3.0,0.0
2756,48.0,35,58,15.0,0.0
2757,40.0,7,50,14.0,0.0
2758,88.0,2,47,10.0,0.0
2759,88.0,6,47,11.0,0.0
2760,76.0,7,50,12.0,0.0
2761,52.0,3,50,13.0,0.0
2762,40.0,12,50,14.0,0.0
2763,88.0,2,50,10.0,0.0
2764,88.0,3,50,11.0,0.0
2765,76.0,7,50,12.0,0.0
2766,52.0,3,50,13.0,0.0
2767,40.0,9,50,14.0,0.0
2768,48.0,33,1,15.0,0.0
2769,88.0,2,47,10.0,0.0
2770,88.0,2,47,11.0,0.0
2771,76.0,1,50,12.0,0.0
2772,52.0,1,50,13.0,0.0
2773,48.0,38,58,15.0,0.0
2774,40.0,1,50,14.0,0.0
2775,91.0,2,50,10.0,0.0
2776,91.0,3,110,0.0,0.0
2777,91.0,3,50,11.0,0.0
2778,79.0,3,90,6.0,0.0
2779,67.0,0,90,6.0,0.0
2780,55.0,0,120,4.0,0.0
2781,79.0,1,110,1.0,0.0
2782,67.0,0,120,4.0,0.0
2783,79.0,7,50,12.0,0.0
2784,76.0,0,0,5.0,0.0
2785,64.0,6,0,5.0,0.0
2786,67.0,0,110,2.0,0.0
2787,79.0,6,110,2.0,0.0
2788,55.0,3,50,13.0,0.0
2789,67.0,1,110,3.0,0.0
2790,55.0,0,110,3.0,0.0
2791,43.0,10,50,14.0,0.0
2792,48.0,18,58,15.0,0.0
2793,91.0,2,47,10.0,0.0
2794,91.0,2,47,11.0,0.0
2795,79.0,1,50,12.0,0.0
2796,55.0,2,50,13.0,0.0
2797,43.0,11,50,14.0,0.0
2798,48.0,34,58,15.0,0.0
2799,93.0,2,50,10.0,0.0
2800,93.0,3,350,0.0,0.0
2801,93.0,3,50,11.0,0.0
2802,79.0,0,1440,6.0,0.0
2803,81.0,1,350,1.0,0.0
2804,81.0,7,50,12.0,0.0
2805,81.0,6,350,2.0,0.0
2806,69.0,0,350,2.0,0.0
2807,57.0,3,50,13.0,0.0
2808,57.0,1,350,3.0,0.0
2809,69.0,0,350,3.0,0.0
2810,45.0,9,50,14.0,0.0
2811,48.0,33,58,15.0,0.0
2812,93.0,2,47,10.0,0.0
2813,93.0,6,47,11.0,0.0
2814,81.0,7,50,12.0,0.0
2815,57.0,3,50,13.0,0.0
2816,45.0,8,50,14.0,0.0
2817,48.0,37,58,15.0,0.0
2818,93.0,2,50,10.0,0.0
2819,93.0,3,50,11.0,0.0
2820,81.0,7,50,12.0,0.0
2821,57.0,3,50,13.0,0.0
2822,45.0,10,50,14.0,0.0
2823,48.0,32,58,15.0,0.0
2824,93.0,2,47,10.0,0.0
2825,93.0,6,47,11.0,0.0
2826,81.0,7,50,12.0,0.0
2827,57.0,3,50,13.0,0.0
2828,45.0,11,50,14.0,0.0
2829,48.0,34,58,15.0,0.0
2830,93.0,2,50,10.0,0.0
2831,93.0,3,50,11.0,0.0
2832,81.0,7,50,12.0,0.0
2833,57.0,3,50,13.0,0.0
2834,45.0,12,50,14.0,0.0
2835,48.0,30,58,15.0,0.0
2836,93.0,2,47,10.0,0.0
2837,93.0,2,47,11.0,0.0
2838,81.0,1,50,12.0,0.0
2839,57.0,2,50,13.0,0.0
2840,45.0,11,50,14.0,0.0
2841,91.0,2,50,10.0,0.0
2842,91.0,3,110,0.0,0.0
2843,91.0,3,50,11.0,0.0
2844,79.0,1,110,1.0,0.0
2845,79.0,7,50,12.0,0.0
2846,67.0,0,110,2.0,0.0
2847,79.0,6,110,2.0,0.0
2848,55.0,3,50,13.0,0.0
2849,55.0,0,110,3.0,0.0
2850,67.0,0,110,3.0,0.0
2851,43.0,9,50,14.0,0.0
2852,48.0,34,0,15.0,0.0
2853,91.0,2,47,10.0,0.0
2854,91.0,2,47,11.0,0.0
2855,79.0,1,50,12.0,0.0
2856,55.0,2,50,13.0,0.0
2857,48.0,33,1,15.0,0.0
2858,43.0,1,50,14.0,0.0
2859,88.0,2,50,10.0,0.0
2860,88.0,1,120,0.0,0.0
2861,88.0,3,50,11.0,0.0
2862,76.0,1,120,1.0,0.0
2863,64.0,1,0,7.0,0.0
2864,76.0,7,50,12.0,0.0
2865,64.0,1,0,5.0,0.0
2866,76.0,0,0,5.0,0.0
2867,76.0,8,120,2.0,0.0
2868,64.0,0,120,2.0,0.0
2869,60.0,6,240,7.0,0.0
2870,52.0,3,50,13.0,0.0
2871,48.0,37,0,8.0,0.0
2872,52.0,0,120,3.0,0.0
2873,64.0,3,120,3.0,0.0
2874,48.0,34,58,15.0,0.0
2875,40.0,8,50,14.0,0.0
2876,88.0,2,47,10.0,0.0
2877,88.0,6,47,11.0,0.0
2878,76.0,6,50,12.0,0.0
2879,52.0,2,50,13.0,0.0
2880,40.0,1,50,14.0,0.0
2881,84.0,2,50,10.0,0.0
2882,84.0,3,110,0.0,0.0
2883,84.0,3,50,11.0,0.0
2884,84.0,1,110,1.0,0.0
2885,72.0,7,50,12.0,0.0
2886,72.0,0,110,2.0,0.0
2887,84.0,6,110,2.0,0.0
2888,48.0,3,50,13.0,0.0
2889,48.0,33,4,15.0,0.0
2890,60.0,0,110,3.0,0.0
2891,48.0,0,110,3.0,0.0
2892,36.0,6,50,14.0,0.0
2893,84.0,2,47,10.0,0.0
2894,84.0,2,47,11.0,0.0
2895,72.0,1,50,12.0,0.0
2896,48.0,2,50,13.0,0.0
2897,36.0,2,50,14.0,0.0
2898,48.0,35,58,15.0,0.0
2899,81.0,2,50,10.0,0.0
2900,81.0,1,60,0.0,0.0
2901,81.0,3,50,11.0,0.0
2902,64.0,1,0,7.0,0.0
2903,81.0,1,60,1.0,0.0
2904,69.0,6,50,12.0,0.0
2905,81.0,0,60,2.0,0.0
2906,69.0,8,60,2.0,0.0
2907,45.0,2,50,13.0,0.0
2908,48.0,2,0,8.0,0.0
2909,45.0,0,60,3.0,0.0
2910,57.0,2,60,3.0,0.0
2911,33.0,1,50,14.0,0.0
2912,48.0,18,58,15.0,0.0
2913,81.0,2,47,10.0,0.0
2914,81.0,6,47,11.0,0.0
2915,69.0,7,50,12.0,0.0
2916,45.0,3,50,13.0,0.0
2917,33.0,1,50,14.0,0.0
2918,79.0,2,50,10.0,0.0
2919,79.0,1,60,0.0,0.0
2920,79.0,3,50,11.0,0.0
2921,64.0,2,90,7.0,0.0
2922,79.0,1,60,1.0,0.0
2923,67.0,6,50,12.0,0.0
2924,76.0,0,90,5.0,0.0
2925,64.0,1,0,5.0,0.0
2926,67.0,0,60,2.0,0.0
2927,79.0,5,60,2.0,0.0
2928,60.0,6,0,7.0,0.0
2929,43.0,2,50,13.0,0.0
2930,48.0,1,0,8.0,0.0
2931,48.0,36,1,15.0,0.0
2932,43.0,20,60,3.0,0.0
2933,55.0,0,60,3.0,0.0
2934,31.0,1,50,14.0,0.0
2935,79.0,2,47,10.0,0.0
2936,79.0,6,47,11.0,0.0
2937,67.0,7,50,12.0,0.0
2938,43.0,3,50,13.0,0.0
2939,31.0,2,50,14.0,0.0
2940,48.0,32,58,15.0,0.0
2941,79.0,2,50,10.0,0.0
2942,79.0,3,470,0.0,0.0
2943,79.0,3,50,11.0,0.0
2944,64.0,0,480,7.0,0.0
2945,79.0,1,470,1.0,0.0
2946,67.0,7,50,12.0,0.0
2947,67.0,6,470,2.0,0.0
2948,79.0,0,470,2.0,0.0
2949,43.0,3,50,13.0,0.0
2950,48.0,5,0,8.0,0.0
2951,55.0,0,470,3.0,0.0
2952,43.0,1,470,3.0,0.0
2953,31.0,13,50,14.0,0.0
2954,79.0,2,47,10.0,0.0
2955,79.0,6,47,11.0,0.0
2956,67.0,7,50,12.0,0.0
2957,55.0,3,50,13.0,0.0
2958,43.0,10,50,14.0,0.0
2959,48.0,29,1,15.0,0.0
2960,79.0,2,50,10.0,0.0
2961,79.0,3,50,11.0,0.0
2962,67.0,7,50,12.0,0.0
2963,55.0,3,50,13.0,0.0
2964,48.0,35,0,15.0,0.0
2965,43.0,8,50,14.0,0.0
2966,79.0,2,47,10.0,0.0
2967,79.0,6,47,11.0,0.0
2968,67.0,7,50,12.0,0.0
2969,55.0,3,50,13.0,0.0
2970,43.0,9,50,14.0,0.0
2971,48.0,36,58,15.0,0.0
2972,79.0,2,50,10.0,0.0
2973,79.0,3,50,11.0,0.0
2974,67.0,7,50,12.0,0.0
2975,55.0,3,50,13.0,0.0
2976,43.0,8,50,14.0,0.0
2977,48.0,34,58,15.0,0.0
2978,79.0,2,47,10.0,0.0
2979,79.0,6,47,11.0,0.0
2980,67.0,7,50,12.0,0.0
2981,55.0,3,50,13.0,0.0
2982,43.0,12,50,14.0,0.0
2983,79.0,2,50,10.0,0.0
2984,79.0,3,50,11.0,0.0
2985,67.0,7,50,12.0,0.0
2986,55.0,3,50,13.0,0.0
2987,43.0,8,50,14.0,0.0
2988,48.0,33,2,15.0,0.0
2989,79.0,2,47,10.0,0.0
2990,79.0,2,47,11.0,0.0
2991,67.0,1,50,12.0,0.0
2992,55.0,1,50,13.0,0.0
2993,43.0,1,50,14.0,0.0
2994,48.0,36,58,15.0,0.0
2995,84.0,2,50,10.0,0.0
2996,84.0,1,120,0.0,0.0
2997,84.0,3,50,11.0,0.0
2998,67.0,1,0,6.0,0.0
2999,79.0,0,240,6.0,0.0
3000,67.0,0,0,4.0,0.0
3001,55.0,0,0,4.0,0.0
3002,84.0,1,120,1.0,0.0
3003,72.0,7,50,12.0,0.0
3004,76.0,0,0,5.0,0.0
3005,84.0,8,120,2.0,0.0
3006,72.0,0,120,2.0,0.0
3007,64.0,1,0,5.0,0.0
3008,60.0,6,0,7.0,0.0
3009,60.0,3,50,13.0,0.0
3010,48.0,4,120,3.0,0.0
3011,60.0,0,120,3.0,0.0
3012,48.0,8,50,14.0,0.0
3013,48.0,34,58,15.0,0.0
3014,84.0,2,47,10.0,0.0
3015,84.0,6,47,11.0,0.0
3016,72.0,6,50,12.0,0.0
3017,60.0,2,50,13.0,0.0
3018,48.0,1,50,14.0,0.0
3019,79.0,2,50,10.0,0.0
3020,79.0,3,110,0.0,0.0
3021,79.0,3,50,11.0,0.0
3022,79.0,1,110,1.0,0.0
3023,67.0,7,50,12.0,0.0
3024,79.0,0,110,2.0,0.0
3025,67.0,6,110,2.0,0.0
3026,55.0,3,50,13.0,0.0
3027,43.0,0,110,3.0,0.0
3028,55.0,0,110,3.0,0.0
3029,48.0,32,3,15.0,0.0
3030,43.0,8,50,14.0,0.0
3031,79.0,2,47,10.0,0.0
3032,79.0,2,47,11.0,0.0
3033,67.0,1,50,12.0,0.0
3034,55.0,1,50,13.0,0.0
3035,43.0,1,50,14.0,0.0
3036,48.0,34,58,15.0,0.0
3037,77.0,2,50,10.0,0.0
3038,77.0,1,60,0.0,0.0
3039,77.0,3,50,11.0,0.0
3040,79.0,1,90,6.0,0.0
3041,67.0,1,0,6.0,0.0
3042,77.0,1,60,1.0,0.0
3043,64.0,1,0,7.0,0.0
3044,65.0,6,50,12.0,0.0
3045,77.0,8,60,2.0,0.0
3046,65.0,0,60,2.0,0.0
3047,64.0,1,0,5.0,0.0
3048,76.0,11,90,5.0,0.0
3049,60.0,6,0,7.0,0.0
3050,53.0,2,50,13.0,0.0
3051,48.0,3,0,8.0,0.0
3052,53.0,1,60,3.0,0.0
3053,41.0,0,60,3.0,0.0
3054,41.0,1,50,14.0,0.0
3055,77.0,2,47,10.0,0.0
3056,77.0,6,47,11.0,0.0
3057,65.0,7,50,12.0,0.0
3058,53.0,2,50,13.0,0.0
3059,48.0,18,1,15.0,0.0
3060,41.0,2,50,14.0,0.0
3061,76.0,2,50,10.0,0.0
3062,76.0,1,60,0.0,0.0
3063,76.0,3,50,11.0,0.0
3064,79.0,0,90,6.0,0.0
3065,67.0,1,90,6.0,0.0
3066,67.0,1,0,4.0,0.0
3067,55.0,0,0,4.0,0.0
3068,76.0,1,60,1.0,0.0
3069,64.0,2,90,7.0,0.0
3070,64.0,6,50,12.0,0.0
3071,76.0,0,60,2.0,0.0
3072,64.0,8,60,2.0,0.0
3073,64.0,11,90,5.0,0.0
3074,76.0,0,90,5.0,0.0
3075,52.0,2,50,13.0,0.0
3076,48.0,37,0,8.0,0.0
3077,40.0,0,60,3.0,0.0
3078,52.0,3,60,3.0,0.0
3079,40.0,1,50,14.0,0.0
3080,48.0,16,58,15.0,0.0
3081,76.0,2,47,10.0,0.0
3082,76.0,6,47,11.0,0.0
3083,64.0,7,50,12.0,0.0
3084,52.0,2,50,13.0,0.0
3085,40.0,2,50,14.0,0.0
3086,76.0,2,50,10.0,0.0
3087,76.0,0,470,0.0,0.0
3088,88.0,3,470,0.0,0.0
3089,76.0,3,50,11.0,0.0
3090,67.0,1,600,6.0,0.0
3091,79.0,0,600,6.0,0.0
3092,76.0,1,470,1.0,0.0
3093,67.0,0,0,4.0,0.0
3094,55.0,1,0,4.0,0.0
3095,64.0,7,50,12.0,0.0
3096,76.0,6,470,2.0,0.0
3097,76.0,0,600,5.0,0.0
3098,64.0,1,600,5.0,0.0
3099,64.0,0,470,2.0,0.0
3100,60.0,6,0,7.0,0.0
3101,52.0,3,50,13.0,0.0
3102,52.0,0,470,3.0,0.0
3103,40.0,0,470,3.0,0.0
3104,40.0,9,50,14.0,0.0
3105,48.0,33,1,15.0,0.0
3106,76.0,2,47,10.0,0.0
3107,76.0,6,47,11.0,0.0
3108,64.0,7,50,12.0,0.0
3109,52.0,3,50,13.0,0.0
3110,40.0,10,50,14.0,0.0
3111,48.0,35,58,15.0,0.0
3112,76.0,2,50,10.0,0.0
3113,76.0,3,50,11.0,0.0
3114,64.0,7,50,12.0,0.0
3115,52.0,3,50,13.0,0.0
3116,40.0,13,50,14.0,0.0
3117,76.0,2,47,10.0,0.0
3118,76.0,6,47,11.0,0.0
3119,64.0,7,50,12.0,0.0
3120,52.0,3,50,13.0,0.0
3121,48.0,29,5,15.0,0.0
3122,40.0,6,50,14.0,0.0
3123,76.0,2,50,10.0,0.0
3124,76.0,3,50,11.0,0.0
3125,64.0,7,50,12.0,0.0
3126,52.0,3,50,13.0,0.0
3127,40.0,13,50,14.0,0.0
3128,76.0,2,47,10.0,0.0
3129,76.0,6,47,11.0,0.0
3130,64.0,7,50,12.0,0.0
3131,52.0,3,50,13.0,0.0
3132,40.0,10,50,14.0,0.0
3133,48.0,29,1,15.0,0.0
3134,76.0,2,50,10.0,0.0
3135,76.0,3,50,11.0,0.0
3136,64.0,7,50,12.0,0.0
3137,52.0,3,50,13.0,0.0
3138,48.0,35,2,15.0,0.0
3139,40.0,6,50,14.0,0.0
3140,76.0,2,47,10.0,0.0
3141,76.0,2,47,11.0,0.0
3142,64.0,1,50,12.0,0.0
3143,52.0,2,50,13.0,0.0
3144,40.0,2,50,14.0,0.0
3145,79.0,1,60,10.0,0.0
3146,91.0,3,60,0.0,0.0
3147,79.0,0,60,0.0,0.0
3148,79.0,3,50,11.0,0.0
3149,64.0,1,0,7.0,0.0
3150,79.0,2,60,1.0,0.0
3151,60.0,0,50,12.0,0.0
3152,64.0,5,50,12.0,0.0
3153,79.0,8,60,2.0,0.0
3154,60.0,6,0,7.0,0.0
3155,48.0,1,120,13.0,0.0
3156,48.0,2,0,8.0,0.0
3157,67.0,36,60,3.0,0.0
3158,48.0,37,1,15.0,0.0
3159,36.0,15,120,14.0,0.0
3160,76.0,1,50,10.0,0.0
3161,76.0,0,50,0.0,0.0
3162,88.0,1,50,0.0,0.0
3163,67.0,0,50,11.0,0.0
3164,55.0,2,50,11.0,0.0
3165,76.0,1,50,1.0,0.0
3166,60.0,1,50,12.0,0.0
3167,64.0,0,50,12.0,0.0
3168,76.0,7,50,2.0,0.0
3169,64.0,0,50,3.0,0.0
3170,74.0,1,30,10.0,0.0
3171,74.0,3,30,0.0,0.0
3172,86.0,0,30,0.0,0.0
3173,55.0,3,50,11.0,0.0
3174,67.0,0,50,11.0,0.0
3175,74.0,2,30,1.0,0.0
3176,64.0,35,50,12.0,0.0
3177,60.0,0,50,12.0,0.0
3178,74.0,8,30,2.0,0.0
3179,62.0,8,30,3.0,0.0
3180,72.0,1,30,10.0,0.0
3181,72.0,3,30,0.0,0.0
3182,84.0,0,30,0.0,0.0
3183,55.0,3,50,11.0,0.0
3184,67.0,0,50,11.0,0.0
3185,72.0,2,30,1.0,0.0
3186,60.0,57,50,12.0,0.0
3187,64.0,0,50,12.0,0.0
3188,72.0,8,30,2.0,0.0
3189,60.0,8,30,3.0,0.0
3190,76.0,1,60,10.0,0.0
3191,76.0,3,60,0.0,0.0
3192,88.0,0,60,0.0,0.0
3193,55.0,3,50,11.0,0.0
3194,67.0,0,50,11.0,0.0
3195,76.0,2,60,1.0,0.0
3196,60.0,5,50,12.0,0.0
3197,64.0,0,50,12.0,0.0
3198,76.0,8,60,2.0,0.0
3199,64.0,36,60,3.0,0.0
3200,72.0,1,50,10.0,0.0
3201,84.0,0,50,0.0,0.0
3202,72.0,1,50,0.0,0.0
3203,55.0,2,50,11.0,0.0
3204,67.0,0,50,11.0,0.0
3205,72.0,1,50,1.0,0.0
3206,60.0,0,50,12.0,0.0
3207,64.0,1,50,12.0,0.0
3208,72.0,8,50,2.0,0.0
3209,60.0,26,50,3.0,0.0
3210,69.0,1,30,10.0,0.0
3211,81.0,3,30,0.0,0.0
3212,69.0,0,30,0.0,0.0
3213,55.0,3,50,11.0,0.0
3214,67.0,0,50,11.0,0.0
3215,69.0,2,30,1.0,0.0
3216,64.0,0,50,12.0,0.0
3217,60.0,35,50,12.0,0.0
3218,69.0,8,30,2.0,0.0
3219,57.0,8,30,3.0,0.0
3220,67.0,1,30,10.0,0.0
3221,67.0,3,30,0.0,0.0
3222,79.0,0,30,0.0,0.0
3223,67.0,0,50,11.0,0.0
3224,55.0,3,50,11.0,0.0
3225,67.0,2,30,1.0,0.0
3226,64.0,57,50,12.0,0.0
3227,60.0,0,50,12.0,0.0
3228,67.0,8,30,2.0,0.0
3229,55.0,8,30,3.0,0.0
3230,72.0,1,60,10.0,0.0
3231,72.0,3,60,0.0,0.0
3232,84.0,0,60,0.0,0.0
3233,67.0,3,50,11.0,0.0
3234,55.0,0,50,11.0,0.0
3235,72.0,2,60,1.0,0.0
3236,64.0,5,50,12.0,0.0
3237,60.0,0,50,12.0,0.0
3238,72.0,8,60,2.0,0.0
3239,60.0,36,60,3.0,0.0
3240,67.0,1,50,10.0,0.0
3241,67.0,1,50,0.0,0.0
3242,79.0,0,50,0.0,0.0
3243,67.0,2,50,11.0,0.0
3244,55.0,0,50,11.0,0.0
3245,67.0,1,50,1.0,0.0
3246,64.0,1,50,12.0,0.0
3247,60.0,0,50,12.0,0.0
3248,67.0,8,50,2.0,0.0
3249,55.0,26,50,3.0,0.0
3250,65.0,1,30,10.0,0.0
3251,77.0,3,30,0.0,0.0
3252,65.0,0,30,0.0,0.0
3253,55.0,0,50,11.0,0.0
3254,67.0,3,50,11.0,0.0
3255,65.0,2,30,1.0,0.0
3256,60.0,35,50,12.0,0.0
3257,64.0,0,50,12.0,0.0
3258,65.0,8,30,2.0,0.0
3259,53.0,8,30,3.0,0.0
3260,64.0,1,30,10.0,0.0
3261,76.0,3,30,0.0,0.0
3262,64.0,0,30,0.0,0.0
3263,55.0,3,50,11.0,0.0
3264,67.0,0,50,11.0,0.0
3265,64.0,2,30,1.0,0.0
3266,64.0,57,50,12.0,0.0
3267,60.0,0,50,12.0,0.0
3268,64.0,8,30,2.0,0.0
3269,52.0,8,30,3.0,0.0
3270,67.0,1,60,10.0,0.0
3271,79.0,0,60,0.0,0.0
3272,67.0,3,60,0.0,0.0
3273,55.0,0,50,11.0,0.0
3274,67.0,3,50,11.0,0.0
3275,67.0,2,60,1.0,0.0
3276,60.0,5,50,12.0,0.0
3277,64.0,0,50,12.0,0.0
3278,67.0,8,60,2.0,0.0
3279,55.0,36,60,3.0,0.0
3280,64.0,1,50,10.0,0.0
3281,64.0,1,50,0.0,0.0
3282,76.0,0,50,0.0,0.0
3283,55.0,0,50,11.0,0.0
3284,67.0,2,50,11.0,0.0
3285,64.0,1,50,1.0,0.0
3286,64.0,0,50,12.0,0.0
3287,60.0,1,50,12.0,0.0
3288,64.0,8,50,2.0,0.0
3289,52.0,26,50,3.0,0.0
3290,62.0,1,30,10.0,0.0
3291,74.0,0,30,0.0,0.0
3292,62.0,3,30,0.0,0.0
3293,67.0,3,50,11.0,0.0
3294,55.0,0,50,11.0,0.0
3295,62.0,2,30,1.0,0.0
3296,60.0,0,50,12.0,0.0
3297,64.0,35,50,12.0,0.0
3298,62.0,8,30,2.0,0.0
3299,50.0,8,30,3.0,0.0
3300,60.0,1,30,10.0,0.0
3301,72.0,3,30,0.0,0.0
3302,60.0,0,30,0.0,0.0
3303,67.0,3,50,11.0,0.0
3304,55.0,0,50,11.0,0.0
3305,60.0,2,30,1.0,0.0
3306,60.0,55,50,12.0,0.0
3307,64.0,0,50,12.0,0.0
3308,60.0,8,30,2.0,0.0
3309,48.0,8,30,3.0,0.0
3310,55.0,2,50,10.0,0.0
3311,86.0,1,1070,0.0,0.0
3312,91.0,0,1070,0.0,0.0
3313,67.0,0,50,11.0,0.0
3314,55.0,3,50,11.0,0.0
3315,79.0,0,1080,6.0,0.0
3316,67.0,1,1080,6.0,0.0
3317,67.0,0,1080,7.0,0.0
3318,55.0,3,1080,4.0,0.0
3319,67.0,0,1080,4.0,0.0
3320,83.0,0,950,1.0,0.0
3321,79.0,1,950,1.0,0.0
3322,62.0,13,50,12.0,0.0
3323,59.0,0,50,12.0,0.0
3324,71.0,8,950,2.0,0.0
3325,74.0,0,950,2.0,0.0
3326,62.0,1,1080,7.0,0.0
3327,43.0,4,60,15.0,0.0
3328,65.0,3,60,13.0,0.0
3329,53.0,2,1080,8.0,0.0
3330,65.0,0,950,3.0,0.0
3331,62.0,4,950,3.0,0.0
3332,53.0,35,60,14.0,0.0
3333,79.0,2,50,10.0,0.0
3334,55.0,3,50,11.0,0.0
3335,67.0,0,50,11.0,0.0
3336,59.0,0,50,12.0,0.0
3337,62.0,7,50,12.0,0.0
3338,62.0,3,50,13.0,0.0
3339,50.0,3,50,14.0,0.0
3340,79.0,2,50,10.0,0.0
3341,67.0,0,50,11.0,0.0
3342,55.0,3,50,11.0,0.0
3343,59.0,0,50,12.0,0.0
3344,62.0,13,50,12.0,0.0
3345,43.0,34,0,15.0,0.0
3346,60.0,3,30,13.0,0.0
3347,48.0,5,30,14.0,0.0
3348,79.0,2,50,10.0,0.0
3349,55.0,0,50,11.0,0.0
3350,67.0,3,50,11.0,0.0
3351,59.0,0,50,12.0,0.0
3352,62.0,13,50,12.0,0.0
3353,43.0,34,0,15.0,0.0
3354,59.0,3,30,13.0,0.0
3355,47.0,5,30,14.0,0.0
3356,79.0,2,50,10.0,0.0
3357,55.0,0,50,11.0,0.0
3358,67.0,3,50,11.0,0.0
3359,62.0,13,50,12.0,0.0
3360,59.0,0,50,12.0,0.0
3361,62.0,3,60,13.0,0.0
3362,50.0,35,60,14.0,0.0
3363,79.0,2,50,10.0,0.0
3364,55.0,0,50,11.0,0.0
3365,67.0,3,50,11.0,0.0
3366,62.0,0,50,12.0,0.0
3367,59.0,7,50,12.0,0.0
3368,43.0,4,0,15.0,0.0
3369,59.0,3,50,13.0,0.0
3370,47.0,3,50,14.0,0.0
3371,79.0,2,50,10.0,0.0
3372,55.0,0,50,11.0,0.0
3373,67.0,3,50,11.0,0.0
3374,62.0,0,50,12.0,0.0
3375,59.0,13,50,12.0,0.0
3376,43.0,34,0,15.0,0.0
3377,55.0,3,30,13.0,0.0
3378,43.0,5,30,14.0,0.0
3379,79.0,2,50,10.0,0.0
3380,67.0,3,50,11.0,0.0
3381,55.0,0,50,11.0,0.0
3382,59.0,13,50,12.0,0.0
3383,62.0,0,50,12.0,0.0
3384,43.0,42,60,15.0,0.0
3385,53.0,3,30,13.0,0.0
3386,41.0,5,30,14.0,0.0
3387,79.0,2,50,10.0,0.0
3388,55.0,0,50,11.0,0.0
3389,67.0,3,50,11.0,0.0
3390,62.0,13,50,12.0,0.0
3391,59.0,0,50,12.0,0.0
3392,59.0,3,60,13.0,0.0
3393,47.0,35,60,14.0,0.0
3394,79.0,2,50,10.0,0.0
3395,55.0,3,50,11.0,0.0
3396,67.0,0,50,11.0,0.0
3397,59.0,7,50,12.0,0.0
3398,62.0,0,50,12.0,0.0
3399,43.0,4,0,15.0,0.0
3400,55.0,3,50,13.0,0.0
3401,43.0,3,50,14.0,0.0
3402,79.0,2,50,10.0,0.0
3403,67.0,0,50,11.0,0.0
3404,55.0,3,50,11.0,0.0
3405,62.0,0,50,12.0,0.0
3406,59.0,13,50,12.0,0.0
3407,53.0,3,30,13.0,0.0
3408,41.0,5,30,14.0,0.0
3409,79.0,2,50,10.0,0.0
3410,67.0,3,50,11.0,0.0
3411,55.0,0,50,11.0,0.0
3412,62.0,0,50,12.0,0.0
3413,59.0,13,50,12.0,0.0
3414,43.0,34,0,15.0,0.0
3415,50.0,3,30,13.0,0.0
3416,38.0,5,30,14.0,0.0
3417,79.0,2,50,10.0,0.0
3418,55.0,0,50,11.0,0.0
3419,67.0,3,50,11.0,0.0
3420,59.0,0,50,12.0,0.0
3421,62.0,13,50,12.0,0.0
3422,43.0,4,60,15.0,0.0
3423,53.0,3,60,13.0,0.0
3424,41.0,35,60,14.0,0.0
3425,79.0,2,50,10.0,0.0
3426,55.0,0,50,11.0,0.0
3427,67.0,3,50,11.0,0.0
3428,59.0,0,50,12.0,0.0
3429,62.0,7,50,12.0,0.0
3430,50.0,3,50,13.0,0.0
3431,38.0,3,50,14.0,0.0
3432,79.0,2,50,10.0,0.0
3433,55.0,0,50,11.0,0.0
3434,67.0,3,50,11.0,0.0
3435,62.0,0,50,12.0,0.0
3436,59.0,13,50,12.0,0.0
3437,43.0,34,0,15.0,0.0
3438,47.0,3,30,13.0,0.0
3439,35.0,5,30,14.0,0.0
3440,79.0,2,50,10.0,0.0
3441,55.0,2,50,11.0,0.0
3442,67.0,0,50,11.0,0.0
3443,62.0,0,50,12.0,0.0
3444,59.0,1,50,12.0,0.0
3445,43.0,3,30,13.0,0.0
3446,31.0,5,30,14.0,0.0
3447,86.0,6,60,10.0,0.0
3448,67.0,3,50,11.0,0.0
3449,55.0,0,50,11.0,0.0
3450,62.0,0,50,12.0,0.0
3451,59.0,5,50,12.0,0.0
3452,74.0,8,60,2.0,0.0
3453,43.0,44,0,15.0,0.0
3454,41.0,1,120,13.0,0.0
3455,62.0,36,60,3.0,0.0
3456,29.0,15,120,14.0,0.0
3457,83.0,1,50,10.0,0.0
3458,55.0,0,50,11.0,0.0
3459,67.0,3,50,11.0,0.0
3460,62.0,0,50,12.0,0.0
3461,59.0,1,50,12.0,0.0
3462,71.0,7,50,2.0,0.0
3463,59.0,0,50,3.0,0.0
3464,81.0,1,30,10.0,0.0
3465,81.0,3,30,0.0,0.0
3466,67.0,0,50,11.0,0.0
3467,55.0,3,50,11.0,0.0
3468,81.0,2,30,1.0,0.0
3469,62.0,0,50,12.0,0.0
3470,59.0,35,50,12.0,0.0
3471,69.0,8,30,2.0,0.0
3472,57.0,8,30,3.0,0.0
3473,79.0,1,30,10.0,0.0
3474,79.0,3,30,0.0,0.0
3475,55.0,3,50,11.0,0.0
3476,67.0,0,50,11.0,0.0
3477,79.0,2,30,1.0,0.0
3478,62.0,57,50,12.0,0.0
3479,59.0,0,50,12.0,0.0
3480,67.0,8,30,2.0,0.0
3481,55.0,8,30,3.0,0.0
3482,83.0,1,60,10.0,0.0
3483,83.0,3,60,0.0,0.0
3484,67.0,0,50,11.0,0.0
3485,55.0,3,50,11.0,0.0
3486,83.0,2,60,1.0,0.0
3487,62.0,5,50,12.0,0.0
3488,59.0,0,50,12.0,0.0
3489,71.0,8,60,2.0,0.0
3490,59.0,36,60,3.0,0.0
3491,79.0,1,50,10.0,0.0
3492,79.0,1,50,0.0,0.0
3493,55.0,2,50,11.0,0.0
3494,67.0,0,50,11.0,0.0
3495,79.0,1,50,1.0,0.0
3496,59.0,0,50,12.0,0.0
3497,62.0,1,50,12.0,0.0
3498,67.0,8,50,2.0,0.0
3499,55.0,26,50,3.0,0.0
3500,76.0,1,30,10.0,0.0
3501,76.0,3,30,0.0,0.0
3502,88.0,0,30,0.0,0.0
3503,67.0,3,50,11.0,0.0
3504,55.0,0,50,11.0,0.0
3505,76.0,2,30,1.0,0.0
3506,59.0,35,50,12.0,0.0
3507,62.0,0,50,12.0,0.0
3508,64.0,8,30,2.0,0.0
3509,52.0,8,30,3.0,0.0
3510,74.0,1,30,10.0,0.0
3511,74.0,0,30,0.0,0.0
3512,86.0,3,30,0.0,0.0
3513,55.0,3,50,11.0,0.0
3514,67.0,0,50,11.0,0.0
3515,74.0,2,30,1.0,0.0
3516,59.0,0,50,12.0,0.0
3517,62.0,57,50,12.0,0.0
3518,62.0,8,30,2.0,0.0
3519,50.0,8,30,3.0,0.0
3520,79.0,1,60,10.0,0.0
3521,79.0,3,60,0.0,0.0
3522,91.0,0,60,0.0,0.0
3523,67.0,3,50,11.0,0.0
3524,55.0,0,50,11.0,0.0
3525,79.0,2,60,1.0,0.0
3526,59.0,0,50,12.0,0.0
3527,62.0,5,50,12.0,0.0
3528,67.0,8,60,2.0,0.0
3529,55.0,36,60,3.0,0.0
3530,74.0,1,50,10.0,0.0
3531,74.0,1,50,0.0,0.0
3532,86.0,0,50,0.0,0.0
3533,67.0,0,50,11.0,0.0
3534,55.0,2,50,11.0,0.0
3535,74.0,1,50,1.0,0.0
3536,62.0,0,50,12.0,0.0
3537,59.0,1,50,12.0,0.0
3538,62.0,8,50,2.0,0.0
3539,50.0,26,50,3.0,0.0
3540,72.0,1,30,10.0,0.0
3541,72.0,3,30,0.0,0.0
3542,84.0,0,30,0.0,0.0
3543,67.0,3,50,11.0,0.0
3544,55.0,0,50,11.0,0.0
3545,72.0,2,30,1.0,0.0
3546,62.0,35,50,12.0,0.0
3547,59.0,0,50,12.0,0.0
3548,60.0,8,30,2.0,0.0
3549,48.0,8,30,3.0,0.0
3550,71.0,1,30,10.0,0.0
3551,83.0,0,30,0.0,0.0
3552,71.0,3,30,0.0,0.0
3553,67.0,3,50,11.0,0.0
3554,55.0,0,50,11.0,0.0
3555,71.0,2,30,1.0,0.0
3556,62.0,57,50,12.0,0.0
3557,59.0,0,50,12.0,0.0
3558,59.0,8,30,2.0,0.0
3559,47.0,8,30,3.0,0.0
3560,74.0,1,60,10.0,0.0
3561,86.0,3,60,0.0,0.0
3562,55.0,0,50,11.0,0.0
3563,67.0,3,50,11.0,0.0
3564,74.0,2,60,1.0,0.0
3565,59.0,5,50,12.0,0.0
3566,62.0,0,50,12.0,0.0
3567,62.0,8,60,2.0,0.0
3568,50.0,36,60,3.0,0.0
3569,71.0,1,50,10.0,0.0
3570,83.0,1,50,0.0,0.0
3571,55.0,2,50,11.0,0.0
3572,67.0,0,50,11.0,0.0
3573,71.0,1,50,1.0,0.0
3574,59.0,0,50,12.0,0.0
3575,62.0,1,50,12.0,0.0
3576,59.0,8,50,2.0,0.0
3577,47.0,26,50,3.0,0.0
3578,69.0,1,30,10.0,0.0
3579,81.0,3,30,0.0,0.0
3580,55.0,0,50,11.0,0.0
3581,67.0,3,50,11.0,0.0
3582,69.0,2,30,1.0,0.0
3583,62.0,0,50,12.0,0.0
3584,59.0,35,50,12.0,0.0
3585,57.0,8,30,2.0,0.0
3586,45.0,8,30,3.0,0.0
3587,67.0,1,30,10.0,0.0
3588,79.0,3,30,0.0,0.0
3589,55.0,3,50,11.0,0.0
3590,67.0,0,50,11.0,0.0
3591,67.0,2,30,1.0,0.0
3592,59.0,0,50,12.0,0.0
3593,62.0,55,50,12.0,0.0
3594,55.0,8,30,2.0,0.0
3595,43.0,8,30,3.0,0.0
3596,72.0,2,50,10.0,0.0
3597,91.0,1,950,0.0,0.0
3598,88.0,0,950,0.0,0.0
3599,67.0,3,50,11.0,0.0
3600,60.0,0,960,6.0,0.0
3601,72.0,1,960,6.0,0.0
3602,67.0,0,960,7.0,0.0
3603,48.0,0,960,4.0,0.0
3604,84.0,0,950,1.0,0.0
3605,79.0,1,950,1.0,0.0
3606,64.0,13,50,12.0,0.0
3607,60.0,0,50,12.0,0.0
3608,72.0,7,950,2.0,0.0
3609,76.0,0,950,2.0,0.0
3610,64.0,3,60,13.0,0.0
3611,48.0,47,960,8.0,0.0
3612,64.0,0,950,3.0,0.0
3613,60.0,0,950,3.0,0.0
3614,52.0,35,60,14.0,0.0
3615,84.0,2,50,10.0,0.0
3616,67.0,3,50,11.0,0.0
3617,72.0,0,50,11.0,0.0
3618,60.0,0,50,12.0,0.0
3619,64.0,7,50,12.0,0.0
3620,48.0,4,0,15.0,0.0
3621,60.0,3,50,13.0,0.0
3622,48.0,3,50,14.0,0.0
3623,84.0,2,50,10.0,0.0
3624,72.0,0,50,11.0,0.0
3625,67.0,3,50,11.0,0.0
3626,64.0,0,50,12.0,0.0
3627,60.0,13,50,12.0,0.0
3628,48.0,34,60,15.0,0.0
3629,57.0,3,30,13.0,0.0
3630,45.0,5,30,14.0,0.0
3631,84.0,2,50,10.0,0.0
3632,67.0,0,50,11.0,0.0
3633,72.0,3,50,11.0,0.0
3634,60.0,0,50,12.0,0.0
3635,64.0,13,50,12.0,0.0
3636,55.0,3,30,13.0,0.0
3637,43.0,5,30,14.0,0.0
3638,84.0,2,50,10.0,0.0
3639,72.0,0,50,11.0,0.0
3640,67.0,3,50,11.0,0.0
3641,60.0,13,50,12.0,0.0
3642,64.0,0,50,12.0,0.0
3643,48.0,42,0,15.0,0.0
3644,60.0,3,60,13.0,0.0
3645,48.0,35,60,14.0,0.0
3646,84.0,2,50,10.0,0.0
3647,72.0,0,50,11.0,0.0
3648,67.0,3,50,11.0,0.0
3649,64.0,7,50,12.0,0.0
3650,60.0,0,50,12.0,0.0
3651,48.0,4,0,15.0,0.0
3652,55.0,3,50,13.0,0.0
3653,43.0,3,50,14.0,0.0
3654,84.0,2,50,10.0,0.0
3655,72.0,3,50,11.0,0.0
3656,67.0,0,50,11.0,0.0
3657,60.0,0,50,12.0,0.0
3658,64.0,13,50,12.0,0.0
3659,48.0,34,0,15.0,0.0
3660,53.0,3,30,13.0,0.0
3661,41.0,5,30,14.0,0.0
3662,84.0,2,50,10.0,0.0
3663,67.0,0,50,11.0,0.0
3664,72.0,3,50,11.0,0.0
3665,60.0,0,50,12.0,0.0
3666,64.0,13,50,12.0,0.0
3667,48.0,34,0,15.0,0.0
3668,52.0,3,30,13.0,0.0
3669,40.0,5,30,14.0,0.0
3670,84.0,2,50,10.0,0.0
3671,67.0,0,50,11.0,0.0
3672,72.0,3,50,11.0,0.0
3673,64.0,13,50,12.0,0.0
3674,60.0,0,50,12.0,0.0
3675,48.0,42,0,15.0,0.0
3676,55.0,3,60,13.0,0.0
3677,43.0,35,60,14.0,0.0
3678,84.0,2,50,10.0,0.0
3679,67.0,0,50,11.0,0.0
3680,72.0,3,50,11.0,0.0
3681,60.0,7,50,12.0,0.0
3682,64.0,0,50,12.0,0.0
3683,48.0,34,60,15.0,0.0
3684,52.0,3,50,13.0,0.0
3685,40.0,3,50,14.0,0.0
3686,84.0,2,50,10.0,0.0
3687,72.0,3,50,11.0,0.0
3688,67.0,0,50,11.0,0.0
3689,60.0,0,50,12.0,0.0
3690,64.0,13,50,12.0,0.0
3691,48.0,3,30,13.0,0.0
3692,36.0,5,30,14.0,0.0
3693,84.0,2,50,10.0,0.0
3694,67.0,3,50,11.0,0.0
3695,72.0,0,50,11.0,0.0
3696,64.0,0,50,12.0,0.0
3697,60.0,13,50,12.0,0.0
3698,48.0,34,0,15.0,0.0
3699,43.0,3,30,13.0,0.0
3700,31.0,5,30,14.0,0.0
3701,84.0,2,50,10.0,0.0
3702,72.0,3,50,11.0,0.0
3703,67.0,0,50,11.0,0.0
3704,60.0,13,50,12.0,0.0
3705,64.0,0,50,12.0,0.0
3706,48.0,3,60,13.0,0.0
3707,36.0,35,60,14.0,0.0
3708,84.0,2,50,10.0,0.0
3709,72.0,3,50,11.0,0.0
3710,67.0,0,50,11.0,0.0
3711,60.0,0,50,12.0,0.0
3712,64.0,7,50,12.0,0.0
3713,48.0,4,0,15.0,0.0
3714,43.0,3,50,13.0,0.0
3715,43.0,3,50,14.0,0.0
3716,84.0,2,50,10.0,0.0
3717,72.0,3,50,11.0,0.0
3718,67.0,0,50,11.0,0.0
3719,64.0,13,50,12.0,0.0
3720,60.0,0,50,12.0,0.0
3721,48.0,34,60,15.0,0.0
3722,40.0,3,30,13.0,0.0
3723,40.0,5,30,14.0,0.0
3724,83.0,1,50,10.0,0.0
3725,71.0,2,50,11.0,0.0
3726,59.0,1,50,12.0,0.0
3727,48.0,5,60,15.0,0.0
3728,36.0,3,30,13.0,0.0
3729,36.0,5,30,14.0,0.0
3730,83.0,2,60,10.0,0.0
3731,89.0,0,110,0.0,0.0
3732,93.0,1,110,0.0,0.0
3733,71.0,3,60,11.0,0.0
3734,60.0,1,120,6.0,0.0
3735,72.0,0,120,6.0,0.0
3736,84.0,1,110,1.0,0.0
3737,60.0,3,0,4.0,0.0
3738,48.0,0,120,4.0,0.0
3739,81.0,0,110,1.0,0.0
3740,69.0,0,120,7.0,0.0
3741,59.0,45,60,12.0,0.0
3742,72.0,0,110,2.0,0.0
3743,69.0,6,110,2.0,0.0
3744,60.0,1,0,7.0,0.0
3745,48.0,5,120,15.0,0.0
3746,41.0,1,110,13.0,0.0
3747,53.0,17,120,8.0,0.0
3748,57.0,1,110,3.0,0.0
3749,29.0,2,110,14.0,0.0
3750,81.0,1,50,10.0,0.0
3751,69.0,2,50,11.0,0.0
3752,57.0,1,50,12.0,0.0
3753,81.0,2,30,10.0,0.0
3754,89.0,1,230,0.0,0.0
3755,93.0,0,230,0.0,0.0
3756,69.0,3,30,11.0,0.0
3757,84.0,0,230,1.0,0.0
3758,81.0,1,230,1.0,0.0
3759,57.0,55,30,12.0,0.0
3760,65.0,6,230,2.0,0.0
3761,69.0,0,230,2.0,0.0
3762,53.0,2,230,13.0,0.0
3763,57.0,0,230,3.0,0.0
3764,60.0,1,230,3.0,0.0
3765,41.0,25,230,14.0,0.0
3766,81.0,2,30,10.0,0.0
3767,69.0,3,30,11.0,0.0
3768,57.0,85,30,12.0,0.0
3769,81.0,2,60,10.0,0.0
3770,69.0,3,60,11.0,0.0
3771,57.0,45,60,12.0,0.0
3772,80.0,1,50,10.0,0.0
3773,68.0,2,50,11.0,0.0
3774,56.0,1,50,12.0,0.0
3775,83.0,2,30,10.0,0.0
3776,93.0,1,120,0.0,0.0
3777,89.0,0,120,0.0,0.0
3778,71.0,3,30,11.0,0.0
3779,48.0,0,120,4.0,0.0
3780,84.0,0,120,1.0,0.0
3781,81.0,1,120,1.0,0.0
3782,59.0,55,30,12.0,0.0
3783,65.0,0,120,2.0,0.0
3784,69.0,8,120,2.0,0.0
3785,53.0,2,110,13.0,0.0
3786,57.0,0,120,3.0,0.0
3787,60.0,46,120,3.0,0.0
3788,41.0,1,110,14.0,0.0
3789,81.0,2,30,10.0,0.0
3790,69.0,3,30,11.0,0.0
3791,57.0,26,30,12.0,0.0
3792,81.0,2,60,10.0,0.0
3793,69.0,3,60,11.0,0.0
3794,60.0,1,120,6.0,0.0
3795,72.0,0,120,6.0,0.0
3796,67.0,0,120,7.0,0.0
3797,48.0,1,120,4.0,0.0
3798,60.0,0,0,4.0,0.0
3799,57.0,45,60,12.0,0.0
3800,60.0,1,120,7.0,0.0
3801,48.0,5,120,15.0,0.0
3802,36.0,1,110,13.0,0.0
3803,48.0,17,120,8.0,0.0
3804,36.0,2,110,14.0,0.0
3805,79.0,2,50,10.0,0.0
3806,67.0,3,50,11.0,0.0
3807,55.0,7,50,12.0,0.0
3808,77.0,2,30,10.0,0.0
3809,88.0,1,230,0.0,0.0
3810,91.0,0,230,0.0,0.0
3811,65.0,3,30,11.0,0.0
3812,84.0,0,230,1.0,0.0
3813,79.0,1,230,1.0,0.0
3814,53.0,55,30,12.0,0.0
3815,64.0,0,230,2.0,0.0
3816,67.0,6,230,2.0,0.0
3817,48.0,2,230,13.0,0.0
3818,60.0,1,230,3.0,0.0
3819,55.0,0,230,3.0,0.0
3820,36.0,25,230,14.0,0.0
3821,76.0,2,30,10.0,0.0
3822,64.0,3,30,11.0,0.0
3823,52.0,85,30,12.0,0.0
3824,74.0,2,60,10.0,0.0
3825,62.0,3,60,11.0,0.0
3826,50.0,45,60,12.0,0.0
3827,72.0,1,50,10.0,0.0
3828,60.0,2,50,11.0,0.0
3829,48.0,1,50,12.0,0.0
3830,84.0,2,30,10.0,0.0
3831,91.0,1,120,0.0,0.0
3832,88.0,0,120,0.0,0.0
3833,72.0,3,30,11.0,0.0
3834,48.0,0,120,4.0,0.0
3835,79.0,0,120,1.0,0.0
3836,84.0,0,120,1.0,0.0
3837,60.0,55,30,12.0,0.0
3838,64.0,8,120,2.0,0.0
3839,67.0,0,120,2.0,0.0
3840,48.0,2,110,13.0,0.0
3841,55.0,46,120,3.0,0.0
3842,60.0,0,120,3.0,0.0
3843,36.0,1,110,14.0,0.0
3844,83.0,2,30,10.0,0.0
3845,71.0,3,30,11.0,0.0
3846,59.0,26,30,12.0,0.0
3847,83.0,2,60,10.0,0.0
3848,71.0,3,60,11.0,0.0
3849,60.0,0,120,6.0,0.0
3850,72.0,1,120,6.0,0.0
3851,69.0,1,120,7.0,0.0
3852,60.0,1,0,4.0,0.0
3853,48.0,0,120,4.0,0.0
3854,59.0,45,60,12.0,0.0
3855,60.0,1,120,7.0,0.0
3856,48.0,5,120,15.0,0.0
3857,41.0,1,110,13.0,0.0
3858,53.0,17,120,8.0,0.0
3859,29.0,2,110,14.0,0.0
3860,81.0,2,50,10.0,0.0
3861,69.0,3,50,11.0,0.0
3862,57.0,7,50,12.0,0.0
3863,81.0,2,30,10.0,0.0
3864,89.0,1,230,0.0,0.0
3865,93.0,0,230,0.0,0.0
3866,69.0,3,30,11.0,0.0
3867,84.0,1,230,1.0,0.0
3868,81.0,0,230,1.0,0.0
3869,57.0,55,30,12.0,0.0
3870,69.0,6,230,2.0,0.0
3871,65.0,0,230,2.0,0.0
3872,53.0,2,230,13.0,0.0
3873,57.0,1,230,3.0,0.0
3874,60.0,0,230,3.0,0.0
3875,41.0,25,230,14.0,0.0
3876,81.0,2,30,10.0,0.0
3877,69.0,3,30,11.0,0.0
3878,57.0,85,30,12.0,0.0
3879,81.0,2,60,10.0,0.0
3880,69.0,3,60,11.0,0.0
3881,57.0,45,60,12.0,0.0
3882,80.0,1,50,10.0,0.0
3883,68.0,2,50,11.0,0.0
3884,56.0,1,50,12.0,0.0
3885,83.0,2,30,10.0,0.0
3886,93.0,1,120,0.0,0.0
3887,89.0,0,120,0.0,0.0
3888,71.0,3,30,11.0,0.0
3889,48.0,0,120,4.0,0.0
3890,81.0,1,120,1.0,0.0
3891,84.0,0,120,1.0,0.0
3892,59.0,55,30,12.0,0.0
3893,69.0,8,120,2.0,0.0
3894,65.0,0,120,2.0,0.0
3895,53.0,2,110,13.0,0.0
3896,60.0,46,120,3.0,0.0
3897,57.0,0,120,3.0,0.0
3898,41.0,1,110,14.0,0.0
3899,81.0,2,30,10.0,0.0
3900,69.0,3,30,11.0,0.0
3901,57.0,26,30,12.0,0.0
3902,81.0,2,60,10.0,0.0
3903,69.0,3,60,11.0,0.0
3904,72.0,1,120,6.0,0.0
3905,60.0,0,120,6.0,0.0
3906,60.0,0,0,4.0,0.0
3907,48.0,0,120,4.0,0.0
3908,67.0,1,120,7.0,0.0
3909,57.0,45,60,12.0,0.0
3910,60.0,1,120,7.0,0.0
3911,48.0,5,120,15.0,0.0
3912,36.0,1,110,13.0,0.0
3913,48.0,17,120,8.0,0.0
3914,36.0,2,110,14.0,0.0
3915,79.0,2,50,10.0,0.0
3916,67.0,3,50,11.0,0.0
3917,55.0,7,50,12.0,0.0
3918,84.0,2,30,10.0,0.0
3919,91.0,1,120,0.0,0.0
3920,88.0,0,120,0.0,0.0
3921,72.0,3,30,11.0,0.0
3922,64.0,0,120,4.0,0.0
3923,60.0,0,120,4.0,0.0
3924,79.0,0,120,1.0,0.0
3925,84.0,1,120,1.0,0.0
3926,60.0,55,30,12.0,0.0
3927,64.0,8,120,2.0,0.0
3928,67.0,0,120,2.0,0.0
3929,48.0,2,110,13.0,0.0
3930,55.0,0,120,3.0,0.0
3931,60.0,46,120,3.0,0.0
3932,36.0,1,110,14.0,0.0
3933,76.0,2,30,10.0,0.0
3934,64.0,3,30,11.0,0.0
3935,52.0,26,30,12.0,0.0
3936,76.0,2,60,10.0,0.0
3937,64.0,3,60,11.0,0.0
3938,72.0,0,120,6.0,0.0
3939,60.0,1,120,6.0,0.0
3940,69.0,1,120,7.0,0.0
3941,52.0,45,60,12.0,0.0
3942,60.0,1,120,7.0,0.0
3943,48.0,5,120,15.0,0.0
3944,41.0,1,110,13.0,0.0
3945,53.0,17,120,8.0,0.0
3946,29.0,2,110,14.0,0.0
3947,74.0,2,50,10.0,0.0
3948,62.0,3,50,11.0,0.0
3949,50.0,7,50,12.0,0.0
3950,77.0,2,30,10.0,0.0
3951,93.0,1,120,0.0,0.0
3952,86.0,0,120,0.0,0.0
3953,65.0,3,30,11.0,0.0
3954,62.0,0,120,4.0,0.0
3955,60.0,1,120,4.0,0.0
3956,81.0,0,120,1.0,0.0
3957,84.0,0,120,1.0,0.0
3958,53.0,55,30,12.0,0.0
3959,62.0,0,120,2.0,0.0
3960,69.0,8,120,2.0,0.0
3961,53.0,2,110,13.0,0.0
3962,60.0,0,120,3.0,0.0
3963,57.0,46,120,3.0,0.0
3964,41.0,1,110,14.0,0.0
3965,81.0,2,30,10.0,0.0
3966,69.0,3,30,11.0,0.0
3967,57.0,26,30,12.0,0.0
3968,81.0,2,60,10.0,0.0
3969,69.0,3,60,11.0,0.0
3970,60.0,0,120,6.0,0.0
3971,72.0,1,120,6.0,0.0
3972,67.0,1,120,7.0,0.0
3973,57.0,45,60,12.0,0.0
3974,60.0,1,120,7.0,0.0
3975,48.0,5,120,15.0,0.0
3976,43.0,1,110,13.0,0.0
3977,55.0,17,120,8.0,0.0
3978,31.0,2,110,14.0,0.0
3979,72.0,2,50,10.0,0.0
3980,60.0,3,50,11.0,0.0
3981,48.0,7,50,12.0,0.0
3982,76.0,2,30,10.0,0.0
3983,91.0,1,120,0.0,0.0
3984,88.0,0,120,0.0,0.0
3985,64.0,3,30,11.0,0.0
3986,60.0,0,120,4.0,0.0
3987,64.0,0,120,4.0,0.0
3988,79.0,0,120,1.0,0.0
3989,84.0,1,120,1.0,0.0
3990,52.0,55,30,12.0,0.0
3991,64.0,8,120,2.0,0.0
3992,67.0,0,120,2.0,0.0
3993,55.0,2,110,13.0,0.0
3994,60.0,46,120,3.0,0.0
3995,55.0,0,120,3.0,0.0
3996,43.0,1,110,14.0,0.0
3997,79.0,2,30,10.0,0.0
3998,67.0,3,30,11.0,0.0
3999,55.0,26,30,12.0,0.0
4000,79.0,2,60,10.0,0.0
4001,67.0,3,60,11.0,0.0
4002,55.0,0,120,6.0,0.0
4003,67.0,1,120,6.0,0.0
4004,67.0,1,120,7.0,0.0
4005,55.0,45,60,12.0,0.0
4006,55.0,1,120,7.0,0.0
4007,43.0,5,120,15.0,0.0
4008,41.0,1,110,13.0,0.0
4009,53.0,17,120,8.0,0.0
4010,29.0,2,110,14.0,0.0
4011,71.0,2,50,10.0,0.0
4012,59.0,3,50,11.0,0.0
4013,50.0,7,50,12.0,0.0
4014,79.0,2,30,10.0,0.0
4015,88.0,0,120,0.0,0.0
4016,91.0,1,120,0.0,0.0
4017,67.0,3,30,11.0,0.0
4018,79.0,1,120,1.0,0.0
4019,62.0,0,120,4.0,0.0
4020,83.0,0,120,1.0,0.0
4021,55.0,0,120,4.0,0.0
4022,55.0,55,30,12.0,0.0
4023,67.0,8,120,2.0,0.0
4024,62.0,0,120,2.0,0.0
4025,53.0,2,110,13.0,0.0
4026,59.0,0,120,3.0,0.0
4027,55.0,46,120,3.0,0.0
4028,41.0,1,110,14.0,0.0
4029,79.0,2,30,10.0,0.0
4030,67.0,3,30,11.0,0.0
4031,55.0,26,30,12.0,0.0
4032,79.0,2,60,10.0,0.0
4033,67.0,3,60,11.0,0.0
4034,72.0,1,120,6.0,0.0
4035,60.0,0,120,6.0,0.0
4036,67.0,1,120,7.0,0.0
4037,55.0,45,60,12.0,0.0
4038,60.0,1,120,7.0,0.0
4039,48.0,5,120,15.0,0.0
4040,40.0,1,110,13.0,0.0
4041,52.0,17,120,8.0,0.0
4042,28.0,2,110,14.0,0.0
4043,76.0,2,50,10.0,0.0
4044,64.0,3,50,11.0,0.0
4045,52.0,7,50,12.0,0.0
4046,83.0,2,30,10.0,0.0
4047,88.0,0,120,0.0,0.0
4048,91.0,1,120,0.0,0.0
4049,71.0,3,30,11.0,0.0
4050,64.0,0,120,4.0,0.0
4051,84.0,1,120,1.0,0.0
4052,60.0,0,120,4.0,0.0
4053,79.0,0,120,1.0,0.0
4054,59.0,55,30,12.0,0.0
4055,64.0,0,120,2.0,0.0
4056,67.0,8,120,2.0,0.0
4057,52.0,2,110,13.0,0.0
4058,60.0,0,120,3.0,0.0
4059,55.0,46,120,3.0,0.0
4060,40.0,1,110,14.0,0.0
4061,84.0,2,30,10.0,0.0
4062,72.0,3,30,11.0,0.0
4063,60.0,26,30,12.0,0.0
4064,84.0,2,60,10.0,0.0
4065,72.0,3,60,11.0,0.0
4066,60.0,0,120,6.0,0.0
4067,72.0,1,120,6.0,0.0
4068,69.0,1,120,7.0,0.0
4069,60.0,45,60,12.0,0.0
4070,60.0,1,120,7.0,0.0
4071,48.0,5,120,15.0,0.0
4072,41.0,1,110,13.0,0.0
4073,53.0,17,120,8.0,0.0
4074,29.0,2,110,14.0,0.0
4075,74.0,2,50,10.0,0.0
4076,62.0,3,50,11.0,0.0
4077,50.0,7,50,12.0,0.0
4078,80.0,2,30,10.0,0.0
4079,93.0,0,120,0.0,0.0
4080,86.0,1,120,0.0,0.0
4081,68.0,3,30,11.0,0.0
4082,84.0,0,120,1.0,0.0
4083,62.0,0,120,4.0,0.0
4084,60.0,0,120,4.0,0.0
4085,81.0,1,120,1.0,0.0
4086,56.0,55,30,12.0,0.0
4087,69.0,0,120,2.0,0.0
4088,62.0,8,120,2.0,0.0
4089,53.0,2,110,13.0,0.0
4090,57.0,46,120,3.0,0.0
4091,60.0,0,120,3.0,0.0
4092,41.0,1,110,14.0,0.0
4093,81.0,2,30,10.0,0.0
4094,69.0,3,30,11.0,0.0
4095,57.0,26,30,12.0,0.0
4096,81.0,2,60,10.0,0.0
4097,69.0,3,60,11.0,0.0
4098,72.0,0,120,6.0,0.0
4099,60.0,1,120,6.0,0.0
4100,67.0,1,120,7.0,0.0
4101,57.0,45,60,12.0,0.0
4102,60.0,1,120,7.0,0.0
4103,48.0,5,120,15.0,0.0
4104,43.0,1,110,13.0,0.0
4105,55.0,17,120,8.0,0.0
4106,31.0,2,110,14.0,0.0
4107,72.0,2,50,10.0,0.0
4108,60.0,3,50,11.0,0.0
4109,48.0,7,50,12.0,0.0
4110,78.0,2,30,10.0,0.0
4111,91.0,0,120,0.0,0.0
4112,88.0,1,120,0.0,0.0
4113,66.0,3,30,11.0,0.0
4114,84.0,0,120,1.0,0.0
4115,64.0,0,120,4.0,0.0
4116,60.0,0,120,4.0,0.0
4117,79.0,1,120,1.0,0.0
4118,54.0,55,30,12.0,0.0
4119,67.0,0,120,2.0,0.0
4120,64.0,8,120,2.0,0.0
4121,55.0,2,110,13.0,0.0
4122,60.0,46,120,3.0,0.0
4123,55.0,0,120,3.0,0.0
4124,43.0,1,110,14.0,0.0
4125,79.0,2,30,10.0,0.0
4126,67.0,3,30,11.0,0.0
4127,55.0,26,30,12.0,0.0
4128,79.0,2,60,10.0,0.0
4129,67.0,3,60,11.0,0.0
4130,67.0,1,120,6.0,0.0
4131,55.0,0,120,6.0,0.0
4132,67.0,1,120,7.0,0.0
4133,55.0,45,60,12.0,0.0
4134,55.0,1,120,7.0,0.0
4135,43.0,5,120,15.0,0.0
4136,41.0,1,110,13.0,0.0
4137,53.0,17,120,8.0,0.0
4138,29.0,2,110,14.0,0.0
4139,71.0,2,50,10.0,0.0
4140,59.0,3,50,11.0,0.0
4141,50.0,7,50,12.0,0.0
4142,78.0,2,30,10.0,0.0
4143,88.0,1,120,0.0,0.0
4144,91.0,0,120,0.0,0.0
4145,66.0,3,30,11.0,0.0
4146,55.0,0,120,4.0,0.0
4147,83.0,0,120,1.0,0.0
4148,79.0,0,120,1.0,0.0
4149,62.0,1,120,4.0,0.0
4150,54.0,55,30,12.0,0.0
4151,62.0,8,120,2.0,0.0
4152,67.0,0,120,2.0,0.0
4153,53.0,2,110,13.0,0.0
4154,59.0,46,120,3.0,0.0
4155,55.0,0,120,3.0,0.0
4156,41.0,1,110,14.0,0.0
4157,79.0,2,30,10.0,0.0
4158,67.0,3,30,11.0,0.0
4159,55.0,26,30,12.0,0.0
4160,79.0,2,60,10.0,0.0
4161,67.0,3,60,11.0,0.0
4162,60.0,1,120,6.0,0.0
4163,72.0,0,120,6.0,0.0
4164,67.0,1,120,7.0,0.0
4165,55.0,45,60,12.0,0.0
4166,60.0,1,120,7.0,0.0
4167,48.0,5,120,15.0,0.0
4168,40.0,1,110,13.0,0.0
4169,52.0,17,120,8.0,0.0
4170,28.0,2,110,14.0,0.0
4171,76.0,2,50,10.0,0.0
4172,64.0,3,50,11.0,0.0
4173,52.0,7,50,12.0,0.0
4174,84.0,2,30,10.0,0.0
4175,88.0,0,120,0.0,0.0
4176,91.0,1,120,0.0,0.0
4177,72.0,3,30,11.0,0.0
4178,79.0,0,120,1.0,0.0
4179,84.0,0,120,1.0,0.0
4180,60.0,1,120,4.0,0.0
4181,64.0,0,120,4.0,0.0
4182,60.0,55,30,12.0,0.0
4183,64.0,0,120,2.0,0.0
4184,67.0,8,120,2.0,0.0
4185,52.0,2,110,13.0,0.0
4186,60.0,46,120,3.0,0.0
4187,55.0,0,120,3.0,0.0
4188,40.0,1,110,14.0,0.0
4189,84.0,2,30,10.0,0.0
4190,72.0,3,30,11.0,0.0
4191,60.0,26,30,12.0,0.0
4192,84.0,2,60,10.0,0.0
4193,72.0,3,60,11.0,0.0
4194,72.0,0,120,6.0,0.0
4195,60.0,1,120,6.0,0.0
4196,69.0,1,120,7.0,0.0
4197,60.0,45,60,12.0,0.0
4198,60.0,1,120,7.0,0.0
4199,48.0,5,120,15.0,0.0
4200,41.0,1,110,13.0,0.0
4201,53.0,17,120,8.0,0.0
4202,29.0,2,110,14.0,0.0
4203,74.0,2,50,10.0,0.0
4204,62.0,3,50,11.0,0.0
4205,50.0,7,50,12.0,0.0
4206,81.0,2,30,10.0,0.0
4207,86.0,0,120,0.0,0.0
4208,93.0,1,120,0.0,0.0
4209,69.0,3,30,11.0,0.0
4210,81.0,0,120,1.0,0.0
4211,84.0,0,120,1.0,0.0
4212,62.0,0,120,4.0,0.0
4213,60.0,1,120,4.0,0.0
4214,57.0,55,30,12.0,0.0
4215,69.0,0,120,2.0,0.0
4216,62.0,8,120,2.0,0.0
4217,53.0,2,110,13.0,0.0
4218,57.0,0,120,3.0,0.0
4219,60.0,46,120,3.0,0.0
4220,41.0,1,110,14.0,0.0
4221,81.0,2,30,10.0,0.0
4222,69.0,3,30,11.0,0.0
4223,57.0,26,30,12.0,0.0
4224,81.0,2,60,10.0,0.0
4225,69.0,3,60,11.0,0.0
4226,60.0,0,120,6.0,0.0
4227,72.0,1,120,6.0,0.0
4228,67.0,1,120,7.0,0.0
4229,57.0,45,60,12.0,0.0
4230,60.0,1,120,7.0,0.0
4231,48.0,5,120,15.0,0.0
4232,43.0,1,110,13.0,0.0
4233,55.0,17,120,8.0,0.0
4234,31.0,2,110,14.0,0.0
4235,72.0,2,50,10.0,0.0
4236,60.0,3,50,11.0,0.0
4237,48.0,7,50,12.0,0.0
4238,79.0,2,30,10.0,0.0
4239,88.0,1,120,0.0,0.0
4240,91.0,0,120,0.0,0.0
4241,67.0,3,30,11.0,0.0
4242,84.0,1,120,1.0,0.0
4243,79.0,0,120,1.0,0.0
4244,64.0,0,120,4.0,0.0
4245,60.0,0,120,4.0,0.0
4246,55.0,55,30,12.0,0.0
4247,67.0,0,120,2.0,0.0
4248,64.0,8,120,2.0,0.0
4249,55.0,2,110,13.0,0.0
4250,60.0,0,120,3.0,0.0
4251,55.0,46,120,3.0,0.0
4252,43.0,1,110,14.0,0.0
4253,79.0,2,30,10.0,0.0
4254,67.0,3,30,11.0,0.0
4255,55.0,26,30,12.0,0.0
4256,79.0,2,60,10.0,0.0
4257,67.0,3,60,11.0,0.0
4258,55.0,1,120,6.0,0.0
4259,67.0,0,120,6.0,0.0
4260,67.0,1,120,7.0,0.0
4261,55.0,45,60,12.0,0.0
4262,55.0,1,120,7.0,0.0
4263,43.0,5,120,15.0,0.0
4264,43.0,1,110,13.0,0.0
4265,43.0,17,120,8.0,0.0
4266,31.0,2,110,14.0,0.0
4267,71.0,2,50,10.0,0.0
4268,59.0,3,50,11.0,0.0
4269,50.0,7,50,12.0,0.0
4270,79.0,2,30,10.0,0.0
4271,91.0,3,110,0.0,0.0
4272,88.0,0,110,0.0,0.0
4273,67.0,3,30,11.0,0.0
4274,62.0,0,120,4.0,0.0
4275,55.0,0,120,4.0,0.0
4276,83.0,0,110,1.0,0.0
4277,79.0,2,110,1.0,0.0
4278,55.0,55,30,12.0,0.0
4279,62.0,0,110,2.0,0.0
4280,67.0,6,110,2.0,0.0
4281,55.0,2,110,13.0,0.0
4282,55.0,1,110,3.0,0.0
4283,59.0,0,110,3.0,0.0
4284,43.0,57,110,14.0,0.0
4285,79.0,2,30,10.0,0.0
4286,67.0,3,30,11.0,0.0
4287,55.0,16,30,12.0,0.0
4288,79.0,3,600,10.0,0.0
4289,84.0,1,350,0.0,0.0
4290,67.0,3,60,11.0,0.0
4291,55.0,0,240,6.0,0.0
4292,67.0,2,240,6.0,0.0
4293,76.0,1,350,1.0,0.0
4294,43.0,0,600,4.0,0.0
4295,72.0,0,350,1.0,0.0
4296,55.0,4,600,4.0,0.0
4297,55.0,47,60,12.0,0.0
4298,60.0,0,350,2.0,0.0
4299,64.0,8,350,2.0,0.0
4300,43.0,4,120,15.0,0.0
4301,52.0,3,120,13.0,0.0
4302,48.0,0,350,3.0,0.0
4303,52.0,28,350,3.0,0.0
4304,40.0,17,120,14.0,0.0
4305,72.0,3,50,11.0,0.0
4306,60.0,13,50,12.0,0.0
4307,76.0,3,30,11.0,0.0
4308,64.0,57,30,12.0,0.0
4309,48.0,1,110,13.0,0.0
4310,36.0,57,110,14.0,0.0
4311,76.0,3,30,11.0,0.0
4312,64.0,27,30,12.0,0.0
4313,67.0,3,60,11.0,0.0
4314,55.0,7,60,12.0,0.0
4315,45.0,3,60,13.0,0.0
4316,33.0,36,60,14.0,0.0
4317,72.0,2,50,11.0,0.0
4318,60.0,1,50,12.0,0.0
4319,88.0,0,110,0.0,0.0
4320,84.0,3,110,0.0,0.0
4321,76.0,3,30,11.0,0.0
4322,67.0,0,60,6.0,0.0
4323,55.0,5,60,6.0,0.0
4324,76.0,0,110,1.0,0.0
4325,72.0,2,110,1.0,0.0
4326,64.0,28,30,12.0,0.0
4327,60.0,0,110,2.0,0.0
4328,64.0,7,110,2.0,0.0
4329,43.0,3,60,13.0,0.0
4330,52.0,0,110,3.0,0.0
4331,48.0,4,110,3.0,0.0
4332,31.0,17,60,14.0,0.0
4333,76.0,3,30,11.0,0.0
4334,67.0,0,60,6.0,0.0
4335,55.0,1,60,6.0,0.0
4336,64.0,16,30,12.0,0.0
4337,43.0,4,0,15.0,0.0
4338,88.0,0,350,0.0,0.0
4339,84.0,1,350,0.0,0.0
4340,67.0,3,60,11.0,0.0
4341,55.0,1,120,6.0,0.0
4342,67.0,0,120,6.0,0.0
4343,72.0,1,350,1.0,0.0
4344,76.0,0,350,1.0,0.0
4345,55.0,47,60,12.0,0.0
4346,64.0,4,350,2.0,0.0
4347,60.0,0,350,2.0,0.0
4348,43.0,24,120,15.0,0.0
4349,43.0,1,470,13.0,0.0
4350,52.0,0,350,3.0,0.0
4351,48.0,0,350,3.0,0.0
4352,31.0,3,470,14.0,0.0
4353,72.0,3,50,11.0,0.0
4354,60.0,5,50,12.0,0.0
4355,84.0,4,120,10.0,0.0
4356,76.0,3,30,11.0,0.0
4357,48.0,0,120,4.0,0.0
4358,60.0,58,120,4.0,0.0
4359,64.0,57,30,12.0,0.0
4360,76.0,3,30,11.0,0.0
4361,64.0,25,30,12.0,0.0
4362,88.0,4,120,10.0,0.0
4363,67.0,3,60,11.0,0.0
4364,64.0,0,120,4.0,0.0
4365,52.0,28,120,4.0,0.0
4366,55.0,46,60,12.0,0.0
4367,72.0,2,50,11.0,0.0
4368,60.0,1,50,12.0,0.0
4369,91.0,6,105,10.0,0.0
4370,88.0,3,110,0.0,0.0
4371,84.0,0,110,0.0,0.0
4372,76.0,3,30,11.0,0.0
4373,67.0,0,60,6.0,0.0
4374,55.0,5,60,6.0,0.0
4375,76.0,2,110,1.0,0.0
4376,72.0,0,110,1.0,0.0
4377,64.0,28,30,12.0,0.0
4378,60.0,0,110,2.0,0.0
4379,64.0,6,110,2.0,0.0
4380,43.0,24,60,15.0,0.0
4381,52.0,0,110,3.0,0.0
4382,48.0,0,110,3.0,0.0
4383,76.0,3,30,11.0,0.0
4384,64.0,10,30,12.0,0.0
4385,91.0,3,600,10.0,0.0
4386,91.0,0,350,0.0,0.0
4387,89.0,1,350,0.0,0.0
4388,67.0,3,60,11.0,0.0
4389,67.0,1,0,6.0,0.0
4390,55.0,0,0,6.0,0.0
4391,67.0,0,0,4.0,0.0
4392,55.0,1,0,4.0,0.0
4393,65.0,0,960,7.0,0.0
4394,77.0,0,350,1.0,0.0
4395,74.0,1,350,1.0,0.0
4396,55.0,47,60,12.0,0.0
4397,62.0,0,350,2.0,0.0
4398,65.0,8,350,2.0,0.0
4399,59.0,1,960,7.0,0.0
4400,43.0,54,0,15.0,0.0
4401,53.0,3,120,13.0,0.0
4402,43.0,2,1080,8.0,0.0
4403,50.0,0,350,3.0,0.0
4404,53.0,28,350,3.0,0.0
4405,41.0,17,120,14.0,0.0
4406,71.0,3,50,11.0,0.0
4407,59.0,8,50,12.0,0.0
4408,74.0,3,30,11.0,0.0
4409,62.0,57,30,12.0,0.0
4410,50.0,3,110,13.0,0.0
4411,38.0,57,110,14.0,0.0
4412,74.0,3,30,11.0,0.0
4413,62.0,27,30,12.0,0.0
4414,67.0,3,60,11.0,0.0
4415,55.0,7,60,12.0,0.0
4416,45.0,3,60,13.0,0.0
4417,33.0,36,60,14.0,0.0
4418,71.0,2,50,11.0,0.0
4419,59.0,1,50,12.0,0.0
4420,91.0,3,110,0.0,0.0
4421,89.0,0,110,0.0,0.0
4422,74.0,3,30,11.0,0.0
4423,67.0,0,60,6.0,0.0
4424,74.0,0,110,1.0,0.0
4425,77.0,2,110,1.0,0.0
4426,62.0,28,30,12.0,0.0
4427,62.0,0,110,2.0,0.0
4428,65.0,7,110,2.0,0.0
4429,43.0,4,60,15.0,0.0
4430,43.0,3,60,13.0,0.0
4431,53.0,4,110,3.0,0.0
4432,50.0,0,110,3.0,0.0
4433,31.0,17,60,14.0,0.0
4434,74.0,3,30,11.0,0.0
4435,55.0,5,0,6.0,0.0
4436,62.0,16,30,12.0,0.0
4437,43.0,54,60,15.0,0.0
4438,89.0,0,350,0.0,0.0
4439,91.0,1,350,0.0,0.0
4440,67.0,3,60,11.0,0.0
4441,67.0,1,0,6.0,0.0
4442,55.0,0,120,6.0,0.0
4443,77.0,1,350,1.0,0.0
4444,74.0,0,350,1.0,0.0
4445,55.0,47,60,12.0,0.0
4446,65.0,0,350,2.0,0.0
4447,62.0,8,350,2.0,0.0
4448,43.0,24,120,15.0,0.0
4449,43.0,1,470,13.0,0.0
4450,53.0,0,350,3.0,0.0
4451,50.0,0,350,3.0,0.0
4452,31.0,2,470,14.0,0.0
4453,71.0,3,50,11.0,0.0
4454,59.0,5,50,12.0,0.0
4455,89.0,14,110,10.0,0.0
4456,74.0,3,30,11.0,0.0
4457,65.0,56,120,4.0,0.0
4458,62.0,57,30,12.0,0.0
4459,74.0,3,30,11.0,0.0
4460,62.0,15,30,12.0,0.0
4461,86.0,2,60,10.0,0.0
4462,67.0,3,60,11.0,0.0
4463,62.0,0,120,4.0,0.0
4464,55.0,46,60,12.0,0.0
4465,71.0,2,50,11.0,0.0
4466,59.0,1,50,12.0,0.0
4467,79.0,3,60,10.0,0.0
4468,89.0,0,110,0.0,0.0
4469,91.0,3,110,0.0,0.0
4470,74.0,3,30,11.0,0.0
4471,67.0,0,60,6.0,0.0
4472,55.0,5,60,6.0,0.0
4473,43.0,0,120,4.0,0.0
4474,74.0,2,110,1.0,0.0
4475,77.0,0,110,1.0,0.0
4476,62.0,25,30,12.0,0.0
4477,65.0,0,110,2.0,0.0
4478,62.0,6,110,2.0,0.0
4479,43.0,24,60,15.0,0.0
4480,53.0,0,110,3.0,0.0
4481,50.0,0,110,3.0,0.0
4482,74.0,3,30,11.0,0.0
4483,55.0,1,60,6.0,0.0
4484,67.0,0,60,6.0,0.0
4485,62.0,16,30,12.0,0.0
4486,43.0,54,60,15.0,0.0
4487,79.0,2,300,10.0,0.0
4488,84.0,1,350,0.0,0.0
4489,88.0,0,350,0.0,0.0
4490,67.0,3,60,11.0,0.0
4491,55.0,0,120,6.0,0.0
4492,67.0,1,120,6.0,0.0
4493,55.0,1,0,4.0,0.0
4494,76.0,0,350,1.0,0.0
4495,64.0,3,120,7.0,0.0
4496,72.0,1,350,1.0,0.0
4497,43.0,26,360,4.0,0.0
4498,55.0,47,60,12.0,0.0
4499,64.0,8,350,2.0,0.0
4500,60.0,0,350,2.0,0.0
4501,60.0,1,120,7.0,0.0
4502,43.0,4,120,15.0,0.0
4503,52.0,1,120,13.0,0.0
4504,52.0,0,350,3.0,0.0
4505,48.0,0,350,3.0,0.0
4506,40.0,17,120,14.0,0.0
4507,72.0,3,50,11.0,0.0
4508,60.0,8,50,12.0,0.0
4509,76.0,3,30,11.0,0.0
4510,64.0,57,30,12.0,0.0
4511,48.0,3,110,13.0,0.0
4512,36.0,55,110,14.0,0.0
4513,76.0,3,30,11.0,0.0
4514,64.0,27,30,12.0,0.0
4515,67.0,3,60,11.0,0.0
4516,55.0,7,60,12.0,0.0
4517,45.0,3,60,13.0,0.0
4518,33.0,35,60,14.0,0.0
4519,84.0,1,50,10.0,0.0
4520,72.0,2,50,11.0,0.0
4521,60.0,1,50,12.0,0.0
4522,84.0,2,30,10.0,0.0
4523,84.0,0,110,0.0,0.0
4524,88.0,3,110,0.0,0.0
4525,76.0,3,30,11.0,0.0
4526,55.0,0,60,6.0,0.0
4527,60.0,0,240,4.0,0.0
4528,48.0,4,240,4.0,0.0
4529,72.0,0,110,1.0,0.0
4530,76.0,2,110,1.0,0.0
4531,64.0,28,30,12.0,0.0
4532,64.0,7,110,2.0,0.0
4533,60.0,0,110,2.0,0.0
4534,43.0,4,60,15.0,0.0
4535,43.0,3,60,13.0,0.0
4536,48.0,0,110,3.0,0.0
4537,52.0,4,110,3.0,0.0
4538,31.0,15,60,14.0,0.0
4539,84.0,2,30,10.0,0.0
4540,76.0,3,30,11.0,0.0
4541,67.0,5,0,6.0,0.0
4542,64.0,16,30,12.0,0.0
4543,43.0,52,60,15.0,0.0
4544,84.0,2,60,10.0,0.0
4545,88.0,0,350,0.0,0.0
4546,84.0,1,350,0.0,0.0
4547,67.0,3,60,11.0,0.0
4548,67.0,1,0,6.0,0.0
4549,55.0,0,0,6.0,0.0
4550,72.0,0,350,1.0,0.0
4551,76.0,1,350,1.0,0.0
4552,55.0,45,60,12.0,0.0
4553,64.0,8,350,2.0,0.0
4554,60.0,0,350,2.0,0.0
4555,43.0,22,120,15.0,0.0
4556,43.0,1,470,13.0,0.0
4557,52.0,0,350,3.0,0.0
4558,48.0,0,350,3.0,0.0
4559,31.0,3,470,14.0,0.0
4560,88.0,2,50,10.0,0.0
4561,72.0,3,50,11.0,0.0
4562,60.0,8,50,12.0,0.0
4563,88.0,2,30,10.0,0.0
4564,76.0,3,30,11.0,0.0
4565,64.0,0,240,4.0,0.0
4566,52.0,26,240,4.0,0.0
4567,64.0,55,30,12.0,0.0
4568,88.0,2,30,10.0,0.0
4569,76.0,3,30,11.0,0.0
4570,64.0,85,30,12.0,0.0
4571,88.0,2,60,10.0,0.0
4572,67.0,3,60,11.0,0.0
4573,55.0,45,60,12.0,0.0
4574,91.0,1,50,10.0,0.0
4575,72.0,2,50,11.0,0.0
4576,60.0,1,50,12.0,0.0
4577,91.0,2,30,10.0,0.0
4578,88.0,3,110,0.0,0.0
4579,84.0,0,110,0.0,0.0
4580,76.0,3,30,11.0,0.0
4581,55.0,5,60,6.0,0.0
4582,67.0,0,60,6.0,0.0
4583,72.0,0,110,1.0,0.0
4584,55.0,0,120,4.0,0.0
4585,76.0,2,110,1.0,0.0
4586,64.0,28,30,12.0,0.0
4587,64.0,0,110,2.0,0.0
4588,60.0,6,110,2.0,0.0
4589,52.0,0,110,3.0,0.0
4590,48.0,1,110,3.0,0.0
4591,91.0,2,30,10.0,0.0
4592,76.0,3,30,11.0,0.0
4593,67.0,0,60,6.0,0.0
4594,64.0,16,30,12.0,0.0
4595,43.0,22,0,15.0,0.0
4596,91.0,3,600,10.0,0.0
4597,91.0,1,350,0.0,0.0
4598,89.0,0,350,0.0,0.0
4599,67.0,3,60,11.0,0.0
4600,67.0,0,120,6.0,0.0
4601,55.0,1,0,6.0,0.0
4602,67.0,0,0,4.0,0.0
4603,77.0,1,110,1.0,0.0
4604,74.0,0,110,1.0,0.0
4605,55.0,0,480,4.0,0.0
4606,65.0,0,960,7.0,0.0
4607,55.0,47,60,12.0,0.0
4608,65.0,0,110,2.0,0.0
4609,62.0,7,110,2.0,0.0
4610,59.0,1,960,7.0,0.0
4611,43.0,4,120,15.0,0.0
4612,53.0,3,120,13.0,0.0
4613,53.0,4,110,3.0,0.0
4614,50.0,0,110,3.0,0.0
4615,41.0,17,120,14.0,0.0
4616,71.0,2,50,11.0,0.0
4617,59.0,1,50,12.0,0.0
4618,74.0,3,30,11.0,0.0
4619,77.0,1,120,1.0,0.0
4620,74.0,0,120,1.0,0.0
4621,62.0,57,30,12.0,0.0
4622,65.0,8,120,2.0,0.0
4623,62.0,0,120,2.0,0.0
4624,50.0,2,110,13.0,0.0
4625,53.0,48,120,3.0,0.0
4626,50.0,0,120,3.0,0.0
4627,38.0,1,110,14.0,0.0
4628,74.0,3,30,11.0,0.0
4629,62.0,27,30,12.0,0.0
4630,67.0,3,60,11.0,0.0
4631,55.0,7,60,12.0,0.0
4632,45.0,3,60,13.0,0.0
4633,33.0,36,60,14.0,0.0
4634,71.0,3,50,11.0,0.0
4635,59.0,37,50,12.0,0.0
4636,89.0,3,110,0.0,0.0
4637,91.0,0,110,0.0,0.0
4638,74.0,3,30,11.0,0.0
4639,77.0,0,50,1.0,0.0
4640,74.0,2,50,1.0,0.0
4641,62.0,19,30,12.0,0.0
4642,62.0,7,50,2.0,0.0
4643,65.0,0,50,2.0,0.0
4644,43.0,3,60,13.0,0.0
4645,50.0,0,50,3.0,0.0
4646,53.0,4,50,3.0,0.0
4647,31.0,17,60,14.0,0.0
4648,74.0,3,30,11.0,0.0
4649,67.0,0,0,6.0,0.0
4650,55.0,1,0,6.0,0.0
4651,77.0,0,50,1.0,0.0
4652,74.0,2,50,1.0,0.0
4653,62.0,16,30,12.0,0.0
4654,65.0,7,50,2.0,0.0
4655,62.0,0,50,2.0,0.0
4656,43.0,4,0,15.0,0.0
4657,50.0,4,50,3.0,0.0
4658,53.0,0,50,3.0,0.0
4659,91.0,1,350,0.0,0.0
4660,89.0,0,350,0.0,0.0
4661,67.0,3,60,11.0,0.0
4662,55.0,1,0,6.0,0.0
4663,67.0,0,0,6.0,0.0
4664,74.0,0,110,1.0,0.0
4665,77.0,1,110,1.0,0.0
4666,55.0,47,60,12.0,0.0
4667,62.0,4,110,2.0,0.0
4668,65.0,0,110,2.0,0.0
4669,43.0,54,0,15.0,0.0
4670,53.0,3,120,13.0,0.0
4671,50.0,0,110,3.0,0.0
4672,53.0,4,110,3.0,0.0
4673,41.0,17,120,14.0,0.0
4674,71.0,2,50,11.0,0.0
4675,59.0,1,50,12.0,0.0
4676,89.0,12,110,10.0,0.0
4677,74.0,3,30,11.0,0.0
4678,65.0,0,120,4.0,0.0
4679,77.0,0,120,1.0,0.0
4680,74.0,1,120,1.0,0.0
4681,43.0,0,0,4.0,0.0
4682,62.0,57,30,12.0,0.0
4683,65.0,8,120,2.0,0.0
4684,62.0,0,120,2.0,0.0
4685,50.0,2,110,13.0,0.0
4686,50.0,46,120,3.0,0.0
4687,53.0,0,120,3.0,0.0
4688,38.0,1,110,14.0,0.0
4689,74.0,3,30,11.0,0.0
4690,62.0,15,30,12.0,0.0
4691,86.0,2,60,10.0,0.0
4692,67.0,3,60,11.0,0.0
4693,62.0,28,120,4.0,0.0
4694,43.0,0,120,4.0,0.0
4695,55.0,7,60,12.0,0.0
4696,45.0,3,60,13.0,0.0
4697,33.0,36,60,14.0,0.0
4698,71.0,3,50,11.0,0.0
4699,59.0,9,50,12.0,0.0
4700,79.0,4,60,10.0,0.0
4701,89.0,3,110,0.0,0.0
4702,91.0,0,110,0.0,0.0
4703,74.0,3,30,11.0,0.0
4704,77.0,2,50,1.0,0.0
4705,74.0,0,50,1.0,0.0
4706,43.0,0,120,4.0,0.0
4707,62.0,19,30,12.0,0.0
4708,62.0,4,50,2.0,0.0
4709,65.0,0,50,2.0,0.0
4710,43.0,4,60,15.0,0.0
4711,43.0,3,60,13.0,0.0
4712,53.0,0,50,3.0,0.0
4713,50.0,4,50,3.0,0.0
4714,31.0,17,60,14.0,0.0
4715,74.0,3,30,11.0,0.0
4716,77.0,0,50,1.0,0.0
4717,74.0,2,50,1.0,0.0
4718,62.0,16,30,12.0,0.0
4719,62.0,7,50,2.0,0.0
4720,65.0,0,50,2.0,0.0
4721,50.0,3,50,3.0,0.0
4722,53.0,0,50,3.0,0.0
4723,91.0,1,120,10.0,0.0
4724,91.0,0,120,0.0,0.0
4725,88.0,2,120,0.0,0.0
4726,76.0,3,43,11.0,0.0
4727,55.0,1,0,6.0,0.0
4728,67.0,0,0,6.0,0.0
4729,67.0,0,120,4.0,0.0
4730,55.0,0,0,4.0,0.0
4731,79.0,0,120,1.0,0.0
4732,64.0,0,120,7.0,0.0
4733,64.0,57,43,12.0,0.0
4734,60.0,1,120,2.0,0.0
4735,60.0,1,120,7.0,0.0
4736,43.0,5,0,15.0,0.0
4737,55.0,1,120,13.0,0.0
4738,43.0,32,0,8.0,0.0
4739,67.0,0,120,3.0,0.0
4740,55.0,1,120,3.0,0.0
4741,43.0,30,120,14.0,0.0
4742,76.0,3,43,11.0,0.0
4743,64.0,12,43,12.0,0.0
4744,88.0,6,110,10.0,0.0
4745,88.0,3,115,0.0,0.0
4746,88.0,3,43,11.0,0.0
4747,52.0,0,120,4.0,0.0
4748,64.0,1,120,4.0,0.0
4749,76.0,2,115,1.0,0.0
4750,76.0,57,43,12.0,0.0
4751,64.0,0,0,2.0,0.0
4752,76.0,1,115,2.0,0.0
4753,43.0,4,0,15.0,0.0
4754,52.0,1,110,13.0,0.0
4755,64.0,36,115,3.0,0.0
4756,52.0,0,115,3.0,0.0
4757,40.0,3,110,14.0,0.0
4758,88.0,3,43,11.0,0.0
4759,76.0,2,43,12.0,0.0
4760,84.0,1,60,10.0,0.0
4761,84.0,3,60,0.0,0.0
4762,84.0,3,43,11.0,0.0
4763,67.0,1,0,6.0,0.0
4764,55.0,0,0,6.0,0.0
4765,84.0,2,60,1.0,0.0
4766,48.0,4,120,4.0,0.0
4767,60.0,0,120,4.0,0.0
4768,72.0,12,43,12.0,0.0
4769,72.0,6,60,2.0,0.0
4770,43.0,37,120,15.0,0.0
4771,48.0,2,60,13.0,0.0
4772,60.0,1,60,3.0,0.0
4773,48.0,0,60,3.0,0.0
4774,36.0,30,60,14.0,0.0
4775,84.0,3,43,11.0,0.0
4776,72.0,15,43,12.0,0.0
4777,79.0,1,60,10.0,0.0
4778,79.0,3,60,0.0,0.0
4779,79.0,3,43,11.0,0.0
4780,60.0,0,120,6.0,0.0
4781,55.0,4,120,4.0,0.0
4782,67.0,0,120,4.0,0.0
4783,79.0,2,60,1.0,0.0
4784,67.0,12,43,12.0,0.0
4785,67.0,0,60,2.0,0.0
4786,79.0,6,60,2.0,0.0
4787,48.0,37,120,15.0,0.0
4788,55.0,2,60,13.0,0.0
4789,55.0,0,60,3.0,0.0
4790,67.0,1,60,3.0,0.0
4791,43.0,30,60,14.0,0.0
4792,79.0,3,43,11.0,0.0
4793,67.0,15,43,12.0,0.0
4794,76.0,1,60,10.0,0.0
4795,76.0,3,60,0.0,0.0
4796,76.0,3,43,11.0,0.0
4797,72.0,1,0,6.0,0.0
4798,64.0,0,120,4.0,0.0
4799,52.0,4,120,4.0,0.0
4800,76.0,2,60,1.0,0.0
4801,64.0,12,43,12.0,0.0
4802,76.0,8,60,2.0,0.0
4803,48.0,4,120,15.0,0.0
4804,52.0,3,120,13.0,0.0
4805,64.0,31,60,3.0,0.0
4806,52.0,0,60,3.0,0.0
4807,40.0,30,120,14.0,0.0
4808,76.0,3,43,11.0,0.0
4809,64.0,15,43,12.0,0.0
4810,72.0,1,60,10.0,0.0
4811,72.0,3,60,0.0,0.0
4812,72.0,3,43,11.0,0.0
4813,72.0,0,120,6.0,0.0
4814,60.0,1,0,6.0,0.0
4815,48.0,0,120,4.0,0.0
4816,72.0,0,60,1.0,0.0
4817,84.0,2,60,1.0,0.0
4818,60.0,12,43,12.0,0.0
4819,72.0,8,60,2.0,0.0
4820,48.0,37,120,15.0,0.0
4821,48.0,1,110,13.0,0.0
4822,60.0,0,60,3.0,0.0
4823,48.0,31,60,3.0,0.0
4824,36.0,3,110,14.0,0.0
4825,72.0,3,43,11.0,0.0
4826,60.0,14,43,12.0,0.0
4827,69.0,1,60,10.0,0.0
4828,69.0,3,60,0.0,0.0
4829,69.0,3,43,11.0,0.0
4830,72.0,0,120,6.0,0.0
4831,60.0,1,0,6.0,0.0
4832,69.0,0,60,1.0,0.0
4833,81.0,2,60,1.0,0.0
4834,60.0,1,0,4.0,0.0
4835,48.0,0,120,4.0,0.0
4836,57.0,12,43,12.0,0.0
4837,69.0,6,60,2.0,0.0
4838,48.0,37,120,15.0,0.0
4839,45.0,2,60,13.0,0.0
4840,57.0,0,60,3.0,0.0
4841,45.0,1,60,3.0,0.0
4842,33.0,30,60,14.0,0.0
4843,69.0,3,43,11.0,0.0
4844,57.0,15,43,12.0,0.0
4845,67.0,1,60,10.0,0.0
4846,67.0,3,60,0.0,0.0
4847,67.0,3,43,11.0,0.0
4848,67.0,0,120,6.0,0.0
4849,55.0,1,120,6.0,0.0
4850,79.0,0,60,1.0,0.0
4851,43.0,4,120,4.0,0.0
4852,55.0,0,120,4.0,0.0
4853,67.0,2,60,1.0,0.0
4854,55.0,12,43,12.0,0.0
4855,67.0,6,60,2.0,0.0
4856,43.0,44,120,15.0,0.0
4857,43.0,2,60,13.0,0.0
4858,43.0,0,60,3.0,0.0
4859,55.0,1,60,3.0,0.0
4860,31.0,30,60,14.0,0.0
4861,67.0,3,43,11.0,0.0
4862,55.0,15,43,12.0,0.0
4863,66.0,1,120,10.0,0.0
4864,66.0,1,120,0.0,0.0
4865,66.0,3,50,11.0,0.0
4866,78.0,0,120,1.0,0.0
4867,66.0,1,120,1.0,0.0
4868,54.0,57,50,12.0,0.0
4869,66.0,8,120,2.0,0.0
4870,42.0,2,110,13.0,0.0
4871,54.0,0,120,3.0,0.0
4872,42.0,38,120,3.0,0.0
4873,30.0,1,110,14.0,0.0
4874,61.0,3,50,11.0,0.0
4875,58.0,5,50,12.0,0.0
4876,70.0,2,240,10.0,0.0
4877,61.0,3,50,11.0,0.0
4878,58.0,57,50,12.0,0.0
4879,54.0,3,230,13.0,0.0
4880,42.0,47,230,14.0,0.0
4881,61.0,3,50,11.0,0.0
4882,58.0,57,50,12.0,0.0
4883,61.0,3,50,11.0,0.0
4884,58.0,57,50,12.0,0.0
4885,61.0,3,50,11.0,0.0
4886,58.0,5,50,12.0,0.0
4887,73.0,2,110,10.0,0.0
4888,85.0,1,120,0.0,0.0
4889,61.0,3,50,11.0,0.0
4890,73.0,1,120,1.0,0.0
4891,58.0,55,50,12.0,0.0
4892,54.0,2,110,13.0,0.0
4893,61.0,38,120,3.0,0.0
4894,42.0,9,110,14.0,0.0
4895,61.0,3,50,11.0,0.0
4896,58.0,6,50,12.0,0.0
4897,74.0,1,360,10.0,0.0
4898,86.0,3,360,0.0,0.0
4899,61.0,3,50,11.0,0.0
4900,74.0,2,360,1.0,0.0
4901,66.0,0,480,7.0,0.0
4902,58.0,57,50,12.0,0.0
4903,54.0,7,480,7.0,0.0
4904,54.0,2,470,13.0,0.0
4905,62.0,38,360,3.0,0.0
4906,42.0,1,470,14.0,0.0
4907,61.0,3,50,11.0,0.0
4908,58.0,57,50,12.0,0.0
4909,61.0,3,50,11.0,0.0
4910,58.0,57,50,12.0,0.0
4911,61.0,3,50,11.0,0.0
4912,58.0,57,50,12.0,0.0
4913,61.0,3,50,11.0,0.0
4914,58.0,57,50,12.0,0.0
4915,61.0,3,50,11.0,0.0
4916,58.0,5,50,12.0,0.0
4917,73.0,2,110,10.0,0.0
4918,85.0,1,120,0.0,0.0
4919,61.0,3,50,11.0,0.0
4920,73.0,1,120,1.0,0.0
4921,58.0,55,50,12.0,0.0
4922,66.0,8,0,5.0,0.0
4923,61.0,38,120,3.0,0.0
4924,61.0,3,50,11.0,0.0
4925,58.0,6,50,12.0,0.0
4926,70.0,2,120,10.0,0.0
4927,61.0,3,50,11.0,0.0
4928,58.0,57,50,12.0,0.0
4929,52.0,3,110,13.0,0.0
4930,40.0,47,110,14.0,0.0
4931,61.0,3,50,11.0,0.0
4932,58.0,5,50,12.0,0.0
4933,73.0,2,240,10.0,0.0
4934,61.0,3,50,11.0,0.0
4935,58.0,57,50,12.0,0.0
4936,64.0,3,230,13.0,0.0
4937,52.0,47,230,14.0,0.0
4938,61.0,3,50,11.0,0.0
4939,58.0,57,50,12.0,0.0
4940,61.0,3,50,11.0,0.0
4941,58.0,57,50,12.0,0.0
4942,61.0,3,50,11.0,0.0
4943,58.0,5,50,12.0,0.0
4944,79.0,2,110,10.0,0.0
4945,91.0,3,480,0.0,0.0
4946,61.0,3,50,11.0,0.0
4947,79.0,2,480,1.0,0.0
4948,58.0,55,50,12.0,0.0
4949,64.0,3,110,13.0,0.0
4950,67.0,38,480,3.0,0.0
4951,52.0,47,110,14.0,0.0
4952,61.0,3,50,11.0,0.0
4953,58.0,7,50,12.0,0.0
4954,81.0,1,360,10.0,0.0
4955,61.0,3,50,11.0,0.0
4956,64.0,1,480,7.0,0.0
4957,58.0,57,50,12.0,0.0
4958,52.0,7,480,7.0,0.0
4959,64.0,2,470,13.0,0.0
4960,52.0,1,470,14.0,0.0
4961,61.0,3,50,11.0,0.0
4962,58.0,57,50,12.0,0.0
4963,61.0,3,50,11.0,0.0
4964,58.0,57,50,12.0,0.0
4965,61.0,3,50,11.0,0.0
4966,58.0,57,50,12.0,0.0
4967,61.0,3,50,11.0,0.0
4968,58.0,57,50,12.0,0.0
4969,61.0,3,50,11.0,0.0
4970,58.0,5,50,12.0,0.0
4971,79.0,2,110,10.0,0.0
4972,91.0,1,120,0.0,0.0
4973,61.0,3,50,11.0,0.0
4974,79.0,0,120,1.0,0.0
4975,58.0,55,50,12.0,0.0
4976,64.0,8,0,5.0,0.0
4977,52.0,0,0,5.0,0.0
4978,67.0,38,120,3.0,0.0
4979,61.0,3,50,11.0,0.0
4980,58.0,6,50,12.0,0.0
4981,71.0,52,60,10.0,0.0
4982,66.0,3,50,11.0,0.0
4983,66.0,1,120,7.0,0.0
4984,59.0,5,50,12.0,0.0
4985,59.0,45,120,7.0,0.0
4986,51.0,2,110,13.0,0.0
4987,39.0,2,110,14.0,0.0
4988,66.0,3,50,11.0,0.0
4989,59.0,7,50,12.0,0.0
4990,78.0,2,230,10.0,0.0
4991,83.0,0,240,0.0,0.0
4992,90.0,1,240,0.0,0.0
4993,66.0,3,50,11.0,0.0
4994,78.0,1,240,1.0,0.0
4995,83.0,0,240,1.0,0.0
4996,59.0,57,50,12.0,0.0
4997,63.0,2,230,13.0,0.0
4998,63.0,0,240,3.0,0.0
4999,51.0,1,230,14.0,0.0
5000,66.0,3,50,11.0,0.0
5001,59.0,57,50,12.0,0.0
5002,66.0,3,50,11.0,0.0
5003,59.0,55,50,12.0,0.0
5004,66.0,3,50,11.0,0.0
5005,59.0,6,50,12.0,0.0
5006,83.0,52,60,10.0,0.0
5007,83.0,0,120,0.0,0.0
5008,90.0,1,120,0.0,0.0
5009,66.0,3,50,11.0,0.0
5010,83.0,1,120,1.0,0.0
5011,78.0,0,120,1.0,0.0
5012,59.0,5,50,12.0,0.0
5013,66.0,8,0,5.0,0.0
5014,71.0,0,0,2.0,0.0
5015,63.0,2,110,13.0,0.0
5016,66.0,38,0,3.0,0.0
5017,63.0,0,120,3.0,0.0
5018,51.0,1,110,14.0,0.0
5019,66.0,3,50,11.0,0.0
5020,59.0,6,50,12.0,0.0
5021,71.0,52,60,10.0,0.0
5022,66.0,3,50,11.0,0.0
5023,66.0,1,120,7.0,0.0
5024,59.0,5,50,12.0,0.0
5025,62.0,45,120,7.0,0.0
5026,50.0,2,110,13.0,0.0
5027,38.0,2,110,14.0,0.0
5028,66.0,3,50,11.0,0.0
5029,59.0,7,50,12.0,0.0
5030,78.0,2,230,10.0,0.0
5031,66.0,3,50,11.0,0.0
5032,78.0,0,240,1.0,0.0
5033,59.0,57,50,12.0,0.0
5034,71.0,0,240,2.0,0.0
5035,62.0,2,230,13.0,0.0
5036,50.0,1,230,14.0,0.0
5037,66.0,3,50,11.0,0.0
5038,59.0,57,50,12.0,0.0
5039,66.0,3,50,11.0,0.0
5040,59.0,55,50,12.0,0.0
5041,66.0,3,50,11.0,0.0
5042,59.0,6,50,12.0,0.0
5043,83.0,52,60,10.0,0.0
5044,83.0,0,0,0.0,0.0
5045,90.0,1,0,0.0,0.0
5046,66.0,3,50,11.0,0.0
5047,83.0,1,0,1.0,0.0
5048,78.0,0,120,1.0,0.0
5049,59.0,5,50,12.0,0.0
5050,71.0,0,120,2.0,0.0
5051,66.0,8,0,5.0,0.0
5052,62.0,2,110,13.0,0.0
5053,62.0,38,0,3.0,0.0
5054,66.0,0,0,3.0,0.0
5055,50.0,1,110,14.0,0.0
5056,66.0,3,50,11.0,0.0
5057,59.0,6,50,12.0,0.0
5058,76.0,52,60,10.0,0.0
5059,70.0,3,50,11.0,0.0
5060,64.0,1,120,7.0,0.0
5061,61.0,0,50,12.0,0.0
5062,64.0,5,50,12.0,0.0
5063,61.0,45,120,7.0,0.0
5064,49.0,2,110,13.0,0.0
5065,37.0,2,110,14.0,0.0
5066,70.0,3,50,11.0,0.0
5067,64.0,0,50,12.0,0.0
5068,61.0,7,50,12.0,0.0
5069,82.0,2,230,10.0,0.0
5070,70.0,3,50,11.0,0.0
5071,79.0,1,240,1.0,0.0
5072,76.0,0,240,1.0,0.0
5073,61.0,0,50,12.0,0.0
5074,64.0,57,50,12.0,0.0
5075,64.0,8,240,5.0,0.0
5076,64.0,0,240,2.0,0.0
5077,61.0,2,230,13.0,0.0
5078,49.0,1,230,14.0,0.0
5079,70.0,3,50,11.0,0.0
5080,64.0,0,50,12.0,0.0
5081,61.0,57,50,12.0,0.0
5082,70.0,3,50,11.0,0.0
5083,64.0,55,50,12.0,0.0
5084,61.0,0,50,12.0,0.0
5085,70.0,3,50,11.0,0.0
5086,64.0,6,50,12.0,0.0
5087,61.0,0,50,12.0,0.0
5088,88.0,52,60,10.0,0.0
5089,82.0,1,0,0.0,0.0
5090,88.0,0,0,0.0,0.0
5091,70.0,3,50,11.0,0.0
5092,76.0,1,120,1.0,0.0
5093,79.0,0,120,1.0,0.0
5094,64.0,0,50,12.0,0.0
5095,61.0,5,50,12.0,0.0
5096,76.0,0,0,2.0,0.0
5097,52.0,0,0,5.0,0.0
5098,64.0,0,120,5.0,0.0
5099,64.0,0,120,2.0,0.0
5100,61.0,2,110,13.0,0.0
5101,64.0,38,0,3.0,0.0
5102,61.0,0,0,3.0,0.0
5103,49.0,1,110,14.0,0.0
5104,70.0,3,50,11.0,0.0
5105,64.0,6,50,12.0,0.0
5106,61.0,0,50,12.0,0.0
5107,76.0,52,60,10.0,0.0
5108,70.0,3,50,11.0,0.0
5109,64.0,1,120,7.0,0.0
5110,64.0,5,50,12.0,0.0
5111,60.0,0,50,12.0,0.0
5112,60.0,45,120,7.0,0.0
5113,48.0,2,110,13.0,0.0
5114,36.0,2,110,14.0,0.0
5115,70.0,3,50,11.0,0.0
5116,60.0,7,50,12.0,0.0
5117,64.0,0,50,12.0,0.0
5118,82.0,2,230,10.0,0.0
5119,82.0,1,240,0.0,0.0
5120,88.0,0,240,0.0,0.0
5121,70.0,3,50,11.0,0.0
5122,76.0,0,240,1.0,0.0
5123,60.0,57,50,12.0,0.0
5124,64.0,0,50,12.0,0.0
5125,76.0,8,240,2.0,0.0
5126,64.0,0,240,5.0,0.0
5127,64.0,0,240,2.0,0.0
5128,60.0,2,230,13.0,0.0
5129,64.0,0,240,3.0,0.0
5130,48.0,1,230,14.0,0.0
5131,70.0,3,50,11.0,0.0
5132,64.0,0,50,12.0,0.0
5133,60.0,57,50,12.0,0.0
5134,70.0,3,50,11.0,0.0
5135,60.0,55,50,12.0,0.0
5136,64.0,0,50,12.0,0.0
5137,70.0,3,50,11.0,0.0
5138,60.0,0,50,12.0,0.0
5139,64.0,6,50,12.0,0.0
5140,88.0,52,60,10.0,0.0
5141,88.0,0,120,0.0,0.0
5142,82.0,1,120,0.0,0.0
5143,70.0,3,50,11.0,0.0
5144,79.0,1,0,1.0,0.0
5145,76.0,1,120,1.0,0.0
5146,64.0,0,50,12.0,0.0
5147,60.0,5,50,12.0,0.0
5148,52.0,0,0,5.0,0.0
5149,64.0,0,120,5.0,0.0
5150,64.0,0,120,2.0,0.0
5151,76.0,8,120,2.0,0.0
5152,60.0,2,110,13.0,0.0
5153,60.0,38,0,3.0,0.0
5154,64.0,36,120,3.0,0.0
5155,48.0,1,110,14.0,0.0
5156,70.0,3,50,11.0,0.0
5157,60.0,6,50,12.0,0.0
5158,64.0,0,50,12.0,0.0
5159,87.0,2,50,10.0,0.0
5160,83.0,0,120,0.0,0.0
5161,87.0,3,120,0.0,0.0
5162,71.0,3,50,11.0,0.0
5163,83.0,2,120,1.0,0.0
5164,71.0,0,120,1.0,0.0
5165,66.0,0,50,12.0,0.0
5166,59.0,55,50,12.0,0.0
5167,59.0,1,120,5.0,0.0
5168,47.0,0,120,5.0,0.0
5169,71.0,0,120,2.0,0.0
5170,59.0,0,117,7.0,0.0
5171,47.0,3,230,13.0,0.0
5172,59.0,36,120,3.0,0.0
5173,35.0,57,230,14.0,0.0
5174,83.0,2,50,10.0,0.0
5175,66.0,3,50,11.0,0.0
5176,63.0,6,50,12.0,0.0
5177,83.0,2,50,10.0,0.0
5178,66.0,3,50,11.0,0.0
5179,63.0,55,50,12.0,0.0
5180,83.0,2,50,10.0,0.0
5181,66.0,3,50,11.0,0.0
5182,63.0,7,50,12.0,0.0
5183,84.0,2,230,10.0,0.0
5184,84.0,0,240,0.0,0.0
5185,78.0,1,240,0.0,0.0
5186,66.0,3,230,11.0,0.0
5187,78.0,1,240,1.0,0.0
5188,75.0,0,240,1.0,0.0
5189,63.0,6,230,12.0,0.0
5190,72.0,8,240,2.0,0.0
5191,45.0,3,50,13.0,0.0
5192,57.0,36,240,3.0,0.0
5193,60.0,0,240,3.0,0.0
5194,33.0,57,50,14.0,0.0
5195,45.0,3,50,13.0,0.0
5196,33.0,57,50,14.0,0.0
5197,45.0,3,50,13.0,0.0
5198,33.0,45,50,14.0,0.0
5199,45.0,2,50,13.0,0.0
5200,33.0,1,50,14.0,0.0
5201,83.0,2,50,10.0,0.0
5202,79.0,0,120,0.0,0.0
5203,83.0,3,120,0.0,0.0
5204,67.0,3,50,11.0,0.0
5205,79.0,0,120,1.0,0.0
5206,76.0,2,120,1.0,0.0
5207,71.0,0,120,7.0,0.0
5208,64.0,55,50,12.0,0.0
5209,71.0,1,120,2.0,0.0
5210,59.0,7,120,7.0,0.0
5211,43.0,3,230,13.0,0.0
5212,55.0,36,120,3.0,0.0
5213,59.0,0,120,3.0,0.0
5214,31.0,57,230,14.0,0.0
5215,83.0,2,50,10.0,0.0
5216,67.0,3,50,11.0,0.0
5217,64.0,6,50,12.0,0.0
5218,83.0,2,50,10.0,0.0
5219,67.0,3,50,11.0,0.0
5220,64.0,55,50,12.0,0.0
5221,83.0,2,50,10.0,0.0
5222,67.0,3,50,11.0,0.0
5223,64.0,7,50,12.0,0.0
5224,85.0,2,230,10.0,0.0
5225,88.0,1,240,0.0,0.0
5226,85.0,0,240,0.0,0.0
5227,67.0,3,230,11.0,0.0
5228,79.0,0,240,1.0,0.0
5229,64.0,6,230,12.0,0.0
5230,64.0,0,240,2.0,0.0
5231,52.0,8,240,5.0,0.0
5232,64.0,0,240,5.0,0.0
5233,76.0,0,240,2.0,0.0
5234,46.0,3,50,13.0,0.0
5235,61.0,0,240,3.0,0.0
5236,64.0,36,240,3.0,0.0
5237,34.0,57,50,14.0,0.0
5238,46.0,3,50,13.0,0.0
5239,34.0,57,50,14.0,0.0
5240,46.0,3,50,13.0,0.0
5241,34.0,45,50,14.0,0.0
5242,46.0,2,50,13.0,0.0
5243,34.0,1,50,14.0,0.0
5244,83.0,2,50,10.0,0.0
5245,83.0,3,120,0.0,0.0
5246,66.0,3,50,11.0,0.0
5247,76.0,1,0,1.0,0.0
5248,71.0,2,120,7.0,0.0
5249,79.0,0,120,1.0,0.0
5250,63.0,55,50,12.0,0.0
5251,71.0,0,120,2.0,0.0
5252,59.0,0,120,2.0,0.0
5253,59.0,0,120,5.0,0.0
5254,47.0,1,120,5.0,0.0
5255,66.0,7,120,7.0,0.0
5256,47.0,3,230,13.0,0.0
5257,59.0,36,120,3.0,0.0
5258,66.0,0,120,3.0,0.0
5259,35.0,57,230,14.0,0.0
5260,83.0,2,50,10.0,0.0
5261,66.0,3,50,11.0,0.0
5262,63.0,6,50,12.0,0.0
5263,83.0,2,50,10.0,0.0
5264,66.0,3,50,11.0,0.0
5265,63.0,55,50,12.0,0.0
5266,83.0,2,50,10.0,0.0
5267,66.0,3,50,11.0,0.0
5268,63.0,7,50,12.0,0.0
5269,84.0,2,230,10.0,0.0
5270,78.0,0,240,0.0,0.0
5271,84.0,1,240,0.0,0.0
5272,66.0,3,230,11.0,0.0
5273,78.0,0,240,1.0,0.0
5274,75.0,1,240,1.0,0.0
5275,63.0,6,230,12.0,0.0
5276,72.0,8,240,2.0,0.0
5277,45.0,3,50,13.0,0.0
5278,60.0,0,240,3.0,0.0
5279,57.0,36,240,3.0,0.0
5280,33.0,57,50,14.0,0.0
5281,45.0,3,50,13.0,0.0
5282,33.0,57,50,14.0,0.0
5283,45.0,3,50,13.0,0.0
5284,33.0,45,50,14.0,0.0
5285,45.0,2,50,13.0,0.0
5286,33.0,1,50,14.0,0.0
5287,83.0,2,50,10.0,0.0
5288,83.0,3,120,0.0,0.0
5289,79.0,0,120,0.0,0.0
5290,67.0,3,50,11.0,0.0
5291,78.0,0,120,1.0,0.0
5292,75.0,2,120,1.0,0.0
5293,71.0,0,120,7.0,0.0
5294,64.0,55,50,12.0,0.0
5295,71.0,1,120,2.0,0.0
5296,67.0,7,120,7.0,0.0
5297,43.0,3,230,13.0,0.0
5298,55.0,0,120,3.0,0.0
5299,59.0,36,120,3.0,0.0
5300,31.0,57,230,14.0,0.0
5301,83.0,2,50,10.0,0.0
5302,67.0,3,50,11.0,0.0
5303,64.0,6,50,12.0,0.0
5304,83.0,2,50,10.0,0.0
5305,67.0,3,50,11.0,0.0
5306,64.0,55,50,12.0,0.0
5307,83.0,2,50,10.0,0.0
5308,67.0,3,50,11.0,0.0
5309,64.0,7,50,12.0,0.0
5310,85.0,2,230,10.0,0.0
5311,88.0,0,240,0.0,0.0
5312,85.0,1,240,0.0,0.0
5313,67.0,3,230,11.0,0.0
5314,76.0,0,240,1.0,0.0
5315,79.0,1,240,1.0,0.0
5316,64.0,6,230,12.0,0.0
5317,76.0,0,240,2.0,0.0
5318,64.0,0,240,2.0,0.0
5319,52.0,0,240,5.0,0.0
5320,64.0,8,240,5.0,0.0
5321,46.0,3,50,13.0,0.0
5322,61.0,107,240,3.0,0.0
5323,58.0,0,240,3.0,0.0
5324,34.0,57,50,14.0,0.0
5325,46.0,3,50,13.0,0.0
5326,34.0,57,50,14.0,0.0
5327,46.0,3,50,13.0,0.0
5328,34.0,45,50,14.0,0.0
5329,46.0,2,50,13.0,0.0
5330,34.0,1,50,14.0,0.0
5331,83.0,2,180,10.0,0.0
5332,83.0,3,120,0.0,0.0
5333,66.0,3,180,11.0,0.0
5334,71.0,2,120,7.0,0.0
5335,78.0,0,120,1.0,0.0
5336,75.0,0,120,1.0,0.0
5337,63.0,7,180,12.0,0.0
5338,59.0,0,120,2.0,0.0
5339,71.0,0,120,2.0,0.0
5340,47.0,1,120,5.0,0.0
5341,59.0,0,120,5.0,0.0
5342,59.0,53,120,7.0,0.0
5343,47.0,2,180,13.0,0.0
5344,66.0,0,180,3.0,0.0
5345,59.0,1,180,3.0,0.0
5346,35.0,35,180,14.0,0.0
5347,85.0,2,50,10.0,0.0
5348,67.0,3,50,11.0,0.0
5349,64.0,7,50,12.0,0.0
5350,46.0,2,50,13.0,0.0
5351,46.0,1,50,3.0,0.0
5352,34.0,116,50,14.0,0.0
5353,83.0,2,180,10.0,0.0
5354,83.0,3,120,0.0,0.0
5355,66.0,3,180,11.0,0.0
5356,83.0,0,120,1.0,0.0
5357,71.0,2,120,1.0,0.0
5358,63.0,7,180,12.0,0.0
5359,47.0,0,120,5.0,0.0
5360,59.0,54,120,5.0,0.0
5361,47.0,2,180,13.0,0.0
5362,47.0,1,180,3.0,0.0
5363,35.0,35,180,14.0,0.0
5364,85.0,2,50,10.0,0.0
5365,67.0,3,50,11.0,0.0
5366,64.0,7,50,12.0,0.0
5367,46.0,2,50,13.0,0.0
5368,46.0,1,50,3.0,0.0
5369,34.0,116,50,14.0,0.0
5370,83.0,2,180,10.0,0.0
5371,83.0,3,120,0.0,0.0
5372,66.0,3,180,11.0,0.0
5373,71.0,0,120,7.0,0.0
5374,83.0,2,120,1.0,0.0
5375,71.0,0,120,1.0,0.0
5376,63.0,7,180,12.0,0.0
5377,71.0,0,120,2.0,0.0
5378,59.0,0,120,5.0,0.0
5379,47.0,0,120,5.0,0.0
5380,59.0,1,120,2.0,0.0
5381,59.0,53,120,7.0,0.0
5382,47.0,2,180,13.0,0.0
5383,47.0,1,180,3.0,0.0
5384,35.0,35,180,14.0,0.0
5385,85.0,2,50,10.0,0.0
5386,67.0,3,50,11.0,0.0
5387,64.0,7,50,12.0,0.0
5388,46.0,2,50,13.0,0.0
5389,46.0,1,50,3.0,0.0
5390,34.0,116,50,14.0,0.0
5391,83.0,2,180,10.0,0.0
5392,83.0,3,120,0.0,0.0
5393,66.0,3,180,11.0,0.0
5394,83.0,2,120,1.0,0.0
5395,71.0,0,120,1.0,0.0
5396,63.0,7,180,12.0,0.0
5397,59.0,54,120,5.0,0.0
5398,47.0,0,120,5.0,0.0
5399,47.0,2,180,13.0,0.0
5400,47.0,1,180,3.0,0.0
5401,35.0,35,180,14.0,0.0
5402,85.0,2,50,10.0,0.0
5403,67.0,3,50,11.0,0.0
5404,64.0,7,50,12.0,0.0
5405,46.0,2,50,13.0,0.0
5406,46.0,1,50,3.0,0.0
5407,34.0,55,50,14.0,0.0
5408,83.0,1,60,10.0,0.0
5409,83.0,1,60,0.0,0.0
5410,66.0,2,60,11.0,0.0
5411,83.0,1,60,1.0,0.0
5412,71.0,1,120,7.0,0.0
5413,71.0,0,60,1.0,0.0
5414,63.0,1,60,12.0,0.0
5415,47.0,6,60,5.0,0.0
5416,59.0,0,60,5.0,0.0
5417,71.0,0,110,2.0,0.0
5418,59.0,6,110,2.0,0.0
5419,59.0,53,120,7.0,0.0
5420,47.0,2,60,13.0,0.0
5421,47.0,1,60,3.0,0.0
5422,35.0,35,60,14.0,0.0
5423,85.0,1,50,10.0,0.0
5424,76.0,0,50,0.0,0.0
5425,88.0,1,50,0.0,0.0
5426,67.0,2,50,11.0,0.0
5427,76.0,1,50,1.0,0.0
5428,64.0,1,50,12.0,0.0
5429,64.0,1,60,5.0,0.0
5430,52.0,0,60,5.0,0.0
5431,46.0,2,50,13.0,0.0
5432,46.0,0,50,3.0,0.0
5433,34.0,1,50,14.0,0.0
5434,83.0,1,60,10.0,0.0
5435,83.0,1,60,0.0,0.0
5436,66.0,2,60,11.0,0.0
5437,83.0,1,60,1.0,0.0
5438,71.0,0,60,1.0,0.0
5439,63.0,1,60,12.0,0.0
5440,71.0,6,110,2.0,0.0
5441,59.0,0,110,2.0,0.0
5442,59.0,6,60,5.0,0.0
5443,47.0,0,60,5.0,0.0
5444,47.0,2,60,13.0,0.0
5445,47.0,1,60,3.0,0.0
5446,35.0,35,60,14.0,0.0
5447,85.0,1,50,10.0,0.0
5448,88.0,0,50,0.0,0.0
5449,76.0,1,50,0.0,0.0
5450,67.0,2,50,11.0,0.0
5451,76.0,1,50,1.0,0.0
5452,64.0,1,50,12.0,0.0
5453,52.0,0,60,5.0,0.0
5454,64.0,54,60,5.0,0.0
5455,46.0,2,50,13.0,0.0
5456,46.0,1,50,3.0,0.0
5457,34.0,1,50,14.0,0.0
5458,83.0,1,60,10.0,0.0
5459,83.0,1,60,0.0,0.0
5460,66.0,2,60,11.0,0.0
5461,71.0,1,60,1.0,0.0
5462,83.0,0,60,1.0,0.0
5463,63.0,1,60,12.0,0.0
5464,71.0,6,110,2.0,0.0
5465,59.0,0,110,2.0,0.0
5466,47.0,6,60,5.0,0.0
5467,59.0,0,60,5.0,0.0
5468,47.0,2,60,13.0,0.0
5469,47.0,1,60,3.0,0.0
5470,35.0,35,60,14.0,0.0
5471,85.0,1,50,10.0,0.0
5472,76.0,0,50,0.0,0.0
5473,88.0,1,50,0.0,0.0
5474,67.0,2,50,11.0,0.0
5475,76.0,1,50,1.0,0.0
5476,64.0,1,50,12.0,0.0
5477,52.0,0,60,5.0,0.0
5478,64.0,54,60,5.0,0.0
5479,46.0,2,50,13.0,0.0
5480,46.0,1,50,3.0,0.0
5481,34.0,1,50,14.0,0.0
5482,83.0,1,60,10.0,0.0
5483,83.0,1,60,0.0,0.0
5484,66.0,2,60,11.0,0.0
5485,71.0,0,60,1.0,0.0
5486,83.0,1,60,1.0,0.0
5487,63.0,1,60,12.0,0.0
5488,47.0,0,60,5.0,0.0
5489,59.0,6,60,5.0,0.0
5490,59.0,0,110,2.0,0.0
5491,71.0,6,110,2.0,0.0
5492,47.0,2,60,13.0,0.0
5493,47.0,1,60,3.0,0.0
5494,35.0,35,60,14.0,0.0
5495,85.0,1,50,10.0,0.0
5496,88.0,1,50,0.0,0.0
5497,76.0,0,50,0.0,0.0
5498,67.0,2,50,11.0,0.0
5499,76.0,1,50,1.0,0.0
5500,64.0,1,50,12.0,0.0
5501,64.0,54,60,5.0,0.0
5502,52.0,0,60,5.0,0.0
5503,46.0,2,50,13.0,0.0
5504,46.0,1,50,3.0,0.0
5505,34.0,1,50,14.0,0.0
5506,83.0,1,60,10.0,0.0
5507,83.0,1,60,0.0,0.0
5508,66.0,2,60,11.0,0.0
5509,71.0,0,60,1.0,0.0
5510,83.0,1,60,1.0,0.0
5511,71.0,0,120,7.0,0.0
5512,63.0,1,60,12.0,0.0
5513,47.0,0,60,5.0,0.0
5514,59.0,6,60,5.0,0.0
5515,59.0,0,110,2.0,0.0
5516,71.0,6,110,2.0,0.0
5517,59.0,53,120,7.0,0.0
5518,47.0,2,60,13.0,0.0
5519,47.0,1,60,3.0,0.0
5520,35.0,35,60,14.0,0.0
5521,85.0,1,50,10.0,0.0
5522,88.0,1,50,0.0,0.0
5523,76.0,0,50,0.0,0.0
5524,67.0,2,50,11.0,0.0
5525,76.0,1,50,1.0,0.0
5526,64.0,1,50,12.0,0.0
5527,52.0,1,60,5.0,0.0
5528,64.0,0,60,5.0,0.0
5529,46.0,2,50,13.0,0.0
5530,46.0,1,50,3.0,0.0
5531,34.0,1,50,14.0,0.0
5532,83.0,1,60,10.0,0.0
5533,83.0,1,60,0.0,0.0
5534,66.0,2,60,11.0,0.0
5535,83.0,1,60,1.0,0.0
5536,71.0,0,60,1.0,0.0
5537,63.0,1,60,12.0,0.0
5538,47.0,0,60,5.0,0.0
5539,59.0,0,110,2.0,0.0
5540,71.0,6,110,2.0,0.0
5541,59.0,6,60,5.0,0.0
5542,47.0,2,60,13.0,0.0
5543,47.0,1,60,3.0,0.0
5544,35.0,35,60,14.0,0.0
5545,85.0,1,50,10.0,0.0
5546,88.0,0,50,0.0,0.0
5547,76.0,1,50,0.0,0.0
5548,67.0,2,50,11.0,0.0
5549,76.0,1,50,1.0,0.0
5550,64.0,1,50,12.0,0.0
5551,64.0,0,60,5.0,0.0
5552,52.0,54,60,5.0,0.0
5553,46.0,2,50,13.0,0.0
5554,46.0,1,50,3.0,0.0
5555,34.0,1,50,14.0,0.0
5556,83.0,1,60,10.0,0.0
5557,83.0,1,60,0.0,0.0
5558,66.0,2,60,11.0,0.0
5559,83.0,0,60,1.0,0.0
5560,71.0,0,120,7.0,0.0
5561,71.0,1,60,1.0,0.0
5562,63.0,1,60,12.0,0.0
5563,47.0,6,60,5.0,0.0
5564,71.0,6,110,2.0,0.0
5565,59.0,0,110,2.0,0.0
5566,59.0,0,60,5.0,0.0
5567,59.0,53,120,7.0,0.0
5568,47.0,2,60,13.0,0.0
5569,47.0,1,60,3.0,0.0
5570,35.0,35,60,14.0,0.0
5571,85.0,1,50,10.0,0.0
5572,88.0,0,50,0.0,0.0
5573,76.0,1,50,0.0,0.0
5574,67.0,2,50,11.0,0.0
5575,76.0,1,50,1.0,0.0
5576,64.0,1,50,12.0,0.0
5577,64.0,0,60,5.0,0.0
5578,52.0,1,60,5.0,0.0
5579,46.0,2,50,13.0,0.0
5580,46.0,1,50,3.0,0.0
5581,34.0,1,50,14.0,0.0
5582,83.0,1,60,10.0,0.0
5583,83.0,1,60,0.0,0.0
5584,66.0,2,60,11.0,0.0
5585,71.0,0,60,1.0,0.0
5586,83.0,1,60,1.0,0.0
5587,63.0,1,60,12.0,0.0
5588,59.0,6,60,5.0,0.0
5589,47.0,0,60,5.0,0.0
5590,59.0,6,110,2.0,0.0
5591,71.0,0,110,2.0,0.0
5592,47.0,2,60,13.0,0.0
5593,47.0,1,60,3.0,0.0
5594,35.0,35,60,14.0,0.0
5595,85.0,1,50,10.0,0.0
5596,88.0,0,50,0.0,0.0
5597,76.0,1,50,0.0,0.0
5598,67.0,2,50,11.0,0.0
5599,76.0,1,50,1.0,0.0
5600,64.0,1,50,12.0,0.0
5601,52.0,114,60,5.0,0.0
5602,64.0,0,60,5.0,0.0
5603,46.0,2,50,13.0,0.0
5604,46.0,1,50,3.0,0.0
5605,34.0,1,50,14.0,0.0
5606,83.0,1,120,10.0,0.0
5607,83.0,1,120,0.0,0.0
5608,66.0,2,120,11.0,0.0
5609,71.0,0,120,7.0,0.0
5610,83.0,0,120,1.0,0.0
5611,71.0,1,120,1.0,0.0
5612,63.0,1,120,12.0,0.0
5613,59.0,0,120,5.0,0.0
5614,47.0,0,120,5.0,0.0
5615,59.0,1,120,2.0,0.0
5616,71.0,0,120,2.0,0.0
5617,59.0,7,120,7.0,0.0
5618,47.0,3,1680,13.0,0.0
5619,47.0,1312,120,3.0,0.0
5620,35.0,117,1680,14.0,0.0
5621,64.0,0,480,5.0,0.0
5622,68.0,246,480,5.0,0.0
5623,59.0,1,720,10.0,0.0
5624,71.0,119,720,0.0,0.0
5625,59.0,0,480,5.0,0.0
5626,66.0,234,480,5.0,0.0
5627,49.0,3,120,13.0,0.0
5628,37.0,107,120,14.0,0.0
5629,51.0,3,110,13.0,0.0
5630,39.0,1,110,14.0,0.0
5631,56.0,0,720,5.0,0.0
5632,52.0,3,710,13.0,0.0
5633,40.0,1,710,14.0,0.0
5634,61.0,1,120,10.0,0.0
5635,73.0,119,120,0.0,0.0
5636,63.0,1,120,10.0,0.0
5637,75.0,239,120,0.0,0.0
5638,64.0,1,240,10.0,0.0
5639,76.0,1,240,0.0,0.0
5640,66.0,1,120,10.0,0.0
5641,78.0,109,120,0.0,0.0
5642,64.0,114,0,5.0,0.0
5643,51.0,3,230,13.0,0.0
5644,39.0,1,230,14.0,0.0
5645,68.0,11,110,10.0,0.0
5646,80.0,1,120,0.0,0.0
5647,71.0,1,120,10.0,0.0
5648,83.0,109,120,0.0,0.0
5649,64.0,114,0,5.0,0.0
5650,52.0,0,0,5.0,0.0
5651,49.0,3,230,13.0,0.0
5652,37.0,1,230,14.0,0.0
5653,69.0,11,110,10.0,0.0
5654,69.0,11,230,10.0,0.0
5655,81.0,1,0,0.0,0.0
5656,64.0,0,240,5.0,0.0
5657,49.0,3,230,13.0,0.0
5658,37.0,1,230,14.0,0.0
5659,69.0,11,230,10.0,0.0
5660,81.0,1,0,0.0,0.0
5661,52.0,224,0,5.0,0.0
5662,49.0,3,230,13.0,0.0
5663,37.0,1,230,14.0,0.0
5664,68.0,11,230,10.0,0.0
5665,80.0,1,240,0.0,0.0
5666,64.0,224,0,5.0,0.0
5667,52.0,0,0,5.0,0.0
5668,47.0,3,230,13.0,0.0
5669,35.0,1,230,14.0,0.0
5670,67.0,11,950,10.0,0.0
5671,79.0,1,960,0.0,0.0
5672,52.0,8,960,5.0,0.0
5673,64.0,0,960,5.0,0.0
5674,46.0,3,950,13.0,0.0
5675,34.0,1,950,14.0,0.0
5676,61.0,3,80,11.0,0.0
5677,49.0,67,80,12.0,0.0
5678,64.0,3,70,11.0,0.0
5679,52.0,47,70,12.0,0.0
5680,67.0,3,40,11.0,0.0
5681,55.0,77,40,12.0,0.0
5682,61.0,3,40,11.0,0.0
5683,49.0,77,40,12.0,0.0
5684,64.0,3,40,11.0,0.0
5685,52.0,197,40,12.0,0.0
5686,60.0,0,600,4.0,0.0
5687,48.0,8,600,4.0,0.0
5688,72.0,36,720,2.0,0.0
5689,60.0,0,720,2.0,0.0
5690,55.0,110,480,3.0,0.0
5691,52.0,0,480,3.0,0.0
5692,60.0,3,80,11.0,0.0
5693,48.0,67,80,12.0,0.0
5694,64.0,3,70,11.0,0.0
5695,52.0,47,70,12.0,0.0
5696,67.0,3,40,11.0,0.0
5697,55.0,77,40,12.0,0.0
5698,60.0,3,40,11.0,0.0
5699,48.0,77,40,12.0,0.0
5700,64.0,3,40,11.0,0.0
5701,52.0,25,40,12.0,0.0
5702,69.0,1,480,10.0,0.0
5703,81.0,13,480,0.0,0.0
5704,45.0,3,120,13.0,0.0
5705,53.0,28,720,3.0,0.0
5706,57.0,106,480,3.0,0.0
5707,33.0,27,120,14.0,0.0
5708,60.0,3,80,11.0,0.0
5709,48.0,67,80,12.0,0.0
5710,65.0,3,70,11.0,0.0
5711,53.0,11,70,12.0,0.0
5712,69.0,3,40,11.0,0.0
5713,57.0,77,40,12.0,0.0
5714,65.0,6,120,2.0,0.0
5715,53.0,3,120,13.0,0.0
5716,41.0,67,120,14.0,0.0
5717,60.0,3,40,11.0,0.0
5718,48.0,1,40,12.0,0.0
5719,65.0,3,40,11.0,0.0
5720,53.0,35,40,12.0,0.0
5721,72.0,1,120,10.0,0.0
5722,84.0,11,120,0.0,0.0
5723,50.0,3,120,13.0,0.0
5724,58.0,0,480,3.0,0.0
5725,38.0,27,120,14.0,0.0
5726,62.0,3,80,11.0,0.0
5727,50.0,67,80,12.0,0.0
5728,70.0,1,120,10.0,0.0
5729,82.0,13,120,0.0,0.0
5730,65.0,3,70,11.0,0.0
5731,53.0,5,70,12.0,0.0
5732,70.0,3,40,11.0,0.0
5733,58.0,77,40,12.0,0.0
5734,46.0,3,120,13.0,0.0
5735,55.0,118,240,3.0,0.0
5736,34.0,67,120,14.0,0.0
5737,62.0,3,40,11.0,0.0
5738,50.0,7,40,12.0,0.0
5739,62.0,11,110,10.0,0.0
5740,74.0,13,120,0.0,0.0
5741,67.0,3,40,11.0,0.0
5742,55.0,25,40,12.0,0.0
5743,65.0,1,480,10.0,0.0
5744,77.0,3,480,0.0,0.0
5745,48.0,3,120,13.0,0.0
5746,60.0,28,240,3.0,0.0
5747,57.0,0,480,3.0,0.0
5748,36.0,27,120,14.0,0.0
5749,60.0,3,80,11.0,0.0
5750,48.0,67,80,12.0,0.0
5751,65.0,3,70,11.0,0.0
5752,53.0,19,70,12.0,0.0
5753,69.0,3,40,11.0,0.0
5754,71.0,1,120,1.0,0.0
5755,57.0,77,40,12.0,0.0
5756,60.0,2,120,13.0,0.0
5757,59.0,1,120,3.0,0.0
5758,48.0,67,120,14.0,0.0
5759,72.0,2,40,11.0,0.0
5760,60.0,7,40,12.0,0.0
5761,72.0,3,40,11.0,0.0
5762,60.0,35,40,12.0,0.0
5763,64.0,1,120,10.0,0.0
5764,76.0,1,120,0.0,0.0
5765,72.0,3,40,11.0,0.0
5766,72.0,10,0,1.0,0.0
5767,60.0,75,40,12.0,0.0
5768,55.0,0,120,3.0,0.0
5769,60.0,28,0,3.0,0.0
5770,67.0,2,40,11.0,0.0
5771,55.0,9,40,12.0,0.0
5772,72.0,3,40,11.0,0.0
5773,60.0,77,40,12.0,0.0
5774,72.0,3,40,11.0,0.0
5775,60.0,77,40,12.0,0.0
5776,60.0,3,120,13.0,0.0
5777,48.0,67,120,14.0,0.0
5778,67.0,3,40,11.0,0.0
5779,55.0,7,40,12.0,0.0
5780,72.0,3,40,11.0,0.0
5781,60.0,167,40,12.0,0.0
5782,70.0,1,480,10.0,0.0
5783,82.0,13,480,0.0,0.0
5784,58.0,3,120,13.0,0.0
5785,55.0,28,720,3.0,0.0
5786,58.0,106,480,3.0,0.0
5787,46.0,27,120,14.0,0.0
5788,62.0,3,80,11.0,0.0
5789,50.0,67,80,12.0,0.0
5790,67.0,3,70,11.0,0.0
5791,55.0,47,70,12.0,0.0
5792,70.0,3,40,11.0,0.0
5793,58.0,77,40,12.0,0.0
5794,55.0,3,120,13.0,0.0
5795,43.0,67,120,14.0,0.0
5796,62.0,3,40,11.0,0.0
5797,50.0,7,40,12.0,0.0
5798,67.0,3,40,11.0,0.0
5799,55.0,35,40,12.0,0.0
5800,74.0,1,120,10.0,0.0
5801,86.0,11,120,0.0,0.0
5802,51.0,3,120,13.0,0.0
5803,60.0,118,480,3.0,0.0
5804,39.0,27,120,14.0,0.0
5805,63.0,3,80,11.0,0.0
5806,51.0,67,80,12.0,0.0
5807,72.0,1,120,10.0,0.0
5808,84.0,13,120,0.0,0.0
5809,67.0,3,70,11.0,0.0
5810,55.0,5,70,12.0,0.0
5811,72.0,3,40,11.0,0.0
5812,60.0,77,40,12.0,0.0
5813,48.0,3,120,13.0,0.0
5814,57.0,0,240,3.0,0.0
5815,36.0,67,120,14.0,0.0
5816,63.0,3,40,11.0,0.0
5817,51.0,7,40,12.0,0.0
5818,63.0,11,110,10.0,0.0
5819,75.0,13,120,0.0,0.0
5820,69.0,3,40,11.0,0.0
5821,57.0,25,40,12.0,0.0
5822,67.0,1,480,10.0,0.0
5823,79.0,3,480,0.0,0.0
5824,50.0,3,120,13.0,0.0
5825,62.0,28,240,3.0,0.0
5826,58.0,0,480,3.0,0.0
5827,38.0,27,120,14.0,0.0
5828,62.0,3,80,11.0,0.0
5829,50.0,67,80,12.0,0.0
5830,67.0,3,70,11.0,0.0
5831,55.0,19,70,12.0,0.0
5832,70.0,3,40,11.0,0.0
5833,73.0,1,120,1.0,0.0
5834,58.0,77,40,12.0,0.0
5835,62.0,2,120,13.0,0.0
5836,61.0,1,120,3.0,0.0
5837,50.0,67,120,14.0,0.0
5838,74.0,2,40,11.0,0.0
5839,62.0,7,40,12.0,0.0
5840,74.0,10,120,1.0,0.0
5841,74.0,3,40,11.0,0.0
5842,62.0,35,40,12.0,0.0
5843,66.0,1,120,10.0,0.0
5844,78.0,1,120,0.0,0.0
5845,74.0,3,40,11.0,0.0
5846,74.0,1,120,1.0,0.0
5847,62.0,75,40,12.0,0.0
5848,62.0,28,0,3.0,0.0
5849,57.0,68,120,3.0,0.0
5850,69.0,2,40,11.0,0.0
5851,57.0,9,40,12.0,0.0
5852,74.0,3,40,11.0,0.0
5853,62.0,77,40,12.0,0.0
5854,74.0,1,120,10.0,0.0
5855,86.0,1,120,0.0,0.0
5856,74.0,3,40,11.0,0.0
5857,62.0,75,40,12.0,0.0
5858,62.0,3,120,13.0,0.0
5859,50.0,67,120,14.0,0.0
5860,69.0,3,40,11.0,0.0
5861,57.0,7,40,12.0,0.0
5862,65.0,11,110,10.0,0.0
5863,77.0,131,120,0.0,0.0
5864,74.0,3,40,11.0,0.0
5865,62.0,25,40,12.0,0.0
5866,69.0,1,480,10.0,0.0
5867,81.0,3,480,0.0,0.0
5868,52.0,3,120,13.0,0.0
5869,60.0,28,480,3.0,0.0
5870,64.0,28,240,3.0,0.0
5871,40.0,27,120,14.0,0.0
5872,64.0,3,80,11.0,0.0
5873,52.0,67,80,12.0,0.0
5874,69.0,3,70,11.0,0.0
5875,57.0,19,70,12.0,0.0
5876,72.0,3,40,11.0,0.0
5877,75.0,1,120,1.0,0.0
5878,60.0,77,40,12.0,0.0
5879,64.0,2,120,13.0,0.0
5880,63.0,1,120,3.0,0.0
5881,52.0,67,120,14.0,0.0
5882,76.0,2,40,11.0,0.0
5883,64.0,7,40,12.0,0.0
5884,76.0,10,120,1.0,0.0
5885,64.0,0,120,3.0,0.0
5886,76.0,3,40,11.0,0.0
5887,64.0,35,40,12.0,0.0
5888,68.0,1,120,10.0,0.0
5889,80.0,1,120,0.0,0.0
5890,76.0,3,40,11.0,0.0
5891,76.0,1,120,1.0,0.0
5892,64.0,75,40,12.0,0.0
5893,59.0,68,120,3.0,0.0
5894,64.0,0,120,3.0,0.0
5895,71.0,2,40,11.0,0.0
5896,59.0,9,40,12.0,0.0
5897,76.0,3,40,11.0,0.0
5898,64.0,77,40,12.0,0.0
5899,76.0,1,120,10.0,0.0
5900,88.0,1,120,0.0,0.0
5901,76.0,3,40,11.0,0.0
5902,64.0,75,40,12.0,0.0
5903,64.0,3,120,13.0,0.0
5904,52.0,67,120,14.0,0.0
5905,71.0,3,40,11.0,0.0
5906,59.0,7,40,12.0,0.0
5907,67.0,11,110,10.0,0.0
5908,79.0,57,120,0.0,0.0
5909,76.0,3,40,11.0,0.0
5910,64.0,25,40,12.0,0.0
5911,70.0,2,58,10.0,0.0
5912,82.0,1,600,0.0,0.0
5913,67.0,3,58,11.0,0.0
5914,73.0,1,600,1.0,0.0
5915,61.0,7,58,12.0,0.0
5916,52.0,3,58,13.0,0.0
5917,67.0,0,600,3.0,0.0
5918,64.0,1,600,3.0,0.0
5919,40.0,45,58,14.0,0.0
5920,70.0,2,58,10.0,0.0
5921,67.0,3,58,11.0,0.0
5922,61.0,7,58,12.0,0.0
5923,64.0,3,58,13.0,0.0
5924,52.0,45,58,14.0,0.0
5925,70.0,2,58,10.0,0.0
5926,67.0,3,58,11.0,0.0
5927,61.0,7,58,12.0,0.0
5928,64.0,3,58,13.0,0.0
5929,52.0,45,58,14.0,0.0
5930,70.0,2,58,10.0,0.0
5931,67.0,3,58,11.0,0.0
5932,61.0,7,58,12.0,0.0
5933,64.0,3,58,13.0,0.0
5934,52.0,45,58,14.0,0.0
5935,70.0,2,58,10.0,0.0
5936,67.0,3,58,11.0,0.0
5937,61.0,7,58,12.0,0.0
5938,64.0,3,58,13.0,0.0
5939,52.0,45,58,14.0,0.0
5940,70.0,2,58,10.0,0.0
5941,67.0,3,58,11.0,0.0
5942,61.0,7,58,12.0,0.0
5943,64.0,3,58,13.0,0.0
5944,52.0,45,58,14.0,0.0
5945,70.0,2,58,10.0,0.0
5946,67.0,3,58,11.0,0.0
5947,61.0,7,58,12.0,0.0
5948,64.0,3,58,13.0,0.0
5949,52.0,45,58,14.0,0.0
5950,70.0,2,58,10.0,0.0
5951,67.0,3,58,11.0,0.0
5952,61.0,7,58,12.0,0.0
5953,64.0,3,58,13.0,0.0
5954,52.0,107,58,14.0,0.0
5955,70.0,1,120,10.0,0.0
5956,67.0,2,120,11.0,0.0
5957,61.0,7,120,12.0,0.0
5958,64.0,2,120,13.0,0.0
5959,52.0,403,120,14.0,0.0
5960,71.0,2,58,10.0,0.0
5961,83.0,1,600,0.0,0.0
5962,66.0,3,58,11.0,0.0
5963,71.0,1,600,1.0,0.0
5964,59.0,7,58,12.0,0.0
5965,51.0,3,58,13.0,0.0
5966,63.0,1,600,3.0,0.0
5967,66.0,0,600,3.0,0.0
5968,39.0,45,58,14.0,0.0
5969,71.0,2,58,10.0,0.0
5970,66.0,3,58,11.0,0.0
5971,59.0,7,58,12.0,0.0
5972,63.0,3,58,13.0,0.0
5973,51.0,45,58,14.0,0.0
5974,71.0,2,58,10.0,0.0
5975,66.0,3,58,11.0,0.0
5976,59.0,7,58,12.0,0.0
5977,63.0,3,58,13.0,0.0
5978,51.0,45,58,14.0,0.0
5979,71.0,2,58,10.0,0.0
5980,66.0,3,58,11.0,0.0
5981,59.0,7,58,12.0,0.0
5982,63.0,3,58,13.0,0.0
5983,51.0,45,58,14.0,0.0
5984,71.0,2,58,10.0,0.0
5985,66.0,3,58,11.0,0.0
5986,59.0,7,58,12.0,0.0
5987,63.0,3,58,13.0,0.0
5988,51.0,45,58,14.0,0.0
5989,71.0,2,58,10.0,0.0
5990,66.0,3,58,11.0,0.0
5991,59.0,7,58,12.0,0.0
5992,63.0,3,58,13.0,0.0
5993,51.0,45,58,14.0,0.0
5994,71.0,2,58,10.0,0.0
5995,66.0,3,58,11.0,0.0
5996,59.0,7,58,12.0,0.0
5997,63.0,3,58,13.0,0.0
5998,51.0,45,58,14.0,0.0
5999,71.0,2,58,10.0,0.0
6000,66.0,3,58,11.0,0.0
6001,59.0,7,58,12.0,0.0
6002,63.0,3,58,13.0,0.0
6003,51.0,107,58,14.0,0.0
6004,71.0,1,120,10.0,0.0
6005,66.0,2,120,11.0,0.0
6006,59.0,7,120,12.0,0.0
6007,63.0,2,120,13.0,0.0
6008,51.0,403,120,14.0,0.0
6009,66.0,0,58,10.0,0.0
6010,71.0,2,58,10.0,0.0
6011,83.0,1,3000,0.0,0.0
6012,63.0,3,58,11.0,0.0
6013,71.0,1,3000,1.0,0.0
6014,59.0,7,58,12.0,0.0
6015,45.0,3,58,13.0,0.0
6016,33.0,45,58,14.0,0.0
6017,71.0,2,58,10.0,0.0
6018,66.0,0,58,10.0,0.0
6019,63.0,3,58,11.0,0.0
6020,59.0,7,58,12.0,0.0
6021,57.0,3,58,13.0,0.0
6022,45.0,45,58,14.0,0.0
6023,66.0,2,58,10.0,0.0
6024,71.0,0,58,10.0,0.0
6025,63.0,3,58,11.0,0.0
6026,59.0,7,58,12.0,0.0
6027,57.0,3,58,13.0,0.0
6028,45.0,45,58,14.0,0.0
6029,71.0,2,58,10.0,0.0
6030,66.0,0,58,10.0,0.0
6031,63.0,3,58,11.0,0.0
6032,59.0,7,58,12.0,0.0
6033,57.0,3,58,13.0,0.0
6034,45.0,45,58,14.0,0.0
6035,71.0,2,58,10.0,0.0
6036,66.0,0,58,10.0,0.0
6037,63.0,3,58,11.0,0.0
6038,59.0,7,58,12.0,0.0
6039,57.0,3,58,13.0,0.0
6040,45.0,45,58,14.0,0.0
6041,71.0,2,58,10.0,0.0
6042,66.0,0,58,10.0,0.0
6043,63.0,3,58,11.0,0.0
6044,59.0,7,58,12.0,0.0
6045,57.0,3,58,13.0,0.0
6046,45.0,45,58,14.0,0.0
6047,66.0,2,58,10.0,0.0
6048,71.0,0,58,10.0,0.0
6049,63.0,3,58,11.0,0.0
6050,59.0,7,58,12.0,0.0
6051,57.0,3,58,13.0,0.0
6052,45.0,45,58,14.0,0.0
6053,71.0,2,58,10.0,0.0
6054,66.0,0,58,10.0,0.0
6055,63.0,3,58,11.0,0.0
6056,59.0,7,58,12.0,0.0
6057,57.0,3,58,13.0,0.0
6058,45.0,45,58,14.0,0.0
6059,71.0,0,58,10.0,0.0
6060,66.0,2,58,10.0,0.0
6061,63.0,3,58,11.0,0.0
6062,59.0,7,58,12.0,0.0
6063,57.0,3,58,13.0,0.0
6064,45.0,45,58,14.0,0.0
6065,66.0,2,58,10.0,0.0
6066,71.0,0,58,10.0,0.0
6067,63.0,3,58,11.0,0.0
6068,59.0,7,58,12.0,0.0
6069,57.0,3,58,13.0,0.0
6070,45.0,45,58,14.0,0.0
6071,71.0,2,58,10.0,0.0
6072,66.0,0,58,10.0,0.0
6073,63.0,3,58,11.0,0.0
6074,59.0,7,58,12.0,0.0
6075,57.0,3,58,13.0,0.0
6076,45.0,45,58,14.0,0.0
6077,71.0,2,58,10.0,0.0
6078,66.0,0,58,10.0,0.0
6079,63.0,3,58,11.0,0.0
6080,59.0,7,58,12.0,0.0
6081,57.0,3,58,13.0,0.0
6082,45.0,45,58,14.0,0.0
6083,71.0,0,58,10.0,0.0
6084,66.0,2,58,10.0,0.0
6085,63.0,3,58,11.0,0.0
6086,59.0,7,58,12.0,0.0
6087,57.0,3,58,13.0,0.0
6088,45.0,45,58,14.0,0.0
6089,66.0,0,58,10.0,0.0
6090,71.0,2,58,10.0,0.0
6091,63.0,3,58,11.0,0.0
6092,59.0,7,58,12.0,0.0
6093,57.0,3,58,13.0,0.0
6094,45.0,45,58,14.0,0.0
6095,71.0,0,58,10.0,0.0
6096,66.0,2,58,10.0,0.0
6097,63.0,3,58,11.0,0.0
6098,59.0,7,58,12.0,0.0
6099,57.0,3,58,13.0,0.0
6100,45.0,45,58,14.0,0.0
6101,66.0,2,58,10.0,0.0
6102,71.0,0,58,10.0,0.0
6103,63.0,3,58,11.0,0.0
6104,59.0,7,58,12.0,0.0
6105,57.0,3,58,13.0,0.0
6106,45.0,97,58,14.0,0.0
6107,71.0,12,110,10.0,0.0
6108,68.0,0,110,10.0,0.0
6109,64.0,3,120,11.0,0.0
6110,59.0,7,120,12.0,0.0
6111,56.0,3,120,13.0,0.0
6112,44.0,45,120,14.0,0.0
6113,71.0,302,60,10.0,0.0
6114,83.0,12,350,10.0,0.0
6115,71.0,3,120,11.0,0.0
6116,59.0,7,120,12.0,0.0
6117,56.0,3,120,13.0,0.0
6118,44.0,95,120,14.0,0.0
6119,69.0,3,120,11.0,0.0
6120,57.0,7,120,12.0,0.0
6121,54.0,3,120,13.0,0.0
6122,42.0,45,120,14.0,0.0
6123,71.0,302,60,10.0,0.0
6124,83.0,12,350,10.0,0.0
6125,69.0,3,120,11.0,0.0
6126,57.0,7,120,12.0,0.0
6127,54.0,3,120,13.0,0.0
6128,42.0,95,120,14.0,0.0
6129,68.0,3,120,11.0,0.0
6130,56.0,7,120,12.0,0.0
6131,52.0,3,120,13.0,0.0
6132,40.0,45,120,14.0,0.0
6133,71.0,302,60,10.0,0.0
6134,83.0,12,350,10.0,0.0
6135,68.0,3,120,11.0,0.0
6136,56.0,7,120,12.0,0.0
6137,52.0,3,120,13.0,0.0
6138,40.0,95,120,14.0,0.0
6139,66.0,3,120,11.0,0.0
6140,54.0,7,120,12.0,0.0
6141,57.0,3,120,13.0,0.0
6142,45.0,45,120,14.0,0.0
6143,71.0,302,60,10.0,0.0
6144,83.0,2,350,10.0,0.0
6145,66.0,3,120,11.0,0.0
6146,54.0,7,120,12.0,0.0
6147,57.0,3,120,13.0,0.0
6148,45.0,95,120,14.0,0.0
6149,71.0,3,110,11.0,0.0
6150,59.0,6,110,12.0,0.0
6151,56.0,2,110,13.0,0.0
6152,44.0,1,110,14.0,0.0
6153,83.0,36,85,10.0,0.0
6154,83.0,1,120,0.0,0.0
6155,71.0,2,120,11.0,0.0
6156,71.0,1,120,1.0,0.0
6157,59.0,1,120,12.0,0.0
6158,47.0,0,0,5.0,0.0
6159,59.0,79,0,5.0,0.0
6160,59.0,71,120,3.0,0.0
6161,56.0,0,120,3.0,0.0
6162,71.0,47,85,10.0,0.0
6163,54.0,3,120,13.0,0.0
6164,42.0,70,120,14.0,0.0
6165,83.0,36,85,10.0,0.0
6166,83.0,1,120,0.0,0.0
6167,69.0,2,120,11.0,0.0
6168,71.0,1,120,1.0,0.0
6169,57.0,1,120,12.0,0.0
6170,47.0,8,120,5.0,0.0
6171,59.0,0,120,5.0,0.0
6172,59.0,71,120,3.0,0.0
6173,57.0,0,120,3.0,0.0
6174,71.0,47,85,10.0,0.0
6175,52.0,3,120,13.0,0.0
6176,40.0,70,120,14.0,0.0
6177,83.0,36,85,10.0,0.0
6178,83.0,1,120,0.0,0.0
6179,68.0,2,120,11.0,0.0
6180,71.0,1,120,1.0,0.0
6181,56.0,1,120,12.0,0.0
6182,52.0,8,120,5.0,0.0
6183,64.0,0,120,5.0,0.0
6184,59.0,71,120,3.0,0.0
6185,56.0,0,120,3.0,0.0
6186,76.0,47,85,10.0,0.0
6187,50.0,3,120,13.0,0.0
6188,38.0,70,120,14.0,0.0
6189,88.0,36,85,10.0,0.0
6190,88.0,1,120,0.0,0.0
6191,68.0,2,120,11.0,0.0
6192,76.0,1,120,1.0,0.0
6193,56.0,1,120,12.0,0.0
6194,64.0,0,120,5.0,0.0
6195,52.0,8,120,5.0,0.0
6196,56.0,0,120,3.0,0.0
6197,64.0,71,120,3.0,0.0
6198,76.0,47,85,10.0,0.0
6199,49.0,3,120,13.0,0.0
6200,37.0,70,120,14.0,0.0
6201,88.0,36,85,10.0,0.0
6202,88.0,1,120,0.0,0.0
6203,69.0,2,120,11.0,0.0
6204,76.0,1,120,1.0,0.0
6205,57.0,1,120,12.0,0.0
6206,52.0,8,120,5.0,0.0
6207,64.0,0,120,5.0,0.0
6208,64.0,71,120,3.0,0.0
6209,57.0,0,120,3.0,0.0
6210,76.0,47,85,10.0,0.0
6211,59.0,3,120,13.0,0.0
6212,47.0,70,120,14.0,0.0
6213,88.0,36,85,10.0,0.0
6214,88.0,1,120,0.0,0.0
6215,74.0,2,120,11.0,0.0
6216,76.0,1,120,1.0,0.0
6217,62.0,1,120,12.0,0.0
6218,52.0,0,120,5.0,0.0
6219,64.0,8,120,5.0,0.0
6220,59.0,71,120,3.0,0.0
6221,64.0,0,120,3.0,0.0
6222,76.0,47,85,10.0,0.0
6223,57.0,3,120,13.0,0.0
6224,45.0,70,120,14.0,0.0
6225,88.0,36,85,10.0,0.0
6226,88.0,1,120,0.0,0.0
6227,73.0,2,120,11.0,0.0
6228,76.0,1,120,1.0,0.0
6229,61.0,1,120,12.0,0.0
6230,64.0,8,120,5.0,0.0
6231,52.0,0,120,5.0,0.0
6232,61.0,0,120,3.0,0.0
6233,64.0,71,120,3.0,0.0
6234,77.0,47,85,10.0,0.0
6235,56.0,3,120,13.0,0.0
6236,44.0,70,120,14.0,0.0
6237,89.0,36,85,10.0,0.0
6238,89.0,1,120,0.0,0.0
6239,71.0,2,120,11.0,0.0
6240,77.0,1,120,1.0,0.0
6241,59.0,1,120,12.0,0.0
6242,59.0,8,120,5.0,0.0
6243,47.0,0,120,5.0,0.0
6244,59.0,71,120,3.0,0.0
6245,65.0,0,120,3.0,0.0
6246,78.0,47,85,10.0,0.0
6247,54.0,3,120,13.0,0.0
6248,42.0,70,120,14.0,0.0
6249,90.0,36,85,10.0,0.0
6250,90.0,1,120,0.0,0.0
6251,69.0,2,120,11.0,0.0
6252,78.0,1,120,1.0,0.0
6253,69.0,0,120,1.0,0.0
6254,57.0,1,120,12.0,0.0
6255,59.0,8,120,5.0,0.0
6256,47.0,0,120,5.0,0.0
6257,66.0,0,120,3.0,0.0
6258,57.0,71,120,3.0,0.0
6259,80.0,47,85,10.0,0.0
6260,52.0,3,120,13.0,0.0
6261,40.0,70,120,14.0,0.0
6262,92.0,36,85,10.0,0.0
6263,92.0,1,120,0.0,0.0
6264,68.0,2,120,11.0,0.0
6265,76.0,1,120,1.0,0.0
6266,80.0,0,120,1.0,0.0
6267,56.0,1,120,12.0,0.0
6268,47.0,0,120,5.0,0.0
6269,59.0,8,120,5.0,0.0
6270,64.0,71,120,3.0,0.0
6271,68.0,0,120,3.0,0.0
6272,81.0,47,85,10.0,0.0
6273,51.0,3,120,13.0,0.0
6274,39.0,70,120,14.0,0.0
6275,93.0,36,85,10.0,0.0
6276,93.0,1,120,0.0,0.0
6277,66.0,2,120,11.0,0.0
6278,81.0,0,120,1.0,0.0
6279,78.0,1,120,1.0,0.0
6280,54.0,1,120,12.0,0.0
6281,47.0,0,120,5.0,0.0
6282,59.0,8,120,5.0,0.0
6283,69.0,71,120,3.0,0.0
6284,66.0,0,120,3.0,0.0
6285,81.0,47,85,10.0,0.0
6286,49.0,3,120,13.0,0.0
6287,37.0,70,120,14.0,0.0
6288,93.0,36,85,10.0,0.0
6289,64.0,2,120,11.0,0.0
6290,78.0,0,120,1.0,0.0
6291,52.0,1,120,12.0,0.0
6292,59.0,0,120,5.0,0.0
6293,47.0,8,120,5.0,0.0
6294,93.0,1,120,10.0,0.0
6295,93.0,1,0,0.0,0.0
6296,63.0,2,120,11.0,0.0
6297,81.0,1,0,1.0,0.0
6298,78.0,0,120,1.0,0.0
6299,51.0,9,120,12.0,0.0
6300,47.0,3,60,13.0,0.0
6301,66.0,58,0,3.0,0.0
6302,69.0,0,0,3.0,0.0
6303,35.0,45,60,14.0,0.0
6304,54.0,3,60,13.0,0.0
6305,42.0,105,60,14.0,0.0
6306,71.0,12,60,10.0,0.0
6307,57.0,3,60,13.0,0.0
6308,45.0,51,60,14.0,0.0
6309,78.0,12,60,10.0,0.0
6310,47.0,0,0,5.0,0.0
6311,59.0,54,0,5.0,0.0
6312,59.0,3,60,13.0,0.0
6313,54.0,0,120,3.0,0.0
6314,57.0,46,120,3.0,0.0
6315,47.0,46,60,14.0,0.0
6316,81.0,5,60,10.0,0.0
6317,81.0,0,0,0.0,0.0
6318,78.0,5,0,0.0,0.0
6319,59.0,115,60,12.0,0.0
6320,59.0,8,0,5.0,0.0
6321,61.0,3,350,13.0,0.0
6322,54.0,0,360,3.0,0.0
6323,49.0,1,350,14.0,0.0
6324,83.0,5,60,10.0,0.0
6325,66.0,120,60,12.0,0.0
6326,85.0,1,360,10.0,0.0
6327,69.0,56,60,12.0,0.0
6328,78.0,1,120,0.0,0.0
6329,81.0,0,120,0.0,0.0
6330,71.0,1,240,12.0,0.0
6331,47.0,8,0,5.0,0.0
6332,59.0,0,0,5.0,0.0
6333,59.0,3,110,13.0,0.0
6334,54.0,48,120,3.0,0.0
6335,57.0,107,0,3.0,0.0
6336,47.0,1,110,14.0,0.0
6337,81.0,0,120,0.0,0.0
6338,71.0,58,60,11.0,0.0
6339,59.0,0,0,5.0,0.0
6340,47.0,8,0,5.0,0.0
6341,57.0,2,120,13.0,0.0
6342,57.0,0,0,3.0,0.0
6343,45.0,47,120,14.0,0.0
6344,83.0,11,110,10.0,0.0
6345,78.0,4,0,0.0,0.0
6346,81.0,1,120,0.0,0.0
6347,78.0,48,60,11.0,0.0
6348,59.0,6,0,5.0,0.0
6349,47.0,0,0,5.0,0.0
6350,54.0,3,110,13.0,0.0
6351,54.0,1,0,3.0,0.0
6352,57.0,0,0,3.0,0.0
6353,42.0,1,110,14.0,0.0
6354,81.0,2,60,10.0,0.0
6355,78.0,0,0,0.0,0.0
6356,81.0,0,120,0.0,0.0
6357,81.0,10,60,11.0,0.0
6358,59.0,8,0,5.0,0.0
6359,47.0,0,120,5.0,0.0
6360,49.0,3,60,13.0,0.0
6361,57.0,0,120,3.0,0.0
6362,54.0,46,120,3.0,0.0
6363,37.0,46,60,14.0,0.0
6364,78.0,12,60,10.0,0.0
6365,83.0,4,240,11.0,0.0
6366,59.0,8,0,5.0,0.0
6367,47.0,3,60,13.0,0.0
6368,54.0,0,120,3.0,0.0
6369,35.0,46,60,14.0,0.0
6370,81.0,1,120,10.0,0.0
6371,81.0,0,0,0.0,0.0
6372,78.0,5,0,0.0,0.0
6373,59.0,0,0,5.0,0.0
6374,47.0,8,0,5.0,0.0
6375,47.0,2,120,13.0,0.0
6376,57.0,106,0,3.0,0.0
6377,54.0,0,120,3.0,0.0
6378,35.0,95,120,14.0,0.0
6379,78.0,11,110,10.0,0.0
6380,78.0,5,120,0.0,0.0
6381,59.0,6,0,5.0,0.0
6382,47.0,0,0,5.0,0.0
6383,54.0,16,120,3.0,0.0
6384,57.0,0,120,3.0,0.0
6385,73.0,1,60,10.0,0.0
6386,81.0,0,1,0.0,0.0
6387,79.0,6,30,0.0,0.0
6388,59.0,0,0,5.0,0.0
6389,47.0,8,0,5.0,0.0
6390,55.0,1,30,3.0,0.0
6391,59.0,16,30,3.0,0.0
6392,78.0,12,30,0.0,0.0
6393,83.0,0,36,0.0,0.0
6394,54.0,2,30,3.0,0.0
6395,57.0,17,30,3.0,0.0
6396,79.0,12,30,0.0,0.0
6397,81.0,14,36,0.0,0.0
6398,55.0,1,30,3.0,0.0
6399,59.0,3,30,3.0,0.0
6400,78.0,4,30,0.0,0.0
6401,54.0,1,30,3.0,0.0
6402,57.0,9,30,3.0,0.0
6403,83.0,6,36,0.0,0.0
6404,79.0,14,30,0.0,0.0
6405,71.0,2,60,10.0,0.0
6406,59.0,0,120,5.0,0.0
6407,47.0,8,0,5.0,0.0
6408,59.0,1,30,3.0,0.0
6409,55.0,15,30,3.0,0.0
6410,81.0,0,36,0.0,0.0
6411,78.0,13,30,0.0,0.0
6412,54.0,15,30,3.0,0.0
6413,57.0,0,30,3.0,0.0
6414,76.0,0,30,0.0,0.0
6415,80.0,13,30,0.0,0.0
6416,56.0,1,30,3.0,0.0
6417,52.0,17,30,3.0,0.0
6418,78.0,5,30,0.0,0.0
6419,81.0,0,30,0.0,0.0
6420,54.0,1,30,3.0,0.0
6421,57.0,57,30,3.0,0.0
6422,83.0,0,360,0.0,0.0
6423,80.0,5,360,0.0,0.0
6424,47.0,8,0,5.0,0.0
6425,47.0,3,60,13.0,0.0
6426,35.0,117,60,14.0,0.0
6427,52.0,3,60,13.0,0.0
6428,40.0,105,60,14.0,0.0
6429,71.0,12,60,10.0,0.0
6430,56.0,3,60,13.0,0.0
6431,44.0,46,60,14.0,0.0
6432,76.0,12,60,10.0,0.0
6433,83.0,0,120,0.0,0.0
6434,80.0,5,120,0.0,0.0
6435,47.0,0,0,5.0,0.0
6436,59.0,8,0,5.0,0.0
6437,59.0,3,60,13.0,0.0
6438,59.0,46,0,3.0,0.0
6439,56.0,0,0,3.0,0.0
6440,47.0,46,60,14.0,0.0
6441,80.0,120,60,10.0,0.0
6442,80.0,0,360,0.0,0.0
6443,47.0,8,360,5.0,0.0
6444,59.0,0,360,5.0,0.0
6445,61.0,3,350,13.0,0.0
6446,49.0,1,350,14.0,0.0
6447,83.0,181,60,10.0,0.0
6448,85.0,1,360,10.0,0.0
6449,83.0,1,0,0.0,0.0
6450,59.0,3,110,13.0,0.0
6451,56.0,107,0,3.0,0.0
6452,59.0,0,0,3.0,0.0
6453,47.0,1,110,14.0,0.0
6454,83.0,0,0,0.0,0.0
6455,80.0,1,0,0.0,0.0
6456,59.0,55,60,12.0,0.0
6457,59.0,0,0,5.0,0.0
6458,47.0,8,0,5.0,0.0
6459,56.0,2,120,13.0,0.0
6460,56.0,0,0,3.0,0.0
6461,44.0,50,120,14.0,0.0
6462,83.0,11,110,10.0,0.0
6463,83.0,0,0,0.0,0.0
6464,80.0,0,120,0.0,0.0
6465,64.0,45,60,12.0,0.0
6466,59.0,0,0,5.0,0.0
6467,47.0,6,0,5.0,0.0
6468,52.0,3,110,13.0,0.0
6469,59.0,0,0,3.0,0.0
6470,56.0,1,0,3.0,0.0
6471,40.0,1,110,14.0,0.0
6472,80.0,5,60,10.0,0.0
6473,83.0,1,0,0.0,0.0
6474,68.0,7,60,12.0,0.0
6475,59.0,8,0,5.0,0.0
6476,47.0,0,0,5.0,0.0
6477,49.0,3,60,13.0,0.0
6478,37.0,46,60,14.0,0.0
6479,76.0,12,60,10.0,0.0
6480,83.0,0,0,0.0,0.0
6481,80.0,5,0,0.0,0.0
6482,71.0,1,240,12.0,0.0
6483,59.0,8,0,5.0,0.0
6484,47.0,3,60,13.0,0.0
6485,59.0,0,0,3.0,0.0
6486,56.0,46,0,3.0,0.0
6487,35.0,46,60,14.0,0.0
6488,80.0,1,120,10.0,0.0
6489,83.0,4,120,0.0,0.0
6490,80.0,0,120,0.0,0.0
6491,71.0,58,60,11.0,0.0
6492,59.0,0,0,5.0,0.0
6493,47.0,8,0,5.0,0.0
6494,47.0,2,120,13.0,0.0
6495,56.0,0,120,3.0,0.0
6496,35.0,47,120,14.0,0.0
6497,76.0,11,110,10.0,0.0
6498,80.0,0,120,0.0,0.0
6499,76.0,48,60,11.0,0.0
6500,59.0,6,0,5.0,0.0
6501,47.0,0,0,5.0,0.0
6502,59.0,1,0,3.0,0.0
6503,56.0,0,120,3.0,0.0
6504,83.0,5,1,0.0,0.0
6505,73.0,0,60,10.0,0.0
6506,80.0,11,60,11.0,0.0
6507,81.0,4,30,0.0,0.0
6508,47.0,8,120,5.0,0.0
6509,59.0,0,120,5.0,0.0
6510,57.0,2,30,3.0,0.0
6511,60.0,15,30,3.0,0.0
6512,80.0,2,30,0.0,0.0
6513,84.0,1,36,0.0,0.0
6514,56.0,1,30,3.0,0.0
6515,59.0,17,30,3.0,0.0
6516,81.0,11,30,0.0,0.0
6517,83.0,13,36,0.0,0.0
6518,60.0,0,30,3.0,0.0
6519,57.0,6,30,3.0,0.0
6520,80.0,4,30,0.0,0.0
6521,59.0,1,30,3.0,0.0
6522,56.0,10,30,3.0,0.0
6523,84.0,7,36,0.0,0.0
6524,71.0,1,60,10.0,0.0
6525,83.0,10,240,11.0,0.0
6526,81.0,11,30,0.0,0.0
6527,59.0,0,120,5.0,0.0
6528,47.0,7,120,5.0,0.0
6529,57.0,2,30,3.0,0.0
6530,60.0,15,30,3.0,0.0
6531,83.0,1,36,0.0,0.0
6532,80.0,11,30,0.0,0.0
6533,56.0,2,30,3.0,0.0
6534,59.0,15,30,3.0,0.0
6535,81.0,1,30,0.0,0.0
6536,78.0,12,30,0.0,0.0
6537,57.0,2,30,3.0,0.0
6538,54.0,16,30,3.0,0.0
6539,83.0,5,30,0.0,0.0
6540,80.0,0,30,0.0,0.0
6541,59.0,2,30,3.0,0.0
6542,56.0,107,30,3.0,0.0
6543,85.0,0,360,0.0,0.0
6544,81.0,5,360,0.0,0.0
6545,47.0,0,360,5.0,0.0
6546,61.0,3,120,13.0,0.0
6547,57.0,0,360,3.0,0.0
6548,61.0,58,360,3.0,0.0
6549,49.0,105,120,14.0,0.0
6550,85.0,2,120,10.0,0.0
6551,69.0,3,120,11.0,0.0
6552,57.0,2,120,12.0,0.0
6553,59.0,3,115,13.0,0.0
6554,47.0,50,115,14.0,0.0
6555,81.0,2,60,10.0,0.0
6556,73.0,3,60,11.0,0.0
6557,61.0,7,60,12.0,0.0
6558,49.0,3,60,13.0,0.0
6559,37.0,46,60,14.0,0.0
6560,85.0,1,120,10.0,0.0
6561,85.0,1,120,0.0,0.0
6562,81.0,0,120,0.0,0.0
6563,69.0,3,120,11.0,0.0
6564,57.0,1,120,12.0,0.0
6565,59.0,8,0,5.0,0.0
6566,47.0,3,60,13.0,0.0
6567,57.0,46,120,3.0,0.0
6568,61.0,0,120,3.0,0.0
6569,35.0,45,60,14.0,0.0
6570,83.0,2,60,10.0,0.0
6571,83.0,5,360,0.0,0.0
6572,75.0,3,60,11.0,0.0
6573,63.0,67,60,12.0,0.0
6574,47.0,8,0,5.0,0.0
6575,59.0,0,0,5.0,0.0
6576,63.0,3,120,13.0,0.0
6577,59.0,0,360,3.0,0.0
6578,51.0,105,120,14.0,0.0
6579,87.0,2,120,10.0,0.0
6580,71.0,3,120,11.0,0.0
6581,59.0,2,120,12.0,0.0
6582,59.0,3,115,13.0,0.0
6583,47.0,50,115,14.0,0.0
6584,83.0,2,60,10.0,0.0
6585,75.0,3,60,11.0,0.0
6586,63.0,7,60,12.0,0.0
6587,49.0,3,60,13.0,0.0
6588,37.0,46,60,14.0,0.0
6589,87.0,1,120,10.0,0.0
6590,87.0,0,0,0.0,0.0
6591,83.0,1,120,0.0,0.0
6592,71.0,3,120,11.0,0.0
6593,59.0,1,120,12.0,0.0
6594,47.0,8,0,5.0,0.0
6595,47.0,3,60,13.0,0.0
6596,63.0,58,0,3.0,0.0
6597,59.0,46,120,3.0,0.0
6598,35.0,45,60,14.0,0.0
6599,85.0,2,60,10.0,0.0
6600,85.0,0,360,0.0,0.0
6601,76.0,3,60,11.0,0.0
6602,64.0,67,60,12.0,0.0
6603,59.0,8,0,5.0,0.0
6604,64.0,3,120,13.0,0.0
6605,52.0,105,120,14.0,0.0
6606,88.0,2,120,10.0,0.0
6607,73.0,3,120,11.0,0.0
6608,61.0,2,120,12.0,0.0
6609,61.0,3,115,13.0,0.0
6610,49.0,50,115,14.0,0.0
6611,85.0,2,60,10.0,0.0
6612,76.0,3,60,11.0,0.0
6613,64.0,7,60,12.0,0.0
6614,49.0,3,60,13.0,0.0
6615,37.0,46,60,14.0,0.0
6616,88.0,1,120,10.0,0.0
6617,88.0,5,0,0.0,0.0
6618,85.0,1,120,0.0,0.0
6619,73.0,3,120,11.0,0.0
6620,61.0,1,120,12.0,0.0
6621,47.0,0,0,5.0,0.0
6622,59.0,8,0,5.0,0.0
6623,47.0,3,60,13.0,0.0
6624,64.0,0,0,3.0,0.0
6625,61.0,58,0,3.0,0.0
6626,35.0,45,60,14.0,0.0
6627,87.0,2,60,10.0,0.0
6628,78.0,3,60,11.0,0.0
6629,66.0,67,60,12.0,0.0
6630,47.0,8,360,5.0,0.0
6631,59.0,0,360,5.0,0.0
6632,66.0,3,120,13.0,0.0
6633,54.0,105,120,14.0,0.0
6634,90.0,2,120,10.0,0.0
6635,75.0,3,120,11.0,0.0
6636,63.0,2,120,12.0,0.0
6637,63.0,3,115,13.0,0.0
6638,51.0,50,115,14.0,0.0
6639,87.0,2,60,10.0,0.0
6640,78.0,3,60,11.0,0.0
6641,66.0,7,60,12.0,0.0
6642,49.0,3,60,13.0,0.0
6643,37.0,46,60,14.0,0.0
6644,90.0,1,120,10.0,0.0
6645,87.0,5,0,0.0,0.0
6646,90.0,0,0,0.0,0.0
6647,75.0,3,120,11.0,0.0
6648,63.0,1,120,12.0,0.0
6649,47.0,0,120,5.0,0.0
6650,47.0,3,60,13.0,0.0
6651,66.0,0,0,3.0,0.0
6652,63.0,58,0,3.0,0.0
6653,35.0,45,60,14.0,0.0
6654,87.0,2,60,10.0,0.0
6655,78.0,3,60,11.0,0.0
6656,71.0,0,960,7.0,0.0
6657,63.0,45,60,12.0,0.0
6658,59.0,8,0,5.0,0.0
6659,47.0,6,120,5.0,0.0
6660,59.0,6,960,7.0,0.0
6661,66.0,2,120,13.0,0.0
6662,47.0,1,960,8.0,0.0
6663,63.0,1,120,3.0,0.0
6664,66.0,0,120,3.0,0.0
6665,54.0,45,120,14.0,0.0
6666,90.0,2,50,10.0,0.0
6667,75.0,3,50,11.0,0.0
6668,59.0,6,50,12.0,0.0
6669,87.0,2,60,10.0,0.0
6670,90.0,0,0,0.0,0.0
6671,87.0,3,0,0.0,0.0
6672,78.0,3,60,11.0,0.0
6673,71.0,0,0,1.0,0.0
6674,83.0,2,0,1.0,0.0
6675,63.0,45,60,12.0,0.0
6676,47.0,0,120,5.0,0.0
6677,63.0,3,115,13.0,0.0
6678,63.0,0,120,3.0,0.0
6679,51.0,4,115,14.0,0.0
6680,90.0,2,50,10.0,0.0
6681,75.0,3,50,11.0,0.0
6682,59.0,6,50,12.0,0.0
6683,87.0,2,60,10.0,0.0
6684,90.0,0,0,0.0,0.0
6685,87.0,3,0,0.0,0.0
6686,78.0,3,60,11.0,0.0
6687,71.0,0,0,1.0,0.0
6688,83.0,2,0,1.0,0.0
6689,63.0,7,60,12.0,0.0
6690,47.0,8,120,5.0,0.0
6691,59.0,1,0,5.0,0.0
6692,59.0,3,60,13.0,0.0
6693,63.0,46,120,3.0,0.0
6694,66.0,46,0,3.0,0.0
6695,47.0,35,60,14.0,0.0
6696,90.0,2,50,10.0,0.0
6697,75.0,3,50,11.0,0.0
6698,59.0,6,50,12.0,0.0
6699,87.0,2,60,10.0,0.0
6700,87.0,0,0,0.0,0.0
6701,90.0,3,0,0.0,0.0
6702,78.0,3,60,11.0,0.0
6703,71.0,2,0,1.0,0.0
6704,63.0,7,60,12.0,0.0
6705,59.0,0,0,5.0,0.0
6706,47.0,0,120,5.0,0.0
6707,54.0,3,60,13.0,0.0
6708,66.0,0,0,3.0,0.0
6709,42.0,35,60,14.0,0.0
6710,90.0,2,50,10.0,0.0
6711,75.0,3,50,11.0,0.0
6712,59.0,6,50,12.0,0.0
6713,87.0,2,60,10.0,0.0
6714,90.0,0,0,0.0,0.0
6715,87.0,0,120,0.0,0.0
6716,78.0,3,60,11.0,0.0
6717,83.0,2,0,1.0,0.0
6718,71.0,0,0,1.0,0.0
6719,63.0,45,60,12.0,0.0
6720,47.0,6,120,5.0,0.0
6721,59.0,0,120,5.0,0.0
6722,51.0,2,120,13.0,0.0
6723,63.0,0,0,3.0,0.0
6724,66.0,46,0,3.0,0.0
6725,39.0,45,120,14.0,0.0
6726,90.0,2,50,10.0,0.0
6727,75.0,3,50,11.0,0.0
6728,59.0,6,50,12.0,0.0
6729,87.0,2,60,10.0,0.0
6730,78.0,3,60,11.0,0.0
6731,71.0,2,0,1.0,0.0
6732,83.0,0,120,1.0,0.0
6733,63.0,45,60,12.0,0.0
6734,47.0,3,115,13.0,0.0
6735,63.0,0,120,3.0,0.0
6736,35.0,4,115,14.0,0.0
6737,90.0,2,50,10.0,0.0
6738,75.0,3,50,11.0,0.0
6739,59.0,6,50,12.0,0.0
6740,87.0,2,60,10.0,0.0
6741,87.0,3,0,0.0,0.0
6742,90.0,0,0,0.0,0.0
6743,78.0,3,60,11.0,0.0
6744,71.0,0,120,1.0,0.0
6745,83.0,2,120,1.0,0.0
6746,63.0,7,60,12.0,0.0
6747,59.0,1,0,5.0,0.0
6748,47.0,0,0,5.0,0.0
6749,45.0,3,60,13.0,0.0
6750,66.0,46,0,3.0,0.0
6751,33.0,35,60,14.0,0.0
6752,90.0,2,50,10.0,0.0
6753,75.0,3,50,11.0,0.0
6754,59.0,6,50,12.0,0.0
6755,87.0,2,60,10.0,0.0
6756,90.0,3,0,0.0,0.0
6757,87.0,0,120,0.0,0.0
6758,78.0,3,60,11.0,0.0
6759,83.0,0,120,1.0,0.0
6760,63.0,7,60,12.0,0.0
6761,47.0,0,0,5.0,0.0
6762,59.0,8,0,5.0,0.0
6763,42.0,3,60,13.0,0.0
6764,63.0,46,0,3.0,0.0
6765,66.0,0,120,3.0,0.0
6766,30.0,35,60,14.0,0.0
6767,90.0,2,50,10.0,0.0
6768,75.0,3,50,11.0,0.0
6769,59.0,6,50,12.0,0.0
6770,92.0,2,100,10.0,0.0
6771,88.0,3,120,0.0,0.0
6772,92.0,0,120,0.0,0.0
6773,80.0,3,100,11.0,0.0
6774,83.0,2,120,1.0,0.0
6775,71.0,2,0,1.0,0.0
6776,64.0,16,100,12.0,0.0
6777,64.0,0,120,5.0,0.0
6778,52.0,1,120,5.0,0.0
6779,64.0,0,117,7.0,0.0
6780,40.0,3,60,13.0,0.0
6781,52.0,1,120,8.0,0.0
6782,68.0,0,120,3.0,0.0
6783,64.0,166,120,3.0,0.0
6784,28.0,25,60,14.0,0.0
6785,90.0,2,180,10.0,0.0
6786,80.0,3,180,11.0,0.0
6787,75.0,7,180,12.0,0.0
6788,44.0,3,180,13.0,0.0
6789,32.0,46,180,14.0,0.0
6790,90.0,3,120,0.0,0.0
6791,87.0,0,120,0.0,0.0
6792,68.0,0,120,1.0,0.0
6793,80.0,2,120,1.0,0.0
6794,68.0,0,120,7.0,0.0
6795,68.0,7,120,5.0,0.0
6796,56.0,0,120,5.0,0.0
6797,56.0,1,120,8.0,0.0
6798,63.0,166,120,3.0,0.0
6799,66.0,0,120,3.0,0.0
6800,88.0,2,180,10.0,0.0
6801,80.0,3,180,11.0,0.0
6802,73.0,7,180,12.0,0.0
6803,49.0,3,180,13.0,0.0
6804,37.0,46,180,14.0,0.0
6805,85.0,3,120,0.0,0.0
6806,88.0,0,120,0.0,0.0
6807,76.0,0,120,1.0,0.0
6808,64.0,0,120,1.0,0.0
6809,61.0,2,120,7.0,0.0
6810,52.0,7,120,5.0,0.0
6811,64.0,0,120,5.0,0.0
6812,49.0,1,120,8.0,0.0
6813,64.0,166,120,3.0,0.0
6814,61.0,0,120,3.0,0.0
6815,87.0,2,180,10.0,0.0
6816,76.0,3,180,11.0,0.0
6817,71.0,7,180,12.0,0.0
6818,52.0,3,180,13.0,0.0
6819,40.0,46,180,14.0,0.0
6820,83.0,0,120,0.0,0.0
6821,87.0,3,120,0.0,0.0
6822,64.0,0,120,1.0,0.0
6823,76.0,0,120,1.0,0.0
6824,52.0,1,120,5.0,0.0
6825,64.0,0,120,5.0,0.0
6826,64.0,2,117,7.0,0.0
6827,52.0,1,120,8.0,0.0
6828,59.0,0,120,3.0,0.0
6829,63.0,166,120,3.0,0.0
6830,85.0,2,180,10.0,0.0
6831,76.0,3,180,11.0,0.0
6832,69.0,7,180,12.0,0.0
6833,57.0,3,180,13.0,0.0
6834,45.0,46,180,14.0,0.0
6835,85.0,3,120,0.0,0.0
6836,81.0,0,120,0.0,0.0
6837,69.0,2,120,7.0,0.0
6838,64.0,1,120,5.0,0.0
6839,52.0,0,120,5.0,0.0
6840,57.0,6,120,7.0,0.0
6841,45.0,1,120,8.0,0.0
6842,61.0,166,120,3.0,0.0
6843,57.0,0,120,3.0,0.0
6844,83.0,2,180,10.0,0.0
6845,73.0,3,180,11.0,0.0
6846,68.0,7,180,12.0,0.0
6847,61.0,3,180,13.0,0.0
6848,49.0,46,180,14.0,0.0
6849,83.0,3,120,0.0,0.0
6850,80.0,0,120,0.0,0.0
6851,61.0,3,120,7.0,0.0
6852,56.0,6,120,7.0,0.0
6853,49.0,1,120,8.0,0.0
6854,56.0,166,120,3.0,0.0
6855,59.0,0,120,3.0,0.0
6856,81.0,2,180,10.0,0.0
6857,73.0,3,180,11.0,0.0
6858,66.0,7,180,12.0,0.0
6859,66.0,3,180,13.0,0.0
6860,54.0,46,180,14.0,0.0
6861,81.0,3,120,0.0,0.0
6862,78.0,0,120,0.0,0.0
6863,69.0,2,120,7.0,0.0
6864,66.0,1,120,5.0,0.0
6865,66.0,6,120,7.0,0.0
6866,54.0,1,120,8.0,0.0
6867,54.0,166,120,3.0,0.0
6868,57.0,0,120,3.0,0.0
6869,81.0,2,180,10.0,0.0
6870,72.0,3,180,11.0,0.0
6871,66.0,7,180,12.0,0.0
6872,64.0,3,180,13.0,0.0
6873,52.0,46,180,14.0,0.0
6874,90.0,3,120,0.0,0.0
6875,81.0,0,120,0.0,0.0
6876,81.0,2,120,1.0,0.0
6877,78.0,0,120,1.0,0.0
6878,69.0,0,120,7.0,0.0
6879,52.0,1,120,5.0,0.0
6880,64.0,0,120,5.0,0.0
6881,69.0,0,120,2.0,0.0
6882,72.0,0,120,2.0,0.0
6883,66.0,6,120,7.0,0.0
6884,52.0,1,120,8.0,0.0
6885,57.0,0,120,3.0,0.0
6886,60.0,166,120,3.0,0.0
6887,81.0,2,180,10.0,0.0
6888,71.0,3,180,11.0,0.0
6889,66.0,7,180,12.0,0.0
6890,63.0,3,180,13.0,0.0
6891,51.0,46,180,14.0,0.0
6892,90.0,3,120,0.0,0.0
6893,81.0,0,120,0.0,0.0
6894,69.0,2,120,7.0,0.0
6895,81.0,0,120,1.0,0.0
6896,78.0,0,120,1.0,0.0
6897,47.0,0,120,5.0,0.0
6898,59.0,1,120,5.0,0.0
6899,71.0,0,120,2.0,0.0
6900,69.0,0,120,2.0,0.0
6901,66.0,6,120,7.0,0.0
6902,51.0,1,120,8.0,0.0
6903,57.0,406,120,3.0,0.0
6904,59.0,0,120,3.0,0.0
6905,80.0,2,180,10.0,0.0
6906,71.0,3,180,11.0,0.0
6907,64.0,7,180,12.0,0.0
6908,64.0,3,180,13.0,0.0
6909,52.0,46,180,14.0,0.0
6910,88.0,0,120,0.0,0.0
6911,80.0,3,120,0.0,0.0
6912,80.0,0,120,1.0,0.0
6913,76.0,0,120,1.0,0.0
6914,68.0,2,120,7.0,0.0
6915,64.0,0,120,5.0,0.0
6916,52.0,1,120,5.0,0.0
6917,59.0,6,120,7.0,0.0
6918,52.0,1,120,8.0,0.0
6919,56.0,406,120,3.0,0.0
6920,59.0,0,120,3.0,0.0
6921,81.0,2,180,10.0,0.0
6922,78.0,3,180,11.0,0.0
6923,61.0,7,180,12.0,0.0
6924,57.0,3,180,13.0,0.0
6925,45.0,46,180,14.0,0.0
6926,81.0,0,120,0.0,0.0
6927,90.0,3,120,0.0,0.0
6928,69.0,2,120,7.0,0.0
6929,78.0,0,120,1.0,0.0
6930,81.0,0,120,1.0,0.0
6931,52.0,0,120,5.0,0.0
6932,64.0,1,120,5.0,0.0
6933,66.0,6,120,7.0,0.0
6934,45.0,1,120,8.0,0.0
6935,45.0,0,120,3.0,0.0
6936,57.0,406,120,3.0,0.0
6937,78.0,2,180,10.0,0.0
6938,69.0,3,180,11.0,0.0
6939,63.0,7,180,12.0,0.0
6940,59.0,3,180,13.0,0.0
6941,47.0,46,180,14.0,0.0
6942,87.0,0,120,0.0,0.0
6943,78.0,3,120,0.0,0.0
6944,66.0,2,120,7.0,0.0
6945,69.0,0,120,1.0,0.0
6946,78.0,0,120,1.0,0.0
6947,47.0,0,120,5.0,0.0
6948,59.0,1,120,5.0,0.0
6949,59.0,6,120,7.0,0.0
6950,47.0,1,120,8.0,0.0
6951,59.0,0,120,3.0,0.0
6952,47.0,408,120,3.0,0.0
6953,56.0,56,240,5.0,0.0
6954,64.0,0,240,5.0,0.0
6955,52.0,3,50,13.0,0.0
6956,40.0,57,50,14.0,0.0
6957,52.0,3,50,13.0,0.0
6958,40.0,1,50,14.0,0.0
6959,71.0,0,240,5.0,0.0
6960,52.0,3,50,13.0,0.0
6961,40.0,57,50,14.0,0.0
6962,52.0,3,50,13.0,0.0
6963,40.0,57,50,14.0,0.0
6964,52.0,3,50,13.0,0.0
6965,40.0,57,50,14.0,0.0
6966,52.0,3,50,13.0,0.0
6967,40.0,1,50,14.0,0.0
6968,68.0,56,0,5.0,0.0
6969,64.0,0,120,5.0,0.0
6970,52.0,3,50,13.0,0.0
6971,40.0,57,50,14.0,0.0
6972,52.0,3,50,13.0,0.0
6973,40.0,1,50,14.0,0.0
6974,83.0,2,50,10.0,0.0
6975,81.0,1,120,0.0,0.0
6976,71.0,3,50,11.0,0.0
6977,71.0,0,120,1.0,0.0
6978,78.0,1,120,1.0,0.0
6979,71.0,0,480,7.0,0.0
6980,69.0,7,50,12.0,0.0
6981,59.0,8,480,5.0,0.0
6982,66.0,0,480,5.0,0.0
6983,59.0,6,600,7.0,0.0
6984,52.0,3,50,13.0,0.0
6985,52.0,1,600,8.0,0.0
6986,57.0,36,120,3.0,0.0
6987,66.0,0,120,3.0,0.0
6988,40.0,45,50,14.0,0.0
6989,83.0,2,50,10.0,0.0
6990,71.0,3,50,11.0,0.0
6991,66.0,6,50,12.0,0.0
6992,52.0,2,50,13.0,0.0
6993,40.0,9,50,14.0,0.0
6994,83.0,2,50,10.0,0.0
6995,90.0,1,240,0.0,0.0
6996,83.0,0,0,0.0,0.0
6997,71.0,3,50,11.0,0.0
6998,81.0,1,240,1.0,0.0
6999,63.0,7,50,12.0,0.0
7000,52.0,3,50,13.0,0.0
7001,66.0,36,240,3.0,0.0
7002,69.0,0,240,3.0,0.0
7003,40.0,45,50,14.0,0.0
7004,83.0,2,50,10.0,0.0
7005,71.0,3,50,11.0,0.0
7006,59.0,7,50,12.0,0.0
7007,52.0,3,50,13.0,0.0
7008,40.0,45,50,14.0,0.0
7009,83.0,2,50,10.0,0.0
7010,71.0,3,50,11.0,0.0
7011,57.0,7,50,12.0,0.0
7012,52.0,3,50,13.0,0.0
7013,40.0,45,50,14.0,0.0
7014,83.0,2,50,10.0,0.0
7015,71.0,3,50,11.0,0.0
7016,57.0,6,50,12.0,0.0
7017,52.0,2,50,13.0,0.0
7018,40.0,9,50,14.0,0.0
7019,85.0,2,50,10.0,0.0
7020,87.0,1,120,0.0,0.0
7021,83.0,0,120,0.0,0.0
7022,73.0,3,50,11.0,0.0
7023,71.0,0,120,1.0,0.0
7024,78.0,0,0,1.0,0.0
7025,57.0,7,50,12.0,0.0
7026,52.0,3,50,13.0,0.0
7027,66.0,48,120,3.0,0.0
7028,57.0,0,120,3.0,0.0
7029,40.0,45,50,14.0,0.0
7030,87.0,2,50,10.0,0.0
7031,75.0,3,50,11.0,0.0
7032,57.0,6,50,12.0,0.0
7033,52.0,2,50,13.0,0.0
7034,40.0,1,50,14.0,0.0
7035,88.0,1,120,10.0,0.0
7036,83.0,0,120,0.0,0.0
7037,88.0,1,120,0.0,0.0
7038,76.0,2,120,11.0,0.0
7039,76.0,0,120,1.0,0.0
7040,64.0,0,120,7.0,0.0
7041,80.0,1,120,1.0,0.0
7042,56.0,1,120,12.0,0.0
7043,64.0,0,120,5.0,0.0
7044,56.0,1,120,5.0,0.0
7045,52.0,3,50,13.0,0.0
7046,64.0,48,120,3.0,0.0
7047,68.0,0,120,3.0,0.0
7048,40.0,55,50,14.0,0.0
7049,52.0,0,50,13.0,0.0
7050,40.0,0,50,14.0,0.0
7051,71.0,0,240,5.0,0.0
7052,52.0,3,50,13.0,0.0
7053,40.0,57,50,14.0,0.0
7054,52.0,3,50,13.0,0.0
7055,40.0,57,50,14.0,0.0
7056,52.0,3,50,13.0,0.0
7057,40.0,57,50,14.0,0.0
7058,52.0,3,50,13.0,0.0
7059,40.0,1,50,14.0,0.0
7060,68.0,56,0,5.0,0.0
7061,64.0,44,120,5.0,0.0
7062,52.0,3,50,13.0,0.0
7063,40.0,57,50,14.0,0.0
7064,52.0,3,50,13.0,0.0
7065,40.0,1,50,14.0,0.0
7066,83.0,2,50,10.0,0.0
7067,81.0,1,120,0.0,0.0
7068,71.0,3,50,11.0,0.0
7069,71.0,1,120,1.0,0.0
7070,71.0,0,480,7.0,0.0
7071,69.0,7,50,12.0,0.0
7072,59.0,8,480,5.0,0.0
7073,66.0,0,480,5.0,0.0
7074,59.0,5,600,7.0,0.0
7075,52.0,3,50,13.0,0.0
7076,52.0,1,600,8.0,0.0
7077,66.0,36,120,3.0,0.0
7078,57.0,0,120,3.0,0.0
7079,40.0,45,50,14.0,0.0
7080,83.0,2,50,10.0,0.0
7081,71.0,3,50,11.0,0.0
7082,66.0,6,50,12.0,0.0
7083,52.0,2,50,13.0,0.0
7084,40.0,9,50,14.0,0.0
7085,83.0,2,50,10.0,0.0
7086,83.0,0,0,0.0,0.0
7087,90.0,1,240,0.0,0.0
7088,71.0,3,50,11.0,0.0
7089,78.0,0,0,1.0,0.0
7090,81.0,1,240,1.0,0.0
7091,63.0,7,50,12.0,0.0
7092,52.0,3,50,13.0,0.0
7093,69.0,0,240,3.0,0.0
7094,40.0,45,50,14.0,0.0
7095,83.0,2,50,10.0,0.0
7096,71.0,3,50,11.0,0.0
7097,59.0,7,50,12.0,0.0
7098,52.0,3,50,13.0,0.0
7099,40.0,45,50,14.0,0.0
7100,83.0,2,50,10.0,0.0
7101,71.0,3,50,11.0,0.0
7102,57.0,7,50,12.0,0.0
7103,52.0,3,50,13.0,0.0
7104,40.0,45,50,14.0,0.0
7105,83.0,2,50,10.0,0.0
7106,71.0,3,50,11.0,0.0
7107,57.0,6,50,12.0,0.0
7108,52.0,2,50,13.0,0.0
7109,40.0,9,50,14.0,0.0
7110,85.0,2,50,10.0,0.0
7111,87.0,1,120,0.0,0.0
7112,73.0,3,50,11.0,0.0
7113,78.0,0,0,1.0,0.0
7114,71.0,1,120,1.0,0.0
7115,57.0,7,50,12.0,0.0
7116,52.0,3,50,13.0,0.0
7117,66.0,36,0,3.0,0.0
7118,57.0,106,120,3.0,0.0
7119,40.0,45,50,14.0,0.0
7120,87.0,2,50,10.0,0.0
7121,75.0,3,50,11.0,0.0
7122,57.0,6,50,12.0,0.0
7123,52.0,2,50,13.0,0.0
7124,40.0,1,50,14.0,0.0
7125,88.0,1,120,10.0,0.0
7126,83.0,0,0,0.0,0.0
7127,88.0,1,120,0.0,0.0
7128,76.0,2,120,11.0,0.0
7129,64.0,0,120,7.0,0.0
7130,76.0,1,120,1.0,0.0
7131,80.0,0,120,1.0,0.0
7132,56.0,1,120,12.0,0.0
7133,64.0,1,120,5.0,0.0
7134,56.0,0,120,5.0,0.0
7135,52.0,1,120,13.0,0.0
7136,64.0,1,120,3.0,0.0
7137,52.0,0,120,3.0,0.0
7138,40.0,85,120,14.0,0.0
7139,83.0,80,100,10.0,0.0
7140,81.0,120,60,10.0,0.0
7141,80.0,180,60,10.0,0.0
7142,83.0,100,120,10.0,0.0
7143,80.0,80,100,10.0,0.0
7144,78.0,120,60,10.0,0.0
7145,76.0,180,60,10.0,0.0
7146,80.0,100,120,10.0,0.0
7147,76.0,80,100,10.0,0.0
7148,73.0,120,60,10.0,0.0
7149,71.0,180,60,10.0,0.0
7150,76.0,100,120,10.0,0.0
7151,71.0,80,100,10.0,0.0
7152,69.0,120,60,10.0,0.0
7153,68.0,180,60,10.0,0.0
7154,71.0,100,120,10.0,0.0
7155,68.0,80,100,10.0,0.0
7156,66.0,120,60,10.0,0.0
7157,64.0,180,60,10.0,0.0
7158,71.0,100,120,10.0,0.0
7159,68.0,80,100,10.0,0.0
7160,66.0,120,60,10.0,0.0
7161,64.0,180,60,10.0,0.0
7162,71.0,100,120,10.0,0.0
7163,68.0,80,100,10.0,0.0
7164,66.0,120,60,10.0,0.0
7165,64.0,180,60,10.0,0.0
7166,71.0,100,120,10.0,0.0
7167,68.0,80,100,10.0,0.0
7168,66.0,120,60,10.0,0.0
7169,64.0,74,60,10.0,0.0
7170,71.0,100,120,10.0,0.0
7171,64.0,106,0,3.0,0.0
7172,67.0,80,100,10.0,0.0
7173,66.0,120,60,10.0,0.0
7174,64.0,180,60,10.0,0.0
7175,71.0,100,120,10.0,0.0
7176,67.0,80,100,10.0,0.0
7177,66.0,120,60,10.0,0.0
7178,64.0,180,60,10.0,0.0
7179,71.0,100,120,10.0,0.0
7180,67.0,80,100,10.0,0.0
7181,66.0,120,60,10.0,0.0
7182,64.0,180,60,10.0,0.0
7183,71.0,100,120,10.0,0.0
7184,67.0,80,100,10.0,0.0
7185,66.0,120,60,10.0,0.0
7186,64.0,74,60,10.0,0.0
7187,55.0,0,50,10.0,0.0
7188,67.0,5,50,10.0,0.0
7189,79.0,0,2040,0.0,0.0
7190,88.0,1,2040,0.0,0.0
7191,58.0,10,120,11.0,0.0
7192,76.0,1,2040,6.0,0.0
7193,64.0,0,2040,6.0,0.0
7194,67.0,0,2040,7.0,0.0
7195,52.0,2,2040,4.0,0.0
7196,64.0,0,2040,4.0,0.0
7197,58.0,55,50,12.0,0.0
7198,67.0,0,2040,2.0,0.0
7199,70.0,1,2040,2.0,0.0
7200,64.0,5,2040,7.0,0.0
7201,46.0,2,120,13.0,0.0
7202,58.0,1,2040,8.0,0.0
7203,67.0,0,0,3.0,0.0
7204,64.0,36,0,3.0,0.0
7205,34.0,35,120,14.0,0.0
7206,67.0,5,50,10.0,0.0
7207,55.0,0,50,10.0,0.0
7208,58.0,7,50,12.0,0.0
7209,67.0,0,50,10.0,0.0
7210,55.0,5,50,10.0,0.0
7211,58.0,55,50,12.0,0.0
7212,67.0,5,50,10.0,0.0
7213,55.0,0,50,10.0,0.0
7214,58.0,55,50,12.0,0.0
7215,55.0,5,50,10.0,0.0
7216,67.0,0,50,10.0,0.0
7217,58.0,55,50,12.0,0.0
7218,55.0,5,50,10.0,0.0
7219,67.0,0,50,10.0,0.0
7220,58.0,55,50,12.0,0.0
7221,67.0,5,50,10.0,0.0
7222,55.0,0,50,10.0,0.0
7223,58.0,55,50,12.0,0.0
7224,55.0,5,50,10.0,0.0
7225,67.0,0,50,10.0,0.0
7226,58.0,55,50,12.0,0.0
7227,67.0,5,50,10.0,0.0
7228,55.0,0,50,10.0,0.0
7229,58.0,55,50,12.0,0.0
7230,67.0,5,50,10.0,0.0
7231,55.0,0,50,10.0,0.0
7232,58.0,55,50,12.0,0.0
7233,67.0,5,50,10.0,0.0
7234,55.0,0,50,10.0,0.0
7235,55.0,10,60,11.0,0.0
7236,58.0,7,50,12.0,0.0
7237,43.0,2,60,13.0,0.0
7238,43.0,1,60,3.0,0.0
7239,31.0,35,60,14.0,0.0
7240,55.0,5,50,10.0,0.0
7241,67.0,0,50,10.0,0.0
7242,57.0,10,60,11.0,0.0
7243,58.0,7,50,12.0,0.0
7244,45.0,2,60,13.0,0.0
7245,45.0,1,60,3.0,0.0
7246,33.0,35,60,14.0,0.0
7247,55.0,0,50,10.0,0.0
7248,67.0,5,50,10.0,0.0
7249,58.0,10,60,11.0,0.0
7250,58.0,7,50,12.0,0.0
7251,46.0,2,60,13.0,0.0
7252,46.0,1,60,3.0,0.0
7253,34.0,35,60,14.0,0.0
7254,67.0,0,50,10.0,0.0
7255,55.0,5,50,10.0,0.0
7256,60.0,10,60,11.0,0.0
7257,58.0,7,50,12.0,0.0
7258,48.0,2,60,13.0,0.0
7259,48.0,1,60,3.0,0.0
7260,36.0,35,60,14.0,0.0
7261,55.0,5,50,10.0,0.0
7262,67.0,0,50,10.0,0.0
7263,58.0,10,60,11.0,0.0
7264,58.0,7,50,12.0,0.0
7265,46.0,2,60,13.0,0.0
7266,46.0,1,60,3.0,0.0
7267,34.0,35,60,14.0,0.0
7268,67.0,2,50,10.0,0.0
7269,55.0,0,50,10.0,0.0
7270,57.0,3,50,11.0,0.0
7271,58.0,7,50,12.0,0.0
7272,45.0,2,50,13.0,0.0
7273,45.0,1,50,3.0,0.0
7274,33.0,45,50,14.0,0.0
7275,67.0,5,50,10.0,0.0
7276,55.0,0,50,10.0,0.0
7277,55.0,10,60,11.0,0.0
7278,58.0,7,50,12.0,0.0
7279,43.0,2,60,13.0,0.0
7280,43.0,1,60,3.0,0.0
7281,31.0,35,60,14.0,0.0
7282,67.0,0,50,10.0,0.0
7283,55.0,5,50,10.0,0.0
7284,58.0,10,60,11.0,0.0
7285,58.0,7,50,12.0,0.0
7286,46.0,2,60,13.0,0.0
7287,46.0,1,60,3.0,0.0
7288,34.0,35,60,14.0,0.0
7289,55.0,0,50,10.0,0.0
7290,67.0,5,50,10.0,0.0
7291,60.0,10,60,11.0,0.0
7292,58.0,7,50,12.0,0.0
7293,48.0,2,60,13.0,0.0
7294,48.0,1,60,3.0,0.0
7295,36.0,35,60,14.0,0.0
7296,55.0,5,50,10.0,0.0
7297,67.0,0,50,10.0,0.0
7298,62.0,10,60,11.0,0.0
7299,58.0,7,50,12.0,0.0
7300,50.0,2,60,13.0,0.0
7301,50.0,1,60,3.0,0.0
7302,38.0,35,60,14.0,0.0
7303,55.0,5,50,10.0,0.0
7304,67.0,0,50,10.0,0.0
7305,64.0,10,60,11.0,0.0
7306,58.0,7,50,12.0,0.0
7307,52.0,2,60,13.0,0.0
7308,52.0,1,60,3.0,0.0
7309,40.0,35,60,14.0,0.0
7310,55.0,5,50,10.0,0.0
7311,67.0,0,50,10.0,0.0
7312,65.0,10,60,11.0,0.0
7313,58.0,7,50,12.0,0.0
7314,53.0,2,60,13.0,0.0
7315,53.0,1,60,3.0,0.0
7316,41.0,35,60,14.0,0.0
7317,55.0,5,50,10.0,0.0
7318,67.0,0,50,10.0,0.0
7319,67.0,10,60,11.0,0.0
7320,58.0,7,50,12.0,0.0
7321,55.0,2,60,13.0,0.0
7322,55.0,1,60,3.0,0.0
7323,43.0,35,60,14.0,0.0
7324,55.0,2,50,10.0,0.0
7325,67.0,0,50,10.0,0.0
7326,69.0,3,50,11.0,0.0
7327,58.0,7,50,12.0,0.0
7328,57.0,2,50,13.0,0.0
7329,57.0,1,50,3.0,0.0
7330,45.0,45,50,14.0,0.0
7331,67.0,0,50,10.0,0.0
7332,55.0,5,50,10.0,0.0
7333,70.0,10,60,11.0,0.0
7334,58.0,7,50,12.0,0.0
7335,58.0,2,60,13.0,0.0
7336,58.0,1,60,3.0,0.0
7337,46.0,35,60,14.0,0.0
7338,67.0,0,50,10.0,0.0
7339,55.0,5,50,10.0,0.0
7340,58.0,55,50,12.0,0.0
7341,55.0,5,50,10.0,0.0
7342,67.0,0,50,10.0,0.0
7343,69.0,10,60,11.0,0.0
7344,58.0,7,50,12.0,0.0
7345,57.0,2,60,13.0,0.0
7346,57.0,1,60,3.0,0.0
7347,45.0,35,60,14.0,0.0
7348,55.0,5,50,10.0,0.0
7349,67.0,0,50,10.0,0.0
7350,67.0,10,60,11.0,0.0
7351,58.0,7,50,12.0,0.0
7352,55.0,2,60,13.0,0.0
7353,55.0,1,60,3.0,0.0
7354,43.0,35,60,14.0,0.0
7355,67.0,0,50,10.0,0.0
7356,55.0,5,50,10.0,0.0
7357,65.0,10,60,11.0,0.0
7358,58.0,7,50,12.0,0.0
7359,53.0,2,60,13.0,0.0
7360,53.0,1,60,3.0,0.0
7361,41.0,35,60,14.0,0.0
7362,55.0,0,50,10.0,0.0
7363,67.0,5,50,10.0,0.0
7364,64.0,10,60,11.0,0.0
7365,58.0,7,50,12.0,0.0
7366,52.0,2,60,13.0,0.0
7367,52.0,1,60,3.0,0.0
7368,40.0,35,60,14.0,0.0
7369,67.0,5,50,10.0,0.0
7370,55.0,0,50,10.0,0.0
7371,62.0,10,60,11.0,0.0
7372,58.0,7,50,12.0,0.0
7373,50.0,2,60,13.0,0.0
7374,50.0,1,60,3.0,0.0
7375,38.0,35,60,14.0,0.0
7376,67.0,0,50,10.0,0.0
7377,55.0,2,50,10.0,0.0
7378,60.0,3,50,11.0,0.0
7379,58.0,7,50,12.0,0.0
7380,48.0,2,50,13.0,0.0
7381,48.0,1,50,3.0,0.0
7382,36.0,115,50,14.0,0.0
7383,58.0,1,120,10.0,0.0
7384,79.0,1,830,1.0,0.0
7385,46.0,1,120,13.0,0.0
7386,67.0,56,830,3.0,0.0
7387,46.0,1,120,3.0,0.0
7388,34.0,97,120,14.0,0.0
7389,64.0,112,120,10.0,0.0
7390,67.0,8,110,11.0,0.0
7391,58.0,1,0,11.0,0.0
7392,67.0,68,110,11.0,0.0
7393,58.0,0,110,11.0,0.0
7394,67.0,62,60,10.0,0.0
7395,58.0,118,110,13.0,0.0
7396,64.0,2,120,10.0,0.0
7397,58.0,110,110,13.0,0.0
7398,67.0,112,120,10.0,0.0
7399,58.0,0,110,11.0,0.0
7400,67.0,3,110,11.0,0.0
7401,64.0,5,110,12.0,0.0
7402,58.0,0,110,11.0,0.0
7403,67.0,2,110,11.0,0.0
7404,64.0,9,110,12.0,0.0
7405,70.0,4,60,10.0,0.0
7406,77.0,10,60,1.0,0.0
7407,58.0,118,110,13.0,0.0
7408,65.0,48,60,3.0,0.0
7409,67.0,2,120,10.0,0.0
7410,77.0,10,120,1.0,0.0
7411,58.0,2,110,13.0,0.0
7412,65.0,98,120,3.0,0.0
7413,70.0,4,120,10.0,0.0
7414,67.0,0,110,11.0,0.0
7415,58.0,3,110,11.0,0.0
7416,76.0,10,120,1.0,0.0
7417,64.0,5,110,12.0,0.0
7418,64.0,98,120,3.0,0.0
7419,67.0,3,110,11.0,0.0
7420,58.0,0,110,11.0,0.0
7421,64.0,65,110,12.0,0.0
7422,76.0,4,60,10.0,0.0
7423,74.0,10,60,1.0,0.0
7424,58.0,118,110,13.0,0.0
7425,62.0,48,60,3.0,0.0
7426,70.0,2,120,10.0,0.0
7427,74.0,10,120,1.0,0.0
7428,58.0,2,110,13.0,0.0
7429,62.0,98,120,3.0,0.0
7430,76.0,4,120,10.0,0.0
7431,58.0,0,110,11.0,0.0
7432,67.0,3,110,11.0,0.0
7433,72.0,10,120,1.0,0.0
7434,64.0,5,110,12.0,0.0
7435,60.0,98,120,3.0,0.0
7436,67.0,3,110,11.0,0.0
7437,58.0,0,110,11.0,0.0
7438,64.0,65,110,12.0,0.0
7439,79.0,4,60,10.0,0.0
7440,72.0,10,60,1.0,0.0
7441,58.0,48,110,13.0,0.0
7442,60.0,48,60,3.0,0.0
7443,67.0,5,50,10.0,0.0
7444,55.0,0,50,10.0,0.0
7445,79.0,1,1920,0.0,0.0
7446,88.0,0,1920,0.0,0.0
7447,67.0,0,110,11.0,0.0
7448,58.0,3,110,11.0,0.0
7449,64.0,0,1920,6.0,0.0
7450,76.0,1,1920,6.0,0.0
7451,67.0,3,2040,7.0,0.0
7452,52.0,1,1920,4.0,0.0
7453,64.0,0,1920,4.0,0.0
7454,58.0,55,50,12.0,0.0
7455,70.0,0,1920,2.0,0.0
7456,67.0,114,1920,2.0,0.0
7457,64.0,5,2040,7.0,0.0
7458,46.0,3,110,13.0,0.0
7459,58.0,1,2040,8.0,0.0
7460,46.0,0,120,3.0,0.0
7461,58.0,36,120,3.0,0.0
7462,34.0,9,110,14.0,0.0
7463,67.0,2,50,10.0,0.0
7464,55.0,0,50,10.0,0.0
7465,58.0,7,50,12.0,0.0
7466,67.0,5,50,10.0,0.0
7467,55.0,0,50,10.0,0.0
7468,58.0,55,50,12.0,0.0
7469,55.0,5,50,10.0,0.0
7470,67.0,0,50,10.0,0.0
7471,58.0,55,50,12.0,0.0
7472,55.0,5,50,10.0,0.0
7473,67.0,0,50,10.0,0.0
7474,58.0,55,50,12.0,0.0
7475,55.0,0,50,10.0,0.0
7476,67.0,5,50,10.0,0.0
7477,58.0,55,50,12.0,0.0
7478,55.0,5,50,10.0,0.0
7479,67.0,0,50,10.0,0.0
7480,58.0,55,50,12.0,0.0
7481,67.0,5,50,10.0,0.0
7482,55.0,0,50,10.0,0.0
7483,58.0,55,50,12.0,0.0
7484,55.0,5,50,10.0,0.0
7485,67.0,0,50,10.0,0.0
7486,58.0,55,50,12.0,0.0
7487,67.0,5,50,10.0,0.0
7488,55.0,0,50,10.0,0.0
7489,58.0,55,50,12.0,0.0
7490,67.0,5,50,10.0,0.0
7491,55.0,0,50,10.0,0.0
7492,55.0,10,60,11.0,0.0
7493,58.0,7,50,12.0,0.0
7494,43.0,2,60,13.0,0.0
7495,43.0,1,60,3.0,0.0
7496,31.0,35,60,14.0,0.0
7497,67.0,0,50,10.0,0.0
7498,55.0,5,50,10.0,0.0
7499,57.0,10,60,11.0,0.0
7500,58.0,7,50,12.0,0.0
7501,45.0,2,60,13.0,0.0
7502,45.0,1,60,3.0,0.0
7503,33.0,35,60,14.0,0.0
7504,67.0,5,50,10.0,0.0
7505,55.0,0,50,10.0,0.0
7506,58.0,10,60,11.0,0.0
7507,58.0,7,50,12.0,0.0
7508,46.0,2,60,13.0,0.0
7509,46.0,1,60,3.0,0.0
7510,34.0,35,60,14.0,0.0
7511,55.0,5,50,10.0,0.0
7512,67.0,0,50,10.0,0.0
7513,60.0,10,60,11.0,0.0
7514,58.0,7,50,12.0,0.0
7515,48.0,2,60,13.0,0.0
7516,48.0,1,60,3.0,0.0
7517,36.0,35,60,14.0,0.0
7518,55.0,5,50,10.0,0.0
7519,67.0,0,50,10.0,0.0
7520,58.0,10,60,11.0,0.0
7521,58.0,7,50,12.0,0.0
7522,46.0,2,60,13.0,0.0
7523,46.0,1,60,3.0,0.0
7524,34.0,35,60,14.0,0.0
7525,67.0,2,50,10.0,0.0
7526,55.0,0,50,10.0,0.0
7527,57.0,3,50,11.0,0.0
7528,58.0,7,50,12.0,0.0
7529,45.0,2,50,13.0,0.0
7530,45.0,1,50,3.0,0.0
7531,33.0,45,50,14.0,0.0
7532,67.0,0,50,10.0,0.0
7533,55.0,5,50,10.0,0.0
7534,55.0,10,60,11.0,0.0
7535,58.0,7,50,12.0,0.0
7536,43.0,2,60,13.0,0.0
7537,43.0,1,60,3.0,0.0
7538,31.0,35,60,14.0,0.0
7539,55.0,5,50,10.0,0.0
7540,67.0,0,50,10.0,0.0
7541,58.0,10,60,11.0,0.0
7542,58.0,7,50,12.0,0.0
7543,46.0,2,60,13.0,0.0
7544,46.0,1,60,3.0,0.0
7545,34.0,35,60,14.0,0.0
7546,55.0,5,50,10.0,0.0
7547,67.0,0,50,10.0,0.0
7548,60.0,10,60,11.0,0.0
7549,58.0,7,50,12.0,0.0
7550,48.0,2,60,13.0,0.0
7551,48.0,1,60,3.0,0.0
7552,36.0,35,60,14.0,0.0
7553,67.0,5,50,10.0,0.0
7554,55.0,0,50,10.0,0.0
7555,62.0,10,60,11.0,0.0
7556,58.0,7,50,12.0,0.0
7557,50.0,2,60,13.0,0.0
7558,50.0,1,60,3.0,0.0
7559,38.0,35,60,14.0,0.0
7560,67.0,5,50,10.0,0.0
7561,55.0,0,50,10.0,0.0
7562,64.0,10,60,11.0,0.0
7563,58.0,7,50,12.0,0.0
7564,52.0,2,60,13.0,0.0
7565,52.0,1,60,3.0,0.0
7566,40.0,35,60,14.0,0.0
7567,67.0,0,50,10.0,0.0
7568,55.0,5,50,10.0,0.0
7569,65.0,10,60,11.0,0.0
7570,58.0,7,50,12.0,0.0
7571,53.0,2,60,13.0,0.0
7572,53.0,1,60,3.0,0.0
7573,41.0,35,60,14.0,0.0
7574,55.0,0,50,10.0,0.0
7575,67.0,5,50,10.0,0.0
7576,67.0,10,60,11.0,0.0
7577,58.0,7,50,12.0,0.0
7578,55.0,2,60,13.0,0.0
7579,55.0,1,60,3.0,0.0
7580,43.0,35,60,14.0,0.0
7581,55.0,0,50,10.0,0.0
7582,67.0,2,50,10.0,0.0
7583,69.0,3,50,11.0,0.0
7584,58.0,7,50,12.0,0.0
7585,57.0,2,50,13.0,0.0
7586,57.0,1,50,3.0,0.0
7587,45.0,45,50,14.0,0.0
7588,55.0,0,50,10.0,0.0
7589,67.0,5,50,10.0,0.0
7590,70.0,10,60,11.0,0.0
7591,58.0,7,50,12.0,0.0
7592,58.0,2,60,13.0,0.0
7593,58.0,1,60,3.0,0.0
7594,46.0,35,60,14.0,0.0
7595,55.0,0,50,10.0,0.0
7596,67.0,5,50,10.0,0.0
7597,58.0,55,50,12.0,0.0
7598,55.0,0,50,10.0,0.0
7599,67.0,5,50,10.0,0.0
7600,69.0,10,60,11.0,0.0
7601,58.0,7,50,12.0,0.0
7602,57.0,2,60,13.0,0.0
7603,57.0,1,60,3.0,0.0
7604,45.0,35,60,14.0,0.0
7605,55.0,5,50,10.0,0.0
7606,67.0,0,50,10.0,0.0
7607,67.0,10,60,11.0,0.0
7608,58.0,7,50,12.0,0.0
7609,55.0,2,60,13.0,0.0
7610,55.0,1,60,3.0,0.0
7611,43.0,35,60,14.0,0.0
7612,67.0,5,50,10.0,0.0
7613,55.0,0,50,10.0,0.0
7614,65.0,10,60,11.0,0.0
7615,58.0,7,50,12.0,0.0
7616,53.0,2,60,13.0,0.0
7617,53.0,1,60,3.0,0.0
7618,41.0,35,60,14.0,0.0
7619,67.0,5,50,10.0,0.0
7620,55.0,0,50,10.0,0.0
7621,64.0,10,60,11.0,0.0
7622,58.0,7,50,12.0,0.0
7623,52.0,2,60,13.0,0.0
7624,52.0,1,60,3.0,0.0
7625,40.0,35,60,14.0,0.0
7626,67.0,5,50,10.0,0.0
7627,55.0,0,50,10.0,0.0
7628,62.0,10,60,11.0,0.0
7629,58.0,7,50,12.0,0.0
7630,50.0,2,60,13.0,0.0
7631,50.0,1,60,3.0,0.0
7632,38.0,35,60,14.0,0.0
7633,67.0,0,50,10.0,0.0
7634,55.0,2,50,10.0,0.0
7635,60.0,3,50,11.0,0.0
7636,58.0,6,50,12.0,0.0
7637,48.0,1,50,13.0,0.0
7638,48.0,0,50,3.0,0.0
7639,36.0,1,50,14.0,0.0
7640,58.0,2,120,10.0,0.0
7641,58.0,2,120,11.0,0.0
7642,79.0,1,830,1.0,0.0
7643,46.0,1,120,13.0,0.0
7644,46.0,1,120,3.0,0.0
7645,67.0,56,830,3.0,0.0
7646,34.0,97,120,14.0,0.0
7647,64.0,112,120,10.0,0.0
7648,67.0,0,110,11.0,0.0
7649,58.0,8,110,11.0,0.0
7650,58.0,68,110,11.0,0.0
7651,67.0,0,110,11.0,0.0
7652,67.0,62,60,10.0,0.0
7653,58.0,118,110,13.0,0.0
7654,64.0,2,120,10.0,0.0
7655,58.0,110,110,13.0,0.0
7656,67.0,112,120,10.0,0.0
7657,67.0,0,110,11.0,0.0
7658,58.0,3,110,11.0,0.0
7659,64.0,5,110,12.0,0.0
7660,67.0,2,110,11.0,0.0
7661,58.0,0,110,11.0,0.0
7662,64.0,9,110,12.0,0.0
7663,73.0,4,60,10.0,0.0
7664,77.0,10,60,1.0,0.0
7665,58.0,118,110,13.0,0.0
7666,65.0,48,60,3.0,0.0
7667,67.0,2,120,10.0,0.0
7668,77.0,10,120,1.0,0.0
7669,58.0,2,110,13.0,0.0
7670,65.0,98,120,3.0,0.0
7671,73.0,4,120,10.0,0.0
7672,58.0,0,110,11.0,0.0
7673,67.0,3,110,11.0,0.0
7674,76.0,10,120,1.0,0.0
7675,64.0,5,110,12.0,0.0
7676,64.0,98,120,3.0,0.0
7677,58.0,3,110,11.0,0.0
7678,67.0,0,110,11.0,0.0
7679,64.0,65,110,12.0,0.0
7680,76.0,4,60,10.0,0.0
7681,74.0,10,60,1.0,0.0
7682,58.0,118,110,13.0,0.0
7683,62.0,48,60,3.0,0.0
7684,73.0,2,120,10.0,0.0
7685,74.0,10,120,1.0,0.0
7686,58.0,2,110,13.0,0.0
7687,62.0,98,120,3.0,0.0
7688,76.0,4,120,10.0,0.0
7689,58.0,3,110,11.0,0.0
7690,67.0,0,110,11.0,0.0
7691,73.0,10,120,1.0,0.0
7692,64.0,5,110,12.0,0.0
7693,61.0,98,120,3.0,0.0
7694,67.0,3,110,11.0,0.0
7695,58.0,0,110,11.0,0.0
7696,64.0,65,110,12.0,0.0
7697,79.0,4,60,10.0,0.0
7698,73.0,10,60,1.0,0.0
7699,58.0,118,110,13.0,0.0
7700,61.0,48,60,3.0,0.0
7701,61.0,2,120,10.0,0.0
7702,79.0,1,830,1.0,0.0
7703,82.0,0,830,1.0,0.0
7704,70.0,8,830,2.0,0.0
7705,57.0,110,110,13.0,0.0
7706,67.0,56,830,3.0,0.0
7707,64.0,112,120,10.0,0.0
7708,57.0,3,110,11.0,0.0
7709,67.0,0,110,11.0,0.0
7710,64.0,5,110,12.0,0.0
7711,57.0,0,110,11.0,0.0
7712,67.0,3,110,11.0,0.0
7713,64.0,65,110,12.0,0.0
7714,67.0,62,60,10.0,0.0
7715,57.0,118,110,13.0,0.0
7716,64.0,2,120,10.0,0.0
7717,57.0,110,110,13.0,0.0
7718,67.0,112,120,10.0,0.0
7719,67.0,0,110,11.0,0.0
7720,57.0,3,110,11.0,0.0
7721,64.0,5,110,12.0,0.0
7722,57.0,2,110,11.0,0.0
7723,67.0,0,110,11.0,0.0
7724,64.0,1,110,12.0,0.0
7725,73.0,4,60,10.0,0.0
7726,81.0,2,60,1.0,0.0
7727,77.0,0,60,1.0,0.0
7728,69.0,8,60,2.0,0.0
7729,57.0,118,110,13.0,0.0
7730,65.0,48,60,3.0,0.0
7731,67.0,2,120,10.0,0.0
7732,81.0,0,120,1.0,0.0
7733,77.0,2,120,1.0,0.0
7734,69.0,8,120,2.0,0.0
7735,57.0,2,110,13.0,0.0
7736,65.0,98,120,3.0,0.0
7737,73.0,4,120,10.0,0.0
7738,67.0,3,110,11.0,0.0
7739,57.0,0,110,11.0,0.0
7740,79.0,0,120,1.0,0.0
7741,76.0,2,120,1.0,0.0
7742,64.0,5,110,12.0,0.0
7743,67.0,8,120,2.0,0.0
7744,64.0,98,120,3.0,0.0
7745,57.0,0,110,11.0,0.0
7746,67.0,3,110,11.0,0.0
7747,64.0,65,110,12.0,0.0
7748,76.0,4,60,10.0,0.0
7749,74.0,2,60,1.0,0.0
7750,77.0,0,60,1.0,0.0
7751,65.0,8,60,2.0,0.0
7752,57.0,118,110,13.0,0.0
7753,62.0,48,60,3.0,0.0
7754,73.0,2,120,10.0,0.0
7755,74.0,0,120,1.0,0.0
7756,77.0,2,120,1.0,0.0
7757,65.0,8,120,2.0,0.0
7758,57.0,2,110,13.0,0.0
7759,62.0,98,120,3.0,0.0
7760,76.0,4,120,10.0,0.0
7761,67.0,0,110,11.0,0.0
7762,57.0,3,110,11.0,0.0
7763,76.0,0,120,1.0,0.0
7764,73.0,2,120,1.0,0.0
7765,64.0,5,110,12.0,0.0
7766,64.0,8,120,2.0,0.0
7767,61.0,98,120,3.0,0.0
7768,57.0,0,110,11.0,0.0
7769,67.0,3,110,11.0,0.0
7770,64.0,65,110,12.0,0.0
7771,79.0,4,60,10.0,0.0
7772,76.0,0,60,1.0,0.0
7773,73.0,2,60,1.0,0.0
7774,64.0,8,60,2.0,0.0
7775,57.0,48,110,13.0,0.0
7776,61.0,48,60,3.0,0.0
7777,69.0,0,50,10.0,0.0
7778,57.0,5,50,10.0,0.0
7779,85.0,3,2040,0.0,0.0
7780,88.0,0,2040,0.0,0.0
7781,67.0,3,110,11.0,0.0
7782,64.0,0,1920,6.0,0.0
7783,76.0,1,1920,6.0,0.0
7784,64.0,0,1920,4.0,0.0
7785,64.0,3,2040,7.0,0.0
7786,81.0,0,1910,1.0,0.0
7787,52.0,1,1920,4.0,0.0
7788,76.0,1,1910,1.0,0.0
7789,61.0,0,50,12.0,0.0
7790,64.0,55,50,12.0,0.0
7791,61.0,5,2040,7.0,0.0
7792,43.0,3,110,13.0,0.0
7793,55.0,2,2040,8.0,0.0
7794,55.0,0,1910,3.0,0.0
7795,43.0,0,1910,3.0,0.0
7796,31.0,45,110,14.0,0.0
7797,57.0,2,50,10.0,0.0
7798,69.0,0,50,10.0,0.0
7799,61.0,0,50,12.0,0.0
7800,64.0,7,50,12.0,0.0
7801,69.0,0,50,10.0,0.0
7802,57.0,5,50,10.0,0.0
7803,61.0,55,50,12.0,0.0
7804,64.0,0,50,12.0,0.0
7805,57.0,5,50,10.0,0.0
7806,69.0,0,50,10.0,0.0
7807,64.0,55,50,12.0,0.0
7808,61.0,0,50,12.0,0.0
7809,69.0,0,50,10.0,0.0
7810,57.0,5,50,10.0,0.0
7811,64.0,55,50,12.0,0.0
7812,61.0,0,50,12.0,0.0
7813,57.0,5,50,10.0,0.0
7814,69.0,0,50,10.0,0.0
7815,61.0,0,50,12.0,0.0
7816,64.0,55,50,12.0,0.0
7817,69.0,0,50,10.0,0.0
7818,57.0,5,50,10.0,0.0
7819,64.0,0,50,12.0,0.0
7820,61.0,55,50,12.0,0.0
7821,57.0,5,50,10.0,0.0
7822,69.0,0,50,10.0,0.0
7823,64.0,0,50,12.0,0.0
7824,61.0,55,50,12.0,0.0
7825,69.0,0,50,10.0,0.0
7826,57.0,5,50,10.0,0.0
7827,61.0,0,50,12.0,0.0
7828,64.0,55,50,12.0,0.0
7829,57.0,0,50,10.0,0.0
7830,69.0,5,50,10.0,0.0
7831,61.0,0,50,12.0,0.0
7832,64.0,55,50,12.0,0.0
7833,57.0,5,50,10.0,0.0
7834,69.0,0,50,10.0,0.0
7835,64.0,10,60,11.0,0.0
7836,64.0,0,50,12.0,0.0
7837,61.0,7,50,12.0,0.0
7838,40.0,3,60,13.0,0.0
7839,28.0,35,60,14.0,0.0
7840,57.0,0,50,10.0,0.0
7841,69.0,5,50,10.0,0.0
7842,66.0,10,60,11.0,0.0
7843,64.0,0,50,12.0,0.0
7844,61.0,7,50,12.0,0.0
7845,42.0,3,60,13.0,0.0
7846,30.0,35,60,14.0,0.0
7847,57.0,0,50,10.0,0.0
7848,69.0,5,50,10.0,0.0
7849,67.0,10,60,11.0,0.0
7850,61.0,0,50,12.0,0.0
7851,64.0,7,50,12.0,0.0
7852,43.0,3,60,13.0,0.0
7853,31.0,35,60,14.0,0.0
7854,57.0,5,50,10.0,0.0
7855,69.0,0,50,10.0,0.0
7856,69.0,10,60,11.0,0.0
7857,61.0,0,50,12.0,0.0
7858,64.0,7,50,12.0,0.0
7859,45.0,3,60,13.0,0.0
7860,33.0,35,60,14.0,0.0
7861,69.0,0,50,10.0,0.0
7862,57.0,5,50,10.0,0.0
7863,67.0,10,60,11.0,0.0
7864,64.0,0,50,12.0,0.0
7865,61.0,7,50,12.0,0.0
7866,43.0,3,60,13.0,0.0
7867,31.0,35,60,14.0,0.0
7868,69.0,0,50,10.0,0.0
7869,57.0,2,50,10.0,0.0
7870,66.0,3,50,11.0,0.0
7871,64.0,0,50,12.0,0.0
7872,61.0,7,50,12.0,0.0
7873,42.0,3,50,13.0,0.0
7874,30.0,45,50,14.0,0.0
7875,57.0,0,50,10.0,0.0
7876,69.0,5,50,10.0,0.0
7877,64.0,10,60,11.0,0.0
7878,61.0,7,50,12.0,0.0
7879,64.0,0,50,12.0,0.0
7880,40.0,3,60,13.0,0.0
7881,28.0,35,60,14.0,0.0
7882,57.0,5,50,10.0,0.0
7883,69.0,0,50,10.0,0.0
7884,67.0,10,60,11.0,0.0
7885,61.0,7,50,12.0,0.0
7886,64.0,0,50,12.0,0.0
7887,43.0,3,60,13.0,0.0
7888,31.0,35,60,14.0,0.0
7889,57.0,5,50,10.0,0.0
7890,69.0,0,50,10.0,0.0
7891,69.0,10,60,11.0,0.0
7892,61.0,7,50,12.0,0.0
7893,64.0,0,50,12.0,0.0
7894,45.0,3,60,13.0,0.0
7895,33.0,35,60,14.0,0.0
7896,57.0,0,50,10.0,0.0
7897,69.0,5,50,10.0,0.0
7898,71.0,10,60,11.0,0.0
7899,61.0,7,50,12.0,0.0
7900,64.0,0,50,12.0,0.0
7901,47.0,3,60,13.0,0.0
7902,35.0,35,60,14.0,0.0
7903,69.0,0,50,10.0,0.0
7904,57.0,5,50,10.0,0.0
7905,73.0,10,60,11.0,0.0
7906,61.0,7,50,12.0,0.0
7907,64.0,0,50,12.0,0.0
7908,49.0,3,60,13.0,0.0
7909,37.0,35,60,14.0,0.0
7910,57.0,0,50,10.0,0.0
7911,69.0,5,50,10.0,0.0
7912,74.0,10,60,11.0,0.0
7913,64.0,0,50,12.0,0.0
7914,61.0,7,50,12.0,0.0
7915,50.0,3,60,13.0,0.0
7916,38.0,35,60,14.0,0.0
7917,69.0,0,50,10.0,0.0
7918,57.0,5,50,10.0,0.0
7919,76.0,10,60,11.0,0.0
7920,64.0,7,50,12.0,0.0
7921,61.0,0,50,12.0,0.0
7922,52.0,3,60,13.0,0.0
7923,40.0,35,60,14.0,0.0
7924,57.0,0,50,10.0,0.0
7925,69.0,2,50,10.0,0.0
7926,78.0,3,50,11.0,0.0
7927,61.0,0,50,12.0,0.0
7928,64.0,7,50,12.0,0.0
7929,54.0,3,50,13.0,0.0
7930,42.0,45,50,14.0,0.0
7931,69.0,0,50,10.0,0.0
7932,57.0,5,50,10.0,0.0
7933,79.0,10,60,11.0,0.0
7934,61.0,7,50,12.0,0.0
7935,64.0,0,50,12.0,0.0
7936,55.0,3,60,13.0,0.0
7937,43.0,35,60,14.0,0.0
7938,57.0,5,50,10.0,0.0
7939,69.0,0,50,10.0,0.0
7940,61.0,55,50,12.0,0.0
7941,64.0,0,50,12.0,0.0
7942,69.0,0,50,10.0,0.0
7943,57.0,5,50,10.0,0.0
7944,78.0,10,60,11.0,0.0
7945,64.0,7,50,12.0,0.0
7946,61.0,0,50,12.0,0.0
7947,54.0,3,60,13.0,0.0
7948,42.0,35,60,14.0,0.0
7949,69.0,0,50,10.0,0.0
7950,57.0,5,50,10.0,0.0
7951,76.0,10,60,11.0,0.0
7952,64.0,0,50,12.0,0.0
7953,61.0,7,50,12.0,0.0
7954,52.0,3,60,13.0,0.0
7955,40.0,35,60,14.0,0.0
7956,57.0,5,50,10.0,0.0
7957,69.0,0,50,10.0,0.0
7958,74.0,10,60,11.0,0.0
7959,61.0,0,50,12.0,0.0
7960,64.0,7,50,12.0,0.0
7961,50.0,3,60,13.0,0.0
7962,38.0,35,60,14.0,0.0
7963,69.0,5,50,10.0,0.0
7964,57.0,0,50,10.0,0.0
7965,73.0,10,60,11.0,0.0
7966,64.0,7,50,12.0,0.0
7967,61.0,0,50,12.0,0.0
7968,49.0,3,60,13.0,0.0
7969,37.0,35,60,14.0,0.0
7970,57.0,5,50,10.0,0.0
7971,69.0,0,50,10.0,0.0
7972,71.0,10,60,11.0,0.0
7973,64.0,0,50,12.0,0.0
7974,61.0,7,50,12.0,0.0
7975,47.0,3,60,13.0,0.0
7976,35.0,35,60,14.0,0.0
7977,57.0,0,50,10.0,0.0
7978,69.0,2,50,10.0,0.0
7979,69.0,2,50,11.0,0.0
7980,61.0,7,50,12.0,0.0
7981,64.0,0,50,12.0,0.0
7982,45.0,1,50,13.0,0.0
7983,33.0,107,50,14.0,0.0
7984,57.0,1,120,10.0,0.0
7985,67.0,3,110,11.0,0.0
7986,76.0,1,830,1.0,0.0
7987,64.0,5,110,12.0,0.0
7988,61.0,0,110,12.0,0.0
7989,43.0,1,120,13.0,0.0
7990,64.0,56,830,3.0,0.0
7991,31.0,97,120,14.0,0.0
7992,61.0,112,120,10.0,0.0
7993,61.0,0,110,11.0,0.0
7994,64.0,3,110,11.0,0.0
7995,55.0,5,110,12.0,0.0
7996,61.0,3,110,11.0,0.0
7997,64.0,0,110,11.0,0.0
7998,55.0,65,110,12.0,0.0
7999,64.0,62,60,10.0,0.0
8000,55.0,118,110,13.0,0.0
8001,61.0,2,120,10.0,0.0
8002,55.0,110,110,13.0,0.0
8003,64.0,112,120,10.0,0.0
8004,61.0,0,110,11.0,0.0
8005,64.0,3,110,11.0,0.0
8006,55.0,5,110,12.0,0.0
8007,61.0,0,110,11.0,0.0
8008,64.0,2,110,11.0,0.0
8009,55.0,9,110,12.0,0.0
8010,69.0,4,60,10.0,0.0
8011,74.0,10,60,1.0,0.0
8012,55.0,118,110,13.0,0.0
8013,62.0,48,60,3.0,0.0
8014,64.0,2,120,10.0,0.0
8015,74.0,10,120,1.0,0.0
8016,55.0,2,110,13.0,0.0
8017,62.0,98,120,3.0,0.0
8018,69.0,4,120,10.0,0.0
8019,64.0,3,110,11.0,0.0
8020,61.0,0,110,11.0,0.0
8021,73.0,10,120,1.0,0.0
8022,55.0,5,110,12.0,0.0
8023,61.0,98,120,3.0,0.0
8024,61.0,3,110,11.0,0.0
8025,64.0,0,110,11.0,0.0
8026,55.0,65,110,12.0,0.0
8027,73.0,4,60,10.0,0.0
8028,71.0,10,60,1.0,0.0
8029,55.0,118,110,13.0,0.0
8030,59.0,48,60,3.0,0.0
8031,69.0,2,120,10.0,0.0
8032,71.0,10,120,1.0,0.0
8033,55.0,2,110,13.0,0.0
8034,59.0,98,120,3.0,0.0
8035,73.0,4,120,10.0,0.0
8036,61.0,0,110,11.0,0.0
8037,64.0,3,110,11.0,0.0
8038,69.0,10,120,1.0,0.0
8039,55.0,5,110,12.0,0.0
8040,57.0,98,120,3.0,0.0
8041,61.0,3,110,11.0,0.0
8042,64.0,0,110,11.0,0.0
8043,55.0,65,110,12.0,0.0
8044,76.0,4,60,10.0,0.0
8045,69.0,10,60,1.0,0.0
8046,55.0,48,110,13.0,0.0
8047,57.0,48,60,3.0,0.0
8048,81.0,5,50,10.0,0.0
8049,69.0,0,50,10.0,0.0
8050,88.0,3,2040,0.0,0.0
8051,85.0,0,2040,0.0,0.0
8052,67.0,3,110,11.0,0.0
8053,64.0,1,1920,6.0,0.0
8054,76.0,0,1920,6.0,0.0
8055,64.0,3,2040,7.0,0.0
8056,81.0,1,1910,1.0,0.0
8057,64.0,0,1920,4.0,0.0
8058,52.0,0,1920,4.0,0.0
8059,76.0,0,1910,1.0,0.0
8060,64.0,0,50,12.0,0.0
8061,61.0,55,50,12.0,0.0
8062,61.0,5,2040,7.0,0.0
8063,43.0,3,110,13.0,0.0
8064,55.0,2,2040,8.0,0.0
8065,43.0,1,1910,3.0,0.0
8066,55.0,0,1910,3.0,0.0
8067,31.0,45,110,14.0,0.0
8068,81.0,2,50,10.0,0.0
8069,69.0,0,50,10.0,0.0
8070,64.0,0,50,12.0,0.0
8071,61.0,7,50,12.0,0.0
8072,81.0,5,50,10.0,0.0
8073,69.0,0,50,10.0,0.0
8074,64.0,0,50,12.0,0.0
8075,61.0,55,50,12.0,0.0
8076,81.0,5,50,10.0,0.0
8077,69.0,0,50,10.0,0.0
8078,61.0,0,50,12.0,0.0
8079,64.0,55,50,12.0,0.0
8080,69.0,0,50,10.0,0.0
8081,81.0,5,50,10.0,0.0
8082,61.0,0,50,12.0,0.0
8083,64.0,55,50,12.0,0.0
8084,69.0,0,50,10.0,0.0
8085,81.0,5,50,10.0,0.0
8086,64.0,0,50,12.0,0.0
8087,61.0,55,50,12.0,0.0
8088,69.0,0,50,10.0,0.0
8089,81.0,5,50,10.0,0.0
8090,61.0,0,50,12.0,0.0
8091,64.0,55,50,12.0,0.0
8092,69.0,5,50,10.0,0.0
8093,81.0,0,50,10.0,0.0
8094,64.0,55,50,12.0,0.0
8095,61.0,0,50,12.0,0.0
8096,69.0,0,50,10.0,0.0
8097,81.0,5,50,10.0,0.0
8098,61.0,55,50,12.0,0.0
8099,64.0,0,50,12.0,0.0
8100,69.0,5,50,10.0,0.0
8101,81.0,0,50,10.0,0.0
8102,61.0,0,50,12.0,0.0
8103,64.0,55,50,12.0,0.0
8104,81.0,0,50,10.0,0.0
8105,69.0,5,50,10.0,0.0
8106,64.0,10,60,11.0,0.0
8107,61.0,7,50,12.0,0.0
8108,64.0,0,50,12.0,0.0
8109,40.0,3,60,13.0,0.0
8110,28.0,35,60,14.0,0.0
8111,81.0,0,50,10.0,0.0
8112,69.0,5,50,10.0,0.0
8113,66.0,10,60,11.0,0.0
8114,61.0,0,50,12.0,0.0
8115,64.0,7,50,12.0,0.0
8116,42.0,3,60,13.0,0.0
8117,30.0,35,60,14.0,0.0
8118,69.0,5,50,10.0,0.0
8119,81.0,0,50,10.0,0.0
8120,67.0,10,60,11.0,0.0
8121,64.0,0,50,12.0,0.0
8122,61.0,7,50,12.0,0.0
8123,43.0,3,60,13.0,0.0
8124,31.0,35,60,14.0,0.0
8125,81.0,5,50,10.0,0.0
8126,69.0,0,50,10.0,0.0
8127,69.0,10,60,11.0,0.0
8128,64.0,7,50,12.0,0.0
8129,61.0,0,50,12.0,0.0
8130,45.0,3,60,13.0,0.0
8131,33.0,35,60,14.0,0.0
8132,81.0,5,50,10.0,0.0
8133,69.0,0,50,10.0,0.0
8134,67.0,10,60,11.0,0.0
8135,64.0,0,50,12.0,0.0
8136,61.0,7,50,12.0,0.0
8137,43.0,3,60,13.0,0.0
8138,31.0,35,60,14.0,0.0
8139,69.0,0,50,10.0,0.0
8140,81.0,2,50,10.0,0.0
8141,66.0,3,50,11.0,0.0
8142,64.0,0,50,12.0,0.0
8143,61.0,7,50,12.0,0.0
8144,42.0,3,50,13.0,0.0
8145,30.0,45,50,14.0,0.0
8146,81.0,5,50,10.0,0.0
8147,69.0,0,50,10.0,0.0
8148,64.0,10,60,11.0,0.0
8149,64.0,7,50,12.0,0.0
8150,61.0,0,50,12.0,0.0
8151,40.0,3,60,13.0,0.0
8152,28.0,35,60,14.0,0.0
8153,81.0,5,50,10.0,0.0
8154,69.0,0,50,10.0,0.0
8155,67.0,10,60,11.0,0.0
8156,64.0,0,50,12.0,0.0
8157,61.0,7,50,12.0,0.0
8158,43.0,3,60,13.0,0.0
8159,31.0,35,60,14.0,0.0
8160,81.0,5,50,10.0,0.0
8161,69.0,0,50,10.0,0.0
8162,69.0,10,60,11.0,0.0
8163,61.0,0,50,12.0,0.0
8164,64.0,7,50,12.0,0.0
8165,45.0,3,60,13.0,0.0
8166,33.0,35,60,14.0,0.0
8167,81.0,0,50,10.0,0.0
8168,69.0,5,50,10.0,0.0
8169,71.0,10,60,11.0,0.0
8170,64.0,7,50,12.0,0.0
8171,61.0,0,50,12.0,0.0
8172,47.0,3,60,13.0,0.0
8173,35.0,35,60,14.0,0.0
8174,81.0,0,50,10.0,0.0
8175,69.0,5,50,10.0,0.0
8176,73.0,10,60,11.0,0.0
8177,61.0,7,50,12.0,0.0
8178,64.0,0,50,12.0,0.0
8179,49.0,3,60,13.0,0.0
8180,37.0,35,60,14.0,0.0
8181,69.0,0,50,10.0,0.0
8182,81.0,5,50,10.0,0.0
8183,74.0,10,60,11.0,0.0
8184,61.0,7,50,12.0,0.0
8185,64.0,0,50,12.0,0.0
8186,50.0,3,60,13.0,0.0
8187,38.0,35,60,14.0,0.0
8188,69.0,0,50,10.0,0.0
8189,81.0,5,50,10.0,0.0
8190,76.0,10,60,11.0,0.0
8191,64.0,0,50,12.0,0.0
8192,61.0,7,50,12.0,0.0
8193,52.0,3,60,13.0,0.0
8194,40.0,35,60,14.0,0.0
8195,69.0,0,50,10.0,0.0
8196,81.0,2,50,10.0,0.0
8197,78.0,3,50,11.0,0.0
8198,61.0,0,50,12.0,0.0
8199,64.0,7,50,12.0,0.0
8200,54.0,3,50,13.0,0.0
8201,42.0,45,50,14.0,0.0
8202,81.0,5,50,10.0,0.0
8203,69.0,0,50,10.0,0.0
8204,79.0,10,60,11.0,0.0
8205,61.0,0,50,12.0,0.0
8206,64.0,7,50,12.0,0.0
8207,55.0,3,60,13.0,0.0
8208,43.0,35,60,14.0,0.0
8209,69.0,5,50,10.0,0.0
8210,81.0,0,50,10.0,0.0
8211,64.0,0,50,12.0,0.0
8212,61.0,55,50,12.0,0.0
8213,81.0,5,50,10.0,0.0
8214,69.0,0,50,10.0,0.0
8215,78.0,10,60,11.0,0.0
8216,61.0,7,50,12.0,0.0
8217,64.0,0,50,12.0,0.0
8218,54.0,3,60,13.0,0.0
8219,42.0,35,60,14.0,0.0
8220,81.0,5,50,10.0,0.0
8221,69.0,0,50,10.0,0.0
8222,76.0,10,60,11.0,0.0
8223,61.0,7,50,12.0,0.0
8224,64.0,0,50,12.0,0.0
8225,52.0,3,60,13.0,0.0
8226,40.0,35,60,14.0,0.0
8227,69.0,0,50,10.0,0.0
8228,81.0,5,50,10.0,0.0
8229,74.0,10,60,11.0,0.0
8230,61.0,7,50,12.0,0.0
8231,64.0,0,50,12.0,0.0
8232,50.0,3,60,13.0,0.0
8233,38.0,35,60,14.0,0.0
8234,69.0,0,50,10.0,0.0
8235,81.0,5,50,10.0,0.0
8236,73.0,10,60,11.0,0.0
8237,64.0,0,50,12.0,0.0
8238,61.0,7,50,12.0,0.0
8239,49.0,3,60,13.0,0.0
8240,37.0,35,60,14.0,0.0
8241,69.0,5,50,10.0,0.0
8242,81.0,0,50,10.0,0.0
8243,71.0,10,60,11.0,0.0
8244,64.0,7,50,12.0,0.0
8245,61.0,0,50,12.0,0.0
8246,47.0,3,60,13.0,0.0
8247,35.0,35,60,14.0,0.0
8248,69.0,2,50,10.0,0.0
8249,81.0,0,50,10.0,0.0
8250,69.0,2,50,11.0,0.0
8251,61.0,7,50,12.0,0.0
8252,64.0,0,50,12.0,0.0
8253,45.0,1,50,13.0,0.0
8254,33.0,107,50,14.0,0.0
8255,58.0,1,120,10.0,0.0
8256,67.0,3,110,11.0,0.0
8257,76.0,1,830,1.0,0.0
8258,61.0,0,110,12.0,0.0
8259,64.0,5,110,12.0,0.0
8260,43.0,1,120,13.0,0.0
8261,64.0,56,830,3.0,0.0
8262,31.0,97,120,14.0,0.0
8263,61.0,112,120,10.0,0.0
8264,64.0,0,110,11.0,0.0
8265,61.0,3,110,11.0,0.0
8266,55.0,5,110,12.0,0.0
8267,61.0,0,110,11.0,0.0
8268,64.0,3,110,11.0,0.0
8269,55.0,65,110,12.0,0.0
8270,64.0,62,60,10.0,0.0
8271,55.0,118,110,13.0,0.0
8272,61.0,2,120,10.0,0.0
8273,55.0,110,110,13.0,0.0
8274,64.0,112,120,10.0,0.0
8275,61.0,0,110,11.0,0.0
8276,64.0,3,110,11.0,0.0
8277,55.0,5,110,12.0,0.0
8278,64.0,2,110,11.0,0.0
8279,61.0,0,110,11.0,0.0
8280,55.0,9,110,12.0,0.0
8281,70.0,4,60,10.0,0.0
8282,74.0,10,60,1.0,0.0
8283,55.0,118,110,13.0,0.0
8284,62.0,48,60,3.0,0.0
8285,64.0,2,120,10.0,0.0
8286,74.0,10,120,1.0,0.0
8287,55.0,2,110,13.0,0.0
8288,62.0,98,120,3.0,0.0
8289,70.0,4,120,10.0,0.0
8290,61.0,0,110,11.0,0.0
8291,64.0,3,110,11.0,0.0
8292,73.0,10,120,1.0,0.0
8293,55.0,5,110,12.0,0.0
8294,61.0,98,120,3.0,0.0
8295,61.0,3,110,11.0,0.0
8296,64.0,0,110,11.0,0.0
8297,55.0,65,110,12.0,0.0
8298,73.0,4,60,10.0,0.0
8299,71.0,10,60,1.0,0.0
8300,55.0,118,110,13.0,0.0
8301,59.0,48,60,3.0,0.0
8302,70.0,2,120,10.0,0.0
8303,71.0,10,120,1.0,0.0
8304,55.0,2,110,13.0,0.0
8305,59.0,98,120,3.0,0.0
8306,73.0,4,120,10.0,0.0
8307,61.0,3,110,11.0,0.0
8308,64.0,0,110,11.0,0.0
8309,70.0,10,120,1.0,0.0
8310,55.0,5,110,12.0,0.0
8311,58.0,98,120,3.0,0.0
8312,61.0,3,110,11.0,0.0
8313,64.0,0,110,11.0,0.0
8314,55.0,65,110,12.0,0.0
8315,76.0,4,60,10.0,0.0
8316,70.0,10,60,1.0,0.0
8317,55.0,118,110,13.0,0.0
8318,58.0,48,60,3.0,0.0
8319,58.0,2,120,10.0,0.0
8320,88.0,0,830,0.0,0.0
8321,91.0,1,830,0.0,0.0
8322,76.0,0,830,1.0,0.0
8323,79.0,1,830,1.0,0.0
8324,54.0,110,110,13.0,0.0
8325,64.0,0,830,3.0,0.0
8326,67.0,56,830,3.0,0.0
8327,61.0,112,120,10.0,0.0
8328,61.0,0,110,11.0,0.0
8329,64.0,3,110,11.0,0.0
8330,54.0,5,110,12.0,0.0
8331,61.0,3,110,11.0,0.0
8332,64.0,0,110,11.0,0.0
8333,54.0,65,110,12.0,0.0
8334,64.0,62,60,10.0,0.0
8335,54.0,118,110,13.0,0.0
8336,61.0,2,120,10.0,0.0
8337,54.0,110,110,13.0,0.0
8338,64.0,111,120,10.0,0.0
8339,64.0,3,110,11.0,0.0
8340,61.0,0,110,11.0,0.0
8341,54.0,5,110,12.0,0.0
8342,64.0,2,110,11.0,0.0
8343,61.0,0,110,11.0,0.0
8344,54.0,9,110,12.0,0.0
8345,70.0,1,60,10.0,0.0
8346,86.0,3,60,0.0,0.0
8347,90.0,0,60,0.0,0.0
8348,74.0,0,60,1.0,0.0
8349,78.0,10,60,1.0,0.0
8350,54.0,118,110,13.0,0.0
8351,62.0,48,60,3.0,0.0
8352,66.0,0,60,3.0,0.0
8353,64.0,1,120,10.0,0.0
8354,86.0,1,120,0.0,0.0
8355,90.0,0,120,0.0,0.0
8356,74.0,10,120,1.0,0.0
8357,78.0,0,120,1.0,0.0
8358,54.0,2,110,13.0,0.0
8359,62.0,0,120,3.0,0.0
8360,66.0,98,120,3.0,0.0
8361,70.0,1,120,10.0,0.0
8362,85.0,0,120,0.0,0.0
8363,88.0,3,120,0.0,0.0
8364,64.0,3,110,11.0,0.0
8365,61.0,0,110,11.0,0.0
8366,73.0,0,120,1.0,0.0
8367,76.0,10,120,1.0,0.0
8368,54.0,5,110,12.0,0.0
8369,61.0,98,120,3.0,0.0
8370,64.0,0,120,3.0,0.0
8371,64.0,3,110,11.0,0.0
8372,61.0,0,110,11.0,0.0
8373,54.0,65,110,12.0,0.0
8374,73.0,1,60,10.0,0.0
8375,83.0,0,60,0.0,0.0
8376,86.0,3,60,0.0,0.0
8377,74.0,0,60,1.0,0.0
8378,71.0,10,60,1.0,0.0
8379,54.0,118,110,13.0,0.0
8380,62.0,48,60,3.0,0.0
8381,59.0,0,60,3.0,0.0
8382,70.0,1,120,10.0,0.0
8383,86.0,1,120,0.0,0.0
8384,83.0,0,120,0.0,0.0
8385,74.0,10,120,1.0,0.0
8386,71.0,0,120,1.0,0.0
8387,54.0,2,110,13.0,0.0
8388,62.0,0,120,3.0,0.0
8389,59.0,98,120,3.0,0.0
8390,73.0,1,120,10.0,0.0
8391,85.0,3,120,0.0,0.0
8392,82.0,0,120,0.0,0.0
8393,64.0,0,110,11.0,0.0
8394,61.0,3,110,11.0,0.0
8395,73.0,10,120,1.0,0.0
8396,70.0,0,120,1.0,0.0
8397,54.0,5,110,12.0,0.0
8398,58.0,98,120,3.0,0.0
8399,61.0,0,120,3.0,0.0
8400,61.0,3,110,11.0,0.0
8401,64.0,0,110,11.0,0.0
8402,54.0,66,110,12.0,0.0
8403,78.0,44,78,10.0,0.0
8404,82.0,3,60,0.0,0.0
8405,85.0,0,60,0.0,0.0
8406,73.0,0,60,1.0,0.0
8407,70.0,10,60,1.0,0.0
8408,54.0,53,110,13.0,0.0
8409,61.0,0,60,3.0,0.0
8410,58.0,4,60,3.0,0.0
8411,78.0,2,120,10.0,0.0
8412,66.0,53,120,11.0,0.0
8413,62.0,0,50,12.0,0.0
8414,59.0,60,50,12.0,0.0
8415,30.0,9,1070,14.0,0.0
8416,62.0,5,50,12.0,0.0
8417,59.0,0,50,12.0,0.0
8418,74.0,2,120,10.0,0.0
8419,62.0,10,120,11.0,0.0
8420,62.0,0,50,12.0,0.0
8421,59.0,60,50,12.0,0.0
8422,47.0,43,120,13.0,0.0
8423,59.0,5,50,12.0,0.0
8424,62.0,0,50,12.0,0.0
8425,73.0,2,120,10.0,0.0
8426,61.0,10,120,11.0,0.0
8427,62.0,60,50,12.0,0.0
8428,59.0,0,50,12.0,0.0
8429,50.0,43,120,13.0,0.0
8430,62.0,5,50,12.0,0.0
8431,59.0,0,50,12.0,0.0
8432,71.0,2,110,10.0,0.0
8433,59.0,3,110,11.0,0.0
8434,62.0,55,50,12.0,0.0
8435,59.0,0,50,12.0,0.0
8436,54.0,43,120,13.0,0.0
8437,59.0,17,50,12.0,0.0
8438,62.0,0,50,12.0,0.0
8439,71.0,2,230,10.0,0.0
8440,59.0,3,230,11.0,0.0
8441,62.0,0,50,12.0,0.0
8442,59.0,60,50,12.0,0.0
8443,58.0,43,120,13.0,0.0
8444,59.0,17,50,12.0,0.0
8445,62.0,0,50,12.0,0.0
8446,62.0,0,50,12.0,0.0
8447,59.0,55,50,12.0,0.0
8448,59.0,43,120,13.0,0.0
8449,62.0,0,50,12.0,0.0
8450,59.0,17,50,12.0,0.0
8451,71.0,2,230,10.0,0.0
8452,59.0,3,230,11.0,0.0
8453,64.0,0,50,12.0,0.0
8454,61.0,60,50,12.0,0.0
8455,61.0,43,120,13.0,0.0
8456,61.0,17,50,12.0,0.0
8457,64.0,0,50,12.0,0.0
8458,66.0,0,50,12.0,0.0
8459,62.0,55,50,12.0,0.0
8460,62.0,53,110,13.0,0.0
8461,66.0,7,50,12.0,0.0
8462,62.0,0,50,12.0,0.0
8463,71.0,1,240,10.0,0.0
8464,91.0,3,120,0.0,0.0
8465,88.0,0,120,0.0,0.0
8466,59.0,2,240,11.0,0.0
8467,79.0,1,120,1.0,0.0
8468,76.0,0,120,1.0,0.0
8469,67.0,0,50,12.0,0.0
8470,64.0,60,50,12.0,0.0
8471,64.0,3,950,13.0,0.0
8472,64.0,0,120,3.0,0.0
8473,67.0,41,120,3.0,0.0
8474,64.0,6,50,12.0,0.0
8475,67.0,0,50,12.0,0.0
8476,88.0,1,120,0.0,0.0
8477,85.0,0,120,0.0,0.0
8478,76.0,1,120,1.0,0.0
8479,73.0,0,120,1.0,0.0
8480,67.0,60,50,12.0,0.0
8481,64.0,0,50,12.0,0.0
8482,64.0,0,120,3.0,0.0
8483,61.0,41,120,3.0,0.0
8484,30.0,9,110,14.0,0.0
8485,64.0,0,50,12.0,0.0
8486,67.0,5,50,12.0,0.0
8487,70.0,1,120,10.0,0.0
8488,83.0,1,120,0.0,0.0
8489,86.0,0,120,0.0,0.0
8490,58.0,2,120,11.0,0.0
8491,74.0,1,120,1.0,0.0
8492,71.0,0,120,1.0,0.0
8493,64.0,0,50,12.0,0.0
8494,67.0,60,50,12.0,0.0
8495,62.0,0,120,3.0,0.0
8496,59.0,41,120,3.0,0.0
8497,30.0,9,110,14.0,0.0
8498,67.0,0,50,12.0,0.0
8499,64.0,5,50,12.0,0.0
8500,82.0,3,105,0.0,0.0
8501,85.0,0,105,0.0,0.0
8502,70.0,0,105,1.0,0.0
8503,73.0,6,105,1.0,0.0
8504,64.0,51,50,12.0,0.0
8505,67.0,0,50,12.0,0.0
8506,58.0,6,105,3.0,0.0
8507,61.0,0,105,3.0,0.0
8508,30.0,50,110,14.0,0.0
8509,67.0,0,50,12.0,0.0
8510,64.0,4,50,12.0,0.0
8511,85.0,3,225,0.0,0.0
8512,82.0,0,225,0.0,0.0
8513,73.0,6,225,1.0,0.0
8514,70.0,0,225,1.0,0.0
8515,64.0,60,50,12.0,0.0
8516,67.0,0,50,12.0,0.0
8517,61.0,0,225,3.0,0.0
8518,58.0,6,225,3.0,0.0
8519,30.0,50,110,14.0,0.0
8520,67.0,0,50,12.0,0.0
8521,64.0,10,50,12.0,0.0
8522,67.0,0,50,12.0,0.0
8523,64.0,51,50,12.0,0.0
8524,30.0,50,110,14.0,0.0
8525,64.0,0,50,12.0,0.0
8526,67.0,4,50,12.0,0.0
8527,82.0,3,225,0.0,0.0
8528,85.0,0,225,0.0,0.0
8529,73.0,6,225,1.0,0.0
8530,70.0,0,225,1.0,0.0
8531,66.0,0,50,12.0,0.0
8532,62.0,60,50,12.0,0.0
8533,58.0,0,225,3.0,0.0
8534,61.0,3,225,3.0,0.0
8535,30.0,50,110,14.0,0.0
8536,66.0,10,50,12.0,0.0
8537,62.0,0,50,12.0,0.0
8538,61.0,51,50,12.0,0.0
8539,64.0,0,50,12.0,0.0
8540,30.0,45,110,14.0,0.0
8541,64.0,4,50,12.0,0.0
8542,61.0,0,50,12.0,0.0
8543,74.0,5,50,10.0,0.0
8544,78.0,0,2040,0.0,0.0
8545,86.0,2,2040,0.0,0.0
8546,59.0,10,120,11.0,0.0
8547,74.0,1,2040,6.0,0.0
8548,62.0,0,2040,4.0,0.0
8549,66.0,8,1440,7.0,0.0
8550,59.0,55,50,12.0,0.0
8551,62.0,0,50,12.0,0.0
8552,62.0,5,2040,7.0,0.0
8553,62.0,3,120,13.0,0.0
8554,59.0,2,2040,8.0,0.0
8555,59.0,8,1900,3.0,0.0
8556,47.0,0,1900,3.0,0.0
8557,35.0,35,120,14.0,0.0
8558,74.0,5,50,10.0,0.0
8559,78.0,0,50,10.0,0.0
8560,59.0,0,50,12.0,0.0
8561,62.0,7,50,12.0,0.0
8562,78.0,0,50,10.0,0.0
8563,74.0,5,50,10.0,0.0
8564,62.0,0,50,12.0,0.0
8565,59.0,55,50,12.0,0.0
8566,78.0,0,50,10.0,0.0
8567,74.0,5,50,10.0,0.0
8568,62.0,0,50,12.0,0.0
8569,59.0,55,50,12.0,0.0
8570,78.0,5,50,10.0,0.0
8571,74.0,0,50,10.0,0.0
8572,59.0,0,50,12.0,0.0
8573,62.0,55,50,12.0,0.0
8574,74.0,0,50,10.0,0.0
8575,78.0,5,50,10.0,0.0
8576,59.0,55,50,12.0,0.0
8577,62.0,0,50,12.0,0.0
8578,74.0,5,50,10.0,0.0
8579,78.0,0,50,10.0,0.0
8580,59.0,55,50,12.0,0.0
8581,62.0,0,50,12.0,0.0
8582,78.0,5,50,10.0,0.0
8583,74.0,0,50,10.0,0.0
8584,59.0,55,50,12.0,0.0
8585,62.0,0,50,12.0,0.0
8586,78.0,0,50,10.0,0.0
8587,74.0,5,50,10.0,0.0
8588,74.0,1,1420,1.0,0.0
8589,78.0,1,950,1.0,0.0
8590,62.0,0,50,12.0,0.0
8591,59.0,55,50,12.0,0.0
8592,74.0,5,50,10.0,0.0
8593,78.0,0,50,10.0,0.0
8594,59.0,0,50,12.0,0.0
8595,62.0,55,50,12.0,0.0
8596,74.0,0,50,10.0,0.0
8597,78.0,5,50,10.0,0.0
8598,59.0,10,60,11.0,0.0
8599,59.0,7,50,12.0,0.0
8600,62.0,0,50,12.0,0.0
8601,47.0,3,60,13.0,0.0
8602,35.0,35,60,14.0,0.0
8603,78.0,0,50,10.0,0.0
8604,74.0,5,50,10.0,0.0
8605,61.0,10,60,11.0,0.0
8606,59.0,7,50,12.0,0.0
8607,62.0,0,50,12.0,0.0
8608,49.0,3,60,13.0,0.0
8609,37.0,35,60,14.0,0.0
8610,74.0,5,50,10.0,0.0
8611,78.0,0,50,10.0,0.0
8612,62.0,10,60,11.0,0.0
8613,59.0,0,50,12.0,0.0
8614,62.0,7,50,12.0,0.0
8615,50.0,3,60,13.0,0.0
8616,38.0,35,60,14.0,0.0
8617,78.0,0,50,10.0,0.0
8618,74.0,5,50,10.0,0.0
8619,64.0,10,60,11.0,0.0
8620,59.0,7,50,12.0,0.0
8621,62.0,0,50,12.0,0.0
8622,52.0,3,60,13.0,0.0
8623,40.0,35,60,14.0,0.0
8624,74.0,0,50,10.0,0.0
8625,78.0,5,50,10.0,0.0
8626,62.0,10,60,11.0,0.0
8627,62.0,7,50,12.0,0.0
8628,59.0,0,50,12.0,0.0
8629,50.0,3,60,13.0,0.0
8630,38.0,35,60,14.0,0.0
8631,74.0,0,50,10.0,0.0
8632,78.0,5,50,10.0,0.0
8633,61.0,10,60,11.0,0.0
8634,59.0,7,50,12.0,0.0
8635,62.0,0,50,12.0,0.0
8636,49.0,3,60,13.0,0.0
8637,37.0,35,60,14.0,0.0
8638,74.0,0,50,10.0,0.0
8639,78.0,5,50,10.0,0.0
8640,59.0,10,60,11.0,0.0
8641,59.0,0,50,12.0,0.0
8642,62.0,7,50,12.0,0.0
8643,47.0,3,60,13.0,0.0
8644,35.0,35,60,14.0,0.0
8645,78.0,0,50,10.0,0.0
8646,74.0,5,50,10.0,0.0
8647,59.0,55,50,12.0,0.0
8648,62.0,0,50,12.0,0.0
8649,74.0,5,50,10.0,0.0
8650,78.0,0,50,10.0,0.0
8651,59.0,10,60,11.0,0.0
8652,59.0,7,50,12.0,0.0
8653,62.0,0,50,12.0,0.0
8654,47.0,3,60,13.0,0.0
8655,35.0,35,60,14.0,0.0
8656,78.0,5,50,10.0,0.0
8657,74.0,0,50,10.0,0.0
8658,61.0,10,60,11.0,0.0
8659,62.0,7,50,12.0,0.0
8660,59.0,0,50,12.0,0.0
8661,49.0,3,60,13.0,0.0
8662,37.0,35,60,14.0,0.0
8663,78.0,5,50,10.0,0.0
8664,74.0,0,50,10.0,0.0
8665,62.0,10,60,11.0,0.0
8666,59.0,7,50,12.0,0.0
8667,62.0,0,50,12.0,0.0
8668,50.0,3,60,13.0,0.0
8669,38.0,35,60,14.0,0.0
8670,74.0,5,50,10.0,0.0
8671,78.0,0,50,10.0,0.0
8672,64.0,10,60,11.0,0.0
8673,59.0,0,50,12.0,0.0
8674,62.0,7,50,12.0,0.0
8675,52.0,3,60,13.0,0.0
8676,40.0,35,60,14.0,0.0
8677,74.0,0,50,10.0,0.0
8678,78.0,5,50,10.0,0.0
8679,62.0,10,60,11.0,0.0
8680,59.0,7,50,12.0,0.0
8681,62.0,0,50,12.0,0.0
8682,50.0,3,60,13.0,0.0
8683,38.0,35,60,14.0,0.0
8684,78.0,0,50,10.0,0.0
8685,74.0,4,50,10.0,0.0
8686,61.0,2,60,11.0,0.0
8687,62.0,0,50,12.0,0.0
8688,59.0,7,50,12.0,0.0
8689,49.0,3,60,13.0,0.0
8690,37.0,35,60,14.0,0.0
8691,79.0,0,50,10.0,0.0
8692,71.0,5,50,10.0,0.0
8693,59.0,10,60,11.0,0.0
8694,67.0,1,600,7.0,0.0
8695,79.0,0,460,1.0,0.0
8696,59.0,0,50,12.0,0.0
8697,62.0,7,50,12.0,0.0
8698,47.0,3,60,13.0,0.0
8699,35.0,35,60,14.0,0.0
8700,79.0,5,50,10.0,0.0
8701,71.0,0,50,10.0,0.0
8702,62.0,0,50,12.0,0.0
8703,59.0,55,50,12.0,0.0
8704,71.0,5,50,10.0,0.0
8705,79.0,0,50,10.0,0.0
8706,59.0,10,60,11.0,0.0
8707,59.0,0,50,12.0,0.0
8708,62.0,7,50,12.0,0.0
8709,47.0,3,60,13.0,0.0
8710,35.0,35,60,14.0,0.0
8711,71.0,0,50,10.0,0.0
8712,79.0,5,50,10.0,0.0
8713,60.0,10,60,11.0,0.0
8714,59.0,7,50,12.0,0.0
8715,62.0,0,50,12.0,0.0
8716,48.0,3,60,13.0,0.0
8717,36.0,35,60,14.0,0.0
8718,71.0,0,50,10.0,0.0
8719,79.0,5,50,10.0,0.0
8720,62.0,10,60,11.0,0.0
8721,62.0,0,50,12.0,0.0
8722,59.0,7,50,12.0,0.0
8723,50.0,3,60,13.0,0.0
8724,38.0,35,60,14.0,0.0
8725,79.0,0,50,10.0,0.0
8726,71.0,5,50,10.0,0.0
8727,63.0,10,60,11.0,0.0
8728,59.0,0,50,12.0,0.0
8729,62.0,7,50,12.0,0.0
8730,51.0,3,60,13.0,0.0
8731,39.0,35,60,14.0,0.0
8732,71.0,0,50,10.0,0.0
8733,79.0,5,50,10.0,0.0
8734,62.0,10,60,11.0,0.0
8735,59.0,0,50,12.0,0.0
8736,62.0,7,50,12.0,0.0
8737,50.0,3,60,13.0,0.0
8738,38.0,25,60,14.0,0.0
8739,71.0,4,40,10.0,0.0
8740,79.0,0,40,10.0,0.0
8741,60.0,2,50,11.0,0.0
8742,59.0,0,40,12.0,0.0
8743,62.0,7,40,12.0,0.0
8744,48.0,3,50,13.0,0.0
8745,36.0,107,50,14.0,0.0
8746,55.0,1,120,10.0,0.0
8747,59.0,8,110,11.0,0.0
8748,59.0,0,120,12.0,0.0
8749,62.0,2,120,12.0,0.0
8750,47.0,1,120,13.0,0.0
8751,62.0,1,830,3.0,0.0
8752,35.0,97,120,14.0,0.0
8753,74.0,3,825,1.0,0.0
8754,59.0,5,120,10.0,0.0
8755,67.0,8,110,11.0,0.0
8756,67.0,13,110,11.0,0.0
8757,59.0,107,0,12.0,0.0
8758,62.0,0,0,12.0,0.0
8759,62.0,62,60,10.0,0.0
8760,59.0,118,110,13.0,0.0
8761,59.0,2,120,10.0,0.0
8762,59.0,110,110,13.0,0.0
8763,62.0,5,120,10.0,0.0
8764,67.0,8,110,11.0,0.0
8765,62.0,0,120,12.0,0.0
8766,67.0,9,110,11.0,0.0
8767,59.0,107,0,12.0,0.0
8768,62.0,55,120,12.0,0.0
8769,67.0,4,60,10.0,0.0
8770,72.0,10,60,1.0,0.0
8771,59.0,118,110,13.0,0.0
8772,60.0,48,60,3.0,0.0
8773,62.0,2,120,10.0,0.0
8774,72.0,10,120,1.0,0.0
8775,59.0,2,110,13.0,0.0
8776,60.0,98,120,3.0,0.0
8777,67.0,4,120,10.0,0.0
8778,67.0,8,110,11.0,0.0
8779,71.0,1,120,1.0,0.0
8780,59.0,0,120,12.0,0.0
8781,62.0,9,120,12.0,0.0
8782,59.0,98,120,3.0,0.0
8783,67.0,13,110,11.0,0.0
8784,62.0,0,120,12.0,0.0
8785,59.0,55,120,12.0,0.0
8786,71.0,4,60,10.0,0.0
8787,69.0,10,60,1.0,0.0
8788,59.0,118,110,13.0,0.0
8789,57.0,48,60,3.0,0.0
8790,67.0,2,120,10.0,0.0
8791,69.0,10,120,1.0,0.0
8792,59.0,2,110,13.0,0.0
8793,57.0,98,120,3.0,0.0
8794,71.0,4,120,10.0,0.0
8795,67.0,8,110,11.0,0.0
8796,67.0,1,120,1.0,0.0
8797,55.0,98,120,3.0,0.0
8798,67.0,13,110,11.0,0.0
8799,59.0,9,0,12.0,0.0
8800,62.0,0,0,12.0,0.0
8801,74.0,4,60,10.0,0.0
8802,67.0,10,60,1.0,0.0
8803,59.0,118,110,13.0,0.0
8804,55.0,48,60,3.0,0.0
8805,59.0,2,120,10.0,0.0
8806,80.0,0,830,1.0,0.0
8807,77.0,10,830,1.0,0.0
8808,55.0,110,110,13.0,0.0
8809,68.0,1,830,3.0,0.0
8810,65.0,0,830,3.0,0.0
8811,62.0,5,120,10.0,0.0
8812,55.0,8,110,11.0,0.0
8813,65.0,0,110,11.0,0.0
8814,65.0,13,110,11.0,0.0
8815,55.0,0,110,11.0,0.0
8816,62.0,0,0,12.0,0.0
8817,59.0,107,0,12.0,0.0
8818,65.0,62,60,10.0,0.0
8819,55.0,118,110,13.0,0.0
8820,62.0,2,120,10.0,0.0
8821,55.0,110,110,13.0,0.0
8822,65.0,5,120,10.0,0.0
8823,65.0,8,110,11.0,0.0
8824,55.0,0,110,11.0,0.0
8825,59.0,0,120,12.0,0.0
8826,62.0,107,120,12.0,0.0
8827,65.0,0,110,11.0,0.0
8828,55.0,2,110,11.0,0.0
8829,62.0,0,120,12.0,0.0
8830,59.0,55,120,12.0,0.0
8831,71.0,4,60,10.0,0.0
8832,75.0,10,60,1.0,0.0
8833,79.0,0,60,1.0,0.0
8834,55.0,118,110,13.0,0.0
8835,67.0,48,60,3.0,0.0
8836,63.0,0,60,3.0,0.0
8837,65.0,2,120,10.0,0.0
8838,79.0,10,120,1.0,0.0
8839,75.0,0,120,1.0,0.0
8840,55.0,2,110,13.0,0.0
8841,63.0,98,120,3.0,0.0
8842,67.0,0,120,3.0,0.0
8843,71.0,4,120,10.0,0.0
8844,65.0,0,110,11.0,0.0
8845,55.0,8,110,11.0,0.0
8846,77.0,0,120,1.0,0.0
8847,74.0,1,120,1.0,0.0
8848,62.0,0,120,12.0,0.0
8849,59.0,9,120,12.0,0.0
8850,65.0,0,120,3.0,0.0
8851,62.0,98,120,3.0,0.0
8852,65.0,0,110,11.0,0.0
8853,55.0,13,110,11.0,0.0
8854,59.0,0,120,12.0,0.0
8855,62.0,55,120,12.0,0.0
8856,74.0,4,60,10.0,0.0
8857,72.0,0,60,1.0,0.0
8858,75.0,10,60,1.0,0.0
8859,55.0,118,110,13.0,0.0
8860,63.0,48,60,3.0,0.0
8861,60.0,0,60,3.0,0.0
8862,71.0,2,120,10.0,0.0
8863,72.0,10,120,1.0,0.0
8864,75.0,0,120,1.0,0.0
8865,55.0,2,110,13.0,0.0
8866,60.0,98,120,3.0,0.0
8867,63.0,0,120,3.0,0.0
8868,74.0,4,120,10.0,0.0
8869,65.0,0,110,11.0,0.0
8870,55.0,8,110,11.0,0.0
8871,74.0,0,120,1.0,0.0
8872,71.0,1,120,1.0,0.0
8873,59.0,98,120,3.0,0.0
8874,62.0,0,120,3.0,0.0
8875,65.0,0,110,11.0,0.0
8876,55.0,13,110,11.0,0.0
8877,62.0,0,0,12.0,0.0
8878,59.0,9,0,12.0,0.0
8879,79.0,4,60,10.0,0.0
8880,74.0,0,60,1.0,0.0
8881,71.0,10,60,1.0,0.0
8882,55.0,53,110,13.0,0.0
8883,59.0,0,60,3.0,0.0
8884,62.0,48,60,3.0,0.0
8885,79.0,2,120,10.0,0.0
8886,67.0,53,120,11.0,0.0
8887,60.0,0,50,12.0,0.0
8888,63.0,60,50,12.0,0.0
8889,31.0,9,1070,14.0,0.0
8890,60.0,5,50,12.0,0.0
8891,63.0,0,50,12.0,0.0
8892,75.0,2,120,10.0,0.0
8893,63.0,10,120,11.0,0.0
8894,63.0,0,50,12.0,0.0
8895,60.0,60,50,12.0,0.0
8896,48.0,43,120,13.0,0.0
8897,60.0,5,50,12.0,0.0
8898,63.0,0,50,12.0,0.0
8899,74.0,2,120,10.0,0.0
8900,62.0,10,120,11.0,0.0
8901,60.0,60,50,12.0,0.0
8902,63.0,0,50,12.0,0.0
8903,51.0,43,120,13.0,0.0
8904,63.0,0,50,12.0,0.0
8905,60.0,5,50,12.0,0.0
8906,72.0,2,110,10.0,0.0
8907,60.0,3,110,11.0,0.0
8908,63.0,0,50,12.0,0.0
8909,60.0,55,50,12.0,0.0
8910,55.0,43,120,13.0,0.0
8911,63.0,17,50,12.0,0.0
8912,60.0,0,50,12.0,0.0
8913,72.0,2,230,10.0,0.0
8914,60.0,3,230,11.0,0.0
8915,63.0,60,50,12.0,0.0
8916,60.0,0,50,12.0,0.0
8917,59.0,43,120,13.0,0.0
8918,63.0,0,50,12.0,0.0
8919,60.0,17,50,12.0,0.0
8920,60.0,55,50,12.0,0.0
8921,63.0,0,50,12.0,0.0
8922,60.0,43,120,13.0,0.0
8923,63.0,17,50,12.0,0.0
8924,60.0,0,50,12.0,0.0
8925,72.0,2,230,10.0,0.0
8926,60.0,3,230,11.0,0.0
8927,62.0,0,50,12.0,0.0
8928,65.0,60,50,12.0,0.0
8929,62.0,43,120,13.0,0.0
8930,65.0,17,50,12.0,0.0
8931,62.0,0,50,12.0,0.0
8932,67.0,55,50,12.0,0.0
8933,63.0,0,50,12.0,0.0
8934,63.0,53,110,13.0,0.0
8935,63.0,7,50,12.0,0.0
8936,67.0,0,50,12.0,0.0
8937,72.0,1,240,10.0,0.0
8938,92.0,3,120,0.0,0.0
8939,60.0,2,240,11.0,0.0
8940,43.0,0,960,4.0,0.0
8941,55.0,0,960,4.0,0.0
8942,80.0,0,120,1.0,0.0
8943,65.0,60,50,12.0,0.0
8944,68.0,0,50,12.0,0.0
8945,65.0,2,950,13.0,0.0
8946,68.0,0,120,3.0,0.0
8947,65.0,41,120,3.0,0.0
8948,65.0,0,50,12.0,0.0
8949,68.0,6,50,12.0,0.0
8950,86.0,0,120,0.0,0.0
8951,89.0,0,0,0.0,0.0
8952,77.0,1,0,1.0,0.0
8953,74.0,0,120,1.0,0.0
8954,68.0,60,50,12.0,0.0
8955,65.0,0,50,12.0,0.0
8956,62.0,41,120,3.0,0.0
8957,65.0,0,120,3.0,0.0
8958,31.0,9,110,14.0,0.0
8959,65.0,0,50,12.0,0.0
8960,68.0,5,50,12.0,0.0
8961,71.0,1,120,10.0,0.0
8962,84.0,0,120,0.0,0.0
8963,87.0,1,120,0.0,0.0
8964,59.0,2,120,11.0,0.0
8965,72.0,1,120,1.0,0.0
8966,75.0,0,120,1.0,0.0
8967,65.0,0,50,12.0,0.0
8968,68.0,60,50,12.0,0.0
8969,63.0,41,120,3.0,0.0
8970,60.0,0,120,3.0,0.0
8971,31.0,9,110,14.0,0.0
8972,65.0,5,50,12.0,0.0
8973,68.0,0,50,12.0,0.0
8974,83.0,3,110,0.0,0.0
8975,86.0,0,110,0.0,0.0
8976,74.0,1,110,1.0,0.0
8977,71.0,0,110,1.0,0.0
8978,68.0,0,50,12.0,0.0
8979,65.0,56,50,12.0,0.0
8980,62.0,0,110,3.0,0.0
8981,59.0,1,110,3.0,0.0
8982,31.0,50,110,14.0,0.0
8983,65.0,9,50,12.0,0.0
8984,68.0,0,50,12.0,0.0
8985,86.0,0,230,0.0,0.0
8986,83.0,3,230,0.0,0.0
8987,71.0,1,230,1.0,0.0
8988,74.0,0,230,1.0,0.0
8989,65.0,0,50,12.0,0.0
8990,68.0,60,50,12.0,0.0
8991,59.0,0,230,3.0,0.0
8992,62.0,1,230,3.0,0.0
8993,31.0,50,110,14.0,0.0
8994,65.0,0,50,12.0,0.0
8995,68.0,10,50,12.0,0.0
8996,65.0,0,50,12.0,0.0
8997,68.0,56,50,12.0,0.0
8998,31.0,50,110,14.0,0.0
8999,65.0,9,50,12.0,0.0
9000,68.0,0,50,12.0,0.0
9001,86.0,0,230,0.0,0.0
9002,83.0,3,230,0.0,0.0
9003,74.0,1,230,1.0,0.0
9004,71.0,0,230,1.0,0.0
9005,67.0,60,50,12.0,0.0
9006,63.0,0,50,12.0,0.0
9007,62.0,1,230,3.0,0.0
9008,59.0,0,230,3.0,0.0
9009,31.0,50,110,14.0,0.0
9010,67.0,10,50,12.0,0.0
9011,63.0,0,50,12.0,0.0
9012,65.0,0,50,12.0,0.0
9013,62.0,56,50,12.0,0.0
9014,31.0,47,110,14.0,0.0
9015,65.0,7,50,12.0,0.0
9016,62.0,0,50,12.0,0.0
9017,87.0,0,120,0.0,0.0
9018,84.0,3,120,0.0,0.0
9019,67.0,3,50,11.0,0.0
9020,48.0,0,120,4.0,0.0
9021,60.0,0,120,4.0,0.0
9022,72.0,0,120,1.0,0.0
9023,75.0,1,120,1.0,0.0
9024,63.0,0,50,12.0,0.0
9025,60.0,57,50,12.0,0.0
9026,60.0,0,117,7.0,0.0
9027,63.0,0,100,13.0,0.0
9028,48.0,1,120,8.0,0.0
9029,60.0,0,120,3.0,0.0
9030,63.0,38,120,3.0,0.0
9031,36.0,6,100,14.0,0.0
9032,67.0,3,50,11.0,0.0
9033,63.0,2,60,12.0,0.0
9034,60.0,0,60,12.0,0.0
9035,63.0,13,50,11.0,0.0
9036,51.0,3,230,13.0,0.0
9037,39.0,47,230,14.0,0.0
9038,63.0,13,50,11.0,0.0
9039,60.0,47,0,12.0,0.0
9040,67.0,13,50,11.0,0.0
9041,67.0,10,50,11.0,0.0
9042,63.0,47,0,12.0,0.0
9043,63.0,13,50,11.0,0.0
9044,60.0,47,60,12.0,0.0
9045,55.0,3,100,13.0,0.0
9046,43.0,10,100,14.0,0.0
9047,63.0,0,50,11.0,0.0
9048,60.0,47,60,12.0,0.0
9049,72.0,52,60,10.0,0.0
9050,67.0,3,50,11.0,0.0
9051,63.0,5,50,12.0,0.0
9052,56.0,0,100,13.0,0.0
9053,44.0,10,100,14.0,0.0
9054,67.0,3,50,11.0,0.0
9055,63.0,47,60,12.0,0.0
9056,75.0,2,240,10.0,0.0
9057,63.0,13,50,11.0,0.0
9058,60.0,47,60,12.0,0.0
9059,55.0,3,230,13.0,0.0
9060,43.0,47,230,14.0,0.0
9061,63.0,13,50,11.0,0.0
9062,60.0,47,60,12.0,0.0
9063,67.0,13,50,11.0,0.0
9064,67.0,8,50,11.0,0.0
9065,63.0,47,0,12.0,0.0
9066,79.0,5,60,10.0,0.0
9067,63.0,8,50,11.0,0.0
9068,51.0,3,100,13.0,0.0
9069,39.0,10,100,14.0,0.0
9070,63.0,0,50,11.0,0.0
9071,60.0,47,0,12.0,0.0
9072,82.0,52,60,10.0,0.0
9073,87.0,0,120,0.0,0.0
9074,68.0,3,50,11.0,0.0
9075,60.0,0,120,6.0,0.0
9076,72.0,1,120,6.0,0.0
9077,63.0,0,360,7.0,0.0
9078,60.0,0,120,4.0,0.0
9079,63.0,5,50,12.0,0.0
9080,68.0,2,120,2.0,0.0
9081,63.0,0,120,2.0,0.0
9082,48.0,0,100,13.0,0.0
9083,48.0,1,960,8.0,0.0
9084,36.0,6,100,14.0,0.0
9085,68.0,3,50,11.0,0.0
9086,63.0,1,60,12.0,0.0
9087,80.0,1,240,10.0,0.0
9088,80.0,2,0,0.0,0.0
9089,87.0,1,240,0.0,0.0
9090,63.0,13,50,11.0,0.0
9091,48.0,0,0,4.0,0.0
9092,75.0,0,0,1.0,0.0
9093,60.0,0,240,4.0,0.0
9094,80.0,1,0,1.0,0.0
9095,60.0,47,60,12.0,0.0
9096,48.0,6,0,15.0,0.0
9097,51.0,1,230,13.0,0.0
9098,63.0,38,0,3.0,0.0
9099,60.0,0,0,3.0,0.0
9100,39.0,1,230,14.0,0.0
9101,63.0,13,50,11.0,0.0
9102,60.0,3,60,12.0,0.0
9103,68.0,13,50,11.0,0.0
9104,63.0,47,60,12.0,0.0
9105,68.0,8,50,11.0,0.0
9106,63.0,0,60,12.0,0.0
9107,75.0,5,60,10.0,0.0
9108,80.0,0,120,0.0,0.0
9109,63.0,8,50,11.0,0.0
9110,72.0,1,0,6.0,0.0
9111,60.0,0,0,6.0,0.0
9112,75.0,0,0,1.0,0.0
9113,80.0,0,0,1.0,0.0
9114,60.0,0,120,4.0,0.0
9115,60.0,47,60,12.0,0.0
9116,63.0,0,0,2.0,0.0
9117,68.0,1,0,2.0,0.0
9118,60.0,7,0,7.0,0.0
9119,56.0,0,100,13.0,0.0
9120,63.0,0,120,3.0,0.0
9121,60.0,38,0,3.0,0.0
9122,44.0,6,100,14.0,0.0
9123,63.0,3,50,11.0,0.0
9124,60.0,1,60,12.0,0.0
9125,72.0,52,60,10.0,0.0
9126,87.0,2,0,0.0,0.0
9127,68.0,3,50,11.0,0.0
9128,72.0,1,0,6.0,0.0
9129,60.0,1,120,6.0,0.0
9130,48.0,0,0,4.0,0.0
9131,75.0,0,120,1.0,0.0
9132,63.0,1,0,7.0,0.0
9133,60.0,1,120,4.0,0.0
9134,80.0,0,120,1.0,0.0
9135,63.0,5,50,12.0,0.0
9136,68.0,1,0,2.0,0.0
9137,60.0,1,0,7.0,0.0
9138,48.0,6,0,15.0,0.0
9139,58.0,3,100,13.0,0.0
9140,46.0,6,100,14.0,0.0
9141,68.0,0,50,11.0,0.0
9142,63.0,1,60,12.0,0.0
9143,75.0,1,240,10.0,0.0
9144,80.0,0,0,0.0,0.0
9145,63.0,13,50,11.0,0.0
9146,60.0,1,240,6.0,0.0
9147,48.0,0,240,4.0,0.0
9148,60.0,0,240,4.0,0.0
9149,75.0,0,240,1.0,0.0
9150,80.0,0,240,1.0,0.0
9151,60.0,47,60,12.0,0.0
9152,63.0,2,0,2.0,0.0
9153,48.0,44,120,15.0,0.0
9154,56.0,1,230,13.0,0.0
9155,60.0,0,0,3.0,0.0
9156,63.0,38,0,3.0,0.0
9157,44.0,0,230,14.0,0.0
9158,63.0,13,50,11.0,0.0
9159,60.0,3,60,12.0,0.0
9160,68.0,13,50,11.0,0.0
9161,63.0,47,60,12.0,0.0
9162,68.0,8,50,11.0,0.0
9163,63.0,1,60,12.0,0.0
9164,80.0,5,60,10.0,0.0
9165,87.0,0,0,0.0,0.0
9166,80.0,1,0,0.0,0.0
9167,63.0,8,50,11.0,0.0
9168,72.0,0,0,6.0,0.0
9169,60.0,0,120,6.0,0.0
9170,48.0,0,120,4.0,0.0
9171,60.0,1,120,4.0,0.0
9172,63.0,0,120,7.0,0.0
9173,75.0,0,120,1.0,0.0
9174,63.0,0,0,2.0,0.0
9175,68.0,1,0,2.0,0.0
9176,60.0,7,0,7.0,0.0
9177,48.0,5,120,15.0,0.0
9178,51.0,0,100,13.0,0.0
9179,63.0,0,0,3.0,0.0
9180,60.0,38,0,3.0,0.0
9181,39.0,6,100,14.0,0.0
9182,63.0,3,50,11.0,0.0
9183,60.0,47,0,12.0,0.0
9184,82.0,52,60,10.0,0.0
9185,89.0,0,120,0.0,0.0
9186,80.0,3,120,0.0,0.0
9187,68.0,3,50,11.0,0.0
9188,65.0,0,120,7.0,0.0
9189,77.0,0,120,1.0,0.0
9190,80.0,0,0,1.0,0.0
9191,65.0,5,50,12.0,0.0
9192,65.0,1,120,2.0,0.0
9193,68.0,1,0,2.0,0.0
9194,61.0,6,120,7.0,0.0
9195,49.0,3,100,13.0,0.0
9196,49.0,1,120,8.0,0.0
9197,65.0,38,120,3.0,0.0
9198,61.0,0,120,3.0,0.0
9199,37.0,6,100,14.0,0.0
9200,68.0,0,50,11.0,0.0
9201,65.0,1,60,12.0,0.0
9202,80.0,2,240,10.0,0.0
9203,65.0,13,50,11.0,0.0
9204,61.0,47,60,12.0,0.0
9205,53.0,3,230,13.0,0.0
9206,41.0,47,230,14.0,0.0
9207,65.0,13,50,11.0,0.0
9208,61.0,47,60,12.0,0.0
9209,68.0,13,50,11.0,0.0
9210,68.0,8,50,11.0,0.0
9211,65.0,47,0,12.0,0.0
9212,77.0,5,60,10.0,0.0
9213,65.0,8,50,11.0,0.0
9214,56.0,0,100,13.0,0.0
9215,44.0,10,100,14.0,0.0
9216,65.0,3,50,11.0,0.0
9217,61.0,47,0,12.0,0.0
9218,73.0,52,60,10.0,0.0
9219,68.0,3,50,11.0,0.0
9220,65.0,5,50,12.0,0.0
9221,58.0,0,100,13.0,0.0
9222,46.0,10,100,14.0,0.0
9223,68.0,3,50,11.0,0.0
9224,65.0,47,60,12.0,0.0
9225,77.0,2,240,10.0,0.0
9226,65.0,13,50,11.0,0.0
9227,61.0,47,60,12.0,0.0
9228,56.0,3,230,13.0,0.0
9229,44.0,0,230,14.0,0.0
9230,65.0,13,50,11.0,0.0
9231,61.0,47,60,12.0,0.0
9232,68.0,13,50,11.0,0.0
9233,68.0,8,50,11.0,0.0
9234,65.0,47,0,12.0,0.0
9235,80.0,5,60,10.0,0.0
9236,65.0,8,50,11.0,0.0
9237,53.0,0,100,13.0,0.0
9238,41.0,10,100,14.0,0.0
9239,65.0,3,50,11.0,0.0
9240,61.0,47,0,12.0,0.0
9241,84.0,52,60,10.0,0.0
9242,80.0,0,120,0.0,0.0
9243,70.0,3,50,11.0,0.0
9244,82.0,0,120,1.0,0.0
9245,65.0,0,960,7.0,0.0
9246,65.0,5,50,12.0,0.0
9247,65.0,8,120,2.0,0.0
9248,70.0,0,120,2.0,0.0
9249,62.0,6,960,7.0,0.0
9250,50.0,0,100,13.0,0.0
9251,50.0,1,960,8.0,0.0
9252,62.0,38,120,3.0,0.0
9253,65.0,0,120,3.0,0.0
9254,38.0,6,100,14.0,0.0
9255,70.0,3,50,11.0,0.0
9256,65.0,1,60,12.0,0.0
9257,82.0,1,240,10.0,0.0
9258,89.0,3,0,0.0,0.0
9259,80.0,0,240,0.0,0.0
9260,65.0,13,50,11.0,0.0
9261,77.0,1,0,1.0,0.0
9262,62.0,47,60,12.0,0.0
9263,70.0,8,240,2.0,0.0
9264,65.0,0,240,2.0,0.0
9265,53.0,2,230,13.0,0.0
9266,65.0,38,240,3.0,0.0
9267,62.0,0,240,3.0,0.0
9268,41.0,1,230,14.0,0.0
9269,65.0,13,50,11.0,0.0
9270,62.0,47,60,12.0,0.0
9271,70.0,13,50,11.0,0.0
9272,70.0,8,50,11.0,0.0
9273,65.0,47,0,12.0,0.0
9274,77.0,5,60,10.0,0.0
9275,80.0,3,120,0.0,0.0
9276,89.0,1,0,0.0,0.0
9277,65.0,8,50,11.0,0.0
9278,82.0,0,0,1.0,0.0
9279,62.0,47,60,12.0,0.0
9280,70.0,0,120,2.0,0.0
9281,58.0,3,100,13.0,0.0
9282,62.0,38,120,3.0,0.0
9283,65.0,0,120,3.0,0.0
9284,46.0,6,100,14.0,0.0
9285,65.0,0,50,11.0,0.0
9286,62.0,1,60,12.0,0.0
9287,74.0,52,60,10.0,0.0
9288,70.0,3,50,11.0,0.0
9289,77.0,1,0,1.0,0.0
9290,65.0,5,50,12.0,0.0
9291,65.0,8,0,2.0,0.0
9292,60.0,3,100,13.0,0.0
9293,62.0,0,120,3.0,0.0
9294,65.0,38,120,3.0,0.0
9295,48.0,6,100,14.0,0.0
9296,70.0,0,50,11.0,0.0
9297,65.0,1,60,12.0,0.0
9298,77.0,1,240,10.0,0.0
9299,89.0,0,0,0.0,0.0
9300,80.0,3,0,0.0,0.0
9301,65.0,13,50,11.0,0.0
9302,82.0,1,0,1.0,0.0
9303,77.0,0,0,1.0,0.0
9304,65.0,8,0,2.0,0.0
9305,70.0,0,0,2.0,0.0
9306,58.0,2,230,13.0,0.0
9307,46.0,0,230,14.0,0.0
9308,65.0,13,50,11.0,0.0
9309,62.0,47,0,12.0,0.0
9310,70.0,13,50,11.0,0.0
9311,65.0,47,60,12.0,0.0
9312,70.0,8,50,11.0,0.0
9313,65.0,1,60,12.0,0.0
9314,82.0,5,60,10.0,0.0
9315,80.0,0,0,0.0,0.0
9316,89.0,1,0,0.0,0.0
9317,65.0,8,50,11.0,0.0
9318,82.0,0,0,1.0,0.0
9319,77.0,0,120,1.0,0.0
9320,65.0,0,120,2.0,0.0
9321,53.0,3,100,13.0,0.0
9322,65.0,0,0,3.0,0.0
9323,62.0,38,0,3.0,0.0
9324,41.0,6,100,14.0,0.0
9325,65.0,0,50,11.0,0.0
9326,62.0,47,0,12.0,0.0
9327,84.0,50,60,10.0,0.0
9328,79.0,2,120,0.0,0.0
9329,70.0,3,50,11.0,0.0
9330,55.0,0,120,6.0,0.0
9331,82.0,1,0,1.0,0.0
9332,67.0,0,120,4.0,0.0
9333,55.0,0,120,4.0,0.0
9334,67.0,0,480,7.0,0.0
9335,67.0,5,50,12.0,0.0
9336,70.0,1,0,2.0,0.0
9337,63.0,1,480,7.0,0.0
9338,43.0,6,120,15.0,0.0
9339,51.0,0,100,13.0,0.0
9340,51.0,1,480,8.0,0.0
9341,63.0,16,120,3.0,0.0
9342,67.0,0,120,3.0,0.0
9343,39.0,6,100,14.0,0.0
9344,82.0,2,50,10.0,0.0
9345,70.0,3,50,11.0,0.0
9346,67.0,0,50,12.0,0.0
9347,82.0,22,30,10.0,0.0
9348,91.0,0,0,0.0,0.0
9349,82.0,0,240,0.0,0.0
9350,67.0,3,50,11.0,0.0
9351,67.0,1,0,6.0,0.0
9352,55.0,0,120,6.0,0.0
9353,82.0,0,0,1.0,0.0
9354,79.0,2,0,1.0,0.0
9355,63.0,35,50,12.0,0.0
9356,67.0,0,0,2.0,0.0
9357,70.0,2,0,2.0,0.0
9358,43.0,44,120,15.0,0.0
9359,55.0,2,230,13.0,0.0
9360,43.0,1,230,14.0,0.0
9361,79.0,22,30,10.0,0.0
9362,67.0,3,50,11.0,0.0
9363,63.0,8,50,12.0,0.0
9364,82.0,50,60,10.0,0.0
9365,70.0,3,50,11.0,0.0
9366,67.0,5,50,12.0,0.0
9367,79.0,2,50,10.0,0.0
9368,70.0,3,50,11.0,0.0
9369,67.0,6,50,12.0,0.0
9370,82.0,22,30,10.0,0.0
9371,91.0,1,0,0.0,0.0
9372,82.0,0,120,0.0,0.0
9373,67.0,3,50,11.0,0.0
9374,55.0,1,120,6.0,0.0
9375,67.0,0,120,6.0,0.0
9376,55.0,0,0,4.0,0.0
9377,67.0,0,0,4.0,0.0
9378,79.0,0,0,1.0,0.0
9379,82.0,1,0,1.0,0.0
9380,63.0,35,50,12.0,0.0
9381,70.0,8,0,2.0,0.0
9382,43.0,5,120,15.0,0.0
9383,58.0,3,100,13.0,0.0
9384,55.0,16,0,3.0,0.0
9385,58.0,0,0,3.0,0.0
9386,46.0,0,100,14.0,0.0
9387,82.0,22,30,10.0,0.0
9388,67.0,0,50,11.0,0.0
9389,63.0,6,50,12.0,0.0
9390,82.0,50,60,10.0,0.0
9391,91.0,2,0,0.0,0.0
9392,72.0,3,50,11.0,0.0
9393,60.0,0,120,6.0,0.0
9394,72.0,1,120,6.0,0.0
9395,60.0,0,120,4.0,0.0
9396,60.0,0,1440,7.0,0.0
9397,48.0,0,120,4.0,0.0
9398,70.0,5,50,12.0,0.0
9399,67.0,0,0,2.0,0.0
9400,70.0,2,120,2.0,0.0
9401,55.0,1,480,7.0,0.0
9402,48.0,6,120,15.0,0.0
9403,52.0,0,100,13.0,0.0
9404,52.0,1,480,8.0,0.0
9405,58.0,38,0,3.0,0.0
9406,55.0,0,0,3.0,0.0
9407,40.0,0,100,14.0,0.0
9408,79.0,2,50,10.0,0.0
9409,72.0,3,50,11.0,0.0
9410,70.0,6,50,12.0,0.0
9411,84.0,22,30,10.0,0.0
9412,84.0,2,0,0.0,0.0
9413,70.0,3,50,11.0,0.0
9414,60.0,5,120,6.0,0.0
9415,72.0,0,120,6.0,0.0
9416,82.0,2,0,1.0,0.0
9417,79.0,0,0,1.0,0.0
9418,48.0,0,240,4.0,0.0
9419,60.0,0,240,4.0,0.0
9420,67.0,35,50,12.0,0.0
9421,70.0,0,240,2.0,0.0
9422,48.0,44,120,15.0,0.0
9423,55.0,2,230,13.0,0.0
9424,58.0,0,240,3.0,0.0
9425,43.0,1,230,14.0,0.0
9426,84.0,22,30,10.0,0.0
9427,70.0,3,50,11.0,0.0
9428,67.0,8,50,12.0,0.0
9429,84.0,50,60,10.0,0.0
9430,72.0,3,50,11.0,0.0
9431,70.0,5,50,12.0,0.0
9432,79.0,2,50,10.0,0.0
9433,72.0,3,50,11.0,0.0
9434,70.0,6,50,12.0,0.0
9435,84.0,22,30,10.0,0.0
9436,91.0,1,0,0.0,0.0
9437,84.0,2,120,0.0,0.0
9438,70.0,3,50,11.0,0.0
9439,72.0,0,120,6.0,0.0
9440,79.0,1,0,1.0,0.0
9441,82.0,0,0,1.0,0.0
9442,60.0,0,120,4.0,0.0
9443,48.0,0,120,4.0,0.0
9444,67.0,35,50,12.0,0.0
9445,67.0,8,0,2.0,0.0
9446,70.0,1,120,2.0,0.0
9447,48.0,5,120,15.0,0.0
9448,60.0,3,100,13.0,0.0
9449,55.0,16,0,3.0,0.0
9450,58.0,38,120,3.0,0.0
9451,48.0,6,100,14.0,0.0
9452,84.0,22,30,10.0,0.0
9453,70.0,0,50,11.0,0.0
9454,67.0,0,50,12.0,0.0
9455,84.0,50,60,10.0,0.0
9456,92.0,0,120,0.0,0.0
9457,84.0,2,120,0.0,0.0
9458,72.0,3,50,11.0,0.0
9459,72.0,0,120,6.0,0.0
9460,60.0,1,0,6.0,0.0
9461,80.0,0,120,1.0,0.0
9462,68.0,5,50,12.0,0.0
9463,65.0,2,120,2.0,0.0
9464,68.0,0,120,2.0,0.0
9465,56.0,1,480,7.0,0.0
9466,48.0,6,120,15.0,0.0
9467,53.0,0,100,13.0,0.0
9468,53.0,1,480,8.0,0.0
9469,53.0,16,120,3.0,0.0
9470,41.0,0,100,14.0,0.0
9471,80.0,2,50,10.0,0.0
9472,72.0,3,50,11.0,0.0
9473,68.0,6,50,12.0,0.0
9474,84.0,22,30,10.0,0.0
9475,89.0,0,240,0.0,0.0
9476,68.0,3,50,11.0,0.0
9477,72.0,1,120,6.0,0.0
9478,60.0,1,0,6.0,0.0
9479,48.0,0,0,4.0,0.0
9480,60.0,0,0,4.0,0.0
9481,84.0,0,240,1.0,0.0
9482,77.0,2,0,1.0,0.0
9483,65.0,35,50,12.0,0.0
9484,72.0,0,240,2.0,0.0
9485,48.0,44,120,15.0,0.0
9486,56.0,2,230,13.0,0.0
9487,56.0,0,0,3.0,0.0
9488,44.0,1,230,14.0,0.0
9489,84.0,22,30,10.0,0.0
9490,68.0,3,50,11.0,0.0
9491,65.0,8,50,12.0,0.0
9492,84.0,50,60,10.0,0.0
9493,72.0,3,50,11.0,0.0
9494,68.0,5,50,12.0,0.0
9495,80.0,2,50,10.0,0.0
9496,72.0,3,50,11.0,0.0
9497,68.0,6,50,12.0,0.0
9498,84.0,22,30,10.0,0.0
9499,92.0,1,0,0.0,0.0
9500,89.0,2,120,0.0,0.0
9501,68.0,3,50,11.0,0.0
9502,72.0,1,120,6.0,0.0
9503,60.0,0,120,6.0,0.0
9504,80.0,2,120,1.0,0.0
9505,84.0,0,120,1.0,0.0
9506,65.0,35,50,12.0,0.0
9507,68.0,8,0,2.0,0.0
9508,72.0,1,120,2.0,0.0
9509,60.0,0,100,13.0,0.0
9510,56.0,16,0,3.0,0.0
9511,60.0,0,0,3.0,0.0
9512,48.0,6,100,14.0,0.0
9513,84.0,22,30,10.0,0.0
9514,68.0,3,50,11.0,0.0
9515,65.0,0,50,12.0,0.0
9516,84.0,50,60,10.0,0.0
9517,87.0,0,120,0.0,0.0
9518,72.0,3,50,11.0,0.0
9519,48.0,0,0,4.0,0.0
9520,60.0,0,0,4.0,0.0
9521,84.0,0,120,1.0,0.0
9522,69.0,5,50,12.0,0.0
9523,72.0,2,120,2.0,0.0
9524,69.0,0,120,2.0,0.0
9525,57.0,1,480,7.0,0.0
9526,48.0,5,0,15.0,0.0
9527,54.0,3,100,13.0,0.0
9528,54.0,1,480,8.0,0.0
9529,60.0,0,0,3.0,0.0
9530,57.0,16,120,3.0,0.0
9531,42.0,6,100,14.0,0.0
9532,81.0,2,50,10.0,0.0
9533,72.0,0,50,11.0,0.0
9534,69.0,0,50,12.0,0.0
9535,84.0,22,30,10.0,0.0
9536,93.0,2,0,0.0,0.0
9537,69.0,3,50,11.0,0.0
9538,72.0,1,0,6.0,0.0
9539,60.0,0,0,6.0,0.0
9540,81.0,0,0,1.0,0.0
9541,48.0,0,0,4.0,0.0
9542,84.0,0,240,1.0,0.0
9543,60.0,0,120,4.0,0.0
9544,66.0,35,50,12.0,0.0
9545,75.0,8,240,2.0,0.0
9546,72.0,0,240,2.0,0.0
9547,48.0,6,0,15.0,0.0
9548,60.0,2,230,13.0,0.0
9549,48.0,1,230,14.0,0.0
9550,84.0,22,30,10.0,0.0
9551,69.0,3,50,11.0,0.0
9552,66.0,8,50,12.0,0.0
9553,84.0,50,60,10.0,0.0
9554,72.0,3,50,11.0,0.0
9555,69.0,5,50,12.0,0.0
9556,81.0,2,50,10.0,0.0
9557,72.0,3,50,11.0,0.0
9558,69.0,6,50,12.0,0.0
9559,84.0,22,30,10.0,0.0
9560,87.0,1,0,0.0,0.0
9561,93.0,0,120,0.0,0.0
9562,69.0,3,50,11.0,0.0
9563,81.0,1,0,1.0,0.0
9564,84.0,0,120,1.0,0.0
9565,48.0,0,120,4.0,0.0
9566,66.0,35,50,12.0,0.0
9567,72.0,0,120,2.0,0.0
9568,75.0,1,120,2.0,0.0
9569,63.0,3,100,13.0,0.0
9570,60.0,0,0,3.0,0.0
9571,63.0,16,0,3.0,0.0
9572,51.0,6,100,14.0,0.0
9573,84.0,22,30,10.0,0.0
9574,69.0,0,50,11.0,0.0
9575,66.0,0,50,12.0,0.0
9576,84.0,2,50,10.0,0.0
9577,91.0,1,480,0.0,0.0
9578,87.0,2,0,0.0,0.0
9579,72.0,16,50,11.0,0.0
9580,72.0,0,0,6.0,0.0
9581,60.0,1,0,6.0,0.0
9582,67.0,1,480,7.0,0.0
9583,60.0,0,0,4.0,0.0
9584,84.0,0,1440,1.0,0.0
9585,79.0,0,480,1.0,0.0
9586,55.0,7,290,12.0,0.0
9587,67.0,2,480,2.0,0.0
9588,72.0,1,1440,2.0,0.0
9589,60.0,1,1440,7.0,0.0
9590,48.0,5,0,15.0,0.0
9591,43.0,3,290,13.0,0.0
9592,55.0,1,480,8.0,0.0
9593,63.0,0,0,3.0,0.0
9594,55.0,36,480,3.0,0.0
9595,31.0,3,290,14.0,0.0
9596,87.0,2,50,10.0,0.0
9597,84.0,16,50,11.0,0.0
9598,75.0,0,50,11.0,0.0
9599,87.0,2,50,10.0,0.0
9600,84.0,0,50,11.0,0.0
9601,75.0,16,50,11.0,0.0
9602,48.0,42,0,15.0,0.0
9603,87.0,2,50,10.0,0.0
9604,84.0,16,50,11.0,0.0
9605,75.0,0,50,11.0,0.0
9606,48.0,42,0,15.0,0.0
9607,87.0,2,290,10.0,0.0
9608,75.0,16,290,11.0,0.0
9609,84.0,0,290,11.0,0.0
9610,48.0,47,0,15.0,0.0
9611,67.0,7,50,12.0,0.0
9612,55.0,1,50,13.0,0.0
9613,43.0,3,50,14.0,0.0
9614,60.0,0,0,6.0,0.0
9615,48.0,0,0,4.0,0.0
9616,67.0,7,50,12.0,0.0
9617,48.0,47,0,15.0,0.0
9618,55.0,1,50,13.0,0.0
9619,43.0,3,50,14.0,0.0
9620,72.0,0,0,6.0,0.0
9621,60.0,1,0,6.0,0.0
9622,60.0,0,0,4.0,0.0
9623,48.0,1,0,4.0,0.0
9624,67.0,6,50,12.0,0.0
9625,48.0,5,60,15.0,0.0
9626,55.0,1,50,13.0,0.0
9627,43.0,1,50,14.0,0.0
9628,90.0,0,480,0.0,0.0
9629,72.0,1,0,6.0,0.0
9630,68.0,0,480,7.0,0.0
9631,60.0,0,0,4.0,0.0
9632,48.0,0,0,4.0,0.0
9633,78.0,1,480,1.0,0.0
9634,56.0,7,290,12.0,0.0
9635,66.0,2,480,2.0,0.0
9636,48.0,42,60,15.0,0.0
9637,44.0,3,290,13.0,0.0
9638,56.0,1,480,8.0,0.0
9639,56.0,36,480,3.0,0.0
9640,32.0,3,290,14.0,0.0
9641,87.0,2,50,10.0,0.0
9642,84.0,16,50,11.0,0.0
9643,75.0,0,50,11.0,0.0
9644,87.0,2,50,10.0,0.0
9645,84.0,16,50,11.0,0.0
9646,75.0,0,50,11.0,0.0
9647,48.0,42,0,15.0,0.0
9648,87.0,2,50,10.0,0.0
9649,84.0,0,50,11.0,0.0
9650,75.0,16,50,11.0,0.0
9651,87.0,5,230,10.0,0.0
9652,75.0,0,240,11.0,0.0
9653,84.0,0,290,11.0,0.0
9654,48.0,47,0,15.0,0.0
9655,68.0,7,50,12.0,0.0
9656,48.0,47,60,15.0,0.0
9657,56.0,1,50,13.0,0.0
9658,44.0,3,50,14.0,0.0
9659,72.0,1,0,6.0,0.0
9660,60.0,0,0,6.0,0.0
9661,48.0,1,0,4.0,0.0
9662,60.0,0,0,4.0,0.0
9663,68.0,7,50,12.0,0.0
9664,56.0,1,50,13.0,0.0
9665,44.0,3,50,14.0,0.0
9666,72.0,1,0,6.0,0.0
9667,60.0,0,0,6.0,0.0
9668,48.0,0,60,4.0,0.0
9669,60.0,1,0,4.0,0.0
9670,68.0,6,50,12.0,0.0
9671,48.0,42,0,15.0,0.0
9672,56.0,1,50,13.0,0.0
9673,44.0,1,50,14.0,0.0
9674,86.0,2,50,10.0,0.0
9675,86.0,0,600,0.0,0.0
9676,93.0,1,480,0.0,0.0
9677,74.0,16,50,11.0,0.0
9678,72.0,1,0,6.0,0.0
9679,60.0,0,0,6.0,0.0
9680,66.0,1,480,7.0,0.0
9681,81.0,0,480,1.0,0.0
9682,54.0,7,290,12.0,0.0
9683,69.0,0,480,2.0,0.0
9684,42.0,3,290,13.0,0.0
9685,54.0,1,480,8.0,0.0
9686,62.0,36,600,3.0,0.0
9687,54.0,36,480,3.0,0.0
9688,30.0,3,290,14.0,0.0
9689,86.0,2,50,10.0,0.0
9690,84.0,16,50,11.0,0.0
9691,74.0,0,50,11.0,0.0
9692,48.0,42,0,15.0,0.0
9693,86.0,2,50,10.0,0.0
9694,74.0,16,50,11.0,0.0
9695,84.0,0,50,11.0,0.0
9696,86.0,2,50,10.0,0.0
9697,74.0,0,50,11.0,0.0
9698,84.0,16,50,11.0,0.0
9699,48.0,42,0,15.0,0.0
9700,86.0,2,290,10.0,0.0
9701,84.0,3,230,11.0,0.0
9702,74.0,0,230,11.0,0.0
9703,66.0,7,50,12.0,0.0
9704,48.0,47,0,15.0,0.0
9705,54.0,1,50,13.0,0.0
9706,42.0,3,50,14.0,0.0
9707,60.0,0,60,6.0,0.0
9708,72.0,1,60,6.0,0.0
9709,48.0,1,0,4.0,0.0
9710,60.0,0,0,4.0,0.0
9711,66.0,7,50,12.0,0.0
9712,48.0,47,0,15.0,0.0
9713,54.0,1,50,13.0,0.0
9714,42.0,3,50,14.0,0.0
9715,60.0,1,60,6.0,0.0
9716,72.0,0,60,6.0,0.0
9717,48.0,0,60,4.0,0.0
9718,60.0,0,60,4.0,0.0
9719,66.0,6,50,12.0,0.0
9720,48.0,44,0,15.0,0.0
9721,54.0,1,50,13.0,0.0
9722,42.0,1,50,14.0,0.0
9723,91.0,2,120,0.0,0.0
9724,74.0,0,50,11.0,0.0
9725,83.0,58,50,11.0,0.0
9726,67.0,1,120,6.0,0.0
9727,55.0,0,120,6.0,0.0
9728,79.0,2,120,1.0,0.0
9729,43.0,0,120,4.0,0.0
9730,83.0,0,120,1.0,0.0
9731,67.0,0,120,7.0,0.0
9732,55.0,0,120,4.0,0.0
9733,55.0,7,290,12.0,0.0
9734,67.0,1,120,2.0,0.0
9735,71.0,0,120,2.0,0.0
9736,59.0,1,120,7.0,0.0
9737,43.0,5,120,15.0,0.0
9738,43.0,3,290,13.0,0.0
9739,55.0,1,120,8.0,0.0
9740,55.0,0,120,3.0,0.0
9741,31.0,50,290,14.0,0.0
9742,86.0,2,50,10.0,0.0
9743,83.0,0,50,11.0,0.0
9744,74.0,9,50,11.0,0.0
9745,86.0,2,50,10.0,0.0
9746,83.0,0,50,11.0,0.0
9747,74.0,58,50,11.0,0.0
9748,86.0,2,50,10.0,0.0
9749,83.0,63,50,11.0,0.0
9750,74.0,0,50,11.0,0.0
9751,86.0,2,230,10.0,0.0
9752,83.0,0,230,11.0,0.0
9753,74.0,3,230,11.0,0.0
9754,67.0,7,50,12.0,0.0
9755,55.0,3,50,13.0,0.0
9756,43.0,50,50,14.0,0.0
9757,67.0,7,50,12.0,0.0
9758,55.0,3,50,13.0,0.0
9759,43.0,45,50,14.0,0.0
9760,67.0,7,50,12.0,0.0
9761,55.0,3,50,13.0,0.0
9762,43.0,100,50,14.0,0.0
9763,60.0,2,45,10.0,0.0
9764,60.0,3,45,11.0,0.0
9765,48.0,55,45,12.0,0.0
9766,62.0,2,45,10.0,0.0
9767,62.0,3,45,11.0,0.0
9768,50.0,55,45,12.0,0.0
9769,63.0,2,45,10.0,0.0
9770,63.0,3,45,11.0,0.0
9771,51.0,55,45,12.0,0.0
9772,65.0,2,45,10.0,0.0
9773,65.0,3,45,11.0,0.0
9774,53.0,55,45,12.0,0.0
9775,67.0,2,45,10.0,0.0
9776,67.0,3,45,11.0,0.0
9777,55.0,55,45,12.0,0.0
9778,69.0,2,45,10.0,0.0
9779,69.0,3,45,11.0,0.0
9780,57.0,55,45,12.0,0.0
9781,71.0,2,45,10.0,0.0
9782,71.0,3,45,11.0,0.0
9783,59.0,55,45,12.0,0.0
9784,72.0,2,45,10.0,0.0
9785,72.0,3,45,11.0,0.0
9786,60.0,55,45,12.0,0.0
9787,63.0,2,45,10.0,0.0
9788,63.0,3,45,11.0,0.0
9789,51.0,55,45,12.0,0.0
9790,65.0,2,45,10.0,0.0
9791,65.0,3,45,11.0,0.0
9792,53.0,55,45,12.0,0.0
9793,67.0,2,45,10.0,0.0
9794,67.0,3,45,11.0,0.0
9795,55.0,55,45,12.0,0.0
9796,69.0,2,45,10.0,0.0
9797,69.0,3,45,11.0,0.0
9798,57.0,55,45,12.0,0.0
9799,71.0,2,45,10.0,0.0
9800,71.0,3,45,11.0,0.0
9801,59.0,55,45,12.0,0.0
9802,72.0,2,45,10.0,0.0
9803,72.0,3,45,11.0,0.0
9804,60.0,55,45,12.0,0.0
9805,74.0,2,45,10.0,0.0
9806,74.0,3,45,11.0,0.0
9807,62.0,55,45,12.0,0.0
9808,75.0,2,45,10.0,0.0
9809,75.0,3,45,11.0,0.0
9810,63.0,55,45,12.0,0.0
9811,72.0,1,45,10.0,0.0
9812,72.0,1,45,0.0,0.0
9813,72.0,2,45,11.0,0.0
9814,72.0,1,45,1.0,0.0
9815,60.0,1,45,12.0,0.0
9816,60.0,6,45,2.0,0.0
9817,48.0,2,45,13.0,0.0
9818,48.0,1,45,3.0,0.0
9819,36.0,45,45,14.0,0.0
9820,74.0,1,45,10.0,0.0
9821,74.0,1,45,0.0,0.0
9822,74.0,2,45,11.0,0.0
9823,74.0,1,45,1.0,0.0
9824,62.0,1,45,12.0,0.0
9825,62.0,6,45,2.0,0.0
9826,50.0,2,45,13.0,0.0
9827,50.0,1,45,3.0,0.0
9828,38.0,45,45,14.0,0.0
9829,75.0,1,45,10.0,0.0
9830,75.0,1,45,0.0,0.0
9831,75.0,2,45,11.0,0.0
9832,75.0,1,45,1.0,0.0
9833,63.0,1,45,12.0,0.0
9834,63.0,6,45,2.0,0.0
9835,51.0,2,45,13.0,0.0
9836,51.0,1,45,3.0,0.0
9837,39.0,45,45,14.0,0.0
9838,77.0,1,45,10.0,0.0
9839,77.0,1,45,0.0,0.0
9840,77.0,2,45,11.0,0.0
9841,77.0,1,45,1.0,0.0
9842,65.0,1,45,12.0,0.0
9843,65.0,6,45,2.0,0.0
9844,53.0,2,45,13.0,0.0
9845,53.0,1,45,3.0,0.0
9846,41.0,45,45,14.0,0.0
9847,79.0,1,45,10.0,0.0
9848,79.0,1,45,0.0,0.0
9849,79.0,2,45,11.0,0.0
9850,79.0,1,45,1.0,0.0
9851,67.0,1,45,12.0,0.0
9852,67.0,6,45,2.0,0.0
9853,55.0,2,45,13.0,0.0
9854,55.0,1,45,3.0,0.0
9855,43.0,45,45,14.0,0.0
9856,81.0,1,45,10.0,0.0
9857,81.0,1,45,0.0,0.0
9858,81.0,2,45,11.0,0.0
9859,81.0,1,45,1.0,0.0
9860,69.0,1,45,12.0,0.0
9861,69.0,6,45,2.0,0.0
9862,57.0,2,45,13.0,0.0
9863,57.0,1,45,3.0,0.0
9864,45.0,45,45,14.0,0.0
9865,83.0,1,45,10.0,0.0
9866,83.0,1,45,0.0,0.0
9867,83.0,2,45,11.0,0.0
9868,83.0,1,45,1.0,0.0
9869,71.0,1,45,12.0,0.0
9870,71.0,6,45,2.0,0.0
9871,59.0,2,45,13.0,0.0
9872,59.0,1,45,3.0,0.0
9873,47.0,60,45,14.0,0.0
9874,84.0,1,60,10.0,0.0
9875,84.0,1,60,0.0,0.0
9876,84.0,2,60,11.0,0.0
9877,84.0,1,60,1.0,0.0
9878,72.0,1,60,12.0,0.0
9879,72.0,6,60,2.0,0.0
9880,60.0,2,60,13.0,0.0
9881,60.0,1,60,3.0,0.0
9882,48.0,105,60,14.0,0.0
9883,86.0,1,60,10.0,0.0
9884,86.0,1,60,0.0,0.0
9885,86.0,2,60,11.0,0.0
9886,74.0,1,60,1.0,0.0
9887,74.0,1,60,12.0,0.0
9888,74.0,6,60,2.0,0.0
9889,62.0,2,60,13.0,0.0
9890,62.0,1,60,3.0,0.0
9891,50.0,105,60,14.0,0.0
9892,87.0,1,60,10.0,0.0
9893,87.0,1,60,0.0,0.0
9894,87.0,2,60,11.0,0.0
9895,75.0,1,60,1.0,0.0
9896,75.0,1,60,12.0,0.0
9897,75.0,6,60,2.0,0.0
9898,63.0,2,60,13.0,0.0
9899,63.0,1,60,3.0,0.0
9900,51.0,105,60,14.0,0.0
9901,69.0,1,60,10.0,0.0
9902,81.0,1,60,0.0,0.0
9903,69.0,2,60,11.0,0.0
9904,69.0,1,60,1.0,0.0
9905,57.0,1,60,12.0,0.0
9906,69.0,6,60,2.0,0.0
9907,45.0,2,60,13.0,0.0
9908,57.0,1,60,3.0,0.0
9909,33.0,166,60,14.0,0.0
9910,70.0,107,216,6.0,0.0
9911,70.0,2,2830,10.0,0.0
9912,82.0,3,120,0.0,0.0
9913,70.0,0,2830,11.0,0.0
9914,70.0,2,120,1.0,0.0
9915,58.0,177,2830,12.0,0.0
9916,70.0,8,120,2.0,0.0
9917,46.0,3,2820,13.0,0.0
9918,58.0,82,120,3.0,0.0
9919,34.0,0,2820,14.0,0.0
9920,70.0,30,23,6.0,0.0
9921,70.0,52,23,6.0,0.0
9922,70.0,60,45,6.0,0.0
9923,70.0,231,45,6.0,0.0
9924,70.0,107,216,6.0,0.0
9925,70.0,30,23,6.0,0.0
9926,70.0,52,23,6.0,0.0
9927,70.0,60,45,6.0,0.0
9928,70.0,60,45,6.0,0.0
9929,70.0,38,45,6.0,0.0
9930,65.0,30,23,6.0,0.0
9931,65.0,52,23,6.0,0.0
9932,65.0,60,45,6.0,0.0
9933,65.0,60,45,6.0,0.0
9934,65.0,38,45,6.0,0.0
9935,62.0,30,23,6.0,0.0
9936,62.0,52,23,6.0,0.0
9937,62.0,60,45,6.0,0.0
9938,62.0,60,45,6.0,0.0
9939,62.0,60,45,6.0,0.0
9940,58.0,60,45,6.0,0.0
9941,62.0,60,45,6.0,0.0
9942,58.0,60,45,6.0,0.0
9943,62.0,60,45,6.0,0.0
9944,62.0,60,45,6.0,0.0
9945,65.0,60,45,6.0,0.0
9946,62.0,60,45,6.0,0.0
9947,65.0,60,45,6.0,0.0
9948,65.0,60,45,6.0,0.0
9949,70.0,60,45,6.0,0.0
9950,65.0,60,45,6.0,0.0
9951,70.0,60,45,6.0,0.0
9952,65.0,60,45,6.0,0.0
9953,70.0,60,45,6.0,0.0
9954,65.0,445,45,6.0,0.0
9955,70.0,0,430,6.0,0.0
9956,65.0,2,4800,4.0,0.0
9957,46.0,3,120,13.0,0.0
9958,46.0,118,1920,3.0,0.0
9959,34.0,35,120,14.0,0.0
9960,65.0,2,50,10.0,0.0
9961,62.0,0,50,11.0,0.0
9962,58.0,3,50,11.0,0.0
9963,53.0,55,50,12.0,0.0
9964,65.0,2,50,10.0,0.0
9965,58.0,0,50,11.0,0.0
9966,62.0,3,50,11.0,0.0
9967,53.0,99,50,12.0,0.0
9968,65.0,2,94,10.0,0.0
9969,58.0,0,94,11.0,0.0
9970,62.0,3,94,11.0,0.0
9971,53.0,115,94,12.0,0.0
9972,65.0,2,94,10.0,0.0
9973,58.0,3,94,11.0,0.0
9974,62.0,0,94,11.0,0.0
9975,53.0,141,94,12.0,0.0
9976,65.0,2,120,10.0,0.0
9977,74.0,5,480,0.0,0.0
9978,58.0,0,120,11.0,0.0
9979,62.0,3,120,11.0,0.0
9980,53.0,57,120,12.0,0.0
9981,62.0,8,480,2.0,0.0
9982,50.0,118,480,3.0,0.0
9983,46.0,3,50,13.0,0.0
9984,34.0,57,50,14.0,0.0
9985,46.0,3,50,13.0,0.0
9986,34.0,101,50,14.0,0.0
9987,46.0,3,94,13.0,0.0
9988,34.0,117,94,14.0,0.0
9989,46.0,3,94,13.0,0.0
9990,34.0,12,94,14.0,0.0
9991,77.0,5,480,0.0,0.0
9992,65.0,8,480,2.0,0.0
9993,46.0,3,120,13.0,0.0
9994,53.0,106,480,3.0,0.0
9995,34.0,35,120,14.0,0.0
9996,65.0,2,50,10.0,0.0
9997,58.0,3,50,11.0,0.0
9998,62.0,0,50,11.0,0.0
9999,53.0,55,50,12.0,0.0
10000,65.0,2,50,10.0,0.0
10001,58.0,0,50,11.0,0.0
10002,62.0,3,50,11.0,0.0
10003,53.0,99,50,12.0,0.0
10004,65.0,2,94,10.0,0.0
10005,58.0,3,94,11.0,0.0
10006,62.0,0,94,11.0,0.0
10007,53.0,115,94,12.0,0.0
10008,65.0,2,94,10.0,0.0
10009,62.0,3,94,11.0,0.0
10010,58.0,0,94,11.0,0.0
10011,53.0,22,94,12.0,0.0
10012,65.0,2,120,10.0,0.0
10013,82.0,5,470,0.0,0.0
10014,58.0,0,120,11.0,0.0
10015,62.0,3,120,11.0,0.0
10016,53.0,57,120,12.0,0.0
10017,70.0,8,470,2.0,0.0
10018,58.0,10,470,3.0,0.0
10019,46.0,3,50,13.0,0.0
10020,34.0,57,50,14.0,0.0
10021,46.0,3,50,13.0,0.0
10022,34.0,101,50,14.0,0.0
10023,46.0,3,94,13.0,0.0
10024,34.0,117,94,14.0,0.0
10025,46.0,3,94,13.0,0.0
10026,34.0,2,94,14.0,0.0
10027,84.0,5,480,0.0,0.0
10028,72.0,8,480,2.0,0.0
10029,45.0,3,120,13.0,0.0
10030,60.0,106,480,3.0,0.0
10031,45.0,118,1920,3.0,0.0
10032,33.0,35,120,14.0,0.0
10033,65.0,2,50,10.0,0.0
10034,60.0,0,50,11.0,0.0
10035,63.0,3,50,11.0,0.0
10036,53.0,55,50,12.0,0.0
10037,65.0,2,50,10.0,0.0
10038,63.0,0,50,11.0,0.0
10039,60.0,3,50,11.0,0.0
10040,53.0,99,50,12.0,0.0
10041,65.0,2,94,10.0,0.0
10042,63.0,3,94,11.0,0.0
10043,60.0,0,94,11.0,0.0
10044,53.0,115,94,12.0,0.0
10045,65.0,2,94,10.0,0.0
10046,60.0,3,94,11.0,0.0
10047,63.0,0,94,11.0,0.0
10048,53.0,22,94,12.0,0.0
10049,65.0,2,120,10.0,0.0
10050,77.0,5,480,0.0,0.0
10051,63.0,0,120,11.0,0.0
10052,60.0,3,120,11.0,0.0
10053,53.0,57,120,12.0,0.0
10054,65.0,8,480,2.0,0.0
10055,53.0,118,480,3.0,0.0
10056,45.0,3,50,13.0,0.0
10057,33.0,57,50,14.0,0.0
10058,45.0,3,50,13.0,0.0
10059,33.0,101,50,14.0,0.0
10060,45.0,3,94,13.0,0.0
10061,33.0,117,94,14.0,0.0
10062,45.0,3,94,13.0,0.0
10063,33.0,12,94,14.0,0.0
10064,81.0,5,480,0.0,0.0
10065,69.0,8,480,2.0,0.0
10066,45.0,3,120,13.0,0.0
10067,57.0,106,480,3.0,0.0
10068,33.0,35,120,14.0,0.0
10069,65.0,2,50,10.0,0.0
10070,60.0,3,50,11.0,0.0
10071,63.0,0,50,11.0,0.0
10072,53.0,55,50,12.0,0.0
10073,65.0,2,50,10.0,0.0
10074,63.0,0,50,11.0,0.0
10075,60.0,3,50,11.0,0.0
10076,53.0,99,50,12.0,0.0
10077,65.0,2,94,10.0,0.0
10078,63.0,3,94,11.0,0.0
10079,60.0,0,94,11.0,0.0
10080,53.0,115,94,12.0,0.0
10081,65.0,2,94,10.0,0.0
10082,60.0,0,94,11.0,0.0
10083,63.0,3,94,11.0,0.0
10084,53.0,22,94,12.0,0.0
10085,65.0,2,120,10.0,0.0
10086,84.0,5,470,0.0,0.0
10087,60.0,0,120,11.0,0.0
10088,63.0,3,120,11.0,0.0
10089,53.0,57,120,12.0,0.0
10090,72.0,8,470,2.0,0.0
10091,60.0,10,470,3.0,0.0
10092,45.0,3,50,13.0,0.0
10093,33.0,57,50,14.0,0.0
10094,45.0,3,50,13.0,0.0
10095,33.0,101,50,14.0,0.0
10096,45.0,3,94,13.0,0.0
10097,33.0,117,94,14.0,0.0
10098,45.0,3,94,13.0,0.0
10099,33.0,2,94,14.0,0.0
10100,86.0,5,480,0.0,0.0
10101,74.0,8,480,2.0,0.0
10102,46.0,3,120,13.0,0.0
10103,46.0,118,960,3.0,0.0
10104,62.0,106,480,3.0,0.0
10105,34.0,35,120,14.0,0.0
10106,65.0,2,50,10.0,0.0
10107,62.0,3,50,11.0,0.0
10108,58.0,0,50,11.0,0.0
10109,53.0,55,50,12.0,0.0
10110,65.0,2,50,10.0,0.0
10111,62.0,0,50,11.0,0.0
10112,58.0,3,50,11.0,0.0
10113,53.0,99,50,12.0,0.0
10114,65.0,2,94,10.0,0.0
10115,62.0,3,94,11.0,0.0
10116,58.0,0,94,11.0,0.0
10117,53.0,115,94,12.0,0.0
10118,65.0,2,94,10.0,0.0
10119,58.0,3,94,11.0,0.0
10120,62.0,0,94,11.0,0.0
10121,53.0,22,94,12.0,0.0
10122,65.0,2,120,10.0,0.0
10123,82.0,3,480,0.0,0.0
10124,62.0,0,120,11.0,0.0
10125,58.0,3,120,11.0,0.0
10126,53.0,57,120,12.0,0.0
10127,70.0,8,480,2.0,0.0
10128,58.0,0,480,3.0,0.0
10129,46.0,3,50,13.0,0.0
10130,34.0,57,50,14.0,0.0
10131,46.0,3,50,13.0,0.0
10132,34.0,101,50,14.0,0.0
10133,46.0,3,94,13.0,0.0
10134,34.0,117,94,14.0,0.0
10135,46.0,3,94,13.0,0.0
10136,34.0,12,94,14.0,0.0
10137,79.0,5,480,0.0,0.0
10138,67.0,0,960,4.0,0.0
10139,67.0,8,480,2.0,0.0
10140,51.0,3,120,13.0,0.0
10141,55.0,106,480,3.0,0.0
10142,51.0,118,960,3.0,0.0
10143,39.0,35,120,14.0,0.0
10144,67.0,2,50,10.0,0.0
10145,58.0,0,50,11.0,0.0
10146,63.0,3,50,11.0,0.0
10147,55.0,55,50,12.0,0.0
10148,67.0,2,50,10.0,0.0
10149,58.0,0,50,11.0,0.0
10150,63.0,3,50,11.0,0.0
10151,55.0,99,50,12.0,0.0
10152,67.0,2,94,10.0,0.0
10153,63.0,3,94,11.0,0.0
10154,58.0,0,94,11.0,0.0
10155,55.0,115,94,12.0,0.0
10156,67.0,2,94,10.0,0.0
10157,63.0,3,94,11.0,0.0
10158,58.0,0,94,11.0,0.0
10159,55.0,22,94,12.0,0.0
10160,67.0,2,120,10.0,0.0
10161,87.0,5,470,0.0,0.0
10162,58.0,0,120,11.0,0.0
10163,63.0,3,120,11.0,0.0
10164,55.0,57,120,12.0,0.0
10165,75.0,8,470,2.0,0.0
10166,63.0,10,470,3.0,0.0
10167,51.0,3,50,13.0,0.0
10168,39.0,57,50,14.0,0.0
10169,51.0,3,50,13.0,0.0
10170,39.0,101,50,14.0,0.0
10171,51.0,3,94,13.0,0.0
10172,39.0,117,94,14.0,0.0
10173,51.0,3,94,13.0,0.0
10174,39.0,2,94,14.0,0.0
10175,86.0,1,480,0.0,0.0
10176,65.0,2,2040,4.0,0.0
10177,74.0,8,480,2.0,0.0
10178,53.0,3,120,13.0,0.0
10179,53.0,118,960,3.0,0.0
10180,62.0,118,480,3.0,0.0
10181,41.0,35,120,14.0,0.0
10182,65.0,2,50,10.0,0.0
10183,62.0,3,50,11.0,0.0
10184,58.0,0,50,11.0,0.0
10185,53.0,55,50,12.0,0.0
10186,65.0,2,50,10.0,0.0
10187,58.0,0,50,11.0,0.0
10188,62.0,3,50,11.0,0.0
10189,53.0,125,50,12.0,0.0
10190,65.0,2,120,10.0,0.0
10191,62.0,0,120,11.0,0.0
10192,58.0,3,120,11.0,0.0
10193,53.0,57,120,12.0,0.0
10194,53.0,3,50,13.0,0.0
10195,41.0,56,50,14.0,0.0
10196,53.0,3,50,13.0,0.0
10197,41.0,1,50,14.0,0.0
10198,89.0,1,480,0.0,0.0
10199,77.0,8,480,2.0,0.0
10200,53.0,3,120,13.0,0.0
10201,65.0,0,480,3.0,0.0
10202,41.0,35,120,14.0,0.0
10203,65.0,2,50,10.0,0.0
10204,62.0,3,50,11.0,0.0
10205,58.0,0,50,11.0,0.0
10206,53.0,55,50,12.0,0.0
10207,65.0,2,50,10.0,0.0
10208,58.0,0,50,11.0,0.0
10209,62.0,3,50,11.0,0.0
10210,53.0,125,50,12.0,0.0
10211,65.0,2,120,10.0,0.0
10212,62.0,3,120,11.0,0.0
10213,58.0,0,120,11.0,0.0
10214,53.0,57,120,12.0,0.0
10215,53.0,3,50,13.0,0.0
10216,41.0,56,50,14.0,0.0
10217,53.0,3,50,13.0,0.0
10218,41.0,1,50,14.0,0.0
10219,84.0,1,480,0.0,0.0
10220,72.0,8,480,2.0,0.0
10221,41.0,3,120,13.0,0.0
10222,60.0,118,480,3.0,0.0
10223,41.0,107,960,3.0,0.0
10224,29.0,35,120,14.0,0.0
10225,65.0,2,50,10.0,0.0
10226,57.0,0,50,11.0,0.0
10227,63.0,3,50,11.0,0.0
10228,53.0,55,50,12.0,0.0
10229,65.0,2,50,10.0,0.0
10230,63.0,3,50,11.0,0.0
10231,57.0,0,50,11.0,0.0
10232,53.0,125,50,12.0,0.0
10233,65.0,2,120,10.0,0.0
10234,57.0,0,120,11.0,0.0
10235,63.0,3,120,11.0,0.0
10236,53.0,57,120,12.0,0.0
10237,41.0,3,50,13.0,0.0
10238,29.0,56,50,14.0,0.0
10239,41.0,3,50,13.0,0.0
10240,29.0,1,50,14.0,0.0
10241,89.0,5,470,0.0,0.0
10242,77.0,6,470,2.0,0.0
10243,41.0,3,120,13.0,0.0
10244,65.0,1,470,3.0,0.0
10245,29.0,35,120,14.0,0.0
10246,65.0,2,50,10.0,0.0
10247,63.0,3,50,11.0,0.0
10248,57.0,0,50,11.0,0.0
10249,53.0,55,50,12.0,0.0
10250,65.0,2,50,10.0,0.0
10251,63.0,3,50,11.0,0.0
10252,57.0,0,50,11.0,0.0
10253,53.0,125,50,12.0,0.0
10254,65.0,2,120,10.0,0.0
10255,57.0,3,120,11.0,0.0
10256,63.0,0,120,11.0,0.0
10257,53.0,57,120,12.0,0.0
10258,41.0,3,50,13.0,0.0
10259,29.0,46,50,14.0,0.0
10260,41.0,2,50,13.0,0.0
10261,29.0,9,50,14.0,0.0
10262,70.0,83,240,6.0,0.0
10263,58.0,2,2830,10.0,0.0
10264,82.0,3,120,0.0,0.0
10265,70.0,3,2830,11.0,0.0
10266,58.0,0,2830,12.0,0.0
10267,70.0,8,120,2.0,0.0
10268,46.0,0,2820,13.0,0.0
10269,46.0,106,120,3.0,0.0
10270,58.0,0,120,3.0,0.0
10271,34.0,177,2820,14.0,0.0
10272,70.0,30,23,6.0,0.0
10273,70.0,52,23,6.0,0.0
10274,70.0,60,45,6.0,0.0
10275,70.0,255,45,6.0,0.0
10276,70.0,83,240,6.0,0.0
10277,70.0,30,23,6.0,0.0
10278,70.0,52,23,6.0,0.0
10279,70.0,60,45,6.0,0.0
10280,70.0,60,45,6.0,0.0
10281,70.0,38,45,6.0,0.0
10282,65.0,30,23,6.0,0.0
10283,65.0,52,23,6.0,0.0
10284,65.0,60,45,6.0,0.0
10285,65.0,60,45,6.0,0.0
10286,65.0,38,45,6.0,0.0
10287,62.0,30,23,6.0,0.0
10288,62.0,52,23,6.0,0.0
10289,62.0,60,45,6.0,0.0
10290,62.0,60,45,6.0,0.0
10291,62.0,60,45,6.0,0.0
10292,58.0,60,45,6.0,0.0
10293,62.0,60,45,6.0,0.0
10294,58.0,60,45,6.0,0.0
10295,62.0,60,45,6.0,0.0
10296,62.0,60,45,6.0,0.0
10297,65.0,60,45,6.0,0.0
10298,62.0,60,45,6.0,0.0
10299,65.0,60,45,6.0,0.0
10300,65.0,60,45,6.0,0.0
10301,70.0,60,45,6.0,0.0
10302,65.0,60,45,6.0,0.0
10303,70.0,60,45,6.0,0.0
10304,65.0,60,45,6.0,0.0
10305,70.0,60,45,6.0,0.0
10306,65.0,445,45,6.0,0.0
10307,70.0,0,430,6.0,0.0
10308,42.0,3,120,13.0,0.0
10309,30.0,37,120,14.0,0.0
10310,58.0,3,50,11.0,0.0
10311,54.0,9,50,12.0,0.0
10312,49.0,48,50,3.0,0.0
10313,61.0,0,50,3.0,0.0
10314,58.0,3,50,11.0,0.0
10315,54.0,9,50,12.0,0.0
10316,49.0,92,50,3.0,0.0
10317,61.0,0,50,3.0,0.0
10318,58.0,3,94,11.0,0.0
10319,54.0,9,94,12.0,0.0
10320,61.0,0,94,3.0,0.0
10321,49.0,108,94,3.0,0.0
10322,58.0,3,94,11.0,0.0
10323,54.0,9,94,12.0,0.0
10324,61.0,134,94,3.0,0.0
10325,49.0,0,94,3.0,0.0
10326,58.0,1,480,10.0,0.0
10327,70.0,11,480,0.0,0.0
10328,58.0,3,120,11.0,0.0
10329,54.0,9,120,12.0,0.0
10330,46.0,123,480,13.0,0.0
10331,49.0,0,120,3.0,0.0
10332,61.0,51,120,3.0,0.0
10333,30.0,60,50,14.0,0.0
10334,30.0,104,50,14.0,0.0
10335,30.0,120,94,14.0,0.0
10336,30.0,11,94,14.0,0.0
10337,61.0,1,480,10.0,0.0
10338,73.0,11,480,0.0,0.0
10339,49.0,110,480,13.0,0.0
10340,30.0,37,120,14.0,0.0
10341,58.0,3,50,11.0,0.0
10342,54.0,9,50,12.0,0.0
10343,49.0,0,50,3.0,0.0
10344,61.0,48,50,3.0,0.0
10345,58.0,3,50,11.0,0.0
10346,54.0,9,50,12.0,0.0
10347,61.0,92,50,3.0,0.0
10348,49.0,0,50,3.0,0.0
10349,58.0,3,94,11.0,0.0
10350,54.0,9,94,12.0,0.0
10351,49.0,108,94,3.0,0.0
10352,61.0,0,94,3.0,0.0
10353,58.0,3,94,11.0,0.0
10354,54.0,9,94,12.0,0.0
10355,61.0,0,94,3.0,0.0
10356,49.0,12,94,3.0,0.0
10357,66.0,1,470,10.0,0.0
10358,78.0,11,470,0.0,0.0
10359,58.0,3,120,11.0,0.0
10360,54.0,9,120,12.0,0.0
10361,54.0,133,470,13.0,0.0
10362,61.0,0,120,3.0,0.0
10363,49.0,51,120,3.0,0.0
10364,30.0,60,50,14.0,0.0
10365,30.0,104,50,14.0,0.0
10366,30.0,120,94,14.0,0.0
10367,30.0,1,94,14.0,0.0
10368,68.0,1,480,10.0,0.0
10369,80.0,11,480,0.0,0.0
10370,56.0,110,480,13.0,0.0
10371,29.0,37,120,14.0,0.0
10372,59.0,3,50,11.0,0.0
10373,56.0,9,50,12.0,0.0
10374,61.0,0,50,3.0,0.0
10375,49.0,48,50,3.0,0.0
10376,59.0,3,50,11.0,0.0
10377,56.0,9,50,12.0,0.0
10378,61.0,92,50,3.0,0.0
10379,49.0,0,50,3.0,0.0
10380,59.0,3,94,11.0,0.0
10381,56.0,9,94,12.0,0.0
10382,49.0,108,94,3.0,0.0
10383,61.0,0,94,3.0,0.0
10384,59.0,3,94,11.0,0.0
10385,56.0,9,94,12.0,0.0
10386,61.0,0,94,3.0,0.0
10387,49.0,12,94,3.0,0.0
10388,61.0,1,480,10.0,0.0
10389,73.0,11,480,0.0,0.0
10390,59.0,3,120,11.0,0.0
10391,56.0,9,120,12.0,0.0
10392,49.0,123,480,13.0,0.0
10393,49.0,51,120,3.0,0.0
10394,61.0,0,120,3.0,0.0
10395,29.0,60,50,14.0,0.0
10396,29.0,104,50,14.0,0.0
10397,29.0,120,94,14.0,0.0
10398,29.0,11,94,14.0,0.0
10399,65.0,1,480,10.0,0.0
10400,77.0,11,480,0.0,0.0
10401,53.0,110,480,13.0,0.0
10402,29.0,37,120,14.0,0.0
10403,59.0,3,50,11.0,0.0
10404,56.0,9,50,12.0,0.0
10405,49.0,0,50,3.0,0.0
10406,61.0,48,50,3.0,0.0
10407,59.0,3,50,11.0,0.0
10408,56.0,9,50,12.0,0.0
10409,49.0,0,50,3.0,0.0
10410,61.0,92,50,3.0,0.0
10411,59.0,3,94,11.0,0.0
10412,56.0,9,94,12.0,0.0
10413,49.0,108,94,3.0,0.0
10414,61.0,0,94,3.0,0.0
10415,59.0,3,94,11.0,0.0
10416,56.0,9,94,12.0,0.0
10417,61.0,12,94,3.0,0.0
10418,49.0,0,94,3.0,0.0
10419,68.0,1,470,10.0,0.0
10420,80.0,11,470,0.0,0.0
10421,59.0,3,120,11.0,0.0
10422,56.0,9,120,12.0,0.0
10423,56.0,133,470,13.0,0.0
10424,49.0,0,120,3.0,0.0
10425,61.0,51,120,3.0,0.0
10426,29.0,60,50,14.0,0.0
10427,29.0,104,50,14.0,0.0
10428,29.0,120,94,14.0,0.0
10429,29.0,1,94,14.0,0.0
10430,70.0,1,480,10.0,0.0
10431,82.0,11,480,0.0,0.0
10432,58.0,110,480,13.0,0.0
10433,30.0,37,120,14.0,0.0
10434,58.0,3,50,11.0,0.0
10435,54.0,9,50,12.0,0.0
10436,49.0,48,50,3.0,0.0
10437,61.0,0,50,3.0,0.0
10438,58.0,3,50,11.0,0.0
10439,54.0,9,50,12.0,0.0
10440,49.0,0,50,3.0,0.0
10441,61.0,92,50,3.0,0.0
10442,58.0,3,94,11.0,0.0
10443,54.0,9,94,12.0,0.0
10444,49.0,108,94,3.0,0.0
10445,61.0,0,94,3.0,0.0
10446,58.0,3,94,11.0,0.0
10447,54.0,9,94,12.0,0.0
10448,61.0,12,94,3.0,0.0
10449,49.0,0,94,3.0,0.0
10450,66.0,1,480,10.0,0.0
10451,78.0,11,480,0.0,0.0
10452,58.0,3,120,11.0,0.0
10453,54.0,9,120,12.0,0.0
10454,54.0,123,480,13.0,0.0
10455,49.0,0,120,3.0,0.0
10456,61.0,51,120,3.0,0.0
10457,30.0,60,50,14.0,0.0
10458,30.0,104,50,14.0,0.0
10459,30.0,120,94,14.0,0.0
10460,30.0,11,94,14.0,0.0
10461,75.0,1,480,10.0,0.0
10462,87.0,11,480,0.0,0.0
10463,63.0,110,480,13.0,0.0
10464,35.0,37,120,14.0,0.0
10465,56.0,3,50,11.0,0.0
10466,54.0,9,50,12.0,0.0
10467,63.0,0,50,3.0,0.0
10468,51.0,48,50,3.0,0.0
10469,56.0,3,50,11.0,0.0
10470,54.0,9,50,12.0,0.0
10471,63.0,92,50,3.0,0.0
10472,51.0,0,50,3.0,0.0
10473,56.0,3,94,11.0,0.0
10474,54.0,9,94,12.0,0.0
10475,51.0,0,94,3.0,0.0
10476,63.0,108,94,3.0,0.0
10477,56.0,3,94,11.0,0.0
10478,54.0,9,94,12.0,0.0
10479,63.0,12,94,3.0,0.0
10480,51.0,0,94,3.0,0.0
10481,71.0,1,470,10.0,0.0
10482,83.0,11,470,0.0,0.0
10483,56.0,3,120,11.0,0.0
10484,54.0,9,120,12.0,0.0
10485,59.0,133,470,13.0,0.0
10486,63.0,0,120,3.0,0.0
10487,51.0,51,120,3.0,0.0
10488,35.0,60,50,14.0,0.0
10489,35.0,104,50,14.0,0.0
10490,35.0,120,94,14.0,0.0
10491,35.0,1,94,14.0,0.0
10492,70.0,1,480,10.0,0.0
10493,82.0,4,480,0.0,0.0
10494,58.0,123,480,13.0,0.0
10495,37.0,37,120,14.0,0.0
10496,58.0,3,50,11.0,0.0
10497,54.0,9,50,12.0,0.0
10498,61.0,48,50,3.0,0.0
10499,49.0,0,50,3.0,0.0
10500,58.0,3,50,11.0,0.0
10501,54.0,9,50,12.0,0.0
10502,49.0,118,50,3.0,0.0
10503,61.0,0,50,3.0,0.0
10504,58.0,3,120,11.0,0.0
10505,54.0,9,120,12.0,0.0
10506,49.0,51,120,3.0,0.0
10507,61.0,0,120,3.0,0.0
10508,37.0,55,50,14.0,0.0
10509,37.0,7,50,14.0,0.0
10510,73.0,1,480,10.0,0.0
10511,85.0,4,480,0.0,0.0
10512,61.0,123,480,13.0,0.0
10513,37.0,37,120,14.0,0.0
10514,58.0,3,50,11.0,0.0
10515,54.0,9,50,12.0,0.0
10516,61.0,48,50,3.0,0.0
10517,49.0,0,50,3.0,0.0
10518,58.0,3,50,11.0,0.0
10519,54.0,9,50,12.0,0.0
10520,61.0,118,50,3.0,0.0
10521,49.0,0,50,3.0,0.0
10522,58.0,3,120,11.0,0.0
10523,54.0,9,120,12.0,0.0
10524,61.0,51,120,3.0,0.0
10525,49.0,0,120,3.0,0.0
10526,37.0,55,50,14.0,0.0
10527,37.0,7,50,14.0,0.0
10528,68.0,1,480,10.0,0.0
10529,80.0,4,480,0.0,0.0
10530,56.0,123,480,13.0,0.0
10531,37.0,37,120,14.0,0.0
10532,56.0,3,50,11.0,0.0
10533,53.0,9,50,12.0,0.0
10534,49.0,48,50,3.0,0.0
10535,61.0,0,50,3.0,0.0
10536,56.0,3,50,11.0,0.0
10537,53.0,9,50,12.0,0.0
10538,49.0,0,50,3.0,0.0
10539,61.0,118,50,3.0,0.0
10540,56.0,3,120,11.0,0.0
10541,53.0,9,120,12.0,0.0
10542,61.0,51,120,3.0,0.0
10543,49.0,0,120,3.0,0.0
10544,37.0,55,50,14.0,0.0
10545,37.0,7,50,14.0,0.0
10546,73.0,1,470,10.0,0.0
10547,85.0,11,470,0.0,0.0
10548,61.0,3,470,13.0,0.0
10549,37.0,37,120,14.0,0.0
10550,56.0,3,50,11.0,0.0
10551,53.0,9,50,12.0,0.0
10552,61.0,0,50,3.0,0.0
10553,49.0,48,50,3.0,0.0
10554,56.0,3,50,11.0,0.0
10555,53.0,9,50,12.0,0.0
10556,61.0,0,50,3.0,0.0
10557,49.0,118,50,3.0,0.0
10558,56.0,3,120,11.0,0.0
10559,53.0,9,120,12.0,0.0
10560,49.0,0,120,3.0,0.0
10561,61.0,51,120,3.0,0.0
10562,37.0,45,50,14.0,0.0
10563,37.0,130,50,14.0,0.0
10564,69.0,12,240,10.0,0.0
10565,57.0,110,240,13.0,0.0
10566,37.0,37,120,14.0,0.0
10567,57.0,3,50,11.0,0.0
10568,54.0,57,50,12.0,0.0
10569,57.0,3,50,11.0,0.0
10570,54.0,5,50,12.0,0.0
10571,73.0,5,240,10.0,0.0
10572,57.0,3,120,11.0,0.0
10573,54.0,60,120,12.0,0.0
10574,61.0,123,240,13.0,0.0
10575,37.0,55,50,14.0,0.0
10576,37.0,7,50,14.0,0.0
10577,69.0,12,240,10.0,0.0
10578,57.0,110,240,13.0,0.0
10579,37.0,37,120,14.0,0.0
10580,57.0,3,50,11.0,0.0
10581,54.0,57,50,12.0,0.0
10582,57.0,3,50,11.0,0.0
10583,54.0,5,50,12.0,0.0
10584,73.0,12,230,10.0,0.0
10585,57.0,3,120,11.0,0.0
10586,54.0,60,120,12.0,0.0
10587,61.0,3,230,13.0,0.0
10588,37.0,45,50,14.0,0.0
10589,37.0,130,50,14.0,0.0
10590,69.0,12,240,10.0,0.0
10591,57.0,110,240,13.0,0.0
10592,38.0,37,120,14.0,0.0
10593,57.0,3,50,11.0,0.0
10594,54.0,57,50,12.0,0.0
10595,57.0,3,50,11.0,0.0
10596,54.0,5,50,12.0,0.0
10597,74.0,5,240,10.0,0.0
10598,57.0,3,120,11.0,0.0
10599,54.0,60,120,12.0,0.0
10600,62.0,123,240,13.0,0.0
10601,38.0,55,50,14.0,0.0
10602,38.0,7,50,14.0,0.0
10603,69.0,12,240,10.0,0.0
10604,57.0,110,240,13.0,0.0
10605,38.0,37,120,14.0,0.0
10606,57.0,3,50,11.0,0.0
10607,54.0,57,50,12.0,0.0
10608,57.0,3,50,11.0,0.0
10609,54.0,5,50,12.0,0.0
10610,74.0,5,240,10.0,0.0
10611,57.0,3,120,11.0,0.0
10612,54.0,60,120,12.0,0.0
10613,62.0,123,240,13.0,0.0
10614,38.0,55,50,14.0,0.0
10615,38.0,7,50,14.0,0.0
10616,69.0,12,240,10.0,0.0
10617,57.0,110,240,13.0,0.0
10618,38.0,37,120,14.0,0.0
10619,57.0,3,50,11.0,0.0
10620,54.0,57,50,12.0,0.0
10621,57.0,3,50,11.0,0.0
10622,54.0,5,50,12.0,0.0
10623,74.0,5,240,10.0,0.0
10624,57.0,3,120,11.0,0.0
10625,54.0,60,120,12.0,0.0
10626,62.0,123,240,13.0,0.0
10627,38.0,55,50,14.0,0.0
10628,38.0,7,50,14.0,0.0
10629,69.0,12,240,10.0,0.0
10630,57.0,110,240,13.0,0.0
10631,38.0,37,120,14.0,0.0
10632,57.0,3,50,11.0,0.0
10633,54.0,57,50,12.0,0.0
10634,57.0,3,50,11.0,0.0
10635,54.0,5,50,12.0,0.0
10636,74.0,12,230,10.0,0.0
10637,57.0,3,120,11.0,0.0
10638,54.0,60,120,12.0,0.0
10639,62.0,3,230,13.0,0.0
10640,38.0,45,50,14.0,0.0
10641,38.0,130,50,14.0,0.0
10642,72.0,12,240,10.0,0.0
10643,60.0,110,240,13.0,0.0
10644,38.0,37,120,14.0,0.0
10645,60.0,3,50,11.0,0.0
10646,57.0,57,50,12.0,0.0
10647,60.0,3,50,11.0,0.0
10648,57.0,5,50,12.0,0.0
10649,74.0,5,240,10.0,0.0
10650,60.0,3,120,11.0,0.0
10651,57.0,60,120,12.0,0.0
10652,62.0,123,240,13.0,0.0
10653,38.0,55,50,14.0,0.0
10654,38.0,7,50,14.0,0.0
10655,72.0,12,240,10.0,0.0
10656,60.0,110,240,13.0,0.0
10657,38.0,37,120,14.0,0.0
10658,60.0,3,50,11.0,0.0
10659,57.0,57,50,12.0,0.0
10660,60.0,3,50,11.0,0.0
10661,57.0,5,50,12.0,0.0
10662,74.0,5,240,10.0,0.0
10663,60.0,3,120,11.0,0.0
10664,57.0,60,120,12.0,0.0
10665,62.0,123,240,13.0,0.0
10666,38.0,55,50,14.0,0.0
10667,38.0,7,50,14.0,0.0
10668,72.0,12,240,10.0,0.0
10669,60.0,110,240,13.0,0.0
10670,38.0,37,120,14.0,0.0
10671,60.0,3,50,11.0,0.0
10672,57.0,57,50,12.0,0.0
10673,60.0,3,50,11.0,0.0
10674,57.0,5,50,12.0,0.0
10675,74.0,5,240,10.0,0.0
10676,60.0,3,120,11.0,0.0
10677,57.0,60,120,12.0,0.0
10678,62.0,123,240,13.0,0.0
10679,38.0,55,50,14.0,0.0
10680,38.0,7,50,14.0,0.0
10681,72.0,12,240,10.0,0.0
10682,60.0,110,240,13.0,0.0
10683,38.0,37,120,14.0,0.0
10684,60.0,3,50,11.0,0.0
10685,57.0,57,50,12.0,0.0
10686,60.0,3,50,11.0,0.0
10687,57.0,5,50,12.0,0.0
10688,74.0,12,230,10.0,0.0
10689,60.0,3,120,11.0,0.0
10690,57.0,60,120,12.0,0.0
10691,62.0,3,230,13.0,0.0
10692,38.0,45,50,14.0,0.0
10693,38.0,115,50,14.0,0.0
10694,72.0,12,120,10.0,0.0
10695,60.0,3,120,13.0,0.0
10696,38.0,105,120,14.0,0.0
10697,74.0,2,120,10.0,0.0
10698,66.0,0,120,11.0,0.0
10699,57.0,3,120,11.0,0.0
10700,60.0,7,120,12.0,0.0
10701,62.0,108,120,13.0,0.0
10702,72.0,12,120,10.0,0.0
10703,60.0,3,120,13.0,0.0
10704,38.0,105,120,14.0,0.0
10705,74.0,2,120,10.0,0.0
10706,57.0,0,120,11.0,0.0
10707,66.0,3,120,11.0,0.0
10708,60.0,7,120,12.0,0.0
10709,62.0,108,120,13.0,0.0
10710,72.0,12,120,10.0,0.0
10711,60.0,3,120,13.0,0.0
10712,38.0,105,120,14.0,0.0
10713,74.0,2,120,10.0,0.0
10714,57.0,3,120,11.0,0.0
10715,66.0,0,120,11.0,0.0
10716,60.0,7,120,12.0,0.0
10717,62.0,108,120,13.0,0.0
10718,72.0,12,120,10.0,0.0
10719,60.0,3,120,13.0,0.0
10720,38.0,105,120,14.0,0.0
10721,74.0,2,120,10.0,0.0
10722,66.0,3,120,11.0,0.0
10723,57.0,0,120,11.0,0.0
10724,60.0,7,120,12.0,0.0
10725,62.0,108,120,13.0,0.0
10726,72.0,12,120,10.0,0.0
10727,60.0,3,120,13.0,0.0
10728,38.0,105,120,14.0,0.0
10729,74.0,2,120,10.0,0.0
10730,66.0,3,120,11.0,0.0
10731,57.0,0,120,11.0,0.0
10732,60.0,7,120,12.0,0.0
10733,62.0,108,120,13.0,0.0
10734,72.0,12,120,10.0,0.0
10735,60.0,3,120,13.0,0.0
10736,38.0,36,120,14.0,0.0
10737,74.0,2,120,10.0,0.0
10738,62.0,60,50,0.0,0.0
10739,57.0,0,120,11.0,0.0
10740,66.0,3,120,11.0,0.0
10741,60.0,7,120,12.0,0.0
10742,62.0,25,120,13.0,0.0
10743,64.0,9,50,0.0,0.0
10744,72.0,12,120,10.0,0.0
10745,66.0,60,36,0.0,0.0
10746,60.0,3,120,13.0,0.0
10747,38.0,22,120,14.0,0.0
10748,67.0,23,36,0.0,0.0
10749,74.0,2,120,10.0,0.0
10750,69.0,60,36,0.0,0.0
10751,57.0,0,120,11.0,0.0
10752,66.0,3,120,11.0,0.0
10753,60.0,7,120,12.0,0.0
10754,62.0,25,120,13.0,0.0
10755,71.0,23,36,0.0,0.0
10756,72.0,12,120,10.0,0.0
10757,72.0,60,36,0.0,0.0
10758,60.0,3,120,13.0,0.0
10759,38.0,22,120,14.0,0.0
10760,74.0,23,36,0.0,0.0
10761,74.0,12,110,10.0,0.0
10762,76.0,60,36,0.0,0.0
10763,66.0,0,120,11.0,0.0
10764,57.0,0,120,11.0,0.0
10765,60.0,45,120,12.0,0.0
10766,62.0,3,110,13.0,0.0
10767,78.0,13,36,0.0,0.0
10768,71.0,2,50,10.0,0.0
10769,79.0,1,120,0.0,0.0
10770,59.0,3,50,11.0,0.0
10771,55.0,7,50,12.0,0.0
10772,43.0,7,120,15.0,0.0
10773,43.0,48,50,13.0,0.0
10774,55.0,46,1430,3.0,0.0
10775,31.0,35,120,14.0,0.0
10776,62.0,2,50,10.0,0.0
10777,59.0,3,50,11.0,0.0
10778,55.0,6,50,12.0,0.0
10779,55.0,6,50,13.0,0.0
10780,62.0,2,50,10.0,0.0
10781,83.0,1,240,0.0,0.0
10782,59.0,3,50,11.0,0.0
10783,55.0,7,50,12.0,0.0
10784,55.0,48,50,13.0,0.0
10785,62.0,2,50,10.0,0.0
10786,59.0,3,50,11.0,0.0
10787,55.0,7,50,12.0,0.0
10788,55.0,48,50,13.0,0.0
10789,62.0,2,50,10.0,0.0
10790,59.0,3,50,11.0,0.0
10791,55.0,7,50,12.0,0.0
10792,55.0,48,50,13.0,0.0
10793,62.0,2,50,10.0,0.0
10794,59.0,3,50,11.0,0.0
10795,55.0,6,50,12.0,0.0
10796,55.0,48,50,13.0,0.0
10797,62.0,2,50,10.0,0.0
10798,86.0,1,120,0.0,0.0
10799,59.0,3,50,11.0,0.0
10800,55.0,7,50,12.0,0.0
10801,55.0,48,50,13.0,0.0
10802,62.0,2,50,10.0,0.0
10803,59.0,3,50,11.0,0.0
10804,55.0,6,50,12.0,0.0
10805,55.0,48,50,13.0,0.0
10806,62.0,2,50,10.0,0.0
10807,88.0,1,360,0.0,0.0
10808,59.0,3,50,11.0,0.0
10809,55.0,7,50,12.0,0.0
10810,55.0,48,50,13.0,0.0
10811,62.0,2,50,10.0,0.0
10812,59.0,3,50,11.0,0.0
10813,55.0,7,50,12.0,0.0
10814,55.0,48,50,13.0,0.0
10815,62.0,2,50,10.0,0.0
10816,59.0,3,50,11.0,0.0
10817,55.0,7,50,12.0,0.0
10818,55.0,48,50,13.0,0.0
10819,62.0,2,50,10.0,0.0
10820,59.0,3,50,11.0,0.0
10821,55.0,7,50,12.0,0.0
10822,55.0,48,50,13.0,0.0
10823,62.0,2,50,10.0,0.0
10824,59.0,3,50,11.0,0.0
10825,55.0,7,50,12.0,0.0
10826,55.0,48,50,13.0,0.0
10827,62.0,2,50,10.0,0.0
10828,59.0,3,50,11.0,0.0
10829,55.0,6,50,12.0,0.0
10830,55.0,48,50,13.0,0.0
10831,62.0,2,50,10.0,0.0
10832,86.0,1,110,0.0,0.0
10833,59.0,3,50,11.0,0.0
10834,55.0,7,50,12.0,0.0
10835,55.0,48,50,13.0,0.0
10836,62.0,1,50,10.0,0.0
10837,59.0,3,50,11.0,0.0
10838,55.0,7,50,12.0,0.0
10839,55.0,48,50,13.0,0.0
10840,62.0,2,50,10.0,0.0
10841,83.0,1,120,0.0,0.0
10842,59.0,3,50,11.0,0.0
10843,55.0,7,50,12.0,0.0
10844,55.0,48,50,13.0,0.0
10845,62.0,2,50,10.0,0.0
10846,59.0,3,50,11.0,0.0
10847,55.0,6,50,12.0,0.0
10848,55.0,48,50,13.0,0.0
10849,62.0,2,50,10.0,0.0
10850,79.0,1,110,0.0,0.0
10851,59.0,3,50,11.0,0.0
10852,55.0,7,50,12.0,0.0
10853,55.0,48,50,13.0,0.0
10854,62.0,1,50,10.0,0.0
10855,59.0,3,50,11.0,0.0
10856,55.0,7,50,12.0,0.0
10857,55.0,48,50,13.0,0.0
10858,62.0,2,50,10.0,0.0
10859,76.0,1,60,0.0,0.0
10860,59.0,3,50,11.0,0.0
10861,55.0,6,50,12.0,0.0
10862,55.0,48,50,13.0,0.0
10863,62.0,2,50,10.0,0.0
10864,59.0,3,50,11.0,0.0
10865,55.0,7,50,12.0,0.0
10866,55.0,48,50,13.0,0.0
10867,62.0,2,50,10.0,0.0
10868,74.0,1,60,0.0,0.0
10869,59.0,3,50,11.0,0.0
10870,55.0,6,50,12.0,0.0
10871,55.0,48,50,13.0,0.0
10872,62.0,2,50,10.0,0.0
10873,59.0,3,50,11.0,0.0
10874,55.0,7,50,12.0,0.0
10875,55.0,2,50,13.0,0.0
10876,62.0,2,50,10.0,0.0
10877,74.0,1,120,0.0,0.0
10878,59.0,3,50,11.0,0.0
10879,55.0,7,50,12.0,0.0
10880,55.0,48,50,13.0,0.0
10881,67.0,36,120,3.0,0.0
10882,62.0,2,50,10.0,0.0
10883,59.0,3,50,11.0,0.0
10884,55.0,6,50,12.0,0.0
10885,55.0,12,50,13.0,0.0
10886,62.0,2,50,10.0,0.0
10887,59.0,3,50,11.0,0.0
10888,55.0,7,50,12.0,0.0
10889,55.0,48,50,13.0,0.0
10890,62.0,46,110,3.0,0.0
10891,62.0,2,50,10.0,0.0
10892,59.0,3,50,11.0,0.0
10893,55.0,7,50,12.0,0.0
10894,55.0,2,50,13.0,0.0
10895,62.0,2,50,10.0,0.0
10896,59.0,3,50,11.0,0.0
10897,55.0,7,50,12.0,0.0
10898,55.0,12,50,13.0,0.0
10899,60.0,36,60,3.0,0.0
10900,62.0,2,50,10.0,0.0
10901,59.0,3,50,11.0,0.0
10902,55.0,7,50,12.0,0.0
10903,55.0,48,50,13.0,0.0
10904,62.0,2,50,10.0,0.0
10905,59.0,3,50,11.0,0.0
10906,55.0,7,50,12.0,0.0
10907,55.0,12,50,13.0,0.0
10908,59.0,36,60,3.0,0.0
10909,62.0,2,50,10.0,0.0
10910,59.0,3,50,11.0,0.0
10911,55.0,7,50,12.0,0.0
10912,55.0,48,50,13.0,0.0
10913,62.0,2,50,10.0,0.0
10914,79.0,1,120,0.0,0.0
10915,59.0,3,50,11.0,0.0
10916,55.0,7,50,12.0,0.0
10917,55.0,48,50,13.0,0.0
10918,59.0,36,120,3.0,0.0
10919,62.0,2,50,10.0,0.0
10920,59.0,3,50,11.0,0.0
10921,55.0,6,50,12.0,0.0
10922,55.0,12,50,13.0,0.0
10923,62.0,2,50,10.0,0.0
10924,74.0,1,110,0.0,0.0
10925,59.0,3,50,11.0,0.0
10926,55.0,7,50,12.0,0.0
10927,55.0,48,50,13.0,0.0
10928,62.0,1,50,10.0,0.0
10929,59.0,3,50,11.0,0.0
10930,55.0,7,50,12.0,0.0
10931,55.0,48,50,13.0,0.0
10932,62.0,2,50,10.0,0.0
10933,72.0,1,60,0.0,0.0
10934,59.0,3,50,11.0,0.0
10935,55.0,6,50,12.0,0.0
10936,55.0,48,50,13.0,0.0
10937,62.0,2,50,10.0,0.0
10938,59.0,3,50,11.0,0.0
10939,55.0,7,50,12.0,0.0
10940,55.0,48,50,13.0,0.0
10941,62.0,2,50,10.0,0.0
10942,71.0,1,60,0.0,0.0
10943,59.0,3,50,11.0,0.0
10944,55.0,6,50,12.0,0.0
10945,55.0,48,50,13.0,0.0
10946,62.0,2,50,10.0,0.0
10947,59.0,3,50,11.0,0.0
10948,55.0,7,50,12.0,0.0
10949,55.0,48,50,13.0,0.0
10950,62.0,2,50,10.0,0.0
10951,71.0,1,120,0.0,0.0
10952,59.0,3,50,11.0,0.0
10953,55.0,7,50,12.0,0.0
10954,55.0,48,50,13.0,0.0
10955,62.0,36,120,3.0,0.0
10956,62.0,2,50,10.0,0.0
10957,59.0,3,50,11.0,0.0
10958,55.0,6,50,12.0,0.0
10959,55.0,12,50,13.0,0.0
10960,62.0,2,50,10.0,0.0
10961,59.0,3,50,11.0,0.0
10962,55.0,7,50,12.0,0.0
10963,55.0,48,50,13.0,0.0
10964,59.0,46,110,3.0,0.0
10965,62.0,2,50,10.0,0.0
10966,59.0,3,50,11.0,0.0
10967,55.0,7,50,12.0,0.0
10968,55.0,2,50,13.0,0.0
10969,62.0,2,50,10.0,0.0
10970,59.0,3,50,11.0,0.0
10971,55.0,7,50,12.0,0.0
10972,55.0,12,50,13.0,0.0
10973,57.0,36,60,3.0,0.0
10974,62.0,2,50,10.0,0.0
10975,59.0,3,50,11.0,0.0
10976,55.0,7,50,12.0,0.0
10977,55.0,48,50,13.0,0.0
10978,62.0,2,50,10.0,0.0
10979,59.0,3,50,11.0,0.0
10980,55.0,7,50,12.0,0.0
10981,55.0,12,50,13.0,0.0
10982,55.0,36,60,3.0,0.0
10983,62.0,2,50,10.0,0.0
10984,59.0,3,50,11.0,0.0
10985,55.0,7,50,12.0,0.0
10986,55.0,48,50,13.0,0.0
10987,62.0,2,50,10.0,0.0
10988,86.0,1,60,0.0,0.0
10989,59.0,3,50,11.0,0.0
10990,55.0,6,50,12.0,0.0
10991,55.0,48,50,13.0,0.0
10992,55.0,46,950,3.0,0.0
10993,62.0,1,50,10.0,0.0
10994,83.0,1,50,0.0,0.0
10995,59.0,3,50,11.0,0.0
10996,55.0,7,50,12.0,0.0
10997,55.0,29,50,13.0,0.0
10998,62.0,2,50,10.0,0.0
10999,81.0,19,30,0.0,0.0
11000,59.0,3,50,11.0,0.0
11001,55.0,7,50,12.0,0.0
11002,55.0,29,50,13.0,0.0
11003,62.0,2,50,10.0,0.0
11004,79.0,19,30,0.0,0.0
11005,59.0,3,50,11.0,0.0
11006,55.0,7,50,12.0,0.0
11007,55.0,48,50,13.0,0.0
11008,62.0,2,50,10.0,0.0
11009,83.0,1,60,0.0,0.0
11010,59.0,3,50,11.0,0.0
11011,55.0,6,50,12.0,0.0
11012,55.0,48,50,13.0,0.0
11013,62.0,1,50,10.0,0.0
11014,79.0,1,50,0.0,0.0
11015,59.0,3,50,11.0,0.0
11016,55.0,7,50,12.0,0.0
11017,55.0,29,50,13.0,0.0
11018,62.0,2,50,10.0,0.0
11019,76.0,19,30,0.0,0.0
11020,59.0,3,50,11.0,0.0
11021,55.0,7,50,12.0,0.0
11022,55.0,29,50,13.0,0.0
11023,62.0,2,50,10.0,0.0
11024,74.0,19,30,0.0,0.0
11025,59.0,3,50,11.0,0.0
11026,55.0,7,50,12.0,0.0
11027,55.0,48,50,13.0,0.0
11028,62.0,2,50,10.0,0.0
11029,79.0,1,60,0.0,0.0
11030,59.0,3,50,11.0,0.0
11031,55.0,6,50,12.0,0.0
11032,55.0,48,50,13.0,0.0
11033,62.0,1,50,10.0,0.0
11034,74.0,1,50,0.0,0.0
11035,59.0,3,50,11.0,0.0
11036,55.0,7,50,12.0,0.0
11037,55.0,29,50,13.0,0.0
11038,62.0,2,50,10.0,0.0
11039,72.0,19,30,0.0,0.0
11040,59.0,3,50,11.0,0.0
11041,55.0,7,50,12.0,0.0
11042,55.0,29,50,13.0,0.0
11043,62.0,2,50,10.0,0.0
11044,71.0,19,30,0.0,0.0
11045,59.0,3,50,11.0,0.0
11046,55.0,7,50,12.0,0.0
11047,55.0,48,50,13.0,0.0
11048,62.0,2,50,10.0,0.0
11049,74.0,1,60,0.0,0.0
11050,59.0,3,50,11.0,0.0
11051,55.0,6,50,12.0,0.0
11052,55.0,48,50,13.0,0.0
11053,62.0,1,50,10.0,0.0
11054,71.0,1,50,0.0,0.0
11055,59.0,3,50,11.0,0.0
11056,55.0,7,50,12.0,0.0
11057,55.0,29,50,13.0,0.0
11058,62.0,2,50,10.0,0.0
11059,69.0,19,30,0.0,0.0
11060,59.0,3,50,11.0,0.0
11061,55.0,7,50,12.0,0.0
11062,55.0,29,50,13.0,0.0
11063,62.0,2,50,10.0,0.0
11064,67.0,19,30,0.0,0.0
11065,59.0,3,50,11.0,0.0
11066,55.0,7,50,12.0,0.0
11067,55.0,2,50,13.0,0.0
11068,62.0,1,50,10.0,0.0
11069,69.0,1,50,0.0,0.0
11070,60.0,3,50,11.0,0.0
11071,57.0,7,50,12.0,0.0
11072,50.0,48,50,13.0,0.0
11073,50.0,36,120,3.0,0.0
11074,67.0,1,70,0.0,0.0
11075,62.0,2,50,10.0,0.0
11076,60.0,3,50,11.0,0.0
11077,57.0,6,50,12.0,0.0
11078,50.0,12,50,13.0,0.0
11079,62.0,2,50,10.0,0.0
11080,66.0,1,110,0.0,0.0
11081,60.0,3,50,11.0,0.0
11082,57.0,7,50,12.0,0.0
11083,50.0,48,50,13.0,0.0
11084,62.0,1,50,10.0,0.0
11085,60.0,3,50,11.0,0.0
11086,57.0,7,50,12.0,0.0
11087,50.0,48,50,13.0,0.0
11088,62.0,2,50,10.0,0.0
11089,66.0,1,120,0.0,0.0
11090,60.0,3,50,11.0,0.0
11091,57.0,7,50,12.0,0.0
11092,50.0,42,50,13.0,0.0
11093,62.0,2,50,10.0,0.0
11094,60.0,3,50,11.0,0.0
11095,57.0,6,50,12.0,0.0
11096,50.0,42,50,13.0,0.0
11097,50.0,6,30,3.0,0.0
11098,62.0,2,50,10.0,0.0
11099,60.0,3,50,11.0,0.0
11100,57.0,7,50,12.0,0.0
11101,50.0,42,50,13.0,0.0
11102,52.0,6,30,3.0,0.0
11103,62.0,2,50,10.0,0.0
11104,60.0,3,50,11.0,0.0
11105,57.0,7,50,12.0,0.0
11106,50.0,42,50,13.0,0.0
11107,54.0,6,30,3.0,0.0
11108,62.0,2,50,10.0,0.0
11109,60.0,3,50,11.0,0.0
11110,57.0,7,50,12.0,0.0
11111,50.0,42,50,13.0,0.0
11112,55.0,6,30,3.0,0.0
11113,62.0,2,50,10.0,0.0
11114,60.0,3,50,11.0,0.0
11115,57.0,7,50,12.0,0.0
11116,50.0,42,50,13.0,0.0
11117,57.0,6,30,3.0,0.0
11118,62.0,2,50,10.0,0.0
11119,60.0,3,50,11.0,0.0
11120,57.0,7,50,12.0,0.0
11121,50.0,42,50,13.0,0.0
11122,59.0,6,30,3.0,0.0
11123,62.0,2,50,10.0,0.0
11124,60.0,3,50,11.0,0.0
11125,57.0,7,50,12.0,0.0
11126,50.0,42,50,13.0,0.0
11127,60.0,6,30,3.0,0.0
11128,62.0,2,50,10.0,0.0
11129,60.0,3,50,11.0,0.0
11130,57.0,7,50,12.0,0.0
11131,50.0,42,50,13.0,0.0
11132,62.0,6,30,3.0,0.0
11133,62.0,2,50,10.0,0.0
11134,60.0,3,50,11.0,0.0
11135,57.0,7,50,12.0,0.0
11136,50.0,42,50,13.0,0.0
11137,64.0,6,30,3.0,0.0
11138,62.0,2,50,10.0,0.0
11139,60.0,3,50,11.0,0.0
11140,57.0,7,50,12.0,0.0
11141,50.0,42,50,13.0,0.0
11142,66.0,6,30,3.0,0.0
11143,62.0,2,50,10.0,0.0
11144,60.0,3,50,11.0,0.0
11145,57.0,7,50,12.0,0.0
11146,50.0,48,50,13.0,0.0
11147,67.0,6,30,3.0,0.0
11148,62.0,2,50,10.0,0.0
11149,93.0,1,60,0.0,0.0
11150,57.0,3,50,11.0,0.0
11151,54.0,6,50,12.0,0.0
11152,50.0,48,50,13.0,0.0
11153,69.0,17,120,3.0,0.0
11154,62.0,1,50,10.0,0.0
11155,90.0,1,50,0.0,0.0
11156,57.0,3,50,11.0,0.0
11157,54.0,7,50,12.0,0.0
11158,50.0,12,50,13.0,0.0
11159,62.0,2,50,10.0,0.0
11160,86.0,19,30,0.0,0.0
11161,57.0,3,50,11.0,0.0
11162,54.0,7,50,12.0,0.0
11163,50.0,29,50,13.0,0.0
11164,62.0,2,50,10.0,0.0
11165,84.0,19,30,0.0,0.0
11166,57.0,3,50,11.0,0.0
11167,54.0,7,50,12.0,0.0
11168,50.0,48,50,13.0,0.0
11169,62.0,2,50,10.0,0.0
11170,90.0,1,60,0.0,0.0
11171,57.0,3,50,11.0,0.0
11172,54.0,6,50,12.0,0.0
11173,50.0,48,50,13.0,0.0
11174,62.0,1,50,10.0,0.0
11175,86.0,1,50,0.0,0.0
11176,57.0,3,50,11.0,0.0
11177,54.0,7,50,12.0,0.0
11178,50.0,29,50,13.0,0.0
11179,62.0,2,50,10.0,0.0
11180,84.0,19,30,0.0,0.0
11181,57.0,3,50,11.0,0.0
11182,54.0,7,50,12.0,0.0
11183,50.0,29,50,13.0,0.0
11184,62.0,2,50,10.0,0.0
11185,81.0,19,30,0.0,0.0
11186,57.0,3,50,11.0,0.0
11187,54.0,7,50,12.0,0.0
11188,50.0,48,50,13.0,0.0
11189,62.0,2,50,10.0,0.0
11190,86.0,1,60,0.0,0.0
11191,57.0,3,50,11.0,0.0
11192,54.0,6,50,12.0,0.0
11193,50.0,48,50,13.0,0.0
11194,62.0,1,50,10.0,0.0
11195,84.0,1,50,0.0,0.0
11196,57.0,3,50,11.0,0.0
11197,54.0,7,50,12.0,0.0
11198,50.0,29,50,13.0,0.0
11199,62.0,2,50,10.0,0.0
11200,81.0,19,30,0.0,0.0
11201,57.0,3,50,11.0,0.0
11202,54.0,7,50,12.0,0.0
11203,50.0,29,50,13.0,0.0
11204,62.0,2,50,10.0,0.0
11205,78.0,19,30,0.0,0.0
11206,57.0,3,50,11.0,0.0
11207,54.0,7,50,12.0,0.0
11208,50.0,48,50,13.0,0.0
11209,62.0,2,50,10.0,0.0
11210,84.0,1,60,0.0,0.0
11211,57.0,3,50,11.0,0.0
11212,54.0,6,50,12.0,0.0
11213,50.0,48,50,13.0,0.0
11214,62.0,1,50,10.0,0.0
11215,81.0,1,50,0.0,0.0
11216,57.0,3,50,11.0,0.0
11217,54.0,7,50,12.0,0.0
11218,50.0,29,50,13.0,0.0
11219,62.0,2,50,10.0,0.0
11220,78.0,19,30,0.0,0.0
11221,57.0,3,50,11.0,0.0
11222,54.0,7,50,12.0,0.0
11223,50.0,29,50,13.0,0.0
11224,62.0,2,50,10.0,0.0
11225,72.0,19,30,0.0,0.0
11226,57.0,3,50,11.0,0.0
11227,54.0,7,50,12.0,0.0
11228,50.0,48,50,13.0,0.0
11229,62.0,1,50,10.0,0.0
11230,74.0,1,50,0.0,0.0
11231,59.0,3,50,11.0,0.0
11232,55.0,7,50,12.0,0.0
11233,55.0,48,50,13.0,0.0
11234,55.0,46,470,3.0,0.0
11235,72.0,1,70,0.0,0.0
11236,67.0,2,50,10.0,0.0
11237,62.0,0,50,11.0,0.0
11238,59.0,3,50,11.0,0.0
11239,55.0,6,50,12.0,0.0
11240,55.0,48,50,13.0,0.0
11241,67.0,2,50,10.0,0.0
11242,71.0,1,120,0.0,0.0
11243,59.0,0,50,11.0,0.0
11244,62.0,3,50,11.0,0.0
11245,55.0,7,50,12.0,0.0
11246,55.0,48,50,13.0,0.0
11247,67.0,2,50,10.0,0.0
11248,62.0,3,50,11.0,0.0
11249,59.0,0,50,11.0,0.0
11250,55.0,6,50,12.0,0.0
11251,55.0,48,50,13.0,0.0
11252,67.0,2,50,10.0,0.0
11253,59.0,0,50,11.0,0.0
11254,62.0,3,50,11.0,0.0
11255,55.0,7,50,12.0,0.0
11256,55.0,48,50,13.0,0.0
11257,67.0,2,50,10.0,0.0
11258,79.0,1,60,0.0,0.0
11259,59.0,0,50,11.0,0.0
11260,62.0,3,50,11.0,0.0
11261,55.0,6,50,12.0,0.0
11262,55.0,48,50,13.0,0.0
11263,67.0,2,50,10.0,0.0
11264,91.0,1,60,0.0,0.0
11265,59.0,0,50,11.0,0.0
11266,62.0,3,50,11.0,0.0
11267,55.0,6,50,12.0,0.0
11268,55.0,48,50,13.0,0.0
11269,67.0,1,50,10.0,0.0
11270,90.0,1,50,0.0,0.0
11271,62.0,0,50,11.0,0.0
11272,59.0,3,50,11.0,0.0
11273,55.0,7,50,12.0,0.0
11274,55.0,2,50,13.0,0.0
11275,67.0,2,50,10.0,0.0
11276,90.0,1,60,0.0,0.0
11277,60.0,3,50,11.0,0.0
11278,64.0,0,50,11.0,0.0
11279,55.0,6,50,12.0,0.0
11280,48.0,48,50,13.0,0.0
11281,48.0,27,350,3.0,0.0
11282,67.0,1,50,10.0,0.0
11283,88.0,1,50,0.0,0.0
11284,64.0,0,50,11.0,0.0
11285,60.0,3,50,11.0,0.0
11286,55.0,7,50,12.0,0.0
11287,48.0,29,50,13.0,0.0
11288,67.0,2,50,10.0,0.0
11289,88.0,19,30,0.0,0.0
11290,60.0,0,50,11.0,0.0
11291,64.0,3,50,11.0,0.0
11292,55.0,7,50,12.0,0.0
11293,48.0,29,50,13.0,0.0
11294,67.0,2,50,10.0,0.0
11295,88.0,19,30,0.0,0.0
11296,60.0,3,50,11.0,0.0
11297,64.0,0,50,11.0,0.0
11298,55.0,7,50,12.0,0.0
11299,48.0,48,50,13.0,0.0
11300,67.0,2,50,10.0,0.0
11301,88.0,1,60,0.0,0.0
11302,60.0,3,50,11.0,0.0
11303,64.0,0,50,11.0,0.0
11304,55.0,6,50,12.0,0.0
11305,48.0,48,50,13.0,0.0
11306,67.0,1,50,10.0,0.0
11307,87.0,1,50,0.0,0.0
11308,60.0,3,50,11.0,0.0
11309,64.0,0,50,11.0,0.0
11310,55.0,7,50,12.0,0.0
11311,48.0,2,50,13.0,0.0
11312,67.0,2,50,10.0,0.0
11313,90.0,19,30,0.0,0.0
11314,60.0,0,50,11.0,0.0
11315,64.0,3,50,11.0,0.0
11316,55.0,7,50,12.0,0.0
11317,52.0,29,50,13.0,0.0
11318,52.0,46,110,3.0,0.0
11319,67.0,2,50,10.0,0.0
11320,88.0,19,30,0.0,0.0
11321,64.0,3,50,11.0,0.0
11322,60.0,0,50,11.0,0.0
11323,55.0,7,50,12.0,0.0
11324,52.0,2,50,13.0,0.0
11325,67.0,2,50,10.0,0.0
11326,88.0,1,60,0.0,0.0
11327,59.0,3,50,11.0,0.0
11328,62.0,0,50,11.0,0.0
11329,55.0,6,50,12.0,0.0
11330,55.0,48,50,13.0,0.0
11331,55.0,46,470,3.0,0.0
11332,67.0,1,50,10.0,0.0
11333,86.0,1,50,0.0,0.0
11334,62.0,0,50,11.0,0.0
11335,59.0,3,50,11.0,0.0
11336,55.0,7,50,12.0,0.0
11337,55.0,29,50,13.0,0.0
11338,67.0,2,50,10.0,0.0
11339,84.0,19,30,0.0,0.0
11340,59.0,3,50,11.0,0.0
11341,62.0,0,50,11.0,0.0
11342,55.0,7,50,12.0,0.0
11343,55.0,29,50,13.0,0.0
11344,67.0,2,50,10.0,0.0
11345,83.0,19,30,0.0,0.0
11346,59.0,3,50,11.0,0.0
11347,62.0,0,50,11.0,0.0
11348,55.0,7,50,12.0,0.0
11349,55.0,29,50,13.0,0.0
11350,67.0,2,50,10.0,0.0
11351,81.0,19,30,0.0,0.0
11352,62.0,3,50,11.0,0.0
11353,59.0,0,50,11.0,0.0
11354,55.0,7,50,12.0,0.0
11355,55.0,48,50,13.0,0.0
11356,67.0,2,50,10.0,0.0
11357,79.0,1,60,0.0,0.0
11358,59.0,0,50,11.0,0.0
11359,62.0,3,50,11.0,0.0
11360,55.0,6,50,12.0,0.0
11361,55.0,48,50,13.0,0.0
11362,67.0,2,50,10.0,0.0
11363,91.0,1,60,0.0,0.0
11364,59.0,3,50,11.0,0.0
11365,62.0,0,50,11.0,0.0
11366,55.0,6,50,12.0,0.0
11367,55.0,48,50,13.0,0.0
11368,67.0,1,50,10.0,0.0
11369,90.0,1,50,0.0,0.0
11370,59.0,0,50,11.0,0.0
11371,62.0,3,50,11.0,0.0
11372,55.0,7,50,12.0,0.0
11373,55.0,2,50,13.0,0.0
11374,67.0,2,50,10.0,0.0
11375,90.0,1,60,0.0,0.0
11376,60.0,3,50,11.0,0.0
11377,64.0,0,50,11.0,0.0
11378,55.0,6,50,12.0,0.0
11379,48.0,48,50,13.0,0.0
11380,48.0,27,350,3.0,0.0
11381,67.0,1,50,10.0,0.0
11382,88.0,1,50,0.0,0.0
11383,60.0,3,50,11.0,0.0
11384,64.0,0,50,11.0,0.0
11385,55.0,7,50,12.0,0.0
11386,48.0,29,50,13.0,0.0
11387,67.0,2,50,10.0,0.0
11388,88.0,19,30,0.0,0.0
11389,60.0,3,50,11.0,0.0
11390,64.0,0,50,11.0,0.0
11391,55.0,7,50,12.0,0.0
11392,48.0,29,50,13.0,0.0
11393,67.0,2,50,10.0,0.0
11394,88.0,19,30,0.0,0.0
11395,60.0,3,50,11.0,0.0
11396,64.0,0,50,11.0,0.0
11397,55.0,7,50,12.0,0.0
11398,48.0,48,50,13.0,0.0
11399,67.0,2,50,10.0,0.0
11400,88.0,1,60,0.0,0.0
11401,60.0,3,50,11.0,0.0
11402,64.0,0,50,11.0,0.0
11403,55.0,6,50,12.0,0.0
11404,48.0,48,50,13.0,0.0
11405,67.0,1,50,10.0,0.0
11406,87.0,1,50,0.0,0.0
11407,64.0,3,50,11.0,0.0
11408,60.0,0,50,11.0,0.0
11409,55.0,7,50,12.0,0.0
11410,48.0,2,50,13.0,0.0
11411,67.0,2,50,10.0,0.0
11412,90.0,19,30,0.0,0.0
11413,64.0,0,50,11.0,0.0
11414,60.0,3,50,11.0,0.0
11415,55.0,7,50,12.0,0.0
11416,52.0,29,50,13.0,0.0
11417,52.0,46,110,3.0,0.0
11418,67.0,2,50,10.0,0.0
11419,88.0,19,30,0.0,0.0
11420,60.0,3,50,11.0,0.0
11421,64.0,0,50,11.0,0.0
11422,55.0,7,50,12.0,0.0
11423,52.0,2,50,13.0,0.0
11424,67.0,2,50,10.0,0.0
11425,86.0,29,80,0.0,0.0
11426,59.0,3,50,11.0,0.0
11427,62.0,0,50,11.0,0.0
11428,55.0,7,50,12.0,0.0
11429,55.0,19,50,13.0,0.0
11430,55.0,27,110,3.0,0.0
11431,67.0,2,50,10.0,0.0
11432,62.0,0,50,11.0,0.0
11433,59.0,3,50,11.0,0.0
11434,59.0,7,50,12.0,0.0
11435,55.0,2,50,13.0,0.0
11436,91.0,19,70,0.0,0.0
11437,67.0,2,50,10.0,0.0
11438,62.0,3,50,11.0,0.0
11439,59.0,0,50,11.0,0.0
11440,59.0,7,50,12.0,0.0
11441,55.0,19,50,13.0,0.0
11442,55.0,36,120,3.0,0.0
11443,83.0,29,40,0.0,0.0
11444,67.0,2,50,10.0,0.0
11445,62.0,3,50,11.0,0.0
11446,59.0,0,50,11.0,0.0
11447,59.0,7,50,12.0,0.0
11448,55.0,12,50,13.0,0.0
11449,69.0,2,50,10.0,0.0
11450,83.0,29,80,0.0,0.0
11451,64.0,3,50,11.0,0.0
11452,60.0,7,50,12.0,0.0
11453,60.0,19,50,13.0,0.0
11454,69.0,2,50,10.0,0.0
11455,64.0,3,50,11.0,0.0
11456,60.0,7,50,12.0,0.0
11457,60.0,29,50,13.0,0.0
11458,81.0,19,70,0.0,0.0
11459,69.0,2,50,10.0,0.0
11460,64.0,3,50,11.0,0.0
11461,60.0,7,50,12.0,0.0
11462,60.0,19,50,13.0,0.0
11463,60.0,36,120,3.0,0.0
11464,88.0,29,40,0.0,0.0
11465,69.0,2,50,10.0,0.0
11466,64.0,3,50,11.0,0.0
11467,60.0,7,50,12.0,0.0
11468,60.0,12,50,13.0,0.0
11469,71.0,2,50,10.0,0.0
11470,88.0,29,80,0.0,0.0
11471,67.0,3,50,11.0,0.0
11472,62.0,7,50,12.0,0.0
11473,62.0,19,50,13.0,0.0
11474,71.0,2,50,10.0,0.0
11475,67.0,3,50,11.0,0.0
11476,62.0,7,50,12.0,0.0
11477,62.0,29,50,13.0,0.0
11478,79.0,19,70,0.0,0.0
11479,71.0,2,50,10.0,0.0
11480,67.0,3,50,11.0,0.0
11481,62.0,7,50,12.0,0.0
11482,62.0,19,50,13.0,0.0
11483,62.0,36,120,3.0,0.0
11484,86.0,29,40,0.0,0.0
11485,71.0,2,50,10.0,0.0
11486,67.0,3,50,11.0,0.0
11487,62.0,7,50,12.0,0.0
11488,62.0,12,50,13.0,0.0
11489,69.0,2,50,10.0,0.0
11490,86.0,29,80,0.0,0.0
11491,62.0,3,50,11.0,0.0
11492,60.0,7,50,12.0,0.0
11493,60.0,19,50,13.0,0.0
11494,69.0,2,50,10.0,0.0
11495,62.0,3,50,11.0,0.0
11496,60.0,7,50,12.0,0.0
11497,60.0,29,50,13.0,0.0
11498,78.0,19,70,0.0,0.0
11499,69.0,2,50,10.0,0.0
11500,62.0,3,50,11.0,0.0
11501,60.0,7,50,12.0,0.0
11502,60.0,19,50,13.0,0.0
11503,60.0,36,120,3.0,0.0
11504,86.0,29,40,0.0,0.0
11505,69.0,2,50,10.0,0.0
11506,62.0,3,50,11.0,0.0
11507,60.0,7,50,12.0,0.0
11508,60.0,12,50,13.0,0.0
11509,67.0,2,50,10.0,0.0
11510,86.0,29,80,0.0,0.0
11511,62.0,3,50,11.0,0.0
11512,59.0,7,50,12.0,0.0
11513,59.0,19,50,13.0,0.0
11514,74.0,2,50,10.0,0.0
11515,67.0,3,50,11.0,0.0
11516,71.0,7,50,12.0,0.0
11517,59.0,29,50,13.0,0.0
11518,83.0,19,70,0.0,0.0
11519,74.0,2,50,10.0,0.0
11520,67.0,3,50,11.0,0.0
11521,71.0,7,50,12.0,0.0
11522,59.0,19,50,13.0,0.0
11523,59.0,36,120,3.0,0.0
11524,91.0,29,40,0.0,0.0
11525,74.0,2,50,10.0,0.0
11526,67.0,3,50,11.0,0.0
11527,71.0,7,50,12.0,0.0
11528,59.0,12,50,13.0,0.0
11529,76.0,2,50,10.0,0.0
11530,91.0,29,80,0.0,0.0
11531,67.0,3,50,11.0,0.0
11532,69.0,7,50,12.0,0.0
11533,60.0,19,50,13.0,0.0
11534,76.0,2,50,10.0,0.0
11535,67.0,3,50,11.0,0.0
11536,69.0,7,50,12.0,0.0
11537,60.0,29,50,13.0,0.0
11538,81.0,19,70,0.0,0.0
11539,76.0,2,50,10.0,0.0
11540,67.0,3,50,11.0,0.0
11541,69.0,7,50,12.0,0.0
11542,60.0,19,50,13.0,0.0
11543,60.0,36,120,3.0,0.0
11544,88.0,29,40,0.0,0.0
11545,76.0,2,50,10.0,0.0
11546,67.0,3,50,11.0,0.0
11547,69.0,7,50,12.0,0.0
11548,60.0,12,50,13.0,0.0
11549,74.0,2,50,10.0,0.0
11550,88.0,29,80,0.0,0.0
11551,67.0,3,50,11.0,0.0
11552,71.0,7,50,12.0,0.0
11553,62.0,19,50,13.0,0.0
11554,74.0,2,50,10.0,0.0
11555,67.0,3,50,11.0,0.0
11556,71.0,7,50,12.0,0.0
11557,62.0,29,50,13.0,0.0
11558,79.0,19,70,0.0,0.0
11559,74.0,2,50,10.0,0.0
11560,67.0,3,50,11.0,0.0
11561,71.0,7,50,12.0,0.0
11562,62.0,19,50,13.0,0.0
11563,62.0,36,120,3.0,0.0
11564,86.0,29,40,0.0,0.0
11565,74.0,2,50,10.0,0.0
11566,67.0,3,50,11.0,0.0
11567,71.0,7,50,12.0,0.0
11568,62.0,12,50,13.0,0.0
11569,74.0,2,50,10.0,0.0
11570,86.0,29,80,0.0,0.0
11571,66.0,3,50,11.0,0.0
11572,69.0,7,50,12.0,0.0
11573,60.0,19,50,13.0,0.0
11574,74.0,2,50,10.0,0.0
11575,66.0,3,50,11.0,0.0
11576,69.0,7,50,12.0,0.0
11577,60.0,29,50,13.0,0.0
11578,78.0,19,70,0.0,0.0
11579,74.0,2,50,10.0,0.0
11580,66.0,3,50,11.0,0.0
11581,69.0,7,50,12.0,0.0
11582,60.0,19,50,13.0,0.0
11583,60.0,36,120,3.0,0.0
11584,86.0,29,40,0.0,0.0
11585,74.0,2,50,10.0,0.0
11586,66.0,3,50,11.0,0.0
11587,69.0,7,50,12.0,0.0
11588,60.0,12,50,13.0,0.0
11589,74.0,2,50,10.0,0.0
11590,86.0,1,60,0.0,0.0
11591,67.0,3,50,11.0,0.0
11592,71.0,6,50,12.0,0.0
11593,59.0,48,50,13.0,0.0
11594,74.0,1,50,10.0,0.0
11595,83.0,1,50,0.0,0.0
11596,67.0,3,50,11.0,0.0
11597,71.0,7,50,12.0,0.0
11598,59.0,29,50,13.0,0.0
11599,74.0,2,50,10.0,0.0
11600,91.0,19,30,0.0,0.0
11601,67.0,3,50,11.0,0.0
11602,71.0,7,50,12.0,0.0
11603,59.0,29,50,13.0,0.0
11604,59.0,36,120,3.0,0.0
11605,74.0,2,50,10.0,0.0
11606,91.0,19,30,0.0,0.0
11607,67.0,3,50,11.0,0.0
11608,71.0,7,50,12.0,0.0
11609,59.0,12,50,13.0,0.0
11610,76.0,2,50,10.0,0.0
11611,91.0,1,60,0.0,0.0
11612,67.0,3,50,11.0,0.0
11613,69.0,6,50,12.0,0.0
11614,60.0,48,50,13.0,0.0
11615,76.0,1,50,10.0,0.0
11616,81.0,1,50,0.0,0.0
11617,67.0,3,50,11.0,0.0
11618,69.0,7,50,12.0,0.0
11619,60.0,29,50,13.0,0.0
11620,76.0,2,50,10.0,0.0
11621,88.0,19,30,0.0,0.0
11622,67.0,3,50,11.0,0.0
11623,69.0,7,50,12.0,0.0
11624,60.0,29,50,13.0,0.0
11625,60.0,36,120,3.0,0.0
11626,76.0,2,50,10.0,0.0
11627,88.0,19,30,0.0,0.0
11628,67.0,3,50,11.0,0.0
11629,69.0,7,50,12.0,0.0
11630,60.0,12,50,13.0,0.0
11631,74.0,2,50,10.0,0.0
11632,88.0,1,60,0.0,0.0
11633,67.0,3,50,11.0,0.0
11634,71.0,6,50,12.0,0.0
11635,62.0,48,50,13.0,0.0
11636,74.0,1,50,10.0,0.0
11637,79.0,1,50,0.0,0.0
11638,67.0,3,50,11.0,0.0
11639,71.0,7,50,12.0,0.0
11640,62.0,29,50,13.0,0.0
11641,74.0,2,50,10.0,0.0
11642,86.0,19,30,0.0,0.0
11643,67.0,3,50,11.0,0.0
11644,71.0,7,50,12.0,0.0
11645,62.0,29,50,13.0,0.0
11646,62.0,36,120,3.0,0.0
11647,74.0,2,50,10.0,0.0
11648,86.0,19,30,0.0,0.0
11649,67.0,3,50,11.0,0.0
11650,71.0,7,50,12.0,0.0
11651,62.0,12,50,13.0,0.0
11652,74.0,2,50,10.0,0.0
11653,86.0,1,60,0.0,0.0
11654,66.0,3,50,11.0,0.0
11655,69.0,6,50,12.0,0.0
11656,62.0,48,50,13.0,0.0
11657,74.0,1,50,10.0,0.0
11658,78.0,1,50,0.0,0.0
11659,66.0,3,50,11.0,0.0
11660,69.0,7,50,12.0,0.0
11661,62.0,29,50,13.0,0.0
11662,74.0,2,50,10.0,0.0
11663,86.0,19,30,0.0,0.0
11664,66.0,3,50,11.0,0.0
11665,69.0,7,50,12.0,0.0
11666,62.0,29,50,13.0,0.0
11667,62.0,118,120,3.0,0.0
11668,74.0,2,50,10.0,0.0
11669,86.0,19,30,0.0,0.0
11670,66.0,3,50,11.0,0.0
11671,69.0,7,50,12.0,0.0
11672,62.0,12,50,13.0,0.0
11673,86.0,3,3960,0.0,0.0
11674,62.0,2,3960,4.0,0.0
11675,74.0,1,3960,2.0,0.0
11676,50.0,3,120,13.0,0.0
11677,50.0,51,3960,3.0,0.0
11678,62.0,0,3960,3.0,0.0
11679,38.0,237,120,14.0,0.0
11680,53.0,3,240,13.0,0.0
11681,41.0,117,240,14.0,0.0
11682,59.0,3,120,13.0,0.0
11683,47.0,117,120,14.0,0.0
11684,53.0,3,120,13.0,0.0
11685,41.0,237,120,14.0,0.0
11686,59.0,3,240,13.0,0.0
11687,47.0,117,240,14.0,0.0
11688,62.0,3,120,13.0,0.0
11689,50.0,117,120,14.0,0.0
11690,53.0,3,120,13.0,0.0
11691,41.0,237,120,14.0,0.0
11692,59.0,3,240,13.0,0.0
11693,47.0,117,240,14.0,0.0
11694,62.0,3,120,13.0,0.0
11695,50.0,117,120,14.0,0.0
11696,59.0,3,120,13.0,0.0
11697,47.0,237,120,14.0,0.0
11698,62.0,3,240,13.0,0.0
11699,50.0,107,240,14.0,0.0
11700,65.0,3,110,13.0,0.0
11701,53.0,115,110,14.0,0.0
11702,62.0,5,120,10.0,0.0
11703,50.0,7,120,12.0,0.0
11704,65.0,3,120,13.0,0.0
11705,53.0,225,120,14.0,0.0
11706,65.0,5,240,10.0,0.0
11707,53.0,7,240,12.0,0.0
11708,62.0,3,240,13.0,0.0
11709,50.0,105,240,14.0,0.0
11710,71.0,5,120,10.0,0.0
11711,59.0,7,120,12.0,0.0
11712,59.0,3,120,13.0,0.0
11713,47.0,105,120,14.0,0.0
11714,65.0,5,120,10.0,0.0
11715,53.0,7,120,12.0,0.0
11716,62.0,3,120,13.0,0.0
11717,50.0,225,120,14.0,0.0
11718,71.0,5,240,10.0,0.0
11719,59.0,7,240,12.0,0.0
11720,59.0,3,240,13.0,0.0
11721,47.0,105,240,14.0,0.0
11722,74.0,5,120,10.0,0.0
11723,62.0,7,120,12.0,0.0
11724,53.0,3,120,13.0,0.0
11725,41.0,105,120,14.0,0.0
11726,65.0,5,120,10.0,0.0
11727,53.0,7,120,12.0,0.0
11728,62.0,3,120,13.0,0.0
11729,50.0,225,120,14.0,0.0
11730,71.0,2,240,10.0,0.0
11731,59.0,3,240,11.0,0.0
11732,59.0,7,240,12.0,0.0
11733,59.0,3,240,13.0,0.0
11734,47.0,105,240,14.0,0.0
11735,74.0,2,120,10.0,0.0
11736,62.0,3,120,11.0,0.0
11737,62.0,7,120,12.0,0.0
11738,53.0,3,120,13.0,0.0
11739,41.0,105,120,14.0,0.0
11740,71.0,2,120,10.0,0.0
11741,59.0,3,120,11.0,0.0
11742,59.0,7,120,12.0,0.0
11743,59.0,3,120,13.0,0.0
11744,47.0,225,120,14.0,0.0
11745,74.0,2,240,10.0,0.0
11746,62.0,3,240,11.0,0.0
11747,62.0,7,240,12.0,0.0
11748,53.0,3,240,13.0,0.0
11749,41.0,95,240,14.0,0.0
11750,77.0,2,110,10.0,0.0
11751,65.0,3,110,11.0,0.0
11752,65.0,120,110,12.0,0.0
11753,50.0,3,235,13.0,0.0
11754,38.0,4,235,14.0,0.0
11755,74.0,2,320,10.0,0.0
11756,62.0,98,320,11.0,0.0
11757,50.0,6,110,12.0,0.0
11758,50.0,7,60,12.0,0.0
11759,50.0,3,60,13.0,0.0
11760,38.0,125,60,14.0,0.0
11761,50.0,7,350,12.0,0.0
11762,50.0,3,350,13.0,0.0
11763,38.0,60,350,14.0,0.0
11764,74.0,2,60,10.0,0.0
11765,62.0,173,60,11.0,0.0
11766,75.0,2,320,10.0,0.0
11767,63.0,98,320,11.0,0.0
11768,51.0,7,60,12.0,0.0
11769,51.0,3,60,13.0,0.0
11770,39.0,125,60,14.0,0.0
11771,51.0,7,350,12.0,0.0
11772,51.0,3,350,13.0,0.0
11773,39.0,60,350,14.0,0.0
11774,75.0,2,60,10.0,0.0
11775,63.0,173,60,11.0,0.0
11776,76.0,2,320,10.0,0.0
11777,64.0,98,320,11.0,0.0
11778,52.0,7,60,12.0,0.0
11779,52.0,3,60,13.0,0.0
11780,40.0,125,60,14.0,0.0
11781,52.0,7,350,12.0,0.0
11782,52.0,3,350,13.0,0.0
11783,40.0,60,350,14.0,0.0
11784,76.0,2,60,10.0,0.0
11785,64.0,173,60,11.0,0.0
11786,77.0,2,320,10.0,0.0
11787,65.0,98,320,11.0,0.0
11788,53.0,7,60,12.0,0.0
11789,53.0,3,60,13.0,0.0
11790,41.0,125,60,14.0,0.0
11791,53.0,7,350,12.0,0.0
11792,53.0,3,350,13.0,0.0
11793,41.0,175,350,14.0,0.0
11794,77.0,2,60,10.0,0.0
11795,65.0,118,60,11.0,0.0
11796,78.0,2,60,10.0,0.0
11797,66.0,53,60,11.0,0.0
11798,54.0,7,230,12.0,0.0
11799,54.0,3,230,13.0,0.0
11800,42.0,175,230,14.0,0.0
11801,79.0,2,60,10.0,0.0
11802,67.0,53,60,11.0,0.0
11803,55.0,7,230,12.0,0.0
11804,55.0,3,230,13.0,0.0
11805,43.0,175,230,14.0,0.0
11806,80.0,2,60,10.0,0.0
11807,68.0,53,60,11.0,0.0
11808,56.0,7,230,12.0,0.0
11809,56.0,3,230,13.0,0.0
11810,44.0,175,230,14.0,0.0
11811,81.0,2,60,10.0,0.0
11812,69.0,53,60,11.0,0.0
11813,57.0,7,230,12.0,0.0
11814,57.0,3,230,13.0,0.0
11815,45.0,175,230,14.0,0.0
11816,82.0,2,60,10.0,0.0
11817,70.0,53,60,11.0,0.0
11818,58.0,7,230,12.0,0.0
11819,58.0,3,230,13.0,0.0
11820,46.0,175,230,14.0,0.0
11821,83.0,2,60,10.0,0.0
11822,71.0,53,60,11.0,0.0
11823,59.0,7,230,12.0,0.0
11824,59.0,3,230,13.0,0.0
11825,47.0,175,230,14.0,0.0
11826,84.0,2,60,10.0,0.0
11827,72.0,53,60,11.0,0.0
11828,60.0,7,230,12.0,0.0
11829,60.0,3,230,13.0,0.0
11830,48.0,175,230,14.0,0.0
11831,85.0,2,60,10.0,0.0
11832,73.0,53,60,11.0,0.0
11833,61.0,7,230,12.0,0.0
11834,61.0,3,230,13.0,0.0
11835,49.0,175,230,14.0,0.0
11836,86.0,2,60,10.0,0.0
11837,74.0,53,60,11.0,0.0
11838,62.0,7,230,12.0,0.0
11839,62.0,3,230,13.0,0.0
11840,50.0,175,230,14.0,0.0
11841,87.0,2,60,10.0,0.0
11842,75.0,53,60,11.0,0.0
11843,63.0,7,230,12.0,0.0
11844,63.0,3,230,13.0,0.0
11845,51.0,175,230,14.0,0.0
11846,88.0,2,60,10.0,0.0
11847,76.0,53,60,11.0,0.0
11848,64.0,7,230,12.0,0.0
11849,64.0,3,230,13.0,0.0
11850,52.0,175,230,14.0,0.0
11851,89.0,2,60,10.0,0.0
11852,77.0,53,60,11.0,0.0
11853,65.0,7,230,12.0,0.0
11854,65.0,3,230,13.0,0.0
11855,53.0,175,230,14.0,0.0
11856,90.0,2,60,10.0,0.0
11857,78.0,53,60,11.0,0.0
11858,66.0,6,230,12.0,0.0
11859,66.0,1,230,13.0,0.0
11860,54.0,1,230,3.0,0.0
11861,66.0,0,230,3.0,0.0
11862,54.0,1,230,14.0,0.0
11863,91.0,2,60,10.0,0.0
11864,91.0,1,120,0.0,0.0
11865,79.0,53,60,11.0,0.0
11866,55.0,0,120,6.0,0.0
11867,67.0,1,120,6.0,0.0
11868,43.0,0,120,4.0,0.0
11869,55.0,0,120,4.0,0.0
11870,79.0,0,120,1.0,0.0
11871,67.0,0,120,5.0,0.0
11872,55.0,0,120,5.0,0.0
11873,67.0,2,120,2.0,0.0
11874,79.0,0,120,2.0,0.0
11875,43.0,172,120,15.0,0.0
11876,67.0,6,230,12.0,0.0
11877,67.0,1,230,13.0,0.0
11878,55.0,0,230,3.0,0.0
11879,67.0,1,230,3.0,0.0
11880,55.0,1,230,14.0,0.0
11881,89.0,2,60,10.0,0.0
11882,91.0,1,120,0.0,0.0
11883,77.0,53,60,11.0,0.0
11884,55.0,0,120,6.0,0.0
11885,67.0,1,120,6.0,0.0
11886,77.0,0,120,1.0,0.0
11887,55.0,0,120,4.0,0.0
11888,43.0,0,120,4.0,0.0
11889,55.0,0,120,5.0,0.0
11890,67.0,0,120,5.0,0.0
11891,77.0,2,120,2.0,0.0
11892,43.0,172,120,15.0,0.0
11893,65.0,6,230,12.0,0.0
11894,65.0,1,230,13.0,0.0
11895,65.0,0,230,3.0,0.0
11896,53.0,0,230,3.0,0.0
11897,53.0,1,230,14.0,0.0
11898,86.0,2,60,10.0,0.0
11899,91.0,1,120,0.0,0.0
11900,74.0,53,60,11.0,0.0
11901,67.0,1,120,6.0,0.0
11902,55.0,0,120,6.0,0.0
11903,74.0,0,120,1.0,0.0
11904,43.0,0,120,4.0,0.0
11905,86.0,1,120,1.0,0.0
11906,55.0,0,120,4.0,0.0
11907,55.0,0,120,5.0,0.0
11908,67.0,0,120,5.0,0.0
11909,74.0,2,120,2.0,0.0
11910,43.0,172,120,15.0,0.0
11911,62.0,6,230,12.0,0.0
11912,62.0,1,230,13.0,0.0
11913,62.0,0,230,3.0,0.0
11914,50.0,0,230,3.0,0.0
11915,50.0,1,230,14.0,0.0
11916,83.0,2,60,10.0,0.0
11917,91.0,1,120,0.0,0.0
11918,71.0,53,60,11.0,0.0
11919,55.0,0,120,6.0,0.0
11920,67.0,1,120,6.0,0.0
11921,83.0,0,120,1.0,0.0
11922,55.0,0,120,4.0,0.0
11923,71.0,0,120,1.0,0.0
11924,43.0,1,120,4.0,0.0
11925,71.0,0,120,2.0,0.0
11926,67.0,0,120,5.0,0.0
11927,55.0,2,120,5.0,0.0
11928,43.0,172,120,15.0,0.0
11929,59.0,6,230,12.0,0.0
11930,59.0,1,230,13.0,0.0
11931,47.0,0,230,3.0,0.0
11932,59.0,0,230,3.0,0.0
11933,47.0,1,230,14.0,0.0
11934,79.0,2,60,10.0,0.0
11935,91.0,1,120,0.0,0.0
11936,67.0,53,60,11.0,0.0
11937,55.0,0,120,6.0,0.0
11938,67.0,1,120,6.0,0.0
11939,55.0,0,120,4.0,0.0
11940,43.0,0,120,4.0,0.0
11941,79.0,0,120,1.0,0.0
11942,67.0,1,120,1.0,0.0
11943,55.0,2,120,5.0,0.0
11944,67.0,0,120,5.0,0.0
11945,67.0,0,120,2.0,0.0
11946,43.0,172,120,15.0,0.0
11947,67.0,6,230,12.0,0.0
11948,55.0,1,230,13.0,0.0
11949,67.0,0,230,3.0,0.0
11950,55.0,0,230,3.0,0.0
11951,43.0,1,230,14.0,0.0
11952,77.0,2,60,10.0,0.0
11953,91.0,1,120,0.0,0.0
11954,65.0,53,60,11.0,0.0
11955,55.0,0,120,6.0,0.0
11956,67.0,1,120,6.0,0.0
11957,55.0,0,120,4.0,0.0
11958,43.0,0,120,4.0,0.0
11959,65.0,1,120,1.0,0.0
11960,77.0,0,120,1.0,0.0
11961,67.0,0,120,5.0,0.0
11962,65.0,2,120,2.0,0.0
11963,55.0,0,120,5.0,0.0
11964,43.0,172,120,15.0,0.0
11965,65.0,6,230,12.0,0.0
11966,53.0,1,230,13.0,0.0
11967,53.0,1,230,3.0,0.0
11968,65.0,0,230,3.0,0.0
11969,41.0,1,230,14.0,0.0
11970,74.0,2,60,10.0,0.0
11971,91.0,1,120,0.0,0.0
11972,62.0,53,60,11.0,0.0
11973,55.0,0,120,6.0,0.0
11974,67.0,1,120,6.0,0.0
11975,55.0,0,120,4.0,0.0
11976,43.0,0,120,4.0,0.0
11977,74.0,0,120,1.0,0.0
11978,67.0,0,120,5.0,0.0
11979,55.0,2,120,5.0,0.0
11980,62.0,0,120,2.0,0.0
11981,43.0,172,120,15.0,0.0
11982,62.0,7,230,12.0,0.0
11983,50.0,2,230,13.0,0.0
11984,62.0,0,230,3.0,0.0
11985,50.0,0,230,3.0,0.0
11986,38.0,1,230,14.0,0.0
11987,71.0,2,60,10.0,0.0
11988,91.0,1,1920,0.0,0.0
11989,59.0,6,60,11.0,0.0
11990,55.0,0,1920,6.0,0.0
11991,67.0,1,1920,6.0,0.0
11992,67.0,0,1920,7.0,0.0
11993,55.0,0,1920,4.0,0.0
11994,43.0,0,1920,4.0,0.0
11995,71.0,1,120,1.0,0.0
11996,67.0,1,1920,5.0,0.0
11997,55.0,0,1920,5.0,0.0
11998,59.0,2,120,2.0,0.0
11999,55.0,1,1920,7.0,0.0
12000,43.0,47,60,15.0,0.0
12001,43.0,37,1920,8.0,0.0
12002,59.0,7,230,12.0,0.0
12003,43.0,60,0,15.0,0.0
12004,47.0,2,230,13.0,0.0
12005,47.0,0,230,3.0,0.0
12006,59.0,1,230,3.0,0.0
12007,35.0,1,230,14.0,0.0
12008,43.0,52,60,15.0,0.0
12009,69.0,2,60,10.0,0.0
12010,57.0,6,60,11.0,0.0
12011,69.0,0,120,1.0,0.0
12012,57.0,2,120,2.0,0.0
12013,69.0,0,120,2.0,0.0
12014,43.0,47,0,15.0,0.0
12015,57.0,7,230,12.0,0.0
12016,43.0,60,0,15.0,0.0
12017,45.0,2,230,13.0,0.0
12018,45.0,1,230,3.0,0.0
12019,57.0,0,230,3.0,0.0
12020,33.0,1,230,14.0,0.0
12021,43.0,60,0,15.0,0.0
12022,67.0,2,60,10.0,0.0
12023,55.0,6,60,11.0,0.0
12024,67.0,0,120,1.0,0.0
12025,67.0,2,120,2.0,0.0
12026,55.0,0,120,2.0,0.0
12027,43.0,47,60,15.0,0.0
12028,43.0,60,60,15.0,0.0
12029,55.0,7,230,12.0,0.0
12030,43.0,60,60,15.0,0.0
12031,43.0,2,230,13.0,0.0
12032,55.0,0,230,3.0,0.0
12033,43.0,0,230,3.0,0.0
12034,31.0,1,230,14.0,0.0
12035,66.0,2,60,10.0,0.0
12036,66.0,6,60,11.0,0.0
12037,66.0,1,120,1.0,0.0
12038,66.0,2,120,2.0,0.0
12039,54.0,0,120,2.0,0.0
12040,43.0,52,0,15.0,0.0
12041,43.0,47,0,15.0,0.0
12042,54.0,7,230,12.0,0.0
12043,43.0,60,0,15.0,0.0
12044,42.0,2,230,13.0,0.0
12045,42.0,0,230,3.0,0.0
12046,54.0,0,230,3.0,0.0
12047,30.0,1,230,14.0,0.0
12048,43.0,52,60,15.0,0.0
12049,67.0,2,60,10.0,0.0
12050,67.0,6,60,11.0,0.0
12051,67.0,1,120,1.0,0.0
12052,55.0,0,120,2.0,0.0
12053,67.0,2,120,2.0,0.0
12054,43.0,47,0,15.0,0.0
12055,55.0,7,230,12.0,0.0
12056,43.0,60,60,15.0,0.0
12057,43.0,2,230,13.0,0.0
12058,55.0,0,230,3.0,0.0
12059,43.0,0,230,3.0,0.0
12060,31.0,1,230,14.0,0.0
12061,43.0,52,60,15.0,0.0
12062,79.0,2,60,10.0,0.0
12063,79.0,6,60,11.0,0.0
12064,79.0,1,120,1.0,0.0
12065,67.0,2,120,2.0,0.0
12066,43.0,47,60,15.0,0.0
12067,43.0,60,60,15.0,0.0
12068,53.0,7,230,12.0,0.0
12069,41.0,2,230,13.0,0.0
12070,53.0,1,230,3.0,0.0
12071,41.0,0,230,3.0,0.0
12072,29.0,1,230,14.0,0.0
12073,43.0,60,0,15.0,0.0
12074,81.0,2,60,10.0,0.0
12075,81.0,6,60,11.0,0.0
12076,81.0,0,120,1.0,0.0
12077,69.0,2,120,2.0,0.0
12078,43.0,47,0,15.0,0.0
12079,52.0,7,230,12.0,0.0
12080,43.0,60,0,15.0,0.0
12081,40.0,2,230,13.0,0.0
12082,40.0,0,230,3.0,0.0
12083,52.0,0,230,3.0,0.0
12084,40.0,1,230,14.0,0.0
12085,43.0,60,0,15.0,0.0
12086,83.0,2,60,10.0,0.0
12087,83.0,6,60,11.0,0.0
12088,83.0,1,120,1.0,0.0
12089,71.0,2,120,2.0,0.0
12090,43.0,47,60,15.0,0.0
12091,43.0,60,60,15.0,0.0
12092,50.0,6,110,12.0,0.0
12093,43.0,47,60,15.0,0.0
12094,38.0,1,110,13.0,0.0
12095,50.0,0,110,3.0,0.0
12096,38.0,1,110,3.0,0.0
12097,38.0,1,110,14.0,0.0
12098,43.0,5,60,15.0,0.0
12099,84.0,2,50,10.0,0.0
12100,84.0,3,110,0.0,0.0
12101,84.0,3,50,11.0,0.0
12102,72.0,1,120,6.0,0.0
12103,60.0,0,120,6.0,0.0
12104,60.0,1,120,4.0,0.0
12105,48.0,0,120,4.0,0.0
12106,64.0,1,240,7.0,0.0
12107,84.0,1,110,1.0,0.0
12108,48.0,52,50,12.0,0.0
12109,72.0,6,110,2.0,0.0
12110,48.0,0,120,5.0,0.0
12111,60.0,2,120,5.0,0.0
12112,48.0,42,120,15.0,0.0
12113,36.0,1,110,13.0,0.0
12114,48.0,37,240,8.0,0.0
12115,48.0,0,110,3.0,0.0
12116,36.0,0,110,3.0,0.0
12117,36.0,1,110,14.0,0.0
12118,84.0,2,47,10.0,0.0
12119,72.0,2,47,11.0,0.0
12120,64.0,0,47,11.0,0.0
12121,48.0,1,50,12.0,0.0
12122,88.0,2,50,10.0,0.0
12123,88.0,3,230,0.0,0.0
12124,72.0,0,50,11.0,0.0
12125,64.0,3,50,11.0,0.0
12126,76.0,1,240,6.0,0.0
12127,64.0,0,240,6.0,0.0
12128,64.0,1,240,4.0,0.0
12129,76.0,1,230,1.0,0.0
12130,52.0,0,240,4.0,0.0
12131,76.0,7,50,12.0,0.0
12132,76.0,6,230,2.0,0.0
12133,52.0,1,240,5.0,0.0
12134,64.0,0,240,5.0,0.0
12135,52.0,3,50,13.0,0.0
12136,64.0,0,230,3.0,0.0
12137,52.0,0,230,3.0,0.0
12138,40.0,42,50,14.0,0.0
12139,88.0,2,47,10.0,0.0
12140,64.0,6,47,11.0,0.0
12141,72.0,0,47,11.0,0.0
12142,76.0,7,50,12.0,0.0
12143,52.0,2,50,13.0,0.0
12144,40.0,2,50,14.0,0.0
12145,88.0,2,50,10.0,0.0
12146,72.0,0,50,11.0,0.0
12147,64.0,3,50,11.0,0.0
12148,64.0,0,120,7.0,0.0
12149,76.0,7,50,12.0,0.0
12150,60.0,6,0,7.0,0.0
12151,52.0,3,50,13.0,0.0
12152,40.0,42,50,14.0,0.0
12153,88.0,2,47,10.0,0.0
12154,64.0,0,47,11.0,0.0
12155,72.0,2,47,11.0,0.0
12156,76.0,1,50,12.0,0.0
12157,52.0,1,50,13.0,0.0
12158,40.0,1,50,14.0,0.0
12159,91.0,2,50,10.0,0.0
12160,91.0,3,110,0.0,0.0
12161,72.0,3,50,11.0,0.0
12162,64.0,0,50,11.0,0.0
12163,79.0,0,480,6.0,0.0
12164,64.0,0,120,7.0,0.0
12165,55.0,1,480,4.0,0.0
12166,67.0,0,480,4.0,0.0
12167,79.0,1,110,1.0,0.0
12168,79.0,7,50,12.0,0.0
12169,79.0,6,110,2.0,0.0
12170,55.0,0,480,5.0,0.0
12171,60.0,6,0,7.0,0.0
12172,55.0,3,50,13.0,0.0
12173,48.0,37,0,8.0,0.0
12174,67.0,0,110,3.0,0.0
12175,55.0,1,110,3.0,0.0
12176,43.0,42,50,14.0,0.0
12177,91.0,2,47,10.0,0.0
12178,64.0,0,47,11.0,0.0
12179,72.0,2,47,11.0,0.0
12180,79.0,1,50,12.0,0.0
12181,55.0,2,50,13.0,0.0
12182,43.0,2,50,14.0,0.0
12183,93.0,2,50,10.0,0.0
12184,93.0,3,350,0.0,0.0
12185,72.0,0,50,11.0,0.0
12186,64.0,3,50,11.0,0.0
12187,64.0,0,360,7.0,0.0
12188,81.0,1,350,1.0,0.0
12189,81.0,7,50,12.0,0.0
12190,81.0,6,350,2.0,0.0
12191,60.0,6,360,7.0,0.0
12192,48.0,42,120,15.0,0.0
12193,57.0,3,50,13.0,0.0
12194,57.0,0,350,3.0,0.0
12195,69.0,0,350,3.0,0.0
12196,45.0,42,50,14.0,0.0
12197,93.0,2,47,10.0,0.0
12198,64.0,6,47,11.0,0.0
12199,72.0,0,47,11.0,0.0
12200,81.0,7,50,12.0,0.0
12201,57.0,3,50,13.0,0.0
12202,45.0,3,50,14.0,0.0
12203,93.0,2,50,10.0,0.0
12204,64.0,3,50,11.0,0.0
12205,72.0,0,50,11.0,0.0
12206,81.0,7,50,12.0,0.0
12207,57.0,3,50,13.0,0.0
12208,45.0,42,50,14.0,0.0
12209,93.0,2,47,10.0,0.0
12210,72.0,0,47,11.0,0.0
12211,64.0,6,47,11.0,0.0
12212,81.0,7,50,12.0,0.0
12213,57.0,3,50,13.0,0.0
12214,45.0,45,50,14.0,0.0
12215,93.0,2,50,10.0,0.0
12216,64.0,3,50,11.0,0.0
12217,72.0,0,50,11.0,0.0
12218,81.0,7,50,12.0,0.0
12219,57.0,3,50,13.0,0.0
12220,45.0,42,50,14.0,0.0
12221,93.0,2,47,10.0,0.0
12222,72.0,0,47,11.0,0.0
12223,64.0,2,47,11.0,0.0
12224,81.0,1,50,12.0,0.0
12225,57.0,1,50,13.0,0.0
12226,45.0,1,50,14.0,0.0
12227,91.0,2,50,10.0,0.0
12228,91.0,3,110,0.0,0.0
12229,64.0,3,50,11.0,0.0
12230,72.0,0,50,11.0,0.0
12231,67.0,1,0,6.0,0.0
12232,79.0,1,110,1.0,0.0
12233,60.0,0,120,4.0,0.0
12234,79.0,7,50,12.0,0.0
12235,67.0,1,0,5.0,0.0
12236,79.0,6,110,2.0,0.0
12237,55.0,3,50,13.0,0.0
12238,48.0,37,0,8.0,0.0
12239,67.0,0,110,3.0,0.0
12240,55.0,0,110,3.0,0.0
12241,43.0,42,50,14.0,0.0
12242,91.0,2,47,10.0,0.0
12243,64.0,0,47,11.0,0.0
12244,72.0,2,47,11.0,0.0
12245,79.0,1,50,12.0,0.0
12246,55.0,1,50,13.0,0.0
12247,43.0,1,50,14.0,0.0
12248,88.0,2,50,10.0,0.0
12249,88.0,1,120,0.0,0.0
12250,64.0,0,50,11.0,0.0
12251,72.0,3,50,11.0,0.0
12252,79.0,1,0,6.0,0.0
12253,67.0,0,0,6.0,0.0
12254,64.0,0,0,4.0,0.0
12255,64.0,1,0,7.0,0.0
12256,76.0,1,120,1.0,0.0
12257,76.0,7,50,12.0,0.0
12258,55.0,1,0,5.0,0.0
12259,67.0,0,0,5.0,0.0
12260,76.0,2,120,2.0,0.0
12261,60.0,6,0,7.0,0.0
12262,48.0,6,120,15.0,0.0
12263,52.0,3,50,13.0,0.0
12264,48.0,37,0,8.0,0.0
12265,52.0,0,120,3.0,0.0
12266,64.0,36,120,3.0,0.0
12267,40.0,42,50,14.0,0.0
12268,88.0,2,47,10.0,0.0
12269,72.0,0,47,11.0,0.0
12270,64.0,6,47,11.0,0.0
12271,76.0,6,50,12.0,0.0
12272,52.0,2,50,13.0,0.0
12273,40.0,1,50,14.0,0.0
12274,84.0,2,50,10.0,0.0
12275,84.0,3,110,0.0,0.0
12276,72.0,3,50,11.0,0.0
12277,64.0,0,50,11.0,0.0
12278,84.0,1,110,1.0,0.0
12279,72.0,7,50,12.0,0.0
12280,72.0,6,110,2.0,0.0
12281,48.0,3,50,13.0,0.0
12282,60.0,0,110,3.0,0.0
12283,48.0,0,110,3.0,0.0
12284,36.0,42,50,14.0,0.0
12285,84.0,2,47,10.0,0.0
12286,64.0,0,47,11.0,0.0
12287,72.0,2,47,11.0,0.0
12288,72.0,1,50,12.0,0.0
12289,48.0,1,50,13.0,0.0
12290,36.0,1,50,14.0,0.0
12291,81.0,2,50,10.0,0.0
12292,81.0,1,60,0.0,0.0
12293,64.0,0,50,11.0,0.0
12294,72.0,3,50,11.0,0.0
12295,67.0,1,0,6.0,0.0
12296,79.0,0,0,6.0,0.0
12297,60.0,0,0,4.0,0.0
12298,64.0,1,0,4.0,0.0
12299,81.0,1,60,1.0,0.0
12300,64.0,0,120,7.0,0.0
12301,69.0,6,50,12.0,0.0
12302,55.0,1,0,5.0,0.0
12303,69.0,8,60,2.0,0.0
12304,67.0,0,0,5.0,0.0
12305,60.0,1,120,7.0,0.0
12306,48.0,5,120,15.0,0.0
12307,45.0,2,50,13.0,0.0
12308,57.0,0,60,3.0,0.0
12309,45.0,33,60,3.0,0.0
12310,33.0,1,50,14.0,0.0
12311,81.0,2,47,10.0,0.0
12312,72.0,0,47,11.0,0.0
12313,64.0,6,47,11.0,0.0
12314,69.0,7,50,12.0,0.0
12315,45.0,1,50,13.0,0.0
12316,33.0,1,50,14.0,0.0
12317,79.0,2,50,10.0,0.0
12318,79.0,1,60,0.0,0.0
12319,64.0,0,50,11.0,0.0
12320,72.0,3,50,11.0,0.0
12321,67.0,1,0,6.0,0.0
12322,79.0,1,120,6.0,0.0
12323,79.0,1,60,1.0,0.0
12324,60.0,0,0,4.0,0.0
12325,64.0,1,0,4.0,0.0
12326,64.0,0,120,7.0,0.0
12327,67.0,6,50,12.0,0.0
12328,67.0,8,60,2.0,0.0
12329,67.0,1,0,5.0,0.0
12330,60.0,1,120,7.0,0.0
12331,43.0,2,50,13.0,0.0
12332,48.0,37,0,8.0,0.0
12333,43.0,33,60,3.0,0.0
12334,55.0,0,60,3.0,0.0
12335,31.0,1,50,14.0,0.0
12336,79.0,2,47,10.0,0.0
12337,72.0,0,47,11.0,0.0
12338,64.0,6,47,11.0,0.0
12339,67.0,7,50,12.0,0.0
12340,43.0,1,50,13.0,0.0
12341,31.0,1,50,14.0,0.0
12342,79.0,2,50,10.0,0.0
12343,79.0,3,470,0.0,0.0
12344,64.0,3,50,11.0,0.0
12345,72.0,0,50,11.0,0.0
12346,67.0,0,480,6.0,0.0
12347,64.0,0,480,7.0,0.0
12348,79.0,1,470,1.0,0.0
12349,64.0,1,0,4.0,0.0
12350,60.0,0,480,4.0,0.0
12351,67.0,7,50,12.0,0.0
12352,55.0,1,0,5.0,0.0
12353,67.0,0,0,5.0,0.0
12354,67.0,0,470,2.0,0.0
12355,79.0,6,470,2.0,0.0
12356,48.0,5,0,15.0,0.0
12357,43.0,3,50,13.0,0.0
12358,48.0,37,480,8.0,0.0
12359,43.0,0,470,3.0,0.0
12360,55.0,0,470,3.0,0.0
12361,31.0,42,50,14.0,0.0
12362,79.0,2,47,10.0,0.0
12363,64.0,6,47,11.0,0.0
12364,72.0,0,47,11.0,0.0
12365,67.0,7,50,12.0,0.0
12366,55.0,3,50,13.0,0.0
12367,43.0,3,50,14.0,0.0
12368,79.0,2,50,10.0,0.0
12369,64.0,3,50,11.0,0.0
12370,72.0,0,50,11.0,0.0
12371,67.0,7,50,12.0,0.0
12372,55.0,3,50,13.0,0.0
12373,43.0,42,50,14.0,0.0
12374,79.0,2,47,10.0,0.0
12375,64.0,6,47,11.0,0.0
12376,72.0,0,47,11.0,0.0
12377,67.0,7,50,12.0,0.0
12378,55.0,3,50,13.0,0.0
12379,43.0,45,50,14.0,0.0
12380,79.0,2,50,10.0,0.0
12381,72.0,0,50,11.0,0.0
12382,64.0,3,50,11.0,0.0
12383,67.0,7,50,12.0,0.0
12384,55.0,3,50,13.0,0.0
12385,43.0,42,50,14.0,0.0
12386,79.0,2,47,10.0,0.0
12387,64.0,6,47,11.0,0.0
12388,72.0,0,47,11.0,0.0
12389,67.0,7,50,12.0,0.0
12390,55.0,3,50,13.0,0.0
12391,43.0,45,50,14.0,0.0
12392,79.0,2,50,10.0,0.0
12393,72.0,3,50,11.0,0.0
12394,64.0,0,50,11.0,0.0
12395,67.0,7,50,12.0,0.0
12396,55.0,3,50,13.0,0.0
12397,43.0,42,50,14.0,0.0
12398,79.0,2,47,10.0,0.0
12399,72.0,2,47,11.0,0.0
12400,64.0,0,47,11.0,0.0
12401,67.0,1,50,12.0,0.0
12402,55.0,1,50,13.0,0.0
12403,43.0,1,50,14.0,0.0
12404,84.0,2,50,10.0,0.0
12405,84.0,1,120,0.0,0.0
12406,64.0,0,50,11.0,0.0
12407,72.0,3,50,11.0,0.0
12408,79.0,1,0,6.0,0.0
12409,84.0,1,120,1.0,0.0
12410,64.0,1,240,7.0,0.0
12411,60.0,0,240,4.0,0.0
12412,64.0,1,0,4.0,0.0
12413,72.0,7,50,12.0,0.0
12414,55.0,1,0,5.0,0.0
12415,67.0,0,240,5.0,0.0
12416,72.0,2,120,2.0,0.0
12417,84.0,0,120,2.0,0.0
12418,60.0,6,0,7.0,0.0
12419,48.0,6,120,15.0,0.0
12420,60.0,3,50,13.0,0.0
12421,48.0,37,240,8.0,0.0
12422,60.0,0,120,3.0,0.0
12423,48.0,36,120,3.0,0.0
12424,48.0,42,50,14.0,0.0
12425,84.0,2,47,10.0,0.0
12426,72.0,0,47,11.0,0.0
12427,64.0,6,47,11.0,0.0
12428,72.0,6,50,12.0,0.0
12429,60.0,2,50,13.0,0.0
12430,48.0,1,50,14.0,0.0
12431,79.0,2,50,10.0,0.0
12432,79.0,3,110,0.0,0.0
12433,72.0,3,50,11.0,0.0
12434,64.0,0,50,11.0,0.0
12435,79.0,1,110,1.0,0.0
12436,67.0,7,50,12.0,0.0
12437,67.0,0,110,2.0,0.0
12438,79.0,6,110,2.0,0.0
12439,55.0,3,50,13.0,0.0
12440,43.0,0,110,3.0,0.0
12441,55.0,0,110,3.0,0.0
12442,43.0,42,50,14.0,0.0
12443,79.0,2,47,10.0,0.0
12444,72.0,2,47,11.0,0.0
12445,64.0,0,47,11.0,0.0
12446,67.0,1,50,12.0,0.0
12447,55.0,1,50,13.0,0.0
12448,43.0,1,50,14.0,0.0
12449,77.0,2,50,10.0,0.0
12450,77.0,1,60,0.0,0.0
12451,64.0,3,50,11.0,0.0
12452,72.0,0,50,11.0,0.0
12453,67.0,1,0,6.0,0.0
12454,79.0,1,120,6.0,0.0
12455,77.0,1,60,1.0,0.0
12456,64.0,1,120,7.0,0.0
12457,60.0,0,120,4.0,0.0
12458,65.0,6,50,12.0,0.0
12459,77.0,8,60,2.0,0.0
12460,65.0,0,60,2.0,0.0
12461,60.0,1,120,7.0,0.0
12462,48.0,5,120,15.0,0.0
12463,53.0,2,50,13.0,0.0
12464,41.0,0,60,3.0,0.0
12465,53.0,33,60,3.0,0.0
12466,41.0,1,50,14.0,0.0
12467,77.0,2,47,10.0,0.0
12468,72.0,0,47,11.0,0.0
12469,64.0,6,47,11.0,0.0
12470,65.0,7,50,12.0,0.0
12471,53.0,1,50,13.0,0.0
12472,41.0,1,50,14.0,0.0
12473,76.0,2,50,10.0,0.0
12474,76.0,1,60,0.0,0.0
12475,64.0,3,50,11.0,0.0
12476,72.0,0,50,11.0,0.0
12477,67.0,1,120,6.0,0.0
12478,79.0,0,120,6.0,0.0
12479,76.0,1,60,1.0,0.0
12480,64.0,0,0,4.0,0.0
12481,64.0,0,120,7.0,0.0
12482,64.0,6,50,12.0,0.0
12483,67.0,0,0,5.0,0.0
12484,55.0,1,0,5.0,0.0
12485,76.0,8,60,2.0,0.0
12486,64.0,0,60,2.0,0.0
12487,60.0,1,120,7.0,0.0
12488,48.0,5,120,15.0,0.0
12489,52.0,2,50,13.0,0.0
12490,48.0,37,0,8.0,0.0
12491,40.0,0,60,3.0,0.0
12492,52.0,33,60,3.0,0.0
12493,40.0,1,50,14.0,0.0
12494,76.0,2,47,10.0,0.0
12495,64.0,0,47,11.0,0.0
12496,72.0,6,47,11.0,0.0
12497,64.0,7,50,12.0,0.0
12498,52.0,1,50,13.0,0.0
12499,40.0,1,50,14.0,0.0
12500,76.0,2,50,10.0,0.0
12501,76.0,3,470,0.0,0.0
12502,72.0,0,50,11.0,0.0
12503,64.0,3,50,11.0,0.0
12504,60.0,0,0,4.0,0.0
12505,64.0,1,0,4.0,0.0
12506,64.0,0,480,7.0,0.0
12507,76.0,1,470,1.0,0.0
12508,64.0,7,50,12.0,0.0
12509,55.0,1,0,5.0,0.0
12510,76.0,6,470,2.0,0.0
12511,64.0,0,470,2.0,0.0
12512,67.0,0,480,5.0,0.0
12513,48.0,42,120,15.0,0.0
12514,52.0,3,50,13.0,0.0
12515,48.0,39,480,8.0,0.0
12516,52.0,0,470,3.0,0.0
12517,40.0,0,470,3.0,0.0
12518,40.0,42,50,14.0,0.0
12519,76.0,2,47,10.0,0.0
12520,64.0,6,47,11.0,0.0
12521,72.0,0,47,11.0,0.0
12522,64.0,7,50,12.0,0.0
12523,52.0,3,50,13.0,0.0
12524,40.0,3,50,14.0,0.0
12525,76.0,2,50,10.0,0.0
12526,72.0,0,50,11.0,0.0
12527,64.0,3,50,11.0,0.0
12528,64.0,7,50,12.0,0.0
12529,52.0,3,50,13.0,0.0
12530,40.0,42,50,14.0,0.0
12531,76.0,2,47,10.0,0.0
12532,72.0,0,47,11.0,0.0
12533,64.0,6,47,11.0,0.0
12534,64.0,7,50,12.0,0.0
12535,52.0,3,50,13.0,0.0
12536,40.0,45,50,14.0,0.0
12537,76.0,2,50,10.0,0.0
12538,64.0,3,50,11.0,0.0
12539,72.0,0,50,11.0,0.0
12540,64.0,7,50,12.0,0.0
12541,52.0,3,50,13.0,0.0
12542,40.0,42,50,14.0,0.0
12543,76.0,2,47,10.0,0.0
12544,72.0,0,47,11.0,0.0
12545,64.0,6,47,11.0,0.0
12546,64.0,7,50,12.0,0.0
12547,52.0,3,50,13.0,0.0
12548,40.0,45,50,14.0,0.0
12549,76.0,2,50,10.0,0.0
12550,64.0,0,50,11.0,0.0
12551,72.0,3,50,11.0,0.0
12552,64.0,7,50,12.0,0.0
12553,52.0,3,50,13.0,0.0
12554,40.0,42,50,14.0,0.0
12555,76.0,2,47,10.0,0.0
12556,72.0,2,47,11.0,0.0
12557,64.0,0,47,11.0,0.0
12558,64.0,1,50,12.0,0.0
12559,52.0,1,50,13.0,0.0
12560,40.0,1,50,14.0,0.0
12561,79.0,1,60,10.0,0.0
12562,91.0,3,60,0.0,0.0
12563,79.0,3,50,11.0,0.0
12564,67.0,1,0,6.0,0.0
12565,79.0,0,0,6.0,0.0
12566,64.0,0,120,7.0,0.0
12567,60.0,0,120,4.0,0.0
12568,64.0,2,120,4.0,0.0
12569,79.0,2,60,1.0,0.0
12570,60.0,5,50,12.0,0.0
12571,64.0,0,50,12.0,0.0
12572,67.0,1,120,5.0,0.0
12573,79.0,8,60,2.0,0.0
12574,55.0,0,120,5.0,0.0
12575,60.0,6,0,7.0,0.0
12576,48.0,4,120,15.0,0.0
12577,48.0,1,120,13.0,0.0
12578,48.0,2,120,8.0,0.0
12579,67.0,36,60,3.0,0.0
12580,36.0,15,120,14.0,0.0
12581,76.0,1,50,10.0,0.0
12582,88.0,1,50,0.0,0.0
12583,67.0,2,50,11.0,0.0
12584,55.0,0,50,11.0,0.0
12585,76.0,1,50,1.0,0.0
12586,60.0,1,50,12.0,0.0
12587,64.0,0,50,12.0,0.0
12588,76.0,7,50,2.0,0.0
12589,64.0,0,50,3.0,0.0
12590,74.0,1,30,10.0,0.0
12591,86.0,3,30,0.0,0.0
12592,67.0,3,50,11.0,0.0
12593,55.0,0,50,11.0,0.0
12594,74.0,2,30,1.0,0.0
12595,64.0,35,50,12.0,0.0
12596,60.0,0,50,12.0,0.0
12597,74.0,8,30,2.0,0.0
12598,62.0,8,30,3.0,0.0
12599,72.0,1,30,10.0,0.0
12600,84.0,3,30,0.0,0.0
12601,55.0,3,50,11.0,0.0
12602,67.0,0,50,11.0,0.0
12603,72.0,2,30,1.0,0.0
12604,64.0,0,50,12.0,0.0
12605,60.0,57,50,12.0,0.0
12606,72.0,8,30,2.0,0.0
12607,60.0,8,30,3.0,0.0
12608,76.0,1,60,10.0,0.0
12609,88.0,3,60,0.0,0.0
12610,67.0,3,50,11.0,0.0
12611,55.0,0,50,11.0,0.0
12612,76.0,2,60,1.0,0.0
12613,60.0,5,50,12.0,0.0
12614,64.0,0,50,12.0,0.0
12615,76.0,8,60,2.0,0.0
12616,64.0,36,60,3.0,0.0
12617,72.0,1,50,10.0,0.0
12618,84.0,1,50,0.0,0.0
12619,67.0,0,50,11.0,0.0
12620,55.0,2,50,11.0,0.0
12621,72.0,1,50,1.0,0.0
12622,60.0,1,50,12.0,0.0
12623,64.0,0,50,12.0,0.0
12624,72.0,8,50,2.0,0.0
12625,60.0,26,50,3.0,0.0
12626,69.0,1,30,10.0,0.0
12627,81.0,3,30,0.0,0.0
12628,67.0,0,50,11.0,0.0
12629,55.0,3,50,11.0,0.0
12630,69.0,2,30,1.0,0.0
12631,64.0,0,50,12.0,0.0
12632,60.0,35,50,12.0,0.0
12633,69.0,8,30,2.0,0.0
12634,57.0,8,30,3.0,0.0
12635,67.0,1,30,10.0,0.0
12636,79.0,3,30,0.0,0.0
12637,67.0,3,50,11.0,0.0
12638,55.0,0,50,11.0,0.0
12639,67.0,2,30,1.0,0.0
12640,64.0,0,50,12.0,0.0
12641,60.0,57,50,12.0,0.0
12642,67.0,8,30,2.0,0.0
12643,55.0,8,30,3.0,0.0
12644,72.0,1,60,10.0,0.0
12645,84.0,3,60,0.0,0.0
12646,67.0,0,50,11.0,0.0
12647,55.0,3,50,11.0,0.0
12648,84.0,2,60,1.0,0.0
12649,60.0,0,50,12.0,0.0
12650,64.0,5,50,12.0,0.0
12651,72.0,8,60,2.0,0.0
12652,60.0,36,60,3.0,0.0
12653,67.0,1,50,10.0,0.0
12654,79.0,1,50,0.0,0.0
12655,67.0,2,50,11.0,0.0
12656,55.0,0,50,11.0,0.0
12657,79.0,1,50,1.0,0.0
12658,60.0,0,50,12.0,0.0
12659,64.0,1,50,12.0,0.0
12660,67.0,8,50,2.0,0.0
12661,55.0,26,50,3.0,0.0
12662,65.0,1,30,10.0,0.0
12663,77.0,3,30,0.0,0.0
12664,67.0,0,50,11.0,0.0
12665,55.0,3,50,11.0,0.0
12666,77.0,2,30,1.0,0.0
12667,64.0,35,50,12.0,0.0
12668,60.0,0,50,12.0,0.0
12669,65.0,8,30,2.0,0.0
12670,53.0,8,30,3.0,0.0
12671,64.0,1,30,10.0,0.0
12672,76.0,3,30,0.0,0.0
12673,55.0,0,50,11.0,0.0
12674,67.0,3,50,11.0,0.0
12675,76.0,2,30,1.0,0.0
12676,60.0,0,50,12.0,0.0
12677,64.0,57,50,12.0,0.0
12678,64.0,8,30,2.0,0.0
12679,52.0,8,30,3.0,0.0
12680,67.0,1,60,10.0,0.0
12681,79.0,3,60,0.0,0.0
12682,67.0,0,50,11.0,0.0
12683,55.0,3,50,11.0,0.0
12684,79.0,2,60,1.0,0.0
12685,64.0,0,50,12.0,0.0
12686,60.0,5,50,12.0,0.0
12687,67.0,8,60,2.0,0.0
12688,55.0,36,60,3.0,0.0
12689,64.0,1,50,10.0,0.0
12690,76.0,1,50,0.0,0.0
12691,67.0,2,50,11.0,0.0
12692,55.0,0,50,11.0,0.0
12693,76.0,1,50,1.0,0.0
12694,64.0,1,50,12.0,0.0
12695,60.0,0,50,12.0,0.0
12696,64.0,8,50,2.0,0.0
12697,52.0,26,50,3.0,0.0
12698,62.0,1,30,10.0,0.0
12699,74.0,3,30,0.0,0.0
12700,67.0,3,50,11.0,0.0
12701,55.0,0,50,11.0,0.0
12702,74.0,2,30,1.0,0.0
12703,64.0,35,50,12.0,0.0
12704,60.0,0,50,12.0,0.0
12705,62.0,8,30,2.0,0.0
12706,50.0,8,30,3.0,0.0
12707,60.0,1,30,10.0,0.0
12708,72.0,3,30,0.0,0.0
12709,55.0,3,50,11.0,0.0
12710,67.0,0,50,11.0,0.0
12711,72.0,2,30,1.0,0.0
12712,60.0,57,50,12.0,0.0
12713,64.0,0,50,12.0,0.0
12714,60.0,8,30,2.0,0.0
12715,48.0,8,30,3.0,0.0
12716,60.0,1,120,10.0,0.0
12717,72.0,1,120,0.0,0.0
12718,67.0,0,50,11.0,0.0
12719,55.0,3,50,11.0,0.0
12720,79.0,0,1080,6.0,0.0
12721,67.0,1,1080,6.0,0.0
12722,65.0,0,1080,7.0,0.0
12723,65.0,0,1080,4.0,0.0
12724,62.0,2,1080,4.0,0.0
12725,72.0,1,120,1.0,0.0
12726,62.0,0,50,12.0,0.0
12727,59.0,13,50,12.0,0.0
12728,60.0,2,120,2.0,0.0
12729,67.0,0,1080,5.0,0.0
12730,55.0,1,1080,5.0,0.0
12731,62.0,1,1080,7.0,0.0
12732,43.0,4,60,15.0,0.0
12733,65.0,3,60,13.0,0.0
12734,55.0,2,1080,8.0,0.0
12735,48.0,28,120,3.0,0.0
12736,53.0,37,60,14.0,0.0
12737,55.0,0,50,11.0,0.0
12738,67.0,3,50,11.0,0.0
12739,62.0,5,50,12.0,0.0
12740,59.0,0,50,12.0,0.0
12741,43.0,6,60,15.0,0.0
12742,62.0,2,50,13.0,0.0
12743,50.0,1,50,14.0,0.0
12744,59.0,1,110,10.0,0.0
12745,71.0,1,110,0.0,0.0
12746,67.0,0,50,11.0,0.0
12747,55.0,3,50,11.0,0.0
12748,71.0,1,110,1.0,0.0
12749,59.0,0,50,12.0,0.0
12750,62.0,13,50,12.0,0.0
12751,59.0,8,110,2.0,0.0
12752,43.0,34,60,15.0,0.0
12753,60.0,3,30,13.0,0.0
12754,47.0,4,110,3.0,0.0
12755,48.0,7,30,14.0,0.0
12756,55.0,0,50,11.0,0.0
12757,67.0,2,50,11.0,0.0
12758,62.0,1,50,12.0,0.0
12759,59.0,0,50,12.0,0.0
12760,43.0,44,60,15.0,0.0
12761,59.0,3,30,13.0,0.0
12762,47.0,5,30,14.0,0.0
12763,59.0,1,240,10.0,0.0
12764,71.0,3,240,0.0,0.0
12765,55.0,0,50,11.0,0.0
12766,67.0,3,50,11.0,0.0
12767,71.0,2,240,1.0,0.0
12768,62.0,13,50,12.0,0.0
12769,59.0,0,50,12.0,0.0
12770,59.0,2,240,2.0,0.0
12771,43.0,4,60,15.0,0.0
12772,62.0,3,60,13.0,0.0
12773,47.0,38,240,3.0,0.0
12774,50.0,37,60,14.0,0.0
12775,55.0,3,50,11.0,0.0
12776,67.0,0,50,11.0,0.0
12777,62.0,7,50,12.0,0.0
12778,59.0,0,50,12.0,0.0
12779,43.0,34,60,15.0,0.0
12780,59.0,3,50,13.0,0.0
12781,47.0,3,50,14.0,0.0
12782,67.0,0,50,11.0,0.0
12783,55.0,3,50,11.0,0.0
12784,59.0,0,50,12.0,0.0
12785,62.0,13,50,12.0,0.0
12786,55.0,3,30,13.0,0.0
12787,43.0,7,30,14.0,0.0
12788,55.0,0,50,11.0,0.0
12789,67.0,3,50,11.0,0.0
12790,62.0,0,50,12.0,0.0
12791,59.0,5,50,12.0,0.0
12792,43.0,34,0,15.0,0.0
12793,53.0,3,30,13.0,0.0
12794,41.0,7,30,14.0,0.0
12795,55.0,3,50,11.0,0.0
12796,67.0,0,50,11.0,0.0
12797,62.0,13,50,12.0,0.0
12798,59.0,0,50,12.0,0.0
12799,43.0,6,0,15.0,0.0
12800,59.0,3,60,13.0,0.0
12801,47.0,37,60,14.0,0.0
12802,67.0,0,50,11.0,0.0
12803,55.0,3,50,11.0,0.0
12804,59.0,0,50,12.0,0.0
12805,62.0,7,50,12.0,0.0
12806,43.0,34,60,15.0,0.0
12807,55.0,3,50,13.0,0.0
12808,43.0,3,50,14.0,0.0
12809,67.0,3,50,11.0,0.0
12810,55.0,0,50,11.0,0.0
12811,59.0,0,50,12.0,0.0
12812,62.0,13,50,12.0,0.0
12813,53.0,3,30,13.0,0.0
12814,41.0,7,30,14.0,0.0
12815,55.0,3,50,11.0,0.0
12816,67.0,0,50,11.0,0.0
12817,59.0,13,50,12.0,0.0
12818,62.0,0,50,12.0,0.0
12819,43.0,34,0,15.0,0.0
12820,50.0,3,30,13.0,0.0
12821,38.0,7,30,14.0,0.0
12822,67.0,3,50,11.0,0.0
12823,55.0,0,50,11.0,0.0
12824,59.0,13,50,12.0,0.0
12825,62.0,0,50,12.0,0.0
12826,43.0,44,0,15.0,0.0
12827,53.0,3,60,13.0,0.0
12828,41.0,37,60,14.0,0.0
12829,67.0,0,50,11.0,0.0
12830,55.0,3,50,11.0,0.0
12831,59.0,7,50,12.0,0.0
12832,62.0,0,50,12.0,0.0
12833,43.0,34,60,15.0,0.0
12834,50.0,3,50,13.0,0.0
12835,38.0,3,50,14.0,0.0
12836,67.0,0,50,11.0,0.0
12837,55.0,3,50,11.0,0.0
12838,62.0,0,50,12.0,0.0
12839,59.0,13,50,12.0,0.0
12840,47.0,3,30,13.0,0.0
12841,35.0,7,30,14.0,0.0
12842,67.0,0,50,11.0,0.0
12843,55.0,3,50,11.0,0.0
12844,59.0,13,50,12.0,0.0
12845,62.0,0,50,12.0,0.0
12846,43.0,34,0,15.0,0.0
12847,50.0,3,30,13.0,0.0
12848,38.0,7,30,14.0,0.0
12849,86.0,50,60,10.0,0.0
12850,55.0,0,50,11.0,0.0
12851,67.0,3,50,11.0,0.0
12852,59.0,5,50,12.0,0.0
12853,62.0,0,50,12.0,0.0
12854,43.0,44,0,15.0,0.0
12855,43.0,1,120,13.0,0.0
12856,31.0,15,120,14.0,0.0
12857,83.0,2,50,10.0,0.0
12858,67.0,0,50,11.0,0.0
12859,55.0,3,50,11.0,0.0
12860,62.0,0,50,12.0,0.0
12861,59.0,8,50,12.0,0.0
12862,81.0,22,30,10.0,0.0
12863,67.0,3,50,11.0,0.0
12864,55.0,0,50,11.0,0.0
12865,59.0,0,50,12.0,0.0
12866,62.0,35,50,12.0,0.0
12867,79.0,22,30,10.0,0.0
12868,55.0,3,50,11.0,0.0
12869,67.0,0,50,11.0,0.0
12870,59.0,0,50,12.0,0.0
12871,62.0,57,50,12.0,0.0
12872,83.0,50,60,10.0,0.0
12873,67.0,0,50,11.0,0.0
12874,55.0,3,50,11.0,0.0
12875,59.0,5,50,12.0,0.0
12876,62.0,0,50,12.0,0.0
12877,79.0,2,50,10.0,0.0
12878,55.0,0,50,11.0,0.0
12879,67.0,3,50,11.0,0.0
12880,62.0,35,50,12.0,0.0
12881,59.0,0,50,12.0,0.0
12882,76.0,22,30,10.0,0.0
12883,55.0,3,50,11.0,0.0
12884,67.0,0,50,11.0,0.0
12885,59.0,35,50,12.0,0.0
12886,62.0,0,50,12.0,0.0
12887,74.0,22,30,10.0,0.0
12888,55.0,3,50,11.0,0.0
12889,67.0,0,50,11.0,0.0
12890,59.0,57,50,12.0,0.0
12891,62.0,0,50,12.0,0.0
12892,79.0,1,60,10.0,0.0
12893,91.0,3,60,0.0,0.0
12894,55.0,3,50,11.0,0.0
12895,67.0,0,50,11.0,0.0
12896,79.0,2,60,1.0,0.0
12897,62.0,5,50,12.0,0.0
12898,59.0,0,50,12.0,0.0
12899,79.0,8,60,2.0,0.0
12900,67.0,36,60,3.0,0.0
12901,74.0,1,50,10.0,0.0
12902,86.0,1,50,0.0,0.0
12903,55.0,2,50,11.0,0.0
12904,67.0,0,50,11.0,0.0
12905,74.0,1,50,1.0,0.0
12906,59.0,0,50,12.0,0.0
12907,62.0,1,50,12.0,0.0
12908,74.0,8,50,2.0,0.0
12909,62.0,26,50,3.0,0.0
12910,72.0,1,30,10.0,0.0
12911,84.0,3,30,0.0,0.0
12912,67.0,0,50,11.0,0.0
12913,55.0,3,50,11.0,0.0
12914,72.0,2,30,1.0,0.0
12915,59.0,0,50,12.0,0.0
12916,62.0,35,50,12.0,0.0
12917,72.0,8,30,2.0,0.0
12918,60.0,8,30,3.0,0.0
12919,71.0,1,30,10.0,0.0
12920,83.0,3,30,0.0,0.0
12921,67.0,0,50,11.0,0.0
12922,55.0,3,50,11.0,0.0
12923,71.0,2,30,1.0,0.0
12924,59.0,0,50,12.0,0.0
12925,62.0,57,50,12.0,0.0
12926,71.0,8,30,2.0,0.0
12927,59.0,8,30,3.0,0.0
12928,74.0,1,60,10.0,0.0
12929,86.0,3,60,0.0,0.0
12930,55.0,3,50,11.0,0.0
12931,67.0,0,50,11.0,0.0
12932,74.0,2,60,1.0,0.0
12933,62.0,0,50,12.0,0.0
12934,59.0,5,50,12.0,0.0
12935,74.0,8,60,2.0,0.0
12936,62.0,36,60,3.0,0.0
12937,71.0,1,50,10.0,0.0
12938,83.0,1,50,0.0,0.0
12939,55.0,2,50,11.0,0.0
12940,67.0,0,50,11.0,0.0
12941,71.0,1,50,1.0,0.0
12942,59.0,1,50,12.0,0.0
12943,62.0,0,50,12.0,0.0
12944,71.0,8,50,2.0,0.0
12945,59.0,26,50,3.0,0.0
12946,67.0,1,30,10.0,0.0
12947,79.0,3,30,0.0,0.0
12948,55.0,0,50,11.0,0.0
12949,67.0,3,50,11.0,0.0
12950,67.0,2,30,1.0,0.0
12951,62.0,35,50,12.0,0.0
12952,59.0,0,50,12.0,0.0
12953,67.0,8,30,2.0,0.0
12954,55.0,8,30,3.0,0.0
12955,65.0,1,30,10.0,0.0
12956,77.0,3,30,0.0,0.0
12957,55.0,3,50,11.0,0.0
12958,67.0,0,50,11.0,0.0
12959,65.0,2,30,1.0,0.0
12960,59.0,0,50,12.0,0.0
12961,62.0,53,50,12.0,0.0
12962,65.0,8,30,2.0,0.0
12963,53.0,8,30,3.0,0.0
12964,67.0,1,50,10.0,0.0
12965,79.0,1,50,0.0,0.0
12966,67.0,0,50,11.0,0.0
12967,55.0,2,50,11.0,0.0
12968,60.0,0,1080,6.0,0.0
12969,72.0,1,1080,6.0,0.0
12970,67.0,0,960,7.0,0.0
12971,64.0,3,960,4.0,0.0
12972,67.0,1,50,1.0,0.0
12973,67.0,0,960,4.0,0.0
12974,58.0,0,50,12.0,0.0
12975,64.0,1,50,12.0,0.0
12976,48.0,0,1080,5.0,0.0
12977,60.0,1,1080,5.0,0.0
12978,67.0,8,50,2.0,0.0
12979,64.0,1,960,7.0,0.0
12980,58.0,3,60,13.0,0.0
12981,58.0,39,960,8.0,0.0
12982,55.0,8,50,3.0,0.0
12983,46.0,13,60,14.0,0.0
12984,48.0,2,0,15.0,0.0
12985,65.0,1,70,10.0,0.0
12986,77.0,1,70,0.0,0.0
12987,65.0,1,70,1.0,0.0
12988,65.0,2,70,2.0,0.0
12989,67.0,3,50,11.0,0.0
12990,72.0,0,50,11.0,0.0
12991,53.0,28,70,3.0,0.0
12992,64.0,5,50,12.0,0.0
12993,58.0,0,50,12.0,0.0
12994,55.0,2,50,13.0,0.0
12995,43.0,1,50,14.0,0.0
12996,48.0,6,40,15.0,0.0
12997,64.0,1,110,10.0,0.0
12998,76.0,1,110,0.0,0.0
12999,72.0,3,50,11.0,0.0
13000,67.0,0,50,11.0,0.0
13001,64.0,1,110,1.0,0.0
13002,64.0,33,50,12.0,0.0
13003,58.0,0,50,12.0,0.0
13004,64.0,8,110,2.0,0.0
13005,48.0,4,40,15.0,0.0
13006,52.0,3,30,13.0,0.0
13007,52.0,4,110,3.0,0.0
13008,40.0,3,30,14.0,0.0
13009,67.0,0,50,11.0,0.0
13010,72.0,2,50,11.0,0.0
13011,64.0,1,50,12.0,0.0
13012,58.0,0,50,12.0,0.0
13013,46.0,3,30,13.0,0.0
13014,34.0,5,30,14.0,0.0
13015,48.0,14,0,15.0,0.0
13016,64.0,1,240,10.0,0.0
13017,76.0,3,240,0.0,0.0
13018,72.0,3,50,11.0,0.0
13019,67.0,0,50,11.0,0.0
13020,64.0,2,240,1.0,0.0
13021,64.0,0,50,12.0,0.0
13022,58.0,17,50,12.0,0.0
13023,64.0,2,240,2.0,0.0
13024,48.0,40,0,15.0,0.0
13025,55.0,3,60,13.0,0.0
13026,52.0,34,240,3.0,0.0
13027,43.0,13,60,14.0,0.0
13028,48.0,4,0,15.0,0.0
13029,72.0,0,50,11.0,0.0
13030,67.0,3,50,11.0,0.0
13031,64.0,0,50,12.0,0.0
13032,58.0,7,50,12.0,0.0
13033,52.0,3,50,13.0,0.0
13034,40.0,3,50,14.0,0.0
13035,48.0,34,40,15.0,0.0
13036,72.0,3,50,11.0,0.0
13037,67.0,0,50,11.0,0.0
13038,58.0,33,50,12.0,0.0
13039,64.0,0,50,12.0,0.0
13040,48.0,4,40,15.0,0.0
13041,48.0,3,30,13.0,0.0
13042,36.0,3,30,14.0,0.0
13043,67.0,0,50,11.0,0.0
13044,72.0,3,50,11.0,0.0
13045,58.0,0,50,12.0,0.0
13046,64.0,5,50,12.0,0.0
13047,46.0,3,30,13.0,0.0
13048,34.0,7,30,14.0,0.0
13049,48.0,14,0,15.0,0.0
13050,67.0,3,50,11.0,0.0
13051,72.0,0,50,11.0,0.0
13052,58.0,17,50,12.0,0.0
13053,64.0,0,50,12.0,0.0
13054,48.0,4,40,15.0,0.0
13055,52.0,3,60,13.0,0.0
13056,40.0,13,60,14.0,0.0
13057,72.0,3,50,11.0,0.0
13058,67.0,0,50,11.0,0.0
13059,64.0,7,50,12.0,0.0
13060,58.0,0,50,12.0,0.0
13061,48.0,3,50,13.0,0.0
13062,36.0,3,50,14.0,0.0
13063,48.0,24,0,15.0,0.0
13064,84.0,3,85,10.0,0.0
13065,84.0,1,110,0.0,0.0
13066,79.0,0,110,0.0,0.0
13067,67.0,3,50,11.0,0.0
13068,72.0,0,50,11.0,0.0
13069,79.0,1,110,1.0,0.0
13070,76.0,0,110,1.0,0.0
13071,58.0,30,50,12.0,0.0
13072,64.0,0,50,12.0,0.0
13073,64.0,0,110,2.0,0.0
13074,67.0,8,110,2.0,0.0
13075,48.0,34,0,15.0,0.0
13076,46.0,3,30,13.0,0.0
13077,58.0,0,110,3.0,0.0
13078,55.0,4,110,3.0,0.0
13079,34.0,3,30,14.0,0.0
13080,72.0,2,50,11.0,0.0
13081,67.0,0,50,11.0,0.0
13082,64.0,1,50,12.0,0.0
13083,58.0,0,50,12.0,0.0
13084,43.0,3,30,13.0,0.0
13085,31.0,6,30,14.0,0.0
13086,48.0,14,0,15.0,0.0
13087,84.0,3,85,10.0,0.0
13088,79.0,0,110,0.0,0.0
13089,84.0,1,110,0.0,0.0
13090,67.0,0,50,11.0,0.0
13091,72.0,3,50,11.0,0.0
13092,76.0,0,110,1.0,0.0
13093,79.0,1,110,1.0,0.0
13094,58.0,17,50,12.0,0.0
13095,64.0,0,50,12.0,0.0
13096,67.0,6,110,2.0,0.0
13097,64.0,0,110,2.0,0.0
13098,48.0,40,0,15.0,0.0
13099,58.0,3,60,13.0,0.0
13100,55.0,1,110,3.0,0.0
13101,58.0,0,110,3.0,0.0
13102,46.0,10,60,14.0,0.0
13103,48.0,23,40,15.0,0.0
13104,67.0,2,50,11.0,0.0
13105,72.0,0,50,11.0,0.0
13106,64.0,1,50,12.0,0.0
13107,58.0,0,50,12.0,0.0
13108,55.0,2,50,13.0,0.0
13109,43.0,3,50,14.0,0.0
13110,48.0,34,40,15.0,0.0
13111,84.0,3,85,10.0,0.0
13112,84.0,0,110,0.0,0.0
13113,79.0,1,110,0.0,0.0
13114,72.0,3,50,11.0,0.0
13115,67.0,0,50,11.0,0.0
13116,76.0,0,110,1.0,0.0
13117,79.0,1,110,1.0,0.0
13118,64.0,30,50,12.0,0.0
13119,58.0,0,50,12.0,0.0
13120,64.0,0,110,2.0,0.0
13121,67.0,8,110,2.0,0.0
13122,48.0,4,40,15.0,0.0
13123,52.0,3,30,13.0,0.0
13124,55.0,0,110,3.0,0.0
13125,58.0,0,110,3.0,0.0
13126,40.0,3,30,14.0,0.0
13127,48.0,14,40,15.0,0.0
13128,67.0,0,50,11.0,0.0
13129,72.0,2,50,11.0,0.0
13130,64.0,0,50,12.0,0.0
13131,58.0,1,50,12.0,0.0
13132,46.0,3,30,13.0,0.0
13133,34.0,6,30,14.0,0.0
13134,48.0,5,40,15.0,0.0
13135,84.0,26,85,10.0,0.0
13136,77.0,1,110,0.0,0.0
13137,84.0,0,110,0.0,0.0
13138,72.0,3,50,11.0,0.0
13139,77.0,1,110,1.0,0.0
13140,72.0,0,110,1.0,0.0
13141,69.0,2,120,7.0,0.0
13142,65.0,30,50,12.0,0.0
13143,65.0,0,110,2.0,0.0
13144,69.0,7,110,2.0,0.0
13145,65.0,1,120,7.0,0.0
13146,48.0,5,120,15.0,0.0
13147,45.0,3,350,13.0,0.0
13148,57.0,39,120,8.0,0.0
13149,57.0,0,110,3.0,0.0
13150,53.0,0,110,3.0,0.0
13151,33.0,47,350,14.0,0.0
13152,72.0,2,50,11.0,0.0
13153,65.0,1,50,12.0,0.0
13154,77.0,51,60,10.0,0.0
13155,84.0,0,110,0.0,0.0
13156,77.0,1,110,0.0,0.0
13157,65.0,3,50,11.0,0.0
13158,72.0,0,110,1.0,0.0
13159,77.0,1,110,1.0,0.0
13160,60.0,5,50,12.0,0.0
13161,65.0,0,110,2.0,0.0
13162,48.0,46,120,5.0,0.0
13163,72.0,10,110,2.0,0.0
13164,60.0,0,120,5.0,0.0
13165,65.0,2,50,11.0,0.0
13166,60.0,1,50,12.0,0.0
13167,84.0,11,340,10.0,0.0
13168,84.0,1,350,0.0,0.0
13169,77.0,1,230,0.0,0.0
13170,72.0,3,50,11.0,0.0
13171,72.0,1,350,1.0,0.0
13172,77.0,1,230,1.0,0.0
13173,65.0,57,50,12.0,0.0
13174,72.0,7,350,2.0,0.0
13175,65.0,6,230,2.0,0.0
13176,72.0,3,50,11.0,0.0
13177,65.0,7,50,12.0,0.0
13178,72.0,3,50,11.0,0.0
13179,72.0,0,120,6.0,0.0
13180,60.0,1,120,6.0,0.0
13181,65.0,56,50,12.0,0.0
13182,48.0,44,120,15.0,0.0
13183,45.0,1,110,13.0,0.0
13184,45.0,0,110,3.0,0.0
13185,57.0,1,110,3.0,0.0
13186,33.0,3,110,14.0,0.0
13187,72.0,2,50,11.0,0.0
13188,65.0,1,50,12.0,0.0
13189,78.0,0,110,0.0,0.0
13190,72.0,3,50,11.0,0.0
13191,60.0,0,120,6.0,0.0
13192,72.0,1,120,6.0,0.0
13193,78.0,0,110,1.0,0.0
13194,66.0,45,50,12.0,0.0
13195,66.0,0,110,2.0,0.0
13196,60.0,2,117,7.0,0.0
13197,48.0,5,120,15.0,0.0
13198,44.0,2,350,13.0,0.0
13199,56.0,39,120,8.0,0.0
13200,44.0,1,350,3.0,0.0
13201,56.0,0,350,3.0,0.0
13202,32.0,47,350,14.0,0.0
13203,72.0,2,50,11.0,0.0
13204,66.0,1,50,12.0,0.0
13205,78.0,51,60,10.0,0.0
13206,84.0,0,110,0.0,0.0
13207,78.0,1,110,0.0,0.0
13208,66.0,3,50,11.0,0.0
13209,78.0,1,110,1.0,0.0
13210,72.0,0,110,1.0,0.0
13211,60.0,5,50,12.0,0.0
13212,48.0,0,0,5.0,0.0
13213,60.0,1,0,5.0,0.0
13214,66.0,0,110,2.0,0.0
13215,72.0,10,110,2.0,0.0
13216,66.0,2,50,11.0,0.0
13217,60.0,1,50,12.0,0.0
13218,84.0,11,340,10.0,0.0
13219,78.0,1,230,0.0,0.0
13220,84.0,0,350,0.0,0.0
13221,72.0,3,50,11.0,0.0
13222,78.0,0,230,1.0,0.0
13223,72.0,1,230,1.0,0.0
13224,66.0,57,50,12.0,0.0
13225,48.0,46,0,5.0,0.0
13226,66.0,6,230,2.0,0.0
13227,60.0,0,240,5.0,0.0
13228,72.0,0,230,2.0,0.0
13229,72.0,3,50,11.0,0.0
13230,66.0,7,50,12.0,0.0
13231,72.0,3,50,11.0,0.0
13232,60.0,1,120,6.0,0.0
13233,72.0,0,120,6.0,0.0
13234,66.0,56,50,12.0,0.0
13235,48.0,44,120,15.0,0.0
13236,44.0,1,110,13.0,0.0
13237,45.0,0,110,3.0,0.0
13238,57.0,1,110,3.0,0.0
13239,32.0,1,110,14.0,0.0
13240,72.0,2,50,11.0,0.0
13241,66.0,1,50,12.0,0.0
13242,79.0,1,110,0.0,0.0
13243,67.0,3,50,11.0,0.0
13244,55.0,0,120,6.0,0.0
13245,67.0,1,120,6.0,0.0
13246,55.0,0,120,4.0,0.0
13247,79.0,1,110,1.0,0.0
13248,67.0,0,120,4.0,0.0
13249,62.0,2,120,7.0,0.0
13250,71.0,0,110,1.0,0.0
13251,62.0,45,50,12.0,0.0
13252,67.0,7,110,2.0,0.0
13253,71.0,0,110,2.0,0.0
13254,43.0,1,120,5.0,0.0
13255,55.0,0,120,5.0,0.0
13256,59.0,1,120,7.0,0.0
13257,43.0,5,120,15.0,0.0
13258,43.0,2,350,13.0,0.0
13259,55.0,39,120,8.0,0.0
13260,43.0,1,350,3.0,0.0
13261,55.0,0,110,3.0,0.0
13262,31.0,47,350,14.0,0.0
13263,67.0,2,50,11.0,0.0
13264,62.0,1,50,12.0,0.0
13265,83.0,51,60,10.0,0.0
13266,79.0,0,110,0.0,0.0
13267,83.0,1,110,0.0,0.0
13268,67.0,3,50,11.0,0.0
13269,79.0,0,110,1.0,0.0
13270,55.0,0,120,4.0,0.0
13271,74.0,1,110,1.0,0.0
13272,67.0,0,120,4.0,0.0
13273,62.0,5,50,12.0,0.0
13274,74.0,0,110,2.0,0.0
13275,71.0,8,110,2.0,0.0
13276,62.0,0,120,5.0,0.0
13277,55.0,46,120,5.0,0.0
13278,62.0,2,110,3.0,0.0
13279,67.0,2,50,11.0,0.0
13280,62.0,1,50,12.0,0.0
13281,86.0,11,340,10.0,0.0
13282,79.0,0,350,0.0,0.0
13283,86.0,1,350,0.0,0.0
13284,67.0,3,50,11.0,0.0
13285,67.0,2,360,4.0,0.0
13286,79.0,0,350,1.0,0.0
13287,77.0,1,230,1.0,0.0
13288,65.0,57,50,12.0,0.0
13289,77.0,0,230,2.0,0.0
13290,74.0,6,230,2.0,0.0
13291,62.0,2,240,5.0,0.0
13292,65.0,0,240,5.0,0.0
13293,65.0,0,230,3.0,0.0
13294,67.0,3,50,11.0,0.0
13295,65.0,7,50,12.0,0.0
13296,67.0,3,50,11.0,0.0
13297,55.0,1,120,6.0,0.0
13298,67.0,0,120,6.0,0.0
13299,65.0,57,50,12.0,0.0
13300,43.0,44,120,15.0,0.0
13301,47.0,1,110,13.0,0.0
13302,47.0,1,110,3.0,0.0
13303,35.0,1,110,14.0,0.0
13304,67.0,2,50,11.0,0.0
13305,65.0,1,50,12.0,0.0
13306,67.0,3,50,11.0,0.0
13307,72.0,0,120,6.0,0.0
13308,60.0,1,120,6.0,0.0
13309,64.0,0,120,7.0,0.0
13310,76.0,1,110,1.0,0.0
13311,64.0,45,50,12.0,0.0
13312,60.0,0,120,5.0,0.0
13313,76.0,0,110,2.0,0.0
13314,64.0,1,120,5.0,0.0
13315,72.0,7,110,2.0,0.0
13316,60.0,1,120,7.0,0.0
13317,48.0,5,120,15.0,0.0
13318,48.0,2,350,13.0,0.0
13319,48.0,39,120,8.0,0.0
13320,64.0,0,110,3.0,0.0
13321,48.0,1,350,3.0,0.0
13322,36.0,47,350,14.0,0.0
13323,67.0,2,50,11.0,0.0
13324,64.0,1,50,12.0,0.0
13325,84.0,51,60,10.0,0.0
13326,79.0,0,110,0.0,0.0
13327,84.0,1,110,0.0,0.0
13328,67.0,3,50,11.0,0.0
13329,55.0,0,0,4.0,0.0
13330,67.0,2,120,4.0,0.0
13331,76.0,0,110,1.0,0.0
13332,79.0,1,110,1.0,0.0
13333,64.0,5,50,12.0,0.0
13334,72.0,8,110,2.0,0.0
13335,76.0,0,110,2.0,0.0
13336,64.0,0,110,3.0,0.0
13337,67.0,2,50,11.0,0.0
13338,64.0,1,50,12.0,0.0
13339,84.0,11,340,10.0,0.0
13340,84.0,0,350,0.0,0.0
13341,81.0,1,230,0.0,0.0
13342,69.0,3,50,11.0,0.0
13343,48.0,0,240,4.0,0.0
13344,81.0,0,230,1.0,0.0
13345,75.0,1,230,1.0,0.0
13346,60.0,0,240,4.0,0.0
13347,63.0,57,50,12.0,0.0
13348,72.0,0,230,2.0,0.0
13349,75.0,6,230,2.0,0.0
13350,60.0,46,0,5.0,0.0
13351,48.0,0,0,5.0,0.0
13352,63.0,1,230,3.0,0.0
13353,69.0,3,50,11.0,0.0
13354,63.0,7,50,12.0,0.0
13355,69.0,3,50,11.0,0.0
13356,72.0,0,120,6.0,0.0
13357,60.0,1,120,6.0,0.0
13358,63.0,56,50,12.0,0.0
13359,48.0,44,120,15.0,0.0
13360,42.0,1,110,13.0,0.0
13361,42.0,0,110,3.0,0.0
13362,30.0,1,110,14.0,0.0
13363,69.0,2,50,11.0,0.0
13364,63.0,1,50,12.0,0.0
13365,79.0,1,110,0.0,0.0
13366,71.0,3,50,11.0,0.0
13367,55.0,0,120,6.0,0.0
13368,67.0,1,120,6.0,0.0
13369,62.0,0,120,7.0,0.0
13370,79.0,1,110,1.0,0.0
13371,74.0,0,110,1.0,0.0
13372,62.0,45,50,12.0,0.0
13373,74.0,0,110,2.0,0.0
13374,71.0,7,110,2.0,0.0
13375,43.0,1,120,5.0,0.0
13376,59.0,1,120,7.0,0.0
13377,43.0,5,120,15.0,0.0
13378,43.0,2,350,13.0,0.0
13379,55.0,39,120,8.0,0.0
13380,43.0,1,350,3.0,0.0
13381,62.0,0,110,3.0,0.0
13382,31.0,47,350,14.0,0.0
13383,67.0,2,50,11.0,0.0
13384,62.0,1,50,12.0,0.0
13385,83.0,51,60,10.0,0.0
13386,79.0,1,110,0.0,0.0
13387,83.0,0,110,0.0,0.0
13388,67.0,3,50,11.0,0.0
13389,79.0,0,110,1.0,0.0
13390,67.0,0,0,4.0,0.0
13391,55.0,2,0,4.0,0.0
13392,74.0,1,110,1.0,0.0
13393,62.0,5,50,12.0,0.0
13394,55.0,0,0,5.0,0.0
13395,71.0,8,110,2.0,0.0
13396,74.0,0,110,2.0,0.0
13397,62.0,0,120,5.0,0.0
13398,62.0,2,110,3.0,0.0
13399,67.0,2,50,11.0,0.0
13400,62.0,1,50,12.0,0.0
13401,86.0,11,340,10.0,0.0
13402,86.0,1,350,0.0,0.0
13403,79.0,0,350,0.0,0.0
13404,67.0,3,50,11.0,0.0
13405,55.0,0,360,4.0,0.0
13406,77.0,1,230,1.0,0.0
13407,67.0,0,0,4.0,0.0
13408,79.0,0,350,1.0,0.0
13409,65.0,57,50,12.0,0.0
13410,74.0,0,230,2.0,0.0
13411,62.0,0,240,5.0,0.0
13412,77.0,6,230,2.0,0.0
13413,65.0,2,240,5.0,0.0
13414,65.0,0,230,3.0,0.0
13415,67.0,3,50,11.0,0.0
13416,65.0,7,50,12.0,0.0
13417,67.0,3,50,11.0,0.0
13418,67.0,1,120,6.0,0.0
13419,55.0,0,120,6.0,0.0
13420,65.0,57,50,12.0,0.0
13421,43.0,44,120,15.0,0.0
13422,47.0,1,110,13.0,0.0
13423,47.0,1,110,3.0,0.0
13424,35.0,1,110,14.0,0.0
13425,67.0,2,50,11.0,0.0
13426,65.0,1,50,12.0,0.0
13427,67.0,3,50,11.0,0.0
13428,60.0,0,120,6.0,0.0
13429,72.0,1,120,6.0,0.0
13430,76.0,1,110,1.0,0.0
13431,64.0,2,120,7.0,0.0
13432,64.0,45,50,12.0,0.0
13433,76.0,7,110,2.0,0.0
13434,64.0,1,120,5.0,0.0
13435,72.0,0,110,2.0,0.0
13436,60.0,1,120,7.0,0.0
13437,48.0,5,120,15.0,0.0
13438,48.0,2,350,13.0,0.0
13439,48.0,39,120,8.0,0.0
13440,48.0,1,350,3.0,0.0
13441,64.0,0,110,3.0,0.0
13442,36.0,47,350,14.0,0.0
13443,67.0,2,50,11.0,0.0
13444,64.0,1,50,12.0,0.0
13445,84.0,51,60,10.0,0.0
13446,84.0,1,110,0.0,0.0
13447,79.0,0,110,0.0,0.0
13448,67.0,3,50,11.0,0.0
13449,55.0,0,120,4.0,0.0
13450,67.0,0,0,4.0,0.0
13451,76.0,1,110,1.0,0.0
13452,79.0,0,110,1.0,0.0
13453,64.0,5,50,12.0,0.0
13454,76.0,0,110,2.0,0.0
13455,60.0,0,0,5.0,0.0
13456,72.0,8,110,2.0,0.0
13457,64.0,2,110,3.0,0.0
13458,67.0,2,50,11.0,0.0
13459,64.0,1,50,12.0,0.0
13460,84.0,11,340,10.0,0.0
13461,84.0,0,350,0.0,0.0
13462,81.0,1,230,0.0,0.0
13463,69.0,3,50,11.0,0.0
13464,75.0,1,230,1.0,0.0
13465,81.0,0,230,1.0,0.0
13466,48.0,0,240,4.0,0.0
13467,60.0,1,240,4.0,0.0
13468,63.0,57,50,12.0,0.0
13469,75.0,6,230,2.0,0.0
13470,72.0,7,350,2.0,0.0
13471,48.0,46,0,5.0,0.0
13472,60.0,0,240,5.0,0.0
13473,63.0,0,230,3.0,0.0
13474,69.0,3,50,11.0,0.0
13475,63.0,7,50,12.0,0.0
13476,69.0,3,50,11.0,0.0
13477,72.0,1,120,6.0,0.0
13478,60.0,0,120,6.0,0.0
13479,63.0,56,50,12.0,0.0
13480,48.0,44,120,15.0,0.0
13481,42.0,1,110,13.0,0.0
13482,42.0,0,110,3.0,0.0
13483,30.0,1,110,14.0,0.0
13484,69.0,2,50,11.0,0.0
13485,63.0,1,50,12.0,0.0
13486,79.0,1,110,0.0,0.0
13487,67.0,3,50,11.0,0.0
13488,67.0,0,120,6.0,0.0
13489,55.0,1,120,6.0,0.0
13490,79.0,0,110,1.0,0.0
13491,74.0,1,110,1.0,0.0
13492,67.0,0,120,7.0,0.0
13493,67.0,0,120,4.0,0.0
13494,55.0,0,120,4.0,0.0
13495,62.0,45,50,12.0,0.0
13496,43.0,1,120,5.0,0.0
13497,55.0,0,120,5.0,0.0
13498,74.0,0,110,2.0,0.0
13499,55.0,1,120,7.0,0.0
13500,43.0,5,120,15.0,0.0
13501,43.0,2,350,13.0,0.0
13502,43.0,39,120,8.0,0.0
13503,62.0,2,110,3.0,0.0
13504,43.0,1,350,3.0,0.0
13505,31.0,47,350,14.0,0.0
13506,67.0,2,50,11.0,0.0
13507,62.0,1,50,12.0,0.0
13508,83.0,51,60,10.0,0.0
13509,79.0,1,110,0.0,0.0
13510,83.0,0,110,0.0,0.0
13511,67.0,3,50,11.0,0.0
13512,79.0,0,110,1.0,0.0
13513,67.0,0,120,4.0,0.0
13514,74.0,1,110,1.0,0.0
13515,55.0,0,120,4.0,0.0
13516,62.0,5,50,12.0,0.0
13517,74.0,8,110,2.0,0.0
13518,71.0,0,110,2.0,0.0
13519,43.0,46,120,5.0,0.0
13520,55.0,0,120,5.0,0.0
13521,62.0,2,110,3.0,0.0
13522,67.0,2,50,11.0,0.0
13523,62.0,1,50,12.0,0.0
13524,84.0,11,340,10.0,0.0
13525,81.0,1,230,0.0,0.0
13526,84.0,1,350,0.0,0.0
13527,69.0,3,50,11.0,0.0
13528,48.0,0,240,4.0,0.0
13529,60.0,0,240,4.0,0.0
13530,75.0,1,230,1.0,0.0
13531,81.0,0,230,1.0,0.0
13532,63.0,57,50,12.0,0.0
13533,75.0,6,230,2.0,0.0
13534,72.0,0,350,2.0,0.0
13535,60.0,2,240,5.0,0.0
13536,48.0,0,240,5.0,0.0
13537,63.0,0,230,3.0,0.0
13538,69.0,3,50,11.0,0.0
13539,63.0,7,50,12.0,0.0
13540,69.0,3,50,11.0,0.0
13541,72.0,0,120,6.0,0.0
13542,60.0,1,120,6.0,0.0
13543,63.0,56,50,12.0,0.0
13544,48.0,44,120,15.0,0.0
13545,42.0,1,110,13.0,0.0
13546,42.0,1,110,3.0,0.0
13547,30.0,1,110,14.0,0.0
13548,69.0,2,50,11.0,0.0
13549,63.0,1,50,12.0,0.0
13550,79.0,0,110,0.0,0.0
13551,67.0,3,50,11.0,0.0
13552,55.0,0,120,6.0,0.0
13553,67.0,1,120,6.0,0.0
13554,67.0,0,120,7.0,0.0
13555,79.0,1,110,1.0,0.0
13556,74.0,0,110,1.0,0.0
13557,67.0,0,120,4.0,0.0
13558,55.0,0,120,4.0,0.0
13559,62.0,45,50,12.0,0.0
13560,74.0,7,110,2.0,0.0
13561,55.0,1,120,7.0,0.0
13562,43.0,5,120,15.0,0.0
13563,43.0,2,350,13.0,0.0
13564,43.0,39,120,8.0,0.0
13565,43.0,1,350,3.0,0.0
13566,62.0,2,110,3.0,0.0
13567,31.0,47,350,14.0,0.0
13568,67.0,2,50,11.0,0.0
13569,62.0,1,50,12.0,0.0
13570,83.0,51,60,10.0,0.0
13571,79.0,0,110,0.0,0.0
13572,83.0,1,110,0.0,0.0
13573,67.0,3,50,11.0,0.0
13574,79.0,0,110,1.0,0.0
13575,67.0,0,120,4.0,0.0
13576,55.0,0,120,4.0,0.0
13577,74.0,1,110,1.0,0.0
13578,62.0,5,50,12.0,0.0
13579,74.0,0,110,2.0,0.0
13580,71.0,8,110,2.0,0.0
13581,43.0,1,0,5.0,0.0
13582,55.0,0,0,5.0,0.0
13583,62.0,2,110,3.0,0.0
13584,67.0,2,50,11.0,0.0
13585,62.0,1,50,12.0,0.0
13586,84.0,11,220,10.0,0.0
13587,84.0,1,230,0.0,0.0
13588,81.0,0,230,0.0,0.0
13589,69.0,3,50,11.0,0.0
13590,75.0,1,230,1.0,0.0
13591,48.0,0,240,4.0,0.0
13592,60.0,0,240,4.0,0.0
13593,81.0,0,230,1.0,0.0
13594,63.0,57,50,12.0,0.0
13595,48.0,2,240,5.0,0.0
13596,75.0,6,230,2.0,0.0
13597,72.0,0,230,2.0,0.0
13598,60.0,0,240,5.0,0.0
13599,63.0,0,230,3.0,0.0
13600,69.0,3,50,11.0,0.0
13601,63.0,7,50,12.0,0.0
13602,69.0,3,50,11.0,0.0
13603,60.0,0,120,6.0,0.0
13604,72.0,1,120,6.0,0.0
13605,63.0,45,50,12.0,0.0
13606,48.0,52,120,15.0,0.0
13607,42.0,1,110,13.0,0.0
13608,42.0,1,110,3.0,0.0
13609,30.0,1,110,14.0,0.0
13610,69.0,2,50,11.0,0.0
13611,63.0,1,50,12.0,0.0
13612,83.0,1,60,10.0,0.0
13613,79.0,0,60,0.0,0.0
13614,83.0,1,60,0.0,0.0
13615,67.0,1,60,11.0,0.0
13616,67.0,1,60,6.0,0.0
13617,55.0,0,60,6.0,0.0
13618,71.0,0,60,1.0,0.0
13619,67.0,0,120,4.0,0.0
13620,67.0,2,120,7.0,0.0
13621,74.0,1,60,1.0,0.0
13622,62.0,1,60,12.0,0.0
13623,43.0,1,120,5.0,0.0
13624,67.0,0,60,2.0,0.0
13625,71.0,2,60,2.0,0.0
13626,55.0,0,120,5.0,0.0
13627,55.0,1,120,7.0,0.0
13628,43.0,4,60,15.0,0.0
13629,43.0,2,60,13.0,0.0
13630,43.0,47,120,8.0,0.0
13631,62.0,1,60,3.0,0.0
13632,59.0,0,60,3.0,0.0
13633,31.0,36,60,14.0,0.0
13634,84.0,2,52,10.0,0.0
13635,81.0,1,50,0.0,0.0
13636,84.0,0,50,0.0,0.0
13637,69.0,0,52,11.0,0.0
13638,72.0,1,60,6.0,0.0
13639,60.0,0,60,6.0,0.0
13640,72.0,2,50,1.0,0.0
13641,81.0,0,50,1.0,0.0
13642,63.0,6,52,12.0,0.0
13643,69.0,0,50,2.0,0.0
13644,72.0,1,50,2.0,0.0
13645,48.0,5,60,15.0,0.0
13646,42.0,0,52,13.0,0.0
13647,63.0,0,50,3.0,0.0
13648,60.0,0,50,3.0,0.0
13649,30.0,0,52,14.0,0.0
13650,83.0,1,60,10.0,0.0
13651,79.0,0,60,0.0,0.0
13652,83.0,1,60,0.0,0.0
13653,67.0,1,60,11.0,0.0
13654,67.0,1,60,6.0,0.0
13655,55.0,0,60,6.0,0.0
13656,71.0,0,60,1.0,0.0
13657,79.0,1,60,1.0,0.0
13658,55.0,0,0,4.0,0.0
13659,67.0,0,120,4.0,0.0
13660,62.0,1,60,12.0,0.0
13661,55.0,1,120,5.0,0.0
13662,71.0,2,60,2.0,0.0
13663,67.0,0,60,2.0,0.0
13664,43.0,4,60,15.0,0.0
13665,43.0,2,60,13.0,0.0
13666,62.0,0,60,3.0,0.0
13667,59.0,1,60,3.0,0.0
13668,31.0,36,60,14.0,0.0
13669,84.0,2,52,10.0,0.0
13670,81.0,1,50,0.0,0.0
13671,84.0,0,50,0.0,0.0
13672,69.0,0,52,11.0,0.0
13673,72.0,0,60,6.0,0.0
13674,60.0,1,60,6.0,0.0
13675,81.0,2,50,1.0,0.0
13676,72.0,0,50,1.0,0.0
13677,63.0,6,52,12.0,0.0
13678,69.0,0,50,2.0,0.0
13679,72.0,1,50,2.0,0.0
13680,48.0,52,60,15.0,0.0
13681,42.0,2,52,13.0,0.0
13682,63.0,0,50,3.0,0.0
13683,60.0,0,50,3.0,0.0
13684,30.0,1,52,14.0,0.0
13685,83.0,1,60,10.0,0.0
13686,83.0,1,60,0.0,0.0
13687,79.0,0,60,0.0,0.0
13688,67.0,1,60,11.0,0.0
13689,67.0,1,60,6.0,0.0
13690,55.0,0,60,6.0,0.0
13691,71.0,1,60,1.0,0.0
13692,67.0,0,120,7.0,0.0
13693,79.0,0,60,1.0,0.0
13694,62.0,1,60,12.0,0.0
13695,43.0,0,0,5.0,0.0
13696,67.0,0,60,2.0,0.0
13697,71.0,2,60,2.0,0.0
13698,55.0,0,120,7.0,0.0
13699,43.0,4,60,15.0,0.0
13700,43.0,2,60,13.0,0.0
13701,43.0,47,120,8.0,0.0
13702,59.0,0,60,3.0,0.0
13703,62.0,1,60,3.0,0.0
13704,31.0,36,60,14.0,0.0
13705,84.0,2,52,10.0,0.0
13706,81.0,1,50,0.0,0.0
13707,84.0,0,50,0.0,0.0
13708,69.0,0,52,11.0,0.0
13709,72.0,1,60,6.0,0.0
13710,60.0,0,60,6.0,0.0
13711,81.0,0,50,1.0,0.0
13712,72.0,2,50,1.0,0.0
13713,63.0,6,52,12.0,0.0
13714,69.0,0,50,2.0,0.0
13715,72.0,1,50,2.0,0.0
13716,48.0,5,60,15.0,0.0
13717,42.0,0,52,13.0,0.0
13718,63.0,0,50,3.0,0.0
13719,60.0,0,50,3.0,0.0
13720,30.0,1,52,14.0,0.0
13721,83.0,1,60,10.0,0.0
13722,83.0,1,60,0.0,0.0
13723,79.0,0,60,0.0,0.0
13724,67.0,1,60,11.0,0.0
13725,55.0,1,60,6.0,0.0
13726,67.0,0,60,6.0,0.0
13727,67.0,2,0,4.0,0.0
13728,79.0,1,60,1.0,0.0
13729,71.0,0,60,1.0,0.0
13730,55.0,0,0,4.0,0.0
13731,62.0,1,60,12.0,0.0
13732,67.0,2,60,2.0,0.0
13733,43.0,0,0,5.0,0.0
13734,55.0,1,0,5.0,0.0
13735,71.0,0,60,2.0,0.0
13736,43.0,4,60,15.0,0.0
13737,43.0,2,60,13.0,0.0
13738,62.0,0,60,3.0,0.0
13739,59.0,1,60,3.0,0.0
13740,31.0,36,60,14.0,0.0
13741,84.0,2,52,10.0,0.0
13742,81.0,0,50,0.0,0.0
13743,84.0,1,50,0.0,0.0
13744,69.0,0,52,11.0,0.0
13745,60.0,1,60,6.0,0.0
13746,72.0,0,60,6.0,0.0
13747,81.0,0,50,1.0,0.0
13748,72.0,2,50,1.0,0.0
13749,63.0,6,52,12.0,0.0
13750,69.0,1,50,2.0,0.0
13751,72.0,0,50,2.0,0.0
13752,48.0,52,60,15.0,0.0
13753,42.0,0,52,13.0,0.0
13754,63.0,0,50,3.0,0.0
13755,60.0,0,50,3.0,0.0
13756,30.0,1,52,14.0,0.0
13757,83.0,1,60,10.0,0.0
13758,83.0,0,60,0.0,0.0
13759,79.0,1,60,0.0,0.0
13760,67.0,1,60,11.0,0.0
13761,67.0,0,60,6.0,0.0
13762,55.0,1,60,6.0,0.0
13763,67.0,0,120,7.0,0.0
13764,79.0,0,60,1.0,0.0
13765,71.0,1,60,1.0,0.0
13766,55.0,0,0,4.0,0.0
13767,67.0,2,0,4.0,0.0
13768,62.0,1,60,12.0,0.0
13769,43.0,1,120,5.0,0.0
13770,55.0,0,120,5.0,0.0
13771,71.0,0,60,2.0,0.0
13772,67.0,2,60,2.0,0.0
13773,55.0,0,120,7.0,0.0
13774,43.0,4,60,15.0,0.0
13775,43.0,2,60,13.0,0.0
13776,43.0,47,120,8.0,0.0
13777,62.0,0,60,3.0,0.0
13778,59.0,1,60,3.0,0.0
13779,31.0,36,60,14.0,0.0
13780,84.0,2,52,10.0,0.0
13781,84.0,0,50,0.0,0.0
13782,81.0,1,50,0.0,0.0
13783,69.0,0,52,11.0,0.0
13784,60.0,1,60,6.0,0.0
13785,72.0,0,60,6.0,0.0
13786,72.0,2,50,1.0,0.0
13787,81.0,0,50,1.0,0.0
13788,63.0,6,52,12.0,0.0
13789,72.0,1,50,2.0,0.0
13790,69.0,0,50,2.0,0.0
13791,48.0,5,60,15.0,0.0
13792,42.0,0,52,13.0,0.0
13793,60.0,0,50,3.0,0.0
13794,63.0,0,50,3.0,0.0
13795,30.0,1,52,14.0,0.0
13796,83.0,1,60,10.0,0.0
13797,79.0,0,60,0.0,0.0
13798,83.0,1,60,0.0,0.0
13799,67.0,1,60,11.0,0.0
13800,55.0,0,60,6.0,0.0
13801,67.0,1,60,6.0,0.0
13802,67.0,2,0,4.0,0.0
13803,55.0,0,0,4.0,0.0
13804,79.0,1,60,1.0,0.0
13805,71.0,0,60,1.0,0.0
13806,62.0,1,60,12.0,0.0
13807,67.0,2,60,2.0,0.0
13808,55.0,0,120,5.0,0.0
13809,71.0,0,60,2.0,0.0
13810,43.0,4,60,15.0,0.0
13811,43.0,2,60,13.0,0.0
13812,62.0,1,60,3.0,0.0
13813,59.0,0,60,3.0,0.0
13814,31.0,36,60,14.0,0.0
13815,84.0,2,52,10.0,0.0
13816,81.0,1,50,0.0,0.0
13817,84.0,0,50,0.0,0.0
13818,69.0,0,52,11.0,0.0
13819,72.0,0,60,6.0,0.0
13820,60.0,1,60,6.0,0.0
13821,72.0,0,50,1.0,0.0
13822,81.0,2,50,1.0,0.0
13823,63.0,6,52,12.0,0.0
13824,69.0,0,50,2.0,0.0
13825,72.0,1,50,2.0,0.0
13826,48.0,52,60,15.0,0.0
13827,42.0,0,52,13.0,0.0
13828,60.0,0,50,3.0,0.0
13829,63.0,2,50,3.0,0.0
13830,30.0,1,52,14.0,0.0
13831,83.0,1,60,10.0,0.0
13832,83.0,1,60,0.0,0.0
13833,79.0,0,60,0.0,0.0
13834,67.0,1,60,11.0,0.0
13835,55.0,1,60,6.0,0.0
13836,67.0,0,60,6.0,0.0
13837,71.0,1,60,1.0,0.0
13838,67.0,0,0,4.0,0.0
13839,55.0,0,0,4.0,0.0
13840,67.0,0,120,7.0,0.0
13841,79.0,0,60,1.0,0.0
13842,62.0,1,60,12.0,0.0
13843,67.0,0,60,2.0,0.0
13844,43.0,1,0,5.0,0.0
13845,71.0,2,60,2.0,0.0
13846,55.0,0,120,5.0,0.0
13847,55.0,1,120,7.0,0.0
13848,43.0,4,60,15.0,0.0
13849,43.0,2,60,13.0,0.0
13850,43.0,47,120,8.0,0.0
13851,62.0,1,60,3.0,0.0
13852,59.0,0,60,3.0,0.0
13853,31.0,36,60,14.0,0.0
13854,84.0,2,52,10.0,0.0
13855,81.0,0,50,0.0,0.0
13856,84.0,1,50,0.0,0.0
13857,69.0,0,52,11.0,0.0
13858,60.0,1,60,6.0,0.0
13859,72.0,0,60,6.0,0.0
13860,81.0,2,50,1.0,0.0
13861,72.0,0,50,1.0,0.0
13862,63.0,6,52,12.0,0.0
13863,69.0,0,50,2.0,0.0
13864,72.0,1,50,2.0,0.0
13865,48.0,5,60,15.0,0.0
13866,42.0,2,52,13.0,0.0
13867,60.0,0,50,3.0,0.0
13868,63.0,0,50,3.0,0.0
13869,30.0,0,52,14.0,0.0
13870,83.0,1,60,10.0,0.0
13871,79.0,0,60,0.0,0.0
13872,83.0,1,60,0.0,0.0
13873,67.0,1,60,11.0,0.0
13874,67.0,0,60,6.0,0.0
13875,55.0,1,60,6.0,0.0
13876,67.0,0,0,4.0,0.0
13877,79.0,0,60,1.0,0.0
13878,71.0,1,60,1.0,0.0
13879,55.0,0,0,4.0,0.0
13880,62.0,1,60,12.0,0.0
13881,67.0,2,60,2.0,0.0
13882,71.0,0,60,2.0,0.0
13883,43.0,4,60,15.0,0.0
13884,43.0,2,60,13.0,0.0
13885,59.0,0,60,3.0,0.0
13886,62.0,1,60,3.0,0.0
13887,31.0,36,60,14.0,0.0
13888,84.0,2,52,10.0,0.0
13889,84.0,1,50,0.0,0.0
13890,81.0,0,50,0.0,0.0
13891,69.0,2,52,11.0,0.0
13892,72.0,1,60,6.0,0.0
13893,60.0,0,60,6.0,0.0
13894,81.0,0,50,1.0,0.0
13895,72.0,0,50,1.0,0.0
13896,63.0,6,52,12.0,0.0
13897,72.0,1,50,2.0,0.0
13898,69.0,0,50,2.0,0.0
13899,48.0,112,60,15.0,0.0
13900,42.0,0,52,13.0,0.0
13901,60.0,0,50,3.0,0.0
13902,63.0,2,50,3.0,0.0
13903,30.0,1,52,14.0,0.0
13904,83.0,1,120,10.0,0.0
13905,79.0,1,120,0.0,0.0
13906,83.0,0,120,0.0,0.0
13907,67.0,1,120,11.0,0.0
13908,67.0,0,120,6.0,0.0
13909,55.0,1,120,6.0,0.0
13910,79.0,1,120,1.0,0.0
13911,71.0,0,120,1.0,0.0
13912,67.0,0,120,7.0,0.0
13913,55.0,0,0,4.0,0.0
13914,67.0,0,0,4.0,0.0
13915,62.0,1,120,12.0,0.0
13916,55.0,1,0,5.0,0.0
13917,43.0,0,0,5.0,0.0
13918,71.0,0,120,2.0,0.0
13919,67.0,0,120,2.0,0.0
13920,55.0,1,120,7.0,0.0
13921,43.0,5,120,15.0,0.0
13922,43.0,3,1680,13.0,0.0
13923,43.0,1,120,8.0,0.0
13924,62.0,1312,120,3.0,0.0
13925,59.0,0,120,3.0,0.0
13926,31.0,117,1680,14.0,0.0
13927,64.0,246,480,5.0,0.0
13928,60.0,0,480,5.0,0.0
13929,55.0,6,720,10.0,0.0
13930,67.0,114,720,2.0,0.0
13931,62.0,0,480,5.0,0.0
13932,55.0,234,480,5.0,0.0
13933,45.0,3,120,13.0,0.0
13934,33.0,107,120,14.0,0.0
13935,47.0,3,110,13.0,0.0
13936,35.0,1,110,14.0,0.0
13937,52.0,114,720,5.0,0.0
13938,48.0,3,710,13.0,0.0
13939,36.0,1,710,14.0,0.0
13940,57.0,6,120,10.0,0.0
13941,69.0,114,120,2.0,0.0
13942,59.0,6,120,10.0,0.0
13943,71.0,234,120,2.0,0.0
13944,60.0,2,240,10.0,0.0
13945,72.0,0,240,2.0,0.0
13946,62.0,6,120,10.0,0.0
13947,74.0,104,120,2.0,0.0
13948,60.0,0,0,5.0,0.0
13949,48.0,0,240,5.0,0.0
13950,47.0,3,230,13.0,0.0
13951,35.0,1,230,14.0,0.0
13952,64.0,12,110,10.0,0.0
13953,76.0,114,120,2.0,0.0
13954,67.0,6,120,10.0,0.0
13955,60.0,0,0,5.0,0.0
13956,79.0,104,120,2.0,0.0
13957,45.0,3,230,13.0,0.0
13958,33.0,1,230,14.0,0.0
13959,65.0,12,110,10.0,0.0
13960,77.0,0,120,2.0,0.0
13961,65.0,12,230,10.0,0.0
13962,60.0,224,0,5.0,0.0
13963,48.0,0,0,5.0,0.0
13964,45.0,3,230,13.0,0.0
13965,33.0,1,230,14.0,0.0
13966,65.0,12,230,10.0,0.0
13967,77.0,0,0,2.0,0.0
13968,60.0,0,240,5.0,0.0
13969,45.0,3,230,13.0,0.0
13970,33.0,1,230,14.0,0.0
13971,64.0,12,230,10.0,0.0
13972,76.0,156,240,2.0,0.0
13973,48.0,224,0,5.0,0.0
13974,60.0,0,240,5.0,0.0
13975,43.0,3,230,13.0,0.0
13976,31.0,1,230,14.0,0.0
13977,63.0,12,950,10.0,0.0
13978,75.0,8,960,2.0,0.0
13979,60.0,0,960,5.0,0.0
13980,48.0,0,0,5.0,0.0
13981,42.0,3,950,13.0,0.0
13982,30.0,1,950,14.0,0.0
13983,69.0,3,80,11.0,0.0
13984,57.0,67,80,12.0,0.0
13985,72.0,3,70,11.0,0.0
13986,60.0,47,70,12.0,0.0
13987,75.0,3,40,11.0,0.0
13988,63.0,77,40,12.0,0.0
13989,69.0,3,40,11.0,0.0
13990,57.0,77,40,12.0,0.0
13991,72.0,3,40,11.0,0.0
13992,60.0,197,40,12.0,0.0
13993,56.0,106,960,3.0,0.0
13994,60.0,118,480,3.0,0.0
13995,68.0,3,80,11.0,0.0
13996,56.0,67,80,12.0,0.0
13997,72.0,3,70,11.0,0.0
13998,60.0,47,70,12.0,0.0
13999,75.0,3,40,11.0,0.0
14000,63.0,77,40,12.0,0.0
14001,68.0,3,40,11.0,0.0
14002,56.0,77,40,12.0,0.0
14003,72.0,3,40,11.0,0.0
14004,60.0,25,40,12.0,0.0
14005,65.0,6,480,10.0,0.0
14006,77.0,8,480,2.0,0.0
14007,41.0,3,120,13.0,0.0
14008,61.0,28,720,3.0,0.0
14009,29.0,27,120,14.0,0.0
14010,68.0,3,80,11.0,0.0
14011,56.0,67,80,12.0,0.0
14012,73.0,3,70,11.0,0.0
14013,61.0,47,70,12.0,0.0
14014,77.0,3,40,11.0,0.0
14015,65.0,77,40,12.0,0.0
14016,49.0,3,120,13.0,0.0
14017,37.0,67,120,14.0,0.0
14018,68.0,3,40,11.0,0.0
14019,56.0,7,40,12.0,0.0
14020,73.0,3,40,11.0,0.0
14021,61.0,35,40,12.0,0.0
14022,68.0,6,120,10.0,0.0
14023,80.0,6,120,2.0,0.0
14024,46.0,3,120,13.0,0.0
14025,58.0,118,480,3.0,0.0
14026,34.0,27,120,14.0,0.0
14027,63.0,3,80,11.0,0.0
14028,51.0,67,80,12.0,0.0
14029,66.0,6,120,10.0,0.0
14030,78.0,8,120,2.0,0.0
14031,66.0,3,70,11.0,0.0
14032,54.0,5,70,12.0,0.0
14033,70.0,3,40,11.0,0.0
14034,58.0,77,40,12.0,0.0
14035,42.0,3,120,13.0,0.0
14036,30.0,67,120,14.0,0.0
14037,63.0,3,40,11.0,0.0
14038,51.0,7,40,12.0,0.0
14039,58.0,16,110,10.0,0.0
14040,70.0,8,120,2.0,0.0
14041,66.0,3,40,11.0,0.0
14042,54.0,25,40,12.0,0.0
14043,61.0,6,480,10.0,0.0
14044,73.0,8,480,2.0,0.0
14045,44.0,3,120,13.0,0.0
14046,65.0,0,480,3.0,0.0
14047,56.0,28,240,3.0,0.0
14048,32.0,27,120,14.0,0.0
14049,65.0,3,80,11.0,0.0
14050,53.0,67,80,12.0,0.0
14051,68.0,3,70,11.0,0.0
14052,56.0,19,70,12.0,0.0
14053,68.0,3,40,11.0,0.0
14054,56.0,77,40,12.0,0.0
14055,67.0,6,120,2.0,0.0
14056,56.0,2,120,13.0,0.0
14057,55.0,1,120,3.0,0.0
14058,44.0,67,120,14.0,0.0
14059,68.0,3,40,11.0,0.0
14060,56.0,1,40,12.0,0.0
14061,68.0,3,40,11.0,0.0
14062,56.0,35,40,12.0,0.0
14063,60.0,2,120,10.0,0.0
14064,68.0,3,40,11.0,0.0
14065,56.0,75,40,12.0,0.0
14066,68.0,0,0,2.0,0.0
14067,72.0,0,120,2.0,0.0
14068,63.0,68,120,3.0,0.0
14069,56.0,28,0,3.0,0.0
14070,63.0,3,40,11.0,0.0
14071,51.0,1,40,12.0,0.0
14072,68.0,3,40,11.0,0.0
14073,56.0,77,40,12.0,0.0
14074,68.0,3,40,11.0,0.0
14075,56.0,77,40,12.0,0.0
14076,56.0,3,120,13.0,0.0
14077,44.0,67,120,14.0,0.0
14078,63.0,3,40,11.0,0.0
14079,51.0,7,40,12.0,0.0
14080,68.0,3,40,11.0,0.0
14081,56.0,167,40,12.0,0.0
14082,66.0,6,480,10.0,0.0
14083,78.0,8,480,2.0,0.0
14084,54.0,3,120,13.0,0.0
14085,63.0,28,720,3.0,0.0
14086,58.0,106,480,3.0,0.0
14087,42.0,27,120,14.0,0.0
14088,70.0,3,80,11.0,0.0
14089,58.0,67,80,12.0,0.0
14090,75.0,3,70,11.0,0.0
14091,63.0,47,70,12.0,0.0
14092,78.0,3,40,11.0,0.0
14093,66.0,77,40,12.0,0.0
14094,51.0,3,120,13.0,0.0
14095,39.0,67,120,14.0,0.0
14096,70.0,3,40,11.0,0.0
14097,58.0,7,40,12.0,0.0
14098,75.0,3,40,11.0,0.0
14099,63.0,35,40,12.0,0.0
14100,70.0,6,120,10.0,0.0
14101,82.0,6,120,2.0,0.0
14102,47.0,3,120,13.0,0.0
14103,59.0,0,480,3.0,0.0
14104,35.0,27,120,14.0,0.0
14105,65.0,3,80,11.0,0.0
14106,53.0,67,80,12.0,0.0
14107,68.0,6,120,10.0,0.0
14108,80.0,8,120,2.0,0.0
14109,68.0,3,70,11.0,0.0
14110,56.0,5,70,12.0,0.0
14111,71.0,3,40,11.0,0.0
14112,59.0,77,40,12.0,0.0
14113,44.0,3,120,13.0,0.0
14114,65.0,118,240,3.0,0.0
14115,32.0,67,120,14.0,0.0
14116,65.0,3,40,11.0,0.0
14117,53.0,7,40,12.0,0.0
14118,59.0,16,110,10.0,0.0
14119,71.0,8,120,2.0,0.0
14120,68.0,3,40,11.0,0.0
14121,56.0,25,40,12.0,0.0
14122,63.0,6,480,10.0,0.0
14123,75.0,0,480,2.0,0.0
14124,46.0,3,120,13.0,0.0
14125,58.0,28,240,3.0,0.0
14126,66.0,8,480,3.0,0.0
14127,34.0,27,120,14.0,0.0
14128,66.0,3,80,11.0,0.0
14129,54.0,67,80,12.0,0.0
14130,70.0,3,70,11.0,0.0
14131,58.0,19,70,12.0,0.0
14132,70.0,3,40,11.0,0.0
14133,58.0,77,40,12.0,0.0
14134,69.0,6,120,2.0,0.0
14135,58.0,2,120,13.0,0.0
14136,57.0,1,120,3.0,0.0
14137,46.0,67,120,14.0,0.0
14138,70.0,3,40,11.0,0.0
14139,58.0,1,40,12.0,0.0
14140,58.0,0,120,3.0,0.0
14141,70.0,3,40,11.0,0.0
14142,58.0,35,40,12.0,0.0
14143,62.0,62,120,10.0,0.0
14144,70.0,3,20,11.0,0.0
14145,58.0,77,20,12.0,0.0
14146,70.0,8,0,2.0,0.0
14147,74.0,8,240,2.0,0.0
14148,58.0,0,240,3.0,0.0
14149,65.0,8,240,3.0,0.0
14150,65.0,3,20,11.0,0.0
14151,53.0,15,20,12.0,0.0
14152,70.0,3,20,11.0,0.0
14153,58.0,61,20,12.0,0.0
14154,70.0,1,120,10.0,0.0
14155,82.0,5,120,0.0,0.0
14156,70.0,3,20,11.0,0.0
14157,58.0,77,20,12.0,0.0
14158,65.0,6,120,2.0,0.0
14159,70.0,0,0,2.0,0.0
14160,58.0,2,120,13.0,0.0
14161,58.0,0,240,3.0,0.0
14162,53.0,1,120,3.0,0.0
14163,46.0,47,120,14.0,0.0
14164,70.0,3,20,11.0,0.0
14165,58.0,15,20,12.0,0.0
14166,61.0,11,110,10.0,0.0
14167,73.0,5,120,0.0,0.0
14168,67.0,8,120,2.0,0.0
14169,55.0,88,120,3.0,0.0
14170,70.0,3,20,11.0,0.0
14171,58.0,45,20,12.0,0.0
14172,65.0,1,480,10.0,0.0
14173,77.0,5,480,0.0,0.0
14174,68.0,0,480,2.0,0.0
14175,72.0,8,240,2.0,0.0
14176,48.0,3,120,13.0,0.0
14177,60.0,8,240,3.0,0.0
14178,56.0,8,480,3.0,0.0
14179,36.0,47,120,14.0,0.0
14180,68.0,3,20,11.0,0.0
14181,56.0,27,20,12.0,0.0
14182,72.0,3,20,11.0,0.0
14183,60.0,61,20,12.0,0.0
14184,72.0,3,20,11.0,0.0
14185,60.0,77,20,12.0,0.0
14186,71.0,6,120,2.0,0.0
14187,60.0,2,120,13.0,0.0
14188,59.0,1,120,3.0,0.0
14189,48.0,47,120,14.0,0.0
14190,72.0,3,20,11.0,0.0
14191,60.0,21,20,12.0,0.0
14192,72.0,8,120,2.0,0.0
14193,60.0,0,120,3.0,0.0
14194,72.0,3,20,11.0,0.0
14195,60.0,55,20,12.0,0.0
14196,64.0,1,120,10.0,0.0
14197,76.0,5,120,0.0,0.0
14198,72.0,3,20,11.0,0.0
14199,60.0,77,20,12.0,0.0
14200,67.0,0,120,2.0,0.0
14201,72.0,8,120,2.0,0.0
14202,55.0,48,120,3.0,0.0
14203,60.0,0,120,3.0,0.0
14204,67.0,3,20,11.0,0.0
14205,55.0,15,20,12.0,0.0
14206,72.0,3,20,11.0,0.0
14207,60.0,77,20,12.0,0.0
14208,72.0,1,120,10.0,0.0
14209,84.0,11,120,0.0,0.0
14210,72.0,3,20,11.0,0.0
14211,60.0,77,20,12.0,0.0
14212,60.0,3,120,13.0,0.0
14213,48.0,47,120,14.0,0.0
14214,72.0,3,20,11.0,0.0
14215,60.0,15,20,12.0,0.0
14216,63.0,11,110,10.0,0.0
14217,75.0,57,120,0.0,0.0
14218,72.0,3,20,11.0,0.0
14219,60.0,45,20,12.0,0.0
14220,66.0,2,58,10.0,0.0
14221,78.0,1,600,0.0,0.0
14222,63.0,3,58,11.0,0.0
14223,57.0,7,58,12.0,0.0
14224,48.0,0,600,5.0,0.0
14225,60.0,6,600,5.0,0.0
14226,69.0,0,600,2.0,0.0
14227,48.0,3,58,13.0,0.0
14228,63.0,0,600,3.0,0.0
14229,60.0,1,600,3.0,0.0
14230,36.0,45,58,14.0,0.0
14231,66.0,2,58,10.0,0.0
14232,63.0,3,58,11.0,0.0
14233,57.0,7,58,12.0,0.0
14234,60.0,3,58,13.0,0.0
14235,48.0,45,58,14.0,0.0
14236,66.0,2,58,10.0,0.0
14237,63.0,3,58,11.0,0.0
14238,57.0,7,58,12.0,0.0
14239,60.0,3,58,13.0,0.0
14240,48.0,45,58,14.0,0.0
14241,66.0,2,58,10.0,0.0
14242,63.0,3,58,11.0,0.0
14243,57.0,7,58,12.0,0.0
14244,60.0,3,58,13.0,0.0
14245,48.0,45,58,14.0,0.0
14246,66.0,2,58,10.0,0.0
14247,63.0,3,58,11.0,0.0
14248,57.0,7,58,12.0,0.0
14249,60.0,3,58,13.0,0.0
14250,48.0,45,58,14.0,0.0
14251,66.0,2,58,10.0,0.0
14252,63.0,3,58,11.0,0.0
14253,57.0,7,58,12.0,0.0
14254,60.0,3,58,13.0,0.0
14255,48.0,45,58,14.0,0.0
14256,66.0,2,58,10.0,0.0
14257,63.0,3,58,11.0,0.0
14258,57.0,7,58,12.0,0.0
14259,60.0,3,58,13.0,0.0
14260,48.0,45,58,14.0,0.0
14261,66.0,2,58,10.0,0.0
14262,63.0,3,58,11.0,0.0
14263,57.0,7,58,12.0,0.0
14264,60.0,3,58,13.0,0.0
14265,48.0,107,58,14.0,0.0
14266,66.0,1,120,10.0,0.0
14267,63.0,3,120,11.0,0.0
14268,57.0,1,120,12.0,0.0
14269,60.0,2,120,13.0,0.0
14270,48.0,403,120,14.0,0.0
14271,67.0,2,58,10.0,0.0
14272,79.0,1,600,0.0,0.0
14273,62.0,3,58,11.0,0.0
14274,55.0,7,58,12.0,0.0
14275,55.0,6,600,5.0,0.0
14276,62.0,0,600,5.0,0.0
14277,71.0,0,600,2.0,0.0
14278,67.0,0,600,2.0,0.0
14279,47.0,3,58,13.0,0.0
14280,59.0,0,600,3.0,0.0
14281,62.0,1,600,3.0,0.0
14282,35.0,45,58,14.0,0.0
14283,67.0,2,58,10.0,0.0
14284,62.0,3,58,11.0,0.0
14285,55.0,7,58,12.0,0.0
14286,59.0,3,58,13.0,0.0
14287,47.0,45,58,14.0,0.0
14288,67.0,2,58,10.0,0.0
14289,62.0,3,58,11.0,0.0
14290,55.0,7,58,12.0,0.0
14291,59.0,3,58,13.0,0.0
14292,47.0,45,58,14.0,0.0
14293,67.0,2,58,10.0,0.0
14294,62.0,3,58,11.0,0.0
14295,55.0,7,58,12.0,0.0
14296,59.0,3,58,13.0,0.0
14297,47.0,45,58,14.0,0.0
14298,67.0,2,58,10.0,0.0
14299,62.0,3,58,11.0,0.0
14300,55.0,7,58,12.0,0.0
14301,59.0,3,58,13.0,0.0
14302,47.0,45,58,14.0,0.0
14303,67.0,2,58,10.0,0.0
14304,62.0,3,58,11.0,0.0
14305,55.0,7,58,12.0,0.0
14306,59.0,3,58,13.0,0.0
14307,47.0,45,58,14.0,0.0
14308,67.0,2,58,10.0,0.0
14309,62.0,3,58,11.0,0.0
14310,55.0,7,58,12.0,0.0
14311,59.0,3,58,13.0,0.0
14312,47.0,45,58,14.0,0.0
14313,67.0,2,58,10.0,0.0
14314,62.0,3,58,11.0,0.0
14315,55.0,7,58,12.0,0.0
14316,59.0,3,58,13.0,0.0
14317,47.0,107,58,14.0,0.0
14318,67.0,1,120,10.0,0.0
14319,62.0,3,120,11.0,0.0
14320,55.0,1,120,12.0,0.0
14321,59.0,2,120,13.0,0.0
14322,47.0,403,120,14.0,0.0
14323,67.0,0,58,10.0,0.0
14324,55.0,2,58,10.0,0.0
14325,62.0,3,58,11.0,0.0
14326,59.0,7,58,12.0,0.0
14327,55.0,0,3000,5.0,0.0
14328,43.0,55,3000,5.0,0.0
14329,41.0,3,58,13.0,0.0
14330,29.0,45,58,14.0,0.0
14331,67.0,2,58,10.0,0.0
14332,55.0,0,58,10.0,0.0
14333,62.0,3,58,11.0,0.0
14334,59.0,7,58,12.0,0.0
14335,53.0,3,58,13.0,0.0
14336,41.0,45,58,14.0,0.0
14337,67.0,2,58,10.0,0.0
14338,55.0,0,58,10.0,0.0
14339,62.0,3,58,11.0,0.0
14340,59.0,7,58,12.0,0.0
14341,53.0,3,58,13.0,0.0
14342,41.0,45,58,14.0,0.0
14343,67.0,2,58,10.0,0.0
14344,55.0,0,58,10.0,0.0
14345,62.0,3,58,11.0,0.0
14346,59.0,7,58,12.0,0.0
14347,53.0,3,58,13.0,0.0
14348,41.0,45,58,14.0,0.0
14349,67.0,2,58,10.0,0.0
14350,55.0,0,58,10.0,0.0
14351,62.0,3,58,11.0,0.0
14352,59.0,7,58,12.0,0.0
14353,53.0,3,58,13.0,0.0
14354,41.0,45,58,14.0,0.0
14355,55.0,0,58,10.0,0.0
14356,67.0,2,58,10.0,0.0
14357,62.0,3,58,11.0,0.0
14358,59.0,7,58,12.0,0.0
14359,53.0,3,58,13.0,0.0
14360,41.0,45,58,14.0,0.0
14361,67.0,0,58,10.0,0.0
14362,55.0,2,58,10.0,0.0
14363,62.0,3,58,11.0,0.0
14364,59.0,7,58,12.0,0.0
14365,53.0,3,58,13.0,0.0
14366,41.0,45,58,14.0,0.0
14367,55.0,0,58,10.0,0.0
14368,67.0,2,58,10.0,0.0
14369,62.0,3,58,11.0,0.0
14370,59.0,7,58,12.0,0.0
14371,53.0,3,58,13.0,0.0
14372,41.0,45,58,14.0,0.0
14373,67.0,0,58,10.0,0.0
14374,55.0,2,58,10.0,0.0
14375,62.0,3,58,11.0,0.0
14376,59.0,7,58,12.0,0.0
14377,53.0,3,58,13.0,0.0
14378,41.0,45,58,14.0,0.0
14379,55.0,0,58,10.0,0.0
14380,67.0,2,58,10.0,0.0
14381,62.0,3,58,11.0,0.0
14382,59.0,7,58,12.0,0.0
14383,53.0,3,58,13.0,0.0
14384,41.0,45,58,14.0,0.0
14385,55.0,2,58,10.0,0.0
14386,67.0,0,58,10.0,0.0
14387,62.0,3,58,11.0,0.0
14388,59.0,7,58,12.0,0.0
14389,53.0,3,58,13.0,0.0
14390,41.0,45,58,14.0,0.0
14391,55.0,2,58,10.0,0.0
14392,67.0,0,58,10.0,0.0
14393,62.0,3,58,11.0,0.0
14394,59.0,7,58,12.0,0.0
14395,53.0,3,58,13.0,0.0
14396,41.0,45,58,14.0,0.0
14397,67.0,0,58,10.0,0.0
14398,55.0,2,58,10.0,0.0
14399,62.0,3,58,11.0,0.0
14400,59.0,7,58,12.0,0.0
14401,53.0,3,58,13.0,0.0
14402,41.0,45,58,14.0,0.0
14403,55.0,0,58,10.0,0.0
14404,67.0,2,58,10.0,0.0
14405,62.0,3,58,11.0,0.0
14406,59.0,7,58,12.0,0.0
14407,53.0,3,58,13.0,0.0
14408,41.0,45,58,14.0,0.0
14409,67.0,0,58,10.0,0.0
14410,55.0,2,58,10.0,0.0
14411,62.0,3,58,11.0,0.0
14412,59.0,7,58,12.0,0.0
14413,53.0,3,58,13.0,0.0
14414,41.0,45,58,14.0,0.0
14415,55.0,0,58,10.0,0.0
14416,67.0,2,58,10.0,0.0
14417,62.0,3,58,11.0,0.0
14418,59.0,7,58,12.0,0.0
14419,53.0,3,58,13.0,0.0
14420,41.0,97,58,14.0,0.0
14421,64.0,0,110,10.0,0.0
14422,67.0,11,110,10.0,0.0
14423,91.0,1,120,0.0,0.0
14424,64.0,3,120,11.0,0.0
14425,60.0,1,120,12.0,0.0
14426,79.0,6,120,2.0,0.0
14427,52.0,2,120,13.0,0.0
14428,67.0,1,120,3.0,0.0
14429,40.0,45,120,14.0,0.0
14430,67.0,301,60,10.0,0.0
14431,79.0,11,350,10.0,0.0
14432,91.0,1,120,0.0,0.0
14433,67.0,3,120,11.0,0.0
14434,55.0,1,120,12.0,0.0
14435,79.0,6,120,2.0,0.0
14436,52.0,2,120,13.0,0.0
14437,67.0,1,120,3.0,0.0
14438,40.0,95,120,14.0,0.0
14439,89.0,1,120,0.0,0.0
14440,65.0,3,120,11.0,0.0
14441,53.0,1,120,12.0,0.0
14442,77.0,6,120,2.0,0.0
14443,50.0,2,120,13.0,0.0
14444,65.0,1,120,3.0,0.0
14445,38.0,45,120,14.0,0.0
14446,67.0,301,60,10.0,0.0
14447,79.0,11,350,10.0,0.0
14448,89.0,1,120,0.0,0.0
14449,65.0,3,120,11.0,0.0
14450,53.0,1,120,12.0,0.0
14451,77.0,6,120,2.0,0.0
14452,50.0,2,120,13.0,0.0
14453,65.0,1,120,3.0,0.0
14454,38.0,95,120,14.0,0.0
14455,88.0,1,120,0.0,0.0
14456,64.0,3,120,11.0,0.0
14457,52.0,1,120,12.0,0.0
14458,76.0,6,120,2.0,0.0
14459,48.0,2,120,13.0,0.0
14460,64.0,1,120,3.0,0.0
14461,36.0,45,120,14.0,0.0
14462,67.0,301,60,10.0,0.0
14463,79.0,11,350,10.0,0.0
14464,88.0,1,120,0.0,0.0
14465,64.0,3,120,11.0,0.0
14466,52.0,1,120,12.0,0.0
14467,76.0,6,120,2.0,0.0
14468,48.0,2,120,13.0,0.0
14469,64.0,1,120,3.0,0.0
14470,36.0,95,120,14.0,0.0
14471,86.0,1,120,0.0,0.0
14472,62.0,3,120,11.0,0.0
14473,50.0,1,120,12.0,0.0
14474,74.0,6,120,2.0,0.0
14475,53.0,2,120,13.0,0.0
14476,62.0,1,120,3.0,0.0
14477,41.0,45,120,14.0,0.0
14478,67.0,301,60,10.0,0.0
14479,79.0,1,350,10.0,0.0
14480,86.0,1,120,0.0,0.0
14481,62.0,3,120,11.0,0.0
14482,50.0,1,120,12.0,0.0
14483,74.0,6,120,2.0,0.0
14484,53.0,2,120,13.0,0.0
14485,62.0,1,120,3.0,0.0
14486,41.0,95,120,14.0,0.0
14487,91.0,1,110,0.0,0.0
14488,67.0,3,110,11.0,0.0
14489,55.0,1,110,12.0,0.0
14490,79.0,6,110,2.0,0.0
14491,52.0,2,110,13.0,0.0
14492,67.0,1,110,3.0,0.0
14493,40.0,1,110,14.0,0.0
14494,79.0,41,85,10.0,0.0
14495,91.0,3,60,0.0,0.0
14496,79.0,0,0,1.0,0.0
14497,79.0,8,60,2.0,0.0
14498,55.0,56,120,5.0,0.0
14499,43.0,0,120,5.0,0.0
14500,67.0,11,60,3.0,0.0
14501,67.0,120,85,10.0,0.0
14502,65.0,3,60,11.0,0.0
14503,53.0,7,60,12.0,0.0
14504,50.0,3,60,13.0,0.0
14505,38.0,10,60,14.0,0.0
14506,79.0,6,85,10.0,0.0
14507,89.0,3,90,0.0,0.0
14508,79.0,2,90,1.0,0.0
14509,71.0,0,90,2.0,0.0
14510,77.0,8,90,2.0,0.0
14511,55.0,56,120,5.0,0.0
14512,43.0,0,120,5.0,0.0
14513,65.0,22,90,3.0,0.0
14514,59.0,0,90,3.0,0.0
14515,67.0,120,85,10.0,0.0
14516,64.0,3,60,11.0,0.0
14517,52.0,7,60,12.0,0.0
14518,48.0,3,60,13.0,0.0
14519,36.0,10,60,14.0,0.0
14520,79.0,6,85,10.0,0.0
14521,88.0,3,90,0.0,0.0
14522,79.0,0,90,1.0,0.0
14523,76.0,2,90,1.0,0.0
14524,76.0,0,90,2.0,0.0
14525,60.0,56,120,5.0,0.0
14526,72.0,8,90,2.0,0.0
14527,48.0,0,120,5.0,0.0
14528,64.0,0,90,3.0,0.0
14529,60.0,22,90,3.0,0.0
14530,72.0,120,85,10.0,0.0
14531,64.0,3,60,11.0,0.0
14532,52.0,7,60,12.0,0.0
14533,58.0,3,60,13.0,0.0
14534,46.0,10,60,14.0,0.0
14535,84.0,6,85,10.0,0.0
14536,88.0,3,90,0.0,0.0
14537,79.0,0,90,1.0,0.0
14538,84.0,2,90,1.0,0.0
14539,72.0,0,90,2.0,0.0
14540,60.0,56,120,5.0,0.0
14541,79.0,8,90,2.0,0.0
14542,48.0,0,120,5.0,0.0
14543,58.0,22,90,3.0,0.0
14544,64.0,0,90,3.0,0.0
14545,72.0,120,85,10.0,0.0
14546,65.0,3,60,11.0,0.0
14547,53.0,7,60,12.0,0.0
14548,57.0,3,60,13.0,0.0
14549,45.0,10,60,14.0,0.0
14550,84.0,6,85,10.0,0.0
14551,89.0,3,90,0.0,0.0
14552,84.0,0,90,1.0,0.0
14553,77.0,2,90,1.0,0.0
14554,72.0,8,90,2.0,0.0
14555,77.0,0,90,2.0,0.0
14556,48.0,0,120,5.0,0.0
14557,60.0,56,120,5.0,0.0
14558,57.0,22,90,3.0,0.0
14559,65.0,0,90,3.0,0.0
14560,72.0,120,85,10.0,0.0
14561,70.0,3,60,11.0,0.0
14562,58.0,7,60,12.0,0.0
14563,55.0,3,60,13.0,0.0
14564,43.0,10,60,14.0,0.0
14565,84.0,6,85,10.0,0.0
14566,88.0,3,90,0.0,0.0
14567,82.0,0,90,1.0,0.0
14568,84.0,2,90,1.0,0.0
14569,70.0,8,90,2.0,0.0
14570,60.0,0,120,5.0,0.0
14571,48.0,56,120,5.0,0.0
14572,76.0,0,90,2.0,0.0
14573,58.0,0,90,3.0,0.0
14574,55.0,22,90,3.0,0.0
14575,72.0,120,85,10.0,0.0
14576,69.0,3,60,11.0,0.0
14577,57.0,7,60,12.0,0.0
14578,53.0,3,60,13.0,0.0
14579,41.0,10,60,14.0,0.0
14580,84.0,6,85,10.0,0.0
14581,93.0,3,90,0.0,0.0
14582,81.0,0,90,1.0,0.0
14583,84.0,2,90,1.0,0.0
14584,48.0,56,120,5.0,0.0
14585,60.0,0,120,5.0,0.0
14586,77.0,8,90,2.0,0.0
14587,69.0,0,90,2.0,0.0
14588,53.0,0,90,3.0,0.0
14589,57.0,22,90,3.0,0.0
14590,73.0,120,85,10.0,0.0
14591,67.0,3,60,11.0,0.0
14592,55.0,7,60,12.0,0.0
14593,52.0,3,60,13.0,0.0
14594,40.0,10,60,14.0,0.0
14595,85.0,6,85,10.0,0.0
14596,91.0,3,90,0.0,0.0
14597,81.0,0,90,1.0,0.0
14598,79.0,2,90,1.0,0.0
14599,79.0,8,90,2.0,0.0
14600,69.0,0,90,2.0,0.0
14601,64.0,56,120,5.0,0.0
14602,67.0,0,120,5.0,0.0
14603,52.0,22,90,3.0,0.0
14604,57.0,0,90,3.0,0.0
14605,74.0,120,85,10.0,0.0
14606,65.0,3,60,11.0,0.0
14607,53.0,7,60,12.0,0.0
14608,50.0,3,60,13.0,0.0
14609,38.0,10,60,14.0,0.0
14610,86.0,6,85,10.0,0.0
14611,89.0,3,90,0.0,0.0
14612,77.0,2,90,1.0,0.0
14613,81.0,0,90,1.0,0.0
14614,65.0,0,120,5.0,0.0
14615,62.0,56,120,5.0,0.0
14616,77.0,8,90,2.0,0.0
14617,69.0,0,90,2.0,0.0
14618,57.0,22,90,3.0,0.0
14619,50.0,0,90,3.0,0.0
14620,76.0,120,85,10.0,0.0
14621,64.0,3,60,11.0,0.0
14622,52.0,7,60,12.0,0.0
14623,48.0,3,60,13.0,0.0
14624,36.0,10,60,14.0,0.0
14625,88.0,6,85,10.0,0.0
14626,89.0,3,90,0.0,0.0
14627,81.0,0,90,1.0,0.0
14628,77.0,2,90,1.0,0.0
14629,69.0,8,90,2.0,0.0
14630,77.0,0,90,2.0,0.0
14631,64.0,0,90,3.0,0.0
14632,60.0,78,90,3.0,0.0
14633,77.0,120,85,10.0,0.0
14634,62.0,3,60,11.0,0.0
14635,50.0,7,60,12.0,0.0
14636,47.0,3,60,13.0,0.0
14637,35.0,10,60,14.0,0.0
14638,89.0,6,85,10.0,0.0
14639,89.0,3,90,0.0,0.0
14640,86.0,0,90,1.0,0.0
14641,77.0,2,90,1.0,0.0
14642,77.0,8,90,2.0,0.0
14643,74.0,0,90,2.0,0.0
14644,59.0,0,90,3.0,0.0
14645,62.0,78,90,3.0,0.0
14646,77.0,120,85,10.0,0.0
14647,72.0,3,60,11.0,0.0
14648,60.0,7,60,12.0,0.0
14649,45.0,3,60,13.0,0.0
14650,33.0,10,60,14.0,0.0
14651,89.0,6,85,10.0,0.0
14652,89.0,3,90,0.0,0.0
14653,86.0,0,90,1.0,0.0
14654,77.0,2,90,1.0,0.0
14655,74.0,0,90,2.0,0.0
14656,77.0,8,90,2.0,0.0
14657,60.0,88,90,3.0,0.0
14658,57.0,0,90,3.0,0.0
14659,89.0,1,120,10.0,0.0
14660,89.0,1,120,0.0,0.0
14661,71.0,2,120,11.0,0.0
14662,77.0,1,120,1.0,0.0
14663,86.0,0,120,1.0,0.0
14664,59.0,1,120,12.0,0.0
14665,77.0,0,120,2.0,0.0
14666,74.0,8,120,2.0,0.0
14667,43.0,3,60,13.0,0.0
14668,55.0,0,120,3.0,0.0
14669,59.0,58,120,3.0,0.0
14670,31.0,45,60,14.0,0.0
14671,50.0,3,60,13.0,0.0
14672,38.0,105,60,14.0,0.0
14673,67.0,12,60,10.0,0.0
14674,53.0,3,60,13.0,0.0
14675,41.0,49,60,14.0,0.0
14676,74.0,12,60,10.0,0.0
14677,74.0,0,120,0.0,0.0
14678,55.0,0,0,4.0,0.0
14679,43.0,56,0,4.0,0.0
14680,55.0,3,60,13.0,0.0
14681,50.0,0,120,3.0,0.0
14682,53.0,46,120,3.0,0.0
14683,43.0,46,60,14.0,0.0
14684,77.0,120,60,10.0,0.0
14685,77.0,3,0,0.0,0.0
14686,74.0,0,360,0.0,0.0
14687,55.0,0,0,4.0,0.0
14688,43.0,10,0,4.0,0.0
14689,57.0,2,350,13.0,0.0
14690,45.0,9,350,14.0,0.0
14691,79.0,181,60,10.0,0.0
14692,81.0,1,360,10.0,0.0
14693,77.0,1,0,0.0,0.0
14694,43.0,1,0,4.0,0.0
14695,55.0,2,110,13.0,0.0
14696,53.0,107,0,3.0,0.0
14697,50.0,0,0,3.0,0.0
14698,43.0,9,110,14.0,0.0
14699,77.0,1,0,0.0,0.0
14700,74.0,0,0,0.0,0.0
14701,55.0,58,60,11.0,0.0
14702,43.0,1,0,4.0,0.0
14703,55.0,0,0,4.0,0.0
14704,53.0,2,120,13.0,0.0
14705,50.0,0,0,3.0,0.0
14706,41.0,47,120,14.0,0.0
14707,79.0,11,110,10.0,0.0
14708,74.0,3,0,0.0,0.0
14709,77.0,1,120,0.0,0.0
14710,62.0,48,60,11.0,0.0
14711,55.0,0,0,4.0,0.0
14712,43.0,8,0,4.0,0.0
14713,50.0,2,110,13.0,0.0
14714,53.0,1,0,3.0,0.0
14715,38.0,9,110,14.0,0.0
14716,77.0,2,60,10.0,0.0
14717,77.0,0,120,0.0,0.0
14718,65.0,10,60,11.0,0.0
14719,55.0,0,0,4.0,0.0
14720,43.0,10,120,4.0,0.0
14721,45.0,3,60,13.0,0.0
14722,50.0,46,0,3.0,0.0
14723,33.0,46,60,14.0,0.0
14724,74.0,12,60,10.0,0.0
14725,74.0,3,0,0.0,0.0
14726,77.0,0,120,0.0,0.0
14727,67.0,2,240,11.0,0.0
14728,43.0,3,60,13.0,0.0
14729,53.0,46,0,3.0,0.0
14730,50.0,0,0,3.0,0.0
14731,31.0,46,60,14.0,0.0
14732,77.0,1,120,10.0,0.0
14733,55.0,10,0,4.0,0.0
14734,43.0,0,0,4.0,0.0
14735,55.0,1,60,12.0,0.0
14736,55.0,0,60,2.0,0.0
14737,67.0,54,60,2.0,0.0
14738,43.0,2,120,13.0,0.0
14739,31.0,50,120,14.0,0.0
14740,74.0,11,110,10.0,0.0
14741,77.0,0,0,0.0,0.0
14742,74.0,1,0,0.0,0.0
14743,55.0,10,120,4.0,0.0
14744,62.0,1,60,12.0,0.0
14745,62.0,0,60,2.0,0.0
14746,74.0,44,60,2.0,0.0
14747,53.0,1,0,3.0,0.0
14748,50.0,0,0,3.0,0.0
14749,69.0,5,60,10.0,0.0
14750,74.0,7,36,0.0,0.0
14751,77.0,0,36,0.0,0.0
14752,43.0,0,0,4.0,0.0
14753,65.0,1,60,12.0,0.0
14754,65.0,0,60,2.0,0.0
14755,77.0,6,60,2.0,0.0
14756,55.0,1,30,3.0,0.0
14757,51.0,14,30,3.0,0.0
14758,75.0,1,36,0.0,0.0
14759,79.0,30,36,0.0,0.0
14760,53.0,2,30,3.0,0.0
14761,50.0,0,30,3.0,0.0
14762,77.0,1,36,0.0,0.0
14763,74.0,14,36,0.0,0.0
14764,51.0,1,30,3.0,0.0
14765,55.0,3,30,3.0,0.0
14766,50.0,1,30,3.0,0.0
14767,53.0,10,30,3.0,0.0
14768,75.0,1,36,0.0,0.0
14769,79.0,16,36,0.0,0.0
14770,67.0,1,60,10.0,0.0
14771,43.0,9,120,4.0,0.0
14772,55.0,11,0,4.0,0.0
14773,67.0,1,240,12.0,0.0
14774,67.0,0,240,2.0,0.0
14775,79.0,66,240,2.0,0.0
14776,55.0,1,30,3.0,0.0
14777,51.0,16,30,3.0,0.0
14778,74.0,2,36,0.0,0.0
14779,77.0,10,36,0.0,0.0
14780,53.0,1,30,3.0,0.0
14781,50.0,17,30,3.0,0.0
14782,72.0,2,30,0.0,0.0
14783,76.0,12,30,0.0,0.0
14784,52.0,1,30,3.0,0.0
14785,48.0,14,30,3.0,0.0
14786,77.0,2,30,0.0,0.0
14787,74.0,2,30,0.0,0.0
14788,53.0,1,30,3.0,0.0
14789,50.0,58,30,3.0,0.0
14790,55.0,10,360,4.0,0.0
14791,43.0,0,360,4.0,0.0
14792,43.0,3,60,13.0,0.0
14793,52.0,46,360,3.0,0.0
14794,55.0,0,360,3.0,0.0
14795,31.0,50,60,14.0,0.0
14796,48.0,3,60,13.0,0.0
14797,36.0,105,60,14.0,0.0
14798,67.0,12,60,10.0,0.0
14799,52.0,3,60,13.0,0.0
14800,40.0,46,60,14.0,0.0
14801,72.0,12,60,10.0,0.0
14802,79.0,0,0,0.0,0.0
14803,76.0,3,0,0.0,0.0
14804,55.0,0,120,4.0,0.0
14805,55.0,3,60,13.0,0.0
14806,52.0,0,120,3.0,0.0
14807,43.0,46,60,14.0,0.0
14808,76.0,120,60,10.0,0.0
14809,76.0,0,360,0.0,0.0
14810,43.0,10,0,4.0,0.0
14811,57.0,2,350,13.0,0.0
14812,55.0,46,0,3.0,0.0
14813,52.0,107,360,3.0,0.0
14814,45.0,9,350,14.0,0.0
14815,79.0,181,60,10.0,0.0
14816,81.0,1,360,10.0,0.0
14817,79.0,1,0,0.0,0.0
14818,76.0,0,120,0.0,0.0
14819,55.0,1,0,4.0,0.0
14820,43.0,0,0,4.0,0.0
14821,55.0,2,110,13.0,0.0
14822,55.0,48,120,3.0,0.0
14823,52.0,0,120,3.0,0.0
14824,43.0,9,110,14.0,0.0
14825,55.0,58,60,11.0,0.0
14826,43.0,1,0,4.0,0.0
14827,55.0,0,120,4.0,0.0
14828,52.0,2,120,13.0,0.0
14829,55.0,0,120,3.0,0.0
14830,40.0,47,120,14.0,0.0
14831,79.0,11,110,10.0,0.0
14832,76.0,3,0,0.0,0.0
14833,79.0,0,0,0.0,0.0
14834,60.0,48,60,11.0,0.0
14835,43.0,8,0,4.0,0.0
14836,48.0,2,110,13.0,0.0
14837,52.0,1,0,3.0,0.0
14838,36.0,9,110,14.0,0.0
14839,76.0,2,60,10.0,0.0
14840,79.0,1,0,0.0,0.0
14841,64.0,10,60,11.0,0.0
14842,55.0,1,0,4.0,0.0
14843,43.0,0,0,4.0,0.0
14844,45.0,3,60,13.0,0.0
14845,55.0,46,0,3.0,0.0
14846,52.0,0,0,3.0,0.0
14847,33.0,46,60,14.0,0.0
14848,72.0,12,60,10.0,0.0
14849,76.0,0,0,0.0,0.0
14850,79.0,3,0,0.0,0.0
14851,67.0,2,240,11.0,0.0
14852,43.0,3,60,13.0,0.0
14853,55.0,51,120,3.0,0.0
14854,52.0,0,120,3.0,0.0
14855,31.0,46,60,14.0,0.0
14856,76.0,1,120,10.0,0.0
14857,79.0,0,0,0.0,0.0
14858,76.0,3,0,0.0,0.0
14859,55.0,0,0,4.0,0.0
14860,43.0,10,0,4.0,0.0
14861,55.0,1,60,12.0,0.0
14862,43.0,0,60,5.0,0.0
14863,55.0,0,60,5.0,0.0
14864,55.0,0,60,2.0,0.0
14865,67.0,54,60,2.0,0.0
14866,43.0,2,120,13.0,0.0
14867,52.0,0,120,3.0,0.0
14868,31.0,50,120,14.0,0.0
14869,72.0,11,110,10.0,0.0
14870,79.0,1,0,0.0,0.0
14871,76.0,0,0,0.0,0.0
14872,55.0,8,0,4.0,0.0
14873,60.0,1,60,12.0,0.0
14874,60.0,0,60,5.0,0.0
14875,48.0,0,60,5.0,0.0
14876,72.0,0,60,2.0,0.0
14877,60.0,44,60,2.0,0.0
14878,52.0,22,120,3.0,0.0
14879,55.0,1,0,3.0,0.0
14880,69.0,5,60,10.0,0.0
14881,79.0,3,1,0.0,0.0
14882,76.0,4,36,0.0,0.0
14883,55.0,10,0,4.0,0.0
14884,43.0,0,0,4.0,0.0
14885,64.0,1,60,12.0,0.0
14886,64.0,0,60,2.0,0.0
14887,76.0,6,60,2.0,0.0
14888,52.0,0,60,5.0,0.0
14889,64.0,0,60,5.0,0.0
14890,56.0,1,30,3.0,0.0
14891,53.0,16,30,3.0,0.0
14892,77.0,1,36,0.0,0.0
14893,80.0,32,36,0.0,0.0
14894,52.0,1,30,3.0,0.0
14895,55.0,0,30,3.0,0.0
14896,79.0,1,36,0.0,0.0
14897,76.0,13,36,0.0,0.0
14898,53.0,4,30,3.0,0.0
14899,56.0,0,30,3.0,0.0
14900,52.0,1,30,3.0,0.0
14901,55.0,11,30,3.0,0.0
14902,80.0,1,36,0.0,0.0
14903,77.0,18,36,0.0,0.0
14904,67.0,1,60,10.0,0.0
14905,43.0,9,120,4.0,0.0
14906,67.0,61,180,12.0,0.0
14907,67.0,0,240,2.0,0.0
14908,79.0,6,240,2.0,0.0
14909,67.0,0,240,5.0,0.0
14910,55.0,0,240,5.0,0.0
14911,53.0,1,30,3.0,0.0
14912,56.0,15,30,3.0,0.0
14913,79.0,1,36,0.0,0.0
14914,76.0,13,36,0.0,0.0
14915,55.0,1,30,3.0,0.0
14916,52.0,16,30,3.0,0.0
14917,77.0,13,30,0.0,0.0
14918,74.0,0,30,0.0,0.0
14919,53.0,0,30,3.0,0.0
14920,50.0,15,30,3.0,0.0
14921,76.0,2,30,0.0,0.0
14922,79.0,2,30,0.0,0.0
14923,52.0,2,30,3.0,0.0
14924,55.0,50,30,3.0,0.0
14925,77.0,0,360,0.0,0.0
14926,81.0,3,360,0.0,0.0
14927,55.0,0,0,4.0,0.0
14928,43.0,10,360,4.0,0.0
14929,57.0,3,120,13.0,0.0
14930,45.0,105,120,14.0,0.0
14931,81.0,2,120,10.0,0.0
14932,65.0,3,120,11.0,0.0
14933,53.0,2,120,12.0,0.0
14934,55.0,3,115,13.0,0.0
14935,43.0,50,115,14.0,0.0
14936,77.0,2,60,10.0,0.0
14937,69.0,3,60,11.0,0.0
14938,57.0,7,60,12.0,0.0
14939,45.0,3,60,13.0,0.0
14940,33.0,46,60,14.0,0.0
14941,81.0,1,120,10.0,0.0
14942,77.0,1,120,0.0,0.0
14943,81.0,0,120,0.0,0.0
14944,65.0,2,120,11.0,0.0
14945,55.0,1,120,4.0,0.0
14946,43.0,0,120,4.0,0.0
14947,53.0,9,120,12.0,0.0
14948,43.0,3,60,13.0,0.0
14949,57.0,0,0,3.0,0.0
14950,53.0,58,0,3.0,0.0
14951,31.0,45,60,14.0,0.0
14952,79.0,2,60,10.0,0.0
14953,79.0,0,360,0.0,0.0
14954,83.0,3,360,0.0,0.0
14955,71.0,3,60,11.0,0.0
14956,43.0,0,360,4.0,0.0
14957,59.0,67,60,12.0,0.0
14958,59.0,3,120,13.0,0.0
14959,55.0,58,360,3.0,0.0
14960,59.0,0,360,3.0,0.0
14961,47.0,105,120,14.0,0.0
14962,83.0,2,120,10.0,0.0
14963,67.0,3,120,11.0,0.0
14964,55.0,2,120,12.0,0.0
14965,55.0,3,115,13.0,0.0
14966,43.0,50,115,14.0,0.0
14967,79.0,2,60,10.0,0.0
14968,71.0,3,60,11.0,0.0
14969,59.0,7,60,12.0,0.0
14970,45.0,3,60,13.0,0.0
14971,33.0,46,60,14.0,0.0
14972,83.0,1,120,10.0,0.0
14973,79.0,1,120,0.0,0.0
14974,83.0,0,120,0.0,0.0
14975,67.0,2,120,11.0,0.0
14976,43.0,0,120,4.0,0.0
14977,55.0,10,0,4.0,0.0
14978,55.0,9,120,12.0,0.0
14979,43.0,3,60,13.0,0.0
14980,59.0,46,120,3.0,0.0
14981,55.0,0,120,3.0,0.0
14982,31.0,45,60,14.0,0.0
14983,81.0,2,60,10.0,0.0
14984,84.0,0,360,0.0,0.0
14985,72.0,3,60,11.0,0.0
14986,60.0,67,60,12.0,0.0
14987,60.0,3,120,13.0,0.0
14988,60.0,0,360,3.0,0.0
14989,57.0,58,360,3.0,0.0
14990,48.0,105,120,14.0,0.0
14991,84.0,2,120,10.0,0.0
14992,69.0,3,120,11.0,0.0
14993,57.0,2,120,12.0,0.0
14994,57.0,3,115,13.0,0.0
14995,45.0,50,115,14.0,0.0
14996,81.0,2,60,10.0,0.0
14997,72.0,3,60,11.0,0.0
14998,60.0,7,60,12.0,0.0
14999,45.0,3,60,13.0,0.0
15000,33.0,46,60,14.0,0.0
15001,84.0,1,120,10.0,0.0
15002,81.0,3,0,0.0,0.0
15003,84.0,0,120,0.0,0.0
15004,69.0,2,120,11.0,0.0
15005,55.0,0,0,4.0,0.0
15006,43.0,10,0,4.0,0.0
15007,57.0,9,120,12.0,0.0
15008,43.0,3,60,13.0,0.0
15009,60.0,0,120,3.0,0.0
15010,57.0,46,120,3.0,0.0
15011,31.0,45,60,14.0,0.0
15012,83.0,2,60,10.0,0.0
15013,83.0,3,360,0.0,0.0
15014,74.0,3,60,11.0,0.0
15015,43.0,1,0,4.0,0.0
15016,62.0,67,60,12.0,0.0
15017,62.0,3,120,13.0,0.0
15018,50.0,105,120,14.0,0.0
15019,86.0,2,120,10.0,0.0
15020,71.0,3,120,11.0,0.0
15021,59.0,2,120,12.0,0.0
15022,59.0,3,115,13.0,0.0
15023,47.0,50,115,14.0,0.0
15024,83.0,2,60,10.0,0.0
15025,74.0,3,60,11.0,0.0
15026,62.0,7,60,12.0,0.0
15027,45.0,3,60,13.0,0.0
15028,33.0,46,60,14.0,0.0
15029,86.0,1,120,10.0,0.0
15030,86.0,0,0,0.0,0.0
15031,71.0,2,120,11.0,0.0
15032,55.0,0,0,4.0,0.0
15033,59.0,9,120,12.0,0.0
15034,43.0,3,60,13.0,0.0
15035,62.0,58,0,3.0,0.0
15036,59.0,0,0,3.0,0.0
15037,31.0,45,60,14.0,0.0
15038,83.0,2,60,10.0,0.0
15039,83.0,1,0,0.0,0.0
15040,86.0,0,120,0.0,0.0
15041,74.0,3,60,11.0,0.0
15042,55.0,0,960,6.0,0.0
15043,67.0,1,960,6.0,0.0
15044,55.0,1,0,4.0,0.0
15045,43.0,0,0,4.0,0.0
15046,62.0,2,960,7.0,0.0
15047,59.0,23,60,12.0,0.0
15048,71.0,0,120,2.0,0.0
15049,55.0,0,120,5.0,0.0
15050,59.0,1,960,7.0,0.0
15051,62.0,2,120,13.0,0.0
15052,43.0,1,960,8.0,0.0
15053,59.0,0,0,3.0,0.0
15054,50.0,33,120,14.0,0.0
15055,43.0,12,0,15.0,0.0
15056,86.0,2,50,10.0,0.0
15057,71.0,3,50,11.0,0.0
15058,55.0,6,50,12.0,0.0
15059,43.0,22,0,15.0,0.0
15060,83.0,2,60,10.0,0.0
15061,83.0,3,0,0.0,0.0
15062,74.0,3,60,11.0,0.0
15063,43.0,0,0,4.0,0.0
15064,74.0,0,0,1.0,0.0
15065,83.0,2,0,1.0,0.0
15066,55.0,0,0,4.0,0.0
15067,59.0,23,60,12.0,0.0
15068,62.0,0,0,5.0,0.0
15069,71.0,0,120,2.0,0.0
15070,79.0,2,0,2.0,0.0
15071,59.0,1,115,13.0,0.0
15072,62.0,1,0,3.0,0.0
15073,59.0,0,0,3.0,0.0
15074,47.0,4,115,14.0,0.0
15075,43.0,12,0,15.0,0.0
15076,86.0,2,50,10.0,0.0
15077,71.0,3,50,11.0,0.0
15078,55.0,6,50,12.0,0.0
15079,83.0,2,60,10.0,0.0
15080,86.0,3,0,0.0,0.0
15081,74.0,3,60,11.0,0.0
15082,83.0,2,120,1.0,0.0
15083,74.0,0,120,1.0,0.0
15084,59.0,7,60,12.0,0.0
15085,62.0,0,120,5.0,0.0
15086,55.0,1,0,5.0,0.0
15087,79.0,0,120,2.0,0.0
15088,43.0,2,0,15.0,0.0
15089,55.0,3,60,13.0,0.0
15090,59.0,0,120,3.0,0.0
15091,62.0,34,0,3.0,0.0
15092,43.0,13,60,14.0,0.0
15093,43.0,22,40,15.0,0.0
15094,86.0,2,50,10.0,0.0
15095,71.0,3,50,11.0,0.0
15096,55.0,6,50,12.0,0.0
15097,43.0,6,40,15.0,0.0
15098,83.0,2,60,10.0,0.0
15099,83.0,0,0,0.0,0.0
15100,86.0,3,120,0.0,0.0
15101,74.0,3,60,11.0,0.0
15102,55.0,0,0,4.0,0.0
15103,43.0,0,0,4.0,0.0
15104,74.0,0,120,1.0,0.0
15105,83.0,0,120,1.0,0.0
15106,59.0,7,60,12.0,0.0
15107,71.0,2,0,2.0,0.0
15108,79.0,0,120,2.0,0.0
15109,62.0,0,120,5.0,0.0
15110,50.0,3,60,13.0,0.0
15111,38.0,13,60,14.0,0.0
15112,43.0,12,0,15.0,0.0
15113,86.0,2,50,10.0,0.0
15114,71.0,3,50,11.0,0.0
15115,55.0,6,50,12.0,0.0
15116,43.0,22,0,15.0,0.0
15117,83.0,2,60,10.0,0.0
15118,86.0,0,120,0.0,0.0
15119,83.0,3,120,0.0,0.0
15120,74.0,3,60,11.0,0.0
15121,43.0,2,0,4.0,0.0
15122,59.0,23,60,12.0,0.0
15123,62.0,0,120,5.0,0.0
15124,55.0,2,0,5.0,0.0
15125,79.0,0,120,2.0,0.0
15126,71.0,2,120,2.0,0.0
15127,47.0,2,120,13.0,0.0
15128,62.0,34,0,3.0,0.0
15129,59.0,0,0,3.0,0.0
15130,35.0,33,120,14.0,0.0
15131,43.0,12,0,15.0,0.0
15132,86.0,2,50,10.0,0.0
15133,71.0,3,50,11.0,0.0
15134,55.0,6,50,12.0,0.0
15135,43.0,22,0,15.0,0.0
15136,83.0,2,60,10.0,0.0
15137,74.0,3,60,11.0,0.0
15138,55.0,0,0,4.0,0.0
15139,74.0,0,0,1.0,0.0
15140,83.0,2,0,1.0,0.0
15141,43.0,0,0,4.0,0.0
15142,59.0,23,60,12.0,0.0
15143,55.0,0,0,5.0,0.0
15144,62.0,0,120,5.0,0.0
15145,79.0,1,120,2.0,0.0
15146,71.0,0,120,2.0,0.0
15147,43.0,12,40,15.0,0.0
15148,43.0,1,115,13.0,0.0
15149,62.0,34,120,3.0,0.0
15150,59.0,1,0,3.0,0.0
15151,31.0,4,115,14.0,0.0
15152,86.0,2,50,10.0,0.0
15153,71.0,3,50,11.0,0.0
15154,55.0,6,50,12.0,0.0
15155,43.0,22,0,15.0,0.0
15156,83.0,2,60,10.0,0.0
15157,86.0,0,0,0.0,0.0
15158,83.0,3,0,0.0,0.0
15159,74.0,3,60,11.0,0.0
15160,43.0,0,0,4.0,0.0
15161,55.0,2,0,4.0,0.0
15162,59.0,7,60,12.0,0.0
15163,55.0,0,120,5.0,0.0
15164,71.0,0,120,2.0,0.0
15165,62.0,0,120,5.0,0.0
15166,43.0,12,40,15.0,0.0
15167,41.0,3,60,13.0,0.0
15168,41.0,13,60,14.0,0.0
15169,43.0,22,40,15.0,0.0
15170,86.0,2,50,10.0,0.0
15171,71.0,3,50,11.0,0.0
15172,55.0,6,50,12.0,0.0
15173,83.0,2,60,10.0,0.0
15174,83.0,0,120,0.0,0.0
15175,86.0,2,120,0.0,0.0
15176,74.0,3,60,11.0,0.0
15177,74.0,2,0,1.0,0.0
15178,83.0,0,0,1.0,0.0
15179,55.0,0,120,4.0,0.0
15180,43.0,0,120,4.0,0.0
15181,59.0,7,60,12.0,0.0
15182,62.0,0,120,5.0,0.0
15183,55.0,0,120,5.0,0.0
15184,71.0,0,120,2.0,0.0
15185,79.0,2,0,2.0,0.0
15186,43.0,6,0,15.0,0.0
15187,38.0,3,60,13.0,0.0
15188,59.0,34,0,3.0,0.0
15189,62.0,0,0,3.0,0.0
15190,38.0,13,60,14.0,0.0
15191,43.0,12,0,15.0,0.0
15192,86.0,2,50,10.0,0.0
15193,71.0,3,50,11.0,0.0
15194,55.0,6,50,12.0,0.0
15195,43.0,5,40,15.0,0.0
15196,88.0,2,100,10.0,0.0
15197,84.0,2,120,0.0,0.0
15198,88.0,0,120,0.0,0.0
15199,76.0,3,100,11.0,0.0
15200,60.0,1,120,6.0,0.0
15201,64.0,0,120,7.0,0.0
15202,84.0,0,120,1.0,0.0
15203,72.0,2,120,1.0,0.0
15204,60.0,0,120,4.0,0.0
15205,48.0,0,120,4.0,0.0
15206,60.0,16,100,12.0,0.0
15207,60.0,1,120,5.0,0.0
15208,64.0,0,120,5.0,0.0
15209,72.0,0,120,2.0,0.0
15210,79.0,0,120,2.0,0.0
15211,60.0,1,120,7.0,0.0
15212,48.0,5,120,15.0,0.0
15213,36.0,3,60,13.0,0.0
15214,48.0,1,120,8.0,0.0
15215,60.0,0,120,3.0,0.0
15216,64.0,166,120,3.0,0.0
15217,36.0,25,60,14.0,0.0
15218,86.0,2,180,10.0,0.0
15219,76.0,3,180,11.0,0.0
15220,71.0,7,180,12.0,0.0
15221,40.0,3,180,13.0,0.0
15222,28.0,46,180,14.0,0.0
15223,83.0,2,120,0.0,0.0
15224,86.0,0,120,0.0,0.0
15225,64.0,1,120,6.0,0.0
15226,83.0,0,120,1.0,0.0
15227,64.0,0,120,4.0,0.0
15228,74.0,0,120,1.0,0.0
15229,64.0,0,120,7.0,0.0
15230,52.0,2,120,4.0,0.0
15231,74.0,0,120,2.0,0.0
15232,64.0,1,120,5.0,0.0
15233,52.0,0,120,5.0,0.0
15234,71.0,0,120,2.0,0.0
15235,59.0,1,120,7.0,0.0
15236,48.0,5,120,15.0,0.0
15237,52.0,1,120,8.0,0.0
15238,62.0,0,120,3.0,0.0
15239,59.0,166,120,3.0,0.0
15240,84.0,2,180,10.0,0.0
15241,76.0,3,180,11.0,0.0
15242,69.0,7,180,12.0,0.0
15243,45.0,3,180,13.0,0.0
15244,33.0,46,180,14.0,0.0
15245,81.0,2,120,0.0,0.0
15246,84.0,0,120,0.0,0.0
15247,64.0,1,120,6.0,0.0
15248,64.0,0,120,4.0,0.0
15249,72.0,2,120,1.0,0.0
15250,81.0,0,120,1.0,0.0
15251,52.0,0,120,4.0,0.0
15252,64.0,0,120,7.0,0.0
15253,64.0,1,120,5.0,0.0
15254,52.0,0,120,5.0,0.0
15255,72.0,0,120,2.0,0.0
15256,69.0,0,120,2.0,0.0
15257,60.0,1,120,7.0,0.0
15258,48.0,5,120,15.0,0.0
15259,57.0,1,120,8.0,0.0
15260,57.0,166,120,3.0,0.0
15261,60.0,0,120,3.0,0.0
15262,83.0,2,180,10.0,0.0
15263,72.0,3,180,11.0,0.0
15264,67.0,7,180,12.0,0.0
15265,48.0,3,180,13.0,0.0
15266,36.0,46,180,14.0,0.0
15267,79.0,0,120,0.0,0.0
15268,83.0,2,120,0.0,0.0
15269,60.0,1,120,6.0,0.0
15270,71.0,0,120,1.0,0.0
15271,64.0,2,120,7.0,0.0
15272,48.0,0,120,4.0,0.0
15273,60.0,0,120,4.0,0.0
15274,79.0,0,120,1.0,0.0
15275,71.0,1,120,2.0,0.0
15276,67.0,0,120,5.0,0.0
15277,60.0,0,120,5.0,0.0
15278,67.0,0,120,2.0,0.0
15279,55.0,1,120,7.0,0.0
15280,48.0,5,120,15.0,0.0
15281,48.0,1,120,8.0,0.0
15282,59.0,0,120,3.0,0.0
15283,55.0,166,120,3.0,0.0
15284,81.0,2,180,10.0,0.0
15285,72.0,3,180,11.0,0.0
15286,65.0,7,180,12.0,0.0
15287,53.0,3,180,13.0,0.0
15288,41.0,46,180,14.0,0.0
15289,77.0,2,120,0.0,0.0
15290,81.0,0,120,0.0,0.0
15291,72.0,0,120,6.0,0.0
15292,60.0,1,120,6.0,0.0
15293,60.0,0,120,4.0,0.0
15294,77.0,0,120,1.0,0.0
15295,48.0,2,120,4.0,0.0
15296,69.0,0,120,1.0,0.0
15297,65.0,1,120,5.0,0.0
15298,69.0,0,120,2.0,0.0
15299,65.0,0,120,2.0,0.0
15300,60.0,0,120,5.0,0.0
15301,60.0,0,117,7.0,0.0
15302,48.0,5,120,15.0,0.0
15303,53.0,1,120,8.0,0.0
15304,57.0,166,120,3.0,0.0
15305,53.0,0,120,3.0,0.0
15306,79.0,2,180,10.0,0.0
15307,69.0,3,180,11.0,0.0
15308,64.0,7,180,12.0,0.0
15309,57.0,3,180,13.0,0.0
15310,45.0,46,180,14.0,0.0
15311,88.0,0,120,0.0,0.0
15312,91.0,2,120,0.0,0.0
15313,72.0,1,120,6.0,0.0
15314,60.0,0,120,6.0,0.0
15315,67.0,2,120,4.0,0.0
15316,79.0,0,120,1.0,0.0
15317,85.0,0,120,1.0,0.0
15318,64.0,0,120,4.0,0.0
15319,69.0,0,120,7.0,0.0
15320,67.0,0,120,5.0,0.0
15321,73.0,0,120,2.0,0.0
15322,67.0,0,120,2.0,0.0
15323,64.0,1,120,5.0,0.0
15324,64.0,1,120,7.0,0.0
15325,48.0,5,120,15.0,0.0
15326,57.0,1,120,8.0,0.0
15327,45.0,166,120,3.0,0.0
15328,57.0,0,120,3.0,0.0
15329,77.0,2,180,10.0,0.0
15330,69.0,3,180,11.0,0.0
15331,62.0,7,180,12.0,0.0
15332,62.0,3,180,13.0,0.0
15333,50.0,46,180,14.0,0.0
15334,89.0,0,120,0.0,0.0
15335,86.0,2,120,0.0,0.0
15336,74.0,1,120,6.0,0.0
15337,65.0,0,120,7.0,0.0
15338,81.0,0,120,1.0,0.0
15339,77.0,2,120,1.0,0.0
15340,62.0,0,120,4.0,0.0
15341,65.0,0,120,4.0,0.0
15342,65.0,0,120,2.0,0.0
15343,69.0,0,120,2.0,0.0
15344,62.0,1,120,5.0,0.0
15345,65.0,0,120,5.0,0.0
15346,57.0,1,120,7.0,0.0
15347,48.0,5,120,15.0,0.0
15348,50.0,1,120,8.0,0.0
15349,62.0,0,120,3.0,0.0
15350,50.0,166,120,3.0,0.0
15351,77.0,2,180,10.0,0.0
15352,68.0,3,180,11.0,0.0
15353,62.0,7,180,12.0,0.0
15354,60.0,3,180,13.0,0.0
15355,48.0,46,180,14.0,0.0
15356,89.0,2,120,0.0,0.0
15357,86.0,0,120,0.0,0.0
15358,74.0,1,120,6.0,0.0
15359,77.0,0,120,1.0,0.0
15360,80.0,0,120,1.0,0.0
15361,65.0,0,120,7.0,0.0
15362,65.0,2,120,4.0,0.0
15363,62.0,0,120,4.0,0.0
15364,65.0,1,120,5.0,0.0
15365,62.0,0,120,5.0,0.0
15366,65.0,0,120,2.0,0.0
15367,68.0,0,120,2.0,0.0
15368,67.0,1,120,7.0,0.0
15369,48.0,5,120,15.0,0.0
15370,60.0,1,120,8.0,0.0
15371,48.0,166,120,3.0,0.0
15372,60.0,0,120,3.0,0.0
15373,77.0,2,180,10.0,0.0
15374,67.0,3,180,11.0,0.0
15375,62.0,7,180,12.0,0.0
15376,59.0,3,180,13.0,0.0
15377,47.0,46,180,14.0,0.0
15378,86.0,2,120,0.0,0.0
15379,89.0,0,120,0.0,0.0
15380,74.0,1,120,6.0,0.0
15381,79.0,0,120,1.0,0.0
15382,77.0,0,120,1.0,0.0
15383,62.0,0,120,4.0,0.0
15384,65.0,0,120,4.0,0.0
15385,67.0,0,120,2.0,0.0
15386,65.0,0,120,5.0,0.0
15387,65.0,1,120,2.0,0.0
15388,62.0,0,120,5.0,0.0
15389,65.0,2,117,7.0,0.0
15390,43.0,5,120,15.0,0.0
15391,59.0,1,120,8.0,0.0
15392,59.0,406,120,3.0,0.0
15393,47.0,0,120,3.0,0.0
15394,76.0,2,180,10.0,0.0
15395,67.0,3,180,11.0,0.0
15396,60.0,7,180,12.0,0.0
15397,60.0,3,180,13.0,0.0
15398,48.0,46,180,14.0,0.0
15399,84.0,2,120,0.0,0.0
15400,88.0,0,120,0.0,0.0
15401,60.0,0,120,6.0,0.0
15402,72.0,1,120,6.0,0.0
15403,60.0,0,120,4.0,0.0
15404,64.0,2,120,7.0,0.0
15405,72.0,0,120,1.0,0.0
15406,64.0,0,120,4.0,0.0
15407,76.0,0,120,1.0,0.0
15408,64.0,0,120,2.0,0.0
15409,67.0,0,120,2.0,0.0
15410,64.0,0,120,5.0,0.0
15411,60.0,1,120,5.0,0.0
15412,67.0,1,120,7.0,0.0
15413,48.0,5,120,15.0,0.0
15414,60.0,1,120,8.0,0.0
15415,60.0,406,120,3.0,0.0
15416,48.0,0,120,3.0,0.0
15417,77.0,2,180,10.0,0.0
15418,69.0,3,180,11.0,0.0
15419,60.0,7,180,12.0,0.0
15420,53.0,3,180,13.0,0.0
15421,41.0,46,180,14.0,0.0
15422,89.0,0,120,0.0,0.0
15423,86.0,2,120,0.0,0.0
15424,72.0,0,120,6.0,0.0
15425,60.0,1,120,6.0,0.0
15426,65.0,0,120,4.0,0.0
15427,77.0,2,120,1.0,0.0
15428,65.0,0,120,7.0,0.0
15429,81.0,0,120,1.0,0.0
15430,62.0,0,120,4.0,0.0
15431,65.0,0,120,2.0,0.0
15432,62.0,0,120,5.0,0.0
15433,65.0,0,120,5.0,0.0
15434,69.0,1,120,2.0,0.0
15435,60.0,1,120,7.0,0.0
15436,48.0,5,120,15.0,0.0
15437,53.0,1,120,8.0,0.0
15438,53.0,406,120,3.0,0.0
15439,41.0,0,120,3.0,0.0
15440,74.0,2,180,10.0,0.0
15441,67.0,3,180,11.0,0.0
15442,59.0,7,180,12.0,0.0
15443,55.0,3,180,13.0,0.0
15444,43.0,46,180,14.0,0.0
15445,86.0,2,120,0.0,0.0
15446,83.0,0,120,0.0,0.0
15447,67.0,0,120,6.0,0.0
15448,55.0,1,120,6.0,0.0
15449,62.0,0,120,4.0,0.0
15450,55.0,0,120,4.0,0.0
15451,77.0,2,120,1.0,0.0
15452,74.0,0,120,1.0,0.0
15453,62.0,0,120,5.0,0.0
15454,62.0,1,120,2.0,0.0
15455,65.0,0,120,2.0,0.0
15456,55.0,0,120,5.0,0.0
15457,62.0,0,117,7.0,0.0
15458,43.0,5,120,15.0,0.0
15459,55.0,1,120,8.0,0.0
15460,55.0,0,120,3.0,0.0
15461,43.0,466,120,3.0,0.0
15462,86.0,3,720,0.0,0.0
15463,74.0,10,720,1.0,0.0
15464,62.0,107,720,3.0,0.0
15465,62.0,5,120,10.0,0.0
15466,59.0,4,120,11.0,0.0
15467,55.0,11,120,12.0,0.0
15468,43.0,3,120,13.0,0.0
15469,31.0,458,120,14.0,0.0
15470,84.0,3,120,0.0,0.0
15471,72.0,10,120,1.0,0.0
15472,60.0,107,120,3.0,0.0
15473,83.0,3,120,0.0,0.0
15474,71.0,10,120,1.0,0.0
15475,59.0,107,120,3.0,0.0
15476,81.0,3,120,0.0,0.0
15477,69.0,10,120,1.0,0.0
15478,57.0,107,120,3.0,0.0
15479,79.0,3,120,0.0,0.0
15480,67.0,10,120,1.0,0.0
15481,55.0,107,120,3.0,0.0
15482,81.0,3,120,0.0,0.0
15483,69.0,10,120,1.0,0.0
15484,57.0,107,120,3.0,0.0
15485,83.0,3,120,0.0,0.0
15486,71.0,10,120,1.0,0.0
15487,59.0,107,120,3.0,0.0
15488,84.0,3,120,0.0,0.0
15489,72.0,10,120,1.0,0.0
15490,60.0,107,120,3.0,0.0
15491,86.0,3,120,0.0,0.0
15492,74.0,10,120,1.0,0.0
15493,62.0,107,120,3.0,0.0
15494,88.0,3,120,0.0,0.0
15495,76.0,10,120,1.0,0.0
15496,64.0,107,120,3.0,0.0
15497,89.0,3,120,0.0,0.0
15498,77.0,10,120,1.0,0.0
15499,65.0,97,120,3.0,0.0
15500,90.0,3,110,0.0,0.0
15501,78.0,10,110,1.0,0.0
15502,66.0,237,110,3.0,0.0
15503,91.0,3,240,0.0,0.0
15504,79.0,10,240,1.0,0.0
15505,67.0,217,240,3.0,0.0
15506,92.0,3,230,0.0,0.0
15507,80.0,10,230,1.0,0.0
15508,68.0,1187,230,3.0,0.0
15509,93.0,3,1190,0.0,0.0
15510,81.0,10,1190,1.0,0.0
15511,69.0,8,1190,3.0,0.0
15512,43.0,3,120,13.0,0.0
15513,31.0,117,120,14.0,0.0
15514,89.0,3,230,0.0,0.0
15515,77.0,10,230,1.0,0.0
15516,55.0,9,720,12.0,0.0
15517,45.0,3,120,13.0,0.0
15518,65.0,8,230,3.0,0.0
15519,33.0,96,120,14.0,0.0
15520,47.0,3,120,13.0,0.0
15521,35.0,466,120,14.0,0.0
15522,88.0,3,480,0.0,0.0
15523,76.0,1,480,1.0,0.0
15524,48.0,3,3335,13.0,0.0
15525,64.0,226,480,3.0,0.0
15526,36.0,1,3335,14.0,0.0
15527,86.0,1,480,0.0,0.0
15528,74.0,1,480,1.0,0.0
15529,53.0,9,480,12.0,0.0
15530,62.0,466,480,3.0,0.0
15531,67.0,2,120,10.0,0.0
15532,55.0,118,120,11.0,0.0
15533,69.0,2,120,10.0,0.0
15534,57.0,118,120,11.0,0.0
15535,71.0,1,120,10.0,0.0
15536,59.0,2,120,11.0,0.0
15537,72.0,2,480,10.0,0.0
15538,84.0,3,710,0.0,0.0
15539,60.0,123,480,11.0,0.0
15540,72.0,10,710,1.0,0.0
15541,52.0,106,600,12.0,0.0
15542,60.0,1,710,3.0,0.0
15543,71.0,2,480,10.0,0.0
15544,59.0,2,480,11.0,0.0
15545,48.0,120,120,12.0,0.0
15546,84.0,3,180,0.0,0.0
15547,72.0,10,180,1.0,0.0
15548,50.0,56,120,12.0,0.0
15549,60.0,37,180,3.0,0.0
15550,52.0,116,120,12.0,0.0
15551,91.0,3,50,0.0,0.0
15552,79.0,6,50,1.0,0.0
15553,67.0,1,50,3.0,0.0
15554,91.0,3,120,0.0,0.0
15555,57.0,2,240,11.0,0.0
15556,79.0,1,120,1.0,0.0
15557,53.0,9,120,12.0,0.0
15558,67.0,97,120,3.0,0.0
15559,89.0,3,110,0.0,0.0
15560,77.0,6,110,1.0,0.0
15561,55.0,226,120,12.0,0.0
15562,65.0,1,110,3.0,0.0
15563,69.0,2,0,10.0,0.0
15564,89.0,3,230,0.0,0.0
15565,77.0,6,230,1.0,0.0
15566,57.0,226,240,12.0,0.0
15567,65.0,1,230,3.0,0.0
15568,69.0,2,240,10.0,0.0
15569,89.0,3,230,0.0,0.0
15570,60.0,2,0,11.0,0.0
15571,77.0,6,230,1.0,0.0
15572,57.0,226,240,12.0,0.0
15573,65.0,1,230,3.0,0.0
15574,67.0,2,240,10.0,0.0
15575,88.0,3,230,0.0,0.0
15576,60.0,2,240,11.0,0.0
15577,76.0,6,230,1.0,0.0
15578,55.0,450,240,12.0,0.0
15579,64.0,1,230,3.0,0.0
15580,66.0,2,455,10.0,0.0
15581,87.0,3,470,0.0,0.0
15582,57.0,3,455,11.0,0.0
15583,75.0,10,470,1.0,0.0
15584,54.0,7,455,12.0,0.0
15585,63.0,958,470,3.0,0.0
15586,65.0,2,1415,10.0,0.0
15587,86.0,3,1430,0.0,0.0
15588,56.0,12,960,11.0,0.0
15589,74.0,10,1430,1.0,0.0
15590,53.0,7,1415,12.0,0.0
15591,47.0,3,1415,13.0,0.0
15592,62.0,130,1430,3.0,0.0
15593,56.0,441,960,3.0,0.0
15594,35.0,1,1415,14.0,0.0
15595,55.0,3,455,11.0,0.0
15596,55.0,346,600,3.0,0.0
15597,64.0,1,480,10.0,0.0
15598,88.0,1,480,0.0,0.0
15599,61.0,2,480,11.0,0.0
15600,76.0,1,480,1.0,0.0
15601,55.0,7,480,12.0,0.0
15602,46.0,2,480,13.0,0.0
15603,64.0,1,480,3.0,0.0
15604,34.0,106,480,14.0,0.0
15605,65.0,1,1080,10.0,0.0
15606,91.0,3,120,0.0,0.0
15607,62.0,2,1080,11.0,0.0
15608,79.0,10,120,1.0,0.0
15609,53.0,7,1080,12.0,0.0
15610,45.0,2,480,13.0,0.0
15611,67.0,107,120,3.0,0.0
15612,33.0,466,480,14.0,0.0
15613,89.0,3,120,0.0,0.0
15614,77.0,10,120,1.0,0.0
15615,65.0,227,120,3.0,0.0
15616,81.0,3,120,0.0,0.0
15617,69.0,8,120,1.0,0.0
15618,57.0,1,120,3.0,0.0
15619,84.0,3,480,0.0,0.0
15620,72.0,8,480,1.0,0.0
15621,44.0,2,480,13.0,0.0
15622,60.0,1,480,3.0,0.0
15623,32.0,105,480,14.0,0.0
15624,83.0,1,120,0.0,0.0
15625,71.0,1,120,1.0,0.0
15626,55.0,6,8280,5.0,0.0
15627,43.0,0,8280,5.0,0.0
15628,43.0,2,120,13.0,0.0
15629,59.0,1,120,3.0,0.0
15630,31.0,48,120,14.0,0.0
15631,43.0,60,55,15.0,0.0
15632,43.0,120,55,15.0,0.0
15633,43.0,118,115,15.0,0.0
15634,79.0,2,120,0.0,0.0
15635,43.0,118,115,15.0,0.0
15636,84.0,2,120,0.0,0.0
15637,43.0,118,115,15.0,0.0
15638,83.0,240,120,0.0,0.0
15639,83.0,120,120,0.0,0.0
15640,88.0,120,120,0.0,0.0
15641,86.0,239,120,0.0,0.0
15642,67.0,8,120,1.0,0.0
15643,55.0,1,120,3.0,0.0
15644,62.0,2,60,10.0,0.0
15645,59.0,2,60,11.0,0.0
15646,55.0,7,180,12.0,0.0
15647,55.0,2,60,13.0,0.0
15648,43.0,105,60,14.0,0.0
15649,67.0,2,120,10.0,0.0
15650,60.0,3,120,11.0,0.0
15651,74.0,10,480,1.0,0.0
15652,52.0,3,120,13.0,0.0
15653,62.0,110,480,3.0,0.0
15654,40.0,349,120,14.0,0.0
15655,72.0,10,120,1.0,0.0
15656,60.0,49,120,3.0,0.0
15657,43.0,60,55,15.0,0.0
15658,43.0,120,55,15.0,0.0
15659,43.0,118,115,15.0,0.0
15660,79.0,2,120,0.0,0.0
15661,43.0,118,115,15.0,0.0
15662,86.0,2,120,0.0,0.0
15663,43.0,118,115,15.0,0.0
15664,84.0,240,120,0.0,0.0
15665,84.0,120,120,0.0,0.0
15666,89.0,120,120,0.0,0.0
15667,88.0,241,120,0.0,0.0
15668,67.0,8,120,1.0,0.0
15669,55.0,1,120,3.0,0.0
15670,67.0,2,180,10.0,0.0
15671,60.0,2,60,11.0,0.0
15672,55.0,7,180,12.0,0.0
15673,52.0,2,60,13.0,0.0
15674,40.0,105,60,14.0,0.0
15675,62.0,3,120,11.0,0.0
15676,76.0,10,480,1.0,0.0
15677,47.0,3,120,13.0,0.0
15678,64.0,110,480,3.0,0.0
15679,35.0,349,120,14.0,0.0
15680,74.0,10,120,1.0,0.0
15681,62.0,49,120,3.0,0.0
15682,43.0,60,55,15.0,0.0
15683,43.0,120,55,15.0,0.0
15684,43.0,118,115,15.0,0.0
15685,79.0,2,120,0.0,0.0
15686,43.0,118,115,15.0,0.0
15687,88.0,2,120,0.0,0.0
15688,43.0,118,115,15.0,0.0
15689,86.0,240,120,0.0,0.0
15690,86.0,120,120,0.0,0.0
15691,91.0,62,120,0.0,0.0
15692,89.0,2,120,0.0,0.0
15693,43.0,58,55,15.0,0.0
15694,43.0,120,55,15.0,0.0
15695,43.0,119,115,15.0,0.0
15696,74.0,1,120,1.0,0.0
15697,43.0,1,115,15.0,0.0
15698,62.0,1,120,3.0,0.0
15699,67.0,2,180,10.0,0.0
15700,62.0,1,60,11.0,0.0
15701,59.0,7,60,12.0,0.0
15702,47.0,2,60,13.0,0.0
15703,35.0,105,60,14.0,0.0
15704,59.0,2,120,11.0,0.0
15705,79.0,1,120,1.0,0.0
15706,55.0,7,120,12.0,0.0
15707,43.0,2,120,13.0,0.0
15708,67.0,1,120,3.0,0.0
15709,31.0,109,120,14.0,0.0
15710,77.0,10,120,1.0,0.0
15711,65.0,227,120,3.0,0.0
15712,86.0,120,120,0.0,0.0
15713,91.0,62,120,0.0,0.0
15714,89.0,2,120,0.0,0.0
15715,43.0,58,55,15.0,0.0
15716,43.0,120,55,15.0,0.0
15717,43.0,119,115,15.0,0.0
15718,74.0,1,120,1.0,0.0
15719,43.0,1,115,15.0,0.0
15720,62.0,1,120,3.0,0.0
15721,67.0,2,180,10.0,0.0
15722,62.0,1,60,11.0,0.0
15723,59.0,7,60,12.0,0.0
15724,47.0,2,60,13.0,0.0
15725,35.0,105,60,14.0,0.0
15726,59.0,2,120,11.0,0.0
15727,79.0,1,120,1.0,0.0
15728,55.0,7,120,12.0,0.0
15729,43.0,2,120,13.0,0.0
15730,67.0,1,120,3.0,0.0
15731,31.0,109,120,14.0,0.0
15732,77.0,10,120,1.0,0.0
15733,65.0,227,120,3.0,0.0
15734,86.0,120,120,0.0,0.0
15735,91.0,62,120,0.0,0.0
15736,89.0,2,120,0.0,0.0
15737,43.0,58,55,15.0,0.0
15738,43.0,120,55,15.0,0.0
15739,43.0,119,115,15.0,0.0
15740,74.0,1,120,1.0,0.0
15741,62.0,1,120,3.0,0.0
15742,67.0,2,180,10.0,0.0
15743,62.0,2,60,11.0,0.0
15744,59.0,7,60,12.0,0.0
15745,47.0,2,60,13.0,0.0
15746,35.0,105,60,14.0,0.0
15747,59.0,2,120,11.0,0.0
15748,79.0,1,120,1.0,0.0
15749,55.0,7,120,12.0,0.0
15750,43.0,2,120,13.0,0.0
15751,67.0,1,120,3.0,0.0
15752,31.0,48,120,14.0,0.0
15753,77.0,10,120,1.0,0.0
15754,43.0,60,55,15.0,0.0
15755,65.0,109,120,3.0,0.0
15756,43.0,1,55,15.0,0.0
15757,43.0,119,115,15.0,0.0
15758,74.0,8,120,1.0,0.0
15759,62.0,1,120,3.0,0.0
15760,67.0,2,180,10.0,0.0
15761,62.0,2,60,11.0,0.0
15762,55.0,7,180,12.0,0.0
15763,47.0,2,60,13.0,0.0
15764,35.0,105,60,14.0,0.0
15765,59.0,2,120,11.0,0.0
15766,79.0,1,120,1.0,0.0
15767,43.0,2,120,13.0,0.0
15768,67.0,1,120,3.0,0.0
15769,31.0,48,120,14.0,0.0
15770,77.0,10,120,1.0,0.0
15771,43.0,60,55,15.0,0.0
15772,65.0,109,120,3.0,0.0
15773,43.0,1,55,15.0,0.0
15774,43.0,119,115,15.0,0.0
15775,74.0,8,120,1.0,0.0
15776,62.0,1,120,3.0,0.0
15777,67.0,2,180,10.0,0.0
15778,62.0,2,60,11.0,0.0
15779,55.0,1,180,12.0,0.0
15780,47.0,2,60,13.0,0.0
15781,35.0,105,60,14.0,0.0
15782,59.0,3,120,11.0,0.0
15783,79.0,10,480,1.0,0.0
15784,43.0,3,120,13.0,0.0
15785,67.0,110,480,3.0,0.0
15786,31.0,349,120,14.0,0.0
15787,77.0,10,120,1.0,0.0
15788,65.0,346,120,3.0,0.0
15789,74.0,480,120,10.0,0.0
15790,79.0,120,480,10.0,0.0
15791,77.0,360,120,10.0,0.0
15792,74.0,1080,120,10.0,0.0
15793,79.0,110,1080,10.0,0.0
15794,77.0,70,110,10.0,0.0
15795,74.0,120,60,10.0,0.0
15796,71.0,120,60,10.0,0.0
15797,67.0,120,60,10.0,0.0
15798,65.0,2,60,10.0,0.0
15799,65.0,3,60,11.0,0.0
15800,65.0,7,60,12.0,0.0
15801,53.0,3,60,13.0,0.0
15802,41.0,105,60,14.0,0.0
15803,62.0,2,60,10.0,0.0
15804,62.0,3,60,11.0,0.0
15805,62.0,7,60,12.0,0.0
15806,50.0,3,60,13.0,0.0
15807,38.0,105,60,14.0,0.0
15808,60.0,2,60,10.0,0.0
15809,60.0,3,60,11.0,0.0
15810,60.0,7,60,12.0,0.0
15811,48.0,3,60,13.0,0.0
15812,36.0,165,60,14.0,0.0
15813,59.0,2,120,10.0,0.0
15814,59.0,3,120,11.0,0.0
15815,59.0,7,120,12.0,0.0
15816,47.0,3,120,13.0,0.0
15817,35.0,525,120,14.0,0.0
15818,62.0,2,60,10.0,0.0
15819,62.0,3,60,11.0,0.0
15820,62.0,7,60,12.0,0.0
15821,50.0,3,60,13.0,0.0
15822,38.0,105,60,14.0,0.0
15823,64.0,2,60,10.0,0.0
15824,64.0,3,60,11.0,0.0
15825,64.0,7,60,12.0,0.0
15826,52.0,3,60,13.0,0.0
15827,40.0,105,60,14.0,0.0
15828,65.0,2,60,10.0,0.0
15829,65.0,3,60,11.0,0.0
15830,65.0,7,60,12.0,0.0
15831,53.0,3,60,13.0,0.0
15832,41.0,165,60,14.0,0.0
15833,59.0,2,120,10.0,0.0
15834,59.0,3,120,11.0,0.0
15835,59.0,7,120,12.0,0.0
15836,47.0,3,120,13.0,0.0
15837,35.0,525,120,14.0,0.0
15838,65.0,2,60,10.0,0.0
15839,65.0,3,60,11.0,0.0
15840,65.0,7,60,12.0,0.0
15841,53.0,3,60,13.0,0.0
15842,41.0,105,60,14.0,0.0
15843,67.0,2,60,10.0,0.0
15844,67.0,3,60,11.0,0.0
15845,67.0,7,60,12.0,0.0
15846,55.0,3,60,13.0,0.0
15847,43.0,105,60,14.0,0.0
15848,68.0,2,60,10.0,0.0
15849,68.0,3,60,11.0,0.0
15850,68.0,7,60,12.0,0.0
15851,56.0,3,60,13.0,0.0
15852,44.0,165,60,14.0,0.0
15853,59.0,2,120,10.0,0.0
15854,59.0,3,120,11.0,0.0
15855,59.0,7,120,12.0,0.0
15856,47.0,3,120,13.0,0.0
15857,35.0,45,120,14.0,0.0
15858,71.0,120,60,10.0,0.0
15859,72.0,120,60,10.0,0.0
15860,74.0,240,60,10.0,0.0
15861,74.0,120,60,10.0,0.0
15862,76.0,120,60,10.0,0.0
15863,77.0,240,60,10.0,0.0
15864,74.0,120,60,10.0,0.0
15865,76.0,120,60,10.0,0.0
15866,77.0,240,60,10.0,0.0
15867,74.0,120,60,10.0,0.0
15868,76.0,120,60,10.0,0.0
15869,77.0,165,60,10.0,0.0
15870,72.0,60,45,10.0,0.0
15871,79.0,60,45,10.0,0.0
15872,77.0,60,45,10.0,0.0
15873,76.0,60,45,10.0,0.0
15874,74.0,60,45,10.0,0.0
15875,72.0,60,45,10.0,0.0
15876,71.0,60,45,10.0,0.0
15877,81.0,60,45,10.0,0.0
15878,79.0,60,45,10.0,0.0
15879,77.0,60,45,10.0,0.0
15880,76.0,60,45,10.0,0.0
15881,74.0,60,45,10.0,0.0
15882,72.0,60,45,10.0,0.0
15883,83.0,60,45,10.0,0.0
15884,81.0,60,45,10.0,0.0
15885,79.0,60,45,10.0,0.0
15886,77.0,60,45,10.0,0.0
15887,76.0,60,45,10.0,0.0
15888,74.0,60,45,10.0,0.0
15889,84.0,60,45,10.0,0.0
15890,83.0,60,45,10.0,0.0
15891,81.0,60,45,10.0,0.0
15892,79.0,60,45,10.0,0.0
15893,77.0,60,45,10.0,0.0
15894,76.0,60,45,10.0,0.0
15895,86.0,60,45,10.0,0.0
15896,84.0,60,45,10.0,0.0
15897,83.0,60,45,10.0,0.0
15898,81.0,60,45,10.0,0.0
15899,79.0,60,45,10.0,0.0
15900,77.0,60,45,10.0,0.0
15901,88.0,60,45,10.0,0.0
15902,86.0,60,45,10.0,0.0
15903,84.0,60,45,10.0,0.0
15904,83.0,60,45,10.0,0.0
15905,81.0,60,45,10.0,0.0
15906,79.0,60,45,10.0,0.0
15907,89.0,60,45,10.0,0.0
15908,88.0,60,45,10.0,0.0
15909,86.0,60,45,10.0,0.0
15910,84.0,60,45,10.0,0.0
15911,83.0,60,45,10.0,0.0
15912,81.0,60,45,10.0,0.0
15913,79.0,60,45,10.0,0.0
15914,89.0,60,45,10.0,0.0
15915,88.0,60,45,10.0,0.0
15916,86.0,60,45,10.0,0.0
15917,84.0,60,45,10.0,0.0
15918,83.0,60,45,10.0,0.0
15919,81.0,60,45,10.0,0.0
15920,89.0,60,45,10.0,0.0
15921,88.0,60,45,10.0,0.0
15922,86.0,60,45,10.0,0.0
15923,84.0,60,45,10.0,0.0
15924,83.0,60,45,10.0,0.0
15925,81.0,60,45,10.0,0.0
15926,79.0,12,45,10.0,0.0
15927,67.0,48,45,11.0,0.0
15928,81.0,12,45,10.0,0.0
15929,69.0,48,45,11.0,0.0
15930,83.0,12,45,10.0,0.0
15931,71.0,48,45,11.0,0.0
15932,84.0,12,45,10.0,0.0
15933,72.0,48,45,11.0,0.0
15934,86.0,12,45,10.0,0.0
15935,74.0,48,45,11.0,0.0
15936,88.0,12,45,10.0,0.0
15937,76.0,48,45,11.0,0.0
15938,89.0,12,45,10.0,0.0
15939,77.0,48,45,11.0,0.0
15940,79.0,12,45,10.0,0.0
15941,67.0,48,45,11.0,0.0
15942,81.0,12,45,10.0,0.0
15943,69.0,48,45,11.0,0.0
15944,83.0,12,45,10.0,0.0
15945,71.0,48,45,11.0,0.0
15946,84.0,12,45,10.0,0.0
15947,72.0,48,45,11.0,0.0
15948,86.0,12,45,10.0,0.0
15949,74.0,48,45,11.0,0.0
15950,88.0,12,45,10.0,0.0
15951,76.0,48,45,11.0,0.0
15952,89.0,12,45,10.0,0.0
15953,77.0,48,45,11.0,0.0
15954,79.0,12,45,10.0,0.0
15955,67.0,48,45,11.0,0.0
15956,81.0,12,45,10.0,0.0
15957,69.0,48,45,11.0,0.0
15958,83.0,12,45,10.0,0.0
15959,71.0,48,45,11.0,0.0
15960,84.0,12,45,10.0,0.0
15961,72.0,48,45,11.0,0.0
15962,86.0,12,45,10.0,0.0
15963,74.0,48,45,11.0,0.0
15964,88.0,12,45,10.0,0.0
15965,76.0,48,45,11.0,0.0
15966,89.0,12,45,10.0,0.0
15967,77.0,48,45,11.0,0.0
15968,79.0,12,45,10.0,0.0
15969,67.0,48,45,11.0,0.0
15970,81.0,12,45,10.0,0.0
15971,69.0,48,45,11.0,0.0
15972,83.0,12,45,10.0,0.0
15973,71.0,48,45,11.0,0.0
15974,84.0,12,45,10.0,0.0
15975,72.0,48,45,11.0,0.0
15976,86.0,12,45,10.0,0.0
15977,74.0,48,45,11.0,0.0
15978,88.0,12,45,10.0,0.0
15979,76.0,48,45,11.0,0.0
15980,89.0,12,45,10.0,0.0
15981,77.0,48,45,11.0,0.0
15982,79.0,12,45,10.0,0.0
15983,67.0,8,45,11.0,0.0
15984,55.0,40,45,12.0,0.0
15985,81.0,12,45,10.0,0.0
15986,69.0,8,45,11.0,0.0
15987,57.0,40,45,12.0,0.0
15988,83.0,12,45,10.0,0.0
15989,71.0,8,45,11.0,0.0
15990,59.0,40,45,12.0,0.0
15991,84.0,12,45,10.0,0.0
15992,72.0,8,45,11.0,0.0
15993,60.0,40,45,12.0,0.0
15994,84.0,12,45,10.0,0.0
15995,72.0,8,45,11.0,0.0
15996,60.0,40,45,12.0,0.0
15997,86.0,12,45,10.0,0.0
15998,74.0,8,45,11.0,0.0
15999,62.0,40,45,12.0,0.0
16000,88.0,12,45,10.0,0.0
16001,76.0,8,45,11.0,0.0
16002,64.0,40,45,12.0,0.0
16003,89.0,12,45,10.0,0.0
16004,77.0,8,45,11.0,0.0
16005,65.0,40,45,12.0,0.0
16006,79.0,12,45,10.0,0.0
16007,67.0,8,45,11.0,0.0
16008,55.0,40,45,12.0,0.0
16009,81.0,12,45,10.0,0.0
16010,69.0,8,45,11.0,0.0
16011,57.0,40,45,12.0,0.0
16012,83.0,12,45,10.0,0.0
16013,71.0,8,45,11.0,0.0
16014,59.0,40,45,12.0,0.0
16015,84.0,12,45,10.0,0.0
16016,72.0,8,45,11.0,0.0
16017,60.0,40,45,12.0,0.0
16018,84.0,12,45,10.0,0.0
16019,72.0,8,45,11.0,0.0
16020,60.0,40,45,12.0,0.0
16021,86.0,12,45,10.0,0.0
16022,74.0,8,45,11.0,0.0
16023,62.0,40,45,12.0,0.0
16024,88.0,12,45,10.0,0.0
16025,76.0,8,45,11.0,0.0
16026,64.0,40,45,12.0,0.0
16027,89.0,12,45,10.0,0.0
16028,77.0,8,45,11.0,0.0
16029,65.0,40,45,12.0,0.0
16030,79.0,12,45,10.0,0.0
16031,67.0,8,45,11.0,0.0
16032,55.0,40,45,12.0,0.0
16033,81.0,12,45,10.0,0.0
16034,69.0,8,45,11.0,0.0
16035,57.0,40,45,12.0,0.0
16036,83.0,12,45,10.0,0.0
16037,71.0,8,45,11.0,0.0
16038,59.0,40,45,12.0,0.0
16039,84.0,12,45,10.0,0.0
16040,72.0,8,45,11.0,0.0
16041,60.0,40,45,12.0,0.0
16042,84.0,12,45,10.0,0.0
16043,72.0,8,45,11.0,0.0
16044,60.0,40,45,12.0,0.0
16045,86.0,12,45,10.0,0.0
16046,74.0,8,45,11.0,0.0
16047,62.0,40,45,12.0,0.0
16048,88.0,12,45,10.0,0.0
16049,76.0,8,45,11.0,0.0
16050,64.0,40,45,12.0,0.0
16051,89.0,12,45,10.0,0.0
16052,77.0,8,45,11.0,0.0
16053,65.0,40,45,12.0,0.0
16054,79.0,12,45,10.0,0.0
16055,67.0,8,45,11.0,0.0
16056,55.0,40,45,12.0,0.0
16057,81.0,12,45,10.0,0.0
16058,69.0,8,45,11.0,0.0
16059,57.0,40,45,12.0,0.0
16060,83.0,12,45,10.0,0.0
16061,71.0,8,45,11.0,0.0
16062,59.0,40,45,12.0,0.0
16063,84.0,12,45,10.0,0.0
16064,72.0,8,45,11.0,0.0
16065,60.0,40,45,12.0,0.0
16066,84.0,12,45,10.0,0.0
16067,72.0,8,45,11.0,0.0
16068,60.0,40,45,12.0,0.0
16069,86.0,12,45,10.0,0.0
16070,74.0,8,45,11.0,0.0
16071,62.0,40,45,12.0,0.0
16072,88.0,12,45,10.0,0.0
16073,76.0,8,45,11.0,0.0
16074,64.0,40,45,12.0,0.0
16075,89.0,12,45,10.0,0.0
16076,77.0,8,45,11.0,0.0
16077,65.0,40,45,12.0,0.0
16078,79.0,12,45,10.0,0.0
16079,67.0,8,45,11.0,0.0
16080,55.0,7,45,12.0,0.0
16081,43.0,3,45,13.0,0.0
16082,31.0,30,45,14.0,0.0
16083,81.0,12,45,10.0,0.0
16084,69.0,8,45,11.0,0.0
16085,57.0,7,45,12.0,0.0
16086,45.0,3,45,13.0,0.0
16087,33.0,30,45,14.0,0.0
16088,83.0,12,45,10.0,0.0
16089,71.0,8,45,11.0,0.0
16090,59.0,7,45,12.0,0.0
16091,47.0,3,45,13.0,0.0
16092,35.0,30,45,14.0,0.0
16093,84.0,12,45,10.0,0.0
16094,72.0,8,45,11.0,0.0
16095,60.0,7,45,12.0,0.0
16096,48.0,3,45,13.0,0.0
16097,36.0,30,45,14.0,0.0
16098,84.0,12,45,10.0,0.0
16099,72.0,8,45,11.0,0.0
16100,60.0,7,45,12.0,0.0
16101,48.0,3,45,13.0,0.0
16102,36.0,30,45,14.0,0.0
16103,86.0,12,45,10.0,0.0
16104,74.0,8,45,11.0,0.0
16105,62.0,7,45,12.0,0.0
16106,50.0,3,45,13.0,0.0
16107,38.0,30,45,14.0,0.0
16108,88.0,12,45,10.0,0.0
16109,76.0,8,45,11.0,0.0
16110,64.0,7,45,12.0,0.0
16111,52.0,3,45,13.0,0.0
16112,40.0,30,45,14.0,0.0
16113,89.0,12,45,10.0,0.0
16114,77.0,8,45,11.0,0.0
16115,65.0,7,45,12.0,0.0
16116,53.0,3,45,13.0,0.0
16117,41.0,30,45,14.0,0.0
16118,79.0,12,45,10.0,0.0
16119,67.0,8,45,11.0,0.0
16120,55.0,7,45,12.0,0.0
16121,43.0,3,45,13.0,0.0
16122,31.0,30,45,14.0,0.0
16123,81.0,12,45,10.0,0.0
16124,69.0,8,45,11.0,0.0
16125,57.0,7,45,12.0,0.0
16126,45.0,3,45,13.0,0.0
16127,33.0,30,45,14.0,0.0
16128,83.0,12,45,10.0,0.0
16129,71.0,8,45,11.0,0.0
16130,59.0,7,45,12.0,0.0
16131,47.0,3,45,13.0,0.0
16132,35.0,30,45,14.0,0.0
16133,84.0,12,45,10.0,0.0
16134,72.0,8,45,11.0,0.0
16135,60.0,7,45,12.0,0.0
16136,48.0,3,45,13.0,0.0
16137,36.0,30,45,14.0,0.0
16138,84.0,12,45,10.0,0.0
16139,72.0,8,45,11.0,0.0
16140,60.0,7,45,12.0,0.0
16141,48.0,3,45,13.0,0.0
16142,36.0,30,45,14.0,0.0
16143,86.0,12,45,10.0,0.0
16144,74.0,8,45,11.0,0.0
16145,62.0,7,45,12.0,0.0
16146,50.0,3,45,13.0,0.0
16147,38.0,30,45,14.0,0.0
16148,88.0,12,45,10.0,0.0
16149,76.0,8,45,11.0,0.0
16150,64.0,7,45,12.0,0.0
16151,52.0,3,45,13.0,0.0
16152,40.0,30,45,14.0,0.0
16153,89.0,12,45,10.0,0.0
16154,77.0,8,45,11.0,0.0
16155,65.0,7,45,12.0,0.0
16156,53.0,3,45,13.0,0.0
16157,41.0,30,45,14.0,0.0
16158,79.0,12,45,10.0,0.0
16159,67.0,8,45,11.0,0.0
16160,55.0,7,45,12.0,0.0
16161,43.0,3,45,13.0,0.0
16162,31.0,30,45,14.0,0.0
16163,81.0,12,45,10.0,0.0
16164,69.0,8,45,11.0,0.0
16165,57.0,7,45,12.0,0.0
16166,45.0,3,45,13.0,0.0
16167,33.0,30,45,14.0,0.0
16168,83.0,12,45,10.0,0.0
16169,71.0,8,45,11.0,0.0
16170,59.0,7,45,12.0,0.0
16171,47.0,3,45,13.0,0.0
16172,35.0,30,45,14.0,0.0
16173,84.0,12,45,10.0,0.0
16174,72.0,8,45,11.0,0.0
16175,60.0,7,45,12.0,0.0
16176,48.0,3,45,13.0,0.0
16177,36.0,30,45,14.0,0.0
16178,84.0,12,45,10.0,0.0
16179,72.0,8,45,11.0,0.0
16180,60.0,7,45,12.0,0.0
16181,48.0,3,45,13.0,0.0
16182,36.0,30,45,14.0,0.0
16183,86.0,12,45,10.0,0.0
16184,74.0,8,45,11.0,0.0
16185,62.0,7,45,12.0,0.0
16186,50.0,3,45,13.0,0.0
16187,38.0,30,45,14.0,0.0
16188,88.0,12,45,10.0,0.0
16189,76.0,8,45,11.0,0.0
16190,64.0,7,45,12.0,0.0
16191,52.0,3,45,13.0,0.0
16192,40.0,30,45,14.0,0.0
16193,89.0,12,45,10.0,0.0
16194,77.0,8,45,11.0,0.0
16195,65.0,7,45,12.0,0.0
16196,53.0,3,45,13.0,0.0
16197,41.0,30,45,14.0,0.0
16198,79.0,12,45,10.0,0.0
16199,67.0,8,45,11.0,0.0
16200,55.0,7,45,12.0,0.0
16201,43.0,3,45,13.0,0.0
16202,31.0,30,45,14.0,0.0
16203,81.0,12,45,10.0,0.0
16204,69.0,8,45,11.0,0.0
16205,57.0,7,45,12.0,0.0
16206,45.0,3,45,13.0,0.0
16207,33.0,30,45,14.0,0.0
16208,83.0,12,45,10.0,0.0
16209,71.0,8,45,11.0,0.0
16210,59.0,7,45,12.0,0.0
16211,47.0,3,45,13.0,0.0
16212,35.0,30,45,14.0,0.0
16213,84.0,12,45,10.0,0.0
16214,72.0,8,45,11.0,0.0
16215,60.0,7,45,12.0,0.0
16216,48.0,3,45,13.0,0.0
16217,36.0,30,45,14.0,0.0
16218,86.0,12,45,10.0,0.0
16219,74.0,8,45,11.0,0.0
16220,62.0,7,45,12.0,0.0
16221,50.0,3,45,13.0,0.0
16222,38.0,30,45,14.0,0.0
16223,88.0,12,45,10.0,0.0
16224,76.0,8,45,11.0,0.0
16225,64.0,7,45,12.0,0.0
16226,52.0,3,45,13.0,0.0
16227,40.0,30,45,14.0,0.0
16228,89.0,12,45,10.0,0.0
16229,77.0,8,45,11.0,0.0
16230,65.0,7,45,12.0,0.0
16231,53.0,3,45,13.0,0.0
16232,41.0,30,45,14.0,0.0
16233,91.0,12,45,10.0,0.0
16234,79.0,8,45,11.0,0.0
16235,67.0,7,45,12.0,0.0
16236,55.0,3,45,13.0,0.0
16237,43.0,30,45,14.0,0.0
16238,89.0,12,45,10.0,0.0
16239,77.0,8,45,11.0,0.0
16240,65.0,7,45,12.0,0.0
16241,53.0,3,45,13.0,0.0
16242,41.0,30,45,14.0,0.0
16243,88.0,12,45,10.0,0.0
16244,76.0,8,45,11.0,0.0
16245,64.0,7,45,12.0,0.0
16246,52.0,3,45,13.0,0.0
16247,40.0,30,45,14.0,0.0
16248,86.0,12,45,10.0,0.0
16249,74.0,8,45,11.0,0.0
16250,62.0,7,45,12.0,0.0
16251,50.0,3,45,13.0,0.0
16252,38.0,30,45,14.0,0.0
16253,84.0,3,45,10.0,0.0
16254,72.0,2,1800,0.0,0.0
16255,72.0,3,105,11.0,0.0
16256,60.0,1,1800,6.0,0.0
16257,72.0,0,1800,6.0,0.0
16258,60.0,0,1800,4.0,0.0
16259,76.0,0,1800,1.0,0.0
16260,84.0,0,1800,1.0,0.0
16261,64.0,0,1800,7.0,0.0
16262,60.0,7,105,12.0,0.0
16263,52.0,0,1800,5.0,0.0
16264,76.0,0,1800,2.0,0.0
16265,60.0,1,1800,7.0,0.0
16266,48.0,40,40,15.0,0.0
16267,48.0,3,105,13.0,0.0
16268,48.0,32,1800,8.0,0.0
16269,48.0,4,110,3.0,0.0
16270,36.0,4,105,14.0,0.0
16271,84.0,2,45,10.0,0.0
16272,48.0,17,0,15.0,0.0
16273,88.0,3,45,10.0,0.0
16274,84.0,3,105,11.0,0.0
16275,76.0,0,105,11.0,0.0
16276,60.0,0,105,12.0,0.0
16277,64.0,7,105,12.0,0.0
16278,48.0,40,40,15.0,0.0
16279,60.0,3,105,13.0,0.0
16280,60.0,4,110,3.0,0.0
16281,48.0,4,105,14.0,0.0
16282,48.0,17,40,15.0,0.0
16283,88.0,2,45,10.0,0.0
16284,48.0,37,40,15.0,0.0
16285,88.0,3,45,10.0,0.0
16286,84.0,0,105,11.0,0.0
16287,76.0,3,105,11.0,0.0
16288,64.0,0,105,12.0,0.0
16289,60.0,7,105,12.0,0.0
16290,48.0,40,40,15.0,0.0
16291,60.0,3,105,13.0,0.0
16292,60.0,4,110,3.0,0.0
16293,48.0,4,105,14.0,0.0
16294,48.0,17,40,15.0,0.0
16295,88.0,2,45,10.0,0.0
16296,91.0,3,45,10.0,0.0
16297,76.0,3,105,11.0,0.0
16298,84.0,0,105,11.0,0.0
16299,60.0,7,105,12.0,0.0
16300,64.0,0,105,12.0,0.0
16301,48.0,37,0,15.0,0.0
16302,60.0,3,105,13.0,0.0
16303,60.0,4,110,3.0,0.0
16304,48.0,4,105,14.0,0.0
16305,48.0,40,0,15.0,0.0
16306,91.0,2,45,10.0,0.0
16307,48.0,17,0,15.0,0.0
16308,93.0,3,45,10.0,0.0
16309,84.0,3,105,11.0,0.0
16310,76.0,0,105,11.0,0.0
16311,64.0,7,105,12.0,0.0
16312,60.0,0,105,12.0,0.0
16313,48.0,40,40,15.0,0.0
16314,60.0,3,105,13.0,0.0
16315,60.0,4,110,3.0,0.0
16316,48.0,4,105,14.0,0.0
16317,93.0,2,45,10.0,0.0
16318,48.0,17,0,15.0,0.0
16319,93.0,3,45,10.0,0.0
16320,76.0,0,105,11.0,0.0
16321,84.0,3,105,11.0,0.0
16322,60.0,0,105,12.0,0.0
16323,64.0,7,105,12.0,0.0
16324,48.0,37,0,15.0,0.0
16325,60.0,3,105,13.0,0.0
16326,60.0,4,110,3.0,0.0
16327,48.0,4,105,14.0,0.0
16328,48.0,17,40,15.0,0.0
16329,93.0,2,45,10.0,0.0
16330,93.0,3,45,10.0,0.0
16331,84.0,3,105,11.0,0.0
16332,76.0,0,105,11.0,0.0
16333,64.0,7,105,12.0,0.0
16334,60.0,0,105,12.0,0.0
16335,48.0,37,0,15.0,0.0
16336,60.0,3,105,13.0,0.0
16337,60.0,4,110,3.0,0.0
16338,48.0,4,105,14.0,0.0
16339,48.0,17,40,15.0,0.0
16340,93.0,2,45,10.0,0.0
16341,48.0,37,40,15.0,0.0
16342,91.0,3,45,10.0,0.0
16343,84.0,3,105,11.0,0.0
16344,76.0,0,105,11.0,0.0
16345,60.0,7,105,12.0,0.0
16346,64.0,0,105,12.0,0.0
16347,60.0,3,105,13.0,0.0
16348,60.0,4,110,3.0,0.0
16349,48.0,4,105,14.0,0.0
16350,48.0,40,0,15.0,0.0
16351,91.0,2,45,10.0,0.0
16352,48.0,17,0,15.0,0.0
16353,88.0,3,45,10.0,0.0
16354,76.0,0,105,11.0,0.0
16355,84.0,3,105,11.0,0.0
16356,60.0,7,105,12.0,0.0
16357,64.0,0,105,12.0,0.0
16358,48.0,40,40,15.0,0.0
16359,60.0,3,105,13.0,0.0
16360,60.0,4,110,3.0,0.0
16361,48.0,4,105,14.0,0.0
16362,88.0,2,45,10.0,0.0
16363,48.0,17,0,15.0,0.0
16364,84.0,3,45,10.0,0.0
16365,84.0,3,105,11.0,0.0
16366,76.0,0,105,11.0,0.0
16367,60.0,0,105,12.0,0.0
16368,64.0,7,105,12.0,0.0
16369,48.0,37,0,15.0,0.0
16370,60.0,3,105,13.0,0.0
16371,60.0,4,110,3.0,0.0
16372,48.0,4,105,14.0,0.0
16373,48.0,40,0,15.0,0.0
16374,84.0,2,45,10.0,0.0
16375,48.0,17,0,15.0,0.0
16376,79.0,3,45,10.0,0.0
16377,84.0,0,105,11.0,0.0
16378,76.0,3,105,11.0,0.0
16379,60.0,0,105,12.0,0.0
16380,64.0,7,105,12.0,0.0
16381,48.0,37,0,15.0,0.0
16382,60.0,3,105,13.0,0.0
16383,60.0,4,110,3.0,0.0
16384,48.0,4,105,14.0,0.0
16385,48.0,17,40,15.0,0.0
16386,79.0,2,45,10.0,0.0
16387,76.0,3,45,10.0,0.0
16388,84.0,3,105,11.0,0.0
16389,76.0,0,105,11.0,0.0
16390,64.0,7,105,12.0,0.0
16391,60.0,0,105,12.0,0.0
16392,48.0,37,0,15.0,0.0
16393,60.0,3,105,13.0,0.0
16394,60.0,4,110,3.0,0.0
16395,48.0,4,105,14.0,0.0
16396,48.0,17,40,15.0,0.0
16397,76.0,2,45,10.0,0.0
16398,84.0,3,45,10.0,0.0
16399,76.0,3,105,11.0,0.0
16400,84.0,0,105,11.0,0.0
16401,60.0,7,105,12.0,0.0
16402,64.0,0,105,12.0,0.0
16403,48.0,37,0,15.0,0.0
16404,60.0,3,105,13.0,0.0
16405,60.0,4,110,3.0,0.0
16406,48.0,4,105,14.0,0.0
16407,84.0,2,45,10.0,0.0
16408,48.0,17,0,15.0,0.0
16409,79.0,3,45,10.0,0.0
16410,84.0,3,105,11.0,0.0
16411,76.0,0,105,11.0,0.0
16412,64.0,0,105,12.0,0.0
16413,60.0,7,105,12.0,0.0
16414,48.0,37,0,15.0,0.0
16415,60.0,3,105,13.0,0.0
16416,60.0,4,110,3.0,0.0
16417,48.0,4,105,14.0,0.0
16418,48.0,40,0,15.0,0.0
16419,79.0,2,45,10.0,0.0
16420,48.0,17,0,15.0,0.0
16421,76.0,3,45,10.0,0.0
16422,84.0,3,105,11.0,0.0
16423,76.0,0,105,11.0,0.0
16424,60.0,0,105,12.0,0.0
16425,64.0,7,105,12.0,0.0
16426,48.0,40,40,15.0,0.0
16427,60.0,3,105,13.0,0.0
16428,60.0,0,110,3.0,0.0
16429,48.0,1,105,14.0,0.0
16430,48.0,17,40,15.0,0.0
16431,76.0,2,45,10.0,0.0
16432,72.0,2,45,10.0,0.0
16433,84.0,0,0,0.0,0.0
16434,72.0,1,45,11.0,0.0
16435,60.0,0,110,6.0,0.0
16436,72.0,1,110,6.0,0.0
16437,72.0,0,110,1.0,0.0
16438,60.0,2,110,4.0,0.0
16439,52.0,2,0,4.0,0.0
16440,55.0,38,45,12.0,0.0
16441,72.0,0,0,2.0,0.0
16442,60.0,0,110,2.0,0.0
16443,52.0,1,110,5.0,0.0
16444,60.0,1,0,5.0,0.0
16445,48.0,5,0,15.0,0.0
16446,52.0,3,105,13.0,0.0
16447,52.0,4,110,3.0,0.0
16448,60.0,0,110,3.0,0.0
16449,40.0,4,105,14.0,0.0
16450,48.0,17,40,15.0,0.0
16451,72.0,2,45,10.0,0.0
16452,72.0,3,45,11.0,0.0
16453,55.0,1,45,12.0,0.0
16454,74.0,2,45,10.0,0.0
16455,86.0,2,110,0.0,0.0
16456,74.0,3,45,11.0,0.0
16457,72.0,0,110,6.0,0.0
16458,60.0,1,110,6.0,0.0
16459,60.0,2,110,4.0,0.0
16460,52.0,0,110,4.0,0.0
16461,74.0,0,110,1.0,0.0
16462,57.0,55,45,12.0,0.0
16463,74.0,0,110,2.0,0.0
16464,60.0,0,110,5.0,0.0
16465,62.0,0,110,2.0,0.0
16466,52.0,1,110,5.0,0.0
16467,48.0,37,0,15.0,0.0
16468,53.0,3,105,13.0,0.0
16469,53.0,4,110,3.0,0.0
16470,62.0,0,110,3.0,0.0
16471,41.0,4,105,14.0,0.0
16472,74.0,2,45,10.0,0.0
16473,74.0,3,45,11.0,0.0
16474,57.0,1,45,12.0,0.0
16475,72.0,2,45,10.0,0.0
16476,84.0,2,110,0.0,0.0
16477,72.0,3,45,11.0,0.0
16478,60.0,0,110,6.0,0.0
16479,72.0,1,110,6.0,0.0
16480,72.0,2,110,1.0,0.0
16481,60.0,0,110,4.0,0.0
16482,52.0,0,110,4.0,0.0
16483,55.0,55,45,12.0,0.0
16484,52.0,0,110,5.0,0.0
16485,60.0,0,110,5.0,0.0
16486,60.0,0,110,2.0,0.0
16487,72.0,1,110,2.0,0.0
16488,48.0,37,0,15.0,0.0
16489,52.0,3,105,13.0,0.0
16490,60.0,0,110,3.0,0.0
16491,52.0,4,110,3.0,0.0
16492,40.0,4,105,14.0,0.0
16493,72.0,2,45,10.0,0.0
16494,72.0,3,45,11.0,0.0
16495,55.0,1,45,12.0,0.0
16496,74.0,2,45,10.0,0.0
16497,86.0,2,110,0.0,0.0
16498,74.0,3,45,11.0,0.0
16499,72.0,0,110,6.0,0.0
16500,60.0,1,110,6.0,0.0
16501,52.0,2,110,4.0,0.0
16502,60.0,0,110,4.0,0.0
16503,74.0,0,110,1.0,0.0
16504,57.0,55,45,12.0,0.0
16505,62.0,0,110,2.0,0.0
16506,60.0,0,110,5.0,0.0
16507,74.0,1,110,2.0,0.0
16508,52.0,0,110,5.0,0.0
16509,48.0,37,0,15.0,0.0
16510,53.0,3,105,13.0,0.0
16511,53.0,4,110,3.0,0.0
16512,62.0,0,110,3.0,0.0
16513,41.0,4,105,14.0,0.0
16514,74.0,2,45,10.0,0.0
16515,74.0,3,45,11.0,0.0
16516,57.0,1,45,12.0,0.0
16517,72.0,2,45,10.0,0.0
16518,84.0,2,110,0.0,0.0
16519,72.0,3,45,11.0,0.0
16520,60.0,0,110,6.0,0.0
16521,72.0,1,110,6.0,0.0
16522,60.0,2,110,4.0,0.0
16523,52.0,0,110,4.0,0.0
16524,72.0,0,110,1.0,0.0
16525,55.0,55,45,12.0,0.0
16526,60.0,0,110,5.0,0.0
16527,52.0,1,110,5.0,0.0
16528,60.0,0,110,2.0,0.0
16529,72.0,0,110,2.0,0.0
16530,52.0,3,105,13.0,0.0
16531,60.0,0,110,3.0,0.0
16532,52.0,4,110,3.0,0.0
16533,40.0,4,105,14.0,0.0
16534,72.0,2,45,10.0,0.0
16535,72.0,3,45,11.0,0.0
16536,55.0,1,45,12.0,0.0
16537,74.0,2,45,10.0,0.0
16538,86.0,3,110,0.0,0.0
16539,74.0,3,45,11.0,0.0
16540,72.0,1,120,6.0,0.0
16541,60.0,0,120,6.0,0.0
16542,60.0,0,110,4.0,0.0
16543,48.0,0,110,4.0,0.0
16544,74.0,2,110,1.0,0.0
16545,57.0,55,45,12.0,0.0
16546,48.0,0,110,5.0,0.0
16547,62.0,1,110,2.0,0.0
16548,60.0,0,110,5.0,0.0
16549,74.0,0,110,2.0,0.0
16550,48.0,37,0,15.0,0.0
16551,53.0,3,105,13.0,0.0
16552,62.0,4,110,3.0,0.0
16553,53.0,0,110,3.0,0.0
16554,41.0,3,105,14.0,0.0
16555,74.0,2,45,10.0,0.0
16556,74.0,3,45,11.0,0.0
16557,57.0,1,45,12.0,0.0
16558,72.0,2,45,10.0,0.0
16559,84.0,3,230,0.0,0.0
16560,72.0,3,45,11.0,0.0
16561,72.0,0,230,1.0,0.0
16562,48.0,2,230,4.0,0.0
16563,60.0,0,230,4.0,0.0
16564,55.0,55,45,12.0,0.0
16565,72.0,0,230,2.0,0.0
16566,60.0,0,230,2.0,0.0
16567,60.0,0,230,5.0,0.0
16568,48.0,1,230,5.0,0.0
16569,52.0,3,225,13.0,0.0
16570,52.0,0,230,3.0,0.0
16571,60.0,41,230,3.0,0.0
16572,40.0,4,225,14.0,0.0
16573,72.0,2,45,10.0,0.0
16574,72.0,3,45,11.0,0.0
16575,55.0,55,45,12.0,0.0
16576,72.0,2,45,10.0,0.0
16577,72.0,3,45,11.0,0.0
16578,55.0,55,45,12.0,0.0
16579,72.0,2,45,10.0,0.0
16580,72.0,3,45,11.0,0.0
16581,55.0,1,45,12.0,0.0
16582,76.0,2,45,10.0,0.0
16583,84.0,2,110,0.0,0.0
16584,88.0,0,110,0.0,0.0
16585,64.0,3,45,11.0,0.0
16586,72.0,1,110,6.0,0.0
16587,60.0,0,110,6.0,0.0
16588,76.0,2,110,1.0,0.0
16589,48.0,0,110,4.0,0.0
16590,60.0,0,110,4.0,0.0
16591,72.0,0,110,1.0,0.0
16592,60.0,55,45,12.0,0.0
16593,64.0,0,110,2.0,0.0
16594,76.0,0,110,2.0,0.0
16595,48.0,0,110,5.0,0.0
16596,60.0,1,110,5.0,0.0
16597,48.0,37,120,15.0,0.0
16598,55.0,3,105,13.0,0.0
16599,64.0,0,110,3.0,0.0
16600,55.0,4,110,3.0,0.0
16601,43.0,4,105,14.0,0.0
16602,76.0,2,45,10.0,0.0
16603,64.0,3,45,11.0,0.0
16604,60.0,1,45,12.0,0.0
16605,77.0,2,45,10.0,0.0
16606,89.0,2,110,0.0,0.0
16607,84.0,0,110,0.0,0.0
16608,65.0,3,45,11.0,0.0
16609,72.0,0,110,6.0,0.0
16610,60.0,1,110,6.0,0.0
16611,77.0,0,110,1.0,0.0
16612,48.0,0,110,4.0,0.0
16613,60.0,0,110,4.0,0.0
16614,72.0,2,110,1.0,0.0
16615,60.0,55,45,12.0,0.0
16616,65.0,1,110,2.0,0.0
16617,48.0,0,110,5.0,0.0
16618,60.0,0,110,5.0,0.0
16619,77.0,0,110,2.0,0.0
16620,48.0,37,120,15.0,0.0
16621,57.0,3,105,13.0,0.0
16622,57.0,0,110,3.0,0.0
16623,65.0,4,110,3.0,0.0
16624,45.0,4,105,14.0,0.0
16625,77.0,2,45,10.0,0.0
16626,65.0,3,45,11.0,0.0
16627,60.0,1,45,12.0,0.0
16628,76.0,2,45,10.0,0.0
16629,88.0,0,110,0.0,0.0
16630,84.0,2,110,0.0,0.0
16631,64.0,3,45,11.0,0.0
16632,60.0,1,110,6.0,0.0
16633,72.0,0,110,6.0,0.0
16634,60.0,0,110,4.0,0.0
16635,48.0,0,110,4.0,0.0
16636,72.0,0,110,1.0,0.0
16637,76.0,2,110,1.0,0.0
16638,60.0,55,45,12.0,0.0
16639,48.0,0,110,5.0,0.0
16640,60.0,0,110,5.0,0.0
16641,64.0,1,110,2.0,0.0
16642,76.0,0,110,2.0,0.0
16643,55.0,3,105,13.0,0.0
16644,55.0,0,110,3.0,0.0
16645,64.0,4,110,3.0,0.0
16646,43.0,4,105,14.0,0.0
16647,76.0,2,45,10.0,0.0
16648,64.0,3,45,11.0,0.0
16649,60.0,1,45,12.0,0.0
16650,77.0,2,45,10.0,0.0
16651,84.0,0,110,0.0,0.0
16652,89.0,2,110,0.0,0.0
16653,65.0,3,45,11.0,0.0
16654,60.0,1,110,6.0,0.0
16655,72.0,0,110,6.0,0.0
16656,48.0,0,110,4.0,0.0
16657,77.0,0,110,1.0,0.0
16658,72.0,2,110,1.0,0.0
16659,60.0,0,110,4.0,0.0
16660,60.0,55,45,12.0,0.0
16661,77.0,1,110,2.0,0.0
16662,65.0,0,110,2.0,0.0
16663,48.0,0,110,5.0,0.0
16664,60.0,0,110,5.0,0.0
16665,48.0,37,0,15.0,0.0
16666,57.0,3,105,13.0,0.0
16667,57.0,0,110,3.0,0.0
16668,65.0,4,110,3.0,0.0
16669,45.0,4,105,14.0,0.0
16670,77.0,2,45,10.0,0.0
16671,65.0,3,45,11.0,0.0
16672,60.0,1,45,12.0,0.0
16673,76.0,2,45,10.0,0.0
16674,88.0,2,110,0.0,0.0
16675,84.0,0,110,0.0,0.0
16676,64.0,3,45,11.0,0.0
16677,72.0,1,110,6.0,0.0
16678,60.0,0,110,6.0,0.0
16679,48.0,2,110,4.0,0.0
16680,72.0,0,110,1.0,0.0
16681,76.0,0,110,1.0,0.0
16682,60.0,0,110,4.0,0.0
16683,60.0,55,45,12.0,0.0
16684,48.0,0,110,5.0,0.0
16685,76.0,0,110,2.0,0.0
16686,64.0,0,110,2.0,0.0
16687,60.0,1,110,5.0,0.0
16688,55.0,3,105,13.0,0.0
16689,55.0,4,110,3.0,0.0
16690,64.0,0,110,3.0,0.0
16691,43.0,4,105,14.0,0.0
16692,76.0,2,45,10.0,0.0
16693,64.0,3,45,11.0,0.0
16694,60.0,1,45,12.0,0.0
16695,77.0,2,45,10.0,0.0
16696,84.0,2,110,0.0,0.0
16697,89.0,0,110,0.0,0.0
16698,65.0,3,45,11.0,0.0
16699,72.0,1,110,6.0,0.0
16700,60.0,0,110,6.0,0.0
16701,77.0,2,110,1.0,0.0
16702,48.0,0,110,4.0,0.0
16703,60.0,0,110,4.0,0.0
16704,72.0,0,110,1.0,0.0
16705,60.0,55,45,12.0,0.0
16706,65.0,0,110,2.0,0.0
16707,60.0,1,110,5.0,0.0
16708,77.0,0,110,2.0,0.0
16709,48.0,0,110,5.0,0.0
16710,48.0,37,0,15.0,0.0
16711,57.0,3,105,13.0,0.0
16712,65.0,0,110,3.0,0.0
16713,57.0,4,110,3.0,0.0
16714,45.0,4,105,14.0,0.0
16715,77.0,2,45,10.0,0.0
16716,65.0,3,45,11.0,0.0
16717,60.0,1,45,12.0,0.0
16718,76.0,2,45,10.0,0.0
16719,84.0,0,230,0.0,0.0
16720,88.0,3,230,0.0,0.0
16721,64.0,3,45,11.0,0.0
16722,72.0,5,120,6.0,0.0
16723,60.0,0,120,6.0,0.0
16724,72.0,0,230,1.0,0.0
16725,76.0,2,230,1.0,0.0
16726,60.0,0,230,4.0,0.0
16727,48.0,0,230,4.0,0.0
16728,60.0,55,45,12.0,0.0
16729,76.0,0,230,2.0,0.0
16730,60.0,0,230,5.0,0.0
16731,48.0,0,230,5.0,0.0
16732,64.0,1,230,2.0,0.0
16733,48.0,37,0,15.0,0.0
16734,55.0,3,225,13.0,0.0
16735,55.0,0,230,3.0,0.0
16736,64.0,41,230,3.0,0.0
16737,43.0,4,225,14.0,0.0
16738,76.0,2,45,10.0,0.0
16739,64.0,3,45,11.0,0.0
16740,60.0,13,45,12.0,0.0
16741,76.0,2,45,10.0,0.0
16742,64.0,3,45,11.0,0.0
16743,60.0,55,45,12.0,0.0
16744,76.0,2,45,10.0,0.0
16745,64.0,3,45,11.0,0.0
16746,60.0,1,45,12.0,0.0
16747,84.0,2,45,10.0,0.0
16748,84.0,2,110,0.0,0.0
16749,72.0,3,45,11.0,0.0
16750,72.0,0,110,6.0,0.0
16751,60.0,1,110,6.0,0.0
16752,72.0,2,110,1.0,0.0
16753,60.0,0,110,4.0,0.0
16754,48.0,0,110,4.0,0.0
16755,60.0,55,45,12.0,0.0
16756,48.0,0,110,5.0,0.0
16757,60.0,1,110,5.0,0.0
16758,60.0,0,110,2.0,0.0
16759,72.0,0,110,2.0,0.0
16760,48.0,37,120,15.0,0.0
16761,52.0,3,105,13.0,0.0
16762,60.0,0,110,3.0,0.0
16763,52.0,4,110,3.0,0.0
16764,40.0,4,105,14.0,0.0
16765,84.0,2,45,10.0,0.0
16766,72.0,3,45,11.0,0.0
16767,60.0,1,45,12.0,0.0
16768,86.0,2,45,10.0,0.0
16769,86.0,2,120,0.0,0.0
16770,74.0,3,45,11.0,0.0
16771,60.0,0,120,6.0,0.0
16772,72.0,1,120,6.0,0.0
16773,60.0,2,110,4.0,0.0
16774,48.0,0,110,4.0,0.0
16775,74.0,2,120,1.0,0.0
16776,57.0,55,45,12.0,0.0
16777,60.0,5,110,5.0,0.0
16778,74.0,2,120,2.0,0.0
16779,62.0,0,120,2.0,0.0
16780,48.0,0,110,5.0,0.0
16781,48.0,4,120,15.0,0.0
16782,53.0,2,120,13.0,0.0
16783,53.0,1,120,3.0,0.0
16784,62.0,0,120,3.0,0.0
16785,41.0,30,120,14.0,0.0
16786,86.0,2,45,10.0,0.0
16787,74.0,3,45,11.0,0.0
16788,57.0,4,45,12.0,0.0
16789,84.0,2,45,10.0,0.0
16790,84.0,3,110,0.0,0.0
16791,72.0,3,45,11.0,0.0
16792,48.0,0,110,4.0,0.0
16793,72.0,0,110,1.0,0.0
16794,60.0,2,110,4.0,0.0
16795,55.0,55,45,12.0,0.0
16796,60.0,0,110,2.0,0.0
16797,60.0,0,110,5.0,0.0
16798,48.0,1,110,5.0,0.0
16799,72.0,0,110,2.0,0.0
16800,52.0,3,105,13.0,0.0
16801,52.0,41,110,3.0,0.0
16802,60.0,0,110,3.0,0.0
16803,40.0,4,105,14.0,0.0
16804,84.0,2,45,10.0,0.0
16805,72.0,3,45,11.0,0.0
16806,55.0,1,45,12.0,0.0
16807,84.0,2,45,10.0,0.0
16808,84.0,3,110,0.0,0.0
16809,72.0,3,45,11.0,0.0
16810,60.0,2,110,4.0,0.0
16811,72.0,0,110,1.0,0.0
16812,48.0,0,110,4.0,0.0
16813,55.0,55,45,12.0,0.0
16814,60.0,0,110,5.0,0.0
16815,48.0,1,110,5.0,0.0
16816,60.0,0,110,2.0,0.0
16817,72.0,0,110,2.0,0.0
16818,52.0,3,105,13.0,0.0
16819,52.0,0,110,3.0,0.0
16820,60.0,41,110,3.0,0.0
16821,40.0,4,105,14.0,0.0
16822,84.0,2,45,10.0,0.0
16823,72.0,3,45,11.0,0.0
16824,55.0,1,45,12.0,0.0
16825,84.0,2,45,10.0,0.0
16826,84.0,3,110,0.0,0.0
16827,72.0,3,45,11.0,0.0
16828,72.0,0,110,1.0,0.0
16829,48.0,0,110,4.0,0.0
16830,60.0,2,110,4.0,0.0
16831,55.0,55,45,12.0,0.0
16832,60.0,0,110,5.0,0.0
16833,48.0,0,110,5.0,0.0
16834,60.0,1,110,2.0,0.0
16835,72.0,0,110,2.0,0.0
16836,52.0,3,105,13.0,0.0
16837,60.0,41,110,3.0,0.0
16838,52.0,0,110,3.0,0.0
16839,40.0,4,105,14.0,0.0
16840,84.0,2,45,10.0,0.0
16841,72.0,3,45,11.0,0.0
16842,55.0,1,45,12.0,0.0
16843,86.0,2,45,10.0,0.0
16844,86.0,2,120,0.0,0.0
16845,74.0,3,45,11.0,0.0
16846,72.0,0,120,6.0,0.0
16847,60.0,1,120,6.0,0.0
16848,60.0,2,110,4.0,0.0
16849,48.0,0,110,4.0,0.0
16850,74.0,2,120,1.0,0.0
16851,57.0,55,45,12.0,0.0
16852,74.0,0,120,2.0,0.0
16853,62.0,2,120,2.0,0.0
16854,48.0,0,110,5.0,0.0
16855,60.0,5,110,5.0,0.0
16856,48.0,4,120,15.0,0.0
16857,53.0,2,120,13.0,0.0
16858,62.0,0,120,3.0,0.0
16859,53.0,1,120,3.0,0.0
16860,41.0,30,120,14.0,0.0
16861,86.0,2,45,10.0,0.0
16862,74.0,3,45,11.0,0.0
16863,57.0,4,45,12.0,0.0
16864,84.0,2,45,10.0,0.0
16865,84.0,3,110,0.0,0.0
16866,72.0,3,45,11.0,0.0
16867,48.0,0,110,4.0,0.0
16868,60.0,0,110,4.0,0.0
16869,72.0,2,110,1.0,0.0
16870,55.0,55,45,12.0,0.0
16871,48.0,1,110,5.0,0.0
16872,60.0,0,110,5.0,0.0
16873,72.0,0,110,2.0,0.0
16874,60.0,0,110,2.0,0.0
16875,52.0,3,105,13.0,0.0
16876,52.0,0,110,3.0,0.0
16877,60.0,41,110,3.0,0.0
16878,40.0,4,105,14.0,0.0
16879,84.0,2,45,10.0,0.0
16880,72.0,3,45,11.0,0.0
16881,55.0,1,45,12.0,0.0
16882,84.0,2,45,10.0,0.0
16883,84.0,3,110,0.0,0.0
16884,72.0,3,45,11.0,0.0
16885,72.0,0,110,1.0,0.0
16886,60.0,0,110,4.0,0.0
16887,48.0,2,110,4.0,0.0
16888,55.0,55,45,12.0,0.0
16889,60.0,1,110,2.0,0.0
16890,72.0,0,110,2.0,0.0
16891,60.0,0,110,5.0,0.0
16892,48.0,0,110,5.0,0.0
16893,52.0,3,105,13.0,0.0
16894,52.0,41,110,3.0,0.0
16895,60.0,0,110,3.0,0.0
16896,40.0,4,105,14.0,0.0
16897,84.0,2,45,10.0,0.0
16898,72.0,3,45,11.0,0.0
16899,55.0,1,45,12.0,0.0
16900,84.0,2,45,10.0,0.0
16901,84.0,3,110,0.0,0.0
16902,72.0,3,45,11.0,0.0
16903,72.0,2,110,1.0,0.0
16904,60.0,0,110,4.0,0.0
16905,48.0,0,110,4.0,0.0
16906,55.0,55,45,12.0,0.0
16907,60.0,0,110,2.0,0.0
16908,72.0,0,110,2.0,0.0
16909,60.0,0,110,5.0,0.0
16910,48.0,1,110,5.0,0.0
16911,52.0,3,105,13.0,0.0
16912,60.0,41,110,3.0,0.0
16913,52.0,0,110,3.0,0.0
16914,40.0,4,105,14.0,0.0
16915,84.0,2,45,10.0,0.0
16916,72.0,3,45,11.0,0.0
16917,55.0,1,45,12.0,0.0
16918,89.0,2,45,10.0,0.0
16919,89.0,0,120,0.0,0.0
16920,77.0,3,45,11.0,0.0
16921,72.0,0,120,6.0,0.0
16922,60.0,1,120,6.0,0.0
16923,48.0,2,110,4.0,0.0
16924,60.0,0,110,4.0,0.0
16925,77.0,2,120,1.0,0.0
16926,72.0,0,120,1.0,0.0
16927,60.0,55,45,12.0,0.0
16928,65.0,0,120,2.0,0.0
16929,77.0,2,120,2.0,0.0
16930,60.0,5,110,5.0,0.0
16931,48.0,0,110,5.0,0.0
16932,48.0,4,120,15.0,0.0
16933,57.0,2,120,13.0,0.0
16934,65.0,0,120,3.0,0.0
16935,57.0,1,120,3.0,0.0
16936,45.0,30,120,14.0,0.0
16937,89.0,2,45,10.0,0.0
16938,77.0,3,45,11.0,0.0
16939,60.0,4,45,12.0,0.0
16940,88.0,2,45,10.0,0.0
16941,88.0,3,110,0.0,0.0
16942,84.0,2,0,0.0,0.0
16943,76.0,3,45,11.0,0.0
16944,72.0,2,110,1.0,0.0
16945,76.0,0,110,1.0,0.0
16946,60.0,0,110,4.0,0.0
16947,48.0,0,110,4.0,0.0
16948,72.0,55,45,12.0,0.0
16949,60.0,0,110,5.0,0.0
16950,76.0,0,110,2.0,0.0
16951,48.0,1,110,5.0,0.0
16952,64.0,0,110,2.0,0.0
16953,55.0,3,105,13.0,0.0
16954,64.0,0,110,3.0,0.0
16955,55.0,41,110,3.0,0.0
16956,43.0,4,105,14.0,0.0
16957,88.0,2,45,10.0,0.0
16958,76.0,3,45,11.0,0.0
16959,72.0,1,45,12.0,0.0
16960,88.0,2,45,10.0,0.0
16961,88.0,0,110,0.0,0.0
16962,84.0,3,110,0.0,0.0
16963,76.0,3,45,11.0,0.0
16964,60.0,0,110,4.0,0.0
16965,76.0,2,110,1.0,0.0
16966,72.0,0,110,1.0,0.0
16967,48.0,0,110,4.0,0.0
16968,72.0,55,45,12.0,0.0
16969,48.0,1,110,5.0,0.0
16970,76.0,0,110,2.0,0.0
16971,64.0,0,110,2.0,0.0
16972,60.0,0,110,5.0,0.0
16973,55.0,3,105,13.0,0.0
16974,64.0,41,110,3.0,0.0
16975,55.0,0,110,3.0,0.0
16976,43.0,4,105,14.0,0.0
16977,88.0,2,45,10.0,0.0
16978,76.0,3,45,11.0,0.0
16979,72.0,1,45,12.0,0.0
16980,88.0,2,45,10.0,0.0
16981,84.0,3,110,0.0,0.0
16982,88.0,0,110,0.0,0.0
16983,76.0,3,45,11.0,0.0
16984,60.0,0,110,4.0,0.0
16985,76.0,2,110,1.0,0.0
16986,72.0,0,110,1.0,0.0
16987,48.0,0,110,4.0,0.0
16988,72.0,55,45,12.0,0.0
16989,64.0,1,110,2.0,0.0
16990,76.0,0,110,2.0,0.0
16991,60.0,0,110,5.0,0.0
16992,48.0,0,110,5.0,0.0
16993,55.0,3,105,13.0,0.0
16994,55.0,0,110,3.0,0.0
16995,64.0,41,110,3.0,0.0
16996,43.0,4,105,14.0,0.0
16997,88.0,2,45,10.0,0.0
16998,76.0,3,45,11.0,0.0
16999,72.0,1,45,12.0,0.0
17000,89.0,2,45,10.0,0.0
17001,84.0,0,120,0.0,0.0
17002,89.0,2,120,0.0,0.0
17003,77.0,3,45,11.0,0.0
17004,60.0,1,120,6.0,0.0
17005,72.0,0,120,6.0,0.0
17006,48.0,0,110,4.0,0.0
17007,60.0,2,110,4.0,0.0
17008,77.0,2,120,1.0,0.0
17009,72.0,0,120,1.0,0.0
17010,65.0,55,45,12.0,0.0
17011,77.0,2,120,2.0,0.0
17012,65.0,0,120,2.0,0.0
17013,48.0,5,110,5.0,0.0
17014,60.0,0,110,5.0,0.0
17015,48.0,4,120,15.0,0.0
17016,57.0,2,120,13.0,0.0
17017,65.0,0,120,3.0,0.0
17018,57.0,1,120,3.0,0.0
17019,45.0,30,120,14.0,0.0
17020,89.0,2,45,10.0,0.0
17021,77.0,3,45,11.0,0.0
17022,65.0,4,45,12.0,0.0
17023,88.0,2,45,10.0,0.0
17024,88.0,0,110,0.0,0.0
17025,84.0,3,110,0.0,0.0
17026,76.0,3,45,11.0,0.0
17027,48.0,0,110,4.0,0.0
17028,60.0,0,110,4.0,0.0
17029,76.0,2,110,1.0,0.0
17030,72.0,0,110,1.0,0.0
17031,72.0,55,45,12.0,0.0
17032,48.0,0,110,5.0,0.0
17033,60.0,1,110,5.0,0.0
17034,76.0,0,110,2.0,0.0
17035,64.0,0,110,2.0,0.0
17036,55.0,3,105,13.0,0.0
17037,64.0,41,110,3.0,0.0
17038,55.0,0,110,3.0,0.0
17039,43.0,4,105,14.0,0.0
17040,88.0,2,45,10.0,0.0
17041,76.0,3,45,11.0,0.0
17042,72.0,1,45,12.0,0.0
17043,88.0,2,45,10.0,0.0
17044,84.0,3,110,0.0,0.0
17045,88.0,0,110,0.0,0.0
17046,76.0,3,45,11.0,0.0
17047,72.0,0,110,1.0,0.0
17048,76.0,0,110,1.0,0.0
17049,48.0,0,110,4.0,0.0
17050,60.0,2,110,4.0,0.0
17051,72.0,55,45,12.0,0.0
17052,48.0,1,110,5.0,0.0
17053,76.0,0,110,2.0,0.0
17054,64.0,0,110,2.0,0.0
17055,60.0,0,110,5.0,0.0
17056,55.0,3,105,13.0,0.0
17057,64.0,41,110,3.0,0.0
17058,55.0,0,110,3.0,0.0
17059,43.0,4,105,14.0,0.0
17060,88.0,2,45,10.0,0.0
17061,76.0,3,45,11.0,0.0
17062,72.0,1,45,12.0,0.0
17063,88.0,2,45,10.0,0.0
17064,84.0,0,110,0.0,0.0
17065,88.0,3,110,0.0,0.0
17066,76.0,3,45,11.0,0.0
17067,60.0,2,110,4.0,0.0
17068,48.0,0,110,4.0,0.0
17069,72.0,0,110,1.0,0.0
17070,76.0,0,110,1.0,0.0
17071,72.0,55,45,12.0,0.0
17072,48.0,1,110,5.0,0.0
17073,60.0,0,110,5.0,0.0
17074,64.0,0,110,2.0,0.0
17075,76.0,0,110,2.0,0.0
17076,55.0,3,105,13.0,0.0
17077,64.0,96,110,3.0,0.0
17078,55.0,0,110,3.0,0.0
17079,43.0,4,105,14.0,0.0
17080,88.0,2,45,10.0,0.0
17081,76.0,3,45,11.0,0.0
17082,72.0,1,45,12.0,0.0
17083,89.0,2,100,10.0,0.0
17084,89.0,0,110,0.0,0.0
17085,84.0,3,110,0.0,0.0
17086,77.0,3,100,11.0,0.0
17087,72.0,0,120,6.0,0.0
17088,60.0,1,120,6.0,0.0
17089,77.0,0,110,1.0,0.0
17090,60.0,0,110,4.0,0.0
17091,48.0,0,110,4.0,0.0
17092,72.0,2,110,1.0,0.0
17093,72.0,6,100,12.0,0.0
17094,77.0,0,110,2.0,0.0
17095,60.0,0,110,5.0,0.0
17096,48.0,0,110,5.0,0.0
17097,65.0,1,110,2.0,0.0
17098,48.0,212,120,15.0,0.0
17099,57.0,3,105,13.0,0.0
17100,65.0,4,110,3.0,0.0
17101,57.0,0,110,3.0,0.0
17102,45.0,3,105,14.0,0.0
17103,89.0,2,220,10.0,0.0
17104,89.0,0,230,0.0,0.0
17105,84.0,3,230,0.0,0.0
17106,77.0,3,220,11.0,0.0
17107,48.0,2,230,4.0,0.0
17108,60.0,0,230,4.0,0.0
17109,72.0,0,230,1.0,0.0
17110,77.0,0,230,1.0,0.0
17111,72.0,6,220,12.0,0.0
17112,48.0,0,230,5.0,0.0
17113,60.0,0,230,5.0,0.0
17114,65.0,0,230,2.0,0.0
17115,77.0,1,230,2.0,0.0
17116,57.0,3,225,13.0,0.0
17117,65.0,96,230,3.0,0.0
17118,57.0,0,230,3.0,0.0
17119,45.0,4,225,14.0,0.0
17120,88.0,2,100,10.0,0.0
17121,88.0,0,110,0.0,0.0
17122,84.0,3,110,0.0,0.0
17123,76.0,3,100,11.0,0.0
17124,76.0,0,110,1.0,0.0
17125,60.0,0,110,4.0,0.0
17126,72.0,2,110,1.0,0.0
17127,48.0,0,110,4.0,0.0
17128,67.0,6,100,12.0,0.0
17129,48.0,0,110,5.0,0.0
17130,64.0,0,110,2.0,0.0
17131,60.0,0,110,5.0,0.0
17132,76.0,1,110,2.0,0.0
17133,55.0,3,105,13.0,0.0
17134,64.0,96,110,3.0,0.0
17135,55.0,0,110,3.0,0.0
17136,43.0,4,105,14.0,0.0
17137,87.0,2,100,10.0,0.0
17138,87.0,0,110,0.0,0.0
17139,84.0,3,110,0.0,0.0
17140,75.0,3,100,11.0,0.0
17141,60.0,0,120,6.0,0.0
17142,72.0,1,120,6.0,0.0
17143,75.0,0,110,1.0,0.0
17144,72.0,2,110,1.0,0.0
17145,60.0,0,110,4.0,0.0
17146,48.0,0,110,4.0,0.0
17147,69.0,6,100,12.0,0.0
17148,63.0,0,110,2.0,0.0
17149,75.0,1,110,2.0,0.0
17150,60.0,0,110,5.0,0.0
17151,48.0,0,110,5.0,0.0
17152,48.0,212,120,15.0,0.0
17153,54.0,3,105,13.0,0.0
17154,63.0,0,110,3.0,0.0
17155,54.0,4,110,3.0,0.0
17156,42.0,3,105,14.0,0.0
17157,88.0,2,220,10.0,0.0
17158,84.0,3,230,0.0,0.0
17159,88.0,0,230,0.0,0.0
17160,76.0,3,220,11.0,0.0
17161,60.0,0,230,4.0,0.0
17162,76.0,0,230,1.0,0.0
17163,72.0,2,230,1.0,0.0
17164,48.0,0,230,4.0,0.0
17165,64.0,6,220,12.0,0.0
17166,48.0,1,230,5.0,0.0
17167,60.0,0,230,5.0,0.0
17168,64.0,0,230,2.0,0.0
17169,76.0,0,230,2.0,0.0
17170,55.0,3,225,13.0,0.0
17171,55.0,0,230,3.0,0.0
17172,64.0,96,230,3.0,0.0
17173,43.0,4,225,14.0,0.0
17174,86.0,2,100,10.0,0.0
17175,84.0,0,110,0.0,0.0
17176,86.0,3,110,0.0,0.0
17177,74.0,3,100,11.0,0.0
17178,48.0,2,110,4.0,0.0
17179,60.0,0,110,4.0,0.0
17180,74.0,0,110,1.0,0.0
17181,72.0,0,110,1.0,0.0
17182,65.0,6,100,12.0,0.0
17183,60.0,0,110,5.0,0.0
17184,48.0,0,110,5.0,0.0
17185,74.0,1,110,2.0,0.0
17186,62.0,0,110,2.0,0.0
17187,53.0,3,105,13.0,0.0
17188,53.0,0,110,3.0,0.0
17189,62.0,96,110,3.0,0.0
17190,41.0,4,105,14.0,0.0
17191,84.0,2,100,10.0,0.0
17192,84.0,3,110,0.0,0.0
17193,72.0,3,100,11.0,0.0
17194,72.0,0,120,6.0,0.0
17195,60.0,1,120,6.0,0.0
17196,72.0,0,110,1.0,0.0
17197,48.0,0,110,4.0,0.0
17198,60.0,2,110,4.0,0.0
17199,67.0,6,100,12.0,0.0
17200,48.0,0,110,5.0,0.0
17201,60.0,0,110,2.0,0.0
17202,72.0,0,110,2.0,0.0
17203,60.0,1,110,5.0,0.0
17204,48.0,212,120,15.0,0.0
17205,52.0,3,105,13.0,0.0
17206,52.0,0,110,3.0,0.0
17207,60.0,4,110,3.0,0.0
17208,40.0,3,105,14.0,0.0
17209,93.0,2,220,10.0,0.0
17210,93.0,3,230,0.0,0.0
17211,84.0,0,230,0.0,0.0
17212,81.0,3,220,11.0,0.0
17213,60.0,2,230,4.0,0.0
17214,48.0,0,230,4.0,0.0
17215,72.0,0,230,1.0,0.0
17216,81.0,0,230,1.0,0.0
17217,62.0,6,220,12.0,0.0
17218,69.0,0,230,2.0,0.0
17219,81.0,1,230,2.0,0.0
17220,60.0,0,230,5.0,0.0
17221,48.0,0,230,5.0,0.0
17222,53.0,3,225,13.0,0.0
17223,53.0,0,230,3.0,0.0
17224,65.0,96,230,3.0,0.0
17225,41.0,4,225,14.0,0.0
17226,91.0,2,100,10.0,0.0
17227,84.0,3,110,0.0,0.0
17228,91.0,0,110,0.0,0.0
17229,79.0,3,100,11.0,0.0
17230,60.0,2,110,4.0,0.0
17231,48.0,0,110,4.0,0.0
17232,72.0,0,110,1.0,0.0
17233,79.0,0,110,1.0,0.0
17234,64.0,6,100,12.0,0.0
17235,79.0,0,110,2.0,0.0
17236,67.0,0,110,2.0,0.0
17237,48.0,0,110,5.0,0.0
17238,60.0,1,110,5.0,0.0
17239,52.0,3,105,13.0,0.0
17240,52.0,96,110,3.0,0.0
17241,64.0,0,110,3.0,0.0
17242,40.0,4,105,14.0,0.0
17243,90.0,2,100,10.0,0.0
17244,90.0,0,110,0.0,0.0
17245,84.0,3,110,0.0,0.0
17246,78.0,3,100,11.0,0.0
17247,72.0,0,120,6.0,0.0
17248,60.0,1,120,6.0,0.0
17249,72.0,2,110,1.0,0.0
17250,48.0,0,110,4.0,0.0
17251,60.0,0,110,4.0,0.0
17252,78.0,0,110,1.0,0.0
17253,66.0,6,100,12.0,0.0
17254,60.0,0,110,5.0,0.0
17255,48.0,0,110,5.0,0.0
17256,66.0,0,110,2.0,0.0
17257,78.0,1,110,2.0,0.0
17258,48.0,212,120,15.0,0.0
17259,51.0,3,105,13.0,0.0
17260,51.0,4,110,3.0,0.0
17261,63.0,0,110,3.0,0.0
17262,39.0,3,105,14.0,0.0
17263,91.0,2,220,10.0,0.0
17264,91.0,3,230,0.0,0.0
17265,84.0,0,230,0.0,0.0
17266,79.0,3,220,11.0,0.0
17267,48.0,0,230,4.0,0.0
17268,60.0,0,230,4.0,0.0
17269,79.0,0,230,1.0,0.0
17270,72.0,2,230,1.0,0.0
17271,60.0,6,220,12.0,0.0
17272,48.0,0,230,5.0,0.0
17273,60.0,1,230,5.0,0.0
17274,67.0,0,230,2.0,0.0
17275,79.0,0,230,2.0,0.0
17276,52.0,3,225,13.0,0.0
17277,52.0,0,230,3.0,0.0
17278,64.0,96,230,3.0,0.0
17279,40.0,4,225,14.0,0.0
17280,89.0,2,100,10.0,0.0
17281,89.0,0,110,0.0,0.0
17282,84.0,3,110,0.0,0.0
17283,77.0,3,100,11.0,0.0
17284,72.0,0,110,1.0,0.0
17285,77.0,2,110,1.0,0.0
17286,48.0,0,110,4.0,0.0
17287,60.0,0,110,4.0,0.0
17288,62.0,6,100,12.0,0.0
17289,60.0,0,110,5.0,0.0
17290,77.0,0,110,2.0,0.0
17291,65.0,1,110,2.0,0.0
17292,48.0,0,110,5.0,0.0
17293,50.0,3,105,13.0,0.0
17294,50.0,41,110,3.0,0.0
17295,62.0,0,110,3.0,0.0
17296,38.0,4,105,14.0,0.0
17297,88.0,2,45,10.0,0.0
17298,88.0,0,110,0.0,0.0
17299,84.0,2,110,0.0,0.0
17300,76.0,3,45,11.0,0.0
17301,60.0,0,110,6.0,0.0
17302,72.0,1,110,6.0,0.0
17303,60.0,0,110,4.0,0.0
17304,48.0,0,110,4.0,0.0
17305,76.0,0,110,1.0,0.0
17306,72.0,2,110,1.0,0.0
17307,60.0,18,45,12.0,0.0
17308,64.0,0,110,2.0,0.0
17309,76.0,1,110,2.0,0.0
17310,48.0,0,110,5.0,0.0
17311,60.0,0,110,5.0,0.0
17312,48.0,3,105,13.0,0.0
17313,60.0,4,110,3.0,0.0
17314,48.0,0,110,3.0,0.0
17315,36.0,4,105,14.0,0.0
17316,88.0,2,45,10.0,0.0
17317,76.0,3,45,11.0,0.0
17318,60.0,1,45,12.0,0.0
17319,48.0,37,0,15.0,0.0
17320,89.0,2,45,10.0,0.0
17321,89.0,2,110,0.0,0.0
17322,84.0,0,110,0.0,0.0
17323,77.0,3,45,11.0,0.0
17324,72.0,0,110,6.0,0.0
17325,60.0,1,110,6.0,0.0
17326,77.0,0,110,1.0,0.0
17327,60.0,0,110,4.0,0.0
17328,72.0,2,110,1.0,0.0
17329,48.0,0,110,4.0,0.0
17330,65.0,18,45,12.0,0.0
17331,65.0,1,110,2.0,0.0
17332,77.0,0,110,2.0,0.0
17333,60.0,0,110,5.0,0.0
17334,48.0,0,110,5.0,0.0
17335,57.0,3,105,13.0,0.0
17336,57.0,0,110,3.0,0.0
17337,45.0,4,110,3.0,0.0
17338,45.0,4,105,14.0,0.0
17339,89.0,2,45,10.0,0.0
17340,77.0,3,45,11.0,0.0
17341,65.0,1,45,12.0,0.0
17342,48.0,37,0,15.0,0.0
17343,86.0,2,45,10.0,0.0
17344,84.0,2,110,0.0,0.0
17345,86.0,0,110,0.0,0.0
17346,74.0,3,45,11.0,0.0
17347,60.0,0,110,6.0,0.0
17348,72.0,1,110,6.0,0.0
17349,72.0,0,110,1.0,0.0
17350,74.0,0,110,1.0,0.0
17351,60.0,2,110,4.0,0.0
17352,48.0,0,110,4.0,0.0
17353,69.0,18,45,12.0,0.0
17354,62.0,0,110,2.0,0.0
17355,60.0,0,110,5.0,0.0
17356,48.0,1,110,5.0,0.0
17357,74.0,0,110,2.0,0.0
17358,53.0,3,105,13.0,0.0
17359,53.0,4,110,3.0,0.0
17360,41.0,0,110,3.0,0.0
17361,41.0,4,105,14.0,0.0
17362,86.0,2,45,10.0,0.0
17363,74.0,3,45,11.0,0.0
17364,69.0,1,45,12.0,0.0
17365,48.0,37,0,15.0,0.0
17366,88.0,2,45,10.0,0.0
17367,84.0,2,110,0.0,0.0
17368,88.0,0,110,0.0,0.0
17369,76.0,3,45,11.0,0.0
17370,60.0,1,110,6.0,0.0
17371,72.0,0,110,6.0,0.0
17372,72.0,0,110,1.0,0.0
17373,76.0,0,110,1.0,0.0
17374,48.0,0,110,4.0,0.0
17375,60.0,2,110,4.0,0.0
17376,64.0,18,45,12.0,0.0
17377,60.0,0,110,5.0,0.0
17378,48.0,0,110,5.0,0.0
17379,64.0,0,110,2.0,0.0
17380,76.0,1,110,2.0,0.0
17381,55.0,3,105,13.0,0.0
17382,43.0,4,110,3.0,0.0
17383,55.0,0,110,3.0,0.0
17384,43.0,4,105,14.0,0.0
17385,88.0,2,45,10.0,0.0
17386,76.0,3,45,11.0,0.0
17387,64.0,1,45,12.0,0.0
17388,48.0,37,0,15.0,0.0
17389,84.0,2,45,10.0,0.0
17390,84.0,2,110,0.0,0.0
17391,72.0,3,45,11.0,0.0
17392,72.0,0,110,6.0,0.0
17393,60.0,1,110,6.0,0.0
17394,72.0,0,110,1.0,0.0
17395,48.0,2,110,4.0,0.0
17396,60.0,0,110,4.0,0.0
17397,67.0,18,45,12.0,0.0
17398,60.0,0,110,2.0,0.0
17399,60.0,1,110,5.0,0.0
17400,72.0,0,110,2.0,0.0
17401,48.0,0,110,5.0,0.0
17402,48.0,37,0,15.0,0.0
17403,52.0,3,105,13.0,0.0
17404,40.0,0,110,3.0,0.0
17405,52.0,4,110,3.0,0.0
17406,40.0,4,105,14.0,0.0
17407,84.0,2,45,10.0,0.0
17408,72.0,3,45,11.0,0.0
17409,67.0,1,45,12.0,0.0
17410,48.0,37,0,15.0,0.0
17411,93.0,2,45,10.0,0.0
17412,84.0,2,110,0.0,0.0
17413,93.0,0,110,0.0,0.0
17414,81.0,3,45,11.0,0.0
17415,72.0,1,110,6.0,0.0
17416,60.0,0,110,6.0,0.0
17417,60.0,0,110,4.0,0.0
17418,81.0,0,110,1.0,0.0
17419,72.0,0,110,1.0,0.0
17420,48.0,2,110,4.0,0.0
17421,65.0,18,45,12.0,0.0
17422,60.0,0,110,5.0,0.0
17423,81.0,0,110,2.0,0.0
17424,69.0,1,110,2.0,0.0
17425,48.0,0,110,5.0,0.0
17426,48.0,37,60,15.0,0.0
17427,53.0,3,105,13.0,0.0
17428,53.0,4,110,3.0,0.0
17429,65.0,0,110,3.0,0.0
17430,41.0,4,105,14.0,0.0
17431,93.0,2,45,10.0,0.0
17432,81.0,3,45,11.0,0.0
17433,65.0,1,45,12.0,0.0
17434,89.0,2,45,10.0,0.0
17435,89.0,0,110,0.0,0.0
17436,84.0,2,110,0.0,0.0
17437,77.0,3,45,11.0,0.0
17438,72.0,1,110,6.0,0.0
17439,60.0,0,110,6.0,0.0
17440,60.0,2,110,4.0,0.0
17441,77.0,0,110,1.0,0.0
17442,72.0,0,110,1.0,0.0
17443,48.0,0,110,4.0,0.0
17444,69.0,18,45,12.0,0.0
17445,48.0,0,110,5.0,0.0
17446,60.0,0,110,5.0,0.0
17447,65.0,0,110,2.0,0.0
17448,77.0,1,110,2.0,0.0
17449,48.0,37,0,15.0,0.0
17450,50.0,3,105,13.0,0.0
17451,50.0,4,110,3.0,0.0
17452,62.0,0,110,3.0,0.0
17453,38.0,4,105,14.0,0.0
17454,89.0,2,45,10.0,0.0
17455,77.0,3,45,11.0,0.0
17456,69.0,1,45,12.0,0.0
17457,48.0,37,60,15.0,0.0
17458,91.0,2,45,10.0,0.0
17459,91.0,2,110,0.0,0.0
17460,84.0,0,110,0.0,0.0
17461,79.0,3,45,11.0,0.0
17462,72.0,1,110,6.0,0.0
17463,60.0,0,110,6.0,0.0
17464,72.0,0,110,1.0,0.0
17465,79.0,0,110,1.0,0.0
17466,60.0,2,110,4.0,0.0
17467,48.0,0,110,4.0,0.0
17468,67.0,18,45,12.0,0.0
17469,48.0,1,110,5.0,0.0
17470,79.0,0,110,2.0,0.0
17471,60.0,0,110,5.0,0.0
17472,67.0,0,110,2.0,0.0
17473,52.0,3,105,13.0,0.0
17474,64.0,0,110,3.0,0.0
17475,52.0,4,110,3.0,0.0
17476,40.0,4,105,14.0,0.0
17477,91.0,2,45,10.0,0.0
17478,79.0,3,45,11.0,0.0
17479,67.0,1,45,12.0,0.0
17480,48.0,37,0,15.0,0.0
17481,88.0,2,45,10.0,0.0
17482,84.0,0,110,0.0,0.0
17483,88.0,2,110,0.0,0.0
17484,76.0,3,45,11.0,0.0
17485,72.0,0,110,6.0,0.0
17486,60.0,1,110,6.0,0.0
17487,60.0,0,110,4.0,0.0
17488,48.0,0,110,4.0,0.0
17489,76.0,2,110,1.0,0.0
17490,72.0,0,110,1.0,0.0
17491,60.0,18,45,12.0,0.0
17492,64.0,0,110,2.0,0.0
17493,76.0,0,110,2.0,0.0
17494,60.0,0,110,5.0,0.0
17495,48.0,1,110,5.0,0.0
17496,48.0,37,0,15.0,0.0
17497,48.0,3,105,13.0,0.0
17498,60.0,0,110,3.0,0.0
17499,48.0,4,110,3.0,0.0
17500,36.0,4,105,14.0,0.0
17501,88.0,2,45,10.0,0.0
17502,76.0,3,45,11.0,0.0
17503,60.0,1,45,12.0,0.0
17504,48.0,37,0,15.0,0.0
17505,89.0,2,45,10.0,0.0
17506,84.0,2,110,0.0,0.0
17507,89.0,0,110,0.0,0.0
17508,77.0,3,45,11.0,0.0
17509,72.0,0,110,6.0,0.0
17510,60.0,1,110,6.0,0.0
17511,72.0,0,110,1.0,0.0
17512,77.0,2,110,1.0,0.0
17513,48.0,0,110,4.0,0.0
17514,60.0,0,110,4.0,0.0
17515,65.0,18,45,12.0,0.0
17516,48.0,0,110,5.0,0.0
17517,60.0,1,110,5.0,0.0
17518,65.0,0,110,2.0,0.0
17519,77.0,0,110,2.0,0.0
17520,48.0,37,0,15.0,0.0
17521,57.0,3,105,13.0,0.0
17522,45.0,0,110,3.0,0.0
17523,57.0,4,110,3.0,0.0
17524,45.0,4,105,14.0,0.0
17525,89.0,2,45,10.0,0.0
17526,77.0,3,45,11.0,0.0
17527,65.0,1,45,12.0,0.0
17528,48.0,37,0,15.0,0.0
17529,86.0,2,45,10.0,0.0
17530,86.0,0,110,0.0,0.0
17531,84.0,2,110,0.0,0.0
17532,74.0,3,45,11.0,0.0
17533,60.0,1,110,6.0,0.0
17534,72.0,0,110,6.0,0.0
17535,72.0,2,110,1.0,0.0
17536,74.0,0,110,1.0,0.0
17537,48.0,0,110,4.0,0.0
17538,60.0,0,110,4.0,0.0
17539,69.0,18,45,12.0,0.0
17540,48.0,0,110,5.0,0.0
17541,60.0,0,110,5.0,0.0
17542,62.0,1,110,2.0,0.0
17543,74.0,0,110,2.0,0.0
17544,48.0,37,0,15.0,0.0
17545,53.0,3,105,13.0,0.0
17546,41.0,4,110,3.0,0.0
17547,53.0,0,110,3.0,0.0
17548,41.0,4,105,14.0,0.0
17549,86.0,2,45,10.0,0.0
17550,74.0,3,45,11.0,0.0
17551,69.0,1,45,12.0,0.0
17552,48.0,37,0,15.0,0.0
17553,88.0,2,45,10.0,0.0
17554,88.0,2,110,0.0,0.0
17555,84.0,0,110,0.0,0.0
17556,76.0,3,45,11.0,0.0
17557,72.0,0,110,6.0,0.0
17558,60.0,1,110,6.0,0.0
17559,48.0,0,110,4.0,0.0
17560,60.0,2,110,4.0,0.0
17561,76.0,0,110,1.0,0.0
17562,72.0,0,110,1.0,0.0
17563,64.0,18,45,12.0,0.0
17564,76.0,1,110,2.0,0.0
17565,48.0,0,110,5.0,0.0
17566,60.0,0,110,5.0,0.0
17567,64.0,0,110,2.0,0.0
17568,48.0,37,60,15.0,0.0
17569,55.0,3,105,13.0,0.0
17570,43.0,0,110,3.0,0.0
17571,55.0,4,110,3.0,0.0
17572,43.0,4,105,14.0,0.0
17573,88.0,2,45,10.0,0.0
17574,76.0,3,45,11.0,0.0
17575,64.0,1,45,12.0,0.0
17576,84.0,2,45,10.0,0.0
17577,84.0,2,110,0.0,0.0
17578,72.0,3,45,11.0,0.0
17579,72.0,0,110,6.0,0.0
17580,60.0,1,110,6.0,0.0
17581,48.0,0,110,4.0,0.0
17582,60.0,0,110,4.0,0.0
17583,72.0,2,110,1.0,0.0
17584,67.0,18,45,12.0,0.0
17585,60.0,1,110,5.0,0.0
17586,60.0,0,110,2.0,0.0
17587,72.0,0,110,2.0,0.0
17588,48.0,0,110,5.0,0.0
17589,48.0,37,0,15.0,0.0
17590,52.0,3,105,13.0,0.0
17591,40.0,0,110,3.0,0.0
17592,52.0,4,110,3.0,0.0
17593,40.0,4,105,14.0,0.0
17594,84.0,2,45,10.0,0.0
17595,72.0,3,45,11.0,0.0
17596,67.0,1,45,12.0,0.0
17597,48.0,37,0,15.0,0.0
17598,93.0,2,45,10.0,0.0
17599,93.0,2,110,0.0,0.0
17600,84.0,0,110,0.0,0.0
17601,81.0,3,45,11.0,0.0
17602,72.0,0,110,6.0,0.0
17603,60.0,1,110,6.0,0.0
17604,48.0,2,110,4.0,0.0
17605,60.0,0,110,4.0,0.0
17606,72.0,0,110,1.0,0.0
17607,81.0,0,110,1.0,0.0
17608,65.0,18,45,12.0,0.0
17609,60.0,0,110,5.0,0.0
17610,48.0,0,110,5.0,0.0
17611,69.0,0,110,2.0,0.0
17612,81.0,1,110,2.0,0.0
17613,48.0,37,0,15.0,0.0
17614,53.0,3,105,13.0,0.0
17615,41.0,4,110,3.0,0.0
17616,53.0,0,110,3.0,0.0
17617,41.0,4,105,14.0,0.0
17618,93.0,2,45,10.0,0.0
17619,81.0,3,45,11.0,0.0
17620,65.0,1,45,12.0,0.0
17621,48.0,37,0,15.0,0.0
17622,89.0,2,45,10.0,0.0
17623,89.0,0,110,0.0,0.0
17624,84.0,2,110,0.0,0.0
17625,77.0,3,45,11.0,0.0
17626,72.0,1,110,6.0,0.0
17627,60.0,0,110,6.0,0.0
17628,48.0,0,110,4.0,0.0
17629,60.0,0,110,4.0,0.0
17630,72.0,2,110,1.0,0.0
17631,77.0,0,110,1.0,0.0
17632,69.0,18,45,12.0,0.0
17633,60.0,0,110,5.0,0.0
17634,48.0,1,110,5.0,0.0
17635,77.0,0,110,2.0,0.0
17636,65.0,0,110,2.0,0.0
17637,48.0,37,0,15.0,0.0
17638,50.0,3,105,13.0,0.0
17639,38.0,0,110,3.0,0.0
17640,50.0,4,110,3.0,0.0
17641,38.0,4,105,14.0,0.0
17642,89.0,2,45,10.0,0.0
17643,77.0,3,45,11.0,0.0
17644,69.0,1,45,12.0,0.0
17645,48.0,37,0,15.0,0.0
17646,91.0,2,45,10.0,0.0
17647,91.0,0,110,0.0,0.0
17648,84.0,2,110,0.0,0.0
17649,79.0,3,45,11.0,0.0
17650,72.0,1,110,6.0,0.0
17651,60.0,0,110,6.0,0.0
17652,60.0,0,110,4.0,0.0
17653,48.0,0,110,4.0,0.0
17654,72.0,2,110,1.0,0.0
17655,79.0,0,110,1.0,0.0
17656,67.0,18,45,12.0,0.0
17657,67.0,0,110,2.0,0.0
17658,79.0,0,110,2.0,0.0
17659,60.0,1,110,5.0,0.0
17660,48.0,0,110,5.0,0.0
17661,48.0,37,0,15.0,0.0
17662,52.0,3,105,13.0,0.0
17663,40.0,0,110,3.0,0.0
17664,52.0,4,110,3.0,0.0
17665,40.0,4,105,14.0,0.0
17666,91.0,2,45,10.0,0.0
17667,79.0,3,45,11.0,0.0
17668,67.0,1,45,12.0,0.0
17669,48.0,37,0,15.0,0.0
17670,88.0,60,45,10.0,0.0
17671,84.0,3,325,0.0,0.0
17672,88.0,0,325,0.0,0.0
17673,76.0,1,120,11.0,0.0
17674,60.0,1,120,6.0,0.0
17675,72.0,0,120,6.0,0.0
17676,64.0,1,120,7.0,0.0
17677,60.0,0,120,4.0,0.0
17678,64.0,0,120,4.0,0.0
17679,76.0,0,325,1.0,0.0
17680,72.0,2,325,1.0,0.0
17681,67.0,2,120,12.0,0.0
17682,76.0,5,325,2.0,0.0
17683,64.0,0,330,5.0,0.0
17684,72.0,0,325,2.0,0.0
17685,60.0,11,330,5.0,0.0
17686,60.0,1,120,7.0,0.0
17687,48.0,4,120,15.0,0.0
17688,48.0,1,120,13.0,0.0
17689,48.0,1,120,8.0,0.0
17690,36.0,0,120,3.0,0.0
17691,48.0,1,120,3.0,0.0
17692,36.0,30,120,14.0,0.0
17693,55.0,17,45,10.0,0.0
17694,57.0,60,45,10.0,0.0
17695,59.0,101,45,10.0,0.0
17696,60.0,47,120,10.0,0.0
17697,55.0,13,45,11.0,0.0
17698,86.0,3,85,0.0,0.0
17699,79.0,0,85,0.0,0.0
17700,57.0,39,45,11.0,0.0
17701,74.0,0,85,1.0,0.0
17702,67.0,2,85,1.0,0.0
17703,52.0,7,105,12.0,0.0
17704,67.0,5,85,2.0,0.0
17705,62.0,11,90,5.0,0.0
17706,55.0,0,90,5.0,0.0
17707,74.0,0,85,2.0,0.0
17708,48.0,3,105,13.0,0.0
17709,36.0,86,105,14.0,0.0
17710,59.0,3,45,11.0,0.0
17711,76.0,0,85,0.0,0.0
17712,84.0,3,85,0.0,0.0
17713,60.0,2,120,11.0,0.0
17714,72.0,2,85,1.0,0.0
17715,64.0,1,120,7.0,0.0
17716,64.0,0,85,1.0,0.0
17717,52.0,2,120,12.0,0.0
17718,52.0,0,90,5.0,0.0
17719,60.0,9,90,5.0,0.0
17720,64.0,0,85,2.0,0.0
17721,72.0,5,85,2.0,0.0
17722,60.0,5,120,7.0,0.0
17723,48.0,1,120,13.0,0.0
17724,48.0,2,120,8.0,0.0
17725,36.0,30,120,14.0,0.0
17726,55.0,17,45,10.0,0.0
17727,57.0,41,45,10.0,0.0
17728,79.0,3,85,0.0,0.0
17729,86.0,0,85,0.0,0.0
17730,67.0,0,85,1.0,0.0
17731,74.0,2,85,1.0,0.0
17732,74.0,0,85,2.0,0.0
17733,55.0,9,90,5.0,0.0
17734,67.0,5,85,2.0,0.0
17735,62.0,0,90,5.0,0.0
17736,59.0,101,45,10.0,0.0
17737,60.0,47,120,10.0,0.0
17738,84.0,0,85,0.0,0.0
17739,76.0,3,85,0.0,0.0
17740,64.0,2,85,1.0,0.0
17741,72.0,0,85,1.0,0.0
17742,72.0,5,85,2.0,0.0
17743,52.0,0,90,5.0,0.0
17744,60.0,11,90,5.0,0.0
17745,64.0,0,85,2.0,0.0
17746,55.0,13,45,11.0,0.0
17747,79.0,0,85,0.0,0.0
17748,86.0,3,85,0.0,0.0
17749,57.0,39,45,11.0,0.0
17750,67.0,0,85,1.0,0.0
17751,74.0,2,85,1.0,0.0
17752,52.0,7,105,12.0,0.0
17753,74.0,0,85,2.0,0.0
17754,67.0,5,85,2.0,0.0
17755,55.0,0,90,5.0,0.0
17756,62.0,11,90,5.0,0.0
17757,48.0,3,105,13.0,0.0
17758,36.0,86,105,14.0,0.0
17759,59.0,3,45,11.0,0.0
17760,76.0,3,85,0.0,0.0
17761,84.0,0,85,0.0,0.0
17762,60.0,2,120,11.0,0.0
17763,72.0,0,85,1.0,0.0
17764,64.0,2,85,1.0,0.0
17765,64.0,1,120,7.0,0.0
17766,52.0,2,120,12.0,0.0
17767,72.0,5,85,2.0,0.0
17768,60.0,9,90,5.0,0.0
17769,64.0,0,85,2.0,0.0
17770,52.0,0,90,5.0,0.0
17771,60.0,5,120,7.0,0.0
17772,48.0,1,120,13.0,0.0
17773,48.0,2,120,8.0,0.0
17774,36.0,30,120,14.0,0.0
17775,55.0,17,45,10.0,0.0
17776,57.0,41,45,10.0,0.0
17777,79.0,0,85,0.0,0.0
17778,86.0,3,85,0.0,0.0
17779,74.0,2,85,1.0,0.0
17780,67.0,0,85,1.0,0.0
17781,74.0,5,85,2.0,0.0
17782,62.0,9,90,5.0,0.0
17783,55.0,0,90,5.0,0.0
17784,67.0,0,85,2.0,0.0
17785,59.0,101,45,10.0,0.0
17786,60.0,47,120,10.0,0.0
17787,84.0,0,85,0.0,0.0
17788,76.0,3,85,0.0,0.0
17789,72.0,2,85,1.0,0.0
17790,64.0,0,85,1.0,0.0
17791,52.0,0,90,5.0,0.0
17792,60.0,11,90,5.0,0.0
17793,64.0,0,85,2.0,0.0
17794,72.0,5,85,2.0,0.0
17795,55.0,13,45,11.0,0.0
17796,79.0,3,85,0.0,0.0
17797,86.0,0,85,0.0,0.0
17798,57.0,39,45,11.0,0.0
17799,74.0,0,85,1.0,0.0
17800,67.0,2,85,1.0,0.0
17801,52.0,7,105,12.0,0.0
17802,55.0,11,90,5.0,0.0
17803,67.0,0,85,2.0,0.0
17804,62.0,0,90,5.0,0.0
17805,74.0,5,85,2.0,0.0
17806,48.0,3,105,13.0,0.0
17807,36.0,105,105,14.0,0.0
17808,59.0,3,45,11.0,0.0
17809,76.0,1,120,0.0,0.0
17810,84.0,0,120,0.0,0.0
17811,60.0,2,120,11.0,0.0
17812,64.0,0,120,1.0,0.0
17813,64.0,0,120,7.0,0.0
17814,72.0,1,120,1.0,0.0
17815,52.0,1,120,12.0,0.0
17816,60.0,5,110,5.0,0.0
17817,64.0,1,120,2.0,0.0
17818,72.0,0,120,2.0,0.0
17819,52.0,0,110,5.0,0.0
17820,60.0,5,120,7.0,0.0
17821,48.0,1,120,13.0,0.0
17822,48.0,2,120,8.0,0.0
17823,36.0,30,120,14.0,0.0
17824,55.0,11,45,10.0,0.0
17825,57.0,60,45,10.0,0.0
17826,59.0,122,45,10.0,0.0
17827,60.0,47,120,10.0,0.0
17828,55.0,13,45,11.0,0.0
17829,59.0,60,45,11.0,0.0
17830,52.0,7,105,12.0,0.0
17831,48.0,3,105,13.0,0.0
17832,36.0,105,105,14.0,0.0
17833,60.0,3,45,11.0,0.0
17834,86.0,0,325,0.0,0.0
17835,89.0,3,325,0.0,0.0
17836,62.0,2,120,11.0,0.0
17837,65.0,1,120,7.0,0.0
17838,77.0,0,325,1.0,0.0
17839,74.0,2,325,1.0,0.0
17840,55.0,2,120,12.0,0.0
17841,77.0,5,325,2.0,0.0
17842,65.0,11,330,5.0,0.0
17843,74.0,0,325,2.0,0.0
17844,62.0,0,330,5.0,0.0
17845,62.0,5,120,7.0,0.0
17846,43.0,1,120,13.0,0.0
17847,43.0,2,120,8.0,0.0
17848,31.0,30,120,14.0,0.0
17849,55.0,17,45,10.0,0.0
17850,59.0,60,45,10.0,0.0
17851,60.0,101,45,10.0,0.0
17852,62.0,47,120,10.0,0.0
17853,55.0,13,45,11.0,0.0
17854,88.0,0,85,0.0,0.0
17855,84.0,3,85,0.0,0.0
17856,59.0,39,45,11.0,0.0
17857,76.0,0,85,1.0,0.0
17858,72.0,2,85,1.0,0.0
17859,55.0,7,105,12.0,0.0
17860,60.0,11,90,5.0,0.0
17861,76.0,5,85,2.0,0.0
17862,72.0,0,85,2.0,0.0
17863,64.0,0,90,5.0,0.0
17864,43.0,3,105,13.0,0.0
17865,31.0,86,105,14.0,0.0
17866,60.0,3,45,11.0,0.0
17867,79.0,0,85,0.0,0.0
17868,86.0,3,85,0.0,0.0
17869,62.0,2,120,11.0,0.0
17870,74.0,0,85,1.0,0.0
17871,65.0,1,120,7.0,0.0
17872,67.0,2,85,1.0,0.0
17873,55.0,2,120,12.0,0.0
17874,74.0,0,85,2.0,0.0
17875,67.0,5,85,2.0,0.0
17876,62.0,9,90,5.0,0.0
17877,55.0,0,90,5.0,0.0
17878,62.0,5,120,7.0,0.0
17879,43.0,1,120,13.0,0.0
17880,43.0,2,120,8.0,0.0
17881,31.0,30,120,14.0,0.0
17882,55.0,17,45,10.0,0.0
17883,59.0,41,45,10.0,0.0
17884,88.0,3,85,0.0,0.0
17885,84.0,0,85,0.0,0.0
17886,72.0,2,85,1.0,0.0
17887,76.0,0,85,1.0,0.0
17888,64.0,9,90,5.0,0.0
17889,72.0,5,85,2.0,0.0
17890,76.0,0,85,2.0,0.0
17891,60.0,0,90,5.0,0.0
17892,60.0,101,45,10.0,0.0
17893,62.0,47,120,10.0,0.0
17894,79.0,3,85,0.0,0.0
17895,86.0,0,85,0.0,0.0
17896,74.0,2,85,1.0,0.0
17897,67.0,0,85,1.0,0.0
17898,74.0,0,85,2.0,0.0
17899,55.0,11,90,5.0,0.0
17900,62.0,0,90,5.0,0.0
17901,67.0,5,85,2.0,0.0
17902,55.0,13,45,11.0,0.0
17903,88.0,3,85,0.0,0.0
17904,84.0,0,85,0.0,0.0
17905,59.0,39,45,11.0,0.0
17906,72.0,0,85,1.0,0.0
17907,76.0,2,85,1.0,0.0
17908,55.0,7,105,12.0,0.0
17909,72.0,0,85,2.0,0.0
17910,76.0,5,85,2.0,0.0
17911,64.0,11,90,5.0,0.0
17912,60.0,0,90,5.0,0.0
17913,43.0,3,105,13.0,0.0
17914,31.0,86,105,14.0,0.0
17915,60.0,3,45,11.0,0.0
17916,79.0,0,85,0.0,0.0
17917,86.0,3,85,0.0,0.0
17918,62.0,2,120,11.0,0.0
17919,67.0,0,85,1.0,0.0
17920,74.0,2,85,1.0,0.0
17921,65.0,1,120,7.0,0.0
17922,55.0,2,120,12.0,0.0
17923,67.0,5,85,2.0,0.0
17924,74.0,0,85,2.0,0.0
17925,55.0,0,90,5.0,0.0
17926,62.0,9,90,5.0,0.0
17927,62.0,5,120,7.0,0.0
17928,43.0,1,120,13.0,0.0
17929,43.0,2,120,8.0,0.0
17930,31.0,30,120,14.0,0.0
17931,55.0,17,45,10.0,0.0
17932,59.0,41,45,10.0,0.0
17933,88.0,0,85,0.0,0.0
17934,84.0,3,85,0.0,0.0
17935,72.0,2,85,1.0,0.0
17936,76.0,0,85,1.0,0.0
17937,60.0,0,90,5.0,0.0
17938,76.0,5,85,2.0,0.0
17939,64.0,9,90,5.0,0.0
17940,72.0,0,85,2.0,0.0
17941,60.0,101,45,10.0,0.0
17942,62.0,47,120,10.0,0.0
17943,79.0,3,85,0.0,0.0
17944,86.0,0,85,0.0,0.0
17945,67.0,0,85,1.0,0.0
17946,74.0,2,85,1.0,0.0
17947,74.0,0,85,2.0,0.0
17948,55.0,0,90,5.0,0.0
17949,67.0,5,85,2.0,0.0
17950,62.0,11,90,5.0,0.0
17951,55.0,13,45,11.0,0.0
17952,84.0,3,85,0.0,0.0
17953,88.0,0,85,0.0,0.0
17954,59.0,39,45,11.0,0.0
17955,76.0,2,85,1.0,0.0
17956,72.0,0,85,1.0,0.0
17957,55.0,7,105,12.0,0.0
17958,76.0,5,85,2.0,0.0
17959,60.0,0,90,5.0,0.0
17960,64.0,11,90,5.0,0.0
17961,72.0,0,85,2.0,0.0
17962,43.0,3,105,13.0,0.0
17963,31.0,105,105,14.0,0.0
17964,60.0,3,45,11.0,0.0
17965,86.0,1,120,0.0,0.0
17966,79.0,0,120,0.0,0.0
17967,62.0,2,120,11.0,0.0
17968,65.0,0,120,7.0,0.0
17969,74.0,0,120,1.0,0.0
17970,67.0,1,120,1.0,0.0
17971,55.0,1,120,12.0,0.0
17972,74.0,0,120,2.0,0.0
17973,67.0,1,120,2.0,0.0
17974,55.0,0,110,5.0,0.0
17975,62.0,5,110,5.0,0.0
17976,62.0,5,120,7.0,0.0
17977,43.0,1,120,13.0,0.0
17978,43.0,2,120,8.0,0.0
17979,31.0,30,120,14.0,0.0
17980,55.0,11,45,10.0,0.0
17981,59.0,60,45,10.0,0.0
17982,60.0,122,45,10.0,0.0
17983,62.0,47,120,10.0,0.0
17984,55.0,13,45,11.0,0.0
17985,59.0,60,45,11.0,0.0
17986,55.0,7,105,12.0,0.0
17987,43.0,3,105,13.0,0.0
17988,31.0,105,105,14.0,0.0
17989,60.0,3,45,11.0,0.0
17990,89.0,0,120,0.0,0.0
17991,86.0,3,120,0.0,0.0
17992,60.0,0,120,4.0,0.0
17993,52.0,0,120,4.0,0.0
17994,77.0,0,120,1.0,0.0
17995,64.0,0,120,7.0,0.0
17996,74.0,1,120,1.0,0.0
17997,52.0,1,120,12.0,0.0
17998,52.0,1,120,5.0,0.0
17999,77.0,0,120,2.0,0.0
18000,74.0,0,120,2.0,0.0
18001,60.0,0,120,5.0,0.0
18002,60.0,5,120,7.0,0.0
18003,48.0,1,120,13.0,0.0
18004,48.0,1,120,8.0,0.0
18005,65.0,1,120,3.0,0.0
18006,36.0,30,120,14.0,0.0
18007,67.0,2,45,10.0,0.0
18008,55.0,14,45,11.0,0.0
18009,69.0,2,45,10.0,0.0
18010,88.0,0,110,0.0,0.0
18011,84.0,3,110,0.0,0.0
18012,57.0,58,45,11.0,0.0
18013,76.0,2,110,1.0,0.0
18014,72.0,0,110,1.0,0.0
18015,76.0,8,110,2.0,0.0
18016,72.0,0,110,2.0,0.0
18017,64.0,57,110,3.0,0.0
18018,71.0,2,45,10.0,0.0
18019,59.0,4,45,11.0,0.0
18020,72.0,2,120,10.0,0.0
18021,88.0,0,60,0.0,0.0
18022,84.0,3,60,0.0,0.0
18023,60.0,48,120,11.0,0.0
18024,76.0,2,60,1.0,0.0
18025,72.0,0,60,1.0,0.0
18026,76.0,8,60,2.0,0.0
18027,72.0,0,60,2.0,0.0
18028,64.0,36,60,3.0,0.0
18029,55.0,10,45,12.0,0.0
18030,79.0,0,60,0.0,0.0
18031,86.0,3,60,0.0,0.0
18032,62.0,0,120,4.0,0.0
18033,67.0,2,60,1.0,0.0
18034,74.0,0,60,1.0,0.0
18035,55.0,2,120,4.0,0.0
18036,57.0,11,45,12.0,0.0
18037,74.0,0,60,2.0,0.0
18038,62.0,99,120,5.0,0.0
18039,55.0,0,120,5.0,0.0
18040,67.0,8,60,2.0,0.0
18041,48.0,3,105,13.0,0.0
18042,62.0,36,60,3.0,0.0
18043,36.0,4,105,14.0,0.0
18044,59.0,7,45,12.0,0.0
18045,86.0,0,120,0.0,0.0
18046,64.0,1,120,7.0,0.0
18047,67.0,0,120,1.0,0.0
18048,74.0,0,120,1.0,0.0
18049,60.0,0,120,4.0,0.0
18050,52.0,0,120,4.0,0.0
18051,60.0,1,120,12.0,0.0
18052,74.0,0,120,2.0,0.0
18053,60.0,0,120,5.0,0.0
18054,52.0,0,120,5.0,0.0
18055,60.0,5,120,7.0,0.0
18056,48.0,1,120,13.0,0.0
18057,48.0,1,120,8.0,0.0
18058,62.0,1,120,3.0,0.0
18059,36.0,30,120,14.0,0.0
18060,67.0,2,45,10.0,0.0
18061,55.0,14,45,11.0,0.0
18062,69.0,2,45,10.0,0.0
18063,79.0,3,0,0.0,0.0
18064,84.0,0,110,0.0,0.0
18065,57.0,58,45,11.0,0.0
18066,72.0,0,110,1.0,0.0
18067,67.0,2,110,1.0,0.0
18068,67.0,1,0,2.0,0.0
18069,72.0,0,110,2.0,0.0
18070,60.0,57,110,3.0,0.0
18071,71.0,2,45,10.0,0.0
18072,59.0,4,45,11.0,0.0
18073,72.0,2,120,10.0,0.0
18074,79.0,0,60,0.0,0.0
18075,83.0,3,60,0.0,0.0
18076,60.0,48,120,11.0,0.0
18077,71.0,2,60,1.0,0.0
18078,67.0,0,60,1.0,0.0
18079,71.0,8,60,2.0,0.0
18080,67.0,0,60,2.0,0.0
18081,59.0,36,60,3.0,0.0
18082,55.0,10,45,12.0,0.0
18083,79.0,3,60,0.0,0.0
18084,84.0,0,60,0.0,0.0
18085,72.0,2,60,1.0,0.0
18086,52.0,0,120,4.0,0.0
18087,67.0,0,60,1.0,0.0
18088,57.0,11,45,12.0,0.0
18089,72.0,8,60,2.0,0.0
18090,67.0,0,60,2.0,0.0
18091,60.0,0,120,5.0,0.0
18092,48.0,3,105,13.0,0.0
18093,60.0,36,60,3.0,0.0
18094,36.0,4,105,14.0,0.0
18095,59.0,7,45,12.0,0.0
18096,86.0,3,120,0.0,0.0
18097,79.0,0,120,0.0,0.0
18098,64.0,1,120,7.0,0.0
18099,74.0,0,120,1.0,0.0
18100,67.0,0,120,1.0,0.0
18101,60.0,2,0,4.0,0.0
18102,52.0,0,120,4.0,0.0
18103,60.0,1,120,12.0,0.0
18104,60.0,0,120,5.0,0.0
18105,52.0,99,0,5.0,0.0
18106,74.0,1,120,2.0,0.0
18107,67.0,0,120,2.0,0.0
18108,60.0,5,120,7.0,0.0
18109,48.0,1,120,13.0,0.0
18110,48.0,1,120,8.0,0.0
18111,62.0,1,120,3.0,0.0
18112,36.0,30,120,14.0,0.0
18113,67.0,2,45,10.0,0.0
18114,55.0,14,45,11.0,0.0
18115,69.0,2,45,10.0,0.0
18116,79.0,3,110,0.0,0.0
18117,84.0,0,110,0.0,0.0
18118,57.0,58,45,11.0,0.0
18119,72.0,0,110,1.0,0.0
18120,67.0,2,110,1.0,0.0
18121,67.0,8,110,2.0,0.0
18122,72.0,0,110,2.0,0.0
18123,60.0,57,110,3.0,0.0
18124,71.0,2,45,10.0,0.0
18125,59.0,4,45,11.0,0.0
18126,72.0,2,120,10.0,0.0
18127,79.0,3,60,0.0,0.0
18128,83.0,0,60,0.0,0.0
18129,60.0,48,120,11.0,0.0
18130,67.0,0,60,1.0,0.0
18131,71.0,2,60,1.0,0.0
18132,71.0,8,60,2.0,0.0
18133,67.0,0,60,2.0,0.0
18134,59.0,36,60,3.0,0.0
18135,55.0,10,45,12.0,0.0
18136,79.0,3,60,0.0,0.0
18137,84.0,0,60,0.0,0.0
18138,72.0,2,60,1.0,0.0
18139,67.0,0,60,1.0,0.0
18140,52.0,0,120,4.0,0.0
18141,60.0,2,120,4.0,0.0
18142,57.0,11,45,12.0,0.0
18143,67.0,0,60,2.0,0.0
18144,60.0,99,120,5.0,0.0
18145,72.0,8,60,2.0,0.0
18146,48.0,3,105,13.0,0.0
18147,60.0,36,60,3.0,0.0
18148,36.0,4,105,14.0,0.0
18149,59.0,7,45,12.0,0.0
18150,86.0,0,120,0.0,0.0
18151,60.0,0,120,4.0,0.0
18152,64.0,0,120,7.0,0.0
18153,74.0,0,120,1.0,0.0
18154,52.0,0,120,4.0,0.0
18155,60.0,1,120,12.0,0.0
18156,74.0,0,120,2.0,0.0
18157,52.0,0,0,5.0,0.0
18158,60.0,0,120,5.0,0.0
18159,60.0,5,120,7.0,0.0
18160,48.0,1,120,13.0,0.0
18161,48.0,1,120,8.0,0.0
18162,62.0,1,120,3.0,0.0
18163,36.0,30,120,14.0,0.0
18164,67.0,2,45,10.0,0.0
18165,55.0,14,45,11.0,0.0
18166,69.0,2,45,10.0,0.0
18167,79.0,3,0,0.0,0.0
18168,84.0,0,110,0.0,0.0
18169,57.0,58,45,11.0,0.0
18170,67.0,1,0,1.0,0.0
18171,72.0,2,110,1.0,0.0
18172,67.0,0,0,2.0,0.0
18173,72.0,0,110,2.0,0.0
18174,60.0,57,110,3.0,0.0
18175,71.0,2,45,10.0,0.0
18176,59.0,4,45,11.0,0.0
18177,72.0,2,120,10.0,0.0
18178,83.0,0,60,0.0,0.0
18179,79.0,3,60,0.0,0.0
18180,60.0,48,120,11.0,0.0
18181,67.0,0,60,1.0,0.0
18182,71.0,2,60,1.0,0.0
18183,71.0,8,60,2.0,0.0
18184,67.0,0,60,2.0,0.0
18185,59.0,36,60,3.0,0.0
18186,55.0,10,45,12.0,0.0
18187,79.0,3,60,0.0,0.0
18188,84.0,0,60,0.0,0.0
18189,52.0,0,120,4.0,0.0
18190,72.0,2,60,1.0,0.0
18191,60.0,2,120,4.0,0.0
18192,67.0,0,60,1.0,0.0
18193,59.0,11,45,12.0,0.0
18194,67.0,0,60,2.0,0.0
18195,60.0,99,120,5.0,0.0
18196,52.0,0,120,5.0,0.0
18197,72.0,8,60,2.0,0.0
18198,48.0,3,105,13.0,0.0
18199,60.0,36,60,3.0,0.0
18200,36.0,4,105,14.0,0.0
18201,60.0,7,45,12.0,0.0
18202,91.0,0,120,0.0,0.0
18203,88.0,3,120,0.0,0.0
18204,62.0,0,120,4.0,0.0
18205,65.0,0,120,4.0,0.0
18206,79.0,0,120,1.0,0.0
18207,76.0,0,120,1.0,0.0
18208,65.0,1,120,7.0,0.0
18209,62.0,1,120,12.0,0.0
18210,79.0,0,120,2.0,0.0
18211,76.0,0,120,2.0,0.0
18212,65.0,0,120,5.0,0.0
18213,62.0,1,120,5.0,0.0
18214,62.0,5,120,7.0,0.0
18215,43.0,1,120,13.0,0.0
18216,43.0,1,120,8.0,0.0
18217,67.0,0,120,3.0,0.0
18218,64.0,1,120,3.0,0.0
18219,31.0,30,120,14.0,0.0
18220,67.0,2,45,10.0,0.0
18221,55.0,14,45,11.0,0.0
18222,71.0,2,45,10.0,0.0
18223,86.0,3,110,0.0,0.0
18224,89.0,0,110,0.0,0.0
18225,59.0,58,45,11.0,0.0
18226,77.0,2,110,1.0,0.0
18227,74.0,0,110,1.0,0.0
18228,74.0,0,110,2.0,0.0
18229,77.0,8,110,2.0,0.0
18230,65.0,0,110,3.0,0.0
18231,62.0,57,110,3.0,0.0
18232,72.0,2,45,10.0,0.0
18233,60.0,4,45,11.0,0.0
18234,74.0,2,120,10.0,0.0
18235,89.0,3,60,0.0,0.0
18236,86.0,0,60,0.0,0.0
18237,62.0,48,120,11.0,0.0
18238,77.0,0,60,1.0,0.0
18239,74.0,2,60,1.0,0.0
18240,77.0,0,60,2.0,0.0
18241,74.0,8,60,2.0,0.0
18242,62.0,36,60,3.0,0.0
18243,65.0,0,60,3.0,0.0
18244,55.0,10,45,12.0,0.0
18245,88.0,0,60,0.0,0.0
18246,84.0,3,60,0.0,0.0
18247,76.0,2,60,1.0,0.0
18248,60.0,0,120,4.0,0.0
18249,64.0,2,120,4.0,0.0
18250,72.0,0,60,1.0,0.0
18251,59.0,11,45,12.0,0.0
18252,64.0,0,120,5.0,0.0
18253,76.0,8,60,2.0,0.0
18254,72.0,0,60,2.0,0.0
18255,60.0,99,120,5.0,0.0
18256,43.0,3,105,13.0,0.0
18257,60.0,36,60,3.0,0.0
18258,64.0,0,60,3.0,0.0
18259,31.0,4,105,14.0,0.0
18260,60.0,7,45,12.0,0.0
18261,84.0,3,120,0.0,0.0
18262,88.0,0,120,0.0,0.0
18263,55.0,1,120,4.0,0.0
18264,65.0,0,120,7.0,0.0
18265,76.0,0,120,1.0,0.0
18266,62.0,0,120,4.0,0.0
18267,72.0,0,120,1.0,0.0
18268,62.0,1,120,12.0,0.0
18269,72.0,1,120,2.0,0.0
18270,76.0,0,120,2.0,0.0
18271,62.0,0,120,5.0,0.0
18272,55.0,0,120,5.0,0.0
18273,62.0,5,120,7.0,0.0
18274,43.0,1,120,13.0,0.0
18275,43.0,1,120,8.0,0.0
18276,64.0,1,120,3.0,0.0
18277,60.0,0,120,3.0,0.0
18278,31.0,30,120,14.0,0.0
18279,67.0,2,45,10.0,0.0
18280,55.0,14,45,11.0,0.0
18281,71.0,2,45,10.0,0.0
18282,86.0,0,110,0.0,0.0
18283,83.0,3,110,0.0,0.0
18284,59.0,58,45,11.0,0.0
18285,74.0,2,110,1.0,0.0
18286,71.0,0,110,1.0,0.0
18287,74.0,8,110,2.0,0.0
18288,71.0,0,110,2.0,0.0
18289,59.0,0,110,3.0,0.0
18290,62.0,57,110,3.0,0.0
18291,72.0,2,45,10.0,0.0
18292,60.0,4,45,11.0,0.0
18293,74.0,2,120,10.0,0.0
18294,85.0,0,60,0.0,0.0
18295,82.0,3,60,0.0,0.0
18296,62.0,48,120,11.0,0.0
18297,70.0,0,60,1.0,0.0
18298,73.0,2,60,1.0,0.0
18299,73.0,8,60,2.0,0.0
18300,70.0,0,60,2.0,0.0
18301,58.0,36,60,3.0,0.0
18302,61.0,0,60,3.0,0.0
18303,55.0,10,45,12.0,0.0
18304,86.0,3,60,0.0,0.0
18305,83.0,0,60,0.0,0.0
18306,74.0,0,60,1.0,0.0
18307,71.0,2,60,1.0,0.0
18308,59.0,11,45,12.0,0.0
18309,74.0,0,60,2.0,0.0
18310,71.0,8,60,2.0,0.0
18311,43.0,3,105,13.0,0.0
18312,62.0,0,60,3.0,0.0
18313,59.0,36,60,3.0,0.0
18314,31.0,4,105,14.0,0.0
18315,60.0,7,45,12.0,0.0
18316,88.0,0,120,0.0,0.0
18317,84.0,3,120,0.0,0.0
18318,72.0,0,120,1.0,0.0
18319,62.0,0,0,4.0,0.0
18320,76.0,0,120,1.0,0.0
18321,65.0,0,120,7.0,0.0
18322,55.0,2,0,4.0,0.0
18323,62.0,1,120,12.0,0.0
18324,55.0,99,0,5.0,0.0
18325,62.0,0,0,5.0,0.0
18326,72.0,0,120,2.0,0.0
18327,76.0,0,120,2.0,0.0
18328,62.0,5,120,7.0,0.0
18329,43.0,1,120,13.0,0.0
18330,43.0,1,120,8.0,0.0
18331,64.0,1,120,3.0,0.0
18332,60.0,0,120,3.0,0.0
18333,31.0,30,120,14.0,0.0
18334,67.0,2,45,10.0,0.0
18335,55.0,14,45,11.0,0.0
18336,71.0,2,45,10.0,0.0
18337,86.0,0,110,0.0,0.0
18338,83.0,3,110,0.0,0.0
18339,59.0,58,45,11.0,0.0
18340,74.0,2,110,1.0,0.0
18341,71.0,0,110,1.0,0.0
18342,71.0,8,110,2.0,0.0
18343,74.0,0,110,2.0,0.0
18344,59.0,0,110,3.0,0.0
18345,62.0,57,110,3.0,0.0
18346,72.0,2,45,10.0,0.0
18347,60.0,4,45,11.0,0.0
18348,74.0,2,120,10.0,0.0
18349,85.0,0,60,0.0,0.0
18350,82.0,3,60,0.0,0.0
18351,62.0,48,120,11.0,0.0
18352,70.0,0,60,1.0,0.0
18353,73.0,2,60,1.0,0.0
18354,73.0,8,60,2.0,0.0
18355,70.0,0,60,2.0,0.0
18356,61.0,0,60,3.0,0.0
18357,58.0,36,60,3.0,0.0
18358,55.0,10,45,12.0,0.0
18359,86.0,0,60,0.0,0.0
18360,83.0,3,60,0.0,0.0
18361,62.0,0,120,4.0,0.0
18362,55.0,2,120,4.0,0.0
18363,71.0,0,60,1.0,0.0
18364,74.0,2,60,1.0,0.0
18365,59.0,11,45,12.0,0.0
18366,71.0,8,60,2.0,0.0
18367,74.0,0,60,2.0,0.0
18368,43.0,3,105,13.0,0.0
18369,62.0,36,60,3.0,0.0
18370,59.0,0,60,3.0,0.0
18371,31.0,4,105,14.0,0.0
18372,60.0,7,45,12.0,0.0
18373,88.0,3,120,0.0,0.0
18374,84.0,0,120,0.0,0.0
18375,62.0,0,120,4.0,0.0
18376,76.0,0,120,1.0,0.0
18377,72.0,0,120,1.0,0.0
18378,55.0,1,120,4.0,0.0
18379,65.0,0,120,7.0,0.0
18380,62.0,1,120,12.0,0.0
18381,72.0,0,120,2.0,0.0
18382,62.0,0,0,5.0,0.0
18383,55.0,99,0,5.0,0.0
18384,76.0,1,120,2.0,0.0
18385,62.0,5,120,7.0,0.0
18386,43.0,1,120,13.0,0.0
18387,43.0,1,120,8.0,0.0
18388,60.0,1,120,3.0,0.0
18389,64.0,0,120,3.0,0.0
18390,31.0,30,120,14.0,0.0
18391,67.0,2,45,10.0,0.0
18392,55.0,14,45,11.0,0.0
18393,71.0,2,45,10.0,0.0
18394,86.0,3,110,0.0,0.0
18395,83.0,0,110,0.0,0.0
18396,59.0,58,45,11.0,0.0
18397,71.0,0,110,1.0,0.0
18398,74.0,2,110,1.0,0.0
18399,71.0,0,110,2.0,0.0
18400,74.0,8,110,2.0,0.0
18401,59.0,41,110,3.0,0.0
18402,62.0,0,110,3.0,0.0
18403,72.0,2,45,10.0,0.0
18404,60.0,4,45,11.0,0.0
18405,74.0,2,45,10.0,0.0
18406,85.0,0,60,0.0,0.0
18407,82.0,3,60,0.0,0.0
18408,62.0,14,45,11.0,0.0
18409,73.0,2,60,1.0,0.0
18410,70.0,0,60,1.0,0.0
18411,70.0,0,60,2.0,0.0
18412,73.0,8,60,2.0,0.0
18413,61.0,31,60,3.0,0.0
18414,58.0,0,60,3.0,0.0
18415,67.0,2,45,10.0,0.0
18416,55.0,3,45,11.0,0.0
18417,55.0,55,45,12.0,0.0
18418,71.0,2,45,10.0,0.0
18419,83.0,0,60,0.0,0.0
18420,86.0,3,60,0.0,0.0
18421,59.0,3,45,11.0,0.0
18422,71.0,0,60,1.0,0.0
18423,74.0,2,60,1.0,0.0
18424,62.0,2,120,4.0,0.0
18425,55.0,0,120,4.0,0.0
18426,59.0,11,45,12.0,0.0
18427,62.0,46,120,5.0,0.0
18428,55.0,0,120,5.0,0.0
18429,74.0,0,60,2.0,0.0
18430,71.0,8,60,2.0,0.0
18431,43.0,3,105,13.0,0.0
18432,59.0,31,60,3.0,0.0
18433,62.0,0,60,3.0,0.0
18434,31.0,4,105,14.0,0.0
18435,74.0,2,45,10.0,0.0
18436,62.0,3,45,11.0,0.0
18437,55.0,7,45,12.0,0.0
18438,76.0,2,120,10.0,0.0
18439,84.0,3,51,0.0,0.0
18440,88.0,0,51,0.0,0.0
18441,64.0,3,120,11.0,0.0
18442,76.0,2,51,1.0,0.0
18443,72.0,0,51,1.0,0.0
18444,60.0,7,120,12.0,0.0
18445,72.0,0,51,2.0,0.0
18446,76.0,8,51,2.0,0.0
18447,48.0,3,120,13.0,0.0
18448,48.0,0,51,3.0,0.0
18449,36.0,55,51,3.0,0.0
18450,36.0,139,120,14.0,0.0
18451,83.0,3,153,0.0,0.0
18452,86.0,0,153,0.0,0.0
18453,74.0,0,153,1.0,0.0
18454,71.0,2,153,1.0,0.0
18455,74.0,8,153,2.0,0.0
18456,71.0,0,153,2.0,0.0
18457,40.0,0,153,3.0,0.0
18458,52.0,73,153,3.0,0.0
18459,86.0,2,120,10.0,0.0
18460,83.0,3,120,11.0,0.0
18461,64.0,7,120,12.0,0.0
18462,52.0,3,120,13.0,0.0
18463,40.0,139,120,14.0,0.0
18464,84.0,0,153,0.0,0.0
18465,81.0,3,153,0.0,0.0
18466,72.0,0,153,1.0,0.0
18467,69.0,2,153,1.0,0.0
18468,72.0,8,153,2.0,0.0
18469,69.0,0,153,2.0,0.0
18470,57.0,0,153,3.0,0.0
18471,45.0,73,153,3.0,0.0
18472,84.0,2,120,10.0,0.0
18473,81.0,3,120,11.0,0.0
18474,57.0,7,120,12.0,0.0
18475,57.0,3,120,13.0,0.0
18476,45.0,139,120,14.0,0.0
18477,79.0,3,153,0.0,0.0
18478,83.0,0,153,0.0,0.0
18479,79.0,0,153,1.0,0.0
18480,83.0,2,153,1.0,0.0
18481,71.0,0,153,2.0,0.0
18482,67.0,8,153,2.0,0.0
18483,60.0,73,153,3.0,0.0
18484,48.0,0,153,3.0,0.0
18485,83.0,2,120,10.0,0.0
18486,79.0,3,120,11.0,0.0
18487,60.0,7,120,12.0,0.0
18488,60.0,3,120,13.0,0.0
18489,48.0,139,120,14.0,0.0
18490,81.0,3,153,0.0,0.0
18491,77.0,0,153,0.0,0.0
18492,81.0,0,153,1.0,0.0
18493,77.0,2,153,1.0,0.0
18494,65.0,0,153,2.0,0.0
18495,69.0,8,153,2.0,0.0
18496,53.0,73,153,3.0,0.0
18497,65.0,0,153,3.0,0.0
18498,81.0,2,120,10.0,0.0
18499,77.0,3,120,11.0,0.0
18500,53.0,7,120,12.0,0.0
18501,53.0,3,120,13.0,0.0
18502,41.0,139,120,14.0,0.0
18503,88.0,0,153,0.0,0.0
18504,91.0,3,153,0.0,0.0
18505,76.0,2,153,1.0,0.0
18506,79.0,0,153,1.0,0.0
18507,64.0,8,153,2.0,0.0
18508,67.0,0,153,2.0,0.0
18509,45.0,0,153,3.0,0.0
18510,57.0,73,153,3.0,0.0
18511,79.0,2,120,10.0,0.0
18512,76.0,3,120,11.0,0.0
18513,57.0,7,120,12.0,0.0
18514,57.0,3,120,13.0,0.0
18515,45.0,139,120,14.0,0.0
18516,86.0,3,153,0.0,0.0
18517,89.0,0,153,0.0,0.0
18518,74.0,0,153,1.0,0.0
18519,77.0,2,153,1.0,0.0
18520,62.0,8,153,2.0,0.0
18521,65.0,0,153,2.0,0.0
18522,62.0,0,153,3.0,0.0
18523,50.0,73,153,3.0,0.0
18524,77.0,2,120,10.0,0.0
18525,74.0,3,120,11.0,0.0
18526,62.0,7,120,12.0,0.0
18527,62.0,3,120,13.0,0.0
18528,50.0,139,120,14.0,0.0
18529,89.0,0,153,0.0,0.0
18530,86.0,3,153,0.0,0.0
18531,77.0,2,153,1.0,0.0
18532,74.0,0,153,1.0,0.0
18533,62.0,8,153,2.0,0.0
18534,65.0,0,153,2.0,0.0
18535,48.0,0,153,3.0,0.0
18536,60.0,73,153,3.0,0.0
18537,77.0,2,120,10.0,0.0
18538,69.0,3,120,11.0,0.0
18539,62.0,7,120,12.0,0.0
18540,60.0,3,120,13.0,0.0
18541,48.0,139,120,14.0,0.0
18542,89.0,3,153,0.0,0.0
18543,86.0,0,153,0.0,0.0
18544,77.0,2,153,1.0,0.0
18545,74.0,0,153,1.0,0.0
18546,62.0,0,153,2.0,0.0
18547,65.0,8,153,2.0,0.0
18548,59.0,73,153,3.0,0.0
18549,47.0,0,153,3.0,0.0
18550,77.0,2,120,10.0,0.0
18551,67.0,3,120,11.0,0.0
18552,62.0,7,120,12.0,0.0
18553,59.0,3,120,13.0,0.0
18554,47.0,139,120,14.0,0.0
18555,84.0,0,153,0.0,0.0
18556,89.0,3,153,0.0,0.0
18557,72.0,2,153,1.0,0.0
18558,77.0,0,153,1.0,0.0
18559,62.0,0,153,2.0,0.0
18560,65.0,8,153,2.0,0.0
18561,57.0,73,153,3.0,0.0
18562,45.0,0,153,3.0,0.0
18563,77.0,2,120,10.0,0.0
18564,72.0,3,120,11.0,0.0
18565,62.0,7,120,12.0,0.0
18566,57.0,3,120,13.0,0.0
18567,45.0,139,120,14.0,0.0
18568,89.0,0,153,0.0,0.0
18569,83.0,3,153,0.0,0.0
18570,71.0,2,153,1.0,0.0
18571,77.0,0,153,1.0,0.0
18572,62.0,0,153,2.0,0.0
18573,65.0,8,153,2.0,0.0
18574,43.0,73,153,3.0,0.0
18575,55.0,0,153,3.0,0.0
18576,77.0,2,120,10.0,0.0
18577,71.0,3,120,11.0,0.0
18578,62.0,7,120,12.0,0.0
18579,55.0,3,120,13.0,0.0
18580,43.0,139,120,14.0,0.0
18581,83.0,3,153,0.0,0.0
18582,93.0,0,153,0.0,0.0
18583,81.0,0,153,1.0,0.0
18584,71.0,2,153,1.0,0.0
18585,62.0,8,153,2.0,0.0
18586,71.0,0,153,2.0,0.0
18587,41.0,73,153,3.0,0.0
18588,53.0,0,153,3.0,0.0
18589,81.0,2,120,10.0,0.0
18590,71.0,3,120,11.0,0.0
18591,62.0,1,120,12.0,0.0
18592,62.0,6,120,5.0,0.0
18593,55.0,0,120,5.0,0.0
18594,53.0,3,120,13.0,0.0
18595,41.0,110,120,14.0,0.0
18596,84.0,0,153,0.0,0.0
18597,91.0,3,153,0.0,0.0
18598,79.0,2,153,1.0,0.0
18599,72.0,0,153,1.0,0.0
18600,64.0,77,153,2.0,0.0
18601,72.0,0,153,2.0,0.0
18602,40.0,0,51,3.0,0.0
18603,52.0,29,51,3.0,0.0
18604,79.0,2,120,10.0,0.0
18605,72.0,3,120,11.0,0.0
18606,64.0,1,120,12.0,0.0
18607,60.0,0,120,5.0,0.0
18608,52.0,6,120,5.0,0.0
18609,52.0,3,120,13.0,0.0
18610,64.0,0,102,3.0,0.0
18611,52.0,4,102,3.0,0.0
18612,40.0,139,120,14.0,0.0
18613,84.0,0,153,0.0,0.0
18614,93.0,3,153,0.0,0.0
18615,81.0,0,153,1.0,0.0
18616,72.0,2,153,1.0,0.0
18617,62.0,8,153,2.0,0.0
18618,72.0,0,153,2.0,0.0
18619,53.0,73,153,3.0,0.0
18620,65.0,0,153,3.0,0.0
18621,81.0,2,120,10.0,0.0
18622,72.0,3,120,11.0,0.0
18623,62.0,1,120,12.0,0.0
18624,60.0,0,120,5.0,0.0
18625,62.0,6,120,5.0,0.0
18626,53.0,3,120,13.0,0.0
18627,41.0,139,120,14.0,0.0
18628,84.0,3,153,0.0,0.0
18629,91.0,0,153,0.0,0.0
18630,79.0,2,153,1.0,0.0
18631,72.0,0,153,1.0,0.0
18632,72.0,8,153,2.0,0.0
18633,64.0,0,153,2.0,0.0
18634,67.0,73,153,3.0,0.0
18635,55.0,0,153,3.0,0.0
18636,79.0,2,120,10.0,0.0
18637,72.0,3,120,11.0,0.0
18638,64.0,1,120,12.0,0.0
18639,64.0,0,120,5.0,0.0
18640,60.0,6,120,5.0,0.0
18641,55.0,3,120,13.0,0.0
18642,43.0,177,120,14.0,0.0
18643,83.0,3,191,0.0,0.0
18644,91.0,0,191,0.0,0.0
18645,79.0,2,191,1.0,0.0
18646,71.0,0,191,1.0,0.0
18647,62.0,8,191,2.0,0.0
18648,71.0,0,191,2.0,0.0
18649,55.0,41,191,3.0,0.0
18650,43.0,0,191,3.0,0.0
18651,79.0,2,150,10.0,0.0
18652,71.0,3,150,11.0,0.0
18653,62.0,7,150,12.0,0.0
18654,62.0,0,120,5.0,0.0
18655,55.0,24,120,5.0,0.0
18656,43.0,3,150,13.0,0.0
18657,31.0,135,150,14.0,0.0
18658,88.0,2,120,10.0,0.0
18659,84.0,3,120,11.0,0.0
18660,72.0,7,120,12.0,0.0
18661,76.0,0,120,12.0,0.0
18662,36.0,3,120,13.0,0.0
18663,36.0,46,120,14.0,0.0
18664,88.0,2,120,0.0,0.0
18665,84.0,0,120,0.0,0.0
18666,60.0,0,120,6.0,0.0
18667,72.0,1,120,6.0,0.0
18668,60.0,0,120,4.0,0.0
18669,48.0,2,120,4.0,0.0
18670,72.0,0,120,1.0,0.0
18671,76.0,0,120,1.0,0.0
18672,72.0,2,120,2.0,0.0
18673,64.0,0,120,2.0,0.0
18674,60.0,0,120,5.0,0.0
18675,48.0,0,120,5.0,0.0
18676,48.0,6,120,15.0,0.0
18677,60.0,166,120,3.0,0.0
18678,64.0,0,120,3.0,0.0
18679,86.0,2,180,10.0,0.0
18680,83.0,3,180,11.0,0.0
18681,71.0,0,180,12.0,0.0
18682,74.0,7,180,12.0,0.0
18683,40.0,3,180,13.0,0.0
18684,28.0,46,180,14.0,0.0
18685,83.0,0,120,0.0,0.0
18686,86.0,2,120,0.0,0.0
18687,76.0,1,120,6.0,0.0
18688,64.0,0,120,6.0,0.0
18689,83.0,0,120,1.0,0.0
18690,86.0,0,120,1.0,0.0
18691,64.0,0,120,4.0,0.0
18692,52.0,2,120,4.0,0.0
18693,52.0,0,120,5.0,0.0
18694,71.0,0,120,2.0,0.0
18695,74.0,8,120,2.0,0.0
18696,64.0,0,120,5.0,0.0
18697,62.0,0,120,3.0,0.0
18698,59.0,114,120,3.0,0.0
18699,84.0,2,180,10.0,0.0
18700,81.0,3,180,11.0,0.0
18701,69.0,0,180,12.0,0.0
18702,72.0,7,180,12.0,0.0
18703,48.0,52,120,15.0,0.0
18704,45.0,3,180,13.0,0.0
18705,33.0,46,180,14.0,0.0
18706,81.0,2,120,0.0,0.0
18707,84.0,0,120,0.0,0.0
18708,60.0,1,120,6.0,0.0
18709,72.0,0,120,6.0,0.0
18710,52.0,0,120,4.0,0.0
18711,64.0,0,120,4.0,0.0
18712,81.0,0,120,1.0,0.0
18713,84.0,2,120,1.0,0.0
18714,69.0,0,120,2.0,0.0
18715,72.0,0,120,2.0,0.0
18716,52.0,2,120,5.0,0.0
18717,64.0,0,120,5.0,0.0
18718,48.0,6,120,15.0,0.0
18719,57.0,166,120,3.0,0.0
18720,60.0,0,120,3.0,0.0
18721,83.0,2,180,10.0,0.0
18722,79.0,3,180,11.0,0.0
18723,71.0,0,180,12.0,0.0
18724,67.0,7,180,12.0,0.0
18725,48.0,3,180,13.0,0.0
18726,36.0,46,180,14.0,0.0
18727,83.0,0,120,0.0,0.0
18728,79.0,2,120,0.0,0.0
18729,72.0,1,120,6.0,0.0
18730,60.0,0,120,6.0,0.0
18731,83.0,0,120,1.0,0.0
18732,60.0,0,120,4.0,0.0
18733,48.0,2,120,4.0,0.0
18734,79.0,0,120,1.0,0.0
18735,60.0,2,120,5.0,0.0
18736,48.0,0,120,5.0,0.0
18737,71.0,0,120,2.0,0.0
18738,67.0,0,120,2.0,0.0
18739,48.0,6,120,15.0,0.0
18740,59.0,166,120,3.0,0.0
18741,55.0,0,120,3.0,0.0
18742,81.0,2,180,10.0,0.0
18743,77.0,3,180,11.0,0.0
18744,65.0,0,180,12.0,0.0
18745,69.0,7,180,12.0,0.0
18746,53.0,3,180,13.0,0.0
18747,41.0,46,180,14.0,0.0
18748,81.0,0,120,0.0,0.0
18749,77.0,2,120,0.0,0.0
18750,72.0,0,120,6.0,0.0
18751,60.0,1,120,6.0,0.0
18752,48.0,0,120,4.0,0.0
18753,81.0,0,120,1.0,0.0
18754,77.0,0,120,1.0,0.0
18755,60.0,2,120,4.0,0.0
18756,60.0,0,120,5.0,0.0
18757,48.0,2,120,5.0,0.0
18758,65.0,0,120,2.0,0.0
18759,69.0,0,120,2.0,0.0
18760,48.0,6,120,15.0,0.0
18761,53.0,166,120,3.0,0.0
18762,57.0,0,120,3.0,0.0
18763,79.0,2,180,10.0,0.0
18764,76.0,3,180,11.0,0.0
18765,67.0,7,180,12.0,0.0
18766,64.0,0,180,12.0,0.0
18767,57.0,3,180,13.0,0.0
18768,45.0,46,180,14.0,0.0
18769,91.0,0,120,0.0,0.0
18770,88.0,2,120,0.0,0.0
18771,60.0,1,120,6.0,0.0
18772,72.0,0,120,6.0,0.0
18773,79.0,2,120,1.0,0.0
18774,60.0,0,120,4.0,0.0
18775,48.0,0,120,4.0,0.0
18776,76.0,0,120,1.0,0.0
18777,64.0,2,120,2.0,0.0
18778,67.0,0,120,2.0,0.0
18779,48.0,0,120,5.0,0.0
18780,60.0,0,120,5.0,0.0
18781,48.0,6,120,15.0,0.0
18782,52.0,166,120,3.0,0.0
18783,55.0,0,120,3.0,0.0
18784,77.0,2,180,10.0,0.0
18785,74.0,3,180,11.0,0.0
18786,62.0,0,180,12.0,0.0
18787,65.0,7,180,12.0,0.0
18788,62.0,3,180,13.0,0.0
18789,50.0,46,180,14.0,0.0
18790,89.0,0,120,0.0,0.0
18791,86.0,2,120,0.0,0.0
18792,60.0,0,120,6.0,0.0
18793,72.0,1,120,6.0,0.0
18794,74.0,0,120,1.0,0.0
18795,77.0,0,120,1.0,0.0
18796,48.0,2,120,4.0,0.0
18797,60.0,0,120,4.0,0.0
18798,62.0,2,120,2.0,0.0
18799,65.0,0,120,2.0,0.0
18800,60.0,0,120,5.0,0.0
18801,48.0,0,120,5.0,0.0
18802,48.0,6,120,15.0,0.0
18803,50.0,0,120,3.0,0.0
18804,53.0,166,120,3.0,0.0
18805,77.0,2,180,10.0,0.0
18806,74.0,3,180,11.0,0.0
18807,62.0,7,180,12.0,0.0
18808,65.0,0,180,12.0,0.0
18809,60.0,3,180,13.0,0.0
18810,48.0,46,180,14.0,0.0
18811,86.0,2,120,0.0,0.0
18812,89.0,0,120,0.0,0.0
18813,60.0,1,120,6.0,0.0
18814,72.0,0,120,6.0,0.0
18815,62.0,0,120,4.0,0.0
18816,86.0,0,120,1.0,0.0
18817,60.0,0,120,4.0,0.0
18818,77.0,2,120,1.0,0.0
18819,62.0,0,120,5.0,0.0
18820,60.0,0,120,5.0,0.0
18821,65.0,0,120,2.0,0.0
18822,68.0,2,120,2.0,0.0
18823,48.0,6,120,15.0,0.0
18824,56.0,0,120,3.0,0.0
18825,53.0,166,120,3.0,0.0
18826,77.0,2,180,10.0,0.0
18827,74.0,3,180,11.0,0.0
18828,65.0,7,180,12.0,0.0
18829,62.0,0,180,12.0,0.0
18830,59.0,3,180,13.0,0.0
18831,47.0,46,180,14.0,0.0
18832,89.0,0,120,0.0,0.0
18833,86.0,2,120,0.0,0.0
18834,55.0,1,120,6.0,0.0
18835,67.0,0,120,6.0,0.0
18836,62.0,0,120,4.0,0.0
18837,86.0,0,120,1.0,0.0
18838,55.0,2,120,4.0,0.0
18839,77.0,0,120,1.0,0.0
18840,65.0,0,120,2.0,0.0
18841,67.0,2,120,2.0,0.0
18842,55.0,0,120,5.0,0.0
18843,62.0,0,120,5.0,0.0
18844,43.0,6,120,15.0,0.0
18845,53.0,0,120,3.0,0.0
18846,55.0,166,120,3.0,0.0
18847,77.0,2,180,10.0,0.0
18848,74.0,3,180,11.0,0.0
18849,62.0,7,180,12.0,0.0
18850,65.0,0,180,12.0,0.0
18851,57.0,3,180,13.0,0.0
18852,45.0,46,180,14.0,0.0
18853,89.0,2,120,0.0,0.0
18854,84.0,0,120,0.0,0.0
18855,67.0,0,120,6.0,0.0
18856,55.0,1,120,6.0,0.0
18857,62.0,0,120,4.0,0.0
18858,77.0,2,120,1.0,0.0
18859,86.0,0,120,1.0,0.0
18860,72.0,0,120,2.0,0.0
18861,62.0,2,120,5.0,0.0
18862,65.0,0,120,2.0,0.0
18863,43.0,6,120,15.0,0.0
18864,57.0,166,120,3.0,0.0
18865,60.0,0,120,3.0,0.0
18866,77.0,2,180,10.0,0.0
18867,74.0,3,180,11.0,0.0
18868,62.0,7,180,12.0,0.0
18869,65.0,0,180,12.0,0.0
18870,55.0,3,180,13.0,0.0
18871,43.0,46,180,14.0,0.0
18872,89.0,2,120,0.0,0.0
18873,83.0,0,120,0.0,0.0
18874,67.0,0,120,6.0,0.0
18875,55.0,1,120,6.0,0.0
18876,55.0,2,120,4.0,0.0
18877,86.0,0,120,1.0,0.0
18878,62.0,0,120,4.0,0.0
18879,77.0,0,120,1.0,0.0
18880,55.0,2,120,5.0,0.0
18881,65.0,0,120,2.0,0.0
18882,62.0,0,120,5.0,0.0
18883,71.0,0,120,2.0,0.0
18884,43.0,6,120,15.0,0.0
18885,55.0,166,120,3.0,0.0
18886,59.0,0,120,3.0,0.0
18887,81.0,2,180,10.0,0.0
18888,71.0,3,180,11.0,0.0
18889,62.0,7,180,12.0,0.0
18890,65.0,0,180,12.0,0.0
18891,53.0,3,180,13.0,0.0
18892,41.0,46,180,14.0,0.0
18893,83.0,0,120,0.0,0.0
18894,93.0,2,120,0.0,0.0
18895,67.0,0,120,6.0,0.0
18896,55.0,1,120,6.0,0.0
18897,62.0,0,120,4.0,0.0
18898,55.0,0,120,4.0,0.0
18899,74.0,0,120,1.0,0.0
18900,83.0,2,120,1.0,0.0
18901,62.0,0,120,5.0,0.0
18902,55.0,0,120,5.0,0.0
18903,71.0,2,120,2.0,0.0
18904,74.0,0,120,2.0,0.0
18905,43.0,6,120,15.0,0.0
18906,59.0,166,120,3.0,0.0
18907,53.0,0,120,3.0,0.0
18908,79.0,2,180,10.0,0.0
18909,72.0,3,180,11.0,0.0
18910,67.0,0,180,12.0,0.0
18911,64.0,7,180,12.0,0.0
18912,52.0,3,180,13.0,0.0
18913,40.0,46,180,14.0,0.0
18914,84.0,2,120,0.0,0.0
18915,91.0,0,120,0.0,0.0
18916,60.0,0,120,6.0,0.0
18917,72.0,1,120,6.0,0.0
18918,76.0,2,120,1.0,0.0
18919,84.0,0,120,1.0,0.0
18920,60.0,0,120,4.0,0.0
18921,64.0,0,120,4.0,0.0
18922,76.0,0,120,2.0,0.0
18923,72.0,0,120,2.0,0.0
18924,60.0,2,120,5.0,0.0
18925,64.0,0,120,5.0,0.0
18926,48.0,6,120,15.0,0.0
18927,60.0,166,120,3.0,0.0
18928,52.0,0,120,3.0,0.0
18929,81.0,2,180,10.0,0.0
18930,72.0,3,180,11.0,0.0
18931,62.0,0,180,12.0,0.0
18932,69.0,7,180,12.0,0.0
18933,53.0,3,180,13.0,0.0
18934,41.0,46,180,14.0,0.0
18935,93.0,0,120,0.0,0.0
18936,84.0,2,120,0.0,0.0
18937,72.0,0,120,6.0,0.0
18938,60.0,1,120,6.0,0.0
18939,60.0,0,120,4.0,0.0
18940,84.0,0,120,1.0,0.0
18941,74.0,2,120,1.0,0.0
18942,62.0,0,120,4.0,0.0
18943,74.0,0,120,2.0,0.0
18944,60.0,0,120,5.0,0.0
18945,62.0,0,120,5.0,0.0
18946,72.0,2,120,2.0,0.0
18947,48.0,6,120,15.0,0.0
18948,60.0,0,120,3.0,0.0
18949,53.0,166,120,3.0,0.0
18950,79.0,2,180,10.0,0.0
18951,72.0,3,180,11.0,0.0
18952,67.0,0,180,12.0,0.0
18953,64.0,7,180,12.0,0.0
18954,55.0,3,180,13.0,0.0
18955,43.0,46,180,14.0,0.0
18956,84.0,0,120,0.0,0.0
18957,91.0,2,120,0.0,0.0
18958,60.0,0,120,6.0,0.0
18959,72.0,1,120,6.0,0.0
18960,76.0,0,120,1.0,0.0
18961,64.0,0,120,4.0,0.0
18962,84.0,2,120,1.0,0.0
18963,60.0,0,120,4.0,0.0
18964,60.0,0,120,5.0,0.0
18965,64.0,0,120,5.0,0.0
18966,72.0,0,120,2.0,0.0
18967,76.0,2,120,2.0,0.0
18968,48.0,6,120,15.0,0.0
18969,55.0,0,120,3.0,0.0
18970,60.0,166,120,3.0,0.0
18971,79.0,2,180,10.0,0.0
18972,71.0,3,180,11.0,0.0
18973,62.0,7,180,12.0,0.0
18974,67.0,0,180,12.0,0.0
18975,43.0,3,180,13.0,0.0
18976,31.0,46,180,14.0,0.0
18977,83.0,0,120,0.0,0.0
18978,91.0,2,120,0.0,0.0
18979,67.0,0,120,6.0,0.0
18980,55.0,1,120,6.0,0.0
18981,74.0,0,120,1.0,0.0
18982,55.0,0,120,4.0,0.0
18983,83.0,2,120,1.0,0.0
18984,62.0,0,120,4.0,0.0
18985,71.0,0,120,2.0,0.0
18986,55.0,0,120,5.0,0.0
18987,74.0,2,120,2.0,0.0
18988,62.0,0,120,5.0,0.0
18989,43.0,6,120,15.0,0.0
18990,59.0,0,120,3.0,0.0
18991,55.0,166,120,3.0,0.0
18992,79.0,2,180,10.0,0.0
18993,72.0,3,180,11.0,0.0
18994,67.0,0,180,12.0,0.0
18995,64.0,7,180,12.0,0.0
18996,48.0,3,180,13.0,0.0
18997,36.0,46,180,14.0,0.0
18998,84.0,2,120,0.0,0.0
18999,91.0,0,120,0.0,0.0
19000,72.0,1,120,6.0,0.0
19001,60.0,0,120,6.0,0.0
19002,76.0,2,120,1.0,0.0
19003,84.0,0,120,1.0,0.0
19004,60.0,0,120,4.0,0.0
19005,64.0,0,120,4.0,0.0
19006,72.0,0,120,2.0,0.0
19007,64.0,0,120,5.0,0.0
19008,60.0,0,120,5.0,0.0
19009,76.0,2,120,2.0,0.0
19010,48.0,6,120,15.0,0.0
19011,48.0,166,120,3.0,0.0
19012,60.0,0,120,3.0,0.0
19013,81.0,2,180,10.0,0.0
19014,73.0,3,180,11.0,0.0
19015,69.0,0,180,12.0,0.0
19016,64.0,7,180,12.0,0.0
19017,45.0,3,180,13.0,0.0
19018,33.0,46,180,14.0,0.0
19019,85.0,0,120,0.0,0.0
19020,93.0,3,120,0.0,0.0
19021,76.0,0,120,1.0,0.0
19022,85.0,2,120,1.0,0.0
19023,64.0,0,120,4.0,0.0
19024,67.0,0,120,4.0,0.0
19025,73.0,0,120,2.0,0.0
19026,67.0,0,120,5.0,0.0
19027,64.0,0,120,5.0,0.0
19028,76.0,8,120,2.0,0.0
19029,57.0,0,120,3.0,0.0
19030,45.0,166,120,3.0,0.0
19031,81.0,2,180,10.0,0.0
19032,74.0,3,180,11.0,0.0
19033,65.0,7,180,12.0,0.0
19034,69.0,0,180,12.0,0.0
19035,50.0,3,180,13.0,0.0
19036,38.0,46,180,14.0,0.0
19037,86.0,0,120,0.0,0.0
19038,93.0,3,120,0.0,0.0
19039,77.0,0,120,1.0,0.0
19040,65.0,0,120,4.0,0.0
19041,62.0,2,120,4.0,0.0
19042,86.0,0,120,1.0,0.0
19043,65.0,0,120,5.0,0.0
19044,62.0,0,120,5.0,0.0
19045,77.0,0,120,2.0,0.0
19046,74.0,8,120,2.0,0.0
19047,62.0,0,120,3.0,0.0
19048,50.0,166,120,3.0,0.0
19049,79.0,2,180,10.0,0.0
19050,71.0,3,180,11.0,0.0
19051,62.0,0,180,12.0,0.0
19052,67.0,7,180,12.0,0.0
19053,43.0,3,180,13.0,0.0
19054,31.0,46,180,14.0,0.0
19055,91.0,0,120,0.0,0.0
19056,83.0,2,120,0.0,0.0
19057,67.0,0,120,6.0,0.0
19058,55.0,1,120,6.0,0.0
19059,83.0,2,120,1.0,0.0
19060,74.0,0,120,1.0,0.0
19061,62.0,0,120,4.0,0.0
19062,55.0,0,120,4.0,0.0
19063,55.0,2,120,5.0,0.0
19064,62.0,0,120,5.0,0.0
19065,71.0,0,120,2.0,0.0
19066,74.0,0,120,2.0,0.0
19067,43.0,6,120,15.0,0.0
19068,55.0,0,120,3.0,0.0
19069,43.0,166,120,3.0,0.0
19070,79.0,2,180,10.0,0.0
19071,72.0,3,180,11.0,0.0
19072,64.0,0,180,12.0,0.0
19073,67.0,7,180,12.0,0.0
19074,48.0,3,180,13.0,0.0
19075,36.0,46,180,14.0,0.0
19076,84.0,0,120,0.0,0.0
19077,91.0,2,120,0.0,0.0
19078,72.0,0,120,6.0,0.0
19079,60.0,1,120,6.0,0.0
19080,84.0,2,120,1.0,0.0
19081,64.0,0,120,4.0,0.0
19082,76.0,0,120,1.0,0.0
19083,60.0,0,120,4.0,0.0
19084,64.0,2,120,5.0,0.0
19085,60.0,0,120,5.0,0.0
19086,72.0,0,120,2.0,0.0
19087,76.0,0,120,2.0,0.0
19088,48.0,6,120,15.0,0.0
19089,60.0,166,120,3.0,0.0
19090,48.0,0,120,3.0,0.0
19091,81.0,2,180,10.0,0.0
19092,73.0,3,180,11.0,0.0
19093,69.0,7,180,12.0,0.0
19094,64.0,0,180,12.0,0.0
19095,45.0,3,180,13.0,0.0
19096,33.0,46,180,14.0,0.0
19097,93.0,0,120,0.0,0.0
19098,85.0,3,120,0.0,0.0
19099,64.0,2,120,4.0,0.0
19100,76.0,0,120,1.0,0.0
19101,52.0,0,120,4.0,0.0
19102,85.0,0,120,1.0,0.0
19103,73.0,0,120,2.0,0.0
19104,76.0,0,120,2.0,0.0
19105,52.0,8,120,5.0,0.0
19106,64.0,0,120,5.0,0.0
19107,45.0,0,120,3.0,0.0
19108,57.0,166,120,3.0,0.0
19109,81.0,2,180,10.0,0.0
19110,74.0,3,180,11.0,0.0
19111,65.0,7,180,12.0,0.0
19112,69.0,0,180,12.0,0.0
19113,50.0,3,180,13.0,0.0
19114,38.0,46,180,14.0,0.0
19115,86.0,3,120,0.0,0.0
19116,93.0,0,120,0.0,0.0
19117,77.0,0,120,1.0,0.0
19118,65.0,0,120,4.0,0.0
19119,86.0,2,120,1.0,0.0
19120,62.0,0,120,4.0,0.0
19121,77.0,0,120,2.0,0.0
19122,74.0,0,120,2.0,0.0
19123,62.0,0,120,5.0,0.0
19124,65.0,8,120,5.0,0.0
19125,50.0,166,120,3.0,0.0
19126,62.0,0,120,3.0,0.0
19127,79.0,2,180,10.0,0.0
19128,71.0,3,180,11.0,0.0
19129,67.0,7,180,12.0,0.0
19130,62.0,0,180,12.0,0.0
19131,43.0,3,180,13.0,0.0
19132,31.0,46,180,14.0,0.0
19133,83.0,0,120,0.0,0.0
19134,91.0,2,120,0.0,0.0
19135,67.0,0,120,6.0,0.0
19136,55.0,1,120,6.0,0.0
19137,55.0,2,120,4.0,0.0
19138,74.0,0,120,1.0,0.0
19139,83.0,0,120,1.0,0.0
19140,62.0,0,120,4.0,0.0
19141,74.0,0,120,2.0,0.0
19142,71.0,2,120,2.0,0.0
19143,55.0,0,120,5.0,0.0
19144,62.0,0,120,5.0,0.0
19145,43.0,6,120,15.0,0.0
19146,55.0,0,120,3.0,0.0
19147,43.0,91,120,3.0,0.0
19148,77.0,2,105,10.0,0.0
19149,72.0,3,105,11.0,0.0
19150,62.0,0,105,12.0,0.0
19151,59.0,7,105,12.0,0.0
19152,43.0,3,105,13.0,0.0
19153,31.0,45,105,14.0,0.0
19154,77.0,2,45,10.0,0.0
19155,77.0,3,710,0.0,0.0
19156,74.0,0,710,0.0,0.0
19157,62.0,3,45,11.0,0.0
19158,67.0,0,120,6.0,0.0
19159,55.0,5,120,6.0,0.0
19160,65.0,0,720,7.0,0.0
19161,74.0,2,710,1.0,0.0
19162,77.0,0,710,1.0,0.0
19163,59.0,55,45,12.0,0.0
19164,65.0,0,710,2.0,0.0
19165,62.0,8,710,2.0,0.0
19166,62.0,38,720,7.0,0.0
19167,43.0,37,120,15.0,0.0
19168,43.0,3,105,13.0,0.0
19169,43.0,32,1920,8.0,0.0
19170,53.0,3,710,3.0,0.0
19171,50.0,0,710,3.0,0.0
19172,31.0,3,105,14.0,0.0
19173,77.0,2,45,10.0,0.0
19174,62.0,3,45,11.0,0.0
19175,59.0,7,45,12.0,0.0
19176,77.0,2,45,10.0,0.0
19177,65.0,3,45,11.0,0.0
19178,62.0,55,45,12.0,0.0
19179,43.0,3,105,13.0,0.0
19180,31.0,45,105,14.0,0.0
19181,77.0,2,45,10.0,0.0
19182,65.0,3,45,11.0,0.0
19183,62.0,7,45,12.0,0.0
19184,77.0,2,45,10.0,0.0
19185,62.0,3,45,11.0,0.0
19186,59.0,55,45,12.0,0.0
19187,43.0,3,105,13.0,0.0
19188,31.0,45,105,14.0,0.0
19189,77.0,2,45,10.0,0.0
19190,62.0,3,45,11.0,0.0
19191,59.0,7,45,12.0,0.0
19192,77.0,2,45,10.0,0.0
19193,65.0,3,45,11.0,0.0
19194,62.0,55,45,12.0,0.0
19195,43.0,3,105,13.0,0.0
19196,31.0,45,105,14.0,0.0
19197,77.0,2,45,10.0,0.0
19198,65.0,3,45,11.0,0.0
19199,62.0,7,45,12.0,0.0
19200,77.0,2,45,10.0,0.0
19201,62.0,3,45,11.0,0.0
19202,59.0,55,45,12.0,0.0
19203,43.0,3,585,13.0,0.0
19204,31.0,3,585,14.0,0.0
19205,77.0,2,45,10.0,0.0
19206,62.0,3,45,11.0,0.0
19207,59.0,55,45,12.0,0.0
19208,74.0,2,45,10.0,0.0
19209,65.0,3,45,11.0,0.0
19210,62.0,55,45,12.0,0.0
19211,74.0,2,45,10.0,0.0
19212,65.0,3,45,11.0,0.0
19213,62.0,1,45,12.0,0.0
19214,76.0,2,45,10.0,0.0
19215,76.0,3,230,0.0,0.0
19216,72.0,0,230,0.0,0.0
19217,64.0,3,45,11.0,0.0
19218,64.0,3,240,7.0,0.0
19219,76.0,0,230,1.0,0.0
19220,72.0,2,230,1.0,0.0
19221,60.0,55,45,12.0,0.0
19222,60.0,0,230,2.0,0.0
19223,64.0,8,230,2.0,0.0
19224,60.0,38,240,7.0,0.0
19225,52.0,0,230,3.0,0.0
19226,48.0,0,230,3.0,0.0
19227,76.0,2,45,10.0,0.0
19228,64.0,3,45,11.0,0.0
19229,60.0,55,45,12.0,0.0
19230,72.0,2,45,10.0,0.0
19231,67.0,3,45,11.0,0.0
19232,64.0,55,45,12.0,0.0
19233,72.0,2,45,10.0,0.0
19234,67.0,3,45,11.0,0.0
19235,64.0,1,45,12.0,0.0
19236,77.0,2,45,10.0,0.0
19237,74.0,3,710,0.0,0.0
19238,77.0,0,710,0.0,0.0
19239,62.0,3,45,11.0,0.0
19240,55.0,5,120,6.0,0.0
19241,67.0,0,120,6.0,0.0
19242,77.0,2,710,1.0,0.0
19243,74.0,0,710,1.0,0.0
19244,65.0,3,720,7.0,0.0
19245,59.0,55,45,12.0,0.0
19246,62.0,0,710,2.0,0.0
19247,65.0,8,710,2.0,0.0
19248,62.0,38,720,7.0,0.0
19249,43.0,37,120,15.0,0.0
19250,50.0,0,710,3.0,0.0
19251,53.0,0,710,3.0,0.0
19252,77.0,2,45,10.0,0.0
19253,62.0,3,45,11.0,0.0
19254,59.0,7,45,12.0,0.0
19255,77.0,2,45,10.0,0.0
19256,65.0,3,45,11.0,0.0
19257,62.0,55,45,12.0,0.0
19258,43.0,3,105,13.0,0.0
19259,31.0,45,105,14.0,0.0
19260,77.0,2,45,10.0,0.0
19261,65.0,3,45,11.0,0.0
19262,62.0,7,45,12.0,0.0
19263,77.0,2,45,10.0,0.0
19264,62.0,3,45,11.0,0.0
19265,59.0,55,45,12.0,0.0
19266,43.0,3,105,13.0,0.0
19267,31.0,45,105,14.0,0.0
19268,77.0,2,45,10.0,0.0
19269,62.0,3,45,11.0,0.0
19270,59.0,7,45,12.0,0.0
19271,77.0,2,45,10.0,0.0
19272,65.0,3,45,11.0,0.0
19273,62.0,55,45,12.0,0.0
19274,43.0,3,105,13.0,0.0
19275,31.0,45,105,14.0,0.0
19276,77.0,2,45,10.0,0.0
19277,65.0,3,45,11.0,0.0
19278,62.0,7,45,12.0,0.0
19279,77.0,2,45,10.0,0.0
19280,62.0,3,45,11.0,0.0
19281,59.0,55,45,12.0,0.0
19282,43.0,3,705,13.0,0.0
19283,31.0,45,705,14.0,0.0
19284,77.0,2,45,10.0,0.0
19285,62.0,3,45,11.0,0.0
19286,59.0,55,45,12.0,0.0
19287,74.0,2,45,10.0,0.0
19288,65.0,3,45,11.0,0.0
19289,62.0,55,45,12.0,0.0
19290,74.0,2,45,10.0,0.0
19291,65.0,3,45,11.0,0.0
19292,62.0,1,45,12.0,0.0
19293,76.0,2,45,10.0,0.0
19294,76.0,0,230,0.0,0.0
19295,72.0,3,230,0.0,0.0
19296,64.0,3,45,11.0,0.0
19297,72.0,2,230,1.0,0.0
19298,64.0,0,240,7.0,0.0
19299,76.0,0,230,1.0,0.0
19300,60.0,55,45,12.0,0.0
19301,60.0,8,230,2.0,0.0
19302,64.0,0,230,2.0,0.0
19303,60.0,6,240,7.0,0.0
19304,48.0,3,230,3.0,0.0
19305,52.0,0,230,3.0,0.0
19306,76.0,2,45,10.0,0.0
19307,64.0,3,45,11.0,0.0
19308,60.0,55,45,12.0,0.0
19309,72.0,2,45,10.0,0.0
19310,67.0,3,45,11.0,0.0
19311,64.0,55,45,12.0,0.0
19312,72.0,2,45,10.0,0.0
19313,67.0,3,45,11.0,0.0
19314,64.0,1,45,12.0,0.0
19315,77.0,2,45,10.0,0.0
19316,74.0,0,350,0.0,0.0
19317,77.0,3,350,0.0,0.0
19318,65.0,3,45,11.0,0.0
19319,67.0,5,120,6.0,0.0
19320,55.0,0,120,6.0,0.0
19321,74.0,2,350,1.0,0.0
19322,77.0,0,350,1.0,0.0
19323,62.0,55,45,12.0,0.0
19324,65.0,0,350,2.0,0.0
19325,62.0,8,350,2.0,0.0
19326,43.0,37,120,15.0,0.0
19327,50.0,41,350,3.0,0.0
19328,53.0,0,350,3.0,0.0
19329,77.0,2,45,10.0,0.0
19330,65.0,3,45,11.0,0.0
19331,62.0,13,45,12.0,0.0
19332,77.0,2,45,10.0,0.0
19333,65.0,3,45,11.0,0.0
19334,62.0,55,45,12.0,0.0
19335,77.0,2,45,10.0,0.0
19336,65.0,3,45,11.0,0.0
19337,62.0,7,45,12.0,0.0
19338,77.0,2,45,10.0,0.0
19339,65.0,3,45,11.0,0.0
19340,62.0,55,45,12.0,0.0
19341,43.0,3,465,13.0,0.0
19342,31.0,45,465,14.0,0.0
19343,77.0,2,45,10.0,0.0
19344,65.0,3,45,11.0,0.0
19345,62.0,1,45,12.0,0.0
19346,77.0,2,45,10.0,0.0
19347,77.0,3,110,0.0,0.0
19348,74.0,0,110,0.0,0.0
19349,65.0,3,45,11.0,0.0
19350,77.0,0,110,1.0,0.0
19351,74.0,2,110,1.0,0.0
19352,62.0,55,45,12.0,0.0
19353,65.0,0,110,2.0,0.0
19354,62.0,8,110,2.0,0.0
19355,53.0,41,110,3.0,0.0
19356,50.0,0,110,3.0,0.0
19357,77.0,2,45,10.0,0.0
19358,65.0,3,45,11.0,0.0
19359,62.0,1,45,12.0,0.0
19360,78.0,2,45,10.0,0.0
19361,78.0,0,350,0.0,0.0
19362,75.0,3,350,0.0,0.0
19363,66.0,3,45,11.0,0.0
19364,67.0,0,120,6.0,0.0
19365,55.0,5,120,6.0,0.0
19366,75.0,0,350,1.0,0.0
19367,78.0,2,350,1.0,0.0
19368,63.0,55,45,12.0,0.0
19369,66.0,0,350,2.0,0.0
19370,63.0,8,350,2.0,0.0
19371,43.0,37,120,15.0,0.0
19372,51.0,41,350,3.0,0.0
19373,54.0,0,350,3.0,0.0
19374,78.0,2,45,10.0,0.0
19375,66.0,3,45,11.0,0.0
19376,63.0,13,45,12.0,0.0
19377,78.0,2,45,10.0,0.0
19378,66.0,3,45,11.0,0.0
19379,63.0,55,45,12.0,0.0
19380,78.0,2,45,10.0,0.0
19381,66.0,3,45,11.0,0.0
19382,63.0,7,45,12.0,0.0
19383,78.0,2,45,10.0,0.0
19384,66.0,3,45,11.0,0.0
19385,63.0,55,45,12.0,0.0
19386,43.0,3,465,13.0,0.0
19387,31.0,45,465,14.0,0.0
19388,78.0,2,45,10.0,0.0
19389,66.0,3,45,11.0,0.0
19390,63.0,1,45,12.0,0.0
19391,78.0,2,45,10.0,0.0
19392,75.0,0,110,0.0,0.0
19393,78.0,3,110,0.0,0.0
19394,66.0,3,45,11.0,0.0
19395,78.0,2,110,1.0,0.0
19396,75.0,0,110,1.0,0.0
19397,63.0,55,45,12.0,0.0
19398,66.0,0,110,2.0,0.0
19399,63.0,8,110,2.0,0.0
19400,54.0,41,110,3.0,0.0
19401,51.0,0,110,3.0,0.0
19402,78.0,2,45,10.0,0.0
19403,66.0,3,45,11.0,0.0
19404,63.0,1,45,12.0,0.0
19405,79.0,2,45,10.0,0.0
19406,79.0,3,350,0.0,0.0
19407,76.0,0,350,0.0,0.0
19408,67.0,3,45,11.0,0.0
19409,55.0,5,120,6.0,0.0
19410,67.0,0,120,6.0,0.0
19411,79.0,0,350,1.0,0.0
19412,76.0,2,350,1.0,0.0
19413,64.0,55,45,12.0,0.0
19414,64.0,0,350,2.0,0.0
19415,67.0,8,350,2.0,0.0
19416,43.0,37,120,15.0,0.0
19417,55.0,41,350,3.0,0.0
19418,52.0,0,350,3.0,0.0
19419,79.0,2,45,10.0,0.0
19420,67.0,3,45,11.0,0.0
19421,64.0,13,45,12.0,0.0
19422,79.0,2,45,10.0,0.0
19423,67.0,3,45,11.0,0.0
19424,64.0,55,45,12.0,0.0
19425,79.0,2,45,10.0,0.0
19426,67.0,3,45,11.0,0.0
19427,64.0,7,45,12.0,0.0
19428,79.0,2,45,10.0,0.0
19429,67.0,3,45,11.0,0.0
19430,64.0,55,45,12.0,0.0
19431,43.0,3,465,13.0,0.0
19432,31.0,45,465,14.0,0.0
19433,79.0,2,45,10.0,0.0
19434,67.0,3,45,11.0,0.0
19435,64.0,1,45,12.0,0.0
19436,79.0,2,45,10.0,0.0
19437,76.0,0,110,0.0,0.0
19438,79.0,3,110,0.0,0.0
19439,67.0,3,45,11.0,0.0
19440,76.0,0,110,1.0,0.0
19441,79.0,2,110,1.0,0.0
19442,64.0,55,45,12.0,0.0
19443,64.0,8,110,2.0,0.0
19444,67.0,0,110,2.0,0.0
19445,55.0,41,110,3.0,0.0
19446,52.0,0,110,3.0,0.0
19447,79.0,2,45,10.0,0.0
19448,67.0,3,45,11.0,0.0
19449,64.0,1,45,12.0,0.0
19450,80.0,2,45,10.0,0.0
19451,80.0,0,350,0.0,0.0
19452,76.0,3,350,0.0,0.0
19453,68.0,3,45,11.0,0.0
19454,67.0,5,120,6.0,0.0
19455,55.0,0,120,6.0,0.0
19456,76.0,0,350,1.0,0.0
19457,80.0,2,350,1.0,0.0
19458,64.0,55,45,12.0,0.0
19459,64.0,8,350,2.0,0.0
19460,68.0,0,350,2.0,0.0
19461,43.0,37,120,15.0,0.0
19462,56.0,0,350,3.0,0.0
19463,52.0,41,350,3.0,0.0
19464,80.0,2,45,10.0,0.0
19465,68.0,3,45,11.0,0.0
19466,64.0,13,45,12.0,0.0
19467,80.0,2,45,10.0,0.0
19468,68.0,3,45,11.0,0.0
19469,64.0,55,45,12.0,0.0
19470,80.0,2,45,10.0,0.0
19471,68.0,3,45,11.0,0.0
19472,64.0,7,45,12.0,0.0
19473,80.0,2,45,10.0,0.0
19474,68.0,3,45,11.0,0.0
19475,64.0,55,45,12.0,0.0
19476,43.0,3,465,13.0,0.0
19477,31.0,45,465,14.0,0.0
19478,80.0,2,45,10.0,0.0
19479,68.0,3,45,11.0,0.0
19480,64.0,1,45,12.0,0.0
19481,80.0,2,45,10.0,0.0
19482,76.0,0,110,0.0,0.0
19483,80.0,3,110,0.0,0.0
19484,68.0,3,45,11.0,0.0
19485,76.0,0,110,1.0,0.0
19486,80.0,2,110,1.0,0.0
19487,64.0,55,45,12.0,0.0
19488,68.0,8,110,2.0,0.0
19489,64.0,0,110,2.0,0.0
19490,56.0,41,110,3.0,0.0
19491,52.0,0,110,3.0,0.0
19492,80.0,2,45,10.0,0.0
19493,68.0,3,45,11.0,0.0
19494,64.0,1,45,12.0,0.0
19495,81.0,2,45,10.0,0.0
19496,77.0,3,350,0.0,0.0
19497,81.0,0,350,0.0,0.0
19498,69.0,3,45,11.0,0.0
19499,67.0,5,120,6.0,0.0
19500,55.0,0,120,6.0,0.0
19501,77.0,2,350,1.0,0.0
19502,81.0,0,350,1.0,0.0
19503,65.0,55,45,12.0,0.0
19504,69.0,8,350,2.0,0.0
19505,65.0,0,350,2.0,0.0
19506,43.0,37,120,15.0,0.0
19507,53.0,0,350,3.0,0.0
19508,57.0,41,350,3.0,0.0
19509,81.0,2,45,10.0,0.0
19510,69.0,3,45,11.0,0.0
19511,65.0,13,45,12.0,0.0
19512,81.0,2,45,10.0,0.0
19513,69.0,3,45,11.0,0.0
19514,65.0,55,45,12.0,0.0
19515,81.0,2,45,10.0,0.0
19516,69.0,3,45,11.0,0.0
19517,65.0,7,45,12.0,0.0
19518,81.0,2,45,10.0,0.0
19519,69.0,3,45,11.0,0.0
19520,65.0,55,45,12.0,0.0
19521,43.0,3,465,13.0,0.0
19522,31.0,45,465,14.0,0.0
19523,81.0,2,45,10.0,0.0
19524,69.0,3,45,11.0,0.0
19525,65.0,1,45,12.0,0.0
19526,81.0,2,45,10.0,0.0
19527,81.0,0,110,0.0,0.0
19528,77.0,3,110,0.0,0.0
19529,69.0,3,45,11.0,0.0
19530,81.0,2,110,1.0,0.0
19531,77.0,0,110,1.0,0.0
19532,65.0,55,45,12.0,0.0
19533,65.0,0,110,2.0,0.0
19534,69.0,8,110,2.0,0.0
19535,57.0,41,110,3.0,0.0
19536,53.0,0,110,3.0,0.0
19537,81.0,2,45,10.0,0.0
19538,69.0,3,45,11.0,0.0
19539,65.0,1,45,12.0,0.0
19540,82.0,2,45,10.0,0.0
19541,82.0,0,350,0.0,0.0
19542,79.0,3,350,0.0,0.0
19543,70.0,3,45,11.0,0.0
19544,67.0,5,120,6.0,0.0
19545,55.0,0,120,6.0,0.0
19546,79.0,0,350,1.0,0.0
19547,82.0,2,350,1.0,0.0
19548,67.0,55,45,12.0,0.0
19549,67.0,0,350,2.0,0.0
19550,70.0,8,350,2.0,0.0
19551,43.0,37,120,15.0,0.0
19552,58.0,0,350,3.0,0.0
19553,55.0,41,350,3.0,0.0
19554,82.0,2,45,10.0,0.0
19555,70.0,3,45,11.0,0.0
19556,67.0,13,45,12.0,0.0
19557,82.0,2,45,10.0,0.0
19558,70.0,3,45,11.0,0.0
19559,67.0,55,45,12.0,0.0
19560,82.0,2,45,10.0,0.0
19561,70.0,3,45,11.0,0.0
19562,67.0,7,45,12.0,0.0
19563,82.0,2,45,10.0,0.0
19564,70.0,3,45,11.0,0.0
19565,67.0,55,45,12.0,0.0
19566,43.0,3,465,13.0,0.0
19567,31.0,45,465,14.0,0.0
19568,82.0,2,45,10.0,0.0
19569,70.0,3,45,11.0,0.0
19570,67.0,1,45,12.0,0.0
19571,82.0,2,45,10.0,0.0
19572,79.0,0,110,0.0,0.0
19573,82.0,3,110,0.0,0.0
19574,70.0,3,45,11.0,0.0
19575,82.0,0,110,1.0,0.0
19576,79.0,2,110,1.0,0.0
19577,67.0,55,45,12.0,0.0
19578,67.0,8,110,2.0,0.0
19579,70.0,0,110,2.0,0.0
19580,55.0,0,110,3.0,0.0
19581,58.0,41,110,3.0,0.0
19582,82.0,2,45,10.0,0.0
19583,70.0,3,45,11.0,0.0
19584,67.0,1,45,12.0,0.0
19585,83.0,2,45,10.0,0.0
19586,83.0,0,350,0.0,0.0
19587,80.0,3,350,0.0,0.0
19588,71.0,3,45,11.0,0.0
19589,55.0,0,120,6.0,0.0
19590,67.0,5,120,6.0,0.0
19591,80.0,0,350,1.0,0.0
19592,83.0,2,350,1.0,0.0
19593,68.0,55,45,12.0,0.0
19594,68.0,8,350,2.0,0.0
19595,71.0,0,350,2.0,0.0
19596,43.0,37,120,15.0,0.0
19597,56.0,41,350,3.0,0.0
19598,59.0,0,350,3.0,0.0
19599,83.0,2,45,10.0,0.0
19600,71.0,3,45,11.0,0.0
19601,68.0,13,45,12.0,0.0
19602,83.0,2,45,10.0,0.0
19603,71.0,3,45,11.0,0.0
19604,68.0,55,45,12.0,0.0
19605,83.0,2,45,10.0,0.0
19606,71.0,3,45,11.0,0.0
19607,68.0,7,45,12.0,0.0
19608,83.0,2,45,10.0,0.0
19609,71.0,3,45,11.0,0.0
19610,68.0,55,45,12.0,0.0
19611,43.0,3,465,13.0,0.0
19612,31.0,45,465,14.0,0.0
19613,83.0,2,45,10.0,0.0
19614,71.0,3,45,11.0,0.0
19615,68.0,1,45,12.0,0.0
19616,83.0,2,45,10.0,0.0
19617,83.0,0,110,0.0,0.0
19618,80.0,3,110,0.0,0.0
19619,71.0,3,45,11.0,0.0
19620,83.0,0,110,1.0,0.0
19621,80.0,2,110,1.0,0.0
19622,68.0,55,45,12.0,0.0
19623,71.0,8,110,2.0,0.0
19624,68.0,0,110,2.0,0.0
19625,59.0,41,110,3.0,0.0
19626,56.0,0,110,3.0,0.0
19627,83.0,2,45,10.0,0.0
19628,71.0,3,45,11.0,0.0
19629,68.0,1,45,12.0,0.0
19630,84.0,2,45,10.0,0.0
19631,84.0,0,350,0.0,0.0
19632,81.0,3,350,0.0,0.0
19633,72.0,3,45,11.0,0.0
19634,67.0,5,120,6.0,0.0
19635,55.0,0,120,6.0,0.0
19636,84.0,2,350,1.0,0.0
19637,81.0,0,350,1.0,0.0
19638,69.0,55,45,12.0,0.0
19639,72.0,8,350,2.0,0.0
19640,69.0,0,350,2.0,0.0
19641,43.0,37,120,15.0,0.0
19642,60.0,0,350,3.0,0.0
19643,57.0,41,350,3.0,0.0
19644,84.0,2,45,10.0,0.0
19645,72.0,3,45,11.0,0.0
19646,69.0,13,45,12.0,0.0
19647,84.0,2,45,10.0,0.0
19648,72.0,3,45,11.0,0.0
19649,69.0,55,45,12.0,0.0
19650,84.0,2,45,10.0,0.0
19651,72.0,3,45,11.0,0.0
19652,69.0,7,45,12.0,0.0
19653,84.0,2,45,10.0,0.0
19654,72.0,3,45,11.0,0.0
19655,69.0,55,45,12.0,0.0
19656,43.0,3,345,13.0,0.0
19657,31.0,3,345,14.0,0.0
19658,84.0,2,45,10.0,0.0
19659,72.0,3,45,11.0,0.0
19660,69.0,1,45,12.0,0.0
19661,84.0,2,45,10.0,0.0
19662,84.0,0,110,0.0,0.0
19663,81.0,3,110,0.0,0.0
19664,72.0,3,45,11.0,0.0
19665,84.0,2,110,1.0,0.0
19666,81.0,0,110,1.0,0.0
19667,69.0,55,45,12.0,0.0
19668,69.0,8,110,2.0,0.0
19669,72.0,0,110,2.0,0.0
19670,60.0,0,110,3.0,0.0
19671,57.0,41,110,3.0,0.0
19672,84.0,2,45,10.0,0.0
19673,72.0,3,45,11.0,0.0
19674,69.0,1,45,12.0,0.0
19675,85.0,2,45,10.0,0.0
19676,85.0,0,230,0.0,0.0
19677,82.0,3,230,0.0,0.0
19678,73.0,3,45,11.0,0.0
19679,67.0,5,120,6.0,0.0
19680,55.0,0,120,6.0,0.0
19681,73.0,2,230,1.0,0.0
19682,70.0,55,45,12.0,0.0
19683,73.0,8,230,2.0,0.0
19684,70.0,0,230,2.0,0.0
19685,43.0,37,120,15.0,0.0
19686,58.0,0,230,3.0,0.0
19687,61.0,41,230,3.0,0.0
19688,85.0,2,45,10.0,0.0
19689,73.0,3,45,11.0,0.0
19690,70.0,7,45,12.0,0.0
19691,85.0,2,45,10.0,0.0
19692,73.0,3,45,11.0,0.0
19693,70.0,55,45,12.0,0.0
19694,43.0,3,225,13.0,0.0
19695,31.0,3,225,14.0,0.0
19696,85.0,2,45,10.0,0.0
19697,73.0,3,45,11.0,0.0
19698,70.0,1,45,12.0,0.0
19699,86.0,2,45,10.0,0.0
19700,86.0,0,230,0.0,0.0
19701,83.0,3,230,0.0,0.0
19702,74.0,3,45,11.0,0.0
19703,67.0,5,120,6.0,0.0
19704,55.0,0,120,6.0,0.0
19705,74.0,2,230,1.0,0.0
19706,71.0,55,45,12.0,0.0
19707,74.0,0,230,2.0,0.0
19708,71.0,8,230,2.0,0.0
19709,43.0,37,120,15.0,0.0
19710,59.0,0,230,3.0,0.0
19711,62.0,41,230,3.0,0.0
19712,86.0,2,45,10.0,0.0
19713,74.0,3,45,11.0,0.0
19714,71.0,7,45,12.0,0.0
19715,86.0,2,45,10.0,0.0
19716,74.0,3,45,11.0,0.0
19717,71.0,55,45,12.0,0.0
19718,43.0,3,225,13.0,0.0
19719,31.0,3,225,14.0,0.0
19720,86.0,2,45,10.0,0.0
19721,74.0,3,45,11.0,0.0
19722,71.0,1,45,12.0,0.0
19723,87.0,2,45,10.0,0.0
19724,84.0,3,230,0.0,0.0
19725,87.0,0,230,0.0,0.0
19726,75.0,3,45,11.0,0.0
19727,60.0,0,120,6.0,0.0
19728,72.0,5,120,6.0,0.0
19729,75.0,2,230,1.0,0.0
19730,72.0,55,45,12.0,0.0
19731,72.0,0,230,2.0,0.0
19732,75.0,8,230,2.0,0.0
19733,48.0,37,120,15.0,0.0
19734,60.0,0,230,3.0,0.0
19735,63.0,41,230,3.0,0.0
19736,87.0,2,45,10.0,0.0
19737,75.0,3,45,11.0,0.0
19738,72.0,7,45,12.0,0.0
19739,87.0,2,45,10.0,0.0
19740,75.0,3,45,11.0,0.0
19741,72.0,55,45,12.0,0.0
19742,48.0,3,225,13.0,0.0
19743,36.0,3,225,14.0,0.0
19744,87.0,2,45,10.0,0.0
19745,75.0,3,45,11.0,0.0
19746,72.0,1,45,12.0,0.0
19747,88.0,2,45,10.0,0.0
19748,85.0,0,230,0.0,0.0
19749,88.0,3,230,0.0,0.0
19750,76.0,3,45,11.0,0.0
19751,60.0,0,120,6.0,0.0
19752,72.0,5,120,6.0,0.0
19753,76.0,2,230,1.0,0.0
19754,61.0,55,45,12.0,0.0
19755,73.0,8,230,2.0,0.0
19756,76.0,0,230,2.0,0.0
19757,48.0,37,120,15.0,0.0
19758,64.0,41,230,3.0,0.0
19759,61.0,0,230,3.0,0.0
19760,88.0,2,45,10.0,0.0
19761,76.0,3,45,11.0,0.0
19762,61.0,7,45,12.0,0.0
19763,88.0,2,45,10.0,0.0
19764,76.0,3,45,11.0,0.0
19765,61.0,55,45,12.0,0.0
19766,48.0,3,225,13.0,0.0
19767,36.0,3,225,14.0,0.0
19768,88.0,2,45,10.0,0.0
19769,76.0,3,45,11.0,0.0
19770,61.0,1,45,12.0,0.0
19771,89.0,2,45,10.0,0.0
19772,89.0,0,230,0.0,0.0
19773,86.0,3,230,0.0,0.0
19774,77.0,3,45,11.0,0.0
19775,72.0,5,120,6.0,0.0
19776,60.0,0,120,6.0,0.0
19777,77.0,2,230,1.0,0.0
19778,62.0,55,45,12.0,0.0
19779,74.0,8,230,2.0,0.0
19780,77.0,0,230,2.0,0.0
19781,48.0,37,120,15.0,0.0
19782,62.0,0,230,3.0,0.0
19783,65.0,41,230,3.0,0.0
19784,89.0,2,45,10.0,0.0
19785,77.0,3,45,11.0,0.0
19786,62.0,7,45,12.0,0.0
19787,89.0,2,45,10.0,0.0
19788,77.0,3,45,11.0,0.0
19789,62.0,55,45,12.0,0.0
19790,48.0,3,225,13.0,0.0
19791,36.0,3,225,14.0,0.0
19792,89.0,2,45,10.0,0.0
19793,77.0,3,45,11.0,0.0
19794,62.0,1,45,12.0,0.0
19795,90.0,2,45,10.0,0.0
19796,87.0,0,230,0.0,0.0
19797,90.0,3,230,0.0,0.0
19798,78.0,3,45,11.0,0.0
19799,72.0,5,120,6.0,0.0
19800,60.0,0,120,6.0,0.0
19801,78.0,2,230,1.0,0.0
19802,63.0,55,45,12.0,0.0
19803,78.0,0,230,2.0,0.0
19804,75.0,8,230,2.0,0.0
19805,48.0,37,120,15.0,0.0
19806,66.0,41,230,3.0,0.0
19807,63.0,0,230,3.0,0.0
19808,90.0,2,45,10.0,0.0
19809,78.0,3,45,11.0,0.0
19810,63.0,7,45,12.0,0.0
19811,90.0,2,45,10.0,0.0
19812,78.0,3,45,11.0,0.0
19813,63.0,55,45,12.0,0.0
19814,48.0,3,225,13.0,0.0
19815,36.0,3,225,14.0,0.0
19816,90.0,2,45,10.0,0.0
19817,78.0,3,45,11.0,0.0
19818,63.0,1,45,12.0,0.0
19819,91.0,2,45,10.0,0.0
19820,88.0,3,230,0.0,0.0
19821,91.0,0,230,0.0,0.0
19822,79.0,3,45,11.0,0.0
19823,72.0,5,120,6.0,0.0
19824,60.0,0,120,6.0,0.0
19825,79.0,2,230,1.0,0.0
19826,64.0,55,45,12.0,0.0
19827,79.0,8,230,2.0,0.0
19828,76.0,0,230,2.0,0.0
19829,48.0,37,120,15.0,0.0
19830,64.0,0,230,3.0,0.0
19831,67.0,41,230,3.0,0.0
19832,91.0,2,45,10.0,0.0
19833,79.0,3,45,11.0,0.0
19834,64.0,7,45,12.0,0.0
19835,91.0,2,45,10.0,0.0
19836,79.0,3,45,11.0,0.0
19837,64.0,55,45,12.0,0.0
19838,48.0,3,225,13.0,0.0
19839,36.0,3,225,14.0,0.0
19840,91.0,2,45,10.0,0.0
19841,79.0,3,45,11.0,0.0
19842,64.0,1,45,12.0,0.0
19843,92.0,2,45,10.0,0.0
19844,88.0,3,230,0.0,0.0
19845,92.0,0,230,0.0,0.0
19846,80.0,3,45,11.0,0.0
19847,72.0,0,120,6.0,0.0
19848,60.0,5,120,6.0,0.0
19849,80.0,2,230,1.0,0.0
19850,64.0,55,45,12.0,0.0
19851,76.0,1,230,2.0,0.0
19852,72.0,0,230,2.0,0.0
19853,48.0,37,120,15.0,0.0
19854,60.0,0,230,3.0,0.0
19855,64.0,41,230,3.0,0.0
19856,92.0,2,45,10.0,0.0
19857,80.0,3,45,11.0,0.0
19858,64.0,7,45,12.0,0.0
19859,92.0,2,45,10.0,0.0
19860,80.0,3,45,11.0,0.0
19861,64.0,55,45,12.0,0.0
19862,48.0,3,105,13.0,0.0
19863,36.0,4,105,14.0,0.0
19864,92.0,2,45,10.0,0.0
19865,80.0,3,45,11.0,0.0
19866,64.0,1,45,12.0,0.0
19867,93.0,2,45,10.0,0.0
19868,93.0,2,1910,0.0,0.0
19869,87.0,5,950,0.0,0.0
19870,81.0,3,45,11.0,0.0
19871,60.0,1,1910,6.0,0.0
19872,72.0,0,1910,6.0,0.0
19873,84.0,0,1910,1.0,0.0
19874,63.0,4,960,7.0,0.0
19875,48.0,2,1910,4.0,0.0
19876,81.0,0,1910,1.0,0.0
19877,60.0,0,1910,4.0,0.0
19878,60.0,18,45,12.0,0.0
19879,72.0,0,1910,2.0,0.0
19880,48.0,0,1910,5.0,0.0
19881,75.0,1,950,2.0,0.0
19882,60.0,1,1910,5.0,0.0
19883,60.0,1,1920,7.0,0.0
19884,48.0,37,60,15.0,0.0
19885,42.0,3,345,13.0,0.0
19886,54.0,32,480,8.0,0.0
19887,54.0,4,470,3.0,0.0
19888,63.0,0,950,3.0,0.0
19889,42.0,8,345,14.0,0.0
19890,93.0,2,45,10.0,0.0
19891,81.0,3,45,11.0,0.0
19892,60.0,18,45,12.0,0.0
19893,93.0,2,45,10.0,0.0
19894,81.0,3,45,11.0,0.0
19895,60.0,18,45,12.0,0.0
19896,48.0,37,0,15.0,0.0
19897,93.0,2,45,10.0,0.0
19898,81.0,3,45,11.0,0.0
19899,60.0,18,45,12.0,0.0
19900,93.0,2,45,10.0,0.0
19901,84.0,3,45,11.0,0.0
19902,63.0,18,45,12.0,0.0
19903,48.0,37,0,15.0,0.0
19904,93.0,2,45,10.0,0.0
19905,84.0,3,45,11.0,0.0
19906,63.0,7,45,12.0,0.0
19907,48.0,37,60,15.0,0.0
19908,93.0,2,45,10.0,0.0
19909,81.0,3,45,11.0,0.0
19910,60.0,18,45,12.0,0.0
19911,42.0,3,105,13.0,0.0
19912,42.0,4,105,14.0,0.0
19913,93.0,2,45,10.0,0.0
19914,81.0,3,45,11.0,0.0
19915,60.0,7,45,12.0,0.0
19916,48.0,37,0,15.0,0.0
19917,93.0,2,45,10.0,0.0
19918,84.0,3,45,11.0,0.0
19919,63.0,18,45,12.0,0.0
19920,48.0,5,0,15.0,0.0
19921,41.0,3,345,13.0,0.0
19922,53.0,1,480,8.0,0.0
19923,53.0,31,480,3.0,0.0
19924,41.0,8,345,14.0,0.0
19925,93.0,2,45,10.0,0.0
19926,84.0,3,45,11.0,0.0
19927,63.0,18,45,12.0,0.0
19928,48.0,37,0,15.0,0.0
19929,93.0,2,45,10.0,0.0
19930,81.0,3,45,11.0,0.0
19931,60.0,18,45,12.0,0.0
19932,48.0,37,60,15.0,0.0
19933,93.0,2,45,10.0,0.0
19934,81.0,3,45,11.0,0.0
19935,60.0,18,45,12.0,0.0
19936,48.0,37,60,15.0,0.0
19937,93.0,2,45,10.0,0.0
19938,84.0,3,45,11.0,0.0
19939,63.0,18,45,12.0,0.0
19940,93.0,2,45,10.0,0.0
19941,84.0,3,45,11.0,0.0
19942,63.0,7,45,12.0,0.0
19943,48.0,37,0,15.0,0.0
19944,93.0,2,45,10.0,0.0
19945,81.0,3,45,11.0,0.0
19946,60.0,18,45,12.0,0.0
19947,48.0,37,0,15.0,0.0
19948,41.0,3,105,13.0,0.0
19949,41.0,4,105,14.0,0.0
19950,93.0,2,45,10.0,0.0
19951,81.0,3,45,11.0,0.0
19952,60.0,1,45,12.0,0.0
19953,93.0,2,45,10.0,0.0
19954,88.0,3,480,0.0,0.0
19955,84.0,3,45,11.0,0.0
19956,64.0,2,480,7.0,0.0
19957,64.0,18,45,12.0,0.0
19958,76.0,2,480,2.0,0.0
19959,48.0,5,0,15.0,0.0
19960,40.0,3,345,13.0,0.0
19961,52.0,1,480,8.0,0.0
19962,52.0,31,480,3.0,0.0
19963,64.0,0,480,3.0,0.0
19964,40.0,8,345,14.0,0.0
19965,93.0,2,45,10.0,0.0
19966,84.0,3,45,11.0,0.0
19967,64.0,18,45,12.0,0.0
19968,93.0,2,45,10.0,0.0
19969,81.0,3,45,11.0,0.0
19970,60.0,18,45,12.0,0.0
19971,48.0,37,0,15.0,0.0
19972,93.0,2,45,10.0,0.0
19973,81.0,3,45,11.0,0.0
19974,60.0,18,45,12.0,0.0
19975,48.0,37,60,15.0,0.0
19976,93.0,2,45,10.0,0.0
19977,84.0,3,45,11.0,0.0
19978,64.0,18,45,12.0,0.0
19979,48.0,37,60,15.0,0.0
19980,93.0,2,45,10.0,0.0
19981,84.0,3,45,11.0,0.0
19982,64.0,7,45,12.0,0.0
19983,48.0,37,60,15.0,0.0
19984,93.0,2,45,10.0,0.0
19985,81.0,3,45,11.0,0.0
19986,60.0,18,45,12.0,0.0
19987,48.0,37,60,15.0,0.0
19988,40.0,3,105,13.0,0.0
19989,40.0,1,105,14.0,0.0
19990,93.0,2,45,10.0,0.0
19991,81.0,3,45,11.0,0.0
19992,60.0,7,45,12.0,0.0
19993,48.0,5,60,15.0,0.0
19994,93.0,2,45,10.0,0.0
19995,89.0,0,470,0.0,0.0
19996,84.0,3,45,11.0,0.0
19997,65.0,18,45,12.0,0.0
19998,48.0,37,60,15.0,0.0
19999,38.0,3,345,13.0,0.0
20000,50.0,1,480,8.0,0.0
20001,65.0,0,480,3.0,0.0
20002,50.0,31,480,3.0,0.0
20003,38.0,8,345,14.0,0.0
20004,93.0,2,45,10.0,0.0
20005,84.0,3,45,11.0,0.0
20006,65.0,18,45,12.0,0.0
20007,48.0,37,60,15.0,0.0
20008,93.0,2,45,10.0,0.0
20009,81.0,3,45,11.0,0.0
20010,60.0,18,45,12.0,0.0
20011,48.0,37,60,15.0,0.0
20012,93.0,2,45,10.0,0.0
20013,81.0,3,45,11.0,0.0
20014,60.0,18,45,12.0,0.0
20015,48.0,37,60,15.0,0.0
20016,93.0,2,45,10.0,0.0
20017,84.0,3,45,11.0,0.0
20018,65.0,18,45,12.0,0.0
20019,48.0,37,60,15.0,0.0
20020,93.0,2,45,10.0,0.0
20021,84.0,3,45,11.0,0.0
20022,65.0,7,45,12.0,0.0
20023,93.0,2,45,10.0,0.0
20024,81.0,3,45,11.0,0.0
20025,60.0,18,45,12.0,0.0
20026,48.0,37,0,15.0,0.0
20027,38.0,3,105,13.0,0.0
20028,38.0,4,105,14.0,0.0
20029,93.0,2,45,10.0,0.0
20030,81.0,3,45,11.0,0.0
20031,60.0,1,45,12.0,0.0
20032,48.0,5,60,15.0,0.0
20033,92.0,2,45,10.0,0.0
20034,92.0,3,1440,0.0,0.0
20035,89.0,3,1920,0.0,0.0
20036,80.0,1,45,11.0,0.0
20037,71.0,0,45,11.0,0.0
20038,55.0,1,1910,6.0,0.0
20039,67.0,0,1910,6.0,0.0
20040,65.0,2,0,7.0,0.0
20041,80.0,4,1440,1.0,0.0
20042,83.0,0,1920,1.0,0.0
20043,55.0,0,1910,4.0,0.0
20044,62.0,2,1910,4.0,0.0
20045,65.0,0,45,12.0,0.0
20046,62.0,38,45,12.0,0.0
20047,55.0,0,1910,5.0,0.0
20048,62.0,1,1910,5.0,0.0
20049,71.0,0,1920,2.0,0.0
20050,77.0,1,0,2.0,0.0
20051,59.0,1,1920,7.0,0.0
20052,43.0,2,105,13.0,0.0
20053,43.0,32,1920,8.0,0.0
20054,43.0,1,105,3.0,0.0
20055,31.0,8,105,14.0,0.0
20056,43.0,2,0,15.0,0.0
20057,92.0,2,45,10.0,0.0
20058,80.0,3,45,11.0,0.0
20059,71.0,0,45,11.0,0.0
20060,62.0,0,45,12.0,0.0
20061,65.0,7,45,12.0,0.0
20062,92.0,2,45,10.0,0.0
20063,71.0,0,45,11.0,0.0
20064,80.0,1,45,11.0,0.0
20065,65.0,38,45,12.0,0.0
20066,62.0,0,45,12.0,0.0
20067,43.0,37,0,15.0,0.0
20068,43.0,2,105,13.0,0.0
20069,43.0,1,105,3.0,0.0
20070,31.0,8,105,14.0,0.0
20071,43.0,17,40,15.0,0.0
20072,92.0,2,45,10.0,0.0
20073,71.0,0,45,11.0,0.0
20074,80.0,3,45,11.0,0.0
20075,62.0,0,45,12.0,0.0
20076,65.0,7,45,12.0,0.0
20077,43.0,37,40,15.0,0.0
20078,92.0,2,45,10.0,0.0
20079,80.0,0,45,11.0,0.0
20080,71.0,1,45,11.0,0.0
20081,62.0,0,45,12.0,0.0
20082,65.0,38,45,12.0,0.0
20083,43.0,2,40,15.0,0.0
20084,47.0,2,105,13.0,0.0
20085,47.0,1,105,3.0,0.0
20086,35.0,8,105,14.0,0.0
20087,92.0,2,45,10.0,0.0
20088,80.0,3,45,11.0,0.0
20089,71.0,0,45,11.0,0.0
20090,62.0,0,45,12.0,0.0
20091,65.0,7,45,12.0,0.0
20092,43.0,17,0,15.0,0.0
20093,92.0,2,45,10.0,0.0
20094,71.0,0,45,11.0,0.0
20095,80.0,1,45,11.0,0.0
20096,62.0,38,45,12.0,0.0
20097,65.0,0,45,12.0,0.0
20098,50.0,2,105,13.0,0.0
20099,50.0,1,105,3.0,0.0
20100,38.0,8,105,14.0,0.0
20101,43.0,2,0,15.0,0.0
20102,92.0,2,45,10.0,0.0
20103,80.0,0,45,11.0,0.0
20104,71.0,3,45,11.0,0.0
20105,65.0,7,45,12.0,0.0
20106,62.0,0,45,12.0,0.0
20107,92.0,2,45,10.0,0.0
20108,80.0,1,45,11.0,0.0
20109,71.0,0,45,11.0,0.0
20110,65.0,38,45,12.0,0.0
20111,62.0,0,45,12.0,0.0
20112,43.0,37,0,15.0,0.0
20113,53.0,2,105,13.0,0.0
20114,53.0,1,105,3.0,0.0
20115,41.0,8,105,14.0,0.0
20116,43.0,2,0,15.0,0.0
20117,92.0,2,45,10.0,0.0
20118,71.0,3,45,11.0,0.0
20119,80.0,0,45,11.0,0.0
20120,62.0,7,45,12.0,0.0
20121,65.0,0,45,12.0,0.0
20122,92.0,2,45,10.0,0.0
20123,80.0,1,45,11.0,0.0
20124,71.0,0,45,11.0,0.0
20125,65.0,38,45,12.0,0.0
20126,62.0,0,45,12.0,0.0
20127,43.0,37,0,15.0,0.0
20128,55.0,2,105,13.0,0.0
20129,55.0,1,105,3.0,0.0
20130,43.0,8,105,14.0,0.0
20131,43.0,2,0,15.0,0.0
20132,92.0,2,45,10.0,0.0
20133,71.0,3,45,11.0,0.0
20134,80.0,0,45,11.0,0.0
20135,65.0,7,45,12.0,0.0
20136,62.0,0,45,12.0,0.0
20137,43.0,17,0,15.0,0.0
20138,92.0,2,45,10.0,0.0
20139,80.0,1,45,11.0,0.0
20140,71.0,0,45,11.0,0.0
20141,62.0,0,45,12.0,0.0
20142,65.0,38,45,12.0,0.0
20143,43.0,37,0,15.0,0.0
20144,59.0,2,105,13.0,0.0
20145,59.0,1,105,3.0,0.0
20146,47.0,8,105,14.0,0.0
20147,92.0,2,45,10.0,0.0
20148,80.0,3,45,11.0,0.0
20149,71.0,0,45,11.0,0.0
20150,62.0,0,45,12.0,0.0
20151,65.0,7,45,12.0,0.0
20152,43.0,17,0,15.0,0.0
20153,92.0,2,45,10.0,0.0
20154,80.0,0,45,11.0,0.0
20155,71.0,1,45,11.0,0.0
20156,62.0,38,45,12.0,0.0
20157,65.0,0,45,12.0,0.0
20158,43.0,2,40,15.0,0.0
20159,62.0,2,105,13.0,0.0
20160,62.0,1,105,3.0,0.0
20161,50.0,8,105,14.0,0.0
20162,43.0,17,40,15.0,0.0
20163,92.0,2,45,10.0,0.0
20164,71.0,3,45,11.0,0.0
20165,80.0,0,45,11.0,0.0
20166,65.0,0,45,12.0,0.0
20167,62.0,7,45,12.0,0.0
20168,92.0,2,45,10.0,0.0
20169,80.0,0,45,11.0,0.0
20170,71.0,1,45,11.0,0.0
20171,62.0,38,45,12.0,0.0
20172,65.0,0,45,12.0,0.0
20173,43.0,37,0,15.0,0.0
20174,65.0,2,105,13.0,0.0
20175,65.0,1,105,3.0,0.0
20176,53.0,8,105,14.0,0.0
20177,43.0,2,0,15.0,0.0
20178,92.0,2,45,10.0,0.0
20179,80.0,3,45,11.0,0.0
20180,71.0,0,45,11.0,0.0
20181,65.0,0,45,12.0,0.0
20182,62.0,7,45,12.0,0.0
20183,43.0,17,0,15.0,0.0
20184,92.0,2,45,10.0,0.0
20185,80.0,0,45,11.0,0.0
20186,71.0,1,45,11.0,0.0
20187,65.0,0,45,12.0,0.0
20188,62.0,38,45,12.0,0.0
20189,62.0,2,105,13.0,0.0
20190,62.0,1,105,3.0,0.0
20191,50.0,8,105,14.0,0.0
20192,43.0,2,0,15.0,0.0
20193,92.0,2,45,10.0,0.0
20194,71.0,0,45,11.0,0.0
20195,80.0,3,45,11.0,0.0
20196,65.0,0,45,12.0,0.0
20197,62.0,7,45,12.0,0.0
20198,92.0,2,45,10.0,0.0
20199,71.0,1,45,11.0,0.0
20200,80.0,0,45,11.0,0.0
20201,62.0,38,45,12.0,0.0
20202,65.0,0,45,12.0,0.0
20203,43.0,37,0,15.0,0.0
20204,59.0,2,105,13.0,0.0
20205,59.0,1,105,3.0,0.0
20206,47.0,8,105,14.0,0.0
20207,43.0,2,0,15.0,0.0
20208,92.0,2,45,10.0,0.0
20209,71.0,3,45,11.0,0.0
20210,80.0,0,45,11.0,0.0
20211,62.0,0,45,12.0,0.0
20212,65.0,7,45,12.0,0.0
20213,43.0,37,40,15.0,0.0
20214,92.0,2,45,10.0,0.0
20215,80.0,1,45,11.0,0.0
20216,71.0,0,45,11.0,0.0
20217,65.0,38,45,12.0,0.0
20218,62.0,0,45,12.0,0.0
20219,55.0,2,105,13.0,0.0
20220,55.0,1,105,3.0,0.0
20221,43.0,1,105,14.0,0.0
20222,43.0,2,0,15.0,0.0
20223,92.0,2,45,10.0,0.0
20224,80.0,3,45,11.0,0.0
20225,71.0,0,45,11.0,0.0
20226,65.0,0,45,12.0,0.0
20227,62.0,7,45,12.0,0.0
20228,43.0,17,0,15.0,0.0
20229,91.0,2,45,10.0,0.0
20230,91.0,0,480,0.0,0.0
20231,77.0,1,45,11.0,0.0
20232,71.0,0,45,11.0,0.0
20233,79.0,0,480,1.0,0.0
20234,65.0,38,45,12.0,0.0
20235,67.0,0,45,12.0,0.0
20236,43.0,37,0,15.0,0.0
20237,53.0,2,105,13.0,0.0
20238,53.0,1,105,3.0,0.0
20239,41.0,8,105,14.0,0.0
20240,43.0,2,0,15.0,0.0
20241,91.0,2,45,10.0,0.0
20242,71.0,3,45,11.0,0.0
20243,77.0,0,45,11.0,0.0
20244,65.0,7,45,12.0,0.0
20245,67.0,0,45,12.0,0.0
20246,43.0,17,0,15.0,0.0
20247,91.0,2,45,10.0,0.0
20248,71.0,0,45,11.0,0.0
20249,77.0,1,45,11.0,0.0
20250,67.0,0,45,12.0,0.0
20251,65.0,38,45,12.0,0.0
20252,43.0,37,0,15.0,0.0
20253,50.0,2,105,13.0,0.0
20254,50.0,1,105,3.0,0.0
20255,38.0,8,105,14.0,0.0
20256,43.0,17,40,15.0,0.0
20257,91.0,2,45,10.0,0.0
20258,71.0,0,45,11.0,0.0
20259,77.0,3,45,11.0,0.0
20260,65.0,7,45,12.0,0.0
20261,67.0,0,45,12.0,0.0
20262,91.0,2,45,10.0,0.0
20263,77.0,1,45,11.0,0.0
20264,71.0,0,45,11.0,0.0
20265,67.0,38,45,12.0,0.0
20266,65.0,0,45,12.0,0.0
20267,43.0,37,0,15.0,0.0
20268,47.0,2,105,13.0,0.0
20269,47.0,1,105,3.0,0.0
20270,35.0,8,105,14.0,0.0
20271,91.0,2,45,10.0,0.0
20272,71.0,0,45,11.0,0.0
20273,77.0,3,45,11.0,0.0
20274,65.0,0,45,12.0,0.0
20275,67.0,7,45,12.0,0.0
20276,43.0,17,0,15.0,0.0
20277,91.0,2,45,10.0,0.0
20278,71.0,0,45,11.0,0.0
20279,77.0,1,45,11.0,0.0
20280,65.0,38,45,12.0,0.0
20281,67.0,0,45,12.0,0.0
20282,43.0,37,0,15.0,0.0
20283,43.0,2,105,13.0,0.0
20284,43.0,1,105,3.0,0.0
20285,31.0,1,105,14.0,0.0
20286,43.0,17,40,15.0,0.0
20287,91.0,2,45,10.0,0.0
20288,77.0,3,45,11.0,0.0
20289,71.0,0,45,11.0,0.0
20290,67.0,3,45,12.0,0.0
20291,65.0,0,45,12.0,0.0
20292,43.0,5,40,15.0,0.0
20293,84.0,2,45,10.0,0.0
20294,84.0,3,110,0.0,0.0
20295,72.0,3,45,11.0,0.0
20296,72.0,0,120,6.0,0.0
20297,60.0,1,120,6.0,0.0
20298,60.0,0,120,4.0,0.0
20299,52.0,0,120,4.0,0.0
20300,84.0,2,110,1.0,0.0
20301,64.0,2,120,7.0,0.0
20302,64.0,55,45,12.0,0.0
20303,67.0,0,45,12.0,0.0
20304,60.0,0,120,5.0,0.0
20305,52.0,1,120,5.0,0.0
20306,72.0,0,110,2.0,0.0
20307,76.0,7,110,2.0,0.0
20308,60.0,1,120,7.0,0.0
20309,48.0,4,120,15.0,0.0
20310,48.0,1,120,13.0,0.0
20311,48.0,2,120,8.0,0.0
20312,48.0,0,110,3.0,0.0
20313,36.0,30,120,14.0,0.0
20314,84.0,2,45,10.0,0.0
20315,72.0,3,45,11.0,0.0
20316,64.0,1,45,12.0,0.0
20317,67.0,0,45,12.0,0.0
20318,88.0,2,45,10.0,0.0
20319,88.0,3,230,0.0,0.0
20320,76.0,0,230,0.0,0.0
20321,76.0,3,45,11.0,0.0
20322,76.0,2,230,1.0,0.0
20323,55.0,55,45,12.0,0.0
20324,60.0,0,45,12.0,0.0
20325,76.0,0,230,2.0,0.0
20326,64.0,8,230,2.0,0.0
20327,64.0,41,230,3.0,0.0
20328,88.0,2,45,10.0,0.0
20329,76.0,3,45,11.0,0.0
20330,55.0,0,45,12.0,0.0
20331,60.0,55,45,12.0,0.0
20332,88.0,2,45,10.0,0.0
20333,76.0,3,45,11.0,0.0
20334,64.0,0,45,12.0,0.0
20335,60.0,55,45,12.0,0.0
20336,88.0,2,45,10.0,0.0
20337,76.0,3,45,11.0,0.0
20338,60.0,0,45,12.0,0.0
20339,64.0,1,45,12.0,0.0
20340,91.0,2,45,10.0,0.0
20341,79.0,3,110,0.0,0.0
20342,91.0,0,110,0.0,0.0
20343,79.0,3,45,11.0,0.0
20344,79.0,2,110,1.0,0.0
20345,55.0,0,45,12.0,0.0
20346,60.0,55,45,12.0,0.0
20347,67.0,8,110,2.0,0.0
20348,79.0,0,110,2.0,0.0
20349,67.0,41,110,3.0,0.0
20350,91.0,2,45,10.0,0.0
20351,79.0,3,45,11.0,0.0
20352,60.0,0,45,12.0,0.0
20353,55.0,1,45,12.0,0.0
20354,93.0,2,45,10.0,0.0
20355,81.0,3,350,0.0,0.0
20356,93.0,0,350,0.0,0.0
20357,81.0,3,45,11.0,0.0
20358,81.0,2,350,1.0,0.0
20359,60.0,55,45,12.0,0.0
20360,64.0,0,45,12.0,0.0
20361,81.0,8,350,2.0,0.0
20362,69.0,0,350,2.0,0.0
20363,69.0,41,350,3.0,0.0
20364,93.0,2,45,10.0,0.0
20365,81.0,3,45,11.0,0.0
20366,64.0,0,45,12.0,0.0
20367,60.0,55,45,12.0,0.0
20368,93.0,2,45,10.0,0.0
20369,81.0,3,45,11.0,0.0
20370,60.0,55,45,12.0,0.0
20371,55.0,0,45,12.0,0.0
20372,93.0,2,45,10.0,0.0
20373,81.0,3,45,11.0,0.0
20374,60.0,0,45,12.0,0.0
20375,55.0,55,45,12.0,0.0
20376,93.0,2,45,10.0,0.0
20377,81.0,3,45,11.0,0.0
20378,60.0,55,45,12.0,0.0
20379,64.0,0,45,12.0,0.0
20380,93.0,2,45,10.0,0.0
20381,81.0,3,45,11.0,0.0
20382,64.0,0,45,12.0,0.0
20383,60.0,1,45,12.0,0.0
20384,91.0,2,45,10.0,0.0
20385,91.0,3,110,0.0,0.0
20386,79.0,0,110,0.0,0.0
20387,79.0,3,45,11.0,0.0
20388,79.0,2,110,1.0,0.0
20389,60.0,55,45,12.0,0.0
20390,55.0,0,45,12.0,0.0
20391,79.0,1,110,2.0,0.0
20392,67.0,0,110,2.0,0.0
20393,48.0,3,105,13.0,0.0
20394,67.0,41,110,3.0,0.0
20395,36.0,4,105,14.0,0.0
20396,91.0,2,45,10.0,0.0
20397,79.0,3,45,11.0,0.0
20398,60.0,0,45,12.0,0.0
20399,55.0,1,45,12.0,0.0
20400,86.0,2,45,10.0,0.0
20401,74.0,3,110,0.0,0.0
20402,86.0,0,110,0.0,0.0
20403,74.0,3,45,11.0,0.0
20404,67.0,0,120,6.0,0.0
20405,55.0,1,120,6.0,0.0
20406,55.0,2,120,4.0,0.0
20407,65.0,0,120,7.0,0.0
20408,74.0,2,110,1.0,0.0
20409,62.0,0,120,4.0,0.0
20410,65.0,0,45,12.0,0.0
20411,62.0,55,45,12.0,0.0
20412,55.0,0,120,5.0,0.0
20413,62.0,1,120,5.0,0.0
20414,74.0,0,110,2.0,0.0
20415,62.0,7,110,2.0,0.0
20416,62.0,1,120,7.0,0.0
20417,43.0,4,120,15.0,0.0
20418,43.0,1,120,13.0,0.0
20419,43.0,2,120,8.0,0.0
20420,62.0,0,110,3.0,0.0
20421,31.0,30,120,14.0,0.0
20422,86.0,2,45,10.0,0.0
20423,74.0,3,45,11.0,0.0
20424,62.0,1,45,12.0,0.0
20425,65.0,0,45,12.0,0.0
20426,89.0,2,45,10.0,0.0
20427,77.0,0,230,0.0,0.0
20428,89.0,3,230,0.0,0.0
20429,77.0,3,45,11.0,0.0
20430,77.0,2,230,1.0,0.0
20431,62.0,55,45,12.0,0.0
20432,55.0,0,45,12.0,0.0
20433,77.0,8,230,2.0,0.0
20434,65.0,0,230,2.0,0.0
20435,65.0,41,230,3.0,0.0
20436,89.0,2,45,10.0,0.0
20437,77.0,3,45,11.0,0.0
20438,55.0,0,45,12.0,0.0
20439,62.0,55,45,12.0,0.0
20440,89.0,2,45,10.0,0.0
20441,77.0,3,45,11.0,0.0
20442,65.0,0,45,12.0,0.0
20443,62.0,55,45,12.0,0.0
20444,89.0,2,45,10.0,0.0
20445,77.0,3,45,11.0,0.0
20446,62.0,1,45,12.0,0.0
20447,65.0,0,45,12.0,0.0
20448,91.0,2,45,10.0,0.0
20449,79.0,0,110,0.0,0.0
20450,91.0,3,110,0.0,0.0
20451,79.0,3,45,11.0,0.0
20452,79.0,2,110,1.0,0.0
20453,62.0,0,45,12.0,0.0
20454,55.0,55,45,12.0,0.0
20455,79.0,0,110,2.0,0.0
20456,67.0,8,110,2.0,0.0
20457,67.0,41,110,3.0,0.0
20458,91.0,2,45,10.0,0.0
20459,79.0,3,45,11.0,0.0
20460,55.0,0,45,12.0,0.0
20461,62.0,1,45,12.0,0.0
20462,93.0,2,45,10.0,0.0
20463,81.0,3,350,0.0,0.0
20464,93.0,0,350,0.0,0.0
20465,81.0,3,45,11.0,0.0
20466,81.0,2,350,1.0,0.0
20467,62.0,55,45,12.0,0.0
20468,65.0,0,45,12.0,0.0
20469,81.0,0,350,2.0,0.0
20470,69.0,8,350,2.0,0.0
20471,69.0,41,350,3.0,0.0
20472,93.0,2,45,10.0,0.0
20473,81.0,3,45,11.0,0.0
20474,65.0,55,45,12.0,0.0
20475,62.0,0,45,12.0,0.0
20476,93.0,2,45,10.0,0.0
20477,81.0,3,45,11.0,0.0
20478,55.0,55,45,12.0,0.0
20479,62.0,0,45,12.0,0.0
20480,93.0,2,45,10.0,0.0
20481,81.0,3,45,11.0,0.0
20482,62.0,55,45,12.0,0.0
20483,55.0,0,45,12.0,0.0
20484,93.0,2,45,10.0,0.0
20485,81.0,3,45,11.0,0.0
20486,65.0,0,45,12.0,0.0
20487,62.0,55,45,12.0,0.0
20488,93.0,2,45,10.0,0.0
20489,81.0,3,45,11.0,0.0
20490,62.0,0,45,12.0,0.0
20491,65.0,1,45,12.0,0.0
20492,91.0,2,45,10.0,0.0
20493,79.0,0,110,0.0,0.0
20494,91.0,3,110,0.0,0.0
20495,79.0,3,45,11.0,0.0
20496,79.0,2,110,1.0,0.0
20497,55.0,0,45,12.0,0.0
20498,62.0,55,45,12.0,0.0
20499,67.0,0,110,2.0,0.0
20500,79.0,1,110,2.0,0.0
20501,43.0,3,105,13.0,0.0
20502,67.0,41,110,3.0,0.0
20503,31.0,4,105,14.0,0.0
20504,91.0,2,45,10.0,0.0
20505,79.0,3,45,11.0,0.0
20506,62.0,0,45,12.0,0.0
20507,55.0,1,45,12.0,0.0
20508,84.0,2,45,10.0,0.0
20509,72.0,2,120,0.0,0.0
20510,84.0,0,120,0.0,0.0
20511,72.0,3,45,11.0,0.0
20512,60.0,1,120,6.0,0.0
20513,72.0,0,120,6.0,0.0
20514,64.0,0,120,7.0,0.0
20515,72.0,2,120,1.0,0.0
20516,52.0,0,120,4.0,0.0
20517,60.0,0,120,4.0,0.0
20518,60.0,0,45,12.0,0.0
20519,64.0,55,45,12.0,0.0
20520,60.0,1,120,2.0,0.0
20521,52.0,0,120,5.0,0.0
20522,72.0,0,120,2.0,0.0
20523,60.0,0,120,5.0,0.0
20524,60.0,1,120,7.0,0.0
20525,48.0,4,120,15.0,0.0
20526,48.0,1,120,13.0,0.0
20527,48.0,1,120,8.0,0.0
20528,60.0,1,120,3.0,0.0
20529,36.0,30,120,14.0,0.0
20530,84.0,2,45,10.0,0.0
20531,72.0,3,45,11.0,0.0
20532,60.0,11,45,12.0,0.0
20533,64.0,0,45,12.0,0.0
20534,88.0,2,45,10.0,0.0
20535,76.0,3,110,0.0,0.0
20536,88.0,0,110,0.0,0.0
20537,76.0,3,45,11.0,0.0
20538,76.0,2,110,1.0,0.0
20539,60.0,0,45,12.0,0.0
20540,55.0,55,45,12.0,0.0
20541,76.0,0,110,2.0,0.0
20542,64.0,8,110,2.0,0.0
20543,64.0,41,110,3.0,0.0
20544,88.0,2,45,10.0,0.0
20545,76.0,3,45,11.0,0.0
20546,60.0,1,45,12.0,0.0
20547,55.0,0,45,12.0,0.0
20548,91.0,2,45,10.0,0.0
20549,79.0,3,60,0.0,0.0
20550,91.0,0,60,0.0,0.0
20551,79.0,3,45,11.0,0.0
20552,79.0,2,60,1.0,0.0
20553,64.0,11,45,12.0,0.0
20554,60.0,0,45,12.0,0.0
20555,67.0,8,60,2.0,0.0
20556,79.0,0,60,2.0,0.0
20557,67.0,31,60,3.0,0.0
20558,91.0,2,45,10.0,0.0
20559,79.0,3,45,11.0,0.0
20560,64.0,55,45,12.0,0.0
20561,60.0,0,45,12.0,0.0
20562,91.0,2,45,10.0,0.0
20563,91.0,0,60,0.0,0.0
20564,79.0,3,60,0.0,0.0
20565,79.0,3,45,11.0,0.0
20566,79.0,2,60,1.0,0.0
20567,60.0,11,45,12.0,0.0
20568,55.0,0,45,12.0,0.0
20569,79.0,0,60,2.0,0.0
20570,67.0,8,60,2.0,0.0
20571,67.0,31,60,3.0,0.0
20572,91.0,2,45,10.0,0.0
20573,79.0,3,45,11.0,0.0
20574,55.0,55,45,12.0,0.0
20575,60.0,0,45,12.0,0.0
20576,93.0,2,45,10.0,0.0
20577,93.0,0,120,0.0,0.0
20578,81.0,3,120,0.0,0.0
20579,81.0,3,45,11.0,0.0
20580,81.0,2,120,1.0,0.0
20581,64.0,55,45,12.0,0.0
20582,60.0,0,45,12.0,0.0
20583,69.0,0,120,2.0,0.0
20584,81.0,8,120,2.0,0.0
20585,69.0,31,120,3.0,0.0
20586,93.0,2,45,10.0,0.0
20587,81.0,3,45,11.0,0.0
20588,60.0,0,45,12.0,0.0
20589,64.0,11,45,12.0,0.0
20590,91.0,2,45,10.0,0.0
20591,79.0,0,110,0.0,0.0
20592,91.0,3,110,0.0,0.0
20593,79.0,3,45,11.0,0.0
20594,79.0,2,110,1.0,0.0
20595,60.0,55,45,12.0,0.0
20596,55.0,0,45,12.0,0.0
20597,79.0,0,110,2.0,0.0
20598,67.0,8,110,2.0,0.0
20599,67.0,41,110,3.0,0.0
20600,91.0,2,45,10.0,0.0
20601,79.0,3,45,11.0,0.0
20602,60.0,0,45,12.0,0.0
20603,55.0,1,45,12.0,0.0
20604,91.0,2,45,10.0,0.0
20605,79.0,3,60,0.0,0.0
20606,91.0,0,60,0.0,0.0
20607,79.0,3,45,11.0,0.0
20608,79.0,2,60,1.0,0.0
20609,60.0,11,45,12.0,0.0
20610,64.0,0,45,12.0,0.0
20611,79.0,8,60,2.0,0.0
20612,67.0,0,60,2.0,0.0
20613,67.0,31,60,3.0,0.0
20614,91.0,2,45,10.0,0.0
20615,79.0,3,45,11.0,0.0
20616,60.0,55,45,12.0,0.0
20617,64.0,0,45,12.0,0.0
20618,91.0,2,45,10.0,0.0
20619,91.0,3,60,0.0,0.0
20620,79.0,0,60,0.0,0.0
20621,79.0,3,45,11.0,0.0
20622,79.0,2,60,1.0,0.0
20623,60.0,11,45,12.0,0.0
20624,55.0,0,45,12.0,0.0
20625,79.0,8,60,2.0,0.0
20626,67.0,0,60,2.0,0.0
20627,48.0,3,105,13.0,0.0
20628,67.0,31,60,3.0,0.0
20629,36.0,45,105,14.0,0.0
20630,91.0,2,45,10.0,0.0
20631,79.0,3,45,11.0,0.0
20632,55.0,0,45,12.0,0.0
20633,60.0,7,45,12.0,0.0
20634,86.0,2,45,10.0,0.0
20635,83.0,0,120,0.0,0.0
20636,71.0,2,120,0.0,0.0
20637,74.0,3,45,11.0,0.0
20638,55.0,1,120,6.0,0.0
20639,67.0,0,120,6.0,0.0
20640,71.0,0,120,1.0,0.0
20641,55.0,0,120,4.0,0.0
20642,67.0,2,120,4.0,0.0
20643,65.0,0,120,7.0,0.0
20644,65.0,0,45,12.0,0.0
20645,62.0,55,45,12.0,0.0
20646,71.0,1,120,2.0,0.0
20647,55.0,0,120,5.0,0.0
20648,59.0,0,120,2.0,0.0
20649,67.0,0,120,5.0,0.0
20650,62.0,1,120,7.0,0.0
20651,43.0,4,120,15.0,0.0
20652,43.0,1,120,13.0,0.0
20653,43.0,1,120,8.0,0.0
20654,59.0,1,120,3.0,0.0
20655,31.0,30,120,14.0,0.0
20656,86.0,2,45,10.0,0.0
20657,74.0,3,45,11.0,0.0
20658,65.0,11,45,12.0,0.0
20659,62.0,0,45,12.0,0.0
20660,89.0,2,45,10.0,0.0
20661,86.0,3,110,0.0,0.0
20662,74.0,0,110,0.0,0.0
20663,77.0,3,45,11.0,0.0
20664,74.0,2,110,1.0,0.0
20665,62.0,0,45,12.0,0.0
20666,55.0,55,45,12.0,0.0
20667,74.0,8,110,2.0,0.0
20668,62.0,0,110,2.0,0.0
20669,62.0,41,110,3.0,0.0
20670,89.0,2,45,10.0,0.0
20671,77.0,3,45,11.0,0.0
20672,62.0,1,45,12.0,0.0
20673,55.0,0,45,12.0,0.0
20674,91.0,2,45,10.0,0.0
20675,79.0,0,60,0.0,0.0
20676,91.0,3,60,0.0,0.0
20677,79.0,3,45,11.0,0.0
20678,79.0,2,60,1.0,0.0
20679,62.0,11,45,12.0,0.0
20680,65.0,0,45,12.0,0.0
20681,67.0,8,60,2.0,0.0
20682,79.0,0,60,2.0,0.0
20683,67.0,31,60,3.0,0.0
20684,91.0,2,45,10.0,0.0
20685,79.0,3,45,11.0,0.0
20686,62.0,55,45,12.0,0.0
20687,65.0,0,45,12.0,0.0
20688,91.0,2,45,10.0,0.0
20689,79.0,0,60,0.0,0.0
20690,91.0,3,60,0.0,0.0
20691,79.0,3,45,11.0,0.0
20692,79.0,2,60,1.0,0.0
20693,55.0,0,45,12.0,0.0
20694,62.0,11,45,12.0,0.0
20695,67.0,8,60,2.0,0.0
20696,79.0,0,60,2.0,0.0
20697,67.0,31,60,3.0,0.0
20698,91.0,2,45,10.0,0.0
20699,79.0,3,45,11.0,0.0
20700,55.0,55,45,12.0,0.0
20701,62.0,0,45,12.0,0.0
20702,93.0,2,45,10.0,0.0
20703,93.0,0,120,0.0,0.0
20704,81.0,3,120,0.0,0.0
20705,81.0,3,45,11.0,0.0
20706,81.0,2,120,1.0,0.0
20707,65.0,0,45,12.0,0.0
20708,62.0,55,45,12.0,0.0
20709,69.0,0,120,2.0,0.0
20710,81.0,8,120,2.0,0.0
20711,69.0,31,120,3.0,0.0
20712,93.0,2,45,10.0,0.0
20713,81.0,3,45,11.0,0.0
20714,65.0,11,45,12.0,0.0
20715,62.0,0,45,12.0,0.0
20716,91.0,2,45,10.0,0.0
20717,91.0,3,110,0.0,0.0
20718,79.0,0,110,0.0,0.0
20719,79.0,3,45,11.0,0.0
20720,79.0,2,110,1.0,0.0
20721,62.0,55,45,12.0,0.0
20722,55.0,0,45,12.0,0.0
20723,67.0,0,110,2.0,0.0
20724,79.0,8,110,2.0,0.0
20725,67.0,41,110,3.0,0.0
20726,91.0,2,45,10.0,0.0
20727,79.0,3,45,11.0,0.0
20728,62.0,1,45,12.0,0.0
20729,55.0,0,45,12.0,0.0
20730,91.0,2,45,10.0,0.0
20731,79.0,3,60,0.0,0.0
20732,91.0,0,60,0.0,0.0
20733,79.0,3,45,11.0,0.0
20734,79.0,2,60,1.0,0.0
20735,65.0,11,45,12.0,0.0
20736,62.0,0,45,12.0,0.0
20737,79.0,0,60,2.0,0.0
20738,67.0,8,60,2.0,0.0
20739,67.0,31,60,3.0,0.0
20740,91.0,2,45,10.0,0.0
20741,79.0,3,45,11.0,0.0
20742,65.0,55,45,12.0,0.0
20743,62.0,0,45,12.0,0.0
20744,91.0,2,45,10.0,0.0
20745,91.0,0,60,0.0,0.0
20746,79.0,3,60,0.0,0.0
20747,79.0,3,45,11.0,0.0
20748,67.0,4,110,6.0,0.0
20749,55.0,0,110,6.0,0.0
20750,79.0,2,60,1.0,0.0
20751,55.0,11,45,12.0,0.0
20752,62.0,0,45,12.0,0.0
20753,79.0,8,60,2.0,0.0
20754,67.0,0,60,2.0,0.0
20755,43.0,3,105,13.0,0.0
20756,67.0,31,60,3.0,0.0
20757,31.0,8,105,14.0,0.0
20758,91.0,2,45,10.0,0.0
20759,79.0,3,45,11.0,0.0
20760,55.0,3,45,12.0,0.0
20761,62.0,0,45,12.0,0.0
20762,91.0,2,45,10.0,0.0
20763,91.0,1,2040,0.0,0.0
20764,79.0,3,45,11.0,0.0
20765,67.0,0,1550,6.0,0.0
20766,79.0,4,1550,6.0,0.0
20767,79.0,1,2040,1.0,0.0
20768,55.0,0,2030,4.0,0.0
20769,67.0,2,2030,4.0,0.0
20770,43.0,37,3,15.0,0.0
20771,64.0,0,45,12.0,0.0
20772,60.0,39,45,12.0,0.0
20773,79.0,1,2040,2.0,0.0
20774,67.0,0,2040,2.0,0.0
20775,67.0,0,2030,5.0,0.0
20776,55.0,4,2030,5.0,0.0
20777,48.0,3,105,13.0,0.0
20778,67.0,1,2040,3.0,0.0
20779,36.0,6,105,14.0,0.0
20780,91.0,2,45,10.0,0.0
20781,91.0,3,45,11.0,0.0
20782,79.0,7,45,12.0,0.0
20783,43.0,16,3,15.0,0.0
20784,91.0,2,45,10.0,0.0
20785,91.0,3,45,11.0,0.0
20786,79.0,1,45,12.0,0.0
20787,67.0,3,105,13.0,0.0
20788,55.0,8,105,14.0,0.0
20789,43.0,38,2,15.0,0.0
20790,91.0,2,45,10.0,0.0
20791,91.0,3,45,11.0,0.0
20792,79.0,7,45,12.0,0.0
20793,43.0,16,1,15.0,0.0
20794,91.0,2,45,10.0,0.0
20795,91.0,3,45,11.0,0.0
20796,79.0,42,45,12.0,0.0
20797,43.0,37,1,15.0,0.0
20798,67.0,3,105,13.0,0.0
20799,55.0,11,105,14.0,0.0
20800,91.0,2,45,10.0,0.0
20801,91.0,3,45,11.0,0.0
20802,79.0,7,45,12.0,0.0
20803,43.0,13,1,15.0,0.0
20804,91.0,2,45,10.0,0.0
20805,91.0,3,45,11.0,0.0
20806,79.0,36,45,12.0,0.0
20807,43.0,34,1,15.0,0.0
20808,67.0,3,105,13.0,0.0
20809,55.0,11,105,14.0,0.0
20810,43.0,0,4,15.0,0.0
20811,91.0,2,45,10.0,0.0
20812,91.0,3,45,11.0,0.0
20813,79.0,7,45,12.0,0.0
20814,91.0,2,45,10.0,0.0
20815,91.0,3,45,11.0,0.0
20816,79.0,0,45,12.0,0.0
20817,43.0,34,1,15.0,0.0
20818,67.0,3,105,13.0,0.0
20819,55.0,7,105,14.0,0.0
20820,43.0,39,1,15.0,0.0
20821,91.0,2,45,10.0,0.0
20822,91.0,3,45,11.0,0.0
20823,79.0,7,45,12.0,0.0
20824,43.0,16,2,15.0,0.0
20825,88.0,2,45,10.0,0.0
20826,88.0,3,45,11.0,0.0
20827,76.0,35,45,12.0,0.0
20828,43.0,38,2,15.0,0.0
20829,64.0,3,105,13.0,0.0
20830,52.0,7,105,14.0,0.0
20831,43.0,20,40,15.0,0.0
20832,88.0,2,45,10.0,0.0
20833,88.0,3,45,11.0,0.0
20834,76.0,7,45,12.0,0.0
20835,84.0,1,45,10.0,0.0
20836,84.0,3,45,11.0,0.0
20837,72.0,36,45,12.0,0.0
20838,43.0,38,1,15.0,0.0
20839,60.0,3,105,13.0,0.0
20840,48.0,12,105,14.0,0.0
20841,43.0,19,40,15.0,0.0
20842,84.0,2,45,10.0,0.0
20843,84.0,3,45,11.0,0.0
20844,72.0,7,45,12.0,0.0
20845,79.0,2,45,10.0,0.0
20846,79.0,1,45,11.0,0.0
20847,67.0,35,45,12.0,0.0
20848,43.0,33,4,15.0,0.0
20849,55.0,3,105,13.0,0.0
20850,43.0,5,105,14.0,0.0
20851,43.0,2,3,15.0,0.0
20852,79.0,2,45,10.0,0.0
20853,79.0,3,45,11.0,0.0
20854,67.0,7,45,12.0,0.0
20855,76.0,0,45,10.0,0.0
20856,76.0,3,45,11.0,0.0
20857,43.0,40,0,15.0,0.0
20858,64.0,38,45,12.0,0.0
20859,52.0,3,105,13.0,0.0
20860,40.0,9,105,14.0,0.0
20861,43.0,17,40,15.0,0.0
20862,76.0,2,45,10.0,0.0
20863,76.0,3,45,11.0,0.0
20864,64.0,7,45,12.0,0.0
20865,72.0,2,45,10.0,0.0
20866,72.0,2,45,11.0,0.0
20867,60.0,39,45,12.0,0.0
20868,43.0,36,0,15.0,0.0
20869,48.0,3,105,13.0,0.0
20870,36.0,9,105,14.0,0.0
20871,43.0,16,40,15.0,0.0
20872,72.0,2,45,10.0,0.0
20873,72.0,3,45,11.0,0.0
20874,60.0,7,45,12.0,0.0
20875,67.0,1,45,10.0,0.0
20876,67.0,3,45,11.0,0.0
20877,55.0,40,45,12.0,0.0
20878,43.0,36,3,15.0,0.0
20879,43.0,3,105,13.0,0.0
20880,31.0,8,105,14.0,0.0
20881,67.0,2,45,10.0,0.0
20882,67.0,3,45,11.0,0.0
20883,55.0,7,45,12.0,0.0
20884,43.0,15,2,15.0,0.0
20885,64.0,2,45,10.0,0.0
20886,64.0,0,45,11.0,0.0
20887,52.0,35,45,12.0,0.0
20888,43.0,37,1,15.0,0.0
20889,40.0,3,105,13.0,0.0
20890,40.0,9,105,14.0,0.0
20891,43.0,3,2,15.0,0.0
20892,64.0,2,45,10.0,0.0
20893,64.0,3,45,11.0,0.0
20894,52.0,7,45,12.0,0.0
20895,43.0,36,40,15.0,0.0
20896,60.0,2,45,10.0,0.0
20897,60.0,3,45,11.0,0.0
20898,48.0,1,45,12.0,0.0
20899,36.0,3,105,13.0,0.0
20900,36.0,9,105,14.0,0.0
20901,43.0,40,0,15.0,0.0
20902,60.0,2,45,10.0,0.0
20903,60.0,3,45,11.0,0.0
20904,48.0,3,45,12.0,0.0
20905,43.0,14,2,15.0,0.0
20906,55.0,2,45,10.0,0.0
20907,55.0,3,45,11.0,0.0
20908,64.0,4,110,6.0,0.0
20909,76.0,0,110,6.0,0.0
20910,55.0,42,45,12.0,0.0
20911,43.0,36,2,15.0,0.0
20912,43.0,3,105,13.0,0.0
20913,31.0,10,105,14.0,0.0
20914,55.0,2,45,10.0,0.0
20915,55.0,3,45,11.0,0.0
20916,55.0,3,45,12.0,0.0
20917,43.0,13,2,15.0,0.0
20918,60.0,2,45,10.0,0.0
20919,60.0,3,45,11.0,0.0
20920,60.0,0,55,6.0,0.0
20921,72.0,34,55,6.0,0.0
20922,48.0,2,45,12.0,0.0
20923,48.0,3,105,13.0,0.0
20924,36.0,9,105,14.0,0.0
20925,43.0,6,0,15.0,0.0
20926,60.0,2,45,10.0,0.0
20927,60.0,3,45,11.0,0.0
20928,48.0,7,45,12.0,0.0
20929,43.0,13,3,15.0,0.0
20930,55.0,1,45,10.0,0.0
20931,55.0,3,45,11.0,0.0
20932,67.0,0,55,6.0,0.0
20933,55.0,30,55,6.0,0.0
20934,55.0,8,45,12.0,0.0
20935,43.0,36,3,15.0,0.0
20936,43.0,3,105,13.0,0.0
20937,31.0,6,105,14.0,0.0
20938,55.0,2,45,10.0,0.0
20939,55.0,3,45,11.0,0.0
20940,55.0,7,45,12.0,0.0
20941,43.0,17,2,15.0,0.0
20942,60.0,1,120,10.0,0.0
20943,60.0,1,120,11.0,0.0
20944,60.0,1,120,6.0,0.0
20945,72.0,0,120,6.0,0.0
20946,64.0,0,120,7.0,0.0
20947,48.0,1,120,12.0,0.0
20948,60.0,1,120,7.0,0.0
20949,48.0,4,120,15.0,0.0
20950,48.0,1,120,13.0,0.0
20951,48.0,1,120,8.0,0.0
20952,36.0,96,120,14.0,0.0
20953,88.0,3,110,0.0,0.0
20954,76.0,2,110,1.0,0.0
20955,64.0,0,110,4.0,0.0
20956,64.0,8,110,2.0,0.0
20957,64.0,0,110,5.0,0.0
20958,76.0,0,110,2.0,0.0
20959,64.0,57,110,3.0,0.0
20960,84.0,3,60,0.0,0.0
20961,60.0,0,60,4.0,0.0
20962,72.0,2,60,1.0,0.0
20963,60.0,0,60,5.0,0.0
20964,60.0,8,60,2.0,0.0
20965,72.0,0,60,2.0,0.0
20966,60.0,107,60,3.0,0.0
20967,79.0,3,60,0.0,0.0
20968,55.0,0,60,4.0,0.0
20969,67.0,2,60,1.0,0.0
20970,67.0,0,60,2.0,0.0
20971,55.0,0,60,2.0,0.0
20972,55.0,8,60,5.0,0.0
20973,55.0,167,60,3.0,0.0
20974,88.0,3,120,0.0,0.0
20975,64.0,0,120,4.0,0.0
20976,76.0,2,120,1.0,0.0
20977,64.0,8,120,2.0,0.0
20978,76.0,0,120,2.0,0.0
20979,64.0,0,120,5.0,0.0
20980,64.0,97,120,3.0,0.0
20981,84.0,3,110,0.0,0.0
20982,60.0,2,110,4.0,0.0
20983,72.0,0,110,1.0,0.0
20984,60.0,0,110,2.0,0.0
20985,72.0,0,110,2.0,0.0
20986,60.0,8,110,5.0,0.0
20987,60.0,57,110,3.0,0.0
20988,79.0,3,60,0.0,0.0
20989,67.0,0,60,1.0,0.0
20990,55.0,2,60,4.0,0.0
20991,55.0,8,60,2.0,0.0
20992,67.0,0,60,2.0,0.0
20993,55.0,0,60,5.0,0.0
20994,55.0,107,60,3.0,0.0
20995,76.0,3,60,0.0,0.0
20996,64.0,0,60,1.0,0.0
20997,52.0,2,60,4.0,0.0
20998,52.0,0,60,5.0,0.0
20999,52.0,8,60,2.0,0.0
21000,64.0,0,60,2.0,0.0
21001,52.0,166,60,3.0,0.0
21002,84.0,0,120,10.0,0.0
21003,67.0,0,120,10.0,0.0
21004,76.0,1,120,10.0,0.0
21005,60.0,0,120,10.0,0.0
21006,84.0,1,120,0.0,0.0
21007,60.0,0,120,11.0,0.0
21008,67.0,0,120,11.0,0.0
21009,84.0,1,120,11.0,0.0
21010,76.0,0,120,11.0,0.0
21011,72.0,1,120,6.0,0.0
21012,60.0,0,120,6.0,0.0
21013,64.0,0,120,7.0,0.0
21014,60.0,0,120,4.0,0.0
21015,72.0,1,120,1.0,0.0
21016,72.0,0,120,12.0,0.0
21017,64.0,0,120,12.0,0.0
21018,55.0,0,120,12.0,0.0
21019,48.0,1,120,12.0,0.0
21020,60.0,0,120,2.0,0.0
21021,72.0,0,120,2.0,0.0
21022,60.0,1,120,5.0,0.0
21023,60.0,1,120,7.0,0.0
21024,48.0,4,120,15.0,0.0
21025,48.0,1,120,13.0,0.0
21026,48.0,1,120,8.0,0.0
21027,60.0,1,120,3.0,0.0
21028,36.0,96,120,14.0,0.0
21029,79.0,3,110,0.0,0.0
21030,55.0,2,110,4.0,0.0
21031,67.0,0,110,1.0,0.0
21032,55.0,8,110,5.0,0.0
21033,67.0,0,110,2.0,0.0
21034,79.0,0,110,2.0,0.0
21035,55.0,57,110,3.0,0.0
21036,76.0,3,60,0.0,0.0
21037,64.0,2,60,1.0,0.0
21038,52.0,0,60,4.0,0.0
21039,64.0,0,60,2.0,0.0
21040,52.0,8,60,5.0,0.0
21041,76.0,0,60,2.0,0.0
21042,52.0,107,60,3.0,0.0
21043,72.0,3,60,0.0,0.0
21044,48.0,0,60,4.0,0.0
21045,60.0,2,60,1.0,0.0
21046,72.0,8,60,2.0,0.0
21047,48.0,0,60,5.0,0.0
21048,60.0,0,60,2.0,0.0
21049,48.0,167,60,3.0,0.0
21050,88.0,3,120,0.0,0.0
21051,76.0,2,120,1.0,0.0
21052,76.0,8,120,2.0,0.0
21053,64.0,97,120,3.0,0.0
21054,84.0,3,110,0.0,0.0
21055,72.0,2,110,1.0,0.0
21056,72.0,8,110,2.0,0.0
21057,60.0,57,110,3.0,0.0
21058,79.0,3,60,0.0,0.0
21059,67.0,2,60,1.0,0.0
21060,67.0,8,60,2.0,0.0
21061,55.0,107,60,3.0,0.0
21062,76.0,3,60,0.0,0.0
21063,64.0,2,60,1.0,0.0
21064,64.0,8,60,2.0,0.0
21065,52.0,166,60,3.0,0.0
21066,60.0,0,120,10.0,0.0
21067,84.0,0,120,10.0,0.0
21068,67.0,1,120,10.0,0.0
21069,76.0,0,120,10.0,0.0
21070,84.0,1,120,0.0,0.0
21071,84.0,0,120,11.0,0.0
21072,76.0,0,120,11.0,0.0
21073,60.0,1,120,11.0,0.0
21074,67.0,0,120,11.0,0.0
21075,72.0,0,120,6.0,0.0
21076,60.0,1,120,6.0,0.0
21077,64.0,0,120,7.0,0.0
21078,72.0,1,120,1.0,0.0
21079,64.0,0,120,4.0,0.0
21080,67.0,0,120,4.0,0.0
21081,48.0,0,120,12.0,0.0
21082,72.0,1,120,12.0,0.0
21083,55.0,0,120,12.0,0.0
21084,64.0,0,120,12.0,0.0
21085,60.0,0,120,5.0,0.0
21086,52.0,1,120,5.0,0.0
21087,72.0,0,120,2.0,0.0
21088,60.0,1,120,7.0,0.0
21089,48.0,4,120,15.0,0.0
21090,48.0,1,120,13.0,0.0
21091,48.0,1,120,8.0,0.0
21092,60.0,1,120,3.0,0.0
21093,36.0,96,120,14.0,0.0
21094,79.0,3,110,0.0,0.0
21095,67.0,2,110,1.0,0.0
21096,67.0,8,110,2.0,0.0
21097,55.0,57,110,3.0,0.0
21098,76.0,3,60,0.0,0.0
21099,64.0,2,60,1.0,0.0
21100,64.0,8,60,2.0,0.0
21101,52.0,107,60,3.0,0.0
21102,72.0,3,60,0.0,0.0
21103,60.0,2,60,1.0,0.0
21104,60.0,8,60,2.0,0.0
21105,48.0,167,60,3.0,0.0
21106,88.0,3,120,0.0,0.0
21107,76.0,2,120,1.0,0.0
21108,76.0,8,120,2.0,0.0
21109,64.0,97,120,3.0,0.0
21110,84.0,3,110,0.0,0.0
21111,72.0,2,110,1.0,0.0
21112,72.0,8,110,2.0,0.0
21113,60.0,57,110,3.0,0.0
21114,79.0,3,60,0.0,0.0
21115,67.0,2,60,1.0,0.0
21116,67.0,8,60,2.0,0.0
21117,55.0,107,60,3.0,0.0
21118,76.0,3,60,0.0,0.0
21119,64.0,2,60,1.0,0.0
21120,64.0,8,60,2.0,0.0
21121,52.0,166,60,3.0,0.0
21122,76.0,0,120,10.0,0.0
21123,60.0,0,120,10.0,0.0
21124,67.0,0,120,10.0,0.0
21125,84.0,1,120,10.0,0.0
21126,84.0,1,120,0.0,0.0
21127,88.0,0,120,0.0,0.0
21128,84.0,0,120,11.0,0.0
21129,60.0,0,120,11.0,0.0
21130,67.0,0,120,11.0,0.0
21131,76.0,1,120,11.0,0.0
21132,72.0,1,120,6.0,0.0
21133,60.0,0,120,6.0,0.0
21134,64.0,0,120,4.0,0.0
21135,67.0,0,120,4.0,0.0
21136,64.0,0,120,7.0,0.0
21137,84.0,0,120,1.0,0.0
21138,76.0,1,120,1.0,0.0
21139,48.0,0,120,12.0,0.0
21140,64.0,0,120,12.0,0.0
21141,55.0,0,120,12.0,0.0
21142,72.0,1,120,12.0,0.0
21143,72.0,1,120,2.0,0.0
21144,52.0,0,120,5.0,0.0
21145,60.0,0,120,5.0,0.0
21146,64.0,0,120,2.0,0.0
21147,60.0,1,120,7.0,0.0
21148,48.0,4,120,15.0,0.0
21149,48.0,1,120,13.0,0.0
21150,48.0,1,120,8.0,0.0
21151,48.0,1,120,3.0,0.0
21152,36.0,465,120,14.0,0.0
21153,76.0,0,120,10.0,0.0
21154,84.0,1,120,10.0,0.0
21155,67.0,0,120,10.0,0.0
21156,60.0,0,120,10.0,0.0
21157,88.0,1,120,0.0,0.0
21158,84.0,0,120,0.0,0.0
21159,84.0,0,120,11.0,0.0
21160,60.0,0,120,11.0,0.0
21161,67.0,1,120,11.0,0.0
21162,76.0,0,120,11.0,0.0
21163,60.0,1,120,6.0,0.0
21164,72.0,0,120,6.0,0.0
21165,64.0,0,120,7.0,0.0
21166,84.0,0,120,1.0,0.0
21167,64.0,1,120,4.0,0.0
21168,76.0,0,120,1.0,0.0
21169,67.0,0,120,4.0,0.0
21170,64.0,0,120,12.0,0.0
21171,48.0,0,120,12.0,0.0
21172,72.0,1,120,12.0,0.0
21173,55.0,0,120,12.0,0.0
21174,60.0,1,120,5.0,0.0
21175,52.0,0,120,5.0,0.0
21176,72.0,0,120,2.0,0.0
21177,64.0,0,120,2.0,0.0
21178,60.0,1,120,7.0,0.0
21179,48.0,4,120,15.0,0.0
21180,48.0,1,120,13.0,0.0
21181,48.0,1,120,8.0,0.0
21182,48.0,1,120,3.0,0.0
21183,36.0,381,120,14.0,0.0
21184,55.0,0,120,10.0,0.0
21185,64.0,1,120,10.0,0.0
21186,72.0,0,120,10.0,0.0
21187,84.0,0,120,0.0,0.0
21188,88.0,1,120,0.0,0.0
21189,64.0,0,120,11.0,0.0
21190,55.0,1,120,11.0,0.0
21191,72.0,0,120,11.0,0.0
21192,72.0,0,120,6.0,0.0
21193,60.0,1,120,6.0,0.0
21194,76.0,1,120,1.0,0.0
21195,84.0,0,120,1.0,0.0
21196,67.0,0,120,4.0,0.0
21197,64.0,0,120,7.0,0.0
21198,64.0,0,120,4.0,0.0
21199,48.0,0,120,12.0,0.0
21200,64.0,0,120,12.0,0.0
21201,55.0,1,120,12.0,0.0
21202,72.0,0,120,2.0,0.0
21203,52.0,1,120,5.0,0.0
21204,64.0,0,120,2.0,0.0
21205,60.0,0,120,5.0,0.0
21206,60.0,5,120,7.0,0.0
21207,48.0,29,26,15.0,0.0
21208,48.0,0,120,13.0,0.0
21209,48.0,1,120,8.0,0.0
21210,48.0,1,120,3.0,0.0
21211,36.0,29,120,14.0,0.0
21212,48.0,35,26,15.0,0.0
21213,48.0,20,26,15.0,0.0
21214,48.0,1,26,15.0,0.0
21215,48.0,32,26,15.0,0.0
21216,48.0,31,26,15.0,0.0
21217,48.0,31,26,15.0,0.0
21218,48.0,32,26,15.0,0.0
21219,48.0,32,26,15.0,0.0
21220,48.0,34,26,15.0,0.0
21221,48.0,29,26,15.0,0.0
21222,48.0,33,26,15.0,0.0
21223,48.0,31,26,15.0,0.0
21224,48.0,34,26,15.0,0.0
21225,48.0,30,26,15.0,0.0
21226,48.0,32,26,15.0,0.0
21227,48.0,35,26,15.0,0.0
21228,48.0,30,26,15.0,0.0
21229,48.0,32,26,15.0,0.0
21230,48.0,33,26,15.0,0.0
21231,48.0,32,26,15.0,0.0
21232,48.0,33,26,15.0,0.0
21233,48.0,31,26,15.0,0.0
21234,48.0,31,26,15.0,0.0
21235,48.0,31,26,15.0,0.0
21236,48.0,34,26,15.0,0.0
21237,48.0,31,26,15.0,0.0
21238,48.0,32,26,15.0,0.0
21239,48.0,34,26,15.0,0.0
21240,48.0,31,26,15.0,0.0
21241,60.0,0,120,10.0,0.0
21242,76.0,0,120,10.0,0.0
21243,84.0,1,120,10.0,0.0
21244,67.0,0,120,10.0,0.0
21245,84.0,1,120,0.0,0.0
21246,60.0,0,120,11.0,0.0
21247,67.0,0,120,11.0,0.0
21248,76.0,0,120,11.0,0.0
21249,84.0,1,120,11.0,0.0
21250,60.0,0,120,6.0,0.0
21251,72.0,1,120,6.0,0.0
21252,67.0,0,120,4.0,0.0
21253,76.0,0,120,1.0,0.0
21254,84.0,0,120,1.0,0.0
21255,64.0,1,120,7.0,0.0
21256,64.0,0,120,4.0,0.0
21257,64.0,0,120,12.0,0.0
21258,48.0,1,120,12.0,0.0
21259,72.0,0,120,12.0,0.0
21260,55.0,0,120,12.0,0.0
21261,76.0,1,120,2.0,0.0
21262,60.0,0,120,5.0,0.0
21263,72.0,0,120,2.0,0.0
21264,52.0,0,120,5.0,0.0
21265,60.0,3,120,7.0,0.0
21266,48.0,30,26,15.0,0.0
21267,48.0,1,120,13.0,0.0
21268,48.0,1,120,8.0,0.0
21269,48.0,1,120,3.0,0.0
21270,36.0,28,120,14.0,0.0
21271,48.0,34,26,15.0,0.0
21272,48.0,21,26,15.0,0.0
21273,48.0,2,26,15.0,0.0
21274,48.0,32,26,15.0,0.0
21275,48.0,32,26,15.0,0.0
21276,48.0,31,26,15.0,0.0
21277,48.0,31,26,15.0,0.0
21278,48.0,32,26,15.0,0.0
21279,48.0,33,26,15.0,0.0
21280,48.0,34,26,15.0,0.0
21281,48.0,31,26,15.0,0.0
21282,48.0,33,26,15.0,0.0
21283,48.0,32,26,15.0,0.0
21284,48.0,31,26,15.0,0.0
21285,48.0,30,26,15.0,0.0
21286,48.0,34,26,15.0,0.0
21287,48.0,31,26,15.0,0.0
21288,48.0,33,26,15.0,0.0
21289,48.0,32,26,15.0,0.0
21290,48.0,32,26,15.0,0.0
21291,48.0,31,26,15.0,0.0
21292,48.0,31,26,15.0,0.0
21293,48.0,32,26,15.0,0.0
21294,48.0,33,26,15.0,0.0
21295,48.0,34,26,15.0,0.0
21296,48.0,31,26,15.0,0.0
21297,48.0,33,26,15.0,0.0
21298,48.0,32,26,15.0,0.0
21299,48.0,116,26,15.0,0.0
21300,67.0,0,120,10.0,0.0
21301,84.0,0,120,10.0,0.0
21302,60.0,0,120,10.0,0.0
21303,76.0,1,120,10.0,0.0
21304,84.0,1,120,0.0,0.0
21305,84.0,0,120,11.0,0.0
21306,67.0,1,120,11.0,0.0
21307,76.0,0,120,11.0,0.0
21308,60.0,0,120,11.0,0.0
21309,72.0,0,120,6.0,0.0
21310,60.0,1,120,6.0,0.0
21311,67.0,1,120,4.0,0.0
21312,64.0,0,120,7.0,0.0
21313,64.0,0,120,4.0,0.0
21314,84.0,0,120,1.0,0.0
21315,76.0,0,120,1.0,0.0
21316,64.0,1,120,12.0,0.0
21317,55.0,0,120,12.0,0.0
21318,48.0,0,120,12.0,0.0
21319,72.0,0,120,12.0,0.0
21320,72.0,0,120,2.0,0.0
21321,60.0,0,120,5.0,0.0
21322,76.0,1,120,2.0,0.0
21323,52.0,0,120,5.0,0.0
21324,60.0,1,120,7.0,0.0
21325,48.0,4,120,15.0,0.0
21326,48.0,1,120,13.0,0.0
21327,48.0,1,120,8.0,0.0
21328,48.0,1,120,3.0,0.0
21329,36.0,360,120,14.0,0.0
